<?xml version="1.0" encoding="utf-8" ?>
<svg xmlns="http://www.w3.org/2000/svg" xmlns:cc="http://creativecommons.org/ns" xmlns:dc="http://purl.org/dc/elements/1.1/" xmlns:ev="http://www.w3.org/2001/xml-events" xmlns:inkscape="http://www.inkscape.org/namespaces/inkscape" xmlns:rdf="http://www.w3.org/1999/02/22-rdf-syntax-ns" xmlns:sodipodi="http://sodipodi.sourceforge.net/DTD/sodipodi-0.dtd" xmlns:xlink="http://www.w3.org/1999/xlink" baseProfile="tiny" height="27.09333333cm" version="1.2" viewBox="0 0 1024.0 1024.0" width="27.09333333cm">
  <metadata>
    <rdf:RDF>
      <cc:Work>
        <dc:format>image/svg+xml</dc:format>
        <dc:source>vpype read './original_svgs/Strange Attractors #121.svg' linemerge linesimplify write './Strange Attractors #121.svg'
</dc:source>
        <dc:date>2024-08-05T01:35:28.350141</dc:date>
      </cc:Work>
    </rdf:RDF>
  </metadata>
  <defs/>
  <g fill="none" id="layer1" inkscape:groupmode="layer" inkscape:label="1" stroke="black" stroke-width="0.7mm" style="display:inline">
    <polyline points="637.625,824.125 663.625,752.375 681.5,696.375 703.875,623.0 711.25,600.75 717.0,584.875 724.125,566.625 725.125,561.875 723.5,559.0 718.5,557.5 708.625,556.875 692.5,557.0 668.375,557.625 634.875,559.0 592.75,561.125 544.5,564.875 495.25,570.625 450.75,578.875 415.0,589.5 389.0,602.125 371.75,615.875 361.375,630.375 355.875,645.0 353.625,659.5"/>
    <polyline points="353.875,673.75 355.75,687.375 359.25,700.25 364.0,712.0 370.0,722.25 377.125,730.875 385.375,737.25 394.375,741.375 404.125,742.75 414.125,741.625 424.375,738.0 434.375,732.0 444.125,724.125 453.125,714.75 461.5,704.25 469.125,693.25 475.875,681.875 481.875,670.625 487.125,659.625 491.75,649.0 499.25,629.75 504.875,613.125 509.125,599.125"/>
    <polyline points="510.875,593.0 520.625,560.5 524.375,551.375 527.0,546.25 529.625,542.25 533.25,538.25 536.125,536.0"/>
    <polyline points="537.125,535.25 543.25,532.25 550.125,530.625 557.75,530.0 568.0,530.375"/>
    <polyline points="569.5,530.5 581.25,531.875 596.0,534.75 605.0,537.25 611.0,539.75 612.125,540.5"/>
    <polyline points="613.0,541.125 614.0,542.75 614.0,543.5 613.625,544.375 612.75,545.25 609.375,547.125 606.75,548.125 599.25,550.25 582.125,553.875 534.5,562.5 513.125,567.125 498.125,571.0"/>
    <polyline points="494.625,571.875 487.625,573.25 485.375,573.0 484.375,572.0 484.125,569.125 486.375,555.75 487.125,546.375"/>
    <polyline points="487.125,544.875 486.5,536.875 485.75,533.25 483.875,528.125 481.875,524.375 477.25,518.75"/>
    <polyline points="476.5,518.0 471.125,513.75 463.625,508.875 446.875,499.5"/>
    <polyline points="445.25,498.5 438.375,494.375 429.0,487.875 421.125,481.25 415.0,475.0 409.0,467.25 405.0,461.0 401.375,453.75 398.25,445.125"/>
    <polyline points="396.875,440.25 394.625,429.375 393.625,416.5 393.625,409.25 394.125,401.5 395.125,393.25 396.625,384.5 399.0,375.375 402.0,365.875 405.875,356.125 410.625,346.5 416.25,337.0 423.0,328.0 430.5,319.875 438.875,313.0 448.0,307.625 457.625,304.25 467.5,302.875 477.5,303.75 487.25,307.0 496.5,312.25 505.25,319.25 513.0,327.875 520.0,337.625"/>
    <polyline points="526.125,348.125 531.25,359.125 535.625,370.0 539.25,380.875 544.25,401.125 547.375,419.125 549.0,434.375 549.75,452.625 549.625,466.125 548.375,491.5"/>
    <polyline points="548.375,493.0 548.75,498.25 549.25,500.5 551.125,505.125 552.625,507.375 555.25,510.125 558.5,512.5 561.375,514.125"/>
    <polyline points="562.375,514.625 566.875,516.75 575.0,519.625 590.5,523.875 603.375,526.875"/>
    <polyline points="605.625,527.375 626.25,532.125 640.125,535.75 650.125,539.25 653.625,541.25 654.75,542.375 655.375,543.5 655.0,544.625 653.75,545.875 651.25,547.125 647.125,548.375"/>
    <polyline points="641.25,549.875 622.75,552.875 576.875,558.75 538.25,564.25 519.0,567.625 501.125,571.375 485.25,575.5 471.875,579.75 461.0,584.0 452.625,588.125 446.375,592.125 441.875,595.625 438.75,598.75 436.875,601.375 435.625,603.5 435.0,606.375 435.125,607.125 435.5,607.5 436.625,607.25 437.125,606.75"/>
    <polyline points="437.75,605.875 439.375,602.5 440.375,598.25 440.75,591.875 439.875,585.5 437.875,579.875 436.375,577.375 433.75,574.0 431.625,572.0"/>
    <polyline points="430.375,571.125 427.875,569.5 425.125,568.25 420.375,566.875 417.0,566.375 411.375,566.375 407.25,566.875 400.75,568.75 396.0,570.625 393.625,571.875 386.0,576.875 380.875,581.625"/>
    <polyline points="378.125,584.375 375.5,587.5 370.25,595.0 365.25,604.5 362.875,609.875 358.75,622.625 355.5,637.875 354.5,646.5 354.0,655.625 354.125,665.375 355.0,675.375 356.625,685.75 359.125,696.0 362.625,706.0 367.25,715.375 373.0,723.625 379.75,730.5 387.5,735.625 396.125,738.625 405.25,739.25 414.75,737.625 424.5,733.75"/>
    <polyline points="434.0,727.875 443.125,720.125 451.875,711.125 459.875,701.0 467.125,690.375 473.75,679.5 479.625,668.5 484.75,657.875 489.25,647.625 496.625,628.75 504.625,605.25 516.25,565.875 520.125,554.75"/>
    <polyline points="521.0,552.5 525.25,543.875 529.5,538.0 532.125,535.375 535.75,532.75 539.625,530.875 543.75,529.625"/>
    <polyline points="544.875,529.375 549.375,528.625 553.0,528.375 559.625,528.375 568.5,529.0 580.25,530.625"/>
    <polyline points="582.125,530.875 595.375,533.375 605.125,535.875 612.25,538.25 615.125,539.625 617.25,541.125 617.875,542.0 618.25,542.75 618.25,543.625 616.625,545.5"/>
    <polyline points="615.0,546.5 609.375,548.5 600.625,550.875 580.625,554.75 545.125,560.875 527.25,564.375 511.625,567.875 482.75,575.75 481.375,575.875 479.625,575.5"/>
    <polyline points="479.125,574.875 478.875,573.25 480.5,561.75 481.125,553.375 480.75,545.5 479.375,538.625"/>
    <polyline points="479.0,537.25 475.75,530.25 473.75,527.125 471.25,524.25 466.625,519.75 457.0,513.0"/>
    <polyline points="455.75,512.125 432.25,498.5 424.125,493.125 415.375,486.375 408.5,480.0"/>
    <polyline points="406.25,477.625 399.375,469.125 397.125,465.75 392.875,458.125 389.0,449.0 385.75,438.125 383.5,424.875 382.875,417.375 382.625,409.125 383.0,400.125 384.0,390.5 385.625,380.0 388.25,368.875 391.75,357.125 396.375,345.125 402.25,332.875 409.375,320.75 417.75,309.375 427.375,299.25 438.25,290.75"/>
    <polyline points="449.875,284.5 462.25,281.125 474.875,280.625 487.25,283.375 499.25,289.25 510.25,297.625 520.25,308.375 529.0,320.625 536.5,333.875 542.75,347.625 547.75,361.375 551.875,374.625 555.0,387.25 557.375,399.125 559.125,410.0 561.125,428.875 561.625,437.0 561.875,444.25 561.625,461.5 560.375,477.0"/>
    <polyline points="560.125,479.875 558.875,493.875 559.25,499.0 560.0,502.125 561.25,504.75 563.5,507.75 566.625,510.5"/>
    <polyline points="567.5,511.125 572.625,514.125 577.625,516.375 583.5,518.5 598.0,522.625 606.75,524.625"/>
    <polyline points="609.0,525.25 639.375,531.875 655.375,535.625 661.625,537.375 667.5,539.375 672.25,541.375 674.0,542.5 675.0,543.75 675.0,545.0"/>
    <polyline points="673.875,546.25 671.125,547.625 666.25,549.0 658.875,550.5 648.375,552.125 570.125,560.625 543.75,563.875 517.375,567.875 492.75,572.75 471.125,578.25 453.375,584.25 439.625,590.5 429.375,596.75 422.25,602.875 417.5,608.625 414.625,613.875 413.0,618.5 412.375,622.625 412.5,626.125 413.0,629.0 413.875,631.375 416.375,634.625"/>
    <polyline points="417.875,635.625 419.375,636.25 421.0,636.375 424.125,635.625 425.75,634.875 427.375,633.875 430.375,631.0 434.625,625.625 438.125,619.125 441.625,609.75 443.625,600.5 444.125,594.0"/>
    <polyline points="444.125,591.875 444.0,587.875 443.5,584.125 442.125,579.0 440.875,575.875 437.5,570.5 434.25,567.125 430.375,564.375 427.5,562.875 420.875,560.625"/>
    <polyline points="419.0,560.375 415.125,559.875 411.0,559.75 401.875,560.875 396.875,562.25 391.625,564.25 383.25,568.875 374.5,576.0 368.375,582.5 365.25,586.5 359.25,596.0 353.5,608.125"/>
    <polyline points="350.875,615.25 348.5,623.125 346.375,632.0 344.75,641.625 343.5,652.25 343.0,663.625 343.25,675.875 344.5,688.625 346.75,701.625 350.375,714.625 355.375,727.125 362.0,738.5 370.0,748.25 379.375,755.625 390.0,760.25 401.5,761.75 413.5,759.875 425.625,755.0 437.5,747.125 448.875,737.125 459.375,725.25 469.0,712.375 477.5,698.875 485.0,685.375 491.5,672.125 497.125,659.5"/>
    <polyline points="502.0,647.5 512.5,617.125 519.375,594.375 526.375,569.75 529.625,560.25 531.5,555.375 534.375,549.75 536.25,546.875 540.25,542.375"/>
    <polyline points="541.25,541.5 545.375,538.625 548.75,537.125 553.5,535.75 557.375,535.0 561.375,534.625 568.375,534.5 572.875,534.75"/>
    <polyline points="574.375,534.875 579.125,535.375 586.875,536.75 594.125,538.625 596.625,539.625 599.625,541.25 601.125,543.0 600.875,544.375 599.375,545.875"/>
    <polyline points="598.125,546.625 594.25,548.25 588.625,550.0 571.625,553.875 512.75,565.25 507.75,566.0 503.0,565.875"/>
    <polyline points="502.0,565.5 501.375,565.125 500.5,563.75 500.5,560.875 502.875,552.125 508.125,537.5"/>
    <polyline points="508.5,536.5 512.5,526.875 514.75,522.75 516.125,521.0"/>
    <polyline points="516.375,520.625 518.0,519.125 519.75,518.125 521.375,517.5 524.125,517.125"/>
    <polyline points="524.5,517.125 529.75,517.25 537.5,518.375"/>
    <line x1="538.25" x2="563.75" y1="518.5" y2="523.25"/>
    <polyline points="565.25,523.5 597.5,530.0 613.25,533.875"/>
    <polyline points="615.625,534.5 620.125,535.75 626.375,538.0 631.125,540.375 633.0,542.25 632.875,544.25 631.75,545.375 629.875,546.5 627.0,547.625 617.75,550.125 603.125,552.875 558.375,559.875 532.5,564.375"/>
    <polyline points="520.125,566.875 508.75,569.375 498.625,572.0 482.625,577.0 476.625,579.25 462.375,586.0 461.125,586.25 460.875,585.375 462.25,576.25 462.375,569.25"/>
    <polyline points="462.25,567.5 461.625,562.125 460.25,557.125 459.125,554.0 456.0,548.25 453.0,544.25 449.5,540.625 444.0,536.25 439.125,533.25"/>
    <polyline points="437.5,532.25 425.875,526.875 411.75,521.75 371.25,509.875"/>
    <polyline points="367.5,508.625 351.625,503.25 338.625,497.75 334.125,495.5 325.0,490.0 320.25,486.75 315.5,483.0 310.75,478.625 306.125,473.375 301.5,467.375 297.0,460.0 292.75,451.375 288.75,440.75 285.5,428.0 282.875,412.375 281.5,393.25 281.75,369.875 284.5,341.375 290.5,307.125 301.375,266.75"/>
    <polyline points="318.625,220.875 343.875,171.875 378.375,124.625 421.75,86.75 471.25,66.625 522.0,70.5 568.375,98.25 606.125,143.875 634.0,198.0 652.875,252.625 664.375,302.375 670.625,344.625 673.0,379.0 672.5,405.875 669.75,426.375 665.125,441.625 658.875,452.375 650.875,459.625 641.625,464.25 631.25,466.5 619.875,467.125 608.0,466.5 596.0,465.0 584.125,462.75 562.0,457.375"/>
    <polyline points="552.25,454.625 513.5,442.25 506.875,440.5 502.125,440.0 500.25,440.0 497.5,440.75 494.625,443.125 493.25,445.125 490.0,453.5"/>
    <polyline points="489.625,454.75 487.375,460.375 484.25,466.0 479.875,470.625 477.0,472.375 474.625,473.125"/>
    <polyline points="473.875,473.375 472.125,473.75 468.625,473.875 462.875,472.875 458.75,471.375 455.625,469.75 453.375,468.375 449.0,465.0"/>
    <polyline points="447.875,464.0 443.5,459.375 439.375,453.5 436.625,448.125 434.375,442.0 432.625,434.75 431.875,426.75 432.0,420.875 433.375,411.5"/>
    <polyline points="434.25,408.375 435.125,405.125 437.75,398.875 441.125,393.0 445.375,387.75 447.75,385.375 453.0,381.75 455.875,380.375 461.875,379.0 464.875,378.875 468.0,379.25 471.0,380.0 477.0,382.875 479.875,384.875 485.125,390.0 487.5,392.875 491.875,399.5 493.75,403.0"/>
    <polyline points="495.375,406.625 497.0,410.25 500.5,421.25 502.75,431.875 504.0,441.5 504.375,450.0 504.0,459.625 503.0,467.5 501.625,473.75"/>
    <polyline points="501.125,475.125 499.0,481.0 497.0,484.5 495.375,486.625 491.875,489.875 490.0,491.0 487.375,492.0"/>
    <polyline points="486.625,492.25 482.125,493.0 477.875,492.875 473.25,492.25 467.0,490.625 463.625,489.375"/>
    <polyline points="462.5,489.0 454.875,485.5 449.375,482.375 440.625,476.125 436.125,472.0 433.125,468.75 430.125,465.125 427.25,461.0"/>
    <polyline points="425.875,458.75 423.125,453.75 420.625,448.125 418.5,441.75 416.875,434.5 415.875,426.375 415.75,417.375 416.5,407.5 417.375,402.25 420.125,391.375 422.125,385.75 424.5,380.25 427.25,374.875 430.5,369.625 434.125,364.625 438.25,360.125 442.75,356.0 447.5,352.625"/>
    <polyline points="452.625,350.0 458.0,348.25 463.5,347.5 469.0,347.625 474.625,348.75 480.0,350.75 485.25,353.75 490.125,357.5 494.875,362.125 499.125,367.25 503.0,372.875 506.5,378.875 509.625,385.0 512.375,391.375 514.75,397.625 518.375,410.0 521.0,421.625 522.625,432.25 523.625,441.75 524.125,453.875"/>
    <polyline points="524.25,457.5 523.5,474.25 520.625,499.25"/>
    <polyline points="520.625,500.0 520.5,504.125 520.75,506.375 521.625,509.125 522.5,510.375"/>
    <polyline points="522.75,510.625 524.125,512.0 526.5,513.5 531.0,515.25"/>
    <polyline points="531.5,515.375 539.375,517.625 549.625,519.875"/>
    <line x1="550.625" x2="587.125" y1="520.125" y2="527.625"/>
    <polyline points="589.125,528.0 613.25,533.5 622.5,536.125 626.625,537.625 630.25,539.25 633.0,541.0 634.25,542.875 634.125,544.0 633.25,545.0"/>
    <polyline points="631.625,546.125 625.375,548.5 620.5,549.75 606.375,552.5 548.625,561.5 522.625,566.375 510.75,569.0 500.0,571.625 483.0,576.875 471.625,581.375 460.375,587.125 459.875,587.25 459.625,587.0"/>
    <polyline points="459.625,586.5 461.0,577.625 461.25,572.5 460.375,563.625 458.5,557.0 456.375,552.375 453.75,548.25"/>
    <polyline points="452.75,546.875 449.375,543.125 444.0,538.625 434.125,532.75 421.75,527.625 407.0,523.0"/>
    <polyline points="404.25,522.25 382.5,517.125 329.125,506.0 314.0,502.125 303.375,499.0"/>
    <polyline points="297.875,497.125 286.375,492.5 274.625,486.25 268.625,482.25 262.625,477.25 256.75,471.25 250.875,463.875 245.25,454.5 240.0,442.625 235.375,427.5 231.875,408.125 230.0,382.875 230.75,350.25 235.5,308.0 246.5,254.625 267.0,189.0 301.0,113.75 352.125,37.5 394.6043,0.0"/>
    <polyline points="598.1166,0.0 640.0,43.125 684.0,128.25 710.625,213.25"/>
    <polyline points="724.5,286.75 729.875,344.75 729.25,387.875 723.75,418.375 713.5,438.625 698.75,450.875 679.5,456.875 656.375,457.875 630.5,455.125 603.375,449.625 576.875,442.375 552.5,433.875 531.25,424.875 513.5,415.875 499.25,407.0 488.375,398.75 480.5,391.0 475.0,384.0 471.625,377.75 469.875,372.375 469.625,367.75 470.375,364.0 472.125,361.25 474.5,359.375 477.375,358.5 480.625,358.5"/>
    <polyline points="484.0,359.375 487.625,361.125 491.125,363.625 494.625,366.875 498.0,370.75 501.125,375.125 506.75,385.0 511.125,395.75 513.0,401.25 516.0,412.0 518.0,422.375 519.375,431.875 520.125,440.625 520.5,451.875 520.125,464.125"/>
    <polyline points="519.875,466.75 519.25,473.625 517.75,484.125 514.375,499.25"/>
    <polyline points="514.25,499.875 512.125,506.625 511.375,508.375 510.25,509.875 508.875,510.5 507.125,510.5 501.25,509.25"/>
    <line x1="500.875" x2="490.625" y1="509.125" y2="506.375"/>
    <polyline points="490.125,506.125 478.875,502.625 470.375,499.5"/>
    <polyline points="469.375,499.0 459.875,495.0 451.75,490.875 441.0,484.125 434.5,478.875"/>
    <polyline points="432.75,477.375 427.625,472.25 424.25,468.25 417.75,458.5 414.875,452.5 412.125,445.625 410.0,437.75 409.125,433.375 408.0,423.75 407.875,418.375 408.375,406.875 410.375,394.25 414.25,380.75"/>
    <polyline points="417.0,373.875 420.25,367.0 424.0,360.25 428.5,353.875 433.5,348.0 439.0,342.75 445.125,338.375 451.5,335.0 458.25,332.75 465.125,331.875 472.125,332.25 479.0,334.0 485.75,337.125 492.125,341.375 498.0,346.75 503.5,352.875 508.5,359.75 512.875,367.125 516.75,374.875 520.125,382.625 523.0,390.5 525.375,398.125 527.25,405.625 530.25,419.5 531.25,425.875"/>
    <polyline points="532.0,432.0 533.375,452.125 533.375,463.75 531.875,492.0 532.0,497.875"/>
    <polyline points="532.0,498.875 533.125,504.5 534.25,507.0 536.125,509.625 539.125,512.25 540.875,513.375"/>
    <polyline points="541.625,513.75 545.875,515.875 550.25,517.5 566.625,522.0"/>
    <polyline points="568.125,522.375 608.5,531.25 618.125,533.75"/>
    <polyline points="620.5,534.375 629.75,537.25 635.5,539.75 637.875,541.625 638.5,542.625 638.625,543.625 638.0,544.75 636.5,545.875 634.125,547.0 630.5,548.25 619.125,550.875 611.0,552.375 548.875,561.75 520.5,567.0"/>
    <polyline points="507.5,569.875 496.0,572.75 486.125,575.75 477.875,578.625 466.0,583.75 459.125,587.625 454.5,590.875 454.375,590.375 455.875,583.5 456.25,578.5 456.125,573.25"/>
    <polyline points="455.875,571.5 454.875,566.25 452.5,559.875 450.0,555.5 448.0,552.875 444.5,549.125 440.5,545.875 434.125,542.0 428.625,539.5"/>
    <polyline points="426.75,538.75 418.125,536.0 408.375,533.875 400.125,532.75 391.125,532.125 381.25,532.25 370.375,533.25 358.5,535.625 350.0,538.375"/>
    <polyline points="345.5,540.25 340.875,542.5 331.25,548.5 326.25,552.5 321.0,557.25 315.75,562.875 310.375,569.75 304.875,578.0 299.5,587.875 294.0,599.875 288.875,614.125 284.0,631.25 279.875,651.625 276.875,675.625 275.375,703.625 276.5,735.25 281.0,770.125 290.125,806.375 304.875,841.5 325.625,871.375 352.375,892.0 383.375,899.875 416.375,893.375 448.75,874.125 478.0,845.25"/>
    <polyline points="502.875,811.25 523.0,775.75 538.5,741.625 550.0,710.75 558.125,683.75 563.625,660.875 566.875,641.75 568.375,626.125 568.375,613.375 567.25,603.25 565.125,595.125 562.25,588.875 558.625,583.875 554.625,580.125 550.25,577.25 545.625,575.0 540.875,573.5 531.625,571.5 508.625,569.5"/>
    <polyline points="506.875,569.125 504.125,568.25 503.25,567.625 502.125,566.0 501.75,563.0 502.375,559.5 504.375,552.75 508.75,541.25"/>
    <polyline points="509.125,540.125 512.625,532.375 515.0,528.0 517.25,524.75 519.125,522.75"/>
    <polyline points="519.5,522.5 521.0,521.25 523.875,519.875 527.625,519.0 530.875,518.875"/>
    <polyline points="531.375,518.875 538.75,519.375 551.375,521.375"/>
    <line x1="552.5" x2="591.25" y1="521.5" y2="528.875"/>
    <polyline points="593.25,529.375 606.375,532.25 617.75,535.25 626.125,538.125 629.375,539.75 630.75,540.625 631.625,541.625 632.25,542.5 632.375,543.5 631.875,544.5 630.625,545.625 628.5,546.75 625.375,547.875"/>
    <polyline points="621.25,549.125 608.875,551.75 543.125,562.375 518.5,567.125 497.75,572.25 489.375,574.75 476.75,579.25 462.5,585.75 462.0,585.625 461.875,585.25 462.0,583.75"/>
    <polyline points="462.125,582.625 463.375,573.5 463.375,568.25 462.875,562.875 461.75,557.75 459.375,551.5 456.0,545.875 454.0,543.25"/>
    <polyline points="452.875,542.0 449.25,538.5 443.625,534.125 435.125,529.25 427.25,525.625 420.625,523.0 405.5,517.75"/>
    <polyline points="402.625,516.75 377.25,508.375 366.375,504.125 354.625,498.875 346.5,494.5 342.25,491.875 333.75,485.625 329.375,481.75 320.75,472.375 316.625,466.5 312.5,459.5 308.625,451.375"/>
    <polyline points="305.125,441.625 302.0,430.0 299.625,416.0 298.25,399.375 298.125,379.25 300.0,355.25 304.5,326.75 312.5,293.5 325.25,255.875 343.875,215.125 369.5,174.125 402.375,137.5 441.375,111.25 484.0,101.0 526.25,110.0 564.25,136.75 595.25,176.25 618.5,222.0 634.75,268.0 645.25,310.5 651.375,347.5 654.125,378.375 654.625,403.25 653.375,422.875 650.5,438.0 646.375,449.375"/>
    <polyline points="641.25,457.75 635.25,463.625 628.25,467.625 620.75,470.0 612.625,471.125 604.25,471.375 595.75,470.875 587.375,470.0 579.125,468.75 539.75,460.625 527.5,458.625 521.625,458.375 517.0,458.75 513.375,459.875 510.5,461.25"/>
    <polyline points="509.375,462.125 505.5,466.125 496.625,480.125 494.25,483.125 492.375,484.875"/>
    <polyline points="491.75,485.5 487.875,488.125 483.5,489.625 481.125,490.0 476.75,490.125 472.125,489.5"/>
    <polyline points="471.125,489.375 464.625,487.625 458.625,485.25 454.875,483.375 450.875,481.125 445.25,477.375 439.5,472.625"/>
    <polyline points="438.125,471.25 435.125,468.25 432.25,464.75 426.75,456.5 424.25,451.5 422.0,445.75 419.375,436.0 418.25,428.375 418.0,424.375 417.875,420.0 418.5,410.875 420.125,401.0 421.375,395.875 423.125,390.75"/>
    <polyline points="425.125,385.5 427.5,380.375 433.5,370.625 437.125,366.125 441.125,362.125 445.375,358.625 450.0,355.75 454.875,353.625 459.875,352.375 465.0,351.875 470.25,352.25 475.375,353.5 480.375,355.625 485.125,358.625 489.75,362.375 494.0,366.625 498.0,371.5 501.625,376.75 504.875,382.375 507.75,388.125 510.25,394.125 514.375,405.875 517.25,417.25"/>
    <polyline points="518.375,422.625 520.5,437.25 521.25,445.875 521.5,453.375 521.5,460.0 521.0,470.875 520.375,477.375 518.375,490.75"/>
    <polyline points="518.25,491.875 516.375,501.75 515.875,506.625"/>
    <polyline points="515.75,506.875 516.125,510.25 517.125,511.75 519.125,513.0 521.0,513.625"/>
    <line x1="521.25" x2="529.75" y1="513.75" y2="516.0"/>
    <line x1="530.25" x2="547.75" y1="516.125" y2="519.875"/>
    <line x1="548.625" x2="583.625" y1="520.0" y2="527.0"/>
    <polyline points="585.5,527.375 606.75,532.0 622.75,536.375 630.375,539.5 632.875,541.375 633.5,542.25 633.75,543.25"/>
    <polyline points="633.375,544.25 632.375,545.375 630.5,546.5 627.625,547.625 623.625,548.875 611.625,551.5 544.875,562.125 519.5,567.0 508.0,569.625 497.75,572.25 481.625,577.375 471.0,581.625 460.875,586.75"/>
    <polyline points="460.375,586.75 460.125,585.875 461.0,581.5 461.75,573.25 461.625,567.875 460.875,562.625 459.5,557.625 456.0,550.125"/>
    <polyline points="455.125,548.75 453.125,546.0 448.5,541.125 442.875,536.75 439.75,534.75 432.625,531.0 426.625,528.375 412.625,523.5"/>
    <polyline points="410.125,522.75 396.0,518.75 361.0,510.0 348.625,506.625 330.5,500.75 315.875,494.5"/>
    <polyline points="310.875,491.75 305.75,488.75 295.375,481.0 290.125,476.0 285.0,470.0 280.0,462.75 275.125,454.0 270.625,443.25 266.75,429.875 263.625,413.25 261.875,392.5 262.0,366.5 264.875,334.125 272.0,294.25 285.0,246.25 306.25,190.875 338.125,131.75 382.25,76.25 437.25,36.0 498.375,22.625 557.625,41.875 607.625,89.125 644.875,152.25 669.75,218.625 684.625,279.625"/>
    <polyline points="692.25,331.0 694.875,371.875 693.875,403.125 689.625,426.0 682.75,442.25 673.375,453.0 661.5,459.5 647.625,462.5 632.0,463.0 615.375,461.5 598.25,458.5 581.5,454.625 565.625,450.125 551.125,445.375 538.25,440.5 527.25,435.875 517.75,431.625 503.625,424.375 494.625,418.875 485.625,412.875"/>
    <polyline points="485.125,412.75 485.125,414.25 488.5,426.25 489.75,434.0 490.25,439.75 490.25,447.125 489.75,452.0"/>
    <polyline points="489.5,453.5 489.0,456.5 487.5,461.625 485.125,466.75 482.875,469.875 480.875,471.75 478.75,473.25 475.75,474.5"/>
    <polyline points="475.0,474.75 471.625,475.375 468.875,475.375 464.0,474.625 459.875,473.25 456.625,471.75 449.875,467.375"/>
    <polyline points="448.75,466.375 443.125,460.75 438.75,454.875 435.875,449.375 433.375,443.125 432.0,438.25 430.75,430.25 430.5,424.375 431.25,414.875"/>
    <polyline points="431.875,411.625 432.625,408.25 434.75,401.5 437.875,395.0 441.75,388.875 446.5,383.625 449.25,381.5 452.0,379.625 455.0,378.125 458.125,377.125 464.625,376.25 467.875,376.625 471.125,377.375 474.25,378.625 477.375,380.375 480.375,382.375 486.0,387.75 488.5,390.875 493.125,397.75"/>
    <polyline points="495.0,401.5 498.5,409.125 501.125,417.0 503.125,424.5 505.0,435.25 505.875,444.875 506.0,455.875 505.0,466.75 503.75,473.5"/>
    <polyline points="503.375,475.0 501.25,481.125 498.375,486.625 495.25,490.375 493.0,492.125 490.625,493.375"/>
    <polyline points="489.875,493.625 485.125,494.75 482.0,494.875 475.125,494.125 469.125,492.625"/>
    <polyline points="468.0,492.25 464.625,491.125 457.25,488.0 447.625,482.625 441.75,478.375 434.0,471.375"/>
    <polyline points="432.5,469.75 429.375,466.125 426.375,462.0 423.5,457.25 420.875,451.875 417.375,442.5 415.0,431.125 414.625,426.875 414.375,422.375 414.5,412.625 415.875,402.0 417.125,396.375 420.75,385.0 423.125,379.125 426.0,373.5"/>
    <polyline points="429.375,368.0 433.125,362.75 437.375,358.0 442.0,353.75 447.0,350.25 452.375,347.5 458.0,345.625 463.625,344.75 469.5,344.875 475.25,346.125 480.875,348.25 486.25,351.5 491.375,355.5 496.25,360.375 500.625,365.75 504.625,371.625 508.25,377.875 511.375,384.375 514.125,391.0 518.625,404.0 521.625,416.375 524.375,433.0"/>
    <polyline points="524.875,438.0 525.625,447.0 525.875,455.0 525.75,464.875 524.75,479.5 523.0,496.0"/>
    <polyline points="523.0,496.875 523.0,504.5 524.0,508.0 525.25,510.0"/>
    <polyline points="525.5,510.375 527.5,512.25 529.75,513.625 535.875,516.0"/>
    <polyline points="536.5,516.25 547.25,519.125 559.25,521.75"/>
    <polyline points="560.5,522.0 596.375,529.375 605.25,531.5"/>
    <polyline points="607.5,532.0 619.125,535.0 627.75,537.875 632.75,540.375 633.875,541.375 634.5,542.25 634.75,543.25 634.375,544.375 633.25,545.375 631.25,546.5 628.25,547.75 618.625,550.25 611.75,551.625 582.25,556.375"/>
    <polyline points="569.875,558.25 530.0,564.875 505.875,570.125 487.0,575.5 479.75,578.0 469.25,582.5 459.5,587.625 459.125,587.5 459.0,586.625 460.5,577.5"/>
    <polyline points="460.625,575.75 460.625,572.25 460.0,565.125 458.25,558.375 456.25,553.75 452.625,548.125 449.375,544.375 446.875,542.0 442.625,538.75"/>
    <polyline points="441.0,537.75 434.25,533.875 428.5,531.25 415.125,526.5 398.875,522.25 379.625,518.375"/>
    <polyline points="376.125,517.75 348.125,513.5 329.5,511.375 314.125,510.125 291.375,509.375 285.25,509.5 272.5,510.375 265.75,511.375 258.75,512.625 251.625,514.5 244.125,517.125"/>
    <polyline points="236.375,520.75 228.25,525.75 219.75,532.375 210.875,541.5 201.625,553.75 192.0,570.625 182.125,593.5 172.375,624.75 163.375,667.125 156.75,724.25 155.5,799.25 164.875,892.5 192.625,996.625 208.211,1024.0"/>
    <polyline points="536.3374,1024.0 575.5,967.375 619.625,870.625 644.25,789.0 653.625,726.25 650.875,680.375 637.25,648.375 613.625,626.875 581.5,613.375 543.375,606.375"/>
    <polyline points="503.125,604.375 465.25,606.875 433.25,612.875 408.75,621.5 391.625,631.875 380.875,643.25 374.75,655.0 372.25,666.625 372.375,677.75 374.375,688.0 377.75,697.125 382.5,705.0 388.125,711.375 394.5,716.0 401.625,718.875 409.125,719.75 417.0,718.75 424.875,716.0 432.75,711.625 440.25,705.75 447.5,698.75 454.25,690.875 460.5,682.5 466.25,673.625 471.5,664.625 476.125,655.75"/>
    <polyline points="480.25,647.0 487.125,630.5 492.625,615.75 500.25,591.625 508.875,560.875 511.875,551.375 515.25,542.625"/>
    <polyline points="515.875,541.25 517.0,538.625 520.0,533.5 523.0,529.875 527.375,526.25 531.375,524.375"/>
    <polyline points="532.125,524.25 536.625,523.25 540.875,522.875 547.625,523.0 555.5,523.75"/>
    <polyline points="556.75,524.0 562.125,524.625 581.375,527.875 599.375,531.625"/>
    <polyline points="601.625,532.125 614.75,535.5 620.75,537.5 624.25,539.0 627.0,540.75 627.875,541.625 628.5,542.5 628.125,544.375 626.875,545.5 625.0,546.5 618.375,548.875 607.375,551.375 591.25,554.25"/>
    <polyline points="581.5,555.75 535.75,563.5 514.0,568.0 504.5,570.375 489.125,574.75 478.5,578.5 470.0,582.125 467.5,582.875 466.875,582.75 466.375,581.75 467.375,574.375"/>
    <polyline points="467.625,572.625 467.875,569.25 467.625,560.375 466.0,552.0 463.625,546.0 461.25,541.875 457.375,536.875 455.125,534.5"/>
    <polyline points="453.875,533.375 448.5,529.125 445.5,527.125 435.125,521.25 405.0,507.375"/>
    <polyline points="402.25,506.125 393.5,501.625 381.125,494.125 374.5,489.25 367.875,483.5 361.125,476.25 357.75,472.0 354.5,467.25 351.25,461.75 348.125,455.625 345.375,448.625 342.75,440.5 340.5,431.25 338.75,420.625 337.625,408.375 337.375,394.25 338.375,378.25 340.625,359.875"/>
    <polyline points="344.75,339.25 351.25,316.5 360.5,291.875 372.875,266.375 389.0,241.125 408.75,218.125 431.75,199.75 457.25,188.375 483.875,185.625 509.875,192.5 533.875,208.0 554.75,230.5 571.75,257.25 585.125,286.0 594.875,314.375 601.875,341.125 606.625,365.375 609.5,386.5 611.0,404.875 611.375,420.25 611.0,433.125 610.125,443.875 608.625,452.625 606.875,459.75 604.75,465.5 602.5,470.125"/>
    <polyline points="600.125,473.875 597.5,476.875 594.875,479.25 592.25,481.125 586.875,483.75 581.75,485.375 562.0,489.5 557.375,491.5 554.5,494.0"/>
    <polyline points="554.0,494.625 553.25,496.0 552.5,498.875 552.875,502.5 555.625,507.25 558.125,509.75 560.5,511.5"/>
    <polyline points="561.375,512.0 565.25,514.25 568.625,515.75 576.625,518.75 586.5,521.75 598.375,524.75"/>
    <polyline points="600.5,525.25 631.375,532.25 645.875,536.0 651.375,537.75 658.125,540.625 659.75,541.75 660.75,542.875 661.125,544.0"/>
    <polyline points="660.5,545.25 658.75,546.5 655.5,547.75 650.375,549.125 643.0,550.625 633.125,552.25 566.5,560.375 545.125,563.375 523.75,566.875 503.5,570.75 485.375,575.125 470.0,579.875 457.625,584.625 448.0,589.5 440.875,594.0 435.75,598.25 432.375,602.0 430.125,605.375 428.375,610.375 428.375,612.125 429.125,614.25"/>
    <polyline points="429.75,614.75 431.25,614.625 432.125,614.125 434.375,611.5 435.625,608.875 437.0,604.5 437.875,598.0 437.5,591.75 436.5,587.375 434.875,583.5"/>
    <polyline points="434.125,582.25 431.75,579.0 427.625,575.5 422.5,573.25 418.0,572.375 411.125,572.5 407.375,573.25 403.375,574.5 397.0,577.5"/>
    <polyline points="394.875,578.875 388.125,584.25 383.5,589.125 378.875,595.25 374.5,602.75 372.375,607.125 370.5,611.875 367.0,622.75 365.5,628.875 364.375,635.5 363.625,642.625 363.125,650.125 363.25,657.875 363.875,666.0 365.125,674.25 367.0,682.5 369.625,690.5 373.125,698.125 377.375,705.0 382.5,710.875"/>
    <polyline points="388.25,715.625 394.75,718.875 401.75,720.625 409.25,720.625 417.0,719.0 424.75,715.625 432.375,710.75 439.875,704.625 447.0,697.375 453.625,689.375 459.75,680.875 465.5,672.0 475.125,654.125 479.25,645.375 486.0,629.0 491.375,614.25 498.875,590.25 502.75,576.5"/>
    <polyline points="503.75,572.5 509.375,552.25 511.875,544.625 515.125,536.375 519.25,529.375"/>
    <polyline points="519.75,528.75 522.25,526.0 526.0,523.375 530.125,521.875 534.125,521.375"/>
    <polyline points="534.75,521.25 541.875,521.25 549.625,522.0 559.0,523.375"/>
    <polyline points="560.25,523.625 578.875,526.875 598.625,530.875 605.25,532.5"/>
    <polyline points="607.5,533.0 616.375,535.375 626.25,539.0 629.0,540.75 629.875,541.625 630.5,542.5 630.5,543.5 630.0,544.5 628.875,545.5 626.875,546.625 619.875,549.0 614.625,550.25 600.125,553.0 569.25,557.875"/>
    <polyline points="557.25,559.875 532.75,564.125 510.375,568.875 500.75,571.375 485.375,576.0 475.125,579.875 467.0,583.625 464.75,584.375 464.0,583.875 464.0,582.375 465.125,575.625 465.375,572.25"/>
    <polyline points="465.5,570.5 465.25,563.375 464.5,558.125 463.125,553.25 461.25,548.75 457.875,543.125 455.875,540.625 452.5,537.0 448.5,533.75"/>
    <polyline points="447.125,532.625 439.125,527.625 429.625,522.875 391.125,507.125"/>
    <polyline points="388.0,505.75 374.625,499.25 363.875,492.75 360.25,490.125 352.75,483.875 345.125,476.125 337.75,465.875 334.25,459.625 330.875,452.5 327.75,444.125 325.0,434.25 322.875,422.875 321.375,409.5 320.75,393.875 321.5,375.5 323.875,354.25 328.625,329.875 336.25,302.375"/>
    <polyline points="347.375,272.125 363.0,240.375 383.5,209.25 408.875,181.375 438.625,160.75 471.125,150.5 504.0,153.125 535.0,168.375 561.875,194.125 583.875,226.75 600.5,262.375 612.5,297.5 620.625,330.25 625.75,359.25 628.5,384.125 629.625,405.0 629.375,422.125 628.125,435.875 626.125,446.875 623.375,455.625 620.125,462.375 616.5,467.5 612.5,471.25 608.25,474.125 603.75,476.125 599.125,477.375"/>
    <polyline points="594.5,478.25 589.75,478.75 580.625,478.875 554.625,477.875 544.875,478.625 541.25,479.5 538.25,480.625 534.75,482.875 531.5,486.25"/>
    <polyline points="531.0,487.125 529.5,489.75 527.75,495.0 527.125,501.0 527.375,503.5 528.0,505.625"/>
    <polyline points="528.125,506.125 528.75,507.625 530.125,509.625 532.0,511.5 534.75,513.375 538.125,515.0"/>
    <polyline points="538.75,515.25 548.0,518.375 562.625,521.875"/>
    <polyline points="564.0,522.25 595.375,528.875 611.125,532.5"/>
    <polyline points="613.5,533.125 622.875,535.75 629.375,538.0 632.875,539.625 635.375,541.5 636.0,542.5 636.125,543.5 635.625,544.5 634.375,545.625 632.125,546.75 628.875,548.0 624.375,549.25 618.5,550.5 602.125,553.5 553.25,560.875"/>
    <polyline points="539.375,563.25 513.25,568.5 491.75,574.0 483.25,576.75 470.75,581.75 466.5,583.75 457.75,588.75 457.375,588.625 457.375,587.625 458.625,581.5 459.125,574.75"/>
    <polyline points="459.0,573.0 458.25,566.0 456.875,560.875 455.75,557.75 452.5,551.875 449.375,547.875 445.75,544.375 440.0,540.0 436.75,538.125"/>
    <polyline points="435.0,537.125 427.5,533.75 418.75,530.75 403.375,526.875 388.25,524.375 378.125,523.25 366.875,522.625"/>
    <polyline points="363.0,522.5 345.875,523.125 331.625,525.25 326.625,526.5 321.375,528.0 310.5,532.375 304.625,535.5 298.75,539.25 292.5,544.0 286.125,550.0 279.625,557.375 272.875,566.75 266.0,578.375 259.125,593.0 252.375,611.25 246.0,634.0 240.5,662.375 236.625,697.25 235.5,739.375 239.0,788.375"/>
    <polyline points="249.375,842.5 268.875,897.125 299.375,944.375 340.5,974.875 388.875,981.125 438.75,961.625 484.375,921.875 522.0,871.125 550.75,818.0 571.125,768.5 584.375,725.625 592.125,690.125 595.125,661.875 594.5,639.75 590.75,622.875 584.125,610.25 575.375,601.0 564.75,594.5 552.75,590.125 540.0,587.5 527.0,586.125 514.5,585.75 503.0,586.25 492.625,587.375 483.75,588.75 476.375,590.25"/>
    <polyline points="470.375,591.875 457.0,596.75 456.25,596.5 459.0,586.25 459.875,580.5 460.125,572.5 459.5,566.875"/>
    <polyline points="459.25,565.0 457.875,559.75 455.875,554.875 452.375,549.125 450.25,546.625 447.875,544.125 442.375,539.625 437.5,536.625 430.25,533.0"/>
    <polyline points="428.25,532.25 419.625,529.0 409.75,526.125 392.625,522.375 382.75,520.625 368.25,518.625 352.0,517.125"/>
    <polyline points="347.625,516.875 333.75,516.5 328.75,516.625 318.5,517.25 307.5,518.625 301.75,519.75 289.625,523.375 283.25,526.0 276.625,529.375 269.75,533.75 262.625,539.5 255.25,546.75 247.625,556.25 239.625,568.5 231.625,584.375 223.5,605.0 215.75,631.625 208.875,666.0 204.0,709.875 203.0,764.5 208.625,829.875"/>
    <polyline points="224.875,902.5 255.75,973.375 300.3093,1024.0"/>
    <polyline points="440.8251,1024.0 492.5,981.5 541.75,914.0 577.125,844.125 600.25,781.375 613.25,729.5 618.375,688.625 617.0,657.75 609.875,634.875 597.875,618.625 581.625,607.375 562.0,600.25 540.25,596.125 518.0,594.75 496.625,595.25 477.5,597.375 461.25,600.625 448.375,604.625 438.5,609.0 431.5,613.5 426.625,617.875 423.75,621.75"/>
    <polyline points="422.125,625.25 421.625,628.25 421.75,630.625 422.5,632.5 423.625,633.75 425.0,634.5 426.625,634.875 430.0,634.125 433.5,631.875 435.125,630.25 439.875,624.25 443.75,616.875 446.875,608.875 449.0,601.0 449.875,595.875"/>
    <polyline points="450.25,593.375 450.625,586.25 450.125,579.75 449.125,573.875 447.25,568.625 444.875,564.0 441.875,560.0 436.875,555.375 432.375,552.625"/>
    <polyline points="430.75,551.75 427.25,550.25 421.625,548.375 415.25,547.125 405.625,546.375 397.625,546.75 388.75,548.25 379.125,551.125 372.25,554.125 365.0,558.375"/>
    <polyline points="361.25,561.125 353.5,567.875 349.5,572.0 345.5,576.875 341.5,582.5 337.5,589.125 333.5,596.625 329.625,605.375 326.0,615.375 322.75,626.875 319.875,640.0 317.625,654.75 316.25,671.375 316.0,689.625 317.375,709.5 320.625,730.25 326.25,751.25 334.5,771.625 345.625,789.625 359.5,804.125 376.0,813.5 394.25,816.875 413.5,813.625 432.75,804.375 451.125,790.0"/>
    <polyline points="468.0,771.875 482.875,751.625 495.5,730.625 506.125,709.75 514.875,690.0 522.0,671.75 527.625,655.125 532.125,640.5 535.625,627.625 540.5,606.75 543.375,591.25 545.375,575.5 546.125,563.25 546.125,554.5"/>
    <polyline points="546.125,553.625 546.5,550.25 547.75,548.0 549.75,546.125 551.875,545.0 555.75,543.625"/>
    <polyline points="556.375,543.5 560.875,542.625 565.375,542.375 569.0,542.625 572.0,543.25 573.375,543.875"/>
    <polyline points="573.75,544.0 574.375,544.75 574.375,545.375 573.875,546.25 570.875,548.0 564.125,550.125 554.875,552.25"/>
    <polyline points="553.25,552.5 543.125,553.75 540.0,553.75 537.75,553.375 536.25,552.625 535.75,552.0 535.75,550.75 536.625,548.875"/>
    <polyline points="536.875,548.375 540.125,545.25 545.625,541.875 550.375,540.0 554.625,538.875 558.0,538.375"/>
    <polyline points="559.25,538.125 564.0,537.75 570.375,537.75 576.75,538.375 582.875,539.5 588.625,541.625"/>
    <polyline points="589.25,542.0 590.125,543.0 590.5,544.0 589.5,545.625 584.75,548.25 580.625,549.625 565.625,553.25 539.5,558.375"/>
    <polyline points="536.125,558.875 527.375,560.25 521.0,560.875 518.0,560.75 515.375,559.75 514.25,558.0 514.375,555.625 515.75,551.75 517.875,547.75"/>
    <polyline points="518.5,546.75 523.25,540.0 527.875,535.375 533.75,531.375 538.25,529.5"/>
    <polyline points="539.25,529.125 544.25,528.0 551.0,527.375 560.125,527.5 570.625,528.5"/>
    <polyline points="572.25,528.75 584.625,530.625 600.375,534.0 606.375,535.5 612.0,537.375 615.375,538.625 618.125,540.125"/>
    <polyline points="619.125,540.875 620.0,541.625 620.5,543.375 620.125,544.25 619.125,545.25 615.25,547.25 608.25,549.5 590.5,553.25 545.5,561.0 526.5,564.75 503.125,570.25 487.875,574.75"/>
    <polyline points="484.625,575.75 478.5,577.25 477.5,577.25 476.375,576.5 476.125,574.875 477.75,563.25 478.125,558.125 478.125,553.0 477.625,548.25"/>
    <polyline points="477.375,546.625 476.875,543.75 475.625,539.5 474.625,537.0 471.375,531.0 465.125,523.875 461.875,521.0 458.125,518.375"/>
    <polyline points="456.875,517.375 449.75,512.875 434.0,504.0 421.5,496.375 414.75,491.625 410.0,487.875"/>
    <polyline points="407.5,485.875 402.625,481.25 397.75,475.875 395.25,472.875 390.5,466.0 385.875,457.625 381.75,447.625 379.875,441.75 378.375,435.375 377.125,428.25 376.125,420.375 375.625,411.75 375.75,402.25 376.5,391.875 378.0,380.625 380.375,368.375 384.0,355.375 388.75,341.75 394.875,327.875 402.625,313.875 411.875,300.625"/>
    <polyline points="422.625,288.5 434.875,278.375 448.125,270.875 462.25,266.75 476.75,266.25 491.0,269.625 504.5,276.625 516.875,286.875 528.0,299.625 537.5,314.125 545.5,329.5 552.0,345.25 557.125,360.75 561.125,375.5 564.125,389.25 566.25,402.0 568.75,423.875 569.25,433.0 569.5,448.5 569.125,460.375 567.875,473.5"/>
    <polyline points="567.375,476.875 564.875,492.375 564.5,496.375 564.625,499.625 566.0,504.125 568.125,507.125 570.25,509.125"/>
    <polyline points="571.0,509.75 576.875,513.375 586.125,517.25 594.5,519.875 608.875,523.5"/>
    <polyline points="611.125,524.0 662.125,534.625 676.375,538.125 683.0,540.125 688.375,542.375"/>
    <polyline points="690.25,543.5 691.25,544.75 691.0,546.125 689.25,547.375 685.25,548.875 678.5,550.25 668.125,551.875 633.25,555.375 578.625,560.25 546.25,563.75 513.375,568.375 482.75,574.125 456.5,581.0 435.5,588.625 419.875,596.875 408.875,605.25 401.625,613.5 397.25,621.375 394.875,628.75 394.0,635.5 394.25,641.75 395.125,647.25 396.625,652.125 398.625,656.25"/>
    <polyline points="401.0,659.75 403.5,662.625 406.375,664.75 409.5,666.25 412.75,667.0 416.0,667.125 419.5,666.5 422.875,665.375 426.375,663.625 429.875,661.375 433.25,658.625 436.5,655.375 442.625,648.125 448.125,639.875 452.875,631.25 456.875,622.375 460.25,613.875 465.0,597.875"/>
    <polyline points="465.75,594.25 467.625,584.0 468.625,575.125 468.75,567.25 468.5,562.625 467.25,554.375 466.25,550.875 465.0,547.5 462.75,543.0 460.125,538.875"/>
    <polyline points="459.125,537.625 453.25,531.75 446.25,526.5 434.0,519.625 416.5,511.375"/>
    <polyline points="414.0,510.25 400.625,503.75 385.75,495.125 379.375,490.625 372.875,485.125 366.375,478.625 363.125,474.75 356.625,465.5 353.5,460.0 350.625,453.625 347.875,446.5 345.5,438.375 343.375,429.0 341.875,418.375"/>
    <polyline points="341.0,406.125 341.0,392.125 342.125,376.125 344.625,358.125 349.0,337.875 355.625,315.75 364.875,292.0 377.25,267.625 393.0,243.75 412.25,222.25 434.5,205.375 458.875,195.125 484.25,193.125 509.125,199.875 532.0,214.75 551.875,236.125 568.25,261.625 581.125,288.875 590.75,316.125 597.625,341.75 602.375,365.25 605.375,385.875 607.0,403.75 607.625,419.0 607.375,431.875 606.625,442.625"/>
    <polyline points="605.5,451.375 604.0,458.75 602.125,464.625 600.125,469.5 598.0,473.375 595.75,476.625 593.5,479.125 591.125,481.25 588.75,482.875 586.5,484.25 582.0,486.25 567.25,490.375 563.5,491.875 560.75,493.375"/>
    <polyline points="560.0,494.0 558.25,495.875 557.25,497.75 556.875,499.75 557.25,502.5 558.125,504.625 560.0,507.25 562.625,509.75 563.5,510.25"/>
    <polyline points="564.25,510.875 571.375,514.875 577.875,517.5 587.375,520.5 601.125,524.125"/>
    <polyline points="603.375,524.625 638.0,532.375 653.5,536.25 664.5,540.0 668.375,542.25 669.375,543.375"/>
    <polyline points="669.625,544.5 668.75,545.875 666.375,547.125 662.25,548.5 655.875,550.0 646.75,551.5 634.625,553.125 578.0,559.375 554.125,562.375 529.5,565.875 505.875,570.125 484.5,575.0 466.25,580.25 451.625,585.875 440.25,591.625 432.125,597.125 426.375,602.375 422.5,607.25 420.25,611.5 419.0,615.25 418.625,618.5 418.75,621.125 419.25,623.25 420.0,624.875"/>
    <polyline points="421.0,626.0 422.125,626.75 424.5,627.25 426.875,626.375 430.375,623.5 433.375,619.0 435.875,613.75 438.125,606.25 439.0,600.5 439.0,593.375"/>
    <polyline points="438.875,591.625 437.5,585.375 436.375,582.625 434.125,578.875 431.375,575.75 426.75,572.5 422.5,570.875 419.5,570.125 412.625,569.875"/>
    <polyline points="410.75,570.0 406.75,570.75 400.5,572.875 396.0,575.0 391.375,578.0 386.5,581.875 381.75,586.875 379.25,589.75 374.5,596.75 369.875,605.375 367.75,610.375 363.875,621.875 362.25,628.375 361.0,635.5 360.0,643.125 359.5,651.125"/>
    <polyline points="359.5,659.625 360.125,668.5 361.375,677.5 363.5,686.625 366.375,695.375 370.125,703.75 374.75,711.375 380.375,717.875 386.875,723.0 394.0,726.5 401.875,728.125 410.0,727.875 418.5,725.625 427.0,721.625 435.375,715.875 443.375,708.75 451.0,700.5 458.0,691.625 464.5,682.125 470.375,672.375 475.625,662.625 484.375,643.875 488.0,635.0 494.0,618.875"/>
    <polyline points="496.5,611.625 502.375,592.75 509.75,566.625 513.25,555.25 517.0,545.25 519.75,539.5 521.875,536.25"/>
    <polyline points="522.5,535.25 525.875,531.25 530.25,528.0 532.5,526.875 536.5,525.5 541.875,524.625"/>
    <polyline points="542.875,524.625 550.125,524.5 556.125,524.875 575.375,527.5"/>
    <polyline points="577.125,527.875 592.25,530.625 609.25,534.625 619.25,537.875 622.5,539.375 625.0,541.0"/>
    <polyline points="625.75,541.875 626.125,542.75 626.125,543.75 624.25,545.75 619.25,547.875 615.375,549.0 610.375,550.25 597.0,552.875 546.625,561.25 515.0,567.625 491.375,574.0 485.75,575.75 474.875,579.875"/>
    <polyline points="472.875,580.625 470.375,581.125 469.75,581.0 469.25,580.0 470.625,569.0 470.875,562.0 470.0,553.5 468.75,548.625"/>
    <polyline points="468.25,547.125 466.5,542.875 464.25,538.875 461.5,535.125 458.375,531.75 454.75,528.5 449.25,524.5 439.375,518.625"/>
    <polyline points="437.625,517.625 420.875,509.25 408.625,502.75 403.25,499.75 394.875,494.375 386.125,487.625 380.0,482.0 374.0,475.25"/>
    <polyline points="371.0,471.375 365.125,462.125 362.375,456.625 359.875,450.5 357.375,443.5 355.375,435.625 353.625,426.75 352.375,416.625 351.75,405.25 352.0,392.25 353.25,377.875 355.75,361.625 359.75,343.875 365.75,324.625 373.875,304.125 384.5,283.375 397.875,263.0 414.0,244.625 432.625,229.625 453.125,219.625 474.625,215.875 496.0,219.125 516.375,229.125 534.625,244.75 550.375,264.75"/>
    <polyline points="563.25,287.25 573.5,310.625 581.25,333.625 586.875,355.375 590.75,375.125 593.375,392.875 594.875,408.375 595.5,421.875 595.625,433.375 595.25,443.125 594.5,451.375 592.375,464.25 589.625,473.125 586.75,479.5 583.75,484.0 580.875,487.25 574.75,492.375"/>
    <polyline points="573.75,493.125 569.75,496.375 568.0,498.75 567.5,500.625 567.5,502.375 568.125,504.25 569.25,506.125 571.625,508.5"/>
    <polyline points="572.375,509.0 577.75,512.5 583.75,515.25 594.5,518.875 608.375,522.5"/>
    <polyline points="610.625,523.0 623.0,525.75 672.125,535.375 690.875,540.0"/>
    <polyline points="694.25,541.0 699.875,543.25 701.75,544.5 702.5,545.75 701.75,547.125 699.0,548.5 693.5,550.0 684.125,551.5 670.125,553.125 592.375,559.375 556.0,562.75 518.25,567.375 482.5,573.5 451.5,581.0 426.875,589.875 408.875,599.375 396.5,609.375 388.625,619.375 384.125,629.125 381.875,638.5 381.375,647.25 382.0,655.375 383.625,662.75"/>
    <polyline points="386.0,669.375 388.875,675.25 392.25,680.125 396.125,684.125 400.5,687.125 405.125,689.125 410.0,690.0 415.0,689.75 420.25,688.625 425.5,686.375 430.625,683.25 435.625,679.375 440.5,674.75 445.125,669.5 449.625,664.0 457.5,652.0 464.125,639.5 469.75,627.375 474.25,615.75 479.25,600.25"/>
    <polyline points="480.625,595.5 483.875,582.875 486.625,569.0 487.875,560.625 488.875,547.5 488.875,542.25 487.875,533.875"/>
    <polyline points="487.625,532.75 486.625,529.375 485.0,525.5 481.75,520.5 478.25,516.875 472.25,512.25"/>
    <polyline points="471.375,511.625 445.375,496.875 436.75,491.5"/>
    <polyline points="435.0,490.25 429.375,486.125 425.5,482.875 417.625,475.25 409.75,465.0 407.875,462.0 404.375,455.125 401.125,447.125 399.75,442.625 397.375,432.375 396.125,420.5 395.875,413.75 396.125,406.625"/>
    <polyline points="396.75,399.0 398.0,390.875 399.75,382.375 402.25,373.5 405.5,364.375 409.5,355.125 414.375,346.0 420.125,337.125 426.75,328.875 434.125,321.625 442.375,315.625 451.125,311.125 460.375,308.375 469.75,307.75 479.125,309.125 488.375,312.5 497.0,317.875 505.125,324.875 512.5,333.25 519.0,342.625 524.625,352.625 529.5,363.0 533.625,373.5 536.875,383.75 539.625,393.625 541.75,403.0"/>
  </g>
</svg>
