<?xml version="1.0" encoding="utf-8" ?>
<svg xmlns="http://www.w3.org/2000/svg" xmlns:cc="http://creativecommons.org/ns" xmlns:dc="http://purl.org/dc/elements/1.1/" xmlns:ev="http://www.w3.org/2001/xml-events" xmlns:inkscape="http://www.inkscape.org/namespaces/inkscape" xmlns:rdf="http://www.w3.org/1999/02/22-rdf-syntax-ns" xmlns:sodipodi="http://sodipodi.sourceforge.net/DTD/sodipodi-0.dtd" xmlns:xlink="http://www.w3.org/1999/xlink" baseProfile="tiny" height="27.09333333cm" version="1.2" viewBox="0 0 1024.0 1024.0" width="27.09333333cm">
  <metadata>
    <rdf:RDF>
      <cc:Work>
        <dc:format>image/svg+xml</dc:format>
        <dc:source>vpype read './original_svgs/Strange Attractors #407.svg' linemerge linesimplify write './Strange Attractors #407.svg'
</dc:source>
        <dc:date>2024-08-05T01:35:56.413921</dc:date>
      </cc:Work>
    </rdf:RDF>
  </metadata>
  <defs/>
  <g fill="none" id="layer1" inkscape:groupmode="layer" inkscape:label="1" stroke="black" style="display:inline">
    <polyline points="605.375,436.0 600.7902,428.7185 596.6213,421.3268 592.8436,413.8308 589.2861,405.8887 585.9711,397.4936 583.0305,388.9958 577.9649,370.9523 574.4594,353.1202 572.1665,334.286 570.9669,313.0484 571.024,292.4178 571.6043,281.175 572.5874,269.7407 573.9347,258.5889 575.683,247.4513 577.7391,236.9661 580.0654,227.2495 582.6864,218.112 585.5739,209.6584 588.6996,201.9936 591.9943,195.2976 595.2686,189.8437 598.9647,184.9014 602.786,180.9916 606.6801,178.1826 610.595,176.5427 614.2712,176.126 616.6498,176.4341 619.0014,177.1827 621.3127,178.367 623.5705,179.9825 627.8723,184.4875 631.5682,190.226 634.9341,197.5884 637.9109,206.5497 640.3238,216.6851 642.1203,227.8224 643.2198,239.3493 643.6875,251.7795 643.5345,264.8335 642.7824,277.783 641.4838,290.4652 639.625,303.125 636.9843,316.9897 633.8402,330.5243 628.1436,350.4266 621.2202,369.9482 612.822,390.0528 603.375,409.5 593.4557,427.5447 582.9223,444.8187 571.7311,461.687 546.2545,498.6252 537.6512,511.9986 532.539,520.8786 528.4722,528.6481 524.4764,537.675 520.353,548.662 519.941,549.494 519.5284,549.6875 519.3489,544.3862 520.2258,524.3471 523.9617,460.0778 527.3801,414.483 531.0444,375.8162 535.0626,341.3268 540.0568,306.6848 545.3146,276.0591 551.1497,248.3567 557.8708,222.1139 564.8719,199.7629 568.7332,189.373 572.6692,179.9367 576.7961,171.1523 580.9233,163.4066 585.1861,156.4315 589.3825,150.5576 593.883,145.3453 598.1824,141.3375 602.8598,137.9988 607.2596,135.8083 611.6614,134.5443 616.035,134.2387 619.125,134.625 622.1194,135.4937 625.0808,136.8343 627.9959,138.6366 630.8514,140.8902 633.6339,143.5847 638.9263,150.2555 643.5576,158.1541 647.728,167.5903 651.4144,178.5844 654.5749,191.0698 656.9909,204.1657 658.7169,218.0208 659.6926,232.0336 659.9522,246.877 659.4828,262.3942 658.2999,277.9666 656.4349,293.4587 653.8495,309.1042 651.117,322.2302 647.7617,335.8475 644.0271,348.9704 639.715,362.296 635.0788,375.0491 629.8978,387.8607 624.1835,400.6415 618.081,413.0747 612.0607,424.3646 605.4754,435.8375 589.9081,460.5228 577.2039,478.8277 548.5369,517.7227 536.6895,535.3408 531.1668,544.7511 525.6811,555.2877 521.9483,563.7725 518.6349,572.9693 515.2341,585.2879 512.9238,596.1125 511.1758,607.4121 509.3668,625.1044 507.4033,657.7183 505.1749,715.6111 503.3718,750.9849 501.5147,777.6601 498.93,800.7717 497.4096,810.7983 495.6819,819.7795 493.8493,827.3468 491.9108,833.4275 489.7521,838.3806 487.2686,842.3773 484.5496,845.2385 481.8035,846.8054 478.3552,847.2886 474.852,846.4764 471.0572,844.3619 466.8743,840.8167 462.2978,835.7943 457.3217,829.2483 451.9565,821.1577 446.8101,812.48 440.8931,801.5156 434.6776,789.0494 421.1107,759.0971 409.1387,729.6328 397.1914,696.9256 386.3297,664.0086 377.7071,634.7118 370.2747,605.3812 364.6716,578.3748 361.1178,555.1861 360.0175,544.4205 359.3652,534.2614 359.1493,524.3646 359.3918,515.1761 360.0793,506.7224 361.1985,499.0303 362.5734,492.7442 364.3437,486.8515 366.4423,481.5379 369.021,476.467 371.9047,472.0187 375.2751,467.9352 378.9052,464.5085 382.9179,461.5865 387.326,459.156 391.9258,457.3075 397.0364,455.9255 402.2487,455.13 407.5,454.875 413.9121,455.1602 420.3388,455.9761 426.6903,457.2628 433.2338,459.0719 440.0953,461.4913 447.2899,464.514 454.0912,467.8638 460.1179,471.3068 466.9975,475.8181 473.5468,480.6069 479.184,485.2324 490.1741,495.8419 499.1233,506.8826 502.9054,512.2335 507.4358,519.6682 515.3557,534.918 516.734,536.573 517.625,536.375 518.8919,532.7199 520.0759,523.9259 528.2407,417.7978 532.0875,378.6741 536.026,346.1807 540.6802,313.9846 545.6562,285.75 551.9255,256.1694 558.1906,231.5322 561.799,219.4416 565.6717,207.8384 569.6599,197.1877 573.7265,187.5481 577.8501,178.964 582.0024,171.4997 586.3245,164.8449 590.7814,159.0723 595.338,154.2548 599.7149,150.6379 604.2204,147.9577 608.7348,146.3546 613.26,145.8101 618.0871,146.4022 622.4725,148.0411 626.7124,150.7238 631.0576,154.7746 635.1731,160.0919 639.2046,166.9258 642.7332,174.5682 645.8774,183.1779 648.5884,192.6634 650.8171,202.9333 652.464,213.4386 653.7,224.9193 654.4621,237.1578 654.7002,249.7043 654.4107,262.4607 653.6227,274.9381 652.2886,287.8129 650.4213,300.9246 648.0963,313.8107 645.4321,326.057 642.2983,338.359 638.8014,350.2938 634.7181,362.5814 630.1266,374.9962 625.1678,387.1426 619.7208,399.3114 613.9739,411.0997 602.3294,432.4834 588.9802,454.0488 577.0084,471.6845 546.6279,514.2311 536.6466,529.6119 530.5561,540.2453 526.1094,549.1826 522.4827,558.0604 518.9045,568.6669 515.875,581.375 513.869,592.6359 512.6268,603.0036 511.192,620.9705 509.9574,654.178 508.0932,742.8105 506.957,775.7851 505.2046,807.612 502.5833,835.7081 500.9417,847.1257 498.8169,857.7951 496.6948,865.5153 494.2217,871.7511 491.394,876.3944 488.2718,879.4115 486.5379,880.3278 484.6719,880.8125 482.6611,880.8378 480.8657,880.4882 476.9175,878.7102 472.329,875.2517 467.6889,870.43 462.8378,864.2542 457.3544,856.1666 451.661,846.7733 445.2659,835.2485 438.8638,822.7952 424.6444,792.2709 409.6845,756.6632 395.2879,719.2585 381.7843,680.7441 370.8344,646.3408 361.5267,613.7162 354.1499,583.8363 348.5566,556.2391 344.8209,531.3019 343.673,519.9778 343.0181,509.6696 342.8145,499.7708 343.0655,490.5614 343.7919,481.6437 344.9672,473.464 346.2451,467.3136 347.8859,461.3447 349.8106,455.9069 352.0025,450.9941 354.4922,446.5279 357.3405,442.4155 360.4373,438.7926 363.7531,435.6331 367.5578,432.7031 371.8604,430.0836 376.3298,427.9796 380.9189,426.3494 385.9842,425.0569 391.576,424.1363 397.2557,423.6676 403.3508,423.6225 409.4209,424.0013 415.4014,424.7575 429.4558,427.7557 443.479,432.168 457.7036,438.0589 472.0092,445.3515 486.1946,454.2384 493.6196,459.6714 516.7863,478.4879 518.8221,479.4789 520.6218,479.9186 522.0358,479.6196 523.3055,478.6173 524.8514,476.0457 526.1864,472.223 528.5124,460.0336 537.9621,385.9928 542.3992,355.9061 546.0497,334.2949 549.9351,314.0461 553.6445,296.8663 557.6749,280.5208 561.8671,265.7107 567.0844,249.997 572.6504,235.9792 578.5918,223.6786 584.238,214.4611 587.269,210.482 590.3513,207.0737 593.4578,204.2772 596.3032,202.2861 599.125,200.875 602.3623,199.959 605.1991,199.7739 607.976,200.1857 611.9832,201.9327 615.437,204.7364 618.8607,209.0386 622.0294,214.6701 624.8079,221.4357 627.0209,228.8266 628.7557,237.073 630.0126,246.2732 630.8052,256.0756 631.1116,266.3397 630.9264,276.5565 630.25,287.0 628.9976,298.3567 627.2678,309.7051 625.0226,321.3357 622.357,332.7789 616.6342,352.7119 609.7711,371.9862 601.3239,391.7474 591.699,411.1937 580.4501,430.9758 568.1234,450.6233 559.1855,464.1339 534.4028,500.2315 530.8283,504.9032 529.5,506.125 528.7037,506.4676 527.761,506.0093 527.1545,504.633 526.7072,498.6563 526.9002,487.5851 527.9783,467.8017 530.0774,440.0231 534.0159,398.3675 538.6866,360.3759 543.552,327.9079 549.931,293.6241 556.1502,266.5979 562.5141,244.1463 569.0928,225.2329 572.6525,216.5965 576.3799,208.575 580.246,201.2723 584.047,195.0553 587.9408,189.6694 591.8048,185.3002 595.7544,181.7616 599.7447,179.1018 603.7305,177.3691 607.3668,176.6344 610.9431,176.767 614.7656,177.8731 619.3039,180.5689 623.5829,184.708 627.2869,189.8713 630.7506,196.5313 633.8874,204.7169 636.4182,213.5989 638.4994,223.7461 639.9407,234.2978 640.7864,245.3476 641.0847,257.8413 640.7984,270.2659 639.9516,282.8713 638.5509,295.5457 636.6625,307.8443 634.1947,320.4932 631.1947,333.2036 625.6055,352.6266 618.8739,371.8256 611.0037,390.7984 602.2294,408.9542 592.5937,426.6136 582.4118,443.5198 570.0139,462.454 548.4378,494.0906 535.7699,514.0282 528.6748,527.217 520.1719,547.248 519.8555,546.9746 519.7539,545.4395 519.9491,534.3055 522.1963,491.6808 524.4175,456.4678 528.3841,405.7832 532.7308,363.8177 537.4748,326.2591 543.1557,290.6481 549.5191,258.1496 556.5903,229.0472 560.4995,215.4234 564.5196,202.9515 568.5727,191.834 572.7307,181.7831 577.1167,172.4833 581.7085,164.042 586.4839,156.5667 591.2283,150.3898 595.9336,145.4546 600.9467,141.4343 606.0239,138.6031 611.1194,137.001 616.1875,136.668 620.8525,137.5376 625.3361,139.5307 629.8406,142.7469 634.5988,147.5888 639.0678,153.715 643.1879,161.0559 646.7329,169.113 649.8559,178.1486 652.7918,189.1266 655.0873,200.3878 656.8596,212.2908 658.0522,224.3228 658.704,236.7395 658.7969,249.021 658.3376,262.1693 657.3362,275.9025 655.8222,289.5774 653.814,303.1119 651.2549,316.79 648.4778,329.0758 645.0776,341.9331 641.2944,354.464 636.9591,367.2014 632.3397,379.3744 627.202,391.6348 621.5921,403.8438 615.6439,415.7629 603.6423,437.2903 589.58,459.4671 576.7242,477.9802 548.092,517.01 535.8372,535.3117 530.7074,544.1973 525.5946,554.3693 522.0338,562.6592 518.7537,571.9031 515.8223,582.7148 513.1528,595.306 511.4125,607.3353 509.8965,623.0039 507.8808,658.2898 504.737,742.9766 502.656,776.0377 499.9679,804.1591 496.6476,824.0996 494.8256,831.7674 492.863,838.0631 490.6021,843.5117 488.1587,847.6933 485.5842,850.5457 482.6197,852.3281 479.2187,852.8873 475.6073,852.052 471.6059,849.7693 467.1688,845.9476 462.2502,840.4952 457.414,834.1101 452.1954,826.1331 446.6392,816.6342 440.5648,805.2835 434.1617,792.415 421.2054,763.8443 408.0052,731.1279 394.969,695.3987 384.6382,664.0698 375.493,632.8622 367.8655,602.9232 362.2358,576.1597 358.6248,552.4444 357.4523,541.0715 356.7456,530.3656 356.4985,520.3707 356.7047,511.1308 357.3289,503.0935 358.4703,495.1721 359.8658,488.7345 361.5924,482.8585 363.6242,477.5381 366.0881,472.487 368.8357,468.0487 371.8365,464.2107 375.2677,460.7192 379.2452,457.5461 383.4531,454.9688 387.8496,452.9483 392.7474,451.3505 397.7636,450.3048 403.4127,449.7215 409.1292,449.6699 415.2272,450.1334 421.2634,451.0586 427.9012,452.5579 434.6454,454.5416 441.5941,457.0339 448.2398,459.8584 454.8087,463.116 462.0257,467.2053 468.5469,471.3103 474.5156,475.549 486.1684,485.415 495.3113,494.882 500.6941,501.2544 504.9758,507.1537 515.5781,523.8438 517.2488,525.4907 517.9688,525.5625 518.6053,525.1343 519.4028,523.5139 520.123,520.682 521.7267,508.7062 526.8805,444.9267 530.0522,410.2793 533.86,375.3418 538.1677,341.8136 542.7821,311.8942 547.8169,284.4439 553.2858,259.763 559.2731,237.1667 566.2912,215.3168 570.0084,205.5139 573.9257,196.3281 577.8677,188.1749 581.9685,180.7821 585.8907,174.705 590.1596,169.1517 594.5416,164.5145 598.9956,160.8497 603.48,158.2133 607.6565,156.73 611.79,156.2369 615.9386,156.7676 620.028,158.3012 624.0027,160.8166 628.6121,165.1614 632.6674,170.5126 636.3821,177.0563 639.8229,185.0322 642.8604,194.1549 645.4122,204.2036 647.4385,215.0499 648.8995,226.5657 649.7379,238.1946 650.0522,251.1874 649.7977,264.0445 648.9961,277.0303 647.6993,289.6603 645.8959,302.2214 643.4573,315.3733 640.5456,328.3507 634.3524,350.6701 626.7596,372.5792 617.6501,394.3991 607.2522,415.559 596.8246,434.0984 585.2489,452.6557 573.2633,470.4148 552.2542,500.1956 540.1156,518.4344 532.2354,531.8525 526.1979,544.1967 523.2359,551.4293 520.3804,559.9151 518.5647,566.6399 516.6889,575.2697 514.2875,593.4575 513.7358,601.6149 513.5,615.0 515.5268,535.4349 517.3248,480.0765 519.7729,427.5248 522.8746,381.6006 526.7268,337.3617 531.5301,295.779 537.6027,254.0863 544.0844,218.7486 547.7715,201.8237 551.7358,185.5969 555.9613,170.1934 560.3209,156.0562 564.776,143.2469 569.5798,131.0732 574.512,120.0943 579.7079,110.0033 584.9565,101.2069 590.4149,93.4415 596.0654,86.807 601.6398,81.6077 607.3151,77.6411 613.1096,74.872 618.9765,73.3154 624.8693,72.9865 629.364,73.5727 633.484,74.7647 637.8966,76.7674 641.9054,79.2784 645.8353,82.4308 649.8626,86.4326 653.6738,90.981 657.5348,96.4063 661.0629,102.1587 664.5945,108.7782 667.9326,115.9552 671.0603,123.6529 676.4962,140.0434 680.9403,158.0059 684.283,177.0931 686.5891,197.4222 687.7871,218.3365 687.8818,239.5464 686.8778,260.7626 684.8228,281.4482 681.5811,303.1751 677.3162,324.499 673.3489,340.6187 668.7865,356.4673 663.7661,371.6158 658.0353,386.8294 651.5156,402.2889 644.5617,417.1032 637.0592,431.5513 629.07,445.5267 621.3845,457.8647 612.8918,470.5749 604.371,482.4937 595.2327,494.4771 578.1018,515.2486 544.2703,553.7964 530.2737,571.108 525.0479,578.3444 520.2795,585.6418 516.2242,592.6025 512.3918,600.0757 508.1782,609.5845 505.2838,617.5056 501.875,629.125 499.375,639.5781 495.8964,658.0125 488.2972,710.9429 485.4836,725.8174 483.2871,735.2048 480.4352,744.1412 477.0878,751.3055 475.4676,753.7905 473.554,755.969 471.791,757.356 469.902,758.287 467.3041,758.79 464.9451,758.5287 462.4431,757.5822 459.7676,755.9355 456.8884,753.5734 453.7491,750.3937 447.4861,742.0053 440.6039,730.3006 434.2818,717.5032 427.0935,700.5994 420.3553,682.6129 414.6665,664.8182 409.2753,645.2344 405.8333,630.1111 403.2083,615.0972 401.3817,599.6706 400.7599,586.6467 401.232,574.3765 402.7915,563.911 404.9272,556.6147 407.9029,550.3075 411.4353,545.4966 415.6837,541.8866 420.6876,539.4829 423.4557,538.7859 426.3043,538.4679 432.2668,538.8764 438.6468,540.6768 445.0191,543.7653 451.318,548.081 457.7807,554.0057 463.6081,560.5735 468.8509,568.1365 473.4645,576.145 477.4343,584.8759 480.9844,594.4398 483.9688,604.6468 486.1121,613.8423 488.4176,627.6123 489.7154,638.2367 490.8581,654.2405 491.4375,671.8594 491.4185,681.9283 490.7291,701.8483 489.5321,717.516 488.2587,729.1502 486.2972,741.473 484.1292,751.1446 481.2611,760.1034 478.3562,766.3342 475.1813,770.5619 473.3739,772.0238 471.4187,772.9772 468.9293,773.4107 465.9772,773.0062 463.0324,771.7107 460.1815,769.7261 456.8465,766.6398 453.2947,762.5909 446.491,752.8391 438.7529,739.0387 430.8018,722.4663 423.3274,704.2586 415.375,682.375 409.5926,664.2685 404.3458,645.1223 399.7214,625.2799 396.7491,608.8378 394.7926,592.6958 393.9625,577.5384 394.3666,565.4733 395.9643,554.2303 398.2755,545.7804 401.4363,538.7071 403.3335,535.678 405.6338,532.7729 407.8544,530.5727 410.4629,528.5886 413.3887,526.9692 416.2225,525.8535 419.5099,525.023 422.8648,524.6207 426.2477,524.6241 429.9216,525.0486 437.6089,527.0876 444.6631,530.4235 453.7081,536.5845 459.7166,541.9452 466.5679,549.695 472.1684,557.427 477.7592,567.0556 481.3522,574.7651 486.1876,587.569 489.5719,600.0155 491.9448,611.313 494.1447,627.2456 495.3753,642.5328 495.956,653.7546 496.279,676.2264 495.8798,695.6163 494.9464,713.5548 493.9352,727.6969 491.8195,747.2276 489.9805,759.0436 487.6241,769.8072 484.7843,779.0583 481.7042,785.9366 479.9266,788.6762 478.1788,790.6709 476.1714,792.2655 474.3585,793.1436 471.4122,793.6047 468.5503,793.1092 465.0394,791.4791 461.7568,789.1026 458.3668,785.8145 454.7719,781.54 450.9722,776.2851 446.9676,770.0554 438.2378,754.366 429.0995,735.1198 419.897,713.097 411.3857,689.9994 403.9516,667.179 397.4658,644.4492 392.3463,623.061 388.3643,602.2273 385.843,583.8355 384.7535,567.6338 385.0021,552.5637 385.6507,545.7122 386.6191,539.5853 389.1815,529.9736 390.8998,525.6401 392.8487,521.7739 395.0047,518.3749 397.5464,515.22 400.4337,512.4392 403.2831,510.2953 406.2702,508.5588 409.7166,507.096 413.2599,506.1119 416.8685,505.5926 420.9626,505.4632 425.4779,505.7857 429.9912,506.5769 434.448,507.8211 443.8951,511.8717 452.7127,517.143 461.6105,524.2903 469.3193,532.1274 476.6126,541.5154 482.1973,550.4248 488.4431,563.0144 492.8446,575.1533 495.7902,585.7505 499.0372,602.0948 501.1053,618.0431 502.198,634.7491 502.8326,658.4571 502.8115,678.2899 502.06,704.3401 500.9473,729.4741 499.1558,754.3413 497.7936,768.8653 495.6072,785.7556 493.1778,798.6193 490.1997,809.8793 487.1409,817.5155 485.3765,820.5185 483.2813,823.2059 480.9944,825.2039 478.8057,826.312 475.6903,826.7525 472.3598,826.0264 468.7546,824.0907 464.8185,820.8705 460.5385,816.3203 455.9016,810.395 451.2687,803.6211 446.4946,795.7794 441.1457,786.0785 435.5548,775.0663 423.6867,749.2613 412.9658,723.0393 402.5055,694.431 393.0814,665.6818 385.3083,638.7195 378.7128,612.0144 373.625,586.75 370.612,565.9505 369.1488,546.7517 369.0127,537.8285 369.2796,529.5386 369.931,522.0124 370.9822,515.0339 372.6253,507.8736 374.8438,501.1406 377.5059,495.2601 380.7428,489.955 384.2128,485.7076 388.3583,481.9441 393.1658,478.8116 398.2591,476.5434 403.8999,475.0005 410.1386,474.2417 416.6001,474.2635 423.4449,475.0704 430.1883,476.6051 437.5197,479.0582 444.9673,482.2414 451.9922,485.9294 458.6792,490.1634 465.8734,495.4065 471.8633,500.4215 477.6,505.973 482.857,511.6881 487.0051,516.8795 492.0578,524.3109 496.1396,531.0795 499.6454,537.9484 502.5786,544.5671 504.9639,551.1243 507.0715,558.1193 510.3446,572.489 513.3633,594.6602 513.9844,597.4844 514.448,594.7463 514.7812,588.8164 517.6901,503.4773 520.0869,450.9682 522.9996,404.3296 526.4205,362.7213 531.2731,317.3823 536.7232,277.6567 543.2141,240.2745 546.8448,222.5942 550.6015,206.2277 554.7824,190.081 559.1304,175.2131 563.8372,160.9975 568.6313,148.2689 573.6006,136.7336 578.7611,126.3703 584.2544,116.9818 589.7483,109.0987 595.4406,102.3786 601.2964,96.9101 607.2805,92.7821 613.08,90.1736 618.9803,88.9402 624.7329,89.1059 630.7506,90.6945 636.6677,93.7024 640.1435,96.1754 643.5468,99.1413 646.864,102.5931 650.0815,106.5242 656.1631,115.797 661.664,126.822 666.7698,139.9731 671.163,154.5466 674.7824,170.3168 677.5108,186.6498 679.3514,203.2756 680.3391,220.3241 680.5124,238.2232 679.8406,256.5627 678.3536,274.8113 676.0395,293.1883 672.9663,311.15 669.1226,328.828 665.39,343.1905 661.0355,357.7366 656.1821,372.0075 650.733,386.2677 644.8552,400.0786 638.4556,413.7024 631.4551,427.3025 623.9885,440.5906 617.0573,452.0084 609.6088,463.4783 601.686,474.9419 593.1969,486.5074 578.2885,505.4095 545.4627,544.8811 533.4725,560.4389 527.8998,568.5627 523.0181,576.4697 518.6434,584.4771 515.1581,591.8243 511.379,601.3065 507.7336,612.121 505.0024,622.4057 502.7747,633.1481 499.2007,656.855 492.4581,716.978 489.7651,735.2557 487.2119,748.3162 484.0655,759.6617 480.3995,768.5284 478.4636,771.7793 476.5303,774.163 474.5759,775.8391 472.4031,776.968 469.726,777.4414 466.8047,777.0062 463.6,775.6234 460.5656,773.5671 457.3849,770.6048 454.0433,766.7431 446.5252,755.939 438.8792,742.4097 430.6981,725.285 422.8509,706.6706 415.4607,686.4992 408.515,664.8955 403.0102,645.2101 398.4157,625.362 394.9274,606.093 392.964,589.813 392.2206,574.543 392.75,560.875 393.486,554.9707 394.5352,549.5476 397.1977,540.8362 400.6475,533.8697 402.6361,531.0225 405.0929,528.2527 407.4417,526.1716 410.2358,524.2512 413.155,522.7688 416.1621,521.7158 419.4132,521.0388 423.1401,520.7483 426.924,520.9176 430.7242,521.5128 438.3599,523.869 446.1852,527.713 453.4316,532.7798 461.4627,539.8974 468.0506,547.3836 474.3927,556.3646 479.7099,565.9263 483.9305,575.2066 487.9001,586.6689 490.5832,596.135 493.2344,609.4557 495.2513,623.6757 496.4851,636.1769 497.3811,655.4265 497.6441,674.3645 497.0971,698.4704 496.4027,713.1257 495.0195,731.6497 492.9619,751.432 491.1555,763.3535 488.6199,775.3498 485.75,784.875 482.6678,791.7174 480.7829,794.5805 478.9313,796.6405 476.8937,798.214 474.8744,799.1593 471.7235,799.5294 468.615,798.8068 465.2236,797.0265 461.611,794.2061 457.8255,790.3182 454.0055,785.5567 449.9639,779.7521 445.7066,772.91 436.9963,756.8584 427.6694,736.729 417.4745,711.8263 408.73,687.7229 400.999,663.57 394.284,639.5584 389.0571,617.3187 385.1945,596.545 382.8164,578.1616 381.8822,561.6923 382.3673,546.4327 383.1219,539.6617 384.2504,533.2042 385.5204,528.1323 387.0451,523.6081 388.8174,519.5153 390.9974,515.5346 393.396,512.051 396.1951,508.8281 398.9225,506.3527 402.1408,504.1051 405.5444,502.3454 409.0871,501.0541 412.7228,500.2123 416.7746,499.7823 421.2167,499.8486 425.7083,500.3538 430.1966,501.2641 434.9858,502.6768 439.625,504.5 445.0941,507.1312 454.5708,512.836 463.1774,519.8193 471.2595,527.9884 478.7712,537.7064 484.819,547.4185 490.5341,559.0795 494.8812,570.9328 498.0,582.375 500.9992,597.0835 502.8957,612.9266 504.2743,632.717 504.7475,654.1681 504.4998,683.9431 503.6559,714.6334 502.2852,742.8421 500.8871,763.2939 499.1141,781.9431 496.8315,799.4706 494.5043,812.0072 491.5576,822.672 488.345,830.3858 486.6131,833.226 484.607,835.6529 482.6538,837.2881 480.5509,838.3519 477.2481,838.8018 473.542,837.8896 469.375,835.5 465.5506,832.2519 461.2149,827.5092 456.5349,821.369 451.4942,813.7985 446.0762,804.7644 440.9033,795.3454 435.4664,784.5664 423.7917,758.9329 411.0286,727.7993 400.0089,697.7808 389.7892,666.7249 380.5485,635.3572 373.9557,609.2823 368.7578,584.1211 365.1331,560.5237 364.043,550.2723 363.408,540.756 363.1942,531.3951 363.437,522.2882 364.1277,513.8905 365.2368,506.2166 366.662,499.5673 368.495,493.3908 370.6127,488.0695 373.2528,482.9828 376.2245,478.5459 379.7282,474.4921 383.5118,471.1402 387.5857,468.4318 392.413,466.096 397.439,464.4188 402.9778,463.3026 408.6054,462.8381 414.2499,462.9712 421.0062,463.7888 427.7173,465.1861 434.2903,467.0902 440.9753,469.5699 448.1404,472.8103 454.9691,476.4207 461.3184,480.3077 467.8048,484.9035 474.2188,490.0312 479.9896,495.2508 485.3586,500.7818 493.59,510.6962 498.5475,517.8113 501.8472,523.1957 508.1195,536.1121 514.5278,554.0139 515.7793,556.2051 516.291,556.0684 517.3565,551.9994 518.168,543.5273 523.708,452.5743 526.1834,418.5556 529.3759,382.8208 533.0071,349.3662 537.4976,315.0977 542.7598,282.9703 549.3786,249.6307 555.8066,222.9789 559.6239,209.5233 563.5132,197.2924 567.675,185.6559 571.9719,175.0513 576.3271,165.6378 580.8843,157.0828 585.6356,149.4316 590.5542,142.7723 595.3807,137.4223 600.3119,133.1332 605.1613,130.0656 610.0211,128.1324 614.8897,127.3114 620.0691,127.6613 625.1607,129.2781 629.7891,131.9258 634.8782,136.2925 639.923,142.3928 644.599,149.9168 648.8549,158.7406 652.634,168.744 655.8798,179.807 658.4518,191.3657 660.4895,204.1014 661.9342,217.5117 662.7887,231.745 662.998,246.3035 662.5744,260.6549 661.5613,274.6586 659.891,289.1317 657.5449,304.2683 654.6675,319.0521 651.6659,331.9751 648.1966,344.885 644.3714,357.3652 640.0825,369.7846 635.3148,382.1916 630.1709,394.311 624.5227,406.4369 618.3998,418.4799 605.5719,441.078 591.6355,462.7902 576.2384,484.4833 548.6366,521.2994 535.6613,540.3063 530.125,549.5 526.057,557.242 521.6747,567.0384 518.1017,576.4548 514.7207,587.7742 511.9729,600.0889 510.3517,609.4748 508.4209,626.0042 505.7618,664.5734 502.7086,724.7703 501.3033,746.8746 499.1448,771.4069 496.8383,790.2857 493.6193,807.4876 491.8034,814.2618 489.875,819.75 487.5584,824.7627 485.1779,828.4784 482.4721,831.2141 479.6654,832.7377 476.4466,833.1963 472.8406,832.3166 468.8619,829.9904 464.8167,826.4897 460.2125,821.4299 455.8323,815.6741 450.9754,808.33 445.6236,799.2818 439.9685,788.816 433.8105,776.5259 422.5112,751.5866 410.5611,721.9032 399.0041,689.9353 389.7966,661.3783 381.6519,632.7938 375.0164,605.7228 370.4704,582.4411 367.3955,559.8304 366.5233,549.5663 366.0609,539.6105 366.0426,530.4887 366.4569,522.2514 367.283,514.6463 368.5767,507.3044 370.2767,500.6669 372.4756,494.4409 375.0635,488.9954 377.9921,484.3304 381.3674,480.208 385.331,476.54 389.5805,473.617 394.0596,471.3825 399.1059,469.6733 404.6803,468.5685 410.3654,468.1356 416.4676,468.338 422.895,469.2139 429.6123,470.7767 436.6076,472.984 443.3677,475.6912 449.7775,478.841 456.9068,482.992 463.611,487.43 469.4727,491.875 475.9712,497.5386 481.4591,502.9261 485.5785,507.5524 491.2154,514.7427 496.5733,522.6968 501.0493,530.6106 503.7421,536.1808 508.165,547.5881 510.9806,556.956 514.425,571.176 515.01,572.364 515.363,572.298 516.4724,564.9272 520.3089,485.8505 522.8794,441.8762 526.9236,389.6473 530.1065,356.675 535.1173,315.3192 540.3284,280.9182 546.7057,246.9718 553.7174,216.6174 557.6482,202.2255 561.7942,188.7133 566.1225,176.1881 570.7375,164.409 575.3459,154.1136 580.1013,144.9186 585.0403,136.7816 590.1832,129.6603 595.4894,123.6355 600.9188,118.7879 606.4308,115.1983 611.7203,113.0231 617.041,112.1206 622.4753,112.5143 627.8556,114.2138 632.8152,116.9865 638.7934,122.0241 644.1602,128.3969 649.3149,136.6063 654.0682,146.4534 658.2922,157.6271 662.0347,170.3417 665.0306,183.7019 667.3455,197.8905 668.8925,212.2644 669.7505,227.1285 669.9291,242.6374 669.4024,258.675 668.184,274.7243 666.3007,290.6438 663.7631,306.3868 660.5689,322.0091 657.2343,335.6237 653.4094,349.147 649.1198,362.5095 644.2748,375.9642 639.0034,389.1357 633.2596,402.1607 627.0066,415.0874 620.4549,427.5007 614.1871,438.4903 607.2777,449.796 592.0483,472.5886 577.6091,492.1183 549.0556,528.6157 535.4138,547.7104 529.8321,556.6053 524.7845,565.693 520.5087,574.5113 516.7768,583.5394 513.4912,593.2648 510.585,604.5073 508.2969,615.7201 506.316,628.566 503.5773,655.2635 499.5889,711.0036 497.8467,731.5397 495.0565,755.9834 492.884,770.52 489.5085,786.1002 487.8236,791.6246 485.8393,796.6463 483.6955,800.8366 481.5232,803.9317 479.0745,806.2554 476.3283,807.7043 473.163,808.1277 470.0236,807.4375 466.5973,805.6637 462.8482,802.7486 459.0296,798.9163 455.1705,794.1809 450.8955,788.0756 446.3801,780.8154 436.7782,763.1994 427.387,743.0656 416.9094,717.5522 407.2203,691.1818 398.9864,665.7809 391.6889,640.1407 386.0871,617.0989 381.8161,595.0919 379.0468,575.061 377.8256,557.4768 377.8023,549.3554 378.1584,541.777 378.8724,534.7579 379.9868,527.9912 381.2875,522.462 382.8693,517.4301 384.7008,512.9514 386.7788,508.9464 389.0781,505.4062 391.8096,502.0636 394.7424,499.2513 398.109,496.7896 401.7793,494.8063 406.0528,493.1686 410.1,492.1757 414.5982,491.631 418.7457,491.6111 423.5867,492.1147 428.7861,493.1038 433.9399,494.5247 438.9703,496.36 443.469,498.4227 449.5417,501.735 455.0238,505.2047 459.8994,508.7584 464.5897,512.6774 469.684,517.3933 473.8447,521.7283 481.5929,531.6173 487.9745,541.7789 493.8333,553.8704 498.2663,566.0708 500.3427,573.4258 502.3936,582.4373 504.8558,597.7008 506.5721,616.6514 507.2894,634.4599 507.5346,653.6529 507.1384,691.9282 505.5894,741.2406 504.506,764.7986 503.5624,779.8395 501.2596,806.3444 499.0265,822.7481 496.7791,834.8699 494.0357,844.7704 490.7516,852.4914 488.9331,855.3637 487.1399,857.4232 485.1573,858.9725 483.25,859.875 481.5495,860.2594 479.7545,860.2713 475.8511,859.1137 471.8089,856.536 467.3154,852.4066 462.3446,846.6495 457.2584,839.6622 451.5827,830.7711 445.7018,820.5567 439.4735,808.7908 432.9265,795.4973 420.1504,766.9691 406.4807,732.9563 392.9884,696.0554 382.367,663.9479 372.9601,632.1101 365.0802,601.5785 359.3309,574.7681 355.3968,549.9317 354.1417,538.5937 353.313,527.5457 352.9623,517.5445 353.0644,507.969 353.6331,499.24 354.6618,491.192 355.9394,484.6357 357.5388,478.6319 359.4409,473.1711 361.772,467.9532 364.4004,463.3258 367.3902,459.1695 370.7235,455.5007 374.3084,452.3608 378.4319,449.5254 382.7578,447.2457 387.2377,445.488 392.179,444.1398 397.6301,443.2598 403.3182,442.8598 409.4271,442.9293 415.5283,443.4653 421.9443,444.4937 428.6505,446.0505 435.8015,448.1836 442.6828,450.6699 449.2441,453.4492 455.75,456.625 463.2441,460.7462 470.1492,464.9883 480.4216,472.4626 491.0255,481.4421 502.5264,493.5365 508.858,501.448 512.8882,506.9908 516.2495,510.9263 518.3236,512.238 519.0999,512.1828 519.767,511.636 520.8089,509.6648 521.8473,505.7952 523.7821,491.9209 531.7005,407.9024 536.3238,368.7053 540.2871,339.8123 544.3884,314.6158 549.001,290.4494 553.9116,268.4529 559.1426,248.5169 565.5742,228.1163 572.3731,210.5371 575.7924,203.0624 579.2154,196.4463 582.8437,190.3162 586.5886,184.8491 590.418,180.1036 594.3001,176.1379 598.2032,173.0104 601.8244,170.9048 605.6898,169.5206 609.5546,169.011 613.3754,169.3811 617.1085,170.636 621.664,173.521 625.8044,177.7188 629.935,183.738 633.6772,191.1415 636.9511,199.794 639.575,209.1327 641.5488,218.9125 643.0891,230.1901 644.0663,241.9571 644.4786,254.1963 644.3177,266.3695 643.5847,278.7238 642.2064,291.8365 640.2563,305.0941 637.7928,318.1503 634.7578,331.3074 629.3453,350.3677 622.6855,369.6528 615.1364,388.1563 606.3397,406.8194 596.2123,425.8135 584.7178,444.9545 572.6097,463.4677 547.7862,499.4132 539.3928,512.4987 533.6924,522.1105 528.7914,531.6768 523.3974,544.4249 520.5164,553.1505 517.625,565.125 517.3786,563.7724 519.3111,520.5232 523.0784,451.6087 526.5652,404.5067 530.509,362.8134 535.4958,321.3205 541.0312,284.5938 547.3756,250.9031 554.4157,220.8515 558.3899,206.4698 562.5776,192.9804 566.9534,180.5025 571.4925,169.1298 576.0886,159.1067 580.7474,150.3361 585.8432,142.1484 590.8963,135.347 596.0886,129.6423 601.3849,125.1223 606.5051,121.9938 611.832,120.0527 616.9487,119.418 622.3843,120.0432 627.733,122.0051 632.6106,125.0518 637.9091,129.9091 643.0891,136.5408 647.8719,144.6345 652.2317,154.0574 656.108,164.6685 659.4404,176.3268 662.1684,188.891 664.2039,201.9873 665.6496,216.1582 666.4424,230.7586 666.5861,245.6496 666.084,260.6923 664.9398,275.7476 663.1935,290.4318 660.7411,305.7225 657.6621,320.9933 654.4462,334.3444 650.7437,347.644 646.6796,360.4809 642.1451,373.229 637.0306,386.1923 631.3985,399.1361 625.4297,411.6478 619.0006,424.0203 606.5818,445.4473 592.2178,467.2515 575.56,490.3179 546.9652,527.6965 537.0804,541.8273 531.1027,551.4965 525.4697,561.6368 521.4103,570.1883 517.6471,579.5509 514.3275,589.9885 511.2185,602.426 508.9544,615.1034 507.0595,629.6447 504.5865,657.6895 502.3174,697.9459 498.9192,745.0288 497.0098,763.0548 494.855,778.53 491.3803,795.5095 489.6617,801.6264 487.7668,806.8389 485.5102,811.5384 483.2473,814.9922 480.7013,817.5414 478.0979,818.9687 474.9423,819.4808 471.6277,818.8473 468.0166,817.0135 464.4146,814.2023 460.5041,810.2397 456.0956,804.8171 451.5914,798.338 446.8199,790.6185 436.0876,770.7098 426.0107,749.1418 415.3406,723.1091 404.4954,693.64 396.1236,668.1108 388.4512,641.5479 381.7774,614.8242 377.3353,592.8932 374.2387,571.7098 372.6694,552.1988 372.4856,543.7187 372.691,535.9086 373.3174,528.2605 374.3385,521.2462 375.6411,515.1989 377.2496,509.7077 379.261,504.4947 381.5097,499.993 384.031,496.0379 387.0597,492.3116 390.3353,489.1744 393.8128,486.6005 397.7562,484.4183 402.0259,482.7685 406.3914,481.6837 411.2431,481.0652 416.1663,480.981 421.4823,481.4354 427.1213,482.4799 432.6879,483.9866 438.5,486.0371 444.4632,488.6587 450.2142,491.7141 456.4929,495.5797 462.0556,499.5093 466.9166,503.4272 472.3587,508.4222 477.1629,513.3701 481.2733,518.1558 485.7345,524.0443 489.429,529.442 492.4484,534.4899 498.9127,547.9297 501.4933,554.799 503.5836,561.4289 506.8741,575.0988 508.9655,588.576 510.2246,602.1254 511.2336,621.6241 511.5361,674.9979 511.0373,773.3236 510.4245,813.092 509.6268,840.0588 508.3044,863.3328 506.957,878.8228 504.9432,893.0589 502.5888,904.0801 499.7196,912.5303 498.0449,915.8194 496.256,918.3943 494.3771,920.2659 492.2945,921.5265 489.9887,922.1099 487.7728,922.013 485.7159,921.4436 483.505,920.3957 478.5882,916.7532 473.3927,911.3303 467.8151,904.0677 461.4789,894.4536 454.7445,883.0133 447.4225,869.4558 439.4901,853.7193 431.4472,836.7631 422.9921,817.9435 405.2212,775.5472 387.0825,728.6071 370.8476,683.0583 357.6115,642.5652 346.3658,604.6325 337.3048,569.9692 330.5825,539.1419 327.9362,524.4952 325.7555,510.1838 324.1254,496.6653 323.0495,483.9805 322.5316,472.17 322.5671,461.557 323.1387,451.8482 324.29,442.6034 326.9994,430.3145 328.888,424.5028 331.06,419.1869 333.4959,414.3506 336.3514,409.7195 339.4596,405.5923 342.797,401.9496 346.5607,398.5783 350.6262,395.6038 354.883,393.0792 359.6516,390.8282 364.5801,389.0246 370.0015,387.5449 375.5302,386.4872 381.5009,385.7706 393.7853,385.3928 406.7986,386.2902 420.5346,388.4265 435.7682,391.9301 453.7014,397.2342 472.4052,404.1442 486.005,409.8616 512.4593,422.278 520.0,425.25 523.0787,426.0231 526.1534,426.1665 528.7915,425.6803 530.7147,424.6824 533.0036,422.5171 535.0299,419.3017 537.0195,414.6445 538.8183,408.7416 541.4237,398.03 550.3765,353.8858 556.0574,328.5785 561.991,306.618 568.6477,286.7421 572.0659,278.4427 575.6758,270.9375 579.2367,264.6717 582.9871,259.302 586.5207,255.43 589.7551,253.0093 593.3547,251.6656 596.588,251.705 598.941,252.6638 600.9059,254.2802 603.0153,256.9766 604.8817,260.456 606.3282,264.2887 607.5,268.75 608.4908,274.382 609.1258,280.2012 609.4302,292.2869 608.4713,306.514 606.5705,319.7799 603.3062,334.9016 599.2713,349.4957 593.907,364.842 588.2029,378.9436 581.3168,393.5814 573.1659,408.3035 565.1408,421.0911 557.2899,431.6065 554.0556,435.1898 551.2858,437.6804 548.7285,439.0616 546.78,439.146 545.2425,438.0066 544.2008,435.9858 543.479,432.5277 543.0282,426.9868 543.3707,413.0933 545.4247,390.6266 548.7119,366.3768 553.9292,336.8368 558.5197,316.0077 562.7719,299.9505 567.609,284.9882 572.8051,271.4802 578.0742,260.6717 583.5917,252.086 586.3025,248.9106 588.7474,246.6383 591.4907,244.7546 593.8827,243.7241 596.3081,243.3365 598.6505,243.6086 601.205,244.7008 603.586,246.6348 605.7487,249.4198 607.5115,252.7017 609.2407,257.1432 610.5614,261.9132 611.5748,267.264 612.2191,272.7695 612.8115,286.9489 612.1199,301.2665 609.9945,317.0126 606.5321,333.402 602.1616,349.2186 597.3318,363.4778 590.123,381.0457 582.7963,396.5048 574.2952,412.0167 563.5293,429.0681 555.3233,440.2354 551.4614,444.552 548.3645,447.3256 545.7656,448.75 543.6014,448.7869 542.2394,447.3103 541.2264,444.6017 540.6144,440.5262 540.3452,434.4475 541.0217,418.4781 543.3513,393.4097 547.221,364.7288 552.5409,334.333 557.6557,311.043 562.4331,293.1324 567.5142,277.2745 572.7818,263.688 578.0902,252.8688 584.0385,243.5745 586.6449,240.4066 589.5468,237.5992 592.4688,235.5156 595.3593,234.2008 598.1671,233.6998 600.5886,233.9705 603.5342,235.2235 606.0277,237.1963 608.554,240.3097 610.5474,243.9262 612.4565,248.7843 614.1252,254.5616 615.3704,260.6713 616.2329,267.3489 616.8041,283.1299 615.9771,298.9286 613.5826,315.8662 609.8936,333.3055 604.9387,350.7455 599.0548,367.6981 592.0547,384.3438 583.8516,401.307 573.9213,419.1991 563.0366,436.1968 552.5657,450.5959 547.8603,456.0266 544.875,458.875 542.2485,460.4128 540.4523,460.4101 538.9934,458.9597 537.9566,456.0008 537.4363,452.0261 537.217,445.715 538.007,426.8092 540.5906,400.0525 545.4549,363.267 551.0499,330.9666 557.6428,300.8497 562.6742,282.4836 568.386,265.2439 573.6611,252.2887 579.3473,241.1959 582.3726,236.3184 585.3554,232.1905 588.5748,228.5186 591.5244,225.8503 594.7553,223.7019 597.6457,222.508 600.6258,222.075 603.2631,222.4062 606.4469,223.7611 609.4335,226.1469 612.1458,229.5483 614.462,233.7993 616.6806,239.375 618.5397,245.8294 619.9156,252.6572 620.875,260.125 621.4511,268.5919 621.6113,277.1166 621.3715,285.9689 620.7156,295.0758 618.1136,314.1335 613.9231,333.7681 608.7199,351.9581 602.5605,369.459 595.0537,387.2384 586.6008,404.5014 575.2134,424.6435 562.0509,445.4686 549.6534,462.7342 543.7912,469.9463 540.1073,473.685 537.4287,475.2664 536.6533,475.2854 535.6953,474.7207 534.46,472.4406 533.75,467.75 533.6109,462.0873 533.9082,450.9512 535.9948,421.4544 539.2009,392.0397 544.5259,353.3338 550.5631,319.8263 556.9343,291.2671 562.2604,271.7045 568.0221,254.3973 574.125,239.5 580.6972,226.8071 583.8097,221.9009 586.9727,217.6348 590.1662,214.0801 593.2924,211.3598 596.8545,209.1416 600.0518,207.9354 603.2045,207.4977 606.2778,207.8481 609.875,209.375 613.535,212.3631 616.7167,216.3462 619.5889,221.4127 622.0852,227.5034 624.1248,234.4677 625.8087,242.6133 626.974,251.1063 627.6781,260.1688 627.8994,269.6994 627.6341,279.6326 626.8956,290.1333 625.7039,300.7521 624.0753,311.4069 622.0155,322.0669 619.5315,332.7114 613.7185,352.7887 606.4474,372.9825 598.292,391.9407 588.4877,411.3836 577.9386,430.1152 565.171,450.255 543.54,481.53 536.9481,490.2871 533.7281,493.8719 532.5,494.75 531.2897,495.0813 530.6724,494.7956 530.0065,493.9133 529.3102,490.464 528.983,483.4709 529.305,471.9686 530.7102,450.2837 534.2856,410.7168 538.5969,373.6712 544.3238,334.6962 550.1195,303.6451 556.9169,274.0683 562.852,253.013 569.1868,234.6562 576.02,218.9298 579.5713,212.1409 583.2218,206.0565 586.9391,200.7697 590.4687,196.6061 594.3388,192.9819 597.927,190.466 601.5181,188.7604 605.0772,187.9035 608.5693,187.9331 612.0483,188.9043 616.3287,191.4083 620.3686,195.2814 624.0699,200.4814 627.1453,206.5243 630.0273,214.4042 632.3768,223.1206 634.2305,232.7319 635.4925,242.6989 636.1767,252.8296 636.3266,263.8474 635.9384,275.4971 635.0207,287.3055 633.6482,298.7915 631.75,310.625 629.2833,322.921 626.3088,335.3074 620.5919,354.7691 613.6212,373.9662 605.1898,393.6713 595.7321,412.6402 587.1462,427.9423 576.7886,444.9354 566.9622,460.0347 542.3287,496.3769 534.0701,509.5833 526.1438,523.4084 524.506,525.598 523.978,525.774 523.4732,525.0276 523.0733,519.8853 524.4414,488.6086 526.3657,459.7083 529.2223,423.91 531.643,398.2019 534.4368,372.7919 539.4231,335.2677 544.9112,301.6895 551.2696,270.1402 558.1693,242.302 561.7242,230.1785 565.4283,218.8843 569.248,208.5177 573.2905,198.8408 577.3727,190.3176 581.6115,182.6497 586.0128,175.8327 590.309,170.2323 594.6829,165.5691 599.101,161.9256 603.3268,159.4762 607.9621,157.9515 612.591,157.6046 616.8004,158.33 621.2291,160.2484 625.1395,163.0648 629.474,167.6776 633.5105,173.6141 637.1994,180.7632 640.4842,189.0246 643.3083,198.2984 645.5264,208.0239 647.3013,218.8493 648.5798,230.4218 649.3045,242.0816 649.5114,254.0732 649.1883,266.2879 648.3302,278.5506 646.8733,291.5986 644.9169,304.5175 642.4218,317.6106 639.3898,330.7834 633.1169,352.8254 625.3222,374.9895 616.5994,395.6009 606.2865,416.2906 595.6987,435.0254 583.0211,455.2271 571.7926,471.9052 547.3548,506.6313 540.3973,517.1423 533.3972,528.9752 526.9863,541.7363 523.8891,549.0804 521.3171,556.3526 519.1778,563.919 517.1012,572.9768 514.981,587.4854 513.9737,600.086 513.9375,606.9219 514.4544,596.8704 516.8827,508.4676 518.7668,462.0449 521.8168,408.8813 525.5694,360.8143 530.5763,313.0964 533.461,290.593 536.5594,269.348 539.857,249.371 543.4401,230.1402 547.2884,211.8277 551.3038,194.9048 555.8429,178.0605 560.7001,162.226 565.8355,147.5619 571.0726,134.5219 576.4975,122.8331 582.0253,112.6716 587.84,103.7506 593.9183,96.1208 600.2079,89.8754 606.6566,85.1075 613.2122,81.9102 616.3701,80.9634 619.5347,80.4073 622.7006,80.252 625.8681,80.5008 629.0323,81.1477 632.1841,82.1861 638.415,85.4117 644.4893,90.126 647.9761,93.5905 651.3684,97.5461 657.5725,106.4942 663.2679,117.1433 668.4214,129.4911 673.0896,143.6878 677.0353,159.1179 680.2055,175.5593 682.5025,192.3817 683.935,209.3318 684.5412,226.7519 684.3422,244.8358 683.318,263.2508 681.5056,281.4737 678.8858,299.7338 675.6078,317.1445 671.4809,334.7509 667.3997,349.5532 662.8171,364.1216 657.7538,378.3952 652.0996,392.6406 646.016,406.4228 639.4258,419.9489 632.0939,433.7528 624.3266,447.1828 617.5311,458.072 610.1992,469.0511 602.3101,480.1159 593.9033,491.2378 578.5482,510.1772 544.3045,550.2972 533.0975,564.555 527.0448,573.0027 522.252,580.373 517.7622,588.1646 513.6901,596.242 509.8414,605.4817 506.1792,616.1982 503.3062,626.4912 500.8895,637.369 497.0501,660.6864 489.6716,718.0964 487.3588,731.0912 485.1414,741.1772 481.9245,751.8151 478.7741,758.978 476.8395,762.0007 474.9013,764.2506 472.8312,765.8936 470.919,766.7991 468.4892,767.2462 465.8162,766.9604 463.1974,765.9163 460.0896,763.8699 456.746,760.8906 453.3209,757.1771 447.0254,748.3502 439.3,734.7224 431.9425,719.5449 424.5262,701.5652 416.9168,680.6856 410.9934,661.8637 405.7452,642.4279 401.9941,625.8225 399.244,609.567 397.4127,593.0307 396.8305,579.3218 397.4832,567.0922 399.37,556.0943 401.8993,548.3171 405.1748,542.0422 409.2457,536.9978 413.8349,533.5016 416.5728,532.1433 419.4177,531.1715 425.2664,530.3696 432.2451,531.0986 439.284,533.251 446.4062,536.9941 453.2904,541.9657 459.7778,548.0361 466.051,555.2436 471.4525,563.1196 476.5312,572.05 480.6143,581.0757 484.1053,590.6529 487.2277,601.9271 489.7389,613.8509 491.7098,627.3084 493.1317,642.032 493.9211,654.8721 494.28,675.1293 494.061,690.0542 493.4437,704.6989 492.1938,723.0057 490.6152,737.2109 488.6681,750.3071 486.23,761.5343 483.4521,770.636 480.2749,777.5951 478.6771,780.0122 476.9415,781.9758 475.0528,783.4605 472.9958,784.441 470.3831,784.8727 467.3293,784.3316 463.9941,782.7013 460.7183,780.2693 457.2416,776.9702 453.938,773.1106 450.2866,768.0992 446.4715,762.1662 437.8668,746.7538 429.8639,729.8855 420.872,708.146 412.7548,685.9144 405.7058,663.6641 399.3422,640.4889 395.0052,621.5615 391.6966,603.0162 389.5172,585.1507 388.7363,569.9479 389.3073,555.5774 390.0768,549.3704 391.2181,543.4206 393.8027,534.9766 397.461,527.6046 401.8325,521.9324 404.4983,519.4827 407.097,517.6501 410.192,516.0248 413.4248,514.8378 416.7502,514.0644 420.4984,513.66 427.9338,514.1038 432.0275,514.9529 436.0838,516.1847 444.4989,519.9485 452.8935,525.2593 460.5361,531.7377 467.9622,539.5131 474.4702,548.1333 480.2863,557.5961 485.4192,568.2106 489.1724,578.1612 492.8213,590.9677 495.1384,601.7514 497.177,615.0355 498.7963,631.2037 499.6793,646.6762 499.9969,658.5689 499.9766,678.7654 499.1691,707.5699 497.796,731.5671 496.1528,750.3688 493.9482,768.0381 491.4494,782.1206 488.3728,793.7778 485.0324,802.1668 483.1437,805.3971 481.0806,807.9685 479.076,809.688 476.9041,810.8146 473.838,811.3151 470.4298,810.6553 466.9238,808.8981 463.4148,806.1491 459.6342,802.2798 455.3131,796.9346 450.6719,790.3112 445.8927,782.6778 436.3045,764.7757 425.9844,742.3758 415.9681,717.9669 406.2447,691.3241 397.6536,664.8897 390.5501,640.0269 384.6408,615.6512 380.2897,593.2502 377.5946,573.5163 376.3943,555.4563 376.3513,547.0326 376.7062,538.8795 377.4208,531.7165 378.5211,525.1159 379.8528,519.6184 381.4687,514.6239 383.3426,510.1235 385.6191,505.8196 388.1316,502.0677 390.8176,498.8888 393.798,496.1236 397.3156,493.6245 401.0318,491.6678 404.8934,490.2269 408.8472,489.2751 413.2544,488.7547 418.189,488.6988 423.1501,489.1344 428.0825,490.0338 432.9309,491.3692 438.675,493.5007 444.239,495.9769 449.6065,498.7917 454.4053,501.7381 459.4269,505.33 464.5309,509.4681 469.2613,513.7983 473.9317,518.6262 478.5142,523.9317 482.4011,529.019 489.7773,540.8972 494.2362,549.9134 499.4989,564.1494 503.0913,577.721 505.5315,591.9017 507.2732,608.0723 508.2288,625.4827 508.6598,654.0569 508.2458,690.3044 506.9603,738.5543 505.8153,769.0968 504.4619,792.2706 503.1627,808.3625 501.024,828.0478 498.75,841.875 495.9197,853.2856 492.854,861.3109 491.1023,864.4257 489.1339,866.9873 487.0227,868.8528 485.0018,869.9248 483.1298,870.3902 481.4648,870.436 477.4402,869.3546 472.875,866.5 468.432,862.3854 463.3508,856.3767 458.012,848.895 452.2189,839.7022 445.9616,828.7585 439.7646,817.0105 433.3382,803.8689 419.4906,772.8141 404.0843,734.6321 390.9752,698.832 379.1397,663.1269 368.6382,627.8769 360.7821,597.6898 354.6606,569.157 352.2672,555.5247 350.3717,542.5434 349.02,530.6048 348.1639,519.2884 347.8504,508.9076 348.0462,499.2773 348.7227,490.3906 349.913,481.8872 351.2461,475.464 352.876,469.5799 354.8923,463.9635 357.1081,459.1091 359.6764,454.6427 362.5157,450.6815 365.5962,447.2007 369.1709,443.9435 373.2546,440.9982 377.5347,438.598 381.9638,436.7038 386.9092,435.1627 392.1329,434.0715 397.4401,433.4433 403.1758,433.2345 409.2988,433.4816 415.7479,434.2041 422.274,435.3545 429.0863,436.9519 436.063,438.9942 449.6375,444.153 463.8148,451.0866 470.4652,454.9437 477.3473,459.4037 489.8148,468.453 499.8574,477.3206 513.3065,491.1372 516.6873,494.1124 518.183,495.121 519.3125,495.4844 520.307,495.409 521.2496,494.7894 522.3517,493.0215 523.5266,489.7334 525.4968,480.085 527.4034,464.9831 531.4301,426.4093 535.8562,387.7807 539.0278,364.0929 542.9134,338.4518 546.9305,315.8847 551.7062,292.3724 555.5751,275.7931 559.8745,259.8937 565.6789,241.57 571.5915,226.0785 577.9824,212.523 584.5652,201.5198 587.66,197.3354 591.0532,193.4684 594.5106,190.2651 598.0,187.7656 601.4894,186.0102 604.6347,185.0937 607.7292,184.8554 610.982,185.3776 615.4922,187.4231 619.7698,190.9444 623.7203,195.8981 627.0424,201.804 630.0683,209.2592 632.6456,217.8781 634.7187,227.4631 636.2449,237.8654 637.1571,248.4999 637.5042,259.7454 637.2934,271.3573 636.5095,283.5623 635.222,295.482 633.4339,307.3876 631.0104,320.0514 628.0518,332.8016 622.2766,352.9769 615.2702,372.6365 606.8426,392.3611 596.5081,413.2538 587.5069,429.4043 577.4333,445.7663 539.25,503.0 531.3615,516.4385 523.7188,530.4531 522.7795,530.8125 522.3889,529.875 522.2571,520.2513 524.3939,479.9492 528.0641,430.0738 530.8108,400.3265 533.3585,376.6629 538.4176,336.6064 543.8489,302.3183 550.1317,269.8845 553.4465,255.5402 557.0106,241.8037 560.6708,229.1689 564.4803,217.3642 568.4494,206.3698 572.4657,196.5207 576.6957,187.3959 580.9397,179.4244 585.346,172.3286 589.7052,166.4446 594.1818,161.5419 598.8126,157.6151 603.4932,154.7791 608.1829,153.0716 612.8412,152.5301 617.4273,153.192 621.7391,154.9988 625.8583,157.8824 630.2471,162.3335 634.3543,168.0158 638.1236,174.8615 641.3316,182.3589 644.2056,191.0003 646.6805,200.6094 648.6952,210.9427 650.2244,221.8889 651.2431,233.3365 651.7186,244.7606 651.6795,256.4024 651.144,268.9099 650.1314,281.4417 648.6014,294.3091 646.59,307.0606 644.1894,319.258 641.3979,331.1082 638.1631,343.0255 634.5131,354.8885 630.4622,366.6458 626.0322,378.2426 621.1621,389.8311 615.731,401.7002 610.0293,413.1969 599.5462,432.2543 587.0223,452.4644 575.091,470.1153 548.5728,507.6693 538.5977,522.8411 533.4992,531.5106 528.9894,539.9731 525.7109,547.0536 522.6779,554.6524 518.7657,567.3958 516.3398,577.8113 514.2734,591.9248 513.2263,603.4656 512.3467,621.6843 511.9702,644.8235 512.0,683.75 510.9684,587.0669 511.2083,530.8605 512.5459,456.1814 514.7594,398.4829 518.3275,340.1596 520.524,313.291 523.0415,287.3236 525.9286,261.8273 529.2118,236.7327 532.7083,213.4481 536.4494,191.6178 540.6779,169.958 545.1599,149.8088 549.9371,130.9366 555.0834,113.1079 560.2988,97.2953 565.8298,82.7327 571.7828,69.1682 577.9378,57.0935 584.4386,46.2264 591.2597,36.6986 598.1558,28.8631 605.3059,22.5308 612.3328,18.008 615.8362,16.3674 619.6986,15.0104 626.8605,13.691 630.4669,13.5961 634.4099,13.9204 639.9946,15.1416 645.2294,17.1035 650.4222,19.8501 655.5519,23.3783 660.5978,27.6847 665.5389,32.7662 670.3544,38.6195 675.1487,45.4305 679.6393,52.7871 684.0803,61.0961 688.1513,69.7383 692.1282,79.2824 695.8462,89.3811 699.2902,99.9842 702.4449,111.0421 705.2019,122.1033 709.8089,145.1783 713.0564,168.6685 715.1164,193.9171 715.8453,219.7264 715.2529,245.4363 713.3539,271.1402 710.1456,296.5214 705.7351,320.7859 701.0346,341.0788 695.4488,361.1662 688.9946,380.9031 681.8432,399.8015 673.9341,418.0747 665.3805,435.4909 655.5847,453.288 645.2478,470.1031 634.67,485.59 623.1445,500.8401 610.4087,516.1286 597.1323,530.6933 584.357,543.6001 569.8866,557.2488 556.4216,569.3111 531.8072,590.6237 519.7495,601.623 510.1652,611.1593 501.8426,620.6993 497.8003,625.9915 494.151,631.407 489.7613,638.6924 486.8869,644.2421 481.8695,655.7116 473.0418,680.2179 469.2918,688.9387 466.9936,692.9418 465.2276,695.29 462.8594,697.3047 460.7588,698.2715 457.5429,698.3762 454.2876,696.9888 450.734,694.0018 447.3336,689.6191 443.8923,684.1758 441.1403,678.5731 436.685,667.7115 433.6711,658.7254 431.3399,650.106 429.507,641.338 428.2271,632.7725 427.6812,625.1979 427.75,617.625 428.452,611.0801 429.7738,605.6625 431.7378,601.602 433.5492,599.3477 435.4697,597.8428 437.6071,596.9653 439.8708,596.6979 442.3669,597.1032 444.9111,598.1212 447.0365,599.4799 449.8381,601.8572 453.6231,606.0201 458.4465,613.812 462.5056,623.169 465.2656,632.0115 467.1166,639.9607 469.0591,653.7117 469.7699,665.6885 469.3252,677.965 468.0163,687.5698 465.8744,695.0035 464.576,697.7664 463.25,699.75 461.418,701.572 459.7528,702.414 458.25,702.625 456.6642,702.3936 455.0374,701.7083 452.9734,700.3063 449.4207,696.7557 445.5569,691.177 441.633,684.017 437.7266,675.1915 434.7527,667.0628 431.5242,656.3744 429.2065,647.3148 427.472,638.2781 426.4513,630.5487 425.9861,622.3038 426.073,614.5238 426.75,608.9062 428.3945,602.4414 430.4062,598.25 432.191,595.9769 434.1105,594.4387 436.2969,593.4688 438.6082,593.0822 441.127,593.352 443.989,594.304 446.5179,595.744 449.3655,598.0368 453.875,603.0 458.783,610.796 463.3104,620.9922 466.344,630.5159 468.5943,640.6256 470.2771,652.0703 471.113,666.3392 470.7452,679.3067 469.3063,690.3919 467.0861,698.235 465.5672,701.4965 463.7922,704.0663 462.0473,705.6618 460.0991,706.5485 458.4679,706.6837 456.7972,706.2855 454.6564,705.1882 452.4248,703.5586 448.9359,699.6483 444.6264,693.2189 440.8607,686.0051 436.5605,676.0701 433.3835,667.2849 430.0557,656.5153 427.6648,646.7055 425.625,635.5 424.6384,627.4737 424.1606,618.8765 424.2669,611.9026 425.0833,605.7048 426.6519,599.4539 428.7123,595.0307 430.5888,592.5415 432.506,590.857 434.9206,589.6169 437.5005,589.121 440.4424,589.394 443.4352,590.3194 446.0,591.75 449.4156,594.4016 453.5,598.75 457.1664,603.8675 459.5819,607.9232 464.0462,617.8812 467.5,628.5469 468.922,634.1869 470.374,641.766 472.0178,655.1813 472.6215,665.7334 472.25,681.375 470.803,692.6053 469.5856,698.1297 468.3039,702.2449 467.0,705.125 465.124,707.997 463.3086,709.7832 461.2032,710.8705 459.8194,711.088 457.9827,710.8572 455.982,710.0832 453.8538,708.7837 449.9772,704.9494 445.7744,699.1352 441.7739,691.7969 436.6461,680.6776 432.8866,670.7244 429.1476,659.0915 426.5345,648.7038 424.0655,636.3524 422.8169,627.3471 422.1703,618.208 422.2649,609.7041 423.137,602.184 424.6211,596.2728 426.9134,591.3052 428.875,588.625 431.0392,586.6697 433.4104,585.3702 435.8921,584.7748 439.1948,584.8856 442.2297,585.6613 445.091,587.106 448.6562,589.6094 451.5321,592.2668 454.2268,595.4621 457.1691,599.4234 459.4833,603.1546 464.6309,613.8013 468.3816,624.9761 471.7661,639.8562 473.428,652.086 474.2405,663.1165 474.1509,679.2498 472.9323,692.7029 471.5603,699.7255 470.2034,704.7797 468.4395,709.209 466.6838,712.2566 464.625,714.5 462.2549,715.8287 460.4398,716.0833 458.4318,715.7593 456.6397,715.0492 454.706,713.8236 449.9465,709.1326 445.9496,703.5718 440.4528,693.6471 436.6926,685.5046 431.6656,672.2922 428.0551,661.0272 424.832,648.7143 422.5355,637.9829 420.9675,626.9667 420.0157,615.6733 420.0796,606.9118 421.0245,598.3477 422.7157,591.8681 425.1158,586.7871 427.2362,583.9643 429.5995,581.904 432.4676,580.4517 435.2695,579.8945 438.299,580.0363 441.7488,580.9733 445.3643,582.757 448.5627,584.9971 452.0044,588.3076 455.9986,592.8919 458.3403,596.1803 461.0504,600.7926 465.4759,609.876 468.1263,616.9591 470.2121,623.5989 473.3496,637.3066 475.3865,653.2067 476.2661,672.0561 475.7785,685.6506 473.911,700.6419 472.7869,705.7067 471.0942,711.2096 469.3434,715.2696 467.3127,718.3127 465.0218,720.498 462.7919,721.5598 460.839,721.7702 458.622,721.286 456.2639,720.0844 453.7482,718.1984 449.2467,713.2541 444.2125,705.5846 439.2879,696.3082 433.7246,683.4395 429.5963,672.2275 425.5046,658.9957 422.5271,647.6518 420.1634,635.9618 418.3057,623.6108 417.601,613.958 417.6843,603.0784 418.4497,595.3096 420.2295,588.0528 422.9286,581.9823 425.0641,579.0546 427.7395,576.6794 430.642,575.222 433.9919,574.4647 437.4702,574.5939 440.9836,575.5705 444.7841,577.3509 448.125,579.625 451.9591,583.0311 455.3821,586.7633 459.0212,591.6591 462.2488,596.7397 464.5853,601.2608 467.875,608.9531 471.8912,621.0595 474.5434,632.2065 477.1483,649.833 478.2196,666.6953 477.9633,686.2275 476.2575,701.9627 474.6523,710.0853 473.199,715.4398 471.3207,720.0491 469.0717,723.8094 466.7485,726.3009 464.1574,727.75 462.3513,728.0306 460.0058,727.6939 457.7363,726.7641 455.3592,725.1682 452.8584,722.8862 450.2456,719.9296 445.2686,712.8206 439.81,702.956 434.4628,691.4472 429.3695,678.1719 424.4796,663.2208 420.827,649.4374 417.679,634.7908 415.861,622.6975 414.8314,610.7008 414.737,600.4756 415.6334,591.0568 417.3205,583.4783 420.001,577.266 422.5108,573.6762 425.2352,571.1384 428.5581,569.2578 432.0502,568.3213 435.9819,568.3386 440.0628,569.297 443.9938,571.0887 448.3341,573.9084 451.9273,576.9781 455.5574,580.9544 459.3615,585.725 462.4219,590.3957 465.7809,596.6605 468.4706,602.5617 471.4058,610.4217 473.7035,617.6204 475.7976,626.1686 477.5865,635.1219 479.8363,652.5719 480.6558,673.9293 480.0508,691.0792 479.116,700.9386 477.9513,709.3028 476.5683,715.8895 474.6792,722.5314 472.6747,727.5285 470.5341,731.1125 467.9001,733.815 465.1821,735.2321 462.9115,735.5192 460.5196,735.0075 457.9478,733.7118 455.2692,731.7282 452.7546,729.2361 449.892,725.7556 443.8827,716.7423 437.8494,705.3038 431.4336,690.7735 426.5403,677.5748 421.5329,661.6458 417.8169,647.677 414.7392,633.069 412.5973,619.7811 411.549,607.8832 411.4489,595.8045 412.289,586.3141 414.1895,577.8535 415.5113,574.1822 417.1176,570.879 419.5975,567.2391 422.6822,564.2504 426.0035,562.3426 429.986,561.2299 434.1179,561.1102 438.406,561.9791 442.8917,563.8155 447.2935,566.5096 451.8822,570.2488 455.9432,574.3706 460.2697,579.7808 464.1005,585.4867 466.9496,590.6433 470.8827,599.1771 473.3748,605.6361 475.6274,612.8376 477.9833,622.0838 480.1428,633.2433 481.3404,641.5423 482.4813,653.2732 483.0596,662.0493 483.2656,674.625 482.6845,693.3628 481.7905,703.5241 480.4195,714.0717 478.9586,721.8334 477.1574,728.5463 474.8943,734.5125 472.2913,739.1895 469.6626,742.1626 466.6565,743.8325 464.4769,744.1453 461.9185,743.6757 459.161,742.3296 456.1475,740.0929 453.175,737.2249 450.281,733.7847 443.9612,724.3361 437.5073,712.1667 430.6484,696.6092 424.9433,681.5721 419.3523,664.0974 414.8625,647.84 411.6557,633.3414 409.0223,617.2346 407.7097,603.8057 407.5109,591.2423 408.378,580.3562 410.3475,571.1932 411.7702,567.1583 413.4274,563.6623 416.3365,559.4113 419.7042,556.2448 423.6804,553.9812 427.9143,552.8438 432.5164,552.735 437.1241,553.6319 442.2617,555.6769 447.3337,558.6453 452.4672,562.8123 457.5442,567.8858 461.2637,572.4285 465.9303,579.2762 469.4907,585.6289 473.0926,593.6215 476.0164,601.1226 478.3222,608.4808 480.8407,618.3491 482.8189,629.1767 484.3462,639.7594 485.468,651.899 486.0669,662.2652 486.2692,676.7837 485.4911,699.3586 484.4146,711.1494 483.0073,722.2133 481.4114,730.4633 479.3819,738.1169 477.0157,744.4406 474.3525,749.3467 471.4609,752.625 468.3044,754.3485 465.6809,754.6431 462.8529,753.9919 459.7494,752.3665 456.7565,750.0778 453.8499,747.1292 450.5942,743.0875 443.6612,732.5199 436.2828,718.4622 428.2097,700.1946 422.3733,684.6631 416.5577,666.5545 411.4981,648.3967 407.4567,630.7726 404.563,614.1957 403.0613,600.1389 402.6562,586.2715 403.4584,573.7287 404.2861,568.7092 405.4884,563.7816 406.9676,559.3964 408.8222,555.294 411.8748,550.5961 415.4552,547.0239 419.6871,544.3933 424.5232,542.8655 429.4473,542.5131 434.8543,543.2944 440.4815,545.2454 446.2186,548.333 452.3248,552.9886 458.1919,558.4302 462.0124,562.8163 467.3061,570.2252 471.2419,576.8833 475.6398,586.1439 478.7539,593.9358 481.377,602.2124 484.0496,612.5881 486.2992,624.1163 487.7022,633.9505 488.9475,647.0521 490.0245,675.9782 489.7235,690.5088 489.0234,704.296 487.8594,717.5806 486.1521,730.9079 484.4349,740.7473 482.3932,748.8793 479.7061,756.4811 476.803,761.9837 473.6306,765.6805 471.8141,766.9225 470.1915,767.5878 467.3727,767.9035 464.612,767.304 461.796,765.853 458.4722,763.2546 454.8795,759.5956 451.1135,754.9818 447.5102,749.803 443.577,743.39 435.5,728.0869 428.0856,711.4005 419.2314,688.259 412.491,667.896 406.8478,647.6922 402.0919,627.3875 399.0432,610.1069 397.1748,593.6598 396.582,578.9 397.3469,565.4155 398.2293,559.4991 399.4248,554.167 400.8956,549.5229 402.75,545.2407 406.148,539.7362 410.2741,535.3421 414.9844,532.2507 420.3839,530.3906 426.3748,529.8607 432.6778,530.6937 438.9576,532.6971 445.4909,536.0284 451.7311,540.2066 457.2916,544.9333 463.8259,551.8778 468.9634,558.5515 473.9927,566.712 477.9945,574.4822 482.4431,585.2782 485.4783,594.2634 488.3991,606.092 490.7822,619.1992 492.47,632.379 493.8497,648.9541 494.25,658.625 494.3917,680.8048 493.9579,697.4377 493.0315,714.2386 491.8425,728.7045 489.9727,743.3368 487.9753,754.7995 485.4434,765.4271 482.8615,773.0296 479.7961,779.0805 476.6985,782.9678 474.8057,784.382 473.0129,785.191 470.3791,785.6133 467.3577,785.0726 464.4326,783.6785 460.9103,781.0955 457.5039,777.8594 454.0406,773.8291 450.4083,768.8589 446.6129,762.9719 438.2185,747.8832 429.7819,730.1016 421.24,709.5144 413.1234,687.3778 406.0871,665.5773 399.8708,643.5034 395.4241,624.7687 391.9112,605.8932 389.4965,587.6048 388.4398,572.0716 388.7358,557.6491 389.3772,551.2006 390.3814,544.9951 392.83,535.9229 396.2113,528.528 398.3997,525.1286 400.7727,522.195 403.2924,519.7209 406.2288,517.4929 409.2447,515.782 412.75,514.375 416.0012,513.5361 419.6717,513.0595 423.3557,513.0366 427.4388,513.4247 431.5347,514.2065 435.601,515.3749 439.595,516.9229 444.0375,519.1142 453.0313,524.7305 460.3146,530.8057 467.9261,538.7497 474.3964,547.2427 480.1917,556.6817 485.3657,567.2917 489.4224,577.9361 493.129,590.8271 495.3884,601.3764 497.427,614.6605 499.0363,630.608 499.9361,646.2846 500.2468,657.9239 500.2266,678.0261 499.4402,706.4341 498.0734,730.4191 496.2312,752.2031 494.1158,769.0281 491.7511,782.5385 488.5524,794.8047 485.344,803.1014 483.4969,806.3345 481.558,808.8352 479.2717,810.8898 477.111,812.0401 474.055,812.5511 471.021,812.0155 467.4308,810.3289 463.7701,807.5637 459.8367,803.6119 455.89,798.8005 451.3914,792.4574 446.9878,785.4733 437.3125,767.5781 426.4178,744.2189 416.7222,720.9184 407.1091,694.8723 398.0806,667.5215 391.0954,643.5308 384.9774,618.7782 380.2425,595.2261 377.3771,575.7598 375.9769,557.7107 376.0324,541.0204 376.6176,533.446 377.5521,526.67 378.7063,521.0988 380.259,515.6389 382.1088,510.7267 384.2307,506.3499 386.6,502.4961 389.2781,499.0544 392.1785,496.117 395.5926,493.4314 399.1987,491.289 402.9532,489.6608 407.1669,488.4368 411.4862,487.7465 416.3782,487.514 421.3406,487.7839 426.3009,488.5231 431.5574,489.8064 437.0161,491.6731 442.3397,493.8938 447.4852,496.439 452.3917,499.2988 457.7471,502.9925 463.2965,507.2973 468.1739,511.5553 472.3763,515.7334 481.5972,526.5741 484.7836,531.0856 488.8668,537.6898 494.2287,548.0384 497.3695,555.6895 499.7194,562.4643 503.5461,576.5239 506.0232,591.2615 507.6592,607.0933 508.7812,631.6727 509.033,650.3629 508.4064,702.5436 507.1998,747.4946 505.9062,777.5312 504.5234,801.4803 503.0441,819.8082 501.1463,834.9721 498.8227,848.059 496.0579,858.6815 492.938,866.5288 491.0951,869.6434 489.2706,871.8689 487.2504,873.5274 485.3069,874.4714 483.5,874.875 481.7593,874.8766 477.9447,873.7264 473.6562,870.9531 468.8577,866.4549 463.5132,860.1296 458.0741,852.5663 452.5428,843.7721 446.4749,833.069 439.8562,820.3706 432.675,805.5958 417.8588,772.3719 403.2823,736.0135 389.0117,696.8933 377.3367,661.7789 367.3488,628.1666 358.9148,595.608 352.5622,566.0786 348.4305,540.4677 347.0772,528.5619 346.1837,516.9623 345.8079,506.4698 345.9221,496.3896 346.5459,487.1258 347.6499,478.8529 348.8409,472.8996 350.422,466.9939 352.2932,461.5981 354.5972,456.3658 357.1865,451.6837 360.0366,447.5337 363.1229,443.8976 366.6474,440.5651 370.3316,437.7817 374.6179,435.2157 379.089,433.1569 384.0707,431.4671 389.183,430.2816 394.7558,429.5218 400.3917,429.2368 406.5283,429.358 413.0228,429.9032 419.4428,430.8389 432.2175,433.8288 446.3545,438.7461 460.2004,445.0079 474.9507,453.2467 481.3478,457.4085 487.5525,461.9062 497.6203,469.9414 512.1326,483.5678 517.0943,487.6157 518.6094,488.4375 519.9161,488.7593 521.0608,488.6047 522.1406,487.8281 523.3049,485.9817 524.9074,481.0299 527.2429,468.4802 536.4884,388.9529 540.8219,358.0457 544.2426,336.5259 548.1073,315.353 552.0135,296.4055 556.0669,279.5793 560.6204,263.0916 566.1456,245.6942 571.7573,230.9885 577.848,217.9751 583.9865,207.6627 587.259,203.2572 590.6052,199.4702 593.9908,196.347 597.1,194.1059 600.1874,192.4958 603.227,191.5516 606.4949,191.285 609.4592,191.7085 613.9373,193.626 617.8622,196.766 621.4678,201.2018 624.6182,206.7609 627.5939,213.9035 630.1092,222.1374 632.1182,231.3476 633.5237,240.9651 634.4061,251.4975 634.7217,262.2682 634.5087,273.3834 633.7465,285.1285 632.4597,296.9205 630.6146,309.099 628.2999,321.1154 625.4646,333.2593 619.672,353.2755 612.5466,373.113 603.8982,393.305 593.9364,413.3448 585.627,428.1448 574.7304,445.8915 541.3715,495.6278 528.9753,515.5221 526.3513,519.2407 525.4815,519.9074 524.7181,519.3717 524.209,515.3225 524.278,505.9933 525.0527,489.6945 527.1729,457.4535 529.6237,426.7675 534.3192,380.4114 538.9399,344.3836 544.3991,309.8305 550.2766,279.628 556.7539,252.6005 563.6097,229.3869 567.2114,218.9803 571.022,209.1499 574.75,200.625 578.6963,192.728 582.819,185.6091 586.8551,179.6538 590.9872,174.534 595.185,170.3164 599.4182,167.0676 603.6491,164.8544 607.9034,163.6601 612.1349,163.4864 616.2907,164.339 620.3176,166.224 624.7818,169.7358 629.1103,174.8861 633.2023,181.6168 636.7334,189.3199 639.8162,198.1269 642.3853,207.917 644.3157,218.1336 645.772,229.4774 646.6374,240.9927 646.9628,253.3034 646.7061,265.924 645.9021,278.2817 644.4597,291.7298 642.4857,305.0416 640.0098,318.1466 636.9704,331.3355 630.7947,352.822 623.1496,374.3806 614.4964,394.7768 603.9407,416.0536 594.1186,433.5575 582.777,451.8268 573.4205,465.8053 549.3154,500.4319 540.7216,513.4219 534.9112,523.1206 528.9944,534.3978 523.6394,547.0726 520.2568,557.1676 517.479,569.359 515.7031,581.9062 518.485,512.2841 520.8951,461.2831 524.5596,406.5026 528.9348,356.7469 533.6755,316.2062 539.7915,275.1334 545.8957,242.0743 552.9375,211.4248 557.1381,195.9161 561.5253,181.5218 565.9899,168.6346 570.6444,156.8667 575.5994,145.9339 580.8271,135.9776 586.1137,127.4144 591.4118,120.2576 596.7349,114.4471 602.3954,109.7148 608.168,106.3125 614.0,104.2722 619.8383,103.6263 625.2916,104.321 630.9912,106.4737 636.3052,109.9174 642.3767,115.6766 648.3233,123.4366 653.6486,132.5415 658.4802,143.112 662.5933,154.5831 666.1763,167.5206 669.1534,181.7322 671.4197,196.7156 672.9292,211.9147 673.7295,227.5284 673.8045,243.3988 673.1459,259.3012 671.6937,276.4631 669.5483,293.3701 666.6797,310.2998 663.1725,326.764 659.6502,340.5787 655.657,354.097 651.0137,368.0223 645.9371,381.6401 640.5961,394.5619 634.7292,407.4378 628.5126,419.8599 621.5549,432.6204 608.0384,454.9947 593.2341,476.6308 578.5152,496.1168 547.1909,535.3865 535.4655,551.4545 529.5264,560.5384 524.4378,569.2403 520.156,577.6194 516.4165,586.174 512.9187,595.8741 509.7574,606.8532 507.106,618.7154 504.9277,631.3754 501.9508,656.5027 497.3127,711.2082 495.6616,727.6685 493.0444,747.9601 490.6381,762.5982 487.1356,776.824 485.4956,781.7991 483.7469,785.9275 481.838,789.3412 479.5938,792.3132 477.1192,794.4881 474.6941,795.6877 471.8562,796.1382 468.8568,795.6236 465.6042,794.0875 462.0909,791.4925 458.3095,787.8008 454.5812,783.3731 450.5863,777.7732 446.3867,771.0863 436.7579,753.3868 428.0394,734.8179 418.7754,712.1534 409.2669,686.1046 402.0676,663.5649 395.574,640.0627 390.3698,617.7926 386.6353,597.4624 384.3523,579.354 383.4393,563.0681 383.9133,548.7922 384.6618,542.2247 385.8017,535.8714 388.5416,526.4188 390.3658,522.1716 392.3886,518.4649 394.6218,515.1832 397.2858,512.0582 400.1284,509.4346 403.1097,507.3058 406.2284,505.6411 409.8114,504.2838 413.5252,503.3886 417.7075,502.9107 421.549,502.9124 425.7373,503.3608 434.5739,505.5191 439.2637,507.2892 443.8056,509.4473 453.9965,515.7256 462.0315,522.1079 470.089,530.29 476.6628,538.5686 483.7997,549.8881 489.1345,560.8641 493.195,571.5493 497.2334,586.2951 499.9987,600.8246 501.7651,615.5104 502.9562,631.5154 503.6509,657.1285 503.4572,681.87 502.7358,709.3206 501.4929,735.5661 499.8456,758.5217 498.0726,776.8239 496.0066,792.094 493.552,804.8812 490.6863,815.4704 487.5089,823.1489 485.6237,826.2362 483.7873,828.4777 481.7982,830.1805 479.6319,831.2926 476.1819,831.7532 472.6669,830.9205 468.8795,828.8214 465.0047,825.5511 460.5539,820.6864 456.0042,814.7385 450.8011,806.9761 445.8832,798.7903 440.3911,788.7167 434.6601,777.3084 422.4539,750.4165 411.2754,722.7799 400.2334,692.279 390.256,661.6137 382.6406,635.0529 376.0571,608.0578 370.9825,582.2673 367.9664,560.7699 367.0999,550.8026 366.6505,541.395 366.6139,532.2213 367.0057,523.7177 367.8133,515.9166 369.0422,508.7599 370.6869,502.2363 372.8551,496.0136 375.4101,490.5349 378.5027,485.5113 381.9361,481.2908 385.6972,477.8167 389.8608,474.9421 394.6184,472.5739 399.9487,470.8151 405.7995,469.755 412.1329,469.4484 418.5486,469.8118 424.9317,470.7862 431.5671,472.4398 438.0806,474.7099 445.2373,477.7669 451.6941,481.0363 457.738,484.6295 464.5005,489.3372 470.5871,494.154 476.0947,499.1174 482.3706,505.5583 487.3426,511.2519 491.5769,516.8303 495.2917,522.4056 498.6417,528.137 502.1531,535.1025 504.8648,541.3202 508.7892,552.5451 511.5931,562.9324 514.25,575.375 514.6719,576.5469 515.088,576.799 515.9625,570.6553 516.733,558.0457 519.8839,488.6739 522.9725,434.7282 526.0285,394.0371 529.5339,357.0675 534.5941,314.1558 539.4597,281.4059 545.9341,246.4724 553.2202,214.4787 557.1342,200.0402 561.3957,186.0877 565.8587,173.1394 570.4818,161.293 575.2267,150.6227 579.9855,141.336 584.9847,133.0492 589.9603,126.1118 595.3652,119.913 600.6428,115.1204 606.276,111.3376 611.6866,109.0023 617.2733,107.9588 622.6189,108.2475 628.2217,109.9022 633.4062,112.7188 636.6815,115.1809 639.5912,117.8502 645.175,124.4038 650.3764,132.5513 655.339,142.6713 659.657,153.9224 663.4828,166.7052 666.6324,180.5492 668.9968,194.8668 670.5891,209.438 671.5275,225.5416 671.7208,241.8385 671.1898,258.2557 669.9498,274.652 668.0162,290.8861 665.4343,306.6623 662.0021,323.2326 658.5114,337.3488 654.6299,350.9841 650.284,364.4568 645.4955,377.692 640.2675,390.6731 634.3791,403.9188 628.1559,416.6678 621.46,429.2247 615.2285,440.0291 608.4895,450.9352 593.0209,473.8122 577.4074,494.7744 547.5556,532.8333 534.8103,550.4945 529.2601,559.171 524.5664,567.4654 520.3353,576.0378 516.6883,584.683 513.1285,594.7123 510.2953,605.0326 507.6554,617.2439 505.4163,631.1002 502.302,660.8768 499.6692,695.8918 496.5022,731.5815 494.4065,749.7348 491.6203,767.6837 488.3987,781.2348 486.5499,786.9309 484.7492,791.3101 482.7125,795.0989 480.5426,798.0709 478.2778,800.2094 475.7875,801.5746 473.0262,802.0907 469.7955,801.6329 466.5374,800.163 463.0305,797.6166 459.2608,793.9524 455.2146,789.1288 451.1079,783.4305 446.8235,776.6899 437.495,759.6893 427.4952,738.5203 418.204,715.9428 409.01,690.7713 401.1629,666.7436 394.3909,642.9864 388.7457,619.6864 384.5556,598.0766 381.9172,578.5394 380.7397,560.8644 380.7032,553.0015 381.0417,545.5272 381.7654,538.5697 382.8494,532.1936 385.6526,522.1288 387.4869,517.6822 389.5684,513.7365 391.9268,510.2027 394.7693,506.8496 397.5492,504.2722 400.7891,501.938 404.1843,500.111 407.7376,498.7608 411.7912,497.7906 415.9351,497.3153 420.1282,497.2939 424.7107,497.7403 429.25,498.625 434.0175,499.9767 439.065,501.8435 444.3176,504.2723 449.0218,506.8967 454.2231,510.2824 463.5883,517.6279 472.1417,526.3307 479.1936,535.12 485.827,545.8695 490.9304,556.3955 495.8567,569.1045 499.4158,582.3197 501.6748,594.3472 503.3308,606.1243 504.5542,621.193 505.3157,638.3793 505.6544,657.7578 505.0626,699.2929 503.875,731.375 502.4017,756.9514 500.3821,782.6439 498.3158,800.4025 495.9478,814.6583 492.9193,826.8383 489.5805,835.4445 487.6763,838.7594 485.7446,841.2389 483.5295,843.1897 481.2387,844.3395 477.7423,844.7066 474.1673,843.7173 470.1657,841.3628 465.7554,837.5454 461.2295,832.4375 456.3424,825.8378 451.0829,817.7241 445.6934,808.5259 439.97,797.9176 434.2069,786.3349 421.8357,758.8803 408.3124,725.4864 396.9413,694.1489 386.4938,661.9682 377.0932,629.5097 370.5263,603.044 365.4942,577.9759 362.0362,554.2165 361.0121,543.4325 360.483,533.6772 360.4023,524.1083 360.7821,515.2186 361.5977,507.0216 362.8899,499.2071 364.4387,492.759 366.2868,487.061 368.3991,482.0853 371.0164,477.2894 373.9377,473.0882 377.3784,469.2014 381.0769,465.9465 385.2696,463.126 389.6193,460.9629 394.6487,459.1825 399.8466,457.9978 405.536,457.3485 410.8963,457.283 416.625,457.75 423.5183,458.8856 430.2898,460.4962 436.8599,462.5518 443.1487,465.0226 450.9225,468.7135 458.017,472.5674 463.9858,476.2869 469.4975,480.2373 476.0882,485.4428 481.7152,490.4004 492.234,501.5106 499.9537,511.7222 503.7961,517.6492 507.37,524.124 515.75,541.5 516.386,542.154 517.25,541.875 518.3948,538.3419 519.4519,529.5807 520.6644,515.516 523.6332,469.715 526.834,427.8563 531.0124,382.8989 535.0009,348.736 539.7277,314.7644 544.8073,285.008 551.021,254.9696 557.4043,229.5252 561.1542,216.7769 565.0625,204.8941 569.0938,193.9624 573.3516,183.7377 577.4463,175.1263 581.8753,167.0688 586.2645,160.2371 590.7914,154.3039 595.4273,149.3447 600.1436,145.4353 604.736,142.7324 609.2828,141.1218 613.8396,140.5366 618.7029,141.0533 623.4618,142.7593 627.7348,145.4085 632.4261,149.7395 636.6001,155.0969 640.7147,161.9756 644.4706,169.9985 647.8133,179.0634 650.6884,189.0684 652.9579,199.4626 654.7295,210.6452 656.0287,222.5627 656.8276,235.2524 657.0717,248.2554 656.7711,261.0756 655.9344,273.9955 654.5222,287.2942 652.5801,300.8107 650.1055,314.464 647.3511,327.0765 644.2172,339.3667 640.7293,351.2873 636.738,363.3467 632.3312,375.3285 627.4122,387.4305 622.1406,399.2238 616.3931,410.9714 603.7911,433.9425 589.7442,456.5527 575.4684,477.3386 546.5674,517.1003 536.1445,533.0371 530.6133,542.5488 525.8772,552.095 521.8872,561.5948 518.4812,571.7746 515.843,581.7946 513.4759,594.0623 511.9844,605.0487 510.4683,621.3622 508.8937,652.6268 507.4091,702.9116 505.3882,756.3566 503.3251,789.9399 501.0049,814.6213 499.6357,824.6572 498.0653,833.3035 496.065,841.9783 494.0357,848.6234 491.9009,853.7431 489.3952,857.9516 486.7313,860.8307 484.0341,862.4112 480.651,862.9118 476.8056,861.9509 472.4864,859.3872 467.9881,855.3389 463.0392,849.624 457.6162,842.1783 451.6958,832.9375 445.8193,822.8005 439.5274,810.8543 432.9372,797.3224 418.6703,765.1999 405.1006,731.5506 392.1044,695.6843 380.5285,660.3438 370.6746,626.8762 363.088,596.8113 357.2647,568.5367 355.0929,555.4565 353.4124,543.066 352.3396,532.3616 351.7051,521.6864 351.5654,511.7085 351.9218,502.0682 352.7654,493.2092 354.1322,484.8384 355.5813,478.714 357.2646,473.3326 359.2604,468.3702 361.7242,463.5359 364.4709,459.2414 367.4689,455.4627 370.9421,451.9423 374.6304,448.962 378.776,446.3337 383.0885,444.2465 387.7533,442.5855 392.5584,441.4042 397.8365,440.6238 403.546,440.2999 409.2416,440.4474 415.3372,441.0602 427.8413,443.5006 440.7905,447.5899 455.1902,453.8702 468.0,461.0 479.6072,468.9375 489.7474,477.2425 495.5142,482.5232 499.905,487.0075 506.0703,493.9955 515.5139,505.5933 518.25,507.625 519.2607,507.6448 520.2188,506.9395 521.3972,504.6121 522.3902,501.184 524.1939,489.1797 532.6369,403.8891 536.4696,371.8365 541.0666,339.549 545.1632,314.6179 549.496,292.0762 554.1773,271.2587 559.2158,252.1855 565.4887,232.2272 572.0268,215.1328 578.9042,200.8194 582.6399,194.4019 586.272,188.9984 589.9697,184.3195 593.5,180.625 596.9721,177.7414 600.8546,175.3678 604.7599,173.8575 608.2924,173.2571 612.1173,173.4725 615.5028,174.4872 619.9716,177.1905 624.3837,181.5186 628.4478,187.2702 632.0937,194.3688 635.1061,202.2905 637.6102,211.2265 639.7012,221.4772 641.2411,232.5036 642.1827,243.7677 642.5643,255.4979 642.3695,267.5077 641.5797,280.3504 640.2263,293.2226 638.335,306.0274 635.9316,318.6683 632.945,331.4626 627.3853,351.0094 620.6348,370.4439 612.4733,390.1758 603.197,409.6375 593.8936,426.7404 581.8329,446.7188 570.327,464.114 546.4583,498.9094 536.1595,515.3831 530.2408,526.2045 526.3637,534.3229 522.8457,543.2441 519.0449,554.6016 518.7208,554.051 518.7715,550.6152 519.7221,528.0838 523.6234,457.8356 527.4527,407.2014 532.0444,360.4107 536.8438,322.597 542.8342,284.6369 548.714,254.5301 555.4757,226.3822 559.3904,212.4489 563.2653,200.1504 567.33,188.7487 571.6657,178.0101 576.2466,168.0581 580.8778,159.3111 585.6901,151.523 590.6032,144.8831 595.8021,139.2462 600.8121,135.0647 605.8921,132.0241 610.9993,130.1747 616.0911,129.5666 620.8129,130.1685 625.6586,132.0137 630.5922,135.21 635.8156,140.1907 640.4983,146.2896 644.8289,153.6532 648.7416,162.225 652.3086,172.3172 655.352,183.3558 657.8642,195.2462 659.8139,207.8496 661.1377,220.6207 661.8747,233.8049 662.0095,247.1818 661.562,261.225 660.5436,275.283 658.9291,289.6475 656.765,303.847 654.0004,318.1526 650.9403,331.2483 647.4981,343.9471 643.6119,356.5451 639.1717,369.3428 634.4497,381.5793 629.1529,394.0312 623.1889,406.8409 616.9561,419.1444 605.1101,440.1556 591.9445,460.7901 577.6465,480.9747 548.3631,520.5324 535.8483,538.9153 530.2108,548.418 524.9077,558.5888 521.6472,566.09 518.2482,575.4998 515.2399,585.916 512.2106,599.3944 510.0833,612.8762 508.4259,628.5 506.7501,654.3519 504.1916,710.6535 502.2058,744.6004 500.1128,770.9578 497.4913,793.8083 494.1964,811.6679 492.4136,818.4316 490.4408,824.1933 488.0588,829.3587 485.7546,832.9352 483.1665,835.561 480.54,837.0163 477.2309,837.5185 473.6065,836.7296 469.7837,834.6207 465.5892,831.0913 460.9825,826.0465 456.0019,819.5016 451.1583,812.174 445.8518,803.1946 440.075,792.4745 434.0171,780.3319 421.7527,753.2708 409.6264,723.029 397.6204,689.7308 388.2962,661.0549 380.2049,632.6857 373.4834,605.1455 368.4636,579.7285 365.4082,557.5009 364.4894,546.8389 364.0158,536.8201 363.9801,527.4852 364.375,518.875 365.1633,511.3488 366.4379,504.0367 368.0182,497.788 370.0687,491.8098 372.4676,486.5005 375.3488,481.5941 378.4381,477.5269 382.168,473.7674 386.1903,470.7108 390.4471,468.3032 395.2276,466.3738 400.4951,464.9951 405.9797,464.2325 412.0343,464.0489 418.1339,464.4718 424.5709,465.5178 430.8747,467.11 437.8735,469.4399 444.6054,472.1963 451.3426,475.5131 457.9294,479.3605 464.5156,483.7038 470.2694,487.9656 475.5617,492.4027 481.7346,498.1908 486.8963,503.6824 491.6429,509.6325 496.4268,516.2664 503.2134,527.7777 505.5925,532.6774 509.0607,541.1072 512.3787,550.4804 514.7054,558.1262 515.5966,559.5197 516.094,559.379 517.145,554.5315 518.02,544.3382 522.2076,469.799 525.2464,426.0678 528.844,385.124 532.6101,349.4258 537.4449,312.3654 542.6309,280.1259 548.8143,249.064 555.7334,220.4673 559.4863,207.1979 563.4392,194.7755 567.6838,182.9372 572.0581,172.1626 576.5226,162.5108 581.0413,154.019 585.6376,146.6275 590.4868,140.0889 595.4917,134.5724 600.6114,130.148 605.805,126.8853 610.741,124.9337 615.6718,124.1396 620.7187,124.5585 625.7219,126.1947 630.6082,129.0171 636.1342,133.8137 641.0853,139.8044 645.8985,147.5708 650.0296,156.293 653.9805,166.9414 657.2868,178.3681 660.0222,190.7182 662.1365,203.8412 663.5461,217.1626 664.2855,230.6943 664.4316,245.3828 663.9469,260.225 662.8501,275.1006 661.1599,289.8896 658.8951,304.4719 656.0069,319.1153 652.9194,332.2591 649.3683,345.3558 645.3615,358.3418 640.9131,371.1484 636.0435,383.7007 630.7725,395.9656 625.1426,407.9198 618.8703,420.1508 605.875,442.875 592.159,464.0906 576.0802,486.5635 548.1022,523.7656 535.6013,541.8364 530.3986,550.4698 525.6347,559.4837 521.3539,568.7254 518.0,577.375 514.8003,587.7234 512.2263,598.5353 509.449,614.7488 507.9873,626.3588 505.7012,655.0801 502.297,717.6272 500.696,741.322 498.3989,767.3581 496.2487,783.9952 492.8578,801.9857 491.0813,808.4757 488.8736,814.7078 486.8104,819.1592 484.4598,822.8063 481.7437,825.5219 479.0097,827.02 475.662,827.4771 472.2915,826.6748 468.5496,824.6155 464.1642,820.9966 460.0002,816.4999 455.5448,810.7098 450.7926,803.6153 445.738,795.2053 440.2613,785.2507 435.1207,775.1151 423.8176,750.3264 411.7527,720.5163 401.2656,691.5402 391.7359,661.984 383.3907,632.7142 377.4499,608.1607 372.9715,584.9116 369.9408,562.7641 369.0752,552.8669 368.6503,543.6963 368.6583,534.6978 369.1061,526.3552 369.9679,518.6791 371.2864,511.3634 373.1756,504.2438 375.4319,498.2 378.3062,492.5675 381.5956,487.7607 385.4897,483.505 389.7055,480.1084 394.4792,477.3731 399.4826,475.4059 405.0463,474.0629 411.1186,473.4514 417.2324,473.6324 424.3646,474.6678 431.756,476.4491 438.5756,478.7639 445.1735,481.6887 452.3692,485.5236 458.7724,489.5025 464.7153,493.7788 471.9948,499.7657 477.9883,505.4283 483.2279,511.3163 488.5499,518.0809 492.1107,523.2722 496.5748,530.719 499.87,537.0172 503.5226,545.695 505.4483,550.9919 507.9969,559.5212 510.8774,572.6804 513.2915,590.0718 513.875,593.3935 514.213,593.786 514.7132,590.6532 515.2851,579.1196 517.6342,511.5076 520.5469,448.8906 523.5006,403.1406 527.2133,359.979 531.9156,316.3984 537.432,277.1355 540.8219,256.8827 544.4805,237.33 547.9975,220.6013 551.723,204.8492 556.0202,188.7315 560.4895,173.9301 565.1998,160.193 570.125,147.625 575.1616,136.4733 580.4981,126.2983 586.0995,117.2225 591.7026,109.6466 597.487,103.3094 603.1817,98.4923 608.8312,95.0882 614.8435,92.9417 620.9061,92.2444 626.9545,92.9919 632.924,95.1802 638.4311,98.5661 641.9006,101.4381 644.9761,104.5125 650.8311,111.9433 656.5576,121.5098 661.9171,132.9922 666.6656,145.9565 670.6248,159.8096 673.859,174.7056 676.2639,190.2099 677.9609,207.1194 678.8505,224.4304 678.9399,241.9759 678.2365,259.5891 676.7881,276.7245 674.5717,293.7636 671.4554,311.5801 667.5063,329.5598 663.743,343.9499 659.5836,357.8239 654.8303,371.8159 649.7006,385.2476 643.8063,399.1289 637.5377,412.5113 630.7668,425.6981 623.5455,438.6044 616.6539,450.029 609.2291,461.5649 601.5768,472.7432 593.4746,483.8901 577.6314,504.1126 546.5514,541.7896 535.0061,556.9669 528.9245,565.8832 523.5101,574.651 519.1829,582.5166 515.577,590.2017 511.6035,600.3518 508.2566,610.8316 505.4903,621.8713 503.0007,634.6159 499.4816,659.7931 494.9593,703.3104 492.1665,727.3401 490.1847,739.9861 487.7562,752.3651 484.6702,763.7376 481.2196,772.1317 479.375,775.25 477.1906,777.9961 475.1094,779.7894 472.8472,780.9537 470.0127,781.4408 467.3484,781.0632 464.4028,779.7824 461.2478,777.5712 457.5407,774.0802 453.7003,769.6585 450.1305,764.8407 446.4197,759.1185 438.1942,744.3136 429.7739,726.606 421.5046,706.4564 413.2609,683.6968 406.6718,662.9814 400.9074,642.0367 396.2406,621.9904 393.1695,604.7544 391.1122,587.2173 390.3307,571.2146 390.9091,557.9081 391.6963,551.7803 392.7835,546.1798 395.4558,537.385 398.912,530.4815 401.1562,527.3125 403.588,524.6019 406.1725,522.3356 409.2128,520.3038 412.3432,518.7881 415.6093,517.7124 418.9741,517.0627 422.4004,516.825 425.8509,516.9855 429.9475,517.629 438.0065,519.9667 445.375,523.5 454.2052,529.5264 461.375,535.875 469.0126,544.3242 474.5411,552.0246 480.2493,561.9308 484.854,571.9381 488.8083,582.734 492.1509,594.8718 494.5634,606.6247 496.62,621.1452 497.9781,636.9237 498.7194,655.0559 498.8618,677.524 498.637,690.4494 497.576,716.8435 495.9473,738.889 494.1777,755.4152 492.1635,769.0225 489.5261,781.4192 486.7852,790.8008 483.5936,798.0045 481.7364,800.8802 479.9546,802.9185 478.0097,804.4688 475.8857,805.4907 472.9559,805.948 469.9523,805.3678 466.3978,803.5473 462.8487,800.7609 458.6192,796.4695 454.6916,791.679 450.6095,785.8748 446.1277,778.674 436.5547,760.8936 426.7616,739.797 416.6778,715.1539 407.1494,689.0 399.3187,664.6305 392.2969,639.6685 386.7248,616.5029 382.681,595.19 380.0806,575.4079 378.976,557.9229 378.9769,550.1252 379.3626,542.4487 380.1235,535.3746 381.2381,528.909 382.5088,523.6775 384.1302,518.6558 385.9816,514.2582 388.2349,510.0985 390.749,506.458 393.4891,503.3249 396.4202,500.6877 399.7946,498.3625 403.5129,496.5082 407.4473,495.1484 411.5139,494.2676 416.0415,493.8313 420.2207,493.8922 424.7439,494.4376 429.9156,495.5428 435.049,497.0632 440.4243,499.1323 445.2479,501.4549 450.9058,504.7271 456.326,508.313 464.4804,514.8755 474.1506,524.7075 481.2934,533.9862 487.7254,544.4081 493.3688,556.4453 497.5765,568.2294 500.4818,578.9165 503.3525,593.953 505.2892,610.6978 506.3106,627.786 506.7996,657.4497 506.5462,680.6723 505.9706,708.5826 503.9696,756.0677 502.4052,779.5499 500.8401,797.0577 498.6824,814.2738 496.4145,826.7958 493.4767,837.6161 490.3306,845.3013 488.5778,848.2398 486.6273,850.6418 484.7134,852.2688 482.496,853.374 480.6972,853.7534 478.7753,853.7246 474.9117,852.5424 470.576,849.7901 466.252,845.845 461.371,840.1283 456.2728,833.0295 450.7721,824.3492 444.8638,814.0769 438.977,803.0179 433.0361,790.9398 420.1706,762.0395 405.9396,726.4505 393.6694,692.5457 382.881,659.3843 373.6199,627.4005 366.7165,599.708 361.4634,573.6244 357.8434,548.9235 356.7232,537.3951 356.1194,527.0454 356.0096,517.4131 356.3731,508.4874 357.2311,499.8883 358.5463,492.0516 360.0255,485.8917 361.9027,480.0115 364.0046,474.9183 366.4665,470.256 369.2195,466.1369 372.4896,462.2565 376.0158,458.9484 379.7537,456.1788 383.9647,453.7595 388.3527,451.8689 393.3953,450.3403 398.5925,449.354 403.8846,448.8652 409.5922,448.8426 415.642,449.3293 421.6923,450.2928 428.1345,451.7532 434.4303,453.5882 440.8787,455.8812 447.375,458.625 454.9261,462.2991 461.6628,466.0066 467.8706,469.8835 473.7281,474.0561 484.7003,483.0354 495.3876,493.6531 499.3759,498.3163 505.139,506.037 515.696,522.213 517.4688,523.75 518.1771,523.6968 518.8293,523.1405 519.7134,521.0207 520.5694,517.0523 522.4003,502.217 529.792,414.748 534.6402,370.6476 538.0975,344.1028 543.1183,311.5317 547.6146,286.97 553.1072,261.9138 559.1337,238.9307 566.1316,217.1481 569.9021,207.206 573.7311,198.2289 577.5875,190.2421 581.5309,183.1093 585.6322,176.7209 589.8574,171.1492 594.1714,166.4672 598.2813,162.9389 602.4095,160.3244 606.5156,158.6861 610.5765,158.0113 614.9397,158.3248 619.2188,159.7188 623.0526,161.9593 627.6295,166.0402 631.7866,171.3661 635.6409,178.0411 639.2355,186.2154 642.2442,195.1386 644.7654,204.9847 646.7512,215.636 648.167,227.021 649.0273,239.0696 649.3219,251.4978 649.0599,264.1899 648.2176,277.4207 646.8543,290.2931 644.8699,303.816 642.3886,317.1028 639.449,330.093 633.3455,351.8432 625.6002,373.8772 616.6267,395.1603 606.2805,416.0537 596.4701,433.4791 585.1381,451.6129 571.9147,471.4263 550.7761,501.2774 541.6634,514.9861 533.4485,528.7701 526.9172,541.7694 524.2096,548.2271 521.4759,555.9559 517.3594,571.625 516.0287,578.7988 514.9795,587.1367 514.0,604.875 515.0,579.5312 517.344,499.125 518.5296,471.4316 521.5813,415.2408 525.8568,360.0793 530.5797,315.0258 536.4411,272.0698 539.583,252.7671 542.9854,234.1942 546.5509,216.8599 550.4046,200.1651 554.7357,183.5352 559.2916,168.115 564.049,153.9843 569.1817,140.6515 574.5007,128.6355 579.956,118.0025 585.6849,108.5167 591.4779,100.5554 597.3198,94.1036 603.236,89.0961 609.6339,85.2615 615.7834,83.0364 619.2166,82.4041 622.3071,82.2094 628.462,82.9004 634.5372,85.0584 640.3724,88.6344 643.8191,91.4934 647.3969,95.0788 650.6735,98.9491 654.046,103.5667 660.2238,113.9337 665.8345,126.0158 670.6433,139.2144 674.7897,153.9182 678.2319,170.1403 680.8412,187.2166 682.5749,204.5576 683.4841,222.3244 683.5557,240.3229 682.7765,258.3589 681.1067,276.9693 678.6063,295.584 675.2956,314.0787 671.1134,332.6836 667.1619,347.4381 662.7288,361.8375 657.6562,376.3886 652.1271,390.5632 646.176,404.3109 639.6857,417.9029 632.699,431.2245 625.2567,444.209 618.2902,455.4819 610.7406,466.891 602.8958,477.998 594.2374,489.5427 578.3826,509.2685 545.0879,548.4615 533.3152,563.4615 527.2746,572.0561 521.8078,580.6219 517.5741,588.1644 513.6364,596.2136 509.9556,604.9048 506.7063,614.5551 503.7174,625.219 501.1774,637.1549 498.2431,654.8501 489.7881,720.6199 488.0388,731.0444 485.2157,744.1915 482.438,753.4941 478.9234,761.4542 477.1894,764.1517 475.25,766.375 473.0862,768.0764 471.1313,768.9912 468.3219,769.3909 465.6177,768.9348 462.9291,767.8198 459.9415,765.8091 457.0685,763.193 453.7586,759.4815 446.7141,749.6215 439.014,736.036 430.7984,718.9448 424.0836,702.6559 417.1495,683.384 410.8563,663.8822 405.8439,645.644 401.4311,626.1963 398.3156,608.5303 396.4774,592.566 395.8483,578.1631 396.4345,565.9204 398.3049,554.7323 400.7966,546.7852 404.1816,540.1719 408.3299,535.102 410.7637,533.0312 413.3266,531.3649 416.2703,529.9747 419.1869,529.0482 425.2333,528.3059 431.7187,529.0254 439.2599,531.3953 446.1784,534.9102 453.845,540.3901 460.3137,546.3172 466.2239,553.2108 471.8771,561.3303 477.0652,570.6546 481.182,579.6906 485.0781,590.4219 487.5742,599.2511 490.6237,613.7408 492.4343,625.8842 493.7024,638.5152 494.6666,655.4882 495.012,674.1634 494.898,686.0899 494.0785,706.8678 492.7345,725.507 491.5991,736.4891 489.1736,752.9703 486.6727,764.6383 483.8687,773.8144 480.763,780.5379 477.428,784.959 475.402,786.551 473.5135,787.4348 470.75,787.875 467.7876,787.3941 464.6023,785.9173 461.4845,783.6678 457.7794,780.1485 454.2016,776.0226 450.7266,771.2877 446.9205,765.3724 437.985,749.1893 429.0719,730.482 420.3304,709.3592 411.8997,686.2569 404.9487,664.4428 398.7362,642.0062 393.832,621.2805 390.4205,602.6349 388.18,584.5316 387.2645,568.2102 387.7586,554.1799 388.5292,547.7425 389.6233,541.8654 392.1969,533.1299 393.9621,529.0421 395.9643,525.3904 398.1719,522.1719 400.7999,519.1283 403.3364,516.8101 406.25,514.75 409.3289,513.1535 412.5633,511.9829 416.2828,511.1536 420.0727,510.7894 423.869,510.8583 427.9556,511.3748 436.0547,513.517 440.395,515.2599 444.625,517.375 453.9459,523.3392 460.9516,529.2212 469.6458,538.364 475.0909,545.5745 481.8231,556.7225 486.8928,567.7712 490.7386,577.9911 494.434,591.579 496.708,603.2226 498.4721,615.5484 500.1603,634.0755 500.9375,654.2305 501.0203,674.6803 500.3463,702.1648 499.5611,719.678 497.7938,744.4093 496.4301,759.1905 494.0252,776.9048 491.7015,789.242 488.7297,800.0248 485.4717,807.8565 483.625,810.875 481.7323,813.1703 479.6773,814.9062 477.4426,816.0306 474.2776,816.494 471.161,815.8957 467.6635,814.1588 464.0917,811.3649 459.9672,807.1236 455.7932,801.9471 450.8444,794.8899 446.386,787.6996 441.3997,778.751 436.0376,768.2413 424.4785,743.1273 414.8553,719.575 405.2165,693.1494 396.1879,665.5899 389.1165,640.9289 382.867,615.2506 378.048,590.8027 375.2861,571.0666 373.9891,552.7864 373.897,544.2778 374.1965,536.0624 374.8395,528.9683 375.9089,522.2049 377.258,516.4382 378.9125,511.1918 380.8395,506.459 383.1694,501.9508 385.7341,498.0167 388.653,494.483 391.5775,491.716 395.0082,489.2041 398.6241,487.2173 402.7332,485.6096 406.9638,484.5442 411.7245,483.9303 416.6225,483.8082 421.9324,484.203 426.838,485.0328 432.0307,486.397 437.5118,488.3312 443.2037,490.7591 448.673,493.5414 453.5565,496.4614 459.9902,500.9258 465.4985,505.1935 470.2841,509.4155 474.5183,513.7502 479.4052,519.3041 483.5674,524.6048 487.4283,530.2262 491.0968,536.2558 494.2337,542.2304 498.0211,550.7202 500.2139,556.4001 501.8997,561.9082 504.8472,573.1625 507.1456,585.7493 508.7977,599.5946 510.1086,623.9585 510.4082,648.2855 509.4038,729.8546 508.4739,773.3556 506.6285,818.0529 505.2607,835.9475 503.1942,854.5252 501.0715,867.1564 498.463,877.5185 495.3634,885.3426 493.6835,888.1765 491.8086,890.4853 489.8378,892.1334 487.8421,893.1149 485.6667,893.5231 483.2978,893.3106 479.0,891.5185 474.4956,888.121 469.6795,883.1727 464.4884,876.6001 458.6301,867.9594 452.4682,857.7572 445.841,845.7428 438.9849,832.3603 431.8566,817.5471 424.4987,801.336 408.9857,764.4815 393.2994,723.7901 378.9189,683.1288 367.2742,646.9512 357.2637,612.4225 349.2409,580.8002 343.2754,552.2907 340.9931,538.9115 339.1358,525.7893 337.7844,513.3795 336.961,502.0543 336.6199,491.1667 336.7928,481.2314 337.443,472.4672 338.6239,463.9875 341.4365,452.1504 343.3697,446.5849 345.5764,441.5199 348.0353,436.9401 350.9002,432.5888 354.0,428.75 357.438,425.2766 361.093,422.2669 365.266,419.5008 369.6269,417.2181 374.1412,415.3871 379.1345,413.884 384.222,412.8285 389.7629,412.1452 395.8752,411.8377 408.1636,412.3653 421.3121,414.3705 436.0785,418.0903 450.6009,422.9571 466.0366,429.6703 480.5976,437.1795 494.9267,445.9888 513.1837,458.558 516.5625,460.5625 519.4392,461.8139 521.6254,462.3214 523.4254,462.1205 525.216,461.0641 526.8565,458.9782 528.1331,456.2805 529.8468,450.797 531.1673,445.3018 534.1768,426.8807 542.0737,372.8979 548.1156,337.5125 551.7476,319.5606 555.7006,302.3677 559.7699,286.7997 564.0062,272.6462 568.7335,259.267 573.7202,247.388 578.9071,237.1022 583.8607,229.2978 589.0024,223.1375 591.7095,220.6688 594.1498,218.9251 596.708,217.6185 599.2594,216.8477 601.7746,216.6198 604.2325,216.9375 607.6022,218.343 610.75,220.875 613.7363,224.63 616.4131,229.438 618.7374,235.2475 620.5582,241.5578 622.0484,248.9297 623.1402,257.0768 623.7653,265.3738 623.9582,274.0821 623.719,282.7043 622.9988,292.5428 621.8679,302.6821 620.3376,312.8706 618.4864,322.6508 616.2271,332.4969 611.1569,350.4185 604.7555,368.6616 596.6723,388.0411 588.022,405.7195 577.2668,425.1021 564.9476,444.6184 550.3149,465.7605 543.7422,474.3651 538.8494,479.9975 535.8281,482.3125 534.918,482.56 534.1234,482.3953 532.9601,480.5907 532.1155,476.282 531.8426,467.5839 532.1106,458.6234 534.7011,424.5393 538.6451,387.3493 543.7546,350.6902 549.4343,318.3538 555.7388,289.7078 561.471,268.4718 567.4426,249.9429 573.7264,234.2552 577.0056,227.3807 580.3914,221.1492 583.7133,215.8713 587.1686,211.2276 590.6855,207.3358 594.2301,204.2469 597.7686,202.0117 601.0,200.75 604.4631,200.2669 607.8595,200.6926 611.7872,202.4031 615.4836,205.4222 618.6058,209.3394 621.732,214.883 624.5178,221.6214 626.7505,228.9926 628.5161,237.2088 629.7745,246.2928 630.5687,256.334 630.8575,266.4872 630.6559,276.9859 629.9782,287.3145 628.67,298.9733 626.8915,310.7254 624.6715,322.36 622.1028,333.4375 616.4613,352.8546 609.3455,372.7309 601.365,391.3823 592.0451,410.0456 581.3361,429.1021 569.9255,447.5274 556.1375,468.186 533.9293,500.4197 531.0835,504.1181 529.5965,505.3668 528.6111,505.6806 528.0139,505.2778 527.412,504.1524 526.9958,501.1243 526.89,493.325 527.4066,478.9527 529.2165,451.4463 531.17,428.3345 533.9136,401.1158 538.2466,364.4784 543.5232,329.029 549.7357,295.4916 556.2443,267.0596 562.6036,244.7146 569.3974,225.2783 572.991,216.6521 576.5945,208.9948 580.3371,201.9917 584.1888,195.7324 587.9312,190.5447 591.7331,186.1843 595.617,182.6632 599.5466,180.0123 603.4801,178.2668 607.3761,177.4618 611.1929,177.6325 614.9135,178.8086 619.379,181.6069 623.5938,185.8281 627.4706,191.4163 630.7327,197.8745 633.7241,205.9563 636.2795,215.2447 638.3131,225.4571 639.7725,236.443 640.5872,247.6282 640.7936,259.0095 640.45,271.3654 639.5521,283.8928 638.1129,296.4733 636.213,308.6112 633.7007,321.2488 630.7262,333.7574 625.1541,353.0716 618.4607,371.9576 610.1499,391.7348 600.5309,411.4946 591.3506,428.1467 580.5384,445.8472 568.5743,464.1573 546.2645,496.7304 536.2903,512.6388 528.5566,527.0566 525.011,534.844 521.2663,544.1473 520.5139,545.3843 520.125,545.125 519.973,544.113 520.2806,530.6115 522.9883,480.1147 526.7812,427.2656 530.8032,382.6737 535.6716,341.6924 540.3632,308.5329 545.8452,277.28 551.9686,248.6508 558.6522,223.2511 566.1134,200.1297 569.9862,189.8997 573.7719,181.0007 577.7912,172.7041 581.7938,165.4691 586.1497,158.6469 590.4158,152.9572 594.9882,147.9054 599.4032,144.0426 603.8125,141.1974 608.3994,139.2887 612.9983,138.4181 617.218,138.5416 620.001,139.121 622.7486,140.0998 627.7712,143.017 632.578,147.3569 637.2984,153.3256 641.658,160.646 645.6029,169.2104 649.0793,178.9113 651.9259,189.1934 654.2926,200.5767 656.1387,213.0012 657.355,225.619 658.0052,239.037 658.0448,252.3582 657.4935,265.8336 656.3427,279.5108 654.5844,293.7068 652.5047,306.5703 650.0084,319.2046 647.0321,331.914 643.6723,344.2644 639.6619,357.1666 635.207,369.9609 630.4964,382.1531 625.2763,394.4064 619.8659,405.9848 613.8204,417.8556 607.2521,429.8177 600.3424,441.5341 585.577,464.301 566.625,490.625"/>
  </g>
</svg>
