<?xml version="1.0" encoding="utf-8" ?>
<svg xmlns="http://www.w3.org/2000/svg" xmlns:cc="http://creativecommons.org/ns" xmlns:dc="http://purl.org/dc/elements/1.1/" xmlns:ev="http://www.w3.org/2001/xml-events" xmlns:inkscape="http://www.inkscape.org/namespaces/inkscape" xmlns:rdf="http://www.w3.org/1999/02/22-rdf-syntax-ns" xmlns:sodipodi="http://sodipodi.sourceforge.net/DTD/sodipodi-0.dtd" xmlns:xlink="http://www.w3.org/1999/xlink" baseProfile="tiny" height="27.09333333cm" version="1.2" viewBox="0 0 1024.0 1024.0" width="27.09333333cm">
  <metadata>
    <rdf:RDF>
      <cc:Work>
        <dc:format>image/svg+xml</dc:format>
        <dc:source>vpype read './original_svgs/Strange Attractors #140.svg' linemerge linesimplify write './Strange Attractors #140.svg'
</dc:source>
        <dc:date>2024-08-05T01:35:30.309520</dc:date>
      </cc:Work>
    </rdf:RDF>
  </metadata>
  <defs/>
  <g fill="none" id="layer1" inkscape:groupmode="layer" inkscape:label="1" stroke="black" style="display:inline">
    <polyline points="497.875,901.375 521.6651,905.5826 541.6706,908.4694 558.814,910.1651 573.7936,910.7251 586.524,910.1523 597.1395,908.4403 601.9667,907.1064 606.1296,905.5706 610.3152,903.5592 613.8733,901.366 617.3901,898.6079 620.3183,895.6933 623.139,892.119 625.4503,888.3428 627.4298,884.1107 629.053,879.4304 630.3066,874.2969 631.1366,869.0469 631.6158,863.3867 631.733,857.312 630.8362,843.9026 628.4584,829.2835 624.5317,813.0834 618.846,794.7291 611.5254,774.8364 602.7684,753.9573 592.5012,731.9509 581.3909,710.1831 568.8664,687.4917 554.6297,663.3427 539.2596,638.715 525.5504,617.7577 511.2702,596.787 496.3517,575.7181 481.4001,555.4072 460.1244,527.6033 437.5447,499.1948 415.7235,472.6577 382.7871,433.5926 370.9947,419.0162 364.9853,411.0026 360.8671,404.7635 358.6393,400.3081 357.935,396.9959 358.118,395.7605 358.625,394.7812 359.4313,394.0401 360.8225,393.4209 364.7003,393.0718 370.1594,393.7018 377.2171,395.2027 385.8575,397.6257 407.6772,405.2929 427.6822,413.7468 445.375,422.25 459.4082,430.3305 468.8604,436.7802 475.3125,441.7031 477.714,443.271 478.258,443.207 477.9386,441.1483 472.875,422.3449 470.1406,409.2447 468.0224,395.7796 466.2204,378.8557 465.6195,363.998 465.8393,348.1428 466.9892,333.7424 469.0422,319.6995 471.9827,306.9656 475.8876,295.2777 480.39,285.8232 483.1243,281.3899 485.811,277.7599 488.6333,274.6299 491.697,271.9376 494.8835,269.8007 498.1423,268.2482 501.0951,267.3746 504.3287,266.9994 507.6607,267.2227 510.9566,268.0527 514.1574,269.4822 516.875,271.25 519.9679,273.9128 522.923,277.1349 525.4587,280.565 527.7804,284.437 531.7645,293.4412 535.1255,304.4227 537.2905,316.2708 538.5245,329.4278 538.5076,342.1289 537.3389,357.7946 535.1828,372.253 531.809,387.371 527.1034,403.3981 521.6814,417.7568 516.5,428.875 513.0408,434.9675 509.6646,440.1593 506.6792,443.9964 503.6958,447.0201 500.039,449.669 496.544,450.9428 494.375,451.125 492.6267,450.9192 489.2638,449.394 485.838,446.541 482.3605,442.0641 479.0161,436.3183 475.9917,429.2483 472.9268,420.3032 470.4297,411.1151 467.9958,399.6926 466.2084,388.5442 464.8979,376.87 464.1088,365.38 463.85,353.5928 464.1288,341.9559 464.7716,332.6966 465.8521,323.4754 467.4134,314.0516 469.3518,305.138 471.4123,297.7932 473.9785,290.4982 476.9133,283.7669 480.0829,277.8807 483.5556,272.7407 487.3095,268.3664 491.2743,264.8397 495.4455,262.2062 499.5053,260.5869 503.9993,259.7824 508.4579,260.0076 512.5855,261.1953 516.0442,262.904 519.4098,265.2194 522.6187,268.1201 525.3459,271.2472 528.2976,275.4749 531.0181,280.1406 533.49,285.2529 535.5209,290.4051 538.7316,301.9472 540.9622,315.1243 541.9215,328.7288 541.8532,343.6613 540.5294,358.5544 537.8935,375.2785 534.1074,391.3794 529.7162,406.025 523.3616,422.9621 516.378,437.8358 513.5,443.0 510.0773,448.2903 507.1294,452.0984 503.8223,455.5234 499.7996,458.5111 495.9111,459.9317 493.9851,460.0827 492.0508,459.8402 489.98,459.1319 488.2119,458.0923 484.0977,454.3003 480.5902,449.6007 476.8126,442.4745 473.5285,434.5232 469.8751,423.4278 467.5502,414.7108 465.2426,403.1174 462.9455,388.6542 461.5728,375.6129 460.72,361.5223 460.5741,350.3796 460.9652,338.9684 461.8477,327.5175 463.0174,317.8212 464.6654,308.2662 466.7744,299.0602 469.259,290.5797 472.1206,282.897 475.4173,275.8075 479.0639,269.4573 482.9123,264.0713 487.1413,259.4936 491.6603,255.8722 496.0636,253.4204 500.9866,251.8386 505.8052,251.3662 510.6094,251.9188 515.3054,253.5314 518.7852,255.5153 522.584,258.493 526.1336,262.0371 529.2283,265.8633 532.0923,270.1926 534.5,274.625 537.1444,280.4813 539.4802,286.721 541.3646,292.9354 542.8197,299.0431 544.9528,312.9947 545.9879,328.0943 545.7258,343.1422 544.1039,360.2438 540.9954,378.4722 537.167,394.4646 531.4521,412.8704 524.452,430.9902 517.6348,445.3809 514.0991,451.7356 510.5104,457.3367 506.927,462.1537 503.625,465.75 499.3979,468.9786 497.1347,469.9663 494.9589,470.4642 493.063,470.528 490.8085,470.1354 488.5,469.25 486.5703,468.0625 482.8047,464.3281 478.7249,458.5814 474.3356,449.7085 470.6519,440.5302 466.9291,428.3776 463.75,415.8009 461.2054,402.6027 459.1486,388.4765 457.704,373.821 456.8992,358.8036 456.8155,345.6493 457.4139,331.9147 458.4837,320.1307 459.9263,309.7086 461.9316,299.3775 464.3624,289.8005 467.2587,280.7891 470.5029,272.7401 474.2607,265.2494 478.4226,258.6115 482.9299,252.9785 487.6932,248.4832 492.9204,244.9294 497.9887,242.6859 503.1056,241.5781 508.42,241.649 513.7817,242.8808 518.6826,245.069 522.3996,247.4853 526.2322,250.7765 530.0333,254.8722 533.3731,259.2527 536.4622,264.1226 539.2675,269.4486 541.661,274.9523 543.8757,281.1266 547.3367,294.315 549.5817,309.002 550.6743,326.0078 550.3284,342.2493 548.3113,361.5511 544.9156,380.516 540.0609,399.9117 533.3589,420.6888 529.9381,430.0271 525.9015,439.789 521.9058,448.6294 517.8001,456.7726 513.9204,463.8406 510.4094,469.4591 506.86,474.2536 503.0481,478.4473 500.8148,480.3889 498.624,481.8201 496.0769,482.9023 493.8203,483.3555 491.5624,483.2582 488.9055,482.4735 486.7286,481.3365 484.5121,479.5881 479.5,473.7303 475.0,466.2787 470.614,456.6891 466.5484,445.1902 462.7468,432.1572 459.5156,418.0317 456.3025,400.6178 454.2145,384.9466 452.8572,368.9195 452.2432,353.3634 452.3974,337.7569 453.299,322.4159 454.6117,310.4306 456.5118,298.931 459.0849,287.4227 462.125,276.875 465.3952,267.9251 469.3508,259.3054 473.5918,251.875 478.2047,245.3947 483.3355,239.7893 488.5987,235.4831 494.1131,232.3086 499.7937,230.3509 505.738,229.6743 511.859,230.3219 517.8824,232.2838 523.3518,235.3008 527.3936,238.4023 531.3755,242.2537 535.1356,246.6967 538.8498,252.0117 542.0455,257.5224 544.9158,263.4769 547.6342,270.2963 549.9669,277.3479 551.9502,284.6956 553.5672,292.2832 554.8008,300.0539 555.7095,308.4572 556.4672,325.9873 556.2915,334.7175 555.721,343.8391 553.4428,363.763 550.0602,381.72 544.2724,404.3603 537.0489,426.5961 533.0579,437.2482 527.3797,450.9494 518.2039,470.4603 514.2663,477.7407 510.0192,484.6009 506.0395,490.1066 502.2814,494.3877 499.5495,496.7129 497.0138,498.207 494.4911,499.1011 491.6112,499.3568 489.1962,498.9502 486.9333,497.916 484.3146,496.0222 481.7602,493.6255 479.1805,490.4622 476.5496,486.5078 471.0466,476.4071 466.0127,464.2218 461.3668,450.21 456.9997,433.9608 453.5796,418.0383 450.5454,399.5516 448.3018,380.9531 446.9809,362.7932 446.5019,344.6952 446.8701,328.8138 448.0963,312.8397 449.8305,299.2782 452.1606,286.3117 455.0613,274.4019 458.62,263.1329 462.6688,253.0097 467.2154,243.9707 472.3342,235.9838 477.9657,229.1225 484.003,223.5127 490.5567,219.1631 497.0312,216.4411 500.7003,215.5279 504.0265,215.0767 510.6905,215.2424 517.2776,216.8553 523.8577,219.9618 530.3712,224.541 534.8615,228.6905 539.0919,233.487 542.7806,238.5378 546.5427,244.681 550.0758,251.4936 553.0966,258.4103 555.746,265.696 557.9889,273.3023 559.9011,281.6714 561.4689,290.592 562.6252,299.6331 563.3759,308.7527 563.7272,317.9088 563.6808,327.5714 562.4603,347.5239 559.8783,366.2817 554.9238,389.9391 549.2087,410.6248 541.466,433.7575 536.082,447.9912 530.4611,461.7448 524.7673,474.7009 518.3152,488.3581 513.5979,497.6451 509.1944,505.3426 505.2854,511.1611 501.4891,515.6833 498.531,518.3126 495.65,520.005 492.76,520.735 489.75,520.625 487.1806,519.838 484.6111,518.2454 481.4336,515.4411 478.5847,512.0988 475.4633,507.511 471.889,501.4202 465.8421,488.5333 459.9233,472.7387 453.9403,452.9073 449.4739,434.7254 445.4079,413.6063 442.4297,393.9648 440.3291,373.7368 439.1518,353.1818 438.9589,334.0516 439.7234,315.0054 441.4078,297.1392 443.6421,282.4257 446.6941,268.2745 450.5556,254.7731 455.0576,242.496 460.0,231.8285 465.601,222.2998 471.8099,214.0121 478.5481,207.1144 482.2242,204.1342 485.754,201.744 489.2552,199.7921 493.1821,198.0613 497.1708,196.77 501.2031,195.9219 505.2612,195.5205 508.9574,195.5464 513.0144,196.008 516.6798,196.8243 520.7465,198.183 524.5578,199.867 528.6136,202.1073 532.2725,204.5489 539.2792,210.468 543.933,215.4615 548.2777,221.0874 552.4683,227.5746 556.5148,234.9134 560.174,242.7333 563.2782,250.5998 566.0742,259.1613 568.2858,267.6109 570.2596,277.2396 571.7821,286.9657 572.8585,296.7723 573.5041,306.999 573.6711,316.8478 573.371,327.7521 572.6709,338.6047 571.5571,349.5832 568.375,370.0 563.0979,393.6505 557.2503,414.0641 548.2329,440.7331 534.1405,476.6086 513.0548,525.7921 509.1568,533.9442 505.0681,541.4338 501.6614,546.4771 498.5098,549.9774 495.5706,552.1678 492.7551,553.1867 489.8011,553.2082 486.8511,552.1695 483.366,549.7508 480.1994,546.6915 476.7246,542.2234 472.9481,536.4545 469.4971,530.2429 465.4817,522.012 461.6994,513.5617 458.1922,504.7154 450.4841,482.0552 444.1978,459.785 438.8194,436.8796 434.8254,415.7741 431.4307,392.3384 428.9641,368.4162 427.7214,346.3878 427.5181,324.4233 428.3616,303.3983 430.2237,283.7453 432.8097,266.6384 436.2324,250.4187 440.3785,235.5951 445.2006,222.2917 451.0389,209.6698 457.4946,198.6388 464.6589,189.0058 468.4869,184.771 472.3435,181.066 476.4727,177.6637 480.7325,174.7016 485.1051,172.1875 489.5729,170.1296 494.1182,168.5357 498.7231,167.4139 503.3701,166.7721 507.6817,166.6125 512.343,166.9141 516.7946,167.6575 521.5601,168.9361 526.2766,170.6944 530.5947,172.7425 535.1596,175.3801 539.6165,178.4496 543.9452,181.9349 549.8668,187.6028 555.2434,193.7975 560.5287,200.9784 565.6049,209.092 570.0485,217.442 574.18,226.62 577.6485,235.8477 580.6783,245.7179 583.3085,256.3908 585.4663,267.5931 587.0679,278.8929 588.1565,290.6007 588.6876,302.267 588.6817,314.2235 588.1516,326.7233 587.0939,339.3166 584.6678,357.401 581.1482,375.7594 576.4106,395.4763 570.8308,414.7481 565.231,431.6046 558.7897,449.3669 538.0066,501.7565 527.7155,529.3558 522.0964,546.08 517.2888,562.4405 507.6974,601.3737 505.197,610.246 503.3759,615.2448 501.5676,619.1065 499.6927,621.9795 497.6848,623.836 496.0266,624.6224 494.6112,624.8827 492.7106,624.6913 490.7235,624.0052 487.3585,621.6829 482.6569,616.8853 478.1376,611.0251 473.2321,603.4618 468.3021,594.6596 462.4582,583.143 457.6938,572.7645 452.4482,560.2695 446.7448,545.781 441.9505,532.5345 432.3698,502.5836 423.9743,472.1067 417.5126,444.2771 412.1133,416.1064 407.9023,388.0749 404.9086,360.5209 403.1042,333.3205 402.5649,307.7272 403.2859,282.274 405.2554,257.9389 408.2244,236.201 412.1783,216.1625 417.1943,197.5046 423.3669,179.8602 426.8784,171.5036 430.5056,163.829 434.5604,156.2019 438.702,149.2893 443.0909,142.7955 447.5137,137.0132 452.1806,131.6512 457.3527,126.4708 462.4364,122.0614 468.009,117.9188 473.7558,114.3326 479.3238,111.4706 485.3472,109.0107 491.1378,107.2399 497.3562,105.9646 503.2923,105.3402 509.2337,105.2872 515.5163,105.8267 521.7939,106.9589 528.0426,108.6667 534.2383,110.9325 540.3572,113.7389 546.3752,117.0687 552.5917,121.132 559.579,126.5143 566.2982,132.5933 572.7401,139.3713 579.1285,147.1181 585.1195,155.4447 590.6979,164.2896 596.0239,173.9309 600.8734,183.9933 605.0876,194.0442 608.9508,204.7348 612.2808,215.6187 615.2562,227.2677 617.7012,238.9924 619.6884,251.1267 621.188,263.6213 622.1514,276.0427 622.6121,289.0758 622.5109,302.2625 621.8272,316.0591 620.5467,330.2734 618.7564,344.0159 616.3823,357.9973 613.4249,372.1176 609.9012,386.3084 606.2654,399.2341 602.2005,412.2453 597.7268,425.2544 592.8816,438.179 579.6481,470.3317 556.4541,522.9232 551.053,536.3745 546.5408,548.7884 541.7037,564.1492 538.1177,578.7035 535.6651,592.4824 534.2217,606.648 533.7973,618.1792 534.1068,631.0 534.9513,642.0373 536.5,654.125 538.4534,664.9406 541.4043,677.6048 544.3674,688.151 548.2481,700.0742 552.6216,711.5261 558.3252,724.487 564.0135,735.6643 569.704,745.3979 575.7667,753.9065 580.8188,759.5415 583.2751,761.5232 585.5087,762.812 587.3844,763.3533 588.7925,763.0806 589.8908,762.0313 590.61,760.1822 590.8808,757.5102 590.6671,753.9487 588.9018,744.6507 585.4834,733.4267 580.4919,720.5189 574.0332,705.9498 566.3853,690.347 557.5891,673.7791 541.2062,645.277 523.1085,616.4309 498.8385,580.0859 452.9268,514.947 445.0303,502.2171 443.208,498.475 442.6099,496.2012 442.8368,494.8531 444.0,494.375 446.1842,495.0255 448.815,496.454 455.7064,501.8329 464.2264,509.9417 471.626,518.321 477.7825,526.2389 485.0996,537.137 490.337,546.1018 494.9865,555.3449 498.7202,563.6207 503.3442,575.3825 506.7805,585.1561 512.7125,605.5226 526.0717,659.699 532.5132,683.2285 536.2264,695.1867 541.7633,710.9823 550.7512,732.8275 556.3923,744.3411 564.845,759.9062 572.1904,771.5122 578.9244,780.7753 586.2629,788.9908 589.7488,792.3001 593.0663,794.9287 595.8906,796.6562 598.5321,797.7522 600.9278,798.1606 602.9948,797.8063 604.9113,796.3276 606.1703,793.9921 606.9099,790.6483 607.0545,786.8598 606.6079,781.6299 605.6065,775.7176 602.0577,762.1199 596.7666,747.1201 588.781,728.2009 579.4561,708.5335 569.0382,688.5512 557.4248,668.0305 544.155,645.916 530.1949,623.8141 515.6924,601.9676 501.7234,581.8409 486.7685,560.9745 441.1477,499.819 427.4147,480.5896 423.522,474.2567 421.2629,469.4585 420.75,466.625 421.1256,465.6094 421.963,465.0417 423.9558,464.9616 427.1604,465.9124 431.2381,467.9147 436.1719,470.8594 446.3565,478.2436 457.284,487.734 466.6289,497.6024 474.1706,506.7712 481.0285,517.0273 486.7107,527.1727 492.2171,539.1252 495.9618,550.0048 498.5871,559.9399 501.0763,574.2142 501.7817,586.3715 501.1533,598.3236 500.2784,603.078 499.1233,606.9268 497.6679,609.9354 496.0201,611.7933 494.7109,612.6113 493.2445,613.0092 491.5836,612.9557 489.6699,612.3867 485.7251,609.6338 481.8383,605.5631 475.7871,597.2571 471.7959,590.7918 464.8613,577.7261 460.0203,567.4983 450.5459,544.6466 443.0513,523.8971 434.0276,495.4205 427.4475,471.285 421.263,444.4287 416.0092,417.0907 411.9996,390.5832 409.0763,364.3128 407.0382,334.1831 406.644,319.9881 406.6456,305.5973 407.054,291.4765 407.8611,277.7083 409.056,264.363 410.6772,251.1232 412.6283,238.7529 414.9601,226.9118 417.7241,215.3303 420.8056,204.4438 424.2884,193.9218 428.1713,183.8241 432.453,174.2106 436.9642,165.4443 441.8229,157.274 447.1603,149.5756 452.5948,142.8659 458.6127,136.5384 464.9309,130.9618 471.2122,126.3703 478.0235,122.359 484.7163,119.3228 491.5672,117.0909 498.3573,115.7185 505.4988,115.1364 512.6821,115.3951 519.867,116.4718 527.0135,118.3438 534.0817,120.9883 541.3751,124.5717 548.8253,129.1837 555.7068,134.3777 562.4959,140.4731 569.139,147.4355 575.4301,155.0523 581.5525,163.575 587.0402,172.33 592.2697,181.8976 596.8385,191.5294 600.9141,201.4961 604.6954,212.3901 607.8996,223.3696 610.6702,234.8702 612.9738,246.8439 614.7327,258.8558 615.998,271.2127 616.7696,284.5732 616.9439,297.9248 616.5362,311.7745 615.5433,325.6678 613.9835,339.5373 611.8235,353.6642 609.1573,367.5099 605.854,381.8117 602.2154,395.3961 597.9907,409.3428 593.2294,423.5158 587.4839,439.2583 577.2037,465.0457 552.4517,522.7481 547.3087,535.9233 543.1056,547.9475 538.4584,563.6084 534.8381,578.9923 532.5409,594.4304 531.2176,610.1452 531.0085,622.6708 531.4718,633.2806 532.7976,647.125 534.8633,660.625 537.2824,672.8472 540.7034,686.1282 544.3402,698.0363 549.1663,711.6584 553.8654,722.9599 560.4135,736.931 566.7628,748.3573 573.2985,758.6827 579.9206,767.2213 585.2294,772.6467 587.7821,774.5182 590.4285,775.8515 592.604,776.288 594.2456,775.8805 595.5625,774.6562 596.4661,772.5711 596.8679,769.5806 596.7642,766.2403 595.102,756.1903 591.6836,744.2466 586.4018,730.1112 579.4774,714.099 571.4909,697.5716 562.5072,680.6281 543.713,648.0345 523.3482,615.7009 507.9977,592.6775 492.7206,570.5474 444.8467,504.1099 437.4002,492.2122 435.375,488.125 434.5871,485.4306 434.6387,484.3398 435.0368,483.6287 435.7429,483.2858 436.7187,483.2991 440.0604,484.5973 444.6389,487.3056 449.125,490.625 455.982,496.4453 461.0822,501.3002 465.634,506.2025 474.8211,517.22 482.4107,528.2738 488.6157,539.0118 495.7771,553.855 503.0975,573.9347 508.207,593.198 512.0473,612.2568 522.0792,671.1061 525.5767,687.5491 529.7322,703.5173 535.9352,723.0615 540.6403,735.3662 546.1347,748.3255 555.8095,767.8717 563.5751,781.4329 571.8968,794.2404 582.375,808.125 590.1116,816.804 598.6083,824.4435 602.4502,827.2239 605.9012,829.2262 609.2188,830.6094 612.3353,831.2892 615.1835,831.1813 617.4821,830.3266 619.9157,828.0655 621.5781,824.6875 622.4988,820.4091 622.7422,814.9157 622.2334,808.2964 621.0081,800.85 619.0902,792.5547 616.3981,783.1666 609.4069,763.4571 600.0919,741.6701 588.1457,717.0821 574.1948,691.0649 561.311,668.8307 546.554,644.9331 530.2455,619.8765 513.1531,594.8364 495.0787,569.5656 474.1895,541.6563 452.8332,514.0453 422.3979,475.6413 411.8292,461.7852 405.9867,453.6122 402.1058,447.5892 400.0922,443.6114 399.2811,440.6977 399.4337,438.9727 400.4736,437.7746 402.457,437.3565 405.2072,437.6676 408.6138,438.5951 412.9263,440.2353 423.276,445.4179 434.1271,451.8558 443.701,458.654 454.0409,467.0606 462.9789,475.5447 469.9102,483.1855 475.9006,491.1405 480.8296,498.772 484.662,506.4306 487.3594,513.6508 489.0798,521.7191 489.2456,524.8804 489.0242,527.5029 488.4403,529.4793 487.456,530.895 485.8072,531.5888 483.7194,531.0545 481.4792,529.3996 478.5079,526.1862 476.0069,522.7095 473.0635,517.8086 467.4863,506.683 461.0971,490.8637 455.933,475.5529 450.3296,455.8997 445.7245,436.3341 441.8991,416.7164 439.3535,400.4657 437.1948,381.7521 435.6872,362.3726 434.9833,345.4671 434.9932,328.4681 435.7441,311.6522 437.2058,295.6295 439.1889,281.5488 441.8687,267.7395 445.1405,254.7944 449.0692,242.5257 453.3959,231.7149 458.1964,222.0423 463.7685,212.9571 469.6343,205.2685 475.9268,198.7536 482.5052,193.5938 489.4104,189.7411 496.9391,187.0964 504.634,185.9116 512.0064,186.1636 519.4522,187.826 526.8291,190.894 533.0512,194.6189 539.028,199.265 544.9705,205.0701 550.2469,211.4196 555.4388,219.019 560.145,227.28 564.352,236.1381 568.1563,245.8764 571.2415,255.684 573.7585,265.9257 575.8593,277.1107 577.4095,288.7922 578.3216,300.1475 578.6677,311.4844 578.449,323.456 577.7121,335.948 576.594,347.3748 575.0282,358.8693 573.1385,369.6671 570.5811,381.7813 564.4021,405.5802 555.8703,432.1361 550.3863,447.3678 542.418,467.8453 509.1152,550.4609 506.2768,556.6948 502.4078,563.9789 499.5059,567.9668 496.8145,570.5566 493.9759,572.1313 491.4803,572.4955 488.531,571.9429 485.5,570.2812 481.8568,567.1041 478.7751,563.6263 475.2774,558.6406 470.9353,551.5498 463.3277,536.3034 455.7329,518.0718 447.3161,493.8931 441.1335,472.7135 435.0085,447.8157 430.4667,425.8653 426.6317,402.595 423.6379,378.5631 421.7699,355.9955 420.8967,333.6508 421.0242,311.9547 422.1518,290.9758 424.0525,272.8927 426.8061,255.4854 430.3097,239.3394 434.5944,224.2521 439.6132,210.4494 445.3281,197.9395 451.7926,186.5473 458.9481,176.443 466.7362,167.7967 470.5665,164.3124 474.7355,161.0426 479.0359,158.1841 483.4502,155.7413 487.9609,153.7188 492.5505,152.1208 497.2012,150.9518 501.8957,150.2161 506.6163,149.9182 511.3454,150.0623 516.0656,150.653 520.843,151.7119 525.4347,153.1556 530.3053,155.1442 537.6336,159.0465 545.0364,164.1661 552.1158,170.2933 558.5271,177.0521 564.5492,184.68 570.3361,193.381 575.6007,202.716 580.4776,212.9513 584.6225,223.319 588.3014,234.4444 591.3384,245.8751 593.8192,257.9347 595.7026,270.4439 596.9462,282.9608 597.6176,296.17 597.6694,309.6026 597.2564,320.7232 596.4599,331.7875 593.7434,353.8612 589.5831,375.7637 583.5491,399.5224 577.1651,420.2183 568.7654,443.9312 560.7957,464.6592 544.0,506.0 534.6815,531.3297 528.401,551.0681 525.3962,562.2759 523.0926,572.3148 520.738,584.9867 518.78,599.1718 517.9949,608.0893 517.1895,623.0513 516.9682,636.3919 517.366,651.186 518.5465,666.6946 520.1272,680.0371 522.7291,695.6166 526.0608,710.324 530.2306,725.0952 533.734,735.289 539.2303,749.392 546.4075,765.2116 554.2181,780.1108 562.06,793.5964 571.3397,807.5568 579.0969,817.8642 590.0589,830.6079 597.867,838.1961 606.4197,844.7537 610.2804,847.1011 613.8964,848.8082 617.3941,849.8656 620.3362,850.1927 623.0601,849.8816 625.507,848.8736 628.2591,846.3133 630.2193,842.4589 631.3821,837.43 631.7411,830.9545 631.286,824.0342 630.0136,815.873 627.9256,806.6205 625.0662,796.4373 621.4686,785.4695 617.3231,774.2424 612.5735,762.5494 607.0648,750.058 594.0289,723.3767 578.5365,694.7102 563.7203,669.3318 547.9722,644.0427 530.573,617.7423 511.3124,590.0618 490.5982,561.6418 469.3829,533.8188 448.5352,507.5293 409.3376,459.2848 400.1156,447.5554 394.6621,440.0833 390.5743,433.8429 388.0449,429.1272 386.9499,425.7822 387.0077,424.079 387.7161,422.916 389.0035,422.2474 391.2121,422.0331 394.028,422.3858 397.6974,423.3237 406.908,426.6523 416.7372,431.2286 429.8384,438.4459 439.4115,444.4285 450.0182,451.9821 457.7924,458.25 464.4778,464.5084 470.3773,470.9357 475.8238,477.9782 479.8617,484.1852 483.1275,491.1368 484.4043,495.9961 484.4213,498.0324 484.0,499.125 483.4805,499.5762 482.8438,499.6406 480.7465,498.4436 478.9062,496.2812 475.9695,491.8845 472.3181,484.9259 467.5966,473.6227 463.1603,460.6372 459.1219,446.7563 455.4155,431.1104 452.1606,414.6271 449.8584,399.5181 447.8682,382.4604 446.7942,369.4848 446.2231,355.9258 446.1796,340.8245 446.7133,326.0551 447.7941,312.6544 449.497,299.344 451.5353,287.8088 454.0807,276.6912 456.9475,266.9345 460.4685,257.3455 464.4936,248.4644 468.9756,240.432 473.6307,233.7023 478.717,227.8577 484.4317,222.7807 490.1249,219.0505 495.9992,216.4545 502.092,215.0261 508.3606,214.8028 514.606,215.8017 520.7234,218.0078 526.3704,221.2388 531.0189,224.8153 535.4564,229.0643 539.8835,234.2453 543.7687,239.7346 547.3284,245.7562 550.5097,252.1959 553.4672,259.3024 556.174,267.126 558.4698,275.27 560.3441,283.6659 561.7728,292.1299 562.8696,301.2079 563.5618,310.3438 563.8657,319.8704 563.7573,329.3535 563.2439,338.9327 561.22,358.1101 557.9752,376.692 552.3488,400.2211 545.8488,421.5925 537.7558,443.9544 526.8228,470.5186 520.1538,485.018 514.8919,495.6543 510.4502,503.6016 505.4696,511.2684 502.6016,514.8733 499.5675,517.8664 496.835,519.7541 494.1398,520.8825 491.6094,521.25 488.6519,520.77 485.8498,519.514 483.236,517.5907 480.1929,514.4944 477.1516,510.572 473.9213,505.5046 470.6067,499.4732 465.1871,487.3692 458.9194,470.3528 453.7295,452.7723 448.7729,432.3036 445.0363,412.5671 441.977,391.3313 439.9714,370.7942 438.9241,350.3128 438.8254,330.8416 439.7298,312.2057 441.2978,296.6565 443.5661,281.7743 446.3397,268.6076 449.7645,256.3535 454.1438,244.082 459.0597,233.1289 464.5223,223.4196 470.3337,215.3104 476.95,208.161 483.74,202.6688 490.8594,198.6429 494.5409,197.204 498.5635,196.0859 502.2633,195.4527 506.3602,195.1777 510.4646,195.3444 514.184,195.8791 518.2425,196.8889 521.8844,198.1901 529.1957,202.0251 534.845,206.1404 540.2364,211.0848 545.3202,216.7957 550.2723,223.5489 554.5692,230.6364 558.5668,238.5695 562.1481,247.0556 565.3723,256.3166 567.9715,265.5663 570.0603,275.0818 571.7161,285.419 572.8884,296.0546 573.5858,307.0805 573.7775,318.0563 573.484,328.9208 572.665,340.5087 571.4488,351.7335 569.8721,362.6507 567.8265,373.9517 565.4319,384.933 558.9558,409.1452 550.5864,434.6497 544.2762,451.6672 535.9034,472.8382 515.7464,520.3385 509.2378,534.3288 505.4398,541.4722 501.7968,546.9682 497.7667,551.3678 494.8969,553.3033 492.4359,554.0434 489.4407,553.8424 486.2429,552.5896 483.1861,550.3565 479.8425,546.9949 476.6558,542.8904 473.2824,537.6881 469.6322,531.2567 466.1312,524.2174 458.591,506.4134 451.5261,486.1664 445.1271,464.3183 439.8566,442.5868 435.3675,419.9975 431.8846,397.5323 429.2692,374.5541 427.7302,353.7633 427.188,333.4812 427.6118,312.7819 428.9795,292.782 430.9614,276.0673 433.7563,260.0116 437.3254,244.8597 441.6304,230.7912 446.5467,218.1548 452.0597,206.9015 458.4794,196.4281 465.3144,187.5586 472.94,179.8565 476.8108,176.7101 480.8049,173.9544 484.9179,171.5959 489.127,169.643 493.4146,168.1001 497.7633,166.9717 502.1555,166.2621 506.5736,165.9756 511.0,166.1168 515.4172,166.69 519.8077,167.6995 524.1789,169.1507 528.6028,171.0517 532.9557,173.3542 539.9131,177.9728 546.5706,183.5781 552.8609,190.1098 558.472,197.1687 563.942,205.4493 569.0849,214.694 573.6668,224.5136 577.6586,234.825 581.0315,245.5455 583.6734,256.2065 585.9303,268.2941 587.5533,280.4136 588.6014,292.922 589.0418,305.3688 588.8895,318.0516 588.1224,331.3075 586.0004,350.8911 582.7886,369.898 578.0442,390.486 572.1039,411.5852 566.6025,428.4143 558.3524,451.3823 537.0656,504.8394 527.5386,530.4486 521.7662,548.3235 516.8439,565.4037 507.7986,603.3616 504.96,613.725 503.225,618.3819 501.3167,622.286 499.5677,624.7606 497.5598,626.3885 495.9016,627.1206 494.4862,627.3405 492.9832,627.1537 490.875,626.375 487.6094,624.1406 483.0626,619.6193 478.9447,614.3635 473.5226,606.1937 469.4881,599.0663 464.3183,588.9265 459.5782,579.1059 454.6412,567.852 443.565,539.7172 434.4327,512.1979 425.5168,481.2974 418.7431,453.4151 412.7356,424.0182 408.5367,398.6593 405.3392,373.0015 403.0341,345.6518 401.875,318.5527 401.988,293.6072 403.3159,269.2244 405.606,247.6333 408.9567,226.7832 413.1615,207.9125 418.3888,190.1714 424.6827,173.4527 428.2209,165.5569 432.0152,158.0131 435.8811,151.1563 439.975,144.6789 444.294,138.6091 448.8285,132.985 453.6071,127.7927 458.5983,123.0622 463.7821,118.8057 469.1387,115.0357 474.6479,111.7643 480.2898,109.0039 486.0443,106.7668 491.8917,105.0653 497.8117,103.9116 503.432,103.3374 509.4043,103.281 515.2478,103.7678 521.095,104.7728 527.2678,106.3847 533.0593,108.4081 539.1281,111.0637 547.0778,115.3942 555.1302,120.822 562.8862,127.137 570.2819,134.2901 577.2901,142.2585 584.0869,151.2326 590.3899,160.852 596.1789,171.0376 601.4339,181.7107 606.2768,193.1558 610.3844,204.5764 614.0,216.625 617.1383,229.4725 619.701,242.7519 621.6163,256.0277 622.9432,269.6173 623.6621,283.4481 623.7577,297.4367 623.228,311.4374 622.0884,325.8413 620.3732,340.1651 618.0365,354.7226 615.1515,369.062 611.6754,383.4567 607.726,397.693 603.4225,411.628 598.7144,425.4461 593.5081,439.4099 581.9159,467.5016 556.8661,524.1692 551.4803,537.3987 546.9052,549.9305 542.2462,564.5853 538.8824,578.3613 536.213,592.8321 534.6971,607.4202 534.2595,618.109 534.6583,631.7239 535.3961,642.0234 536.8892,653.2555 539.091,665.206 542.5311,679.7298 545.1666,688.8311 549.5037,701.8535 553.6414,712.62 559.0936,724.8652 564.1119,734.428 570.0774,744.4442 575.4148,751.7526 580.6529,757.5283 582.7236,759.1384 584.9255,760.2973 586.5355,760.6457 587.8354,760.339 588.8501,759.2352 589.5053,757.2851 589.7188,754.4474 589.5,751.375 587.7483,742.5202 584.4748,731.7945 579.9565,720.096 573.508,705.503 566.3429,690.761 558.5226,675.9288 542.3249,647.5999 525.5274,620.4148 497.1749,577.8659 454.0442,516.4875 446.8217,504.6935 444.7257,500.326 444.1998,498.2015 444.4825,496.9559 445.7588,496.5635 447.9065,497.3645 450.8999,499.1412 457.3875,504.2706 465.7827,512.4809 472.7097,520.5108 479.2307,529.1156 485.8318,539.1894 491.3697,548.7365 495.9629,557.9474 499.9998,566.9429 503.9199,576.918 507.3145,586.598 514.2895,609.92 526.0745,656.4232 532.3497,678.8104 540.3372,703.1976 545.9213,718.0298 549.9358,727.4639 556.8912,742.0546 563.4633,754.0319 571.0959,766.5872 578.655,776.9802 585.593,784.8556 588.8396,787.832 592.2388,790.4266 595.0374,792.0854 597.4314,792.9409 599.6206,793.0602 601.512,792.3901 603.0126,790.8776 604.0519,788.3979 604.562,784.9375 604.5357,780.7459 603.9579,775.5851 602.8761,769.9386 599.2038,756.7859 593.6233,741.1982 586.5924,724.5355 578.1815,706.9822 567.6736,686.9945 556.0333,666.3591 543.4149,645.3092 529.4353,623.2528 514.2069,600.2927 490.6644,566.6387 441.812,500.6239 430.6312,484.6971 426.7224,478.3345 424.634,473.961 424.1247,472.0983 424.0808,470.711 424.4531,469.7715 425.1926,469.252 427.4169,469.2977 430.7521,470.4741 435.2845,472.8615 440.0405,475.9791 445.9729,480.3573 451.789,485.128 462.6798,495.5577 470.16,504.1517 479.4256,516.8915 485.6291,527.3614 491.2273,538.6224 496.4813,552.2377 500.2181,565.8842 502.6908,578.5778 504.1812,592.2854 504.5873,600.2558 504.5869,608.6677 503.6009,619.7871 502.6733,624.6019 501.3765,628.7326 499.8031,631.8248 498.0216,633.8994 496.4352,634.8223 495.0,635.1406 493.3981,635.0006 491.6465,634.4097 487.568,631.57 483.3383,627.1881 477.2866,618.8821 473.056,612.1119 465.6716,598.6497 460.4479,587.9326 449.4536,562.1637 439.6948,535.9501 430.8053,508.7168 422.7295,479.6842 415.0715,447.4964 409.4418,418.894 404.7708,388.5415 401.3696,357.9365 400.2049,342.6161 399.449,327.3357 399.1027,312.1926 399.1634,297.2729 399.6249,282.6519 400.5071,268.0096 401.7928,253.7905 403.4429,240.4027 405.5083,227.4828 407.9465,215.1582 410.8182,203.1017 414.0179,191.7408 417.6333,180.7551 421.5318,170.5384 425.8276,160.7852 430.4988,151.5983 435.5051,143.095 440.889,135.1948 446.8816,127.6324 452.9564,121.0747 459.3295,115.2278 465.9749,110.1271 472.8665,105.808 479.9783,102.3058 486.9628,99.7529 494.279,97.97 501.8262,97.0158 509.4446,96.9097 517.0928,97.6352 524.7292,99.1756 532.3124,101.5143 540.1542,104.8026 548.5343,109.3458 556.6717,114.8626 564.6914,121.4647 572.6268,129.2157 580.1273,137.7968 587.1565,147.1251 593.6779,157.1177 599.655,167.6918 605.0515,178.7644 609.8034,190.18 614.1395,202.4821 617.9299,215.3704 621.0575,228.4129 623.6049,241.9108 625.5387,255.7871 626.8029,269.5803 627.4362,283.8216 627.433,298.3129 626.8081,312.8494 625.5705,327.3702 623.737,341.8081 621.2675,356.44 618.1854,371.0763 614.3536,386.4475 610.519,399.8653 606.1161,413.6194 601.1729,427.5862 595.422,442.5372 584.2725,469.155 559.0743,525.2171 553.899,537.785 549.2531,550.1869 544.4335,564.854 540.7839,578.6102 538.1786,591.8331 536.5258,605.2781 535.9738,615.2666 536.0072,626.6229 536.4146,636.1217 537.4887,646.3116 539.233,658.047 541.3426,668.4907 544.294,680.273 547.8057,691.8446 552.1636,704.1594 557.7924,717.3625 562.2488,726.5001 567.875,736.375 572.9952,744.0114 577.7669,749.6482 579.6994,751.3064 581.5156,752.3906 583.4053,752.8967 584.625,752.625 585.535,751.5617 586.0953,749.5906 586.2176,747.1713 585.9399,744.072 583.9401,735.322 580.561,724.7482 576.4121,714.097 570.5082,700.9042 563.6351,686.86 555.958,672.3223 540.3307,645.1038 523.532,617.839 501.3298,584.2951 457.9606,521.6314 451.2829,510.6521 449.5,506.875 448.9534,504.6563 449.3513,503.5135 450.5364,503.359 452.5469,504.1863 455.4531,506.0312 460.75,510.5 469.5383,519.5445 475.9377,527.3429 481.9579,535.6002 488.2691,545.6662 493.3435,554.5228 497.2199,562.3467 501.7593,572.5093 509.2611,592.071 516.1272,613.6814 530.8333,665.1489 536.9848,684.5996 545.1641,706.9448 551.6527,722.0497 557.209,733.8908 563.3555,745.2398 569.6548,755.5757 576.4055,765.0667 582.2593,771.9306 587.6553,776.6515 590.0,778.125 592.016,778.944 593.828,779.127 595.382,778.638 596.8302,777.1135 597.6526,774.9111 598.0434,771.7443 597.9278,767.5628 596.3269,758.1166 592.7186,745.8588 587.1447,730.8736 580.1918,714.8348 571.9146,697.8581 561.8005,678.8068 552.6964,662.7081 543.0304,646.4695 519.9635,610.243 494.4059,572.8275 443.6171,502.4901 435.625,490.0 433.8077,486.3562 432.8906,483.3438 432.8792,482.1894 433.1961,481.4269 433.8059,481.04 434.8476,481.0091 438.2619,482.1308 442.7814,484.7 448.8467,489.1544 454.5159,493.8835 465.9944,505.4067 473.375,514.25 482.3118,527.1066 489.5317,539.7573 494.9838,551.2836 498.514,560.2738 501.3443,568.4977 504.6719,579.8594 506.7226,588.2656 509.7052,603.0122 512.2414,617.7749 516.342,647.5419 520.6908,675.4729 523.5985,690.363 527.4492,706.4185 533.363,725.607 538.0986,738.519 544.2044,752.9988 551.6965,768.4344 561.752,786.286 570.0178,799.0257 580.1281,812.8795 590.4824,824.6256 595.5848,829.6582 600.1272,833.5853 604.6825,836.9012 608.8158,839.3165 612.7543,840.983 615.8918,841.7022 619.1065,841.5972 621.6826,840.6504 624.1443,838.5432 626.0166,835.2459 627.1618,830.7771 627.578,824.9109 627.2361,818.3038 626.1182,810.4444 624.2576,801.784 621.7083,792.4766 618.4047,782.2534 614.3099,771.0273 604.3139,747.1533 592.3407,722.2607 578.1718,695.892 563.9974,671.4388 548.7316,646.6279 532.9218,622.3163 516.5081,598.4155 494.3329,567.6367 470.8013,536.3653 454.4295,515.3806 416.3892,467.9644 403.6431,451.5669 398.9623,445.0125 395.7087,439.8629 393.5128,435.5445 392.5462,432.2273 392.6994,430.4969 393.6522,429.3981 395.4842,428.9046 398.0243,429.0333 404.6776,430.8487 415.2701,435.3719 425.5072,440.7546 437.1333,448.0011 446.4122,454.5975 456.362,462.731 463.4618,469.3218 469.7243,476.2411 475.3252,483.2928 479.4958,489.7855 483.1271,496.836 485.739,504.252 486.3008,506.8903 486.4668,509.4592 486.2372,511.3916 485.625,512.75 484.4549,513.5017 482.375,512.875 480.5786,511.3852 478.2211,508.5383 475.9858,505.3759 473.7402,501.4912 467.8116,488.9747 462.5638,474.9582 457.8692,460.3016 453.2861,442.9103 449.5481,425.9585 446.6497,409.2315 444.0659,390.6548 442.5623,375.7148 441.6256,360.4903 441.2434,344.0036 441.5027,328.7291 442.4512,313.5335 444.1079,298.3978 446.1495,285.4225 448.6533,273.4484 451.7448,262.0328 455.4327,251.1981 459.5428,241.4506 464.1525,232.6122 468.9901,225.1388 474.5151,218.2949 480.4351,212.552 486.6763,208.0038 493.1741,204.7399 499.7749,202.8214 506.4874,202.173 513.5734,202.8523 520.1726,204.7745 526.6926,207.9996 532.1432,211.7518 537.3651,216.3313 542.3049,221.6847 546.9093,227.7587 551.125,234.5 555.0893,242.1395 558.6099,250.2706 561.6715,258.8225 564.2591,267.7242 566.3574,276.9049 568.0399,286.7781 569.2583,297.0148 569.9871,307.2896 570.2531,317.9302 570.0486,328.4992 569.3503,339.8875 568.2232,351.0533 566.6402,362.2827 564.7363,372.8172 562.079,385.014 555.9231,408.5546 547.6422,433.6826 542.125,448.7041 534.9212,466.7975 524.6379,490.8989 518.2187,505.0578 512.3634,517.4246 507.86,525.959 503.5587,532.7649 499.8651,537.257 497.3276,539.5057 494.7207,540.9805 491.938,541.6499 489.1115,541.3457 485.75,539.875 482.9028,537.8061 479.6498,534.472 476.471,530.3799 473.3211,525.4632 470.0082,519.4679 466.6587,512.7184 463.4983,505.4746 456.0139,485.3955 450.1186,466.4309 444.8232,446.0831 440.638,426.4894 436.8977,404.4172 434.1588,382.9654 432.4654,362.1091 431.6728,340.7603 431.8165,320.6928 432.9509,301.298 434.7438,285.0182 437.2152,269.7831 440.3253,255.6545 444.2328,242.1118 448.9089,229.3808 454.1581,217.9661 460.0752,207.6615 466.3519,199.0136 473.2622,191.6168 477.0539,188.3229 480.9616,185.4244 488.7471,181.0106 492.9076,179.344 496.7989,178.2026 501.0852,177.3951 505.0746,177.0437 509.0789,177.0658 513.4477,177.51 517.4375,178.2969 521.7565,179.5636 526.0226,181.25 530.2174,183.3497 536.6681,187.5036 543.0451,192.8206 549.0193,199.0064 554.6058,206.0203 559.7574,213.7755 564.6101,222.5486 568.7598,231.6192 572.5864,241.7003 575.7288,251.7865 578.402,262.5233 580.4128,273.0988 581.8954,284.1935 582.871,296.5487 583.2683,309.2223 583.0843,321.7455 582.325,334.4221 581.2933,344.6394 579.7169,356.1527 575.543,378.4683 569.8171,401.2514 562.3138,425.6196 550.9943,456.9767 531.309,506.2315 522.6742,528.8675 505.4895,577.5512 503.254,582.7442 501.1204,586.6019 498.6891,589.7792 496.3611,591.875 493.5309,593.035 490.6991,592.9537 487.3449,591.5422 484.1788,589.1476 480.579,585.1802 475.836,578.8395 471.8116,572.3649 467.4831,564.4793 458.9586,546.3873 450.5493,525.4332 442.0459,499.7977 434.5245,473.5487 428.5393,448.6753 423.3081,422.7905 419.3547,398.2665 416.371,373.6014 414.4206,349.5268 413.5965,326.8171 413.8289,303.9684 415.1612,281.3621 417.2883,261.8305 420.2481,243.787 424.1058,226.6231 428.9149,210.1977 434.3994,195.4267 440.7263,181.8358 447.6029,170.1034 451.5796,164.4098 455.5111,159.4162 459.8756,154.5173 464.1474,150.3069 468.5664,146.5018 473.121,143.1184 477.7995,140.1735 482.5902,137.6837 487.6571,135.602 492.6386,134.0697 497.693,132.9988 502.8012,132.3865 507.9437,132.2303 513.4696,132.5656 518.989,133.4178 524.1135,134.6765 529.5527,136.5183 534.5609,138.6946 542.25,143.0 550.0791,148.6339 557.5812,155.2608 564.9449,163.0826 571.6025,171.4744 577.7574,180.6071 583.3517,190.3975 588.4624,201.057 593.0565,212.5235 596.9873,224.3691 600.3562,236.8689 603.1158,249.9396 605.1709,263.1035 606.5537,276.4336 607.3555,290.948 607.4722,305.2357 607.0945,316.6163 606.3196,327.7828 605.127,339.0657 603.4913,350.5173 601.3112,362.8664 598.7456,375.109 595.7196,387.5776 592.3385,399.8578 585.5399,421.36 577.6201,443.3617 571.5045,458.8091 551.6995,506.6311 542.0524,531.6776 536.501,548.254 531.9979,564.5561 529.8815,574.5343 527.8018,586.4149 526.5732,596.141 525.6162,607.0306 525.317,616.226 525.4436,627.2118 526.8864,647.3695 528.4144,658.945 530.4715,670.9519 534.1838,687.3105 537.1262,697.8607 541.6107,712.0156 546.9894,726.2189 551.5598,737.0254 557.9651,750.1958 564.3672,762.0043 572.039,774.3877 578.2548,783.0164 584.9325,790.9515 590.9139,796.9014 596.7464,801.1341 599.3008,802.3745 601.4831,803.0157 603.5725,803.0805 605.4365,802.4894 607.2361,800.9167 608.5295,798.3315 609.1991,794.8644 609.3031,790.418 608.8495,785.2107 607.7897,778.9927 606.1834,772.229 603.9251,764.5453 597.4841,746.6514 589.2047,727.2391 579.6106,707.3938 567.8292,685.3303 556.8122,666.0019 545.0439,646.4361 533.1681,627.6813 519.8718,607.6858 502.4231,582.3979 484.7359,557.7485 429.3323,484.0566 421.0167,471.2247 418.7034,466.6799 417.6484,463.4301 417.9736,461.5006 419.4706,460.7294 422.3783,461.0984 426.5673,462.715 431.2571,465.1334 436.3774,468.3206 448.978,477.887 458.7888,486.8333 467.9707,496.6406 475.9313,507.0133 482.6654,517.4892 488.501,528.8464 493.0195,540.1523 496.0926,550.2476 498.4297,562.3016 499.45,575.0204 498.7639,584.5403 498.001,588.0764 496.7189,591.8834 495.5,593.875 493.4724,595.7349 491.066,596.3867 488.5028,595.7512 484.8066,593.3352 481.4181,589.9604 477.4516,584.8852 474.2181,579.9525 465.3461,563.6254 456.2919,543.2468 448.4842,522.9385 439.5888,495.6878 433.0945,472.4217 427.3766,448.3151 422.3264,423.2729 418.5143,399.7367 415.5617,375.7818 413.5486,352.0171 412.5511,328.9659 412.564,306.5196 413.5952,284.638 415.4225,265.4772 418.032,247.721 421.5717,230.4012 425.9429,214.1092 431.0945,199.0098 436.9752,185.2401 443.4328,173.1075 450.695,162.1735 458.9174,152.3281 463.143,148.1196 467.5095,144.3021 472.0056,140.8919 476.6203,137.9054 481.3422,135.3589 485.9533,133.3479 490.571,131.7775 495.6215,130.5315 500.7337,129.744 505.8885,129.4119 511.0667,129.532 516.2492,130.1011 521.4169,131.116 526.5506,132.5735 533.7875,135.4171 540.8601,139.1481 547.9037,143.8653 554.7519,149.4318 561.3185,155.7577 567.805,163.0758 573.8965,171.0795 579.5468,179.6995 584.5209,188.5048 589.1773,198.1297 593.4803,208.4999 597.3693,219.5319 600.5934,230.4539 603.3675,241.9316 605.5749,253.5406 607.2157,265.2167 608.4003,278.3627 608.9956,292.0934 608.9704,305.9797 608.3303,319.9514 607.089,333.9296 605.2515,347.9442 602.719,362.7493 599.5881,377.6412 596.338,390.7454 592.5959,403.9165 588.0397,418.1425 582.8123,433.1075 572.5036,459.8087 549.1154,516.0284 542.2702,534.2038 537.5185,548.4982 532.7123,565.9046 528.9805,584.8212 527.1968,599.6941 526.3926,615.9653 526.6185,630.7406 527.5604,643.311 529.2886,657.2632 532.131,673.3908 536.1924,689.9746 539.6679,701.6156 544.6353,716.1462 550.8538,731.4391 556.5664,743.8677 564.841,759.5147 571.6327,770.2934 579.6086,781.37 586.763,789.3932 590.5,792.875 593.5511,795.2344 596.4829,796.9354 599.213,797.912 601.6591,798.0986 603.5883,797.501 605.1966,795.9464 606.3473,793.3595 606.9508,789.6853 606.9557,785.4621 606.397,780.2586 605.2409,773.9854 601.4178,759.9073 595.9926,744.8002 588.3374,726.9026 578.9057,707.1872 568.4084,687.167 557.3113,667.631 543.2565,644.3662 528.8675,621.7227 513.9654,599.3621 484.4427,557.6561 441.5212,500.343 427.1077,480.1778 423.3526,473.9505 421.3507,469.4605 420.8641,466.4222 421.2254,465.4885 421.9724,464.9855 424.1094,464.9219 427.5689,466.0081 431.2356,467.8633 436.3781,470.994 446.375,478.25 458.0983,488.4716 466.6604,497.5691 474.3864,507.1249 481.6461,518.0029 487.0574,527.5863 492.4283,539.7458 496.6014,552.387 499.1098,562.1591 501.1698,575.1818 501.7968,587.1342 501.174,598.4979 500.145,603.672 499.1684,606.9002 497.6615,609.8762 495.9424,611.8437 494.3985,612.7359 492.9866,613.0111 489.641,612.2963 485.9865,609.8007 481.5518,605.336 476.6789,598.592 471.764,590.7398 466.0106,579.9809 460.416,568.4922 451.5994,547.4787 443.8491,526.6043 435.3564,500.0201 428.241,474.6978 422.0974,448.6202 416.5713,420.6311 412.7287,396.2952 409.7986,371.534 407.4339,340.3568 406.8529,326.107 406.6678,312.2438 406.8781,298.2255 407.4844,284.5156 408.4741,271.1927 409.8783,257.9462 411.6579,245.2174 413.7594,233.2359 416.2369,221.6771 419.1359,210.3792 422.4551,199.4127 426.0572,189.2051 430.0486,179.4357 434.428,170.1681 439.1942,161.4657 444.1554,153.669 449.3743,146.6313 455.0957,140.045 461.1322,134.163 467.4486,129.0159 474.0098,124.6343 480.454,121.2011 487.0581,118.5163 493.7916,116.6066 500.6242,115.4982 507.6203,115.2007 514.681,115.7 522.096,117.061 529.1174,119.1327 536.4025,122.0992 544.2248,126.2506 551.4991,131.0763 558.5158,136.7098 565.3405,143.2414 571.9821,150.6769 578.4423,159.0608 584.4525,168.0673 589.9883,177.6234 595.0253,187.6557 599.5392,198.0913 603.5055,208.8569 606.9371,219.9531 609.9805,231.8397 612.4482,243.8358 614.4124,256.259 615.8436,269.0468 616.7311,282.4959 617.0024,295.7694 616.6515,310.2093 615.6991,324.3385 614.1597,338.4244 612.0583,352.4074 609.3569,366.5703 605.98,381.2415 602.5083,394.4368 598.7092,407.3351 594.4891,420.2518 589.8659,433.1106 577.772,463.549 553.1505,521.0689 547.3519,536.0523 542.4951,550.0294 538.1299,565.0742 534.4605,581.2326 532.3682,595.5709 531.1549,610.824 530.9888,622.6129 531.448,632.9038 532.9175,648.2451 534.7184,659.7862 537.6369,673.8966 541.875,689.875 545.1467,700.2863 550.1773,714.2613 555.0821,725.8255 561.6463,739.3637 567.6437,749.8844 574.1201,759.7844 580.2273,767.5312 585.7417,772.9699 588.4884,774.868 590.6914,775.8887 592.6253,776.2544 594.347,775.824 595.7328,774.4069 596.5472,772.3624 596.9346,769.5139 596.8378,766.0419 595.0907,755.9744 591.5565,743.8682 586.4288,730.2732 579.3326,713.9911 571.1236,697.0199 562.0,679.75 543.2035,647.1344 523.0962,615.1135 508.2031,592.8635 493.0976,571.0408 444.6135,503.7222 437.4542,492.3107 435.3011,487.9638 434.4919,485.3414 434.8325,483.72 435.5451,483.2852 436.5794,483.237 439.6343,484.3208 444.1761,486.9338 448.7658,490.2365 454.4028,495.0102 459.9423,500.1663 464.5789,504.985 474.0704,516.317 481.5685,527.01 488.8457,539.1982 494.9922,551.9774 498.4951,560.7706 502.8126,573.2067 505.3925,582.0268 508.1825,593.1328 512.4223,614.0068 518.9233,653.8672 522.2513,671.7385 526.2322,689.9468 529.9762,703.9854 535.875,722.625 540.5828,735.1655 547.0168,750.1879 555.7324,767.7395 563.4864,781.1804 572.7754,795.3936 581.7375,807.2182 590.1921,816.7223 598.6443,824.3379 602.5,827.125 606.0744,829.2033 609.5277,830.6141 612.4228,831.2247 615.088,831.1547 617.4601,830.3318 619.7714,828.2847 621.4808,824.8909 622.4229,820.4558 622.6437,814.7139 622.1231,808.1944 620.8737,800.6709 618.9536,792.4093 616.2716,783.0515 609.2924,763.281 599.9157,741.2611 588.0633,716.8846 574.0108,690.6943 560.9234,668.0853 546.8161,645.1962 530.6267,620.3226 513.4281,595.1428 495.026,569.404 475.5766,543.4203 412.3729,462.5729 406.7111,454.6493 402.7035,448.4465 400.3754,444.0762 399.3705,440.8014 399.4576,439.1923 400.3378,437.9847 401.9511,437.484 404.1373,437.5926 407.3663,438.3214 411.1675,439.6172 420.3296,443.897 431.6846,450.4834 441.5677,457.1481 453.1623,466.2734 462.2322,474.7548 468.8515,481.9919 474.25,488.875 480.244,497.866 483.9586,505.0618 487.262,513.592 489.072,521.896 489.2659,524.6126 489.0278,527.5926 488.4238,529.7119 487.4459,531.0578 485.734,531.749 483.5287,531.1626 481.2047,529.3999 478.125,526.0 473.5193,518.8821 467.0864,506.1285 460.875,490.625 455.9022,475.8411 450.2484,455.9171 445.9578,437.7347 442.2833,418.8704 439.2866,400.0933 437.1558,381.9552 435.6673,363.2261 434.9101,346.1113 434.9158,329.5698 435.7012,312.4098 437.2313,295.659 439.1829,281.4048 441.7726,267.8604 445.0595,254.7969 448.9129,242.7355 453.2684,231.7766 457.9535,222.2394 463.4763,213.1964 469.3038,205.5453 475.5703,199.0254 482.2087,193.7429 489.3466,189.6995 496.5296,187.1158 504.2385,185.8341 511.6306,185.9938 518.9656,187.5168 526.5301,190.5832 532.6554,194.1872 538.8357,198.923 544.6944,204.5694 550.1666,211.0616 555.0674,218.1418 559.8971,226.5539 564.21,235.5951 567.9804,245.1724 571.0744,254.8151 573.705,265.1751 575.7958,276.108 577.3335,287.4259 578.3099,299.1642 578.6972,310.8797 578.5291,322.5047 577.7936,335.0862 576.6707,346.6278 575.1691,357.8597 573.2595,369.1247 570.8868,380.682 568.0447,392.6067 564.7745,404.6774 556.6531,430.2679 545.1702,461.2531 508.6257,551.9004 505.9353,557.7673 502.1528,564.6991 499.5031,568.3189 496.6772,571.0717 494.1685,572.3975 491.2693,572.7608 488.215,572.0152 485.0247,570.1462 481.5557,566.9761 477.983,562.7872 474.2203,557.4017 470.4562,551.1422 462.9825,535.9901 455.0317,516.6013 446.7766,492.5661 440.5155,471.0256 434.9279,448.2041 430.1807,425.0298 426.3768,401.6788 423.4903,378.1957 421.6053,355.4629 420.7164,333.2652 420.8263,311.7165 421.959,290.7873 423.8855,272.6045 426.611,255.4431 430.1447,239.1523 434.4609,223.9357 439.3844,210.3261 445.2326,197.4938 451.6779,186.1518 458.8177,176.0848 466.5897,167.4699 470.5668,163.8684 474.6842,160.6594 479.0217,157.7965 483.4724,155.3572 488.0197,153.3456 492.647,151.7653 497.3376,150.6203 502.0748,149.9144 506.842,149.6515 511.6225,149.8353 516.3997,150.4698 520.792,151.4588 525.4783,152.9479 530.2745,154.9209 537.7949,158.9509 545.0669,164.001 552.0224,170.0087 558.5933,176.9116 564.7114,184.6472 570.3611,193.1886 575.7507,202.7773 580.5888,212.9383 584.8457,223.5757 588.4917,234.5938 591.4969,245.8967 593.8368,257.3197 595.7557,269.89 597.0795,282.8497 597.7838,296.1316 597.8553,309.2832 597.4605,320.0307 596.6465,331.1457 595.426,342.5084 593.811,353.9221 589.4448,376.7436 583.515,400.0477 577.0168,421.0516 568.855,444.043 560.607,465.3951 542.2317,510.8105 536.2656,526.8799 529.2246,548.4432 525.5898,561.6949 523.5067,570.7845 520.7578,585.6209 518.78,601.0468 517.2079,624.5421 517.1742,638.6323 517.8804,654.6406 518.8638,667.9102 520.7458,682.156 523.3676,697.2406 526.8065,711.8417 530.4225,724.1079 534.6986,736.649 540.1634,750.6438 546.3696,763.9414 553.7192,778.221 562.0576,792.5208 570.7039,805.448 579.9629,817.9512 588.7679,828.119 597.9533,837.2221 605.9096,843.3966 609.979,845.8385 613.6155,847.5398 616.864,848.5668 619.5185,848.9171 622.3552,848.6578 624.6093,847.8006 627.3578,845.4586 629.3257,841.9325 630.5629,837.1485 631.0342,831.237 630.7373,824.3435 629.615,816.1553 627.8312,807.6914 625.1815,797.9175 621.689,787.0384 617.5671,775.6815 612.6355,763.3627 607.2184,750.8981 594.7528,725.007 579.7189,697.0895 564.5646,671.0951 547.9948,644.4039 530.8035,618.2527 512.3081,591.6064 490.8762,562.1467 468.3015,532.4767 399.6945,446.8084 391.3367,434.7959 388.9242,430.3125 387.8121,427.0494 387.7689,425.2559 388.353,424.0994 389.6078,423.3528 391.434,423.0694 394.1758,423.2687 397.4501,423.9759 405.2613,426.6954 416.3344,431.7579 428.59,438.419 439.672,445.2387 448.8713,451.8686 456.5819,458.0324 462.5344,463.4062 469.9016,471.2371 475.1116,477.7061 479.9901,485.2564 482.9985,491.7964 484.5696,497.0358 484.631,499.763 484.253,501.109 483.6421,501.6166 483.1224,501.6564 481.403,500.732 479.3032,498.7776 477.1281,495.7687 472.6111,487.8472 467.2934,475.204 463.0182,462.6841 458.0897,445.8247 454.8352,432.1123 451.6902,416.0406 449.3459,401.3125 447.4974,386.1683 446.201,371.0322 445.5049,356.3456 445.3833,341.5687 445.845,326.9404 446.838,313.4308 448.4444,300.4063 450.5395,288.3903 453.0992,277.1153 456.1136,266.5429 459.4426,257.2657 463.4392,248.2512 467.9088,240.0324 472.7838,232.7447 478.0306,226.5058 483.4534,221.5433 489.495,217.4593 495.4221,214.7463 501.4526,213.2189 507.8621,212.9045 514.3217,213.8643 520.6799,216.0802 526.4917,219.3049 531.2635,222.9379 536.0163,227.4904 540.5074,232.7234 544.4766,238.2691 548.1262,244.3492 551.415,250.9267 554.3565,258.0605 557.0022,265.7566 559.256,273.7382 561.1882,282.3367 562.6258,290.755 563.6931,299.6715 564.4332,309.6548 564.7408,319.6027 564.6309,329.4853 564.0907,339.6471 561.8703,359.7259 558.3865,379.2952 553.1178,400.5823 546.6136,421.6664 536.9305,448.4635 524.7967,477.3142 519.0183,489.6986 513.7982,499.9123 508.3913,509.3838 504.3578,515.3685 501.5,518.75 498.4422,521.5249 495.6586,523.2248 492.9,524.128 490.3729,524.1218 487.391,523.1809 484.8197,521.7061 482.0224,519.3423 478.5587,515.5167 475.8996,511.851 473.0281,507.0629 469.625,500.5 463.5825,486.5374 457.5067,469.3753 452.2358,451.0745 447.4766,430.7625 443.6333,409.7918 440.5335,387.6983 438.7464,368.4108 437.838,348.5139 437.8183,328.5717 438.7619,310.2167 440.347,294.9812 442.6829,280.0215 445.6755,266.0542 449.2787,253.3243 453.6085,241.3365 458.4675,230.6296 463.9443,221.03 469.8534,212.8911 476.3749,205.9046 483.34,200.2777 490.6348,196.1315 494.3703,194.6517 498.1545,193.58 501.805,192.9261 505.8536,192.6162 509.9169,192.7319 513.974,193.27 518.0042,194.2272 521.9866,195.6003 529.3817,199.3644 535.122,203.484 540.6354,208.4792 545.8441,214.2618 550.9158,221.088 555.3337,228.2644 559.2084,235.8497 562.9275,244.5706 566.2941,254.0829 569.0385,263.5956 571.2748,273.37 572.9835,283.3226 574.1916,293.631 574.9364,304.6912 575.1587,315.7115 574.8875,327.0074 574.0899,338.901 572.912,349.9632 571.3852,360.7073 569.4056,371.8661 567.0356,383.0133 560.5281,407.8716 552.6285,432.2926 545.4827,451.7327 535.1349,477.941 513.2983,529.5866 508.764,539.412 504.3252,547.6729 501.0598,552.6339 497.7731,556.1898 495.0044,558.0251 492.4059,558.8066 488.9531,558.556 486.2451,557.367 483.0231,554.9155 479.5141,551.3656 476.2525,547.0325 472.3441,540.8641 469.0156,534.812 465.1862,526.926 457.5733,509.0131 450.3105,487.8502 443.8497,465.7263 438.4865,443.7425 434.0266,421.4934 430.4113,398.4752 427.731,375.3447 426.1823,354.3128 425.572,332.8101 425.9294,311.6382 427.2152,291.5285 429.2119,274.5821 432.0265,258.3215 435.7104,242.6134 440.047,228.3829 445.0751,215.4191 450.92,203.4413 457.2975,192.9629 464.3096,183.7787 471.8927,176.0619 479.6621,170.1745 483.7279,167.7933 488.2332,165.6535 492.4687,164.0876 497.1228,162.8386 501.8265,162.0589 506.1961,161.7593 510.9421,161.8936 515.3183,162.4447 519.8174,163.4452 524.4258,164.9197 528.6605,166.6771 533.156,168.9735 540.0418,173.3936 546.9407,179.0197 553.18,185.3027 558.9968,192.4084 564.8607,201.027 570.1526,210.287 574.8852,220.1533 579.1589,230.8975 582.6566,241.7064 585.4812,252.739 587.8541,264.7774 589.6391,277.2884 590.7827,289.8202 591.3231,302.6708 591.25,315.375 590.5576,328.8286 588.6676,347.2036 585.7406,365.5152 581.5706,384.9162 576.3919,404.4022 570.868,422.0662 563.2867,443.5907 556.5677,461.1904 537.4843,508.9073 530.8096,527.0833 525.8912,541.4897 520.8281,558.5781 517.0412,573.9343 513.1972,592.8491 507.8565,623.3628 505.9344,632.0007 504.0509,637.9729 502.4106,641.7923 500.5968,644.4351 498.2324,646.2383 495.7112,646.7072 492.9946,646.0388 489.0,643.375 485.9568,640.4318 480.7567,634.0225 477.742,629.6987 473.0211,621.8797 467.6918,612.2277 456.4785,589.1133 448.5257,570.2594 437.7081,541.1876 428.6309,513.3609 420.8447,486.159 414.57,461.1553 408.8154,434.3579 403.9458,407.2975 400.2952,382.3124 397.618,357.411 395.9103,332.6727 395.1677,308.0258 395.3408,286.2829 396.3432,265.8424 398.2599,245.4405 401.0146,226.0612 404.6261,207.5047 409.0815,189.9336 414.3149,173.6358 420.2114,158.9051 427.1401,144.8138 434.9059,131.9228 443.2282,120.6708 447.6538,115.5763 452.2479,110.8609 457.0043,106.5434 461.6547,102.837 466.4521,99.5129 471.4811,96.5327 476.6329,93.968 481.8919,91.82 487.2428,90.09 492.6702,88.7792 498.1586,87.8887 503.6925,87.4198 509.2565,87.3737 514.8353,87.7516 520.4133,88.5547 525.9752,89.7843 531.5055,91.4414 536.625,93.375 542.2013,95.9176 547.7005,98.8641 558.4192,105.9057 568.6838,114.3735 578.6581,124.43 587.9443,135.7228 596.2188,147.7668 603.8357,161.0609 610.668,175.3324 616.8173,190.8756 621.9416,206.8673 626.1296,223.52 629.2601,240.3039 631.3369,256.8459 632.5625,273.8407 632.9157,290.8942 632.3901,308.2841 631.0328,325.1471 628.875,341.75 625.6331,360.0094 621.6146,377.9834 617.574,393.1346 612.876,408.4532 607.4163,424.2092 601.3715,439.9905 588.9046,469.1179 561.9334,527.5222 556.0889,541.2761 551.2745,553.6524 546.8788,566.9622 542.7785,582.0002 540.4444,593.6114 538.7025,606.4823 538.1459,615.6398 538.1135,626.8754 538.4444,635.3889 539.2604,644.4929 540.44,653.5377 542.0214,662.1512 544.7441,673.9982 547.3281,683.2656 551.1419,694.8727 554.7646,704.3798 559.4779,715.2303 563.7721,723.5673 568.8943,732.1472 573.0548,737.635 575.5,740.125 577.2168,741.3848 578.7344,741.9531 579.9473,741.7949 580.75,740.875 581.1152,739.247 580.7361,733.4764 579.0005,726.3419 575.6052,716.2759 571.5235,706.1089 566.7705,695.6629 559.648,681.1808 552.1916,667.0249 538.8281,643.7363 523.145,618.0464 501.994,585.807 475.695,547.53 463.8033,529.6287 457.672,519.325 455.9485,515.6583 455.4707,513.6191 455.8594,512.8281 457.1939,512.8247 461.4253,515.5693 466.75,520.5 473.9389,528.4428 478.853,534.7939 485.5403,544.3965 495.5954,561.58 498.8876,568.0825 504.5128,580.4872 511.6281,598.5579 520.1879,623.6901 531.1837,658.498 537.2459,676.4775 545.6406,698.9305 552.8608,715.3713 557.983,725.7858 564.2135,736.9918 568.9996,744.6003 574.1699,751.7978 578.3314,756.691 582.3816,760.1855 585.6135,761.8846 586.9982,762.0208 588.2079,761.6205 589.3794,760.3185 589.9681,758.5976 590.1932,755.9231 589.9943,752.5956 588.3216,743.9742 585.1565,733.7797 579.9028,720.0342 573.4047,705.1816 566.3648,690.7565 557.2671,673.5662 541.5008,646.0633 522.9697,616.3789 500.1308,582.0872 454.244,516.8068 445.6518,503.1075 443.9614,499.4809 443.435,496.8126 443.8546,495.7885 445.138,495.5673 447.2344,496.2969 449.5215,497.6113 457.4412,503.915 464.458,510.6846 472.0815,519.3103 477.7744,526.68 485.3705,538.1051 491.2632,548.4041 498.5388,563.4821 503.1094,574.7656 506.1621,583.3073 512.2608,603.037 528.5939,667.3094 534.4465,687.4429 542.6697,711.3874 551.5546,732.5112 557.6852,745.088 564.8805,758.2285 572.3174,769.8385 579.5648,779.6852 586.298,787.1987 592.4258,792.4551 595.3368,794.1636 598.0359,795.1572 600.1591,795.3947 602.1521,794.9226 603.8846,793.4107 605.0065,791.1153 605.6536,787.8681 605.748,783.6152 605.2513,778.5147 604.1574,772.4313 600.4769,758.7915 595.0974,743.7969 587.6129,726.2593 578.406,706.9697 567.9555,686.9867 556.7981,667.2596 543.9475,645.8491 530.235,624.1429 516.0092,602.7018 485.3505,559.1909 441.4712,500.105 428.9656,482.5667 425.2438,476.4163 423.1898,471.9537 422.606,468.761 422.9023,467.9082 423.6691,467.3333 425.9468,467.2963 429.1602,468.3652 433.5741,470.6577 438.5834,473.7438 447.5222,480.4476 458.685,490.409 467.5585,500.005 475.1181,509.4583 482.5416,520.7443 487.7174,530.2912 493.5096,543.3573 497.364,555.092 500.2849,566.8735 502.375,580.125 503.2464,592.8951 503.1547,601.0749 502.6372,607.1235 501.7983,612.4344 500.3942,617.3397 499.058,620.3298 497.2804,622.5381 496.1082,623.3378 494.4734,623.9114 493.098,623.9304 491.1759,623.4293 487.7269,621.5046 483.5498,617.3853 479.0509,611.6772 473.3422,602.8685 468.885,595.0832 463.9901,585.5505 455.6328,567.2564 446.0125,542.9521 439.0307,523.1857 432.0901,501.0209 425.7355,478.3155 420.2203,455.4948 415.1168,430.8227 410.7106,405.5963 408.3615,389.2571 406.4026,372.6511 404.8597,355.8918 403.774,339.4775 403.1184,323.1208 402.9185,307.7004 403.1768,292.872 403.9008,277.9694 405.0769,263.4642 406.7397,249.0588 408.8473,235.2084 411.3803,221.9734 414.301,209.4807 417.5376,197.9695 421.3653,186.4743 425.5207,175.8314 430.2819,165.3799 435.3235,155.8866 440.7889,147.0613 446.4604,139.2381 452.4828,132.194 458.9812,125.8329 465.4965,120.5418 472.607,115.8403 479.9656,112.0239 487.5284,109.1172 495.2516,107.1445 503.091,106.1302 511.0027,106.0989 518.6773,107.0182 526.4716,108.8784 534.5139,111.7664 542.7429,115.7548 551.0844,120.9091 558.842,126.7798 566.579,133.7807 573.6454,141.3202 580.5745,149.9691 586.98,159.2603 592.8723,169.1397 598.4019,179.8717 603.3552,191.0612 607.8438,202.9883 611.6871,215.216 614.8757,227.6711 617.5992,241.0517 619.6678,254.433 621.1415,268.1395 621.9963,282.1035 622.2145,295.8782 621.8102,309.7594 620.7592,324.0325 619.0673,338.6922 616.7951,353.187 613.8313,368.1772 610.2639,383.162 606.4946,396.8832 602.253,410.6837 597.5872,424.423 592.4274,438.3341 581.4291,465.1924 556.5252,522.1956 551.1241,535.6081 546.6403,547.9847 541.4753,564.2976 538.0029,578.0847 535.4391,592.2566 533.9785,606.5613 533.5413,617.9184 533.7668,629.6235 534.6175,640.9601 536.2052,652.9996 538.4988,665.703 541.6864,679.4869 544.4166,688.9561 548.8747,702.3242 553.0296,713.0688 558.7828,726.0767 564.2809,736.6394 570.4493,747.152 576.0667,754.898 581.2709,760.5862 583.5147,762.3917 585.857,763.7451 587.625,764.25 589.1881,763.9695 590.3884,762.7403 591.0366,760.9614 591.3008,758.4709 591.1284,755.2157 589.375,745.6719 586.105,734.7726 580.988,721.5577 574.3393,706.4816 566.9698,691.3703 558.6611,675.7211 541.5483,645.8726 523.191,616.4124 497.8784,578.5725 452.4868,514.3679 444.556,501.5972 442.6459,497.8006 441.9797,495.2862 442.3519,493.8843 443.5535,493.5625 445.8418,494.3646 449.122,496.199 455.8079,501.3947 464.164,509.3968 471.8351,518.1767 478.1511,526.3867 485.0832,536.9619 490.6572,546.6353 495.179,555.6256 498.9329,563.9727 503.2556,574.9597 506.4985,584.2547 512.57,605.1708 524.5659,655.1678 532.0421,683.1705 536.0923,696.1926 541.1343,710.7538 550.4015,733.1705 556.6852,746.125 564.22,760.0342 572.6141,773.2719 579.653,782.869 587.5437,791.6803 590.5891,794.5395 593.6963,796.9434 597.0167,798.8784 599.7908,799.8792 602.3288,800.0963 604.1926,799.5301 605.9436,797.9455 607.1885,795.2882 607.7793,792.0234 607.8169,787.4922 607.2234,781.7805 606.0888,775.5658 602.1481,761.0793 596.3334,745.0869 588.262,726.2653 578.7373,706.4884 567.7835,685.812 557.1394,667.1507 545.3136,647.4809 532.9577,627.8787 520.128,608.4207 502.2527,582.502 483.7684,556.6444 429.4909,483.9345 422.7656,473.4273 420.778,469.4122 419.7506,466.3235 419.8442,464.1958 420.3576,463.6349 421.457,463.2928 424.3445,463.7218 428.1005,465.2671 433.6529,468.2528 439.127,471.7673 451.992,481.952 460.125,489.625 470.5941,501.3712 478.4766,512.2108 484.8131,522.5896 490.914,535.432 495.1131,547.1703 497.9102,557.3232 500.1614,570.5992 500.7961,582.5602 500.5918,588.5317 500.0707,593.423 498.9325,598.4907 497.8038,601.6413 496.3329,603.9833 494.3776,605.5758 493.0984,606.0827 491.723,606.1571 488.2444,604.9996 485.3121,602.9212 481.7026,599.2452 478.2578,594.8769 473.9175,588.2606 469.9521,581.576 465.8154,573.6054 456.32,552.8143 447.1603,529.0402 438.979,504.5 431.1898,477.14 425.0843,452.2353 420.0088,427.748 415.7724,402.7028 412.625,378.5885 410.4432,354.4596 409.2557,330.5678 409.0839,306.8886 409.9418,284.9757 411.7052,265.048 414.3918,245.7426 417.988,227.2928 422.375,210.25 427.4968,194.8167 433.405,180.707 440.1647,167.7013 447.5134,156.2759 451.5647,150.9402 455.7957,145.9957 459.9635,141.6934 464.4089,137.6736 468.8584,134.1805 473.7719,130.8761 478.4786,128.2068 483.6336,125.7979 488.8869,123.8625 494.2203,122.4075 499.6157,121.4398 504.6914,120.9824 510.1552,120.9766 515.2631,121.429 520.3322,122.3222 525.6314,123.7221 533.5001,126.6585 541.5419,130.7354 549.0565,135.5733 556.6101,141.5188 563.8228,148.3314 570.3685,155.6331 576.5426,163.7042 582.5129,172.7973 588.158,182.7932 593.2553,193.3091 597.7897,204.2544 601.8639,215.9071 605.2079,227.4458 608.0258,239.5355 610.3147,252.171 612.0463,265.1944 613.1951,278.542 613.7392,292.1388 613.6609,305.8976 612.9702,319.4084 611.571,334.266 609.578,348.998 606.9434,363.9021 603.7507,378.5078 600.4312,391.3696 596.1995,405.8523 591.6598,419.8417 586.6158,434.0166 575.0912,463.1962 549.8874,523.0963 545.219,535.2948 541.1233,547.3203 536.3908,563.6395 532.4962,581.4841 530.4094,595.9719 529.3437,610.6778 529.3904,626.1504 529.8769,635.3466 531.3995,650.5508 533.4259,663.0477 536.0061,675.7584 540.0,690.625 544.0564,703.4962 549.1106,717.4309 554.9343,730.9757 561.363,744.0262 568.7137,756.8486 575.3402,766.7113 582.6215,775.7982 588.4689,781.315 591.3587,783.2545 593.8857,784.378 596.0492,784.6755 597.8944,784.1183 599.3391,782.6407 600.3009,780.1768 600.7055,776.8441 600.6145,772.8831 600.0194,768.0122 598.9554,762.6607 595.2506,749.8713 589.346,734.0813 581.8592,716.9109 573.6472,700.1297 562.5401,679.3225 552.6867,661.9213 542.6282,645.0237 532.8127,629.3085 520.8147,610.9104 506.7214,590.0742 492.2138,569.3867 440.1824,497.9961 432.2233,485.5582 430.0596,481.2162 429.3266,478.6821 429.314,477.6024 429.7401,476.6452 430.6149,476.2064 431.875,476.25 436.0243,477.7593 441.4757,480.9288 448.0607,485.8457 454.7467,491.5341 459.8962,496.5352 466.858,504.0133 475.7373,515.0579 483.9372,527.4979 491.7576,542.4064 496.9173,555.1188 500.4411,565.5422 503.932,578.5917 505.369,585.2653 508.1617,601.767 509.7414,615.058 511.0142,630.6244 514.1703,694.4049 516.0142,712.7794 518.2432,726.2049 519.8842,733.6757 522.9346,744.83 528.2005,759.7607 535.2545,776.1757 540.5993,786.8684 546.2707,797.1297 553.7196,809.5764 564.4378,825.4153 572.7961,836.7302 581.9879,848.0657 590.1374,857.1152 598.5665,865.3523 607.0536,872.5969 614.8666,878.1325 622.2815,882.1068 629.0672,884.3284 631.8018,884.7133 634.6075,884.6864 637.2778,884.1713 639.4671,883.2888 641.4866,881.9751 643.3056,880.2037 644.893,877.9477 646.2181,875.1804 647.8448,868.8341 648.3995,860.9478 648.0811,853.6161 647.1011,845.5406 645.4921,836.8483 643.1708,827.1808 640.2487,817.0544 636.6593,806.2197 627.5333,782.5348 615.956,756.5621 602.3618,729.3252 587.2999,701.8622 569.9757,672.7466 553.1735,646.2451 535.1961,619.3279 516.1348,592.1429 496.7765,565.8202 473.0217,535.0062 447.826,503.6773 427.535,479.3005 389.1545,434.4614 375.9079,418.4842 370.5425,411.5094 366.8531,406.1206 364.732,402.2476 363.6181,398.8834 363.565,397.3027 363.9602,396.0865 364.7652,395.204 365.9416,394.6243 369.8054,394.267 375.4593,395.0258 382.672,396.8235 391.0789,399.5385 404.5421,404.5549 416.2903,409.3849 437.782,419.6084 444.5837,423.331 454.8108,429.4763 460.9598,433.6086 468.3571,439.3009 479.264,449.273 473.8122,433.1859 469.9783,417.9816 467.1755,402.7491 464.9636,386.0326 463.75,367.25 463.6975,352.312 464.7576,333.8377 466.7188,319.25 469.9386,304.5735 473.8389,292.4333 476.2043,286.8074 478.7981,281.6402 481.3475,277.3947 484.3281,273.291 487.5154,269.7126 490.8502,266.7257 494.2736,264.3969 497.4473,262.8841 501.1605,261.8025 504.9437,261.4081 508.7146,261.7422 512.0297,262.6996 515.5145,264.4136 518.7983,266.6351 521.9375,269.4065 524.6301,272.4091 527.1359,275.8774 530.0445,280.8356 534.5162,290.8551 537.7664,301.8931 540.0882,314.8222 541.0902,327.1926 541.0472,342.1843 539.9354,356.5163 537.2042,374.4881 533.9845,388.9084 529.6355,403.8963 523.2,421.2854 517.0278,434.5301 513.8483,440.3735 510.7965,445.2173 507.734,449.3685 504.625,452.75 500.3458,456.0759 496.3433,457.7037 494.4386,457.928 492.5614,457.7559 488.7291,456.2684 485.0616,453.1699 481.2186,448.2951 478.0994,442.542 474.3732,433.9846 471.2788,424.8323 467.9476,412.7155 465.7911,402.2021 463.8066,389.4157 462.5126,377.7821 461.6626,364.7349 461.3328,352.274 461.6285,340.9554 462.4093,330.3176 463.6546,319.3263 465.0549,310.8193 466.8859,302.5587 469.3103,293.9441 472.2517,285.5192 475.3959,278.3993 478.9383,272.0011 482.8028,266.4261 486.8677,261.8292 491.2864,258.128 495.941,255.419 500.6831,253.7888 505.151,253.3036 510.1721,253.8783 514.7883,255.4342 518.2258,257.3009 521.5,259.75 524.9619,263.1112 528.2198,267.0414 531.2438,271.5182 533.8162,276.1449 536.18,281.3031 538.3646,287.0415 541.7365,299.0204 543.8218,311.7525 544.9698,327.2446 544.8178,342.5523 543.3268,359.3911 540.6372,375.7956 536.6168,393.0042 531.334,410.269 526.375,423.625 521.8696,434.4215 518.6097,441.3289 511.3571,453.9369 507.4348,459.2351 503.9972,463.0693 499.4615,466.5525 497.0709,467.6166 494.9815,468.0855 493.1606,468.1471 491.0491,467.7438 488.9463,466.8478 486.6048,465.385 482.8873,461.6912 478.4427,455.1965 475.0248,448.2661 471.0844,438.3016 467.6694,427.3567 464.1801,413.575 461.8864,401.56 459.9006,387.6185 458.6386,374.776 457.9174,360.6729 457.7699,346.2417 458.2669,333.7185 459.2832,322.3236 460.7593,311.4744 462.5697,301.8046 464.9109,292.3581 467.8513,283.0481 471.125,274.75 474.6942,267.5236 478.6868,261.0949 483.024,255.5765 487.6269,251.0811 492.5459,247.6106 497.776,245.2009 502.7724,244.0203 507.7873,243.9226 512.9633,244.9658 518.3493,247.2552 522.2352,249.7543 525.6273,252.623 528.9095,256.1494 532.2889,260.606 535.4167,265.5846 538.2669,271.0463 540.8136,276.9522 542.9406,282.9702 546.41,296.2606 548.6226,310.7114 549.548,327.2479 549.1658,343.5987 547.4379,360.5416 544.4944,377.768 539.9914,396.5789 534.8477,413.2951 527.3115,433.6171 519.383,451.0714 515.4108,458.5989 511.7103,464.746 507.8036,470.205 504.0139,474.5802 501.5,476.875 499.0541,478.5738 497.0053,479.541 494.5851,480.1629 492.3988,480.2713 490.2411,479.8553 488.0892,478.9175 485.5116,477.1929 481.0467,472.5698 476.5933,465.8522 472.3953,457.0807 468.0299,445.8106 464.133,432.8178 460.6771,418.8196 457.9635,404.2287 455.529,387.2318 454.1489,371.682 453.4225,354.5161 453.4297,340.8267 454.1687,326.6781 455.4352,314.1186 457.1482,302.6088 459.4016,291.7895 462.2222,281.4237 465.4315,272.0481 469.0891,263.4784 473.1633,255.9302 477.9167,248.9526 482.8218,243.3285 488.0536,238.8162 493.5143,235.5255 499.5118,233.3435 505.222,232.559 510.8139,233.0177 516.8748,234.8515 522.4676,237.7996 526.5764,240.8237 530.1849,244.189 533.819,248.3805 537.354,253.3002 540.6119,258.739 543.3923,264.2851 546.008,270.5821 548.1718,277.0023 550.2456,284.5145 551.9543,292.2527 553.2913,300.1899 554.2128,307.9096 555.0823,325.3058 554.4887,343.1545 552.326,361.9123 548.965,380.5248 543.7719,401.3971 538.1006,419.6649 530.1165,440.9828 520.4313,462.6486 515.8149,471.4831 511.7335,478.4738 507.4741,484.7498 503.587,489.404 500.8795,491.9229 498.374,493.686 495.5,495.0 493.1915,495.4635 490.5608,495.2592 487.875,494.375 485.644,493.0827 483.4042,491.1695 480.4855,487.9846 477.9885,484.6972 472.943,475.7134 468.0129,464.6648 463.1478,450.5643 458.6944,434.5196 454.5,415.5 451.9175,400.328 449.8371,383.4617 448.4454,366.8474 447.9169,350.7491 448.2019,332.6439 449.2818,315.6734 450.8715,302.6711 453.0593,290.3101 455.8575,278.415 459.2101,267.349 463.0831,257.2937 467.5352,248.0915 472.3304,240.2325 477.5149,233.5958 483.3151,227.8909 489.4575,223.4752 495.861,220.4397 502.322,218.8853 508.9492,218.7373 512.6191,219.2629 515.8915,220.1037 522.2825,222.8197 528.4288,226.9481 533.0557,231.0861 537.2151,235.6222 541.1221,240.7377 544.7291,246.4026 547.8078,252.2091 550.866,259.1738 553.6929,266.8217 556.0244,274.4311 557.9724,282.3023 559.5122,290.3957 561.4593,307.7249 561.9168,316.8932 561.989,326.0316 561.676,335.1135 560.9756,344.3435 558.405,364.888 554.474,384.6964 548.4042,407.6628 540.7561,431.0302 536.1463,443.4578 531.14,455.8209 518.7889,483.0882 514.4338,491.5266 510.3808,498.5168 505.9182,505.1568 502.4125,509.4846 499.4082,512.2655 496.8011,514.0258 494.176,515.0919 491.3761,515.4089 488.5185,514.8241 485.3457,513.3176 483.0085,511.52 480.3973,508.7614 477.0862,504.5125 474.4103,500.3099 467.7094,486.8831 462.2754,472.9949 456.4761,455.053 451.8516,436.9441 447.7613,416.8641 444.6386,396.5648 442.2776,375.1761 441.085,356.7279 440.7788,338.3173 441.375,320.0 442.857,302.7326 444.9417,287.9049 447.6436,274.2397 450.9624,261.6281 455.0593,249.654 459.8956,238.5487 465.2226,228.849 470.9239,220.6534 477.1834,213.7154 484.2168,207.9224 491.2942,203.8599 494.9234,202.3978 498.593,201.3293 502.2883,200.665 506.2227,200.4025 509.8315,200.5464 513.7958,201.121 517.7344,202.1242 521.6269,203.5483 525.4526,205.3857 529.1913,207.6287 536.2537,213.2278 541.1182,218.2071 545.7171,223.8595 550.0004,230.1197 553.7317,236.5702 557.0902,243.4542 560.0447,250.7248 562.8963,259.1256 565.3203,267.8201 567.3124,276.7498 568.8679,285.8561 569.9824,295.0803 570.7297,305.1209 571.0784,315.5121 570.9994,325.8216 570.4992,336.0047 569.5841,346.0164 566.3344,368.4835 561.9575,389.2084 555.0351,413.9112 546.5026,439.1606 540.1144,456.0364 530.385,479.6562 515.2579,513.9881 510.797,523.1446 506.5353,530.9317 502.4996,536.9619 499.1368,540.9072 496.1392,543.1998 493.4075,544.3632 490.5743,544.5946 487.8747,543.8867 484.6476,542.0474 481.4843,539.449 478.2562,535.7758 474.9575,531.1191 471.7176,525.7003 468.1461,518.8094 461.1029,502.7862 453.2385,480.6985 447.662,461.5617 441.9553,437.9323 438.1803,418.7972 434.7116,395.9061 432.19,372.8041 430.8385,351.1798 430.5039,329.5894 431.1919,309.0146 432.9407,289.5024 435.3718,272.881 438.5943,257.1118 442.4436,242.8442 447.0745,229.6724 452.5312,217.4844 458.7361,206.4899 465.4005,197.1586 472.7176,189.2456 476.697,185.789 480.4916,182.9716 484.7164,180.3384 488.7057,178.3078 493.1071,176.556 497.2277,175.3656 501.737,174.553 505.9255,174.2562 510.477,174.4188 515.0289,175.0482 519.5608,176.1338 524.0522,177.666 528.4825,179.635 532.8311,182.031 537.0777,184.8442 541.2015,188.0649 546.8533,193.3674 552.3937,199.6743 557.5494,206.6701 562.4864,214.6197 566.786,222.8195 570.7815,231.8815 574.1184,240.9792 577.1551,251.0386 579.6595,261.3274 581.705,272.1584 583.2055,283.0977 584.1742,294.0752 584.6493,306.0067 584.5998,318.0728 584.0312,330.3125 582.9769,342.2931 580.2049,361.8524 575.8785,383.126 570.6223,403.1838 563.3931,426.1287 558.1083,441.2064 551.4735,458.6958 525.6892,524.3497 515.9811,552.2965 508.2397,576.7107 505.4222,584.6677 503.2928,589.7531 501.0668,594.0124 498.9796,596.8724 496.784,598.829 493.9967,600.0432 491.2739,600.0509 487.2538,598.2283 483.9308,595.5237 479.625,590.625 476.0006,585.5789 470.896,577.2026 466.1115,568.3921 461.3987,558.549 456.1416,546.5111 447.4286,523.72 438.9302,497.7506 431.2431,469.6634 424.9112,442.5949 420.24,418.2055 416.2326,391.3723 413.2949,364.3601 411.6634,339.2818 411.1758,314.5398 411.8495,290.5771 413.6579,268.0127 416.4392,247.918 420.1891,229.0918 424.9133,211.3985 430.5731,195.0583 437.0205,180.5073 444.4101,167.3562 448.5582,161.1709 452.694,155.7004 457.0193,150.6332 461.5234,145.993 466.1953,141.804 471.0245,138.09 476.0,134.875 481.1634,132.1407 486.4442,129.9152 491.8213,128.1998 497.2739,126.9956 503.1494,126.2761 509.0613,126.1412 514.6141,126.547 520.1554,127.4692 525.6642,128.9091 531.1196,130.8678 536.4331,133.3072 541.8398,136.3195 547.1384,139.8014 554.5649,145.6144 561.6751,152.2929 568.4154,159.7696 574.9659,168.3063 580.7862,177.201 586.2843,187.0713 591.2495,197.4846 595.7806,208.6489 599.7079,220.1579 603.0315,231.934 605.8267,244.2753 607.9798,256.7327 609.5927,270.0004 610.576,283.238 610.9628,296.7025 610.7446,310.3222 610.1199,321.4513 609.1223,332.3428 605.7614,355.826 600.867,379.4547 594.3833,403.4301 587.806,423.7797 580.1171,444.7125 569.9239,469.8529 553.8134,508.1348 544.7461,531.1962 539.1529,547.3663 534.4857,563.5479 532.3403,572.8416 530.5568,582.2745 528.4277,599.1367 527.7991,608.2677 527.5616,617.3948 527.673,628.2807 528.1716,636.6217 529.554,650.2861 531.1506,660.8135 533.8459,674.6259 537.1375,687.8826 540.8433,700.492 545.6331,714.5818 549.684,724.7071 555.5923,737.9527 561.4636,749.5589 568.0007,761.0459 574.4167,770.6522 581.4328,779.833 587.4165,786.1307 593.2196,790.6697 595.6689,791.9237 597.9403,792.5657 599.9676,792.5417 601.423,791.974 602.9534,790.3985 603.9785,787.7946 604.4522,784.4079 604.4039,780.0414 603.845,775.2025 602.7039,769.3676 598.8118,755.6118 593.4238,740.8274 586.4141,724.4969 576.9678,704.9545 566.2017,684.4747 555.1162,664.8629 543.3662,645.3931 528.414,621.8027 512.9812,598.5286 489.5485,565.1784 442.852,501.9747 430.3899,484.2403 426.8321,478.4474 424.8272,474.1316 424.2967,471.0613 424.6074,470.1506 425.4271,469.5602 427.661,469.6377 431.2553,470.9595 435.6552,473.3386 441.3507,477.0611 451.0009,484.633 462.015,495.182 470.6112,505.0401 478.6196,515.7913 485.6212,527.3158 490.8534,537.7848 496.3987,552.0103 500.2828,565.731 503.2797,581.5724 504.6063,595.3171 504.8079,609.4801 503.8802,621.9797 502.7188,627.4531 501.625,630.875 499.969,634.16 497.9977,636.2604 496.3383,637.0807 494.375,637.25 492.7481,636.9093 490.6992,635.8881 486.1618,632.1655 480.6453,625.6622 475.4726,618.0367 469.0927,607.1259 463.7704,596.7176 456.8621,582.0284 452.4107,571.6928 447.504,559.2389 435.9406,527.1244 427.2898,498.9896 418.9992,467.9543 412.4274,438.4131 406.9034,407.8275 402.8162,378.8196 400.045,350.0664 399.063,334.0469 398.4939,318.1268 398.3424,302.3851 398.62,286.6453 399.312,272.3813 400.4612,258.1218 402.0333,244.3284 404.0054,231.0655 406.4284,218.0165 409.3161,205.2495 412.5791,193.1817 416.3306,181.4378 420.3494,170.744 424.8148,160.5388 429.7084,150.8773 434.8082,142.1389 440.4888,133.7051 446.3124,126.2512 452.7092,119.2575 459.1883,113.2928 466.0071,108.1045 473.0332,103.8163 480.3027,100.3754 487.7709,97.7845 495.3932,96.0465 503.4949,95.1437 511.6652,95.1833 519.4808,96.1033 527.2674,97.888 535.1899,100.6246 542.9421,104.2235 550.8253,108.8326 558.7763,114.4958 566.4431,120.9918 573.781,128.2592 580.7453,136.2366 587.2911,144.8627 593.3737,154.076 599.1157,164.0933 604.4638,174.7902 609.4128,186.2097 613.7837,197.9533 617.5731,209.9505 620.8658,222.5016 623.4646,234.7959 625.472,247.1293 627.0727,260.9472 628.0674,274.6761 628.4854,288.5854 628.3163,302.6137 627.5548,316.6922 626.2015,330.7438 624.2062,345.0992 621.5765,359.7979 618.4308,374.2209 614.625,389.0355 610.8039,402.09 606.3999,415.6433 601.6002,429.1271 596.3077,442.8158 586.8471,465.1568 560.4307,523.8814 554.4198,538.2844 549.592,550.861 545.0265,564.6232 541.4293,577.943 538.8657,590.7848 537.1671,603.7891 536.5115,614.4793 536.4064,626.5801 536.8926,636.4051 538.0109,647.641 539.5938,657.7344 542.2914,670.7449 544.7424,680.3343 548.1055,691.611 551.7813,702.0287 556.7036,713.9412 561.222,723.36 566.6973,733.4719 571.4907,740.6667 576.6712,747.0666 578.6129,748.824 580.6602,750.1675 582.375,750.75 583.5598,750.5466 584.4928,749.5718 585.0771,747.7906 585.0174,742.9315 583.4313,735.1316 580.4061,725.3949 575.663,713.2428 569.7369,699.7989 563.2894,686.5444 556.1035,672.9969 541.4272,647.162 526.4012,622.68 501.2312,584.1623 459.8371,524.2228 452.5726,512.3533 451.0422,509.2214 450.2605,506.582 450.463,505.4099 451.3052,505.1334 453.2915,505.7974 455.6713,507.2176 461.8806,512.4661 468.5315,519.1248 474.8695,526.7187 480.6216,534.4259 487.3563,544.7031 492.1957,552.9938 501.2306,571.5054 508.5221,589.9873 515.8166,612.0944 530.1366,661.196 536.9571,682.7844 545.0926,704.704 553.5,724.25 558.5129,734.309 565.8604,747.3642 571.3953,756.0351 577.0361,763.7389 582.2279,769.5051 587.1343,773.582 590.8125,775.418 592.6349,775.556 593.8975,775.1587 595.1632,773.9931 596.0876,771.7241 596.4689,768.4819 596.3281,764.5 594.6779,755.2062 590.8959,742.7378 585.4868,728.3599 578.8342,713.1213 570.2343,695.6136 560.1164,676.5402 542.9677,646.8606 521.3933,612.826 508.0495,592.8596 494.2278,572.9087 446.334,506.1096 437.8951,492.8539 435.8486,488.6931 435.0697,485.9159 435.1014,485.0068 435.4927,484.2885 436.3131,483.9924 437.3157,484.0676 440.4368,485.2106 444.4014,487.5494 450.166,491.8024 455.3164,496.1367 466.2006,507.1712 474.0712,516.6636 482.2056,528.2619 489.1252,540.246 494.9288,552.2075 499.0089,562.1542 502.0568,570.6071 505.386,581.6746 508.2374,592.7758 513.8838,620.8225 518.4924,648.8012 522.2449,669.0501 525.4803,684.2492 530.0792,701.8305 535.793,720.0068 541.3276,734.5269 547.447,748.7393 555.7619,765.6335 563.6948,779.645 570.9702,790.9209 581.5054,805.011 589.3785,813.9618 597.9587,821.8683 601.4263,824.4581 604.8121,826.4864 608.0679,827.8969 611.121,828.6165 613.8982,828.5722 616.1212,827.8032 618.5231,825.6852 620.1979,822.521 621.2249,818.0958 621.479,812.904 621.0271,806.8234 619.8468,799.4687 617.9739,791.2394 615.4456,782.2892 612.3077,772.7624 608.613,762.794 599.4017,741.0783 587.6219,716.6613 574.1941,691.5077 561.9374,670.3112 547.0699,646.1719 531.0503,621.4833 514.2548,596.7882 496.6144,572.0176 475.5449,543.6905 455.4075,517.5262 424.3249,478.0817 412.9183,463.0619 407.4192,455.3335 403.8572,449.7611 401.8417,445.6817 401.0579,442.7185 401.2613,440.9644 402.3719,439.83 404.402,439.5138 407.0837,439.8972 410.7417,441.0091 414.9473,442.7355 425.408,448.1608 436.2761,454.9465 447.2591,463.0012 456.4173,470.7649 465.009,479.3224 471.329,486.6776 478.2305,496.2845 482.1761,502.8776 486.051,511.1663 488.5654,519.0152 489.9386,526.3973 490.0147,529.7041 489.713,532.412 489.125,534.25 487.9778,535.9353 486.394,536.6063 484.24,536.1965 481.8951,534.5775 478.953,531.4824 476.1296,527.5833 472.7437,522.0704 466.5318,509.4377 460.5411,494.7999 454.5288,476.8756 449.354,458.7136 444.4933,438.3401 440.9311,420.4991 438.0474,402.4563 435.6875,383.1158 434.1361,364.7201 433.3497,346.7631 433.2906,328.7087 433.9653,311.2063 435.354,295.0025 437.3766,280.1137 440.0431,265.9461 443.3146,252.6487 447.0995,240.5561 451.5833,229.2315 456.5419,219.134 462.0616,210.0056 468.0906,201.9789 474.6738,195.0981 481.5788,189.6271 488.827,185.4935 496.3273,182.754 503.9888,181.4656 511.3686,181.6283 519.0734,183.1918 526.9844,186.2812 533.6493,190.127 539.7189,194.7383 545.5794,200.3706 551.227,207.058 556.4537,214.525 561.4062,223.0168 565.8281,232.1445 569.6809,241.8025 572.9782,252.0275 575.6886,262.6131 577.8761,273.798 579.4592,285.1372 580.4841,296.9265 580.9209,308.901 580.7913,321.2704 580.0946,333.7938 579.0205,344.946 577.5244,356.2098 575.4974,368.3052 573.1232,380.1146 567.5613,402.2898 559.5532,427.8802 549.5293,455.3695 527.5118,510.3061 507.2962,563.2683 504.3033,570.0111 501.4098,575.3561 499.125,578.5 496.3765,580.9964 493.397,582.3487 490.8874,582.424 487.375,581.125 484.223,578.8881 480.7562,575.3524 477.0251,570.6221 473.1852,564.7176 468.7224,556.9989 461.1906,541.3057 452.8773,520.6671 444.6776,496.5761 438.231,474.4012 432.3177,450.2206 427.2021,425.647 423.3668,402.3844 420.3997,378.5858 418.3686,354.9421 417.4065,332.1448 417.4882,309.567 418.6144,287.9508 420.5272,269.2779 423.3169,251.4995 426.9642,234.5974 431.4214,218.7846 436.6399,204.2423 442.4083,191.4637 449.086,179.6535 456.2895,169.4445 464.3859,160.3653 468.5302,156.5431 472.8043,153.1261 477.1983,150.1337 481.6266,147.6215 486.1858,145.5194 490.8378,143.84 495.5644,142.5837 500.7172,141.7048 505.5406,141.3292 510.7553,141.4001 515.9689,141.9643 520.7891,142.9308 525.5705,144.3239 530.2948,146.1442 538.0357,150.1055 545.6775,155.2183 553.013,161.3388 559.9823,168.3876 566.7675,176.6054 572.8041,185.3016 578.3738,194.8305 583.4396,205.1204 588.0325,216.2569 591.9792,227.8113 595.3723,240.0523 598.078,252.5086 600.1595,265.5152 601.5685,278.64 602.3471,292.0678 602.484,306.1016 602.1171,317.3078 601.3561,328.3165 600.143,339.8855 598.4974,351.7695 596.4573,363.6181 594.0338,375.4038 587.969,399.2138 581.5974,419.8072 573.8516,441.6218 564.9363,464.4583 547.7953,506.3357 539.2408,528.8427 532.5484,549.0999 527.9025,566.8367 525.52,578.541 523.7362,590.0352 522.6643,599.9914 521.8115,613.0424 521.5539,622.6037 521.7025,633.5946 523.3462,654.9632 525.693,671.177 528.2165,684.2198 531.2544,697.053 535.3353,711.3215 540.7498,727.0022 544.7967,737.0648 551.4441,751.8288 558.8036,766.0769 566.2224,778.978 575.375,792.625 582.3651,801.6224 590.3809,810.3911 597.1442,816.4952 600.476,818.8192 603.7105,820.6123 606.7743,821.8236 609.5531,822.3891 611.8672,822.2441 613.652,821.56 615.8926,819.4778 617.3466,816.4715 618.1773,812.4428 618.3769,807.504 617.9345,801.4236 616.8476,794.5645 615.1566,787.0712 612.7637,778.5891 606.0528,759.4937 596.9834,737.9123 586.2473,715.4922 573.753,692.0579 561.2707,670.366 547.4581,647.6782 532.9775,625.0789 517.8891,602.6578 498.7931,575.5798 478.8179,548.4083 415.3199,465.903 411.2015,459.9778 408.0346,454.7781 406.0931,450.7723 405.2299,447.7064 405.4008,446.0163 406.4221,445.0406 408.5469,444.7344 411.4679,445.2244 414.9659,446.4059 419.7079,448.5433 430.5898,454.6089 441.3248,461.8945 451.1802,469.6633 460.6104,478.3614 468.499,486.9413 474.9964,495.3258 479.9105,502.7477 485.34,512.9967 488.5434,520.8404 490.9199,529.5215 492.0176,538.7148 491.9164,541.4326 491.2692,544.826 490.4452,546.8436 489.2576,548.2208 487.5662,548.9806 485.0778,548.6303 482.509,546.985 479.6872,544.1649 476.7712,540.3279 473.3105,534.8182 470.0446,529.0696 466.902,522.7194 460.211,506.9335 453.9603,489.2307 447.967,469.5424 442.674,448.612 438.2659,427.9264 435.0047,409.1702 432.2791,388.9823 430.2376,368.0237 429.1342,348.8844 428.8248,329.9001 429.3305,311.4132 430.622,294.0308 432.5989,278.2328 435.2845,263.0999 438.6298,248.8157 442.6999,235.1943 447.1107,223.4375 452.2773,212.4058 458.0938,202.3924 464.2809,193.8083 471.2104,186.1933 478.4146,180.1499 485.8659,175.6015 489.7085,173.8447 493.9688,172.3281 498.2833,171.2343 502.2711,170.6076 510.2864,170.4509 518.3762,171.8045 526.6284,174.71 533.7148,178.4533 540.5533,183.2477 547.064,189.0359 553.1669,195.7608 559.0986,203.7796 564.4369,212.4684 569.3906,222.1562 573.7353,232.4403 577.4468,243.2144 580.4563,254.179 582.9713,266.0762 584.8231,278.1364 586.0729,290.6456 586.6975,303.5039 586.6846,316.4576 586.0626,329.7785 584.0171,349.8406 580.5705,370.3992 575.493,392.4791 569.0264,414.7997 562.7962,433.3247 555.7622,452.6617 535.6161,503.4141 525.9055,529.1769 519.1745,549.2141 509.2351,583.7088 504.8793,597.5663 502.6094,603.1875 500.9352,606.4571 498.6562,609.4062 496.375,611.125 493.496,611.8903 490.1294,611.1885 486.8143,609.0919 483.075,605.5295 479.0006,600.539 474.1211,593.4555 470.1512,586.6804 465.4559,577.6822 460.9951,568.4769 456.3844,557.9813 446.1729,531.9 437.8221,506.777 429.703,478.4993 423.4357,452.861 417.9923,426.3211 413.7161,400.6831 410.4754,375.1501 408.2886,349.8461 407.1832,325.0489 407.206,301.2466 408.3205,278.3479 410.3281,257.834 413.3047,238.0367 417.0813,220.061 421.8096,203.1025 427.5289,187.0356 434.2101,172.0983 441.641,158.8202 445.5856,152.8774 449.6062,147.4933 453.9419,142.3732 458.4763,137.6718 463.192,133.4009 468.0713,129.5725 473.0966,126.1984 478.2502,123.2907 483.5147,120.8611 488.8723,118.9217 494.3054,117.4843 499.4519,116.6033 504.6429,116.1829 510.2342,116.237 515.842,116.798 521.4462,117.8544 527.0269,119.3947 532.5639,121.4072 540.4069,125.1042 548.059,129.7187 555.4607,135.2162 562.2515,141.2692 569.2843,148.6875 575.8954,156.82 582.0709,165.6058 587.971,175.305 593.1733,185.1964 597.8542,195.5214 601.9857,206.2076 605.6205,217.4412 608.905,229.7189 611.5719,242.1032 613.6963,254.9166 615.2109,267.7259 616.176,281.218 616.5113,294.568 616.2395,308.3874 615.3666,322.5854 613.9064,336.7328 611.8201,351.1415 609.1745,365.3663 605.928,379.7198 602.4333,393.0337 598.3581,406.7629 593.8516,420.4209 588.5784,435.0432 577.507,463.0047 552.4514,521.9918 546.7754,536.651 542.1169,550.0397 537.8708,564.7665 534.1386,581.3699 532.0774,595.6912 530.8738,611.3233 530.75,623.0 531.2792,634.3602 532.5883,648.2437 534.4121,659.7834 537.4088,674.2306 541.4782,689.7377 544.8906,700.5 550.0835,714.8316 555.2834,727.1564 561.3335,739.6266 567.8253,751.1268 574.3582,761.113 580.6326,769.0046 586.1501,774.3598 588.751,776.1605 591.1393,777.2749 593.3319,777.6355 594.9033,777.1624 596.3359,775.6189 597.1446,773.408 597.496,770.3425 597.3655,766.7317 595.7,757.0436 592.1662,744.9009 586.7129,730.4592 579.4824,713.8574 571.3315,697.0413 562.077,679.6067 543.278,647.0973 522.9256,614.8583 507.6656,592.0539 492.5043,570.1669 443.7498,502.6117 436.4523,491.0384 434.4647,487.0319 433.6864,484.4125 433.7325,483.3057 434.1377,482.5758 434.8638,482.208 435.8724,482.1877 439.473,483.4942 443.9551,486.0737 448.3582,489.2587 454.9523,494.8344 460.0744,499.6476 464.7554,504.5871 474.4837,516.3231 482.8201,528.4309 488.9056,538.9549 495.8,553.5341 499.3475,562.7945 502.7441,573.041 505.6325,583.3176 508.0853,593.5588 511.5853,611.2567 520.7781,669.504 523.8465,684.8957 527.871,701.8359 533.2287,719.771 539.6499,737.493 546.0851,752.4051 552.8669,766.224 561.8733,782.3744 570.3561,795.5647 580.2346,809.0289 589.9398,820.1651 594.4134,824.5744 598.8983,828.4464 603.0251,831.4746 607.0414,833.8579 610.875,835.5 613.9465,836.1953 616.8176,836.1336 619.3916,835.2327 621.8121,833.1139 623.5969,829.7122 624.6298,825.1783 624.9758,819.6976 624.6467,813.347 623.5767,805.8327 621.7956,797.6349 619.3997,789.0451 616.0774,778.9104 612.065,768.0251 602.1903,744.5725 590.2149,719.7059 576.4195,693.9594 562.8446,670.5342 547.8227,646.1455 532.0686,621.9388 514.993,597.027 494.5599,568.51 473.1317,539.8668 407.2559,456.092 402.6218,449.5617 399.116,443.9683 396.9955,439.7093 396.1329,436.6643 396.3401,434.8369 397.3832,433.7799 399.1449,433.3574 401.95,433.5739 405.3831,434.4499 409.397,435.9121 419.5032,440.5665 429.0317,446.048 442.0733,454.6765 450.4322,461.1636 460.326,469.8567 466.7218,476.4423 473.561,484.68 478.0825,491.2278 482.8102,499.5 485.8101,506.9063 487.5333,513.3513 487.8009,518.9444 487.375,520.75 486.533,522.236 485.0193,522.8898 483.2841,522.432 481.1094,520.748 478.4622,517.898 475.8353,514.0967 472.4777,508.3623 467.9944,499.0563 462.0403,484.0187 456.5759,467.3827 451.9571,450.9424 447.8194,432.5339 444.2773,413.7761 441.918,397.967 439.9221,379.9069 438.5108,360.9844 437.999,344.94 438.1728,328.5139 439.0473,311.9327 440.5522,296.4411 442.5754,282.9492 445.2643,269.7884 448.5059,257.5134 452.3155,246.051 456.49,236.0602 461.2526,226.8698 466.5296,218.5965 472.2473,211.3569 478.3212,205.2785 484.52,200.5931 491.3604,196.9446 498.424,194.6437 505.6086,193.7224 512.7432,194.1996 519.8801,196.0464 526.8648,199.1893 532.6533,202.8667 538.1913,207.4095 543.4145,212.7778 548.5711,219.2905 553.3859,226.5997 557.759,234.5549 561.6509,243.077 565.0221,252.0869 567.8315,261.4443 570.2849,271.7273 572.1771,282.2012 573.5141,292.8121 574.3018,303.5058 574.56,314.3585 574.3314,326.3903 573.6076,338.1895 572.5138,348.9932 570.99,359.9074 568.842,372.0754 566.2859,384.1851 560.4002,406.6977 552.0568,432.653 545.1828,451.1446 537.2868,471.2022 523.5474,504.1802 512.5352,529.6105 508.3335,538.411 504.2698,545.7611 500.8914,550.7828 497.6766,554.2491 494.7725,556.0623 491.6679,556.8313 489.1953,556.5522 486.1881,555.2338 483.3984,553.2773 480.3311,550.1528 476.4578,545.2698 473.3245,540.5192 469.6523,533.9766 465.7671,526.185 458.5718,509.1694 451.5475,489.4483 445.0562,467.5277 439.8951,446.8897 435.3675,424.8143 431.4975,401.2723 428.8511,379.7423 427.085,357.7318 426.2745,335.6302 426.4621,315.8469 427.6412,296.0125 429.5542,278.568 432.1849,262.1823 435.4197,247.3481 439.3494,233.6042 444.1831,220.2726 449.7899,207.9428 455.9555,197.0968 462.5011,187.9757 469.8673,179.9855 477.7739,173.4797 482.0485,170.721 486.1063,168.5501 490.5564,166.6449 494.7495,165.2886 499.241,164.2949 503.5704,163.7669 507.9228,163.6448 512.6461,163.9643 516.9972,164.6707 521.6833,165.8754 526.3217,167.5304 530.5441,169.452 537.75,173.7085 544.4731,178.9057 551.0974,185.2847 557.3072,192.5619 563.0584,200.645 568.4979,209.7936 573.1774,219.2348 577.5062,229.8018 581.2007,240.7959 584.2618,252.1197 586.6894,263.6808 588.5309,275.7661 589.7348,288.391 590.3363,301.6488 590.3157,315.1065 589.6877,328.3225 587.8205,346.6859 584.5174,367.039 580.165,387.0115 574.717,407.0045 568.961,425.0849 562.1021,444.3757 555.3098,462.122 534.7663,513.7017 526.0924,538.192 520.0229,558.4178 516.9021,570.4199 513.8753,583.5931 507.6853,614.3379 505.3905,623.6257 503.5519,628.8421 501.8006,632.5758 499.7023,635.5237 497.6537,637.0595 496.2479,637.4764 494.7602,637.4618 491.3936,636.4117 487.1213,633.2068 483.7399,629.6409 477.7242,621.5008 473.7164,615.2417 468.0854,605.1847 462.4253,593.9918 456.794,581.7769 451.0347,568.3035 440.5232,540.6504 430.7982,511.2411 422.035,479.9338 414.8823,450.1462 409.3284,422.425 404.7141,393.4874 401.3045,364.7888 399.207,337.4588 398.338,310.6707 398.7076,284.5361 400.3205,259.428 402.9468,237.3798 406.6861,216.4967 411.6284,196.343 417.5451,177.9072 420.9356,169.1324 424.4704,161.0157 428.2533,153.2909 432.1733,146.1797 436.5709,139.0947 440.9931,132.7665 445.641,126.8523 450.5017,121.3734 455.8346,116.0996 461.0933,111.5806 466.5265,107.5616 472.1218,104.064 477.8666,101.1091 483.4356,98.8295 489.3161,97.0172 495.404,95.7393 501.5661,95.0264 507.7788,94.8699 514.0185,95.2611 520.6284,96.2625 526.8493,97.7539 533.3863,99.9009 539.8446,102.6218 545.8465,105.7093 554.1118,110.9072 561.9613,116.9318 569.6015,123.8626 577.138,131.8389 584.2587,140.5605 590.9205,149.9519 597.0803,159.9373 602.6953,170.4412 607.7223,181.3878 612.338,193.1916 616.4312,205.5026 620.0058,218.3817 622.9437,231.3959 625.3136,244.8443 627.0353,258.2757 628.1215,271.6089 628.6219,286.0692 628.5033,300.3924 627.7857,314.7509 626.4768,329.0817 624.5922,343.3153 622.156,357.3759 618.9665,372.2492 615.2242,387.0266 611.2713,400.6705 606.7498,414.6349 601.5981,429.104 595.714,444.3638 585.0682,469.5433 559.5196,525.9926 553.9329,539.4543 549.2006,552.0168 544.6213,566.2035 540.5361,582.2665 538.4726,593.3617 536.9088,606.6361 536.4182,615.1416 536.4672,625.3707 536.8973,635.9967 537.9401,646.5631 539.478,657.1678 541.386,666.884 544.0872,677.9925 547.0498,687.9341 551.5654,701.0275 556.0743,712.311 560.5882,722.069 566.2086,732.3366 571.0961,740.1287 576.4071,746.634 578.4677,748.6253 580.374,749.972 582.0553,750.5968 583.4296,750.4295 584.4507,749.3454 584.9868,747.5916 585.1372,745.0437 584.8994,742.21 583.094,734.1339 579.8497,723.9886 575.4488,712.7304 569.7092,699.9667 562.5173,685.222 555.005,670.9507 540.1234,645.1001 523.3958,617.9567 496.629,577.4453 459.2246,523.4551 452.9838,513.123 451.0497,509.1294 450.3392,506.7662 450.6562,505.5625 451.7692,505.3384 453.6545,506.0821 456.3158,507.7718 462.0129,512.5277 469.7114,520.4711 474.8199,526.7094 482.8309,537.7104 488.4044,546.5496 493.6517,555.7325 497.4042,563.2681 502.2238,574.0533 510.603,595.7405 517.722,618.3521 526.5859,649.1809 534.3244,674.5245 541.9496,696.4807 550.9346,718.3259 557.6948,732.5448 561.8981,740.469 569.1815,752.5741 574.7252,760.5286 580.9574,768.121 585.5776,772.4206 588.0715,774.057 590.3471,775.0295 592.3037,775.2766 593.6973,774.8692 595.0506,773.5941 595.9705,771.4067 596.3406,768.8455 596.256,764.9842 594.6191,755.3917 591.1316,743.368 585.7932,729.1423 578.7582,712.9807 570.6645,696.2907 561.1898,678.4179 542.892,646.7285 523.1076,615.3721 509.5164,595.0289 495.0506,574.1053 446.1691,505.9163 438.211,493.3477 436.125,489.25 435.2598,486.4784 435.2787,485.3547 435.6469,484.6138 436.3202,484.238 437.2543,484.2097 440.5612,485.4319 444.861,487.9434 449.375,491.25 455.689,496.6146 461.1539,501.7932 466.0026,506.9506 474.8371,517.8144 483.568,530.6055 488.9051,539.8299 495.9912,554.5513 499.7818,564.131 503.1382,573.8424 508.795,595.0576 512.2222,611.4632 522.6613,670.0914 526.6735,688.2093 529.3907,698.4829 534.1912,714.1842 540.501,731.8026 548.0259,749.4684 556.0715,765.4214 563.3637,778.2891 573.2555,793.4375 581.3883,804.2052 590.0492,814.0262 597.8903,821.1249 601.7409,823.8685 605.1886,825.8499 608.1925,827.1059 610.9207,827.709 613.4531,827.6719 615.7214,826.9342 618.1396,824.8594 619.7555,821.7379 620.7129,817.4374 620.9717,812.1836 620.567,806.1503 619.4599,799.0027 617.6804,791.1046 615.1073,781.9912 608.1875,762.2031 599.0444,740.5224 588.0036,717.683 574.2724,692.0218 561.3263,669.5486 547.2043,646.4484 532.474,623.6616 516.0247,599.4393 496.9639,572.5938 476.871,545.472 413.6188,464.0528 408.6297,456.9822 404.9014,451.0629 402.6268,446.5973 401.7003,443.4745 401.865,441.7389 402.7775,440.6941 404.3426,440.2731 406.9479,440.4978 410.4923,441.5021 414.9773,443.271 424.8361,448.2838 436.1185,455.2937 445.5365,462.0714 456.2605,471.199 464.7573,479.609 471.2658,487.1624 476.5247,494.2671 482.0625,503.2969 485.6641,510.7815 488.7754,519.7126 490.2161,527.4697 490.3333,530.7795 489.9919,534.0211 489.3426,536.1898 488.2209,537.7822 486.5999,538.4889 483.9931,537.9094 481.8164,536.3508 479.0435,533.4222 476.3563,529.9154 473.5984,525.5071 467.2429,513.1519 460.625,497.0 455.4574,481.9541 449.1748,460.441 444.5345,441.3851 440.6139,421.9512 437.5548,403.5336 435.2152,384.6322 433.5347,365.0303 432.6276,346.8787 432.5175,329.5205 433.1867,311.9195 434.6339,294.6978 436.5869,279.9356 439.2021,266.0169 442.5297,252.5605 446.4274,240.1071 450.9579,228.4556 455.8399,218.3154 461.4568,208.9019 467.4008,200.8864 473.81,194.0307 480.6257,188.4633 487.7933,184.2717 495.3119,181.414 499.3268,180.4745 503.3737,179.9222 511.131,179.9548 518.8369,181.4325 526.4173,184.3551 533.2069,188.1956 539.7523,193.0693 545.9676,198.9074 551.5136,205.3167 556.7588,212.7198 561.853,221.4302 566.2517,230.4446 570.251,240.337 573.6478,250.6881 576.3241,261.0136 578.555,272.4093 580.2175,284.166 581.3084,296.34 581.7907,308.4793 581.6913,320.5099 580.9936,333.4151 578.6501,354.7485 574.9004,375.6763 568.9252,400.1454 561.5838,424.1142 551.4155,452.4459 525.522,517.6532 507.1061,567.3609 504.2781,573.7629 501.2964,579.2372 498.9466,582.5056 496.3076,584.9023 493.6084,586.1211 490.4703,586.1373 487.0698,584.7548 483.8097,582.2914 479.8738,577.9452 475.75,572.4648 471.8967,566.2584 467.2928,557.8984 459.221,540.5119 450.7361,519.0324 442.0185,492.3295 435.209,467.941 429.4715,443.2002 424.5035,417.3482 420.7774,392.5369 418.0132,367.2197 416.4201,343.9711 415.9331,321.4123 416.5235,298.833 418.2124,276.6156 420.6384,257.6437 423.9666,239.7963 428.309,222.5757 433.4244,206.9658 439.1958,193.0957 445.7568,180.6023 453.2494,169.3006 457.4111,164.0608 461.5,159.5156 466.0149,155.117 470.4132,151.4009 474.9448,148.1135 479.5988,145.2724 484.3645,142.895 489.066,141.0513 494.1045,139.587 499.2148,138.6074 504.3756,138.1094 509.565,138.0897 514.7617,138.5451 520.3129,139.5568 525.821,141.1065 530.8997,143.0347 535.896,145.4249 540.8952,148.3405 548.19,153.5397 555.1917,159.6405 561.8521,166.5738 568.3557,174.5811 574.1709,182.9979 579.4981,192.0379 584.2935,201.633 588.7909,212.2671 592.6924,223.2656 596.1035,234.9195 598.8975,246.7949 601.1421,259.1837 602.75,271.625 603.7899,284.5828 604.2375,297.7772 604.0893,311.1506 603.5369,322.0387 602.5912,333.0891 599.5353,355.504 594.9984,378.3581 589.0233,401.2089 582.4908,421.7609 574.5677,443.717 565.1034,467.7836 547.8738,509.7985 540.8965,527.9462 534.7268,546.4514 530.0334,563.3521 525.9398,583.8148 524.4916,594.6818 523.5192,605.017 523.0569,615.6241 523.0035,625.5306 523.5229,638.0147 524.3365,647.6149 526.0723,661.9795 528.5712,676.2429 531.2107,688.0769 534.8465,701.7552 540.337,718.5784 544.8907,730.6057 550.2711,743.3146 557.0676,757.0014 563.6828,769.1212 573.1686,784.0018 579.7053,792.9266 587.0266,801.4524 593.9043,808.0746 597.3325,810.7129 600.6368,812.7722 603.4614,814.0643 605.8859,814.697 608.3472,814.6898 610.2344,814.0469 612.3365,812.1934 613.699,809.5608 614.5921,805.4711 614.7966,800.5078 614.3623,794.7063 613.3188,788.2272 611.5873,780.7321 609.2929,772.8103 602.6991,754.4046 593.8847,733.8028 583.2076,711.7613 570.5306,688.0066 558.7229,667.3879 546.0767,646.5166 533.0483,626.1227 518.7046,604.768 500.3353,578.5046 481.1066,552.1028 421.4665,473.931 416.6552,466.9506 413.2404,461.3942 411.0253,456.9605 410.1155,453.7592 410.3982,452.1364 411.7607,451.142 414.0339,451.0895 417.5374,452.0736 422.3472,454.1754 427.8519,457.1065 439.9609,465.0123 449.9742,472.7309 459.6237,481.6798 467.3804,489.9944 475.3149,500.1126 480.8853,508.5005 486.2086,518.4953 489.7021,527.0777 492.7199,536.983 494.3704,546.5147 494.529,554.5556 494.1057,558.2539 493.356,561.211 492.382,563.367 491.0,564.875 490.0404,565.4106 488.6813,565.6596 485.7278,564.9038 483.0308,563.0324 479.4329,559.2783 476.3063,555.0969 472.4359,548.851 468.8645,542.4618 465.2311,535.0197 457.4384,516.707 450.1172,495.871 443.6365,474.241 437.4199,449.1891 432.8987,427.8088 429.2969,406.4688 426.2828,383.1263 424.1944,360.1744 423.2466,339.2505 423.2289,318.5353 424.1501,297.9795 425.9428,278.9885 428.5029,261.7593 431.8858,245.3735 436.0619,230.0437 440.8673,216.2908 446.43,203.7665 452.7901,192.3491 459.8608,182.218 467.5552,173.5526 471.4845,169.9322 475.6281,166.6477 479.6182,163.9665 484.0585,161.4856 488.6025,159.4489 493.2312,157.8601 497.9255,156.7228 502.6664,156.0408 507.4347,155.8176 511.8443,156.0221 516.612,156.6918 521.277,157.8091 525.8179,159.3346 530.6251,161.418 535.0416,163.7666 539.6807,166.6999 546.2725,171.7473 552.5591,177.6326 558.4816,184.3019 564.1017,191.8781 569.6504,200.7447 574.6915,210.2342 579.1943,220.2579 583.1281,230.7271 586.3574,241.1747 589.0,251.875 591.233,263.6121 592.9258,275.7879 594.0221,287.9655 594.5475,300.0849 594.5186,312.4585 593.9137,325.1301 591.9538,345.0 588.7773,364.9831 584.2532,385.7025 578.3835,407.2272 572.4704,425.596 564.6495,447.2301 540.2849,508.7718 534.1109,525.2246 527.3815,545.5331 522.2092,564.5406 519.5389,576.6123 517.6128,586.9464 514.2771,611.5013 512.6372,633.3599 510.3256,677.4894 508.7297,693.0126 507.7436,698.1112 506.5447,701.8279 504.9531,704.4844 503.125,705.75 501.0139,705.8704 498.6186,704.9471 495.0,702.125 492.5152,699.5926 485.838,690.9028 475.7731,674.6579 465.0652,654.819 456.0032,635.9944 445.556,612.4203 435.306,586.7464 426.5369,562.989 418.9493,540.4929 411.4252,515.9669 404.2409,490.2177 398.1162,465.9161 392.7335,441.8679 388.0327,417.7809 384.0719,393.9665 381.5783,376.3008 379.5377,359.1521 377.8759,341.9132 376.617,324.6786 375.7936,307.9174 375.386,291.3311 375.4014,274.9846 375.8427,258.9351 376.6828,243.6257 377.9111,229.0987 379.5877,214.6311 381.6593,200.6783 384.1751,186.9127 387.1449,173.3986 390.4766,160.5625 394.1414,148.4354 398.2364,136.7006 402.6302,125.7374 407.4445,115.2447 412.5629,105.5081 418.1844,96.1715 424.2067,87.4322 430.6061,79.3267 437.0929,72.165 444.1632,65.4094 451.2514,59.6134 458.9017,54.3486 466.5037,50.0537 474.3256,46.5442 482.3464,43.8526 490.5435,42.0036 498.6583,41.0016 505.4327,40.7573 512.6099,41.06 519.812,41.9267 527.0162,43.3471 534.1995,45.3107 541.3392,47.8072 548.4124,50.8263 555.3962,54.3575 562.2677,58.3905 568.6708,62.6773 575.2577,67.6591 581.5069,72.9674 587.7193,78.8306 593.9679,85.3541 599.744,91.9884 605.5196,99.2576 611.0396,106.8629 616.2942,114.7743 621.274,122.9618 626.151,131.7375 630.7093,140.7458 634.9381,149.9529 642.3639,168.8287 648.5755,188.7364 653.5891,209.622 657.3026,231.2346 659.6251,252.9983 660.5039,270.694 660.4868,288.3374 659.5324,306.8702 657.6905,325.331 655.0241,343.3632 651.4427,361.6023 647.047,379.512 641.7198,397.5869 636.3043,413.5757 630.3745,429.1969 623.7225,445.0331 616.0332,461.7821 600.9519,491.6375 570.7544,547.0019 560.6565,567.5744 556.2618,577.8197 552.8477,586.9297 550.118,595.6467 547.75,605.0 545.709,616.3288 544.6753,628.2336 544.7948,639.4442 545.9374,652.4409 548.4873,666.3206 552.0191,678.9624 556.8758,691.0574 558.9653,694.5245 559.592,695.2078 560.0469,695.2344 560.0,693.625 558.7317,689.1224 554.3931,678.6389 549.0977,667.53 538.891,648.1414 521.3102,617.93 487.4682,563.8374 483.5036,556.7589 482.8194,554.5093 482.9779,554.2503 483.445,554.3958 485.4629,556.2188 491.6627,564.3798 498.7698,575.6597 505.9005,588.4901 515.8401,609.1411 539.0808,663.3492 546.84,680.2551 552.3448,690.6482 555.9623,696.5688 559.4426,701.2255 560.6832,702.2629 561.75,702.625 562.302,701.438 562.0767,698.9688 558.7365,688.4778 551.6439,672.4699 545.125,659.5"/>
  </g>
</svg>
