<?xml version="1.0" encoding="utf-8" ?>
<svg xmlns="http://www.w3.org/2000/svg" xmlns:cc="http://creativecommons.org/ns" xmlns:dc="http://purl.org/dc/elements/1.1/" xmlns:ev="http://www.w3.org/2001/xml-events" xmlns:inkscape="http://www.inkscape.org/namespaces/inkscape" xmlns:rdf="http://www.w3.org/1999/02/22-rdf-syntax-ns" xmlns:sodipodi="http://sodipodi.sourceforge.net/DTD/sodipodi-0.dtd" xmlns:xlink="http://www.w3.org/1999/xlink" baseProfile="tiny" height="27.09333333cm" version="1.2" viewBox="0 0 1024.0 1024.0" width="27.09333333cm">
  <metadata>
    <rdf:RDF>
      <cc:Work>
        <dc:format>image/svg+xml</dc:format>
        <dc:source>vpype read './original_svgs/Strange Attractors #48.svg' linemerge linesimplify write './Strange Attractors #48.svg'
</dc:source>
        <dc:date>2024-08-05T01:35:22.292183</dc:date>
      </cc:Work>
    </rdf:RDF>
  </metadata>
  <defs/>
  <g fill="none" id="layer1" inkscape:groupmode="layer" inkscape:label="1" stroke="black" style="display:inline">
    <polyline points="290.375,469.875 230.2341,391.9892 209.5889,363.9853 189.0907,335.1466 175.4943,314.6153 165.8163,298.1837 162.8093,292.1556 161.0438,287.5675 160.5718,284.4955 161.2569,283.0864 162.2207,282.8571 163.6012,283.1412 167.6285,285.2915 173.326,289.5144 180.892,295.8561 201.6451,314.8506 265.5454,375.9052 295.1865,403.1471 313.9888,419.5857 332.7665,435.3204 351.2044,450.0746 367.9397,462.7653 383.3746,473.8165 398.5567,484.072 413.7701,493.7229 427.8357,502.0088 443.0707,510.2957 461.2673,519.4922 509.9318,542.103 521.758,548.8622 529.2082,554.0896 537.8704,562.1111 545.6861,571.3 550.6553,578.0555 572.2109,609.7085 578.653,618.0831 586.3751,627.3868 596.4328,638.169 604.6844,646.1754 615.75,655.75 625.0575,662.8989 639.98,672.8789 654.0745,680.9775 669.8333,688.5885 683.7035,693.889 699.1926,698.2682 706.6598,699.8596 714.0914,701.0409 721.2589,701.7722 728.1134,702.0768 735.0003,701.9692 741.4895,701.4603 750.6165,699.9789 759.3144,697.6268 767.4685,694.4606 775.3285,690.3473 782.5364,685.4239 788.9793,679.844 795.0072,673.3353 800.3049,666.2262 805.0469,658.2641 808.9414,649.956 812.3302,640.5502 814.9563,630.7172 816.8973,620.2259 818.1031,609.1558 818.5225,598.0071 818.1874,586.4779 817.0721,574.1079 815.1736,561.4674 812.5781,549.0663 809.2372,536.6578 805.282,524.7334 800.4383,512.5046 794.9458,500.5827 788.8435,489.0584 782.1783,478.0453 775.2155,467.9524 767.9635,458.734 760.0151,449.8511 751.7851,441.7611 743.0284,434.2593 734.0794,427.6731 724.9939,422.0367 716.8761,417.8592 708.6513,414.3574 700.4786,411.5619 692.017,409.3709 683.6679,407.9033 675.1065,407.1162 666.6667,407.0597 658.3603,407.6723 649.9693,408.9705 641.5371,410.9876 633.4527,413.6172 625.2763,416.9971 617.1691,421.0782 609.5931,425.5917 601.9149,430.9147 594.4916,436.8266 587.2338,443.3882 580.2521,450.5635 573.747,458.1703 567.7027,466.1963 561.8427,475.0162 556.6162,484.0082 551.8287,493.4606 547.8148,502.7801 544.0969,513.0765 541.4174,522.0841 539.1,532.2105 537.3935,542.4786 536.3933,552.5774 536.0651,561.3997 536.5268,572.6418 537.4566,581.3833 538.7712,589.1233 540.2544,595.3812 543.104,604.8445 545.757,612.0063 548.9091,619.0832 552.191,625.3755 557.6854,634.6557 561.8295,640.7601 568.5,649.5 573.3232,655.2926 579.8084,662.3592 586.8054,669.3423 594.876,676.637 604.5807,684.75 611.7389,690.229 620.511,696.4219 631.3797,703.6348 640.0001,708.8909 650.3018,714.6195 661.6594,720.411 670.337,724.4545 679.6299,728.2893 688.9972,731.6872 698.7325,734.7617 708.3969,737.3694 717.4575,739.3338 726.7604,740.8378 735.8724,741.7913 744.7296,742.2035 753.5929,742.0789 761.6383,741.4226 769.7011,740.1753 780.2667,737.5548 790.2961,733.8853 799.7043,729.2017 808.2923,723.6356 816.1981,717.1305 823.6234,709.4833 830.2378,700.9914 836.0103,691.749 841.138,681.3678 845.4076,670.2059 848.9195,658.0399 851.5474,645.3283 853.3021,632.2189 854.2162,618.4305 854.2493,604.4648 853.3748,589.6909 851.5356,574.1155 848.8345,558.6141 845.2561,542.9681 840.8166,527.3168 835.668,512.1664 829.7083,497.2203 822.9396,482.5055 815.4943,468.2995 807.431,454.7033 798.8079,441.8177 789.6836,429.7437 780.3547,418.8428 770.4251,408.6548 760.0646,399.3405 749.2041,390.8664 738.2123,383.5224 729.6856,378.6293 721.1517,374.4088 712.6416,370.8609 704.1022,367.9513 695.0454,365.5266 686.1231,363.7876 676.9757,362.6673 668.0148,362.2179 658.9008,362.4213 650.0341,363.267 640.9221,364.8096 632.02,366.9232 623.0985,369.6471 614.2011,372.9919 605.3722,376.9571 596.6575,381.5297 588.4747,386.4446 580.2541,392.0195 572.2799,398.0753 564.2987,404.8058 556.1308,412.3986 548.3332,420.3325 541.0329,428.4745 533.9912,437.06 523.0256,451.9945 512.3637,468.6903 503.0421,485.2077 482.833,524.4037 477.43,533.131 472.75,539.125 469.5934,542.2287 466.586,544.5573 463.3273,546.4764 459.9124,547.9299 456.276,548.922 452.463,549.4844 448.504,549.571 444.2635,549.1983 439.1613,548.2963 434.1322,546.9181 428.2997,544.8072 421.6158,541.9437 409.3514,535.534 394.82,526.5012 378.9535,515.1146 362.0577,501.8289 342.228,484.85 324.4225,468.5582 303.4253,448.0678 285.1166,429.168 259.8062,401.433 241.9499,380.7812 220.5184,354.2471 206.8365,335.9508 200.4016,326.4852 195.5,318.5 193.3317,314.1 192.6833,311.0167 193.147,310.2117 193.9435,310.0574 196.6762,311.1114 201.6803,314.539 208.9688,320.4062 221.859,331.7155 279.5381,384.5374 297.6163,400.6159 329.0743,427.17 355.1435,447.7622 382.1931,467.4113 404.6692,482.4476 431.4354,498.7659 464.4368,517.4272 476.2693,524.5527 487.2624,532.4193 490.9024,535.5507 494.5716,539.2449 499.0941,544.8136 503.1784,551.7602 506.0231,558.7845 508.2957,566.3879 509.9594,575.1918 511.337,585.4992 512.2888,595.5731 514.1267,625.6947 515.769,640.4254 518.5486,654.2461 521.9844,664.0156 524.8007,669.9895 529.4719,678.047 534.8707,685.474 542.5004,694.2867 548.3958,700.4651 556.0659,707.8209 568.0066,718.1792 575.4365,724.1375 593.1314,737.3209 608.4814,747.8213 625.1655,758.3607 642.3132,768.0856 661.8229,778.1482 678.9125,786.013 696.4844,793.023 713.9356,798.8824 730.225,803.267 745.8081,806.3904 761.1677,808.3714 775.9215,809.1702 789.8369,808.7654 803.1626,807.1561 815.735,804.391 827.801,800.4178 834.2831,797.6697 840.3186,794.6742 846.206,791.2983 852.0076,787.4673 857.4167,783.3928 862.6917,778.8953 867.8119,773.9676 872.5141,768.881 877.0405,763.3933 881.3735,757.4981 885.4954,751.1893 889.1897,744.8252 892.6639,738.0789 895.9029,730.9449 901.4761,715.919 906.0421,699.2457 909.4283,681.5076 911.6297,662.9092 912.6566,643.2356 912.4754,623.4488 911.0913,602.8881 908.5265,582.1768 904.7256,560.8114 899.6589,538.8179 893.4302,516.7649 886.2201,495.2253 877.9812,474.0311 868.925,453.7265 859.0627,434.3161 848.3426,415.6736 836.7126,397.716 824.2332,380.5957 811.2208,364.7575 797.779,350.2971 784.0112,337.3099 770.2816,326.0881 755.6173,315.8765 740.6586,307.1608 725.7655,300.0823 716.6122,296.4886 707.5312,293.4766 698.1969,290.9457 688.9802,289.0037 679.9014,287.6311 670.6535,286.7882 661.3736,286.4876 651.734,286.722 642.3316,287.4889 632.7937,288.8118 623.1559,290.7079 613.8098,293.0854 604.4181,296.0105 595.0217,299.476 585.7317,303.4321 576.131,308.0444 560.5743,316.6562 545.371,326.4912 530.1194,337.7906 514.8466,350.5274 497.8591,366.485 479.7014,385.5017 464.2145,403.203 435.338,437.9802 423.3171,451.0492 415.8671,457.7178 409.5617,462.1483 402.7985,465.4252 395.9657,467.27 390.4476,467.8086 384.8686,467.5175 378.2824,466.2921 372.3821,464.4707 365.1468,461.4413 357.0281,457.355 349.1531,452.7369 340.7526,447.1966 331.6504,440.439 319.8206,431.0133 310.2496,422.6548 299.9272,413.0603 286.8036,399.7716 280.2213,392.4765 273.3678,383.9886 271.6388,381.0431 271.3094,379.5313 272.3906,379.4375 274.6676,380.4916 285.3707,388.0633 334.6959,427.4291 381.1537,463.1629 391.9372,471.8316 398.9398,478.3102 402.125,482.125 403.2031,484.2656 403.3366,485.4831 402.604,486.5366 400.9497,487.0659 397.088,486.7975 391.4705,485.1357 382.4634,481.1976 376.0348,477.6578 364.9378,470.7548 352.1754,461.8373 344.5973,456.0472 332.3698,446.0687 323.03,437.9666 308.764,424.9091 287.4869,403.3782 278.0163,392.8824 271.565,385.0526 266.6251,378.015 265.709,376.0906 265.7434,375.0564 266.75,375.0 269.2018,376.1461 276.4072,381.0172 290.0009,391.5286 322.8886,418.141 345.0959,435.6318 381.1508,462.8272 396.5179,474.7972 404.2227,481.6985 408.7973,487.2824 409.4915,489.1589 409.4006,490.7966 408.625,491.625 407.0965,492.1549 402.3342,491.8911 395.375,489.875 389.193,487.2362 379.7958,482.4672 367.0858,474.5649 360.2512,469.9327 347.8094,460.6918 338.0064,452.8407 325.1875,441.9022 314.5,432.1868 300.9919,419.3479 290.2148,408.262 277.3966,394.4877 266.0732,381.2049 260.9061,373.7305 259.4717,370.8465 259.52,369.7574 260.561,369.5736 262.5072,370.3824 273.1058,377.6939 335.3028,427.9603 356.9575,444.638 391.6887,470.4464 405.0334,480.8153 412.7173,487.9884 416.125,492.7812 416.7367,494.7033 416.4729,496.5069 415.4222,497.5364 413.4491,498.1481 407.2078,497.7117 399.375,495.375 392.9853,492.6199 383.0323,487.3633 373.3282,481.492 362.9041,474.4668 348.0,463.375 338.6919,455.8831 323.1096,442.3973 311.4298,431.6898 296.3654,417.1712 283.9907,404.3333 270.7639,389.7725 259.1398,375.5347 253.4432,367.2511 252.1713,364.5364 252.2501,363.3098 253.7836,363.3753 256.1579,364.5876 264.6916,370.7117 274.7385,378.6835 312.2631,409.6332 338.7914,430.8323 365.9496,451.4957 400.8449,476.8507 414.4172,487.3704 421.6862,494.4105 423.81,497.1992 425.14,499.741 425.5,501.625 425.0156,503.5312 423.5,504.875 421.2665,505.5548 418.1619,505.6466 414.9655,505.3357 406.82,503.1983 398.7372,499.8669 388.662,494.7176 375.5204,486.8391 365.7228,480.2342 352.2612,470.205 339.3243,459.6467 323.273,445.7924 307.2963,430.8892 292.4156,416.1667 275.1403,397.9467 263.2075,384.4139 250.7469,369.1635 244.4942,359.8066 243.2269,357.0127 243.3357,355.6596 244.6149,355.509 247.0,356.625 252.0497,360.0255 258.3944,364.8285 315.0847,412.0137 332.7595,426.3479 347.9841,438.1853 367.1009,452.5351 406.0518,480.2192 423.5138,493.1717 428.7812,497.8438 431.9113,501.0432 434.6181,504.67 435.9776,507.5283 436.3281,510.6094 435.5,512.625 433.3251,514.3247 429.6075,515.3264 426.3904,515.3289 421.5329,514.7202 413.1739,512.4188 404.3001,508.8501 391.8098,502.3569 381.2044,495.8153 366.975,486.0928 352.0291,474.714 339.0519,464.1044 319.375,446.5 306.9562,434.7654 286.8355,414.6728 273.3634,400.2469 255.7941,380.3691 243.1306,364.4648 237.6349,357.0744 234.432,352.1652 232.339,347.9651 231.9714,346.5319 232.1083,345.7788 232.7074,345.5463 233.7666,345.7715 236.7959,347.3304 241.212,350.3726 247.7396,355.4593 260.3059,365.863 310.7067,408.9606 327.9954,422.9756 351.1023,441.1319 381.9005,463.6089 425.4359,493.4303 434.2344,499.8906 439.1767,503.8942 444.1891,508.6849 447.3996,512.4809 449.76,516.6722 450.5209,520.0497 450.0117,523.5281 449.25,524.875 448.0185,526.2176 446.4815,527.2824 444.5,528.125 439.9618,528.9566 435.8075,528.9861 432.137,528.5562 421.4017,525.7184 409.7032,520.7655 397.6033,514.2691 382.9448,504.9709 366.9183,493.3313 352.1574,481.7685 334.3693,466.5081 316.4502,450.0833 293.9534,427.9312 277.4001,410.5392 257.1976,388.196 241.1739,369.1546 227.2979,351.2901 222.1154,343.7553 218.433,337.6716 216.793,334.1075 216.619,333.1195 216.8553,332.2678 217.6194,331.9657 218.5339,332.1113 221.2258,333.3946 226.0378,336.7424 232.8981,342.1594 244.6737,352.1465 303.1166,403.2979 329.7223,425.3301 349.8213,441.2102 369.9663,456.1237 389.7223,470.0502 411.1244,484.2446 434.2598,498.9502 447.4919,507.7328 454.0749,512.5918 460.2627,517.8175 465.5821,523.6013 468.8306,528.6773 469.998,531.623 470.7757,534.6152 471.0,537.125 470.7457,539.9404 469.9827,542.5538 468.7302,544.9602 467.0539,547.0148 464.676,549.0601 462.4682,550.3576 459.902,551.329 456.903,551.995 453.6719,552.25 448.25,552.0 444.2227,551.3718 438.6999,549.9269 431.8409,547.6271 425.542,544.9478 417.805,541.1186 404.4079,533.3224 386.4287,521.0868 366.46,505.7478 350.3516,492.2626 329.4338,473.3616 309.3373,454.01 283.7597,427.6853 263.9873,406.0702 241.9934,380.7545 223.3762,357.8833 207.0784,336.2389 201.3562,327.868 197.0079,320.8591 194.0617,315.2732 192.9247,311.7792 193.0986,310.8324 193.7652,310.416 194.9183,310.5364 196.5515,311.1998 201.233,314.1809 207.9331,319.5093 222.7201,332.4685 269.0019,374.9904 301.3702,403.8381 330.4091,428.2135 359.2994,450.8984 383.4197,468.3177 407.5078,484.2636 427.9065,496.6015 462.7625,516.457 477.2518,525.1392 486.2217,531.7241 493.0936,537.8903 498.7888,544.7531 502.4906,551.0197 505.6369,558.4043 508.3349,568.125 509.7083,576.4398 511.0425,588.3328 512.0556,605.6204 512.9444,635.0185 513.6512,646.522 514.4444,654.2176 515.4752,660.7998 517.8438,670.1192 520.3193,676.3784 523.329,682.139 528.0558,689.411 537.6824,700.8722 543.944,707.279 559.1328,720.8508 573.2619,732.186 592.6522,746.4513 608.8204,757.2082 627.7086,768.8656 639.6221,775.6143 652.6417,782.5255 664.5877,788.4867 676.3557,793.8876 688.1747,798.8362 699.902,803.2935 712.1943,807.4962 723.364,810.8709 734.4436,813.7308 745.1418,816.0039 755.7384,817.7556 765.7812,818.9312 775.9902,819.6153 785.8089,819.7537 795.285,819.339 804.457,818.3768 813.2764,816.8837 822.0704,814.7856 830.4383,812.1641 838.3555,809.0586 846.1575,805.332 853.67,801.0381 860.6704,796.3015 867.227,791.1149 873.5767,785.2974 879.6839,778.8383 885.2858,772.0237 890.6002,764.5982 895.3944,756.8998 899.8681,748.623 903.9937,739.7594 907.5889,730.7242 911.415,719.1464 914.6463,706.8837 917.302,693.8611 919.3566,680.1331 920.7847,665.754 921.5492,651.1691 921.6709,636.068 921.1493,620.9161 920.0148,605.7939 918.2415,590.3401 915.8089,574.5626 912.7512,558.6178 909.0822,542.5425 904.8196,526.4119 899.9807,510.3013 894.583,494.2856 888.785,478.7978 882.4863,463.5427 875.7034,448.5905 868.6263,434.3455 861.118,420.5217 853.1784,407.1173 844.8462,394.1617 835.972,381.4505 826.8117,369.3696 817.1502,357.6553 807.2632,346.6643 797.189,336.4267 786.966,326.9728 776.6324,318.3325 766.2268,310.5361 755.6993,303.5482 745.736,297.6933 735.4445,292.3808 725.213,287.8148 715.0601,283.9687 704.6476,280.7155 694.3604,278.1762 683.8723,276.2688 673.2233,275.032 662.7912,274.5056 652.1323,274.6653 641.2225,275.5032 630.6367,276.9649 620.0036,279.0824 609.3638,281.8587 598.7596,285.2855 587.9033,289.4809 578.7924,293.5411 569.3229,298.2772 560.064,303.3828 550.5847,309.1052 541.593,315.0101 532.4735,321.4811 514.1455,335.9374 504.351,344.4204 494.9245,353.1029 475.9364,372.2006 458.2286,391.7501 424.5,431.125 415.1703,440.926 407.3574,447.8501 400.6845,452.5772 393.8791,455.9964 387.5532,457.7478 381.875,458.375 377.3931,458.2846 372.0933,457.4523 366.0404,455.8729 360.1406,453.7031 353.346,450.5554 347.4749,447.3624 341.0072,443.3039 330.8665,436.2505 318.6937,426.7542 312.1872,421.2127 302.7554,412.5506 294.7486,404.703 287.2409,396.5999 282.5909,390.6428 281.836,389.196 281.848,388.198 283.2196,388.436 286.2738,390.1301 298.0058,398.6471 377.2217,460.9712 386.3592,469.0623 389.9683,473.0791 391.1622,474.8699 391.5741,476.3426 391.1262,477.2905 390.2224,477.6557 386.5,477.25 381.0025,475.2917 375.188,472.5776 366.964,467.943 351.8807,457.7535 334.9041,444.6474 316.083,428.2458 296.4905,409.0554 288.4531,400.5764 282.98,394.1008 278.5358,388.1761 277.5815,386.3269 277.375,385.125 278.7359,385.1291 281.3612,386.4038 291.3066,393.3652 337.3473,429.7878 380.5942,463.338 389.2478,470.7716 394.5555,476.3589 395.6323,478.1589 396.1343,479.7966 395.6852,480.8152 394.463,481.2466 390.6846,480.9525 385.1991,479.1358 379.722,476.685 372.5436,472.8712 357.0245,462.9229 344.9221,454.0673 338.2508,448.786 325.2326,437.8147 317.0845,430.4633 304.4785,418.5293 291.262,405.1189 284.8606,398.1289 277.3333,389.1944 273.6408,383.7451 272.8385,382.0881 272.852,381.2412 273.9482,381.0823 275.6971,381.8602 284.9892,388.1001 331.8308,425.338 388.8519,469.4991 397.0415,476.9927 400.1602,480.8145 401.0926,482.6204 401.25,483.75 400.5751,485.0211 399.25,485.5 397.388,485.524 394.974,485.092 388.9959,483.2251 380.9547,479.4909 370.957,473.8266 363.3056,468.9418 352.6329,461.494 333.6233,446.443 323.4907,437.7778 312.8285,428.1268 290.9114,406.3453 279.2326,393.5814 273.3096,386.4491 268.5117,379.7539 267.6948,377.8029 267.8208,376.7583 269.4373,376.9046 272.3472,378.4491 282.02,385.558 343.7532,434.5939 376.9031,459.6375 393.254,472.4207 401.0437,479.2755 406.0084,484.9132 407.0727,487.1787 407.1296,488.6574 406.4079,489.6893 404.9109,490.2303 400.4167,489.9583 394.4532,488.271 387.5093,485.3287 379.0265,480.9666 367.3751,473.824 361.4091,469.7784 347.27,459.3586 337.0051,451.1462 324.6194,440.6461 312.2556,429.3624 300.5302,418.0899 287.8735,405.0559 278.5127,394.7885 268.0767,382.5007 262.6947,374.6546 261.8221,372.9453 261.8281,371.7796 262.91,371.6299 265.1632,372.6988 275.1631,379.6304 331.3025,424.8641 355.2824,443.355 387.6269,467.5096 401.4399,478.218 409.5962,485.7336 413.2787,490.5675 413.9634,492.3482 413.8896,494.184 413.0055,495.2821 411.083,495.9111 405.563,495.526 399.193,493.7232 392.1253,490.8178 382.3674,485.8266 373.0846,480.1733 361.9415,472.8226 350.3209,464.1701 339.5094,455.5247 323.8547,442.1672 314.9344,434.0952 298.8531,418.6584 287.4476,406.9634 273.4153,391.6478 262.4386,378.6131 256.6238,370.3653 254.9965,367.2093 254.8438,365.8477 255.9857,365.6539 258.3545,366.7144 268.691,373.9951 309.906,407.6565 339.1663,430.9856 361.6663,448.2501 396.954,474.157 410.9576,484.9515 418.2455,491.9602 420.4411,494.83 421.846,497.42 422.25,499.25 421.7656,501.0312 420.25,502.25 418.1268,502.7937 415.241,502.8259 411.9598,502.4369 404.5,500.375 396.4891,497.0427 386.2512,491.8391 373.125,483.75 364.5452,477.8892 349.5222,466.6664 337.7019,457.0694 321.661,443.1526 305.0696,427.5644 292.0816,414.6618 275.875,397.375 264.8315,384.8325 253.3301,370.6317 247.6564,362.2268 246.6007,359.9585 246.6502,358.621 247.9705,358.5391 250.4854,359.7318 259.5283,366.1159 268.8514,373.5453 315.2603,412.1286 337.5616,430.0431 365.5682,451.2526 405.1577,479.7033 420.0374,491.0354 428.0069,498.6328 430.8264,502.5346 432.0008,505.1313 432.0668,507.8499 430.875,509.75 428.7656,510.9062 425.3111,511.528 421.9577,511.4619 417.9858,510.8044 413.7344,509.7266 408.8479,508.0576 398.5324,503.588 386.0419,496.7865 375.7256,490.2335 361.7337,480.3415 350.3865,471.4992 334.9354,458.7646 320.3252,445.7156 303.5023,429.8326 287.49,413.6004 272.1814,397.2176 256.0122,378.6478 245.6587,365.6555 237.966,354.503 236.5382,351.4808 236.2884,350.3219 236.454,349.607 237.0382,349.3605 237.8235,349.5125 240.6658,350.9226 249.9553,357.6101 320.0275,416.3772 354.0618,443.1502 383.8558,464.8775 423.1968,492.1548 434.6343,501.0648 439.0119,505.3431 442.4769,509.5724 444.3301,513.1211 444.9434,516.0352 444.4667,518.8593 442.5851,521.238 439.7741,522.7121 435.6805,523.4011 431.8482,523.3463 426.4582,522.5849 422.0787,521.5651 417.4404,520.0459 407.0093,515.5894 392.6835,507.7997 381.3813,500.6421 366.1997,489.9482 353.2309,479.7359 336.7033,465.845 319.4827,450.2713 302.2229,433.7845 282.1897,413.2507 266.5167,396.253 246.8914,373.3441 234.0639,357.0765 228.4003,349.1513 224.8203,343.4922 222.9679,339.5164 222.7569,338.2723 222.9419,337.655 223.4477,337.3863 224.3171,337.4828 227.3309,338.917 231.4859,341.7114 236.8706,345.876 255.3578,361.5547 290.8257,392.5065 314.1551,412.2532 333.0047,427.5746 356.0657,445.4488 371.1417,456.5802 389.2762,469.2133 437.4697,501.1023 446.3141,507.6279 451.3422,511.7835 457.0456,517.7078 460.3096,522.4051 462.248,527.1621 462.5204,529.294 462.4375,532.0781 461.9189,534.2908 461.0793,536.0044 459.9219,537.4844 458.0959,539.0247 456.141,540.191 453.7649,541.1295 451.003,541.7511 447.7793,542.043 443.2881,541.8531 437.888,541.092 433.4321,539.975 427.7277,538.0605 421.859,535.731 415.9061,532.9479 401.41,524.9638 386.2636,514.982 371.4731,504.1216 350.5052,487.1046 334.0577,472.6714 312.4553,452.3987 292.3727,432.2164 270.5161,408.9932 249.5198,385.157 230.7015,362.4543 214.5126,340.8575 209.1088,332.9388 205.2608,326.4994 203.2797,322.0244 203.0393,320.5407 203.3199,319.8011 203.9477,319.5841 204.9297,319.7539 208.25,321.4375 212.7305,324.5731 218.5322,329.208 236.6499,345.0086 281.0353,385.0464 307.1684,407.8756 330.1259,426.9962 355.5376,446.8711 377.9199,463.2515 403.7479,480.6129 418.5036,489.9223 454.2976,511.3551 464.1735,517.6687 472.605,523.7539 479.2195,529.6535 483.0156,533.9399 486.3342,538.7711 488.3546,542.6742 490.1709,547.8032 491.1223,551.8801 491.4782,556.9594 491.3402,560.7498 490.5138,566.0918 489.3441,570.1523 487.5333,574.06 485.2445,577.2791 482.5147,580.0449 479.3487,582.1362 475.73,583.58 472.0767,584.3455 467.9162,584.4866 462.5358,583.9917 457.237,582.792 450.0781,580.437 443.4985,577.6381 434.9042,573.3382 428.3215,569.6409 409.4729,557.3403 391.3165,543.6721 369.3171,525.5566 345.8936,504.5513 324.2416,483.8314 297.2771,456.4678 274.6684,432.1493 246.8666,400.532 224.2235,373.2513 198.4571,340.2375 180.775,315.7269 173.3639,304.4781 167.7265,295.0183 164.4227,288.2031 163.5097,284.3528 163.8952,283.2828 164.7032,282.9683 165.9602,283.1931 167.6728,283.9708 173.0217,287.6242 180.753,294.0126 200.4022,312.0406 264.8056,373.876 293.1463,400.055 312.6579,417.2188 332.1397,433.6779 350.8422,448.8268 367.0266,461.1849 381.8848,471.8633 397.1305,482.2067 412.4189,491.9986 426.5252,500.4148 441.4213,508.6528 457.7862,517.0832 495.6127,534.7775 507.304,540.5491 518.8203,547.1614 527.125,553.125 532.4647,557.7168 536.199,561.3623 544.0283,570.9229 547.789,576.1805 568.333,607.564 577.625,620.0 582.5227,626.0205 592.4924,637.0402 600.1094,644.6406 610.583,654.0564 620.1406,661.6875 633.1722,671.0593 643.3924,677.556 657.0043,685.0462 669.5621,691.0045 682.3343,695.9818 695.2718,699.9863 706.9118,702.6002 718.9549,704.2681 729.3103,704.8544 739.0959,704.6021 748.4772,703.4564 757.7775,701.3523 766.5016,698.3668 774.5035,694.5835 781.8343,690.006 788.8301,684.4356 795.1092,678.1657 800.8649,670.9839 805.6628,663.4779 810.0175,654.8811 813.754,645.3999 816.7044,635.4825 818.9489,624.8651 820.3831,614.0353 821.0609,602.2689 820.9055,589.8919 819.9096,577.1091 818.073,564.0495 815.4866,551.2313 812.1716,538.6032 807.9709,525.6076 803.0264,512.7782 797.5453,500.5937 791.6209,489.1496 785.1404,478.2075 778.0316,467.7258 770.3904,457.8335 762.1065,448.4159 753.4857,439.8455 744.5944,432.1639 736.6446,426.2041 728.7188,421.0583 720.5257,416.4917 711.968,412.4958 703.4371,409.2759 694.9688,406.8222 686.5992,405.1249 677.9025,404.135 669.1158,403.8554 660.2047,404.2973 651.2214,405.5062 642.5765,407.4238 634.2471,410.0085 625.4509,413.5149 616.8315,417.7342 608.7404,422.4536 600.5649,428.0208 592.617,434.2779 585.1681,441.0529 577.9209,448.5996 570.7014,457.1045 564.278,465.6838 558.1277,475.0702 552.3596,485.0918 547.58,494.8748 543.1277,505.6387 539.865,514.9192 537.0443,524.9365 534.7499,535.4638 533.0506,547.0531 532.2303,556.0151 532.0,566.125 532.2996,573.9461 533.2231,583.0538 534.3521,590.3934 536.0183,598.2478 537.9242,604.9108 540.9998,613.9239 546.91,627.0738 550.5624,633.6056 555.9466,642.0455 566.5602,655.9093 578.1007,668.5714 583.7455,674.1742 589.959,679.7619 608.4635,694.8062 617.6304,701.3437 628.8776,708.8176 637.7472,714.2683 647.2934,719.6411 657.4826,724.9191 667.7652,729.8205 677.6007,734.024 687.5741,737.8056 697.5991,741.1313 707.6893,744.0003 717.0557,746.1861 726.3312,747.8677 735.4278,749.0289 744.659,749.6837 756.9404,749.6671 768.7118,748.5339 780.1406,746.2383 791.0757,742.7829 801.0447,738.3683 810.5364,732.7892 819.0976,726.2438 827.1658,718.4161 834.3998,709.6069 840.7603,699.9255 846.4072,689.0865 850.9924,677.7844 854.8449,665.2428 857.7646,652.0609 859.8025,638.0013 860.881,623.5545 861.0008,607.9953 860.1113,592.3019 858.1735,575.6599 855.2939,559.0604 851.4584,542.3021 846.6839,525.5407 841.1239,509.2983 834.6791,493.3018 827.2871,477.4581 819.1477,462.1873 810.3368,447.6105 800.9307,433.849 791.2362,421.3041 781.1168,409.7668 770.4882,399.1789 759.3087,389.4881 750.4793,382.7789 741.2486,376.5907 731.9658,371.1734 722.6671,366.5239 713.3883,362.639 704.1431,359.5082 694.5922,357.0099 684.8192,355.1965 674.8629,354.1107 665.1366,353.7839 655.2992,354.1863 645.7503,355.2808 636.094,357.0951 626.0545,359.7267 616.4663,362.9652 606.6366,367.0455 597.3123,371.6489 588.1777,376.8681 578.9462,382.8664 569.6999,389.6348 561.1431,396.6334 552.7032,404.2769 543.9309,413.0308 535.5535,422.1469 522.9485,437.5259 510.5333,454.9648 498.668,474.0141 477.1139,511.8946 471.3663,520.331 465.6576,527.0019 462.6514,529.7162 459.3229,532.1265 456.0483,533.9669 452.605,535.3668 448.9378,536.3694 444.9516,536.9327 440.7253,537.011 436.3321,536.6756 431.83,535.8949 427.0213,534.6128 415.9082,530.4043 403.4213,524.0745 390.2544,516.0847 374.4766,505.1305 361.8446,495.4412 341.5775,478.4725 326.49,464.8948 304.9623,444.2303 287.9341,426.9377 265.8009,403.1946 249.1833,384.2289 228.7648,359.4287 215.5856,341.9493 209.7901,333.4635 205.963,327.1896 203.945,322.6527 203.7379,321.2382 203.9681,320.5447 204.5567,320.2579 205.5098,320.3937 208.92,322.165 214.1724,325.866 221.0979,331.4114 281.735,385.6367 301.5419,402.969 328.501,425.6207 351.7551,443.9062 374.2072,460.5103 390.8004,472.0589 416.2452,488.4974 460.809,515.5004 471.3372,522.9672 478.1603,529.0148 481.9234,533.183 484.625,537.0 487.2189,541.9589 488.9723,546.9049 490.0869,552.2465 490.2416,556.9073 489.9184,561.6114 488.6825,566.5283 486.9463,570.7272 484.5201,574.5468 481.5856,577.5345 478.437,579.6444 474.9706,581.1611 470.7649,581.9787 466.284,582.112 461.1201,581.5116 455.4683,580.2682 450.0345,578.4763 442.375,575.25 435.6105,571.8964 418.8509,562.0924 401.0408,549.6224 382.6026,535.3427 359.5863,515.7394 338.633,496.5311 315.5324,474.0743 291.0279,448.7372 264.8819,420.1811 241.7476,393.3668 217.5236,363.7877 196.4069,336.3364 179.0847,311.895 173.255,302.7798 168.8013,294.9536 166.1986,289.2103 165.631,287.2053 165.5738,285.8235 166.0634,285.0909 167.0239,284.9942 170.646,286.5869 176.336,290.5876 183.4907,296.512 202.1452,313.7181 260.5293,369.6941 295.4755,401.7811 315.1388,419.0938 331.4075,432.8196 348.7775,446.774 366.3382,460.1628 381.7009,471.274 395.4299,480.6431 409.9843,489.969 425.2692,499.1528 439.3467,507.1257 453.0959,514.3538 495.4253,534.6029 506.9292,540.4857 516.6337,546.1929 526.1831,553.3018 533.4061,560.2855 539.9978,568.1484 546.4469,577.6115 559.7629,598.9273 567.875,611.0 573.7138,619.0357 581.7957,629.26 589.5101,637.9199 598.6408,647.2064 607.9944,655.5781 618.6888,664.3096 630.7758,672.906 644.2918,681.5521 656.5838,688.2153 670.6605,694.7919 683.1859,699.6367 696.4826,703.7101 709.2125,706.6133 721.1388,708.2268 731.3919,708.7074 741.7139,708.303 751.3013,707.0291 760.4041,704.8631 768.9936,701.8427 777.3214,697.839 784.9624,693.0137 792.0222,687.2827 798.3921,680.7738 804.2523,673.2917 809.3075,665.1983 813.5064,656.7004 817.2371,646.928 820.1754,636.6339 822.3922,625.5988 823.7932,614.3033 824.4102,602.4644 824.184,589.9464 823.1146,576.9764 821.2125,563.6893 818.4778,550.2233 815.0208,537.0909 810.909,524.4172 805.9523,511.6567 800.1936,498.9295 793.9801,486.9873 787.1973,475.5621 779.8813,464.7446 772.2982,454.9039 763.9343,445.4033 755.097,436.6017 746.0092,428.7216 737.934,422.6311 729.444,417.0959 720.8774,412.3764 712.1509,408.4179 703.0463,405.0838 693.6737,402.4791 684.4431,400.7321 675.3831,399.8141 666.5223,399.6965 657.1418,400.395 647.9125,401.8627 638.7111,404.1325 629.9369,407.0881 621.5964,410.6586 612.5646,415.3694 604.0383,420.6282 595.5286,426.7596 587.4234,433.5292 578.831,441.7437 570.8392,450.4445 563.985,458.9869 557.4188,468.3547 551.3969,478.1435 545.6266,488.8482 540.8735,499.2412 536.4795,510.836 533.191,521.3585 530.375,532.75 528.6505,542.0345 527.0241,554.7145 526.4676,564.5779 526.417,575.3666 527.0093,584.8225 528.0331,592.8279 529.4759,601.0547 531.9432,611.1019 533.6829,616.4583 537.3536,625.9989 543.9431,639.1337 547.9547,645.622 553.1035,653.1191 558.5118,659.99 564.8999,667.445 579.651,682.4037 595.2563,695.82 603.5508,702.2875 613.0381,709.0952 624.6531,716.875 634.0475,722.683 645.2346,729.028 657.2742,735.3228 667.3862,740.1767 677.6196,744.5934 688.0331,748.607 698.5293,752.1814 708.6788,755.1775 718.425,757.557 728.0953,759.4226 737.9965,760.8073 747.69,761.6271 756.9438,761.8869 769.4687,761.2447 781.3024,759.4445 793.0491,756.3607 803.8684,752.196 814.0086,746.9189 823.5036,740.465 832.2646,732.8802 840.2039,724.2411 847.2569,714.6293 853.3797,704.1303 858.6265,692.665 863.0387,680.2002 866.6227,666.663 869.2487,652.5166 870.9193,637.9055 871.6526,622.5364 871.3801,606.3356 870.0417,589.2546 867.6562,571.7046 864.3236,554.2281 860.0227,536.6221 854.7708,519.0451 848.727,502.0225 841.9153,485.562 834.2677,469.4437 825.7155,453.5832 816.492,438.4631 806.6687,424.2024 796.5478,411.1972 785.9888,399.2392 774.6457,388.0069 763.1127,378.0071 753.9616,371.0066 744.425,364.5386 734.8485,358.8579 725.2638,353.9643 716.0205,349.9821 706.512,346.6366 696.4137,343.8852 686.5319,341.9318 676.4523,340.6813 666.5925,340.1768 656.6065,340.3878 646.5453,341.3371 636.466,343.037 626.3034,345.5013 616.1249,348.6881 606.0629,352.5712 598.1682,356.1475 590.2816,360.2014 582.4428,364.7222 574.8884,369.5523 566.9859,375.0791 559.2313,380.9948 551.6645,387.2727 544.3234,393.8754 535.2268,402.8077 526.1147,412.5887 517.2807,422.9155 508.48,434.0563 501.4509,443.6366 494.2304,454.1588 469.8562,491.8771 463.7221,500.3122 458.6227,506.3962 455.0608,509.9583 451.5204,512.9313 447.9865,515.303 444.2817,517.1715 440.73,518.4577 436.7712,519.341 432.6093,519.7333 427.6586,519.6615 419.2712,518.2128 409.0623,515.0265 398.6564,510.2835 386.8042,503.7181 373.8742,495.3506 361.1268,486.2624 345.8853,474.1102 329.8504,460.4748 312.3912,444.3771 296.0021,428.4169 276.5288,408.0704 260.1468,390.0115 241.204,367.6301 230.0641,353.273 225.1489,346.244 221.6209,340.5799 219.8103,336.6914 219.5736,335.451 219.7922,334.7025 220.4736,334.4632 221.2927,334.628 224.3937,336.2268 229.2338,339.5684 235.594,344.547 305.4625,405.1986 327.7858,423.6875 349.1233,440.4026 369.1639,455.3945 386.6353,467.694 404.3251,479.6278 443.1129,504.7937 451.7037,511.2152 456.6187,515.3833 462.3848,521.734 464.1531,524.3696 465.5586,527.248 466.6038,530.2402 467.0,532.75 466.9001,535.5193 466.2915,538.0641 465.1445,540.5371 463.7339,542.3806 461.5909,544.2025 459.0932,545.5753 456.1274,546.576 452.8201,547.2094 449.4526,547.3567 445.6599,547.1065 441.0666,546.3585 435.5452,544.8783 429.1187,542.6908 423.189,540.2074 409.6701,533.2025 394.6043,523.7474 378.6222,512.4267 357.9951,496.1904 343.4531,483.6719 323.8306,465.6659 303.6702,446.0403 280.6064,422.2243 261.6449,401.3683 241.335,377.8003 223.8252,356.009 208.078,334.7672 203.1473,327.2989 199.5793,321.1029 197.8206,316.9205 197.6726,315.7471 197.9709,315.0623 198.7008,314.8373 199.854,315.0734 202.9704,316.6648 207.3842,319.7626 213.4862,324.7101 230.5207,339.6267 276.363,381.2402 304.6441,406.1913 329.7479,427.1489 356.694,448.3258 379.503,464.9557 404.0168,481.4789 421.7032,492.3615 458.607,513.971 471.8152,522.2476 480.6175,528.7458 487.049,534.5782 490.8652,539.2605 494.1244,544.2492 496.7699,549.7361 498.4817,554.7917 500.028,562.3154 500.5903,568.939 500.5293,574.25 499.5822,582.75 497.872,589.309 495.8524,594.4254 493.2333,598.7956 490.305,601.8797 486.4336,604.357 482.4006,605.6845 477.4275,606.0372 472.0265,605.5326 465.687,604.0025 460.5188,602.2066 452.632,598.6197 444.9843,594.5889 436.4746,589.416 426.314,582.722 405.816,567.5778 386.1509,551.4891 361.4737,529.7068 337.3748,506.8228 312.4947,481.9133 285.1821,452.7351 256.277,420.363 229.9742,389.2281 205.0419,358.1063 181.0493,326.21 170.2418,311.0271 161.4611,298.0878 154.6481,287.2348 149.6303,278.2837 146.5702,271.5592 145.8065,269.0502 145.6334,267.3424 145.9707,266.4019 146.9182,266.0209 148.2582,266.2801 150.3173,267.2395 155.7684,270.9636 163.2089,277.1584 185.4167,298.1555 255.4178,367.1841 275.6923,386.4887 295.0392,404.3776 316.7369,423.6999 336.5899,440.4808 357.2907,456.9932 377.5534,472.1801 395.1344,484.5227 411.6859,495.2308 429.0058,505.4834 447.6411,515.5527 462.414,522.8572 477.8089,529.7712 494.9656,536.8734 517.9607,545.7754 528.6617,550.3282 537.0071,554.272 544.0368,558.2566 553.5152,564.795 562.8274,572.9938 572.3196,583.304 593.8779,608.6038 606.0028,621.383 611.6072,626.7312 619.1692,633.2977 626.5135,639.3817 633.42,644.55 643.4535,651.3195 651.4041,656.0975 661.2188,661.2106 672.1041,666.1701 680.9616,669.4483 690.5682,672.2684 700.317,674.4884 708.8657,675.7361 717.2204,676.2462 725.5984,676.047 733.424,675.1583 741.1006,673.4849 748.6504,670.9752 755.6127,667.7877 762.0825,663.9121 767.7425,659.5583 773.0644,654.4162 777.9602,648.506 782.136,642.1985 785.6729,635.4571 788.8473,627.7125 791.3572,619.6552 793.2874,611.0456 794.5798,601.9526 795.1788,592.3726 795.0623,582.3077 794.237,571.9036 792.7697,561.6635 790.6432,551.3296 787.8576,541.0108 784.457,530.8585 780.3267,520.5343 775.7754,510.8182 770.7044,501.4513 765.1472,492.5341 759.2718,484.3179 752.7574,476.3004 745.9088,468.9099 738.7721,462.2028 731.3935,456.2354 725.5261,452.1475 719.2371,448.3241 712.9389,445.0121 706.64,442.2087 700.3492,439.9109 694.0749,438.116 687.8259,436.8211 681.3217,435.9808 674.613,435.6071 668.0751,435.73 661.3477,436.3709 654.8298,437.5051 648.492,439.1115 642.142,441.2232 635.7414,443.8787 629.6603,446.9277 623.5737,450.5308 617.6987,454.5699 612.1138,458.9925 606.6783,463.9214 601.1845,469.609 596.1159,475.5638 591.6034,481.5629 587.3827,487.9556 583.5005,494.7192 580.0991,501.61 577.2409,508.441 574.6265,515.9142 572.6258,522.8122 571.1368,529.5978 570.0287,536.9786 569.291,544.9231 569.239,557.2408 570.5281,569.3003 571.877,575.9831 573.6853,582.9747 577.6648,594.0386 583.3735,605.994 591.125,618.375 598.8373,628.4251 609.1311,639.8013 620.2581,650.0713 632.2571,659.5869 648.0344,670.0405 660.6413,677.0606 675.4349,683.7508 688.8276,688.5075 703.2511,692.1016 717.1752,694.1251 726.5644,694.5562 736.0385,694.146 745.1179,692.8773 753.4533,690.8479 761.4948,687.9406 768.9572,684.26 775.7869,679.8838 782.25,674.625 788.0693,668.6674 793.4232,661.8186 798.0413,654.4404 802.0845,646.2858 805.3475,637.7781 808.0668,628.2072 810.0165,618.4122 811.2994,608.0261 811.8679,597.1357 811.6742,585.8278 810.6816,574.2485 808.9085,562.236 806.3957,550.0777 803.2526,538.2626 799.4139,526.5338 794.8797,515.0015 789.7872,504.0098 783.9094,492.9942 777.4904,482.4747 770.5815,472.537 763.47,463.5456 755.9938,455.2586 747.7655,447.317 739.5198,440.4106 732.3588,435.1899 725.1028,430.5871 717.7808,426.6101 710.4221,423.2669 702.6712,420.4169 694.5974,418.1097 686.6408,416.4902 678.8196,415.5328 671.1522,415.2121 663.3044,415.5311 655.5221,416.4836 647.5316,418.0952 639.8799,420.2691 632.209,423.0957 624.8727,426.428 617.3073,430.528 609.7813,435.3303 602.8008,440.5095 596.0444,446.2617 589.3597,452.7462 583.3161,459.4153 577.4389,466.7669 571.6921,474.8944 566.8993,482.6647 562.2866,491.3331 557.7744,501.1125 554.5144,509.4847 551.6864,518.3048 549.4878,526.7846 547.9543,535.0116 546.6722,545.3796 546.1635,554.2368 546.2098,561.6469 546.6266,568.2452 547.5845,575.8671 549.0309,584.159 550.706,590.8086 553.2416,598.8242 555.4306,604.474 558.4503,611.1015 561.723,617.538 565.367,623.767 570.4841,631.653 574.8578,637.6435 586.242,651.09 599.2324,663.8676 613.3899,675.8726 629.2379,687.3481 646.8329,698.0441 656.0465,703.0522 664.6072,707.2409 681.9081,714.3911 691.0654,717.5504 699.5347,720.0493 707.925,722.0969 716.5347,723.7502 724.9311,724.9127 732.9776,725.5909 744.1781,725.7175 754.721,724.8663 765.2168,722.9648 774.807,720.1614 784.0983,716.2866 792.6511,711.5097 800.5479,705.8352 807.9955,699.0566 814.6259,691.4515 820.4327,683.0789 825.635,673.6481 830.0185,663.5506 833.5691,652.9264 836.3695,641.4965 838.292,629.7359 839.4215,617.0195 839.7084,603.0082 839.087,588.8141 837.558,574.2127 835.1801,559.7244 832.0083,545.4831 827.8546,530.7646 822.9218,516.322 817.215,502.1242 810.7799,488.3018 803.8482,475.311 796.3099,462.9221 788.1524,451.151 779.4311,440.0402 770.0568,429.5214 760.3426,419.9739 750.359,411.4468 741.5998,404.9595 732.7912,399.3201 723.7846,394.3778 714.4306,390.0761 705.1237,386.6085 695.8981,383.9537 686.4406,382.0346 677.146,380.9458 667.2462,380.6201 657.4661,381.0858 647.6483,382.3594 638.1954,384.3693 628.7702,387.162 619.2718,390.7961 609.9971,395.1461 600.9669,400.1827 591.9075,406.0707 583.1843,412.5566 574.9014,419.5148 566.75,427.25 558.6293,435.9074 550.629,445.3993 543.7364,454.566 537.1294,464.4245 531.7377,473.3332 526.7842,482.2731 522.165,491.4397 518.1852,500.1851 509.4006,523.0169 497.0138,561.129 492.7602,571.0308 488.4883,577.9062 486.0374,580.8334 483.7183,582.8641 480.4098,584.9336 476.9688,586.375 473.4904,587.1382 469.4274,587.422 465.1961,587.1425 460.4336,586.3632 454.5501,584.6217 446.3116,581.3775 440.3636,578.588 433.4419,574.8666 425.6978,570.3005 418.0198,565.323 398.2948,551.2161 379.924,536.428 358.4265,517.7846 334.6722,495.6158 312.8011,474.0402 287.3063,447.3427 263.5086,421.0931 237.835,391.1225 213.6958,361.4895 192.14,333.2799 175.1664,309.2274 168.5927,298.9069 163.8227,290.5279 161.0405,284.4385 160.4974,282.5806 160.4416,281.1102 160.8724,280.3901 161.9258,280.1826 165.0873,281.4184 169.923,284.6756 176.389,289.9669 199.1612,311.0055 260.9304,370.5959 298.319,405.0784 316.1008,420.732 333.934,435.7143 352.1387,450.2823 369.8096,463.7048 384.5328,474.259 399.8626,484.5451 415.7228,494.4899 432.2485,504.1943 446.0002,511.6647 460.987,519.1763 477.2261,526.8512 500.2709,537.102 512.4583,543.0155 522.3165,548.6818 532.5018,555.8853 539.9693,562.8703 546.4821,570.2949 553.3459,579.3885 567.5101,600.1785 576.3408,612.2917 582.07,619.6112 588.9797,627.6947 596.6266,635.7998 606.5416,645.2239 615.5,653.0 625.0752,660.5345 636.033,668.138 649.3318,676.1711 660.2135,681.9776 671.6401,687.0878 684.4213,691.8563 695.8711,695.2317 707.7745,697.7547 719.6214,699.2828 728.9837,699.663 738.4233,699.1688 747.8378,697.7546 756.7572,695.4893 764.9054,692.4677 772.4991,688.6376 779.4777,684.0911 786.0711,678.6625 792.0319,672.499 797.4647,665.4422 802.1898,657.7632 806.3453,649.2535 809.7247,640.3444 812.4352,630.7507 814.3679,620.8813 815.65,610.2993 816.2365,598.8077 816.0561,587.2437 815.1073,575.3381 813.3743,563.2768 810.7491,550.5333 807.4419,538.0893 803.4094,525.7184 798.6721,513.5559 793.4196,502.0786 787.6083,491.151 781.0117,480.2852 773.9176,469.986 766.3872,460.347 758.7337,451.7274 750.7838,443.9007 742.2569,436.6599 734.8012,431.1466 726.9262,426.08 719.3182,421.8823 711.3476,418.1885 703.3774,415.1957 695.3613,412.8821 687.0895,411.1825 678.9722,410.1735 670.6573,409.8145 662.5598,410.1256 654.3534,411.1183 646.1862,412.7893 637.8937,415.1435 629.9888,418.0422 622.1325,421.6077 614.3715,425.859 606.4988,430.956 599.0787,436.5215 591.9908,442.6395 585.2344,449.3098 578.4024,456.962 571.9413,465.1402 566.0462,473.6116 560.8238,482.1695 556.0007,491.3297 551.65,500.9659 548.5066,509.1901 545.6917,518.2613 543.1471,528.1885 541.435,537.252 540.0907,548.0598 539.6008,557.6943 539.67,565.5886 540.1013,572.1369 541.1348,580.3757 542.3323,586.8609 546.3566,601.5767 552.5912,616.6233 556.1607,623.3953 560.8371,631.2808 565.0392,637.5018 570.4669,644.7797 575.3498,650.672 581.6086,657.5421 587.7212,663.8867 593.8459,669.653 610.7089,683.7961 618.876,689.8527 628.0862,696.1687 636.8082,701.708 645.7719,706.9081 655.3361,711.9889 665.194,716.7855 674.2441,720.7371 683.758,724.4121 693.3197,727.6418 703.237,730.5218 711.8849,732.6056 720.3598,734.2028 729.0066,735.3689 737.3986,736.0367 749.3509,736.153 760.3685,735.2429 771.0107,733.2568 781.5368,730.1008 791.1,726.0409 800.2195,720.8863 808.3611,714.9008 816.0726,707.712 822.9928,699.6244 829.0701,690.7547 834.4603,680.8292 838.8876,670.3514 842.6167,658.7727 845.5504,646.2505 847.5777,633.2674 848.7137,619.973 848.9699,605.6412 848.2587,590.7823 846.6079,575.5209 844.0271,559.9403 840.5259,544.1972 836.2294,528.822 831.0739,513.587 825.2305,498.9952 818.4727,484.4314 811.0087,470.3784 802.7017,456.6339 794.0171,443.9705 785.0626,432.4456 775.6712,421.8204 765.3236,411.5515 754.7221,402.3726 746.1014,395.8301 737.0797,389.8182 728.3133,384.764 719.2113,380.3194 710.0158,376.6514 700.1889,373.5466 690.5284,371.2674 681.0468,369.7737 671.3893,369.0102 661.9531,369.0073 652.4034,369.761 642.855,371.2716 633.2457,373.5262 623.6898,376.5196 614.2387,380.2422 604.9458,384.6674 595.8235,389.7736 586.8065,395.5664 578.1321,401.8968 569.8207,408.7288 561.6303,416.2583 553.2091,424.8442 545.3215,433.7278 537.8148,443.0745 526.1814,459.5312 515.7532,476.8527 510.3357,487.0597 504.3199,499.2817 487.8248,535.4906 482.6872,544.5825 477.8182,551.2102 474.894,554.1867 472.1304,556.3755 468.5336,558.4704 465.0779,559.8933 461.453,560.7183 457.0512,561.1101 453.1732,561.032 449.0898,560.5001 443.0,559.125 438.1349,557.5847 432.1454,555.1865 424.616,551.694 412.3383,544.829 396.9122,534.7998 380.551,522.6229 362.2817,507.8578 339.1428,487.522 322.3005,471.7278 299.4919,448.8632 278.1961,426.4166 253.817,399.2801 234.5938,376.6895 212.3023,348.6292 196.8817,327.7434 190.6673,318.4112 185.9692,310.5515 183.2423,304.8725 182.6537,301.817 183.1033,300.9964 184.1119,300.8216 187.347,302.1836 192.4961,305.8014 199.7015,311.6849 214.294,324.6715 263.7689,370.968 296.7135,400.8603 330.0797,429.1962 346.7106,442.6013 360.7724,453.4124 385.3629,471.074 409.5798,487.0793 423.3482,495.3565 440.375,505.0 469.2528,520.3909 485.1538,529.2126 495.7505,536.072 503.6347,542.3194 508.5183,547.1964 512.167,551.4901 516.0096,557.1348 519.0599,562.3188 524.6476,574.5342 531.4632,592.7212 537.7662,608.3767 544.0052,621.1181 548.5348,629.1751 551.8896,634.4496 561.004,647.1883 573.4419,661.7207 587.6393,675.6536 601.0254,686.9895 617.6429,699.4607 637.0701,711.9706 654.0955,721.3173 673.3891,730.3371 690.5998,736.9142 708.3287,742.103 717.0685,744.0987 725.0305,745.5446 733.1824,746.618 741.4776,747.2759 754.0874,747.3889 765.9916,746.4248 777.101,744.4147 787.7686,741.2784 797.8786,737.0333 807.3178,731.7155 816.0,725.375 824.1142,717.8341 831.4621,709.2617 837.9754,699.77 843.6061,689.4681 848.4737,678.0647 852.3052,666.1897 855.2905,653.4014 857.4254,639.7018 858.6677,625.1999 858.9749,610.0046 858.3048,594.2248 856.6713,578.3913 854.0082,561.9997 850.3186,545.2266 845.7712,528.7676 840.1992,512.0586 833.879,495.989 826.9005,480.6948 819.0582,465.7498 810.4393,451.2778 801.2326,437.5912 791.5096,424.7873 781.3416,412.963 770.8,402.2153 760.0024,392.6784 751.3111,385.9623 742.2194,379.7476 733.088,374.2961 723.6069,369.4369 714.1452,365.3744 704.7345,362.0962 695.075,359.5147 685.6319,357.7504 675.5912,356.6253 665.7977,356.2603 655.8878,356.6296 645.9084,357.7577 636.2615,359.578 626.625,362.125 616.7331,365.4941 606.9965,369.5702 597.7869,374.1548 588.7726,379.3603 579.6967,385.3461 570.5265,392.153 561.719,399.41 553.0702,407.3003 544.6453,415.7874 536.4797,424.8174 524.4578,439.7157 512.7378,456.3519 499.0824,478.937 478.9541,515.2334 472.9259,524.2391 467.3123,530.9198 464.3029,533.6451 461.0209,536.0241 458.016,537.679 454.5004,539.0612 450.8122,540.0216 446.8767,540.5497 442.6456,540.6068 438.1744,540.2069 433.8223,539.3838 428.8139,537.9821 417.0925,533.5049 402.4038,525.7825 390.5993,518.4536 373.493,506.2975 360.1847,495.8659 340.3887,478.9952 321.6339,461.9458 303.0366,443.9233 283.9293,424.2094 262.0285,400.5156 245.2104,381.052 225.2124,356.4833 211.9284,338.5818 206.1823,330.0225 202.6182,324.0602 200.8338,319.9472 200.5794,318.4483 200.8542,317.5441 201.4565,317.2666 202.4,317.4 205.9331,319.2735 211.4862,323.2634 218.4588,328.9074 231.0172,339.9388 276.9134,381.6237 296.6005,398.952 327.9751,425.461 351.3636,443.9312 377.969,463.5152 398.9581,477.7874 420.4715,491.3812 458.121,513.7345 466.3546,518.8977 476.5417,526.2685 483.3777,532.6073 487.3615,537.2096 490.2047,541.7361 492.5093,546.6149 494.314,552.51 495.1805,557.2545 495.5061,564.243 495.021,570.0657 494.0,575.0 492.2535,580.0899 489.9815,584.2222 487.2871,587.4779 483.9762,590.1325 480.098,592.0233 476.0602,592.9954 471.4234,593.2474 466.2228,592.5856 460.7625,591.3345 455.2807,589.4877 446.998,585.979 440.2525,582.5749 422.9738,572.1391 404.0646,558.6784 385.0337,543.5299 361.9871,523.6135 338.793,502.0391 315.2164,478.8713 289.771,452.1571 262.5476,422.1272 236.6844,391.996 212.4618,362.284 189.8219,332.4801 170.6532,305.1932 164.2073,295.0131 159.5237,286.716 156.7745,280.6095 156.1665,278.4019 156.1341,277.0226 156.5896,276.2596 157.5202,276.0583 159.1599,276.5139 161.0941,277.5104 166.3431,281.1709 173.4044,287.043 197.7735,309.756 260.0167,370.2683 294.6521,402.4221 313.582,419.2062 331.8339,434.6398 350.4533,449.6163 369.4029,464.09 386.1633,476.2104 401.9651,486.8139 418.6186,497.1494 436.7739,507.597 450.1168,514.6954 464.5751,521.7444 482.3651,529.8347 505.345,539.7043 516.3731,544.8962 526.2408,550.1901 536.3633,556.8151 543.4486,562.8586 551.406,571.2077 560.1276,582.2311 579.3227,608.3533 588.5642,619.516 597.6414,629.4416 606.677,638.314 618.6818,648.7115 627.1785,655.2515 637.7276,662.5167 646.0217,667.7657 654.925,672.6705 666.5528,678.299 676.2272,682.3994 685.8604,685.7719 695.8462,688.597 705.1468,690.627 714.141,691.8792 723.6929,692.4274 733.3064,692.1483 741.8965,691.1226 750.3449,689.2495 758.2953,686.5956 765.9974,683.0469 773.0938,678.7188 779.4896,673.7106 785.5014,667.7933 790.7965,661.2886 795.351,654.3146 799.3291,646.6181 802.8051,637.9892 805.6742,628.5903 807.7914,618.8889 809.205,608.6237 809.8461,597.8684 809.6943,586.8792 808.7773,575.1687 807.0905,563.1816 804.7223,551.4309 801.6317,539.6663 797.8603,528.1192 793.3782,516.6695 788.2615,505.4953 782.5572,494.6996 776.3124,484.3851 769.7919,474.9489 762.7709,466.0353 755.0592,457.4296 747.0334,449.6065 738.7493,442.6124 732.0322,437.6856 725.2153,433.3325 718.0021,429.3852 710.3428,425.8322 703.0866,423.0619 695.5202,420.7877 688.376,419.2176 680.9519,418.1852 673.4972,417.7625 665.5405,417.9175 657.8381,418.6666 650.3944,419.9738 643.214,421.803 635.9628,424.246 628.6907,427.31 621.4573,430.9849 614.342,435.2598 607.3828,440.1235 600.591,445.574 594.2181,451.428 587.8989,458.0388 581.9231,465.0945 576.309,472.5278 571.4219,479.9219 566.8093,487.9213 562.734,496.0373 559.225,504.2612 556.111,513.0007 553.694,521.1777 551.7525,529.8098 550.2123,539.309 549.4081,547.7494 549.2145,562.0464 550.6354,575.1553 551.8143,581.5282 553.534,588.5166 555.6919,595.7892 558.0436,602.1347 564.2206,615.1583 572.879,629.2578 576.9921,634.9268 582.2879,641.5111 587.5023,647.579 592.6503,652.9666 607.6239,666.7648 615.5439,673.1838 624.4975,679.9002 638.6674,689.2825 656.41,699.2582 664.6373,703.3124 673.2742,707.114 682.2873,710.6409 691.1625,713.7135 698.9397,716.0071 706.6067,717.8638 714.4664,719.3655 722.0901,720.4385 733.9665,721.3448 744.7784,721.2217 755.2808,720.1042 765.3532,717.9931 775.2625,714.7672 784.0035,710.7677 792.4035,705.6611 800.0938,699.6472 807.2862,692.5219 813.634,684.5898 819.1935,675.8064 823.9123,666.3581 827.9517,655.9637 831.2321,644.682 833.6067,632.9881 835.111,620.7774 835.7975,607.0921 835.5575,593.1389 834.3964,578.7194 832.2903,563.9764 829.4017,549.8406 825.577,535.4754 820.8422,520.9975 815.2953,506.7332 808.9837,492.8249 802.139,479.7431 794.6564,467.2672 786.718,455.6867 777.7996,444.2017 768.1989,433.3505 758.5026,423.7914 748.5228,415.288 739.7524,408.8651 730.7195,403.2149 721.3782,398.2468 711.7056,393.9892 702.0932,390.628 692.5733,388.1405 683.1781,386.5042 673.735,385.6809 663.7595,385.6366 653.7504,386.4423 644.1141,388.047 634.5016,390.4839 624.8645,393.7932 615.3237,397.9229 606.0608,402.7769 596.7872,408.5286 587.8656,414.9471 579.0464,422.1929 570.7896,429.914 562.8355,438.3282 555.1653,447.4615 547.781,457.3226 541.1883,467.2576 535.0244,477.7801 530.0067,487.4181 525.2672,497.5555 521.3697,506.8018 517.772,516.494 514.5737,526.3888 510.4769,540.8154 503.2824,570.7176 501.0198,579.0742 497.8918,588.3207 494.625,594.5 492.2693,597.6244 489.5624,600.2651 486.6643,602.2154 483.4246,603.6147 480.3212,604.2753 476.3711,604.4025 472.387,604.0818 468.2551,603.2656 462.3218,601.5434 456.1937,599.034 447.6197,594.8456 439.6255,590.3112 422.7766,579.3873 399.8782,562.1204 380.7254,546.1078 356.7439,524.6663 332.9769,501.7973 308.483,477.018 281.0232,447.6074 254.9751,418.3672 229.2137,387.7394 203.8863,356.035 180.5864,324.8913 161.1936,296.8893 154.8396,286.6585 150.2197,278.2725 147.3971,271.812 146.7992,269.5631 146.75,268.125 147.2235,267.3024 148.2435,267.108 151.8749,268.5866 157.5479,272.5262 165.1663,278.8926 185.607,298.2384 254.9868,366.5359 275.2849,385.8568 294.3953,403.5293 316.4232,423.1562 336.3101,440.0139 356.5538,456.2329 376.4308,471.1903 394.3417,483.7687 411.0986,494.6261 428.5906,505.0147 447.1135,515.0746 460.2652,521.642 474.2516,527.9715 526.4845,549.3456 535.7549,553.7678 543.0042,557.912 552.0774,564.1695 560.7311,571.9237 571.75,583.9606 591.7773,607.9096 602.1557,618.9742 609.3421,626.1557 616.9819,633.127 624.3129,639.3008 631.795,644.942 642.8055,652.4497 650.4074,657.0556 660.2375,662.218 671.1685,667.2375 680.7428,670.8431 690.7101,673.8273 700.4402,676.0502 709.4493,677.3598 718.2361,677.8935 726.6948,677.6858 734.5546,676.7802 742.2651,675.0763 749.4586,672.6723 756.4225,669.4783 762.7803,665.6623 768.7599,661.0668 774.1061,655.9157 779.0319,650.0159 783.2501,643.7235 787.0222,636.6273 790.282,628.7488 792.8494,620.5534 794.808,611.7961 796.0532,602.9572 796.6465,593.2736 796.5359,582.805 795.7324,572.3598 794.2283,561.7007 792.0995,551.3287 789.4274,541.4186 785.8498,530.633 781.6439,519.991 776.9963,509.9628 771.9802,500.634 766.6638,492.0679 760.7458,483.7663 754.0514,475.4776 747.0235,467.8442 739.7095,460.9293 732.4401,455.0087 726.4891,450.8264 719.8757,446.7744 713.5768,443.4464 706.9111,440.4729 700.5972,438.1667 693.9522,436.2716 687.6926,434.987 680.9849,434.1191 674.317,433.7361 667.4375,433.8594 661.1186,434.4559 654.6251,435.5749 648.2168,437.21 641.4626,439.4789 635.0386,442.1645 628.9386,445.2296 622.8444,448.8356 616.9488,452.8878 611.134,457.4776 605.4647,462.5898 599.9871,468.2091 594.8376,474.1919 590.3287,480.1544 586.1497,486.4674 582.0798,493.4913 578.558,500.447 575.6781,507.2288 573.0528,514.6504 570.8812,521.9965 569.2635,529.193 568.0502,536.947 567.2714,544.9346 567.264,557.43 568.5356,569.5293 571.4669,582.5675 575.4927,593.9453 581.1095,605.9295 588.6288,618.3979 596.8452,629.2863 606.7159,640.3297 620.017,652.6068 630.6719,661.0156 645.4617,670.9178 659.8949,678.9908 674.3269,685.639 688.12,690.5402 695.8943,692.7182 704.227,694.6417 711.2559,695.8956 717.9985,696.6889 727.5014,697.1253 737.0521,696.7314 746.0167,695.5269 754.366,693.5067 762.5808,690.5601 770.2014,686.843 777.4834,682.2167 784.0157,676.9053 789.8178,670.9787 795.1702,664.1873 799.9863,656.5475 804.0112,648.4608 807.4586,639.4703 810.1911,629.9476 812.2493,619.7499 813.5438,609.3459 814.1169,598.0362 813.8833,586.7718 812.8365,574.4846 811.0559,562.2667 808.5177,549.9009 805.3289,537.8995 801.5529,526.3838 796.9842,514.7919 791.6407,503.1885 785.6903,491.9766 779.1832,481.2567 772.3892,471.4265 765.1647,462.245 757.3695,453.5622 749.1011,445.4906 740.5941,438.281 733.4051,432.9855 726.1085,428.3139 718.7296,424.2815 710.8418,420.6895 702.9708,417.7623 694.8018,415.4046 686.7322,413.7512 678.7834,412.7808 670.6255,412.4735 662.4311,412.8491 654.2523,413.8587 646.0233,415.548 638.1416,417.8388 630.6072,420.6857 622.981,424.2509 615.5047,428.3968 607.8739,433.3468 600.4763,438.9033 593.3313,445.0442 586.557,451.6807 580.2069,458.7625 574.0641,466.5476 568.6889,474.2788 563.5365,482.7791 558.6214,492.1038 554.7053,500.6661 551.3113,509.5285 548.3123,519.086 546.0167,528.5902 544.1931,539.1462 543.3362,547.2841 542.9063,556.9282 542.9068,563.4596 543.3358,570.2688 544.2145,577.8053 545.4075,584.2119 547.7257,593.3665 549.5256,599.1866 552.4889,607.0997 555.3775,613.666 563.5205,628.3998 573.644,642.4679 583.3937,653.7102 596.0,666.1983 604.22,673.3708 612.4619,680.0309 620.8576,686.1914 630.6544,692.8502 638.5726,697.9068 646.8531,702.7139 666.375,712.625 674.7042,716.2882 683.09,719.5305 691.8192,722.481 700.8538,725.1168 709.4759,727.2515 717.5033,728.8266 725.7029,729.9974 733.6575,730.7006 745.1744,730.932 756.5164,730.1726 766.7759,728.4256 776.9232,725.5587 786.4844,721.6602 795.3773,716.7872 803.4131,711.0911 811.0199,704.2433 817.8809,696.5091 824.1578,687.6673 829.5562,678.0879 833.97,668.1033 837.7527,656.865 840.6603,645.0324 842.7593,632.3886 843.9741,619.4266 844.3274,605.4489 843.7529,591.3706 842.2105,576.2636 839.7946,561.1832 836.4861,545.9273 832.4045,531.0197 827.4858,516.2312 821.8827,502.0444 815.2926,487.7191 807.9928,473.8937 800.0533,460.6829 791.5444,448.2012 782.7667,436.8431 773.5792,426.3935 763.7061,416.5834 753.304,407.5821 744.5898,400.9973 735.467,394.9728 726.6039,389.9301 717.4083,385.5155 708.313,381.9551 698.4977,378.9433 688.8341,376.7735 679.3447,375.4066 669.6847,374.7942 660.2627,374.9634 651.104,375.8699 641.4725,377.6048 631.6157,380.1713 622.2204,383.3856 612.9414,387.3178 603.5044,392.1079 594.1711,397.6448 585.1183,403.8253 576.4656,410.5626 568.2348,417.805 560.105,425.833 552.4262,434.2942 544.8507,443.5522 537.1805,453.8677 527.519,468.8909 521.2624,479.8545 517.1567,487.7057 506.9455,510.1589 496.5219,536.7715 491.5201,548.718 487.1177,557.212 482.568,563.718 479.944,566.504 476.9318,568.9069 473.6599,570.7432 470.0392,572.1038 466.914,572.7594 463.1593,572.9858 458.8944,572.7994 454.7919,572.2012 449.1392,570.7877 442.7769,568.6193 436.339,565.853 428.7781,562.0871 415.1483,554.0693 397.5827,542.1596 379.2363,528.0251 361.3131,513.0319 336.3739,490.4265 317.1901,471.9589 292.0,446.25 271.6078,424.2332 246.7665,395.8801 224.9846,369.6492 202.9579,341.4372 187.3337,319.811 180.6722,309.6003 175.8406,301.3568 173.0994,295.6007 172.4921,292.4007 172.9175,291.6236 173.8336,291.4109 177.1524,292.7256 182.1267,296.1666 189.1642,301.9611 207.3333,318.4803 265.2102,373.3527 296.2889,401.7852 313.3955,416.6944 330.567,431.0788 348.3729,445.3952 364.0111,457.3853 377.363,467.0649 391.2939,476.6529 406.6404,486.6748 419.8992,494.8658 434.605,503.3265 452.125,512.75 497.7828,535.7822 508.1844,542.2504 516.314,548.349 521.0345,552.7987 525.2041,557.265 532.125,566.6094 535.875,572.75 546.2073,592.031 556.2956,609.7259 562.6401,619.6538 571.5022,631.7974 580.5387,642.4749 590.5406,653.0392 602.4455,664.0361 613.6129,673.1804 626.787,682.7677 640.3111,691.3361 655.9142,700.0447 669.6562,706.4531 685.9871,712.7214 699.9599,717.0193 714.1066,720.0904 728.3224,721.8848 739.5516,722.2835 750.4747,721.6423 760.645,720.0435 770.6963,717.3864 779.6023,713.9707 788.2941,709.4296 796.3262,703.9554 803.6351,697.6389 810.4404,690.2577 816.3981,682.1474 821.5955,673.2289 826.1438,663.3161 829.8511,652.8369 832.8106,641.5228 834.8933,629.8501 836.1874,617.1321 836.6064,603.4606 836.1169,589.6175 834.7233,575.3663 832.407,560.8223 829.25,546.5 825.1674,531.9531 820.2589,517.5204 814.7188,503.6875 808.3047,489.8776 801.3779,476.9093 794.0276,464.8655 785.889,453.1604 777.2268,442.1917 767.8969,431.8176 758.4876,422.6708 748.5341,414.2866 740.0793,408.1357 730.8662,402.3635 721.5634,397.4034 711.9291,393.1466 702.3584,389.7793 692.8888,387.2797 683.5575,385.626 673.8368,384.7539 663.9092,384.691 654.3035,385.4328 644.66,386.9924 635.0245,389.3898 625.6077,392.5681 615.7337,396.7563 606.4829,401.504 597.2138,407.1359 588.3214,413.4402 579.7934,420.3889 571.5346,428.0356 563.2908,436.6394 555.2393,446.0049 548.2128,455.1736 541.4897,465.0708 535.0638,475.7493 529.9331,485.3451 524.625,496.375 521.1104,504.5276 517.6557,513.5995 514.5604,522.518 511.7287,531.9478 508.0762,545.2582 503.2842,564.4657 500.412,574.332 496.9573,584.0439 493.352,590.9558 491.219,593.7637 488.7543,596.1442 485.9166,598.0782 482.915,599.408 479.1845,600.3933 475.9548,600.7275 471.516,600.4895 467.3164,599.7455 461.0291,597.8901 454.463,595.4112 447.8505,592.2018 439.2126,587.4482 430.6914,582.2062 420.735,575.5297 403.0624,562.4591 380.3778,543.8815 356.2622,522.4075 334.0047,501.2331 308.5501,475.4849 281.1202,446.2129 250.8503,412.0535 229.0088,386.0821 205.5491,356.559 182.8309,326.4405 173.2628,312.9096 164.6538,300.0782 157.6024,288.8238 152.963,280.5362 150.3507,274.4765 149.8221,272.2231 149.8699,270.8853 150.3879,270.1166 151.3837,269.9368 152.8645,270.3658 154.8246,271.4129 160.5957,275.5703 168.7578,282.463 188.7302,301.1271 258.6821,369.7102 291.2012,400.2188 313.0996,419.6812 334.5603,437.9 354.0564,453.6495 372.9919,468.003 390.2994,480.2729 407.3999,491.5955 423.1412,501.2717 439.1424,510.2475 455.22,518.4758 473.2846,527.0014 524.0534,548.3131 534.1641,553.4693 541.8987,558.2729 547.5278,562.4407 552.2107,566.3489 561.7731,576.0274 565.7928,580.614 581.7111,600.5632 590.7207,611.2991 597.9753,619.3036 606.6898,628.1624 615.2834,636.0196 625.1428,644.1826 633.8257,650.5922 643.5289,657.0287 651.1551,661.5763 659.5023,665.9326 669.3423,670.455 678.0121,673.9393 686.5883,676.805 695.087,679.102 703.3516,680.8239 711.1646,681.8912 719.8569,682.3818 728.5865,682.1243 737.1901,681.0845 744.8211,679.3641 752.3607,676.822 759.6708,673.4399 766.2928,669.421 772.4254,664.6463 778.1029,659.0684 783.1073,652.9354 787.4046,646.3774 791.1579,639.1361 794.2726,631.366 796.8817,622.7572 798.8636,613.5299 800.1266,604.1541 800.7151,594.3336 800.5765,583.6891 799.7043,572.6828 798.0938,561.4375 795.8252,550.4602 792.9618,539.8716 789.4613,529.4759 785.1689,518.7577 780.4593,508.6311 775.2255,498.8412 769.4939,489.4933 763.5122,480.9857 756.5893,472.4083 749.0851,464.2316 741.5755,457.0894 733.828,450.7273 727.6571,446.3506 721.375,442.5 714.4338,438.8653 707.5082,435.8046 700.6139,433.3084 693.7666,431.3674 686.9819,429.9722 680.2754,429.1133 673.222,428.7678 666.5321,428.958 659.657,429.6824 652.9963,430.899 646.1982,432.6657 639.4929,434.9297 632.9372,437.6814 626.3999,441.0009 619.9136,444.8967 613.2091,449.5828 606.8812,454.6509 600.9057,460.1298 595.7225,465.5529 590.7667,471.4508 585.7263,478.2788 581.0876,485.3657 577.015,492.4508 573.3334,499.8311 570.423,506.7107 567.8047,514.1791 565.4736,522.4456 563.8151,530.1102 562.5805,538.2608 561.8696,546.1604 561.9046,559.4982 562.3723,565.5763 563.2247,571.5905 566.4261,585.2165 570.9516,597.8445 576.2354,608.7087 584.2568,621.7524 594.3596,634.8802 602.8102,644.108 615.7472,656.1118 628.8035,666.3759 643.213,676.084 658.6059,684.6991 674.065,691.7878 689.942,697.432 698.1974,699.7829 705.0989,701.3861 712.5331,702.6994 719.711,703.561 730.0179,704.0807 739.8066,703.728 749.0912,702.4797 757.9578,700.3621 766.6463,697.2822 774.6105,693.4127 781.7847,688.85 788.6149,683.3283 794.7523,677.1254 800.4077,670.0196 805.2914,662.3678 809.5763,653.8811 813.2073,644.6096 816.1689,634.5464 818.3316,624.1647 819.7567,613.1869 820.3951,601.4656 820.2143,589.2492 819.2197,576.62 817.4069,563.709 814.8611,551.0325 811.5367,538.3341 807.4646,525.7964 802.7517,513.6143 797.2225,501.3586 791.2414,489.8414 784.707,478.8168 777.6664,468.3937 769.8374,458.2404 761.6902,448.9598 753.2171,440.5044 744.4785,432.9223 736.6982,427.068 729.0962,422.1212 720.6953,417.4712 712.3117,413.5776 703.96,410.4179 695.3095,407.8898 687.1103,406.191 678.6801,405.16 669.7832,404.8404 661.1484,405.2133 652.4391,406.2964 644.0551,408.0423 635.6532,410.5208 627.183,413.7866 618.703,417.7901 610.7426,422.2652 602.6765,427.5785 594.7441,433.6445 587.3203,440.1729 580.0713,447.4605 573.0814,455.4503 566.7065,463.6808 560.8272,472.3588 555.3521,481.5889 550.4676,490.9472 546.23,500.4527 542.203,511.1748 538.9765,521.5535 536.5393,531.5282 534.9659,540.4671 533.6008,552.3667 533.1906,561.6093 533.3104,570.2436 533.8083,577.5955 534.8,585.5481 536.1612,592.7085 538.1396,600.8644 539.9531,606.6719 543.4515,615.9574 546.875,623.5324 550.0737,629.6442 553.3252,635.021 559.5709,644.3058 563.8128,649.9062 575.8563,663.8172 590.969,678.4551 599.4632,685.6346 609.875,693.75 626.0419,704.9823 636.5118,711.489 646.0269,716.9774 656.2469,722.3428 666.7829,727.387 676.8915,731.8156 685.3433,735.1139 694.8913,738.3598 704.4487,741.1398 714.3131,743.5457 724.1205,745.4732 732.9894,746.7092 741.6443,747.4115 754.2363,747.4947 766.1443,746.4639 777.4419,744.3587 787.9634,741.2224 798.2931,736.8501 807.6235,731.5679 816.2148,725.2999 824.1185,717.983 831.4787,709.3834 838.0057,699.8189 843.6563,689.4218 848.5494,677.9296 852.4742,665.7825 855.3876,653.3078 857.5074,639.5549 858.6923,625.3427 858.9676,609.6695 858.2465,593.7767 856.5729,577.8241 853.8868,561.3968 850.271,545.0421 845.6168,528.2754 840.0381,511.6243 833.7288,495.6064 826.7853,480.354 819.1153,465.6528 810.5916,451.3234 801.4334,437.7283 791.754,425.0157 781.3772,412.9933 770.6145,402.0701 759.8139,392.551 750.8654,385.6856 741.8747,379.5977 732.5127,374.0614 723.1513,369.309 713.8175,365.3237 704.1961,361.9829 694.6637,359.4301 685.2503,357.6463 675.7107,356.5647 665.7871,356.1769 655.7588,356.5513 646.0424,357.6543 636.2975,359.5013 626.58,362.0946 616.9285,365.4205 607.0579,369.5628 597.7191,374.2017 588.5802,379.4577 579.6833,385.2921 570.6009,392.0119 561.6408,399.4106 553.1509,407.1856 544.8835,415.5298 536.5868,424.7036 524.0761,440.2227 512.081,457.3682 499.3197,478.3717 479.1094,514.7882 472.9063,524.2695 467.4589,530.6613 464.3639,533.4911 461.125,535.875 458.1257,537.5614 454.5857,538.9548 450.7733,539.9233 446.7941,540.4671 442.6435,540.5314 438.1234,540.1246 433.9295,539.3565 429.0289,537.9784 416.1691,533.0259 404.0642,526.6855 390.4469,518.3015 374.5763,507.0448 360.6569,496.212 339.6044,478.2946 323.2791,463.4548 301.8586,442.7379 284.93,425.3808 261.9815,400.451 245.3833,381.2895 224.9136,356.0894 212.374,339.2329 206.6062,330.6313 202.5771,323.8591 200.8878,319.9546 200.6562,318.3906 200.9321,317.6458 201.6211,317.3652 202.7261,317.5623 205.7603,319.1444 210.576,322.5734 217.2141,327.9332 229.3384,338.5054 281.0473,385.1635 299.7571,401.5884 330.375,427.375 352.4472,444.797 378.5467,463.9147 400.9762,479.1222 421.2784,491.8939 445.9254,506.4225 466.9228,519.2172 476.3682,526.1474 482.7771,532.0487 486.4685,536.1661 489.125,540.0 492.2445,546.0214 493.9161,551.0532 495.0943,557.1968 495.4864,563.7798 494.9771,569.5144 493.8546,575.25 492.1164,580.1263 489.799,584.213 487.0698,587.5741 484.0075,590.0173 480.0496,591.867 475.8255,592.8825 471.1077,593.1013 466.4124,592.5031 459.7361,590.9049 454.0156,588.9219 445.7119,585.2367 438.3947,581.4076 429.8455,576.3443 421.1416,570.718 399.75,555.25 382.8351,541.6108 357.6376,519.6247 336.9648,500.2722 314.4078,477.9964 289.2056,451.5529 262.0085,421.4919 236.8179,391.9896 210.434,359.5803 189.225,331.5689 170.2655,304.4035 164.1556,294.7202 159.5333,286.4701 156.9622,280.681 156.3802,278.5533 156.3292,277.2012 156.7763,276.4103 157.792,276.231 161.4779,277.8103 167.3129,281.9449 174.7353,288.1653 197.7622,309.7168 258.4538,368.7156 292.4208,400.2782 313.5243,419.0595 330.928,433.9166 349.1,448.6411 367.4373,462.696 384.5227,475.0534 400.2046,485.6808 416.3027,495.7974 432.6499,505.2888 447.0453,513.0425 461.7478,520.313 483.5288,530.2399 506.2158,540.1141 517.32,545.4135 527.0147,550.6415 536.1037,556.7584 543.7246,563.1806 551.5594,571.5671 560.5401,582.9639 578.2641,607.1856 587.7564,618.9145 594.2383,626.0954 604.4858,636.4107 614.3334,645.2515 624.7502,653.7136 635.6211,661.4061 645.1717,667.4452 654.594,672.7345 664.9855,677.8749 675.5306,682.4384 684.6939,685.6891 694.5967,688.5185 705.0921,690.8325 713.6131,692.0485 723.0842,692.6082 732.64,692.361 742.0578,691.2991 750.4086,689.4765 758.2807,686.8559 765.9227,683.3442 772.8969,679.1305 779.3817,674.117 785.2994,668.3664 790.7666,661.7304 795.4838,654.5545 799.4388,646.9491 802.9284,638.256 805.7039,629.128 807.8438,619.3438 809.2911,608.9695 809.9889,598.0718 809.9079,587.2834 809.0295,575.3221 807.4076,563.45 805.023,551.434 801.9812,539.7732 798.3478,528.5766 793.8282,517.0182 788.5428,505.4567 782.8283,494.622 776.5727,484.2619 770.033,474.7752 762.9497,465.796 755.302,457.295 747.3704,449.5527 738.9129,442.3809 732.0682,437.3378 725.1341,432.892 718.378,429.1868 710.9415,425.7523 703.5297,422.9348 695.7994,420.6244 688.1492,418.9613 680.6062,417.9283 673.1976,417.5086 665.2955,417.6892 657.5345,418.4663 650.0347,419.8042 642.801,421.6659 635.4968,424.1439 628.1077,427.2863 621.1321,430.8315 613.929,435.142 607.1938,439.8417 600.625,445.125 593.8401,451.3502 587.706,457.7326 581.9089,464.5602 576.2247,472.1415 571.2567,479.661 566.7547,487.4227 562.4231,495.9736 559.3098,503.2271 556.3918,511.3515 553.4729,520.9846 551.4844,529.2969 549.9383,538.4265 549.0902,546.9801 548.9504,562.1238 550.3296,575.4988 551.3906,581.5341 552.9199,587.8228 555.368,595.8589 557.4607,601.496 564.2404,615.876 567.8513,622.123 572.375,629.125 581.2067,640.7767 587.0548,647.5832 592.3315,653.1579 599.2654,659.8184 606.9782,666.6807 622.5819,678.9078 630.3911,684.4367 637.809,689.23 655.1658,699.0617 663.7194,703.3128 672.243,707.1127 681.1672,710.6535 690.0915,713.769 698.0158,716.1602 705.9693,718.1288 714.1213,719.7085 722.0575,720.8282 733.9868,721.7362 744.7795,721.649 755.6286,720.5106 765.6643,718.4013 775.5115,715.1815 784.3757,711.1053 792.6636,706.0488 800.5629,699.8571 807.6911,692.7924 814.002,684.9531 819.5709,676.2426 824.3696,666.6492 828.4509,656.0606 831.6554,644.9239 834.0667,632.9685 835.5874,620.6857 836.2608,607.377 835.994,593.2119 834.7615,578.5724 832.6279,563.9857 829.6622,549.6014 825.7527,534.9429 820.8593,520.0441 815.2698,505.7417 808.923,491.8091 802.051,478.7136 794.5481,466.2302 786.6704,454.7714 777.8679,443.5124 768.3827,432.8596 758.8131,423.4614 748.6868,414.8394 740.083,408.5065 731.1524,402.8545 721.6472,397.7688 712.1752,393.5768 702.7665,390.2516 693.0948,387.687 683.557,385.9981 674.1865,385.1547 664.2051,385.0995 654.0587,385.8827 644.3001,387.4683 634.5822,389.8983 625.2938,393.0585 615.6562,397.2211 606.2826,402.0989 596.8897,407.8687 587.8872,414.2977 579.3389,421.2863 570.989,429.033 562.9588,437.4642 554.98,446.8985 547.9667,456.206 541.2632,466.2251 534.8549,477.0205 529.8491,486.4732 525.2777,496.1105 521.1549,505.8096 517.2691,516.1221 514.0172,525.9235 509.7074,541.1235 500.5879,576.8232 497.3148,585.7589 493.7535,592.6445 491.3237,595.7169 488.8418,597.9853 486.0132,599.8612 482.8503,601.2001 479.5307,602.0116 476.2594,602.2552 471.4308,601.9638 467.4085,601.2153 461.3146,599.3586 455.2574,596.9566 447.2828,593.0512 438.7614,588.3942 430.6705,583.261 418.9744,575.2752 401.4189,561.9549 378.9821,543.4678 353.0378,520.1844 332.2064,500.068 304.7257,472.118 278.986,444.41 248.4223,409.722 225.1004,381.784 201.3983,351.8585 180.0368,323.2262 170.3926,309.4561 162.0108,296.8559 155.8301,286.9273 151.7386,279.5161 149.1614,273.549 148.6067,271.4124 148.5539,269.8756 149.0122,268.9645 149.9912,268.7056 151.5,269.125 153.4494,270.1594 159.3343,274.3739 167.7034,281.4324 187.6612,300.1045 260.8018,371.9715 292.4799,401.647 314.4366,421.1854 335.3753,438.9565 354.7124,454.486 373.9244,468.9635 391.4834,481.3525 408.7484,492.722 424.5068,502.3048 440.6498,511.2745 457.0583,519.6226 473.0868,527.1438 525.25,548.875 535.7711,554.1591 544.1167,559.3017 553.2153,566.3503 562.07,575.0359 567.3799,581.0307 582.2594,599.4516 592.5616,611.4979 599.1728,618.6786 608.1973,627.7863 616.1633,635.0375 625.4311,642.623 634.1701,649.0472 643.6189,655.2801 652.0169,660.2608 660.4033,664.6716 669.2323,668.7545 677.7219,672.1387 686.3494,674.9818 694.8883,677.2398 703.6087,679.0019 711.4143,680.036 720.1048,680.4987 728.4568,680.224 736.7124,679.1917 744.2989,677.4369 751.7656,674.8438 758.6695,671.5771 765.2792,667.5162 771.2563,662.8424 776.6916,657.4923 781.6908,651.3502 785.9688,644.7823 789.7006,637.5308 792.8335,629.6076 795.2882,621.3446 797.1603,612.5056 798.4054,603.1648 798.979,593.3964 798.8377,583.0578 797.971,572.1325 796.4333,561.3156 794.2816,550.7564 791.4607,540.2028 788.1051,530.1685 783.9619,519.8188 779.2532,509.7229 774.0162,499.9738 768.2879,490.664 762.1055,481.8865 755.4742,473.6704 748.2027,465.781 740.9219,458.8906 733.129,452.5161 726.9419,448.1387 720.6749,444.2944 713.8515,440.72 707.3268,437.833 700.8177,435.4586 693.9824,433.5021 687.2029,432.1037 680.4991,431.257 673.5362,430.9279 666.4907,431.1178 659.6547,431.8214 653.0369,433.0124 646.2978,434.7695 640.0081,436.9346 633.1444,439.8475 626.6483,443.1609 620.52,446.8463 614.4663,451.0968 608.534,455.9249 602.5794,461.4445 597.1382,467.1716 591.9338,473.3666 587.308,479.5822 582.8918,486.3784 578.8764,493.4983 575.0996,501.2084 572.0782,508.4823 569.4854,515.9946 567.352,523.5482 565.9785,530.0482 564.8427,537.8998 564.053,546.4989 563.94,552.6318 564.2213,559.0133 564.9174,566.5827 565.9096,573.0179 569.0053,585.554 573.7055,598.0273 579.0181,608.9206 587.0909,621.8551 595.5844,632.6394 606.2814,644.341 618.5938,655.5516 631.3431,665.3813 645.4445,674.7405 660.2984,682.8405 674.9387,689.5492 689.199,694.5709 697.027,696.727 704.9785,698.5232 712.3676,699.7966 719.5275,700.6246 729.8451,701.0798 739.4442,700.6536 748.3296,699.4089 756.7016,697.3339 765.2933,694.2036 773.2662,690.2543 780.6421,685.511 787.1229,680.1883 793.2031,673.9217 798.7913,666.7224 803.6004,658.9586 807.625,650.75 811.1182,641.5306 813.855,631.8745 815.9153,621.5459 817.2137,611.013 817.7966,599.5616 817.5634,587.7745 816.5203,575.4818 814.6809,562.913 812.0535,550.195 808.7581,537.8286 804.736,525.5572 800.0446,513.5769 794.5658,501.5753 788.6523,490.3192 782.1934,479.5483 775.2304,469.3599 767.8046,459.8516 759.7393,450.8222 751.507,442.7185 742.7443,435.1918 735.2939,429.6127 727.443,424.5048 719.8318,420.2845 711.9673,416.6404 703.7206,413.5179 695.5473,411.113 687.1022,409.3414 678.781,408.3034 670.6059,407.973 662.0687,408.3442 653.5089,409.4067 645.2816,411.1004 637.0414,413.4849 629.1762,416.4334 621.2275,420.1113 613.4177,424.4337 605.4941,429.5971 597.8348,435.3938 590.4234,441.8101 583.4228,448.7014 576.8769,456.0156 570.5887,463.9837 564.7332,472.4033 559.3553,481.2326 554.4071,490.5568 550.4595,499.2445 546.709,509.0859 543.2112,519.9136 540.913,529.1978 538.9056,539.9597 537.9094,548.7324 537.4327,558.171 537.5622,565.9363 538.2218,576.0944 539.112,582.904 540.5391,590.3904 542.3906,597.4688 545.2485,606.1942 550.5134,618.4716 553.585,624.4819 557.4355,630.9901 562.158,638.3008 566.7817,644.5854 578.2081,658.0755 584.8711,664.9613 591.9917,671.7658 600.1662,678.8368 610.4224,687.0511 625.6625,697.9176 635.3936,704.0966 644.9008,709.6773 654.4165,714.7833 664.544,719.7417 674.2716,724.0787 682.7329,727.4305 691.9093,730.5997 701.059,733.3137 710.8761,735.7594 720.2217,737.6387 728.7359,738.8787 737.4106,739.6496 749.6484,739.8435 761.1865,738.9835 772.0804,737.0972 782.3918,734.1561 792.1712,730.1696 801.6316,724.9802 810.0046,719.0188 817.8843,711.8709 825.0465,703.6829 831.404,694.604 836.9074,684.7633 841.6779,673.8916 845.456,662.5656 848.4722,650.1447 850.6568,636.8007 851.9339,623.0322 852.3202,608.2091 851.745,593.222 850.2371,578.2187 847.7343,562.5935 844.251,546.5233 839.842,530.3985 834.5326,514.3822 828.498,498.9913 821.819,484.355 814.2567,469.973 806.0669,456.2446 797.0924,442.9403 787.5989,430.5087 777.9024,419.3136 767.8408,409.1308 757.5974,400.1392 748.6786,393.2854 739.6839,387.2023 730.6452,381.8811 721.259,377.1581 711.8949,373.2352 702.2576,370.005 692.968,367.6633 683.3113,365.9881 673.4877,365.0393 663.9152,364.8521 654.2376,365.4102 644.5006,366.7408 634.754,368.8607 625.0759,371.7375 615.5036,375.3009 606.0673,379.546 597.1395,384.2679 588.1107,389.7807 579.29,395.9224 570.6045,402.7435 562.0654,410.2614 553.7456,418.4087 545.4582,427.3552 537.8102,436.4466 525.8221,452.589 514.7939,469.8237 503.1323,491.1686 484.6741,528.5854 479.1236,537.7911 474.3433,543.9302 471.4582,546.6889 468.0847,549.1947 464.7766,551.0798 461.2812,552.4688 457.4989,553.3794 453.7967,553.8093 449.7969,553.75 445.4437,553.2196 440.5641,552.2327 435.3754,550.7148 423.1285,545.7679 409.9683,538.6737 395.5712,529.5434 377.125,516.125 364.2018,505.8146 340.9284,485.6931 323.8438,469.8438 300.8442,447.2077 283.3949,429.0082 257.6539,400.6753 239.264,379.216 217.3627,351.9948 202.5428,332.0174 196.219,322.6528 191.7776,315.3242 189.5415,310.6401 188.9974,308.7869 188.9627,307.5013 189.4461,306.8089 190.2115,306.6993 193.3029,308.0298 198.8852,311.911 206.5991,318.1361 218.5878,328.7189 276.5901,382.1939 297.8028,401.1029 330.5673,428.8726 358.1428,450.573 380.7659,467.0325 401.4971,480.9724 431.0566,498.9401 477.8376,525.2068 489.5919,533.1399 493.4874,536.2665 497.406,539.9268 502.0999,545.0055 505.9785,550.4824 509.1798,556.0281 511.8434,562.3306 513.9051,568.1321 516.14,575.919 522.7314,604.1129 526.2066,616.8656 531.3843,630.677 534.546,637.6957 537.7776,643.7529 541.873,650.7031 546.8289,657.8599 552.078,664.7113 559.027,672.8024 565.5374,679.737 574.3286,688.2607 588.2319,700.2651 598.5814,708.4868 607.3149,714.9004 619.3213,723.0395 630.9273,730.3687 642.2032,736.8665 654.4593,743.3573 666.4192,749.1868 677.8784,754.2111 689.2721,758.6511 700.4697,762.4799 711.4789,765.7218 722.2658,768.3351 732.6701,770.2988 742.9474,771.6752 753.015,772.4474 763.08,772.6083 776.2988,771.7617 788.8651,769.6928 800.6136,766.4746 811.7892,762.0545 822.1675,756.5163 831.6945,749.8956 840.5061,742.1305 848.7563,733.0085 855.878,723.1697 862.2798,712.0694 867.7002,700.0661 872.2369,686.9911 875.908,672.7673 878.5914,657.8603 880.291,642.4248 881.0241,626.1867 880.7318,609.224 879.3858,591.8238 876.9233,573.4262 873.4736,555.0764 869.02,536.5795 863.5833,518.0972 857.3221,500.1546 850.157,482.5336 842.2072,465.5622 833.3594,448.9699 823.8197,433.1452 813.669,418.1939 802.9881,404.2215 791.858,391.3338 780.6075,379.872 768.6847,369.2824 759.1827,361.837 749.6157,355.1667 740.0123,349.2611 730.0699,343.9458 720.1507,339.4266 709.9588,335.5809 699.8605,332.5605 689.8722,330.3423 679.3925,328.7863 669.152,328.0139 658.7839,327.9822 648.3325,328.7131 637.8465,330.2173 627.7218,332.4061 617.5212,335.3458 606.9893,339.1087 598.3662,342.7464 590.1094,346.7188 581.8909,351.1652 573.7497,356.071 565.4359,361.6124 557.0395,367.7457 548.9259,374.1713 540.7767,381.1566 531.3871,389.9137 522.2863,399.1644 513.5061,408.8301 504.4726,419.5541 487.8279,441.1574 462.449,477.4824 455.809,486.1214 450.8425,491.7705 446.8102,495.6516 443.2599,498.5848 439.6294,501.0338 435.9642,502.9518 432.1094,504.4219 428.0795,505.4368 423.9456,506.0291 419.575,506.109 411.7906,505.1021 403.6627,502.9039 392.9335,498.5436 383.3214,493.6376 370.7112,485.9499 360.2226,478.8024 346.453,468.3484 333.2091,457.4625 315.4901,441.7358 302.3124,429.2933 283.2224,409.9617 268.9844,394.6719 253.1956,376.5839 241.6651,362.0616 236.7213,355.1576 234.1314,350.9946 232.616,347.677 232.4352,346.5371 232.6396,346.0199 234.1812,346.1168 237.1828,347.6476 246.1231,354.095 315.1653,412.5096 331.7324,425.9501 349.3252,439.6615 364.3962,450.9073 385.6709,466.1336 426.088,493.937 439.8566,504.575 444.7763,509.5681 447.7059,513.47 449.7861,518.2963 450.0118,520.0415 449.8474,521.6162 449.2267,523.4688 448.302,524.8054 446.9121,526.0469 445.3311,526.941 440.8713,528.1865 435.5604,528.3083 431.7421,527.9113 427.5156,527.0156 417.1764,523.5816 404.8077,517.8601 394.2196,511.812 378.634,501.594 365.5453,491.9524 348.4861,478.3643 330.7085,462.9188 311.4874,445.0879 288.3243,421.9303 273.0571,405.658 253.8353,384.0036 239.0598,366.2153 225.9475,348.9277 221.8465,342.8458 218.8722,337.7508 217.4405,334.3042 217.3392,333.3289 217.6132,332.7542 218.4604,332.5542 219.5312,332.8125 222.6836,334.457 233.4488,342.6851 246.9323,354.0903 275.3842,379.2755 307.3128,406.9132 328.0257,423.9386 352.0524,442.8425 370.5165,456.5119 391.2621,471.0706 409.431,483.071 436.3756,500.2147 446.629,507.155 453.6314,512.2785 459.6211,517.4958 465.0493,523.4637 467.1758,526.5696 468.5446,529.2321 469.5465,532.5008 470.0343,535.581 469.9507,538.5182 469.3149,541.0914 467.9654,543.794 466.3111,545.9399 464.2202,547.717 461.7759,549.1235 459.0036,550.1287 455.3334,550.8197 451.7582,551.0473 447.9894,550.8424 443.1079,550.1332 438.8049,549.0498 425.2818,543.9317 411.418,536.7231 397.969,528.4168 381.3759,516.7474 365.8162,504.5324 346.387,488.0988 326.8936,470.2702 305.107,449.1755 282.7169,426.0407 261.9577,403.4052 241.0457,379.1344 221.481,354.9124 204.8459,332.3324 199.6838,324.5505 196.0078,318.1453 194.1997,313.7503 194.0277,312.4603 194.2993,311.6909 194.9571,311.4526 196.1827,311.6999 199.8233,313.6179 205.1435,317.4059 211.5493,322.6004 229.1999,338.2586 272.5168,378.0871 298.8836,401.4317 327.8106,425.9597 356.043,448.2264 380.7478,466.2983 406.6994,483.5556 424.4803,494.5115 464.4659,517.3633 476.36,524.798 484.7511,530.9151 489.6471,535.2385 493.3171,538.9646 497.7249,544.7177 501.0769,550.5968 504.0442,558.065 506.2914,566.6701 507.0813,571.1255 508.1089,581.1111 508.3675,594.6587 507.9366,604.793 507.0759,613.8682 505.6743,621.2486 503.6378,627.7954 501.0874,632.4534 498.0422,635.5075 494.6363,637.3655 490.5353,638.0962 485.0083,637.5859 479.9672,636.2005 473.2315,633.5417 464.5,629.125 458.3719,625.4982 446.0488,617.356 438.748,612.1545 422.4823,599.7668 412.6546,591.7686 384.1991,566.8787 355.7738,539.9799 328.0769,512.3489 297.2268,479.6984 267.4492,446.4509 235.1314,408.3534 207.8561,374.6112 180.7589,339.2226 156.6679,305.8829 146.3859,290.714 137.3562,276.6616 129.7783,263.9939 124.4846,254.0822 121.8518,247.7325 121.268,245.2983 121.2752,243.5775 122.0145,242.5089 123.3075,242.3805 125.5314,243.1811 128.1366,244.7315 135.5966,250.5943 146.8135,260.8084 169.9803,283.6367 220.0455,335.0596 250.3631,365.5509 280.5011,394.8683 305.855,418.4049 328.4453,438.2522 350.882,456.9018 373.0767,474.2429 392.5958,488.3933 412.0851,501.3052 432.0293,513.2944 452.3973,524.3092 470.514,532.8714 485.7873,539.1467 503.2302,545.472 519.9688,550.7808 558.0904,561.6198 568.9666,565.59 578.1482,569.6983 586.3744,574.3721 594.2216,579.805 604.3841,587.8968 628.4027,608.6226 639.7849,617.3093 648.2185,622.8738 660.81,630.0429 672.8906,635.5138 683.7686,639.1847 695.4512,641.6033 701.9456,642.317 708.4923,642.4834 714.6228,642.098 720.6359,641.1579 726.0647,639.7397 731.3671,637.7352 736.4785,635.1411 741.3207,631.9575 745.4936,628.485 749.5654,624.2455 753.0408,619.729 755.9132,615.0695 758.4271,609.8557 760.6438,603.8368 762.3066,597.7302 763.5144,591.2651 764.2571,584.0849 764.422,576.9502 764.0604,569.5574 763.1661,562.0001 761.8165,554.7498 759.973,547.5086 757.5056,539.9286 754.5527,532.4812 751.299,525.57 747.6341,518.9265 743.7754,512.9243 738.8801,506.2862 733.9165,500.3767 728.6825,494.948 723.4808,490.3062 718.0671,486.2122 709.3355,480.8235 700.7935,476.8847 692.4575,474.3088 683.1012,472.7086 674.4219,472.3989 665.9515,473.3299 656.9311,475.5915 648.5638,478.9881 640.323,483.8628 632.8825,489.6984 626.3456,496.4343 620.5711,504.079 615.5,512.75 611.8306,521.2553 608.7863,531.7574 607.375,540.8594 607.0011,550.6323 607.4952,558.5511 609.25,568.625 611.4606,576.3327 615.5,586.375 618.8114,592.7653 625.8372,603.4246 631.4162,610.416 639.2141,618.4771 646.2538,624.6203 656.1555,631.8497 664.5491,636.9718 674.2852,641.7192 684.2517,645.5448 693.7742,648.1077 703.5041,649.6703 709.9629,650.0652 716.4597,649.8973 722.9004,649.1264 728.7705,647.829 734.4298,645.9531 739.9339,643.4503 745.2011,640.3002 749.7881,636.7952 754.1932,632.552 758.014,627.9685 761.4525,622.8503 764.2705,617.5987 766.7392,611.6934 768.9,604.8854 770.4815,597.9363 771.4934,590.9956 771.973,583.7783 771.8631,575.848 771.1659,567.4051 769.937,559.1656 768.2326,551.2451 766.1105,543.7329 763.3051,535.7741 760.0822,528.0321 756.4294,520.4915 752.3589,513.2361 748.0946,506.6538 743.4665,500.4443 738.1192,494.1457 732.7534,488.6169 727.1567,483.5938 721.3641,479.1232 712.0867,473.3076 702.3761,468.7033 693.0194,465.6614 683.3166,463.9319 673.6319,463.5799 663.9641,464.6195 653.9043,467.2246 644.7066,471.0241 635.9717,476.1971 627.157,483.1065 620.0576,490.297 613.4816,498.956 607.9385,508.4439 603.6321,518.3207 600.25,529.8976 598.6567,539.8316 598.2511,551.1322 598.7581,559.092 600.7069,570.2425 603.1084,578.6155 607.1563,588.5894 612.0755,597.9155 618.1975,607.2548 624.8552,615.4325 633.3309,624.3122 641.2843,631.2581 651.7896,639.0549 661.8126,645.1369 672.8573,650.6129 683.0852,654.5434 694.9772,657.8348 705.5048,659.6178 712.743,660.078 719.9769,659.9027 726.7164,659.1244 733.3653,657.6744 739.9037,655.5092 745.8761,652.7873 751.4304,649.4716 756.3201,645.7455 760.9417,641.3684 765.2122,636.375 769.0484,630.8001 772.2794,624.8763 775.0797,618.3385 777.3906,611.25 779.1549,603.6617 780.2724,596.0363 780.818,587.628 780.7556,578.8619 780.0847,569.8224 778.8593,561.0022 777.0523,552.1238 774.7283,543.5084 771.7038,534.4828 768.2761,525.955 764.3618,517.6529 759.9874,509.6666 755.0808,501.9344 749.7582,494.5958 744.0894,487.7231 738.1198,481.3848 731.895,475.6491 725.5526,470.6476 720.22,466.993 714.8298,463.7531 704.2796,458.6904 694.0241,455.3693 688.2683,454.1645 682.4419,453.351 677.0991,452.9765 671.4841,452.9837 666.3524,453.3682 660.9785,454.1811 655.2131,455.5006 649.6571,457.1879 644.3466,459.2238 638.9463,461.7671 633.8122,464.6809 628.5946,468.1588 623.7152,471.9039 619.1834,475.8823 614.7301,480.3459 610.7099,484.9297 606.9366,489.791 603.325,495.0825 597.2698,505.9487 592.8565,516.9074 590.9396,523.2879 589.4061,529.756 588.3687,535.7799 587.6741,542.13 587.4118,553.1532 588.4441,564.3751 590.6293,574.8189 594.1566,585.6374 598.6901,595.6607 604.5591,605.8847 611.3979,615.4381 619.5646,625.0564 628.9431,634.2287 638.1574,641.9398 650.7426,650.6028 662.402,657.417 674.1507,662.912 685.9331,667.2097 698.1606,670.3691 709.8558,672.1624 717.7928,672.5733 725.8076,672.2765 733.7695,671.2329 741.0456,669.5365 748.012,667.0711 754.449,663.9598 760.6157,660.099 766.381,655.5233 771.338,650.5846 775.9268,644.8985 780.0645,638.4968 783.5022,631.7814 786.3602,624.5548 788.7233,616.5497 790.4481,608.345 791.5987,599.6798 792.1299,590.6143 791.9964,581.2088 791.1591,571.1908 789.6703,560.9007 787.6071,550.8773 785.0238,541.2316 781.8414,531.6882 778.0733,522.3608 773.4764,512.5814 768.5435,503.4603 763.1446,494.7427 757.5284,486.8218 751.4617,479.382 744.5828,472.0114 737.4504,465.3297 730.3965,459.6057 724.689,455.5811 718.889,452.0263 713.0186,448.9584 706.7235,446.1538 700.4636,443.8316 694.2515,441.9916 688.0994,440.6339 682.0198,439.7584 675.9718,439.3637 669.2138,439.4382 663.026,439.9583 656.6441,440.9709 650.8271,442.3403 644.8569,444.2196 638.8412,446.6268 632.9074,449.4929 626.9843,452.877 621.4023,456.5841 615.5642,461.0372 610.2211,465.686 605.2868,470.5766 600.782,475.6398 596.2321,481.4439 592.2668,487.2046 588.7091,493.128 585.2446,499.741 581.977,506.8703 579.4259,513.5021 577.1866,520.7549 575.3297,528.4138 574.1718,535.012 573.4444,541.8243 573.176,554.2946 574.4052,567.5241 576.5196,577.8648 580.4065,589.7625 585.4312,600.8517 592.1992,612.7462 600.625,624.375 609.2147,634.2078 619.9255,644.705 630.772,653.5172 644.1406,662.9277 657.9381,670.9286 671.9849,677.6528 685.903,682.8797 699.9559,686.7596 713.351,688.9542 722.4767,689.5594 731.6071,689.4012 740.1694,688.4261 748.3099,686.6639 756.298,684.0529 764.0312,680.5556 770.7356,676.5464 777.1142,671.6578 782.8402,666.1597 788.1229,659.8552 792.662,653.1064 796.855,645.2414 800.2933,636.9877 803.1251,628.0386 805.2129,618.8395 806.6248,609.0896 807.341,598.2136 807.2988,586.9608 806.5304,575.7129 805.0231,564.2195 802.8423,552.9752 799.9605,541.8014 796.2614,530.2527 791.9035,518.8555 786.9185,507.7227 781.521,497.2961 775.5932,487.3257 769.2596,478.0256 762.1988,468.9074 754.7719,460.4889 747.0332,452.8202 739.0376,445.9512 732.5496,441.1053 725.9116,436.7706 718.9187,432.8123 711.9025,429.4344 704.8899,426.6288 697.5595,424.2902 690.6374,422.6329 683.4945,421.484 675.9641,420.8511 668.5941,420.7907 661.407,421.269 654.0641,422.3172 646.9751,423.8853 639.6848,426.096 632.7303,428.7906 625.7868,432.0809 618.8987,435.9681 611.8105,440.6479 604.9804,445.8372 598.5868,451.37 592.4508,457.4039 586.8241,463.6674 581.4344,470.4525 576.6116,477.3449 571.9679,484.8639 567.6346,492.8212 564.2411,500.2182 561.0285,508.5017 558.1435,517.0943 556.0381,524.9794 554.1726,534.4294 553.1435,542.4769 552.6369,557.4557 553.5983,570.3331 554.719,577.4145 556.2017,584.1522 558.2779,591.5234 560.4875,597.9609 563.2503,604.6188 566.4244,611.1998 573.8078,623.6948 581.7049,634.744 592.7688,647.5324 604.9797,659.4464 618.4454,670.6635 634.1621,681.9139 648.8565,690.7334 665.6787,699.3016 681.5909,705.8597 690.3713,708.8535 698.8891,711.3599 706.832,713.2603 714.6404,714.6909 726.0529,716.0117 737.6044,716.3863 748.0119,715.7693 758.0516,714.1547 767.6253,711.5613 776.9837,707.8612 785.6513,703.1837 793.5487,697.6095 800.7219,691.1677 807.3588,683.6426 813.131,675.3578 817.9938,666.4857 822.348,656.3087 825.8518,645.5142 828.4925,634.2593 830.3175,622.2746 831.25,609.625 831.2645,595.8395 830.3393,581.5155 828.5164,567.1923 825.8517,553.0395 822.2933,538.8201 817.9084,524.889 812.738,511.1805 806.668,497.426 800.0583,484.4617 792.8104,472.0586 784.9717,460.3449 776.4952,449.3115 767.4282,438.9658 758.0186,429.5779 748.0423,420.9569 738.4296,413.837 728.6765,407.7334 718.5573,402.5127 708.1892,398.1999 697.5571,394.8298 687.0816,392.5368 676.812,391.2815 666.2397,391.032 655.6122,391.7926 645.0379,393.5518 634.5732,396.2998 623.9444,400.1427 613.6846,404.8883 603.5932,410.6233 593.9951,417.1548 584.3137,424.8924 576.5966,431.9161 569.0588,439.601 562.0301,447.6429 555.2741,456.3235 548.7949,465.6935 542.7925,475.4673 537.5849,484.9644 532.9335,494.7657 527.1966,508.7515 522.7738,521.7067 519.8491,532.1446 516.4354,548.0255 514.1447,562.4508 512.5325,575.7661 508.948,620.886 506.4936,634.4999 504.9839,638.7069 503.2159,642.1446 501.5773,644.2037 499.4651,645.8387 496.9951,646.9633 493.4153,647.5708 490.3713,647.4438 486.1504,646.6084 478.7075,643.7486 472.0491,640.4248 463.2577,635.3166 453.0417,628.5264 442.8008,621.1683 428.6322,610.145 406.0205,591.2307 379.7138,567.5115 347.4262,536.221 319.5329,507.5623 289.1692,474.757 257.2785,438.5296 226.3291,401.5089 196.7812,364.1875 168.3326,326.2767 156.365,309.5887 145.1197,293.2205 135.0377,277.8023 126.6433,264.1528 120.3148,252.938 116.3736,244.7874 114.469,238.7866 114.4183,237.0049 114.91,235.8988 116.1446,235.4875 117.8209,235.896 122.8699,238.9469 130.8245,245.5597 141.6919,255.6973 164.4949,278.4682 216.1663,332.0096 246.9374,363.2787 277.2003,393.0514 302.672,416.9808 327.0002,438.5785 351.1173,458.7422 374.3383,476.8858 395.7348,492.2887 416.5628,505.9127 437.3427,518.1577 457.9332,528.9638 477.51,537.8298 493.3043,543.9473 510.1784,549.5861 528.0158,554.6753 566.579,564.4173 578.5873,568.3413 587.3134,571.9255 595.804,576.3584 602.8163,580.7841 612.2454,587.7037 635.6622,606.0701 646.7469,613.7916 653.807,618.1669 664.0576,623.5813 673.2364,627.4959 683.4742,630.8266 692.7188,632.8146 698.7373,633.528 704.398,633.7582 709.7862,633.4709 715.1483,632.6768 720.7455,631.3079 725.7013,629.5809 730.4383,627.2878 734.641,624.624 738.5839,621.4657 742.0816,617.9622 745.4573,613.7019 748.271,609.2427 750.7152,604.3702 752.7468,599.1363 754.3283,593.6246 755.4855,587.7844 756.1906,581.6441 756.3962,575.2906 756.0597,568.7338 755.2134,561.7622 753.9542,555.0496 752.2342,548.3331 750.1731,542.0758 747.4288,535.2891 744.4717,528.9957 741.3503,523.2434 737.9035,517.7596 734.3566,512.9159 729.4898,507.1905 724.6027,502.18 719.4913,497.6579 714.4828,493.8938 706.797,489.2629 699.0775,485.779 691.6762,483.5192 683.733,482.217 675.5893,481.8957 668.1437,482.6222 660.3278,484.5846 652.9017,487.594 646.0444,491.5993 639.2997,496.8836 633.4508,502.8393 628.2601,509.6275 624.0609,516.86 620.5578,524.9713 618.14,533.3625 616.6095,542.3164 616.3127,550.2839 616.9526,559.0539 618.4909,567.3351 620.956,575.7475 624.1622,583.4354 628.487,591.5444 633.0767,598.3681 638.8682,605.5747 645.2031,612.1562 652.5655,618.5045 659.332,623.3995 667.3005,628.1777 675.5531,632.2779 683.8178,635.4705 692.3585,637.8875 700.2432,639.2195 706.3214,639.6405 712.3741,639.5477 718.0076,638.9377 723.2304,637.8265 728.3342,636.191 733.2345,634.0311 737.668,631.4621 742.1466,628.1352 746.0603,624.4852 749.6372,620.3356 752.8197,615.6956 755.5936,610.642 757.9765,605.1172 759.7969,599.5391 761.0858,594.0092 761.9988,587.8069 762.4754,581.2188 762.4775,574.3877 762.0191,567.775 761.0896,561.0649 759.4746,553.3217 757.4929,546.0398 755.0561,538.8272 752.157,531.7563 748.9576,525.2134 745.1211,518.4629 741.1315,512.3525 736.8192,506.5974 732.4482,501.527 727.6547,496.7256 722.2541,492.0037 717.015,488.0306 708.7888,482.9608 700.6255,479.2994 691.6593,476.5189 682.809,475.0154 674.1782,474.8281 665.7734,475.8284 657.4827,478.0514 649.3661,481.4868 641.5642,486.0823 634.5294,491.6583 627.7792,498.6052 622.1193,506.1692 617.4742,514.2675 613.7197,523.3322 611.2508,532.2096 609.7905,541.8785 609.4119,550.6956 610.071,559.8333 611.5278,568.1435 614.0396,576.5802 617.3109,584.73 621.7653,593.116 626.926,601.0369 633.0987,608.7232 639.9246,615.9915 647.3887,622.5645 655.9406,628.9808 664.6816,634.3358 673.9578,639.0495 682.4881,642.4116 692.5007,645.2536 701.5197,646.8367 708.0525,647.3009 714.5853,647.219 720.5975,646.6379 726.5026,645.4484 731.9575,643.7373 737.245,641.4494 742.2321,638.6145 746.9579,635.1722 751.3979,631.1057 755.2343,626.743 758.6922,621.8636 761.5641,616.7789 764.188,610.8377 766.2316,604.7554 767.8071,598.2812 768.8692,591.4795 769.4136,584.2034 769.4338,576.436 768.9235,568.8142 767.8708,561.0579 766.3449,553.6403 763.9661,544.9343 761.3047,537.0201 758.1637,529.247 754.8806,522.3876 751.1704,515.7875 746.4687,508.5452 741.4,501.7124 736.493,495.9277 731.3193,490.6159 726.0522,485.9644 720.2975,481.5519 711.148,475.7722 702.1568,471.5483 692.7067,468.6024 682.8628,466.8711 673.6889,466.574 664.2739,467.6823 654.9522,470.0522 645.9819,473.7452 636.9999,479.0595 628.989,485.381 621.7671,492.863 615.3721,501.3963 610.219,510.34 606.2791,519.8926 603.2305,530.5512 601.5598,541.3882 601.1493,550.5447 601.8534,560.1034 603.4718,569.4746 606.2384,578.6584 610.1115,588.1359 615.164,597.5131 620.6011,605.7354 627.4496,614.0659 635.0927,621.9974 644.0428,629.7286 653.5108,636.6708 663.3687,642.6396 673.6328,647.6895 683.9704,651.6362 694.3213,654.5188 704.024,656.1187 711.5882,656.6151 718.7501,656.4775 725.1328,655.7629 731.4688,654.4062 737.672,652.3861 743.3122,649.8594 748.6678,646.7216 753.7367,642.9442 758.4816,638.5072 762.5689,633.7361 766.2194,628.3882 769.4263,622.4943 772.1928,616.0331 774.4573,609.0455 776.084,601.9772 777.1365,594.7419 777.7224,586.4525 777.717,578.2089 777.128,569.7366 775.9938,561.508 774.1744,552.7434 771.7202,543.6445 768.8347,534.9681 765.4244,526.4524 761.6583,518.5368 757.5346,511.1563 752.4738,503.2675 747.2453,496.1374 741.683,489.4952 736.0832,483.659 730.2721,478.4058 723.9911,473.4726 714.0054,467.0407 708.7702,464.33 703.8337,462.1835 698.7117,460.375 692.9384,458.7654 687.6176,457.659 681.993,456.8941 676.8182,456.5689 671.3578,456.6332 666.1396,457.0981 660.7168,457.9883 655.4912,459.2475 650.4582,460.8475 645.2741,462.9083 640.2723,465.3078 635.5047,468.0084 630.7263,471.1797 626.253,474.6166 621.776,478.5505 617.4392,482.8669 613.326,487.5178 609.619,492.305 606.2846,497.2286 603.1927,502.4726 600.3829,508.0722 595.7222,520.0582 592.9454,530.5507 591.3073,542.5416 591.1376,552.5881 592.2323,564.288 594.3283,573.9964 597.7789,584.5004 602.0813,594.2191 607.3125,603.457 614.436,613.4182 621.9817,622.3547 631.366,631.5352 639.8981,638.7259 651.5003,646.8456 661.8604,652.9262 673.9585,658.6073 685.3237,662.9044 696.7828,665.9013 708.8555,667.7971 716.7992,668.2064 724.438,667.9033 732.0199,666.8985 738.9518,665.2869 745.6299,662.9351 751.7754,659.9709 757.6525,656.2819 762.875,652.125 767.8814,647.1504 772.5133,641.4351 776.4785,635.3399 779.7671,628.9848 782.5854,621.9188 784.8763,614.2272 786.6294,605.9631 787.749,597.6089 788.2719,588.8985 788.1674,580.3268 787.3969,570.8392 785.9492,560.866 783.9207,551.1454 781.3781,541.7967 778.2503,532.5474 774.5968,523.5679 770.148,514.1501 765.3848,505.3955 760.1773,497.0376 754.775,489.4564 748.7515,482.0964 742.4963,475.3975 735.9969,469.3004 728.9926,463.6123 723.3123,459.6197 717.8405,456.2703 711.9565,453.1789 706.0828,450.5636 700.2286,448.4085 694.0429,446.6102 688.2657,445.3679 682.1878,444.5131 676.187,444.1213 670.2825,444.1618 664.1664,444.6568 658.2338,445.5885 652.1267,447.0225 646.2166,448.8785 640.3891,451.1771 634.8332,453.8411 629.2455,457.0263 623.9625,460.5432 618.6252,464.6329 613.587,469.0381 608.7344,473.875 604.3033,478.8894 599.7602,484.6997 595.9535,490.2453 592.4298,496.1698 589.197,502.4822 586.2953,509.0725 583.8658,515.6125 581.9052,522.0755 580.294,528.8951 579.1703,535.5108 578.4777,541.982 578.1697,553.7495 579.3385,565.4356 581.7135,577.3138 585.642,589.3184 590.3353,599.5508 596.6535,610.4369 604.2841,620.7622 613.3403,631.3682 624.5,642.125 633.391,649.4124 647.4728,659.1677 659.1223,665.8852 673.215,672.5202 685.8498,677.2334 699.5536,680.9115 712.2891,682.9664 720.9752,683.4798 729.7045,683.2385 737.9757,682.2573 745.951,680.4862 753.4597,677.9542 760.4002,674.7456 767.0255,670.728 773.0422,666.052 778.7218,660.5268 783.741,654.4646 788.2759,647.6387 792.0622,640.4333 795.33,632.3577 797.914,623.8541 799.8927,614.7339 801.1812,605.468 801.8435,595.3563 801.78,585.0485 801.0069,574.1568 799.52,563.0153 797.3899,552.1165 794.6741,541.5729 791.2982,531.1043 787.2229,520.6462 782.4315,510.1244 777.0806,499.9488 771.2125,490.2129 765.0878,481.3073 758.5465,472.9678 751.3112,464.8794 743.7771,457.5279 735.9989,450.9527 729.815,446.4008 723.5419,442.361 717.0663,438.7742 710.1273,435.4977 703.2092,432.7864 696.3273,430.6342 689.4967,429.0351 682.7329,427.9829 675.9353,427.4667 668.7315,427.4708 661.7567,427.9989 654.6382,429.0882 647.7655,430.6858 641.1336,432.7528 634.3321,435.4246 628.0054,438.4371 621.3797,442.1884 615.1571,446.3204 609.0317,451.018 602.7711,456.5042 597.0212,462.2211 591.5386,468.3907 586.5165,474.7736 581.7889,481.5845 577.6506,488.3953 573.7131,495.8547 570.3535,503.2458 567.4678,510.7804 565.0178,518.5589 563.0328,526.415 561.5593,534.2661 560.5665,542.2758 560.1499,553.8172 561.0482,567.2985 562.1135,574.0167 563.7871,581.7574 566.8193,591.5749 572.4028,604.8366 580.3185,618.8031 587.5707,629.0946 597.3527,640.7099 610.3855,653.4899 621.3404,662.6936 636.5013,673.7232 650.9582,682.5329 665.9344,690.1618 681.2678,696.4163 697.4796,701.5161 704.7897,703.235 711.8838,704.5175 722.5517,705.7434 733.3684,706.1222 742.7029,705.6095 751.6644,704.2412 760.5233,701.9546 769.178,698.6905 776.9547,694.7235 784.4601,689.7587 791.2948,684.0218 797.4027,677.6035 802.7513,670.5967 807.4994,662.8019 811.7379,654.0477 815.3539,644.4488 818.1783,634.4443 820.2812,623.7553 821.5925,612.431 822.0943,600.4475 821.7845,587.6889 820.6712,574.9126 818.7405,561.8755 816.0694,549.0813 812.6614,536.4598 808.4474,523.7413 803.5245,511.2292 797.9375,499.0355 791.7313,487.272 785.1519,476.3629 778.0048,465.9694 770.083,455.8213 761.7658,446.4474 753.1174,437.9118 746.4523,432.099 739.9491,427.0297 733.3565,422.4754 726.5867,418.371 719.3877,414.5556 711.8417,411.1411 704.6832,408.4409 697.213,406.1724 689.8075,404.4714 682.4841,403.3249 675.317,402.7144 667.7468,402.5847 660.3691,402.9692 652.8231,403.8936 645.5149,405.314 638.4573,407.1926 631.1195,409.6956 623.8259,412.7416 616.5494,416.3526 609.6487,420.3299 602.5033,425.0382 595.6565,430.131 589.1871,435.5342 582.9562,441.3736 576.9839,447.6275 571.0513,454.5403 565.4448,461.7806 560.3532,469.0814 555.6359,476.6087 551.0615,484.7718 547.005,492.9074 543.2398,501.473 540.2558,509.1869 537.6905,516.9855 535.4572,525.1606 533.5176,533.7656 531.0268,550.2667 530.2352,566.5688 530.3805,573.6226 531.0798,582.2856 533.375,596.25 536.8902,609.5207 541.5057,621.6346 544.094,627.1566 547.4023,633.2067 551.5753,640.1236 555.5527,645.9465 565.0188,658.2339 577.4532,671.6415 592.5,685.5 603.174,694.1036 621.6744,707.4074 638.3102,717.7714 656.8014,727.8481 675.3754,736.3152 694.5514,743.5169 703.4257,746.2241 712.6017,748.5774 721.651,750.4602 730.8936,751.9321 739.6754,752.8971 748.1884,753.3734 756.4384,753.3596 764.3713,752.8679 771.9444,751.9213 779.5025,750.4667 786.6394,748.5771 793.6002,746.1948 800.1561,743.3958 806.5934,740.0605 812.5659,736.377 818.3672,732.1747 823.966,727.4366 829.055,722.4382 833.9075,716.9293 838.3662,711.0784 842.4763,704.8153 846.1414,698.3385 849.5256,691.4 852.6088,684.0134 855.3709,676.1921 857.7919,667.9493 860.0201,658.4924 861.7278,648.9901 862.9937,639.0733 863.7902,628.9296 864.1382,618.4152 864.0315,607.5825 863.4645,596.4763 862.4318,585.1412 860.928,573.6219 859.0212,562.3536 856.6642,550.9954 853.9564,539.9815 850.7854,528.8388 847.1366,517.5262 843.0904,506.3043 838.6631,495.2175 833.8709,484.3106 828.7299,473.6282 823.2564,463.2149 817.6582,453.4357 811.7786,443.9907 805.8411,435.2162 799.4387,426.5232 792.6571,418.0429 785.6998,410.0322 778.3106,402.2207 770.776,394.9367 763.1188,388.1911 755.3613,381.9947 747.526,376.3583 739.6356,371.2927 731.7126,366.8087 723.1447,362.6025 714.8271,359.1087 706.1953,356.0783 697.6467,353.66 688.8346,351.7628 680.1536,350.4782 671.6242,349.7786 662.9229,349.6422 654.2218,350.088 645.1079,351.1499 636.2843,352.7631 627.3912,354.9818 618.8235,357.693 610.2501,360.9815 601.7198,364.8381 592.9488,369.4045 584.429,374.4112 576.3904,379.6889 568.5181,385.4156 560.8446,391.5645 552.9045,398.5463 545.3121,405.8036 537.8208,413.5685 530.505,421.7854 518.7407,436.3837 507.7243,451.7161 495.7301,470.4424 474.3891,506.5126 469.1112,514.0433 463.4844,520.5156 460.2841,523.5191 457.0406,526.0423 453.8145,528.0154 450.4168,529.5444 446.8407,530.6452 443.2952,531.2792 439.1729,531.5356 434.75,531.375 430.6675,530.8273 425.9854,529.738 414.6965,525.9264 403.755,520.6907 391.0532,513.4085 376.2192,503.3584 361.2543,492.2078 343.9167,478.0067 328.2427,464.1844 307.0901,444.1971 291.4729,428.5576 268.6061,404.2064 253.1806,386.7423 232.6629,362.0462 220.7966,346.4283 214.8422,337.7464 210.8421,331.1804 209.0167,327.0847 208.7967,325.6541 209.0415,324.9689 209.6683,324.7078 210.6843,324.8853 213.8712,326.5317 218.7701,329.9623 224.7937,334.7503 282.8895,386.3355 302.8017,403.6241 329.4591,425.8711 354.1106,445.2007 373.2601,459.3961 389.2298,470.453 414.256,486.782 452.6244,510.5273 460.17,515.6688 466.5363,520.4713 473.5667,527.1699 478.0779,532.9601 480.0012,536.5393 481.291,539.7363 482.1905,543.4924 482.5749,546.9862 482.3619,551.2169 481.4402,555.3419 479.6574,559.2593 477.3152,562.4117 474.3878,565.0111 470.8906,566.964 467.1066,568.1561 462.3266,568.7316 458.0268,568.647 453.0064,567.9165 447.7531,566.6471 441.9247,564.6484 429.1376,558.8617 413.625,549.875"/>
  </g>
</svg>
