<?xml version="1.0" encoding="utf-8" ?>
<svg xmlns="http://www.w3.org/2000/svg" xmlns:cc="http://creativecommons.org/ns" xmlns:dc="http://purl.org/dc/elements/1.1/" xmlns:ev="http://www.w3.org/2001/xml-events" xmlns:inkscape="http://www.inkscape.org/namespaces/inkscape" xmlns:rdf="http://www.w3.org/1999/02/22-rdf-syntax-ns" xmlns:sodipodi="http://sodipodi.sourceforge.net/DTD/sodipodi-0.dtd" xmlns:xlink="http://www.w3.org/1999/xlink" baseProfile="tiny" height="27.09333333cm" version="1.2" viewBox="0 0 1024.0 1024.0" width="27.09333333cm">
  <metadata>
    <rdf:RDF>
      <cc:Work>
        <dc:format>image/svg+xml</dc:format>
        <dc:source>vpype read './original_svgs/Strange Attractors #406.svg' linemerge linesimplify write './Strange Attractors #406.svg'
</dc:source>
        <dc:date>2024-08-05T01:35:56.753063</dc:date>
      </cc:Work>
    </rdf:RDF>
  </metadata>
  <defs/>
  <g fill="none" id="layer1" inkscape:groupmode="layer" inkscape:label="1" stroke="black" style="display:inline">
    <polyline points="477.125,824.75 485.7923,832.2714 493.5156,839.4844 508.4667,855.1877 494.4957,830.6048 482.716,808.9508 469.5211,783.371 455.268,754.5993 445.4631,733.7878 435.8264,712.1453 426.7419,690.5184 418.547,669.7274 411.6727,650.7522 405.6991,632.4535 400.6973,615.0442 396.7382,598.7374 394.1045,584.856 392.4716,571.8478 391.8109,559.6469 392.1187,548.3957 392.7498,542.2455 393.7385,536.4164 395.1185,530.9536 396.8353,525.9912 399.0178,521.1879 401.5008,516.9255 404.4416,512.9357 407.6277,509.5064 411.2906,506.3784 415.153,503.7813 419.4943,501.5301 423.9265,499.8247 428.7631,498.5424 433.8339,497.7253 439.2853,497.3514 444.6342,497.4613 450.1436,498.0678 456.3409,499.311 462.2634,501.017 467.7613,503.1353 473.7305,506.0785 479.3639,509.3911 483.75,512.5 488.9986,516.9402 493.1745,521.19 496.891,525.84 500.1449,530.7733 503.4272,536.7375 505.3483,541.3604 506.919,546.4134 508.0496,551.3484 508.4062,554.7422 508.2188,556.0781 507.5278,555.7639 506.1743,552.1128 502.375,535.8997 498.3325,514.0847 494.3421,489.0838 488.1966,444.7072 483.1802,397.7469 480.0095,358.0984 478.0325,317.6355 477.5794,281.676 478.4814,247.2704 479.359,232.5916 480.5963,218.3094 482.1789,204.5301 484.0902,191.3517 486.383,178.4924 488.9888,166.4038 491.6977,155.8627 494.8477,145.6187 498.2439,136.3307 501.9991,127.6608 506.1082,119.6907 510.373,112.7852 514.9532,106.6694 519.625,101.625 524.4758,97.5175 529.931,94.0768 534.9698,91.8491 540.1902,90.3955 545.5639,89.7318 550.6925,89.839 556.2819,90.7473 561.5624,92.3491 566.7603,94.631 572.2417,97.7814 577.7315,101.6739 583.4553,106.5135 589.1136,112.0969 594.4185,118.0873 599.5956,124.6913 604.6117,131.8775 609.4337,139.6145 614.0284,147.871 618.4676,156.8015 622.6043,166.0614 626.4675,175.6828 630.0428,185.6167 633.3158,195.8143 636.3717,206.6019 641.2521,227.8837 644.7204,249.5895 646.8369,271.8672 647.5604,294.1074 646.8778,316.4372 645.5824,331.5352 643.5849,346.6122 640.9644,361.375 637.6495,376.1724 633.7357,390.5354 629.2659,404.4022 624.1796,418.0082 618.2165,432.0885 612.4046,444.3825 606.1491,456.3821 599.5102,468.0198 591.9274,480.2851 577.507,501.5037 547.1868,543.0172 537.3199,558.096 532.3966,567.0674 528.0,576.625 524.6969,585.4349 522.0905,594.5078 520.1902,604.2188 518.5663,617.864 517.9885,633.6116 518.1822,644.7773 519.033,661.1014 520.7857,684.3387 528.1058,758.4567 529.3796,776.136 529.7626,787.2778 529.3826,798.984 528.2242,807.2481 527.2025,810.5764 526.0265,812.9254 524.5813,814.6145 523.1439,815.475 520.3452,815.7259 517.4317,814.756 514.1061,812.6067 510.3516,809.2425 505.8394,804.3063 500.7666,797.9698 490.1352,782.6643 477.7244,762.1232 465.1598,739.0976 452.8815,714.2164 441.3022,688.4124 433.1669,668.1663 426.0056,647.9963 419.9331,628.1578 415.7209,611.1856 412.8527,595.1072 411.4872,580.8005 411.5921,568.3575 412.1812,562.6295 413.1743,557.0306 415.3438,549.5357 418.4382,542.9292 422.4971,537.34 427.4238,532.8633 430.3239,530.9988 433.2793,529.5525 439.9668,527.5052 446.4017,526.8847 453.5881,527.611 461.4035,529.664 468.4441,532.7647 475.6768,537.2161 481.7968,542.3407 487.822,548.7781 493.167,556.1678 497.3441,563.4039 501.5523,572.8676 504.7441,582.3711 507.4016,591.8518 510.1405,604.7702 512.5632,619.3871 533.5747,770.802 537.6282,804.8102 538.5938,816.2685 539.049,827.5555 538.9736,835.9004 538.3504,842.3485 537.1935,847.1011 535.3699,850.5943 534.1875,851.6875 533.093,852.2267 531.5218,852.4613 530.0897,852.2825 526.9095,850.9993 523.59,848.6897 519.8134,845.2226 515.3071,840.2851 504.6895,826.4831 492.8474,808.7359 478.9317,785.5985 463.9304,758.6002 451.0641,733.5625 438.335,706.8751 426.917,681.1988 418.0964,659.733 410.2498,638.4412 403.4451,617.4403 398.0615,597.8882 394.5652,581.6375 392.3625,565.9248 391.5643,551.2127 392.1751,538.2706 392.957,532.7562 394.1574,527.2674 395.6902,522.2647 397.6714,517.3989 399.9513,513.051 402.4852,509.197 405.4574,505.5609 408.6614,502.4197 412.3875,499.5167 416.2955,497.1351 420.3253,495.2491 424.7584,493.735 429.6205,492.6291 435.0549,491.9008 440.8132,491.6742 446.4327,491.9841 453.0062,492.9696 459.4929,494.4629 464.8259,496.165 470.018,498.362 476.0625,501.4375 481.4352,504.737 487.1305,508.9688 491.1543,512.4473 495.2973,516.9527 499.0857,521.6648 502.2095,526.6245 504.5596,531.2925 507.2478,538.5173 507.6562,541.0625 507.0938,540.4062 505.9953,537.0083 502.0262,518.4284 497.9187,494.0119 494.0459,467.3891 488.3519,420.8263 483.9357,368.5557 481.8964,326.5657 481.4115,305.7093 481.4044,287.6045 481.852,269.0323 482.7358,250.9788 484.125,232.5 485.7192,217.5181 487.8276,202.7474 490.3842,188.7444 493.3575,175.6425 496.7158,163.5492 500.2788,152.9736 504.2442,143.3588 508.68,134.5749 513.3505,127.0488 518.4106,120.5035 523.8395,115.0456 529.3581,110.9408 535.4071,107.9029 541.8713,106.0949 548.2174,105.6005 554.7282,106.308 561.3531,108.2334 565.4363,110.0165 569.5318,112.264 577.3754,117.8753 585.2507,125.2174 593.1495,134.3643 600.4922,144.6432 607.4025,156.1692 613.7684,168.8109 619.4568,182.3043 624.5396,196.6289 629.0277,211.8858 632.7468,227.5752 635.6555,243.5385 637.673,259.2341 638.9885,276.2921 639.4752,293.108 639.1605,309.5564 638.2076,324.0798 636.5955,338.5113 634.2868,352.9104 631.2516,367.6373 627.6257,381.9417 623.4393,395.7774 618.7327,409.0993 613.2208,422.7074 607.6019,435.1696 601.7132,447.0088 595.4171,458.5329 588.2296,470.5734 573.4165,493.1803 545.0602,533.1888 535.1343,548.8964 530.2673,558.167 526.0311,567.7193 523.3573,575.6949 520.6749,586.0566 518.4344,600.7514 517.4853,615.7424 517.5107,627.3042 518.3804,645.5516 519.4294,660.0994 521.7102,683.6479 533.3429,780.011 534.7342,795.3635 535.5779,810.6997 535.5671,821.8121 534.6041,829.7124 533.7988,832.8372 532.75,835.3906 531.4256,837.3124 529.7934,838.5423 527.3287,839.013 524.6636,838.3263 521.2739,836.319 517.6406,833.2593 513.1127,828.5919 508.2735,822.8896 497.7887,808.4177 485.0747,788.3088 471.6263,764.9741 458.2244,739.5066 444.6851,711.7294 434.5554,689.3484 425.3823,667.0843 417.0487,644.6711 410.1578,623.7229 405.3709,606.1835 401.8618,589.5602 399.6838,574.1429 398.8983,560.2617 399.1318,552.513 399.8703,545.4488 401.1435,538.7222 402.969,532.4373 405.1832,527.0446 408.0898,521.9102 411.4256,517.5545 415.099,513.9385 419.3052,510.8403 424.0974,508.3055 429.5594,506.3611 435.1325,505.1994 441.0457,504.7461 448.0111,505.0684 454.5035,506.0398 460.629,507.6524 467.2146,510.2042 473.0817,513.1024 477.75,516.0 483.4985,520.3592 488.2466,524.6936 493.152,530.164 496.4777,534.6559 499.8493,540.399 502.5728,545.8622 505.3862,553.0463 507.2306,559.3824 508.625,565.625 509.6352,572.5062 510.436,582.058 510.5263,591.2498 509.749,596.821 509.2344,597.5312 508.75,597.375 507.963,596.1528 505.2036,587.4378 499.5161,561.6671 494.8733,537.2617 486.7105,487.5933 481.1583,448.7293 477.3083,418.0365 472.0971,368.1026 470.2067,344.2995 468.7264,320.6146 467.6363,296.785 467.0591,275.1359 466.9367,254.0104 467.288,233.2961 468.0256,215.1328 469.1876,197.3215 470.685,181.2982 472.6114,165.8617 475.0222,150.7519 477.7786,136.848 480.9186,123.8399 484.5292,111.4574 488.5083,100.1244 492.6542,90.3203 497.3764,81.0805 502.3354,73.0618 507.6992,65.9387 513.4484,59.787 519.5637,54.683 525.7378,50.8513 531.9118,48.214 537.9634,46.6935 544.1501,46.1308 550.8457,46.5317 557.7039,47.9379 564.6819,50.3384 571.737,53.7224 578.8266,58.079 585.9079,63.3972 592.6053,69.3462 599.2196,76.1483 605.5684,83.5852 611.9529,91.9818 618.3399,101.3669 624.4854,111.4179 630.3539,122.0713 635.7416,132.9061 640.8042,144.1888 645.5094,155.8615 649.8251,167.8662 653.6676,179.9683 657.1987,192.6315 660.303,205.4185 663.0556,218.662 665.3613,231.9371 667.2697,245.571 668.7113,259.1297 669.6892,272.5581 670.2063,285.8012 670.2656,298.804 669.8662,311.9907 669.0267,325.0301 667.2121,342.3696 664.6375,359.3622 661.2598,376.2681 657.1788,392.6004 652.2764,408.8115 646.6946,424.5031 640.268,440.1219 633.2015,455.164 626.2522,468.3736 618.5179,481.7152 610.4002,494.5281 601.585,507.3163 586.6671,527.0097 553.3923,567.3159 545.5758,577.3293 539.622,585.541 534.822,593.0238 530.4021,600.8787 527.3038,607.2149 524.4559,614.3314 521.3489,623.9535 519.234,632.7583 517.4908,643.2472 516.5572,653.7241 515.9539,666.6468 516.0039,684.3925 517.1237,728.3746 516.9303,739.3425 516.3332,748.3216 515.3576,755.2606 513.9807,760.186 511.9823,763.7216 509.7253,765.3322 507.6357,765.647 505.4776,765.2281 503.2682,764.1499 500.5209,762.1407 494.2168,755.7236 487.2415,746.2763 479.1177,733.3026 471.8125,719.8906 462.4945,700.6337 455.772,684.8635 449.9273,669.2276 445.3011,655.0909 441.717,641.5669 439.0545,628.3292 437.6303,617.0139 437.2773,606.5195 438.0408,597.4383 439.8903,589.8987 441.9436,585.1172 444.3801,581.4082 447.25,578.625 450.7382,576.5786 454.6039,575.5238 458.8694,575.4012 462.7449,576.1324 467.8546,578.1662 471.843,580.4551 475.4649,583.3251 479.6989,587.4952 483.4055,591.9818 487.1689,597.4941 490.2594,602.795 496.9028,617.2958 502.4839,634.7746 507.8835,657.6569 511.1469,675.9356 513.8015,693.4111 517.0424,720.7881 518.5446,745.1658 518.5916,754.1696 518.2402,761.2971 517.3918,767.1241 516.0199,771.7755 514.383,774.6414 512.1649,776.2731 510.0347,776.5775 507.6789,775.9411 505.0026,774.3791 501.542,771.5155 498.0633,767.9695 494.2964,763.4804 486.1959,752.0721 477.7192,737.9649 468.1772,719.8948 459.7242,702.2872 451.9446,683.9851 445.6505,667.4341 440.9103,653.0227 436.7771,637.8005 433.8605,623.849 432.2042,611.2848 431.7462,600.2133 432.4563,590.5689 434.3872,582.1111 436.4069,577.1064 439.0402,572.832 442.3228,569.3588 445.9381,566.9474 450.4141,565.3795 455.0115,564.9001 459.2461,565.332 464.5772,566.9375 469.0391,569.0727 473.1835,571.8853 478.1116,576.0595 482.1265,580.3746 486.421,586.1313 489.9277,591.6808 494.218,600.067 497.2823,607.0435 500.9639,617.4196 503.4612,625.5752 506.7634,638.7467 509.2007,650.3296 515.3444,687.4507 518.3795,709.7146 520.2736,727.2205 521.4016,739.6247 522.3788,756.1099 522.5527,764.266 522.24,772.1598 521.4838,779.2011 520.25,784.25 518.4769,787.8009 517.2246,789.126 516.0648,789.8241 513.6582,790.2169 511.266,789.6582 508.4949,788.1205 505.3898,785.6002 501.5715,781.7299 497.2783,776.7 488.7806,764.6911 477.2692,745.7771 468.304,729.2407 457.7095,707.3726 448.1904,685.4805 441.0489,666.8884 434.9895,648.8648 430.6729,633.3528 427.4703,618.5087 425.4206,604.5427 424.7876,592.9878 425.4451,581.8819 426.2962,576.7412 427.4616,572.1412 429.744,566.2949 432.5905,561.5455 436.1842,557.5994 440.4322,554.5994 444.9708,552.6827 449.6159,551.8475 455.604,551.9945 461.2095,553.2043 467.1444,555.7413 472.7352,559.0974 477.809,563.2493 482.8495,568.316 486.4044,572.8062 492.1214,581.6929 495.158,587.4587 498.5867,595.3573 502.1797,605.4773 505.4201,616.8914 509.1669,632.8959 512.0809,648.2016 517.732,684.144 521.2081,710.2573 524.4259,737.8034 527.0201,767.2951 527.5687,779.8245 527.5134,789.4796 526.8598,796.9426 525.6222,802.7183 523.7642,806.5472 522.625,807.75 521.4124,808.5043 518.8695,808.9057 515.8136,808.0076 512.186,805.7281 508.4836,802.5018 504.3669,798.0715 499.5862,792.1219 488.8299,776.612 477.2737,757.3459 464.4497,733.4283 453.3607,710.7847 442.8477,686.9009 434.2851,665.3084 427.9987,647.2001 422.4272,628.0992 418.1935,609.8457 415.8829,595.2569 414.9463,581.5281 415.0203,575.3746 415.4664,569.4224 416.2548,564.1416 417.412,559.1944 419.8627,552.3774 423.1098,546.5015 427.1226,541.6606 431.6902,538.0389 436.9366,535.45 443.026,533.9528 449.5079,533.602 455.8829,534.4167 462.5278,536.4283 469.1204,539.5222 475.7731,543.9167 481.5468,548.8401 487.3857,555.3596 491.9263,561.5481 496.6441,569.9047 500.125,577.625 503.8443,587.9431 506.5544,597.8074 508.8122,607.5659 512.4358,626.4767 517.5747,660.9424 525.0581,716.1872 530.0758,753.7324 533.4832,783.1196 534.9011,799.3152 535.5449,810.5762 535.5803,819.5141 534.996,827.228 533.6565,833.3187 531.6802,837.1239 530.3943,838.3117 529.1596,838.8889 527.4657,839.0661 525.8647,838.7683 522.9159,837.4135 519.4518,834.9291 515.7686,831.5515 511.5584,826.9397 501.8214,814.2715 490.2694,796.965 478.7579,777.7312 465.9783,754.493 452.7715,728.8104 441.4941,705.0712 431.5056,682.2726 422.5418,660.0216 415.6154,640.9983 409.701,622.4338 404.8517,604.2983 401.418,587.7812 399.484,573.544 398.8038,560.0481 399.0523,552.2176 399.7957,545.1006 401.031,538.5564 402.7705,532.6219 405.1233,526.9953 408.0965,521.8104 411.4468,517.4497 415.2988,513.6985 419.8117,510.4364 424.583,507.9401 429.5125,506.1797 434.8889,505.0709 441.4769,504.5741 447.9409,504.8454 453.8068,505.7605 460.6062,507.5848 466.3659,509.7158 471.6328,512.2761 477.9658,516.1521 483.3769,520.1422 488.3496,524.7414 492.691,529.4857 496.2524,534.3902 499.7389,539.9432 502.7658,546.1808 505.0368,551.83 507.2939,559.5995 508.9056,567.1535 509.9812,576.0146 510.489,583.4993 510.3906,592.322 509.8565,595.4352 509.3056,596.4444 508.586,596.18 507.241,593.4178 505.7336,588.5485 500.5305,565.9563 495.9195,541.9994 490.3009,509.4682 485.72,479.8168 481.2604,448.6237 477.2872,416.8996 474.6188,392.6516 472.3432,368.3112 470.3334,342.4809 468.7259,316.82 467.8052,295.7695 467.2995,274.7373 467.2236,254.334 467.5693,234.3689 468.2913,215.8972 469.369,199.1233 470.8674,182.8107 472.7915,167.1002 475.0771,152.4815 477.7606,138.6604 480.8333,125.7116 484.3329,113.5486 488.2377,102.3341 492.4521,92.2434 497.1046,82.9413 502.188,74.5201 507.4753,67.3394 513.1477,61.1405 518.9494,56.1893 525.1746,52.2501 530.5025,49.8834 536.0459,48.2761 542.1188,47.4084 548.0168,47.3828 554.4018,48.2028 560.5346,49.7833 566.7383,52.1528 572.9845,55.3171 579.245,59.2819 585.125,63.75 591.1552,69.0796 597.3552,75.3302 603.4627,82.2695 609.448,89.8559 615.2816,98.048 620.9338,106.8043 626.375,116.0833 631.3876,125.4741 636.1505,135.274 640.6375,145.4462 644.8669,156.0658 648.9378,167.4147 652.5446,178.618 655.9159,190.3576 661.5698,214.2025 663.8441,226.2236 665.7979,238.63 667.3083,250.6267 668.4654,262.9183 669.5744,286.9029 669.3811,307.4393 668.1529,327.6099 665.9243,347.2933 662.6724,366.7018 658.4373,385.522 652.9797,404.7496 646.7233,422.8838 639.4943,440.5566 633.3334,453.7067 626.5962,466.626 619.1994,479.5157 611.0187,492.5184 601.1884,506.8121 589.7918,522.1171 579.1124,535.5009 553.6369,566.2266 541.7528,581.9645 535.4941,591.3969 530.4962,600.0966 526.384,608.7766 523.0012,617.7288 520.5349,626.5755 518.4998,637.0 517.2238,646.8053 516.4429,657.624 516.1448,680.7956 517.374,731.8715 517.2322,740.4774 516.6481,749.4684 515.7501,756.0748 514.3578,760.9078 512.4671,764.411 511.2902,765.5993 509.9235,766.3907 507.985,766.754 505.5598,766.2423 502.7969,764.7457 499.625,762.25 493.8557,755.9723 486.3229,745.4856 478.8702,733.4818 470.1441,717.2353 463.0174,702.5778 455.9642,685.9965 449.8756,670.0932 445.6639,657.3276 441.7095,642.8577 438.802,629.255 437.229,617.5212 436.7427,606.5066 437.3654,597.6491 439.1391,589.7183 441.0192,585.0564 443.4623,581.1479 446.2863,578.1941 449.7146,575.9542 453.2964,574.7042 457.4633,574.2917 461.9111,574.9419 466.5074,576.4928 470.6311,578.698 474.8191,581.8138 478.7492,585.3904 482.2998,589.4772 486.0625,594.625 489.3605,599.965 493.1133,607.3472 496.1615,614.4023 499.8337,624.6724 502.316,632.8353 505.858,647.0264 508.8692,661.4965 510.8195,672.014 513.7388,691.2215 517.1541,719.2176 518.8226,743.1694 519.0218,753.3364 518.7334,760.8277 517.8411,767.6235 516.5873,772.4026 514.7505,775.8203 512.4858,777.5683 510.2119,777.8495 507.9122,777.2206 505.0397,775.6077 501.9723,773.0971 498.6402,769.626 494.993,765.2043 486.3282,753.0515 477.3859,738.1857 467.7258,720.141 459.4638,702.7041 451.25,683.375 445.4192,667.8682 440.3575,652.2634 436.1352,636.7918 433.3373,623.4891 431.6206,611.0367 431.0592,600.1027 431.6781,590.2653 433.4658,581.8117 435.4745,576.6372 437.9784,572.3895 441.1274,568.7815 444.7566,566.1507 449.003,564.358 453.4281,563.5819 457.8341,563.8549 463.0406,565.1687 467.7904,567.237 472.9264,570.4543 477.3845,574.1276 481.8799,578.8817 485.9448,583.9877 489.1915,588.9481 493.1791,596.2993 496.375,603.5 500.5971,614.8658 503.9096,625.8654 506.4891,635.9718 509.6596,651.2638 514.7861,681.1201 517.8829,703.4451 520.1505,723.1476 522.6266,752.6227 522.9488,765.1268 522.805,773.9787 522.125,780.375 520.6645,786.267 518.8613,789.7529 517.5946,791.0324 516.3937,791.7277 513.9742,792.0175 511.4524,791.2506 508.163,789.212 504.4825,786.0199 500.8251,782.0899 496.6029,776.8318 487.0442,763.0871 477.5663,747.4444 467.1316,727.9963 457.6788,708.5712 448.6347,687.8269 440.8565,667.9888 435.4545,652.3265 430.5525,635.4544 426.9118,619.681 424.779,606.1055 423.8781,593.2131 424.2486,581.9755 424.9394,577.1158 425.9622,572.6863 428.2098,566.3772 431.125,561.0 434.4943,556.8624 438.6516,553.5327 443.4273,551.2325 448.6034,550.0972 454.3345,550.1024 459.9506,551.2258 465.7005,553.3284 470.7873,556.1021 476.564,560.448 481.5733,565.2418 486.4074,571.125 490.6973,577.4515 495.046,585.412 498.5299,593.0717 501.8923,602.3626 504.4518,610.9574 508.4627,627.0328 511.6916,643.8034 515.8169,669.1235 519.4209,693.871 525.2896,741.5564 528.0586,774.5708 528.3705,783.323 528.2047,792.6054 527.5494,799.752 526.375,805.0 524.5305,808.9899 523.3619,810.3152 521.9912,811.1646 519.3072,811.4791 516.4161,810.6142 513.3519,808.7204 509.6199,805.4756 505.0761,800.5927 499.9448,794.2654 489.6219,779.3989 477.6086,759.5035 465.9835,738.0905 453.644,712.8787 442.0224,686.8251 433.9687,666.5379 426.7791,646.0763 421.3324,628.1172 417.4371,611.7572 414.7817,595.7581 413.5784,581.2844 413.9541,569.3779 414.7077,563.7204 415.8717,558.2561 418.3828,550.7576 421.5324,544.8287 425.5438,539.8023 430.2994,535.8882 436.0675,533.0287 442.3229,531.4587 449.027,531.1662 456.2969,532.1406 463.2171,534.3038 470.6991,538.047 476.6613,542.0591 482.7258,547.4766 488.0711,553.5201 493.291,561.0733 496.9595,567.662 501.1613,577.1217 504.3593,586.5445 507.1034,596.4788 510.1574,610.2583 512.6599,624.7665 530.2589,751.531 535.1603,791.6576 536.3376,806.4075 536.8666,817.266 536.8022,825.6499 536.1339,833.021 534.8851,838.4991 532.9961,842.0401 531.8376,843.1089 530.5811,843.7406 528.9406,843.9672 527.359,843.7222 524.3389,842.3816 520.8043,839.8316 516.7156,836.0214 512.568,831.4803 503.0661,819.0731 491.4985,801.6234 478.9594,780.8691 465.9508,757.4142 452.4888,731.2265 440.1769,705.421 430.3509,683.0715 421.3808,660.8928 413.4798,639.3301 407.5721,620.9319 402.7092,602.8819 399.1214,585.8857 396.9197,570.4788 396.1543,556.7341 396.3409,549.5265 396.9539,542.887 397.9631,536.8155 399.4252,531.0229 401.2103,525.9866 403.597,521.018 406.3455,516.6791 409.3868,512.9413 412.9102,509.5557 416.875,506.625 421.3838,504.1367 426.0877,502.2637 431.2611,500.8887 436.4287,500.1307 441.8084,499.9155 447.6732,500.2188 453.3579,501.0493 458.75,502.375 465.5439,504.7019 471.7578,507.4902 477.5593,510.9432 483.6291,515.1978 487.2433,518.265 491.9522,523.123 495.8004,527.8136 500.3271,534.728 502.2301,538.3017 505.0199,544.9337 507.261,552.001 508.6025,558.8643 509.1537,564.4418 508.8559,567.6123 508.4954,568.1806 508.213,568.1528 507.6094,567.4395 506.1484,563.3863 504.2341,556.2684 501.2877,542.6693 497.4299,521.7882 489.6763,472.1025 486.2709,447.4165 483.3833,422.535 478.9043,377.3068 476.0039,333.4192 475.1162,312.6029 474.637,292.5951 474.563,273.129 474.9036,254.0649 476.5167,222.3904 477.8186,207.64 479.4205,193.7917 481.4069,180.178 483.6593,167.6355 486.2991,155.4935 489.2258,144.2767 492.5087,133.7894 496.0491,124.2982 499.9656,115.4537 504.0672,107.659 508.5055,100.6031 513.0619,94.6106 517.9186,89.421 523.0954,85.0793 527.81,82.0664 533.0596,79.6268 538.164,78.0766 543.422,77.2503 548.8109,77.1587 554.308,77.8122 559.8903,79.2214 565.5353,81.3968 571.2201,84.3492 576.7213,87.9377 582.1629,92.1748 587.8132,97.2946 593.3936,103.0855 598.8733,109.5124 604.2214,116.5407 609.1853,123.7937 614.1867,131.8972 618.7625,140.1149 623.1075,148.7577 627.2704,157.9517 634.9045,177.6193 641.4529,198.6445 646.6916,220.34 650.4863,241.972 652.8967,263.7729 654.0183,286.3346 653.9319,304.4667 652.9622,322.4351 651.1146,340.0971 648.3799,357.4324 644.6537,375.1806 640.0538,392.5956 634.7203,409.1857 628.4706,425.4994 622.0913,439.8482 614.9054,454.2552 607.2736,468.0026 598.7575,481.9205 590.2521,494.7648 581.3568,507.3681 548.6213,550.9391 542.0448,560.4407 536.9909,568.4027 532.8336,575.8329 529.1204,583.7315 525.5426,592.6875 523.0986,600.666 520.4653,612.4914 518.9277,623.75 518.1402,635.8057 518.0194,652.3369 519.3918,681.1809 524.7779,747.4931 525.5574,763.1776 525.6713,774.6271 525.0795,784.6301 523.8257,791.7649 522.875,794.625 521.6381,797.0214 520.4122,798.4812 518.977,799.4209 516.5594,799.8057 513.862,799.1362 510.8884,797.434 507.5575,794.6592 503.5431,790.4898 498.7169,784.6855 489.715,772.016 478.782,754.1415 467.7147,733.9791 456.7317,711.6747 446.466,688.6149 438.8649,669.3775 432.294,650.505 427.1223,633.233 423.3567,617.4441 420.8738,602.6813 419.7919,589.7222 420.098,577.9432 420.7379,572.7285 421.7386,567.6631 423.9103,560.7802 426.7237,555.2441 430.5732,550.2931 434.9566,546.6548 440.182,544.0447 446.0603,542.6139 452.0061,542.4541 458.3827,543.4889 464.5266,545.5961 471.2803,549.175 476.8484,553.2436 482.4001,558.5263 487.3752,564.4215 492.1997,571.7234 495.6756,578.1099 499.609,587.0884 502.5051,595.0008 505.9545,606.6476 509.009,619.659 511.1822,630.7281 517.9581,673.6632 528.3674,754.1174 531.0981,784.7071 531.5305,795.3647 531.447,804.2333 530.798,811.5604 529.512,817.377 527.8197,821.0579 526.7324,822.3313 525.4609,823.1889 522.7986,823.609 519.9282,822.7479 516.5673,820.6487 512.6852,817.2731 507.8868,812.1669 502.9618,806.1564 492.2026,790.7237 478.3499,767.9453 466.0173,745.527 452.4868,718.4695 439.9497,691.0315 430.9424,669.0528 423.208,647.8906 417.1105,628.6945 412.4487,610.6283 409.1583,593.3397 407.4341,577.9205 407.1674,571.0365 407.2849,564.6367 407.8056,558.344 408.7048,552.6023 410.7954,544.7338 413.8571,537.7388 417.8527,531.7611 420.3377,529.0203 422.9643,526.6778 428.6635,523.052 435.1747,520.6715 442.5697,519.5583 450.1196,519.8097 458.373,521.4512 466.2306,524.3685 473.6096,528.2568 480.256,533.2587 486.9504,539.6353 492.6614,546.8455 496.9461,553.665 501.5542,563.2501 504.9605,572.9038 507.0935,580.2497 509.2676,589.9473 511.5111,603.2117 522.036,684.6808 537.6647,789.0663 541.7974,820.0727 543.7165,840.2672 543.9937,849.0878 543.8222,856.5006 543.2003,862.0193 542.1198,866.1441 540.5381,869.0443 538.6097,870.5936 537.3247,870.9467 535.8734,870.9155 532.8074,869.8362 528.6505,866.9897 524.2474,862.8999 519.4913,857.5569 513.9481,850.4937 501.015,831.8696 486.1532,808.202 470.4124,780.7538 453.135,748.309 437.3941,716.6404 424.9642,689.6167 413.6599,663.0872 403.5996,637.2861 396.1922,615.7695 389.9766,594.4414 385.3499,574.4697 382.4429,556.5459 381.663,548.59 381.2836,540.6891 381.6242,528.3287 383.2255,516.8787 384.492,511.6575 386.0269,506.8913 387.8174,502.5658 389.9423,498.4848 392.311,494.791 395.1345,491.1846 398.1661,488.0 401.6356,485.0023 405.5266,482.2712 409.5042,480.0261 413.7786,478.1137 418.1332,476.6092 423.262,475.3213 428.7463,474.4375 434.8186,473.9669 440.741,473.952 446.4615,474.3453 451.9297,475.1065 464.3716,478.1389 474.3138,481.7384 484.6262,487.0034 495.071,494.2335 504.2569,502.683 505.5977,503.5195 506.0586,503.0586 505.7072,497.8157 500.7982,464.4233 496.6762,429.0006 493.8176,397.5575 491.7155,361.6836 490.823,333.6052 490.8818,304.8838 491.8538,279.0697 493.7516,255.0898 496.6439,232.6716 500.6162,212.1866 503.0218,202.6543 505.6228,193.923 508.5093,185.699 511.4593,178.5805 514.6488,172.0682 518.1016,166.1269 521.8034,160.8203 525.7403,156.2122 529.8979,152.3663 534.0,149.5 538.2956,147.3856 542.7583,146.029 548.0711,145.4209 553.1443,145.7941 558.2849,147.0908 563.4508,149.3259 568.7484,152.6189 573.9467,156.8342 579.0405,161.9285 583.9876,167.8541 588.7456,174.5636 593.2723,182.0093 597.5254,190.1437 601.4314,198.8095 605.1237,208.2513 608.4477,218.1263 611.3778,228.3666 613.8887,238.9046 615.8227,248.8971 617.3012,258.6374 618.4811,269.0902 619.2971,279.895 619.7089,290.6287 619.7275,301.2559 619.3637,311.7411 618.5955,322.4132 617.4049,333.2212 615.7914,344.2988 613.8473,354.9798 611.597,365.2602 608.969,375.481 606.0651,385.2633 602.5499,395.6898 598.7711,405.7221 593.8038,417.5103 588.3739,429.0211 581.7405,441.7345 574.8945,453.7784 559.8367,477.3817 535.8977,512.1356 527.1414,526.3834 521.9759,536.1491 518.6566,543.4059 515.25,552.25 511.2212,563.9548 509.8926,565.7637 508.75,565.5 507.8326,564.2449 506.1389,560.1492 504.2536,553.0694 501.8601,542.021 497.4966,519.2057 492.8503,490.5507 489.1757,465.0109 485.1997,434.1254 482.02,405.421 479.6324,379.7709 477.7573,353.9193 476.2418,326.3948 475.4486,305.1304 475.1309,284.1611 475.3205,262.614 476.0425,241.9056 477.2748,222.4196 479.0175,204.2117 481.2165,187.4151 483.8686,171.7985 486.932,157.4688 490.4949,144.0335 494.4742,131.9762 498.8618,121.1924 503.7743,111.3811 508.9983,102.9613 514.6905,95.6803 520.6052,89.8526 526.794,85.3759 533.6503,82.0624 540.8515,80.1659 547.973,79.7025 555.6667,80.6528 563.1432,82.9514 567.6759,84.9933 572.2295,87.5387 576.9684,90.7177 581.6568,94.3886 590.919,103.1833 600.1523,114.0769 608.7508,126.3394 616.8256,140.0595 624.0243,154.5777 630.777,170.7903 636.5771,187.4528 641.6287,205.0726 645.7562,223.0977 648.9161,241.323 651.0593,259.4359 652.3237,278.5884 652.6082,297.3343 651.9525,315.9473 650.6412,331.7617 648.6362,347.3626 645.9164,362.8188 642.5589,377.8756 638.4961,392.8359 633.7413,407.5908 628.3325,422.033 622.2145,436.3181 616.194,448.8176 609.6971,460.9952 602.624,473.087 594.5157,485.8785 579.1233,508.0711 548.0135,549.7063 538.0816,564.595 533.5667,572.4158 529.7141,580.2947 525.7927,589.8683 523.3402,597.6213 520.678,609.0823 519.2151,619.4846 518.2256,633.5218 518.026,650.0823 519.3053,676.7242 525.5376,751.4043 526.362,765.7658 526.4927,775.7087 525.9986,786.6924 524.8208,794.3079 523.8643,797.4216 522.7546,799.8056 521.415,801.5596 519.7973,802.6476 517.4946,803.0271 515.3041,802.5611 512.4955,801.0931 509.3145,798.6305 505.3945,794.8181 501.2054,790.1062 493.4724,779.7453 483.5262,764.1411 472.6178,745.2129 462.3227,725.3921 452.042,703.7427 444.3438,685.9359 437.2223,667.6935 430.5213,648.5003 425.9166,633.1953 422.2372,617.8824 419.6414,603.1323 418.34,590.6476 418.2462,579.1236 419.1519,570.1806 421.0205,562.0315 423.7459,555.2495 427.1723,549.8203 431.625,545.25 434.2277,543.389 436.9635,541.8909 439.7916,540.7466 443.0332,539.8711 449.2628,539.3367 456.0816,540.0485 462.2757,541.8591 470.4394,545.7971 476.976,550.3716 483.4458,556.4954 488.6983,563.0802 493.9719,571.3478 498.4419,580.5551 501.8773,589.3843 506.3059,603.9633 509.3826,617.559 512.5875,635.1386 516.6674,661.0065 519.968,685.0592 526.6076,735.229 530.0985,764.0148 531.453,777.2446 532.4336,791.2343 532.8423,801.5437 532.7259,809.7632 532.1023,817.249 530.9259,822.8426 529.244,826.3763 528.0906,827.6541 526.8776,828.44 524.308,828.8558 521.569,828.0905 518.3615,826.1964 514.5445,823.0145 510.6687,818.9938 506.1535,813.5792 495.8003,799.2226 484.3517,781.229 471.9808,759.5887 458.7065,734.2797 446.6214,709.2868 436.6485,686.8558 427.6949,664.8262 420.5901,645.2819 414.6528,626.4506 409.9255,608.4607 406.5817,591.8278 404.8465,577.3486 404.4819,564.1194 405.3017,553.3137 407.1208,544.2137 410.0182,536.2415 411.8764,532.6496 414.1238,529.1711 416.5621,526.1369 419.4228,523.2843 422.2509,521.0224 425.5462,518.9369 428.9632,517.2887 432.4613,516.0642 439.8448,514.7334 444.4711,514.502 448.6607,514.6701 452.7396,515.2097 457.1557,516.254 462.3627,517.9286 466.9604,519.8174 470.931,521.8321 475.5343,524.655 483.0372,530.3845 490.1832,537.9034 493.1878,541.8147 496.1465,546.3574 500.728,555.0318 504.3506,564.0685 506.9751,573.0058 508.2764,578.2241 510.2483,588.8236 513.1858,611.5509 519.4181,666.1506 522.7719,689.8117 527.825,722.4677 541.7293,807.7177 545.8136,836.8153 547.8299,856.3064 548.2427,865.1284 548.1858,872.3097 547.6845,877.687 546.6716,882.0101 545.195,884.9416 543.3784,886.4989 541.8877,886.9194 540.4642,886.8694 537.0932,885.6125 532.9765,882.7091 528.3658,878.3471 523.2622,872.5377 517.2791,864.837 503.2028,844.3856 486.6008,817.6826 468.8144,786.57 449.7439,750.8158 432.205,715.68 418.8613,686.809 406.767,658.541 396.0853,631.2011 387.8222,607.3844 381.2545,585.1211 376.3687,564.3402 373.3286,545.6669 372.5055,537.1158 372.1486,529.2426 372.5024,517.0133 374.0231,505.9011 376.6729,495.9929 378.4167,491.4813 380.5523,487.0596 382.906,483.1111 385.4865,479.5325 388.5246,476.0318 391.7569,472.9319 395.4319,470.0018 399.238,467.4916 403.481,465.2009 407.8132,463.3053 417.4363,460.3477 427.7794,458.7302 439.7886,458.4674 451.4255,459.4845 462.3783,461.6183 472.2862,464.3628 485.7083,469.8333 500.8728,477.6756 503.5842,478.4297 504.3648,478.2438 505.1913,477.3254 505.764,474.8452 505.7911,471.2802 505.07,462.042 502.0165,433.8392 499.6677,405.5821 497.7637,374.6444 496.9709,350.869 496.7486,326.7625 497.301,305.2796 498.7474,281.9668 500.813,262.4262 503.8414,243.2931 507.6576,226.0387 512.1737,211.4169 514.7836,204.6997 517.6073,198.4575 520.629,192.7499 523.6069,187.9807 526.9965,183.5118 530.3215,179.9625 533.8107,177.0021 537.4405,174.6661 541.1874,172.9895 545.028,172.0078 549.5704,171.7603 554.2065,172.4309 558.8956,174.0126 563.25,176.294 567.8888,179.6226 572.1032,183.52 576.3079,188.3092 580.5713,194.0885 584.6328,200.5725 588.2731,207.353 591.8144,215.0557 594.88,222.8976 597.6422,231.2682 600.1086,240.1738 602.2095,249.3671 603.9992,259.1623 606.2184,277.6257 607.0515,296.6424 606.5218,316.0875 604.6083,335.2393 601.3384,353.9056 596.7624,372.249 590.5616,391.4101 583.2959,409.5492 575.966,424.9159 567.543,440.3444 557.2174,456.9171 546.8603,472.1156 531.7743,492.1309 522.5561,503.0914 519.2196,506.1106 516.875,507.625 514.589,507.994 512.6104,507.1793 511.4531,505.9375 509.875,503.25 508.012,498.372 505.6528,489.588 502.7194,474.8409 497.9383,442.2316 495.2752,418.4318 493.4808,398.9095 490.9367,361.1085 489.8971,324.4922 490.3187,291.8424 491.0827,275.6765 492.2106,259.8067 494.9065,235.8126 496.7302,224.4179 498.8928,213.3142 501.3053,202.9595 503.9976,193.2113 506.841,184.6351 509.8666,176.9731 513.3622,169.5401 516.9815,163.1204 520.8705,157.418 524.803,152.7318 528.9435,148.8305 533.4516,145.6239 538.175,143.269 543.0775,141.7969 548.4882,141.2347 553.6473,141.6905 558.875,143.125 564.4593,145.7088 569.7632,149.125 575.2901,153.6919 580.7031,159.2126 585.6879,165.3016 590.4692,172.1758 594.9802,179.7531 599.4931,188.5064 603.5315,197.5332 607.2278,207.0667 610.5481,217.0387 613.4584,227.3813 615.9245,238.0264 617.9009,248.6623 619.4529,259.2755 620.6405,270.3027 621.4062,281.3182 621.7553,292.2739 621.6932,303.1219 621.2333,313.7047 620.333,324.971 619.0583,335.9158 617.372,346.8983 615.2669,357.8656 612.8277,368.4161 609.867,379.3052 606.4918,390.1533 602.8967,400.4048 598.8418,410.7538 594.0469,421.7253 588.3497,433.5124 582.5381,444.5967 576.4329,455.301 562.1912,477.6685 536.4909,515.2223 530.2597,525.196 525.5941,533.6196 521.6152,541.898 517.6165,552.0953 515.7867,558.207 513.9254,565.945 510.8555,580.9085 509.9282,583.1221 509.0556,583.7454 508.0707,582.7423 506.1216,577.7743 502.0468,561.4138 498.2231,541.8433 492.4575,508.7441 486.8322,471.8812 482.6314,441.1051 478.9443,409.9243 475.8282,378.4537 473.6073,351.2381 472.0827,326.7865 471.0496,302.1079 470.5478,277.6011 470.5913,255.1695 471.1974,233.9216 472.384,213.2748 474.1125,193.8637 476.2813,176.239 478.9357,159.7337 482.0566,144.6152 485.7948,130.1831 490.0397,116.9797 494.7554,105.103 499.9051,94.6253 505.5003,85.5246 511.5733,77.8078 518.1774,71.419 525.2611,66.4362 532.4386,63.0575 539.9633,61.1047 543.8419,60.6844 547.7904,60.6461 551.8033,60.9985 555.875,61.75 564.0381,64.3982 569.1665,66.7976 574.3191,69.7582 579.4767,73.2651 584.6201,77.3038 589.7301,81.8594 594.7875,86.9172 604.6678,98.4807 613.8526,111.4804 622.7303,126.507 630.8415,142.7576 638.3133,160.4567 644.8905,179.0391 650.3876,197.8705 654.783,216.6831 658.3069,236.5598 660.8125,256.763 662.2697,277.1049 662.6557,297.4027 661.9509,317.4546 660.5145,333.8819 658.1972,351.1508 655.14,367.9786 651.373,384.2965 646.936,400.0328 641.8795,415.1135 635.8232,430.5883 629.236,445.3469 622.7732,458.2641 615.6768,471.0881 607.8474,483.979 599.1422,497.1794 591.416,508.0975 582.5509,519.9251 550.3787,560.7147 539.4262,576.2658 534.478,584.416 530.2753,592.4006 526.6532,600.5472 523.8078,608.448 521.1073,618.2489 519.4032,627.5941 517.8991,640.878 517.33,653.881 517.2575,664.9864 517.8311,682.9971 520.7443,738.5762 520.9012,750.2179 520.5864,761.1848 519.8058,768.8531 518.3565,774.8422 516.4771,778.6296 515.1591,780.0023 513.875,780.75 511.4475,781.0822 508.9595,780.3817 506.1163,778.7328 502.4823,775.7681 499.1808,772.3787 495.5999,768.0787 486.8311,755.7667 478.4026,742.0027 468.7701,724.0056 460.1881,706.3954 452.0095,687.4361 444.7891,668.8296 439.8966,654.3987 435.3591,638.3705 431.9808,623.2334 430.1118,610.2041 429.4915,598.2786 430.0789,588.0914 431.8954,579.3999 433.9804,573.9402 436.7654,569.2261 439.9522,565.6739 443.8073,562.9078 448.2257,561.1425 453.2312,560.4171 457.8668,560.7646 463.3009,562.2593 467.9228,564.2521 472.2201,566.9271 477.4373,571.159 481.9961,575.8905 486.4048,581.6313 490.1989,587.5237 494.5082,595.6964 497.6549,602.7769 501.0428,612.3832 503.8981,622.11 507.6362,637.2076 510.7072,652.5313 515.9253,684.6561 518.9788,707.0787 521.6701,730.5386 523.9193,758.6158 524.1646,769.2155 523.945,778.393 523.2306,785.255 521.9525,790.5434 520.249,793.9255 519.1695,795.0985 517.923,795.9069 515.9171,796.3712 513.7287,796.0132 510.8957,794.6359 508.0118,792.5093 504.5642,789.3132 501.28,785.7131 493.318,775.2199 483.4618,760.072 474.581,744.7217 464.1589,724.8142 454.4595,704.5742 446.5796,686.2167 439.1513,667.0945 433.651,651.329 429.0598,635.8473 425.3973,620.5855 422.9813,606.8594 421.8025,594.5398 421.7779,582.9989 422.6448,574.5368 424.4063,567.0231 427.095,560.4381 430.625,555.0 435.0028,550.7433 440.1903,547.7047 445.723,546.082 452.1297,545.7711 458.8837,546.8988 466.0587,549.5382 472.0615,552.9627 478.8893,558.3867 484.0017,563.6508 489.6867,571.2214 493.0145,576.8078 498.2414,587.5167 501.9514,597.5744 505.2018,608.2303 508.7287,622.8789 511.677,638.1566 515.6585,662.7176 519.7666,690.7148 523.5117,719.1564 526.4448,744.1732 529.4926,776.4191 530.0222,787.7007 530.0366,797.3399 529.4165,805.3783 528.1119,811.6776 526.3509,815.6421 525.3021,816.8655 524.0674,817.6997 521.7617,818.1734 519.1045,817.5976 516.0156,815.9375 512.4736,813.1363 508.8426,809.5518 504.5392,804.6007 495.1406,791.7969 483.695,773.8299 472.4785,754.3091 460.4444,731.2421 448.2557,705.9469 439.7251,686.4331 431.7198,666.1788 424.125,644.75 418.9236,627.8032 414.7643,611.1776 411.9248,595.9214 410.424,582.4374 410.202,569.8593 411.1236,559.6606 413.0,551.0 415.8149,543.6596 419.6362,537.3811 421.9232,534.6625 424.6077,532.1248 427.5429,529.9626 430.6454,528.1775 433.8491,526.7755 437.4879,525.6502 444.5252,524.6949 452.5478,525.1846 460.5309,527.1315 468.6875,530.6719 476.3724,535.591 483.8889,542.0324 490.0569,549.268 495.2499,556.9153 500.0423,566.4689 503.7777,576.4728 506.5255,585.3659 509.099,596.4484 511.8047,611.7438 514.642,630.8622 521.5669,683.8372 532.6144,760.6141 537.3039,795.457 539.9121,821.8869 540.3522,831.517 540.3089,840.552 539.7875,847.1325 538.8167,851.7792 537.1972,855.2602 535.0993,857.1199 533.8189,857.5175 532.3734,857.5384 529.3287,856.5741 525.2282,853.8916 520.9742,850.0471 516.0334,844.6161 510.7017,837.935 498.3919,820.3437 484.3285,797.6979 468.9541,770.5014 451.3183,736.8815 437.4021,708.2598 425.9213,682.6242 415.6433,657.5811 407.3655,635.1607 400.4947,613.7153 394.9109,592.6941 391.0642,573.6352 389.1036,557.6178 388.7358,550.0382 388.776,542.958 389.8167,531.281 390.7952,525.9268 392.125,520.75 393.7339,516.0901 395.6225,511.8575 397.7599,508.034 400.3393,504.3084 403.1383,501.0246 406.3719,497.9386 409.8302,495.2689 413.89,492.7704 418.0943,490.7585 422.3938,489.2015 427.1012,487.9915 431.7989,487.2382 437.2618,486.8465 442.7612,486.8837 448.4859,487.3787 453.9649,488.3084 460.4841,489.9651 466.3525,491.8821 471.7359,494.0943 476.9726,496.7622 481.7302,499.6096 486.1903,502.744 491.4498,507.0871 495.1997,510.7185 501.6559,518.7052 504.8186,524.1157 507.0156,529.125 504.1077,516.2201 501.411,501.3695 497.6862,477.995 494.4223,453.1485 489.2506,405.0784 486.1815,363.0837 485.1867,343.0756 484.5965,323.646 484.391,304.1086 484.5839,285.1775 485.1646,268.6501 486.142,252.6904 487.523,237.1073 489.3029,222.0575 491.3603,208.4294 493.8093,195.6388 496.6323,183.7172 499.9028,172.3917 503.4978,162.1246 507.5192,152.6607 511.5622,144.8639 516.1904,137.6532 521.2203,131.4432 526.3399,126.5518 531.7626,122.7202 537.4593,120.025 543.0832,118.587 549.2323,118.2569 555.5441,119.1331 561.6166,121.0712 569.0814,124.8973 576.1664,130.0379 583.125,136.625 590.1181,144.8594 597.0342,154.6692 603.3698,165.3406 609.2385,177.0097 614.5462,189.5432 619.1493,202.6385 623.2154,216.6517 626.6068,231.0596 629.307,245.7306 631.2995,260.5325 632.5679,275.3336 633.1129,290.2168 632.9533,305.6228 632.154,319.8709 630.7229,334.0707 628.6602,348.1239 626.009,361.7635 622.6409,375.7292 618.6178,389.6451 614.0805,403.0542 608.8312,416.5478 603.4237,428.8704 597.6748,440.6904 591.3583,452.5024 584.1487,464.8743 571.0106,485.3543 543.2928,525.0721 537.4928,534.1568 532.4282,542.8679 527.6105,552.3831 523.9769,561.1435 520.6683,571.8914 518.8366,580.4427 517.2123,591.9702 516.4893,604.8554 516.6109,621.3969 517.9198,643.8175 521.7598,679.9127 528.6626,730.5864 537.5733,792.8089 539.9263,813.1007 541.1621,827.5952 541.6516,842.314 541.0706,852.0085 540.3587,855.583 539.4074,858.2671 538.0829,860.4011 536.4044,861.7341 534.9701,862.1566 533.672,862.1571 530.2274,860.9881 526.4769,858.462 522.1647,854.5002 517.0006,848.7608 511.4091,841.7053 498.2561,822.8663 483.9394,799.6918 467.9243,771.3049 451.6475,740.3474 436.8031,709.8416 424.5221,682.5541 413.7633,656.5708 405.3348,633.8473 398.3474,612.2577 392.6221,591.118 388.6918,572.2375 387.4329,563.7484 386.5695,555.3376 386.1537,547.4635 386.159,540.1243 387.1021,528.5619 389.2575,518.1282 390.7393,513.6057 392.6418,509.1097 394.8106,505.0506 397.2125,501.4082 400.0394,497.909 403.059,494.8494 406.6659,491.877 410.293,489.4678 414.04,487.4692 418.225,485.7213 422.8246,484.2924 427.4389,483.2981 432.8294,482.5992 438.3076,482.32 443.6699,482.4534 448.8299,482.9735 454.7955,484.0713 461.3136,485.6871 466.6675,487.3974 471.6327,489.4246 477.8009,492.4552 482.9389,495.4147 487.8948,498.8593 492.4722,502.4954 500.1367,510.3984 506.5741,519.5417 500.4955,484.0785 495.7653,448.8193 491.2353,405.5326 489.3402,381.4083 488.1466,361.7674 486.9119,323.2562 487.1021,288.4535 487.7606,271.5722 488.7786,255.7419 490.1094,241.3736 491.8092,227.8286 493.944,214.5243 496.4395,201.9771 499.2638,190.2894 502.4342,179.4348 505.8982,169.7873 509.6304,161.2369 513.7431,153.4726 518.2137,146.5986 522.8037,140.9525 527.7168,136.2805 532.8516,132.7363 538.2701,130.2453 543.9203,128.8374 549.7505,128.5427 555.7086,129.3914 561.7429,131.4133 568.6681,135.1544 575.6019,140.375 582.4027,146.9799 588.7277,154.5666 594.7567,163.2977 600.2346,172.7829 605.7979,184.1807 610.7191,196.0615 614.9846,208.2365 618.6898,220.9188 621.7821,233.9926 624.1942,247.2084 626.0917,261.384 627.3524,275.9111 627.9348,290.321 627.8579,304.5275 627.141,318.4449 625.7785,332.43 623.7735,346.5076 621.2321,359.9866 618.2092,372.8545 614.5567,385.7611 610.0267,399.3971 604.9829,412.6241 599.9957,424.204 594.5455,435.5664 588.123,447.7031 581.3651,459.4377 567.417,481.3187 540.4321,520.5237 534.5039,529.9006 529.875,538.0 525.3887,547.2743 521.3167,557.6227 518.4329,567.7847 516.625,577.75 515.1562,592.9297 514.924,608.7906 516.2293,633.3061 519.4203,664.1794 525.7828,709.7615 544.4137,824.783 546.708,841.6756 548.1548,856.7214 548.7536,872.0007 548.4566,877.536 547.7393,882.1309 546.5104,885.8007 544.9355,887.9775 542.836,889.0155 540.5154,888.901 537.0916,887.4062 533.1054,884.4098 528.4408,879.7854 523.0705,873.5057 516.6847,865.1584 509.4697,854.9479 494.3675,831.6356 476.9743,802.1989 458.6419,768.8813 441.5904,735.8379 425.3999,702.2754 412.5804,673.7883 401.5593,647.3319 392.4769,623.1273 384.7784,599.8215 378.7107,578.1485 374.3282,558.2484 371.8282,540.7133 371.2176,532.4966 371.031,524.8006 371.6202,512.9011 373.3766,501.9079 376.1764,492.5141 380.199,484.0081 382.6562,480.1406 385.3187,476.6458 388.3984,473.2637 391.643,470.284 395.0788,467.6421 399.116,465.0703 407.5751,461.0848 417.0033,458.3129 427.1218,456.8026 438.4086,456.3726 449.656,457.2031 462.7166,459.5954 474.5177,463.1049 484.1409,466.7701 498.1543,473.668 501.7053,475.0913 504.0156,475.2812 505.2301,474.1723 505.8902,470.6424 505.6526,464.8184 502.6419,434.0467 499.9831,402.3828 498.3505,375.5 497.6225,350.9385 497.5385,327.6832 498.2503,304.5138 499.6578,282.5277 501.7649,263.1539 504.8305,244.219 508.646,227.4581 513.2611,212.653 518.5089,200.2671 521.2121,195.2418 524.2705,190.4652 527.5341,186.2525 530.9833,182.6454 534.5987,179.6857 538.0666,177.5642 541.6441,176.0627 545.3041,175.2027 549.8152,174.9953 554.4036,175.6941 559.0245,177.3026 563.2796,179.5982 567.836,182.967 572.0679,186.9882 576.5007,192.1455 580.5355,197.7753 584.3596,204.0709 587.9348,210.9871 591.0577,218.0708 594.0884,226.1555 596.8739,234.9068 599.2124,243.6561 601.2761,253.0606 602.8782,262.2996 604.0457,271.2853 604.9042,280.9576 605.568,300.1508 604.8435,318.9764 602.7486,337.2951 599.2678,356.3939 594.5632,374.8025 588.3869,393.2275 580.8353,411.3943 572.8982,427.5949 564.7882,442.0753 554.1245,458.7154 542.3821,475.2564 531.4555,489.3493 522.978,498.8203 519.7196,501.4669 517.2219,502.777 515.353,502.9986 513.3782,502.2134 512.0002,500.7787 510.6942,498.6161 508.125,492.3107 506.0299,484.5154 503.4415,471.4384 498.8649,440.8916 494.8096,402.3303 492.1353,362.1051 491.1648,329.7325 491.4564,295.9224 492.1695,280.0234 493.2616,264.7295 495.9855,240.3455 497.7683,229.0731 499.8884,218.0826 502.26,207.8384 504.9546,198.0523 507.763,189.4372 510.9071,181.4179 514.2201,174.3764 517.8308,167.9749 521.7192,162.2898 525.8655,157.3977 530.0136,153.5638 534.477,150.4858 539.2338,148.2382 543.8081,146.9765 549.2333,146.5377 554.3997,147.1395 559.6262,148.7457 564.7435,151.2955 570.3046,155.0907 575.8116,159.8967 581.1965,165.6681 586.1494,172.0208 590.8713,179.1689 595.0343,186.5543 599.327,195.4028 603.2733,204.8339 606.7185,214.4098 609.7789,224.3905 612.4236,234.7086 614.6218,245.2971 616.3068,255.7148 617.6114,266.3963 618.5371,277.4674 619.0416,288.4938 619.1369,299.4217 618.8176,310.5656 618.0824,321.5451 616.9522,332.3445 615.4064,343.2039 613.4411,354.0781 611.0586,364.9187 608.3632,375.3345 605.191,385.984 601.5927,396.6344 597.6603,406.9916 593.4215,417.0257 583.7493,436.9175 572.7627,456.2185 559.1141,477.349 535.7685,511.3091 528.015,523.7106 522.4848,533.6463 518.75,541.5 511.7897,559.4398 510.4097,561.6655 509.776,562.014 509.162,561.848 507.8497,560.3202 506.4233,556.9641 503.6581,546.1681 499.2255,524.6302 493.8615,492.6159 490.1187,466.9497 485.6302,431.2152 482.7451,403.9023 479.8015,371.3045 478.2074,348.6742 477.019,325.2653 476.2421,300.6393 476.0495,280.4425 476.3601,260.467 477.1762,240.9755 478.4894,222.1821 480.2532,204.6008 482.4838,188.3339 485.2361,172.8722 488.4884,158.3799 492.1118,145.334 496.1568,133.4527 500.4796,123.1073 505.4471,113.5374 510.7165,105.4046 516.4483,98.4123 522.6145,92.6669 528.9056,88.4292 535.5612,85.5229 542.5906,84.0218 549.9138,83.9434 557.4513,85.2808 565.1234,88.0271 569.688,90.3095 574.2554,93.08 582.9863,99.7749 591.7337,108.4415 600.3034,118.9007 608.7002,131.209 616.3951,144.5798 623.6496,159.4887 629.9906,175.0223 635.4884,191.2769 640.1454,208.0398 644.0269,225.5167 647.0685,243.5583 649.1355,261.2435 650.3078,279.1507 650.5631,297.2762 649.9175,315.4604 648.6195,331.1324 646.6923,346.2478 644.1178,361.1026 640.9262,375.5311 636.8443,390.737 632.2003,405.3677 626.9011,419.723 620.9753,433.6949 614.9519,446.2676 608.2397,459.0225 601.1727,471.3305 593.4473,483.7141 578.2689,505.7476 548.4648,545.7834 538.3522,561.1164 533.0565,570.4925 528.9143,579.0669 525.3589,588.0844 522.8159,596.4429 520.3095,608.2499 518.9367,619.1225 518.1245,633.6406 518.1734,650.1863 520.0327,681.5971 526.1906,749.09 527.4912,769.2978 527.7434,781.1214 527.3717,791.7359 526.2681,799.417 525.4135,802.35 524.3664,804.6946 523.0803,806.474 521.5256,807.6386 519.3327,808.1546 516.8263,807.7106 514.0842,806.3255 510.6972,803.7243 506.8493,799.9694 502.3388,794.8606 493.8661,783.4908 483.4232,767.1698 472.4982,748.2079 461.945,727.8501 450.8361,704.4859 442.7596,685.9427 435.3197,667.0173 428.5748,647.8252 423.4965,631.1405 419.6514,615.4219 416.9288,600.3067 415.5445,587.3967 415.4397,575.7554 416.3549,566.7116 418.25,558.375 421.0037,551.4612 424.7209,545.5735 427.0454,542.9233 429.4968,540.7066 435.0202,537.2461 441.203,535.0839 444.534,534.5187 447.9125,534.3375 454.8146,534.9394 461.7983,536.8524 469.4903,540.4788 476.2041,545.01 482.5745,550.6831 487.395,556.1901 494.0881,566.0251 498.7416,575.3333 502.3719,584.7326 506.14,597.0918 509.6295,612.4222 512.9937,631.0794 523.2154,702.8978 531.4748,766.0193 534.5179,795.7844 535.1274,807.8008 535.1874,817.5149 534.6357,825.1852 533.4255,831.078 531.7846,834.8454 530.7232,836.158 529.4788,837.0552 527.066,837.5622 524.3528,836.9259 521.103,835.0817 517.3363,831.9784 513.0215,827.5657 508.1272,821.7936 497.9289,807.7988 485.1353,787.5681 470.7755,762.6649 457.998,738.4017 445.0201,711.6839 434.4106,688.1437 425.1384,665.5768 417.0108,643.5523 410.25,622.625 405.5504,605.0142 402.1814,588.3603 400.1845,572.9714 399.6021,559.0133 400.05,550.6774 401.1145,543.1624 402.8256,536.1329 405.0632,530.0009 407.9178,524.4724 411.2641,519.7414 415.2714,515.5506 419.8953,512.0414 424.8502,509.4301 430.7909,507.3939 436.8621,506.2474 443.2698,505.9421 450.242,506.5554 457.4035,508.0394 463.75,510.125 470.9356,513.3433 476.1515,516.3263 481.0516,519.8388 486.052,524.0525 490.1395,528.2288 494.5747,533.6625 497.8808,538.5059 501.2406,544.6552 503.9489,550.9078 506.0932,557.2179 508.2125,565.7483 510.125,577.625 511.0752,590.3932 511.3047,602.394 510.6528,612.8519 509.9676,615.1667 509.4954,615.3796 509.213,615.162 507.9785,612.8867 505.2453,603.4397 499.4378,576.8699 493.7857,547.7744 486.5574,505.5839 480.471,467.0752 476.1632,435.6642 471.6692,398.4257 468.8263,371.0918 466.4338,343.7763 464.4274,315.4696 463.1698,291.3445 462.4476,267.8762 462.2559,244.914 462.5979,222.7346 463.4799,201.1537 464.8184,181.8186 466.7137,163.0076 469.0625,145.6875 471.9364,129.2267 475.3354,113.7583 479.1545,99.7262 483.397,87.0247 488.0835,75.5894 493.5324,64.7454 499.3495,55.36 505.6948,47.1576 512.2969,40.4771 519.3572,35.1085 526.5741,31.2758 534.037,28.8823 541.932,27.876 547.8072,28.0222 554.1509,28.9622 560.2692,30.5924 566.4675,32.9381 572.7208,35.995 579.0039,39.7589 585.292,44.2255 591.56,49.3906 597.7828,55.2498 603.6244,61.4401 609.6159,68.4888 615.4848,76.1062 621.2096,84.2547 626.7688,92.8967 632.329,102.3276 637.4846,111.8583 647.0813,132.0205 655.4407,153.0095 662.7054,175.255 668.8354,198.5247 673.7145,222.3837 677.2738,246.5764 679.4205,270.4529 680.1504,294.0987 679.5623,315.5837 677.8837,336.5591 675.1066,357.2988 671.2427,377.642 666.3277,397.4138 660.425,416.4487 653.3197,435.5245 645.225,453.9536 638.2344,467.8826 630.5906,481.569 622.2692,495.0701 613.3968,508.1628 602.9841,522.1861 590.6641,537.4964 579.217,550.8828 554.19,579.094 541.0644,595.1486 534.7848,603.8595 529.7765,611.8213 525.6081,619.668 522.1373,627.6554 519.6601,634.7013 517.7079,642.011 515.6791,652.3949 514.5781,660.7031 513.3694,677.1961 512.444,719.156 511.1719,733.1719 510.1436,738.4218 508.5893,742.7942 506.7688,745.4871 504.6638,746.8885 503.1255,747.1714 501.0921,746.8119 498.7823,745.7045 496.1173,743.8177 490.9034,738.3948 484.8433,730.2334 478.7118,720.2081 471.7398,707.1658 466.1923,695.2319 460.1895,680.7765 456.0829,669.3872 452.3364,657.1227 449.7159,647.0102 447.846,636.9905 446.5888,626.0512 446.3724,618.4175 447.0812,610.4118 448.6426,604.2051 450.3169,600.6072 452.2888,597.783 454.621,595.5872 457.3023,594.0684 460.1677,593.3135 463.358,593.3831 466.614,594.114 469.8894,595.5448 473.6501,597.9777 476.9684,600.7597 479.9378,603.9615 483.3481,608.3358 486.3404,612.9239 489.3625,618.4304 494.4528,630.0028 498.6519,642.3603 503.3412,660.0957 507.0657,679.4859 509.489,695.6872 511.117,710.3359 512.1425,730.0585 512.0814,735.4913 511.6427,740.8532 510.7797,746.2121 509.5596,750.0834 508.038,752.691 506.0938,754.1777 504.1229,754.4933 502.2393,754.0757 500.1406,753.0156 497.4666,751.0297 492.2101,745.6713 486.0069,737.156 479.0436,726.055 472.2701,713.4625 465.1246,698.5037 458.8644,683.398 453.4731,668.7239 449.856,657.2899 446.6392,644.8159 444.2847,632.7526 443.0681,622.133 442.875,612.875 443.675,605.099 445.5386,598.0416 447.176,594.4233 449.2945,591.4121 452.0002,588.9371 455.0188,587.3142 458.6719,586.4531 462.1104,586.4833 465.655,587.3279 469.3938,588.971 472.725,591.1202 477.0023,594.7847 480.2077,598.1699 483.3344,602.2441 486.7248,607.2594 489.2734,611.6848 495.5472,625.487 500.8497,641.7957 505.747,662.312 509.5261,683.2013 512.0483,701.0037 513.5293,714.9643 514.2563,724.4106 514.5876,734.6537 514.5203,742.8633 514.0255,749.6631 513.2163,754.718 512.1237,758.2009 510.4581,760.9723 508.4255,762.4276 506.2979,762.7201 504.2931,762.2925 502.1864,761.2238 499.5499,759.2404 493.3318,752.7551 486.7294,743.7589 478.9893,731.2495 471.9616,718.261 462.7166,699.0286 456.7199,684.8743 451.1398,669.7983 446.3288,654.9876 442.9811,642.1664 440.4108,629.2353 439.0376,618.1299 438.7489,607.996 439.4899,599.4056 441.2779,592.2429 443.2475,587.7511 445.6493,584.1683 448.5195,581.4114 451.6717,579.5507 455.4759,578.5026 459.7372,578.3779 463.6196,579.1243 468.0425,580.935 471.7045,583.0572 475.1461,585.7407 479.75,590.2031 483.5499,594.7629 487.3174,600.4214 490.411,605.8421 496.7649,620.1611 499.872,629.2337 502.6873,638.6691 507.4177,659.6131 512.41,688.877 516.3533,722.0791 517.1782,732.8391 517.576,742.933 517.5131,750.5267 516.9633,759.2614 516.1082,764.5122 514.7772,768.4769 513.0469,771.25 511.0952,772.5866 508.8819,772.8531 506.4939,772.2088 503.8132,770.6639 500.8184,768.2074 497.4934,764.8336 494.3254,761.0554 486.6814,750.2435 478.2114,736.5701 470.2563,721.8013 461.0907,702.6705 453.4916,684.7755 447.217,668.0899 442.3879,653.3723 438.4765,638.7859 435.5489,624.5584 434.113,613.1874 433.758,601.9867 434.4506,592.7935 436.3257,584.8369 438.3875,579.9653 441.0187,575.8563 444.1097,572.6713 447.814,570.258 451.8032,568.8865 456.2812,568.4844 460.8647,569.0842 465.5229,570.6743 469.9488,572.9917 474.1607,575.978 478.5788,579.9311 482.6716,584.5351 487.269,590.9689 490.6433,596.4931 494.2963,603.9764 497.2778,610.9208 500.9289,621.7809 504.0498,632.5969 507.1708,645.7452 510.3413,661.4218 512.2644,672.0775 515.0556,690.8981 518.7116,720.8348 520.7734,745.818 521.1356,758.9453 520.9451,767.396 520.1463,774.4001 518.8558,779.7287 517.0,783.25 515.7383,784.4608 514.6019,785.0648 512.302,785.3106 509.5504,784.479 506.7022,782.8016 503.5574,780.1782 500.095,776.584 496.0229,771.6753 487.1457,759.1494 477.6343,743.255 466.8799,723.1528 457.564,703.641 448.4969,682.5276 442.3536,666.2803 436.7974,649.3089 432.4136,633.4821 429.5589,619.8476 427.7874,606.6884 427.1985,594.8468 427.9613,584.5479 429.9716,575.6631 432.246,569.9197 434.9451,565.4242 438.3238,561.6713 441.9431,559.0972 446.2946,557.2565 451.2168,556.3535 456.4546,556.5818 461.9332,557.8597 466.8621,559.942 472.5991,563.5178 477.3977,567.3481 481.9065,571.9595 485.7747,576.6888 489.0477,581.5375 494.1002,590.4303 497.2818,597.5294 501.4675,608.7661 504.7106,619.7592 507.1194,629.5159 510.9,647.8221 514.4484,668.391 517.3298,688.2193 522.5783,730.4158 524.3174,747.8012 525.3224,761.7421 525.7944,773.2609 525.6564,782.35 524.9572,790.3784 523.7575,795.8163 522.8029,798.1548 521.7172,799.9029 520.4478,801.1681 519.2844,801.812 516.8946,802.1006 514.0,801.25 510.9468,799.3992 507.2595,796.2214 503.1229,791.8076 498.1934,785.7373 488.5182,771.8793 477.2481,753.1511 465.7743,731.8805 454.6238,708.8822 444.2318,685.1266 436.7142,665.7545 430.2701,646.8556 425.239,629.5938 421.6771,613.8552 419.3997,598.8096 418.5448,585.3713 419.13,573.9601 419.939,568.762 421.1414,563.7432 423.5934,557.121 426.7094,551.7737 430.8893,547.0796 435.5991,543.6728 441.0046,541.3711 446.6105,540.322 452.9985,540.4257 459.6567,541.7573 465.6599,544.0821 472.669,548.1116 477.8517,552.0852 483.6178,557.7809 488.4828,563.7336 492.8335,570.4437 496.4305,577.23 500.5551,586.6767 503.1358,593.9923 507.0658,608.2168 510.5588,624.6534 513.4901,641.2389 520.6793,690.5924 529.2087,758.2409 531.8136,786.2267 532.4317,799.681 532.4225,808.8164 531.7945,815.6628 530.5353,821.292 528.7678,824.9628 527.7195,826.1043 526.4942,826.8901 523.8394,827.32 520.8269,826.395 517.2917,824.1216 513.1846,820.4668 508.3489,815.2731 503.5544,809.3242 498.1386,801.8083 492.0668,792.6538 477.9672,769.4161 464.6299,745.0171 450.6542,716.9116 438.1818,689.2777 428.6318,665.7538 420.62,643.6068 414.5162,623.9721 409.8327,605.2939 406.7544,588.3032 405.3137,573.1892 405.1983,566.3505 405.4865,559.6289 406.1689,553.4684 407.2884,547.5572 409.6495,539.8923 412.9781,533.14 417.2424,527.3794 422.5771,522.561 428.5451,519.1274 435.4319,516.8817 442.375,516.0 450.5124,516.3477 458.6513,518.0607 467.201,521.3425 474.1371,525.0675 480.976,530.1675 487.0276,535.9096 493.0747,543.3527 496.3208,548.4249 501.9574,559.4698 506.224,572.1306 508.9317,583.4536 510.6476,593.1966 512.9445,610.1782 516.9293,645.3634 522.0289,684.4815 526.3852,713.9759 540.0332,798.916 544.2582,829.3345 546.3222,850.4702 546.757,859.7996 546.701,866.849 546.2126,872.2215 545.247,876.5348 543.8122,879.5763 541.8175,881.3612 540.4408,881.7611 538.8567,881.7099 535.4432,880.4083 531.2703,877.4539 526.8011,873.1478 521.4768,866.9841 515.4428,859.1119 500.5565,837.3466 484.7954,811.7909 467.2744,780.9193 448.7405,746.0367 432.982,714.1306 419.6726,685.09 407.6575,656.7457 397.7842,631.154 389.7056,607.4047 383.2258,584.9154 378.658,564.7246 376.009,547.0238 375.3372,538.6571 375.109,530.4204 375.6932,518.4495 377.4065,507.6484 380.2859,497.9475 384.2585,489.5844 386.7962,485.6469 389.5564,482.1212 392.5087,478.9848 395.8882,476.0001 399.4181,473.4171 403.3584,471.0401 407.6178,468.9506 411.968,467.2446 421.4939,464.7374 432.0337,463.544 443.666,463.6156 454.6515,465.0578 466.163,467.8142 476.3302,471.3689 487.2147,476.3445 502.8947,485.7762 504.5798,486.0503 505.394,485.36 505.781,483.11 505.3866,475.5268 500.3986,432.3416 497.7048,400.4316 496.3496,378.7298 495.2928,353.364 494.9508,327.691 495.4075,302.8531 496.7015,280.4854 498.8398,259.1433 501.8455,239.2087 505.8064,220.8191 510.5,205.0 513.1244,198.064 515.8477,191.9527 518.9908,185.9662 522.166,180.8679 525.7507,176.0846 529.3052,172.2379 532.9639,169.1243 536.9174,166.6333 541.0401,164.8798 544.9375,163.9375 549.6511,163.666 554.4385,164.3314 559.2546,165.9592 564.2551,168.6535 569.4102,172.4522 574.2121,176.9565 578.8726,182.3004 583.3308,188.4434 587.3007,194.9425 591.3772,202.7998 595.1887,211.3627 598.5297,220.1241 601.5179,229.336 604.1186,238.9326 606.2185,248.4458 607.9908,258.6228 609.2953,268.4586 610.2475,278.7187 610.78,288.595 610.9373,298.7968 610.6947,308.8917 610.0293,319.5531 607.6242,340.3596 603.8942,359.9232 598.5024,379.8084 591.7042,399.4102 583.6903,418.0183 576.7462,431.9937 569.2192,445.4926 560.5995,459.4231 550.4845,474.3923 526.506,507.6067 518.8073,517.7654 516.7518,519.9246 514.6729,521.3772 513.0986,521.8293 511.4763,521.3577 510.2658,520.1176 508.9802,518.001 506.7778,512.008 503.0594,496.5776 501.3289,487.1411 497.7593,464.0439 494.4464,438.3689 491.3527,409.1209 489.31,384.9687 487.9654,362.7662 486.9262,339.1126 486.4899,319.4997 486.4798,299.7894 486.9123,279.9991 487.7307,263.3344 489.0788,246.5465 490.936,230.2458 493.0434,216.1042 495.4397,203.2438 498.2033,191.3092 501.426,179.9609 504.982,169.6864 508.8303,160.5409 513.0902,152.2773 517.594,145.268 522.5832,139.1532 527.6523,134.3733 533.3212,130.4771 538.9532,127.9487 544.8003,126.6238 550.4899,126.5344 556.5526,127.6317 563.0406,130.0631 569.8871,133.9869 576.6802,139.2744 583.3305,145.8847 589.561,153.5093 595.607,162.376 601.4742,172.5798 606.8953,183.7266 611.6581,195.305 615.8784,207.535 619.5694,220.4812 622.7368,234.1111 625.2613,247.9638 627.1344,261.9409 628.3481,275.9439 628.8894,289.5614 628.8032,303.9932 628.1188,317.679 626.8394,331.3539 624.9613,344.934 622.4868,358.3262 619.1474,372.6526 615.289,386.4584 610.9187,399.7773 606.0708,412.5378 600.8735,424.5204 595.1089,436.5205 588.9657,448.1777 582.1624,460.0237 569.0507,480.7012 540.6886,521.9341 535.024,530.9901 529.8332,540.1553 525.4583,549.1338 521.404,559.6687 518.9781,568.1676 516.9968,578.5724 515.5741,592.3472 515.2649,609.9556 516.3052,631.3742 518.7085,656.5187 523.5478,693.9371 541.9402,811.4452 544.7764,832.5553 546.4126,848.1836 547.1436,862.191 546.6693,872.4584 545.9589,876.2204 544.9807,879.0275 543.6829,881.1319 541.9946,882.4685 540.7407,882.8311 539.3186,882.8079 535.9191,881.5313 531.694,878.4921 526.9287,873.9229 521.5486,867.7518 515.4657,859.8931 501.5171,839.5837 485.3852,813.4545 467.7064,782.2957 448.7915,746.5663 432.1746,712.9686 418.9565,684.1422 407.1544,656.3388 397.1568,630.5384 389.3263,607.5955 382.9466,585.4149 378.2865,564.768 375.5171,546.5262 374.8142,538.0626 374.5731,530.1361 375.1189,518.1068 376.8031,507.2082 379.6826,497.2913 381.4683,493.0182 383.6233,488.8681 386.0191,485.0988 388.8737,481.4021 391.9434,478.1178 395.1909,475.2246 398.8663,472.5069 402.6591,470.1961 406.795,468.14 411.1378,466.411 420.7035,463.8509 431.2838,462.6031 443.218,462.696 454.5205,464.1106 465.8154,466.7348 475.0693,469.755 486.3337,474.7788 502.392,484.0294 504.164,484.5485 505.25,483.875 505.7773,480.7109 505.4198,474.5509 500.1053,426.2721 498.0431,401.5442 496.6176,378.1946 495.5222,349.2217 495.2947,325.4578 495.875,301.375 497.1758,279.8579 499.2677,259.3418 502.2239,239.8439 506.1345,222.0745 510.9932,206.0772 513.7231,198.9281 516.6159,192.4748 519.6395,186.8026 522.8929,181.684 526.357,177.173 529.7639,173.5581 533.3227,170.563 537.0788,168.1995 540.7816,166.61 544.9726,165.5951 550.0063,165.3693 554.7626,166.0935 559.542,167.727 564.2897,170.2795 569.0665,173.8218 573.6853,178.1577 578.4254,183.5957 582.7593,189.5449 586.8759,196.2113 590.7239,203.55 594.4034,211.8175 597.7768,220.6366 600.7909,229.8912 603.4126,239.5189 605.5325,249.0698 607.2296,258.8521 608.5145,268.8977 609.4468,279.2553 610.1449,299.4944 609.3721,318.9412 607.0026,339.3227 605.2388,349.579 603.0847,359.8341 600.5464,370.0286 597.6875,379.9373 594.5355,389.5353 590.9271,399.2929 582.6999,418.2918 575.078,433.4253 566.902,447.7595 556.7445,463.7053 544.0548,481.9696 525.8822,506.5559 518.9191,515.2988 516.5432,517.5585 514.7815,518.6458 512.8906,518.8594 511.375,518.125 510.1385,516.6491 508.5,513.375 506.4439,507.0408 503.8975,496.4537 500.7097,478.8988 496.9553,453.7654 493.8384,427.7983 491.6351,405.4547 489.6074,379.4564 488.4273,359.0869 487.6112,337.9132 487.1748,317.0846 487.2096,298.5319 487.702,280.2004 488.6232,262.7821 489.9446,246.4524 491.6878,231.3081 493.7702,217.5625 496.248,204.5866 499.099,192.5033 502.2732,181.5106 505.7956,171.5344 509.7638,162.3163 513.9813,154.3132 518.3878,147.5404 523.1418,141.7584 528.2443,137.0557 533.7298,133.4275 539.1577,131.0743 545.1534,129.7487 550.9627,129.6499 556.8859,130.7067 562.9106,132.9733 569.463,136.7583 576.2301,142.0851 582.8545,148.7454 589.0015,156.3192 594.8651,164.9771 600.4203,174.7289 605.6861,185.6017 610.4738,197.2341 614.6153,209.1395 618.2119,221.5423 621.2171,234.3352 623.6146,247.491 625.4858,261.2432 626.7651,275.3561 627.4006,289.3673 627.3923,303.5668 626.75,317.125 625.4174,331.309 623.51,344.96 620.9308,358.7929 617.8382,371.9915 614.2512,384.6905 609.724,398.4204 604.6321,411.8686 599.7387,423.323 594.25,434.875 588.0777,446.6392 581.3785,458.3185 567.8175,479.7089 538.9594,521.7612 529.2358,538.2284 524.6174,547.9738 520.6795,558.2164 518.3652,566.625 516.1862,578.3022 514.948,592.043 514.7741,612.8686 516.4612,638.5997 518.203,655.0204 520.9484,677.284 523.967,698.267 544.1942,821.1542 547.1923,841.9279 548.9924,857.6878 549.8202,871.9212 549.462,882.6514 548.8521,886.3411 547.8948,889.3176 546.6945,891.3166 545.0209,892.6631 543.6766,893.0532 542.148,893.0032 538.4901,891.5109 534.3069,888.3588 529.2876,883.3879 523.5243,876.6794 517.2822,868.5179 510.121,858.3309 502.2456,846.3809 483.75,816.125 465.2867,783.4505 445.8773,746.6479 427.4085,709.2 413.8928,679.7172 401.7716,651.0691 391.2971,623.8338 382.8596,599.0434 376.7952,577.64 372.4247,557.6396 369.7142,538.9456 369.0139,530.2853 368.7512,521.9452 369.2761,510.1623 370.948,499.429 373.7528,489.7703 375.5852,485.3347 377.8031,481.0009 380.2584,477.088 382.9288,473.5662 389.105,467.2789 392.7397,464.4323 396.5159,461.9679 400.7246,459.7031 405.0111,457.8311 414.4978,454.8987 425.2039,453.0546 435.929,452.4911 447.9471,453.1376 459.9588,455.0091 473.424,458.516 483.6836,462.1695 500.9731,469.4612 503.5981,469.5966 504.576,469.017 505.1397,468.1743 505.75,465.5 505.8929,458.4517 502.1535,416.4553 500.1643,387.2773 499.3191,368.4163 498.8027,343.7812 498.9901,322.487 499.8979,300.6198 501.3651,281.641 503.482,263.818 506.4925,246.132 510.2144,230.4142 514.7034,216.382 517.1796,210.2085 519.822,204.611 522.6885,199.4862 525.5324,195.1955 528.7714,191.1272 531.9248,187.9061 535.2011,185.2633 538.7663,183.1487 542.2342,181.7849 545.8084,181.0186 550.1929,180.9005 554.6293,181.6717 559.0625,183.3479 563.1629,185.7431 567.7524,189.3346 572.0083,193.5469 576.1321,198.5281 580.0689,204.2509 583.7639,210.6878 587.0564,217.5195 590.2009,225.1431 593.0339,233.2175 595.5315,241.6831 597.67,250.4805 599.3575,259.1509 600.7767,268.6065 602.4799,287.121 602.7645,305.2659 601.5427,324.6084 599.0286,343.7164 595.4844,360.9576 590.1745,379.6238 583.7762,397.4232 576.1153,414.8773 568.2787,430.0225 558.9145,445.8639 549.0605,460.5762 538.6151,474.5251 528.8708,486.022 525.7288,489.204 522.7422,491.6953 520.1016,493.3828 518.0822,494.0538 516.2368,493.9312 514.2611,492.9603 512.1326,490.272 509.7685,485.2298 507.0543,476.0477 505.2575,467.6432 502.7288,453.0088 500.25,434.75 498.2716,417.4325 496.512,398.5321 494.2585,363.758 493.3573,330.965 493.8266,297.899 494.5495,283.2395 495.6189,269.1635 498.4399,244.9652 502.2308,223.813 504.5737,213.947 507.1306,204.8861 509.9854,196.3359 513.0559,188.5791 516.306,181.7456 519.6512,175.9103 523.4848,170.4091 527.3328,165.9497 531.391,162.2453 535.6377,159.3531 539.9942,157.3515 544.4623,156.2205 549.7808,155.956 554.8504,156.7148 559.9709,158.4447 565.0923,161.1456 570.1915,164.8358 575.2396,169.4975 580.3839,175.3355 585.1029,181.7585 589.5823,188.953 593.7704,196.8607 597.6177,205.4174 601.1235,214.5114 604.3825,224.4189 607.1321,234.3525 609.5443,244.9639 611.4171,255.4156 612.7686,265.5538 613.8045,276.6993 614.3947,287.4385 614.585,298.4842 614.3658,309.0231 613.7539,319.3871 612.7197,329.8273 611.2529,340.6355 609.4632,351.0688 607.2852,361.4878 604.7989,371.494 601.9201,381.4168 598.3458,392.1543 594.4865,402.4987 590.3308,412.5274 585.7648,422.5096 580.1247,433.7168 573.93,444.9929 567.6926,455.4423 559.7628,467.8246 528.8807,512.3618 515.0259,534.1921 512.5689,536.9417 511.2996,537.3965 510.3254,537.0423 509.2371,536.101 508.1771,534.2924 505.8317,527.6362 502.6588,513.908 499.2261,495.0713 495.684,471.975 491.5298,440.6795 487.625,403.875 485.7701,382.1882 484.2927,359.1132 483.1587,334.6525 482.6198,313.6676 482.5309,292.9165 482.9101,272.4103 483.6928,254.8196 485.0266,237.226 486.9034,220.1174 489.0723,205.195 491.7156,190.8226 494.5478,178.5053 497.8704,166.7592 501.6836,155.7343 505.8359,145.9032 510.4465,137.0215 515.2891,129.5363 520.4905,123.2502 526.0944,118.1105 532.0515,114.1781 538.3124,111.5141 544.8279,110.1795 551.1903,110.1965 557.6025,111.4703 564.4472,114.1171 572.2442,118.6724 579.6959,124.5612 587.2851,132.1941 594.3203,140.9264 601.2835,151.3826 607.737,162.8374 613.8573,175.6226 619.2414,188.915 623.8593,202.506 627.6921,216.2117 630.9854,230.9727 633.6512,246.4716 635.5662,262.0379 636.7623,277.9282 637.1969,293.6342 636.8848,309.0114 635.9164,323.5697 634.358,337.6313 632.1321,351.908 629.2924,365.9259 625.8663,379.6027 621.7133,393.4851 616.8621,407.4472 611.5584,420.7812 606.3187,432.5162 600.4258,444.4406 594.031,456.2368 586.9348,468.2583 572.4304,490.5506 543.9488,531.0632 538.6858,539.2242 534.0809,547.0652 528.9701,557.0508 525.0955,566.3825 522.1633,575.511 519.6484,586.2483 518.0331,598.2038 517.1866,611.8466 517.2439,624.4309 518.3594,646.4688 522.2778,686.0561 535.1719,787.7969 536.4734,800.8527 537.337,814.2185 537.5436,826.8242 536.6921,836.273 535.9028,839.8935 534.8142,842.7885 533.5672,844.6692 532.0018,845.8903 529.3894,846.4011 526.4981,845.6162 522.815,843.3437 518.8213,839.8508 514.2323,834.971 508.9277,828.5312 497.416,812.3086 483.4313,789.8901 468.9634,764.4369 454.4618,736.6073 440.1721,706.9533 429.5529,683.0547 419.9299,659.3193 411.6798,636.6937 405.0436,615.8275 400.2285,597.1694 396.8889,579.714 395.0799,563.7826 394.7738,556.7924 394.8558,550.0058 395.3198,543.6995 396.2008,537.4976 397.4436,531.8325 399.0104,526.6992 400.9883,521.8221 403.2868,517.4595 406.0441,513.3776 409.0784,509.8466 412.6257,506.6126 416.3874,503.9605 420.3628,501.8301 425.1609,499.9303 430.0547,498.5871 434.9638,497.7766 439.8082,497.4745 445.1556,497.6765 451.3491,498.415 457.2719,499.6508 462.5075,501.2613 468.8115,503.7795 473.9491,506.2973 478.25,508.875 484.1797,513.1087 488.7501,517.0062 493.2483,521.7579 496.5657,525.8213 500.2392,531.3896 502.8107,536.0369 505.4582,542.4766 507.3929,548.9229 508.4375,555.0137 508.375,558.5 508.1094,558.875 507.4973,558.0754 505.9219,553.8496 503.7716,545.2882 501.5005,534.2721 497.0428,509.1354 492.6071,480.7208 485.8383,428.4957 480.5104,372.8251 478.9835,350.5454 477.8457,327.545 477.1091,304.2272 476.9075,283.5268 477.1854,263.7836 477.943,244.5216 479.182,225.9448 480.8201,209.0285 482.9128,193.0364 485.4868,177.8087 488.5359,163.5012 491.9504,150.5814 495.7606,138.8442 499.8775,128.5325 504.5,119.088 509.6046,110.6306 515.1677,103.2803 520.918,97.3771 526.7859,92.8793 533.0947,89.5646 539.6531,87.5799 546.8336,86.876 554.2433,87.5907 561.4456,89.5944 566.1726,91.591 570.5499,93.9206 574.9264,96.7183 579.2884,99.985 588.2502,108.2081 596.856,118.0309 605.3438,129.7344 613.3454,142.9076 620.5425,156.9901 627.0444,172.2041 632.7536,188.285 637.7327,205.331 641.8239,222.8042 645.0604,240.886 647.2821,258.6231 648.5657,276.4553 648.9672,294.8268 648.4338,313.4871 647.2583,328.934 645.413,344.214 642.9637,358.8724 639.7221,373.9244 635.8327,388.6543 631.2501,403.2271 626.0056,417.5326 620.1586,431.4635 614.3344,443.8623 607.9293,456.2279 600.9522,468.5041 593.3252,480.8347 578.3778,502.798 547.6284,544.5772 537.6351,559.9452 532.491,569.045 528.5519,577.3264 525.0965,586.3601 522.527,595.132 520.0761,606.987 518.6543,619.5269 518.1409,630.1157 518.2381,648.0599 520.0631,679.1766 527.6991,759.7054 528.4847,772.5048 528.7981,785.5029 528.4078,795.885 527.1544,804.0902 526.3387,806.7295 525.2981,808.8912 523.9979,810.5448 522.4307,811.6407 520.101,812.0881 517.6875,811.5469 514.5402,809.8428 511.3187,807.3213 507.7235,803.8574 503.6157,799.1972 494.543,787.051 484.2307,771.1099 473.5925,752.6683 461.7717,730.1825 451.4368,708.7354 442.3668,687.9787 433.9505,666.8346 427.5928,649.0773 422.3687,632.0706 418.0688,615.0651 415.1038,599.5217 413.5826,585.8254 413.3758,573.3735 414.25,563.875 416.0826,555.6605 418.9071,548.4598 420.7843,545.1046 422.8509,542.1627 427.5207,537.3669 430.3905,535.2695 433.3848,533.5817 436.457,532.294 439.5607,531.3971 446.7316,530.557 450.564,530.683 454.7001,531.2662 462.8028,533.6835 470.1204,537.1034 477.078,541.8999 483.605,547.7782 489.6911,555.0428 494.4593,562.3877 499.1484,571.6582 503.2507,582.353 506.0084,591.4336 508.7012,602.4532 512.0127,619.9023 517.8699,660.4246 533.5209,776.0394 536.4628,805.5567 536.9926,816.7888 537.0257,826.4898 536.5381,833.3465 535.4867,838.6067 533.7496,842.5187 532.6079,843.8157 531.5449,844.513 528.9767,844.9438 525.75,844.0 522.4733,841.9787 518.4856,838.5092 513.9413,833.6547 508.8162,827.3971 502.5829,819.0166 496.8612,810.6835 483.3441,788.9414 468.1141,761.9684 454.5883,736.0158 441.3286,708.4294 429.7477,682.3808 420.708,660.1503 412.5566,637.6816 405.7456,616.0544 400.8749,597.3883 397.6528,580.612 395.882,564.7674 395.5764,557.2395 395.6772,550.2694 396.1345,544.1895 397.0338,538.0226 398.3144,532.3927 399.9393,527.2865 402.0204,522.3816 404.4088,518.0464 407.1357,514.1675 410.419,510.503 413.9528,507.4162 418.0036,504.6858 422.2215,502.5526 426.5405,500.9746 431.479,499.7752 436.8691,499.0663 442.2051,498.9122 447.774,499.2871 453.9616,500.2696 459.9286,501.7391 465.5187,503.6648 470.8576,506.0801 476.3617,509.1016 481.2708,512.3643 486.7608,516.7591 491.0864,520.8976 494.8552,525.3194 498.2192,530.0024 501.5623,535.7558 503.9837,540.8364 506.41,547.3219 507.9477,553.3695 508.832,559.584 508.625,563.5 508.3594,563.9531 507.6975,563.3608 506.1528,559.4352 501.7768,540.622 497.8303,519.6803 493.6036,493.848 488.2877,455.9813 485.6241,434.862 482.0437,401.9337 479.7531,376.6394 477.9764,351.7469 476.6222,326.4356 475.8823,304.3212 475.6271,282.7867 475.867,261.0407 476.6292,239.7949 477.8332,221.5872 479.6033,203.8512 481.8174,187.543 484.5289,172.0425 487.7238,157.4806 491.3421,144.1967 495.4015,132.1862 500.021,121.1053 505.0161,111.4164 510.3301,103.1423 516.1241,96.0517 522.2763,90.3614 528.5673,86.2052 535.5637,83.2181 542.8938,81.6773 550.1228,81.5879 557.5341,82.8748 565.0691,85.5694 569.625,87.875 574.2344,90.7172 578.8384,94.0503 583.4207,97.8575 592.4551,106.827 601.2073,117.4917 609.5468,129.7174 617.1352,142.9728 624.2332,157.7299 630.6076,173.4213 636.2197,189.8602 641.1174,207.2325 645.1198,224.9871 648.1217,242.5406 650.2494,260.6571 651.4725,279.1406 651.7541,297.6504 651.0916,316.0465 649.7668,331.6798 647.8071,346.6407 645.0521,362.2349 641.578,377.7851 637.4838,392.8246 632.8143,407.309 627.501,421.5078 621.4981,435.5413 615.6446,447.738 609.1481,459.973 602.0852,472.1015 593.9109,485.0521 578.5377,507.2961 548.17,548.011 537.4634,564.1938 532.7964,572.4134 528.921,580.5238 525.6356,588.8918 523.0782,597.1989 520.5621,608.6089 518.8617,621.8347 518.1288,633.4412 518.0583,648.6176 519.1883,672.8253 524.7984,737.4011 526.3882,759.0352 526.9421,769.5596 527.0233,779.7221 526.517,789.8377 525.2162,797.3481 524.2615,800.2765 523.2507,802.2903 522.0318,803.8158 520.5759,804.8239 518.3498,805.2931 515.9755,804.8184 512.9308,803.2332 509.8037,800.8193 506.2901,797.437 502.2993,792.9309 493.3835,780.9653 483.1614,765.0692 473.5997,748.4061 462.8447,727.7598 452.0291,705.1839 443.7523,686.1864 436.3673,667.5078 430.2275,650.1278 425.2784,633.7555 421.2137,617.2781 418.4163,602.1319 417.111,589.638 417.0223,577.8233 417.9528,568.6139 419.7772,560.6039 422.5565,553.5382 426.2695,547.6225 430.7976,543.0823 433.3514,541.2697 436.3468,539.6451 442.2234,537.7355 448.9286,537.1606 452.7282,537.3907 456.4731,538.0036 463.7186,540.3061 470.8631,543.8954 477.5729,548.801 483.8872,554.8542 489.8427,562.3608 494.1306,569.1843 498.8258,578.7854 502.7477,589.0555 505.7409,598.8529 509.1535,613.3279 512.5027,631.1945 519.605,679.4901 526.7139,732.0701 530.3327,762.0323 533.3524,793.0592 533.7928,803.1929 533.7733,813.3469 533.2261,820.59 532.1055,826.0822 530.3611,829.9599 529.2187,831.2826 527.8785,832.1565 525.2905,832.5507 522.6094,831.8278 519.4551,829.9844 515.8406,826.9723 511.4586,822.4453 506.8384,816.945 496.5494,802.7991 484.3187,783.3346 470.2294,758.6092 457.9724,735.1966 445.712,709.7935 435.2659,686.3941 426.6667,665.2454 418.911,643.9107 412.5861,623.9614 407.9593,606.4145 404.7181,590.0767 402.8466,574.9646 402.3967,561.4432 403.2191,550.7929 405.2672,540.8679 406.6759,536.5343 408.4379,532.3362 410.3441,528.7522 412.677,525.268 415.2416,522.2152 418.0,519.5781 421.2131,517.1387 424.5647,515.1623 428.1129,513.5853 432.2335,512.2556 436.038,511.4258 440.2377,510.9177 444.4009,510.8204 448.9299,511.1691 453.8986,511.9745 459.0575,513.2561 463.6135,514.8028 468.5088,516.9391 472.9602,519.2767 477.0736,521.8646 480.8659,524.7572 485.5568,528.8936 491.867,535.8101 497.6991,544.2066 502.6689,554.3752 506.4247,565.5063 509.3332,578.5036 511.8189,597.4403 514.373,625.9863 517.1862,651.8632 521.8022,686.0807 530.2198,737.6698 546.094,828.3955 550.7761,859.9135 552.6275,879.6824 552.7627,887.1365 552.3807,893.2829 551.5332,898.0204 550.1171,901.4835 548.2669,903.3422 545.7893,903.8546 542.4905,902.8088 538.507,900.0723 533.7349,895.5535 528.141,889.186 521.6921,880.9035 514.3551,870.6397 498.9853,847.0309 479.5512,814.3871 458.3991,776.4124 440.2358,741.595 422.6707,705.6104 408.3953,674.3405 396.3401,645.9019 386.037,619.08 377.5544,594.1276 370.9593,571.3245 366.2749,550.7229 364.663,541.1869 363.5269,532.1786 362.844,523.6945 362.5898,515.365 363.0948,503.2821 364.7408,492.0537 367.4629,482.2614 371.332,473.5547 373.7074,469.5737 376.515,465.6693 379.5317,462.1679 382.7223,459.0473 389.9461,453.5582 394.0403,451.1546 398.6046,448.9336 407.5963,445.6914 417.3121,443.5374 429.1904,442.2801 441.0126,442.1766 453.5905,443.3575 466.6593,445.6468 480.2003,449.1718 494.2886,453.7653 499.0278,455.0238 500.9395,455.2043 502.75,455.0 503.9954,454.375 504.963,453.25 506.1404,449.2324 506.5132,443.8639 502.8069,375.8823 502.3214,356.3887 502.3156,336.3168 502.9106,317.4204 504.0877,298.4814 505.7131,282.1239 507.895,266.6387 510.7754,251.6567 514.3941,238.0244 518.7663,225.6502 523.5063,215.59 528.7681,207.5683 531.6101,204.27 534.5664,201.4959 537.6171,199.2829 540.6154,197.7003 543.7927,196.5942 547.047,196.0343 551.0939,196.1231 555.1761,197.0987 558.8811,198.7879 562.9115,201.4783 567.0406,205.0976 571.0489,209.5306 574.6395,214.4015 578.0141,219.9417 581.2967,226.465 584.388,233.7203 587.0556,241.1266 589.4025,248.9388 591.2998,256.6992 592.8127,264.6084 594.1086,273.572 595.0393,282.6649 595.8021,300.2364 595.2439,317.6046 593.3823,335.6476 590.3429,352.7679 585.8676,370.3745 580.3969,386.9402 573.3912,403.9019 565.2877,420.2013 558.0537,432.709 550.7619,443.7792 542.7055,454.8101 535.1378,463.6035 529.2714,469.1521 524.4191,472.2789 522.4819,472.9037 520.3259,472.9911 518.616,472.546 516.772,471.282 514.1839,467.974 512.0278,462.8083 509.6979,455.5073 507.2487,444.4974 505.6128,434.7317 503.5888,419.4357 500.7068,389.9706 499.182,361.1409 498.614,333.5404 499.4059,301.7641 501.1869,277.0655 503.941,255.4973 507.4271,237.4205 509.6937,228.4399 512.1457,220.2486 514.8665,212.5481 517.6395,205.902 520.6742,199.7939 523.7435,194.6243 527.2416,189.7713 530.7176,185.9032 534.3704,182.7545 537.9859,180.4805 541.8239,178.8722 546.1501,177.9424 550.574,177.888 555.0463,178.724 559.5181,180.4656 564.1069,183.2188 568.7422,186.9537 573.2852,191.5878 577.6659,197.0771 581.591,203.0075 585.25,209.625 588.7807,217.1879 592.1449,225.644 595.0385,234.2427 597.5689,243.2398 599.6217,252.1696 601.3074,261.4864 602.5994,270.9088 604.0659,289.9485 604.068,308.8891 602.5551,328.8087 599.6387,348.3624 595.5447,366.4593 589.9062,384.9531 582.9041,403.1745 574.3901,421.6591 566.9087,435.6293 558.1983,449.9806 547.3112,465.8569 537.0704,479.4652 528.2375,489.9453 521.8444,496.1066 519.4493,497.7141 517.227,498.5267 515.3656,498.4032 513.7866,497.6199 512.5186,496.3189 511.0,494.0 509.1899,489.6473 506.6854,481.1601 503.9498,467.5535 499.3242,436.8932 495.4963,399.0258 493.1695,362.8721 492.2549,328.204 492.6837,295.0368 493.4436,279.4487 494.5436,264.9044 497.327,241.2498 501.2725,219.5675 503.7029,209.4398 506.3651,200.1255 509.1609,191.8965 512.1726,184.4657 515.659,177.2709 519.256,171.106 523.1154,165.6669 527.0004,161.2483 531.142,157.5693 535.4039,154.7612 540.2078,152.6233 544.8288,151.4894 550.3042,151.2353 555.506,152.0515 560.6478,153.8722 566.1025,156.8677 571.5172,160.8861 576.8344,165.8867 581.9965,171.8288 586.9459,178.6717 591.3984,185.97 595.9073,194.6653 600.0177,203.9338 603.7496,213.7881 606.95,223.7524 609.721,234.0806 611.948,244.2872 613.8902,255.6749 615.2611,266.309 616.2517,277.3581 616.8089,288.3877 616.9359,299.3416 616.636,310.1638 615.8935,321.2231 614.7436,332.2332 613.1691,343.2827 611.2351,353.9632 608.8895,364.6143 606.0901,375.3426 602.899,385.9222 599.3518,396.2738 595.3386,406.7047 590.8834,417.1269 585.988,427.537 577.5517,443.5031 567.4416,460.3528 558.3161,474.3222 529.36,516.665 520.8135,531.2132 515.2041,542.3203 512.4766,546.9707 511.0,548.5 509.812,548.473 508.4746,547.248 506.652,543.2084 503.9205,533.3143 500.3891,516.055 496.4929,492.5209 491.9944,461.8077 489.5978,442.6394 485.6256,406.8315 482.975,376.3663 481.3172,352.0211 480.2765,330.1681 479.692,307.5094 479.6113,285.1265 480.0106,265.5985 480.9183,246.6335 482.3238,228.3642 484.2055,211.0175 486.3921,195.6853 489.0002,181.5525 492.0661,168.3448 495.6603,155.8129 499.6578,144.4479 504.0165,134.3184 508.8228,125.2691 513.8641,117.714 519.6268,110.957 525.5446,105.7108 531.8289,101.7361 538.1173,99.2195 544.6663,98.0237 551.4682,98.1952 558.4252,99.6959 565.8194,102.653 574.225,107.6653 582.2483,114.1145 590.1067,122.1199 597.7024,131.6334 605.023,142.6351 612.0558,155.1679 618.5216,168.7826 624.3395,183.302 629.3078,198.1501 633.5141,213.4733 637.0384,229.4948 639.8247,246.076 641.7857,262.7006 642.942,279.5944 643.2456,295.9524 642.7356,312.6369 641.5867,327.6045 639.842,342.0636 637.4205,356.7008 634.3799,371.0469 630.6234,385.4803 626.3057,399.4916 621.3577,413.3106 615.8042,426.8361 610.2857,438.7698 603.81,451.4334 597.0508,463.5537 589.8205,475.4995 575.7324,496.5968 545.9125,538.0657 536.2313,553.2692 531.3784,562.2138 527.6928,570.4168 524.0114,580.6171 521.5494,589.8245 519.5022,600.6312 518.3745,612.1426 517.8956,625.7846 518.119,641.398 519.3146,661.1984 521.1921,682.4451 530.9165,771.685 532.0928,786.234 532.5637,797.6794 532.4738,809.8746 531.5018,818.1718 530.5747,821.5961 529.5678,823.9302 528.0917,825.9408 526.5335,826.9971 524.3315,827.3823 521.3975,826.6526 518.1446,824.7378 514.6934,821.8645 510.4805,817.5649 505.3578,811.5408 495.8148,798.4815 484.0291,779.8354 470.8391,756.8264 458.8269,733.8707 446.8165,708.923 436.9969,686.8115 428.4682,665.6929 421.0032,645.0624 414.8729,625.5963 410.5022,608.6317 407.3485,592.2909 405.5644,577.29 405.1941,564.2045 406.0505,553.9185 408.0612,544.3847 411.0641,536.3471 412.8987,532.9286 415.1906,529.5565 417.7065,526.615 420.4025,524.085 423.5233,521.755 426.75,519.875 430.3338,518.2896 433.9965,517.1212 437.7062,516.3434 441.8029,515.9069 445.875,515.875 450.6035,516.2695 455.2031,517.0625 459.6387,518.2305 463.875,519.75 468.5357,521.8535 476.705,526.7118 484.8702,533.5679 488.2204,537.0468 491.3646,540.8774 496.793,548.7707 501.7049,558.7911 504.5136,566.2564 506.7617,573.8848 509.1626,584.4434 511.2274,596.82 519.4174,664.9535 522.7125,689.1492 527.6624,721.8683 540.6906,803.2249 544.4335,829.9765 546.5019,850.7863 546.9096,860.1157 546.8485,867.3852 546.3447,872.827 545.3142,877.2204 543.7917,880.2427 541.9267,881.8444 540.6709,882.2266 539.2459,882.225 535.8505,881.0037 531.6639,878.0464 526.6154,873.2107 521.0806,866.8378 514.7917,858.6816 507.7749,848.7577 500.3247,837.4992 483.7086,810.3485 465.5996,778.1688 446.9256,742.5555 430.1926,708.2931 416.9521,679.0384 405.3565,651.287 395.8293,626.1767 388.1983,603.0646 382.113,580.8534 377.7483,559.9856 376.3163,550.5884 375.3501,541.687 374.8835,533.4556 374.8789,525.789 375.771,514.5969 377.8328,504.169 380.8964,495.2727 385.1747,487.2245 390.4761,480.3758 393.6635,477.2323 397.0127,474.4834 400.4869,472.1105 404.4616,469.8856 413.1931,466.3395 422.8333,464.0406 433.2866,463.0327 444.6756,463.2791 455.789,464.8073 466.3783,467.3993 476.321,470.8269 487.0779,475.7308 502.127,484.653 504.164,485.2985 505.25,484.625 505.7773,481.6719 505.436,475.8038 500.0721,427.1633 497.4182,394.4174 496.294,375.2083 495.4073,351.2239 495.1543,326.0696 495.7219,300.2791 496.9753,279.9375 499.0975,259.4583 502.1427,239.0979 505.9681,221.3272 510.7631,205.3211 513.365,198.4995 516.2003,192.1926 519.3951,186.2166 522.6156,181.1658 526.036,176.698 529.6387,172.8613 533.4059,169.7039 537.3235,167.2726 541.0669,165.7014 545.2951,164.7144 550.3659,164.5383 555.154,165.3319 559.9658,167.0638 564.75,169.75 569.7291,173.558 574.6262,178.2853 579.3817,183.887 583.9353,190.318 588.0199,197.1549 591.625,204.25 595.2598,212.64 598.5522,221.5491 601.4806,230.898 604.0235,240.6073 606.159,250.5975 607.8613,260.7597 609.0973,270.678 609.9476,280.6398 610.4219,290.5938 610.5267,300.8669 610.2472,311.0184 609.5909,321.031 607.1293,341.1455 605.3098,351.3024 603.1001,361.4553 597.6118,381.3721 590.7511,400.8232 582.4225,419.9567 575.1915,434.1344 566.6492,448.9991 558.1922,462.3053 547.0453,478.5444 531.3423,500.2502 519.0441,516.3752 516.7481,518.6885 514.5,520.125 512.9531,520.4219 511.2875,519.7259 509.8615,517.9173 508.2698,514.692 505.3818,505.3557 502.1369,489.6426 499.9001,476.5571 496.9641,456.2735 493.6129,428.2221 491.1789,403.8502 489.1828,379.1602 487.9883,358.5198 487.1731,337.1087 486.794,317.524 486.8571,298.4834 487.3668,279.663 488.3251,261.3439 489.6207,245.5094 491.3911,230.1497 493.5012,216.2051 495.9384,203.4023 498.7714,191.336 501.8498,180.6684 505.5143,170.2711 509.481,161.0501 513.6893,153.0399 518.273,145.9874 522.9917,140.2594 528.1029,135.5609 533.5556,131.9548 539.2908,129.4904 545.25,128.2173 551.0104,128.1516 557.0698,129.2836 563.0967,131.5865 570.0232,135.6035 576.6142,140.7825 583.3493,147.5116 589.579,155.1711 595.4588,163.8863 601.0986,173.8036 606.3292,184.6002 611.2317,196.5109 615.4609,208.7065 619.113,221.401 622.0882,234.2405 624.4754,247.4359 626.3013,261.117 627.5291,275.1943 628.1162,289.1863 628.0701,303.3594 627.3836,317.4366 626.0638,331.7144 624.1746,345.4685 621.6809,359.0355 618.5819,372.343 614.8816,385.3969 610.4698,398.7528 605.614,411.545 600.5076,423.43 594.9233,435.0724 588.3668,447.5658 581.5378,459.5026 566.6347,482.9032 540.344,521.1324 534.9804,529.7278 529.6616,539.0057 524.9715,548.8056 521.7705,556.9909 518.7037,567.631 516.5017,578.9222 515.1951,593.6955 514.9484,604.457 515.1481,614.4793 516.4062,634.75 519.4615,664.0573 525.7276,709.1559 541.3948,805.57 545.6706,834.829 547.5867,852.1829 548.4536,866.1921 548.1208,876.4229 547.4438,880.4977 546.5208,883.4872 545.2716,885.713 543.654,887.1057 542.2496,887.5521 540.9648,887.5605 537.5069,886.3758 533.3888,883.518 528.6144,878.9647 523.0688,872.6328 516.7469,864.5015 509.6434,854.55 502.3661,843.6782 485.5041,816.2871 466.8025,783.2987 448.5729,748.9695 431.4923,714.3917 417.3827,683.7245 404.8761,654.4418 395.2219,629.4743 387.1406,605.7812 380.3522,582.325 375.5319,561.1409 373.9285,551.7397 372.8027,542.8711 372.1315,534.5323 371.8906,526.3438 372.4405,514.3102 374.1158,503.4911 376.9074,493.9135 380.8734,485.3605 383.3004,481.4814 385.9379,477.983 389.0017,474.6058 392.2472,471.6395 395.7037,469.0217 399.7316,466.4881 403.8871,464.3234 408.4889,462.3741 417.815,459.622 427.906,458.1444 439.2391,457.8349 450.5454,458.8097 460.9354,460.672 470.4173,463.1873 483.5299,468.1047 501.8613,477.1518 503.8906,477.4688 504.7893,477.0073 505.2285,476.3342 505.8906,472.9254 505.525,465.9338 500.9699,420.5468 499.1177,395.7403 497.7585,370.9778 497.036,347.6958 497.0156,325.5403 497.7866,302.3422 499.158,281.5437 501.2522,262.1062 504.2773,243.0652 507.9766,226.4977 512.53,211.5487 515.0971,204.8765 517.75,199.0 520.6992,193.4774 523.6384,188.8388 527.0034,184.4145 530.2985,180.8763 534.0141,177.724 537.6046,175.4477 541.2252,173.867 545.0132,172.9298 549.2456,172.6743 553.9084,173.2972 558.6081,174.8522 562.9402,177.1116 567.3524,180.258 571.8321,184.3558 576.1836,189.2544 580.3677,194.9111 584.3452,201.2831 587.8873,207.9408 591.1368,215.0737 594.3899,223.4195 597.303,232.2062 599.7545,240.9919 601.844,250.0588 603.5476,259.3458 605.7699,278.3438 606.62,297.8445 606.0881,316.2806 604.1274,335.1388 600.8491,354.198 596.3159,372.6332 590.1797,391.5235 582.8335,409.6815 574.8332,426.2118 566.4471,441.3793 556.2602,457.6146 544.6541,474.3013 530.0406,493.3587 522.5271,501.8465 519.4852,504.6312 517.016,506.187 514.739,506.538 512.9062,505.7876 511.6389,504.421 510.1906,502.0908 507.9519,496.3219 506.0276,489.3787 503.2631,476.2302 498.3513,443.3887 495.7934,421.2996 493.976,401.8835 491.5042,365.1089 490.2907,324.7463 490.6986,292.9501 492.505,261.5541 495.2698,236.9637 497.1174,225.322 499.3098,213.9927 501.6687,203.8213 504.1719,194.8244 507.0074,186.2866 510.1661,178.29 513.6389,170.9167 517.2385,164.5352 521.108,158.8677 525.0072,154.2326 529.5237,150.0144 533.967,146.8959 538.6017,144.6082 543.3998,143.1908 548.6905,142.6828 553.6707,143.1806 559.0378,144.7102 564.7516,147.3918 570.152,150.9154 575.4832,155.3684 580.6893,160.7241 585.7144,166.956 590.6181,174.1959 595.184,182.0349 599.635,190.866 603.5998,199.9575 607.2086,209.5493 610.4211,219.5662 613.089,229.4882 615.5347,240.509 617.4197,250.968 618.9621,261.9127 620.0818,272.9074 620.7736,283.8869 621.0304,294.4124 620.8714,305.2458 620.3027,316.3742 619.3541,327.2493 617.9947,338.2185 616.2764,348.8604 614.1473,359.4948 611.6643,369.8543 608.5528,381.1608 605.1935,391.8762 601.4771,402.3522 597.4007,412.5412 592.3038,423.8681 586.8674,434.89 581.1006,445.6277 574.8566,456.3632 562.6152,475.585 537.3494,512.3767 531.1503,522.0278 526.9665,529.3224 523.1718,536.644 518.9272,546.2797 515.4997,556.3863 511.4862,571.8054 509.9863,575.5781 509.459,575.9688 508.8837,575.9491 507.625,574.375 506.91,572.6465 505.0533,566.4429 502.6397,556.6206 499.3468,540.1246 493.7836,508.2288 488.1233,471.0617 483.6798,437.813 480.1332,406.9081 477.0413,374.4238 475.2078,350.347 473.8416,325.7197 472.9205,300.1088 472.5127,275.2175 472.6811,254.5996 473.3688,234.4408 474.589,214.9752 476.299,196.767 478.433,180.1286 481.1348,164.1064 484.369,149.0337 488.1107,135.0562 492.3333,122.292 497.0082,110.8331 501.8914,101.148 507.4447,92.3765 513.5393,84.8292 520.1314,78.6059 526.875,73.9769 533.9966,70.7437 541.1265,69.0385 548.6321,68.77 556.3343,69.9712 564.5254,72.7387 569.6211,75.1957 574.4146,78.0115 579.5263,81.5535 584.2995,85.3716 589.3518,89.9667 594.0342,94.7571 603.1779,105.7109 612.3107,118.9129 620.8845,133.6364 628.7818,149.6579 635.8854,166.7541 641.9563,184.3125 646.9629,202.1199 651.2703,221.393 654.5568,240.7923 656.869,260.5261 658.1453,280.0349 658.3984,299.139 657.6374,318.0699 656.2155,334.1373 654.0382,350.3421 651.1541,366.2036 647.5937,381.6461 643.3973,396.5892 638.1586,412.3498 632.4151,427.2874 625.9047,442.0921 619.7827,454.4806 612.9957,466.9042 605.5199,479.4335 597.3388,492.0684 580.7628,515.3013 550.8025,554.2262 538.775,571.6313 533.7269,580.1898 529.3755,588.7061 526.2403,596.2534 523.528,604.4504 520.9089,614.8449 519.0303,626.625 518.1177,637.5709 517.6468,652.4563 518.3355,676.1509 522.6801,742.2487 523.2275,756.4601 523.2015,765.6343 522.4795,775.6215 521.261,782.4216 519.2987,787.177 518.0982,788.6828 516.6909,789.6886 514.6958,790.1951 512.3047,789.8821 509.9495,788.8426 507.0853,786.8332 503.8981,783.9167 500.0088,779.7004 492.1053,769.4683 483.2657,755.7532 473.4541,738.7289 464.3744,721.1281 455.1132,701.4477 448.1991,685.3756 441.7061,668.5157 435.8543,651.3461 431.548,636.567 428.2,622.1318 425.9303,608.5598 424.8728,596.9712 424.9295,586.5203 425.8959,578.1909 427.6557,571.1789 430.2794,565.0613 433.7416,559.9363 437.8239,556.109 442.8944,553.2724 448.2893,551.8782 454.2717,551.8163 460.2536,552.8762 466.2831,555.2177 472.5602,558.9676 478.144,563.6316 483.6943,569.352 488.0409,575.157 493.153,583.4695 497.268,592.104 500.7734,601.0263 504.429,613.0055 507.2957,624.2155 510.1024,637.4856 513.6469,657.2585 517.4127,681.8801 523.9362,732.6775 526.9883,765.1677 527.6021,779.4757 527.6191,788.8438 526.9345,796.794 525.6677,802.7873 523.9488,806.4766 522.8046,807.7765 521.429,808.6831 519.0043,809.0959 516.4723,808.4504 513.5493,806.8154 510.2003,804.1562 506.6595,800.6648 502.8861,796.3061 494.1208,784.4614 484.0656,768.9444 473.4741,750.5662 461.3311,727.4064 451.4332,706.7449 442.5636,686.3211 434.5144,665.9169 428.4425,648.6221 423.3965,631.8908 419.3369,615.5267 416.5911,600.6587 415.1572,586.913 415.041,574.8377 415.9604,565.6989 417.9028,557.3519 420.6926,550.3912 424.3666,544.5954 429.0519,539.8658 431.856,537.8501 434.7764,536.2392 440.5004,534.2919 447.7213,533.511 454.904,534.2049 463.3411,536.7078 470.1555,539.9935 477.0583,544.8803 483.2387,550.5504 489.588,558.1544 494.3238,565.5274 498.7924,574.4048 502.8746,585.0673 505.1752,592.3613 508.6951,606.7911 511.9251,623.8973 515.1538,644.7215 521.3927,689.0769 532.0011,769.2998 535.0304,800.298 535.582,810.1642 535.625,818.25 535.1357,826.2293 534.0744,832.2597 532.3519,836.4118 531.3468,837.704 530.0084,838.7218 527.6072,839.2462 524.6811,838.5086 521.1713,836.4427 517.1153,833.0658 512.9413,828.7212 508.3086,823.1257 497.4043,807.9345 485.3465,789.0465 472.6164,766.8344 457.1812,737.5595 444.4817,711.5659 433.7989,687.7255 424.1732,664.3179 416.6783,644.1887 410.3313,624.5519 405.0748,605.0442 401.3036,586.9352 399.3119,571.873 398.7644,557.617 399.131,550.207 400.0095,543.1744 401.4016,536.7233 403.2575,530.998 405.7112,525.5738 408.5731,520.8735 411.9916,516.6459 415.6919,513.2184 420.2666,510.0666 425.0697,507.6863 430.3667,505.9239 436.1677,504.8471 442.3918,504.4798 448.8704,504.8519 454.677,505.8375 461.3914,507.7049 467.0911,509.8636 472.3176,512.4498 478.7485,516.4592 483.8663,520.3333 488.5996,524.7639 492.7063,529.3 496.4909,534.5036 499.888,539.9673 503.2096,546.8994 505.2782,552.1785 507.1456,558.8733 508.9056,567.1277 509.9812,575.7669 510.3422,582.0175 510.2731,591.5417 509.749,594.433 509.3704,595.125 508.75,595.125 507.7402,593.5307 505.003,584.532 499.4611,559.3868 493.9497,529.3997 488.5412,497.0341 482.2891,454.284 478.937,428.8804 475.7318,400.887 473.1496,374.8325 471.0449,348.8615 469.3539,322.254 468.1222,295.6773 467.5696,273.6413 467.5197,252.4888 467.9712,231.7526 468.9109,212.0305 470.2866,193.6954 472.1419,176.1735 474.4517,159.7313 477.2523,144.1236 480.4503,129.8387 484.0977,116.5872 488.1809,104.4461 492.7064,93.4313 497.8051,83.3183 503.2122,74.6003 509.0963,66.969 515.44,60.5233 521.9463,55.5427 528.8449,51.8335 535.8018,49.5547 543.2129,48.5748 548.3104,48.6717 553.8382,49.4254 559.4579,50.8438 564.8097,52.7806 570.5399,55.472 575.9537,58.5961 581.3673,62.2881 586.7609,66.543 592.1147,71.3558 597.409,76.7214 602.5386,82.5239 607.7339,89.0065 617.7711,103.3642 627.2202,119.371 635.941,136.7778 643.6454,154.9549 650.3836,174.003 656.1439,193.963 661.0026,215.0398 664.7746,236.6311 667.3628,258.1345 668.7812,279.6887 669.0157,298.1795 668.2807,317.5387 666.6435,336.3287 664.0701,355.0578 660.6299,373.2191 656.3781,390.7077 651.155,408.1239 645.0398,425.2354 638.3347,441.3271 630.6653,457.3617 622.125,473.125 612.7258,488.6374 602.8373,503.3548 591.4863,518.7877 579.0823,534.5014 562.5,554.375"/>
  </g>
</svg>
