<?xml version="1.0" encoding="utf-8" ?>
<svg xmlns="http://www.w3.org/2000/svg" xmlns:cc="http://creativecommons.org/ns" xmlns:dc="http://purl.org/dc/elements/1.1/" xmlns:ev="http://www.w3.org/2001/xml-events" xmlns:inkscape="http://www.inkscape.org/namespaces/inkscape" xmlns:rdf="http://www.w3.org/1999/02/22-rdf-syntax-ns" xmlns:sodipodi="http://sodipodi.sourceforge.net/DTD/sodipodi-0.dtd" xmlns:xlink="http://www.w3.org/1999/xlink" baseProfile="tiny" height="27.09333333cm" version="1.2" viewBox="0 0 1024.0 1024.0" width="27.09333333cm">
  <metadata>
    <rdf:RDF>
      <cc:Work>
        <dc:format>image/svg+xml</dc:format>
        <dc:source>vpype read './original_svgs/Strange Attractors #37.svg' linemerge linesimplify write './Strange Attractors #37.svg'
</dc:source>
        <dc:date>2024-08-05T01:35:20.037273</dc:date>
      </cc:Work>
    </rdf:RDF>
  </metadata>
  <defs/>
  <g fill="none" id="layer1" inkscape:groupmode="layer" inkscape:label="1" stroke="black" stroke-width="0.7mm" style="display:inline">
    <polyline points="179.75,762.625 213.25,701.125 242.125,648.875 262.75,606.0 274.625,570.75 278.375,540.75 275.0,513.75 265.375,487.75 249.875,460.875 229.125,431.5 176.25,361.5 147.875,321.5 123.125,281.125 107.625,245.75 106.625,222.375 122.75,216.75 154.125,230.75 194.875,261.125 237.625,301.5 276.875,345.375 309.625,387.875 334.625,426.5 352.25,460.125 363.625,488.75 369.625,512.875"/>
    <polyline points="371.5,533.0 370.25,549.5 366.75,562.875 362.0,573.375 356.625,581.25 351.25,586.625 346.625,589.625 343.0,590.375 340.625,589.25 339.625,586.25 340.0,582.0 341.625,576.625 344.5,570.5 348.125,564.0 352.375,557.375 357.125,550.75 367.375,538.375 377.875,527.75 382.875,523.25 392.5,515.625 401.375,509.875 405.375,507.625"/>
    <polyline points="409.25,505.75 412.875,504.125 419.625,501.75 425.5,500.25 433.125,499.25 437.5,499.0 445.875,499.625 450.625,500.625 455.0,502.375"/>
    <polyline points="455.375,502.625 456.375,503.875 456.125,504.5 453.125,505.375 447.75,505.375 442.75,504.75"/>
    <polyline points="441.25,504.5 432.5,502.625 420.875,498.875 409.0,494.0 402.0,490.625 390.0,484.125 380.75,478.5 370.625,471.75 359.375,463.625"/>
    <polyline points="353.5,459.125 341.125,448.875 328.5,437.375 316.375,425.125 310.75,418.875 305.75,412.875 298.125,402.0 296.0,397.75 295.0,394.375 295.375,392.25 297.25,391.25 300.375,391.75 304.875,393.625 310.5,396.75 317.125,401.125 332.25,412.25 348.75,425.625 373.0,446.125"/>
    <polyline points="380.5,452.5 394.625,464.0 413.0,478.125 423.625,485.375 433.125,491.25 445.5,497.75 452.75,500.875 459.25,503.25 470.625,506.5 482.5,508.625"/>
    <polyline points="484.5,508.875 495.625,509.75 504.875,509.75 510.375,509.5 521.375,508.25"/>
    <polyline points="522.5,508.125 536.5,505.25 554.125,500.0 535.0,506.5"/>
    <polyline points="555.625,499.375 572.0,493.375 581.0,489.625 597.625,482.0 619.5,470.875"/>
    <polyline points="623.875,468.5 649.125,454.125 673.0,439.5 706.375,418.25 709.75,416.25 712.0,415.125 712.875,415.0 712.375,416.0 710.375,418.25 706.875,421.625 680.875,445.0"/>
    <polyline points="672.375,452.375 646.375,474.5 630.0,487.75 608.5,503.875 596.25,511.875 585.75,517.875 581.0,520.25 572.375,524.0 568.5,525.375 561.375,527.375 555.125,528.625 546.75,529.5 541.875,529.625"/>
    <polyline points="539.5,529.625 525.625,528.5 508.375,526.25 498.75,525.375"/>
    <polyline points="497.375,525.25 469.25,523.875 457.5,522.75"/>
    <polyline points="455.375,522.5 448.25,521.375 437.125,519.125 423.625,515.125 411.0,510.375 395.5,503.125 376.125,492.25 360.375,481.875 342.0,468.375 331.625,460.125"/>
    <polyline points="320.5,450.875 308.75,440.25 296.5,428.625 283.875,415.875 271.25,402.125 259.125,387.875 248.25,373.75 239.375,360.25 233.25,348.625 230.75,339.75 232.375,334.625 238.375,333.75 248.25,337.5 261.25,345.5 276.625,356.875 293.25,370.875 310.0,386.25 326.375,402.25 341.75,417.875 355.875,432.75 399.0,479.5 413.875,495.0"/>
    <polyline points="420.0,501.0 430.625,510.375 439.25,516.75 446.5,521.0 452.875,523.75 461.25,525.875 468.75,526.5 477.625,526.125 491.25,524.375"/>
    <polyline points="493.125,524.125 507.75,522.0 514.5,521.5 517.875,521.5 521.5,522.125 522.625,522.875 523.25,523.875"/>
    <polyline points="523.375,524.625 522.25,527.375 518.75,531.75 507.875,541.125 498.75,547.875 478.75,561.25 460.625,572.375 450.0,578.5 438.625,584.75 426.375,591.0 413.625,597.0 400.75,602.5 388.0,607.25 376.0,610.75 365.125,612.875"/>
    <polyline points="355.75,613.25 348.375,611.75 343.0,608.5 339.875,603.625 338.625,597.375 339.25,590.0 341.375,582.0 344.75,573.625 348.875,565.125 353.625,556.875 364.125,541.75 374.625,529.0 384.625,518.875 393.625,511.125 401.625,505.375 411.875,499.875 420.25,497.0"/>
    <polyline points="422.625,496.5 424.875,496.0 430.625,495.5 437.625,496.0 442.25,497.5 443.5,498.625 442.75,499.375"/>
    <polyline points="442.25,499.5 439.125,499.625 436.125,499.25 429.375,497.875 426.0,496.875 413.125,492.25 401.875,487.0"/>
    <polyline points="398.625,485.25 391.75,481.5 384.125,476.875 375.75,471.5 366.75,465.125 352.25,453.75 337.25,440.5 323.625,426.5 316.625,417.875 312.25,410.75 311.375,408.25 311.375,406.375 312.375,405.375 314.25,405.375"/>
    <polyline points="317.125,406.25 325.5,410.5 342.5,422.375 362.0,437.5 387.25,457.75 409.25,474.125 418.75,480.625 431.375,488.375 445.5,495.625"/>
    <polyline points="448.625,497.0 459.625,501.375 468.625,504.25 477.75,506.625 492.625,509.375"/>
    <line x1="493.5" x2="506.625" y1="509.5" y2="511.25"/>
    <polyline points="507.0,511.25 509.875,511.625 513.5,511.625 520.25,510.125"/>
    <line x1="520.5" x2="528.5" y1="510.125" y2="508.0"/>
    <line x1="529.0" x2="545.25" y1="507.875" y2="503.0"/>
    <polyline points="546.125,502.625 555.75,499.375 567.0,495.125 581.75,488.875"/>
    <polyline points="583.875,488.0 601.875,479.5 614.875,472.875 630.25,464.5 643.375,457.0 676.5,437.0"/>
    <polyline points="680.75,434.375 690.875,428.5 694.0,427.125 694.25,427.5 691.875,430.375 689.125,433.0 675.75,445.0 650.375,466.125 636.875,476.75 623.875,486.375 611.75,494.875 595.875,504.75"/>
    <polyline points="591.0,507.375 582.25,511.625 574.5,514.875 567.5,517.25 558.375,519.5 550.5,520.75 541.75,521.375 531.0,521.125 526.5,520.75"/>
    <polyline points="525.125,520.625 510.25,519.375 499.125,518.875"/>
    <line x1="498.25" x2="471.625" y1="518.875" y2="518.875"/>
    <polyline points="470.25,518.75 459.0,518.0 453.25,517.25 444.375,515.75 436.5,513.875 423.875,510.125 416.5,507.375 408.125,503.75"/>
    <polyline points="403.5,501.625 387.625,493.375 375.125,485.75 368.125,481.25 352.625,470.25 334.875,456.25 325.375,448.125 315.375,439.125 305.125,429.375 294.75,418.875 284.5,407.875 275.0,396.5 266.375,385.5 259.375,375.125 254.5,366.125 252.125,359.0 252.75,354.5 256.5,353.125 263.25,354.875 272.5,359.75 283.875,367.375"/>
    <polyline points="296.625,377.125 310.125,388.5 323.875,400.75 350.0,425.625 400.625,475.375 408.25,482.375 421.5,493.75 432.625,502.125 437.5,505.375 446.375,510.375 450.375,512.25 457.625,515.0 464.25,516.875 473.125,518.25"/>
    <polyline points="475.875,518.5 486.125,518.625 495.25,518.0 509.625,516.125 528.25,512.75"/>
    <polyline points="530.0,512.375 556.0,507.625 562.0,507.125 564.625,507.25 566.75,507.75 568.0,508.875"/>
    <polyline points="568.25,509.75 567.625,512.25 566.625,514.0 564.875,516.25 559.0,522.5 540.25,538.375 530.125,546.125 501.25,567.0 481.5,580.5 457.625,596.125 429.5,613.75 397.25,632.625 362.125,651.625 326.125,668.5 292.0,681.0 263.375,686.625 242.625,683.875 231.0,672.75 228.0,654.625 231.5,631.75 239.25,606.75"/>
    <polyline points="248.875,581.5 275.75,515.625 287.375,482.875 294.625,458.5 299.375,440.75 301.625,434.125 303.875,428.875 306.5,425.0 309.5,422.25 312.875,420.625 316.875,420.125 321.375,420.625 326.25,422.0 331.625,424.125 343.125,430.375 355.5,438.125 373.875,451.0"/>
    <polyline points="379.75,455.25 406.375,473.75 423.875,484.625 435.0,490.625 444.5,495.25 455.125,499.625 467.625,503.875"/>
    <polyline points="469.375,504.375 488.625,509.625 491.75,510.75"/>
    <polyline points="492.125,510.875 493.25,511.5 493.75,512.5 493.25,513.0 491.75,513.625"/>
    <polyline points="491.375,513.75 485.0,515.0 476.5,515.625"/>
    <polyline points="475.5,515.75 466.5,515.75 455.875,515.0 444.0,513.125 434.0,510.625"/>
    <polyline points="431.25,509.875 421.75,506.75 410.5,502.25 391.875,493.0 374.375,482.5 367.75,478.125 353.125,467.625 336.75,454.625 318.875,438.875 309.625,430.0 300.375,420.625 291.375,410.875 282.875,401.0 275.5,391.375"/>
    <polyline points="269.375,382.375 265.0,374.5 262.875,368.375 263.25,364.375 266.125,362.75 271.625,363.875 279.375,367.625 288.875,373.625 299.875,381.625 311.625,391.125 323.875,401.625 347.75,423.5 388.5,462.125 411.625,482.625 424.125,492.5 429.75,496.5 434.875,499.875 444.25,505.25"/>
    <polyline points="448.5,507.375 456.25,510.5 463.25,512.625 472.625,514.5 481.0,515.375 488.5,515.5 495.5,515.25 514.125,513.0"/>
    <polyline points="516.125,512.625 531.25,509.75 540.75,507.5 550.625,504.875 566.0,500.25"/>
    <polyline points="568.375,499.5 590.625,491.75 597.375,489.0 613.375,482.125 628.625,474.75 641.375,468.0 657.125,459.125 677.125,447.0 703.0,430.25"/>
    <polyline points="718.75,419.625 736.625,407.25 756.625,392.875 802.0,359.0 825.0,340.875 845.375,324.25 859.875,312.0 864.75,307.25 857.625,312.75 838.25,329.5 809.375,356.25 775.25,389.375 740.75,425.25 709.125,460.5 682.5,493.125 661.375,521.875 645.75,546.5 634.875,567.375 628.0,584.625 624.375,598.625 623.25,609.75 624.0,618.375 625.875,624.625 628.5,628.625 631.375,630.625"/>
    <polyline points="634.125,630.75 636.5,629.25 638.25,626.25 639.375,622.0 639.625,616.625 639.125,610.5 637.875,603.875 636.0,596.875 633.625,589.625 627.75,575.625 624.375,569.0 617.25,556.875 613.625,551.5 606.5,542.125 599.625,534.375 593.25,528.125 584.75,521.25 579.625,517.875"/>
    <polyline points="577.25,516.5 570.875,513.25 563.875,510.5 558.25,508.875 547.5,506.375"/>
    <polyline points="547.125,506.125 545.875,505.5 545.875,504.625 547.0,503.625 550.5,501.875"/>
    <polyline points="551.125,501.625 566.875,495.25 578.875,490.0"/>
    <polyline points="580.625,489.25 595.375,482.5 618.0,471.0 655.625,449.625"/>
    <polyline points="659.5,447.25 678.625,436.25 681.5,435.125 681.875,435.25 680.625,437.125 676.375,441.25 655.375,459.0 633.375,476.0 617.125,487.375"/>
    <polyline points="612.0,490.75 602.375,496.75 593.625,501.625 581.875,507.25 575.0,509.875 568.75,512.0 558.125,514.625 547.5,516.0 539.0,516.25"/>
    <polyline points="537.625,516.25 531.125,516.125 515.25,515.0"/>
    <line x1="514.625" x2="503.625" y1="514.875" y2="514.875"/>
    <polyline points="422.125,491.625 433.125,499.625 442.625,505.25 451.0,509.375 458.5,512.125 465.25,514.0 477.125,515.875 489.875,516.125 496.75,515.75 503.25,515.0 490.5,516.0"/>
    <polyline points="489.875,516.0 479.375,516.75 465.25,516.625"/>
    <polyline points="463.75,516.5 457.25,516.0 447.5,514.625 435.375,511.875 429.625,510.125 419.625,506.75 411.875,503.625 403.25,499.75 393.375,494.625"/>
    <polyline points="387.875,491.625 369.125,479.875 354.375,469.5 346.375,463.375 328.75,448.875 309.875,431.5 300.25,421.875 281.875,401.5 273.875,391.25 267.25,381.75 262.375,373.25 259.75,366.5 259.625,361.875 262.25,359.75 267.625,360.5 275.375,364.125 285.25,370.125 296.5,378.375 308.75,388.25 321.375,399.25"/>
    <polyline points="480.625,515.5 472.25,514.625 466.0,513.5 459.375,511.75 451.875,509.0 447.875,507.25 439.125,502.625 434.25,499.625 423.375,492.125 410.75,482.0 395.75,468.875 334.0,410.625 346.25,422.0 396.625,470.125 404.5,477.25 418.125,488.875 429.75,497.625 439.75,504.0 444.25,506.5 456.125,511.75 466.375,514.625 475.375,516.0 480.75,516.375"/>
    <polyline points="483.375,516.375 493.0,516.25 503.875,515.25 517.75,513.125 534.75,509.625"/>
    <polyline points="536.625,509.25 562.75,502.5 592.375,493.625"/>
    <polyline points="595.25,492.625 611.125,487.375 622.25,483.25 635.5,477.875 646.0,473.125 652.125,470.25 675.25,458.0 697.375,444.75 711.625,435.75 729.0,424.25 750.125,409.625 775.875,391.25 807.25,367.875 844.5,339.25"/>
    <polyline points="886.5,305.5 928.875,269.75 963.125,238.5 976.625,222.875 959.125,233.75 911.25,274.125 846.375,335.875 781.25,405.5 727.875,472.75 690.625,532.375 669.375,583.125 662.25,625.625 666.25,660.75 678.375,689.0 695.75,709.875 715.125,722.75 733.5,726.75 748.5,722.0 758.5,708.875 763.0,689.125 762.75,665.0 758.875,638.625 752.75,612.25 745.375,587.125 737.875,564.25 730.625,544.0"/>
    <polyline points="724.0,526.5 712.75,499.375 707.875,489.375 703.375,481.375 699.125,475.25 695.0,470.625 690.875,467.5 686.5,465.5 682.0,464.625 677.25,464.75 672.375,465.5 662.0,468.875 645.625,476.625 619.0,490.875 600.5,500.0"/>
    <polyline points="596.375,501.875 585.0,506.5 572.25,510.5 566.75,511.75 559.375,513.125 553.125,513.875 544.5,514.375 537.75,514.25"/>
    <polyline points="536.625,514.25 529.75,513.875 520.0,512.875"/>
    <polyline points="519.625,512.75 514.375,511.875 515.25,511.375 519.5,510.375"/>
    <line x1="519.75" x2="526.875" y1="510.375" y2="508.5"/>
    <line x1="527.25" x2="541.875" y1="508.375" y2="504.125"/>
    <polyline points="542.625,503.875 562.5,496.875 573.875,492.25"/>
    <polyline points="551.25,501.875 588.5,485.875 605.0,477.875 622.25,468.875 657.625,448.5"/>
    <polyline points="662.5,445.5 688.125,430.0 692.875,427.5 694.0,427.125 694.25,427.5 691.75,430.5 685.375,436.5 656.875,460.75 636.75,476.75 617.625,490.875"/>
    <polyline points="611.75,494.875 600.75,501.875 591.0,507.375 578.25,513.375 567.5,517.25 558.375,519.5 550.5,520.75 539.75,521.375 532.625,521.125"/>
    <polyline points="531.0,521.125 512.25,519.5 502.75,519.0"/>
    <line x1="501.875" x2="477.0" y1="519.0" y2="518.875"/>
    <polyline points="475.75,518.875 468.875,518.75 459.125,518.0 449.0,516.625 439.25,514.625 424.0,510.125"/>
    <polyline points="420.5,508.875 408.25,503.875 393.5,496.5 381.75,489.875 368.25,481.375 360.875,476.25 344.25,463.875 325.625,448.375 315.625,439.375 305.375,429.625 295.0,419.125 284.875,408.125 275.25,396.875 266.625,385.75 259.625,375.375 254.625,366.375 252.25,359.25 252.75,354.625"/>
    <polyline points="256.375,353.125 263.0,354.75 272.25,359.5 283.5,367.125 296.25,376.875 309.75,388.125 323.375,400.375 349.625,425.25 382.75,458.125 400.375,475.125 408.0,482.25 421.375,493.625 432.5,502.0 442.0,508.0 450.25,512.25 461.0,516.0"/>
    <polyline points="464.25,516.875 475.875,518.5 486.0,518.625 495.125,518.0 503.625,517.0 520.875,514.125"/>
    <polyline points="522.75,513.75 551.0,508.375 559.125,507.25 564.625,507.25"/>
    <polyline points="565.75,507.5 566.75,507.75 568.0,508.875 568.25,510.75 566.75,513.875 562.625,518.875 559.25,522.25 548.625,531.625 518.125,555.125 502.25,566.375 482.625,579.75 459.0,595.375 431.0,612.875 399.0,631.75 363.875,650.75 327.75,667.875 293.5,680.625 264.375,686.625 243.25,684.375"/>
    <polyline points="231.25,673.5 227.75,655.625 231.125,633.0 238.625,608.0 248.25,582.625 275.25,516.375 281.75,498.75 287.0,483.5 299.125,441.0 301.375,434.25 303.625,429.0 306.125,424.875 309.125,422.125 312.625,420.5 316.5,420.0 321.0,420.5 325.875,421.75 331.25,424.0 336.875,426.75 349.0,433.875"/>
    <polyline points="355.125,438.0 396.25,466.875 415.5,479.625 427.75,486.75 441.5,493.875 452.75,498.75 459.875,501.375"/>
    <polyline points="462.0,502.0 472.625,505.375 490.375,510.125"/>
    <polyline points="490.875,510.375 493.0,511.125 494.0,511.875 494.0,512.75 493.25,513.25"/>
    <polyline points="493.0,513.25 489.5,514.375 481.125,515.375"/>
    <polyline points="480.375,515.5 472.875,515.875 462.875,515.625 454.75,514.875 447.0,513.625"/>
    <polyline points="444.75,513.25 435.0,511.0 426.125,508.25 415.75,504.5 403.375,499.0 388.25,491.0 370.0,479.625 355.625,469.5 339.5,456.875 330.75,449.625 321.75,441.5"/>
    <polyline points="312.5,432.875 294.125,414.0 285.5,404.125 277.625,394.375 271.0,385.125 266.125,376.875 263.25,370.0 262.75,365.25 264.875,362.875 269.5,363.125 276.5,366.0 285.5,371.375 296.125,378.75 307.75,387.875 319.875,398.125 332.0,409.0 355.5,430.75 385.75,459.5 402.25,474.5 416.125,486.375"/>
    <polyline points="422.375,491.25 428.0,495.375 438.25,502.0 442.875,504.625 451.25,508.625 455.0,510.125 462.125,512.375 471.625,514.5 480.125,515.375 490.125,515.5 503.5,514.5"/>
    <polyline points="505.5,514.25 515.5,512.875 532.5,509.5 554.125,503.875"/>
    <polyline points="556.25,503.25 572.625,498.25 580.625,495.5 592.75,491.0 603.375,486.625 616.25,480.875 632.375,473.0 645.875,465.75"/>
    <polyline points="653.75,461.25 684.25,442.75 712.375,424.25 748.75,398.75 770.25,383.125 793.375,365.75 817.125,347.375 839.375,329.625 857.0,314.875 866.375,306.375 864.25,307.5 849.375,320.0 823.25,343.5 790.125,375.125 754.75,411.0 721.25,447.375 692.25,481.625 668.875,512.25 651.25,538.875 638.625,561.375 630.625,580.125 626.125,595.5"/>
    <polyline points="624.375,607.875 624.75,617.5 626.625,624.625 629.25,629.375 632.375,632.0 635.375,632.75 638.0,631.625 640.125,628.875 641.5,624.75 642.0,619.5 641.75,613.25 640.625,606.5 639.0,599.25 633.875,584.5 630.75,577.375 623.75,563.875 616.375,552.125 612.75,546.875 605.625,538.0 598.875,530.75 595.625,527.75"/>
    <polyline points="592.625,525.0 584.25,518.75 575.0,513.375 569.25,510.875 562.875,508.75 552.0,506.25"/>
    <polyline points="551.375,506.125 549.125,505.375 548.0,504.625 548.0,504.0 548.5,503.5 550.75,502.125"/>
    <polyline points="577.375,490.75 590.625,484.75 605.25,477.625 627.125,466.0 645.75,455.375"/>
    <polyline points="649.625,453.125 676.125,437.75 679.25,436.375 679.875,436.375 679.125,437.875 675.5,441.5 661.0,454.0 645.875,466.0 629.75,478.125"/>
    <polyline points="624.5,481.875 609.375,491.875 600.125,497.375 591.625,502.0 580.5,507.125 570.875,510.625 560.0,513.5 551.25,514.875 544.0,515.375"/>
    <polyline points="542.375,515.5 534.125,515.5 518.625,514.375"/>
    <line x1="518.125" x2="508.625" y1="514.375" y2="513.875"/>
    <line x1="508.25" x2="500.25" y1="514.0" y2="514.625"/>
    <line x1="499.875" x2="486.5" y1="514.75" y2="516.125"/>
    <polyline points="485.75,516.125 478.0,516.625 467.625,516.625 456.875,515.75"/>
    <polyline points="455.125,515.625 442.625,513.5 434.875,511.625 422.5,507.75 411.25,503.25 397.75,496.875 387.125,491.0 374.875,483.625 361.0,474.125"/>
    <polyline points="353.375,468.625 336.625,455.375 318.375,439.375 299.25,420.625 290.0,410.5 281.25,400.25 273.375,390.25 267.0,380.875 262.375,372.625 260.125,366.125 260.375,361.875 263.375,360.25 269.0,361.25 277.0,365.125 286.875,371.5 298.25,379.875 310.5,389.875 323.125,400.75 335.625,412.125 347.75,423.375 379.875,454.25"/>
    <polyline points="389.125,463.0 405.25,477.75 424.75,493.875 435.5,501.25 444.75,506.5 452.875,510.25 456.625,511.625 466.75,514.5 475.625,515.875 481.125,516.25 493.25,516.0"/>
    <polyline points="495.5,515.875 510.25,514.25 519.875,512.625 529.375,510.75 544.625,507.125"/>
    <polyline points="546.5,506.625 556.75,504.0 577.25,498.0 596.75,491.625 610.25,486.625"/>
    <polyline points="614.0,485.25 637.125,475.25 656.75,465.25 674.375,455.25 698.125,440.625 713.375,430.75 731.5,418.5 753.125,403.375 778.875,384.625 809.0,362.0 843.0,335.625 878.75,306.625 911.625,278.5 934.25,257.625 937.75,251.75 917.0,267.25 875.0,304.125 821.375,355.75"/>
    <polyline points="767.75,413.0 722.125,468.5 688.0,518.125 665.875,560.875 654.25,596.875 651.375,626.625 655.25,650.875 663.875,669.75 675.375,683.25 687.875,691.25 699.75,693.5 709.625,690.25 716.75,681.875 720.75,669.125 721.5,653.25 719.75,635.5 716.0,617.0 710.875,598.75 705.125,581.375 699.0,565.25 687.125,538.0 681.625,527.0 676.5,517.5 667.375,502.75"/>
    <polyline points="663.375,497.25 655.875,489.25 652.375,486.5 649.0,484.5 645.75,483.0 642.625,482.0 636.25,481.25 630.125,481.625 621.125,483.625 612.5,486.375 590.125,494.625"/>
    <polyline points="588.0,495.25 584.125,496.625 572.75,499.75 564.25,501.25 559.5,501.375"/>
    <polyline points="559.25,501.375 558.25,500.875 558.875,499.75 562.75,497.5 565.625,496.25"/>
    <polyline points="566.375,495.875 586.375,486.75 604.875,477.625"/>
    <polyline points="607.375,476.375 627.0,466.0 665.125,444.5 668.125,443.125 669.375,443.125 669.25,443.5"/>
    <polyline points="668.625,444.375 660.875,451.5 650.5,459.875 638.0,469.5 624.625,479.125 615.875,484.875 603.375,492.5 592.25,498.375 579.375,504.0"/>
    <polyline points="576.5,505.125 566.25,508.25 556.125,510.375 545.625,511.375 536.75,511.25"/>
    <polyline points="536.0,511.25 530.5,510.625 528.875,510.125 528.375,509.625 528.875,508.875 529.75,508.375 534.625,506.625"/>
    <polyline points="555.25,499.5 561.625,497.25 576.0,491.375 584.125,487.875 601.75,479.5"/>
    <polyline points="604.75,478.0 621.75,469.125 642.375,457.5 688.5,430.0 691.875,428.5 692.25,428.75 691.625,429.625"/>
    <polyline points="690.125,431.375 684.375,436.875 675.25,444.875 657.5,459.75 644.5,470.25 631.5,480.25 619.125,489.125 602.375,500.125 588.125,508.125 576.0,513.5 565.75,516.875"/>
    <polyline points="562.75,517.75 552.0,519.75 541.125,520.5 532.375,520.375 518.125,519.25"/>
    <polyline points="517.0,519.125 505.75,518.375 494.875,518.25"/>
    <polyline points="494.0,518.25 474.625,518.5 466.375,518.125"/>
    <polyline points="464.75,518.0 458.0,517.5 447.875,516.0 443.125,515.125 432.375,512.375 418.875,507.875 410.875,504.625 401.75,500.375 391.375,495.0"/>
    <polyline points="385.625,491.75 372.875,483.875 358.125,473.875 341.375,461.125 322.625,445.25 312.75,436.125 302.5,426.25 292.375,415.75 282.5,404.75 273.375,393.75 265.375,383.125 259.125,373.25 255.125,365.0 253.625,358.75 255.25,355.25 259.75,354.75 267.125,357.375 276.875,362.875 288.375,371.0 301.25,381.125 314.625,392.625 328.0,404.75"/>
    <polyline points="341.0,417.0 385.5,460.5 402.625,476.75 416.75,489.375 428.625,498.75 438.625,505.5 447.375,510.25 455.125,513.5 458.625,514.75 468.25,517.0 476.875,518.0 482.125,518.125"/>
    <polyline points="484.5,518.125 491.625,517.875 502.5,516.75 521.875,513.625 534.625,511.0"/>
    <polyline points="536.5,510.625 554.625,506.875 565.0,505.25 569.625,504.875 572.25,505.125 574.25,505.75 575.375,507.125"/>
    <polyline points="575.375,508.25 573.875,511.5 569.625,516.75 566.0,520.375 554.25,530.75 533.875,546.75 500.75,570.875 477.75,586.625 449.625,605.125 416.25,625.75 378.25,647.75 337.375,669.125 296.875,686.875 260.5,697.875 232.625,699.25 215.625,690.25 209.25,671.875 211.75,646.875 219.75,618.5 230.25,589.375 241.125,561.375"/>
    <polyline points="251.0,535.75 259.125,512.625 265.5,492.25 270.25,474.5 273.75,459.125 280.125,425.125 282.25,417.625 284.875,411.875 288.25,408.0 292.375,405.75 297.375,405.125 303.125,406.0 309.75,408.25 317.0,411.75 324.625,416.125 340.875,426.875 357.125,438.875 393.625,466.75"/>
    <polyline points="399.875,471.375 411.5,479.375 426.75,488.875 439.625,495.625 447.125,499.0 454.0,501.625 465.75,505.25 475.625,507.375 486.0,508.75"/>
    <polyline points="487.75,509.0 497.5,509.625 506.75,509.625 513.625,509.25 519.75,508.5"/>
    <polyline points="520.75,508.375 529.75,506.875 538.0,504.875 547.375,502.125"/>
    <polyline points="548.625,501.75 558.5,498.375 574.75,492.125 597.25,482.0"/>
    <polyline points="600.375,480.5 618.125,471.375 640.625,458.875 673.625,439.0 698.875,423.125 704.625,419.875 706.0,419.375 706.125,419.875"/>
    <polyline points="705.0,421.25 698.875,427.375 688.0,437.125 658.25,462.75 634.625,482.0 613.5,497.875 595.625,509.5 585.5,515.0 581.0,517.25 572.625,520.75 562.0,524.0"/>
    <polyline points="558.75,524.75 550.125,526.125 545.125,526.5 538.375,526.5 530.5,526.125 510.625,524.0"/>
    <polyline points="509.25,523.875 499.25,523.0 477.375,522.125"/>
    <polyline points="475.875,522.125 460.75,521.125 454.625,520.375 442.625,518.25 430.75,515.25 415.875,510.125"/>
    <polyline points="411.625,508.375 396.75,501.5 385.0,495.0 371.25,486.625 355.25,475.75 346.375,469.125 326.5,453.125 315.75,443.625 292.75,421.625 281.125,409.25 269.75,396.375 259.375,383.5 250.5,371.0 244.0,359.75 240.25,350.625 240.0,344.5 243.5,341.875 250.625,343.125 261.0,348.375"/>
    <polyline points="273.875,356.875 288.5,368.25 303.875,381.5 319.25,395.625 348.25,424.25 401.625,479.5 416.0,493.5 422.25,499.0 432.875,507.625 437.5,510.875 445.75,515.75 453.0,519.0 456.25,520.125 462.375,521.75 467.875,522.625"/>
    <polyline points="470.625,522.75 475.625,523.0 487.0,522.375 519.625,517.875"/>
    <polyline points="521.125,517.625 528.125,517.0 533.875,517.25 536.125,518.125 537.0,519.25 537.125,519.875 536.0,523.0 531.75,528.25 526.25,533.375 522.375,536.5"/>
    <polyline points="517.625,540.25 505.125,549.625 487.5,561.75 476.5,569.0 463.75,576.875 433.5,594.625 416.25,603.875 398.0,612.875 379.625,621.0 361.625,627.625 345.125,632.0 330.875,633.75 319.625,632.5 311.875,628.0 307.5,620.75 306.375,611.25 308.0,600.125 311.625,588.0 316.75,575.5 322.75,563.375 329.125,551.75 341.875,531.375"/>
    <polyline points="347.875,522.625 353.5,515.0 363.5,502.625 371.875,493.625 375.5,490.125 381.75,484.875 387.125,481.375 391.5,479.25 397.0,477.75 400.0,477.5 403.75,477.75 408.125,479.0"/>
    <polyline points="408.75,479.25 410.75,480.375 411.125,480.875 411.0,481.125 409.875,481.125 406.0,480.0 401.0,477.75"/>
    <polyline points="399.75,477.125 389.375,471.375 376.625,462.75 367.25,455.25 362.375,450.875 358.625,446.875"/>
    <polyline points="357.625,445.625 356.0,443.0 355.875,442.375 356.25,441.75 356.875,441.625 358.75,442.125 361.5,443.375 366.875,446.5 378.625,454.125 393.875,464.625"/>
    <polyline points="396.375,466.375 407.75,474.25 427.125,487.0 433.0,491.75"/>
    <polyline points="433.375,492.125 433.875,493.125 433.75,493.875 433.25,494.25 430.5,494.375 427.75,494.0 421.5,492.375 414.75,490.0"/>
    <polyline points="412.75,489.125 403.625,485.125 392.5,479.125 379.25,470.875 368.0,463.0 360.125,456.875 348.125,446.625 340.5,439.375 331.0,429.0"/>
    <polyline points="328.625,425.875 326.625,423.125 324.625,418.875 324.5,417.375 325.125,416.625 326.375,416.375 328.375,416.875 334.25,419.5 346.875,427.625 356.75,434.75 393.0,462.125 411.0,474.875"/>
    <polyline points="415.125,477.625 426.25,484.625 441.5,493.0 457.375,500.125 471.5,505.5"/>
    <polyline points="472.5,505.875 475.75,507.125 479.375,509.0 480.625,510.375 480.5,511.0 479.75,511.625"/>
    <polyline points="479.5,511.75 474.25,513.125 469.25,513.5 460.125,513.375"/>
    <polyline points="458.75,513.25 454.25,512.875 445.0,511.5 433.375,508.75 424.75,506.0 410.875,500.625 398.125,494.5 388.125,489.0"/>
    <polyline points="382.625,485.75 376.75,482.125 364.0,473.5 341.875,456.625 325.375,442.375 308.25,426.0 292.0,408.25 284.75,399.375 278.625,391.0 274.0,383.5 271.125,377.125 270.25,372.625 271.625,370.0 275.25,369.625 281.0,371.5 288.75,375.75 297.875,381.875 308.125,389.5 319.125,398.375 330.375,408.0"/>
    <polyline points="341.5,418.0 381.75,455.0 398.25,469.75 405.625,476.125 418.75,486.625 424.625,490.875 435.125,497.875 439.875,500.625 448.625,505.0 456.375,508.125 463.375,510.375 466.625,511.125 472.75,512.375 481.125,513.375"/>
    <polyline points="483.75,513.5 493.375,513.625 506.125,512.75 521.25,510.5 534.125,507.75"/>
    <polyline points="536.0,507.25 551.5,503.125 567.25,498.0 586.875,490.375 597.375,485.875"/>
    <polyline points="601.25,484.0 619.75,475.0 637.75,465.25 661.125,451.5 680.75,439.25 704.25,423.75 731.375,405.0 760.125,384.25 797.375,356.375 775.75,376.5"/>
    <polyline points="758.625,392.375 718.0,431.75 697.375,452.5 661.0,490.75 633.25,521.625 622.625,534.0 596.25,566.0 586.75,576.5 582.75,579.25 579.5,579.875 578.125,579.5 575.375,577.75 571.0,573.625"/>
    <polyline points="569.5,571.875 561.125,563.0 555.625,557.875 546.125,550.5 534.875,543.75 524.125,539.125"/>
    <polyline points="522.375,538.625 515.75,536.5 509.25,535.0 496.625,533.125 481.875,532.125"/>
    <polyline points="480.25,532.0 458.375,530.875 445.625,529.375 436.375,527.625 425.625,525.0 412.625,520.75"/>
    <polyline points="407.625,518.75 396.375,513.875 383.0,507.0 375.25,502.625 357.5,491.375 347.25,484.125 335.875,475.75 323.25,465.75 309.375,454.125 294.25,440.625 278.0,425.0 261.0,407.5 243.5,388.125 226.625,367.625 211.5,346.875 199.75,327.5 193.0,311.375 192.625,300.75 199.5,297.25 213.125,301.375 232.0,313.0 254.375,330.375 277.875,351.625"/>
    <polyline points="301.0,374.625 322.375,397.75 341.25,419.625 357.625,439.75 371.375,457.75 382.875,473.375 392.25,486.75 406.125,507.75 421.375,532.0 427.5,540.25 430.5,542.875 433.375,544.0 436.25,544.125 439.25,543.375 442.375,542.125"/>
    <polyline points="444.125,541.5 459.0,534.75 469.0,531.0 478.875,527.875 491.875,524.625"/>
    <polyline points="493.625,524.25 508.25,521.75 516.375,521.0 521.625,521.375 523.25,521.875 524.625,523.125"/>
    <polyline points="524.75,523.75 524.125,526.375 520.875,530.5 516.875,534.375 506.875,542.625 496.625,550.0 482.75,559.375 464.875,570.5 454.375,576.625 430.5,589.75 417.375,596.125 404.0,602.125 390.625,607.5 377.875,611.625 366.0,614.375"/>
    <polyline points="355.75,615.375 347.375,614.375 341.25,611.625 337.25,607.0 335.5,600.75 335.625,593.375 337.5,585.125 340.75,576.375 344.875,567.625 349.625,559.0 354.875,550.625 360.25,543.0 371.125,529.5 381.25,518.625 385.875,514.25 390.375,510.5 394.5,507.25 402.125,502.125 408.75,498.625 417.125,495.625"/>
    <polyline points="419.5,495.0 425.625,494.0 433.0,494.25 437.5,495.375 439.5,496.5 439.625,497.125 438.5,497.625"/>
    <polyline points="438.125,497.625 435.375,497.625 431.375,497.0 425.75,495.625 420.5,493.875 409.375,489.5 404.0,487.0 394.875,482.125"/>
    <polyline points="391.5,480.25 380.5,473.5 372.375,468.0 359.125,458.125 345.375,446.5 332.25,433.75 324.875,425.5 319.375,418.25 317.625,415.25 316.625,412.875 316.375,411.0 317.0,410.0 318.5,409.625 320.875,410.125 324.0,411.375"/>
    <polyline points="327.875,413.5 337.375,419.5 348.5,427.625 389.875,459.75 410.25,474.625 431.0,487.75 447.25,496.0"/>
    <polyline points="450.0,497.25 455.125,499.375 467.875,503.875 488.125,509.25"/>
    <polyline points="488.875,509.5 494.25,511.25 495.375,512.0 495.5,512.625 494.5,513.375 492.625,514.0 487.875,514.875"/>
    <polyline points="487.375,515.0 474.0,516.0 464.125,515.75"/>
    <polyline points="462.75,515.75 454.625,515.0 444.625,513.375 434.625,511.0 428.875,509.25 419.0,505.875 411.375,502.75 402.75,498.75 392.875,493.625"/>
    <polyline points="387.5,490.625 375.5,483.375 354.375,468.75 338.125,455.875 329.25,448.375 310.875,431.5 301.625,422.125 292.5,412.25 283.875,402.375 276.125,392.625 269.75,383.375 265.0,375.25 262.5,368.75 262.5,364.375 265.0,362.375 270.0,363.0 277.5,366.375 286.875,372.125 297.75,379.875 321.75,399.75"/>
    <polyline points="483.25,515.625 490.625,515.625 505.875,514.375 521.5,511.875 534.75,509.0"/>
    <polyline points="536.625,508.625 548.375,505.625 565.625,500.625 580.875,495.625 596.25,489.875"/>
    <polyline points="599.75,488.375 607.5,485.25 621.0,479.125 645.25,466.625 671.75,451.25 696.0,435.875 710.875,426.0 747.375,400.5 769.25,384.625 793.125,366.75 818.0,347.5 841.875,328.375 861.625,312.0 873.125,301.625 872.75,301.125 858.625,312.75"/>
    <polyline points="832.0,336.375 797.5,369.25 760.25,406.875 725.0,445.25 694.75,481.375 670.5,513.75 652.5,541.75 640.0,565.375 632.375,585.125 628.5,601.25 627.75,614.125 629.0,624.125 631.75,631.375 635.375,636.125 639.25,638.5 642.875,638.75 646.0,636.875 648.375,633.25 649.75,628.125 650.125,621.875 649.625,614.5 648.25,606.625 646.125,598.375 643.375,590.125 636.625,574.0"/>
    <polyline points="632.875,566.625 625.125,553.125 617.25,541.875 610.0,532.875 603.125,525.625 594.0,517.875 586.25,512.75 579.625,509.375 575.75,507.875 570.875,506.25 566.75,505.25"/>
    <polyline points="565.5,505.0 556.125,503.0 555.0,502.125 555.5,501.125"/>
    <polyline points="555.75,501.0 556.625,500.25 560.25,498.375 575.125,491.75"/>
    <polyline points="576.5,491.125 584.5,487.625 605.75,477.25 619.75,470.0 635.875,461.0"/>
    <polyline points="639.25,459.125 667.375,443.0 671.0,441.25 672.875,440.75 673.0,441.125 672.5,441.875 664.875,449.0 654.0,458.0 640.625,468.375"/>
    <polyline points="635.875,471.875 617.0,485.125 603.75,493.25 592.0,499.625 581.625,504.25 570.0,508.5 560.375,510.875 552.5,512.125"/>
    <polyline points="550.75,512.25 547.625,512.625 538.625,512.875 527.125,512.0"/>
    <polyline points="526.625,512.0 523.5,511.375 522.5,510.625 523.75,509.75 527.25,508.625"/>
    <line x1="527.5" x2="540.5" y1="508.5" y2="504.5"/>
    <polyline points="541.25,504.25 552.375,500.625 570.125,493.875"/>
    <polyline points="571.875,493.125 590.625,484.875 607.5,476.625 625.375,467.125 647.0,454.875"/>
    <polyline points="651.625,452.125 686.875,430.75 691.875,428.125 693.25,427.625 693.625,427.75 693.125,428.75 689.125,432.875 676.375,444.25 658.25,459.5 631.625,480.5"/>
    <polyline points="625.25,485.25 613.125,493.75 602.125,500.75 587.75,508.875 579.375,512.75 568.5,516.75 559.25,519.125 549.0,520.625 540.5,521.125 536.75,521.0"/>
    <line x1="535.0" x2="505.375" y1="521.0" y2="518.875"/>
    <polyline points="504.5,518.875 497.375,518.625 480.875,518.75"/>
    <polyline points="479.75,518.75 469.5,518.625 458.0,517.75 447.875,516.25 435.125,513.375"/>
    <polyline points="432.125,512.5 422.25,509.375 410.5,504.625 396.125,497.875 384.875,491.625 372.0,483.625 357.0,473.375 340.0,460.375 321.0,444.125 300.625,424.75 290.375,414.0 280.5,402.875 271.375,391.75 263.5,381.0"/>
    <polyline points="257.375,371.25 253.625,363.0 252.625,357.125 254.625,354.0 259.625,354.0 267.5,357.125 277.75,363.125 289.75,371.75 302.75,382.25 329.875,406.375 355.375,430.875 387.125,462.375 411.375,485.0 418.0,490.75 429.625,499.875 439.5,506.375 448.125,511.0"/>
    <polyline points="452.0,512.75 462.5,516.25 468.75,517.5 479.75,518.5 484.875,518.5 496.25,517.75 504.625,516.75 514.375,515.125"/>
    <polyline points="516.375,514.875 552.25,507.875 560.5,506.75"/>
    <polyline points="562.125,506.625 566.25,506.5 568.5,507.0 569.375,507.375 570.375,508.75 570.0,511.125 569.125,512.75 565.25,517.625 557.625,525.0 551.75,530.125 534.125,544.125 521.5,553.5 505.75,564.875 486.125,578.5 462.125,594.375 433.625,612.375 400.75,632.0 364.5,651.875"/>
    <polyline points="326.875,670.0 291.125,683.625 260.625,690.375 238.375,688.25 225.875,677.125 222.375,658.375 226.0,634.75 234.0,608.625 243.875,582.25 263.25,534.25 271.125,513.625 277.5,495.5 282.5,479.625 286.375,465.875 293.875,435.875 296.0,429.0 298.375,423.625 301.125,419.75 304.375,417.125 308.25,415.875 312.75,415.75 317.875,416.75 323.375,418.75"/>
    <polyline points="329.375,421.5 335.75,425.0 349.125,433.5 362.625,442.875 399.375,469.5 414.625,479.625 427.75,487.375 435.5,491.5 442.5,494.875 454.5,499.875"/>
    <polyline points="457.125,500.75 462.0,502.5 474.25,505.875 484.75,508.125 494.75,509.75"/>
    <line x1="495.625" x2="506.5" y1="509.875" y2="511.5"/>
    <polyline points="506.75,511.5 509.625,512.0 509.875,512.375 504.875,513.5"/>
    <line x1="504.625" x2="497.625" y1="513.5" y2="514.625"/>
    <line x1="497.25" x2="482.75" y1="514.625" y2="516.25"/>
    <polyline points="481.875,516.25 477.25,516.5 465.375,516.375 454.0,515.375 448.0,514.375"/>
    <polyline points="445.75,514.0 438.625,512.5 427.25,509.25 416.875,505.5 404.5,500.125 389.5,492.25 377.75,485.25 364.25,476.375 348.875,465.125 331.75,451.125 322.625,443.125"/>
    <polyline points="313.25,434.375 294.25,415.125 285.25,405.0 277.0,394.875 270.0,385.125 264.5,376.375 261.25,369.125 260.25,363.875 262.0,361.0 266.5,360.875 273.5,363.375 282.5,368.625 293.25,376.125 305.125,385.5 317.5,395.875 330.125,407.0 354.125,429.5 385.0,459.125 401.75,474.625 415.875,486.75"/>
    <polyline points="505.25,514.75 511.375,514.0 524.75,511.625 539.875,508.25 553.75,504.625"/>
    <polyline points="555.875,504.125 584.375,495.5 599.25,490.25 613.875,484.625 632.5,476.375"/>
    <polyline points="638.125,473.625 659.25,462.5 668.25,457.375 690.5,443.875 721.0,423.875 763.5,394.0 790.25,374.25 820.5,351.125 853.0,325.375 884.625,299.25 909.875,277.0 921.625,265.0 913.875,269.625 885.25,293.375 841.375,333.625 791.625,383.375 744.75,435.375 706.0,484.125 677.375,527.25 658.625,564.25 648.625,595.25"/>
    <polyline points="645.75,620.75 648.25,641.5 654.625,657.5 663.5,669.125 673.25,676.125 682.75,678.625 690.875,676.625 697.125,670.5 700.875,661.0 702.375,648.625 701.5,634.5 699.0,619.375 695.125,604.125 690.25,589.125 685.0,575.0 679.5,562.0 674.0,550.125 668.75,539.75 658.875,522.625 650.25,510.125 642.625,501.25 635.875,495.375"/>
    <polyline points="632.75,493.25 629.75,491.625 624.25,489.375 619.0,488.375 614.125,488.125 609.5,488.375 603.125,489.375 582.25,494.75"/>
    <polyline points="581.0,495.0 572.75,496.625 570.375,496.625 569.875,496.375 570.25,495.5"/>
    <polyline points="570.5,495.25 575.375,492.375 591.875,484.25"/>
    <polyline points="593.375,483.5 616.625,471.75 646.875,455.25"/>
    <polyline points="648.75,454.25 654.25,451.625 655.5,451.625 653.875,453.75 652.625,454.875 642.125,463.375 626.75,474.5 613.375,483.125"/>
    <polyline points="610.125,485.0 600.75,490.375 594.875,493.375 579.625,499.875 569.625,503.0 564.75,504.125 557.125,505.375"/>
    <polyline points="556.0,505.5 553.25,505.75 548.5,505.625 547.0,505.25 546.625,504.875 547.0,504.125"/>
    <polyline points="547.125,503.875 550.75,501.875 562.875,496.875"/>
    <polyline points="564.0,496.375 585.5,487.125 596.625,481.875 613.0,473.5"/>
    <polyline points="616.125,471.875 641.125,458.125 674.125,438.75 678.625,436.375 680.875,435.625 681.0,436.0 680.5,436.875 674.375,442.75"/>
    <polyline points="671.125,445.625 658.0,456.625 642.125,469.25 631.125,477.5 610.25,491.75 596.375,499.875 584.375,505.875 574.0,510.0 562.5,513.375"/>
  </g>
</svg>
