<?xml version="1.0" encoding="utf-8" ?>
<svg xmlns="http://www.w3.org/2000/svg" xmlns:cc="http://creativecommons.org/ns" xmlns:dc="http://purl.org/dc/elements/1.1/" xmlns:ev="http://www.w3.org/2001/xml-events" xmlns:inkscape="http://www.inkscape.org/namespaces/inkscape" xmlns:rdf="http://www.w3.org/1999/02/22-rdf-syntax-ns" xmlns:sodipodi="http://sodipodi.sourceforge.net/DTD/sodipodi-0.dtd" xmlns:xlink="http://www.w3.org/1999/xlink" baseProfile="tiny" height="27.09333333cm" version="1.2" viewBox="0 0 1024.0 1024.0" width="27.09333333cm">
  <metadata>
    <rdf:RDF>
      <cc:Work>
        <dc:format>image/svg+xml</dc:format>
        <dc:source>vpype read './original_svgs/Strange Attractors #178.svg' linemerge linesimplify write './Strange Attractors #178.svg'
</dc:source>
        <dc:date>2024-08-05T01:35:35.093757</dc:date>
      </cc:Work>
    </rdf:RDF>
  </metadata>
  <defs/>
  <g fill="none" id="layer1" inkscape:groupmode="layer" inkscape:label="1" stroke="black" style="display:inline">
    <polyline points="507.875,777.75 511.1544,774.9691 513.9651,771.8976 516.5586,768.3047 518.9259,764.1543 520.8897,759.8293 522.8075,754.506 525.9154,742.4234 528.1905,727.8522 529.5753,710.9213 530.1246,691.3247 529.7544,670.0551 528.4687,647.6783 526.1721,622.8506 523.1117,598.0768 519.2501,572.9597 514.6563,547.9572 509.2386,522.5261 503.0265,496.6041 496.1546,470.8606 488.8141,446.0337 480.9844,422.0566 472.5464,398.6478 463.5095,375.7687 453.9087,353.5581 444.1832,333.0554 434.3012,314.1938 424.5202,297.495 413.8796,281.4649 403.197,267.5372 398.1214,261.7263 393.0219,256.464 388.1888,252.0704 383.6534,248.5551 379.2556,245.8246 375.2585,244.0515 371.6285,243.1743 368.4629,243.1928 365.7617,244.0552 363.305,245.94 361.4217,248.7315 360.1117,252.3585 359.254,258.4182 359.4192,265.7742 360.6246,274.4531 362.8916,284.3636 366.082,294.9503 370.1435,306.1362 374.9651,317.679 380.8637,330.3397 392.387,352.4935 406.1945,376.5173 420.2347,399.1574 453.0772,450.4373 469.196,477.2561 475.8004,489.0216 481.7992,500.5455 487.3418,512.0244 491.8298,522.2916 497.209,536.135 500.9552,547.0167 504.5131,559.5943 507.2219,571.1973 509.7733,586.1499 511.2673,598.7 512.0312,613.5625 511.7078,620.4104 511.3808,617.2974 511.5964,605.7615 513.4328,582.0091 516.3277,558.7404 520.8442,531.6521 525.7388,507.2506 531.7273,482.0999 538.4243,457.7965 545.9043,434.0609 554.0226,411.5369 562.6878,390.6458 571.8565,371.489 580.4539,356.3406 584.9062,349.6968 589.3329,343.914 593.3843,339.4231 597.0995,336.1698 600.3021,334.3076 603.3118,333.7516 604.681,334.1333 605.6073,334.7881 607.0192,337.0636 607.7533,339.8658 608.0644,343.7706 607.8477,348.4595 607.186,353.3353 603.9852,367.2434 598.9396,383.381 594.2738,396.1436 588.4535,410.7244 563.3981,469.3027 553.4325,493.4507 544.6098,516.8358 537.9542,536.6911 531.7927,557.5496 526.8223,576.7025 513.9304,637.9815 511.8108,644.8066 511.0,646.125 510.2419,646.4216 509.5762,645.5449 508.8503,643.0836 508.1737,635.9938 507.9092,625.8233 508.3672,611.8123 509.1565,599.3755 510.5129,585.2183 515.0707,549.7804 520.1841,520.5178 526.4015,491.7915 534.246,461.5712 543.1577,431.9737 552.9122,404.3048 563.3812,378.8802 568.729,367.3794 574.017,356.9483 579.466,347.1189 584.9819,338.1088 590.4508,330.1631 595.6297,323.6764 600.7072,318.4695 605.263,314.98 609.1957,313.208 611.0034,312.9651 612.4884,313.168 613.7867,313.7348 615.1097,314.8716 616.8574,318.1775 617.6212,321.9758 617.7857,326.1112 617.3796,331.8841 616.3508,338.7462 612.8032,353.5689 607.2468,370.511 601.2665,386.1655 593.732,404.1448 566.1675,464.8878 554.957,490.8428 543.1921,520.8946 538.7368,533.768 534.514,547.2021 527.7053,572.2204 522.2178,597.8916 518.1632,621.8779 511.8426,666.8287 509.7415,678.9528 507.6487,686.6177 506.75,688.125 505.6355,688.6325 504.5374,687.4446 503.5767,684.9922 502.0629,676.08 501.2361,663.9063 501.0086,647.2581 501.4543,631.0384 502.5466,613.0703 504.2268,594.0 506.4177,574.8425 509.0074,556.1591 512.125,536.875 515.4509,518.8825 519.2902,500.3866 523.6934,481.2579 528.5498,462.09 533.6064,443.8607 538.9027,426.4733 544.7543,408.8687 550.9795,391.6508 557.5042,375.0537 564.1133,359.6319 570.7529,345.5318 577.6958,332.1292 584.6369,319.9956 591.6343,309.0298 598.5613,299.5096 605.4088,291.5748 612.0699,285.4175 618.0414,281.4711 620.5989,280.3641 623.1727,279.7189 625.5125,279.6727 627.5729,280.1852 629.3645,281.2176 630.8836,282.7475 632.1264,284.7522 633.2036,287.596 634.0773,292.409 634.2424,297.9258 633.748,304.612 632.574,312.301 630.776,320.584 628.402,329.353 621.685,349.2028 614.5321,367.1081 606.3304,385.4244 594.0993,410.6536 564.9263,468.7448 556.6751,486.2072 549.4155,502.6938 541.4599,522.4676 534.9111,540.963 529.6039,558.6279 525.0161,577.1847 522.2796,590.4195 519.9193,603.8023 516.1404,634.1459 514.3978,659.2386 513.4032,695.8872 513.4044,710.0635 513.9426,728.7392 514.6712,742.3885 515.877,755.84 517.3386,766.2264 519.0104,773.3229 520.14,776.3414 521.25,778.375 522.1189,779.3791 523.3984,780.0238 525.1286,779.6796 526.9051,777.6264 528.5438,774.0672 530.4131,768.0449 532.735,755.872 534.4396,738.0167 535.2039,718.7383 535.0455,696.8453 534.0106,673.5109 532.1081,649.4198 529.4444,625.2399 526.0024,600.1118 521.8703,574.8081 517.1579,549.9245 511.7581,524.8791 505.7324,499.9512 499.0944,475.1701 491.9272,450.88 484.3094,427.3715 476.315,404.8854 467.4482,382.1169 458.2097,360.3286 448.6697,339.6724 438.9498,320.4394 429.3402,303.2064 419.9506,288.1381 409.7956,273.746 399.8872,261.6259 394.9368,256.3402 390.2128,251.8299 385.7414,248.1011 381.5486,245.1599 377.6604,243.0123 373.8813,241.5829 370.3453,240.9638 367.2763,241.2082 364.6706,242.2664 362.5246,244.0884 360.8344,246.6246 359.4865,250.2195 358.5274,256.5 358.613,263.5487 359.7503,272.228 361.8679,281.7457 365.1153,292.7156 369.2281,304.2009 374.0884,315.9735 379.9585,328.5984 391.6381,350.9641 406.4015,376.5883 419.5934,397.753 453.8421,450.9138 469.7151,477.1708 476.2303,488.7185 481.9557,499.6803 487.455,510.9841 492.0427,521.381 497.6805,535.8874 501.3817,546.5301 504.8874,559.0843 507.6393,570.7298 510.2799,585.8649 511.649,598.4598 512.3159,609.2371 512.0,617.3657 511.761,614.5058 511.8913,605.223 513.5741,583.8056 517.0626,555.8578 521.2249,531.126 526.1557,506.7275 531.981,482.4812 539.0465,456.7739 546.3225,433.7119 554.2529,411.7581 562.626,391.6356 571.414,373.4043 580.1213,358.1311 584.4588,351.6396 588.5546,346.2471 592.5529,341.7768 596.125,338.625 599.2247,336.8094 602.2103,336.2489 604.258,337.0159 605.8599,339.2485 606.5593,341.927 606.8557,345.4211 606.2158,353.9397 603.9618,364.6617 600.102,378.2685 595.2453,392.4754 588.3429,410.2704 563.5586,468.4727 555.2408,488.8475 547.9062,507.9531 541.0711,527.1389 533.064,552.7555 526.8712,576.3629 514.0049,636.031 512.3766,640.6071 511.5934,641.7945 510.8334,642.1251 510.2726,641.5552 509.7073,639.5857 508.9215,632.7735 508.7624,620.3386 509.2178,607.9416 510.3004,592.5089 511.4803,580.5938 516.1025,546.8367 521.2004,518.4373 528.0279,487.5299 535.1155,460.3898 543.2473,433.5852 552.6036,406.852 562.6523,382.2224 567.8437,370.9121 573.0679,360.4601 578.3415,350.8587 583.456,342.4277 588.831,334.5049 594.1072,327.739 598.7604,322.7605 603.3154,319.0343 607.2752,317.0064 609.1533,316.5954 610.8144,316.6632 612.0229,317.0787 613.25,318.0 614.2777,319.3948 615.0812,321.1893 615.8868,324.771 616.1281,329.2188 615.7981,334.4591 614.9494,340.1579 611.4109,355.2628 605.758,372.9096 600.4814,386.8469 593.8482,402.7818 565.8359,465.2219 554.3987,491.8703 542.8903,521.8941 535.0887,545.7096 528.3118,570.4084 522.6538,595.7023 519.0994,615.5525 513.2156,655.2263 510.2983,671.5889 508.4827,678.1259 507.4398,679.9907 506.4268,680.549 505.5045,679.8096 504.7656,677.9375 503.2621,669.4592 502.4976,657.0024 502.3351,642.616 502.8992,626.2674 504.136,606.8003 505.8141,588.6664 508.0541,569.8794 510.606,552.0948 513.633,533.9487 517.1415,515.4446 521.0804,496.8808 525.2632,479.0517 529.6475,462.0682 534.6012,444.5337 539.8757,427.3719 545.652,410.0508 551.5717,393.6862 557.546,378.5264 563.7693,364.0348 570.316,350.0498 577.0975,336.8345 583.6837,325.2271 590.2073,314.9522 597.0518,305.4751 603.5318,297.8017 609.7384,291.8182 615.4119,287.8584 618.0112,286.6809 620.3984,286.0464 622.5644,285.9353 624.7995,286.4412 626.4547,287.3971 628.0685,289.0942 629.3269,291.3882 630.1317,293.8846 630.8809,298.7412 630.9826,304.4686 630.4583,310.9696 629.3297,318.1468 627.6183,325.9028 625.257,334.5352 618.8759,353.486 612.2253,370.134 603.1993,390.3887 594.1972,409.24 565.4698,467.5425 549.765,502.4461 542.9111,519.5735 536.2762,538.0627 531.3482,554.044 526.7838,571.3051 522.9045,588.8268 520.0126,605.4468 517.4713,624.2255 515.2609,646.7109 512.9338,685.2508 511.0635,767.1443 510.5481,781.3749 509.4844,796.3281 508.258,805.3248 506.796,811.547 504.7322,815.9291 503.7667,817.0332 502.5185,817.75 501.4815,817.75 500.25,817.25 498.0917,815.1801 495.3864,810.7037 493.2819,805.6321 491.0629,798.5159 489.0965,790.6592 485.7106,770.6218 483.2144,748.7399 481.7457,724.2562 481.2196,696.2185 481.766,668.045 483.2311,640.4175 485.5884,611.8242 488.7076,583.4947 492.6643,554.8986 497.5613,525.3621 503.2156,496.0806 509.7104,466.6578 516.6124,439.0464 524.1838,412.0944 532.5695,385.2339 541.4386,359.5271 550.8063,334.9 560.2937,312.2795 570.0837,291.1901 580.4729,271.0534 591.0607,252.6293 602.1044,235.5131 613.231,220.4092 623.8643,208.083 629.2736,202.6737 634.3206,198.1681 639.5996,194.0358 644.6641,190.666 649.4954,188.0422 654.416,186.0318 658.703,184.9045 662.9939,184.4673 666.9239,184.8155 670.4696,185.9284 673.8155,187.946 676.7006,190.8014 679.2527,194.6515 681.2612,199.2504 682.7367,204.5284 683.6899,210.4158 684.1317,216.8427 684.0526,224.1846 683.4733,231.5042 682.4154,239.1498 680.7724,247.6926 678.6691,256.4714 673.0003,275.1326 665.5508,294.6875 658.2167,311.1162 649.1628,329.1248 639.236,347.0538 628.0428,365.6364 616.6338,383.2873 602.9294,403.4903 553.3239,473.577 542.3788,490.48 532.8846,506.6618 523.5543,524.7172 519.8254,533.1889 516.4409,541.8533 511.3265,557.3287 508.5658,567.7214 505.4184,581.6735 504.5648,583.463 503.9815,582.8432 503.2606,580.49 494.8935,540.4815 487.7871,512.1065 480.3593,486.7929 472.915,464.7466 466.8383,448.8706 461.7933,436.6796 456.3481,424.9849 450.9064,414.367 446.1194,406.4265 441.2612,399.9513 439.5744,398.3197 438.1153,397.4682 437.1596,397.3677 436.3178,398.1075 435.875,401.125 436.3177,404.9822 437.9539,411.5656 440.7794,420.9304 448.1919,441.4001 469.074,494.2168 478.5643,520.405 487.8735,549.0334 492.6843,564.9694 498.603,586.238 500.9149,592.8766 501.6964,594.3371 502.2493,594.7411 502.6643,593.7281 502.75,591.25 501.5466,577.8901 498.8678,560.7091 494.5051,538.482 490.1542,520.2068 485.2313,501.5343 481.5124,489.0169 474.9104,468.729 469.1827,452.7464 462.3606,435.7098 456.3172,422.0327 450.488,410.4794 444.3397,399.9449 438.9788,392.6821 436.7232,390.3792 434.9067,389.1886 433.5,389.125 432.619,390.0879 432.2712,393.2049 433.0083,398.9696 434.5523,405.3353 437.2873,414.1268 440.9054,424.3009 447.4073,441.0356 466.3826,487.7242 476.5383,514.9588 483.592,535.7527 489.9192,556.0839 501.5248,598.714 503.3879,604.2482 504.0984,605.6692 504.6048,605.9688 505.1745,604.417 505.25,602.0 504.7544,593.5197 503.7908,585.1055 501.23,567.7379 496.5648,543.0556 492.3354,524.6845 486.7678,503.2775 481.6007,485.601 475.3725,466.3256 468.8488,448.135 461.9513,431.0431 454.9105,415.4341 447.9171,401.8278 441.1002,390.4059 438.1625,386.2703 435.3336,382.9369 432.7086,380.5069 430.6272,379.3608 429.0895,379.4838 428.1799,380.6711 427.8458,382.3193 427.8884,384.9656 429.0626,392.119 431.3535,400.5103 435.098,411.5751 441.9669,429.3611 467.7903,492.0305 476.7048,515.5398 483.4734,535.4402 492.7382,566.328 504.9015,614.81 506.127,618.237 507.2948,619.9063 507.9246,618.4049 508.0833,611.8783 506.5905,593.805 503.9619,575.4993 500.2201,554.5872 495.1007,530.8308 490.0486,510.2769 483.2298,486.2328 476.6775,465.5048 469.2992,445.0625 460.759,423.711 453.7135,408.0831 446.2037,393.5943 438.3312,380.6659 434.8657,375.8834 431.3719,371.7501 428.4016,368.9822 425.9801,367.5673 424.1556,367.4836 423.3945,368.0122 422.8585,368.9394 422.4825,370.6295 422.4249,373.386 423.4425,380.8007 425.8319,389.6527 429.8216,401.4168 441.2197,429.7287 466.4869,489.1551 475.6257,512.4522 483.8965,536.3214 491.2179,561.0582 496.838,582.4568 507.1063,628.8384 509.2107,635.8712 509.905,637.3239 510.6248,637.8725 511.0979,637.1939 511.4668,635.4668 511.7254,628.2236 511.4507,620.9475 510.4183,609.0447 508.0331,589.2531 503.3223,561.0942 498.026,535.7064 491.7667,509.9552 484.9753,485.6406 477.4162,461.7053 469.2668,438.9313 459.8629,415.8353 450.8399,396.1743 442.4229,380.4224 437.5081,372.2661 433.1527,365.7311 428.9588,360.2394 425.3849,356.404 421.8823,353.554 419.1145,352.3089 418.0021,352.276 417.0685,352.6298 416.3122,353.3655 415.6526,354.715 415.261,356.8227 415.2684,359.84 416.631,368.2467 419.3542,378.296 423.9254,391.3561 432.8299,413.2958 455.22,463.1197 467.5993,491.7548 477.9587,518.3686 484.9605,538.9322 490.4011,556.8995 495.7904,577.2881 501.5295,603.5893 510.176,650.4064 512.529,659.97 513.6494,662.8017 514.4989,663.3987 515.0215,662.9585 515.5867,661.2743 516.1713,655.3069 516.2869,645.3296 515.8372,634.5531 512.9344,604.4382 508.574,575.4573 503.1667,546.701 496.5687,518.1311 488.7084,488.4841 480.5184,461.9027 470.2906,432.9072 459.9711,407.1857 449.0076,383.5364 443.3485,372.5911 437.9985,363.0722 432.647,354.4522 427.4594,347.0913 421.8629,340.1951 416.9804,335.2677 412.859,332.3091 411.1962,331.598 409.5867,331.3146 408.4039,331.4514 407.1897,332.0897 406.2617,333.2248 405.6117,334.8325 405.1536,337.8313 405.2028,341.643 406.6044,350.3001 409.896,361.85 415.2646,376.8218 420.5156,389.5156 427.6746,405.4927 457.538,468.389 467.6511,491.0344 477.7484,515.7854 483.6866,532.2491 488.1838,545.9652 494.8617,569.6521 500.1328,593.426 505.2738,622.4573 508.0733,642.9121 511.4227,671.1703 514.0339,689.4653 515.5098,697.6699 516.9636,703.0374 518.238,705.877 519.021,706.6409 519.75,706.75 520.76,705.5423 521.6297,703.0505 522.8301,694.9328 523.4616,683.3714 523.4346,667.0992 522.808,652.49 521.5478,636.5968 519.6177,618.3496 517.2073,600.0453 514.4507,582.4482 510.736,561.6455 506.9766,542.78 502.9399,524.5415 498.7105,507.2686 494.0398,489.9266 488.7661,471.7983 483.1683,453.9212 477.1777,436.1563 471.0926,419.4264 464.8926,403.652 458.1647,387.7825 451.2833,372.7263 444.1688,358.3392 437.0838,345.1976 430.2885,333.7602 422.9984,322.7848 416.0249,313.5535 409.3712,306.0771 403.2328,300.6462 400.4964,298.8341 397.8539,297.5517 395.4483,296.888 393.3858,296.8762 391.6601,297.4848 390.2648,298.6826 389.1939,300.4386 388.4411,302.7215 387.9226,306.5511 387.9837,310.9009 388.6216,316.1954 389.7965,322.0887 394.1174,337.1287 399.8613,352.4749 406.967,368.5393 417.1807,389.6729 454.8397,461.1668 464.4497,480.386 471.3952,495.0364 479.2458,513.3967 486.1245,531.1842 491.9108,548.5571 496.2493,563.7769 501.8042,588.5932 505.1866,609.1557 508.2592,636.6942 509.6732,661.6776 510.1029,680.3139 510.0821,693.3618 509.547,713.006 508.798,723.4869 507.4453,735.3149 506.1808,742.1134 504.625,746.75 503.603,748.422 502.509,749.206 501.6516,749.2066 500.9946,748.8519 499.4538,746.6581 497.8984,742.8121 496.5632,737.6732 493.9957,722.1667 492.3727,702.6397 491.6797,682.9688 491.844,660.9645 492.9274,635.0738 494.6996,611.2348 497.1708,587.5692 500.3323,563.4117 504.1727,538.7626 508.526,514.8906 513.6462,490.3425 519.3073,466.2135 525.615,442.0656 532.2303,419.2179 539.474,396.7834 547.3349,374.7709 555.7003,353.4791 564.4575,333.2068 573.1958,314.8484 582.0783,298.0822 591.2551,282.6349 600.3524,269.0896 609.8302,256.8633 618.8378,247.1884 623.0566,243.3983 627.3542,240.0613 631.4239,237.4378 635.6192,235.3557 639.1607,234.1752 642.738,233.6393 645.962,233.8804 648.8125,234.8762 651.2691,236.6038 653.3538,239.084 655.0729,242.2931 656.3674,246.1083 657.5448,253.0439 657.7422,261.5371 656.9025,271.059 655.1379,281.0498 652.2636,292.7852 648.4488,305.3242 643.7375,318.5172 638.1918,332.1834 627.5926,355.1019 614.9636,379.346 600.3525,405.115 569.6176,457.6134 552.0818,489.5579 545.3323,503.1087 539.042,516.9125 533.7708,529.6765 529.0232,542.5833 524.5395,556.6711 520.6939,571.5749 517.6542,586.2948 515.3095,601.8104 513.5295,621.018 513.1351,632.2924 513.559,649.9583 514.1574,654.125 514.6343,656.0723 514.9375,656.2656 515.6215,652.5715 515.8197,645.8837 514.4258,623.1966 511.159,594.9168 506.9038,568.9265 501.2857,540.7268 494.9587,513.985 487.1726,485.4721 478.8723,458.9942 469.1208,431.8768 459.1799,407.4886 449.2645,386.3743 438.6342,366.7799 433.5194,358.5144 428.6725,351.5285 423.7087,345.3691 419.297,340.836 415.539,337.9705 412.2683,336.7155 410.8802,336.8064 409.8082,337.3357 408.9818,338.2651 408.39,339.5789 407.9344,342.0338 407.9112,345.6683 409.2827,355.06 412.4056,366.3669 417.2515,379.9534 423.1044,394.1389 433.0659,416.4507 456.1731,465.6718 467.5294,491.1602 477.7617,516.4222 487.4701,544.6626 494.809,570.7307 500.0995,594.0974 505.2767,623.1485 511.2406,666.0872 513.6825,681.5038 515.9969,690.9731 517.2074,693.4457 518.2494,694.2303 518.9844,693.5938 519.8412,691.2811 521.098,683.191 521.5195,674.0037 521.3655,659.9024 520.637,645.4592 519.2403,628.5815 517.4091,612.0365 515.0737,595.1249 508.8061,558.7731 501.5011,524.5313 492.2932,488.8896 487.2998,471.7399 482.0078,454.9099 476.4542,438.5713 470.5508,422.5164 464.1604,406.3439 457.7193,391.1834 451.31,377.1841 445.0044,364.4685 438.5659,352.5925 431.9161,341.3583 425.0985,330.9451 418.4795,322.0565 412.5772,315.3722 407.0896,310.5014 402.2247,307.5521 400.1608,306.8768 398.0677,306.7324 396.5462,307.1406 395.0926,308.2135 394.0254,309.8263 393.3174,311.9052 392.8802,315.382 392.9839,319.5879 393.5869,324.44 394.7556,330.3291 398.392,343.237 404.0981,358.6694 410.9842,374.7312 418.9203,391.6069 452.1624,456.565 463.5114,479.5559 470.0733,493.6506 478.3565,513.22 484.282,528.6922 490.7271,548.0564 495.5105,564.9973 499.6152,582.5527 503.0171,600.4764 506.0789,621.3402 508.0,638.875 509.5439,659.2981 511.1806,693.2639 512.8357,764.439 513.7178,785.1148 514.6035,795.9473 516.242,807.5197 517.1539,812.1476 518.0977,815.2129 519.5141,818.8283 521.1096,821.3637 522.392,822.683 524.2726,823.1461 526.5957,822.2598 528.8101,819.8589 531.0422,815.8831 533.2598,810.1236 535.2917,802.9236 537.1208,794.3992 538.6506,785.1834 539.8839,775.2512 541.487,753.1956 542.0396,728.6288 541.506,702.0421 539.9167,674.0741 537.4907,646.8729 534.1796,619.1554 530.0199,591.1948 524.9505,562.5852 518.9121,532.9791 512.1353,503.6356 504.6402,474.692 496.6304,446.9257 487.8277,419.453 478.2863,392.5392 468.0638,366.3137 457.2945,341.1429 446.4322,318.0396 435.3037,296.6148 424.2336,277.5069 412.8346,259.976 400.7436,243.6809 394.9033,236.6782 389.0069,230.2175 383.334,224.625 377.9176,219.9183 372.7907,216.1149 367.8327,213.144 362.874,210.9647 358.4128,209.8425 354.4534,209.7178 351.0,210.5312 348.0569,212.2235 345.4331,215.002 343.4271,218.6786 342.0445,223.176 341.1886,230.3086 341.4624,238.7713 342.8747,248.5269 345.4184,259.4674 349.0608,271.4403 353.7055,284.1381 359.1094,296.8184 365.5261,310.1446 372.5095,323.3253 380.655,337.5611 389.4033,351.9067 398.8816,366.5327 421.8918,399.5296 452.2939,440.695 467.3179,461.6932 477.5575,476.8613 488.6652,494.9084 497.9834,512.1592 502.1866,521.0089 505.5131,528.868 511.5836,546.0006 514.7202,557.0578 517.8212,569.8438 518.4306,570.875 518.9269,570.1062 519.8339,566.2185 523.0557,545.9118 527.1325,523.8771 532.2819,500.7598 536.0152,485.9508 540.3157,470.6233 545.0617,455.0304 549.4632,442.1408 555.3673,426.5768 561.0102,413.0153 566.7786,400.8509 572.3682,390.5279 577.8199,382.3691 582.7174,376.9615 584.4535,375.7211 586.2907,375.0922 587.7069,375.4749 588.5,376.5 589.0951,378.5176 589.3147,381.2716 588.625,388.375 586.3192,398.6969 582.4986,411.4694 573.6993,436.2332 546.8656,506.7442 537.0939,535.9726 524.8039,575.7399 522.7108,581.1773 521.6545,582.7714 521.1094,582.9531 520.4097,581.335 520.25,578.5156 520.4633,571.1029 521.0779,563.6386 523.3016,545.5561 527.2261,522.1462 531.0556,503.8704 535.9301,483.7532 541.1634,465.0561 547.1066,446.1307 553.4768,428.1688 560.3345,411.0916 566.6352,397.422 573.2534,385.0918 579.5304,375.3454 582.6551,371.4334 585.4438,368.6035 588.0496,366.7759 589.9594,366.2429 591.4707,366.6801 592.525,368.076 593.0335,370.1226 593.206,373.2854 592.4356,381.3488 590.095,391.6472 586.3895,404.178 577.662,428.4306 558.3229,477.5064 547.7709,505.6065 541.0673,525.0724 535.2511,543.1218 522.0845,588.7616 520.1435,593.7269 519.2703,595.0926 518.6719,595.4375 518.1985,594.9491 517.9067,593.9628 517.6507,590.3662 517.6728,583.4577 518.2489,575.2267 520.3051,556.071 524.4541,529.6068 528.7345,508.429 534.0747,485.5807 539.8612,464.2374 546.1447,443.8062 553.1364,424.0533 560.8938,404.7898 567.7827,390.0272 575.1084,376.5735 578.9144,370.4433 582.5613,365.2465 585.9369,361.12 588.9621,358.1135 591.375,356.375 593.7988,355.5389 595.7345,355.9389 597.102,357.535 597.75,359.75 597.9994,362.847 597.3626,370.9873 595.2722,380.8029 591.5543,393.5158 587.2592,406.1295 581.6756,421.1644 557.8271,480.2392 550.8459,498.2288 545.7692,512.3261 539.9639,529.3135 533.461,550.2844 518.8148,605.051 516.9815,609.8704 516.3519,610.838 515.75,611.0 515.2726,610.4431 514.9001,609.1778 514.394,603.701 515.0495,586.0234 517.5735,561.7983 521.1949,538.0903 525.7905,513.5896 531.3249,489.2576 537.8018,464.6702 544.8749,441.6371 552.9175,418.7165 560.8034,399.1173 569.3758,380.6452 577.8473,365.1429 582.1092,358.4659 586.3581,352.6257 590.0816,348.3025 593.6033,345.0776 596.6976,343.0972 599.5854,342.3374 600.8841,342.582 601.7515,343.1185 603.1147,345.1912 603.8446,347.8618 604.1295,350.8782 603.5861,358.5753 601.2368,369.9425 597.4664,383.1395 592.7395,396.8396 586.2574,413.5505 565.6644,462.6691 554.0119,491.2619 542.0002,524.1903 535.4287,544.5551 529.1452,567.0257 523.444,590.7336 515.6913,624.9576 513.826,630.2329 512.8843,631.6204 512.25,631.75 511.6991,630.9907 511.2593,629.1759 510.6069,622.5545 510.5322,613.3699 510.9705,602.663 513.4277,574.6045 517.4007,546.3761 522.2597,518.9022 528.3889,490.88 535.5072,463.3767 543.5664,436.7616 552.3582,411.6692 561.8079,388.3755 571.7371,367.328 576.469,358.5115 581.2712,350.4073 586.1673,343.0083 591.0282,336.5612 595.5012,331.5381 599.6128,327.91 603.2587,325.7322 605.0496,325.144 606.6567,324.994 608.0676,325.2773 609.2696,325.9892 610.25,327.125 611.0368,328.6983 611.8504,331.8915 612.147,335.9009 611.9268,340.6528 611.1896,346.0734 607.8107,360.7004 602.4849,377.5854 596.7726,392.911 590.291,408.8646 565.7998,464.519 553.2162,494.5005 543.7388,519.3612 537.4145,538.4457 530.295,562.9484 524.6586,586.2661 520.9213,604.4096 513.4999,646.9362 511.8447,654.8018 509.89,661.075 509.07,662.575 508.25,662.875 507.537,662.1157 506.8796,660.3009 505.7407,653.1574 505.2458,639.9698 505.3772,628.0023 506.1438,611.4163 507.2207,596.6113 508.8909,580.5683 511.2342,562.5292 516.7302,528.7817 523.9755,493.5786 531.6167,462.8985 540.8911,431.6832 546.1069,416.0921 551.5253,401.1212 557.1221,386.842 562.916,373.1829 568.8336,360.3298 574.6445,348.7665 580.5357,338.1338 586.528,328.4036 592.7935,319.385 598.9307,311.7771 604.3687,306.2325 609.5062,302.3295 611.962,301.0267 614.2278,300.2273 616.2879,299.9207 618.1269,300.0967 619.7291,300.7448 621.079,301.8548 622.2328,303.5496 623.1241,305.7403 623.9569,309.6655 624.2479,314.8053 623.9043,320.7814 623.0116,326.9809 621.3107,334.9312 619.0101,343.6492 613.0237,361.9173 606.5839,378.2139 598.2847,397.3285 566.0787,465.7639 552.7684,495.9383 546.384,511.6536 541.2175,525.5232 536.2552,540.3047 531.3022,556.6791 527.9219,569.5156 524.1515,586.0101 519.1378,614.3739 516.125,637.3955 511.3246,687.5707 508.2819,712.5903 506.8743,719.301 505.8653,722.6939 504.567,725.012 503.1714,725.7914 501.9627,725.0975 500.6777,722.6562 499.2994,718.3535 498.1515,712.7052 496.4217,698.1462 495.4666,679.8752 495.2541,661.47 495.7998,642.443 497.2039,619.6683 499.3421,595.6928 501.8775,574.1788 505.057,551.9969 508.8177,529.5792 513.0451,507.5562 517.8112,485.641 523.094,463.8775 528.8141,442.5682 534.8969,421.9639 541.4054,401.9085 548.374,382.3987 555.9115,363.1333 563.7841,344.7458 571.7328,327.8037 579.7181,312.3557 587.66,298.6098 595.7879,286.1282 604.3929,274.6088 612.5912,265.3295 620.0899,258.5048 623.6996,255.8858 627.5184,253.6535 630.6852,252.287 633.9769,251.4248 636.9662,251.2564 639.637,251.7597 641.9732,252.913 643.9586,254.6943 645.6247,257.1678 646.9892,260.4437 648.2436,266.2654 648.6482,273.5622 648.1525,281.8741 646.7959,291.0146 644.5506,301.1284 641.3878,312.3257 637.3858,324.247 632.7369,336.395 623.0837,358.4048 610.9345,383.0468 598.9859,405.5049 567.0624,463.5352 551.5644,493.7566 544.3121,509.5931 537.9028,525.154 532.6703,539.5398 527.5152,555.6533 523.2912,571.8107 519.1839,591.8432 516.4505,611.7359 514.8179,631.3348 514.1007,652.189 514.6949,670.9703 515.5561,680.1369 516.2233,684.1948 517.3286,688.3418 517.8062,689.1387 518.5664,689.3672 519.2829,688.1646 519.9399,685.2711 520.7536,676.1638 520.9122,664.1765 520.3698,649.1049 519.4343,635.2457 518.0509,621.1565 513.1455,585.4412 507.3642,553.454 499.4672,518.006 491.0519,486.2098 481.2188,454.4229 470.1187,422.9574 464.3781,408.3293 458.703,394.931 452.0809,380.4689 445.4714,367.0802 438.92,354.846 432.5033,343.9197 426.1295,334.2142 419.6558,325.5986 413.6379,318.7755 408.3349,313.9773 403.6133,311.0802 401.5134,310.424 399.8495,310.318 398.4238,310.6543 397.0227,311.6156 395.9541,313.1546 395.2123,315.2392 394.7217,318.8113 394.7674,322.9074 395.2852,327.41 396.3323,332.7257 400.1386,345.9156 406.0939,362.0568 412.8947,377.8587 422.375,398.0 456.4012,465.1586 471.5557,497.6382 477.593,511.9514 484.5331,530.4186 489.0973,544.0382 494.0,560.7812 497.7134,575.6454 502.272,597.7992 505.4592,618.45 507.9532,639.6836 510.3331,670.0131 513.845,740.3688 516.125,764.0 518.0956,774.3212 519.5942,779.3971 521.3565,782.838 522.4769,783.8704 523.8716,784.4093 525.5312,783.7656 527.3286,781.5378 529.1392,777.4766 530.7085,772.2902 532.0469,766.1223 533.4102,757.6448 535.1091,740.527 535.8627,720.0129 535.7074,698.0288 534.6675,675.6869 532.5985,649.7704 529.9675,625.2693 526.7132,601.1707 522.8363,577.3506 517.9981,551.7914 512.4845,525.9722 506.3612,500.3547 499.8038,475.6919 492.6844,451.5204 484.5597,426.5516 475.9499,402.3612 466.9423,379.1488 457.6481,357.1979 448.3251,337.0822 438.8701,318.5646 428.8793,300.8495 418.7984,284.7535 408.3551,269.9902 398.2194,257.6812 393.6081,252.8286 388.997,248.5173 384.4378,244.8352 379.9893,241.8332 375.9011,239.6868 371.8309,238.2748 368.5284,237.8183 365.3443,238.1855 362.6416,239.4211 360.4323,241.4814 358.7856,244.1964 357.5847,247.6883 356.7256,254.0365 356.9561,261.9302 358.2478,270.8796 360.6273,281.1256 363.8573,291.7446 368.1264,303.336 373.2974,315.5348 379.6123,328.902 391.3321,351.1558 405.4091,375.1219 421.9391,401.3054 449.1335,442.8697 469.2976,475.1881 483.0389,500.3058 487.844,510.1062 492.1244,519.794 496.6654,530.9332 500.2104,540.7341 504.3114,553.9631 506.9553,564.2617 509.9352,578.912 511.3543,588.7175 512.51,601.981 512.625,612.25 513.0905,597.5438 515.2311,574.1444 518.3981,550.8701 522.8419,525.3727 527.6495,502.4883 533.8002,477.4597 539.6986,456.3852 546.4482,435.2966 554.2304,413.73 561.9435,395.1446 570.7592,376.7103 578.9908,362.0687 583.2969,355.5781 587.365,350.2041 591.0899,346.0194 594.6033,342.8945 597.6976,341.0104 600.5854,340.3798 602.5495,341.1427 603.9477,343.2451 604.5702,345.5232 604.8763,348.7637 604.2861,357.1724 602.1408,367.8602 598.4898,380.6644 594.213,393.3146 589.0214,407.0772 555.3979,487.995 549.309,503.8819 541.5697,525.4051 534.9394,546.3435 528.6694,568.9241 524.8616,584.6863 514.9697,628.9687 513.215,633.785 512.6244,634.6962 511.8431,634.9751 511.2864,634.3782 510.73,632.5128 510.0783,626.1299 509.9913,615.0267 510.4149,604.1189 512.7141,577.0153 516.8816,547.141 521.8817,519.004 528.2166,490.0726 535.2465,462.9584 543.4717,435.8493 552.4498,410.1666 562.0408,386.6227 572.12,365.4309 577.1517,356.1455 582.1978,347.712 587.289,340.0925 592.2945,333.5367 596.875,328.5 601.087,324.9414 604.7774,322.9486 606.4033,322.5218 608.1442,322.4976 609.4085,322.876 610.688,323.7976 612.3543,326.6791 613.0751,329.7844 613.3371,334.0419 613.0498,339.1056 612.235,344.8308 608.9766,359.0422 603.9333,375.028 598.2921,390.1718 591.9305,405.783 565.2824,466.1261 553.034,495.0415 542.6442,522.679 534.375,548.125 529.4028,566.1528 524.2987,587.8239 519.6413,611.9209 513.854,646.8257 511.2524,660.2712 509.3281,666.4062 508.5649,667.7168 507.813,668.133 506.981,667.361 506.0631,664.912 504.961,657.8191 504.3271,646.7076 504.4324,632.2452 505.0415,617.0826 506.2235,601.2414 508.2464,581.5135 510.6929,562.0946 516.15,528.4182 523.046,494.862 531.5998,460.7358 541.3318,427.8461 546.498,412.4614 552.1397,397.0501 558.0586,382.1852 564.0305,368.3882 569.9931,355.7402 576.2001,343.709 582.5928,332.4518 588.8589,322.5249 595.0819,313.8184 601.0908,306.6629 606.8485,301.1588 611.9963,297.5864 616.4333,295.8953 618.4741,295.7452 620.2687,296.1082 621.9478,297.0727 623.2512,298.428 624.3207,300.2061 625.1536,302.3857 626.0235,306.9956 626.192,312.1129 625.7361,318.1154 624.6776,324.996 623.004,332.7955 620.7931,341.0984 614.6152,359.6532 607.9778,376.4627 599.9678,394.8047 567.4031,463.3239 552.2255,496.9816 546.3145,511.4735 541.083,525.5519 535.8063,541.2105 531.4075,555.7207 527.7951,569.6506 524.2045,585.5597 520.7358,603.9204 518.7294,617.0386 514.6723,651.5003 510.7938,702.0387 508.1571,726.2295 506.9312,732.8089 505.7326,737.03 504.0219,740.4505 503.12,741.263 502.4126,741.442 500.9706,740.3923 499.1307,737.0135 497.9206,733.1331 496.6193,727.1455 494.6736,713.6452 493.3618,694.2121 492.9053,674.6018 493.2505,652.8292 494.3705,630.0951 496.2847,606.2371 498.7846,583.1798 501.9228,559.8324 505.7214,536.0472 510.1318,512.1795 515.0327,488.8401 520.5082,465.6411 526.4191,443.2023 532.8034,421.3435 539.9158,399.2357 547.5864,377.5494 555.4684,357.2691 563.6024,338.259 571.8371,320.8546 580.5937,304.1561 589.6055,288.7352 598.5171,275.1865 607.7341,263.0207 616.4172,253.4796 620.6506,249.5674 624.7121,246.3061 628.5825,243.687 632.5645,241.5519 635.9739,240.2473 639.4077,239.5255 642.5195,239.5245 645.2846,240.2331 647.724,241.655 649.8977,243.84 651.6617,246.6744 653.021,250.1094 654.3378,256.4862 654.7131,264.4752 654.0872,273.3208 652.4275,283.6731 649.7858,295.0557 646.2998,306.948 641.9263,319.5343 636.8816,332.223 626.347,355.5616 613.6228,380.5552 599.9759,405.27 567.4842,462.0383 552.1571,490.7648 544.9994,505.5119 538.926,519.2254 533.3681,533.1264 528.48,546.9387 524.1789,561.4781 520.0087,578.6763 517.4351,593.3137 515.1489,610.9962 513.9682,626.6922 513.626,644.803 514.4111,660.472 515.1415,664.8855 515.7335,666.3145 516.2135,666.5961 516.675,665.5742 517.0425,663.0589 517.3217,652.2298 516.9845,641.5889 516.0971,628.1099 514.883,615.835 512.9782,600.9394 508.3653,571.3147 502.4858,541.732 495.5611,512.3615 487.7102,483.9086 478.7896,455.5064 469.1982,428.7023 458.447,402.5254 447.6959,379.5577 442.494,369.6658 437.286,360.6349 431.3483,351.2558 425.8184,343.4336 420.7546,337.2184 416.2156,332.6603 411.9162,329.5652 408.5714,328.4101 407.0891,328.536 405.8729,329.1868 404.921,330.344 404.2316,331.9891 403.7577,334.6425 403.743,338.2917 405.1759,347.5132 408.4925,359.6066 413.2973,372.9713 418.7652,386.1826 425.712,401.7549 455.826,464.8089 468.2119,492.1109 481.0171,524.1959 484.5384,534.2231 489.2414,549.0577 492.6235,560.8711 497.4057,579.8143 501.6065,600.3102 503.8881,613.344 506.8008,633.6758 512.427,681.132 514.7427,697.854 516.0965,705.4997 517.1406,709.4062 518.6337,712.9952 519.1944,713.7037 520.0972,714.0463 521.1148,713.3603 522.1711,711.2125 523.5615,704.3747 524.5705,691.0836 524.7057,675.8635 524.1562,660.0248 522.9685,642.9491 520.8285,621.4763 518.3094,601.3046 515.6883,583.9807 512.6882,567.0528 508.5511,546.3499 504.113,526.2982 499.6097,507.7651 494.7801,489.5565 489.6254,471.7023 484.0292,453.718 477.9106,435.4523 471.5493,417.8402 465.0008,401.0595 458.3891,385.4297 451.103,369.541 443.5678,354.3917 436.2463,340.8848 428.8708,328.5145 421.5552,317.5695 414.1326,307.9125 407.3366,300.4401 401.0299,294.9691 398.1,293.0562 395.438,291.7841 393.0599,291.1493 390.9004,291.1351 389.2184,291.6573 387.6185,292.879 386.4007,294.7208 385.5564,297.1412 385.0058,301.0367 385.0789,306.2991 385.7385,311.7079 387.0101,318.0095 391.3798,332.9108 398.0475,350.3858 406.0909,368.2294 417.2948,390.7472 457.2199,465.0285 471.019,493.0622 478.2635,509.3295 484.9029,526.1984 490.724,542.966 495.697,559.5885 500.5873,579.7257 504.2285,599.0754 507.0604,620.3693 509.0663,645.6731 509.6962,662.6132 509.7805,676.8579 508.9294,699.1606 507.9614,710.6515 506.8275,717.8285 505.0366,723.845 504.1385,725.3706 503.233,725.9772 502.7249,725.9747 501.9853,725.4456 500.4345,722.7006 499.371,719.387 498.378,714.6275 496.4699,700.2058 495.4052,681.8809 495.2515,663.099 495.8901,641.1498 497.1532,619.3488 499.1636,596.9015 501.8142,574.3117 505.1148,551.006 508.4017,531.2299 512.4107,510.3388 517.2765,487.8934 522.8505,464.8186 528.8068,442.4412 534.9347,421.6728 541.6458,401.0572 548.8622,380.8693 556.3664,361.7238 564.0642,343.8372 572.0503,327.0225 580.3385,311.2581 588.6593,297.0235 597.0726,284.2206 605.4227,273.1722 613.4841,264.2525 617.6004,260.4161 621.5279,257.252 625.2486,254.7486 628.7447,252.8949 631.9982,251.6795 634.9914,251.091 637.9387,251.1509 640.3791,251.8587 642.7068,253.3228 644.6485,255.4432 646.2084,258.1778 647.3906,261.4844 648.4645,267.4245 648.6989,274.9142 648.0236,283.3344 646.4615,292.7965 644.0161,303.2197 640.8209,314.1254 636.8258,325.7516 631.9687,338.2261 622.5183,359.7369 610.9605,383.169 599.1716,405.2661 569.2098,459.5045 553.5056,490.0224 545.6225,506.9834 539.0172,522.4255 533.5299,536.9858 528.5662,552.0014 523.9531,569.1081 520.1583,586.8086 517.038,606.7283 515.0888,626.0327 514.1299,648.9696 514.442,667.0016 515.1712,676.6146 515.9243,682.0844 517.129,687.452 517.687,688.631 518.375,689.125 519.2311,687.8629 519.847,685.577 520.6875,676.4375 520.882,666.0355 520.4188,650.816 519.4789,636.7194 517.877,620.59 515.786,603.4745 513.3896,587.123 506.8884,551.4203 499.5938,518.4141 491.0471,486.4255 480.8668,453.3357 475.4367,437.4409 469.9578,422.5621 464.0752,407.7876 457.9308,393.3725 451.5262,379.3674 445.2528,366.6537 439.0092,355.0209 432.9661,344.794 426.2761,334.574 420.0114,326.1006 414.0439,319.2056 408.7352,314.3323 404.0694,311.4301 402.0877,310.7274 400.0272,310.517 398.5732,310.8509 397.1424,311.8399 396.0523,313.4456 395.3006,315.6415 394.8497,319.1449 394.9423,323.1315 395.5712,328.0588 396.7022,333.5759 400.6573,347.2475 406.3133,362.5142 412.4222,376.8363 420.05,393.1841 454.0945,460.5163 470.2485,494.6348 477.2427,511.3997 483.8948,528.7896 489.0735,544.1337 493.5093,559.0344 498.287,578.2256 501.75,594.75 504.6072,612.4037 507.4032,634.818 509.9157,663.4239 513.912,739.3843 514.8483,750.7865 516.1131,761.353 517.841,771.3172 519.5034,777.04 520.5377,779.5441 521.6472,781.3161 522.8676,782.3712 523.9407,782.6434 525.7381,781.6582 527.4669,779.1838 529.1875,775.1875 530.669,770.1505 533.2541,755.741 534.8527,738.9411 535.6096,718.1954 535.4438,696.8018 534.3373,673.9152 532.252,647.813 529.6644,624.0293 526.3854,600.068 522.382,575.7756 517.5401,550.3437 512.1025,525.1277 506.0825,500.1891 499.5579,475.856 492.5195,452.0881 484.5743,427.6003 476.0007,403.393 467.0259,380.1587 457.9015,358.5228 448.7381,338.6852 439.2331,319.9886 429.3322,302.318 419.3281,286.25 408.9805,271.547 399.1177,259.5056 394.4257,254.5459 389.7607,250.1559 385.4402,246.5922 381.0039,243.5071 376.9115,241.2687 372.8547,239.7585 369.5234,239.1969 366.3277,239.4469 363.606,240.5605 361.375,242.5 359.6239,245.259 358.402,248.7116 357.5014,255.2342 357.7121,263.0242 358.9485,271.8551 361.2972,282.1498 364.4307,292.4719 368.626,303.8785 373.8742,316.2849 380.1144,329.5518 391.05,350.4769 404.5835,373.5952 421.6734,400.9483 454.572,451.7987 467.845,473.4137 482.9584,500.8842 487.8025,510.757 492.7588,521.967 497.795,534.812 502.2465,548.3137 505.437,559.525 508.3339,572.3777 510.0924,581.8175 511.8601,596.0921 512.6025,608.6343 512.3378,614.5652 512.3081,607.299 512.8213,596.3517 514.928,574.5459 517.8624,552.8254 522.3144,527.1435 527.324,502.862 532.9856,479.398 539.3112,456.8816 546.5302,434.271 554.1807,413.1 562.499,393.1735 571.1617,375.1106 579.6467,360.2119 584.0841,353.5349 588.2183,348.0536 592.0344,343.7856 595.3862,340.885 598.6553,339.0291 601.34,338.5912 602.4292,338.8972 603.3998,339.5849 604.7435,341.6894 605.4011,344.0456 605.7308,347.463 605.1554,355.5332 603.0516,366.0165 599.4055,378.853 594.7584,392.5387 589.1508,407.346 557.6428,482.6202 549.4737,503.4398 543.22,520.6952 534.9813,546.2016 529.127,567.253 523.8164,589.5651 517.2196,620.629 514.8641,630.4884 512.864,636.585 512.0,637.875 511.3241,638.037 510.7593,637.2546 510.2052,635.2903 509.5886,629.3151 509.3596,620.0983 509.7617,609.0588 510.7751,593.6381 511.9775,580.8426 513.8488,565.3742 516.2347,548.9609 521.4779,519.6752 527.9939,489.7202 535.2977,461.4894 543.4987,434.3707 552.8394,407.876 562.6782,383.8383 567.5758,373.2063 572.8145,362.7798 578.0292,353.3022 583.1363,344.8701 588.2361,337.3237 593.1342,331.0001 597.7971,325.9854 602.3023,322.277 606.1897,320.2924 607.8754,319.9367 609.375,320.0 610.6404,320.4418 611.9296,321.4339 613.6372,324.4841 614.34,327.6315 614.5812,332.0268 614.2423,337.3006 613.3271,343.6371 610.0307,357.7202 604.7048,374.2082 598.9251,389.4994 591.5705,407.2416 564.7955,467.3403 554.6011,491.3085 544.2754,518.1511 535.2885,544.9923 528.1573,571.0888 522.961,594.4241 518.5736,618.32 513.7284,649.4298 511.3822,662.3656 509.2144,670.6003 508.1348,672.6094 507.5781,673.125 507.0449,673.1719 506.1998,672.2878 505.543,670.4064 504.1948,661.9225 503.6129,649.9424 503.552,634.5431 504.1991,618.9404 505.4608,601.4269 507.17,584.3262 509.4313,566.259 514.9371,531.467 518.2736,514.0977 522.0768,496.3456 526.2237,478.793 530.718,461.4318 535.5047,444.5569 540.6007,428.0468 546.0639,411.7375 551.7207,396.1779 557.5969,381.3176 563.6626,367.2229 570.0405,353.61 576.4777,341.0415 582.8827,329.6892 589.2298,319.6228 595.9015,310.3609 602.2153,302.9028 608.0423,297.3094 613.4556,293.5311 618.048,291.8294 620.2626,291.6908 622.2164,292.1067 623.9037,293.055 625.3185,294.5138 626.455,296.4611 627.3073,298.875 628.054,303.293 628.2038,308.6789 627.7543,314.8179 626.6554,322.0429 624.947,329.9126 622.7116,338.1688 616.4691,356.7721 609.6319,373.9257 600.1448,395.3822 589.0145,419.0112 565.6751,467.0042 551.5629,498.4171 545.0248,514.6863 538.1164,533.7586 533.6401,547.4965 529.3768,562.3562 525.7515,577.0298 522.0092,595.3911 519.498,610.8359 517.0429,629.4282 514.1934,659.0403 510.0579,725.0685 508.2688,743.2375 506.9466,751.1533 505.512,756.7801 503.684,760.305 502.8268,761.0138 501.875,761.25 500.9049,760.9628 500.1562,760.3438 498.25,757.375 496.806,753.6597 495.2873,747.8732 493.8074,740.4503 492.6404,732.5486 490.7818,712.1293 489.965,691.3389 490.0092,668.0327 490.9126,643.0843 492.6669,617.4141 495.0875,592.6324 498.2511,567.2706 502.0062,542.4521 506.5076,517.1252 511.6677,491.8391 517.5034,466.5786 523.7473,442.4505 530.5972,418.7072 538.2632,394.7274 546.4354,371.5699 555.0134,349.5228 563.9039,328.8457 572.9091,309.9964 582.2278,292.4877 592.025,276.0357 601.7228,261.6287 611.7202,248.7755 621.115,238.7519 625.8845,234.5314 630.4485,231.0881 634.784,228.405 638.868,226.465 642.6774,225.2512 646.4678,224.7357 649.8798,225.0308 652.884,226.1147 655.5542,228.0471 657.6917,230.5811 659.4364,233.7362 660.8856,237.7985 662.226,245.2173 662.4972,253.8542 661.709,263.4838 659.7471,274.7559 656.6976,287.1082 652.621,300.2843 647.5812,314.1087 641.5879,328.5485 630.2502,352.5205 616.398,378.3733 600.4688,405.7069 566.805,461.4243 552.9218,485.8852 545.6781,499.9132 538.5822,514.7618 533.5624,526.3831 528.6771,539.0391 524.3382,551.7678 520.6965,564.7625 517.5131,578.6098 514.8705,593.4598 513.5009,604.8425 512.4605,619.0357 512.2617,632.5017 512.601,638.864 513.1647,641.4967 513.5223,637.9341 513.0846,627.8844 510.983,605.1824 507.0024,578.104 502.9012,555.059 497.307,529.5256 491.1899,505.2277 484.3553,481.5023 476.7414,457.8652 468.4881,435.155 459.0643,412.3592 449.7668,392.4581 440.9997,376.3451 436.2421,368.5557 431.8191,361.9922 427.9496,356.9599 424.4255,353.1643 420.666,350.1328 417.7969,348.8125 416.634,348.7178 415.4381,349.1178 414.6894,349.8454 414.0928,351.025 413.6528,353.2404 413.6229,356.0903 414.8368,364.3912 417.3913,374.297 421.653,386.6107 432.0565,412.0693 455.6108,463.9588 467.0147,490.3375 478.8553,520.6984 486.2795,542.7648 491.2335,559.2659 496.6679,580.1817 501.8006,604.4035 511.5673,659.823 513.9949,668.3108 514.7969,669.6094 515.5461,669.8005 516.183,668.7657 516.8076,666.3151 517.3871,659.3711 517.3906,648.8047 516.7182,635.6346 515.6276,622.2489 514.1657,609.0028 509.138,574.6586 503.7826,546.4613 496.7988,516.2109 488.9336,487.0617 479.8386,457.7501 469.759,429.2106 459.4803,403.8391 447.9821,379.1882 442.2673,368.2651 436.6696,358.4655 430.7773,349.1989 425.0881,341.2142 419.8958,334.8776 415.0441,330.0447 410.875,327.125 409.1847,326.4053 407.3535,326.0469 406.1102,326.1779 404.8281,326.8438 403.8426,328.0449 403.1476,329.7572 402.6887,332.4528 402.6623,336.2698 404.0365,345.3128 407.4376,357.6316 412.3016,371.2703 418.0031,384.9652 426.6746,404.3709 455.7922,464.5884 468.7098,493.2099 474.8324,507.9374 481.3466,524.9396 485.7665,537.5675 490.3746,552.256 494.4121,566.6241 498.3689,583.4158 500.6736,594.7304 504.2371,615.1683 507.5505,639.0074 512.9942,689.112 516.125,710.0 517.0375,713.9103 518.5,718.125 519.54,719.863 520.7,720.449 521.787,719.689 522.879,717.343 523.7607,713.7645 524.4785,709.0003 525.4857,696.2381 525.7451,679.9854 525.3517,664.8684 524.3317,649.0007 522.404,628.3357 519.963,608.0695 517.2254,589.4545 513.6317,568.5062 509.7678,548.4717 505.5588,528.929 501.1898,510.6443 496.5344,492.9716 490.9301,473.4016 484.9437,454.0341 478.6294,435.1097 472.1708,417.197 465.6353,400.4511 458.4841,383.5398 450.93,366.9916 443.4721,351.9067 435.8563,337.7792 428.5188,325.4413 420.9492,314.1171 413.2449,304.0395 405.9113,295.9566 399.3892,290.3011 396.3708,288.3242 393.625,287.0 391.222,286.3172 388.783,286.239 387.0048,286.7578 385.2946,288.0099 384.1412,289.6078 383.16,292.0472 382.4751,296.0303 382.4407,300.916 383.1004,306.8865 384.4137,313.5279 386.4266,321.1434 389.1501,329.7141 396.2135,348.1671 403.9401,365.1477 414.2665,385.722 454.5402,459.5841 471.1646,492.3852 477.4623,506.2716 485.63,526.4405 490.1703,539.1194 495.2245,555.4317 500.0926,574.2714 503.8187,592.8113 507.0402,616.2376 508.9239,638.1347 509.625,662.0 509.5096,675.2523 508.9301,686.8802 507.0,703.625 505.6297,708.218 504.875,709.5 503.9631,710.2251 503.3748,710.0835 502.7336,709.4146 501.5703,707.0696 499.6708,697.9928 498.324,685.0911 497.6279,668.5802 497.7625,649.9073 498.7086,626.9577 500.0304,608.6943 502.0708,588.525 504.7069,567.5403 507.7568,546.9135 511.2623,526.713 515.3898,505.8582 520.1946,484.2239 525.4044,463.0826 530.7973,443.3058 536.6407,423.7993 542.97,404.4572 549.726,385.537 556.7123,367.6329 563.6363,351.4852 571.0872,335.7204 578.8605,320.8091 586.642,307.3258 594.4676,295.2011 602.225,284.6996 609.8432,276.0149 617.2059,269.3122 620.4889,266.9424 623.8358,264.9941 626.7138,263.7661 629.5829,263.0528 632.0916,262.9572 634.5968,263.4909 636.7731,264.6667 638.6152,266.4485 640.1177,268.8004 641.2753,271.6862 642.3532,276.9371 642.6287,283.4041 642.0997,291.2231 640.7328,300.2143 638.6932,309.5095 635.87,319.7257 632.348,330.462 628.188,341.595 619.3994,362.25 607.9052,386.3777 597.1076,407.4625 567.3976,463.5866 558.5008,481.2142 551.3199,496.244 544.2459,512.3615 537.9034,528.4621 532.467,543.9796 528.0643,558.8378 523.0035,579.4905 518.9841,601.3105 516.0454,625.3014 514.6898,645.7051 514.2317,668.6979 515.1653,691.8358 516.0534,701.4097 517.3879,710.3485 518.8874,715.1494 519.542,716.3315 520.5,716.9688 521.458,716.4458 522.3729,714.5668 523.308,711.1655 523.9802,707.1834 525.0075,694.9049 525.25,680.75 524.7733,663.2795 523.7028,646.1157 521.8874,627.286 519.338,606.4956 516.623,588.0657 513.4291,569.4283 509.4094,548.8737 505.0101,528.5438 500.4137,509.2555 495.6415,490.9956 490.6772,473.6189 485.0119,455.3765 478.6188,436.2454 472.0931,418.1184 465.3821,400.8355 458.5465,384.5791 451.4724,369.1324 444.0981,354.3088 436.5495,340.377 429.1317,327.8964 421.5969,316.5098 414.2319,306.7885 407.1465,298.8502 400.5605,292.993 397.7579,291.0829 394.9396,289.6287 392.4115,288.846 390.1868,288.728 388.1655,289.3021 386.6614,290.4035 385.4801,292.0229 384.5156,294.4678 383.872,298.3467 383.8609,303.5674 384.5584,309.7084 385.9099,316.3953 387.8593,323.6037 390.5914,332.0082 397.9381,350.9727 404.5174,365.5561 413.2019,382.9664 424.9112,405.2552 455.8657,462.2922 463.0825,476.3438 470.8073,492.3473 478.5183,509.3996 485.0276,525.7026 490.4728,541.097 495.2483,557.0653 499.9414,575.468 504.378,598.179 507.3682,621.5256 509.0224,643.5103 509.5236,658.1483 509.6186,673.15 508.8331,695.3905 507.6238,706.2548 506.4295,712.7027 505.1351,716.6319 504.4311,717.7056 503.5931,718.2905 503.0087,718.2157 502.2394,717.6035 501.1934,715.6898 499.9028,711.3619 498.8253,706.0977 497.2828,692.3466 496.46,674.9116 496.442,655.5233 497.1311,635.115 498.5893,613.8147 500.8618,590.3758 503.4294,569.2174 506.5583,547.9846 510.2626,526.4897 514.5491,504.7154 519.2222,483.5978 524.3972,462.6392 530.0964,441.7527 536.1385,421.568 542.6814,401.5847 549.5975,382.2922 556.6229,364.488 564.1429,347.129 572.0569,330.4848 580.2492,314.8534 588.4224,300.8311 596.2962,288.8742 604.5295,278.0435 612.6134,269.1217 620.3108,262.4115 623.8498,260.0342 627.1965,258.3016 630.1851,257.2545 633.3023,256.7677 635.7617,256.9368 638.2576,257.7789 640.4088,259.2798 642.2059,261.4048 643.6395,264.1192 644.7002,267.3882 645.6021,273.3657 645.6908,280.2612 644.9812,288.3633 643.4248,297.6217 641.1025,307.5036 638.1396,317.666 634.3472,328.8194 629.8653,340.4992 620.8714,361.1763 608.9515,385.6411 598.284,406.0621 567.2071,463.5034 552.0099,493.9243 545.0357,509.2971 538.532,525.2747 533.0733,540.2361 528.5582,554.7384 523.5269,573.897 519.4357,594.16 516.6606,614.439 515.0414,633.1324 514.5189,643.8539 514.2214,660.1024 514.7691,677.5637 515.8447,689.6955 516.641,695.113 517.932,700.0418 518.7431,701.4227 519.5,701.875 520.338,701.079 521.224,698.627 522.3357,691.0601 522.875,679.0 522.7399,664.7829 521.9629,649.4223 520.3754,630.4412 518.4883,612.922 516.1712,595.7205 509.8653,559.3885 502.2175,523.8056 493.16,488.9229 482.5861,453.9915 476.8324,436.9643 470.8608,420.5816 464.591,404.6585 458.0472,389.2225 451.3677,374.6021 444.6273,360.9621 437.901,348.467 431.2906,337.3059 424.2305,326.522 417.6026,317.5548 411.2666,310.2333 405.5611,304.986 400.1458,301.6045 397.7295,300.7605 395.636,300.5464 393.862,300.9388 392.4045,301.9142 391.2604,303.4493 390.4266,305.5206 389.8059,309.0715 389.7775,313.2554 390.2791,318.0753 391.3534,323.8661 395.355,338.3261 400.9299,353.5138 407.6768,369.117 416.6319,387.9473 454.7546,461.1673 463.9939,479.87 471.3838,495.7942 479.9992,516.2373 486.5467,533.5872 492.9891,553.5042 497.4027,570.2508 501.8741,590.901 505.8348,616.4487 508.424,641.2845 509.5573,659.1992 510.3277,679.0597 510.5349,697.6813 510.267,716.392 509.8069,730.5271 508.875,744.5 507.625,755.375 506.1563,763.0081 504.2295,768.3393 503.1706,769.7172 501.8633,770.3969 500.1972,769.7414 498.6203,767.7072 496.5,762.875 494.9769,757.8864 493.3979,750.6939 491.7844,741.31 489.9632,723.7927 488.6945,699.8823 488.4689,677.6216 489.2296,651.2889 490.9755,623.3054 493.3196,598.0888 496.459,572.0262 500.342,545.6417 504.9191,519.3019 510.1201,493.4917 516.0384,467.6202 522.6012,442.0454 529.624,417.4515 537.2278,393.4487 545.4747,370.0173 554.3068,347.3098 563.4539,325.9856 572.7846,306.2926 582.3395,288.1623 591.9876,271.8917 601.9298,257.1313 612.3686,243.7521 622.3361,233.0876 627.1828,228.7265 631.8197,225.1314 636.1134,222.3762 640.5595,220.1655 644.6912,218.7837 648.4946,218.1972 651.9555,218.3724 655.3504,219.4048 658.0468,221.0702 660.5668,223.6605 662.6014,227.0019 664.1108,230.9586 665.6031,238.7186 665.9178,248.1689 665.0553,258.7764 663.0052,270.7167 659.8981,283.2278 655.7447,296.4946 650.5168,310.6391 644.1027,325.8738 638.2451,338.514 631.7674,351.5186 616.8248,378.867 601.5958,404.3985 566.9356,460.2688 551.9099,486.138 545.0065,499.0797 538.9511,511.3312 533.4193,523.5367 528.9374,534.6071 524.6028,546.7727 520.7942,559.0099 517.7977,570.6034 515.4628,581.9727 513.0437,598.0598 511.75,612.25 511.3757,623.1208 511.7176,631.162 511.875,629.375 511.3465,619.3629 508.691,595.3572 505.1763,572.931 500.3979,548.0599 495.5988,526.3782 490.4257,506.14 483.5321,482.3443 476.4176,460.4293 467.8937,437.095 459.4753,416.4374 451.7826,399.9348 442.8654,383.2468 434.5776,370.1751 430.6067,365.0296 426.8892,360.9659 423.7523,358.3841 421.2077,357.2725 419.3116,357.5782 418.072,359.272 417.658,361.408 417.646,364.246 418.857,372.3414 421.5788,382.0284 426.2167,395.3592 436.1266,419.6895 465.8172,487.629 476.356,514.4109 484.9103,538.9608 490.9858,559.4163 494.9136,574.1759 502.3107,607.5475 507.6082,635.5873 509.9884,646.3925 511.9304,652.895 512.6797,654.3488 513.2256,654.6753 513.6928,654.3196 514.1699,652.6055 514.7278,646.4067 514.6183,636.5219 514.0351,626.0464 511.1157,598.2808 506.6834,570.2829 501.3873,542.9571 495.0539,515.9478 487.4223,487.7414 479.1536,461.1511 469.8093,434.6368 460.2987,410.9334 449.5403,387.8092 439.0968,368.2827 434.0352,360.0919 429.1637,353.1614 424.237,346.9935 419.6607,342.2535 416.0052,339.5208 414.4243,338.7894 412.8456,338.46 411.661,338.5697 410.6852,339.0463 409.9113,339.8792 409.218,341.4051 408.7704,343.9197 408.75,347.75 409.9352,355.8237 412.9043,366.7935 417.7149,380.5049 422.9282,393.2689 430.5589,410.562 456.938,467.2361 466.9285,489.8516 477.8396,517.1158 482.9325,531.2801 487.0731,543.8718 493.5645,566.4492 499.53,591.9733 504.6632,619.7266 513.2768,677.2502 515.7679,687.5816 516.8929,689.8986 517.375,690.375 517.9551,690.4453 518.7407,689.5911 519.4638,687.6536 520.4869,680.6508 520.9035,669.7804 520.696,656.0694 519.9426,642.9283 518.2348,623.8315 516.4117,607.8272 514.1946,592.0963 507.9346,556.5631 500.5908,522.6682 491.6275,488.2797 481.508,455.002 476.0677,438.9959 470.2997,423.2608 464.2315,407.8701 457.9696,393.1057 451.7402,379.4787 445.6144,367.0942 439.4341,355.6341 432.7875,344.3303 426.2068,334.1898 419.8138,325.4749 413.9358,318.6666 408.4932,313.6836 403.6521,310.6089 401.5938,309.875 399.5067,309.6731 397.9931,310.0461 396.5558,311.1 395.546,312.6544 394.9004,314.5189 394.4263,318.0165 394.5145,322.2861 395.1305,327.2501 396.2399,332.8311 399.8293,345.5008 405.4186,360.5635 412.7054,377.6504 419.8923,393.0627 452.041,456.4189 462.3917,477.673 469.2599,492.5273 477.326,511.4363 483.0378,526.0381 488.9861,543.476 493.6553,559.1297 498.2057,577.4706 501.8711,595.5667 504.5409,611.5906 507.3897,633.5177 509.2395,654.6472 510.6765,676.5594 513.3436,736.5093 514.5323,753.5102 515.8796,766.537 517.1483,774.4865 519.2016,782.7607 521.4883,787.418 522.6428,788.4973 524.125,789.0 525.8259,788.2508 527.7241,785.8777 529.5792,781.664 531.3136,775.9285 532.6535,769.6698 533.9986,761.0839 535.7659,743.3349 536.559,722.6854 536.4303,700.5468 535.385,677.0529 533.3944,651.5973 530.762,626.8776 527.4415,602.0925 523.4001,577.043 518.6576,551.8689 513.1072,525.9716 506.8314,499.8665 500.0041,474.3165 492.7261,449.6569 484.7025,424.9825 475.9978,400.5637 466.7325,376.7706 457.1676,354.2851 447.5818,333.7004 438.0951,315.183 428.1892,297.7423 418.0327,281.6856 407.2336,266.6058 396.7719,254.0732 391.9332,249.0528 387.1208,244.6239 382.3929,240.9074 378.163,238.1638 373.8503,236.0263 369.9541,234.8067 366.4833,234.463 363.4472,234.953 360.8548,236.2345 358.5266,238.5082 356.8957,241.3149 355.6487,245.1551 354.8568,251.97 355.2039,259.9984 356.6667,269.4365 359.1355,279.7166 362.5471,290.755 366.7174,301.9364 371.9027,313.9967 378.2295,327.1856 390.736,350.603 404.6206,373.9774 424.4976,405.0873 451.9386,446.5864 469.8272,474.8772 482.7809,498.1136 491.375,515.75 496.3957,527.7227 500.3068,538.1623 504.6514,551.8542 507.497,562.2684 509.8657,573.8066 511.7292,585.9902 512.7824,595.7221 513.348,606.969 513.838,593.7088 515.853,573.2415 519.5456,546.8876 523.5067,524.6021 528.1979,502.3411 533.603,480.4374 540.2606,456.6785 546.6048,436.8834 554.2617,415.9216 562.1981,396.8392 570.6157,379.2786 578.7232,364.8748 582.6184,358.9781 586.5553,353.7711 590.1882,349.7256 593.4366,346.8864 596.2444,345.2515 598.792,344.7598 600.7587,345.5656 602.1094,347.6102 602.7257,350.0162 602.974,353.1153 602.2684,361.4886 599.7418,373.0426 595.9772,386.1701 591.8666,398.0305 585.2607,415.1719 563.1453,468.4418 552.9119,493.9955 541.9443,524.0554 535.0228,545.7757 530.151,562.9164 523.0522,591.7039 516.8042,619.2531 514.601,625.8879 513.8178,627.3735 513.0142,627.8327 512.25,626.875 511.7926,625.3089 511.284,618.9035 511.3002,609.8898 511.9263,595.974 514.0629,573.322 517.8193,546.3691 523.0808,517.2154 528.6262,491.7128 535.5963,464.8795 543.511,438.6895 552.3992,413.3239 561.8438,389.8578 571.1822,370.1194 576.1099,360.9393 581.0679,352.5108 585.7709,345.3292 590.3981,339.2222 594.7167,334.4486 598.8474,330.8651 602.416,328.8302 605.4088,328.3196 606.6712,328.6121 607.7685,329.2555 608.6943,330.2392 609.6,331.931 610.375,335.125 610.5996,339.4386 610.2771,344.5826 609.4245,350.4476 606.3406,363.4421 601.058,380.015 596.049,393.6022 590.5231,407.325 563.4973,469.6737 551.5382,498.6559 544.3019,517.8237 536.8639,540.1383 530.3489,562.5291 524.5002,587.0911 520.4045,607.1509 512.703,648.2932 510.7448,654.4427 509.75,656.125 508.9524,656.5227 508.2207,655.7207 507.4744,653.416 506.5161,644.6562 506.157,634.3782 506.4807,620.2761 507.2331,606.6503 508.5667,591.3462 510.5792,573.4846 512.9243,556.1859 518.262,524.4007 524.6841,493.8891 532.7673,462.1497 542.0691,431.0089 547.0773,416.1459 552.3789,401.6045 557.9131,387.5796 563.4746,374.5888 568.9834,362.7709 574.8322,351.2805 580.657,340.8521 586.5551,331.3193 592.4106,322.9431 597.9713,316.1268 603.3576,310.725 608.1892,307.0989 612.5998,305.1821 614.3833,304.9674 616.1378,305.2308 617.6561,305.9651 618.9444,307.1481 619.9984,308.7609 620.8136,310.7842 621.6297,315.0173 621.7699,319.6843 621.3219,325.5323 620.2655,332.404 618.64,339.8941 616.4751,347.9056 610.413,366.0015 604.3823,381.5816 597.3116,398.1159 566.6632,464.2239 553.9111,493.1364 542.8554,521.1846 537.8717,535.7117 533.1985,550.5716 526.9177,574.6132 521.5381,600.4927 517.2807,628.332 509.9717,690.8283 508.2183,700.7577 507.0605,705.3457 505.5725,708.7087 504.9624,709.4119 504.1245,709.7066 502.9496,708.7409 501.7263,706.1878 499.797,696.9892 498.4384,683.7039 497.754,667.1891 497.8851,649.2545 498.7923,628.0519 500.1657,609.015 502.2337,588.4296 504.8295,567.7068 507.9602,546.5586 511.4985,526.1 515.5866,505.3649 520.1697,484.6459 525.2943,463.7946 530.6865,443.9466 536.5087,424.4374 542.8235,405.0861 549.4505,386.4946 556.3205,368.8693 563.3514,352.4323 570.8778,336.438 578.5353,321.6574 586.3802,307.9708 594.0968,295.9391 601.8503,285.3843 609.3628,276.7892 616.6723,270.0861 623.2779,265.6826 626.2651,264.3387 629.2321,263.5255 631.8691,263.3701 634.0712,263.7662 636.283,264.8235 638.1657,266.4926 639.7153,268.7387 640.9279,271.5271 642.1059,276.6505 642.5026,283.1497 642.0575,290.8313 640.8291,299.2828 638.786,308.7663 636.0356,318.7999 632.4253,329.886 628.1677,341.3472 619.2855,362.3098 607.828,386.3633 596.6828,408.2276 565.2575,467.7978 552.3921,494.1123 544.4601,512.1255 538.0435,528.2915 532.3457,544.4637 527.9933,559.1894 522.9589,579.7688 518.9177,601.7181 516.0077,626.3198 514.6713,646.7298 514.2409,670.1182 514.7224,685.7172 515.2977,694.0967 516.1019,702.6096 517.486,711.5613 519.1306,716.5059 519.7816,717.5621 520.6457,718.0497 521.4914,717.6115 522.5233,715.6091 524.0973,708.9464 525.2544,695.9565 525.4935,682.5579 524.9863,664.8848 523.8572,647.0269 521.8172,625.9164 519.2656,605.0 516.6115,586.975 513.5707,569.3023 509.489,548.488 505.0382,527.99 500.5751,509.3191 495.7645,490.9552 490.875,473.875 485.169,455.4912 478.7854,436.4151 472.2663,418.343 465.4235,400.7606 458.5957,384.5479 451.2253,368.438 443.6371,353.1272 435.8896,338.7821 428.4643,326.2875 420.9212,314.9634 413.6293,305.4912 406.5231,297.6898 399.9145,291.9672 396.9697,290.0349 394.2856,288.7161 391.6735,287.9716 389.5315,287.9261 387.6762,288.4934 386.1604,289.6377 384.976,291.3232 384.0183,293.8668 383.3975,297.8941 383.4284,303.2965 384.094,309.0377 385.3864,315.4785 387.35,322.7973 389.9909,330.9722 397.2225,349.6479 404.7858,366.3275 414.7393,386.1992 423.7627,403.3145 457.0403,464.5134 470.2681,490.8817 478.0174,508.0777 485.3435,526.5434 490.7413,541.6105 495.2935,556.6444 499.8164,574.3429 504.253,597.054 507.4286,621.2456 509.0224,642.4042 509.5157,656.6394 509.6211,671.2129 509.464,681.3437 508.8765,692.2545 507.6719,703.4688 506.553,709.8712 505.3059,713.8918 504.552,715.0352 503.6094,715.5625 502.25,714.625 501.2807,712.6823 499.0269,702.5811 497.5827,689.5633 496.8572,673.6395 496.881,654.6935 497.6346,632.9093 498.9958,613.0414 501.1225,591.2618 503.8374,569.0951 506.7867,548.9964 510.4664,527.5448 514.7338,505.7483 519.4385,484.3147 524.4877,463.6117 530.0426,443.1428 536.0632,422.9894 542.5881,403.0302 549.4319,383.8571 556.3492,366.1201 563.4686,349.5486 571.1871,333.2173 579.0453,318.1266 587.0799,304.2016 595.0597,291.8893 603.312,280.8544 611.1662,272.0224 618.7223,265.2253 622.2212,262.7398 625.7306,260.7593 628.7592,259.5525 631.7051,258.9356 634.1926,258.9361 636.7255,259.5849 638.9212,260.8918 640.7732,262.8222 642.2748,265.3413 643.4192,268.4143 644.4516,273.9866 644.6764,281.2385 644.0798,289.119 642.6521,298.1146 640.5573,307.3409 637.6607,317.4575 633.8317,328.7707 629.2973,340.6887 620.3527,361.5317 609.3887,384.3164 598.5341,405.2257 566.3094,465.3647 552.3604,493.4654 544.9546,509.9102 538.479,525.8505 532.935,541.192 528.421,555.9359 523.3054,575.7648 519.4243,595.6893 516.2862,620.062 515.0078,636.5756 514.4211,649.3401 514.2504,661.6657 515.1343,684.8453 515.9479,694.2176 517.0535,700.4548 518.3373,704.9763 519.2506,706.3623 520.0087,706.6858 520.9907,705.6756 521.7138,703.5862 523.0312,694.6279 523.611,682.4901 523.5638,667.5545 522.9407,654.1057 521.3568,634.1858 519.485,616.5569 517.2089,599.3896 511.109,562.887 507.5388,544.9822 503.6416,527.4343 498.8887,508.1216 493.6977,488.6767 488.4208,470.3923 482.9238,452.7759 477.1271,435.6383 471.1126,419.2662 464.5177,402.6136 457.709,386.6489 450.7632,371.5513 443.9163,357.8064 437.1208,345.2923 430.1925,333.6495 423.0592,322.8292 416.1113,313.5404 409.7072,306.2744 403.9181,301.0895 398.6808,297.8297 396.4259,297.0045 394.1112,296.695 392.4042,296.9734 390.7436,297.9126 389.4477,299.4922 388.5267,301.6814 387.8889,305.3817 387.8817,309.8803 388.4567,315.0966 389.6641,321.3906 393.7545,335.9575 400.0367,352.8027 406.9783,368.7223 415.2256,385.8752 433.9118,421.7958 453.2225,458.0012 463.8953,479.1754 471.0205,494.1721 479.281,513.2893 485.4158,529.1423 491.7484,548.1531 496.4432,564.9641 501.654,587.6013 505.5895,612.3475 508.1917,636.4542 509.3553,654.4428 509.9285,668.9733 510.008,696.8831 509.5697,711.3191 508.772,723.73 507.4703,735.2947 505.9894,742.7218 504.202,747.3025 503.27,748.4727 502.2499,748.9138 501.4907,748.7361 500.7004,748.0896 498.9375,745.2418 497.5833,741.5424 496.2292,736.1585 493.9154,721.6507 492.3591,702.5898 491.7212,682.073 491.9318,659.2638 492.909,636.1228 494.7298,612.0031 497.2471,587.8679 500.5469,562.514 504.2602,538.7121 508.6337,514.6337 513.6798,490.311 519.3585,466.0605 525.3749,443.0777 532.0415,420.1713 539.3579,397.3991 547.2527,375.0728 555.5151,353.8446 563.8739,334.3688 572.4827,316.2881 581.501,299.2458 590.7803,283.5371 599.9581,269.7559 609.2367,257.664 618.2376,247.9016 622.707,243.8379 626.9879,240.4745 631.0586,237.8022 635.2062,235.6767 638.7696,234.415 642.317,233.796 645.5121,233.9436 648.3721,234.8675 650.8761,236.5444 652.9893,238.8945 654.7127,241.8713 656.1497,245.7786 657.4414,252.8015 657.7013,261.0375 656.9463,270.2247 655.1755,280.7397 652.4288,292.2044 648.7226,304.4972 644.2367,317.0809 638.7124,330.6574 627.5332,354.9154 614.2057,380.5843 598.2766,408.8755 567.4219,461.4731 552.3025,489.0464 545.2714,503.1608 539.0631,516.696 533.9239,529.2282 529.1009,542.4657 524.4062,557.3594 520.3053,573.1542 517.6236,586.5066 515.2773,602.2881 513.6977,618.7558 513.0929,635.9472 513.5594,650.0667 514.3935,655.8322 514.9352,656.6343 515.6845,653.2161 515.8878,647.8739 515.4492,635.2577 514.587,623.8602 511.3132,596.0337 506.4447,566.1251 501.0756,539.5879 493.9589,510.0456 486.6723,483.7027 478.6791,458.6041 469.1872,431.9374 459.8505,408.8452 449.0298,385.7757 438.6723,366.6538 433.4726,358.335 428.0426,350.6753 423.023,344.437 418.6404,339.9504 414.9054,337.2585 411.9391,336.3769 410.7195,336.5302 409.7123,337.0675 408.9135,337.9715 408.2019,339.5905 407.7585,342.206 407.75,345.5 409.0478,354.1806 412.1869,365.7141 416.837,378.9349 422.0946,391.7378 430.7931,411.4404 457.7975,468.8413 467.6198,491.2042 476.6214,513.3209 482.7506,530.1779 486.9642,542.8809 493.5875,566.1423 500.015,593.5703 504.7792,620.5467 513.4203,680.711 515.9726,691.3429 517.375,694.25 517.8894,694.7116 518.4162,694.7575 519.1754,694.0291 519.9972,691.7204 521.1742,684.1541 521.5706,672.6572 521.3779,659.2315 520.539,643.6732 519.1473,627.2244 517.2816,610.6792 514.7616,592.4811 508.9339,558.4716 501.7834,525.2723 492.7567,490.1444 482.8513,457.3347 476.9937,440.1004 470.7784,423.0265 464.4333,406.7801 458.1733,391.8914 452.0675,378.4612 445.7882,365.7733 439.0616,353.2435 432.2711,341.6619 425.3481,331.0161 418.8363,322.2164 412.6742,315.1894 406.7846,309.8576 401.8328,306.8772 399.7285,306.2454 397.8827,306.1734 396.3033,306.6519 394.8487,307.818 393.8694,309.3473 393.1033,311.628 392.6768,314.8286 392.7226,319.1108 393.2921,324.0868 394.3971,329.8295 398.0113,342.546 403.639,357.7953 409.5262,371.7001 416.8855,387.3735 458.5495,469.3163 465.6706,484.0073 472.1389,498.3664 479.8014,516.7106 486.135,533.9217 491.4884,550.7481 496.9625,570.7808 500.844,588.466 504.3372,608.1571 506.8906,627.6367 509.0497,650.6341 510.4244,674.4063 511.5569,707.8874 512.815,784.0164 514.4529,810.5617 516.0308,820.8943 517.8438,827.9375 519.3947,831.4589 520.7593,833.4954 522.405,834.948 524.3706,835.333 525.625,835.0 526.803,834.2874 529.5089,831.3424 531.8027,827.1443 534.1264,821.3506 536.1094,814.7918 538.0599,806.342 539.732,797.1734 541.0989,787.3747 543.0336,764.7186 543.9064,739.5965 543.6641,714.1505 542.2898,685.2109 540.0753,656.97 537.0084,628.7658 533.1111,600.6447 528.1923,571.3159 522.3198,541.1881 515.6636,511.2616 508.2348,481.6528 500.2268,453.1324 491.4797,425.1452 481.748,396.9687 471.5616,370.1153 460.7868,344.2013 449.8526,320.2521 438.7379,298.1884 427.4461,278.0477 415.8927,259.5738 403.5854,242.152 391.524,227.3895 385.6411,221.0845 379.979,215.6324 374.5686,211.0549 369.4411,207.3734 364.0133,204.2567 359.2049,202.2503 354.8333,201.1839 350.5723,201.0374 346.8518,201.8926 343.6829,203.6888 341.0764,206.3649 339.0432,209.8601 337.7945,213.3543 336.9736,217.2065 336.5156,221.6079 336.4389,226.3856 337.4089,237.2892 339.861,249.7064 343.744,263.3626 348.8371,277.5558 355.172,292.3515 362.7317,307.7551 370.2351,321.5644 378.7136,335.9808 387.3912,349.7485 397.0506,364.1001 422.7818,399.6209 451.1859,436.7661 470.7792,462.9239 478.3801,473.7002 489.964,491.35 498.4505,505.9673 505.9224,520.7825 512.1358,535.8268 518.6411,555.9294 519.5,558.125 520.3125,558.9844 521.205,558.0807 522.0949,555.1548 530.6618,512.3023 537.8117,483.541 543.8741,463.1123 551.9317,439.5991 556.8817,426.9207 561.6776,415.838 566.5822,405.8234 571.5373,396.986 575.668,390.9878 579.5863,386.7919 580.9908,385.8256 582.501,385.341 583.6806,385.6991 584.3226,386.5377 584.7819,388.1099 584.9598,390.5059 584.3511,396.6326 581.9855,407.3515 579.0137,417.5817 571.982,438.0974 552.1495,490.7308 544.2961,512.5608 528.1746,561.5425 525.5773,567.9036 524.6713,569.2315 523.9824,569.459 523.468,568.069 523.2274,564.2604 524.1192,552.8067 526.75,533.75 528.978,521.2474 532.997,501.943 536.5851,487.1569 542.045,467.2284 547.2123,450.7421 552.8951,434.6083 557.8424,422.12 564.5332,407.1791 570.181,396.1451 575.9007,386.9925 580.8488,380.8616 583.0334,379.0324 584.8484,378.161 586.3216,378.2898 587.4186,379.4649 588.0694,381.6343 588.1954,384.1762 587.185,392.269 585.1286,401.2699 581.1392,414.3788 571.5814,441.0846 548.0407,503.056 536.8719,535.9972 525.3438,572.8262 523.6343,577.1521 522.7329,578.6352 522.0375,579.1173 521.3359,577.9512 521.1328,574.9004 521.2173,569.7104 521.8002,562.452 523.8033,544.9426 527.0959,525.0989 531.3732,504.5004 535.3683,487.6259 541.0999,466.8788 547.0612,447.6039 553.0413,430.6589 559.2345,415.142 565.9167,400.4488 572.4635,387.9708 578.5243,378.507 583.75,372.375 585.989,370.5876 588.2125,369.607 589.9141,369.8801 590.9712,371.1512 591.5377,372.9603 591.7897,375.7676 591.0734,383.3063 588.6477,394.2708 584.8562,407.0152 577.512,427.8845 554.4074,487.3675 546.4931,508.8819 536.5181,538.3952 522.3417,585.9601 521.0,589.25 520.0521,590.5488 519.5623,590.6968 519.0451,590.0903 518.7407,588.8796 518.5008,582.9855 519.6514,566.577 521.6132,550.4695 524.9556,530.0677 529.7023,506.4346 534.0872,487.5081 539.9021,466.0034 546.1929,445.5824 552.822,426.7763 559.847,409.2065 567.1982,393.1981 574.5159,379.4863 581.2552,369.2924 584.6495,365.156 587.6387,362.1809 590.1449,360.3895 592.3607,359.6286 594.1195,359.9712 595.351,361.4056 596.025,363.742 596.257,366.6061 595.582,374.2136 593.129,385.5331 589.457,398.2199 581.0785,421.6835 556.0055,484.6004 544.1077,516.6349 539.2303,531.3014 533.2944,550.6343 520.3889,597.6585 518.1752,603.6088 517.4172,604.8087 516.875,605.0 516.4976,604.6738 516.133,603.4933 515.6408,597.9186 516.2652,581.53 518.7069,558.7401 522.018,537.4466 526.5625,513.25 531.7899,490.1927 538.1125,466.0231 545.0477,443.3878 552.6637,421.5959 559.744,403.9041 568.3042,385.3031 576.4443,370.1064 580.3822,363.8388 584.3344,358.2716 588.1608,353.6429 591.4297,350.4383 594.4728,348.3 597.3146,347.3995 599.2409,347.925 600.703,349.8896 601.4014,352.2587 601.7061,355.3225 601.1625,362.8566 598.9809,373.6797 595.2897,386.6945 591.0525,399.1595 585.9026,412.8697 554.9498,488.5288 543.1181,520.3468 536.7542,539.8918 531.5342,558.0116 524.5633,585.1128 519.1108,608.312 516.4967,618.2347 515.125,622.0 514.2165,623.4005 513.742,623.5689 513.1544,622.9743 512.6932,621.5346 512.0833,614.9685 512.0438,607.4075 512.5179,596.8327 514.9228,570.8138 518.5646,544.9374 523.8557,515.7854 529.1016,492.0258 536.3465,464.3078 544.0782,438.8439 552.5043,414.732 561.3102,392.8006 570.6887,372.7868 575.5146,363.7009 580.064,355.9164 584.8547,348.6169 589.412,342.5641 593.6332,337.818 597.6111,334.2918 601.0252,332.3072 604.0238,331.7592 605.2774,332.0518 606.3575,332.7083 607.9674,335.0725 608.7475,338.1995 608.9807,341.9758 608.707,346.8623 607.9188,352.4854 604.8657,365.8242 599.8192,381.9411 594.9055,395.3246 588.7283,410.7415 563.749,468.6487 552.826,495.249 544.3038,517.9462 536.88,540.0979 531.0601,559.7746 526.0678,579.7584 520.8736,604.1433 515.8115,630.9319 513.3487,642.4103 511.364,648.585 510.5,649.875 509.787,650.037 509.1296,649.2546 508.3904,647.0702 507.6658,640.8622 507.2794,629.7983 507.6468,615.5476 508.3848,602.5631 509.6562,588.4455 514.0836,553.3959 519.3928,522.7367 525.9627,491.8858 533.7911,461.4913 542.9507,430.9827 552.7311,403.267 558.0617,389.8517 563.5477,377.0842 568.9001,365.5828 574.3276,354.8948 579.9351,344.8333 585.4303,335.9155 591.0889,327.7483 596.408,321.1277 601.4451,315.9412 606.2765,312.1926 610.1793,310.3818 611.8873,310.0875 613.625,310.25 615.1072,310.8967 616.3652,311.9785 617.3977,313.4734 618.2031,315.3594 618.9823,318.8736 619.2391,323.6623 618.8778,329.1245 617.9003,335.7647 616.3646,343.0518 614.3106,350.8823 608.6566,368.2255 602.5754,384.064 594.9735,402.0259 564.8209,467.9987 554.814,491.0765 543.0444,521.1694 538.5104,534.356 533.8671,549.1384 526.9001,575.2838 521.2892,602.6105 517.6717,625.4932 511.5392,672.3606 509.4232,684.9823 507.248,693.244 506.1133,695.1797 505.5,695.6875 504.8867,695.7266 503.9047,694.7493 503.0625,692.4844 501.2478,682.7848 500.2941,669.6757 499.9258,653.9532 500.2646,636.7396 501.2232,617.8464 502.7675,599.269 504.9527,579.528 507.5985,559.8296 510.5353,541.2392 514.1207,521.4691 518.1957,501.5235 522.6984,481.6922 527.2976,463.3509 532.4545,444.6777 538.1084,425.9576 544.0824,407.7992 550.4325,390.0696 556.5317,374.4529 563.1543,358.9452 570.1488,343.9666 577.4146,329.7828 584.6674,316.9693 591.6699,305.9118 599.0083,295.7929 606.2708,287.2831 613.0049,280.8589 619.2529,276.4538 622.1733,275.0772 624.6231,274.3588 627.2259,274.1357 629.5431,274.5473 631.2936,275.3831 633.051,276.8958 634.4912,278.9598 635.6028,281.546 636.629,286.2773 636.9718,292.4459 636.5659,299.5285 635.4464,307.3912 633.6481,315.9 631.2837,324.6664 628.0963,334.6998 624.2823,345.3182 616.1896,365.1783 605.8491,387.785 595.6165,408.512 565.3382,467.699 557.6003,483.7838 550.6771,499.1411 542.5911,518.5297 536.4836,535.0253 530.9567,552.5369 525.7327,571.989 520.9535,595.3654 517.4048,619.2968 514.9957,647.1471 514.0622,670.5198 513.8428,687.4211 514.1796,702.7481 515.0191,719.2188 516.0799,731.4684 517.1672,738.8579 518.835,746.6372 520.4998,750.866 521.3129,751.9707 522.4444,752.7074 523.791,752.3887 525.2951,750.3394 526.5873,746.9422 527.8102,742.0148 529.625,729.5 530.7757,711.9732 530.9376,694.9762 530.2449,674.4146 528.8183,653.2036 526.6407,631.0077 523.7711,608.1303 520.4341,585.732 516.5876,563.5964 512.3278,542.2392 507.2494,519.7928 501.3321,496.1928 495.0966,473.5481 488.4432,451.4628 481.4378,430.1928 474.1529,409.9649 466.061,389.286 457.6255,369.4008 449.1091,350.9196 440.6178,334.0354 432.2465,318.9137 423.8659,305.3011 414.5762,291.8452 405.7985,280.7885 397.4574,271.9855 393.5971,268.5824 389.7757,265.725 386.3451,263.6775 382.8341,262.1737 379.7239,261.4914 377.017,261.5904 374.7162,262.4307 372.8241,263.9722 371.3433,266.1749 370.1726,269.3933 369.4451,274.5001 369.573,281.0184 370.5678,288.449 372.3525,296.6427 374.9856,305.8824 378.3421,315.6988 382.3404,325.8104 387.1959,336.7966 397.2477,357.2547 409.2527,379.5958 422.1093,401.7144 452.7207,452.8568 469.0219,482.0463 475.4603,494.6072 482.8043,510.2928 487.9474,522.2999 492.1425,533.4301 497.6364,549.7031 501.6109,564.304 505.1036,579.8274 507.6068,595.4184 509.756,616.9703 510.2612,631.5018 509.6487,647.792 508.9769,651.7 508.6337,652.6213 508.1275,652.9999 507.5781,652.0469 507.0,648.75 506.4615,640.2066 506.4282,628.9478 507.0359,614.6532 508.0999,598.6841 509.4462,584.493 511.4384,567.9621 513.9807,550.2254 519.3918,519.9409 526.3371,488.3542 534.28,457.9542 543.0965,428.9928 553.011,401.0304 558.4038,387.5026 563.9603,374.619 569.4563,362.8706 574.8814,352.238 580.5283,342.1979 586.0852,333.2967 591.8707,325.0638 597.3097,318.3724 602.2303,313.371 607.0442,309.6882 611.2282,307.769 613.0581,307.4534 614.954,307.6158 616.3622,308.2019 617.6965,309.3468 618.6804,310.8109 619.5395,312.9386 620.2686,316.596 620.4824,321.4589 620.1077,327.122 619.1381,333.6357 615.5555,348.678 609.9684,365.7593 603.3006,383.0034 595.3932,401.6872 565.8618,465.9514 553.5902,494.0504 541.9839,523.8872 537.722,536.2856 533.7834,548.98 527.4017,573.0266 522.5462,595.4384 520.0554,609.2515 517.0932,629.5363 511.4508,675.9623 509.4551,689.1175 507.0885,699.6548 505.7778,702.1204 504.6337,702.7329 503.5435,702.0898 502.5741,700.1937 501.5122,696.2598 500.6065,691.1637 499.339,677.552 498.8358,661.4954 499.0689,643.6118 499.9712,624.2302 501.5408,603.9498 503.7809,582.5634 506.329,562.9065 509.4177,542.8832 513.0641,522.3745 517.2244,501.6758 521.529,482.4741 526.2356,463.6052 531.4891,444.4712 537.1343,425.6744 543.2291,407.0705 549.4803,389.5785 556.1811,372.4522 563.1802,356.067 570.535,340.2946 578.1443,325.4232 585.4382,312.5307 592.7431,301.0628 600.3735,290.6265 607.6515,282.167 614.8536,275.3942 621.2295,271.0504 624.2834,269.67 627.0861,268.9076 629.6285,268.7416 631.9014,269.1506 633.8959,270.113 635.8226,271.8628 637.1898,273.9386 638.3284,276.7479 639.39,282.0535 639.6675,288.3907 639.2034,295.6111 637.9602,304.0024 636.1065,312.5705 633.4278,322.3632 630.0145,332.9483 626.0505,343.7994 618.125,362.875 607.0904,386.4909 595.2662,410.0274 565.4248,467.4798 550.3292,499.0644 543.4213,515.4882 536.5144,533.9324 531.2513,550.0517 526.4555,567.0396 521.272,590.6876 518.2157,610.3762 516.7234,623.3457 515.2788,639.8261 514.3219,661.6383 514.3879,687.58 514.9886,700.9558 515.9499,713.5047 517.1938,722.2231 518.5456,728.4162 519.99,732.252 520.8281,733.2656 521.7,733.638 523.005,732.7822 524.3325,730.1668 525.25,726.875 526.1389,721.9259 527.3243,710.1297 527.82,692.7276 527.5748,675.4884 526.5642,656.6244 524.8523,636.017 522.515,615.3198 519.728,595.662 516.062,573.5845 512.0705,552.458 507.6775,531.7525 502.8754,511.4216 497.436,490.5569 491.5742,469.8752 485.4028,449.8018 478.8659,430.2169 472.1372,411.6868 465.1025,393.9269 457.4707,376.1298 449.486,358.9234 441.4098,342.9204 433.5117,328.6313 425.7128,315.9054 417.0514,303.3747 408.8806,293.0639 401.4079,285.1547 394.5359,279.5465 391.2717,277.6422 388.3982,276.5108 385.677,276.0119 383.336,276.2163 381.3724,277.0893 379.7834,278.5961 378.5664,280.7019 377.6273,283.7977 377.125,288.625 377.3159,293.9338 378.2258,300.5608 379.8092,307.8501 382.1275,316.0982 385.0457,324.8318 388.4535,333.8151 392.6241,343.6797 401.2771,362.0331 412.7472,384.2639 453.4952,456.4699 469.8127,487.3417 476.7285,501.8071 483.7731,518.2209 488.9915,531.7343 493.7638,545.8964 498.8375,563.2384 503.289,582.8008 506.5825,603.5589 508.3102,619.6372 509.3591,635.9017 509.659,651.1618 509.3665,662.8708 508.0047,677.6585 506.7906,682.1563 506.2048,683.1978 505.4877,683.6232 504.6181,682.6 503.6974,679.6992 502.5775,671.8468 501.7736,658.9965 501.7207,643.2578 502.2536,627.2092 503.3953,609.7715 505.3556,588.5019 507.3849,571.4095 509.9795,553.6065 513.1318,534.8743 517.033,514.1862 520.7542,496.5611 525.0329,478.3339 529.6446,460.4799 534.6199,442.856 539.813,425.9647 545.6009,408.7078 551.63,392.1853 558.0927,375.884 564.6346,360.7272 571.1655,346.8789 577.6533,334.363 584.346,322.673 591.1363,312.0495 598.0908,302.5142 604.5894,294.9858 610.9668,289.0879 616.6683,285.3103 619.2321,284.1987 621.5869,283.5956 623.7191,283.4937 625.8353,283.9693 627.6923,285.0983 629.1265,286.6516 630.2934,288.6605 631.2865,291.4347 632.0845,295.9228 632.281,301.238 631.876,307.2983 630.8061,314.536 629.1358,322.4886 626.9317,330.9003 620.8178,349.549 613.4774,368.0884 604.0283,389.327 593.9799,410.3086 565.6036,467.3529 555.3932,489.1918 547.6692,507.0383 540.046,526.8136 533.0244,548.0381 528.0766,565.6245 523.3906,585.9219 520.4565,602.1477 517.941,619.2171 516.0972,635.3867 514.7225,653.1523 513.4878,676.3066 512.9003,695.798 512.7509,741.6551 513.8562,774.8946 515.1051,790.6994 516.3701,799.7189 518.4779,807.9723 520.3456,812.4593 522.2057,814.76 523.5344,815.4162 524.7253,815.534 526.6178,814.7313 528.6463,812.4146 530.859,808.2478 532.7369,803.285 534.5311,796.8025 536.1345,789.3348 538.5718,772.2671 540.229,750.9602 540.8555,728.7104 540.4353,703.3968 539.093,676.9335 537.0278,651.9421 534.2099,626.9552 530.3272,599.5633 525.7343,572.0992 520.503,544.9258 514.6639,518.1746 508.209,491.8227 501.1889,466.0743 493.3406,439.966 485.0069,414.651 476.1753,390.0656 466.9327,366.4863 457.6568,344.8245 448.0307,324.3028 437.8887,304.5586 427.4604,286.0775 416.6841,268.8346 405.93,253.5269 395.7568,240.9231 385.8492,230.6202 380.8884,226.2333 376.1865,222.6041 371.7574,219.7134 367.2825,217.393 363.1609,215.8925 359.4097,215.1876 356.0464,215.2539 353.088,216.067 350.7318,217.4594 348.6231,219.5898 346.9223,222.3498 345.6468,225.6682 344.7832,229.4986 344.2969,234.1719 344.2611,239.3322 344.6589,244.9203 346.5798,256.6517 350.108,269.9649 355.1899,284.4931 361.756,300.0985 368.7478,314.7055 376.6784,329.7293 385.2361,344.5556 395.1137,360.4515 415.9484,391.5687 443.8038,430.349 464.8749,460.3773 478.1593,480.7291 487.561,496.448 494.0573,508.7051 498.8441,518.5092 501.875,525.5 506.9312,538.5476 509.4023,545.9263 512.4715,556.8473 517.121,578.4413 517.5802,578.0969 518.0,576.375 520.2421,560.0547 524.2204,535.5173 530.5142,505.2918 535.1413,486.5183 539.6806,469.7309 544.6197,453.588 550.0463,437.6089 555.9476,422.0548 562.2193,407.3643 568.2028,395.0969 574.3284,384.3055 580.1875,375.7436 582.7319,372.7353 585.3026,370.2904 587.2645,369.0069 588.8162,368.6054 590.4722,369.162 591.4825,370.4996 592.0919,372.6208 592.2487,375.1507 591.3698,383.4651 589.0745,393.5294 584.9031,407.4869 577.0587,429.4001 556.5828,481.6084 547.2951,506.6099 540.4585,526.4812 534.2478,545.957 522.869,585.1987 520.7344,590.5469 520.0642,591.6036 519.3532,591.9384 518.5773,590.4227 518.2503,586.9807 518.912,571.9464 521.625,549.3571 525.283,527.2056 529.5479,506.1089 534.7587,484.259 540.1303,464.8179 546.5713,444.3008 553.2188,425.3652 560.3017,407.7863 567.682,391.7939 575.1637,377.9179 581.875,367.75 585.0344,363.9239 588.1966,360.8549 590.6685,359.1671 592.9297,358.4968 594.6545,359.0213 595.9219,360.7031 596.5544,363.0334 596.7583,366.1548 595.9807,374.133 593.7183,384.5029 589.8791,397.5414 581.8873,419.7897 558.0093,479.4093 546.0241,511.2259 538.6054,533.2024 533.7135,549.0736 520.1876,598.7788 518.0027,604.9611 517.1539,606.3333 516.5938,606.625 515.7046,604.9028 515.3009,600.4907 515.3037,593.4736 515.8533,584.2623 518.0696,562.2358 521.9651,536.4418 526.653,512.1165 532.2276,487.5897 538.4084,464.3169 545.2516,441.9394 552.8575,420.3948 561.0,400.25 569.2126,382.6655 577.2487,368.0237 581.1452,361.9066 585.1767,356.3208 588.9116,351.8953 592.4973,348.4954 595.375,346.625 598.0079,345.9818 600.047,346.7221 601.4532,348.7675 602.0484,350.9841 602.334,354.63 601.6782,362.8843 599.75,372.25 595.8879,385.6362 591.1159,399.5274 584.1943,417.6271 553.339,492.9623 541.1087,526.6449 536.0988,542.1987 530.9149,560.2326 525.9595,579.4716 516.6006,618.9283 514.7222,624.412 514.0,625.5 513.2485,625.7637 512.6289,624.8672 512.1549,623.2 511.7158,618.4187 511.6667,608.4813 512.1888,597.1768 514.5594,571.8306 518.7082,542.2917 523.61,515.8441 529.7661,488.0101 536.4407,462.7672 544.1209,437.6204 552.793,413.0865 562.2934,389.8085 571.3679,370.6013 576.0176,361.9553 580.7694,353.9132 585.5162,346.7038 589.9084,340.8553 594.2908,335.9576 598.2459,332.5019 601.9413,330.3824 603.5412,329.942 604.9815,329.9141 606.0839,330.2222 607.2559,331.0226 608.7946,333.553 609.5542,336.8822 609.75,341.125 609.4066,346.3483 608.5486,352.3027 605.5376,365.1435 600.1866,381.7247 595.553,394.3867 590.5688,406.7754 564.7132,466.7102 553.2137,494.4616 544.5249,517.1836 536.6694,540.9951 530.0215,563.8919 524.1894,588.3137 512.7675,646.2664 510.715,652.285 510.1244,653.1962 509.3412,653.4733 508.7443,652.8417 508.0842,650.9125 507.1793,644.2355 506.7362,631.2395 506.9664,620.0027 507.9136,604.0869 509.2827,588.1468 511.1361,571.7044 513.4858,554.5208 518.8028,523.4964 525.7329,491.124 533.3223,461.4703 542.146,432.0942 552.0741,403.6236 557.343,390.2177 562.9471,377.0514 568.6641,364.6808 574.2596,353.5763 579.9509,343.2952 585.6923,333.9296 591.4462,325.5952 597.0924,318.5521 602.207,313.3363 606.9288,309.7225 611.3787,307.6981 613.2994,307.4164 615.0007,307.6106 616.4701,308.2726 617.6954,309.394 619.4792,312.9617 620.2568,316.8192 620.483,321.5069 620.1577,326.9393 619.2625,333.1348 617.7466,340.4233 615.6377,348.5793 609.9492,366.1618 603.5652,382.6581 595.6486,401.303 566.3649,464.7365 553.5001,494.2493 547.5025,509.2288 542.1896,523.5368 537.2642,537.9724 532.875,552.125 529.1255,565.7745 525.5751,580.6565 519.8984,610.625 517.0867,629.2037 511.3421,676.7452 509.036,691.6073 506.8705,700.3347 505.6528,702.3704 504.5087,702.8162 503.4406,702.052 502.5156,700.125 500.5524,691.0228 499.2702,677.3153 498.775,662.044 499.0015,643.4898 499.8269,624.5224 501.3367,605.0369 503.6167,583.3103 506.0811,564.0469 509.0564,544.7079 512.6511,524.5165 516.828,503.7302 521.2761,483.777 525.9216,465.013 531.1161,445.9591 536.8141,426.842 542.8479,408.2499 549.243,390.1317 555.525,373.8751 562.1026,358.2945 569.2102,342.8697 576.6005,328.2317 584.0011,314.9376 591.3085,303.1897 598.8009,292.6343 606.2369,283.6566 613.4106,276.5379 619.8784,271.7032 622.6847,270.2076 625.6538,269.1109 628.363,268.6421 630.8027,268.7787 632.9633,269.498 634.8354,270.7775 636.4094,272.5943 637.6758,274.9261 639.0919,279.9195 639.6791,286.09 639.4706,293.2199 638.4398,301.5922 636.6238,310.7197 634.1624,320.1401 630.91,330.5211 626.8237,341.884 618.6181,361.7557 607.3644,385.8939 596.221,408.1456 566.1289,466.1117 558.1418,482.3814 550.9145,497.9989 543.4053,515.7169 536.1561,534.7689 531.0869,550.1334 526.5979,566.2326 523.8874,577.8774 521.022,592.0619 517.8722,612.3681 516.4782,624.5624 515.4245,637.2042 514.3219,662.6129 514.4254,689.5925 514.9647,700.9689 516.119,714.4186 517.3791,722.9655 518.634,728.2933 520.2987,732.3736 520.9174,733.0307 521.8865,733.3579 523.0238,732.5748 524.2938,729.8634 526.1248,721.252 527.374,709.0885 527.8396,693.9994 527.6095,677.1122 526.661,658.2786 525.0475,638.598 522.7617,618.042 519.9541,597.7453 516.4103,575.9669 512.4607,554.5584 508.1666,533.8666 503.6463,514.3421 498.8671,495.6959 493.095,475.1103 486.9922,455.0332 480.5255,435.3595 473.7537,416.3156 466.8698,398.447 459.7591,381.4297 451.9721,364.2108 444.0647,348.1058 436.1359,333.2983 428.2843,319.9717 420.5098,308.1643 412.4203,297.3492 404.6501,288.4803 397.6361,282.0182 394.335,279.6151 391.2843,277.859 388.5,276.75 385.7988,276.2396 383.4829,276.4064 381.5445,277.2173 379.9757,278.6395 378.7685,280.6399 377.6555,284.4353 377.2375,289.7809 377.5928,295.6371 378.7201,302.5474 380.6409,310.4819 383.3548,319.4051 386.8377,329.2497 390.8602,339.3772 399.6563,358.5315 412.5384,383.602 421.4658,399.8969 456.4101,461.7322 465.3109,478.5144 473.0152,494.039 482.0434,514.2561 489.286,532.5069 495.5288,551.6329 500.0,568.375"/>
  </g>
</svg>
