<?xml version="1.0" encoding="utf-8" ?>
<svg xmlns="http://www.w3.org/2000/svg" xmlns:cc="http://creativecommons.org/ns" xmlns:dc="http://purl.org/dc/elements/1.1/" xmlns:ev="http://www.w3.org/2001/xml-events" xmlns:inkscape="http://www.inkscape.org/namespaces/inkscape" xmlns:rdf="http://www.w3.org/1999/02/22-rdf-syntax-ns" xmlns:sodipodi="http://sodipodi.sourceforge.net/DTD/sodipodi-0.dtd" xmlns:xlink="http://www.w3.org/1999/xlink" baseProfile="tiny" height="27.09333333cm" version="1.2" viewBox="0 0 1024.0 1024.0" width="27.09333333cm">
  <metadata>
    <rdf:RDF>
      <cc:Work>
        <dc:format>image/svg+xml</dc:format>
        <dc:source>vpype read './original_svgs/Strange Attractors #453.svg' linemerge linesimplify write './Strange Attractors #453.svg'
</dc:source>
        <dc:date>2024-08-05T01:36:01.578196</dc:date>
      </cc:Work>
    </rdf:RDF>
  </metadata>
  <defs/>
  <g fill="none" id="layer1" inkscape:groupmode="layer" inkscape:label="1" stroke="black" style="display:inline">
    <polyline points="460.375,655.125 463.8668,646.3345 466.7335,636.7496 468.995,626.3502 470.6714,615.1163 471.8294,602.3543 472.4542,588.1519 472.5235,573.1928 472.0537,557.5562 470.9978,540.4603 469.2723,521.402 466.983,501.3126 464.2043,480.9772 461.1706,461.8276 457.78,442.9387 453.3284,420.589 448.6368,399.0583 443.753,378.5792 438.6408,359.0253 433.5555,341.3012 427.802,322.9604 421.6086,304.817 415.3662,288.0966 409.1461,272.9615 403.0118,259.5457 396.6876,247.3225 390.2329,236.4477 384.0663,227.638 378.0843,220.7734 375.1913,218.1636 372.6523,216.3374 370.2639,215.0953 367.8711,214.3893 365.7154,214.3262 363.7984,214.8828 362.1222,216.0355 360.6887,217.761 359.3498,220.4042 358.333,223.73 357.6412,227.7033 357.273,232.4807 357.6575,243.2995 359.4006,255.8194 362.4688,270.0732 366.7583,285.539 372.1305,301.6553 378.7957,319.0896 384.7812,333.3166 391.478,348.1509 398.263,362.1766 406.1207,377.4919 423.2109,408.8611 460.4748,474.3228 473.507,499.0699 480.7595,514.0627 486.4795,526.9764 493.3214,544.0889 498.1774,557.9764 502.1281,571.1238 505.1842,582.7396 508.9428,599.916 511.0978,611.5783 513.8772,631.269 516.2155,651.9859 520.3894,706.1212 521.8033,720.642 523.0794,729.4798 524.0938,734.125 525.6015,738.1873 526.9531,739.3906 527.9238,739.2793 529.0,738.5 531.3161,735.0151 534.042,728.8183 537.5597,718.9328 543.7601,698.8981 574.3166,593.612 593.7314,530.857 607.1562,490.0962 620.5093,451.1977 631.89,419.6672 654.7823,358.0021 657.2815,349.8507 657.6672,346.0177 657.2624,345.4198 656.2744,345.5672 652.75,348.625 646.4282,355.8915 637.3544,367.2247 609.9414,403.5146 595.2294,423.9097 584.232,439.8204 570.2331,461.728 556.8465,484.8004 547.144,503.8408 538.0879,524.2469 531.3326,542.2637 525.4886,561.4452 520.9013,579.8096 516.6667,602.1265 514.1101,620.8263 512.0312,642.7815 509.7657,676.8909 508.2087,706.982 507.5556,713.0324 506.8125,714.7031 506.0414,712.4828 504.3505,700.8482 496.1518,625.2439 491.1403,585.9005 484.9985,543.1151 478.3366,503.3718 469.9394,458.9359 461.2552,418.8438 450.8951,377.1785 440.0541,338.7593 434.1976,320.0386 428.3047,302.5825 422.2258,285.9684 415.8027,269.7768 409.2706,254.6469 402.6957,240.7424 396.3071,228.5216 390.0019,217.773 383.725,208.4803 377.495,200.6838 371.6493,194.7785 365.9725,190.5931 363.4834,189.3434 360.8829,188.5068 358.7004,188.2501 356.4621,188.5157 354.625,189.25 352.764,190.6225 351.2946,192.3148 349.8902,194.6781 348.6229,197.8335 347.6463,201.5364 346.5655,210.4401 346.6477,221.1008 347.9339,233.5081 350.3669,246.9634 353.9304,261.5937 358.5696,277.1821 364.0678,293.0822 370.8257,310.2902 378.6728,328.1911 387.695,346.9862 398.101,367.0661 407.7005,384.4136 419.1185,404.0225 457.5797,467.0168 472.6603,492.5893 479.2821,504.5392 485.6277,516.7902 491.1855,528.1851 495.7767,538.4447 501.1638,552.0218 505.8008,565.1233 510.1551,579.3009 513.6759,592.5422 516.9578,607.5686 519.6906,622.6509 525.7593,666.4977 528.103,680.906 529.2873,685.8659 530.788,690.2827 532.1694,692.5454 533.457,693.4206 534.8384,693.3069 536.5363,692.0056 538.1897,689.8606 539.967,686.756 544.2254,676.9826 549.9187,661.2084 556.1237,642.3858 582.4536,558.6534 595.9282,516.9016 635.2936,401.753 638.8077,389.5782 639.4032,386.1047 639.2848,384.0606 638.7654,383.4564 637.6951,383.5621 634.2136,386.3566 628.3492,393.1064 620.2477,403.5657 610.6804,416.8073 600.6498,431.4468 591.6843,445.2769 582.8914,459.6232 570.0723,482.3616 559.4122,503.6485 549.8598,525.8762 545.3628,537.7544 542.0649,547.4341 535.3362,571.0881 530.5,593.125 526.2668,620.9836 524.2189,643.6176 523.4836,656.9703 522.9305,675.6087 522.9066,687.0729 523.3405,703.1195 524.4644,716.3309 525.2829,721.7836 526.8261,727.3292 527.5035,728.4383 528.5327,729.2019 529.5402,729.206 530.624,728.4519 533.0587,724.7485 536.3609,717.2209 540.1919,706.5201 546.5816,685.8576 575.2516,588.8784 593.8892,529.0816 605.2847,494.4104 616.553,461.6246 650.0028,368.9659 653.1296,358.7454 653.6596,355.9308 653.6221,354.2487 653.0214,353.6557 651.6994,354.2129 647.023,358.6843 639.4211,367.7195 626.9688,383.7031 613.7376,401.4644 598.6662,422.4644 588.0629,437.9651 577.975,453.5784 563.054,478.667 556.6358,490.5191 550.9686,501.7768 545.6061,513.3326 540.6921,524.9385 536.3724,536.2837 532.6975,547.172 526.0623,570.5322 521.2264,592.7832 517.7643,615.2838 515.0796,640.7483 513.4372,665.208 512.2784,698.2731 511.5335,787.672 511.0,804.25 507.6562,729.7032 504.3366,679.8903 501.9549,651.9692 499.1384,623.4742 495.7027,592.7247 492.0911,563.7481 488.1648,535.4552 483.9097,507.7467 479.0395,478.8932 473.9206,451.0098 468.5462,424.0427 463.0033,398.3871 457.1961,373.5693 451.1724,349.7916 444.4228,325.2145 437.2701,301.1419 429.9679,278.4142 422.4637,256.8416 414.8124,236.6037 407.2025,218.1761 399.5492,201.3294 391.9433,186.2479 383.6973,171.6719 375.533,158.995 367.3203,148.0236 359.4113,139.2576 351.9161,132.7949 348.4577,130.5161 345.1355,128.8151 341.8879,127.6705 338.5203,127.0758 335.6803,127.1164 332.7424,127.7792 330.5609,128.762 328.5328,130.1335 324.9495,133.9933 322.0171,139.2596 319.6424,146.2854 318.1308,154.1399 317.3349,163.4482 317.3398,173.5796 318.091,184.4688 319.5994,196.3658 321.8804,209.1828 324.8419,222.4004 328.5448,236.2714 332.7152,249.81 337.3955,263.223 342.8246,277.2072 348.8379,291.3209 359.6818,314.2554 371.956,337.5074 385.1628,360.1403 400.0477,383.4731 415.3749,405.8553 430.1682,426.2765 484.1674,496.577 498.6983,516.8709 507.8059,530.7615 517.3772,547.1667 526.1871,565.0555 529.75,573.25 542.2831,605.1748 545.25,610.0 546.2373,611.0164 547.6301,611.7982 549.75,611.875 551.5481,610.8747 553.8808,608.4282 556.4214,604.7371 561.875,593.875 568.8867,576.7638 582.0765,540.3556 599.4216,488.2719 603.8576,473.6939 606.4008,464.2378 607.5766,457.8826 607.4252,454.4001 606.6175,453.7235 605.2058,454.3813 603.3438,456.1309 601.0096,458.9747 593.5228,470.1795 586.7477,481.8337 579.4795,495.9038 573.1889,509.3531 567.4114,523.2511 562.1231,537.5194 558.4788,548.9221 554.3394,563.6305 551.1711,578.1211 549.2672,589.4625 547.9871,599.5942 547.408,610.852 547.9984,617.5541 548.6922,619.3955 549.8727,620.4776 551.351,620.0268 553.125,618.125 555.3513,614.5327 557.8703,609.5086 564.0045,594.8608 572.413,571.5882 585.5251,533.3409 604.4463,474.863 609.5875,456.3649 610.462,450.84 610.333,447.9771 609.5963,447.353 608.1228,447.9843 605.912,450.0046 603.5,452.875 596.1637,463.3523 588.675,475.8841 580.6498,491.0256 573.0551,506.952 567.2832,520.5589 561.5602,535.5833 556.4022,551.523 553.5135,561.9694 549.8762,577.2189 547.1742,592.0794 545.4304,607.5479 545.1283,618.6361 545.4111,622.6503 546.125,626.25 546.6999,627.6338 547.7814,628.5338 549.1387,628.3284 550.9508,626.6747 552.8357,623.882 554.9325,619.8866 560.4285,607.1015 567.7747,587.3297 588.8756,525.0681 606.6812,470.835 610.1957,459.1326 612.6298,449.6927 613.7109,443.8594 613.572,440.8699 612.8324,440.0356 611.1602,440.6441 608.6462,442.9652 605.5972,446.6501 597.0838,459.0264 587.916,474.2793 578.7317,491.775 572.1865,505.5854 564.9609,522.5473 558.5904,539.6181 553.8741,554.6235 549.5971,570.9818 546.6201,585.0523 544.0718,601.5244 542.6122,618.5474 542.625,629.0 542.9538,632.3129 543.6445,635.2402 544.3271,637.0785 545.3906,638.1875 546.7541,638.0965 548.3982,636.6316 550.6153,633.3725 553.0124,628.8429 558.8035,615.179 566.2837,594.7017 591.9651,518.2719 611.6253,458.024 614.6831,447.843 616.4271,440.8397 617.4525,435.271 617.3818,432.1584 616.9587,431.5458 616.3699,431.3751 614.3241,432.4306 611.6906,435.0856 607.5604,440.2173 598.1381,453.9792 587.5259,471.7166 578.0004,489.5293 570.1708,505.8008 563.103,522.3582 556.8336,539.5643 551.9155,554.948 547.602,571.1699 543.5517,591.0213 541.3947,605.2926 539.8564,621.3403 539.4928,636.385 539.8374,641.5104 540.6425,646.0784 541.5241,648.6488 542.9164,649.811 544.4235,649.5304 546.018,648.0792 547.928,645.3161 549.732,641.897 555.6615,628.1364 562.3803,609.7337 616.0938,447.8438 619.0999,437.9344 621.1049,430.1057 622.079,424.707 621.9356,421.7502 621.4535,421.1822 620.6335,421.1299 618.1309,422.8027 614.6648,426.5455 610.1238,432.3568 598.863,448.906 586.105,470.1603 576.125,488.75 567.1213,507.5679 560.0701,524.1555 553.2379,543.0135 548.341,559.2175 543.813,577.4862 540.0592,596.649 537.393,616.315 535.9465,634.7311 535.967,649.4271 536.4685,655.0971 537.3307,660.3073 538.4014,662.9712 539.9585,664.4789 541.3438,664.2188 543.016,662.715 544.714,660.2531 546.7344,656.4844 551.4493,645.3806 557.8099,627.8827 594.0196,517.7043 621.6591,435.0352 626.8534,417.0248 627.75,412.0 627.625,409.1065 627.1875,408.4688 626.2153,408.4262 623.4752,410.4462 619.0477,415.3683 613.125,423.0 606.8223,431.8756 599.6474,442.7205 586.0407,464.9811 575.9009,483.225 565.7582,504.0099 557.573,522.954 550.8744,541.2351 544.4435,562.1575 539.8649,580.4983 536.2278,599.9653 533.4038,621.1629 532.2139,634.4671 531.5,648.625 531.6541,665.9052 532.1539,672.1158 533.1736,678.7899 534.3207,682.0024 535.1631,683.2829 535.9585,683.9071 537.3438,683.7656 539.016,682.3327 540.6901,679.9068 542.5051,676.493 546.8011,666.3412 552.9185,649.2463 594.2198,520.5896 630.9021,412.4082 634.8977,398.5294 635.5422,394.4112 635.3346,392.3472 634.8786,391.7929 633.889,391.8203 632.469,392.6907 630.5899,394.4008 625.4481,400.2008 618.3964,409.2898 609.9628,421.012 601.0676,434.1102 592.1483,447.961 584.1812,461.0407 572.115,482.5866 561.9326,503.0091 552.215,525.6773 545.2963,544.745 538.852,566.6294 533.5873,589.6655 529.6707,613.0387 527.2451,636.1621 525.8121,664.0193 525.7792,678.0708 526.25,691.25 526.8882,698.6911 528.1396,707.1064 529.4439,710.955 530.2374,712.1655 531.0259,712.7073 532.2431,712.6219 533.6295,711.5534 536.3914,707.2107 539.724,699.5589 544.3143,686.6268 551.1402,665.2588 574.699,587.371 592.1117,532.1302 614.0296,466.7377 643.0878,384.4114 646.4205,373.4076 647.0348,370.1224 647.0008,368.1735 646.3621,367.4055 645.1365,367.7402 640.748,371.6748 633.7711,379.9442 622.9372,394.0702 611.0032,410.3675 599.5057,426.8637 588.1024,444.045 577.896,460.2986 564.5177,483.8943 558.183,496.167 552.6957,507.6237 547.9097,518.5232 543.4635,529.6505 539.2851,541.1501 535.625,552.375 531.9516,565.1412 528.8943,577.4927 526.2814,589.9718 523.6717,604.7014 522.0522,615.7373 520.1663,632.5836 518.4513,656.0371 517.651,677.3974 517.3286,697.5489 517.4079,716.3222 517.8806,733.478 518.7361,748.7887 519.9933,761.5319 521.4139,768.4425 522.2085,770.1656 523.1836,770.9512 524.0,770.875 524.8403,770.1632 526.7226,766.8687 529.2728,760.3 532.3666,750.646 558.741,653.6667 570.6327,611.5048 585.9268,560.0861 602.4927,507.7908 614.8828,470.7 627.3812,435.2732 646.6956,383.4898 667.4488,330.8083 669.9606,323.3555 670.3906,320.0469 670.0477,319.6741 669.4183,319.812 667.3205,321.534 658.1769,332.1902 618.7905,381.9149 591.1254,417.9647 577.1506,437.2875 564.3927,456.1006 553.4532,473.4563 543.8604,490.1686 536.3918,504.5899 529.9416,518.9254 523.3659,535.4454 517.8361,551.8945 514.109,565.058 510.0737,582.4594 506.7897,599.7762 501.8833,628.7556 500.6137,632.645 500.1108,633.2631 499.5904,633.3039 498.6778,632.2292 497.6676,629.543 495.1553,618.803 479.6351,528.7152 472.3499,490.7182 466.1022,461.0435 458.9505,430.4539 452.0514,403.4538 445.3431,379.6807 437.6214,354.9143 428.6606,328.9353 420.1233,307.2146 410.5989,286.48 406.0161,277.6761 401.5718,269.9518 397.3017,263.3898 393.4056,258.2685 389.4323,254.014 385.7012,251.0336 382.4523,249.5585 379.707,249.5619 377.4865,251.0173 375.9209,253.644 374.6871,258.9305 374.4443,265.9697 375.1383,274.5231 376.786,284.6732 379.1457,294.8886 382.4618,306.5136 386.6065,319.0927 391.5904,332.696 401.1908,355.7537 414.5113,384.4968 427.0218,409.6884 454.0453,462.258 470.0259,495.5754 477.2874,512.6624 483.2454,527.8324 488.0158,541.7496 492.3742,556.0196 497.3109,575.6544 500.591,591.4441 503.4013,608.997 505.9814,631.6088 507.4353,652.5274 508.3603,682.9951 508.4101,697.0794 507.8509,712.3476 507.4028,716.338 507.1806,717.1204 506.7694,717.3376 505.3784,710.4189 497.9194,640.4327 491.7555,589.5438 485.5073,545.8785 478.8301,505.0385 470.4551,460.8201 460.5572,415.0672 450.8204,375.7202 440.6434,339.9446 434.3155,319.859 427.8354,300.7516 421.2664,282.8178 414.8021,266.5544 408.3621,251.7268 401.7981,238.0382 395.272,225.771 388.6408,214.6747 381.9977,205.0136 375.6516,197.2937 369.8733,191.7723 364.3052,188.1253 361.6925,187.0747 359.2558,186.5603 357.0005,186.5685 354.6516,187.2006 352.8023,188.2831 350.9311,190.1074 349.5117,192.2019 348.1456,195.1471 347.0601,198.6611 346.2967,202.5081 345.5968,211.5884 346.0194,222.494 347.5265,234.6756 350.1337,248.2977 353.709,262.6315 358.305,277.7669 363.8391,293.4771 370.8009,311.0091 378.875,329.375 387.2739,346.8363 396.6897,364.9326 407.299,384.0745 419.4161,404.9044 459.9299,470.8229 469.8927,487.6038 485.8827,516.9913 491.2515,527.9918 496.9234,540.6402 502.0365,553.3589 506.9866,567.5079 510.7525,579.6807 513.8867,591.7949 517.2339,606.4714 520.511,624.208 525.4398,659.1389 528.4027,677.4225 529.7581,683.3915 530.787,686.527 532.141,689.051 533.7278,690.4027 535.3386,690.34 536.7584,689.3437 538.4748,687.1215 540.5625,683.4844 544.7828,673.9734 550.748,657.6416 594.1529,521.8788 608.688,478.5097 634.5891,402.9701 637.7514,391.9649 638.2488,388.6844 638.1441,386.6116 637.625,385.8594 636.7092,385.8882 635.3878,386.6754 633.219,388.6216 627.7532,394.7683 620.303,404.3443 611.2017,416.9691 600.6663,432.4382 591.3829,446.7116 583.1947,460.0621 570.1838,483.2045 559.7719,504.0964 550.0837,526.8652 542.6522,547.7973 536.9311,567.4649 531.4882,591.4739 527.7411,614.9153 525.1777,639.3202 524.1898,655.9563 523.883,666.5113 523.7287,681.1997 524.1925,698.5716 524.9993,709.8723 526.0355,717.0486 527.4861,722.1065 528.5139,723.7269 529.4001,724.3285 530.359,724.222 531.4361,723.3705 534.0778,719.3332 537.254,712.1364 540.9624,701.809 550.0037,672.8155 576.013,585.3661 593.4509,529.7069 604.6765,495.5967 617.1802,459.1319 628.9897,425.7433 647.0,376.25 650.8885,363.8111 651.5961,360.4534 651.6161,358.4805 651.3627,358.0021 650.9042,357.8532 649.5176,358.459 644.594,363.2174 635.7104,373.936 623.2175,390.2275 608.8468,409.7999 595.8386,428.3323 584.1753,445.8205 573.7323,462.4758 566.7121,474.3967 560.3818,485.884 554.4398,497.4898 549.0163,508.9949 543.5859,521.6477 538.1531,535.4938 534.4266,546.165 530.8973,557.6053 527.9714,568.219 525.434,578.9892 522.6401,592.6552 520.6735,604.4598 518.5469,619.8254 516.6326,638.5581 515.0235,663.1338 514.238,682.7032 513.7032,717.0511 514.2111,766.9737 515.7269,802.213 516.7579,811.594 517.5692,814.5616 518.3249,815.5906 519.4064,814.9431 520.8308,812.1552 524.6266,799.5166 547.816,703.2993 557.6004,665.0527 566.8817,630.495 582.935,574.33 599.4655,520.6608 619.7979,459.6719 630.3533,429.7813 640.6305,401.8294 658.5736,356.0601 670.7981,326.6525 686.5554,290.0377 688.1276,286.003 688.5236,284.1525 688.2038,284.0306 687.3548,284.6611 684.2398,288.1321 645.971,335.6794 578.6572,416.0805 560.2593,439.2068 545.1432,459.8302 537.5792,470.9436 531.2685,480.9865 524.3741,492.913 518.2323,504.416 512.7187,515.8394 508.0683,526.5022 495.3547,560.7827 493.1019,564.75 492.0648,565.75 491.2764,566.0078 490.5558,565.8767 489.686,565.19 488.1126,562.5767 486.3651,558.159 484.3953,551.6351 482.0302,542.3971 467.5277,478.8769 458.7961,443.5936 447.4676,403.0893 442.0183,385.7707 436.0914,368.2225 430.6687,353.5261 425.5246,341.07 419.4622,327.824 414.1124,317.6669 409.021,309.9034 404.7866,305.0332 403.0155,303.7147 401.4692,303.1639 400.099,303.4186 399.1093,304.3526 398.2031,306.9219 397.9538,310.8312 398.3838,316.5361 399.4487,322.942 403.5793,339.1412 409.7844,357.9349 415.7365,373.6402 422.0734,389.0148 459.5961,473.8166 470.035,500.1035 476.6791,519.3598 483.1852,541.5728 487.4039,559.8748 490.3399,577.1212 491.0161,584.7598 490.694,587.171 489.7901,585.3473 487.1287,574.1322 473.3152,504.2503 461.7396,452.6863 456.7212,432.6634 450.8686,411.0707 445.1735,391.587 439.4694,373.5845 432.2716,352.7261 425.4378,334.9759 418.6084,319.5495 411.7813,306.1534 405.5371,296.0208 402.8261,292.4904 400.0412,289.5501 397.587,287.6904 395.4803,286.8894 393.7374,287.1249 392.2641,288.5492 391.2234,291.5882 390.8923,296.3624 391.3696,303.0216 392.5774,310.7628 394.3156,318.5013 396.8531,327.6606 403.9678,348.9804 410.8761,366.5668 420.7916,389.7448 450.6076,453.84 463.3102,482.366 474.3458,510.3908 480.9682,529.8745 484.4668,541.6763 488.3696,557.0386 490.4835,566.3118 492.8407,578.6406 494.8906,593.2031 495.9537,603.963 496.2287,612.8351 496.0228,614.7655 495.5725,615.3517 494.233,611.716 491.789,600.352 476.1807,513.9928 471.7238,491.8972 464.0796,456.7778 458.4984,433.1866 452.5542,410.529 445.4457,385.4726 438.6018,363.3631 430.2573,339.1566 421.7498,317.1876 413.9311,299.6566 406.308,285.3455 402.4387,279.0672 398.5611,273.5472 394.9531,269.2561 391.8297,266.3792 388.83,264.5788 386.145,264.0362 384.0,264.8438 382.395,266.9412 381.1481,271.2858 380.7894,276.8746 381.3243,284.2973 382.7285,292.9695 385.0242,303.1559 387.9055,313.6078 391.6568,325.2543 396.2777,338.0592 404.7644,359.1985 415.7108,383.5815 426.9011,407.1893 455.4753,464.9029 466.8505,489.7011 473.0033,504.1587 478.1722,517.5482 483.3247,531.9629 487.4156,544.8711 491.9456,561.0193 495.8361,578.1497 497.8456,588.7116 500.4796,606.6998 502.413,626.4791 503.3223,642.7888 503.5509,652.6667 503.3667,660.2386 503.0081,664.4161 502.4711,665.8443 501.9409,665.3195 501.422,663.7602 499.6315,655.1194 488.9245,580.1339 482.3591,538.4574 477.1665,508.8982 471.0235,477.3015 463.7746,443.2919 456.4742,412.7271 447.047,377.4155 437.7922,346.2866 427.9416,317.1509 422.6302,303.1007 417.2269,289.8592 411.7853,277.548 406.518,266.6037 401.1579,256.4815 396.0483,247.8552 390.9576,240.3039 385.8633,233.874 381.1453,229.1074 376.8568,226.0264 373.0512,224.6531 371.4425,224.6041 369.8012,224.9874 368.497,225.6871 367.1582,226.9152 365.0711,230.6352 363.6499,236.8014 363.2668,245.3696 364.0219,255.4803 365.867,266.89 368.7954,279.6889 372.7758,293.6899 377.5136,307.9183 383.148,322.7362 394.6976,349.5013 408.0432,377.1627 427.7202,414.3018 456.3451,466.6476 472.3491,497.8108 480.3336,514.9493 486.3446,529.1016 492.394,545.354 497.1014,559.89 501.3909,575.5389 504.4431,588.615 508.2007,608.5598 510.5198,624.8601 512.3271,640.6625 514.099,661.5064 517.4352,722.9385 519.4147,750.5749 520.182,756.7025 521.3771,762.6922 522.4343,765.3706 523.6791,766.5699 524.4536,766.4679 525.3355,765.7114 527.6797,761.6083 530.1369,755.2197 533.2547,745.4699 538.3365,727.735 558.9894,651.8036 572.0646,605.5321 586.5105,557.3301 602.2075,507.8237 614.0547,472.6048 627.1845,435.4088 642.4709,394.042 665.2229,335.4855 668.0514,327.2408 668.6297,323.5897 668.3302,323.2131 667.6621,323.3402 665.2227,325.3477 655.7505,336.4779 616.1599,386.7763 589.6765,421.7003 575.9768,440.8633 563.9431,458.8795 552.985,476.6755 543.3779,493.8318 536.0086,508.7435 529.2269,524.3889 523.216,540.2086 518.4983,554.9701 514.8773,568.5252 511.8223,581.7851 508.3746,600.2038 503.1489,634.8298 501.7637,640.3763 501.265,641.3401 500.6543,641.7324 499.666,640.7441 498.7483,638.3634 496.1241,626.458 486.9357,569.4554 480.0398,529.3406 473.681,495.8244 466.7321,462.2983 460.206,433.7758 452.854,404.6796 445.4646,378.0888 437.9962,353.808 428.2828,325.7271 418.6534,301.2276 409.5125,281.2431 404.6516,272.0076 400.0794,264.1528 395.4779,257.1435 391.1352,251.4798 387.094,247.2173 383.3475,244.3817 380.0094,243.0072 378.3794,242.8635 376.9127,243.1494 374.692,244.7139 372.8713,247.9721 371.6508,253.5336 371.4134,260.6379 372.1627,269.4663 373.849,279.5321 376.5096,291.0739 379.7641,302.5698 383.9565,315.296 389.0467,329.0779 398.9359,352.9696 411.0702,378.9633 424.3846,405.6127 456.4967,467.065 464.178,482.621 472.0329,499.4479 478.9688,515.6126 486.728,535.8187 490.7712,547.9094 496.143,566.549 500.1935,583.8586 503.3317,600.5474 506.1841,620.689 508.3425,643.5403 509.61,665.2572 510.6154,697.7928 510.777,737.7835 510.2074,761.0193 509.9632,764.3575 509.6016,765.2441 509.1195,762.7943 508.4063,753.7396 505.6989,713.9627 502.7817,677.803 498.0158,627.6136 492.3921,579.8713 484.1826,522.6796 479.9039,496.3973 475.4019,471.1533 470.5927,446.505 465.2668,421.2468 459.6604,396.5495 453.8366,372.7215 447.7546,349.6324 441.5619,327.8431 434.5331,305.0409 427.1651,283.0709 419.4874,262.0471 411.7162,242.5753 404.077,225.1494 396.3451,209.244 388.7351,195.3412 381.1039,183.1488 373.1232,172.258 365.5009,163.737 361.8598,160.3804 358.1062,157.4618 354.7555,155.3769 351.346,153.8348 348.3473,153.0477 345.5608,152.8942 342.8843,153.3677 340.2197,154.5912 338.0536,156.3135 335.9551,158.8467 334.1568,162.0148 332.6612,165.7826 331.3781,170.5355 330.402,176.3898 329.8605,182.9208 329.7539,189.8103 330.0683,197.1744 330.7962,204.939 333.4749,221.8336 337.7968,240.5186 343.7206,260.5945 350.8621,280.7575 359.3472,301.4126 367.9806,320.1638 377.6074,339.2546 387.8387,357.9826 399.1587,377.1373 410.9899,395.9261 426.5402,419.5566 459.9175,467.7822 477.7791,494.1954 490.9853,515.3127 500.531,531.9843 510.9772,553.365 518.3611,571.8889 522.1599,582.8455 525.3951,593.8848 533.7604,626.709 535.5602,632.838 537.0948,637.3199 538.3978,640.1436 540.0071,642.4182 541.5421,643.5338 543.2037,643.5816 545.002,642.5772 547.2427,640.1617 549.5976,636.6327 555.1892,624.8111 560.9485,610.103 583.9669,543.0402 611.4674,460.1753 618.648,436.163 619.8359,429.5137 619.6764,426.4513 619.1317,425.8839 618.5,425.875 616.1721,427.336 612.9885,430.7441 608.715,436.238 597.1334,453.4867 585.7196,472.6921 576.7245,489.4688 569.075,505.4897 561.2867,524.076 555.1169,540.9317 549.8764,557.6206 545.1287,576.2182 541.1106,597.6795 539.4501,609.2614 537.9071,626.4483 537.5918,635.8911 537.6802,643.7713 538.0039,648.9846 538.7388,653.1796 539.8417,656.3183 541.2377,657.5316 542.6284,657.3326 544.4654,655.7433 546.42,652.8731 548.4894,648.8819 554.1055,635.4141 562.0184,613.2359 619.5709,439.2423 622.4838,429.662 624.2471,422.741 625.142,417.6164 624.9704,415.0468 624.3446,414.4382 623.4039,414.5183 620.6848,416.5481 616.4876,421.3033 610.7449,428.7446 599.1819,445.6781 585.0968,469.1448 574.3478,489.1897 565.2831,508.1522 558.0714,525.3631 550.9986,545.2499 545.7816,562.5322 541.343,580.636 537.7836,600.1043 535.0471,621.1689 533.673,641.1331 533.617,658.0482 534.238,664.7013 535.1544,670.0353 536.4425,673.3179 537.8704,674.5278 539.213,674.3056 540.75,673.0 542.4492,670.5787 544.4093,666.9036 549.4923,654.8255 555.6011,637.9065 590.4407,530.5038 627.0628,421.2474 631.1069,407.0922 631.8274,402.472 631.6399,400.2069 631.0397,399.6676 630.0353,399.8747 627.0303,402.2033 622.7473,406.9593 616.9408,414.4613 608.621,426.006 600.1956,438.4095 592.9191,449.8617 585.3745,462.4959 573.6777,483.6652 563.2896,504.5917 554.2912,525.8541 547.1347,545.8016 541.4739,564.7933 536.1341,587.7168 532.5394,608.6983 529.9504,631.0525 528.5454,654.2451 528.5109,669.7059 528.7896,678.2629 529.4385,686.2307 530.5721,692.8121 531.977,696.8371 532.8648,697.934 533.611,698.3272 534.67,698.223 535.7903,697.3819 538.75,692.875 542.6313,684.2418 546.625,673.375 555.6284,645.7973 581.4484,562.9947 595.1993,520.2461 610.0768,475.9249 636.9188,398.3769 640.6447,385.6246 641.2566,382.1921 641.1557,380.1796 640.5133,379.5518 639.4121,379.8207 635.8938,382.8329 629.552,390.0574 621.7023,400.1614 610.831,415.2609 599.7342,431.3881 590.4064,445.7207 581.6415,459.9581 568.6791,482.9217 557.8691,504.5329 548.2887,526.9185 544.0868,538.1213 540.4956,548.7711 534.2521,570.8533 528.8271,596.1253 525.0884,621.0387 522.9434,643.7669 521.6393,674.5581 521.4739,689.0435 521.8759,705.4431 522.8444,720.7522 524.2028,730.7675 525.5067,735.7388 526.351,737.3032 527.2338,738.0996 528.0567,738.1431 528.9779,737.5937 531.3226,734.2698 534.0436,728.3587 537.0828,720.0014 544.8411,694.8842 573.9721,594.5995 593.8231,530.4759 606.5293,491.9953 620.3166,452.0758 654.0911,359.6664 656.7587,351.0533 657.2237,348.5286 657.157,347.043 656.6519,346.4457 655.7228,346.645 652.2286,349.6616 646.3232,356.4247 638.0442,366.7965 608.0909,406.4047 594.7506,425.1077 583.167,441.9891 569.789,462.8784 557.9433,483.4507 547.0971,504.7042 538.1868,524.8489 531.6012,542.8644 525.4622,562.9333 520.7072,582.4529 517.1143,601.7727 514.6173,620.0232 512.7615,637.4595 510.6907,668.8657 508.626,711.253 507.8574,719.0689 507.5605,720.3027 507.1348,720.627 506.4232,718.5882 505.2279,710.1994 497.5766,635.8796 491.6689,587.9446 486.1802,549.1026 478.9382,504.9393 470.6314,460.4196 461.6333,418.7079 451.4985,377.3132 440.9837,339.7159 435.144,321.0007 428.8853,302.4758 422.2851,284.3673 415.6589,267.56 409.077,252.1899 402.4508,238.0625 395.9872,225.6382 389.7325,214.9635 383.0621,205.0083 376.6764,196.9271 370.6553,190.7617 364.8474,186.4159 362.1534,185.057 359.6143,184.2487 357.3402,183.996 355.1716,184.2527 353.1989,185.0079 351.2155,186.428 349.6637,188.1746 348.1575,190.6577 346.9068,193.6615 345.8194,197.5741 345.0529,202.0532 344.61,207.0587 344.687,218.0809 345.9938,230.486 348.584,244.7418 352.3876,260.2881 357.3324,276.8331 363.14,293.437 370.0597,310.7682 377.9515,328.5355 387.1561,347.4818 396.9063,366.0209 408.0606,385.8093 422.6596,410.4351 452.8159,459.0271 472.2141,491.2924 486.0126,516.5111 495.2238,535.6109 501.3059,550.1351 505.7557,561.871 509.7947,574.2994 513.3948,587.1225 517.3501,603.8017 519.575,614.7412 522.8867,634.5104 526.7901,662.2244 528.9679,674.6961 530.1848,679.4945 531.7049,683.7349 532.864,685.678 534.2064,686.7378 535.5819,686.83 537.1541,685.89 538.9265,683.8042 540.875,680.5 545.8587,669.2727 551.6876,653.1409 558.9098,631.4984 596.3296,514.5454 632.1995,409.5746 636.0426,396.0666 636.7611,392.013 636.6816,389.6464 636.1251,388.9747 635.0821,389.1037 631.7361,391.7917 626.2047,398.1236 618.5097,408.0747 609.4055,420.7579 599.9581,434.6852 591.2667,448.2227 582.7896,462.1916 570.7457,483.8026 559.8007,506.1928 551.5593,525.5259 543.459,547.9161 540.1389,558.8241 536.9403,570.8433 531.7286,595.4081 528.0753,619.8996 525.7771,643.5785 524.7661,669.0579 524.9217,686.2575 525.5237,699.0665 526.1829,706.0039 527.3226,712.6391 528.5385,716.142 530.0835,718.0707 531.1665,718.0517 532.4421,717.1232 535.2179,712.8775 538.6254,705.0608 542.7403,693.4284 550.8735,667.8504 575.8243,584.5539 593.936,527.19 604.2651,495.8642 615.831,462.0455 645.0299,380.1725 648.5553,368.7631 649.1921,365.5341 649.1601,363.7188 648.4488,362.9397 647.0476,363.4519 644.9785,365.1523 641.75,368.5 634.2385,377.5598 622.0238,393.6368 609.3015,411.0767 596.7745,429.0587 586.3019,444.9812 575.5029,462.2964 568.7989,473.7259 562.2822,485.6094 556.0905,497.6967 550.609,509.2605 545.7013,520.5339 541.2213,531.8167 537.2377,543.0092 533.5433,554.6075 530.2513,566.2181 527.297,578.332 524.8066,590.3906 522.4745,603.8918 520.5399,617.097 519.005,630.541 516.8619,659.5607 515.6985,699.4738 516.0246,733.4142 516.4666,749.422 517.2938,766.2024 518.1164,776.0995 519.6545,784.7888 520.3594,786.5469 521.1892,787.43 521.8885,787.4156 522.662,786.7454 524.4405,783.6138 526.6625,777.6119 529.5439,768.2771 534.6711,749.449 553.1418,677.3636 568.1442,622.5066 584.193,567.3694 601.9971,510.5466 616.5265,467.1057 632.5795,422.1926 651.2399,373.0637 674.324,315.9516 676.6296,309.5046 677.1003,306.6245 676.8192,306.3931 676.2979,306.5702 674.5372,308.0825 667.2009,316.5558 612.169,385.071 591.7652,411.0143 577.4149,429.8309 565.4541,446.3037 555.3257,461.1314 546.2332,475.5489 537.7173,490.2311 531.4057,502.2536 524.3115,517.4735 518.8937,530.6006 513.5996,545.5914 509.1394,560.4191 506.5193,570.3341 499.2766,601.1097 497.9326,604.3064 497.0625,605.3281 496.4922,605.4551 495.32,604.4662 494.1541,601.9955 491.4915,592.4745 487.4074,572.7407 474.0229,503.4363 467.6959,473.9501 461.3477,446.6528 455.2045,422.1074 449.4335,400.7504 444.02,382.3968 437.536,362.2714 429.8368,340.3874 422.3363,321.4043 414.5024,304.162 407.1071,290.2549 403.6056,284.6186 400.2699,279.9404 396.7754,275.8607 393.8481,273.1838 391.2762,271.6136 388.8136,271.1475 387.0123,271.8692 385.5369,273.7444 384.3857,277.7487 384.09,283.335 384.6515,290.8394 385.9828,299.2534 388.0102,308.1216 390.8054,318.0624 398.7687,341.5692 406.6601,361.2841 417.697,386.4706 450.6852,454.6958 465.6314,487.3575 477.35,516.4666 485.25,539.9219 489.0,553.0 492.7488,568.2661 495.6421,583.1563 497.9048,597.0521 499.8581,612.4224 500.907,627.7917 501.262,640.6896 500.934,646.22 500.5706,647.4497 500.2188,647.7031 498.95,645.0321 497.2019,636.3896 482.1122,540.2683 475.62,504.5609 469.5129,473.9433 461.6944,439.0208 453.6647,406.335 446.344,379.5815 438.1995,353.0276 428.3574,324.1198 418.7324,299.4291 413.6402,287.9122 408.333,276.8749 403.3511,267.4156 398.5245,259.1765 393.8893,252.2458 389.653,246.905 385.1755,242.4745 381.3417,239.7917 377.983,238.5848 376.4917,238.5235 374.8749,238.9187 373.6762,239.6334 372.4219,240.9468 370.6971,244.5383 369.6563,250.4943 369.6193,258.1019 370.5667,267.6022 372.5177,278.8397 375.0952,289.7408 378.6356,301.9649 383.0075,315.0304 388.125,328.75 398.6323,353.5858 413.2613,384.4304 424.1238,405.7519 456.2667,466.6221 466.1872,486.5136 473.4142,501.7981 480.8699,519.1753 486.916,534.9489 493.4823,554.9234 497.7027,569.9222 502.3398,590.503 506.1198,613.3446 508.3464,632.5476 510.1133,654.7478 511.3997,679.3039 512.2905,710.5747 513.721,801.321 514.8099,823.5089 515.6403,830.8072 516.0708,832.4916 516.6644,833.3802 517.6612,832.8105 518.6253,830.8548 521.7098,819.7962 543.894,722.6928 553.1217,685.021 562.4102,649.041 571.1394,616.9881 580.454,584.2853 590.2602,551.2809 599.9972,519.8722 610.6359,487.2478 622.1676,453.5203 634.1854,419.9088 646.1093,388.0188 656.4101,361.7801 667.0776,335.8441 679.3601,307.34 694.261,274.2132 695.7849,269.9094 695.0872,270.2849 693.1704,272.4833 673.2142,298.1114 649.5676,326.8132 628.1762,351.7239 574.0529,413.3856 556.8045,433.8919 544.852,449.0492 530.0279,469.5926 517.9429,488.3389 512.5358,497.755 507.2538,507.8395 492.6116,538.8682 490.3577,542.1484 488.0892,543.7742 486.5063,543.3258 484.3821,540.7493 482.6379,536.8167 480.0529,529.3429 474.2345,507.8905 461.4545,456.8794 454.3678,430.9856 445.479,401.2545 436.2837,374.0979 427.0236,350.9311 423.0853,342.3259 419.4499,335.3961 415.1352,328.3694 411.5196,323.7654 410.0817,322.4803 408.6583,321.712 407.7477,321.6297 406.805,322.2083 406.0432,323.9984 405.7272,326.7558 406.4062,334.0625 409.2444,346.8224 413.1119,359.7534 417.7485,373.0574 422.0287,384.1194 432.5236,409.6483 455.125,462.5 462.5293,480.9394 469.127,498.6972 476.1157,520.1597 480.8594,537.1406 483.59,549.5443 484.932,557.7449 484.9352,559.2089 483.2105,553.813 471.4177,499.4265 462.1636,459.8708 451.3332,418.8784 440.0203,382.2957 434.8784,367.6402 428.4469,351.0755 422.9314,338.2055 418.1146,328.4124 412.6644,319.0091 408.2357,313.1031 406.5,311.5 404.5645,310.4201 403.3009,310.3253 402.0849,311.1535 401.2809,313.0172 400.9024,315.9102 401.5036,323.8981 404.0637,336.278 407.8029,348.9804 414.1254,367.0973 419.6877,381.3577 430.6167,407.2237 455.0962,463.0839 464.3106,485.4561 471.7739,505.5319 479.2843,529.0471 484.3752,548.53 487.6118,565.431 488.5586,572.668 488.5139,575.9954 487.6651,574.1401 485.618,566.0118 471.8294,499.0523 461.0455,452.2478 449.5537,409.0782 444.657,392.5027 439.4797,376.386 432.9286,357.5077 426.8901,341.8825 420.1244,326.59 413.8147,314.0813 408.2144,304.9029 405.4775,301.2927 402.7599,298.3731 400.6802,296.7889 398.8842,296.1209 397.3769,296.3795 396.1494,297.6017 395.2242,300.2024 394.8857,304.3836 395.2197,309.8436 396.2658,316.7654 397.9411,324.313 400.2007,332.6341 406.5931,352.1739 413.0366,368.8809 421.8169,390.0121 448.4821,448.7633 461.8154,479.217 471.6895,504.274 478.645,524.5531 485.5483,548.6993 490.0517,569.2049 492.6454,586.6896 493.2748,595.3994 493.0696,598.09 492.7711,598.7099 491.8888,596.6877 489.918,588.671 476.4087,517.8405 468.9537,482.0059 464.095,460.2635 457.2506,432.3803 451.2693,409.7545 445.9876,391.4957 438.4043,367.3879 431.121,346.2523 424.1813,328.4041 416.2781,310.5515 409.0575,296.6232 405.5534,290.8859 402.1704,286.0876 398.9178,282.1668 395.9879,279.3826 393.4074,277.751 391.4057,277.2814 389.4982,277.9216 388.142,279.601 387.1084,282.9642 386.7531,288.171 387.1903,294.8475 388.3877,302.5691 390.3868,311.5812 393.0613,321.4118 396.4069,332.1431 400.0914,342.577 407.877,362.2361 417.7109,385.1099 433.1947,418.222 448.1796,449.33 463.8025,483.3201 475.2823,511.6853 483.5614,535.9208 487.2294,548.5428 490.5761,561.6302 495.5713,587.2748 497.8321,603.9648 498.944,616.6862 499.2846,629.1124 499.0312,632.75 498.4995,634.0784 497.9357,633.4247 497.125,631.125 495.9079,625.7274 493.2143,610.6392 485.0865,560.1979 479.1613,526.311 474.1166,499.7501 466.8757,465.0968 460.3798,436.4686 453.7757,410.2226 446.2259,382.882 438.6657,358.1004 429.664,331.9276 420.1713,307.5979 411.2498,287.7723 406.9968,279.4746 402.6216,271.7596 398.2164,264.7958 393.8125,258.75 389.725,254.1281 386.1997,251.1237 382.7026,249.3834 379.9297,249.2109 377.7104,250.3832 375.894,253.1907 374.6855,258.0146 374.3194,265.1143 374.9112,273.3347 376.4484,283.125 378.8601,293.9404 382.0383,305.3965 385.9887,317.55 390.8203,330.7718 400.3175,353.9777 410.875,376.9531 426.4519,408.5147 458.0271,470.1858 470.1079,495.775 477.2423,512.3527 483.2577,528.0146 488.4407,543.0219 493.1508,558.7724 497.1567,574.3688 501.0965,594.0116 504.5173,617.3979 506.3156,634.5541 507.7234,657.3931 508.5285,688.3017 508.1694,710.1891 507.6393,716.7632 507.1094,718.5156 506.625,718.0 506.317,716.9814 505.1464,708.8758 496.8567,630.0827 491.441,587.0205 485.2696,543.9363 477.9387,499.6809 469.6127,455.8295 460.4902,414.2889 450.0685,372.5525 439.3923,335.1106 433.2527,315.8271 426.8986,297.4474 420.2004,279.5376 413.5076,263.043 406.7337,247.7402 400.0934,234.1137 393.6426,222.2382 387.2694,211.9094 380.5069,202.4942 374.0873,195.1229 368.1042,189.8229 365.3055,187.9581 362.4173,186.5262 359.9335,185.7694 357.6184,185.5479 355.3706,185.8916 353.2887,186.8191 351.4358,188.3004 349.8148,190.3102 348.429,192.8232 347.2813,195.814 345.713,203.1278 345.1319,212.5876 345.6564,223.3276 347.2896,235.5609 350.0082,249.0789 353.7686,263.6949 358.6411,279.5824 364.1042,295.0378 370.8005,311.6616 378.5884,329.079 388.1466,348.7492 397.9378,367.5287 407.0596,383.8194 418.1859,402.7196 458.1376,467.9189 472.213,491.5556 485.4776,515.9074 490.8669,526.7582 495.3166,536.5274 501.1405,550.6382 505.5672,562.5399 510.199,577.1444 513.538,589.1197 517.041,604.682 519.3914,616.7253 522.5807,635.7691 526.5008,663.922 528.6688,676.989 529.8548,681.6581 531.3299,685.8833 532.481,687.909 534.053,689.147 535.4942,689.0882 537.1524,687.8405 539.0647,685.307 540.9544,681.8819 545.7147,670.8612 551.8265,653.705 558.1598,634.6683 580.9093,562.6424 594.1231,521.9947 607.6309,481.5359 633.2129,406.7466 637.0429,393.5962 637.7269,389.8009 637.6191,387.5592 636.9851,386.8686 636.104,386.9523 634.6694,387.8486 632.8287,389.5509 626.9505,396.3397 618.9492,406.7086 610.0602,419.0621 601.0285,432.3707 590.8685,448.072 582.7471,461.3821 570.2165,483.6781 559.0577,506.47 550.7655,525.915 543.0867,547.3648 536.1545,571.4559 531.2286,594.6581 529.3773,605.8061 527.5761,619.2741 525.2467,643.5996 524.1127,669.4072 524.168,687.125 524.6714,700.3712 525.3276,707.5743 526.508,715.5925 528.1337,720.404 528.8524,721.5608 529.702,722.0979 531.0293,721.8418 532.125,720.875 534.875,716.3594 537.7878,709.5793 542.2423,696.8882 547.6459,679.8512 574.9667,588.5523 592.2842,533.0322 603.29,499.5833 616.2279,461.6441 646.7224,376.2884 650.1604,365.0538 650.7491,361.8735 650.6552,360.1534 649.952,359.5843 648.6558,360.097 643.691,364.8203 636.2262,373.851 623.4747,390.467 609.9712,408.8886 597.2153,426.9966 586.0784,443.6917 575.9913,459.7106 568.391,472.622 561.2185,485.6069 555.2721,497.1434 549.708,508.8154 544.4661,520.7228 540.4244,530.893 536.1667,542.8949 532.2696,555.1543 529.0341,566.9216 525.7103,580.7031 521.1845,605.2039 517.8356,631.15 515.8236,658.8621 514.9675,677.207 514.4665,709.2389 514.7008,745.5211 515.4136,770.8408 516.1901,786.0457 517.6297,798.9272 518.5552,802.6655 519.5127,803.85 520.1046,803.755 520.75,803.125 522.0314,800.8091 525.375,791.125 530.3761,772.0553 549.4803,694.8742 565.0785,635.7775 582.3565,575.088 600.0529,517.9774 618.937,461.3523 636.847,411.4534 647.4417,383.6316 658.3052,356.2028 681.8858,299.9298 683.4886,295.4983 683.7976,293.5797 683.3535,293.3408 682.3572,294.0422 678.0225,298.8894 641.9328,343.8432 586.1059,411.7787 563.918,440.4098 554.5178,453.4151 545.9369,465.9534 537.7007,478.9423 529.5432,492.949 524.0718,503.2887 518.5151,514.9914 513.1846,527.3523 507.7305,542.287 496.7724,577.0697 494.921,580.7039 493.9688,581.5202 493.3426,581.6204 491.9457,580.6512 490.6141,578.0798 488.7215,572.5746 486.8935,565.7228 483.4405,550.7365 469.375,485.0 463.0948,458.0931 457.2239,434.7471 447.1758,398.6337 437.6119,368.8414 430.5796,349.1778 424.3125,333.3541 418.1029,319.6836 411.6919,307.4286 405.8457,298.2899 403.0613,294.8874 400.6159,292.4812 398.4875,290.9624 396.6717,290.3263 395.164,290.5686 393.7882,291.9552 392.7381,295.0898 392.4344,299.7308 392.8654,305.7097 394.1085,313.6311 395.7363,320.9267 398.1086,329.5491 404.9816,350.1796 411.9423,368.0176 421.6366,390.7237 451.4278,455.5156 462.7442,481.2628 473.5454,508.8544 480.3511,528.9181 483.939,540.802 487.2497,553.5585 489.3923,562.9574 491.7924,575.5884 494.4998,595.0923 495.1481,604.5619 494.9688,608.1719 494.625,609.0 494.0821,608.2368 493.3547,606.0197 491.6347,598.6667 477.1144,519.6916 471.1045,489.8806 465.3456,463.745 458.7479,435.9796 452.4526,411.6043 445.6149,387.5113 438.6386,365.0097 431.0073,342.8901 423.0558,322.5771 415.1382,304.6245 407.7781,290.4227 403.9025,284.1325 400.2538,278.9136 396.885,274.7863 393.5774,271.5679 390.6534,269.6748 388.2309,269.1248 386.3403,269.7112 384.7576,271.5761 383.5786,275.4889 383.1976,281.0775 383.6072,288.0269 384.886,296.1802 387.2282,306.5177 390.6137,318.7456 393.9539,329.2779 398.1363,340.9706 406.3933,361.594 415.295,381.7087 429.9827,412.6031 447.5048,448.325 463.6025,482.6913 476.2509,513.0163 481.2024,526.8019 485.2959,539.3994 490.0599,556.2878 493.1316,568.8817 496.645,586.7278 499.0367,602.6874 501.0787,622.4946 501.7083,632.9167 501.8682,647.9514 501.4062,651.8594 500.875,652.625 500.2777,651.8385 499.0075,647.2807 496.6847,634.0049 487.5908,573.4958 480.2619,529.0083 475.6291,503.8594 469.001,470.9093 461.9791,438.9353 454.8098,409.8007 446.0825,377.595 437.6123,349.4988 427.9753,321.4261 417.6922,295.4138 412.6513,284.0426 407.6299,273.6424 402.8158,264.5914 397.8454,256.2299 393.1095,249.1876 388.3933,243.1957 384.0324,238.75 380.0765,235.8911 376.5021,234.6482 375.0384,234.6317 373.4586,235.0494 372.2892,235.7508 371.0626,237.0021 369.1871,240.7818 368.0249,246.6687 367.7775,254.3804 368.4894,263.0769 370.1473,273.21 372.8462,285.0839 376.5816,298.4337 380.5639,310.5539 385.5579,323.9601 397.5599,352.4178 409.2916,377.3002 426.3084,410.534 459.8408,473.5007 466.9112,487.5506 474.0406,502.6921 481.5273,519.9015 488.1291,537.3604 493.3605,552.8645 498.3532,570.2745 501.75,584.375 505.5011,604.0258 508.3628,625.1412 510.3454,644.5493 511.9235,668.4493 512.8257,688.2392 515.5621,777.2239 517.1264,797.7471 518.2326,802.7498 518.82,804.124 519.495,804.736 520.605,804.138 521.8706,801.8214 525.4545,791.0189 530.7789,770.5448 550.0197,692.9126 563.8109,640.3242 581.8054,577.3233 600.3878,517.0994 618.9189,461.5103 637.4585,409.8122 657.6476,357.8389 681.934,299.7123 683.7188,294.8826 684.0987,292.7897 683.6783,292.6198 682.6065,293.412 678.7028,297.8034 647.5276,336.7039 584.263,413.7526 562.9738,441.3046 554.003,453.7657 545.7091,465.9247 537.6976,478.4364 530.6523,490.3848 524.2481,502.2974 518.5216,514.1557 513.0458,526.7284 508.5824,538.5319 505.0338,548.9216 496.9566,574.9699 494.9913,579.1134 494.1751,580.0742 493.2599,580.4462 491.987,579.5785 490.567,577.2503 487.2505,566.9891 482.9065,548.3828 469.0231,483.762 459.7438,444.7523 454.5123,424.7127 448.6337,403.9295 442.8353,384.8146 437.1999,367.6814 430.5335,349.2773 424.1425,333.3747 418.1262,320.1406 411.9176,308.3991 406.2272,299.4533 403.5634,296.0782 401.2912,293.7687 399.0716,292.1481 396.9902,291.4082 395.5745,291.6294 394.2582,292.8715 393.1608,296.0883 392.8738,300.8706 393.3783,307.039 394.6931,314.8845 396.4842,322.8176 398.7862,331.0287 406.1422,352.6649 413.1449,370.6682 423.5669,394.9718 452.5311,457.8908 462.4476,480.5495 471.1298,502.179 478.2417,522.3546 485.3402,546.0698 489.9934,566.4365 492.5898,581.2969 494.0564,592.9389 494.788,602.997 494.6858,606.0938 494.3889,607.125 493.9117,606.7479 493.3562,605.2938 491.1717,596.0089 476.7023,518.2981 470.0596,485.6884 464.3209,459.5919 458.0605,433.5899 451.8177,409.654 445.6941,388.1562 439.1808,367.3279 431.227,344.252 423.432,324.1231 415.2499,305.6619 407.5682,290.8452 404.0119,284.9808 400.625,280.125 397.2006,275.9941 393.7908,272.765 391.0992,271.0833 388.7856,270.5618 386.8698,271.2005 385.3143,273.1021 384.1552,276.9603 383.8009,282.364 384.2767,289.7171 385.5148,297.8846 387.503,306.8298 390.2683,316.8844 394.1697,329.1745 398.221,340.6071 406.0947,360.2719 416.9394,384.9612 435.1822,423.2395 451.0735,455.5598 465.2833,486.6041 477.2062,515.9732 485.9424,541.9202 489.1611,553.3339 492.9635,569.1119 495.9504,584.1631 497.9048,596.2892 499.8182,612.0447 501.1842,628.4999 501.5,641.375 501.0832,647.4832 500.835,648.676 500.415,649.152 499.875,648.5 499.3339,646.9286 497.5259,638.5342 482.9062,544.7912 475.9686,506.1103 469.4564,473.2996 461.9601,439.5173 454.3795,408.7024 446.8587,381.25 437.9403,351.9547 428.3083,323.6905 418.7476,299.2294 413.4738,287.2232 408.4352,276.6562 403.3042,266.8489 398.4904,258.6001 393.6828,251.402 389.2274,245.8119 384.9614,241.5327 381.1152,238.7663 377.4446,237.4325 375.8304,237.4109 374.3721,237.8117 373.0762,238.6293 371.9954,239.795 370.3023,243.2749 369.2016,249.1373 369.0725,257.1125 369.9581,266.6906 371.7037,276.9264 374.3437,288.0635 377.8621,300.2268 382.4505,314.0526 387.7918,328.5263 397.7333,351.992 411.6162,381.3568 421.3345,400.3687 455.0001,464.0836 465.2178,484.479 472.515,499.8215 480.5926,518.3651 486.8093,534.2198 492.713,551.6828 497.1618,567.2777 501.6135,586.3776 505.2034,606.111 506.7873,616.8053 509.2375,639.2789 511.2268,668.2178 512.2792,695.7474 513.5293,762.7237 514.7356,801.7095 516.0067,817.1289 516.7462,820.9262 517.7047,822.4662 518.2158,822.3563 518.7953,821.6927 520.2779,818.5636 523.6737,806.6715 547.2442,706.7592 555.9701,672.1738 565.4336,636.5316 582.5656,576.1594 601.1229,515.721 610.9532,485.5682 620.8944,456.4749 631.625,426.4219 642.8506,396.2768 661.3245,349.4543 672.5046,322.9791 688.6367,286.3382 690.8643,280.7152 691.2971,278.598 690.4332,278.9086 688.127,281.4773 663.0945,313.0735 642.4423,338.1271 575.4459,416.8004 558.5534,437.7402 546.0118,454.2821 538.1991,465.4537 530.0155,477.8788 524.1486,487.465 518.3746,497.6739 512.8404,508.2708 507.6293,519.3996 494.1543,552.2527 492.054,555.7674 491.0,556.75 490.0457,557.1413 488.5793,556.4713 486.6484,553.7878 484.899,549.6175 482.6726,542.7413 478.1281,524.9726 463.8851,464.7658 456.8203,437.464 446.9683,403.1309 436.8946,372.5586 431.1991,357.4653 425.6326,343.9845 420.6958,333.2782 415.8027,324.0872 411.3934,317.0323 407.6107,312.4981 405.9574,311.2311 404.125,310.5119 402.9659,310.6825 402.0795,311.5112 401.3551,313.4657 401.0567,316.4168 401.1943,320.3604 401.779,325.1016 404.2433,336.7085 408.2218,350.0843 414.6271,368.4423 420.2062,382.7083 429.9261,405.7304 455.1852,463.1526 464.2785,485.3344 471.0039,503.4501 478.8289,527.4755 483.599,545.3914 487.3981,564.186 488.5516,572.5545 488.463,575.629 487.6702,574.1582 485.7237,566.3453 471.4512,497.4363 460.9197,451.8889 450.1418,411.2406 444.9378,393.611 439.5823,376.8889 432.9531,357.7969 426.8371,341.96 419.9952,326.4647 413.7603,314.0811 408.2028,305.0412 405.2518,301.2638 402.7546,298.6186 400.5968,296.9642 398.7665,296.3186 397.4491,296.5819 396.2092,297.8435 395.2624,300.6996 394.997,304.8694 395.3754,310.2777 396.4529,317.2209 400.3241,332.6991 406.7312,352.3779 412.7602,367.9703 421.9839,390.189 448.987,449.7681 462.3394,480.4794 471.5833,503.9861 479.522,527.0327 482.0399,535.4135 486.012,550.604 489.8875,568.5009 492.6089,586.4844 493.2713,595.0952 493.1435,597.6852 492.8362,598.3623 492.4302,598.02 491.9431,596.745 489.5531,586.793 475.2113,512.0928 468.75,481.0781 463.558,457.9076 457.337,432.4771 451.4749,410.2789 445.7981,390.5886 439.3418,370.1109 431.9106,348.5875 424.7739,330.1371 416.6944,311.7859 409.3247,297.3918 402.7655,287.0769 399.6279,283.1392 396.4905,280.0029 393.996,278.2901 391.6077,277.6145 389.8191,278.1056 388.3155,279.8116 387.2239,283.3295 386.8786,288.3061 387.3085,295.1646 388.4601,302.6484 390.4221,311.4028 393.1694,321.3731 396.8258,332.9907 400.7303,344.0505 408.2869,363.1384 417.8468,385.2085 434.0821,420.001 450.1445,453.449 464.0292,484.0702 475.3093,511.7687 483.8723,536.9263 486.5,546.0 491.0352,563.9121 493.5656,576.1669 495.5229,587.5472 497.631,603.5811 498.8345,617.1724 499.1606,628.9905 498.8738,632.6262 498.3836,633.5303 497.8281,632.7812 497.0926,630.7122 495.9304,625.8017 484.7793,558.3302 479.1247,526.3297 473.7138,497.8662 466.793,464.9584 460.2639,436.1583 453.8159,410.4623 446.0447,382.3604 438.36,357.1948 429.7527,332.1225 420.4456,308.3395 411.2399,287.9387 406.8698,279.4083 402.4841,271.6749 398.0351,264.6912 393.8428,258.9876 389.9505,254.5945 386.1926,251.397 383.057,249.8033 380.217,249.5852 378.9535,250.0364 377.8442,250.8612 376.0943,253.5863 374.8333,258.6423 374.5053,265.3352 375.1111,273.5781 376.6853,283.4056 379.1435,294.2997 382.4834,306.2862 386.5431,318.7435 391.4841,332.224 401.3626,356.2911 411.4658,378.2565 427.0788,409.746 456.2514,466.6542 468.6308,492.6306 475.5546,508.4774 480.7851,521.6327 487.498,540.1851 491.969,554.6993 496.5051,571.9949 500.0174,588.4604 502.2701,601.7727 505.1847,624.025 507.5726,655.6905 508.2193,675.3886 507.991,707.7447 507.4119,714.5664 506.817,716.376 505.9967,713.9949 504.599,703.9161 497.7758,638.6322 492.8087,597.5038 485.8054,547.7434 478.6886,504.6438 469.864,458.0321 460.658,415.7131 450.0638,373.4854 439.0365,334.8861 432.9649,315.7694 426.8475,297.9809 420.5804,281.2372 413.8292,264.6072 407.0102,249.1928 400.3533,235.4986 393.7442,223.2836 387.4032,212.9568 380.9653,204.0163 374.6907,196.8364 368.5394,191.4196 365.6776,189.5448 362.9717,188.2207 360.4313,187.4433 358.0664,187.209 355.8868,187.5138 353.9023,188.3539 352.1717,189.6779 350.5196,191.6717 349.242,193.947 348.0816,196.9297 346.4758,204.655 345.9654,214.1566 346.5325,225.1465 348.1582,237.3303 350.8125,250.5049 354.5855,265.0698 359.2348,280.115 364.9173,296.1687 371.4361,312.5244 379.1016,329.7505 388.0934,348.1981 398.405,367.8619 407.9684,385.0767 418.6513,403.3778 457.3447,466.4895 471.9926,491.3955 485.1911,515.7888 491.2409,528.1279 496.0742,538.8696 501.5441,552.5798 506.2708,565.7723 510.3463,579.0204 513.9507,592.3816 517.2106,607.2872 519.678,620.3576 526.3502,667.119 528.5132,680.042 529.7615,684.9179 531.3449,689.1147 532.5977,690.9603 533.7507,691.6644 535.0,691.625 536.3482,690.7558 537.8728,688.9551 539.5738,686.1737 544.021,676.4817 548.7548,663.8296 557.2639,638.0227 582.5157,558.0191 592.9228,525.9699 606.9346,484.0026 633.7744,405.9653 637.9559,391.5645 638.6593,387.7752 638.601,385.5559 638.0016,384.8945 636.9381,385.0959 633.3647,387.9825 627.75,394.375 620.6726,403.5131 609.7064,418.7183 601.2865,431.0291 591.5914,446.0326 582.5191,460.8696 570.0299,483.1437 558.5872,506.2972 549.9998,526.367 542.3825,547.7572 538.8566,559.4319 535.4806,572.0575 530.8695,593.7188 527.5515,614.5299 525.911,628.0759 524.8115,640.445 524.1175,651.9342 523.4705,671.6789 523.3801,686.7442 523.6831,696.1562 524.3569,707.775 525.5429,717.931 527.272,724.1132 528.2246,725.7441 529.0781,726.2656 530.0488,726.1543 531.2583,725.2371 533.8598,721.0946 537.1845,713.2686 541.6187,700.7712 546.5834,684.9811 572.1417,598.3013 592.0427,534.4843 603.9539,498.1835 615.8323,463.3316 649.1578,370.4677 651.9187,361.2885 652.4102,358.4544 652.3214,356.7805 651.6621,356.2051 650.1311,356.8771 644.9375,362.0098 636.434,372.3325 623.1296,389.691 609.8008,407.7465 596.6975,426.3294 584.8386,443.9608 575.274,459.0797 567.5651,472.1505 559.8932,485.9362 554.1352,497.0701 548.6288,508.6138 543.3092,520.7664 538.64,532.5667 534.1026,545.4358 530.6406,556.6738 524.1336,582.4322 521.8667,593.881 519.7708,606.6453 516.7081,632.1043 515.1334,651.0564 514.1852,667.96 513.4313,692.1497 513.0181,726.531 513.3968,777.4315 514.7029,817.1726 515.7643,827.2962 516.3457,829.6113 517.051,830.3958 517.875,829.875 519.0823,827.2372 522.0962,816.8971 535.8569,756.6187 546.4084,711.9453 554.6002,678.8484 563.4745,644.8302 572.3463,612.3956 581.373,580.8138 590.8607,549.0641 600.7693,517.2742 611.5218,484.2248 622.2507,452.7146 632.8021,423.1949 644.0073,393.2875 655.0424,365.1022 666.1056,338.0484 677.7354,310.9656 692.893,277.2201 694.5829,272.4511 693.8779,272.6973 691.8056,275.0454 665.408,308.3924 644.7977,333.3542 569.7158,419.9946 555.8344,436.9456 543.7161,452.5809 529.7314,472.2829 518.0047,491.0128 512.4753,500.9486 507.1072,511.5244 493.6259,541.3066 490.8838,545.7306 489.5487,547.0555 488.6046,547.4536 487.0087,547.0544 485.3878,544.981 483.2222,540.2821 481.1753,534.1274 476.8305,518.3242 465.9743,474.0561 455.5664,434.5226 445.2491,399.5909 436.0955,372.943 431.2071,360.0443 426.9082,349.7025 421.9499,339.0432 417.4861,330.5833 413.625,324.5 409.9764,320.2368 408.4578,319.0816 407.1622,318.5837 406.1038,318.7479 405.3611,319.462 404.6462,321.4117 404.4001,324.359 405.2486,332.6343 407.875,344.0977 412.3359,359.0077 416.9422,371.9451 424.0618,390.1381 457.2007,467.6938 468.5764,496.9312 475.4591,517.5351 480.6873,535.8708 484.2095,551.2358 485.7602,560.0256 485.8816,563.6636 485.3011,562.6524 483.1321,553.7959 470.3806,494.2369 460.548,452.5781 449.2317,410.7007 439.8822,380.9272 433.9299,363.7138 428.6537,349.8961 422.5873,335.8433 416.8859,324.2587 411.4784,315.2082 406.6709,309.0773 404.6721,307.3537 402.9434,306.5405 401.5605,306.6176 400.4817,307.4974 399.5869,309.8401 399.2898,313.4251 399.5893,318.3648 400.481,324.0767 404.464,339.9982 410.2195,357.6453 417.3301,376.3753 423.419,391.217 434.5278,416.8973 446.4874,443.4168 459.4156,473.46 469.0257,497.7032 476.0833,517.9689 482.6852,540.3565 486.3703,556.1283 489.3334,572.9288 489.8975,579.6668 489.701,581.864 488.66,579.6436 486.4218,570.4704 471.9832,498.8374 461.8239,453.989 456.8359,434.0676 451.1201,412.9521 445.7808,394.5635 440.5284,377.91 433.1248,356.6465 426.3546,338.9505 420.2978,324.9201 413.6574,311.6481 407.4581,301.2757 404.643,297.4197 402.1236,294.5883 399.7212,292.5217 397.354,291.3602 395.7047,291.4172 394.231,292.6888 393.1155,295.9667 392.8315,300.7752 393.3082,307.0037 394.6211,315.1263 396.2818,322.349 398.585,330.4889 405.8662,352.1109 412.4201,368.9528 422.3447,392.3686 451.1765,454.8963 463.3935,482.8241 472.8717,506.9309 480.0961,528.1185 483.6819,539.9317 486.6224,551.1079 489.095,561.8085 491.5417,574.3429 494.4251,595.1469 494.9082,603.5723 494.734,606.6523 494.4355,607.2952 493.9396,606.8986 493.5156,605.8281 491.6607,598.64 476.9217,518.874 471.0189,489.9383 465.0056,462.7687 458.1073,433.8496 451.9298,409.978 445.5926,387.8068 438.5739,365.331 430.8182,342.8379 423.292,323.5271 415.2439,305.432 407.4952,290.5952 403.9024,284.7322 400.3641,279.69 396.908,275.5413 393.7729,272.5991 390.9996,270.8736 388.6291,270.3751 386.6677,271.1125 385.2491,272.897 384.0822,276.8075 383.7328,282.3499 384.1808,289.2926 385.3788,297.0775 387.4541,306.4882 390.4643,317.5446 393.957,328.7227 398.0477,340.2243 406.1983,360.6013 415.8297,382.615 431.9324,416.4942 449.721,452.9261 464.5778,485.043 476.4114,513.8333 481.651,528.5333 485.6291,540.7243 490.1662,557.1717 493.5287,571.2067 496.3096,585.7339 498.6971,601.4784 500.6882,620.733 501.4777,636.3322 501.2532,646.4823 500.8981,648.912 500.4711,649.5318 499.8711,648.7188 499.2515,646.6797 497.3472,637.3052 484.265,552.6972 476.6881,510.0236 470.1059,476.7977 462.2601,440.9519 454.7605,410.026 446.5138,379.7411 437.8719,351.2251 428.2484,323.0383 418.6153,298.5354 413.5005,286.9312 408.4114,276.3228 403.4017,266.8217 398.6852,258.7946 393.9299,251.7077 389.1103,245.5984 384.6918,241.1128 380.7152,238.2611 377.221,237.0535 375.6676,237.0693 374.25,237.5 371.9654,239.4349 370.2204,242.9999 369.1126,248.7896 368.926,256.2196 369.6567,265.2474 371.356,275.6017 373.9425,286.8747 377.4323,299.2536 381.8605,312.7896 386.6355,325.6823 397.2485,350.8947 411.1846,380.6843 425.7202,409.0193 453.3036,460.7503 464.2792,482.4498 471.9409,498.5441 479.9953,516.8782 485.771,531.546 493.1017,552.9979 498.0449,570.4252 501.7512,586.5478 505.521,607.6508 508.4303,630.3489 510.0613,648.4998 511.3863,670.2151 512.2212,690.6087 513.662,761.232 514.9856,800.3328 516.1277,813.9334 516.879,818.213 517.3594,819.5 517.941,820.112 518.4796,820.0784 519.0723,819.4539 520.4321,816.5074 524.563,802.0022 547.9448,703.5123 556.6164,669.3995 566.3425,632.9608 582.5392,575.885 600.3965,517.834 610.5066,486.8451 620.1769,458.4615 630.6016,429.1816 641.4346,400.0099 660.1318,352.5147 671.5503,325.2641 688.1097,287.1817 689.9759,282.4573 690.4217,280.4361 690.1693,280.3372 689.4677,280.857 687.1346,283.4586 663.3401,313.3046 649.1278,330.6245 575.4297,417.9524 558.6733,438.8357 545.3082,456.7276 537.881,467.4239 530.9177,478.132 524.248,489.1376 518.4819,499.4629 513.0448,510.2707 507.8734,521.6329 495.0036,553.9779 492.5414,558.4517 491.5723,559.4822 490.4748,559.9597 488.9745,559.2779 487.1797,556.7361 485.5185,552.625 483.3488,545.7846 478.7821,527.7216 464.9176,468.863 456.4689,436.1175 446.6174,401.7492 436.5086,370.7777 430.9953,356.1734 425.1475,341.9909 420.2282,331.3063 415.5292,322.4869 410.7344,314.9062 406.6571,310.0999 404.8502,308.759 403.4069,308.1893 402.2131,308.2449 401.0718,309.1818 400.129,312.0848 399.95,315.9985 400.4537,321.3716 401.6178,327.8292 405.5084,342.7293 412.3724,363.0036 417.2296,375.9304 423.6617,391.5021 452.6812,457.5274 460.6731,476.5035 467.252,493.0845 475.15,515.1959 481.0631,534.7906 485.47,552.6092 488.7059,570.8677 489.3528,576.5711 489.158,579.4062 488.3679,577.6517 486.584,570.8398 472.8096,503.1849 461.1692,451.7945 450.1894,410.4164 445.1852,393.5338 439.5206,375.9006 432.7919,356.398 426.5707,340.1528 420.0311,325.1956 413.6627,312.554 407.6525,302.7167 404.577,298.661 401.966,295.848 399.679,294.067 397.728,293.324 396.125,293.625 394.9575,294.8511 393.9646,297.9079 393.6687,302.4297 394.0563,308.2817 395.0828,314.8346 396.7482,322.1591 399.1865,330.9531 406.0405,351.7101 412.9535,369.6268 421.1555,389.2061 435.1805,420.3546 449.5758,451.337 462.0896,479.684 471.6738,503.9412 479.758,527.3674 486.6251,551.8381 490.7222,571.1991 493.6345,592.209 494.125,600.125 494.0607,602.8548 493.6371,603.6248 492.994,602.446 492.0542,599.2864 489.8885,589.3929 478.2847,526.5608 470.7453,489.2514 465.0511,463.562 458.4572,436.1885 452.097,411.8276 444.9184,386.6325 438.1693,364.9204 431.1331,344.6552 423.0759,324.243 415.4455,307.0586 408.3937,293.5197 404.7857,287.6443 401.082,282.3471 397.9205,278.5172 394.81,275.537 392.2615,273.8834 389.8858,273.2963 387.9295,273.9445 386.475,275.7837 385.3532,279.6478 384.9944,285.1198 385.395,291.5008 386.5885,299.1457 388.788,308.9505 391.8495,320.088 395.027,330.0765 399.0922,341.4458 408.0607,364.0539 415.7068,381.5214 429.5415,411.0689 454.4724,462.9043 463.2178,481.9754 474.6298,509.4374 480.3699,525.3107 484.2271,536.9726 488.726,552.8482 491.5168,564.0475 495.4178,582.8911 497.543,596.539 498.8126,606.6832 500.2983,626.2704 500.4429,639.27 500.1146,642.0307 499.5833,642.838 499.125,642.375 498.669,641.0973 496.521,630.9507 482.5504,543.6975 475.1428,503.4471 468.9216,472.5917 461.438,439.2143 453.9029,408.7017 446.4649,381.5843 438.0635,353.9807 428.714,326.5603 419.5803,303.1755 409.68,281.3954 404.8279,272.0316 400.1045,263.828 395.7221,257.1246 391.5249,251.6545 387.3713,247.2114 383.2854,243.9845 379.9861,242.4974 378.3794,242.2744 376.9161,242.4638 375.602,243.0634 374.4787,244.0313 372.6817,247.1598 371.4763,252.7209 371.2518,260.0369 372.0129,269.4097 373.6045,279.2622 376.0987,290.0489 379.4746,301.9009 384.0566,315.8539 389.0062,329.368 398.6897,352.4049 412.5276,381.9568 423.6164,403.9054 453.6484,461.4607 470.8851,496.6898 478.7584,515.0331 484.9184,530.7436 491.1922,549.0316 495.4797,563.5833 500.5702,584.9729 504.4132,606.9111 507.2044,628.5644 508.9586,650.318 510.223,675.2715 510.9912,720.6837 510.674,762.256 510.375,769.25 509.9028,772.1574 509.4305,769.7154 508.9815,763.9941 506.6379,725.9319 504.2534,693.0373 499.4357,639.2281 493.9291,589.7991 486.4721,535.1395 482.2911,508.5631 477.8692,482.9414 472.556,454.6723 467.1181,427.8066 461.7667,403.2922 456.1842,379.6054 450.4086,356.9551 444.4829,335.5 437.3824,311.772 430.0007,288.989 422.4197,267.4251 414.8457,247.645 407.3513,229.7711 399.8559,213.5884 392.1743,198.7603 384.3671,185.3781 376.4742,173.5785 368.6115,163.6503 361.1334,156.0971 357.4655,153.166 354.1447,151.0201 350.9636,149.4801 347.9195,148.5435 344.9723,148.1893 341.9467,148.5006 339.453,149.3907 336.9429,151.0293 334.7134,153.3219 332.7707,156.2378 330.8272,160.5164 329.2111,166.0532 328.1828,171.9393 327.5916,178.9236 327.5164,186.4708 327.9272,194.5688 328.8458,203.513 330.2381,212.8966 334.433,233.0645 340.4611,254.7076 347.8014,275.9284 356.7637,297.9064 366.1394,318.2675 376.8409,339.4283 387.3732,358.4713 399.4479,378.6131 411.9426,398.221 425.2453,418.2134 465.732,475.602 477.7593,493.0787 491.9386,515.0568 500.6917,529.886 511.1499,550.4119 518.9109,568.9103 522.6278,579.0033 526.3064,590.5086 534.817,621.3122 537.3477,629.2284 538.6164,632.6399 539.8226,634.8975 541.3161,636.7402 542.6819,637.644 543.695,637.7646 544.7671,637.5014 546.7959,636.0873 549.0627,633.3008 551.6377,629.0353 557.667,615.7903 565.6933,594.6683 583.229,543.845 609.5087,464.3656 616.4979,440.7728 617.5879,434.7617 617.4608,431.6915 616.9585,431.0638 616.375,431.0 614.5028,432.0079 611.6847,434.8061 607.9103,439.4962 597.2388,455.3195 587.8523,471.1312 578.9077,487.6616 570.3465,505.2604 563.383,521.6615 557.2199,538.2674 551.8753,555.0815 547.773,570.1126 544.3541,585.9506 541.8072,601.4203 539.9041,619.3989 539.353,634.2862 539.6495,640.3178 540.3051,645.4897 541.2306,648.5764 542.5471,650.2159 543.4962,650.3182 544.206,650.0455 545.8398,648.619 547.9688,645.5 550.2389,641.1627 555.9419,627.5211 563.2973,607.0827 616.064,447.793 621.2343,429.8549 622.1902,424.2482 622.0182,421.3846 621.5372,420.8081 620.8404,420.7843 618.5224,422.2538 615.2593,425.6395 611.1949,430.7741 598.934,448.6604 587.202,468.011 577.8889,485.2017 568.4567,504.5348 559.9318,524.3429 554.2593,539.7921 548.6394,557.6062 544.1063,575.426 539.9964,596.6605 537.7488,612.7687 536.1826,630.0005 535.7663,639.8816 535.8366,647.9599 536.2848,654.9223 537.1715,660.6343 538.2555,663.8228 538.9258,664.6661 539.6913,665.0855 541.0893,664.8288 542.5353,663.559 544.5059,660.7972 546.5475,657.038 551.7223,644.8478 557.8893,627.8625 596.3777,510.4543 621.3088,436.1152 627.064,416.605 628.0314,411.4467 627.9138,408.7046 627.521,408.096 626.688,407.918 625.507,408.442 623.984,409.644 620.3889,413.4565 615.5099,419.6172 602.1064,438.7867 592.7286,453.5109 586.7285,463.5196 574.9772,484.9515 565.4523,504.3147 557.4795,522.9566 550.218,542.8416 543.8181,564.1653 539.1761,583.2998 535.9893,600.3837 532.9877,623.5179 531.5497,642.9784 531.2271,655.4482 531.4013,662.9512 531.9913,672.374 532.9924,679.0557 534.2504,683.1363 535.1177,684.2843 535.861,684.7004 537.0139,684.5885 538.5556,683.3894 540.3472,680.9681 542.2467,677.5404 546.5729,667.5673 551.721,653.0617 593.7945,522.0516 630.95,412.4551 635.1468,398.0119 635.8493,393.9191 635.6634,391.7545 635.1455,391.1663 634.1043,391.2806 631.0862,393.6807 626.1844,399.0665 619.85,407.136 611.1336,419.1559 602.3097,432.0534 592.8683,446.5631 585.367,458.8695 572.0339,482.4931 561.3092,503.9945 553.0525,523.1255 544.8079,545.5453 538.0498,569.0851 532.6628,593.4653 528.8071,618.38 526.7164,639.5335 525.5933,665.8079 525.5033,680.1021 525.7592,687.3517 526.5416,699.2834 527.75,707.5 529.096,711.8536 529.9491,713.2089 530.9697,714.0 532.022,713.9 533.213,713.0 536.0757,708.5706 539.4422,700.8237 543.362,689.7431 551.3145,664.875 576.7233,580.8886 590.6765,536.7485 613.2485,469.1296 643.1243,384.461 646.8058,372.4613 647.4495,369.1745 647.4102,367.1831 646.8711,366.4141 645.6409,366.6547 643.7884,368.0811 641.3283,370.6045 633.0702,380.5472 621.5296,395.6257 610.2213,411.1139 599.3579,426.7356 586.4484,446.1979 576.6994,461.792 563.6636,484.9743 557.0305,497.947 551.8192,508.9505 547.0283,520.0297 542.6139,531.233 538.4475,542.8705 534.5739,554.8639 531.4709,565.677 528.5186,577.9026 525.6466,591.632 523.2118,605.8177 521.3197,618.972 519.625,635.0 517.9039,660.8356 517.1666,680.7528 516.9659,700.5324 517.7419,739.9172 518.4489,753.2316 519.5349,764.7293 520.9138,771.5987 521.6994,773.4468 522.6309,774.3574 523.375,774.375 524.2363,773.7246 526.3075,770.356 528.3459,765.1581 531.3738,755.6549 556.3762,662.8884 570.7944,611.5931 585.8159,560.6661 602.1654,508.9135 614.5587,471.8801 627.7552,434.6035 646.0679,385.6229 668.7802,327.8384 671.2818,320.5783 671.801,317.1672 671.483,316.8649 670.8988,317.0298 668.625,319.0 658.377,330.984 611.4536,390.2817 591.7584,415.9117 577.1278,435.8797 564.6752,453.9042 554.2422,470.182 544.6907,486.526 536.9481,501.0551 530.3911,514.9398 523.8964,530.4393 518.7771,544.877 514.4639,559.1061 511.148,571.7281 508.0907,586.1308 502.0477,619.2223 500.4911,625.2695 499.875,626.5 499.0485,627.0969 498.2219,626.3163 497.0882,623.9002 494.4692,613.1771 477.5021,518.0807 470.4908,482.9871 464.5825,455.5771 458.528,430.1627 451.5992,403.4842 445.0367,380.3343 438.489,359.3274 429.4999,333.4032 420.496,310.4329 411.9931,291.6778 403.2141,275.3509 398.8658,268.4954 394.9419,263.1546 391.267,259.0388 387.7466,256.0967 384.7093,254.5292 383.3629,254.2296 381.8438,254.2969 379.7967,255.3966 378.0681,258.0389 376.8476,262.9148 376.5735,269.4461 377.2599,277.8202 378.8707,287.5586 381.1979,297.8507 384.3128,308.9174 388.2201,320.8535 393.1374,334.3035 402.9609,358.2259 416.6998,388.0694 425.0882,405.1966 456.2293,466.6006 469.0564,493.8961 474.9622,507.7221 482.2383,526.5153 486.4538,538.5652 491.2542,554.0746 494.7156,567.1834 499.336,588.8404 502.5395,609.2682 504.6827,628.286 506.156,650.1143 506.7777,677.3556 506.4578,689.2473 505.9942,694.5813 505.3594,696.4375 504.8009,695.5888 504.311,693.83 502.6583,683.2722 494.3382,613.8197 488.7378,573.2282 482.1182,529.9804 475.5557,492.5699 467.3087,451.1628 458.5632,412.5344 448.988,375.3216 438.7476,340.0975 432.9723,322.1014 427.2055,305.417 421.4656,290.0615 415.411,275.1195 409.1089,260.8354 402.9673,248.1292 396.7147,236.4484 390.7564,226.5724 384.7438,217.9888 378.9397,211.129 373.5419,206.1499 368.3315,202.8985 366.0903,202.0886 363.9961,201.7363 362.0579,201.8391 360.0749,202.4957 358.3577,203.6798 356.943,205.2614 355.7326,207.2648 354.6254,209.9603 353.6938,213.4632 353.0164,217.8839 352.692,227.9294 353.6647,240.0687 355.9084,253.4465 359.4254,268.2039 364.1268,284.0603 370.044,301.0725 376.6812,317.8381 383.103,332.5357 390.2204,347.6699 398.6001,364.4207 407.259,380.8292 424.6915,411.8031 457.8536,468.2034 468.7021,487.5488 476.4,501.9622 484.2616,517.9648 490.5624,531.8397 494.5006,541.5131 500.8272,558.753 504.3387,569.6205 508.068,583.4324 510.847,595.1726 513.5539,608.784 515.6996,621.3396 517.988,638.164 523.2936,688.941 525.2017,702.4933 526.2208,707.7532 527.5663,712.4201 528.875,714.9062 530.176,715.8305 531.3334,715.718 532.6258,714.746 535.4298,710.5097 539.0506,702.3358 543.2513,690.77 551.4328,664.9068 577.1679,579.768 590.075,538.9198 611.6212,474.0926 643.7295,383.2093 647.5894,370.5715 648.2385,367.3117 648.2173,365.384 647.6149,364.7578 646.3028,365.1967 641.9595,369.1821 634.4452,378.0897 624.3699,391.1469 611.7304,408.4612 598.9406,426.7894 587.3056,444.1816 577.7473,459.3983 570.7316,471.3353 563.7778,483.9398 557.3919,496.3025 551.559,508.4275 546.8407,519.1032 542.4002,530.1656 538.4213,541.1489 534.7315,552.5696 531.2529,564.7168 528.5114,575.596 525.9116,587.7121 523.6469,600.1573 519.9955,626.3539 517.5922,656.7951 516.5501,685.7395 516.3438,704.7962 517.0179,741.52 517.7962,756.973 519.0631,770.6187 520.2592,777.4842 521.1053,779.4173 522.0608,780.3254 522.7014,780.2994 523.6119,779.5275 525.4496,776.3706 527.5476,770.9734 530.1653,762.6652 536.0723,741.3296 557.008,661.831 569.8776,615.368 585.4459,562.7179 602.6503,508.1577 616.5304,466.7242 631.6713,424.0961 647.5429,381.9657 670.599,324.3239 673.6117,315.8147 674.1768,312.37 673.9398,312.1215 673.3945,312.2439 671.4367,313.8929 663.8589,322.6991 612.7794,386.7736 589.9147,416.1254 576.7627,433.8602 564.661,451.1235 553.9486,467.394 545.0073,482.1252 537.1628,496.4484 529.7746,511.4604 523.8729,524.8617 518.7966,538.3772 513.9311,553.2275 509.7726,568.5359 505.4412,587.981 500.6648,611.6543 499.1991,615.8472 498.546,616.7418 497.936,617.023 496.8122,616.0017 495.4474,612.9363 492.5167,600.8235 474.6305,504.8629 469.1967,478.6487 462.6518,449.4298 456.9772,426.2289 450.8981,403.5738 444.1982,380.3286 437.7398,359.7431 429.8451,337.1989 421.2607,315.3882 413.4395,297.9973 405.9288,283.9055 401.9693,277.4868 398.0014,271.8106 394.3313,267.387 391.1924,264.4173 388.375,262.625 385.7517,262.0075 383.6066,262.6779 381.9552,264.5638 380.7068,268.0478 380.125,272.875 380.236,279.061 381.0396,286.2697 382.5799,294.7949 384.7892,304.1877 387.4402,313.664 390.8115,324.1034 399.3441,346.8862 409.3549,370.3797 426.7827,407.1344 459.6773,473.7159 470.0485,497.0059 477.8309,516.1388 482.2829,528.2989 486.1275,539.9065 490.135,553.555 493.2956,565.6222 497.9453,588.0013 501.75,614.625"/>
  </g>
</svg>
