<?xml version="1.0" encoding="utf-8" ?>
<svg xmlns="http://www.w3.org/2000/svg" xmlns:cc="http://creativecommons.org/ns" xmlns:dc="http://purl.org/dc/elements/1.1/" xmlns:ev="http://www.w3.org/2001/xml-events" xmlns:inkscape="http://www.inkscape.org/namespaces/inkscape" xmlns:rdf="http://www.w3.org/1999/02/22-rdf-syntax-ns" xmlns:sodipodi="http://sodipodi.sourceforge.net/DTD/sodipodi-0.dtd" xmlns:xlink="http://www.w3.org/1999/xlink" baseProfile="tiny" height="27.09333333cm" version="1.2" viewBox="0 0 1024.0 1024.0" width="27.09333333cm">
  <metadata>
    <rdf:RDF>
      <cc:Work>
        <dc:format>image/svg+xml</dc:format>
        <dc:source>vpype read './original_svgs/Strange Attractors #101.svg' linemerge linesimplify write './Strange Attractors #101.svg'
</dc:source>
        <dc:date>2024-08-05T01:35:25.503116</dc:date>
      </cc:Work>
    </rdf:RDF>
  </metadata>
  <defs/>
  <g fill="none" id="layer1" inkscape:groupmode="layer" inkscape:label="1" stroke="black" stroke-width="0.7mm" style="display:inline">
    <polyline points="467.125,384.25 471.75,374.0 480.25,352.75 485.875,341.125 489.5,334.875 493.75,328.375 498.875,321.625 505.125,314.5 512.625,307.125 521.875,299.5 533.125,291.625 546.75,283.75 563.125,276.25 582.75,269.5 605.75,264.0 632.375,260.875 662.0,261.25 693.375,266.5 724.75,277.625 753.125,295.375 775.75,319.125"/>
    <polyline points="790.625,347.375 797.0,377.5 795.75,406.875 789.0,433.5 779.125,456.0 767.875,474.375 756.875,488.5 746.75,499.125 737.875,506.875 730.5,512.125 724.5,515.375 719.5,517.25 715.375,517.875 712.0,517.625 709.125,516.625 706.5,515.25 696.125,506.875 689.875,502.75 682.75,499.125 678.875,497.625 674.875,496.5"/>
    <polyline points="670.625,495.5 661.875,494.25 652.875,494.0 639.625,495.125 635.375,495.75 627.0,497.625 615.5,501.0 605.125,505.0 598.875,507.875 590.5,512.375 581.0,518.625"/>
    <polyline points="579.0,520.25 573.25,525.0 568.375,529.875 564.375,534.75 560.875,539.875 557.25,546.875 555.125,552.375 553.5,558.0 552.375,564.0"/>
    <polyline points="552.0,566.125 551.0,574.875 550.625,581.875 550.0,619.0 549.25,629.75 548.25,637.375"/>
    <polyline points="547.625,641.5 545.75,650.0 543.0,659.125 541.125,664.0 536.25,674.25 533.0,679.75 529.0,685.375 524.25,691.25 518.625,697.375 511.875,703.75 503.875,710.25 494.375,717.0 483.0,723.75 469.75,730.375 454.25,736.625 436.25,742.375 415.875,747.0 393.125,750.0 368.625,750.625 343.125,748.25 317.75,741.875 294.5,731.125 275.0,715.75"/>
    <polyline points="260.875,696.375 252.875,673.875 251.25,649.875 255.125,625.75 263.25,602.875 274.125,582.125 286.375,564.0 298.875,548.625 311.0,536.0 322.125,525.75 332.25,517.625 341.25,511.375 349.125,506.625 362.125,500.5 367.5,498.875 376.625,497.125 384.25,497.0 391.0,497.75 403.0,499.875"/>
    <polyline points="405.875,500.375 411.375,501.125 419.375,501.625 424.5,501.625 434.125,500.5 442.75,498.25 448.5,496.0 453.75,493.375 459.75,489.375"/>
    <polyline points="461.125,488.25 464.75,484.875 468.0,481.25 471.5,476.0 473.625,471.875 476.375,464.25 477.875,457.625 478.75,452.125"/>
    <polyline points="478.875,450.25 479.625,442.125 480.375,414.5 481.125,401.75 482.375,391.0 483.625,383.125 484.625,379.0"/>
    <polyline points="485.625,374.625 488.625,365.25 492.875,355.125 499.125,344.0 503.25,338.0 508.125,331.875 514.125,325.375 521.125,318.75 529.625,311.875 539.875,305.0 552.0,298.25 566.25,291.75 583.125,286.0 602.5,281.375 624.5,278.5 648.875,278.375 674.625,281.75 700.625,289.5 724.875,302.125 745.75,319.625 761.25,341.0 770.375,365.0 773.375,389.625"/>
    <polyline points="771.0,413.25 764.75,434.625 756.125,453.125 746.5,468.5 736.625,480.875 727.375,490.625 718.875,498.125 711.375,503.875 704.75,508.125 699.0,511.25 689.625,514.875 682.125,516.25 676.0,516.375 657.375,514.5 649.5,514.375"/>
    <polyline points="646.75,514.5 639.0,515.5 633.875,516.625 628.875,518.125 621.875,520.875 615.375,524.25 609.625,528.0 606.125,530.75 600.25,536.625 596.75,541.5"/>
    <polyline points="595.75,543.125 593.25,548.25 591.5,553.5 590.75,557.25 590.25,562.875 590.625,568.75 592.0,574.875 594.25,581.0 596.375,585.25 599.0,589.375 600.625,591.375"/>
    <polyline points="602.375,593.5 606.375,597.5 608.75,599.375 611.375,601.25 617.375,604.625 624.5,607.5 633.25,609.5 643.75,610.5 649.75,610.375 656.25,609.75 663.5,608.625 671.375,606.75 679.875,604.125 689.0,600.625 698.75,596.0 709.125,590.375 719.75,583.375 730.75,575.0 741.5,565.25 751.75,554.25 761.0,541.875"/>
    <polyline points="768.75,528.375 774.375,514.375 777.5,500.0 777.75,486.0 775.0,472.875 769.375,460.875 761.125,450.625 750.75,442.125 739.0,435.5 726.375,430.5 713.5,427.25 700.625,425.25 688.25,424.25 676.5,424.125 665.625,424.625 655.625,425.625 638.0,428.25 617.125,432.875 593.25,439.625"/>
    <polyline points="589.625,440.625 574.875,444.375 568.125,445.5 560.75,445.75 556.125,445.25 552.25,444.0 550.125,443.0 548.125,441.625 545.625,439.125"/>
    <polyline points="544.875,438.125 543.625,436.125 542.625,433.75 541.375,428.5 541.125,424.0 541.625,419.0 543.0,413.375 545.25,407.5 547.5,403.375 550.25,399.125 552.0,397.0"/>
    <polyline points="553.75,394.875 558.0,390.625 563.0,386.5 569.0,382.625 575.75,379.25 579.5,377.75 587.625,375.5 596.25,374.375 600.75,374.25 605.25,374.5 614.125,376.25 622.375,379.75 626.125,382.125 629.5,384.875 632.375,388.0 634.75,391.5 636.625,395.25 637.875,399.125"/>
    <polyline points="638.625,403.25 638.75,407.5 637.625,416.0 636.25,420.25 634.5,424.25 632.375,428.25 627.375,435.625 621.375,442.25 618.25,445.25 611.625,450.75 601.625,457.625 595.0,461.5 585.625,466.25 574.25,471.125"/>
    <polyline points="571.625,472.125 557.5,476.625 544.75,479.25 536.375,479.625 532.875,479.25 529.75,478.5"/>
    <polyline points="528.75,478.125 526.125,477.0 523.125,475.0 519.875,471.5 516.75,466.25 514.0,458.25"/>
    <polyline points="513.625,456.875 511.75,444.5 511.5,432.75 511.875,426.0 512.875,418.5 514.5,410.375 516.25,404.375"/>
    <polyline points="517.25,401.375 521.5,391.375 523.375,387.875 528.0,380.625 533.875,373.125 541.375,365.375 545.875,361.375 556.75,353.75 563.125,350.125 570.25,346.75 578.0,343.75 586.625,341.125 595.875,339.0 605.875,337.75 616.25,337.375 627.125,338.0 638.0,340.0 648.75,343.25 658.875,347.875 668.125,354.0"/>
    <polyline points="676.125,361.375 682.5,369.875 687.25,379.25 690.0,389.125 691.0,399.375 690.375,409.375 688.25,419.125 684.875,428.375 680.625,436.875 675.75,444.75 670.375,451.875 664.75,458.25 659.0,464.0 653.25,469.125 642.125,477.75 631.625,484.75 617.5,493.25 598.125,504.125"/>
    <polyline points="594.75,506.125 580.75,514.875 571.875,521.5 566.5,526.375 560.625,532.75 557.125,537.625 554.125,542.625 551.75,547.75"/>
    <polyline points="551.125,549.5 548.375,558.625 546.625,568.625 545.75,577.375 544.25,605.875"/>
    <polyline points="544.0,608.875 543.125,618.5 541.5,629.0 539.75,636.625 535.875,649.0 531.875,657.875 529.25,662.625 522.75,672.625 518.625,677.75 513.75,683.25 508.0,688.75 501.25,694.375 493.375,700.125 484.375,705.875 473.75,711.625 461.625,717.0 447.75,722.125"/>
    <polyline points="432.125,726.5 414.875,729.75 396.0,731.625 376.0,731.625 355.625,729.125 335.5,723.75 317.125,715.125 301.25,703.25 289.25,688.25 281.5,671.0 278.375,652.125 279.625,632.75 284.375,613.75 291.875,595.75 301.0,579.5 311.125,565.125 321.5,552.625 331.625,542.125 341.25,533.25 350.125,525.875 358.25,519.875 365.75,515.0 378.375,507.75 388.75,503.125"/>
    <polyline points="393.25,501.5 404.75,498.125 424.25,494.125 434.875,491.25 442.125,488.375 448.25,484.875 451.0,482.875"/>
    <polyline points="452.25,481.875 455.75,478.5 458.75,475.0 462.0,469.75 463.375,466.875 465.125,462.375 466.75,455.875 467.625,450.625 468.125,444.875"/>
    <polyline points="468.125,442.875 468.25,434.375 467.625,422.5 464.5,385.75 464.125,369.875"/>
    <polyline points="464.25,365.5 464.75,356.25 466.125,346.125 467.25,340.625 468.75,334.875 473.25,322.375 476.5,315.625 480.75,308.375 486.0,300.75 492.75,292.5 501.375,283.875 512.125,274.875 525.75,265.375 542.875,255.75 564.25,246.5 590.5,238.25 622.25,232.25 659.375,230.125 700.625,234.125 743.25,246.625 782.75,269.25 813.875,301.5 832.875,340.625"/>
    <polyline points="838.75,381.75 833.875,420.375 822.375,453.25 808.375,479.25 794.625,498.375 782.75,511.5 773.5,519.875 766.75,524.125 762.25,525.375 759.375,524.125 757.625,520.875 754.0,503.875 752.0,497.0 749.125,490.0 745.125,483.25 740.0,477.0 733.875,471.375 726.875,466.5 719.0,462.375 710.75,459.125 702.0,456.625 693.125,455.0 684.25,453.875 675.5,453.5"/>
    <polyline points="667.0,453.5 651.0,454.75 643.625,455.75 636.5,456.875 617.625,461.0 602.0,465.375 563.375,477.75 554.0,480.375"/>
    <polyline points="552.0,480.875 541.5,483.0 533.625,483.5 527.5,482.625 525.75,482.0 522.125,480.0"/>
    <polyline points="521.375,479.5 518.5,476.625 515.125,471.0 512.875,464.875 510.875,455.875"/>
    <polyline points="510.625,454.5 509.875,448.125 509.375,439.0 509.75,428.125 510.5,420.75 511.375,415.5 513.375,406.875 516.625,397.375"/>
    <polyline points="518.0,394.0 521.5,386.875 523.625,383.25 528.875,375.625 532.125,371.625 535.625,367.625 539.75,363.625 544.375,359.625 549.625,355.625 555.5,351.625 562.125,347.875 569.5,344.375 577.625,341.125 586.625,338.375 596.375,336.25 606.875,334.875 617.875,334.5 629.25,335.25 640.75,337.375 652.0,340.875 662.75,346.0 672.375,352.625 680.625,360.5 687.125,369.75"/>
    <polyline points="691.75,379.75 694.375,390.25 695.0,401.0 694.0,411.5 691.5,421.625 687.75,431.125 683.125,439.875 677.75,447.875 672.125,455.0 666.25,461.375 660.375,467.125 648.625,476.75 637.75,484.375 627.625,490.625 593.125,510.5"/>
    <polyline points="590.25,512.375 584.875,515.875 577.875,521.0 572.0,526.0 567.125,531.0 561.875,537.75 558.75,543.0 556.25,548.25 553.625,555.75"/>
    <polyline points="553.125,557.625 551.5,565.625 550.5,574.375 549.875,586.25 549.5,611.625 549.0,621.625"/>
    <polyline points="548.75,625.125 548.0,632.5 546.75,640.375 543.625,653.25 540.125,662.75 537.875,667.75 535.25,672.875 532.0,678.25 528.125,683.875 523.375,689.75 517.875,695.75 511.25,702.0 503.25,708.375 494.0,715.0 482.875,721.5 469.875,728.0 454.75,734.25 437.375,739.875 417.625,744.375 395.625,747.375 371.75,748.25"/>
    <polyline points="347.0,746.125 322.375,740.25 299.5,730.125 280.0,715.75 265.625,697.25 257.125,675.75 254.75,652.5 257.75,629.0 265.125,606.375 275.25,585.75 287.0,567.625 299.25,552.125 311.25,539.125 322.375,528.625 332.5,520.25 341.625,513.625 349.75,508.625 356.875,504.75 363.125,501.875 368.625,499.875 373.625,498.5 382.125,497.25 389.375,497.125 392.625,497.375"/>
    <polyline points="395.75,497.625 415.375,499.875 420.5,500.0 430.125,499.25 436.75,498.0 442.875,496.125 448.375,493.875 453.375,491.125"/>
    <polyline points="454.875,490.125 461.625,484.875 465.0,481.25 468.75,476.125 471.0,472.0 472.875,467.625 474.375,462.875 475.875,456.125"/>
    <polyline points="476.125,454.375 477.375,442.625 478.25,402.875 479.5,388.5"/>
    <polyline points="480.0,384.625 482.5,371.75 485.375,362.25 489.5,351.875 492.375,346.25 495.75,340.5 499.875,334.375 504.75,327.875 510.75,321.25 518.125,314.25 526.875,307.125 537.375,299.875 550.125,292.75 565.125,285.875 583.0,279.75 603.75,274.75 627.5,271.875 653.75,271.875 681.625,275.875 709.5,284.875 735.375,299.375 757.0,319.0"/>
    <polyline points="772.375,343.0 780.75,369.25 782.25,395.75 778.25,420.625 770.5,442.625 760.875,461.25 750.5,476.25 740.375,488.125 731.125,497.125 722.875,503.875 715.875,508.75 709.75,512.25 704.625,514.375 700.125,515.75 696.375,516.375 692.875,516.5 687.0,515.625 670.625,510.25 664.75,508.875"/>
    <polyline points="661.75,508.25 655.5,507.625 645.75,507.75 639.375,508.5 633.125,509.75 624.125,512.25 615.75,515.625 608.125,519.5 599.375,525.25 593.875,529.875"/>
    <polyline points="592.25,531.5 589.125,534.75 584.0,541.75 580.25,549.125 578.875,552.875 577.0,560.875 576.5,567.125 576.375,571.5 577.25,580.75"/>
    <polyline points="577.75,583.125 579.5,590.5 581.125,595.625 585.75,606.25 588.875,611.75 592.625,617.25 599.875,625.5 602.75,628.25 609.5,633.375 617.875,638.0 622.75,640.125 628.25,641.875 634.5,643.375 641.5,644.375"/>
    <polyline points="649.375,644.875 658.25,644.625 668.375,643.5 679.75,641.375 692.625,637.875 707.0,632.75 723.0,625.625 740.625,616.0 759.375,603.625 779.0,588.125 798.375,569.375 816.375,547.25 831.25,522.5 841.375,496.0 845.0,469.375 841.375,444.25 830.875,422.125 814.5,404.25 794.125,390.75 771.875,381.625 749.5,376.0 728.375,373.25 709.25,372.375 692.5,372.875 678.25,374.25 666.375,376.125"/>
    <polyline points="656.625,378.25 648.75,380.375 642.5,382.625 637.5,384.875 633.625,387.0 630.625,389.25 628.25,391.5 625.0,395.875 623.875,398.125 618.375,412.25 616.125,417.0 613.375,421.625 608.375,428.0 602.5,433.75"/>
    <polyline points="600.5,435.375 596.25,438.625 589.625,442.625 583.25,445.875 576.875,448.25 571.0,450.0 563.625,451.25 557.25,451.375 552.875,450.75"/>
    <polyline points="551.625,450.5 547.875,449.125 544.75,447.375 542.0,445.0 539.75,442.125 537.875,438.75 536.25,433.375 535.625,427.125 535.75,423.625"/>
    <polyline points="535.875,421.75 536.5,418.0 538.125,411.75 540.875,405.125 545.0,398.0 548.625,393.125 553.125,388.25 555.625,385.875 561.625,381.125 568.625,376.75 576.875,372.875 586.125,370.0 591.125,369.0"/>
    <polyline points="596.375,368.25 607.125,368.125 612.5,368.75 617.875,370.0 623.125,371.625 628.0,374.0 632.625,376.75 636.75,380.125 640.25,383.875 643.125,388.125 645.375,392.625 646.875,397.5 647.625,402.5 647.625,407.625 647.125,412.75 645.875,417.75 644.125,422.625 641.875,427.375 639.25,432.0 633.0,440.375 626.0,447.75 618.5,454.125"/>
    <polyline points="614.75,457.0 607.25,462.125 600.0,466.5 583.25,475.125 561.625,484.125 546.0,489.25"/>
    <polyline points="544.375,489.75 536.125,491.75 529.625,492.625 525.5,492.625 522.0,492.0 520.25,491.375"/>
    <polyline points="519.75,491.125 516.875,489.125 513.875,485.25 512.625,482.75 510.75,477.5"/>
    <polyline points="510.5,476.625 508.875,469.625 507.5,461.125 506.375,448.75 506.25,443.25"/>
    <polyline points="506.125,441.375 506.25,433.0 507.0,423.375 508.75,412.5 511.0,403.375 514.625,393.375 520.125,382.25 525.25,374.375 528.375,370.25 532.0,366.125"/>
    <polyline points="536.125,361.875 540.75,357.625 552.125,349.125 558.875,345.125 566.5,341.25 575.0,337.625 584.375,334.5 594.625,332.125 605.75,330.375 617.625,329.75 629.875,330.375 642.375,332.5 654.75,336.125 666.5,341.5 677.125,348.625 686.125,357.25 693.25,367.25 698.25,378.125 701.0,389.625 701.625,401.25 700.25,412.75 697.375,423.625 693.125,433.75 688.0,442.875 682.375,451.25"/>
    <polyline points="676.25,458.625 670.0,465.25 663.75,471.0 657.75,476.125 651.75,480.625 640.625,488.25 635.375,491.5 609.5,506.25 596.5,514.0 586.125,521.25 578.0,528.125"/>
    <polyline points="576.25,529.875 573.0,533.375 567.75,540.5 565.625,544.125 562.25,551.5 560.5,557.375 558.75,565.75 557.875,574.625 557.75,579.375"/>
    <polyline points="557.75,581.75 558.25,597.625 561.0,633.5 561.375,645.5 560.875,658.75 559.75,668.375"/>
    <polyline points="558.875,673.5 556.125,684.375 554.0,690.25 551.375,696.375 548.0,702.875 543.75,709.625 538.5,716.75 531.875,724.25 523.625,732.25 513.375,740.625 500.75,749.25 485.125,758.125 466.0,767.0 443.0,775.5 415.625,782.875 383.875,788.125 348.125,790.0 310.125,786.75 272.5,776.75 238.75,758.625 213.0,732.625 197.875,700.25 194.375,664.5 200.75,628.5 214.125,595.375"/>
    <polyline points="231.125,566.625 249.0,543.25 265.875,524.875 280.75,511.25 293.375,501.625 303.75,495.25 312.125,491.625 318.875,490.125 324.5,490.375 329.125,492.125 333.125,494.75 336.875,498.25 352.5,515.25 357.0,519.375 361.625,523.25 371.75,530.0 382.25,535.125 387.5,537.0 398.0,539.875 403.0,540.75"/>
    <polyline points="408.0,541.375 412.75,541.75 421.75,541.875 430.0,541.375 440.875,539.875 450.5,537.875 458.625,535.75 480.375,528.75"/>
    <polyline points="481.875,528.25 495.875,523.75 503.25,522.375"/>
    <polyline points="503.75,522.375 506.375,522.5 508.25,523.125 509.625,524.125 510.75,525.5"/>
    <polyline points="511.0,525.75 512.5,529.0 514.375,536.5"/>
    <polyline points="514.5,537.125 516.375,550.625 517.0,559.5"/>
    <polyline points="517.125,560.75 517.375,575.125 516.75,585.625 515.25,595.75 513.125,604.75"/>
    <polyline points="512.375,607.125 511.625,609.625 508.5,617.25 504.125,625.5 500.375,631.125 495.75,637.0 493.0,639.875 490.0,642.875 483.125,648.75 479.125,651.625 470.125,657.0 465.0,659.625 453.5,664.125 440.5,667.375 433.625,668.375 426.375,669.0"/>
    <polyline points="419.125,668.875 411.75,668.25 404.5,666.75 397.5,664.625 391.0,661.625 385.125,657.875 379.875,653.375 375.5,648.125 372.25,642.375 369.875,636.0 368.625,629.25 368.5,622.25 369.25,615.125 371.0,608.0 373.375,601.0 376.5,594.25 380.125,587.75 384.125,581.625 393.0,570.5 402.25,560.875 411.375,552.75 420.125,546.0"/>
    <polyline points="424.25,543.0 432.0,537.625 439.125,533.125 470.0,515.75 476.625,511.75 483.25,507.25"/>
    <polyline points="484.375,506.5 489.25,502.5 494.125,497.0 496.125,493.875 498.0,489.75 499.125,486.25"/>
    <polyline points="499.375,485.25 500.375,479.5 500.875,472.875 500.875,454.5"/>
    <polyline points="500.875,452.875 500.875,439.5 501.25,430.5 503.0,414.75 504.125,408.75 505.75,402.375 509.125,391.875 510.625,388.25"/>
    <polyline points="512.375,384.375 514.375,380.375 519.5,372.0 526.125,363.125 530.25,358.625 535.0,354.0 540.5,349.375 546.625,344.75 553.75,340.125 561.75,335.75 570.875,331.625 581.0,328.0 592.25,325.0 604.5,322.875 617.75,321.75 631.625,322.125 646.0,324.25 660.125,328.25 673.75,334.25 686.0,342.375 696.375,352.375 704.375,363.875 709.75,376.625 712.5,389.875"/>
    <polyline points="712.625,403.125 710.625,416.0 706.875,428.125 701.75,439.125 695.75,449.125 689.375,457.875 682.625,465.5 675.875,472.125 669.25,478.0 656.75,487.375 651.0,491.25 640.375,497.75 608.75,515.5 597.875,522.75"/>
    <polyline points="595.625,524.5 589.375,529.75 585.875,533.25 580.25,540.375 576.875,546.0 574.375,551.75 572.125,559.75 571.0,568.375 570.875,572.75"/>
    <polyline points="570.875,575.125 571.375,582.25 573.625,595.125 575.875,603.375 579.0,612.125 581.5,618.125 584.625,624.375 590.25,634.0 595.125,640.5 600.875,647.0"/>
    <polyline points="604.25,650.125 608.0,653.25 612.25,656.25 617.0,659.0 622.375,661.625 628.5,664.0 635.375,665.875 643.375,667.25 652.5,668.125 663.125,668.0 675.375,666.75 689.5,664.0 705.875,659.375 724.75,652.375 746.25,642.25 770.25,628.375 796.25,610.0 823.125,586.375 848.875,557.625 870.875,524.0 885.5,487.375 890.125,450.375 883.0,416.125 865.125,387.5 839.25,366.0 809.375,351.625"/>
    <polyline points="779.0,343.125 750.75,339.25 726.25,338.25 706.0,339.125 690.125,341.125 678.125,343.625 669.625,346.375 663.875,349.375 660.375,352.625 658.75,356.0 658.375,359.75 658.875,363.875 662.25,378.375 663.125,384.0 663.625,389.75 663.5,395.75 662.875,401.75 661.625,407.875 659.75,413.875 657.375,419.625 654.5,425.25 651.25,430.5 643.75,440.25"/>
    <polyline points="639.75,444.625 635.625,448.625 627.0,455.875 618.5,462.125 610.25,467.5 591.25,477.875 569.875,487.875 555.875,493.875"/>
    <line x1="553.875" x2="525.125" y1="494.75" y2="507.125"/>
    <line x1="524.5" x2="516.0" y1="507.375" y2="511.625"/>
    <polyline points="515.75,511.75 514.0,513.0 513.125,514.5 513.0,518.0 513.375,521.25"/>
    <line x1="513.375" x2="514.625" y1="521.5" y2="530.25"/>
    <line x1="514.625" x2="516.625" y1="530.75" y2="548.125"/>
    <polyline points="516.75,549.125 517.75,565.375 517.75,574.5 517.25,583.125"/>
    <polyline points="517.125,585.0 515.75,595.0 513.0,606.375 510.375,613.875 506.625,621.875 503.375,627.5 496.875,636.125 491.375,642.125 484.625,648.0"/>
    <polyline points="480.75,651.0 471.875,656.5 461.5,661.625 449.375,665.875 442.75,667.5 435.875,668.625 428.625,669.375 421.25,669.5 413.875,669.125 406.5,667.875 399.25,666.0 392.5,663.25 386.25,659.75 380.75,655.375 376.125,650.375 372.375,644.625 369.75,638.25 368.125,631.625 367.625,624.625 368.125,617.375 369.625,610.125 371.875,603.0 374.875,596.125"/>
    <polyline points="378.375,589.5 382.375,583.125 386.625,577.25 391.125,571.75 400.375,561.875 414.125,549.75 426.75,540.5 434.375,535.5 447.625,527.625 467.375,516.625"/>
    <polyline points="469.25,515.5 479.0,509.625 487.0,503.625 491.125,499.625 493.125,497.25 495.25,494.0"/>
    <polyline points="495.75,493.125 498.0,488.0 499.625,481.5 500.5,472.75 500.625,467.75"/>
    <polyline points="500.625,466.375 500.625,439.25 501.25,427.75 502.375,417.125"/>
    <polyline points="502.875,414.25 504.75,405.125 507.75,394.875 512.375,383.625 516.875,375.5 519.625,371.25 526.5,362.375 535.5,353.125 541.125,348.375 547.5,343.75 554.625,339.25 562.875,334.875 572.125,330.75 582.5,327.125 593.875,324.25 606.375,322.25 619.875,321.375"/>
    <polyline points="633.875,322.0 648.375,324.25 662.625,328.625 676.0,335.0 688.125,343.5 698.25,353.75 706.0,365.625 711.0,378.625 713.25,392.0 713.0,405.375 710.75,418.125 706.625,430.125 701.375,441.0 695.25,450.875 688.625,459.375 681.875,466.875 675.125,473.5 668.5,479.125 662.125,484.0 656.125,488.375 645.0,495.5 626.25,506.0"/>
    <polyline points="622.375,508.25 611.75,514.125 603.0,519.625 595.625,525.0 589.5,530.25 584.5,535.5 580.5,540.875 577.25,546.5 575.5,550.25 574.125,554.25"/>
    <polyline points="573.625,556.25 572.25,562.375 571.5,571.125 571.75,578.0 572.5,585.375 574.625,595.75 576.125,601.125 579.125,609.75 583.125,618.75"/>
    <polyline points="584.625,621.75 590.25,631.25 592.5,634.375 597.625,640.75 600.625,643.875 607.625,650.0 616.5,655.625 621.75,658.25 627.625,660.5 634.375,662.375 642.125,663.875 650.875,664.625 661.125,664.625 672.875,663.5 686.375,661.125 702.0,656.875 719.875,650.5 740.25,641.25 762.875,628.5 787.625,611.5 813.375,589.875"/>
    <polyline points="838.375,563.25 860.5,532.0 876.375,497.5 883.375,461.875 879.625,428.125 865.375,399.0 842.625,376.25 814.875,360.25 785.5,350.375 757.375,345.125 732.375,343.25 711.125,343.625 693.875,345.125 680.5,347.375 670.5,349.875 663.375,352.75 658.625,355.625 655.75,358.75 654.375,362.125 654.0,365.75 654.25,369.625 657.125,388.25 657.25,393.5"/>
    <polyline points="656.875,398.875 656.125,404.25 654.75,409.75 653.0,415.0 650.75,420.25 645.0,430.0 638.125,438.875 634.375,442.875 626.625,450.125 622.625,453.375 610.75,461.75 599.375,468.5 585.625,475.5 576.375,479.625"/>
    <polyline points="573.5,480.75 558.75,486.75 550.625,489.625 538.25,493.375 530.5,495.0"/>
    <polyline points="529.5,495.125 524.75,495.5 520.375,494.875 517.125,493.375 515.375,491.625"/>
    <polyline points="515.0,491.25 513.125,488.625 511.125,483.875 508.875,474.875"/>
    <polyline points="508.625,473.875 507.0,463.625 506.125,455.0 505.625,446.5 505.625,436.75"/>
    <polyline points="505.625,434.5 506.5,422.625 508.25,411.625 510.625,402.375 511.75,399.125 514.375,392.25 517.875,384.875 522.625,377.0 528.75,368.875 536.75,360.25 547.125,351.625"/>
    <polyline points="553.375,347.5 560.375,343.375 568.25,339.5 577.125,336.0 586.875,333.0 597.5,330.75 609.0,329.25 621.125,328.875 633.625,329.875 646.375,332.375 658.875,336.5 670.5,342.5 680.875,350.125 689.625,359.375 696.25,369.875 700.625,381.125 702.75,393.0 702.625,404.75 700.75,416.25 697.375,427.0 692.75,437.0 687.375,446.0 681.5,454.125 675.25,461.375 669.0,467.75 662.75,473.25"/>
    <polyline points="656.625,478.25 650.75,482.625 639.625,489.875 625.125,498.5 605.625,509.5 593.625,517.0 586.25,522.375 580.125,527.625 573.5,534.625"/>
    <polyline points="572.125,536.375 567.375,543.5 564.625,549.125 562.0,557.0 561.0,561.0 560.0,567.375 559.5,574.125 559.25,578.875 559.5,588.875"/>
    <polyline points="559.625,591.5 560.5,602.75 564.125,636.5 565.0,648.625 565.25,657.375 565.0,666.75 564.125,676.875 562.0,688.0"/>
    <polyline points="560.375,693.875 558.25,700.125 555.375,706.625 551.75,713.5 547.125,720.75 541.125,728.5 533.625,736.625 524.125,745.375 512.25,754.5 497.25,764.0 478.625,773.75 455.75,783.375 427.875,792.25 394.625,799.5 356.25,803.5 314.125,802.375 270.875,793.875 230.875,776.125 199.125,748.75 179.75,713.125 174.25,672.875 181.0,632.125 196.0,594.625 215.25,562.625 235.25,537.0 253.625,517.5"/>
    <polyline points="269.375,503.625 282.25,494.25 292.5,488.875 300.25,486.625 306.375,486.875 311.25,489.125 315.25,492.875 319.0,497.75 326.5,509.5 330.875,515.75 335.625,522.0 340.75,527.875 346.5,533.25 352.5,538.25 358.875,542.625 365.375,546.25 371.875,549.375 378.5,551.875 384.875,553.875 397.125,556.375 402.875,557.0 413.5,557.5 418.5,557.375"/>
    <polyline points="423.125,557.125 431.625,556.125 442.75,554.25 476.375,545.625 485.125,544.0"/>
    <polyline points="486.375,543.875 492.875,543.75 497.875,544.75 500.0,545.75 502.375,547.375 505.375,550.75"/>
    <polyline points="505.75,551.375 507.375,554.375 509.0,558.75 510.25,564.0 511.25,572.75 511.375,578.625"/>
    <polyline points="511.375,580.125 510.75,588.625 509.5,596.25 507.25,604.625 504.75,611.375 502.5,616.125 498.125,623.5 494.375,628.5 489.875,633.75"/>
    <polyline points="487.375,636.25 481.5,641.375 474.5,646.375 466.375,650.875 457.0,654.875 446.5,657.875 435.125,659.625 423.125,659.75 417.25,659.0 411.375,657.75 405.75,655.875 400.5,653.5 395.75,650.375 391.5,646.75 388.0,642.625 385.125,638.0 383.0,632.875 381.75,627.5 381.25,621.875"/>
    <polyline points="381.5,616.0 382.5,610.25 384.125,604.375 386.375,598.625 389.0,593.125 395.5,582.625 399.125,577.75 406.875,569.0 418.75,557.875 430.125,549.125 443.625,540.125 460.25,530.75"/>
    <polyline points="462.625,529.5 487.25,516.875 496.0,511.625"/>
    <polyline points="496.625,511.25 499.5,509.125 501.625,507.125 503.375,505.125 504.875,502.75 506.375,497.5 506.75,493.875 506.75,487.75"/>
    <polyline points="505.625,500.625 506.75,495.5 506.875,489.75 504.625,461.75"/>
    <polyline points="506.625,486.375 504.125,454.125 503.875,437.375 504.75,423.25 506.5,412.25 507.875,406.25"/>
    <polyline points="504.5,458.875 503.875,445.5 503.875,437.5 504.5,426.0 506.5,412.5 508.625,403.25"/>
    <polyline points="509.625,399.875 513.75,389.375 517.5,381.75 519.875,377.75 522.625,373.625 529.25,365.125 538.0,356.375 543.375,351.875 549.375,347.5 556.25,343.25 564.0,339.125 572.625,335.25 582.375,332.0 593.0,329.25 604.5,327.25 616.875,326.375 629.875,326.875 643.125,328.75 656.25,332.5 668.75,338.0 680.125,345.375"/>
    <polyline points="689.875,354.5 697.625,365.0 702.875,376.625 705.75,388.875 706.375,401.25 704.875,413.25 701.75,424.75 697.25,435.375 691.75,444.875 685.75,453.5 679.375,461.125 672.875,467.75 666.5,473.625 660.25,478.75 648.5,487.25 637.75,494.0 602.0,514.5 591.375,521.75 584.875,527.125 579.5,532.375 576.5,535.875 571.5,543.125 567.875,550.75 565.375,558.625"/>
    <polyline points="602.25,514.375 596.5,518.125 589.25,523.375 581.25,530.5 576.5,535.75 573.875,539.375 570.5,544.875 567.875,550.625 565.375,558.5 564.0,567.125 563.375,576.25 563.875,588.625 566.625,608.375 570.75,628.125"/>
    <polyline points="564.625,562.625 563.5,571.375 563.375,576.0 563.625,585.875 564.375,593.75 566.5,608.125 571.375,631.5"/>
    <polyline points="572.25,635.125 581.75,672.625 586.5,692.625 588.75,703.5 591.625,721.375 592.625,734.375 592.625,741.375 592.125,748.75 591.125,756.625 589.125,764.875 586.125,773.75"/>
    <polyline points="581.625,783.25 574.875,793.75 565.5,805.25 552.25,817.875 533.625,831.875 508.125,847.25 473.125,863.75 425.875,880.375 364.125,894.5 287.25,901.375 200.25,893.375 116.375,861.625 55.5,802.375 32.625,723.0 46.375,639.625 81.5,567.25 121.0,513.125 154.625,477.75 178.125,458.625 191.75,452.75 197.5,457.75 198.625,471.625 198.25,492.5 199.375,518.125 204.375,546.125 214.25,573.75"/>
    <polyline points="229.0,598.875 247.125,620.0 266.875,636.5 286.25,648.5 303.875,656.75 319.125,662.0 331.375,665.0 340.875,666.125 347.75,666.0 352.625,664.75 355.75,662.75 357.5,659.875 358.5,656.375 359.375,642.25 360.875,630.625 362.25,624.375 364.25,618.0 366.625,611.625 369.625,605.375 373.0,599.25 380.75,587.5 385.125,582.125"/>
    <polyline points="389.5,577.0 398.625,567.75 407.625,559.75 416.375,553.0 424.625,547.125 442.625,536.0 472.125,520.375"/>
    <polyline points="474.0,519.375 482.875,514.5 489.5,510.375 495.0,506.125 498.375,502.625"/>
    <polyline points="498.75,502.0 501.375,498.0 503.0,493.625 504.0,488.0 504.125,485.75"/>
    <polyline points="504.125,484.875 504.25,476.625 503.25,456.25"/>
    <polyline points="503.125,454.625 503.0,435.625 504.125,421.125 506.75,406.625 511.0,393.25"/>
    <polyline points="512.5,389.625 516.25,381.875 521.125,373.75 527.75,365.25 531.75,360.75 541.625,351.875 547.5,347.375 554.375,343.0 562.0,338.75 570.625,334.75 580.25,331.25 591.0,328.25 602.625,326.125 615.125,325.0 628.25,325.25 641.875,327.0 655.375,330.375 668.375,335.75 680.25,343.125 690.5,352.25 698.625,362.875 704.375,374.75"/>
    <polyline points="707.625,387.125 708.375,399.875 707.0,412.25 703.875,424.0 699.375,434.875 694.0,444.75 687.875,453.5 681.375,461.25 674.875,468.125 668.375,474.125 655.875,483.875 639.375,494.75 613.5,509.25 598.125,518.75"/>
    <polyline points="595.5,520.5 588.625,525.875 581.25,532.875 576.875,538.25 574.375,541.875 570.5,549.375 568.5,555.25 567.375,559.375 566.125,567.875"/>
    <polyline points="565.875,570.125 565.75,579.5 566.0,584.375 567.25,594.875 568.75,603.375 570.75,612.375 575.375,628.875 580.5,643.375"/>
    <polyline points="582.0,647.125 585.25,655.0 589.125,663.125 593.625,671.5 599.125,680.0 602.25,684.375 609.625,692.875 614.125,697.0 619.25,701.0 625.0,704.75 631.875,708.25 639.875,711.25 649.25,713.625 660.625,715.125 674.25,715.25 690.875,713.75 711.0,709.625 735.625,702.25 765.25,690.125 800.75,671.625 841.5,644.75"/>
    <polyline points="885.875,607.5 929.25,558.875 963.875,500.375 980.75,437.0 973.0,377.375 941.625,329.375 894.75,297.125 843.5,279.375 796.75,271.875 759.125,270.625 732.125,272.5 715.125,275.875 707.0,280.25 705.875,285.5 710.125,292.0 727.25,311.0 736.625,324.0 744.75,339.125 750.5,355.875 753.125,373.5 752.75,391.25 749.5,408.25 744.0,423.875 737.125,437.875 729.25,450.0"/>
    <polyline points="720.875,460.375 712.625,469.0 704.625,476.25 697.0,482.25 689.75,487.25 683.125,491.25 676.875,494.75 665.625,500.125 655.875,504.125 636.0,511.5 626.375,515.5 618.0,519.5 608.625,525.25"/>
    <polyline points="606.625,526.625 601.0,531.25 596.375,536.0 592.5,541.125 588.75,548.125 586.75,553.625 585.625,559.375 585.25,563.375 585.625,571.625"/>
    <polyline points="585.875,573.75 587.375,580.375 589.875,587.125 593.5,593.875 598.5,600.75 605.25,607.5 610.875,611.625 614.25,613.5 617.875,615.375 626.25,618.375 631.125,619.625 636.625,620.5 642.625,621.0 649.25,621.0"/>
    <polyline points="656.625,620.625 664.625,619.375 673.625,617.5 683.5,614.625 694.125,610.625 705.75,605.375 718.125,598.625 731.125,590.25 744.5,580.125 757.75,568.0 770.25,554.0 781.5,538.375 790.5,521.5 796.375,503.875 798.75,486.125 797.0,469.25 791.25,453.875 782.0,440.5 769.75,429.625 755.5,421.25 740.25,415.125 724.625,411.25 709.375,408.875 694.875,408.0 681.5,408.0 669.375,408.75"/>
    <polyline points="658.5,410.0 640.125,413.125 625.75,416.5 609.875,421.25 583.875,430.25 577.0,432.0 570.375,432.625"/>
    <polyline points="569.25,432.5 565.25,431.75 562.75,430.625 560.75,429.0 559.25,427.0 558.25,424.625 557.75,421.75 557.875,418.625 558.5,415.25"/>
    <polyline points="559.0,414.125 559.375,412.875 562.125,408.0 565.125,404.25 570.5,399.5 575.5,396.5 581.375,394.125 585.625,393.125 590.0,392.625 596.5,393.0"/>
    <polyline points="598.625,393.5 602.625,394.875 604.5,395.875 609.125,399.75 611.25,403.125 612.0,404.875 612.5,406.875 612.875,410.875 612.75,413.0 611.75,417.25 611.0,419.375 608.875,423.5 606.125,427.5 602.875,431.25 597.375,436.125"/>
    <polyline points="595.375,437.625 591.375,440.375 585.125,443.75 577.0,447.0 571.25,448.625 562.5,450.0 555.0,449.625 551.125,448.625"/>
    <polyline points="550.0,448.125 546.625,446.5 543.0,443.375 540.875,440.5 539.125,437.125 537.875,433.125 537.25,428.625 537.25,423.625 538.0,418.125"/>
    <polyline points="538.375,416.25 540.375,410.0 542.25,405.75 544.625,401.125 547.75,396.5 554.0,389.375 559.125,384.75 565.375,380.375 572.625,376.375 576.75,374.625 585.5,371.875 590.25,370.75 595.25,370.125 600.25,369.75 605.5,369.875"/>
    <polyline points="610.625,370.5 615.75,371.5 620.75,373.0 625.375,375.125 629.875,377.625 633.75,380.75 637.25,384.25 640.125,388.125 642.375,392.375 644.0,396.875 644.875,401.625 645.125,406.375 644.75,411.25 643.75,416.125 642.25,420.875 640.25,425.5 637.875,429.875 635.125,434.125 628.875,441.875 622.0,448.625 618.375,451.75 611.125,457.25 607.375,459.625"/>
    <polyline points="603.875,462.0 590.0,469.625 572.125,477.625 555.625,483.625 546.375,486.25 541.625,487.25"/>
    <polyline points="540.25,487.5 532.75,488.5 528.75,488.5 525.375,488.0 522.5,487.0 518.375,484.375"/>
    <polyline points="517.875,483.875 515.625,481.0 513.0,475.875 511.125,470.375 509.375,462.25"/>
    <polyline points="509.125,461.0 507.75,448.875 507.375,437.5 507.75,428.625 508.5,421.25 510.5,410.25"/>
    <polyline points="511.25,407.25 513.125,400.875 515.625,394.25 519.0,387.0 526.125,375.5 532.75,367.375 536.75,363.25 546.5,354.875 552.375,350.75 566.375,343.0 574.5,339.5 583.625,336.5 593.625,334.0 604.25,332.375 615.75,331.625 627.625,332.125 639.75,333.875 651.75,337.25"/>
    <polyline points="663.125,342.25 673.625,348.875 682.625,357.0 689.875,366.375 695.0,376.875 698.125,387.875 699.125,399.25 698.125,410.375 695.625,421.0 691.75,431.0 687.0,440.25 681.625,448.625 675.75,456.0 669.625,462.625 657.5,473.75 645.875,482.5 630.125,492.5 608.875,504.625"/>
    <polyline points="605.25,506.625 590.0,516.0 582.75,521.25 574.875,528.125 571.5,531.625 566.125,538.5 562.875,543.875 559.625,551.25"/>
    <polyline points="558.875,553.125 557.25,559.0 556.0,565.25 554.875,576.375 554.75,594.0 555.5,614.875"/>
    <polyline points="555.625,618.25 555.625,636.375 554.625,648.875 553.25,657.875 550.875,667.625 549.25,672.75 547.125,678.125 541.375,689.75 537.5,695.875 532.625,702.375 526.75,709.125 519.625,716.125 510.875,723.5 500.375,731.125 487.5,738.875 472.25,746.625 453.875,754.125"/>
    <polyline points="432.375,760.875 407.5,766.375 379.5,769.75 349.0,769.875 317.5,765.5 286.875,755.75 260.0,739.875 239.25,718.0 226.75,691.5 222.875,662.125 226.75,632.25 236.5,604.0 249.875,578.75 264.75,557.25 279.625,539.625 293.5,525.75 306.0,515.0 316.75,507.0 325.875,501.375 333.75,497.625 340.25,495.5 345.875,494.5 350.75,494.5 355.125,495.125 362.75,498.125"/>
    <polyline points="366.25,500.125 380.25,508.625 387.625,512.375 391.375,514.0 398.875,516.625 406.375,518.5 413.75,519.625 417.375,519.875 427.625,519.875 434.0,519.375 440.0,518.375 450.625,515.75"/>
    <polyline points="453.0,515.0 461.75,511.75 472.125,506.5 477.625,502.875 481.125,500.125 484.125,497.375 488.125,492.625"/>
    <polyline points="488.875,491.625 490.75,488.75 492.25,485.625 494.5,479.125 496.125,470.5 496.75,462.0"/>
    <polyline points="496.875,460.375 498.0,428.875 499.375,415.5 501.75,403.0"/>
    <polyline points="502.625,399.625 504.875,392.5 507.75,384.875 511.75,376.625 514.25,372.25 520.5,363.25 528.75,353.75 533.875,348.875 539.875,343.875 546.625,339.0 554.5,334.125 563.375,329.5 573.375,325.25 584.75,321.5 597.25,318.5 611.0,316.625 625.75,316.125 641.125,317.25 656.875,320.375 672.125,325.875 686.375,333.625"/>
    <polyline points="698.75,343.75 708.625,355.75 715.75,369.375 719.75,383.75 720.75,398.375 719.25,412.625 715.625,426.0 710.375,438.125 704.125,449.125 697.25,458.625 690.125,467.0 683.0,474.125 676.125,480.25 669.5,485.5 657.25,494.0 641.625,503.25 615.125,517.625"/>
    <polyline points="612.25,519.375 607.0,522.75 600.125,527.875 594.625,533.0 591.375,536.5 588.625,540.0 586.375,543.5 582.75,551.0 581.0,556.875 579.875,565.0"/>
    <polyline points="579.75,567.125 580.25,575.875 582.125,585.125 585.625,594.875 589.5,602.5 594.75,610.125 596.875,612.75 601.75,617.75 607.75,622.5 615.0,627.0"/>
    <polyline points="619.375,629.0 624.0,630.75 629.375,632.25 635.25,633.5 641.75,634.25 649.125,634.625 657.375,634.25 666.625,633.125 677.0,631.125 688.625,627.875 701.375,623.25 715.375,617.0 730.625,608.625 746.875,598.125 763.625,585.125 780.25,569.5 795.875,551.25 809.25,530.75 819.25,508.625 824.5,485.875 824.125,463.875 818.125,443.75 807.0,426.375 791.625,412.375 773.625,402.0 754.5,394.875"/>
    <polyline points="735.25,390.5 717.0,388.25 700.125,387.625 685.25,388.125 672.125,389.25 660.75,390.875 651.125,392.75 636.125,396.625 625.5,400.5 618.0,404.0 612.625,407.25 608.625,410.375 605.375,413.25 596.5,422.25"/>
    <polyline points="595.375,423.375 590.375,427.375 586.5,429.875 582.625,431.875 580.0,432.875 576.25,434.0 571.375,434.75 568.125,434.75 565.0,434.25"/>
    <polyline points="564.125,433.875 560.75,432.375 559.375,431.25 557.125,428.375 556.0,425.875 555.375,421.75 555.625,418.375 556.5,414.625 557.625,412.0"/>
    <polyline points="558.25,410.625 561.75,405.25 566.875,399.875 570.125,397.375 573.875,395.125 580.125,392.25 587.25,390.5 592.125,390.125 599.5,390.875 604.125,392.375"/>
    <polyline points="606.25,393.375 610.0,396.0 611.625,397.625 614.25,401.25 615.125,403.25 615.75,405.5 616.375,410.0 616.25,412.375 615.125,417.125 614.375,419.5 612.0,424.125 609.0,428.625 607.25,430.625 603.375,434.625 599.25,438.125 592.625,442.625"/>
    <polyline points="590.375,444.0 586.0,446.375 579.375,449.25 573.125,451.375 565.25,453.125 560.0,453.625 553.75,453.5 550.875,453.0 545.875,451.25"/>
    <polyline points="544.75,450.75 541.75,448.75 538.375,445.25 536.375,442.0 534.75,438.25 533.5,432.375 533.125,427.375 533.5,421.875 534.125,417.875"/>
    <polyline points="534.625,415.75 535.875,411.375 537.625,406.75 541.375,399.5 544.75,394.375 548.875,389.25 551.375,386.625 557.125,381.625 563.875,376.75 567.75,374.375 572.0,372.25 581.375,368.625 586.5,367.125 597.5,365.375 609.125,365.25"/>
    <polyline points="615.0,366.125 620.875,367.375 626.5,369.375 631.75,371.875 636.625,375.0 641.0,378.75 644.625,383.0 647.625,387.75 649.75,392.75 651.25,398.0 651.75,403.5 651.625,409.0 650.75,414.5 649.25,419.875 647.125,425.125 644.625,430.125 641.625,434.875 638.25,439.375 631.0,447.375 623.25,454.5 615.25,460.5 607.5,465.625"/>
    <polyline points="603.625,467.875 596.375,472.125 576.875,481.625 559.0,489.125 541.375,495.625"/>
    <polyline points="540.0,496.125 527.5,499.75 522.75,500.5 519.625,500.5"/>
    <polyline points="519.25,500.375 517.25,500.0 515.125,498.875 513.625,497.375 512.25,495.0"/>
    <polyline points="512.0,494.625 509.875,488.125 508.125,479.375"/>
    <polyline points="508.0,478.5 506.125,464.5 505.0,451.125 504.875,445.75"/>
    <polyline points="504.875,443.875 505.0,431.25 506.25,418.625 507.875,410.125 510.375,400.625 511.5,397.25 516.125,386.5 520.5,378.75 526.125,370.625"/>
    <polyline points="529.625,366.375 533.625,362.0 543.375,353.375 549.25,349.0 556.0,344.75 563.5,340.75 571.875,336.875 581.25,333.625 591.625,330.75 602.75,328.75 614.75,327.875 627.375,328.0 640.375,329.75 653.25,333.125 665.625,338.25 677.0,345.125 686.75,353.75 694.625,363.875 700.25,375.0 703.5,386.875 704.5,399.0 703.5,410.875 700.625,422.125 696.5,432.75 691.375,442.375"/>
    <polyline points="685.5,451.0 679.375,458.75 673.0,465.5 666.625,471.5 654.375,481.375 648.625,485.5 637.75,492.375 628.125,498.125 611.625,507.25 598.75,515.0 588.375,522.25 582.125,527.5"/>
    <polyline points="580.25,529.25 575.375,534.5 571.375,539.875 568.125,545.375 564.875,553.0 562.75,561.125 562.0,565.25 561.5,569.625 561.125,579.0"/>
    <polyline points="561.125,581.375 562.125,597.125 564.0,612.125 569.0,644.25 571.375,666.125"/>
    <polyline points="571.625,670.875 571.875,681.125 571.625,686.5 570.375,698.0 569.25,704.125 567.5,710.625 565.125,717.5 562.0,724.625 557.75,732.375 552.25,740.5 545.0,749.375 535.625,758.75 523.375,768.75 507.875,779.375 487.875,790.5 462.625,801.75 431.125,812.5 392.5,821.5 347.0,826.875 296.0,825.75 243.5,815.0 195.75,791.875 160.125,756.0 142.125,710.25"/>
    <polyline points="142.125,660.25 156.25,612.25 178.25,570.625 202.25,537.5 224.625,512.875 243.25,495.875 257.75,485.5 268.5,480.375 276.125,479.625 281.375,482.375 285.375,487.875 288.625,495.375 295.875,514.25 300.75,524.5 306.625,534.5 313.5,543.875 321.25,552.375 329.75,559.875 338.625,566.25 347.625,571.375 356.625,575.5 365.25,578.625 373.5,581.0 381.25,582.5 388.5,583.5"/>
    <polyline points="395.25,584.0 407.125,583.875 417.125,582.75 425.5,581.125 436.0,578.25 447.0,574.5 457.75,570.375 466.5,567.5 469.625,566.75"/>
    <polyline points="471.0,566.375 477.375,565.5 480.75,565.5 483.75,566.0 486.375,566.75 489.375,568.375 491.875,570.625 493.375,572.75"/>
    <polyline points="493.75,573.5 495.0,576.0 495.875,578.875 496.625,584.375 496.625,588.125 495.75,595.125 495.0,598.125 492.75,604.5"/>
    <polyline points="492.0,606.125 488.125,613.0 485.625,616.5 481.0,621.75 475.25,626.875 468.25,631.625 462.875,634.375 457.0,636.625 453.875,637.5 447.375,638.875 444.0,639.25 437.25,639.375"/>
    <polyline points="433.875,639.0 430.625,638.375 424.5,636.375 421.625,634.875 416.625,631.125 412.875,626.375 411.5,623.625 410.5,620.75 409.5,614.5 410.0,607.875 410.75,604.375 411.875,601.0 414.75,594.375 420.75,585.0 425.5,579.25 430.5,574.125"/>
    <polyline points="433.0,571.625 440.75,565.25 445.75,561.625 453.0,557.0 459.75,553.25 471.5,548.0 476.5,546.25 483.625,544.375"/>
    <polyline points="484.875,544.125 489.5,543.625 492.5,543.625 496.75,544.25 501.0,546.125 504.75,549.625"/>
    <polyline points="505.125,550.25 507.25,553.75 508.875,558.0 509.625,561.0 510.75,566.625 511.375,576.0"/>
    <polyline points="511.375,577.5 511.375,582.25 510.5,591.0 509.0,598.875 507.125,605.25 504.5,612.0 500.875,619.25 497.75,624.125 493.875,629.25"/>
    <polyline points="491.75,631.875 486.625,637.0 480.625,642.125 473.5,647.0 469.5,649.375 465.125,651.5 455.625,655.375 450.375,657.0 445.0,658.25 439.25,659.25 433.375,659.875 427.5,660.0 421.5,659.625 415.5,658.75 409.75,657.375 404.25,655.375 399.125,652.75 394.375,649.5 390.375,645.75 387.0,641.375 384.25,636.625 382.375,631.5"/>
    <polyline points="381.375,626.0 381.125,620.25 381.625,614.375 382.75,608.625 384.625,602.75 386.875,597.0 389.75,591.5 393.0,586.25 400.125,576.5 407.875,567.75 419.75,556.875 431.0,548.25 444.5,539.5 455.875,533.0"/>
    <polyline points="458.5,531.625 487.5,516.625 494.75,512.375"/>
    <polyline points="495.5,511.875 501.0,507.625 504.0,504.0 505.25,501.5"/>
    <polyline points="508.75,403.0 512.25,392.75 513.75,389.125 517.625,381.5 522.75,373.375 525.875,369.25 533.625,360.5 538.25,356.125 543.625,351.625 549.75,347.25 556.625,343.0 564.5,338.875 573.125,335.125 582.875,331.75 593.625,329.0 605.125,327.125 617.625,326.375 630.625,326.875 643.875,328.875 657.0,332.75 669.5,338.375"/>
    <polyline points="680.75,345.875 690.5,355.0 698.0,365.625 703.125,377.375 705.875,389.625 706.375,402.0 704.75,414.0 701.5,425.375 696.875,435.875 691.5,445.5 685.375,454.0 679.0,461.5 672.625,468.125 666.125,474.0 660.0,479.0 648.125,487.5 632.625,497.125 608.375,510.75"/>
    <polyline points="571.625,631.625 574.25,643.0 583.25,677.75 588.125,698.25 590.375,709.5 592.375,721.5 593.5,734.625 593.75,741.5 593.5,748.875 592.75,756.5 591.125,764.75"/>
    <polyline points="588.5,773.5 584.5,782.875 578.5,793.125 570.0,804.375 557.875,816.75 540.875,830.625 517.25,845.875 484.625,862.375 440.375,879.375 381.5,894.875 306.875,904.625 219.5,901.25 131.125,875.5 61.25,821.25 28.5,743.25 35.5,657.25 68.5,580.0 109.375,520.75 145.25,481.25 171.0,459.125 186.25,451.25 192.875,455.125 194.25,468.5 193.5,489.5 194.125,515.875 198.625,544.875"/>
    <polyline points="208.5,573.875 223.375,600.25 242.125,622.5 262.5,639.875 282.625,652.5 300.875,661.0 316.375,666.375 328.75,669.375 338.125,670.5 344.875,670.25 349.375,669.0 352.125,666.625 353.5,663.625 354.0,659.75 354.125,644.25 354.5,638.0 355.375,631.5 356.875,624.75 359.0,617.875 361.75,611.0 365.0,604.25 368.75,597.625 372.875,591.25 377.25,585.25"/>
    <polyline points="381.875,579.625 386.625,574.25 396.375,564.75 405.875,556.625 419.375,546.625 431.375,538.875 438.625,534.625 469.75,517.875"/>
    <polyline points="471.5,516.875 482.125,510.625 487.625,506.75 492.625,502.375 496.625,497.375"/>
    <polyline points="497.125,496.625 499.625,491.5 501.0,486.625 501.875,480.125 502.125,474.875"/>
    <polyline points="502.125,473.75 501.75,454.625 501.75,437.625 502.0,433.125"/>
    <polyline points="502.125,430.875 503.375,418.0 505.625,406.125 509.875,392.5 511.375,388.75 515.125,381.0 520.125,372.75 523.25,368.5 526.75,364.125 530.875,359.625 535.5,355.0 540.875,350.375 547.0,345.875 553.875,341.375"/>
    <polyline points="561.75,337.0 570.625,333.0 580.5,329.375 591.5,326.375 603.5,324.25 616.5,323.125 630.125,323.375 644.125,325.25 658.0,329.0 671.375,334.75 683.5,342.5 693.875,352.125 702.0,363.25 707.5,375.625 710.5,388.625 711.0,401.625 709.25,414.375 705.75,426.25 700.875,437.25 695.125,447.125 688.875,456.0 682.25,463.75 675.5,470.5 669.0,476.375 656.5,485.875"/>
    <polyline points="650.625,489.875 640.0,496.5 614.625,510.75 602.125,518.25 594.625,523.625 588.25,528.875 583.125,534.125 580.125,537.75 577.625,541.375"/>
    <polyline points="576.5,543.25 573.625,548.875 570.875,556.75 569.25,565.125 568.875,569.5 568.75,574.125 569.25,583.625 570.375,591.375 572.0,599.5"/>
    <polyline points="572.75,602.375 574.25,608.125 578.5,620.5 584.375,633.625 588.25,640.625 592.75,647.625 595.25,651.125 601.25,658.25 604.75,661.625 613.125,668.375 618.125,671.5 623.875,674.375 630.375,676.875 637.875,679.0 646.5,680.5"/>
    <polyline points="656.625,681.25 668.5,681.0 682.375,679.375 698.625,676.0 717.75,670.125 740.125,661.25 765.625,648.25 794.375,630.375 825.25,606.375 856.5,575.875 884.875,538.75 906.0,496.75 915.5,452.875 910.5,411.375 891.25,376.5 861.5,350.375 826.5,333.375 791.0,323.875 758.875,319.875 731.875,319.25 710.625,320.625 695.0,323.0 684.125,326.0 677.5,329.375 674.25,333.125 673.625,337.25"/>
    <polyline points="674.75,342.0 683.125,360.5 685.75,368.125 687.625,376.25 688.625,384.875 688.625,393.625 687.5,402.375 685.5,410.875 682.5,419.125 678.625,427.0 674.25,434.25 669.5,441.0 664.375,447.125 659.0,452.75 648.125,462.5 637.5,470.5 627.25,477.25 609.125,487.75"/>
    <polyline points="605.0,489.875 584.125,501.125 568.5,510.375 560.5,516.0 555.5,520.0 547.625,527.875"/>
    <polyline points="546.5,529.25 542.0,535.75 539.875,539.75 537.625,545.375 535.5,552.875 533.375,566.125"/>
    <polyline points="533.25,568.0 530.5,595.875 528.75,606.5 525.875,618.25 523.75,624.75 521.125,631.5"/>
    <polyline points="519.375,635.0 515.375,642.25 512.875,646.0 510.125,649.875 503.375,657.875 494.625,666.125 483.5,674.375 476.875,678.375 469.5,682.25 461.375,686.0 452.375,689.375 442.5,692.25 431.75,694.625 420.375,696.25 408.5,696.875 396.125,696.5 383.75,694.625 371.75,691.375 360.5,686.5 350.5,680.0 342.0,672.0 335.5,662.5"/>
    <polyline points="331.125,652.0 329.0,640.75 329.0,629.0 330.875,617.125 334.5,605.625 339.375,594.625 345.125,584.25 351.625,574.75 358.375,566.125 365.25,558.375 378.75,545.375 385.25,540.0 397.125,531.0 407.75,523.875 425.125,513.75 441.375,505.125"/>
    <polyline points="444.0,503.625 457.125,495.75 460.625,493.25 466.375,488.375 470.0,484.625 473.0,480.75 476.875,473.875 478.125,471.0"/>
    <polyline points="478.625,469.5 480.875,461.625 482.5,450.875 483.375,438.5 484.25,418.125"/>
    <polyline points="484.375,415.25 485.5,402.625 487.125,391.75 488.875,383.875 491.375,375.375 494.875,366.125 497.125,361.125 503.125,350.625 507.0,345.0 517.0,333.125 523.5,327.0 531.25,320.625 540.375,314.25 551.125,307.875 563.75,301.875 578.5,296.375"/>
    <polyline points="595.375,291.75 614.5,288.625 635.625,287.5 658.375,289.125 681.625,294.25 704.125,303.375 724.5,316.75 741.125,333.875 752.75,353.875 759.0,375.5 760.25,397.25 757.125,418.0 751.0,436.75 742.875,453.0 733.875,466.625 724.75,477.75 716.0,486.875 707.875,494.0 700.5,499.75 693.875,504.125 687.875,507.625 677.875,512.25 673.625,513.875 666.125,516.125"/>
    <polyline points="662.875,516.875 639.625,521.375 631.25,524.0 622.0,528.5 615.75,532.875 611.875,536.625"/>
    <polyline points="610.75,538.0 607.75,542.0 604.75,547.875 603.5,552.5 603.0,557.25 603.375,562.125 604.125,565.375 605.375,568.625 607.0,572.0 610.5,576.625"/>
    <polyline points="612.0,578.25 615.375,581.125 619.5,583.75 627.125,587.0 633.5,588.5 640.875,589.125 649.5,588.75 659.375,587.125 664.75,585.625 670.5,583.75 682.75,578.25 689.25,574.625 695.875,570.375 702.5,565.375 708.875,559.75 715.125,553.375 721.0,546.5"/>
    <polyline points="726.125,539.0 730.375,531.125 733.625,522.875 735.625,514.5 736.25,506.25 735.5,498.25 733.25,490.625 729.625,483.75 724.75,477.5 718.75,472.25 711.875,467.75 704.25,464.25 696.25,461.5 688.0,459.625 679.625,458.375 671.375,457.75 663.25,457.625 655.375,457.875 647.875,458.5 633.875,460.375 621.25,462.875 605.0,467.125"/>
    <polyline points="600.25,468.5 551.125,484.125 542.375,486.25 536.75,487.125"/>
    <polyline points="535.5,487.25 529.0,487.375 526.375,487.0 523.25,486.125 519.5,483.875 516.5,480.625"/>
    <polyline points="516.125,480.0 513.625,475.625 511.375,469.0 510.0,463.25 508.625,453.5"/>
    <polyline points="508.375,451.875 507.875,445.0 507.75,435.125 508.125,428.375 509.25,418.25 510.25,412.75 513.625,400.5 517.875,390.25"/>
    <polyline points="519.625,386.625 521.75,382.875 526.875,375.125 533.625,367.0 537.75,362.875 542.375,358.75 547.625,354.625 553.5,350.5 560.25,346.625 567.625,342.875 576.0,339.5 585.125,336.5 595.125,334.25 605.875,332.625 617.25,332.125 629.125,332.75 641.125,334.75 653.0,338.25 664.125,343.5 674.375,350.25 683.125,358.5 690.0,368.0 694.875,378.5 697.625,389.5"/>
    <polyline points="698.375,400.625 697.25,411.625 694.625,422.125 690.625,432.0 685.875,441.125 680.375,449.25 674.5,456.625 668.375,463.125 662.375,468.875 656.375,474.0 650.5,478.5 639.375,486.125 629.25,492.5 597.875,510.375 589.375,515.875"/>
    <polyline points="586.75,517.625 579.875,522.875 574.125,528.0 570.875,531.375 566.625,536.625 564.25,540.125 560.375,547.25 557.0,556.75 555.625,562.75"/>
    <polyline points="555.375,564.875 554.25,573.625 553.875,583.0 554.5,617.5 554.5,628.0 554.125,635.625"/>
  </g>
</svg>
