<?xml version="1.0" encoding="utf-8" ?>
<svg xmlns="http://www.w3.org/2000/svg" xmlns:cc="http://creativecommons.org/ns" xmlns:dc="http://purl.org/dc/elements/1.1/" xmlns:ev="http://www.w3.org/2001/xml-events" xmlns:inkscape="http://www.inkscape.org/namespaces/inkscape" xmlns:rdf="http://www.w3.org/1999/02/22-rdf-syntax-ns" xmlns:sodipodi="http://sodipodi.sourceforge.net/DTD/sodipodi-0.dtd" xmlns:xlink="http://www.w3.org/1999/xlink" baseProfile="tiny" height="27.09333333cm" version="1.2" viewBox="0 0 1024.0 1024.0" width="27.09333333cm">
  <metadata>
    <rdf:RDF>
      <cc:Work>
        <dc:format>image/svg+xml</dc:format>
        <dc:source>vpype read './original_svgs/Strange Attractors #143.svg' linemerge linesimplify write './Strange Attractors #143.svg'
</dc:source>
        <dc:date>2024-08-05T01:35:30.613612</dc:date>
      </cc:Work>
    </rdf:RDF>
  </metadata>
  <defs/>
  <g fill="none" id="layer1" inkscape:groupmode="layer" inkscape:label="1" stroke="black" stroke-width="0.7mm" style="display:inline">
    <polyline points="815.0,621.875 821.75,577.5 828.5,544.375 836.125,517.75 844.875,493.625 854.5,468.75 864.75,439.75 874.75,403.0 882.625,354.875 884.5,291.875 873.5,213.25 839.0,126.875 770.5,55.625 669.75,33.25 558.5,77.875 464.0,172.5 399.125,283.0 361.875,385.875 345.5,473.125 345.0,545.0 357.625,604.0 382.25,651.375 417.625,686.375 461.125,706.5 508.125,709.25 552.875,694.75"/>
    <polyline points="590.875,666.375 619.875,629.5 640.125,589.375 653.0,549.875 660.125,513.375 663.0,480.875 662.75,452.75 659.75,428.75 654.5,408.875 647.25,393.0 638.25,381.25 627.75,373.5 616.25,369.625 603.875,369.625 591.5,372.875 579.25,379.0 567.625,387.5 556.875,397.625 547.25,408.625 538.75,420.125 531.375,431.5 525.125,442.5 519.75,452.875 515.25,462.375 508.375,478.625"/>
    <polyline points="505.75,485.375 497.375,508.0 495.125,513.125 492.125,518.0 488.375,521.25 485.375,522.375 481.0,522.875 476.25,522.875"/>
    <line x1="474.875" x2="429.5" y1="522.75" y2="520.25"/>
    <polyline points="427.0,520.125 398.375,518.125 384.5,516.75 373.25,515.25 356.5,512.375 347.5,510.25 338.0,507.375"/>
    <polyline points="333.0,505.625 322.75,501.25 317.5,498.375 306.625,491.125 301.125,486.375 295.625,480.75 290.375,474.0 285.375,466.0 280.875,456.5 277.25,445.125 275.0,431.875 274.75,416.625 277.5,399.625 284.375,381.5 296.625,363.5 315.25,347.875 340.5,337.0 371.875,333.75 407.0,339.625 443.0,354.75 476.875,377.375 506.375,404.625 530.5,433.625 549.125,462.0"/>
    <polyline points="562.75,488.25 572.25,511.75 578.375,532.125 581.75,549.5 582.875,564.0 582.375,576.125 580.5,585.875 577.375,593.75 573.5,599.75 569.0,604.0 563.875,606.75 558.625,608.125 553.125,608.25 547.625,607.25 542.25,605.25 537.25,602.375 532.375,598.875 527.875,594.75 520.125,585.5 516.875,580.75 511.5,571.0 509.375,566.25 506.125,557.375"/>
    <polyline points="504.875,553.375 502.375,542.875 501.0,532.5 500.875,524.25 502.25,515.5"/>
    <polyline points="502.375,515.25 502.625,513.25 502.0,512.625 501.125,512.375"/>
    <polyline points="500.875,512.375 498.625,512.0 493.125,511.75"/>
    <line x1="492.75" x2="475.875" y1="511.75" y2="510.875"/>
    <polyline points="475.0,510.75 457.875,509.125 442.5,506.75"/>
    <polyline points="440.75,506.375 427.625,503.375 417.25,500.0 410.75,497.375 404.0,494.0 397.375,489.75 393.25,486.375 389.25,482.375"/>
    <polyline points="387.5,480.25 385.75,477.875 383.0,472.875 381.25,467.25 380.875,461.25 382.25,455.0 383.75,452.0 385.875,449.25 388.5,446.625 391.875,444.375 395.875,442.5 400.375,441.125 405.625,440.375 411.375,440.375 417.5,441.0 424.0,442.375 430.625,444.5 437.375,447.25 444.0,450.625 450.625,454.5 462.875,463.125"/>
    <polyline points="468.5,467.75 478.375,477.125 486.625,485.75 493.25,493.5 508.625,512.625 513.5,517.125 515.625,518.375 517.5,518.875"/>
    <polyline points="518.125,518.875 520.25,518.75 531.625,515.5"/>
    <polyline points="532.25,515.375 543.75,513.375 554.0,512.0"/>
    <polyline points="555.125,511.875 574.0,508.875 587.375,506.0 598.625,502.875"/>
    <polyline points="601.125,502.0 608.875,499.25 614.5,496.875 623.5,492.5 629.875,488.75 636.5,484.25 643.5,478.625 650.5,471.625 654.125,467.5 661.125,458.0 667.75,446.0 670.625,439.125 673.25,431.5 675.375,423.125 676.75,414.0"/>
    <polyline points="677.375,404.375 677.0,394.125 675.375,383.625 672.125,373.125 667.375,363.25 660.625,354.25 652.0,347.0 641.625,342.0 629.625,339.75 616.375,340.625 602.625,344.75 588.625,352.0 575.125,361.75 562.375,373.5 550.75,386.625 540.375,400.375 531.5,414.125 523.75,427.5 517.25,440.125 511.875,451.75 503.5,471.75 493.625,499.125"/>
    <polyline points="491.875,503.875 489.125,511.125 485.625,518.375 482.375,522.5 480.25,524.125 476.875,525.5 474.5,526.0 472.0,526.25 460.375,526.125"/>
    <polyline points="458.75,526.0 439.875,525.5 420.75,525.5 400.625,526.25"/>
    <polyline points="397.5,526.375 387.5,527.125 373.125,528.75 365.5,530.0 357.5,531.75 345.25,535.5 341.125,537.25 332.875,541.75 328.75,544.625 324.875,548.125 321.25,552.125 317.875,557.125 315.0,563.0 312.75,570.0 311.5,578.5 311.5,588.625"/>
    <polyline points="313.25,600.625 317.5,614.625 324.875,630.75 336.5,648.5 353.125,667.375 375.75,685.625 404.25,700.875 437.875,710.5 474.5,711.625 511.0,703.0 544.5,684.875 572.75,659.5 594.875,629.875 611.125,598.875 622.5,568.75 630.0,540.875 634.5,515.75 637.0,493.75 637.875,474.5 637.5,458.0 636.125,444.0 633.75,432.125 630.625,422.375 626.625,414.5 622.125,408.375 616.875,404.0"/>
    <polyline points="611.125,401.25 605.125,400.0 598.75,400.25 592.25,401.875 585.75,404.625 579.5,408.375 573.375,413.0 567.625,418.125 562.125,423.75 552.5,435.625 544.625,447.375 541.25,453.0 535.625,463.25 531.25,472.125 520.75,494.875"/>
    <polyline points="519.875,496.5 516.0,503.625 513.875,506.375 511.625,508.5 509.25,510.0 507.625,510.625"/>
    <polyline points="507.25,510.75 503.5,511.625 497.0,512.0"/>
    <polyline points="496.5,512.0 492.875,512.125 480.25,511.625"/>
    <polyline points="479.375,511.5 469.375,510.875 458.125,509.75 449.125,508.5"/>
    <polyline points="447.5,508.25 433.25,505.5 423.0,502.875 418.75,501.5 412.0,499.0 402.75,494.625 395.875,490.25"/>
    <polyline points="393.625,488.625 389.25,484.875 383.625,478.125 380.625,472.875 379.375,469.875 378.625,466.875 378.125,463.75 378.0,460.5 378.5,457.125 379.375,453.875 380.875,450.625 383.0,447.5 385.875,444.625 389.375,442.125 393.625,440.125 398.625,438.625 404.125,437.875 410.375,437.875 416.875,438.625 423.875,440.125 431.0,442.5 438.25,445.5"/>
    <polyline points="445.375,449.25 452.375,453.5 459.0,458.125 465.25,463.0 476.5,473.0 481.375,477.875 489.75,487.125 496.5,495.25 510.5,513.125 514.875,517.625 518.0,519.625"/>
    <polyline points="518.75,519.875 520.0,520.125 523.625,519.875 534.125,516.75"/>
    <polyline points="534.75,516.5 544.625,514.5 559.125,512.25"/>
    <polyline points="560.375,512.0 574.25,509.75 587.75,506.875 599.125,503.75 609.5,500.125"/>
    <polyline points="612.25,499.0 621.125,495.125 627.375,491.75 637.375,485.25 644.5,479.625 651.75,472.625 655.375,468.625 659.0,464.0 662.625,458.875 669.375,446.875 672.375,439.875 675.125,432.0 677.375,423.5 679.0,414.25 679.75,404.25 679.375,393.625 677.75,382.75 674.625,371.75"/>
    <polyline points="669.625,361.375 662.75,352.0 653.875,344.25 643.125,338.875 630.625,336.5 616.875,337.5 602.5,341.75 588.0,349.375 573.875,359.75 560.75,372.125 548.75,385.875 538.25,400.25 529.125,414.5 521.25,428.375 514.75,441.375 504.875,464.0 498.0,482.125 489.75,506.0 485.75,516.0"/>
    <polyline points="484.625,518.375 482.5,521.875 480.5,524.25 478.375,525.75 476.125,526.75 472.625,527.5 467.5,527.75 451.625,527.25"/>
    <polyline points="449.75,527.25 430.875,527.125 410.125,528.0 398.125,529.125 385.125,531.0"/>
    <polyline points="381.75,531.625 374.75,533.25 367.5,535.375 363.875,536.625 356.5,539.875 352.875,541.875 345.75,546.875 342.375,550.125 339.25,553.875 336.375,558.25 334.0,563.375 332.125,569.5 331.0,576.5 331.0,584.75 332.25,594.375 335.25,605.375 340.625,617.75 348.875,631.375 360.5,645.75 376.25,660.0 396.125,673.0 420.0,683.0"/>
    <polyline points="447.125,688.25 475.75,687.375 504.25,679.625 530.5,665.5 553.125,646.25 571.625,623.75 586.0,599.75 596.625,576.125 604.125,553.75 609.25,533.25 612.625,514.875 614.5,498.875 615.375,484.875 615.5,473.0 615.0,462.875 614.0,454.25 612.5,447.125 610.75,441.375 608.5,436.625 606.125,432.875 603.5,430.125 600.625,428.25 597.75,427.125 594.625,426.75 591.375,426.875 588.25,427.625"/>
    <polyline points="585.0,428.875 578.75,432.625 572.875,437.5 567.625,443.125 560.875,451.875 554.125,463.0 549.75,472.25 547.125,479.625 545.875,485.125"/>
    <polyline points="545.75,486.25 545.625,489.125 546.0,491.5 547.625,494.375 549.0,495.625 550.75,496.5 552.875,497.25 557.125,497.875"/>
    <polyline points="558.125,498.0 564.75,498.0 570.0,497.5 577.625,496.25 588.25,493.5 596.5,490.625"/>
    <polyline points="598.625,489.625 605.5,486.5 610.375,483.875 620.5,477.0 628.375,470.0 633.625,464.125 638.75,457.375 643.5,449.25 647.375,439.875 649.0,434.75 650.25,429.25 651.125,423.5 651.375,417.5 651.125,411.375"/>
    <polyline points="650.25,405.125 648.5,399.125 646.0,393.375 642.5,388.0 638.125,383.5 632.875,379.75 626.75,377.25 619.875,376.0 612.375,376.25 604.5,377.875 596.375,381.0 588.125,385.625 580.125,391.25 572.375,397.875 565.125,405.25 558.375,413.0 552.125,421.0 546.625,429.0 537.25,444.375 530.0,458.125 520.125,479.625"/>
    <polyline points="518.375,483.75 512.875,496.125 508.0,505.0 505.5,508.125 502.375,510.75 499.375,512.25 495.5,513.25"/>
    <polyline points="494.625,513.375 485.125,514.0 469.75,513.25"/>
    <polyline points="468.375,513.25 453.875,511.875 441.375,510.25 424.625,507.0"/>
    <polyline points="422.25,506.5 410.0,503.0 399.375,498.875 394.0,496.375 388.5,493.25 380.375,487.25 377.75,485.0 372.875,479.625 368.625,473.25 366.875,469.625 365.5,465.875 364.625,461.75 364.125,457.5"/>
    <polyline points="364.25,453.0 365.0,448.5 366.625,443.875 369.125,439.375 372.625,435.25 377.25,431.5 382.875,428.375 389.625,426.125 397.25,425.0 405.875,425.0 415.0,426.25 424.625,428.75 434.5,432.625 444.25,437.5 453.625,443.25 462.625,449.75 471.0,456.625 478.625,463.625 491.625,477.5 497.0,484.0 505.75,495.625 515.0,509.0"/>
    <polyline points="517.25,512.5 523.875,521.875 527.125,525.5 528.875,526.75 531.25,527.5 533.5,527.375 541.25,524.5"/>
    <polyline points="542.125,524.125 553.125,520.5 572.75,516.25"/>
    <polyline points="574.5,516.0 585.875,513.75 599.375,510.625 612.75,506.75 618.625,504.75 628.25,500.875 638.625,495.625"/>
    <polyline points="642.375,493.375 650.0,488.375 658.125,481.875 662.25,478.0 670.625,468.75 674.875,463.125 679.0,456.75 683.125,449.5 686.875,441.25 690.375,432.125 693.25,421.75 695.375,410.25 696.5,397.625 696.25,384.0 694.25,369.75 690.125,355.375 683.25,341.5 673.75,329.125 661.125,319.5 645.875,313.625 628.5,312.5 609.625,316.5 590.5,325.375"/>
    <polyline points="572.0,338.625 554.875,355.0 539.5,373.375 526.5,392.375 515.5,411.125 506.5,428.875 499.125,445.375 493.375,460.125 488.75,473.125 482.375,494.25 472.75,532.5 471.0,536.625 469.75,538.0 468.5,538.625"/>
    <polyline points="467.75,538.75 464.5,538.75 455.625,537.625 448.5,537.25 435.125,538.125"/>
    <polyline points="433.25,538.375 427.375,539.375 421.375,540.875 413.125,543.75 406.875,546.875 401.0,551.125 395.875,556.75 393.25,561.625 391.625,567.25 391.25,570.5 391.375,574.125"/>
    <polyline points="391.875,577.875 393.0,581.875 394.625,586.125 397.125,590.625 400.25,595.125 404.375,599.625 409.375,604.0 415.25,608.125 422.0,611.75 429.75,614.75 438.125,616.75 447.25,617.75 456.75,617.5 466.375,616.0 475.875,613.0 485.125,608.875 493.75,603.5 501.75,597.25 508.875,590.25 515.25,582.875 520.625,575.125 525.125,567.5 528.875,560.125 532.0,553.0 536.375,540.125"/>
    <polyline points="537.75,534.375 538.875,529.375 540.625,517.25 541.0,511.5 540.625,499.625 541.0,499.25 542.125,499.5"/>
    <polyline points="542.5,499.625 545.125,500.5 550.625,501.375 561.75,501.375"/>
    <polyline points="563.0,501.25 574.375,499.75 586.75,496.875 592.875,495.0 599.625,492.5 609.25,488.0"/>
    <polyline points="611.875,486.625 617.125,483.5 625.375,477.5 631.125,472.5 636.75,466.625 642.375,459.375 645.125,455.375 647.625,450.875 652.25,440.875 654.125,435.25 655.625,429.125 656.625,422.75 657.25,416.125 657.125,409.125 656.25,402.125 654.5,395.125 651.75,388.375 647.875,382.125 643.0,376.75"/>
    <polyline points="637.0,372.375 630.0,369.375 622.125,368.0 613.5,368.25 604.375,370.5 595.0,374.375 585.75,379.875 576.625,386.75 568.0,394.625 560.0,403.25 552.625,412.375 546.0,421.5 540.125,430.625 535.0,439.375 530.5,447.625 523.125,462.5 506.125,501.125"/>
    <polyline points="505.0,503.375 501.0,509.375 498.25,512.125 495.5,513.75 492.625,514.875 489.75,515.5 484.625,516.0 480.125,516.0"/>
    <polyline points="479.0,516.0 470.125,515.75 454.875,514.625 439.75,512.875"/>
    <polyline points="437.75,512.625 426.5,511.0 416.5,509.0 405.5,506.375 396.75,503.625 387.5,500.0 381.125,496.875 371.375,490.875 368.25,488.375"/>
    <polyline points="365.125,485.625 362.0,482.625 356.375,475.5 353.875,471.375 351.75,466.875 350.0,461.875 348.75,456.5 348.25,450.75 348.625,444.75 350.0,438.5 352.5,432.25 356.5,426.125 362.0,420.5 369.0,415.75 377.75,412.125 388.0,410.0 399.5,409.75 412.0,411.625 425.125,415.375 438.375,421.125 451.25,428.5 463.5,437.125 474.75,446.5 485.0,456.25 494.0,466.125"/>
    <polyline points="501.75,475.625 514.125,492.75 518.75,500.125 526.0,512.5 537.875,534.375 539.5,536.375 541.5,537.625 542.75,537.625 544.0,537.125 546.625,535.5"/>
    <polyline points="547.375,535.0 553.25,531.5 557.375,529.5 563.375,527.375 576.875,524.125"/>
    <polyline points="578.625,523.75 617.25,516.375 629.625,513.25 643.875,508.625"/>
    <polyline points="647.625,507.125 660.0,501.5 668.875,496.25 673.5,493.125 683.375,485.25 688.5,480.25 693.625,474.625 698.875,468.0 704.125,460.25 709.375,451.25 714.375,440.75 718.875,428.375 722.75,414.125 725.625,397.75 726.75,379.25 725.625,358.875 721.375,337.25 713.0,315.5 699.875,295.5 681.5,279.5 658.375,270.125 631.375,269.5"/>
    <polyline points="602.625,278.125 574.125,295.375 548.0,319.25 525.375,346.875 506.75,375.75 492.0,403.875 480.75,429.875 472.5,453.25 466.5,473.625 462.375,491.125 459.75,505.75 458.125,518.125 457.5,528.25 457.5,536.625 458.0,543.25 459.0,548.625 460.25,552.875 461.75,556.0 463.375,558.375 465.125,560.0 466.875,561.125 470.375,561.625 472.125,561.25 475.25,559.75"/>
    <polyline points="476.75,558.625 480.125,554.625 481.75,551.5 482.875,548.5 483.375,545.5 483.375,542.75 483.0,540.25 482.25,538.0 480.5,535.25 479.0,533.625 477.25,532.375 474.125,530.75"/>
    <polyline points="473.0,530.25 466.625,528.5 457.375,527.25 442.5,526.5 429.125,526.375"/>
    <polyline points="426.625,526.5 401.875,527.5 389.0,528.75 378.625,530.25 367.625,532.625 360.0,534.75 352.25,537.75 344.5,541.875"/>
    <polyline points="340.75,544.375 337.125,547.375 333.625,551.0 330.375,555.125 327.5,560.125 325.125,566.0 323.5,573.0 322.75,581.25 323.375,590.875 325.625,602.25 330.25,615.125 337.875,629.75 349.125,645.5 364.75,661.625 385.25,676.875 410.625,689.5 440.0,697.125 471.75,697.75 503.625,690.625 533.125,675.625 558.625,654.5 579.125,629.5 594.875,602.75 606.25,576.375 614.25,551.5 619.375,528.75"/>
    <polyline points="622.625,508.625 624.25,491.0 624.875,475.875 624.5,462.875 623.375,451.75 621.75,442.5 619.5,434.875 616.75,428.625 613.625,423.75 610.125,420.125 606.25,417.625 602.125,416.125 597.875,415.75 593.5,416.125 589.0,417.375 584.625,419.375 580.25,421.875 572.0,428.375 564.5,436.125 558.0,444.25 550.125,456.125"/>
    <polyline points="548.0,459.75 541.375,472.625 535.75,486.125 532.75,496.0 532.375,499.0 532.5,500.625"/>
    <polyline points="532.625,501.125 533.375,503.0 536.0,504.875 540.75,506.0 542.75,506.125"/>
    <polyline points="543.5,506.25 548.375,506.375 556.5,506.0 564.125,505.25 571.625,504.125"/>
    <polyline points="573.25,503.875 588.0,500.5 596.75,497.875 604.0,495.125 617.375,488.75 626.125,483.125 632.25,478.5"/>
    <polyline points="635.375,475.75 638.5,472.875 644.75,466.0 651.0,457.625 653.875,452.75 659.25,441.625 661.5,435.375 663.375,428.5 664.75,421.125 665.5,413.375 665.5,405.25 664.625,396.875 662.625,388.5 659.375,380.375 654.875,372.875 649.0,366.25 641.75,361.125 633.25,357.625 623.5,356.375 613.0,357.25 602.0,360.5 590.75,366.0 579.875,373.375"/>
    <polyline points="569.375,382.375 559.625,392.5 550.75,403.25 542.875,414.25 535.875,425.125 529.75,435.625 520.125,454.625 513.0,470.625 499.375,503.875 496.875,508.625 493.625,513.5 491.5,515.625 489.375,517.125"/>
    <polyline points="488.25,517.75 483.875,519.125 477.875,519.75 466.875,519.625 453.5,518.875"/>
    <polyline points="451.75,518.75 435.125,517.5 414.75,515.375 396.625,512.625 386.375,510.5"/>
    <polyline points="382.875,509.625 371.625,506.5 359.625,502.0 351.25,497.75 347.0,495.25 342.625,492.375 338.375,489.125 329.875,481.0 325.875,475.875 322.125,470.125 318.75,463.625 315.875,456.125 313.875,447.625 313.0,438.25 313.625,428.0 316.125,417.0 321.125,405.875 329.125,395.0 340.375,385.5 355.125,378.25"/>
    <polyline points="373.25,374.5 394.0,374.875 416.375,380.125 439.0,389.75 460.875,403.125 480.875,419.125 498.375,436.625 513.125,454.375 525.25,471.375 534.875,487.25 542.375,501.625 548.0,514.25 552.125,525.125 555.125,534.5 558.25,548.625 558.875,553.875 559.0,558.0 558.75,561.25 558.25,563.75 557.5,565.5 556.625,566.625 555.625,567.25 554.625,567.5 552.5,567.0"/>
    <polyline points="551.5,566.375 549.625,564.375 546.75,559.25 545.5,554.875 545.0,550.625 545.125,546.625 545.875,543.0 547.25,539.875 549.625,536.375"/>
    <polyline points="550.375,535.5 555.625,531.5 561.25,528.875 569.125,526.375 582.375,523.5"/>
    <polyline points="584.25,523.125 609.0,518.625 626.5,514.75 643.875,509.5 655.75,504.625"/>
    <polyline points="660.0,502.5 673.625,494.5 678.375,490.875 683.375,486.875 688.5,482.125 693.75,476.625 699.0,470.25 704.375,462.75 709.625,454.0 714.75,443.75 719.625,431.75 723.75,417.75 726.875,401.75 728.625,383.375 728.125,363.0 724.625,341.125 717.25,318.625 705.0,297.5 687.375,279.875 664.625,268.625 637.625,266.0 608.25,273.0 579.0,289.125 551.625,312.5"/>
    <polyline points="527.875,340.375 508.25,369.875 492.625,399.0 480.75,426.0 471.875,450.375 465.625,471.625 461.25,489.75 458.5,505.125 456.875,518.0 456.25,528.625 456.375,537.25 457.0,544.25 458.125,549.875 459.5,554.25 461.25,557.625 463.0,560.0 465.0,561.75 467.0,562.75 471.0,563.125 473.0,562.75 474.875,562.0 478.125,559.75 480.875,556.75"/>
    <polyline points="482.125,555.25 484.625,550.125 485.625,546.75 486.0,542.25 485.375,538.25 484.0,535.125 481.875,532.5 478.25,529.875 473.75,528.125"/>
    <polyline points="472.5,527.75 464.125,526.125 454.25,525.125 444.75,524.625 426.625,524.25"/>
    <polyline points="424.0,524.25 398.125,524.375 380.875,525.0 369.5,525.75 357.375,526.875 348.875,528.125 339.875,529.75 335.375,530.875"/>
    <polyline points="330.75,532.125 326.0,533.625 316.625,537.75 312.0,540.375 307.375,543.625 303.0,547.625 298.875,552.5 295.125,558.375 292.0,565.75 289.75,574.625 289.0,585.75 290.0,599.25 293.875,615.5 301.5,635.0 314.5,657.25 334.25,681.5 362.25,705.5 398.75,725.875 442.5,737.875 489.75,737.375 535.625,722.5 575.625,695.0 607.125,658.875 629.875,619.25 645.125,579.875"/>
    <polyline points="654.875,543.25 660.375,510.25 662.75,481.25 663.0,456.125 661.25,434.375 657.875,415.875 652.875,400.5 646.25,388.0 638.25,378.625 629.0,372.25 618.75,369.0 607.75,368.75 596.375,371.5 585.125,376.625 574.25,383.875 564.0,392.75 554.5,402.75 546.125,413.25 538.625,423.875 532.125,434.375 521.625,453.625 514.125,470.125 508.625,483.375"/>
    <polyline points="506.375,488.875 500.0,504.5 497.625,509.375 494.5,514.375 492.375,516.5 490.375,518.0 488.375,519.0 485.125,519.875 480.625,520.375 476.875,520.375"/>
    <polyline points="475.5,520.375 452.0,519.25 430.75,517.625"/>
    <polyline points="428.25,517.375 412.25,515.75 403.25,514.5 390.25,512.375 379.5,510.0 367.875,506.75 359.75,503.75 351.25,500.0 342.5,495.125"/>
    <polyline points="338.0,492.0 329.125,484.5 324.875,479.875 320.75,474.5 316.875,468.25 313.5,461.125 310.75,453.0 308.875,443.875 308.375,433.625 309.5,422.375 313.0,410.625 319.25,398.75 328.875,387.5 342.25,378.0 359.5,371.625 380.0,369.25 403.0,371.875 427.25,379.75 451.0,392.125 473.25,408.125 493.125,426.25 510.0,445.25 523.75,463.875 534.875,481.375 543.375,497.375"/>
    <polyline points="549.75,511.5 554.5,523.75 557.75,534.25 559.875,543.0 561.125,550.375 561.625,556.25 561.625,561.0 561.125,564.75 560.375,567.625 558.125,571.0 556.75,571.875 555.375,572.125 553.875,572.0 552.5,571.5 549.75,569.75 547.375,567.125 545.25,564.125 542.875,559.0 541.875,555.625"/>
    <polyline points="541.5,553.875 541.125,552.25 540.875,546.125 541.375,542.25 542.5,538.75 543.5,536.75 545.375,534.125 547.625,531.875 550.25,529.875 553.125,528.25"/>
    <polyline points="554.125,527.75 561.25,525.0 569.625,522.75 594.0,517.875"/>
    <polyline points="596.25,517.375 614.375,513.375 626.625,509.875 636.875,506.125 648.125,501.125 656.375,496.625 665.0,490.875 674.125,483.375 683.75,473.5"/>
    <polyline points="688.625,467.5 693.5,460.5 698.25,452.375 702.875,443.0 707.0,432.125 710.75,419.875 713.5,405.75 715.0,390.0 714.75,372.75 712.0,354.25 706.25,335.5 696.875,317.5 683.25,301.875 665.375,290.75 644.0,285.75 620.0,288.0 595.125,297.75 570.875,314.125 548.625,335.375 529.375,359.375 513.25,384.125 500.25,408.375 490.0,431.0 482.125,451.375 476.25,469.25 472.0,484.75"/>
    <polyline points="468.875,498.0 466.75,509.125 465.375,518.5 464.625,526.125 464.125,537.5 464.25,541.625 465.125,547.375 466.375,550.625 467.0,551.625 468.125,552.5 468.75,552.5 469.625,552.0 470.625,550.375 470.875,548.125 470.375,545.875"/>
    <polyline points="470.0,545.125 468.625,543.0 465.875,540.625 463.125,539.25 459.875,538.125 456.25,537.375 450.625,536.75 442.625,536.75"/>
    <polyline points="440.875,536.875 431.5,537.75 423.5,539.25 414.875,541.75 408.375,544.375 402.0,548.0 398.0,551.125 394.375,554.875 391.25,559.5"/>
    <polyline points="390.0,562.25 388.375,568.375 388.125,572.0 389.0,579.875 390.375,584.25 392.375,589.0 395.25,593.75 399.0,598.625 403.75,603.625 409.375,608.25 416.125,612.625 423.875,616.25 432.625,619.125 442.0,620.875 452.125,621.375 462.375,620.375 472.75,617.875 482.875,614.0 492.5,608.625 501.375,602.25 509.375,594.875 516.5,587.0 522.5,578.75 527.625,570.5"/>
    <polyline points="531.875,562.375 538.0,547.25 540.125,540.375 543.0,528.625 544.5,519.25 545.375,509.25 545.25,497.875 545.5,496.75 546.25,496.375"/>
    <polyline points="546.5,496.5 554.5,498.125 563.5,498.25 566.0,498.0"/>
    <polyline points="567.25,497.875 579.25,496.0 586.375,494.125 594.375,491.5 605.5,486.625 615.375,480.75"/>
    <polyline points="617.875,479.0 625.75,472.625 631.125,467.25 636.375,461.0 641.25,453.5 645.625,444.875 649.125,434.75 650.375,429.25 651.25,423.5 651.625,417.5 651.375,411.375 650.375,405.125 648.75,399.125 646.125,393.25 642.75,387.875 638.375,383.25 633.125,379.625 627.0,377.0 620.0,375.75"/>
    <polyline points="612.5,376.0 604.625,377.625 596.375,380.875 588.125,385.375 580.125,391.0 572.375,397.75 565.0,405.125 558.25,412.875 546.5,429.0 537.125,444.375 533.25,451.5 526.875,464.375 513.875,493.75 509.5,502.25"/>
    <polyline points="508.625,503.75 506.125,507.375 503.0,510.25 501.375,511.25 499.125,512.375 495.25,513.375 488.375,514.0"/>
    <polyline points="487.5,514.0 475.25,513.75 457.875,512.375"/>
    <polyline points="456.25,512.125 444.25,510.75 428.0,507.875 416.25,505.0 403.375,500.75"/>
    <polyline points="400.75,499.625 392.5,495.75 387.0,492.5 381.5,488.5 376.25,483.875 371.5,478.25 369.375,475.125 367.5,471.625 365.875,467.875 364.625,464.0 363.875,459.75 363.75,455.375 364.125,450.75 365.25,446.125 367.375,441.625 370.25,437.125 374.375,433.125 379.375,429.625 385.625,426.875 392.875,425.125"/>
    <polyline points="401.0,424.5 410.0,425.0 419.5,427.0 429.375,430.125 439.25,434.5 448.875,439.875 458.25,446.125 467.0,452.875 475.0,459.875 482.25,467.0 494.625,480.75 507.875,498.25 522.125,519.375 526.0,524.25 527.875,526.125"/>
    <polyline points="528.875,526.75 530.5,527.5 532.0,527.75 534.125,527.5 549.625,521.75"/>
    <polyline points="550.75,521.5 563.25,518.375 589.875,513.0"/>
    <polyline points="592.0,512.5 601.625,510.25 618.25,505.125 627.75,501.375 638.125,496.25 649.5,489.125 657.5,482.875 665.875,474.875 670.125,470.0 674.375,464.5"/>
    <polyline points="678.625,458.375 682.625,451.25 686.625,443.25 690.125,434.25 693.25,424.125 695.625,412.75 697.0,400.25 697.0,386.75 695.5,372.5 691.75,357.875 685.5,343.75 676.5,330.875 664.375,320.5 649.5,313.75 632.375,311.5 613.625,314.5 594.25,322.5 575.375,335.125 557.75,351.125 542.0,369.25 528.375,388.375 516.875,407.5 507.5,425.625 499.875,442.5 493.875,457.625 489.0,471.125"/>
    <polyline points="485.25,482.875 480.0,501.5 473.875,527.625 471.375,535.875 469.75,538.375 467.75,539.25 465.5,539.25 460.625,538.5"/>
    <polyline points="459.625,538.375 452.0,537.625 444.375,537.625 437.625,538.125 426.375,540.0 418.25,542.25"/>
    <polyline points="416.25,543.0 410.125,545.75 404.125,549.375 402.25,550.875 397.125,556.375 394.5,561.0 393.5,563.625 392.75,566.5 392.375,569.625 392.375,573.0 392.75,576.625 393.625,580.5 397.375,589.0 400.25,593.375 404.0,597.75 408.625,602.125 414.125,606.125 420.5,609.875"/>
    <polyline points="427.875,612.875 435.875,615.125 444.5,616.5 453.625,616.625 463.0,615.5 472.375,613.0 481.5,609.375 490.125,604.5 498.25,598.75 505.5,592.125 511.875,585.0 517.5,577.625 522.25,570.125 526.25,562.875 529.5,555.75 534.25,542.875 535.875,537.125 538.0,527.25 539.5,513.375 539.5,508.875"/>
    <polyline points="539.5,507.125 539.0,500.5 539.625,500.25 543.75,501.625"/>
    <polyline points="544.25,501.75 549.875,502.5 555.5,502.625 562.375,502.25 569.25,501.375"/>
    <polyline points="570.75,501.25 586.375,497.875 599.125,493.625 606.375,490.5 614.125,486.5 619.625,483.125 625.25,479.0"/>
    <polyline points="628.125,476.75 636.875,468.375 642.625,461.375 648.125,452.875 653.0,442.875 656.75,431.25 658.125,424.75 658.875,417.875 659.0,410.75 658.5,403.5 657.0,396.125 654.5,389.0 651.0,382.375 646.25,376.375 640.375,371.375 633.5,367.75 625.5,365.75 616.625,365.5 607.25,367.25 597.625,370.75"/>
    <polyline points="587.875,376.125 578.375,383.0 569.25,391.0 560.75,399.875 553.125,409.25 546.125,418.875 539.875,428.375 529.75,446.125 522.0,461.75 504.5,502.0 502.25,506.125 498.125,511.375"/>
    <polyline points="497.25,512.375 495.375,513.75 493.375,514.75 491.5,515.5 487.375,516.375 483.125,516.75 469.25,516.5"/>
    <polyline points="467.875,516.375 451.75,515.25 442.125,514.25 431.25,512.875 419.0,510.875"/>
    <polyline points="416.375,510.375 402.25,507.125 393.125,504.375 386.625,502.0 376.625,497.375 373.25,495.5 366.375,491.0 359.625,485.5 356.375,482.25 350.375,474.5 347.75,470.0 345.5,465.0 343.75,459.5 342.5,453.5"/>
    <polyline points="342.125,447.125 342.75,440.25 344.625,433.25 347.875,426.25 352.75,419.5 359.375,413.5 368.0,408.5 378.375,405.125 390.5,403.625 404.0,404.5 418.375,407.75 433.0,413.25 447.5,420.875 461.375,430.125 474.125,440.5 485.625,451.375 495.75,462.375 504.5,473.125 511.875,483.25 518.0,492.5 527.375,508.375 535.875,525.125 537.625,529.125"/>
    <polyline points="539.125,532.375 542.875,540.125 544.125,541.625 545.125,542.125 546.5,541.75 551.125,537.625 556.125,534.25"/>
    <polyline points="557.125,533.625 562.5,531.125 570.25,528.625 583.25,525.75 595.375,523.75"/>
    <polyline points="597.5,523.375 615.0,520.625 626.875,518.375 633.375,517.0 647.625,513.125 659.75,509.0 668.5,505.125 678.0,500.125 682.875,497.0"/>
    <polyline points="688.0,493.375 693.375,489.125 698.875,484.125 704.5,478.375 710.125,471.5 716.0,463.375 721.75,453.625 727.375,442.25 732.5,428.625 737.0,412.625 740.375,394.0 741.75,372.5 740.375,348.5 735.125,322.625 724.625,296.625 707.875,273.125 684.5,255.375 655.125,247.0 621.75,250.25 587.25,265.5 554.75,290.75 526.25,322.375 503.0,356.75 484.75,390.75 471.25,422.375 461.625,450.625"/>
    <polyline points="455.125,475.0 451.0,495.875 448.75,513.375 448.0,527.75 448.375,539.625 449.75,549.25 451.875,556.875 454.5,562.875 457.625,567.375 461.0,570.5 464.625,572.625 468.375,573.75 472.125,574.0 475.75,573.5 479.375,572.375 485.875,568.625 488.875,566.25 493.875,560.75 497.75,554.875 499.25,551.875 502.375,543.625"/>
    <polyline points="502.875,541.125 503.625,536.5 503.75,532.625 503.375,529.375 502.25,525.5 499.875,522.0 497.625,520.25 494.375,518.75 489.75,517.625"/>
    <polyline points="488.875,517.5 481.5,516.625 456.75,514.75"/>
    <polyline points="455.125,514.625 438.0,512.75 424.375,510.625 408.75,507.25 397.125,503.75"/>
    <polyline points="394.125,502.75 387.875,500.25 378.25,495.375 371.875,491.25 368.625,488.75 362.375,483.125 356.625,476.125 354.125,472.0 351.875,467.5 350.125,462.625 348.75,457.375 348.125,451.625 348.375,445.625 349.5,439.375 351.875,433.125 355.625,426.875 360.875,421.25 367.75,416.25 376.125,412.375 386.25,410.125"/>
    <polyline points="397.625,409.5 410.0,411.0 423.125,414.5 436.375,420.0 449.375,427.25 461.875,435.625 473.25,445.0 483.625,454.875 492.875,464.625 500.75,474.25 507.625,483.25 513.5,491.625 522.375,505.875 536.875,532.625 538.75,535.5 540.25,537.125 541.0,537.5"/>
    <polyline points="541.625,537.75 542.75,537.75 544.625,537.0 549.625,533.625 556.25,530.125 563.25,527.5"/>
    <polyline points="564.625,527.125 575.0,524.5 614.125,517.125"/>
    <polyline points="616.875,516.5 632.625,512.5 639.625,510.25 647.25,507.5 655.25,504.0 663.875,499.5 673.0,493.75 682.75,486.0 687.875,481.25 693.0,475.75 698.25,469.25 703.625,461.75 708.875,452.875 713.875,442.625 718.5,430.625 722.5,416.625"/>
    <polyline points="725.625,400.625 727.125,382.375 726.375,362.25 722.625,340.625 715.0,318.625 702.625,298.125 685.125,281.25 662.5,270.625 635.875,268.375 607.125,275.625 578.375,291.75 551.625,314.875 528.375,342.25 509.0,371.125 493.75,399.625 482.0,426.25 473.25,450.125 466.875,471.0 462.625,488.875 459.75,504.0 458.0,516.75 457.25,527.25 457.25,535.75 457.75,542.75 458.75,548.25 460.0,552.625"/>
    <polyline points="461.375,556.0 463.125,558.5 464.875,560.25 466.625,561.25 468.5,561.875 472.125,561.625 475.375,560.125 476.875,559.0 479.375,556.375 481.375,553.375 483.25,548.625 483.875,542.875 483.25,539.125 482.375,537.0"/>
    <polyline points="481.75,536.0 479.625,533.5 475.875,531.0 470.0,528.875 459.875,527.125 449.375,526.375"/>
    <polyline points="447.5,526.375 437.125,526.0 414.75,526.25 393.75,527.5 380.0,529.125"/>
    <polyline points="376.375,529.625 365.125,531.875 357.375,534.0 353.375,535.25 345.5,538.625 341.5,540.75 337.625,543.25 333.75,546.25 330.125,549.75 326.625,553.875 323.625,558.875 321.0,564.75 319.125,571.75 318.125,580.125 318.5,590.0 320.625,601.5 325.0,615.0 332.5,630.125 343.875,646.75 360.0,664.0 381.375,680.375 408.0,694.0"/>
    <polyline points="439.0,702.5 472.625,703.375 506.375,695.625 537.5,679.5 564.125,656.75 585.375,629.875 601.375,601.5 612.875,573.625 620.625,547.5 625.625,523.75 628.5,502.875 629.875,484.625 630.125,468.875 629.375,455.5 627.75,444.125 625.625,434.625 622.75,426.75 619.375,420.5 615.5,415.75 611.125,412.375 606.375,410.25 601.5,409.375 596.375,409.625 591.125,410.875 585.875,413.0 580.75,415.875"/>
    <polyline points="575.75,419.5 571.0,423.5 566.5,427.875 562.25,432.625 554.75,442.125 548.5,451.5 543.375,460.25 536.0,474.75 529.625,489.25 526.375,497.625"/>
    <polyline points="526.0,498.5 523.75,505.0 523.625,506.875 524.0,507.875 525.125,508.75 526.875,509.375 532.375,509.875"/>
    <polyline points="532.875,509.875 541.125,509.875 552.125,509.125"/>
    <polyline points="553.25,509.0 563.25,507.875 574.0,506.125 583.125,504.25 593.625,501.375"/>
    <polyline points="596.0,500.75 603.25,498.25 611.125,495.0 619.625,490.75 625.75,487.125 632.0,482.875 635.25,480.375 641.875,474.5 645.25,471.0 651.875,463.125 655.125,458.5 658.25,453.375 661.25,447.75 664.125,441.5 666.5,434.625 668.625,427.25"/>
    <polyline points="670.125,419.25 670.875,410.625 670.875,401.625 669.875,392.375 667.625,383.0 663.875,374.0 658.75,365.625 651.875,358.5 643.5,353.0 633.625,349.625 622.5,348.75 610.625,350.5 598.25,355.125 585.875,362.125 573.875,371.125 562.75,381.875 552.375,393.5 543.25,405.75 535.125,417.875 528.25,429.75 522.25,441.0 517.125,451.375 512.875,461.0 509.25,469.5 503.625,484.0"/>
    <polyline points="501.375,489.875 493.5,509.375 491.125,513.75 487.75,518.0 485.625,519.75 481.125,521.75 476.25,522.5 469.5,522.625"/>
    <line x1="468.125" x2="416.625" y1="522.625" y2="520.125"/>
    <polyline points="413.875,520.0 395.25,518.75 377.375,517.125 361.125,515.0 347.75,512.625 338.25,510.375 328.25,507.375 323.0,505.5 312.125,500.625"/>
    <polyline points="306.375,497.375 300.75,493.625 294.875,489.125 289.125,483.625 283.375,477.125 277.875,469.125 272.75,459.5 268.375,448.0 265.375,434.375 264.25,418.25 266.0,400.0 272.125,380.0 284.125,359.625 303.125,341.125 330.125,327.625 364.25,322.5 403.25,328.125 443.375,344.625 481.0,370.0 513.25,400.75 539.25,433.25 558.75,464.75 572.625,493.75 581.875,519.375 587.25,541.5 589.625,560.375"/>
    <polyline points="589.625,576.0 587.625,589.0 584.125,599.375 579.375,607.5 573.625,613.625 567.125,617.625 560.25,619.75 553.125,620.25 545.875,619.125 538.875,616.625 532.25,613.0 526.0,608.375 520.25,603.0 515.0,597.125 510.5,590.875 506.5,584.5 503.0,578.25 500.125,572.125 495.625,560.5 492.625,550.375 490.75,541.875 489.625,534.875"/>
    <polyline points="489.25,531.875 488.75,524.875 489.0,512.5 488.5,511.25 487.75,510.75"/>
    <polyline points="487.5,510.625 485.75,510.125 474.625,509.25"/>
    <polyline points="473.875,509.25 459.75,507.875 444.5,505.375"/>
    <polyline points="442.875,505.125 429.125,501.75 423.5,499.875 415.625,496.75 409.625,493.75 405.625,491.375 399.875,487.125 396.25,483.75"/>
    <polyline points="394.625,481.875 391.75,477.875 389.5,473.5 388.125,468.625 388.0,463.625 389.375,458.625 390.625,456.125 392.375,453.875 394.625,451.75 397.5,450.0 400.75,448.5 404.5,447.375 408.75,446.75 413.375,446.625 418.375,447.0 423.625,448.0 429.125,449.5 434.75,451.5 440.375,454.0 445.875,456.875 451.25,460.125"/>
    <polyline points="456.5,463.75 466.125,471.125 478.25,482.375 487.375,492.25 501.625,509.0 505.375,512.875 508.625,515.125"/>
    <polyline points="509.125,515.375 510.625,515.875 512.875,515.875 517.625,514.5"/>
    <polyline points="518.0,514.375 521.875,513.375 526.5,512.75"/>
    <line x1="526.875" x2="542.0" y1="512.75" y2="511.375"/>
    <polyline points="542.875,511.25 558.5,509.625 573.25,507.375"/>
    <polyline points="574.875,507.0 582.25,505.5 592.75,502.875 604.75,498.875 610.125,496.75 615.75,494.25 624.625,489.375 631.0,485.375 637.625,480.375"/>
    <polyline points="641.0,477.5 647.875,470.75 651.25,466.75 658.0,457.5 661.25,452.125 664.25,446.125 667.0,439.5 669.5,432.25 671.5,424.375 672.875,415.875 673.5,406.75 673.25,397.25 671.75,387.5 668.875,377.75 664.5,368.5 658.5,360.0 650.75,353.0 641.375,348.0 630.5,345.5 618.375,345.625 605.625,348.75 592.625,354.75 579.875,363.125 567.625,373.5"/>
    <polyline points="556.375,385.375 546.25,398.0 537.375,410.75 529.5,423.375 522.875,435.5 517.25,446.75 512.625,457.125 505.25,474.875 496.125,499.25 491.75,510.0 488.25,516.5 486.125,519.25 483.875,521.125 480.625,522.75"/>
    <polyline points="479.375,523.125 473.25,524.0 466.125,524.0 438.625,522.875"/>
    <line x1="436.375" x2="356.625" y1="522.875" y2="520.75"/>
    <polyline points="352.25,520.625 323.125,519.75 301.0,518.75 282.75,517.5 269.625,516.125 255.75,514.25 241.0,511.125 233.25,508.875 225.125,506.0 216.75,502.25 208.125,497.375 199.25,490.875 190.125,482.25"/>
    <polyline points="180.875,470.5 171.75,454.625 163.625,433.25 157.875,404.625 157.25,367.25 166.5,320.875 193.125,269.5 245.0,224.125 324.125,203.0 419.5,221.125 511.0,276.625 582.625,352.875 630.25,432.25 657.0,504.875 667.75,568.375 665.875,623.125 653.25,670.0 631.375,708.625 601.5,737.5 565.875,754.25 527.875,756.75 490.875,745.125 458.25,721.625 431.75,690.125 411.875,655.0 397.875,619.875"/>
    <polyline points="388.875,587.0 383.75,557.625 381.875,532.125 382.375,510.75 385.0,493.0 389.25,478.75 395.125,467.625 402.125,459.5 410.125,454.125 419.0,451.125 428.25,450.25 437.625,451.375 447.0,454.125 456.125,458.125 464.625,463.125 472.625,468.625 479.75,474.625 486.25,480.625 492.125,486.625 501.5,497.625 508.625,506.875 515.875,517.125"/>
    <polyline points="517.625,519.75 522.75,526.25 525.375,528.375 526.875,528.875 528.25,528.875 530.75,528.125 537.75,524.375"/>
    <polyline points="538.5,524.0 541.875,522.5 548.5,520.25 555.375,518.5 566.25,516.25"/>
    <polyline points="567.75,516.0 587.875,512.0 599.25,509.25 612.625,505.25 624.75,500.5"/>
    <polyline points="628.0,499.0 634.875,495.5 642.125,491.25 649.75,485.875 653.625,482.625 661.75,475.125 669.875,465.375 674.0,459.5 678.0,453.0 681.75,445.5 685.25,437.25 688.375,427.875 690.75,417.375 692.5,406.0 693.0,393.5 692.0,380.25 689.25,366.625 684.375,353.125 676.875,340.625 666.75,329.875 653.875,322.0"/>
    <polyline points="638.75,318.0 621.75,318.375 603.75,323.625 585.75,333.25 568.5,346.625 552.625,362.625 538.5,380.125 526.375,398.125 516.25,415.75 507.875,432.375 501.125,447.625 495.625,461.5 491.25,473.625 485.0,493.375 476.375,525.125 474.75,529.75 472.625,533.875"/>
    <polyline points="471.875,534.625 469.5,536.0 466.75,536.375 451.875,535.375 440.25,535.625"/>
    <polyline points="438.375,535.75 428.5,536.875 417.625,539.125 410.875,541.25 404.0,544.125 399.375,546.625 395.0,549.75 393.0,551.625 389.25,555.875 386.125,561.125"/>
    <polyline points="385.0,564.125 384.125,567.5 383.625,571.25 383.625,575.25 384.25,579.625 385.375,584.375 387.375,589.5 390.25,594.75 394.0,600.25 399.0,605.75 405.0,611.125 412.25,616.0 420.75,620.375 430.25,623.75 440.625,625.875 451.875,626.625 463.375,625.625 474.875,622.875 486.125,618.375 496.625,612.375 506.375,605.0 515.0,596.625 522.5,587.75 528.875,578.5 534.25,569.25 538.5,560.25"/>
    <polyline points="542.0,551.75 544.75,543.75 548.375,530.0 549.5,524.125 551.25,510.375 551.75,493.625 552.25,492.125 553.875,492.0"/>
    <polyline points="554.25,492.125 559.375,493.125 566.125,493.375 570.875,493.0 579.375,491.5"/>
    <polyline points="581.0,491.125 591.5,488.0 599.5,484.625 610.375,478.375 615.0,475.0 619.625,471.125 624.375,466.5 628.875,461.125 633.25,454.875"/>
    <polyline points="635.25,451.375 638.875,443.625 640.375,439.375 641.625,434.875 642.5,430.25 643.0,425.375 643.125,420.375 642.75,415.375 641.75,410.375 640.25,405.625 638.125,401.0 635.25,396.875 631.625,393.25 627.375,390.375 622.5,388.375 617.0,387.375 611.0,387.375 604.625,388.375 598.125,390.625 591.375,393.875 584.75,398.0 578.375,403.0 572.125,408.625 566.25,414.625 560.875,421.0"/>
    <polyline points="555.75,427.5 547.125,440.375 543.375,446.5 537.125,457.875 528.375,476.125 520.0,495.125 517.75,499.75 515.25,504.0 514.125,505.375"/>
    <polyline points="513.625,506.0 511.375,508.375 508.875,510.0 505.75,511.125 503.25,511.625"/>
    <polyline points="502.875,511.625 496.625,512.125 490.5,512.0"/>
    <polyline points="489.875,512.0 481.0,511.75 468.0,510.75"/>
    <polyline points="466.875,510.625 457.75,509.75 445.5,508.0 434.625,505.875 426.625,503.875"/>
    <polyline points="424.625,503.375 413.625,499.75 404.5,495.625 399.75,493.0 395.25,490.0 388.625,484.5 384.75,480.0 383.0,477.5 381.375,474.875 380.125,472.125 379.0,469.25 378.25,466.125 377.875,459.625"/>
    <polyline points="378.375,456.25 379.375,453.0 381.125,449.75 383.375,446.625 386.375,443.875 390.125,441.5 394.625,439.5 399.75,438.25 405.5,437.625 411.75,437.75 418.5,438.625 425.5,440.375 432.75,443.0 440.0,446.25 447.125,450.125 454.125,454.5 460.75,459.125 472.625,469.25 482.75,479.125 494.375,492.375 500.125,499.625"/>
    <polyline points="502.5,502.75 511.125,513.625 514.375,517.125 516.25,518.625 517.75,519.5 520.5,520.25 522.25,520.25 525.75,519.375"/>
    <polyline points="526.375,519.25 535.375,516.5 544.5,514.75"/>
    <polyline points="545.375,514.5 570.625,510.5 579.375,508.75"/>
    <polyline points="581.25,508.375 589.5,506.5 601.25,503.125 611.875,499.375 623.75,493.875 630.125,490.25 636.875,485.75 644.0,480.25 651.125,473.375"/>
    <polyline points="654.875,469.375 662.125,459.875 665.625,454.375 669.0,448.125 672.125,441.125 674.875,433.5 677.25,425.0 679.0,415.875 679.875,405.875 679.75,395.375 678.375,384.5 675.5,373.5 670.875,362.875 664.375,353.25 655.75,345.125 645.25,339.375 633.0,336.375 619.375,336.75 605.0,340.5 590.375,347.625 576.125,357.625 562.75,369.75 550.5,383.375 539.75,397.75 530.25,412.125"/>
    <polyline points="522.25,426.125 515.625,439.25 505.25,462.5 498.25,480.875 487.0,512.875 484.625,518.125 483.625,520.125 481.5,523.125 478.375,525.875 476.25,526.875 471.5,527.75"/>
    <polyline points="470.25,527.75 466.125,527.875 448.0,527.25 423.75,527.5"/>
    <polyline points="421.25,527.625 413.125,528.0 401.5,529.0 385.5,531.25 375.125,533.625 368.0,535.75 360.75,538.5 353.625,542.375 350.0,544.75 343.25,550.75 340.25,554.625"/>
    <polyline points="337.5,559.0 335.125,564.25 333.375,570.375 332.375,577.5 332.5,585.75 334.0,595.375 337.25,606.375 342.875,618.75 351.25,632.125 363.125,646.25 379.0,660.125 398.875,672.625 422.625,682.0 449.375,686.625 477.625,685.25 505.375,677.25 530.875,663.0 553.0,643.875 571.0,621.75 584.875,598.375 595.25,575.125 602.625,553.25 607.625,533.25 610.875,515.375 612.75,499.625 613.75,486.0"/>
    <polyline points="613.875,474.375 613.375,464.375 612.5,456.125 611.125,449.125 609.375,443.375 607.375,438.75 605.125,435.125 602.75,432.375 600.125,430.5 597.25,429.25 594.375,428.75 591.5,428.75 588.5,429.375 582.5,432.0 576.75,435.875 571.5,440.75 566.75,446.125 560.75,454.25 557.5,459.625"/>
    <polyline points="556.125,462.125 552.75,469.0 550.375,474.875 549.25,478.25 548.125,483.625 548.0,487.75 548.25,489.375 549.0,491.375 550.75,493.375"/>
    <polyline points="551.25,493.75 553.0,494.75 556.875,495.875 562.75,496.375 571.5,495.75 577.5,494.75"/>
    <polyline points="579.0,494.375 587.875,492.125 595.75,489.25 602.25,486.375 609.25,482.625 614.125,479.5 621.625,473.75 629.25,466.375 634.125,460.25"/>
    <polyline points="636.5,456.875 638.875,453.125 643.0,444.875 646.25,435.375 648.25,424.75 648.5,419.125 648.25,413.5 647.375,407.75 645.875,402.125 643.5,396.625 640.375,391.75 636.375,387.375 631.625,383.875 626.0,381.375 619.75,380.125 612.875,380.0 605.625,381.375 598.0,384.0 590.375,387.875 582.75,392.875 575.5,398.75 568.5,405.375 562.0,412.5"/>
    <polyline points="556.0,419.875 545.625,434.75 537.375,448.75 528.25,466.75 514.375,497.625 510.125,505.0 507.25,508.25"/>
    <polyline points="506.625,508.875 502.625,511.25 499.375,512.25 493.75,513.0 489.125,513.125"/>
    <polyline points="488.375,513.125 478.25,512.875 461.375,511.625"/>
    <polyline points="460.0,511.375 443.875,509.375 432.25,507.25 423.625,505.25 411.875,501.75"/>
    <polyline points="409.5,500.75 402.0,497.625 394.25,493.625 386.625,488.375 381.875,484.0 377.5,479.0 375.5,476.125 372.25,469.75 371.125,466.25 370.375,462.625 370.125,458.75 370.375,454.75 371.125,450.75 372.75,446.875 375.125,443.0 378.25,439.375 382.375,436.25"/>
    <polyline points="387.375,433.625 393.25,431.625 400.0,430.625 407.375,430.5 415.375,431.5 423.875,433.625 432.375,436.625 441.125,440.625 449.5,445.5 457.625,450.875 465.25,456.75 472.375,462.75 484.75,475.0 494.625,486.375 502.375,496.125 512.75,510.625 519.0,518.75"/>
    <polyline points="520.125,520.125 523.125,522.75 524.75,523.625 527.0,524.125 528.375,524.125 531.125,523.5 539.5,520.5"/>
    <polyline points="540.375,520.25 549.0,517.875 570.0,513.75"/>
    <polyline points="571.75,513.5 591.0,509.5 600.5,507.0 611.125,503.625 623.0,498.75 632.875,493.75"/>
    <polyline points="636.375,491.75 643.625,486.875 651.25,480.875 655.125,477.25 663.0,468.75 670.75,458.0 674.5,451.5 678.125,444.375 681.375,436.25 684.25,427.25 686.5,417.25 687.875,406.375 688.25,394.75 687.25,382.375 684.5,369.75 679.75,357.25 672.75,345.625 663.25,335.875 651.5,328.625 637.5,324.75 621.875,325.0 605.25,329.375"/>
    <polyline points="588.5,337.875 572.25,349.75 557.25,364.125 543.75,380.125 531.875,396.75 521.875,413.25 513.625,429.0 506.625,443.625 501.125,456.875 496.5,468.75 492.875,479.25 487.375,496.125 482.375,513.25 479.0,523.25 476.25,528.75 474.5,530.75 472.75,532.0"/>
    <polyline points="471.75,532.5 467.625,533.125 447.5,532.5 434.0,533.125"/>
    <polyline points="431.875,533.25 423.0,534.25 413.25,535.875 400.375,539.5 392.375,542.875 389.75,544.25 384.625,547.625 379.75,551.875 377.5,554.375 375.5,557.25 373.75,560.5 372.25,564.125"/>
    <polyline points="371.125,568.125 370.5,572.625 370.5,577.625 371.125,583.25 372.625,589.25 375.25,595.875 379.0,602.875 384.25,610.125 391.0,617.5 399.5,624.625 409.75,631.125 421.625,636.375 435.0,640.125 449.5,641.875 464.625,641.0 479.75,637.625 494.5,631.625 508.125,623.25 520.375,613.0 530.875,601.625 539.875,589.375 547.125,577.0 553.0,565.0 557.5,553.5 561.0,542.75 563.5,533.125"/>
    <polyline points="565.375,524.375 566.75,516.75 568.25,504.25 568.75,495.0 568.5,478.125 568.75,477.5 569.25,477.375 571.625,477.875"/>
    <polyline points="572.125,478.0 578.25,478.25 584.5,477.0 590.75,474.75 594.75,472.75 599.0,470.125"/>
    <polyline points="600.375,469.125 604.75,465.625 607.625,462.875 611.625,458.125 616.375,450.375 618.875,443.875 620.0,436.75 619.875,432.125 618.75,427.625 617.875,425.625 616.75,423.625 615.25,422.0"/>
    <polyline points="613.625,420.5 609.5,418.5 607.0,417.875 601.625,417.875 595.75,419.375 592.625,420.75 586.375,424.25 583.375,426.5 577.375,431.625 571.875,437.5 567.0,443.5 562.75,449.625 559.125,455.5 553.625,466.0"/>
    <polyline points="552.625,468.25 550.875,472.5 548.625,479.5 547.625,485.75 547.75,488.625 548.375,490.75 549.875,493.0 552.0,494.625"/>
    <polyline points="552.625,494.875 554.0,495.5 558.125,496.25 565.625,496.5 573.75,495.625 581.75,494.0"/>
    <polyline points="583.5,493.5 591.0,491.25 601.5,487.0 608.375,483.375 613.25,480.375 618.125,476.875 625.75,470.25 630.875,464.75 635.875,458.375 640.375,450.875"/>
    <polyline points="642.5,446.625 646.0,437.375 647.375,432.25 648.25,426.875 648.75,421.375 648.75,415.625 648.25,409.75 646.875,404.0 644.875,398.5 642.125,393.25 638.375,388.625 633.875,384.75 628.625,381.75 622.5,380.0 615.75,379.375 608.625,380.125 601.0,382.25 593.375,385.75 585.625,390.375 578.125,396.0 571.0,402.5 564.25,409.5 558.0,416.875 552.25,424.375 547.125,431.875"/>
    <polyline points="542.625,439.25 534.875,452.875 528.875,464.875 513.375,499.125 510.75,503.625 508.5,506.75 505.0,509.875"/>
    <polyline points="504.25,510.25 501.0,511.75 496.875,512.75 485.875,513.25"/>
    <polyline points="485.0,513.125 470.5,512.5 455.5,511.0"/>
    <polyline points="453.875,510.875 440.0,508.875 423.375,505.375 411.625,501.875 401.5,497.75"/>
    <polyline points="399.0,496.5 391.25,492.0 386.125,488.375 381.25,484.0 376.875,478.875 373.125,473.0 371.625,469.625 370.5,466.125 369.75,462.375 369.375,458.5 369.625,454.5 370.5,450.375 372.125,446.375 374.5,442.375 377.75,438.75 381.875,435.5 387.0,432.875 393.0,431.0 399.875,430.0 407.5,429.875"/>
    <polyline points="415.625,431.0 424.125,433.125 433.0,436.25 441.75,440.375 450.25,445.375 458.5,450.875 466.125,456.875 479.875,469.375 491.0,481.375 495.625,486.875 503.25,496.875 517.0,516.0 520.875,520.625 523.875,523.25"/>
    <polyline points="524.625,523.75 527.0,524.5 531.25,524.0 544.0,519.625"/>
    <polyline points="545.0,519.375 559.75,516.0 578.875,512.5"/>
    <polyline points="580.75,512.0 598.125,508.0 611.25,504.0 620.125,500.5 629.75,496.0 636.625,492.125 643.875,487.375 651.5,481.375"/>
    <polyline points="655.375,477.75 663.375,469.25 667.25,464.25 671.25,458.5 675.0,452.125 678.625,444.875 682.0,436.75 684.875,427.75 687.125,417.75 688.625,406.875 689.125,395.0 688.125,382.5 685.5,369.625 680.875,357.0 673.875,345.25 664.375,335.125 652.5,327.625 638.375,323.625 622.625,323.625 605.75,328.0 588.75,336.5 572.25,348.5 557.0,363.125 543.25,379.375 531.375,396.25"/>
    <polyline points="521.25,413.0 512.875,428.875 505.875,443.75 500.25,457.25 492.0,479.75 489.0,488.875 479.375,521.25 477.5,526.125 475.75,529.375 474.0,531.5 471.375,533.125 467.25,533.75"/>
    <polyline points="466.125,533.75 452.375,533.125 443.875,533.125 434.0,533.625 423.125,534.875"/>
    <polyline points="420.75,535.25 411.125,537.25 406.0,538.75 395.75,542.625 388.125,547.125 383.375,551.0 381.125,553.375 377.25,558.875 375.625,562.125 374.375,565.875 373.5,569.875 373.125,574.5 373.375,579.5 374.375,585.0 376.375,591.0"/>
    <polyline points="379.25,597.5 383.375,604.25 389.0,611.125 396.0,618.0 404.625,624.5 414.875,630.25 426.625,634.875 439.75,637.75 453.625,638.625 468.0,637.125 482.375,633.25 496.0,627.0 508.75,618.75 520.0,608.75 529.875,597.75 538.125,586.25 544.875,574.625 550.25,563.25 554.5,552.375 557.75,542.375 560.125,533.375 563.25,517.875 564.125,511.625 565.0,501.375"/>
  </g>
</svg>
