<?xml version="1.0" encoding="utf-8" ?>
<svg xmlns="http://www.w3.org/2000/svg" xmlns:cc="http://creativecommons.org/ns" xmlns:dc="http://purl.org/dc/elements/1.1/" xmlns:ev="http://www.w3.org/2001/xml-events" xmlns:inkscape="http://www.inkscape.org/namespaces/inkscape" xmlns:rdf="http://www.w3.org/1999/02/22-rdf-syntax-ns" xmlns:sodipodi="http://sodipodi.sourceforge.net/DTD/sodipodi-0.dtd" xmlns:xlink="http://www.w3.org/1999/xlink" baseProfile="tiny" height="27.09333333cm" version="1.2" viewBox="0 0 1024.0 1024.0" width="27.09333333cm">
  <metadata>
    <rdf:RDF>
      <cc:Work>
        <dc:format>image/svg+xml</dc:format>
        <dc:source>vpype read './original_svgs/Strange Attractors #305.svg' linemerge linesimplify write './Strange Attractors #305.svg'
</dc:source>
        <dc:date>2024-08-05T01:35:46.729819</dc:date>
      </cc:Work>
    </rdf:RDF>
  </metadata>
  <defs/>
  <g fill="none" id="layer1" inkscape:groupmode="layer" inkscape:label="1" stroke="black" stroke-width="0.7mm" style="display:inline">
    <polyline points="650.0,853.625 605.375,829.0 568.5,801.5 539.75,775.75 518.5,754.125 503.5,737.25 493.75,725.125 488.5,717.25 486.875,712.75 488.75,711.25 493.625,712.0 525.0,721.125 540.25,724.25 557.375,726.5 575.625,727.125 594.125,725.625 611.875,721.875 628.125,715.625 641.875,707.25 652.625,697.375 660.375,686.375 665.0,675.125 667.125,663.875 667.0,653.375"/>
    <polyline points="665.375,643.5 662.625,634.625 659.125,626.75 655.25,619.625 651.25,613.375 643.25,602.75 623.5,580.375 614.5,569.125 610.875,564.0 608.0,559.125 604.625,552.25 603.0,547.75"/>
    <polyline points="602.375,545.625 601.0,539.375 600.5,533.375 601.0,527.75 602.25,522.375 604.375,517.125 606.125,513.875 608.375,510.75 612.375,506.375 617.375,502.375"/>
    <polyline points="619.125,501.25 625.375,498.0 630.25,496.25 635.5,495.0 641.5,494.375 644.625,494.375 651.625,495.0 659.375,496.875 663.5,498.25 672.625,502.625 677.5,505.625 682.625,509.375 688.0,513.875 693.5,519.125 699.375,525.5 705.375,532.875 711.375,541.5 717.5,551.375"/>
    <polyline points="723.5,562.625 729.125,575.25 734.25,589.25 738.5,604.375 741.625,620.5 743.25,637.125 743.0,653.625 740.5,669.5 735.625,683.875 728.375,696.0 718.875,705.375 707.625,711.75 694.875,714.75 681.375,714.875 667.5,712.25 654.0,707.5 641.125,701.25 629.125,694.0 618.0,686.125 608.0,678.125 591.125,662.5 577.875,648.375 567.375,636.375"/>
    <polyline points="563.0,631.125 544.125,608.125 537.5,600.875 531.875,595.625 528.5,592.875 522.375,589.0 516.875,586.875 513.125,586.25"/>
    <polyline points="511.875,586.25 508.375,586.5 505.125,587.5 502.125,589.125 498.5,592.25 496.125,595.375 494.25,599.125 493.0,603.5 492.375,608.5"/>
    <polyline points="492.375,610.375 492.75,614.125 494.25,620.375 496.125,624.875 498.75,629.5 502.25,634.125 504.375,636.375 506.75,638.75 512.125,643.125 518.5,647.0 525.75,650.375 533.625,652.75 541.875,654.0 550.0,653.75"/>
    <polyline points="553.75,653.25 557.5,652.25 560.875,650.875 563.875,649.25 566.625,647.25 569.0,645.0 571.0,642.5 572.5,639.875 573.625,637.0 574.375,634.0 574.75,630.875 574.75,627.75 573.75,621.25 571.875,614.875 569.125,608.75 564.0,600.0 560.25,594.625 554.375,587.375"/>
    <polyline points="552.375,585.0 548.5,580.75 541.0,573.375 530.75,564.75 524.75,560.5 520.5,558.125 517.875,556.875 512.875,555.125"/>
    <polyline points="511.625,554.75 507.0,554.125 503.625,554.125 498.25,555.25 495.125,556.5 490.875,558.875 486.75,562.0 484.625,564.0"/>
    <polyline points="483.5,565.0 478.25,570.875 475.125,575.25 470.125,583.875 467.5,590.125 464.75,599.875 463.75,608.375 463.875,614.75"/>
    <polyline points="464.25,618.25 464.75,621.75 466.875,629.5 470.375,637.75 475.875,646.75 479.375,651.375 483.625,656.125 488.625,660.875 494.375,665.625 500.875,670.25 508.375,674.625 516.5,678.625 525.5,682.25 535.125,685.125 545.25,687.25 555.625,688.5 566.0,688.625 576.25,687.625 585.75,685.5 594.5,682.125 602.125,677.875 608.5,672.75 613.5,666.875"/>
    <polyline points="617.125,660.625 619.375,654.0 620.5,647.375 620.625,640.75 619.75,634.25 618.375,628.0 613.875,616.375 611.125,611.0 605.375,601.125 596.375,588.125 582.875,570.125 574.375,558.0 569.25,550.0"/>
    <polyline points="567.75,547.375 561.875,535.875 559.375,529.75 557.625,524.0 556.5,518.5 555.875,513.375 555.875,508.375 556.25,503.625 556.875,500.375"/>
    <polyline points="557.125,498.875 559.5,490.875 562.875,482.625 577.875,453.0"/>
    <polyline points="579.0,450.5 582.5,442.625 585.875,433.625 587.875,426.875 589.625,419.5 590.875,411.25 591.25,406.75 591.5,402.0 591.25,391.5 590.625,385.75 588.25,373.125 583.75,358.625 580.5,350.75 576.5,342.375 571.625,333.5 565.75,324.25"/>
    <polyline points="558.75,314.75 550.5,305.125 541.0,295.375 530.25,286.125 518.25,277.5 505.25,270.125 491.375,264.25 476.875,260.625 462.5,259.5 448.5,261.25 435.625,266.125 424.0,274.0 414.375,284.375 406.5,296.875 400.75,310.875 396.875,325.75 394.75,340.875 394.0,355.75 394.375,370.0 395.625,383.375 397.625,395.75 399.875,407.125 402.5,417.25 405.375,426.5 411.125,442.0"/>
    <polyline points="413.875,448.5 416.625,454.375 424.375,468.625 430.875,479.125 439.625,492.0 444.75,500.125 449.125,508.75 451.25,515.125"/>
    <polyline points="451.5,516.625 452.25,521.125 452.25,527.0 451.625,531.375 450.5,535.875 447.5,543.625 444.25,550.125 441.25,555.25"/>
    <polyline points="440.25,557.125 423.75,582.75 419.0,591.0 415.875,597.125 411.375,607.5 408.875,615.5 407.125,624.5 406.625,629.5"/>
    <polyline points="406.5,635.0 406.75,640.875 407.625,647.125 409.25,654.125 411.75,661.625 415.5,669.75 420.625,678.625 427.625,688.375 436.75,698.75 448.5,709.75 463.625,721.125 482.25,732.625 505.0,743.5 531.75,752.75 562.0,759.25 594.25,761.625 626.625,759.0 656.5,750.875 681.5,737.875 700.125,721.375 712.0,703.125 717.875,685.125 719.0,668.5 717.125,654.125 713.25,642.25 708.375,632.875"/>
    <polyline points="703.25,625.625 698.25,620.25 693.625,616.375 689.125,613.75 685.125,612.0 677.875,610.375 661.75,610.375 655.5,609.875 645.75,607.625 642.625,606.375 636.125,603.375 629.875,599.5 624.0,595.125 618.375,590.125"/>
    <polyline points="615.75,587.625 608.375,579.625 604.125,574.125 598.625,566.0 594.0,558.125 590.5,550.5 587.75,543.125 586.0,536.25 585.0,529.625 584.75,525.375"/>
    <polyline points="584.75,523.25 585.5,515.125 586.375,511.25 589.125,503.5 590.875,499.75 595.375,492.125 598.125,488.375 604.5,480.875 610.25,475.125"/>
    <polyline points="612.375,473.125 619.125,467.375 629.75,459.75 639.0,454.375 649.625,449.375 657.625,446.625 666.625,444.625 671.5,443.875 682.25,443.75 688.25,444.375 694.625,445.625 701.625,447.625 709.125,450.75 717.375,455.125"/>
    <polyline points="726.375,461.0 736.25,469.0 747.125,479.375 759.125,492.75 772.0,510.0 785.75,531.625 800.0,558.625 813.875,591.5 826.25,630.375 835.0,674.375 837.75,721.125 832.0,766.625 816.125,805.625 790.25,833.375 756.875,847.25 720.125,847.5 684.0,837.375 651.625,821.0 624.625,802.125 603.25,783.5 587.5,766.625 576.625,752.125 569.875,740.125 566.5,730.5 566.0,722.75 567.625,716.375"/>
    <polyline points="571.125,711.0 575.625,706.25 592.625,692.25 598.125,687.125 603.0,681.625 607.125,675.875 610.375,669.75 612.75,663.5 614.25,657.0 614.875,650.625 614.625,644.375 613.75,638.25 612.25,632.25 610.375,626.5 608.125,621.0 602.875,610.75 597.125,601.5 591.375,593.0 583.0,581.75"/>
    <polyline points="580.375,578.25 566.75,560.125 556.875,545.625 552.125,537.5 549.375,532.0 545.5,522.25"/>
    <polyline points="545.125,520.875 543.625,513.875 543.25,506.375 544.25,499.125 547.375,489.5"/>
    <polyline points="548.0,488.25 551.625,480.5 564.5,456.0 568.375,447.375"/>
    <polyline points="569.25,445.125 572.875,434.75 575.125,425.875 576.25,419.125 577.0,411.75 577.125,403.625 576.375,394.5 575.625,389.625 573.375,379.125 571.625,373.375 566.75,361.125 563.5,354.625 559.625,347.875 555.125,341.0 550.0,334.0"/>
    <polyline points="544.0,327.0 537.375,320.0 529.875,313.375 521.625,307.125 512.75,301.5 503.375,296.875 493.5,293.375 483.5,291.375 473.5,290.875 463.75,292.25 454.75,295.375 446.375,300.25 439.125,306.875 432.875,314.875 427.875,324.0 424.125,334.0 421.5,344.625 419.875,355.375 419.25,366.125 419.375,376.625 420.125,386.75 421.375,396.25 423.0,405.375 424.875,413.75 429.25,428.75"/>
    <polyline points="431.5,435.375 438.5,452.125 442.875,461.25 447.0,469.0 462.125,495.375 466.625,504.375 468.375,509.125"/>
    <polyline points="468.875,510.625 470.0,515.0 470.75,520.375 470.375,528.125 468.875,534.5 464.375,545.375 461.25,551.25 447.625,574.75 442.875,584.375 439.5,592.625"/>
    <polyline points="464.375,545.25 459.5,554.25 448.875,572.5 441.75,586.875 438.375,595.625 436.5,602.0 434.625,613.125 434.25,617.25 434.5,626.25 436.125,636.5 437.75,642.125 440.0,648.125 443.125,654.5 447.125,661.25 452.125,668.375 458.5,675.875 466.375,683.625 476.0,691.5 487.375,699.375 500.875,706.875 516.5,713.75 534.0,719.5 553.0,723.625 573.0,725.75 593.25,725.125"/>
    <polyline points="437.5,598.625 435.75,605.375 435.125,609.125 434.25,617.125 434.25,621.5 435.125,631.125 436.125,636.375 437.75,642.0 440.0,647.875 443.0,654.25 446.875,661.0 452.0,668.125 458.25,675.625 466.125,683.25 475.625,691.25 487.0,699.0 500.375,706.625 515.875,713.5 533.25,719.375 552.25,723.5 572.25,725.625 592.5,725.125 611.75,721.875"/>
    <polyline points="629.25,716.0 644.0,707.5 655.5,697.375 663.625,686.0 668.375,674.25 670.5,662.75 670.375,651.875 668.5,641.875 665.625,632.875 662.0,625.0 658.125,618.0 654.0,611.75 649.875,606.25 638.625,593.125 626.625,580.25 617.75,569.625 614.375,564.875 609.375,555.875 606.875,549.5 605.25,543.5 604.625,535.875 604.875,532.25 605.875,527.125 607.75,522.25 610.5,517.625"/>
    <polyline points="613.0,562.625 608.375,553.75 606.25,547.5 605.25,543.5 604.75,539.625 604.875,532.25 606.375,525.375 609.375,519.125 614.0,513.5 618.375,509.75 621.875,507.625 625.75,505.75 632.5,503.75 640.5,503.0 646.5,503.375 653.125,504.75 660.5,507.375 668.625,511.625 672.875,514.375 677.375,517.875"/>
    <polyline points="612.625,514.875 615.25,512.25 620.0,508.625 623.75,506.625 627.875,505.0 632.375,503.75 637.625,503.0 640.375,502.875 646.375,503.25 653.0,504.625 656.625,505.75 664.25,509.125 668.375,511.375 672.75,514.25 677.25,517.625 681.875,521.625"/>
    <polyline points="686.75,526.375 691.75,531.875 696.75,538.25 701.875,545.5 707.0,553.75 711.875,563.125 716.5,573.375 720.75,584.625 724.375,596.75 727.125,609.625 728.75,622.875 729.0,636.125 727.75,649.125 724.75,661.125 720.0,671.875 713.5,680.875 705.375,687.75 696.0,692.25 685.625,694.375 674.625,694.375 663.375,692.25 652.25,688.625 641.5,683.75 631.25,677.875 621.625,671.375 612.75,664.625"/>
    <polyline points="604.625,657.875 590.5,644.625 578.875,632.375 546.0,594.625 541.0,589.375 536.625,585.0 530.625,579.75 525.25,575.75 520.375,572.75 517.375,571.25 514.375,570.25 510.25,569.375 505.0,569.125 501.375,569.75 496.5,571.5 492.0,574.375 489.875,576.125"/>
    <polyline points="520.375,572.875 515.875,570.875 513.0,570.0 509.0,569.375 505.125,569.25 501.375,569.875 498.875,570.625 495.375,572.25 492.0,574.5 488.75,577.375"/>
    <polyline points="487.75,578.375 484.625,582.0 480.125,589.625 477.375,597.25 476.125,603.875 475.75,608.875 476.375,617.25 477.0,620.25 479.0,626.625 482.0,633.375"/>
    <polyline points="484.125,636.875 486.5,640.5 489.375,644.125 496.625,651.5 500.875,655.125 505.75,658.625 517.0,665.0 523.375,667.75 530.125,670.125 537.25,672.0 544.625,673.25 552.0,673.875 559.375,673.875 566.5,673.0 573.25,671.5 579.5,669.25 585.125,666.25 589.875,662.625 593.75,658.625 596.75,654.125 599.0,649.375 600.375,644.375 601.0,639.375 600.875,634.25"/>
    <polyline points="600.25,629.25 599.125,624.25 595.625,614.875 593.5,610.375 588.75,601.875 583.625,594.0 576.0,583.5 551.25,551.875 543.375,540.75 540.25,536.125 534.125,525.875 532.125,521.75 530.125,516.25"/>
    <polyline points="547.0,546.0 541.0,537.625 534.5,527.125 531.875,521.875 529.625,515.625"/>
    <polyline points="529.5,514.875 528.625,509.75 528.75,506.375 529.5,502.5 531.125,497.875"/>
    <polyline points="531.5,497.25 535.375,490.0 544.5,476.25 536.5,488.5 531.625,497.375"/>
    <polyline points="545.125,475.125 551.5,465.0 557.5,453.875 561.875,444.0 565.875,432.0 562.875,441.75 557.625,453.75 552.5,463.5 545.25,475.125"/>
    <polyline points="513.375,317.625 520.375,321.875 526.875,326.75 533.0,332.0 538.5,337.5 547.875,348.875 551.75,354.625 558.0,365.625 560.5,371.0 564.25,381.125 566.75,390.5 568.125,399.125 568.5,403.125 568.625,414.0 567.625,423.625 566.375,429.5 567.5,423.875 568.25,417.625 568.625,410.75 568.375,403.375 567.5,395.25 565.625,386.25 564.25,381.5 560.5,371.5 558.125,366.125 555.25,360.625 548.0,349.375 543.75,343.75 538.75,338.0 533.375,332.5 527.375,327.25 520.875,322.375 513.875,318.125"/>
    <polyline points="506.5,314.375 498.875,311.625 491.125,309.75 483.25,309.0 475.625,309.5 468.25,311.25 461.375,314.375 455.125,318.625 449.75,324.125 445.0,330.625 441.125,337.875 438.25,345.75 436.0,354.0 434.625,362.625 434.0,371.25 433.875,379.75 434.25,388.0 435.125,396.125 436.375,403.75 437.75,411.0 439.5,417.875 441.25,424.375 443.25,430.375 449.25,446.0"/>
    <polyline points="451.25,450.5 460.625,469.0 477.0,497.375 479.875,503.25 481.375,507.125"/>
    <polyline points="480.5,533.875 482.625,528.125 483.75,522.25 483.625,516.375 481.875,508.375 483.625,515.0 484.0,521.125 483.375,525.875 480.875,533.625"/>
    <polyline points="480.375,534.625 475.25,544.25 460.875,567.0"/>
    <polyline points="459.875,568.75 456.5,574.625 453.25,581.125 449.125,591.125 446.5,599.875 445.25,606.5 444.625,613.875 444.875,622.125 446.375,631.25 447.75,636.25 449.625,641.5 452.125,647.0 455.375,652.875"/>
    <polyline points="459.5,659.0 464.5,665.375 470.625,671.875 478.125,678.625 486.875,685.25 497.125,691.875 509.0,698.0 522.375,703.5 537.0,708.0 552.75,711.125 569.0,712.5 585.25,712.0 600.875,709.375 615.125,704.75 627.375,698.125 637.25,690.125 644.625,681.125 649.5,671.5 652.125,661.75 652.75,652.25 652.0,643.25 650.0,634.875 647.25,627.125 644.0,620.125 636.625,607.875"/>
    <polyline points="633.0,602.5 610.75,574.375 606.125,568.125 600.375,559.375 596.125,551.5 593.0,544.0 591.5,539.375 590.5,534.75 589.75,528.25"/>
    <polyline points="589.75,526.25 589.875,522.125 591.25,514.125 594.0,506.625 595.875,502.875 600.625,495.625 605.125,490.375 610.5,485.125 616.625,480.125"/>
    <polyline points="619.0,478.5 629.25,472.375 635.25,469.75 638.5,468.5 645.375,466.5 653.125,465.125 657.375,464.75 666.5,465.0 671.625,465.625 677.0,466.875 682.75,468.625 688.875,471.125 695.5,474.5 702.625,478.875 710.375,484.625 718.625,491.75 727.375,500.75 736.875,512.0 746.75,525.625"/>
    <polyline points="757.0,542.25 767.375,562.0 777.25,585.25 786.125,612.0 792.875,641.625 796.5,673.125 795.625,705.0 789.25,734.75 776.875,759.75 758.875,778.125 736.5,788.375 711.625,790.75 686.25,786.375 662.0,777.125 640.125,765.0 621.125,751.5 605.375,738.125 592.375,725.375 582.25,713.875 574.375,703.75 568.375,695.0 564.125,687.5 561.125,681.125 559.25,675.625 558.25,670.875 558.0,666.875"/>
    <polyline points="558.125,663.25 559.5,656.875 563.5,645.875 565.0,640.5 565.875,635.0 566.0,629.5 565.75,626.75 564.625,621.25 563.75,618.5 562.875,615.875 560.5,610.625 556.25,603.375 551.375,596.75"/>
    <polyline points="549.75,594.625 544.625,588.875 537.75,582.375 529.5,576.125 524.75,573.25 518.875,570.5 513.25,568.875 510.625,568.5"/>
    <polyline points="509.375,568.375 505.5,568.375 501.75,569.0 497.0,570.75 493.625,572.625 491.375,574.25 487.125,578.25 485.0,580.75 481.25,586.375"/>
    <polyline points="480.375,588.0 477.375,595.375 475.875,601.875 475.25,609.375 476.0,617.75 476.625,620.875 478.75,627.25 480.125,630.625 484.125,637.75 489.625,645.125 497.0,652.5 501.5,656.125 506.5,659.625"/>
    <polyline points="512.0,663.0 518.125,666.0 524.625,668.75 531.5,671.125 538.875,672.875 546.25,674.0 553.875,674.5 561.25,674.25 568.5,673.375 575.25,671.625 581.375,669.125 586.875,665.875 591.5,662.125 595.25,658.0 598.125,653.375 600.125,648.5 601.375,643.375 601.75,638.25 601.5,633.125 600.75,628.125 597.75,618.25 593.625,609.125 588.75,600.75"/>
    <polyline points="586.125,596.75 575.875,582.375 551.375,551.0 544.625,541.625 540.5,535.25"/>
    <polyline points="539.625,533.75 535.125,526.125 532.0,518.875 530.625,514.5 530.0,509.0"/>
    <polyline points="530.0,508.25 530.25,504.75 530.875,501.875 533.0,496.25 536.25,490.125"/>
    <polyline points="536.75,489.25 547.625,472.25 554.125,461.125"/>
    <polyline points="555.0,459.5 559.5,450.75 563.75,440.25 566.0,432.875 567.25,427.5 568.625,418.375 569.0,411.625 568.625,400.25 567.375,391.75"/>
    <polyline points="566.375,387.125 561.5,372.375 559.125,367.0 556.25,361.5 549.25,350.125 545.0,344.375 540.125,338.625 534.75,333.0 528.875,327.625 522.375,322.625 515.375,318.125 508.0,314.125 500.25,311.125 492.375,309.0 484.375,308.125 476.625,308.375 469.125,309.875 462.0,312.75 455.625,317.0 449.875,322.25 445.0,328.625 441.0,335.875 437.875,343.875"/>
    <polyline points="435.5,352.25 434.0,360.875 433.25,369.625 433.0,378.25 433.375,386.75 435.375,402.625 438.5,417.0 442.25,429.75 444.25,435.375 450.375,450.25 456.25,462.25 468.875,484.625"/>
    <polyline points="470.25,486.75 477.125,499.125 480.75,507.375 482.5,513.25 483.125,517.625 483.125,520.625"/>
    <polyline points="483.125,521.625 482.875,524.625 481.75,529.5 479.875,534.5 477.25,539.75 472.5,547.875"/>
    <polyline points="471.625,549.125 461.375,565.375 453.75,579.125 449.5,588.875 446.75,597.375"/>
    <polyline points="446.0,600.5 444.75,607.125 444.375,610.75 444.25,618.625 444.5,622.875 445.125,627.375 447.5,637.125 449.5,642.5 452.125,648.125 455.5,654.0 459.75,660.25 465.0,666.75 471.5,673.375 479.125,680.125 488.25,686.875 498.875,693.375 511.125,699.5 524.75,704.875 539.75,709.125 555.75,712.0 572.25,713.125 588.625,712.25 604.25,709.25"/>
    <polyline points="618.25,704.125 630.125,697.125 639.625,688.875 646.625,679.5 651.0,669.75 653.125,660.0 653.5,650.5 652.375,641.625 650.25,633.25 647.25,625.625 643.875,618.75 640.25,612.5 632.875,601.5 610.875,573.875 606.25,567.625 600.75,559.0"/>
    <polyline points="599.125,556.375 595.375,548.625 592.75,541.375 591.125,534.625 590.5,528.125 590.625,522.0 591.625,516.0 594.125,508.5 597.0,502.875"/>
    <polyline points="598.0,501.125 603.25,494.0 610.0,487.125 616.0,482.125 625.625,476.0 634.25,472.0 644.25,468.875 651.75,467.625 655.875,467.25 660.25,467.25"/>
    <polyline points="664.875,467.5 675.125,469.375 680.75,471.125 686.75,473.625 693.25,476.875 700.125,481.125 707.625,486.625 715.5,493.5 724.125,502.125 733.125,512.75 742.625,525.625 752.5,541.375 762.375,560.0 772.0,581.875 780.625,606.875 787.5,634.75 791.5,664.625 791.5,695.0 786.5,723.875 775.875,748.875 760.0,768.0 739.625,779.875 716.375,784.125 692.125,781.75 668.5,774.25"/>
    <polyline points="646.75,763.375 627.5,750.75 611.125,737.75 597.5,725.25 586.5,713.625 577.875,703.25 571.125,694.125 566.0,686.25 559.5,673.625 557.75,668.625 556.75,664.25 556.25,660.5 556.25,657.125 556.875,651.125 559.375,641.0 560.625,633.75 560.5,626.5"/>
    <polyline points="560.125,624.125 558.25,617.0 556.375,612.375 552.875,605.875 548.625,599.875 544.125,594.5 539.375,589.75 533.0,584.5 526.875,580.375"/>
    <polyline points="525.375,579.625 522.5,578.125 518.125,576.5 512.75,575.25 508.75,575.0 502.625,576.0 500.25,576.875 495.75,579.375 493.625,581.125"/>
    <polyline points="492.625,582.0 489.625,585.25 487.0,589.125 485.375,592.125 483.375,597.125 482.375,601.0 481.75,605.125 481.75,612.125 483.0,620.0 484.875,625.75 487.875,631.75"/>
    <polyline points="489.75,634.875 494.625,641.25 500.875,647.5 508.75,653.625 513.375,656.375 518.375,659.0 523.75,661.375 529.375,663.375 535.25,665.0 547.5,666.875 553.625,666.875 559.625,666.375 565.375,665.375 570.625,663.625 575.5,661.5 579.75,658.75 583.375,655.5 586.375,652.0 588.75,648.125 590.375,644.0 591.25,639.75 591.625,635.375"/>
    <polyline points="591.5,631.0 589.875,622.25 586.875,613.875 582.875,606.0 578.5,598.625 573.75,591.75 566.75,582.5 551.875,564.625 543.125,554.875"/>
    <polyline points="541.625,553.125 527.25,537.625 521.5,532.125 517.625,529.0"/>
    <polyline points="517.125,528.5 513.0,526.125 510.5,525.25 507.375,525.125 506.25,525.375"/>
    <polyline points="505.875,525.5 503.625,526.375 500.75,528.125 495.375,532.875"/>
    <polyline points="494.75,533.375 487.0,541.5 477.625,552.75"/>
    <polyline points="476.75,554.0 473.875,557.625 467.875,566.25 464.75,571.25 460.5,579.0 455.625,590.5 452.625,601.75"/>
    <polyline points="452.125,605.0 451.5,611.75 451.5,615.5 452.25,623.5 453.0,627.75 455.875,637.125 458.0,642.125 460.75,647.375 464.25,652.875 468.5,658.5 473.625,664.375 479.875,670.375 487.125,676.375 495.625,682.25 505.25,687.875 516.25,693.0 528.375,697.375 541.375,700.875 555.25,703.125 569.25,704.0 583.25,703.125 596.375,700.5 608.375,696.25"/>
    <polyline points="618.75,690.5 627.25,683.625 633.5,675.75 637.875,667.375 640.375,658.875 641.125,650.375 640.625,642.25 639.125,634.5 636.75,627.25 634.0,620.5 627.375,608.5 617.0,593.5 597.25,567.25 589.5,555.25"/>
    <polyline points="588.0,552.5 586.5,549.875 583.0,542.125 581.25,537.25 579.5,530.375 578.5,523.875 578.375,517.625 578.875,511.5 580.125,505.625 582.875,497.875"/>
    <polyline points="583.625,496.0 588.875,486.25 595.75,476.125 608.25,460.625 626.5,439.875"/>
    <polyline points="629.125,436.875 639.875,424.0 648.25,412.5 653.75,403.75 656.375,398.875 661.375,388.0 663.5,381.875 665.375,375.0 666.875,367.375 667.75,358.875 668.0,349.375 667.25,338.375 665.25,325.875 661.625,311.375 655.75,294.5 647.125,274.875 634.875,252.25 617.75,226.25 594.75,197.125"/>
    <polyline points="564.5,165.875 526.5,134.625 480.875,107.5 430.0,89.875 378.25,87.875 331.75,105.0 295.5,140.25 272.125,188.0 260.5,240.375 257.5,290.375 259.625,334.0 264.25,369.125 269.625,395.75 274.875,414.625 280.0,427.125 284.875,434.25 289.875,437.125 295.375,436.75 301.625,434.125 326.5,419.75 336.75,414.625 347.625,410.125 359.0,406.375 370.375,403.375"/>
    <polyline points="381.625,401.375 392.5,400.125 402.875,399.625 412.5,399.75 421.375,400.375 436.75,402.875 449.25,406.375 459.25,410.375 470.75,416.625 479.25,422.875 483.75,426.75 495.625,438.625"/>
    <polyline points="497.0,440.0 502.125,445.125 507.75,449.875 510.875,452.0 512.875,453.125 516.75,454.625 520.375,455.25 523.125,455.25"/>
    <polyline points="523.875,455.125 526.5,454.5 529.875,453.0 533.875,450.0 536.875,446.75 539.125,443.75 543.0,436.25"/>
    <polyline points="543.625,434.75 545.25,430.0 547.0,420.875 547.375,414.375 546.625,404.875 544.875,396.875 541.875,388.375 539.125,382.5 535.5,376.625"/>
    <polyline points="533.5,373.75 528.75,368.125 523.25,363.0 517.125,358.625 513.875,356.75 510.5,355.125 503.5,353.125 500.0,352.625 496.5,352.625 493.125,353.0 489.75,353.75 483.75,356.75 478.5,361.5 476.25,364.375 472.75,371.125 471.375,375.0 470.375,378.875 469.125,387.125"/>
    <polyline points="468.875,391.375 468.875,395.625 469.5,404.125 470.75,412.25 474.75,427.0 478.5,436.625 483.75,447.5 489.0,456.375 495.125,464.875"/>
    <polyline points="496.375,466.375 502.75,473.25 508.25,477.875 511.625,479.875 514.0,480.875 518.375,481.875"/>
    <polyline points="519.125,481.875 524.0,481.25 526.75,480.125 531.625,477.125 536.625,472.5"/>
    <polyline points="537.375,471.75 543.75,464.125 549.5,455.25 553.625,447.375 557.375,437.75"/>
    <polyline points="558.125,435.625 560.375,426.125 561.625,414.875 561.625,408.5 561.0,401.625 558.875,390.25 557.75,386.25 554.625,377.625 550.25,368.625 547.5,363.875 541.0,354.5 532.875,345.375"/>
    <polyline points="528.25,341.0 517.75,333.25 512.0,330.0 506.125,327.25 499.875,325.25 493.75,324.0 487.5,323.625 481.5,324.125 475.625,325.5 470.125,327.875 465.125,331.125 460.5,335.375 456.625,340.25 453.25,345.875 450.5,352.0 448.5,358.5 447.0,365.375 446.0,372.375 445.625,379.375 445.625,386.375 446.0,393.125 447.75,406.125 450.375,418.125"/>
    <polyline points="452.0,423.75 455.375,433.875 458.875,442.875 465.875,457.75 470.75,466.75 475.25,474.25 487.25,493.25"/>
    <polyline points="488.0,494.5 491.375,500.125 494.875,507.125 496.125,510.75 496.875,515.125"/>
    <polyline points="496.875,515.75 496.75,519.125 495.5,523.5 492.125,529.875"/>
    <polyline points="491.75,530.5 486.25,538.375 476.0,551.875"/>
    <polyline points="475.125,553.125 466.375,565.75 459.0,578.625 454.875,587.75 452.25,595.75 450.875,601.75"/>
    <polyline points="450.375,605.0 449.875,608.375 449.625,615.625 449.875,619.625 451.125,628.125 454.0,637.75 456.125,642.875 459.0,648.25 462.5,653.875 466.875,659.625 472.125,665.75 478.5,671.875 486.125,678.0 494.875,684.125 505.0,689.875 516.375,695.25 529.0,699.75 542.625,703.375 557.0,705.5 571.75,706.25 586.25,705.125 599.875,702.25 612.125,697.625"/>
    <polyline points="622.75,691.5 631.125,684.0 637.375,675.75 641.5,667.0 643.75,658.125 644.25,649.5 643.5,641.125 641.625,633.375 639.125,626.0 636.125,619.25 632.75,613.125 629.25,607.375 622.25,597.125 601.5,570.0 595.125,560.75 591.75,555.0"/>
    <polyline points="590.25,552.25 586.5,544.5 583.875,537.125 582.25,530.25 581.5,523.75 581.75,515.5 582.75,509.5 584.5,503.625 586.875,497.875"/>
    <polyline points="587.875,496.0 591.125,490.125 595.0,484.25 601.25,476.25 604.875,472.125 617.5,459.25 625.0,452.375 636.375,442.75"/>
    <polyline points="639.375,440.375 652.875,430.125 664.375,422.25 677.375,414.5 687.0,409.625 697.75,405.375 703.5,403.625 709.75,402.25 716.5,401.25 723.75,401.0 731.625,401.5 740.375,403.125 750.0,406.375 761.0,411.5 773.375,419.5 787.625,431.125 804.125,447.875"/>
    <polyline points="823.0,471.25 844.5,503.5 868.25,547.375 892.5,605.125 913.75,677.875 925.5,762.75 918.875,849.75 887.5,922.25 832.25,964.25 764.125,971.0 697.375,950.875 642.125,918.125 602.375,884.25 578.0,855.375 567.125,833.5 567.5,818.25 577.125,807.75 593.875,799.75 615.625,792.25 639.75,783.25 663.625,771.625 684.625,757.0 701.125,740.25 712.25,722.375 718.25,704.625 720.0,688.25"/>
    <polyline points="718.5,673.875 715.0,661.75 710.375,651.875 705.0,644.0 699.625,637.875 694.25,633.125 689.0,629.625 684.0,626.875 679.25,624.75 674.75,623.0 653.625,616.25 641.875,611.0 634.5,606.75 627.5,601.875 621.0,596.625 614.875,591.0"/>
    <polyline points="612.0,588.125 606.75,582.25 599.875,573.5 594.125,564.875 588.125,554.125 584.75,546.375 582.25,539.125 580.25,530.125 579.625,523.625"/>
    <polyline points="579.625,521.5 579.875,515.375 580.875,509.5 582.5,503.625 584.75,497.875 587.75,492.0 592.5,484.25 601.875,472.0"/>
    <polyline points="603.75,469.875 616.125,456.25 656.0,416.625 666.375,405.375 673.375,397.0"/>
    <polyline points="676.875,392.375 683.75,382.125 690.125,370.0 692.875,362.875 695.25,355.0 697.0,346.125 698.0,335.75 698.0,323.875 696.375,309.75 692.625,292.875 686.0,272.75 675.5,248.375 659.5,219.125 636.125,184.25 603.125,144.125 558.25,100.5 500.25,58.375 431.25,26.875 357.875,17.625 291.5,39.625 242.5,91.75 214.75,162.125 204.625,235.5 205.375,300.25"/>
    <polyline points="210.75,351.125 217.125,387.375 223.0,410.25 228.25,422.0 233.5,424.75 239.875,420.875 259.375,400.875 273.625,388.375 290.75,376.125 310.125,365.5 330.75,356.875 351.375,350.5 371.125,346.25 389.25,343.875 405.375,342.75 419.125,342.625 430.625,343.25 440.125,344.25 447.75,345.625 453.75,347.125 458.375,348.875 461.875,350.75 464.375,352.75 466.25,354.875 467.375,357.25"/>
    <polyline points="468.25,359.75 469.0,365.375 469.375,382.0 469.875,389.375 472.125,404.25 474.75,414.75 478.0,424.625 483.0,436.0 485.5,441.0"/>
    <polyline points="486.75,443.25 494.25,455.0 500.125,462.125 504.375,466.375 508.375,469.625 512.125,471.875 514.0,472.625"/>
    <polyline points="514.875,473.0 519.0,474.0 522.25,474.0 525.375,473.375 529.25,471.75 534.75,467.875"/>
    <polyline points="535.5,467.125 539.625,463.125 546.125,454.25 550.875,445.5 553.75,438.375 555.0,434.375"/>
    <polyline points="555.625,432.125 557.5,422.75 558.0,417.5 558.125,408.75 557.5,402.25 556.25,395.25 553.0,384.0 549.5,375.875 547.375,371.75 542.125,363.25 535.625,354.875 527.625,347.0"/>
    <polyline points="523.125,343.25 518.375,339.875 513.375,337.0 508.125,334.5 502.75,332.625 497.25,331.25 491.75,330.75 486.375,330.875 481.125,331.875 476.125,333.625 471.5,336.25 467.25,339.5 463.5,343.5 460.125,348.125 457.375,353.375 455.25,359.0 453.5,364.875 452.375,371.0 451.625,377.25 451.25,383.5 451.75,395.875 453.375,407.75 455.875,418.625"/>
    <polyline points="457.25,423.625 458.75,428.5 463.625,441.375 470.25,455.5 479.25,471.125 488.625,485.25 491.5,489.125"/>
    <polyline points="492.25,490.375 499.75,500.875 503.875,507.625"/>
    <polyline points="504.125,508.0 505.625,511.875 505.75,514.875 504.5,518.375 502.375,521.5"/>
    <line x1="502.125" x2="493.625" y1="521.875" y2="532.125"/>
    <polyline points="493.125,532.75 484.875,542.5 476.125,553.5"/>
    <polyline points="475.25,554.75 466.375,567.5 460.0,578.625 456.0,587.625 454.25,592.75 452.625,598.375 451.5,604.625"/>
    <polyline points="451.0,608.0 450.75,615.125 451.375,623.125 452.125,627.5 454.875,636.75 457.0,641.875 459.75,647.125 463.125,652.625 467.375,658.375 472.5,664.25 478.625,670.25 485.875,676.375 494.375,682.375 504.0,688.0 515.0,693.375 527.25,697.875 540.5,701.5 554.375,703.875 568.75,704.875 582.875,704.125 596.375,701.625 608.625,697.375 619.25,691.625"/>
    <polyline points="628.0,684.5 634.5,676.625 639.0,668.125 641.5,659.5 642.375,650.875 641.875,642.625 640.375,634.875 638.0,627.5 635.125,620.75 631.875,614.375 628.5,608.625 621.5,598.25 598.25,567.375 590.5,555.5 589.0,552.625"/>
    <polyline points="587.625,550.0 585.125,544.75 582.375,537.5 580.625,530.5 579.875,526.125 579.5,519.75 579.75,515.75 581.0,507.75 582.75,501.875 585.25,496.125"/>
    <polyline points="586.125,494.125 589.375,488.375 593.25,482.375 597.75,476.25 604.75,467.75 617.375,454.0 632.75,438.25"/>
    <polyline points="635.625,435.375 647.625,422.875 660.375,408.25 667.0,399.75 673.5,390.0 679.5,378.75 682.25,372.25 684.625,365.125 686.5,357.125 687.875,348.0 688.375,337.5 687.625,325.375 685.5,311.25 681.125,294.375 674.0,274.5 663.0,250.625 646.75,222.375"/>
    <polyline points="623.75,189.375 591.875,152.0 549.375,112.375 495.875,75.125 433.125,47.875 367.125,40.25 307.125,59.375 261.625,104.5 234.25,166.5 222.875,233.0 221.875,293.625 226.125,343.125 232.0,380.125 238.0,405.375 243.375,420.5 248.5,427.5 254.0,428.0 260.625,423.75 279.625,406.875 292.5,397.0 307.5,387.5 323.875,379.25 341.25,372.5 358.5,367.5 375.25,364.125"/>
    <polyline points="390.875,362.125 405.0,361.375 417.5,361.375 428.25,362.125 437.625,363.375 445.375,364.875 451.875,366.625 457.375,368.5 461.75,370.375 468.375,374.625 470.75,376.875 472.75,379.125 475.75,383.75 478.75,391.125 484.75,411.5"/>
    <polyline points="485.625,414.0 490.0,425.375 496.0,436.75 499.125,441.375 503.25,446.625 507.375,450.625 510.375,452.875"/>
    <polyline points="511.25,453.5 516.0,455.875 518.75,456.625 522.25,456.875 524.875,456.5 527.375,455.75 529.125,455.0 533.125,452.25"/>
    <polyline points="534.0,451.625 537.125,448.375 539.375,445.375 542.75,439.375 545.25,433.5 547.5,424.625 548.25,416.25"/>
    <polyline points="548.375,413.875 547.875,406.625 547.0,401.375 545.625,395.75 543.75,390.0 539.5,380.875 533.5,371.75 528.5,366.0 525.625,363.25 519.5,358.375 512.75,354.375 505.5,351.625 501.75,350.875"/>
    <polyline points="498.125,350.625 494.5,350.625 491.0,351.25 487.625,352.375 484.375,353.875 481.375,355.875 478.625,358.25 476.125,361.125 474.0,364.25 470.5,371.625 469.25,375.625 468.375,379.875 467.375,388.625 467.25,393.0 467.75,401.75 468.875,410.375 469.75,414.375 471.75,422.25 475.375,432.75"/>
    <polyline points="476.75,436.0 479.375,442.0 484.75,452.25 490.0,460.5 494.875,467.125 499.25,472.25 502.25,475.375 506.0,478.625"/>
    <polyline points="506.875,479.25 511.75,482.375 515.375,483.75 517.5,484.125 520.75,484.125 524.625,483.125"/>
    <polyline points="525.375,482.75 528.0,481.5 534.125,476.75 538.5,472.25 543.125,466.5"/>
    <polyline points="543.875,465.375 547.25,460.625 551.375,453.625 556.25,443.25 558.5,437.0 560.375,430.125 562.125,419.5"/>
    <polyline points="562.375,416.5 562.5,410.25 562.125,403.375 561.0,396.0 559.25,388.0 556.25,379.375 552.25,370.25 546.75,360.75 543.375,355.875 535.5,346.375 525.875,337.5 520.5,333.5 514.75,329.875 508.75,326.75 502.5,324.375 496.125,322.75 489.75,321.875"/>
    <polyline points="483.375,322.0 477.25,323.0 471.5,325.0 466.0,328.0 461.125,332.0 456.875,336.75 453.125,342.25 450.125,348.375 447.75,355.0 446.0,361.875 444.875,369.0 444.25,376.25 444.375,390.5 446.0,404.0 447.25,410.375 450.125,422.125 453.5,432.625 457.125,442.0 462.625,453.875"/>
    <polyline points="464.375,457.375 469.25,466.625 476.5,478.75 486.0,493.75 491.125,503.0"/>
    <polyline points="491.5,503.875 493.75,509.125 494.75,512.75 495.125,518.0 494.5,521.625"/>
    <polyline points="494.375,522.25 492.125,527.875 486.375,537.125 484.5,539.625"/>
    <polyline points="483.875,540.5 470.125,559.375 461.875,572.5"/>
    <polyline points="460.875,574.375 455.625,585.125 453.625,590.125 451.125,598.5 449.5,608.125 449.25,611.75 449.375,619.375 450.625,628.0 451.75,632.625 453.375,637.5 455.625,642.625 458.375,648.0 461.875,653.625 466.25,659.5 471.5,665.625"/>
    <polyline points="477.75,671.75 485.375,678.0 494.125,684.125 504.25,690.0 515.625,695.375 528.375,700.0 542.125,703.75 556.625,706.0 571.375,706.75 586.0,705.75 599.875,702.875 612.375,698.25 623.0,692.125 631.625,684.625 638.0,676.25 642.125,667.5 644.375,658.625 645.0,649.875 644.25,641.5 642.375,633.5 639.875,626.25 633.5,613.25 626.375,602.125 622.875,597.25"/>
    <polyline points="619.375,592.625 604.5,573.5 595.75,560.875 590.875,552.375 587.125,544.625 584.625,537.25 583.375,532.625 582.625,528.25 582.125,521.875"/>
    <polyline points="582.25,519.75 582.75,513.625 583.625,509.625 584.625,505.75 587.75,498.0 590.875,492.25 597.5,482.5 604.25,474.5 608.125,470.5"/>
    <polyline points="610.125,468.375 614.375,464.125 624.125,455.375 635.375,446.375 648.625,437.0 659.875,430.125 664.0,427.875 672.875,423.75 682.625,420.125 693.625,417.375 699.625,416.625"/>
    <polyline points="706.125,416.25 713.25,416.75 720.875,418.0 729.375,420.375 738.75,424.25 749.25,430.125 761.125,438.625 774.375,450.375 789.5,466.625 806.5,488.625 825.375,518.0 845.5,556.375 865.625,605.5 882.875,665.625 892.875,734.5 889.75,805.625 868.625,868.0 829.0,910.5 776.5,926.875 720.5,919.75 669.375,897.75 628.125,869.875 598.375,842.625 579.25,819.5 569.625,801.375 567.75,787.875"/>
    <polyline points="572.25,778.0 581.875,770.375 595.125,763.875 610.625,757.125 626.75,749.375 642.375,740.0 656.125,729.25 667.0,717.125 674.875,704.125 679.625,691.125 681.5,678.625 681.25,666.75 679.25,656.125 676.0,646.5 672.125,638.125 667.75,630.75 663.25,624.375 654.25,613.75 642.125,601.625 628.75,589.125"/>
    <polyline points="625.875,586.25 620.75,580.875 612.25,570.5 607.375,563.125 603.5,556.0 600.0,547.0 598.375,540.5 597.625,534.375 597.75,528.375"/>
    <polyline points="598.0,526.5 599.125,520.875 601.125,515.625 603.875,510.5 606.125,507.25 608.875,504.125 611.875,501.125 615.375,498.25 621.375,494.375 625.875,492.125 633.75,489.5"/>
    <polyline points="636.75,488.875 639.75,488.375 646.375,488.0 653.875,488.5 657.875,489.25 666.625,491.875 671.375,493.875 676.375,496.375 681.75,499.625 687.375,503.625 693.25,508.5 699.5,514.375 705.875,521.5 712.625,529.75 719.5,539.625 726.375,551.0 733.125,564.0 739.625,578.75 745.25,595.25 750.0,613.125 753.125,632.0 754.375,651.375 753.0,670.5"/>
    <polyline points="748.875,688.375 741.875,703.875 731.875,716.375 719.375,725.0 705.125,729.75 689.625,730.625 673.75,728.125 658.125,723.0 643.375,715.875 629.75,707.5 617.375,698.625 606.375,689.625 596.75,680.75 581.0,664.625 574.75,657.375 564.375,644.875 541.625,614.75"/>
    <polyline points="539.75,612.5 532.25,604.25 527.25,600.25 523.75,598.25 520.625,597.0 517.5,596.375 514.75,596.375 511.25,597.25"/>
    <polyline points="510.5,597.625 507.625,599.75 505.375,602.75 504.25,605.5 503.5,610.0 503.75,613.875 504.375,616.625 505.375,619.5 507.75,624.0"/>
    <polyline points="508.875,625.5 510.0,627.125 514.25,631.5 519.625,635.375 526.0,638.5 533.0,640.5 537.875,641.0 542.5,640.75 546.75,639.625 550.5,637.875 552.125,636.75 554.75,634.0 555.75,632.375"/>
    <polyline points="556.625,630.75 557.625,627.0 557.875,623.0 556.75,616.75 554.375,610.5 551.0,604.5 545.5,597.25 539.5,591.0 533.25,585.75"/>
    <polyline points="531.75,584.625 524.25,580.125 520.0,578.25 514.5,576.75 510.5,576.375 505.5,576.75 501.875,577.75 498.5,579.375"/>
    <polyline points="497.375,580.0 493.125,583.375 489.375,587.75 486.875,591.875 484.875,596.75 483.125,604.375 482.875,608.75 483.125,613.5 484.75,621.375"/>
    <polyline points="485.625,624.125 488.25,629.875 492.0,635.875 497.125,642.125 503.625,648.125 507.375,651.125 516.25,656.5 521.125,658.875 526.5,661.0 532.0,662.75 537.75,664.125 543.625,665.0 549.5,665.375 555.375,665.25 561.0,664.5 566.25,663.25 571.25,661.375 575.625,659.125 579.5,656.25 582.75,653.125 585.375,649.5"/>
    <polyline points="587.375,645.75 588.625,641.75 589.375,637.625 589.625,633.375 589.375,629.125 588.625,624.875 587.5,620.75 586.125,616.625 584.375,612.625 578.375,601.375 573.875,594.5 569.25,588.125 558.0,574.25 548.125,563.0"/>
    <polyline points="546.375,561.0 529.375,543.25 523.375,537.75 517.625,533.5"/>
    <polyline points="517.0,533.0 513.0,530.875 509.625,529.875 506.5,529.75 502.875,530.625"/>
    <polyline points="502.375,530.875 499.75,532.125 496.0,534.75 487.625,542.5"/>
    <polyline points="487.0,543.25 482.25,548.375 476.125,555.875 471.25,562.5 464.0,573.875"/>
    <polyline points="463.0,575.75 457.875,586.5 454.375,596.875 453.125,602.875 452.375,609.5 452.25,613.0 452.625,620.625 453.25,624.75 455.5,633.75 459.75,643.625 462.625,648.875 466.375,654.375 470.875,660.0 476.375,665.875"/>
    <polyline points="482.75,671.75 490.375,677.625 499.125,683.375 509.125,688.75 520.25,693.625 532.5,697.75 545.625,700.75 559.25,702.625 573.125,702.875 586.625,701.5 599.25,698.5 610.625,693.875 620.25,687.875 628.0,680.75 633.625,672.875 637.375,664.625 639.375,656.125 639.875,647.875 639.0,639.875 637.25,632.375 634.875,625.375 632.0,618.75 628.75,612.75 625.375,607.0 618.5,596.875"/>
    <polyline points="615.125,592.375 597.875,569.625 591.5,560.25 586.5,551.75 582.625,543.875 579.875,536.5 578.125,529.625 577.0,521.125"/>
    <polyline points="577.0,519.0 577.25,513.0 578.25,507.0 579.25,503.125 581.25,497.375 584.0,491.5 588.375,483.625 593.875,475.5 598.75,469.0"/>
    <polyline points="600.375,466.75 625.75,435.25 635.5,421.25 640.375,413.25 645.125,404.0 649.25,393.375 651.125,387.375 652.625,380.75 653.75,373.5"/>
    <polyline points="654.375,365.5 654.375,356.375 653.625,346.25 651.625,334.75 648.375,321.625 643.25,306.5 635.875,289.375 625.5,269.75 611.375,247.625 592.75,223.0 568.625,196.75 538.5,170.0 502.375,145.375 461.125,126.5 417.5,117.5 375.125,122.25 338.5,142.0 310.75,174.875 292.875,216.125 283.875,260.125 281.5,302.25 283.25,339.5 287.125,370.5 292.0,394.875 297.0,413.5 301.875,426.75"/>
    <polyline points="306.5,435.75 311.25,441.25 315.875,444.0 320.875,444.625 326.375,443.75 332.25,441.75 353.125,433.625 361.0,431.0 369.125,428.75 377.375,426.875 393.625,424.75 401.5,424.375 409.0,424.5 416.125,425.0 422.875,425.875 435.125,428.25 445.5,431.5 454.375,435.25 462.0,439.125"/>
    <polyline points="465.375,441.0 479.0,450.5 487.125,457.25 500.25,468.875 507.875,474.5"/>
    <polyline points="508.75,475.0 514.125,477.625 518.875,478.625 521.125,478.625 524.125,478.125 528.5,476.375"/>
    <polyline points="529.25,475.875 534.5,472.125 539.125,467.5 545.625,459.125 548.875,453.75"/>
    <polyline points="549.625,452.375 552.125,447.625 555.875,438.375 558.375,429.625 560.0,419.375 560.25,410.375 559.875,403.875 558.875,396.75 557.125,389.125"/>
    <polyline points="555.875,385.125 554.375,381.0 550.5,372.375 545.25,363.375 538.75,354.375 530.625,345.625 521.0,337.75 515.75,334.375 510.125,331.5 504.375,329.125 498.5,327.375 492.625,326.5 486.625,326.375 481.0,327.125 475.5,328.75 470.375,331.25 465.625,334.625 461.375,338.75 457.75,343.625 454.75,349.125 452.25,355.0"/>
    <polyline points="450.375,361.375 449.0,367.875 448.125,374.625 447.75,381.375 447.875,388.0 448.25,394.625 449.0,401.0 450.0,407.125 452.625,418.625 455.625,429.0 462.5,446.5 471.0,463.125 478.25,475.375"/>
    <polyline points="479.5,477.375 493.75,499.375 497.625,506.5"/>
    <polyline points="497.875,507.125 499.25,510.75 499.875,513.875 499.875,517.125 499.25,519.75"/>
    <polyline points="499.125,520.125 498.5,522.0 496.5,525.75 491.375,533.0"/>
    <line x1="491.0" x2="473.125" y1="533.625" y2="556.625"/>
    <polyline points="472.25,558.0 467.25,565.25 463.0,572.125 458.75,580.125 455.75,587.0 453.875,592.0 451.625,600.625 451.0,603.75 450.25,610.625 450.25,614.25"/>
    <polyline points="450.25,618.125 450.625,622.125 452.375,631.0 453.875,635.75 458.375,646.0 461.625,651.5 465.625,657.25 470.625,663.125 476.5,669.125 483.5,675.25 491.75,681.375 501.25,687.25 512.125,692.625 524.125,697.5 537.25,701.5 551.25,704.125 565.75,705.5 580.125,705.125 594.0,703.0 606.75,699.125 617.875,693.5 627.125,686.625 634.25,678.75 639.125,670.375"/>
    <polyline points="642.125,661.625 643.25,652.875 643.0,644.5 641.625,636.5 639.375,629.0 636.625,622.0 633.375,615.625 626.5,604.25 619.5,594.5 601.75,571.375 597.25,565.0 591.625,556.125 586.125,545.375"/>
    <polyline points="585.125,542.875 583.375,538.0 582.125,533.375 580.875,526.625 580.5,522.375 580.875,514.25 582.0,508.25 583.75,502.375 586.25,496.625 589.375,490.75"/>
    <polyline points="590.5,488.875 593.0,484.875 597.375,478.875 608.125,466.375 621.625,452.625 644.375,431.75"/>
    <polyline points="647.625,428.875 669.25,409.875 685.5,395.125 703.0,377.875 711.875,367.625 716.25,361.875 720.5,355.625 724.5,348.75 728.25,341.0 731.375,332.125 733.875,321.875 735.25,309.875 735.0,295.25 732.375,277.375"/>
    <polyline points="726.5,255.25 715.625,227.25 697.625,191.875 669.375,147.5 626.5,93.625 564.375,32.625 517.8965,0.0"/>
    <polyline points="199.6229,-0.0 197.625,1.5 153.25,99.0 139.25,203.875 142.0,292.625 149.75,356.375 156.875,395.125 162.25,412.625 167.125,412.875 187.25,379.375 207.375,354.5 235.25,329.875 269.125,309.125 305.5,293.5 340.75,283.125 372.25,276.875 398.125,273.375"/>
    <polyline points="418.0,271.25 441.125,269.0 447.0,268.0 442.0,269.875 437.25,272.625 431.75,276.875 426.125,282.75 420.875,290.0 416.125,298.75 412.25,308.625 409.375,319.5 407.375,330.75 406.5,342.375 406.375,353.875 407.0,365.125 408.25,376.0 410.0,386.25 412.0,395.875 417.0,413.0 419.75,420.625 425.25,434.125"/>
    <polyline points="428.0,440.0 435.875,454.875 438.375,459.0 447.125,473.0 460.0,492.5 465.125,501.625 467.875,508.0"/>
    <polyline points="468.5,509.5 469.75,513.75 470.5,517.875 470.75,524.375 469.875,530.75 468.375,535.875 465.625,542.5"/>
    <polyline points="612.5,721.75 629.875,715.75 644.5,707.25 655.875,697.0 663.875,685.625 668.625,673.875 670.5,662.375 670.375,651.5 668.5,641.625 665.5,632.625 661.875,624.75 658.0,617.75 653.875,611.5 645.875,601.25 624.0,577.375 616.0,567.125"/>
    <polyline points="682.125,521.875 691.875,532.125 696.875,538.5 702.0,545.875 707.125,554.125 712.0,563.5 716.625,573.875 720.875,585.125 724.375,597.25 727.125,610.125 728.625,623.375 728.875,636.625 727.5,649.5 724.5,661.5 719.625,672.125 713.125,681.0 705.0,687.75 695.625,692.25 685.125,694.25 674.25,694.125 663.0,692.0 651.875,688.375 641.125,683.375 630.875,677.5 621.375,671.125"/>
    <polyline points="612.5,664.375 604.375,657.5 597.0,650.75 584.25,638.0 573.75,626.625 548.625,597.5 541.0,589.25 536.625,584.875 530.625,579.625 523.625,574.5"/>
    <polyline points="488.75,577.125 484.625,581.875 481.0,587.75 477.875,595.0 476.375,601.375 475.625,608.75 476.25,617.0 477.625,623.125 480.125,629.75"/>
    <polyline points="481.75,633.125 486.25,640.25 492.375,647.625 500.5,654.875 510.625,661.75 516.5,664.875 522.875,667.75 529.625,670.125 536.75,672.0 544.125,673.375 551.625,674.0 559.0,674.0 566.25,673.25 573.0,671.75 579.25,669.5 584.875,666.5 589.75,663.0 593.75,659.0 596.875,654.5 599.125,649.75 600.5,644.75 601.125,639.625"/>
    <polyline points="601.125,634.625 600.5,629.5 599.375,624.625 597.75,619.75 593.75,610.5 589.0,602.0 581.375,590.5 576.25,583.625 550.0,549.875"/>
    <polyline points="529.875,515.5 529.125,511.625 529.0,506.75 529.875,502.125 531.375,498.125"/>
    <polyline points="505.875,314.0 498.25,311.125 490.375,309.375 482.625,308.75 474.875,309.375 467.625,311.25 460.75,314.5 454.625,318.875 449.125,324.375 444.5,331.0 440.75,338.375 437.75,346.25 435.75,354.625 434.375,363.25 433.75,371.875 434.125,388.75 435.0,396.75 436.25,404.375 439.5,418.5 443.25,430.875 449.25,446.5"/>
    <polyline points="451.375,451.0 453.25,455.25 460.625,469.375 476.125,496.0 478.5,500.625 481.375,507.375"/>
    <polyline points="480.125,534.875 476.875,541.25 474.125,545.875 460.375,567.625"/>
    <polyline points="459.375,569.5 456.0,575.375 452.75,582.0 448.625,592.25 446.875,598.0 445.5,604.5 444.625,611.625 444.5,615.375 445.0,623.75 445.625,628.375 446.75,633.125 448.375,638.25 450.5,643.625 453.25,649.25 456.75,655.25"/>
    <polyline points="461.25,661.5 466.75,668.0 473.375,674.625 481.25,681.375 490.75,688.0 501.625,694.375 514.0,700.375 528.0,705.5 543.125,709.5 559.125,712.0 575.625,712.625 591.75,711.375 606.875,707.875 620.375,702.375 631.75,695.25 640.75,686.75 647.0,677.375 651.0,667.625 652.75,658.0 652.75,648.625 651.5,639.875 649.125,631.75 646.125,624.25 642.75,617.5 635.375,605.625"/>
    <polyline points="631.625,600.5 607.625,570.0 603.375,564.0 599.875,558.375 595.75,550.5 592.875,543.125 590.5,534.0 589.875,527.5"/>
    <polyline points="589.875,525.375 590.375,519.375 591.625,513.5 594.5,505.875 597.625,500.375 601.375,495.0 606.0,489.75 611.5,484.625 617.875,479.625"/>
    <polyline points="620.125,478.0 627.875,473.5 636.875,469.5 643.625,467.375 651.125,465.875 659.625,465.25 669.0,465.875 674.25,466.875 679.875,468.375 685.75,470.625 692.25,473.5 699.125,477.5 706.5,482.625 714.375,489.0 723.0,497.125 732.0,507.25 741.625,519.75 751.75,534.875"/>
    <polyline points="762.0,553.0 772.0,574.5 781.375,599.5 789.125,627.625 794.25,658.125 795.5,689.75 791.875,720.375 782.375,747.625 767.0,769.0 746.75,783.0 723.125,789.0 698.0,787.75 673.375,780.75 650.375,769.875 630.125,757.0 612.875,743.5 598.625,730.5 587.25,718.5 578.125,707.625 571.25,698.25 566.125,690.125 562.5,683.25 560.0,677.375 558.5,672.25 557.75,667.875 557.625,664.0"/>
    <polyline points="557.875,660.625 559.25,654.5 562.875,643.75 564.125,638.5 564.75,633.125 564.625,627.875 563.75,622.5 561.25,614.625 560.125,612.125 554.625,602.625 549.875,596.25"/>
    <polyline points="548.125,594.375 544.875,590.625 539.75,585.625 531.5,578.875 526.75,575.75 522.125,573.375 517.875,571.625 515.0,570.75 511.0,570.0 509.625,570.0"/>
    <polyline points="508.375,569.875 504.625,570.125 499.75,571.375 497.375,572.375 492.875,575.125 488.5,578.875 485.5,582.5 483.625,585.25 481.0,590.0"/>
    <polyline points="480.25,591.75 478.25,597.5 477.375,601.75 477.0,604.125 476.75,611.625 477.375,617.125 478.875,623.25 483.0,633.0 485.0,636.5 490.25,643.625 497.25,650.75 506.25,657.75 511.375,661.0 517.125,664.0"/>
    <polyline points="523.25,666.625 529.875,669.0 536.75,670.75 543.875,672.125 551.125,672.75 558.25,672.75 565.25,672.0 571.875,670.5 577.875,668.375 583.375,665.5 588.125,662.125 592.0,658.125 595.0,653.875 597.25,649.25 598.625,644.5 599.375,639.5 599.375,634.625 598.75,629.625 597.75,624.75 594.5,615.5 590.125,606.75 585.375,598.625 582.75,594.875"/>
    <polyline points="580.25,591.125 570.375,578.0 548.875,551.0 537.0,534.75"/>
    <polyline points="536.125,533.375 532.375,527.625 529.25,521.875 526.75,515.75 525.875,511.875"/>
    <polyline points="525.875,511.25 525.75,507.375 526.25,504.625 527.0,502.0 529.125,497.625"/>
    <polyline points="529.375,497.0 532.0,492.625 542.0,478.125"/>
    <polyline points="542.75,477.125 550.5,465.25 554.75,457.75 559.125,448.875 563.125,438.125"/>
    <polyline points="563.875,435.75 565.875,428.0 566.875,422.25 567.625,416.0 567.75,409.125 567.375,401.625 566.25,393.375 565.375,389.0 562.625,379.625 560.875,374.625 558.625,369.5 553.0,358.75 549.5,353.25 541.0,342.125 536.0,336.625 530.375,331.375"/>
    <polyline points="524.25,326.375 517.75,321.875 510.75,317.875 503.375,314.75 495.875,312.375 488.25,311.0 480.625,310.75 473.375,311.75 466.375,314.0 459.875,317.5 454.125,322.125 449.0,327.875 444.75,334.5 441.375,341.875 438.75,349.625 436.875,357.875 435.75,366.25 435.25,374.75 435.375,383.0 435.875,391.0 438.125,406.25 441.25,419.875 445.0,431.875"/>
    <polyline points="447.0,437.25 451.0,447.0 458.625,462.875 466.875,477.625 476.5,493.875 481.125,502.875"/>
    <polyline points="481.625,504.125 483.125,507.75 484.5,512.25 485.375,518.25 484.875,524.75 483.625,529.375"/>
    <polyline points="483.25,530.375 481.75,534.125 478.625,540.125 466.75,558.75"/>
    <polyline points="465.75,560.25 459.5,570.5 454.0,580.875 450.875,588.125 448.125,596.5 446.625,602.75 445.625,609.625 445.375,617.25 446.125,625.75"/>
    <polyline points="447.0,630.5 450.125,640.5 452.625,646.0 455.75,651.75 459.625,657.75 464.5,664.0 470.5,670.5 477.625,677.125 486.125,683.75 496.125,690.25 507.5,696.375 520.5,701.875 534.75,706.5 550.125,709.75 566.0,711.5 582.125,711.25 597.625,709.0 611.875,704.75 624.375,698.625 634.5,691.0 642.25,682.25 647.5,672.875 650.5,663.25 651.5,653.875 651.0,644.75"/>
    <polyline points="649.25,636.375 646.625,628.5 643.5,621.375 640.0,614.875 636.375,609.0 629.0,598.5 610.25,574.875 603.375,565.5 598.125,557.0 595.25,551.625 593.0,546.625 590.5,539.375"/>
    <polyline points="590.0,537.125 588.75,530.375 588.5,524.125 588.75,520.0 589.375,516.0 590.375,512.125 592.5,506.375 595.25,500.75 598.875,495.25 604.75,488.125"/>
  </g>
</svg>
