<?xml version="1.0" encoding="utf-8" ?>
<svg xmlns="http://www.w3.org/2000/svg" xmlns:cc="http://creativecommons.org/ns" xmlns:dc="http://purl.org/dc/elements/1.1/" xmlns:ev="http://www.w3.org/2001/xml-events" xmlns:inkscape="http://www.inkscape.org/namespaces/inkscape" xmlns:rdf="http://www.w3.org/1999/02/22-rdf-syntax-ns" xmlns:sodipodi="http://sodipodi.sourceforge.net/DTD/sodipodi-0.dtd" xmlns:xlink="http://www.w3.org/1999/xlink" baseProfile="tiny" height="27.09333333cm" version="1.2" viewBox="0 0 1024.0 1024.0" width="27.09333333cm">
  <metadata>
    <rdf:RDF>
      <cc:Work>
        <dc:format>image/svg+xml</dc:format>
        <dc:source>vpype read './original_svgs/Strange Attractors #236.svg' linemerge linesimplify write './Strange Attractors #236.svg'
</dc:source>
        <dc:date>2024-08-05T01:35:40.900888</dc:date>
      </cc:Work>
    </rdf:RDF>
  </metadata>
  <defs/>
  <g fill="none" id="layer1" inkscape:groupmode="layer" inkscape:label="1" stroke="black" style="display:inline">
    <polyline points="502.625,820.875 484.6221,829.6279 467.224,839.0173 450.6088,848.972 434.9171,859.3909 418.3843,871.5455 402.4998,884.4086 387.8549,897.5744 380.6021,904.7701 377.7451,908.0684 381.3076,905.1246 390.0179,896.7432 413.7862,872.5027 438.2137,846.4576 463.8381,818.1101 487.776,790.7301 510.1912,764.2104 530.3405,739.396 549.0503,715.2955 564.4443,694.453 578.0311,674.9922 590.0947,656.4882 600.7698,638.7574 610.2168,621.5315 618.3114,604.9679 624.8118,589.5286 629.6955,575.3239 632.8906,563.3299 635.034,551.8482 636.0987,540.9491 636.0908,531.0152 635.0314,521.5394 632.7909,511.952 629.514,503.1241 625.2783,495.1229 620.6147,488.5075 614.7656,481.9504 608.1961,475.968 601.2256,470.82 592.2461,465.4805 582.68,460.784 570.9869,456.2713 558.0933,451.9398 553.0,449.75 551.1393,448.5931 549.7456,447.2622 548.625,445.5 548.1744,443.9364 548.4202,438.8308 549.6816,434.1499 553.1167,424.5145 563.1333,399.2526 568.9814,383.1006 574.9489,365.4211 580.2716,347.8557 584.2888,332.3552 588.0486,315.3394 590.7529,300.3976 592.7358,285.8994 593.9204,271.4388 594.0644,258.091 593.2148,245.388 591.38,234.3988 588.6151,225.318 586.7982,221.113 584.724,217.2647 582.3866,213.8064 580.0281,211.0291 577.4424,208.627 574.625,206.625 570.7865,204.6894 566.6528,203.4007 562.2508,202.786 558.0032,202.8376 553.5737,203.499 548.7039,204.8865 544.0189,206.8033 538.966,209.465 533.8847,212.743 528.8044,216.6162 523.7547,221.0635 518.9106,225.9131 514.0835,231.3609 509.427,237.2458 504.9745,243.5178 500.7593,250.127 493.8292,262.8238 487.7077,276.8659 482.4297,292.362 478.497,307.764 475.9601,323.3472 474.6534,339.7899 474.6684,354.9411 475.9575,369.8257 477.3803,379.0546 479.3179,388.1418 481.8122,397.1949 484.8537,406.2841 488.2417,414.5864 492.3972,423.1523 496.4454,430.4142 500.6896,436.7478 504.9863,442.0845 509.4494,446.5219 513.5126,449.7462 517.6675,451.8514 522.1488,453.0136 526.0602,452.9074 529.9779,451.7765 534.1149,449.3559 537.9523,446.1039 541.9125,441.758 545.75,436.625 550.3234,429.4767 554.7565,421.6597 559.6134,412.1476 568.8287,391.4971 577.3206,369.3316 585.2736,344.8483 591.6831,320.9473 596.5059,298.1577 599.492,277.8865 600.9732,259.8598 600.9804,244.5794 600.3965,236.3181 599.4625,228.7991 598.268,222.4161 596.694,216.4237 594.8309,211.1966 592.6171,206.4907 589.9023,201.957 587.0752,198.2481 583.6575,194.7949 580.1687,192.1731 576.0202,189.9948 571.6752,188.5915 566.9385,187.8408 561.9605,187.7935 556.7662,188.464 551.7714,189.7419 546.2313,191.8373 540.9432,194.4679 535.3457,197.8591 529.46,202.079 523.91,206.6808 518.4348,211.8363 513.0682,217.5218 507.6837,223.9154 502.7931,230.3967 497.9399,237.5456 489.474,252.1016 482.1982,267.5432 476.0964,283.9011 471.2793,301.0132 468.0412,317.6151 466.3145,333.6768 465.8896,351.1788 466.1869,360.2693 466.8174,368.4864 468.1846,378.937 470.1496,389.4051 472.6757,399.9786 475.5968,409.578 479.3014,419.6384 483.3412,429.1213 487.4173,437.0714 493.2977,447.1732 498.1569,454.2526 503.7206,461.2095 508.5827,466.1231 513.3657,469.8472 518.625,472.375 522.4219,473.0781 526.7786,472.5921 531.2128,470.5862 535.3702,467.3715 539.8737,462.6057 544.3055,456.7225 549.2303,449.1158 554.5139,439.8711 559.3573,430.5244 570.8478,405.0315 582.3644,375.2822 591.9102,346.6005 599.4057,320.3023 605.3234,294.0044 608.8942,272.4577 610.9367,251.5105 611.3806,241.7782 611.4198,233.0048 611.0712,224.8418 610.2933,216.9653 609.0536,209.4003 607.3668,202.1766 605.3537,195.7963 602.9131,189.9103 600.2084,184.879 597.0923,180.3951 593.5171,176.4695 589.5104,173.1382 584.803,170.311 580.0406,168.4007 574.9395,167.2285 569.5166,166.8281 563.9987,167.2044 557.9233,168.3928 551.6528,170.3611 545.5729,172.937 539.0507,176.3983 532.8125,180.3725 526.5553,185.0155 520.148,190.4661 513.9023,196.4629 507.8253,202.9789 501.9443,209.9732 496.056,217.7233 490.8793,225.2327 485.781,233.3645 481.2269,241.3981 476.8559,249.957 472.711,259.0169 468.9718,268.1882 465.6353,277.4203 462.5936,287.0172 460.1015,296.1506 458.0757,305.0577 456.3919,314.2239 455.1159,323.2403 454.1566,332.8167 453.5837,342.5255 453.4113,352.0411 453.6417,361.2376 454.5581,373.4186 456.1178,385.2566 458.34,397.1077 461.2252,408.6883 464.832,420.2869 469.3362,432.476 474.0539,443.287 480.1022,455.5463 485.923,465.7519 494.4412,478.7759 501.8371,488.7038 509.2948,497.2258 515.2499,502.1476 518.9188,504.0271 520.9782,504.5667 522.821,504.666 525.113,504.328 527.4508,503.4924 531.5831,500.4895 536.1144,495.7117 541.1157,488.9566 546.7649,480.1322 552.4279,470.1281 558.0448,459.2987 566.4083,442.0181 572.9327,427.4228 586.4143,394.6663 593.6697,375.2369 599.7585,357.8494 604.7526,342.3965 610.35,323.5711 614.7339,307.4509 618.4326,292.2961 623.5357,266.8953 625.428,254.7746 626.8829,243.0202 627.8855,231.7182 628.4295,220.9386 628.5186,210.5396 628.1592,200.8064 627.3664,191.781 626.0962,183.1283 624.3999,175.2703 622.3105,168.213 619.8293,161.8632 616.6587,155.6001 613.2141,150.2808 609.3246,145.5684 605.2761,141.7442 600.8399,138.535 596.0176,135.9803 590.8109,134.1197 585.1356,132.9741 579.2863,132.571 573.1543,132.8669 566.7747,133.8618 560.1825,135.5557 553.413,137.9485 546.5012,141.0403 539.8745,144.6021 532.8676,148.993 525.7761,154.0648 518.7242,159.73 511.7517,165.9518 504.8986,172.6934 498.4688,179.6202 491.9651,187.2739 485.9442,195.0085 480.0264,203.2982 474.364,211.9234 469.0222,220.7737 463.8356,230.1494 459.1888,239.342 454.752,248.9915 450.8563,258.3699 447.2277,268.1313 444.1095,277.6264 441.2484,287.6257 438.8291,297.5166 436.7605,307.6494 434.6627,320.8973 433.2359,334.1435 432.4758,347.4015 432.4206,360.3567 433.0704,373.4729 434.3913,386.2768 436.4402,399.3764 439.1559,412.2351 442.2923,424.0005 446.2064,436.2244 450.7415,448.4288 455.8398,460.3289 461.1134,471.3261 467.4468,483.5916 486.1674,516.5373 491.6484,526.7019 494.8387,533.1853 497.8492,540.5396 501.2344,551.5312 502.9375,561.8594 503.2548,572.6395 502.5302,581.3448 501.6871,587.4871 500.124,595.1448 495.2465,612.6601 488.3227,632.0865 481.081,649.995 467.1929,680.9997 453.3347,709.3776 432.0626,751.2772 396.0004,820.104 382.2173,848.1272 376.4831,861.6479 374.6238,867.0033 373.4042,871.5793 372.908,875.2041 373.1314,877.4717 373.9982,878.9418 375.5453,879.567 378.5938,879.0527 382.3626,877.2751 387.618,873.8743 393.9983,869.0036 410.3905,854.7168 430.8527,835.0204 452.8293,812.3948 476.0319,787.1492 499.2738,760.5644 520.3469,735.1824 537.4597,713.4163 553.1284,692.3468 567.1019,672.3177 579.2355,653.5298 589.9473,635.2966 599.1364,617.76 606.5631,601.4052 612.2768,586.1676 615.6358,574.7035 617.9882,563.6692 619.3076,553.1577 619.577,542.941 618.7441,533.4702 616.8526,524.5927 613.9724,516.4525 609.9782,508.8213 605.0438,502.053 598.9014,495.5326 592.2513,490.0312 585.1356,485.5776 576.5183,481.4522 567.9929,478.493 559.0744,476.3291 543.8661,473.7693 541.4854,472.5235 540.8519,470.9074 541.1016,468.4785 542.3969,465.1027 556.0865,436.6737 567.0216,411.3441 574.6937,391.8105 582.6989,369.4189 589.6015,347.8116 595.7716,325.5404 600.6987,304.3388 604.4414,284.1314 606.8419,265.5286 607.8952,248.3028 607.6605,232.34 607.0356,224.8914 606.0976,218.0934 604.8742,211.9319 603.237,205.812 601.2333,200.0923 599.0248,195.1592 596.4821,190.6591 593.598,186.633 590.608,183.3545 587.1006,180.3885 582.7701,177.6977 578.425,175.854 573.4125,174.5989 568.463,174.1346 563.2431,174.3675 557.6978,175.3349 552.0433,176.9966 546.2608,179.3347 540.0624,182.5158 534.1424,186.1856 528.2164,190.4748 522.3245,195.3647 516.5523,200.7856 510.8135,206.8135 505.2499,213.3045 499.6641,220.5239 494.5529,227.8243 489.914,235.1155 481.2829,250.8154 473.7813,267.6042 467.6249,285.0547 463.1355,302.0262 459.9777,319.7313 458.2331,337.8936 457.8806,347.5241 457.9275,356.1155 458.5826,367.5017 459.8978,378.9843 462.081,391.9187 464.5333,402.7185 467.9414,414.3653 472.3586,426.86 476.3164,436.2731 481.3478,446.5289 487.5246,457.6243 494.8802,468.9813 501.5214,477.7638 507.5483,484.3841 513.5299,489.4144 516.1759,490.9861 519.1296,492.2781 521.419,492.7631 524.0343,492.7362 526.0441,492.2908 528.4266,491.268 532.7843,488.2898 537.1127,483.9202 541.708,477.94 546.775,470.1238 553.2354,458.8552 559.1637,447.4431 565.9161,433.3137 572.5769,418.2706 585.1023,387.1583 590.8815,371.3034 596.2242,355.5375 601.2762,339.3488 606.1644,322.3646 610.1296,307.1551 613.3803,293.0357 618.1509,267.3303 619.8169,255.5437 620.9891,244.5494 621.6768,234.4218 621.9223,224.3601 621.7431,214.5769 621.1073,205.087 620.0772,196.7279 618.5762,188.7706 616.6661,181.6183 614.3984,175.3111 611.5915,169.2873 608.3344,163.8346 604.6221,159.0041 600.4499,154.8473 595.8127,151.4151 591.0389,148.9012 585.7563,147.0852 580.2411,146.0515 574.0741,145.7593 567.9738,146.2452 561.2583,147.5709 554.7072,149.5933 547.9855,152.3681 541.0185,155.9589 534.0697,160.2329 527.1158,165.1785 520.1987,170.7558 513.0779,177.1939 506.0903,184.2286 499.5517,191.5012 493.3096,199.1293 487.4847,206.941 481.7471,215.3832 476.3403,224.1145 471.2784,233.0872 466.408,242.5961 462.0915,251.9126 458.0242,261.6751 454.5524,271.0388 451.3743,280.7968 448.6424,290.4932 446.2587,300.4712 444.2534,310.6914 442.7014,320.752 441.5487,330.9669 440.847,340.8242 440.5438,353.102 440.8675,365.232 441.8255,377.5071 443.4362,389.9081 445.5764,401.5467 448.4172,413.4718 452.0249,425.8399 456.043,437.5448 462.1751,452.2669 470.6624,469.7541 481.1977,488.5966 502.03,523.2425 508.0613,535.0559 514.6563,549.6489 516.2383,552.2773 518.0816,554.2824 520.0,555.0 521.4062,554.7812 523.2373,553.8448 525.4917,551.9277 531.0729,545.2722 537.9184,534.6716 545.9852,520.7185 556.4392,500.9674 567.7102,478.1531 576.4414,459.6506 588.1885,433.5134 596.3846,414.2759 605.581,391.5015 613.5137,370.8299 620.9232,350.3797 627.9219,329.832 634.0142,310.645 639.4203,292.1095 644.07,274.4809 648.0438,257.6187 651.3984,241.5989 654.1155,226.5441 656.2457,212.2067 657.7812,198.6779 658.7554,185.6514 659.1566,172.982 658.9834,161.0091 658.2507,149.7856 656.9186,138.9861 655.0258,129.0602 652.4964,119.6972 649.4229,111.2901 645.8106,103.7775 641.7062,97.1826 637.0083,91.2965 631.453,85.9277 625.5849,81.6344 618.8338,78.0369 611.8582,75.5244 604.3651,73.9489 596.7809,73.3607 588.7325,73.6974 579.94,75.0398 570.7994,77.3706 561.3715,80.6655 551.7175,84.8999 541.8985,90.0494 531.9755,96.0897 522.0096,102.9963 512.3064,110.5439 502.5746,118.9646 493.3048,127.8066 484.0101,137.5111 475.2481,147.4778 466.561,158.2125 458.2473,169.3725 450.3508,180.8927 442.9154,192.7077 436.0494,204.6337 429.5676,216.9951 423.6466,229.4447 418.1378,242.2911 413.086,255.4829 408.6483,268.6065 404.8202,281.6049 401.5186,294.7641 398.8195,307.8316 396.2908,323.8887 394.6467,339.7704 393.8612,355.7905 393.9646,371.8352 394.9631,387.781 396.809,403.2894 399.4929,418.4819 403.0818,433.7052 407.1056,447.4695 411.8523,461.2711 416.9637,474.1555 422.8711,487.2528 429.2433,500.032 436.7758,514.1231 462.5576,558.588 469.6345,573.1586 472.9978,581.7215 475.4725,590.0247 477.0286,597.7484 477.842,605.9288 477.9752,616.2194 476.9475,627.1478 475.2113,637.3585 472.0965,649.8505 467.5011,664.9763 461.1686,683.4857 454.3216,701.5005 437.6898,743.1387 429.8154,765.298 427.2538,774.2121 426.0461,780.9436 426.2188,785.3906 426.8353,786.8941 427.8337,787.8961 429.656,788.3967 432.2747,787.8875 435.6257,786.3176 439.6975,783.699 449.1609,775.9725 461.1615,764.2701 474.6948,749.5186 488.7788,732.7527 501.8734,715.8792 513.936,698.8696 523.3546,684.3399 531.5995,670.3294 538.6751,656.8395 544.2644,644.471 548.7195,632.3273 551.8308,621.0774 553.5,611.25 553.8411,601.7229 553.3244,596.4985 552.2863,591.992 550.4849,587.5201 548.2362,583.8247 545.6381,580.9548 542.2621,578.5788 538.7473,577.0955 535.3874,576.5185 531.5694,576.662 527.4813,577.6117 523.1608,579.4467 519.2507,581.8287 515.5,584.875 511.4047,589.0325 507.7281,593.5218 503.8753,598.9592 496.8954,610.7225 486.4505,631.9167 441.3316,732.9813 430.0549,759.0872 423.0784,776.8504 418.591,791.0957 417.7182,795.5419 417.5368,799.1195 418.0852,801.7266 419.1928,803.1253 420.1761,803.5216 421.4248,803.5862 424.3253,802.8499 428.0395,800.9921 432.4167,798.0719 437.684,793.9245 443.7654,788.601 457.685,775.0058 473.4234,757.9402 489.3787,739.1368 504.4304,719.9244 518.3893,700.5942 529.1356,684.3925 538.556,668.7868 546.5234,654.0399 552.9931,640.2078 557.9491,627.2323 561.5716,614.7645 563.6118,603.7028 564.2053,593.2225 563.7937,586.9249 562.7747,581.43 561.1033,576.485 558.6732,571.7551 556.016,568.2194 553.0,565.5 548.5201,562.8127 544.275,561.2979 539.7772,560.7486 534.8782,561.0734 530.5138,562.2561 525.6446,564.4833 521.7493,567.0175 517.788,570.4756 513.3832,575.3757 509.5768,580.4689 503.6416,590.2672 497.2915,603.3033 470.7192,665.4404 459.9358,689.8097 427.2715,760.3574 414.9526,788.0379 408.7145,803.7294 405.399,814.448 404.5965,818.5935 404.3827,821.9358 404.8789,824.4336 405.9451,825.7635 407.0002,826.2082 408.3409,826.2823 411.4009,825.4761 415.6585,823.2529 420.7641,819.7266 427.1566,814.5956 434.5805,808.031 451.7102,791.3381 470.3967,771.2759 489.2777,749.405 507.5982,726.5951 524.5109,703.9093 536.9666,685.8227 547.8822,668.5046 557.3328,651.8677 565.1914,636.0834 571.3743,621.2919 576.0589,607.0692 578.9521,594.3406 579.7791,588.3942 580.2329,582.2839 580.1441,574.7341 579.3201,568.0299 577.75,561.875 575.2925,555.8779 572.3189,550.8433 568.7,546.4934 563.6922,542.2943 558.7143,539.3414 553.5916,537.5251 547.2616,536.5659 541.7283,536.7066 535.5394,538.0033 530.6286,540.0706 525.725,543.2469 521.4316,547.2129 517.5653,552.0989 514.4489,557.4714 510.3517,566.5855 505.2915,581.5336 496.4797,609.5321 491.5994,623.1121 483.5156,643.375 472.6016,668.3284 461.8652,691.1621 449.0687,717.2474 427.6773,759.3939 397.0909,818.2644 388.1858,836.3215 381.7739,850.3668 377.5123,861.2131 375.4783,869.0163 375.2965,871.7516 375.6721,873.7963 376.589,875.0538 378.1718,875.5413 381.2008,874.9178 385.399,872.8542 390.8019,869.2997 396.9287,864.6196 412.5863,850.9992 432.0711,832.2161 454.0436,809.528 477.0819,784.3843 499.6296,758.4906 520.4936,733.233 537.1703,711.8925 552.4779,691.1217 566.2862,671.1029 578.2427,652.3714 588.3515,634.9628 596.8061,618.5739 603.9687,602.5035 609.5539,587.3157 612.9326,575.5818 615.1588,564.8051 616.3853,554.3715 616.5614,544.514 615.6878,535.3164 613.7921,526.8581 610.765,518.7269 606.6268,511.083 601.6235,504.4032 595.7431,498.5361 588.4579,492.856 580.9081,488.3989 572.9575,484.9639 565.518,482.5262 554.9059,480.4185 541.3611,478.9167 539.7227,478.1991 539.1265,477.0991 539.5,474.875 540.4625,472.4616 553.557,446.443 564.1123,423.1139 573.5633,400.1241 582.0995,377.2481 590.1273,353.0207 597.0172,329.2347 602.5385,306.7648 606.7707,285.2744 609.5991,265.2466 610.9844,247.0851 610.9996,230.2265 610.5,222.6944 609.6414,215.4459 608.3967,208.5437 606.7728,202.0712 604.8477,196.1913 602.558,190.72 599.8933,185.7174 597.0588,181.5242 593.88,177.8403 590.5897,174.9 586.3998,172.0971 581.8577,169.9596 576.9823,168.5121 571.7929,167.7792 566.3085,167.7853 560.9685,168.4743 555.2181,169.8965 549.2407,172.0464 543.1547,174.8847 536.6752,178.5914 530.492,182.7722 524.3229,187.5725 518.2079,192.9697 512.4609,198.6529 506.5712,205.129 500.8861,212.0561 495.6562,219.0775 490.6652,226.4343 485.739,234.4269 481.3174,242.3427 477.1162,250.6392 473.1103,259.4034 466.2431,277.1631 460.9202,294.9924 457.0871,313.0127 454.7438,331.2518 453.8747,349.7406 454.1315,361.9432 455.0886,373.7624 456.7886,385.9618 459.3081,398.8265 462.1459,409.889 465.7237,421.0961 470.6763,434.253 475.1239,444.2397 482.7184,458.783 489.4496,469.9911 497.165,481.4024 505.8679,492.3104 511.6946,498.1563 517.6758,502.3027 520.2132,503.1365 522.7561,503.392 525.0687,503.0606 527.3734,502.1933 531.4899,499.3399 536.2513,494.5188 540.6165,488.64 546.4635,479.423 552.4188,469.0371 558.5109,457.3752 572.2183,428.029 578.6462,412.9638 584.983,397.1212 597.6723,362.3655 607.5093,331.7295 615.5743,301.968 621.0756,276.8512 625.0233,252.713 627.2981,230.4543 627.7791,220.2651 627.8296,210.6554 627.4441,201.5237 626.6172,192.742 625.3339,184.3022 623.6639,176.6529 621.5342,169.4511 619.0649,163.0848 616.1414,157.2402 612.8958,152.1816 609.4986,147.9803 605.7544,144.2763 601.6713,141.0979 597.2574,138.4737 592.5209,136.4321 587.841,135.0827 582.8963,134.2829 577.6935,134.0553 571.8874,134.4553 566.1234,135.4297 559.8602,137.076 553.7848,139.2149 547.2518,142.0775 540.9769,145.3565 534.6453,149.1813 528.2836,153.5463 522.0848,158.3106 515.6471,163.7996 503.3496,175.8484 491.3735,189.6975 479.9572,205.1522 469.837,221.1732 460.8807,237.8819 452.899,255.6798 446.3058,273.6562 441.75,289.125 438.2028,304.6126 435.5858,320.4584 433.9634,336.1566 433.2685,352.2933 433.5534,367.915 434.8375,382.8732 437.1895,398.2507 440.4551,413.3397 444.2478,426.9041 449.094,440.9552 455.463,456.7805 461.2391,469.1637 469.3628,484.7749 486.6851,515.0511 492.751,526.3158 496.3315,533.71 499.8088,542.5485 502.8181,553.0738 504.175,562.849 504.321,572.313 503.594,581.84 500.875,596.125 496.1043,612.8825 489.6445,630.8918 480.2122,653.9531 469.5919,677.335 453.4997,710.2354 436.2069,743.7636 392.8732,826.0714 379.6954,852.4131 373.5585,866.5628 371.4758,872.3628 370.3195,876.5401 369.8177,879.9115 370.0399,882.404 371.0555,883.9447 372.6496,884.4546 375.7616,883.8554 380.0432,881.7542 385.568,878.1166 391.9815,873.2029 407.7045,859.4785 428.3193,839.5696 451.8912,815.2811 476.2701,788.7989 500.4022,761.2519 522.801,734.3356 540.2865,712.1816 555.9224,691.2079 570.1675,670.7709 582.6966,651.3705 593.6323,632.8478 602.8439,615.3948 610.2016,599.2268 615.9486,583.8614 619.4572,571.8988 621.822,560.8449 623.1355,550.4128 623.3974,540.5362 622.5983,530.4884 620.7861,521.5612 617.9658,513.3861 614.0482,505.7839 608.9679,498.4603 603.1781,492.0699 597.0629,486.8509 588.7157,481.263 580.5338,476.9669 571.4586,473.4779 563.9112,471.3079 548.9188,468.0806 545.8626,467.1665 543.5944,465.7271 543.06,464.772 542.75,463.25 543.125,460.7344 545.0371,455.3594 559.285,423.9957 567.7375,403.5756 574.2881,386.3551 581.7764,364.785 588.0034,344.3227 594.1186,321.5184 597.8862,304.4312 601.1378,285.7306 603.2602,267.9807 604.1119,251.667 603.758,236.5538 602.2111,223.5013 600.9524,217.4929 599.255,211.4287 597.3442,206.1413 595.103,201.2642 592.7134,197.1463 590.0148,193.4648 586.9954,190.2594 583.6833,187.5798 579.6422,185.1738 575.2759,183.4234 570.6035,182.3543 565.6445,181.9922 560.4182,182.3629 555.3018,183.3933 549.8827,185.1181 544.0442,187.6507 538.1327,190.8928 532.5109,194.5906 526.8782,198.8912 521.2193,203.8186 515.6263,209.3121 510.1835,215.2891 504.9214,221.7069 499.8704,228.5231 495.0608,235.6952 490.7229,242.834 482.9026,257.8168 476.1316,273.9682 470.5172,291.1409 466.5544,307.5716 463.9006,324.5678 462.5238,343.0447 462.6594,359.4969 463.5858,370.8317 465.1611,382.213 467.1546,392.5879 469.8803,403.2446 473.5007,414.6746 477.44,425.2463 481.6796,434.6342 487.2652,445.3964 492.5024,454.0736 498.6391,462.9629 505.9326,471.456 510.6954,475.851 515.5502,479.2134 518.0649,480.262 520.8011,480.9438 523.0472,481.1416 525.0207,480.952 527.3664,480.31 529.6404,479.2428 534.1869,476.0568 538.235,471.9619 543.3717,465.2373 548.5492,457.2407 553.8691,447.8498 560.204,435.5174 572.3316,408.5918 583.2863,380.8334 593.0835,352.1044 601.8613,321.9594 605.2075,308.5794 608.3857,294.2135 612.4902,271.3594 614.8476,250.9171 615.4768,240.5038 615.674,230.655 615.4333,221.4409 614.7599,212.9111 613.6686,205.0968 612.0919,197.6214 610.1084,190.7692 607.6777,184.4131 604.9677,178.9395 601.835,174.0117 598.2667,169.6813 594.5144,166.2101 590.0963,163.1815 585.2705,160.8634 580.082,159.2915 574.935,158.5161 569.119,158.4462 563.432,159.1091 557.4649,160.5072 550.9911,162.7545 544.3726,165.766 537.66,169.5165 530.9041,173.9804 524.4759,178.8721 518.098,184.3662 511.7288,190.5256 505.5469,197.1709 499.3368,204.551 493.6018,212.0537 488.1238,219.9115 482.9275,228.0812 478.0381,236.5199 473.6614,244.8296 469.4889,253.6288 465.7138,262.5291 462.202,271.8515 459.1051,281.1985 456.32,290.8846 453.8865,300.8562 452.0085,310.2117 450.5305,319.6327 449.4341,329.239 448.7277,338.9874 448.4106,348.8297 448.5713,361.856 449.3827,373.6506 450.9468,385.8755 453.2543,398.3716 456.1308,410.6336 459.5309,422.1557 463.7706,433.9532 468.9687,446.3061 476.2709,461.1403 484.7351,476.0633 494.134,490.6458 501.2574,500.9062 507.3992,509.0758 513.5382,515.9797 517.7524,519.2347 519.6719,520.0156 522.2238,520.3934 523.7059,520.2238 525.6887,519.5301 527.6176,518.4347 529.7022,516.7661 534.286,511.8352 539.1951,505.0946 545.4502,495.1759 552.4077,482.5646 561.2171,465.1881 568.085,451.0094 574.3476,437.0893 588.7433,402.696 596.8197,381.8502 603.6227,363.1857 609.5001,345.8167 615.0939,328.0447 619.9725,311.2004 624.1614,295.2618 630.3257,267.6591 634.6278,242.1239 636.0888,230.0739 637.0868,218.4764 637.6212,207.2681 637.6898,196.7856 637.3095,186.9598 636.452,177.4571 635.1436,168.707 633.3246,160.3878 631.0704,152.88 628.4183,146.1506 625.1266,139.6398 621.545,134.0795 617.7517,129.4086 613.8212,125.5582 609.2269,122.0495 604.5408,119.3529 599.4858,117.2609 593.9315,115.7739 588.1695,114.9685 582.1247,114.8088 575.8255,115.2959 569.3,116.4308 562.5765,118.2147 555.6835,120.6486 548.6491,123.7337 541.9012,127.2462 534.6529,131.6076 527.509,136.4753 520.3779,141.8883 513.2951,147.8154 506.2961,154.2254 499.4163,161.0868 492.6911,168.3684 486.156,176.039 479.8464,184.0673 473.9008,192.2674 468.1567,200.8414 462.5268,209.9505 452.293,228.6907 443.3295,248.2317 435.8587,268.0349 430.7592,284.7692 426.6476,301.9357 423.6526,319.0309 421.76,335.9311 420.9439,352.7204 421.2254,369.3659 422.6147,386.1103 425.0739,402.7447 428.1012,417.3481 432.0163,431.6859 437.0241,446.488 443.4101,462.6048 449.132,475.1508 456.3745,489.4289 480.3452,533.1036 485.0176,542.9269 487.9063,549.8508 490.8485,559.6434 492.5757,568.1346 493.4233,577.5641 493.1185,587.0118 492.4238,594.3286 491.2063,601.4266 489.2991,609.9092 486.6696,619.5944 479.017,642.5395 470.9456,663.2841 466.0848,674.9808 455.3301,699.3229 412.5694,789.9306 404.75,807.375 400.0433,819.0392 396.8208,828.8972 395.5181,835.8081 395.6392,838.3182 396.1911,839.8496 397.1733,840.8409 398.6048,841.2635 401.4003,840.8455 404.471,839.535 408.5799,837.0674 413.5116,833.509 425.7506,823.1754 440.379,809.262 457.7246,791.4183 475.6011,771.8264 492.461,752.247 509.0469,731.8125 523.2508,713.2766 536.092,695.4952 547.6173,678.4183 557.9809,661.8104 566.6764,646.5116 573.8513,632.333 579.9739,618.3137 584.8953,604.7274 588.1795,592.9795 590.1723,582.3401 591.0223,571.9393 590.6567,562.0561 589.0571,553.1872 586.2842,545.3799 582.4336,538.4062 580.025,535.1671 577.4533,532.3266 573.8664,529.1385 569.8949,526.3121 565.8973,524.0853 561.9306,522.4298 557.0391,521.0371 552.1076,520.2018 547.816,519.9861 542.9388,520.3253 538.4987,521.2207 534.547,522.6629 530.492,524.7645 526.9671,527.3437 524.3483,530.0895 522.2013,533.3872 520.8856,536.1994 520.127,540.0176 520.354,542.745 521.25,544.125 522.802,544.369 524.6719,543.5156 526.375,542.125 529.8925,538.3283 536.0051,529.8056 543.4498,517.3508 555.2138,495.5458 563.6231,478.6175 575.372,453.7399 584.2652,433.9036 593.5376,411.915 602.1232,390.649 609.5601,371.0766 617.2193,349.5467 623.988,329.1556 629.9903,309.5208 635.3597,290.1924 639.3778,274.2753 642.9006,258.7374 645.8069,244.1044 648.22,229.7414 650.0664,216.0169 651.3751,202.7782 652.1384,190.0711 652.3453,178.3753 652.0275,167.3578 651.1535,156.7082 649.7379,146.8529 647.8135,137.8662 645.2999,129.3524 642.1973,121.4103 638.4973,114.1104 634.4109,107.8192 630.0137,102.4963 625.3795,98.0891 620.2842,94.3453 614.7226,91.3091 608.7113,89.0244 602.4091,87.5226 595.3902,86.7354 588.3573,86.7419 581.018,87.49 573.4049,88.9836 565.5508,91.2266 557.4885,94.2227 549.2507,97.9759 541.2418,102.273 532.788,107.474 524.3159,113.3489 516.1586,119.6234 507.775,126.7069 499.4998,134.3461 491.3759,142.5013 483.4459,151.1325 475.7526,160.2 468.5919,169.3298 461.6093,178.9709 454.9863,188.8751 448.5357,199.3311 442.4865,209.9783 436.8478,220.7715 431.4727,232.0069 426.5543,243.2998 422.1028,254.6005 418.1208,265.8886 412.6562,284.2486 408.4136,302.5785 405.3158,321.1209 403.3943,339.6976 402.6557,358.3049 403.1198,376.3846 404.7843,394.4738 407.6226,412.3425 411.226,428.5648 415.53,443.6979 420.9588,459.2612 427.5218,475.2064 432.857,486.78 438.7812,498.4688 449.1953,517.4001 462.9588,541.1543 470.4293,555.3247 474.375,564.0 477.8858,573.6635 480.0995,581.7946 481.7188,591.2969 482.25,600.0 481.7266,611.172 479.8982,623.5338 477.495,634.6827 473.5636,648.2635 467.4822,666.3312 461.6507,681.9948 432.0456,753.0804 422.8684,776.4344 419.4654,787.0922 417.7817,794.4213 417.5181,797.4021 417.6882,799.8155 418.31,801.6255 419.2009,802.6516 421.2036,803.2088 424.0674,802.6171 427.7708,800.844 431.75,798.25 442.6893,789.2928 455.853,776.623 471.4881,759.8363 487.5165,741.1741 502.0533,722.8835 515.8961,703.9661 526.8068,687.7395 536.3818,672.1428 544.5923,657.3107 551.3773,643.3004 556.6998,630.0541 560.6963,617.3307 563.1012,606.0327 564.0228,595.7666 563.8304,589.3452 563.0097,583.673 561.625,578.75 559.3517,573.6477 556.8468,569.7872 553.7601,566.5028 549.9903,563.8485 545.8217,562.0406 541.475,561.2135 536.0454,561.2216 531.9654,562.0188 527.3778,563.8516 522.8142,566.5766 518.4206,570.1696 514.1554,574.5909 510.2137,579.7063 503.6163,590.5172 497.3208,603.2155 466.8282,674.1547 455.3734,699.748 425.8689,763.665 415.3307,787.3502 409.3472,802.3952 405.7848,813.7345 404.959,817.9422 404.75,821.125 405.2154,823.6805 406.2439,825.0688 407.2655,825.557 408.5642,825.6782 411.5261,824.9634 415.6172,822.8732 420.5462,819.5343 426.751,814.6372 433.6182,808.6436 449.7935,792.9961 468.4495,773.153 487.4186,751.3977 505.313,729.3388 521.8839,707.3218 534.5481,689.092 546.1087,670.9951 555.8185,654.223 563.7555,638.681 570.1671,623.8055 575.0509,609.6102 578.1601,596.854 579.6784,584.8333 579.823,577.0101 579.2189,570.0382 577.9206,563.8958 575.7993,558.0303 572.7812,552.4062 569.2661,547.8473 564.9465,543.9049 560.0107,540.7126 554.6374,538.5243 548.0907,537.2811 542.1881,537.2573 536.3987,538.3032 531.4236,540.1613 526.4688,543.2031 521.6117,547.5023 517.9744,551.9668 514.049,558.548 510.116,567.292 498.9077,601.4681 491.4775,622.5338 481.9559,646.4661 471.1501,671.2136 459.4981,695.8025 445.5884,724.0197 397.7941,816.9411 389.4872,833.766 383.3441,847.2182 378.6637,859.1094 376.5501,866.9659 376.3178,870.0595 376.686,872.061 377.6291,873.3495 379.1866,873.8732 382.0232,873.3647 386.1664,871.368 391.528,867.8553 397.7312,863.1151 413.4386,849.4387 432.7366,830.8079 454.312,808.4902 476.8398,783.8472 499.5002,757.7766 520.5867,732.2256 537.0682,711.1473 551.8482,691.1076 565.2743,671.6335 577.27,652.8176 587.3494,635.4613 595.7447,619.2206 602.6922,603.6207 608.2624,588.4392 611.6618,576.5626 613.8967,565.6551 615.0549,555.4103 615.1899,545.435 614.2678,536.113 612.3097,527.5439 609.4443,519.9809 605.261,512.3404 600.2167,505.5861 594.4386,499.8045 587.1843,494.3382 579.3045,489.8235 571.7777,486.7136 563.8163,484.3041 552.2031,482.2579 540.686,481.436 539.1919,480.8872 538.4551,479.6895 538.6777,478.0527 539.5769,475.6053 552.6046,450.4314 563.3388,427.1095 573.6932,402.4336 581.9455,380.2928 590.5171,355.0483 597.7951,330.4604 603.4365,307.892 607.9861,285.102 610.9385,264.7485 612.416,246.3832 612.5398,229.0129 612.0602,221.045 611.2343,213.7292 610.016,206.7348 608.4763,200.4464 606.4138,194.0574 604.1023,188.4995 601.4171,183.4138 598.5671,179.14 595.3789,175.367 591.8463,172.1381 587.5283,169.2314 583.0758,167.1243 577.9493,165.5905 572.8552,164.855 567.4845,164.8111 561.8589,165.478 556.0,166.875 550.1512,168.9224 544.1997,171.6214 537.8624,175.1423 531.4907,179.3355 525.1256,184.1755 518.8078,189.6367 512.8712,195.3934 506.966,201.7696 501.263,208.5897 495.7834,215.8092 490.5483,223.3833 485.579,231.2674 480.8965,239.4167 476.5369,247.7632 472.7276,255.8533 469.1259,264.3798 465.7672,273.3216 460.105,291.613 457.7236,301.2453 455.8035,310.5841 454.3361,319.6352 453.2304,328.8759 452.5046,338.2655 452.1755,347.3992 452.3229,360.1008 453.1874,372.6629 454.734,384.8251 457.0329,397.2418 459.8178,408.758 463.3021,420.1682 467.9643,432.8224 472.9992,444.6258 480.013,458.5204 486.6458,470.0431 495.2509,483.0903 505.2468,496.0831 511.0656,502.4887 516.8726,506.9495 519.4507,508.0122 522.0,508.5312 524.25,508.3566 526.4044,507.6254 530.7249,504.7558 534.7584,500.6928 539.9963,493.7818 545.7969,484.7912 552.193,473.6279 557.5349,463.4416 565.357,447.1544 573.2657,429.7511 585.9971,399.1795 599.1123,363.6213 609.7755,330.3862 614.2253,314.848 618.1256,299.8625 623.9232,273.4021 628.0451,248.5095 629.385,237.1689 630.2562,226.6667 630.7092,216.3453 630.7336,206.5051 630.3216,196.9092 629.4844,188.0156 628.1825,179.4889 626.4737,171.7404 624.2839,164.4523 621.6927,157.9114 618.5613,151.7588 615.1751,146.5169 611.6139,142.1259 607.6786,138.2784 603.3692,135.0106 599.0095,132.5157 594.3238,130.5868 589.3418,129.2563 584.2254,128.5276 578.5296,128.3638 572.5917,128.83 566.4375,129.9276 560.0929,131.6576 553.971,133.8649 547.3309,136.8263 540.9768,140.1947 534.5089,144.1439 527.9214,148.6826 521.3568,153.7196 514.8449,159.2284 508.4156,165.1823 502.0987,171.5547 489.9221,185.4492 478.5792,200.6545 468.1494,217.0593 458.7235,234.5035 450.4423,252.7476 443.5414,271.2648 438.7136,287.4121 434.9259,303.6467 432.1222,320.2066 430.3574,336.911 429.6942,352.8328 430.0709,368.6414 431.4828,384.6258 434.0,401.25 436.8823,414.721 440.6263,428.1938 445.7043,443.1265 451.3567,457.336 456.836,469.2301 464.416,484.186 488.0527,526.6209 492.382,535.5738 495.687,543.79 498.1904,551.8962 500.0057,561.6282 500.5468,571.1944 500.0093,581.4491 497.6927,595.6085 493.865,610.4638 488.6683,626.0775 478.9963,651.0696 467.4563,677.276 449.6572,714.9309 402.6859,807.6282 388.465,837.3971 383.0253,850.5746 380.2715,859.979 379.8718,863.4805 380.147,865.854 381.0544,867.3478 382.6119,867.9385 385.4195,867.4933 389.2883,865.733 394.258,862.5983 400.368,858.03 414.8292,845.5544 432.963,828.1343 454.0563,806.3879 475.3519,783.1435 497.0056,758.2349 517.5678,733.305 533.4077,713.035 547.9735,693.275 561.1632,674.1713 572.7796,655.9954 582.5832,639.125 591.1131,622.6787 598.1961,606.9434 603.6334,592.388 607.0192,580.8243 609.3067,569.897 610.5624,559.5152 610.7641,549.3876 609.9017,540.3684 607.9429,531.8359 605.017,524.0877 600.9927,516.8001 595.9191,510.2262 589.2594,503.8981 582.1716,498.9023 574.4949,494.9967 566.0463,491.9815 556.6784,489.959 549.7159,489.2632 536.75,489.5 536.2266,489.4297 535.8359,488.8672 536.021,487.853 537.119,485.567 544.7476,472.1771 551.9605,458.4917 562.2994,436.998 572.1295,414.2868 581.9798,389.346 591.4288,362.5304 599.8482,335.4154 606.4749,310.3922 611.7086,286.1063 615.2199,264.1836 617.1935,243.8402 617.6277,224.7695 617.2743,216.1632 616.5141,207.8435 615.3732,200.238 613.878,193.3601 611.9583,186.8925 609.7111,181.0726 607.0749,175.7059 604.0453,170.8405 600.6179,166.5245 597.0561,163.0344 592.8472,159.917 588.2872,157.5094 583.1463,155.706 577.6735,154.6503 571.8906,154.3594 566.2072,154.7965 560.2886,155.9348 554.153,157.7886 547.6928,160.4276 541.0786,163.8008 534.4158,167.8533 527.7459,172.5567 521.1105,177.8827 514.5511,183.8027 508.399,189.9816 502.2083,196.8629 496.3525,204.0397 490.7497,211.575 485.4178,219.4272 480.3747,227.555 475.638,235.9168 471.0561,244.8166 466.819,253.9372 463.0343,263.0349 459.6524,272.1699 456.5531,281.6743 453.8702,291.1467 451.5141,300.9097 449.5855,310.557 448.0247,320.4236 446.9186,330.0893 446.2379,339.5028 445.9222,352.3821 446.3005,365.4001 447.3056,377.8636 449.0154,390.2417 451.5926,403.2407 454.9379,416.2234 458.5463,427.5719 462.9421,439.0586 470.9424,456.8256 481.2579,476.0083 492.2074,493.7323 501.8326,508.0261 512.0312,522.2428 516.3409,526.8258 518.3864,528.2559 520.514,529.103 522.108,529.181 524.3469,528.6767 528.25,526.125 532.3444,521.7866 538.631,513.2785 543.9075,504.7658 551.315,491.5391 557.7978,478.9334 568.0806,457.7267 576.5748,439.1421 592.2787,401.6702 607.5372,361.1022 613.1384,344.727 618.149,328.8814 623.6449,310.2584 628.3111,293.0485 634.6518,265.745 639.2733,239.523 640.9214,226.9401 642.0682,215.1774 642.7566,203.9253 642.982,192.8763 642.7197,182.5332 641.962,172.4944 640.7426,163.2202 639.0971,154.7398 636.9568,146.7107 634.4287,139.5307 631.4041,132.8842 627.8606,126.8308 624.1131,121.8133 619.7544,117.2179 614.9352,113.2778 609.9941,110.1963 604.3299,107.6183 598.6238,105.8748 592.5687,104.8202 586.1786,104.4809 579.5395,104.8747 572.7294,105.9739 565.6898,107.7622 558.1266,110.3531 550.3988,113.6653 542.8933,117.4937 534.9704,122.1705 527.359,127.2744 519.7544,132.9803 512.3799,139.1116 504.9762,145.868 497.4594,153.3576 490.1272,161.3051 483.0104,169.6676 476.14,178.402 469.5468,187.4653 463.2617,196.8144 457.5147,206.0721 451.8764,215.9459 446.7412,225.7567 441.8309,236.0173 437.3349,246.3416 433.2521,256.6916 429.4619,267.3854 424.2161,284.7146 420.0653,302.0615 417.1077,319.0712 415.2622,335.8763 414.4405,353.4684 414.7428,371.551 416.0909,388.4676 418.5591,405.0133 421.8497,420.323 426.2654,436.4068 430.9079,450.3747 436.507,464.4549 441.9355,476.5026 448.2035,489.3436 455.4728,502.9286 472.7955,533.7964 478.9298,546.0168 482.3848,553.9845 485.6823,563.8525 487.6567,572.563 488.8456,582.0638 488.9052,591.1308 487.8716,601.841 485.0437,616.7227 480.609,632.725 475.1597,648.9329 468.7806,665.8622 460.1663,686.6152 449.6127,710.7616 421.0204,773.8112 411.734,795.749 407.2347,808.1253 404.9934,816.2786 404.5156,819.6406 404.5412,822.3632 405.0051,824.168 406.0326,825.4791 408.1917,825.9849 411.375,825.1875 415.5824,823.0509 420.8138,819.5391 426.4152,815.1351 433.0679,809.3215 449.0691,793.8371 467.3741,774.4672 486.0452,753.1286 504.241,730.8188 520.7453,709.0035 533.7485,690.4627 545.2799,672.6469 554.6688,656.6076 562.6851,641.1135 569.4041,625.9871 574.4821,611.8937 577.8932,598.8661 579.7285,586.5918 580.0118,578.9695 579.5299,571.7171 578.3256,564.9788 576.3687,558.7926 573.9037,553.7443 570.312,548.6192 566.3008,544.5551 561.6351,541.2896 556.1723,538.7257 550.4052,537.2137 543.7963,536.8527 537.9314,537.6056 532.3791,539.4937 527.1724,542.4756 522.1976,546.6344 518.2085,551.4507 513.84,558.6905 510.4395,566.2605 507.0225,575.9321 500.2219,597.8859 492.4529,620.5514 484.1421,641.5558 470.2041,673.3296 450.5622,714.2504 400.1264,812.3272 388.7069,835.3632 382.6989,848.4399 378.1818,859.9534 375.9617,868.1356 375.7702,871.0938 376.1698,872.9562 377.1196,874.1509 378.6481,874.6343 381.6356,874.0966 385.473,872.2829 390.6297,868.947 396.7383,864.3173 412.1694,850.9431 431.1625,832.6466 453.4614,809.673 476.2882,784.8324 498.4663,759.3945 519.6575,733.7628 536.2932,712.5459 551.4812,692.0564 564.7176,672.9598 576.4524,654.6392 586.8988,636.7685 595.8921,619.5558 603.1377,603.519 608.6584,588.6298 612.0793,576.8735 614.3802,566.0282 615.6661,555.7616 615.9174,546.1639 615.0864,536.6834 613.2519,528.0675 610.4415,520.172 606.5608,512.8137 601.3933,505.7615 595.4763,499.6456 588.751,494.3712 580.7554,489.6358 572.2065,485.8801 561.9375,482.8438 555.375,481.625 540.375,480.125 539.3025,479.5576 538.7341,477.9961 539.1337,476.3009 540.2426,473.7505 552.5596,449.5545 564.4671,423.6227 573.601,401.3801 581.4754,380.6035 590.2479,354.5302 596.9188,331.9351 602.7936,308.2846 607.1787,286.1584 610.2052,265.1943 611.7182,246.6316 611.9198,238.1153 611.7369,229.5748 611.1935,221.3953 610.3162,213.8953 609.128,207.0953 607.5616,200.6508 605.708,194.9424 603.5697,189.868 600.841,184.7811 597.9676,180.5195 594.5099,176.47 590.9641,173.2493 586.7871,170.4043 582.2411,168.2497 577.5554,166.875 572.328,166.156 566.8149,166.1719 561.0508,166.9254 555.07,168.419 549.297,170.494 543.3923,173.2241 537.2584,176.6908 531.2194,180.7245 524.9269,185.574 518.9834,190.7635 512.8548,196.7502 507.1284,202.9551 501.291,209.932 495.9994,216.8918 490.8776,224.2975 481.5059,239.898 473.2166,256.6415 466.3171,273.9061 460.8384,291.6845 456.7412,309.9559 454.0558,328.4005 453.3062,337.6051 452.9677,346.5533 453.1261,359.2878 454.0409,372.4397 455.5451,384.3691 457.8549,396.6644 461.0108,409.3823 464.807,421.83 469.0918,433.2247 474.557,445.641 480.4531,457.1406 489.1259,471.9722 498.1661,485.0006 505.9896,494.8841 513.1331,501.8866 518.0,505.0 520.3484,505.8003 522.7362,506.0299 524.8535,505.7715 526.9827,504.9783 530.9583,502.3484 535.3309,497.9652 540.107,491.793 544.9071,484.3925 551.0108,473.7288 558.4618,459.4501 571.7819,431.1272 584.7074,400.2486 596.0989,369.7907 607.2502,335.9565 611.8071,320.4019 615.8414,305.2285 621.6483,279.8669 625.7489,256.451 628.4273,232.7126 629.1026,221.8229 629.3335,211.8862 629.1461,202.5625 628.5454,193.8871 627.5584,185.9683 626.0844,178.0544 624.1513,170.5405 621.8847,163.8523 619.1831,157.6415 616.2221,152.266 612.8539,147.4164 609.3032,143.3758 605.1469,139.6987 600.7461,136.7317 595.9923,134.3642 590.9051,132.6155 585.504,131.5053 580.1969,131.0624 574.2443,131.2419 568.4564,132.0367 562.5028,133.4399 556.3376,135.4554 550.0453,138.0523 543.3356,141.3861 536.5553,145.3222 530.065,149.6127 523.2499,154.6679 516.7909,159.9883 510.3942,165.785 504.0239,172.1112 497.8006,178.8602 491.7653,185.9765 480.3351,201.173 469.6885,217.7572 460.1939,235.207 452.0855,253.0565 445.1497,271.7413 440.4395,287.4879 436.6897,303.385 433.9737,319.1 432.2539,334.8448 431.509,351.0443 431.7843,367.5168 433.0425,383.4208 435.3178,398.7499 438.4229,413.2514 442.6049,428.4842 447.0382,441.5437 452.7363,455.6594 457.7672,466.8661 462.2887,476.0133 472.0367,494.0042 488.8438,523.6929 494.4616,535.3174 496.9011,541.1212 500.136,551.4571 501.8619,560.9917 502.2582,571.6653 501.5432,581.5664 499.0391,595.6554 496.6045,605.3069 493.9078,614.4264 487.963,631.0786 478.7642,653.7785 466.5679,681.0675 451.9329,711.3863 432.6891,749.3972 399.625,813.234 385.443,842.3063 379.8547,855.1888 376.513,864.9165 375.7189,868.5013 375.482,871.4353 375.868,873.3939 376.6923,874.4758 377.7402,874.9385 378.822,875.0116 382.0752,874.173 386.5097,871.8809 391.8895,868.2632 398.4754,863.1322 405.9458,856.7593 423.8964,840.027 446.2564,817.4501 470.0814,791.9381 493.3558,765.6425 514.8824,739.9396 532.1778,718.1175 548.2957,696.6135 562.7007,676.1181 575.1,657.062 586.0273,638.6543 595.4551,620.9034 603.083,604.3359 608.8455,589.1014 612.3269,577.199 614.6699,566.141 615.9686,555.6294 616.203,545.7615 615.3663,536.6002 613.3546,527.3874 610.4597,519.3638 606.4797,511.8528 601.3673,504.9447 595.1837,498.6558 588.458,493.486 580.4901,488.91 572.9994,485.6027 565.2449,483.148 556.0967,481.2004 541.4815,479.6536 539.6232,479.0663 538.9687,477.8724 539.1818,476.1413 540.4326,473.0703 553.847,446.4414 564.6826,422.5175 572.8653,402.5637 582.9596,375.666 591.195,350.6345 597.507,328.8085 603.233,305.028 607.4219,283.246 610.1534,262.8788 611.4233,244.0324 611.2215,227.3458 610.5647,219.4893 609.5651,212.1344 608.271,205.5036 606.6123,199.237 604.5647,193.3911 602.2605,188.3242 599.5256,183.6601 596.4209,179.5081 592.9717,175.8763 589.185,172.8023 584.7377,170.1585 579.9158,168.2515 574.7282,167.1282 569.1296,166.826 563.1781,167.3366 556.982,168.6561 550.5849,170.7815 544.0304,173.7096 537.7349,177.2092 531.1102,181.6087 524.7489,186.514 518.1968,192.2667 511.774,198.6226 505.5226,205.5365 499.4848,212.9632 493.938,220.5199 488.8428,228.1977 484.1576,236.0147 479.6271,244.3841 475.2912,253.2866 471.3357,262.342 467.6275,271.854 464.3631,281.3134 461.5353,290.8256 459.1725,300.2578 457.1804,309.9506 455.6334,319.4918 454.4666,329.2041 453.7246,338.6277 453.4105,347.899 453.5122,357.243 454.0231,366.6174 455.1766,378.0823 456.8769,389.4474 459.1365,400.345 461.9931,411.1221 465.6682,422.5901 469.6923,433.2707 474.5946,444.4798 480.0229,455.3742 486.7872,466.9888 495.6061,480.5023 501.4848,488.4608 508.9438,496.9741 514.6928,501.9283 519.5,504.375 521.4171,504.8112 523.3958,504.8032 525.6337,504.3061 527.6152,503.4218 530.3292,501.6523 532.6896,499.6271 538.3068,493.134 544.8531,483.3853 552.6573,469.8436 560.5332,454.3655 569.5529,434.9941 578.1003,415.2814 585.8553,395.9289 593.4681,375.6973 600.0707,356.8067 606.702,336.1119 612.2287,317.1229 616.7467,299.5418 620.7103,281.6241 623.873,264.7436 626.2329,248.8527 627.68,235.2573 628.4859,222.1851 628.6398,209.8164 628.1574,198.6075 627.0534,188.2349 625.2621,178.4161 622.8591,169.6629 619.7332,161.5101 615.9086,154.1616 611.6095,148.0089 606.6631,142.7754 601.3585,138.7393 595.5576,135.7349 588.9628,133.6568 581.8478,132.6444 574.6406,132.6875 565.5077,134.0587 555.9273,136.8951 546.1497,141.1402 536.0887,146.8355 525.9929,153.8329 515.6809,162.2933 505.8556,171.6334 496.3316,181.98 487.3758,193.0313 478.821,204.9827 470.691,217.8361 463.2614,231.1585 456.5804,244.8146 450.5695,258.9996 445.6014,272.847 441.298,287.3379 437.8155,302.001 435.101,317.0811 433.2743,331.8216 432.3775,345.9828 432.3432,360.6756 433.1775,375.3449 434.9864,391.1887 437.4113,404.9531 440.5436,418.0602 444.4388,431.1382 449.1192,444.3932 454.4117,457.1293 460.0236,469.1168 465.8778,480.6374 484.5083,513.6671 491.5879,526.7858 498.3046,541.8692 501.2748,551.8456 502.8445,561.2436 503.2654,571.5298 502.6203,580.7357 500.1434,594.5416 497.4208,605.1492 494.2083,615.7022 488.4366,631.7815 480.0692,652.3839 466.4723,682.4687 452.4373,711.1249 435.9511,743.656 396.7284,818.82 382.395,847.8232 376.529,861.7204 374.6879,867.096 373.5118,871.6078 373.1132,874.8167 373.3849,877.2084 374.3785,878.7117 375.8441,879.2392 378.7388,878.7684 382.6502,876.9308 387.9316,873.4922 394.2117,868.6975 410.1859,854.7999 430.1501,835.6179 452.4594,812.668 476.0424,787.0505 498.7178,761.1494 519.93,735.5941 537.2957,713.5191 552.9557,692.4614 566.5966,672.8821 579.0252,653.6292 589.8583,635.2562 599.0055,617.903 606.2562,601.9981 611.9975,586.6333 615.4691,574.8261 617.8232,563.9273 619.1602,553.5977 619.453,543.921 618.6589,534.3556 616.7726,525.2068 613.8373,516.8532 609.9224,509.3699 604.6327,502.0595 598.7881,495.8554 592.3904,490.6516 584.3414,485.6732 575.4648,481.418 566.25,478.3333 558.9571,476.5828 543.8765,474.1724 541.416,473.0547 540.6433,471.3262 540.953,469.091 542.375,465.5 555.9308,437.322 566.1625,414.0588 573.0222,396.7317 582.6866,370.2046 589.7039,348.049 595.8419,325.907 600.8145,304.6074 604.5417,284.6898 606.9943,266.0155 608.1419,248.409 607.9453,232.498 606.4235,218.3863 605.1486,211.7965 603.5209,205.5801 601.658,200.1323 599.4535,195.0913 596.8923,190.4949 594.1666,186.6396 590.8664,182.9884 587.4224,180.0452 583.0255,177.2765 578.5916,175.3816 573.834,174.1719 568.7665,173.6807 563.2629,173.9523 557.6936,174.9345 551.9601,176.6075 546.0985,178.9657 540.1447,182.0037 534.1347,185.7158 528.4592,189.8205 522.3967,194.8469 516.5904,200.2746 510.651,206.4774 504.8866,213.1759 499.5753,220.0059 494.4991,227.2091 489.8302,234.5208 481.2045,250.167 473.7361,266.8194 467.5774,284.1827 463.0092,301.4055 459.7653,319.4301 457.8962,338.2708 457.5894,355.5752 458.2504,367.6793 459.5971,379.8062 461.4082,390.8324 463.9704,401.9962 467.3936,413.6288 471.6854,425.8184 476.2038,436.5934 481.8473,448.2844 487.498,458.273 494.6552,469.2875 502.8564,479.991 508.895,486.4725 513.5781,490.2344 517.0,492.25 518.8979,493.0315 521.1804,493.5041 524.0504,493.5931 526.1569,493.1394 528.3189,492.2135 532.8601,489.0238 537.3539,484.4143 542.4899,477.5475 548.0593,468.6729 553.5394,459.0464 559.2143,447.8801 566.8991,431.654 573.3663,417.0678 579.317,402.6853 585.758,386.0347 596.3687,355.7915 601.9435,338.071 606.5034,322.3526 610.2729,307.8713 613.6905,292.8856 618.4189,267.9109 621.1893,246.1084 621.9896,234.7304 622.3328,223.9743 622.2096,213.8411 621.6427,204.7811 620.6414,196.4469 619.2212,188.8668 617.268,181.5262 614.7945,174.5524 611.9973,168.488 608.7397,162.9947 605.0097,158.1356 601.0567,154.1981 596.6643,150.9308 591.4958,148.2056 586.2447,146.3741 580.6487,145.2744 574.7345,144.925 568.5294,145.3447 562.0601,146.552 555.3536,148.5657 548.467,151.3791 541.4291,154.9699 534.3285,159.2891 527.2116,164.303 520.1247,169.9778 513.1142,176.28 506.5228,182.864 499.888,190.1884 493.7629,197.6262 487.6609,205.746 481.8499,214.2201 476.3579,222.9987 471.2126,232.0321 466.6116,240.9252 462.16,250.4646 458.2124,259.9045 454.553,269.7339 451.331,279.5551 448.4396,289.6933 445.915,300.1016 443.8551,310.3729 442.2565,320.4289 441.0911,330.4644 440.3437,340.6253 440.0118,352.7252 440.2702,364.7101 441.1006,376.6574 442.5091,388.0509 444.6389,399.8851 447.468,411.9833 451.1112,424.9147 454.9178,436.138 460.8006,450.6246 468.1713,466.2382 478.6916,485.6005 495.1942,512.9308 501.7758,524.4689 506.9707,534.717 515.063,554.369 516.606,556.9964 518.0,558.25 519.5648,558.787 521.0,558.5684 523.25,557.25 525.285,555.3987 531.2159,548.1179 538.2438,537.0618 546.2096,523.1687 558.3553,500.1695 568.3542,479.8188 577.872,459.5854 590.7304,430.8066 599.1269,411.0553 607.9253,389.1837 615.9377,368.2424 623.1271,348.3184 630.5134,326.4499 636.9598,306.0618 642.5132,286.9685 647.189,269.1628 650.9481,253.0277 654.3282,236.5144 657.0501,220.9443 659.1085,206.4816 660.5673,192.8555 661.4572,179.7704 661.759,167.296 661.4685,155.3645 660.5712,143.8029 659.0913,133.083 657.059,123.2497 654.3959,113.9845 651.2081,105.6921 647.3743,98.0822 643.0277,91.4504 638.0276,85.5703 632.127,80.2812 625.573,75.9297 618.3906,72.5625 610.9714,70.3097 603.0239,69.0373 594.5698,68.7861 585.6309,69.5968 576.5967,71.4097 566.8973,74.3299 556.9253,78.2746 546.7492,83.2079 536.4376,89.0945 526.0593,95.8987 515.6829,103.5848 505.3771,112.1173 495.4305,121.2481 485.8527,130.9269 476.3266,141.4676 467.1537,152.5465 458.3724,164.0925 450.0214,176.0347 441.9385,188.6289 434.5775,201.1566 427.5919,214.2023 421.3903,227.0109 415.7888,239.8869 410.6676,253.0953 406.0607,266.5885 402.0004,280.3116 398.5976,293.8483 395.7651,307.4948 393.5035,321.3558 391.7685,336.4729 390.8204,351.4329 390.6443,366.5551 391.2627,381.7221 392.6715,396.8064 394.8906,411.9669 397.7904,426.2686 401.5531,440.7033 405.6676,453.7433 410.6689,467.4317 415.8705,480.0848 421.8107,492.87 427.7418,504.4374 435.6226,518.7947 460.1987,560.657 467.251,574.635 470.6759,582.889 473.1432,590.4058 475.4054,600.1552 476.4893,608.0047 476.7182,617.767 476.1198,626.931 474.1855,639.2511 471.48,650.9953 467.3647,665.2807 462.0009,681.0876 453.1651,705.0528 438.1648,744.0672 432.2309,761.2249 430.0547,769.1113 428.9909,775.6677 429.1456,780.3646 429.6948,781.7568 430.5843,782.6959 432.547,783.2453 435.25,782.75 438.0002,781.5099 441.6103,779.2446 450.951,771.6878 462.2985,760.6879 474.97,746.9007 487.9684,731.3682 500.7261,714.8519 512.2691,698.5344 521.3007,684.5171 529.1469,671.0953 535.8912,658.0858 541.337,645.8967 545.5516,634.3562 548.6495,622.8726 550.2269,613.2657 550.4097,604.8394 549.8242,599.828 548.767,595.4861 547.1601,591.5377 545.0022,588.1018 542.6225,585.5525 539.6394,583.5506 536.1081,582.2612 532.4267,581.7906 528.629,582.1235 525.0012,583.1111 521.1397,584.9105 517.3741,587.4026 513.6268,590.5806 509.7632,594.5931 506.2399,598.9099 502.375,604.375 498.0869,611.3084 493.1787,620.2521 482.0213,643.0913 446.4947,722.6265 434.4062,750.8781 427.0754,769.7138 422.6392,783.6399 421.7106,788.4665 421.5185,792.0567 421.9565,794.5782 423.2184,796.2857 425.3522,796.7762 427.9084,796.1838 431.2548,794.563 435.3622,791.8642 440.5431,787.8362 446.5023,782.6595 459.3802,770.1294 473.8855,754.3432 489.3302,736.0462 503.5807,717.7741 516.4497,699.799 526.6571,684.1283 535.6473,668.9645 543.3032,654.5308 549.3699,641.2568 553.9696,629.0068 557.1744,617.6537 559.1089,606.3885 559.5136,601.3181 559.5371,596.3066 559.0,590.875 557.7442,585.3176 556.1368,580.9431 553.9281,577.0225 550.7287,573.3826 547.3538,570.7803 543.7628,569.0642 539.6458,568.0853 535.4096,567.8675 531.6264,568.4707 526.9688,570.0938 522.4728,572.5252 518.8263,575.2065 514.9098,578.9322 510.8688,583.578 507.0938,588.7241 503.3081,594.8277 499.0753,602.655 489.5455,622.6078 456.3054,698.2662 433.5833,748.0914 421.7871,775.2942 415.2719,791.7495 411.5942,803.3008 410.7725,807.6617 410.6229,811.1925 411.0965,813.5768 412.2665,815.157 414.3557,815.6486 417.3491,814.9389 421.2377,813.0002 426.3268,809.5736 432.1693,804.9399 438.954,798.9831 454.2127,784.0752 471.8061,765.0808 489.5097,744.4271 506.2027,723.3755 521.698,702.218 533.4033,684.8638 543.6702,668.165 552.6283,651.9055 559.8095,636.9498 565.3922,622.9034 569.5636,609.2434 571.9056,597.4336 572.4612,592.1013 572.6493,586.4896 572.3143,579.8339 571.3056,573.5833 569.5883,567.8871 567.2179,562.9232 564.0977,558.4054 560.5952,554.8265 555.989,551.5814 551.442,549.442 546.5,548.25 540.6877,548.0651 535.9344,548.8229 530.4603,550.7485 526.0941,553.0922 521.5138,556.6396 517.761,560.5165 513.8137,565.7211 509.0398,573.6885 504.0248,584.4829 481.8906,640.831 473.7264,660.1437 463.1366,683.8484 448.1796,715.9377 408.8876,796.7939 399.9852,816.6182 394.2865,831.1835 392.7743,836.0756 391.8574,840.2637 391.5868,843.6631 392.0133,846.189 393.1399,847.7089 394.9551,848.1758 397.8434,847.542 401.6935,845.6732 406.5336,842.5352 412.2546,838.2036 426.0994,826.1585 442.5378,810.1847 461.4077,790.3625 481.2834,768.2048 500.2475,745.8595 517.9191,723.7626 531.9656,705.0608 544.8576,686.7657 556.3605,669.1996 566.1482,652.8692 574.9736,636.4909 582.2536,621.0917 587.9528,606.8121 592.1381,593.4264 594.5118,582.7544 595.8079,573.0218 596.1159,563.5559 595.3698,554.8498 593.534,546.5058 590.6978,538.9946 586.9479,532.4391 582.1163,526.5409 579.0039,523.5811 575.4921,520.8371 571.8925,518.5654 567.6547,516.4489 563.5126,514.8191 559.1785,513.5742 554.9429,512.8182 550.3894,512.429 546.2237,512.4496 542.2287,512.8862 538.206,513.7545 534.8119,514.9804 530.8813,517.0569 528.1274,519.1585 526.0,521.75 525.125,524.125 525.1528,524.6296 525.875,525.0 528.125,523.875 531.2409,520.6082 534.1498,516.9534 542.5926,503.8883 551.2626,488.1503 561.2786,468.4562 572.0239,445.3411 581.7652,423.2251 591.1224,400.2961 599.4739,378.3925 607.1824,356.7411 613.9761,336.1406 619.8883,316.5053 625.2978,296.4852 629.9205,277.1048 633.5696,259.1163 636.3489,242.0741 638.2257,226.5107 639.3867,211.897 639.8328,198.3156 639.5748,185.8701 638.6513,174.6174 637.0054,163.968 634.6329,154.0803 631.5046,144.928 627.7758,136.952 623.311,129.8552 618.3325,123.9814 612.6438,119.0905 606.2828,115.2821 599.297,112.5749 591.7283,110.9873 583.6272,110.5446 578.2176,110.8705 573.0309,111.6029 567.2813,112.8608 561.8012,114.4699 550.3242,119.0572 538.4759,125.4049 526.528,133.3516 514.3297,143.0318 502.3509,154.1271 491.0351,166.1835 480.1367,179.4466 469.9393,193.5571 460.5222,208.3466 451.789,223.9841 444.1922,239.6328 437.4983,255.7369 431.7798,272.131 426.9654,289.0723 423.4826,304.6354 420.8785,320.1972 419.1767,335.497 418.3613,350.8717 418.4501,366.2901 419.4364,381.6186 421.375,397.375 424.0219,411.7613 427.2832,425.0817 431.3066,438.4375 436.4323,452.957 441.8788,466.2144 447.415,478.1092 454.6721,492.4276 477.773,534.2817 482.2545,543.6533 485.1948,550.5881 488.3626,560.3514 490.2004,568.4042 491.3882,578.5633 491.393,587.252 490.3135,598.3229 487.4524,612.8428 482.4999,630.2954 476.0825,648.8216 468.0712,669.1934 456.3154,696.4361 416.51,782.2176 407.0539,804.0291 402.4934,815.9972 400.0528,824.6008 399.5123,828.0627 399.4582,830.6689 399.8689,832.6839 400.7611,833.9733 402.7451,834.664 405.2584,834.2607 409.06,832.5936 413.365,829.9365 418.7331,825.963 424.707,821.016 438.9044,807.9088 456.03,790.4722 474.7508,769.9769 493.2326,748.4196 510.0093,727.5463 524.116,708.8393 536.8885,690.7545 548.1866,673.4966 558.1683,656.8417 566.3736,641.6245 573.1204,627.3128 578.6443,613.2353 582.7302,600.0041 585.1064,589.0763 586.25,579.0 586.1709,568.9394 584.7769,559.5278 582.2452,551.6287 578.4924,544.5837 576.1826,541.4138 573.456,538.3744 570.5868,535.7843 567.5124,533.5355 563.6965,531.308 559.5581,529.5188 555.4636,528.325 551.0512,527.575 546.8385,527.3395 542.5,527.625 538.0582,528.4397 534.1374,529.7294 530.3499,531.7017 527.1838,533.854 524.3825,536.3446 521.8808,539.2249 519.7176,542.4375 517.7296,546.3333 516.3167,549.9286 514.7188,555.4277 513.677,561.048 512.8464,567.9733 512.321,581.66 512.7778,594.2211 513.6328,598.4453 514.4531,599.9219 515.2269,600.3565 516.378,600.008 517.9902,598.7952 521.4844,594.5312 526.374,587.1157 532.7986,576.312 551.5916,541.8846 570.9759,503.6163 589.6366,464.8935 606.5733,427.5245 621.717,391.8787 636.2626,355.0636 647.2488,325.0338 656.78,296.5597 665.6439,267.172 673.0355,239.4884 678.8406,214.0505 683.3328,189.7981 686.5013,166.7082 688.3049,145.3375 688.7871,130.7122 688.5792,117.2205 687.6986,104.529 686.0916,92.3374 683.7831,81.0679 680.8682,70.9804 677.1723,61.4855 672.9001,53.0852 667.6986,45.1469 661.9869,38.3694 655.5745,32.4806 648.4641,27.5422 640.9976,23.7585 632.8951,20.9586 624.1591,19.1968 615.198,18.5295 607.5352,18.7315 599.2409,19.641 590.9848,21.1797 582.1401,23.4625 573.0659,26.4324 564.1567,29.928 555.0983,34.043 545.9213,38.7696 536.6566,44.1 527.7086,49.7781 518.3612,56.2695 509.3064,63.1131 500.1469,70.5976 491.0983,78.5507 482.1849,86.9392 473.4307,95.7301 464.8598,104.89 456.2466,114.6785 447.8801,124.7872 439.7866,135.1799 431.9926,145.8204 424.5245,156.6722 417.4086,167.6991 410.8318,178.5899 404.5657,189.7003 398.5203,201.2119 392.8997,212.7435 387.5432,224.6316 382.6281,236.4899 378.0201,248.6493 373.8692,260.7213 370.1697,272.6776 364.884,292.726 360.808,312.5449 357.9624,332.0301 356.3136,351.2011 355.8185,370.6448 356.5,389.8102 358.3374,408.8908 361.385,428.2362 366.0135,448.5801 368.9275,458.7883 372.191,468.8326 380.0266,489.2465 389.4491,509.7594 399.031,527.5169 410.7459,546.6479 420.9892,562.1166 445.7736,597.7568 451.8354,607.1305 456.3862,615.0838 459.8104,621.7846 462.1382,627.2409 464.712,634.6384 466.5877,641.7891 467.5302,648.4873 467.9646,656.3955 467.6774,664.6758 466.7014,673.6992 464.5125,685.7715 458.3968,712.3123 456.372,722.486 455.9797,726.8012 456.0988,730.7533 456.7188,732.6875 457.8171,733.8564 458.891,734.255 460.4376,734.1791 464.042,732.6514 468.4208,729.4751 473.6117,724.6539 479.7469,717.9837 485.6148,710.8578 492.4178,701.6755 498.2209,693.0183 503.4108,684.3789 507.7421,676.3907 511.4627,668.5626 514.3112,661.5177 516.4857,654.6671 517.9661,648.0818 518.461,642.8935 518.1494,638.4467 516.7106,634.6669 515.5579,633.1124 514.4389,632.2722 512.7781,631.7453 510.9222,631.7277 508.875,632.25 507.0019,633.114 502.4806,636.3518 497.9444,640.8515 493.1506,646.823 488.017,654.5707 482.0,665.0 474.3698,679.6697 466.5587,696.9447 460.9635,710.9657 457.3522,721.4051 455.3367,729.7547 455.0,735.353 455.4583,737.136 456.3382,738.3052 457.4398,738.6481 458.897,738.44 463.0833,736.355 468.0556,732.4007 473.9509,726.6002 480.8954,718.8084 487.5352,710.5059 494.3555,701.1113 500.5701,691.6326 505.7361,682.9167 509.991,674.9042 513.7031,666.9219 516.7918,659.0855 518.9969,651.9879 520.34,645.7582 520.8641,639.5518 520.6021,635.1156 519.9509,632.7642 519.0398,630.8876 517.877,629.4414 516.4016,628.4472 514.6214,627.8641 512.6771,627.8413 508.4438,629.3054 503.6531,632.566 499.1295,637.092 494.1523,643.2249 488.3485,651.8611 481.9583,662.9618 474.8496,676.8429 466.1725,695.6915 460.4175,709.6004 455.3094,724.2333 452.7746,733.8861 452.4187,737.0825 452.5707,739.6122 453.1509,741.5791 454.0717,742.5128 455.4341,742.8342 457.1507,742.5434 461.0828,740.4731 466.6146,736.0958 473.4928,729.3912 479.8162,722.2974 488.9984,710.7946 494.8029,702.7805 501.552,692.4998 507.0182,683.3894 511.6573,674.7208 515.8112,665.9398 519.0137,657.9402 521.391,650.5713 522.8948,644.0135 523.6222,637.4214 523.3616,632.2181 521.9151,627.5479 520.724,625.7909 519.3488,624.6589 517.6742,623.8087 515.844,623.453 513.6174,623.6657 511.2333,624.4324 506.2883,627.49 501.3477,631.9792 495.4823,638.9368 490.0299,646.8885 482.8854,659.1363 474.3704,675.8046 466.8315,692.0878 458.0862,712.9365 453.6418,725.3311 450.317,737.2641 449.7988,741.0109 449.7867,744.0083 450.32,746.05 451.4367,747.2583 452.75,747.625 454.2693,747.4377 456.1136,746.7094 458.6481,745.2039 465.0926,740.0139 472.3312,732.9583 480.3911,723.9394 487.8217,714.7845 495.3334,704.4379 502.5314,693.5984 508.8682,682.9767 514.4711,672.6636 518.375,664.5 521.7956,656.0291 524.408,647.9028 526.0443,640.2874 526.7201,633.8338 526.3384,628.3823 525.6259,625.251 524.6892,623.0295 523.4309,621.3269 521.6094,619.7031 519.8951,618.8686 517.6858,618.5625 515.5156,618.8125 513.2205,619.5625 507.6782,622.7946 502.4884,627.5147 496.75,634.375 491.1599,642.6848 484.3587,654.1361 474.7489,672.7295 463.9667,696.1353 456.062,715.1558 450.048,731.8387 447.3848,741.85 446.6886,745.7622 446.5938,748.7656 447.0304,751.0477 448.0932,752.6152 449.489,753.048 451.38,752.7543 453.75,751.75 456.2319,750.2541 462.9447,744.9253 470.3959,737.7181 478.9373,728.149 488.4472,716.3628 497.0514,704.6504 504.8631,692.9343 511.2769,682.333 516.7589,672.2507 521.2926,662.7018 525.0324,653.4022 527.8514,644.5467 529.5863,636.6753 530.1903,629.8647 529.8516,623.7122 529.1807,620.7412 528.14,618.256 526.565,615.9461 524.9225,614.5171 522.5792,613.4458 520.394,613.0492 518.07,613.1989 515.2702,614.015 512.574,615.3218 509.8424,617.1177 504.1243,622.2674 498.1385,629.2934 491.7044,638.647 483.2868,653.3828 471.6514,676.694 459.3766,704.3166 451.8476,722.6398 446.7014,737.3185 443.6941,748.5414 443.0486,752.801 443.0144,755.4199 443.5156,757.3906 444.7622,758.8756 446.2786,759.3383 448.1794,759.001 450.5591,757.9506 453.7898,755.952 460.7751,750.3266 468.9307,742.3373 478.6286,731.5187 488.7699,719.0275 497.713,706.9676 506.2795,694.2488 513.1367,683.0044 519.38,671.6518 524.4579,661.1874 528.5131,651.3203 531.4668,642.3379 533.3393,634.04 534.2639,626.1164 534.0064,619.5761 533.196,615.7792 532.1102,612.9587 530.6985,610.7329 528.4692,608.5605 526.2501,607.2686 524.125,606.75 521.2134,606.7908 518.193,607.4847 515.3025,608.7078 512.1719,610.6094 505.9478,615.9805 500.2487,622.7014 493.0261,633.2035 488.8742,640.0543 484.0748,648.935 472.9204,671.5632 460.9172,697.872 449.5202,725.0778 443.2694,741.9588 439.8843,753.6528 439.0741,758.1806 438.875,761.875 439.3843,764.5741 440.4216,765.9557 442.0506,766.5142 444.2688,766.2025 446.7822,765.1115 450.1347,763.0273 458.1479,756.5303 467.849,747.0464 477.8366,736.0024 488.3578,723.1075 498.9915,708.9038 508.5238,694.9357 515.8504,683.0962 522.598,670.9567 528.3229,659.307 532.6306,648.9735 535.8746,639.1569 538.0069,630.0369 539.0051,621.5026 538.8031,614.2483 538.125,610.75 536.7963,607.0046 535.2879,604.3275 533.4917,602.2844 531.0073,600.5674 528.5044,599.5762 525.7832,599.2398 522.5278,599.625 519.3205,600.6445 515.8266,602.3994 512.8325,604.4371 509.6028,607.1937 503.5839,613.7692 496.2671,624.0152 491.5849,631.7605 486.7274,640.571 474.9079,664.3141 458.1936,701.4249 446.1136,729.9751 439.3433,747.8615 435.184,761.231 434.2041,766.2338 433.8443,770.3092 434.3703,773.2383 435.5897,774.7383 437.5,775.25 439.5923,774.8537 442.5392,773.4988 446.1044,771.2058 455.4603,763.4425 466.5879,752.4494 478.5443,739.1439 490.2389,724.8503 501.5549,709.6432 512.4638,693.7481 519.9758,681.6905 527.3826,668.4122 533.1716,656.7781 537.5,646.5 541.4354,634.8436 543.795,625.1829 544.808,616.3502 544.5936,608.1174 543.8293,603.9021 542.6,600.261 540.7667,596.729 538.7604,594.2286 536.1759,592.2089 533.0846,590.7751 530.1548,590.2556 526.7863,590.4515 523.1761,591.3235 519.875,592.75 516.4064,594.8689 513.0308,597.5273 509.8602,600.5055 506.6974,604.0575 499.0936,614.5694 493.8168,623.1865 490.0758,629.9364 478.1232,654.4224 462.1369,689.5696 439.9455,741.1296 432.8337,759.7055 428.6161,773.5502 427.7525,778.2404 427.6266,781.6129 428.165,784.1181 429.4153,785.6478 431.2912,786.0849 433.8501,785.5443 437.0804,784.0026 441.0475,781.3918 450.8287,773.2731 462.5455,761.7171 476.255,746.6624 489.9452,730.2391 503.0577,713.084 514.8192,696.2489 524.1833,681.4814 532.2421,667.4107 538.8396,654.3626 544.1574,641.9954 548.1768,630.4423 550.7691,620.0157 552.0526,610.2777 551.9894,601.2762 551.2764,596.6906 549.9964,592.1932 548.2881,588.4119 546.2059,585.365 543.3525,582.5808 540.4726,580.7341 537.0,579.5 533.1883,579.03 529.4277,579.3794 525.7001,580.5135 521.9469,582.277 517.9594,584.8734 514.3031,587.9203 510.5819,591.7309 507.1543,595.9026 503.6731,600.8668 496.5981,612.6513 490.4612,624.4798 485.3554,635.147 445.9744,723.1865 431.8189,755.9553 424.8842,773.6472 420.5492,787.3219 419.713,791.8374 419.5519,795.5028 420.0661,798.2086 421.2296,799.7508 423.3318,800.2185 426.3556,799.4696 430.3139,797.4657 434.4316,794.7066 439.6069,790.6181 445.8169,785.1379 459.5955,771.5399 474.9381,754.7644 490.1088,736.71 505.494,716.8478 519.2346,697.5211 529.8789,681.042 539.0906,665.3892 546.3689,651.4294 552.0557,638.5413 556.875,625.2188 560.0405,613.2743 561.6121,602.3317 561.8672,596.9699 561.7283,592.0723 561.0442,586.6816 559.7365,581.6706 557.84,577.0999 555.5237,573.2988 552.5692,569.9607 549.0737,567.2617 545.3788,565.449 541.4759,564.5064 536.9064,564.2583 532.8304,564.7608 528.1849,566.2404 524.1174,568.3281 520.0243,571.2953 516.1736,574.86 512.0711,579.504 508.347,584.63 502.6212,593.9906 495.8532,607.549 461.0449,687.2832 429.3537,756.737 418.342,781.7526 412.0131,797.8229 408.4933,809.2415 407.7293,813.3591 407.5962,816.6946 408.0722,818.9394 409.1756,820.3474 410.367,820.803 411.5687,820.8307 414.6543,819.9688 419.25,817.5 424.5022,813.828 430.8328,808.7335 438.122,802.2718 454.3612,786.2625 472.9761,766.11 491.1882,744.7955 509.5758,721.5573 525.8188,699.3094 537.6398,681.5896 548.4181,663.8258 557.2484,647.5498 564.3734,632.3437 569.8828,617.8983 573.7714,604.2315 575.8518,592.1337 576.2954,586.0743 576.3282,580.5627 575.8062,574.0312 574.6065,567.9304 572.7448,562.5063 570.0709,557.2726 566.9584,552.9507 563.2636,549.2897 558.6395,546.1073 553.7154,543.8754 548.6482,542.6752 542.7246,542.2741 538.2387,542.7934 532.9501,544.4171 528.1974,546.801 523.2737,550.3265 519.2262,554.3755 515.342,559.4857 511.8512,565.3512 507.3329,575.0191 503.571,584.6279 493.1454,614.0028 486.1848,632.43 478.5312,650.9219 468.6105,673.4965 450.115,713.0032 404.163,805.434 396.6867,821.0233 391.1637,833.3715 386.6968,845.0448 385.2987,849.8618 384.5723,853.6096 384.4362,856.6201 384.9294,858.7004 386.1213,859.8773 387.7622,860.17 390.7195,859.4924 394.6622,857.5789 399.625,854.375 404.6934,850.5643 418.5655,838.6113 435.4439,822.4063 454.9477,802.2905 475.4424,779.9037 495.1859,757.1508 514.0649,734.1576 529.7459,714.0031 543.88,694.8 556.5008,676.5184 567.5713,659.1858 577.4427,642.2083 585.7963,626.144 592.7349,610.7991 598.0304,596.6617 601.4175,585.0315 603.6779,574.1518 604.8762,563.8611 605.0004,554.2936 603.9895,545.0869 601.9386,536.6707 598.9083,529.0417 594.8082,522.0335 589.1807,515.2483 582.6026,509.5729 578.7959,507.0569 574.649,504.7808 566.0721,501.1836 557.5791,499.1346 549.5017,498.4788 540.4557,499.1918 536.0933,500.1563 531.9444,501.4676 536.3427,495.3501 540.7473,488.5056 551.97,468.5045 563.6044,444.4717 575.1636,417.9791 585.9209,390.9244 595.8956,363.1356 604.5471,336.1688 611.6549,310.6571 616.8809,288.2832 620.8981,266.5372 623.635,245.7565 625.0001,226.7984 625.0219,209.6473 623.7351,194.4898 622.5872,187.5007 621.161,181.1826 619.2576,174.7182 617.125,169.0223 614.4719,163.381 611.4216,158.235 607.9668,153.6324 604.3543,149.8536 600.3742,146.634 596.0009,143.9878 591.2766,141.9312 586.2339,140.4845 580.8952,139.6627 575.2832,139.4809 569.4203,139.9542 563.7418,141.0001 557.8828,142.6419 551.5261,145.0271 545.115,148.016 538.6414,151.599 532.1362,155.7549 525.6306,160.4625 519.1558,165.7006 512.7427,171.448 506.4225,177.6835 500.3153,184.2855 494.342,191.3358 488.5883,198.7274 477.6019,214.7124 467.5609,231.9968 458.9073,249.8082 451.6852,268.0046 446.6728,283.6353 442.6471,299.4617 439.6189,315.452 437.6621,331.2578 436.7344,347.1875 436.8415,363.0877 438.0029,379.2927 440.1334,394.6524 443.1879,409.5051 447.3057,424.7324 451.8574,438.2821 457.5113,452.2514 463.815,465.9842 470.422,478.8064 477.5401,491.6822 492.1266,516.3572 497.862,527.0934 500.6039,532.7339 504.416,542.2449 507.0577,551.392 508.197,557.886 508.9499,564.9311 509.1591,571.6776 508.9758,578.5794 507.4848,590.8608 505.9038,598.9496 503.8604,606.7897 501.47,614.3966 497.42,625.609 488.9012,645.9745 478.2344,668.7812 463.011,698.8124 442.2985,737.9876 381.1363,847.6393 365.9242,875.9847 358.7616,890.6789 354.3386,901.5445 353.186,905.481 352.6755,908.656 352.8244,910.8179 353.6729,912.2861 354.8047,912.7654 356.2126,912.7231 360.1754,911.2494 366.0905,907.6066 373.4181,902.0902 382.5036,894.4787 393.1183,884.9581 418.5507,860.5246 447.8852,830.4814 478.702,797.2578 508.4923,763.6072 535.3584,731.6567 555.2988,706.5927 573.3815,682.4502 589.7422,659.0446 603.9812,636.9544 615.8223,616.6805 625.5713,597.7079 633.4101,579.6857 636.6798,570.8471 639.4042,562.4069 642.544,550.3251 644.5651,538.8541 645.4293,528.3521 645.2321,517.7565 643.9365,507.7888 641.572,498.5148 638.202,489.9899 633.6241,481.7598 628.7142,474.8707 622.9202,468.3058 616.5628,462.4463 609.0442,456.7711 600.6788,451.454 591.8071,446.7629 580.4636,441.6741 565.0375,435.506 558.6729,432.5648 556.2136,430.9534 554.0945,428.9983 552.6429,427.0747 551.8594,424.9531 551.5147,422.1152 551.6306,419.3159 553.6255,410.4432 569.1185,363.6172 572.4621,351.892 576.3634,336.5155 579.3861,322.8546 581.7688,310.1131 583.3018,299.4355 584.2718,289.0729 584.812,277.1315 584.5696,266.7413 583.3395,255.6502 581.4287,246.5419 578.9304,239.5344 575.1972,232.9744 570.995,228.1267 566.3468,224.8577 563.0957,223.5299 559.3038,222.6821 555.3125,222.4844 551.5216,222.8848 547.586,223.8524 543.5344,225.3906 539.2392,227.5483 534.9089,230.2508 530.5804,233.493 526.5952,236.9821 518.6217,245.5634 510.9362,256.0514 504.0406,267.8438 498.3388,279.9882 493.5943,292.7784 490.0346,305.5612 487.5007,318.9961 485.9981,333.1615 485.6326,346.3873 486.5043,360.0293 488.5431,373.9602 490.8792,383.5819 494.2271,394.2038 497.4316,401.8206 501.6557,409.9111 505.7039,415.9997 510.6924,421.8969 514.9807,425.3899 519.8914,427.9284 524.1022,428.7847 528.457,428.4004 533.0172,426.5731 537.1992,423.6233 541.9757,418.8932 546.5339,413.0866 551.0827,406.0066 555.8122,397.3252 561.2136,385.9164 568.2172,368.6918 573.0821,354.6943 577.8194,339.0972 581.7278,323.7086 585.0822,307.6867 587.2007,294.3792 588.6536,280.5055 589.1976,268.3116 588.8657,257.4183 587.6746,246.9832 585.6367,237.7918 583.0,230.625 579.1386,223.8108 574.6958,218.6857 569.7801,215.1641 566.2494,213.6344 562.1391,212.6552 558.1397,212.3836 553.9503,212.7196 549.6018,213.6721 545.125,215.25 540.3045,217.5731 535.4387,220.5285 530.5638,224.0955 526.0176,227.9766 521.2283,232.6695 516.9074,237.4806 508.6681,248.4298 500.8722,261.3477 494.5656,274.256 489.4059,287.7339 485.2315,302.2003 482.2084,317.2216 480.4934,331.9566 479.9739,347.0349 480.7343,360.9996 482.7913,375.9319 484.4817,383.9406 486.6944,392.0278 489.6909,400.9677 492.6197,408.1668 496.0448,415.1796 499.866,421.7987 503.6694,427.2262 507.8998,432.2328 512.0545,436.0697 516.1101,438.8313 519.4376,440.2186 523.5273,440.9557 527.1544,440.7484 530.8164,439.526 534.3468,437.5678 538.156,434.4593 541.76,430.6437 545.4818,425.8593 549.3356,420.1032 553.3897,413.2361 560.9737,398.1617 569.0134,379.1093 576.9653,357.1748 582.5156,338.8349 588.1104,316.3514 591.9999,295.4859 594.2199,278.3928 595.1079,263.4741 594.7761,248.8111 593.1654,235.8996 591.9115,230.2888 590.2183,224.6597 588.3222,219.8239 586.0984,215.4168 583.7412,211.7731 581.0791,208.578 577.9964,205.7857 574.6169,203.4952 570.6502,201.6132 566.3958,200.4141 561.8581,199.9385 557.4535,200.1728 552.5143,201.1466 547.3299,202.836 542.0461,205.2126 537.0302,208.0608 531.6435,211.7559 526.5867,215.8323 521.3681,220.6719 516.3646,225.9414 511.524,231.6707 506.8704,237.8235 502.4283,244.3632 498.1008,251.4639 490.9277,265.3058 484.8093,280.0569 479.8865,295.3082 476.3119,310.8689 473.9965,327.1919 473.0292,343.2686 473.4532,359.3946 475.2264,375.5768 476.9105,384.6721 479.1438,393.8156 482.1464,403.8732 485.1906,412.2133 488.7474,420.3093 492.6872,428.0032 496.5747,434.3466 501.7956,441.7881 505.7289,446.3678 510.995,451.3647 514.6247,453.8594 518.8928,455.7619 522.8035,456.5121 526.625,456.25 530.0993,455.1119 533.9375,452.7873 538.1786,449.073 541.9286,444.9511 546.2361,439.0417 550.4624,432.3935 555.7358,422.9068 560.4293,413.6906 569.5092,393.0125 578.6831,368.9719 586.0723,346.3692 593.1661,319.9965 598.2321,296.1452 601.1922,276.4695 602.6621,258.7357 602.7181,241.2034 602.1916,233.4785 601.3149,226.4387 600.112,220.0982 598.5034,214.087 596.3808,208.1453 594.0233,203.0648 591.2952,198.4903 588.4242,194.7442 585.2221,191.5267 581.6481,188.8585 577.2243,186.5309 572.7999,185.04 567.714,184.1916 562.7109,184.1391 557.4548,184.8254 552.0198,186.2605 546.42,188.419 540.4226,191.4334 534.3743,195.181 528.6325,199.3865 522.9126,204.2095 516.9956,209.8874 511.3554,216.0032 505.9323,222.5893 500.7477,229.5996 495.6147,237.317 491.1786,244.7081 486.8757,252.6411 483.005,260.6023 479.4936,268.6964 473.4351,285.4996 470.9199,294.1378 468.7362,303.0324 467.0125,311.6717 465.6418,320.5297 464.027,338.4237 463.8568,356.3561 464.3512,365.0099 465.2354,373.6361 466.8556,384.2897 468.9537,394.5071 471.5953,404.4569 474.9893,414.9139 478.4489,424.0638 482.3238,432.6978 488.1188,443.8842 492.6783,451.4666 498.663,460.0727 503.5134,465.9652 509.0376,471.5254 514.2404,475.3066 518.367,477.36 523.125,478.1375 526.875,477.535 531.2712,475.4327 535.6858,471.869 539.9042,467.1772 544.7909,460.4583 550.1473,451.918 555.0099,443.1688 562.2298,428.7686 566.8787,418.7366 572.5399,405.4753 578.1777,391.4146 583.6466,376.7393 593.2595,348.2466 602.0162,317.1154 605.2635,303.6257 607.9642,290.6318 611.688,267.5664 612.9275,256.5542 613.6952,246.4007 614.0351,236.5746 613.9414,227.2491 613.4313,218.5642 612.4738,210.2023 611.1093,202.6061 609.3717,195.7961 607.0842,189.2273 604.4944,183.5803 601.4781,178.4696 598.038,173.945 594.1769,170.0564 589.8975,166.8538 584.875,164.25 579.4519,162.5371 573.2802,161.6735 567.0938,161.7656 560.6067,162.7495 553.865,164.635 546.9144,167.4319 540.011,171.0118 532.8866,175.4948 525.7686,180.7624 518.7124,186.7753 511.7736,193.4946 505.2854,200.5603 498.7659,208.4963 492.5668,216.8862 486.5088,225.9972 481.2249,234.8126 476.3085,243.8983 471.7829,253.2048 467.5951,262.8825 463.9689,272.4496 460.7018,282.3961 457.9198,292.3087 455.5226,302.5036 453.5363,312.9173 452.0239,323.1986 450.9691,333.626 450.4047,343.7446 450.2874,353.9055 450.634,364.4016 451.4369,374.7113 452.7115,384.7684 454.6036,395.3839 457.145,406.363 460.3555,417.6568 463.9856,428.3465 468.0755,438.7264 472.8749,449.4894 477.4252,458.3952 484.3651,470.7569 489.2539,478.6462 496.7552,489.7946 505.2387,500.9399 511.2441,507.8262 516.0784,512.0517 519.3156,513.7048 521.133,514.1301 523.0697,514.1207 525.375,513.625 527.178,512.7906 529.7587,510.8887 532.58,508.1752 538.7578,500.5631 546.0254,489.1595 553.6414,475.4676 563.7125,455.2348 573.7735,433.3035 582.4523,412.9858 591.7134,389.5872 599.128,369.4938 606.1855,348.6806 612.554,328.4249 617.8974,309.6153 622.6744,290.4506 626.6866,271.9321 629.7435,254.9678 631.957,239.0565 633.3142,224.6488 633.9672,211.0812 633.9191,198.2267 633.1829,186.5813 631.763,175.8395 629.6803,166.1206 626.7841,156.9243 623.2712,148.9 619.0252,141.7341 614.2821,135.7881 608.859,130.8055 602.75,126.875 596.0212,124.0834 588.7179,122.436 580.8956,121.9475 572.6094,122.6325 562.7005,124.8536 552.3453,128.63 542.0342,133.7488 531.2678,140.4419 520.4957,148.4672 509.8412,157.7226 499.4271,168.1064 489.4849,179.3873 480.2451,191.2695 471.402,204.1178 463.2482,217.5061 455.6673,231.6362 449.0759,245.6942 443.1962,260.2466 438.0996,275.1896 433.8429,290.3631 430.5177,305.3015 428.027,320.2654 426.3724,335.3171 425.6247,349.8905 425.7255,364.5527 426.7002,379.5509 428.6281,395.2278 431.2554,409.5172 434.389,422.3246 438.3659,435.5176 443.1721,449.0844 448.4341,461.7779 459.1253,483.9363 480.987,523.223 487.2112,535.5917 490.2517,542.5489 493.9625,553.2097 495.9196,562.153 496.8608,571.933 496.6581,581.978 495.2671,593.7431 491.915,608.5537 487.0617,624.5447 479.7942,644.4445 470.5817,666.947 457.4569,696.2387 442.509,727.7938 408.8672,796.1855 397.1244,821.6365 391.7444,834.9761 388.876,844.0613 388.2217,847.7404 388.1579,850.3326 388.6007,852.2859 389.5801,853.5489 390.625,854.0 391.7097,854.0638 394.8241,853.2282 399.3281,850.8594 404.6527,847.2352 411.0379,842.2352 418.2237,836.0646 435.4532,819.7714 455.8505,798.7539 477.5907,774.8466 498.8131,750.143 518.1073,726.2875 533.236,706.3479 547.3777,686.4654 559.7701,667.6917 570.2824,650.263 579.1631,633.7364 586.6566,617.7003 592.5959,602.4979 596.8076,588.6524 598.9925,578.4384 600.2192,568.6199 600.4498,559.3538 599.7268,551.0605 598.0065,543.137 595.1183,535.2151 591.5086,528.5159 587.1019,522.698 580.8401,516.7746 573.9374,512.1236 570.4519,510.4032 565.9503,508.6602 557.1913,506.3802 552.3113,505.7917 547.9021,505.6267 543.9903,505.865 540.0185,506.5463 536.4958,507.5263 533.1025,509.0025 529.6944,511.1759 528.7031,512.6094 529.8039,511.9752 533.0156,508.4688 539.4863,499.1719 547.2333,485.8693 556.5529,468.1505 565.7237,449.0178 572.5627,433.8459 582.8769,409.3153 591.0717,388.3519 598.4531,368.25 604.526,350.4051 610.5095,331.0338 615.9064,311.9961 620.2895,294.7728 623.875,278.625 627.0399,261.7464 629.4335,245.8064 630.9322,232.1763 631.8002,219.0968 632.0056,206.7495 631.5891,195.3016 630.5212,184.276 628.8168,174.1767 626.4968,165.0653 623.5915,156.9793 620.1251,149.8957 615.8137,143.3203 610.8143,137.6671 605.4421,133.2241 599.4774,129.7552 592.9338,127.3295 586.207,126.0546 578.8375,125.8029 574.1506,126.167 568.9781,126.9884 558.9606,129.7059 548.1835,134.1297 537.499,139.9356 526.8001,147.1253 516.2307,155.5958 505.5996,165.5103 495.3099,176.5211 485.7298,188.1684 476.5424,200.8281 468.0926,214.0758 460.4172,227.777 453.2195,242.4879 446.9151,257.397 441.4109,272.6975 436.8608,288.0475 433.3534,303.0717 430.7401,318.1329 428.98,333.4858 428.125,348.625 428.1593,363.5744 429.0589,378.085 430.8546,392.8309 433.6091,407.9635 436.7122,420.8175 440.6496,433.8522 445.6402,447.7081 451.4834,461.9003 456.9593,473.5285 464.1953,487.5481 485.3857,525.5743 490.1811,535.2506 492.9023,541.5806 496.3834,552.2026 498.2339,561.0519 498.7536,565.5107 499.0098,571.5639 498.8409,579.9993 497.3282,591.6036 495.4425,600.5158 493.4352,608.0654 490.6414,617.4192 487.0436,628.022 479.7142,647.363 468.2954,674.1313 457.9797,696.5636 437.1361,739.2349 405.9207,801.4875 392.8188,829.3085 387.4007,842.2601 384.3354,851.5832 383.6063,855.0558 383.3726,857.8758 383.7149,860.0547 384.524,861.2743 385.576,861.8167 386.6725,861.9309 389.9977,861.1129 394.5614,858.7445 399.636,855.3182 406.3472,850.0833 413.9635,843.5605 431.873,826.7286 453.3506,804.7384 476.1774,779.829 498.3575,754.1835 518.9321,728.9199 535.4233,707.402 550.1291,686.9713 562.8134,668.0069 573.969,649.7443 583.6665,632.0401 591.7378,615.1425 597.8183,599.8557 602.3995,584.9516 604.7122,574.4306 606.0299,564.774 606.4127,555.686 605.8229,547.0287 604.2267,538.4525 601.7896,530.9493 598.4749,524.2015 593.9756,517.7815 588.3522,511.7543 582.1417,506.8082 574.6981,502.493 566.766,499.2898 558.0869,497.2019 550.7942,496.3823 542.492,496.6231 533.5694,498.5787 532.912,498.4676 533.375,497.375 540.264,486.926 545.2524,478.404 556.8023,456.1522 569.0078,429.6965 581.5842,399.4815 593.6587,366.5711 602.6997,338.3326 610.6684,309.3803 616.7362,281.8646 620.6952,258.1454 622.0093,247.2019 622.888,236.7295 623.3417,226.3465 623.3587,216.7634 622.9423,207.4315 622.1024,198.7982 620.8653,190.8898 619.1755,183.3857 617.0461,176.4597 614.5651,170.3009 611.648,164.6428 608.2949,159.5368 604.5057,155.0338 600.2805,151.185 595.3134,147.8695 590.0817,145.4863 584.2755,143.8753 578.0787,143.1262 571.5285,143.2488 564.6619,144.253 557.5158,146.1486 550.5436,148.7663 543.2299,152.2838 536.062,156.4712 528.5884,161.5901 521.1495,167.4374 513.7873,173.9688 506.5441,181.1396 499.462,188.9053 492.7623,197.0246 486.7102,205.1155 480.7563,213.8623 475.1472,222.9201 469.7189,232.5736 464.6969,242.4467 460.0997,252.4815 456.036,262.4156 452.4177,272.4422 449.1583,282.8066 446.2903,293.4651 443.8437,304.3658 441.9016,315.0929 440.4135,325.8469 439.463,335.9892 438.9529,346.2258 438.8914,356.887 439.2944,367.5234 440.1712,378.4266 441.3626,388.1888 443.0518,398.1497 445.2579,408.2784 447.9513,418.4887 451.413,429.8005 454.8752,439.54 461.2868,454.8208 469.1346,470.9641 479.9076,490.2165 495.6607,516.7355 502.4508,529.2011 506.219,537.345 508.7639,544.1111 515.2996,566.1636 517.054,568.719 518.4566,569.3351 519.9913,569.0503 522.6291,567.3194 525.4885,564.2742 529.5189,558.8951 534.0154,552.0052 545.482,532.1461 558.9475,506.5995 572.4626,479.0612 585.5003,450.8705 599.4817,419.126 611.3013,390.4247 621.4037,364.2858 630.3623,339.4309 638.7158,314.3177 646.0363,290.2886 652.1901,267.7917 657.2871,246.5337 661.5621,225.4862 664.8432,205.5476 667.0469,187.5312 668.3099,170.8701 668.6731,155.32 668.125,140.625 666.6035,126.5884 664.1469,113.7181 660.7967,102.0981 656.601,91.7859 651.6133,82.8149 645.6708,74.9446 642.449,71.5743 638.9562,68.4743 635.4643,65.8628 631.4769,63.3772 627.2624,61.2356 623.1529,59.5596 614.0442,57.0598 604.2107,55.916 593.7126,56.1662 586.7886,57.0561 579.6398,58.5234 572.2812,60.5776 565.2105,63.0431 557.7404,66.144 550.1622,69.7783 542.502,73.926 534.4767,78.7626 526.7309,83.8954 518.6734,89.7133 510.6433,95.998 502.6701,102.7272 487.3091,117.1309 472.4812,133.0148 458.7287,149.776 445.7038,167.7521 433.5447,186.7646 422.3997,206.612 412.5793,226.7334 404.2677,246.6495 397.1809,267.0338 391.4612,287.4311 387.3623,306.2347 384.3534,325.1826 382.5041,343.7412 381.7823,362.2059 382.216,380.4025 383.7767,398.2864 386.4618,416.0758 390.3345,434.1046 394.6239,449.6261 399.7892,464.9439 406.0151,480.5455 413.3882,496.6525 419.0565,507.8031 425.3685,519.2798 436.848,538.8379 452.7115,564.4685 459.6875,576.8594 464.3201,586.1995 467.8772,594.8985 470.3305,602.4266 471.9362,609.7063 473.1064,618.1286 473.4993,626.4999 473.0106,635.8439 471.75,645.0 469.2975,657.232 466.178,669.1605 462.0122,682.718 455.3359,702.2313 445.125,730.5 439.0214,749.3876 437.146,757.2202 436.3874,763.1549 436.7334,767.2723 437.394,768.6574 438.1077,769.3809 439.7126,769.9773 441.8718,769.7563 444.3882,768.7218 447.7753,766.6851 455.7602,760.3935 465.5471,750.9172 477.2072,738.1438 488.572,724.4495 498.3634,711.4562 509.0228,695.9776 517.0339,683.2579 523.8402,671.2653 529.6967,659.5718 534.375,648.625 537.852,638.5743 540.2078,629.1752 541.3208,620.3747 541.3044,612.4258 540.6882,608.4431 539.6357,605.0921 537.9844,601.7969 535.9843,599.2378 533.7581,597.4137 530.9375,596.0625 527.9185,595.5046 524.5918,595.7344 521.3289,596.6133 518.0,598.125 514.6668,600.2104 511.3857,602.8503 504.834,609.77 497.6704,619.6401 489.3866,633.7982 477.4293,657.6602 463.2674,688.5733 444.8455,731.3806 436.4943,753.1663 432.658,765.447 431.584,770.6641 431.2891,774.3848 431.8099,777.4829 433.0176,779.1199 434.8084,779.676 437.3113,779.201 440.5592,777.6842 444.0492,775.4389 453.0325,768.0516 463.8241,757.4863 476.3775,743.6531 489.518,727.7946 501.3118,712.3348 512.4556,696.348 520.8941,683.064 528.0892,670.4533 534.6996,657.3314 540.1176,644.8199 543.9185,633.957 546.4172,624.1424 547.7131,614.6021 547.7726,606.3547 547.1483,601.7042 545.965,597.5026 544.2978,593.8503 542.0324,590.6661 539.5872,588.4545 536.511,586.7563 533.2442,585.8784 529.4973,585.7219 526.0922,586.2571 523.0144,587.3248 519.0613,589.396 515.3504,592.026 511.9331,595.1276 508.3891,598.997 504.4346,603.9549 501.0171,608.8315 496.4458,616.3101 491.3,625.7165 478.3866,651.9956 450.4063,714.7317 435.6611,749.4523 429.2377,766.3215 425.4446,779.029 424.6058,783.5656 424.3856,787.2589 424.896,789.7628 426.172,791.2859 428.2136,791.7748 430.8226,791.2416 433.9457,789.7479 438.0546,787.0449 448.5087,778.3205 461.3799,765.6954 475.5354,750.2967 488.3617,735.0339 502.3086,716.9931 515.0854,699.0483 524.8056,684.0636 533.2491,669.7198 540.4825,655.9121 546.4835,642.6506 550.9835,630.4703 554.0953,619.0241 555.8001,608.7267 556.0863,599.5673 555.5755,594.3421 554.504,589.3987 552.9246,585.2012 550.7046,581.4615 547.9003,578.1458 544.803,575.7038 541.1242,574.0195 537.3536,573.1759 533.5258,573.1553 529.0843,574.0306 525.1914,575.4824 521.1964,577.7055 517.3171,580.6238 513.625,584.125 509.5242,588.7905 505.8262,593.8204 501.851,600.1798 497.4014,608.1508 488.1269,626.9572 434.4131,747.804 426.3355,766.6559 419.7204,783.4474 415.7365,796.443 414.9833,800.5715 414.875,803.9062 415.431,806.369 416.6709,807.8816 418.615,808.329 421.5972,807.5816 425.5206,805.5595 430.385,802.2517 435.8521,797.915 442.0953,792.4189 456.6659,778.1337 473.1902,760.1702 490.3638,739.977 505.8387,720.3558 520.125,700.6406 531.3604,683.7554 540.9785,667.9098 549.0318,652.9886 555.7687,638.5984 560.9724,625.1873 564.7942,612.2885 566.9928,600.5083 567.5142,590.2314 567.044,583.577 565.9444,577.7546 564.2582,572.75 561.9156,568.2212 558.9152,564.0863 555.5433,560.8967 551.332,558.3363 546.9727,556.6033 542.6133,555.7767 537.668,555.862 532.8953,556.8756 528.3321,558.7288 523.8044,561.3859 519.6003,564.7253 515.6345,568.8793 511.6759,574.0696 505.6004,584.1524 500.0129,595.5711 480.9039,641.6094 467.6917,672.586 449.9474,711.5109 419.8809,775.4486 409.201,799.145 403.8457,812.6839 400.5299,823.4359 399.8695,826.9937 399.7261,829.8924 400.1372,832.0853 401.1405,833.5253 403.1549,834.1863 405.8501,833.6604 409.4032,832.0213 413.8028,829.2633 425.0895,820.3729 439.5135,807.0825 455.765,790.601 473.19,771.5514 491.3244,750.5096 508.277,729.5996 521.912,711.6588 534.58,693.914 545.8147,677.0327 555.6395,660.9611 564.1545,645.4461 571.3286,630.6567 577.1705,616.5561 581.4678,603.6274 583.8197,594.1224 585.3286,585.0342 585.973,576.4061 585.7591,568.6611 584.6862,561.2541 582.6844,554.0152 579.9713,547.8667 576.4516,542.5015 571.497,537.1851 565.8802,532.9901 559.3879,530.0119 552.6917,528.2516 545.3786,527.884 538.6206,528.758 532.4393,530.9892 527.0114,534.4476 523.2242,538.0257 519.8905,542.4357 517.3611,547.2778 515.3749,552.6699 513.8235,558.6663 512.677,565.174 509.7579,593.9411 507.4803,605.7019 504.0743,617.3737 501.3565,624.9028 496.8449,635.8693 492.3554,645.7621 478.338,674.47 452.8825,722.3467 430.6407,762.1568 370.3127,867.2712 356.6216,892.2163 349.264,907.0544 344.8904,917.7198 343.7948,921.5509 343.4035,924.5367 343.7888,926.5961 344.8196,927.5747 346.257,927.7586 347.8685,927.4241 352.614,925.1463 359.295,920.5924 367.6487,913.9707 378.1621,904.8798 390.198,893.8545 418.4345,866.4145 450.379,833.4675 483.5526,797.6002 514.4565,762.6775 542.9587,728.7748 564.6963,701.4972 583.9205,675.9588 600.4138,652.4883 614.8776,630.092 627.3864,608.631 637.8046,588.2702 642.1374,578.6704 645.8814,569.4748 649.0332,560.6962 651.6966,552.0256 654.6695,539.7778 656.5413,528.052 657.2985,516.9149 656.9174,506.1088 655.4511,496.368 652.7404,486.5945 648.9301,477.3833 644.1353,468.9443 639.1278,462.0932 633.1042,455.4181 625.9242,448.7546 618.3918,442.8567 609.4965,437.0171 598.3886,430.8589 589.1024,426.3635 569.0666,417.55 564.1409,414.95 560.6162,412.55 558.1098,410.2789 556.3297,407.7483 555.0165,404.6711 554.5433,402.2151 554.4982,399.0988 554.913,394.8601 555.7588,390.2808 558.0175,380.8735 566.508,349.8758 571.5873,326.9765 574.6215,306.8771 575.6516,290.5995 575.6158,281.7904 575.0247,274.4188 573.6652,266.4084 571.7255,259.5238 569.4241,254.2408 566.3824,249.4758 563.0357,245.9891 559.1705,243.6031 556.084,242.5664 553.1723,242.1055 550.1211,242.1157 546.9484,242.6328 543.5811,243.7246 539.8695,245.4494 533.0032,249.9911 529.5919,252.9443 526.0387,256.554 519.2479,264.8998 513.2332,274.2911 508.2767,284.1598 504.0003,295.1486 500.5454,306.6952 498.2991,318.0186 496.7859,330.7852 496.448,342.0552 497.15,354.6498 498.6085,364.3682 501.2053,375.1429 503.6546,382.2543 506.9552,389.3946 509.9379,394.3273 513.875,399.375 517.2259,402.4048 521.625,404.875 524.713,405.769 528.2348,405.8065 531.7165,404.9047 535.8711,402.6205 539.5873,399.6139 543.3014,395.5708 547.3037,390.1028 551.3007,383.613 554.829,376.8056 558.6984,368.3709 562.6245,358.5514 566.4177,347.5618 569.3451,337.651 572.6615,324.5972 574.7852,314.4113 576.4513,303.801 577.5343,293.889 577.9942,284.8701 577.8702,275.2226 577.2008,267.1695 575.9549,260.0856 574.0002,253.3708 571.5628,247.7345 568.4972,243.0158 565.0134,239.5311 560.8155,236.9367 557.6146,235.8548 554.567,235.4112 551.0315,235.4954 547.5972,236.088 543.7202,237.3173 540.1238,238.9659 536.4766,241.1263 532.6269,243.926 525.0796,250.9225 518.1224,259.3422 511.5341,269.4455 505.91,280.3482 501.4839,291.2236 497.8566,302.9251 495.0062,315.7683 493.3695,327.7723 492.7446,340.08 493.069,351.6612 494.6261,364.1179 497.1664,376.1797 499.6631,384.0694 502.6282,391.5473 505.7309,397.4364 509.6534,403.4086 513.4175,407.5233 517.7546,410.9647 521.601,412.8312 525.8286,413.6185 529.9345,413.0864 533.6745,411.5122 537.5758,408.7545 541.7523,404.6556 545.6905,399.7648 549.47,394.0567 553.7542,386.4017 558.0332,377.6316 562.4664,367.2178 566.6044,356.0912 570.7234,343.4698 573.9655,331.7799 577.1535,317.8614 579.3061,306.1493 580.7867,294.2965 581.6034,282.7333 581.6744,273.342 581.0543,263.7906 579.8109,255.4546 577.9319,248.2227 575.3749,241.9442 572.117,236.5762 568.4138,232.5921 563.9532,229.7042 560.5791,228.4259 556.9964,227.7507 553.2117,227.704 549.638,228.2205 545.7767,229.3253 541.6101,231.0748 537.4106,233.4026 533.1971,236.3023 528.9884,239.7678 525.1297,243.4573 521.2334,247.7038 517.2381,252.6463 509.9568,263.4084 503.6092,275.214 498.4821,287.4648 494.2743,300.6953 491.2744,313.9374 489.2703,328.0333 488.5375,340.6195 488.9788,354.0119 490.3693,366.353 492.9941,378.8828 495.2429,386.6758 498.1714,394.3444 502.104,402.6721 505.8368,408.7996 510.1072,414.2269 514.1647,418.0101 518.75,420.9786 523.25,422.328 527.3098,422.4012 531.2554,421.2379 535.801,418.657 540.096,414.9532 544.4849,409.7605 549.2898,402.8625 553.5158,395.6708 557.7623,387.2514 563.3242,374.4161 568.4016,361.1215 573.1541,346.7279 577.1024,332.9019 580.3505,319.2135 582.8893,305.7476 584.746,292.3917 585.8228,280.0048 586.0868,269.0664 585.5599,259.1281 584.2752,249.661 582.3326,241.7292 579.5076,234.6969 575.9192,228.7573 571.8872,224.2841 567.2025,221.0725 563.6112,219.6618 559.7739,218.8743 555.7154,218.7239 551.4585,219.2278 547.026,220.4029 542.6482,222.1688 538.3799,224.4412 533.7934,227.467 529.5241,230.819 524.9884,234.9496 520.5643,239.5646 516.3707,244.5466 512.359,249.9251 508.3388,255.9819 501.2362,268.6395 495.51,281.445 490.8046,295.0223 487.221,309.1679 484.8451,323.5777 483.625,338.25 483.6654,351.0797 485.1526,366.5524 487.6276,380.0789 490.3437,389.9907 493.3848,398.8145 497.041,406.913 501.5811,415.2311 505.8967,421.2118 511.0766,426.8694 516.1389,430.6351 521.0041,432.7488 525.375,433.25 529.7459,432.3575 534.0169,430.2025 538.4379,426.6556 542.9948,421.7597 547.7219,415.3565 552.5086,407.6451 557.1292,398.8939 563.6569,384.626 569.147,371.0712 574.9802,354.2101 579.5152,339.3088 583.7091,322.7057 586.9409,307.2863 589.3074,292.3949 590.7617,278.5882 591.2803,266.1637 590.8879,254.3051 589.716,243.7628 587.6761,234.4734 584.7294,226.537 580.8575,219.6055 578.5833,216.6639 576.3316,214.3485 573.8775,212.3705 571.1871,210.7348 567.255,209.0901 563.0496,208.1308 558.5914,207.883 554.3005,208.3028 549.416,209.4908 544.6487,211.2988 539.6226,213.8259 534.5637,216.9987 529.4969,220.807 524.762,224.9457 520.0111,229.6838 515.1929,235.1491 510.5956,241.0511 506.2243,247.3597 498.2111,261.0161 491.694,274.8447 486.3047,289.4609 482.1545,304.6678 479.3483,319.9223 477.7814,335.7694 477.5602,351.0972 478.702,366.4336 481.2027,381.6313 483.294,390.2259 486.0564,399.4117 488.5219,406.2198 491.4594,412.9325 495.6613,421.2764 498.6354,426.3009 503.3787,432.9228 507.7478,437.9887 511.7063,441.4675 515.7793,444.2129 519.69,445.8524 523.625,446.4943 527.375,446.0923 531.296,444.7135 535.0312,442.3884 538.75,439.125 542.3858,435.0331 546.4354,429.5418 550.8942,422.5133 555.1512,415.0287 563.5065,397.7759 571.4675,378.349 578.8697,357.4241 585.5794,334.9282 590.9607,312.6812 594.9124,291.6605 596.9899,274.4445 597.8303,257.6831 597.3771,243.4825 595.6205,230.6166 594.2522,224.767 592.5374,219.2994 590.6137,214.5831 588.3681,210.28 585.7951,206.4314 582.6929,202.8396 579.544,200.0552 576.1124,197.7913 572.0573,195.9544 567.6886,194.82 562.7245,194.422 557.6871,194.7851 552.4543,195.8782 547.0562,197.7098 541.5226,200.2885 535.8833,203.6229 530.3913,207.5418 524.8885,212.1258 519.4844,217.2812 514.2072,222.9676 508.8338,229.4654 503.7985,236.2673 499.2407,243.136 494.7939,250.6217 487.2242,265.6538 480.9048,281.4718 476.1103,297.4747 472.5742,314.433 470.4026,331.5634 469.7347,348.4596 470.5767,365.4643 471.5725,373.9941 472.8836,382.0349 474.8726,391.3695 477.3351,400.5966 480.1241,409.1312 483.5163,417.8879 487.0761,425.9494 490.5938,432.7178 496.363,442.2476 500.1965,447.6032 505.75,454.0 509.334,457.488 513.9467,460.915 517.8579,462.8307 522.5,463.875 525.8619,463.6848 530.0154,462.3001 534.1321,459.6658 538.375,455.75 542.7188,450.6406 546.7753,444.8687 551.7766,436.6083 556.6558,427.659 561.5505,417.697 572.0706,393.5486 581.9304,367.0633 590.4966,340.2995 597.322,314.4617 600.114,301.837 602.3339,290.1092 605.2351,269.4424 606.6041,250.3305 606.6909,241.7785 606.3805,233.5278 605.6757,225.7218 604.5582,218.2363 603.0991,211.5149 601.2317,205.2245 599.0767,199.7424 596.4202,194.5768 593.3057,189.9109 590.0361,186.1239 586.4059,182.9066 582.4178,180.3022 577.3754,178.1152 572.2031,176.9088 566.5519,176.5235 560.6219,177.0069 554.4455,178.3711 548.0548,180.6283 541.4821,183.7906 535.1042,187.6334 528.5373,192.3469 522.049,197.7669 515.4001,204.138 509.181,210.893 503.1466,218.2482 497.3423,226.1673 491.9797,234.3481 486.7969,243.1875 482.1972,251.9687 478.0003,260.9532 474.2118,270.1148 470.8595,279.3791 467.8518,289.0211 465.3154,298.6321 463.1614,308.538 461.4776,318.3249 460.2949,327.5549 459.5428,336.7889 459.2153,346.1189 459.3207,355.8683 459.8591,365.5915 460.8409,375.5366 462.2473,385.0895 464.0849,394.4546 466.5921,404.5981 469.4901,414.2432 472.9433,423.8158 477.1068,433.7721 480.8849,441.8583 485.3214,450.0949 491.5354,460.5291 496.7806,468.1788 502.3041,475.2472 507.5631,480.9663 511.7541,484.6275 516.375,487.5765 520.0965,488.912 524.0588,489.2078 527.7514,488.1301 531.5417,485.8796 536.806,481.039 541.8302,474.634 548.8519,463.5377 555.4692,451.5454 563.3048,435.6628 571.2864,418.0273 578.6199,400.4128 586.3593,380.2864 592.5175,362.9563 598.0598,345.9162 603.1385,328.7407 607.6197,311.7913 611.5288,294.8684 614.6847,278.8746 617.0961,263.79 618.7364,249.8584 619.6671,236.9673 619.9827,225.102 619.693,213.9416 618.7752,203.6029 617.2218,194.1733 615.0713,185.7344 612.3319,178.035 608.9655,171.06 604.9552,164.9117 600.5332,159.9301 595.5,155.875 590.0299,152.8724 583.7091,150.735 577.2524,149.7197 570.388,149.7177 563.1631,150.7593 553.819,153.5272 543.7077,158.0934 533.4106,164.2482 523.3986,171.6447 513.5069,180.3607 504.0546,190.1159 494.7961,201.1935 486.1073,213.1541 478.07,225.8345 470.7656,239.0714 464.3692,252.4985 458.6852,266.5556 453.8223,281.0074 449.7275,296.0919 446.6035,311.0661 444.4428,325.8938 443.3144,339.0429 442.9193,352.0693 443.2469,365.2414 444.294,378.1169 446.0751,390.7081 448.6325,403.5223 452.2183,417.6081 456.1362,430.0924 460.6525,442.076 465.9931,454.3443 471.4531,465.4219 478.5242,478.4022 490.4702,498.0749 502.8862,517.5456 513.7077,535.2782 516.6149,539.0708 518.875,540.75 519.9846,541.1609 521.6145,541.2849 524.268,540.3487 527.567,537.8305 531.0751,533.9123 535.433,527.825 541.7762,517.7844 552.75,498.0156 566.4308,470.617 583.8107,432.475 597.3771,399.9975 609.5,368.25"/>
  </g>
</svg>
