<?xml version="1.0" encoding="utf-8" ?>
<svg xmlns="http://www.w3.org/2000/svg" xmlns:cc="http://creativecommons.org/ns" xmlns:dc="http://purl.org/dc/elements/1.1/" xmlns:ev="http://www.w3.org/2001/xml-events" xmlns:inkscape="http://www.inkscape.org/namespaces/inkscape" xmlns:rdf="http://www.w3.org/1999/02/22-rdf-syntax-ns" xmlns:sodipodi="http://sodipodi.sourceforge.net/DTD/sodipodi-0.dtd" xmlns:xlink="http://www.w3.org/1999/xlink" baseProfile="tiny" height="27.09333333cm" version="1.2" viewBox="0 0 1024.0 1024.0" width="27.09333333cm">
  <metadata>
    <rdf:RDF>
      <cc:Work>
        <dc:format>image/svg+xml</dc:format>
        <dc:source>vpype read './original_svgs/Strange Attractors #281.svg' linemerge linesimplify write './Strange Attractors #281.svg'
</dc:source>
        <dc:date>2024-08-05T01:35:44.535841</dc:date>
      </cc:Work>
    </rdf:RDF>
  </metadata>
  <defs/>
  <g fill="none" id="layer1" inkscape:groupmode="layer" inkscape:label="1" stroke="black" stroke-width="0.7mm" style="display:inline">
    <polyline points="578.0,403.625 581.25,397.75 585.375,391.875 590.75,385.75 597.125,379.5 605.0,372.625 614.5,365.25 625.875,357.0 639.625,347.875 656.5,337.5 676.875,325.875 701.875,312.625 732.0,298.0 768.0,282.5 809.75,267.0 855.625,253.875 901.625,246.875 940.5,251.125 963.5,271.25 963.75,309.0 941.125,361.0 902.75,419.875 858.625,478.0 817.375,530.5 783.375,575.375 758.375,612.5"/>
    <polyline points="742.125,642.5 733.375,666.5 730.625,685.25 732.25,699.25 736.875,708.75 742.875,713.75 749.25,714.5 754.625,711.125 758.25,703.625 759.625,692.75 758.375,679.0 754.75,663.375 749.125,646.5 742.0,629.25 733.75,612.25 724.875,596.125 715.75,581.0 706.875,567.375 698.25,555.0 690.0,544.125 675.125,526.125 662.375,512.75 651.625,503.0"/>
    <polyline points="646.75,499.25 642.375,496.0 634.5,490.875 627.625,487.25 616.5,482.625 598.625,477.0 596.375,476.0 592.875,473.75"/>
    <polyline points="592.25,473.125 590.875,471.125 590.25,468.875 590.625,465.5 591.875,462.625 593.875,459.375 596.75,455.875 602.125,450.625 605.5,447.875"/>
    <polyline points="607.375,446.375 613.75,441.75 627.125,433.75 633.5,430.5 640.25,427.5 651.25,423.375 662.5,420.375 669.75,419.375 676.375,419.375 679.25,419.875 684.0,421.875"/>
    <polyline points="685.75,423.375 687.0,425.25 687.75,427.5 687.625,432.875 686.75,436.0 683.375,442.875 681.0,446.5 675.125,454.0 671.625,457.625 664.0,464.875 659.875,468.25 651.375,474.5 642.875,480.0 630.25,486.625 622.375,490.0 614.875,492.625"/>
    <polyline points="611.25,493.75 601.375,496.125 595.375,497.125 584.875,498.0 576.125,497.875 569.125,497.0 563.5,495.625 559.25,493.875"/>
    <polyline points="558.375,493.5 556.75,492.5 554.375,490.25 553.125,487.75 552.625,485.625 552.875,482.5 553.5,480.0 555.875,475.125"/>
    <polyline points="556.5,474.0 561.75,466.75 564.125,464.0 575.5,452.625 587.625,442.375 605.0,430.0"/>
    <polyline points="609.25,427.25 624.125,418.25 642.5,408.75 656.875,402.25 672.75,396.125 689.75,391.0 698.375,389.125 706.875,387.875 715.0,387.375 722.5,387.75 729.0,389.25 734.375,391.875 738.375,395.75 740.75,400.875 741.25,407.25 740.0,414.75 737.0,423.125 732.375,432.125 726.375,441.5"/>
    <polyline points="719.375,451.0 711.5,460.375 703.125,469.375 694.5,478.0 685.75,486.0 677.125,493.25 668.625,499.875 652.625,511.0 645.125,515.5 638.0,519.5 624.875,525.75 618.875,528.25 607.875,532.0 598.125,534.5 589.25,536.25 577.625,537.625 567.625,538.25"/>
    <polyline points="564.5,538.375 538.375,539.0 533.0,539.375 523.5,540.625 516.625,542.25"/>
    <polyline points="515.375,542.625 511.5,543.875 505.5,546.375 483.375,557.625"/>
    <polyline points="481.75,558.25 474.875,561.0 468.75,562.625 464.0,563.5 456.0,564.125 449.625,563.875 442.375,563.0 429.125,559.625 418.5,555.625 406.0,549.75 391.375,541.5"/>
    <polyline points="383.25,536.25 365.375,523.375 345.875,507.0 335.875,497.625 325.875,487.5 316.5,477.0 307.75,466.25 300.375,455.625 294.5,445.75 290.75,436.75 289.125,429.25 290.0,423.625 293.25,419.875 298.5,418.25 305.625,418.5 314.0,420.5 323.375,423.875 333.375,428.25 353.375,438.875 372.25,450.125 388.875,460.5"/>
    <polyline points="396.375,465.125 415.625,476.625 426.125,482.125 435.125,486.375 446.625,490.5 456.25,492.875 464.625,494.0 471.875,494.25 476.25,494.0 484.125,493.0"/>
    <polyline points="486.0,492.625 496.0,489.75 504.75,485.75 514.125,480.0 522.0,473.75"/>
    <polyline points="523.375,472.5 533.5,463.0 555.125,441.5 567.25,430.625 579.125,420.625"/>
    <polyline points="584.0,416.875 601.625,404.0 609.0,399.125 626.5,388.125 636.875,382.0 662.125,368.5 677.125,361.125 694.0,353.625 712.625,346.0 732.875,338.75 754.5,332.25 776.5,327.5 797.875,325.25 817.0,326.75 831.75,332.875 840.5,344.5 841.875,361.625 835.875,383.375 823.375,408.5 806.125,435.125 786.125,461.75 765.375,486.875"/>
    <polyline points="745.25,509.75 726.75,529.875 710.375,547.125 684.125,573.875 665.375,592.0 658.25,598.5 652.375,603.625 643.25,610.5 636.5,613.875 633.625,614.625 631.125,615.0 626.625,614.375 622.5,612.625 618.375,610.125 608.0,602.625"/>
    <polyline points="605.875,601.125 595.0,594.25 586.25,590.0 582.125,588.375 574.0,586.125 570.25,585.5 563.25,585.25 556.875,586.125"/>
    <polyline points="555.5,586.625 551.5,588.25 549.0,589.75 546.875,591.625 544.125,594.875 542.625,597.5 541.5,600.375 540.75,603.75 540.25,609.5 541.125,616.375 543.625,624.5"/>
    <polyline points="545.0,627.5 546.5,630.75 550.625,637.875 556.125,645.75 559.625,650.125 568.25,659.5 579.375,669.875 593.375,681.125 601.625,686.875 610.75,692.75 620.625,698.5 631.25,703.875 642.5,708.875 654.25,713.0 666.0,716.0 677.625,717.75 688.75,717.625 698.625,715.625 707.125,711.375 713.875,704.875 718.375,696.25"/>
    <polyline points="720.75,685.75 720.875,673.625 719.0,660.375 715.5,646.5 710.5,632.375 704.5,618.5 697.75,605.125 690.625,592.5 683.375,580.75 676.125,570.125 669.0,560.375 662.125,551.75 655.625,544.0 643.5,531.125 632.75,521.25 627.875,517.125 619.125,510.5 611.5,505.375 598.875,498.375"/>
    <polyline points="556.0,491.125 558.0,492.75 561.75,494.625 569.625,496.75 574.875,497.5 581.0,497.875 590.625,497.625 596.125,497.125 578.875,489.0 573.25,485.5 570.0,481.875 569.0,479.5 568.75,476.875"/>
    <polyline points="568.75,476.0 569.375,473.125 570.75,469.875 572.75,466.375 576.75,461.125 582.375,455.125 587.875,450.125 600.25,440.375"/>
    <polyline points="603.25,438.25 609.875,433.75 626.0,424.125 635.75,419.125 646.5,414.125 652.25,411.625 664.5,407.125 670.875,405.125 683.75,402.125 690.0,401.125 696.0,400.625 701.625,400.875 706.75,401.625 711.125,403.125 714.75,405.5 717.25,408.625 718.75,412.5 719.125,417.125"/>
    <polyline points="718.25,422.5 716.25,428.375 713.25,434.75 709.25,441.375 704.375,448.25 698.875,455.0 686.375,468.25 679.75,474.375 666.125,485.5 659.5,490.375 646.5,498.75 640.25,502.25 628.5,508.125 617.75,512.5 607.875,515.75 598.875,518.125 587.0,520.25"/>
    <polyline points="583.375,520.625 573.625,521.5 560.0,521.75 531.375,520.375"/>
    <polyline points="530.25,520.25 521.125,520.25 517.0,520.625 512.125,521.75"/>
    <polyline points="511.625,521.875 508.375,523.125 504.875,525.125 500.5,528.375"/>
    <polyline points="500.0,528.625 492.375,534.75 484.0,540.625"/>
    <polyline points="483.125,541.125 476.75,544.5 473.125,546.0 467.25,547.875 463.875,548.625 458.25,549.375 451.5,549.5 446.5,549.125 440.75,548.25"/>
    <polyline points="437.625,547.5 430.75,545.625 423.0,542.875 409.625,536.75 404.625,534.0 394.0,527.5 382.375,519.375 376.375,514.75 364.125,504.25 358.125,498.625 346.875,486.625 341.875,480.5 337.625,474.625 334.125,469.0 331.5,463.75 329.875,459.0 329.5,455.125 330.125,452.0"/>
    <polyline points="331.875,449.625 334.75,448.25 338.5,447.75 343.125,448.125 354.125,450.875 360.25,453.125 366.625,455.625 379.5,461.5 414.75,479.0 424.625,483.625 441.625,490.75 455.375,495.375"/>
    <polyline points="458.375,496.25 469.0,498.75 479.875,500.25 491.625,500.625 499.5,499.875 502.875,499.25"/>
    <polyline points="503.875,499.0 509.75,497.25 514.875,494.875 521.25,490.75 525.25,487.5"/>
    <polyline points="526.0,486.75 528.625,484.5 555.25,457.875"/>
    <polyline points="557.125,456.0 571.25,443.375 588.5,429.875 602.625,420.0 620.875,408.5 644.875,395.375 664.625,386.0 675.75,381.25 700.125,372.375"/>
    <polyline points="713.125,368.625 726.375,365.625 739.375,363.75 751.5,363.375 762.375,364.875 771.25,368.5 777.375,374.625 780.375,383.125 780.0,394.0 776.25,406.75 769.5,421.0 760.25,436.0 749.125,451.25 736.875,466.25 724.125,480.375 711.375,493.375 699.0,505.25 676.25,524.875 666.125,532.75 656.75,539.5 640.25,549.875 626.375,557.0 620.25,559.625"/>
    <polyline points="614.625,561.75 604.625,564.625 595.75,566.5 588.0,567.5 581.125,568.0 566.5,568.5 552.5,569.375 541.125,571.625"/>
    <polyline points="539.5,572.25 534.75,574.125 531.75,575.75 527.625,578.5 522.625,582.875 519.25,586.875 516.25,591.5 512.875,598.875 511.0,605.25"/>
    <polyline points="510.625,607.625 509.875,612.875 509.75,618.625 510.875,628.625 513.0,636.5 514.5,641.0 516.5,645.75 522.25,656.625 526.125,662.75 531.0,669.625 536.875,677.125 544.0,685.375 552.75,694.5 563.25,704.625 576.0,715.75 591.125,727.875 609.125,741.0 630.0,754.75 654.125,768.625 681.0,781.75"/>
    <polyline points="709.875,792.875 739.5,800.25 767.625,801.875 791.75,796.0 809.5,781.75 819.375,759.0 821.0,729.625 815.625,696.0 805.125,660.875 791.75,626.5 777.375,594.625 763.5,566.125 723.625,488.0 707.0,453.5 704.75,449.25 702.75,446.375 701.125,444.625 699.375,443.875 697.625,443.875 695.625,444.625"/>
    <polyline points="693.375,446.0 674.25,461.5 666.0,467.5 653.0,476.125 644.25,481.0 631.5,487.125 619.5,491.625 608.75,494.75 599.125,496.625"/>
    <polyline points="555.375,490.5 553.5,487.5 553.125,485.375 553.5,481.375 555.875,475.75 560.375,469.0"/>
    <polyline points="561.375,467.625 567.625,460.5 572.5,455.625 580.875,448.125 591.875,439.375 602.5,431.875 611.0,426.375 626.125,417.375 632.0,414.25"/>
    <polyline points="638.25,411.0 659.375,401.375 675.375,395.5 692.375,390.625 700.875,389.0 709.25,388.0 717.125,387.75 724.25,388.5 730.375,390.375 735.25,393.375 738.75,397.625 740.375,403.125 740.375,409.875 738.625,417.5 735.125,426.0 730.125,435.125 723.875,444.5 716.625,453.875 708.625,463.125 700.125,472.0 682.875,488.0"/>
    <polyline points="674.25,495.0 665.875,501.375 657.875,507.0 642.875,516.375 629.25,523.375 617.25,528.375 606.375,531.875 596.75,534.375 592.25,535.25 584.0,536.5 569.875,537.75 553.0,538.125"/>
    <polyline points="550.5,538.25 537.875,538.5 526.125,539.625 519.0,541.0 512.625,542.875 510.25,543.875"/>
    <polyline points="509.0,544.25 501.875,547.5 486.625,555.5 475.25,560.25"/>
    <polyline points="473.25,560.75 467.0,562.375 462.125,563.125 456.75,563.5 450.625,563.375 443.625,562.5 435.375,560.75 425.875,557.875 420.625,555.875 414.875,553.375 401.875,546.875 394.5,542.75 386.75,537.875 378.375,532.25 369.5,525.75 360.25,518.5 350.625,510.375"/>
    <polyline points="340.75,501.375 331.0,491.75 321.5,481.625 312.625,471.125 304.75,460.625 298.375,450.625 293.75,441.375 291.25,433.5 291.125,427.125 293.25,422.625 297.5,420.125 303.75,419.5 311.375,420.625 320.25,423.375 329.75,427.125 339.625,431.875 359.25,442.625 407.0,471.625 418.75,478.25"/>
    <polyline points="424.0,481.0 433.375,485.5 441.625,488.75 448.75,491.125 458.125,493.25 463.75,494.0 471.125,494.375 475.625,494.25 481.75,493.625 492.375,491.25"/>
    <polyline points="494.0,490.75 503.0,487.125 509.875,483.375 517.75,477.875 524.375,472.375 528.5,468.5"/>
    <polyline points="529.875,467.125 551.625,445.75 565.625,432.875 576.875,423.375 586.375,416.0 604.75,402.875"/>
    <polyline points="612.375,397.875 630.5,386.75 641.375,380.625 653.5,374.0 667.25,367.0 682.75,359.75 699.875,352.25 718.75,345.0 739.0,338.125 760.375,332.375 781.75,328.625 801.875,327.625 819.125,330.5 831.75,338.25 838.0,351.375 837.125,369.5 829.25,391.75 815.625,416.75 797.875,442.75 778.125,468.375 757.875,492.25 738.625,513.75 721.0,532.625 691.875,562.5"/>
    <polyline points="680.25,573.875 662.25,590.75 649.375,601.5 640.25,607.875 633.25,611.0 630.375,611.75 625.375,612.0 620.875,610.875 616.625,609.0 612.5,606.75 604.25,601.5 595.875,596.625"/>
    <polyline points="593.875,595.5 585.625,591.75 581.75,590.375 577.875,589.25 570.625,588.0 565.625,587.875 561.0,588.5 555.625,590.25 552.125,592.375"/>
    <polyline points="551.125,593.25 549.25,595.25 547.0,598.75 545.875,601.625 545.125,604.75 544.875,610.25 545.875,616.75 548.375,624.375 551.25,630.375 555.25,637.0 563.875,648.375"/>
    <polyline points="567.625,652.5 576.75,661.5 588.25,671.25 595.0,676.25 602.375,681.375 610.375,686.375 619.125,691.25 628.375,695.875 638.125,700.125 648.125,703.625 658.375,706.25 668.375,707.625 677.875,707.75 686.625,706.25 694.25,703.0 700.5,698.0 705.0,691.125 707.75,682.75 708.75,672.875 708.0,662.0 705.75,650.25 702.125,638.25 697.375,626.125 691.875,614.125"/>
    <polyline points="685.75,602.75 679.375,591.875 672.75,581.875 659.625,564.125 653.25,556.5 647.125,549.75 635.625,538.125 625.25,529.0 620.5,525.25 611.625,519.0 603.875,514.125 593.75,508.625 588.0,505.875 576.125,500.875"/>
    <polyline points="574.125,500.125 563.5,495.375 560.375,493.5 557.25,491.125 555.25,488.5 554.5,486.375 554.25,483.375"/>
    <polyline points="554.25,482.5 555.125,479.0 557.0,475.125 558.25,472.875 561.625,468.125 567.625,461.125 578.25,451.0"/>
    <polyline points="580.5,449.0 591.125,440.375 597.625,435.625 605.25,430.375 614.0,424.875 624.125,418.875 635.75,412.75 642.125,409.5 656.25,403.25 663.75,400.125 671.75,397.25 688.25,392.25 696.75,390.375 705.0,389.125 712.875,388.5 720.25,388.875"/>
    <polyline points="726.75,390.25 732.125,392.75 736.125,396.375 738.5,401.25 739.25,407.375 738.25,414.5 735.5,422.5 731.25,431.25 725.625,440.25 719.0,449.5 711.5,458.625 703.375,467.625 686.375,483.875 677.875,491.125 669.5,497.75 661.375,503.625 653.625,508.875 646.125,513.5 632.375,520.875 620.0,526.25 614.25,528.375 603.75,531.625"/>
    <polyline points="599.0,532.75 586.0,535.125 574.875,536.375 562.375,537.0 539.0,537.375 530.25,538.0"/>
    <polyline points="528.625,538.125 521.375,539.25 513.625,541.25 503.125,545.5 497.375,548.5"/>
    <polyline points="496.125,549.125 488.625,553.125 479.75,557.25 470.625,560.25 461.625,561.875 456.25,562.125 450.125,562.0"/>
    <polyline points="446.875,561.625 443.25,561.125 435.125,559.375 425.875,556.5 415.0,552.125 402.25,545.75 387.625,537.0 379.625,531.5 371.0,525.375 352.75,510.625 333.875,492.875 324.75,483.125 316.25,473.125 308.625,463.125 302.375,453.5 297.75,444.625 295.125,436.875 294.625,430.5 296.25,425.875"/>
    <polyline points="300.0,423.125 305.625,422.25 312.75,423.0 321.0,425.125 330.125,428.625 339.5,432.875 358.5,442.875 406.0,471.125 423.25,480.625 437.125,487.0 441.125,488.5 448.5,491.0 458.125,493.25"/>
    <polyline points="461.0,493.75 466.375,494.375 473.625,494.625 480.0,494.25 487.625,493.125 497.5,490.375 503.25,488.0 507.375,485.875"/>
    <polyline points="508.75,485.125 517.875,479.125 524.375,473.75 534.375,464.5 544.625,454.25"/>
    <polyline points="546.625,452.375 561.25,438.625 571.0,430.125 579.125,423.5 588.75,416.125 600.5,407.75 623.75,392.75 644.375,381.0 656.625,374.5 670.25,367.75 685.5,360.75 702.375,353.75 720.625,346.875"/>
    <polyline points="740.25,340.75 760.5,335.75 780.5,332.625 799.125,332.5 814.75,336.125 825.75,344.25 830.875,357.125 829.375,374.75 821.5,396.0 808.375,419.625 791.5,444.125 772.875,468.125 753.75,490.625 735.25,511.0 718.375,528.875 703.125,544.375 678.25,568.375 668.375,577.25 659.875,584.625 646.5,595.125 636.5,601.5 632.5,603.5 628.875,604.875"/>
    <polyline points="625.625,605.75 619.875,606.375 614.875,605.875 608.125,603.875 588.125,595.125 580.75,592.875 573.875,591.625"/>
    <polyline points="572.375,591.5 566.25,591.75 562.25,592.75 558.75,594.375 555.75,596.625 553.5,599.5 551.75,603.25 551.125,606.125 550.875,609.5 551.125,613.125"/>
    <polyline points="551.5,615.125 552.625,619.5 555.75,627.0 561.0,635.75 563.375,638.875 569.0,645.875 576.375,653.375 585.375,661.375 590.625,665.5 596.375,669.75 609.375,678.0 616.625,682.0 624.25,685.75 632.25,689.0 640.375,691.875 648.625,693.875 656.75,695.125"/>
    <polyline points="664.5,695.375 671.875,694.5 678.25,692.25 683.75,688.75 688.125,683.875 691.25,677.75 692.875,670.375 693.25,662.125 692.375,653.125 690.25,643.625 687.125,633.75 683.125,623.875 678.5,614.125 673.25,604.75 667.875,595.75 656.375,579.375 644.75,565.5 633.75,554.0 623.375,544.625 618.5,540.625 609.375,533.875"/>
    <polyline points="605.0,531.125 597.125,526.375 590.0,522.5 580.5,518.125 569.875,514.0 546.5,506.25"/>
    <polyline points="545.375,505.875 539.5,503.125 536.875,501.25 534.75,498.375 534.25,495.625"/>
    <polyline points="534.375,495.125 535.25,491.25 537.625,486.5 544.5,476.875"/>
    <polyline points="545.375,475.75 555.375,464.375 567.625,452.5 580.375,441.625 594.375,431.125"/>
    <polyline points="598.625,428.125 608.125,421.875 619.375,415.0 639.875,403.75 656.375,395.75 675.25,388.0 685.5,384.25 696.125,381.0 707.0,378.25 717.875,376.125 728.375,375.0 738.125,375.125 746.75,376.75 753.75,380.0 758.625,385.0 761.25,391.875 761.375,400.5 758.875,410.5 754.125,421.75 747.25,433.75"/>
    <polyline points="738.75,446.0 729.125,458.25 718.625,470.125 708.0,481.25 697.25,491.625 676.75,509.25 667.125,516.625 658.125,523.0 649.625,528.5 634.5,537.125 627.625,540.5 621.25,543.25 609.625,547.375 599.5,550.125 590.625,551.75 582.625,552.875 568.875,553.75"/>
    <polyline points="565.875,553.875 550.125,554.5 543.375,555.0 535.5,556.125 530.125,557.25 523.625,559.25 516.0,562.5"/>
    <polyline points="514.625,563.25 506.0,568.5 484.0,584.5 480.0,587.0 473.25,590.5"/>
    <polyline points="470.625,591.625 465.0,593.5 458.375,594.875 450.5,595.5 446.0,595.375 440.875,594.875 428.875,592.375 421.75,590.25 413.625,587.125 404.375,583.125 393.875,577.875 381.875,571.0 368.25,562.375 352.875,551.625 335.5,538.375 316.375,522.375 295.5,503.375 273.75,481.625 251.875,457.375 231.75,431.75 215.125,406.375 204.0,383.375"/>
    <polyline points="200.125,365.0 204.0,353.125 215.25,348.375 231.875,350.625 251.875,358.375 273.0,370.125 293.5,383.875 312.25,398.5 328.625,412.75 342.5,426.25 354.0,438.375 363.375,449.375 370.75,458.875 376.625,467.25 381.375,474.5 392.5,494.625 396.25,500.75 398.0,503.0 401.75,506.375 406.0,508.375"/>
    <polyline points="408.375,509.0 413.375,509.625 424.375,509.125 436.125,507.5 474.25,501.125"/>
    <polyline points="476.25,500.75 485.625,499.125 498.0,496.125 505.75,493.375 512.625,490.125"/>
    <polyline points="513.75,489.5 519.125,486.0 524.5,481.875 535.0,472.5 543.375,464.25"/>
    <polyline points="545.0,462.625 556.25,451.875 569.125,440.5 583.375,429.125 592.375,422.5 603.125,415.125 616.0,406.875 631.75,397.625 650.875,387.375"/>
    <polyline points="662.0,382.125 674.0,376.625 687.125,371.25 701.125,366.0 715.875,361.25 731.125,357.25 746.5,354.375 761.125,353.125 774.375,354.125 785.375,357.75 793.0,364.375 796.875,374.25 796.375,387.0 791.625,402.125 783.25,419.125 771.875,437.125 758.375,455.125 744.0,472.5 729.25,488.75 714.875,503.5 701.25,516.75 688.625,528.25 677.125,538.125 666.625,546.5 648.625,559.375"/>
    <polyline points="641.0,564.125 634.125,568.125 622.25,573.75 612.25,577.25 607.875,578.375 600.0,579.75 593.125,580.5 584.0,580.75 567.125,580.625 561.25,581.0 557.625,581.625"/>
    <polyline points="555.875,582.0 551.125,583.375 545.625,586.125 542.0,588.875 538.125,593.625 536.0,598.0 534.625,603.25 534.25,607.25 534.625,614.25"/>
    <polyline points="535.0,616.875 535.625,619.625 537.625,625.625 540.625,632.5 542.625,636.125 547.75,644.375 551.0,649.0 559.375,659.0 564.5,664.5 577.125,676.5 593.625,689.625 603.375,696.5 614.25,703.5 626.25,710.375 639.125,716.875 652.875,722.75 667.125,727.5 681.375,730.75 695.25,732.125 708.125,730.875"/>
    <polyline points="719.25,727.0 728.125,720.125 734.375,710.375 737.75,698.0 738.25,683.5 736.125,667.5 731.75,650.625 725.625,633.5 718.5,616.875 710.5,601.0 702.25,586.25 694.0,572.625 685.875,560.5 678.125,549.625 670.875,540.0 664.0,531.625 657.625,524.25 646.375,512.5 641.375,507.75 632.5,500.125 618.5,490.375"/>
    <polyline points="615.625,488.75 610.375,485.875 598.875,480.375 593.75,477.625 591.875,476.25 589.75,474.125 588.375,472.0 587.875,469.5 588.0,467.75"/>
    <polyline points="588.125,466.875 588.75,464.875 590.375,461.75 592.875,458.375 596.25,454.5 602.375,448.875 608.375,444.25 615.5,439.375 627.125,432.625"/>
    <polyline points="630.375,430.875 637.375,427.5 644.875,424.375 652.875,421.5 660.875,419.125 668.875,417.625 672.75,417.25 676.375,417.125 682.75,417.875 685.5,418.875 687.75,420.25 689.5,421.875 690.75,424.0 691.375,426.625 691.375,429.375 690.875,432.625 689.75,436.125 685.75,443.625 683.0,447.625"/>
    <polyline points="679.875,451.75 668.375,463.625 659.625,470.875 650.5,477.5 646.0,480.375 632.625,487.75 620.125,493.125 608.75,496.75 595.375,499.5 584.25,500.625"/>
    <polyline points="581.75,500.75 571.0,500.375 561.375,498.75 554.75,496.375 552.375,495.0 549.625,492.375"/>
    <polyline points="549.25,491.75 548.375,490.0 548.0,487.25 548.625,483.5 551.5,477.25 556.125,470.625"/>
    <polyline points="557.125,469.375 561.75,463.875 566.125,459.25 573.5,452.25 583.25,444.0 592.5,436.875 604.0,428.875 623.875,416.625"/>
    <polyline points="629.875,413.375 643.25,406.5 658.375,399.625 675.375,393.125 693.5,387.625 702.75,385.625 711.875,384.25 720.5,383.75 728.375,384.375 735.375,386.125 740.875,389.125 744.75,393.625 746.75,399.5 746.875,406.75 744.875,415.125 741.125,424.375 735.625,434.25 728.75,444.5 720.75,454.75 712.125,464.75 703.0,474.375 693.75,483.375"/>
    <polyline points="684.5,491.625 666.625,505.75 650.25,516.875 635.5,525.125 622.5,531.25 610.875,535.5 600.625,538.375 591.5,540.25 583.25,541.5 575.875,542.25 554.75,543.125"/>
    <polyline points="552.25,543.125 535.25,544.0 526.625,545.125 519.0,546.875 509.5,550.375"/>
    <polyline points="508.125,551.0 501.625,554.125 485.875,562.625 480.75,565.0 472.75,567.875 468.125,569.0"/>
    <polyline points="465.625,569.5 460.125,570.25 453.875,570.5 446.625,570.0 433.25,567.375 422.375,563.75 416.125,561.25 401.75,554.375 393.625,549.75 375.125,537.875 364.75,530.375 353.75,521.75 342.125,512.0 330.125,501.0 318.125,489.125 306.375,476.375 295.375,463.25 285.875,450.125"/>
    <polyline points="278.375,437.625 273.375,426.375 271.375,417.125 272.5,410.25 276.625,406.0 283.5,404.5 292.625,405.625 303.25,408.875 314.875,413.875 326.875,419.875 338.625,426.75 360.75,440.75 395.875,464.875 414.625,477.25 429.0,485.375 436.75,488.875 440.25,490.125"/>
    <polyline points="443.625,491.25 449.625,492.875 455.125,493.75 460.125,494.125 469.125,493.875 475.25,493.125 480.75,491.875 487.625,489.875 495.375,486.75"/>
    <polyline points="496.75,486.0 502.5,483.0 507.875,479.5 513.125,475.5 521.0,468.5 530.875,458.125"/>
    <polyline points="532.5,456.5 543.0,444.875 554.625,432.625 563.875,423.625 571.5,416.75 580.875,408.875 599.5,394.5 607.5,389.0 616.625,382.875 639.375,368.75"/>
    <polyline points="653.375,360.75 669.625,352.125 688.5,342.75 710.125,332.875 734.625,322.75 761.75,313.0 790.875,304.75 820.5,299.125 847.875,298.375 869.875,304.375 883.125,318.75 884.875,341.75 875.0,372.25 855.625,407.5 830.125,444.25 802.375,479.75 775.5,512.25 731.125,564.875 714.625,585.125 701.75,601.625 692.0,615.0 684.875,625.625 679.875,633.875 674.375,644.5"/>
    <polyline points="673.0,647.25 672.125,648.75 671.625,648.875 671.0,648.0 668.25,639.875 664.625,631.375 659.375,621.375 656.25,616.125 649.125,605.625 641.125,595.5 632.625,586.125 624.125,577.875 611.375,567.375 599.375,559.25"/>
    <polyline points="595.625,557.0 588.25,553.0 578.125,548.375 563.375,543.375 555.75,541.5 546.625,540.0 538.75,539.375 531.75,539.375"/>
    <polyline points="530.125,539.5 521.25,540.5 512.25,542.875 505.125,545.75 498.0,549.25"/>
    <polyline points="496.875,550.0 484.875,556.125 478.5,558.875 473.0,560.75 466.625,562.25 461.875,563.0 456.375,563.25 450.25,563.125"/>
    <polyline points="446.75,562.75 439.125,561.5 434.875,560.5 420.0,555.5 407.875,549.875 393.75,542.125 377.625,531.375 359.375,517.625 349.75,509.375 340.0,500.5 330.25,490.75 320.875,480.625 312.125,470.25 304.5,459.875 298.25,449.875 293.875,440.875 291.625,433.125 291.625,427.0 294.0,422.625"/>
    <polyline points="298.375,420.25 304.75,419.875 312.5,421.125 321.375,423.875 330.875,427.875 340.75,432.5 350.625,437.75 378.125,454.0 401.0,468.125 413.625,475.5 424.5,481.25 429.25,483.625 442.0,488.875 449.125,491.25 458.5,493.25"/>
    <polyline points="461.375,493.75 469.0,494.375 473.75,494.375 480.0,493.875 485.75,493.0 495.875,490.25 500.375,488.5 507.375,485.0"/>
    <polyline points="508.625,484.25 516.625,478.875 524.5,472.375 531.625,465.75 545.25,452.125"/>
    <polyline points="547.375,450.125 556.875,441.0 569.25,430.0 586.75,416.0 605.125,402.875 621.25,392.5 630.875,386.75 654.0,374.0 667.625,367.125 683.125,359.875 700.25,352.5 719.0,345.25 739.25,338.5"/>
    <polyline points="760.375,332.875 781.625,329.125 801.5,328.25 818.625,331.25 831.0,339.125 837.125,352.125 836.125,370.25 828.25,392.375 814.625,417.125 797.0,443.0 777.375,468.375 757.375,492.0 738.25,513.375 705.125,548.25 680.0,573.125 661.875,589.875 654.875,596.0 644.0,604.25 639.75,607.0 636.0,609.0 632.75,610.25 629.75,611.0"/>
    <polyline points="627.125,611.25 624.625,611.25 622.25,610.875 617.875,609.5 611.625,606.25 597.25,597.625 591.125,594.5 583.125,591.25 575.625,589.25"/>
    <polyline points="573.75,589.0 568.625,588.5 563.875,588.75 558.25,590.0 554.5,591.875 551.375,594.25 548.875,597.5 547.0,601.375 546.0,606.125"/>
    <polyline points="545.875,607.875 546.25,613.875 547.375,618.5 549.125,623.625 551.75,629.25 555.5,635.75 560.625,642.875 571.375,655.0 575.875,659.375 586.75,668.75 600.125,678.5 607.75,683.5 616.0,688.25 624.875,692.875 634.125,697.0"/>
    <polyline points="643.75,700.625 653.625,703.375 663.375,705.125 672.75,705.75 681.5,704.75 689.25,702.25 695.75,698.125 700.875,692.125 704.25,684.625 705.875,675.625 705.875,665.5 704.25,654.5 701.375,642.875 697.25,631.25 692.125,619.625 686.5,608.25 680.375,597.5 674.0,587.375 667.5,578.0 654.75,561.5 642.625,548.125 636.875,542.5 626.375,533.0"/>
    <polyline points="621.5,529.0 616.875,525.5 604.375,517.25 593.875,511.5 582.5,506.25 563.375,498.5 558.625,496.125"/>
    <polyline points="557.625,495.5 555.125,493.75 553.25,492.0 551.625,489.375 551.0,487.375 550.875,485.25 551.25,482.875 553.375,477.375"/>
    <polyline points="554.0,476.375 556.75,472.0 559.5,468.375 568.75,458.125 581.125,447.0 596.125,435.375"/>
    <polyline points="599.75,432.875 612.625,424.375 628.625,415.125 641.375,408.5 655.875,401.875 663.75,398.625 680.625,392.75 689.5,390.125 698.25,388.125 707.0,386.625 715.5,386.0 723.25,386.25 730.25,387.625 735.875,390.125 740.25,394.0 742.75,399.125 743.5,405.625 742.375,413.25 739.375,421.75"/>
    <polyline points="734.75,431.0 728.75,440.625 721.5,450.375 713.5,460.125 704.875,469.5 696.0,478.375 678.25,494.125 661.25,506.875 653.25,512.25 638.375,521.0 625.25,527.375 619.125,529.875 608.0,533.625 598.125,536.25 585.125,538.5 574.125,539.625"/>
    <polyline points="570.75,539.875 542.125,540.625 532.75,541.25 524.625,542.375 518.875,543.75"/>
    <polyline points="517.5,544.125 510.875,546.25 505.875,548.375 484.375,559.375"/>
    <polyline points="482.75,560.125 475.75,563.0 471.625,564.25 467.25,565.25 462.125,566.0 453.375,566.375 442.625,565.375 433.875,563.375 429.0,561.875 423.625,560.125 417.875,557.75 411.5,555.0 404.75,551.625 389.25,542.75"/>
    <polyline points="380.625,537.125 371.375,530.625 361.625,523.125 351.25,514.75 340.625,505.375 329.875,495.0 319.25,484.125 309.25,472.625 300.125,461.0 292.625,449.75 286.875,439.25 283.5,430.0 282.75,422.5 284.625,417.125 288.875,414.125 295.5,413.25 303.875,414.5 313.5,417.375 323.875,421.75 334.625,427.0 345.25,432.875 365.5,445.125 391.375,461.875"/>
    <polyline points="398.75,466.5 417.375,477.875 427.375,483.25 431.875,485.375 443.625,490.0 453.375,492.625 461.625,493.75 469.0,494.0 475.5,493.625 483.25,492.375"/>
    <polyline points="485.125,491.875 493.5,489.375 499.5,486.875 506.5,483.125 513.25,478.625 521.25,472.0"/>
    <polyline points="522.5,470.75 525.375,468.25 549.75,443.5 560.375,433.25 579.5,416.75"/>
    <polyline points="584.5,412.875 603.375,399.125 620.25,388.0 642.0,375.125 655.125,367.875 670.125,360.125 687.125,352.0 706.375,343.625 727.625,335.25 750.75,327.5 775.0,321.0 799.375,316.875 822.0,316.375 840.625,321.0 852.875,331.625 856.875,348.875 852.125,372.0 839.375,399.5 820.75,429.25 798.625,459.0 775.75,487.375 753.625,513.0"/>
    <polyline points="733.625,535.375 664.625,610.75 655.25,620.125 652.0,623.0 649.25,624.875 646.875,626.0 644.875,626.375 643.0,626.125 641.25,625.375 639.5,624.125 634.0,618.625 625.375,608.875 617.75,601.25"/>
    <polyline points="615.125,598.75 609.625,594.0 598.375,585.875 592.75,582.5 584.625,578.375 576.875,575.25 569.5,573.125 564.875,572.125 558.375,571.375 552.25,571.25"/>
    <polyline points="550.375,571.375 544.875,572.125 538.375,574.0 535.25,575.25 529.625,578.625 524.625,582.875 522.375,585.375 518.375,591.25 516.625,594.625"/>
    <polyline points="515.875,596.5 513.75,602.5 512.5,609.625 512.125,615.0 512.375,621.0 513.5,627.75 515.625,635.625 519.25,644.625 521.875,649.75 528.875,661.375 539.5,675.25 546.5,683.25 555.0,692.125 565.25,701.875 577.375,712.5"/>
    <polyline points="591.875,724.0 608.875,736.25 628.625,749.125 651.125,762.125 676.25,774.375 703.125,784.875 730.75,792.0 757.25,794.0 780.375,789.5 798.0,777.375 808.75,757.625 812.0,731.5 808.5,700.875 799.875,668.125 788.0,635.625 774.625,605.0 761.125,577.125 748.625,552.5 703.375,468.125 697.0,456.875"/>
    <polyline points="694.625,453.25 692.5,450.625 690.625,449.0 688.75,448.25 686.875,448.125 685.0,448.5 682.875,449.375 678.125,452.375 659.625,465.625 648.75,472.375 637.875,478.125 630.75,481.375 620.5,485.125"/>
    <polyline points="617.25,486.125 611.125,487.875 600.125,489.875 592.875,490.5 586.625,490.5 583.0,490.25 576.875,489.25 571.125,487.125 569.5,486.0"/>
    <polyline points="568.75,485.5 566.5,482.875 565.625,480.75 565.375,478.375 565.75,475.625 566.75,472.625 568.5,469.375 570.875,465.75 574.125,461.75"/>
    <polyline points="575.375,460.25 583.375,452.25 592.25,444.75 604.0,436.125 615.125,429.0 628.75,421.25 639.25,415.875 651.0,410.625 663.875,405.625"/>
    <polyline points="670.5,403.5 684.25,399.875 697.625,398.0 703.75,398.0 709.375,398.625 714.375,400.0 718.375,402.25 721.375,405.5 723.125,409.5 723.75,414.375 723.0,420.0 721.0,426.375 717.75,433.125 713.5,440.375 708.375,447.625 702.5,455.0 696.0,462.125 689.25,469.125 675.0,481.875 660.75,492.75 647.125,501.625"/>
    <polyline points="640.625,505.25 634.5,508.5 622.75,513.875 612.25,517.75 598.125,521.5 589.875,523.125 575.5,524.75 563.75,525.25 547.625,525.0"/>
    <polyline points="545.625,524.875 526.625,524.625 522.375,524.875 515.375,526.0"/>
    <polyline points="514.625,526.125 511.0,527.125 505.625,529.375 497.875,534.0"/>
    <polyline points="497.125,534.5 487.0,541.25 482.0,544.125 473.375,548.0"/>
    <polyline points="471.875,548.5 463.5,550.5 455.125,551.25 444.75,550.625 438.5,549.5 427.625,546.375 419.125,543.0 409.625,538.5 399.0,532.5 393.25,528.875"/>
    <polyline points="387.125,524.75 374.5,515.375 361.5,504.25 348.75,491.75 343.0,485.125 337.625,478.625 333.0,472.25 329.25,466.125 326.5,460.5 325.0,455.5 324.625,451.375 325.625,448.125 327.75,445.875 331.0,444.625 335.25,444.375 340.375,445.0 346.25,446.375 352.5,448.375 359.125,451.0 372.875,457.125 386.25,463.75"/>
    <polyline points="392.75,467.125 421.125,481.375 439.125,489.25 446.625,492.0 456.625,495.125 465.25,497.125 472.625,498.375 479.125,499.125 483.0,499.25"/>
    <polyline points="484.875,499.375 495.875,498.75 502.125,497.625 510.75,494.75 515.5,492.375"/>
    <polyline points="516.375,491.75 521.75,488.125 527.25,483.625 541.375,470.0"/>
    <polyline points="542.625,468.625 559.875,452.0 579.375,435.375 596.125,423.0 613.125,411.875 619.875,407.875"/>
    <polyline points="627.25,403.5 635.25,399.0 653.875,389.5 675.875,379.625 688.125,374.875 701.125,370.25 714.625,366.25 728.5,363.0 742.125,361.0 755.0,360.375 766.375,361.875 775.75,365.625 782.125,372.0 785.25,381.0 784.625,392.5 780.5,406.0 773.125,421.125 763.125,437.0 751.375,453.0 738.375,468.625 725.125,483.375 711.875,496.875 699.25,509.0 687.25,519.625"/>
    <polyline points="676.0,529.0 665.75,537.0 656.375,543.75 647.875,549.375 640.0,554.125 632.875,558.0 626.375,561.25 620.375,563.75 609.75,567.375 605.125,568.625 596.5,570.375 582.375,571.75 558.75,572.5"/>
    <polyline points="556.625,572.75 548.75,573.875 542.0,575.875 537.375,578.0 534.625,579.625 530.75,582.625 527.25,586.125 524.25,590.375 521.75,595.25"/>
    <polyline points="521.0,597.0 519.75,600.875 518.5,607.5 518.25,612.5 518.625,618.25 519.75,624.625 521.875,631.875 523.375,636.0 527.625,645.0 534.125,655.5 538.375,661.5 543.5,668.0 549.75,675.125 557.0,682.75 565.625,691.125 575.875,700.25 587.875,710.0"/>
    <polyline points="601.875,720.375 617.875,731.125 636.0,742.125 656.25,752.75 678.25,762.25 701.25,769.875 724.125,774.25 745.625,774.25 764.125,769.0 778.125,757.75 786.625,740.75 789.5,718.875 787.0,693.5 780.25,666.25 770.625,639.0 759.5,612.625 747.75,588.375 736.25,566.5 725.5,547.375 707.25,516.5 693.375,494.625 683.25,479.5 679.25,474.0"/>
    <polyline points="675.75,469.625 670.0,463.375 665.375,459.875 663.25,458.875 661.375,458.375 657.5,458.125 653.75,458.75 651.875,459.375 633.75,467.125 623.75,470.625"/>
    <polyline points="621.875,471.25 611.5,473.375 605.75,473.625 602.25,473.25 599.25,472.5 596.5,470.875 595.125,469.25 594.625,467.875"/>
    <polyline points="594.5,467.25 594.625,465.0 596.0,461.375 597.875,458.375 600.625,455.125 605.75,450.25 610.75,446.25 621.375,439.25"/>
    <polyline points="623.875,437.75 634.875,432.0 647.5,427.0 654.125,425.0 660.625,423.625 666.75,423.0 669.625,423.0 674.625,423.75 676.75,424.625 678.5,425.75 679.875,427.125 680.875,428.75 681.5,430.75 681.625,433.0 680.5,438.125"/>
    <polyline points="679.25,441.0 675.625,447.125 670.5,453.5 667.5,456.625 657.375,465.875 646.125,473.875 638.5,478.375 631.0,482.25 620.25,486.75 610.375,489.875 598.75,492.25"/>
    <polyline points="596.125,492.625 588.875,493.125 582.625,493.125 577.25,492.625 572.75,491.75 568.0,490.125 565.25,488.625 562.625,486.25 561.75,485.0"/>
    <polyline points="561.5,484.25 561.0,482.75 560.75,480.5 561.375,476.875 563.0,472.875 566.75,467.0 570.0,463.0 575.625,457.0"/>
    <polyline points="577.25,455.375 583.125,450.0 590.375,444.0 602.625,435.0 614.375,427.375 628.875,419.125 646.25,410.5 659.625,404.875 674.0,399.875 689.0,396.0"/>
    <polyline points="696.375,394.75 703.5,394.0 710.25,394.125 716.25,395.0 721.5,396.75 725.625,399.5 728.5,403.25 730.0,408.0 730.125,413.75 728.625,420.375 725.875,427.5 721.75,435.25 716.625,443.25 710.5,451.375 703.625,459.5 696.375,467.25 681.125,481.625 665.75,493.875 651.0,503.875 637.5,511.625 625.125,517.5"/>
    <polyline points="619.375,519.875 613.875,521.875 603.875,524.875 594.75,527.0 582.75,528.875 572.375,529.75 563.375,530.125 538.875,530.125"/>
    <polyline points="537.125,530.125 526.75,530.5 520.625,531.25 513.25,532.875 507.625,534.875"/>
    <polyline points="506.75,535.25 501.5,537.75 490.125,544.25 482.125,548.375"/>
    <polyline points="480.875,549.0 475.25,551.375 466.75,553.75 460.5,554.75 455.75,555.0 450.5,554.875 441.125,553.625 433.875,551.875 425.5,549.25 416.0,545.25"/>
    <polyline points="410.75,542.75 399.25,536.5 393.0,532.625 379.5,523.375 372.25,517.875 364.875,511.875 357.5,505.375 342.75,491.125 335.875,483.5 329.625,475.875 324.125,468.25 319.75,461.125 316.625,454.625 314.875,448.875 314.625,444.125 315.875,440.5 318.625,438.125 322.625,437.125 327.875,437.125 334.125,438.25 341.0,440.375 348.375,443.125 356.0,446.5"/>
    <polyline points="363.625,450.125 378.875,457.875 417.375,478.5 432.25,485.5 444.625,490.375 455.125,493.625 464.125,495.625 476.375,497.0"/>
    <polyline points="478.625,497.125 488.125,496.875 497.625,495.375 505.625,493.0 509.25,491.5 514.875,488.5"/>
    <polyline points="515.875,487.875 521.375,484.125 528.0,478.75 547.125,460.5"/>
    <polyline points="548.875,458.75 564.25,444.5 573.25,436.875 589.0,424.75 605.0,413.625 618.375,405.25 634.625,395.75 654.5,385.5 665.875,380.0 678.375,374.5"/>
    <polyline points="691.875,369.125 706.25,364.0 721.25,359.375 736.75,355.75 752.0,353.375 766.375,352.875 779.0,354.625 789.0,359.375 795.5,367.125 797.875,378.0 795.875,391.75 789.75,407.75 780.0,425.375 767.75,443.5 753.75,461.5 739.125,478.625 724.375,494.5 710.125,508.75 696.875,521.375 684.5,532.375 673.375,541.75 663.25,549.625 654.125,556.25 646.0,561.75 638.625,566.25 632.0,569.875"/>
    <polyline points="626.0,572.75 615.5,576.875 610.875,578.25 602.625,580.0 595.5,580.875 586.25,581.25 566.875,581.125 559.125,581.75 554.125,582.875"/>
    <polyline points="552.625,583.375 548.25,585.25 544.375,587.625 541.125,590.75 537.75,595.875 536.0,600.75 535.0,606.375 535.25,613.125 536.875,621.125"/>
    <polyline points="537.875,624.125 542.375,634.25 544.5,638.0 550.125,646.5 557.875,656.125 562.625,661.375 574.375,672.875 589.625,685.5 598.75,692.25 608.875,699.0 620.125,705.875 632.25,712.375 645.375,718.375 659.125,723.625 673.0,727.625 686.875,729.875 700.0,730.0 711.75,727.625 721.75,722.375 729.25,714.375"/>
    <polyline points="734.0,703.625 736.0,690.5 735.375,675.625 732.25,659.5 727.25,643.0 720.875,626.375 713.375,610.375 705.5,595.25 697.25,581.25 681.375,557.0 673.875,546.875 660.125,530.0 648.25,517.25 638.125,507.625 625.625,497.75 615.75,491.25 610.25,488.25"/>
    <polyline points="607.75,487.0 594.875,480.75 590.25,478.0 587.875,475.875 586.75,474.375 585.75,472.125 585.5,469.5 586.125,466.75"/>
    <polyline points="586.5,465.75 586.875,464.625 589.625,460.125 592.75,456.375 596.875,452.25 602.0,447.75 610.875,441.25 616.25,437.75 622.125,434.125 632.375,428.75"/>
    <polyline points="636.0,427.0 643.875,423.5 652.25,420.375 660.875,417.75 669.375,415.875 677.5,415.125 681.25,415.125 684.75,415.625 687.75,416.5 690.375,417.875 692.375,419.5 693.875,421.75 694.75,424.375 694.875,427.375 694.5,430.75 693.375,434.375 691.625,438.375 689.25,442.5 686.375,446.75 679.25,455.5"/>
    <polyline points="675.125,459.75 666.25,468.0 656.75,475.5 651.875,478.875 642.375,484.75 628.5,491.875 615.75,496.875 604.375,500.125 594.25,502.125 588.25,502.875 577.625,503.375"/>
    <polyline points="575.375,503.375 565.25,502.625 559.0,501.625 555.125,500.625 550.125,498.625 547.25,496.875 545.25,494.875"/>
    <polyline points="544.875,494.375 544.25,493.25 543.625,491.0 543.625,488.375 544.125,486.25 545.75,482.25 549.875,475.5"/>
    <polyline points="550.75,474.5 554.375,469.75 560.625,462.75 573.25,450.625 583.625,442.0 597.375,431.75 601.5,429.0"/>
    <polyline points="606.0,426.0 621.625,416.375 641.25,405.875 656.75,398.625 674.375,391.5 693.5,385.5 703.375,383.125 713.0,381.375 722.375,380.625 731.125,380.875 738.75,382.5 745.0,385.375 749.5,390.0 752.0,396.0 752.25,403.5 750.375,412.375 746.375,422.25 740.625,432.875 733.375,443.75"/>
    <polyline points="724.875,454.75 715.625,465.5 706.0,475.625 696.25,485.25 686.5,494.0 677.0,501.875 667.875,508.875 659.125,515.125 643.125,525.125 635.875,529.125 622.625,535.25 610.875,539.625 605.625,541.125 600.625,542.5 587.25,545.0 579.375,546.0 566.0,546.875"/>
    <polyline points="563.0,546.875 545.25,547.5 533.25,548.625 523.25,550.625 514.375,553.625"/>
    <polyline points="512.875,554.25 506.0,557.5 484.875,569.5 477.25,573.0 472.875,574.625"/>
    <polyline points="470.5,575.375 459.25,577.375 452.25,577.5 444.125,576.875 434.375,575.0 422.625,571.375 415.875,568.75 408.375,565.375 400.0,561.125 390.875,556.0 380.75,549.75 369.625,542.25 357.5,533.375 344.375,523.0 330.5,511.125 316.125,497.625 301.625,482.875 287.5,467.0 274.625,450.625"/>
    <polyline points="263.75,434.625 255.875,419.875 251.75,407.125 251.75,397.5 255.875,391.375 263.75,389.0 274.5,390.25 287.375,394.375 301.375,400.75 315.5,408.625 329.375,417.25 342.5,426.125 354.5,434.875 375.125,450.75 398.25,469.125 414.375,481.25 422.625,486.75 432.625,492.0"/>
    <polyline points="435.625,493.125 441.0,494.75 446.0,495.75 450.625,496.125 457.125,496.125 463.25,495.5 472.75,493.625 481.25,491.125 486.125,489.375"/>
    <polyline points="487.625,488.75 492.125,486.75 499.125,483.0 505.625,478.625 510.75,474.625 514.5,471.25 520.875,464.875"/>
    <polyline points="522.125,463.5 531.875,452.375 541.75,440.25 555.25,424.875 564.625,415.125 577.25,403.375"/>
    <polyline points="582.5,398.875 588.375,394.0 603.125,382.75 622.875,369.125 635.375,361.25 650.25,352.375 667.75,342.625 688.375,331.75 712.875,320.0 741.375,307.5 773.875,295.125 809.75,284.0 846.75,276.125 881.375,274.625 908.375,282.625 922.25,302.5 919.625,334.5 901.375,376.0 871.875,422.125 837.5,468.25 773.625,547.875 749.375,579.25 730.875,605.125"/>
    <polyline points="717.875,626.125 709.5,642.875 704.75,656.125 702.875,666.0 703.0,673.0 704.375,677.25 706.375,679.125 708.375,678.625 710.0,676.0 710.875,671.5 710.75,665.25 709.5,657.625 707.25,648.875 703.875,639.375 699.625,629.5 694.625,619.5 689.125,609.5 683.125,599.875 676.875,590.625 670.5,582.0 664.125,574.0 651.625,559.875 645.625,553.75 634.25,543.375"/>
    <polyline points="628.875,538.875 614.375,528.375 605.75,523.125 598.125,519.0 585.0,513.0 572.125,508.125 556.375,502.625"/>
    <polyline points="555.125,502.125 549.0,499.25 545.125,496.25 543.625,494.125 543.0,492.375 543.0,488.625"/>
    <polyline points="543.125,487.875 545.125,482.5 548.5,476.875 552.75,471.25 561.375,461.625"/>
    <polyline points="562.875,460.125 572.375,451.125 585.625,440.125 596.125,432.375 614.375,420.375 632.375,410.125 646.75,402.875 654.75,399.25 672.25,392.0"/>
    <polyline points="681.625,388.75 691.375,385.75 701.25,383.125 711.125,381.25 720.75,380.25 729.625,380.125 737.75,381.375 744.375,384.0 749.375,388.25 752.375,394.0 753.25,401.25 751.875,409.875 748.375,419.625 742.875,430.25 735.875,441.25 727.5,452.375 718.375,463.25 708.625,473.75 698.75,483.5 688.875,492.5 670.0,508.0 652.75,520.0 637.5,528.875"/>
    <polyline points="630.5,532.375 624.0,535.375 612.125,539.875 601.75,542.875 592.375,544.875 584.125,546.125 569.875,547.375 552.875,547.875 539.5,548.625"/>
    <polyline points="537.5,548.875 530.125,549.875 522.0,551.75 517.5,553.25 510.375,556.25 499.25,562.375"/>
    <polyline points="497.75,563.25 488.5,568.75 479.375,573.375 472.875,575.875 465.125,577.875 459.0,578.625 452.0,578.875 443.75,578.25 433.75,576.25"/>
    <polyline points="428.0,574.625 414.75,569.625 406.875,566.125 388.75,556.25 378.25,549.625 366.75,541.75 354.125,532.375 340.5,521.5 326.125,508.875 311.125,494.625 296.125,479.125 281.625,462.5 268.625,445.5 258.125,429.125 250.75,414.125 247.5,401.625 248.625,392.625 254.125,387.375 263.25,386.125 275.25,388.375 289.0,393.5 303.625,400.75 318.25,409.375 332.25,418.5"/>
    <polyline points="345.25,427.75 367.75,445.0 405.0,475.375 414.5,482.625 422.25,487.875 425.625,489.875 431.75,492.875 439.75,495.5 446.875,496.625 451.375,496.875 457.625,496.5"/>
    <polyline points="459.75,496.25 469.375,494.625 478.25,492.25 489.375,488.125 496.625,484.5 500.625,482.125"/>
    <polyline points="502.0,481.25 509.75,475.625 516.0,470.0 523.75,462.0 535.25,448.5"/>
    <polyline points="536.875,446.5 550.75,430.125 565.5,414.625 583.875,398.125 597.125,387.75 614.625,375.125 638.625,359.75 654.0,350.75 672.125,340.75 693.5,329.875"/>
    <polyline points="718.625,318.0 747.75,305.625 780.875,293.5 816.75,283.0 853.125,276.5 886.25,276.75 910.5,287.0 921.0,309.25 915.125,343.125 894.375,385.5 863.875,431.375 829.625,476.375 767.875,553.125 744.875,583.125 727.5,607.75 715.25,627.75 707.5,643.75 703.125,656.125 701.375,665.5 701.5,672.0 702.75,676.0 704.625,677.5 706.5,676.75 707.875,674.0 708.5,669.5"/>
    <polyline points="708.25,663.25 707.0,655.75 704.625,647.25 701.375,638.125 697.125,628.5 692.25,618.75 686.75,609.125 680.875,599.75 668.5,582.375 662.25,574.625 656.0,567.375 644.0,554.875 632.75,544.625 627.5,540.375 622.5,536.5 613.0,529.875 600.625,522.625 589.875,517.375"/>
    <polyline points="586.75,516.0 573.125,510.625 554.75,504.5 550.0,502.625 544.875,499.875"/>
    <polyline points="544.25,499.375 542.5,498.0 541.0,496.0 540.0,492.875 540.375,489.125 542.0,484.75"/>
    <polyline points="542.5,484.0 545.75,478.625 550.625,472.125 560.625,461.125 569.875,452.375"/>
    <polyline points="572.0,450.375 582.5,441.625 589.0,436.625 605.25,425.25 621.125,415.5 627.375,412.0 641.375,404.625 649.125,400.875 657.5,397.0 675.75,389.625 685.5,386.25 695.625,383.25 705.875,380.75 716.0,379.0 725.875,378.25"/>
    <polyline points="734.875,378.5 742.75,380.25 749.25,383.5 753.75,388.375 756.0,395.0 756.0,403.0 753.75,412.5 749.25,423.0 742.875,434.25 734.875,445.75 725.875,457.25 716.125,468.375 706.0,479.0 695.75,488.75 685.75,497.625 666.75,512.75 649.625,524.375 634.625,532.875 621.375,538.875 604.625,544.625"/>
    <polyline points="599.625,545.75 590.625,547.625 575.25,549.375 545.0,550.625 529.625,552.625"/>
    <polyline points="527.875,553.0 518.5,555.875 514.0,557.75 504.125,563.0 490.625,571.625"/>
    <polyline points="489.0,572.625 477.625,578.625 473.0,580.5 467.875,582.125 458.75,583.75 455.25,584.0 447.125,583.75 442.625,583.25 431.875,581.125 425.625,579.25 418.75,576.75 411.0,573.5 402.375,569.375 392.75,564.25 382.0,557.875"/>
    <polyline points="370.0,550.0 356.75,540.625 342.25,529.375 326.625,516.125 310.0,500.875 293.0,483.875 276.25,465.25 260.625,445.875 247.625,426.75 238.125,408.875 233.375,393.875 233.875,382.75 239.5,376.25 249.75,374.625 263.375,377.375 279.125,383.625 295.625,392.25 311.875,402.375 327.25,413.125 341.25,423.75 364.625,443.375 382.25,459.375 395.25,471.75"/>
    <polyline points="400.375,476.625 408.875,484.5 418.625,492.375 423.875,495.625 428.75,497.75 433.375,499.0 437.875,499.75 444.375,499.875 455.125,498.875 463.25,497.375"/>
    <polyline points="465.25,497.0 478.25,493.625 486.75,490.75 495.875,486.75 501.5,483.75 505.5,481.125"/>
    <polyline points="506.875,480.25 514.75,474.25 520.0,469.5 531.375,457.875 543.625,444.375"/>
    <polyline points="545.75,442.125 555.375,432.0 568.625,419.5 582.25,407.875 594.375,398.5 609.875,387.5 630.25,374.5 642.75,367.0 657.375,358.875 674.25,350.0 693.75,340.5 716.0,330.5 741.125,320.5 768.75,311.125 798.0,303.375"/>
    <polyline points="827.125,299.0 853.5,299.75 873.375,307.625 883.875,324.125 882.75,349.0 870.25,380.75 849.125,416.5 822.875,453.0 795.25,487.75 769.125,519.25 726.625,569.625 711.0,588.75 698.875,604.375 689.75,617.0 678.5,634.75 672.125,647.125 671.25,648.25 670.75,648.125 670.125,647.125 667.125,638.625"/>
    <polyline points="665.375,634.625 660.875,625.25 658.0,620.125 651.375,609.875 647.625,604.625 639.625,594.75 631.25,585.625 627.0,581.5 614.375,570.5 602.25,561.875 594.625,557.25 587.375,553.375 580.625,550.25 574.25,547.75"/>
    <polyline points="571.25,546.625 562.75,544.0 557.625,542.75 550.5,541.375 544.0,540.625 538.25,540.25 529.625,540.375 520.75,541.625"/>
    <polyline points="519.375,541.875 512.875,543.75 505.625,546.625 487.875,555.75"/>
    <polyline points="486.5,556.5 478.5,560.0 468.625,563.0 461.375,564.125 452.75,564.375 442.125,563.25 433.625,561.25 423.625,558.0 411.875,553.0"/>
    <polyline points="405.375,549.75 398.25,545.875 382.375,536.0 373.5,529.75 364.25,522.75 354.5,514.875 344.5,506.125 334.375,496.5 324.375,486.375 314.875,475.625 306.25,464.75 298.875,454.125 293.25,444.25 289.625,435.375 288.375,428.0 289.5,422.5 292.875,419.0 298.5,417.5 305.875,418.125 314.625,420.25 324.125,423.875 334.25,428.375 354.375,439.25 364.0,445.0"/>
    <polyline points="373.125,450.625 410.375,473.625 426.625,482.5 435.625,486.625 447.0,490.75 459.375,493.5 469.625,494.25 478.375,493.75"/>
    <polyline points="480.375,493.5 489.5,491.625 494.375,490.125 500.5,487.625 504.75,485.625 508.75,483.25 514.125,479.75 518.0,476.75"/>
    <polyline points="519.375,475.625 524.75,471.0 532.0,464.125 555.375,440.875 567.625,429.875"/>
    <polyline points="571.25,426.625 579.75,419.75 596.0,407.5 610.25,397.875 628.125,386.625 638.875,380.375 664.875,366.625 680.25,359.125 697.625,351.375 716.75,343.75 737.625,336.5 759.625,330.25 782.0,325.75 803.375,324.125 822.0,326.375 835.875,333.75 843.25,346.625 843.0,365.125 835.375,388.125 821.375,414.125"/>
    <polyline points="803.0,441.25 782.375,468.0 761.375,493.0 741.375,515.5 723.25,535.125 693.625,566.125 672.25,587.5 657.5,601.375 651.875,606.25 643.25,612.625 639.875,614.5 637.0,615.625 634.375,616.25 632.0,616.375 629.75,616.0 625.625,614.5 621.5,612.125 615.375,607.5"/>
    <polyline points="613.25,605.875 604.625,599.375 600.125,596.375 591.125,591.125 584.5,588.125 576.125,585.375 572.125,584.5 566.375,583.75 561.125,583.875"/>
    <polyline points="559.5,584.0 554.75,584.875 549.25,587.125 545.75,589.625 542.75,592.75 540.25,596.625 538.625,601.25 537.75,606.75 538.0,613.375"/>
    <polyline points="538.5,615.875 540.75,624.125 543.5,630.5 547.5,637.75 553.125,645.875 556.625,650.375 565.25,660.125 576.625,671.0 583.5,676.875 599.875,689.125 609.375,695.5 619.875,701.625 631.125,707.625 643.25,713.125 655.875,717.875 668.625,721.375 681.375,723.375 693.375,723.5"/>
    <polyline points="704.25,721.5 713.625,717.0 720.75,709.875 725.625,700.5 728.0,688.875 727.875,675.5 725.625,661.0 721.5,645.875 715.875,630.625 709.25,615.625 702.0,601.375 694.375,588.0 686.625,575.75 671.75,554.625 658.0,537.75 646.0,524.875 630.75,511.0 622.25,504.5 614.875,499.625"/>
    <polyline points="611.5,497.625 600.5,491.625 587.25,485.375 582.375,482.5 578.5,478.875 577.25,476.5 576.875,474.75"/>
    <polyline points="576.875,473.875 577.125,471.125 578.125,468.0 580.75,463.5 586.25,456.75 594.625,449.0 606.625,439.75"/>
    <polyline points="609.5,437.875 612.625,435.75 627.125,427.25 645.0,418.625 660.375,412.875 665.75,411.25 676.5,408.75 681.75,408.0 686.75,407.625 691.375,407.75 695.75,408.375 699.5,409.5 702.625,411.125 705.125,413.5 706.625,416.5 707.375,420.0 707.25,424.125"/>
    <polyline points="706.25,428.625 704.25,433.625 701.5,438.875 698.0,444.375 689.25,455.5 684.125,461.0 673.125,471.375 661.625,480.625 655.75,484.75 644.375,492.0 628.375,500.25 618.5,504.25 609.5,507.25 597.25,510.25 590.0,511.5"/>
  </g>
</svg>
