<?xml version="1.0" encoding="utf-8" ?>
<svg xmlns="http://www.w3.org/2000/svg" xmlns:cc="http://creativecommons.org/ns" xmlns:dc="http://purl.org/dc/elements/1.1/" xmlns:ev="http://www.w3.org/2001/xml-events" xmlns:inkscape="http://www.inkscape.org/namespaces/inkscape" xmlns:rdf="http://www.w3.org/1999/02/22-rdf-syntax-ns" xmlns:sodipodi="http://sodipodi.sourceforge.net/DTD/sodipodi-0.dtd" xmlns:xlink="http://www.w3.org/1999/xlink" baseProfile="tiny" height="27.09333333cm" version="1.2" viewBox="0 0 1024.0 1024.0" width="27.09333333cm">
  <metadata>
    <rdf:RDF>
      <cc:Work>
        <dc:format>image/svg+xml</dc:format>
        <dc:source>vpype read './original_svgs/Strange Attractors #126.svg' linemerge linesimplify write './Strange Attractors #126.svg'
</dc:source>
        <dc:date>2024-08-05T01:35:28.552176</dc:date>
      </cc:Work>
    </rdf:RDF>
  </metadata>
  <defs/>
  <g fill="none" id="layer1" inkscape:groupmode="layer" inkscape:label="1" stroke="black" stroke-width="0.7mm" style="display:inline">
    <polyline points="594.125,178.25 638.0,209.5 664.625,226.875 678.875,231.375 683.0,224.625 677.875,207.75 662.625,181.375 635.125,146.375 592.125,104.875 531.0,62.0 451.875,28.375 362.5,18.625 278.875,44.125 217.5,102.5 184.5,176.5 173.875,246.875 175.5,302.0 181.25,338.375 187.25,357.25 192.25,361.25 197.25,353.625 203.75,337.375 213.375,316.0 227.75,293.0 247.375,271.875 271.625,255.25"/>
    <polyline points="299.125,244.625 327.625,240.5 355.125,241.625 379.875,246.625 401.25,253.75 418.75,261.875 432.625,270.0 443.25,277.625 451.0,284.375 456.375,290.5 459.75,295.75 461.75,300.625 462.375,305.0 462.125,309.125 461.375,313.25 455.375,330.375 452.75,340.125 451.875,345.25 450.875,355.875 451.125,366.625"/>
    <polyline points="451.75,372.0 452.5,377.25 453.625,382.375 454.75,387.375 456.25,392.25 459.375,401.5 464.75,414.0 470.5,425.0 479.75,440.0 488.25,451.5 492.875,457.0"/>
    <polyline points="494.375,458.625 499.75,464.375 503.5,467.75 509.25,471.875 512.5,473.625 516.375,475.125 520.25,475.75 522.125,475.75"/>
    <polyline points="523.0,475.75 525.75,475.375 529.5,474.25 536.125,470.625 542.125,465.75 547.375,460.375"/>
    <polyline points="548.5,459.125 551.875,455.125 557.75,447.0 562.5,439.0 566.0,432.0 569.25,423.75 572.0,414.25 573.5,407.0 574.5,398.875"/>
    <polyline points="574.75,394.5 574.75,389.75 574.0,379.5 571.875,368.0 570.125,361.75 568.0,355.25 565.125,348.375 561.625,341.125 557.375,333.625 552.25,326.0 546.25,318.25 539.25,310.5 531.25,303.0 522.125,296.0 512.125,289.625 501.375,284.25 489.875,280.25 478.0,277.875 466.25,277.375 454.75,278.875 444.0,282.5 434.375,288.0 426.0,295.375 419.25,304.25"/>
    <polyline points="414.0,314.125 410.375,324.625 408.125,335.5 407.125,346.375 407.125,357.0 408.0,367.125 409.5,376.75 411.5,385.875 413.75,394.25 416.25,402.125 418.875,409.375 424.25,422.375 432.0,438.625 444.375,463.0 450.125,475.625"/>
    <polyline points="451.25,478.5 454.125,486.5 455.5,491.375 457.25,500.375 457.75,506.625 457.125,516.375 455.5,523.75 452.875,531.125"/>
    <polyline points="452.125,532.875 450.5,536.625 444.125,548.0 428.0,572.125 421.125,582.875 417.75,589.0"/>
    <polyline points="416.0,592.125 410.875,602.625 406.5,615.0 404.375,624.5 403.625,629.75 403.125,635.375 403.0,641.5 403.375,648.0 404.25,655.0 405.875,662.625 408.25,670.875 411.625,679.75 416.125,689.25 422.0,699.5 429.5,710.25 438.875,721.625 450.375,733.125 464.125,744.375 480.125,755.125 498.375,764.375 518.625,771.375"/>
    <polyline points="540.0,775.375 561.75,775.375 582.75,771.125 602.0,762.375 618.5,749.75 631.625,734.25 641.25,716.75 647.625,698.5 651.375,680.625 652.75,663.75 652.5,648.375 651.125,634.75 649.0,622.875 646.375,612.5 643.5,603.75 640.5,596.375 634.375,584.625 628.625,576.25 623.125,569.875 618.0,565.0 613.125,560.875"/>
    <polyline points="610.875,559.0 602.5,552.25 597.125,547.375 593.875,544.125 588.5,537.5 585.25,532.625 582.0,526.0 579.625,517.75"/>
    <polyline points="579.375,516.125 578.875,511.375 578.875,508.125 579.375,503.25 580.375,498.5 583.25,490.25 585.625,485.25 592.0,474.625"/>
    <polyline points="593.375,472.75 600.5,463.0 619.25,438.875 628.0,426.5 634.875,415.375 641.5,401.875"/>
    <polyline points="643.625,396.75 647.25,385.0 648.625,378.25 649.75,370.875 650.375,362.625 650.375,353.5 649.625,343.25 647.75,331.625 644.375,318.375 639.25,303.5 631.75,286.625 621.125,267.625 606.625,246.5 587.25,223.5 562.125,199.75 530.625,176.875 492.875,157.375 450.5,145.0 406.5,143.25 365.25,154.25 331.125,177.625 306.5,209.875 291.75,246.125 285.25,281.875 284.25,313.75"/>
    <polyline points="286.625,340.5 290.75,361.375 295.375,377.125 299.875,388.125 304.25,395.375 308.5,399.375 312.5,401.0 316.5,400.875 320.75,399.375 335.75,391.625 341.625,389.0 348.0,386.875 354.625,385.25 361.5,384.25 368.625,384.0 375.875,384.375 383.0,385.5 389.875,387.125 396.75,389.375 403.25,392.125 409.375,395.125 415.25,398.5 425.875,405.625"/>
    <polyline points="430.75,409.375 443.375,420.75 453.625,431.625 459.375,438.5 470.875,453.375 488.5,478.875"/>
    <line x1="489.5" x2="503.875" y1="480.375" y2="503.375"/>
    <polyline points="504.125,503.875 506.625,509.125 507.25,511.875"/>
    <polyline points="507.25,512.125 507.0,514.75 506.0,516.875 501.125,523.0"/>
    <line x1="500.875" x2="491.0" y1="523.375" y2="534.375"/>
    <polyline points="490.5,535.0 479.125,548.25 472.375,557.125"/>
    <polyline points="471.375,558.375 466.625,565.25 462.75,571.625 458.75,578.875 456.875,583.0 454.125,589.625 451.875,597.125 450.625,602.5 449.75,608.5"/>
    <polyline points="449.5,611.625 449.375,618.25 450.625,629.375 452.625,637.5 456.0,646.0 460.75,655.0 463.875,659.625 467.375,664.25 476.0,673.25 481.125,677.5 486.625,681.375 492.75,685.0 499.25,688.125 506.125,690.5 513.25,692.25 520.5,693.125 527.875,693.125 535.0,692.25 541.875,690.25"/>
    <polyline points="548.375,687.375 554.375,683.5 559.75,678.875 564.375,673.5 568.25,667.5 571.375,661.125 573.75,654.5 575.5,647.625 576.625,640.875 577.125,634.0 577.25,627.375 576.875,621.0 576.125,614.75 575.25,608.875 572.625,598.0 571.25,593.0 566.375,579.625 563.125,571.875 557.0,558.875"/>
    <polyline points="555.5,556.125 548.125,541.875 542.875,531.0 539.0,521.0 537.375,514.0"/>
    <polyline points="537.25,512.875 537.0,505.875 538.0,500.25 540.375,493.75 542.875,489.0"/>
    <polyline points="543.5,488.0 548.875,479.25 556.125,468.875 566.125,453.75"/>
    <polyline points="567.25,451.75 573.625,440.375 579.875,426.25 583.125,415.875 585.75,403.5 586.625,394.0 586.75,388.75 586.25,377.125 585.375,370.75 584.0,363.875 582.125,356.625 579.625,348.875"/>
    <polyline points="576.25,340.625 572.0,331.875 566.75,322.75 560.375,313.25 552.625,303.5 543.5,293.75 532.875,284.375 520.75,275.5 507.25,267.75 492.75,261.625 477.375,257.625 461.75,256.25 446.5,257.625 432.25,262.125 419.5,269.5 408.875,279.25 400.5,291.125 394.375,304.125 390.375,317.875 388.25,331.75 387.75,345.125 388.375,358.0 390.0,369.875 392.25,380.875 394.875,390.875 397.75,399.875"/>
    <polyline points="400.75,408.125 409.75,428.5 424.125,456.5 431.75,473.0 433.875,478.625 436.125,486.5 437.125,491.375 437.75,500.5"/>
    <polyline points="437.75,502.625 437.375,506.875 436.625,511.0 434.875,517.0 432.5,522.875 429.25,528.625 425.375,534.25 420.75,540.0 415.375,545.625 409.25,551.375"/>
    <polyline points="406.875,553.25 402.125,557.0 394.125,562.625 388.125,566.25 378.125,571.375 370.625,574.5 362.375,577.125 358.0,578.25 348.375,579.75 337.5,579.875 331.5,579.25 325.125,578.0 318.25,576.0 310.875,573.125 302.875,569.0 294.375,563.5"/>
    <polyline points="285.25,556.25 275.375,546.875 265.0,534.875 254.25,519.75 243.375,501.0 233.0,478.0 224.125,450.625 217.75,419.125 215.875,384.375 219.875,348.25 231.375,313.625 250.5,283.625 276.375,261.0 306.625,247.125 338.375,241.625 368.625,242.875 395.75,248.5 418.625,256.375 437.0,264.875 451.25,273.0 461.875,280.125 469.25,286.125 473.875,291.0 476.5,294.875 477.25,298.0 476.625,300.75"/>
    <polyline points="475.0,303.125 462.625,314.0 459.125,317.625 455.875,321.75 452.875,326.25 450.25,331.25 448.125,336.625 446.375,342.375 445.25,348.25 444.5,354.25 444.25,360.375 445.0,372.5 445.875,378.5 448.375,389.875 453.5,405.375 461.5,423.0"/>
    <polyline points="463.5,427.0 469.5,437.5 478.625,452.0 489.25,466.875 495.375,474.625 500.5,480.5"/>
    <polyline points="501.5,481.375 504.875,484.875 508.625,488.0 510.75,489.375 515.625,491.5 518.375,491.75"/>
    <polyline points="519.0,491.75 522.25,491.25 525.125,490.125 529.875,487.125 533.875,483.875"/>
    <polyline points="534.625,483.25 537.625,480.5 547.125,470.25 551.125,465.375 557.625,456.5"/>
    <polyline points="558.75,454.875 566.0,443.25 570.875,433.625 575.375,421.875 577.375,415.0 579.625,403.25 580.375,394.25 580.25,383.875 578.875,372.375"/>
    <polyline points="577.625,366.0 573.375,352.0 570.25,344.5 566.5,336.625 561.75,328.25 556.0,319.75 549.125,311.125 541.125,302.5 531.875,294.125 521.5,286.25 509.875,279.25 497.25,273.5 484.0,269.5 470.5,267.5 457.0,267.75 444.25,270.625 432.5,275.875 422.25,283.375 413.875,292.75 407.25,303.625 402.5,315.375 399.625,327.5 398.125,339.75 397.875,351.625 398.75,363.0"/>
    <polyline points="400.25,373.75 402.375,383.625 404.875,392.875 410.375,409.0 413.25,416.125 418.875,428.625 436.5,463.875 439.5,470.5 444.0,482.125 446.75,492.375 445.875,487.375 443.375,479.625 438.5,467.875 429.5,450.25 416.75,426.875 410.875,414.75 404.625,400.5 398.625,383.5"/>
    <polyline points="447.125,494.75 447.75,499.375 447.875,505.875 447.125,514.125 446.25,518.125 443.625,526.0 441.0,531.875 437.75,537.625 432.5,545.625"/>
    <polyline points="431.0,547.75 418.875,562.875 391.0,595.125 383.125,605.5 375.25,617.75"/>
    <polyline points="372.75,622.25 370.375,627.125 366.0,638.0 364.25,644.25 362.875,651.0 361.875,658.375 361.625,666.625 362.125,675.75 363.75,686.125 366.75,697.75 371.375,710.75 378.375,725.5 388.25,742.0 401.75,760.125 419.625,779.75 442.75,800.125 471.625,819.875 506.125,836.75 545.125,848.0 586.375,850.625 626.375,842.375 661.125,823.25 688.125,795.375 706.25,762.625 716.5,729.125"/>
    <polyline points="720.75,698.0 720.875,671.375 718.75,649.875 715.375,633.375 711.375,621.5 707.25,613.5 703.0,608.75 698.625,606.5 694.0,606.125 689.25,607.125 684.0,609.0 672.375,613.875 659.0,618.375 651.75,619.875 644.5,620.875 637.0,621.375 629.625,621.125 622.375,620.25 615.25,619.0 608.5,617.25 595.875,612.625 584.625,607.0"/>
    <polyline points="579.625,604.125 570.75,598.0 563.0,592.0 550.75,580.75 539.625,568.875 523.0,549.625"/>
    <polyline points="521.875,548.5 515.625,542.5 511.125,539.25 507.125,537.5 503.375,537.0"/>
    <polyline points="502.75,537.0 499.75,537.375 495.5,539.125 490.875,542.125 486.75,545.75"/>
    <polyline points="486.0,546.375 478.75,553.875 472.5,561.625 466.875,569.875 464.0,574.75"/>
    <polyline points="463.0,576.5 458.5,586.0 455.375,595.0 453.125,605.5 452.5,614.625 453.25,624.75 454.75,632.0 457.25,639.875 461.125,648.125"/>
    <polyline points="463.625,652.25 466.375,656.5 469.625,660.75 473.375,665.0 477.5,669.0 482.125,672.875 487.25,676.5 492.75,679.75 498.5,682.625 504.75,684.875 511.125,686.625 517.75,687.5 524.25,687.75 530.875,687.125 537.125,685.5 543.125,683.125 548.75,680.0 553.75,676.0 558.25,671.375 562.0,666.25 565.25,660.625 567.75,654.625 569.625,648.5 571.0,642.25 571.875,635.875 572.125,629.75"/>
    <polyline points="572.125,623.625 571.0,612.125 570.0,606.625 567.625,596.625 564.75,587.5 560.125,575.625 554.125,562.625 541.125,538.0"/>
    <polyline points="540.25,536.375 536.0,527.625 533.25,520.625 531.875,515.75 531.25,511.375 531.25,509.0"/>
    <polyline points="531.25,508.25 531.75,503.75 533.125,499.375 536.5,492.625 538.625,489.375"/>
    <line x1="539.125" x2="560.5" y1="488.625" y2="458.875"/>
    <polyline points="561.625,457.125 567.625,447.375 573.875,435.375 577.5,426.75 579.75,420.125 581.75,412.875 583.375,404.75 584.5,390.375 584.0,379.25 583.25,373.125"/>
    <polyline points="582.125,366.625 580.375,359.625 578.125,352.25 575.125,344.25 571.25,336.0 566.5,327.25 560.625,318.25 553.625,308.875 545.25,299.625 535.5,290.375 524.5,281.75 512.0,274.0 498.5,267.5 484.125,262.875 469.25,260.5 454.5,260.625 440.5,263.75 427.625,269.5 416.625,277.75 407.5,288.25 400.5,300.125 395.75,313.0 392.75,326.25 391.5,339.375 391.5,352.125 392.625,364.125"/>
    <polyline points="394.5,375.25 396.75,385.5 399.5,394.875 405.375,411.25 414.0,430.625 428.0,458.0 434.25,471.5 437.5,480.125 439.125,485.375 440.625,492.875"/>
    <polyline points="441.0,495.25 441.375,499.75 441.0,508.375 439.25,516.5 437.125,522.5 434.375,528.375 432.125,532.25 426.75,540.0 421.875,545.875"/>
    <polyline points="420.125,547.875 414.25,554.0 405.375,562.25 394.875,570.875 386.0,577.5 375.875,584.125 364.625,590.625 351.75,596.75 342.0,600.25"/>
    <polyline points="336.75,601.625 331.125,602.875 325.25,603.75 318.875,604.125 312.0,604.0 304.625,603.125 296.625,601.375 287.875,598.375 278.25,593.875 267.75,587.375 256.125,578.375 243.25,566.125 229.375,549.625 214.625,527.875 199.5,499.75 185.375,464.125 174.25,420.875 169.25,370.75 174.0,317.125 191.875,265.75 223.5,223.5 265.75,195.875 312.625,183.75 358.0,184.25 397.25,192.5 428.375,203.625"/>
    <polyline points="451.125,214.625 466.25,223.75 474.75,230.25 477.875,234.5 476.5,237.0 471.625,238.5 454.375,241.75 443.625,244.875 432.5,249.75 421.875,256.625 412.125,265.5 403.875,276.125 397.375,288.125 392.75,301.0 389.75,314.25 388.375,327.5 388.375,340.25 389.375,352.5 391.125,364.0 393.5,374.625 396.25,384.25 399.25,393.25 402.375,401.375 408.75,415.5"/>
    <polyline points="411.75,421.75 431.5,458.125 434.875,464.875 439.0,474.125 442.875,484.875 444.125,489.875 445.5,499.125 445.625,503.5"/>
    <polyline points="445.5,505.75 445.25,509.875 443.625,518.0 441.625,523.875 439.0,529.75 435.75,535.625 430.5,543.5 420.5,555.875"/>
    <polyline points="418.5,558.125 407.875,569.5 386.875,590.375 368.25,609.75 361.75,617.375 355.125,625.875 348.75,635.375"/>
    <polyline points="345.625,640.75 342.75,646.5 340.125,652.75 337.875,659.75 336.125,667.5 335.0,676.125 334.75,686.0 335.625,697.25 338.125,710.25 342.875,725.25 350.375,742.625 361.75,762.875 378.25,785.875 401.25,811.625 432.25,839.125 472.5,865.75 521.75,887.625 577.5,899.25 634.375,895.0 685.375,872.875 724.375,835.5 749.25,789.875 761.75,744.0 765.375,703.5 764.125,671.5 760.5,648.375"/>
    <polyline points="756.0,633.5 751.375,625.625 746.5,623.5 741.125,625.75 735.125,631.125 719.25,646.625 709.125,654.75 697.625,662.0 685.0,668.0 671.625,672.25 657.875,674.625 644.125,675.25 630.875,674.375 618.375,672.25 606.875,669.125 596.375,665.375 587.0,661.125 578.75,656.75 571.5,652.375 565.25,648.0 555.0,639.625 547.25,632.125 544.125,628.625"/>
    <polyline points="541.5,625.375 533.375,613.75 522.5,595.0 517.75,587.625 515.875,585.125 511.375,580.125"/>
    <polyline points="510.5,579.375 505.125,575.625 500.875,574.125 498.375,573.75 494.125,574.25 492.5,574.75 489.25,576.375"/>
    <polyline points="488.5,576.875 484.625,580.0 482.375,582.5 480.25,585.5 478.375,588.875 477.125,591.375 474.75,598.5 473.75,605.25"/>
    <polyline points="473.625,607.0 473.625,610.75 474.25,616.625 475.875,623.0 477.5,627.25 479.75,631.625 484.25,637.875 487.875,641.75 492.25,645.25 494.625,646.75 499.625,649.375 502.375,650.375 507.875,651.625"/>
    <polyline points="510.625,651.75 516.25,651.5 519.0,650.875 524.125,648.75 526.5,647.25 530.625,643.5 532.5,641.375 535.5,636.375 536.75,633.625 538.5,627.875 539.125,624.875 539.75,618.75 539.625,612.625 539.0,606.625 536.5,595.5"/>
    <polyline points="535.625,592.875 533.875,587.875 530.875,581.25 525.625,572.0 521.375,566.0 518.375,562.375 515.375,559.375 510.75,555.625"/>
    <polyline points="509.75,555.0 508.0,554.0 503.75,552.375 501.25,552.0 497.875,552.0 493.0,553.25 488.875,555.375"/>
    <polyline points="488.0,555.875 484.625,558.375 481.125,561.5 476.75,566.375 472.25,572.375 466.125,582.875"/>
    <polyline points="465.375,584.625 462.375,592.375 460.125,601.25 459.125,611.5 459.25,617.125 459.625,620.125 461.5,629.625 463.875,636.375 467.25,643.375 469.375,646.875 474.625,653.875"/>
    <polyline points="477.75,657.375 484.875,663.75 489.0,666.75 493.375,669.375 498.0,671.75 502.875,673.625 508.0,675.125 513.25,676.0 518.5,676.375 523.625,676.125 528.75,675.25 533.75,673.75 538.375,671.5 542.75,668.75 546.625,665.5 550.125,661.625 553.125,657.5 555.75,652.875 557.75,648.125 560.625,637.875 561.75,627.625 561.625,617.5"/>
    <polyline points="561.125,612.625 559.5,603.375 557.375,594.875 554.875,587.125 552.125,580.0 548.0,570.625 542.75,560.25 539.125,553.75 531.875,541.875"/>
    <line x1="531.0" x2="518.125" y1="540.5" y2="520.625"/>
    <polyline points="517.875,520.25 513.75,513.25 513.5,511.25 514.625,509.375 520.0,503.625"/>
    <line x1="520.25" x2="528.125" y1="503.375" y2="494.875"/>
    <polyline points="528.625,494.375 541.0,480.625 544.125,476.75"/>
    <polyline points="545.0,475.75 549.625,470.125 559.125,457.25 567.5,443.625 572.375,433.75"/>
    <polyline points="573.625,431.0 578.125,418.5 580.75,407.25 581.875,398.5 582.25,388.625 581.5,377.5 579.25,364.75 574.75,350.5 571.625,342.625 567.5,334.5 562.5,326.0 556.5,317.125 549.375,308.25 540.875,299.25 531.25,290.625 520.25,282.625"/>
    <polyline points="508.0,275.5 494.875,269.875 481.0,266.0 466.875,264.375 453.0,265.125 439.875,268.625 428.0,274.625 417.75,283.0 409.5,293.125 403.25,304.75 398.875,317.125 396.25,329.75 395.125,342.25 395.25,354.375 396.375,365.875 398.25,376.625 400.5,386.5 403.125,395.625 406.0,404.0 411.75,418.5 414.625,424.875 425.0,445.875"/>
    <polyline points="427.25,450.25 433.0,461.75 437.5,471.625 440.875,480.375 443.25,488.25 444.875,497.875 445.125,502.375 444.5,510.875 443.375,516.875"/>
    <polyline points="442.75,518.875 441.5,522.875 439.875,526.75 435.75,534.625 432.0,540.5 422.5,552.75 405.75,570.625"/>
    <polyline points="403.25,573.0 371.375,603.875 357.75,618.25 347.25,631.0 340.5,640.875 337.25,646.375 334.25,652.375 331.5,659.125 329.125,666.375 327.375,674.625"/>
    <polyline points="326.375,684.0 326.375,694.625 327.75,707.0 331.125,721.375 337.125,738.125 346.625,757.875 361.0,780.75 381.75,807.0 410.625,836.0 449.375,866.0 498.75,893.0 557.375,911.375 620.25,914.0 679.25,896.25 726.5,859.5 757.625,810.875 773.75,759.875 779.125,714.375 778.25,678.375 774.625,652.625 770.0,636.75 765.125,629.125 760.125,628.25 754.5,632.5 739.5,650.0"/>
    <polyline points="729.25,660.625 717.125,670.75 703.125,679.5 687.875,686.125 671.75,690.5 655.5,692.375 639.75,692.125 624.875,690.25 611.125,687.0 598.875,682.875 588.125,678.25 578.75,673.5 570.75,668.625 564.0,663.875 558.375,659.25 553.625,654.875 549.625,650.75 543.625,643.25 541.25,639.875 537.75,633.5 533.25,622.25"/>
    <polyline points="532.375,619.625 529.5,610.125 523.5,594.375 521.0,589.625 517.5,584.0 514.0,579.5 512.125,577.625"/>
    <polyline points="511.25,576.875 509.5,575.25 506.875,573.5 503.25,571.75 500.625,571.0 497.25,570.75 493.75,571.25 489.625,573.0"/>
    <polyline points="488.75,573.5 485.5,575.875 483.125,578.125 477.875,585.125 475.875,588.875 474.125,593.125 472.0,601.25"/>
    <polyline points="471.75,603.125 471.375,606.875 471.375,610.875 472.0,617.25 473.0,621.75 474.5,626.375 477.875,633.375 482.75,640.25 489.125,646.625 491.625,648.5 497.0,651.625 503.0,654.0"/>
    <polyline points="506.0,654.875 509.125,655.375 515.375,655.375 518.5,655.0 521.5,654.25 524.375,653.125 527.125,651.625 532.0,647.875 534.25,645.625 537.875,640.25 540.5,634.25 541.5,631.0 543.0,621.0 543.125,617.75 542.75,611.0 541.875,604.625 540.5,598.5"/>
    <polyline points="539.75,595.625 537.875,590.0 534.875,582.5 531.625,575.875 528.25,570.125 524.0,563.75 520.875,559.75 514.125,553.0"/>
    <polyline points="513.25,552.25 510.625,550.375 507.25,548.625 505.625,548.0 502.5,547.375 500.125,547.25 497.125,547.625 493.25,549.0"/>
    <polyline points="492.5,549.375 487.625,552.25 481.0,558.0 476.5,562.875 471.125,570.125"/>
    <polyline points="470.125,571.5 467.375,576.0 463.0,584.625 460.0,592.625 457.625,602.0 456.75,610.0 456.75,615.875 457.375,622.125 458.625,628.875"/>
    <polyline points="459.625,632.375 460.75,635.875 464.0,643.25 468.5,650.875 474.5,658.375 478.0,662.0 481.875,665.5 490.625,671.75 495.625,674.5 500.875,676.75 506.25,678.625 511.875,679.875 517.625,680.5 523.375,680.375 529.0,679.75 534.375,678.25 539.625,676.125 544.375,673.25 548.75,669.75 552.625,665.75 556.0,661.25 558.875,656.375"/>
    <polyline points="561.25,651.125 563.0,645.75 564.25,640.125 565.125,634.625 565.5,629.125 565.375,618.25 563.125,603.25 559.5,590.125 556.75,582.375 553.875,575.375 551.0,569.125 541.75,551.625"/>
    <polyline points="540.625,549.625 529.0,529.25 524.375,520.0"/>
    <polyline points="524.125,519.25 522.375,513.625 522.125,509.25 522.5,507.25"/>
    <polyline points="522.625,506.75 524.0,503.25 526.625,499.0 528.875,496.125"/>
    <line x1="529.25" x2="544.25" y1="495.625" y2="477.5"/>
    <polyline points="545.125,476.5 554.625,464.25 561.375,454.5 567.375,444.5 572.375,434.875"/>
    <polyline points="573.5,432.125 577.0,423.125 579.125,416.25 580.875,408.625 582.125,400.125 582.5,395.375 582.5,385.125 581.375,373.375 578.5,360.125 576.125,352.875 573.25,345.25 569.375,337.125 564.75,328.625 559.125,319.875 552.25,310.875 544.25,301.875 534.875,293.0 524.25,284.625"/>
    <polyline points="512.25,277.125 499.25,270.875 485.5,266.375 471.25,263.875 457.125,263.875 443.625,266.5 431.125,271.75 420.25,279.5 411.25,289.25 404.375,300.5 399.375,312.75 396.25,325.5 394.625,338.25 394.5,350.625 395.375,362.375 397.0,373.375 399.125,383.625 404.5,401.625 407.375,409.375 413.25,423.125 423.75,444.5"/>
    <polyline points="426.0,449.0 432.0,460.75 436.625,470.75 440.0,479.625 443.0,490.0 444.125,497.125 444.375,506.0 443.625,512.25 442.75,516.375"/>
    <polyline points="442.25,518.375 440.125,524.25 437.375,530.125 434.0,536.0 430.0,541.875 423.625,550.0 418.125,556.25 404.875,569.75"/>
    <polyline points="402.5,572.125 359.0,611.5 343.625,626.25 335.625,634.625 327.5,644.125 319.75,654.875 316.125,661.0"/>
    <polyline points="312.75,667.75 309.625,675.25 307.25,683.75 305.625,693.375 305.0,704.625 306.0,717.75 309.25,733.375 315.5,752.0 326.125,774.25 342.75,801.0 367.625,832.375 403.5,867.625 452.875,904.0 516.75,935.625 591.875,952.75 669.0,945.5 735.25,910.0 780.875,853.375 805.0,789.75 813.125,732.25 812.5,687.625 808.375,657.875 803.25,641.875 798.125,637.5 792.625,642.25 785.625,653.75"/>
    <polyline points="776.25,669.375 763.625,686.625 747.375,703.375 727.75,717.5 705.625,727.75 682.375,733.75 659.375,735.5 637.75,734.125 618.25,730.25 601.5,725.0 587.375,719.125 576.0,713.125 567.0,707.25 560.25,701.75 555.125,696.625 551.625,691.875 549.375,687.5 548.125,683.375 547.5,679.375 547.5,675.375 548.625,667.625 551.875,651.25"/>
    <polyline points="552.625,647.0 553.625,634.0 553.375,625.375 552.5,617.125 550.125,605.375 547.0,594.75 543.375,585.375 538.375,574.625 532.25,563.875"/>
    <polyline points="531.125,562.125 524.625,552.875 519.875,547.25 515.0,542.5 512.0,540.25 509.25,538.75"/>
    <polyline points="508.625,538.5 505.375,537.5 501.125,537.5 496.125,539.125 492.875,541.0"/>
    <polyline points="492.25,541.5 485.875,546.625 482.0,550.5 474.25,559.5 472.5,562.0"/>
    <polyline points="471.5,563.25 466.75,570.25 463.875,575.125 460.25,582.375 457.625,588.625 455.375,595.5 453.625,603.25 452.875,609.0 452.625,615.125"/>
    <polyline points="452.75,618.375 453.0,621.75 454.125,628.875 456.25,636.5 459.5,644.625 461.625,648.75 467.125,657.125 470.375,661.375 474.125,665.5 478.375,669.5 483.125,673.375 488.125,676.875 493.75,680.125 499.625,682.875 505.75,685.0 512.25,686.5 518.75,687.375 525.375,687.375 531.75,686.625 538.0,685.0 544.0,682.5 549.375,679.125"/>
    <polyline points="554.375,675.125 558.75,670.5 562.375,665.25 565.5,659.5 567.875,653.5 569.75,647.375 571.0,641.125 572.0,628.75 571.875,622.75 570.625,611.25 567.25,595.875 564.375,586.875 559.75,575.125 553.75,562.25 550.875,556.75"/>
    <polyline points="549.625,554.25 537.0,530.25 533.375,521.75 531.875,516.75"/>
    <polyline points="531.625,515.75 530.875,509.875 531.0,506.875 532.25,501.125 534.125,496.75"/>
    <polyline points="534.5,496.0 539.25,488.125 550.5,472.75"/>
    <polyline points="551.375,471.5 560.875,458.125 569.375,444.25 574.375,434.25 576.75,428.5 580.125,418.75"/>
    <polyline points="581.125,415.125 582.875,407.25 584.0,398.375 584.375,393.5 584.25,382.75 583.75,376.875 582.75,370.5 581.375,363.75 579.5,356.625 576.875,349.0 573.5,341.0 569.375,332.5 564.125,323.625 557.875,314.5 550.25,305.125 541.375,295.875 531.125,286.875 519.5,278.5 506.625,271.25 492.75,265.5 478.125,261.75 463.25,260.375 448.75,261.75"/>
    <polyline points="435.125,265.875 423.0,272.75 412.75,281.875 404.5,293.0 398.5,305.375 394.5,318.5 392.25,331.625 391.5,344.625 392.0,357.0 393.375,368.625 395.5,379.5 398.0,389.375 400.75,398.375 406.625,414.125 409.625,421.0 415.25,432.875 427.0,455.75 432.125,466.375"/>
    <polyline points="433.5,469.625 437.125,478.5 439.5,486.5 441.25,496.125 441.5,500.625 441.25,507.125 440.25,513.375 438.5,519.375 435.125,527.125"/>
    <polyline points="434.125,529.125 430.5,535.0 424.75,542.75 419.625,548.75 415.75,552.75 409.375,559.0 399.5,567.5 394.125,571.875 381.75,580.75"/>
    <polyline points="378.375,583.0 363.5,591.875 350.5,598.0 345.75,599.875 335.375,603.0 329.75,604.25 323.75,605.125 317.25,605.5 310.375,605.375 302.875,604.5 294.75,602.625 285.875,599.625 276.125,595.0 265.5,588.25 253.625,579.0 240.5,566.25 226.375,549.25 211.25,526.625 196.0,497.375 181.75,460.5"/>
    <polyline points="170.75,415.5 166.5,363.875 172.75,309.0 192.75,257.375 226.625,216.0 270.75,189.875 318.875,179.75 364.375,181.875 403.125,191.0 433.25,202.625 454.875,213.5 468.875,222.125 476.125,228.25 478.125,232.0 475.625,234.0 469.625,235.375 460.875,236.625 450.5,238.75 439.0,242.375 427.375,248.0 416.5,255.75 406.75,265.5 398.75,277.0 392.625,289.875 388.375,303.375 385.875,317.25"/>
    <polyline points="385.0,330.75 385.375,343.875 386.75,356.125 388.875,367.5 391.5,378.0 394.5,387.625 400.875,404.25 407.25,418.0 413.25,429.5 429.75,459.25 434.5,468.875 438.125,477.5 439.0,480.25"/>
    <polyline points="439.875,482.875 441.25,487.875 442.75,497.25 443.0,501.75 442.875,506.0 442.375,510.125 441.625,514.25 439.125,522.25 436.5,528.0 431.875,535.875"/>
    <polyline points="430.625,537.75 424.625,545.75 421.125,549.75 415.375,556.0 406.5,564.625 390.625,578.375 371.0,593.25"/>
    <polyline points="367.375,595.875 351.125,606.375 342.0,611.5 332.125,616.375 326.75,618.75 315.25,622.875 308.875,624.5 302.125,625.625 294.875,626.375 287.0,626.375 278.375,625.375 268.875,623.125 258.25,619.125 246.375,612.875 233.0,603.5 218.0,590.125 201.0,571.125 182.375,544.75 162.75,509.125 143.875,462.0"/>
    <polyline points="129.5,402.5 125.0,332.75 137.75,259.375 172.0,194.25 226.125,149.125 290.25,129.25 352.5,129.875 404.5,142.0 442.625,156.875 467.25,169.5 480.0,177.875 482.75,181.75 477.25,182.375 465.0,181.5 447.875,181.25 427.5,183.375 406.0,189.5 385.5,200.5 367.5,216.125 353.5,235.5 343.625,257.25 337.75,279.625 335.375,301.375 335.625,321.5 337.625,339.375 340.875,355.0"/>
    <polyline points="344.75,368.375 348.875,379.5 353.25,388.875 357.5,396.625 365.75,408.625 373.375,417.25 380.5,423.75 396.0,436.0 406.375,444.875 413.0,451.625 420.125,460.875"/>
    <polyline points="421.625,463.125 424.375,467.75 427.625,474.625 430.625,483.5 431.5,487.875 432.25,496.25 431.875,502.375 430.75,508.25 428.0,515.875"/>
    <polyline points="427.125,517.75 424.0,523.25 420.125,528.625 417.125,532.125 411.875,537.25 405.75,542.125 398.625,546.875 390.375,551.125 381.0,554.75 373.875,556.5"/>
    <polyline points="370.0,557.125 366.0,557.625 361.75,557.75 357.25,557.75 352.625,557.25 347.625,556.5 342.25,555.125 336.625,553.25 330.75,550.625 324.5,547.25 317.875,542.875 310.875,537.375 303.625,530.625 296.125,522.125 288.5,512.0 280.75,499.75 273.5,485.375 266.75,468.5 261.25,449.375 257.625,428.25 256.5,405.375 258.75,382.0 264.875,359.125 275.125,338.125 289.5,320.5 307.0,307.125"/>
    <polyline points="326.75,298.375 347.375,294.25 367.75,294.0 387.0,296.75 404.25,301.5 419.5,307.5 432.625,314.0 443.5,320.5 452.625,326.75 460.125,332.5 471.125,342.375 478.125,350.375 480.5,353.75 483.875,359.5 486.625,366.5 487.875,372.5 488.625,378.0"/>
    <polyline points="488.875,379.75 490.625,388.25 491.625,391.5 494.875,399.125 500.0,406.75 502.875,409.75 506.75,412.75"/>
    <polyline points="507.75,413.375 512.75,415.375 516.625,415.625 519.5,415.125 522.875,413.375 526.0,410.5 529.0,405.125"/>
    <polyline points="529.5,403.875 530.625,399.5 531.0,396.25 531.0,390.75 530.125,384.875 528.125,378.375 525.0,371.75 520.625,365.25 515.0,359.375 510.625,356.125"/>
    <polyline points="508.25,354.75 503.25,352.5 500.625,351.75 495.625,351.125 493.125,351.25 490.625,351.625 486.125,353.375 482.125,356.125 480.375,358.0 478.875,360.125 476.5,364.75 475.625,367.375 474.625,373.125 474.375,376.0 474.5,382.125 475.375,388.125 476.75,394.125"/>
    <polyline points="477.75,397.125 479.75,402.75 483.5,410.625 486.25,415.375 491.875,423.625 497.75,430.25 502.125,434.25 506.375,437.5 511.875,440.375"/>
    <polyline points="513.25,440.875 518.5,442.25 522.375,442.375 526.125,441.75 529.875,440.5 534.625,437.75 536.875,435.875 541.375,431.125 543.375,428.125"/>
    <polyline points="544.5,426.5 548.125,419.125 551.125,409.75 552.125,404.375 552.625,398.375 552.75,391.75 552.5,388.25 550.5,376.75 548.0,368.25 546.25,363.875 541.625,354.75 538.75,350.0 535.5,345.375"/>
    <polyline points="531.75,340.75 522.875,331.875 517.875,327.875 512.375,324.125 506.625,321.0 500.5,318.375 494.125,316.5 487.75,315.25 481.375,315.0 475.25,315.625 469.25,317.125 463.75,319.5 458.625,322.875 454.25,327.0 450.5,331.75 447.375,337.125 444.875,342.875 443.25,349.125 442.125,355.375 441.5,361.875 441.5,368.375 442.0,374.75 442.875,381.0 444.0,387.0 445.5,392.875"/>
    <polyline points="447.125,398.5 448.875,404.0 452.75,414.0 456.875,423.125 461.0,431.25 472.625,451.375 489.625,477.25"/>
    <polyline points="490.625,478.75 501.5,494.125 506.5,500.5"/>
    <polyline points="506.875,501.0 510.375,504.75 512.125,506.0 513.125,506.375 514.625,506.375 516.875,505.375"/>
    <polyline points="517.125,505.25 519.75,503.125 522.875,500.0"/>
    <line x1="523.25" x2="534.125" y1="499.75" y2="488.125"/>
    <polyline points="534.75,487.375 541.0,480.5 545.875,474.625 555.75,461.875"/>
    <polyline points="556.875,460.375 562.625,451.75 567.5,443.5 571.25,436.25 576.0,424.875 579.0,414.75 581.375,402.75 582.125,393.375 582.125,388.25"/>
    <polyline points="581.875,382.875 581.375,377.125 579.0,364.375 577.125,357.375 574.625,350.0 567.25,334.0 562.125,325.5 556.125,316.625 548.875,307.75 540.375,298.875 530.5,290.25 519.5,282.25 507.25,275.25 494.0,269.625 480.25,265.875 466.125,264.375 452.25,265.375 439.25,269.0 427.375,275.125 417.375,283.625 409.125,293.875 403.0,305.5 398.75,317.875 396.25,330.5"/>
    <polyline points="395.25,343.0 395.375,355.125 396.625,366.5 398.375,377.125 400.75,387.0 403.375,396.125 409.125,412.0 412.0,418.875 420.25,436.375 434.875,465.375 440.0,477.75 442.625,485.875"/>
    <polyline points="443.25,488.375 443.875,490.875 445.125,500.25 444.875,508.875 443.875,515.0 442.25,521.0 439.0,528.875 435.75,534.75 432.0,540.625"/>
    <polyline points="430.625,542.625 422.5,552.875 412.625,563.75 400.875,575.625 371.625,604.25"/>
    <polyline points="368.25,607.625 361.5,614.875 351.25,627.0 344.375,636.5 338.0,647.375 335.125,653.625 332.5,660.375 330.375,668.0 328.875,676.5 328.125,686.25 328.625,697.25 330.625,710.125 334.625,725.0 341.625,742.5 352.25,762.875 368.125,786.375 390.75,813.125 421.75,842.0 462.75,871.0 514.0,895.875 573.125,910.25"/>
    <polyline points="634.5,907.875 690.0,885.5 732.625,845.875 759.375,796.875 772.5,747.75 776.125,704.875 774.5,671.5 770.5,648.25 765.875,634.125 761.0,627.75 756.0,627.5 750.25,631.875 735.125,649.0 725.0,659.0 713.125,668.5 699.5,676.625 684.625,682.75 669.125,686.75 653.5,688.375 638.25,688.125 623.875,686.125 610.75,683.0 598.875,679.0 588.375,674.5 579.25,669.75"/>
    <polyline points="571.375,665.0 564.625,660.375 558.875,655.875 554.125,651.5 550.0,647.5 546.625,643.625 541.25,636.5 537.5,630.25 534.625,624.5 531.375,616.75 526.5,603.625 522.5,594.5"/>
    <polyline points="521.625,592.875 519.125,588.375 515.75,583.375 511.25,578.5 508.625,576.25 505.125,574.125 502.5,573.0 500.0,572.5"/>
    <polyline points="499.125,572.375 497.375,572.25 494.0,572.75 491.5,573.625 488.25,575.375 484.25,578.625 482.0,581.125 479.125,585.25"/>
    <polyline points="478.5,586.375 476.0,591.375 474.0,597.25 473.0,602.25 472.5,607.75 473.0,615.75 474.375,622.25 476.0,626.75 478.125,631.25"/>
    <polyline points="479.5,633.5 482.5,637.875 486.25,642.125 493.0,647.625 498.25,650.5 501.0,651.625 506.875,653.25 509.75,653.625 515.75,653.5 518.625,652.875 524.125,651.0 526.625,649.5 529.125,647.75 533.25,643.5 535.125,641.125 538.0,635.625"/>
    <polyline points="539.125,632.625 540.625,626.375 541.375,620.0 541.125,610.5 539.625,601.375 536.375,590.25 533.375,583.0 530.25,576.625 524.875,567.875"/>
    <polyline points="523.75,566.375 518.625,560.0 512.875,554.625 508.5,551.75 505.875,550.625 501.0,549.625"/>
    <polyline points="500.25,549.625 496.25,550.125 493.0,551.125 489.875,552.75 486.5,555.0 479.625,561.25"/>
    <polyline points="478.75,562.25 475.125,566.375 471.5,571.375 466.125,580.375 463.625,585.75 461.375,591.625 460.125,596.0 458.625,603.125"/>
    <polyline points="458.25,605.625 457.875,611.125 458.0,616.875 458.75,623.125 460.125,629.625 462.5,636.625 465.875,643.75 470.5,651.125 473.25,654.75 480.0,661.75 488.0,668.125 492.5,671.0 502.5,675.5 507.75,677.0 513.25,678.0 518.75,678.5"/>
    <polyline points="524.125,678.25 529.5,677.375 534.625,675.75 539.5,673.5 544.125,670.625 548.25,667.25 551.875,663.25 555.0,658.875 557.625,654.0 559.75,649.0 561.375,643.75 562.625,638.5 563.75,627.75 563.5,617.25 562.875,612.25 561.25,602.75 559.0,594.125 556.375,586.125 552.125,575.625"/>
    <polyline points="550.75,572.5 548.0,566.625 540.375,552.375 526.25,528.75"/>
    <polyline points="525.75,527.875 521.5,520.125 519.75,516.25 519.125,513.875"/>
    <polyline points="519.0,513.625 518.75,510.0 519.875,506.5"/>
    <polyline points="520.0,506.25 521.875,503.125 525.875,498.25"/>
    <line x1="526.125" x2="539.125" y1="497.875" y2="483.0"/>
    <polyline points="539.875,482.125 548.125,472.25 555.125,463.125 560.75,455.0 564.25,449.375"/>
    <polyline points="565.5,447.375 570.5,438.25 574.125,430.25 577.5,420.875 580.25,410.0 582.125,397.125 582.25,387.0 582.0,381.5 580.375,369.375 578.875,362.75 576.75,355.625 574.0,348.125 570.625,340.125"/>
    <polyline points="566.25,331.875 561.0,323.25 554.625,314.375 547.0,305.375 538.25,296.5 528.125,288.0 516.625,280.125 504.125,273.375 490.625,268.25 476.625,265.0 462.5,264.0 448.75,265.75 435.875,270.0 424.5,276.75 414.875,285.75 407.125,296.5 401.375,308.375 397.625,320.875 395.5,333.625 394.875,346.125 395.375,358.0 396.75,369.375 398.75,379.75 401.125,389.5 403.875,398.375 406.75,406.375"/>
    <polyline points="409.625,413.875 415.375,426.875 435.0,466.25 439.0,475.625 441.875,484.0 443.75,491.5 444.875,503.0"/>
    <polyline points="444.875,505.125 444.25,511.5 442.375,519.5 441.0,523.5 438.375,529.375 435.125,535.25 429.75,543.125 425.0,549.25 419.625,555.5"/>
    <polyline points="417.625,557.625 402.0,573.75 382.375,592.25 359.0,615.0 351.875,622.75 344.625,631.25"/>
    <polyline points="341.0,636.0 337.375,641.0 334.0,646.375 327.625,658.625 325.0,665.75 322.75,673.75 321.25,682.625 320.75,693.0 321.375,704.75 323.875,718.625 328.875,734.875 337.125,754.0 349.875,776.5 368.875,802.75 395.875,832.25 433.0,863.75 481.5,894.0 541.0,917.0 607.0,925.0 671.5,911.875 724.875,877.0 761.25,827.0 780.75,772.75 787.75,723.5 787.375,684.125"/>
    <polyline points="783.75,656.375 779.125,639.25 774.25,631.5 769.0,631.25 763.25,636.625 747.125,657.5 735.875,669.75 722.25,681.125 706.625,690.75 689.5,697.875 671.625,702.125 653.875,703.625 636.75,702.75 620.875,700.125 606.5,696.25 594.0,691.625 583.25,686.5 574.0,681.375 566.375,676.25 560.125,671.375 555.0,666.75 550.875,662.375 547.5,658.25 542.75,650.875"/>
    <polyline points="541.125,647.375 538.75,640.875 537.25,634.75 534.0,615.5 531.0,603.25 527.125,592.625 523.5,585.375"/>
    <polyline points="522.625,583.75 517.875,576.75 515.0,573.375 512.125,570.625 510.25,569.125 505.625,566.25 502.0,565.0 499.25,564.625"/>
    <polyline points="498.375,564.625 494.875,564.875 492.375,565.625 487.125,568.25 482.0,572.5 477.125,578.5"/>
    <polyline points="476.25,579.75 473.25,584.875 471.125,589.375 469.375,594.375 467.625,602.0 467.0,608.375 467.0,613.0 467.5,617.875 468.5,623.0 470.125,628.375"/>
    <polyline points="471.25,631.0 473.875,636.5 477.375,642.0 481.875,647.375 487.125,652.25 493.25,656.625 496.625,658.375 500.125,660.0 507.5,662.25 511.375,662.75 519.0,662.625 522.75,662.0 526.375,660.875 529.75,659.375 533.0,657.5 538.75,652.5 541.25,649.5 543.375,646.25"/>
    <polyline points="545.125,642.75 546.625,639.125 547.75,635.25 549.25,627.375 549.75,619.5 549.625,615.5 548.75,607.875 547.375,600.625 545.625,593.875 543.5,587.625 538.875,576.625 534.125,567.5 531.75,563.625"/>
    <polyline points="530.625,561.75 524.25,552.75 518.75,546.375 514.625,542.5 511.625,540.375 508.875,538.875"/>
    <polyline points="508.25,538.625 504.375,537.625 502.0,537.625 498.875,538.25 496.375,539.25 492.5,541.5"/>
    <polyline points="491.875,542.0 486.875,545.875 482.25,550.375 477.25,556.0 471.875,563.0"/>
    <polyline points="470.875,564.25 468.0,568.375 463.25,576.375 457.875,588.0 455.625,594.875 453.375,605.375 452.875,611.25 452.875,617.5"/>
    <polyline points="453.0,620.875 454.875,631.625 457.375,639.5 461.125,647.625 466.375,656.0 473.25,664.375 477.375,668.375 481.875,672.25 486.875,675.875 492.25,679.125 498.125,682.0 504.125,684.375 510.5,686.125 517.0,687.125 523.625,687.375 530.125,686.75 536.375,685.375 542.375,683.125 548.0,680.0 553.0,676.125"/>
    <polyline points="557.5,671.625 561.375,666.5 564.625,661.0 567.25,655.125 569.125,649.0 570.5,642.75 571.375,636.5 571.75,630.375 571.75,624.25 571.375,618.375 570.75,612.75 568.625,602.125 564.625,588.125 561.625,579.875 557.0,569.25 549.875,555.0"/>
    <polyline points="548.5,552.5 539.25,535.125 535.25,526.75 532.625,520.0 531.625,516.125"/>
    <polyline points="531.375,515.25 530.75,510.25 530.875,506.5 532.0,501.5 534.125,496.5"/>
    <polyline points="534.5,495.75 537.125,491.125 541.25,485.125 550.75,472.375"/>
    <polyline points="551.625,471.125 556.75,464.125 564.75,452.125 569.625,443.625 575.875,430.625 580.375,417.75"/>
    <polyline points="581.375,414.125 583.625,401.625 584.375,392.125 584.375,386.75 583.5,375.125 580.875,361.875 578.75,354.625 576.0,346.875 572.375,338.75 568.0,330.125 562.5,321.25 555.875,312.0 548.0,302.625 538.75,293.5 528.125,284.625 516.125,276.5 502.875,269.625 488.75,264.375 474.125,261.25 459.25,260.5 445.0,262.625"/>
    <polyline points="431.75,267.5 420.125,275.0 410.375,284.875 402.75,296.25 397.25,308.875 393.75,322.0 392.0,335.25 391.625,348.0 392.375,360.25 394.0,371.625 396.125,382.25 398.75,391.875 401.625,400.625 407.5,416.0 410.5,422.625 416.0,434.375 432.625,467.25"/>
    <polyline points="434.0,470.5 437.375,479.25 439.75,487.125 441.125,494.375 441.625,501.25 441.0,509.75 439.625,515.875 437.625,521.875 434.875,527.75"/>
    <polyline points="433.875,529.625 430.25,535.5 426.0,541.375 415.375,553.375 411.125,557.5 399.0,568.125 390.625,574.75 381.125,581.375"/>
    <polyline points="377.75,583.625 374.25,586.0 362.75,592.625 354.125,596.875 344.75,600.625 339.75,602.375 328.75,605.125 322.625,606.0 316.25,606.375 309.25,606.25 301.75,605.25 293.5,603.375 284.5,600.25 274.625,595.5 263.75,588.75 251.75,579.125 238.625,566.125 224.125,548.5 208.875,525.375 193.5,495.25 179.125,457.375"/>
    <polyline points="168.5,411.25 164.875,358.5 172.375,303.0 193.875,251.25 229.5,210.75 275.0,186.0 323.625,177.375 369.125,180.625 407.375,190.375 436.75,202.125 457.5,212.875 470.5,221.25 477.0,226.875 478.125,230.25 474.75,232.125 458.625,234.625 447.625,237.0 435.75,241.0 423.875,247.125 412.875,255.5 403.25,265.875 395.375,278.125 389.5,291.375 385.625,305.375 383.5,319.5"/>
    <polyline points="383.0,333.25 383.625,346.375 385.25,358.625 387.625,370.0 390.375,380.375 393.5,389.75 400.0,406.125 403.25,413.125 412.375,430.875 428.625,459.875 434.625,472.25 437.75,480.5"/>
    <polyline points="438.5,483.125 439.875,488.125 441.25,497.375 441.375,501.875 440.625,510.25 439.25,516.25 437.125,522.25 434.375,528.125 429.5,535.875"/>
    <polyline points="428.125,537.75 423.625,543.625 416.375,551.625 407.75,559.875 403.0,564.0 395.0,570.5 382.75,579.25 376.0,583.625 364.625,590.0"/>
    <polyline points="360.5,592.125 356.25,594.125 347.0,597.75 336.625,600.75 331.0,601.875 325.125,602.625 318.625,602.875 311.75,602.625 304.375,601.625 296.25,599.625 287.375,596.375 277.75,591.625 267.125,584.75 255.375,575.25 242.625,562.375 228.625,545.375 214.0,522.875 199.25,494.0 185.625,457.875 175.375,414.125 171.75,364.125 178.125,311.5 197.5,261.875 230.0,222.125"/>
    <polyline points="272.25,196.75 318.375,186.375 362.5,187.875 400.375,196.375 430.25,207.5 452.0,218.25 466.5,227.0 474.75,233.5 477.75,237.625 476.375,240.25 471.75,241.75 455.25,245.125 445.125,248.25 434.5,253.0 424.25,259.5 414.875,268.0 406.875,278.125 400.5,289.625 395.875,302.0 392.875,314.875 391.5,327.625 391.25,340.125 392.125,352.125 393.75,363.375 396.0,373.875"/>
    <polyline points="447.375,494.625 448.125,501.375 447.875,509.875 447.375,514.0 445.375,521.875 443.125,527.75 439.25,535.5 432.875,545.375"/>
    <polyline points="431.375,547.375 428.25,551.625 419.375,562.5 394.375,591.5 384.0,605.125 376.25,617.25"/>
    <polyline points="373.75,621.75 369.125,631.875 367.125,637.5 365.375,643.625 364.0,650.375 363.0,657.75 362.75,665.875 363.25,675.0 364.875,685.25 367.75,696.75 372.375,709.625 379.25,724.25 389.0,740.5 402.125,758.375 419.75,777.75 442.25,797.875 470.5,817.375 504.25,834.125 542.625,845.625 583.25,848.75 622.75,841.25 657.5,823.125 684.625,796.25 703.25,764.125 714.0,731.125"/>
    <polyline points="718.75,700.125 719.25,673.375 717.25,651.5 713.875,634.625 710.0,622.375 705.875,613.875 701.75,608.625 697.375,606.0 693.0,605.125 688.25,605.875 683.125,607.375 671.875,611.875 659.0,616.125 652.125,617.625 645.0,618.625 637.75,619.125 630.625,619.0 623.5,618.25 616.5,617.125 609.875,615.5 597.375,611.125 586.375,605.75"/>
    <polyline points="581.375,602.875 576.625,599.875 568.375,594.0 558.0,585.25 549.75,577.25 543.0,570.0 524.25,548.25"/>
    <polyline points="523.25,547.125 517.875,541.5 512.125,536.875 508.375,535.0 505.5,534.375"/>
    <polyline points="504.875,534.25 501.625,534.5 498.25,535.625 494.75,537.625 490.375,540.875"/>
    <polyline points="489.75,541.375 481.75,549.25 476.75,555.0 469.5,564.75"/>
    <polyline points="468.5,566.125 464.625,572.25 459.875,581.125 456.375,589.5 454.125,596.75 452.5,604.75 451.875,610.625 451.75,617.0 452.375,623.875"/>
    <polyline points="452.875,627.5 454.75,635.25 457.75,643.25 459.75,647.5 465.0,656.125 468.125,660.375 471.875,664.75 480.5,672.875 485.625,676.75 491.125,680.125 497.0,683.125 503.25,685.75 509.75,687.625 516.5,688.75 523.25,689.125 530.0,688.625 536.5,687.25 542.75,685.0 548.5,681.875 553.875,678.0 558.5,673.375 562.5,668.125"/>
    <polyline points="565.875,662.375 568.625,656.375 570.625,650.125 572.125,643.625 573.0,637.25 573.375,624.75 573.0,618.75 572.25,612.875 568.875,597.0 564.5,583.5 559.75,572.125 553.75,559.625 548.5,549.5"/>
    <polyline points="547.25,547.25 542.125,537.5 537.125,527.0 534.125,518.75 532.875,512.875"/>
    <polyline points="532.75,512.0 532.625,508.625 532.875,505.375 533.5,502.25 535.125,497.5 538.0,491.875"/>
    <polyline points="538.5,491.125 543.25,483.75 558.375,462.625"/>
    <polyline points="559.5,461.0 563.0,455.875 570.25,443.5 575.25,433.25 578.875,424.25 582.0,413.625 583.625,405.5 584.75,396.375 585.0,386.0"/>
    <polyline points="584.625,380.375 584.0,374.25 582.875,367.75 581.25,360.75 579.125,353.375 576.25,345.5 572.5,337.25 567.875,328.5 562.125,319.5 555.25,310.125 547.125,300.75 537.625,291.375 526.625,282.5 514.375,274.5 500.75,267.625 486.375,262.625 471.375,259.875 456.5,259.625 442.125,262.125 429.0,267.625 417.5,275.625 408.0,285.875 400.625,297.875 395.5,310.75 392.25,324.125 390.75,337.375"/>
    <polyline points="390.625,350.25 391.625,362.375 393.375,373.75 395.75,384.25 398.375,393.75 401.25,402.375 407.25,417.5 413.0,430.0 427.125,457.625 432.0,467.875 436.75,479.75 438.875,487.625"/>
    <polyline points="439.5,490.0 440.625,501.625 439.875,510.125 439.0,514.125 437.125,520.125 433.5,528.0 430.0,533.75 424.25,541.5"/>
    <polyline points="422.625,543.5 417.25,549.375 408.875,557.5 399.0,565.75 387.5,574.125 374.0,582.5 366.25,586.5 357.875,590.125 348.625,593.375"/>
    <polyline points="343.625,594.75 338.25,595.875 332.625,596.625 326.625,597.0 320.25,596.875 313.25,596.25 305.75,594.625 297.625,592.125 288.75,588.25 279.125,582.625 268.5,575.0 257.0,564.625 244.5,550.875 231.125,532.75 217.375,509.625 204.0,480.375 192.375,444.5 184.625,402.25 183.75,355.375 192.5,307.5 213.0,263.75 244.75,229.625 284.125,208.5 326.375,200.375 366.375,202.25 400.875,210.25"/>
    <polyline points="428.5,220.5 449.125,230.625 463.375,239.375 472.25,246.0 476.375,250.75 476.875,253.875 474.375,256.125 469.5,257.875 455.0,262.25 446.625,265.875 438.25,270.75 430.25,277.125 423.0,284.75 416.875,293.625 412.0,303.5 408.5,314.0 406.125,324.875 405.125,335.875 405.0,346.5 405.625,356.875 407.125,366.875 409.0,376.125 411.25,384.875 416.625,400.625"/>
    <polyline points="419.375,407.75 427.75,426.0 450.625,470.25 455.375,481.5 457.125,486.625 459.125,493.625 460.0,498.0"/>
    <polyline points="460.375,500.125 461.0,506.25 461.0,512.0 459.75,521.125 457.75,528.125 454.875,535.25 452.25,540.625 449.125,546.125"/>
    <polyline points="448.0,548.0 431.5,574.0 425.125,584.875 422.0,591.0 417.5,601.125 416.125,604.875 413.625,613.0 412.625,617.5"/>
    <polyline points="411.875,622.125 410.875,632.5 411.25,644.375 412.25,650.875 413.75,657.875 415.875,665.375 419.0,673.5 423.0,682.125 428.125,691.25 434.75,700.875 442.75,710.75 452.5,720.875 464.125,730.875 477.625,740.375 493.0,748.875 509.875,755.75 528.125,760.25 546.875,761.875 565.375,760.0 583.0,754.625 598.75,745.75 612.125,734.0 622.625,719.875 630.5,704.5"/>
    <polyline points="635.75,688.75 638.75,673.125 639.875,658.25 639.625,644.625 638.5,632.25 636.625,621.125 634.25,611.5 631.625,603.0 628.875,595.5 626.125,589.125 620.625,578.5 615.375,570.25 610.5,563.625 592.25,541.375"/>
    <polyline points="591.0,539.625 587.5,534.25 584.75,529.125 582.75,524.0 581.0,517.5 580.375,509.375 581.25,501.375 582.125,498.125"/>
    <polyline points="582.625,496.5 585.875,488.375 588.5,483.25 591.75,478.0 598.25,468.75 602.875,462.75 613.875,449.5"/>
    <polyline points="615.875,447.0 620.125,441.875 631.5,427.0 636.375,420.125 643.625,408.125 648.375,398.625 652.625,387.5 654.5,381.25 656.0,374.25 657.125,366.5 657.75,357.875 657.75,348.25 656.75,337.25 654.5,324.875 650.75,310.625 644.75,294.375"/>
    <polyline points="636.125,275.875 623.625,254.875 606.625,231.625 583.75,206.375 554.0,180.625 517.0,156.625 473.25,138.125 425.5,129.375 378.125,134.25 336.5,153.75 304.875,185.625 284.75,224.375 274.75,264.125 272.125,300.375 273.875,330.875 277.875,354.625 282.5,372.125 287.375,384.0 291.875,391.25 296.125,394.75 300.375,395.375 304.625,393.875 309.375,390.875 320.5,382.75 327.125,378.625"/>
    <polyline points="334.375,374.875 342.25,371.875 350.625,369.75 359.25,368.625 368.125,368.5 376.875,369.25 385.5,370.875 393.75,373.25 401.625,376.25 409.125,379.75 416.125,383.5 422.625,387.5 428.75,391.75 439.375,400.25 448.5,408.625 456.375,416.5 466.125,427.375 476.375,439.625"/>
    <polyline points="478.625,442.375 491.625,457.75 498.875,465.5 503.875,470.0 508.375,473.5 513.5,476.25"/>
    <polyline points="514.5,476.625 519.125,477.875 522.625,478.0 525.25,477.625 531.5,475.375 537.0,471.75"/>
    <polyline points="537.875,471.125 541.875,467.75 546.0,463.625 553.75,454.375 559.625,445.875 565.5,435.125"/>
    <polyline points="566.625,432.625 570.0,424.5 572.0,418.25 573.75,411.375 575.5,399.5 575.75,390.375 575.125,380.125 573.125,368.625 571.5,362.25 569.25,355.625 566.5,348.75 563.125,341.375 558.875,333.875 553.75,326.0 547.75,318.125 540.75,310.25 532.625,302.5"/>
  </g>
</svg>
