<?xml version="1.0" encoding="utf-8" ?>
<svg xmlns="http://www.w3.org/2000/svg" xmlns:cc="http://creativecommons.org/ns" xmlns:dc="http://purl.org/dc/elements/1.1/" xmlns:ev="http://www.w3.org/2001/xml-events" xmlns:inkscape="http://www.inkscape.org/namespaces/inkscape" xmlns:rdf="http://www.w3.org/1999/02/22-rdf-syntax-ns" xmlns:sodipodi="http://sodipodi.sourceforge.net/DTD/sodipodi-0.dtd" xmlns:xlink="http://www.w3.org/1999/xlink" baseProfile="tiny" height="27.09333333cm" version="1.2" viewBox="0 0 1024.0 1024.0" width="27.09333333cm">
  <metadata>
    <rdf:RDF>
      <cc:Work>
        <dc:format>image/svg+xml</dc:format>
        <dc:source>vpype read './original_svgs/Strange Attractors #9.svg' linemerge linesimplify write './Strange Attractors #9.svg'
</dc:source>
        <dc:date>2024-08-05T01:35:17.950624</dc:date>
      </cc:Work>
    </rdf:RDF>
  </metadata>
  <defs/>
  <g fill="none" id="layer1" inkscape:groupmode="layer" inkscape:label="1" stroke="black" stroke-width="0.7mm" style="display:inline">
    <polyline points="516.5,600.875 501.375,556.625 495.25,541.875 491.875,535.125 488.625,530.125 485.75,526.5 481.5,522.75 476.125,519.875 470.625,518.375"/>
    <polyline points="469.25,518.125 453.375,516.375 444.5,514.625 440.5,513.25 438.0,512.0 435.25,509.25"/>
    <polyline points="434.625,508.25 434.125,507.0 434.0,504.0 435.125,500.375 436.375,498.25 438.0,496.0 443.125,490.75 450.875,484.875 461.875,478.625 468.625,475.5 476.125,472.625 484.375,470.0 493.25,467.75 502.625,466.25 512.125,465.375 521.625,465.375 530.75,466.375 539.375,468.25 547.25,471.0 554.125,474.5 560.125,478.75"/>
    <polyline points="564.875,483.375 568.75,488.375 571.625,493.5 573.625,498.625 574.75,503.5 575.375,508.125 575.375,512.5 575.0,516.375 574.25,519.875 572.125,525.5 570.875,527.75 568.125,531.125 563.875,533.875 561.375,534.5 559.0,534.5 557.0,534.0 554.5,532.75"/>
    <polyline points="553.75,532.125 551.25,529.0 550.5,527.125 550.375,524.5 551.25,521.375 552.75,519.0 555.0,516.75"/>
    <polyline points="555.75,516.125 558.75,513.875 563.375,511.0 575.625,504.5 584.625,499.25"/>
    <polyline points="586.25,498.25 589.625,496.125 594.625,492.375 599.875,487.75 603.25,484.25 608.125,477.625 612.375,469.375 614.5,462.5 615.25,458.625 616.0,449.625 616.0,444.5 615.375,438.875 614.375,432.75 612.875,426.125"/>
    <polyline points="610.625,418.875 607.625,411.125 603.875,402.875 599.0,394.125 593.25,385.125 586.25,375.75 578.125,366.5 568.875,357.625 558.5,349.5 547.125,342.375 535.0,337.0 522.5,333.5 509.875,332.5 497.625,334.0 486.125,338.125 475.5,344.625 466.25,353.25 458.5,363.625 452.0,375.0 447.0,387.25 443.25,399.5 440.625,411.625 439.0,423.375 438.0,434.25 437.875,453.625"/>
    <polyline points="438.5,462.0 439.25,469.375 441.375,481.75 445.125,495.125 447.625,501.375 449.875,506.0 453.75,512.0 458.25,517.375 458.75,518.5"/>
    <polyline points="458.875,518.75 458.25,520.0 455.125,521.375 450.375,522.5 442.5,523.75"/>
    <polyline points="441.25,523.875 428.625,525.125 412.75,525.5 401.5,524.625 394.625,523.25 392.5,522.5"/>
    <polyline points="390.375,521.625 388.25,520.625 384.75,517.875 383.375,516.125 382.375,514.0 381.75,511.375 381.75,508.375 382.625,504.75 384.375,500.5 387.375,495.375 391.875,489.5 398.375,482.625 407.125,474.75 418.625,466.125 433.375,456.625 451.375,447.0 472.75,437.875 497.125,430.0 523.125,424.625 549.625,422.75 574.875,425.125 597.0,431.875 615.25,442.5 629.0,456.0 638.625,471.25"/>
    <polyline points="644.625,487.125 647.75,502.625 649.0,517.25 648.625,530.5 647.5,542.25 645.75,552.375 643.625,561.125 641.5,568.375 639.25,574.5 634.625,583.625 632.5,586.75 628.25,591.0 626.125,592.25 624.125,593.0 620.375,593.375 616.75,592.5 611.875,589.625 607.625,585.625"/>
    <polyline points="606.375,584.125 603.0,579.625 601.25,576.5 598.625,570.625 597.625,566.625 597.375,561.875 597.75,559.75 598.875,557.0 601.5,554.0"/>
    <polyline points="602.375,553.375 605.375,551.875 612.0,550.375 617.0,550.25 624.75,551.125 629.125,552.125 636.375,554.625 641.75,557.0 650.375,562.0"/>
    <polyline points="653.5,564.125 659.875,569.25 663.125,572.375 666.5,575.75 673.375,583.875 680.125,593.875 683.375,599.625 686.5,606.0 689.375,612.75 691.875,620.125 694.125,628.0 695.75,636.125 696.625,644.625 696.75,653.125 696.0,661.5 694.0,669.375 690.875,676.5 686.375,682.375 680.625,686.875 673.75,689.5 665.625,690.125 656.625,688.625 647.0,685.0"/>
    <polyline points="637.125,679.5 627.0,672.375 617.125,664.0 607.625,654.625 598.625,644.75 590.375,634.625 582.75,624.5 569.375,605.25 563.75,596.5 540.0,557.0 532.375,544.875 526.25,536.375 522.75,532.25 519.5,529.0"/>
    <polyline points="518.0,527.625 515.125,525.25 512.375,523.5 509.75,522.0 506.0,520.375 502.375,519.25 496.625,518.0 487.25,517.125 489.125,516.875 497.25,517.0 500.375,517.25 507.375,518.625"/>
    <polyline points="486.125,517.0 464.125,516.5 452.625,515.5"/>
    <polyline points="451.25,515.25 446.875,514.375 442.875,513.125 440.5,511.875 438.5,510.375 437.0,508.375 436.125,506.0 436.375,503.0 436.875,501.25 439.25,497.25 443.5,492.5 450.25,487.0 459.875,481.125"/>
    <polyline points="465.75,478.25 472.5,475.375 479.875,472.75 488.0,470.5 496.5,468.625 505.375,467.375 514.375,466.875 523.25,467.25 531.875,468.375 539.75,470.375 547.0,473.25 553.375,476.75 558.75,480.75 563.125,485.25 566.5,490.0 569.125,494.875 570.875,499.625 571.875,504.125 572.375,508.5 571.875,516.125 571.125,519.375 570.125,522.125 569.0,524.625 566.5,528.375"/>
    <polyline points="565.125,529.75 562.375,531.75 559.625,532.75 556.125,533.0 553.0,532.25 549.375,529.75 547.875,527.875 546.75,525.375 546.5,523.625"/>
    <polyline points="546.5,523.0 547.125,520.125 549.125,517.0 552.625,513.875 559.25,509.75"/>
    <polyline points="560.25,509.25 580.5,498.125 589.875,491.5 594.75,487.125"/>
    <polyline points="596.375,485.5 601.0,479.875 603.875,475.375 606.5,470.125 608.625,463.875 610.0,456.5 610.5,447.875 609.5,437.625 608.375,431.875 606.75,425.625 604.5,418.875 601.5,411.75 597.875,404.25 593.25,396.375 587.875,388.25 581.375,380.0 574.0,371.875 565.625,364.25"/>
    <polyline points="556.375,357.125 546.25,351.125 535.625,346.5 524.625,343.5 513.5,342.5 502.625,343.625 492.25,346.875 482.75,352.25 474.375,359.5 467.0,368.125 460.875,377.875 456.0,388.375 452.125,399.25 449.375,410.0 447.375,420.5 446.25,430.625 445.625,440.0 445.5,448.75 445.75,456.75 447.125,470.375 448.125,476.125 450.25,485.875 452.5,493.25"/>
    <polyline points="453.75,496.375 454.75,499.0 457.875,505.25 464.875,515.875 465.0,517.0 464.125,518.25"/>
    <polyline points="463.875,518.5 461.5,519.625 458.0,520.625 450.125,522.0 440.625,523.0"/>
    <polyline points="439.0,523.125 430.625,523.625 421.0,523.625 412.75,523.0 406.5,521.875 400.375,519.875 396.875,517.75 394.0,514.75 393.125,512.875"/>
    <polyline points="392.5,510.625 392.375,508.0 392.875,505.0 394.25,501.375 396.5,497.125 400.0,492.25 404.875,486.625 411.625,480.375 420.375,473.25 431.625,465.625 445.375,457.75 461.875,449.75 480.875,442.5 501.875,436.625 524.125,432.75 546.375,431.875 567.5,434.375 586.25,440.125 602.0,448.875 614.125,460.0 623.0,472.625 628.875,485.75 632.25,498.75 633.75,511.125 634.0,522.5 633.25,532.625"/>
    <polyline points="631.875,541.625 630.125,549.25 628.25,555.75 626.125,561.125 624.125,565.5 622.125,569.0 618.375,574.0 616.625,575.5 615.0,576.625 612.0,577.625 609.375,577.5 608.25,577.125 605.375,575.125 603.875,573.25 602.375,570.375 601.625,567.375"/>
    <polyline points="601.625,566.375 601.75,563.625 603.125,560.5 605.75,558.0 608.5,556.625 613.25,555.625 616.125,555.5 620.875,555.875 624.5,556.625"/>
    <polyline points="626.5,557.125 632.625,559.125 637.25,561.25 644.625,565.5 649.875,569.375 658.125,576.875 666.5,587.125 669.375,591.25 674.625,600.625 679.25,611.375 681.25,617.25 682.75,623.375 683.875,629.75 684.5,636.25"/>
    <polyline points="684.5,642.75 683.875,649.0 682.375,655.0 680.0,660.375 676.75,664.875 672.625,668.5 667.625,670.875 661.75,672.0 655.125,671.625 648.0,669.75 640.5,666.625 632.75,662.125 625.0,656.5 617.25,650.125 609.75,643.0 602.5,635.375 589.375,619.625 578.125,604.375 568.625,590.375 554.125,567.5"/>
    <polyline points="551.25,562.875 539.875,545.25 531.75,534.5 526.625,529.0 523.25,526.0 520.375,523.75 516.0,521.0"/>
    <polyline points="515.125,520.625 512.875,519.5 507.375,517.625 502.875,516.75 498.375,516.5"/>
    <polyline points="497.75,516.375 488.625,516.625 478.125,517.5"/>
    <polyline points="477.125,517.5 459.25,518.625 444.0,518.375"/>
    <polyline points="442.375,518.25 434.125,517.0 429.5,515.5 426.625,514.125 424.25,512.25 422.375,509.875 421.5,506.75 421.625,504.875 423.0,500.375 426.75,494.625 429.75,491.25 433.625,487.625 438.5,483.75 444.5,479.625"/>
    <polyline points="451.625,475.25 460.0,470.875 469.625,466.75 480.5,462.875 492.25,459.5 504.75,457.125 517.5,455.875 530.25,455.875 542.375,457.375 553.625,460.25 563.625,464.5 572.125,470.0 579.0,476.25 584.25,483.125 588.125,490.25 590.75,497.375 592.25,504.125 592.875,510.625 592.875,516.5 592.25,521.75 591.25,526.375 588.625,533.75 587.125,536.625 584.0,540.75"/>
    <polyline points="582.5,542.125 581.125,543.125 578.375,544.375 576.0,544.5 573.25,543.5 571.375,541.75 570.375,539.375 570.125,537.0 570.875,533.625 572.875,530.5"/>
    <polyline points="573.5,529.75 576.75,526.75 579.875,524.625 584.875,521.875 596.125,517.125 610.625,511.875"/>
    <polyline points="612.875,511.125 628.25,505.25 636.75,501.5 645.625,496.75 654.75,490.5 660.75,485.0 666.375,478.125 669.0,473.875 671.375,469.125 673.375,463.625 675.125,457.125 676.25,449.75 676.625,441.0"/>
    <polyline points="676.125,430.75 674.5,418.875 671.25,404.875 666.0,388.625 658.25,369.75 647.5,348.5 632.875,324.75 613.75,299.375 589.875,273.75 561.25,250.0 528.75,231.375 494.125,220.875 460.0,221.25 428.875,233.25 402.875,255.75 383.125,285.75 369.25,319.625 360.625,354.25 355.75,387.125 353.875,416.875 353.75,442.75 355.0,464.75 357.0,483.125 359.625,498.125 362.625,510.25 366.125,519.875"/>
    <polyline points="369.875,527.375 374.0,533.125 378.25,537.25 382.875,540.0 387.75,541.75 392.75,542.5 398.0,542.5 403.25,541.875 413.75,539.125 419.0,537.125 428.875,532.75 442.375,525.875 460.0,516.0 472.25,510.0"/>
    <polyline points="474.25,509.125 480.625,507.125 486.5,506.375 492.375,507.375 495.5,509.125"/>
    <polyline points="495.75,509.25 497.125,511.375 497.0,512.125 495.5,513.5"/>
    <polyline points="495.25,513.625 492.75,514.625 483.875,516.5"/>
    <polyline points="494.125,513.375 490.375,514.875 483.125,516.625 467.625,518.5 457.625,519.125"/>
    <polyline points="456.25,519.25 442.375,519.25 435.625,518.625 430.5,517.75 425.625,516.25 422.625,514.75 420.125,512.875 418.25,510.375"/>
    <polyline points="417.625,508.75 417.375,507.0 417.5,504.875 418.0,502.625 419.125,500.0 420.875,497.0 423.375,493.75 431.125,486.0 436.625,481.75 443.375,477.125 451.625,472.375 461.125,467.5 472.125,463.0 484.25,458.875 497.5,455.5 511.375,453.25 525.375,452.375 539.125,453.125 551.875,455.5 563.5,459.5 573.375,465.0 581.625,471.625 588.0,479.0 592.625,486.75 595.875,494.625"/>
    <polyline points="597.75,502.375 598.625,509.5 598.75,516.25 598.25,522.125 597.25,527.5 596.0,532.0 594.625,535.875 593.0,539.125 591.375,541.75 588.25,545.5 585.375,547.5 582.75,548.375 580.625,548.25 578.125,546.875 576.375,544.0 576.125,542.375"/>
    <polyline points="576.0,541.5 576.75,538.125 578.125,535.625 581.0,532.625 582.875,531.125 586.25,529.0 590.25,527.125 596.5,524.625 600.125,523.5"/>
    <polyline points="602.0,522.875 617.625,519.0 637.25,515.5 658.0,512.625 678.5,510.875"/>
    <polyline points="683.0,510.625 687.75,510.375 702.75,510.375 713.75,511.125 725.75,512.875 732.125,514.25 738.875,516.125 746.0,518.625 753.625,522.0 761.625,526.375 770.25,532.125 779.625,539.75 789.875,549.75 800.875,563.0 813.0,580.375 826.0,603.125 839.75,633.125 853.5,671.75 865.625,720.625 872.875,779.625 870.25,845.125 851.375,907.875"/>
    <polyline points="811.125,952.125 751.0,962.5 680.375,933.875 612.375,875.375 556.5,803.375 515.875,731.375 490.0,666.875 476.75,612.25 473.875,567.125 479.625,530.25 492.625,500.625 511.5,477.375 534.5,460.375 559.625,450.0 584.625,446.25 607.5,448.75 626.5,456.875 640.875,469.0 650.875,483.875 657.0,500.0 660.0,516.0 660.75,531.25 660.0,545.125 658.125,557.375 655.625,568.0 652.75,577.125"/>
    <polyline points="649.625,584.625 646.25,590.625 642.875,595.5 639.5,599.125 636.0,601.875 632.625,603.625 629.25,604.5 625.75,604.875 619.25,603.75 616.0,602.5 612.875,600.875 609.875,598.875 604.25,594.5 599.0,589.5 592.375,581.625 588.5,576.5 582.5,566.875"/>
    <polyline points="581.375,564.625 577.0,555.0 575.625,550.125 575.0,544.5 575.375,541.0 577.0,536.875 578.875,534.25 581.5,531.75"/>
    <polyline points="582.5,531.0 584.625,529.5 588.375,527.5 592.75,525.5 599.625,523.125 612.25,519.625 630.5,515.875"/>
    <polyline points="633.5,515.25 649.75,512.5 668.75,509.875 690.875,507.375 705.875,506.25 722.375,505.75 734.375,506.0 747.5,507.375"/>
    <polyline points="754.5,508.5 761.875,510.25 769.625,512.625 778.0,516.0 786.875,520.625 796.5,526.875 807.0,535.375 818.625,547.125 831.375,563.0 845.625,584.625 861.125,614.25 877.75,654.25 893.75,707.375 906.25,775.375 908.625,856.25 891.375,939.25 845.25,1002.25 770.25,1019.625 680.375,981.75 596.125,903.75 530.875,811.375 487.875,723.125 464.875,647.375 458.25,584.875 465.5,534.125 484.5,493.25"/>
    <polyline points="513.125,461.375 548.5,439.0 586.5,427.0 622.625,426.125 653.125,435.625 675.875,453.25 690.625,476.0 698.875,500.875 702.375,525.75 702.5,549.25 700.5,570.375 697.375,589.0 693.25,605.125 688.5,618.625 683.125,629.625 677.25,638.375 670.875,644.875 664.125,649.25 656.875,651.5 649.5,652.0 641.75,650.75 634.0,648.125 626.25,644.125 618.75,639.125 611.5,633.375 604.5,627.125"/>
    <polyline points="598.0,620.5 586.125,607.0 580.875,600.375 563.75,576.625 542.875,545.875 534.75,535.5 528.5,528.875"/>
    <polyline points="527.375,527.875 523.5,524.5 518.625,521.125 513.375,518.375 509.375,517.0"/>
    <polyline points="508.875,516.875 503.375,515.875 496.0,515.875"/>
    <line x1="495.5" x2="476.625" y1="515.875" y2="517.5"/>
    <polyline points="475.625,517.625 463.125,518.625 456.25,518.875 447.125,518.875 442.25,518.5"/>
    <polyline points="440.625,518.375 435.625,517.75 430.75,516.625 426.125,514.875 423.5,513.125 421.5,510.875 420.75,509.5 420.25,507.875 420.125,506.125 420.375,504.125 421.0,501.75 422.25,499.125 424.125,496.25 426.75,493.0 430.125,489.5 434.625,485.625 440.125,481.5 446.75,477.125"/>
    <polyline points="454.75,472.625 464.125,468.125 474.625,463.875 486.25,460.125 498.875,457.125 511.875,455.25 525.125,454.625 538.0,455.375 550.125,457.75 561.0,461.625 570.375,466.75 578.125,472.875 584.125,479.875 588.75,487.125 591.875,494.5 593.75,501.625 594.75,508.5 594.875,514.75 594.5,520.5 593.625,525.5 591.0,533.625 588.0,539.25 584.875,542.875"/>
    <polyline points="583.375,544.125 580.625,545.5 579.375,545.75 577.125,545.625 574.625,544.375 573.0,542.375 572.375,540.875 572.125,539.25 572.375,536.75 572.875,535.0 573.75,533.375 575.625,531.125"/>
    <polyline points="576.375,530.375 580.0,527.375 587.375,523.25 593.625,520.625 601.0,518.0 616.625,513.125"/>
    <polyline points="619.125,512.25 635.75,507.0 648.25,502.25 654.75,499.375 661.625,495.875 668.5,491.5 675.25,486.125 681.75,479.0 684.75,474.625 687.5,469.5 689.875,463.5 691.875,456.5 693.25,448.25"/>
    <polyline points="693.625,438.375 693.0,426.5 690.75,412.375 686.625,395.625 679.75,375.625 669.5,352.25 654.875,325.25 635.0,295.125 608.75,263.25 576.0,232.375 537.375,206.375 495.0,190.125 452.625,188.125 414.0,202.125 382.5,230.375 359.375,268.5 344.125,311.125 335.375,353.625 331.125,392.875 330.0,427.25 330.875,456.5 333.0,480.625 336.0,500.25 339.625,515.875 344.0,528.0 349.0,537.25"/>
    <polyline points="354.625,543.875 360.875,548.5 367.75,551.125 375.125,552.125 383.0,551.875 391.0,550.25 399.25,547.875 407.5,544.625 415.625,540.875 431.0,532.5 444.625,523.875 466.25,509.0 481.0,499.25 486.5,496.125 493.25,493.125"/>
    <polyline points="495.0,492.625 496.75,492.125 501.25,491.625 506.25,492.0 510.375,493.125 521.0,497.0"/>
    <polyline points="521.75,497.25 525.375,498.125 531.375,498.875 537.625,498.625 541.0,498.125"/>
    <polyline points="541.875,497.875 548.375,496.375 555.5,493.75 562.125,490.5 568.0,486.75"/>
    <polyline points="569.25,485.875 575.125,480.625 579.5,475.125 581.5,471.875 584.125,466.125 585.375,461.625 586.375,453.75 586.25,447.75 585.25,441.0 583.25,433.625"/>
    <polyline points="581.875,429.625 577.875,421.375 572.5,412.75 569.25,408.5 565.5,404.25 561.375,400.25 556.875,396.5 552.0,393.0 546.75,390.0 541.375,387.625 535.75,385.75 530.125,384.75 524.375,384.375 518.75,385.0 513.375,386.25 508.125,388.5 503.25,391.375 498.875,395.0 494.875,399.25 491.375,404.0 488.25,409.125 485.75,414.5 481.875,425.625"/>
    <polyline points="480.625,431.25 479.0,442.0 478.625,451.875 479.0,460.75 480.0,468.5 482.125,478.0 484.5,485.25 487.75,492.5 492.75,500.5"/>
    <polyline points="493.375,501.25 498.625,507.375 500.625,510.25 500.875,511.125 500.625,512.125 499.875,512.875 497.75,513.875"/>
    <polyline points="497.5,513.875 492.25,515.25 486.0,516.25"/>
    <polyline points="485.375,516.375 473.75,517.875 463.625,518.75 446.375,518.875 439.875,518.375 433.125,517.375 426.875,515.25 422.875,512.75"/>
    <polyline points="459.75,519.0 446.5,519.25 438.25,518.75 433.125,518.0 429.75,517.25 425.0,515.625 421.0,513.0"/>
    <polyline points="420.0,511.875 418.5,509.0 418.125,507.25 418.125,505.375 419.5,500.625 423.375,494.5 426.5,491.0 430.625,487.125 435.75,482.875 442.125,478.5 449.875,473.75 459.0,469.0 469.375,464.5 481.125,460.25 493.875,456.75 507.5,454.25 521.25,453.0 534.875,453.25 547.875,455.25 559.625,458.75 570.0,463.75 578.5,470.0 585.375,477.0"/>
    <polyline points="590.5,484.625 594.0,492.375 596.25,500.0 597.5,507.25 597.75,514.0 597.5,520.125 595.5,530.25 594.125,534.25 592.625,537.625 591.0,540.375 587.875,544.375 586.25,545.75 583.5,547.25 581.125,547.75 580.0,547.625 577.5,546.375 576.25,545.125 575.5,543.625"/>
    <polyline points="575.25,542.875 575.0,541.125 575.625,537.75 576.875,535.25 579.625,532.25 582.375,530.0 587.125,527.25 594.5,524.125"/>
    <polyline points="596.25,523.5 608.0,519.875 625.125,515.75 664.875,508.0"/>
    <polyline points="668.875,507.125 685.75,503.75 704.5,499.375 719.5,494.875 729.875,490.75 735.125,488.25 740.25,485.25 745.375,481.625 750.375,477.375 755.125,472.0 759.375,465.375 763.0,457.0 765.75,446.375 767.0,432.75 766.375,415.125 762.625,392.125 754.375,362.0"/>
    <polyline points="739.5,323.25 715.0,274.0 677.125,214.5 622.25,148.625 549.25,87.25 463.5,49.0 378.5,51.75 309.625,99.75 264.625,178.75 241.0,267.5 231.375,350.25 229.375,420.375 231.5,476.5 236.125,520.25 243.625,553.5 254.875,577.625 270.625,593.25 291.25,600.75 316.5,600.25 345.0,592.625 374.625,579.0 403.375,561.0 429.5,540.75 452.0,519.75 470.375,499.375 484.625,480.25"/>
    <polyline points="495.25,463.125 502.75,448.0 507.375,434.875 509.75,423.875 510.375,414.75 509.5,407.375 507.625,401.875 504.875,397.875 501.5,395.625 498.0,394.625 494.25,395.0 490.5,396.625 487.125,399.25 483.875,402.75 481.0,407.0 478.5,411.75 476.5,417.0 474.875,422.375 473.625,427.875 472.125,438.875 471.875,449.375 473.0,463.0"/>
    <polyline points="473.625,467.0 476.125,477.25 479.875,487.25 484.375,495.75 488.75,502.0 492.375,506.375"/>
    <polyline points="492.75,506.75 494.5,509.0 495.375,511.125 495.125,512.375 494.375,513.125"/>
    <polyline points="482.5,516.625 470.375,518.25 457.0,519.25"/>
    <polyline points="455.5,519.25 443.25,519.375 436.5,518.875 428.0,517.25 423.25,515.5 420.5,513.75 418.375,511.375 417.625,510.0"/>
    <polyline points="417.125,508.375 416.875,506.5 417.125,504.375 417.875,502.0 421.0,496.125 423.75,492.75 427.375,489.0 432.125,484.875 438.0,480.375 445.25,475.625 453.875,470.75 463.875,466.0 475.375,461.5 488.0,457.5 501.5,454.375 515.625,452.5 529.75,452.125 543.375,453.25 556.0,456.25 567.125,460.75 576.625,466.75 584.375,473.625 590.25,481.25 594.375,489.25 597.25,497.125"/>
    <polyline points="598.75,504.75 599.375,511.875 599.25,518.375 598.625,524.25 597.5,529.25 596.125,533.625 593.125,540.375 591.5,542.875 588.375,546.375 585.5,548.125 584.125,548.625 581.875,548.75 580.875,548.5 578.5,547.125 577.125,545.0 576.625,542.5"/>
    <polyline points="576.625,541.625 576.875,539.875 577.5,538.25 579.0,535.75 582.0,532.75 584.0,531.25 590.125,528.0 594.625,526.125 601.75,523.75"/>
    <polyline points="603.75,523.25 612.25,521.125 624.875,518.625 643.125,516.125 653.625,515.0 665.25,514.25 682.75,514.25"/>
    <polyline points="687.5,514.375 703.0,516.125 714.5,518.625 720.75,520.5 727.25,523.0 734.125,526.125 741.5,530.125 749.25,535.25 757.625,541.75 766.625,550.125 776.25,561.0 786.75,574.875 797.875,592.5 809.625,615.25 821.625,644.0 832.875,679.875 842.0,723.375 846.125,773.875 841.5,827.625 823.75,877.0 789.875,911.25 741.25,920.0 684.0,899.625"/>
    <polyline points="627.125,855.625 577.875,798.375 539.375,738.5 512.25,682.5 495.125,633.5 486.375,592.125 484.5,557.875 488.5,529.875 497.25,507.125 509.75,489.25 525.125,475.875 542.125,466.875 559.5,462.125 576.25,461.375 591.125,464.375 603.625,470.5 613.375,479.0 620.375,488.875 625.0,499.375 627.75,510.0 628.75,520.25 628.625,529.75 627.625,538.125 626.0,545.625 624.0,551.875 621.875,557.25"/>
    <polyline points="619.5,561.625 617.25,565.125 614.875,567.875 612.625,570.0 610.375,571.375 608.375,572.375 606.375,572.875 604.5,573.0 601.125,572.375 596.875,570.0 594.75,567.875 592.875,565.375 591.5,562.875 590.25,559.25 589.75,555.75 589.875,554.625"/>
    <polyline points="590.0,553.5 590.875,550.5 592.375,547.875 594.75,545.625 599.0,543.125 603.0,541.625 606.125,540.875 611.375,540.125 619.625,539.875"/>
    <polyline points="621.875,540.0 626.875,540.375 635.0,541.75 644.125,544.375 650.75,546.875 654.375,548.5 661.875,552.625 665.75,555.125 674.125,561.375 678.5,565.25 687.625,574.75 692.375,580.625 697.125,587.25 702.0,594.75 706.625,603.25 711.25,612.875 715.375,623.5"/>
    <polyline points="719.125,635.25 722.125,648.0 724.125,661.625 724.75,675.625 723.75,689.75 720.5,703.0 715.0,714.75 706.875,724.125 696.375,730.125 683.5,732.25 668.875,730.0 653.125,723.5 637.125,713.375 621.25,700.375 606.25,685.25 592.5,669.125 580.125,652.625 569.375,636.625 559.875,621.375 551.75,607.25 539.0,583.0 523.25,549.25"/>
    <polyline points="520.5,543.5 512.875,527.375 508.875,520.625 506.625,517.625 503.5,514.75 500.625,513.125 495.125,511.375 491.5,510.875"/>
    <polyline points="490.5,510.75 481.625,509.5 477.625,508.5 474.25,507.0 472.75,505.875 472.125,505.0"/>
    <polyline points="471.875,504.5 471.625,503.5 472.0,501.75 473.375,499.75 474.875,498.375 478.25,496.25 482.75,494.25 488.5,492.625 492.75,491.875 501.75,491.625"/>
    <polyline points="504.0,491.875 510.25,493.125 513.75,494.5 518.125,497.25 520.875,500.375 522.125,503.625 522.25,504.625 521.75,507.375 520.875,509.0 519.625,510.5 517.25,512.125"/>
    <polyline points="516.375,512.625 511.375,514.25 506.875,514.875 502.25,515.125 487.625,514.875 489.75,513.5 490.375,512.625 490.25,511.375 489.0,510.125"/>
    <polyline points="486.5,514.875 477.625,514.375 467.5,513.375 459.125,511.5 456.0,510.125"/>
    <polyline points="455.0,509.625 452.75,507.75 451.75,506.125 451.375,504.125 451.75,501.875 454.125,497.75 457.25,494.625 461.875,491.125 468.125,487.5 471.875,485.75 476.0,484.0 480.625,482.5 485.5,481.0 490.625,479.875 496.125,478.875 501.75,478.25"/>
    <polyline points="507.375,478.125 513.0,478.25 518.375,478.875 523.625,479.875 528.5,481.375 532.875,483.125 540.375,487.75 545.625,493.25 549.0,499.0 550.0,501.75 550.75,507.0 550.375,511.625 549.0,515.5 547.125,518.5 544.875,520.625 542.5,522.25 541.25,522.75"/>
    <polyline points="540.0,523.125 537.5,523.75 535.0,523.875 530.5,523.5 525.5,522.25 516.25,518.875"/>
    <polyline points="515.625,518.625 511.625,517.25 507.5,516.25 502.75,515.75"/>
    <polyline points="502.25,515.625 497.75,515.625 488.0,516.375"/>
    <polyline points="487.25,516.5 475.125,517.75 462.5,518.625"/>
    <polyline points="421.875,511.625 421.0,510.375 420.0,507.25 420.375,503.25 421.25,500.875 422.75,498.125 424.875,495.125 427.75,491.75 431.625,488.0 436.5,484.0 442.5,479.75 449.625,475.25 458.125,470.75 468.0,466.375 479.0,462.25 491.125,458.75 504.0,456.125 517.25,454.625 530.375,454.625 543.125,456.0 554.75,459.0 565.125,463.375 573.875,469.0 580.875,475.5"/>
    <polyline points="586.375,482.625 590.375,490.125 593.0,497.375 594.5,504.5 595.125,511.125 595.0,517.25 594.375,522.625 593.375,527.375 592.125,531.5 589.125,537.875 586.0,542.125 583.0,544.625 580.25,545.75 578.0,545.875 575.25,544.875 573.125,542.25"/>
    <polyline points="572.75,541.5 572.375,539.875 572.375,538.125 573.0,535.625 573.75,534.0 576.125,530.875 578.625,528.625 581.75,526.5 589.875,522.5"/>
    <polyline points="591.375,521.875 602.25,517.875 640.75,505.875 653.625,500.75"/>
    <polyline points="657.0,499.25 664.0,495.75 671.0,491.375 677.875,485.875 681.25,482.5 684.5,478.625 687.5,474.125 690.25,468.875 692.75,462.75 694.625,455.5 695.875,446.875 696.25,436.625 695.375,424.25 692.875,409.5 688.25,391.875 680.75,370.875 669.625,346.25 653.75,317.875 632.0,286.375 603.75,253.5 568.75,222.25 527.875,197.125 483.875,183.375"/>
    <polyline points="440.625,185.125 402.5,203.625 372.375,236.0 351.0,277.25 337.5,321.625 330.125,364.625 327.0,403.625 326.625,437.25 327.875,465.625 330.375,488.75 333.75,507.375 337.875,522.0 342.625,533.375 348.125,541.75 354.25,547.75 361.125,551.5 368.625,553.375 376.75,553.625 385.25,552.625 393.875,550.375 402.625,547.125 411.375,543.375 427.875,534.5 442.75,525.125"/>
    <polyline points="449.375,520.5 474.75,502.375 484.875,495.75 490.25,492.75 496.5,490.125 501.5,489.125 506.75,489.25 512.125,490.625"/>
    <polyline points="513.0,491.0 524.75,495.25 530.25,496.25 533.5,496.5"/>
    <polyline points="534.25,496.5 538.5,496.375 544.75,495.375 551.625,493.375 557.875,490.75"/>
    <polyline points="559.0,490.125 561.25,489.0 567.0,485.25 571.5,481.5 574.875,478.0 578.875,472.25 580.625,468.75 582.75,462.75 583.625,458.125"/>
    <polyline points="584.0,455.5 583.875,447.0 582.75,440.5 580.75,433.5 577.5,425.875 573.0,418.0 570.125,414.0 563.5,406.125 559.625,402.5 555.375,399.0 546.0,393.25 541.0,391.125 535.75,389.5 530.5,388.625 525.25,388.375 520.0,388.875 515.0,390.125 510.25,392.125"/>
    <polyline points="505.75,394.75 501.5,398.0 497.75,401.875 494.375,406.25 491.5,410.875 489.0,415.875 485.25,426.125 483.0,436.375 482.0,446.125 481.875,450.75 482.125,459.25 482.875,466.625 484.125,473.125 485.625,478.625 487.125,483.25 489.625,489.0"/>
    <polyline points="490.375,490.625 495.5,498.75 500.375,504.375 503.625,507.5"/>
    <polyline points="503.875,507.75 506.75,510.5 507.125,511.25 507.0,512.0 506.25,512.625 504.875,513.125 500.5,514.125"/>
    <line x1="500.25" x2="489.375" y1="514.125" y2="515.875"/>
    <polyline points="488.75,516.0 477.375,517.5 466.875,518.5"/>
    <polyline points="465.75,518.5 455.0,519.125 441.0,518.875 434.25,518.0 427.625,516.375"/>
    <polyline points="426.125,515.75 423.25,514.25 420.875,512.25 419.875,511.0 418.75,507.875 418.875,504.0 419.625,501.625 422.875,495.875 429.375,488.75 434.0,484.75 439.875,480.375 447.0,475.875 455.375,471.125 465.25,466.625 476.25,462.25 488.5,458.5 501.625,455.625 515.25,453.75 528.875,453.375 542.0,454.625"/>
    <polyline points="554.25,457.375 565.125,461.75 574.375,467.375 581.875,474.0 587.625,481.375 591.875,489.0 594.625,496.625 596.25,504.0 597.0,510.875 596.875,517.125 596.375,522.875 595.375,527.875 594.0,532.125 592.625,535.75 591.0,538.75 589.375,541.25 586.375,544.625 584.875,545.75 582.125,547.0 578.75,547.0 577.125,546.125"/>
    <polyline points="576.375,545.625 574.625,542.75 574.25,540.25 574.5,538.5 575.375,536.0 577.625,532.875 580.0,530.625 582.0,529.125 586.75,526.375"/>
    <polyline points="588.125,525.75 597.75,522.0 607.75,518.875 619.625,515.75 646.25,509.5"/>
    <polyline points="649.625,508.625 668.0,503.875 675.875,501.375 688.375,496.875 696.875,492.875 705.5,487.625 709.75,484.375 713.875,480.625 717.875,476.125 721.5,470.75 724.75,464.25 727.5,456.25 729.375,446.5 730.125,434.5 729.25,419.5 726.25,400.75 719.875,377.5"/>
    <polyline points="709.25,348.625 692.5,313.375 667.75,271.875 632.875,225.625 586.5,178.75 529.75,139.375 467.0,118.0 406.125,123.125 355.125,156.0 318.625,209.625 296.25,272.625 284.75,335.25 280.375,391.375 280.0,438.875 282.125,477.5 286.0,508.25 291.375,532.125 298.375,550.0 307.25,562.75 318.25,571.0 331.375,574.875 346.375,575.0 362.625,571.625 379.625,565.5 396.75,557.125 413.25,547.25"/>
    <polyline points="428.625,536.5 442.5,525.625 454.875,514.875 465.5,504.625 474.625,495.25 482.25,486.875 493.625,472.875 501.125,462.75 509.5,450.125 511.125,448.625 511.625,449.25 512.5,455.0"/>
    <polyline points="512.75,456.375 514.25,463.0 516.625,469.25 518.375,472.5 522.375,477.75 526.875,481.5"/>
    <polyline points="527.625,482.0 530.75,483.625 533.25,484.5 538.25,485.375 541.75,485.375 546.25,484.75 549.0,484.0"/>
    <polyline points="550.0,483.625 552.75,482.625 556.625,480.625 560.375,478.0 564.0,474.625 568.0,469.25 569.375,466.625 571.0,462.125"/>
    <polyline points="571.375,460.5 572.0,457.0 572.125,451.0 571.125,444.375 569.75,439.5 567.625,434.5 566.375,431.875 563.125,426.75 559.0,421.75 554.125,417.125 551.375,415.0 548.5,413.125 542.375,410.125 539.125,409.0 535.875,408.375"/>
    <polyline points="532.625,408.0 529.25,408.0 526.0,408.375 519.75,410.375 516.875,412.0 514.125,413.875 509.25,418.625 505.375,424.25 503.625,427.375 502.25,430.625 500.125,437.125 498.75,443.75 498.375,447.0 498.125,450.125 498.25,459.0 498.875,464.25 499.875,469.0"/>
    <polyline points="500.375,471.125 502.25,476.875 503.625,480.125 505.875,484.375 508.125,487.75 513.375,493.375 518.5,496.75"/>
    <polyline points="519.125,497.125 524.0,499.0 528.875,499.875 533.25,500.0 537.0,499.625"/>
    <polyline points="537.875,499.625 543.75,498.5 551.375,496.25 558.875,493.125 562.25,491.25"/>
    <polyline points="563.5,490.625 568.25,487.625 574.25,482.75 576.625,480.375 581.0,474.625 583.0,471.125 585.5,465.125 586.75,460.375 587.5,452.125"/>
    <polyline points="587.375,449.0 586.625,442.25 585.875,438.625 583.5,430.75 579.75,422.25 574.5,413.375 567.5,404.625 563.375,400.375 558.875,396.25 554.0,392.625 548.625,389.375 543.125,386.625 537.375,384.5 531.5,383.125 525.625,382.625 519.75,382.875 514.0,384.0 508.625,386.125 503.5,389.0 498.75,392.5 494.5,396.875"/>
    <polyline points="490.75,401.625 487.5,406.875 484.75,412.375 482.5,418.125 480.75,424.0 478.25,435.375 477.25,446.125 477.125,451.125 477.5,460.375 477.875,464.5 479.125,471.875 481.375,480.875 483.0,485.625 485.5,491.375 487.875,495.875"/>
    <polyline points="488.625,497.0 493.0,503.25 497.375,508.625 498.375,510.375 498.5,511.625 498.25,512.25 497.25,513.125 495.125,514.125"/>
    <polyline points="494.875,514.25 489.875,515.5 481.625,516.875"/>
    <polyline points="480.875,517.0 467.375,518.5 452.875,519.25"/>
    <polyline points="451.375,519.25 438.5,518.875 430.0,517.5 425.25,515.875 421.0,513.375 419.0,511.125 417.75,508.0 418.0,504.0"/>
    <polyline points="418.75,501.5 420.125,498.75 422.125,495.75 425.0,492.25 428.75,488.5 433.5,484.375 439.5,479.875 446.875,475.25 455.5,470.5 465.625,465.75 477.0,461.375 489.625,457.625 503.0,454.625 516.875,453.0 530.75,452.75 544.125,454.125 556.375,457.125 567.25,461.75 576.5,467.625 583.875,474.625 589.625,482.125 593.625,489.875 596.25,497.625 597.75,505.125 598.375,512.125 598.125,518.5"/>
    <polyline points="597.5,524.125 595.125,533.375 593.625,537.0 590.375,542.375 587.25,545.75 584.375,547.5 581.875,548.125 579.875,547.75 578.25,547.0 577.0,545.75 576.125,544.25 575.625,541.75 575.875,539.25"/>
    <polyline points="576.125,538.375 578.5,534.25 581.75,531.25 585.0,529.125 593.25,525.25 606.125,521.125"/>
    <polyline points="608.25,520.625 628.375,516.125 643.875,513.375 661.875,510.625 678.375,508.5 692.125,507.125"/>
    <polyline points="697.0,506.625 718.0,505.375 729.75,505.25 742.25,505.875 749.0,506.5 756.0,507.625 763.375,509.25 771.25,511.5 779.5,514.625 788.375,519.0 798.0,525.0 808.5,533.25 820.125,544.5 832.875,560.0 847.125,581.125 862.75,610.0 879.5,649.375 896.125,702.0 909.5,770.25 913.375,852.25 897.875,938.125"/>
    <line x1="853.0" x2="788.0349" y1="1005.5" y2="1024.0"/>
    <polyline points="769.8229,1024.0 685.375,991.0 598.375,912.125 530.75,817.25 486.375,726.625 462.75,648.625 456.375,584.5 464.375,532.5 484.625,490.5 515.0,458.0 552.25,435.375 592.0,423.875 629.375,424.125 660.25,435.125 682.875,454.375 697.125,478.75 704.75,505.0 707.625,531.0 707.25,555.25 704.875,577.0 701.375,596.125 696.875,612.5 691.75,626.125 685.875,637.25 679.5,645.875"/>
    <polyline points="672.5,652.125 665.0,656.125 657.125,657.875 648.875,657.625 640.375,655.5 632.0,651.875 623.625,646.875 615.5,640.875 607.75,634.25 600.5,627.125 587.25,612.25 576.125,597.75 566.75,584.625 544.625,551.5 538.25,542.75"/>
    <polyline points="536.375,540.375 531.5,534.5 528.625,531.5 522.375,526.0 516.125,522.0 510.625,519.625 508.125,518.875"/>
    <line x1="486.5" x2="458.125" y1="517.0" y2="518.375"/>
    <polyline points="456.625,518.375 449.0,518.25 442.625,517.75 437.75,517.0 431.625,515.25 427.5,513.125 425.375,511.125 424.0,508.5 423.625,506.875 423.625,505.125"/>
    <polyline points="424.0,503.125 424.875,500.75 428.125,495.5 434.375,488.875 438.75,485.25 450.75,477.25 458.5,473.125 467.375,469.0 477.375,465.25 488.375,462.0 500.125,459.375 512.25,457.75 524.5,457.375 536.375,458.25 547.5,460.5 557.5,464.0 566.25,468.75 573.5,474.375 579.25,480.75 583.625,487.375 586.75,494.125 588.75,500.75 589.75,507.125"/>
    <polyline points="590.0,513.0 589.625,518.25 588.875,523.0 587.875,527.125 586.625,530.75 583.625,536.125 580.625,539.75 577.75,541.75 576.375,542.25 574.0,542.75 571.875,542.375 570.125,541.5 568.875,540.375 567.875,538.875 567.0,535.75"/>
    <polyline points="567.0,535.0 567.375,532.625 568.0,531.0 569.5,528.625 572.25,525.75 574.0,524.25 578.25,521.5 588.0,516.625"/>
    <polyline points="589.625,515.875 613.75,505.75 626.125,499.375 633.875,494.5 639.25,490.375 644.5,485.375 647.0,482.375"/>
    <polyline points="649.375,479.125 651.75,475.5 653.875,471.375 655.75,466.75 657.375,461.375 658.625,455.375 659.375,448.375 659.5,440.5 658.875,431.25 657.125,420.875 654.25,408.75 649.75,395.125 643.25,379.625 634.5,362.375 622.875,343.5 608.125,323.625 590.0,303.375 568.5,284.25 543.875,268.0 517.125,256.625 489.75,252.125 463.25,255.5 439.5,267.0 419.5,285.625 403.75,309.25 392.375,335.75"/>
    <polyline points="384.75,363.0 380.25,389.375 378.0,413.625 377.375,435.375 377.875,454.25 379.125,470.5 381.0,484.125 383.25,495.375 385.625,504.75 388.375,512.25 391.125,518.25 394.0,523.0 397.0,526.625 400.0,529.375 403.0,531.375 406.125,532.75 409.25,533.625 415.5,534.0 418.625,533.75 424.5,532.625 435.375,529.125"/>
    <polyline points="437.875,528.125 457.0,520.0 462.375,518.25 465.25,518.0 465.25,518.375 464.875,518.625 461.625,519.875 451.0,521.875"/>
    <polyline points="449.875,522.0 435.5,523.375 422.625,523.625 412.25,522.75 406.0,521.625"/>
    <polyline points="404.0,521.0 400.125,519.5 396.625,517.25 394.0,514.125 393.125,512.125 392.75,509.75 392.875,507.0 393.625,503.75 395.25,500.0 397.875,495.5 401.75,490.5 407.25,484.625 414.625,478.125 424.125,470.875 436.125,463.125 450.75,455.25 468.0,447.5 487.625,440.625 509.0,435.375 531.25,432.5 553.25,432.625 573.625,436.125 591.375,442.875"/>
    <polyline points="605.875,452.5 616.875,464.125 624.625,476.875 629.625,489.875 632.375,502.75 633.5,514.75 633.375,525.625 632.375,535.375 630.875,543.875 629.125,551.0 627.125,557.125 625.125,562.125 623.125,566.25 619.25,572.125 615.75,575.375 614.125,576.375 611.125,577.125 608.625,576.875 606.625,575.875 604.875,574.375"/>
    <polyline points="604.125,573.5 602.5,570.625 601.625,567.625 601.5,564.75 601.75,563.0 602.375,561.375 604.625,558.625 607.0,557.125 610.125,556.0 612.625,555.625"/>
    <polyline points="614.0,555.5 616.875,555.375 621.875,555.875 629.625,557.875 636.125,560.5 641.0,563.0 646.0,566.25 654.125,572.75 659.75,578.375 665.5,585.375 671.0,593.625"/>
    <polyline points="673.625,598.25 676.25,603.375 678.5,608.75 680.625,614.625 682.375,620.625 683.75,627.0 684.625,633.5 685.0,640.125 684.625,646.5 683.5,652.75 681.5,658.375 678.75,663.375 674.875,667.5 670.25,670.5 664.75,672.125 658.375,672.5 651.5,671.25 644.0,668.625 636.25,664.75 628.375,659.5 620.5,653.375 612.875,646.5 605.5,639.0 591.875,623.25 585.75,615.375"/>
    <polyline points="580.125,607.625 565.875,586.625 544.5,552.5 538.375,543.5 530.5,533.375 525.5,528.25 522.25,525.5"/>
    <polyline points="521.25,524.625 515.75,521.125 511.125,519.0 505.625,517.375 502.25,516.875"/>
    <polyline points="501.625,516.875 497.625,516.5 492.0,516.5 483.125,517.125"/>
    <polyline points="482.25,517.125 464.875,518.375 452.125,518.625"/>
    <polyline points="450.625,518.625 441.0,518.0 432.875,516.5 428.375,514.875 424.5,512.25 423.5,511.125 422.125,508.5 421.875,504.875 423.25,500.5 424.75,497.75"/>
    <polyline points="426.875,494.75 433.625,487.875 438.375,484.0 451.375,475.625 459.625,471.375 469.125,467.125 479.75,463.25 491.375,460.0 503.75,457.5 516.5,456.125 529.125,456.125 541.25,457.375 552.5,460.25 562.5,464.375 571.125,469.625 578.0,475.875 583.5,482.625 587.375,489.625 590.125,496.75 591.75,503.5 592.375,509.875 592.375,515.875 591.875,521.125 591.0,525.75"/>
    <polyline points="589.75,529.875 588.375,533.25 585.375,538.5 582.25,541.75 580.75,542.875 578.125,544.0 575.75,544.25 573.75,543.75 571.0,541.5 570.25,540.0 569.625,537.625 570.125,534.375"/>
    <polyline points="570.375,533.5 571.625,531.125 573.5,528.875 576.0,526.625 579.125,524.5 586.875,520.375 598.875,515.5"/>
    <polyline points="600.875,514.75 626.75,504.875 635.0,501.0 643.75,496.25 652.625,489.875 658.5,484.375 661.25,481.125 666.5,473.125"/>
    <polyline points="668.75,468.25 670.625,462.75 672.25,456.375 673.25,448.875 673.5,440.125 672.875,430.0 671.125,418.25 667.875,404.5 662.625,388.5 654.875,370.125 644.25,349.375 629.875,326.375 611.25,302.0 588.25,277.5 560.625,254.875 529.5,237.0 496.25,226.875 463.375,226.875 433.25,237.875 408.0,258.75 388.375,287.125 374.5,319.375 365.625,352.625 360.5,384.5 358.25,413.5 358.0,439.0"/>
    <polyline points="359.0,460.875 360.75,479.125 363.25,494.25 366.0,506.5 369.25,516.25 372.75,524.0 376.5,529.875 380.5,534.375 384.75,537.5 389.125,539.5 393.75,540.625 398.5,541.0 403.25,540.75 412.875,538.75 422.375,535.375 431.25,531.5 443.25,525.5 456.25,518.5"/>
    <polyline points="459.0,517.0 466.125,513.5 471.875,511.125 477.75,509.375 483.75,508.75 487.0,509.25 488.625,510.0"/>
    <polyline points="487.125,514.875 483.875,516.0 480.125,516.75 469.75,518.25"/>
    <polyline points="468.75,518.375 461.875,519.125 449.375,519.75 441.375,519.625 432.75,518.875"/>
    <polyline points="431.0,518.625 424.25,516.875 421.125,515.5 418.375,513.625 417.25,512.5 415.625,509.625 415.25,507.875 415.625,503.5 418.125,498.0 420.5,494.625 423.625,491.0 427.875,486.875 433.25,482.5 440.0,477.75 448.125,472.75 457.625,467.625 468.75,462.75 481.25,458.25"/>
    <polyline points="494.875,454.5 509.25,451.875 524.0,450.75 538.375,451.125 552.0,453.375 564.25,457.375 574.875,463.0 583.5,469.75 590.375,477.5 595.375,485.75 598.75,494.0 600.75,502.0 601.75,509.625 601.875,516.625 601.25,523.0 599.0,533.375 597.5,537.375 594.25,543.5 591.125,547.5 588.125,549.625 585.5,550.375"/>
    <polyline points="584.375,550.5 582.5,550.0 580.375,548.375 579.25,546.125 579.0,544.375 579.25,541.875 580.25,539.25 582.0,536.875 585.375,533.875 587.625,532.5"/>
    <polyline points="588.75,531.875 595.75,528.75 604.625,526.125 611.0,524.75 628.75,522.25 637.75,521.625 644.375,521.5"/>
    <polyline points="647.875,521.5 659.125,522.0 671.75,523.625 676.375,524.625 686.125,527.125 691.25,528.875 696.75,531.125 702.375,533.875 708.5,537.125 714.75,541.25 721.5,546.25 728.625,552.375 736.125,559.875 744.125,569.125 752.5,580.375 761.125,594.25 770.125,611.125 779.0,631.625 787.375,656.125 794.5,684.75 799.0,717.375"/>
    <polyline points="799.375,752.625 793.625,787.875 779.75,818.875 756.75,840.5 725.25,848.0 688.0,839.375 649.0,815.875 612.125,781.875 579.875,742.5 553.75,702.25 533.625,664.25 519.0,630.25 509.125,600.75 503.125,575.625 500.375,554.625 500.375,537.25 502.5,522.875 506.375,511.375 511.5,502.25 517.75,495.125 524.5,490.0 531.625,486.625 538.75,484.75 545.5,484.375 551.75,485.25 557.25,487.125"/>
    <polyline points="562.0,489.75 565.875,493.125 569.0,496.875 571.25,500.75 572.75,504.875 573.625,508.75 573.75,516.125 573.125,519.375 572.375,522.25 570.0,526.875 568.75,528.75 565.875,531.5 564.375,532.5 561.5,533.75 558.875,534.125 555.25,533.75 552.125,532.5"/>
    <polyline points="551.25,532.0 547.875,529.0 546.625,527.125 545.625,524.625 545.625,521.125 546.5,518.875 547.625,517.375"/>
    <polyline points="548.0,516.875 550.0,514.875 554.125,511.875 558.5,509.25 569.875,503.375"/>
    <polyline points="571.125,502.625 582.625,495.875 588.875,491.25 595.25,485.375 598.375,481.875 602.75,475.375 605.25,470.25 607.375,464.125"/>
    <polyline points="608.125,460.75 609.125,453.0 609.25,448.625 609.0,443.75 607.375,433.0 605.875,427.0 603.75,420.5 601.0,413.625 597.5,406.375 593.25,398.625 588.0,390.75 582.0,382.875 574.875,374.875 566.875,367.375 558.125,360.375 548.375,354.25 538.125,349.375 527.5,346.125 516.625,344.75 506.0,345.375 495.875,348.0 486.375,352.625 477.875,359.125 470.375,367.125"/>
    <polyline points="464.125,376.375 458.875,386.375 454.875,396.875 451.75,407.375 449.625,417.75 448.25,427.625 447.375,437.125 447.125,445.875 447.25,453.875 447.75,461.25 449.375,473.75 451.375,483.625 453.625,491.375 455.875,497.375 459.875,505.5 463.0,510.375"/>
    <polyline points="463.625,511.25 465.75,514.375 466.375,516.625 466.0,517.5 464.75,518.5 460.875,519.875"/>
    <polyline points="460.125,520.125 453.625,521.375 447.625,522.125 435.5,523.125 426.5,523.25"/>
    <polyline points="424.625,523.25 414.5,522.625 408.25,521.5 402.375,519.5 398.875,517.375 397.375,516.125 395.125,512.75 394.5,510.5 394.375,508.0 394.875,505.0 396.125,501.5 398.25,497.375 401.625,492.75 406.25,487.375 412.625,481.375 421.0,474.625"/>
    <polyline points="431.5,467.25 444.625,459.625 460.25,452.0 478.25,444.875 498.375,438.875 519.75,434.875 541.375,433.625 562.0,435.25 580.75,440.25 596.5,448.25 609.125,458.5 618.5,470.375 624.75,483.0 628.625,495.625 630.625,507.75 631.125,518.875 630.625,529.0 629.5,538.0 627.875,545.625 626.0,552.125 622.0,562.125 620.125,565.75 618.125,568.625 616.375,570.875 614.625,572.5"/>
    <polyline points="613.0,573.625 610.125,574.75 608.75,574.875 606.5,574.375 603.75,572.5 602.5,570.75 601.5,569.0 600.75,566.125 600.75,563.375 601.875,560.0 603.625,558.0"/>
    <polyline points="604.375,557.375 607.0,555.875 611.5,554.625 617.25,554.375 624.375,555.25 630.5,557.0 635.0,558.75 642.375,562.5 647.625,566.0"/>
    <polyline points="650.375,568.0 659.0,575.625 664.875,582.25 670.75,590.375 676.25,600.0 678.875,605.375 681.25,611.125 683.375,617.375 685.125,623.875 686.375,630.625 687.125,637.5 687.25,644.375 686.625,651.125 685.125,657.5 682.75,663.375 679.375,668.25 674.875,672.125 669.625,674.75 663.375,675.875 656.375,675.5 648.75,673.5"/>
    <polyline points="640.75,670.0 632.5,665.125 624.25,659.125 616.125,652.125 608.25,644.375 593.625,628.0 581.0,611.5 570.375,596.125 540.875,549.375 535.0,540.875 530.0,534.75"/>
    <polyline points="528.5,533.0 522.125,526.75 516.625,522.875 510.125,519.75 503.375,518.0"/>
    <polyline points="502.625,517.75 495.375,517.0 481.125,517.25"/>
    <polyline points="480.125,517.375 462.375,518.25 447.625,518.0"/>
    <polyline points="446.0,517.875 442.75,517.625 436.375,516.5 433.25,515.625 430.375,514.375 426.75,511.875 425.75,510.75 424.5,508.125 424.25,504.75 424.625,502.625 427.0,497.875 431.875,491.875 440.0,484.75"/>
    <polyline points="445.625,480.875 452.25,476.875 460.0,472.75 469.0,468.75 479.0,465.125 490.0,461.875 501.625,459.5 513.625,458.0 525.75,457.75 537.375,458.875 548.25,461.25 558.0,464.875 566.5,469.625 573.5,475.25 579.125,481.625 583.25,488.125 586.25,494.875 588.0,501.375 589.0,507.625 589.25,513.25 588.875,518.5 588.125,523.125 587.0,527.125 585.75,530.625 582.75,535.875"/>
    <polyline points="581.25,537.875 578.375,540.5 575.625,541.875 573.125,542.25 572.0,542.125 569.375,541.0 568.125,539.875 567.125,538.375 566.25,535.375 566.375,532.875 567.625,529.75"/>
    <polyline points="568.0,529.0 570.5,526.0 576.0,521.75 583.75,517.625 599.0,510.875"/>
    <polyline points="601.0,510.0 614.125,504.125 623.875,498.875 629.0,495.625 634.125,491.875 641.75,484.625 646.5,478.375 648.75,474.75 650.75,470.625 654.125,460.75 655.25,454.75 655.875,447.875"/>
    <polyline points="655.875,440.0 655.125,431.125 653.5,420.875 650.5,409.25 646.125,396.0 639.875,381.125 631.375,364.625 620.25,346.625 606.25,327.75 589.0,308.625 568.625,290.5 545.5,275.0 520.25,263.875 494.25,258.875 469.0,261.375 446.0,271.25 426.375,287.875 410.75,309.5 399.125,334.25 391.125,360.0 386.0,385.25 383.375,408.875 382.375,430.25 382.625,449.0 383.625,465.125 385.25,478.875"/>
    <polyline points="387.25,490.5 389.5,500.0 391.875,507.75 394.5,514.125 397.125,519.125 399.875,523.125 402.625,526.25 405.375,528.5 408.125,530.25 411.0,531.375 416.5,532.375 421.875,532.25 424.5,531.875 429.5,530.75 436.375,528.5 447.125,524.25"/>
    <polyline points="448.625,523.625 454.375,521.375 459.875,519.875 459.625,520.25 458.5,520.625"/>
    <polyline points="458.125,520.75 453.75,521.875 448.0,522.875 431.0,524.75"/>
    <polyline points="429.25,524.75 423.75,525.125 413.5,525.125 406.875,524.75 400.125,523.75 393.5,521.875 391.375,521.0 387.75,518.625 386.125,517.0 384.875,515.125 384.0,512.875 383.625,510.25 383.875,507.125"/>
    <polyline points="384.875,503.375 387.0,498.875 390.375,493.625 395.375,487.625 402.25,480.625 411.625,472.875 423.625,464.125 438.875,455.0 457.25,445.625 478.875,437.0 503.0,430.0 528.5,425.5 554.125,424.625 578.0,427.75 598.875,435.125 615.875,446.125 628.5,459.625 637.25,474.5 642.625,489.875 645.375,504.75 646.25,518.75 645.875,531.375 644.625,542.5 642.875,552.125 640.875,560.375 638.625,567.25"/>
    <polyline points="636.375,573.0 634.25,577.75 632.0,581.5 629.875,584.375 627.75,586.625 625.75,588.375 623.875,589.5 622.0,590.125 618.5,590.375 615.125,589.5 612.125,587.875 608.25,584.375 604.125,579.0 601.75,574.75 600.625,572.0"/>
    <polyline points="600.25,570.75 599.375,567.0 599.25,564.75 599.625,561.625 601.25,558.25 603.25,556.125 606.0,554.5 610.625,553.125 615.0,552.75"/>
    <polyline points="616.625,552.75 620.125,553.0 625.875,554.0 634.75,556.875 642.375,560.5 647.75,563.875 653.625,568.125 659.625,573.5 665.75,580.125 668.875,584.0 675.125,593.0 680.875,603.75"/>
    <polyline points="683.5,609.875 688.0,623.25 689.5,630.5 690.5,637.875 690.875,645.375 690.375,652.75 689.125,659.875 686.75,666.375 683.25,672.0 678.75,676.5 673.125,679.625 666.625,681.125 659.125,680.875 650.875,678.875 642.25,675.25 633.375,670.0 624.5,663.5 615.75,655.875 607.25,647.5 599.25,638.75 591.75,629.75 578.5,612.0 567.5,595.625"/>
    <polyline points="562.75,588.25 544.875,559.125 537.375,547.5 531.375,539.0 526.375,533.0 522.0,528.625 516.875,524.625 512.25,522.0"/>
    <polyline points="511.125,521.5 508.0,520.125 500.0,518.125 494.25,517.5 486.125,517.25"/>
    <polyline points="485.125,517.25 468.875,517.625 453.375,517.5"/>
    <polyline points="451.75,517.375 447.125,517.0 441.0,516.0 436.5,514.625 432.625,512.75 430.5,511.0 429.625,509.875 428.875,508.625 428.25,505.75 429.0,502.0 429.875,499.875 431.375,497.5 433.375,494.75 436.125,491.875"/>
    <polyline points="439.5,488.75 449.0,481.75 455.25,478.125 462.375,474.5 470.625,470.875 479.625,467.625 489.625,464.875 500.125,462.625 511.0,461.375 522.0,461.0 532.625,461.75 542.75,463.75 551.875,466.75 559.875,470.875 566.625,475.75 572.25,481.25 576.5,487.125 579.625,493.125 581.625,499.0 582.875,504.75 583.375,510.0 583.25,515.0 582.75,519.375 580.75,526.625"/>
    <polyline points="579.375,529.5 576.625,533.875 573.625,536.75 570.875,538.25 569.625,538.625 567.25,538.75 564.25,538.0 561.5,535.75 559.875,532.125 559.875,529.125"/>
    <polyline points="560.0,528.375 560.875,526.125 562.25,524.0 563.375,522.625 566.375,520.0 572.375,516.0 581.625,511.125"/>
    <polyline points="583.125,510.375 591.5,506.25 600.875,501.125 609.0,495.875 615.375,491.0 619.625,487.0 625.625,479.5 629.25,473.25 630.875,469.625"/>
    <polyline points="632.25,465.625 633.5,461.125 634.375,456.125 635.0,450.625 635.125,444.375 634.625,437.5 633.5,429.75 631.625,421.125 628.875,411.625 624.875,401.0 619.625,389.5 612.75,377.125 604.25,364.0 593.875,350.5 581.5,337.125 567.125,324.375 551.0,313.125 533.5,304.375 515.25,299.125 496.875,297.875 479.25,301.125 463.25,308.875 449.125,320.5 437.5,335.375 428.375,352.25 421.5,370.25"/>
    <polyline points="416.75,388.25 413.625,405.75 412.0,422.125 411.375,437.125 411.5,450.5 412.25,462.375 413.375,472.625 414.75,481.5 418.0,495.625 419.75,501.0 423.25,509.375 425.0,512.5 428.375,517.125 431.375,520.25 436.625,523.375 438.875,524.125 440.75,524.375"/>
    <polyline points="441.5,524.5 445.75,524.75 439.875,526.125"/>
    <polyline points="439.0,526.25 420.625,529.125 397.375,531.625"/>
    <polyline points="394.75,531.75 378.125,532.625 372.0,532.625 362.625,532.125 353.125,530.5 350.125,529.5 347.25,528.375 344.5,526.875 342.125,525.0 340.125,522.625 338.625,519.5 338.0,515.75 338.375,511.0 340.25,504.875 344.0,497.5 350.5,488.125"/>
    <polyline points="360.625,476.75 375.5,463.125 396.25,447.25 424.25,429.625 459.75,411.875 502.125,396.25 548.625,386.25 594.75,385.0 635.5,394.0 667.125,412.5 688.75,437.875 701.625,466.5 707.875,495.625 709.875,523.25 709.375,548.5 707.375,571.0 704.625,590.75 701.375,608.0 697.625,622.875 693.375,635.5 688.5,646.0 683.0,654.375 676.75,660.625 669.875,664.875 662.375,667.0 654.375,667.125"/>
    <polyline points="646.0,665.375 637.375,661.875 628.75,657.0 620.25,650.875 612.0,643.875 604.125,636.25 596.75,628.375 589.875,620.25 583.625,612.25 572.5,597.0 563.25,583.25 541.625,549.875 537.375,543.75 530.25,534.875"/>
    <polyline points="528.75,533.25 523.25,527.875 519.625,525.125 515.25,522.375 508.5,519.5 502.375,518.0"/>
  </g>
</svg>
