<?xml version="1.0" encoding="utf-8" ?>
<svg xmlns="http://www.w3.org/2000/svg" xmlns:cc="http://creativecommons.org/ns" xmlns:dc="http://purl.org/dc/elements/1.1/" xmlns:ev="http://www.w3.org/2001/xml-events" xmlns:inkscape="http://www.inkscape.org/namespaces/inkscape" xmlns:rdf="http://www.w3.org/1999/02/22-rdf-syntax-ns" xmlns:sodipodi="http://sodipodi.sourceforge.net/DTD/sodipodi-0.dtd" xmlns:xlink="http://www.w3.org/1999/xlink" baseProfile="tiny" height="27.09333333cm" version="1.2" viewBox="0 0 1024.0 1024.0" width="27.09333333cm">
  <metadata>
    <rdf:RDF>
      <cc:Work>
        <dc:format>image/svg+xml</dc:format>
        <dc:source>vpype read './original_svgs/Strange Attractors #206.svg' linemerge linesimplify write './Strange Attractors #206.svg'
</dc:source>
        <dc:date>2024-08-05T01:35:36.840742</dc:date>
      </cc:Work>
    </rdf:RDF>
  </metadata>
  <defs/>
  <g fill="none" id="layer1" inkscape:groupmode="layer" inkscape:label="1" stroke="black" stroke-width="0.7mm" style="display:inline">
    <polyline points="675.5,580.875 667.375,560.0 662.25,542.625 659.625,528.0 659.25,515.375 661.0,504.25 664.5,494.0 669.75,484.5 676.625,475.0 684.75,465.5 694.375,455.5 758.25,394.5 772.0,380.375 784.75,366.625 795.5,354.0 803.0,343.5 806.5,336.5 805.125,333.875 798.75,336.125 787.75,343.5 773.0,355.125 755.875,370.25"/>
    <polyline points="737.625,387.5 719.375,405.75 701.875,423.875 671.0,457.25 620.5,513.25 614.0,520.0 603.125,530.375 594.5,537.25 587.5,541.625 584.375,543.125 578.75,545.0 573.625,545.875 569.0,546.125 564.625,545.875"/>
    <polyline points="562.625,545.625 542.25,541.875 536.0,541.0 528.875,540.5 523.0,541.0"/>
    <polyline points="522.0,541.25 519.375,542.125 518.125,543.125 517.125,544.375 516.75,546.0 517.25,549.25 518.625,552.0 521.0,555.5 526.875,562.125 532.875,567.75 540.875,574.375 551.0,582.125"/>
    <polyline points="557.125,586.5 563.75,591.0 579.0,600.5 596.25,610.0 605.375,614.375 614.75,618.375 623.875,621.75 632.625,624.25 640.875,625.875 648.25,626.25 654.5,625.375 659.5,623.125 663.125,619.75 665.375,615.25 666.25,609.75 665.875,603.5 664.375,596.75 662.0,589.625 658.75,582.375 655.0,575.125 650.875,568.125 646.375,561.5 637.0,549.375"/>
    <polyline points="632.25,544.125 623.0,534.875 618.625,531.0 614.25,527.625 606.25,521.875 595.375,515.75 586.0,511.75 578.125,509.375 567.5,507.5 559.75,507.0"/>
    <polyline points="558.375,507.0 549.25,507.5 547.125,508.125 547.625,508.375"/>
    <polyline points="547.875,508.375 553.875,508.125 561.5,507.0 568.25,505.625"/>
    <polyline points="569.75,505.25 582.875,501.625 592.875,498.125 612.625,489.5 621.0,485.25 635.75,477.0 653.5,466.0"/>
    <polyline points="660.125,461.5 674.75,451.25 690.625,439.125 716.0,418.125 731.875,403.375 744.5,390.375 748.75,385.25 751.25,381.5 751.625,379.375 750.0,379.25 746.25,381.25 740.375,385.125 732.875,390.875 714.125,406.625 703.625,415.875 661.875,453.875"/>
    <polyline points="652.375,462.25 635.25,477.125 620.25,489.25 607.375,498.5 591.0,508.375 586.25,510.75 577.5,514.375 569.75,517.0 562.75,518.75 556.25,519.875 547.625,520.75 537.375,520.875"/>
    <polyline points="535.0,520.875 528.375,520.625 512.625,519.125 493.25,516.375 488.0,515.375"/>
    <polyline points="486.125,515.125 474.875,512.875 464.375,510.375 452.25,506.875 437.5,501.75 422.5,495.375"/>
    <polyline points="418.125,493.375 397.25,482.5 376.375,470.0 359.25,458.75 339.0,444.375 327.75,435.875 303.125,416.5 290.25,405.75 265.75,384.125 255.625,374.25 248.125,366.375 244.125,361.125 244.25,359.5 249.0,362.0 258.125,368.75 271.0,379.5 286.625,393.25"/>
    <polyline points="303.625,409.125 321.125,426.0 354.0,459.125 381.25,487.875 410.375,519.375 423.5,533.125 433.125,542.5 437.125,545.875 443.5,550.375 448.75,552.75 451.125,553.375 455.375,553.625 459.25,553.0 464.875,551.0"/>
    <polyline points="466.75,550.25 479.25,544.0 491.5,538.625 499.875,535.625 509.625,533.0"/>
    <polyline points="511.125,532.625 520.625,530.75 528.5,529.625 552.5,527.25"/>
    <polyline points="554.5,527.0 565.125,525.875 577.75,523.875 590.25,521.125 606.25,516.125 616.25,512.25 628.375,506.75 643.25,499.0 652.125,493.875"/>
    <polyline points="662.25,487.75 673.625,480.375 701.625,460.5 718.75,447.375 738.375,431.625 760.5,412.75 785.25,390.5 811.75,365.125 838.75,337.25 863.75,308.875 883.375,283.125 893.375,264.375 890.625,257.0 874.25,263.75 846.75,284.0 812.625,314.625 777.0,351.0 743.875,388.75 715.375,424.875 692.5,457.5 675.0,486.0 662.5,510.375 654.0,530.875 648.875,548.0 646.375,562.0"/>
    <polyline points="645.875,573.5 646.75,582.625 648.625,589.625 650.75,594.75 653.125,598.125 655.25,599.875 656.875,600.25 658.0,599.375 658.375,597.25 658.0,594.25 656.875,590.375 652.625,581.125 646.25,571.0 642.375,565.875 634.25,556.0 629.875,551.375 621.125,543.125 612.625,536.125 600.375,528.0"/>
    <polyline points="596.625,525.875 592.875,523.875 582.625,519.375 570.875,515.625 565.75,514.375 556.625,512.75 544.375,511.625 539.0,511.5"/>
    <polyline points="537.875,511.5 531.875,511.375 521.125,511.75"/>
    <polyline points="520.875,511.75 517.125,512.125 524.0,512.5"/>
    <line x1="524.25" x2="536.125" y1="512.5" y2="512.375"/>
    <polyline points="536.75,512.25 544.875,511.75 551.25,511.0 563.625,508.75"/>
    <polyline points="565.375,508.5 574.875,506.125 581.75,504.0 589.875,501.25 602.75,496.125 614.75,490.5 624.25,485.625 635.0,479.625 654.125,467.75"/>
    <polyline points="661.5,462.75 677.625,451.375 695.75,437.625 715.125,421.625 734.5,404.25 743.5,395.5 758.125,380.0 762.75,374.0 765.125,369.875 764.875,368.0 761.875,368.75 756.25,372.0 748.25,377.875 727.125,395.5 715.0,406.375 690.25,429.375 656.375,461.625"/>
    <polyline points="646.5,470.875 629.0,486.5 614.25,498.625 601.75,507.625 591.0,514.125 586.25,516.625 581.75,518.75 573.5,521.875 562.75,524.625 553.375,525.875 547.75,526.125 535.125,525.875"/>
    <polyline points="532.875,525.625 516.0,524.0 484.5,519.875"/>
    <polyline points="482.625,519.625 448.375,514.5 434.75,511.75 421.625,508.5"/>
    <polyline points="417.875,507.375 409.625,504.75 400.0,501.125 381.75,492.75 365.5,483.875 343.875,470.5 330.25,461.25 314.125,449.75 295.0,435.5 272.375,417.75 245.75,395.875 215.5,369.625 182.375,339.25 149.0,306.5 120.375,275.375 103.375,252.25 104.5,244.625 126.625,257.125 165.75,289.125 213.25,334.375"/>
    <polyline points="260.125,385.0 300.125,434.625 330.875,479.75 351.75,518.75 364.0,551.75 368.875,579.375 368.125,602.0 363.25,620.0 355.625,633.875 346.875,643.375 338.0,648.625 330.25,649.875 324.25,647.125 320.5,641.0 319.0,631.875 319.75,620.75 322.25,608.25 326.25,595.25 331.125,582.125 336.625,569.5 342.375,557.625 353.75,536.875 364.125,520.625 368.875,514.125"/>
    <polyline points="373.375,508.5 381.375,499.75 388.375,493.875 391.625,491.625 394.625,490.0 397.5,488.625 400.25,487.75 405.5,486.625 410.375,486.25 412.75,486.375 423.25,488.0 435.125,491.625"/>
    <polyline points="436.5,492.0 450.875,496.875 453.5,497.5 438.0,491.125"/>
    <polyline points="436.625,490.5 429.375,487.25 412.5,478.5 403.5,473.375 386.875,463.0"/>
    <polyline points="384.625,461.5 374.875,454.75 370.0,451.0 397.75,470.25"/>
    <polyline points="400.875,472.375 416.75,482.5 431.25,490.625 441.125,495.375 447.625,498.125 453.25,500.25 461.0,502.625"/>
    <polyline points="462.25,503.0 471.0,505.125 476.0,505.75 463.125,502.0"/>
    <polyline points="462.125,501.75 450.75,497.875 442.375,494.625 429.875,489.125 416.875,482.5"/>
    <polyline points="413.875,481.0 393.75,469.375 378.375,459.375 355.875,443.375 347.75,437.0 344.25,433.875 345.25,434.25 346.75,435.375"/>
    <polyline points="349.0,437.0 394.625,471.625 414.75,485.5 423.875,491.25 436.0,498.0 449.75,504.375 455.625,506.5"/>
    <polyline points="458.375,507.5 470.25,510.625 479.5,512.125 491.5,513.0 497.25,513.0"/>
    <line x1="498.0" x2="510.875" y1="513.0" y2="512.75"/>
    <line x1="511.25" x2="518.125" y1="512.75" y2="512.625"/>
    <line x1="518.375" x2="526.875" y1="512.625" y2="512.75"/>
    <polyline points="527.375,512.75 535.75,512.5 543.625,511.875"/>
    <polyline points="544.625,511.75 556.0,510.375 565.0,508.625 576.75,505.625 583.875,503.375"/>
    <polyline points="586.625,502.5 598.75,497.875 606.0,494.75 614.25,490.875 628.75,483.25 640.125,476.625 653.375,468.375 660.625,463.5 685.5,445.625 704.25,430.75 714.125,422.625 724.0,414.0 742.75,396.375"/>
    <polyline points="751.0,388.0 757.75,380.5 762.75,374.25 765.375,369.875 765.375,367.75 762.75,368.25 757.375,371.25 749.625,376.875 739.875,384.625 728.625,394.25 716.5,405.0 691.625,428.125 647.5,470.0 638.25,478.5 622.0,492.5 608.375,503.25 596.75,511.0 586.625,516.625"/>
    <polyline points="582.125,518.75 570.125,523.125 563.125,524.75 553.75,526.0 548.125,526.25 535.375,526.0 514.375,523.875"/>
    <line x1="512.375" x2="465.0" y1="523.625" y2="517.375"/>
    <polyline points="462.875,517.125 446.5,514.625 435.75,512.625 423.25,509.875 412.0,506.75 403.25,503.75 393.0,499.75 387.0,497.125 372.75,490.0"/>
    <polyline points="364.25,485.375 354.25,479.5 328.875,463.0 312.5,451.375 293.0,436.875 269.625,418.5 241.875,395.625 209.75,367.875 174.0,335.125 137.75,299.375 106.25,265.125 87.75,239.625 90.0,231.875 116.0,247.125 160.5,284.125 212.875,335.125 262.75,390.625 303.75,444.0 333.625,491.75 352.5,532.625 361.875,567.0 363.25,595.625 358.875,618.875 350.375,637.125 339.75,650.375"/>
    <polyline points="328.5,658.625 318.125,661.75 309.875,659.875 304.5,653.5 302.0,643.375 302.25,630.375 305.0,615.625 309.375,600.0 315.0,584.5 321.125,569.5 327.5,555.625 339.75,531.625 350.625,513.25 355.5,506.0 360.0,499.875 364.125,494.875 371.625,487.375 378.375,482.625 381.625,481.125 384.75,480.125 390.75,479.125"/>
    <polyline points="393.625,479.125 402.125,480.25 410.25,482.5 448.25,497.0"/>
    <polyline points="449.5,497.375 458.125,500.125 462.5,501.125 443.5,494.125"/>
    <polyline points="442.0,493.5 428.375,487.375 415.0,480.5 398.75,471.25 383.75,461.625"/>
    <polyline points="380.75,459.625 374.875,455.75 364.875,448.5 359.0,443.75 394.375,469.25"/>
    <polyline points="398.5,472.125 410.5,480.25 418.25,485.0 425.375,489.25 438.375,496.0 451.75,501.75 460.375,504.625 469.0,506.875"/>
    <polyline points="470.5,507.125 482.25,509.0 488.75,509.375"/>
    <polyline points="489.0,509.375 489.5,509.25 485.5,508.25"/>
    <polyline points="485.0,508.25 474.375,505.875 464.875,503.25"/>
    <polyline points="463.625,502.875 450.125,498.375 433.375,491.5 419.75,484.875 410.0,479.625"/>
    <polyline points="406.375,477.75 390.75,468.375 382.0,462.75 363.625,450.25 354.5,443.625 342.625,434.375 337.0,429.75 334.0,426.625 338.875,429.875 346.375,435.625"/>
    <polyline points="351.125,439.375 374.375,457.875 393.0,472.25 410.5,484.875 420.875,491.875 430.375,497.625 439.0,502.25 446.625,505.875 456.75,509.75 467.875,513.0"/>
    <polyline points="470.375,513.5 477.125,514.625 484.75,515.375 495.375,515.625 507.5,515.125"/>
    <line x1="508.375" x2="527.5" y1="515.125" y2="514.0"/>
    <polyline points="528.25,514.0 540.125,513.125 552.625,511.625"/>
    <polyline points="554.0,511.375 566.875,508.875 572.875,507.375 584.875,503.75 593.75,500.625 600.5,497.875 616.875,490.25"/>
    <polyline points="621.625,487.75 638.25,478.5 651.375,470.375 666.625,460.125 675.0,454.25 693.375,440.375 713.375,424.125 734.0,405.875 743.75,396.625 752.75,387.5 760.375,379.25 766.125,372.375 769.5,367.125 770.125,364.375 767.75,364.25 762.625,367.0 754.75,372.5 744.75,380.375 733.0,390.375"/>
    <polyline points="720.375,401.75 707.375,413.75 639.0,479.125 622.375,493.875 608.625,504.875 602.5,509.25 591.75,516.125 586.875,518.75 578.25,522.625 567.0,526.125 560.375,527.25 551.5,528.125"/>
    <polyline points="548.75,528.125 533.875,527.625 496.875,523.5"/>
    <polyline points="495.0,523.25 486.125,522.375 469.875,521.375 459.125,521.5 455.625,521.875 450.875,523.0"/>
    <polyline points="449.5,523.625 447.0,525.125 445.5,527.5 445.125,529.125 445.125,531.0 445.75,533.375 447.0,536.375 449.125,540.0 456.625,549.875 462.875,556.75 471.125,565.125 482.25,575.5 496.75,588.375 515.5,604.125 539.625,623.375 569.875,646.0 606.875,672.125 650.625,700.5 699.0,728.375 748.625,751.75 793.375,765.375 827.375,764.875 846.875,748.75"/>
    <polyline points="851.875,719.25 845.875,681.375 833.875,640.25 807.0,562.5 796.5,529.25 788.75,500.25 783.75,475.375 780.75,454.0 777.375,409.0 775.625,400.125 772.75,394.125 768.25,391.0 762.0,390.875 754.125,393.375 744.75,398.125 734.25,404.875 723.0,413.0 711.375,422.0 688.25,441.25 657.0,468.0"/>
    <polyline points="647.75,475.75 631.25,488.875 617.125,499.0 605.0,506.75 594.375,512.375 589.5,514.5 580.75,517.875 569.125,520.875 565.625,521.5 559.125,522.375 550.25,522.875 537.375,522.625"/>
    <polyline points="535.0,522.5 516.125,520.75 501.375,518.75 487.0,516.375"/>
    <polyline points="485.25,516.0 471.5,513.375 452.875,508.625 444.375,506.0 434.625,502.5 418.75,495.75"/>
    <polyline points="414.0,493.5 403.5,488.25 391.0,481.375 376.0,472.375 367.5,466.875 347.5,453.375 336.125,445.125 310.0,425.25 280.625,401.125 251.5,375.0 239.125,362.875 229.875,353.0 225.125,346.5 225.75,344.75 232.375,348.375 244.375,357.625 260.875,371.625 280.25,389.25 300.75,409.125"/>
    <polyline points="321.125,429.5 340.125,449.5 357.25,468.25 372.125,485.25 395.625,513.125 422.375,547.375 432.25,559.375 436.5,563.125 440.0,564.5 441.5,564.5 444.5,563.625 447.625,561.75 454.25,556.5"/>
    <polyline points="456.0,555.0 467.375,546.375 473.25,542.5 477.25,540.25 483.0,537.25 492.25,533.25 502.75,529.875"/>
    <polyline points="504.375,529.375 510.875,527.75 520.375,525.875 544.625,522.375"/>
    <polyline points="546.375,522.125 556.0,520.75 569.625,518.125 587.25,513.375 598.5,509.375 607.5,505.75 623.875,498.125"/>
    <polyline points="630.25,494.75 645.125,486.25 663.25,474.875 673.875,467.75 698.625,449.75 713.0,438.5 728.625,425.625 745.625,411.125 763.5,395.0 781.75,377.5 799.375,359.375 815.25,341.75 827.5,326.125 834.5,314.625 834.875,308.75 827.875,310.125 814.125,318.75 795.0,334.125 772.625,354.25 749.125,377.375 726.375,401.5 705.25,425.0 686.625,446.875"/>
    <polyline points="670.625,466.75 645.875,499.125 629.25,522.75 608.125,553.875 602.0,560.875 600.375,562.0 597.375,563.0 594.375,562.75 591.375,561.625 581.0,555.625"/>
    <polyline points="579.0,554.5 567.0,548.0 556.75,543.625 546.75,540.25 539.125,538.25 530.25,536.625"/>
    <polyline points="528.625,536.375 519.125,535.5 515.0,535.5 508.875,536.375 506.0,537.5 504.0,539.25 503.5,540.125 503.125,542.0 503.375,544.375"/>
    <polyline points="503.75,545.75 506.875,551.375 513.5,559.25 520.625,566.25 536.875,580.125 552.5,591.875 572.375,605.5 596.5,620.125 609.875,627.375 623.75,634.25 637.625,640.125 651.25,644.75 663.75,647.625 675.0,648.5 684.125,647.125 691.125,643.5"/>
    <polyline points="695.625,637.5 697.75,629.75 697.75,620.375 695.875,610.0 692.5,599.125 688.0,588.125 682.75,577.25 677.125,567.0 671.25,557.375 665.375,548.5 654.125,533.375 643.75,521.5 634.625,512.5 626.625,506.0 616.625,499.5 608.75,495.875 604.25,494.5"/>
    <polyline points="602.375,494.0 594.75,493.0 587.75,493.25 590.375,492.375"/>
    <polyline points="591.125,492.125 601.75,488.0 609.125,484.75 618.5,480.125 633.375,471.875 644.0,465.25"/>
    <polyline points="647.875,462.75 660.125,454.5 673.0,445.0 681.375,438.375 689.25,431.875 698.5,423.375 702.125,419.5 703.0,417.75 702.25,417.75 700.875,418.375 695.75,421.625 678.875,434.5"/>
    <polyline points="673.75,438.5 651.75,455.625 635.625,467.625 616.375,480.625 603.875,488.0 593.0,493.5 580.75,498.75 570.625,502.25"/>
    <polyline points="568.5,503.0 557.375,505.875 540.25,509.25"/>
    <polyline points="539.875,509.375 538.25,510.0 539.875,510.375 542.25,510.375"/>
    <polyline points="542.75,510.375 548.875,510.0 556.875,509.0 568.25,506.75"/>
    <polyline points="569.875,506.25 579.875,503.625 592.625,499.25 602.125,495.375 613.5,490.125 622.25,485.625 638.0,476.75 650.25,469.125 664.25,459.75"/>
    <polyline points="671.875,454.375 680.0,448.5 697.375,435.0 715.625,419.875 724.625,411.75 733.25,403.75 748.125,388.625 753.625,382.375 757.125,377.5 758.625,374.5 757.625,373.5 754.125,374.875 748.5,378.5 740.75,384.25 731.25,391.875 697.875,421.5 664.625,452.5 645.125,470.25"/>
    <polyline points="636.375,478.0 620.875,490.875 607.625,500.875 596.125,508.25 586.25,513.625 577.375,517.375 573.375,518.75 562.625,521.625 553.125,523.0 547.375,523.375 542.125,523.5 532.5,523.125"/>
    <polyline points="530.25,523.0 513.75,521.375 495.375,518.875 482.375,516.75"/>
    <polyline points="480.5,516.375 461.375,512.5 442.75,507.375 425.125,501.0 406.25,492.375"/>
    <polyline points="400.5,489.5 379.75,477.75 361.75,466.375 351.25,459.25 339.5,451.125 326.5,441.5 296.125,418.0 279.125,404.0 261.375,388.75 243.625,372.75 227.125,357.0 213.625,343.0 204.75,332.5 202.625,327.25 208.0,329.0 220.875,338.125 239.875,354.125 262.875,375.125 287.5,399.125 311.625,424.125 333.625,448.5 353.0,471.0"/>
    <polyline points="369.25,491.125 382.5,508.75 393.125,523.75 401.25,536.375 407.5,546.875 412.125,555.5 418.0,567.75 421.75,576.875 422.5,578.0 423.125,578.375 424.5,577.375 430.625,568.125 434.25,563.25 443.0,553.125"/>
    <polyline points="445.375,550.75 455.125,542.25 462.375,537.125 469.375,532.875 478.0,528.625 483.875,526.25 491.25,523.75 497.75,522.0"/>
    <polyline points="499.25,521.625 514.25,518.875 531.0,516.875"/>
    <polyline points="532.125,516.75 545.0,515.25 557.625,513.25 571.625,510.0"/>
    <polyline points="574.0,509.375 584.625,506.25 590.75,504.0 597.75,501.375 609.875,496.125 624.75,488.625 643.5,477.875 667.0,462.625 676.125,456.125 696.5,440.875 719.125,422.375"/>
    <polyline points="731.125,412.0 743.125,401.125 754.625,390.0 765.25,379.125 774.25,369.125 781.0,360.75 784.75,354.75 784.875,351.625 781.375,352.125 774.375,356.125 764.0,363.75 751.375,374.25 737.0,387.0 722.0,401.125 692.25,430.25 654.125,469.125 634.125,489.0 618.125,504.0 611.25,510.0 599.5,519.25"/>
    <polyline points="594.375,522.625 585.25,527.875 577.5,531.25 570.625,533.375 564.375,534.5 556.0,535.125 548.5,535.0 525.625,532.625"/>
    <polyline points="523.75,532.375 508.75,531.375 500.25,531.875 496.625,532.625 494.5,533.5 492.75,534.625 491.0,536.875"/>
    <polyline points="490.75,538.0 490.875,540.5 491.875,543.875 494.375,548.25 496.375,550.875 501.875,557.5 505.75,561.5 516.25,571.375 531.375,584.0 552.25,599.875 565.125,609.0 579.875,618.875 596.25,629.125 614.0,639.5 632.875,649.5 652.125,658.375 671.0,665.375 688.375,669.625 703.375,670.625"/>
    <polyline points="715.125,667.875 723.125,661.5 727.375,651.625 728.25,639.25 726.125,624.875 721.75,609.625 715.875,594.25 709.25,579.25 702.25,565.125 695.25,552.25 682.0,530.125 676.125,521.0 670.625,513.125 661.25,500.625 653.5,491.625 650.125,488.125 641.875,481.125 637.375,478.5 633.5,476.875"/>
    <polyline points="631.75,476.375 628.625,475.75 623.625,475.75 618.375,476.875 615.0,478.125 615.25,478.125"/>
    <polyline points="615.5,478.0 625.5,472.875 641.625,463.125"/>
    <polyline points="643.375,462.0 658.0,451.75 663.375,447.375 664.75,445.75 659.75,448.5"/>
    <polyline points="658.375,449.5 638.0,463.375 626.75,470.625 608.125,481.625"/>
    <polyline points="606.625,482.375 597.25,487.375 594.75,488.875 594.625,489.25 597.125,488.625"/>
    <polyline points="597.875,488.375 604.0,486.0 611.625,482.5 624.5,475.875 635.5,469.5 648.25,461.375"/>
    <polyline points="651.75,459.125 666.0,449.0 679.625,438.25 687.75,431.25 692.5,426.375 693.125,425.125 691.5,425.625 687.5,428.125 670.0,441.0"/>
    <polyline points="665.625,444.375 638.125,464.75 617.0,478.875 606.0,485.25 596.5,490.25 588.125,494.125 576.75,498.625"/>
    <polyline points="574.875,499.25 555.875,505.125 553.875,506.0 553.875,506.25 558.625,506.25 571.25,503.875"/>
    <polyline points="572.75,503.5 583.5,500.375 592.875,497.125 604.5,492.25 615.25,487.25 638.0,474.625 655.375,463.625"/>
    <polyline points="661.875,459.25 675.875,449.25 691.0,437.625 698.875,431.375 714.375,418.0 728.625,404.75 734.625,398.75 739.5,393.375 743.0,389.0 744.875,386.0 744.875,384.625 743.0,384.875 739.25,386.875 733.75,390.75 718.5,402.75 699.75,418.875 660.875,453.625"/>
    <polyline points="651.875,461.375 628.0,481.375 614.375,491.5 597.25,502.5 587.5,507.625 578.75,511.375 574.75,512.75 567.375,515.0 560.625,516.625 551.625,518.0 538.75,518.75"/>
    <polyline points="536.375,518.75 527.875,518.5 516.5,517.625 506.25,516.5 491.625,514.25"/>
    <polyline points="490.0,514.0 478.125,511.625 462.375,507.625 447.875,503.0 436.0,498.5"/>
    <polyline points="432.625,497.0 412.625,487.625 397.125,479.125 384.875,471.75 370.625,462.625 354.375,451.5 336.0,438.125 326.25,430.625 306.25,414.5 296.75,406.375 280.25,391.5 274.625,385.75 271.25,381.75 270.625,380.125"/>
    <polyline points="273.125,381.25 278.625,385.125 287.0,391.625 309.75,411.25 336.5,435.75 385.5,482.5 404.5,500.25 412.5,507.5 426.125,519.125 437.125,527.375 441.75,530.375 449.875,534.875 456.75,537.5 462.75,539.0 465.5,539.375"/>
    <polyline points="468.125,539.5 475.375,539.375 483.875,538.0 500.375,533.875 515.25,530.75"/>
    <polyline points="516.75,530.375 531.125,528.25 560.25,525.0"/>
    <polyline points="562.5,524.625 574.875,522.625 586.875,519.875 594.0,517.875 602.25,515.125 611.75,511.5 623.0,506.5 636.75,499.5 644.75,495.0 653.875,489.75 664.0,483.375 688.625,466.625 703.5,455.625"/>
    <polyline points="720.375,442.625 739.375,427.0 760.625,408.75 783.75,387.625 808.25,363.875 832.5,338.5 854.375,313.375 870.75,291.25 878.5,275.875 874.875,270.625 859.75,277.375 835.0,295.75 804.5,323.125 772.375,355.5 741.75,389.375 714.875,422.125 692.625,452.0 674.875,478.375 661.375,501.125 651.625,520.375 644.75,536.5 640.375,549.875 637.875,560.875 636.875,569.75 636.75,576.625 637.25,582.0"/>
    <polyline points="638.25,585.875 639.25,588.5 640.125,589.875 640.75,590.125 641.125,589.625 641.0,588.25 639.25,583.5 637.75,580.375 633.375,573.375 624.375,562.0 617.375,554.75 609.875,548.125 602.5,542.25 591.5,535.125 581.125,529.625"/>
    <polyline points="577.75,528.125 571.5,525.5 565.5,523.5 560.0,521.75 552.375,519.875 539.125,517.375 521.875,515.25"/>
    <polyline points="520.375,515.125 501.0,512.875 489.125,510.875"/>
    <polyline points="487.875,510.75 478.625,508.875 466.375,505.75 457.25,503.0 446.375,499.125"/>
    <polyline points="443.875,498.125 433.0,493.625 423.25,489.125 403.5,478.625 388.75,469.875 371.625,458.75 352.375,445.25 326.375,425.125"/>
    <polyline points="320.75,420.375 311.75,412.5 309.0,409.75 307.625,408.125 307.625,407.625 312.625,410.875 323.625,419.5 382.75,469.75 406.125,488.625 413.0,493.875 425.5,502.625 431.0,506.25 441.0,512.125"/>
    <polyline points="445.5,514.375 453.625,518.0 460.875,520.5 470.125,522.75 475.625,523.5 487.375,524.0 499.0,523.25 507.25,522.25"/>
    <line x1="508.75" x2="544.75" y1="522.125" y2="517.5"/>
    <polyline points="546.25,517.25 558.625,515.25 569.375,512.875 576.875,510.875 585.625,508.125 596.0,504.375 613.125,497.0"/>
    <polyline points="618.25,494.5 636.125,484.875 650.75,476.0 668.125,464.5 678.0,457.625 700.125,440.875 712.5,431.0 725.5,420.125 739.0,408.375 752.625,395.75 765.875,382.875 778.125,370.125 788.375,358.5 795.75,348.75 799.375,342.125 798.625,339.25 793.25,340.875 783.625,347.125 770.5,357.375 754.875,371.0 737.75,386.75"/>
    <polyline points="720.5,403.75 687.75,437.375 629.625,499.875 614.75,514.875 603.125,525.375 598.25,529.25 589.75,535.125 582.625,538.75 579.375,540.0 573.5,541.625 568.25,542.375 563.375,542.5 558.75,542.25"/>
    <polyline points="556.625,542.0 534.125,538.875 526.375,538.25 522.375,538.25 516.5,539.0"/>
    <polyline points="515.5,539.375 513.0,540.625 511.375,542.5 511.0,544.25 511.125,546.375 513.0,550.75 517.5,556.875 525.625,565.25 533.75,572.375 544.5,580.875 558.25,590.875"/>
    <polyline points="566.375,596.375 584.875,607.875 606.0,619.25 617.125,624.375 628.125,628.875 638.875,632.375 649.0,634.625 658.0,635.5 665.625,634.625 671.75,632.125 676.125,628.125 678.625,622.5 679.5,615.75 678.875,608.0 676.75,599.625 673.75,591.0 669.875,582.25 665.375,573.75 660.5,565.5 655.375,557.875 650.125,550.75 639.875,538.25 634.875,533.0"/>
    <polyline points="630.125,528.375 625.625,524.25 617.125,517.5 609.5,512.5 599.625,507.375 594.0,505.25 589.0,503.75 582.75,502.5 577.625,501.875 569.625,501.875"/>
    <polyline points="568.75,502.0 565.375,502.625 569.75,502.125 573.375,501.25"/>
    <polyline points="574.375,501.0 579.5,499.75 588.0,497.0 596.75,493.75 604.75,490.375 617.75,484.125 625.5,480.0 638.875,472.25"/>
    <polyline points="643.75,469.125 654.5,462.25 672.625,449.5 685.75,439.625 699.0,428.75 711.75,417.625 722.5,407.375 729.75,399.375 731.625,396.75 732.0,395.25 731.0,395.0 728.5,396.125 719.5,402.375 706.125,413.0 690.125,426.5"/>
    <polyline points="681.625,433.75 656.75,455.125 634.25,473.375 621.0,483.25 603.875,494.5 589.5,502.25 585.25,504.25 577.25,507.375 570.125,509.75 563.625,511.5 552.25,513.625"/>
    <polyline points="549.75,513.875 536.5,514.875 525.625,514.875 507.25,513.625"/>
    <polyline points="506.0,513.375 499.875,512.75 490.25,511.25 481.125,509.5 474.0,507.75"/>
    <polyline points="472.5,507.375 456.625,502.875 440.5,496.875 425.5,490.25 410.5,482.625"/>
    <polyline points="406.25,480.25 386.625,468.625 369.125,457.125 356.125,448.0 336.0,433.0 323.5,422.875 313.375,414.125 307.375,408.375 306.5,407.125 307.25,407.25 313.625,411.625 333.375,427.75"/>
    <polyline points="341.875,434.875 377.625,465.625 394.25,479.5 409.125,491.25 427.875,504.625 443.0,513.5 447.375,515.75 455.375,519.0 462.375,521.375 465.625,522.125 471.5,523.375 479.375,524.125"/>
    <polyline points="481.75,524.25 488.375,524.25 498.125,523.625 524.0,520.375"/>
    <polyline points="525.375,520.25 552.75,516.5 566.75,513.75"/>
    <polyline points="569.0,513.125 582.25,509.5 599.375,503.25 608.0,499.625 617.75,495.0 635.625,485.375 658.5,471.25 677.5,458.25 699.75,441.5 712.125,431.625"/>
    <polyline points="725.25,420.75 752.75,396.125 766.125,383.0 778.625,370.125 789.125,358.125 796.875,348.125 800.75,341.125 800.125,338.125 794.875,339.625 785.25,345.75 772.0,356.0 756.125,369.75 738.875,385.75 704.375,420.25 688.375,437.0 629.75,500.375 614.875,515.5 603.375,526.125"/>
    <polyline points="598.5,530.125 590.125,535.875 583.125,539.625 577.0,541.75 571.5,542.875 566.5,543.25 559.625,543.0 536.875,539.75"/>
    <polyline points="535.25,539.5 529.0,538.875 522.25,538.875 516.75,539.875 514.375,541.125 512.875,543.0 512.375,544.75 513.0,548.125"/>
    <polyline points="513.625,549.625 517.125,555.0 523.875,562.375 530.625,568.625 545.25,580.625 558.5,590.25 574.875,600.875 584.125,606.5 594.0,612.0 604.375,617.375 615.0,622.25 625.5,626.5 635.875,629.875 645.625,632.125 654.375,633.125 661.875,632.5 667.875,630.375"/>
    <polyline points="672.25,626.625 675.0,621.5 676.125,615.25 675.75,608.0 674.0,600.25 671.25,592.0 667.625,583.625 663.5,575.375 653.875,560.0 643.75,546.5 638.625,540.625 633.75,535.375 624.5,526.625 615.875,519.75 608.125,514.625 598.125,509.375 589.625,506.25"/>
    <polyline points="587.125,505.5 578.625,503.75 575.125,503.375 566.375,503.25 563.5,503.5 561.0,504.125 562.75,504.125 568.375,503.25 574.125,502.0 581.875,499.75"/>
    <polyline points="583.625,499.25 597.0,494.375 605.5,490.75 615.625,485.875 627.75,479.5 642.125,471.0 653.25,463.875 665.5,455.5 685.75,440.375"/>
    <polyline points="692.875,434.75 707.125,422.875 725.875,405.5 734.25,396.375 736.5,393.25 737.25,391.25 736.5,390.875 734.0,391.875 729.875,394.375 717.75,403.5 701.625,416.875 649.125,462.375 626.75,480.25"/>
    <polyline points="620.125,485.125 608.125,493.375 597.5,499.75 588.0,504.625 575.625,509.75 565.0,512.875 555.875,514.75 542.875,516.125 532.125,516.375"/>
    <polyline points="530.125,516.25 524.625,516.125 508.75,514.875 491.75,512.5"/>
    <polyline points="490.375,512.25 478.5,509.875 464.75,506.375 452.125,502.375 444.625,499.625"/>
    <polyline points="441.875,498.625 426.375,491.875 410.5,483.875 396.0,475.75 378.75,465.0 365.375,456.125 343.125,440.125 320.0,422.0 306.5,410.5"/>
    <polyline points="301.125,405.625 294.75,399.0 294.25,397.875 299.375,401.0 312.25,411.125 330.5,426.75 381.5,471.875 407.125,493.625 421.125,504.5 432.875,512.75 443.0,518.75 447.375,521.125 451.625,523.0"/>
    <polyline points="455.5,524.5 465.625,527.5 474.25,528.875 476.875,529.0 484.125,529.0 490.625,528.5 512.0,525.375"/>
    <line x1="513.625" x2="554.5" y1="525.125" y2="519.25"/>
    <polyline points="556.5,518.875 567.625,516.75 581.125,513.25 594.875,508.625 607.75,503.375 623.875,495.75 630.125,492.375 644.625,484.125 662.125,473.125"/>
    <polyline points="672.125,466.25 695.5,449.375 708.875,439.0 723.375,427.125 738.875,413.875 755.25,399.25 771.75,383.625 787.75,367.5 802.25,351.75 813.75,337.625 821.0,326.625 822.625,320.375 818.125,320.0 807.625,325.875 792.0,337.75 772.75,354.25 751.875,374.0 730.875,395.25 710.75,416.625 692.375,437.125 661.875,472.75 630.875,511.25"/>
    <polyline points="623.625,520.375 612.25,534.375 604.125,543.625 597.875,549.625 592.875,553.125 588.5,554.875 586.625,555.25 582.75,555.375 579.25,554.875 568.5,551.375 561.5,548.625"/>
    <polyline points="559.75,548.0 549.375,544.625 544.5,543.375 536.875,542.0 528.875,541.5 525.5,541.75 523.625,542.25"/>
    <polyline points="522.75,542.5 521.125,543.25 520.0,544.25 519.25,545.625 519.0,547.25 519.375,549.375 520.5,552.0 524.0,557.0 533.125,566.375 540.125,572.375 549.25,579.5 560.625,587.5"/>
    <polyline points="567.125,591.75 581.875,600.625 598.25,609.25 606.75,613.25 615.375,616.625 623.75,619.5 631.75,621.5 639.125,622.625 645.75,622.625 651.25,621.5 655.5,619.125 658.625,615.75 660.5,611.5 661.125,606.25 660.625,600.375 659.125,594.0 656.75,587.375 653.75,580.75 650.125,574.0 646.125,567.625 641.875,561.375 637.375,555.5 628.375,545.125"/>
    <polyline points="623.875,540.625 610.875,529.375 602.875,523.875 592.125,517.875 582.625,514.0 572.125,511.0 561.75,509.25 553.875,508.75"/>
    <polyline points="552.625,508.75 544.0,509.0 539.875,509.5 539.0,510.0 540.125,510.25 543.75,510.25 550.25,509.75"/>
    <polyline points="551.125,509.625 558.625,508.625 570.625,506.125 585.5,501.75 593.625,498.75"/>
    <polyline points="596.625,497.5 610.75,491.375 628.875,482.0 652.375,467.75 666.625,458.125 674.375,452.5 691.125,439.875 709.125,425.25 718.25,417.375 735.625,401.375 743.25,393.75 749.625,386.875 754.5,381.0"/>
    <polyline points="757.375,376.75 758.125,374.375 756.375,374.0 752.25,376.125 745.875,380.375 737.625,386.75 728.0,394.75 705.875,414.25 651.625,464.375 634.0,480.0 618.75,492.375 612.125,497.5 605.875,501.875 594.625,509.0 584.875,514.0 576.25,517.625"/>
    <polyline points="572.375,518.875 561.625,521.625 552.25,522.875 546.625,523.25 531.75,523.0 519.125,521.875 509.5,520.625"/>
    <polyline points="507.625,520.375 493.0,518.375 481.875,516.5 458.375,511.5"/>
    <polyline points="456.0,510.875 438.75,505.75 419.75,498.375 404.75,491.25 385.375,480.625 359.125,464.125 336.375,448.25 323.0,438.375 292.5,414.5"/>
    <polyline points="275.5,400.375 258.125,385.25 241.125,369.625 225.75,354.75 213.75,341.875 206.875,333.0 206.625,329.75 213.75,333.375 228.0,344.0 247.625,360.75 270.625,382.125 294.5,405.75 317.75,430.0 338.875,453.375 357.25,474.875 372.625,494.0 385.375,510.625 403.375,536.75 414.0,554.75 424.125,574.75"/>
    <polyline points="425.125,575.875 425.875,576.25 426.75,576.0 427.625,575.25 437.5,562.25 443.75,555.125 448.25,550.625 455.25,544.5 460.0,541.0 464.625,537.75 471.5,533.75"/>
    <polyline points="473.625,532.625 481.875,528.75 491.25,525.375 502.75,522.25 515.375,520.0"/>
    <line x1="516.625" x2="550.5" y1="519.75" y2="515.25"/>
    <polyline points="552.125,515.0 563.125,513.0 569.5,511.5 579.5,508.75 588.375,505.875 598.875,501.875 607.0,498.375 621.625,491.25 627.125,488.25"/>
    <polyline points="633.25,484.875 654.625,471.875 663.0,466.375 681.875,453.125 703.625,436.375 715.5,426.75 727.875,416.125 740.5,404.875 753.0,393.125 764.875,381.375 775.25,370.25 783.625,360.25 789.125,352.625 791.0,347.75 788.875,346.625 782.625,349.5 772.875,356.375 760.125,366.5 729.625,394.125 713.625,409.625 698.125,425.25"/>
    <polyline points="683.375,440.25 646.625,478.5 628.0,497.375 613.25,511.25 607.0,516.625 596.25,524.875 591.5,528.0 583.375,532.5 573.0,536.25 564.125,537.75 558.875,538.0 549.375,537.5"/>
    <polyline points="547.125,537.375 531.25,535.375 519.375,534.375 512.125,534.375 507.0,535.0 505.875,535.375"/>
    <polyline points="504.875,535.625 502.125,537.0 500.375,539.125 499.875,541.0 500.125,543.5 501.375,546.75 502.5,548.625 508.0,556.0 514.375,562.75 529.375,576.125 544.25,587.875 563.625,601.75"/>
    <polyline points="575.25,609.5 588.125,617.5 602.0,625.625 616.625,633.5 631.875,640.75 647.0,646.875 661.375,651.375 674.625,653.75 685.875,653.75 694.875,651.125 701.125,645.875 704.625,638.25 705.625,628.625 704.375,617.75 701.25,606.0 696.875,593.875 691.5,582.0 685.625,570.5 679.5,559.875 673.375,550.0 667.375,541.0 656.0,526.0 650.875,519.875 641.625,510.0"/>
    <polyline points="637.375,506.125 626.75,497.75 620.875,494.25 615.875,491.875 611.625,490.5 606.375,489.25 602.375,488.875 596.125,489.125 611.25,482.5 623.375,476.25"/>
    <polyline points="625.75,475.0 642.75,464.875 656.0,456.0 666.375,448.5 676.375,440.75 684.75,433.625 690.125,428.375 691.5,426.625 691.375,426.375"/>
    <polyline points="690.625,426.5 685.5,429.625 676.125,436.375 646.125,458.875 628.75,471.125 616.875,478.75 599.875,488.25"/>
    <polyline points="596.875,489.75 588.75,493.625 575.875,498.75 558.25,504.375"/>
    <polyline points="557.875,504.5 556.375,505.25 556.375,505.5 559.0,505.625 565.125,504.75"/>
    <polyline points="566.25,504.5 577.0,502.0 591.25,497.375 608.625,490.0 624.125,482.125"/>
    <polyline points="628.625,479.75 649.5,467.125 661.875,458.75 682.75,443.625 697.875,431.625 712.875,418.75 726.625,406.125 737.125,395.125 742.25,388.125 742.25,386.75 740.5,387.0 737.0,388.875 725.0,397.5 717.25,403.875"/>
    <polyline points="708.5,411.25 644.25,467.5 622.0,485.25 609.375,494.125 598.25,501.0 584.0,508.25 572.0,512.75 561.625,515.375 555.5,516.5"/>
    <polyline points="552.5,516.875 547.125,517.5 533.0,517.875 516.0,516.875 503.0,515.375"/>
    <polyline points="501.375,515.125 487.375,512.875 474.0,510.0 457.875,505.5"/>
    <polyline points="455.5,504.75 442.625,500.25 422.375,491.5 414.0,487.375 399.375,479.25 387.75,472.5 374.5,464.125 351.25,448.125 333.75,435.125"/>
    <polyline points="324.625,428.0 306.625,413.25 298.375,406.125 285.25,393.875 281.25,389.75 279.5,387.25 280.25,387.0 283.75,389.125 298.125,400.5 308.25,409.0 344.125,441.25 389.0,482.875 398.375,491.25 414.5,505.375 433.375,520.0"/>
    <polyline points="438.625,523.5 447.625,528.625 455.25,532.0 462.0,534.0 467.875,535.0 478.0,535.375 482.5,534.875 486.75,534.375 503.625,531.0"/>
    <polyline points="505.25,530.625 515.125,528.75 529.5,526.5 546.5,524.375"/>
    <polyline points="548.375,524.125 560.5,522.5 567.5,521.25 578.25,518.875 587.875,516.25 595.25,513.875 608.5,508.875 619.25,504.0 632.125,497.625"/>
    <polyline points="639.5,493.5 647.75,488.75 667.25,476.375 691.625,459.25 706.125,448.375 722.375,435.625 740.25,420.625 759.75,403.625 780.375,384.375 801.5,363.625 821.625,342.25 839.0,321.75 851.125,304.75 855.75,293.75 851.375,291.0 838.125,297.625 817.25,313.375 791.75,335.875 764.375,362.75 737.75,391.25 713.625,419.125 692.625,445.0 675.125,468.25 660.875,488.625"/>
    <polyline points="649.625,506.0 640.875,520.75 634.25,533.0 629.375,543.25 625.75,551.625 623.25,558.25 621.375,563.625 618.625,573.125 618.125,574.5 617.5,575.25 616.125,575.125 605.625,564.125 601.0,559.75 593.25,553.375"/>
    <polyline points="590.625,551.375 579.375,544.125 568.125,538.375 560.0,535.0 552.25,532.25 542.625,529.375 527.125,525.875"/>
    <polyline points="525.125,525.5 509.625,522.875 478.125,518.25"/>
    <polyline points="476.125,518.0 456.75,514.75 438.0,510.625 420.75,505.375 412.125,502.25 402.125,498.0"/>
    <polyline points="396.375,495.25 382.875,488.375 365.875,478.625 343.75,464.25 330.0,454.75 314.0,443.125 295.625,429.125 274.5,412.25 250.625,392.25 224.375,369.25 197.125,344.0 171.25,318.25 150.5,295.375 139.5,279.625 142.25,275.75 160.0,286.5 190.0,311.0 227.125,345.75 265.375,385.25 300.125,425.25 329.125,462.625 351.25,495.75 367.125,524.25"/>
    <polyline points="377.25,548.25 382.75,568.25 384.625,584.625 383.625,597.75 380.875,607.75 377.0,615.0 372.625,619.75 368.5,621.875 364.875,621.75 362.25,619.625 360.625,615.625 360.125,610.25 360.875,603.625 362.5,596.125 365.125,588.25 368.375,580.25 372.125,572.125 376.25,564.375 384.875,550.125 389.375,543.75 397.875,532.875 405.875,524.125 409.625,520.625"/>
    <polyline points="413.25,517.5 416.625,514.75 425.75,508.75 431.0,506.125 435.75,504.25 439.875,503.0 447.0,501.75 452.5,501.375 459.125,501.5"/>
    <polyline points="459.75,501.625 463.5,501.75 462.5,501.125 459.875,500.25"/>
    <polyline points="459.25,500.0 444.625,494.625 427.5,487.0"/>
    <polyline points="425.375,486.0 413.625,479.875 393.75,468.25 375.25,456.125 364.625,448.5 359.375,444.375"/>
    <polyline points="358.375,443.625 357.625,442.875 361.875,445.625 392.625,468.25 405.125,476.875 420.875,486.875 431.5,492.75"/>
    <polyline points="434.75,494.5 446.5,500.0 458.5,504.375 469.375,507.25 478.5,508.875 481.5,509.125"/>
    <polyline points="482.375,509.25 487.625,509.75 491.375,509.75 490.75,509.375 483.5,508.0"/>
    <polyline points="483.0,507.875 470.75,505.0 458.25,501.25"/>
    <polyline points="456.75,500.75 440.125,494.5 422.25,486.25 405.75,477.375 389.75,467.875"/>
    <polyline points="385.375,465.125 366.875,452.625 353.125,442.625 341.25,433.375 335.75,428.75 333.125,426.0 336.0,427.75 346.75,436.0 375.625,458.875"/>
    <polyline points="381.875,463.875 400.375,478.0 411.875,486.0 422.25,492.875 436.125,501.0 444.125,505.0 451.375,508.125 460.75,511.375 468.875,513.5 480.0,515.25"/>
    <polyline points="482.0,515.375 494.875,515.875 512.75,515.0"/>
    <line x1="513.625" x2="533.25" y1="515.0" y2="513.75"/>
    <polyline points="534.125,513.75 541.625,513.125 553.5,511.625 564.375,509.5"/>
    <polyline points="566.25,509.125 576.625,506.5 589.75,502.125 599.5,498.375 615.625,491.0 630.875,482.875 643.0,475.75 664.625,461.625"/>
    <polyline points="673.0,455.75 681.75,449.375 701.0,434.5 721.625,417.25 731.875,408.0 751.25,389.375 759.25,380.75 765.5,373.375 769.5,367.75 770.875,364.25 769.25,363.5 764.625,365.625 757.25,370.5 747.625,378.0 736.125,387.625 723.625,398.75 697.375,423.25 641.0,477.5"/>
    <polyline points="632.125,485.625 616.625,498.875 603.75,508.75 592.75,515.75 587.875,518.5 579.125,522.625 567.75,526.25 558.0,527.875 546.625,528.5 539.125,528.25 532.25,527.625"/>
    <polyline points="530.0,527.5 501.0,524.125 483.25,522.5"/>
    <polyline points="481.5,522.375 474.375,522.0 465.5,522.0 457.25,523.0 452.875,524.375 450.625,526.0 449.75,527.125 449.0,530.0 449.125,532.0 449.75,534.375 451.0,537.25"/>
    <polyline points="453.0,540.75 460.375,550.25 466.25,556.75 474.125,564.75 484.5,574.5 498.0,586.5 515.375,601.25 537.625,618.875 565.25,639.625 599.0,663.625 638.875,689.75 683.5,716.0 729.875,739.0 773.375,754.25 808.5,757.75 831.25,747.125 840.375,723.5 838.25,690.5 828.875,652.875 816.125,614.5 791.875,545.5 782.875,516.75 776.375,491.625 772.0,470.125"/>
    <polyline points="769.25,451.875 766.375,424.0 765.0,414.0 763.0,406.5 760.0,401.625 755.625,399.25 750.0,399.125 743.0,401.25 734.875,405.125 725.75,410.75 716.0,417.5 705.75,425.125 656.5,464.875 632.125,483.875 618.375,493.5 606.375,501.0 600.875,504.0"/>
    <polyline points="595.75,506.625 586.375,510.75 574.0,514.875 566.875,516.5 557.125,518.125 543.5,519.0 534.125,518.875 522.0,518.125"/>
    <polyline points="520.125,518.0 504.625,516.25 491.75,514.25 478.375,511.625"/>
    <polyline points="476.5,511.125 470.875,509.875 458.25,506.375 448.375,503.125 436.5,498.625 417.875,490.125 403.625,482.625"/>
    <polyline points="398.125,479.625 386.0,472.375 364.375,458.25 347.25,446.25 328.375,432.125 308.625,416.25 290.0,400.375 276.25,387.25 272.5,383.0 271.375,380.875 273.25,381.375 278.125,384.75 285.875,390.625 295.875,399.125 320.625,421.0 347.375,445.875"/>
    <polyline points="360.125,458.0 393.5,489.75 410.875,505.75 424.875,517.625 436.0,526.125 440.875,529.375 445.25,532.0 452.875,535.625 459.375,537.875 462.375,538.5 470.375,539.25 477.375,538.75 483.625,537.75"/>
  </g>
</svg>
