<?xml version="1.0" encoding="utf-8" ?>
<svg xmlns="http://www.w3.org/2000/svg" xmlns:cc="http://creativecommons.org/ns" xmlns:dc="http://purl.org/dc/elements/1.1/" xmlns:ev="http://www.w3.org/2001/xml-events" xmlns:inkscape="http://www.inkscape.org/namespaces/inkscape" xmlns:rdf="http://www.w3.org/1999/02/22-rdf-syntax-ns" xmlns:sodipodi="http://sodipodi.sourceforge.net/DTD/sodipodi-0.dtd" xmlns:xlink="http://www.w3.org/1999/xlink" baseProfile="tiny" height="27.09333333cm" version="1.2" viewBox="0 0 1024.0 1024.0" width="27.09333333cm">
  <metadata>
    <rdf:RDF>
      <cc:Work>
        <dc:format>image/svg+xml</dc:format>
        <dc:source>vpype read './original_svgs/Strange Attractors #82.svg' linemerge linesimplify write './Strange Attractors #82.svg'
</dc:source>
        <dc:date>2024-08-05T01:35:23.748987</dc:date>
      </cc:Work>
    </rdf:RDF>
  </metadata>
  <defs/>
  <g fill="none" id="layer1" inkscape:groupmode="layer" inkscape:label="1" stroke="black" stroke-width="0.7mm" style="display:inline">
    <polyline points="354.875,309.75 363.75,240.75 338.0,176.0 280.5,112.5 195.75,54.0 95.875,15.125 6.75,19.125 -0.0,27.9071"/>
    <polyline points="-0.0,309.6885 1.25,313.75 46.875,426.5 82.5,517.0 102.5,585.125 107.625,633.625 102.375,665.5 92.625,681.75 85.0,683.125 85.375,669.75 96.875,643.625 119.25,608.25 149.0,568.25 211.875,489.875 238.0,456.25 258.5,427.5 273.5,403.625"/>
    <polyline points="283.375,384.25 289.125,369.0 291.625,357.75 292.0,350.125 291.125,345.75 289.75,344.75 288.75,346.75 288.375,351.25 289.25,358.25 291.25,367.0 294.625,377.125 299.25,388.125 304.875,399.625 311.25,411.125 318.25,422.375 325.625,433.25 333.125,443.375 340.75,452.75 355.5,469.0 362.5,475.875 375.75,487.5 382.0,492.375 393.375,500.375"/>
    <polyline points="398.75,503.75 408.5,509.25 421.25,515.375 428.625,518.5 459.75,529.875 469.125,534.25"/>
    <polyline points="470.375,534.875 475.75,538.625 479.75,542.625 481.625,545.25 484.0,549.75 486.25,556.875"/>
    <polyline points="486.5,558.0 489.5,569.875 491.75,574.75 493.25,577.125 496.625,580.5 499.75,582.375 504.0,584.0 509.5,584.875"/>
    <polyline points="513.0,585.0 517.0,585.0 526.875,583.75 539.875,581.0 556.75,575.75 567.0,572.125 591.125,562.125 605.125,555.75 620.125,548.375 635.875,540.125 652.0,531.125 668.0,521.75 683.125,512.25 696.625,503.125 707.75,494.875 716.0,488.0 721.0,482.875 722.75,479.5 721.5,478.125 717.75,478.25 705.125,482.625"/>
    <polyline points="697.25,486.0 651.75,507.5 634.625,514.125 625.25,516.75 617.125,518.25 613.375,518.625 610.0,518.875 603.75,518.75 600.75,518.5 593.0,517.0 584.125,514.0"/>
    <polyline points="582.25,513.125 576.875,510.375 572.125,507.375 568.125,504.375 563.5,500.125 560.625,496.875 558.25,493.5 556.875,491.125 554.75,486.25"/>
    <polyline points="554.25,485.0 552.5,478.125 551.5,470.625 550.375,439.25"/>
    <polyline points="550.125,436.375 549.375,430.25 548.125,423.375 546.25,415.5 543.375,406.5 539.0,395.875 536.0,389.75 532.375,383.0 527.875,375.625 522.25,367.25 515.5,358.0 507.125,347.625 496.75,335.875 484.125,322.5 468.5,307.5 449.5,290.75 426.375,272.125 398.625,252.125 365.875,231.375 328.75,211.5 288.375,195.0"/>
    <polyline points="247.625,185.0 210.375,185.375 181.5,198.875 164.375,226.125 160.25,264.625 167.25,310.0 181.75,357.125 199.875,402.125 218.625,442.375 235.875,477.0 272.125,547.875 284.625,573.625 291.875,587.5 294.5,591.0 296.875,592.75 299.375,592.875 302.125,591.75 308.875,586.375 322.75,573.25"/>
    <polyline points="328.25,568.25 346.375,553.25 359.0,544.125 371.375,536.125 383.25,529.5 394.25,524.25 404.5,520.25 413.875,517.125 422.5,515.0 437.375,512.625 449.75,512.0"/>
    <polyline points="452.5,512.125 462.25,512.625 473.875,514.25 484.875,516.875 491.625,519.375"/>
    <polyline points="492.375,519.75 495.125,521.25 498.25,523.5 500.875,526.375 502.75,530.125"/>
    <polyline points="502.875,530.625 504.125,535.5 505.5,546.625"/>
    <polyline points="505.625,547.375 507.25,554.0 508.875,557.375 510.75,559.875 512.25,561.375 515.375,563.5 518.125,564.75 523.5,566.0"/>
    <polyline points="525.75,566.25 528.125,566.375 537.25,565.75 549.375,563.5 559.5,560.75 565.25,558.875 585.25,551.25 608.375,540.625 624.25,532.25 631.875,527.875 639.125,523.625 651.5,515.375 656.25,511.875 659.875,508.75 662.375,506.125"/>
    <polyline points="663.625,504.125 663.625,502.75 662.625,502.0 660.75,501.625 657.875,501.875 646.0,504.25 622.0,510.375 612.75,512.375 604.0,513.875 596.0,514.875 588.625,515.375 582.0,515.5 573.125,515.125"/>
    <polyline points="570.5,514.875 561.125,513.375 550.125,510.375 547.125,509.25 540.875,506.25 533.75,501.25"/>
    <polyline points="533.0,500.625 531.125,498.625 528.625,495.0 526.75,491.125 525.125,485.75 524.0,479.625"/>
    <polyline points="523.75,478.375 521.75,463.0 520.0,453.625 517.0,442.0 512.75,430.25"/>
    <polyline points="511.375,427.0 505.75,415.625 500.5,406.875 493.75,396.875 484.875,385.375 479.375,379.0 466.125,365.0 458.0,357.25 448.875,349.125 438.5,340.5 426.875,331.75 414.0,322.75 399.75,313.875 384.375,305.375 368.125,297.75 351.25,291.5 334.5,287.25 318.375,285.75 303.75,287.25 291.625,292.375"/>
    <polyline points="282.375,301.25 276.5,313.625 274.25,328.75 275.25,346.125 279.25,364.875 285.375,383.875 293.125,402.625 301.875,420.375 311.0,436.875 320.375,451.875 329.375,465.25 338.125,477.125 346.375,487.5 354.125,496.375 368.0,510.75 374.125,516.375 385.125,525.375 390.0,528.875 398.75,534.5 406.375,538.625 413.0,541.75"/>
    <polyline points="416.0,543.125 432.25,549.875 435.625,551.5 440.0,554.125 443.375,556.75 446.0,559.625 447.375,561.75 448.375,564.0 449.25,567.625"/>
    <polyline points="449.375,568.875 449.5,571.625 448.625,577.625 445.5,586.25 442.375,592.25 438.0,599.0 432.0,606.5 424.0,615.0 417.0,621.5"/>
    <polyline points="412.875,624.875 403.125,632.375 397.25,636.5 383.375,645.375 365.875,655.125 355.375,660.5 343.5,665.875 330.375,671.375 315.875,676.875 300.125,682.0 283.25,686.5 265.875,689.875 248.5,691.375 232.375,690.5 218.75,686.375 208.875,678.375 204.125,666.25 205.125,649.875 211.875,630.125 223.625,608.0 239.0,584.75 256.5,561.5 274.625,539.375"/>
    <polyline points="292.25,519.0 323.25,484.75 370.5,433.75 380.125,423.625 386.625,417.125 389.125,415.0 391.125,413.5 392.875,412.625 394.5,412.125 397.125,412.125 399.625,413.375 402.25,415.5 407.75,421.125"/>
    <polyline points="409.25,422.625 419.5,432.0 424.875,436.125 430.375,439.625 437.375,443.375 442.375,445.375 448.375,447.0 451.125,447.375"/>
    <polyline points="452.375,447.5 457.0,447.25 459.0,446.75 460.75,446.0 463.5,443.75 464.875,441.375 465.75,437.5 465.5,433.875 464.625,429.625"/>
    <polyline points="464.0,428.125 462.75,424.875 459.875,419.375 455.875,413.375 450.5,406.75 441.125,397.375 432.25,390.25 422.125,383.625 414.75,379.875 407.25,377.0"/>
    <polyline points="403.625,375.875 396.375,374.625 393.125,374.625 390.0,375.0 387.125,375.75 384.625,377.0 382.5,378.625 380.75,380.625 379.375,383.125 378.5,386.0 378.125,389.125 378.125,392.625 378.5,396.25 380.625,404.125 384.25,412.375 388.875,420.625 394.5,428.5 400.5,435.875 407.0,442.5"/>
    <polyline points="410.125,445.5 416.625,451.0 426.125,457.875 435.125,463.25 443.375,467.375 450.875,470.375 457.75,472.5 465.75,474.25 472.5,475.0"/>
    <polyline points="474.0,475.0 480.75,474.375 483.0,473.875 487.0,472.25 489.375,470.625 491.5,468.5 493.625,465.125 495.0,461.0"/>
    <polyline points="495.25,459.75 495.75,455.875 495.5,449.875 494.625,444.5 492.25,436.0 489.125,428.5 482.75,416.5 478.125,409.625 472.5,402.125"/>
    <polyline points="469.125,398.0 461.375,389.25 446.25,374.875 433.75,364.75 419.0,354.5 410.875,349.625 402.375,345.0 393.5,340.875 384.5,337.25 375.375,334.5 366.5,332.75 358.0,332.125 350.125,332.875 343.125,335.0 337.25,338.625 332.75,343.75 329.75,350.25 328.125,357.875 327.875,366.625 329.125,376.0 331.5,385.875"/>
    <polyline points="335.0,396.0 339.375,406.125 344.25,416.0 349.75,425.375 355.5,434.375 361.375,442.75 367.5,450.5 373.5,457.625 385.125,469.875 396.125,479.875 401.375,484.125 411.125,491.375 420.0,497.125 431.875,503.625 438.875,507.0 450.875,512.125"/>
    <polyline points="453.5,513.125 478.0,522.375 485.625,526.25 489.625,529.125"/>
    <polyline points="490.25,529.625 492.125,531.375 494.125,533.875 496.0,537.0 498.125,542.75 499.125,546.875"/>
    <polyline points="499.25,547.625 501.375,555.75 503.375,560.5 504.625,562.375 506.0,564.125 508.875,566.75 511.375,568.25 514.5,569.5"/>
    <polyline points="516.375,570.0 520.875,570.75 529.75,570.75 533.5,570.375 542.125,568.875 547.25,567.75 559.125,564.25 573.25,559.375 581.25,556.125 598.875,548.5 608.375,544.0 618.125,539.125 637.5,528.5 655.125,517.75 668.75,508.125 673.5,504.125"/>
    <polyline points="676.625,501.0 678.125,498.5 678.25,497.0 676.875,496.25 674.25,496.125 666.25,497.75 628.25,509.0 613.375,512.5 600.375,514.375 592.875,514.875 586.0,514.875 579.875,514.375"/>
    <polyline points="577.125,514.125 569.5,512.75 563.125,511.0 555.875,508.25 551.375,506.0 546.375,502.875 542.375,499.5 539.125,496.0"/>
    <polyline points="538.5,495.125 537.125,493.375 534.0,487.375 532.5,483.0 530.875,476.75 528.75,464.625"/>
    <polyline points="528.5,462.875 526.625,452.875 524.25,443.125 520.375,431.375 517.5,424.375 513.75,416.375 508.75,407.375 502.125,397.0 493.25,385.0 481.5,370.875"/>
    <polyline points="474.125,363.0 455.875,345.5 444.75,335.875 432.0,325.875 417.625,315.375 401.625,304.75 383.875,294.5 364.875,285.0 344.875,277.125 324.75,271.5 305.375,269.25 288.0,271.0 273.5,277.375 263.0,288.5 257.0,304.0 255.5,323.25 258.0,344.75 264.0,367.375 272.25,390.125 282.0,411.875 292.375,432.125 303.0,450.375 313.25,466.75 323.0,480.875 332.125,493.125"/>
    <polyline points="340.5,503.625 355.0,520.125 367.125,531.625 377.125,539.75 385.625,545.375 396.0,550.75 401.875,553.125 417.25,558.125 424.625,561.25"/>
    <polyline points="425.75,562.0 429.625,565.0 431.0,566.875 432.375,569.75 432.875,574.375 432.25,578.375 431.375,581.25 429.0,586.0 426.875,589.5 424.125,593.25"/>
    <polyline points="422.5,595.125 416.5,601.5 408.375,608.625 401.625,613.75 393.5,619.25 383.75,625.125 372.125,631.25 365.625,634.25 351.125,640.25 334.875,645.625 326.125,647.875 317.375,649.5 308.5,650.625 300.0,650.875 292.0,650.125 284.875,648.125"/>
    <polyline points="279.125,644.75 275.0,639.875 272.625,633.625 272.5,625.875 274.375,616.75 278.375,606.625 284.25,595.75 291.625,584.375 300.125,573.0 309.5,561.75 319.25,551.125 329.125,541.0 338.875,531.75 348.375,523.25 366.0,509.0 381.625,498.125 388.625,493.75 401.125,486.75 412.0,481.875 416.875,480.0 425.625,477.25"/>
    <polyline points="429.625,476.25 436.875,474.625 446.25,473.375 462.875,472.125 471.625,471.125 475.875,470.25 479.5,469.125 481.625,468.125"/>
    <polyline points="482.625,467.625 485.125,465.75 487.875,462.625 489.375,459.75 490.375,456.5 490.875,451.125 490.75,448.125 490.0,442.875 488.375,436.875"/>
    <polyline points="487.625,434.75 483.375,424.875 478.375,416.125 474.0,409.625 465.375,398.625 453.625,386.25 449.0,381.875 438.25,372.75 425.75,363.625 418.875,359.125 411.625,354.75 404.0,350.75 396.125,347.125 388.125,344.125"/>
    <polyline points="380.125,341.625 372.25,340.125 364.625,339.625 357.75,340.125 351.5,341.875 346.125,344.875 341.875,349.0 338.875,354.375 337.0,360.875 336.5,368.25 337.125,376.25 338.875,384.875 341.5,393.75 345.0,402.625 349.125,411.5 353.875,420.125 358.875,428.375 369.625,443.375 375.25,450.25 380.75,456.375 391.5,467.375 406.625,480.125"/>
    <polyline points="411.375,483.625 420.125,489.5 428.25,494.25 435.625,498.125 442.375,501.25 454.125,506.125 479.625,514.75"/>
    <polyline points="481.0,515.25 490.625,519.0 494.375,521.0 497.75,523.375 499.75,525.5"/>
    <polyline points="500.125,525.875 501.625,528.125 502.875,531.0 504.125,536.625 504.375,539.25"/>
    <polyline points="504.5,539.875 505.875,549.75 506.5,552.25 508.25,556.5 510.5,559.75"/>
    <polyline points="511.25,560.625 514.0,562.875 516.375,564.125 519.375,565.25 523.0,566.0 530.25,566.375 540.125,565.5 553.375,562.5 564.25,559.25 584.125,551.75 599.25,545.125"/>
    <polyline points="607.125,541.25 615.25,537.25 630.875,528.625 645.0,520.0 650.875,516.0 659.625,509.125 662.375,506.375 663.75,504.375 664.0,502.875 663.125,502.0 661.375,501.625 655.25,502.25 646.875,504.0 618.125,511.25 609.0,513.0"/>
    <polyline points="604.75,513.75 592.875,515.125 585.875,515.5 571.0,514.875 561.5,513.375 555.5,511.875 550.375,510.375 543.5,507.5"/>
    <polyline points="542.25,506.875 539.0,505.0 534.625,501.875 530.75,497.875 528.375,494.125 526.875,491.0 526.375,489.25"/>
    <polyline points="526.0,488.375 525.0,484.625 523.875,478.25 522.5,467.5 520.5,455.25"/>
    <polyline points="520.0,453.25 517.75,444.0 516.125,438.75 512.625,429.625 509.5,422.625 502.875,410.5 496.75,401.0 493.0,395.75 483.875,384.125 478.25,377.625 464.625,363.375 456.375,355.5 446.875,347.25 436.25,338.625"/>
    <polyline points="424.375,329.75 411.125,320.75 396.625,311.875 381.0,303.5 364.625,296.125 347.625,290.25 330.875,286.5 315.0,285.5 300.75,287.75 289.125,293.75 280.5,303.375 275.375,316.375 273.875,332.125 275.625,350.0 280.0,368.875 286.625,387.875 294.625,406.5 303.625,424.125 312.875,440.375 322.125,455.125 331.125,468.125 348.0,489.75 362.625,505.875 369.25,512.25"/>
    <polyline points="375.25,517.75 380.875,522.375 390.875,529.75 395.375,532.75 403.375,537.375 410.25,540.875 434.125,551.0 440.0,554.375 443.375,557.125"/>
    <polyline points="444.25,558.0 446.625,561.125 448.125,564.375 449.0,568.0 449.0,573.5 447.75,579.75 446.5,583.25 442.875,590.875 440.25,595.125"/>
    <polyline points="438.75,597.375 435.25,602.125 425.625,613.0 415.125,622.5 406.125,629.75 394.625,637.75 380.125,646.75 361.875,656.75 351.0,662.0 338.75,667.5 325.25,672.875 310.375,678.125 294.25,683.0 277.375,687.0 260.125,689.75 243.375,690.375"/>
    <polyline points="228.25,688.375 216.0,682.875 208.125,673.5 205.5,659.875 208.5,642.5 217.125,622.0 230.125,599.625 246.125,576.625 263.75,554.0 281.625,532.75 298.625,513.25 350.875,456.75 382.25,423.875 388.5,418.0 391.0,416.125 394.75,413.875 396.375,413.5"/>
    <polyline points="397.75,413.375 400.5,414.125 403.0,415.75 414.5,426.5 421.125,432.125 429.875,438.125 436.5,441.75"/>
    <polyline points="438.125,442.375 444.375,444.625 449.75,445.75 453.375,445.875 455.5,445.625 459.125,444.375 461.125,442.875 462.25,441.5 463.375,439.0"/>
    <polyline points="463.5,438.125 463.75,437.125 463.75,433.75 463.0,429.875 461.375,425.25 457.75,418.375 453.625,412.5 448.375,406.25 444.0,401.75 436.5,395.125"/>
    <polyline points="433.625,392.875 427.5,388.625 421.0,384.75 414.125,381.375 407.125,378.875 400.375,377.375 397.125,377.125 394.125,377.25 391.375,377.75 388.75,378.625 386.625,379.875 384.75,381.5 383.25,383.5 382.125,385.875 381.375,388.5 381.0,391.5 381.625,398.25 382.5,401.875 385.375,409.375"/>
    <polyline points="387.125,413.25 389.25,417.125 394.125,424.625 399.625,431.75 405.625,438.25 414.75,446.875 420.875,451.75 426.875,455.875 435.5,461.0 446.0,466.0 455.25,469.25"/>
    <polyline points="457.375,469.75 461.375,470.75 466.75,471.625 473.125,471.875 477.125,471.5 481.75,470.375 483.75,469.5 487.125,467.125 489.125,465.0"/>
    <polyline points="489.625,464.125 491.125,461.375 492.375,456.875 492.625,449.75 492.25,446.5 491.125,440.875 489.875,436.625 487.125,429.625 483.0,421.375"/>
    <polyline points="481.25,418.375 477.125,411.875 472.0,404.875 465.625,397.0 457.75,388.625 448.25,379.5 442.875,374.875 430.625,365.25 423.75,360.5 408.75,351.375 400.625,347.25 392.375,343.625 383.875,340.625 375.5,338.375 367.375,337.125 359.625,336.875 352.625,337.875 346.5,340.25 341.375,343.875"/>
    <polyline points="337.375,348.875 334.75,355.0 333.5,362.25 333.5,370.375 334.625,379.125 337.0,388.25 340.25,397.625 344.25,407.0 349.0,416.125 354.0,424.875 365.0,441.125 370.75,448.375 382.125,461.25 393.0,471.875 408.125,484.25 421.625,493.125 433.375,499.625"/>
    <polyline points="436.875,501.375 446.5,505.75 457.375,510.0 479.625,517.75 486.5,520.625"/>
    <polyline points="487.5,521.125 491.625,523.375 495.875,526.625 498.75,530.125 500.375,533.5"/>
    <polyline points="500.625,534.0 501.75,537.75 503.25,546.5 504.625,552.375"/>
    <polyline points="504.875,553.25 506.625,557.625 509.0,561.125 511.5,563.5 513.75,565.0 516.625,566.25 522.125,567.5 527.0,567.875 533.0,567.625 540.375,566.625"/>
    <polyline points="544.625,565.75 549.375,564.75 560.25,561.625 573.125,557.125 587.875,551.25 604.25,543.75 612.75,539.5 637.875,525.75 652.125,516.625 662.5,508.875 665.875,505.75 667.875,503.375 668.625,501.5 668.0,500.375 666.375,499.875 663.75,500.0 656.375,501.25"/>
    <polyline points="651.75,502.375 626.625,509.25 616.875,511.5 607.75,513.25 599.375,514.375 584.875,515.25 578.625,515.0 567.875,513.75 559.25,511.875"/>
    <polyline points="557.375,511.375 549.125,508.375 541.625,504.375 537.875,501.625 535.5,499.375 532.875,496.375 531.375,494.0"/>
    <polyline points="530.875,493.125 528.125,486.875 527.0,482.75 523.875,463.875"/>
    <polyline points="523.625,462.125 520.75,447.875 517.625,437.375 514.0,428.0 508.625,416.75 500.5,403.125 493.0,392.375 483.0,380.125 476.875,373.25"/>
    <polyline points="469.875,365.875 461.875,358.0 452.875,349.75 442.5,340.875 430.75,331.75 417.75,322.375 403.25,313.0 387.375,303.875 370.5,295.5 352.875,288.5 335.0,283.375 317.875,281.0 302.0,281.875 288.625,286.625 278.25,295.25 271.625,307.875 268.875,323.625 269.625,341.75 273.5,361.375 279.875,381.5 288.0,401.25 297.125,420.125 306.75,437.5 316.375,453.25 325.75,467.25 334.75,479.5"/>
    <polyline points="343.125,490.25 351.0,499.5 358.25,507.375 365.0,514.125 371.125,519.875 376.875,524.75 386.875,532.375 395.5,538.0 406.25,543.625 424.375,551.0 429.875,553.375 434.375,555.75"/>
    <polyline points="435.625,556.625 439.0,559.25 442.125,563.125 443.5,566.375 444.25,571.375 443.875,575.625 442.625,580.25 441.375,583.625 438.5,589.25"/>
    <polyline points="437.25,591.25 432.75,597.625 426.625,604.875 421.25,610.25 414.75,616.125 406.75,622.625 396.75,629.625 384.5,637.375 377.25,641.5 360.375,650.125 350.5,654.625 339.75,659.125 328.0,663.5 315.375,667.625 302.0,671.25 288.125,674.125"/>
    <polyline points="274.25,675.75 260.875,675.875 249.0,673.75 239.25,669.125 232.625,661.75 229.75,651.25 231.0,638.0 236.375,622.25 245.25,604.875 257.0,586.625 270.625,568.25 285.125,550.5 299.75,533.875 314.0,518.625 339.375,493.0 350.375,482.5 368.625,466.0 382.875,454.25 393.875,446.125 405.875,439.0"/>
    <polyline points="409.125,437.5 417.125,434.875 423.25,434.125 428.375,434.25 442.125,436.0 446.5,435.5"/>
    <polyline points="447.125,435.375 450.0,433.625 450.75,432.5 451.25,431.375 451.625,429.125 451.5,427.375 450.0,422.375 447.375,417.625 445.625,415.125"/>
    <polyline points="444.625,413.75 439.625,408.375 433.375,402.875 427.875,399.125 422.125,395.875 416.125,393.625 410.5,392.625 405.625,393.125 403.125,394.5"/>
    <polyline points="402.0,395.375 401.125,396.5 400.0,399.125 399.75,400.75 399.875,404.25 400.125,406.25 401.375,410.375 404.625,417.0 409.0,423.5 414.375,429.75 422.25,437.0 428.375,441.5"/>
    <polyline points="430.375,442.875 434.375,445.25 442.0,448.875 450.5,451.5 456.375,452.25 460.125,452.125 463.5,451.375 465.375,450.625 467.0,449.5"/>
    <polyline points="467.75,448.875 470.0,445.875 471.0,443.0 471.25,438.125 470.875,435.25 469.625,430.5 467.375,425.0 464.0,418.875 459.375,411.875"/>
    <polyline points="457.375,409.375 450.625,401.5 445.0,396.0 435.0,387.625 427.375,382.125 419.0,377.0 414.5,374.625 405.5,370.75 396.375,368.125 387.875,367.25 384.0,367.5 380.375,368.375 377.25,369.75 374.625,371.625 372.375,374.125 370.75,377.125"/>
    <polyline points="369.75,380.625 369.25,384.625 369.375,388.875 370.0,393.5 371.125,398.25 372.75,403.25 374.875,408.25 380.125,418.25 383.125,423.125 389.875,432.375 397.125,440.875 404.5,448.375 415.625,457.875 422.75,463.0 429.5,467.375 439.0,472.5"/>
    <polyline points="442.0,474.0 452.875,478.5 457.75,480.125 466.375,482.375 473.75,483.625 480.0,484.125 484.0,484.0 488.5,483.375"/>
    <polyline points="489.5,483.125 494.0,481.5 496.25,480.125 498.75,477.75 501.625,473.25 502.625,470.5 503.5,466.25"/>
    <polyline points="503.625,465.0 503.875,458.25 503.5,453.375 502.5,447.75 500.125,439.0 497.125,431.25 494.5,425.5 488.875,415.375 483.875,407.75"/>
    <polyline points="480.875,403.625 473.875,394.625 465.0,384.75 454.0,373.875 447.5,368.0 440.375,362.125 432.625,356.0 424.0,349.875 414.875,343.875 405.0,338.0 394.625,332.5 383.75,327.75 372.75,323.75 361.75,320.875 351.0,319.375 341.125,319.625 332.25,321.625 324.75,325.625 319.0,331.625 315.0,339.375 313.125,348.875 313.0,359.5 314.625,371.25"/>
    <polyline points="317.875,383.375 322.25,395.75 327.625,408.0 333.75,419.75 340.375,430.875 347.125,441.25 354.0,450.75 360.875,459.5 367.625,467.375 374.125,474.375 386.375,486.25 397.5,495.625 407.625,502.875 416.625,508.5 428.5,515.0 444.25,522.0"/>
    <polyline points="447.0,523.125 458.375,527.75 469.75,533.125 476.5,537.625 479.875,540.75 481.875,543.25"/>
    <polyline points="482.375,544.125 484.0,546.75 486.0,551.375 489.375,564.5 491.375,570.5"/>
    <polyline points="491.875,571.625 494.0,575.25 495.875,577.5 498.375,579.625 503.75,582.125 508.875,583.25 511.875,583.5 515.5,583.625 524.25,582.875 535.875,580.75 542.875,579.0 560.0,573.625 581.5,565.25 594.125,559.75 607.75,553.375"/>
    <polyline points="622.375,546.125 637.625,538.125 653.0,529.5 668.25,520.5 682.375,511.5 694.875,502.875 705.125,495.25 712.5,489.0 717.0,484.25 718.25,481.25 716.875,479.875 713.125,480.25 707.625,481.75 700.875,484.25 693.375,487.5 662.5,501.625 649.0,507.5 632.0,513.75 622.625,516.125"/>
    <polyline points="618.375,517.0 610.75,517.875 604.125,518.0 595.375,517.125 590.375,516.0 583.625,513.75 579.625,512.125 576.0,510.25 569.75,506.375 565.75,503.375 563.5,501.25"/>
    <polyline points="562.375,500.125 560.375,498.0 556.25,492.375 554.375,488.875 552.875,485.125 551.0,478.375 550.0,472.375 549.625,467.375"/>
    <polyline points="549.5,465.625 548.5,446.875 547.75,439.0 546.375,429.75 544.875,422.75 541.0,410.125 536.875,400.0 530.625,387.875 526.5,380.875"/>
    <polyline points="521.5,373.25 515.375,364.625 507.875,355.0 498.75,344.25 487.625,332.25 474.0,318.625 457.375,303.5 437.375,286.75 413.375,268.625 385.125,249.375 352.5,230.375 316.375,213.0 278.25,199.875 241.25,194.25 209.125,199.0 185.75,216.0 173.5,244.75 172.625,282.625 181.0,325.5 195.5,369.125 212.75,410.125 230.25,446.875 246.375,478.375 281.25,543.5"/>
    <polyline points="288.625,557.125 298.875,575.5 302.5,581.125 305.5,584.875 308.25,587.0 310.875,587.875 313.625,587.5 316.5,586.25 319.75,584.125 345.75,563.0 361.625,551.625 372.25,544.875 377.5,541.875 387.75,536.625 397.375,532.375"/>
    <polyline points="402.0,530.625 410.75,527.75 422.625,524.75 429.75,523.625 439.25,522.75 447.625,522.75 459.25,523.75 466.75,525.25 471.375,526.625"/>
    <polyline points="472.875,527.125 479.0,529.75 482.0,531.5 486.0,534.625 490.0,539.5 492.0,543.375"/>
    <polyline points="492.25,544.25 493.25,546.75 495.75,556.125 497.875,562.375 499.5,565.5 501.625,568.5"/>
    <polyline points="502.5,569.5 506.0,572.125 509.125,573.625 513.25,574.75 518.375,575.375 521.5,575.5 528.875,575.0 538.25,573.5 543.875,572.25 557.125,568.375 564.875,565.75 582.75,558.875 603.5,549.625 614.875,544.125 638.125,531.75"/>
    <polyline points="649.625,525.125 660.5,518.5 678.625,506.125 685.125,501.0 689.75,496.75 692.375,493.5 692.875,491.5 691.625,490.5 688.75,490.5 684.5,491.25 673.625,494.625 642.125,505.875 630.5,509.5 625.25,511.0 610.875,514.0 602.625,514.875"/>
    <polyline points="598.875,515.125 588.875,514.875 585.875,514.5 577.875,513.125 573.25,511.875 565.25,508.875 560.25,506.25 554.75,502.75 549.375,497.875"/>
    <polyline points="548.375,496.875 544.5,491.75 542.625,488.375 540.625,483.625 538.375,475.5 536.375,464.125"/>
    <polyline points="536.125,462.375 533.375,447.0 530.5,435.875 527.125,425.625 521.75,413.375 519.375,408.625 513.375,398.125 505.125,385.75 499.875,378.75 486.375,362.75"/>
    <polyline points="477.875,353.625 468.0,343.75 456.25,333.0 442.75,321.375 427.0,309.125 409.0,296.375 388.75,283.5 366.375,271.25 342.25,260.25 317.375,251.875 293.0,247.5 270.625,248.25 252.125,255.25 238.875,268.875 231.875,288.5 230.875,312.875 235.125,340.125 243.5,368.375 254.375,396.25 266.5,422.25 279.0,445.75 291.0,466.5 302.125,484.5 312.375,499.75 321.5,512.625 329.625,523.375"/>
    <polyline points="336.75,532.25 348.75,545.25 353.75,550.0 358.125,553.75 362.25,556.75 365.875,559.125 369.25,560.875 375.375,563.25 380.75,564.375 385.75,564.875 402.125,564.25 408.75,564.375"/>
    <polyline points="410.25,564.375 415.5,565.375 418.625,566.625 421.25,568.375 422.5,569.75 424.0,573.125 424.25,576.25 423.625,579.75 422.0,583.75"/>
    <polyline points="421.25,585.125 417.0,591.375 413.875,594.875 408.0,600.375 400.375,606.625 386.625,615.375 373.25,622.375 362.75,626.75 351.25,630.75 339.0,633.875"/>
    <polyline points="332.75,634.875 326.5,635.5 320.5,635.625 315.0,635.125 309.875,633.75 305.5,631.75 302.125,628.75 299.75,625.0 298.5,620.25 298.625,614.625 300.0,608.375 302.625,601.375 306.375,594.0 311.25,586.25 317.0,578.375 323.375,570.5 330.25,562.875 337.5,555.5 344.875,548.5 352.25,542.125 366.75,530.75 380.375,521.5 393.0,514.25"/>
    <polyline points="398.75,511.375 404.25,508.875 414.5,504.875 423.75,502.0 435.75,499.375 446.125,498.125 457.625,497.5 467.125,497.625 478.375,498.25"/>
    <polyline points="479.875,498.25 486.875,498.625 494.25,498.625 500.875,497.625 503.125,496.75"/>
    <polyline points="503.625,496.625 506.25,494.875 508.625,492.125 510.125,489.25 511.375,485.5"/>
    <polyline points="511.625,484.75 512.75,478.125 513.125,471.75 513.0,465.25 511.875,455.5"/>
    <polyline points="511.5,453.625 509.625,445.125 505.125,432.125 500.625,422.5 496.5,415.125 494.125,411.125 488.125,402.25 480.5,392.375 470.875,381.25 458.5,368.75 443.0,355.0"/>
    <polyline points="433.875,347.75 423.75,340.375 412.75,333.125 400.875,326.0 388.125,319.25 374.875,313.375 361.375,308.625 347.875,305.375 334.875,304.0 323.125,305.0 312.875,308.5 304.75,314.75 299.0,323.625 295.875,334.75 295.25,347.75 297.0,362.0 300.75,377.125 306.125,392.375 312.625,407.25 320.0,421.625 327.75,435.0 335.75,447.25 343.625,458.375 351.375,468.375 358.75,477.25 365.875,485.125"/>
    <polyline points="372.625,492.0 379.0,498.0 390.625,507.75 400.875,515.25 409.875,520.875 421.5,527.125 428.125,530.25 443.75,536.875 451.375,540.5 456.0,543.125"/>
    <polyline points="457.375,543.875 461.0,546.5 464.75,550.25 466.25,552.25 468.0,555.375 470.25,562.375 470.875,567.5 471.0,571.75"/>
    <polyline points="471.0,573.25 470.125,589.75 470.125,595.25 470.375,599.0 471.625,604.625 473.375,608.125 476.125,611.375 480.625,614.0 483.75,614.875"/>
    <polyline points="487.625,615.5 492.375,615.75 498.25,615.5 505.5,614.5 514.375,612.625 525.375,609.75 538.75,605.5 555.125,599.5 574.75,591.375 598.125,580.875 625.375,567.5 656.375,551.125 690.125,531.875 725.0,510.5 757.875,488.5 785.75,468.0 805.375,451.25 815.125,440.0 815.25,435.375 807.625,436.75 794.875,442.875 780.0,452.25 764.875,463.375 751.0,475.0 738.875,486.625 728.625,497.625"/>
    <polyline points="720.375,507.875 713.625,517.25 708.25,525.75 696.625,546.125 693.375,551.125 690.0,555.5 686.625,558.875 682.875,561.625 678.875,563.5 674.625,564.75 670.0,565.25 665.25,565.25 654.875,563.625 649.625,562.25 638.875,558.625 628.25,554.375 604.25,543.25"/>
    <polyline points="600.0,541.25 588.25,535.625 569.25,527.25 553.125,521.125 539.0,516.5"/>
    <polyline points="537.75,516.125 527.625,513.125 520.375,510.375"/>
    <polyline points="520.125,510.25 517.625,508.75 516.375,507.5 515.375,505.75"/>
    <polyline points="515.375,505.5 514.75,502.5 514.875,498.125"/>
    <line x1="514.875" x2="515.875" y1="497.625" y2="482.375"/>
    <polyline points="515.875,481.5 515.875,470.75 515.5,465.25 514.125,455.125 511.625,444.5"/>
    <polyline points="510.875,442.0 508.0,433.875 503.875,424.375 497.75,413.125 495.125,409.0 488.75,399.75 480.5,389.25 475.625,383.5 463.625,370.875 448.5,356.875 439.625,349.5 429.625,341.75 418.625,334.0 406.5,326.375 393.625,319.0 379.875,312.25"/>
    <polyline points="365.625,306.5 351.125,302.125 337.125,299.625 324.0,299.5 312.25,302.125 302.625,307.625 295.625,315.875 291.25,326.875 289.75,340.125 290.875,355.0 294.25,370.875 299.5,387.0 306.125,403.0 313.75,418.25 321.75,432.625 330.125,445.875 338.375,457.875 346.375,468.625 354.125,478.125 361.5,486.375 368.5,493.75 375.0,500.125 381.125,505.625 386.875,510.375 397.25,518.125"/>
    <polyline points="402.0,521.25 410.5,526.25 418.0,530.25 447.75,543.625 454.875,548.0 459.0,551.75"/>
    <polyline points="459.75,552.75 461.875,555.75 463.5,559.125 464.5,562.625 465.125,566.5 465.0,575.25 462.875,587.25"/>
    <polyline points="462.375,589.125 453.5,620.875 451.375,631.625 451.125,637.0 451.625,642.125 452.5,644.625 453.875,646.875 455.875,649.0"/>
    <polyline points="458.75,650.625 462.75,651.875 468.25,652.5 475.625,652.125 485.5,650.625 498.75,647.375 516.375,641.875 539.625,633.125 570.125,620.25 609.25,601.75 658.25,576.25 716.875,543.125 781.5,502.875 844.5,459.25 894.375,419.375 921.375,391.375 923.0,380.25 905.5,385.5 879.25,402.625 852.75,426.125 830.875,452.375 815.375,479.125 806.125,505.5 802.0,530.875 801.125,555.25 801.75,578.125"/>
    <polyline points="802.25,598.75 801.125,616.5 797.25,630.5 790.125,640.125 779.875,645.25 767.0,646.0 752.375,643.0 737.0,637.0 721.625,629.125 707.0,620.0 693.5,610.375 681.375,600.875 670.75,591.625 653.75,575.375 641.375,562.0 620.375,537.75 613.625,531.625"/>
    <polyline points="611.5,530.25 605.125,527.125 600.875,526.0 594.25,525.0 589.75,524.75 578.625,524.875 559.0,526.25"/>
    <polyline points="557.375,526.5 548.25,527.5 539.625,529.125 534.0,530.75 529.5,532.875"/>
    <polyline points="528.875,533.25 525.25,536.25 523.125,539.25 521.875,543.25 521.875,546.25"/>
    <polyline points="522.0,546.875 522.625,548.75 523.625,550.5 525.75,552.75 530.25,555.0 535.875,556.0 539.5,556.125 548.625,555.25"/>
    <polyline points="551.5,554.75 564.625,551.375 576.5,547.25 585.25,543.75 598.875,537.5 615.625,528.25 624.875,522.0 628.625,518.625 629.75,517.25 630.25,516.0 630.25,515.125 629.75,514.5"/>
    <polyline points="628.75,514.0 625.5,513.625 618.125,514.25 586.75,518.625 575.25,519.625 560.5,520.125"/>
    <line x1="558.375" x2="526.25" y1="520.125" y2="519.125"/>
    <polyline points="525.5,519.125 521.375,519.5 519.125,520.0 517.0,520.75 515.125,522.125"/>
    <polyline points="514.875,522.25 513.375,524.0 512.375,525.75 510.875,530.375"/>
    <polyline points="510.75,530.875 510.0,534.25 509.5,538.875 509.375,542.875 509.625,545.75"/>
    <polyline points="509.625,546.5 510.625,551.125 511.875,554.25 513.875,557.25 515.375,558.75 517.125,560.125 519.375,561.375 522.125,562.375 527.5,563.375"/>
    <polyline points="529.625,563.5 534.75,563.5 540.75,562.875 548.125,561.5 556.875,559.375 572.625,554.125 591.625,546.5 605.375,540.0 625.875,529.0 642.875,518.25 650.5,512.375 652.875,510.0"/>
    <polyline points="654.25,508.125 654.625,506.625 654.125,505.75 652.75,505.125 647.875,505.25 640.875,506.5 610.75,513.0 602.5,514.375 587.5,516.0 580.875,516.25 572.125,516.125"/>
    <polyline points="569.375,516.0 559.875,515.0 548.75,512.75 544.25,511.5 538.125,509.25 531.75,506.0"/>
    <polyline points="531.0,505.5 528.375,503.5 525.125,500.0 523.625,497.75 521.875,493.375 521.375,491.375"/>
    <polyline points="521.25,490.625 520.125,483.125 518.375,463.375"/>
    <polyline points="518.125,461.75 516.5,452.375 514.875,445.625 510.25,432.125 505.625,422.0 498.875,410.0 492.75,400.75 484.625,390.125 474.25,378.0"/>
    <polyline points="468.0,371.375 460.875,364.25 443.625,349.125 433.5,341.0 422.125,332.75 409.625,324.375 396.125,316.375 381.5,308.75 366.25,302.25 350.75,297.0 335.5,293.875 321.0,293.125 308.0,295.375 297.375,300.75 289.375,309.375 284.375,321.0 282.625,335.25 283.75,351.25 287.375,368.375 293.125,385.875 300.25,403.0 308.375,419.5 317.0,434.75 325.75,448.75 334.375,461.375"/>
    <polyline points="342.75,472.625 350.75,482.5 358.25,491.125 365.375,498.625 372.0,505.125 378.125,510.625 389.25,519.625 398.75,526.25 411.0,533.25 420.875,538.0 433.75,543.375 443.125,547.875"/>
    <polyline points="444.625,548.75 449.75,552.25 452.75,555.125 454.875,558.25 456.5,561.625 457.5,565.25 457.875,569.25 457.625,573.625 456.875,578.375"/>
    <polyline points="456.375,580.125 453.375,589.375 449.375,597.875 443.5,607.75 437.375,616.125 429.125,625.875 421.875,633.125 412.625,641.5 400.625,650.875"/>
    <polyline points="393.25,656.25 374.625,668.125 349.5,682.0 333.625,689.875 315.375,698.0 294.25,706.5 270.25,714.875 243.875,722.375 216.125,727.875 188.75,729.875 164.75,726.375 147.375,715.5 140.125,696.125 144.75,668.625 160.375,634.625 184.125,597.25 212.125,559.5 240.25,523.875 266.125,491.875 288.0,463.875 305.5,440.125 318.625,420.0 327.75,403.375 333.625,389.75"/>
    <polyline points="336.75,378.75 337.75,370.125 337.25,363.75 335.75,359.5 333.75,357.125 331.625,356.625 329.75,357.875 328.375,360.625 327.625,364.875 327.75,370.375 328.875,376.875 330.875,384.25 333.75,392.125 337.25,400.25 341.5,408.625 351.375,424.875 362.375,439.75 368.125,446.625 379.5,458.875 385.0,464.125 390.5,469.125 400.875,477.5"/>
    <polyline points="405.75,481.125 419.375,490.0 427.625,494.5 438.5,499.75 448.0,503.75 456.25,506.75 478.0,513.875"/>
    <polyline points="479.375,514.25 487.75,517.25 492.25,519.25 496.75,521.875 499.5,524.25"/>
    <polyline points="499.875,524.625 501.75,527.125 503.375,531.0 504.5,537.25"/>
    <polyline points="504.625,537.875 506.125,549.5 507.625,554.625 508.875,557.125"/>
    <polyline points="509.5,558.0 510.625,559.625 513.125,561.875 516.5,564.0 517.875,564.5 521.25,565.5 525.25,566.125 533.25,566.125 544.0,564.625 553.125,562.5 563.875,559.25 576.5,554.75"/>
    <polyline points="583.375,551.875 598.375,545.375 606.25,541.625 622.125,533.375 637.125,524.75 649.75,516.5 658.75,509.625 661.5,506.875 663.0,504.75 663.375,503.25 662.75,502.25 661.0,501.875 658.375,501.875 655.125,502.375 647.0,504.125 623.125,510.125"/>
    <polyline points="618.375,511.125 605.0,513.75 596.875,514.75 589.5,515.375 579.625,515.5 571.125,515.0 559.5,513.125 552.0,511.125 547.375,509.375"/>
    <polyline points="546.0,508.875 539.0,505.375 533.875,501.625 530.125,497.625 527.125,492.375"/>
    <polyline points="526.75,491.625 524.625,484.5 521.5,462.5"/>
    <polyline points="521.125,460.75 519.25,450.75 515.75,438.375 510.75,425.875 504.875,414.375 496.125,400.375 488.0,389.5 477.375,376.875 470.875,370.0"/>
    <polyline points="463.5,362.625 455.125,354.75 445.625,346.5 434.875,337.875 422.875,329.0 409.625,320.125 395.0,311.25 379.375,303.125 362.875,295.875 346.125,290.25 329.5,286.75 313.875,286.125 300.0,288.875 288.625,295.125 280.5,305.0 275.75,318.25 274.625,334.25 276.625,352.0 281.25,370.75 287.875,389.75 296.0,408.125 304.875,425.5 314.125,441.625 323.375,456.0 332.375,468.875 340.875,480.25"/>
    <polyline points="349.0,490.125 363.625,506.0 370.125,512.375 381.75,522.375 391.625,529.625 400.25,535.0 407.625,538.875 414.125,542.0 434.75,550.75 439.25,553.25"/>
    <polyline points="440.625,554.125 444.875,557.75 447.25,560.875 448.375,563.0 449.625,567.875 449.75,571.875 449.25,576.25 447.875,581.25 445.75,586.625"/>
    <polyline points="444.75,588.625 441.25,594.875 438.125,599.375 432.125,607.0 426.875,612.625 416.875,622.125 412.625,625.625 396.875,637.25 390.25,641.625 374.375,651.125 354.125,661.625 342.125,667.125 328.75,672.75 313.875,678.25"/>
    <polyline points="297.75,683.5 280.625,687.875 262.875,691.25 245.25,692.625 229.125,691.5 215.5,686.875 206.125,678.25 202.0,665.375 203.75,648.25 211.375,627.75 224.0,605.0 240.0,581.25 258.0,557.75 276.375,535.5 310.375,496.875 379.75,421.0 385.875,414.875"/>
    <polyline points="388.125,412.875 390.0,411.5 393.0,410.25 394.25,410.25 396.75,411.25 400.5,414.625 406.125,420.875 414.75,429.375 420.375,434.25 428.125,439.75"/>
    <polyline points="430.0,440.875 433.875,443.125 441.0,446.375 446.0,448.125 450.5,449.125 454.625,449.5 459.25,449.125 462.125,448.125 464.5,446.625"/>
    <polyline points="465.125,446.0 466.75,443.75 467.5,441.875 467.875,439.875 467.875,435.0 466.875,430.625 465.0,425.5 462.0,419.875 457.875,413.5 454.375,409.0"/>
    <polyline points="452.25,406.5 447.75,401.625 442.375,396.5 436.375,391.375 429.625,386.375 422.125,381.625 414.25,377.5 410.25,375.75 402.125,373.0 394.25,371.625 390.625,371.625 387.25,372.0 384.125,372.75 381.375,374.125 379.0,375.875 377.125,378.125 375.75,380.875 374.75,384.0"/>
    <polyline points="374.375,387.5 375.0,395.375 376.0,399.625 379.375,408.625 381.5,413.125 386.75,422.0 389.625,426.25 396.0,434.375 402.75,441.75 406.25,445.125 413.125,451.25 419.875,456.625 429.625,463.125 441.5,469.5"/>
    <polyline points="444.25,470.75 452.0,473.875 456.75,475.375 463.125,477.125 467.125,477.875 470.625,478.375 478.375,478.75 483.5,478.25 487.75,477.0"/>
    <polyline points="488.75,476.625 492.125,474.75 493.5,473.5 495.375,471.375 496.875,468.875 498.625,463.875 499.0,461.5 499.25,458.875 499.125,453.0"/>
    <polyline points="499.0,451.375 497.625,443.875 494.75,434.75 491.25,426.75 486.25,417.375 484.125,414.0 476.0,402.5 464.75,389.25 454.875,379.375 443.0,368.75"/>
    <polyline points="436.125,363.25 428.75,357.625 420.625,352.125 412.0,346.75 402.875,341.625 393.375,337.0 383.5,332.875 373.625,329.625 363.75,327.5 354.375,326.625 345.75,327.25 338.0,329.375 331.625,333.25 326.625,338.875 323.25,346.0 321.625,354.5 321.5,364.0 323.0,374.5 325.75,385.375 329.75,396.375 334.5,407.375 340.0,418.0 345.875,428.125 352.125,437.625 358.5,446.5 364.875,454.625"/>
    <polyline points="371.25,462.0 377.375,468.75 389.125,480.125 400.0,489.25 410.0,496.5 423.125,504.625 437.75,512.0 449.625,517.0 465.125,523.0"/>
    <polyline points="467.0,523.75 475.875,527.75 482.375,531.625 486.875,535.625 488.75,537.75 490.625,540.75"/>
    <polyline points="491.0,541.5 493.375,547.375 496.875,559.875 499.25,565.125"/>
    <polyline points="499.875,566.125 502.125,569.125 504.25,571.0 506.875,572.625 510.375,574.125 514.75,575.125 520.25,575.5 523.625,575.5 531.75,574.75 541.875,572.75 547.875,571.25 562.125,566.75 579.5,560.25 599.75,551.375"/>
    <polyline points="610.875,546.125 634.25,534.0 645.875,527.375 667.125,514.25 676.0,508.125 683.25,502.625 688.5,498.0 691.75,494.5 693.0,492.0 692.375,490.625 690.0,490.375 686.125,490.875 681.375,492.125 632.5,509.0 617.0,512.875"/>
    <polyline points="612.5,513.75 604.0,514.75 596.625,515.125 590.0,514.875 581.375,513.875 574.0,512.125 565.875,509.125 557.875,504.875 552.875,501.125"/>
    <polyline points="551.75,500.125 547.0,495.25 544.75,492.125 542.875,488.75 540.0,481.5 537.375,469.875"/>
    <polyline points="537.125,468.25 533.625,447.875 530.875,436.875 527.625,426.875 522.5,414.75 517.625,405.25 510.875,394.125 506.625,387.875"/>
    <polyline points="501.625,381.0 488.875,365.5 480.875,356.625 471.375,346.875 460.25,336.5 447.375,325.125 432.25,313.0 415.0,300.375 395.5,287.5 373.75,274.875 350.0,263.375 325.25,254.125 300.5,248.25 277.25,247.25 257.375,252.25 242.25,263.75 233.25,281.625 230.375,304.625 233.125,331.25 240.375,359.5 250.5,387.625 262.5,414.25 274.875,438.75 287.125,460.375 298.625,479.25"/>
    <polyline points="309.25,495.375 318.625,509.0 334.5,529.75 346.875,543.75 356.625,552.875 360.875,556.0 364.625,558.5 371.375,562.0 379.875,564.375 384.875,564.875 391.625,564.875 403.25,564.25"/>
    <polyline points="405.0,564.25 411.125,564.5 415.125,565.25 417.375,566.0 420.125,567.5 422.875,570.25 424.0,572.75 424.375,575.75 423.875,579.25"/>
    <polyline points="423.5,580.5 420.875,586.0 414.625,594.125 406.75,601.625 401.5,605.75 392.0,612.25 379.875,619.125 370.25,623.625 359.5,628.0"/>
    <polyline points="353.75,630.0 341.5,633.375 335.25,634.625 329.0,635.375 322.875,635.75 317.125,635.5 311.75,634.5 307.125,632.75 303.25,630.25 300.375,626.75 298.75,622.375 298.25,617.125 299.125,611.125 301.25,604.375 304.625,597.125 309.125,589.375 314.5,581.625 320.625,573.625 327.375,565.875 341.75,551.25 356.625,538.375 370.875,527.625"/>
    <polyline points="377.75,523.125 384.25,519.0 396.375,512.375 407.375,507.375 421.875,502.375 434.25,499.625 444.75,498.125 459.125,497.375 472.375,497.75"/>
    <polyline points="474.25,497.875 492.875,498.5 497.25,498.125 501.25,497.25"/>
    <polyline points="501.75,497.125 505.25,495.375 507.875,492.875 509.625,490.125 510.75,487.25"/>
    <polyline points="510.875,486.625 511.875,483.0 512.875,475.875 513.0,467.625 512.5,460.25"/>
    <polyline points="512.25,458.5 511.0,451.125 507.875,439.75 504.75,431.375 501.875,425.125 498.125,418.0 490.5,405.75 483.625,396.25 474.75,385.625 463.375,373.625"/>
    <polyline points="456.75,367.125 440.75,353.25 431.375,346.0 421.125,338.625 409.875,331.375 397.875,324.375 385.0,317.875 371.625,312.125 358.125,307.75 344.75,304.875 332.0,304.125 320.5,305.75 310.75,310.0 303.25,316.75 298.125,326.25 295.625,337.75 295.625,351.125 297.875,365.625 302.0,380.75 307.75,396.0 314.5,410.75 322.0,424.875 329.75,438.0 337.75,450.0 345.625,460.875"/>
    <polyline points="353.25,470.5 360.625,479.125 367.625,486.75 374.25,493.375 386.5,504.25 392.0,508.75 397.25,512.5 406.75,518.875 418.875,525.625 428.875,530.5 448.375,538.875 451.875,540.625"/>
    <polyline points="453.5,541.5 457.875,544.0 461.375,546.625 463.375,548.5 466.5,552.375 468.75,556.625 469.875,560.125 470.625,563.75 471.0,567.75"/>
    <polyline points="471.125,569.125 471.125,575.0 470.375,590.0 470.75,599.25 471.625,602.875 473.0,606.5 474.0,608.25 475.375,609.875 477.125,611.25"/>
    <polyline points="479.25,612.625 481.875,613.75 485.125,614.625 489.25,615.125 494.375,615.25 500.625,614.75 508.25,613.5 517.75,611.375 529.25,608.125 543.375,603.375 560.5,597.0 581.0,588.25 605.375,577.125 633.5,563.0 665.0,546.0 699.0,526.25 733.25,504.875 764.75,483.25 790.375,463.625 807.375,448.375 814.5,439.0 812.375,435.875 803.375,438.5 790.125,445.5 775.125,455.25 760.375,466.5"/>
    <polyline points="746.875,478.0 735.25,489.375 725.5,500.125 717.5,510.0 711.125,519.0 694.5,546.5 691.25,551.375 687.875,555.375 684.5,558.5 680.75,561.0 676.75,562.75 672.5,563.875 667.875,564.25 663.125,564.125 658.125,563.5 653.0,562.5 637.125,557.5 617.0,548.875"/>
    <polyline points="612.25,546.625 595.125,538.5 571.625,527.875 556.875,522.0 543.0,517.125"/>
    <polyline points="541.625,516.75 529.875,512.875 521.75,509.5"/>
    <polyline points="521.375,509.25 518.375,507.0 517.25,505.625 516.25,503.125"/>
    <polyline points="516.125,502.875 515.625,499.875 515.625,492.5"/>
    <polyline points="515.75,491.875 516.125,483.375 516.0,469.5"/>
    <polyline points="515.875,468.125 515.375,462.125 513.5,451.25 511.125,442.125 508.25,434.0 505.625,427.75 500.25,417.125 492.25,404.5"/>
    <polyline points="488.875,399.625 480.75,389.125 475.75,383.375 463.875,370.75 456.75,364.0 448.625,356.75 439.625,349.25 429.625,341.625 418.625,333.75 406.5,326.125 393.5,318.625 379.75,311.875 365.375,306.125 350.875,301.75 336.75,299.25 323.5,299.125 311.875,301.75 302.25,307.25 295.125,315.625 290.75,326.75 289.25,340.125 290.5,355.0 293.875,370.875 299.25,387.25"/>
    <polyline points="305.875,403.25 313.5,418.625 321.625,433.0 329.875,446.25 338.25,458.25 346.25,469.0 354.0,478.5 361.375,486.875 368.375,494.125 374.875,500.5 386.75,510.75 392.125,514.875 401.875,521.625 410.375,526.625 417.875,530.625 437.75,539.375"/>
    <polyline points="439.875,540.375 445.75,543.0 450.625,545.625 454.5,548.25 458.625,552.0 460.25,554.0 462.625,558.25 463.875,561.875 464.5,565.625"/>
    <polyline points="464.625,567.0 464.75,571.125 464.25,577.375 462.625,586.0 460.0,595.875 454.0,614.375"/>
    <polyline points="453.125,616.875 448.875,630.5 446.75,639.25 446.25,642.125 445.875,648.0 446.75,653.5 447.875,656.0 449.625,658.375 452.375,660.25 456.375,661.75 462.0,662.375 469.75,662.125 480.375,660.375 494.875,656.75 514.625,650.375 541.25,640.0 576.75,624.5 623.125,601.875"/>
    <polyline points="681.75,570.5 751.625,529.375 826.625,480.625 894.5,430.5 940.0,389.625 954.25,367.5 940.875,366.875 912.5,383.125 881.5,409.375 855.625,440.0 838.125,471.875 828.625,503.75 825.75,535.0 827.125,565.25 829.875,593.875 831.75,619.5 830.5,641.0 824.875,656.875 814.25,666.375 799.5,669.375 781.75,666.5 762.625,659.125 743.625,648.625 725.75,636.5 709.875,623.625 696.25,610.875"/>
    <polyline points="684.75,598.875 675.5,587.75 668.0,577.75 662.25,568.75 654.125,553.875 645.5,534.0 643.75,530.625 640.125,525.5 635.75,522.125 633.25,521.0 630.625,520.125 624.875,519.0 621.75,518.75 611.875,518.75 601.75,519.25"/>
    <polyline points="598.5,519.5 574.25,520.875 557.75,521.0 540.875,520.5"/>
    <polyline points="539.5,520.5 526.625,520.5 523.375,520.875 519.75,521.75"/>
    <polyline points="519.375,522.0 518.5,522.25 516.125,523.75 513.625,526.625 512.5,528.875"/>
    <polyline points="512.375,529.25 510.625,535.5 510.0,542.875"/>
    <polyline points="510.0,543.625 510.75,549.5 511.75,552.625 513.375,555.75 517.0,559.375 519.0,560.625 521.5,561.625"/>
    <polyline points="523.0,562.125 530.75,563.125 535.875,563.0 542.0,562.375 549.5,560.875 558.25,558.625 574.125,553.375 586.375,548.5 606.5,539.125 626.5,528.375 638.0,521.25"/>
    <polyline points="642.75,517.875 649.875,512.25 652.0,510.0 653.25,508.25 653.375,506.875 652.75,506.0 649.125,505.5 646.25,505.75 635.25,507.75 618.125,511.625 605.375,514.0 597.5,515.125 583.25,516.25"/>
    <polyline points="580.125,516.375 566.25,516.0 557.25,514.875 546.625,512.625 539.875,510.5 534.625,508.25"/>
    <polyline points="533.75,507.875 529.875,505.625 525.5,501.875 523.25,498.75 521.75,495.25"/>
    <polyline points="521.5,494.75 520.25,489.25 518.875,472.5"/>
    <polyline points="518.75,471.25 517.875,462.375 516.25,453.125 514.75,446.625 511.5,436.25 509.125,430.25 506.0,423.625 499.625,411.875"/>
    <polyline points="496.875,407.5 490.25,397.875 481.625,386.875 470.375,374.375 463.625,367.5 447.5,352.75 437.75,344.75 427.0,336.625 415.125,328.375 402.125,320.25 388.0,312.5 373.25,305.625 357.875,299.75 342.625,295.75 327.75,293.875 314.25,294.75 302.625,298.75 293.375,305.875 287.125,316.125 284.0,329.125 283.75,344.25 286.375,360.75"/>
    <polyline points="291.125,378.0 297.625,395.25 305.25,411.875 313.625,427.625 322.25,442.125 330.875,455.375 339.375,467.125 347.5,477.5 355.25,486.625 362.5,494.625 369.375,501.5 375.75,507.5 387.125,517.125 397.125,524.25 405.75,529.5 416.75,535.25 431.0,541.5"/>
    <polyline points="433.25,542.5 437.5,544.25 444.625,547.75 448.75,550.375 453.0,554.125 455.375,557.25 457.125,560.5 457.875,562.875 458.75,568.0"/>
    <polyline points="458.75,569.375 458.375,575.25 457.375,580.25 455.125,587.5 452.625,593.625 449.375,600.375 445.0,607.75 441.375,613.25 434.375,622.375"/>
    <polyline points="431.5,625.75 424.75,633.0 416.25,641.125 405.125,650.375 390.25,661.125 381.0,667.125 370.25,673.75 357.5,681.0 342.5,688.75 325.0,697.25 304.625,706.125 281.0,715.125 254.375,723.875 225.375,731.375 195.375,736.0 167.125,735.875 144.25,728.625 130.875,712.5 130.125,686.625 142.375,652.625 165.125,613.375 194.25,572.5"/>
    <polyline points="224.875,533.25 253.375,497.5 277.75,466.25 297.125,439.5 311.375,417.0 321.125,398.25 327.0,383.0 329.75,370.625 330.0,361.0 328.5,354.0 326.0,349.375 322.875,347.0 319.75,346.875 317.25,348.875 315.375,352.875 314.5,358.5 314.875,365.625 316.5,373.875 319.125,383.125 322.75,392.75 327.375,402.625 332.625,412.5 338.375,422.125 344.5,431.375 357.25,448.125"/>
    <polyline points="363.625,455.625 376.125,468.625 388.0,479.25 398.875,487.75 408.875,494.5 418.0,500.0 426.25,504.375 433.625,507.875 449.25,514.25 463.375,519.375"/>
    <polyline points="465.375,520.0 475.25,523.875 483.375,528.0 488.25,531.625 491.75,535.5"/>
    <polyline points="492.25,536.125 494.25,539.625 495.75,543.375 499.375,556.75"/>
    <polyline points="499.75,557.75 501.875,562.75 504.75,566.5 508.0,569.125 510.875,570.625 514.375,571.75 519.0,572.5 524.75,572.75 536.375,571.5 546.5,569.375"/>
    <polyline points="552.5,567.75 559.0,565.75 574.125,560.375 592.0,553.0 612.0,543.5 633.0,532.5 653.0,520.75 661.875,515.0 669.5,509.625 675.75,504.875 680.375,500.875 683.125,497.75 684.125,495.5 683.5,494.25 681.5,493.875 678.125,494.125 668.875,496.5 651.625,502.125"/>
  </g>
</svg>
