<?xml version="1.0" encoding="utf-8" ?>
<svg xmlns="http://www.w3.org/2000/svg" xmlns:cc="http://creativecommons.org/ns" xmlns:dc="http://purl.org/dc/elements/1.1/" xmlns:ev="http://www.w3.org/2001/xml-events" xmlns:inkscape="http://www.inkscape.org/namespaces/inkscape" xmlns:rdf="http://www.w3.org/1999/02/22-rdf-syntax-ns" xmlns:sodipodi="http://sodipodi.sourceforge.net/DTD/sodipodi-0.dtd" xmlns:xlink="http://www.w3.org/1999/xlink" baseProfile="tiny" height="27.09333333cm" version="1.2" viewBox="0 0 1024.0 1024.0" width="27.09333333cm">
  <metadata>
    <rdf:RDF>
      <cc:Work>
        <dc:format>image/svg+xml</dc:format>
        <dc:source>vpype read './original_svgs/Strange Attractors #498.svg' linemerge linesimplify write './Strange Attractors #498.svg'
</dc:source>
        <dc:date>2024-08-05T01:36:05.097175</dc:date>
      </cc:Work>
    </rdf:RDF>
  </metadata>
  <defs/>
  <g fill="none" id="layer1" inkscape:groupmode="layer" inkscape:label="1" stroke="black" stroke-width="0.7mm" style="display:inline">
    <polyline points="760.0,783.5 706.25,810.375 661.875,835.75 620.75,863.0 576.625,893.625 524.0,928.125 458.125,964.5 377.125,996.875 284.75,1013.375 194.375,998.5 125.875,943.0 92.5,853.625 91.125,752.0 107.375,658.875 126.75,585.375 141.25,533.875 148.0,502.125 147.875,487.625 143.875,487.25 139.875,499.0 140.0,520.125 147.875,547.625 165.125,577.875 190.75,607.625 221.75,634.0 254.5,656.0"/>
    <polyline points="285.375,673.125 312.375,685.875 334.375,695.25 351.25,701.75 363.5,705.875 371.875,708.25 377.0,708.875 379.75,707.875 380.875,705.625 380.75,701.75 378.75,683.25 378.5,675.25 378.75,666.5 379.625,657.375 381.125,648.0 383.125,638.625 385.625,629.375 391.75,611.875 398.875,596.25 402.625,589.125 410.125,576.625"/>
    <polyline points="413.75,571.125 424.25,557.25 430.625,549.875 436.5,543.75 444.375,536.25 465.875,518.25 469.25,515.125"/>
    <polyline points="470.25,514.25 474.375,510.0 476.125,507.625 477.75,504.625 478.875,500.5 478.875,497.75 478.5,495.625"/>
    <polyline points="478.25,495.0 476.0,489.875 472.75,485.25 469.125,481.125 462.375,474.875"/>
    <polyline points="461.375,473.875 452.25,466.875 444.0,461.625 438.25,458.5 431.875,455.5 427.125,453.625 422.0,451.875 413.625,449.75"/>
    <polyline points="410.5,449.125 404.0,448.25 397.125,447.875 389.75,448.125 382.0,449.25 374.0,451.375 365.875,454.625 362.0,456.75 354.625,462.125 351.25,465.375 348.375,469.0 345.75,473.0 343.75,477.375 342.25,482.0 341.5,486.875 341.375,491.875 342.0,497.125 343.375,502.25 345.625,507.5"/>
    <polyline points="348.375,512.5 351.875,517.375 356.0,522.0 360.625,526.25 365.625,530.25 370.875,533.75 376.375,536.875 382.0,539.625 387.625,541.875 398.875,545.375 409.5,547.5 419.5,548.375 428.5,548.5 436.875,547.875 444.25,546.75 451.0,545.375 459.875,543.0"/>
    <polyline points="462.5,542.125 479.75,535.5 496.0,528.125 500.75,526.25"/>
    <polyline points="501.625,525.875 506.125,524.375 510.375,523.5 514.5,523.375 516.375,523.625"/>
    <polyline points="516.75,523.75 520.375,524.875 522.75,526.0 528.875,529.875"/>
    <line x1="529.375" x2="549.375" y1="530.375" y2="545.125"/>
    <polyline points="550.625,546.0 561.25,552.875 573.625,559.375 580.25,562.125 585.125,563.75 593.375,566.0 599.75,567.125"/>
    <polyline points="603.125,567.5 610.625,567.875 614.75,567.75 619.125,567.5 628.75,566.25 634.0,565.125 645.625,561.5 652.125,559.0 659.0,555.875 666.375,552.0 674.25,547.25 682.625,541.625 691.375,535.0 700.5,527.25 709.875,518.25 719.5,507.875 728.875,496.25 738.125,483.5 746.5,469.5 753.75,454.75 759.5,439.625 763.125,424.5 764.25,410.25"/>
    <polyline points="762.875,397.375 758.625,386.5 751.875,378.0 742.75,372.0 732.0,368.75 720.125,367.875 707.5,369.125 694.75,372.125 682.375,376.25 670.375,381.375 659.125,386.875 648.625,392.625 630.125,404.0 585.5,434.25 572.5,442.25 565.0,446.25"/>
    <polyline points="561.625,448.0 552.125,452.0 546.375,453.875 538.5,455.625 529.0,456.625 522.5,456.375 516.25,455.375 508.25,453.125 502.5,450.75"/>
    <polyline points="500.625,449.875 493.0,445.5 485.5,440.125 473.75,430.125 463.375,419.875 449.875,405.0"/>
    <polyline points="447.5,402.25 403.625,349.75 392.0,336.625 383.125,327.375 373.0,317.75 367.25,312.875 354.0,303.25"/>
    <polyline points="346.0,298.5 336.875,294.125 326.0,289.875 313.125,286.375 297.5,283.75 278.125,282.5 254.125,283.5 224.125,288.0 187.125,298.0 142.75,316.5 93.625,347.625 47.125,395.75 17.625,462.75 22.25,543.625 67.625,625.375 141.0,694.125 219.25,744.75 284.125,779.875 328.25,805.125 351.25,824.75 356.0,840.5 346.5,852.25 326.625,858.625 300.875,857.125 274.125,845.75 250.875,823.75"/>
    <polyline points="234.375,792.25 225.875,754.25 224.875,713.625 229.25,674.125 236.75,638.5 245.5,608.0 254.125,583.375 261.875,564.125 268.625,550.0 274.375,540.25 279.375,534.125 284.0,531.0 288.5,530.375 293.375,531.625 298.625,534.25 318.375,546.625 326.125,551.125 334.375,555.5 343.0,559.5 351.625,563.0 360.375,566.0 368.875,568.5 377.125,570.5 385.125,571.875"/>
    <polyline points="392.75,573.0 406.75,573.875 419.125,573.5 429.875,572.25 439.5,570.375 447.875,568.125 458.625,564.5 489.0,552.0"/>
    <polyline points="490.875,551.25 501.125,547.75 505.625,546.625 511.125,545.75 518.75,545.625 525.875,546.75"/>
    <polyline points="527.125,547.125 534.375,549.5 538.125,551.125 562.375,563.75"/>
    <polyline points="564.25,564.75 577.375,570.625 585.375,573.375 591.375,575.0 601.625,576.875 613.875,577.625 623.5,577.0 628.875,576.25 640.75,573.625 647.375,571.5 654.5,568.75 662.125,565.375"/>
    <polyline points="670.5,561.125 679.375,555.75 688.875,549.375 699.125,541.625 709.75,532.375 721.0,521.625 732.375,509.0 743.625,494.75 754.625,478.75 764.5,461.375 772.75,443.0 778.75,424.25 781.75,406.125 781.375,389.375 777.375,374.875 769.875,363.5 759.25,355.625 746.375,351.25 731.875,350.25 716.625,351.875 701.5,355.75 686.75,361.125 673.0,367.5 660.25,374.25 638.25,387.75"/>
    <polyline points="628.875,394.25 589.625,423.125 576.75,432.0 569.5,436.25 563.0,439.625 557.125,442.125 551.75,444.0 546.75,445.25 542.0,446.0 537.5,446.375 533.125,446.25"/>
    <polyline points="531.0,446.125 527.0,445.625 519.25,443.5 513.875,441.25 508.625,438.25 503.625,434.625 497.375,428.875 491.75,421.75 489.25,417.75"/>
    <polyline points="488.0,415.75 485.875,411.25 484.125,406.375 483.5,403.75 482.625,398.375 482.5,392.5 482.875,389.5 484.625,383.125 486.125,379.75 488.125,376.375 490.75,372.875 494.125,369.375 498.25,365.75 503.375,362.25 509.625,358.75 517.125,355.375 526.125,352.25 536.625,349.5 548.875,347.25 563.0,345.75 578.875,345.125"/>
    <polyline points="596.5,345.875 615.5,348.125 635.25,352.125 654.875,358.0 673.625,365.75 690.375,375.25 704.125,386.125 714.125,397.625 720.375,409.25 723.0,420.25 722.375,430.5 719.25,439.5 714.375,447.125 708.375,453.5 701.875,458.75 695.25,462.875 688.75,466.25 682.625,468.875 666.875,474.0 648.875,478.375"/>
    <polyline points="646.125,479.0 635.5,482.375 632.25,483.75 626.875,486.875 623.625,489.25 621.0,491.75 617.875,495.875 616.875,498.25"/>
    <polyline points="640.25,480.25 635.25,481.875 632.375,483.25 625.375,487.625 621.75,490.875 620.375,492.5 618.125,495.75 616.625,499.0 616.125,501.25 616.5,503.75 617.875,506.0 619.0,506.875 621.875,508.125 624.75,508.5 630.5,508.0"/>
    <polyline points="631.875,507.625 634.625,506.875 637.625,505.625 642.25,503.25 647.125,500.0 653.25,494.625 657.375,489.75 659.625,486.25 661.375,482.75 662.625,479.25 663.125,476.0"/>
    <polyline points="663.125,474.5 662.0,470.5 661.25,469.375 659.125,467.625 655.0,466.125 649.625,466.125 645.5,466.75 637.0,469.625 628.375,473.875 622.25,477.75"/>
    <polyline points="620.375,479.0 611.75,485.875 605.0,492.875 601.875,496.75 598.375,503.125 597.0,507.75 596.875,511.0"/>
    <polyline points="597.0,512.0 597.75,515.0 598.75,516.875 600.75,519.375 603.625,521.5 607.25,523.25 610.125,524.125 615.25,524.875 621.25,524.875 628.25,523.75"/>
    <polyline points="630.75,523.125 636.25,521.5 645.125,517.625 651.375,513.875 658.0,509.375 661.375,506.75 667.875,500.75 671.125,497.375 677.25,490.0 682.5,482.0 684.75,477.75 686.625,473.625 688.125,469.375 689.75,461.25 689.875,457.5 689.375,454.0 688.375,450.875"/>
    <polyline points="686.875,448.125 684.875,445.75 682.5,443.75 679.625,442.375 676.25,441.375 672.625,440.75 664.75,441.0 660.375,441.75 651.625,444.0 638.375,449.25 629.875,453.5 621.875,458.0 604.125,469.375 595.25,475.875"/>
    <polyline points="592.5,477.875 580.875,487.375 570.625,497.0 565.75,502.625 562.125,507.625 560.25,511.125 559.0,514.5"/>
    <polyline points="558.75,515.625 558.125,518.75 558.125,521.875 558.625,524.875 559.625,527.875 561.75,531.75 563.25,533.75 565.75,536.625 570.0,540.5"/>
    <polyline points="571.25,541.375 576.875,545.125 585.875,549.375 592.5,551.625 597.625,552.75 606.25,553.875 612.875,554.0 620.375,553.5 633.25,551.0 638.0,549.5"/>
    <polyline points="643.125,547.75 648.5,545.625 660.125,539.75 666.5,536.0 673.0,531.625 679.875,526.5 686.875,520.625 694.125,514.0 701.25,506.5 708.5,498.125 715.375,489.125 721.875,479.25 727.625,469.0 732.625,458.25 736.375,447.375 738.75,436.75 739.5,426.75 738.5,417.5 735.875,409.5 731.5,402.875 725.625,397.875 718.375,394.5 710.125,392.875 701.25,392.625 691.75,393.625"/>
    <polyline points="682.25,395.75 672.75,398.75 663.5,402.375 654.5,406.375 646.0,410.75 637.875,415.125 623.125,423.875 588.875,445.875 575.875,453.875 568.375,458.25 558.375,463.5 546.875,468.625"/>
    <polyline points="544.375,469.625 537.125,472.0 530.625,473.625 520.875,474.875 515.5,474.875 507.25,473.875 501.0,472.25 497.875,471.125"/>
    <polyline points="496.25,470.5 490.125,467.75 478.75,461.25 450.875,442.875"/>
    <polyline points="448.5,441.375 437.625,435.0 428.125,430.25 412.875,424.25 403.875,421.75 393.875,419.75 382.375,418.625 369.375,418.75 362.375,419.375 354.875,420.5 347.0,422.375 338.875,424.875 330.625,428.25 322.125,432.625"/>
    <polyline points="313.875,438.0 305.875,444.5 298.625,452.25 292.5,461.25 287.75,471.375 284.875,482.5 284.25,494.375 286.0,506.75 290.25,519.125 296.875,531.25 305.5,542.75 315.625,553.25 327.0,562.5 338.875,570.5 351.0,577.375 362.875,582.875 374.125,587.25 384.75,590.625 394.625,593.0 403.75,594.75 412.0,595.875 426.25,596.5 432.375,596.25 443.125,595.0"/>
    <polyline points="447.75,594.125 455.875,591.875 463.0,589.5 472.0,585.75 484.25,580.0 494.625,575.75 502.125,573.375 509.125,572.125"/>
    <polyline points="510.75,572.0 515.75,571.75 520.625,572.125 528.625,573.75 538.625,577.375 547.375,581.625 553.0,584.75"/>
    <polyline points="555.0,585.875 568.125,593.375 584.5,601.5 594.625,605.375 606.75,608.625 616.375,609.875 621.75,610.25 627.625,610.25 641.0,608.875 648.625,607.25"/>
    <polyline points="657.125,604.875 666.5,601.625 677.0,597.125 688.625,591.0 701.5,583.25 715.875,573.125 731.625,560.375 748.875,544.375 767.125,524.875 786.125,501.375 804.625,473.875 821.5,442.75 834.875,409.375 842.5,375.875 842.75,344.75 834.875,318.875 819.125,300.5 797.5,290.375 772.375,288.125 746.25,292.0 721.25,300.125 698.625,310.75 679.0,322.25 662.625,333.625 649.125,344.375 638.375,354.25"/>
    <polyline points="629.75,363.125 623.125,370.875 618.0,377.75 614.125,383.75 611.125,389.125 607.125,398.125 601.375,417.125 598.125,424.25 595.375,428.375 592.0,432.25 588.25,435.625 581.875,440.0 579.5,441.25"/>
    <polyline points="577.25,442.5 570.125,445.75 562.75,448.25 558.0,449.625 546.25,451.75 539.5,452.25 535.125,452.25 526.75,451.5 520.625,450.25"/>
    <polyline points="518.75,449.75 513.0,447.75 507.375,445.125 501.875,442.0 496.5,438.25 489.5,432.25 484.375,427.0 479.375,421.0 474.625,414.25"/>
    <polyline points="473.0,411.875 467.375,401.375 465.125,395.375 463.25,389.0 462.625,385.75 462.125,378.625 463.0,370.875 464.0,366.875 465.75,362.625 468.125,358.375 471.5,353.875 475.875,349.25 481.5,344.625 488.75,340.0 497.75,335.375 509.125,330.875 523.0,326.875 539.875,323.5 560.125,321.125"/>
    <polyline points="583.875,320.5 610.75,321.875 640.375,326.125 671.125,333.75 701.25,344.875 728.25,359.5 749.875,376.5 764.5,394.75 772.0,412.5 773.125,428.625 769.375,442.25 762.5,453.125 754.125,461.125 745.375,466.625 737.125,470.125 729.625,471.875 723.25,472.375 717.75,471.875 713.25,470.5 709.375,468.625 706.25,466.375 703.5,463.875 693.875,453.5"/>
    <polyline points="691.375,451.25 685.75,447.5 682.625,446.125 679.25,445.125 675.75,444.5 672.0,444.125 668.0,444.25 664.0,444.625 655.75,446.25 651.5,447.5 643.125,450.625 634.875,454.25 627.125,458.25 612.875,466.875 600.75,475.25"/>
    <polyline points="598.125,477.25 584.5,488.5 574.875,498.125 571.375,502.375 567.875,507.75 565.625,512.625 565.0,515.0"/>
    <polyline points="564.75,516.125 564.375,519.5 564.625,522.75 565.875,527.0 567.5,530.0 568.875,532.125 571.5,535.125 574.75,538.0 580.0,541.75"/>
    <polyline points="581.625,542.625 586.75,545.125 590.75,546.625 600.0,548.875 602.625,549.375 608.5,549.875 618.375,549.625 630.125,547.625 639.125,545.0 649.25,541.0 660.25,535.125 666.25,531.5"/>
    <polyline points="672.375,527.25 678.75,522.375 685.25,516.75 691.75,510.5 698.375,503.5 704.875,495.875 711.0,487.5 716.75,478.625 722.0,469.25 726.25,459.625 729.5,449.875 731.625,440.375 732.25,431.375 731.5,423.125 729.125,415.875 725.375,409.875 720.25,405.25 713.875,402.0 706.625,400.125 698.625,399.625 690.25,400.25 681.625,401.875 672.875,404.25 664.25,407.375 655.875,410.875 647.75,414.75"/>
    <polyline points="640.125,418.75 632.75,422.75 619.375,430.75 587.5,451.125 571.625,460.875 553.0,471.0 543.0,475.375 538.5,477.0"/>
    <polyline points="536.375,477.75 526.75,480.25 517.0,481.375 508.25,480.875 505.625,480.375 497.625,478.0"/>
    <polyline points="496.375,477.5 492.375,475.75 485.75,472.25 474.0,464.875 458.375,454.375"/>
    <polyline points="456.25,453.125 447.625,447.625 434.625,440.625 422.0,435.25 410.75,431.75 397.625,429.125 387.625,428.25 376.625,428.375 364.375,429.875"/>
    <polyline points="358.0,431.375 351.375,433.375 344.625,436.0 337.75,439.25 331.0,443.25 324.625,448.125 318.5,453.875 313.125,460.375 308.75,467.875 305.375,476.125 303.5,485.0 303.25,494.375 304.75,504.0 307.875,513.75 312.75,523.25 319.25,532.375 326.875,540.875 335.5,548.5 344.75,555.375 354.375,561.25 364.0,566.125 373.5,570.25 382.75,573.5 391.5,576.0 399.75,577.75 407.5,579.0"/>
    <polyline points="414.75,579.875 427.625,580.25 433.375,580.0 438.625,579.5 448.125,578.0 460.0,575.0 466.75,572.875 487.625,564.875 499.625,560.875"/>
    <polyline points="501.5,560.375 506.625,559.25 513.125,558.5 522.125,558.875 526.625,559.625 531.0,560.75 540.25,564.125"/>
    <polyline points="541.75,564.875 548.375,567.875 570.375,578.875 578.0,582.125 586.75,585.25 593.375,587.125 600.75,588.625"/>
    <polyline points="604.75,589.25 613.625,589.875 623.875,589.625 635.875,588.0 642.625,586.5 657.875,581.375 666.5,577.625 676.0,572.875 686.25,566.75 697.5,559.25 709.5,550.0 722.375,538.75 736.0,525.25 749.875,509.375 763.875,491.125 777.125,470.5 788.875,448.0 798.125,424.25 803.75,400.625 804.875,378.375 801.0,359.0 792.125,343.75"/>
    <polyline points="779.0,333.375 762.5,328.125 744.25,327.25 725.25,330.125 706.75,335.75 689.375,343.125 673.5,351.25 659.375,359.75 647.0,368.0 636.25,375.875 618.75,389.875 611.75,395.75 591.5,413.75 581.25,422.375 573.25,428.375 566.25,432.5"/>
    <polyline points="564.125,433.5 558.0,435.875 552.375,437.25 545.125,437.875 541.625,437.625 536.75,437.0 532.0,435.625 527.625,433.75 522.25,430.375"/>
    <polyline points="521.125,429.25 518.75,427.125 515.75,423.375 513.5,419.0 512.0,414.125 511.75,410.5 512.0,406.75 513.125,402.75 514.0,400.75 516.625,396.5 520.5,392.375 523.125,390.25 526.0,388.125 529.5,386.125"/>
    <polyline points="533.375,384.25 543.0,380.875 548.625,379.5 555.0,378.375 561.875,377.5 569.25,377.125 577.25,377.125 585.625,377.625 594.375,378.75 603.25,380.5 612.0,382.875 620.625,385.875 628.625,389.5 635.875,393.625 642.25,398.25 647.375,403.25 651.375,408.5 654.125,413.875 655.625,419.125 655.875,424.375 655.0,429.375 653.25,434.0 650.75,438.5 647.625,442.5 644.0,446.375"/>
    <polyline points="640.125,449.75 631.625,455.875 622.875,461.25 582.875,482.0 570.5,489.25 561.0,495.75"/>
    <polyline points="559.5,496.875 551.75,503.375 547.375,508.125 544.125,513.25 542.75,517.25 542.5,519.5"/>
    <polyline points="542.5,520.25 542.625,522.5 543.375,525.5 545.625,530.125 549.875,535.625 554.125,539.875"/>
    <polyline points="555.125,540.75 562.0,546.125 566.125,548.875 572.625,552.625 576.375,554.375 587.25,558.625 595.375,560.625 601.375,561.5"/>
    <polyline points="604.75,561.875 615.875,562.0 629.25,560.25 639.625,557.5 651.375,553.0 657.875,550.0 664.625,546.375 671.875,542.0 679.5,536.75 687.5,530.625 695.75,523.5 704.25,515.375 712.875,506.25 721.25,495.875 729.375,484.625 736.875,472.375 743.5,459.5 748.75,446.25 752.25,433.125 753.875,420.375"/>
    <polyline points="753.25,408.75 750.375,398.625 745.25,390.375 738.125,384.25 729.25,380.25 719.25,378.375 708.375,378.5 697.0,380.125 685.75,383.125 674.625,387.125 664.0,391.75 653.875,396.75 644.375,401.875 635.625,407.0 619.875,416.875 594.875,433.625 580.25,443.0 568.125,450.0"/>
    <polyline points="564.5,452.0 554.5,456.625 545.75,459.875 537.875,462.0 530.75,463.25 524.125,463.625 517.875,463.375 510.0,462.125 504.375,460.5"/>
    <polyline points="502.5,459.75 495.125,456.625 483.875,450.125 474.125,443.375 451.25,425.625"/>
    <polyline points="448.5,423.625 439.75,417.125 426.25,408.125 418.25,403.625 409.125,399.125 398.625,394.875 392.75,392.875 386.25,391.125 371.625,388.375 363.25,387.5 354.0,387.25 343.75,387.625 332.625,388.75 320.375,391.0 307.25,394.625 293.125,399.875 278.5,407.25"/>
    <polyline points="263.625,417.0 249.5,429.5 237.125,444.875 227.875,463.25 222.875,484.125 223.625,506.875 230.375,530.25 243.0,553.0 260.375,574.0 280.75,592.375 302.5,607.75 324.0,620.25 344.0,629.875 361.875,637.25 377.375,642.625 390.5,646.5 401.375,649.125 410.125,650.75 417.375,651.5 423.0,651.625 427.625,651.125 431.25,650.25 434.125,649.0 436.375,647.25 439.875,643.0"/>
    <polyline points="441.25,640.5 443.875,635.0 450.25,619.625 453.25,613.375 460.0,601.625 463.75,596.25 471.5,587.0 477.375,581.25 483.25,576.5"/>
    <polyline points="485.125,575.125 490.75,571.625 496.125,568.875 499.625,567.375 506.375,565.375 511.25,564.625 519.125,564.375 526.875,565.5"/>
    <polyline points="528.375,565.875 534.625,567.75 542.875,571.125 566.125,583.0 576.0,587.625"/>
    <polyline points="578.75,588.875 587.875,592.25 598.5,595.25 611.25,597.125 616.125,597.5 621.375,597.5 633.25,596.5 647.25,593.5 655.25,591.0 664.0,587.625 673.625,583.25 684.25,577.5 695.875,570.25 708.5,561.125 722.25,549.875 737.0,536.125 752.375,519.625 768.125,500.25"/>
    <polyline points="783.625,477.875 797.625,452.875 809.25,426.125 816.875,398.75 819.25,372.75 815.75,349.875 806.125,331.875 791.25,319.75 772.5,313.625 751.625,313.0 730.25,316.875 709.625,323.625 690.625,332.25 673.625,341.625 658.875,351.125 646.125,360.375 635.375,368.875 626.375,376.625 612.5,389.75 602.5,400.125 589.75,414.375"/>
    <polyline points="587.375,417.0 581.25,423.375 575.875,428.125 570.75,431.625 567.25,433.375 562.125,435.5 555.25,437.25 548.375,438.0 543.375,437.875"/>
    <polyline points="541.75,437.625 533.875,436.0 530.875,434.875 526.625,432.75 522.75,430.125 519.375,426.875 515.625,421.75 513.625,417.25 512.875,414.0"/>
    <polyline points="512.625,412.25 513.0,406.75 514.125,402.75 516.25,398.75 517.75,396.625 521.75,392.5 524.375,390.5 530.75,386.5 539.25,383.0 544.375,381.5 550.0,380.125 563.0,378.375 570.375,378.0 578.125,378.125 586.375,378.625 594.875,379.75 603.5,381.5 612.0,383.875"/>
    <polyline points="620.25,386.875 628.0,390.5 635.0,394.625 641.0,399.125 646.0,404.0 649.75,409.125 652.375,414.25 653.625,419.5 653.875,424.5 653.0,429.375 651.375,434.0 648.875,438.25 645.75,442.25 642.25,446.0 634.25,452.625 625.75,458.25 617.25,463.125 594.125,474.875"/>
    <polyline points="590.875,476.625 578.875,482.875 564.875,491.125 551.0,501.25 545.25,506.875"/>
    <polyline points="544.5,507.75 541.625,511.75 540.125,514.75 539.5,516.875 539.25,521.625 540.5,525.75"/>
    <polyline points="540.75,526.375 544.25,532.125 546.125,534.375 550.875,539.125 559.375,546.0"/>
    <polyline points="560.75,546.875 566.375,550.625 577.0,556.125 581.25,557.875 588.5,560.25 596.875,562.125 606.75,563.25 614.25,563.25 622.75,562.625"/>
    <polyline points="627.5,561.875 637.75,559.375 649.5,555.25 662.75,548.875 670.0,544.625 677.625,539.625 685.625,533.75 694.0,526.875 702.625,518.875 711.375,509.875 720.125,499.625 728.625,488.375 736.5,476.0 743.625,463.0 749.5,449.375 753.625,435.75 755.875,422.5 755.875,410.125 753.5,399.25 748.75,390.25 741.875,383.375 733.125,378.75 723.125,376.375"/>
    <polyline points="712.0,376.125 700.5,377.5 688.875,380.375 677.5,384.375 666.5,389.0 656.125,394.0 646.375,399.25 628.875,409.75 595.625,431.875 576.5,444.0 568.5,448.625 561.375,452.25 554.875,455.25 548.875,457.5"/>
    <polyline points="546.125,458.5 540.75,460.0 533.25,461.375 526.5,462.0 520.0,461.875 514.0,461.125 508.125,459.75 500.5,457.0 493.125,453.375"/>
    <polyline points="491.25,452.375 483.625,447.625 471.625,438.875 448.0,419.625 432.75,408.0"/>
    <polyline points="429.25,405.625 421.75,400.75 413.125,395.75 403.375,390.875 391.875,386.375 385.375,384.375 378.25,382.625 370.375,381.125 361.625,380.0 352.0,379.375 341.25,379.5 329.375,380.375 316.375,382.5 302.0,386.125 286.5,391.5 270.0,399.25 253.25,409.875 237.125,423.625 222.875,441.0 212.25,461.875 207.0,485.875 208.625,512.0"/>
    <polyline points="217.625,538.625 233.625,564.25 254.75,587.375 278.875,607.125 303.625,623.375 327.125,636.125 348.375,645.75 366.625,653.0 381.875,658.25 394.25,661.875 404.0,664.375 411.5,665.75 417.125,666.375 421.375,666.125 424.375,665.375 426.5,664.0 428.0,662.25 429.125,659.875 430.375,654.0 432.875,638.875 434.75,630.25"/>
    <polyline points="436.0,626.0 439.0,617.375 444.5,605.0 450.875,593.875 455.375,587.375 464.5,576.125 469.0,571.5 475.5,565.625 479.625,562.375 487.375,557.125"/>
    <polyline points="489.25,556.0 497.75,551.75 502.375,550.0 506.875,548.875 515.0,547.75 518.875,547.875 525.125,548.75"/>
    <polyline points="526.25,549.0 531.25,550.375 537.75,552.875 544.625,556.125 562.75,565.625"/>
    <polyline points="564.625,566.625 578.125,572.5 589.375,576.125 595.875,577.625 603.125,578.75 615.875,579.25 625.875,578.5 637.375,576.25 643.875,574.5 650.875,572.125 666.5,565.25"/>
    <polyline points="675.25,560.375 684.625,554.5 694.625,547.375 705.375,538.75 716.5,528.5 728.125,516.5 739.875,502.75 751.5,487.125 762.25,469.875 771.75,451.375 779.125,432.0 783.875,412.875 785.125,394.625 782.75,378.5 776.5,365.25 766.75,355.5 754.25,349.5 739.875,347.125 724.375,347.875 708.625,351.125 693.25,356.25 678.75,362.375 665.375,369.25 653.125,376.375 632.25,390.0"/>
    <polyline points="623.5,396.375 586.875,423.875 578.5,429.625 568.0,436.0 559.125,440.25 548.75,443.5 541.75,444.625 537.375,444.875 533.25,444.625"/>
    <polyline points="531.25,444.5 525.375,443.375 519.875,441.625 514.625,439.125 508.0,434.875 504.875,432.375 499.125,426.375 495.25,421.0 492.0,415.0"/>
    <polyline points="491.0,412.875 488.875,405.875 488.125,398.125 488.25,395.375 489.5,389.5 492.125,383.375 494.125,380.25 499.875,373.75 503.875,370.5 508.75,367.25 514.5,364.0 521.375,361.0 529.5,358.125 539.0,355.625 549.875,353.625 562.375,352.25 576.25,351.75 591.625,352.125 608.0,353.875"/>
    <polyline points="625.125,357.0 642.375,361.75 659.0,368.0 674.25,375.75 687.25,384.75 697.5,394.5 704.5,404.75 708.5,414.75 709.5,424.25 708.125,432.875 704.75,440.625 700.125,447.25 694.5,452.875 688.5,457.625 682.375,461.625 676.375,465.0 670.5,467.75 659.875,472.125 633.5,481.75"/>
    <polyline points="630.875,482.875 626.25,485.125 620.625,488.5 615.0,492.875 612.875,495.125 611.125,497.125 609.25,500.25 608.5,502.25 607.875,505.0 608.125,508.5"/>
    <polyline points="608.5,509.25 609.75,511.375 611.75,513.25 613.5,514.25 616.625,515.375 620.625,515.875 625.25,515.75 630.625,514.75 636.625,512.875 640.875,511.0"/>
    <polyline points="643.125,509.75 650.125,505.5 654.75,501.875 659.375,497.75 665.75,490.5 669.25,485.25 672.25,479.75 674.75,471.625 675.0,466.625 674.625,464.375 674.0,462.375 671.75,458.875 668.25,456.375"/>
    <polyline points="666.25,455.625 661.375,454.875 655.75,455.0 646.75,457.125 637.25,460.625 628.0,465.25 619.375,470.375 611.5,475.75 606.75,479.375 598.5,486.375"/>
    <polyline points="596.625,488.0 590.375,494.5 587.875,497.5 584.75,501.875 582.375,506.0 580.5,511.25 579.875,514.875 580.0,518.375 580.875,521.75"/>
    <polyline points="581.25,522.75 583.0,525.875 584.5,527.875 587.5,530.75 592.625,534.0 597.5,536.125 601.375,537.25 607.875,538.375 615.625,538.625 621.625,538.125"/>
    <polyline points="624.75,537.625 628.125,537.0 635.375,535.0 643.375,532.0 652.0,527.75 661.25,522.125 671.0,514.875 676.0,510.5 686.0,500.5 690.875,494.875 699.75,482.375 703.625,475.625 707.0,468.75 709.625,461.875 711.625,455.0 712.625,448.375 712.75,442.125 712.0,436.375 710.125,431.25"/>
    <polyline points="707.375,427.0 703.75,423.625 699.25,421.0 694.125,419.375 688.375,418.625 682.25,418.625 675.875,419.375 669.25,420.75 662.625,422.75 649.625,427.625 631.125,436.75 620.0,443.125 609.875,449.375 578.25,470.125"/>
    <polyline points="575.125,472.125 551.125,487.75 530.75,499.75"/>
    <polyline points="529.875,500.375 522.625,504.25 516.125,507.25"/>
    <polyline points="515.875,507.375 513.0,508.125 511.625,508.25 510.5,508.0"/>
    <polyline points="510.25,508.0 508.0,507.125 506.0,505.75 499.25,499.875"/>
    <line x1="499.0" x2="486.5" y1="499.625" y2="488.25"/>
    <polyline points="485.75,487.625 474.75,478.0 459.875,466.5"/>
    <polyline points="458.375,465.5 450.0,459.875 440.0,454.125 427.75,448.625 422.0,446.625 412.625,444.0 401.875,442.25 394.0,441.75"/>
    <polyline points="389.75,441.875 381.0,442.625 371.625,444.5 366.875,445.875 362.0,447.75 357.25,449.875 352.5,452.625 348.0,455.75 343.625,459.375 339.75,463.5 336.25,468.25 333.5,473.25 331.375,478.875 330.0,484.75 329.625,491.0 330.25,497.375 331.75,503.875 334.375,510.25 337.875,516.5 342.25,522.5 347.375,528.25 353.125,533.375 359.375,538.125 365.875,542.25"/>
    <polyline points="372.625,545.875 379.5,549.0 386.25,551.625 399.25,555.25 411.375,557.375 422.5,558.125 427.625,558.125 436.875,557.5 445.25,556.375 452.75,554.875 468.125,550.375 480.0,545.875"/>
    <polyline points="482.125,545.125 489.5,542.125 502.625,537.75 508.5,536.5 515.625,536.0"/>
    <polyline points="516.625,536.125 521.25,536.625 526.625,538.125 531.25,540.0 540.25,544.875"/>
    <polyline points="541.375,545.5 556.875,554.75 565.25,559.375 573.125,563.125 582.5,566.75"/>
    <polyline points="585.125,567.625 593.75,569.875 600.375,571.0 611.75,571.75 620.75,571.375 630.875,569.875 642.5,566.75 649.0,564.5 656.0,561.625 663.375,558.125 671.375,553.75 679.875,548.375 688.875,542.0 698.375,534.375 708.25,525.5 718.375,515.25 728.75,503.5 738.875,490.25"/>
    <polyline points="748.375,475.625 756.875,460.0 763.875,443.625 768.875,427.0 771.25,411.125 770.75,396.375 767.0,383.75 760.5,373.625 751.25,366.5 739.875,362.25 727.125,360.875 713.625,361.875 700.0,364.875 686.5,369.375 673.75,374.75 661.75,380.625 640.375,393.0 622.75,404.625 590.75,427.25 585.75,430.5"/>
    <polyline points="581.25,433.5 573.0,438.625 562.25,444.375 556.0,447.125 544.75,450.625 537.25,451.875 530.375,452.25 523.875,451.75 517.625,450.625 513.75,449.375"/>
    <polyline points="511.75,448.75 506.0,446.25 498.625,442.0 493.125,438.0 487.75,433.5 480.625,426.375 477.125,422.375 471.875,415.75 466.875,408.375"/>
    <polyline points="465.25,405.75 462.125,400.125 459.375,394.125 458.0,390.875 455.875,384.25 454.5,376.875 454.25,373.125 454.25,369.125 454.75,364.875 455.75,360.625 457.375,356.125 459.75,351.5 463.125,346.625 467.625,341.625 473.75,336.625 481.5,331.375 491.5,326.375 504.125,321.375 520.0,316.875 539.5,313.25 563.125,310.875 591.0,310.375"/>
    <polyline points="623.0,312.75 658.0,318.75 693.875,329.125 728.0,344.0 756.875,362.625 778.0,383.5 790.125,404.875 793.625,424.375 790.625,441.0 783.25,453.875 774.0,463.125 764.25,469.125 755.25,472.375 747.5,473.375 741.0,472.625 735.875,470.5 731.75,467.375 728.5,463.5 725.875,459.125 719.125,445.125 716.5,440.625 713.5,436.5 710.125,432.875 706.125,429.875"/>
    <polyline points="701.75,427.5 696.875,425.75 691.625,424.75 686.0,424.375 680.125,424.625 668.0,426.75 655.75,430.625 643.875,435.625 632.625,441.25 622.25,447.0 604.0,458.25 579.5,474.75"/>
    <polyline points="576.75,476.75 566.625,483.75 550.25,495.75 543.0,501.625 537.875,506.25"/>
    <polyline points="537.25,507.0 534.5,510.25 532.0,514.75 531.375,517.875 531.75,520.875"/>
    <polyline points="531.875,521.375 533.375,525.0 534.75,527.125 538.0,531.125 542.5,535.75"/>
    <polyline points="543.25,536.375 550.375,542.5 560.0,549.375 566.0,553.0 575.125,557.625"/>
    <polyline points="577.25,558.5 584.0,561.125 591.875,563.375 604.5,565.375 616.125,565.5 620.5,565.125 630.0,563.625 640.875,560.75 646.875,558.625 660.125,552.75 667.375,548.75 675.125,544.0 683.25,538.375 691.75,531.75"/>
    <polyline points="700.625,523.875 709.75,515.0 718.875,504.875 727.875,493.5 736.5,481.0 744.375,467.625 751.125,453.5 756.25,439.0 759.375,424.875 760.125,411.5 758.5,399.375 754.25,389.25 747.625,381.375 739.0,375.875 728.625,372.75 717.25,372.0 705.25,373.25 693.125,376.0 681.125,379.875 669.625,384.625 658.75,389.875 648.5,395.375 639.125,400.875 615.0,416.375"/>
    <polyline points="608.25,421.0 596.25,429.25 581.25,439.0 565.25,448.25 558.375,451.5 552.25,454.125 543.75,456.875 541.0,457.5 533.625,458.875 529.0,459.25 522.375,459.125"/>
    <polyline points="520.25,459.0 512.125,457.625 508.125,456.5 502.375,454.375 498.625,452.625 491.125,448.375 485.375,444.625 479.5,440.25 471.375,433.625"/>
    <polyline points="469.25,431.75 442.625,407.5 423.25,391.0 411.0,382.25 406.25,379.25 395.875,373.375 383.375,367.875"/>
    <polyline points="376.125,365.375 368.0,363.125 359.0,361.125 348.875,359.75 337.375,359.0 324.25,359.125 309.375,360.5 292.5,363.5 273.75,368.75 253.0,376.875 231.125,388.75 209.0,405.25 188.875,427.125 173.625,454.5 166.375,486.875 170.0,522.375 185.125,558.25 210.375,591.75 241.875,620.625 275.375,644.0 307.125,662.125 335.0,675.625 357.625,685.75 396.75,702.0"/>
    <polyline points="402.125,704.25 404.75,705.25 405.5,705.125 400.75,697.625 396.25,687.25 394.375,680.5 393.125,673.125 392.5,665.125 392.5,656.75 393.125,648.125 394.375,639.375 396.125,630.75 398.375,622.25 403.875,606.375 407.0,599.125 410.25,592.25 417.0,580.0 423.75,569.5 430.125,560.625"/>
    <polyline points="433.25,556.75 441.875,546.875 449.5,539.25 461.75,528.25 474.25,517.875 477.875,514.375"/>
    <polyline points="478.625,513.625 482.75,508.625 484.5,504.75 485.0,502.375 485.0,500.0 484.375,497.5"/>
    <polyline points="484.25,496.875 482.125,492.5 478.625,487.625 474.5,483.0 470.25,478.875"/>
    <polyline points="469.25,478.0 461.5,471.375 451.375,464.125 440.5,457.625 429.25,452.375"/>
    <polyline points="426.75,451.5 421.375,449.625 415.5,448.0 405.75,446.25 398.625,445.625 394.875,445.5 387.0,445.875 374.375,448.25 370.125,449.625 361.5,453.375 353.25,458.625 346.0,465.625 343.0,469.75 340.5,474.25 338.5,479.125"/>
    <polyline points="337.25,484.25 336.875,489.625 337.125,495.25 338.375,501.0 340.375,506.625 343.25,512.25 346.875,517.625 351.125,522.75 356.0,527.5 361.25,531.875 366.875,535.75 372.875,539.25 378.875,542.25 385.0,544.875 391.0,547.0 402.75,550.0 413.75,551.625 423.75,552.25 433.0,551.875 445.0,550.375"/>
    <polyline points="448.5,549.75 458.25,547.375 469.0,543.75 498.875,531.875"/>
    <polyline points="500.0,531.5 504.0,530.125 510.125,528.875 515.875,528.75 519.875,529.5"/>
    <polyline points="520.5,529.625 525.125,531.25 527.125,532.25 533.625,536.0 538.5,539.375"/>
    <polyline points="539.375,540.0 556.25,551.25 564.0,555.75 573.25,560.375"/>
    <polyline points="575.375,561.25 584.875,564.875 590.25,566.375 603.0,568.625 610.625,569.0 619.125,568.75 628.875,567.375 634.125,566.25 646.0,562.625 659.625,556.875 667.125,552.875 675.125,548.125 683.5,542.375 692.5,535.625"/>
    <polyline points="701.75,527.625 711.375,518.375 721.25,507.75 730.875,495.75 740.25,482.625 748.75,468.25 756.125,453.0 761.875,437.5 765.375,422.125 766.375,407.625 764.5,394.5 759.875,383.625 752.625,375.125 743.125,369.5 731.875,366.5 719.5,366.0 706.625,367.5 693.625,370.75 681.0,375.25 668.875,380.5 657.625,386.25 647.125,392.125 628.625,403.625 613.25,414.125"/>
    <polyline points="606.5,418.75 589.5,430.5 575.75,439.25 564.5,445.625 554.625,450.0 546.125,452.875 540.75,454.125 535.875,454.875 531.125,455.25 526.625,455.25 522.25,454.875"/>
    <polyline points="520.25,454.625 514.125,453.375 506.25,450.625 500.5,447.875 494.875,444.625 485.5,437.75 479.875,432.875 472.0,425.25"/>
    <polyline points="470.125,423.25 459.875,411.75 451.375,401.0 442.75,388.75 436.375,378.5 430.25,367.0 426.75,358.625 424.0,349.625 423.0,344.875 422.5,339.875"/>
    <polyline points="422.5,334.625 423.25,329.125 424.875,323.375 427.625,317.375 432.0,311.0 438.25,304.375 447.25,297.375 459.625,290.25 476.5,283.25 499.125,276.5 528.875,270.875 567.375,267.625 615.125,268.375 671.625,275.375 733.0,291.25 792.125,317.0 839.625,351.125 868.625,388.75 877.875,423.875 872.375,451.875 859.125,470.75 844.25,480.875 831.375,483.375 822.125,479.875 816.5,471.375 814.0,459.0"/>
    <polyline points="813.5,443.75 813.625,426.5 813.25,408.25 811.0,390.375 806.125,373.875 798.125,359.875 787.0,349.375 773.375,342.625 757.75,339.5 741.125,339.875 724.375,343.0 708.125,348.0 692.75,354.5 678.5,361.625 665.75,369.125 654.25,376.5 644.0,383.625 626.875,396.5 602.25,416.375 589.0,426.625"/>
    <polyline points="585.125,429.375 578.25,434.125 568.875,439.375 560.625,443.0 555.375,444.75 548.125,446.5 539.125,447.375 532.75,447.25 528.625,446.75 522.75,445.5"/>
    <polyline points="520.875,444.875 515.375,442.75 510.0,440.0 503.25,435.375 498.5,431.125 494.0,426.25 489.75,420.625 486.0,414.25 483.0,407.25"/>
    <polyline points="482.25,404.625 480.75,396.375 480.875,390.375 482.125,384.0 485.0,377.25 487.25,373.75 490.25,370.125 493.875,366.5 498.5,362.875 504.25,359.125 511.125,355.625 519.375,352.25 529.25,349.125 540.75,346.5 554.25,344.5 569.75,343.25 587.0,343.25 606.0,344.625 626.25,347.875 646.875,352.875 667.125,360.125"/>
    <polyline points="685.625,369.125 701.5,379.875 713.875,391.5 722.25,403.625 726.5,415.5 727.125,426.5 724.875,436.375 720.5,444.875 714.625,451.875 708.125,457.5 701.375,462.125 694.625,465.625 688.25,468.375 682.375,470.625 676.875,472.25 667.5,474.625 648.375,478.125 642.0,479.625"/>
    <polyline points="616.625,499.625 616.5,502.375 617.125,504.25 618.625,506.25 619.875,507.0 622.125,507.875 624.875,508.25 629.375,508.0 632.0,507.375"/>
    <polyline points="633.375,507.0 639.125,504.75 643.875,502.0 650.0,497.375 654.375,493.0 659.25,486.375 661.0,482.875 662.5,477.875 662.625,474.75"/>
    <polyline points="662.5,473.375 662.125,472.0 660.875,469.75 658.875,468.0 657.625,467.375 654.75,466.5 653.0,466.375 647.5,466.75 643.375,467.625 637.0,469.875 628.625,474.125 620.625,479.125"/>
    <polyline points="618.875,480.5 610.625,487.375 605.5,492.75 602.375,496.75 600.75,499.25 598.5,504.125 597.625,507.625 597.625,511.875"/>
    <polyline points="597.75,512.875 598.875,515.75 600.625,518.25 603.25,520.5 608.0,522.875 612.5,524.0 617.875,524.5 624.125,524.0 631.5,522.5"/>
    <polyline points="634.125,521.75 639.625,519.625 645.625,516.75 651.875,513.125 658.375,508.5 665.0,503.0 668.125,499.875 674.375,493.0 677.25,489.25 682.25,481.25 684.375,477.125 687.625,469.0 688.5,465.0 689.0,461.125 689.0,457.375 688.5,454.0 687.375,451.0 685.875,448.375"/>
    <polyline points="683.875,446.125 681.375,444.25 678.5,442.875 675.125,442.0 671.625,441.5 667.75,441.5 659.5,442.5 650.875,444.875 637.875,450.125 625.5,456.5 617.875,461.0 604.125,470.0 592.75,478.5"/>
    <polyline points="590.25,480.5 579.375,489.5 571.25,497.375 568.75,500.25 566.5,503.0 563.0,508.125 560.75,512.75 559.75,516.125"/>
    <polyline points="559.625,517.125 559.375,518.25 559.625,523.5 560.375,526.5 562.25,530.5 564.25,533.375 566.875,536.375 571.125,540.25 573.75,542.125"/>
    <polyline points="575.125,543.0 583.25,547.5 591.625,550.5 599.125,552.25 611.25,553.25 618.375,552.875 630.75,550.875 640.25,548.0 650.875,543.75"/>
    <polyline points="656.625,540.875 669.0,533.5 682.375,523.5 689.375,517.375 696.5,510.5 703.5,502.75 710.5,494.25 717.125,485.0 723.25,475.25 728.625,464.875 733.0,454.25 736.125,443.75 737.875,433.5 738.0,423.875 736.375,415.25 733.125,408.0 728.25,402.125 721.875,397.75 714.5,395.125 706.125,393.875 697.125,394.125 687.875,395.625 678.5,398.0 669.125,401.125"/>
    <polyline points="660.125,404.875 651.375,408.875 635.25,417.5 621.0,426.0 587.625,447.5 571.125,457.5 557.75,464.75 551.875,467.5 541.5,471.625"/>
    <polyline points="539.125,472.375 532.5,474.25 526.5,475.375 520.875,476.0 514.0,476.0 506.0,474.875 501.375,473.625 495.375,471.375"/>
    <polyline points="493.875,470.75 489.25,468.625 479.875,463.25 448.25,442.625"/>
    <polyline points="445.75,441.125 440.375,438.0 431.375,433.375 421.125,428.875 413.25,426.0 404.375,423.625 394.5,421.75 389.125,421.0 377.25,420.5 363.875,421.375 356.75,422.5 349.25,424.25 341.375,426.75 333.375,429.875 325.25,434.0 317.375,439.125"/>
    <polyline points="309.75,445.375 302.75,452.625 296.75,461.125 292.0,470.625 289.125,481.125 288.125,492.375 289.5,504.125 293.125,515.875 298.875,527.5 306.75,538.625 316.125,548.875 326.75,558.0 338.0,566.0 349.5,572.875 361.0,578.375 372.0,583.0 382.5,586.5 392.375,589.125 401.375,590.875 409.75,592.125 417.25,592.875 430.5,592.875 436.25,592.5 446.25,591.0"/>
    <polyline points="450.625,590.0 458.5,587.875 468.375,584.25 486.25,576.5 496.5,572.5 502.125,570.875 510.875,569.375"/>
    <polyline points="512.5,569.25 520.625,569.5 525.375,570.25 531.875,572.0 541.875,576.0 554.75,582.625"/>
    <polyline points="556.75,583.75 572.75,592.375 581.0,596.25 587.125,598.75 597.75,602.25 610.5,604.75 620.75,605.5 632.625,604.875 639.5,604.0 646.875,602.375 655.125,600.125"/>
    <polyline points="664.125,596.875 674.125,592.625 685.25,586.875 697.5,579.5 711.0,570.125 725.875,558.375 741.875,543.75 759.0,525.875 776.625,504.375 794.125,479.375 810.25,451.125 823.5,420.625 832.125,389.375 834.375,359.625 829.375,334.0 817.125,314.625 798.875,302.375 776.5,297.5 752.375,298.875 728.5,304.75 706.125,313.625 686.125,324.0 668.875,334.875 654.375,345.25 642.375,355.125 632.625,364.0"/>
    <polyline points="624.625,372.0 613.25,385.125 609.125,390.625 603.25,399.75 595.0,415.5 589.875,424.125 588.5,425.875 585.5,429.25 580.5,433.5 576.875,436.0 571.0,439.0"/>
    <polyline points="569.0,439.875 562.875,442.125 556.5,443.75 552.375,444.5 544.125,445.25 538.125,445.125 532.25,444.375 524.875,442.625 519.625,440.5"/>
    <polyline points="517.875,439.75 513.0,436.875 506.75,432.125 502.5,427.875 497.375,421.125 494.25,415.25 492.0,408.625 491.0,401.25 491.375,396.0"/>
    <polyline points="491.875,393.125 492.75,390.25 495.625,384.375 497.75,381.25 503.75,375.0 507.875,371.875 512.75,368.875 518.5,365.875 525.375,363.0 533.5,360.5 542.75,358.25 553.375,356.5 565.375,355.25 578.75,355.0 593.25,355.625 608.75,357.5 624.75,360.625 640.75,365.125 656.125,371.125 670.0,378.5 682.0,386.875 691.375,396.0 698.0,405.375 701.625,414.75"/>
    <polyline points="702.75,423.625 701.5,431.875 698.5,439.25 694.25,445.625 689.0,451.25 683.375,456.0 677.5,460.0 671.625,463.5 665.875,466.375 650.5,473.125 631.25,480.875 622.875,484.875 616.375,488.75 611.25,492.5"/>
    <polyline points="609.875,493.75 606.375,497.375 603.875,500.875 602.25,504.25 601.375,508.5 601.5,510.375 602.25,513.125 604.5,516.375 607.0,518.375"/>
    <polyline points="608.125,519.0 610.375,520.0 614.5,521.0 617.75,521.375 621.375,521.375 627.5,520.625 634.5,518.75 642.375,515.5 647.875,512.5 656.625,506.5 662.5,501.5"/>
    <polyline points="665.25,498.75 670.75,492.625 675.625,485.875 677.75,482.375 681.25,475.125 682.5,471.625 683.875,464.625 684.0,461.5 683.625,458.5 682.75,455.75 681.625,453.25 679.875,451.125 677.875,449.5 675.5,448.125 672.75,447.125 669.625,446.5 666.375,446.25 662.875,446.375 659.25,446.875 655.375,447.625 647.625,449.875"/>
    <polyline points="643.75,451.25 639.75,452.875 628.375,458.5 621.25,462.625 611.375,468.875 597.5,479.0 590.5,484.75 582.875,491.625 577.0,498.0"/>
    <polyline points="575.75,499.5 570.75,506.375 569.375,509.0 567.25,515.125 566.875,517.375 567.0,521.875 568.625,527.25 569.75,529.25"/>
    <polyline points="570.375,530.375 572.75,533.375 577.0,537.25 580.875,540.0 587.375,543.375 593.25,545.5 600.25,547.25 608.5,548.125 614.75,548.125"/>
    <polyline points="618.125,547.875 629.5,546.125 638.25,543.625 643.0,541.875 653.125,537.25 664.25,530.875 676.25,522.25 682.5,517.0 688.875,511.125 695.25,504.5 701.5,497.25 707.5,489.5 713.125,481.0 718.25,472.125 722.5,463.0 726.0,453.75 728.25,444.625 729.375,435.875 729.0,427.75 727.25,420.5"/>
    <polyline points="724.125,414.375 719.625,409.375 714.0,405.75 707.375,403.5 699.875,402.5 692.0,402.625 683.75,403.875 675.375,405.875 667.0,408.5 650.875,415.25 635.875,423.0 629.0,426.875 616.25,434.5 585.875,454.0 570.625,463.375"/>
    <polyline points="567.25,465.375 550.125,474.5 538.75,479.25 532.875,481.25 524.25,483.375 515.375,484.25"/>
    <polyline points="514.0,484.25 508.75,483.875 500.25,481.875 491.875,478.375 483.125,473.375"/>
    <polyline points="481.75,472.5 452.375,453.0 443.5,447.75 435.75,443.75"/>
    <polyline points="433.0,442.375 420.5,437.375 413.25,435.125 405.25,433.375 396.5,432.0 386.75,431.375 381.5,431.5 376.0,431.875 364.375,433.75 352.0,437.375 345.75,440.125 339.5,443.5 333.375,447.5 327.5,452.25 322.125,457.75 317.5,464.125 313.75,471.125"/>
    <polyline points="311.0,478.75 309.625,487.0 309.75,495.75 311.375,504.625 314.5,513.5 319.125,522.125 325.0,530.375 332.125,538.125 340.0,545.125 348.5,551.375 357.375,556.875 366.25,561.375 375.125,565.25 383.75,568.25 392.0,570.625 399.875,572.375 407.25,573.625 414.25,574.375 420.75,574.875 426.75,574.875 437.5,574.25 442.375,573.625 455.125,571.125"/>
    <polyline points="458.875,570.125 468.75,567.0 486.625,560.25 496.75,556.75 507.0,554.25 513.125,553.625"/>
    <polyline points="514.625,553.5 523.125,554.0 531.375,556.0 534.25,556.875 541.5,559.875 551.0,564.5"/>
    <polyline points="552.75,565.375 562.0,570.125 573.0,575.25 583.5,579.25 592.875,582.0 600.0,583.375 612.5,584.5 622.375,584.25 627.875,583.625"/>
    <polyline points="633.75,582.625 640.125,581.25 647.0,579.25 654.5,576.625 662.625,573.125 671.375,568.875 680.875,563.375 691.125,556.625 702.25,548.5 714.0,538.625 726.25,526.75 739.125,512.875 751.875,497.0 764.25,479.0 775.625,459.125 785.0,438.0 791.75,416.5 794.75,395.75 793.75,376.75 788.25,360.75 778.625,348.75 765.5,341.0 749.875,337.625 733.0,337.875 715.75,341.125 698.875,346.5"/>
    <polyline points="683.125,353.375 668.625,360.875 655.5,368.625 643.875,376.25 624.625,390.25 588.625,419.0 574.125,429.5 568.25,433.0 560.5,436.75 553.5,439.125 549.125,440.0"/>
    <polyline points="547.0,440.375 539.125,440.625 533.625,440.0 526.625,438.125 523.375,436.75 518.75,434.125 514.5,431.0 511.875,428.5 507.375,422.75"/>
    <polyline points="506.375,421.125 503.875,415.875 502.875,412.0 502.25,407.875 502.375,403.375 503.375,398.75 505.5,393.75 509.0,388.75 511.5,386.125 517.75,381.125 521.875,378.625 526.625,376.25 532.125,374.0 538.5,371.875 545.75,370.125 553.75,368.625 562.75,367.625"/>
    <polyline points="572.625,367.25 583.25,367.375 594.5,368.375 606.25,370.125 618.125,372.875 629.75,376.625 640.875,381.125 650.875,386.625 659.625,392.75 666.75,399.375 671.875,406.375 675.25,413.375 676.875,420.25 676.75,426.875 675.125,433.0 672.375,438.625 668.75,443.75 664.5,448.375 659.875,452.5 654.875,456.125 649.875,459.5 644.875,462.375 635.125,467.625 626.125,472.0"/>
    <polyline points="622.0,474.0 607.5,481.375 601.5,484.75 593.875,489.5 589.625,492.625 582.75,498.5 577.75,504.0 575.125,508.0 573.375,511.75"/>
    <polyline points="573.0,513.0 572.375,515.375 572.125,520.0 572.75,523.25 574.5,527.5 576.625,530.625 579.5,533.625 583.0,536.375 587.25,539.0"/>
    <polyline points="588.875,539.75 592.5,541.25 598.625,543.125 603.375,544.0 608.625,544.5 614.5,544.625 621.0,544.125 632.25,541.875 640.75,539.125 650.125,535.0 655.125,532.375 665.75,525.75 671.375,521.75 677.125,517.125"/>
    <polyline points="682.875,512.0 688.75,506.25 694.5,499.875 700.125,493.0 705.375,485.625 710.25,477.75 714.625,469.625 718.25,461.375 720.875,453.0 722.625,444.875 723.125,437.125 722.375,430.125 720.5,423.75 717.375,418.5 713.0,414.375 707.75,411.25 701.625,409.375 694.75,408.625 687.5,408.75 680.0,409.875 672.25,411.75 664.625,414.125 657.0,417.0 649.625,420.25 635.625,427.375"/>
    <polyline points="629.125,431.0 606.125,444.875 576.375,464.125 566.5,470.125 550.625,479.0 540.125,484.0"/>
    <polyline points="538.25,484.75 533.125,486.875 527.125,488.875 520.5,490.375 514.875,491.0 510.75,491.0 506.875,490.5"/>
    <polyline points="505.875,490.25 502.25,489.375 496.75,487.25 489.375,483.125 482.125,478.25"/>
    <polyline points="481.125,477.5 457.75,460.875 448.25,454.875 441.625,451.25"/>
    <polyline points="439.375,450.0 426.0,444.0 416.375,440.875 409.25,439.125 405.5,438.375 397.25,437.375 388.375,437.0 383.5,437.25 373.5,438.5 368.25,439.625 357.375,443.0 351.875,445.5 346.5,448.5 341.25,452.0 336.25,456.125"/>
    <polyline points="331.75,460.875 327.75,466.25 324.5,472.25 322.125,478.75 320.75,485.625 320.5,492.875 321.5,500.375 323.75,507.875 327.125,515.375 331.625,522.5 337.125,529.375 343.5,535.625 350.5,541.375 357.875,546.5 365.5,550.875 373.25,554.625 381.0,557.75 388.5,560.25 395.75,562.25 402.75,563.75 409.375,564.75 415.625,565.375 427.125,565.75 437.125,565.125"/>
    <polyline points="441.75,564.5 450.125,563.125 460.875,560.375 472.75,556.5 494.25,548.5 503.875,545.75"/>
    <polyline points="505.25,545.5 513.375,544.375 520.625,544.625 526.375,545.75 532.25,547.625 535.875,549.125"/>
    <polyline points="537.125,549.75 544.875,553.5 562.125,562.875 570.125,566.75 579.5,570.5"/>
    <polyline points="582.125,571.5 587.625,573.25 593.875,574.75 604.5,576.375 612.75,576.75 622.25,576.25 633.0,574.625 639.0,573.125 645.5,571.25 659.875,565.5 668.0,561.375 676.625,556.5 685.875,550.375 695.75,543.125 706.25,534.375 717.125,524.125 728.25,512.25 739.5,498.625"/>
    <polyline points="750.375,483.375 760.5,466.625 769.125,448.75 775.75,430.5 779.625,412.375 780.25,395.375 777.5,380.375 771.125,368.125 761.625,359.25 749.625,353.875 735.75,351.875 721.0,352.625 706.0,355.75 691.25,360.625 677.375,366.5 664.375,373.0 652.5,379.75 641.75,386.5 623.375,399.0 596.5,418.875 586.375,426.0"/>
    <polyline points="582.0,429.125 574.0,434.25 563.75,439.875 557.75,442.5 552.25,444.5 547.125,445.875 537.625,447.125 529.0,446.875 523.0,445.75 517.25,443.875"/>
    <polyline points="515.5,443.125 510.0,440.5 504.875,437.25 499.875,433.25 496.75,430.25 492.25,425.25 488.0,419.5 483.25,410.625 481.375,405.625 480.0,400.25"/>
    <polyline points="479.5,397.5 479.25,391.5 480.125,385.125 481.0,381.75 484.375,374.75 486.875,371.125 490.125,367.5 494.25,363.75 499.375,360.0 505.625,356.375 513.125,352.75 522.25,349.375 533.125,346.375 545.75,343.875 560.5,342.125 577.25,341.375 596.0,342.0 616.25,344.25 637.5,348.375 658.75,354.75 679.0,363.125 696.875,373.375 711.625,385.125"/>
    <polyline points="722.125,397.5 728.5,410.0 730.75,421.75 729.625,432.5 726.0,441.75 720.5,449.625 714.0,455.875 707.125,460.875 700.25,464.875 693.625,467.875 681.875,471.875 672.125,474.125 648.125,477.5 640.75,479.125"/>
    <polyline points="639.125,479.625 636.125,480.625 630.75,483.25 625.0,487.125 619.75,492.125 617.375,495.5 616.0,498.75"/>
    <polyline points="615.75,499.625 615.5,502.5 616.25,505.0 617.5,506.625 619.25,507.875 621.625,508.75 624.625,509.125 630.75,508.5"/>
    <polyline points="632.125,508.125 638.125,506.0 643.0,503.375 646.25,501.25 652.75,495.875 657.125,490.875 660.75,485.625 663.125,480.125 663.625,478.375 664.0,475.0"/>
    <polyline points="664.0,473.375 663.25,470.5 662.625,469.375 660.75,467.25 658.125,465.875 656.625,465.5 651.25,465.125 645.0,466.125 638.375,468.375 629.375,472.625 621.0,477.875"/>
    <polyline points="619.125,479.25 615.375,482.0 607.375,489.125 604.75,491.875 600.5,497.375 598.125,501.25 597.0,503.75 595.875,507.25 595.625,511.75"/>
    <polyline points="595.75,512.75 597.0,516.75 598.125,518.5 600.5,520.875 602.5,522.375 604.875,523.625 607.625,524.625 612.5,525.75 616.25,526.0 620.375,526.0 627.5,525.0"/>
    <polyline points="630.125,524.375 635.625,522.75 641.625,520.25 648.0,517.125 654.625,513.0 661.5,507.875 665.0,504.875 671.75,498.25 678.125,490.625 683.75,482.25 686.125,478.0 689.75,469.125 690.875,464.875 691.5,460.625 691.625,456.625 691.25,453.0 690.25,449.625"/>
    <polyline points="688.75,446.75 686.625,444.25 684.125,442.25 681.125,440.625 677.625,439.625 673.875,439.125 669.875,439.0 661.125,440.0 652.0,442.5 642.875,446.0 633.875,450.125 621.375,457.0 610.0,464.125 594.0,475.25"/>
    <polyline points="591.25,477.375 579.375,486.875 567.5,497.875 560.875,505.75 558.0,510.375 556.625,513.75"/>
    <polyline points="556.25,514.75 555.375,518.875 555.375,521.875 556.375,526.625 558.125,530.5 560.0,533.25 565.25,539.0"/>
    <polyline points="566.375,540.0 572.75,544.75 579.125,548.375 585.0,550.875 591.625,553.125 599.625,554.75 608.875,555.625 616.0,555.5 623.875,554.625"/>
    <polyline points="628.25,553.75 637.75,551.375 648.5,547.375 654.25,544.625 660.375,541.5 666.875,537.625 680.625,528.0 687.875,522.0 695.25,515.125 702.75,507.375 710.125,498.75 717.375,489.375 724.125,479.25 730.25,468.375 735.25,457.25 739.25,446.0 741.625,434.875 742.375,424.375 741.25,414.75 738.375,406.5 733.75,399.75 727.375,394.75 719.75,391.375"/>
    <polyline points="711.125,389.875 701.75,389.75 691.875,391.125 682.0,393.5 672.25,396.75 662.625,400.625 653.5,404.875 636.625,413.875 629.0,418.375 578.625,450.5 567.0,457.25 554.0,463.75"/>
    <polyline points="551.125,465.0 543.125,468.125 535.875,470.25 529.25,471.625 523.125,472.375 517.5,472.5 513.875,472.25 508.75,471.5 500.375,469.375"/>
    <polyline points="498.75,468.75 490.625,465.25 482.25,460.625 475.125,456.125 452.25,440.625"/>
    <polyline points="449.75,439.0 438.75,432.375 432.5,429.0 425.625,425.625 418.0,422.375 409.375,419.375 399.625,416.75 394.375,415.625 382.5,414.125 376.0,413.75 369.125,413.75 361.625,414.25 353.75,415.375 345.375,417.0 336.625,419.5 327.5,422.875 318.25,427.25"/>
    <polyline points="309.0,432.75 300.125,439.75 291.875,448.0 284.75,457.75 279.25,468.75 275.75,481.125 274.875,494.25 276.875,508.125 281.625,521.875 289.25,535.375 299.125,548.125 310.75,559.625 323.5,569.625 336.75,578.25 350.0,585.5 362.875,591.25 375.0,595.625 386.25,599.0 396.5,601.5 405.75,603.125 414.0,604.125 428.125,604.5 434.125,604.125 444.375,602.625"/>
    <polyline points="448.75,601.625 456.5,599.25 463.0,596.625 474.0,591.25 485.125,585.25 494.875,580.875 502.125,578.5 507.25,577.5"/>
    <polyline points="508.875,577.25 517.125,577.0 522.0,577.625 526.875,578.75 530.125,579.75 538.375,583.125 551.0,590.125"/>
  </g>
</svg>
