<?xml version="1.0" encoding="utf-8" ?>
<svg xmlns="http://www.w3.org/2000/svg" xmlns:cc="http://creativecommons.org/ns" xmlns:dc="http://purl.org/dc/elements/1.1/" xmlns:ev="http://www.w3.org/2001/xml-events" xmlns:inkscape="http://www.inkscape.org/namespaces/inkscape" xmlns:rdf="http://www.w3.org/1999/02/22-rdf-syntax-ns" xmlns:sodipodi="http://sodipodi.sourceforge.net/DTD/sodipodi-0.dtd" xmlns:xlink="http://www.w3.org/1999/xlink" baseProfile="tiny" height="27.09333333cm" version="1.2" viewBox="0 0 1024.0 1024.0" width="27.09333333cm">
  <metadata>
    <rdf:RDF>
      <cc:Work>
        <dc:format>image/svg+xml</dc:format>
        <dc:source>vpype read './original_svgs/Strange Attractors #104.svg' linemerge linesimplify write './Strange Attractors #104.svg'
</dc:source>
        <dc:date>2024-08-05T01:35:26.234202</dc:date>
      </cc:Work>
    </rdf:RDF>
  </metadata>
  <defs/>
  <g fill="none" id="layer1" inkscape:groupmode="layer" inkscape:label="1" stroke="black" stroke-width="0.7mm" style="display:inline">
    <polyline points="452.5,865.875 433.25,817.625 419.0,769.0 409.0,723.375 402.0,682.125 397.375,646.125 394.5,615.375 392.75,589.375 392.0,567.75 392.125,549.75 392.75,535.0 394.125,523.0 395.875,513.125 398.375,505.375 401.25,499.25 404.75,494.5 408.625,491.125 412.875,489.0 417.625,487.75 422.5,487.5 427.625,488.125 432.875,489.375 438.125,491.25 443.25,493.5 453.0,499.25"/>
    <polyline points="457.625,502.375 469.375,511.875 486.5,528.0 489.5,530.375 491.75,531.875 493.5,532.625 495.0,532.875 496.5,532.375 498.0,530.75"/>
    <polyline points="498.25,530.25 499.25,527.0 499.375,522.875 498.75,520.5 497.75,518.875"/>
    <polyline points="497.5,518.625 496.25,517.375 494.875,516.625 491.0,515.5 487.0,515.0"/>
    <polyline points="486.375,515.0 480.5,514.625 462.375,514.25"/>
    <polyline points="461.0,514.25 448.625,513.75 435.25,512.75 421.375,511.125 410.875,509.25"/>
    <polyline points="408.125,508.625 402.25,507.25 389.875,503.375 383.375,500.75 373.5,495.5 367.125,491.0 364.125,488.25 358.875,482.25 356.625,478.75 355.0,475.0 354.0,471.0 353.75,466.875 354.5,462.625 356.375,458.375 359.5,454.375 364.25,451.0 370.375,448.25"/>
    <polyline points="378.25,446.625 387.5,446.375 398.125,447.625 409.75,450.625 422.0,455.375 434.375,461.875 446.625,469.625 458.125,478.375 468.75,487.75 478.375,497.5 486.875,507.0 494.375,516.125 506.125,532.375 524.875,561.125 528.125,565.0 529.625,566.125 530.875,566.875 533.25,567.25"/>
    <polyline points="534.25,567.0 536.375,566.0 538.5,564.25 546.25,556.75 554.0,550.125 558.375,547.125 566.5,542.75"/>
    <polyline points="568.25,541.875 577.75,538.125 588.375,534.875 611.5,529.125 630.375,524.875"/>
    <polyline points="633.75,524.0 648.375,520.0 660.5,515.875 673.625,510.125 682.875,505.0 692.75,498.125 697.875,493.875 703.125,488.875 708.375,483.0 713.875,476.125 719.375,468.0 724.875,458.25 730.375,446.625 735.75,432.625 740.875,416.0 745.625,396.0 749.5,372.25"/>
    <polyline points="752.125,344.0 752.75,311.125 750.625,273.75 744.5,232.625 733.125,190.0 715.25,149.625 690.375,116.875 658.875,97.5 622.75,95.875 585.0,113.375 549.125,147.25 517.625,192.125 491.75,241.75 471.75,291.25 457.0,337.125 446.875,377.625 440.375,412.25 436.75,441.125 435.625,464.75 436.25,483.875 438.5,499.125 441.875,511.0 446.125,520.0 451.25,526.625 456.75,531.125 462.625,534.0"/>
    <polyline points="468.75,535.25 474.75,535.375 480.625,534.375 486.375,532.625 491.625,530.125 496.5,527.25 501.0,524.0 508.625,517.125 514.375,510.5 520.25,501.875 523.5,495.75 526.125,489.375 525.625,495.375 526.0,498.25 526.75,500.125"/>
    <polyline points="526.875,500.5 528.75,502.75 530.375,503.75 533.75,504.75 535.875,504.875"/>
    <polyline points="536.375,505.0 544.5,504.625 556.75,502.375"/>
    <polyline points="557.875,502.125 565.375,500.125 575.375,496.625 587.125,491.25 596.625,485.625"/>
    <polyline points="598.625,484.25 604.75,479.5 609.0,475.75 615.5,469.0 624.125,457.25 630.25,446.0 635.625,432.125 638.5,421.125 639.625,415.25 641.125,402.375 641.125,388.5"/>
    <polyline points="640.5,381.375 639.5,374.25 637.875,367.125 635.625,360.375 632.875,353.875 629.5,348.0 625.5,343.0 620.875,338.875 615.75,335.875 610.125,334.125 604.125,333.625 597.875,334.625 591.375,337.0 584.875,340.75 578.375,345.625 572.125,351.625 566.0,358.5 560.25,365.875 554.875,373.875 545.25,390.375 537.375,406.625 530.875,421.875 528.25,428.875"/>
    <polyline points="525.75,435.5 520.0,452.5 508.125,491.5 505.5,497.875 503.625,501.375"/>
    <polyline points="503.25,502.125 500.5,505.75 497.125,508.5 492.75,510.625 490.25,511.375"/>
    <polyline points="489.625,511.625 480.375,513.25 466.75,514.125 480.625,513.0 484.0,512.5 489.75,511.0"/>
    <polyline points="419.25,511.75 431.25,513.125 439.75,513.75 454.125,514.25 465.625,514.125 457.125,514.25 443.5,513.875 431.0,513.0 419.0,511.625"/>
    <polyline points="416.375,511.25 399.0,507.75 392.625,506.0 386.0,503.75 379.125,501.0 372.125,497.5 365.125,493.0 361.875,490.5 358.625,487.625 355.625,484.375 353.0,480.875 350.75,477.0 349.125,472.75 348.125,468.25 348.125,463.625 349.125,458.75"/>
    <polyline points="351.625,454.125 355.625,449.75 361.375,446.0 368.875,443.25 378.25,441.875 389.375,442.125 401.75,444.375 415.125,448.75 428.875,455.0 442.625,463.125 455.625,472.625 467.875,483.0 478.75,493.75 488.375,504.625 496.75,515.0 503.875,524.75 514.875,541.625 527.75,563.75 531.625,569.625 534.625,572.875"/>
    <polyline points="535.875,573.75 538.125,574.375 539.25,574.25 541.25,573.25 543.375,571.625 552.5,562.625 556.5,559.25 562.5,555.25 567.375,552.5"/>
    <polyline points="569.125,551.625 576.5,548.625 580.5,547.375 586.875,545.625 593.75,544.25 606.625,542.5 612.125,542.125 621.125,541.75 630.75,541.875"/>
    <polyline points="634.125,542.0 637.5,542.125 652.25,543.875 660.125,545.5 668.375,547.75 677.0,551.0 681.375,553.0 690.375,558.375 694.875,562.0 699.5,566.125 704.125,571.125 708.625,577.25 713.0,584.5 717.25,593.375 721.25,604.125 724.875,617.125 727.75,633.0 729.75,652.375 730.375,675.875"/>
    <polyline points="729.125,704.25 725.125,738.25 717.5,778.0 704.875,823.25 686.0,872.25 659.75,921.0 625.75,963.375 585.5,991.75 541.875,999.0 499.25,982.25 461.625,944.125 431.125,891.25 408.5,831.75 392.75,772.375 382.375,717.5 376.0,669.25 372.75,628.125 371.625,593.875 372.375,565.75 374.625,543.0 378.125,524.75 383.0,510.625 389.125,499.875 396.25,492.25 404.375,487.375 413.125,485.0"/>
    <polyline points="422.5,484.75 432.0,486.375 441.375,489.5 450.5,493.875 459.125,499.25 467.125,505.0 474.375,511.125 480.875,517.25 491.75,528.75 506.0,545.75 512.5,552.875 515.625,555.25 518.125,556.125 520.375,556.0 523.25,554.5"/>
    <polyline points="524.125,553.625 537.0,539.375 540.125,536.5 544.625,533.0 549.5,529.875"/>
    <polyline points="550.75,529.125 556.125,526.125 562.125,523.375 587.875,513.25 594.5,510.375"/>
    <polyline points="596.875,509.375 604.25,506.0 612.25,501.875 623.625,494.75 632.75,487.5 642.375,478.125 648.875,470.125 655.375,460.25 658.625,454.5 665.0,441.0 670.625,424.25"/>
    <polyline points="673.0,414.625 675.125,403.875 676.75,392.125 677.75,379.375 678.0,365.625 677.375,351.0 675.5,335.875 672.375,320.375 667.875,305.25 661.5,290.875 653.625,278.25 643.875,268.0 632.625,261.125 620.0,258.0 606.625,259.25 592.625,264.75 578.875,274.25 565.5,287.125 553.125,302.5 541.75,319.625 531.75,337.5 522.875,355.5 515.375,372.875 509.125,389.375 503.75,404.75 499.375,418.75"/>
    <polyline points="495.75,431.375 490.25,452.375 488.25,461.125 481.0,496.625 479.375,503.375 477.75,507.75 476.0,510.5 473.375,512.75 471.75,513.5"/>
    <polyline points="471.0,513.875 465.25,515.5 456.875,516.75 444.625,517.75 437.25,518.0"/>
    <polyline points="435.25,518.125 409.125,518.125 390.75,517.0 376.375,515.25 368.5,514.0 360.0,512.25"/>
    <polyline points="355.5,511.125 341.125,506.5 330.875,502.0 320.25,495.625 314.75,491.5 309.5,486.75 304.375,481.0 299.625,474.375 295.625,466.625 292.75,457.5 291.625,447.375 292.875,436.125 297.5,424.375 306.625,412.875 321.0,403.0 341.125,396.625 366.625,395.5 396.0,401.0 427.25,413.625 457.625,432.625 485.25,456.125 508.75,481.875"/>
    <polyline points="527.625,508.25 542.25,533.375 553.25,556.625 561.0,577.375 566.5,595.625 570.0,611.375 572.0,624.75 572.875,636.0 572.875,645.375 572.125,653.0 570.875,659.125 569.125,663.875 567.125,667.375 564.875,669.75 562.5,671.0 560.0,671.375 557.375,670.875 554.875,669.5 552.375,667.625 547.875,662.0 545.75,658.375 542.125,650.375 539.125,641.625"/>
    <polyline points="538.0,637.0 536.125,627.875 534.625,614.5 534.375,606.25 534.625,598.625 535.25,591.625 536.75,582.375 538.875,574.5 540.625,569.875 543.625,563.75 546.875,558.625"/>
    <polyline points="548.125,557.0 551.875,552.875 556.125,549.125 560.625,546.0 565.5,543.125 570.75,540.625 580.5,536.875 591.625,533.625"/>
    <polyline points="594.0,533.0 628.25,524.75 646.125,519.875 662.125,514.125 670.875,510.25 680.0,505.125"/>
    <polyline points="684.75,502.0 694.75,494.375 699.875,489.625 705.125,484.0 710.375,477.375 715.875,469.625 721.25,460.375 726.75,449.375 732.125,436.25 737.25,420.5 741.875,401.75 746.0,379.375 748.875,353.0 750.125,322.125 748.875,286.875 744.125,247.75 734.75,206.5 719.375,166.125 697.25,131.5 668.5,107.875 634.625,100.25 598.125,111.0 562.25,138.75 529.875,179.0 502.5,226.125"/>
    <polyline points="480.75,274.75 464.375,321.0 452.625,362.625 444.75,398.75 440.125,429.25 437.875,454.5 437.5,475.0 438.875,491.5 441.375,504.5 445.0,514.625 449.375,522.25 454.25,527.625 459.625,531.25 465.125,533.375 470.75,534.25 476.375,534.0 481.75,532.875 487.0,531.0 491.75,528.625 496.25,525.875 503.875,519.75 509.875,513.5 514.375,507.75"/>
    <polyline points="516.125,505.25 520.625,497.25 522.875,491.75 522.0,496.0"/>
    <polyline points="521.875,496.5 521.75,500.125 522.0,502.0 522.5,503.625 523.625,505.25"/>
    <polyline points="523.875,505.375 524.75,506.125 527.0,507.0 529.625,507.375 532.375,507.375"/>
    <polyline points="532.875,507.375 541.5,506.625 551.0,504.875"/>
    <polyline points="552.0,504.625 566.25,500.875 573.5,498.375 579.875,495.75 586.875,492.375"/>
    <polyline points="588.625,491.375 596.375,486.875 604.625,480.875 611.125,475.0 615.5,470.5 622.125,462.125 626.5,455.5 628.625,451.75 632.625,443.375 634.5,438.75 638.0,428.5 639.375,422.75"/>
    <polyline points="640.625,416.75 642.375,403.75 642.75,396.75 642.25,382.25 641.25,374.75 639.75,367.375 637.625,360.25 634.875,353.375 631.625,347.125 627.625,341.625 623.0,337.125 617.75,333.625 612.0,331.5 605.875,330.75 599.375,331.5 592.75,333.75 586.0,337.375 579.25,342.25 572.75,348.375 566.375,355.25 560.375,363.0 554.75,371.25 544.75,388.25"/>
    <polyline points="540.5,396.875 533.0,413.25 524.625,435.0 515.75,462.125 508.5,486.625 506.625,492.125 504.375,497.375"/>
    <polyline points="503.875,498.5 501.5,502.75 498.5,506.25 494.75,509.0 490.5,510.875"/>
    <polyline points="416.625,511.375 402.25,508.75 396.0,507.25 386.125,504.125 379.25,501.375 372.125,498.0 365.125,493.625 361.75,491.125 355.375,485.0 352.625,481.5 350.25,477.625 348.375,473.5 347.25,469.0 347.0,464.25 347.875,459.375"/>
    <polyline points="350.0,454.5 353.75,450.0 359.25,446.0 366.5,442.875 375.75,441.25 386.75,441.125 399.125,443.0 412.625,447.125 426.625,453.25 440.625,461.125 454.0,470.625 466.5,481.125 477.875,492.125 487.875,503.125 496.5,513.875 503.875,524.0 510.0,533.125 519.5,548.625 530.5,567.75 533.875,572.5 535.375,574.0"/>
    <polyline points="536.625,575.0 538.875,575.75 541.0,575.25 542.0,574.625 545.125,572.0 551.875,565.25 555.875,561.75 563.125,556.625 568.125,553.875"/>
    <polyline points="569.75,553.125 573.375,551.5 581.25,548.875 587.625,547.25 597.0,545.625 613.0,544.375 622.0,544.375 631.625,544.875"/>
    <polyline points="635.0,545.25 642.0,546.25 649.25,547.75 660.875,551.25 664.875,552.75 673.0,556.875 677.25,559.5 681.5,562.625 685.75,566.25 690.0,570.625 694.25,575.75 698.5,581.875 702.5,589.25 706.375,598.0 710.0,608.5 713.125,621.125 715.625,636.25 717.25,654.375 717.625,676.25 716.25,702.125 712.625,732.625"/>
    <polyline points="705.625,767.875 694.625,807.375 678.375,849.625 656.0,892.0 627.5,929.5 593.5,956.625 556.125,967.75 518.5,959.625 483.75,933.0 454.25,891.75 431.125,842.25 414.0,790.0 402.125,739.625 394.25,693.75 389.375,653.375 386.75,619.0 385.75,590.125 386.125,566.25 387.75,546.75 390.25,531.0 393.625,518.625 397.875,508.875 402.75,501.625 408.375,496.5 414.375,493.25 420.875,491.625"/>
    <polyline points="427.625,491.5 434.5,492.5 441.25,494.5 447.875,497.375 454.25,500.75 465.75,508.5 470.75,512.625 479.625,520.375 494.375,535.125 499.75,539.75 502.5,541.375 504.625,542.0 506.375,541.875 508.0,541.25"/>
    <polyline points="508.625,540.875 510.625,539.0 511.75,537.5 518.5,527.125 521.375,523.625"/>
    <polyline points="521.875,523.0 524.25,520.625 529.125,517.125 536.375,513.875"/>
    <line x1="537.125" x2="562.125" y1="513.5" y2="505.625"/>
    <polyline points="563.5,505.125 577.125,500.25 589.875,494.375 602.25,486.75 608.875,481.625"/>
    <polyline points="611.125,479.625 618.25,472.75 622.875,467.25 627.625,460.75 632.25,453.125 636.625,444.25 640.625,433.875 642.5,428.125 645.375,415.25 646.5,408.25 647.25,400.875 647.625,393.125 647.625,385.0 647.0,376.75 645.875,368.375 644.125,360.0 641.75,351.875 638.5,344.25"/>
    <polyline points="634.5,337.25 629.875,331.25 624.375,326.375 618.375,322.875 611.625,321.125 604.5,320.875 597.125,322.5 589.5,325.875 581.875,330.875 574.5,337.25 567.25,344.75 560.375,353.375 554.0,362.5 548.125,372.0 542.75,381.75 537.875,391.375 533.5,400.75 526.25,418.5 518.125,441.125 511.125,463.625"/>
    <polyline points="509.875,468.0 505.875,481.875 503.5,489.125 500.875,495.875 498.5,500.625 496.125,504.0 492.375,507.375"/>
    <polyline points="491.75,507.875 487.5,510.125 481.0,512.125 476.25,513.0 469.625,513.75"/>
    <polyline points="468.375,513.75 460.5,514.25 447.625,514.375 431.625,513.625 424.625,513.0"/>
    <polyline points="422.125,512.75 408.5,510.875 393.0,507.5 379.125,502.875 368.25,497.75 360.875,493.125 357.375,490.375 350.875,483.875 348.0,480.0 345.625,475.75 343.875,471.25"/>
    <polyline points="342.875,466.25 342.875,461.125 344.25,455.75 347.0,450.625 351.625,445.75 358.25,441.75 367.0,438.875 377.75,437.625 390.375,438.375 404.375,441.375 419.25,446.875 434.375,454.625 449.25,464.125 463.125,475.125 475.75,486.875 486.875,499.0 496.625,510.75 504.75,522.0 511.625,532.25 517.375,541.5 535.625,574.875"/>
    <polyline points="537.25,577.25 538.625,579.0 541.0,581.0 542.0,581.375 543.125,581.375 545.0,580.625 548.0,578.125 557.125,569.0 561.25,565.625 567.375,561.75"/>
    <polyline points="569.0,560.875 576.125,557.875 581.875,556.125 590.375,554.5 595.0,554.0 604.875,553.75 612.875,554.25 621.5,555.625 627.625,557.25"/>
    <polyline points="630.75,558.125 640.5,562.25 643.75,564.0 650.625,568.5 657.5,574.5 664.375,582.5 667.75,587.5 671.0,593.25 674.125,600.0 677.0,607.75 679.625,616.75 681.875,627.25 683.625,639.25 684.625,653.375 684.75,669.5 683.75,688.0 681.25,709.0 676.875,732.375 670.125,758.0 660.625,785.125 648.0,812.625"/>
    <polyline points="631.875,838.875 612.5,861.5 590.25,877.875 566.125,885.75 541.375,883.625 517.625,871.25 496.0,849.75 477.375,821.375 462.125,788.875 450.125,754.875 441.0,721.375 434.375,689.75 429.75,661.0 426.5,635.375 424.5,613.0 423.25,593.625 422.75,577.25 422.75,563.375 423.125,551.75 423.875,542.0 424.75,534.0 425.875,527.375 428.625,517.625 430.125,514.25 431.75,511.5"/>
    <polyline points="433.5,509.5 435.125,507.875 438.625,506.125 442.125,505.625 445.5,505.875 448.625,506.75 452.75,508.5 458.625,512.125 461.875,514.875 460.125,514.625 456.75,513.5 447.25,511.125"/>
    <polyline points="446.125,510.75 425.5,505.25 413.25,500.5 406.375,496.875"/>
    <polyline points="404.75,495.75 401.75,493.5 399.25,491.0 396.625,487.125 396.125,485.75 396.0,483.0 397.25,480.625 399.75,478.625 401.625,478.0 403.875,477.5 409.5,477.375 416.5,478.625 420.375,479.75 428.75,483.0 437.375,487.5"/>
    <polyline points="441.625,490.125 449.75,495.75 457.25,501.625 469.375,512.375 483.0,525.25 486.75,527.5 488.0,527.5 488.375,527.25"/>
    <polyline points="488.625,527.125 489.0,526.125 489.0,525.0 488.125,522.5 485.75,519.875 482.625,518.125"/>
    <polyline points="482.0,517.875 478.625,516.75 474.5,515.875 457.125,514.0"/>
    <polyline points="455.625,514.0 438.5,512.375 427.875,511.0 415.875,508.875 402.25,505.375"/>
    <polyline points="399.25,504.5 393.375,502.375 387.375,499.75 378.25,494.75 372.625,490.5 367.5,485.375 365.375,482.5 363.625,479.375 362.25,476.0 361.5,472.5 361.5,469.0 362.25,465.375 364.125,461.875 367.0,458.625 371.0,455.875 376.375,453.75 383.125,452.375 391.0,452.25 400.0,453.25 409.875,455.75"/>
    <polyline points="420.25,459.5 430.875,464.625 441.5,471.0 451.625,478.125 461.25,485.875 470.125,494.0 478.125,502.125 485.125,510.125 496.75,524.5 511.625,545.375 518.125,553.875 521.375,556.875 524.0,558.25 526.25,558.375 529.375,557.0"/>
    <polyline points="530.25,556.375 540.5,546.25 546.375,541.125 555.75,534.875 560.25,532.5"/>
    <polyline points="561.875,531.75 574.0,526.5 603.0,516.0 616.875,510.125"/>
    <polyline points="619.875,508.75 629.25,503.875 635.875,499.75 646.375,492.0 653.75,485.375 661.25,477.0 669.0,466.5 672.875,460.25 676.75,453.125 680.5,445.0 684.125,435.875 687.5,425.625 690.625,413.875 693.25,400.75 695.5,386.0 696.75,369.625 697.125,351.625 696.25,332.25"/>
    <polyline points="693.625,311.625 689.125,290.625 682.25,269.875 672.875,250.875 660.75,234.75 646.125,223.125 629.375,217.375 611.25,218.25 592.375,226.0 573.75,239.875 556.125,258.75 540.125,281.125 526.0,305.25 514.0,329.875 504.0,353.875 495.875,376.375 489.375,397.0 484.25,415.375 480.25,431.75 477.25,445.875 473.25,468.375 471.375,484.625 470.625,496.0"/>
    <polyline points="470.5,500.25 470.5,506.625 471.625,517.0 470.75,517.5 466.0,517.625"/>
    <polyline points="465.25,517.625 440.125,519.5 430.75,519.875"/>
    <polyline points="428.75,520.0 412.5,520.5 389.5,520.375 364.125,519.0 351.25,517.5"/>
    <polyline points="346.625,516.875 337.0,515.125 331.875,513.875 321.125,510.875 315.5,508.875 309.5,506.5 303.375,503.625 297.125,500.125 290.75,495.875 284.125,490.625 277.75,484.25 271.5,476.5 265.875,467.0 261.375,455.625 258.875,442.0 259.5,426.5 265.0,409.375 277.25,392.125 298.0,377.125 328.25,367.875 367.0,368.125 410.75,380.25 454.875,403.875 494.625,436.375"/>
    <polyline points="527.5,473.5 552.625,511.625 570.625,548.125 582.75,581.625 590.375,611.625 594.375,638.0 595.5,661.0 594.375,680.875 591.5,697.75 587.125,711.875 581.5,723.125 574.875,731.625 567.625,737.25 560.0,740.0 552.125,740.0 544.25,737.5 536.625,732.5 529.5,725.375 523.0,716.625 517.0,706.625 511.875,695.625 507.25,684.125 503.5,672.375 500.25,660.75 497.625,649.375 495.5,638.5"/>
    <polyline points="493.875,628.125 490.875,601.125 489.875,580.25 489.75,564.625 490.75,536.125 490.375,528.25"/>
    <polyline points="490.25,527.25 489.25,523.375 487.125,520.25 483.5,517.875 478.625,516.375"/>
    <polyline points="477.875,516.25 469.375,515.0 447.0,513.25"/>
    <polyline points="445.25,513.125 429.125,511.375 417.125,509.375 406.5,507.0 394.75,503.375 388.625,500.875 382.5,497.875"/>
    <polyline points="379.375,496.125 373.375,492.125 370.625,489.75 365.5,484.5 363.375,481.375 361.75,478.125 360.5,474.75 359.875,471.125 360.0,467.375 361.125,463.625 363.25,460.125 366.625,456.875 371.25,454.125 377.125,452.125 384.5,451.0 393.0,451.25 402.625,452.75 413.0,455.75 423.875,460.25 435.0,466.0 445.75,472.875 456.0,480.625 465.625,488.75 474.375,497.25"/>
    <polyline points="482.125,505.625 495.0,521.125 516.625,551.625 518.625,554.25 522.125,557.875 523.5,559.0 526.0,560.125 527.125,560.25 529.375,559.625 532.375,557.625 537.5,552.625"/>
    <polyline points="538.5,551.625 545.375,545.125 549.125,542.125 554.5,538.5 562.125,534.25 574.375,529.0"/>
    <polyline points="576.375,528.25 603.75,518.75 617.875,513.375 627.25,509.125 633.875,505.75 644.375,499.25"/>
    <polyline points="648.0,496.625 655.625,490.5 663.5,482.75 671.625,472.875 675.625,467.0 679.75,460.25 683.875,452.625 687.875,443.875 691.625,434.0 695.25,422.625 698.5,409.75 701.375,395.0 703.5,378.5 704.625,360.0 704.625,339.625 703.0,317.5 699.5,294.375 693.375,270.75 684.625,248.125 672.75,228.0 657.75,212.25 640.0,202.75 620.125,200.625"/>
    <polyline points="599.25,206.5 578.25,220.125 558.25,240.0 540.125,264.375 524.25,291.375 510.75,318.875 499.625,345.875 490.625,371.0 483.625,394.0 478.25,414.375 474.25,432.25 471.25,447.625 469.125,460.75 467.75,471.75 466.375,488.75 466.5,500.375 467.25,508.125 469.125,514.75 470.875,517.625"/>
    <polyline points="471.5,518.125 472.75,518.75 473.625,518.25 473.0,517.5 472.0,517.125 469.875,516.875 465.125,517.0"/>
    <polyline points="464.125,517.125 439.375,518.875 425.25,519.375"/>
    <polyline points="423.0,519.375 413.125,519.5 392.875,519.0 382.75,518.375 371.625,517.25 363.5,516.25 350.25,513.875 335.5,510.0"/>
    <polyline points="330.25,508.125 324.875,506.0 313.5,500.375 307.625,496.625 301.625,492.25 295.75,487.0 290.125,480.625 284.75,473.0 280.25,463.875 277.125,453.25 276.0,441.125 278.0,427.5 284.375,413.125 296.625,399.375 315.875,388.125 342.5,382.125 375.375,383.75 412.125,394.5 449.125,414.125 483.125,440.625 512.125,471.25 535.125,503.0 552.5,533.75 565.125,562.125 573.75,587.75"/>
    <polyline points="579.125,610.25 582.25,629.875 583.375,646.625 583.0,660.875 581.5,672.875 579.0,682.75 575.75,690.5 572.0,696.5 567.75,700.625 563.125,703.0 558.375,703.75 553.625,703.0 548.875,700.75 544.25,697.25 539.875,692.625 535.875,687.125 532.125,680.875 528.75,674.0 525.75,666.875 523.125,659.375 520.875,651.75 518.875,644.25 516.0,629.5 514.125,615.875"/>
    <polyline points="513.625,609.625 512.875,597.875 512.75,587.75 514.0,567.625 515.375,558.625 517.5,549.375 519.25,543.875 523.0,535.625"/>
    <polyline points="523.625,534.5 526.25,530.5 531.25,525.125 536.875,521.0 543.25,517.625"/>
    <polyline points="544.25,517.125 551.75,514.0 567.75,508.25 577.625,504.375"/>
    <polyline points="579.375,503.625 587.0,500.375 597.375,495.0 606.375,489.25 613.625,483.625 618.625,479.125 626.25,471.0 631.5,464.25 636.5,456.375"/>
    <polyline points="639.0,451.875 641.5,447.0 646.0,435.875 648.125,429.625 650.0,422.875 653.0,407.75 654.5,390.625 654.5,381.375 654.0,371.875 652.875,362.125 650.875,352.375 648.125,342.75 644.375,333.75 639.875,325.375 634.25,318.25 627.875,312.625 620.625,308.75 612.75,306.875 604.25,307.25 595.5,309.75 586.625,314.5 577.875,321.125 569.25,329.375"/>
    <polyline points="561.25,338.875 553.625,349.375 546.625,360.5 540.375,371.875 534.625,383.125 529.625,394.125 521.375,414.75 515.0,432.75 506.5,460.25 499.5,484.875 497.125,492.25 495.0,497.5"/>
    <polyline points="494.25,498.875 491.625,503.375 489.5,505.75 487.25,507.625 485.0,509.125 480.75,511.0 473.75,512.75"/>
    <polyline points="472.75,513.0 462.875,514.25 452.375,514.75 433.125,514.5"/>
    <polyline points="430.875,514.375 418.75,513.5 404.5,511.625 398.25,510.5 384.625,507.125 373.5,503.375 365.75,499.875 357.875,495.5 350.25,489.75"/>
    <polyline points="346.5,486.375 343.125,482.5 340.125,478.125 337.625,473.375 335.75,468.0 334.875,462.375 335.375,456.375 337.25,450.25 341.125,444.25 347.25,438.875 355.75,434.625 366.75,431.875 380.125,431.375 395.5,433.5 412.125,438.625 429.375,446.5 446.375,456.75 462.375,469.0 477.0,482.5 489.75,496.375 500.75,510.0 510.0,523.0 517.5,535.0 523.75,545.875 532.625,563.5"/>
    <polyline points="535.875,570.375 543.75,587.375 546.0,591.0 547.875,592.5 548.75,592.625 550.375,592.0 552.0,590.5 558.625,582.625 564.75,577.0"/>
    <polyline points="566.125,576.0 572.0,572.5 577.0,570.5 584.25,568.75 592.25,568.125 598.75,568.625 605.75,570.0 610.625,571.625 615.625,573.75"/>
    <polyline points="618.125,575.125 620.75,576.625 625.875,580.5 628.5,582.75 633.75,588.25 638.75,595.375 641.25,599.625 645.75,609.875 647.75,615.875 649.5,622.75 651.0,630.375 652.125,639.0 652.75,648.625 652.875,659.25 652.25,670.875 650.875,683.75 648.625,697.625 645.125,712.5 640.375,728.0 634.125,743.875 626.375,759.5 616.875,774.25"/>
    <polyline points="606.0,787.25 593.625,797.625 580.125,804.5 566.0,807.25 551.625,805.375 537.625,798.875 524.5,788.0 512.5,773.625 501.875,756.375 492.75,737.375 485.25,717.625 479.0,697.625 474.125,678.375 470.375,660.0 467.375,643.0 465.25,627.375 462.375,600.625 460.75,571.0 460.25,541.75"/>
    <polyline points="460.25,537.875 460.125,529.375 459.625,523.75 459.0,521.0 457.875,518.125 455.625,515.375 453.5,513.875 446.875,511.125"/>
    <polyline points="445.75,510.75 424.75,504.5 418.125,502.0 411.625,498.875 408.5,497.0"/>
    <polyline points="407.0,496.0 405.5,495.0 400.875,490.5 399.0,486.75 398.875,484.375 399.875,482.25 402.125,480.5 403.75,479.875 408.0,479.25 413.625,479.625 416.75,480.25 423.875,482.375 435.375,487.75"/>
    <polyline points="439.25,490.0 446.875,494.875 453.875,500.125 462.875,507.75 480.875,524.125 482.875,525.25 484.5,525.375 484.75,524.0 484.375,523.0 482.5,520.75 479.625,518.75 476.25,517.375"/>
    <polyline points="475.5,517.125 472.125,516.25 464.875,515.0 444.75,512.625"/>
    <polyline points="443.0,512.5 433.25,511.25 422.125,509.375 406.875,505.75 398.5,503.0 389.875,499.375 381.375,494.5"/>
    <polyline points="378.625,492.5 376.0,490.5 371.375,485.625 369.375,483.0 367.75,480.125 365.875,473.875 365.875,470.625 366.625,467.375 368.25,464.25 370.875,461.375 374.625,458.875 379.375,457.0 385.375,455.75 392.375,455.5 400.5,456.375 409.25,458.375 418.625,461.625 428.375,466.0 438.0,471.5 447.5,477.75 456.5,484.625 464.875,491.875 472.5,499.125 479.375,506.375"/>
    <polyline points="485.5,513.375 495.5,525.75 508.625,543.375 514.625,550.375 517.625,552.75 518.875,553.375 521.25,553.75 523.25,553.25 527.0,550.625 531.625,545.875"/>
    <polyline points="532.5,544.875 538.5,538.875 546.25,532.75 555.375,527.375 562.875,523.875"/>
    <polyline points="564.375,523.25 598.125,509.75 611.0,503.5 619.375,498.625"/>
    <polyline points="622.375,496.75 631.5,490.0 641.125,481.125 647.75,473.625 654.375,464.375 657.75,459.0 664.25,446.25 667.25,438.75 670.25,430.5 673.0,421.25 675.375,411.125 677.375,399.75 678.875,387.5 679.625,374.0 679.625,359.625 678.5,344.375 676.25,328.625 672.625,312.75 667.25,297.25"/>
    <polyline points="660.125,283.0 651.25,270.875 640.625,261.5 628.5,255.875 615.125,254.375 601.0,257.5 586.625,265.0 572.625,276.375 559.25,291.0 547.0,307.75 536.0,325.875 526.25,344.375 518.0,362.75 510.875,380.25 500.0,411.625 492.75,437.375 487.75,457.5 484.5,472.875 480.75,492.75"/>
    <polyline points="480.125,496.0 478.125,505.125 476.625,509.0 475.5,510.75 474.375,512.0 471.5,513.875 467.25,515.25 462.0,516.25"/>
    <polyline points="460.75,516.375 449.875,517.625 439.75,518.25 415.625,518.625"/>
    <polyline points="413.0,518.5 395.5,517.875 378.125,516.25 366.25,514.5 353.125,511.625 343.625,508.875 338.625,507.125 328.125,502.5 322.75,499.625 317.25,496.125 311.75,492.0"/>
    <polyline points="306.25,487.125 300.875,481.375 296.0,474.5 291.75,466.5 288.75,457.125 287.375,446.5 288.625,434.75 293.375,422.375 302.875,410.125 318.0,399.75 339.375,393.0 366.375,392.0 397.5,398.25 430.375,412.0 462.0,432.5 490.375,457.625 514.25,485.0 533.25,512.625 547.75,538.875 558.25,563.0 565.75,584.375 570.75,603.125 573.75,619.375 575.375,633.125 575.75,644.75 575.125,654.375"/>
    <polyline points="573.875,662.25 572.0,668.5 569.75,673.25 567.125,676.625 564.25,678.875 561.25,679.875 558.125,679.75 555.125,678.75 552.0,676.875 549.125,674.25 546.375,671.0 541.25,662.75 539.125,658.0 535.375,647.875 532.5,637.25 530.5,626.75 529.25,616.625 528.875,611.75 528.625,598.5"/>
    <polyline points="528.875,594.375 529.375,587.0 530.875,577.25 533.0,569.0 535.375,562.125 537.25,558.125 541.375,551.375 547.125,544.625 551.0,541.25"/>
    <polyline points="552.375,540.25 559.75,535.5 567.875,531.5 581.25,526.25 599.75,519.875"/>
    <polyline points="602.25,519.0 619.125,512.5 628.625,508.125 635.25,504.5 645.875,497.75 653.375,491.875 657.25,488.375 661.25,484.5 669.25,475.25 673.25,469.75 677.375,463.375 681.375,456.25 685.375,448.125 689.25,438.75"/>
    <polyline points="693.0,428.125 696.375,416.125 699.5,402.375 701.875,386.75 703.625,369.375 704.125,350.0 703.375,328.875 700.875,306.375 696.125,283.125 688.75,260.0 678.5,238.625 665.125,220.75 648.875,208.0 630.125,202.125 609.75,204.0 588.875,213.625 568.5,230.375 549.5,252.5 532.5,278.125 517.875,305.25 505.625,332.375 495.625,358.375 487.625,382.375 481.5,403.875 476.75,423.0 473.25,439.5"/>
    <polyline points="470.625,453.75 468.875,465.75 467.0,484.5 466.75,491.5 466.875,502.125 467.75,509.125 468.875,513.5 470.0,516.25 471.125,517.625 472.75,518.625 473.25,518.375 473.0,517.75"/>
    <polyline points="472.75,517.625 470.875,517.125 466.75,517.0 450.75,518.25"/>
    <polyline points="449.25,518.25 429.625,519.375 415.75,519.625 393.125,519.125"/>
    <polyline points="389.875,519.0 375.75,518.0 363.875,516.625 355.25,515.25 346.0,513.375 336.0,510.75 325.375,507.0 319.75,504.625 308.125,498.25 302.125,494.0 296.125,489.0 290.25,483.0 284.75,475.75 279.875,467.0 276.0,456.75 274.125,444.875"/>
    <polyline points="274.875,431.375 279.75,416.875 290.125,402.375 307.5,389.875 332.375,381.625 364.25,380.625 400.875,388.75 438.875,406.25 474.75,431.75 505.875,462.125 531.0,494.5 550.125,526.375 564.0,556.125 573.5,583.125 579.75,606.875 583.25,627.75 584.625,645.625 584.5,660.875 583.0,673.75 580.5,684.375 577.125,693.0 573.125,699.5 568.625,704.125 563.75,706.875 558.75,707.875 553.625,707.125"/>
    <polyline points="548.625,705.0 543.625,701.375 539.0,696.625 534.625,690.875 530.625,684.25 527.0,677.0 523.875,669.375 518.625,653.375 516.625,645.5 515.0,637.625 512.5,622.75 510.5,603.0 510.125,591.625 510.375,577.5 510.875,569.625 512.0,559.875"/>
    <polyline points="512.5,557.125 514.875,545.875 518.0,536.625 521.75,529.375 525.875,524.25"/>
    <polyline points="526.375,523.75 529.5,521.0 533.625,518.25 538.25,515.875 545.375,513.125"/>
    <polyline points="546.375,512.75 568.5,505.25 579.875,500.75"/>
    <polyline points="581.75,500.0 591.25,495.375 597.5,491.875 608.625,484.125 613.25,480.125 620.5,473.0 627.875,463.875 632.75,456.375 637.375,447.625"/>
    <polyline points="639.625,442.75 641.75,437.375 645.5,425.5 647.125,418.875 648.375,411.75 650.125,396.25 650.375,387.875 650.0,379.25 649.25,370.5 647.75,361.5 645.5,352.75 642.5,344.375 638.75,336.5 634.125,329.5 628.75,323.625 622.625,319.25 615.75,316.5 608.375,315.5 600.625,316.5 592.625,319.375 584.5,324.0 576.5,330.375 568.75,338.125 561.5,346.875"/>
    <polyline points="554.625,356.5 548.25,366.625 542.5,376.875 537.25,387.125 528.375,406.875 521.5,424.625 516.25,440.125 512.125,453.125 501.875,487.875 499.75,493.875 498.375,496.875"/>
    <polyline points="497.75,498.25 494.625,503.375 490.625,507.25 489.25,508.25 484.625,510.5 479.375,512.0"/>
    <polyline points="478.375,512.25 469.875,513.625 463.625,514.125 454.75,514.5 444.375,514.375"/>
    <polyline points="442.5,514.375 427.5,513.625 417.375,512.625 403.125,510.375 393.5,508.25 386.75,506.375 379.625,504.0 372.25,500.875"/>
    <polyline points="368.5,499.0 364.625,497.0 357.25,492.0 353.625,489.0 347.125,482.0 344.375,477.875 342.125,473.25 340.625,468.25 340.0,463.0 340.625,457.5 342.75,451.875 346.5,446.625 352.375,441.75 360.375,438.0 370.75,435.875 383.0,435.5 397.125,437.625 412.375,442.25 428.25,449.375 444.0,458.75 458.875,469.75 472.625,481.875 484.75,494.5 495.375,507.0"/>
    <polyline points="504.25,519.125 511.75,530.25 518.0,540.375 527.25,557.125 537.5,577.25 540.5,582.125 541.75,583.625 543.875,585.0 545.75,585.0 546.75,584.5 548.625,583.125 556.0,575.375"/>
    <polyline points="557.125,574.25 562.375,569.75 568.375,565.875 573.375,563.5 578.875,561.625 588.875,559.5 595.625,559.0 602.75,559.25"/>
    <polyline points="605.25,559.375 613.125,560.625 618.625,562.0 627.25,565.25 633.25,568.375 639.375,572.5 645.625,578.0 648.75,581.25 654.875,589.5 660.625,600.125 663.25,606.75 665.625,614.25 667.875,622.875 669.625,632.625 670.875,643.875 671.5,656.625"/>
    <polyline points="671.25,671.125 670.0,687.375 667.5,705.375 663.375,725.25 657.5,746.5 649.375,768.625 638.75,790.875 625.625,811.875 610.0,830.125 592.25,844.0 572.875,851.875 552.875,852.5 533.125,845.5 514.5,831.25 497.875,811.125 483.625,786.625 471.75,759.625 462.375,731.875 455.0,704.75 449.5,679.0 445.5,655.25 442.625,633.875 440.625,615.0 439.375,598.5 438.25,571.75"/>
    <polyline points="438.125,561.25 438.875,538.25 440.375,524.625 441.5,518.875 442.625,515.0 444.75,510.75 445.875,509.375 447.25,508.375 442.375,507.25 435.0,504.875"/>
    <polyline points="434.125,504.625 428.75,502.5 422.625,499.375 419.625,497.25 417.875,495.625 417.125,494.625 416.625,493.125"/>
    <polyline points="416.625,492.625 417.75,491.25 420.0,490.75 423.125,491.0 427.25,492.0 433.625,494.5 438.625,497.125 446.5,502.125"/>
    <polyline points="447.875,503.125 456.375,509.875 459.75,513.375 459.625,513.75 458.25,513.625"/>
    <line x1="457.875" x2="432.625" y1="513.5" y2="506.875"/>
    <polyline points="431.125,506.5 423.125,503.875 416.5,501.25 410.0,497.875 407.0,496.0 403.0,492.75 400.125,489.25 399.125,486.875 399.0,484.5"/>
    <polyline points="399.25,483.375 400.875,481.375 403.75,480.0 405.75,479.5 410.625,479.375 413.625,479.75 420.25,481.25 427.625,484.0 435.375,487.75 446.75,494.875 456.875,502.625 469.875,514.125"/>
    <polyline points="471.75,516.0 479.875,523.375 482.75,525.25 484.0,525.5 484.625,524.875 484.625,524.0 483.75,522.25"/>
    <polyline points="483.5,521.875 482.0,520.375 477.5,517.875 471.875,516.25 465.75,515.125"/>
    <polyline points="464.625,515.0 436.875,511.75 421.625,509.25"/>
    <polyline points="419.25,508.75 406.25,505.5 395.125,501.625 389.375,499.0 383.625,495.875 380.875,494.125 375.625,490.0 371.0,485.125 369.125,482.375 367.625,479.5 366.5,476.375 366.0,473.25 366.125,470.0 367.125,466.75 368.875,463.75"/>
    <polyline points="371.75,460.875 375.625,458.5 380.75,456.75 386.875,455.75 394.125,455.75 402.25,456.875 411.25,459.125 420.625,462.5 430.375,467.125 440.0,472.75 449.25,479.125 458.125,486.125 466.375,493.375 473.875,500.625 486.5,514.625 496.25,526.75 509.0,543.875 513.125,548.75 516.375,551.875"/>
    <polyline points="517.75,552.75 520.125,553.625 521.25,553.625 524.25,552.5 528.875,548.5 536.375,540.5 542.75,535.0"/>
    <polyline points="544.0,534.125 550.0,530.125 558.25,525.75 567.625,521.625 582.5,515.875"/>
    <polyline points="584.625,515.0 598.125,509.5 608.125,504.75 619.25,498.375 628.25,492.25 634.5,487.125 644.125,477.375 647.5,473.375 654.125,464.125"/>
    <polyline points="657.375,458.75 660.75,452.75 667.0,438.5 669.875,430.25 672.625,421.125 675.0,410.875 676.875,399.75 678.375,387.375 679.125,374.125 679.125,359.75 678.0,344.625 675.75,329.0 672.125,313.25 666.75,297.875 659.75,283.75 650.875,271.75 640.375,262.5 628.25,256.875 615.0,255.5 601.0,258.5 586.875,265.875 572.875,277.125 559.625,291.5 547.375,308.125 536.5,326.0"/>
    <polyline points="526.75,344.375 518.5,362.625 511.375,380.0 505.5,396.375 500.625,411.25 496.5,424.875 490.5,447.625 485.0,472.375 478.875,503.0 476.875,508.75 475.125,511.25"/>
    <polyline points="474.5,511.875 473.25,512.875 470.125,514.375 465.375,515.625 455.875,517.0 446.875,517.75"/>
    <polyline points="445.125,517.875 429.875,518.5 413.125,518.5 395.625,517.75 382.0,516.5"/>
    <polyline points="378.25,516.0 370.5,515.0 357.75,512.5 343.75,508.5 333.625,504.5 328.25,502.0 317.375,495.5 311.875,491.375 306.5,486.375 301.25,480.5 296.5,473.5 292.5,465.375 289.625,456.0 288.625,445.375 290.25,433.625 295.5,421.375 305.5,409.5 321.125,399.625 342.875,393.625"/>
    <polyline points="370.0,393.375 401.125,400.25 433.5,414.625 464.5,435.375 492.125,460.375 515.25,487.5 533.75,514.625 547.75,540.375 558.0,563.875 565.125,584.875 570.0,603.125 573.0,618.875 574.5,632.25 574.875,643.5 574.375,652.875 573.25,660.375 571.5,666.5 569.375,671.0 566.875,674.375 564.125,676.375 561.25,677.375 558.375,677.375 555.5,676.375 552.625,674.625 549.75,672.0 547.125,668.875"/>
    <polyline points="544.625,665.25 540.25,656.5 536.625,646.875 532.875,631.625 530.875,616.75 530.25,603.25 530.5,595.25 531.125,588.0 532.625,578.375 534.75,570.25 536.375,565.625"/>
    <polyline points="537.375,563.5 539.25,559.5 543.5,552.75 545.75,549.875 550.875,544.875 555.0,541.625 561.0,537.875 571.25,533.0"/>
    <polyline points="573.125,532.25 585.375,527.75 613.25,518.75 628.75,512.75 639.0,507.875"/>
    <polyline points="642.625,505.875 650.0,501.375 657.875,495.875 666.0,488.875 670.25,484.625 674.5,479.875 683.125,468.125 687.5,461.0 691.875,452.875 696.125,443.375 700.25,432.625 704.125,420.125 707.625,405.75 710.5,389.375 712.625,370.625 713.75,349.625 713.25,326.375 710.875,301.125 706.125,274.75 698.25,248.125 686.875,223.375 671.875,202.375"/>
    <polyline points="653.375,187.5 631.875,181.0 608.625,184.0 584.875,196.5 561.875,217.125 540.875,243.75 522.5,273.875 507.125,305.25 494.5,335.75 484.625,364.375 477.0,390.25 471.25,413.125 467.125,432.875 464.375,449.75 462.5,464.0 461.5,475.875 461.125,485.75 461.125,493.875 461.625,500.375 463.5,509.875 464.625,513.25 465.875,515.75 468.375,519.0 469.75,519.875"/>
    <polyline points="471.0,520.5 472.125,520.875 475.375,520.625 477.0,519.875 478.875,518.5 480.0,516.25 479.75,515.375 478.5,514.625 476.375,514.375"/>
    <polyline points="475.625,514.375 455.5,516.375 445.875,517.0"/>
    <polyline points="444.125,517.0 425.75,517.375 407.5,516.75 388.375,514.875 377.375,513.125"/>
    <polyline points="373.375,512.375 356.375,507.875 347.125,504.375 337.375,499.625 332.375,496.625 327.375,493.125 322.5,489.125 317.625,484.375 313.125,478.75 309.125,472.375 305.875,465.0 303.875,456.75 303.625,447.5 305.625,437.625 310.875,427.625 319.875,418.25 333.375,410.5 351.5,406.0 374.0,405.875 399.5,411.25 426.5,422.25"/>
    <polyline points="453.0,438.375 477.25,458.25 498.375,480.25 515.875,502.875 529.875,524.625 540.75,545.0 548.875,563.25 554.875,579.375 559.125,593.375 562.125,605.25 563.875,615.125 565.0,623.5 565.375,635.625 565.0,639.75 564.25,643.0 563.375,645.25 562.375,646.75 561.25,647.5 560.125,647.625 558.875,647.125 557.75,646.25 555.5,643.375 553.625,639.25"/>
    <polyline points="552.75,636.875 551.25,631.75 550.25,626.125 549.5,617.625 549.75,609.375 550.25,604.125 551.75,596.875 553.875,590.5 555.625,586.625 557.625,583.125 561.0,578.5"/>
    <polyline points="562.25,577.25 566.375,573.5 570.875,570.625 575.875,568.25 581.25,566.5 587.125,565.375 595.625,565.0 602.5,565.625 609.875,567.25"/>
    <polyline points="612.375,568.0 620.25,571.25 628.5,576.375 634.0,581.125 639.5,587.125 644.875,595.0 647.5,599.625 649.875,605.0 652.125,611.0 654.25,617.875 656.0,625.625 657.5,634.375 658.5,644.125 658.875,655.125 658.625,667.5 657.625,681.0 655.5,695.875 652.25,712.0 647.5,729.125"/>
    <polyline points="641.125,746.75 633.0,764.625 623.125,781.625 611.25,797.0 597.625,809.5 582.75,818.125 566.875,822.0 550.875,820.375 535.125,813.25 520.375,801.125 507.0,784.625 495.375,765.0 485.5,743.5 477.375,721.25 470.875,699.125 465.875,677.75 462.0,657.75 459.125,639.375 457.0,622.875 455.5,608.0 453.75,583.25 453.125,564.5 453.0,550.375"/>
    <polyline points="453.0,544.875 453.375,522.5 452.875,517.125 452.0,514.625 450.25,512.5 448.5,511.25 445.5,509.875"/>
    <polyline points="444.625,509.625 432.125,505.375 424.625,502.5 416.0,498.125"/>
    <polyline points="414.875,497.375 411.0,494.25 408.625,491.0 408.25,489.375 408.625,487.875 409.0,487.25 410.5,486.25 414.375,485.5 417.875,485.75 424.5,487.25 429.5,489.125"/>
    <polyline points="432.0,490.375 440.0,494.625 447.5,499.5 458.0,507.625 471.375,519.125 467.125,517.0 462.5,515.375 458.5,514.375"/>
    <polyline points="457.375,514.125 428.25,508.125 415.75,504.625"/>
    <polyline points="413.5,503.875 402.25,499.375 395.5,495.625 389.5,491.0 386.25,487.5 384.875,485.625 383.875,483.625 382.75,479.5 382.875,477.375 383.375,475.375 384.5,473.5 386.25,471.75 388.5,470.25 391.5,469.0 395.125,468.25 399.375,468.0"/>
    <polyline points="404.375,468.375 409.75,469.25 415.625,470.75 428.125,475.75 434.625,479.125 447.25,487.125 458.75,496.25 468.875,505.375 477.25,513.875 493.5,531.625 496.75,534.75 500.375,537.25 501.375,537.625"/>
    <polyline points="502.25,537.875 503.875,537.75 505.125,537.25 507.375,535.25 509.125,532.625 513.5,524.375"/>
    <polyline points="513.75,523.875 517.125,518.75 521.0,515.25"/>
    <polyline points="521.375,515.125 526.625,512.625 532.0,511.125"/>
    <line x1="532.625" x2="552.25" y1="511.0" y2="506.25"/>
    <polyline points="553.25,506.0 562.875,503.375 574.375,499.375 582.75,495.875 590.0,492.125"/>
    <polyline points="592.0,491.0 598.0,487.375 602.125,484.375 606.5,481.0 613.125,475.0 620.0,467.5 626.75,458.0 633.25,446.125 637.125,436.5 640.5,425.5 643.125,413.0"/>
    <polyline points="644.0,406.25 644.75,391.75 644.5,384.125 643.75,376.25 642.5,368.5 640.5,360.875 638.0,353.375 634.75,346.5 630.875,340.375 626.25,335.125 621.0,331.0 615.25,328.125 608.875,326.875 602.25,327.125 595.25,328.875 588.125,332.25 581.0,337.125 574.125,343.125 567.375,350.25 561.0,358.25 555.125,366.75 549.5,375.625 544.5,384.625 539.875,393.625 535.75,402.5"/>
    <polyline points="532.125,411.0 528.75,419.0 523.25,433.875 518.875,446.625 507.25,485.25 504.625,492.875 501.25,500.25"/>
    <polyline points="500.625,501.125 498.0,504.75 494.625,507.75 490.875,509.875 485.125,511.75"/>
    <polyline points="484.25,511.875 481.75,512.5 473.0,513.625 464.625,514.125 456.125,514.25"/>
    <polyline points="454.5,514.25 442.25,514.0 434.0,513.5 419.875,512.125 406.0,509.875 396.75,507.75"/>
    <polyline points="393.5,506.875 386.875,504.875 379.875,502.25 369.125,497.0 362.125,492.375 355.5,486.5 352.5,483.0 349.875,479.25 347.625,475.125 346.125,470.625 345.375,465.875 345.75,460.875 347.375,455.875 350.375,451.0 355.25,446.625 362.0,443.0 370.625,440.5 381.25,439.625 393.5,440.75 407.0,444.125"/>
    <polyline points="421.25,449.625 435.75,457.125 449.75,466.375 463.0,476.875 475.0,488.125 485.75,499.5 495.0,510.75 502.875,521.375 509.5,531.125 515.0,540.0 531.375,568.625 536.25,575.625 538.75,577.5 540.875,577.75 544.0,576.25 545.0,575.375"/>
    <polyline points="546.0,574.375 555.25,565.375 559.375,562.0 565.5,558.0 568.875,556.25 576.125,553.25 584.125,550.875"/>
    <polyline points="586.25,550.375 595.375,548.875 608.25,548.0 616.625,548.125 629.0,549.375 635.625,550.625 642.5,552.375 649.625,554.875 660.875,560.5"/>
    <polyline points="664.625,563.0 668.625,565.875 676.375,573.375 680.25,578.0 684.125,583.5 687.75,590.0 691.375,597.75 694.625,606.75 697.625,617.5 700.125,630.125 702.0,645.0 702.875,662.75 702.5,683.375 700.5,707.5 696.25,735.25 689.125,766.375 678.375,800.375 663.375,835.875 643.625,870.375 619.125,900.5 590.5,921.875 559.375,930.875 527.875,925.125 498.375,905.0 472.5,873.0"/>
    <polyline points="451.375,833.25 435.125,790.0 423.0,746.875 414.625,706.375 408.875,669.75 405.25,637.625 403.25,610.0 402.375,586.75 402.5,567.25 403.375,551.25 404.875,538.0 406.875,527.375 409.375,518.875 412.25,512.125 415.5,507.125 419.125,503.375 422.875,500.875 427.0,499.25 431.125,498.625 435.25,498.625 439.5,499.375 447.75,502.0 451.625,503.875 458.75,508.0"/>
    <polyline points="462.0,510.125 467.875,514.5 479.875,524.25 484.5,527.375 486.625,528.25 488.0,528.25 489.125,527.25 489.375,526.125"/>
    <polyline points="489.375,525.625 488.875,523.5 486.875,520.625 483.125,518.125 479.875,517.0"/>
    <polyline points="479.125,516.875 474.125,515.75 470.25,515.25 450.375,513.5"/>
    <polyline points="448.625,513.375 426.875,510.875 414.625,508.625 406.5,506.75 398.0,504.125 388.875,500.625"/>
    <polyline points="385.875,499.125 382.875,497.625 376.875,493.875 371.25,489.5 368.625,486.875 366.25,484.125 364.25,481.125 362.625,477.875 361.625,474.5 361.125,471.0 361.375,467.375 362.625,463.75 364.875,460.375 368.25,457.25 372.875,454.625 378.875,452.75 386.125,452.0 394.5,452.25 404.0,453.875 414.125,457.0 424.75,461.375 435.5,467.125 446.0,473.875 456.125,481.375"/>
    <polyline points="465.375,489.375 473.875,497.625 481.5,505.75 488.25,513.5 499.125,527.5 515.375,550.5 520.875,556.625 522.25,557.625 524.75,558.75 527.0,558.625 530.125,557.125 534.0,553.5"/>
    <polyline points="535.0,552.5 542.625,545.0 550.0,539.125 560.0,533.125 568.25,529.375"/>
    <polyline points="570.0,528.625 597.5,518.625 613.5,512.375 619.375,509.75 632.0,503.125"/>
    <polyline points="635.375,501.0 638.875,498.75 645.875,493.5 653.25,487.125 657.0,483.375 664.75,474.375 668.625,469.0 672.625,463.0 676.5,456.125 680.25,448.375 684.0,439.5 687.625,429.5 690.875,418.25 693.75,405.375 696.125,391.0 697.875,375.0 698.625,357.25 698.125,337.875 696.125,317.25 692.25,295.875 686.125,274.375 677.375,254.25 665.875,236.625"/>
    <polyline points="651.75,223.125 635.25,215.375 617.0,214.25 597.75,220.125 578.625,232.625 560.25,250.75 543.5,272.875 528.625,297.25 515.875,322.375 505.25,347.125 496.5,370.625 489.625,392.0 484.125,411.375 479.875,428.375 476.625,443.25 474.25,456.0 471.25,476.125 470.0,490.375 469.75,503.875 470.375,511.25"/>
    <polyline points="470.625,512.875 471.75,517.125 471.625,517.625 462.875,517.75"/>
    <polyline points="461.875,517.875 436.75,519.625 422.5,520.125"/>
    <polyline points="420.125,520.25 389.75,520.25 368.375,519.125 351.5,517.25 332.125,513.5"/>
    <polyline points="326.875,512.125 321.375,510.375 309.75,505.875 303.625,502.875 297.375,499.25 291.0,494.75 284.5,489.375 278.125,482.875 272.125,474.875 266.75,465.125 262.625,453.5 260.625,439.875 262.0,424.25 268.375,407.25 281.625,390.625 303.625,376.625 334.75,368.875 373.75,370.875 417.125,384.375 460.0,409.0 498.375,441.625 529.625,478.375 553.5,515.75 570.625,551.25 582.25,583.75"/>
    <polyline points="589.375,612.75 593.125,638.125 594.125,660.25 593.0,679.375 590.25,695.625 586.0,709.125 580.625,719.875 574.375,727.875 567.5,733.25 560.25,736.0 552.625,736.0 545.25,733.625 538.0,729.0 531.125,722.25 524.75,714.0 519.125,704.5 514.0,694.125 509.625,683.125 505.875,671.875 502.75,660.75 500.125,649.75 496.375,629.25 493.375,602.875"/>
    <polyline points="492.875,595.25 492.5,588.375 492.25,566.5 493.625,534.375 493.625,529.375 493.25,525.75"/>
    <polyline points="493.0,525.0 492.0,521.875 490.75,520.125 489.5,519.0 486.625,517.375 482.25,516.125"/>
    <polyline points="481.5,516.0 471.75,514.875 453.75,513.875"/>
    <polyline points="452.125,513.75 437.625,512.625 419.5,510.25 408.875,508.125 400.25,505.875 394.25,503.875"/>
    <polyline points="391.125,502.75 381.625,498.5 372.25,492.75 366.5,487.75 363.875,485.0 361.625,481.875 359.75,478.5 358.25,475.0 357.5,471.25 357.5,467.375 358.375,463.375 360.25,459.5 363.5,456.0 368.0,452.875 374.0,450.625 381.5,449.25 390.25,449.125 400.25,450.5 411.125,453.5 422.5,458.0 434.125,463.875"/>
    <polyline points="445.5,471.125 456.375,479.25 466.375,487.875 475.5,496.875 483.75,505.625 490.875,514.125 497.0,522.125 506.875,536.0 516.75,550.75 522.875,559.125 526.0,561.875 528.5,563.0 530.75,562.875 531.75,562.5 534.875,560.375 535.875,559.375"/>
    <polyline points="537.0,558.5 544.75,550.75 553.75,543.5 561.25,539.0 571.625,534.25"/>
    <polyline points="573.5,533.5 588.0,528.5 611.0,521.5 619.875,518.5 626.25,516.25 639.875,510.375"/>
    <polyline points="643.5,508.625 651.125,504.5 659.125,499.25 667.375,492.75 671.625,488.875 680.5,479.25 685.0,473.5 689.5,466.75 694.125,459.0 698.625,450.125 703.0,439.75 707.25,427.75 711.125,413.875 714.625,397.875 717.375,379.5 719.25,358.5 719.625,335.0 718.25,308.875 714.5,280.875 707.75,252.125 697.25,224.0 682.75,199.125"/>
    <polyline points="664.25,180.0 642.125,169.375 617.5,169.0 591.75,179.5 566.625,199.625 543.5,227.25 523.125,259.25 506.0,293.125 492.125,326.375 481.375,357.5 473.125,385.75 467.125,410.5 462.75,431.875 460.0,450.125 458.25,465.375 457.5,478.0 457.5,488.375 458.0,496.75 458.875,503.625 460.125,509.0 461.625,513.125 463.375,516.375 465.125,518.75 466.875,520.5 470.625,522.375"/>
    <polyline points="472.375,522.625 474.0,522.625 477.125,522.0 479.75,520.75 481.875,519.375 483.5,517.875 484.75,516.375 485.875,514.125 485.625,512.625 483.5,511.875"/>
    <polyline points="483.0,511.875 465.875,514.5 457.875,515.25"/>
    <polyline points="456.375,515.375 444.75,516.0 425.75,515.875 412.875,515.125 401.0,513.875"/>
  </g>
</svg>
