<?xml version="1.0" encoding="utf-8" ?>
<svg xmlns="http://www.w3.org/2000/svg" xmlns:cc="http://creativecommons.org/ns" xmlns:dc="http://purl.org/dc/elements/1.1/" xmlns:ev="http://www.w3.org/2001/xml-events" xmlns:inkscape="http://www.inkscape.org/namespaces/inkscape" xmlns:rdf="http://www.w3.org/1999/02/22-rdf-syntax-ns" xmlns:sodipodi="http://sodipodi.sourceforge.net/DTD/sodipodi-0.dtd" xmlns:xlink="http://www.w3.org/1999/xlink" baseProfile="tiny" height="27.09333333cm" version="1.2" viewBox="0 0 1024.0 1024.0" width="27.09333333cm">
  <metadata>
    <rdf:RDF>
      <cc:Work>
        <dc:format>image/svg+xml</dc:format>
        <dc:source>vpype read './original_svgs/Strange Attractors #64.svg' linemerge linesimplify write './Strange Attractors #64.svg'
</dc:source>
        <dc:date>2024-08-05T01:35:22.296627</dc:date>
      </cc:Work>
    </rdf:RDF>
  </metadata>
  <defs/>
  <g fill="none" id="layer1" inkscape:groupmode="layer" inkscape:label="1" stroke="black" stroke-width="0.7mm" style="display:inline">
    <polyline points="409.375,569.75 415.5,552.75 419.125,540.625 420.0,535.875 420.375,531.875 420.125,528.375 419.5,525.375 418.5,522.75 417.125,520.375 415.375,518.25 411.0,514.375 382.75,496.875 373.125,490.25 362.375,481.875"/>
    <polyline points="356.625,477.0 350.5,471.5 337.75,458.625 331.0,451.125 324.25,442.875 317.5,434.0 311.0,424.5 304.75,414.5 299.0,404.0 294.125,393.5 290.25,383.125 287.75,373.25 287.0,364.5 287.875,357.25 290.75,351.75 295.625,348.625 302.25,347.75 310.5,349.375 320.0,353.25 330.25,359.125 341.125,366.5 352.125,375.125 362.875,384.5 383.375,404.0"/>
    <polyline points="392.625,413.5 435.75,458.625 446.125,468.625 459.0,479.75 469.875,487.25 479.125,492.375 489.875,496.625 494.75,498.0 499.375,498.875"/>
    <polyline points="501.625,499.25 510.125,500.25 518.0,500.375 525.625,500.0 535.0,498.875 540.75,497.875 550.5,495.625"/>
    <polyline points="552.5,495.125 565.375,491.625 582.5,486.0 607.25,476.875 622.875,470.5"/>
    <polyline points="627.375,468.75 647.625,460.125 681.25,444.875 735.75,418.875 753.25,410.875 760.125,408.0 764.625,406.75 766.0,407.625 763.75,410.875 757.375,417.125 746.875,426.25 716.0,451.875"/>
    <polyline points="697.75,467.125 643.875,512.875 577.5,571.625 566.5,580.875 562.25,584.0 555.75,587.875 553.125,589.0 548.875,589.75 547.0,589.5 543.875,588.25 541.0,586.125 536.875,582.125"/>
    <polyline points="535.5,580.75 531.5,576.25 524.375,569.25 516.875,563.375 513.875,561.375 507.75,558.0 501.5,555.375 498.375,554.375"/>
    <polyline points="496.75,554.0 493.5,553.125 487.0,552.0 482.0,551.5 474.875,551.25 465.625,551.5 450.875,552.75"/>
    <polyline points="448.625,552.875 430.5,554.5 421.375,554.875 407.375,554.625 394.875,553.25 385.25,551.375 374.125,548.125 367.875,545.875 353.75,539.5 345.625,535.0"/>
    <polyline points="336.75,529.375 326.75,522.5 315.75,513.875 303.375,503.25 289.5,490.0 274.125,473.625 257.0,453.375 238.25,428.875 218.5,399.375 198.5,365.0 180.125,326.5 165.875,286.0 159.0,247.5 162.75,216.5 178.875,198.5 206.5,197.0 241.75,211.75 279.875,239.0 316.5,273.375 348.625,310.25 374.875,345.75 395.25,378.125 410.25,406.375 420.5,430.5 427.0,450.75 430.375,467.625"/>
    <polyline points="431.25,481.5 430.375,493.0 428.25,502.25 425.125,509.75 421.625,515.625 417.875,520.0 414.375,523.25 411.125,525.375 408.5,526.5 406.375,526.75 405.125,526.25 404.5,525.25 404.5,523.75 405.25,521.875 408.25,517.5 412.875,513.0 418.625,508.875 424.75,505.25 427.875,503.75 437.25,500.375"/>
    <polyline points="440.375,499.625 449.0,498.125 456.75,497.75 463.75,498.125 475.125,499.875 488.375,503.75"/>
    <polyline points="489.375,504.0 499.125,507.875 503.125,509.875"/>
    <polyline points="503.375,510.0 504.75,510.875 505.5,511.625 505.625,512.25 504.875,513.125 502.5,514.0"/>
    <line x1="502.25" x2="493.875" y1="514.125" y2="516.375"/>
    <polyline points="493.375,516.375 480.875,518.875 475.25,519.625"/>
    <polyline points="474.25,519.75 461.875,521.0 453.875,521.25 444.5,521.0 433.125,519.75"/>
    <polyline points="430.5,519.375 422.0,517.625 415.75,516.0 405.125,512.375 397.0,509.0 383.25,501.875 372.75,495.25 367.0,491.25 354.625,481.5 347.875,475.625 333.5,461.5 326.0,453.25 318.25,444.0 310.5,433.875 302.875,422.875"/>
    <polyline points="295.5,411.125 288.75,398.75 283.0,386.25 278.375,373.875 275.625,362.125 274.75,351.75 276.25,343.25 280.25,337.25 286.625,334.125 295.25,334.125 305.75,337.25 317.375,343.125 330.0,351.25 342.75,361.0 355.5,372.0 367.75,383.5 379.25,395.0 390.0,406.25 431.125,451.875 448.0,469.625"/>
    <polyline points="452.75,474.125 461.25,481.5 465.125,484.5 472.125,489.25 478.5,492.75 487.0,496.375 494.75,498.5 504.25,500.0 510.875,500.375 521.375,500.0"/>
    <polyline points="523.5,499.875 533.625,498.625 546.0,496.25 561.25,492.375 578.125,487.125"/>
    <polyline points="580.625,486.375 603.5,478.375 636.375,465.75 655.25,458.0 679.5,447.375"/>
    <polyline points="686.875,444.0 714.125,431.125 738.625,418.875 770.75,402.0 812.125,379.375 879.625,340.875 892.0,334.25 890.5,336.875 833.25,381.625 784.125,421.625 732.25,466.75 685.25,511.875 647.25,553.5 619.5,590.25 601.375,621.75 591.75,648.5 588.875,670.875 591.5,689.125"/>
    <polyline points="598.125,703.375 607.5,713.5 618.375,719.25 629.5,720.75 640.125,717.75 649.25,710.75 656.5,700.125 661.625,686.625 664.625,671.25 665.75,654.75 665.375,637.875 663.75,621.5 661.25,605.875 658.25,591.5 654.75,578.375 651.25,566.625 647.625,556.25 644.125,547.25 637.25,532.875 631.0,522.375 628.0,518.375 622.5,512.25 619.875,510.0"/>
    <polyline points="617.375,508.125 612.625,505.375 610.375,504.5 606.125,503.125 602.125,502.375 595.0,501.875 578.375,501.875"/>
    <polyline points="577.75,501.75 574.5,501.0 573.375,500.0 573.25,499.5 574.125,497.75 576.625,495.75"/>
    <polyline points="577.125,495.375 580.625,493.25 588.625,489.375 606.125,481.875"/>
    <polyline points="607.875,481.25 621.375,475.75 635.625,470.375 646.0,467.125 649.5,466.625 650.625,467.0"/>
    <polyline points="650.875,467.375 650.5,468.625 649.0,470.5 644.625,474.5 629.5,485.25 620.25,491.0 610.75,496.25 601.625,500.75 593.25,504.25"/>
    <polyline points="590.625,505.25 581.0,508.25 571.375,510.125 566.75,510.5 561.625,510.5 557.625,510.0 554.125,509.0"/>
    <polyline points="553.5,508.75 551.375,507.375 550.875,506.625 550.875,505.5 552.375,503.375 554.625,501.875"/>
    <polyline points="555.125,501.5 565.625,496.375 581.625,489.875"/>
    <line x1="583.25" x2="646.25" y1="489.25" y2="463.875"/>
    <polyline points="649.5,462.625 664.625,457.0 669.5,455.625 672.875,455.25 673.875,455.375 674.375,455.875 674.25,456.75 673.5,458.0 670.25,461.75 660.75,469.875 642.0,483.875 626.0,494.625"/>
    <polyline points="620.625,498.0 605.5,506.875 596.25,511.625 583.875,517.0 576.75,519.5 567.375,521.875 559.375,523.125 550.625,523.375 541.875,522.625"/>
    <polyline points="540.375,522.375 530.75,520.25 518.75,516.5"/>
    <polyline points="518.25,516.375 514.0,515.125 510.125,514.5"/>
    <polyline points="509.875,514.5 507.5,514.375 503.625,514.875"/>
    <line x1="503.375" x2="493.875" y1="514.875" y2="516.625"/>
    <polyline points="493.375,516.75 480.5,519.125 474.75,519.875"/>
    <polyline points="473.625,520.0 463.75,521.0 452.75,521.375 443.125,521.0 431.375,519.625"/>
    <polyline points="428.625,519.125 423.0,518.0 413.5,515.375 406.25,512.875 398.375,509.625 389.5,505.375 379.75,499.875 374.375,496.5 362.75,488.25 356.5,483.25 343.0,471.125 335.75,464.0 328.25,455.875 320.5,447.0 312.75,437.125 305.0,426.25 297.5,414.75"/>
    <polyline points="290.5,402.5 284.375,389.875 279.375,377.375 276.0,365.375 274.5,354.5 275.25,345.25 278.5,338.5 284.25,334.5 292.25,333.5 302.25,335.75 313.625,340.75 326.125,348.375 338.875,357.75 351.75,368.5 364.125,379.875 386.875,402.875 435.625,456.75 446.625,468.25 451.5,472.875"/>
    <polyline points="456.0,477.0 464.125,483.625 471.25,488.625 480.625,493.875 486.375,496.125 494.125,498.375 499.0,499.375 505.875,500.125 514.625,500.375 522.875,499.875"/>
    <polyline points="525.0,499.75 537.25,498.0 551.875,494.875 567.625,490.5 580.0,486.625"/>
    <polyline points="582.5,485.75 602.625,478.75 638.875,464.875 663.375,454.75 682.125,446.375"/>
    <polyline points="689.625,443.0 706.875,435.0 728.625,424.25 774.75,400.25 795.0,389.25 842.75,362.5 889.625,335.25 902.625,328.0 900.25,331.125 835.75,381.125 782.375,424.75 727.375,473.375 678.875,521.125 640.875,564.75 614.375,602.75 598.375,635.375 591.125,663.0 591.125,686.0 596.75,704.625"/>
    <polyline points="606.25,718.75 618.25,728.0 631.25,732.375 644.0,731.5 655.375,725.625 664.75,715.125 671.5,700.875 675.75,684.0 677.625,665.5 677.625,646.375 676.125,627.75 673.5,610.0 670.25,593.625 666.625,578.75 662.75,565.625 659.0,554.25 655.25,544.375 648.0,528.75 644.625,522.75 638.25,513.75 635.25,510.5 632.375,507.75 626.75,504.125"/>
    <polyline points="624.0,502.875 621.375,502.0 616.25,500.875 609.0,500.625 600.125,501.375 585.75,503.5 576.75,504.125"/>
    <polyline points="575.75,504.125 570.375,503.5 568.125,502.375 567.625,501.625 567.625,500.75 569.0,499.0"/>
    <polyline points="569.375,498.625 574.625,495.125 584.875,490.25 593.375,486.625"/>
    <polyline points="595.0,486.0 627.375,472.75 648.0,465.25"/>
    <polyline points="650.0,464.625 653.375,463.75 655.875,463.5 656.75,463.625 657.5,464.25 656.875,465.875 654.875,468.25 651.375,471.375 643.625,477.5 626.5,489.125 611.5,497.875"/>
    <polyline points="607.875,499.75 597.625,504.75 591.25,507.375 585.375,509.5 577.5,511.875 570.75,513.25 563.25,514.0 557.125,514.0 552.375,513.5"/>
    <polyline points="551.375,513.25 548.625,512.75 544.25,511.0 542.0,509.125 542.0,507.375"/>
    <polyline points="542.125,507.125 543.875,505.25 546.5,503.625 555.0,499.75"/>
    <line x1="555.875" x2="592.375" y1="499.375" y2="485.125"/>
    <polyline points="594.5,484.25 658.5,458.375 671.75,453.625"/>
    <polyline points="674.375,452.75 676.75,452.125 680.125,451.875 680.875,452.375 681.0,453.125 679.0,456.125 674.125,461.125 661.5,471.5 638.75,488.25 620.625,500.25 603.875,510.25 589.25,517.625"/>
    <polyline points="584.875,519.5 576.875,522.5 569.75,524.75 563.375,526.125 555.125,527.125 548.125,527.25 540.375,526.625 533.875,525.5 527.25,523.875"/>
    <polyline points="526.0,523.625 512.375,520.125 505.5,519.125"/>
    <polyline points="504.875,519.125 497.25,518.875 488.0,519.625"/>
    <polyline points="487.125,519.75 472.5,521.375 458.625,522.125"/>
    <polyline points="457.0,522.25 449.875,522.25 434.625,521.0 426.625,519.625 417.5,517.5 410.625,515.375 403.125,512.625 394.75,509.0 385.375,504.25"/>
    <polyline points="380.375,501.25 369.375,494.125 357.0,484.875 343.375,472.875 328.375,457.625 312.625,438.625 304.625,427.625 296.875,415.875 289.625,403.375 283.125,390.5 277.875,377.5 274.125,365.0 272.25,353.5 272.875,343.875 276.0,336.5 281.625,332.125 289.75,330.875 299.875,333.0 311.625,338.0 324.25,345.75 337.5,355.375"/>
    <polyline points="350.625,366.375 363.375,378.125 375.5,390.125 386.75,401.875 406.5,423.625 436.125,457.0 447.125,468.625 452.0,473.375 460.625,481.125 468.25,486.875 474.875,491.125 483.875,495.5 489.25,497.375 494.375,498.625"/>
    <polyline points="496.875,499.125 503.875,500.125 510.5,500.5 521.125,500.125 533.375,498.625 543.75,496.75 550.0,495.25"/>
    <polyline points="552.125,494.75 575.0,488.25 593.125,482.25 616.375,474.0"/>
    <polyline points="619.5,472.875 643.75,464.5 650.625,462.625 652.125,462.5 653.0,462.75 653.0,463.375 651.875,464.75 649.125,467.0 636.5,475.375 624.875,482.375 584.25,505.5 551.5,523.125 507.875,545.75 452.25,573.125 386.125,603.0"/>
    <polyline points="315.375,630.75 250.375,649.375 201.875,652.625 175.25,639.0 167.625,611.875 171.75,577.125 189.125,502.0 195.5,466.0 199.25,431.875 201.125,399.75 202.25,370.125 204.25,343.375 208.625,320.875 216.375,303.875 228.25,293.375 244.0,290.25 262.875,294.0 283.75,304.0 305.125,318.625 325.875,336.25 345.125,355.125 362.5,374.125 377.625,392.375 390.75,409.25 401.75,424.375"/>
    <polyline points="411.125,437.75 435.625,475.25 443.25,486.375 449.125,494.0 454.0,499.125 456.125,501.0 460.375,503.625 462.375,504.5 466.375,505.625 472.375,506.375 480.375,506.25 484.375,505.875"/>
    <polyline points="486.375,505.75 494.5,505.0 520.0,501.75 535.0,499.125"/>
    <polyline points="536.875,498.75 559.25,493.875 565.5,492.75 567.5,492.875 567.5,493.625 566.0,495.0"/>
    <polyline points="564.625,496.0 556.25,500.875 546.125,506.125 521.0,518.25 496.125,529.5 464.5,542.375 446.75,549.0 428.375,555.125 410.0,560.375 392.75,564.25 377.25,566.25 364.25,566.25 354.125,564.125 347.25,559.875 343.375,554.0 342.0,546.875 342.75,539.0 345.0,530.875 348.25,522.75"/>
    <polyline points="352.25,515.0 356.5,507.75 365.125,495.25 373.125,485.625 376.75,481.75 383.25,475.875 388.75,472.0 391.25,470.625 395.5,468.75 399.125,467.875 402.25,467.75 404.875,468.125 408.0,469.25 410.25,470.75"/>
    <polyline points="410.875,471.25 412.25,472.75 413.0,474.5 412.875,475.625 411.75,476.625 408.75,476.875 403.125,475.375"/>
    <polyline points="402.0,475.0 395.375,471.75 390.875,469.0 384.25,464.125 379.0,459.625 372.25,452.625 366.375,445.0 364.125,441.125"/>
    <polyline points="363.125,439.375 361.75,435.875 361.125,432.875 361.125,431.625 361.75,429.625 362.5,428.875 364.375,428.125 369.0,428.75 375.0,431.375 382.0,435.625 389.5,441.0 396.875,447.0"/>
    <polyline points="399.375,449.0 412.625,460.875 424.375,472.5 428.0,476.5 431.625,481.125 433.0,483.125 434.25,485.875"/>
    <polyline points="434.625,486.625 435.0,488.75 434.375,491.0 432.5,492.625 430.375,493.375 425.125,493.75 422.375,493.5 416.0,492.25"/>
    <polyline points="414.25,491.75 405.875,488.875 398.625,485.5 393.25,482.5 384.375,476.875 374.625,469.5 364.25,460.0 353.625,448.625 347.0,440.0 340.875,430.875"/>
    <polyline points="338.25,426.25 334.125,417.25 332.0,409.125 331.75,405.625 332.125,402.75 333.25,400.375 335.0,398.625 337.375,397.625 340.375,397.5 343.875,398.0 348.0,399.25 352.5,401.25 362.375,406.875 367.625,410.5 383.625,422.875 394.0,431.75 412.75,448.75"/>
    <polyline points="416.875,452.5 441.0,474.0 453.5,484.25 473.25,499.125"/>
    <polyline points="474.25,499.875 478.625,503.625 480.875,506.125 482.0,508.625 481.875,510.375 481.25,511.25"/>
    <polyline points="481.0,511.625 478.875,513.25 473.25,515.5 463.5,517.375"/>
    <polyline points="462.25,517.5 453.875,518.125 447.0,518.125 434.625,517.125 421.625,514.625 415.5,513.0 408.75,510.75"/>
    <polyline points="405.125,509.375 393.25,504.0 379.25,496.125 368.625,488.875 356.875,479.625 344.0,467.875 337.25,461.0 323.125,444.875 315.875,435.625 308.875,425.625 302.125,414.875 295.875,403.75 290.375,392.5 286.125,381.25 283.125,370.5 282.0,360.875 282.75,352.75 285.75,346.75"/>
    <polyline points="290.75,343.125 297.875,342.125 306.625,343.75 316.875,348.0 328.0,354.375 339.625,362.5 351.25,371.875 362.75,382.0 384.25,402.875 425.625,447.25 443.25,465.375 448.125,470.125 457.0,477.875 464.875,484.0 468.375,486.375 475.0,490.375 481.125,493.375 486.625,495.625 491.75,497.25 499.0,498.875 512.0,500.25 518.125,500.25 531.75,499.125"/>
    <polyline points="478.125,492.0 483.875,494.625 491.75,497.25 496.75,498.5 503.625,499.625 512.25,500.25 520.375,500.125 528.25,499.5 534.125,498.625"/>
    <polyline points="536.125,498.375 544.125,496.875 558.875,493.25 572.875,489.0 595.0,481.375"/>
    <polyline points="598.125,480.125 616.0,473.375 633.375,466.25 668.875,450.625 703.125,434.5 772.5,399.875"/>
    <polyline points="782.875,394.875 790.625,391.625 794.5,391.0 793.125,393.75 785.625,400.875 705.75,467.75 681.5,488.875 658.75,509.375 638.5,528.25 621.125,545.25 606.625,560.0 595.0,572.625 585.625,583.25 578.5,592.0 569.0,604.75 561.625,615.75 561.125,616.25 560.75,616.125 560.625,615.375"/>
    <polyline points="560.5,614.125 559.375,605.5 558.25,599.875 555.5,590.75 551.75,581.75 547.375,573.5 542.5,566.125 537.375,559.875 530.5,553.0"/>
    <polyline points="528.875,551.625 525.5,548.875 520.625,545.5 512.75,541.25 502.375,537.375 490.75,535.0"/>
    <polyline points="489.25,534.875 478.625,534.0 455.125,533.75 443.75,533.25"/>
    <polyline points="441.25,533.125 433.25,532.375 424.125,531.0 409.75,527.75 401.5,525.125 392.125,521.375 387.0,519.125 375.75,513.25 363.0,505.375 355.875,500.375 348.25,494.5 340.0,487.625 331.25,479.75 322.0,470.625 312.125,460.0"/>
    <polyline points="301.75,447.875 291.0,434.125 280.25,418.75 269.625,401.75 259.625,383.5 251.0,364.5 244.625,345.5 241.125,327.75 241.375,312.625 245.75,301.375 254.625,295.125 267.375,294.625 283.25,299.5 301.125,309.375 319.875,323.125 338.5,339.125 356.0,356.5 372.125,373.875 386.625,390.75 399.375,406.375 410.375,420.75 446.875,470.125"/>
    <polyline points="451.625,476.25 459.375,485.75 465.75,492.5 471.125,497.125 475.875,500.25 478.125,501.375 480.25,502.375 484.375,503.625 490.125,504.625 499.25,504.875 508.0,504.125"/>
    <polyline points="509.625,504.0 518.0,503.0 535.625,500.25 541.75,499.625 542.875,499.75"/>
    <polyline points="543.25,499.875 543.5,500.125 543.25,500.75 541.0,502.625 532.625,507.25 525.25,510.75 502.375,520.875 477.5,530.5 468.0,533.875 448.0,540.0 428.5,544.5 419.5,545.75"/>
    <polyline points="411.625,546.375 404.75,546.0 399.125,544.875 395.0,542.875 392.125,540.25 390.5,537.0 390.125,533.5 390.625,529.625 392.0,525.625 394.125,521.625 396.625,517.75 402.75,510.75 409.5,504.875 416.375,500.375 423.0,497.125 429.125,495.0 434.625,493.75 442.125,493.125"/>
    <polyline points="444.25,493.25 448.375,493.625 453.5,494.75 458.875,496.75 462.75,499.0 465.875,501.75 466.875,503.375 467.25,505.25"/>
    <polyline points="467.25,505.75 466.375,507.75 464.625,509.25 462.75,510.25 460.5,511.125 455.5,512.25 449.125,512.875"/>
    <polyline points="447.625,512.875 441.0,512.875 433.125,512.125 421.0,509.75 412.25,507.125 405.75,504.75 394.75,499.75 386.5,495.125 377.25,489.375"/>
    <polyline points="372.375,485.875 361.875,477.75 356.25,472.875 350.5,467.5 338.375,455.0 325.875,440.0 319.75,431.625 313.75,422.75 308.25,413.5 303.25,404.0 299.125,394.5 296.0,385.25 294.125,376.75 293.625,369.125 294.875,363.0 297.75,358.375 302.375,355.875 308.5,355.375 316.125,357.0 324.625,360.5 334.125,365.75 343.875,372.375 354.0,380.125"/>
    <polyline points="363.875,388.5 373.625,397.25 382.875,406.125 433.125,457.125 447.875,471.0 456.25,478.0 467.0,485.75 476.25,491.125 481.875,493.75 489.375,496.625"/>
    <polyline points="491.75,497.25 494.0,498.0 502.5,499.75 514.0,500.875 521.125,500.875 528.0,500.375 538.25,498.875"/>
    <polyline points="540.0,498.625 550.75,496.25 562.5,493.0 575.75,488.75 594.25,482.125"/>
    <polyline points="597.25,481.0 622.25,471.125 645.625,461.25 719.625,427.875 731.75,423.0"/>
    <polyline points="736.125,421.625 738.75,421.5 739.125,422.75 737.125,425.75 732.375,430.5 725.0,437.125 676.75,477.0 636.25,509.75 613.25,527.875 594.625,542.125 579.875,552.5 573.75,556.375 568.375,559.5 559.25,563.875 555.375,565.25 548.625,566.875"/>
    <polyline points="545.625,567.125 540.375,567.0 533.625,565.625 527.625,563.375 508.5,554.75 498.75,551.625"/>
    <polyline points="497.125,551.125 488.875,549.5 476.875,548.5 463.625,548.625 450.75,549.375"/>
    <polyline points="448.375,549.5 432.75,550.125 420.375,550.0 413.25,549.5 401.25,547.875 387.0,544.5 375.875,540.625 362.75,534.625 355.25,530.625 347.125,525.75 338.25,519.875"/>
    <polyline points="328.375,512.5 317.5,503.5 305.5,492.625 292.25,479.375 277.625,463.125 261.75,443.75 244.75,420.5 227.25,393.375 210.125,362.5 195.0,329.0 183.875,294.625 179.25,262.875 183.5,237.625 197.5,223.125 220.5,221.5 250.125,232.875 282.5,254.625 314.5,282.875 343.625,314.0 368.5,344.875 388.75,373.625 404.75,399.375 416.75,421.75 425.5,440.875 431.625,457.0 435.5,470.375"/>
    <polyline points="437.625,481.5 438.5,490.625 438.375,498.125 437.5,504.25 436.25,509.0 434.75,512.875 433.25,515.75 430.625,519.25 428.625,520.375 428.625,519.875 429.75,518.25 432.25,516.0 437.875,512.375 445.0,508.875 452.875,506.25"/>
    <polyline points="455.5,505.5 463.375,503.75 473.625,502.5 483.0,502.0 510.75,502.0"/>
    <polyline points="512.5,502.0 519.25,501.75 530.625,500.625 542.0,498.625 554.25,495.625"/>
    <polyline points="556.125,495.125 568.125,491.5 587.125,485.0 623.25,470.875"/>
    <polyline points="627.375,469.125 675.75,448.125 709.375,433.0 721.25,428.125 725.875,426.625 729.25,425.875 730.875,426.25 730.5,428.0 728.0,431.125 723.125,435.875 716.0,442.25 696.25,458.75"/>
    <polyline points="684.375,468.375 646.875,498.375 613.625,524.125 604.375,531.0 588.375,542.25 575.5,550.25 570.0,553.125 560.625,557.375 556.625,558.75 549.5,560.375 543.5,560.75 540.75,560.625 535.75,560.0 529.125,558.375"/>
    <polyline points="527.125,557.625 504.0,549.125 495.75,547.0 484.25,545.25"/>
    <polyline points="482.5,545.125 473.625,544.625 441.375,545.125 427.0,544.625"/>
    <polyline points="423.875,544.375 409.375,542.5 396.25,539.375 391.375,537.875 380.625,533.875 368.125,528.0 361.125,524.125 345.125,513.75 336.0,507.0 326.125,498.875 315.25,489.0 303.375,477.375 290.5,463.375 276.625,446.75 262.0,427.25 246.875,404.75 232.125,379.375 218.5,351.75"/>
    <polyline points="207.625,323.0 201.125,295.375 200.75,271.375 207.75,254.125 222.375,246.0 243.625,248.25 269.125,260.0 296.625,279.25 323.5,303.25 348.25,329.25 370.0,355.125 388.25,379.5 403.25,401.625 415.375,421.125 424.75,437.875 432.0,452.25 437.5,464.25 441.625,474.375 446.625,489.75 448.0,495.5 449.5,503.875 450.125,511.125"/>
    <polyline points="450.375,512.5 450.5,513.5 451.25,514.5 453.375,514.375 463.125,510.875 470.75,508.625 479.125,506.75 487.75,505.375"/>
    <polyline points="489.875,505.0 523.125,500.75 541.25,497.375"/>
    <polyline points="543.25,497.0 559.875,492.875 595.0,482.75"/>
    <polyline points="596.5,482.375 598.875,482.125 600.0,482.375 599.125,483.75 597.75,484.875 591.875,488.75 571.625,500.25 545.875,513.625 505.875,533.25 479.75,545.25 449.75,558.25 416.75,571.375 382.75,583.25 350.25,592.25 321.875,596.875 300.0,596.0 285.5,589.625 278.125,578.625"/>
    <polyline points="276.375,564.375 278.75,548.25 283.25,531.625 288.875,515.25 304.625,473.0 318.0,434.375 320.625,427.625 323.25,421.875 325.875,417.125 328.875,413.25 332.0,410.5 335.5,408.5 339.375,407.5 343.5,407.25 347.875,407.875 352.625,409.125 357.5,411.0 367.625,416.375 378.0,423.125"/>
    <polyline points="383.125,426.875 402.375,442.375 441.0,475.75 461.0,491.75"/>
    <polyline points="462.375,492.875 470.0,499.125 473.25,502.5 474.625,504.25 475.375,505.75 475.75,507.125 475.5,508.75"/>
    <polyline points="475.375,509.25 474.375,510.625 473.125,511.625 469.5,513.375 463.375,515.0 457.5,515.75"/>
    <polyline points="456.25,515.875 450.375,516.25 439.5,515.875 432.875,515.125 425.5,513.75 417.0,511.625 410.625,509.625 399.75,505.25 395.875,503.375"/>
    <polyline points="391.625,501.25 382.625,496.125 372.625,489.625 367.25,485.625 355.75,476.25 343.125,464.5 329.75,450.0 323.0,441.625 316.25,432.5 309.625,422.875 303.375,412.625 297.75,402.125 292.875,391.5 289.25,381.0 287.0,371.25 286.375,362.625 287.625,355.625 290.875,350.5 296.125,347.625 303.125,347.25 311.625,349.25"/>
    <polyline points="321.375,353.5 331.875,359.75 342.875,367.5 353.875,376.375 364.75,385.875 385.125,405.5 425.0,447.5 437.0,459.75 451.75,473.625 463.75,483.25 473.875,489.625 482.75,494.0"/>
    <polyline points="485.5,495.125 490.625,496.875 497.75,498.625 504.5,499.75 508.625,500.125 518.625,500.375 530.125,499.5 537.625,498.375"/>
    <polyline points="539.625,498.0 555.5,494.375 566.375,491.25 584.0,485.5 598.875,480.0"/>
    <polyline points="602.125,478.75 629.75,467.75 663.375,453.125 685.75,442.75 751.25,411.5 759.25,407.875 765.375,405.625"/>
    <polyline points="768.625,405.25 768.375,407.25 764.0,412.0 755.25,419.875 669.75,491.5 635.25,521.5 568.375,581.75 560.25,588.0 554.625,591.25 550.375,592.375 548.625,592.25 547.125,591.75"/>
    <polyline points="545.625,591.0 542.875,589.0 532.625,576.875 524.125,568.125 516.625,562.125 510.375,558.375"/>
    <polyline points="508.875,557.625 501.0,554.25 491.375,551.75 484.75,550.75 479.625,550.375 466.875,550.375"/>
    <polyline points="464.875,550.5 434.875,552.625 419.75,553.0 405.125,552.125 392.0,550.0"/>
    <polyline points="387.0,548.875 376.0,545.5 369.875,543.25 356.0,536.75 348.0,532.25 339.25,526.75 329.5,519.875 318.75,511.5 306.75,501.125 293.375,488.375 278.5,472.625 262.125,453.5 244.375,430.25 225.625,402.5 206.625,370.375 189.125,334.375 175.125,296.5 167.75,260.0 169.625,229.75 182.75,210.625 206.625,206.125 238.375,216.75 274.0,239.75 309.125,270.75"/>
    <polyline points="340.875,304.875 367.75,338.875 389.125,370.5 405.5,398.375 417.375,422.625 425.5,443.0 430.625,460.125 433.25,474.375 434.0,486.125 433.25,495.75 431.625,503.5 429.375,509.75 426.625,514.625 423.875,518.375 419.0,522.875 415.625,524.125 414.75,523.75 414.375,523.0 414.625,521.875 416.5,518.75 420.0,515.25 422.25,513.5"/>
    <polyline points="424.75,511.75 430.125,508.5 438.875,504.625 444.75,502.75 453.375,501.0 461.375,500.125 471.0,500.0 486.875,501.5"/>
    <polyline points="488.5,501.75 509.5,504.75 518.375,505.125"/>
    <polyline points="519.25,505.125 529.125,504.25 534.625,503.25 542.75,501.25"/>
    <polyline points="543.75,501.0 561.625,495.5 580.875,488.625"/>
    <polyline points="582.875,487.875 614.0,475.75 665.375,454.375"/>
    <polyline points="669.875,452.5 678.5,449.0 689.625,445.125 694.375,444.25 695.625,444.625 695.875,445.5 695.125,447.125 693.25,449.375 686.25,456.125 675.25,465.25 661.375,476.125 646.125,487.625 630.625,498.625 616.0,508.5 602.625,516.75"/>
    <polyline points="596.5,520.25 590.875,523.375 580.5,528.375 571.625,531.875 560.25,535.0 550.875,536.25 545.5,536.375 540.625,536.125 532.25,534.875 521.875,532.5"/>
    <polyline points="520.25,532.125 510.625,529.625 503.125,528.125 492.625,526.875 489.125,526.75"/>
    <polyline points="488.0,526.625 461.125,527.0 449.75,526.75"/>
    <polyline points="447.625,526.75 433.125,525.375 424.5,523.875 410.875,520.375 398.75,516.0 389.5,511.75 373.5,502.75 361.125,494.125 347.0,482.875"/>
    <polyline points="339.375,476.0 322.875,459.25 314.125,449.125 305.125,437.875 296.125,425.375 287.25,411.875 279.0,397.375 271.625,382.25 265.625,367.125 261.625,352.625 260.25,339.5 261.625,328.75 266.375,321.125 274.125,317.375 284.625,317.625 297.5,321.875 311.875,329.625 327.0,340.25 342.125,352.75 356.875,366.25 370.625,380.25 383.5,394.0 395.0,407.0 414.75,430.375"/>
    <polyline points="423.125,440.375 437.0,457.0 448.25,469.875 457.5,479.375 465.375,486.375 468.875,489.125 478.125,495.0 486.375,498.5 491.25,499.875 498.375,501.125 502.75,501.5 509.25,501.5"/>
    <polyline points="511.25,501.5 519.5,501.0 537.25,498.375 548.875,495.875 560.375,493.0"/>
    <polyline points="562.125,492.625 575.125,489.5 578.0,489.25 578.875,489.625 577.0,491.625 572.875,494.375 559.375,501.875 543.25,510.125 519.125,521.75"/>
    <polyline points="503.625,528.875 485.75,536.875 465.625,545.25 443.5,553.875 420.5,562.125 397.375,569.125 375.625,574.125 356.5,576.625 341.0,576.0 329.875,572.375 322.875,566.0 319.75,557.5 319.75,547.5 321.875,536.875 325.5,526.25 330.0,515.875 334.75,506.125 339.5,497.25 352.25,476.125 359.125,466.25 364.75,459.25 367.25,456.625"/>
    <polyline points="369.5,454.375 373.75,451.375 377.5,449.625 381.125,449.0 386.125,449.5 391.0,451.375 397.0,454.875 402.375,458.875 408.0,464.125"/>
    <polyline points="409.0,465.125 414.0,471.375 415.375,474.125 415.75,475.875 415.5,477.25 414.625,478.25 411.875,478.875"/>
    <polyline points="411.125,478.875 406.375,478.0 402.75,476.75 397.0,474.0 392.0,471.125 382.875,464.5 373.25,455.5"/>
    <polyline points="371.375,453.5 369.5,451.5 364.5,444.875 360.5,438.375 358.125,432.5 357.75,430.75 357.75,427.75 358.125,426.625 359.75,425.125 360.875,424.75 364.0,424.75 370.25,426.875 377.75,431.125"/>
    <polyline points="380.5,432.875 391.75,441.125 405.25,452.5 412.5,459.0 424.375,470.375 433.875,480.5"/>
    <polyline points="434.875,481.75 439.0,487.75 439.875,490.25 440.125,492.25 439.625,493.875 437.875,495.625 435.75,496.625 433.0,497.125"/>
    <polyline points="431.875,497.25 426.75,497.25 418.375,495.75 412.125,494.0 405.0,491.25 399.625,488.75 390.75,483.875 380.75,477.25 373.5,471.75"/>
    <polyline points="369.75,468.5 365.875,465.125 358.0,457.375 350.125,448.625 342.375,438.875 335.5,428.375 329.875,417.625 327.75,412.5 325.25,403.0 325.125,399.0 325.75,395.625 327.125,393.0 329.375,391.25 332.375,390.375 336.0,390.375 340.375,391.375 345.25,393.25 350.625,395.875 362.25,403.125"/>
    <polyline points="368.375,407.5 380.5,417.25 386.375,422.375 403.125,437.375 430.375,462.625 437.75,469.0 450.125,479.375 460.25,486.875 466.5,491.125"/>
    <polyline points="468.375,492.375 476.375,497.5 491.375,506.25 493.25,507.625"/>
    <polyline points="493.75,507.875 495.75,509.75 496.375,510.75 496.375,512.5 495.0,513.75 491.875,515.25 485.625,517.0"/>
    <polyline points="485.0,517.125 480.625,518.125 471.0,519.625 459.25,520.625"/>
    <polyline points="457.75,520.625 451.0,520.75 441.125,520.25 431.625,519.125 423.375,517.5 414.0,515.0 406.875,512.625 394.875,507.5 390.5,505.25"/>
    <polyline points="385.75,502.75 380.75,499.875 370.0,492.75 358.0,483.75 351.5,478.25 337.625,465.125 330.25,457.25 322.75,448.625 315.125,439.0 307.5,428.625 300.0,417.375 293.0,405.5 286.75,393.125 281.625,380.875 278.0,368.875 276.125,358.0 276.375,348.5 279.0,341.375 284.0,336.75 291.375,335.125 300.75,336.5 311.625,340.875 323.625,347.625"/>
    <polyline points="336.125,356.5 348.75,366.625 361.125,377.75 372.875,389.125 394.25,411.25 439.5,461.0 454.5,475.625 466.5,485.375 473.375,489.875 482.5,494.5 490.625,497.375"/>
    <polyline points="493.125,498.0 498.125,499.125 505.0,500.0 518.0,500.25 530.25,499.125 546.625,496.125"/>
    <polyline points="548.75,495.625 564.25,491.5 576.375,487.75 592.625,482.25 615.375,473.75"/>
    <polyline points="619.0,472.375 635.5,465.875 661.5,454.875 690.5,441.625 709.75,432.375 748.625,412.75 782.75,394.625 840.5,362.75 855.375,354.875 862.5,351.875"/>
    <polyline points="858.25,356.625 809.25,395.875 769.75,428.25 727.5,464.75 687.75,501.625 653.75,536.25 627.0,567.25 607.5,594.0 594.5,616.875 586.875,636.0 583.875,651.75 584.25,664.5 587.25,674.25 592.125,681.125 598.125,685.375 604.5,686.875 610.875,685.625 616.75,682.0 621.75,676.25 625.625,668.625 628.5,659.5 630.125,649.25 630.875,638.375 630.5,627.25 629.5,616.25"/>
    <polyline points="627.75,605.5 625.625,595.25 623.125,585.75 620.375,576.875 617.5,568.75 611.625,554.75 605.875,543.625 598.0,531.25 591.0,522.875 586.875,518.875 583.25,515.875 573.5,509.375"/>
    <polyline points="572.5,508.875 567.0,505.75 565.0,504.125 564.375,502.125 565.875,499.875"/>
    <polyline points="566.25,499.5 571.0,496.375 577.375,493.125 590.625,487.375"/>
    <polyline points="592.25,486.75 620.625,475.125 648.25,464.625"/>
    <polyline points="650.5,463.875 658.0,461.875 660.25,461.75 660.875,462.0 661.125,462.5 661.0,463.25 659.625,465.375 656.5,468.5 645.75,477.125 630.75,487.5 614.5,497.375"/>
    <polyline points="610.5,499.625 599.25,505.25 592.25,508.375 582.875,511.875 577.25,513.5 572.25,514.625 563.625,515.875 555.125,516.0 549.875,515.5"/>
    <polyline points="548.75,515.25 544.75,514.375 540.0,512.75 537.375,511.0 536.5,509.5"/>
    <polyline points="536.5,509.25 537.0,507.875 537.875,507.0 540.75,505.125 544.625,503.375"/>
    <line x1="545.25" x2="571.625" y1="503.125" y2="492.875"/>
    <polyline points="573.25,492.25 606.25,479.5 633.875,468.125"/>
    <polyline points="637.375,466.75 663.625,456.125 676.875,451.375 681.5,450.375 683.0,450.375 683.875,450.75 684.0,451.625 683.375,453.0 679.625,457.25 676.5,460.125 663.0,471.25 651.375,480.0"/>
    <polyline points="645.125,484.5 632.375,493.5 613.75,505.5 602.5,512.125 587.5,519.75 574.875,524.625 564.5,527.5 558.375,528.5 550.625,529.0 541.875,528.625"/>
    <polyline points="540.0,528.375 530.125,526.625 513.25,522.375 509.75,521.75"/>
    <polyline points="508.875,521.625 504.125,520.875 498.875,520.5 489.25,520.75"/>
    <polyline points="488.375,520.875 471.875,522.25 459.0,522.875"/>
    <polyline points="457.375,522.875 446.125,522.75 437.125,522.0 429.5,520.875 420.625,519.0 410.625,516.125 398.875,511.625 385.125,504.875"/>
    <polyline points="380.0,501.875 368.875,494.625 362.875,490.25 356.5,485.25 342.625,473.125 335.125,465.75 327.375,457.5 319.5,448.375 311.375,438.125 303.25,427.0 295.375,415.0 288.0,402.25 281.375,389.0 276.0,375.75 272.25,362.875 270.625,351.25 271.375,341.5 274.625,334.25 280.75,330.0 289.125,329.0 299.75,331.375 311.875,337.0 324.875,345.0 338.375,355.125"/>
    <polyline points="351.75,366.625 364.75,378.625 376.875,390.875 398.5,414.25 437.25,458.125 453.0,474.375 465.375,485.0 475.625,491.75 478.625,493.375 484.375,495.875 489.75,497.75 494.875,499.0"/>
    <polyline points="497.25,499.5 506.5,500.5 510.875,500.625 523.5,500.0 535.875,498.25 550.375,495.125"/>
    <polyline points="552.5,494.625 572.75,489.0 613.375,475.625"/>
    <polyline points="615.875,474.75 626.125,472.0 627.25,471.875 628.0,472.125 628.125,472.625 625.625,475.125 617.625,480.5 600.125,490.875 586.0,498.75 567.125,509.0 542.25,522.0 510.375,538.125 470.75,557.25 424.25,578.125 373.125,598.75 322.25,615.75 277.75,625.25 244.875,624.625 225.875,613.625"/>
    <polyline points="219.0,594.25 220.5,569.875 226.5,543.375 240.5,491.25 246.0,467.375 250.125,445.375 257.75,390.375 260.625,376.125 264.625,364.5 270.0,355.5 277.0,349.625 285.75,346.875 295.875,347.25 307.125,350.5 319.25,356.25 331.625,363.875 344.0,373.0 356.125,383.0 367.75,393.375 378.5,403.75 388.625,413.875 406.375,432.375"/>
    <polyline points="414.125,440.625 427.625,454.75 439.0,466.125 448.75,474.875 461.0,484.5 471.375,490.875 477.5,493.75 483.125,495.875 488.5,497.5 495.875,499.125 505.0,500.25"/>
    <polyline points="507.125,500.375 517.625,500.375 529.625,499.375 545.625,496.5 558.375,493.25"/>
    <polyline points="560.5,492.625 572.375,489.125 594.375,481.625 611.125,475.25 642.0,462.625"/>
    <polyline points="647.5,460.25 666.625,451.75 700.125,436.0 795.25,388.375 802.125,385.75 803.875,386.5 799.25,391.625 787.5,401.875 745.75,436.25 719.625,458.25 693.0,481.375 667.75,504.0 645.125,525.25"/>
    <polyline points="625.875,544.375 610.0,561.125 597.25,575.5 587.375,587.5 580.0,597.625 574.625,605.75 570.75,612.25 568.25,617.25 566.875,620.875 566.125,623.375 566.0,625.5 566.375,625.25 567.25,622.625 567.875,617.875 567.5,608.25 565.5,597.0 561.875,585.75"/>
    <polyline points="560.5,582.25 555.625,572.25 552.125,566.25 548.5,561.0 543.0,554.25 537.625,548.625 532.5,544.125 526.0,539.5 518.5,535.25"/>
    <polyline points="517.125,534.625 509.125,531.375 502.875,529.75 498.0,528.75 485.75,527.75"/>
    <polyline points="484.5,527.625 457.0,527.875 442.125,527.25"/>
    <polyline points="439.75,527.0 429.0,525.625 419.75,523.75 412.75,521.875 405.0,519.375 396.5,516.0 386.875,511.5 376.125,505.375 370.25,501.75 357.25,492.5 342.5,480.25 326.125,464.25 317.375,454.5"/>
    <polyline points="308.25,443.625 299.125,431.5 289.875,418.125 281.0,403.625 273.0,388.375 266.125,372.75 261.0,357.375 258.25,343.125 258.375,330.75 261.625,321.375 268.25,315.75 278.0,314.25 290.375,317.0 304.625,323.625 319.875,333.5 335.5,345.75 350.875,359.375 365.375,373.75 378.75,388.0 402.0,414.5 441.375,462.0"/>
    <polyline points="446.75,468.25 456.25,478.375 464.25,485.875 471.0,491.25 479.875,496.375 485.25,498.625 490.125,500.125 497.125,501.375 503.625,501.875 510.0,501.875 516.125,501.5"/>
    <polyline points="518.125,501.25 531.75,499.5 546.875,496.5 564.375,492.375"/>
    <polyline points="565.875,492.125 571.625,491.125 572.625,491.375 572.75,491.75 571.75,492.875 568.75,495.0 553.25,503.625 538.125,511.25 516.125,521.75 486.25,535.0 468.375,542.375 449.0,549.875 428.625,557.0"/>
    <polyline points="408.125,563.25 388.5,568.0 371.0,570.625 356.25,570.875 344.875,568.625 337.25,563.875 333.0,557.25 331.75,549.125 332.75,540.125 335.375,530.75 339.125,521.625 343.375,512.875 347.875,504.75 356.75,490.875 364.75,480.125 368.375,475.875 374.625,469.375 379.75,464.875 384.25,462.0 388.0,460.5"/>
    <polyline points="389.75,460.0 394.25,459.75 396.875,460.25 400.25,461.625 403.0,463.375 406.5,466.5 408.25,468.75 409.125,471.25"/>
    <polyline points="409.125,471.625 408.625,472.75 407.625,473.25 405.5,473.375 404.0,473.125 401.5,472.375 397.5,470.625 391.5,467.125"/>
    <polyline points="390.125,466.25 384.625,462.0 380.375,458.25 375.125,452.625 371.5,448.0 368.75,443.625 367.5,440.875 366.75,437.375 366.875,435.5 367.25,434.875"/>
    <polyline points="367.875,434.375 369.375,433.75 370.375,433.75 374.375,434.625 379.375,437.0 383.125,439.25 389.0,443.375 397.125,449.75 402.875,454.625 409.875,461.125"/>
    <polyline points="411.375,462.625 419.375,470.875 422.25,474.375 425.0,478.375 426.25,481.0 426.75,483.125 426.625,484.75 425.75,486.125"/>
    <polyline points="425.375,486.5 422.875,487.5 419.125,487.625 414.0,486.875 411.0,486.125 402.0,482.625 395.625,479.375 388.375,474.875"/>
    <polyline points="385.875,473.125 380.5,469.25 375.0,464.625 363.625,453.5 355.5,443.75 348.625,433.25 346.75,429.75 344.0,423.125 343.125,420.0 342.625,414.75 343.125,412.75 344.0,411.0 345.375,409.875 347.25,409.125 349.5,409.0"/>
    <polyline points="352.25,409.375 358.625,411.625 366.25,415.5 374.375,420.875 382.875,427.25 391.25,434.0 403.25,444.375 439.0,476.5"/>
    <polyline points="441.125,478.375 451.375,487.625 458.875,495.125 461.875,499.125 463.0,501.75 463.125,503.5"/>
    <polyline points="463.125,504.0 462.625,505.5 461.625,506.75 458.0,508.875 452.375,510.375 445.875,511.0 442.875,511.0"/>
    <polyline points="441.25,511.0 431.75,510.125 419.875,507.75 414.375,506.125 401.5,501.125 390.125,495.375 381.625,490.25 372.25,483.75 362.0,475.625"/>
    <polyline points="356.625,470.875 351.0,465.75 345.25,459.875 333.5,446.625 327.625,439.25 321.875,431.25 316.25,422.875 311.125,414.125 306.5,405.25 302.75,396.375 299.875,387.875 298.25,379.875 297.875,373.0 299.125,367.25 301.875,363.0 306.125,360.625 311.75,360.125 318.75,361.5 326.75,364.625 335.5,369.375 344.75,375.5 354.125,382.5 363.625,390.25 381.625,406.625"/>
    <polyline points="390.125,414.875 430.75,455.75 445.5,469.5 453.875,476.5 464.625,484.5 473.875,490.125 479.375,492.875 486.875,496.0 493.625,498.125"/>
    <polyline points="495.75,498.75 505.5,500.625 514.25,501.375 522.375,501.375 528.625,500.875 538.125,499.5"/>
    <polyline points="539.625,499.25 551.375,496.625 562.375,493.5 577.25,488.625 589.75,484.125"/>
    <polyline points="592.5,483.125 618.625,472.875 635.5,465.875 711.375,432.625"/>
    <polyline points="716.625,430.625 721.0,429.125 724.25,428.5 725.875,428.75 725.75,430.25 723.75,433.125 719.5,437.375 705.125,450.0 661.0,485.625 637.875,503.75 617.0,519.625 599.25,532.375 584.625,541.875 572.75,548.625 567.625,551.125 558.875,554.5"/>
    <polyline points="555.0,555.625 548.125,556.875 542.25,557.125 534.625,556.25 530.125,555.25 524.0,553.375 511.25,548.75 501.25,545.75"/>
    <polyline points="499.625,545.375 494.75,544.25 486.5,543.0 476.25,542.25 454.75,542.25"/>
    <polyline points="452.5,542.25 431.625,541.75 422.125,540.75 411.25,539.0 398.5,535.75 393.625,534.25 383.125,530.125 371.0,524.375 364.25,520.625 349.0,510.625"/>
    <polyline points="340.375,504.25 330.875,496.5 320.75,487.375 309.625,476.625 297.625,463.75 284.875,448.625 271.375,431.125 257.5,411.0 243.875,388.25 231.125,363.625 220.5,337.75 213.375,312.375 211.25,289.5 215.25,271.75 225.875,261.25 242.625,259.375 264.125,266.125 288.375,280.375 313.25,300.0 337.125,322.625 358.875,346.25 377.75,369.375 394.0,390.75 407.375,410.125 418.25,427.25 427.125,442.0"/>
    <polyline points="434.25,454.625 444.25,474.25 450.375,488.0 456.75,503.625 459.5,508.875 461.125,510.625 462.125,511.25 464.0,511.75 467.375,511.5 476.125,509.625"/>
    <polyline points="477.75,509.25 495.625,505.875 523.25,501.625"/>
    <polyline points="525.125,501.25 553.0,496.125 556.375,496.0 556.75,496.125 556.75,496.75"/>
    <polyline points="556.375,497.25 554.625,498.75 550.875,501.0 535.25,509.125 513.625,519.25 493.125,528.0 468.0,537.875 454.0,542.75 439.75,547.5 425.375,551.5 411.625,554.625 399.0,556.625 387.875,557.25 378.75,556.375 371.75,554.125 367.0,550.5 364.375,545.875"/>
    <polyline points="363.5,540.375 364.125,534.5 366.0,528.375 368.75,522.375 372.125,516.5 375.75,511.125 379.625,506.125 387.5,497.625 391.25,494.25 398.375,488.875 401.625,486.875 404.75,485.25 410.25,483.0 415.125,481.875 419.125,481.5 424.125,482.0 427.875,483.25"/>
    <polyline points="429.0,483.75 431.375,485.5 432.75,487.125 433.375,488.75 433.25,490.25 431.75,491.75 429.875,492.5 428.25,492.875 423.875,492.875"/>
    <polyline points="422.625,492.75 416.5,491.75 406.875,488.625 400.0,485.5 392.125,481.125 383.25,475.375 373.625,467.875 366.875,461.875 360.0,454.875"/>
    <polyline points="356.625,451.125 350.0,443.0 343.875,434.25 338.75,425.375 336.75,421.0 335.125,416.875 334.0,412.875 333.375,409.25 333.375,406.0 334.0,403.375 335.25,401.25 337.125,399.875 339.5,399.125 342.625,399.125 346.25,399.875 350.25,401.25 359.375,406.0 364.375,409.125 374.625,416.375 385.0,424.75"/>
    <polyline points="390.0,429.0 437.75,471.75 448.25,480.625 464.75,493.625"/>
    <polyline points="466.125,494.625 474.875,501.75 477.125,504.125 478.875,507.0 479.125,507.875 479.0,509.375"/>
    <polyline points="478.875,509.75 477.375,511.75 474.5,513.5 467.625,515.625 463.375,516.375"/>
    <polyline points="462.25,516.5 451.125,517.375 444.0,517.25 435.75,516.5 431.0,515.875 423.125,514.25 417.375,512.75 410.875,510.625"/>
    <polyline points="407.375,509.375 400.0,506.375 387.25,500.0 377.625,494.125 372.5,490.625 361.25,482.125 348.875,471.5 342.375,465.125 335.625,458.125 321.625,441.75 307.875,422.375 301.375,411.875 295.625,400.875 290.625,389.875 286.75,379.125 284.5,369.0 283.875,360.0 285.25,352.75"/>
    <polyline points="288.75,347.5 294.25,344.625 301.625,344.5 310.625,346.75 320.875,351.5 331.875,358.125 343.25,366.375 354.625,375.75 365.75,385.625 376.375,395.875 395.875,415.75 426.625,448.625 443.75,466.125 453.125,474.75 457.375,478.25 465.125,484.125 472.0,488.625"/>
    <polyline points="533.625,498.875 547.5,496.25 558.0,493.5 574.25,488.625 590.5,483.0"/>
    <polyline points="593.5,481.875 618.125,472.5 652.75,457.875 698.375,436.75 751.25,410.75"/>
    <polyline points="761.875,405.625 771.125,401.375 778.25,398.5 782.0,397.75 781.625,399.875 776.0,405.625 765.25,415.125 709.0,462.0 687.0,480.75 665.75,499.125 646.25,516.625 628.875,532.5 614.0,546.625 591.125,569.375 563.0,599.0 558.375,603.25 556.75,604.25 555.5,604.625"/>
  </g>
</svg>
