<?xml version="1.0" encoding="utf-8" ?>
<svg xmlns="http://www.w3.org/2000/svg" xmlns:cc="http://creativecommons.org/ns" xmlns:dc="http://purl.org/dc/elements/1.1/" xmlns:ev="http://www.w3.org/2001/xml-events" xmlns:inkscape="http://www.inkscape.org/namespaces/inkscape" xmlns:rdf="http://www.w3.org/1999/02/22-rdf-syntax-ns" xmlns:sodipodi="http://sodipodi.sourceforge.net/DTD/sodipodi-0.dtd" xmlns:xlink="http://www.w3.org/1999/xlink" baseProfile="tiny" height="27.09333333cm" version="1.2" viewBox="0 0 1024.0 1024.0" width="27.09333333cm">
  <metadata>
    <rdf:RDF>
      <cc:Work>
        <dc:format>image/svg+xml</dc:format>
        <dc:source>vpype read './original_svgs/Strange Attractors #393.svg' linemerge linesimplify write './Strange Attractors #393.svg'
</dc:source>
        <dc:date>2024-08-05T01:35:55.489906</dc:date>
      </cc:Work>
    </rdf:RDF>
  </metadata>
  <defs/>
  <g fill="none" id="layer1" inkscape:groupmode="layer" inkscape:label="1" stroke="black" stroke-width="0.7mm" style="display:inline">
    <polyline points="774.375,610.5 772.625,563.625 773.625,529.875 777.375,505.375 783.75,487.375 792.5,473.875 803.375,463.125 816.125,454.375 830.5,446.625 845.625,439.625 871.125,428.625 873.5,427.0 860.875,431.25 827.25,444.875 772.0,469.875 703.125,505.0 634.0,546.0 575.25,588.125 531.5,628.375 502.375,665.5 486.0,699.75 479.875,731.25 481.875,760.0 490.75,785.625 504.875,807.375"/>
    <polyline points="523.0,823.625 543.5,833.25 564.75,834.75 585.125,828.125 603.25,813.75 618.125,793.125 629.625,768.125 637.75,741.125 643.0,713.75 646.0,687.5 647.125,663.25 647.125,641.5 646.25,622.375 644.875,605.875 643.0,591.75 641.0,579.875 638.75,570.0 636.375,561.75 634.0,555.0 631.625,549.375 626.75,541.25 624.25,538.375 621.75,536.125 616.75,532.875"/>
    <polyline points="614.25,531.875 611.875,531.0 604.875,529.625 593.0,528.625 585.5,527.5 582.125,526.5 580.375,525.625 578.375,524.25 577.5,523.125"/>
    <polyline points="577.125,522.625 576.375,519.875 577.125,517.5 578.25,515.875 580.0,514.125 582.375,512.5 586.25,510.375 589.875,508.875"/>
    <polyline points="591.125,508.375 602.125,504.875 614.0,501.875 628.0,498.875 643.25,496.25"/>
    <polyline points="645.75,496.0 650.5,495.375 656.75,495.0 661.0,495.625 661.75,496.125 662.0,496.75 661.875,497.625 661.25,498.75 660.125,500.0 656.125,503.25 650.0,507.375 637.375,514.75 627.5,520.125 612.0,527.875"/>
    <polyline points="607.0,530.25 597.5,534.5 585.0,539.125 577.75,541.125 568.75,542.5 561.5,542.25 559.375,542.0 555.625,541.0 552.375,539.75 549.625,538.25 547.125,536.625 544.125,534.0"/>
    <polyline points="543.25,533.25 540.25,529.875 536.75,524.0 535.75,520.375 535.75,518.375 536.125,517.0"/>
    <polyline points="536.25,516.625 536.875,515.5 538.5,513.75 540.875,512.25 543.75,511.0 549.125,509.25"/>
    <polyline points="550.0,509.0 563.25,505.875 585.0,501.75"/>
    <line x1="587.0" x2="669.125" y1="501.25" y2="486.0"/>
    <polyline points="673.75,485.125 687.25,483.0 695.125,482.125 698.375,482.0 700.75,482.25 702.25,482.75 702.625,483.875 701.625,485.5 698.875,487.875 688.375,495.0 583.375,555.875 567.5,564.5"/>
    <polyline points="560.875,567.875 549.75,572.75 540.875,575.5 533.75,576.625 527.75,576.375 522.625,575.25 516.0,572.5 506.25,566.75 494.0,559.0"/>
    <polyline points="492.25,558.0 487.0,555.375 479.875,552.375 468.625,549.125 460.5,547.625 449.75,546.375 442.625,545.875"/>
    <polyline points="440.125,545.75 412.125,544.625 395.125,543.25 383.75,541.625 375.375,539.875 366.5,537.375 361.75,535.75 351.875,531.5"/>
    <polyline points="346.625,528.625 341.125,525.25 335.375,521.25 329.375,516.375 323.125,510.5 316.5,503.5 309.75,495.125 302.75,485.0 295.375,473.0 288.125,458.5 280.75,441.5 273.75,421.375 267.5,398.0 262.625,371.25 259.875,341.875 260.25,310.5 265.0,279.125 275.0,250.375 291.125,227.375 312.875,213.25 339.125,209.75 367.875,217.25 396.875,234.0 424.0,257.25 448.125,284.0 468.375,311.5"/>
    <polyline points="484.875,337.875 497.625,362.0 507.375,383.25 514.375,401.75 519.125,417.25 522.125,430.375 523.625,441.25 524.125,450.125 523.625,457.5 522.5,463.5 520.875,468.375 518.875,472.25 516.75,475.5 512.25,480.0 508.0,482.875 498.375,486.75 499.0,487.5 517.5,497.5"/>
    <polyline points="518.375,498.0 525.75,501.0 531.375,502.5 539.25,503.625 542.5,503.75"/>
    <polyline points="543.625,503.75 553.25,503.625 563.25,502.75 581.25,500.25"/>
    <polyline points="583.375,500.0 614.5,494.75 667.25,484.75"/>
    <polyline points="672.375,483.875 693.625,479.875 703.875,478.25 712.25,477.375 715.25,477.5 716.875,478.125 717.0,479.375 715.125,481.5 704.5,488.75 642.0,524.75 612.75,542.125 567.0,570.625"/>
    <polyline points="558.625,575.75 545.125,583.5 539.75,586.25 535.0,588.25 531.0,589.75 527.25,590.75 524.125,591.375 521.125,591.5 516.0,591.0 509.5,588.75 503.875,585.5 491.5,577.375 488.0,575.375"/>
    <polyline points="486.125,574.5 482.625,572.75 477.0,570.5 473.25,569.375 465.375,567.75 461.25,567.25 457.125,567.0 448.25,567.25 438.875,568.5 433.875,569.625"/>
    <polyline points="431.375,570.25 421.0,573.875 415.625,576.375 410.125,579.5 404.625,583.25 399.125,588.0 393.75,593.75 388.75,601.125 386.5,605.5 384.375,610.375 382.5,615.875 381.0,622.25 379.875,629.375 379.25,637.5 379.25,646.875 380.0,657.5 381.875,669.5"/>
    <polyline points="385.0,683.25 389.5,698.75 396.0,716.125 404.875,735.125 416.25,755.75 430.5,777.375 448.125,798.75 468.75,818.75 492.125,835.375 517.25,846.625 542.875,850.5 567.5,845.875 589.75,832.875 608.25,812.375 622.875,786.5 633.5,757.625 640.5,727.875 644.875,698.875 647.125,672.0 647.875,647.75 647.625,626.375 646.875,607.875 645.625,592.125 644.125,578.875 640.875,558.625"/>
    <polyline points="639.125,551.125 637.375,544.875 635.625,540.0 633.75,536.0 631.75,532.75 629.875,530.375 627.875,528.375 625.875,527.0 621.625,525.25 619.5,524.75 615.125,524.375 608.75,524.625 595.375,525.875 590.875,525.875"/>
    <polyline points="589.5,525.875 586.0,525.375 583.25,524.5 581.75,523.75 579.875,522.0 579.25,520.5 579.375,518.375 580.625,516.125 581.625,515.125"/>
    <polyline points="582.125,514.5 586.875,511.375 592.5,508.875 601.25,505.875 616.375,502.0"/>
    <polyline points="618.5,501.5 629.75,499.125 643.875,496.875 653.875,496.25 656.625,496.625 658.125,497.5 658.375,498.125 657.625,499.875 654.875,502.5"/>
    <polyline points="652.875,504.125 643.875,509.875 631.75,516.875 613.25,526.25 599.875,532.25 588.125,536.5 578.125,539.0 570.125,539.875 563.5,539.5"/>
    <polyline points="561.75,539.125 558.375,538.125 555.5,536.875 549.875,533.125 546.875,529.875 544.75,526.75 543.5,523.75 543.0,521.25"/>
    <polyline points="543.0,520.625 543.25,518.375 543.875,516.875 545.25,515.0 548.375,512.625 551.0,511.25 554.375,510.0"/>
    <polyline points="555.25,509.625 564.125,507.0 572.5,505.0 593.25,500.75"/>
    <polyline points="595.625,500.25 661.625,487.75 683.125,484.375"/>
    <polyline points="687.125,483.875 690.625,483.5 696.125,483.625 697.625,484.125 698.125,485.125 697.5,486.625 695.375,488.75 686.375,495.0 640.625,521.75 581.0,555.625 566.625,563.0 560.625,565.75 555.25,568.0 550.375,569.625"/>
    <polyline points="546.0,570.875 542.125,571.75 535.25,572.25 529.625,571.75 524.625,570.5 520.125,568.625 514.125,565.375 501.75,557.25 491.75,551.5"/>
    <polyline points="490.0,550.625 486.625,549.0 478.125,545.75 467.125,542.875 455.125,540.875 441.75,539.375"/>
    <polyline points="439.25,539.125 423.375,537.625 404.875,534.875 398.0,533.375 386.875,530.125 378.75,527.125 370.125,523.0 360.875,517.375 356.0,514.0 351.0,509.875"/>
    <polyline points="345.75,505.125 340.375,499.625 334.75,493.25 329.125,485.75 323.25,477.0 317.375,466.875 311.625,455.25 305.875,441.75 300.625,426.375 295.875,409.0 292.125,389.75 289.75,368.875 289.375,346.875 291.5,324.5 296.75,303.25 305.5,284.625 318.0,270.0 333.75,261.125 352.375,258.75 372.625,262.875 393.375,272.875 413.625,287.5 432.375,305.125 449.125,324.25 463.75,343.625 476.125,362.25"/>
    <polyline points="486.375,379.625 494.625,395.375 501.375,409.375 506.75,421.625 514.125,441.25 518.375,455.625 520.75,465.875 522.0,473.125 523.5,486.75 524.75,489.5 525.75,490.375"/>
    <polyline points="526.25,490.875 528.25,492.0 532.5,493.5 538.875,495.0 547.625,496.25 553.25,496.625"/>
    <polyline points="554.75,496.625 564.5,496.75 577.5,496.0 588.375,494.875 606.25,492.375"/>
    <polyline points="609.0,491.875 631.875,488.0 677.75,479.0 703.625,473.375 736.625,465.75"/>
    <polyline points="746.0,463.5 782.0,455.0 787.375,454.125 788.75,454.75 784.375,457.625 724.75,488.125 691.5,506.0 656.25,526.25 622.375,547.625 592.125,568.625 567.0,588.375 546.875,606.25 531.625,622.25 520.5,636.25 512.875,648.25 507.875,658.75 505.125,667.5 504.125,675.0 504.5,681.0 505.875,685.75 508.125,689.25"/>
    <polyline points="511.0,691.625 514.125,692.75 517.5,692.75 521.0,691.625 524.375,689.625 527.625,686.625 530.625,682.75 533.375,678.125 535.625,673.0 537.625,667.375 539.25,661.5 540.5,655.25 541.875,642.625 542.0,636.25 542.0,630.125 541.125,618.375 540.5,612.75 538.625,602.5 536.25,593.25 532.375,581.25"/>
    <polyline points="531.0,577.875 528.25,571.5 524.0,563.5 519.75,556.875 515.75,551.5 509.25,544.375 503.0,539.25 498.0,536.0"/>
    <polyline points="496.875,535.25 492.0,532.75 485.75,530.375 476.375,527.875 462.875,525.5"/>
    <polyline points="461.25,525.25 442.625,522.625 431.5,520.5 416.25,516.25 404.75,511.625"/>
    <polyline points="401.625,510.125 395.25,506.5 385.125,499.5 378.0,493.25 370.625,485.625 363.25,476.125 359.5,470.5 355.875,464.25 352.25,457.5 348.875,450.0 345.625,441.75 342.75,433.0 340.25,423.375 338.375,413.375 337.125,402.75 336.75,392.0 337.25,381.125 339.0,370.625 342.0,360.75 346.25,351.875"/>
    <polyline points="351.875,344.625 358.875,339.125 367.125,335.75 376.25,334.75 386.125,336.0 396.375,339.5 406.75,344.875 417.0,351.875 427.0,360.0 436.375,369.0 445.0,378.375 453.0,387.875 466.875,406.375 482.625,430.5 504.125,466.75 508.25,473.0"/>
    <polyline points="510.0,475.75 517.75,485.5 520.5,488.25 524.375,491.375 529.5,494.5 534.5,496.625 538.375,497.75 543.625,498.75"/>
    <polyline points="545.0,499.0 556.625,499.75 564.875,499.5 578.25,498.375 589.5,496.875"/>
    <polyline points="591.875,496.625 632.375,489.875 693.375,477.75"/>
    <polyline points="699.875,476.5 719.75,472.5 731.625,470.5 736.125,470.0 739.25,470.125 740.125,471.125 738.25,473.25 733.125,476.875 656.0,520.375 635.5,532.625 615.875,544.875 597.875,556.625 568.125,577.25 556.5,585.875 526.75,609.0"/>
    <polyline points="522.375,612.375 515.625,616.75 511.0,618.875 509.125,619.125 506.125,618.875 503.75,617.625 501.5,615.625 493.0,605.5 485.625,598.875"/>
    <polyline points="484.25,597.875 478.625,594.875 474.25,593.375 468.0,592.5 463.125,592.75 458.25,593.75 453.25,595.75 448.375,598.75 445.25,601.375"/>
    <polyline points="443.75,603.0 439.5,608.75 437.0,613.5 435.0,619.25 433.625,626.125 433.0,634.125 433.5,643.5 435.375,654.25 436.875,660.125 438.875,666.375 441.5,673.0 444.625,679.75 448.375,686.75 452.875,693.875 457.875,700.875 463.625,707.625 470.125,714.125 477.125,719.875"/>
    <polyline points="484.625,724.625 492.625,728.5 500.75,730.875 509.0,731.75 517.125,731.0 524.875,728.5 532.25,724.375 538.875,718.625 544.75,711.625 549.875,703.375 554.125,694.25 557.625,684.5 560.25,674.375 562.125,664.25 563.375,654.125 564.125,644.375 564.25,626.0 563.0,609.625 562.125,602.25 559.875,589.25 556.125,573.375"/>
    <polyline points="554.75,569.0 552.25,561.25 548.75,551.875 538.125,528.25 536.375,523.125"/>
    <polyline points="536.25,522.5 535.875,518.875 536.125,517.375 536.875,515.75 538.875,513.625 541.875,511.875"/>
    <polyline points="542.375,511.625 545.0,510.5 549.875,509.0 567.25,505.125"/>
    <line x1="568.75" x2="627.375" y1="504.875" y2="493.75"/>
    <polyline points="630.875,493.0 681.875,483.75 697.625,482.0 700.25,482.125 702.0,482.625 702.625,483.625 701.875,485.125 699.625,487.375 689.75,494.0 673.125,504.0"/>
    <polyline points="662.75,510.0 576.75,559.5 562.25,567.125 550.875,572.25 546.0,574.0 537.875,576.125 531.25,576.625 525.75,576.0 523.125,575.375 516.375,572.625 512.375,570.5"/>
    <polyline points="510.5,569.25 496.125,560.125 492.625,558.125 483.875,553.875 472.875,550.125 465.125,548.375"/>
    <polyline points="463.125,548.0 447.875,546.125 409.75,544.375 396.0,543.25"/>
    <polyline points="392.375,542.875 376.375,540.0 367.625,537.625 362.875,536.0 353.125,531.875 347.875,529.125 342.375,525.875 336.75,522.0 330.75,517.25 324.625,511.75 318.125,505.0 311.375,496.875 304.375,487.125 297.125,475.5 289.875,461.625 282.5,445.25 275.5,425.75 269.0,403.125 263.75,377.25 260.5,348.375 260.125,317.375"/>
    <polyline points="263.875,286.0 272.75,256.5 287.375,232.125 308.0,215.875 333.25,210.125 361.625,215.25 390.625,230.125 418.25,252.125 443.0,278.25 464.125,305.75 481.375,332.375 495.0,357.0 505.25,378.875 512.875,397.875 518.125,414.0 521.5,427.625 523.375,438.875 524.0,448.25 523.75,455.875 522.75,462.25 521.25,467.375 519.5,471.5 517.375,474.75 513.0,479.625 510.75,481.25"/>
    <polyline points="508.75,482.625 503.5,485.0 498.75,486.75 499.25,487.5 508.25,492.375"/>
    <polyline points="509.125,493.0 520.375,498.75 526.0,500.875 532.625,502.5"/>
    <polyline points="533.625,502.75 539.625,503.5 547.5,503.75 553.875,503.5 564.0,502.5"/>
    <polyline points="565.625,502.375 578.25,500.75 596.25,497.875 626.5,492.5"/>
    <polyline points="630.125,491.75 701.875,478.5 710.875,477.375 714.375,477.25 716.625,477.625 717.625,478.5 716.625,480.25 713.625,482.75 708.25,486.5 690.0,497.25"/>
    <polyline points="677.625,504.25 649.0,520.75 619.25,538.375 562.0,573.875 554.375,578.5 541.875,585.5 536.875,587.875 528.625,590.875 525.25,591.625 519.5,592.0 512.375,590.5 508.25,588.625 504.5,586.5"/>
    <polyline points="502.75,585.25 492.125,578.375 486.875,575.375 479.625,572.0 470.25,569.125 462.125,567.875 455.875,567.5"/>
    <polyline points="453.625,567.625 444.625,568.25 437.5,569.5 432.5,570.75 424.875,573.25 416.875,576.75 408.75,581.625 400.625,588.25 395.375,594.0 390.5,601.25"/>
    <polyline points="388.25,605.625 384.375,615.875 382.875,622.125 381.75,629.125 381.125,637.125 381.125,646.25 381.875,656.625 383.625,668.5 386.625,681.75 391.0,696.875 397.25,713.625 405.625,732.125 416.5,752.125 430.25,773.0 447.125,793.875 466.875,813.5 489.25,830.0 513.5,841.5 538.5,846.25 562.625,843.0 584.625,831.5 603.25,812.75 618.125,788.375 629.125,760.625 636.625,731.75"/>
    <polyline points="641.375,703.375 644.0,676.625 645.0,652.375 645.0,630.875 644.25,612.125 643.125,596.125 641.75,582.5 640.25,571.125 638.625,561.5 635.25,547.125 633.5,541.875 630.0,534.125 626.375,529.25 622.5,526.375 618.75,524.75 612.875,523.875 607.25,524.0"/>
    <polyline points="605.375,524.125 593.0,524.5 588.5,524.0 586.75,523.5 584.25,522.125 583.125,520.875 582.625,519.0"/>
    <polyline points="582.75,518.5 582.75,518.0 584.25,515.5 588.125,512.375 594.125,509.375 603.875,506.0"/>
    <polyline points="605.5,505.5 620.25,501.875 637.125,498.75 647.0,497.75 650.0,497.75 652.375,498.25"/>
    <polyline points="653.125,498.5 653.625,499.0 653.625,500.375 653.125,501.25 650.75,503.625 641.5,510.0 634.75,513.875 619.0,522.125 606.875,527.625 595.625,532.125 585.875,535.0"/>
    <polyline points="582.875,535.625 577.625,536.5 573.0,536.75 567.25,536.25 561.25,534.375 558.875,533.125 554.625,529.5 552.5,526.5 551.625,524.25"/>
    <polyline points="551.375,523.5 551.125,520.875 551.625,518.375 553.875,515.125 557.625,512.375 562.0,510.25"/>
    <polyline points="563.0,509.875 566.25,508.625 580.5,504.625 606.0,499.125"/>
    <polyline points="608.625,498.625 640.125,492.5 671.5,487.125 679.0,486.125 685.5,485.625 690.0,486.0 691.125,486.625"/>
    <polyline points="691.25,487.75 690.375,489.25 688.25,491.25 680.0,497.125 673.875,500.875 649.125,515.375 610.75,537.125 585.625,550.625 572.0,557.375 566.25,559.875 556.125,563.5 551.875,564.75 548.0,565.5 541.125,566.0 538.125,565.875"/>
    <polyline points="535.375,565.625 530.375,564.375 525.875,562.625 521.875,560.625 514.625,556.125 500.5,546.625 491.625,541.75"/>
    <polyline points="490.125,541.125 484.0,538.625 474.625,535.75 460.75,533.0 446.75,531.0"/>
    <polyline points="444.5,530.75 432.875,529.0 419.625,526.375 410.875,524.125 401.25,520.875 394.375,518.0 383.375,512.125 375.5,506.75 367.125,499.875"/>
    <polyline points="362.875,495.625 358.375,491.0 349.375,479.5 344.875,472.625 340.375,464.875 335.875,456.25 331.625,446.5 327.625,435.625 324.0,423.625 321.125,410.75 318.875,396.75 317.875,382.25 318.125,367.25 320.0,352.5 323.625,338.625 329.5,326.25 337.375,316.125 347.25,308.875 358.875,305.25 371.875,305.25 385.75,308.75 399.875,315.625 413.75,325.0 427.0,336.25 439.25,348.75"/>
    <polyline points="450.5,361.75 460.5,374.75 469.25,387.25 483.625,410.0 494.125,429.0 505.25,450.5 514.375,469.0 519.25,477.625 522.0,481.75 525.625,486.25 528.0,488.5 530.375,490.25"/>
    <polyline points="531.5,491.0 533.875,492.375 537.5,493.875 541.375,495.0 548.125,496.25 558.625,497.0 567.125,496.875"/>
    <polyline points="569.0,496.75 578.75,496.125 592.25,494.625 620.625,490.25 634.875,487.625"/>
    <polyline points="638.75,486.875 661.125,482.625 703.625,473.625 771.0,458.125 777.125,457.0 780.25,457.0 779.0,458.75 771.75,463.0 757.5,470.5"/>
    <polyline points="735.875,481.5 708.0,496.125 676.5,513.625 644.125,532.75 613.75,552.375 586.875,571.375 564.625,589.0 546.75,605.0 533.0,619.0 522.75,631.25 515.5,641.75 510.5,650.625 507.5,658.125 505.875,664.375 505.5,669.375 506.0,673.375 507.125,676.25 508.875,678.125 511.0,679.125 513.25,679.25 515.625,678.5 518.0,677.0 522.5,672.0 524.5,668.625 526.25,664.75"/>
    <polyline points="527.75,660.5 530.0,651.25 531.125,641.25 531.375,636.25 531.375,631.25 530.75,621.5 529.375,612.25 527.625,603.75 525.375,596.0 522.875,589.0 518.75,579.875 514.375,572.25 509.75,565.875"/>
    <polyline points="508.25,564.0 505.25,560.625 499.0,554.875 495.875,552.5 489.625,548.5 484.75,546.125 478.0,543.5 467.375,540.625"/>
    <polyline points="465.5,540.25 449.25,537.75 421.625,534.5 412.75,533.0 403.0,530.875"/>
    <polyline points="399.5,530.0 388.625,526.375 380.75,523.0 372.25,518.625 363.25,512.625 353.75,504.75 348.625,499.875 343.5,494.25 338.25,487.75 332.875,480.125 327.375,471.375 322.0,461.375 316.625,450.0 311.5,437.0 306.875,422.375 302.875,406.0 299.875,388.125 298.25,369.125 298.375,349.25 301.0,329.625"/>
    <polyline points="306.25,311.0 314.625,295.0 326.0,282.625 340.375,275.125 356.875,273.0 375.0,276.625 393.5,285.125 411.75,297.625 428.875,313.0 444.5,329.875 458.25,347.125 470.0,364.0 480.125,380.0 488.5,394.75 495.375,408.0 505.75,430.0 512.5,446.625 518.5,463.875 522.5,477.25"/>
    <polyline points="523.25,479.375 525.0,484.375 526.75,487.625 529.5,490.375 531.0,491.375 535.5,493.25 544.375,495.125"/>
    <polyline points="545.625,495.375 552.25,496.0 563.0,496.25 577.5,495.5 588.125,494.375"/>
    <polyline points="590.375,494.125 602.75,492.5 623.25,489.125 649.0,484.375 677.5,478.5"/>
    <polyline points="683.125,477.375 709.25,471.625 743.25,463.625 805.0,447.75 810.125,446.875 809.375,448.125 749.125,477.375 709.875,497.75 666.875,521.875 625.125,547.875 588.5,573.75 558.75,598.125 536.125,620.375"/>
    <polyline points="519.875,640.25 509.0,657.875 502.5,673.375 499.625,687.0 499.5,698.625 501.625,708.5 505.375,716.5 510.625,722.5 516.625,726.5 523.25,728.5 530.0,728.25 536.75,726.125 543.125,721.875 549.0,716.0 554.125,708.625 558.625,700.0 562.25,690.5 565.0,680.375 567.125,670.125 568.625,659.75 569.375,649.5 569.75,639.625 569.625,630.25 568.375,613.0 567.375,605.25"/>
    <polyline points="566.375,598.125 562.5,579.875 558.5,565.875 553.5,552.25 545.0,532.5 542.875,526.75"/>
    <polyline points="542.625,525.875 541.75,521.75 541.875,519.125 542.375,517.5 543.5,515.625 544.75,514.25 548.0,512.0"/>
    <polyline points="548.75,511.75 553.5,509.75 561.875,507.25 578.125,503.625"/>
    <line x1="580.0" x2="651.25" y1="503.25" y2="489.625"/>
    <polyline points="655.5,488.875 677.375,485.0 689.5,483.375 695.75,483.25 697.875,483.5 699.0,484.25 699.0,485.375 697.625,487.25 690.125,492.75 684.0,496.625 667.375,506.625 602.875,543.625"/>
    <polyline points="593.25,549.125 576.375,558.375 562.875,565.25 552.0,569.75 547.375,571.25 539.5,572.875 533.0,573.125 530.125,572.875 525.0,571.75 518.375,569.0 512.5,565.625 503.5,559.75"/>
    <polyline points="501.75,558.75 493.375,553.625 483.125,548.875 476.125,546.375 470.625,544.875 456.75,542.375"/>
    <polyline points="454.625,542.125 419.625,538.75 407.25,537.125 393.25,534.25 381.5,530.75"/>
    <polyline points="377.375,529.25 373.0,527.375 364.0,522.875 359.25,519.875 354.25,516.5 343.75,507.875 338.25,502.5 332.5,496.125 326.625,488.625 320.625,479.875 314.5,469.625 308.375,457.75 302.375,443.875 296.75,428.125 291.625,410.125 287.5,390.0 284.875,367.875 284.125,344.5 286.25,320.75 291.5,297.875 300.75,277.75 314.0,262.125 330.875,252.625 350.75,250.375"/>
    <polyline points="372.375,255.25 394.5,266.5 415.875,282.5 435.5,301.75 452.875,322.25 467.75,342.875 480.25,362.5 490.375,380.625 498.625,396.75 505.0,411.0 510.0,423.375 516.625,443.0 520.125,457.125 521.625,467.125 522.0,474.25 521.875,479.125 521.125,486.0"/>
    <polyline points="521.0,486.875 521.25,488.75 521.75,489.75 523.125,490.875 525.0,491.875 531.125,494.0 538.875,495.75"/>
    <polyline points="540.125,495.875 545.25,496.625 555.375,497.375 567.125,497.25 580.875,496.125"/>
    <polyline points="583.125,496.0 602.875,493.375 621.25,490.375 648.375,485.375 668.0,481.375"/>
    <polyline points="673.5,480.25 714.0,471.625 763.25,460.5 769.125,459.625 772.375,459.625 771.75,461.125 766.0,464.75 711.25,493.625 682.875,509.25 653.0,526.5 624.0,544.625 597.75,562.375 575.25,579.125 556.75,594.25"/>
    <polyline points="542.0,607.75 530.625,619.5 522.125,629.625 515.875,638.25 511.625,645.5 508.75,651.5 507.125,656.25 506.5,660.125 506.5,663.0 507.0,665.0 507.875,666.25 509.125,666.875 510.5,666.625 512.0,665.875 513.5,664.625 515.0,662.75 516.375,660.5 518.75,654.75 519.75,651.5 521.125,644.25 521.75,636.5 521.625,628.625"/>
    <polyline points="521.375,624.75 519.625,613.5 517.875,606.5 514.625,597.0 510.75,588.75 506.5,581.75 503.5,577.625 500.375,574.0 495.5,569.25 488.75,564.25"/>
    <polyline points="487.0,563.125 478.0,558.75 472.375,556.875 466.5,555.375 453.75,553.625 446.875,553.25 434.5,553.25"/>
    <polyline points="431.75,553.375 408.375,555.125 363.125,559.875 349.25,560.875 339.25,561.125"/>
    <polyline points="334.0,561.125 328.625,561.0 317.125,560.0 311.125,559.125 304.75,557.75 298.0,555.875 291.0,553.375 283.625,550.0 275.75,545.375 267.25,539.375 258.25,531.375 248.5,521.0 238.0,507.25 226.625,489.125 214.5,465.5 201.75,434.875 189.125,395.25 178.0,345.5 170.625,285.25 171.125,216.75 184.625,147.5 215.5,90.125 264.5,59.375 325.75,63.75 389.0,99.875"/>
    <polyline points="445.125,155.25 488.875,216.375 519.625,273.75 538.625,323.125 547.75,363.5 548.875,395.5 543.625,420.5 533.125,439.875 518.75,454.625 501.75,465.5 483.375,473.25 465.125,478.0 448.125,480.375 433.125,480.375 420.625,478.625 411.0,475.375 403.875,471.125 399.0,466.25 395.875,461.25 394.25,456.125 393.75,451.25 394.125,446.625 395.0,442.5 396.375,438.75 398.125,435.5 400.125,432.875"/>
    <polyline points="402.25,430.625 404.5,428.875 406.875,427.625 409.375,426.75 414.5,426.25 419.875,427.25 422.5,428.125 427.75,430.75 432.875,434.125 442.25,442.375 450.125,451.25 453.625,455.625 458.0,461.875"/>
    <polyline points="459.375,463.875 465.5,474.25 469.25,482.5 470.75,487.75 471.125,490.5 470.875,494.125"/>
    <polyline points="470.625,494.875 470.0,496.625 468.875,498.125 465.75,500.5 464.5,501.125 459.75,502.5 454.75,503.0"/>
    <polyline points="453.625,503.125 450.125,503.125 443.5,502.5 439.125,501.75 430.875,499.625 423.625,496.875 413.625,491.625"/>
    <polyline points="411.625,490.25 405.125,485.375 400.75,481.5 394.125,474.25 389.875,468.625 385.75,462.125 380.375,450.75 377.5,442.25 376.375,437.75 375.5,433.25 375.0,428.5 374.75,419.25 375.25,414.75 376.125,410.5 377.5,406.5"/>
    <polyline points="379.25,402.75 381.5,399.625 384.125,396.875 387.125,394.75 390.625,393.25 394.375,392.5 398.5,392.375 402.75,393.0 407.25,394.25 411.875,396.0 416.625,398.5 425.875,404.625 430.5,408.375 434.875,412.25 443.125,420.5 450.625,429.0 457.25,437.25 470.375,455.625"/>
    <polyline points="472.5,458.75 482.625,474.25 497.5,498.25"/>
    <polyline points="497.875,499.0 500.375,503.75 501.25,506.5 501.25,508.5"/>
    <polyline points="501.125,508.75 500.75,509.625 499.625,510.625 498.25,511.375 496.125,512.0"/>
    <polyline points="495.75,512.125 490.5,513.0 482.25,513.75"/>
    <polyline points="481.5,513.75 466.0,514.0 454.125,513.25"/>
    <polyline points="452.625,513.125 442.75,511.75 437.25,510.625 431.25,509.125 424.875,507.125 413.125,502.125 408.125,499.375 400.125,494.125"/>
    <polyline points="397.375,492.0 391.875,487.125 386.125,481.25 377.75,470.375 372.25,461.375 367.25,451.0 365.125,445.25 361.375,432.875 360.0,426.125 358.625,412.375 358.75,405.375 359.5,398.5 360.875,392.0 363.0,386.0 365.875,380.625 369.5,376.0 373.875,372.375 378.875,369.875"/>
    <polyline points="384.5,368.625 390.625,368.5 397.125,369.625 403.875,371.875 410.75,375.25 417.5,379.375 424.25,384.375 430.75,389.875 437.0,395.75 442.875,401.75 448.375,408.0 453.625,414.25 462.75,426.125 474.125,442.125 495.25,474.375"/>
    <polyline points="496.875,476.75 503.75,486.0 510.375,493.25 514.125,496.625 517.5,499.125 522.5,501.75"/>
    <polyline points="523.25,502.125 527.25,503.625 534.625,505.0 545.25,505.25"/>
    <polyline points="546.25,505.125 558.5,504.125 584.25,500.375"/>
    <polyline points="586.5,500.0 618.75,494.375 673.0,484.125"/>
    <polyline points="678.125,483.125 698.25,479.75 706.75,478.75 710.0,478.75 712.125,479.125 713.0,480.0 712.125,481.75 709.375,484.125 697.375,492.0 636.25,527.25 559.0,573.75"/>
    <polyline points="552.25,577.5 541.125,582.875 532.5,585.875 525.75,587.0 520.125,586.75 515.375,585.625 509.125,582.75 492.625,572.375 487.25,569.375"/>
    <polyline points="485.375,568.5 478.0,565.375 472.25,563.625 464.25,562.0 457.875,561.25 449.0,561.0 441.875,561.375 431.75,562.5"/>
    <polyline points="429.125,563.0 418.0,565.375 406.0,569.125 399.75,571.625 393.375,574.625 386.875,578.375 380.25,583.0 377.0,585.75 373.75,588.75 370.625,592.25 367.5,596.125 364.5,600.625 361.75,605.75 359.125,611.625 357.0,618.375 355.125,626.25"/>
    <polyline points="354.0,635.5 353.5,646.25 354.125,658.875 355.875,673.625 359.5,690.875 365.125,711.125 373.625,734.375 385.625,760.75 401.875,790.0 423.0,821.0 449.5,851.75 481.125,879.125 516.5,899.125 553.5,907.75 589.125,902.0 620.25,881.875 645.0,849.875 662.875,810.25 674.625,767.875 681.375,726.25 684.75,688.125 685.875,654.5 685.625,626.0 684.625,602.25 683.0,582.875 681.0,567.375"/>
    <polyline points="678.75,555.25 676.125,545.75 673.0,538.75 669.5,533.625 665.5,530.25 661.0,528.125 656.0,527.125 650.5,527.125 644.75,527.875 632.375,530.75 590.875,544.75 581.375,547.5 573.25,549.25 569.625,549.75 566.25,550.125 560.25,550.125"/>
    <polyline points="557.5,549.875 552.75,549.0 546.625,546.875 540.25,543.25 532.875,537.375 524.625,528.75"/>
    <line x1="524.0" x2="514.375" y1="528.125" y2="517.375"/>
    <polyline points="514.25,517.125 511.25,514.5 508.625,513.375 506.75,513.125 500.125,513.375"/>
    <line x1="499.75" x2="488.25" y1="513.375" y2="514.125"/>
    <polyline points="487.625,514.125 477.75,514.5 465.25,514.375"/>
    <polyline points="464.0,514.25 453.0,513.5 443.125,512.125 435.625,510.625 429.5,509.0 420.625,505.875"/>
    <polyline points="418.25,504.875 411.0,501.375 405.75,498.375 400.375,494.75 394.875,490.375 389.25,485.125 383.5,478.75 380.625,475.125 375.0,467.0 369.75,457.375 367.25,452.0 364.875,446.25 362.875,440.125 359.625,427.125 358.0,413.125"/>
    <polyline points="358.0,406.0 358.625,399.125 360.0,392.375 362.0,386.125 364.875,380.625 368.375,375.75 372.75,372.0 377.75,369.25 383.375,367.75 389.5,367.5 396.0,368.5 402.875,370.625 409.75,373.875 416.625,378.125 423.5,383.0 430.125,388.5 436.375,394.5 448.125,406.875 453.375,413.125 462.75,425.25 477.375,446.375"/>
    <polyline points="480.25,450.875 493.875,471.625 501.625,482.625 508.75,491.125 511.75,494.125 516.375,497.875"/>
    <polyline points="517.25,498.5 521.5,501.0 528.0,503.5 531.375,504.25 538.5,505.0"/>
    <polyline points="539.5,505.0 542.375,505.125 552.5,504.625 571.75,502.25"/>
    <polyline points="573.5,502.0 599.625,497.75 642.875,489.75"/>
    <polyline points="647.125,489.0 686.0,481.625 700.875,479.25 708.875,478.625 711.625,478.75 713.25,479.375 713.25,480.625 711.5,482.625 707.75,485.5 701.625,489.5 629.25,531.5"/>
    <polyline points="615.5,539.75 562.375,572.0 555.125,576.125 543.25,582.25 534.125,585.75 527.0,587.375 521.125,587.375 516.25,586.5 509.75,583.75 498.625,576.875"/>
    <polyline points="496.75,575.625 487.875,570.375 480.625,567.0 474.875,565.0 469.0,563.5 463.0,562.5 454.375,561.75 447.5,561.75"/>
    <polyline points="445.25,561.875 437.875,562.5 430.125,563.625 422.0,565.375 413.375,567.875 401.25,572.5 395.0,575.625 385.375,581.75 379.0,587.125 372.75,593.875"/>
    <polyline points="369.75,597.875 367.0,602.5 364.375,607.75 362.0,613.875 360.0,620.875 358.375,629.0 357.5,638.375 357.375,649.375 358.25,662.25 360.5,677.25 364.5,694.75 370.625,714.875 379.625,738.0 392.125,764.125 408.75,792.5 430.0,822.125 456.375,851.0 487.25,875.875 521.375,893.25 556.625,899.375 590.125,892.0 619.125,871.375 642.125,840.125 658.75,802.125 669.75,761.625 676.125,722.0"/>
    <polyline points="679.25,685.625 680.375,653.5 680.125,626.125 679.125,603.125 677.5,584.375 675.625,569.125 673.5,557.0 671.125,547.625 668.25,540.375 665.125,535.125 661.625,531.375 657.75,528.875 653.375,527.5 648.625,527.0 643.625,527.25 638.25,528.0 627.125,530.625 600.125,539.25 586.375,543.25"/>
    <polyline points="582.25,544.25 575.0,545.5 568.625,546.125 560.75,545.75 554.375,544.25 549.25,542.0 543.75,538.5 541.5,536.625 536.375,531.25"/>
    <polyline points="535.625,530.375 532.0,525.125 530.5,522.125 529.5,518.25 529.75,516.5"/>
    <polyline points="529.875,516.125 530.375,514.875 532.5,512.875 535.0,511.625 538.75,510.375"/>
    <polyline points="539.375,510.25 546.875,508.375 563.875,505.125"/>
    <line x1="565.25" x2="620.875" y1="504.875" y2="494.625"/>
    <polyline points="624.125,494.0 673.875,484.75 687.875,482.5 699.875,481.25 702.625,481.25 704.5,481.75 705.25,482.625 704.5,484.125 702.25,486.375 692.0,493.375"/>
    <polyline points="684.125,498.125 583.25,556.75 566.875,566.0 553.875,572.5 548.5,574.75 539.5,577.875 532.375,579.0 529.25,579.125 523.625,578.5 521.125,577.875 514.5,575.125"/>
    <polyline points="512.5,574.0 508.5,571.75 495.875,563.625 490.625,560.625 485.25,558.0 476.0,554.5 466.375,552.0"/>
    <polyline points="464.375,551.625 453.75,550.25 444.5,549.625 431.75,549.375 397.875,549.875"/>
    <polyline points="394.25,549.875 374.625,549.0 365.875,548.0 351.5,545.125 341.0,541.75 335.375,539.5 329.5,536.625 323.375,533.125 316.875,528.875 310.125,523.5 303.0,516.875 295.375,508.625 287.5,498.625 279.125,486.25 270.375,470.875 261.5,452.125 252.75,429.375 244.375,402.0"/>
    <polyline points="237.375,369.5 232.625,332.375 232.0,291.5 237.125,249.625 250.125,211.0 271.875,181.0 302.0,164.75 338.25,165.0 376.625,181.0 413.5,209.0 446.0,243.625 472.875,280.125 493.75,315.0 509.0,346.5 519.5,373.625 526.125,396.375 529.375,415.25 530.0,430.625 528.625,443.0 525.625,452.875 521.5,460.75 516.375,467.0 510.875,471.75 505.125,475.375 499.375,478.125 493.75,480.0"/>
    <polyline points="488.625,481.25 479.75,482.125 476.25,482.125 473.25,481.75 470.875,481.375 467.75,480.25 466.375,479.125 466.25,478.375 467.0,478.125 468.25,478.25 470.75,479.25 474.125,481.625 476.625,484.0"/>
    <polyline points="477.375,484.75 481.0,489.75 483.25,494.375 484.125,497.75 484.25,499.5 483.75,502.0"/>
    <polyline points="483.625,502.375 482.375,504.375 479.5,506.625 476.0,508.0 470.625,509.125"/>
    <polyline points="469.75,509.25 463.75,509.75 454.125,509.625 448.375,509.125 436.75,507.0"/>
    <polyline points="434.875,506.625 429.125,505.0 423.0,502.75 416.375,499.75 406.875,494.25 399.375,488.625 391.625,481.25 386.5,475.25 381.375,468.125 376.625,459.875"/>
    <polyline points="374.25,455.375 372.125,450.5 368.5,440.0 365.875,428.5 364.75,416.5 364.875,410.5 365.625,404.625 366.75,399.0 368.625,393.875 371.0,389.125 374.125,385.125 377.75,381.875 382.0,379.5 386.75,378.125 391.875,377.75 397.375,378.25 403.25,379.875 409.125,382.25 415.125,385.5 421.0,389.375 432.5,398.625 437.875,403.875"/>
    <polyline points="443.0,409.125 452.5,420.0 464.375,435.375 476.5,452.875 492.125,476.625 501.625,489.75"/>
    <polyline points="502.625,490.875 507.625,496.625 510.375,499.25 515.875,503.5 519.25,505.125"/>
    <polyline points="519.75,505.375 521.875,506.25 527.375,507.375 534.5,507.625"/>
    <polyline points="535.25,507.5 543.375,507.0 560.125,504.75"/>
    <polyline points="561.5,504.625 583.875,501.0 614.375,495.5"/>
    <polyline points="617.5,494.875 670.0,485.0 684.875,482.375 698.625,480.375 702.5,480.0 708.0,480.25 709.0,481.125 708.625,482.5 706.5,484.75"/>
    <polyline points="702.375,487.75 696.25,491.75 678.125,502.5 640.75,523.875 572.5,564.375 557.5,572.75 545.875,578.375 541.125,580.25 533.0,582.375 529.625,582.875 523.75,582.875 516.375,581.0"/>
    <polyline points="514.125,580.0 508.125,576.875 497.125,569.75 486.375,563.75 479.0,560.625 473.25,558.75 467.375,557.375"/>
    <polyline points="465.25,557.0 454.625,555.625 440.5,555.375 424.625,556.375 409.75,558.25 399.875,559.875"/>
    <polyline points="396.5,560.5 382.0,563.5 370.25,566.375 357.75,570.0 349.0,573.0 335.25,578.625 325.875,583.625 321.125,586.75 316.375,590.125 311.75,594.25 307.125,599.0 302.75,604.625 298.75,611.375 295.0,619.625 292.0,629.625"/>
    <polyline points="289.875,642.125 289.0,657.625 290.0,677.125 293.75,701.75 301.25,732.75 314.125,771.5 334.875,819.25 366.0,875.625 410.25,937.875 468.875,997.5 511.7943,1024.0"/>
    <polyline points="674.9258,1024.0 678.25,1022.5 726.5,958.625 756.125,876.75 771.125,793.625 777.25,719.75 778.75,659.0 778.125,611.75 776.0,576.375 772.125,551.0 765.625,534.0 755.875,524.25 742.0,520.5 724.0,522.125 702.5,528.0"/>
    <polyline points="678.625,537.25 654.0,548.75 630.25,561.375 608.5,574.25 589.5,586.75 573.375,598.125 560.25,608.375 549.625,617.25 535.0,631.0 522.0,644.625 519.75,646.25 519.25,646.0 518.625,644.0 517.125,627.375"/>
    <polyline points="516.625,624.375 514.625,615.5 510.875,604.25 507.375,596.75 504.75,592.25 501.875,588.0 495.875,581.0 491.0,576.625 484.25,572.0"/>
    <polyline points="482.5,571.125 477.0,568.625 471.375,566.75 465.375,565.5 459.25,564.75 454.875,564.5 445.875,564.75 436.125,566.0 428.5,567.625"/>
    <polyline points="425.875,568.375 423.125,569.125 412.0,573.375 403.25,577.875 397.375,581.75 391.5,586.625 385.75,592.625 380.375,600.25 377.875,604.75 373.5,615.875 371.875,622.625 370.625,630.375 370.0,639.375 370.125,649.625 371.125,661.375 373.25,675.0"/>
    <polyline points="377.0,690.5 382.5,708.25 390.375,728.25 401.0,750.5 415.0,774.375 432.625,799.25 454.125,823.625 479.375,845.375 507.375,861.75 536.875,870.375 565.875,869.0 592.375,857.125 614.75,835.625 632.25,806.875 645.0,774.0 653.375,739.875 658.375,706.75 660.875,676.25 661.625,648.875 661.375,625.25 660.5,605.125 659.125,588.125 657.5,574.25 655.625,562.75 653.75,553.5 651.75,546.125"/>
    <polyline points="649.5,540.25 647.125,535.75 644.625,532.375 642.0,529.875 639.125,528.125 636.125,527.0 633.0,526.375 629.75,526.125 622.875,526.5 590.875,533.0 581.375,533.75 577.375,533.625"/>
    <polyline points="575.625,533.375 571.125,532.375 568.625,531.375 566.5,530.25 563.375,527.625 562.375,526.25 561.125,523.5 560.875,520.75 561.625,518.25"/>
    <polyline points="561.875,517.625 563.125,515.875 564.875,514.25 567.125,512.625 570.875,510.625 576.75,508.25 587.5,505.0"/>
    <polyline points="589.25,504.625 616.25,498.375 640.875,493.625 658.25,490.75"/>
    <polyline points="661.75,490.25 668.375,489.375 676.625,488.875 680.125,489.5 681.0,490.125 681.125,491.125 680.375,492.5 676.0,496.375 667.5,502.125 655.375,509.375 640.625,517.875 609.0,535.25 588.0,545.75"/>
    <polyline points="582.0,548.5 571.25,552.875 562.25,555.625 554.75,557.0 548.5,557.375 545.625,557.125 538.375,555.625 532.25,553.0 524.0,547.875 517.0,542.625"/>
    <polyline points="515.75,541.75 508.625,536.375 501.0,531.625 495.625,529.0 488.125,526.25"/>
    <polyline points="487.0,526.0 480.125,524.375 472.5,523.0 452.625,520.5"/>
    <polyline points="450.875,520.25 439.25,518.375 430.625,516.5 423.5,514.5 413.125,510.75 407.625,508.25 401.75,505.125 395.625,501.25 389.25,496.625"/>
    <polyline points="386.0,493.875 382.625,490.875 375.875,483.75 369.125,475.0 362.375,464.5 356.0,451.875 350.5,437.0 348.25,428.75 346.375,420.0 345.125,410.875 344.5,401.625 344.625,392.25 345.75,383.0 347.75,374.25 351.0,366.25 355.25,359.25 360.625,353.5 367.0,349.5 374.375,347.25 382.5,346.875 391.125,348.375"/>
    <polyline points="400.125,351.625 409.25,356.375 418.125,362.375 426.875,369.375 435.125,377.125 442.875,385.25 450.125,393.5 462.75,409.625 473.125,424.625 481.625,437.625 499.0,465.75 506.625,477.25 511.375,483.25"/>
    <polyline points="512.875,484.875 515.5,487.875 520.625,492.25 523.0,494.0 527.625,496.625 533.5,498.875 543.125,500.875"/>
    <polyline points="544.375,501.0 551.125,501.375 561.625,501.125 574.0,500.0 586.5,498.375"/>
    <polyline points="588.875,498.0 620.125,492.875 683.75,480.625"/>
    <polyline points="689.625,479.5 718.375,474.375 722.75,473.875 726.125,473.875 728.0,474.5 727.875,475.875 725.375,478.25 719.875,482.0 652.375,520.625 617.875,541.375 587.75,560.625 540.125,592.625"/>
    <polyline points="534.5,596.25 525.5,601.125 522.0,602.625 516.125,604.125 513.75,604.25 509.625,603.625 507.75,603.0 502.625,600.25 490.375,591.0 485.625,588.0 482.375,586.375"/>
    <polyline points="480.75,585.5 472.25,582.625 466.875,581.75 461.25,581.625 455.5,582.125 449.5,583.5 443.5,585.75 439.375,587.875 433.25,592.0"/>
    <polyline points="431.25,593.75 427.375,597.75 425.5,600.125 422.125,605.5 420.5,608.75 419.0,612.125 417.75,616.0 415.75,624.875 415.125,630.0 414.875,635.75 414.875,641.875 415.5,648.75 416.625,656.25 418.375,664.375 420.875,673.25 424.125,682.75 428.375,692.875 433.75,703.625 440.25,714.625 448.0,725.75 457.0,736.75 467.125,747.125 478.5,756.375"/>
    <polyline points="490.875,763.75 503.75,769.0 516.875,771.375 529.875,770.625 542.25,766.625 553.5,759.375 563.5,749.25 572.0,736.75 578.875,722.625 584.25,707.375 588.125,691.75 590.75,676.125 592.375,661.0 593.25,646.625 593.375,633.25 593.0,621.0 591.25,599.625 590.125,590.625 587.625,575.25 585.0,563.125 581.5,549.625"/>
    <polyline points="580.5,546.0 575.75,529.625 575.125,526.625 574.875,522.0 576.125,517.5 577.75,515.375 580.75,512.875"/>
    <polyline points="581.625,512.25 587.0,509.375 597.25,505.75 608.5,502.75 624.625,499.125"/>
    <polyline points="627.25,498.625 645.75,495.375 653.375,494.5 661.5,494.375 662.875,494.625 664.5,495.5 664.625,496.375 664.25,497.375 661.75,500.0 656.875,503.75 649.625,508.375"/>
    <polyline points="645.25,511.0 630.0,519.5 608.125,530.625 593.125,537.25 584.5,540.5 573.375,543.5 564.5,544.5 559.625,544.25 555.375,543.5 550.0,541.625"/>
    <polyline points="548.5,540.875 544.375,538.5 538.25,533.125 534.75,529.0 531.625,524.125 530.5,521.75"/>
    <polyline points="530.375,521.25 529.75,518.875 529.875,516.5 530.375,515.25 531.25,514.125 533.0,512.75"/>
    <polyline points="533.375,512.5 540.125,510.0 549.875,507.75"/>
    <line x1="550.875" x2="589.0" y1="507.625" y2="500.625"/>
    <polyline points="591.25,500.125 660.75,487.125 679.5,483.875"/>
    <polyline points="684.25,483.0 693.125,481.75 700.375,481.25 703.0,481.375 704.75,481.875 705.125,482.875 704.125,484.625 701.5,487.0 690.5,494.25 581.5,557.75 565.5,566.625 552.875,573.0"/>
    <polyline points="547.625,575.125 538.75,578.0 531.75,579.0 525.875,578.75 520.75,577.625 514.125,574.875 510.125,572.625 497.375,564.5 488.5,559.5"/>
    <polyline points="486.75,558.625 481.25,556.25 473.875,553.75 464.0,551.5 448.75,549.75 434.0,549.375"/>
    <polyline points="431.25,549.375 390.0,549.625 373.875,548.625 360.5,546.75 350.625,544.5 340.0,541.0 334.375,538.5"/>
    <polyline points="328.5,535.5 322.25,531.875 315.75,527.25 308.875,521.625 301.625,514.625 294.0,506.0 286.0,495.375 277.5,482.375 268.875,466.375 260.0,446.75 251.25,422.875 243.25,394.375 236.75,361.0 232.875,323.125 233.5,282.0 240.375,240.875 255.25,204.125 279.0,177.125 310.625,164.75 347.25,168.75 385.375,187.75 421.125,217.5 452.25,252.625 477.625,288.75 497.125,322.75 511.25,353.125"/>
    <polyline points="520.875,379.125 526.625,400.875 529.375,418.875 529.75,433.375 528.0,445.25 524.875,454.625 520.625,462.125 515.625,468.0 510.125,472.5 504.5,476.0 498.875,478.5 493.5,480.25 488.5,481.375 480.0,482.25 473.875,481.875 469.875,480.875 467.75,479.875 467.125,479.0 468.0,478.5"/>
    <polyline points="468.625,478.5 470.875,479.25 472.625,480.25 477.625,484.5 480.375,487.75 482.5,491.0 484.5,495.5"/>
    <polyline points="484.75,496.125 485.375,498.625 485.125,502.25 483.5,505.0 480.625,507.125"/>
    <polyline points="480.125,507.375 475.0,509.0 469.25,509.875 464.25,510.25 458.375,510.25"/>
    <polyline points="457.125,510.125 447.125,509.375 442.25,508.625 433.25,506.625 421.0,502.375 411.875,497.75"/>
    <polyline points="409.375,496.375 404.5,493.125 396.875,487.0 391.625,481.875 386.375,475.875 383.75,472.5 378.75,464.75 374.0,456.0 371.875,451.0 369.875,445.875 366.5,434.75 364.5,422.75 364.125,416.625 364.25,410.5 364.75,404.5 366.0,398.75 367.75,393.5"/>
    <polyline points="370.125,388.625 373.25,384.5 376.875,381.125 381.125,378.625 386.0,377.125 391.25,376.625 396.75,377.25 402.625,378.75 408.625,381.125 414.75,384.375 420.75,388.375 432.375,397.75 443.125,408.375 448.0,413.875 461.0,430.0 471.25,444.375 481.75,460.125"/>
    <polyline points="483.875,463.375 491.125,474.375 499.125,485.75 506.75,495.0 512.0,499.875"/>
    <polyline points="512.625,500.375 517.5,503.75 520.375,505.125 523.875,506.25 527.375,506.875"/>
    <polyline points="528.0,507.0 537.75,507.25 547.75,506.375"/>
    <polyline points="548.75,506.25 565.375,504.0 587.25,500.375"/>
    <polyline points="589.5,499.875 629.875,492.625 678.125,483.5"/>
    <polyline points="683.125,482.625 697.25,480.5 704.875,479.875 707.5,480.0 709.125,480.625 709.375,481.75 707.875,483.625 704.625,486.375 699.25,490.0 691.75,494.5 619.5,536.375 575.625,562.625 559.75,571.625 553.25,575.0"/>
    <polyline points="547.625,577.75 542.625,579.875 538.125,581.375 530.625,583.125 524.5,583.25 519.375,582.375 514.75,580.75 510.625,578.75 494.0,568.375 486.75,564.5"/>
    <polyline points="485.0,563.625 479.5,561.25 473.75,559.375 465.875,557.5 461.75,556.875 453.0,556.0 448.375,555.875 441.25,555.875 430.875,556.5"/>
    <polyline points="428.125,556.75 416.75,558.0 400.875,560.625 390.5,562.875 375.625,566.625 363.5,570.5 355.125,573.625 346.5,577.5 337.625,582.25"/>
    <polyline points="333.25,585.125 328.75,588.5 324.375,592.375 320.125,596.75 316.0,602.0 312.125,608.25 308.5,615.625 305.5,624.625 303.25,635.5 301.875,648.875 302.0,665.5 304.25,686.0 309.25,711.625 318.375,743.25 333.125,782.125 355.5,828.5 387.75,881.375 431.75,936.875 487.625,986.75 551.75,1018.75 616.625,1021.125 672.875,989.25 714.125,930.0 739.75,856.875 753.25,782.875 759.125,716.5"/>
    <polyline points="760.75,661.125 760.125,617.125 758.375,583.375 755.25,558.5 750.375,541.125 743.25,529.875 733.375,524.0 720.25,522.625 704.25,525.0 686.0,530.5 666.25,538.375 646.125,547.625 626.75,557.625 608.75,567.75 592.625,577.375 566.875,594.25 542.0,611.75 532.0,618.375 525.375,621.875 522.875,622.625 520.75,622.875"/>
    <polyline points="519.0,622.625 516.0,621.125 513.5,618.5 501.875,600.125 496.5,593.25 492.125,588.875 485.875,584.0"/>
  </g>
</svg>
