<?xml version="1.0" encoding="utf-8" ?>
<svg xmlns="http://www.w3.org/2000/svg" xmlns:cc="http://creativecommons.org/ns" xmlns:dc="http://purl.org/dc/elements/1.1/" xmlns:ev="http://www.w3.org/2001/xml-events" xmlns:inkscape="http://www.inkscape.org/namespaces/inkscape" xmlns:rdf="http://www.w3.org/1999/02/22-rdf-syntax-ns" xmlns:sodipodi="http://sodipodi.sourceforge.net/DTD/sodipodi-0.dtd" xmlns:xlink="http://www.w3.org/1999/xlink" baseProfile="tiny" height="27.09333333cm" version="1.2" viewBox="0 0 1024.0 1024.0" width="27.09333333cm">
  <metadata>
    <rdf:RDF>
      <cc:Work>
        <dc:format>image/svg+xml</dc:format>
        <dc:source>vpype read './original_svgs/Strange Attractors #440.svg' linemerge linesimplify write './Strange Attractors #440.svg'
</dc:source>
        <dc:date>2024-08-05T01:35:59.487017</dc:date>
      </cc:Work>
    </rdf:RDF>
  </metadata>
  <defs/>
  <g fill="none" id="layer1" inkscape:groupmode="layer" inkscape:label="1" stroke="black" style="display:inline">
    <polyline points="637.125,452.375 647.1098,436.528 656.8279,419.9914 665.9656,403.2831 674.4323,386.6208 682.5804,369.3113 690.0683,352.053 696.932,334.744 702.9658,317.9259 708.3818,301.0118 713.0891,284.2262 717.0246,267.8612 720.1613,252.0568 722.5359,236.5707 724.0735,221.8882 724.8127,207.719 724.75,194.5 723.8887,181.4681 722.2026,168.7906 719.7521,156.9456 716.5873,145.9817 712.6152,135.5954 707.9834,126.185 702.5484,117.472 696.443,109.7105 689.5284,102.7353 681.8776,96.6319 673.5358,91.4388 664.5481,87.1948 654.96,83.9384 645.2017,81.772 634.9689,80.5916 624.302,80.4318 610.8302,81.6355 597.0345,84.3123 582.6709,88.5249 568.2165,94.1625 553.8072,101.1631 539.5791,109.4644 526.0026,118.7571 512.5881,129.3719 499.623,141.0963 487.1136,153.9295 475.1708,167.7836 464.1347,182.2471 454.0709,197.1725 444.9302,212.6196 436.651,228.7541 429.3768,245.2957 422.8791,262.8538 417.5006,280.5759 413.1605,298.6558 409.9167,316.8882 407.8263,335.0138 406.8448,353.1361 406.9446,371.4775 408.1563,390.4981 410.0971,406.9346 412.9476,423.6469 416.7577,440.8791 421.6897,459.4545 425.6939,472.5004 430.5329,486.6239 451.3746,542.583 455.7329,555.602 458.4713,565.2126 461.1621,577.4832 462.6326,587.387 463.258,599.1646 462.8726,609.2856 461.6754,617.9304 460.09,625.7732 458.0733,633.1693 455.2515,641.6513 451.9002,650.1963 447.721,659.4444 443.4084,667.9486 438.5075,676.6269 432.4109,686.6423 426.0221,696.2897 417.9152,707.8542 410.8943,717.1031 401.3958,728.68 391.6153,739.8267 384.3806,747.167 381.4685,749.7122 380.25,750.375 381.5351,748.0273 384.9304,743.7263 397.8285,729.6042 413.9594,713.0007 470.7242,655.8088 486.7002,639.0041 499.3647,624.9138 512.1277,609.3347 521.0,596.875 524.3589,591.1877 526.8166,586.1942 528.5132,581.6775 529.3496,577.8579 529.1613,574.0316 528.5688,572.6872 527.7466,571.7346 526.5405,570.991 525.0884,570.6399 521.8449,571.0497 517.7677,572.6848 513.6685,575.3811 508.9909,579.5208 503.7044,585.19 496.1491,594.9356 487.9259,607.4365 463.0469,649.0625 451.5262,667.2203 440.3292,683.8476 429.7844,698.4763 410.6182,722.706 394.8232,740.7659 386.4001,749.5674 378.6314,756.9935 372.5,762.0625 370.9609,762.9922 370.0713,763.0783 370.1897,762.2407 371.1875,760.5156 375.4383,754.99 383.1154,746.2257 393.1958,735.4125 416.1537,712.0344 478.6208,649.884 494.6772,633.156 508.027,618.4287 521.3611,602.3009 530.908,588.9676 534.2509,583.349 537.1302,577.6171 539.0524,572.6649 540.035,568.5273 540.2085,565.7326 540.006,563.5817 539.4768,561.8283 538.6362,560.4571 537.169,559.2425 535.5623,558.5487 533.754,558.23 531.351,558.3425 526.7838,559.7055 521.86,562.4943 516.875,566.5679 511.1447,572.5318 504.8126,580.8541 496.6167,593.9395 471.3406,640.7461 459.8195,660.3847 446.1999,681.7293 430.9818,702.9309 420.4589,716.5735 409.2698,730.174 398.3353,742.6886 387.0353,754.7814 376.1399,765.5324 365.1255,775.2906 358.516,780.154 356.37,781.2329 355.0867,781.2777 355.1054,780.0252 356.2101,777.8005 361.2666,770.842 370.6299,760.025 382.8955,746.9118 412.3538,717.4194 485.3063,646.457 505.1432,626.1955 521.2253,608.7743 534.906,592.4397 540.7519,584.6342 545.5858,577.5196 549.4077,571.1432 552.3088,565.3793 554.4555,559.9645 555.76,554.9507 556.0857,551.8884 555.9393,549.2834 555.3634,546.7239 554.2488,544.2654 552.9329,542.6197 551.3014,541.4089 548.6045,540.3329 546.0492,539.9028 543.3503,539.9759 540.3109,540.6101 537.1174,541.7113 533.9655,543.236 527.9657,547.3804 522.2362,552.9785 518.8972,557.205 515.4271,562.4452 508.7078,574.872 488.8391,624.548 482.4962,638.4068 476.5648,649.9352 468.8499,663.8003 460.79,676.9313 451.3114,691.1406 440.7495,705.7904 426.2716,724.3301 409.973,743.587 392.4025,762.6916 375.1563,780.0493 358.2146,795.4983 350.0535,802.2947 342.8174,807.863 336.8981,811.936 332.027,814.6692 328.445,815.9144 327.3174,815.9455 326.5389,815.6213 326.1428,814.9427 326.1666,813.8247 327.6079,810.2721 330.7212,805.3223 335.6244,798.7774 348.8778,783.3302 367.9404,763.2385 386.0273,745.2145 407.7297,724.3748 480.153,656.9174 504.0013,634.3587 524.7713,613.9985 542.3597,595.7664 557.1674,579.1873 568.4192,565.0622 576.9956,552.24 580.2783,546.3668 582.9738,540.6672 585.0792,534.9403 586.332,529.6356 586.7441,524.6133 586.2656,519.875 584.9668,515.8867 582.7477,512.3058 579.6944,509.2731 575.8889,506.8935 570.9774,505.1801 564.8563,504.3151 559.7283,504.5706 553.9219,505.9375 548.722,508.2216 544.3871,511.1989 540.6111,515.213 538.3378,519.4304 537.7736,521.9006 537.75,524.125 538.168,525.709 538.994,526.957 540.0479,527.9168 541.4998,528.4145 543.75,528.5 545.662,528.1667 550.375,526.25 554.6719,523.4844 561.032,518.2689 567.6082,511.9403 574.1277,504.8558 581.1128,496.5202 588.0,487.625 595.6513,477.0497 609.101,456.6611 623.7077,431.9429 635.5416,409.4379 646.6109,386.1342 655.3489,365.3845 663.6212,342.8937 670.263,321.7025 675.3702,301.6496 679.3049,281.176 681.6955,262.0983 682.4556,249.9934 682.5319,238.4546 681.9093,227.3617 680.6389,216.918 678.689,206.8646 676.1433,197.6528 672.9109,188.9711 669.1353,181.2123 664.6514,174.0585 659.6305,167.7757 653.7264,161.9738 647.5055,157.2272 640.7421,153.2996 633.4646,150.2362 625.7015,148.082 617.8544,146.9137 612.3716,146.6254 606.7654,146.7334 601.0537,147.2328 594.8892,148.1863 582.7202,151.2588 570.4149,155.9064 558.1885,162.0508 546.2184,169.5801 534.66,178.3355 523.3363,188.457 512.6558,199.5997 502.725,211.6278 493.5146,224.5886 485.3141,238.0142 477.9453,252.1212 471.331,267.1384 465.7187,282.596 461.1768,298.3044 458.2941,311.0973 456.0359,324.3693 454.4522,338.0271 453.5894,351.5785 453.4263,364.8539 453.9384,378.2528 455.1454,392.0519 457.0557,406.3031 459.088,417.8102 461.649,429.713 464.7922,442.1758 468.335,454.5495 477.3,481.3345 491.5606,520.3842 498.1836,541.0391 501.8146,556.7866 504.0204,571.6716 504.6003,583.0099 504.502,593.0584 503.4885,604.0659 502.0613,613.1218 500.1754,621.7264 497.4196,631.0297 494.3878,639.6004 490.1518,649.6471 483.6709,662.3859 476.646,674.5413 466.1893,690.5519 455.9175,704.9817 444.1218,720.2778 432.3388,734.5193 416.931,752.0631 401.7739,768.3826 385.7031,784.5309 368.1465,801.1152 352.0486,815.317 337.0888,827.4986 323.8621,837.1231 312.6802,843.9593 308.4406,846.0127 304.5477,847.3584 301.9417,847.664 300.181,847.0975 299.4927,846.1283 299.3177,844.6655 299.6901,842.689 300.6698,840.131 304.1678,833.9277 309.7236,826.052 317.1769,816.7421 326.3622,806.22 337.0246,794.7766 349.642,781.8691 375.4468,756.6652 405.9696,728.0868 499.2956,644.0307 525.5345,619.9821 550.1607,596.4473 569.8955,576.3747 586.0171,558.3699 592.7079,550.11 598.6807,542.0879 603.6641,534.661 607.6992,527.8145 610.9388,521.2839 613.2801,515.2672 614.7921,509.9103 615.6613,504.6248 615.8024,499.8501 615.224,495.2467 613.9773,491.1671 611.8404,486.9674 609.0434,483.1775 605.5303,479.7453 601.3658,476.749 596.0505,473.9228 590.6168,471.831 584.5604,470.2884 577.9844,469.3281 572.3218,469.1153 565.6261,469.6297 559.8657,470.9676 565.0,466.875 569.2781,462.7478 574.9863,456.4082 580.7817,449.2357 586.8772,440.9218 592.461,432.6639 603.6563,413.942 613.7256,394.5918 622.6836,374.6084 630.5984,353.4293 636.5769,334.0299 640.8564,315.5018 643.7242,297.267 644.8468,281.4726 644.8162,273.1562 644.4223,265.6166 643.6875,258.6719 642.5634,251.9758 641.1112,245.9298 639.2481,240.2011 636.8846,234.6038 634.0962,229.3353 630.9099,224.5119 627.5803,220.459 623.9102,216.8844 619.9024,213.832 615.4926,211.2967 611.1187,209.4562 606.156,208.0464 600.9588,207.2362 595.5554,207.0319 590.3778,207.3901 584.7662,208.3465 578.9966,209.9071 573.1934,212.0438 567.3878,214.7413 561.6105,217.984 555.8925,221.7564 550.3947,225.9373 545.0867,230.515 539.977,235.4601 535.0797,240.7443 530.4091,246.3392 525.7531,252.5331 521.3804,259.0068 517.3993,265.5742 510.2655,279.4745 504.1761,294.5128 499.3243,310.2881 495.9641,326.1861 493.8832,342.7582 493.1807,355.2937 493.2982,367.9899 494.3173,382.1246 496.0509,395.088 498.7116,408.3248 502.2422,421.834 506.3516,433.9863 511.2968,446.0213 516.924,457.2774 521.5175,464.8274 527.4085,472.5439 532.8949,477.5615 535.8798,479.6531 538.289,480.8924 541.4808,481.9777 544.7005,482.5948 547.2361,482.6759 550.2552,482.3175 556.269,480.381 561.4753,477.5257 566.8993,473.6259 571.9414,469.1023 577.5539,463.2425 583.8636,455.8899 590.2289,447.6747 596.3119,439.0199 602.7503,429.0575 608.8033,418.9131 614.5364,408.4999 620.3399,397.1508 625.8085,385.6042 630.7732,374.2225 635.3622,362.7459 639.5034,351.3739 643.1251,340.3245 648.8028,319.4915 652.8423,299.2934 654.1676,289.8678 655.0769,280.4854 655.5256,271.4689 655.5406,262.7678 655.1286,254.6345 654.2649,246.7296 652.9906,239.4673 651.344,232.8561 649.131,226.2206 646.4548,219.942 643.3299,214.1165 639.976,209.0947 636.2193,204.5648 632.0571,200.5706 627.7734,197.3439 623.0745,194.6184 618.068,192.4621 612.4243,190.7972 606.5047,189.796 600.7386,189.4673 594.7952,189.7358 588.3892,190.6688 582.2674,192.1434 575.7525,194.3076 569.5625,196.9175 563.044,200.2459 556.5766,204.1455 550.5295,208.3507 544.7456,212.9096 538.9343,218.0649 533.3483,223.6052 527.7529,229.7824 522.4355,236.3002 517.4118,243.1166 512.6976,250.1897 508.3236,257.4725 504.3199,264.9177 500.5198,272.8377 497.1021,280.8586 493.9305,289.2938 491.0409,298.1047 488.6251,306.6708 486.6332,315.1343 484.9709,323.8677 483.0318,338.363 482.0032,353.5152 481.948,368.2638 482.8633,383.2324 484.6689,397.6744 487.3317,411.6517 491.7002,429.0049 496.0293,442.6676 502.439,459.6161 509.634,475.2775 518.2012,490.3653 523.4297,497.6516 526.4628,501.1809 529.3091,503.9091 532.7917,506.5056 535.8065,508.0984 539.0347,509.0249 542.6708,509.4274 545.9378,509.144 549.3992,508.2269 554.3187,506.0361 559.5312,502.7149 565.2787,498.0536 571.5867,492.039 577.9304,485.1767 584.4054,477.3817 591.6057,467.9288 598.0956,458.715 604.9554,448.211 611.875,436.875 619.3747,423.8431 626.0499,411.4614 631.6556,400.2718 637.461,387.7641 647.9204,362.7933 655.8795,340.2803 662.4981,317.4996 667.1966,296.5123 668.8652,286.6571 670.1811,276.6001 671.0801,266.8782 671.5685,257.2321 671.6103,248.1027 671.1947,239.159 670.3787,231.1722 669.0918,223.3099 667.3263,215.7332 665.0854,208.492 662.8296,202.6896 660.4086,197.5223 657.6913,192.643 654.6777,188.0753 651.3679,183.8428 648.0113,180.2159 644.2474,176.7924 640.1311,173.6734 635.7554,170.9495 631.1343,168.6339 626.282,166.7394 621.5814,165.369 616.3227,164.3239 611.2691,163.7646 606.0628,163.6119 600.3367,163.9092 594.8474,164.6104 588.944,165.7881 582.9867,167.4009 576.9954,169.438 564.9897,174.7414 553.0854,181.6113 541.4979,189.9172 530.5032,199.4245 519.9118,210.2865 509.8886,222.4137 504.2404,230.2258 498.947,238.3495 493.8639,247.043 489.2318,255.8972 484.8862,265.2162 481.0008,274.6145 477.4435,284.3934 474.25,294.5 471.6349,304.2329 469.5,313.8336 467.7532,323.6584 466.4107,333.667 465.4813,343.8131 464.9604,354.2511 464.8771,364.4637 465.214,374.6854 466.9723,394.285 470.1775,414.3164 475.1726,435.4589 478.279,446.5522 481.6379,457.1058 488.7235,476.95 497.3215,498.6339 515.769,542.1872 519.8223,550.3724 522.263,554.4439 524.9492,558.0469 527.8911,560.5713 530.2361,561.8935 532.928,562.516 535.7796,562.5938 538.7169,562.0038 541.9857,560.7416 545.7358,558.7404 553.0494,553.359 562.9093,544.2113 573.0187,533.162 584.5647,519.0331 596.7247,502.6506 608.6103,485.3685 619.7163,467.987 632.6516,446.1786 643.7559,426.1682 653.1511,407.817 662.6952,387.5652 670.9089,368.5731 678.3837,349.5504 683.6923,334.6604 688.3939,320.1738 692.516,306.035 696.117,291.998 699.0744,278.5285 701.4575,265.3328 703.2143,252.7407 704.4204,240.1337 705.0145,227.9961 705.0093,216.4009 704.3926,205.0312 703.1775,194.3268 701.3926,184.3239 698.9735,174.7104 696.0307,165.9226 692.4435,157.5515 688.2351,149.7113 683.4111,142.4575 677.9775,135.8458 672.2151,130.1737 665.9055,125.1888 659.0536,120.9397 651.8258,117.5286 643.9142,114.8115 635.2171,112.8457 626.4848,111.7979 617.4307,111.5818 608.1072,112.2066 598.5672,113.6814 589.27,115.901 579.7587,118.9525 569.8597,122.921 559.6677,127.8268 549.5719,133.5038 539.6316,139.9046 529.5967,147.2208 520.1553,154.9464 511.0492,163.2519 502.2378,172.1933 493.8106,181.6785 485.6497,191.8532 478.0305,202.3741 470.7657,213.5002 464.1011,224.8586 458.0497,236.3813 452.4602,248.3766 447.5466,260.4071 443.1852,272.7434 438.8954,287.1777 435.3967,301.7547 432.6205,316.737 430.5693,332.2999 429.4359,347.0556 429.1056,361.6165 429.5493,376.6545 430.7679,391.9885 432.6126,406.7668 435.0669,421.0934 438.2742,435.8968 442.4959,452.2378 446.073,464.517 450.2615,477.462 469.96,533.7761 473.3631,544.9969 475.6271,554.3171 478.259,568.5882 479.3194,581.3813 479.125,592.25 477.4809,605.3986 475.3601,615.33 472.543,625.168 468.3851,636.5973 464.02,646.8324 457.933,659.0127 452.0744,669.5997 443.7509,683.2243 435.3791,695.8002 425.2662,709.703 413.5026,724.832 402.305,738.123 390.0022,751.7579 377.7703,764.2621 366.3251,774.8087 357.758,781.441 355.1246,782.8805 353.742,782.9468 353.75,781.5 354.8216,779.3314 360.344,771.7656 369.6378,761.0307 383.2965,746.4942 408.6024,721.0985 483.2459,648.7267 503.7715,627.9553 519.1019,611.6112 532.7924,595.799 543.0628,582.4279 550.6547,570.5546 553.3882,565.264 555.4499,560.2743 556.6823,556.0882 557.3169,552.5908 557.4753,549.1685 557.103,546.272 556.1902,543.7422 554.6401,541.4535 552.676,539.814 550.3474,538.7742 547.4091,538.2495 543.9538,538.3407 540.8147,538.9857 537.1851,540.3423 533.522,542.2641 530.2716,544.4934 526.7401,547.5058 523.5485,550.7897 520.2935,554.7251 517.2801,559.1475 513.5586,565.5804 510.4763,571.8006 505.6904,583.2074 496.6387,608.0554 489.791,625.4407 484.0428,638.2215 476.7148,652.7208 470.0946,664.54 460.2334,680.4157 452.1363,692.3928 441.7859,706.6281 426.8838,725.8284 411.4443,743.9918 392.8385,764.2378 375.5168,781.4754 357.0142,798.3558 348.4563,805.4701 340.5246,811.5617 334.151,815.9245 329.0768,818.7706 325.2793,820.1321 324.027,820.2132 323.0406,819.8617 322.5997,819.0956 322.5936,818.0837 323.657,815.0493 326.2284,810.6244 330.3962,804.7575 341.8379,790.968 358.7231,772.837 379.4327,751.958 402.9268,729.2656 429.6845,704.1533 490.0617,648.331 522.579,617.1571 539.6122,599.8933 553.7346,584.7129 565.0807,571.5017 574.1138,559.7095 579.5968,551.4855 583.8579,544.03 587.1043,537.0226 589.2706,530.5509 590.4031,524.2191 590.4403,518.7857 589.4111,513.8743 587.25,509.625 585.483,507.4394 583.2253,505.3286 580.7602,503.6107 577.8002,502.1213 574.5948,501.0315 570.7864,500.1816 567.0429,499.7858 563.7292,499.8179 560.1204,500.2523 556.3648,501.1284 553.0029,502.346 549.757,503.9795 546.9776,505.8714 544.7117,507.906 542.9303,510.1809 541.5637,512.8121 541.1005,515.2058 541.5209,517.3712 542.9004,518.6427 544.8301,519.2312 547.1599,518.8851 550.4927,517.7209 553.8582,515.8849 557.6667,513.2303 566.2928,505.5712 574.1082,497.3405 583.8907,485.4488 593.4159,472.6865 602.7838,458.7173 612.1952,443.6599 620.3373,429.606 628.1494,415.0095 636.0769,398.9647 643.6787,382.2602 650.304,366.378 656.2293,350.6511 660.503,337.9905 664.1889,325.76 667.5802,313.0198 670.3843,300.7905 672.6685,288.8058 674.3613,277.5215 675.5344,266.5996 676.1956,255.8256 676.3194,245.5741 675.9023,235.5222 674.9565,226.1173 673.515,217.3937 671.5211,209.0307 669.0463,201.3469 665.9689,193.957 662.3358,187.0724 658.1494,180.7489 653.4119,175.0425 648.4031,170.2442 642.901,166.1015 637.0292,162.716 630.4813,159.9358 623.5409,157.9273 616.2551,156.701 608.6711,156.2678 600.836,156.6383 593.2028,157.7445 585.1325,159.6741 577.107,162.3149 568.732,165.8104 560.3945,170.035 552.1477,174.9576 543.0849,181.2611 534.278,188.3572 525.5605,196.4186 517.2177,205.1787 509.3727,214.483 501.8372,224.5694 494.8996,235.0744 488.4138,246.2497 482.72,257.5152 477.732,268.9282 473.3152,280.737 469.3872,293.2397 466.1035,306.0034 463.5667,318.4818 461.7225,331.1127 460.5685,343.7433 460.0778,354.86 460.0405,366.6663 460.4232,377.5129 461.3094,388.623 462.759,400.3081 464.7592,412.4163 467.2117,424.6214 470.0268,436.2119 474.4656,451.6899 479.5074,467.1126 487.9832,490.2147 500.7058,523.1338 505.4702,536.7829 510.2837,551.6782 517.1557,575.3861 519.24,580.844 521.7263,585.3911 522.7529,586.7039 525.0413,588.7373 527.1051,589.7112 529.6258,590.1862 532.159,589.873 535.2138,588.902 538.437,587.2689 542.373,584.7014 550.097,578.459 559.0002,569.7524 570.4515,557.0479 582.3186,542.5382 593.7708,527.4402 606.2708,509.7658 618.3233,491.6577 630.3838,472.4138 642.5167,451.9201 652.9676,433.1472 662.9637,413.983 672.3007,394.7984 681.0841,375.3876 688.234,358.3466 694.7134,341.6123 700.5836,325.0074 705.7892,308.6666 710.4262,292.279 714.4246,276.0271 717.5953,260.6903 720.0755,245.6449 721.7866,231.3607 722.7553,217.9087 723.0242,204.8287 722.5733,191.9324 721.4162,179.7075 719.5157,167.8412 716.9368,156.7871 713.7228,146.5837 709.772,136.9316 705.0565,127.9075 699.6454,119.7106 693.4548,112.2125 686.54,105.5015 679.2385,99.837 670.9973,94.8143 662.48,90.8653 653.4103,87.8244 644.2105,85.8006 634.3835,84.6828 624.278,84.5257 613.5201,85.3305 602.5119,87.0947 591.3248,89.7945 580.03,93.4064 567.2375,98.5505 554.8631,104.5995 542.6355,111.6533 530.3618,119.8599 518.4252,128.9501 506.6445,139.0684 495.3823,149.9096 484.4444,161.6727 474.4119,173.7072 464.8573,186.5074 456.2367,199.4635 448.2823,212.9146 440.998,226.8503 434.2693,241.5551 428.3204,256.5993 423.1789,271.8876 418.7829,287.6509 415.3179,303.2165 412.6606,319.1389 410.8895,334.9388 409.9414,351.275 409.8656,367.6286 410.6549,384.2701 412.2665,400.5779 414.343,414.7429 417.1536,429.4724 420.8569,445.296 424.8593,459.8101 429.5106,474.5713 435.7139,492.5076 454.6212,543.8951 457.8399,553.7194 460.143,562.0058 462.8583,573.8354 464.3391,583.5233 465.1698,595.883 464.7673,606.4122 463.7286,614.7251 462.2296,622.514 459.608,632.3754 456.877,640.7402 453.5631,648.9544 449.0164,658.8272 444.2508,668.1422 439.2379,676.9769 431.6812,689.1519 424.7082,699.5278 416.8084,710.376 407.7911,721.9329 397.5481,734.2026 388.6327,744.073 380.7301,751.803 378.25,753.75 377.1153,754.1365 378.1975,751.8805 381.7022,747.4745 397.5928,730.098 415.9954,711.2769 470.0313,657.1893 486.713,639.8209 499.8202,625.4804 511.7608,611.3054 520.9437,598.9693 527.6813,588.1085 529.9872,583.4534 531.6169,579.1777 532.703,573.912 532.6539,571.7494 532.2228,570.0899 531.3942,568.6874 529.9189,567.4836 528.4443,566.9744 526.6381,566.875 524.5353,567.1964 522.2751,567.9464 517.1945,570.8185 511.7439,575.2891 506.3098,580.9287 500.0586,588.832 491.85,601.293 483.6345,615.021 467.019,643.981 452.0513,668.0588 441.5449,683.7109 428.9493,701.1264 421.3669,710.9482 409.5944,725.3801 401.1926,735.1656 392.4481,744.7635 382.5802,754.9155 374.2744,762.7752 368.574,767.3259 366.7903,768.304 365.8328,768.3738 365.7834,767.5237 366.6531,765.8431 371.5597,759.3136 378.7117,751.0805 389.5571,739.4798 413.5723,715.0608 478.8752,650.6486 494.4788,634.5353 509.5304,618.1529 522.5121,602.9525 531.9076,590.43 539.1337,578.8865 541.6111,573.8925 543.3199,569.4627 544.7633,563.3035 544.8534,560.6738 544.5,558.5 543.7083,556.5518 542.3378,554.7477 540.5416,553.5586 538.4319,553.0118 535.8862,552.905 533.1865,553.2966 530.7819,554.077 527.4942,555.6821 521.4478,559.8561 515.4858,565.6564 508.7721,574.2632 501.2598,586.3807 494.2419,599.5781 475.1446,637.5603 463.5215,657.9457 449.116,680.9535 432.5416,704.2997 421.1537,718.9884 408.1284,734.6213 395.9739,748.3075 383.4869,761.4492 371.3244,773.2319 360.6033,782.519 352.2016,788.5858 349.625,789.875 348.0559,789.9638 347.7826,789.3517 347.8981,788.5659 349.0082,786.129 354.7142,778.1148 364.8657,766.2779 378.9249,751.2785 410.5019,719.8176 489.4425,643.7762 509.3119,623.8053 525.1254,607.0482 538.2113,591.926 548.6245,578.2475 556.3545,566.11 559.1348,560.751 561.339,555.537 562.691,551.243 563.437,547.441 563.625,544.125 563.1936,540.4819 562.1532,537.4882 560.594,535.1437 558.5669,533.4213 555.9306,532.1204 553.0308,531.3901 549.5267,531.2263 545.6986,531.7235 541.6487,532.9337 537.7486,534.79 534.2573,537.0267 530.7386,539.9267 527.4554,543.2864 524.0659,547.4769 521.1051,552.0454 517.0837,560.2366 514.912,565.6169 512.4033,572.9817 510.0224,581.5 503.0231,610.037 499.4886,622.4669 495.337,634.1116 489.5706,647.7978 483.493,659.8547 473.5173,676.8752 463.7744,691.6274 453.3878,706.1097 444.618,717.4875 434.776,729.5458 412.375,755.125 390.7545,777.7649 368.1604,799.4014 356.2313,810.0292 344.7376,819.7098 334.7297,827.5426 325.6394,834.0418 317.4371,839.225 310.7524,842.6467 305.7644,844.1138 304.0283,844.0425 303.0157,843.5453 302.3644,842.3986 302.3252,840.9654 303.7585,836.715 307.4527,830.3545 313.2482,822.3044 320.6189,813.2304 329.6537,802.9796 353.3397,778.2641 377.9898,754.1227 406.391,727.4195 495.9909,646.4373 522.8815,621.7035 546.6351,599.0017 565.3417,580.0344 581.544,562.0774 594.1897,546.2169 599.1678,539.0889 603.2704,532.475 606.3996,526.5947 609.0349,520.5557 611.0148,514.607 612.1719,509.2188 612.5852,504.031 612.2356,499.4102 611.1136,494.9875 609.1246,490.5311 606.5445,486.7285 603.2184,483.3015 598.6526,480.027 592.9829,477.1779 586.9458,475.1353 579.9475,473.6883 573.6626,473.1158 566.891,473.4544 561.0977,474.6973 558.9336,475.498 557.7731,476.25 558.7192,475.9111 561.972,473.7142 566.0093,470.2824 572.3538,463.8691 578.337,456.979 584.1111,449.5277 589.6831,441.6528 596.2498,431.5686 602.2172,421.7185 612.9656,401.8486 621.9737,382.6489 631.7037,358.346 635.2808,347.9889 638.3443,337.8685 643.3345,318.0152 646.6338,299.5425 647.6567,290.6829 648.2702,282.0296 648.4692,273.4705 648.2413,265.4641 647.5752,257.6906 646.5062,250.5695 645.0242,243.8522 643.0788,237.3254 640.6861,231.1767 638.0188,225.7911 634.9426,220.848 631.4513,216.3997 627.4751,212.4077 623.3485,209.1305 618.9084,206.3904 614.172,204.213 609.1561,202.6236 603.8776,201.6475 598.3588,201.3034 592.7823,201.5414 586.7173,202.4091 580.9109,203.8073 574.6736,205.9137 568.7728,208.4833 562.875,211.625 557.1129,215.2519 551.1934,219.5545 545.4413,224.3218 540.1482,229.2512 534.7742,234.8299 529.6207,240.7761 524.647,247.1544 520.1052,253.6787 515.8904,260.4352 511.8192,267.7175 508.0937,275.1619 501.4405,290.9364 498.7728,298.695 496.3911,306.8105 492.652,323.631 490.3026,341.0469 489.5214,354.6299 489.6063,368.6862 490.4908,382.1782 492.2245,395.3052 495.0563,409.9521 498.2621,422.4338 503.1629,437.4329 508.131,449.927 513.4892,461.372 519.0127,470.7188 524.675,478.7102 527.8141,482.2821 530.8663,485.2078 533.7505,487.3374 536.9842,489.1861 539.391,490.208 541.9689,490.8303 544.989,491.072 548.1953,490.8466 551.334,490.1363 554.632,488.9203 560.0781,485.9375 566.25,481.4375 571.8902,476.3527 577.9657,469.9026 585.0864,461.3553 592.6053,451.366 599.7079,441.036 606.5805,430.1218 613.0371,418.9732 619.3674,407.1233 626.0498,393.6022 631.8874,380.8176 637.0985,368.32 641.9305,355.5222 646.3236,342.7423 650.0248,330.6333 652.9158,319.7368 655.2886,309.1391 657.3996,297.8222 659.003,286.8108 660.0278,276.588 660.5081,267.2224 660.4878,258.34 659.9704,249.4171 658.9559,240.7369 657.4138,232.3831 655.4216,224.7906 653.0274,217.9738 650.125,211.625 646.7147,205.7713 642.8134,200.4152 638.4412,195.6165 633.3206,191.2093 628.0414,187.7462 622.3521,185.0232 616.589,183.157 610.0004,181.8868 603.1165,181.4042 595.9842,181.7156 589.0409,182.7486 581.5598,184.6241 574.4212,187.1292 567.2896,190.313 559.9141,194.3181 552.6559,198.9796 545.5511,204.2614 538.6354,210.1276 531.945,216.5424 525.7705,223.1871 519.7448,230.4408 514.0926,238.0369 508.8228,245.928 503.7576,254.3966 499.1256,263.0793 494.9706,271.8605 491.0958,281.2302 487.7401,290.6268 484.8763,300.0114 482.3109,310.0597 480.25,320.0 478.6538,329.9677 477.5517,339.6896 476.8564,349.9132 476.6098,360.2125 476.9657,374.47 478.1247,388.2885 480.254,403.296 483.1641,418.1882 486.7651,432.0737 491.8091,448.3994 496.575,461.1687 503.4954,477.6986 510.2233,491.6693 517.0285,503.8566 522.3643,511.5057 527.2012,517.0543 532.1821,521.0008 535.0755,522.3221 538.0,523.125 540.4922,523.3486 543.1639,523.1132 546.6767,522.2842 549.5324,521.1759 553.3242,519.1532 557.399,516.4491 565.5521,509.6379 575.3331,499.4716 585.0,487.875 596.0066,473.0731 606.3656,457.6619 616.9451,440.2619 627.5146,421.309 636.6243,403.5751 644.9629,385.7969 652.3569,368.3529 659.1602,350.4595 664.859,333.4732 669.7242,316.6179 673.769,299.711 676.8558,283.4767 678.8502,269.0547 679.9953,255.1084 680.2389,242.0603 679.6129,229.5822 678.0956,217.4977 675.7284,206.3288 672.5535,196.1622 668.6195,187.0587 663.7048,178.6195 658.074,171.2907 651.645,164.9243 644.4487,159.6014 636.8609,155.5545 628.6239,152.6117 619.666,150.8071 610.1633,150.1864 604.3554,150.3872 598.8113,150.9589 587.4963,153.2133 575.9799,156.9445 564.0954,162.2885 552.0979,169.1695 540.419,177.334 529.1865,186.6657 518.5285,197.0482 508.6597,208.2565 499.5924,220.2077 491.0013,233.3481 483.375,246.9352 476.4132,261.505 470.5337,276.188 465.6289,291.2159 461.7448,306.4015 459.3314,318.776 457.5482,331.2612 456.3667,344.1298 455.8317,356.8013 455.9149,369.7112 456.6227,382.7589 457.9388,395.8805 459.8417,408.6894 462.002,419.963 464.8005,432.2777 467.832,444.0933 471.2836,455.8175 478.2554,476.7258 492.9922,516.3984 500.213,537.8641 503.3805,549.3172 505.0585,556.6865 506.7038,565.188 508.2205,575.6858 509.0746,586.6619 509.3722,597.932 508.8874,610.6286 507.9294,621.6071 505.9625,633.0856 503.5732,642.3671 500.4817,651.3355 496.7504,659.9996 490.1371,672.5164 481.7186,686.0382 470.5354,701.8795 457.1816,719.0895 443.6241,735.3768 424.6049,756.5802 408.3098,773.8499 391.8274,790.2946 373.2166,807.7884 354.4605,824.3024 336.2835,839.1747 319.5,851.75 305.9019,860.72 294.4432,866.8572 289.649,868.7623 285.7696,869.7568 282.9883,869.8229 281.0998,868.9895 280.3043,867.6871 280.1434,865.7861 280.6583,863.2628 281.8904,860.0933 286.0501,852.6818 292.6002,843.4478 301.7432,832.1424 313.1477,819.2008 326.6074,804.8588 341.7266,789.5319 370.2456,762.1118 405.5668,729.6821 437.5416,701.1777 511.9264,635.8678 543.8459,607.2196 568.5492,584.0949 589.1701,563.4437 598.389,553.5574 606.5377,544.286 613.6054,535.6336 619.4374,527.8088 624.5303,520.1677 628.8594,512.6992 632.1813,505.8142 634.666,499.1636 636.0803,493.6728 636.7955,488.3556 636.7832,483.3255 636.0817,478.354 634.6265,473.5094 632.556,469.1934 629.7645,465.0963 626.3887,461.3901 622.1875,457.7101 617.7649,454.5469 612.9003,451.6834 607.4153,449.0375 600.9441,446.4617 594.2831,444.3513 575.0864,440.0313 572.543,438.8594 571.8633,437.5469 572.2731,435.3889 574.1051,431.9449 585.3033,415.0463 591.9617,403.8513 598.6876,390.881 604.2486,378.8708 610.1416,364.3623 614.7899,350.8806 618.5901,337.3882 621.5473,323.6514 623.3877,310.7671 624.1509,298.2943 623.8893,286.7488 622.5457,276.5975 619.9519,266.9489 618.2749,262.684 616.3059,258.7272 614.2372,255.415 611.7239,252.2176 609.014,249.4378 606.0902,247.0517 602.6222,244.9009 599.2362,243.3941 595.6238,242.3313 591.4007,241.6877 587.0817,241.6128 583.0262,242.0377 578.5122,243.0398 574.3054,244.452 569.8199,246.4422 565.3799,248.8722 560.6863,251.9515 556.3856,255.2592 552.1821,258.9756 547.9822,263.214 540.4115,272.4702 533.7512,282.7707 527.8827,294.1491 523.2339,305.8295 519.467,318.5088 516.7637,331.5669 515.1561,345.0096 514.6834,358.2261 515.3791,371.836 516.7068,382.2023 518.8715,392.3477 521.9591,403.1898 525.5663,412.3336 529.6282,420.1964 534.4091,426.9335 538.7236,431.4968 543.9397,435.0801 548.539,436.8855 553.75,437.375 558.8438,436.5312 564.125,434.375 569.7628,430.6473 575.6081,425.5235 581.7201,418.9563 587.5022,411.5941 594.6164,401.0155 601.0772,389.8915 607.4648,377.0509 613.1007,363.8795 618.0797,350.2084 622.226,336.5366 625.5271,322.6915 627.7376,309.795 628.8203,298.4896 628.9652,287.009 628.1567,276.2321 626.4703,266.868 623.8882,258.5381 620.2557,250.8798 615.8853,244.6541 610.5995,239.62 606.8529,237.0925 603.172,235.2635 598.8972,233.8342 594.7497,233.0729 590.2689,232.8623 585.683,233.1898 580.6382,234.121 575.8912,235.5184 571.1189,237.4243 566.355,239.8347 561.4202,242.8738 556.7038,246.2948 552.1041,250.1445 547.6435,254.4005 543.3446,259.0403 539.1313,264.172 531.8833,274.7195 525.2924,286.7618 519.7615,299.501 515.3624,312.9397 512.0682,327.1369 510.174,340.3666 509.3768,354.945 509.7868,370.0558 511.0499,382.0201 513.0539,393.2994 515.9202,404.176 519.7338,415.3161 524.0076,424.6695 528.654,432.7435 534.4229,439.9447 539.3099,444.1653 544.5762,446.9972 547.1585,447.7608 549.7951,448.1355 552.4861,448.1505 555.3591,447.7727 561.2522,445.7679 567.2731,442.2269 573.7895,436.8754 580.1849,430.3329 586.7178,422.3802 594.5309,411.2619 601.6933,399.3431 609.283,384.6262 616.0654,369.499 621.9167,354.2664 626.7829,339.1601 630.5746,324.3596 633.2657,310.1224 634.7646,297.3625 635.2706,284.3943 634.6985,272.5129 633.0971,262.0574 630.2832,252.1992 626.4995,243.688 624.2154,239.8627 621.673,236.3716 619.1179,233.4952 616.0258,230.6622 612.0242,227.7892 608.0464,225.6558 603.4469,223.9366 598.9486,222.9231 594.2813,222.4879 589.0537,222.6437 584.0712,223.3553 578.6513,224.7162 573.1773,226.6874 568.047,229.07 562.6314,232.1489 557.5568,235.5681 552.6001,239.4278 547.5049,243.9659 542.593,248.9382 537.8905,254.3142 529.5168,265.6746 522.149,278.1634 515.8242,291.7286 510.8638,305.6427 506.975,320.6585 504.3269,336.1112 503.0919,351.3951 503.108,367.8075 503.9526,378.9113 505.4947,389.9925 507.5682,400.5323 510.3464,410.9931 513.8627,421.5065 517.6716,430.626 522.3472,439.8664 526.9895,447.0616 531.1227,452.1938 535.718,456.3296 540.6438,459.4735 545.4791,461.0808 550.2748,461.5186 555.1332,460.6317 560.792,458.4238 566.4592,454.8897 571.2376,451.0825 576.065,446.5581 581.1374,441.0785 585.9805,435.1452 591.3125,427.875 596.6229,419.9409 606.6875,402.9219 616.2995,383.6485 625.1871,362.9472 631.5255,344.7147 636.9008,325.3571 640.3134,308.4786 642.4915,290.7409 643.0225,275.1642 642.7103,268.203 642.0117,261.4523 640.9076,254.7584 639.3985,248.3367 637.5976,242.5975 635.4177,237.2072 632.8489,232.2179 629.8728,227.6116 626.4708,223.3619 622.9871,219.8687 618.8855,216.6354 614.7521,214.1607 610.306,212.2295 605.1008,210.7581 599.7581,209.9487 594.222,209.7757 588.5284,210.2501 582.7132,211.3824 577.2076,213.0425 571.1001,215.5247 564.9877,218.6229 559.2599,222.0941 553.3185,226.305 547.8241,230.7946 542.4948,235.754 537.3174,241.1943 532.4686,246.878 527.6491,253.17 523.3351,259.4366 519.1138,266.2677 515.227,273.3184 511.8185,280.283 505.7969,295.1719 500.9211,311.2712 497.4994,327.5013 495.486,344.4703 494.8474,362.0167 495.3505,374.2133 496.7003,387.122 498.6185,399.2777 501.3471,411.372 504.8643,423.8047 508.4476,433.8732 513.765,446.0938 518.8915,455.7197 523.626,463.1408 529.421,470.0101 533.7958,473.987 539.125,477.125 543.9726,478.5115 549.2815,478.5617 554.5407,477.2822 560.5111,474.4915 565.882,470.8457 571.8599,465.7844 577.2427,460.3929 582.9459,453.8232 589.5744,445.2074 596.0792,435.9554 601.45,427.6034 608.2272,416.185 613.974,405.7908 618.9636,396.0083 624.402,384.3919 629.4646,372.666 633.7587,361.7768 637.5828,351.0567 641.4838,339.0365 644.7633,327.7057 649.1969,308.5431 652.0247,289.4186 652.8054,280.2443 653.1446,271.5502 653.0413,263.0194 652.5102,255.2682 651.533,247.6047 650.1111,240.2235 648.2267,233.1851 645.9986,226.8883 643.3242,221.0051 640.375,215.875 636.6792,210.7661 632.8031,206.4973 628.5432,202.7693 623.9133,199.6182 618.9273,197.0801 613.599,195.1909 607.6138,193.9211 601.599,193.3727 595.3778,193.4842 588.994,194.2617 582.4915,195.7109 576.3023,197.6937 569.9783,200.3295 563.3443,203.7365 556.8032,207.734 550.3851,212.2918 544.1204,217.3796 538.0391,222.9673 532.4457,228.7261 526.9231,235.0612 521.7711,241.6317 516.729,248.7858 512.0479,256.1964 507.7375,263.8286 503.8073,271.6473 500.1801,279.8141 496.7915,288.5183 493.8542,297.23 491.2478,306.2861 489.0764,315.2956 487.2332,324.6804 485.9739,333.0358 485.0383,341.9709 484.4813,351.4208 484.405,365.9561 485.1547,380.0603 486.7654,394.1144 489.2494,408.368 492.6663,422.8188 497.2624,438.1784 501.5156,449.7969 507.1834,462.9662 513.2304,475.0954 518.3427,483.8084 524.851,492.623 530.8468,498.4432 533.3672,500.291 535.7507,501.5472 538.9089,502.6793 541.4533,503.2169 544.1094,503.2969 546.8612,502.9621 550.1458,502.1176 553.1048,500.9376 559.1262,497.5013 564.941,493.0943 571.4534,487.0616 578.1606,479.8285 585.7508,470.6238 593.3754,460.4229 600.9759,449.3363 608.4849,437.4316 615.9431,424.6649 622.8662,411.8827 629.6152,398.4006 635.9396,384.7823 641.5476,371.6892 646.6411,358.6716 651.376,345.288 655.5789,332.0223 658.8694,320.2241 661.6608,308.5921 663.8453,297.5982 665.6664,286.1049 666.9633,274.9452 667.6957,264.6117 667.9111,254.7997 667.5921,245.2064 666.7029,235.9793 665.2756,227.2306 663.2854,218.8412 660.8457,211.2401 657.8642,204.1051 654.5082,197.8053 650.7866,192.2484 646.3267,186.9421 641.6522,182.508 636.5507,178.6705 631.0443,175.4645 625.5113,173.0554 619.6571,171.2658 613.5,170.125 606.9863,169.6396 600.2828,169.8172 593.4241,170.6483 586.0745,172.2186 578.6314,174.4912 571.5103,177.2905 564.3756,180.704 556.9858,184.8909 549.9813,189.4883 542.8436,194.827 536.1938,200.4274 529.4818,206.7401 523.2931,213.2045 517.1178,220.3461 511.393,227.6788 506.0928,235.1922 500.968,243.2384 496.243,251.4726 491.7482,260.1959 487.6757,269.0411 483.8878,278.3112 480.5426,287.6756 477.6603,297.0754 475.2391,306.4111 473.1108,316.3835 471.4542,326.2005 469.7443,340.9637 468.9611,356.0439 469.1144,371.1357 470.1835,386.8106 472.0293,401.6527 474.8194,416.9445 478.541,432.6963 483.0737,448.1659 489.5073,466.8621 499.2628,491.1696 512.5482,520.425 519.1203,532.8479 524.6895,540.6504 527.3652,543.3418 530.1118,545.4391 533.0064,546.6873 535.917,547.2559 538.9715,547.1479 541.8356,546.508 547.8268,543.8302 554.3688,539.3946 561.1585,533.6437 568.4838,526.1833 578.0521,515.3083 587.5142,503.5282 596.3751,491.4968 606.2338,477.0307 615.6328,462.3516 624.5711,447.5093 633.0021,432.5659 641.1073,417.2256 649.125,401.0 656.7135,384.5518 663.6219,368.3989 669.725,352.8578 674.7097,338.9521 679.2669,324.9239 683.2658,311.1764 686.6693,297.8763 689.5431,284.7721 691.7937,272.3323 693.537,259.8787 694.6708,248.0502 695.2358,236.6534 695.2332,225.407 694.654,214.7631 693.4713,204.3997 691.7249,194.7366 689.45,185.7963 686.6348,177.4451 683.1855,169.4414 680.1126,163.6105 676.6867,158.1171 672.9104,152.9875 668.7858,148.2483 664.3154,143.9257 659.7941,140.2617 654.9704,137.0123 649.6666,134.1097 644.2415,131.7494 638.2191,129.7403 632.2912,128.3089 625.7848,127.2907 619.0673,126.7878 612.552,126.7895 605.497,127.2997 598.7088,128.2651 591.821,129.7037 584.8449,131.6216 577.8828,133.9872 570.5879,136.9359 563.3149,140.3464 556.0874,144.1988 548.9293,148.473 541.8641,153.1491 528.1073,163.6271 514.7825,175.6931 502.4959,188.81 491.0265,203.1422 485.2849,211.2278 479.6825,219.819 474.4551,228.5722 469.6107,237.4504 465.1573,246.4167 461.0434,255.5867 457.2033,265.1601 453.8056,274.7107 450.722,284.5796 447.9764,294.7331 445.5891,305.1316 443.5759,315.7284 442.0305,325.8605 440.8732,336.0558 440.1131,346.3804 439.7535,356.7962 440.0889,375.6016 441.6474,394.9283 444.2964,413.2696 448.329,432.855 452.6732,449.9653 457.8375,467.1871 463.8489,485.0568 473.6558,512.3619 479.9574,531.4491 483.9992,545.743 486.334,556.2547 488.2684,571.3416 488.5118,585.4141 488.1553,591.4715 487.2637,598.7192 484.6774,611.5416 481.2909,623.0461 476.2835,636.5092 471.527,647.1843 465.1475,659.6565 457.2169,673.3705 448.2884,687.384 439.2621,700.3663 428.2066,715.1991 415.9973,730.4485 402.6613,745.8931 388.977,760.7627 375.865,773.9826 362.374,786.4082 351.0167,795.7336 345.8785,799.3889 341.8632,801.8107 338.8324,803.0944 337.2293,803.0591 336.8656,802.5909 336.8106,801.8102 337.6776,799.2739 339.7165,795.7314 342.9522,791.1813 352.6515,779.4795 366.2618,764.7378 383.8115,746.8807 405.2449,725.889 483.4957,651.9084 511.2991,624.7703 526.7334,608.9456 539.624,594.9956 549.4824,583.4422 558.0367,572.3453 563.559,564.2863 568.0087,556.83 571.4027,549.9326 573.7788,543.4896 575.054,537.6363 575.1911,532.5578 574.281,527.9496 572.2677,524.0108 570.4136,522.0027 568.3371,520.5175 565.9572,519.3078 563.0887,518.3592 560.1237,517.8489 557.082,517.74 553.6681,518.01 550.351,518.685 544.2758,521.1017 538.9433,524.6486 533.9166,529.6314 530.0778,535.4216 527.7276,541.0291 526.3555,546.5697 525.8756,551.7109 526.358,557.136 527.9297,561.3809 530.539,564.2347 531.8425,564.9046 533.3613,565.248 535.258,565.3886 537.3317,565.0923 542.3119,563.2149 547.6554,559.9841 553.3738,555.4368 560.2234,549.0238 567.7303,541.1552 575.838,531.8427 584.0719,521.6547 592.4496,510.5527 608.3063,487.7269 623.6592,463.5852 637.9267,439.0276 651.458,413.4897 663.4331,388.5261 673.9434,364.0051 683.2019,339.4445 691.1685,314.9971 695.956,297.7462 699.7976,281.287 702.7584,265.3945 704.9407,249.4134 706.2513,233.827 706.6399,219.2041 706.124,205.2676 704.7436,192.4708 702.4062,180.0976 699.2011,168.7395 695.0574,158.0614 690.1634,148.5009 684.3893,139.7778 677.9858,132.253 670.7595,125.6894 662.799,120.2278 653.7113,115.6825 643.5546,112.2327 632.7265,110.0876 621.7132,109.2842 610.2525,109.7586 598.4331,111.5393 586.6243,114.5593 574.5654,118.8263 562.1791,124.4008 549.908,131.1082 537.5389,139.0994 525.8337,147.8789 514.5719,157.57 503.7862,168.142 493.2412,179.8249 483.4246,192.0935 476.94,201.0664 470.8496,210.2405 465.1658,219.5777 459.9008,229.0399 455.0671,238.5892 450.5371,248.5057 446.4529,258.4912 442.8317,268.4441 439.5431,278.7074 436.6133,289.2488 434.0651,300.03 431.9171,311.0064 430.1838,322.1268 428.9109,333.0093 428.0334,344.2884 427.6061,355.2365 427.87,375.0369 429.426,394.9526 432.2309,414.8278 436.3135,434.8574 441.0684,453.4463 446.1082,470.1878 454.707,495.3995 464.3109,521.9756 470.4723,540.7245 473.1285,550.1104 475.7128,562.0028 477.2858,573.2711 477.9758,587.39 477.0511,599.9068 475.125,611.625 472.6449,621.5067 469.625,630.75 465.2262,641.7858 460.0038,653.0475 454.1112,664.3346 447.3953,675.9931 440.5947,686.6675 431.6998,699.6837 422.2904,712.5354 412.2394,725.3153 400.9083,738.7558 390.178,750.6776 378.6486,762.4283 368.809,771.571 359.6757,778.7676 357.3685,780.0608 356.0919,780.1976 355.9689,779.1235 357.024,776.9485 362.5508,769.4444 371.6932,758.8868 384.963,744.7466 411.7577,717.7684 483.6641,647.8511 503.0733,628.0922 518.3321,611.6611 532.3762,595.1599 542.901,580.9766 546.979,574.5613 550.1723,568.7758 552.6182,563.3463 554.1483,558.5995 554.8223,555.2637 555.082,551.9284 554.8366,549.0941 554.1272,546.7527 552.8565,544.6667 551.2341,543.0573 549.3148,541.9167 546.763,541.1784 543.8238,541.0124 540.8415,541.3497 537.7883,542.184 534.223,543.7299 531.2461,545.4716 528.0602,547.8304 521.8479,553.9009 518.1711,558.4237 515.1479,562.8496 508.141,575.7363 503.8965,585.306 495.7031,605.9082 487.2061,626.1307 482.0536,637.3837 474.892,651.4722 467.9684,663.6213 458.5588,678.7609 450.1878,691.3296 441.5332,703.3886 425.9211,723.4378 411.0046,741.2083 394.4202,759.4931 378.1016,776.1117 361.2276,791.8007 346.7558,803.7061 340.3258,808.2818 334.9803,811.5148 330.9993,813.2129 329.7808,813.4183 328.8846,813.2299 328.4016,812.6112 328.3274,811.8013 329.2378,808.9328 331.3834,805.1369 335.1198,799.8188 346.0554,786.6194 361.8698,769.4919 379.7939,751.3194 402.6978,729.0743 489.5921,647.629 520.2599,617.9966 536.2585,601.5875 549.7605,586.8338 560.6371,573.8869 569.5416,561.9555 574.7798,553.8758 578.7781,546.6062 581.681,539.8839 583.5656,533.484 584.3546,527.577 584.0447,522.5995 582.6375,518.0962 580.1183,514.1138 578.0148,512.0125 575.6517,510.3452 573.0214,509.0678 569.713,507.9583 566.7405,507.3468 563.3746,507.0802 556.409,507.752 550.5,509.625 546.884,511.501 544.0633,513.3713 539.759,517.4614 538.0328,519.9268 536.748,522.4453 535.5,526.875 535.6852,530.1991 536.2933,532.0193 536.993,533.007 539.6115,534.6195 542.6584,534.7647 546.5371,533.6496 550.6857,531.5154 555.8653,527.88 560.8844,523.6629 566.2417,518.4913 577.4553,506.0298 590.1876,489.772 603.1326,471.1502 615.5093,451.6056 626.2479,433.0214 637.0518,412.5216 647.525,390.7459 656.2043,370.7983 663.875,351.0 670.7366,330.7399 676.3232,311.3909 679.8478,296.7928 682.6843,282.3809 684.7624,268.492 686.1083,255.0019 686.6936,242.0308 686.5208,230.0451 685.6193,218.73 683.9692,207.9592 681.4657,197.3022 678.2766,187.6033 674.301,178.5581 669.7156,170.5704 664.5913,163.6399 658.7298,157.5008 651.8708,152.0188 644.6635,147.6902 636.54,144.1807 627.8607,141.7426 618.6863,140.4193 609.486,140.2376 599.6318,141.19 589.3249,143.2923 578.8755,146.4955 568.3736,150.7667 557.9092,156.073 547.9138,162.1552 538.0601,169.1877 528.2715,177.2457 518.9161,186.0199 509.7853,195.7145 501.2105,205.9933 493.2408,216.7678 487.946,224.7182 483.0582,232.7475 474.2487,249.3768 466.626,266.9366 460.1677,285.5963 455.2648,304.0854 451.7842,322.8835 449.7156,342.0583 448.9948,362.102 449.4803,378.8281 451.1328,396.1412 454.1685,415.3003 458.2189,434.1828 462.4866,450.1661 467.8959,467.8844 484.1855,513.6457 490.4864,532.6095 494.1952,546.1624 496.2574,555.6575 498.1872,570.6542 498.6,581.1087 498.3689,588.3493 497.6919,596.3784 496.3456,604.8118 494.9932,611.211 492.4156,620.7626 487.7495,634.1298 481.7768,647.7668 476.4522,658.2585 466.6889,675.2638 457.1906,689.8573 446.5696,704.693 434.2026,720.7792 420.4634,737.5091 406.0206,753.8681 389.7092,771.0355 373.2656,787.124 357.0821,801.825 342.8943,813.5588 331.0099,822.062 325.8364,825.158 321.3824,827.2855 318.5059,828.0789 316.646,827.812 316.003,826.929 315.9319,825.7853 317.0619,822.2702 320.0459,817.0599 324.8104,810.4351 331.1966,802.5535 339.349,793.253 360.1385,771.3892 381.891,749.8456 406.7678,726.1257 487.9984,651.4001 514.006,627.0844 536.779,604.9275 555.0212,586.0798 569.9253,569.1857 576.3241,561.1545 581.8023,553.6712 586.5739,546.443 590.4186,539.8039 593.375,533.75 595.6933,527.6923 597.1191,522.2558 597.7467,517.4038 597.6382,512.7902 596.8313,508.7661 595.1518,504.6306 592.7923,501.0675 589.6287,497.9373 585.9125,495.4709 580.8451,493.2054 575.3842,491.8106 569.0821,491.3059 563.3225,491.6441 557.1383,493.1821 552.7956,495.0734 549.2151,497.7976 548.0,499.25 547.1406,500.9531 547.125,502.375 547.7711,503.1851 549.5,503.5 551.3827,503.1556 556.3398,500.6806 562.4091,496.2238 568.108,490.9581 575.2206,483.2979 581.6105,475.6575 588.1023,467.079 595.839,455.953 602.9474,445.0272 609.9775,433.3956 616.8653,421.2438 623.1707,409.3137 629.2167,396.9698 635.1471,384.0274 640.5344,371.3069 648.6571,349.4256 655.6887,326.7838 660.6188,306.5724 664.0099,286.7401 665.1744,276.7563 665.8725,267.586 666.157,258.8978 666.023,250.3628 665.4597,242.3383 664.424,234.2164 663.0239,226.7385 661.2023,219.5492 659.33,213.76 657.1384,208.2486 654.6181,203.0482 651.9486,198.4852 648.8316,194.0641 645.3427,189.9458 641.544,186.2149 637.7507,183.1147 633.3916,180.1866 629.1008,177.866 624.5867,175.9452 619.8598,174.44 614.9307,173.3662 609.6367,172.7199 604.4166,172.5344 598.7128,172.8 592.8922,173.5404 587.3504,174.6624 581.3709,176.312 575.7219,178.2798 569.6727,180.8246 564.0,183.625 552.2041,190.7198 540.8325,199.2472 529.7451,209.3466 519.649,220.3614 510.2082,232.6266 505.0807,240.265 500.1301,248.4398 495.5781,256.7957 491.4247,265.2906 487.5281,274.2278 484.0445,283.2784 481.0181,292.3046 478.3316,301.6499 476.0149,311.2802 474.1564,320.7915 472.6802,330.5115 471.6374,340.034 470.9907,349.6452 470.7382,359.3596 470.8843,369.5046 471.4215,379.6387 472.3775,390.2194 473.8217,400.9278 475.7503,411.7538 478.323,423.6484 480.7102,433.2271 483.5469,442.9688 491.6006,466.4133 502.0615,491.7275 508.5091,505.8411 515.9961,520.4894 520.5063,528.1568 524.3941,533.3436 527.846,536.891 532.18,539.727 535.1163,540.6927 538.5769,540.9946 541.7633,540.4929 545.2807,539.2837 549.1471,537.3822 553.3559,534.6733 562.5729,527.0609 572.2914,517.1233 583.6715,503.4887 595.3324,487.9486 607.3991,470.2321 618.8265,451.9114 629.9108,432.5903 641.0531,411.4972 650.7853,391.3782 659.1841,372.1423 667.1859,351.6734 673.8919,332.2927 679.4466,313.6636 683.2443,298.5456 686.4312,283.1725 688.8109,268.389 690.3768,254.3549 691.1606,240.8134 691.15,228.2317 690.366,216.1299 688.7625,204.3296 686.3951,193.4092 683.3093,183.4223 679.5557,174.4032 675.0057,166.073 669.6311,158.5143 663.5182,151.8667 656.681,146.135 649.4882,141.5479 641.0025,137.6193 632.2451,134.9351 623.1232,133.3867 613.2039,132.9464 602.9239,133.6775 592.3768,135.5579 581.2845,138.6892 570.4828,142.84 559.698,148.0734 548.8679,154.4528 538.2568,161.8066 527.9952,170.0168 518.1478,179.0043 508.5191,188.9757 499.7105,199.2959 491.2626,210.5 485.7894,218.5656 480.6729,226.7831 475.7289,235.4609 471.1683,244.2422 466.9897,253.0961 463.0536,262.3342 459.5268,271.5826 456.3752,280.9101 451.1434,299.9402 449.0208,309.8521 447.3145,319.6106 444.9483,339.663 444.0419,359.9999 444.4836,377.8685 446.0545,395.6707 448.8382,414.4047 452.6068,432.3962 456.9389,449.022 462.1447,466.4918 479.7245,516.4853 484.9256,532.2981 488.379,544.853 490.9171,556.7843 492.0072,564.3532 492.666,571.5716 492.8165,586.7757 492.375,592.125 491.0266,601.8517 487.9708,615.1003 484.2814,626.7497 479.4952,638.8809 473.1874,652.1676 465.2336,666.8543 457.9347,678.9231 447.6693,694.3568 437.3491,708.5985 426.3358,722.7803 412.9955,738.7899 399.6217,753.7565 383.5001,770.6043 369.2516,784.4114 355.0308,797.0319 342.9076,806.5667 337.9869,809.8712 333.9054,812.1445 330.8167,813.2841 328.8874,813.1933 328.4276,812.6341 328.3482,811.6954 329.2394,808.973 331.5487,804.9288 335.3665,799.5328 346.2875,786.3576 361.8552,769.5051 379.039,752.0775 403.089,728.7404 488.859,648.3983 518.7567,619.5001 535.2052,602.6859 549.1188,587.5794 560.2363,574.4669 569.0995,562.6858 574.3877,554.5926 578.4485,547.2967 581.4633,540.4973 583.3662,534.2733 584.2704,528.4066 584.1108,523.0348 582.8077,518.3335 580.37,514.392 578.5,512.406 576.1075,510.5687 573.8242,509.3192 570.9987,508.261 567.5972,507.4537 564.1957,507.0741 560.8399,507.107 557.3598,507.5539 553.9767,508.3378 550.8501,509.4455 544.7031,512.875 542.408,514.7269 539.9883,517.3047 538.1985,519.7142 536.8197,522.2706 535.7019,525.9846 535.5648,529.4398 536.7058,532.4851 537.518,533.393 538.944,534.229 541.8229,534.7066 545.5307,534.0385 549.3846,532.2717 553.8693,529.3385 558.8893,525.3132 564.0,520.625 574.7613,509.1205 587.7198,492.9824 600.0174,475.7673 611.785,457.5841 623.2103,438.3094 633.9252,418.6855 643.6716,399.1254 652.8445,378.8032 661.0208,358.6184 668.1063,338.8082 674.0182,319.632 677.9625,304.5682 681.1506,289.9855 683.567,276.0399 685.296,262.1643 686.297,248.4257 686.5084,235.6375 685.9581,223.5173 684.647,212.154 682.5868,201.6156 679.7234,191.6759 676.1126,182.4862 671.7179,173.9771 666.5424,166.2445 660.8421,159.6404 654.4278,153.9246 647.6427,149.367 639.6292,145.45 631.0052,142.6193 621.8463,140.9022 612.2281,140.3258 602.2265,140.9174 592.3333,142.6095 581.9247,145.4985 571.4506,149.4818 561.0,154.5 550.3314,160.7028 539.8807,167.8799 529.7457,175.9659 520.2622,184.6654 511.0915,194.2592 502.4927,204.4534 494.2724,215.4648 483.9586,231.4509 474.9128,248.1819 467.2862,265.3908 460.8112,283.6998 455.729,302.5181 452.1189,321.3456 449.8748,340.8756 449.0752,360.5615 449.5483,378.7425 451.1275,396.0467 453.8929,413.8601 458.0447,433.372 462.4243,449.7103 468.7904,470.2075 485.5911,517.4793 490.3506,531.9994 493.166,541.9093 496.5429,556.9732 498.3803,571.6879 498.6899,581.5312 498.5555,587.501 497.6997,596.7682 496.673,603.6253 494.9838,611.5471 492.4184,621.0846 488.0416,633.5923 482.2941,646.9304 476.0822,659.1979 466.8059,675.2849 456.9196,690.367 446.7856,704.6093 434.9874,719.9513 421.8931,735.8809 406.3915,753.468 389.1647,771.723 374.8827,785.806 357.9492,801.2672 343.8218,812.9898 330.9492,822.2121 325.5792,825.4333 321.3975,827.4542 318.4674,828.3228 316.4985,828.0394 315.8939,827.2106 315.7861,826.174 316.8661,822.5849 319.8364,817.3534 324.6582,810.6428 331.2614,802.504 339.4205,793.1829 360.1751,771.258 381.8793,749.818 409.1437,723.9113 489.5003,650.0726 512.1165,628.9331 535.8825,605.8317 555.082,586.0092 570.0,569.125 576.4635,561.0301 582.0,553.4907 586.6406,546.5 590.5754,539.7572 593.5973,533.6009 595.8263,527.767 597.2821,522.2362 597.9404,517.3071 597.8545,512.6022 597.0452,508.5106 595.4398,504.6231 593.0,500.9167 590.0457,497.879 586.3786,495.328 581.0049,492.9962 575.0867,491.5016 569.4564,491.1016 563.2816,491.5074 557.7436,492.7521 553.0705,494.7262 549.2188,497.5469 547.9166,499.1089 547.2029,500.6362 547.2527,501.9624 547.7891,502.7012 549.2734,503.041 551.4141,502.75 556.8819,500.0452 562.5001,495.86 568.737,490.0318 575.0145,483.2903 582.5633,474.0517 589.737,464.4704 596.9782,453.9492 603.9635,443.0447 617.5377,419.4876 629.1636,396.5203 640.5933,370.5076 648.4672,349.5525 655.1714,327.9966 660.2925,307.22 663.8166,287.1662 664.948,277.5017 665.6496,268.2393 665.9341,259.4405 665.806,250.7781 665.2674,242.6748 664.2932,234.8027 662.8877,227.2866 661.1102,220.2796 659.1811,214.3216 657.0687,208.9972 654.4857,203.6269 651.75,198.9102 648.7053,194.5281 645.5805,190.7637 641.9245,187.0886 638.2007,183.9667 633.9181,181.0054 629.3695,178.476 624.5715,176.3952 619.9076,174.8794 614.6758,173.7111 609.6379,173.0713 604.574,172.8732 599.0995,173.1103 593.5215,173.7906 587.8614,174.9072 582.1404,176.4534 576.0189,178.5594 564.4645,183.7906 552.7745,190.7885 541.2644,199.4066 530.3398,209.323 520.1319,220.3864 510.7758,232.4396 505.5955,240.0965 500.7978,247.9401 496.3783,255.9415 492.1719,264.4129 488.366,272.9914 484.8273,281.9914 481.7426,290.9413 479.0344,300.1143 476.7029,309.5681 474.8274,318.9015 473.2629,328.8268 472.0882,338.9276 471.3221,348.7876 471.0016,358.0311 471.0783,367.7162 471.5519,377.406 472.5289,388.4752 473.9342,399.6013 475.7191,410.1639 478.0263,421.1688 480.8401,432.5687 483.6479,442.3605 491.8432,466.1234 496.8088,478.8146 502.104,491.3117 509.5421,507.1084 515.697,518.8927 521.0,527.75 523.1885,530.7954 527.7809,535.7761 531.6602,538.5047 534.3885,539.5814 537.3806,539.9799 540.7602,539.7944 543.8415,539.0039 547.5847,537.3765 551.2246,535.2539 555.495,532.2365 559.9816,528.5467 569.9102,518.8184 580.8602,506.2858 591.8798,491.9807 603.9709,474.6533 615.2907,456.883 627.212,436.631 637.1492,418.2471 646.6412,399.0341 655.6744,379.0338 663.6677,359.4445 670.9482,339.4183 677.0039,320.3334 681.2367,304.734 684.5833,289.9724 687.2691,275.0278 689.2014,260.3943 690.3123,246.6002 690.6297,233.3769 690.1616,221.1851 688.8933,209.4862 686.7899,198.2709 683.8294,187.5902 680.1433,177.9112 675.6222,168.9513 670.4618,161.1047 664.7378,154.3747 657.9782,148.289 650.7594,143.3732 642.2313,139.1538 633.3953,136.2224 623.9941,134.4352 614.0847,133.8322 604.0041,134.4193 593.3213,136.2294 582.4729,139.2159 571.5495,143.3321 560.6416,148.5312 549.8398,154.7665 539.3535,161.904 529.1238,169.9859 519.0722,179.1019 509.5414,188.9355 500.3351,199.6872 491.7735,210.9873 486.3779,218.8794 481.2159,227.1059 476.3174,235.67 471.8165,244.33 467.5455,253.4094 463.6805,262.5336 460.0833,272.0241 456.8968,281.4971 451.5925,300.722 447.8946,319.6711 445.5966,339.4002 444.7368,359.6196 445.1351,377.4696 446.6875,395.4375 449.4729,414.1809 453.3391,432.9117 457.6287,449.2569 463.7768,469.5906 481.2112,518.9151 485.9163,533.44 488.8422,543.9512 491.7856,558.0407 492.8365,565.5205 493.4492,572.7424 493.6232,579.7674 493.3897,587.3626 492.7951,594.125 491.743,601.3124 488.4357,615.7189 484.6373,627.6607 479.0831,641.252 473.0185,653.9352 465.3084,667.8491 457.5,680.625 447.1652,696.0324 436.3064,710.7934 424.4778,725.8945 410.8254,742.134 395.9902,758.5276 381.6256,773.3231 367.3013,786.9966 353.2484,799.3055 341.4832,808.3624 336.2508,811.7816 332.3281,813.9062 329.1152,815.0312 327.3586,814.8374 326.9634,814.2883 326.9101,813.2843 327.9386,810.3044 330.5185,805.8603 334.3644,800.4437 345.2704,787.2802 361.1015,770.1965 379.3605,751.7169 402.3041,729.4873 488.7525,648.7309 520.4579,618.1631 536.7261,601.5614 550.472,586.6445 561.4703,573.6714 570.1329,562.1642 575.4967,553.9871 579.6397,546.6201 582.767,539.7309 584.7534,533.6477 585.8011,527.504 585.7197,522.2726 584.5733,517.6041 582.4064,513.7211 580.6133,511.6328 578.3055,509.6282 575.7694,508.031 573.0543,506.8411 569.6942,505.9159 566.282,505.3918 562.9256,505.2633 559.1988,505.556 555.5671,506.2692 552.2674,507.3422 549.25,508.75 545.6811,510.9004 543.295,512.745 541.1134,514.9907 539.4108,517.2605 538.0,519.875 536.9877,523.4554 537.1049,526.88 538.6488,529.4066 540.7638,530.4349 543.7083,530.5731 547.5428,529.4961 551.2584,527.5276 556.0142,524.2265 560.4311,520.6216 565.5192,515.8244 577.1054,503.2278 587.2356,490.4154 599.3316,473.4173 610.4467,456.3542 620.9434,438.7857 631.4797,419.4365 641.1828,400.0866 649.6871,381.4371 657.8134,361.6513 664.6879,342.8986 670.3574,325.1363 674.4512,310.1188 677.9599,294.8802 680.6094,280.5781 682.4716,266.9835 683.578,253.8243 683.9031,241.5522 683.4829,229.0952 682.2984,217.3875 680.3705,206.5185 677.7283,196.5541 674.4088,187.5386 670.3387,179.2737 665.304,171.4283 659.74,164.6929 653.4794,158.8012 646.5487,153.8293 638.9741,149.8537 630.6165,146.9039 621.8195,145.1167 612.5756,144.438 602.5929,144.9034 592.6972,146.4754 582.6088,149.1468 572.4115,152.9148 562.001,157.8584 551.8884,163.7129 541.6919,170.692 531.8011,178.5507 522.2869,187.2115 513.22,196.5968 504.6861,206.6112 496.6165,217.3403 486.4591,233.015 477.4844,249.5717 469.7124,266.9999 463.4858,284.5852 458.5238,303.0826 454.9158,322.234 452.6997,341.7559 451.9565,361.4745 452.5481,379.6435 454.308,398.084 457.0888,415.3804 461.2527,434.264 465.316,449.6057 470.511,466.2673 476.2464,482.9896 489.6253,519.6552 493.8481,532.6409 496.957,543.3232 500.2724,558.1959 501.5914,567.5082 502.169,574.3128 502.4236,583.1925 502.0973,593.1549 500.2051,608.125 498.1671,617.3079 496.2128,624.269 492.6488,634.8652 487.0261,648.0343 479.1036,663.5323 470.9425,677.3365 460.283,693.4301 449.4471,708.3764 434.947,726.7579 421.561,742.5517 404.034,761.781 386.0517,780.2398 369.171,796.4618 352.3312,811.3351 336.6508,823.9742 323.048,833.4145 317.2405,836.7559 312.6039,838.8829 309.2222,839.7685 307.0082,839.4339 306.2778,838.5648 306.0898,837.1616 307.2703,833.1181 310.4531,827.457 315.8079,819.9316 323.0689,810.9415 332.043,800.7088 354.9653,776.6717 378.4771,753.5336 405.2953,728.211 495.0233,646.7096 520.9736,622.7384 544.7835,599.8238 564.0875,580.0561 579.645,562.5441 586.1054,554.5089 591.8829,546.6972 596.7102,539.4613 600.7655,532.526 603.866,526.1947 606.1168,520.3385 607.5499,515.177 608.3593,510.0993 608.4519,505.205 607.8295,500.8802 606.3654,496.5702 604.2295,492.6901 601.3385,489.1025 597.9875,486.1652 592.7506,483.0307 587.0562,480.6434 581.7712,479.2416 574.9475,478.3541 569.0907,478.266 563.0,479.125 557.5324,481.0509 555.7407,482.0613 554.9907,482.8796 555.0509,483.162 555.7061,483.2349 557.273,482.683 562.0374,479.5099 568.0735,474.1643 574.5339,467.3122 580.784,459.783 587.3342,451.0438 593.5167,442.0433 599.8783,432.0058 606.0699,421.576 611.7891,411.1909 622.8174,388.7654 632.4986,365.8587 636.5735,354.7946 640.2737,343.582 645.8484,323.4762 649.8778,303.8868 651.2898,294.2844 652.2776,285.0114 652.8324,276.1726 652.9551,267.4556 652.624,259.2999 651.8732,251.8228 650.6329,244.1974 649.0309,237.2699 646.9971,230.6861 644.5155,224.5006 641.7463,219.0733 638.521,214.0552 634.8698,209.5136 630.8268,205.4767 626.4114,201.9807 621.9715,199.2375 617.2399,197.0261 612.2324,195.3759 606.8375,194.2943 601.2713,193.8126 595.1705,193.9381 589.2829,194.6562 583.2831,195.9561 577.1995,197.8378 571.0605,200.3012 564.9452,203.3141 558.6759,206.9715 552.5214,211.1381 546.807,215.5443 540.9589,220.6288 535.3101,226.1457 530.1547,231.7633 525.0734,237.9049 520.0929,244.567 515.429,251.4781 511.087,258.6073 507.0726,265.924 503.2321,273.7405 496.8592,289.2521 491.7232,305.7435 487.8673,323.1598 485.8292,337.1638 484.7794,351.4341 484.6969,366.519 485.5934,381.7106 487.5658,396.9049 490.706,413.3766 494.2533,427.0409 499.2395,442.6282 505.1768,457.5652 512.221,472.274 518.2163,482.7305 525.601,492.548 528.6124,495.5878 532.4544,498.7448 534.8241,500.1898 537.6343,501.3519 540.8468,502.1952 543.7333,502.4287 547.1532,502.0598 550.8019,501.0676 555.7672,498.7828 561.0036,495.4441 566.6976,490.9074 572.3354,485.5906 578.4262,478.9977 584.5146,471.6798 590.7875,463.416 597.7556,453.541 604.0486,443.9567 610.1484,433.9216 623.3364,410.0279 634.4703,387.0855 644.1843,363.8996 652.0418,341.6652 658.4413,319.9341 662.9724,300.0714 665.9176,280.883 666.8301,271.2338 667.3077,262.0443 667.3627,252.9887 666.9896,244.4923 666.1711,236.2282 664.9569,228.6039 663.2918,221.1693 661.2972,214.4094 659.177,208.6761 656.8877,203.5712 654.302,198.7592 651.4155,194.271 648.4461,190.4012 644.8997,186.535 641.0059,182.9986 637.1354,180.0755 632.7066,177.3309 628.3647,175.1705 623.4554,173.2767 618.6926,171.9337 613.7452,171.0039 608.625,170.5 603.152,170.4326 597.556,170.8211 592.2176,171.5926 586.4458,172.8426 580.6154,174.5259 574.7484,176.6349 562.9921,182.0992 551.4824,189.0933 540.2945,197.5845 529.671,207.3295 519.4475,218.4585 509.8177,230.8158 504.5972,238.4754 499.5662,246.6587 494.9458,255.0129 490.7313,263.5 486.7736,272.4263 483.2444,281.4122 480.0859,290.5982 477.4038,299.7006 475.0786,309.0944 473.1301,318.7485 471.5716,328.6265 470.4088,338.6859 469.6738,348.4437 469.3395,358.4194 469.4219,368.4266 469.9097,378.4283 470.8532,389.0826 472.1685,399.3168 473.9758,409.8558 476.2979,420.8488 479.2968,433.1457 482.0517,442.9449 490.0576,466.5712 499.9633,491.4075 507.9593,509.0365 514.831,523.02 519.8572,531.9959 522.7596,536.152 526.696,540.791 531.1506,544.1041 534.1341,545.1753 537.1561,545.5155 540.3934,545.115 544.375,543.875 548.005,542.113 551.995,539.559 561.063,532.2077 571.0207,522.0233 581.7731,509.3907 594.6578,492.4202 606.3827,475.4293 618.1143,456.9121 629.1921,437.9054 639.9875,417.7645 649.9716,397.4712 659.1038,377.1644 667.1542,357.3282 674.3332,337.4071 680.375,318.125 684.7817,301.7641 688.3162,286.1867 691.0262,271.2004 692.8908,256.934 693.9367,243.1114 694.1564,229.5563 693.5818,216.9263 692.1849,204.6722 689.9925,193.2796 687.0341,182.8134 683.3463,173.3182 678.7594,164.4219 673.4125,156.4139 667.2762,149.261 660.3721,143.0443 653.0421,138.0325 644.6961,133.8864 635.9622,130.9935 626.1352,129.1334 615.8147,128.4932 605.0933,129.0758 594.4479,130.8013 583.2078,133.7958 572.2339,137.8555 561.1832,143.0684 550.0698,149.4254 539.2003,156.7494 528.3549,165.2082 517.9312,174.5205 508.0121,184.6002 498.7584,195.2627 490.0592,206.6058 484.3889,214.8181 479.0826,223.1983 473.9564,232.0493 469.2203,241.0211 464.8732,250.083 460.7746,259.5429 457.1605,268.8474 453.8693,278.4023 450.901,288.2622 448.3725,298.0228 446.1865,308.0314 444.4221,317.8873 443.0088,327.922 441.9606,338.0877 441.2898,348.2501 440.987,358.7263 441.3749,376.808 442.9435,395.5115 445.5837,413.8484 449.4782,432.7537 453.9793,450.1577 458.6595,465.7055 467.4853,491.7125 475.9856,515.2465 481.5315,532.184 485.1168,545.095 487.6267,556.5867 489.6574,572.5139 489.7726,585.1381 489.3569,591.5764 488.5209,597.9864 487.2468,605.4087 485.7262,612.0762 482.2101,623.6645 477.2554,636.6747 471.5245,649.1979 464.7322,662.3878 457.569,674.6306 449.961,686.4428 438.9542,702.2357 427.9236,716.9827 415.5134,732.33 402.7239,747.1462 387.9041,763.0172 374.8318,776.0672 360.2922,789.314 349.0224,798.4598 343.9832,802.0079 339.587,804.6401 336.6554,805.8427 334.9928,805.7833 334.601,805.2985 334.5253,804.4981 335.3912,801.9132 337.5143,798.2773 340.8769,793.5444 351.2158,780.9833 364.9257,766.0972 381.9203,748.808 402.2791,728.8962 480.6226,655.0392 514.3319,622.2292 529.7979,606.3756 542.2661,592.8302 552.7879,580.4235 561.3217,569.2399 566.8027,561.0913 570.9957,553.8311 574.386,546.6568 576.6476,540.0558 577.6739,534.4001 577.6019,529.5423 576.3973,524.7746 574.2362,521.0658 572.3807,519.1583 570.247,517.6374 567.8072,516.4014 564.8496,515.4386 561.7856,514.943 558.6458,514.8657 555.1883,515.1337 551.8658,515.8022 545.3377,518.4469 539.9251,522.0163 535.2402,526.7949 531.6719,532.375 529.6274,537.7574 528.6843,543.957 529.25,549.125 530.6738,552.4824 531.9144,553.9063 533.1875,554.7812 535.0003,555.5234 536.6769,555.7721 541.125,554.875 545.6013,552.8217 550.767,549.3967 556.5552,544.6807 562.4479,539.0809 568.8467,532.3397 575.3128,524.9075 582.9703,515.4531 598.0012,495.207 611.8578,474.69 625.9169,451.7059 639.0001,428.3872 650.9855,404.9177 661.6707,381.8676 670.9493,359.4776 679.5599,335.8461 686.5981,313.4734 690.9662,297.1022 694.4224,281.5841 697.1218,266.2271 699.0206,251.1613 700.0772,236.5605 700.2727,222.93 699.606,209.6194 698.1152,197.4513 695.6851,185.5497 692.4093,174.4993 688.3815,164.4762 683.4874,155.2012 677.9323,147.0709 671.5417,139.8408 664.5551,133.7949 656.4682,128.5319 647.3146,124.25 637.8214,121.2917 627.7454,119.5185 617.1575,118.966 606.1286,119.6695 595.1915,121.5559 583.5824,124.755 571.8997,129.1434 560.2391,134.6564 548.3597,141.438 536.7097,149.2722 525.5936,157.922 514.8908,167.4664 504.7627,177.7321 495.0027,188.9174 485.7002,200.9658 479.8468,209.3726 474.155,218.2817 469.0444,227.0214 464.1687,236.1574 459.6753,245.4237 455.4491,255.0741 451.6576,264.7279 448.1702,274.7164 445.1203,284.6541 442.4064,294.8635 440.0575,305.3033 438.1334,315.7112 436.6087,326.1566 435.473,336.7409 434.7386,347.4275 434.4151,357.812 434.8191,377.3029 436.469,396.3897 439.3937,415.7772 443.7986,436.799 447.806,452.2296 453.1909,469.7989 458.6394,486.2189 468.0288,512.4879 475.6892,535.1418 479.0456,547.2658 481.5161,558.8036 483.4266,572.7419 483.6973,584.75 482.8309,596.7523 480.2042,611.3917 476.7771,623.5375 473.6227,632.6353 468.7031,644.0625 462.7126,656.2608 455.6077,669.1572 447.073,683.0668 439.5078,694.5019 430.857,706.4591 419.3785,721.388 406.3311,737.1479 395.6493,749.183 381.886,763.6212 369.1876,775.8634 357.7222,785.8089 353.4418,789.0252 349.9444,791.2305 347.4801,792.2806 346.0997,792.1667 345.9088,790.8418 346.9687,788.4134 352.7899,780.2791 363.5715,767.6804 377.3132,753.0697 408.7882,721.7348 490.4953,643.2099 511.2501,622.3776 526.7598,605.9152 540.9084,589.5018 551.7847,575.0813 556.1524,568.3587 559.6379,562.2392 562.4054,556.4251 564.2639,551.3031 565.2554,547.051 565.6472,543.4776 565.5142,539.9714 564.823,537.0177 563.625,534.625 561.598,532.2526 559.195,530.4923 556.4683,529.3444 553.1243,528.7601 549.7344,528.7969 546.3057,529.4148 542.1859,530.8273 538.4399,532.6604 535.2476,534.7692 531.6845,537.7669 528.497,541.0347 524.7293,545.9293 521.3606,551.807 518.3965,558.1341 515.7543,565.375 512.3121,579.5264 507.224,609.262 505.1825,619.5962 503.2871,627.448 501.3218,634.0532 497.284,645.5456 490.8305,659.5455 484.0125,671.9538 473.6852,688.2498 463.4966,702.6038 452.9029,716.3615 442.5099,729.233 432.0509,741.4888 420.6503,754.2297 408.1611,767.5551 395.2985,780.6741 381.9633,793.6804 369.1755,805.5884 355.6684,817.4826 342.2208,828.6672 330.0655,838.1737 318.935,846.1619 309.3692,852.2218 301.4554,856.3148 295.3958,858.3396 293.2798,858.5371 291.6549,858.2309 290.5651,857.3934 290.0547,855.9971 290.1675,854.0144 290.8916,851.5823 294.3656,844.8201 300.1561,836.2802 308.1806,826.0456 317.8767,814.8046 329.4851,802.2689 343.2731,788.153 370.4289,761.7149 402.5482,731.8356 434.5887,702.9464 507.2802,638.3053 535.2996,612.8354 560.6839,588.7933 580.8995,568.3567 596.7125,550.6575 603.2684,542.4991 609.127,534.5424 614.2053,526.8507 618.2823,519.7592 621.4032,513.2595 623.7231,507.0188 625.2128,501.2149 625.9182,495.9171 625.9158,491.1012 625.2093,486.4258 623.866,482.2507 621.6859,478.0029 618.6951,473.8569 615.2546,470.3071 611.1866,467.0864 606.5891,464.2454 601.1837,461.5926 595.5166,459.4627 589.9906,457.9396 583.9524,456.7018 578.757,456.0463 567.9398,455.4213 566.5379,455.1051 565.9515,454.4588 567.6029,451.8695 577.8782,439.5226 587.913,425.3849 596.4735,411.2775 604.8646,395.4744 612.563,379.0663 619.0088,362.7712 624.8175,345.2234 629.4388,327.7656 632.4811,312.0405 634.1321,297.5931 634.5393,283.1596 633.5852,270.5003 632.625,264.875 631.1732,258.8872 629.4763,253.5693 627.4413,248.5665 625.06,243.9308 622.5317,240.0007 619.8564,236.6561 616.569,233.357 612.9906,230.5295 609.1364,228.2002 605.0215,226.3954 600.661,225.1417 595.9029,224.4475 590.9535,224.3374 585.8487,224.8038 581.006,225.7606 576.0987,227.2284 571.1603,229.214 566.0082,231.8356 560.777,235.0291 555.6531,238.692 550.951,242.5533 546.1068,247.0798 541.7122,251.7244 533.4289,262.0918 525.8156,273.9112 519.125,286.875 513.76,300.2295 509.485,314.4567 506.2461,329.7456 504.5384,344.307 504.0,359.75 504.3533,370.2176 505.4159,381.1334 507.244,393.2693 509.5313,403.6831 512.875,415.125 515.8359,423.1914 520.569,433.3997 524.9331,441.0833 529.5,447.5 533.3856,451.715 538.8472,455.9764 543.1562,458.0469 548.3496,459.1609 553.1094,458.9062 559.1076,457.1355 564.4978,454.2946 569.1252,450.9504 573.8499,446.7568 578.8607,441.5846 584.0936,435.4648 589.2618,428.7239 594.3617,421.3873 604.5113,404.7232 613.4223,387.4993 622.5002,366.8224 629.2699,348.2208 634.9198,328.9437 638.625,312.0 640.8891,295.4571 641.6685,279.8318 641.5004,272.4291 640.9575,265.376 640.0405,258.6474 638.7275,252.1765 637.1153,246.3722 635.1245,240.8934 632.9022,236.0945 630.1838,231.4269 626.9617,227.0137 623.6342,223.372 619.7002,219.9697 615.7311,217.3183 611.4668,215.1805 606.7155,213.5204 601.8031,212.4721 596.313,211.9945 591.0115,212.1547 585.5717,212.9034 580.0261,214.2437 574.3401,216.2017 568.7706,218.6708 563.2414,221.66 557.7782,225.1503 552.0938,229.3708 546.8464,233.8325 541.488,238.9944 536.659,244.2121 531.8384,250.025 523.2399,262.2102 515.5798,275.6952 509.3138,289.6906 504.0587,304.967 500.0376,320.8507 497.4935,336.8483 496.2839,353.3102 496.2497,365.2015 497.0062,377.7148 498.6157,391.1643 500.7267,402.6031 503.7839,414.7679 507.1677,425.5737 513.1687,440.6464 517.1767,448.9748 522.329,457.7281 526.6705,463.5271 532.3271,469.487 537.7364,473.188 540.3237,474.4247 542.8544,475.209 545.473,475.6148 548.498,475.6714 553.716,474.7069 560.0,472.0 564.9749,468.85 570.2985,464.5383 575.866,459.1686 581.7298,452.665 587.3042,445.6972 593.3585,437.3201 599.268,428.398 605.2868,418.5547 616.1972,398.6333 625.9175,377.7435 634.6582,355.4257 638.4565,344.1845 641.6993,333.427 646.5379,313.8023 649.6817,295.1649 650.6816,285.9151 651.2429,277.1099 651.3735,268.8058 651.0665,260.678 650.3338,253.1608 649.1063,245.545 647.5039,238.6375 645.4602,232.084 643.1127,226.2684 640.348,220.8623 637.2963,216.107 633.6644,211.5675 629.6378,207.5509 625.2314,204.0898 620.4598,201.2166 615.3379,198.9638 610.2544,197.4495 604.6189,196.491 598.9519,196.1803 592.7612,196.5141 586.429,197.5261 580.3707,199.0924 574.2456,201.2487 567.7272,204.1654 561.4568,207.5809 555.2912,211.5333 549.2555,215.9919 543.0855,221.1846 537.3949,226.5847 531.9111,232.3972 526.7786,238.4596 521.7566,245.0786 517.0595,251.977 512.4996,259.4425 508.3015,267.1202 504.4685,274.9627 500.8934,283.1978 497.8312,291.2123 495.0495,299.5876 492.5872,308.3061 490.557,316.9855 488.9332,325.6536 487.6897,334.4225 486.8209,343.3632 486.2158,357.6267 486.4995,372.3943 487.629,386.2187 489.7018,400.443 492.7435,415.0872 496.7277,429.7342 501.1063,442.8183 506.7942,456.6734 511.324,466.273 518.8175,479.3978 524.5648,487.2316 530.1207,492.9648 535.3359,496.6211 538.1901,497.8126 541.1276,498.5181 543.704,498.747 546.7402,498.5354 549.8901,497.866 553.3211,496.6764 558.4886,493.8797 564.6753,489.397 570.7659,483.9712 577.4466,477.0536 583.9166,469.3813 591.0992,459.9194 598.2687,449.655 605.16,438.9681 611.7635,427.8643 619.2463,414.3931 625.6521,402.0217 631.4164,389.9924 637.24,376.8168 642.5027,363.8362 647.0963,351.3481 651.2577,338.6851 654.8525,326.4769 657.8254,315.0681 660.2503,304.2311 662.1848,293.6822 663.6103,283.4223 664.6509,272.4721 665.1469,262.3597 665.1374,252.7817 664.6275,243.8044 663.6326,235.4746 662.0976,227.46 659.9996,219.6456 657.3711,212.2454 654.3745,205.6605 650.8829,199.5684 647.1115,194.304 642.882,189.5832 638.2472,185.4804 633.1059,181.8881 627.9117,179.0774 622.0459,176.7276 616.2269,175.1435 610.146,174.1953 603.8302,173.9097 596.9158,174.3451 589.9904,175.4547 582.9558,177.2194 575.857,179.6241 568.7389,182.654 561.6465,186.2939 554.6248,190.529 547.9575,195.1619 541.3131,200.3878 534.8773,206.0617 528.6706,212.1484 522.4608,218.9019 516.5465,226.0267 510.9514,233.4828 505.7074,241.2233 500.87,249.1734 496.4393,257.2903 492.249,265.8824 488.4843,274.5723 485.0121,283.6677 481.875,293.125 479.2488,302.3864 476.9854,311.9291 475.1719,321.3438 473.086,336.4494 471.9588,351.5661 471.807,366.3949 472.6005,381.5194 474.4059,397.8303 476.9036,412.442 480.8663,429.5543 485.4506,445.6068 493.2449,467.8839 501.8889,488.5867 511.2132,508.275 519.9188,523.712 522.8804,528.0437 525.1875,530.7969 528.5668,534.0202 531.1762,535.7851 534.625,537.25 537.1092,537.732 540.553,537.562 544.036,536.7144 549.828,534.1695 555.5253,530.3614 562.0238,524.9075 569.5178,517.4744 577.461,508.591 585.8502,498.2439 594.3314,486.8728 602.9576,474.3896 611.8292,460.6279 620.8747,445.709 628.9467,431.5434 636.7191,416.9983 644.0206,402.3909 651.0169,387.3731 657.5058,372.344 663.3704,357.5962 668.2905,344.1095 672.7463,330.7223 676.6217,317.8141 680.0383,304.9849 682.952,292.3321 685.2658,280.3161 687.0545,268.6328 688.319,257.297 689.0676,246.3258 689.2994,235.4666 688.9914,225.1733 688.1214,215.1246 686.7797,206.0981 684.8901,197.395 682.3934,188.9136 679.4224,181.0635 676.6247,175.0492 673.4717,169.3702 669.9599,164.055 666.3234,159.4101 662.3628,155.1364 658.0748,151.2574 653.4565,147.797 648.6107,144.8249 643.5257,142.2904 637.8513,140.0626 631.9195,138.3224 626.1221,137.1374 619.7563,136.3678 613.5912,136.1115 606.878,136.3447 600.4266,137.0472 593.8658,138.2255 586.951,139.9543 580.2349,142.083 573.16,144.7879 566.4248,147.7949 559.382,151.3873 552.3962,155.4071 545.4948,159.8363 532.3676,169.594 519.7899,180.7765 507.7505,193.4217 496.4585,207.3342 490.6739,215.3871 485.2325,223.6501 480.1456,232.0885 475.25,241.0 470.7798,249.9859 466.7352,259.006 463.1022,268.0382 459.7457,277.4209 456.699,287.1265 454.0822,296.7658 451.8041,306.6625 449.9438,316.466 448.43,326.6005 447.343,336.5018 446.2723,356.6793 446.5871,376.0259 448.0647,394.3013 450.8344,412.9423 455.1061,433.457 459.1743,449.1289 464.528,466.6206 470.3793,483.9735 483.2156,519.8771 487.7613,534.1962 490.8569,545.1667 493.5519,558.4445 494.5506,565.8494 495.1828,573.9777 494.8779,589.4699 494.1783,596.2811 492.9918,603.8133 489.5581,617.8849 485.7865,629.5075 480.8062,641.619 474.3554,654.9858 466.8481,668.4515 457.6945,683.1498 447.9372,697.4509 436.3852,713.0876 423.8438,728.9263 410.1658,744.9396 395.1753,761.2511 379.8984,776.7201 364.335,791.4063 350.631,803.276 338.8438,812.2715 333.7708,815.5959 329.5037,817.9287 326.3961,819.0988 324.3044,819.1857 323.6343,818.6908 323.3771,817.7846 324.02,815.0864 326.1861,810.969 330.0822,805.2617 341.4228,791.471 358.3673,773.1298 377.5551,753.7028 402.1424,729.9384 493.4555,644.9882 524.0487,615.6238 540.3197,599.0183 554.2965,583.8008 565.4596,570.5539 574.6833,558.2431 579.9042,550.2376 584.0673,542.7151 586.9809,535.9963 588.8201,529.7288 589.6594,523.8016 589.424,518.391 588.1053,513.646 585.5682,509.3192 583.5,507.0625 581.1658,505.2046 578.6217,503.7177 575.7427,502.5023 572.7092,501.6195 569.2857,501.0449 565.8777,500.8598 561.8739,501.063 558.4454,501.5894 554.9456,502.527 551.6231,503.8507 548.8399,505.3592 546.1536,507.2732 544.0185,509.25 542.2106,511.5833 540.9023,514.0176 540.378,517.0286 540.7646,518.9971 542.2568,520.6863 544.8588,521.1386 547.776,520.6491 551.09,519.2758 554.9501,516.933 559.4401,513.5327 568.4363,505.0123 578.6692,493.5089 589.0761,480.2209 599.5337,465.3015 609.5361,449.654 619.8771,432.0775 628.9105,415.4594 637.074,399.0363 645.1057,381.3913 652.337,363.8318 658.6952,346.4869 664.1844,329.4324 668.1791,315.1055 671.4573,301.2499 673.9982,288.0086 675.8983,274.9126 677.1263,262.1651 677.659,249.9162 677.4867,238.282 676.6113,227.3554 674.9521,216.6976 672.6221,206.966 669.5468,197.7684 665.8761,189.537 661.4852,181.9844 656.5863,175.468 651.0338,169.7638 644.9171,164.9317 637.5785,160.622 629.9857,157.4996 621.8836,155.3938 613.3233,154.3426 604.2035,154.3918 594.8848,155.5339 585.3647,157.7285 575.7305,160.9466 566.0693,165.1592 556.4682,170.3372 547.2497,176.2858 537.8304,183.3883 528.767,191.2526 520.115,199.799 511.9301,208.9474 504.0373,218.9278 498.25,227.125 493.0022,235.3528 487.9805,244.0832 483.2261,253.2971 478.9299,262.6205 474.9468,272.3606 471.3156,282.4763 468.1462,292.6652 465.4513,302.8565 463.2528,312.8882 461.458,323.1245 460.0812,333.5311 459.1298,344.0702 458.5993,354.8411 458.5187,365.132 458.8849,375.7984 460.4754,393.6811 463.3059,412.4154 467.0632,430.0103 472.228,449.1419 476.0825,461.5078 480.7391,475.0347 497.6068,519.7029 503.9568,538.1639 507.2354,549.0166 510.5451,561.6498 515.2536,583.3414 517.3095,591.0478 519.2617,596.1016 521.125,599.125 522.916,600.916 525.2465,602.1777 527.9662,602.5248 531.1448,601.8236 535.391,599.9046 540.2095,596.7072 546.0264,591.9816 552.3439,586.1624 558.2873,580.0547 565.0872,572.4707 581.3784,552.6724 599.1755,528.8919 615.98,504.522 632.3679,478.8902 646.8934,454.42 660.5824,429.7302 672.6544,406.187 683.732,382.627 694.1132,358.4426 703.2029,334.8976 711.0897,311.7445 717.6486,289.3746 722.3061,270.4952 725.9318,252.4688 728.5863,235.0972 730.2879,218.1372 730.9813,202.0739 730.6812,186.5704 729.3839,171.8043 727.1163,157.9277 723.9128,145.0233 719.6776,132.8167 714.5315,121.7389 708.5236,111.8257 701.6162,102.988 693.8548,95.2375 684.9165,88.3188 675.4329,82.7366 664.8292,78.1797 653.4668,74.916 641.4047,73.0082 629.047,72.5127 615.8457,73.4219 602.27,75.7189 588.4413,79.3519 574.1226,84.4115 560.154,90.5919 546.3001,97.9514 532.6825,106.4384 519.4095,116.0025 506.5432,126.5764 493.9874,138.2373 481.8438,150.9219 470.4617,164.256 462.5754,174.4563 455.1653,184.8933 448.2568,195.5168 441.878,206.267 435.7411,217.6507 430.1715,229.0806 425.0032,240.8795 420.3999,252.6529 416.1131,265.0697 412.4165,277.3699 409.2057,289.8524 406.5043,302.4516 404.3932,314.751 402.8205,326.9113 401.7167,339.5323 401.137,352.1555 401.2432,371.9142 402.5802,392.3611 405.0233,411.7874 408.6488,431.1871 414.2494,453.8868 420.8974,475.8422 428.0505,495.8917 447.436,546.7058 451.6932,559.0076 454.6539,568.9459 457.7506,582.4928 459.2968,593.6947 459.6821,606.6954 458.6896,618.2786 457.4508,625.3695 455.7976,632.3968 453.6307,639.7305 451.1052,646.904 444.396,662.4002 436.0576,678.0057 425.1506,695.4133 411.3295,714.659 404.6245,723.1011 397.875,731.0 390.2988,739.2266 386.322,742.791 387.2653,741.1511 390.4084,737.3131 401.0004,725.7978 467.7685,657.6157 482.3341,642.1987 494.1688,628.9814 505.4493,615.2948 514.4698,602.7309 520.1292,592.9163 521.977,588.5294 522.9271,584.9996 523.0094,581.2741 522.0764,579.1478 521.0879,578.4918 519.4832,578.0713 516.3728,578.4268 512.401,580.3816 507.9831,583.5814 503.9428,587.2898 499.4052,592.2987 494.1001,598.9285 487.4045,608.2985 448.3649,669.5726 439.2993,682.7476 426.5179,700.2085 413.147,717.1097 399.2646,733.3008 385.2241,747.8644 380.5998,751.9164 378.1625,753.3604 378.1705,752.8315 378.9015,751.5478 382.444,746.9502 396.3717,731.61 419.2541,708.0522 471.4813,655.6122 488.3542,637.895 501.0569,623.773 513.5551,608.6025 522.5102,596.0208 526.0918,590.1221 528.7551,584.9843 530.5,580.625 531.5509,576.4213 531.6223,572.1607 531.125,570.625 530.2363,569.3359 529.0781,568.4688 527.6621,568.0234 524.3255,568.2553 520.3193,569.5793 516.274,572.061 511.036,576.399 506.3148,581.2917 498.7687,590.9845 491.1645,602.4295 464.8361,647.1573 452.5433,666.8657 439.9686,685.515 428.0182,701.9065 411.0857,723.3298 402.124,733.705 392.5011,744.2316 382.8163,754.2127 375.2724,761.3603 369.5747,765.8888 367.8228,766.8408 367.0018,766.8236 367.1006,765.8542 368.1898,763.8976 373.1244,757.4931 380.9373,748.6517 392.4555,736.4445 414.2775,714.1597 479.6873,649.557 496.1796,632.5183 509.3855,618.0538 523.0115,601.7737 532.806,588.2845 536.7062,582.0105 539.6912,576.4225 541.748,571.5463 542.9836,567.0653 543.4245,561.8157 543.0804,559.6315 542.2954,557.7593 541.0619,556.2116 539.4976,555.1312 537.6299,554.5184 535.3323,554.3745 532.8163,554.7215 530.1994,555.5257 524.6909,558.3812 519.4564,562.3833 513.9062,568.0469 507.3902,576.5725 500.4345,587.628 492.687,602.08 473.9864,638.3945 462.4439,658.6596 447.3194,682.3725 431.8154,704.1411 422.0028,716.8111 407.5943,734.2583 395.7365,747.6404 384.1367,759.9089 371.8021,771.8475 361.1607,781.1083 353.7518,786.3839 351.3753,787.4263 350.0724,787.3018 349.985,785.9946 351.1764,783.5103 357.0966,775.3702 366.733,764.2548 380.9414,749.1706 410.4174,719.66 465.7617,666.549 487.964,644.8747 508.1306,624.4542 524.6119,606.7641 538.8468,590.0329 544.6395,582.4453 549.458,575.5309 553.5693,568.9152 556.7275,562.9872 559.0548,557.5111 560.5802,552.4976 561.2369,548.8873 561.3935,545.713 561.0177,542.69 560.1214,540.1804 558.6209,537.8193 556.7284,536.0444 554.5221,534.8428 551.7277,534.0934 548.3887,533.7961 545.3171,534.0578 542.2967,534.8304 538.8076,536.2216 535.4568,538.0587 531.9589,540.5313 528.7323,543.295 525.7611,546.3612 522.208,550.926 518.5,556.875 515.8772,561.984 512.4709,569.7911 508.7718,580.3639 499.5059,611.0937 495.6509,622.3487 490.9254,634.4737 485.2045,647.0138 478.043,660.6536 469.875,674.5 459.5255,690.3191 447.6943,706.7743 430.4906,728.6177 413.3131,748.5278 391.8098,771.5061 370.5969,792.2437 360.5283,801.3832 350.6504,809.8385 340.9971,817.5663 332.292,823.9708 325.0,828.75 319.1332,831.9269 314.6946,833.4747 312.9815,833.5648 311.9806,833.2047 311.3973,832.4301 311.2688,831.1184 312.5823,827.1775 315.8504,821.5469 321.2,814.0995 327.9273,805.8033 336.1762,796.4235 358.1123,773.4201 379.8109,752.018 404.6907,728.4276 489.0481,651.251 516.516,625.7078 539.9426,603.0951 558.2648,584.308 573.8146,566.7786 580.4725,558.5173 586.1794,550.8384 590.9417,543.7548 594.9138,537.0171 598.1163,530.5868 600.4478,524.7172 601.97,519.392 602.7714,514.2932 602.7975,509.775 602.0819,505.3879 600.6387,501.2105 598.4094,497.3251 595.3974,493.8947 591.808,491.1064 587.0209,488.5149 582.0375,486.7915 575.2751,485.5552 569.2232,485.2459 563.2258,485.92 557.928,487.3812 553.2129,489.6973 551.813,490.9599 550.8961,492.4278 550.989,493.2807 551.9213,493.713 553.5267,493.4917 555.4267,492.6917 560.3258,489.5277 565.9344,484.7813 572.0,478.6875 577.8356,472.0979 584.367,463.8658 591.0104,454.677 604.3289,434.1863 616.1507,413.123 627.2558,390.7553 637.1167,367.5892 644.5337,347.0882 650.4473,327.3738 654.9804,308.0586 657.9414,290.0008 659.5254,271.6722 659.7232,263.1557 659.5392,255.1605 658.9582,247.3513 658.0059,240.1363 656.6901,233.3974 654.9413,226.7458 651.0265,216.1558 648.5343,211.1124 645.9171,206.7071 643.0163,202.6185 640.0664,199.1266 636.7421,195.8301 633.0118,192.7523 629.0289,190.056 624.8066,187.7569 620.3578,185.8708 616.0617,184.5099 611.2143,183.462 606.5726,182.9016 601.7808,182.7445 596.9175,182.9811 591.6955,183.6308 586.4074,184.6852 581.072,186.1385 575.3499,188.1217 564.6136,193.0203 553.9524,199.4471 543.4198,207.4281 533.4013,216.6449 523.7578,227.2134 514.6784,239.0041 509.9564,246.0353 505.3885,253.5816 501.19,261.2957 497.3535,269.1452 490.4798,285.8202 487.6166,294.1989 485.0514,302.9437 482.9185,311.6052 481.1184,320.537 478.6044,338.7161 477.5316,356.7065 477.9016,375.261 478.6803,385.2561 479.8109,394.9203 481.32,404.313 483.3224,414.2813 488.5931,435.1335 491.7071,444.9632 495.5652,455.8129 499.8438,466.5625 505.4358,479.3383 515.1232,497.798 519.2407,504.5449 522.6398,509.2994 527.625,514.75 530.9975,517.5046 533.8973,519.1648 536.6999,520.2848 539.746,520.7973 542.875,520.75 545.5445,520.2744 548.8057,519.1723 552.25,517.5 555.6225,515.4285 563.875,509.0 572.3098,500.7531 582.3418,489.248 592.0128,476.7522 602.5448,461.3882 613.3187,444.2223 623.5114,426.5124 633.0484,408.4209 641.6737,390.4493 649.6622,372.0624 656.6061,354.1824 662.6287,336.5092 666.9953,321.8644 670.7193,307.5355 673.7337,293.7008 676.0005,280.5244 677.5704,267.5896 678.4517,254.9886 678.6367,242.9345 678.1171,231.525 676.8968,220.8363 674.9901,210.9254 672.3637,201.6279 669.086,193.0761 665.1099,185.1435 660.4353,177.9111 655.0622,171.4601 649.2692,166.0955 642.5361,161.4044 634.8613,157.542 626.9579,154.8572 618.5781,153.199 609.781,152.5988 601.0307,153.0432 591.9095,154.5315 582.1202,157.1798 572.2674,160.8628 562.4368,165.5342 552.7144,171.1479 543.1857,177.6577 534.25,184.75 525.1254,193.0637 516.4689,202.0392 508.3236,211.5941 502.0694,219.7853 496.2097,228.2642 490.7679,236.9856 485.675,246.0774 480.9371,255.5536 476.6898,265.1134 472.784,275.072 469.2529,285.3866 466.1271,296.0041 463.5127,306.513 461.4408,316.6412 459.7602,327.2183 458.5408,337.9287 457.7774,348.7359 457.4499,359.9571 457.5649,371.2759 458.4769,385.8652 460.3789,401.3701 463.7047,420.1613 467.1779,435.1299 471.5113,450.4476 476.7967,467.1192 497.7631,524.0995 503.5272,541.5579 507.308,555.52 509.5983,566.4162 511.4535,576.94 514.2759,597.4121 515.6563,604.5058 516.7168,608.748 518.341,612.795 519.8968,615.105 521.3033,616.3414 523.9675,617.3646 526.75,617.25 529.4321,616.3736 533.2125,614.357 537.2783,611.5316 541.8322,607.7766 553.142,596.7328 567.6475,580.4107 582.1001,562.4802 598.8975,540.016 615.6798,515.9199 629.6733,494.5887 643.045,472.8904 656.6891,449.4126 669.3045,426.2568 680.7099,403.7872 691.3117,381.2987 700.8471,359.3425 709.4342,337.6417 715.5314,320.7086 721.0784,303.7798 725.8572,287.5372 730.0574,271.3401 733.5421,255.6772 736.3685,240.2782 738.4577,225.6019 739.8666,211.34 740.5877,197.4376 740.6117,184.1274 739.9329,171.0263 738.565,158.6088 736.5382,146.9286 733.7868,135.6692 730.4026,125.2456 726.2777,115.3569 721.3816,106.0721 715.9276,97.7723 709.6229,89.971 702.6098,82.9083 694.9154,76.6309 686.8872,71.3713 677.9341,66.7702 668.7442,63.2111 659.0212,60.5491 649.1918,58.8743 638.9496,58.1037 628.5094,58.2219 617.4462,59.2336 605.7956,61.2001 594.3255,63.9792 582.3832,67.7206 568.2099,73.255 554.0753,79.9563 540.0882,87.7838 526.2848,96.7446 512.6493,106.8647 499.5438,117.8561 486.7535,129.8895 474.3809,142.9086 463.0136,156.2521 452.2205,170.3895 442.3216,184.9245 433.2594,199.9226 424.9322,215.5124 417.301,231.8476 410.5953,248.4907 404.8392,265.3458 400.0525,282.3056 396.1678,299.6713 393.2261,317.4667 391.3301,335.0083 390.416,352.5989 390.4831,370.4642 391.5369,388.4018 393.5732,406.4304 396.1896,422.2963 399.569,438.195 403.9775,455.287 409.2934,473.0776 413.9684,486.8367 419.5384,501.7837 441.1937,555.7488 445.073,566.519 448.0023,575.7791 450.742,586.4362 452.5742,596.0193 453.5569,605.1421 453.7993,614.3618 453.4854,620.3086 452.6932,626.7076 451.4844,633.4688 449.8712,640.14 445.3597,653.5604 438.9803,667.9721 430.364,683.7917 421.34,698.0622 406.089,718.861 401.1984,724.896 396.558,729.9247 406.9303,718.3746 464.4521,659.0005 476.6615,645.7968 486.5727,634.5144 497.6524,620.8781 505.4424,609.861 508.3862,604.9234 510.4062,600.8025 511.9167,596.7204 512.3854,593.9897 511.9096,591.8077 510.5163,590.7234 508.5527,590.7656 505.6895,591.8906 502.6271,593.8097 499.528,596.3543 495.5046,600.267 491.5264,604.7189 485.668,612.0307 477.9249,622.6344 450.5908,663.5043 436.85,683.0239 427.9152,695.1389 418.4637,707.2169 407.4727,720.4563 396.6658,732.3155 392.5943,736.4554 391.1799,737.5026 391.9273,736.1405 395.1599,732.1889 405.1491,721.254 461.3183,663.4988 480.1368,643.4813 491.8542,630.2657 503.3577,616.0311 511.5221,604.3667 514.392,599.434 516.5236,594.9968 517.8827,590.9496 518.3278,587.9381 517.9844,585.5809 517.3796,584.5509 516.5092,583.8804 514.2018,583.6697 510.9435,584.7362 507.5942,586.6894 503.9688,589.5312 499.875,593.5 495.1729,598.6867 489.3795,606.1095 480.7604,618.451 446.6686,670.6232 427.5643,697.187 414.6256,713.6433 402.5993,727.7782 389.721,741.4444 385.7617,745.0891 384.0,746.088 385.0312,744.1557 388.051,740.3927 401.9687,725.1253 470.2744,655.6073 485.4358,639.5196 498.468,624.8487 509.6796,611.0416 518.6622,598.0109 521.5978,592.9097 523.5468,588.7576 525.112,584.3027 525.7485,580.7612 525.6718,579.1131 525.215,577.5528 523.8194,575.7202 522.8043,575.254 521.3598,575.1106 517.8484,575.8172 514.1198,577.6288 510.3149,580.332 505.5757,584.6509 501.2345,589.3561 494.9767,597.3349 488.0624,607.2123 451.527,665.7411 440.5525,681.9052 430.2368,696.1857 414.2372,716.6007 397.7011,735.9555 390.0655,744.0734 382.5,751.5 377.2897,756.0137 375.6539,757.0845 374.9845,757.198 375.1343,756.4213 376.159,754.7227 380.3442,749.3078 394.8996,733.3458 413.657,714.0455 475.6701,651.8818 492.0291,634.7484 504.8545,620.4995 517.5094,604.9953 526.6449,591.9428 530.1743,585.8514 532.8663,580.2093 534.3845,575.7821 535.0488,571.7988 534.7454,567.9537 534.1345,566.5486 533.0698,565.348 531.8087,564.5693 529.9621,564.0998 526.0515,564.5538 521.5643,566.3865 517.2703,569.2787 512.4269,573.5023 507.162,579.1898 501.1649,586.9273 493.5042,598.8383 486.3044,611.0175 467.4323,644.427 455.4299,664.1797 443.4913,682.2541 429.6046,701.545 419.4878,714.6936 410.5514,725.6538 400.3804,737.3778 389.7248,748.9712 380.0234,758.8432 372.544,765.7017 365.4279,771.2681 363.2893,772.439 362.4815,772.3947 362.5189,771.4467 363.6883,769.1663 368.5196,762.6976 376.8088,753.1785 388.4283,740.7862 413.1184,715.7636 480.0763,650.0279 497.6269,632.0286 511.8308,616.6836 525.1578,601.1496 535.0308,588.1918 542.181,576.7595 544.7719,571.563 546.6725,566.7433 548.203,560.0463 548.2685,557.1667 547.8649,554.7685 546.9111,552.6013 545.4206,550.7915 543.8704,549.7593 541.6556,549.0613 539.0684,548.9023 536.0663,549.315 532.9324,550.297 529.4845,551.885 526.2725,553.8529 523.3949,556.0684 517.143,562.2431 511.3061,569.8075 503.5178,582.8612 498.3035,593.0323 481.2684,629.0253 473.5812,643.8685 467.1628,655.4171 459.5976,668.1287 453.0811,678.3232 443.364,692.5324 433.3938,706.2925 421.6794,721.4051 408.6449,736.9261 394.7321,752.4133 380.7505,766.9084 367.2522,779.699 355.0948,790.0051 346.6845,795.8158 343.8018,797.0835 342.1419,797.046 341.8214,795.9157 342.7225,793.5584 348.1838,785.5905 358.0909,773.7599 371.2428,759.5123 386.218,744.1668 403.8678,726.7379 476.1663,657.9198 508.1123,626.5981 522.6041,611.6368 534.9081,598.2312 545.1197,586.2871 553.4321,575.5442 558.2387,568.5327 562.3643,561.7044 565.6724,555.2205 567.9737,549.4884 569.4354,544.0287 569.9583,539.125 569.6067,534.993 568.3682,531.3654 565.8297,527.9918 564.0526,526.5191 562.0906,525.3819 557.7483,524.1315 552.4278,523.9424 547.5,524.875 541.4864,527.3156 536.9915,530.2341 532.4813,534.3107 529.5101,537.7401 527.3265,540.9179 524.625,545.875 522.7104,550.1501 520.2791,558.2983 518.5463,569.2778 518.3235,574.5049 518.5589,580.3233 520.1002,588.2595 521.4892,591.7934 523.2616,594.4711 524.75,595.734 527.2992,596.7027 529.0564,596.837 531.4693,596.4837 536.5614,594.4053 542.0716,590.7252 548.6567,585.2087 556.7277,577.326 565.4157,567.8513 574.2829,557.4195 584.2284,544.9078 600.8803,522.282 619.7099,494.5747 635.7032,468.9301 651.2027,441.9736 666.2467,413.5864 679.3281,386.5312 690.8694,359.9366 700.8829,333.7628 707.8943,312.9543 713.892,292.5304 718.6951,273.1339 722.4517,254.2253 725.1621,235.6437 726.7821,217.6436 727.2809,200.611 726.6852,184.6926 724.9914,169.6293 722.27,155.8739 718.5267,143.2207 713.5775,131.1795 707.4843,120.0743 700.4969,110.312 696.6092,105.8369 692.4609,101.6504 688.0538,97.7663 683.3895,94.1981 678.1537,90.7681 672.9641,87.8942 667.4083,85.3298 661.7321,83.1915 655.8409,81.4246 649.7499,80.0299 643.4744,79.0082 636.6667,78.3354 629.6883,78.0801 622.9358,78.2243 609.08,79.643 594.4586,82.6772 579.9865,87.1697 565.5901,93.0845 550.9483,100.5434 536.2457,109.4982 521.9359,119.6724 508.145,130.9399 494.7217,143.4503 482.3621,156.5465 470.5171,170.803 463.0274,180.8293 456.0065,191.0675 449.457,201.477 443.1994,212.348 437.4487,223.3132 432.057,234.662 427.2096,246.0145 422.8951,257.3615 418.9678,269.0961 415.5975,280.6939 412.5827,292.8913 410.1315,304.8855 408.1557,317.0154 406.6647,329.231 405.6618,341.476 405.1409,353.8562 405.3013,372.4701 406.6234,391.503 409.0824,410.6885 412.7721,430.9233 417.8402,451.7399 424.8153,474.676 432.6381,497.2905 451.0482,546.0931 454.3698,556.2442 457.9723,568.8517 460.4391,580.5317 461.9503,594.1013 462.0104,605.7743 460.8184,617.5651 459.407,625.1124 457.5766,632.4396 455.3026,639.7037 452.5091,647.1908 449.213,654.8959 445.3056,663.0195 435.5697,680.6308 422.632,700.56 409.0714,718.7083 401.0788,728.5091 393.5951,737.0157 385.6918,745.2074 382.2176,747.9583 382.978,746.3333 386.0731,742.4555 400.2135,726.9708 470.5608,655.5173 486.2638,638.9608 498.1489,625.7272 510.0681,611.1995 519.4018,597.9898 522.411,593.0066 524.6377,588.6283 526.3396,584.2335 527.283,580.4179 527.375,577.0 527.033,575.696 526.2348,574.341 525.4028,573.6204 524.0166,573.065 522.3263,572.9584 520.588,573.2337 516.625,574.875 512.4688,577.5938 507.3364,581.9896 502.9886,586.622 496.481,594.7794 489.8999,604.4268 480.4721,619.3876 464.5195,645.8481 449.4592,669.4429 437.7589,686.5993 426.8801,701.4219 412.864,719.141 396.1829,738.4131 388.248,746.6888 379.7402,754.9707 375.0176,758.9434 372.7541,760.0218 372.6996,759.4566 373.3611,758.1713 377.2699,752.9853 384.0527,745.0944 392.441,736.0021 414.4996,713.4595 474.3931,653.7426 492.0661,635.3112 505.7234,620.2508 518.3751,604.9507 528.0101,591.5306 531.4821,585.8137 534.2513,580.4343 536.1024,575.797 537.181,571.5567 537.3917,566.8361 536.9657,565.0736 536.2847,563.8021 535.2874,562.7161 533.7437,561.8119 531.8848,561.3964 529.6292,561.4575 525.0787,562.6991 520.625,565.2297 515.225,569.5005 509.8664,575.0109 502.801,584.293 494.3879,597.4684 474.374,633.5481 464.7186,650.3389 456.6819,663.5589 444.7966,681.9162 431.2475,700.7386 421.3795,713.6106 410.8366,726.4986 399.1674,740.0069 387.8917,752.2802 378.5851,761.6369 369.4443,769.8787 362.48,775.2521 360.2168,776.4648 359.125,776.5 359.0557,775.398 360.0449,773.3776 365.1747,766.398 373.7817,756.5355 386.3407,743.1458 410.6225,718.6362 482.2711,648.659 501.83,628.5977 517.2534,611.8632 530.5284,596.0167 536.2088,588.5004 541.1582,581.3382 544.9464,575.182 547.8936,569.5573 550.0071,564.4458 551.3745,559.6369 551.8421,556.4619 551.8373,553.5122 551.3048,550.8851 550.3074,548.7642 548.9282,547.1393 547.25,546.0 544.8355,545.1089 542.1854,544.7464 539.7584,544.8884 537.1141,545.4923 534.3706,546.5026 531.293,548.0781 524.9565,552.6152 519.128,558.3332 515.9219,562.4062 512.0425,568.1982 506.2088,578.5924 499.0666,593.8019 483.8773,628.0953 478.25,639.625 471.0736,653.1792 463.4152,666.2946 456.6269,677.1577 447.5205,690.6355 438.3929,703.2786 424.4494,721.4741 410.2645,738.4548 396.4666,753.8242 380.8448,769.8816 365.1086,784.8129 351.5811,796.293 345.875,800.5 341.1941,803.4431 337.7152,805.022 335.6359,805.0997 335.2128,804.6166 335.1302,803.7835 335.9712,801.3455 338.1321,797.655 341.6655,792.7119 351.8272,780.4593 366.3457,764.7121 382.4946,748.2283 401.5481,729.5952 482.4662,653.1895 514.6583,621.7903 529.7644,606.2384 542.5184,592.2722 553.1939,579.6081 561.7609,568.2462 566.9611,560.3331 571.159,552.8509 574.1483,546.2064 576.077,540.1333 576.9875,534.2504 576.7807,529.1314 575.5598,524.9764 573.1241,521.2847 571.134,519.4165 568.9152,517.9521 566.5226,516.8757 563.9875,516.1654 560.8909,515.6987 557.427,515.62 554.3814,515.9467 550.9688,516.757 544.6602,519.3866 539.2977,523.0235 534.3311,528.295 530.7888,534.159 528.9322,539.3151 527.9457,545.5179 528.3025,550.639 529.2413,553.5497 530.1528,555.2222 532.9781,557.6104 534.7009,558.1589 536.6968,558.2721 540.6487,557.4115 546.1047,554.7684 551.3395,551.1695 557.1851,546.2169 563.8178,539.7482 571.1198,531.8485 578.6141,523.0125 586.5392,512.9231 594.6263,502.0639 602.1265,491.3662 617.5964,467.4908 632.4723,442.371 645.8617,417.5767 658.1737,392.3511 668.9456,367.7407 678.2033,343.6828 685.9571,320.0666 692.5345,296.0321 696.1158,280.0041 698.7917,264.9605 700.6734,250.266 701.6984,236.3485 701.936,222.3544 701.331,209.0473 699.8931,196.5219 697.6408,184.8523 694.601,174.0939 690.7003,164.0444 686.0369,154.9523 680.5442,146.6334 674.2458,139.1662 667.1657,132.6291 659.6427,127.2936 651.44,122.9603 642.5513,119.6906 632.8487,117.5171 622.6292,116.5274 611.6081,116.7373 600.6121,118.1208 589.3696,120.6536 577.9699,124.324 566.3938,129.1702 554.8312,135.1318 543.4628,142.0944 532.3681,149.9809 521.3341,158.9681 510.7595,168.7662 500.9937,178.9981 491.6602,190.0277 482.8169,201.7837 476.9755,210.3734 471.5058,219.1229 466.2303,228.3308 461.363,237.6398 456.9085,247.0139 452.871,256.4171 449.1946,265.9754 445.7933,275.941 442.8342,285.8259 440.2067,295.986 437.9361,306.3871 436.1016,316.6278 434.6332,327.0402 433.5454,337.5769 432.856,348.0636 432.562,358.6531 432.9834,376.9253 434.5941,395.8503 437.3288,414.9917 441.247,434.0433 445.799,451.6247 451.2683,470.0171 468.9213,520.2982 474.4309,537.2536 477.4964,548.1753 480.0575,560.2141 481.567,570.9018 482.2257,585.7137 481.2196,598.4374 479.3338,609.3594 476.343,620.697 472.5945,631.5209 467.8415,643.2813 462.3431,654.8263 456.4383,665.7264 447.9778,679.746 441.091,690.2236 430.9761,704.5968 420.0198,719.1078 408.8219,732.8836 396.5094,746.8788 384.0044,760.1981 371.4251,772.6002 361.4711,781.4447 352.9988,787.5814 350.1511,788.9527 348.7967,788.9463 348.7076,787.6594 349.9533,785.0001 355.8957,776.718 366.2789,764.695 380.836,749.2031 409.5152,720.6168 490.1626,642.9184 509.5926,623.3221 525.2535,606.5843 538.8096,590.7393 544.8333,582.9597 550.1667,575.4693 554.1474,569.2524 557.4377,563.3391 559.9277,557.8026 561.5949,552.8785 562.4674,548.94 562.7802,545.5007 562.5388,542.2788 561.7218,539.4224 560.43,536.9639 558.4555,534.8109 556.3315,533.5147 553.519,532.5836 550.1811,532.1266 547.0741,532.2913 543.6698,533.0469 540.1545,534.3331 536.759,536.1145 533.2496,538.5081 530.0814,541.1518 526.8642,544.4133 523.2948,548.9383 519.786,554.5128 516.9627,559.976 514.2549,566.3968 509.4453,580.9751 502.9782,605.7825 499.7314,616.676 494.8479,630.8458 489.0238,644.7568 482.3383,657.9905 472.8409,674.5859 462.9726,689.7329 452.6864,704.0565 434.149,727.611 414.5278,750.5248 393.0542,773.3051 370.9443,794.8154 359.3874,805.2531 348.3353,814.689 338.2702,822.7019 329.1318,829.3804 320.875,834.75 314.5405,838.1387 309.7455,839.7533 308.0231,839.8241 306.803,839.366 306.1242,838.3506 306.0127,836.9649 307.3075,832.9189 310.7031,827.0 316.3098,819.1913 323.4184,810.4382 332.056,800.6202 355.2183,776.3624 378.1365,753.8405 404.8548,728.6619 494.6473,647.0379 520.4922,623.1409 544.3731,600.1932 563.1944,580.9621 579.4545,562.7492 586.0197,554.6586 591.8585,546.8477 596.5653,539.8657 600.383,533.4043 603.7217,526.675 606.1207,520.5455 607.6624,514.9869 608.4547,509.6547 608.4655,504.9043 607.742,500.4453 606.2824,496.2269 604.0311,492.2735 601.244,488.9495 597.6499,485.8863 592.5999,482.7772 587.3758,480.5956 581.4167,479.1152 574.9039,478.2667 568.9773,478.3508 562.439,479.33 557.2491,481.1079 555.4062,482.3711 555.0156,483.0352 555.2588,483.3096 555.749,483.2412 558.2297,482.131 562.3242,479.2441 568.1006,474.1117 574.4256,467.4461 580.4764,460.147 587.1692,451.2524 593.5234,442.0578 599.614,432.4669 606.1108,421.3716 612.3537,409.9502 623.5308,387.1497 632.5348,365.5838 640.5575,342.2943 646.1227,322.2254 649.9782,303.3043 651.366,293.7985 652.3162,284.6799 652.8356,276.0052 652.9342,267.4479 652.5889,259.1744 651.8044,251.224 650.6307,243.9323 649.0197,236.9487 646.9514,230.3258 644.5522,224.4321 641.7715,219.0524 638.5612,214.0685 634.9508,209.549 630.9536,205.5314 626.5831,202.0536 622.1791,199.3277 617.4725,197.1354 612.4262,195.4781 607.1754,194.3925 601.3576,193.8585 595.7285,193.9452 589.9578,194.6026 584.0725,195.8329 577.8495,197.7258 571.668,200.1767 565.5052,203.1677 559.0733,206.8782 553.0488,210.9166 547.1403,215.4352 541.6788,220.1412 536.0155,225.609 530.6545,231.3649 525.5568,237.4193 520.5094,244.0552 515.7731,250.963 511.3595,258.1142 507.2798,265.4804 503.633,272.8367 497.1158,288.514 491.888,305.0147 488.0501,322.0753 485.9816,336.3632 484.8466,351.2571 484.6742,366.1404 485.5193,381.054 487.3469,396.0176 490.0087,410.5592 493.6578,424.8558 498.8303,441.2215 504.9198,457.027 510.9905,469.9322 517.23,480.9254 522.3798,488.4852 524.9914,491.7976 528.1764,495.1289 531.5277,498.0229 534.4951,499.9192 537.5052,501.2828 540.6465,502.1406 543.6989,502.3906 547.2338,502.0742 550.5354,501.2012 555.4174,499.0196 560.4322,495.8632 565.9826,491.4984 571.5333,486.3551 577.3079,480.1831 583.8407,472.4035 590.0719,464.3247 596.3403,455.4937 610.0252,433.9799 621.7004,413.2269 634.2007,387.5821 644.1656,364.0187 652.0545,341.9369 658.2541,320.914 662.8686,300.4681 665.9332,280.6719 666.8216,271.5364 667.3235,262.4714 667.4058,253.8965 667.0661,245.4806 666.2751,237.0428 665.0912,229.2455 663.4688,221.7344 661.5046,214.9117 659.5192,209.4364 657.221,204.2368 654.6007,199.3395 651.6748,194.7865 648.3799,190.4797 644.7812,186.5355 640.8887,182.9759 637.0196,180.0341 632.9134,177.4606 628.5778,175.2728 624.0208,173.4884 619.25,172.125 614.1729,171.1656 608.9434,170.6375 603.5785,170.5395 598.0949,170.8707 592.5094,171.6301 586.839,172.8164 581.1004,174.4288 575.3104,176.4661 563.8273,181.7194 552.5675,188.4711 541.3667,196.8167 530.3833,206.7074 520.1214,217.6931 510.6304,229.6865 505.1925,237.5421 500.143,245.6293 495.4889,253.9106 491.2372,262.3486 487.25,271.25 483.741,280.141 480.5513,289.3929 477.8109,298.6062 475.4091,308.1157 473.3675,317.8782 471.651,328.1946 470.4743,337.7789 469.7341,347.2819 469.3883,357.278 469.4544,367.3242 469.9153,377.7285 470.7303,387.8654 471.992,398.1086 473.712,408.5524 475.9935,419.771 478.3377,429.63 481.0944,439.5579 488.8281,463.168 498.5598,487.7679 506.5378,505.8464 513.4936,520.2855 518.7909,529.9381 523.25,536.75 526.1519,540.1331 529.8896,543.2364 532.761,544.6606 535.6555,545.3404 538.5625,545.2969 542.1054,544.6096 545.3148,543.463 548.7959,541.6603 556.2994,536.28 564.9864,528.2551 576.0496,516.2535 586.974,502.6163 597.9987,487.4861 610.0222,469.5973 620.903,452.097 632.05,432.6279 642.3081,413.1708 651.95,393.1922 660.7737,373.1652 668.5949,353.519 675.375,334.375"/>
  </g>
</svg>
