<?xml version="1.0" encoding="utf-8" ?>
<svg xmlns="http://www.w3.org/2000/svg" xmlns:cc="http://creativecommons.org/ns" xmlns:dc="http://purl.org/dc/elements/1.1/" xmlns:ev="http://www.w3.org/2001/xml-events" xmlns:inkscape="http://www.inkscape.org/namespaces/inkscape" xmlns:rdf="http://www.w3.org/1999/02/22-rdf-syntax-ns" xmlns:sodipodi="http://sodipodi.sourceforge.net/DTD/sodipodi-0.dtd" xmlns:xlink="http://www.w3.org/1999/xlink" baseProfile="tiny" height="27.09333333cm" version="1.2" viewBox="0 0 1024.0 1024.0" width="27.09333333cm">
  <metadata>
    <rdf:RDF>
      <cc:Work>
        <dc:format>image/svg+xml</dc:format>
        <dc:source>vpype read './original_svgs/Strange Attractors #50.svg' linemerge linesimplify write './Strange Attractors #50.svg'
</dc:source>
        <dc:date>2024-08-05T01:35:21.867216</dc:date>
      </cc:Work>
    </rdf:RDF>
  </metadata>
  <defs/>
  <g fill="none" id="layer1" inkscape:groupmode="layer" inkscape:label="1" stroke="black" stroke-width="0.7mm" style="display:inline">
    <polyline points="446.375,664.75 452.625,645.25 463.625,613.375 488.625,545.5 491.125,537.25 492.25,532.375 492.25,529.5 491.875,528.5 491.125,527.875"/>
    <polyline points="490.625,527.625 487.625,527.375 479.0,528.5 473.625,528.875 466.875,528.75 460.625,528.0"/>
    <polyline points="458.25,527.625 446.875,525.125 439.875,522.875 431.5,519.75 421.625,515.5 409.875,509.75 395.875,502.125 379.25,492.0 359.625,479.0 337.125,462.75 325.0,453.5 300.125,433.125 288.125,422.625 276.875,412.25"/>
    <polyline points="267.125,402.75 259.25,394.5 254.125,388.125 251.75,384.0 252.5,382.625 256.125,383.875 262.5,387.625 281.125,401.5 292.375,410.5 348.5,457.875 367.25,473.125 375.625,479.5 390.375,489.875 403.125,497.75 414.125,503.375 423.625,507.25"/>
    <polyline points="428.0,508.625 435.875,510.625 443.0,511.875 452.5,512.5 460.625,512.25 470.125,511.0 478.25,509.25 483.75,507.625 490.25,505.25"/>
    <polyline points="491.75,504.625 498.875,501.25 507.625,495.875 514.375,490.625 521.5,483.625"/>
    <polyline points="522.5,482.5 527.0,477.0 530.375,471.5 531.125,468.625 531.0,467.75 530.0,466.625 528.875,466.375 527.25,466.5 522.125,467.75 512.625,471.75 496.375,480.25 484.375,487.125"/>
    <polyline points="468.875,496.5 422.625,525.5 389.625,547.125 348.5,574.75 299.0,608.5 184.0,687.875 131.875,723.25 96.125,745.25 83.0,747.625 91.75,730.0 143.375,657.625 169.875,615.75 190.625,575.75 204.5,539.0 211.625,505.75 213.25,476.0 211.125,449.375 206.75,426.0 198.75,390.125 198.0,378.75 200.75,372.375 207.25,371.0"/>
    <polyline points="217.375,374.25 230.125,381.625 244.875,391.875 260.5,404.0 276.25,417.125 291.375,430.375 350.875,484.25 367.125,497.875 374.0,503.125 386.0,511.25 391.25,514.25 400.625,518.5 404.875,520.0 412.625,521.875 419.625,522.75 426.0,522.875"/>
    <polyline points="429.0,522.75 437.375,521.875 454.0,518.25 469.0,513.5 479.0,509.375"/>
    <polyline points="480.25,508.75 484.625,506.625 488.625,504.0 490.125,502.625 490.75,501.375 489.75,500.875 488.25,501.125 482.0,503.25"/>
    <polyline points="479.5,504.25 469.125,509.25 452.375,518.125 426.75,532.875 389.375,555.5 324.25,595.875 292.75,614.5 280.125,621.375 270.625,625.625 264.75,627.0 262.75,625.25 264.375,620.5 269.0,613.375 276.0,604.25"/>
    <polyline points="284.625,594.0 313.625,561.875 331.75,542.875 347.125,527.5 359.875,515.625 365.375,510.875 378.625,500.625 385.625,496.375 388.625,494.875 394.0,492.625 398.625,491.375 400.625,491.0 407.375,490.75"/>
    <polyline points="408.875,490.875 412.625,491.5 415.5,492.375 418.375,493.5 420.5,494.875 420.375,495.375 418.5,495.125"/>
    <polyline points="417.875,495.0 413.625,493.625 400.625,487.625 386.375,479.5 377.375,473.625"/>
    <polyline points="375.125,472.125 370.875,469.25 362.375,462.625 359.5,459.875 358.75,458.625 360.5,459.0 362.875,460.125 377.25,468.25"/>
    <polyline points="379.75,469.75 401.0,481.75 434.875,499.0"/>
    <polyline points="436.125,499.75 440.25,502.0 444.125,504.75 444.75,505.5 445.0,506.75 444.0,507.5 440.75,507.625"/>
    <polyline points="439.875,507.5 436.375,507.0 428.25,504.75 419.125,501.375 410.625,497.5 392.5,487.875 383.875,482.75 369.75,473.5"/>
    <polyline points="364.875,470.125 350.0,459.375 336.5,448.625 329.5,442.375 324.875,437.75 323.625,436.125 323.125,435.125 323.375,434.75 324.5,434.875 326.375,435.75 332.125,439.0 370.625,464.375"/>
    <polyline points="376.0,467.75 386.25,474.125 400.875,482.375 414.0,489.125 421.875,492.75 429.25,495.875 442.0,500.625 452.5,504.0 463.25,507.0"/>
    <polyline points="465.0,507.375 482.625,512.125 488.75,514.875"/>
    <polyline points="489.125,515.125 490.375,516.625 490.5,518.0 489.625,519.625 487.375,521.375"/>
    <polyline points="486.875,521.625 483.625,523.25 477.0,525.0 468.125,525.75 461.25,525.375"/>
    <polyline points="459.25,525.125 452.25,523.875 446.75,522.5 440.375,520.625 428.75,516.375 413.875,509.625 394.875,499.375 370.625,484.25 351.5,471.0 330.125,455.125 308.0,437.25"/>
    <polyline points="297.25,428.0 287.25,419.0 271.25,403.25 266.125,397.375 263.375,393.25 263.25,391.375 265.5,391.625 270.25,394.125 277.0,398.5 285.375,404.625 305.0,420.125 346.375,453.875 373.125,474.5 388.25,485.0 395.0,489.25 407.25,496.25 412.75,499.0"/>
    <polyline points="418.0,501.375 427.5,505.0 435.875,507.5 446.875,509.5 456.375,510.375 467.25,510.125 474.25,509.375 482.625,507.875 489.875,505.875"/>
    <polyline points="491.5,505.375 499.375,502.5 503.75,500.5 510.625,496.75 516.0,493.375 527.25,485.0"/>
    <polyline points="528.75,483.75 556.5,460.875 577.125,445.125 604.5,425.75 636.625,404.375"/>
    <polyline points="650.625,395.5 684.125,375.125 703.875,363.75 725.25,352.0 747.625,340.75 770.0,330.75 790.625,323.5 807.625,320.375 818.875,323.0 822.875,332.25 819.125,348.125 808.125,369.375 791.75,394.625 772.25,421.5 751.75,448.25 684.375,533.5 646.375,583.5 642.625,588.0"/>
    <polyline points="639.625,591.25 637.125,593.5 634.875,594.75 632.875,595.125 630.875,594.75 629.0,593.875 627.0,592.5 622.625,588.5 607.0,572.25 595.125,561.375 586.25,554.375 574.75,546.75"/>
    <polyline points="572.125,545.25 566.875,542.375 559.5,538.875 548.625,534.75 537.625,531.875 529.875,530.625 524.5,530.125"/>
    <polyline points="523.125,530.125 517.125,530.0 511.75,530.375 504.375,531.375 495.875,533.0"/>
    <polyline points="494.75,533.25 484.5,534.875 479.875,535.25 474.375,535.375 468.125,535.0 457.375,533.375 447.0,530.75 443.0,529.375"/>
    <polyline points="438.5,527.875 428.375,523.75 416.0,518.0 401.0,510.0 392.25,504.875 371.875,492.25 347.375,475.25 333.5,465.125 318.625,453.625 287.25,427.875 271.75,414.0 257.125,400.375 244.375,387.625 234.5,376.75 228.375,368.625 226.375,364.0 228.75,363.375 235.25,366.625 245.125,373.375 257.375,383.0"/>
    <polyline points="271.25,394.625 300.25,420.25 339.0,456.25 359.75,475.125 376.625,489.625 390.25,500.25 401.5,507.75 406.5,510.5 415.25,514.625 422.75,517.125 429.375,518.625 438.125,519.25 443.25,519.125"/>
    <polyline points="445.75,518.875 456.375,517.125 465.25,514.625 474.875,511.0 482.0,507.25"/>
    <polyline points="482.625,506.875 483.75,505.875 483.875,505.125 482.0,505.25 478.5,506.375 469.5,510.25 457.875,516.125 440.375,525.75 424.375,535.0"/>
    <polyline points="414.875,540.625 339.875,585.875 314.125,601.0 303.125,607.0 294.375,611.125 288.125,613.375 284.625,613.375 283.875,611.25 285.875,607.0 290.0,601.0 295.875,593.75 303.125,585.625 319.5,568.5 336.25,552.125 344.125,544.75 365.5,526.625"/>
    <polyline points="371.625,522.0 382.625,514.375 391.875,509.0 399.875,505.125 406.75,502.625 415.25,500.625 424.125,500.0 430.75,500.625 437.125,502.375"/>
    <polyline points="437.875,502.75 439.875,503.875 440.5,504.625 440.375,505.125 438.75,505.625 434.75,505.25 426.375,503.0"/>
    <polyline points="424.5,502.375 415.75,498.875 401.125,491.75 382.375,480.875 373.875,475.375 356.25,463.0 337.25,447.75"/>
    <polyline points="334.5,445.25 330.75,441.5 329.625,439.375 330.0,439.125 332.75,440.125 337.875,443.0 367.5,462.125 382.0,471.125 400.125,481.625 408.5,486.0"/>
    <polyline points="412.5,488.0 427.0,494.625 439.125,499.5 453.625,504.5 471.0,510.0"/>
    <polyline points="472.125,510.5 475.875,511.875 480.625,514.5 482.25,516.625 482.0,518.375"/>
    <polyline points="481.875,518.75 479.5,520.625 475.0,522.375 468.875,523.25 461.75,523.25"/>
    <polyline points="460.0,523.125 449.5,521.375 444.0,520.0 437.75,518.0 430.5,515.375 422.0,511.75 406.375,504.125 393.75,497.125 370.875,482.875 353.0,470.625 333.375,456.0"/>
    <polyline points="323.25,448.0 303.5,431.5 294.375,423.5 286.375,415.875 279.75,409.25 274.875,403.75 272.125,399.875 271.5,397.75 273.125,397.625 276.75,399.375 289.625,407.875 363.25,465.375 379.25,476.875 386.5,481.75 399.75,489.875"/>
    <polyline points="405.75,493.125 416.75,498.5 426.5,502.375 439.125,506.25 446.5,507.75 459.25,509.125 467.5,509.25 472.375,509.0 481.125,508.0 486.875,506.875"/>
    <polyline points="488.75,506.5 498.625,503.75 507.125,500.25 515.25,496.0 524.625,489.875"/>
    <polyline points="526.0,488.875 567.5,457.25 598.125,435.875"/>
    <polyline points="605.25,431.125 631.875,414.125 654.625,400.375 667.625,392.875 696.625,377.25 712.0,369.75 727.375,363.0 742.0,357.5 755.125,354.125 765.625,353.5 772.625,356.25 775.5,362.625 773.875,372.625 768.125,385.875 758.75,401.625 746.75,419.0 733.25,436.875 718.875,454.5 704.75,471.25 691.125,486.75 667.125,512.75"/>
    <polyline points="656.875,523.25 639.75,539.75 626.375,551.125 620.875,555.25 615.875,558.375 611.5,560.875 603.75,564.125 597.25,565.5 591.375,565.625 588.75,565.375 581.25,563.75 564.0,557.375"/>
    <polyline points="562.125,556.625 552.75,553.375 542.75,550.75 532.375,549.375 523.125,549.625"/>
    <polyline points="521.875,549.875 515.875,550.875 509.875,552.625 489.875,560.125"/>
    <polyline points="488.25,560.625 480.5,562.5 473.25,563.25 463.875,562.875 455.75,561.5 445.375,558.625 439.125,556.5 423.5,549.75 413.75,544.875 388.625,530.5 372.375,520.25 353.25,507.25 330.5,490.875 303.75,470.375 272.75,445.375"/>
    <polyline points="237.875,415.625 200.5,381.5 163.375,345.0 131.125,309.75 109.125,281.25 102.125,265.125 111.625,264.5 134.75,279.375 166.125,305.75 199.75,338.625 231.125,373.25 257.75,406.5 278.75,436.75 294.25,463.375 304.875,486.5 311.5,506.125 315.0,522.75 316.125,536.875 315.625,548.625 314.375,558.25 310.375,575.625 310.375,578.0 311.375,578.875 313.375,578.25"/>
    <polyline points="316.375,576.5 325.25,570.25 349.25,552.25 362.125,543.25 380.75,531.625 392.0,525.5 407.125,518.75 416.125,515.5 427.875,512.25 440.875,510.125"/>
    <polyline points="443.75,509.875 453.75,509.375 465.25,510.0 474.5,511.625 478.25,512.625 481.0,513.75"/>
    <polyline points="481.5,514.0 483.25,515.0 484.5,516.375 484.75,517.25 484.25,519.0 482.0,520.875"/>
    <polyline points="481.625,521.125 476.25,523.125 468.875,524.125 459.25,523.75 450.375,522.125"/>
    <polyline points="447.875,521.5 438.75,518.875 427.25,514.625 407.125,505.0 387.0,493.625 362.0,477.375 342.75,463.625 332.5,455.875 311.625,439.125 292.25,422.125 283.875,414.25 277.125,407.375"/>
    <polyline points="272.125,401.75 269.25,397.75 268.75,395.75 270.5,395.625 274.5,397.625 280.5,401.375 288.0,406.75 306.125,420.625 336.0,444.625 363.625,466.25 387.0,482.75 400.25,490.875 411.875,497.0 422.125,501.5 431.25,504.75"/>
    <polyline points="435.375,505.875 443.125,507.625 450.125,508.75 456.375,509.375 464.875,509.625 474.625,509.0 479.0,508.375 488.625,506.5 497.0,504.0"/>
    <polyline points="498.5,503.375 507.125,499.75 516.625,494.5 524.875,488.875 534.125,481.75"/>
    <polyline points="535.875,480.375 556.25,464.375 574.875,450.5 598.0,434.375 613.875,423.75 633.75,411.0 658.625,395.875 672.875,387.625"/>
    <polyline points="688.5,378.875 705.125,370.125 722.25,361.625 739.375,354.0 755.625,348.25 769.625,344.875 780.5,345.0 786.875,349.25 788.25,357.875 784.5,370.75 776.0,387.125 763.75,405.875 749.25,425.875 733.5,446.0 717.625,465.375 702.5,483.25 675.875,513.625 655.0,536.125 646.625,544.875 639.25,552.0 627.5,562.375 622.75,566.0 618.5,568.75"/>
    <polyline points="614.75,570.75 611.375,572.125 605.375,573.25 600.0,573.125 595.125,571.875 590.375,570.0 583.625,566.625 574.875,561.75 564.5,556.5 556.625,553.125"/>
    <polyline points="554.75,552.375 551.125,551.0 544.125,549.0 536.25,547.5 531.875,547.0 525.0,546.875 517.25,547.625"/>
    <polyline points="516.0,547.875 506.125,550.125 492.25,554.25 483.375,556.125 479.0,556.625"/>
    <polyline points="476.625,556.75 471.375,556.75 461.375,555.625 457.375,554.875 448.0,552.375 436.0,548.0 420.375,541.0 399.625,529.875 386.625,522.0 371.5,512.375 353.875,500.375 333.375,485.75 309.875,467.75 283.125,446.375 253.5,421.375 222.25,393.25 191.25,363.375 163.625,334.375 143.25,309.75"/>
    <polyline points="133.375,293.375 136.0,288.25 150.25,295.125 173.0,312.125 200.25,336.375 228.125,364.0 254.0,392.25 276.25,419.125 294.625,443.5 309.125,464.875 320.0,483.5 328.0,499.375 333.625,512.75 337.25,524.125 339.625,533.5 341.0,541.25 342.75,556.375 343.25,559.25 344.125,561.0 345.5,562.0 347.125,562.125 349.375,561.625 355.125,558.875"/>
    <polyline points="358.625,557.0 384.75,541.5 394.125,536.5 407.875,529.75 420.625,524.5 432.375,520.375 446.125,516.375 458.0,513.75"/>
    <polyline points="460.625,513.25 492.375,507.875 498.0,506.75 504.0,505.125"/>
    <polyline points="505.125,504.875 512.5,502.25 516.375,500.5 522.0,497.5 529.875,492.375"/>
    <polyline points="531.0,491.625 555.375,473.5 576.375,458.625"/>
    <polyline points="579.875,456.25 587.625,451.0 606.875,438.75 625.375,427.75 639.75,419.75 655.375,411.5 663.625,407.625 680.125,400.5 688.0,397.75 695.25,395.75 701.75,394.625 707.125,394.625 711.25,395.875 713.75,398.5 714.5,402.5 713.625,407.75 711.125,414.25"/>
    <polyline points="707.0,421.75 701.625,430.0 695.125,438.75 687.875,447.625 672.0,465.125 655.875,481.0 640.5,494.625 633.25,500.375 626.375,505.5 614.0,514.0 608.25,517.375 597.875,522.75 588.75,526.625 580.75,529.25 570.25,531.625 564.125,532.375"/>
    <polyline points="561.25,532.625 556.0,533.0 544.625,533.0 530.5,532.375 517.0,532.5"/>
    <polyline points="515.875,532.625 505.5,533.75 491.25,536.375 485.5,537.125"/>
    <polyline points="484.0,537.25 475.0,537.625 465.75,537.0 457.0,535.375 449.875,533.625 436.625,529.125 425.5,524.5 403.875,513.5 385.25,502.625 374.375,495.625"/>
    <polyline points="362.25,487.625 348.875,478.375 334.375,467.75 318.75,455.75 285.125,428.125 268.125,413.125 252.0,398.0 237.75,383.875 226.625,371.625 219.5,362.375 217.125,357.0 219.75,356.25 226.875,359.875 237.75,367.5 251.375,378.25 266.5,391.125 297.5,419.375 358.625,477.875 375.25,493.0"/>
    <polyline points="382.125,498.875 393.875,507.875 399.0,511.375 407.75,516.375 411.625,518.125 418.625,520.625 427.625,522.25 432.875,522.5 437.75,522.25 448.25,520.5 456.875,518.125"/>
    <polyline points="458.5,517.625 469.625,513.375 473.875,511.125 475.0,510.25 474.5,510.0 472.75,510.5"/>
    <polyline points="471.75,510.875 460.375,516.0 445.25,523.875 413.5,541.875 346.375,581.375 337.0,586.625 321.375,594.75"/>
    <polyline points="315.625,597.0 311.75,598.0 309.625,597.625 309.5,595.75 311.0,592.625 314.125,588.375 323.75,577.625 329.875,571.5 343.375,559.125 357.125,547.5 370.375,537.25 382.625,528.875 388.25,525.375 398.75,519.625 408.125,515.375 416.375,512.25 423.625,510.25"/>
    <polyline points="427.0,509.375 436.0,508.0 441.125,507.625 453.125,508.125 457.625,508.875 462.375,510.125 466.375,511.75 467.5,512.5"/>
    <polyline points="467.875,512.75 468.875,513.75 469.375,514.75 469.125,516.0 467.875,517.0 465.0,518.125 459.0,518.625"/>
    <polyline points="457.75,518.5 454.75,518.375 449.625,517.625 440.625,515.5 435.125,513.75 425.125,510.0 417.125,506.5 407.875,501.875 391.25,492.75 378.125,484.75 363.5,475.0"/>
    <polyline points="355.75,469.5 331.0,451.0 322.75,444.375 307.625,431.375 301.125,425.375 291.625,415.625 289.0,412.375 288.0,410.375 288.625,409.625 291.0,410.375 294.75,412.5 306.125,420.125 353.5,455.5 376.25,471.625"/>
    <polyline points="383.25,476.25 396.25,484.25 407.875,490.625 423.125,497.625 436.125,502.25 447.375,505.125 457.0,506.875 465.375,507.75 472.75,508.125 479.25,508.0"/>
    <polyline points="481.25,507.875 488.5,507.375 499.0,505.625 509.875,502.375 515.25,500.0"/>
    <polyline points="516.25,499.5 521.5,496.75 526.875,493.375 536.375,486.75 546.875,478.875"/>
    <polyline points="548.625,477.5 580.125,455.0 609.0,436.25 636.75,419.875 662.125,406.5"/>
    <polyline points="671.125,402.25 689.0,394.75 697.5,392.0 705.125,390.125 711.625,389.5 716.875,390.125 720.375,392.375 722.0,396.125 721.625,401.5 719.375,408.25 715.375,416.25 709.625,425.25 702.75,434.75 695.0,444.625 686.5,454.5 669.0,473.125 660.375,481.625 643.875,496.5 636.25,502.875 622.375,513.25 610.125,521.125"/>
    <polyline points="604.625,524.25 594.75,529.0 590.25,530.75 582.125,533.375 574.875,535.125 565.375,536.375 557.25,536.75 545.75,536.5 533.0,535.75"/>
    <polyline points="531.375,535.625 517.375,535.625 508.875,536.5 499.125,538.125"/>
    <polyline points="497.875,538.375 486.5,540.125 479.5,540.625 470.75,540.5 462.625,539.5 456.125,538.125 443.875,534.625 439.0,532.875"/>
    <polyline points="433.625,530.75 421.0,525.125 413.625,521.375 405.375,517.0 385.75,505.625 361.25,489.625 347.0,479.625 331.25,468.0 314.125,454.75 295.875,440.0 276.875,424.0 258.0,407.125 240.125,390.25 224.625,374.375 212.875,361.0 206.0,351.375 204.75,346.5 209.25,347.0 218.875,352.625 232.375,362.75 248.375,376.125 265.5,391.375 282.625,407.375"/>
    <polyline points="298.875,423.25 314.0,438.25 367.625,492.875 380.875,505.5 391.25,514.375 403.125,522.25 406.5,523.875 412.5,526.0 417.75,527.125 422.625,527.375 427.125,527.125 433.375,526.125"/>
    <polyline points="435.375,525.75 447.625,522.25 458.625,518.25 466.5,514.625"/>
    <polyline points="466.875,514.375 467.375,514.0 461.25,516.375 450.125,521.875 435.0,530.0 412.625,542.625"/>
    <polyline points="405.875,546.5 368.0,568.375 346.625,580.0 336.125,584.875 332.5,586.0 330.125,586.25 329.125,585.5 329.375,583.875 333.375,578.25 345.875,565.75 362.625,551.875 374.25,543.25 380.0,539.375"/>
    <polyline points="385.625,535.75 396.375,529.375 406.375,524.25 415.5,520.25 427.75,515.875 438.375,513.25 450.25,511.25 457.75,510.625 469.625,510.625"/>
    <polyline points="471.25,510.625 479.625,511.375 485.5,512.375 489.0,513.25 492.625,514.75"/>
    <polyline points="492.875,515.0 494.25,516.375 494.375,517.625 493.5,519.25 492.125,520.375"/>
    <polyline points="491.875,520.625 489.0,522.375 484.0,524.375 478.625,525.75 474.0,526.25"/>
    <polyline points="472.75,526.375 466.625,526.5 463.125,526.25 454.25,525.0 445.875,523.0 431.25,518.0 422.0,514.0 411.0,508.75 398.125,501.75 382.75,492.625"/>
    <polyline points="374.125,487.125 354.875,474.125 333.375,458.25 322.0,449.375 299.25,430.5 279.0,412.0 270.875,403.875 264.75,397.125 261.125,392.25 260.0,389.5 261.625,389.0 265.75,390.875 272.125,395.0 280.375,400.875 300.25,416.5 342.875,451.625 361.875,466.75"/>
    <polyline points="370.5,473.25 386.0,484.375 399.375,492.875 405.5,496.25 416.375,501.625 425.875,505.375 434.375,507.875 442.0,509.5 448.875,510.5 460.75,510.875 468.5,510.375 475.25,509.375"/>
    <polyline points="477.375,509.0 486.875,506.75 493.625,504.5 499.75,502.0 506.75,498.375 516.0,492.375"/>
    <polyline points="517.25,491.5 528.5,482.625 559.125,456.375 571.625,446.625"/>
    <polyline points="576.75,442.75 582.625,438.25 605.875,421.625 641.75,397.5 657.75,387.25 676.25,375.625 697.375,362.875 721.0,349.125 746.875,334.875 773.875,321.375 800.375,310.0 823.625,302.875 840.625,302.375 848.875,310.25 846.75,327.0 835.0,351.625 815.75,381.75 792.25,414.375 724.0,504.625 706.75,528.125"/>
    <polyline points="692.875,548.125 682.125,564.625 674.125,578.125 668.25,588.875 658.0,611.0 656.875,612.5 655.875,612.625 654.75,611.75 653.5,609.875 644.75,595.625 638.375,586.25 631.0,576.75 627.125,572.0 619.0,563.125 611.0,555.0 607.0,551.375"/>
    <polyline points="603.125,548.0 595.5,542.0 588.375,536.875 581.75,532.75 570.0,526.5 557.75,521.625 549.625,519.25 540.0,517.125"/>
    <polyline points="538.625,516.875 527.75,515.5 518.0,515.125"/>
    <polyline points="517.5,515.125 513.25,515.375 509.25,516.25"/>
    <line x1="509.0" x2="502.0" y1="516.375" y2="519.5"/>
    <polyline points="501.625,519.625 493.875,523.375 489.375,525.0"/>
    <polyline points="488.625,525.25 480.5,527.25 472.875,528.0 464.25,527.75 452.375,525.875"/>
    <polyline points="449.5,525.125 435.375,520.75 421.5,514.875 409.875,509.25 388.375,497.125 379.875,491.875 360.75,479.25 338.875,463.5 327.125,454.5 302.875,434.875 280.125,414.625 262.625,397.125 257.25,390.75"/>
    <polyline points="254.625,386.5 254.875,384.75 258.0,385.5 263.875,388.875 271.75,394.375 281.375,401.625 303.375,419.5 357.0,464.25 382.25,483.5 396.25,492.625 408.125,499.5 418.625,504.375 423.25,506.125 435.75,509.875"/>
    <polyline points="439.5,510.5 446.375,511.5 452.625,511.875 461.0,511.75 468.375,511.0 474.875,509.875 486.25,506.875 495.625,503.125"/>
    <polyline points="497.125,502.5 505.25,498.125 511.5,494.0 517.5,489.25 528.5,479.0"/>
    <polyline points="529.75,477.625 551.25,455.0 566.25,440.625 588.375,422.125 607.0,407.875 619.625,398.625"/>
    <polyline points="635.125,387.5 654.625,373.875 679.125,357.375 709.5,337.375 747.0,313.5 791.875,286.25 842.75,257.5 895.0,231.875 939.875,216.5 965.75,220.625 964.125,249.25 936.125,300.25 891.625,364.0 843.625,429.75 801.75,490.5 770.375,542.75 750.375,586.25 740.5,621.75 739.0,650.0 743.375,671.75 751.375,687.25 760.625,696.5 769.25,699.25 775.375,695.75 778.0,686.25 776.75,671.75"/>
    <polyline points="771.875,653.5 764.125,633.125 754.5,611.75 743.875,590.75 733.125,571.0 722.75,552.75 704.5,522.5 690.125,500.125 679.0,484.75 674.375,479.125 670.25,474.75 666.375,471.5 662.875,469.125 659.5,467.5 656.25,466.625 653.0,466.25 646.625,466.875 640.25,468.875 630.375,473.125"/>
    <polyline points="627.0,474.75 604.375,485.875 590.125,491.875 575.75,496.5 562.875,499.125"/>
    <polyline points="561.375,499.375 557.25,499.875 548.875,500.0 544.5,499.25 542.875,498.5 542.125,497.75"/>
    <polyline points="541.875,497.5 541.5,496.75 541.5,495.5 542.0,494.0 544.25,490.875 548.125,486.875"/>
    <polyline points="548.875,486.125 557.5,478.75 566.0,472.25 575.625,465.375 588.25,457.0"/>
    <polyline points="591.125,455.125 612.375,442.625 629.625,433.5 643.375,427.25 656.375,422.75 660.375,421.875 666.875,421.25 669.5,421.625 671.375,422.625 672.75,424.125 673.25,426.125 673.125,428.625 672.25,431.75"/>
    <polyline points="670.625,435.125 668.5,439.0 665.625,443.25 662.25,447.625 654.375,456.75 640.5,470.125 635.625,474.375 625.875,482.0 616.5,488.75 607.5,494.375 599.125,499.0 591.375,502.75 584.25,505.625 577.75,508.0 571.75,509.75"/>
    <polyline points="569.0,510.375 561.375,512.0 550.875,513.375 539.75,514.0 528.875,513.875"/>
    <line x1="528.125" x2="515.75" y1="513.875" y2="513.625"/>
    <polyline points="515.375,513.625 513.25,513.75 510.625,514.375"/>
    <polyline points="510.375,514.375 507.375,515.75 500.125,520.0"/>
    <polyline points="499.75,520.125 492.5,523.625 486.125,525.75"/>
    <polyline points="485.25,526.0 480.375,527.125 472.875,527.875 462.25,527.5 455.25,526.375 449.75,525.125 439.75,522.125"/>
    <polyline points="435.875,520.75 427.0,517.25 416.625,512.5 404.125,506.0 389.375,497.625 371.875,486.625 351.625,472.75 328.875,455.75 304.75,436.25 281.875,416.125 272.125,406.75 264.125,398.5 258.375,391.75 255.25,387.25 255.125,385.125 257.875,385.625 263.25,388.625"/>
    <polyline points="270.875,393.75 280.25,400.75 302.0,418.25 335.5,446.5 355.75,463.125 373.375,476.75 388.5,487.625 401.5,495.75 412.875,501.625 417.875,503.875 427.125,507.375 435.375,509.625 446.0,511.375 449.25,511.625"/>
    <polyline points="452.375,511.75 455.25,511.875 465.75,511.25 478.75,509.0 489.5,505.75 495.625,503.25 501.25,500.5"/>
    <polyline points="502.625,499.75 507.75,496.625 514.0,492.25 520.125,487.25 526.375,481.5 534.5,473.25"/>
    <polyline points="536.0,471.75 556.625,451.125 572.0,437.625 583.625,428.125 610.75,407.625 640.125,386.875 684.5,356.875 714.5,337.5 750.5,315.125"/>
    <polyline points="792.625,290.25 838.75,265.25 884.625,244.125 922.25,233.25 942.75,239.5 940.125,266.5 915.25,312.0 876.375,368.125 833.75,426.625 795.125,481.125 764.75,528.875 743.5,568.875 730.875,601.75 725.625,628.125 725.75,648.875 729.625,664.375 735.625,674.875 742.125,680.25 747.625,680.75 751.25,676.625 752.25,668.25 750.5,656.25 746.25,641.75 739.875,625.5 731.875,608.625 723.125,591.75"/>
    <polyline points="714.0,575.625 704.875,560.625 696.125,547.0 688.0,534.875 673.75,515.0 661.875,500.5 656.875,495.0 652.25,490.375 648.125,486.75 644.25,483.75 637.25,479.75 631.125,477.625 628.125,477.125 625.375,476.875 620.0,477.0 612.5,478.375 605.375,480.375"/>
    <polyline points="603.125,481.125 588.625,485.875 580.0,488.375 572.75,490.0 564.375,490.875"/>
    <polyline points="563.625,490.875 562.125,490.875 559.75,490.375 557.75,489.25 557.25,487.625 557.375,486.875 558.875,484.125"/>
    <polyline points="559.25,483.625 562.625,479.875 571.375,472.5 578.625,467.25 588.0,461.0"/>
    <polyline points="590.125,459.625 599.625,453.875 613.5,446.25 619.5,443.25 631.75,438.0 637.5,436.125 642.625,434.875 644.875,434.625 647.0,434.625 650.0,435.375 651.125,436.125 651.75,437.25"/>
    <polyline points="652.0,438.5 651.375,442.125 649.125,446.5 647.375,449.125 640.625,457.375 631.75,466.0 618.375,476.75 611.625,481.375 601.625,487.375 592.5,492.125 586.75,494.625"/>
    <polyline points="584.0,495.75 574.125,499.125 563.875,501.625 551.625,503.25 547.125,503.375 543.5,503.125"/>
    <polyline points="542.75,503.125 538.625,502.375 536.75,501.5 535.625,500.0 535.75,498.25"/>
    <polyline points="535.875,498.0 536.875,496.125 539.375,493.125 544.75,487.875 548.125,485.0"/>
    <polyline points="549.125,484.25 557.25,477.625 571.0,467.5 583.25,459.125 599.625,448.875"/>
    <polyline points="603.375,446.625 616.0,439.25 630.25,431.75 640.375,426.875 650.625,422.5 655.625,420.625 664.875,418.0 668.875,417.25 672.5,417.0 675.375,417.375 677.625,418.375 679.125,420.0 679.75,422.25 679.625,425.125 678.625,428.625 676.75,432.625 670.875,441.75 667.0,446.75"/>
    <polyline points="662.75,451.875 653.0,462.25 642.5,472.125 637.125,476.75 626.5,485.125 611.625,495.375 598.125,502.875 586.25,508.125 579.25,510.75 572.875,512.625 564.375,514.625 559.25,515.5"/>
    <polyline points="557.0,515.75 550.5,516.5 541.625,517.0 522.5,517.0"/>
    <polyline points="521.75,517.125 514.875,517.375 508.5,518.5"/>
    <polyline points="508.125,518.625 504.875,519.625 497.125,522.75"/>
    <polyline points="496.625,523.0 491.75,524.875 485.375,526.75 480.25,527.75 475.25,528.25"/>
    <polyline points="473.75,528.375 465.25,528.25 456.375,527.0 450.875,525.875 441.0,523.0 428.375,518.25 412.125,510.625 398.625,503.375 391.0,499.0 373.625,488.125"/>
    <polyline points="363.75,481.625 353.25,474.25 330.25,457.25 305.75,437.625 293.625,427.25 271.875,407.125 263.375,398.5 257.125,391.375 253.625,386.375 253.125,383.875 255.5,384.0 260.625,386.625 268.25,391.75 277.625,398.75 299.625,416.5 354.25,462.375 372.125,476.5"/>
    <polyline points="380.125,482.375 394.375,492.0 406.5,499.125 417.125,504.25 426.375,507.75 430.5,509.0 441.875,511.375 454.375,512.25 464.875,511.625 476.0,509.75"/>
    <polyline points="477.875,509.25 486.875,506.625 497.5,502.125 504.125,498.5 509.125,495.25 513.75,491.625"/>
    <polyline points="514.875,490.75 525.0,481.25 531.625,473.75 538.0,465.375 541.625,459.5"/>
    <polyline points="542.375,458.125 543.375,455.5 543.625,453.125 543.25,452.25 542.5,451.625 541.125,451.375 538.875,451.625 535.75,452.5 531.125,454.25 524.75,457.25 503.625,468.75 486.75,478.75 432.375,513.5 390.25,541.5 334.625,579.5 264.5,628.5 99.75,745.625 34.625,790.625 5.625,805.25 15.625,784.5 50.625,737.125"/>
    <polyline points="91.625,677.75 125.375,616.75 146.125,559.5 153.75,506.75 150.5,458.625 140.0,414.75 126.875,375.875 115.75,344.125 111.25,322.125 115.875,311.875 130.125,313.875 152.0,326.75 178.0,347.375 204.875,372.375 230.0,398.75 252.125,424.5 270.5,448.125 285.25,469.25 296.75,487.5 305.5,503.125 312.0,516.25 317.0,527.125 323.75,543.0 326.5,548.375 329.0,552.375"/>
    <polyline points="331.625,555.125 334.5,556.625 337.75,557.25 341.25,557.125 349.25,554.75 363.375,548.25 388.75,535.375 403.375,528.75 421.125,522.0 429.25,519.375 440.125,516.5"/>
    <polyline points="443.5,515.625 458.5,512.75 466.125,511.625 495.625,508.0"/>
    <polyline points="496.875,507.75 504.5,506.375 509.875,504.875 514.0,503.375 519.375,500.875"/>
    <polyline points="520.125,500.375 523.125,498.75 529.5,494.5 542.75,484.625"/>
    <polyline points="544.125,483.625 562.875,469.625 573.125,462.375 590.125,451.0 613.75,436.375"/>
    <polyline points="619.375,433.125 631.75,426.125 645.25,419.0 659.5,412.25 673.75,406.375 686.75,402.625 692.25,401.875 696.875,401.875 700.375,403.0 702.625,405.25 703.5,408.5 703.0,412.875 701.125,418.25 698.0,424.375 693.625,431.25 688.375,438.625 675.75,453.75 668.75,461.25 654.375,475.5"/>
    <polyline points="647.25,481.875 640.375,487.875 633.625,493.25 621.0,502.625 615.125,506.5 604.25,512.875 594.625,517.625 582.0,522.5 571.375,525.25 562.25,526.875 545.5,527.875"/>
    <polyline points="543.5,527.875 520.875,527.625 510.125,528.5"/>
    <polyline points="509.125,528.625 491.125,532.125 482.0,533.375"/>
    <polyline points="480.5,533.5 471.75,533.75 467.5,533.5 460.125,532.5 447.375,529.375 434.625,525.0 424.0,520.5 411.125,514.25 395.625,505.625 376.75,494.125"/>
    <polyline points="365.875,486.875 341.125,469.5 327.375,459.125 312.875,447.75 298.0,435.5 283.125,422.75 268.75,409.75 255.875,397.375 245.125,386.125 237.25,377.125 233.125,370.875 233.0,368.125 236.875,369.0 244.25,373.25 254.5,380.625 266.625,390.375 280.125,401.625 307.5,425.875 354.625,468.375 372.625,483.75"/>
    <polyline points="380.375,489.875 393.75,499.75 405.0,506.625 414.5,511.25 422.75,514.375 430.0,516.125 436.5,517.0 442.25,517.375 450.0,517.0 454.75,516.375 461.0,515.125 466.625,513.625"/>
    <polyline points="468.375,513.125 476.125,510.5 484.625,506.625 488.125,504.5 490.0,503.0 491.125,501.75 491.25,500.875"/>
    <polyline points="491.125,500.625 489.375,500.625 485.75,501.625 479.0,504.375 472.125,507.625 456.75,515.625 441.875,524.0 397.25,550.625 315.375,601.25"/>
    <polyline points="299.125,611.0 284.875,619.125 273.375,624.875 265.375,627.875 261.375,627.75 261.125,624.375 264.375,618.25 270.375,609.875 287.75,589.125 307.625,567.0 326.375,547.0 349.625,523.5 361.625,512.375 375.5,501.125 382.625,496.375 388.625,493.25"/>
    <polyline points="391.25,492.125 395.875,490.625 399.875,489.875 404.875,489.75 410.25,490.375 413.25,491.25 418.0,493.25 419.25,494.375 419.0,494.625 417.375,494.5 412.75,493.0 405.25,489.75 396.875,485.375"/>
    <polyline points="395.0,484.375 378.5,474.25 368.75,467.375 363.125,462.875 360.625,460.0 362.125,460.125"/>
    <polyline points="363.0,460.5 370.75,464.625 392.25,477.0 418.0,490.625"/>
    <polyline points="419.875,491.625 432.625,498.125 438.75,501.625 441.625,503.875 442.5,505.125 442.375,505.625"/>
    <polyline points="442.25,505.875 440.75,506.375 438.625,506.375 433.125,505.5 428.5,504.125 418.0,500.25 403.5,493.375"/>
    <polyline points="400.0,491.5 392.625,487.375 380.125,479.75 366.5,470.75 352.625,460.75 344.0,454.0 333.375,445.0 327.625,439.0 327.0,437.875 327.125,437.375 329.5,438.0 334.375,440.75"/>
    <polyline points="337.75,442.75 379.875,470.0 403.375,483.5 419.5,491.5 430.125,496.0 442.125,500.625"/>
    <polyline points="444.875,501.5 454.375,504.625 472.5,510.0 481.375,513.25"/>
    <polyline points="482.0,513.625 484.5,515.25 485.625,517.0 485.375,518.625 483.5,520.625"/>
    <polyline points="483.0,520.875 477.625,523.125 474.875,523.75 469.25,524.375 459.625,524.0 455.5,523.375"/>
    <polyline points="453.25,523.0 445.375,521.125 439.125,519.25 431.75,516.625 423.25,513.0 407.375,505.375 394.625,498.25 379.5,489.125 371.125,483.75 352.75,471.125 332.375,456.0 311.375,439.125 291.75,421.875"/>
    <polyline points="283.25,413.875 276.375,406.875 271.25,401.125 268.375,397.125 267.75,395.0 269.625,395.0 273.625,396.875 287.25,406.125 296.125,412.75 354.75,459.625 363.5,466.375 379.625,478.0 400.25,491.125 411.875,497.25 422.125,501.75"/>
    <polyline points="426.75,503.5 435.375,506.125 446.625,508.5 450.0,509.0 462.125,509.75 469.875,509.5 481.0,508.125 488.5,506.5 493.625,505.0"/>
    <polyline points="495.25,504.5 502.875,501.625 512.5,496.75 522.0,490.625 530.875,484.0"/>
    <polyline points="532.5,482.75 559.75,461.25 580.75,445.75 616.125,421.625 649.5,400.625"/>
    <polyline points="663.25,392.375 694.875,374.375 712.375,365.25 730.25,356.625 748.0,349.125 764.25,343.625 778.0,341.125 787.875,342.625 792.75,348.625 792.25,359.25 786.25,374.125 775.75,392.375 761.75,412.625 746.0,433.75 729.5,454.5 713.25,474.125 698.25,491.875 672.375,521.5 652.625,543.125 644.75,551.25 638.125,557.875 627.375,567.5"/>
    <polyline points="623.0,570.625 619.125,573.0 615.75,574.625 612.625,575.625 609.75,576.25 607.0,576.25 602.0,575.5 597.25,573.75 592.625,571.5 572.625,559.5 562.0,554.125"/>
    <polyline points="560.0,553.25 554.25,550.75 541.75,547.0 533.875,545.625 529.5,545.25 520.125,545.375"/>
    <polyline points="518.875,545.5 507.5,547.5 490.625,551.75 483.375,553.0"/>
    <polyline points="481.25,553.125 479.125,553.375 471.5,553.375 461.875,552.25 449.0,549.125 437.75,545.125 431.0,542.375 414.5,534.375 404.5,529.0 379.375,514.0 363.875,503.75 346.0,491.375 325.625,476.25 302.375,458.25 276.625,437.25 248.875,413.25 220.375,387.125"/>
    <polyline points="193.125,360.375 170.125,335.5 154.375,315.5 148.375,303.5 153.125,301.375 167.5,309.375 188.875,325.875 213.625,348.0 238.875,372.875 262.625,398.125 283.375,422.25 300.875,444.125 315.125,463.5 326.375,480.375 335.125,494.75 341.625,507.0 346.5,517.25 352.75,532.875 358.625,549.875 359.875,551.875 361.25,553.125 362.875,553.875"/>
    <polyline points="364.75,554.0 366.875,553.75 371.875,552.0 399.625,537.875 418.625,529.125 425.875,526.125 436.125,522.375 448.625,518.375"/>
    <polyline points="451.625,517.5 487.75,507.625 496.0,504.875 502.0,502.5"/>
    <polyline points="503.375,501.875 511.625,497.75 519.625,492.875 531.125,484.625 539.75,477.875"/>
    <polyline points="541.75,476.25 556.375,464.875 579.375,447.875 612.25,425.5 621.25,419.75 654.875,399.0 668.5,391.125 683.25,382.75 699.0,374.375 715.375,366.25"/>
    <polyline points="731.75,358.875 747.5,353.0 761.5,349.25 772.625,348.5 780.0,351.375 782.875,358.375 780.75,369.375 774.125,383.875 763.75,401.125 750.5,419.75 735.875,439.0 720.625,457.75 705.75,475.5 678.875,505.875 667.375,518.375 648.25,538.25 633.625,551.875 622.5,560.875 613.75,566.25 606.625,569.0"/>
    <polyline points="603.375,569.75 597.75,570.0 595.125,569.75 590.125,568.625 583.125,566.0 560.125,555.5 549.25,551.625"/>
    <polyline points="547.5,551.125 542.625,549.875 536.5,548.875 530.75,548.375 525.375,548.375 520.25,548.875 513.0,550.375"/>
    <polyline points="511.75,550.625 504.375,552.875 493.375,556.75 484.875,559.0 478.625,560.0 470.75,560.25"/>
    <polyline points="467.625,560.125 460.5,559.25 451.625,557.25 446.375,555.625 433.5,550.875 416.375,542.875 393.125,529.875 378.5,520.75 361.125,509.25 340.75,494.875 316.875,477.125 289.375,455.5 258.25,429.625 224.375,399.625 189.75,366.875 157.375,333.75 132.0,304.25 118.0,283.25 118.375,274.75 132.5,280.25 157.125,298.25"/>
    <polyline points="187.25,324.875 218.0,355.75 246.0,387.25 269.875,417.125 288.75,444.0 303.125,467.75 313.375,488.0 320.125,505.375 324.375,520.125 326.5,532.5 327.25,542.75 327.125,551.25 325.75,567.0 326.0,569.5 326.875,570.75 328.5,570.875 330.875,570.125 337.625,566.125 362.875,549.125"/>
    <polyline points="368.5,545.5 374.125,541.875 390.5,532.5 405.75,525.125 415.0,521.375 423.5,518.375 438.5,514.375 451.0,512.125 465.75,510.75"/>
    <polyline points="467.875,510.75 478.625,510.5 497.875,511.375"/>
    <line x1="498.5" x2="506.875" y1="511.5" y2="512.5"/>
    <polyline points="507.125,512.5 508.5,513.0 508.75,513.375 508.625,513.875 506.875,515.5 503.5,517.75"/>
    <polyline points="503.25,517.875 499.625,520.125 494.625,522.625"/>
    <polyline points="494.0,522.875 487.75,525.25 481.5,526.875 471.375,527.875"/>
    <polyline points="469.75,527.875 464.375,527.625 455.375,526.375 443.5,523.375 431.875,519.125 416.875,512.625 404.625,506.25 389.875,497.875 372.625,487.0 352.375,473.25"/>
    <polyline points="341.375,465.125 317.75,447.0 293.875,426.875 282.75,416.875 272.875,407.5 264.75,399.125 258.875,392.375 255.625,387.625 255.25,385.375 257.75,385.625 263.0,388.375 279.625,400.25 301.25,417.625 355.0,462.5 372.75,476.25 380.625,482.125 388.0,487.125"/>
    <polyline points="394.75,491.625 407.0,498.625 417.5,503.625 422.375,505.625 435.0,509.5 445.75,511.25 452.125,511.75 457.875,511.75 468.0,511.0 480.625,508.5"/>
    <polyline points="482.5,508.0 492.625,504.5 499.875,501.25 506.5,497.5 510.25,495.0 517.625,489.375"/>
    <polyline points="518.875,488.375 529.125,479.0 547.25,460.625 557.625,450.75 564.75,444.5"/>
    <polyline points="569.0,440.75 586.25,426.75 594.125,420.75 629.125,395.25 667.375,369.125 693.125,352.25 724.375,332.375 761.375,309.75 803.75,285.5 848.75,262.125 891.375,244.25 923.625,238.25 937.25,250.0 928.625,281.375 900.5,328.5 861.375,383.875 820.625,439.75 784.625,491.0 756.75,535.375 737.5,572.625 726.125,603.125"/>
    <polyline points="721.25,627.5 721.5,646.625 724.875,660.75 730.25,670.25 735.875,675.0 740.625,675.375 743.75,671.375 744.625,663.625 742.875,652.625 739.0,639.25 733.0,624.25 725.625,608.625 717.375,593.0 708.75,577.875 691.625,550.625 676.25,528.75 669.375,519.75 663.25,512.0 652.375,499.875 647.625,495.25 643.25,491.5 639.375,488.375 635.625,486.0"/>
    <polyline points="632.25,484.0 629.0,482.5 623.0,480.625 617.625,479.875 610.125,480.125 601.125,481.75 578.5,487.5"/>
    <polyline points="577.125,487.875 568.375,489.125 565.25,489.125 562.875,488.75 561.75,488.25 560.875,487.5 560.5,486.625"/>
    <polyline points="560.5,486.375 560.875,484.375 564.0,480.25 570.375,474.375 575.0,470.875"/>
    <polyline points="576.25,469.875 591.625,459.5 608.125,450.0 616.25,445.875 624.625,442.125 632.625,439.25"/>
    <polyline points="635.125,438.5 639.625,437.625 643.25,437.375 645.875,438.25 646.75,439.0 647.375,440.0 647.375,442.625 646.875,444.375 644.875,448.375 639.625,455.375 629.375,465.625 623.5,470.625 614.125,477.5"/>
    <polyline points="611.0,479.625 608.0,481.625 596.125,488.25 590.5,491.0 582.875,494.125 578.125,495.875 567.875,498.75 559.625,500.25 555.5,500.625"/>
    <polyline points="554.25,500.75 548.125,500.875 544.5,500.5 541.375,499.375 540.5,498.75 540.0,497.75"/>
    <polyline points="539.875,497.375 539.875,496.5 540.375,495.125 541.625,493.0 544.25,490.0 548.875,485.625"/>
    <polyline points="549.75,484.875 561.0,475.625 571.25,468.125 582.75,460.25 594.625,452.75"/>
    <polyline points="598.0,450.625 617.5,439.375 635.75,430.125 645.25,426.0 654.375,422.625 662.625,420.5 669.25,420.125 671.75,420.625 673.625,421.75 674.75,423.375 675.125,425.625 674.875,428.375 673.75,431.75 669.375,439.5"/>
    <polyline points="666.375,443.875 658.625,453.25 649.625,462.75 644.75,467.375 629.75,480.125 624.875,483.875 615.25,490.5 606.25,496.125 597.75,500.625 590.0,504.25 579.625,508.25 567.75,511.625 565.0,512.125"/>
    <polyline points="562.5,512.625 553.625,514.0 546.125,514.625 540.0,514.875 526.125,514.75"/>
    <polyline points="525.375,514.75 516.125,514.75 513.375,515.0"/>
    <polyline points="513.125,515.125 510.625,515.5 506.875,516.875"/>
    <line x1="506.625" x2="499.0" y1="517.0" y2="520.875"/>
    <polyline points="498.625,521.0 492.125,524.0 482.75,526.75"/>
    <polyline points="481.75,527.0 473.0,528.0 468.25,528.0 464.5,527.75 455.5,526.5 447.0,524.5 436.125,521.0 422.375,515.25"/>
    <polyline points="417.0,512.75 397.625,502.5 389.875,498.0 372.5,487.125 352.25,473.25 341.125,465.125 317.375,446.75 305.25,436.875 293.375,426.625 272.375,407.125 264.125,398.625 258.25,391.875 255.0,387.25 254.75,385.0 257.375,385.25 262.625,388.125 270.125,393.25 279.5,400.25 301.25,417.625"/>
    <polyline points="312.625,427.25 355.125,462.75 372.875,476.625 388.125,487.375 394.875,491.875 401.25,495.625 412.5,501.625 417.625,503.875 426.875,507.375 431.125,508.625 438.875,510.375 445.75,511.375 452.125,511.875 460.5,511.75"/>
    <polyline points="463.125,511.5 467.875,511.0 476.625,509.5 487.625,506.375 496.875,502.625 506.25,497.5"/>
    <polyline points="507.625,496.625 512.5,493.25 521.0,486.25 529.75,477.875 539.875,467.25"/>
    <polyline points="541.625,465.375 556.875,449.875 571.875,436.375 590.625,421.125 599.5,414.375 623.625,396.625 660.5,370.875 717.5,333.25 755.875,309.25 801.0,282.375 851.0,255.0 900.375,232.125"/>
    <polyline points="940.25,221.25 959.875,230.125 953.0,262.625 922.25,314.75 878.125,377.0 832.375,440.0 793.125,497.25 764.0,546.5 745.375,587.375 736.125,620.625 734.5,647.125 738.25,667.5 745.375,682.0 753.75,690.625 761.375,693.375 767.0,690.25 769.5,681.75 768.625,668.625 764.25,652.0 757.25,633.25 748.375,613.5 738.5,593.75 728.25,575.0 718.25,557.75 700.125,528.375"/>
    <polyline points="692.375,516.5 679.25,497.875 673.875,490.75 669.0,485.0 664.625,480.5 660.625,476.875 657.0,474.125 650.25,470.875 644.0,469.75 641.0,469.875 635.0,470.875 626.0,473.875 602.875,484.125"/>
    <polyline points="600.25,485.25 587.75,490.125 579.125,492.875 573.375,494.375 562.75,496.375 556.125,496.75"/>
  </g>
</svg>
