<?xml version="1.0" encoding="utf-8" ?>
<svg xmlns="http://www.w3.org/2000/svg" xmlns:cc="http://creativecommons.org/ns" xmlns:dc="http://purl.org/dc/elements/1.1/" xmlns:ev="http://www.w3.org/2001/xml-events" xmlns:inkscape="http://www.inkscape.org/namespaces/inkscape" xmlns:rdf="http://www.w3.org/1999/02/22-rdf-syntax-ns" xmlns:sodipodi="http://sodipodi.sourceforge.net/DTD/sodipodi-0.dtd" xmlns:xlink="http://www.w3.org/1999/xlink" baseProfile="tiny" height="27.09333333cm" version="1.2" viewBox="0 0 1024.0 1024.0" width="27.09333333cm">
  <metadata>
    <rdf:RDF>
      <cc:Work>
        <dc:format>image/svg+xml</dc:format>
        <dc:source>vpype read './original_svgs/Strange Attractors #327.svg' linemerge linesimplify write './Strange Attractors #327.svg'
</dc:source>
        <dc:date>2024-08-05T01:35:48.550822</dc:date>
      </cc:Work>
    </rdf:RDF>
  </metadata>
  <defs/>
  <g fill="none" id="layer1" inkscape:groupmode="layer" inkscape:label="1" stroke="black" stroke-width="0.7mm" style="display:inline">
    <polyline points="517.0,566.75 516.625,554.25 515.875,544.25 512.75,522.5 510.75,512.875 510.375,512.75 507.75,515.125 499.0,521.5"/>
    <line x1="498.625" x2="486.5" y1="521.75" y2="530.625"/>
    <polyline points="485.875,531.125 474.0,540.25 464.0,548.875"/>
    <polyline points="462.875,549.875 457.25,555.25 451.5,561.625 448.125,566.0 445.0,570.875 442.375,576.25 441.0,580.125 440.0,584.375 439.625,588.875"/>
    <polyline points="439.75,591.25 440.5,596.25 442.375,601.5 445.75,607.125 447.875,610.0 450.625,612.875 457.375,618.5 461.5,621.25 471.5,626.375 477.25,628.625 490.0,632.125 497.0,633.375 504.125,634.125 511.375,634.375 518.5,634.125 525.5,633.25 532.125,632.0 538.25,630.125 543.875,628.0 548.875,625.375"/>
    <polyline points="553.125,622.375 556.75,619.25 559.625,615.875 562.0,612.5 563.625,608.875 564.75,605.375 565.375,601.875 565.625,598.375 565.375,594.875 564.375,588.25 561.5,579.0 555.375,565.375 547.5,549.625"/>
    <polyline points="546.5,547.625 541.125,535.625 539.125,529.875 537.125,521.375 536.75,517.25 536.875,514.375"/>
    <polyline points="536.875,513.5 538.25,507.375 540.375,502.5 543.5,497.5 547.625,492.375"/>
    <polyline points="548.375,491.375 567.125,470.0 576.875,457.0"/>
    <polyline points="578.375,454.75 584.375,444.625 588.875,435.25 591.625,427.875 594.25,419.5 596.375,409.75 598.0,398.375 598.5,385.0 597.625,369.25 596.5,360.25 594.75,350.625 592.25,340.125 589.0,328.875 584.625,316.875 579.25,304.0"/>
    <polyline points="572.625,290.625 564.5,276.75 555.0,262.875 544.0,249.375 531.5,236.75 517.625,225.875 502.875,217.25 487.625,211.875 472.375,210.25 457.75,212.75 444.5,219.375 432.875,229.625 423.375,243.125 415.875,259.0 410.625,276.25 407.125,294.125 405.25,311.875 404.625,329.0 405.0,345.25 406.125,360.25 407.75,373.875 409.75,386.375 414.25,407.75 418.875,424.875"/>
    <polyline points="421.0,432.125 427.0,449.875 434.375,470.375 437.25,479.5 438.5,484.625 439.75,491.625 440.0,497.75 439.5,503.375 438.125,508.625"/>
    <polyline points="437.5,510.25 436.125,513.625 432.25,519.875 428.625,524.375 424.25,528.875 419.125,533.25 413.25,537.625 406.625,542.0 396.375,547.75"/>
    <polyline points="393.5,549.125 381.0,554.875 374.0,557.5 366.375,560.125 358.0,562.375 348.75,564.25 338.625,565.625 327.25,566.125 321.125,565.875 307.5,564.0 300.125,562.125 292.25,559.375 283.875,555.75 275.125,550.75 266.0,544.25 256.75,535.875"/>
    <polyline points="247.75,525.25 239.5,512.0 232.875,495.75 229.25,476.5 230.0,454.375 236.875,430.25 250.75,405.5 272.0,381.75 299.5,361.0 330.75,344.125 362.875,331.625 393.25,323.0 420.0,317.25 460.375,310.375 474.125,307.75 484.25,305.375 491.25,302.875 495.625,300.25 497.875,297.625 498.375,295.125 497.625,293.0 495.75,291.25 493.0,290.0 489.625,289.625 486.0,290.0"/>
    <polyline points="482.125,291.375 478.25,293.75 474.5,297.0 471.0,301.125 467.875,306.125 465.125,311.75 462.875,318.125 461.125,325.0 459.75,332.125 458.875,339.5 458.5,346.875 458.375,354.375 459.25,369.0 460.125,376.0 462.375,389.125 465.25,401.25 468.375,412.125 473.25,426.25 476.5,434.375"/>
    <polyline points="478.125,438.125 485.625,453.75 490.875,463.375 498.5,475.75 506.0,486.0"/>
    <polyline points="506.75,486.75 510.625,490.875 514.0,493.625 517.75,495.375 520.75,495.875"/>
    <polyline points="521.25,496.0 523.25,495.875 527.125,494.875 530.625,493.375 536.0,490.125"/>
    <polyline points="536.75,489.625 545.0,483.5 550.875,478.375 561.375,467.875"/>
    <polyline points="562.625,466.375 569.375,458.125 576.5,447.375 582.25,436.375 586.25,426.125 588.625,418.125 590.625,408.75 592.0,398.0 592.5,385.5"/>
    <polyline points="592.25,378.5 590.625,362.625 589.0,353.875 586.75,344.375 583.875,334.125 580.125,323.25 575.375,311.875 569.625,299.875 562.625,287.625 554.5,275.25 545.0,263.125 534.375,251.75 522.5,241.5 509.75,233.125 496.5,227.25 483.0,224.25 469.875,224.625 457.5,228.375 446.375,235.5 436.75,245.625 428.875,258.25 422.875,272.5 418.5,288.0 415.625,303.875 414.125,319.625"/>
    <polyline points="413.75,335.0 414.125,349.5 415.25,363.0 416.75,375.625 418.625,387.125 422.75,407.125 427.125,423.5 431.25,437.0 444.625,475.625 447.0,484.0 448.375,491.125"/>
    <polyline points="448.625,493.375 449.0,497.5 448.75,503.375 447.875,508.625 446.375,513.625 444.125,518.5 440.25,524.625 436.625,529.125 430.875,535.125"/>
    <polyline points="429.25,536.75 420.25,544.5 411.75,551.125 382.75,572.125 376.625,576.75 367.375,584.375"/>
    <polyline points="364.25,587.25 358.125,593.25 352.25,600.125 347.25,608.125 345.25,612.5 343.625,617.5 342.75,622.875 342.5,628.875 343.5,635.5 345.875,643.0 350.125,651.375 356.75,660.625 366.625,670.875 380.5,682.125 399.375,693.875 424.25,705.75 455.375,716.5 492.875,724.75 535.0,728.875 578.625,727.375 619.75,720.0 654.375,707.75 680.25,692.75"/>
    <polyline points="697.25,677.625 706.75,664.25 710.875,653.875 711.5,646.75 710.0,642.875 707.25,641.75 703.875,642.75 700.125,645.625 685.875,659.125 680.0,663.75 673.625,667.875 666.625,671.25 659.0,673.5 651.125,674.5 642.875,674.25 634.375,672.875 626.0,670.25 617.75,666.75 609.625,662.25 602.0,657.25 594.75,651.75 587.875,646.0 581.5,640.125 575.75,634.125"/>
    <polyline points="570.375,628.25 560.875,617.0 549.625,601.875 538.625,585.625 525.875,565.875 520.5,558.25 515.0,551.375"/>
    <polyline points="514.0,550.25 511.25,547.25 507.75,544.25 504.375,542.125 502.0,541.0 498.875,540.0 495.875,539.625 493.5,539.75"/>
    <polyline points="492.75,539.75 487.875,540.75 482.875,542.75 475.5,546.875 470.625,550.375"/>
    <polyline points="469.625,551.25 465.5,554.625 461.25,558.625 455.125,565.75 451.5,571.5 449.25,576.25 448.125,579.75 447.375,583.5"/>
    <polyline points="447.25,585.375 447.25,589.5 448.75,596.125 451.0,600.75 454.25,605.5 456.375,607.875 461.75,612.625 465.0,614.875 472.75,619.125 477.125,621.0 486.875,624.125 497.75,626.125 503.375,626.625 514.625,626.5 520.125,625.875 525.375,624.75"/>
    <polyline points="530.25,623.375 534.75,621.625 538.875,619.625 542.375,617.375 545.5,614.75 548.125,612.125 550.25,609.25 551.875,606.375 553.125,603.375 553.875,600.375 554.375,597.375 554.375,591.375 553.5,585.625 552.75,582.75 549.0,572.25 545.75,565.125 542.375,558.625"/>
    <polyline points="541.25,556.625 527.875,531.5 524.625,524.25"/>
    <polyline points="524.375,523.5 522.375,517.375 522.0,515.0 522.25,511.0"/>
    <polyline points="522.375,510.625 524.0,506.875 525.75,504.5 528.125,502.0"/>
    <line x1="528.5" x2="542.875" y1="501.625" y2="488.625"/>
    <polyline points="543.625,487.875 550.0,482.125 559.875,472.125 567.625,463.125 571.75,457.625"/>
    <polyline points="573.25,455.625 576.125,451.25 582.0,440.875 586.25,431.25 587.5,427.625 590.0,419.625 592.125,410.375 593.0,405.25 594.125,393.625 594.125,380.125 593.625,372.5 591.25,355.25 589.125,345.75 586.25,335.375 582.625,324.375"/>
    <polyline points="577.875,312.625 572.125,300.375 565.25,287.75 557.0,274.875 547.5,262.25 536.625,250.25 524.5,239.375 511.375,230.375 497.625,223.875 483.625,220.375 469.875,220.375 456.875,223.875 445.125,231.125 435.125,241.5 426.875,254.5 420.5,269.25 415.875,285.375 413.0,301.75 411.375,318.125 411.0,334.0 411.5,348.875 412.625,362.875 414.125,375.75 416.0,387.375 420.375,407.75"/>
    <polyline points="422.5,416.375 426.875,431.375 430.875,443.625 441.25,473.0 444.5,484.375 445.75,491.5 446.25,497.875 446.125,501.75 445.625,505.375"/>
    <polyline points="445.25,507.25 444.375,510.625 441.625,517.125 438.75,521.875 436.5,524.875 431.25,531.0 426.5,535.5 421.125,540.125 412.875,546.375"/>
    <polyline points="410.625,548.0 395.375,558.125 380.375,567.375 347.375,586.875 326.125,600.375"/>
    <polyline points="321.75,603.5 312.875,610.25 308.625,613.875 304.375,617.875 300.375,622.25 296.625,627.0 293.375,632.375 290.875,638.25 289.25,645.125 288.875,652.875 290.5,662.0 294.75,672.625 302.875,685.25 316.375,700.0 337.625,717.0 369.0,735.75 413.5,754.75 472.5,770.875 544.25,779.25 620.875,775.375 690.125,758.375 741.75,732.5 772.75,705.625 787.25,684.25 791.375,671.875"/>
    <polyline points="790.25,668.75 787.0,674.25 782.5,686.625 776.625,704.125 768.875,724.75 758.5,746.125 744.75,766.0 727.5,781.875 707.125,792.125 684.75,795.875 661.375,793.125 638.5,784.875 617.25,772.75 598.25,758.25 581.875,742.75 568.25,727.375 557.375,713.0 548.75,699.75 542.25,688.0 537.5,677.625 534.25,668.625 532.25,660.75 531.125,653.875 530.75,647.875 531.0,642.625 531.625,637.875"/>
    <polyline points="532.5,633.5 538.125,615.625 539.75,609.5 540.75,603.625 541.0,598.0 540.375,590.0 538.625,582.5 536.25,575.75 531.375,565.625"/>
    <polyline points="530.375,563.875 524.5,554.25 518.25,545.875 513.375,540.625 509.125,537.0"/>
    <polyline points="508.375,536.5 504.5,534.375 500.625,533.375 496.875,533.25 492.125,534.25"/>
    <polyline points="491.5,534.5 487.875,535.875 481.5,539.25 474.375,544.0 470.5,547.0"/>
    <polyline points="469.5,547.75 462.0,554.25 454.375,562.375 449.25,569.5 446.625,574.5 444.625,579.875"/>
    <polyline points="444.125,581.875 443.5,588.125 443.875,592.625 445.125,597.375 447.5,602.5 451.125,607.625 453.625,610.25 456.375,612.875 463.25,617.875 467.375,620.375 472.0,622.625 482.5,626.5 488.25,628.0 494.375,629.25 500.625,630.0 513.375,630.375 519.625,629.875"/>
    <polyline points="525.625,628.875 531.375,627.5 536.625,625.75 541.5,623.625 549.375,618.5 554.875,612.5 558.25,606.0 559.125,602.75 559.875,596.25 559.375,589.875 558.75,586.875 556.125,578.125 552.75,570.125 548.0,560.5"/>
    <polyline points="546.875,558.25 536.875,538.375 533.875,531.625 530.75,522.0"/>
    <polyline points="530.625,521.125 529.875,515.5 530.0,512.625 531.0,508.25 533.0,504.0"/>
    <polyline points="533.375,503.5 534.875,501.0 537.875,497.25 548.75,485.875"/>
    <polyline points="549.75,485.0 558.0,476.5 568.0,465.0 575.0,455.5 579.5,448.5 580.875,445.875"/>
    <polyline points="582.375,443.125 585.375,437.125 588.125,430.25 592.0,418.125 594.0,408.5 595.375,397.25 595.875,384.125 595.5,376.625 594.875,368.625 593.625,359.875 591.875,350.5 589.375,340.375 586.125,329.375 581.875,317.75 576.625,305.5 570.125,292.625 562.375,279.5 553.25,266.25 542.75,253.5"/>
    <polyline points="530.75,241.625 517.75,231.25 503.75,223.25 489.375,218.0 474.875,216.375 461.125,218.375 448.375,224.25 437.25,233.75 427.875,246.125 420.625,260.75 415.25,277.0 411.625,293.875 409.5,310.875 408.625,327.375 408.875,343.0 409.75,357.75 411.25,371.25 413.125,383.625 415.25,394.75 417.375,404.875 421.875,422.25 430.125,447.75"/>
    <polyline points="431.875,452.75 439.75,475.5 443.125,488.75 443.875,495.25 443.75,501.25 442.5,508.375 441.375,511.75 439.875,515.0"/>
    <polyline points="439.125,516.625 436.125,521.375 432.625,525.875 428.375,530.5 423.5,535.0 411.5,544.125 401.875,550.375 393.625,555.25"/>
    <polyline points="390.75,556.875 384.625,560.25 370.875,567.0 350.75,575.75 331.375,582.25 320.25,585.0 314.25,586.125 301.0,587.625 293.625,588.0 285.75,587.75 277.25,586.875 268.125,585.125 258.0,582.25"/>
    <polyline points="247.0,578.0 235.125,571.75 222.25,562.875 208.75,550.75 195.375,534.5 183.25,513.0 174.625,485.5 173.0,452.125 182.5,413.875 206.5,374.25 245.25,337.625 294.625,308.125 347.375,287.125 396.25,273.5 436.875,264.375 467.5,257.125 488.625,249.875 501.375,241.625 507.25,232.125 507.25,221.875 502.625,211.5 494.125,202.0 482.75,194.375 469.5,189.75 455.25,189.0 441.125,192.75"/>
    <polyline points="427.875,200.875 416.375,213.25 407.0,229.0 399.875,247.125 395.0,266.625 392.125,286.5 390.875,306.0 390.875,324.5 392.0,341.75 393.75,357.5 395.875,371.625 401.125,395.625 406.625,414.5 411.75,429.5 420.75,451.0 428.875,468.75"/>
    <polyline points="430.125,471.625 433.125,479.375 435.5,488.25 436.25,494.125 436.25,497.75 435.875,501.375 435.125,504.75 433.5,509.625 432.0,512.75 427.875,518.75"/>
    <polyline points="426.75,520.25 421.125,526.125 414.125,531.625 405.625,537.125 398.25,541.125 389.875,544.875 380.375,548.375 373.25,550.375 365.5,552.125"/>
    <polyline points="361.375,552.875 352.5,553.875 342.625,554.125 331.75,553.25 325.875,552.125 319.75,550.625 313.25,548.5 306.5,545.75 299.5,542.0 292.375,537.375 285.0,531.375 277.875,524.125 271.125,515.125 265.25,504.25 260.75,491.5 258.375,476.875 259.125,460.375 263.5,442.625 272.5,424.375 286.125,406.5 304.125,390.0 325.5,375.75 348.625,364.25"/>
    <polyline points="372.0,355.625 394.375,349.375 414.75,345.25 432.5,342.75 447.5,341.125 460.0,340.25 478.0,339.5 496.75,339.375 498.5,340.0 498.5,341.25 495.75,348.0 494.5,352.125 493.5,357.0"/>
    <polyline points="493.125,359.625 492.75,365.25 492.75,371.125 493.25,377.125 494.625,386.0 496.0,391.625 498.625,399.625 503.75,411.125 508.375,418.5 510.875,421.5"/>
    <polyline points="512.0,422.875 515.75,426.5 518.125,428.375 523.0,431.0 526.75,432.125 530.375,432.375 535.125,431.5 538.625,429.875 542.0,427.375"/>
    <polyline points="543.125,426.375 547.375,421.25 551.125,414.25 552.75,410.0 554.125,405.125 555.5,396.75 556.0,390.25 555.625,379.25 554.5,371.0 553.625,366.75 551.125,357.5"/>
    <polyline points="549.5,352.75 545.25,343.0 542.75,338.125 539.875,333.375 536.625,328.625 529.375,319.75 521.0,312.375 516.5,309.5 511.875,307.25 507.125,305.625 502.5,304.75 497.875,304.75 493.375,305.625 489.125,307.25 485.25,309.875 481.625,313.125 478.375,317.125 475.625,321.75 473.25,326.875 471.375,332.5 469.875,338.5 468.875,344.625 468.25,350.875"/>
    <polyline points="467.875,357.25 467.875,363.625 468.25,369.875 469.5,381.875 471.5,393.125 475.375,408.375 479.875,421.375 484.375,432.375 491.75,447.125 498.5,458.0"/>
    <polyline points="499.75,459.875 504.625,466.125 512.0,473.75 516.875,477.25 519.625,478.625 525.125,480.125"/>
    <polyline points="526.0,480.25 530.5,480.125 537.125,478.25 540.125,476.875 545.375,473.75 551.0,469.375"/>
    <polyline points="552.125,468.375 558.375,462.5 563.625,456.5 567.75,451.0 571.875,444.625 577.375,434.125 579.875,427.75 582.25,420.625 584.25,412.375"/>
    <polyline points="585.125,407.75 585.875,402.875 586.75,392.0 586.625,379.375 585.0,364.75 583.625,356.75 581.625,348.0 579.0,338.875 575.75,329.0 571.5,318.75 566.5,308.125 560.5,297.25 553.5,286.125 545.375,275.375 536.25,265.125 526.125,255.75 515.125,247.75 503.625,241.625 491.875,237.875 480.125,236.75 468.875,238.375 458.375,243.0 449.0,250.375"/>
    <polyline points="441.125,260.0 434.625,271.625 429.625,284.625 426.0,298.375 423.75,312.5 422.5,326.5 422.25,340.25 422.625,353.25 423.625,365.625 425.0,377.0 426.75,387.625 430.625,406.375 434.875,422.0 438.875,435.0 452.375,473.625"/>
    <polyline points="453.375,476.625 456.25,487.125 457.5,493.75 458.0,499.75 458.0,503.5 456.75,511.875 453.875,519.5 451.5,523.875"/>
    <polyline points="450.5,525.375 446.375,531.125 439.875,538.375 432.125,546.0 411.125,565.625"/>
    <polyline points="409.125,567.75 400.75,577.125 396.875,582.5 393.375,588.5 391.875,591.75 389.625,598.875 388.875,602.75 388.625,607.0 388.875,611.5 389.75,616.375 391.375,621.5 394.0,627.0 397.75,633.0 402.875,639.25 409.75,645.875 418.5,652.75 429.375,659.75 442.75,666.5 458.75,672.75 477.125,678.25"/>
    <polyline points="497.625,682.25 519.625,684.5 542.25,684.5 564.25,682.125 584.5,677.5 602.0,671.125 616.125,663.5 626.875,655.25 634.25,647.0 639.0,639.125 641.375,632.125 642.125,625.875 641.625,620.5 640.25,615.875 638.5,612.0 636.25,608.75 633.875,606.0 631.375,603.625 626.25,599.625 611.5,589.625"/>
    <polyline points="609.25,587.875 602.75,582.5 597.0,576.75 591.875,570.625 588.875,566.5 582.875,556.125 580.25,550.125 578.375,544.375 577.125,538.75"/>
    <polyline points="576.75,537.0 576.25,530.125 576.375,526.75 576.75,523.5 578.25,517.25 581.375,509.625 586.0,502.0 589.5,497.375"/>
    <polyline points="590.75,495.875 597.875,487.625 614.625,470.125 623.5,460.25 628.25,454.5 633.125,447.875 640.625,436.25"/>
    <polyline points="643.0,431.625 647.75,421.125 649.875,415.0 653.75,400.625 655.125,392.125 656.125,382.375 656.5,371.375 656.25,358.75 654.875,344.125 652.125,327.5 647.75,308.125 641.125,286.0 631.625,260.625 618.375,232.125 600.75,200.875 577.875,167.75 549.375,135.125 515.375,106.25 477.5,85.5 438.25,77.125 401.25,84.25 369.75,106.625 346.0,141.0 330.25,182.5"/>
    <polyline points="321.375,225.875 317.75,267.125 317.625,303.75 319.375,334.875 322.25,360.375 325.5,380.75 329.0,396.625 332.5,408.625 336.0,417.5 339.625,423.75 343.375,428.125 347.375,430.875 351.5,432.5 355.875,433.125 360.625,433.25 387.0,431.375 398.0,431.375 408.375,432.375 413.375,433.125 418.0,434.25"/>
    <polyline points="422.5,435.5 430.75,438.5 438.0,442.25 447.125,448.375 454.5,455.0 460.5,461.75 466.625,470.5 471.25,478.625 474.5,486.125"/>
    <polyline points="475.25,487.875 476.875,492.75 478.0,497.375 478.875,504.25 478.875,508.0 478.5,511.5 477.5,515.875 475.875,520.125"/>
    <polyline points="475.375,521.125 471.125,528.125 467.0,533.25 461.25,539.625 453.125,547.875"/>
    <polyline points="451.875,549.125 447.875,553.125 439.75,562.375 435.75,567.625 430.875,575.5 428.0,582.375 426.75,587.5 426.25,593.0 426.75,599.0"/>
    <polyline points="427.5,602.25 430.25,609.0 432.375,612.625 435.125,616.25 438.5,620.0 442.625,623.75 447.375,627.625 453.125,631.25 459.625,634.875 467.125,638.25 475.375,641.25 484.375,643.75 494.125,645.75 504.25,647.125 514.625,647.625 525.0,647.375 535.125,646.375 544.625,644.5 553.375,641.75 561.125,638.5 567.75,634.75 573.25,630.5 577.625,626.125 580.875,621.625 583.125,617.0"/>
    <polyline points="584.625,612.5 585.25,608.125 585.375,603.875 585.0,599.75 584.25,595.875 582.125,588.5 577.75,578.5 564.25,552.0 560.625,543.375 559.375,539.5"/>
    <polyline points="558.75,537.5 557.75,533.875 556.5,527.125 556.25,519.375 557.25,512.25 558.375,508.25 560.5,502.875 561.875,500.25"/>
    <polyline points="562.625,498.875 566.0,493.375 570.0,487.625 586.25,466.5 594.5,454.25"/>
    <polyline points="596.125,451.375 599.625,445.25 603.125,438.125 608.0,425.625 610.875,415.375 613.125,403.375 614.0,396.5 614.5,389.0 614.625,380.75 614.25,371.625 613.375,361.625 611.75,350.5 609.25,338.25 605.75,324.875 600.875,310.125 594.625,294.125 586.625,277.125 576.625,259.125 564.375,240.75 549.75,222.5"/>
    <polyline points="532.875,205.5 514.125,190.875 493.75,180.125 472.875,174.375 452.5,174.625 433.625,181.25 417.25,194.0 403.875,211.625 393.75,233.0 386.875,256.25 382.75,280.0 380.75,303.125 380.5,324.875 381.375,344.75 383.125,362.625 385.375,378.5 387.875,392.25 390.5,404.25 395.625,423.75 400.5,438.375 406.625,454.0 408.5,458.0"/>
    <polyline points="410.125,461.625 418.125,479.5 419.875,485.0 420.75,490.0 420.875,494.5 420.5,497.5 419.25,501.625 416.5,506.875"/>
    <polyline points="415.5,508.125 411.125,512.875 405.25,517.25 400.0,520.125 393.875,522.625 389.25,524.0 378.875,525.75 373.0,525.875 363.5,525.125"/>
    <polyline points="360.125,524.375 353.25,522.375 349.625,520.875 342.375,517.0 338.875,514.5 335.375,511.5 329.0,504.125 326.25,499.625 324.0,494.625 322.25,489.0 321.25,482.875 321.125,476.375 322.0,469.5 324.0,462.375 327.125,455.0 331.625,447.75 337.25,440.75 344.125,434.25 351.875,428.25 360.375,422.875 369.5,418.375 379.0,414.75 388.375,412.0"/>
    <polyline points="397.625,410.0 406.625,408.75 415.0,408.25 423.0,408.25 437.0,409.75 443.125,411.125 453.875,414.5 462.75,418.625 473.25,425.375 481.625,432.25 486.25,436.625 499.125,450.25"/>
    <polyline points="500.625,451.875 506.375,457.625 510.375,461.125 512.875,463.125 517.625,466.25 521.0,467.875 524.375,469.0 527.625,469.625 530.875,469.625"/>
    <polyline points="532.0,469.625 536.375,468.75 538.625,468.0 542.125,466.5 545.625,464.5 549.25,461.875 554.375,457.5 558.25,453.5 562.125,448.625"/>
    <polyline points="563.5,446.875 566.25,442.875 570.125,436.0 572.625,430.625 575.0,424.5 577.25,417.5 579.0,409.625 580.375,400.625 580.75,395.625 581.0,384.5 580.125,371.75 579.125,364.75 575.75,349.375 573.25,341.0 570.125,332.125"/>
    <polyline points="566.375,322.875 561.875,313.375 556.5,303.75 550.25,294.0 543.125,284.625 535.125,275.625 526.375,267.375 516.875,260.375 506.875,254.875 496.625,251.125 486.5,249.625 476.5,250.5 467.125,253.625 458.75,259.125 451.25,266.75 445.0,276.125 439.875,286.875 436.125,298.5 433.375,310.75 431.75,323.25 431.0,335.625 430.875,347.625 431.375,359.125 432.375,370.125 435.375,389.875"/>
    <polyline points="437.25,398.75 441.0,414.5 443.0,421.5 450.5,444.375 463.375,479.625 465.5,486.875 467.5,497.0"/>
    <polyline points="467.75,498.875 468.0,502.25 467.75,508.5 466.625,514.25 465.75,517.0 464.125,521.0 461.25,526.0 457.75,531.125 455.625,533.625"/>
    <polyline points="454.625,534.875 447.375,542.875 429.25,561.75 422.75,569.625 418.25,576.375"/>
    <polyline points="416.875,578.875 415.5,581.375 413.375,586.875 412.5,589.875 411.5,596.25 411.375,599.625 411.75,603.375 412.5,607.125 413.75,611.25 415.625,615.5 418.25,619.875 421.75,624.5 426.25,629.375 431.75,634.25 438.5,639.125 446.5,644.0 455.875,648.75 466.75,653.0 478.875,656.75 492.125,659.625 506.25,661.625 520.875,662.375 535.5,661.875 549.625,660.125"/>
    <polyline points="562.625,657.125 574.25,653.0 584.0,648.0 592.0,642.5 598.125,636.75 602.5,630.875 605.5,625.125 607.125,619.625 607.75,614.5 607.5,609.625 606.75,605.125 604.0,597.0 602.375,593.375 598.625,586.625 588.0,570.0 582.375,560.375"/>
    <polyline points="581.125,558.125 578.0,551.625 576.375,547.5 574.5,541.5 572.875,532.375 572.75,527.125 573.125,522.25 574.5,516.0 575.5,512.875"/>
    <polyline points="576.125,511.375 579.875,503.75 585.125,496.0 590.25,489.5 609.0,467.875"/>
    <polyline points="611.125,465.375 619.625,454.375 626.375,444.25 630.875,436.125 637.25,421.25 640.875,408.625 642.375,401.25 643.625,393.0 644.375,383.875 644.75,373.375 644.25,361.625 643.0,348.25 640.5,333.0 636.625,315.625 630.75,296.0 622.625,273.75 611.5,249.125"/>
    <polyline points="596.875,222.25 578.125,193.875 554.875,165.5 527.25,139.375 495.875,118.625 462.5,106.375 429.625,105.75 399.75,117.5 375.125,140.75 356.75,172.5 344.75,208.75 338.125,245.875 335.375,281.125 335.375,312.75 337.125,340.125 339.625,363.125 342.75,382.125 346.0,397.375 349.25,409.625 352.375,419.125 355.625,426.5 358.75,432.125 361.875,436.5 365.125,439.625 368.25,441.875 371.625,443.625"/>
    <polyline points="375.0,444.75 381.875,446.25 396.0,448.125 402.875,449.375 409.5,451.0 418.5,454.375 421.25,455.625 426.375,458.625 432.875,463.625 438.125,469.0 442.375,474.75"/>
    <polyline points="443.5,476.625 446.375,482.375 447.75,486.125 449.5,493.5 449.875,498.75 449.625,503.875 448.25,510.375 446.5,515.125 444.125,519.75"/>
    <polyline points="443.125,521.25 437.625,528.75 428.75,537.75 423.5,542.375 413.25,550.5 398.75,561.25"/>
    <polyline points="396.125,563.125 381.875,573.75 372.875,581.0 360.875,592.5 358.0,595.875 352.75,603.125 350.5,607.25 348.625,611.75 347.125,616.625 346.25,622.0 346.25,627.875 347.25,634.5 349.75,641.875 354.0,650.0 360.625,659.125 370.25,669.125"/>
    <polyline points="383.75,679.875 402.0,691.375 425.875,702.625 455.625,713.0 491.375,721.125 531.5,725.25 573.25,724.25 612.875,717.625 646.75,706.375 672.625,692.25 690.0,677.75 700.25,664.5 705.0,653.875 706.0,646.25 704.875,641.5 702.5,639.5 699.375,639.625 695.75,641.375 691.75,644.375 682.5,652.25 677.25,656.25 671.5,660.0 665.125,663.0 658.375,665.125 651.25,666.375"/>
    <polyline points="643.75,666.625 636.125,665.625 628.5,663.75 620.75,660.875 613.25,657.25 606.0,653.0 599.125,648.25 586.375,637.625 575.375,626.75 561.75,610.875 548.375,592.625 531.375,566.875"/>
    <polyline points="529.75,564.5 524.375,556.375 519.875,550.125 516.0,545.375 511.0,540.25 508.75,538.375 505.875,536.625"/>
    <polyline points="505.25,536.25 501.875,534.875 496.5,534.375 491.75,535.25 488.0,536.625"/>
    <polyline points="487.25,537.0 483.25,538.875 476.25,543.25 470.5,547.5 464.25,552.75"/>
    <polyline points="463.125,553.75 458.75,558.0 453.375,564.25 450.375,568.5 446.875,575.0 445.5,578.625 444.25,584.5 444.0,588.625 444.625,593.25"/>
    <polyline points="445.125,595.5 447.125,600.5 450.25,605.5 454.75,610.625 457.625,613.25 461.0,615.75 464.75,618.25 473.625,622.75 484.0,626.375 489.875,627.75 495.875,628.875 502.0,629.625 508.375,629.875 514.625,629.75 520.75,629.125 526.625,628.125 537.25,624.875 541.75,622.625 545.875,620.125 549.25,617.5"/>
    <polyline points="552.125,614.5 554.5,611.5 556.25,608.375 557.625,605.125 558.5,601.875 559.0,595.5 558.5,589.25 557.125,583.25 554.125,574.875 548.375,562.375 540.875,548.125"/>
    <polyline points="540.0,546.25 535.375,536.875 532.125,529.375 529.625,521.375 529.0,517.375"/>
    <polyline points="528.875,516.625 529.0,512.0 529.875,508.375 531.375,505.0 533.625,501.625"/>
    <polyline points="534.0,501.125 539.875,494.25 551.25,483.0"/>
    <polyline points="552.25,482.0 557.625,476.5 566.25,466.75 573.125,457.75 579.0,448.75 584.875,437.5"/>
    <polyline points="586.25,434.25 590.25,423.0 591.5,418.75 593.625,409.25 595.0,398.125 595.375,392.0 595.25,377.875 593.625,361.375 591.875,352.125 589.5,342.125 586.375,331.375 582.375,320.0 577.375,307.75 571.125,295.125 563.625,282.0 554.75,268.875 544.5,256.125 532.875,244.125 520.0,233.5 506.25,225.125"/>
    <polyline points="492.0,219.375 477.625,217.0 463.75,218.375 450.875,223.625 439.5,232.25 429.875,244.125 422.25,258.375 416.5,274.25 412.625,290.875 410.25,307.75 409.25,324.375 409.25,340.125 410.0,355.0 411.375,368.625 413.125,381.25 417.375,402.875 424.0,428.125 431.875,451.75 435.125,460.625"/>
    <polyline points="436.5,464.625 440.0,474.75 442.375,483.25 443.75,490.5 444.375,496.875 444.25,500.875 443.5,506.375 441.375,513.125 438.0,519.5"/>
    <polyline points="437.0,521.0 433.5,525.625 430.75,528.625 424.5,534.625 419.0,539.25 412.75,543.875 400.75,551.75 386.375,560.125"/>
    <polyline points="383.125,561.75 369.375,568.875 361.625,572.5 353.5,576.125 339.875,581.5 329.75,585.0 318.75,588.25 306.5,590.875 299.875,591.875 285.125,592.875 276.75,592.625 267.875,591.625 258.0,589.625 247.25,586.5 235.375,581.625"/>
    <polyline points="222.5,574.375 208.5,564.25 193.875,550.125 179.5,530.875 167.25,505.5 160.0,473.125 162.5,434.125 179.625,391.0 214.125,348.375 263.875,311.875 321.625,284.875 378.0,267.25 462.875,247.375 488.25,239.0 503.5,229.375 510.375,218.25 510.125,205.75 504.0,193.0 493.375,181.25 479.125,171.875 462.5,166.375 445.125,166.125 428.0,171.625 412.5,182.875 399.5,199.25"/>
    <polyline points="389.375,219.5 382.25,242.125 377.75,265.625 375.625,288.75 375.25,310.75 376.125,331.0 378.0,349.25 380.5,365.5 383.25,379.75 386.25,392.25 389.25,403.0 392.375,412.375 398.25,427.5 406.0,443.875 410.625,452.0 422.5,471.5"/>
    <polyline points="423.625,473.625 426.625,479.75 428.625,485.25 429.875,492.25 429.875,497.25 428.625,503.5 427.5,506.5 424.25,512.375 422.125,515.25"/>
    <polyline points="420.875,516.625 416.875,520.625 413.75,523.25 408.25,527.0 399.75,531.625 392.125,534.75 383.5,537.5 373.75,539.5 366.375,540.25 358.5,540.375"/>
    <polyline points="354.25,540.125 349.875,539.75 340.5,537.875 335.5,536.375 330.375,534.375 325.125,531.875 319.875,528.75 314.5,525.0 309.25,520.375 304.25,514.875 299.5,508.375 295.5,500.75 292.25,492.125 290.375,482.375 290.0,471.625 291.625,460.125 295.75,448.0 302.25,435.75 311.5,423.875 323.125,412.75 336.625,402.875 351.625,394.375 367.125,387.625 382.75,382.375 397.75,378.75"/>
    <polyline points="411.75,376.375 424.5,375.125 435.875,374.75 445.875,374.875 454.625,375.625 462.125,376.625 474.125,379.25 478.875,380.875 486.625,384.125 492.5,387.5 499.0,392.5 512.75,406.125"/>
    <polyline points="513.875,407.125 516.0,409.0 519.125,411.125 523.25,412.875 527.125,413.375 530.0,412.875 532.75,411.625 535.25,409.5 536.875,407.75 537.5,406.625"/>
    <polyline points="538.25,405.5 540.125,401.5 542.0,394.875 542.75,386.5 542.0,376.75 540.875,371.375 538.375,363.0 535.875,357.25 531.125,348.875"/>
    <polyline points="529.125,346.375 527.125,343.875 522.75,339.625 520.375,337.75 515.375,334.875 512.875,334.0 507.875,333.25 505.375,333.375 503.0,334.0 500.75,335.0 496.625,338.0 494.75,340.125 493.125,342.5 490.5,348.125 488.625,354.75 487.5,361.875 487.375,373.0"/>
    <polyline points="487.625,376.75 489.25,387.75 490.875,394.75 492.75,401.25 497.25,412.75 502.25,422.375 504.875,426.375 510.125,433.125 515.375,438.125"/>
    <polyline points="516.625,439.125 520.5,441.625 524.375,443.25 528.125,444.125 532.0,444.25 535.75,443.75 539.5,442.375 544.375,439.375 548.0,436.125"/>
    <polyline points="549.25,434.875 554.0,428.75 557.25,422.875 559.25,418.25 561.0,413.0 562.5,407.0 563.625,400.25 564.375,388.5 564.0,379.5 563.5,374.625 561.75,364.125 558.625,352.75"/>
    <polyline points="556.625,346.75 551.25,334.25 544.125,321.5 539.875,315.375 535.125,309.375 530.0,303.875 524.375,298.75 518.5,294.375 512.375,290.875 506.125,288.25 499.75,286.75 493.5,286.5 487.5,287.5 481.75,289.625 476.5,293.0 471.625,297.625 467.5,303.125 464.0,309.5 461.125,316.625 458.875,324.25 457.25,332.25 455.625,348.5 455.625,356.625"/>
    <polyline points="455.875,364.625 457.375,379.75 459.75,393.75 462.75,406.25 466.0,417.375 469.25,427.125 475.75,443.5 481.625,456.375 490.0,472.75"/>
    <polyline points="491.0,474.625 499.0,488.875 505.875,500.375"/>
    <polyline points="506.25,500.875 510.25,507.0 512.0,508.875 512.875,509.375 514.875,509.25 520.625,505.5"/>
    <line x1="520.875" x2="529.5" y1="505.25" y2="498.75"/>
    <polyline points="530.0,498.375 534.375,495.0 547.125,484.125"/>
    <polyline points="548.0,483.25 558.75,472.75 567.75,462.375 573.375,454.75 579.125,445.25"/>
    <polyline points="580.625,442.625 583.5,436.75 586.25,430.0 590.0,418.125 592.0,408.75 593.375,397.75 593.875,385.0 593.625,377.875 593.0,370.0 591.875,361.625 590.25,352.625 587.875,342.75 584.875,332.375 580.875,321.125 576.0,309.375 569.875,297.0 562.625,284.375 554.125,271.75 544.25,259.25"/>
    <polyline points="533.0,247.75 520.75,237.375 507.5,229.125 493.75,223.5 479.875,221.0 466.5,221.875 453.875,226.5 442.75,234.5 433.25,245.5 425.5,259.0 419.75,274.125 415.625,290.125 413.125,306.5 411.875,322.625 411.625,338.125 412.375,352.75 413.5,366.25 417.125,390.125 419.25,400.5 423.75,418.375 428.0,432.875 432.0,444.875"/>
    <polyline points="433.75,450.125 443.0,476.75 445.75,487.375 446.5,492.0 446.875,496.25 446.75,502.125 445.5,509.375 443.75,514.25"/>
    <polyline points="443.0,515.875 440.375,520.625 437.125,525.25 428.75,534.375 419.75,542.0 401.625,555.125"/>
    <polyline points="399.0,556.875 357.375,583.5 349.75,588.625 338.25,597.25 330.5,603.75 323.125,611.25 319.75,615.5 316.75,620.125 314.125,625.25"/>
    <polyline points="312.125,630.875 311.0,637.375 311.0,644.625 312.75,653.0 316.75,662.5 323.875,673.625 335.125,686.25 352.25,700.625 376.875,716.25 411.0,732.125 455.75,746.5 510.625,756.375 572.0,758.625 632.625,750.875 684.25,734.25 721.75,712.875 744.375,691.625 755.25,674.625 758.75,663.625 758.0,659.125 755.125,660.5 751.25,666.5 740.625,688.375 733.5,701.75 724.75,714.875"/>
    <polyline points="714.0,726.875 701.375,736.25 687.125,742.5 671.625,745.125 655.375,744.125 639.25,739.75 623.625,732.625 608.875,723.625 595.5,713.25 583.625,702.375 573.125,691.5 564.125,680.875 556.5,670.875 550.125,661.625 544.75,653.125 536.5,638.5 531.0,626.75 529.0,621.625 524.875,609.5 522.375,600.25"/>
    <polyline points="521.75,597.625 519.625,588.875 517.5,581.875 515.75,577.375 511.0,569.0 508.75,566.125 505.5,563.0"/>
    <polyline points="504.75,562.25 499.875,559.0 494.875,557.125 491.5,556.625 488.875,556.625 483.75,557.625"/>
    <polyline points="482.875,557.875 476.875,560.75 471.0,565.375 466.625,570.625 465.375,572.625 463.875,576.0"/>
    <polyline points="463.5,577.125 462.625,580.875 462.375,583.625 462.875,587.875 464.375,592.25 467.125,596.75 469.875,599.75 473.25,602.625 477.375,605.125 479.625,606.375 484.75,608.5 490.375,610.0"/>
    <polyline points="493.375,610.625 502.5,611.375 511.375,610.375 519.25,607.75 523.5,605.25 525.375,603.75 529.625,598.75 531.875,593.125 532.5,587.25 532.125,583.25 531.375,579.375"/>
    <polyline points="530.75,577.5 527.25,568.75 521.875,559.625 517.375,553.625 514.625,550.5 509.5,545.75"/>
    <polyline points="508.75,545.125 505.5,542.875 502.375,541.375 499.25,540.375 497.0,540.0 493.125,540.0 489.125,540.75"/>
    <polyline points="488.25,541.0 483.125,542.875 477.75,545.75 473.0,548.875 464.75,555.5"/>
    <polyline points="463.75,556.5 456.5,564.25 453.625,568.25 449.625,575.875 448.0,581.125 447.375,587.0 447.75,591.125 448.875,595.5"/>
    <polyline points="449.75,597.75 452.375,602.5 456.125,607.125 461.375,611.875 468.0,616.375 476.25,620.375 480.875,622.0 491.0,624.75 496.375,625.625 502.0,626.25 513.125,626.375 523.875,624.875 533.375,621.875 537.5,620.0 541.25,617.75 547.125,612.625"/>
    <polyline points="549.375,609.875 551.125,607.0 552.375,604.0 553.875,598.125 554.0,592.125 553.25,586.375 551.875,580.75 549.0,573.0 543.5,561.375 536.25,548.0"/>
    <polyline points="535.375,546.375 526.25,529.0 522.75,520.625"/>
    <polyline points="522.5,520.0 521.625,516.875 521.25,513.875 521.5,511.25 522.0,509.625"/>
    <polyline points="522.125,509.375 523.625,506.5 528.625,501.125"/>
    <line x1="529.0" x2="544.125" y1="500.75" y2="487.375"/>
    <polyline points="545.0,486.625 551.625,480.5 561.875,469.875 568.375,462.0 574.0,454.25"/>
    <polyline points="575.5,452.0 581.375,441.875 584.25,435.875 587.0,429.0 589.5,421.125 591.75,412.25 593.375,401.75 594.125,389.625 594.125,382.75 593.0,367.375 591.75,358.75 589.875,349.375 587.375,339.375 584.0,328.625 579.75,317.125 574.375,305.125"/>
    <polyline points="567.875,292.5 560.25,279.75 551.125,267.0 540.75,254.75 529.125,243.375 516.375,233.625 502.875,226.125 488.875,221.5 475.0,220.125 461.625,222.25 449.5,228.125 438.75,237.375 429.875,249.375 422.75,263.625 417.5,279.25 414.0,295.625 412.0,312.0 411.125,328.125 411.25,343.375 412.25,357.75 413.625,371.0 415.375,383.125 417.375,394.125 421.75,413.125 424.0,421.375"/>
    <polyline points="426.25,428.75 430.25,441.5 440.875,471.75 442.875,478.0 444.875,486.0 445.75,490.625 446.375,497.125 446.125,502.875 445.125,508.25"/>
    <polyline points="444.625,510.0 443.5,513.25 441.25,518.125 437.125,524.375 433.375,528.875 423.875,538.0 418.125,542.625 409.375,549.0"/>
    <polyline points="407.0,550.625 388.125,562.875 341.375,591.25 333.0,596.75 320.125,606.125"/>
    <polyline points="315.875,609.625 307.625,617.375 303.875,621.875 300.375,626.625 297.5,632.125 295.25,638.125 294.0,645.125 294.125,653.125 296.25,662.375 301.375,673.25 310.25,686.0 324.875,700.75 347.125,717.625 379.75,735.875 424.875,753.75 483.75,768.25 553.625,774.875 626.625,769.5 691.25,752.0 738.75,727.0 767.125,701.625 780.25,681.625 784.0,669.75 782.875,666.625 779.625,671.25"/>
    <polyline points="775.25,682.25 769.625,698.0 762.375,716.5 752.625,736.0 740.125,754.25 724.5,769.25 706.125,779.5 685.625,784.0 664.125,782.75 642.75,776.375 622.5,766.125 604.0,753.25 587.875,739.125 574.0,724.75 562.625,710.875 553.5,698.0 546.25,686.25 540.625,675.75 536.5,666.625 533.5,658.5 531.5,651.375 530.25,645.25 529.625,639.75 529.5,634.875 530.125,626.5"/>
    <polyline points="530.75,622.75 533.25,610.125 534.5,601.875 534.75,596.75 534.5,591.875 533.875,587.25 532.25,580.75 529.25,572.875 524.75,564.375"/>
    <polyline points="523.75,562.875 518.25,554.875 512.0,548.0 507.75,544.5 504.625,542.5 502.25,541.5"/>
    <polyline points="501.5,541.125 496.875,540.125 492.875,540.125 486.375,541.625 481.25,544.0"/>
    <polyline points="480.375,544.375 475.625,547.125 466.625,553.875 460.375,559.875 455.375,565.875"/>
    <polyline points="454.375,567.25 451.75,571.625 449.5,576.375 448.0,581.625 447.5,587.5 447.875,591.625 448.375,593.875 449.125,596.125 451.375,600.625 454.625,605.375 456.75,607.75 462.125,612.375 469.0,616.75"/>
    <polyline points="473.0,618.875 482.0,622.375 487.0,623.75 492.25,625.0 503.25,626.25 514.5,626.125 519.875,625.5 525.0,624.5 529.875,623.125 534.375,621.375 538.375,619.375 541.875,617.125 545.0,614.625 547.625,612.0 551.375,606.25 553.375,600.375 553.875,597.375 553.875,591.375 553.0,585.625"/>
    <polyline points="552.375,582.875 549.625,574.875 545.375,565.25 529.125,535.0"/>
    <polyline points="528.625,533.875 523.5,523.125 522.125,519.375 521.375,515.875"/>
    <polyline points="521.25,515.5 521.125,512.375 521.5,510.375 522.25,508.5 523.25,507.0"/>
    <polyline points="523.375,506.75 527.375,502.125 532.25,497.75"/>
    <polyline points="532.75,497.375 542.625,488.75 551.625,480.375"/>
    <polyline points="552.75,479.375 560.75,471.125 571.375,458.125 577.125,449.5 580.0,444.375 585.75,432.25"/>
    <polyline points="587.125,428.625 590.75,416.375 591.75,411.75 593.375,401.25 594.125,389.0 593.75,374.625 591.625,357.875 589.625,348.5 587.0,338.375 583.625,327.5 579.25,316.0 573.75,303.875 567.25,291.375 559.375,278.625 550.25,265.875 539.75,253.625 528.0,242.5 515.125,232.875 501.5,225.625 487.5,221.25"/>
    <polyline points="473.75,220.125 460.5,222.75 448.375,228.875 437.875,238.375 429.125,250.75 422.25,265.125 417.125,280.75 413.75,297.125 411.875,313.625 411.125,329.5 411.375,344.75 412.375,359.0 413.75,372.125 417.625,395.125 422.0,414.0 428.5,436.0 438.625,465.125"/>
    <polyline points="439.875,468.75 443.75,481.0 445.0,486.125 446.125,493.125 446.375,499.25 445.875,504.875 444.125,511.875 442.0,516.75 439.25,521.375"/>
    <polyline points="438.125,522.875 434.625,527.5 430.375,532.0 425.5,536.625 418.0,542.75 401.875,554.125 387.875,563.0"/>
    <polyline points="384.75,564.875 349.25,586.375 337.0,594.25 324.25,603.25 315.75,610.125 311.625,613.875 304.0,622.5 300.75,627.5 297.875,633.125 295.875,639.375 295.0,646.5"/>
    <polyline points="295.625,654.625 298.375,664.25 304.125,675.5 314.125,688.5 330.125,703.75 354.375,720.875 389.125,739.0 436.875,756.375 498.0,769.5 568.625,773.75 640.0,765.875 701.0,746.625 744.25,721.25 769.0,696.75 779.875,678.25 782.375,668.125 780.75,666.375 777.25,672.125 766.875,699.625 759.375,718.125 749.375,737.125 736.625,754.625 720.875,768.75 702.5,778.0 682.125,781.625"/>
    <polyline points="661.0,779.75 640.0,772.875 620.25,762.5 602.25,749.625 586.5,735.625 573.125,721.625 562.125,708.0 553.125,695.375 546.0,683.875 540.5,673.625 536.5,664.625 533.5,656.75 531.5,649.75 530.125,643.625 529.5,638.25 529.25,629.0 530.0,621.5 532.25,609.0 533.25,601.0"/>
    <polyline points="533.375,598.5 533.375,593.625 532.5,586.75 531.5,582.5 529.5,576.5 527.125,571.0 522.625,563.0 519.875,558.875 516.125,554.25"/>
    <polyline points="515.25,553.25 511.75,549.5 509.125,547.25 505.0,544.375 501.75,542.875 498.5,541.875 494.625,541.5"/>
    <polyline points="493.75,541.5 488.875,542.125 485.5,543.125 482.0,544.625 476.5,547.625 471.625,551.0"/>
    <polyline points="470.625,551.75 467.5,554.125 462.375,558.875 458.375,563.375 454.5,568.5 451.25,574.375 450.0,577.625 448.75,583.0"/>
    <polyline points="448.625,584.875 448.625,588.875 449.25,593.0 450.875,597.375 453.375,602.0 457.125,606.625 459.375,608.875 465.125,613.375 468.5,615.5 476.5,619.375 480.875,621.0 485.625,622.5 495.875,624.5 501.25,625.125 512.0,625.25 517.25,624.75 522.375,623.875"/>
    <polyline points="527.125,622.75 535.75,619.375 539.375,617.25 542.5,614.875 545.25,612.375 547.5,609.75 549.25,606.875 551.625,601.125 552.5,595.25 552.5,592.375 551.875,586.75 551.25,584.0 549.75,578.625 547.75,573.5 544.625,566.375 541.25,560.0"/>
    <polyline points="540.25,557.875 527.5,535.125 522.75,526.0"/>
    <polyline points="522.375,525.25 519.875,519.875 518.5,515.75 518.25,514.0"/>
    <polyline points="518.25,513.625 518.5,510.75 520.0,508.125"/>
    <polyline points="520.125,507.875 521.875,505.875 526.75,501.625"/>
    <line x1="527.125" x2="541.0" y1="501.375" y2="489.625"/>
    <polyline points="541.75,489.0 547.875,483.625 556.125,475.625 564.75,466.125 568.75,461.125"/>
    <polyline points="570.125,459.375 577.375,448.625 581.75,440.625 584.625,434.5 587.25,427.5 589.75,419.5 591.875,410.25 593.375,399.5 594.0,387.0 593.875,380.0 592.375,364.125 590.875,355.25 588.75,345.625"/>
    <polyline points="585.875,335.375 582.25,324.375 577.625,312.75 571.875,300.5 565.0,288.0 556.75,275.25 547.25,262.625 536.375,250.75 524.375,240.0 511.375,231.0 497.625,224.5 483.75,221.0 470.125,221.0 457.25,224.5 445.625,231.625 435.625,241.875 427.375,254.75 421.0,269.5 416.375,285.375 413.5,301.75 411.875,318.0 411.5,333.75 411.875,348.75 413.0,362.625 414.5,375.375 416.375,387.125"/>
    <polyline points="418.5,397.75 422.875,416.125 427.25,431.125 431.25,443.375 441.625,472.875 444.25,481.625 446.25,491.5 446.625,495.75 446.625,501.625"/>
    <polyline points="446.375,503.5 445.375,508.875 444.25,512.25 443.0,515.5 439.375,521.75 436.0,526.375 433.375,529.375 425.5,537.0 418.0,543.125"/>
    <polyline points="415.875,544.75 399.25,556.375 353.75,585.0 338.0,595.875"/>
    <polyline points="334.0,598.875 326.125,605.5 322.25,609.25 318.5,613.125 315.0,617.5 311.875,622.125 309.125,627.375 307.125,633.25 305.875,639.75 306.0,647.25 308.0,655.875 312.25,665.875 320.0,677.5 332.375,690.875 351.0,705.875 378.0,722.25 415.375,738.875 464.375,753.25 523.75,762.375 588.875,762.375 651.125,751.75 701.875,732.375 736.625,709.25 756.125,688.0 764.5,672.25"/>
    <polyline points="766.25,663.375 764.5,661.5 761.125,665.5 756.75,674.375 744.75,701.25 736.375,716.375 725.875,730.625 713.125,742.75 698.375,751.375 681.875,756.0 664.375,756.375 646.625,752.75 629.375,745.75 613.125,736.375 598.25,725.25 585.125,713.5 573.75,701.625 564.0,690.125 555.875,679.25 549.125,669.25 543.5,660.125 539.125,652.0 535.5,644.625 530.5,632.375"/>
    <polyline points="528.75,627.25 527.375,622.625 525.625,614.625 524.25,605.125 523.0,593.125 521.625,585.5 519.625,578.875 517.125,573.125 515.625,570.5"/>
    <polyline points="515.0,569.25 511.0,563.875 507.75,560.375 505.125,558.25 502.625,556.5 500.0,555.125 497.5,554.125 494.0,553.25"/>
    <polyline points="493.125,553.25 488.75,553.125 485.25,553.75 481.625,554.875 475.25,558.25 470.875,561.625"/>
    <polyline points="470.0,562.375 467.375,564.875 463.375,569.875 459.875,577.125 458.875,581.375 458.75,585.875 459.625,590.75 461.0,594.125"/>
    <polyline points="462.0,595.875 465.875,601.0 469.5,604.25 474.125,607.375 482.5,611.375 488.875,613.375 492.375,614.125 499.5,615.0 503.125,615.125 506.75,615.0 513.75,614.125 523.0,611.125 528.125,608.125 530.25,606.375"/>
    <polyline points="532.0,604.625 534.875,600.625 536.75,596.375 537.625,591.875 537.75,587.5 537.5,585.25 536.75,580.875 534.0,572.75 530.5,565.25 524.75,555.75"/>
    <polyline points="523.875,554.375 517.625,546.125 514.375,542.625 509.875,538.625 507.75,537.125 504.375,535.375"/>
    <polyline points="503.625,535.125 499.75,534.125 495.125,534.25 492.375,534.875 486.5,537.125"/>
    <polyline points="485.75,537.5 479.0,541.25 474.5,544.375 469.5,548.125 462.125,554.625"/>
    <polyline points="461.0,555.625 456.625,560.25 451.375,566.875 448.5,571.5 446.125,576.625 444.5,582.25 443.875,588.5 444.375,593.0 445.75,597.75"/>
    <polyline points="446.875,600.25 449.875,605.25 454.375,610.5 460.5,615.625 468.375,620.375 473.0,622.625 478.0,624.625 483.5,626.375 495.25,628.875 501.5,629.625 507.75,630.0 514.125,629.875 520.25,629.375 526.125,628.375 531.75,627.0 536.875,625.125 541.5,623.0 545.625,620.5 549.125,617.75 552.125,614.875 554.5,611.875"/>
    <polyline points="556.375,608.625 557.75,605.5 559.125,599.0 559.125,592.625 558.75,589.5 557.375,583.5 554.375,575.125 552.125,569.875 539.375,544.75"/>
    <polyline points="538.5,543.0 534.375,534.25 530.875,525.125 529.375,518.875 529.125,515.875"/>
    <polyline points="529.125,515.125 529.375,511.25 530.375,507.625 533.125,502.5 534.875,500.25"/>
    <polyline points="535.375,499.625 540.5,493.875 554.125,480.25"/>
    <polyline points="555.125,479.125 564.625,468.75 571.375,460.25 575.75,454.0 583.125,441.375 586.0,435.125 588.75,428.0"/>
    <polyline points="590.0,424.125 592.375,415.375 594.25,405.25 595.0,399.625 595.625,387.0 595.0,372.0 594.0,363.625 592.5,354.5 590.25,344.75 587.375,334.125 583.5,322.875 578.75,310.875 572.875,298.25 565.625,285.25 557.125,272.125 547.125,259.125 535.875,246.875 523.375,235.875 509.75,226.75 495.5,220.375 481.125,217.125 467.0,217.625"/>
    <polyline points="453.875,221.75 442.0,229.75 432.0,240.875 423.875,254.625 417.625,270.125 413.25,286.75 410.625,303.625 409.25,320.375 409.0,336.375 409.625,351.5 410.875,365.5 412.625,378.25 414.625,390.0 419.0,410.0 423.5,426.375 427.625,439.625 438.625,470.875"/>
    <polyline points="439.625,474.125 442.125,482.625 443.625,490.0 444.25,496.375 444.0,502.25 443.0,507.625 441.375,512.75 438.125,519.125 434.875,523.75"/>
    <polyline points="433.625,525.25 431.0,528.25 424.75,534.25 419.25,538.875 410.875,545.0 395.75,554.625 377.0,564.75"/>
    <polyline points="373.5,566.5 358.25,573.75 345.125,579.125 335.625,582.625 319.375,587.375 313.5,588.75 300.5,590.75 293.25,591.375 285.625,591.625 277.25,591.25 268.25,590.125 258.5,588.0 247.625,584.5 235.875,579.375 222.875,571.875 209.125,561.375 194.75,546.875"/>
    <polyline points="180.75,527.25 169.25,501.5 163.125,469.0 166.875,430.25 185.25,388.0 220.5,346.75 270.0,311.75 326.5,286.0 381.125,269.25 463.0,250.125 487.625,242.125 502.625,232.875 509.375,222.125 509.5,210.375 504.0,198.25 494.0,187.0 480.625,178.0 465.0,172.625 448.375,172.0 432.125,176.75 417.125,187.0 404.375,202.0 394.25,221.0 387.0,242.375 382.375,264.75"/>
    <polyline points="379.875,287.125 379.25,308.625 379.875,328.5 381.5,346.625 383.75,362.875 386.375,377.25 389.25,389.875 395.125,410.5 400.875,426.25 406.125,438.375 410.875,447.875 420.375,464.875 425.5,474.75 427.375,479.125"/>
    <polyline points="428.25,481.125 429.5,485.0 430.625,490.5 430.875,494.0 430.625,499.0 429.625,503.75 428.5,506.875 427.0,509.875 424.25,514.25 417.875,521.125"/>
    <polyline points="416.375,522.5 411.25,526.375 407.375,528.875 400.75,532.5 393.25,535.75 387.625,537.75 381.5,539.5 374.875,540.875 367.625,541.875 359.625,542.25 351.0,541.875 341.625,540.5"/>
    <polyline points="336.625,539.25 326.0,535.375 315.0,529.125 309.5,524.875 304.0,519.75 298.75,513.5 294.0,506.375 290.125,497.875 287.125,488.25 285.75,477.5 286.375,465.75 289.25,453.125 294.875,440.25 303.25,427.375 314.5,415.125 328.0,404.0 343.375,394.375 359.75,386.5 376.25,380.375 392.5,375.875 407.625,372.875 421.5,371.125 433.75,370.375 444.625,370.25"/>
    <polyline points="454.0,370.75 462.0,371.5 474.75,373.875 483.875,376.75 490.625,379.75 495.625,382.875 501.125,387.375 504.0,390.25 510.625,398.125 515.375,403.0"/>
    <polyline points="516.25,403.875 519.0,405.875 521.625,407.25 525.125,408.0 527.625,407.875 530.875,406.5 532.375,405.375 534.375,403.0 536.125,399.875"/>
  </g>
</svg>
