<?xml version="1.0" encoding="utf-8" ?>
<svg xmlns="http://www.w3.org/2000/svg" xmlns:cc="http://creativecommons.org/ns" xmlns:dc="http://purl.org/dc/elements/1.1/" xmlns:ev="http://www.w3.org/2001/xml-events" xmlns:inkscape="http://www.inkscape.org/namespaces/inkscape" xmlns:rdf="http://www.w3.org/1999/02/22-rdf-syntax-ns" xmlns:sodipodi="http://sodipodi.sourceforge.net/DTD/sodipodi-0.dtd" xmlns:xlink="http://www.w3.org/1999/xlink" baseProfile="tiny" height="27.09333333cm" version="1.2" viewBox="0 0 1024.0 1024.0" width="27.09333333cm">
  <metadata>
    <rdf:RDF>
      <cc:Work>
        <dc:format>image/svg+xml</dc:format>
        <dc:source>vpype read './original_svgs/Strange Attractors #52.svg' linemerge linesimplify write './Strange Attractors #52.svg'
</dc:source>
        <dc:date>2024-08-05T01:35:22.315297</dc:date>
      </cc:Work>
    </rdf:RDF>
  </metadata>
  <defs/>
  <g fill="none" id="layer1" inkscape:groupmode="layer" inkscape:label="1" stroke="black" stroke-width="0.7mm" style="display:inline">
    <polyline points="603.375,509.25 599.625,503.75 598.375,501.375 597.875,499.75 598.25,498.25 601.75,496.625 609.75,494.25 617.25,491.5"/>
    <polyline points="619.5,490.625 632.0,484.25 644.0,476.5 657.625,465.875 664.75,459.375 675.25,448.25 681.625,440.375 687.125,432.5 691.125,425.0 692.375,421.625"/>
    <polyline points="693.25,418.625 693.5,416.0 693.125,413.875 692.125,412.375 690.5,411.375 688.375,411.0 685.625,411.25 682.375,412.125 678.625,413.625 670.125,418.125 660.75,424.125 645.875,435.0 602.625,469.25"/>
    <polyline points="599.25,471.875 581.875,484.5 558.0,500.375 553.625,503.75"/>
    <polyline points="553.0,504.375 551.75,505.375 550.125,507.375 549.375,509.125 549.375,510.75 550.125,512.25 552.125,513.875 553.25,514.375"/>
    <polyline points="553.75,514.75 556.625,515.875 561.375,517.0 568.625,518.0 578.375,518.25 586.375,517.625"/>
    <polyline points="588.625,517.375 601.75,514.75 614.875,510.5 622.625,507.375 631.25,503.25 646.125,494.625 657.625,486.75 663.75,482.125 677.125,471.0 691.5,457.25 699.0,449.375 706.5,440.875"/>
    <polyline points="714.0,431.75 721.25,422.125 728.0,412.125 733.875,402.0 738.875,392.25 742.5,383.0 744.375,374.875 744.5,368.125 742.625,363.25 738.625,360.5 732.75,360.125 725.25,361.875 716.375,365.875 706.5,371.625 695.875,378.75 685.125,387.0 674.375,395.875 663.875,405.125 644.375,423.125 619.375,446.875 599.5,465.0"/>
    <polyline points="593.875,469.875 583.625,478.0 574.625,484.25 563.0,491.125 556.125,494.25 550.0,496.625 544.25,498.375 538.875,499.625 533.875,500.5 524.75,501.375 516.375,501.375"/>
    <polyline points="514.375,501.25 508.625,500.875 501.125,499.875 490.25,497.625 479.0,494.5 467.0,490.375"/>
    <polyline points="464.875,489.625 453.375,485.125 427.75,474.0 408.5,465.125 376.5,449.625"/>
    <polyline points="369.625,446.25 317.25,420.125 285.0,404.75 274.75,400.25 265.75,396.75 258.625,394.75 254.125,394.625 253.25,397.125 256.25,402.625 263.375,411.125 274.5,422.5 305.125,451.375 399.0,536.875"/>
    <polyline points="409.875,546.625 427.25,561.875 434.0,567.5 444.75,575.75 449.0,578.5 452.75,580.5 458.875,582.875 463.75,583.375 465.875,583.125 467.875,582.625 471.625,581.0 476.75,577.75 488.25,569.0"/>
    <polyline points="489.875,567.75 498.0,562.5 502.875,559.875 510.875,556.5 518.875,554.25 525.375,553.125 530.125,552.75"/>
    <polyline points="531.875,552.625 540.125,552.625 552.75,553.75 581.25,558.0"/>
    <polyline points="583.875,558.375 592.5,559.25 606.0,559.625 618.25,558.75 627.75,557.125 633.125,555.875 645.375,552.0 660.125,545.625 668.75,541.125 678.5,535.375 689.375,528.25 701.75,519.25 715.75,507.875 731.75,493.75 750.0,476.0 770.375,454.125"/>
    <polyline points="792.875,427.375 817.125,395.375 841.625,358.25 864.0,317.625 881.0,276.5 888.375,240.125 882.625,214.75 862.875,205.125 831.5,213.25 793.625,236.25 754.75,269.0 719.0,306.0 689.0,342.875 665.25,377.0 647.625,407.25 635.375,433.25 627.625,455.25 623.625,473.625 622.375,488.875 623.25,501.5 625.75,511.875 629.125,520.25 632.875,526.75 636.75,531.75 640.375,535.25 643.375,537.5"/>
    <polyline points="645.625,538.5 647.125,538.5 647.625,537.625 647.25,536.0 646.125,533.75 644.25,531.125 641.75,528.375 638.75,525.375 631.75,519.375 619.875,511.5 608.0,505.75 604.25,504.25 597.0,502.0 590.375,500.625 584.125,499.75 575.875,499.375"/>
    <polyline points="573.375,499.375 562.75,500.5 554.5,502.375 546.5,505.25 541.125,508.25"/>
    <polyline points="540.75,508.625 539.125,510.25 538.625,511.5 538.625,512.625 539.625,514.25 541.875,515.75"/>
    <polyline points="542.25,516.0 547.125,517.875 553.125,519.375 559.875,520.5 565.375,521.0"/>
    <polyline points="566.875,521.125 575.375,521.25 583.625,520.75 593.375,519.375 602.125,517.375 612.375,514.25 624.375,509.5 638.625,502.125"/>
    <polyline points="644.0,499.0 655.75,491.25 662.125,486.625 676.0,475.5 683.5,468.875 691.25,461.5 707.5,444.25 715.75,434.5 723.75,424.125 731.5,413.125 738.375,402.0 744.375,390.875 748.875,380.25 751.75,370.75 752.375,362.625 750.875,356.625 746.875,353.0 740.75,352.0 732.625,353.75 722.875,357.875 711.875,364.25 700.375,372.25 688.5,381.5"/>
    <polyline points="676.75,391.375 654.5,411.75 604.125,460.75 592.125,471.5 586.75,475.875 572.875,486.0 568.75,488.625 561.25,492.625 551.375,496.875 542.625,499.375 537.25,500.375"/>
    <polyline points="534.75,500.75 525.25,501.5 520.75,501.5 508.25,500.625 498.5,499.0 488.75,496.75 482.875,495.0"/>
    <polyline points="480.875,494.5 466.25,489.5 452.125,484.0 438.625,478.25 414.75,467.375"/>
    <polyline points="410.75,465.375 396.75,458.75 365.5,443.125 273.5,395.5 241.875,379.5 227.25,372.75 215.25,368.0 207.75,366.75 206.5,370.0 212.75,379.0 226.75,393.75 247.375,413.5"/>
    <polyline points="272.25,436.875 324.875,487.0 348.875,510.625 369.625,532.125 387.0,550.875 401.0,567.125 412.0,580.75 420.375,592.0 426.5,601.25 430.875,608.5 435.625,618.375 437.25,623.75 436.875,621.0 437.25,612.875 438.625,605.75 440.75,597.875"/>
    <polyline points="442.125,593.875 447.25,582.125 451.25,574.875 457.75,565.0 462.125,559.375 468.75,552.125 475.125,546.375 482.875,540.375 491.75,535.125"/>
    <polyline points="493.375,534.25 499.5,531.5 506.25,529.125 514.75,527.125 524.625,526.125"/>
    <polyline points="525.75,526.0 540.25,526.375 556.5,527.625"/>
    <polyline points="558.0,527.75 572.75,528.0 579.5,527.625 587.0,526.875 595.75,525.5 602.25,524.0 613.375,520.625 622.0,517.375 626.75,515.25"/>
    <polyline points="631.75,512.875 642.875,507.0 655.625,499.125 662.625,494.25 678.125,482.25 686.625,474.875 705.0,457.125 714.75,446.625 724.75,435.0 734.625,422.375 744.25,408.875 753.125,394.75 760.75,380.625 766.625,367.0 770.125,354.75 770.875,344.5 768.375,337.125 762.625,333.25 754.0,333.125 742.875,336.625 729.75,343.5 715.625,352.875"/>
    <polyline points="701.125,364.25 686.625,376.625 659.875,402.375 637.125,426.0 603.25,461.875 585.625,478.875 576.125,486.75 572.0,489.75 568.0,492.375 560.875,496.375 554.5,499.125 548.625,501.0 540.625,502.5"/>
    <polyline points="538.125,502.875 528.75,503.25 520.0,502.75 513.875,502.0 502.125,499.875 487.125,496.0"/>
    <polyline points="485.375,495.5 472.875,491.5 458.5,486.375 456.375,486.125 457.125,486.875 460.0,488.625"/>
    <polyline points="462.5,490.125 483.125,501.375 516.625,519.0 551.875,536.75 573.75,547.375 598.25,558.75 624.5,570.375 651.375,581.25 677.25,590.375 700.375,596.5 719.0,598.875 732.25,597.0 739.75,591.0 742.25,581.625 740.625,569.875 736.25,556.875 730.25,543.375 716.875,517.75 710.375,506.375"/>
    <polyline points="704.625,496.125 687.375,465.875 681.375,456.375 678.875,452.625 674.25,447.125 672.0,445.125 669.75,443.75 667.5,442.75 662.75,441.875 660.375,441.875 655.25,442.875 650.0,444.75 644.625,447.375 633.875,454.0"/>
    <polyline points="631.25,455.75 621.25,462.875 606.75,474.25 595.625,484.125 591.0,489.625"/>
    <polyline points="590.625,490.375 589.625,492.375 589.5,494.125 590.0,495.5 591.875,496.875 596.0,497.625 598.25,497.625 605.5,496.5"/>
    <polyline points="607.25,496.125 617.5,492.75 630.625,486.5 640.125,480.75 650.5,473.375 658.0,467.375 669.5,456.625 680.875,444.25 684.25,439.875"/>
    <polyline points="687.5,435.375 690.5,431.0 695.125,422.625 697.625,415.375 698.0,412.375 697.625,410.0 696.625,408.125 694.875,407.0 692.5,406.625 689.5,407.0 685.875,408.0 681.75,409.625 672.25,414.75 661.875,421.75 651.0,429.625 620.5,454.0"/>
    <polyline points="616.0,457.625 596.25,473.125 580.875,484.125 566.875,493.0 553.0,501.25"/>
    <polyline points="551.875,501.875 545.875,505.875 542.875,508.5 541.5,511.0 541.75,512.625"/>
    <polyline points="541.875,512.875 543.125,514.375 546.375,516.25 553.0,518.375 557.0,519.125"/>
    <polyline points="558.125,519.375 568.875,520.5 581.75,520.25 588.625,519.5 596.375,518.125 602.375,516.75 608.875,514.75"/>
    <polyline points="612.375,513.625 624.375,508.75 638.5,501.5 649.375,494.875 661.625,486.25 668.25,481.125 682.625,468.75 698.125,453.5 706.125,444.75 714.25,435.25 722.125,425.0 729.625,414.375 736.5,403.5 742.375,392.625 746.875,382.25 749.75,372.875 750.625,364.875 749.25,358.875"/>
    <polyline points="745.625,355.125 739.875,353.875 732.125,355.25 722.75,359.125 712.125,365.0 700.875,372.625 689.375,381.5 677.75,391.125 666.5,401.0 645.75,420.625 612.125,453.25 593.25,470.375 582.875,478.75 573.75,485.25 565.75,490.125 558.625,493.75"/>
    <polyline points="555.25,495.125 552.125,496.375 543.25,499.0 537.875,500.125 530.5,501.125 523.625,501.5 513.0,501.125 503.125,499.875 497.25,498.75"/>
    <polyline points="495.375,498.375 485.75,496.0 475.875,493.0 458.375,486.625 440.125,479.0"/>
    <polyline points="437.125,477.625 420.375,470.125 403.75,462.25 368.375,444.875 282.625,400.875 254.125,386.875"/>
    <polyline points="241.0,380.875 229.875,376.5 222.375,374.875 220.0,377.0 223.75,383.75 234.0,395.375 250.25,411.5 340.75,497.0 379.125,535.125 394.25,550.875 416.625,575.75 424.5,585.0 443.25,609.125 444.625,610.625 445.625,611.25 446.375,611.25 447.125,610.625"/>
    <polyline points="447.75,609.5 453.875,593.0 458.125,584.25 463.25,575.875 466.875,570.625 472.625,563.75 478.5,557.75 486.125,551.375"/>
    <polyline points="488.0,550.0 495.25,545.375 500.375,542.75 505.375,540.625 511.625,538.5 517.75,537.0 528.0,535.5"/>
    <polyline points="529.375,535.375 544.5,535.125 562.25,535.75 573.125,535.75"/>
    <polyline points="575.5,535.625 583.25,535.25 589.125,534.625 602.375,532.25 610.25,530.25 619.0,527.5 623.875,525.625 629.0,523.5 640.5,517.875 647.0,514.375 661.375,505.375 669.5,499.75 678.25,493.125 687.75,485.375 698.0,476.375 708.875,465.875"/>
    <polyline points="720.5,453.875 732.625,440.375 745.125,425.125 757.5,408.375 769.375,390.375 779.875,371.75 788.25,353.5 793.625,336.625 795.0,322.625 791.75,312.625 784.0,307.625 772.0,308.25 756.625,314.25 739.125,324.625 720.625,338.5 702.25,354.375 684.75,371.125 668.625,387.875 654.125,403.875 630.0,432.125 592.375,477.875"/>
    <polyline points="587.375,483.5 579.125,492.25 572.25,498.25 566.5,502.25 563.875,503.75 559.0,505.875 556.75,506.625 552.375,507.5 544.375,508.125 538.625,507.875 528.0,506.5"/>
    <polyline points="526.375,506.25 518.25,504.875 500.75,501.25 498.625,501.0 497.75,501.25"/>
    <polyline points="497.75,501.5 500.0,503.25 507.25,507.25 527.5,517.125 547.5,526.25 573.5,537.25 592.875,544.625 602.75,547.875 612.25,550.75 621.125,553.0 629.125,554.5"/>
    <polyline points="636.125,555.125 641.875,554.875 646.125,553.75 649.125,551.75 650.625,549.0 650.875,545.75 650.125,542.0 648.375,537.875 645.875,533.75 642.75,529.5 639.25,525.5 631.375,518.0 627.25,514.75 623.125,511.75 615.125,506.75 607.5,503.125 600.5,500.5 594.0,498.875 585.5,497.75"/>
    <polyline points="583.0,497.75 576.25,498.0 572.375,498.5 563.375,501.0 557.125,504.375 555.125,506.25 554.25,507.625"/>
    <polyline points="554.125,508.0 554.0,509.625 554.5,510.875 556.875,512.875 560.25,514.375 563.875,515.375 567.125,515.875"/>
    <polyline points="568.375,516.125 577.125,516.625 580.625,516.5 590.875,515.5 595.875,514.625 604.125,512.625 610.375,510.625 621.125,506.5 629.375,502.625"/>
    <polyline points="633.875,500.25 638.625,497.625 648.875,491.125 660.25,483.0 672.75,472.875 686.375,460.25 693.5,453.125 707.875,436.875 721.375,418.625 727.5,409.125 732.625,399.75 736.75,390.75 739.375,382.625 740.5,375.5 739.875,369.875 737.25,366.125 732.875,364.375 726.75,364.75 719.125,367.125 710.375,371.375"/>
    <polyline points="700.75,377.25 690.75,384.375 680.375,392.25 670.25,400.75 650.875,418.0 618.125,448.625 604.875,460.625 588.25,474.375 578.875,481.25 570.625,486.625 563.125,490.75 556.5,493.875 547.5,497.25"/>
    <polyline points="544.625,498.0 537.0,499.875 523.5,501.5 510.0,501.25 497.625,499.625 494.125,498.875"/>
    <polyline points="492.375,498.5 480.125,495.25 470.625,492.125 455.875,486.5 440.75,480.125"/>
    <polyline points="437.875,478.875 405.75,464.25 308.375,417.25 290.625,409.5"/>
    <polyline points="282.875,406.625 276.5,404.75 272.25,404.375 270.375,405.875 271.5,409.5 275.75,415.5 283.125,423.625 293.375,433.875 305.75,445.625 319.75,458.375 363.375,497.25 400.375,528.875 419.25,544.125 434.0,555.0 445.375,562.25 454.375,566.75 461.75,569.0"/>
    <polyline points="464.875,569.625 470.5,569.875 475.5,569.25 479.875,568.125 484.0,566.625 503.875,557.75 510.5,555.375 513.875,554.5"/>
    <polyline points="515.5,554.0 526.875,552.0 533.375,551.625 541.875,551.75 549.0,552.25 558.625,553.375"/>
    <polyline points="560.625,553.75 584.25,556.75 596.375,557.375 607.0,557.25 615.125,556.375 624.5,554.875 635.25,552.0 648.125,547.375"/>
    <polyline points="655.5,544.125 663.625,540.0 672.75,534.75 683.0,528.25 694.5,520.125 707.5,510.0 722.25,497.5 738.875,481.875 757.5,462.625 778.25,439.125 800.625,411.0 823.75,378.125 846.0,341.25 864.875,302.5 876.625,265.75 878.0,236.0 866.75,218.625 843.25,216.875 810.875,230.5 774.5,256.0 738.625,288.5 706.5,323.375 679.75,357.375 658.625,388.375 642.75,415.625 631.625,439.125"/>
    <polyline points="624.375,458.875 620.25,475.375 618.625,489.25 618.75,500.625 620.125,509.875 622.5,517.375 625.25,523.375 628.125,528.0 630.75,531.25 633.125,533.5 634.875,534.75 636.125,535.0 636.5,534.625 635.375,532.0 633.875,530.125 629.375,525.5 626.5,523.125 619.875,518.375 612.75,514.0 601.625,508.75"/>
    <polyline points="598.0,507.375 591.0,505.125 581.25,503.0 572.375,502.0 567.0,501.75 555.375,502.125 547.75,503.0 538.625,504.625"/>
    <line x1="537.375" x2="518.0" y1="504.875" y2="509.125"/>
    <polyline points="517.5,509.25 513.25,509.875 510.0,509.875"/>
    <polyline points="509.75,509.875 507.625,509.75 503.75,508.75"/>
    <line x1="503.5" x2="494.375" y1="508.75" y2="505.625"/>
    <line x1="493.875" x2="476.5" y1="505.375" y2="498.5"/>
    <line x1="475.5" x2="438.75" y1="498.125" y2="482.125"/>
    <polyline points="436.5,481.125 374.375,452.875 347.75,441.875"/>
    <polyline points="343.75,440.5 337.0,438.75 334.375,438.375 332.5,438.5 331.375,439.25 331.125,440.625 331.875,442.5 333.5,445.125 336.125,448.375 344.25,456.5 355.25,466.375 374.875,482.375 388.625,492.5 401.875,501.625 419.875,512.625 430.375,518.0"/>
    <polyline points="435.125,520.25 444.0,523.75 451.75,526.25 458.75,527.875 464.875,528.875 473.0,529.375 480.0,529.25 488.0,528.375 499.125,526.625"/>
    <polyline points="500.5,526.375 510.125,524.625 516.375,523.875 526.75,523.5"/>
    <polyline points="527.625,523.5 536.375,524.0 555.625,525.875"/>
    <polyline points="557.125,526.0 568.875,526.5 575.0,526.375 589.375,525.0 601.5,522.625 612.375,519.375 620.75,516.25"/>
    <polyline points="625.25,514.25 635.25,509.5 640.75,506.5 646.625,503.0 659.625,494.5 674.375,483.25 691.0,468.75 699.875,460.0 709.125,450.25 718.75,439.5 728.25,427.75 737.5,415.125 746.375,402.0 754.125,388.5 760.375,375.375 764.625,363.125 766.5,352.625 765.5,344.375 761.5,339.25 754.5,337.375 745.0,339.0 733.5,343.875"/>
    <polyline points="720.5,351.625 706.875,361.5 693.0,372.75 679.375,384.75 654.25,408.875 601.0,463.875 594.75,470.0 583.875,479.75 570.5,489.75 562.875,494.25 559.5,496.0 553.0,498.625 544.375,501.0"/>
    <polyline points="541.625,501.5 536.5,502.25 529.25,502.625 520.375,502.375 505.875,500.375 496.125,498.375 488.375,496.25"/>
    <polyline points="486.5,495.75 467.25,489.375 442.125,479.75"/>
    <polyline points="441.375,479.5 440.875,479.5 441.25,480.125 455.25,488.375 482.0,503.125 514.0,520.25 562.125,545.0 592.5,560.125 626.5,576.125 662.375,591.75 697.625,605.25 728.875,614.375 753.375,617.75 769.5,614.375 777.125,604.75 777.625,590.5 773.375,573.25"/>
    <polyline points="766.375,554.625 743.25,502.0 737.25,487.0 728.125,461.625 719.625,433.875 717.25,427.0 714.625,421.25 711.875,416.75 708.75,413.25 705.25,410.875 701.25,409.625 696.75,409.375 691.875,409.875 686.625,411.375 681.0,413.625 675.25,416.375 669.25,419.75 657.25,427.5 645.375,435.875"/>
    <polyline points="639.625,440.25 605.125,466.75 593.5,475.25 574.875,487.5 563.25,494.25 555.875,498.125"/>
    <polyline points="554.375,499.0 541.5,505.5 537.0,508.25 534.5,510.5"/>
    <polyline points="534.375,510.75 533.75,511.75 534.0,513.5 535.375,515.0 538.125,516.5"/>
    <polyline points="538.625,516.75 546.375,519.25 553.125,520.625 560.375,521.5"/>
    <polyline points="561.75,521.75 567.75,522.125 576.75,522.125 590.375,520.75 598.875,519.125 608.625,516.375 612.25,515.25 624.375,510.375"/>
    <polyline points="628.875,508.25 638.875,503.0 650.125,496.125 656.25,492.0 669.625,481.875 676.875,475.875 684.5,469.0 692.5,461.5 700.75,453.0 709.125,443.75 717.625,433.75 725.875,423.0 733.75,411.625 740.875,400.125 747.0,388.625 751.5,377.75 754.25,367.875 754.75,359.75 752.875,353.75 748.625,350.25 742.0,349.625 733.25,351.75 723.0,356.375"/>
    <polyline points="711.625,363.25 699.625,371.75 687.375,381.5 675.375,391.875 652.875,412.75 609.25,455.75 596.375,467.75 585.375,477.125 571.625,487.125 563.875,491.625 553.625,496.375 544.625,499.125"/>
    <polyline points="541.75,499.75 536.5,500.75 529.125,501.5 522.25,501.625 515.75,501.375 503.5,499.875 487.875,496.375"/>
    <polyline points="485.875,495.75 475.75,492.75 453.375,484.375 424.75,471.75"/>
    <polyline points="421.25,470.25 396.125,458.25 365.375,442.875 327.625,423.25 250.75,382.375 213.5,363.375 197.375,356.0 186.0,352.25 182.125,354.125"/>
    <polyline points="187.75,363.125 203.625,379.875 290.75,462.5 321.625,492.75 348.875,521.0 371.5,546.125 389.5,568.0 403.0,586.625 412.625,602.0 419.125,614.75 422.875,624.875 424.625,632.875 424.875,638.75 424.0,642.875 422.5,645.25 420.625,646.125 418.625,645.625 416.75,643.75 415.125,640.75 414.0,636.875 413.25,632.0 413.0,626.625 414.125,614.625"/>
    <polyline points="415.25,608.25 418.75,595.5 423.375,583.375 428.5,572.375 434.0,562.625 436.75,558.375 442.25,550.625 447.5,544.25 452.5,538.875 457.125,534.5 463.5,529.25 472.375,523.25"/>
    <polyline points="474.0,522.375 482.875,517.75 494.875,512.375"/>
    <polyline points="495.125,512.125 496.875,511.0 497.375,510.25 497.25,509.0 496.625,508.375"/>
    <polyline points="496.375,508.125 493.25,506.125 487.125,503.375"/>
    <line x1="486.5" x2="464.125" y1="503.125" y2="493.375"/>
    <polyline points="462.75,492.875 439.25,482.5 410.625,469.375"/>
    <polyline points="407.375,467.875 376.625,454.0 350.375,443.125 339.5,439.75 336.75,439.25 334.625,439.25 333.25,439.75 332.625,440.75 332.875,442.375 334.125,444.625 336.25,447.5 339.375,451.0"/>
    <polyline points="343.375,455.0 359.375,469.375 379.0,484.875 398.875,499.0 416.875,510.25 432.5,518.375 441.5,522.125 449.375,524.75 456.5,526.625 462.875,527.75 468.5,528.25"/>
    <polyline points="471.125,528.5 484.375,528.0 510.625,523.75"/>
    <polyline points="511.625,523.625 520.125,522.75 528.0,522.75 534.5,523.25"/>
    <polyline points="535.375,523.375 557.875,525.625 567.875,526.0"/>
    <polyline points="569.75,526.0 580.375,525.625 590.5,524.375 602.75,521.875 613.75,518.5 626.875,513.125 637.0,508.0 648.625,501.25 661.75,492.375"/>
    <polyline points="669.0,487.0 684.875,473.75 702.375,456.875 711.625,446.875 721.125,435.875 730.5,424.0 739.5,411.375 747.875,398.25 755.125,385.125 760.75,372.375 764.25,360.75 765.25,351.0 763.375,343.75 758.625,339.625 751.0,338.75 741.0,341.375 729.25,347.0 716.125,355.125 702.5,365.25 688.875,376.625 675.625,388.625 663.0,400.625 640.375,423.375"/>
    <polyline points="630.5,433.625 606.125,458.75 593.375,471.125 578.0,484.25 569.5,490.125 565.625,492.5 558.625,496.125 549.25,499.625 543.625,501.0 538.25,501.875 526.25,502.5"/>
    <polyline points="524.0,502.375 517.5,502.0 511.25,501.25 501.25,499.5 487.625,496.125 474.0,491.75"/>
    <polyline points="472.0,491.0 456.0,485.125 437.125,477.5 435.25,477.125 436.0,478.0 437.5,478.875"/>
    <polyline points="439.75,480.375 463.0,493.625 507.0,517.5 557.625,544.0 590.375,560.375 627.375,578.125 666.75,595.75 705.625,610.875 740.125,621.375 766.75,624.875 783.625,620.625 790.75,609.25 790.25,592.75 784.75,573.125 776.75,552.25 760.0,512.25 753.125,494.25 747.5,478.0 743.125,463.25"/>
    <polyline points="739.625,450.125 732.25,419.5 729.75,412.125 726.75,406.25 723.25,401.75 719.125,398.75 714.25,397.125 708.75,397.0 702.625,398.0 696.0,400.25 688.875,403.375 681.625,407.375 674.25,412.0 666.75,417.0 652.125,427.75 604.0,466.0"/>
    <polyline points="599.25,469.5 590.625,475.75 582.75,481.0 572.5,487.25 563.625,492.0 558.375,494.5 545.375,499.75 533.75,503.25"/>
    <polyline points="532.375,503.625 525.0,505.25 517.25,506.375 508.875,506.625"/>
    <polyline points="508.25,506.625 503.625,506.25 498.375,505.25 491.5,503.375"/>
    <polyline points="490.75,503.125 481.625,500.0 466.0,493.75"/>
    <polyline points="464.75,493.25 444.75,484.625 411.375,469.5"/>
    <polyline points="408.0,467.875 366.875,449.25 348.125,441.5 339.75,438.5 336.125,437.5 333.0,436.875 330.5,436.75 328.875,437.125 328.0,438.125 328.25,439.75 329.5,442.125 331.75,445.25 335.125,449.0"/>
    <polyline points="339.375,453.375 350.375,463.5 356.875,469.0 378.0,485.875 385.125,491.25 399.125,501.0 418.0,513.0 434.125,521.25 438.875,523.375 447.5,526.625 458.625,529.5 465.0,530.625 470.75,531.125"/>
    <polyline points="473.375,531.125 482.75,530.875 488.75,530.125 514.125,525.875"/>
    <polyline points="515.25,525.75 522.75,525.125 532.0,525.125 541.875,525.875"/>
    <polyline points="543.125,525.875 550.875,526.625 565.125,527.375 572.875,527.375 581.875,526.875 587.0,526.25"/>
    <polyline points="589.625,525.875 598.75,524.25 609.25,521.375 617.25,518.625 626.25,514.875 636.5,509.875 648.25,503.125 661.625,494.25 669.0,488.75 685.125,475.375 694.0,467.25 703.125,458.125 712.75,447.875 722.625,436.5 732.375,424.25 741.875,411.125"/>
    <polyline points="750.625,397.375 758.375,383.5 764.375,370.0 768.125,357.75 769.25,347.375 767.25,339.75 762.125,335.375 754.125,334.625 743.5,337.5 731.0,343.625 717.375,352.5 703.125,363.25 688.875,375.375 675.125,387.875 662.125,400.5 639.125,424.0 604.875,460.25 592.25,472.625 586.75,477.625 577.125,485.625"/>
    <polyline points="572.875,488.75 561.625,495.625 552.0,499.625 543.625,501.75 535.875,502.75 528.875,503.0 518.0,502.375 507.75,500.875"/>
    <polyline points="505.875,500.5 498.125,498.875 486.75,495.875 475.625,492.375 460.0,486.75"/>
    <polyline points="458.5,486.125 452.375,484.0 451.125,483.875 453.375,485.625 461.875,490.625 481.625,501.375 504.875,513.75 539.5,531.625 587.25,555.0 615.375,568.0 645.0,580.75"/>
    <polyline points="674.5,592.0 701.5,600.5 724.0,604.75 740.5,604.125 750.375,598.625 754.125,589.0 753.0,576.25 748.625,561.75 742.25,546.625 735.125,531.75 710.25,482.625 695.875,452.25 690.75,442.875 688.375,439.25 686.0,436.375 683.5,434.25 681.0,432.625 678.25,431.625 675.25,431.125"/>
    <polyline points="672.25,431.125 669.0,431.625 662.125,433.75 654.875,437.125 647.5,441.375 640.0,446.125 629.25,453.625 593.375,480.75"/>
    <polyline points="591.375,482.375 580.625,491.0 576.625,494.875 574.0,498.0 572.875,500.0 572.5,501.25 572.5,502.875 572.875,503.75"/>
    <polyline points="573.125,504.25 574.375,505.375 577.0,506.75 583.25,507.75 590.625,507.625 598.25,506.5 605.125,504.875"/>
    <polyline points="607.625,504.125 619.125,499.875 625.875,496.75 633.25,492.875 645.875,485.125 655.25,478.375 665.25,470.25 676.0,460.625 686.875,449.375 692.375,443.125 702.75,430.0 707.375,423.25 711.5,416.5 715.0,409.875"/>
    <polyline points="717.625,403.625 719.375,398.125 719.875,393.25 719.375,389.375 717.625,386.75 714.625,385.375 710.5,385.25 705.375,386.375 699.25,388.875 692.625,392.375 685.375,396.75 677.75,402.0 662.25,413.875 640.0,432.5 614.375,454.75 598.625,467.75 589.5,474.625"/>
    <polyline points="585.25,477.625 570.625,487.125 556.0,494.625 546.5,498.375 540.375,500.375 534.875,501.875 525.5,503.75"/>
    <polyline points="524.125,503.875 515.5,504.75 508.125,504.75 497.625,503.375"/>
    <polyline points="496.625,503.25 489.875,501.625 483.75,499.75 469.25,494.375"/>
    <polyline points="467.875,493.875 451.5,487.125 414.125,470.375"/>
    <polyline points="410.75,468.875 363.375,447.125 343.0,438.625 330.0,434.25 326.625,433.5 324.125,433.5 322.5,434.0 322.0,435.375 322.625,437.375 324.375,440.25 327.375,444.0"/>
    <polyline points="331.5,448.5 349.75,465.25 357.0,471.5 372.625,484.0 395.75,501.125 402.875,506.125 416.25,514.625 422.375,518.25 433.5,524.0 438.5,526.375 447.625,529.875 451.75,531.25 459.25,533.125 465.875,534.25 471.75,534.625"/>
    <polyline points="474.5,534.75 482.0,534.5 492.375,533.25 512.5,529.5 517.625,528.875"/>
    <polyline points="518.875,528.75 526.125,528.125 537.0,528.125 550.5,528.875"/>
    <polyline points="552.0,529.0 569.625,529.625 583.375,528.875 588.75,528.25 597.875,526.625 612.5,522.625"/>
    <polyline points="616.75,521.125 625.875,517.5 636.375,512.5 648.25,505.75 662.0,496.625 677.75,484.625 686.375,477.25 695.625,468.75 705.375,459.25 715.375,448.5 725.875,436.5 736.25,423.375 746.375,409.375 755.875,394.5 764.125,379.625 770.625,365.0 774.5,351.875 775.5,340.75 773.0,332.875 767.125,328.5 758.125,328.25"/>
    <polyline points="746.25,332.0 732.5,339.25 717.625,349.375 702.375,361.5 687.25,374.625 672.875,388.25 659.5,401.75 647.25,414.5 602.25,463.25 590.125,475.5 580.125,484.625 571.625,491.125 567.875,493.75 564.375,495.75 557.875,499.0 549.125,502.0"/>
    <polyline points="546.5,502.625 536.625,503.875 529.875,503.875 523.375,503.5 517.25,502.875 509.5,501.625 494.875,498.25"/>
    <polyline points="493.125,497.875 471.875,491.375 469.125,490.625 468.0,490.625 472.625,493.875"/>
    <polyline points="475.25,495.25 502.375,509.75 523.375,520.375 569.375,542.625 609.0,560.125 630.125,568.625 650.875,576.0 670.125,581.75 686.75,585.0 699.875,585.375 709.0,582.875 714.125,577.625 715.75,570.25 714.5,561.25 711.0,551.375 706.25,541.25 700.625,531.25 694.75,521.75"/>
    <polyline points="688.875,513.0 677.875,498.0 664.625,481.875 657.625,474.75 654.625,472.0 649.5,468.0 643.125,464.75 637.875,463.75 634.75,463.875 632.0,464.5 628.25,465.875 626.125,467.0"/>
    <polyline points="625.125,467.625 620.0,471.5 616.625,475.375 616.0,477.75 616.875,478.625 617.625,478.75"/>
    <polyline points="618.0,478.75 621.25,478.375 624.0,477.5 632.125,473.5 639.25,468.875 646.875,462.75"/>
    <polyline points="648.375,461.375 654.125,455.625 658.625,449.875 660.875,446.0 661.625,442.125 660.25,440.75 658.5,440.625 656.0,441.125 651.375,443.125"/>
    <polyline points="649.5,444.125 643.625,447.625 630.875,456.5 615.5,468.75 604.375,478.75"/>
    <polyline points="603.25,479.875 600.625,482.75 598.25,486.0 597.375,488.0 597.125,489.625 598.0,491.25 598.875,491.75 600.875,492.375 603.625,492.5"/>
    <polyline points="604.625,492.375 609.875,491.5 616.5,489.5 624.625,486.0 631.875,482.25 639.875,477.25 648.75,470.875 655.0,465.75 661.25,460.0"/>
    <polyline points="664.375,457.0 670.5,450.5 676.25,443.625 678.875,440.125 683.25,433.375 686.25,427.25 687.125,424.5 687.5,420.125 686.875,418.5 685.875,417.375 684.25,416.75 682.125,416.625 679.625,417.0 673.375,419.375 669.75,421.125 661.75,425.875 648.75,434.875"/>
    <polyline points="644.25,438.125 599.0,473.5 571.375,493.875"/>
    <polyline points="570.0,494.875 563.625,500.0 560.875,502.75 559.625,504.5 558.75,507.625 559.125,508.875 560.0,510.125"/>
    <polyline points="560.5,510.5 561.375,511.25 564.0,512.5 567.625,513.5 572.125,514.25 582.75,514.5 590.625,513.625"/>
    <polyline points="592.875,513.375 606.0,510.25 615.625,507.0 622.875,503.875 635.375,497.5 650.125,488.375 655.625,484.5 667.25,475.375 673.5,470.125 679.875,464.25 693.25,450.75 700.0,443.25 706.625,435.25"/>
    <polyline points="713.125,426.75 719.125,418.0 724.625,409.25 729.25,400.625 732.75,392.5 734.875,385.0 735.625,378.75 734.625,373.875 732.0,370.625 727.625,369.375 721.875,369.875 714.625,372.25 706.5,376.25 697.5,381.75 688.0,388.25 678.375,395.625 659.5,411.5 612.25,454.375 600.125,464.875"/>
    <polyline points="594.75,469.375 584.875,477.0 576.125,483.0 564.75,489.75 555.0,494.375 543.75,498.25 538.875,499.5 529.75,501.125 519.875,501.875"/>
    <polyline points="518.0,501.875 512.75,501.875 506.0,501.375 497.875,500.25 486.625,497.75 476.625,494.75"/>
    <polyline points="474.875,494.125 467.625,491.625 450.875,485.0 429.25,475.625 411.625,467.5"/>
    <polyline points="407.5,465.625 336.75,431.875 313.5,421.5 299.5,416.0 293.875,414.375 289.75,413.75 287.25,414.5 287.0,416.75 289.0,420.625 293.5,426.25 300.25,433.5 309.0,442.25"/>
    <polyline points="319.5,452.0 355.5,483.75 390.125,512.5 409.375,527.375 417.75,533.5 432.125,543.125 443.875,549.75 449.0,552.125 453.5,554.0 461.625,556.375 465.125,557.125 471.5,557.75 477.125,557.625 484.625,556.5"/>
    <polyline points="486.875,555.875 495.25,553.625 504.625,550.625 515.0,547.875 523.25,546.375 531.5,545.625"/>
    <polyline points="533.125,545.5 541.625,545.375 576.75,547.25 585.0,547.25"/>
    <polyline points="588.0,547.125 601.5,546.0 613.75,543.75 618.375,542.625 628.625,539.375 640.625,534.5 654.75,527.375 663.0,522.625 681.75,509.875 692.75,501.375 704.75,491.25 718.125,479.125 732.75,464.625 748.625,447.375 765.375,427.375 782.875,404.375 800.0,378.75"/>
    <polyline points="815.75,351.375 828.25,323.75 835.75,298.375 836.375,277.875 828.875,265.25 813.75,262.0 792.25,268.5 766.75,283.5 740.0,304.375 714.0,328.5 690.375,353.625 669.875,378.0 652.625,400.375 638.5,420.5 627.125,438.125 618.25,453.125 611.25,466.0 606.0,476.75 602.0,485.75 597.0,499.375 595.375,504.5 592.25,516.5"/>
    <polyline points="591.625,518.0 591.125,519.125 590.375,519.875 589.625,520.25 587.75,520.375 582.25,518.75 566.125,513.125 547.625,508.5"/>
    <polyline points="545.25,508.125 513.125,502.375 493.75,497.875"/>
    <polyline points="491.875,497.375 486.125,495.75 471.0,490.75 447.625,482.0"/>
    <polyline points="446.75,481.75 445.5,481.5 446.625,482.625 463.875,492.625 493.75,508.75 528.0,526.75 577.125,551.5 607.125,565.875 639.625,580.5 672.625,594.0 703.75,604.625 730.375,610.875 750.125,611.5 762.25,606.375 767.125,596.125"/>
    <polyline points="766.25,582.0 761.5,565.875 754.625,548.875 747.0,532.0 732.625,501.5 726.75,488.25 721.75,476.5 706.125,435.75 701.125,426.75 698.375,423.625 695.375,421.375 692.125,420.0 688.5,419.25 684.625,419.375 680.5,420.125 676.0,421.375 671.375,423.25 666.625,425.5 656.75,431.125"/>
    <polyline points="651.875,434.375 646.875,437.625 632.625,447.875 594.625,476.375 569.625,493.5"/>
    <polyline points="568.0,494.625 561.375,499.125 555.0,504.5 553.625,506.125 552.875,507.625 552.625,508.5 552.75,510.25"/>
    <polyline points="552.875,510.625 553.625,511.75 554.875,512.75 559.25,514.875 565.125,516.25 573.0,517.0"/>
    <polyline points="574.5,517.0 577.875,517.125 585.5,516.625 592.25,515.75 603.0,513.375 612.625,510.375 623.875,505.75 632.5,501.5 642.0,496.0 652.75,489.0"/>
    <polyline points="658.625,484.75 664.75,480.125 677.875,469.0 691.875,455.375 699.25,447.625 706.5,439.25 713.625,430.25 720.5,420.875 726.875,411.375 732.375,401.75 736.875,392.375 740.125,383.75 741.625,376.125 741.5,370.0 739.375,365.625 735.25,363.375 729.5,363.125 722.125,365.125 713.375,369.0 703.875,374.625 693.625,381.625 683.25,389.625 662.75,406.875"/>
    <polyline points="653.0,415.75 619.5,447.125 599.875,464.875 589.0,473.75 579.5,480.875 571.125,486.375 563.625,490.625 553.625,495.125 542.25,498.75 534.625,500.25"/>
    <polyline points="532.25,500.625 521.375,501.5 515.5,501.5 508.0,501.0 499.0,499.75 484.875,496.5"/>
    <polyline points="483.0,496.0 471.75,492.375 454.625,485.875 436.0,478.0 423.0,472.125"/>
    <polyline points="419.375,470.375 387.25,455.25 318.625,421.625 299.25,412.625 281.375,405.0 274.0,402.625 268.625,401.625 265.75,402.375 266.0,405.5 269.5,411.0"/>
    <polyline points="276.5,419.0 286.625,429.375 299.25,441.375 329.125,468.75 359.75,496.0 398.625,530.0 409.0,538.75 426.25,552.625 433.25,557.875 444.75,565.625 449.5,568.25 457.375,571.75 460.75,572.75 466.625,573.5 471.625,573.25 476.125,572.25"/>
    <polyline points="478.125,571.5 484.0,569.0 503.125,559.25 514.625,555.25 521.0,553.875"/>
    <polyline points="522.625,553.625 532.375,552.625 540.75,552.75 549.625,553.5 567.625,556.125"/>
    <polyline points="569.875,556.5 584.875,558.625 600.0,559.75 611.125,559.625 615.25,559.25 624.375,558.0 629.375,557.0 640.875,553.75 647.5,551.5 654.625,548.5 671.625,539.875 681.625,533.75"/>
    <polyline points="693.0,526.0 705.875,516.375 720.5,504.25 737.125,489.125 756.0,470.25 777.125,446.875 800.375,418.5 824.875,384.75 849.125,346.25 870.5,304.75 885.125,264.25 888.75,230.375 878.75,209.25 855.0,205.0 820.875,218.125 781.875,244.875 743.375,279.75 709.125,317.25 681.0,353.75 659.125,386.875 643.25,415.875 632.625,440.625 626.25,461.5 623.125,478.875 622.75,493.375 624.375,505.375"/>
    <polyline points="627.25,515.0 630.875,522.875 634.875,528.875 638.75,533.375 642.25,536.5 645.125,538.25 647.125,538.875 648.25,538.5 648.5,537.25 647.75,535.375 646.375,533.0 644.25,530.25 638.25,524.25 631.0,518.25 627.125,515.5 619.125,510.625 611.125,506.625 603.5,503.625 593.0,500.75"/>
    <polyline points="589.75,500.125 583.625,499.375 578.125,499.125 570.75,499.375 566.5,499.875 556.125,502.0 549.0,504.5 545.5,506.125"/>
    <polyline points="544.75,506.625 541.625,508.75 540.5,510.125 540.0,511.375 540.375,513.125 541.625,514.5"/>
    <polyline points="542.0,514.75 544.625,516.25 549.375,518.0 555.875,519.5 561.875,520.375"/>
    <polyline points="563.125,520.5 569.125,520.875 578.125,520.875 586.75,520.125 594.375,518.875 603.25,516.875 606.5,515.875 617.375,512.125 625.625,508.5"/>
    <polyline points="630.25,506.375 640.125,501.0 651.375,494.0 657.375,489.75 670.75,479.5 677.875,473.5 685.375,466.625 693.25,459.125 701.25,450.75 709.375,441.625 717.5,431.75 725.375,421.25 732.875,410.375 739.5,399.25 745.0,388.375 749.0,378.125 751.25,369.125 751.375,361.625 749.25,356.25 744.75,353.375 738.125,353.125 729.625,355.375 719.625,360.125"/>
    <polyline points="708.625,366.875 697.0,375.125 685.25,384.375 673.75,394.375 652.0,414.375 609.25,455.875 596.625,467.5 585.625,476.625 572.0,486.5 564.125,491.125 557.125,494.5 550.75,497.0 544.875,498.75"/>
    <polyline points="542.0,499.375 539.375,500.0 529.375,501.25 520.375,501.5 512.0,501.0 504.0,500.0 488.625,496.75"/>
    <polyline points="486.625,496.125 474.625,492.5 456.875,486.0 435.375,476.875 425.5,472.375"/>
    <polyline points="422.0,470.75 401.0,460.875 364.25,442.625 287.5,403.0 257.625,387.875 242.875,380.75 229.625,374.875 219.25,371.25 213.5,371.125 213.875,375.5"/>
    <polyline points="221.375,385.25 235.875,400.125 256.0,419.5 329.75,489.125 352.375,511.25 372.125,531.375 388.625,549.0 402.25,564.125 413.0,576.875 427.75,596.0 432.5,602.875 441.375,617.625 441.75,617.625 442.0,616.875 444.125,606.0"/>
    <polyline points="444.875,602.875 448.375,592.75 453.125,582.5 458.75,573.0 462.875,567.25 469.0,559.75 473.125,555.375 479.25,549.875 483.125,546.875 490.625,541.875"/>
    <polyline points="492.375,540.875 500.625,536.75 508.25,534.0 513.875,532.5 520.5,531.25 528.25,530.5"/>
    <polyline points="529.5,530.5 538.75,530.375 562.375,531.375 568.25,531.375"/>
    <polyline points="570.375,531.375 582.125,530.875 590.375,529.875 596.625,528.75 607.25,526.25 615.375,523.625 624.625,520.125 635.125,515.25 640.875,512.25 653.75,504.625 668.625,494.25 676.875,487.875"/>
    <polyline points="685.75,480.5 695.125,472.0 705.125,462.375 715.625,451.375 726.5,439.125 737.5,425.5 748.375,410.75 758.625,395.25 767.625,379.25 774.875,363.625 779.625,349.125 781.125,336.875 779.0,327.875 773.0,322.875 763.625,322.25 751.125,326.125 736.5,333.75 720.75,344.5 704.5,357.5 688.625,371.625 673.625,386.125 659.75,400.375 647.125,413.875 616.625,447.875"/>
    <polyline points="608.625,456.75 595.25,471.25 584.625,482.0 575.75,489.75 564.75,497.375 561.625,499.125 555.75,501.625 547.75,503.875 536.125,505.0 525.625,504.375"/>
    <polyline points="523.625,504.25 514.125,502.875 503.5,500.75 483.25,495.375"/>
    <polyline points="482.125,495.125 479.875,494.625 479.125,494.625 479.0,494.875 483.25,497.75 491.625,502.375 533.375,523.25 557.625,534.75 571.875,541.125 587.25,547.875 603.375,554.5"/>
    <polyline points="619.75,560.75 635.75,566.125 650.75,570.375 663.875,573.0 674.75,573.625 683.0,572.375 688.25,569.25 691.0,564.5 691.25,558.375 689.625,551.375 686.375,543.875 682.25,536.375 677.5,529.0 672.375,521.875 662.0,509.5 647.875,495.75 643.75,492.375 636.25,487.25 630.0,483.875 624.5,481.75"/>
    <polyline points="622.125,481.125 618.0,480.5 612.875,480.625 607.0,482.375 604.25,484.25 603.25,485.625 603.0,487.25 604.25,488.25"/>
    <polyline points="604.625,488.5 607.5,488.75 610.375,488.375 615.5,487.125 620.25,485.375 625.75,483.0 632.0,479.625 644.0,471.75"/>
    <polyline points="646.5,469.75 657.125,460.75 665.0,452.75 672.0,444.375 677.25,436.25 679.375,431.5 679.875,429.375 680.125,427.625 679.875,426.125 679.25,425.0 678.25,424.125 676.875,423.75 675.125,423.75 670.5,424.875 667.75,426.0"/>
    <polyline points="664.75,427.375 654.625,433.375 643.5,441.125 628.875,452.125 588.25,484.0"/>
    <polyline points="586.5,485.375 579.125,491.375 572.75,497.75 570.875,500.5 570.25,502.25 570.25,503.375 571.0,505.25"/>
    <polyline points="571.375,505.625 572.25,506.5 574.875,507.75 578.625,508.625 582.25,509.0 586.625,509.0 595.75,508.0 604.875,505.875"/>
    <polyline points="607.5,505.125 622.75,499.25 638.125,491.125 651.625,482.125 656.625,478.375 661.75,474.375 672.625,465.0 683.875,454.0 689.5,447.875 695.25,441.375 700.625,434.5 705.875,427.5 710.625,420.375 714.75,413.375 718.25,406.5"/>
    <polyline points="720.75,400.125 722.25,394.375 722.5,389.625 721.625,386.0 719.375,383.5 715.875,382.5 711.125,382.75 705.375,384.5 698.875,387.5 691.625,391.625 683.875,396.625 667.875,408.5 644.375,428.125 605.875,461.5 591.0,473.25 586.625,476.375"/>
    <polyline points="582.5,479.375 574.875,484.375 568.0,488.375 561.75,491.625 553.5,495.375 548.5,497.375 539.75,500.125 532.25,502.0 522.625,503.5"/>
    <polyline points="521.25,503.625 515.875,504.0 505.25,503.75 498.625,502.875 492.125,501.5"/>
    <polyline points="491.125,501.25 483.125,499.0 476.875,496.875 457.25,489.25"/>
    <polyline points="455.375,488.5 433.625,479.0 379.875,454.25"/>
    <polyline points="375.0,452.0 353.875,442.5 337.875,435.875 332.875,434.125 324.5,431.5 321.25,431.0 319.0,431.25 317.75,432.125 317.875,434.0 319.125,436.625 321.75,440.25 330.875,449.875 337.125,455.75 344.125,462.125 360.0,475.5 376.625,488.875 384.875,495.125"/>
    <polyline points="392.875,501.0 407.875,511.375 421.125,519.625 438.0,528.5 451.75,533.75 463.0,536.375 472.375,537.375 482.75,537.125 493.375,535.625"/>
    <polyline points="495.25,535.25 511.5,532.125 518.375,531.125 531.375,530.25"/>
    <polyline points="532.75,530.25 542.125,530.375 559.5,531.25 573.5,531.25"/>
    <polyline points="575.75,531.125 588.75,530.0 598.125,528.375 605.125,526.75 613.0,524.375 621.875,521.125 631.875,516.75 637.5,513.875 643.5,510.75 649.875,506.875 664.125,497.5 672.0,491.625 680.5,484.75 689.625,477.0 699.25,468.0"/>
    <polyline points="709.5,457.875 720.125,446.375 731.0,433.5 742.0,419.5 752.625,404.375 762.5,388.5 770.75,372.625 777.0,357.5 780.375,343.875 780.375,332.875 776.75,325.5 769.25,322.375 758.5,323.625 745.125,329.125 729.875,338.125 713.875,349.875 697.75,363.375 682.25,377.75 667.625,392.125 654.25,406.125 642.25,419.25 598.875,467.375"/>
    <polyline points="592.875,473.75 582.625,483.75 574.0,491.0 566.75,496.125 557.375,500.875 549.25,503.5 541.875,504.625 533.0,504.875 520.75,503.875"/>
    <polyline points="518.875,503.625 511.375,502.375 501.0,500.125 480.625,494.75"/>
    <polyline points="479.875,494.625 478.625,494.5 479.375,495.5 483.5,498.0 497.125,505.25 536.875,525.0 562.375,537.0 592.875,550.375 609.375,557.0 625.875,563.0 641.75,568.125"/>
    <polyline points="656.375,571.875 668.875,573.875 678.875,573.875 686.125,571.875 690.5,568.125 692.25,562.625 691.75,556.125 689.5,548.75 685.875,541.125 681.375,533.5 676.375,526.125 671.125,519.25 665.875,513.0 660.875,507.25 655.875,502.25 651.25,497.875 643.0,490.875 635.75,486.0 629.625,482.875 624.5,481.0 620.0,480.125"/>
    <polyline points="618.125,480.0 614.75,480.0 610.625,480.75 607.625,482.0 605.5,483.375 604.375,484.75 603.875,486.375 604.75,487.5 606.375,488.0"/>
    <polyline points="607.0,488.0 610.5,487.875 615.375,486.75 623.25,483.75 629.0,480.875 635.5,477.125 640.125,474.0 650.125,466.375"/>
    <polyline points="652.75,464.125 663.0,454.375 667.75,449.0 671.875,443.5 673.75,440.875 676.625,435.875 678.375,431.375 678.75,428.0 678.375,426.625 677.625,425.75 676.5,425.125 675.0,424.875 673.125,425.0 668.5,426.375 659.625,430.875"/>
    <polyline points="656.25,432.875 645.625,440.0 631.25,450.625 585.5,486.75"/>
    <polyline points="584.0,488.0 576.125,495.125 574.125,497.5 572.5,500.25 572.125,502.0 572.25,503.125 572.875,504.5 574.125,505.625"/>
    <polyline points="574.75,506.0 578.625,507.375 581.875,507.875 587.25,508.0 592.25,507.625 598.125,506.625 605.125,505.0 616.125,501.25"/>
    <polyline points="619.25,500.0 626.0,496.875 637.5,490.625 646.125,485.125 655.5,478.375 670.875,465.5 676.375,460.375 687.375,449.0 692.875,442.75 703.25,429.5 712.0,415.875 715.5,409.25 718.125,403.0 719.75,397.5 720.375,392.625 719.625,388.875"/>
    <polyline points="717.75,386.25 714.75,384.875 710.5,384.875 705.25,386.125 699.125,388.625 692.375,392.25 685.0,396.875 669.625,407.875 654.125,420.375 613.875,455.125 603.0,464.125 589.0,475.0 573.5,485.375"/>
    <polyline points="570.125,487.375 561.0,492.25 553.0,495.875 546.0,498.5 538.0,501.0 531.125,502.625 526.5,503.5 519.75,504.25"/>
    <polyline points="518.5,504.375 516.125,504.625 506.5,504.5 497.75,503.375 492.875,502.25"/>
    <polyline points="491.875,502.0 479.125,498.125 461.375,491.25"/>
    <polyline points="459.75,490.5 438.125,481.25 394.125,461.125"/>
    <polyline points="389.875,459.125 350.75,441.625 336.0,435.875 331.75,434.5 325.0,433.125 322.75,433.25 321.625,434.125 321.5,435.75 322.625,438.125 324.875,441.375 328.375,445.5 338.75,455.625 352.375,467.75 360.0,474.125"/>
    <polyline points="367.875,480.5 391.375,498.375 405.875,508.375 419.0,516.625 425.0,520.0 435.875,525.5 440.75,527.625 449.625,530.875 453.625,532.125 464.25,534.375 473.25,535.125 485.375,534.5"/>
    <polyline points="487.5,534.25 510.75,530.125 524.625,528.625"/>
  </g>
</svg>
