<?xml version="1.0" encoding="utf-8" ?>
<svg xmlns="http://www.w3.org/2000/svg" xmlns:cc="http://creativecommons.org/ns" xmlns:dc="http://purl.org/dc/elements/1.1/" xmlns:ev="http://www.w3.org/2001/xml-events" xmlns:inkscape="http://www.inkscape.org/namespaces/inkscape" xmlns:rdf="http://www.w3.org/1999/02/22-rdf-syntax-ns" xmlns:sodipodi="http://sodipodi.sourceforge.net/DTD/sodipodi-0.dtd" xmlns:xlink="http://www.w3.org/1999/xlink" baseProfile="tiny" height="27.09333333cm" version="1.2" viewBox="0 0 1024.0 1024.0" width="27.09333333cm">
  <metadata>
    <rdf:RDF>
      <cc:Work>
        <dc:format>image/svg+xml</dc:format>
        <dc:source>vpype read './original_svgs/Strange Attractors #372.svg' linemerge linesimplify write './Strange Attractors #372.svg'
</dc:source>
        <dc:date>2024-08-05T01:35:53.127383</dc:date>
      </cc:Work>
    </rdf:RDF>
  </metadata>
  <defs/>
  <g fill="none" id="layer1" inkscape:groupmode="layer" inkscape:label="1" stroke="black" stroke-width="0.7mm" style="display:inline">
    <polyline points="113.125,498.5 106.375,425.0 92.5,354.375 77.5,284.5 70.875,219.375 84.0,170.125 124.375,151.5 188.375,171.875 262.25,225.25 330.125,296.0 383.0,369.25 418.25,436.25 437.5,494.125 443.25,542.75 438.25,582.75 425.0,615.0 406.25,639.625 384.625,656.375 362.875,664.625 343.125,664.625 327.5,656.75 316.5,642.75 310.0,624.25 307.5,603.375 308.0,581.875 310.375,560.875"/>
    <polyline points="313.875,541.25 318.0,523.625 322.25,508.0 326.5,494.5 330.75,483.0 334.75,473.375 338.75,465.375 342.625,458.875 346.5,453.875 350.375,450.0 354.25,447.125 358.25,445.25 362.375,444.25 366.375,444.0 370.625,444.25 374.75,445.125 383.125,448.125 391.5,452.25 403.25,459.5 413.875,467.0"/>
    <polyline points="417.125,469.25 436.0,483.0 456.875,497.125 458.5,498.5"/>
    <polyline points="459.0,498.875 460.125,500.375 460.0,501.0 459.0,501.625 454.875,502.0 449.125,501.5"/>
    <polyline points="448.0,501.375 441.125,500.375 434.375,498.875 421.75,495.25 408.5,490.25 402.375,487.5 392.25,482.375"/>
    <polyline points="388.5,480.25 380.75,475.5 372.25,469.75 363.25,463.0 353.75,455.0 344.0,445.625 334.375,434.875 325.375,423.25 321.5,417.125 318.125,411.125 315.5,405.375 313.75,399.875 313.0,395.0 313.375,391.0 315.125,388.125 318.125,386.375 322.375,386.125 327.875,387.25 334.5,389.875"/>
    <polyline points="342.0,394.0 350.25,399.25 358.75,405.5 367.625,412.5 376.375,420.0 401.25,443.25 439.125,480.625 448.5,489.0 456.75,495.625 463.875,500.75 470.125,504.625 481.0,509.75"/>
    <polyline points="483.5,510.625 490.125,512.5 499.875,514.125 511.5,514.75 525.875,514.25"/>
    <polyline points="527.25,514.125 541.25,512.875 565.375,509.375"/>
    <polyline points="567.25,509.0 581.625,506.125 591.0,503.75 601.625,500.625 610.625,497.625 620.5,493.75 635.375,486.75"/>
    <polyline points="639.375,484.625 652.375,476.875 666.625,466.75 676.5,458.5 681.5,454.0 686.25,449.125 691.0,444.125 695.25,438.875 699.25,433.625 702.5,428.375 705.0,423.25 706.5,418.75 706.75,414.75 705.5,411.75 702.875,409.875 698.75,409.375 693.0,410.375 685.75,412.875 677.375,416.875 668.0,422.25 658.125,428.75"/>
    <polyline points="647.75,436.125 627.375,452.25 608.5,468.375 572.25,500.75 561.875,509.375 553.125,515.875 542.75,522.25 537.0,524.875 531.875,526.5 527.375,527.5 521.25,527.875"/>
    <polyline points="519.375,527.875 510.75,527.125 492.375,523.75 480.25,521.875"/>
    <polyline points="478.625,521.625 446.875,517.125 434.625,514.875 426.25,513.0"/>
    <polyline points="423.25,512.25 409.875,508.625 402.25,506.0 389.375,501.0 379.5,496.375 362.5,487.0 349.25,478.25 342.0,472.875 334.25,466.875 326.0,459.875 317.375,451.875 308.25,442.75 298.75,432.5 289.0,421.0 279.375,408.25 270.125,394.25"/>
    <polyline points="261.75,379.625 254.875,364.625 250.375,350.125 249.125,337.25 251.75,327.375 258.875,321.5 270.375,320.875 285.875,325.625 304.25,335.75 324.25,350.125 344.625,367.625 364.25,386.875 382.375,406.5 398.625,425.625 412.875,443.5 435.5,474.125 467.5,521.25 474.625,531.125 480.125,537.625"/>
    <polyline points="482.375,539.875 486.375,543.0 488.25,544.0 491.625,545.25 494.75,545.625 500.875,545.125 514.75,542.0 522.5,540.75"/>
    <polyline points="524.125,540.625 527.25,540.25 535.0,540.125 539.5,540.5 545.25,541.625 547.75,542.5 552.25,545.125 554.75,548.0 555.75,550.5"/>
    <polyline points="555.875,552.0 556.0,553.625 555.375,557.25 552.25,564.25 548.25,569.875 542.375,576.625 534.25,584.0 523.625,592.125 510.5,600.375 503.125,604.25 495.25,607.875 487.125,611.0 478.75,613.5 470.375,615.25 462.125,616.125 454.25,616.0 447.0,614.75 440.625,612.5"/>
    <polyline points="435.0,609.25 430.375,605.0 426.75,600.0 424.0,594.375 422.375,588.375 421.5,582.0 421.375,575.625 422.0,569.25 423.125,563.0 424.625,557.125 428.625,546.375 431.0,541.625 433.375,537.25 438.375,529.875 443.5,523.875 450.625,517.5 457.125,513.25 461.125,511.375"/>
    <polyline points="462.875,510.625 469.25,508.75 474.375,508.0 480.0,507.875 485.125,508.625"/>
    <polyline points="485.375,508.75 485.875,509.125 485.75,509.375 483.75,509.875 473.625,509.875 466.75,509.5 454.875,508.125"/>
    <polyline points="479.25,510.0 467.375,509.625 452.5,507.875"/>
    <polyline points="450.875,507.625 439.625,505.625 428.0,502.75 420.0,500.375 410.875,497.125 404.125,494.375 392.75,489.125 379.75,482.0"/>
    <polyline points="375.0,479.0 359.25,468.125 347.75,458.875 341.625,453.375 329.125,441.0 316.5,426.375 310.5,418.25 304.875,409.875 300.0,401.375 296.0,393.0 293.25,385.0 292.125,377.75 292.625,371.75 295.25,367.5 299.875,365.25 306.625,365.375 315.125,368.0 325.25,372.875 336.5,380.0 348.25,388.75 360.375,398.75"/>
    <polyline points="372.25,409.5 383.75,420.625 394.5,431.625 404.625,442.25 429.875,470.0 448.875,490.25 458.875,499.875 467.375,507.125 474.75,512.25 481.25,516.0 489.75,519.5 495.0,520.875 502.125,522.0"/>
    <polyline points="504.375,522.125 513.125,522.375 527.375,521.625 555.75,518.75"/>
    <polyline points="558.0,518.625 581.75,515.75 605.0,512.125 615.25,510.125 630.75,506.375"/>
    <polyline points="635.0,505.125 649.0,500.625 654.125,498.625 665.375,493.875 671.5,490.875 685.125,483.625 692.625,479.0 700.75,473.625 709.5,467.25 718.875,459.875 728.875,451.25 739.625,441.25 750.875,429.625 762.25,416.5 773.5,401.75 783.75,385.75 791.875,369.5 796.5,354.0 796.125,341.0 789.125,332.75 775.0,331.25 754.125,337.375"/>
    <polyline points="728.25,351.125 699.5,371.125 670.625,395.25 643.75,421.125 620.0,446.75 600.125,470.875 584.125,492.625 571.5,511.625 562.125,528.0 555.375,541.875 550.75,553.25 547.875,562.75 546.375,570.25 545.875,576.25 546.25,580.75 547.125,584.0 548.375,586.125 549.75,587.375 551.25,587.625 552.75,587.25 554.125,586.125 555.25,584.5 556.25,582.5 557.0,580.0 557.625,574.375"/>
    <polyline points="557.625,571.375 556.875,565.125 554.25,555.875 551.875,550.25 547.75,543.0 541.625,535.25 537.0,530.875 531.0,526.5 525.5,523.375"/>
    <polyline points="524.125,522.875 519.125,520.75 513.5,519.0 506.25,517.375 497.625,516.125"/>
    <line x1="496.625" x2="469.25" y1="516.0" y2="513.25"/>
    <polyline points="467.875,513.125 460.25,512.25 443.5,509.625 429.25,506.375 414.625,502.0"/>
    <polyline points="411.375,500.875 404.25,498.125 388.0,490.75 378.5,485.625 368.125,479.25 362.5,475.5 350.375,466.5 337.25,455.25 330.25,448.75 315.75,433.5 308.5,424.75 301.5,415.375 294.875,405.5 288.875,395.25 284.125,385.125 280.875,375.375 279.375,366.625"/>
    <polyline points="280.375,359.375 283.75,354.5 290.0,352.25 298.625,353.125 309.625,357.125 322.25,364.125 336.125,373.75 350.375,385.125 364.5,397.875 378.125,411.25 390.875,424.5 413.25,449.5 445.75,487.5 457.25,500.25 466.625,509.75 470.75,513.375 478.0,518.875 484.25,522.75"/>
    <polyline points="487.25,524.125 492.625,526.125 497.625,527.375 502.375,528.0 509.125,528.375 524.0,527.625 542.5,526.125"/>
    <polyline points="544.5,525.875 564.0,524.875 575.5,524.75 590.125,525.375 595.125,525.875 602.5,527.125"/>
    <polyline points="605.0,527.625 609.75,529.125 614.125,531.125 618.0,534.0 619.625,535.75 621.0,538.0 622.0,540.5 622.5,543.5 622.5,547.125 621.75,551.5 620.125,556.625 617.25,562.625 613.0,569.875 607.0,578.5 598.875,588.75 588.0,600.75 573.875,614.625 556.0,630.25 533.875,647.5 507.375,665.5 476.875,683.0 443.375,698.125 409.125,708.5"/>
    <polyline points="376.5,711.875 348.375,707.0 326.625,693.75 311.75,673.5 303.5,648.625 300.375,621.5 300.875,594.375 303.375,568.625 306.875,545.0 314.375,505.625 317.875,489.625 323.875,464.5 326.5,454.75 329.25,446.75 331.875,440.25 334.75,435.0 337.875,431.0 341.375,428.25 345.0,426.5 349.125,425.75 353.5,426.0 358.125,426.875 368.125,430.875"/>
    <polyline points="373.25,433.625 383.75,440.25 399.0,451.5 432.0,478.25 441.25,485.25 449.0,490.625 461.0,497.875"/>
    <polyline points="462.625,498.75 477.125,505.625 478.875,506.625 479.5,507.375 478.5,508.125 475.75,508.5 466.875,508.375"/>
    <polyline points="465.875,508.375 450.125,506.625 441.125,505.0 432.625,503.0 422.75,500.25"/>
    <polyline points="420.0,499.375 411.0,496.125 400.875,491.875 385.0,483.875 371.125,475.25 355.375,463.625 349.75,458.875 337.875,448.0 325.75,435.125 319.75,427.875 314.0,420.25 308.625,412.375 303.875,404.375"/>
    <polyline points="300.0,396.375 297.25,388.75 295.875,381.875 296.125,376.125 298.25,371.75 302.25,369.375 308.25,369.0 315.875,370.875 325.125,375.0 335.375,381.125 346.5,389.0 357.875,398.0 369.25,408.0 380.375,418.5 391.0,428.875 400.875,439.125 445.5,486.625 455.75,496.5 464.375,503.875"/>
    <polyline points="468.25,506.875 475.375,511.5 481.625,514.875 484.5,516.125 492.5,518.75 499.75,520.125 508.625,520.75 518.875,520.625 528.5,520.0"/>
    <polyline points="530.5,519.75 558.375,516.875 584.5,513.125"/>
    <polyline points="587.125,512.625 601.875,509.875 619.0,505.625 626.875,503.25 640.0,498.75 649.75,494.75 660.625,489.5 672.875,482.875 686.625,474.125 694.25,468.75 702.25,462.5"/>
    <polyline points="710.625,455.5 719.5,447.5 728.625,438.5 737.875,428.375 746.875,417.25 755.375,405.25 762.625,392.875 767.875,380.75 770.125,369.75 768.5,361.125 762.25,355.875 751.125,355.375 735.375,360.0 716.0,369.875 694.25,384.0 671.875,401.5 650.0,420.625 629.875,440.375 612.0,459.375 596.5,477.125 583.625,493.125 572.875,507.125 557.375,529.625 547.75,545.5"/>
    <polyline points="544.5,551.25 537.875,564.375 536.5,566.5 535.625,566.75 534.375,564.75 532.875,561.125 529.75,555.25 525.625,549.375 522.0,545.375"/>
    <polyline points="520.75,544.125 518.0,541.75 512.5,537.75 506.75,534.5 499.375,531.375 494.875,529.875 483.875,527.125"/>
    <polyline points="482.25,526.875 477.375,525.875 441.25,520.875 430.625,519.125"/>
    <polyline points="427.75,518.625 418.5,516.75 404.375,513.125 391.875,509.0 382.375,505.375 371.75,500.5 359.5,494.125 345.625,485.625 329.5,474.0 320.5,466.75 310.875,458.375 300.5,448.5 289.5,437.0 277.875,423.875"/>
    <polyline points="266.0,408.875 254.25,392.0 243.25,373.5 233.75,354.125 227.125,334.875 224.625,317.375 227.625,303.625 237.0,295.75 252.75,295.375 273.875,303.0 298.5,318.0 324.5,338.75 350.0,363.0 373.5,388.5 394.25,413.625 411.75,437.125 426.375,458.375 438.125,477.0 447.5,493.125 454.875,506.875 464.875,528.125 470.625,542.5 473.75,551.75"/>
    <polyline points="474.625,555.0 476.0,560.5 476.875,561.5 482.0,554.625 485.5,551.0 491.125,546.375 497.625,542.375"/>
    <polyline points="499.25,541.5 508.125,537.75 519.25,534.625 530.625,532.75 538.25,532.0 546.0,531.75"/>
    <polyline points="548.0,531.75 551.875,531.75 563.5,532.75 567.25,533.375 570.875,534.375 576.125,536.375 580.5,539.25 582.875,542.0 583.75,543.625 584.875,547.625 584.5,552.75"/>
    <polyline points="583.75,555.875 580.5,563.5 577.75,568.125 574.125,573.25 569.5,579.0 563.625,585.375 556.5,592.5 547.875,600.25 537.625,608.625 525.75,617.375 512.125,626.25 496.875,634.875 480.375,642.75 463.125,649.375 445.625,654.0 428.5,656.0 412.875,655.125 399.125,651.0 387.875,643.875 379.375,634.25 373.5,622.5 370.0,609.625 368.625,596.0 368.75,582.375 370.125,569.25"/>
    <polyline points="372.375,557.0 375.125,545.625 378.125,535.375 381.25,526.375 387.375,511.5 393.125,500.375 398.125,492.5 400.375,489.5 402.375,487.0 406.125,483.25 409.25,480.875 412.875,479.0 415.625,478.375 418.0,478.5"/>
    <polyline points="418.375,478.625 419.25,479.125 418.125,479.375 415.5,478.875 410.125,477.0 405.375,474.875"/>
    <polyline points="404.0,474.125 399.625,471.875 393.125,467.875 382.5,460.125 375.5,453.75 370.75,448.75 367.0,443.75 365.25,440.75"/>
    <polyline points="364.625,439.375 364.0,437.0 364.375,435.375 365.0,434.75 366.875,434.375 368.25,434.625 373.5,436.5 380.5,440.375 385.625,443.875 399.5,454.25 410.0,462.875"/>
    <polyline points="412.5,464.875 438.5,486.625 441.75,489.875 442.875,491.625"/>
    <polyline points="443.0,492.0 442.875,492.75 442.0,493.375 440.5,493.625 437.625,493.5 431.0,492.375 421.625,489.75"/>
    <polyline points="419.75,489.125 411.375,485.875 398.875,479.875 390.125,475.0 377.125,466.25 366.5,457.875 359.375,451.25 352.25,444.0 345.5,436.125"/>
    <polyline points="342.5,432.125 337.375,424.125 334.0,416.625 333.25,413.375 333.125,410.5 333.75,408.25 335.0,406.625 337.125,405.75 340.125,405.75 343.75,406.5 348.0,408.125 358.25,413.5 363.875,417.25 376.0,426.25 382.125,431.25 400.0,446.75 420.875,465.75"/>
    <polyline points="425.375,469.875 433.75,477.25 444.625,486.125 453.625,492.75 458.875,496.125 463.5,498.875 471.5,502.875 476.375,504.875 484.25,507.5"/>
    <polyline points="485.25,507.75 498.125,510.625 500.25,511.375 498.125,511.875 489.125,512.0"/>
    <polyline points="488.5,512.0 477.25,511.625 466.375,510.75"/>
    <polyline points="465.125,510.625 458.0,509.875 441.875,507.25 430.5,504.625 422.625,502.375 413.625,499.375"/>
    <polyline points="410.375,498.125 399.625,493.75 387.375,487.75 378.25,482.625 368.125,476.125 351.125,463.625 338.625,452.75 332.125,446.375 325.5,439.5 318.875,432.0 312.25,423.875 306.0,415.25 300.125,406.375 295.125,397.25 291.125,388.25 288.5,379.75 287.625,372.375"/>
    <polyline points="288.75,366.375 292.125,362.25 297.875,360.625 305.75,361.625 315.5,365.125 326.625,371.375 338.875,379.625 351.625,389.625 364.375,400.75 376.875,412.5 388.625,424.375 409.75,447.0 441.5,482.5 458.125,499.875 467.0,507.875 470.875,511.0 474.625,513.625 481.25,517.625"/>
    <polyline points="484.25,519.125 489.875,521.375 492.625,522.125 502.375,524.0 511.375,524.375 515.625,524.25 528.0,523.5 540.25,522.375"/>
    <line x1="542.25" x2="603.75" y1="522.125" y2="516.25"/>
    <polyline points="606.875,516.0 620.375,514.375 635.5,512.125 657.75,507.75 668.25,505.0 686.125,498.875 700.25,492.75 708.25,488.75 717.0,483.875 726.625,478.0 737.25,470.625 749.0,461.625"/>
    <polyline points="762.125,450.625 776.75,437.0 792.875,420.375 810.0,400.25 827.5,376.625 843.75,349.875 855.875,321.875 860.125,296.25 852.25,278.0 829.375,273.0 792.5,284.625 746.5,312.25 698.25,351.125 654.125,395.0 617.625,438.625 589.875,478.875 570.625,514.25 558.875,544.5 553.375,570.0 552.75,591.125 556.125,608.25 562.25,621.875 570.5,631.875 579.75,638.625 589.375,642.0 598.75,642.25"/>
    <polyline points="607.125,639.5 614.375,634.25 620.0,626.875 624.25,618.0 627.0,607.875 628.5,597.375 628.875,586.625 628.25,576.25 627.125,566.25 625.375,557.0 623.375,548.5 621.125,540.75 618.75,533.875 616.25,527.875 611.375,518.0 606.625,510.75 600.25,503.625 596.375,500.625 591.125,498.0"/>
    <polyline points="589.625,497.5 586.75,496.875 581.875,496.625 576.0,497.5 573.625,498.25 572.625,498.75 572.625,499.0 574.25,499.0 578.625,498.125 588.0,495.5"/>
    <polyline points="589.25,495.125 597.125,492.375 610.0,486.875 619.125,482.125 630.375,474.875"/>
    <polyline points="632.25,473.5 639.125,468.0 644.375,462.5 646.0,460.0 646.875,458.0 646.75,456.5 646.25,456.0 644.5,455.625 639.75,456.625 635.375,458.375 627.5,462.5"/>
    <polyline points="624.5,464.25 609.125,473.875 584.0,490.25 577.375,494.25 564.0,501.25"/>
    <line x1="562.625" x2="550.625" y1="501.875" y2="506.625"/>
    <polyline points="550.875,506.625 558.625,505.625 566.0,504.25"/>
    <polyline points="567.0,504.0 574.375,502.5 586.75,499.25 596.125,496.25 609.25,491.125"/>
    <polyline points="611.75,490.125 622.0,485.125 633.25,478.75 642.0,472.875 650.75,466.125 658.875,458.625 661.25,456.125 665.25,451.0 666.875,448.625 668.75,444.375 669.0,442.5 668.75,441.125"/>
    <polyline points="668.0,440.0 666.5,439.375 664.5,439.25 661.875,439.625 658.75,440.625 655.0,442.0 650.875,444.0 641.375,449.25 636.25,452.375 620.25,463.25 578.625,493.375 565.5,501.75"/>
    <polyline points="562.625,503.25 555.125,507.125 543.375,511.375 536.125,512.875 529.5,513.5 525.25,513.5"/>
    <line x1="524.5" x2="512.875" y1="513.5" y2="512.875"/>
    <line x1="512.5" x2="506.25" y1="512.875" y2="512.5"/>
    <line x1="506.0" x2="498.25" y1="512.5" y2="512.5"/>
    <line x1="497.875" x2="483.625" y1="512.5" y2="512.125"/>
    <polyline points="482.875,512.125 470.25,511.375 453.25,509.375"/>
    <polyline points="451.5,509.125 437.5,506.5 430.375,504.75 422.375,502.5 413.375,499.5 403.0,495.5 395.375,492.0 387.0,487.75 377.75,482.5"/>
    <polyline points="372.75,479.5 356.375,468.0 350.375,463.25 337.75,452.25 324.5,438.875 317.75,431.25 311.25,423.0 304.875,414.25 299.125,405.25 294.0,396.0 290.125,387.0 287.625,378.5 286.875,371.0 288.25,365.125 292.0,361.25 297.875,359.875 306.125,361.125 316.125,365.0 327.625,371.5 340.125,380.125 353.0,390.5 365.875,401.75"/>
    <polyline points="378.25,413.75 390.125,425.75 411.125,448.375 448.625,490.25 454.125,496.0 463.625,505.125 467.875,508.75 475.25,514.25 478.625,516.5 484.875,519.75 490.5,521.875 495.75,523.25 500.625,524.125 505.25,524.5"/>
    <polyline points="507.5,524.625 522.375,524.25 560.0,520.875"/>
    <polyline points="562.25,520.625 604.5,517.0 635.875,513.625"/>
    <polyline points="639.875,513.0 648.375,511.875 662.25,509.375 678.125,505.625 684.0,504.0 696.75,499.75 711.625,493.5 720.125,489.375 729.375,484.125 739.75,477.75 751.375,469.75 764.375,459.75 779.125,447.125 795.625,431.375 814.125,411.5 834.0,387.25 854.25,358.375 872.125,325.875 883.625,292.75"/>
    <polyline points="882.75,264.875 864.125,250.125 826.5,255.375 774.25,282.25 717.0,325.875 663.75,377.5 620.125,429.75 588.0,478.0 567.125,520.25 555.875,556.25 552.625,586.5 555.625,611.625 563.625,631.875 575.0,647.5 588.5,658.25 602.875,664.25 616.625,665.5 629.125,662.0 639.5,654.5 647.375,643.75 652.875,630.5 656.125,615.875 657.5,600.75 657.375,585.75 656.25,571.5 654.25,558.375"/>
    <polyline points="651.875,546.375 649.125,535.75 646.25,526.375 643.375,518.375 637.5,505.625 631.875,496.75 629.125,493.5 626.375,491.0 621.125,487.375 616.125,485.625 611.25,484.875 606.625,485.125 600.0,486.5 593.875,488.375 590.25,489.875"/>
    <polyline points="588.5,490.625 573.125,497.5 567.0,500.625 566.75,501.125 570.125,501.0 578.75,499.125"/>
    <polyline points="579.875,498.75 588.375,496.375 602.625,491.25 612.125,487.0 620.375,482.625"/>
    <polyline points="622.625,481.5 631.375,476.0 637.875,471.25 645.75,464.5 650.25,459.375 652.375,456.375 653.0,455.0 653.375,453.75 653.125,451.875 652.5,451.25 650.25,450.875 646.5,451.625"/>
    <polyline points="644.125,452.5 641.5,453.5 635.5,456.5 625.0,462.625 586.5,488.375 575.75,495.125 566.875,500.0"/>
    <polyline points="565.0,501.0 554.25,505.625 547.375,507.75 542.0,508.875"/>
    <polyline points="541.75,508.875 541.125,509.0 546.625,508.25"/>
    <polyline points="547.125,508.25 557.375,506.75 571.875,504.0"/>
    <polyline points="573.25,503.625 586.75,500.25 599.125,496.25 613.75,490.375 628.0,483.375"/>
    <polyline points="631.125,481.625 640.625,475.75 647.125,471.125 656.875,463.375 660.0,460.5 668.375,451.75 670.625,448.75 674.125,443.125 675.125,440.75 675.625,438.5 675.375,436.625 674.625,435.25 673.0,434.5 670.75,434.25 667.75,434.625 664.125,435.625 654.875,439.75"/>
    <polyline points="649.625,442.625 643.875,446.0 625.75,458.25 587.125,487.375 570.5,499.125 563.75,503.375 555.0,508.125 547.625,511.375 543.375,512.75"/>
    <polyline points="541.5,513.375 534.625,514.875 530.25,515.375 524.125,515.625 512.375,514.875"/>
    <line x1="511.625" x2="495.125" y1="514.875" y2="513.625"/>
    <line x1="494.375" x2="472.25" y1="513.625" y2="512.125"/>
    <polyline points="471.0,512.0 457.0,510.5 448.125,509.125 437.75,507.125 425.25,503.875"/>
    <polyline points="422.5,503.125 413.375,500.125 403.0,496.125 386.75,488.375 372.375,480.0 361.5,472.75 355.625,468.375 343.25,458.25 336.75,452.375 330.0,445.875 323.125,438.625 316.25,430.75 309.5,422.375 303.0,413.375 297.0,404.0"/>
    <polyline points="291.875,394.5 287.875,385.125 285.375,376.375 284.625,368.75 286.25,362.75 290.125,358.875 296.5,357.5 305.125,359.0 315.625,363.375 327.625,370.375 340.625,379.5 353.875,390.25 367.125,402.125 379.875,414.5 402.875,438.75 450.375,492.25 460.625,502.75 469.25,510.5"/>
    <polyline points="473.125,513.5 479.875,518.0 486.0,521.125 491.625,523.25 499.125,525.0 508.375,525.75 512.75,525.75 533.5,524.375"/>
    <polyline points="535.625,524.125 565.75,521.625 593.75,520.0"/>
    <polyline points="596.5,519.875 608.375,519.375 627.625,519.125 645.0,520.0 655.625,521.5 662.25,523.375 665.5,524.75 668.375,526.375 671.0,528.5 673.25,531.125 674.875,534.5"/>
    <polyline points="675.625,538.75 675.375,544.25 673.625,551.25 670.0,560.125 663.5,571.5 653.375,586.125 638.25,604.625 616.625,628.0 586.25,656.75 545.375,690.5 492.875,727.25 430.25,762.375 362.875,787.75 299.875,794.75 251.0,778.5 220.875,741.375 207.75,691.25 205.875,636.75 209.375,584.125 218.625,494.125 221.875,457.375 224.25,425.625 226.75,398.5 230.625,376.125 236.75,359.0"/>
    <polyline points="245.875,347.375 258.5,341.875 274.25,342.625 292.625,349.125 312.375,360.625 332.5,375.625 351.875,392.75 370.0,410.875 386.25,428.75 400.5,445.75 412.875,461.375 423.375,475.375 456.0,521.375 463.375,530.75 469.125,536.875 471.625,538.875 476.125,541.625 480.125,542.75"/>
    <polyline points="482.0,543.0 485.75,542.875 489.375,542.375 509.625,536.75 520.875,534.375 528.375,533.25"/>
    <polyline points="530.375,533.0 541.75,532.125 551.375,532.125 557.25,532.5 562.875,533.25 568.375,534.375 572.0,535.5 576.75,537.875"/>
    <polyline points="578.125,538.875 580.625,541.375 581.625,542.875 582.5,544.625 583.25,548.75 583.25,551.25 581.75,557.25 578.125,565.0 571.375,574.75 566.5,580.625 560.375,587.0 553.125,594.125 544.25,601.875 533.875,610.0 521.875,618.5 508.25,627.125 493.125,635.25 477.0,642.625 460.125,648.5 443.25,652.375 427.0,653.75"/>
    <polyline points="412.125,652.25 399.375,647.75 388.875,640.375 381.0,630.75 375.75,619.25 372.625,606.625 371.5,593.5 371.875,580.375 373.25,567.75 375.5,556.0 378.25,545.125 384.25,526.625 390.375,512.375 398.625,497.625 405.375,488.75 410.625,484.0 413.5,482.125"/>
    <polyline points="414.75,481.5 416.875,480.75 419.25,480.375 421.375,480.625 421.625,481.0 420.25,481.125 416.375,480.125"/>
    <polyline points="415.5,479.875 410.0,477.875 402.875,474.5 394.375,469.625 384.875,463.0 374.875,454.5"/>
    <polyline points="373.0,452.75 367.75,447.0 364.75,443.25 362.5,439.625 361.625,438.0 360.75,435.125 360.75,432.875 361.25,432.125 362.0,431.625 364.5,431.375 370.125,433.25 377.75,437.375 386.625,443.5"/>
    <polyline points="389.75,445.75 402.125,455.5 427.5,476.625 443.375,489.375"/>
    <polyline points="444.125,490.125 447.875,493.875 448.25,494.875 448.0,495.625 447.125,496.125 445.625,496.375 440.75,496.125"/>
    <polyline points="439.75,496.0 430.25,494.125 421.25,491.375 414.625,489.0 401.75,483.25 386.125,474.5"/>
    <polyline points="382.625,472.25 371.5,464.25 363.625,458.0 351.625,446.625 343.875,438.125 336.75,428.875 331.0,419.75 328.875,415.25 327.375,411.125 326.625,407.375 326.75,404.25 327.625,401.75 329.5,400.125 332.25,399.375 336.0,399.75 340.5,401.0 345.75,403.25 351.625,406.5"/>
    <polyline points="358.0,410.625 364.75,415.375 378.625,426.25 398.75,444.125 436.125,478.75 444.25,485.5 451.25,491.0 460.5,497.375 465.75,500.5 472.75,504.0"/>
    <polyline points="474.875,504.875 480.625,507.0 488.5,509.25 496.125,510.625 506.375,511.625"/>
    <polyline points="507.125,511.625 513.25,511.875 522.5,511.625"/>
    <line x1="523.125" x2="539.75" y1="511.625" y2="510.25"/>
    <polyline points="540.5,510.125 554.5,508.375 569.5,505.625"/>
    <polyline points="571.125,505.375 585.625,501.875 601.25,497.0 614.75,491.75 630.25,484.125"/>
    <polyline points="633.625,482.25 647.75,473.375 655.25,467.875 662.625,461.75 669.75,455.0 676.125,448.0 681.0,441.0 682.875,437.625 684.0,434.625 684.375,432.0 684.0,429.875 682.75,428.375 680.625,427.5 677.625,427.5 673.625,428.25 668.875,429.875 663.25,432.375 657.125,435.75"/>
    <polyline points="650.5,439.625 636.375,449.125 629.125,454.375 608.25,470.375 579.75,493.0 566.625,502.5 559.25,507.25 550.0,512.25 542.375,515.375 535.875,517.25"/>
    <polyline points="534.0,517.625 528.625,518.375 522.5,518.625 514.625,518.25 501.625,516.75"/>
    <line x1="500.625" x2="473.75" y1="516.75" y2="514.0"/>
    <polyline points="472.375,513.875 459.125,512.375 450.125,511.0 434.875,508.0 424.25,505.25"/>
    <polyline points="421.375,504.375 411.875,501.25 401.0,497.125 392.875,493.5 384.0,489.0 368.75,480.0 357.375,472.125 344.625,462.25 330.875,449.875 323.625,442.625 309.0,426.0 301.875,416.625 295.0,406.75 288.875,396.375"/>
    <polyline points="283.875,386.0 280.25,376.0 278.5,367.0 279.125,359.375 282.25,354.0 288.125,351.375 296.625,351.75 307.5,355.5 320.125,362.25 334.0,371.625 348.375,383.125 362.75,395.875 376.625,409.375 389.625,422.875 412.375,448.25 451.625,494.25 462.0,505.5 466.5,509.875 474.375,516.75"/>
    <polyline points="477.875,519.25 484.25,523.125 489.875,525.75 497.625,527.875 500.0,528.25 506.875,528.75 513.375,528.75 536.125,527.0"/>
    <polyline points="538.125,526.875 559.25,525.625 575.125,525.5 584.5,526.0 594.125,527.125"/>
    <polyline points="596.625,527.5 605.875,530.125 610.0,532.25 611.875,533.625 613.625,535.125 616.375,539.125 617.25,541.75 617.625,544.75 617.375,548.375 616.625,552.625 614.875,557.625 612.0,563.5 607.875,570.5 602.0,578.875 594.0,588.5 583.625,599.875 570.25,612.75 553.5,627.375 533.0,643.375 508.375,660.0 480.375,676.125"/>
    <polyline points="449.5,690.25 417.75,700.25 387.25,704.375 360.25,701.125 338.625,690.25 323.375,672.875 314.125,650.875 309.875,626.25 309.375,601.0 311.125,576.625 314.25,554.0 321.625,515.625 328.5,486.625 334.25,465.5 336.875,457.375 339.5,450.625 342.0,445.25 344.75,441.0 347.5,437.75 350.5,435.375 353.75,433.875 357.125,433.25 360.75,433.25"/>
    <polyline points="364.625,433.875 368.625,435.0 377.0,438.75 385.5,443.75 394.0,449.5 406.125,458.625 434.75,481.125 447.375,490.125"/>
    <polyline points="449.125,491.25 462.875,500.375 464.375,502.125 464.25,502.75 463.875,503.0"/>
    <polyline points="463.625,503.125 461.5,503.625 454.25,503.5 445.5,502.375 439.0,501.125"/>
    <polyline points="437.125,500.75 424.625,497.375 417.125,494.875 408.5,491.5 398.75,487.125 387.75,481.25 375.375,473.5 366.125,467.0 356.375,459.125"/>
    <polyline points="351.375,454.75 341.0,444.75 330.75,433.25 325.875,427.125 321.25,420.625 317.125,414.125 313.625,407.625 310.875,401.375 309.125,395.5 308.5,390.375 309.25,386.25 311.375,383.375 315.0,381.875 320.125,381.875 326.5,383.625 334.0,387.0 342.375,391.875 351.375,398.125 360.75,405.25 370.125,413.125 388.5,429.875 405.375,446.5"/>
    <polyline points="413.0,454.125 432.75,474.125 443.5,484.5 457.0,496.25 464.5,501.75 474.125,507.625 482.5,511.375 487.375,513.0 494.25,514.625 502.25,515.625"/>
    <polyline points="504.125,515.875 518.0,516.0 522.875,515.75 545.0,513.75"/>
    <polyline points="546.625,513.5 558.875,511.875 572.75,509.5 589.125,506.0 600.0,503.0"/>
    <polyline points="602.875,502.125 615.75,497.875 622.875,495.125 634.625,489.875 652.5,480.125 662.625,473.625 667.875,469.875 678.875,461.25 684.5,456.375 695.75,445.375 701.125,439.375 706.125,433.125 710.625,426.75 714.375,420.375"/>
    <polyline points="717.0,414.375 718.375,409.0 718.0,404.5 715.875,401.375 711.875,399.75 705.75,400.125 697.75,402.375 688.125,406.625 677.25,412.75 665.5,420.5 653.375,429.25 629.375,448.75 607.75,468.25 562.5,511.0 548.75,522.5 541.75,527.25"/>
    <polyline points="538.625,529.0 535.75,530.5 528.375,533.0 524.0,533.625 520.125,533.75 516.375,533.5 509.5,532.375 492.0,528.375"/>
    <polyline points="490.5,528.0 480.875,526.125 466.875,524.0 443.875,521.0"/>
    <polyline points="441.375,520.625 428.0,518.375 408.375,513.875 392.125,508.75 382.75,505.0 377.5,502.75 366.25,497.25 353.25,489.875 338.375,480.0 330.125,473.75"/>
    <polyline points="321.125,466.625 311.5,458.25 301.25,448.375 290.375,437.125 278.875,424.0 267.125,409.25 255.5,392.625 244.625,374.375 235.25,355.375 228.625,336.375 226.125,319.125 229.0,305.5 238.0,297.5 253.25,296.875 273.875,304.0 298.0,318.625 323.625,338.75 348.875,362.5 372.25,387.5 392.875,412.375 410.5,435.625 425.125,456.75 437.0,475.375 446.5,491.5 454.125,505.25 460.0,516.75"/>
    <polyline points="464.5,526.5 470.625,540.875 476.875,559.25 477.625,560.5 478.125,560.5 479.0,559.875 483.5,554.375 487.0,550.875 491.0,547.625"/>
    <polyline points="492.5,546.5 500.5,541.875 511.0,537.75 520.125,535.375 525.75,534.375 537.0,533.25"/>
    <polyline points="538.875,533.125 546.375,532.875 555.875,533.375 563.125,534.5 568.375,536.0 571.625,537.375 575.875,540.25 578.125,542.75 579.625,546.125"/>
    <polyline points="580.0,548.125 579.75,552.875 579.125,555.75 578.0,559.0 576.25,562.75 573.875,566.875 570.75,571.5 561.625,582.375 555.375,588.75 548.0,595.625 539.125,603.0 528.875,610.75 517.0,618.625 503.875,626.5 489.5,633.875 474.125,640.375 458.375,645.375 442.75,648.375 427.75,649.125 414.25,647.25 402.5,642.625 393.125,635.5 386.0,626.25 381.125,615.5"/>
    <polyline points="378.375,603.625 377.25,591.5 377.625,579.25 379.0,567.625 381.125,556.5 383.75,546.375 386.625,537.125 389.625,529.0 395.75,515.375 398.625,510.0 401.375,505.25 406.375,497.875 410.75,492.75 416.25,488.0 420.375,485.625 424.25,484.375"/>
    <polyline points="424.875,484.375 426.75,484.375 427.125,484.75 424.75,484.75 421.75,484.125 415.125,482.0"/>
    <polyline points="413.75,481.375 405.875,478.0 398.25,474.0 387.25,467.0 377.75,459.875 372.875,455.625 368.125,451.125 361.625,444.0"/>
    <polyline points="359.75,441.5 356.5,436.75 353.5,430.375 353.125,427.25 353.625,426.0 354.375,425.125 355.5,424.625 359.125,424.75 361.5,425.5 367.125,428.0 370.375,429.875 377.375,434.375 388.875,442.75 404.0,455.125"/>
    <polyline points="407.625,458.25 434.0,480.25 442.25,486.625 456.875,497.0"/>
    <polyline points="457.5,497.5 459.625,499.5 460.0,500.125 459.75,501.125 459.25,501.5 457.5,501.875 452.125,501.75"/>
    <polyline points="451.125,501.75 439.375,500.0 426.125,496.625 413.875,492.375 408.125,490.125 402.0,487.25"/>
    <polyline points="398.75,485.75 384.25,477.625 376.125,472.375 367.25,466.125 358.0,458.625 348.375,449.875 343.375,445.0 333.75,434.25 325.0,422.5 321.125,416.5 317.875,410.5 315.25,404.625 313.625,399.25 313.0,394.625 313.625,390.75 315.375,387.875 318.625,386.375"/>
    <polyline points="323.0,386.25 328.75,387.625 335.5,390.375 343.0,394.625 351.25,400.0 359.875,406.375 368.625,413.375 386.0,428.75 402.125,444.25 434.5,476.25 444.5,485.5 453.25,492.875 460.75,498.625 467.375,503.0 473.375,506.375"/>
    <polyline points="476.125,507.625 486.0,511.375 494.375,513.375 506.875,514.625 521.75,514.375"/>
    <polyline points="523.25,514.375 539.875,513.0 560.0,510.25"/>
    <polyline points="561.75,510.0 579.375,506.625 598.875,501.5 613.75,496.375 623.875,492.125"/>
    <polyline points="627.625,490.5 639.25,484.625 647.875,479.625 652.375,476.875 666.5,466.75 676.375,458.625 681.25,454.125 690.75,444.25 695.125,439.0 699.0,433.75 702.375,428.5 704.75,423.5 706.25,418.875 706.5,414.875 705.375,411.875 702.75,410.0 698.625,409.5 692.875,410.5 685.75,413.0"/>
    <polyline points="677.375,416.875 668.125,422.25 658.125,428.75 647.875,436.125 637.625,444.0 617.875,460.25 572.375,500.5 557.5,512.75 553.375,515.75 546.125,520.375 539.875,523.625 534.5,525.75 527.5,527.375"/>
    <polyline points="525.375,527.625 521.375,527.875 512.5,527.25 485.0,522.5"/>
    <polyline points="483.5,522.25 451.5,517.75 435.0,514.875"/>
    <polyline points="432.25,514.25 423.5,512.375 413.75,509.75 398.625,504.625 385.125,499.0 374.75,493.875 363.125,487.25 356.75,483.25 342.75,473.375 327.0,460.5 318.375,452.625 309.25,443.75 299.875,433.5"/>
    <polyline points="290.125,422.125 280.5,409.5 271.125,395.75 262.75,381.125 255.75,366.25 251.0,351.75 249.375,338.75 251.625,328.5 258.25,322.25 269.375,321.0 284.375,325.25 302.5,334.75 322.25,348.75 342.625,365.875 362.25,385.0 380.5,404.5 397.0,423.625 411.375,441.625 434.375,472.625 470.875,525.875"/>
    <polyline points="474.25,530.5 482.125,539.5 486.25,542.75 491.5,545.0 494.75,545.5 499.375,545.25 517.875,541.375"/>
    <polyline points="519.5,541.125 522.625,540.625 532.125,540.0 541.125,540.625 545.375,541.625 549.125,543.0 552.5,545.125 554.25,546.875"/>
    <polyline points="554.875,548.0 555.5,549.125 556.125,551.875 556.0,555.25 555.5,557.25 553.75,561.625 550.625,567.0 548.375,570.0 542.5,576.625 534.25,584.125 529.25,588.125 523.625,592.25 510.5,600.5 503.0,604.5 495.125,608.0 486.875,611.25 478.5,613.75 470.0,615.5 461.75,616.375"/>
    <polyline points="453.875,616.25 446.625,615.0 440.125,612.625 434.625,609.375 429.875,605.125 426.25,600.0 423.625,594.375 422.0,588.25 421.125,581.875 421.125,575.5 421.75,569.0 422.875,562.875 424.375,556.875 428.375,546.125 430.75,541.375 435.75,533.125 438.25,529.625 443.25,523.625 448.125,519.125 454.875,514.25"/>
    <polyline points="457.0,513.125 464.375,509.875 471.75,508.125 479.625,507.75 483.75,508.375"/>
    <polyline points="484.125,508.375 484.875,508.625 485.25,509.125 483.25,509.75 480.5,509.875"/>
    <polyline points="453.375,508.0 440.75,505.75 431.875,503.75 418.75,499.875 409.5,496.5 398.875,492.0 386.875,485.875"/>
    <polyline points="382.375,483.375 372.875,477.625 367.875,474.25 357.0,466.25 351.25,461.625 339.25,451.0 326.625,438.125 320.375,430.875 314.25,423.125 308.375,415.0 303.0,406.5 298.5,398.0 295.0,389.75 292.875,382.125 292.375,375.375 293.75,370.125 297.25,366.625 302.75,365.375 310.125,366.5 319.375,370.0 329.875,375.875 341.375,383.625"/>
    <polyline points="353.25,392.875 365.25,403.125 377.0,414.125 388.125,425.125 408.375,446.375 445.375,486.625 450.875,492.25 460.625,501.375 468.875,508.125 472.5,510.75 479.25,514.875 488.0,518.75 493.375,520.375 498.25,521.25"/>
    <polyline points="500.625,521.625 509.625,522.25 520.0,522.0 532.0,521.125 552.125,519.0"/>
    <polyline points="554.25,518.875 590.75,514.25 609.375,511.0 623.875,507.75"/>
    <polyline points="627.75,506.75 636.25,504.375 645.5,501.25 650.5,499.5 661.375,495.0 673.5,489.125 687.5,481.375 703.5,470.625 712.375,464.0 722.0,456.125 732.25,447.0 743.0,436.5 754.125,424.375 765.25,410.75 775.875,395.75 785.125,380.0 791.75,364.25 794.25,350.0 791.25,339.25 781.625,333.75"/>
    <polyline points="765.125,335.125 742.625,344.25 715.875,360.125 687.625,381.5 660.0,405.75 634.625,431.125 612.75,455.625 594.5,478.375 579.875,498.75 568.5,516.375 560.0,531.5 553.875,544.25 549.625,554.75 547.125,563.25 545.75,570.125 545.25,575.5 545.5,579.5 546.25,582.375 547.25,584.25 548.5,585.25 549.75,585.375 551.0,584.875 553.125,582.25 554.375,577.875"/>
    <polyline points="554.75,575.375 554.875,572.625 554.375,566.875 553.125,561.0 550.125,552.625 547.5,547.625 543.25,541.125 538.75,535.875 534.125,531.625 528.25,527.375 525.25,525.625 510.5,526.375 503.75,526.125 496.625,525.125 488.75,522.875 482.875,520.25 476.375,516.25 472.75,513.625 464.75,506.875 455.25,497.5"/>
    <polyline points="524.0,525.0 517.375,522.125 510.25,519.875 502.5,518.125 495.0,517.0"/>
    <line x1="494.0" x2="462.5" y1="516.875" y2="513.375"/>
    <polyline points="460.875,513.125 446.0,510.875 434.625,508.5 423.875,505.75 407.875,500.5 396.375,495.75"/>
    <polyline points="392.125,493.75 383.125,489.25 367.625,480.125 349.625,467.25 336.125,455.875 329.0,449.125 314.0,433.375 306.5,424.375 299.25,414.75 292.25,404.5 286.125,393.75 281.125,383.125 277.625,372.875 276.25,363.75 277.125,356.25 280.875,351.125 287.5,348.875 296.75,350.0 308.375,354.375"/>
    <polyline points="321.75,362.0 336.25,372.25 351.125,384.5 365.75,398.0 379.75,411.875 392.75,425.75 404.75,439.125 453.875,497.0 459.125,502.875 468.375,512.25 476.0,518.75 482.5,523.25 488.375,526.25 491.0,527.25 498.5,529.25"/>
    <polyline points="500.875,529.5 507.625,530.0 514.0,529.875 542.625,527.625 553.125,527.125"/>
    <polyline points="555.25,527.125 566.0,527.0 574.875,527.375 579.5,527.75 588.375,529.125 592.75,530.25 597.0,531.75 600.875,533.875 604.125,536.625 605.5,538.25 606.625,540.25"/>
    <polyline points="607.5,542.625 607.875,545.375 607.875,548.5 607.25,552.25 605.875,556.625 603.625,561.75 600.25,567.625 595.625,574.625 589.375,582.625 581.25,592.0 570.75,602.5 557.75,614.375 541.75,627.5 522.625,641.375 500.5,655.375 475.625,668.625 449.0,679.75 421.875,687.25 396.0,689.875 373.125,686.5 354.625,677.25 341.0,662.875 332.25,644.5 327.875,623.875 326.625,602.375 327.75,581.375"/>
    <polyline points="330.25,561.625 333.5,543.5 337.125,527.375 344.0,501.0 347.125,490.5 352.75,474.0 355.25,467.625 360.0,458.125 362.25,454.75 364.5,452.125 366.75,450.125 369.125,448.625 371.375,447.75 373.875,447.25 376.25,447.125 378.75,447.5 384.0,448.875 389.25,451.25 397.125,455.75"/>
    <polyline points="399.75,457.5 411.75,466.0 423.375,475.125 434.625,484.5 437.75,487.75"/>
    <polyline points="438.125,488.25 438.5,488.625 438.875,490.125 438.125,491.0 437.25,491.25 433.0,491.125 427.5,490.0 423.25,488.75"/>
    <polyline points="421.75,488.25 414.625,485.75 403.75,480.875 396.125,476.875 384.625,469.875 375.25,463.0 368.75,457.625 362.125,451.625 355.75,445.125"/>
    <polyline points="352.625,441.625 347.0,434.5 344.5,430.875 340.625,424.0 339.375,420.875 338.5,418.0 338.25,415.375 338.75,413.375 339.75,411.875 341.5,410.875 343.875,410.625 346.875,411.125 350.5,412.25 359.125,416.5 364.125,419.625 374.625,427.125 385.625,435.75 406.75,454.0"/>
    <polyline points="411.5,458.375 428.625,473.5 445.25,487.0 455.5,494.125 461.75,497.875 468.625,501.5 475.125,504.375"/>
    <polyline points="476.25,504.75 484.75,507.875 486.875,509.0 486.875,509.375 485.75,509.875 484.0,510.125 475.625,510.125"/>
    <polyline points="474.75,510.125 465.625,509.625 456.25,508.625 440.375,505.875"/>
    <polyline points="438.25,505.375 429.0,503.125 418.125,499.875 405.25,495.0 398.0,491.875 390.0,487.875 376.5,480.25 366.5,473.625 355.5,465.375 343.625,455.375"/>
    <polyline points="337.375,449.625 324.625,436.375 312.25,421.0 306.375,412.625 301.25,404.125 296.875,395.5 293.625,387.25 291.75,379.75 291.75,373.25 293.625,368.25 297.625,365.25 303.75,364.625 311.75,366.375 321.5,370.625 332.5,377.0 344.25,385.375 356.375,395.125 368.375,405.75 380.125,416.875 391.25,428.0 401.5,438.875 427.75,467.5"/>
    <polyline points="435.0,475.375 447.375,488.625 457.625,498.875 462.125,502.875 470.25,509.375 477.25,514.0 486.375,518.5 494.375,520.875 501.625,522.125 506.125,522.5 516.875,522.5"/>
    <polyline points="518.875,522.375 540.875,520.625 571.375,517.25"/>
    <polyline points="573.75,517.0 586.75,515.375 604.625,512.625 622.125,509.125 643.25,503.375 658.5,497.875 664.125,495.5"/>
    <polyline points="670.125,492.625 676.625,489.5 683.5,485.75 690.875,481.5 698.875,476.375 707.5,470.375 716.75,463.375 726.75,455.25 737.375,445.625 748.75,434.375 760.5,421.5 772.25,406.875 783.5,390.75 793.0,373.75 799.625,357.0 801.375,342.125 796.875,331.375 785.0,326.875 765.5,330.375 740.0,342.125 710.75,361.125 680.5,385.375 651.75,412.0 626.25,439.0 604.625,464.75 587.25,488.0"/>
    <polyline points="573.625,508.625 563.5,526.25 556.25,541.25 551.375,553.75 548.5,564.0 547.125,572.25 546.875,578.75 547.5,583.625 548.75,587.25 550.375,589.625 552.25,590.875 554.125,591.25 556.0,590.75 557.75,589.625 559.25,587.75 561.375,582.625 562.0,579.625 562.25,572.875 561.625,565.875 560.0,559.125 557.75,552.625"/>
    <polyline points="556.375,549.625 553.625,544.25 550.5,539.5 545.75,533.625 542.625,530.5 536.5,525.625 531.0,522.375 526.0,520.125 521.5,518.5"/>
    <polyline points="520.375,518.125 511.125,516.0 499.75,514.625"/>
    <line x1="499.0" x2="477.5" y1="514.5" y2="512.875"/>
    <polyline points="476.375,512.875 459.25,511.125 446.875,509.25 436.125,507.0"/>
    <polyline points="433.75,506.5 420.375,502.75 403.875,496.875 387.75,489.375 378.5,484.25 362.75,474.0 356.875,469.875 350.875,465.125 338.0,454.125 324.25,440.5"/>
    <polyline points="317.375,432.75 310.375,424.375 303.75,415.375 297.5,406.0 292.0,396.375 287.5,386.75 284.625,377.625 283.375,369.5 284.375,362.875 287.75,358.25 293.75,356.375 302.0,357.125 312.25,361.0 324.25,367.5 337.25,376.375 350.75,387.125 364.25,399.125 377.25,411.625 389.5,424.25 411.375,448.0 449.75,491.75"/>
    <polyline points="527.25,525.375 561.125,522.625 582.75,521.5"/>
    <polyline points="585.25,521.375 596.0,521.125 616.5,521.375 625.75,522.125 635.0,523.625 640.875,525.25 643.75,526.375 648.75,529.5 650.875,531.625 652.75,534.125 654.0,537.375"/>
    <polyline points="654.5,541.25 654.25,546.125 652.75,552.125 649.625,559.625 644.5,569.0 636.75,580.5 625.5,594.875 609.75,612.5 588.125,633.625 559.625,658.5 523.125,686.125 478.625,714.625 427.875,740.125 375.0,757.25 326.0,760.875 287.0,748.375 260.875,721.0 247.375,683.375 243.25,641.25 244.625,599.125 248.5,559.875 263.0,444.0 265.75,424.375"/>
    <polyline points="268.875,408.25 273.0,395.25 278.375,385.5 285.5,379.25 294.25,376.375 304.5,376.75 316.25,380.25 328.75,386.375 341.75,394.5 354.875,404.25 367.625,415.0 379.75,426.125 391.125,437.125 411.125,457.75 440.875,489.375 451.75,500.125 460.875,508.125 472.25,516.125"/>
    <polyline points="475.5,517.875 481.625,520.625 487.25,522.375 489.875,523.0 499.625,524.25 512.875,524.125 533.25,522.375"/>
    <line x1="535.25" x2="593.25" y1="522.125" y2="516.0"/>
    <polyline points="596.125,515.625 615.375,512.875 634.5,509.125 652.75,504.375 669.125,498.75 681.75,493.25 696.375,485.625 704.625,480.875 713.5,475.0 723.25,468.0"/>
    <polyline points="734.0,459.75 745.625,449.75 758.25,437.75 771.75,423.625 785.875,407.125 799.75,388.25 812.5,367.625 822.125,346.375 826.25,326.5 822.5,311.375 808.75,304.375 784.875,308.125 752.625,323.25 716.0,348.125 679.0,379.375 645.125,413.125 616.5,446.375 593.5,477.25 576.375,504.5 564.125,528.0 556.25,548.0 552.0,564.625 550.5,578.25 551.125,589.25 553.375,597.875 556.875,604.25"/>
    <polyline points="561.125,608.75 565.625,611.375 570.25,612.25 574.625,611.625 578.625,609.625 582.125,606.375 585.0,602.25 587.125,597.375 588.625,592.0 589.5,586.125 589.875,580.25 589.625,574.25 589.0,568.375 588.125,562.75 585.375,552.25 581.875,543.25 578.25,535.625 574.375,529.5 570.75,524.625 567.125,520.875"/>
    <polyline points="565.5,519.25 559.5,514.625 555.625,512.5 550.625,510.5 543.25,508.75 549.875,507.625"/>
    <polyline points="550.5,507.625 563.0,505.625 577.875,502.375"/>
    <polyline points="579.5,502.0 590.25,499.0 598.625,496.25 613.0,490.5 624.0,485.25 639.25,476.25"/>
    <polyline points="642.375,474.125 648.875,469.5 658.25,461.625 664.0,455.875 668.875,450.125 672.5,444.625 673.625,442.25 674.25,440.0 674.25,438.125 673.625,436.625 672.375,435.625 670.375,435.25 667.625,435.375 660.375,437.625 650.75,442.375 639.625,449.0 633.75,452.875"/>
    <polyline points="627.75,457.0 584.875,489.0 569.125,499.875 562.625,503.875 556.875,507.0 551.75,509.375 545.125,512.0 537.875,513.875"/>
    <polyline points="536.25,514.125 528.125,515.125 520.75,515.125 511.5,514.375"/>
    <line x1="510.875" x2="496.0" y1="514.375" y2="513.375"/>
    <line x1="495.375" x2="475.0" y1="513.375" y2="512.125"/>
    <polyline points="473.875,512.125 461.0,510.875 451.125,509.5 443.375,508.125 432.125,505.625"/>
    <polyline points="429.625,505.0 415.375,500.625 401.75,495.375 389.625,489.75 370.625,478.75 353.875,466.75 341.375,456.25 328.0,443.5 314.375,428.125"/>
  </g>
</svg>
