<?xml version="1.0" encoding="utf-8" ?>
<svg xmlns="http://www.w3.org/2000/svg" xmlns:cc="http://creativecommons.org/ns" xmlns:dc="http://purl.org/dc/elements/1.1/" xmlns:ev="http://www.w3.org/2001/xml-events" xmlns:inkscape="http://www.inkscape.org/namespaces/inkscape" xmlns:rdf="http://www.w3.org/1999/02/22-rdf-syntax-ns" xmlns:sodipodi="http://sodipodi.sourceforge.net/DTD/sodipodi-0.dtd" xmlns:xlink="http://www.w3.org/1999/xlink" baseProfile="tiny" height="27.09333333cm" version="1.2" viewBox="0 0 1024.0 1024.0" width="27.09333333cm">
  <metadata>
    <rdf:RDF>
      <cc:Work>
        <dc:format>image/svg+xml</dc:format>
        <dc:source>vpype read './original_svgs/Strange Attractors #513.svg' linemerge linesimplify write './Strange Attractors #513.svg'
</dc:source>
        <dc:date>2024-08-05T01:36:07.212201</dc:date>
      </cc:Work>
    </rdf:RDF>
  </metadata>
  <defs/>
  <g fill="none" id="layer1" inkscape:groupmode="layer" inkscape:label="1" stroke="black" style="display:inline">
    <line x1="0.0" x2="119.06" y1="74.1177" y2="0.0"/>
    <polyline points="1024.0,975.5789 966.367,963.0629 908.2166,949.9922 849.6446,936.3888 790.3517,922.182 730.4387,907.3934 670.0131,892.0504 608.8317,876.0915 547.039,859.5555 422.9266,825.142 293.5596,787.7071 157.9317,746.9862 0.0,698.1635"/>
    <polyline points="1024.0,629.9994 987.7042,612.5253 950.9108,594.3795 874.3576,555.3563 805.6844,519.0982 648.8908,434.6746 600.2616,409.1979 556.9168,387.1211 508.7731,363.5448 464.0498,342.7785 421.7243,324.3543 381.5278,308.1481 357.2913,299.0535 333.4428,290.6398 309.943,282.8952 286.7553,275.8076 263.8463,269.3639 240.8563,263.4707 218.083,258.2099 195.5,253.5673 171.6841,249.2689 147.7192,245.5272 123.5418,242.334 99.4592,239.7205 74.7879,237.6143 50.1712,236.0718 25.2543,235.0601 0.0,234.5783"/>
    <line x1="0.0" x2="45.0427" y1="29.0251" y2="0.0"/>
    <polyline points="1024.0,893.0998 928.5292,871.3717 830.9406,848.0997 730.7819,823.1804 626.1928,796.1514 538.2584,772.7335 443.3984,746.888 119.1041,656.4304 0.0,623.864"/>
    <polyline points="0.0,381.2081 77.6386,367.3935 152.9437,355.1216 225.836,344.4128 296.4029,335.2539 365.0472,327.5954 431.5672,321.4561 496.6055,316.7719 560.2236,313.5386 621.6904,311.7835 681.5455,311.4712 740.275,312.6019 797.948,315.1858 854.2953,319.1946 909.8189,324.6363 963.6373,331.3564 1024.0,340.4064 967.7878,332.3039 911.7405,325.7297 855.6068,320.643 798.5697,316.9724 740.9045,314.7362 681.7585,313.9044 621.4394,314.4885 559.4626,316.4922 495.7469,319.9242 430.6929,324.7614 364.1879,331.0227 295.889,338.7359 225.3958,347.9494 152.6089,358.6816 77.4457,370.9449 -0.0,384.7164"/>
    <polyline points="-0.0,225.4997 61.6853,221.9665 122.2062,219.1878 181.9234,217.1482 240.3956,215.8667 297.5207,215.3443 353.1944,215.5818 407.3095,216.5796 459.756,218.3379 504.3042,220.5064 547.4627,223.264 631.8396,229.6955 716.1235,236.774 789.4374,243.4647 863.6971,250.7364 940.2346,258.7167 1024.0,267.9215"/>
    <polyline points="1024.0,763.8964 926.1774,741.3564 669.4524,680.4222 559.0065,654.4862 456.7159,631.0056 366.0742,610.8746 265.894,589.6493 173.8243,571.3712 89.3393,555.8836 -0.0,540.9333 37.6329,546.7996 76.3598,553.2426 157.4868,567.927 244.5091,585.194 339.1293,605.3762 416.3479,622.6767 503.156,642.7677 860.3643,727.945 1024.0,765.9606 939.8161,746.0126 847.7563,723.7138 503.8176,638.8069 425.1287,620.1083 350.3728,603.0288 256.6703,582.7158 167.6348,564.7192 82.1602,548.8159 0.0,534.9601"/>
    <polyline points="82.3854,1024.0 40.7768,1010.214 0.0,996.2788"/>
    <polyline points="1024.0,837.3066 972.7578,817.1685 923.1352,796.08 868.2656,771.133 814.5509,745.1172 763.292,718.7429 712.4747,691.0299 662.2881,662.0626 612.9076,631.9511 570.0674,604.4986 527.4246,575.9281 484.5755,545.9718 441.2305,514.4313 403.5168,486.0402 363.7728,455.2816 249.0693,363.9361 214.2172,336.5917 176.4426,307.8653 141.5618,282.4424 103.2367,256.0653 85.2032,244.3242 67.4172,233.2198 50.1602,222.9336 33.0719,213.2551 16.4308,204.344 0.0,196.0681"/>
    <polyline points="539.8087,1024.0 469.183,1005.53 399.3592,986.5402 330.0756,966.9613 261.5434,946.8493 193.9877,926.268 127.95,905.3869 63.0663,884.0914 -0.0,862.5966"/>
    <polyline points="1024.0,959.321 980.4289,945.5345 937.0325,930.9426 894.4754,915.7644 852.5206,899.9128 811.6779,883.5751 772.077,866.8068 733.8473,849.6634 697.4335,832.3548 662.3199,814.6297 627.2047,795.7786 590.3784,774.981 554.3092,753.552 519.8978,732.046 486.696,710.2261 454.332,687.8552 423.2202,665.2321 394.3712,643.1873 366.3347,620.6918 338.851,597.524 312.2955,573.9967 286.4276,549.9051 261.3176,525.3176 236.7874,500.0617 212.9298,474.2397 192.1003,450.618 171.5752,426.3167 151.0851,401.0227 130.4376,374.5077 96.6895,329.2154 26.3095,231.6337 0.0,195.6942 70.4153,291.8722 94.1438,323.2074 117.2854,352.8119 142.4104,383.8232 167.7756,413.9507 193.8158,443.7039 220.5065,473.0464 243.5756,497.293 267.7257,521.4529 292.808,545.3744 318.8995,569.1245 345.8948,592.5951 373.4388,615.4873 401.6527,637.9186 430.71,660.0224 463.1403,683.5804 496.2139,706.4789 530.1395,728.8616 564.5226,750.473 599.599,771.4707 635.3031,791.8141 671.5694,811.4685 708.7103,830.5943 746.3078,848.97 784.2971,866.5755 823.0278,883.5719 862.0459,899.7617 901.7251,915.3036 942.0369,930.1774 982.9529,944.365 1024.0,957.7104 916.9649,934.4967 794.0772,905.9615 668.4215,875.2803 541.2482,842.7211 417.0866,809.5276 288.7566,773.8627 154.4095,735.2312 0.0,689.5954"/>
    <polyline points="1024.0,538.3147 942.6459,521.6266 872.608,508.0162 804.2853,495.6051 738.2505,484.5311 673.6773,474.6695 610.4711,466.0185 548.5569,458.5659 487.138,452.2206 425.7742,446.961 364.7735,442.8304 304.0878,439.8261 243.6783,437.9404 183.1183,437.1592 122.3662,437.4877 61.3856,438.9277 0.0,441.4855"/>
    <polyline points="1024.0,374.6311 993.0619,365.4995 962.9803,357.0852 933.105,349.2095 903.7693,341.9653 874.9537,335.3406 846.2741,329.2456 817.7096,323.6818 789.2415,318.6492 760.829,314.1431 730.9568,309.9386 701.3271,306.287 671.9208,303.1716 642.397,300.5483 612.7304,298.4135 582.8982,296.7635 552.5357,295.5828 521.9561,294.8877 490.7847,294.6729 459.3502,294.9433 427.6391,295.6923 395.2597,296.9303 362.5668,298.6441 329.155,300.8549 294.9915,303.5724 260.4593,306.765 225.1291,310.4711 189.4049,314.6464 152.8402,319.341 115.4044,324.5639 77.067,330.3239 38.4203,336.5293 0.0,343.1075"/>
    <polyline points="-0.0,134.4966 59.2035,129.7836 118.627,125.7368 178.2241,122.3658 237.5051,119.6947 297.1121,117.6917 356.5393,116.3716 416.3514,115.7182 476.689,115.7346 534.0952,116.3665 592.0925,117.5965 651.0039,119.4291 711.6119,121.8906 767.0855,124.6111 825.592,127.9014 1024.0,140.4647"/>
    <polyline points="1024.0,934.3633 918.6365,911.0622 811.0266,885.8938 700.1959,858.6252 585.7062,829.1489 475.1031,799.5587 356.0092,766.6748 242.826,734.685 0.0,665.2306"/>
    <polyline points="1024.0,410.2034 988.965,397.0301 955.1882,384.7995 922.5815,373.4839 891.0793,363.0557 860.2729,353.3766 830.1153,344.4316 800.2095,336.108 770.8742,328.4954 741.7185,321.4906 712.7099,315.091 683.8185,309.2935 655.0173,304.0936 626.2819,299.4861 597.5905,295.4649 568.9236,292.0231 539.6468,289.0895 509.3028,286.6303 478.7942,284.7395 448.0923,283.411 416.8458,282.6326 385.3436,282.4139 353.2253,282.7536 320.7946,283.6493 287.6804,285.111 254.203,287.1236 219.9787,289.7088 184.969,292.8757 149.5208,296.5904 113.2287,300.8923 76.4596,305.7345 38.7918,311.1687 0.0,317.2342"/>
    <polyline points="0.0,73.632 60.5912,66.7305 120.7669,60.5829 181.1271,55.1304 241.1364,50.4237 301.1164,46.4338 360.9485,43.1662 420.8948,40.6036 481.1683,38.738 539.0861,37.6055 597.4652,37.1012 656.7376,37.2169 717.8603,37.9573 776.1122,39.1952 838.5277,41.0138 1024.0,47.9419"/>
    <polyline points="750.9503,1024.0 655.2878,1002.1498 561.7252,979.544 470.7289,956.2974 383.1042,932.6202 295.9612,907.6656 189.7964,875.8085 93.3732,845.6561 0.0,815.2224"/>
    <polyline points="1024.0,914.6074 987.5146,901.6005 951.1035,887.9016 914.9737,873.5891 878.7841,858.523 842.9648,842.8787 807.1939,826.5134 771.8895,809.6178 737.094,792.2238 702.5163,774.1881 668.2296,755.5411 634.3102,736.3185 600.8378,716.5616 568.1899,696.5021 535.8538,675.8247 504.2249,654.7726 473.3975,633.4123 446.6954,614.1875 420.6811,594.7583 395.4439,575.1892 371.0769,555.5509 348.2797,536.4368 320.7265,512.4703 294.1213,488.6346 268.1864,464.7155 226.7948,425.0889 184.9277,383.1765 141.45,337.8651 47.7062,237.7381 22.3464,211.9182 0.0,190.5106"/>
    <polyline points="0.0,516.1528 44.2665,522.3579 89.7612,529.2626 136.2335,536.832 183.727,545.0683 232.6523,554.0405 283.0684,563.7589 335.4098,574.307 389.7579,585.7007 491.8314,608.1262 605.5632,634.3394 722.3333,662.1636 924.2428,711.1546 1024.0,734.7117 909.0587,707.2418 676.6543,650.8697 576.9978,627.0086 480.9974,604.7229 393.6694,585.5572 340.8272,574.5606 289.2775,564.3093 238.9618,554.7886 189.4461,545.9171 141.0637,537.7537 93.3917,530.2248 46.3909,523.3269 -0.0,517.053"/>
    <polyline points="1024.0,367.6107 994.22,359.414 964.2785,351.654 934.8398,344.5009 905.8695,337.9393 876.9977,331.8835 848.1913,326.3311 819.7686,321.3372 791.0088,316.7761 762.2318,312.7067 733.4151,309.1239 704.5388,306.0218 675.2112,303.3634 645.7788,301.1839 616.2278,299.476 586.1523,298.2185 555.9224,297.4282 525.1207,297.0952 493.7169,297.2285 462.1065,297.8262 429.8511,298.8958 397.3654,300.4223 364.1225,302.4303 330.413,304.9083 296.2397,307.8545 261.5843,311.2673 226.4303,315.1448 190.4491,319.5246 153.9262,324.3727 116.5204,329.7349 78.534,335.5681 0.0,348.7703"/>
    <polyline points="-0.0,152.8551 57.2855,147.4897 113.5007,142.8338 168.3723,138.9071 222.1442,135.6918 274.4219,133.2121 325.4298,131.4591 374.5068,130.4521 422.1587,130.1783 488.6606,130.9125 567.0587,132.5065 642.0761,134.6636 716.7948,137.4343 790.2922,140.7638 864.4596,144.7147 941.0315,149.3744 1024.0,154.9869"/>
    <polyline points="1024.0,901.3288 938.8371,882.8577 854.3523,863.6669 770.6999,843.7982 687.9637,823.2692 575.5223,794.3516 453.0154,762.2693 0.0,641.6905"/>
    <polyline points="1024.0,341.7253 996.0748,336.8099 967.8632,332.2496 940.0227,328.1502 911.778,324.398 883.4969,321.0492 855.1709,318.1009 826.7931,315.549 798.3586,313.3892 769.4416,311.5928 739.7186,310.1476 709.9968,309.0911 680.0235,308.4145 649.7774,308.1207 619.5603,308.2088 558.2242,309.5204 495.6,312.3454 431.246,316.7033 365.0643,322.6029 296.9778,330.0457 226.5107,339.0834 153.5663,349.7344 78.061,362.0123 -0.0,375.912"/>
    <polyline points="1024.0,770.8138 982.777,753.3456 942.842,735.5069 906.0532,718.1931 864.4793,697.6541 821.0975,675.3354 778.1407,652.3276 735.2962,628.4666 692.6795,603.8225 656.8364,582.3975 620.5512,560.0728 583.6244,536.7233 545.8986,512.2568 477.2754,466.4127 344.2737,375.5012 293.7903,342.0597 270.1536,327.0158 248.0974,313.4672 225.6902,300.2177 203.932,287.8759 177.0756,273.4053 150.8896,260.1625 125.2999,248.0985 99.8906,237.0201 74.9473,227.0521 50.063,218.0291 25.8717,210.1561 -0.0,202.6725 62.3829,199.7113 124.5425,197.5537 186.462,196.2017 248.4927,195.6539 310.053,195.9159 371.466,196.9825 432.9989,198.8607 494.4633,201.545 554.1377,204.9191 614.2149,209.0693 675.1191,214.0285 736.805,219.7909 797.5501,226.144 861.6466,233.4974 928.3068,241.7173 1024.0,254.0737"/>
    <polyline points="1024.0,782.4105 944.3092,764.1118 858.09,743.8611 478.1366,652.2932 392.2344,632.0089 316.7546,614.6621 228.2925,595.1344 147.0169,578.2008 71.2349,563.5144 0.0,550.8892"/>
    <polyline points="660.3729,1024.0 574.9237,1002.7158 489.5849,980.4403 405.0532,957.3552 321.3272,933.4649 238.4821,908.7875 156.984,883.4574 77.3383,857.6323 0.0,831.4628"/>
    <polyline points="1024.0,950.9589 983.999,938.2594 945.2295,925.1169 907.4603,911.4602 870.8142,897.327 830.5102,880.7835 790.8198,863.57 752.0303,845.8132 714.1618,827.5332 677.6498,808.9695 641.6626,789.7147 606.6483,770.0098 572.2506,749.659 538.5274,728.689 505.8739,707.3587 473.6477,685.2506 442.2532,662.6334 413.5075,640.9254 385.51,618.802 358.0344,596.0879 331.1597,572.8453 304.9602,549.1464 279.0512,524.6357 253.7898,499.646 228.8723,473.8814 206.5106,449.7738 184.3508,424.9355 162.573,399.5977 138.5483,370.6902 90.6604,311.1359 -0.0,195.1209"/>
    <polyline points="1024.0,577.7833 931.3091,557.6179 860.3137,542.7199 790.279,528.7416 723.6734,516.2219 658.1817,504.7473 594.422,494.4588 532.3019,485.3467 471.7462,477.3923 410.8437,470.3705 350.9997,464.471 291.7908,459.6462 233.1696,455.8889 174.7127,453.1733 116.3748,451.5043 58.116,450.8836 0.0,451.3087"/>
    <polyline points="1024.0,531.5998 944.868,515.5088 872.1341,501.5222 805.3279,489.5467 740.7465,478.8975 676.5159,469.2949 613.5894,460.9128 551.8892,453.7351 490.6274,447.6709 428.9965,442.6712 368.03,438.8341 306.9333,436.1082 246.0334,434.5109 184.9047,434.0289 123.502,434.6661 61.7861,436.4235 0.0,439.2838"/>
    <polyline points="1024.0,426.6372 987.3395,412.1819 952.5094,398.8994 918.9695,386.5832 886.2843,375.0804 854.7411,364.4919 823.9266,354.6726 793.436,345.4999 763.5783,337.0696 733.9574,329.2691 704.5344,322.0948 675.2736,315.5419 646.1423,309.6051 617.1104,304.2782 588.1511,299.554 559.2397,295.4249 529.972,291.8393 500.3129,288.8097 470.2275,286.3485 439.9419,284.4778 408.9483,283.1513 377.7366,282.3939 345.966,282.1997 313.9147,282.5719 281.5598,283.5028 248.5471,285.0027 215.1776,287.0568 181.0856,289.6861 146.2327,292.8995 110.5803,296.7057 74.4625,301.0661 37.4859,306.0246 0.0,311.5306"/>
    <polyline points="0.0,50.145 62.4611,42.1861 124.6784,34.9713 186.5833,28.5114 248.0855,22.8146 309.5349,17.8502 370.379,13.6583 431.3547,10.1841 492.6932,7.4239 551.894,5.4542 611.5876,4.1479 671.8866,3.5016 733.1863,3.5053 793.8215,4.1149 857.9253,5.3348 924.6517,7.1015 1024.0,10.2154"/>
    <polyline points="482.8296,1024.0 418.9411,1007.2113 355.8916,990.0523 293.5379,972.4843 232.0497,954.5514 171.9109,936.3958 112.9837,917.9772 55.7474,899.4464 0.0,880.7366"/>
    <polyline points="1024.0,943.5817 981.6102,929.6442 939.2231,914.8895 897.6009,899.5792 856.8536,883.7667 816.741,867.3586 777.404,850.3982 739.6466,833.2386 702.9157,815.632 668.5745,798.2573 636.0343,780.8657 604.6315,763.0999 570.3147,742.7253 536.6077,721.7761 503.5817,700.2756 471.6967,678.5261 440.5809,656.2821 412.0703,634.9429 384.5912,613.4381 357.4959,591.2609 331.1829,568.7263 305.6867,545.8816 280.4907,522.2575 255.9647,498.1924 231.9216,473.5149 212.2905,452.5317 192.6171,430.7296 173.01,408.2256 152.988,384.4663 119.9635,343.7434 41.4594,244.2204 19.391,217.061 0.0,193.8994 24.6835,223.6953 94.1176,309.4801 135.8333,359.1776 160.6979,387.6729 185.8214,415.5655 211.0173,442.6444 236.8184,469.4823 261.5378,494.3637 284.8775,516.8586 309.6523,539.7036 335.3804,562.4184 361.9481,584.8964 389.4924,607.2397 417.6811,629.1708 446.4072,650.6153 478.4067,673.4995 510.9737,695.7707 544.3086,717.566 578.3411,738.8301 612.669,759.3201 647.8781,779.384 683.58,798.7888 719.7088,817.5031 756.1992,835.5008 792.9875,852.7608 830.4101,869.44 868.4365,885.5122 906.6165,900.7902 945.3199,915.4267 984.5174,929.4033 1024.0,942.6451"/>
    <polyline points="1024.0,592.4848 932.1098,572.0846 852.7517,555.0147 780.3121,540.0696 712.8987,526.8611 648.2937,514.9687 586.6459,504.4384 528.0515,495.2921 470.039,487.1256 410.4066,479.6861 351.2033,473.2853 292.3641,467.9181 233.8293,463.5773 175.5444,460.2546 117.0903,457.9283 58.784,456.6108 0.0,456.2912"/>
    <polyline points="0.0,494.5546 50.4548,499.5217 101.3619,505.2434 153.1108,511.7635 205.3796,519.0395 258.59,527.1258 312.7983,536.0315 368.4422,545.8329 425.2148,556.4773 475.5312,566.4176 526.9912,577.04 580.0402,588.4368 634.3573,600.536 764.8089,630.713 1024.0,692.1046 752.265,627.853 653.214,605.0252 592.0393,591.4332 533.4118,578.8428 477.2181,567.2308 422.9826,556.4972 365.4061,545.6666 309.6935,535.7935 255.3959,526.7963 202.4459,518.6628 150.417,511.329 99.6218,504.8367 49.2813,499.0881 0.0,494.1529"/>
    <polyline points="0.0,526.3553 39.4492,532.3189 78.5949,538.6868 118.7278,545.6709 160.0401,553.3017 203.08,561.6819 247.8941,570.8249 344.0674,591.6584 425.0061,610.2081 515.9748,631.8486 868.209,718.4503 1024.0,755.7981 870.0207,718.6265 525.4565,633.5674 431.2523,611.1003 348.5257,592.1494 300.037,581.4958 253.8198,571.7235 210.5439,562.967 168.517,554.8865 125.9931,547.1521 83.7534,539.9185 41.7832,533.1837 0.0,526.9354"/>
    <polyline points="1024.0,766.2949 984.1913,748.8179 943.939,730.3683 903.8691,711.2322 863.3901,691.1271 822.9679,670.2802 782.4061,648.5936 741.8645,626.155 700.924,602.7273 668.948,583.8963 636.6398,564.3984 604.1836,544.3381 571.7791,523.8418 515.4572,487.2123 369.9813,391.2923 303.8039,348.7165 274.755,330.6444 247.9602,314.4572 222.9241,299.8466 198.906,286.3819 171.9829,272.032 145.9641,259.0114 120.7335,247.2713 96.1886,236.7618 72.528,227.5392 49.0973,219.3272 24.7442,211.7562 0.0,204.9914 25.3327,212.0098 49.9606,219.7919 74.8116,228.628 99.9648,238.545 125.5052,249.5696 151.835,261.8789 179.0633,275.5354 207.3129,290.6019 232.4833,304.7087 258.7783,320.0446 286.6546,336.875 316.6186,355.5117 382.2011,397.7464 509.1578,481.9926 570.9686,522.183 607.0482,545.0434 641.9577,566.6787 676.3174,587.4742 709.9477,607.3241 750.0406,630.3106 789.497,652.1905 828.8125,673.2433 868.217,693.5809 907.2626,712.971 946.2053,731.5478 984.9629,749.2764 1024.0,766.3637"/>
    <polyline points="1024.0,346.063 967.3617,337.2329 939.0438,333.3932 911.0,329.9713 882.5198,326.8828 854.2909,324.2036 825.9516,321.8921 797.118,319.9233 739.3982,317.1123 680.2763,315.7334 620.0513,315.8019 558.2363,317.3183 494.7456,320.2917 429.5795,324.7269 363.2213,330.5978 295.1233,337.9409 224.8831,346.8012 152.3989,357.1958 77.5855,369.1356 0.0,382.6941"/>
    <polyline points="0.0,215.0131 61.2661,211.1815 121.2867,208.1049 180.1924,205.771 238.2023,204.1759 294.8822,203.3373 349.8314,203.2557 403.2612,203.9265 455.0641,205.3515 502.7422,207.4087 549.9016,210.2053 634.019,215.9959 717.635,222.4077 790.5322,228.5321 864.3809,235.2318 940.5173,242.6248 1024.0,251.2035"/>
    <polyline points="1024.0,779.4409 931.4943,758.27 831.6102,734.809 503.1093,655.7224 428.8065,638.4389 358.6837,622.6052 261.382,601.5524 170.1101,582.9578 83.3146,566.5002 0.0,552.0014"/>
    <polyline points="599.6329,1024.0 519.8382,1003.953 441.4265,983.3446 364.3756,962.1701 288.3703,940.3369 213.9901,918.0089 141.3491,895.23 69.7992,871.7946 0.0,847.9146"/>
    <polyline points="1024.0,956.9704 982.3224,943.0482 941.1,928.4129 899.7946,912.8768 858.8632,896.6082 818.3812,879.6454 778.0777,861.8718 738.4013,843.482 699.108,824.3593 660.6392,804.715 622.7806,784.4351 585.9644,763.7458 550.2958,742.7117 515.8836,721.4007 482.5808,699.711 451.0376,678.0651 421.1015,656.3682 393.9693,635.5511 363.3137,610.703 333.9122,585.7649 305.4855,560.5198 278.4306,535.3486 252.4004,509.968 227.1255,484.1222 202.4064,457.5889 180.9778,433.4961 159.9525,408.8002 139.1948,383.3386 118.397,356.7247 85.9149,313.038 24.2096,226.0225 0.0,193.2498 21.4035,218.8854 42.7555,245.2545 116.4311,339.4134 150.209,381.2808 170.1429,405.0072 189.8267,427.6462 209.5589,449.5403 229.4738,470.8352 253.7191,495.71 278.4461,519.9499 303.5465,543.4624 329.5333,566.7242 356.0409,589.4017 383.3316,611.724 411.3597,633.6498 440.0726,655.142 471.4729,677.611 504.0696,699.884 537.4039,721.6423 571.0476,742.6273 601.0716,760.3544 632.6244,778.0076 665.614,795.5363 699.6304,812.7331 737.1815,830.7904 776.0188,848.538 815.6849,865.7687 856.4041,882.5791 897.7053,898.7717 939.4628,914.3033 981.5567,929.1336 1024.0,943.2663"/>
    <polyline points="1024.0,553.2217 941.4591,535.8199 866.5591,520.7496 796.3861,507.4255 729.8044,495.6355 665.3123,485.1284 603.2636,475.9728 543.4582,468.1262 484.4105,461.3974 424.172,455.6008 364.023,450.9011 303.8975,447.2949 243.7353,444.7771 183.4815,443.3407 122.7203,442.9782 61.7625,443.6915 0.0,445.4905"/>
    <polyline points="1024.0,352.6748 966.8636,345.8351 909.3352,340.2991 851.7895,336.1025 793.4189,333.182 734.1711,331.5448 674.0126,331.1895 612.5424,332.1163 549.9147,334.3185 486.5905,337.779 421.9111,342.5323 356.1483,348.5555 288.6032,355.9104 219.2114,364.6124 148.3051,374.6141 75.104,386.0236 0.0,398.7814"/>
    <polyline points="0.0,219.9752 58.529,216.2811 115.4874,213.5323 170.1185,211.7645 222.9787,210.9586 271.9692,211.1062 329.8571,212.2973 398.6786,214.3842 466.4925,217.1229 535.8614,220.6455 604.1947,224.8464 672.2594,229.7657 740.6227,235.4526 808.3314,241.8192 877.0116,249.0039 947.7343,257.1166 1024.0,266.5555"/>
    <polyline points="1024.0,765.2113 868.6214,729.1663 517.4852,645.9748 426.5309,625.0191 345.549,606.9377 249.1311,586.3979 160.7698,568.8075 77.9805,553.6716 0.0,540.8487"/>
    <polyline points="111.1304,1024.0 54.9135,1005.8583 0.0,987.4316"/>
    <polyline points="1024.0,851.8992 995.5312,840.9032 967.0715,829.4808 938.7259,817.6687 910.925,805.653 883.261,793.2649 855.7531,780.5118 828.4206,767.402 800.9045,753.755 773.9882,739.961 746.9427,725.6502 720.1649,711.0279 693.6732,696.1106 667.1501,680.7186 640.9665,665.0682 614.5034,648.7842 588.45,632.2884 544.0868,603.1267 500.0027,572.7963 455.9431,541.1351 411.293,507.7 375.8013,480.1979 338.8996,450.8106 223.9778,356.7485 179.4676,320.7639 143.2223,292.2034 111.0298,267.7296 80.5862,245.6598 52.4401,226.4476 25.7166,209.4903 0.0,194.5361 23.271,222.8824 91.8678,308.1031 114.2457,335.1975 135.6668,360.5375 161.3779,390.1157 187.0942,418.7691 213.2732,447.0013 239.7249,474.6093 262.8194,497.7832 286.8392,520.8357 311.637,543.6263 337.2959,566.2289 363.4716,588.3459 390.5291,610.2852 418.1395,631.7739 446.479,652.9472 478.3643,675.7675 510.7922,697.9535 543.9722,719.6488 577.8381,740.8014 612.3245,761.3658 647.3664,781.3022 682.8992,800.5764 718.8593,819.1597 755.1834,837.0283 792.2044,854.3436 829.8939,871.0781 867.8059,887.0356 906.3075,902.3743 944.9313,916.914 984.067,930.809 1024.0,944.1459"/>
    <polyline points="871.5821,1024.0 815.6945,1011.8915 760.1804,999.4642 704.8516,986.674 650.1593,973.6244 596.1914,960.3389 542.7064,946.7565 490.4711,933.074 438.9262,919.1464 389.4254,905.3486 341.0948,891.4496 223.7752,856.2794 109.8815,820.6553 0.0,784.7572"/>
    <polyline points="1024.0,894.3003 989.2687,881.4615 954.3249,867.933 919.8896,853.9982 885.2813,839.3839 850.9227,824.2619 816.8698,808.6603 783.1811,792.6094 749.5893,775.976 716.5035,758.9573 683.9915,741.5919 652.124,723.9215 620.6831,705.8192 590.3387,687.6736 560.5989,669.1933 531.8395,650.6032 504.1476,631.9604 480.4125,615.3294 456.6087,597.9949 429.543,577.6914 403.218,557.3593 378.0179,537.3307 353.1688,517.0168 328.7183,496.4619 304.3766,475.4249 261.1332,436.6175 216.8593,395.0302 176.5586,355.7584 97.8406,277.4583 65.3968,246.2319 48.4208,230.6267 32.502,216.6392 16.2547,203.0987 0.0,190.2408"/>
    <polyline points="1024.0,828.4402 898.8977,798.7959 762.9676,765.1467 631.8737,731.6635 355.3285,659.9122 249.0892,633.0877 184.2,617.3692 121.0503,602.6285 59.5581,588.8511 0.0,576.0972"/>
    <polyline points="1024.0,600.7088 928.9769,579.5559 848.0871,562.0731 773.8675,546.6476 704.6635,532.9448 638.1478,520.5193 574.2325,509.3764 512.4802,499.4467 452.8349,490.7172 393.4049,482.9345 335.2511,476.2685 277.9658,470.6782 221.8902,466.1937 167.3476,462.8165 112.3152,460.4213 56.357,458.9977 0.0,458.5591"/>
    <polyline points="300.6717,1024.0 222.0267,1001.1749 145.8793,977.8883 71.8647,954.0338 0.0,929.6103"/>
    <polyline points="1024.0,936.0282 985.8808,923.5651 948.9873,910.7333 913.0344,897.442 878.0088,883.676 838.8624,867.3867 800.5029,850.5712 762.5068,833.0356 725.3696,815.0026 689.938,796.927 655.341,778.4097 621.2099,759.253 587.6031,739.4778 554.9328,719.3334 522.868,698.6273 491.4602,677.393 460.4455,655.4429 432.6014,634.8564 405.3616,613.8642 378.4946,592.2875 352.3379,570.405 326.4312,547.8348 300.8816,524.659 275.7907,500.9741 250.8356,476.4745 230.707,456.0117 210.6711,435.0155 190.3074,413.042 169.6502,390.1268 121.5806,335.1969 33.236,232.1616 0.0,194.6327"/>
    <polyline points="1024.0,632.134 915.3333,607.1811 832.6168,588.5386 758.275,572.2471 690.7266,557.9773 626.812,545.0748 568.9554,534.0457 511.3032,523.766 454.5229,514.3785 395.6224,505.4561 337.4641,497.501 280.3483,490.5499 223.4818,484.5071 167.174,479.4117 111.0027,475.2295 55.2871,471.9858 0.0,469.6688"/>
    <line x1="0.0" x2="74.0999" y1="47.6128" y2="0.0"/>
    <polyline points="1024.0,923.8847 915.6262,899.5762 805.5343,873.4815 693.2798,845.4938 577.481,815.2665 464.9344,784.7029 344.6341,750.9405 223.9952,716.2286 0.0,650.8962 160.676,693.9731 443.293,771.2139 529.5983,794.1757 612.958,815.8252 719.9107,842.765 823.8202,867.9568 924.8941,891.4559 1024.0,913.4632"/>
    <polyline points="1024.0,393.984 990.8432,382.4513 958.9822,371.8502 927.8284,361.9801 897.3316,352.8267 867.4484,344.3741 837.7835,336.5127 808.2992,329.2412 779.3241,322.637 750.1023,316.5317 721.3363,311.0736 692.6373,306.178 663.6034,301.7853 634.5842,297.9557 605.5611,294.682 576.5179,291.956 547.0399,289.7412 516.4166,287.9931 485.5773,286.7812 454.4942,286.1015 422.822,285.9508 390.8447,286.3338 358.2074,287.2572 325.2092,288.7142 291.8319,290.6989 257.7035,293.2336 223.1495,296.2938 187.7844,299.9127 151.9523,304.0538 115.2528,308.7616 77.6495,314.0456 39.1059,319.9156 0.0,326.3112"/>
    <polyline points="0.0,98.2197 61.8758,91.9061 123.4539,86.3495 184.7776,81.5459 245.7559,77.5002 306.7307,74.1901 367.5729,71.6243 428.1545,69.8027 489.1315,68.7054 548.0271,68.3393 607.4321,68.6471 667.4498,69.6261 729.1306,71.2955 789.4396,73.5257 853.1422,76.4406 1024.0,85.9473"/>
    <polyline points="1024.0,1017.2482 963.8129,1005.3014 903.8519,992.9361 844.4283,980.2161 785.2886,967.0842 727.2615,953.7254 669.7513,940.003 613.2311,926.0251 558.1455,911.9052 495.3985,895.2011 418.9004,874.2751 346.9847,854.1287 275.6008,833.6625 205.8111,813.1886 136.7786,792.4724 68.2213,771.4305 0.0,750.0192"/>
    <polyline points="1024.0,774.7578 980.0581,756.0485 936.3984,736.5786 893.6013,716.6107 851.5121,696.0774 810.9571,675.3948 771.784,654.5066 735.8587,634.4776 694.001,610.1656 659.3085,589.4343 624.2847,567.977 589.0491,545.8639 553.3461,522.9393 513.8312,497.0004 472.1004,469.0398 333.5246,374.1181 283.869,340.7385 256.1226,322.6844 230.8017,306.7589 207.1998,292.5112 184.6788,279.5602 161.625,267.0588 137.7961,254.9552 114.4702,243.901 91.2505,233.7011 68.4476,224.4832 45.671,216.079 22.8827,208.481 0.0,201.6693"/>
    <polyline points="1024.0,370.4655 993.9177,361.8973 964.3019,353.9312 935.2656,346.6012 906.4333,339.8178 877.09,333.4312 848.1545,327.6253 818.94,322.266 790.0694,317.4712 761.1858,313.1751 732.2616,309.3736 703.2718,306.0624 673.8408,303.205 644.6491,300.8637 614.9664,298.9755 585.1293,297.5648 554.7453,296.6159 523.7808,296.1384 492.5958,296.1392 460.7793,296.6187 428.709,297.5714 395.96,299.0092 362.9292,300.9138 329.1764,303.3089 294.6713,306.2033 259.8415,309.5588 224.7959,313.3555 189.274,317.6268 153.191,322.378 116.2391,327.648 78.3867,333.4443 0.0,346.619"/>
    <polyline points="0.0,147.9599 61.8728,142.8237 123.6498,138.3557 185.0262,134.5804 245.882,131.5023 306.412,129.1127 366.1439,127.4293 425.2392,126.4443 483.8103,126.1611 529.8599,126.4429 575.2772,127.1752 619.9438,128.3563 663.736,129.982 824.2905,138.001 1024.0,149.1822"/>
    <polyline points="1024.0,356.8574 995.3666,349.5986 965.8656,342.5979 936.8034,336.1733 908.1493,330.3105 879.54,324.9328 851.2867,320.0939 823.027,315.7254 794.3847,311.7779 765.6789,308.3034 736.8889,305.297 707.9965,302.7535 678.9858,300.6671 649.4613,299.0128 619.7796,297.8132 589.9305,297.0611 559.5019,296.7472 528.4635,296.8808 497.2062,297.4604 465.2966,298.4935 432.7057,299.9892 399.8532,301.9268 366.1934,304.3389 332.5303,307.1682 298.0984,310.4748 263.1572,314.2367 227.6904,318.4526 154.8046,328.286 78.9615,340.0383 -0.0,353.7366"/>
    <polyline points="0.0,172.0167 59.6221,167.1051 118.6394,162.8851 176.5756,159.3952 233.3376,156.64 288.8301,154.6236 342.659,153.3554 395.3256,152.8248 446.1459,153.0416 497.1627,154.056 559.7854,156.2604 639.2988,159.6417 718.2044,163.5878 790.9656,167.7466 864.6706,172.4531 940.6784,177.7894 1024.0,184.1094"/>
    <polyline points="1024.0,861.474 946.2596,843.7874 864.6589,824.6853 781.1068,804.6161 694.1746,783.2434 529.7961,741.7247 170.9121,649.2728 79.9561,626.4631 0.0,607.0291"/>
    <polyline points="1024.0,413.414 960.8989,404.8873 898.6242,397.605 836.3371,391.482 774.8373,386.6067 714.0863,382.9619 653.0453,380.4818 592.0124,379.1795 530.2482,379.04 467.3226,380.0847 403.9413,382.3068 339.7123,385.708 274.2063,390.3145 207.3808,396.1385 139.6453,403.1392 70.0994,411.4115 -0.0,420.8147"/>
    <polyline points="0.0,148.4855 60.8441,143.8621 121.4773,139.9945 181.8988,136.8811 242.0179,134.5216 302.1584,132.9009 362.595,132.018 423.1613,131.8807 483.6888,132.4845 541.8244,133.7512 600.7893,135.706 660.6308,138.3538 721.9774,141.7225 781.2683,145.553 844.3171,150.1608 1024.0,164.929"/>
    <polyline points="1024.0,900.7103 931.1091,879.8794 835.9862,857.5443 737.6961,833.49 634.5055,807.2875 549.9823,785.2005 458.5413,760.7877 126.2465,670.0295 0.0,636.3161"/>
    <polyline points="0.0,220.7847 60.3651,217.0909 119.4618,214.1476 177.7843,211.9332 234.5789,210.4789 290.0772,209.7764 344.176,209.8316 396.4841,210.6438 446.925,212.2064 497.7945,214.6471 561.9474,218.7832 641.3573,224.5184 720.6768,230.8856 792.9725,237.2469 866.6533,244.2659 942.0193,251.9694 1024.0,260.8565"/>
    <polyline points="1024.0,769.9473 953.7071,753.9796 881.4783,737.145 659.0653,683.8779 544.6475,656.8553 449.6824,634.9654 363.6943,615.7571 263.4031,594.3337 170.3785,575.6629 83.0372,559.4292 0.0,545.3793"/>
    <polyline points="257.6561,1024.0 190.9685,1003.9455 125.9097,983.4674 62.1218,962.4567 0.0,941.0448"/>
    <polyline points="1024.0,924.6658 986.4789,911.7294 948.8543,898.0208 912.184,883.9302 875.5755,869.117 839.5169,853.7687 804.0315,837.9008 769.142,821.5307 734.4783,804.4802 700.4783,786.9625 666.795,768.7991 633.8408,750.2153 601.2915,731.0341 569.2021,711.2837 537.627,690.9973 506.3125,670.0031 475.6429,648.555 448.2121,628.5932 421.3118,608.2699 394.7305,587.427 368.7983,566.3314 343.0874,544.6393 317.7127,522.4387 292.7882,499.8327 268.0255,476.5574 247.9476,457.0681 227.8556,436.9975 179.3142,386.6654 133.2473,337.2892 42.4602,238.0474 21.6829,215.9408 0.0,193.5277 24.3486,208.7202 49.9815,226.1545 77.1844,246.0163 107.0955,269.1269 131.7147,288.8891 160.1811,312.3061 268.322,403.0712 318.1756,444.4103 368.9265,485.5985 407.4146,515.757 446.0405,544.8301 485.2337,573.1603 524.8817,600.6671 564.9507,627.3312 592.3589,644.9327 620.0003,662.1725 647.8183,679.0144 676.0798,695.6128 704.096,711.5673 732.4665,727.2251 761.1643,742.5619 789.8097,757.3754 818.7149,771.8296 847.4869,785.7316 876.8297,799.4177 905.9764,812.5273 935.2715,825.2228 964.6923,837.4936 994.2162,849.3305 1024.0,860.7932"/>
    <polyline points="1024.0,685.7296 779.2017,627.8075 648.7281,597.7592 585.3935,583.7207 526.6305,571.1484 471.5985,559.8609 420.6482,549.9418 365.8357,539.9065 311.6873,530.6701 258.5271,522.2856 205.9312,514.6825 153.8547,507.8564 102.2542,501.8027 51.0883,496.5163 0.0,491.9658"/>
    <polyline points="1024.0,820.4803 899.4913,791.0753 764.6758,757.7707 636.9263,725.1821 358.36,652.987 230.9862,620.8599 166.6581,605.2272 107.4913,591.3527 52.316,578.9578 0.0,567.7912"/>
    <polyline points="1024.0,684.6403 757.6716,622.0931 658.9885,599.5644 597.6052,586.0987 539.1099,573.7292 482.6274,562.2691 428.0683,551.701 370.1349,541.0733 314.0268,531.4167 259.2961,522.65 205.5087,514.708 152.9746,507.6368 101.2725,501.3764 50.3545,495.9219 0.0,491.2516"/>
    <line x1="-0.0" x2="2.2611" y1="1.5299" y2="0.0"/>
    <polyline points="1024.0,824.3291 903.3426,795.6582 771.7515,763.0404 645.6272,730.8218 372.3819,659.9723 252.1025,629.6079 186.5135,613.7718 122.6574,598.9662 60.4518,585.173 0.0,572.4119"/>
    <polyline points="1024.0,638.0932 915.1382,613.1069 830.6584,594.0664 754.8401,577.4316 685.5241,562.7416 618.8306,549.1966 555.3792,536.9521 494.7021,525.921 435.9891,515.9594 377.3556,506.7869 320.2035,498.6617 264.4823,491.5778 209.7843,485.4842 156.0708,480.3793 103.3084,476.2568 51.8041,473.1281 0.0,470.9013"/>
    <line x1="0.0" x2="85.3847" y1="52.5548" y2="0.0"/>
    <polyline points="1024.0,930.6318 921.1931,908.1768 818.4946,884.4672 716.6403,859.6732 616.4004,833.9863 497.6037,801.9747 350.9944,761.3999 204.0617,719.9092 -0.0,661.505"/>
    <polyline points="1024.0,431.7241 985.077,415.783 949.0278,401.4375 915.2338,388.4401 882.9567,376.5066 851.8131,365.5022 821.7616,355.4163 792.7668,346.2319 763.9252,337.6576 734.2224,329.408 704.74,321.8195 675.7771,314.9599 646.6131,308.6578 617.5513,302.9869 588.558,297.9363 559.2476,293.444 529.9383,289.5627 499.8746,286.2064 469.7405,283.4646 439.5128,281.3247 408.788,279.7579 377.528,278.7725 346.0908,278.3779 314.0571,278.5662 281.3896,279.3453 248.4726,280.7021 214.8659,282.6503 180.534,285.1974 145.5198,288.3449 110.3592,292.0449 74.3733,296.3587 37.5256,301.2911 0.0,306.8131"/>
    <polyline points="0.0,48.8961 71.4391,38.9748 141.8627,30.0816 210.4324,22.3205 277.608,15.6377 341.7264,10.1792 403.8545,5.8299 459.8244,2.7885 529.6363,0.0"/>
    <polyline points="396.6964,1024.0 344.4703,1009.772 292.8348,995.2341 242.0742,980.4672 192.2155,965.4842 142.8937,950.1749 94.5499,934.6765 46.8414,918.8799 0.0,902.8604"/>
    <polyline points="1024.0,611.7114 925.9989,589.572 850.4005,572.9539 777.268,557.4674 708.6517,543.5875 642.1674,530.8484 578.0635,519.3221 516.2366,508.9919 456.2336,499.777 396.1389,491.4132 337.3588,484.1275 279.8382,477.9039 222.784,472.6583 166.5224,468.4253 110.637,465.1738 55.0878,462.9069 0.0,461.6273"/>
    <line x1="0.0" x2="9.7673" y1="6.5525" y2="-0.0"/>
    <polyline points="1024.0,843.4129 963.1166,829.5814 901.6575,815.2257 777.4703,785.0544 683.7477,761.2894 402.38,688.0344 255.103,650.2777 118.5694,616.3862 57.6808,601.8029 0.0,588.3833"/>
    <polyline points="1024.0,474.381 953.9295,462.0806 886.6332,451.2729 821.636,441.8831 758.195,433.804 696.1949,427.0197 634.4924,421.4084 573.0527,416.9761 511.8064,413.7159 450.0065,411.5973 387.5689,410.6395 324.7805,410.8539 261.5992,412.2326 197.6125,414.7818 132.7693,418.5071 67.0257,423.411 -0.0,429.5277"/>
    <polyline points="0.0,53.8918 63.3762,45.8395 126.53,38.5147 189.3596,31.9349 251.7692,26.1111 313.665,21.0481 375.3988,16.7155 436.8374,13.1219 498.264,10.2493 557.9137,8.1482 618.0988,6.7089 678.5655,5.9361 740.1209,5.8154 801.3695,6.3187 865.5925,7.4421 933.5165,9.1698 1024.0,11.9826"/>
    <polyline points="475.0742,1024.0 412.8817,1007.4953 351.305,990.5831 290.2877,973.247 229.9799,955.5268 170.5401,937.4665 112.4358,919.2111 55.5202,900.7176 0.0,882.0519"/>
    <polyline points="1024.0,593.6454 931.1805,572.9966 851.6834,555.8539 779.0657,540.8274 711.4227,527.5274 646.5223,515.5308 584.3297,504.8539 524.7914,495.4881 467.391,487.3544 408.3854,479.9575 349.806,473.6025 291.5921,468.2787 233.3293,463.9506 174.9574,460.623 116.7842,458.3117 58.397,456.996 0.0,456.6779"/>
    <polyline points="1024.0,701.8826 723.5793,630.5845 639.5217,611.0495 580.8827,597.8564 524.7994,585.6298 470.7836,574.2627 418.3711,563.6596 361.4863,552.6766 306.5248,542.6338 252.6644,533.3821 200.2118,524.9775 148.7378,517.3508 98.5555,510.5447 48.8837,504.4534 0.0,499.1166"/>
    <polyline points="1024.0,631.2918 915.3473,606.4012 831.2491,587.5038 755.6377,570.9909 686.4064,556.4173 619.7216,543.0008 556.2135,530.9006 495.7925,520.0976 437.2968,510.3815 378.8565,501.4829 321.8757,493.6566 266.3109,486.8981 211.7614,481.1602 158.6,476.475 106.542,472.8064 53.4142,469.9971 0.0,468.0975"/>
    <line x1="0.0" x2="73.1638" y1="45.3346" y2="0.0"/>
    <polyline points="1024.0,918.5222 920.7344,895.4625 816.2863,870.939 710.2534,844.8597 602.8808,817.2793 524.9997,796.557 446.5445,775.0844 0.0,649.9955"/>
    <polyline points="1024.0,385.6004 991.9254,374.8744 961.2783,365.1074 931.3106,356.058 901.9993,347.7267 872.2431,339.8182 842.6502,332.4916 813.5305,325.8202 784.514,319.7138 755.5653,314.1669 726.6517,309.1734 697.7437,304.7264 668.459,300.7741 639.1185,297.3653 609.6993,294.4919 580.1811,292.1452 550.168,290.296 519.6241,288.9536 488.514,288.1274 457.2022,287.8271 425.2691,288.0481 393.0972,288.7867 360.2533,290.0509 326.7041,291.8493 292.8613,294.1572 258.5819,296.9749 224.0987,300.2811 188.8132,304.131 152.6882,308.533 115.6864,313.4957 78.0826,318.9803 39.5433,325.0331 0.0,331.668"/>
    <polyline points="0.0,119.5194 59.9024,113.2259 119.3426,107.6054 177.6957,102.7184 234.8748,98.5656 291.097,95.1305 346.2423,92.4253 399.8992,90.4706 452.2454,89.2608 503.6774,88.8059 559.8731,89.1221 640.1304,90.1714 720.2484,91.8012 792.841,93.779 866.457,96.258 942.0652,99.267 1024.0,102.9794"/>
    <polyline points="1024.0,985.9348 965.4864,973.462 906.8165,960.5178 847.3335,946.9577 787.5101,932.8879 727.0631,918.2431 666.1034,903.0503 604.3922,887.2495 542.0783,870.8788 479.665,854.078 416.2971,836.6229 286.4035,799.6687 151.008,759.6418 0.0,713.5573"/>
    <polyline points="1024.0,646.3465 983.1736,626.7083 941.259,605.9446 898.4701,584.1633 854.0931,561.0051 773.4795,517.6828 614.399,430.1708 569.6331,406.2165 528.979,385.0474 484.7725,362.8577 443.2507,342.999 404.1279,325.3379 366.835,309.6032 343.0416,300.1885 319.6726,291.4526 296.6875,283.3815 273.7211,275.8571 251.3952,269.0797 229.0207,262.8347 206.8961,257.2102 184.6617,252.1183 162.6213,247.6305 140.1675,243.631 117.0916,240.0831 94.1388,237.0975 70.9692,234.6202 47.5619,232.6502 23.896,231.1864 -0.0,230.229"/>
    <line x1="0.0" x2="60.6395" y1="38.1581" y2="0.0"/>
    <polyline points="1024.0,909.54 927.5431,887.5044 828.516,863.7587 726.2731,838.15 619.2903,810.2935 527.0115,785.5095 427.2294,758.0613 98.4065,665.329 0.0,638.1723"/>
    <polyline points="1024.0,356.2161 994.9821,348.9015 966.1663,342.1072 937.8816,335.9123 909.4089,330.1551 880.4016,324.7641 851.7232,319.911 823.0215,315.5322 794.2673,311.6261 765.7762,308.228 736.8463,305.2537 708.1462,302.7702 678.9573,300.7121 649.6104,299.1075 619.7189,297.9388 589.629,297.2226 559.33,296.9523 528.0229,297.1308 496.4587,297.7635 464.6312,298.8423 432.1151,300.3818 398.8802,302.391 365.3371,304.8443 331.0353,307.7733 296.4069,311.1393 261.9802,314.8758 226.8851,319.081 154.4287,328.9389 78.9922,340.7214 0.0,354.5206"/>
    <polyline points="0.0,173.1142 62.4753,168.7125 124.4664,165.018 186.3997,162.0069 247.7961,159.7055 308.8485,158.1071 369.0804,157.2231 428.6506,157.0477 487.3772,157.5812 534.3898,158.5352 580.4327,159.9446 625.6748,161.8098 670.2402,164.139 816.0651,173.8241 1024.0,188.7045"/>
    <polyline points="1024.0,857.4369 961.0496,843.4934 898.514,829.1247 842.8809,815.8969 760.7836,795.8496 587.0621,752.4447 195.3648,652.849 91.0134,627.0498 -0.0,605.2953"/>
    <polyline points="1024.0,428.8115 958.9553,419.3163 895.8246,411.2091 833.5303,404.3483 771.4349,398.6711 709.6952,394.1884 648.1246,390.8957 586.6709,388.7886 524.9538,387.8495 462.5753,388.0784 399.4839,389.4831 335.6408,392.066 270.6242,395.85 204.7898,400.8156 137.7113,406.9919 69.3536,414.3853 0.0,422.9585"/>
    <polyline points="-0.0,125.7649 62.6319,120.1707 124.493,115.3774 186.1169,111.3365 247.4077,108.0533 308.7146,105.511 369.4721,103.7289 430.4195,102.6815 491.7829,102.3749 551.0169,102.7851 610.7757,103.89 671.1581,105.691 732.8868,108.2095 793.5479,111.3018 857.64,115.1531 924.2407,119.6591 1024.0,126.8972"/>
    <polyline points="1024.0,515.8342 893.5137,453.867 824.544,421.7871 760.277,393.1361 731.1831,380.7463 703.6029,369.4218 675.0615,358.1997 646.453,347.507 618.4515,337.5881 590.5052,328.253 563.2709,319.7196 536.0112,311.7533 509.0385,304.4515 482.319,297.7979 453.6952,291.3183 425.2354,285.5446 396.5457,280.3996 367.9486,275.9421 339.047,272.1102 310.1735,268.9468 280.9258,266.4054 251.2656,264.4922 221.5435,263.2255 191.3449,262.5826 160.633,262.5693 129.7803,263.1792 97.9385,264.4343 65.8956,266.3076 33.3729,268.8057 0.0,271.9589"/>
    <polyline points="0.0,394.7018 75.7396,381.6725 149.057,370.0965 220.4789,359.8914 290.0265,351.0619 357.3779,343.6431 423.3174,337.5467 487.5406,332.8024 550.7672,329.3603 613.0299,327.2316 674.3924,326.4152 734.6729,326.8993 793.8458,328.7034 851.3878,331.7873 908.5984,336.2034 963.9882,341.7964 1024.0,349.2156 995.143,343.5021 966.7609,338.3008 938.4045,333.5233 910.0568,329.1689 881.7034,325.2357 853.3319,321.7213 824.9317,318.6223 796.0909,315.8995 767.1935,313.5941 738.2342,311.7007 708.6004,310.1847 678.6159,309.0582 648.3876,308.3275 618.2039,307.9964 587.7458,308.0573 556.996,308.511 525.9391,309.3576 494.2241,310.6121 430.0958,314.2957 364.169,319.5801 296.3469,326.4693 226.1503,335.0133 153.4663,345.2329 78.1952,357.1445 -0.0,370.8052"/>
    <polyline points="0.0,187.5287 62.8153,184.03 125.5853,181.3131 187.6241,179.4049 249.8052,178.2781 311.9831,177.9472 373.572,178.4113 434.8932,179.6612 496.6193,181.7145 556.5399,184.4679 616.9211,187.9911 677.8417,192.2903 739.6587,197.3875 800.9378,203.1246 865.131,209.7886 932.4435,217.3635 1024.0,228.2284"/>
    <polyline points="1024.0,808.806 927.0138,786.8432 827.9308,763.5275 483.8411,679.1412 390.1157,656.5835 306.6372,636.932 221.7321,617.5241 143.2652,600.2541 69.7334,584.7871 0.0,570.8841"/>
    <polyline points="1024.0,836.9867 901.5128,808.2794 771.3515,776.2881 618.9266,737.3196 331.511,661.8983 219.0763,632.8638 157.8317,617.4628 101.6924,603.7216 49.1757,591.2808 0.0,580.0742"/>
    <polyline points="1024.0,537.1704 945.1126,521.0147 872.9816,507.0524 803.9625,494.5716 737.565,483.4912 672.6057,473.625 609.3582,465.0227 547.0242,457.5773 485.9115,451.3229 424.4751,446.118 363.7793,442.0708 303.0205,439.1299 242.5397,437.3174 181.9098,436.6214 121.4975,437.0417 60.4636,438.587 0.0,441.2314"/>
    <polyline points="1024.0,382.3366 992.1098,372.3183 961.1798,363.0731 930.8552,354.4927 901.1058,346.5688 871.5448,339.2036 842.5085,332.4822 813.6127,326.3146 785.2058,320.7707 756.5301,315.7065 727.7507,311.1658 698.34,307.0549 668.8712,303.4617 639.6371,300.4136 609.9673,297.8397 580.1552,295.7716 550.1776,294.2041 519.6678,293.1223 488.5876,292.5367 457.2587,292.4559 425.665,292.8731 393.4185,293.7943 360.8662,295.2101 327.6068,297.1376 294.0058,299.5549 259.6473,302.4907 224.4983,305.9541 188.9537,309.9041 152.5725,314.3874 115.3229,319.4127 77.6324,324.9192 38.561,331.0486 0.0,337.5042"/>
    <polyline points="0.0,121.0346 59.3284,115.8871 118.6929,111.416 177.8412,107.6371 237.0633,104.5284 296.6083,102.0808 355.9719,100.3127 415.7197,99.2036 475.994,98.7555 533.0211,98.9379 590.9783,99.7089 649.8584,101.0709 710.1619,103.0329 765.0999,105.2758 823.1496,108.0556 1024.0,119.0582"/>
    <polyline points="1024.0,968.0705 965.6182,955.6799 906.9692,942.8044 847.9675,929.4241 788.6778,915.553 728.7571,901.1086 668.6982,886.2103 608.1772,870.782 546.9037,854.7496 424.4448,821.5268 296.4696,785.2672 161.4074,745.5566 0.0,696.7358"/>
    <polyline points="1024.0,561.7029 951.6845,526.2279 817.0899,458.8816 764.988,433.1089 710.2555,406.7704 662.5509,384.8057 633.7401,372.1114 605.5595,360.1604 578.3136,349.0797 551.592,338.6973 525.3504,328.9979 499.5475,319.9656 474.1449,311.5848 448.7548,303.7338 421.2232,295.8335 393.9773,288.6585 366.6225,282.1108 339.4756,276.2704 312.503,271.1196 285.31,266.5843 257.8581,262.671 230.4807,259.4261 203.1535,256.831 175.4728,254.8439 147.4032,253.471 119.0968,252.7212 90.1072,252.5812 60.6397,253.0541 30.663,254.1407 0.0,255.8512"/>
    <polyline points="1024.0,535.409 944.8938,519.1421 871.6532,504.8774 802.6172,492.2962 736.6557,481.1927 672.6348,471.3872 610.5414,462.889 550.3107,455.6827 490.8327,449.6344 430.0246,444.5671 369.4849,440.6491 308.8098,437.8485 247.9375,436.1626 186.8121,435.5865 125.0164,436.1203 62.8591,437.7625 -0.0,440.5192"/>
    <polyline points="1024.0,393.6261 991.8753,382.6912 960.0554,372.3596 929.0368,362.7885 898.6651,353.9255 868.5477,345.6591 838.9882,338.0724 809.601,331.0635 780.3491,324.6274 751.1986,318.7586 722.1184,313.4508 693.0802,308.6971 663.6889,304.4401 634.2814,300.7343 604.8361,297.5713 575.3342,294.9421 545.367,292.8128 514.9006,291.1931 484.3072,290.1037 453.1618,289.5297 421.8534,289.4777 389.9444,289.9457 357.5133,290.9363 324.3917,292.4566 290.8651,294.4959 256.9118,297.0506 222.5119,300.1163 187.327,303.7236 151.3186,307.8822 114.7844,312.557 77.366,317.7927 39.0261,323.5989 0.0,329.9394"/>
    <polyline points="-0.0,103.346 56.6533,96.7814 111.6077,91.1581 164.5752,86.5061 215.4914,82.8282 277.5504,79.4168 348.2421,76.3031 415.7838,74.0122 483.3365,72.4058 548.7253,71.5157 614.2911,71.2886 679.3076,71.7249 744.8335,72.827 810.4786,74.5823 877.3867,77.0087 947.0773,80.1545 1024.0,84.2205"/>
    <polyline points="1024.0,1015.1802 961.8362,1002.2109 899.6128,988.7453 837.0441,974.7261 773.866,960.0912 710.2084,944.8661 646.5685,929.1711 582.7281,912.9563 518.5082,896.1743 454.7747,879.0562 391.0421,861.4793 327.2269,843.4203 263.6098,824.9592 202.8334,806.8923 142.4163,788.5112 0.0,743.8339"/>
    <polyline points="1024.0,763.5044 984.1001,745.9073 944.1877,727.5443 904.0997,708.3417 863.948,688.3519 823.5285,667.4682 783.3137,645.9362 742.836,623.5055 702.6052,600.4584 671.8298,582.3202 640.9794,563.6944 610.2099,544.673 579.4391,525.2038 512.9352,481.958 369.9184,387.7126 306.9594,347.2148 278.0881,329.2478 251.4276,313.1436 226.1926,298.4311 202.2533,285.0393 175.1505,270.6474 148.926,257.6054 123.4615,245.8673 98.6518,235.3861 74.4049,226.113 50.1331,217.823 25.1342,210.2447 0.0,203.5797"/>
    <polyline points="0.0,214.3897 50.4435,212.2358 122.0714,210.3618 189.88,209.3974 256.616,209.2368 321.1381,209.8442 385.0273,211.2017 448.652,213.317 511.8297,216.1851 573.4652,219.7305 634.8102,223.9984 696.4682,229.0315 758.486,234.8377 820.073,241.3211 883.3668,248.6873 949.5435,257.0701 1024.0,267.1516"/>
    <polyline points="128.0262,1024.0 62.8104,1003.4582 0.0,982.7343"/>
    <polyline points="1024.0,1009.3028 964.5479,997.3502 905.7224,984.9812 847.9393,972.2815 790.9381,959.1906 736.917,946.2357 667.3052,928.9026 599.8798,911.64 532.8267,894.0023 465.3067,875.7586 398.396,857.193 331.7459,838.2109 265.4853,818.8501 199.3319,799.0296 133.0585,778.6794 66.8739,757.8649 0.0,736.3408"/>
    <polyline points="1024.0,348.8403 995.1568,343.2215 966.8038,338.1145 938.4647,333.4268 910.1216,329.1575 881.759,325.3048 853.3635,321.866 824.9239,318.8377 796.032,316.1822 767.472,313.9674 738.4332,312.1258 709.3105,310.6853 679.6742,309.6271 649.3506,308.9539 618.6873,308.6709 588.0334,308.7794 557.0767,309.2772 525.799,310.1658 494.184,311.4464 429.887,315.1839 364.0933,320.485 296.0014,327.4179 225.8561,335.965 153.1807,346.1855 77.8643,358.1019 -0.0,371.6972"/>
    <polyline points="0.0,189.4343 64.9083,186.0187 129.0156,183.3944 192.8741,181.5365 255.8601,180.4581 318.892,180.1427 381.3317,180.5958 443.5265,181.815 505.7582,183.8098 566.5395,186.51 627.4487,189.9601 688.6179,194.1663 750.4801,199.157 811.9025,204.8119 875.9196,211.3881 943.1829,218.9408 1024.0,228.6245"/>
    <polyline points="1024.0,805.7816 922.4188,782.6767 816.6871,757.7603 723.0708,735.0554 485.8258,676.5586 398.4826,655.5765 318.0571,636.7227 230.9609,616.9507 149.73,599.2598 72.8642,583.3249 0.0,569.0716"/>
    <polyline points="1024.0,864.5065 941.093,845.4645 856.512,825.3304 769.0218,803.8108 677.7723,780.6953 597.0435,759.753 508.9181,736.4668 155.4808,641.6071 72.7945,620.0302 0.0,601.625"/>
    <polyline points="1024.0,384.8517 963.1111,377.8843 901.6501,372.0341 841.3835,367.4632 781.295,364.0868 721.352,361.9013 660.8412,360.8818 600.0923,361.0312 538.3591,362.3483 474.8094,364.8819 410.5665,368.6009 344.8088,373.5497 277.9329,379.701 209.034,387.1466 138.2917,395.8895 70.4758,405.3454 -0.0,416.2279"/>
    <polyline points="0.0,188.875 59.986,185.7286 120.2135,183.3176 180.2343,181.6631 240.361,180.7558 300.4684,180.5989 360.428,181.187 420.848,182.5265 481.5227,184.617 539.8252,187.3164 598.4622,190.6954 658.4564,194.8145 719.6847,199.6679 778.4517,204.8894 840.8065,210.9499 1024.0,230.3741"/>
    <polyline points="1024.0,811.9974 931.6371,790.6971 808.3346,761.3512 692.3876,733.1884 417.5525,665.7697 275.6007,631.7493 198.6982,613.9393 128.2903,598.1902 62.3027,584.0394 0.0,571.3342"/>
    <polyline points="1024.0,815.4164 910.9026,788.5614 787.9418,758.1678 668.3742,727.7472 393.7923,656.8899 257.9697,622.8732 186.9319,605.8469 123.7078,591.3645 61.5159,577.8872 0.0,565.3481"/>
    <polyline points="1024.0,365.2776 994.2151,357.3325 964.5116,349.8731 935.3049,343.0078 906.2102,336.6456 877.1983,330.7855 848.611,325.4909 820.0647,320.6832 791.1612,316.3045 762.2502,312.4158 733.3149,309.0123 704.3411,306.0883 675.3167,303.6373 646.2317,301.6525 616.6641,300.1076 586.8925,299.0218 556.4147,298.3691 525.0758,298.16 493.7383,298.4073 462.0841,299.1065 429.7728,300.2703 397.0925,301.8929 364.0262,303.9723 330.5587,306.506 296.3274,309.5241 261.6544,312.9998 226.1634,316.9725 190.1949,321.4049 153.7417,326.2921 78.5552,337.5384 0.0,350.8113"/>
    <polyline points="0.0,150.0362 63.8909,145.3478 127.7485,141.3877 190.8364,138.2021 253.5904,135.7637 315.903,134.0754 378.1351,133.1288 440.1347,132.9292 502.1861,133.4779 562.4154,134.7279 623.2385,136.7034 684.3635,139.3993 746.235,142.831 808.1052,146.9318 872.2901,151.8288 939.8652,157.5791 1024.0,165.3042"/>
    <polyline points="1024.0,892.1924 930.2154,871.2323 834.108,848.784 735.2575,824.7494 632.1506,798.7628 547.5282,776.828 455.9574,752.5862 125.9493,663.2575 0.0,629.8794"/>
    <polyline points="1024.0,342.7544 967.678,335.8873 911.3055,330.4103 854.4435,326.2797 796.6405,323.4721 738.2334,322.0003 678.3649,321.8422 617.3981,323.0033 554.8271,325.4916 491.3844,329.2732 426.4341,334.3879 360.2049,340.8195 292.3391,348.596 222.4453,357.7653 150.4545,368.3417 76.3131,380.3338 0.0,393.741"/>
    <polyline points="-0.0,230.8555 55.8452,227.4865 110.3586,224.8422 163.5467,222.9219 215.0307,221.7351 265.069,221.2721 313.5938,221.5372 360.5371,222.5346 405.5599,224.2558 482.8056,228.4341 560.0651,233.3682 636.666,239.0205 712.6926,245.3965 787.6206,252.4351 863.679,260.338 941.0217,269.119 1024.0,279.2642"/>
    <polyline points="1024.0,753.4492 882.6576,720.7346 537.2218,639.1449 439.9111,616.9152 353.8833,598.0124 255.3219,577.5658 209.1314,568.5418 164.7038,560.2584 121.6616,552.6458 79.9705,545.6988 39.2708,539.3602 0.0,533.6965"/>
    <polyline points="1024.0,601.2508 972.5417,576.1884 917.7035,548.7106 856.4877,517.3225 697.1503,434.6137 650.1154,410.8465 609.0236,390.7514 558.1107,367.0637 509.9502,346.1171 463.5161,327.4584 440.8233,318.9405 418.2066,310.8677 391.7657,301.9784 365.706,293.8165 339.9879,286.3626 314.2217,279.5073 288.7247,273.3372 263.1081,267.7589 237.336,262.7774 211.7343,258.454 185.9117,254.7201 160.2029,251.6202 134.2125,249.1021 107.9074,247.1701 81.6379,245.8437 54.9987,245.0952 27.6929,244.9255 0.0,245.3344"/>
    <polyline points="1024.0,807.1455 911.8618,780.6416 790.0545,750.7212 671.7999,720.8505 398.6171,650.893 261.709,616.8439 188.6451,599.4317 121.3654,584.0791 58.9586,570.5775 0.0,558.6191"/>
    <polyline points="1024.0,817.3426 904.9648,789.3843 777.5065,758.2204 650.2016,726.1105 420.7673,667.1629 286.5483,633.8865 209.3392,615.5098 136.3135,598.7629 66.8241,583.4926 0.0,569.5097"/>
    <polyline points="1024.0,698.5714 748.5815,633.3512 626.0275,604.9303 562.9386,590.7573 504.387,577.9948 449.1743,566.3816 396.5026,555.7517 341.4061,545.173 288.4341,535.5935 237.1829,526.9431 187.6053,519.2149 139.6582,512.3954 93.0364,506.4351 46.6591,501.2012 0.0,496.6322"/>
    <polyline points="1024.0,346.2842 967.106,337.8901 910.3674,331.0092 853.5568,325.6178 796.5867,321.6925 738.6532,319.1731 679.6579,318.0646 619.5251,318.364 557.7746,320.0775 493.8752,323.2444 428.6215,327.8297 362.4872,333.7788 294.497,341.1878 224.3557,350.0926 151.9659,360.5086 77.2452,372.4458 0.0,385.9323"/>
    <polyline points="-0.0,218.6308 63.5422,215.2484 126.3041,212.6098 188.5933,210.7007 250.2706,209.5307 311.1893,209.107 370.8889,209.4313 429.5338,210.5021 486.6701,212.3091 528.981,214.1662 570.4996,216.4484 611.1355,219.1552 650.5469,222.2637 736.0376,229.86 824.1024,238.112 1024.0,258.1191"/>
    <polyline points="1024.0,774.1356 935.071,753.7683 838.5686,731.1319 513.8549,653.2511 437.1401,635.4886 364.6597,619.2393 266.2273,598.1595 173.0433,579.4459 84.7096,563.02 0.0,548.6509"/>
    <polyline points="407.7583,1024.0 353.3798,1009.1773 300.2783,994.2082 248.1593,979.0174 196.6176,963.4847 146.1337,947.7529 96.3269,931.7026 47.652,915.4798 0.0,899.0531"/>
    <polyline points="1024.0,556.3414 940.5265,538.7557 864.6541,523.4992 793.501,509.9905 725.4899,497.9379 659.8027,487.2087 596.005,477.7416 534.0473,469.5268 473.1413,462.4594 412.8682,456.506 353.1885,451.6785 294.0701,447.9826 235.5976,445.4214 177.9928,444.0048 119.4996,443.6738 60.0755,444.4296 0.0,446.2609"/>
    <polyline points="1024.0,361.7018 965.9482,355.1114 907.7356,349.783 849.4537,345.7292 790.7014,342.9171 731.051,341.3322 670.4609,340.9812 608.9069,341.8631 546.3812,343.9692 483.2264,347.2751 419.0278,351.8025 353.4997,357.5714 286.27,364.6216 217.2712,372.9693 146.8038,382.574 74.5024,393.4773 -0.0,405.7372"/>
    <polyline points="0.0,220.4563 60.2266,216.7324 119.6423,213.7361 177.6185,211.4985 234.3968,210.0071 289.8763,209.2683 343.6581,209.286 395.6667,210.0537 446.1012,211.5754 496.6979,213.9602 561.9099,218.099 641.1463,223.7408 720.3023,230.013 792.9803,236.334 866.4954,243.2635 941.7051,250.8745 1024.0,259.7122"/>
    <polyline points="1024.0,772.0381 948.9638,754.9891 871.4555,736.9089 650.0358,683.7632 539.0585,657.5058 446.7079,636.1823 362.9123,617.4197 262.795,595.963 170.009,577.2575 82.9573,560.9759 0.0,546.8147"/>
    <polyline points="327.3315,1024.0 242.6497,999.3987 159.5548,973.8604 78.6884,947.5768 -0.0,920.5336"/>
    <polyline points="1024.0,604.7173 928.8006,583.3272 853.1704,566.8338 780.3178,551.5666 711.9119,537.9094 645.5794,525.4025 581.5701,514.1159 519.7836,504.0321 459.4014,495.0184 399.2438,486.9288 339.9795,479.8846 281.9229,473.9223 224.6543,468.9908 167.7527,465.0585 111.5545,462.1483 55.6449,460.234 0.0,459.3157"/>
    <polyline points="1024.0,799.1166 925.8287,775.7961 819.103,749.6477 708.6505,721.952 439.03,653.5492 369.4522,636.2453 309.6667,621.7998 227.9642,602.8476 149.2826,585.5529 73.4267,569.8694 -0.0,555.7109"/>
  </g>
</svg>
