<?xml version="1.0" encoding="utf-8" ?>
<svg xmlns="http://www.w3.org/2000/svg" xmlns:cc="http://creativecommons.org/ns" xmlns:dc="http://purl.org/dc/elements/1.1/" xmlns:ev="http://www.w3.org/2001/xml-events" xmlns:inkscape="http://www.inkscape.org/namespaces/inkscape" xmlns:rdf="http://www.w3.org/1999/02/22-rdf-syntax-ns" xmlns:sodipodi="http://sodipodi.sourceforge.net/DTD/sodipodi-0.dtd" xmlns:xlink="http://www.w3.org/1999/xlink" baseProfile="tiny" height="27.09333333cm" version="1.2" viewBox="0 0 1024.0 1024.0" width="27.09333333cm">
  <metadata>
    <rdf:RDF>
      <cc:Work>
        <dc:format>image/svg+xml</dc:format>
        <dc:source>vpype read './original_svgs/Strange Attractors #45.svg' linemerge linesimplify write './Strange Attractors #45.svg'
</dc:source>
        <dc:date>2024-08-05T01:35:21.049576</dc:date>
      </cc:Work>
    </rdf:RDF>
  </metadata>
  <defs/>
  <g fill="none" id="layer1" inkscape:groupmode="layer" inkscape:label="1" stroke="black" stroke-width="0.7mm" style="display:inline">
    <polyline points="517.25,563.875 549.0,524.25 571.625,491.0 586.875,462.25 596.25,436.75 600.875,413.125 601.375,390.0 597.75,366.75 590.125,342.375 578.125,316.875 561.5,289.875 539.875,262.5 513.5,235.875 483.0,212.375 449.625,195.25 415.875,187.5 384.5,191.375 358.125,207.375 338.375,233.625 325.375,267.0 318.5,303.875 316.25,340.625 317.0,375.375 319.75,406.5 323.375,433.625 327.5,456.625"/>
    <polyline points="331.5,475.875 335.5,491.75 339.375,504.75 343.0,515.125 346.5,523.375 350.0,529.75 353.5,534.625 356.875,538.25 360.375,540.875 364.0,542.5 367.625,543.375 371.375,543.625 375.125,543.5 382.75,541.875 390.375,539.25 397.875,536.25 420.625,526.0"/>
    <polyline points="423.25,524.875 434.5,521.0 438.125,520.125 442.5,519.5 445.875,519.5 448.5,519.875 450.875,521.25 451.375,522.75"/>
    <polyline points="451.375,523.125 450.75,524.375 449.5,525.625 446.25,527.875 437.75,531.625 428.75,534.5"/>
    <polyline points="427.125,535.0 417.875,537.5 405.0,540.5 393.625,542.375 383.0,542.875 379.625,542.125 377.625,540.625"/>
    <polyline points="377.25,539.375 377.5,537.75 378.625,535.625 380.75,533.0 384.0,529.625 389.0,525.5 395.75,520.25 405.0,514.0 417.25,506.625 432.75,497.875 452.25,487.875 475.75,477.125 503.125,466.125 533.625,455.75 565.875,447.5 597.375,442.625 626.125,442.25 650.0,446.625 667.875,455.5 679.875,467.75 686.625,482.0 689.5,497.25 689.5,512.25 687.875,526.375 685.125,539.375 681.875,550.875"/>
    <polyline points="678.25,561.0 674.625,569.75 671.0,577.25 667.25,583.5 663.5,588.625 659.625,592.75 655.625,595.875 651.625,598.125 647.5,599.625 643.25,600.25 639.0,600.375 634.5,599.75 625.625,597.125 621.25,595.125 612.5,590.125 604.25,584.375 596.5,578.125 586.0,568.75 580.0,562.75"/>
    <polyline points="577.125,560.0 569.625,552.25 555.5,536.625 548.125,527.625 544.0,521.5"/>
    <polyline points="543.5,520.75 542.125,516.75 542.125,513.375 542.375,512.375 544.0,509.375 546.25,506.875"/>
    <polyline points="546.75,506.25 551.375,502.375 563.625,493.0 569.625,487.75"/>
    <polyline points="570.875,486.5 574.875,482.5 578.875,477.625 581.5,473.875 584.0,469.5 586.5,464.375 588.625,458.375 590.25,451.375 590.875,447.25 591.375,438.0 590.625,426.875 589.625,420.375 588.125,413.25 583.0,396.875"/>
    <polyline points="579.25,387.5 574.375,377.25 568.5,366.25 561.125,354.5 552.375,342.0 542.0,329.25 530.125,316.5 516.5,304.25 501.625,293.25 485.75,284.25 469.25,277.875 452.875,275.125 437.25,276.375 423.25,281.75 411.25,291.125 401.5,304.0 394.375,319.5 389.5,336.625 386.75,354.625 385.75,372.625 386.125,390.0 387.5,406.375 389.625,421.375 392.125,435.0 395.0,447.125 398.0,457.875"/>
    <polyline points="401.0,467.375 406.75,482.625 409.5,488.875 414.5,498.75 418.875,506.0 422.625,511.5 432.5,523.75 433.625,526.0 433.875,527.125 433.625,528.375"/>
    <polyline points="433.5,528.875 432.375,530.5 431.125,531.625 426.625,534.375 423.0,536.125 416.875,538.75 400.0,544.875"/>
    <polyline points="397.375,545.75 367.875,556.25 354.75,561.375 327.375,573.375 306.625,584.0 291.0,593.0 274.625,603.75 266.625,609.625"/>
    <polyline points="259.375,615.5 253.375,621.25 249.5,626.25 248.5,629.75 251.375,631.125 258.875,629.5 271.25,624.25 288.25,615.0 308.75,602.0 331.375,586.0 354.5,567.875 376.75,548.875 397.25,530.0 415.25,511.875 430.5,495.25 443.375,480.25 453.75,467.0 462.125,455.375 468.625,445.375 473.75,436.75 477.625,429.5 480.375,423.5 483.75,414.375 485.0,408.625"/>
    <polyline points="485.125,406.75 484.625,404.625 483.875,404.5 483.0,405.75 482.125,409.75 482.0,415.375 482.5,419.625 485.5,430.625 488.25,436.75 491.5,442.375"/>
    <polyline points="492.625,444.125 496.375,448.75 500.125,452.625 504.0,455.75 507.875,458.25 514.25,461.0 516.75,461.625 520.5,462.125 524.0,462.0"/>
    <polyline points="525.25,461.875 529.75,460.75 533.0,459.25 536.125,457.0 539.75,453.125 542.125,449.25 543.5,446.125 544.5,442.625 545.25,438.5 545.5,434.0"/>
    <polyline points="545.5,431.5 544.875,426.125 543.75,420.125 541.75,413.625 538.875,406.5 534.875,399.0 529.75,391.125 523.5,383.5 519.875,379.75 511.875,373.0 507.625,370.125 503.125,367.625 498.5,365.625 493.875,364.125 489.25,363.375 484.75,363.125 480.5,363.75 476.375,365.0"/>
    <polyline points="472.625,367.0 469.125,369.625 466.125,372.875 463.625,376.75 461.5,381.0 459.75,385.75 458.5,390.75 457.75,395.875 457.25,406.625 457.5,411.875 458.125,417.125 460.0,427.125 462.625,436.375 465.625,444.625 469.125,451.875 472.625,458.25 476.125,463.75 479.75,468.5"/>
    <polyline points="481.375,470.5 484.75,474.25 489.625,479.0 497.0,484.625 502.25,487.875 505.875,489.75 514.625,492.75"/>
    <polyline points="515.625,493.0 521.5,493.875 527.25,493.875 533.0,493.0 539.875,490.875"/>
    <polyline points="541.0,490.5 548.5,486.75 554.375,482.875 557.875,479.875 564.0,473.5 566.375,470.375 569.75,464.625"/>
    <polyline points="570.75,462.5 573.5,455.0 575.375,445.5 575.75,437.75 575.25,428.75 573.5,418.125 569.875,405.625 567.25,398.625 564.0,391.125 560.0,383.125 555.25,374.75 549.625,365.875 542.875,356.75 535.25,347.625 526.625,338.5 517.125,329.875 506.625,322.0 495.5,315.25"/>
    <polyline points="484.0,310.125 472.25,306.875 460.875,306.0 450.125,307.625 440.25,311.875 431.75,318.5 424.625,327.25 419.0,337.75 414.875,349.5 412.25,362.0 410.75,374.875 410.375,387.625 410.875,400.125 412.125,411.875 413.875,422.875 415.875,433.125 418.25,442.375 423.25,458.375 425.875,465.125 431.0,476.5 435.75,485.5 440.0,492.5"/>
    <polyline points="442.0,495.5 447.125,502.5 457.25,514.875 458.875,518.375 458.875,520.625 458.125,522.125"/>
    <polyline points="457.75,522.625 456.375,524.0 454.375,525.375 448.0,528.375 442.0,530.5 431.625,533.25 435.125,531.625 439.625,529.0 441.375,527.375 442.375,525.75 442.625,523.25 441.375,520.375 439.25,517.625"/>
    <polyline points="370.125,552.125 412.875,539.875 424.25,536.125 430.25,533.75 421.625,535.375 413.125,536.375 407.25,536.125 406.125,535.75 404.5,534.625 404.25,532.875 404.625,531.5 407.375,528.0 413.5,522.75 418.125,519.375"/>
    <polyline points="424.25,515.375 441.25,505.625 452.75,499.75 466.375,493.5 482.125,486.875 499.875,480.125 519.25,474.0 539.75,468.625 560.25,464.875 580.0,463.125 598.0,463.625 613.25,466.625 625.5,471.75 634.625,478.75 640.75,486.875 644.375,495.75 645.875,504.75 645.75,513.375 644.625,521.625 642.75,529.0 640.25,535.625 637.625,541.375 634.875,546.25 632.0,550.375 629.125,553.75"/>
    <polyline points="626.375,556.375 623.625,558.5 621.0,560.0 618.375,561.125 616.0,561.75 611.25,562.125 609.125,561.875 604.875,560.75 599.375,558.0 594.5,554.375 590.375,550.625 588.125,548.0 583.625,541.625"/>
    <polyline points="583.0,540.375 581.0,535.875 580.25,532.625 580.125,529.625 580.5,526.875 581.875,523.25 582.875,521.625 584.875,519.125 587.5,516.625"/>
    <polyline points="588.375,515.75 596.75,509.875 620.125,496.375 631.625,488.625"/>
    <polyline points="634.0,486.625 639.0,482.375 646.375,474.25 651.0,467.125 653.125,462.875 655.0,458.0 656.625,452.5 658.0,446.0 658.75,438.625 658.875,429.875 658.125,419.625 656.25,407.625 652.875,393.25 647.5,376.125 639.375,355.75 627.875,331.75 611.875,303.75 590.375,271.75 562.25,236.625 526.875,200.5 484.875,167.5 438.125,143.0"/>
    <polyline points="391.0,133.25 348.625,142.5 315.375,170.5 293.25,213.0 281.375,263.125 277.25,314.5 278.0,362.5 281.25,404.75 285.625,440.625 290.25,470.25 294.625,494.125 298.875,513.125 303.125,528.0 307.375,539.375 311.875,547.625 317.0,553.375 322.625,556.875 329.0,558.375 336.0,558.25 343.5,556.75 351.5,554.0 359.875,550.375 368.375,546.125 377.0,541.375 393.5,531.125"/>
    <polyline points="401.375,526.125 433.625,505.0 447.875,497.0 459.125,492.125 468.25,489.625 475.75,488.75 482.0,489.0 490.75,490.5"/>
    <polyline points="492.25,491.0 512.75,497.0 518.75,497.875"/>
    <polyline points="519.5,498.0 525.25,498.0 530.125,497.375 535.125,496.125 540.625,494.125"/>
    <polyline points="541.625,493.75 548.75,490.125 556.625,484.75 560.25,481.75 563.875,478.125 566.375,475.375 570.0,470.375"/>
    <polyline points="571.125,468.5 574.375,461.875 577.125,453.75 578.375,447.125 578.75,443.375 578.875,434.875 577.875,424.75 576.875,419.125 575.375,412.875 573.375,406.25 570.75,399.0 567.5,391.125 563.375,382.75 558.375,373.875 552.5,364.5 545.625,354.75 537.5,344.875 528.375,335.125 518.125,325.75"/>
    <polyline points="507.0,317.125 495.0,309.75 482.5,304.125 470.0,300.75 457.75,299.875 446.125,301.75 435.625,306.625 426.625,314.0 419.25,323.75 413.5,335.375 409.375,348.25 406.875,361.875 405.625,375.75 405.5,389.375 406.25,402.5 407.75,414.875 409.625,426.375 411.875,436.875 417.0,455.0 422.375,469.375 425.0,475.375 432.25,489.5"/>
    <polyline points="434.5,493.125 438.375,499.125 441.875,503.875 450.875,515.0 452.0,516.75 452.875,518.25 453.5,520.25 453.375,522.0 452.625,523.625"/>
    <polyline points="452.25,524.125 448.625,527.0 443.875,529.375 434.875,532.625 423.125,535.875"/>
    <polyline points="421.25,536.375 407.375,539.25 399.125,540.25 395.25,540.375 391.875,540.125 389.25,539.25 387.875,537.625 387.875,536.375 388.375,534.75 389.75,532.625 395.375,527.0 400.125,523.125"/>
    <polyline points="406.625,518.5 415.25,512.875 426.25,506.375 440.0,498.875 456.875,490.5 477.125,481.375 500.375,472.25 526.125,463.625 553.25,456.5 580.375,451.75 605.75,450.375 627.75,452.625 645.375,458.625 658.125,467.5 666.375,478.625 671.0,490.875 672.625,503.5 672.125,515.75 670.375,527.125 667.875,537.375 664.75,546.5 661.5,554.5 658.25,561.25 654.875,566.875 651.5,571.625 648.25,575.5"/>
    <polyline points="644.875,578.5 641.625,580.75 638.375,582.375 635.125,583.5 631.875,584.0 625.375,583.625 618.875,582.0 609.625,577.5 601.0,571.625 595.75,567.375 586.375,558.75 577.25,548.875"/>
    <polyline points="575.625,547.0 571.625,542.0 567.5,536.125 564.125,529.875 563.25,527.75 562.25,523.75 562.125,521.0 562.75,517.625"/>
    <polyline points="563.0,516.875 564.125,514.375 565.625,512.0 569.125,508.0 584.875,494.25"/>
    <polyline points="586.375,493.0 595.625,483.625 602.0,474.875 605.0,469.5 607.75,463.0 609.0,459.25 610.875,450.5 611.875,439.75 611.25,426.25 610.0,418.25 608.125,409.25 605.375,399.125 601.375,387.75"/>
    <polyline points="596.0,374.875 589.125,360.75 580.125,345.0 569.0,328.0 555.25,309.875 538.875,291.25 519.75,273.125 498.0,256.625 474.625,243.375 450.375,235.0 426.75,233.125 405.125,238.375 386.75,250.75 372.5,269.25 362.375,292.25 356.25,317.875 353.25,344.25 352.875,370.0 354.125,394.0 356.625,415.875 359.75,435.125 363.125,452.0 366.75,466.5 370.25,478.75 373.5,489.125 376.75,497.75"/>
    <polyline points="379.75,505.0 382.625,511.0 387.75,520.0 390.0,523.25 392.25,525.875 396.125,529.75 399.625,532.125 402.75,533.625 407.625,535.125 413.5,536.0 414.375,536.625 414.25,537.375 412.875,538.625 407.25,541.875 392.0,548.875"/>
    <polyline points="389.875,549.75 364.0,561.5 344.5,571.5 332.375,578.625 326.125,583.125 324.75,584.75"/>
    <polyline points="325.125,584.875 328.75,583.5 336.125,579.5 347.0,572.875 360.625,563.75 383.375,547.5 424.25,517.375 434.875,510.125 448.125,502.125 458.75,497.25"/>
    <polyline points="461.75,496.25 467.25,494.75 472.125,493.875 476.375,493.625 482.0,493.875 491.125,495.75 502.0,499.5"/>
    <polyline points="502.875,499.75 511.625,502.625 514.75,503.25 519.25,503.625"/>
    <polyline points="519.75,503.625 523.625,503.375 528.25,502.5 534.75,500.375"/>
    <polyline points="535.5,500.125 541.875,497.375 549.375,493.375 559.25,486.5"/>
    <polyline points="560.375,485.5 566.5,479.75 571.5,473.625 574.0,469.875 576.25,465.625 579.375,457.875 580.25,454.75 581.5,448.0 582.0,444.125 582.125,440.0 581.875,430.375 580.125,419.0"/>
    <polyline points="578.625,412.625 576.5,405.5 573.75,397.875 570.25,389.625 566.0,380.75 560.625,371.25 554.375,361.25 546.875,350.75 538.125,340.125 528.25,329.625 517.125,319.625 505.0,310.5 492.0,302.75 478.5,297.0 465.0,293.875 451.875,293.625 439.625,296.5 428.875,302.5 419.625,311.375 412.25,322.625 406.875,335.75 403.125,350.125 401.0,364.875 400.25,379.75 400.625,394.25 401.75,407.875"/>
    <polyline points="403.625,420.625 405.875,432.375 411.0,452.375 413.75,460.875 419.25,475.0 424.375,485.875 431.125,497.75 436.625,505.625 445.75,517.125 447.25,519.625"/>
    <polyline points="447.625,520.375 448.0,521.625 447.75,524.0 445.75,526.75 442.875,528.75 440.0,530.25 431.0,533.75"/>
    <polyline points="429.375,534.375 412.5,539.375 395.875,543.375 379.875,546.375 371.875,547.25"/>
    <polyline points="369.25,547.375 364.625,547.125 361.0,546.25 359.875,545.25 359.125,544.0 359.25,542.25 360.25,539.875 362.5,536.75 366.25,532.625 372.125,527.5 380.625,521.0 392.5,512.875 408.375,503.0 429.375,491.25 455.875,477.75 488.25,463.125 525.875,448.75 566.875,436.5 608.0,428.625 645.375,427.0 675.875,432.5 697.75,444.625 711.125,461.625 717.625,481.25"/>
    <polyline points="719.375,501.625 718.25,521.375 715.375,539.875 711.75,556.5 707.75,571.5 703.625,584.5 699.25,595.875 694.875,605.625 690.0,613.75 684.875,620.25 679.375,625.25 673.375,628.75 666.875,630.75 660.0,631.375 652.75,630.625 645.375,628.625 637.875,625.75 630.375,621.875 623.0,617.25 615.75,612.25 608.75,606.875 595.875,595.5 579.375,579.125"/>
    <polyline points="574.625,574.125 550.125,547.375 539.0,536.25 529.375,528.375 521.125,523.375"/>
    <polyline points="520.125,522.875 516.5,521.375 511.0,519.75 506.25,519.0 501.75,518.875"/>
    <polyline points="501.125,518.875 493.5,519.5 484.125,521.25"/>
    <polyline points="483.375,521.375 468.25,524.375 460.5,525.375"/>
    <polyline points="459.5,525.5 454.5,525.625 452.625,525.25 451.625,524.375 451.5,523.5 452.125,522.375 454.625,520.0 462.125,515.375 468.125,512.5"/>
    <polyline points="471.75,510.75 485.375,505.5 490.75,503.75 502.625,500.375 509.0,498.875 515.5,497.625 528.375,495.875 540.625,495.5 551.125,496.75 555.5,497.875 559.375,499.375 562.625,501.125 565.125,503.0 567.125,505.125 568.5,507.25 569.375,509.375 569.875,511.5 569.875,513.625 568.875,517.375"/>
    <polyline points="568.0,519.0 567.0,520.5 563.125,523.875 560.125,525.25 555.75,526.375 550.125,526.25 546.375,525.5 542.125,524.0 537.875,521.75"/>
    <polyline points="537.125,521.25 534.25,519.125 532.625,517.5 531.0,515.25 530.5,513.5 530.625,512.0"/>
    <polyline points="530.625,511.625 532.0,509.25 533.5,507.75 539.125,503.875"/>
    <polyline points="539.75,503.5 552.375,495.625 562.125,488.375"/>
    <polyline points="563.25,487.375 569.5,481.5 574.625,475.25 579.625,467.125 582.875,459.25 585.25,449.125 586.0,440.875 585.625,431.0 584.0,419.25"/>
    <polyline points="582.375,412.375 580.25,405.0 577.375,396.875 573.75,388.125 569.125,378.625 563.5,368.5 556.75,357.75 548.625,346.5 539.125,335.0 528.375,323.5 516.125,312.625 502.875,302.875 488.625,294.75 473.875,288.875 459.25,286.0 445.25,286.5 432.25,290.5 421.0,298.0 411.75,308.625 404.5,321.75 399.375,336.625 396.125,352.5 394.5,368.625 394.25,384.625 395.125,399.875 396.75,414.125"/>
    <polyline points="398.875,427.125 401.375,439.0 404.125,449.625 407.0,459.125 412.625,474.75 415.375,481.125 420.5,491.625 425.0,499.5 430.75,507.875 439.875,519.5 441.625,522.625"/>
    <polyline points="441.75,523.375 441.875,525.25 441.5,526.375 440.25,528.0 437.5,530.125 431.25,533.375 420.375,537.375"/>
    <polyline points="418.5,538.0 395.25,545.25 357.0,556.375 338.125,562.375"/>
    <polyline points="332.75,564.25 307.625,573.5 292.0,580.25 273.375,589.25 262.625,594.875 250.75,601.625 237.75,609.625 223.5,619.0 208.375,629.875 193.0,642.25 178.75,655.75 167.875,669.0 164.125,679.875 171.25,685.0 192.875,680.375 229.125,663.75 275.625,635.0 325.625,597.5 372.375,556.125 411.5,514.625 441.5,475.75"/>
    <polyline points="462.375,440.625 475.375,409.25 481.75,381.75 482.375,357.625 478.5,336.75 471.125,319.375 461.0,305.625 449.125,296.0 436.5,290.625 424.0,290.0 412.375,293.75 402.25,301.75 394.25,313.375 388.25,327.5 384.375,343.5 382.25,360.375 381.75,377.25 382.625,393.625 384.25,409.125 386.75,423.375 389.5,436.25 392.625,447.875 395.875,458.125 399.125,467.125 405.375,481.75"/>
    <polyline points="408.375,487.625 411.25,492.75 418.875,504.0 421.125,506.875 426.875,513.125 437.0,522.375 438.5,524.875 438.75,525.875 438.5,526.875"/>
    <polyline points="438.375,527.375 437.25,529.0 435.375,530.5 429.5,533.75 420.875,537.25 406.875,542.125"/>
    <polyline points="404.5,542.875 366.625,555.125 343.25,563.5 319.0,573.625 304.0,580.625 286.75,589.75"/>
    <polyline points="277.125,595.25 256.125,608.5 245.0,616.25 234.25,624.75 224.375,633.5 216.875,641.875 213.0,648.875 214.875,653.125 224.0,652.75 241.5,646.375 266.5,633.125 297.25,613.5 330.375,589.125 362.75,562.0 392.125,534.25 417.0,507.625 437.25,483.0 452.75,460.75 464.25,441.125 472.125,424.0 477.125,409.25 479.625,396.5 480.25,385.75 479.25,376.875 477.0,369.625"/>
    <polyline points="473.875,364.0 470.125,360.125 466.125,357.625 461.875,356.75 457.75,357.25 453.875,359.125 450.375,362.25 447.25,366.375 444.75,371.5 442.875,377.25 441.5,383.5 440.75,390.25 440.5,397.125 440.75,404.0 441.375,410.875 443.625,424.0 446.75,436.125 450.625,446.625 456.75,459.875 461.0,467.125"/>
    <polyline points="463.0,470.25 466.875,475.875 470.625,480.5 475.875,486.25 481.875,491.875 487.0,496.125 496.375,502.625"/>
    <polyline points="497.0,503.125 503.875,507.375 511.875,511.625 513.5,511.5 521.375,508.625"/>
    <line x1="521.625" x2="530.875" y1="508.5" y2="504.625"/>
    <polyline points="531.375,504.375 537.375,501.75 549.5,495.125"/>
    <polyline points="550.5,494.5 558.0,489.375 562.75,485.5 570.25,477.875 575.25,470.875 577.625,466.625 579.75,461.75"/>
    <polyline points="580.75,459.0 583.125,449.125 583.875,441.125 583.875,436.625 583.625,431.625 582.0,420.125 580.625,413.625 578.625,406.5 572.5,390.375 568.25,381.375 563.0,371.75 556.625,361.375 549.0,350.75 540.25,339.75 530.125,328.75 518.75,318.25 506.25,308.625 492.875,300.375 478.875,294.25 464.875,290.625 451.125,290.125"/>
    <polyline points="438.5,293.0 427.125,299.125 417.5,308.25 409.875,320.0 404.25,333.625 400.5,348.5 398.25,363.875 397.625,379.25 398.0,394.125 399.25,408.25 401.125,421.375 403.375,433.375 406.0,444.25 408.75,453.875 411.5,462.5 414.375,470.0 417.125,476.75 422.25,487.625 429.0,499.375 432.75,505.0 436.0,509.25"/>
    <polyline points="437.375,511.0 443.875,519.25 445.0,521.625 445.25,522.875 445.25,524.125 444.125,526.375 441.875,528.375 439.375,530.0"/>
    <polyline points="438.375,530.5 429.625,534.25 423.0,536.5 413.25,539.5 390.75,545.5"/>
    <polyline points="387.875,546.25 365.5,551.375 344.375,555.125 334.25,555.875 328.625,555.375 326.375,554.625 324.75,553.375 324.0,551.625 324.375,549.0 326.25,545.375 330.375,540.375 337.5,533.625"/>
    <polyline points="348.5,524.625 365.0,512.875 388.375,497.75 420.75,479.125 463.375,457.375 516.5,434.125 577.375,413.0 639.625,399.125 694.875,397.125 736.25,408.625 761.5,431.375 773.25,461.125 776.125,493.375 774.25,525.25 770.375,555.375 765.875,583.0 761.0,608.125 755.75,630.75 749.75,650.625 742.25,667.375 733.125,680.75 722.0,690.125 709.0,695.25 694.375,696.0 678.625,692.625 662.5,685.5"/>
    <polyline points="646.375,675.5 630.875,663.625 616.5,650.5 603.5,636.875 592.0,623.5 581.875,610.75 573.125,598.875 559.5,578.25 554.25,569.625 546.25,555.375 533.125,529.25 530.5,524.75 527.625,521.75"/>
    <polyline points="527.0,521.375 525.625,520.75 522.625,520.25 506.375,520.5"/>
    <polyline points="505.5,520.5 497.625,520.75 484.25,521.75"/>
    <polyline points="483.375,521.75 474.0,522.25 471.0,521.75 470.25,521.25 470.125,520.5"/>
    <polyline points="470.25,520.25 471.25,519.0 473.5,517.5 478.5,515.0 484.0,512.75 491.125,510.375 496.625,508.875 505.625,507.0 515.0,505.75 518.0,505.625"/>
    <polyline points="520.875,505.5 528.875,506.0 533.25,507.0 536.625,508.25 540.0,510.625 540.75,511.5 541.375,513.25 541.375,515.0 540.625,516.5 538.0,518.875 534.25,520.375"/>
    <polyline points="533.25,520.625 530.0,521.25 522.625,521.375 508.625,520.25"/>
    <polyline points="507.875,520.125 499.125,520.0 488.25,521.0"/>
    <line x1="487.375" x2="465.0" y1="521.125" y2="524.625"/>
    <polyline points="464.125,524.625 461.5,524.875 457.75,524.75 455.875,524.125 455.375,523.125 456.25,521.5 458.75,519.25 466.0,515.125"/>
    <polyline points="468.625,513.75 478.625,509.5 487.125,506.375 497.0,503.375 513.625,499.625 519.375,498.75 530.5,497.75 540.75,498.0 545.25,498.625 552.875,500.625 555.875,502.0 558.5,503.625 560.5,505.375 562.0,507.125 563.0,509.0 563.625,510.75 563.875,512.625"/>
    <polyline points="563.75,514.375 562.75,517.5 560.875,520.0 558.625,522.0 554.625,524.0 551.75,524.75 547.625,525.125 541.5,524.375 535.375,522.375"/>
    <polyline points="534.5,522.0 530.0,519.875 526.75,517.875 523.25,514.875 522.125,513.25 521.875,512.375 522.375,510.75 524.0,509.25 531.0,505.375"/>
    <polyline points="531.5,505.25 542.0,499.875 548.75,496.0"/>
    <polyline points="549.75,495.375 560.5,487.875 567.875,481.125 574.125,473.25 576.625,469.25 578.875,464.75"/>
    <polyline points="580.0,462.125 582.75,453.25 584.25,441.75 584.125,432.25 582.625,420.875 581.25,414.5 579.25,407.375 576.625,399.75 573.25,391.375 569.125,382.25 563.875,372.625 557.625,362.375 550.25,351.625 541.5,340.5 531.5,329.5 520.125,318.75 507.625,308.875 494.125,300.375 480.125,294.0 465.875,290.125"/>
    <polyline points="452.125,289.25 439.125,291.75 427.625,297.625 417.75,306.625 409.875,318.375 404.0,332.0 400.0,346.875 397.75,362.375 397.0,377.875 397.25,393.0 398.5,407.25 400.375,420.625 402.625,432.75 405.25,443.625 410.75,462.25 413.625,469.875 419.0,482.5 421.5,487.75 426.25,496.125 433.875,507.5"/>
    <polyline points="435.375,509.5 442.625,518.625 444.375,521.875 444.625,523.75 443.5,526.625 439.5,529.75"/>
    <polyline points="438.625,530.25 434.25,532.375 423.875,536.25 412.125,539.875 392.0,545.375"/>
    <polyline points="389.125,546.125 355.5,554.25 331.75,558.875 323.75,560.0 316.125,560.625 309.375,560.25 306.75,559.5 304.875,558.125 304.0,556.0"/>
    <polyline points="304.5,553.0 307.125,548.625 312.5,542.375 321.875,533.75 336.75,522.0 359.25,506.25 392.0,485.875 437.5,460.625 497.25,432.0 569.375,404.125 645.875,384.0 714.75,379.0 765.375,392.375 794.375,421.0 806.25,458.5 807.75,498.75 804.625,538.375 800.0,575.5 795.0,610.0 789.625,641.75 783.125,670.25 774.375,694.875 762.75,714.5 747.625,728.0 729.125,734.375 708.0,733.375"/>
    <polyline points="685.5,725.75 662.75,712.5 641.0,695.375 621.25,676.125 603.875,656.25 589.25,636.875 577.125,618.75 567.5,602.375 560.0,587.75 554.25,575.0 550.25,564.125 547.375,554.75 545.625,546.875 544.75,540.375 544.375,534.875 544.5,530.5 544.875,527.0 546.375,522.0 547.875,519.125 549.0,517.875 549.75,517.75"/>
    <polyline points="549.625,518.0 547.875,519.625 546.25,520.5 541.125,522.125 536.375,522.625 531.625,522.625 525.0,521.875"/>
    <polyline points="524.0,521.75 510.875,519.625 503.75,519.125"/>
    <polyline points="503.125,519.125 496.5,519.375 485.625,521.0"/>
    <polyline points="484.875,521.25 468.0,524.375 462.25,525.125"/>
    <polyline points="461.375,525.25 458.625,525.5 454.75,525.375 452.75,524.625 452.375,523.5 453.375,521.75 455.25,520.125 460.0,517.0 464.875,514.375"/>
    <polyline points="467.875,512.875 475.25,509.625 489.5,504.5 495.0,502.75 506.875,499.625 519.5,497.25 525.75,496.5 537.875,496.0 543.375,496.25 548.375,496.875 553.0,497.875 556.875,499.125 560.25,500.75 563.0,502.5 565.125,504.5 566.75,506.625 567.75,508.625 568.375,510.75 568.625,512.75 568.375,514.75"/>
    <polyline points="567.875,516.5 566.25,519.75 563.875,522.25 559.625,524.75 556.75,525.625 553.875,526.125 548.375,525.875 543.625,524.75 540.625,523.625 538.0,522.25"/>
    <polyline points="537.125,521.875 533.875,519.75 531.125,517.375 529.5,515.25 528.875,513.625 528.875,512.75"/>
    <polyline points="528.875,512.5 529.125,511.125 529.75,510.0 531.5,508.125 535.125,505.625"/>
    <polyline points="535.625,505.25 547.875,498.0 554.5,493.625"/>
    <polyline points="555.5,492.875 562.375,487.75 566.0,484.5 572.375,477.625 574.875,474.125 578.625,468.125 580.875,463.25 582.875,457.625 584.375,451.0"/>
    <polyline points="585.0,447.25 585.375,443.125 585.375,433.75 585.0,428.375 582.875,416.0 581.0,409.0 578.5,401.25 575.25,393.0 571.25,383.875 566.25,374.125 560.125,363.75 552.75,352.875 544.125,341.5 534.125,330.125 522.75,319.0 510.125,308.625 496.5,299.625 482.125,292.625 467.5,288.125 453.125,286.75 439.75,288.75 427.625,294.375 417.25,303.25 409.0,314.875"/>
    <polyline points="402.75,328.625 398.375,343.875 396.0,359.875 395.0,375.75 395.25,391.375 396.375,406.0 398.25,419.75 400.625,432.25 403.25,443.5 406.0,453.5 408.875,462.5 414.5,477.125 417.125,483.25 424.375,497.0 430.375,506.125 438.375,516.5"/>
    <polyline points="366.375,553.125 345.125,559.25 330.0,564.0 318.5,567.875 298.25,575.375 281.875,582.375 262.0,591.875 237.5,605.5 223.0,614.375 207.125,625.0 190.125,637.625 172.75,652.25 156.875,668.0 145.875,683.375"/>
    <polyline points="144.625,695.0 158.75,697.875 191.375,687.5 240.25,661.375 297.75,622.125 354.0,575.25 402.125,526.75 438.875,480.625 464.0,438.5 478.875,400.875 484.875,367.5 483.75,338.125 476.625,312.75 465.0,291.625 449.875,275.5 433.0,265.125 415.625,261.25 399.25,264.0 385.0,273.25 373.625,287.875 365.375,306.625 360.25,328.0 357.75,350.25 357.5,372.5 358.75,393.5 361.125,413.0"/>
    <polyline points="364.25,430.375 367.75,445.875 371.5,459.25 375.25,470.75 379.0,480.625 382.625,488.875 389.375,501.75 395.5,510.625 401.0,516.625 405.875,520.75 408.125,522.25 413.875,525.25 423.875,528.5"/>
    <polyline points="424.75,528.75 426.75,529.875 427.25,530.5 427.25,531.5 426.375,532.75 421.625,536.0 414.0,539.625"/>
    <polyline points="412.375,540.25 400.875,545.0 375.5,554.75 360.25,561.125 346.625,567.25 331.125,574.875"/>
    <polyline points="325.5,577.875 307.875,588.0 296.5,595.5 287.0,603.0 283.625,606.25 281.875,608.75 281.875,610.375 284.25,610.5 289.25,609.0 296.875,605.5 307.125,599.875 319.5,592.25 333.625,582.75 348.75,571.75 364.25,559.875 379.375,547.625 393.75,535.375 418.875,512.625 447.0,485.375"/>
    <polyline points="454.125,478.25 474.25,459.125 480.875,453.75 486.25,450.375 492.375,447.75 497.375,447.125 500.25,447.25 511.25,449.5"/>
    <polyline points="512.375,449.75 515.5,450.125 520.625,449.875 523.375,449.125 526.0,447.75 528.25,445.875 530.375,443.375 531.5,441.375 532.875,437.75"/>
    <polyline points="533.125,436.375 533.625,431.75 533.625,428.25 532.75,422.5 530.75,416.0 527.5,409.0 524.625,404.25 521.125,399.5 517.0,395.0 509.75,389.25 504.625,386.375"/>
    <polyline points="501.875,385.375 496.5,384.125 493.875,384.0 491.375,384.25 486.625,385.875 484.5,387.125 480.875,390.625 479.25,392.875 476.875,398.0 475.5,404.0 475.125,407.125 474.875,410.25 475.25,416.75 476.125,423.25 477.625,429.5 480.75,438.0"/>
    <polyline points="482.0,440.625 485.875,447.875 488.75,452.0 491.625,455.625 496.0,460.375 500.375,464.125 507.5,468.75 513.0,471.125 517.0,472.25"/>
    <polyline points="518.375,472.5 522.25,473.0 526.0,473.0 531.0,472.25 534.625,471.25 537.0,470.25 541.625,467.5 545.0,464.75 548.125,461.25"/>
    <polyline points="549.125,460.0 551.875,455.375 553.5,451.625 555.25,445.125 556.0,439.875 556.125,434.0 555.625,427.25 555.0,423.5 551.625,411.0 549.875,406.375 545.25,396.375 539.0,385.75 535.125,380.25 530.75,374.75"/>
    <polyline points="526.0,369.375 520.75,364.0 515.0,359.125 508.875,354.625 502.375,350.625 495.75,347.5 489.0,345.125 482.375,343.875 475.75,343.75 469.5,344.75 463.75,346.875 458.5,350.25 453.875,354.75 450.0,360.125 446.75,366.25 444.375,373.125 442.625,380.375 441.5,387.875 441.0,395.5 441.125,403.0 441.625,410.5 442.5,417.625 445.25,431.0 448.75,442.875"/>
    <polyline points="450.625,448.125 452.625,453.125 456.75,461.75 462.875,472.25 466.75,477.75 470.375,482.5 475.375,488.125 484.875,496.875 490.0,500.875"/>
    <polyline points="490.875,501.5 499.0,507.25 502.5,510.25"/>
    <polyline points="502.75,510.375 503.75,511.875 503.75,512.875 503.125,513.75 501.125,515.0 497.5,516.375"/>
    <line x1="497.125" x2="484.75" y1="516.5" y2="520.375"/>
    <polyline points="484.0,520.5 471.0,523.75 462.125,525.375"/>
    <polyline points="461.125,525.625 455.125,526.375 450.75,526.375 448.375,525.75 447.75,525.0 448.0,523.5 449.25,522.0 453.125,519.0"/>
    <polyline points="455.125,517.625 463.625,513.0 471.75,509.375 482.0,505.25 494.125,501.25 500.875,499.25 515.25,495.875 522.5,494.625 536.875,493.25 543.625,493.25 549.875,493.75 555.625,494.625 560.625,495.875 564.875,497.625 568.375,499.625 571.125,502.0 573.25,504.375 574.625,506.875 575.5,509.375"/>
    <polyline points="575.75,511.875 575.75,514.25 575.25,516.5 573.375,520.375 570.875,523.375 567.875,525.625 566.25,526.375 563.125,527.5 560.0,528.0 555.625,527.875 549.375,526.25 545.5,524.25"/>
    <polyline points="544.625,523.75 541.875,521.625 538.625,518.0 537.375,514.625 537.375,512.875 537.75,511.625"/>
    <polyline points="537.875,511.25 539.5,508.75 541.0,507.125 544.75,504.0 550.625,499.75"/>
    <polyline points="551.5,499.125 561.5,491.875 568.75,485.625 575.25,478.5 577.875,475.0 580.375,471.0"/>
    <polyline points="581.625,468.75 584.0,463.75 586.0,458.0 588.25,447.125 588.75,438.125 588.0,427.375 587.125,421.125 583.625,406.875 580.875,398.625 577.375,389.75 572.875,380.0 567.25,369.5 560.5,358.375 552.25,346.625 542.75,334.5 531.625,322.375 519.0,310.625 505.125,300.0 490.25,291.0"/>
    <polyline points="474.75,284.375 459.125,280.75 444.125,280.875 430.375,284.75 418.25,292.5 408.25,303.625 400.625,317.5 395.125,333.125 391.75,350.0 390.125,367.125 390.0,383.875 390.875,399.875 392.625,414.875 395.0,428.5 397.625,440.75 400.375,451.75 406.25,470.0 409.125,477.375 414.5,489.5 419.375,498.5 425.5,508.0"/>
    <polyline points="427.125,510.375 436.0,521.5 437.375,523.875 437.75,525.25 437.625,527.0 437.125,528.125 436.25,529.25 432.625,531.875"/>
    <polyline points="431.625,532.5 427.0,534.75 417.625,538.5 378.75,551.375"/>
    <polyline points="375.25,552.5 344.25,563.625 326.75,570.875 313.0,577.25 288.25,590.0 278.875,595.5 258.625,608.375 248.25,615.875 238.25,623.875 229.5,631.875 223.0,639.5 220.25,645.5 223.125,648.625 232.625,647.5"/>
    <polyline points="249.75,640.75 273.625,627.75 302.375,609.125 333.125,586.375 363.5,561.125 391.0,535.375 414.75,510.5 434.25,487.375 449.625,466.625 461.25,448.25 469.625,432.25 475.25,418.25 478.625,406.375 480.25,396.25 480.375,387.875 479.375,381.0 477.5,375.5 475.0,371.5 472.0,368.625 468.75,367.125 465.5,366.875 462.375,367.625 459.375,369.5 456.75,372.25 454.5,375.875 452.625,380.125"/>
    <polyline points="451.125,385.0 449.625,395.75 449.75,407.125 450.25,412.875 451.125,418.5 453.5,429.25 455.0,434.375 460.125,447.875 463.875,455.5 467.75,462.125 473.375,470.375 480.5,478.625 483.875,481.875"/>
    <polyline points="485.375,483.375 489.875,487.125 497.625,492.5 505.0,496.375 510.375,498.5 512.875,499.125"/>
    <polyline points="513.625,499.375 518.75,500.25 522.375,500.375 525.875,500.125 531.75,499.0"/>
    <polyline points="532.5,498.75 538.25,496.875 545.625,493.5 551.875,489.875 556.375,486.75"/>
    <polyline points="557.5,485.75 563.625,480.5 569.75,473.25 573.375,467.625 576.5,460.625 578.375,455.0 579.125,451.75 580.125,444.625 580.375,436.25 579.625,426.25"/>
    <polyline points="578.625,420.5 575.375,407.625 572.875,400.25 569.625,392.375 565.625,383.875 560.75,374.875 554.875,365.375 548.0,355.375 540.0,345.125 530.75,335.0 520.375,325.125 508.875,316.0 496.625,308.125 483.875,302.0 470.75,298.125 458.0,296.875 445.875,298.5 435.0,303.125 425.375,310.5 417.625,320.5 411.625,332.375 407.25,345.75 404.5,359.75 403.25,374.125 403.125,388.25"/>
    <polyline points="403.875,401.875 405.375,414.625 407.375,426.375 409.625,437.25 414.875,455.75 420.25,470.5 422.875,476.5 427.875,486.625 432.375,494.5 438.125,503.0 449.25,517.125"/>
    <polyline points="449.75,517.875 450.75,520.125 450.875,522.5 450.5,523.625 449.375,525.25 447.625,526.75 444.375,528.625 437.625,531.5"/>
    <polyline points="436.25,532.0 428.75,534.5 411.5,539.125 395.75,542.125 386.75,543.0"/>
    <polyline points="384.625,543.0 379.375,542.25 378.125,541.625 377.375,540.75 377.0,539.5 377.25,537.875 378.25,535.875 380.25,533.125 383.5,529.875 388.375,525.625 395.125,520.5 404.375,514.375 416.5,506.875 432.0,498.125 451.375,488.25 474.75,477.375 502.25,466.25 532.875,455.875 565.125,447.5 596.875,442.5 625.875,441.875 650.0,446.25 668.125,455.0 680.25,467.25"/>
    <polyline points="687.125,481.625 690.0,496.875 690.125,512.0 688.375,526.25 685.625,539.375 682.375,551.0 678.875,561.25 675.125,570.0 671.5,577.5 667.75,583.875 664.0,589.0 660.125,593.125 656.125,596.375 652.125,598.625 647.875,600.125 643.625,600.875 639.25,600.875 634.875,600.375 625.875,597.625 616.875,593.125 608.375,587.625 600.25,581.5"/>
    <polyline points="596.375,578.375 582.625,565.875 571.75,554.75 561.25,543.5 551.375,532.25 546.875,526.625"/>
    <polyline points="546.125,525.625 543.375,521.5 542.0,518.625 541.5,516.875 541.375,513.5 542.0,511.5 542.875,510.0"/>
    <polyline points="543.125,509.5 546.25,506.0 549.375,503.375 561.0,494.625"/>
    <polyline points="562.0,493.75 565.5,491.0 573.0,484.0 578.25,477.75 582.25,471.875 584.75,467.25 588.0,458.75 589.75,451.75 590.75,443.375"/>
    <polyline points="590.875,438.625 590.75,433.375 589.375,421.25 585.875,406.625 583.0,398.25 579.375,389.0 574.75,378.875 569.0,368.125 561.875,356.5 553.375,344.25 543.375,331.625 531.75,318.875 518.5,306.625 504.0,295.5 488.25,286.25 472.0,279.5 455.75,276.125 440.125,276.75 425.875,281.375 413.625,290.125 403.625,302.375 396.125,317.25 390.875,334.0 387.75,351.75"/>
    <polyline points="386.5,369.625 386.625,387.125 387.875,403.5 389.75,418.625 392.25,432.5 398.0,455.75 401.0,465.375 404.0,473.75 406.875,481.0 412.25,492.875 417.0,501.625 422.875,510.625 433.0,523.375"/>
    <polyline points="433.5,524.125 434.375,526.125 434.5,527.375 433.875,529.125 432.5,530.75 427.625,534.0 416.25,539.0"/>
    <polyline points="414.375,539.625 361.75,558.375 336.625,568.75 324.25,574.5"/>
    <polyline points="317.5,577.875 302.75,585.625 286.5,595.125 278.0,600.5 269.5,606.375 261.375,612.5 254.125,618.75 248.375,624.625 245.0,629.5 245.0,632.75 249.375,633.5 258.875,630.75 273.5,623.875 292.625,612.875 315.0,598.0 339.125,580.25 363.0,560.875 385.5,540.875 405.625,521.375 423.0,503.125 437.625,486.375 449.5,471.5 459.0,458.375 466.5,447.0"/>
    <polyline points="472.25,437.25 476.5,429.0 479.5,422.0 483.0,411.375 483.875,404.5 483.75,402.25 483.375,400.625 482.75,399.625 482.125,399.25 481.375,399.25 480.625,399.75 479.25,402.0 478.25,405.375 477.75,409.625 478.125,417.125 479.0,422.25 480.375,427.5"/>
    <polyline points="481.125,430.125 483.0,435.0 485.25,439.625 487.625,443.875 492.875,451.25 497.125,455.75 499.875,458.25 504.0,461.375 508.125,463.875 513.5,466.125"/>
    <polyline points="514.875,466.5 517.375,467.25 521.25,467.75 527.5,467.5 531.125,466.625 535.75,464.625 539.0,462.5 541.125,460.75 544.125,457.375"/>
    <polyline points="545.0,456.125 546.75,453.25 548.25,450.0 549.5,446.25 550.75,439.5 550.875,431.5 549.5,421.75 548.625,418.125 546.125,410.375 542.5,401.875 540.125,397.375 534.375,388.125 527.125,378.75"/>
    <polyline points="522.875,374.25 513.375,365.75 508.125,362.0 502.625,358.875 497.0,356.25 491.375,354.375 485.75,353.375 480.25,353.25 475.0,354.0 470.0,355.625 465.5,358.375 461.5,361.875 458.0,366.125 455.0,371.125 452.75,376.625 451.0,382.5 449.75,388.75 449.125,395.25 448.875,401.75 449.125,408.125 449.75,414.375 451.75,426.375 454.75,437.25"/>
    <polyline points="456.375,442.25 460.0,451.125 463.75,458.875 467.625,465.5 473.25,473.5 478.625,479.875 483.375,484.75 491.75,491.75 496.5,494.875"/>
    <polyline points="497.625,495.625 501.5,497.875 509.5,501.375 516.5,503.0"/>
    <polyline points="517.125,503.0 522.25,503.125 524.625,502.875 532.125,501.125"/>
    <polyline points="532.75,500.875 539.5,498.25 544.75,495.75 550.625,492.375 554.875,489.5"/>
    <polyline points="556.0,488.75 560.75,485.0 566.875,479.125 573.125,471.0 575.375,466.875 578.625,459.5 580.375,453.5 581.5,446.5 582.0,438.125"/>
    <polyline points="581.875,433.5 580.625,422.75 579.375,416.625 575.375,402.625 572.375,394.75 568.5,386.25 563.875,377.125 558.25,367.5 551.5,357.375 543.5,346.875 534.375,336.375 524.0,326.0 512.5,316.25 500.125,307.625 486.875,300.625 473.5,295.875 460.125,293.75 447.375,294.75 435.625,298.75 425.375,305.875 417.0,315.625 410.375,327.625 405.5,341.25 402.5,355.75"/>
    <polyline points="400.875,370.5 400.625,385.25 401.25,399.375 402.625,412.625 404.625,425.0 407.0,436.25 412.25,455.5 417.75,470.75 423.0,482.625 425.5,487.375 432.125,498.625 439.0,508.25 445.5,516.375"/>
    <polyline points="446.25,517.25 448.0,520.5 448.375,522.375 448.0,524.125 447.375,525.25 445.875,526.75 443.75,528.25 436.5,531.75"/>
    <polyline points="435.125,532.25 432.375,533.375 420.625,537.125 408.0,540.5 395.875,543.25 382.625,545.625"/>
    <polyline points="380.0,546.0 372.25,546.75 365.625,546.375 362.5,545.125 361.75,543.875 361.5,542.375 362.125,540.25 363.75,537.5 366.875,534.0 371.875,529.375 379.0,523.625 389.125,516.375 402.875,507.5 421.125,496.875 444.375,484.5 473.375,470.75 507.625,456.625 546.125,443.5 586.375,433.625 624.875,428.875 658.125,430.75"/>
    <polyline points="683.875,439.375 701.125,453.5 710.875,471.25 715.0,490.75 715.25,510.25 713.375,528.875 710.125,545.875 706.375,561.25 702.375,574.875 698.25,586.625 694.0,596.875 689.5,605.5 684.875,612.625 679.75,618.25 674.25,622.5 668.5,625.375 662.25,626.875 655.625,627.0 648.875,626.125 641.875,624.125 634.75,621.125 627.75,617.5 620.875,613.125 614.125,608.375 601.375,598.125"/>
    <polyline points="595.5,592.875 589.875,587.625 575.375,572.875 544.75,540.25 535.625,532.0 531.375,528.5 527.625,525.875"/>
    <polyline points="526.5,525.25 524.5,523.875 518.25,520.75 512.75,518.875 508.125,518.0"/>
    <polyline points="507.5,517.875 500.375,517.875 494.375,518.75"/>
    <line x1="493.75" x2="475.625" y1="518.875" y2="522.875"/>
    <polyline points="474.75,523.0 466.125,524.75 459.25,525.75 455.5,526.0 451.75,525.75"/>
    <polyline points="451.125,525.5 450.25,525.125 449.875,523.875 451.0,522.0 453.0,520.25 460.75,515.5 470.75,510.625 479.875,506.875 496.875,501.25 503.25,499.5 516.75,496.625"/>
    <polyline points="523.625,495.5 537.0,494.5 543.125,494.625 548.875,495.125 554.0,496.0 558.625,497.375 562.5,499.0 565.625,500.875 568.25,503.0 570.125,505.25 571.375,507.5 572.125,509.875 572.375,512.125 571.875,516.375 570.125,519.875 569.0,521.375 566.25,523.875 561.75,526.125 558.75,526.875"/>
    <polyline points="557.25,527.0 553.0,527.0 549.125,526.25 545.75,525.125 541.125,522.75 538.375,520.875 535.25,517.625"/>
    <polyline points="534.875,517.125 534.125,515.875 533.625,514.25 533.625,512.125 534.375,510.375 536.375,507.875"/>
    <polyline points="536.75,507.5 542.375,503.25 553.625,495.875"/>
    <polyline points="554.625,495.125 561.125,490.375 567.125,485.125 571.0,481.25 574.875,476.625 578.625,470.875 581.125,466.375 584.25,458.125"/>
    <polyline points="585.125,455.0 586.5,447.625 586.875,443.5 587.0,439.0 586.5,428.5 584.375,416.0 582.5,408.875 580.0,401.0 576.75,392.5 572.625,383.25 567.375,373.25 561.125,362.5 553.5,351.25 544.625,339.625 534.25,327.875 522.5,316.375 509.5,305.75 495.375,296.5 480.5,289.375 465.375,284.875 450.625,283.75 436.875,286.25 424.5,292.375"/>
    <polyline points="414.125,301.875 405.75,314.25 399.625,328.875 395.625,344.75 393.25,361.25 392.5,377.625 393.0,393.5 394.375,408.5 396.375,422.25 398.875,434.875 401.5,446.125 404.375,456.25 410.125,472.875 415.625,485.625 420.625,495.25 424.875,502.5 430.25,510.125 434.375,515.25"/>
    <polyline points="435.5,516.625 439.625,522.375 440.25,524.5 440.125,526.25 438.625,528.5 436.0,530.625 430.75,533.25"/>
    <polyline points="429.5,533.875 422.125,536.875 412.625,540.125 369.0,553.625"/>
    <polyline points="365.0,554.875 347.0,560.875 330.75,566.875 303.125,578.625 285.875,587.125 276.0,592.375 253.875,605.5 241.625,613.625 228.875,622.75 216.25,632.875 204.875,643.375 196.25,653.625 192.625,662.0 196.875,666.375 211.125,664.25 236.125,653.625"/>
    <polyline points="269.875,634.375 308.875,607.5 348.25,575.875 384.25,542.625 414.625,510.125 438.625,480.0 456.375,452.75 468.625,428.5 476.25,407.375 479.875,389.0 480.25,373.125 478.25,359.75 474.125,348.75 468.5,340.25 461.875,334.0 454.75,330.375 447.5,329.25 440.5,330.5 434.125,334.125 428.625,339.75 424.125,347.125 420.625,355.875 418.25,365.5 416.75,375.875 416.25,386.375 416.5,396.875"/>
    <polyline points="417.375,407.125 420.625,426.125 422.75,434.75 427.625,449.875 430.125,456.5 435.125,467.75 437.625,472.625 442.5,480.75 448.875,490.125 457.625,500.5 464.75,507.875"/>
    <polyline points="465.625,508.75 468.875,512.5 470.25,514.875 470.625,516.5 470.625,517.375 470.0,519.125 468.625,520.75 467.125,521.875"/>
    <polyline points="466.5,522.25 463.75,523.75 456.625,526.5 448.5,528.75 440.75,530.375"/>
    <polyline points="439.375,530.5 432.875,531.25 430.5,531.25 426.875,530.5 426.0,529.625 425.75,528.875 426.375,527.125 428.375,524.625 435.5,519.125 444.0,513.875 456.375,507.375"/>
    <polyline points="464.125,503.75 483.25,495.875 494.5,491.875 506.625,488.0 519.375,484.625 532.5,481.875 545.625,479.875 558.25,478.875 570.0,479.125 580.5,480.5 589.5,483.0 596.75,486.5 602.375,490.75 606.5,495.625 609.125,500.75 610.5,506.0 610.875,511.125 610.375,516.0 609.375,520.5 607.875,524.5 606.125,528.0 604.125,531.125 602.0,533.75 597.625,537.5"/>
    <polyline points="595.375,538.875 591.25,540.5 587.375,541.125 583.875,540.875 579.25,539.375 574.5,536.25 571.125,532.625 568.625,528.0 568.0,525.25"/>
    <polyline points="567.875,524.375 568.125,520.875 568.875,518.375 570.125,515.875 571.875,513.375 576.75,508.375 583.375,502.75"/>
    <polyline points="584.625,501.75 594.875,493.375 601.5,487.125 606.75,481.125 612.0,473.75 615.25,467.625 618.125,460.125 620.25,450.875 621.0,445.5 621.375,439.375"/>
    <polyline points="621.25,432.5 620.625,424.625 619.25,415.75 617.125,405.75 613.75,394.25 609.0,381.125 602.625,366.375 594.125,349.75 583.25,331.375 569.375,311.25 552.375,289.875 531.875,268.25 508.0,247.75 481.375,230.25 453.25,218.0 425.25,213.125 399.375,217.0 377.125,230.0 360.0,251.0 348.125,277.75 341.0,307.75 337.875,338.5 337.625,368.125 339.375,395.625 342.25,420.125 345.75,441.5"/>
    <polyline points="349.5,459.875 353.25,475.375 356.875,488.25 363.625,507.875 366.75,515.0 369.75,520.75 375.125,529.125 380.25,534.125 382.75,535.75 385.0,536.875 389.625,538.125 394.0,538.25 400.125,537.625 410.375,535.0"/>
    <polyline points="411.875,534.5 417.75,533.0 420.25,532.625 422.5,532.75 422.875,533.125 422.75,533.875 419.375,536.5"/>
    <polyline points="418.5,537.0 408.75,541.75 365.625,559.625"/>
    <polyline points="361.875,561.375 340.625,571.5 326.25,579.25 316.75,585.0 304.375,593.625 301.375,596.125 299.375,598.25 298.625,599.75 299.375,600.375 301.75,599.875 306.0,598.25 312.125,595.25 320.0,590.75 329.5,584.875 340.125,577.75 351.75,569.625 363.75,560.625"/>
    <polyline points="375.75,551.375 398.75,532.875 448.625,490.25 459.375,481.875 464.0,478.625 471.75,473.625 481.25,469.25 486.375,467.875 490.875,467.25 495.0,467.125 500.5,467.625"/>
    <polyline points="502.125,467.875 514.375,470.0 519.875,470.5 523.75,470.5 530.0,469.5 533.625,468.375 536.0,467.25"/>
    <polyline points="537.125,466.625 540.5,464.5 542.75,462.625 545.75,459.25 549.375,453.375 551.5,447.875 552.875,441.0 553.25,435.75 553.0,429.625 552.0,422.75 551.125,419.0"/>
    <polyline points="550.0,415.125 547.0,406.625 542.5,397.25 539.75,392.375 533.0,382.375 529.0,377.375 524.5,372.375 519.625,367.625 514.375,363.125 508.875,359.125 503.0,355.5 497.0,352.625 490.875,350.5 484.75,349.375 478.75,349.125 473.125,349.875 467.75,351.75 462.875,354.5 458.5,358.375 454.75,363.0 451.75,368.5 449.25,374.5 447.5,381.0"/>
    <polyline points="446.25,387.75 445.625,394.625 445.5,401.625 446.5,415.25 448.75,427.875 450.25,433.75 453.75,444.375 457.5,453.625 459.5,457.75 463.5,465.0 467.375,471.125 474.75,480.625 479.625,486.0 482.75,488.875"/>
    <polyline points="484.125,490.125 490.5,495.25 495.625,498.75 500.0,501.375 506.375,504.625"/>
    <polyline points="506.875,504.875 511.875,506.625 516.875,507.25"/>
    <polyline points="517.125,507.25 521.0,506.875 526.625,505.375"/>
    <polyline points="527.0,505.25 533.375,502.875 542.625,498.5"/>
    <polyline points="543.375,498.0 547.875,495.625 552.875,492.5 559.5,487.625 564.375,483.5 570.625,476.625"/>
    <polyline points="571.875,475.0 575.625,469.5 579.0,462.5 581.75,453.75 583.0,446.625 583.5,438.25 582.875,428.125 580.75,416.125 579.0,409.25 576.5,401.875 573.375,393.75 569.5,385.0 564.625,375.625 558.75,365.625 551.75,355.125 543.5,344.375"/>
    <polyline points="534.0,333.5 523.125,322.75 511.125,312.875 498.25,304.125 484.5,297.125 470.625,292.625 456.875,290.875 443.875,292.375 432.0,297.125 421.75,305.0 413.375,315.625 407.0,328.375 402.5,342.75 399.75,357.875 398.375,373.125 398.375,388.125 399.25,402.5 400.875,416.0 403.0,428.375 405.5,439.5 408.25,449.625 413.75,466.625 416.5,473.625 421.75,485.125"/>
    <polyline points="424.25,489.875 426.5,494.0 432.625,503.5 442.875,516.75 445.25,520.25 446.0,523.5 445.125,525.75"/>
    <polyline points="444.625,526.375 443.0,527.875 438.75,530.5 432.75,533.125 425.0,535.875 411.25,540.0"/>
    <polyline points="409.0,540.625 396.625,543.875 379.375,547.875 360.25,551.5 350.75,552.5 345.0,552.625 342.5,552.375 340.25,551.75 338.5,550.875"/>
  </g>
</svg>
