<?xml version="1.0" encoding="utf-8" ?>
<svg xmlns="http://www.w3.org/2000/svg" xmlns:cc="http://creativecommons.org/ns" xmlns:dc="http://purl.org/dc/elements/1.1/" xmlns:ev="http://www.w3.org/2001/xml-events" xmlns:inkscape="http://www.inkscape.org/namespaces/inkscape" xmlns:rdf="http://www.w3.org/1999/02/22-rdf-syntax-ns" xmlns:sodipodi="http://sodipodi.sourceforge.net/DTD/sodipodi-0.dtd" xmlns:xlink="http://www.w3.org/1999/xlink" baseProfile="tiny" height="27.09333333cm" version="1.2" viewBox="0 0 1024.0 1024.0" width="27.09333333cm">
  <metadata>
    <rdf:RDF>
      <cc:Work>
        <dc:format>image/svg+xml</dc:format>
        <dc:source>vpype read './original_svgs/Strange Attractors #171.svg' linemerge linesimplify write './Strange Attractors #171.svg'
</dc:source>
        <dc:date>2024-08-05T01:35:33.478403</dc:date>
      </cc:Work>
    </rdf:RDF>
  </metadata>
  <defs/>
  <g fill="none" id="layer1" inkscape:groupmode="layer" inkscape:label="1" stroke="black" stroke-width="0.7mm" style="display:inline">
    <polyline points="361.5,937.125 449.125,854.125 507.875,791.125 544.25,746.25 563.75,714.875 570.25,692.375 565.125,674.875 548.625,658.625 518.75,640.75 472.875,617.5 407.0,585.5 319.0,541.5 213.625,485.875 108.5,426.5 32.25,380.25 4.375,362.75 18.25,376.0 50.875,410.25 82.5,454.75 103.875,503.0 113.375,552.625 113.25,603.0 102.875,699.875 103.25,740.25 113.125,769.125"/>
    <polyline points="133.625,783.125 162.75,781.625 196.375,767.25 230.125,744.125 260.625,716.625 285.75,688.375 305.125,661.5 318.875,637.0 327.875,615.375 332.75,596.625 334.5,580.375 334.125,566.5 332.25,554.625 329.75,544.875 325.125,530.25 324.0,525.25 323.75,521.625 324.75,519.25 326.875,518.0 330.0,517.625 334.125,517.875 338.875,518.75 355.75,522.875"/>
    <polyline points="361.75,524.5 379.5,528.375 390.5,530.0 395.625,530.625 405.375,531.125 414.25,531.0 425.875,529.875 432.75,528.625 438.875,527.125 449.25,523.625 457.375,519.75"/>
    <polyline points="459.25,518.75 462.5,516.875 467.875,513.0 473.75,507.125 476.375,503.125 478.25,499.125 479.5,493.75"/>
    <polyline points="479.75,492.625 480.125,485.5 478.5,462.125 478.5,453.5"/>
    <polyline points="478.625,451.125 479.5,443.25 481.375,434.125 483.5,427.125 486.5,419.375 488.5,415.0 493.5,405.625 496.75,400.375 504.75,388.875 509.75,382.625 515.5,376.0 522.125,369.0 529.625,361.625 538.0,354.0 547.5,346.25 558.0,338.5 569.5,330.875 581.875,323.75"/>
    <polyline points="595.0,317.375 608.5,312.125 622.125,308.625 635.375,307.125 647.875,308.0 658.875,311.5 668.0,317.75 675.0,326.625 679.75,337.875 682.25,350.875 682.625,365.125 681.125,380.0 678.125,395.125 674.125,409.875 669.25,423.875 663.875,437.0 658.25,449.0 652.5,459.875 646.875,469.625 641.375,478.125 636.125,485.75 626.25,498.0 621.75,503.0 613.5,510.875"/>
    <polyline points="609.75,514.125 599.75,521.25 591.25,525.875 584.25,529.0 570.375,534.25 565.625,536.5 562.0,538.875"/>
    <polyline points="561.25,539.375 558.25,542.625 556.75,545.5 556.125,547.875 555.875,553.125 557.0,560.375"/>
    <polyline points="557.25,561.5 558.875,569.875 559.25,575.125 559.0,577.75 558.25,580.25 556.75,582.75 555.625,583.875 552.375,585.75 547.125,587.125 543.5,587.5 533.75,587.125"/>
    <polyline points="527.125,586.25 519.0,584.75 509.0,582.375 497.125,579.125 482.75,574.75 465.5,568.875 445.25,561.5 421.75,552.125 395.125,541.125 335.75,514.375 306.0,500.125 257.75,476.125 243.125,469.125 236.0,466.25 235.75,467.625 241.0,472.5 271.75,498.5 292.875,517.125 316.875,539.625"/>
    <polyline points="323.0,545.375 332.875,554.625 340.625,561.0 344.125,563.375 347.25,565.25 350.25,566.625 353.25,567.625 358.875,568.5 361.75,568.5 367.375,567.625 375.75,564.75 386.75,559.125 394.625,554.25 399.5,550.75"/>
    <polyline points="401.875,549.0 414.5,538.875 421.125,532.5 425.125,528.0 427.375,525.125 430.875,519.5 432.625,515.625 433.5,511.75"/>
    <polyline points="433.625,510.5 433.375,505.625 431.625,501.0 429.25,497.75 424.75,493.75 418.0,490.625 413.75,489.5 408.75,489.0 402.75,489.0"/>
    <polyline points="399.5,489.375 391.75,490.875 387.375,492.125 377.375,495.875 371.75,498.625 358.625,506.125 351.125,511.125 342.875,517.0 334.0,524.125 324.375,532.5 314.0,542.25 303.0,553.5 291.625,566.25 280.0,580.5 268.625,596.0 258.0,612.5 248.625,629.25 241.5,645.625 237.25,660.625 236.375,673.125 239.25,682.375 245.875,687.625 255.75,688.75"/>
    <polyline points="268.375,686.0 282.75,679.75 297.875,670.875 313.125,660.25 327.875,648.625 341.625,636.875 354.25,625.25 365.625,614.25 384.625,594.75 410.75,566.875 423.25,554.125 429.625,548.375 434.75,544.25 439.125,541.25 444.75,538.5"/>
    <polyline points="446.375,537.875 449.375,536.875 452.125,536.375 459.25,536.125 465.625,537.125 468.125,538.0 469.875,539.0"/>
    <polyline points="470.25,539.125 470.875,540.125 470.375,540.875 466.625,541.5 459.75,540.875 453.25,539.625"/>
    <polyline points="451.375,539.25 436.75,535.25 424.875,531.25 419.375,529.0 416.875,527.625 417.0,527.25 417.875,527.25"/>
    <line x1="418.625" x2="462.0" y1="527.25" y2="532.875"/>
    <polyline points="463.625,533.125 474.125,535.0 480.25,536.625 484.25,538.125 487.375,539.75 490.0,542.0"/>
    <polyline points="490.375,542.5 491.0,543.875 490.75,545.625 488.75,547.125 484.75,548.125 479.875,548.25 473.25,547.625 460.875,545.375"/>
    <polyline points="457.125,544.5 444.375,541.0 419.625,532.875 400.75,525.75 388.125,520.5 384.875,518.875 388.75,519.5 393.375,520.75"/>
    <polyline points="396.125,521.375 402.25,522.875 416.0,525.5 433.125,527.5 448.5,528.125 470.5,527.5"/>
    <polyline points="472.5,527.375 483.125,527.0 492.75,527.125 500.125,528.0 504.5,529.25"/>
    <polyline points="505.25,529.5 509.625,531.5 513.25,534.125 515.875,536.75 519.5,541.875"/>
    <polyline points="519.875,542.625 521.75,547.125 522.375,550.375 522.5,552.125 521.75,555.375 520.25,557.75 518.5,559.25 516.0,560.5 512.625,561.375"/>
    <polyline points="510.5,561.75 505.125,562.0 497.875,561.5 493.5,561.0 482.875,559.0 461.125,553.375 442.375,547.375 420.375,539.5 396.0,530.0 371.625,519.875 335.375,503.875 328.0,501.125"/>
    <polyline points="329.375,502.125 346.75,511.125 365.0,518.875 377.0,523.125 393.5,527.25 407.625,528.875 411.875,529.0 419.625,528.625 429.625,527.125 435.25,525.625 440.375,523.875"/>
    <polyline points="442.625,522.875 448.75,519.875 453.75,516.625 457.75,513.25 461.0,509.75 464.25,505.125 465.375,502.75 467.125,497.75 467.875,494.0"/>
    <polyline points="468.0,492.625 468.125,487.125 467.875,482.75 464.625,461.125 463.875,454.125 463.625,446.125"/>
    <polyline points="463.625,443.125 464.0,436.75 465.0,429.625 468.375,416.75 472.25,406.5 475.0,400.75 482.375,387.625 487.25,380.25 500.25,363.25 508.625,353.625 518.625,343.25 530.375,332.125 543.875,320.5 559.5,308.375 577.125,296.25 596.625,284.875 617.5,274.75 639.25,267.0 660.875,262.75"/>
    <polyline points="681.0,263.0 698.625,268.375 712.625,279.25 722.125,295.125 727.25,315.25 728.125,338.0 725.625,362.0 720.625,386.125 713.875,409.0 706.375,430.25 698.5,449.25 690.75,466.0 683.25,480.5 676.375,492.75 670.0,503.125 664.125,511.75 658.75,518.875 653.875,524.625 649.375,529.25 645.125,533.0 641.25,535.875 634.25,539.875 631.0,541.125 624.875,542.625"/>
    <polyline points="622.0,543.0 616.5,543.25 609.0,542.875 595.875,541.375 588.5,540.875 583.75,540.875 579.625,541.25 574.875,542.25"/>
    <polyline points="573.875,542.625 571.25,543.875 569.125,545.375 567.0,547.75 566.25,549.125 565.25,553.0 565.375,557.5 566.0,560.625"/>
    <polyline points="566.25,561.625 569.375,571.25 573.25,581.125 575.0,587.375 575.5,592.125 575.125,595.25 574.5,596.75"/>
    <polyline points="573.625,598.125 572.375,599.375 570.625,600.5 568.25,601.5 565.125,602.25 561.0,602.625 555.75,602.5 549.125,601.875 540.5,600.375 529.625,598.0 515.875,594.25 498.75,588.875 477.25,581.5 450.875,571.5 419.125,558.5 382.0,542.25 340.375,523.0 296.75,501.875 255.0,480.75 196.125,449.875 185.0,444.75 185.375,447.25 194.125,455.875 207.625,468.5 222.5,483.375"/>
    <polyline points="236.75,498.875 249.125,514.125 259.5,528.5 267.75,541.875 274.25,554.0 279.25,565.0 289.625,591.25 292.75,597.75 296.0,603.125 299.75,607.25 304.0,610.25 308.75,612.0 314.125,612.625 319.875,612.25 326.125,611.0 332.75,608.875 339.5,606.0 346.375,602.625 360.125,594.875 373.5,586.25 386.0,577.75"/>
    <polyline points="391.875,573.625 413.0,558.875 433.875,545.0 444.125,538.875 455.625,532.5 474.375,523.25"/>
    <polyline points="476.0,522.5 492.125,515.25 498.75,511.375"/>
    <polyline points="499.125,511.125 500.625,510.0 502.625,507.75 503.375,506.25 503.875,503.875"/>
    <polyline points="503.875,503.5 503.625,500.0 501.75,492.875"/>
    <polyline points="501.5,492.25 497.875,479.5 496.25,470.75"/>
    <polyline points="496.125,469.5 495.5,462.375 495.5,457.5 496.125,450.0 497.875,441.125 499.375,436.125 502.625,427.75 505.75,421.375 509.75,414.5"/>
    <polyline points="512.125,410.875 521.125,399.0 529.125,390.375 538.625,381.25 550.0,372.25 556.25,367.875 563.0,363.625 570.0,359.75 577.375,356.25 584.875,353.375 592.375,351.125 599.875,349.75 607.125,349.25 613.875,349.875 620.125,351.625 625.625,354.5 630.25,358.5 633.875,363.625 636.5,369.75 638.25,376.625 638.875,384.125"/>
    <polyline points="638.75,392.125 637.625,400.375 635.875,408.75 633.625,417.0 630.75,425.0 624.125,440.125 620.375,447.125 612.875,459.5 605.25,470.0 601.5,474.625 594.375,482.5 587.625,489.0 584.5,491.75 575.75,498.5 570.5,502.125 563.625,506.25"/>
    <polyline points="561.5,507.5 542.25,517.125 537.125,520.125 533.625,522.875"/>
    <polyline points="533.125,523.375 531.125,526.125 530.375,527.625 529.75,530.125 529.625,533.5 530.0,536.5"/>
    <polyline points="530.125,537.125 532.875,548.625 533.625,554.25 533.5,558.0"/>
    <polyline points="533.25,559.0 532.625,561.0 531.625,562.75 530.0,564.5 527.625,566.125 522.0,567.875 512.75,568.25 508.5,568.0 498.0,566.5 483.875,563.375 465.375,558.25 441.875,550.375 413.25,539.75"/>
    <polyline points="397.5,533.375 365.0,519.625 314.0,496.5 307.625,493.75 304.375,492.625 304.0,493.0 310.125,497.375 329.375,508.875 351.25,520.125 364.625,525.875 376.5,529.875 386.875,532.25 395.875,533.375"/>
    <polyline points="399.875,533.5 410.375,532.625 416.25,531.25 423.625,528.375 429.625,525.125 434.375,521.375 440.0,515.125 442.75,509.875 443.5,507.25"/>
    <polyline points="443.875,506.0 444.25,503.375 444.0,498.0 443.0,494.0 440.625,488.625 438.0,484.5 434.5,480.375 430.125,476.375 424.625,472.625"/>
    <polyline points="422.5,471.5 417.75,469.375 412.25,467.75 405.75,466.625 402.0,466.375 393.5,466.75 388.625,467.5 383.125,468.75 377.0,470.625 370.125,473.25 362.5,476.75 353.875,481.375 344.125,487.25 333.125,494.875 320.75,504.375 306.75,516.25 291.125,530.875 273.75,548.5 255.125,569.75 235.5,594.375 216.0,622.25 198.125,652.25"/>
    <polyline points="183.75,682.625 175.25,710.625 174.5,733.25 182.25,747.875 198.0,752.75 219.75,748.25 245.0,736.0 270.75,718.375 295.125,697.875 316.75,676.625 335.0,656.125 349.875,637.125 361.5,620.0 370.375,605.0 376.625,592.0 381.0,580.75 383.625,571.0 385.125,562.625 385.5,555.5 385.375,549.5 383.875,539.75 382.125,533.0 381.375,528.25"/>
    <polyline points="381.5,526.625 382.0,525.375 383.0,524.5 386.0,523.625 388.125,523.5 396.125,524.125 423.25,527.5 436.5,528.375 451.375,528.625"/>
    <polyline points="454.0,528.625 484.625,527.75 491.625,528.0 497.375,528.75"/>
    <polyline points="498.375,528.875 503.875,530.375 508.5,532.5 511.75,534.75 514.125,536.875 516.125,539.25"/>
    <polyline points="516.625,539.875 518.375,542.625 519.75,545.5 520.5,547.875 520.875,552.0 520.625,553.625 519.625,556.0 518.375,557.5 516.5,558.875"/>
    <polyline points="515.25,559.375 513.875,560.0 507.875,561.0 502.25,561.125 494.625,560.5 490.125,559.875 479.0,557.625 456.875,551.625 437.875,545.5 427.25,541.75 404.375,533.0 369.25,518.5 342.25,506.625"/>
    <polyline points="336.625,504.25 331.125,502.125 336.125,505.125 345.25,509.625 350.75,512.25 362.625,517.25 374.5,521.625 391.25,526.125 401.375,527.875 414.5,528.625 425.625,527.875 432.0,526.625"/>
    <polyline points="434.875,526.0 440.25,524.375 447.125,521.625 454.5,517.5 457.5,515.375 460.125,513.125 465.25,507.625 468.0,503.0 469.375,499.5"/>
    <polyline points="469.75,498.375 470.875,493.375 471.125,485.375 470.875,480.875 468.25,458.875"/>
    <polyline points="468.125,456.625 467.875,449.125 468.75,437.125 470.0,430.125 472.125,422.125 473.625,417.625 477.75,407.75 480.5,402.25 487.875,389.75 498.25,375.125 505.0,367.0 512.875,358.125 522.125,348.625 532.75,338.625 545.125,328.125 559.0,317.5"/>
    <polyline points="574.75,306.875 591.875,296.75 610.25,287.875 629.25,281.0 648.25,276.75 666.375,276.125 682.5,279.75 695.875,287.75 705.75,300.25 711.875,316.375 714.375,335.25 713.75,355.875 710.5,377.125 705.375,398.0 699.0,417.75 692.125,435.875 684.875,452.25 677.75,466.75 671.0,479.375 658.5,499.375 652.875,507.125 647.75,513.625 642.875,519.0 634.375,527.0"/>
    <polyline points="630.5,530.0 623.5,534.375 620.375,535.875 611.75,538.75 606.625,539.75 599.75,540.5 585.375,541.5 577.625,543.0"/>
    <polyline points="576.625,543.375 573.0,545.0 571.625,546.0 569.375,548.375 568.25,550.375 567.375,554.25 567.5,557.875 568.125,560.875"/>
    <polyline points="568.375,562.0 569.75,566.5 571.75,571.5 579.0,588.0 580.625,593.0 581.375,598.0"/>
    <polyline points="581.25,599.75 581.0,601.375 579.375,604.375 578.0,605.625 575.875,606.75 573.0,607.625 569.25,608.25 564.375,608.25 557.875,607.75 549.5,606.5 538.625,604.25 524.75,600.5 507.0,595.125 484.5,587.25 456.5,576.625 422.0,562.5 381.125,544.5 334.625,522.875 285.375,498.625 238.5,474.5 174.875,440.625 165.125,436.375 168.375,441.125 180.25,452.625"/>
    <polyline points="196.125,468.375 212.375,486.0 226.875,504.125 238.875,521.625 248.25,538.25 255.125,553.625 260.25,567.75 269.625,602.375 272.625,611.125 276.125,618.375 280.375,623.875 285.5,627.625 291.625,629.625 298.625,630.125 306.25,629.0 314.5,626.5 323.125,623.0 332.0,618.5 340.875,613.5 349.625,608.0 366.25,596.5 381.5,585.375"/>
    <polyline points="388.5,580.125 407.25,566.25 422.75,555.375 439.5,545.0 452.875,538.125 461.375,534.625 472.875,530.875 478.625,529.625"/>
    <polyline points="480.5,529.25 488.25,528.25 494.625,528.125 498.875,528.5 503.5,529.5 508.125,531.375"/>
    <polyline points="508.75,531.75 512.0,533.875 515.375,537.0 518.625,541.375 521.0,546.625"/>
    <polyline points="521.25,547.375 521.875,550.625 521.875,552.25 521.375,554.75 520.0,557.125 519.25,557.875 516.125,559.875 511.0,561.25 506.0,561.625 499.375,561.375 490.75,560.25"/>
    <polyline points="485.375,559.375 465.125,554.375 447.5,549.0 415.0,537.375 390.75,527.75 367.125,517.75 339.875,505.75 329.125,501.375 329.5,501.875 339.25,507.125 356.125,515.0"/>
    <polyline points="362.25,517.5 368.25,519.875 380.125,523.75 391.125,526.5 405.625,528.625 414.125,528.875 425.125,528.0 431.5,526.75 437.0,525.25 446.375,521.5 453.5,517.25"/>
    <polyline points="455.125,516.125 459.0,512.875 462.25,509.375 464.75,506.0 466.625,502.375 468.25,497.625 469.0,493.75 469.25,485.625"/>
    <polyline points="469.125,484.125 468.75,479.625 465.875,459.0 465.375,451.75 465.375,443.375 465.875,437.0 467.875,425.875"/>
    <polyline points="469.0,421.75 470.375,417.125 472.25,412.375 477.125,401.375 484.5,388.625 489.375,381.25 495.125,373.375 502.125,364.75 510.25,355.5 519.875,345.5 531.25,334.875 544.25,323.625 559.25,312.125 576.0,300.625 594.5,289.75 614.375,280.125 635.0,272.75 655.5,268.375 674.875,268.25 692.0,272.75 705.75,282.375 715.5,296.875 721.125,315.25 722.75,336.375"/>
    <polyline points="721.125,359.125 716.75,382.0 710.75,404.25 703.625,424.875 696.0,443.75 688.5,460.375 681.125,474.875 674.25,487.375 667.75,497.875 661.875,506.75 651.375,520.25 646.75,525.25 638.5,532.5 631.25,537.0 627.875,538.625 621.875,540.625 613.625,541.875 606.25,542.0"/>
    <polyline points="604.0,542.0 592.0,541.5 587.0,541.5 581.25,542.0 576.5,543.0 574.5,543.75 572.0,545.0 570.125,546.625"/>
    <polyline points="569.5,547.125 568.125,549.125 567.25,551.25 566.75,556.25 568.125,563.375 570.75,570.625"/>
    <polyline points="571.375,571.875 576.25,583.5 579.0,591.625 579.625,596.625 579.125,599.875 577.375,602.75 575.875,604.0 573.75,605.125 567.125,606.5 562.125,606.5"/>
    <polyline points="555.625,606.0 547.375,604.75 536.625,602.5 523.0,598.875 505.625,593.625 483.75,586.0 456.625,575.75 423.375,562.25 384.0,545.0 339.25,524.25 291.875,501.125 246.375,477.875 182.625,444.125 171.375,439.0 173.0,442.375 198.5,467.25 214.375,484.0 229.125,501.25 241.5,518.125 251.25,534.0 258.75,548.875 264.375,562.375 268.625,574.75 271.875,585.875"/>
    <polyline points="274.75,595.75 277.625,604.25 280.875,611.375 284.75,617.0 289.25,621.125 294.625,623.625 300.875,624.75 307.625,624.375 315.125,622.75 323.0,620.0 331.125,616.375 339.375,612.0 355.625,602.125 371.125,591.625 414.75,560.125 428.75,550.875"/>
    <polyline points="432.875,548.25 444.0,541.75 450.5,538.375 464.25,532.25 471.0,529.875 480.375,527.125 490.5,525.25"/>
    <polyline points="491.75,525.125 495.125,524.875 501.625,525.0 506.75,526.0 511.375,528.125"/>
    <polyline points="511.875,528.5 514.375,530.25 517.125,533.0 520.0,536.75 522.625,541.375"/>
    <polyline points="522.875,542.0 524.5,545.875 525.375,549.125 525.75,552.5 525.5,555.25 524.5,557.75 523.25,559.375 521.5,560.875 518.875,562.125"/>
    <polyline points="517.25,562.75 513.0,563.5 507.25,563.75 494.75,562.5 476.25,558.625 468.25,556.5 449.625,550.75 427.0,542.75 401.25,532.875 374.5,521.75 322.5,499.0"/>
    <polyline points="321.25,498.75 324.625,501.125 333.625,506.125 352.125,515.25 365.0,520.625 371.25,522.875 382.875,526.375 393.5,528.625 398.375,529.375 402.875,529.75 411.25,529.875 418.625,529.375 422.0,528.75 428.0,527.5 433.375,525.75"/>
    <polyline points="435.75,524.75 440.125,522.75 445.75,519.375 450.25,515.875 453.875,512.25 456.625,508.625 458.75,504.75 460.5,499.625 461.375,494.375"/>
    <polyline points="461.375,493.0 461.0,485.75 460.25,481.0 453.375,453.25 452.0,445.125"/>
    <polyline points="451.625,442.25 451.25,435.75 451.625,424.375 453.125,415.25 454.375,410.25 458.375,398.5 461.375,391.75 465.125,384.375 469.875,376.125 475.875,367.0 483.375,356.75 492.5,345.25 503.75,332.625 517.5,318.625 534.125,303.25 553.875,287.0 576.875,270.125 603.25,253.625 632.125,238.875 662.625,227.625 692.75,221.875"/>
    <polyline points="720.375,223.875 743.0,234.75 758.75,254.375 767.25,281.5 768.75,313.5 764.875,347.5 757.25,381.25 747.75,412.625 737.625,440.75 727.75,465.0 718.625,485.625 710.5,502.625 703.375,516.375 697.125,527.375 691.75,536.0 686.875,542.625 682.5,547.5 678.5,550.875 674.625,553.125 670.875,554.25 667.25,554.625 663.5,554.375 659.75,553.625 656.0,552.375 652.0,550.875 648.125,549.0"/>
    <polyline points="644.0,547.125 623.625,536.875 611.875,531.5 597.625,526.25 591.25,524.375 582.5,522.375 572.5,521.125 564.25,521.0"/>
    <polyline points="562.5,521.125 554.625,522.125 550.75,523.125 546.625,524.625 542.625,526.875 540.25,528.875 538.625,531.0"/>
    <polyline points="538.25,531.5 536.875,535.125 536.5,537.75 536.625,542.0 537.75,549.625"/>
    <polyline points="537.875,550.5 538.625,556.25 538.375,561.375 537.375,564.5 535.25,567.375 531.25,569.75 527.125,571.0 524.5,571.375 517.625,571.5"/>
    <polyline points="513.25,571.25 502.0,569.625 494.875,568.125 486.75,566.25 477.25,563.625 453.875,556.25 424.5,545.625 407.625,539.0 371.25,523.625 353.0,515.625 299.125,490.875 293.625,488.625 291.875,488.375 293.25,489.75 302.875,496.625 325.5,510.75"/>
    <polyline points="333.5,515.375 348.375,523.375 361.625,529.375 373.125,533.5 378.125,534.875 387.125,536.5 394.875,536.875 398.25,536.75 404.5,535.875 409.75,534.375 414.375,532.5 420.125,529.25 425.875,524.5"/>
    <polyline points="427.0,523.25 429.875,519.5 431.25,517.0 432.625,513.25 433.125,510.875 433.25,508.375 432.625,504.875 431.875,502.625 430.625,500.375 428.125,497.25 424.5,494.375"/>
    <polyline points="423.125,493.5 417.875,491.25 411.375,489.75 408.75,489.5 402.875,489.625 395.875,490.5 387.625,492.75 382.875,494.375 372.0,499.125 365.875,502.5 351.625,511.375 343.625,517.25 334.875,524.25 325.375,532.375 315.125,542.0 304.375,553.0 293.25,565.5"/>
    <polyline points="281.75,579.375 270.5,594.625 260.0,610.75 250.75,627.25 243.5,643.25 239.0,658.125 237.875,670.625 240.375,680.125 246.5,685.625 256.0,687.25 268.125,684.875 282.0,679.125 296.875,670.625 312.0,660.5 326.625,649.125 340.375,637.5 353.0,626.125 383.75,595.75 410.375,567.625 419.5,558.375"/>
    <polyline points="423.375,554.75 426.75,551.5 432.625,546.5 435.25,544.625 439.75,541.625 447.25,538.0 454.625,536.375 459.5,536.25 465.375,537.0"/>
    <polyline points="466.125,537.25 470.0,538.5 471.5,539.5 472.0,540.375 471.0,541.375 467.0,541.75"/>
    <polyline points="466.0,541.75 462.5,541.5 454.375,540.125 446.25,538.125 435.0,534.875 419.5,529.375"/>
    <polyline points="418.25,528.75 417.125,528.375 415.125,527.0 416.125,526.75 418.875,527.0 444.375,530.5"/>
    <polyline points="446.5,530.75 458.25,532.125 473.125,534.375 479.625,535.875 485.0,537.75"/>
    <polyline points="486.0,538.125 488.375,539.375 491.0,541.25 492.25,542.625 493.0,544.625 492.75,546.0 491.5,547.25 490.125,548.0 487.0,548.75"/>
    <polyline points="485.625,548.875 482.25,549.0 472.875,548.125 463.125,546.25 450.75,543.25 425.375,535.25 404.25,527.5 388.125,521.0"/>
    <polyline points="385.5,519.75 381.75,517.875 399.75,522.375 417.75,525.75 428.375,527.0 444.625,527.75"/>
    <polyline points="447.625,527.75 463.375,527.25 487.125,525.625 494.5,525.625"/>
    <polyline points="495.625,525.625 503.0,526.5 506.75,527.625 510.5,529.375 513.875,531.75"/>
    <polyline points="514.375,532.25 517.25,535.125 520.25,539.375 522.75,544.25 524.0,548.25"/>
    <polyline points="524.25,549.125 524.5,553.375 524.25,555.125 523.625,556.75 521.75,559.25 519.875,560.625 517.0,561.875 513.25,562.75 510.75,563.0 504.75,563.0 496.75,562.25 486.125,560.5"/>
    <polyline points="479.75,559.0 472.5,557.25 455.375,552.25 445.375,549.0 422.625,540.875 397.25,531.0 384.25,525.625 359.375,515.0 332.125,502.875 324.25,499.625 323.625,499.625 327.875,502.375 337.25,507.375 349.125,513.25 361.875,518.75"/>
    <polyline points="368.125,521.125 374.25,523.25 385.75,526.5 396.125,528.5 405.375,529.5 409.5,529.625 417.25,529.25 420.75,528.875 427.25,527.625 435.375,525.25 442.25,522.25 447.75,518.875 452.25,515.5"/>
    <polyline points="453.625,514.25 458.75,508.375 460.875,504.625 462.75,499.625 463.375,497.0 463.875,491.625 463.875,488.75 463.0,481.25"/>
    <polyline points="462.75,479.625 457.5,453.625 456.375,442.5 456.5,432.5 456.875,428.625 458.25,420.25 461.0,410.5"/>
    <polyline points="463.0,405.0 465.5,398.875 472.75,385.0 483.75,368.125 491.25,358.25 500.375,347.5 511.375,335.625 524.5,322.625 540.125,308.75 558.5,294.25 579.5,279.5 603.0,265.25 628.625,252.75 655.25,243.5 681.625,239.0 705.75,240.75 725.75,249.625 740.5,265.875 749.125,288.5 751.875,315.5 749.75,344.875 744.125,374.5 736.25,402.875 727.375,428.875"/>
    <polyline points="718.125,451.875 709.375,471.875 701.25,488.75 693.875,502.75 687.25,514.25 681.25,523.5 676.0,530.875 671.25,536.75 666.875,541.125 662.875,544.375 659.125,546.75 655.5,548.25 652.0,549.125 648.5,549.5 645.25,549.375 641.875,549.0 635.25,547.5 609.875,538.625"/>
    <polyline points="606.875,537.625 593.375,533.75 586.125,532.375 579.75,531.625 574.25,531.5 567.875,532.0 563.875,532.75 559.625,534.375"/>
    <polyline points="558.625,534.75 554.25,537.875 552.75,539.75 551.625,541.75 550.5,545.5 550.25,548.875 550.5,552.5"/>
    <polyline points="550.625,553.5 552.25,565.375 552.25,570.125 551.75,572.625 550.25,576.125 548.125,578.25 544.875,580.0 542.75,580.75"/>
    <polyline points="540.0,581.25 536.75,581.625 527.875,581.375 515.0,579.625 506.5,577.875 484.5,571.875 470.25,567.375 453.75,561.625 434.75,554.5 389.375,536.0 364.125,524.875 338.375,513.125 262.375,476.75 256.375,474.375 255.875,475.25 259.75,479.0 285.75,499.375"/>
    <polyline points="295.75,507.0 322.375,527.375 336.25,537.375 347.25,544.625 356.125,549.375 360.0,551.0 363.5,552.25 369.75,553.75 372.625,554.0 377.875,553.75 382.625,552.875 387.0,551.375 391.0,549.5 396.5,546.375"/>
    <polyline points="398.125,545.125 404.25,540.375 409.125,535.5 412.75,530.75 414.625,527.375 415.75,524.25 416.0,520.375 415.25,517.875"/>
    <polyline points="414.75,517.0 413.625,515.625 412.0,514.375 409.875,513.375 405.75,512.5 400.5,512.5 393.625,513.625 385.125,516.5 374.625,521.625 361.875,529.75 357.25,533.375"/>
    <polyline points="352.25,537.25 341.75,546.625 330.75,558.0 319.75,571.0 309.75,585.25 305.5,592.5 302.0,599.625 299.25,606.375 297.625,612.5 297.125,617.875 297.875,622.25 299.875,625.5 303.125,627.625 307.5,628.25 312.875,627.75 319.125,626.0 326.125,623.25 333.5,619.625 341.125,615.25 356.625,605.25 364.25,599.875"/>
    <polyline points="371.625,594.375 414.875,561.625 428.75,551.875 436.875,546.625 444.125,542.25 453.625,537.125 464.25,532.25 473.0,529.0"/>
    <polyline points="475.0,528.25 481.875,526.25 490.375,524.5 497.75,523.75 501.25,523.75 504.25,524.125"/>
    <polyline points="504.875,524.25 508.0,525.0 512.125,527.0 514.875,529.0 517.25,531.625"/>
    <polyline points="517.625,532.0 521.875,538.125 524.25,543.0 526.0,548.625"/>
    <polyline points="526.125,549.375 526.5,551.125 526.5,553.75 525.75,557.25 524.75,559.0 523.25,560.625 519.625,562.625 513.625,564.0 507.875,564.125 500.0,563.625 489.75,562.0"/>
    <polyline points="483.375,560.625 468.125,556.625 449.0,550.75 437.875,547.0 413.0,537.75 385.875,526.75 323.75,499.625 320.375,498.25 319.375,498.125 323.375,500.875 339.0,509.375 351.875,515.625 358.5,518.5"/>
    <polyline points="364.875,521.0 377.125,525.25 388.25,528.125 402.75,530.125 411.0,530.125 418.25,529.5 424.625,528.375 427.5,527.625 435.125,524.875 441.375,521.625 444.875,519.375 449.25,515.75"/>
    <polyline points="450.5,514.5 453.75,510.875 456.125,507.125 457.375,504.625 458.75,500.625 459.625,495.375 459.625,489.75 458.125,480.5"/>
    <polyline points="457.625,478.875 450.625,455.0 448.75,447.25 447.25,438.25 446.75,431.375 446.875,423.625 447.25,419.25 449.0,409.375"/>
    <polyline points="450.5,403.875 452.625,397.625 458.875,383.25 463.5,374.875 469.5,365.375 476.875,354.75 486.25,342.75 497.875,329.375 512.25,314.375 529.75,297.75 550.875,279.875 576.0,261.125 604.875,242.625 637.0,225.75 671.125,213.0 704.75,206.75 735.25,209.625 759.625,223.0 775.75,246.75 783.125,278.625 782.875,315.5 776.875,353.75 767.375,390.625 756.5,424.25 745.625,453.75"/>
    <polyline points="735.375,478.625 726.375,499.25 718.5,515.875 711.875,529.0 706.25,539.25 701.375,546.875 697.0,552.5 693.0,556.25 689.125,558.5 685.25,559.375 681.375,559.375 677.375,558.5 668.75,554.875 659.375,549.625 634.25,534.5 619.5,526.625 610.375,522.375"/>
    <polyline points="606.0,520.5 601.875,518.75 590.25,514.875 583.5,513.125 577.25,511.875 571.625,511.125 564.125,510.625 557.75,510.625 548.875,511.5 543.375,512.625"/>
    <polyline points="542.125,512.875 536.875,514.5 532.875,516.125 529.375,518.125 526.25,521.25"/>
    <polyline points="526.0,521.625 525.5,522.25 524.625,525.375 524.625,528.375 525.5,532.375"/>
    <polyline points="525.625,532.875 529.5,545.0 530.75,551.0"/>
    <polyline points="530.875,551.875 531.125,553.75 531.0,556.5 530.25,559.375 529.25,561.125 526.75,563.625 524.125,565.125 522.375,565.625 515.125,566.75 508.0,566.625 492.375,564.375 485.625,562.875"/>
    <polyline points="477.75,560.875 458.75,555.375 447.5,551.625 421.625,542.25 407.125,536.625 376.625,524.0 347.5,511.25 316.875,497.375 309.75,494.625 310.0,495.25 316.875,499.875 335.625,510.5 349.75,517.5 363.25,523.375"/>
    <polyline points="369.625,525.625 381.125,529.25 391.375,531.25 400.25,532.125 411.5,531.625 420.625,529.625 425.75,527.875 430.25,525.75 437.5,521.125 440.375,518.625 443.875,514.75"/>
    <polyline points="444.875,513.5 446.5,510.875 448.75,505.75 449.625,501.75 449.875,496.25 449.25,492.125 447.5,486.25 443.875,478.625"/>
    <polyline points="443.0,477.0 437.25,468.75 429.5,460.125 421.375,453.25 413.75,448.25 407.625,445.375 400.5,443.0 391.875,441.625 386.875,441.5 381.25,441.875"/>
    <polyline points="375.0,442.75 367.875,444.5 359.625,447.375 350.125,451.375 339.125,457.25 326.25,465.25 311.0,476.0 293.125,490.25 272.125,509.125 247.75,533.5 219.875,564.625 189.375,602.875 158.0,648.375 129.375,698.75 108.875,749.125 102.125,792.125 112.75,820.0 140.0,827.625 178.25,815.875 220.25,789.875 259.5,756.375 292.125,721.0 316.875,687.25 333.625,656.75 343.25,630.0 346.875,606.875"/>
    <polyline points="345.75,586.875 341.125,569.625 334.0,554.5 325.625,541.625 317.125,530.625 299.25,509.625 297.5,506.5 298.0,505.25 300.625,505.5 305.0,506.875 339.0,521.875 353.375,527.5 360.0,529.75 372.5,533.25 378.125,534.375 383.5,535.25 393.125,536.0"/>
    <polyline points="397.625,536.0 401.75,535.875 409.25,534.875 415.75,533.375 421.625,531.5 429.0,528.125 435.125,524.375 440.125,520.625 442.875,518.0 446.125,514.125 448.0,511.5 449.375,508.875"/>
    <polyline points="450.0,507.5 451.625,502.25 452.125,498.125 452.0,494.0 451.25,489.625 449.5,483.625 448.25,480.5 443.0,470.5"/>
    <polyline points="442.0,468.75 438.375,463.125 431.125,453.25 425.875,446.75 417.625,437.625 410.375,430.625 401.75,423.5 395.125,419.0 387.375,415.0"/>
    <polyline points="382.875,413.375 378.0,412.0 372.375,411.0 366.125,410.625 359.0,411.125 350.625,412.75 340.625,415.75 328.75,420.75 314.375,428.625 296.5,440.25 274.5,457.125 247.0,481.125 212.875,514.75 171.625,560.875 124.0,621.875 74.125,697.75 31.5,782.75 10.875,861.625 24.75,913.25 72.75,923.375 139.75,894.875 206.25,843.375 259.375,785.0 294.375,729.25 311.5,680.0 313.125,637.375"/>
    <polyline points="302.375,600.125 282.625,567.25 258.0,538.25 232.875,513.625 197.375,481.75 191.5,475.875 193.5,476.375 201.375,482.125 212.875,491.5 225.75,502.75 238.625,514.875 250.625,526.875 261.25,538.375 291.75,573.75 297.5,579.75 302.75,584.625 308.0,588.5 313.125,591.375 318.375,593.375 323.625,594.5 329.125,594.75 334.625,594.25"/>
    <polyline points="340.25,593.125 351.75,589.5 357.5,587.0 368.875,581.375 374.375,578.25 385.0,572.0 395.0,565.625 447.875,530.875"/>
    <polyline points="450.125,529.375 463.625,520.125 470.5,514.75 474.75,510.75 477.25,507.875 480.875,502.375"/>
    <polyline points="481.25,501.375 482.625,497.625 483.375,494.625 483.75,491.5 483.875,484.75 483.0,472.625"/>
    <polyline points="482.875,471.0 482.375,464.25 482.625,451.875 484.0,441.75 486.25,432.625 488.625,425.75 492.0,418.0 499.375,404.625 502.75,399.625"/>
    <polyline points="506.5,394.25 510.875,388.625 521.625,376.5 535.25,363.25 543.375,356.375 552.25,349.5 562.0,342.625 572.625,336.125 583.875,330.125 595.5,325.0 607.5,321.0 619.375,318.375 630.875,317.625 641.5,318.875 650.875,322.375 658.75,328.125 664.875,336.125 669.0,345.875 671.375,357.25 671.875,369.625 670.75,382.625 668.375,395.875 664.875,408.875 660.625,421.5"/>
    <polyline points="656.0,433.25 650.875,444.25 645.75,454.375 640.5,463.5 630.375,478.875 625.5,485.375 616.5,496.0 608.25,504.125 604.5,507.375 597.625,512.875 594.5,515.0 591.5,517.0 581.0,522.75 569.25,528.0"/>
    <polyline points="567.75,528.75 559.0,533.0 554.75,536.125 552.5,538.625 550.875,541.375 549.875,545.25"/>
    <polyline points="549.75,546.0 549.75,552.25 551.5,565.125 551.5,568.625 550.875,572.25"/>
    <polyline points="550.5,573.375 548.25,576.75 545.5,578.75 543.625,579.5 538.5,580.75 531.0,581.0 520.0,580.0 512.875,578.75 494.0,574.25 481.875,570.625 450.875,560.25 431.75,553.0 386.625,534.5 336.5,512.0 291.5,490.5"/>
    <polyline points="274.875,482.375 263.75,477.25 258.375,475.25 258.25,476.375 262.5,480.125 278.5,492.75 316.375,521.375 331.75,532.5 344.0,540.75 354.0,546.375 362.125,550.0 365.625,551.125 371.875,552.375 377.375,552.5 382.375,551.875"/>
    <polyline points="384.625,551.25 386.875,550.625 392.875,547.875 396.5,545.875 402.75,541.25 407.75,536.5 411.625,531.75 413.125,529.5 415.25,524.25"/>
    <polyline points="415.375,523.25 415.375,520.5 414.875,518.75 413.5,516.5 411.125,514.75 408.875,513.75 406.25,513.25 401.25,513.0 397.125,513.5 392.25,514.625 383.625,517.75"/>
    <polyline points="380.25,519.25 368.875,525.75 360.125,531.75 350.5,539.5 340.0,549.125 329.25,560.5 323.875,566.875 318.625,573.625 313.75,580.5 309.25,587.5 305.375,594.5 302.25,601.375 300.0,607.75 298.875,613.375 298.875,618.375 300.0,622.25 302.375,625.0 306.0,626.5 310.625,626.75 316.25,625.75"/>
    <polyline points="322.5,623.75 329.5,620.75 336.75,617.0 351.875,607.75 366.875,597.375 411.0,564.125 425.5,553.75 437.625,545.75 451.125,538.0 456.875,535.125"/>
    <polyline points="459.625,533.875 471.125,529.0 481.875,525.5 491.375,523.375 498.375,522.5"/>
    <polyline points="499.125,522.5 503.625,522.5 506.75,523.0 510.25,524.125 513.25,525.875"/>
    <polyline points="513.625,526.25 515.25,527.5 518.5,531.125 522.5,537.75"/>
    <polyline points="522.875,538.375 524.875,542.5 526.875,548.875 527.375,552.375 527.25,555.125 526.0,558.625"/>
    <polyline points="525.5,559.5 522.875,561.875 520.25,563.125 516.5,564.125 511.375,564.625 508.125,564.625 500.125,564.0 495.125,563.25 489.5,562.25 475.625,559.0 457.875,553.875 447.5,550.5 423.625,542.0 396.625,531.375 368.875,519.75"/>
    <polyline points="355.875,514.0 326.5,500.875 321.125,498.625 318.25,497.625 317.75,497.75 327.375,503.625 345.625,513.125 358.875,519.125 365.375,521.75 371.625,523.875 383.25,527.375 393.625,529.5 398.375,530.125 407.0,530.5 414.625,530.125"/>
    <polyline points="418.125,529.75 427.125,527.625 432.25,525.75 436.75,523.75 444.125,519.25 448.375,515.625 451.75,511.875 454.25,508.125 456.125,504.25 456.875,501.625"/>
    <polyline points="457.25,500.375 457.75,497.625 458.0,492.125 457.0,484.75 454.375,474.75 448.75,459.0"/>
    <polyline points="448.0,456.75 444.875,446.75 442.75,437.875 441.75,431.125 441.375,419.125 441.75,414.5 443.625,404.0 445.25,397.875 447.625,391.25 450.75,383.75 454.875,375.375 460.25,365.875 467.25,355.125 476.25,343.0 487.5,329.125 501.75,313.375 519.5,295.75"/>
    <polyline points="541.375,276.375 567.75,255.5 598.875,234.25 634.25,214.125 672.625,198.0 711.25,189.0 746.625,190.5 775.0,204.625 793.5,231.25 801.5,267.75 800.25,310.0 792.75,353.5 781.625,394.875 769.375,432.0 757.625,463.75 738.125,511.5 724.625,541.25 719.5,551.0 715.25,557.875 711.25,562.375 707.375,564.875 703.5,565.75 699.375,565.125 694.875,563.5"/>
    <polyline points="690.0,560.875 679.125,553.75 654.125,536.125 647.625,531.875 635.0,523.75 617.375,513.875 601.875,506.75 597.25,504.875 588.75,502.0 584.875,500.875 574.375,498.625 565.375,497.625"/>
    <polyline points="562.75,497.5 555.625,497.375 545.875,498.125 525.75,501.375"/>
    <polyline points="524.875,501.5 520.25,502.0 517.125,502.0 513.875,501.375 512.5,500.75"/>
    <polyline points="512.125,500.625 508.625,497.875 505.25,492.875"/>
    <polyline points="505.0,492.375 501.5,484.5 498.5,473.625"/>
    <polyline points="498.25,472.625 497.5,467.75 497.0,460.625 497.625,450.0 500.0,439.0 502.75,431.25 505.375,425.5"/>
    <polyline points="507.0,422.375 510.75,415.75 515.625,408.5 518.5,404.75 521.625,400.75 525.25,396.75 533.5,388.25 543.25,379.625 554.75,371.125 561.0,367.125 567.625,363.375 574.5,360.0 581.625,357.125 588.75,354.875 595.75,353.25 602.625,352.625 609.25,352.875 615.25,354.125 620.75,356.5 625.375,360.0 629.25,364.375"/>
    <polyline points="632.125,369.75 634.125,376.0 635.25,382.75 635.375,390.125 634.75,397.875 633.5,405.75 631.5,413.5 626.25,428.75 623.0,436.0 616.125,449.25 612.375,455.25 605.125,465.875 597.875,474.75 587.75,485.375 581.5,490.875 570.5,499.125"/>
    <polyline points="568.0,500.75 559.25,505.875 552.125,509.625 540.375,515.25 534.0,519.0"/>
    <polyline points="533.375,519.375 530.125,522.25 528.625,524.375 527.5,527.5 527.375,530.5"/>
    <polyline points="527.375,531.0 528.25,536.25 531.5,548.125"/>
    <polyline points="531.625,549.0 532.375,554.5 532.0,558.25 531.0,561.125 528.75,563.75 524.875,566.0 521.0,567.0 515.5,567.5 508.0,567.25"/>
    <polyline points="503.25,566.75 491.5,564.625 476.0,560.875 456.0,554.875 430.875,546.125 416.75,540.75 385.875,528.25 354.75,514.75 311.875,495.375 307.875,493.875 306.75,493.75 311.5,497.375 316.5,500.5 336.625,511.875"/>
    <polyline points="343.875,515.5 350.875,519.0 357.75,522.0 370.5,527.0 376.375,528.875 387.0,531.375 396.25,532.625 404.25,532.75 407.875,532.5 414.375,531.5 417.25,530.75 422.5,529.0 429.25,525.875 434.5,522.375 437.5,519.875"/>
    <polyline points="438.75,518.625 441.0,516.125 443.75,512.25 445.625,508.25 446.875,503.0 447.125,499.0 446.625,494.875 445.0,489.375 443.0,485.0"/>
    <polyline points="442.125,483.625 439.25,479.125 436.875,476.125 429.375,468.75 425.5,465.875 421.125,463.125 413.25,459.5 410.125,458.5 403.25,457.125 394.875,456.625 384.625,457.75 378.5,459.125"/>
    <polyline points="371.75,461.125 364.125,464.125 355.375,468.25 345.375,473.75 334.0,481.0 320.875,490.5 305.875,502.5 288.75,517.875 269.25,537.0 247.75,560.625 224.375,588.875 200.5,621.875 177.875,658.5 159.25,696.25 148.0,731.75 147.0,760.125 157.625,777.375 178.75,781.375 207.125,772.875 238.5,754.875 269.25,731.0 296.75,704.75 319.5,678.875 337.5,654.75 350.625,633.125 359.75,614.125"/>
    <polyline points="365.25,597.625 367.875,583.375 368.25,571.125 367.0,560.625 364.625,551.5 361.5,543.75 358.25,537.125 350.5,523.5 349.375,520.75 349.125,518.875 349.875,517.625 351.5,517.125 357.0,517.5 389.0,524.75 403.5,527.0"/>
    <polyline points="408.125,527.5 416.875,528.125 428.75,528.125 442.375,526.875 451.0,525.375 460.625,523.0 470.25,519.75 476.375,517.25"/>
    <polyline points="477.75,516.625 483.375,513.625 488.375,510.125 492.625,505.625 494.5,502.125"/>
    <polyline points="494.625,501.625 495.625,497.25 495.625,492.375 494.375,483.125"/>
    <polyline points="494.25,482.125 492.375,469.125 492.0,461.375 492.25,454.125 493.0,447.75 493.875,443.125"/>
    <polyline points="494.5,440.625 497.0,432.5 499.5,426.25 504.875,415.875 509.75,408.125 516.125,399.5 524.0,390.25 533.875,380.375 545.75,370.25 552.5,365.25 559.75,360.25 567.5,355.625 575.625,351.375 584.0,347.75 592.5,344.75 601.0,342.625"/>
    <polyline points="609.375,341.625 617.25,341.75 624.5,343.25 631.0,346.125 636.5,350.375 640.875,356.0 644.125,362.75 646.125,370.5 647.0,379.0 646.75,388.0 645.5,397.375 643.5,406.875 640.875,416.125 637.75,425.25 634.125,433.875 630.25,442.0 622.0,456.625 613.75,468.875 605.75,479.0 601.875,483.375 594.625,490.75 591.125,493.875"/>
    <polyline points="587.875,496.75 578.875,503.5 568.875,509.875 548.75,520.125 542.875,523.5"/>
    <polyline points="542.125,524.125 540.0,525.625 537.875,527.75 536.375,530.0 534.875,534.0 534.625,538.625"/>
    <polyline points="534.75,539.375 537.125,555.5 537.125,558.5 536.625,561.625"/>
    <polyline points="536.25,562.625 534.5,565.5 531.375,568.125 528.0,569.375 523.125,570.25 520.125,570.5 512.125,570.25 501.25,568.75 494.5,567.375 477.5,563.125 467.0,560.0 441.75,551.5 410.875,539.75 376.0,525.25"/>
    <polyline points="358.25,517.5 304.375,492.875 295.75,489.625 296.25,490.5 299.375,492.875 318.25,505.125 341.375,518.25 355.625,525.25 368.125,530.25 379.0,533.5 388.25,535.25 392.375,535.625 399.75,535.625"/>
    <polyline points="403.125,535.25 409.0,534.125 416.5,531.5 418.625,530.5 424.125,527.125 427.125,524.625 430.75,520.875 433.5,517.125 435.75,512.125 436.5,507.125"/>
    <polyline points="436.5,505.875 436.25,503.375 435.125,499.75 432.25,495.0 429.125,491.75 423.375,487.75 419.625,486.125 412.75,484.375 407.125,483.875 400.375,484.125"/>
    <polyline points="396.625,484.625 392.5,485.375 388.0,486.625 383.0,488.125 377.5,490.25 371.5,493.0 357.5,500.75 349.5,506.0 340.625,512.375 330.875,520.125 320.25,529.25 308.75,540.125 296.5,552.75 283.5,567.25 270.375,583.5 257.375,601.375 245.125,620.5 234.75,640.0 227.0,658.75 222.875,675.625 223.125,689.125 228.0,698.375 237.375,702.625 250.375,701.625 265.875,696.125"/>
    <polyline points="283.0,687.0 300.25,675.375 317.125,662.25 332.75,648.625 347.0,635.125 359.5,622.375 380.0,599.875 395.125,581.875 419.75,550.625 426.125,543.125 432.25,537.625 436.125,535.5"/>
    <polyline points="437.375,535.0 440.875,534.125 443.25,533.875 450.0,534.0 457.25,535.0 463.375,536.5"/>
    <polyline points="464.125,536.75 468.125,538.25 469.5,539.625 469.375,540.25 468.375,540.75 465.125,541.0"/>
    <polyline points="464.25,541.0 455.5,539.875 448.625,538.375 434.875,534.375 423.125,530.25"/>
    <polyline points="422.0,529.75 419.125,528.375 418.875,527.875 422.5,527.875 443.75,530.75"/>
    <polyline points="445.625,531.0 470.625,534.75 478.0,536.625 482.0,538.125"/>
    <polyline points="482.875,538.5 485.125,539.625 487.75,541.75 488.5,543.125 488.625,544.0 487.875,545.5 486.125,546.5 484.375,547.0 480.625,547.375"/>
    <polyline points="479.0,547.375 470.5,546.625 461.875,545.0 442.875,540.125 429.25,535.75 415.375,530.875 399.375,524.75 391.75,521.5"/>
    <polyline points="390.25,520.75 388.875,520.0 390.875,520.125 411.375,524.625 424.625,526.75 434.375,527.75 449.25,528.5"/>
    <polyline points="452.0,528.5 484.875,528.375 496.375,529.5"/>
    <polyline points="497.5,529.75 503.25,531.375 508.0,533.625 511.375,536.0 515.75,540.75"/>
    <polyline points="516.125,541.375 518.125,544.875 519.0,547.25 519.5,550.375 519.125,553.625 517.875,555.875 516.5,557.25 515.5,558.0 511.375,559.625"/>
    <polyline points="509.625,560.0 502.125,560.5 495.125,560.0 486.0,558.625 474.375,556.125 451.25,549.5 432.0,543.0 410.25,535.0 376.125,521.125 334.625,503.25"/>
    <polyline points="333.875,503.0 340.5,506.75 350.0,511.25 355.5,513.75 367.125,518.375 378.75,522.375 395.0,526.375 409.25,528.125 421.375,528.125 428.375,527.375 440.25,524.75"/>
    <polyline points="442.75,523.875 447.375,522.125 453.375,519.125 458.375,516.125 462.375,513.0 464.75,510.875 469.125,505.5 471.5,501.0 472.625,497.625"/>
    <polyline points="473.0,496.375 473.875,490.25 473.875,483.5 471.875,463.375 471.5,456.875"/>
    <polyline points="471.5,454.5 471.625,446.75 472.625,437.875 475.0,427.25 477.75,418.875 481.875,409.375 484.5,404.125 487.75,398.5 496.125,385.75 501.375,378.75 507.625,371.125 515.0,363.0 523.375,354.375 533.125,345.25 544.25,335.75 556.75,326.125 570.75,316.5"/>
    <polyline points="586.0,307.5 602.25,299.25 619.25,292.75 636.375,288.25 652.875,286.75 668.0,288.625 681.0,294.375 691.375,303.75 698.5,316.625 702.5,332.375 703.5,350.125 701.875,368.875 698.375,387.75 693.375,406.25 687.375,423.625 680.875,439.625 674.25,454.0 667.625,466.875 661.25,478.125 655.125,487.875 649.5,496.125 644.125,503.25 639.125,509.375 634.375,514.375 626.0,522.25"/>
    <polyline points="622.25,525.125 618.625,527.625 612.125,531.375 603.75,534.875 598.875,536.375 579.25,540.5 575.75,541.625 572.75,543.0"/>
    <polyline points="571.875,543.5 568.875,545.625 566.875,548.125 565.75,551.0 565.375,553.5 565.375,556.25 566.75,563.375"/>
    <polyline points="567.125,564.5 573.125,580.625 574.625,585.25 575.625,590.0 575.75,593.125 575.125,596.125 574.375,597.625 571.75,600.25"/>
    <polyline points="569.75,601.25 567.0,602.125 563.375,602.625 558.75,602.75 552.75,602.375 545.125,601.375 535.375,599.5 523.125,596.375 507.625,591.875 488.25,585.5 464.125,576.75 434.875,565.125 400.125,550.375 360.25,532.5 317.0,511.875 273.625,490.375 187.875,445.875 183.25,445.0 188.625,451.0 215.0,476.25 229.875,491.75 243.25,507.25 254.5,522.125"/>
    <polyline points="263.75,536.0 270.875,548.75 276.5,560.375 290.625,595.5 293.875,601.375 297.375,606.125 301.5,609.625 306.0,612.0 311.125,613.125 316.75,613.125 322.875,612.25 329.375,610.375 336.125,607.875 343.125,604.625 350.125,601.0 363.875,592.75 383.375,579.75 400.75,567.5"/>
    <polyline points="406.0,563.875 420.25,554.0 439.625,541.625 452.0,534.625 462.125,529.375 478.75,521.75"/>
    <polyline points="480.25,521.125 493.0,515.5 500.25,511.5"/>
    <polyline points="500.625,511.25 502.0,510.25 503.625,508.5 504.375,507.25 504.875,505.0"/>
    <polyline points="504.875,504.75 504.75,501.625 503.0,495.625"/>
    <polyline points="502.875,495.125 499.875,485.875 497.625,477.0"/>
    <polyline points="497.375,476.0 496.375,470.125 495.75,463.25 496.0,453.25 496.75,447.125 497.75,442.75 500.875,432.5"/>
    <polyline points="502.0,429.625 508.5,416.875 510.75,413.375 516.0,405.875 522.625,397.625 530.75,389.0 540.5,380.0 552.125,371.0 558.5,366.75 565.25,362.625 572.375,358.875 579.75,355.625 587.25,352.875 594.625,351.0 602.0,349.875 609.0,349.75 615.625,350.75 621.5,352.875"/>
    <polyline points="626.75,356.125 631.0,360.5 634.375,365.875 636.75,372.125 638.0,379.25 638.5,386.875 638.0,394.875 636.75,403.125 634.75,411.375 632.25,419.5 629.375,427.375 626.125,435.0 622.625,442.25 615.125,455.25 607.625,466.375 600.125,475.625 593.0,483.25 589.625,486.625 583.25,492.25 577.5,496.875"/>
    <polyline points="574.75,498.875 567.25,503.75 560.75,507.5 540.75,517.5 536.75,520.0"/>
    <polyline points="536.0,520.5 532.75,523.125 530.75,525.875 529.5,529.375 529.375,532.5"/>
    <polyline points="529.375,533.125 530.375,539.5 532.375,547.25 533.125,551.75"/>
    <polyline points="533.25,552.625 533.375,557.5 533.0,559.375 531.75,562.25 529.25,564.875 525.0,567.0 520.625,567.875 517.75,568.125 510.625,568.0 501.0,566.875 488.0,564.375"/>
    <polyline points="480.0,562.375 460.375,556.625 435.75,548.25 406.375,536.875 374.125,523.5 343.25,509.875 311.125,495.25 306.25,493.25 304.25,492.75 305.0,493.75 312.875,499.0 332.875,510.625 347.5,518.125 361.25,524.375"/>
    <polyline points="367.625,526.75 379.125,530.375 389.125,532.5 397.875,533.375 401.75,533.375 408.875,532.75 412.0,532.25 417.75,530.75 422.625,528.875 427.0,526.75 430.625,524.5 433.875,522.0 436.625,519.5 439.75,515.625"/>
    <polyline points="440.75,514.375 442.75,510.5 444.125,506.625 444.625,502.625 444.375,497.375 443.75,494.625 442.25,490.5 439.125,485.0 435.875,480.875"/>
    <polyline points="434.625,479.5 428.5,474.125 424.625,471.625 420.25,469.375 412.25,466.5 405.625,465.375 401.875,465.125 397.875,465.125 388.375,466.25 382.875,467.5 376.75,469.375 369.75,472.0 362.125,475.5 353.375,480.125 343.5,486.125 332.25,493.75 319.625,503.5"/>
    <polyline points="305.375,515.625 289.375,530.625 271.625,548.875 252.375,570.625 232.25,596.125 212.25,624.875 194.0,655.75 179.625,687.0 171.375,715.625 171.25,738.375 180.125,752.375 197.125,756.375 220.125,750.75 246.25,737.125 272.625,718.375 297.125,697.125 318.75,675.25 336.75,654.375 351.25,635.25 362.375,618.0 370.625,603.0 376.25,590.0 380.0,578.75 382.125,569.125 383.0,560.75 383.0,553.625"/>
    <polyline points="382.25,547.625 381.25,542.375 378.125,531.25 377.25,526.75 377.5,525.25 378.25,524.125 379.375,523.375 381.0,522.875 383.0,522.75 388.125,523.0 415.875,526.75 430.125,527.875"/>
    <polyline points="433.5,528.125 451.875,528.25 489.125,526.25"/>
    <polyline points="490.5,526.25 495.25,526.375 502.875,527.5 507.375,529.0 511.875,531.5"/>
  </g>
</svg>
