<?xml version="1.0" encoding="utf-8" ?>
<svg xmlns="http://www.w3.org/2000/svg" xmlns:cc="http://creativecommons.org/ns" xmlns:dc="http://purl.org/dc/elements/1.1/" xmlns:ev="http://www.w3.org/2001/xml-events" xmlns:inkscape="http://www.inkscape.org/namespaces/inkscape" xmlns:rdf="http://www.w3.org/1999/02/22-rdf-syntax-ns" xmlns:sodipodi="http://sodipodi.sourceforge.net/DTD/sodipodi-0.dtd" xmlns:xlink="http://www.w3.org/1999/xlink" baseProfile="tiny" height="27.09333333cm" version="1.2" viewBox="0 0 1024.0 1024.0" width="27.09333333cm">
  <metadata>
    <rdf:RDF>
      <cc:Work>
        <dc:format>image/svg+xml</dc:format>
        <dc:source>vpype read './original_svgs/Strange Attractors #395.svg' linemerge linesimplify write './Strange Attractors #395.svg'
</dc:source>
        <dc:date>2024-08-05T01:35:55.930805</dc:date>
      </cc:Work>
    </rdf:RDF>
  </metadata>
  <defs/>
  <g fill="none" id="layer1" inkscape:groupmode="layer" inkscape:label="1" stroke="black" stroke-width="0.7mm" style="display:inline">
    <polyline points="802.25,765.75 825.375,695.25 839.625,655.125 849.25,637.25 855.875,636.625 858.625,650.5 855.75,677.125 843.0,715.375 814.5,761.125 763.625,804.75 688.5,830.25 597.625,821.875 508.25,776.75 435.75,707.375 385.375,630.25 355.125,556.75 340.375,490.875 338.0,433.0 346.0,382.125 363.75,338.625 390.375,303.75 424.625,280.5 463.5,271.625 503.125,278.25 539.625,299.0 570.25,329.625"/>
    <polyline points="593.75,365.5 610.5,402.125 621.375,436.875 627.625,467.75 630.125,494.5 629.75,516.75 627.25,535.0 622.875,549.5 617.125,560.625 610.25,568.75 602.5,574.125 594.25,577.125 585.625,578.125 577.0,577.25 568.5,574.875 560.25,571.25 552.625,566.875 545.5,561.75 539.0,556.375 533.125,550.75 523.375,539.875 516.0,530.0 510.5,521.625"/>
    <polyline points="508.375,518.0 500.375,504.375 497.625,500.625 496.625,499.625 495.25,499.0 494.0,499.0 490.875,500.0"/>
    <polyline points="490.375,500.25 487.25,501.375 482.25,502.375 473.5,502.75"/>
    <polyline points="472.625,502.625 463.5,501.75 455.125,500.125 447.0,497.875 442.75,496.25"/>
    <polyline points="441.25,495.625 432.25,491.125 429.25,489.125 423.5,484.25 419.375,479.625 416.0,474.0 414.25,469.75 413.0,464.875 412.625,456.75"/>
    <polyline points="413.0,453.75 414.5,447.75 417.25,441.625 421.5,435.625 424.125,432.875 427.125,430.25 430.5,428.0 434.25,426.125 438.25,424.625 442.625,423.625 447.125,423.0 451.75,423.0 456.5,423.625 461.25,424.75 466.0,426.375 470.625,428.625 475.125,431.25 479.375,434.25 487.125,441.125 490.5,445.0 496.5,452.75"/>
    <polyline points="499.0,456.75 501.25,460.5 505.0,467.875 507.75,474.5 509.75,480.375 511.75,487.75 512.75,493.375 513.25,498.875 512.875,505.125"/>
    <polyline points="512.75,505.625 511.5,508.875 510.625,509.875 509.0,510.875 506.375,511.375 500.25,511.375"/>
    <line x1="499.875" x2="488.75" y1="511.375" y2="510.625"/>
    <polyline points="488.125,510.625 478.625,509.75 466.625,508.0"/>
    <polyline points="465.5,507.875 458.0,506.5 447.875,504.125 436.375,500.375 427.375,496.375"/>
    <polyline points="425.625,495.375 420.0,492.0 416.375,489.25 411.125,484.25 407.875,480.25 404.875,475.5 402.5,470.125 401.5,467.125 400.25,460.5 400.0,456.75 400.5,448.875 402.625,440.25 406.75,431.375 409.625,427.0"/>
    <polyline points="413.125,422.75 417.125,418.75 421.875,415.125 427.125,412.0 432.875,409.5 439.0,407.75 445.625,407.0 452.375,407.0 459.25,408.125 466.125,410.125 472.875,413.0 479.375,416.75 485.5,421.125 491.25,426.125 496.375,431.5 501.125,437.125 505.25,442.875 512.25,454.25 517.375,464.875 521.0,474.25 524.5,485.875"/>
    <polyline points="525.25,489.0 527.125,498.75 528.5,510.625 529.0,511.875 530.0,512.75"/>
    <polyline points="530.25,512.875 532.75,513.375 542.125,513.25"/>
    <polyline points="542.875,513.25 556.0,512.5 570.75,511.0"/>
    <polyline points="572.375,510.75 588.625,508.125 597.25,506.125 606.625,503.25 616.875,499.125 627.625,492.875"/>
    <polyline points="630.25,490.875 635.5,486.25 638.125,483.375 640.5,480.375 644.875,473.0 646.625,468.75 648.0,464.0 649.0,458.75 649.375,453.0 649.0,446.625 647.75,439.875 645.375,432.5 641.75,425.0 636.75,417.25 630.125,409.75 621.875,402.625 611.75,396.625 600.125,392.0 587.25,389.5 573.25,389.25 559.0,391.5 544.75,396.5 531.25,403.75 518.875,413.125"/>
    <polyline points="507.875,423.875 498.375,435.375 490.5,447.25 484.125,459.0 479.0,470.125 475.0,480.5 471.875,490.0 469.625,498.5 467.875,505.875 465.875,518.0 464.75,526.75 463.875,538.0 463.25,540.375 462.625,540.875 461.375,540.75"/>
    <polyline points="460.75,540.5 454.125,537.625 446.5,535.5 435.0,533.625 427.0,533.0"/>
    <polyline points="424.875,532.875 407.625,532.5 396.0,533.0 383.0,534.125 368.5,536.375 360.5,538.125 352.25,540.625 343.375,543.875"/>
    <polyline points="338.875,545.875 329.375,551.25 324.625,554.625 319.625,558.625 314.75,563.25 309.75,568.875 304.875,575.625 300.125,583.5 295.75,593.0 291.75,604.375 288.625,617.75 286.625,633.375 286.25,651.625 288.5,672.25 294.0,695.0 304.0,718.625 319.375,741.5 340.625,760.75 367.75,773.25 399.375,776.25 433.0,768.125 466.0,749.5 496.0,722.625 521.375,690.875 541.875,657.5"/>
    <polyline points="557.5,625.0 568.875,594.875 577.0,568.0 582.25,544.625 585.5,524.5 586.875,507.375 586.875,493.125 585.75,481.25 583.625,471.375 580.75,463.625 577.125,457.375 573.0,452.75 568.375,449.5 563.5,447.625 558.5,446.75 553.5,447.0 548.5,448.125 543.625,450.125 539.0,452.75 534.75,455.75 530.75,459.25 524.125,466.875 521.25,470.875 516.875,478.5"/>
    <polyline points="515.125,482.125 513.625,485.5 511.5,491.75 510.125,496.875 509.375,501.125 509.125,504.5 509.375,509.875 510.375,512.375 511.125,513.125 511.875,513.375"/>
    <polyline points="512.125,513.5 513.75,513.5 517.875,512.625"/>
    <line x1="518.125" x2="525.875" y1="512.625" y2="512.125"/>
    <line x1="526.375" x2="540.75" y1="512.125" y2="511.75"/>
    <polyline points="541.5,511.75 556.5,510.875 570.25,509.375"/>
    <polyline points="571.875,509.125 578.75,508.125 588.25,506.25 601.375,502.625 606.125,500.875 613.5,497.625 621.125,493.25 626.25,489.5"/>
    <polyline points="628.75,487.375 631.125,485.0 635.75,479.375 639.75,472.375 641.375,468.375 642.625,463.875 643.375,459.0 643.75,453.75 643.25,447.875 642.125,441.75 640.0,435.125 636.75,428.25 632.25,421.375 626.375,414.75 619.0,408.375 610.125,403.0 600.0,398.75 588.625,396.125 576.25,395.5 563.5,397.0 550.75,400.75 538.375,406.625 526.875,414.25 516.375,423.375"/>
    <polyline points="507.125,433.375 499.375,443.875 492.75,454.375 487.375,464.625 483.125,474.375 479.75,483.375 477.25,491.5 473.75,505.25 471.25,519.875 469.625,534.125 469.125,535.375 468.5,535.875 467.125,535.75"/>
    <polyline points="466.5,535.5 459.125,532.5 451.75,530.375 442.375,528.5 435.0,527.375"/>
    <polyline points="433.0,527.125 377.5,521.625 358.25,519.125"/>
    <polyline points="354.125,518.375 345.5,516.875 331.875,513.5 327.125,512.0 317.375,508.125 307.375,502.75 302.375,499.25 297.5,495.0 292.625,489.875 287.875,483.5 283.5,475.875 279.625,466.5 276.5,454.875 274.625,440.625 274.25,423.125 276.5,401.875 282.25,376.375 292.875,347.0 310.25,314.375 335.75,281.25 370.5,251.75"/>
    <polyline points="413.625,232.0 461.75,227.5 509.875,240.875 553.125,270.375 588.125,310.5 614.0,355.0 631.75,398.75 643.0,438.75 649.125,473.5 651.5,503.0 651.125,527.5 648.25,547.5 643.5,563.625 637.125,576.25 629.125,585.75 620.0,592.25 609.875,596.125 599.0,597.375 588.0,596.375 576.875,593.375 566.125,588.75 555.875,582.75 546.375,575.875 537.75,568.5 530.125,560.75 523.375,553.125"/>
    <polyline points="517.5,545.625 512.5,538.625 504.625,526.125 497.0,511.75 488.875,494.375 487.25,492.25 486.125,492.0 484.75,492.625"/>
    <polyline points="484.375,492.75 481.875,494.375 478.0,496.0 474.625,496.75 469.125,497.125"/>
    <polyline points="468.25,497.125 460.5,496.375 455.125,495.25 448.125,493.0 440.625,489.5"/>
    <polyline points="439.375,488.75 435.625,486.375 429.875,481.125 426.75,477.125 424.25,472.5 422.625,467.125 422.125,461.125 422.625,456.75 423.875,452.375 424.875,450.25"/>
    <polyline points="426.125,448.125 429.125,444.0 431.125,442.0 433.25,440.25 438.125,437.375 443.875,435.5 447.0,435.0 453.5,435.0 456.875,435.5 463.625,437.5 467.0,439.0 473.25,442.75 476.25,445.0 484.125,452.625 488.5,458.125 492.0,463.75"/>
    <polyline points="493.5,466.375 497.125,473.875 500.0,482.5 500.75,486.0 501.5,491.75 501.5,495.0 500.75,499.125 499.75,501.375"/>
    <polyline points="499.375,501.75 498.125,503.375 495.25,505.125 492.0,506.125 488.0,506.75"/>
    <polyline points="487.375,506.75 477.75,506.75 465.875,505.375"/>
    <polyline points="464.625,505.25 453.25,503.0 444.375,500.5 434.75,496.75 428.0,493.25"/>
    <polyline points="426.375,492.125 423.0,489.875 419.625,487.125 416.375,484.0 413.375,480.5 410.75,476.375 408.375,471.625 406.625,466.25 406.125,463.375 405.625,457.0 405.75,453.5 407.125,446.25 410.0,438.625 414.625,431.125 417.75,427.5"/>
    <polyline points="421.25,424.125 425.25,421.125 429.75,418.5 434.75,416.5 440.0,415.0 445.5,414.25 451.25,414.125 457.25,414.875 463.125,416.375 468.875,418.625 474.625,421.5 480.0,425.0 485.125,429.0 489.875,433.375 494.25,438.0 501.625,447.75 507.5,457.375 512.0,466.375 515.25,474.5 518.375,484.625"/>
    <polyline points="519.125,487.5 521.25,499.625 522.0,510.625 522.875,511.75 525.375,512.375 527.625,512.5"/>
    <line x1="528.0" x2="541.875" y1="512.5" y2="512.25"/>
    <polyline points="542.625,512.25 557.625,511.375 571.75,509.75"/>
    <polyline points="573.375,509.625 580.375,508.5 594.375,505.5 608.375,501.0 613.375,498.875 621.125,494.75 628.875,489.125"/>
    <polyline points="631.375,486.75 633.875,484.25 638.5,478.25 640.625,474.75 642.5,470.875 644.0,466.5 645.125,461.75 645.75,456.5 645.75,450.75 645.0,444.625 643.375,438.0 640.75,431.0 636.75,423.875 631.375,416.625 624.625,409.75 616.125,403.625 606.25,398.5 594.875,394.875 582.5,393.125 569.375,393.625 555.875,396.5 542.75,401.625 530.375,409.0 519.0,417.875 508.875,428.0"/>
    <polyline points="500.25,438.875 492.875,450.0 487.0,460.875 482.25,471.125 478.5,480.875 473.375,497.5 470.5,510.625 469.625,515.75 467.375,535.875 466.625,537.5 465.375,537.75 464.375,537.375"/>
    <polyline points="463.75,537.125 455.75,534.0 447.75,531.875 439.625,530.375 429.875,529.25"/>
    <polyline points="427.75,529.0 416.0,528.0 393.25,527.0 383.25,526.75 347.75,527.0"/>
    <polyline points="343.25,527.25 333.875,527.625 318.625,528.875 302.125,531.25 290.25,533.875 284.0,535.75 277.625,538.0 271.125,540.75 264.375,544.25 257.375,548.75 250.25,554.5 243.0,561.75 235.75,571.0 228.5,583.0 221.625,598.5 215.5,618.625 211.0,644.375 209.375,677.125 213.0,717.75 225.125,765.375"/>
    <polyline points="249.875,816.375 291.125,862.125 349.25,889.625 418.5,887.0 487.875,851.875 547.25,792.75 591.625,723.5 621.5,655.125 639.5,593.5 648.25,540.5 649.875,495.625 645.375,458.125 635.375,427.125 620.375,402.625 601.0,384.875 578.375,374.375 553.875,371.625 529.25,376.25 506.25,387.5 486.125,403.875 469.5,423.125 456.5,443.875 446.75,464.375 439.875,483.75 435.25,501.375 432.375,517.0"/>
    <polyline points="430.875,530.5 430.375,541.875 430.625,551.375 431.5,559.125 432.75,565.5 434.25,570.375 436.0,574.125 437.875,576.875 439.875,578.75 441.875,579.875 443.75,580.375 445.75,580.375 447.625,580.0 449.5,579.125 452.75,576.75 455.625,573.625 459.0,568.25 460.75,564.625 462.375,559.375"/>
    <polyline points="462.625,557.75 463.0,554.625 462.875,550.5 461.5,546.0 459.75,543.25 457.375,540.875 453.375,538.375 449.75,536.875 445.625,535.625"/>
    <polyline points="444.0,535.375 440.875,534.625 431.75,533.375 413.75,532.5 393.875,533.125 384.125,534.125"/>
    <polyline points="380.625,534.5 373.375,535.5 365.75,537.0 353.5,540.25 344.875,543.375 340.25,545.375 331.0,550.375 326.125,553.625 321.25,557.5 316.25,562.0 311.375,567.25 306.5,573.625 301.625,581.25 297.125,590.25 293.0,601.0 289.625,613.75 287.25,628.75 286.375,646.125 287.875,666.125 292.375,688.25"/>
    <polyline points="300.875,711.75 314.625,734.875 334.125,755.5 359.625,770.125 390.0,776.125 423.25,771.25 456.625,755.5 487.625,730.75 514.375,700.25 536.125,667.125 553.125,634.25 565.625,603.5 574.625,575.625 580.75,551.25 584.5,530.25 586.375,512.375 586.875,497.25 586.0,484.75 584.25,474.375 581.625,466.0 578.25,459.375 574.25,454.375 569.875,450.625 565.125,448.375 560.125,447.125 555.125,447.125"/>
    <polyline points="550.125,448.0 545.25,449.625 540.625,452.0 536.25,454.875 532.25,458.25 528.625,461.875 522.5,469.5 517.75,477.25 514.375,484.375 512.125,490.625 510.625,496.0 509.625,502.125 509.375,506.5 509.875,510.125"/>
    <polyline points="510.125,510.75 510.75,512.125 512.125,513.25 514.125,513.375 516.125,513.0"/>
    <polyline points="516.375,513.0 521.5,512.25 533.5,512.375"/>
    <line x1="523.875" x2="536.25" y1="512.125" y2="511.875"/>
    <polyline points="537.0,511.875 548.625,511.375 561.375,510.375"/>
    <polyline points="562.75,510.25 578.5,508.125 592.25,505.25 601.125,502.625 610.625,498.875"/>
    <polyline points="613.125,497.625 620.75,493.375 623.375,491.625 628.375,487.5 633.25,482.5 635.5,479.5 639.5,472.75 641.125,468.75 642.375,464.25 643.25,459.5 643.5,454.125 643.25,448.375 642.125,442.25 640.0,435.75 636.875,429.0 632.5,422.125 626.75,415.375 619.625,409.0 610.875,403.5 600.875,399.25 589.5,396.5"/>
    <polyline points="577.375,395.625 564.625,397.0 551.875,400.5 539.5,406.125 527.875,413.625 517.375,422.625 508.125,432.5 500.125,442.875 493.5,453.5 488.0,463.75 483.625,473.5 480.25,482.5 475.5,498.125 472.875,510.25 471.5,519.375 470.0,533.0 469.5,534.625"/>
    <polyline points="469.25,535.125 468.625,535.75 467.375,535.625 457.25,531.75 453.5,530.625 446.125,529.0"/>
    <polyline points="444.5,528.75 429.25,526.5 381.875,521.75"/>
    <polyline points="378.375,521.25 363.25,519.375 350.875,517.25 337.625,514.125 328.375,511.125 318.75,507.125 308.875,501.5 304.0,497.75 299.125,493.375 294.375,488.0 289.875,481.5 285.75,473.5 282.125,463.75 279.25,451.75 277.75,437.125 277.875,419.25"/>
    <polyline points="280.75,397.625 287.25,372.125 298.875,342.75 317.125,311.0 343.625,279.25 378.75,252.125 421.375,235.125 468.25,233.375 514.5,248.625 555.5,278.625 588.5,318.25 612.875,361.25 629.5,403.375 640.0,441.625 645.875,475.0 648.125,503.125 647.75,526.625 645.125,545.875 640.75,561.25 634.75,573.375 627.375,582.5 618.75,588.875 609.375,592.75 599.375,594.25 589.0,593.625 578.625,591.125"/>
    <polyline points="568.5,587.125 558.875,581.75 549.75,575.625 541.5,568.75 534.125,561.75 527.5,554.625 521.75,547.625 512.375,534.75 503.0,519.25 491.25,496.5 489.375,494.75"/>
    <polyline points="489.0,494.625 488.125,494.5 486.625,495.0 479.75,497.75 475.625,498.5"/>
    <polyline points="474.875,498.5 469.875,498.75 463.25,498.25 455.5,496.75 449.375,495.0"/>
    <polyline points="448.125,494.5 444.25,493.0 437.625,489.625 435.0,488.0 429.875,483.875 426.375,480.125 423.25,475.625 420.875,470.25 419.875,466.25"/>
    <polyline points="419.625,464.125 419.375,461.875 419.625,457.25 420.75,452.5 422.75,447.625 425.875,442.875 430.0,438.625 432.5,436.75 438.25,433.75 441.375,432.625 444.75,431.875 448.375,431.5 452.0,431.5 459.5,432.75 466.875,435.5 470.5,437.375 477.25,442.125"/>
    <polyline points="480.375,444.75 483.375,447.625 488.5,453.625 492.875,459.75 497.75,468.75 501.125,476.625 503.25,483.25 504.625,490.25 504.875,493.125 504.75,498.25"/>
    <polyline points="504.625,499.125 503.875,501.75 502.125,504.75 499.5,506.625 497.125,507.375"/>
    <polyline points="496.75,507.5 494.5,508.0 489.75,508.375 482.375,508.25"/>
    <polyline points="481.625,508.125 475.625,507.75 467.5,506.75 455.125,504.375"/>
    <polyline points="453.75,504.125 440.125,500.125 433.375,497.375 428.125,494.75 422.875,491.5 419.375,488.875 416.0,485.875 412.75,482.375"/>
    <polyline points="411.25,480.5 409.75,478.375 407.25,473.75 405.125,468.5 403.75,462.375 403.375,459.125 403.375,455.625 404.25,448.125 406.625,440.125 408.5,436.0 410.875,432.0 413.75,428.0 417.125,424.25 421.125,420.75 425.5,417.625 430.5,415.0 435.875,413.0 441.625,411.75 447.75,411.25 453.875,411.5 460.25,412.625"/>
    <polyline points="466.5,414.625 472.625,417.375 478.5,420.75 484.125,424.875 489.375,429.375 494.125,434.25 498.5,439.375 502.375,444.625 505.75,449.875 511.375,460.0 515.625,469.25 517.25,473.5 519.75,481.0 521.5,487.375 523.0,494.875 524.0,503.0"/>
    <polyline points="524.125,504.125 524.75,510.5 525.75,512.0 527.125,512.5"/>
    <polyline points="527.375,512.5 531.5,512.875 538.75,512.75"/>
    <polyline points="539.375,512.75 550.375,512.25 564.75,511.0"/>
    <polyline points="566.125,510.875 582.75,508.5 592.875,506.375 606.625,502.25 616.75,497.875"/>
    <polyline points="619.375,496.5 624.625,493.25 629.875,489.375 635.0,484.375 639.625,478.375 641.75,474.75 643.625,470.875 645.125,466.5 646.25,461.625 646.875,456.25 646.875,450.375 646.125,444.125 644.5,437.25 641.75,430.125 637.625,422.75 632.125,415.5 625.0,408.5 616.375,402.125 606.125,396.875 594.375,393.25 581.625,391.75 568.0,392.375"/>
    <polyline points="554.375,395.625 541.0,401.125 528.375,408.75 516.875,418.125 506.75,428.625 498.0,439.875 490.875,451.125 485.0,462.25 480.25,472.75 476.625,482.5 473.875,491.375 471.75,499.25 469.0,512.25 467.625,521.875 466.25,536.125 465.875,537.75 465.25,538.625"/>
    <polyline points="464.875,538.75 463.625,538.625 458.375,536.375 451.625,534.125 444.375,532.5 437.625,531.5"/>
    <polyline points="435.75,531.25 423.125,530.0 408.125,529.25 399.5,529.125 390.0,529.125 372.5,529.75 364.75,530.375"/>
    <polyline points="360.625,530.75 352.25,531.625 343.25,533.0 333.875,534.875 323.875,537.625 318.625,539.375 307.75,544.0 302.125,547.125 296.375,550.875 290.5,555.375 284.5,561.0 278.5,567.875 272.5,576.375 266.75,586.75 261.375,599.625 256.75,615.625 253.375,635.125 252.125,658.625 254.125,686.75 261.0,718.75 274.75,753.125"/>
    <polyline points="297.625,786.5 330.5,813.25 372.5,827.0 420.25,822.75 468.25,799.75 511.375,762.0 546.625,715.875 573.125,667.75 591.75,622.125 604.0,581.0 611.125,545.375 614.25,515.0 614.0,489.5 611.125,468.25 605.875,450.75 598.375,437.0 589.25,426.5 578.625,419.375 567.0,415.375 555.0,414.625 542.875,416.625 531.25,421.25 520.5,427.875 510.875,436.125 502.5,445.25 495.375,455.0"/>
    <polyline points="489.5,464.75 484.75,474.25 481.0,483.125 475.875,498.75 474.25,505.375 471.625,520.5 470.625,536.125 470.375,536.875 470.0,537.0 468.0,535.875"/>
    <polyline points="467.375,535.5 462.875,533.0 455.125,530.25 448.0,528.5 435.625,526.375"/>
    <polyline points="433.625,526.125 389.125,520.875 367.75,517.5 359.875,515.875"/>
    <polyline points="355.875,514.875 347.5,512.5 338.75,509.375 329.875,505.125 325.25,502.5 320.75,499.375 316.25,495.75 311.75,491.25 307.375,486.125 303.25,479.75 299.5,472.25 296.25,463.125 293.875,452.125 292.375,438.875 292.625,423.0 295.0,404.125 300.375,382.125 310.0,357.25 324.75,330.25 346.0,302.875 374.25,278.5 408.875,260.875 448.125,254.125"/>
    <polyline points="488.625,260.625 526.625,280.25 559.25,309.875 585.125,345.25 604.375,382.0 617.625,417.375 626.25,449.25 631.125,477.125 633.375,500.75 633.375,520.5 631.75,536.75 628.75,549.875 624.625,560.25 619.5,568.25 613.625,574.125 607.0,578.125 600.0,580.375 592.625,581.125 585.125,580.375 577.625,578.625 570.375,575.75 563.375,572.25 556.75,568.0 550.5,563.375 544.875,558.625 539.75,553.75"/>
    <polyline points="535.125,548.875 530.875,544.125 524.0,535.375 514.5,521.625 509.0,512.75 505.625,507.875 502.75,505.0 501.875,504.5 500.5,504.25"/>
    <polyline points="500.125,504.25 498.5,504.375 493.625,505.625 488.125,506.375"/>
    <polyline points="487.5,506.375 478.75,506.5 466.125,505.25"/>
    <polyline points="465.0,505.0 457.625,503.75 452.25,502.5 443.375,499.875 437.0,497.375 428.75,493.25"/>
    <polyline points="427.0,492.25 418.75,485.875 415.625,482.625 412.75,478.875 409.125,472.125 408.125,469.625 406.75,464.0 406.125,457.75 406.25,454.5 407.5,447.375 408.625,443.625 410.125,439.875 412.125,436.125 414.5,432.375 417.375,428.875"/>
    <polyline points="420.75,425.5 424.625,422.5 428.875,419.75 433.625,417.625 438.75,416.0 444.125,415.125 449.75,414.875 455.5,415.375 461.375,416.625 467.125,418.625 472.75,421.25 478.125,424.5 483.25,428.25 488.0,432.5 492.5,437.0 496.5,441.625 500.125,446.5 506.125,456.0 510.75,465.0 515.5,476.875 517.5,483.5"/>
    <polyline points="518.25,486.375 520.375,497.25 521.25,510.625 522.0,511.625 522.625,511.875 526.0,512.375"/>
    <line x1="526.25" x2="538.625" y1="512.375" y2="512.375"/>
    <polyline points="539.25,512.375 551.625,511.75 565.125,510.5"/>
    <polyline points="566.625,510.375 581.5,508.25 593.625,505.625 600.375,503.75 607.5,501.25 617.5,496.625"/>
    <polyline points="620.125,495.125 628.0,489.625 630.5,487.5 635.375,482.25 637.75,479.125 641.75,472.0 643.375,467.875 644.625,463.25 645.375,458.125 645.625,452.625 645.125,446.5 643.75,440.125 641.375,433.25 637.875,426.125 633.0,419.0 626.625,412.0 618.75,405.625 609.25,400.125 598.375,396.0 586.25,393.75 573.375,393.5 560.125,395.625"/>
    <polyline points="546.875,400.125 534.25,406.75 522.5,415.125 512.125,424.875 503.0,435.5 495.375,446.5 489.0,457.5 483.875,468.0 479.875,477.75 476.75,486.875 474.375,495.0 471.125,508.5 469.0,522.625 467.875,534.25 467.5,536.125 466.625,537.375"/>
    <polyline points="466.25,537.5 464.875,537.25 459.5,535.0 454.0,533.125 448.625,531.75 438.75,530.0"/>
    <polyline points="436.875,529.75 424.5,528.375 406.75,527.125 388.375,526.375 366.625,526.0"/>
    <polyline points="362.625,525.875 345.625,525.875 321.375,526.5 310.75,527.125 299.375,528.125 287.5,529.625 274.75,532.125 268.125,533.75 254.25,538.75 247.0,542.25 239.5,546.75 231.875,552.625 224.0,560.25 216.125,570.375"/>
    <polyline points="208.25,583.625 200.625,601.125 194.0,624.25 189.375,654.75 188.625,694.125 194.75,743.625 212.875,801.625 248.5,861.25 306.0,908.375 382.5,924.625 465.625,899.125 540.25,837.75 596.875,758.125 634.5,677.0 656.5,603.375 666.625,540.125 667.375,486.75 660.125,442.125 645.375,405.625 623.75,377.25 596.375,358.25 565.0,349.875 532.375,352.5 501.5,365.25 474.625,386.0 453.0,411.75"/>
    <polyline points="436.625,439.375 425.125,466.625 417.5,492.125 413.125,514.875 411.0,534.625 410.625,551.375 411.625,565.5 413.625,576.875 416.375,586.0 419.75,593.125 423.5,598.375 427.75,601.875 432.125,604.125 436.625,605.0 441.125,604.75 445.625,603.5 449.875,601.5 454.125,598.875 458.125,595.75 461.875,592.25 468.5,584.625 471.375,580.625 476.375,572.75 478.375,568.875"/>
    <polyline points="480.25,565.25 485.75,552.375 488.125,544.75 489.875,537.125 490.375,532.875 490.375,529.625 490.0,527.0 488.625,523.875"/>
    <polyline points="488.25,523.375 487.5,522.375 485.0,520.5 481.125,518.625 475.5,516.875 470.5,515.75"/>
    <polyline points="469.5,515.5 446.0,510.5 431.25,506.375"/>
    <polyline points="429.25,505.75 418.625,501.625 411.875,498.25 407.25,495.5 402.75,492.125 398.25,488.25 394.0,483.625 390.125,478.0 388.25,474.75 385.375,467.375 384.25,463.125 383.5,458.5 383.0,453.5 383.125,448.125"/>
    <polyline points="383.625,442.375 384.875,436.25 386.75,429.875 389.5,423.25 393.125,416.5 397.75,409.75 403.375,403.25 410.0,397.375 417.75,392.25 426.25,388.125 435.75,385.375 445.625,384.25 456.0,384.75 466.375,387.125 476.5,391.125 486.25,396.625 495.375,403.5 503.5,411.375 510.875,419.75 517.375,428.5 522.875,437.375 527.5,446.0 531.375,454.25 537.125,469.25 539.125,475.875"/>
    <polyline points="540.875,481.75 543.875,495.875 544.875,502.625 546.25,516.5 546.625,517.875 547.125,518.375 548.125,518.75 549.25,518.75"/>
    <line x1="549.75" x2="574.25" y1="518.75" y2="516.0"/>
    <polyline points="575.875,515.875 594.125,513.375 607.875,510.75 621.25,507.125 633.125,502.5"/>
    <polyline points="636.25,501.0 642.5,497.5 649.0,492.875 652.125,490.25 658.25,483.625 661.125,479.625 663.875,475.0 666.125,469.75 668.125,463.875 669.375,457.125 670.0,449.625 669.5,441.125 667.75,431.75 664.5,421.5 659.125,410.625 651.5,399.5 641.125,388.625 628.0,378.75 612.125,371.0 594.0,366.125 574.125,365.125 553.5,368.5 533.5,376.25"/>
    <polyline points="514.75,387.875 498.25,402.5 484.375,418.875 473.125,436.125 464.25,453.125 457.5,469.375 452.5,484.25 449.0,497.5 446.625,509.25 445.0,519.375 443.5,535.375 443.25,546.375 444.0,556.25 445.0,560.75 445.75,562.125 446.125,561.75"/>
    <polyline points="446.0,561.375 445.5,559.875 443.875,557.625 441.125,555.625 438.5,554.375 434.0,553.125 427.125,552.625 424.0,552.875"/>
    <polyline points="422.375,553.0 417.125,553.75 411.375,555.25 403.0,558.375 396.5,561.875 389.75,566.75 387.5,568.625 383.125,573.25 379.0,578.75 375.375,585.25 372.375,593.0"/>
    <polyline points="371.25,597.375 370.5,602.0 370.125,606.875 370.125,612.0 370.75,617.375 371.875,622.875 373.75,628.375 376.5,633.75 379.875,638.875 384.125,643.5 389.25,647.5 395.25,650.625 402.0,652.625 409.375,653.375 417.125,652.875 425.375,650.875 433.625,647.625 441.875,643.0 450.0,637.25 457.625,630.625 464.75,623.375 471.375,615.5 477.25,607.5 482.625,599.5 487.375,591.625 491.5,584.0"/>
    <polyline points="495.125,576.875 501.0,563.875 505.375,552.75 516.5,521.125 519.125,516.125 521.625,513.5"/>
    <polyline points="522.125,513.125 524.625,511.875 528.5,511.0 537.125,510.375"/>
    <polyline points="537.875,510.375 554.375,509.375 565.0,508.25"/>
    <polyline points="566.5,508.125 574.375,507.0 583.375,505.25 595.75,502.0 604.75,498.625 611.875,495.125 616.625,492.25"/>
    <polyline points="619.125,490.5 626.125,484.375 628.375,481.875 632.375,476.125 635.625,469.125 636.875,465.0 637.625,460.625 638.0,455.875 637.75,450.625 636.875,445.125 635.125,439.375 632.5,433.375 628.75,427.25 623.875,421.25 617.875,415.5 610.5,410.5 601.875,406.25 592.25,403.375 581.625,402.0 570.5,402.375 559.125,404.625 547.875,408.75"/>
    <polyline points="537.125,414.5 527.125,421.625 518.0,429.875 510.0,438.875 503.125,448.125 497.375,457.5 492.625,466.5 488.875,475.125 485.75,483.0 483.375,490.25 480.125,502.5 478.25,512.0 476.125,528.375 475.75,530.0 475.25,530.875 474.875,531.0"/>
    <polyline points="474.625,531.125 472.125,530.625 466.0,528.0 461.75,526.625 451.0,524.0"/>
    <polyline points="449.375,523.75 414.25,517.375 403.375,515.0 391.5,511.75"/>
    <polyline points="388.25,510.875 375.125,505.625 368.25,502.125 364.75,499.875 361.25,497.5 354.375,491.625 351.0,488.0 347.75,483.875 344.75,479.125 341.875,473.75 339.375,467.5 337.375,460.25 335.875,452.0 335.25,442.5 335.625,431.75 337.375,419.5 340.75,406.0 346.25,391.25 354.375,375.625 365.375,359.75 379.625,344.625"/>
    <polyline points="397.125,331.625 417.5,322.125 440.25,317.375 464.0,318.625 487.5,325.875 509.5,338.75 529.0,355.875 545.5,375.75 558.875,396.875 569.375,417.875 577.125,437.75 582.875,455.875 586.75,472.125 589.375,486.25 590.75,498.375 591.375,508.625 591.375,517.125 590.875,524.25 590.0,530.0 588.75,534.625 587.375,538.25 585.75,541.125 584.125,543.25 582.375,544.75 580.5,545.75 578.75,546.25"/>
    <polyline points="577.0,546.5 573.5,546.125 570.25,544.875 567.375,543.25 563.75,540.25 561.75,538.25 559.5,535.25 558.5,533.375 557.75,531.75 557.25,529.5 557.625,527.125"/>
    <polyline points="557.75,526.625 558.375,525.625 560.25,524.125 563.75,522.625 568.375,521.5 579.875,519.875"/>
    <polyline points="581.375,519.75 602.0,517.375 614.0,515.625 628.0,512.875 637.375,510.5 640.625,509.375"/>
    <polyline points="644.0,508.25 654.5,503.875 661.875,499.875 669.375,494.5 673.0,491.25 676.625,487.375 680.125,483.0 683.5,477.875 686.5,471.75 689.0,464.75 690.75,456.625 691.625,447.25 691.125,436.375 689.0,424.0 684.5,410.25 677.0,395.375 666.0,380.0 650.75,365.0 631.25,352.125 607.625,342.875 580.875,339.25 552.75,342.375"/>
    <polyline points="525.25,352.625 500.0,368.875 478.5,389.75 461.125,413.0 447.875,436.875 438.0,459.875 431.125,481.125 426.625,500.25 423.625,516.875 422.125,531.125 421.375,543.25 421.5,553.25 422.0,561.625 424.125,574.0 425.625,578.375 427.25,581.75 429.0,584.375 430.875,586.125 432.75,587.25 434.625,587.875 436.5,588.0 440.25,587.125 443.75,585.0"/>
    <polyline points="445.375,583.625 449.75,578.875 452.125,575.25 454.875,569.75 456.625,564.5 457.375,559.75 457.125,554.375 456.125,551.0 453.625,547.25"/>
    <polyline points="452.875,546.5 448.0,543.25 444.25,541.875 440.0,540.75 433.5,539.75 427.875,539.375 423.75,539.25 412.375,539.75"/>
    <polyline points="409.875,540.0 399.25,541.5 387.25,544.25 384.0,545.25 377.375,547.625 370.5,550.75 359.625,557.125 352.25,563.125 348.5,566.875 344.875,571.0 341.25,575.75 337.75,581.25 334.5,587.5 331.5,594.625 329.0,602.75"/>
    <polyline points="327.125,612.0 326.0,622.25 325.875,633.625 327.125,646.0 330.125,659.25 335.25,672.875 342.75,686.125 353.0,698.375 366.125,708.375 381.875,715.125 399.75,717.625 419.125,715.25 438.875,707.75 458.125,695.75 476.125,680.125 492.125,662.125 505.875,643.0 517.375,623.625 526.875,604.875 534.375,587.5 540.375,571.625 545.125,557.375 551.375,534.0 554.875,516.5"/>
    <polyline points="556.0,509.75 557.25,499.125 557.625,489.125 557.0,482.75 556.5,481.375 555.875,480.625 555.25,481.0 555.25,482.25 555.75,483.125"/>
    <polyline points="555.875,483.5 558.0,485.125 561.125,486.0 565.875,485.875 570.5,484.625"/>
    <polyline points="571.375,484.375 577.0,481.5 579.25,479.75 581.875,476.875 583.375,474.5 584.375,471.875 584.625,469.0 584.25,467.125"/>
    <polyline points="584.0,466.25 583.125,464.375 581.75,462.75 578.875,460.75 575.0,459.5 572.0,459.25 568.875,459.5 565.5,460.25 562.125,461.5 558.875,463.25 554.375,466.5 551.75,469.0"/>
    <polyline points="550.625,470.375 548.5,473.0 546.125,477.0 545.0,479.5 543.875,484.0 544.0,487.75 544.75,489.875 545.5,491.125 547.0,492.625 548.25,493.375"/>
    <polyline points="549.0,493.625 550.375,494.25 554.625,495.0 560.75,495.0 564.125,494.625 570.25,493.375 575.625,491.75"/>
    <polyline points="577.0,491.375 582.625,489.0 588.25,485.75 593.5,481.5 597.0,477.5 599.75,472.625 601.0,469.125 601.375,467.125 601.5,463.0 600.75,458.75"/>
    <polyline points="600.0,456.625 597.5,452.375 593.875,448.375 591.5,446.625 586.0,443.875 582.75,442.875 579.25,442.25 575.625,442.0 567.875,442.625 563.875,443.625 555.875,446.75 548.375,451.25 545.0,454.0 541.75,456.875 536.0,463.0 531.375,469.375 527.75,475.5"/>
    <polyline points="526.375,478.375 524.125,483.875 522.625,488.5 521.5,494.375 521.375,498.75 521.875,502.0 522.375,503.625 523.125,504.875 524.875,506.625 527.0,507.625"/>
    <polyline points="527.625,507.75 532.75,508.5 547.25,508.25"/>
    <polyline points="548.375,508.125 559.0,507.375 570.625,505.875 584.75,503.0"/>
    <polyline points="586.75,502.375 597.125,499.125 601.5,497.375 608.25,494.0 615.0,489.5 619.5,485.875 621.625,483.75 623.75,481.375 627.5,476.0 630.5,469.5 631.625,465.75 632.375,461.75 632.75,457.375 632.625,452.75"/>
    <polyline points="631.875,447.875 630.5,442.625 628.25,437.25 625.125,431.875 621.0,426.5 615.875,421.375 609.625,416.75 602.25,412.875 594.0,409.875 584.875,408.125 575.25,407.875 565.125,409.125 555.0,411.875 545.125,416.25 535.75,421.875 527.125,428.625 519.25,436.25 512.375,444.25 506.375,452.5 501.375,460.75 497.25,468.625 491.125,483.25 485.875,500.5"/>
    <polyline points="484.875,505.0 483.625,512.375 482.0,525.125 481.625,526.25 481.125,527.0 479.875,527.125 475.5,525.25"/>
    <polyline points="474.75,525.0 465.375,521.875 443.5,517.125"/>
    <polyline points="441.75,516.75 425.375,513.125 418.375,511.25 410.875,509.0 403.0,506.125 397.5,503.625 389.0,499.125 386.125,497.25 380.5,492.875"/>
    <polyline points="377.625,490.25 374.875,487.5 369.75,480.625 365.125,472.125 363.25,467.125 361.75,461.375 360.625,455.125 360.125,448.0 360.25,440.25 361.375,431.625 363.5,422.375 366.75,412.375 371.625,402.0 378.125,391.375 386.375,380.875 396.625,371.25 408.625,363.0 422.5,356.75 437.625,353.25 453.5,352.875 469.625,355.875 485.375,362.25 500.125,371.5 513.5,383.125"/>
    <polyline points="525.125,396.25 535.0,410.125 543.125,424.25 549.75,437.875 554.875,450.75 558.875,462.5 561.875,473.25 564.0,482.625 565.5,490.875 567.125,504.25 567.625,513.75 567.375,520.375 566.75,524.75 566.0,527.5 564.75,530.0 564.25,530.25 564.0,529.875 565.375,528.0 568.625,526.375 573.75,524.875 579.375,524.0"/>
    <polyline points="580.625,523.75 589.625,522.75 611.5,521.0 633.0,518.75"/>
    <polyline points="636.125,518.25 649.375,516.125 664.125,512.625 672.125,510.0 680.625,506.5 689.25,501.75 693.75,498.625 698.125,495.0 702.5,490.75 706.75,485.625 710.75,479.5 714.375,472.125 717.5,463.25 719.625,452.625 720.375,439.875 719.125,424.875 715.125,407.25"/>
    <polyline points="707.125,387.25 694.125,365.5 674.75,343.5 648.125,323.75 614.875,309.625 576.5,304.75 536.5,311.25 498.625,329.375 466.125,356.625 440.5,389.25 421.625,423.375 408.625,456.5 400.25,486.75 395.25,513.375 392.875,536.5 392.25,556.125 393.125,572.625 395.125,586.25 398.0,597.5 401.625,606.625 406.0,613.625 411.0,618.875 416.375,622.375 422.125,624.375 428.125,624.875 434.125,624.125"/>
    <polyline points="440.25,622.125 446.25,619.125 452.0,615.25 457.5,610.75 462.625,605.75 467.5,600.375 475.75,589.25 482.5,578.25 489.875,563.5 493.5,555.0 497.25,544.75 502.125,528.125"/>
    <polyline points="502.375,526.875 504.0,518.875 503.75,516.0 503.375,515.25 502.0,514.125 499.0,513.125 497.25,512.875"/>
    <line x1="497.0" x2="483.5" y1="512.75" y2="511.0"/>
    <polyline points="482.75,511.0 469.125,509.125 456.75,506.875"/>
    <polyline points="455.375,506.5 446.375,504.375 441.5,502.875 436.375,501.125 431.0,498.875 425.5,496.25 419.875,492.875 412.5,487.0"/>
    <polyline points="410.625,485.25 408.875,483.375 405.625,479.0 402.75,474.0 400.5,468.25 399.0,461.625 398.625,457.875 398.625,454.0 398.875,449.875 399.625,445.625 400.75,441.125 402.375,436.5 404.625,431.875 407.375,427.25 410.75,422.75 414.875,418.5 419.5,414.5 424.75,411.125 430.625,408.375 436.875,406.375 443.625,405.25 450.625,405.0"/>
    <polyline points="457.875,405.875 465.0,407.75 472.0,410.625 478.75,414.25 485.25,418.75 491.25,423.875 496.75,429.375 501.625,435.25 506.0,441.25 513.25,453.125 516.125,458.75 520.75,469.25 525.125,482.375 526.875,489.25 528.75,499.25 529.25,504.25"/>
    <polyline points="529.5,505.5 530.0,510.375 530.5,512.0 531.25,512.875 532.25,513.375 534.75,513.75"/>
    <polyline points="529.375,510.0 529.875,512.375 531.0,513.25 532.125,513.5 539.25,513.75 553.125,513.0"/>
    <polyline points="554.25,512.875 562.625,512.25 574.5,510.875 583.375,509.5 593.5,507.375"/>
    <polyline points="595.625,506.875 600.25,505.75 607.375,503.5 617.75,499.375 623.125,496.5 628.5,493.125 634.0,488.875 636.625,486.375 641.625,480.375 643.875,476.875 646.0,473.0 647.75,468.625 649.25,463.875 650.125,458.5 650.5,452.5 650.125,446.125"/>
    <polyline points="648.75,439.125 646.375,431.625 642.625,423.875 637.5,416.0 630.625,408.25 622.0,401.125 611.625,395.0 599.5,390.5 586.125,388.0 571.875,388.0 557.25,390.625 542.75,396.0 529.125,403.75 516.625,413.5 505.5,424.625 496.125,436.5 488.375,448.625 482.0,460.625 477.0,471.875 473.125,482.375 470.125,491.875 466.375,507.75 464.375,519.75 463.875,524.5"/>
    <polyline points="463.375,528.375 462.625,539.375 462.25,541.125 461.75,541.875 460.0,541.75 454.75,539.375 449.125,537.5"/>
    <polyline points="447.75,537.25 445.0,536.5 433.25,534.75 423.0,534.125 408.125,534.125 393.75,535.25"/>
    <polyline points="390.5,535.5 380.5,537.0 365.75,540.375 353.625,544.625 345.125,548.625 340.75,551.125 331.625,557.5 327.0,561.625 322.5,566.375 317.875,572.0 313.375,578.5 309.125,586.25 305.125,595.375 301.75,606.125 299.125,618.625 297.625,633.125 297.625,649.625"/>
    <polyline points="300.0,668.125 305.25,688.0 314.375,708.625 327.875,728.25 346.375,744.875 369.625,756.125 396.75,759.75 425.875,754.375 455.125,740.125 482.25,718.5 506.125,692.125 526.0,663.25 541.75,634.375 553.875,607.0 562.875,582.0 569.25,559.75 573.625,540.375 576.375,523.875 577.875,509.75 578.375,497.875 577.875,488.0 576.75,479.875 575.0,473.25 572.875,467.875 570.25,463.875 567.375,460.75"/>
    <polyline points="564.375,458.625 561.125,457.375 557.75,456.875 554.5,457.0 551.25,457.625 548.0,458.875 545.0,460.5 539.375,464.5 536.875,466.875 530.875,474.5 528.0,479.5 525.875,484.25 523.625,492.25 523.25,495.375 523.375,499.125"/>
    <polyline points="523.5,500.125 524.25,502.625 525.0,503.875 526.875,505.625 531.0,507.125 537.625,507.625"/>
    <polyline points="538.5,507.625 543.875,507.625 554.75,507.0 567.0,505.625"/>
    <polyline points="568.5,505.375 584.0,502.25 596.125,498.375 602.5,495.5 609.125,491.875 613.625,488.75 617.875,485.125"/>
    <polyline points="620.0,483.0 623.875,478.125 627.125,472.375 629.5,465.375 630.125,461.5 630.375,457.375 630.25,452.875 629.375,448.125 628.0,443.25 625.75,438.125 622.75,433.0 618.75,428.0 613.875,423.125 607.875,418.875 600.875,415.25 593.125,412.5 584.5,410.875 575.375,410.5 565.875,411.625 556.25,414.25 546.875,418.25 537.875,423.375 529.625,429.625"/>
    <polyline points="522.125,436.75 515.375,444.25 509.625,452.0 504.625,459.75 500.5,467.375 494.25,481.25 490.375,493.125 487.875,502.625 486.5,510.0 484.75,523.75 484.375,524.75 483.75,525.375"/>
    <polyline points="483.375,525.375 482.375,525.25 473.375,521.625 465.125,519.375"/>
    <polyline points="464.0,519.125 433.375,512.375 420.375,508.75"/>
    <polyline points="418.0,508.0 405.625,503.125 400.5,500.5 392.5,495.625 387.25,491.375 382.25,486.25 379.75,483.25 375.25,476.25 371.625,467.5 369.125,456.75 368.625,450.625 368.75,443.75 369.5,436.375 371.125,428.375"/>
    <polyline points="373.875,419.875 377.625,411.0 382.875,401.875 389.5,392.875 397.625,384.375 407.375,376.875 418.5,370.625 430.875,366.375 444.125,364.5 458.0,365.25 471.75,368.75 485.125,374.75 497.625,383.0 509.0,393.0 519.125,404.25 527.75,416.125 535.0,428.125 540.875,439.75 545.75,450.875 549.5,461.125 552.375,470.625 556.375,486.5 558.375,498.625 558.875,503.5"/>
    <polyline points="559.25,507.75 559.5,516.625 558.875,525.375 559.625,525.375 563.375,524.0"/>
    <polyline points="564.0,523.75 573.5,521.875 597.5,519.25"/>
    <polyline points="599.5,519.0 608.5,518.0 627.125,515.125 639.5,512.375 646.25,510.375 653.375,508.0 660.875,504.75 668.5,500.5 676.375,495.0"/>
    <polyline points="680.25,491.5 684.0,487.375 687.625,482.625 691.125,477.0 694.125,470.375 696.625,462.75 698.375,453.625 699.0,443.125 698.0,430.875 694.875,417.0 689.0,401.5 679.5,384.75 665.75,367.875 647.125,352.0 623.375,339.125 595.5,331.625 565.125,331.375 534.25,339.125 505.375,354.625 480.25,376.125 459.875,401.125 444.125,427.5 432.75,453.25 424.75,477.125 419.5,498.625 416.25,517.5"/>
    <polyline points="414.625,533.625 414.0,547.25 414.25,558.75 415.125,568.25 416.5,576.0 418.25,582.25 420.25,587.125 422.5,590.875 425.0,593.75 427.625,595.625 430.375,596.75 433.125,597.125 435.875,597.0 438.625,596.375 441.375,595.25 444.0,593.75 451.25,587.625 455.375,582.75 460.375,575.0 463.0,569.875"/>
    <polyline points="464.125,567.5 465.875,562.875 467.5,556.625 468.125,551.25 468.0,546.875 467.125,543.25 465.0,539.25 461.875,536.25 458.875,534.5"/>
    <polyline points="457.875,533.875 454.25,532.375 450.125,531.125 442.25,529.375 426.5,527.25 411.875,525.875"/>
    <polyline points="409.125,525.625 366.125,522.5 345.25,520.375 326.375,517.5 311.125,514.0"/>
    <polyline points="305.875,512.375 295.0,508.0 289.5,505.125 283.875,501.625 278.375,497.375 272.875,492.125 267.625,485.5 262.75,477.125 258.25,466.75 254.75,453.625 252.5,437.125 252.375,416.25 255.5,390.375 263.25,358.875 278.0,321.75 302.125,280.875 337.75,240.75 385.625,208.75 442.875,194.0 502.75,203.0 557.5,235.125 601.75,283.25 633.5,338.125 654.375,392.125 666.625,440.75"/>
    <polyline points="672.5,482.625 673.75,517.625 671.25,546.375 665.5,569.75 657.0,588.25 646.0,602.125 632.75,611.625 617.75,616.875 601.625,618.0 585.125,615.375 568.75,609.5 553.375,601.0 539.125,590.5 526.5,578.875 515.625,566.75 506.375,554.75 498.875,543.25 492.625,532.625 487.75,522.875 483.875,514.125 481.0,506.5 477.25,494.25 475.5,485.5 475.25,482.25"/>
    <polyline points="475.125,479.625 475.5,476.0 476.375,474.0 477.5,473.375 478.125,473.375 479.25,474.0 480.75,475.75 482.25,479.0 483.125,483.25 483.0,486.375"/>
    <polyline points="482.875,487.125 482.25,489.0 481.0,491.125 478.75,493.25 474.0,495.25 470.25,495.75"/>
    <polyline points="469.5,495.75 463.25,495.625 454.0,493.875 447.25,491.5 443.625,489.75"/>
    <polyline points="442.5,489.125 436.5,485.375 433.125,482.5 430.0,479.0 427.375,475.0 425.375,470.25 424.25,465.0 424.125,461.125 425.25,455.125"/>
    <polyline points="426.0,453.125 428.125,449.125 431.0,445.375 432.875,443.625 437.0,440.75 442.0,438.5 444.75,437.875 447.625,437.375 453.625,437.375 456.75,437.875 463.0,439.625 469.0,442.625 474.75,446.5 477.375,448.625 482.125,453.5 486.25,458.5"/>
    <polyline points="488.0,461.0 493.625,470.875 495.5,475.375 497.5,481.375 498.25,484.75 499.0,490.5 499.0,493.75 498.625,496.375 497.75,499.0"/>
    <polyline points="497.375,499.625 495.75,501.875 492.75,503.875 489.625,504.875 485.25,505.5"/>
    <polyline points="484.625,505.5 476.875,505.625 473.25,505.375 467.125,504.75 461.375,503.75"/>
    <polyline points="460.125,503.625 449.5,501.125 443.5,499.25 437.25,496.75 430.75,493.5 422.625,488.0"/>
    <polyline points="421.0,486.625 417.875,483.625 415.0,480.125 412.375,476.125 410.125,471.5 408.5,466.375 407.625,460.625 407.5,457.5 408.125,450.75 410.125,443.75 411.625,440.125 413.625,436.5 416.0,433.0 418.875,429.625 422.25,426.375 426.0,423.5 430.125,421.0 434.75,419.0"/>
    <polyline points="439.75,417.625 444.875,416.75 450.375,416.625 455.875,417.125 461.5,418.375 467.0,420.25 472.375,422.875 477.625,426.0 482.5,429.625 487.125,433.625 491.375,438.0 498.75,447.0 501.875,451.625 507.125,460.625 511.0,469.0 513.875,476.375 516.625,485.625 518.125,492.75"/>
    <polyline points="518.5,494.75 519.375,503.875 519.375,510.625 520.125,511.625 523.25,512.25"/>
    <polyline points="534.125,512.25 542.375,512.125 555.0,511.375"/>
    <polyline points="556.125,511.25 566.75,510.25 579.875,508.375 587.625,506.875 598.25,504.125"/>
    <polyline points="600.5,503.375 607.75,500.875 615.25,497.5 623.0,493.0 628.125,489.125 630.625,486.875 635.5,481.5 639.75,475.0 641.625,471.125 643.125,466.875 644.25,462.125 645.0,457.0 645.0,451.375 644.375,445.375 642.75,438.875 640.25,432.0 636.5,424.875"/>
    <polyline points="631.375,417.875 624.75,411.0 616.625,404.875 606.875,399.75 595.875,396.0 583.75,394.0 570.875,394.25 557.625,396.875 544.625,401.75 532.25,408.625 520.875,417.25 510.75,427.125 502.0,437.75 494.625,448.625 488.625,459.375 483.75,469.625 479.875,479.25 476.875,488.0 472.875,503.0 471.625,509.125 470.625,514.5 468.875,528.625"/>
    <polyline points="468.75,530.875 468.25,535.0 467.5,536.75 466.75,537.125 465.875,537.0 460.875,534.875 451.875,532.0"/>
    <polyline points="450.5,531.625 439.25,529.5 427.25,528.0 395.5,525.75"/>
    <polyline points="392.375,525.625 322.75,522.375 301.25,520.625 289.75,519.375 277.5,517.5"/>
    <polyline points="271.25,516.25 258.25,512.75 251.625,510.25 244.875,507.25 238.125,503.25 231.375,498.125 224.75,491.5 218.5,482.75 212.625,471.25 207.75,456.0 204.5,435.625 204.0,408.625 208.125,373.0 219.875,327.375 243.5,271.625 284.375,210.0 346.5,154.0 427.625,122.125 516.125,130.875 595.125,180.75 654.125,256.375 691.875,338.25 712.75,413.875 721.75,478.75 722.25,532.5"/>
    <polyline points="715.875,576.625 703.0,612.0 683.875,639.0 659.125,657.375 629.625,666.0 597.75,664.75 565.625,654.125 535.75,636.125 509.75,613.25 488.5,587.875 472.0,562.375 459.875,538.125 451.625,515.875 446.5,496.25 443.875,479.25 443.5,464.75 444.875,452.625 447.625,442.875 451.5,435.375 456.125,429.75 461.5,426.0 467.25,423.875 473.25,423.5 479.25,424.375 485.125,426.5 490.75,429.625"/>
    <polyline points="496.0,433.5 500.875,438.0 505.25,443.0 509.125,448.125 512.5,453.375 518.125,463.625 523.625,477.375 526.625,488.25 528.5,498.5 529.25,509.375"/>
    <polyline points="535.75,513.625 547.25,513.25 555.125,512.625"/>
    <polyline points="556.25,512.625 568.0,511.5 579.5,510.0 589.125,508.25 597.75,506.25"/>
    <polyline points="600.0,505.625 612.25,501.5 620.125,497.875 625.5,494.75 630.875,490.875 636.25,486.125 641.25,480.25 643.5,476.75 647.375,468.5 648.75,463.75 649.625,458.375 650.0,452.5 649.5,446.125 648.25,439.125 645.75,431.75"/>
    <polyline points="642.125,424.0 636.875,416.25 630.125,408.625 621.5,401.5 611.25,395.5 599.375,391.0 586.125,388.625 571.875,388.625 557.375,391.25 543.125,396.5 529.5,404.125 517.125,413.75 506.125,424.75 496.875,436.5 489.0,448.5 482.75,460.25 477.75,471.5 473.75,481.875 470.875,491.375 467.0,507.25 465.0,519.125 463.75,531.0"/>
    <polyline points="463.625,533.625 463.0,539.75 462.0,541.5 460.625,541.25 453.25,538.25 447.0,536.375"/>
    <polyline points="445.625,536.125 434.0,534.25 419.125,533.375 409.0,533.375 400.625,533.75 388.25,534.875"/>
    <polyline points="384.875,535.25 370.625,537.625 358.875,540.75 346.125,545.625 337.125,550.375 327.75,556.875 323.0,561.125 318.25,566.0 313.625,571.75 308.875,578.5 304.5,586.625 300.375,596.25 296.875,607.5 294.125,620.75 292.75,636.125 293.0,653.75 295.75,673.5"/>
    <polyline points="301.75,694.875 312.0,716.75 327.25,737.25 347.875,754.25 373.625,764.75 403.125,766.375 434.25,758.125 464.875,740.625 492.625,715.75 516.5,686.5 535.75,655.625 550.875,625.5 562.125,597.25 570.25,572.0 575.75,549.75 579.375,530.625 581.375,514.25 582.0,500.5 581.625,489.0 580.375,479.5 578.5,471.75 575.875,465.5 572.875,460.625 569.375,457.125 565.75,454.625 561.75,453.125"/>
    <polyline points="557.75,452.625 553.75,452.875 549.75,453.75 545.875,455.25 542.25,457.25 535.625,462.375 530.125,468.375 527.75,471.5 524.0,477.625 521.125,483.5 519.25,488.625 518.0,493.125 517.375,496.875 517.125,501.375 517.5,504.5"/>
    <polyline points="517.75,505.25 518.25,506.625 519.25,508.125 521.375,509.5 525.25,510.25 529.25,510.25"/>
    <line x1="529.875" x2="550.375" y1="510.25" y2="509.5"/>
    <polyline points="551.5,509.375 564.25,508.25 577.0,506.375 590.375,503.375"/>
    <polyline points="592.5,502.75 599.0,500.625 605.875,497.875 615.375,492.75 622.5,487.375 624.75,485.25 629.125,480.125 633.0,474.0 634.625,470.5 636.875,462.5 637.375,457.875 637.375,452.875 636.75,447.5 635.375,441.875"/>
    <polyline points="633.125,436.0 630.0,430.0 625.625,424.0 620.125,418.25 613.375,412.875 605.375,408.375 596.25,405.0 586.125,403.0 575.25,402.625 564.125,404.0 552.875,407.25 542.0,412.25 531.625,418.75 522.25,426.5 513.875,435.125 506.625,444.25 500.375,453.375 495.25,462.5 491.0,471.25 487.625,479.375 482.875,493.625 480.125,505.0 478.5,513.625"/>
    <polyline points="478.0,517.125 477.0,526.125 476.0,530.25 475.375,530.75 473.625,530.5 466.25,527.5"/>
    <polyline points="465.25,527.125 451.25,523.5 424.375,518.625"/>
    <polyline points="422.0,518.125 403.75,514.25 395.0,511.875 385.625,508.75 379.125,506.0 372.5,502.625 365.625,498.375 358.875,493.0 352.375,486.0 349.25,481.625 346.375,476.75"/>
    <polyline points="343.75,471.125 341.5,464.625 339.75,457.25 338.625,448.75 338.375,439.0 339.125,428.125 341.375,415.875 345.375,402.375 351.5,387.875 360.25,372.875 371.75,357.875 386.375,344.0 404.125,332.375 424.375,324.625 446.5,321.625 469.25,324.25 491.5,332.5 512.125,345.75 530.375,362.75 545.625,382.125 558.0,402.25 567.75,422.25 575.0,441.0 580.25,458.125 584.0,473.375 586.375,486.75"/>
  </g>
</svg>
