<?xml version="1.0" encoding="utf-8" ?>
<svg xmlns="http://www.w3.org/2000/svg" xmlns:cc="http://creativecommons.org/ns" xmlns:dc="http://purl.org/dc/elements/1.1/" xmlns:ev="http://www.w3.org/2001/xml-events" xmlns:inkscape="http://www.inkscape.org/namespaces/inkscape" xmlns:rdf="http://www.w3.org/1999/02/22-rdf-syntax-ns" xmlns:sodipodi="http://sodipodi.sourceforge.net/DTD/sodipodi-0.dtd" xmlns:xlink="http://www.w3.org/1999/xlink" baseProfile="tiny" height="27.09333333cm" version="1.2" viewBox="0 0 1024.0 1024.0" width="27.09333333cm">
  <metadata>
    <rdf:RDF>
      <cc:Work>
        <dc:format>image/svg+xml</dc:format>
        <dc:source>vpype read './original_svgs/Strange Attractors #199.svg' linemerge linesimplify write './Strange Attractors #199.svg'
</dc:source>
        <dc:date>2024-08-05T01:35:36.659567</dc:date>
      </cc:Work>
    </rdf:RDF>
  </metadata>
  <defs/>
  <g fill="none" id="layer1" inkscape:groupmode="layer" inkscape:label="1" stroke="black" style="display:inline">
    <polyline points="379.75,825.5 386.8143,835.7305 391.9543,844.4663 394.8093,851.1557 395.1761,853.4343 394.7848,854.4532 393.7091,854.1942 392.2706,852.8983 388.0623,847.1357 383.6817,839.4792 378.6875,829.1801 373.189,816.4057 367.4841,801.8471 361.8465,786.284 356.5622,770.4205 346.3501,736.0809 336.6435,698.5943 328.5704,662.6169 321.7299,626.3196 316.8215,594.2977 313.2837,563.8984 311.3841,537.1739 310.9114,512.3321 311.2161,500.3633 311.889,489.0389 312.9643,478.087 314.3727,468.2212 316.0361,459.6337 318.1588,451.2701 320.6342,443.6233 323.5945,436.337 326.5471,430.4381 329.7518,425.154 333.3854,420.2333 337.2533,415.977 341.2389,412.4417 345.7552,409.2432 350.478,406.6323 355.7286,404.4518 361.1355,402.8722 367.0279,401.8069 372.9996,401.3359 378.9935,401.4121 385.6987,402.0306 392.7762,403.2024 400.1811,404.9506 407.4923,407.1622 415.0155,409.9109 422.5259,413.0982 430.7024,416.9665 438.8788,421.2612 452.8078,429.7022 468.5312,440.9219 481.9473,452.1068 490.2233,459.8621 497.237,466.9565 509.4946,480.7718 525.2768,500.8672 530.9779,507.0926 533.4225,508.9352 536.0636,509.948 538.0736,509.8834 540.1764,508.9056 541.875,507.5 543.8707,505.1524 547.5353,499.0627 552.1251,488.541 557.1617,474.6391 566.2211,446.0931 589.9074,365.4701 601.5033,327.9394 612.6615,294.6978 618.4803,279.0083 624.1702,264.7126 629.8542,251.6432 635.4065,240.194 640.8809,230.2742 645.9915,222.4408 650.7037,216.7083 655.4,212.663 657.577,211.4803 659.6163,210.879 661.5,210.875 663.1323,211.4124 665.4491,213.2739 667.4124,216.3436 668.9654,220.5816 669.9733,225.4148 670.5934,231.7325 670.7406,238.9302 670.4248,246.9212 669.6865,255.1973 666.9868,272.8997 662.683,291.932 656.7745,312.258 649.6478,332.574 642.676,349.7199 634.8401,366.798 625.5013,385.0219 615.4079,403.0615 607.0596,416.8318 593.5111,437.8541 557.9739,489.7702 550.8138,501.2974 545.4465,510.6914 539.6531,522.9314 535.7256,534.1967 534.5156,539.4219 534.0977,543.6758 534.625,545.75 535.1157,545.963 535.8009,545.6204 536.9096,544.3576 538.2143,542.0752 541.7083,534.1189 544.6971,525.7965 549.5024,510.5907 558.3279,479.7369 585.1769,379.2274 597.1936,336.1671 604.7159,311.1638 612.2057,287.674 619.091,267.5725 625.9648,249.047 633.5003,230.6331 640.5298,215.5584 647.586,202.6385 654.4707,192.3525 657.6987,188.4444 660.8818,185.2683 663.7892,183.0175 666.5753,181.506 669.5371,180.6998 671.9922,180.7874 674.2571,181.6407 676.31,183.2683 678.5604,186.4014 680.3844,190.479 681.9341,195.8795 683.0054,201.9046 683.6797,208.7827 683.9361,216.454 683.2006,233.374 680.8899,252.4074 677.0552,272.7419 671.8127,293.5331 665.2546,314.6487 656.971,337.0343 647.4461,358.9808 636.3476,381.3118 623.6962,403.9394 612.3536,422.3414 599.9208,440.8353 584.2466,462.5925 558.9912,496.6137 547.1552,513.3966 541.8123,521.7256 536.7593,530.3092 532.884,537.6385 529.3032,545.2723 524.8439,556.4929 521.3716,567.6697 518.3386,581.8596 516.3168,596.3743 515.5312,605.4668 515.2152,614.7393 515.5772,632.4046 516.2593,638.5845 517.1286,642.8808 518.375,644.875 519.027,645.139 519.751,644.827 521.0654,643.3842 522.4039,641.1094 525.9647,631.4711 530.5327,615.6636 536.0975,593.7335 543.7159,560.1757 577.8924,401.2932 588.3218,355.8307 598.6708,313.3129 607.1287,280.76 615.4773,250.8589 623.7478,223.5262 631.8985,198.8833 642.5481,170.2363 647.8179,157.5425 653.1604,145.6963 658.3964,135.1206 663.5003,125.8455 668.3272,118.0718 673.36,111.0787 678.3403,105.3031 683.2284,100.7878 687.9841,97.5761 692.5677,95.7107 696.9392,95.2348 701.0586,96.1913 704.6653,98.4314 708.1631,102.1719 710.3082,105.4147 712.293,109.23 715.8544,118.855 718.5254,130.1938 720.367,143.3563 721.2943,157.7987 721.332,174.059 720.4988,191.0164 718.7808,209.1365 716.332,227.0222 713.1174,245.1848 709.25,263.0 704.5576,281.2414 699.1334,299.5317 693.0143,317.742 686.2453,335.7295 678.8807,353.3373 672.8018,366.617 666.1678,380.0654 659.3439,392.9763 652.0408,405.8862 644.67,418.0759 636.8774,430.1489 628.8968,441.7379 620.2231,453.5644 604.1006,473.8825 586.2144,494.3765 570.7212,510.9422 536.1264,546.2411 523.6647,559.62 511.6602,573.9893 502.4147,586.9045 497.3592,595.0686 492.7894,603.4278 488.6304,612.0946 484.3434,622.1562 481.0542,630.7336 475.878,645.8355 463.9284,682.3048 459.185,694.5158 454.5701,704.7414 449.1213,714.6277 446.2398,718.8594 443.4655,722.2909 440.6452,725.1112 437.7048,727.4106 434.6317,729.2017 431.5636,730.3925 428.3299,730.93 424.9608,730.7488 421.4329,729.8137 418.4166,728.4239 415.3706,726.3909 412.0207,723.4497 408.6259,719.762 405.2074,715.3859 401.9552,710.497 398.7197,704.8758 392.1816,691.293 386.7539,677.452 381.6369,661.1885 376.9219,642.8285 373.5308,625.5747 370.9332,606.7783 369.587,589.4611 369.537,573.3473 370.7203,558.7297 371.7454,552.3614 373.069,546.4507 374.6704,541.0387 376.5293,536.1664 380.2175,529.2257 384.5116,523.8266 386.9906,521.5618 389.5835,519.7079 392.2682,518.2649 395.0502,517.1997 398.018,516.4407 401.4251,516.0028 404.4909,515.9786 407.9546,516.3567 414.7207,518.2468 421.9194,521.671 429.2458,526.6544 436.335,532.931 441.75,539.0 448.7976,548.583 453.3219,556.1596 458.7332,567.4592 461.8787,575.6386 465.422,587.3247 467.4323,596.2501 469.4897,609.7805 470.4413,620.8039 470.7498,632.2935 470.3968,644.5018 469.4749,656.1834 467.5428,670.2248 465.3732,681.875 462.4339,694.1324 459.4973,703.8942 455.2152,715.2454 450.7734,724.4877 446.3423,731.5761 441.6334,737.1432 436.4901,741.3105 433.8742,742.6994 431.4876,743.5466 427.875,744.125 424.6024,743.9199 421.268,742.9659 417.8472,741.2546 414.3153,738.7779 410.5663,735.4082 407.1033,731.4909 403.3884,726.453 399.637,720.5444 395.849,713.7973 389.3852,700.0567 382.785,682.6152 376.608,662.865 371.6079,642.6704 367.5618,621.5027 365.1036,603.0649 363.7464,584.4407 363.564,566.9879 364.6664,552.1447 365.7344,545.0107 367.1761,538.0821 368.9066,531.7965 370.8479,526.4231 374.7272,518.8247 379.4744,512.5809 384.6594,508.0675 387.6618,506.2743 390.7977,504.9015 394.0303,503.9416 397.6908,503.3505 401.007,503.2383 404.6516,503.5197 408.7007,504.2352 412.751,505.3635 420.303,508.6173 428.9622,514.0236 436.4847,520.0826 444.1993,528.0775 450.7822,536.4192 457.3646,546.741 462.5,556.5041 467.6771,569.2515 471.25,580.5 474.0091,592.3742 475.637,602.8938 477.0306,617.7227 477.3188,631.4794 476.9714,644.0767 475.6113,660.4423 473.5261,675.2538 471.0022,688.8416 467.4555,703.3252 463.3691,716.4892 458.6447,729.1289 453.8535,739.2021 448.8935,747.3889 443.7093,753.7519 441.0296,756.2455 438.25,758.2812 435.3449,759.8463 432.6365,760.832 428.8938,761.5007 425.1861,761.2969 421.3579,760.1963 417.3819,758.1535 413.3501,755.2203 409.3954,751.473 405.3564,746.7503 401.2474,741.0523 397.3152,734.7752 393.4085,727.7358 386.0918,711.957 378.344,691.4752 371.5437,669.8389 365.7214,646.5318 360.9217,622.0683 357.8189,600.1134 356.0531,578.8941 355.6615,559.2782 356.0239,550.3341 356.7589,541.8833 357.8475,533.9754 359.3463,526.3276 361.1901,519.3874 363.3094,513.331 365.3993,508.6201 367.7054,504.389 370.204,500.635 373.1008,497.1035 376.1656,494.1255 379.1679,491.831 382.5146,489.8767 386.0011,488.3938 389.9621,487.2797 394.0167,486.6773 398.1253,486.5559 402.5345,486.9167 406.9047,487.7197 411.6202,489.0521 416.284,490.827 421.211,493.188 431.285,499.3713 439.9916,506.2707 449.436,515.863 457.3222,525.6435 464.945,537.3267 470.625,548.0 476.3784,561.9175 480.5179,575.4733 483.1879,587.7552 485.424,603.1881 486.4319,617.5853 486.6846,630.5528 485.892,648.7199 484.3543,664.2211 481.7695,681.9312 478.5224,698.8135 473.7686,718.5281 469.1059,734.0379 464.1391,747.6312 458.1725,760.725 452.4076,770.6498 449.5285,774.6334 446.4407,778.2525 443.1965,781.3517 440.0642,783.7008 436.7251,785.5614 433.7277,786.6518 429.541,787.2658 425.128,786.8392 420.4789,785.2843 415.9745,782.7399 411.5327,779.174 407.2264,774.7586 402.5357,768.9414 397.9698,762.3384 393.7256,755.3486 389.3232,747.0614 384.9375,737.7769 380.5783,727.5537 371.7974,703.9695 364.1493,679.15 357.088,651.275 351.3986,623.354 347.3117,596.3374 344.8032,570.3266 344.2176,558.8516 344.0582,548.3232 344.325,537.8862 345.0088,528.0397 346.135,518.4798 347.6567,509.6697 349.625,501.375 351.8572,494.3874 354.1326,488.861 356.8654,483.5461 359.8637,478.8557 363.3091,474.5379 366.9618,470.9242 370.6444,468.0971 374.7026,465.7561 379.2946,463.8853 384.0365,462.6608 389.2477,462.0117 394.5,462.0 399.9381,462.5805 405.7769,463.7918 411.5935,465.5595 417.3247,467.8275 423.2345,470.7094 429.896,474.4917 435.9792,478.431 442.0743,482.9168 447.6024,487.5412 453.5386,493.1071 459.0403,498.877 464.1075,504.8152 469.328,511.6385 473.9037,518.2643 477.9916,524.9016 482.2362,532.6983 485.9156,540.2746 488.6185,546.7366 491.7392,555.5263 496.0098,570.5847 498.8478,584.3818 501.0236,602.8773 501.7444,620.2253 501.2977,643.704 500.7016,653.2542 499.1967,669.1508 496.8264,686.9695 493.0838,709.5811 488.332,732.3163 482.1762,756.5992 476.6867,774.9439 470.1855,793.0298 463.3464,808.6685 460.005,815.0027 456.75,820.375 452.9424,825.8349 449.435,830.097 445.9789,833.5321 442.5775,836.1852 438.9322,838.2783 435.3625,839.6214 430.2586,840.3488 424.8488,839.6427 419.491,837.5357 414.2137,834.1848 408.8922,829.4958 403.598,823.5689 398.122,816.1919 392.4644,807.3117 386.625,796.875 381.115,785.8057 375.4152,773.056 369.8424,759.333 364.158,744.0386 358.5421,727.59 353.1584,710.4733 348.242,693.3846 343.4872,675.2795 339.0419,656.6933 334.9511,637.8205 331.2601,618.8555 328.1407,600.7707 325.6493,583.9506 323.5906,567.0971 322.0449,550.7482 321.0442,535.3942 320.5583,520.7552 320.6003,506.9466 321.1612,494.5393 322.275,482.9304 323.9849,471.8266 326.2225,461.7054 328.9509,452.5799 331.5117,445.8894 334.4898,439.6187 337.7667,434.074 341.2953,429.2711 345.3576,424.8514 349.6788,421.1449 354.2258,418.1125 359.2871,415.5768 364.5272,413.7162 370.4359,412.3898 376.7536,411.6968 383.1706,411.6455 390.0177,412.2269 396.8605,413.3956 404.0133,415.1913 411.7171,417.7159 418.885,420.5399 426.2098,423.8801 433.6128,427.714 441.0,432.0 449.7573,437.5951 457.6628,443.1129 465.0024,448.7355 471.871,454.5526 479.48,461.5639 486.3193,468.4518 493.4083,476.3443 499.8513,484.1478 511.565,500.5433 524.0417,520.534 528.45,526.5118 530.706,528.5286 532.875,529.5 534.8626,529.3918 536.9289,528.2208 538.615,526.589 540.2614,524.3548 544.03,517.122 548.4676,505.9117 554.182,489.3252 562.6727,460.8408 585.2858,379.2226 599.3349,331.163 612.619,289.8144 619.0206,271.728 624.9597,256.2308 631.8122,239.9946 638.3914,226.1135 644.7261,214.5234 650.585,205.6602 656.4309,198.8282 659.2046,196.4125 661.6379,194.8189 664.1159,193.7954 666.3344,193.4836 668.4094,193.8068 670.3253,194.7588 672.7557,197.1975 674.6014,200.464 676.2311,205.2675 677.3411,210.8856 678.0589,217.6429 678.3268,225.2726 678.1321,233.6903 677.4622,242.8113 674.8074,262.0339 670.4948,282.6027 664.7883,303.4004 657.6634,324.585 649.8453,344.5728 641.1698,363.9973 631.0973,383.9227 620.1573,403.4063 609.5766,420.5989 597.3211,439.1356 561.4824,489.4043 551.5773,503.8584 543.9029,516.1617 537.0253,528.9852 532.815,538.0897 529.7707,546.1812 526.868,556.479 524.8539,566.2397 524.1076,575.0787 524.4269,582.0404 525.005,584.146 525.9039,585.5723 526.9769,585.8796 527.75,585.5 530.387,581.9643 533.5509,574.6574 538.0707,561.6816 542.2516,547.8129 555.1784,498.0767 580.9835,391.9197 596.183,332.8832 604.6122,302.6934 613.1826,274.0101 621.1088,249.3204 628.6726,227.9088 637.8246,204.7762 646.725,185.187 654.9285,170.0178 659.0535,163.5701 662.8931,158.2969 666.8967,153.5906 670.7901,149.8607 674.3248,147.2905 677.8118,145.6428 681.1447,145.0415 684.281,145.4857 687.1937,146.9552 689.8559,149.4296 692.8394,154.0006 695.318,160.1251 697.2137,167.6402 698.6001,176.9554 699.363,187.5507 699.4896,198.8571 698.9969,211.0375 697.9158,223.4927 696.2602,236.2436 693.8884,250.334 691.0417,264.2978 687.6904,278.3758 683.8585,292.4514 679.6885,306.0435 675.2037,319.1504 669.9652,333.0217 659.9072,356.6393 648.6765,379.6669 636.3231,402.0621 622.8422,423.8354 609.5892,443.1711 594.3404,463.6155 580.9711,480.4435 549.6692,518.4799 539.1673,532.004 527.5687,548.8007 522.8253,556.607 518.8562,563.9211 514.0752,574.0965 509.4868,585.4928 506.3788,594.5764 502.9683,606.2203 497.8,629.0305 487.9034,679.2777 483.011,701.2449 475.8381,727.9412 469.3018,747.8823 465.3111,758.1045 460.9823,767.6183 456.683,775.7533 452.5242,782.265 448.0669,787.8498 443.5737,792.1665 438.762,795.432 433.9546,797.4071 429.6059,798.0363 425.0306,797.5325 420.2099,795.8016 415.526,793.0338 410.9754,789.3247 406.5161,784.6663 401.9529,778.9019 397.2749,772.0048 392.4717,763.9484 387.7541,755.0603 383.2512,745.5271 378.6343,734.6926 373.9255,722.5341 369.2899,709.4499 364.8625,695.8598 360.9482,682.611 353.5793,653.5848 347.4416,623.5769 343.1274,595.8917 341.5479,582.1895 340.3872,568.8401 339.6555,555.9632 339.3654,544.0204 339.4944,533.1645 340.0509,523.1354 341.0693,513.3158 342.5773,503.8319 344.5118,495.1542 346.8429,487.3295 349.2962,480.9607 352.0376,475.3439 355.2997,470.0439 358.8594,465.4688 362.6768,461.6003 366.9883,458.2321 371.5,455.625 376.4576,453.6464 381.6004,452.3846 386.872,451.7833 392.5992,451.8078 398.7218,452.5201 405.3261,453.9745 412.1688,456.0931 418.8946,458.7773 425.4103,461.9805 432.0218,465.8849 439.4233,470.829 445.8415,475.6475 451.8515,480.7426 459.104,487.724 465.4149,494.3935 470.6551,500.5765 475.9266,507.6319 480.7092,514.662 484.7418,521.3363 489.6065,530.6343 493.3273,538.5616 499.8861,556.3414 503.856,571.785 506.9232,589.728 508.7842,607.5313 509.713,630.6481 509.61,655.749 508.4831,677.5007 506.1911,701.8261 502.1673,729.354 498.1942,750.2066 494.0946,769.3231 490.7296,783.2851 483.8979,808.453 477.0196,830.2414 472.7683,841.6649 468.7983,851.2191 464.8919,859.5359 460.7073,867.3227 456.6676,873.7599 452.7734,878.9533 448.8347,883.2365 444.5753,886.846 440.233,889.4884 435.9462,891.0878 432.8281,891.6406 429.9495,891.7096 426.9673,891.3486 423.8786,890.5261 420.6806,889.211 417.4122,887.395 411.1406,882.5527 404.5229,875.636 397.797,866.8664 390.9961,856.354 383.8938,843.7346 377.1633,830.2095 370.1637,814.4682 363.0744,796.8715 356.0777,777.9159 348.8065,756.5469 341.715,734.0257 335.476,712.5611 329.4977,690.2304 323.6641,666.5276 318.3206,642.8043 313.4369,618.9489 309.0763,595.2152 305.5985,573.7113 302.7926,553.2166 300.5523,532.9586 298.9821,513.8817 298.0457,495.7056 297.7576,478.5623 298.1327,462.5837 299.1668,448.1325 300.8498,435.1111 303.2487,422.8992 306.3856,411.604 310.1401,401.6415 312.9617,395.7263 316.0213,390.3825 319.4739,385.3773 323.0479,381.0982 327.1292,377.0884 331.4382,373.6534 335.9483,370.7641 340.9734,368.2405 346.1663,366.2736 351.4941,364.8274 357.2893,363.818 363.1613,363.3162 369.8234,363.2892 376.5442,363.732 383.6665,364.6553 391.1504,366.0761 405.1624,369.8271 420.4399,375.3035 436.8632,382.4536 452.9402,390.6684 472.0055,401.838 488.2284,412.5568 504.25,424.3998 530.4395,445.761 538.7229,451.6259 542.1675,453.5972 545.7199,454.8149 549.0707,455.1104 551.8926,454.4313 553.9388,453.3495 555.9285,451.7788 560.073,446.7838 564.628,438.6275 569.235,428.7345 578.9566,403.0122 593.8678,359.9129 605.0181,328.97 613.5,307.5 621.6433,289.2568 628.4466,276.1918 631.5671,271.1956 634.8125,266.756 637.613,263.6253 640.1971,261.5044 642.806,260.419 644.7571,260.5725 646.3573,261.7594 647.4122,263.6453 648.3148,266.7361 648.8124,270.3246 648.7896,279.095 647.3757,290.8652 644.879,303.2916 641.1439,317.0427 636.3708,331.858 630.9068,346.4342 625.3818,359.4087 619.0279,372.9235 612.0528,386.5837 604.3628,400.5753 595.989,414.8687 584.1542,433.9652 560.7392,470.89 559.4219,472.4844 560.9933,466.0574 565.7496,451.5004 592.5237,365.1832 604.4935,329.5672 614.3379,303.2164 619.69,290.4644 624.9121,279.1142 629.8987,269.3648 634.2154,262.0906 638.3412,256.341 642.125,252.375 643.7522,251.1819 645.6734,250.2567 647.4375,249.9688 648.7126,250.2029 650.3575,251.3386 651.6647,253.49 652.6822,256.7534 653.2919,260.583 653.5634,265.1633 653.4683,270.4446 652.1718,282.9075 649.6499,296.4001 645.9611,310.6261 640.8796,326.8714 635.1043,342.4889 629.1009,356.7987 622.9208,370.2292 616.5009,382.934 608.8659,396.9255 595.8672,419.0431 566.2806,465.3596 554.282,485.796 562.693,460.476 587.822,377.8554 596.6637,349.7083 608.2634,315.2502 616.4017,293.5946 622.2491,279.5624 627.5833,267.8749 632.6875,258.0312 637.6505,249.8115 642.3882,243.4536 646.719,239.2555 648.8639,237.8963 650.5777,237.254 652.1624,237.108 653.59,237.4643 655.5475,239.0014 656.9868,241.3681 658.0894,244.6415 658.8253,248.7976 659.1751,254.1267 659.1072,260.6514 657.7801,274.6746 655.0043,289.7286 650.6513,306.9487 645.3147,324.0042 638.6987,341.8488 633.1059,355.2114 626.9853,368.4975 620.2128,381.9558 612.8163,395.5654 603.896,410.9224 594.5117,426.2378 570.4383,462.8586 560.056,479.2635 552.6812,492.3275 549.151,499.604 547.9306,503.2778 549.6904,499.739 553.3252,490.228 558.81,473.6202 566.0833,449.7071 588.1991,373.5731 598.9436,338.7348 609.9331,305.8556 619.2504,280.9214 625.8427,265.0014 631.5257,252.5463 637.1872,241.708 642.5231,233.0467 647.6918,226.3796 652.1982,222.329 654.4568,221.044 656.5693,220.4021 658.5132,220.4158 660.0285,220.9586 662.0359,222.7083 663.7688,225.6589 665.1087,229.7045 666.0195,234.7852 666.4654,240.8408 666.4513,247.5622 666.0083,255.4858 665.1508,263.7014 662.4284,279.9635 658.0202,298.1981 652.2002,317.4962 645.3714,336.4247 638.5586,352.8903 630.9823,369.3143 622.5356,385.8673 613.2917,402.4783 605.4252,415.5739 595.004,431.8799 561.5224,481.7322 554.7229,492.6067 549.9963,500.8105 544.9255,510.6907 541.5884,518.6404 539.507,525.612 539.3416,528.2598 539.5352,528.8809 539.8125,528.9219 540.625,528.125 541.8005,526.1684 544.5394,520.191 548.2149,510.333 551.7999,499.4433 561.8931,465.2801 583.8784,385.5752 597.5678,338.2692 611.2562,294.9741 617.2513,277.8175 623.3541,261.6325 630.5331,244.2086 636.9122,230.409 643.4663,218.1896 649.6615,208.6033 655.1419,202.0018 657.7359,199.6411 660.5845,197.7001 663.2812,196.5781 665.4934,196.2779 667.8266,196.7246 669.6757,197.8157 671.8604,200.3257 673.8418,204.2456 675.4059,209.3548 676.4487,215.1713 677.0395,221.931 677.1467,229.0472 676.7762,237.7125 675.9692,246.881 673.2427,265.5118 669.125,284.5 663.0003,306.2585 655.6314,327.8817 647.9648,347.0864 639.0483,366.7432 629.3714,385.7602 618.8363,404.3503 608.4306,421.2498 597.1453,438.3293 554.0026,499.3937 545.3217,513.2022 539.5872,523.5662 535.1433,532.8989 532.1477,540.4287 529.2616,549.0877 527.2868,557.4326 526.0,566.625 525.875,573.5 526.2427,575.7352 527.0,577.5 527.6065,578.0046 528.7419,577.8848 529.8539,576.8502 531.215,574.8462 534.2969,568.5156 538.8584,555.7084 542.6202,543.7027 550.321,515.8012 580.6004,393.539 597.9656,327.7964 605.9786,299.7822 614.2777,272.7599 622.4081,248.1635 629.8424,227.6989 638.73,205.8957 647.4562,187.4001 651.4551,179.9807 655.6098,173.0583 659.7295,167.006 663.5305,162.1738 667.488,157.9726 671.0785,154.9779 674.5252,152.9457 677.9524,151.9007 681.0151,151.9486 683.8699,152.9847 686.7194,155.2143 689.0632,158.2404 691.6371,163.4125 693.5774,169.5002 695.077,176.9891 696.0884,185.9458 696.5418,195.9535 696.4436,206.4843 695.8128,217.7428 694.6434,229.6052 693.0,241.5 690.7885,254.1467 688.1076,266.9716 684.9815,279.887 681.4344,292.8055 677.4903,305.6394 673.3018,317.9426 668.4634,330.8749 658.805,353.9745 648.1581,376.2942 636.5526,397.7589 623.7007,418.92 610.455,438.6439 595.0711,459.7446 580.7711,478.1215 552.8356,512.6589 540.0284,529.5499 534.2742,537.8121 529.0675,545.9786 524.303,554.2244 519.9131,562.6909 515.6248,572.1999 511.7148,582.3707 509.0346,590.8503 505.4312,604.0964 501.2253,623.4677 492.3803,673.2682 487.3442,698.2749 480.9238,725.335 476.7969,739.5938 472.625,752.5 468.2124,764.7727 464.2747,774.2424 459.3947,784.0477 454.704,791.9848 450.159,798.158 445.2045,803.3335 440.2727,807.0278 435.296,809.296 430.4645,810.2023 425.7945,809.8662 420.9164,808.2637 416.1608,805.5513 411.1955,801.594 405.9681,796.2463 400.9173,789.8746 395.7383,782.1551 390.6642,773.4562 385.5234,763.5008 380.4095,752.4294 375.4756,740.5524 370.4723,727.2731 365.6973,713.3815 360.9413,698.2592 356.4894,682.7909 352.4194,667.2718 348.6553,651.4053 342.2183,619.4683 339.605,603.7152 337.4212,588.2104 335.8846,574.4342 334.802,561.0441 334.1406,547.3594 333.9708,534.3066 334.2825,521.9876 335.0954,510.1891 336.3048,500.1783 338.002,490.8218 340.2496,481.9236 342.9484,473.9351 346.065,466.863 349.5662,460.714 353.5048,455.3818 358.0015,450.7419 363.1258,446.8191 368.54,443.8667 374.1757,441.8164 380.456,440.5315 387.1624,440.1144 393.9515,440.5396 401.5139,441.8789 409.0114,443.9983 417.2172,447.106 425.5,451.0 433.7707,455.6476 441.7133,460.8544 449.2963,466.4552 456.3762,472.3066 462.344,477.8426 469.1326,484.8928 475.2298,491.8095 480.4792,498.4062 486.601,507.0297 491.506,514.7475 496.0014,523.0278 500.7408,532.7011 507.3373,549.7903 511.8872,565.2396 517.9294,591.5582 520.1152,598.6348 521.1895,600.748 522.4206,602.0969 523.8754,602.3724 525.1991,601.588 526.5352,599.9824 528.2091,597.0622 531.5984,589.1037 535.4651,577.3022 541.169,557.3588 550.7315,519.0672 581.4861,388.5489 595.942,330.7096 604.864,297.9359 613.6827,267.8148 622.2461,240.9835 630.7725,216.6421 640.5025,191.8505 649.5035,172.1062 654.1514,163.1878 658.7945,155.1726 663.2119,148.4203 667.5709,142.6559 671.845,137.9568 676.0578,134.3571 679.971,132.0151 683.7178,130.7772 687.2673,130.6497 690.5887,131.6393 693.651,133.7524 696.4234,136.9954 699.4809,142.7556 702.0486,150.4743 703.9942,159.8018 705.2515,170.1764 705.8685,181.7425 705.8155,194.3485 705.0948,207.4477 703.6741,221.6007 701.6654,235.861 698.9981,250.8177 695.7488,265.9649 691.9504,281.1575 687.75,295.875 682.8834,311.0131 677.6073,325.7694 671.8295,340.4505 661.1049,364.6666 649.2942,387.9355 636.161,410.7797 621.9991,432.689 607.4417,452.9914 591.648,473.2806 576.4795,491.4532 546.2327,526.3708 535.3665,539.7339 523.377,556.244 518.5441,563.7899 514.0611,571.5005 509.4755,580.4803 505.125,590.375 501.407,600.1497 497.987,610.6319 492.25,631.875 483.098,671.328 477.0605,695.7577 470.8352,716.5712 464.4688,734.3594 460.9092,742.7639 457.2697,750.1636 453.43,756.8222 449.6654,762.2587 445.6482,766.9994 441.606,770.6892 437.6217,773.2573 433.6844,774.8198 429.3764,775.5096 425.2835,775.1865 421.0178,773.8658 416.9322,771.7077 412.6182,768.5204 408.574,764.585 404.4742,759.6813 400.0673,753.4545 395.5587,746.1489 391.3904,738.5806 387.4095,730.3922 383.3415,721.0306 379.0566,710.0973 374.7157,697.9089 367.1381,673.507 360.723,648.0068 355.4875,621.7081 352.0182,597.7023 349.9306,573.7875 349.3914,552.298 349.7007,543.137 350.4231,534.0622 351.5823,525.1892 353.1207,516.989 355.0934,509.1988 357.4481,502.1432 359.5302,497.297 362.0438,492.5896 364.7979,488.434 368.0001,484.561 371.4127,481.2967 375.0,478.625 378.7705,476.5019 383.037,474.7963 387.4298,473.69 391.9147,473.1443 396.837,473.1406 401.6879,473.6785 406.7959,474.7351 412.2344,476.375 417.5867,478.4971 422.8013,481.057 433.7923,487.9079 438.9716,491.7843 443.8918,495.9419 454.5183,506.6046 459.2425,512.0878 463.3233,517.4028 471.9376,530.6249 475.371,536.8775 478.761,543.892 484.0503,556.9148 488.9882,573.3142 490.3632,579.5143 491.9759,589.0397 493.7513,604.6286 494.4737,617.5804 494.3608,637.9183 493.0533,656.5012 490.8299,675.3741 487.0302,698.4108 483.1917,716.385 478.5129,735.0301 472.998,753.169 466.9505,769.7991 460.971,783.0581 454.5409,794.2662 451.3201,798.8016 448.125,802.625 444.897,805.823 441.501,808.469 438.2528,810.3349 434.8373,811.6309 430.125,812.375 425.3083,811.9363 420.5908,810.3379 415.6553,807.4776 410.8327,803.5718 405.5927,798.1521 400.5494,791.707 395.5997,784.2306 390.3733,775.1583 385.0701,764.764 379.7363,753.137 374.7828,741.1648 369.8789,728.1121 364.9456,713.7328 360.156,698.4823 355.6687,682.9024 347.9624,652.2138 341.5038,620.2787 338.8245,604.1443 336.632,588.6051 334.9762,574.1283 333.8305,560.425 333.1344,546.8255 332.9237,533.8385 333.1921,521.5507 333.9335,510.0488 335.1242,499.5744 336.7659,490.1658 338.8587,481.5797 341.4959,473.4671 344.5476,466.2573 347.9724,459.9503 351.9116,454.3163 356.1365,449.6852 360.9901,445.6753 366.1399,442.5717 371.5228,440.3196 377.4269,438.7984 383.9365,438.0755 390.657,438.1669 397.8003,439.0676 405.2814,440.8069 412.625,443.25 421.7352,447.0983 429.8854,451.227 437.6509,455.8637 444.8257,460.8798 452.5679,466.9151 459.5025,472.893 465.8729,478.994 472.6667,486.213 478.772,493.4074 483.5463,499.7135 489.3659,508.2811 494.226,516.2876 498.7398,524.7952 502.8223,533.3555 506.101,541.4021 509.1692,549.993 512.375,560.3438 517.8122,581.1508 520.2333,589.257 521.8795,592.4354 523.2546,593.9537 524.7269,594.3976 526.3935,593.32 527.9677,591.3657 529.4424,588.8812 532.7387,581.0852 535.856,572.0836 541.2216,554.1436 550.1715,519.8719 581.2374,390.0684 595.8516,332.7101 604.5883,300.8439 612.7418,273.1723 621.1115,246.925 629.5057,222.8133 638.2454,200.3435 647.0969,180.5353 655.6774,164.2662 659.9298,157.3716 663.8834,151.7413 667.873,146.9154 671.7965,143.0339 675.6182,140.1231 679.3019,138.2097 682.812,137.3201 686.1125,137.4809 689.1674,138.7185 691.8068,140.8927 695.1582,145.5898 698.0983,152.3816 700.3123,160.5431 701.8832,170.2012 702.7304,180.6973 702.9011,192.8287 702.3864,206.0135 701.2366,219.6255 699.454,233.827 697.1188,248.0467 694.2866,262.0992 690.7886,276.7357 686.7042,291.6152 682.0394,306.6699 676.936,321.4418 671.3014,336.1926 661.0351,359.8963 649.3484,383.4226 636.5471,406.1595 622.5235,428.2889 608.7959,447.9415 593.7723,467.6804 579.3197,485.4149 547.5919,523.0266 537.8672,535.214 525.4223,552.6039 520.741,560.094 516.3604,567.9155 511.6264,577.4878 507.8355,586.2911 504.0815,596.6187 500.6744,607.5172 495.8674,626.1156 484.4911,678.5733 479.6756,698.5139 473.2067,721.722 467.1214,739.4895 463.4062,748.6132 459.5623,756.7431 455.2991,764.4904 451.1182,770.8456 446.9645,775.938 442.5584,780.1289 438.187,783.077 433.8449,784.8489 429.4672,785.5463 425.2315,785.1713 420.8267,783.717 416.5799,781.355 411.75,777.625 407.607,773.5226 402.9632,767.8689 398.452,761.3571 393.65,753.367 389.0,744.625 384.97,736.1504 380.8596,726.5226 372.3473,703.3825 364.2863,677.2064 357.4958,650.2409 351.9053,622.3882 347.9681,596.3106 345.6072,571.2222 345.043,559.2731 344.8976,548.2016 345.1452,537.9104 345.7992,528.4632 346.9287,519.2181 348.4759,510.6703 350.4036,502.8503 352.7853,495.4862 355.128,489.7835 357.6478,484.852 360.6024,480.2136 363.8136,476.1756 367.2453,472.7326 371.1461,469.6836 375.2155,467.3113 379.4732,465.5705 384.2074,464.3169 389.0802,463.6514 394.422,463.5571 399.7968,464.0705 405.08,465.1354 411.1643,466.9308 417.1519,469.2397 422.9923,472.0202 428.9599,475.4315 435.3903,479.7112 441.594,484.3146 447.4586,489.2124 452.3643,493.8603 458.5567,500.4123 463.569,506.212 468.1649,512.1096 472.9819,519.0938 477.2714,525.9844 480.9,532.5469 484.4034,539.8011 489.8285,553.0877 494.797,569.9998 498.2038,587.9322 499.8281,603.4062 500.6518,622.0163 500.3385,640.4128 498.7771,661.6209 496.4566,681.456 492.942,703.0982 488.33,726.1003 482.4359,749.9213 476.2853,770.6894 470.2325,787.6979 463.7588,802.7128 460.4823,809.0648 456.9794,815.0334 453.6392,820.0062 450.0995,824.4789 446.5729,828.1382 442.9971,831.0903 439.4367,833.2847 435.689,834.801 430.6336,835.6188 425.6374,835.1242 420.3238,833.2701 414.9155,829.9841 409.5392,825.3631 403.9354,819.192 398.3699,811.7832 392.6558,802.9252 387.1587,793.084 381.4522,781.5078 375.8578,768.8708 370.0787,754.5214 364.2836,738.8429 359.1906,723.8733 354.1454,707.6527 349.2009,690.2914 344.5106,672.3062 340.031,653.4908 335.9099,634.4069 332.572,617.0837 329.6783,599.8411 327.2008,582.4504 325.2322,565.4637 323.8205,549.3977 322.9506,534.3591 322.616,520.3187 322.8264,507.5409 323.578,495.1446 324.8498,483.6274 326.6859,472.6963 329.0272,462.7988 331.916,453.8003 334.5815,447.4183 337.7655,441.3464 341.2682,436.0081 345.0561,431.3773 349.0954,427.4277 353.6251,423.9485 358.3603,421.1775 363.7018,418.9172 369.1241,417.3772 375.0677,416.4121 381.5029,416.0884 387.9967,416.4188 394.8622,417.4032 402.2328,419.0833 409.8548,421.3888 417.3347,424.1884 424.6116,427.4146 431.625,431.0 439.8487,435.7341 447.9588,440.9235 461.25,450.75 469.5278,457.713 476.5255,464.11 482.3386,469.9722 489.7361,478.1852 495.3693,484.8493 499.875,490.75 509.748,505.2905 523.7117,529.7477 526.6576,534.1762 529.3462,537.0731 531.125,538.0938 533.25,538.125 535.1773,537.0586 536.6602,535.5938 538.3385,533.3022 541.9004,526.6523 546.0415,516.4039 550.25,504.125 558.405,477.2052 587.6533,370.3775 599.5479,328.9773 606.4271,306.6496 613.1915,286.0196 619.8898,266.9311 626.3695,249.8297 633.225,233.4851 640.0629,219.1035 646.666,207.0927 652.9049,197.687 655.7901,194.1161 658.9146,190.866 661.6332,188.6066 664.2444,186.997 666.9974,185.9929 669.3216,185.8152 671.4635,186.3364 673.5036,187.5922 675.8776,190.2644 677.9004,194.0685 679.5322,198.9576 680.7335,204.8848 681.4644,211.8031 681.7262,219.6436 681.5488,228.2658 680.9234,237.5428 678.5089,256.4074 674.4731,276.5181 668.8134,298.0338 661.7608,319.9138 653.7012,341.0175 644.3125,362.2969 634.0103,382.8279 622.1515,403.8845 610.583,422.5765 597.4405,442.1283 584.0518,460.9816 558.2888,496.0294 550.7576,506.8631 540.1591,523.6736 532.7627,537.763 528.4769,547.8519 524.9531,558.3433 521.9863,570.0509 520.0359,582.2562 519.1491,595.7992 519.1775,601.9313 519.625,606.75 520.3472,610.213 521.2315,612.3935 522.751,613.1367 523.9893,612.4805 525.4178,610.5718 527.2601,607.0334 531.0807,596.95 535.5333,582.3988 540.4421,564.1156 552.4861,513.9041 581.1974,388.5932 590.5725,350.3107 600.0625,313.6357 607.9246,285.1507 615.8168,258.3969 623.8121,233.2025 631.1606,211.9065 641.0435,186.3615 650.771,164.7337 655.4525,155.6417 660.0786,147.5641 664.4352,140.8507 669.047,134.7112 673.5841,129.6785 678.0075,125.8057 682.278,123.1462 686.1079,121.8024 689.7369,121.6158 693.0735,122.5902 696.3361,124.8193 699.3161,128.2315 702.75,134.4219 705.4614,142.029 707.6583,151.7052 709.0727,162.4271 709.7886,174.5387 709.7866,188.1184 709.0417,202.6356 707.5608,217.9005 705.4821,232.901 702.7533,248.2414 699.3057,264.1959 695.1795,280.5659 690.5137,296.7677 685.3512,312.6972 679.7352,328.2502 673.7089,343.3223 662.2332,368.7131 649.5459,393.2022 636.1147,415.9815 620.7108,439.1529 606.3766,458.7005 590.7132,478.2352 574.7748,496.8176 545.476,529.6136 531.9284,545.6217 521.0384,560.1124 516.3019,567.1565 512.2196,573.8821 507.2618,583.0931 502.4603,593.1627 498.5693,602.6526 494.7671,613.3824 489.155,632.2368 479.3238,671.3637 472.6603,695.612 467.6005,711.4461 461.5032,727.2278 458.2836,734.4474 454.9443,740.9211 451.439,746.6614 447.9078,751.4923 444.0759,755.8041 440.6839,758.7812 436.7696,761.2205 432.9855,762.665 429.1159,763.2967 425.2336,763.0502 421.2039,761.8521 417.3639,759.8592 413.3686,756.9565 409.5098,753.3531 405.6864,748.9171 401.6078,743.2807 397.4785,736.6846 393.0697,728.7271 389.2965,721.1103 385.4553,712.4118 377.9178,692.4276 370.8613,669.6988 365.0402,646.3216 360.2444,621.7897 356.9831,599.0003 355.1579,577.1315 354.849,557.515 355.2582,548.5163 356.033,540.1283 357.2188,531.9062 358.7608,524.3256 360.6338,517.4286 362.8802,511.0906 365.0639,506.2718 367.4889,501.9631 370.1296,498.1644 372.9606,494.8757 375.9561,492.0971 379.0908,489.8285 382.7297,487.853 386.6701,486.3207 390.7337,485.3089 394.8808,484.809 399.0719,484.8119 403.2148,485.2955 407.9297,486.3105 412.9719,487.8786 417.9469,489.9009 422.8232,492.3382 432.4621,498.4772 441.8602,506.2225 450.9094,515.5693 458.8609,525.6282 466.3136,537.2245 471.7593,547.6255 477.8463,562.5894 481.7488,575.7072 484.4971,588.2634 486.4062,601.8125 487.4537,616.5495 487.696,630.9226 486.8191,648.9892 484.9499,667.6024 482.4534,684.3036 479.3512,700.2054 474.6687,719.5254 469.7996,735.6584 464.6602,749.9188 458.9135,762.7148 452.8861,773.1099 449.7252,777.5093 446.6868,781.087 443.4927,784.1688 440.3946,786.5315 437.3193,788.3136 433.9517,789.6075 429.7094,790.2895 425.2382,789.9294 420.9304,788.6004 416.4283,786.1848 411.8497,782.6101 407.3947,778.1174 402.8251,772.5219 398.1528,765.8054 393.6011,758.2563 388.9765,749.5183 384.4976,740.0534 379.8656,729.2327 371.126,705.8236 363.2036,680.1034 356.0542,652.0077 350.2983,624.0619 346.1759,596.7873 344.6854,583.2879 343.585,569.834 342.9621,557.7537 342.7786,546.5463 343.017,535.8848 343.7042,525.4522 344.8324,515.7332 346.3289,507.1083 348.2468,499.1684 350.6048,491.8602 352.9969,486.0519 355.8425,480.5179 358.7604,475.9499 362.1125,471.7388 365.6834,468.2105 369.6075,465.2417 373.6803,462.9351 378.2838,461.0803 383.033,459.8534 388.2478,459.185 393.4904,459.1409 399.3602,459.7282 405.2376,460.906 411.4304,462.7441 417.5064,465.1235 423.3798,467.9577 429.7222,471.5231 436.1568,475.6921 441.9722,480.0023 447.8257,484.9409 454.6528,491.2776 460.4508,497.2533 465.0415,502.5583 470.794,509.9889 475.3704,516.5142 479.2743,522.7476 483.608,530.5827 487.2846,538.0796 490.0,544.5 493.625,554.3906 495.7374,561.1654 497.7146,568.924 500.8172,584.448 502.8488,601.1711 503.7517,622.9055 503.5111,640.3124 502.0907,662.6258 499.8478,682.1604 494.967,713.2797 490.4569,735.1312 484.1074,760.9162 477.8028,782.2127 471.51,800.1972 464.3081,816.9845 461.0352,823.375 457.6466,829.1308 453.9361,834.5761 450.1924,839.2398 446.7437,842.7603 443.0667,845.7083 439.4384,847.8489 435.597,849.3236 432.9395,849.8697 430.2005,850.0388 424.833,849.2593 419.5323,847.1277 413.7474,843.3694 408.1872,838.3349 402.6105,831.9282 396.8304,823.9426 391.0947,814.7293 385.1976,803.9671 379.3324,791.9541 373.3991,778.4257 367.573,763.8294 361.63,747.596 355.7535,730.1609 349.9435,711.4758 344.8546,693.6455 339.9333,674.7893 335.3307,655.4535 331.0953,635.8427 327.3451,616.5394 324.0411,597.3617 321.4707,580.0652 319.3677,562.829 317.7979,546.1224 316.7689,530.0606 316.288,514.7587 316.3545,500.6644 316.9737,487.2839 318.1522,475.1235 319.8861,463.9471 322.143,453.7617 325.0049,444.2408 327.5728,437.5848 330.5634,431.3192 333.6868,426.0174 337.233,421.1452 341.1178,416.8285 345.5502,412.8955 350.224,409.6477 355.1002,407.0536 360.4809,404.9716 366.0006,403.5594 371.6949,402.7652 377.9871,402.5028 384.7309,402.8294 391.5094,403.7182 398.6469,405.1992 406.0771,407.2832 413.7604,409.9643 421.6323,413.1737 429.2586,416.7203 436.9326,420.7302 444.5734,425.1784 453.0223,430.579 468.2177,441.5356 475.5245,447.6012 485.0964,456.1507 491.7522,462.5828 497.3906,468.5809 508.0515,481.0828 524.1212,502.6435 530.0197,509.7798 532.8286,512.1315 535.1469,513.2402 537.4297,513.2828 539.5929,512.3065 541.3975,510.7482 543.2934,508.4796 547.0304,501.9816 551.2997,492.0397 556.4365,477.8028 565.1263,450.2698 588.3048,370.5285 600.1981,331.3108 612.734,293.8159 618.34,278.4963 624.0423,264.0534 630.113,249.9517 635.9229,237.7911 641.3037,227.9803 646.5857,219.8681 651.6359,213.6944 656.163,209.7984 658.41,208.586 660.537,207.963 662.5263,207.931 664.36,208.492 666.78,210.449 668.5552,213.3167 670.1273,217.8204 671.1944,223.1828 671.8277,229.5321 672.001,236.7847 671.7206,244.3609 670.947,253.0909 668.1953,271.5288 663.9066,290.9171 658.1249,310.8314 650.8419,331.6361 643.6184,349.4561 635.4508,367.2686 626.2853,385.1739 616.1028,403.2555 606.4116,419.2414 596.3063,434.8697 558.0212,490.3578 550.2447,502.7449 544.0828,513.6391 538.2753,525.9161 535.8782,532.3447 534.0505,538.3186 532.7066,544.6359 532.5,549.625 532.6806,550.8148 533.1111,551.4769 533.625,551.75 534.2407,551.5509 536.5545,548.4258 539.6801,541.7334 543.5197,531.3509 547.7232,518.2018 560.643,471.8386 584.4725,381.1198 598.5679,330.5181 606.0868,305.3359 613.2996,282.7303 620.3324,262.2875 627.1988,243.9298 635.0796,224.9031 642.7028,208.7942 650.1651,195.557 657.2144,185.5618 660.4993,181.8608 663.6643,178.9761 666.8074,176.8852 669.6098,175.7541 672.5883,175.4221 675.0549,175.9631 677.5957,177.5123 679.6197,179.7254 681.6023,183.1557 683.2995,187.7442 684.6777,193.5115 685.6114,199.8597 686.1634,206.9871 686.3183,214.8267 686.0606,223.3116 685.375,232.375 682.7273,252.5325 678.6439,273.4535 673.3357,294.1206 666.5801,315.3457 658.1064,337.9631 648.5912,359.8802 637.2381,382.712 625.0279,404.5857 613.0826,423.789 598.6695,444.9569 583.8233,465.3602 557.6471,499.7987 545.5127,516.9815 538.8394,527.4582 532.85,537.8584 528.5781,546.3594 524.4444,555.8729 521.2167,564.9382 518.141,575.8775 515.3739,588.9553 513.7476,599.5054 511.6702,618.504 508.9701,661.4316 507.032,684.522 503.1997,714.5044 500.2942,731.7562 496.8284,749.8996 491.9133,771.7346 486.8539,791.6837 480.7842,812.3023 475.0858,829.2167 468.4342,845.7259 462.3084,858.301 455.9673,868.5571 452.8055,872.7273 449.4688,876.4531 446.2139,879.4362 442.773,881.9239 439.1285,883.8599 435.7908,885.0273 432.9931,885.5468 430.1019,885.6528 427.1118,885.3143 424.3669,884.6154 421.1763,883.3532 418.2449,881.7842 412.0984,877.2947 406.0103,871.3108 399.6538,863.4404 393.2243,853.9243 386.5559,842.5117 379.6656,829.1557 372.8982,814.5508 366.3837,799.0082 359.8296,781.8763 353.163,762.9326 346.5605,742.6348 340.0751,721.132 333.7782,698.6412 328.3217,677.5234 323.1247,655.5656 318.3331,633.3458 314.0652,611.4594 310.2828,589.7394 307.0324,568.394 304.4234,548.1407 302.5514,529.6726 301.2805,511.975 300.6,494.7423 300.5397,478.8623 301.0947,463.6677 302.2371,449.9515 303.9596,437.4989 306.3158,426.0975 309.2648,415.872 311.8372,408.9532 314.6967,402.6611 317.8232,396.9806 321.3912,391.6316 325.211,386.9298 329.2594,382.8578 333.6437,379.3021 338.5487,376.1643 343.6627,373.6529 349.313,371.616 355.1279,370.1911 361.0697,369.3262 367.4798,368.9628 374.3263,369.1342 381.5044,369.842 389.0174,371.0645 396.4995,372.7215 403.9068,374.7575 419.3732,380.157 436.2871,387.6152 453.1713,396.452 472.1153,408.0219 489.3806,420.0348 506.321,433.313 530.5702,454.1469 538.0995,459.8611 541.1943,461.6428 544.5021,462.665 547.5565,462.8413 550.2989,462.0652 552.3001,460.864 554.0814,459.2905 558.1994,453.8934 562.6614,445.547 567.2812,435.1839 575.4733,413.1862 603.358,331.7096 613.8508,304.429 621.2583,287.334 629.3551,271.4455 632.9751,265.4909 636.4638,260.5833 639.712,256.8593 642.6886,254.4078 645.2776,253.3543 647.5342,253.5984 649.1345,254.8603 650.2983,256.9207 651.2719,260.2112 651.8305,264.0504 651.899,273.4265 650.53,285.6861 647.9999,298.9892 644.4406,312.7527 639.5496,328.182 633.875,343.375 628.1215,356.9672 621.7329,370.7163 614.251,385.5327 606.7703,399.3139 591.7176,424.4907 568.7691,460.2514 555.9062,481.4102 565.9895,450.0623 587.4229,379.6474 596.0012,352.5068 606.36,321.8946 615.6653,296.9689 621.457,283.1087 627.1593,270.6474 631.6652,261.9117 636.2759,254.1847 640.9876,247.6689 644.9051,243.6834 648.4325,241.6452 650.3362,241.3165 651.7637,241.565 653.5664,242.8242 655.1141,245.2459 656.2993,248.7236 657.0193,252.773 657.3594,257.6415 657.2961,263.2202 655.9827,277.05 653.33,291.6686 649.2745,307.7453 643.9961,324.5547 637.7036,341.4062 631.7877,355.6017 625.7039,368.9418 619.1073,382.1626 611.9455,395.3868 604.4065,408.3655 595.3936,423.0652 561.4687,475.7993 554.04,488.6187 549.9688,497.4062 551.963,492.7917 555.4047,483.28 561.7142,463.684 570.1482,435.9736 586.5994,379.9189 599.8811,337.1864 609.4352,308.9352 618.9651,283.3849 624.7228,269.5431 630.3571,257.3229 635.5047,247.4632 640.6408,239.0802 645.5461,232.5901 650.057,228.2657 652.1766,226.9405 653.9962,226.2308 656.0228,226.0192 657.568,226.387 659.7391,228.0287 661.3039,230.5546 662.6699,234.5845 663.5533,239.3446 664.0302,244.9854 664.0768,251.435 662.8615,266.1432 660.1474,282.4659 656.1486,299.2803 650.4323,318.0234 643.4008,337.3878 637.8694,350.8477 631.5732,364.8635 624.888,378.5414 618.0474,391.4382 608.8874,407.3747 598.4423,424.3063 587.2876,441.4698 565.9955,473.1526 554.2746,491.8833 549.1663,501.2047 545.2868,509.3943 542.7188,516.4531 542.1699,519.3281 542.2656,519.75 542.75,519.75 544.4692,517.0039 546.8354,511.4149 554.0634,490.648 561.6966,465.4097 585.6988,380.1105 596.3857,343.7958 610.1066,300.9083 616.3297,283.1159 622.3488,267.1233 628.5934,251.9968 635.0228,238.1715 641.2368,226.5248 647.2271,217.1009 652.6232,210.5116 655.3477,207.9835 657.6684,206.3213 660.1444,205.1323 662.2078,204.7003 664.125,204.875 665.9204,205.6674 668.3141,207.9595 670.1538,211.185 671.7263,215.8824 672.7267,221.2262 673.2858,227.8234 673.394,235.3249 673.0546,243.6124 672.2974,252.178 669.6289,269.9253 665.2315,289.5648 659.4284,309.7413 652.2601,330.3195 644.7114,349.0412 636.273,367.5377 626.9234,385.7469 616.2273,404.7343 606.9913,419.8973 597.4045,434.5926 556.7341,493.1578 549.2137,505.0604 543.236,515.765 539.2639,523.7685 535.625,532.5 533.987,537.218 532.0235,544.374 530.9442,550.1384 530.6742,554.5336 531.192,557.461 531.774,558.117 532.6796,558.0351 534.9465,555.2738 537.9259,549.1574 541.3566,540.1699 544.8531,529.3418 556.015,490.0643 584.1028,381.9403 598.4379,329.6291 606.0885,303.7941 613.8134,279.382 621.0,258.2314 627.9492,239.5509 636.2695,219.5033 644.3537,202.5328 651.8431,189.4019 655.4791,184.026 659.0496,179.4191 662.5235,175.634 665.8694,172.7235 669.0561,170.7405 672.1108,169.71 674.8488,169.6178 677.6815,170.5102 680.259,172.4359 682.3309,175.0406 684.5051,179.3298 686.1022,184.2695 687.4112,190.6935 688.3234,198.3305 688.7649,206.5229 688.7651,215.4782 688.3063,225.1055 687.4217,234.8592 684.3225,255.717 679.6573,277.4736 673.5825,299.567 666.0844,321.9606 657.1485,344.711 647.2613,366.5433 635.6118,389.0577 622.9966,410.9543 611.6053,428.8124 596.8478,449.9643 584.5407,466.5715 555.4319,504.48 543.8498,520.5715 538.1999,529.171 533.0742,537.8076 528.1752,546.9832 524.1864,555.5252 520.5781,564.497 518.1477,571.8497 514.8745,583.9089 512.4711,594.9217 509.1633,615.8156 502.375,675.125 497.8009,705.1898 494.3999,723.4013 489.8167,744.1451 486.0466,759.6284 481.7745,775.0477 475.7915,793.6255 470.6948,807.5689 464.8763,820.824 459.3764,831.3024 453.7178,839.8395 447.7974,846.6082 444.9064,849.1493 441.8807,851.2774 438.7048,852.9482 435.7051,854.0243 430.3769,854.7977 427.6387,854.6211 424.8222,854.0411 419.2695,851.7617 413.7387,848.0831 407.8816,842.7831 402.3132,836.4311 396.4368,828.2894 390.5815,818.8032 384.5836,807.7391 378.4604,795.0929 372.2969,781.0099 366.4279,766.2059 360.4616,749.7304 354.573,732.0351 348.8151,713.2785 343.352,694.0282 338.3227,674.8514 333.8018,655.9372 329.6433,636.7401 325.8168,617.0753 322.4492,597.5212 319.5819,578.2823 317.2752,559.7321 315.6718,543.0847 314.6248,527.0974 314.1343,511.8534 314.2094,497.0686 314.8464,483.5865 316.0012,471.415 317.725,460.0402 319.9649,449.8774 322.8454,440.3456 325.4552,433.6445 328.3537,427.5924 331.7025,421.8911 335.3235,416.8772 339.4013,412.322 343.6106,408.5747 348.122,405.4102 353.1877,402.691 358.4513,400.6242 364.2355,399.0904 370.1438,398.1977 376.124,397.8942 382.4635,398.1509 389.5107,398.9975 396.9425,400.443 404.3237,402.3879 411.5883,404.7622 419.0188,407.6403 427.2262,411.299 435.582,415.467 450.8287,424.3288 466.0786,434.961 473.8508,440.9999 480.9567,446.9984 490.1006,455.3856 497.3402,462.5193 509.7151,476.277 526.4318,497.1503 532.0,503.0 534.4531,504.7789 536.8015,505.6227 539.084,505.6348 541.1472,504.6965 542.8985,503.2383 544.6296,501.2283 548.162,495.5271 552.2409,486.7394 556.225,476.3083 566.9089,443.4589 591.6702,360.159 600.5752,331.6346 612.539,296.1935 618.1716,281.0279 623.7925,266.9642 629.4502,254.0078 634.9138,242.8272 640.2903,233.1786 645.2902,225.5797 649.7132,220.2263 654.2208,216.3651 656.3282,215.2199 658.3148,214.6189 660.1634,214.5778 661.625,215.0 663.7831,216.5897 665.7704,219.527 667.3318,223.6707 668.3511,228.4856 668.9414,234.2329 669.0926,241.3553 668.8003,248.9616 668.0689,257.2172 665.4143,274.4689 661.0994,293.38 655.3755,313.1337 648.5185,332.58 641.312,350.204 633.4479,367.3538 624.8454,384.2717 615.1799,401.6061 605.6665,417.4048 594.3544,435.1009 560.0242,485.529 552.7784,497.0833 547.4424,506.4406 541.8692,517.6622 538.213,527.3018 536.7697,532.5859 536.156,536.377 536.289,538.496 536.717,538.998 537.356,538.807 538.6135,537.3532 539.7394,535.4202 543.1541,527.6841 547.3618,515.6025 552.7812,498.1875 563.4249,460.5068 585.4445,379.0624 599.0083,331.5953 611.8623,290.4823 618.2467,271.9526 624.1903,255.9648 631.4688,238.2031 638.664,222.5847 645.3166,210.0225 651.7425,200.0433 655.0013,195.8797 657.9294,192.7065 660.9903,190.0337 663.691,188.3075 666.2685,187.3207 668.7419,187.0833 671.0403,187.6064 673.1449,188.8806 675.4748,191.5154 677.4361,195.2911 678.9925,200.1894 680.1161,206.1061 680.8524,213.1082 681.1516,220.9757 680.9907,229.6173 680.3869,238.5042 679.3846,247.4735 677.834,257.653 673.6189,278.4042 668.0464,299.3451 661.1771,320.2958 652.8804,341.9851 643.6393,362.9854 633.4168,383.2735 621.679,404.132 610.25,422.625 597.9698,440.9923 585.2456,458.8799 559.4104,494.1037 550.7003,506.6173 541.3616,521.4715 533.7195,535.6432 529.1362,546.3681 525.6104,556.6389 523.1652,565.8357 520.9312,578.2196 520.0496,589.7577 520.0185,596.637 520.3345,601.5393 520.7906,604.1236 521.7257,607.0017 523.0451,607.967 524.3976,607.5034 526.0,605.625 527.4038,603.1552 530.9306,594.3889 533.9693,585.3645 539.1616,567.0852 549.77,524.2625 581.9215,386.4669 595.7526,331.1144 604.5082,298.3115 612.9009,269.2039 621.5727,241.5265 630.3269,216.0234 639.7496,191.6165 649.1461,170.5286 653.8026,161.3172 658.2912,153.2647 662.75,146.125 666.9927,140.2126 671.1814,135.2758 675.5973,131.0865 679.5773,128.2768 683.4105,126.5402 687.0667,125.9081 690.5157,126.4124 693.7917,128.1314 696.698,130.9407 700.1618,136.4235 703.1554,144.0779 705.3806,153.1306 706.9278,163.7315 707.75,175.75 707.8356,188.7145 707.2011,202.9619 705.8423,217.9811 703.8875,232.7891 701.2921,247.9552 698.1555,262.9091 694.2298,278.7612 689.6958,294.7368 684.6681,310.4573 679.0624,326.187 673.0412,341.4623 662.0045,366.1565 649.7413,390.0819 636.2152,413.3317 621.4039,435.9374 606.7702,456.1108 590.3412,476.8533 575.4425,494.444 546.131,527.6192 534.7095,541.3604 522.6071,557.6231 517.75,565.0 513.4982,572.1519 508.7676,581.1191 504.1887,590.9711 500.3848,600.4234 496.7928,610.7997 490.1699,634.0035 479.9086,676.3033 475.7483,692.2546 469.3681,713.4023 463.2538,729.9949 459.7692,737.9028 456.0142,745.2666 452.2991,751.581 448.7041,756.6866 444.8668,761.1079 441.0663,764.5294 437.0486,767.1085 433.0921,768.6592 429.1286,769.267 425.354,768.9659 421.0521,767.6385 416.9314,765.4459 412.9785,762.5302 408.9047,758.6116 404.7789,753.7099 400.5877,747.8119 396.318,740.9042 392.1763,733.346 388.1458,725.054 384.16,715.9211 376.2916,694.9848 369.2398,672.2241 363.0663,647.7116 358.0859,622.769 354.7582,599.6866 352.7619,576.6075 352.2689,555.735 352.6037,546.3311 353.3193,537.4653 354.455,528.819 355.9663,520.8582 357.8324,513.6328 360.0588,507.1513 362.3196,502.0543 364.8422,497.4885 367.5931,493.4594 370.5391,489.9727 373.6467,487.0338 376.9504,484.599 380.7162,482.4913 384.6294,480.9116 388.6521,479.8408 393.1205,479.2306 397.6243,479.1787 401.9915,479.6212 407.0759,480.6486 412.1574,482.1756 417.1743,484.1473 422.4081,486.6911 427.6645,489.736 432.7548,493.135 442.3174,500.8244 452.3054,510.8265 460.5676,521.0197 468.7801,533.5201 474.6799,544.8964 480.5506,559.0678 485.0,573.8594 487.786,587.297 489.8687,601.9996 490.8963,619.0765 490.8572,634.7484 489.7626,653.0099 487.974,669.4991 485.1505,687.6129 480.644,710.329 476.1299,728.2651 471.1836,744.3641 465.5172,759.6575 459.6883,772.4193 453.5646,782.8744 450.3654,787.3392 447.1681,791.127 444.09,794.1094 440.8527,796.5803 437.7564,798.3472 434.5,799.625 429.9519,800.4154 425.5146,800.0606 420.8538,798.5533 415.9526,795.7922 411.2505,792.0589 406.5002,787.1566 401.6277,781.0027 396.8626,773.944 391.9862,765.712 387.0665,756.3834 382.3881,746.3798 377.7441,735.3418 373.0192,722.9722 368.2443,709.2739 363.6414,694.8678 359.5798,680.887 352.142,651.1321 345.9812,620.4505 343.5944,605.9455 341.6621,591.8887 340.154,578.1129 339.0802,564.7229 338.4508,551.8232 338.2746,539.8608 338.5224,528.9663 339.2474,518.3629 340.4337,508.4886 342.1299,499.0082 344.2654,490.3802 346.8087,482.6361 350.4778,474.3241 354.6901,467.4102 359.6614,461.4772 365.3619,456.6439 371.4358,453.1473 378.311,450.74 385.7124,449.558 393.6676,449.6012 401.9998,450.9121 411.3838,453.6393 420.9243,457.518 430.0669,462.3386 439.7974,468.6752 449.1301,475.8618 457.7754,483.6985 466.4012,492.7444 472.1615,499.6239 477.8883,507.3262 482.988,514.965 487.4129,522.5016 492.0444,531.4799 495.5571,539.2677 499.581,550.103 502.4066,559.0174 506.14,573.8856 508.9153,590.332 511.3694,615.2614 513.1566,656.7906 514.1621,668.1842 514.8641,672.3743 515.625,674.375 516.5566,675.043 517.3241,674.6759 518.5,673.0 519.76,670.192 523.1542,659.926 527.2898,643.7781 532.6272,620.7158 541.4309,578.894 575.0538,412.9629 584.2928,369.9617 593.6952,328.5624 602.0766,293.7706 610.5616,260.9867 619.1066,230.3838 627.7754,201.7551 638.2809,170.52 648.9733,142.8115 654.2474,130.6247 659.5856,119.3015 664.8108,109.2346 670.0536,100.1902 674.934,92.7819 680.0147,86.161 685.0478,80.7162 689.9978,76.4865 694.8292,73.5108 699.2193,71.8945 703.7199,71.4591 707.7376,72.2927 710.7912,73.8469 713.7976,76.3161 716.584,79.5882 719.3143,83.898 721.6883,88.753 723.9564,94.6508 725.9663,101.2997 727.704,108.656 730.1994,124.3789 731.5702,142.1878 731.7456,161.6803 730.7321,182.917 728.6886,203.9453 725.6227,225.505 721.5648,247.2844 716.6433,268.5871 710.561,290.6079 703.4726,312.7207 695.5508,334.342 686.8711,355.2966 679.9775,370.3318 672.8266,384.668 664.7697,399.5953 656.2013,414.3084 647.3672,428.3883 638.3207,441.8039 628.9203,454.8 618.9466,467.6641 603.4549,486.0624 586.6094,504.2189 564.3548,526.0972 528.4154,559.0258 515.4834,571.3777 502.4715,585.1908 491.5877,598.7325 483.0782,611.503 475.0054,626.509 469.9217,637.4224 455.9369,670.954 451.7419,680.0015 448.284,686.474 443.9209,693.1949 439.2422,698.6875 434.8456,702.2471 430.1976,704.3927 427.6751,704.8504 424.732,704.7541 422.0448,704.1398 419.2251,702.9822 416.9236,701.5503 414.329,699.429 408.8283,693.3751 403.5907,685.3861 397.9828,674.3156 393.9414,664.3273 390.2198,652.8659 386.7644,639.6952 384.1211,626.134 382.1549,611.6142 381.2631,598.6007 381.3088,586.3617 382.2419,575.6474 384.1931,565.7453 387.0973,557.178 389.8257,552.0227 393.201,547.6214 396.5987,544.649 400.7341,542.4457 405.1305,541.3635 409.8929,541.4161 414.9576,542.5943 419.9341,544.8438 425.128,548.3391 430.0458,552.6433 435.3639,558.6371 439.8639,564.7537 443.7407,571.431 447.6565,579.5543 450.0,585.625 452.9165,595.0331 454.6614,602.4812 456.5596,614.0733 457.3009,621.2301 457.7733,631.555 457.7033,639.97 456.9571,650.6662 455.9806,658.9977 454.5063,667.4258 452.4845,675.9684 449.6855,684.9481 447.1122,691.678 444.1438,697.6932 440.6089,703.1927 436.9674,707.4374 433.1719,710.4219 429.4303,712.052 426.977,712.5078 424.2073,712.4384 421.3584,711.7435 418.4071,710.4114 415.7588,708.7321 413.0562,706.4484 410.3594,703.5781 407.3959,699.806 401.9375,691.3574 396.745,680.861 391.4055,667.3939 387.1647,654.001 383.4572,639.2396 380.6639,624.7558 378.7117,609.8891 377.7153,595.3713 377.8186,582.5822 378.966,570.2787 380.9839,560.0657 384.0491,551.0472 386.9838,545.3693 390.3009,541.0 394.3241,537.5 398.9811,535.1215 403.8055,534.0497 409.1978,534.1379 414.6692,535.5505 420.5122,538.229 425.8563,541.745 431.822,546.962 436.8046,552.3889 441.5537,558.8583 446.083,566.38 449.9475,574.2862 453.3009,582.7083 455.9484,591.4061 457.9528,599.47 459.285,606.6005 460.7964,618.707 461.367,627.486 461.4026,638.1268 460.9752,646.8549 459.5567,660.4082 457.8519,670.576 455.5602,680.6065 452.9772,689.0654 449.6699,697.7473 446.0088,705.2144 442.2528,711.2086 438.502,715.6294 434.463,718.8314 430.0948,720.7331 426.9164,721.2769 424.2227,721.1758 421.125,720.375 418.2936,719.0343 415.3716,717.0845 412.3267,714.4539 409.3127,711.2 406.2765,707.2969 400.0801,697.4711 394.8171,686.7106 389.269,672.5386 384.4301,657.3423 380.2432,640.624 377.0059,623.705 374.9235,607.5364 373.8098,591.1697 373.8315,577.7317 374.9659,565.2141 377.1609,553.924 380.3069,544.4398 383.4094,538.3026 387.115,533.342 391.6607,529.3686 394.2622,527.7975 396.9404,526.6136 402.1709,525.4275 408.143,525.5652 414.1513,527.0556 420.5457,529.9692 426.6597,533.854 431.9777,538.3897 438.2033,544.906 443.375,551.625 448.5936,559.9293 452.6168,567.7183 456.9969,578.3674 460.0253,587.8754 462.302,597.4762 463.9224,606.8512 465.2033,618.5148 465.7427,628.7433 465.7026,640.1484 465.125,650.125 463.7045,663.0564 461.7659,674.0391 459.0324,685.9241 455.8143,696.7178 452.4689,705.6964 448.5786,713.7369 444.3889,720.5223 440.0265,725.6662 435.3923,729.3616 430.7037,731.4434 427.6139,731.9613 424.4415,731.758 421.1605,730.8394 417.781,729.2057 414.5668,727.0231 411.4146,724.1796 408.2284,720.6203 405.0081,716.3669 398.5015,705.8592 392.2893,693.0479 386.1423,677.3427 381.0998,661.3547 376.4463,642.9898 372.875,624.9888 370.4775,607.0881 369.1406,589.1038 369.0297,573.4784 370.1117,559.2017 372.2788,546.9905 373.7862,541.6493 375.5609,536.7802 379.2425,529.4071 383.3719,523.8222 385.6676,521.5542 388.4043,519.4158 390.9465,517.8822 393.898,516.57 396.9127,515.6952 400.1615,515.202 406.896,515.3434 413.6446,516.964 420.7298,520.1505 427.8429,524.6725 434.541,530.4 441.3515,537.5554 447.3688,545.4803 453.0158,554.4657 457.2972,562.9913 462.1056,574.5993 465.3833,585.1657 467.9417,596.2207 469.6899,607.9603 470.8091,619.3879 471.162,631.231 470.8702,643.0647 469.7061,657.4377 468.0863,669.54 465.83,681.9963 462.454,695.5436 459.1399,706.5339 455.2519,716.6784 451.3629,724.7976 446.6365,732.4296 442.0177,738.0704 436.9032,742.307 434.1705,743.8258 431.7188,744.75 428.4516,745.336 425.0184,745.1892 421.6988,744.3272 418.0775,742.5859 414.3364,739.9721 410.4754,736.4673 406.9168,732.5343 403.3716,727.802 399.8394,722.2734 396.1103,715.6031 388.7881,700.1543 382.5792,683.7463 376.6456,664.5962 371.6925,645.0392 367.6425,624.4439 364.7137,603.913 363.2088,585.2719 362.9784,567.7665 364.0185,552.077 365.0063,545.0493 366.3755,538.1577 368.0578,531.8651 370.0334,526.2061 373.9549,518.2122 376.2051,514.8469 378.6201,511.8959 381.177,509.3564 384.1262,507.0346 387.3079,505.1427 390.4639,503.7939 393.7308,502.8552 397.4507,502.2708 401.2215,502.1448 404.9978,502.4521 408.9698,503.2125 412.8822,504.35 420.9258,507.8457 429.581,513.3633 437.7668,520.1461 444.8977,527.695 452.1663,537.0628 458.4356,547.0671 464.025,557.9116 468.3318,568.9274 471.9133,580.4814 474.7483,593.0907 476.4928,603.9684 477.7116,618.0991 477.9939,630.7905 477.5991,645.2404 476.372,659.266 474.3786,673.7492 471.3582,690.0414 467.9336,704.0733 464.1116,716.7287 459.4106,729.3996 454.6744,739.5496 449.185,748.7503 443.978,755.2645 441.1457,757.9252 438.5945,759.8231 435.6004,761.4721 432.8126,762.479 429.1376,763.0922 425.2326,762.897 421.3699,761.8055 417.3824,759.7724 413.2441,756.7455 409.3217,753.0673 405.408,748.5361 401.45,743.0804 397.2493,736.3593 393.2391,729.0642 389.3091,721.0712 385.5701,712.5832 378.0529,692.7222 371.0423,670.3113 365.3753,647.7809 360.6188,623.6814 357.2576,600.7503 355.3844,579.2537 354.9404,559.2011 355.2607,550.0541 355.9254,541.8364 356.9941,533.7338 358.4177,526.224 360.1728,519.3386 362.3464,512.8153 364.5036,507.7368 366.7413,503.4968 369.1806,499.7259 372.0483,496.1385 375.1069,493.0912 378.3307,490.5742 381.8163,488.5154 385.3501,486.9909 389.3626,485.8259 393.4723,485.1758 397.6439,485.0187 401.8423,485.3326 406.655,486.2219 411.7168,487.6481 416.3626,489.3897 421.2703,491.6924 426.0406,494.4151 431.4085,497.9789 441.2102,505.7505 450.0894,514.7834 458.0172,524.5789 465.7208,536.506 471.6322,547.5444 477.3638,561.7214 481.184,574.3646 484.3995,588.4036 486.387,602.6875 487.236,613.6185 487.4745,631.5129 486.6523,649.6046 484.9703,666.6431 483.0683,679.6127 478.9822,700.93 474.3142,720.1276 469.6012,735.8539 464.5408,749.7104 458.709,762.507 452.688,772.9181 449.6447,777.1933 446.5293,780.8798 443.5184,783.8017 440.3462,786.2336 437.0,788.125 433.9733,789.2626 429.771,789.9452 425.3513,789.5848 420.6849,788.0838 416.135,785.5808 411.815,782.1927 407.375,777.7188 402.815,772.1347 398.135,765.4168 393.7501,758.2327 389.4468,750.1921 385.0034,740.8568 380.5831,730.5582 371.3218,705.7862 363.6772,681.1772 356.5098,653.1378 350.5752,624.4315 346.3705,597.2445 343.7844,571.3904 343.1232,559.2945 342.8977,548.3674 343.0959,537.67 343.7172,527.5625 344.7456,518.0952 346.2302,508.9825 348.1206,500.6733 350.427,493.1467 352.6887,487.4318 355.4072,481.9421 358.4021,477.0996 361.8682,472.6386 365.5792,468.8951 369.4115,465.917 373.8345,463.3333 378.4421,461.4112 383.1936,460.1222 388.4249,459.4094 393.3453,459.3443 398.9208,459.9026 404.7971,461.0691 411.0065,462.8894 417.1096,465.2447 423.0337,468.0705 429.3636,471.6424 435.8097,475.8129 441.9638,480.3324 448.0475,485.3872 454.3677,491.2585 460.2147,497.3126 465.2981,503.2433 470.44,510.0063 475.2815,516.9489 479.4278,523.5846 483.7073,531.3995 487.397,538.9754 490.1128,545.4712 493.4807,554.9499 495.7966,562.456 497.8952,570.6217 499.8277,579.5925 501.2279,588.6399 502.3298,598.1224 503.1304,609.2142 503.4815,616.8367 503.5266,628.6803 502.9231,647.3509 501.1663,668.2339 498.2636,691.7076 494.3918,714.0766 489.1305,739.4264 482.8709,764.1376 476.9984,783.6089 470.5497,801.3896 463.2898,817.6491 459.9272,824.0425 456.6638,829.4481 453.229,834.3116 449.7482,838.4747 446.3721,841.8015 442.815,844.56 439.0534,846.6794 435.4055,848.0004 430.1381,848.6982 424.7267,847.9305 419.3384,845.7382 413.6351,841.9635 408.026,836.8983 402.4836,830.568 396.7571,822.6674 390.8654,813.1728 384.8277,802.0604 378.8703,789.7582 373.1317,776.6282 367.3844,762.1191 361.5439,745.9902 355.7821,728.6867 350.146,710.3533 344.6826,691.1348 339.9554,673.0604 335.5578,654.5626 331.5219,635.8076 327.8827,616.9763 324.6157,597.8771 321.835,579.0783 319.7292,562.0228 318.2042,545.864 317.2204,530.3306 316.7753,515.5068 316.8667,501.4768 317.5158,487.9916 318.6871,475.8288 320.3675,464.8413 322.6057,454.7061 325.3433,445.5852 327.9546,438.8022 330.8597,432.6878 334.2117,426.9622 337.8409,421.9533 341.7096,417.6611 345.9549,413.9193 350.4423,410.8176 355.4789,408.1647 360.7095,406.1628 366.454,404.6961 372.3172,403.8681 378.6184,403.6288 385.3344,403.9911 392.4401,404.9668 399.5134,406.4819 406.8684,408.5808 414.428,411.2515 422.2617,414.517 430.309,418.322 438.3984,422.6104 446.1006,427.1506 453.235,431.7931 469.029,443.412 476.5429,449.6805 484.019,456.4921 491.1783,463.5086 497.7066,470.493 508.4413,483.406 525.2969,506.3281 529.7597,511.7598 532.4851,514.0612 534.8353,515.2536 537.0623,515.2536 539.25,514.25 541.0607,512.6678 543.0174,510.2689 546.9401,503.2436 550.6312,494.5724 556.5808,477.9634 565.3533,449.5792 585.9847,378.1347 600.7627,329.1713 612.9458,292.6312 618.8927,276.2908 624.3893,262.2911 630.5903,247.8833 636.4964,235.6227 641.9438,225.7768 647.2654,217.7241 652.3399,211.6386 657.0243,207.7282 659.3888,206.5686 661.4131,206.1052 663.3202,206.1918 665.0932,206.8284 667.4636,208.8146 669.4354,212.0383 670.8644,216.145 671.931,221.3395 672.6217,227.8113 672.8394,235.2048 672.5854,242.9728 671.8606,251.4013 669.0108,270.3016 664.605,290.1813 658.872,310.0044 651.4193,331.3483 644.0411,349.6523 636.0394,367.2111 627.1481,384.6166 616.8521,402.9033 607.4224,418.4428 597.1427,434.2996 556.8079,492.7673 549.239,504.857 543.1933,515.6867 537.6288,527.4591 535.0602,534.3981 533.0377,540.938 531.8033,547.6385 531.4633,552.3852 531.6902,554.105 532.2052,555.1119 532.8095,555.3844 533.5441,555.0341 534.7924,553.7221 536.1075,551.5437 539.7712,543.1302 543.2616,533.2164 548.6248,516.0424 558.3677,480.831 583.6998,383.6055 597.8932,332.2105 605.704,305.8456 613.2507,281.9766 620.3469,261.1752 627.4782,241.972 635.4733,222.5572 643.0693,206.4304 650.6215,192.9473 654.3409,187.2991 657.7847,182.7131 661.1371,178.9106 664.3803,175.9415 667.3609,173.91 670.5632,172.5545 673.5748,172.188 676.0658,172.6962 678.6297,174.2103 680.6718,176.3975 682.875,180.25 684.6003,185.0098 686.0312,191.0653 687.0423,198.1125 687.6085,206.0694 687.7113,214.3966 687.3681,223.4009 686.5694,233.0209 683.6927,253.8594 679.2114,275.7969 673.4491,297.3637 666.1129,319.7994 657.6296,341.8426 648.0,363.5 636.9018,385.3607 624.6279,406.8407 611.7523,427.2075 597.7538,447.5722 582.8401,467.8555 556.316,502.5578 544.3081,519.3694 538.292,528.6437 532.8361,537.8993 528.8069,545.5419 525.2523,553.3291 521.3945,563.3381 517.8876,574.3833 516.0627,581.5373 513.5594,593.5086 511.4202,607.5413 509.6463,621.7931 506.3019,658.925 504.0804,678.1248 500.1687,705.9131 496.692,725.3422 492.6589,744.7127 487.9082,764.8025 484.4316,777.9182 478.1763,798.4855 472.8952,813.5776 467.1644,827.3972 461.1464,839.3401 454.9113,849.2285 451.859,853.163 448.631,856.7009 445.4851,859.5606 442.2564,861.9185 439.0397,863.6784 435.6821,864.8914 430.3489,865.5546 427.3437,865.2804 424.6145,864.6508 418.8197,862.1904 412.9956,858.1745 407.1339,852.626 401.2605,845.6482 395.1411,836.9618 388.7709,826.4772 382.7789,815.2368 376.6843,802.3777 370.525,787.9885 364.3333,772.1481 357.9979,754.5198 351.7036,735.559 346.0953,717.2609 340.5759,697.7425 335.2156,677.1643 330.1775,656.0885 325.5225,634.7301 321.3827,613.6858 318.0577,594.6466 315.1993,575.6342 312.8803,557.0687 311.1514,539.4648 309.9756,522.5527 309.3708,506.463 309.3551,491.326 309.9137,477.9281 311.0897,465.0193 312.841,453.1505 315.2236,441.9807 318.1515,431.9519 320.6245,425.331 323.4875,419.0797 326.6611,413.4492 330.0943,408.4824 334.0499,403.8335 338.2642,399.8498 342.7086,396.5 347.6709,393.5905 352.8278,391.3287 358.1448,389.6768 364.0742,388.5221 370.38,387.924 376.7677,387.8798 383.5802,388.3804 390.7789,389.4538 397.9357,391.0174 405.3716,393.1156 413.1006,395.7447 421.0184,398.8662 429.0539,402.4564 445.218,410.9094 462.056,421.3071 470.2378,427.0096 477.8768,432.8166 486.9084,440.1609 494.899,447.154 508.7492,460.6105 527.5217,481.0042 532.7146,485.8144 536.0477,488.3374 538.9537,489.6111 541.6667,489.8335 544.3333,488.8548 546.0,487.6036 547.9775,485.5085 551.8699,479.6086 556.0414,471.0244 560.4356,459.9884 569.2169,434.4225 587.1196,376.5365 601.7279,331.1177 612.5996,300.1825 622.4554,275.6142 627.9816,263.3054 632.4054,254.3915 637.0689,246.1156 641.7622,238.9974 646.0158,233.7926 649.7241,230.5536 651.8156,229.3722 653.4573,228.8401 654.9896,228.7301 656.3966,229.0526 658.2792,230.4154 660.0885,233.2435 661.4025,236.9359 662.3268,241.6191 662.792,246.7428 662.8531,252.7415 661.7136,267.1983 659.0311,283.3336 654.938,300.5297 649.4749,318.7294 643.0,336.625 636.9346,351.3757 630.5465,365.5629 624.3376,378.1396 616.4788,392.7894 606.7546,409.6468 594.6885,429.0679 565.5356,472.9408 556.6431,487.1315 551.2683,496.7729 546.5143,506.4195 544.2784,512.3068 543.707,514.472 543.875,515.5 545.6131,512.8236 548.1278,506.8841 554.1776,489.455 561.9123,464.3593 588.3351,371.5915 597.732,340.075 609.6807,303.1099 615.8114,285.8301 621.8296,269.9561 627.8471,255.3668 634.0288,242.0085 639.9884,230.7426 645.473,221.9734 651.0117,214.9998 655.9213,210.6898 658.2043,209.4359 660.3474,208.8158 662.3123,208.8442 664.0641,209.4573 666.3042,211.3 668.1971,214.2457 669.7,218.2565 670.7699,223.2942 671.4195,229.7613 671.6053,237.1105 671.3177,245.2958 670.5808,253.795 667.8475,271.5961 663.3465,291.5456 657.636,311.2917 650.5027,331.576 643.1498,349.7059 635.0763,367.3843 625.5127,386.1415 615.3623,404.2891 606.589,418.7318 596.243,434.6746 558.4355,489.5973 550.2083,502.7269 544.4367,512.785 541.2384,519.2392 538.3797,525.9185 536.2684,531.6459 534.3734,537.9632 533.465,542.396 533.0266,546.9399 533.568,549.658 533.839,549.844 534.567,549.622 535.6753,548.461 537.1564,546.139 540.0385,539.8957 548.2156,516.2401 562.6351,464.1356 587.5051,370.1695 598.4445,331.109 605.8577,306.4023 613.2981,283.2144 620.6191,261.9941 627.7176,243.0138 635.3059,224.8993 642.8571,209.2334 650.3085,196.2032 653.8745,190.9386 657.0912,186.8165 660.5543,183.0804 663.6061,180.4394 666.8256,178.3988 669.5996,177.3594 672.2015,177.125 674.7914,177.8078 676.9638,179.2776 679.0926,181.7555 681.0929,185.4327 682.7506,190.1017 684.0407,195.7209 684.9382,202.2485 685.4293,209.8337 685.4982,218.0817 685.1506,226.9648 684.3805,236.3985 681.769,255.3282 677.7308,274.9418 672.1346,296.1484 665.245,317.6164 657.016,339.2165 647.0679,361.8282 636.2086,383.5699 624.1948,404.9499 612.0047,424.5601 598.5356,444.4081 585.9042,461.8016 559.0345,497.3635 546.1354,515.5943 540.1588,524.9896 534.6601,534.541 529.5267,544.5591 525.8464,552.858 522.1094,563.0479 519.4007,572.8138 516.7896,584.2879 514.6588,598.2605 512.5029,621.5102 510.6694,676.285 509.0469,701.3281 507.6637,714.8846 504.6629,735.811 501.8633,751.6363 496.875,775.875 491.6661,798.099 485.8785,819.8236 478.8791,842.5238 471.8306,861.4672 467.9858,870.3582 464.1339,878.2931 460.3025,885.1897 456.539,891.0354 452.7975,895.9831 448.9823,900.1416 445.2091,903.3874 441.199,905.9255 437.2747,907.5434 433.125,908.375 429.1597,908.3575 425.0056,907.5084 419.1585,904.9428 412.9407,900.5637 406.672,894.5493 399.9906,886.5033 393.6206,877.2557 387.1746,866.3904 380.5187,853.7077 373.6712,839.2107 366.473,822.4715 359.2941,804.3099 352.5968,785.9621 345.9055,766.1307 339.0743,744.3219 332.4975,721.7618 326.1249,698.3097 320.0178,674.1665 314.6498,651.3505 309.9219,629.518 305.5441,607.299 301.7068,585.6414 298.3654,564.3207 295.5565,543.5029 293.3509,523.7067 291.7523,505.05 290.788,488.1874 290.3919,471.9933 290.5738,456.7696 291.3199,442.544 292.6613,428.9826 294.5698,416.5369 297.0302,405.237 300.0274,395.1132 302.5312,388.514 305.4457,382.2275 308.6378,376.5546 312.0867,371.4723 316.0253,366.6755 320.2077,362.4957 324.6086,358.9045 329.496,355.702 334.5718,353.098 339.8058,351.0586 345.5641,349.4512 351.7457,348.3267 358.4266,347.7048 365.2069,347.6151 372.4267,348.0384 379.6641,348.9317 394.0,351.875 410.469,356.7336 426.9349,362.8815 443.8947,370.4804 465.1448,381.3939 484.199,392.5478 501.7051,403.7376 532.6007,425.2817 542.375,431.375 546.5707,433.4316 550.6732,434.7259 554.1879,435.0843 557.1641,434.5379 559.2581,433.6153 561.2679,432.2358 565.3393,427.9326 569.4894,421.7431 574.0184,412.9629 582.7183,392.2765 605.3724,332.681 614.1824,312.0858 620.2357,299.5221 625.6712,289.8699 630.4019,283.3764 632.6222,281.0808 634.4479,279.7039 636.0093,279.088 637.7285,279.2218 638.8478,280.0619 639.7752,281.8092 640.4166,284.3577 640.723,287.2474 640.5,294.25 639.0125,304.7206 636.819,314.7851 633.5101,326.4393 629.5604,338.1495 624.5276,351.1884 619.0423,364.0337 613.0383,376.6158 606.8501,388.6314 598.9394,402.8339 589.2005,419.3068 578.4452,436.4167 571.125,447.25 568.625,449.875 568.2188,449.4844 568.375,447.875 570.4486,439.5922 586.6072,387.8857 599.7086,348.8886 610.9053,318.9176 620.394,297.4281 624.5022,289.3844 628.2789,282.9126 631.8195,277.8477 635.1331,274.2443 638.047,272.2891 639.2963,271.9873 640.4921,272.1926 641.8156,273.1934 642.7179,274.6544 643.506,277.16 643.875,279.875 643.8526,288.1055 642.677,297.6732 640.1976,309.3735 636.846,321.652 632.4371,334.9935 627.3113,348.5138 621.9898,360.9868 615.965,373.902 609.8656,385.9495 602.9543,398.6147 594.5063,412.9917 583.5211,430.828 567.7528,455.2508 565.267,458.251 564.875,458.125 564.843,457.211 566.538,450.5126 590.8573,373.2132 601.6603,341.2442 612.3368,312.9749 622.0197,290.803 626.2735,282.3378 630.1654,275.6641 634.0661,270.08 637.6975,266.1038 640.6733,264.1759 642.3226,263.8211 643.496,264.018 644.9004,265.0432 645.9761,266.8154 646.882,269.6889 647.3748,272.9915 647.3725,281.1342 646.0951,292.1562 643.7276,304.0659 640.0689,317.8836 635.4646,332.2573 630.2843,346.0672 624.9181,358.682 618.5848,372.2323 611.7946,385.6762 604.4602,399.1458 596.4583,412.8102 584.8748,431.6213 568.6445,457.1123 561.2188,468.1719 561.0879,467.2227 562.608,461.5695 591.2025,370.0395 603.3354,333.8403 614.5205,304.0314 619.3405,292.5893 624.3431,281.8358 628.8409,273.189 633.3155,265.7382 637.3379,260.1719 641.0748,256.2738 642.6677,255.1324 644.5336,254.2952 645.9084,254.1031 647.1625,254.3407 648.7853,255.5138 649.9805,257.4448 651.0324,260.6101 651.6371,264.3032 651.75,273.375 650.4118,285.3808 647.7337,299.2417 643.9485,313.7684 639.0709,328.9854 633.2593,344.3281 627.477,358.1168 621.6722,370.7225 614.412,385.0185 606.6717,399.1881 593.1188,421.9315 566.2552,464.0516 556.3008,480.3359 571.2628,433.0978 585.102,387.4343 596.8463,350.1595 607.064,320.2345 616.2494,295.7537 621.6203,282.9013 626.7729,271.7132 631.7581,262.1536 636.4163,254.4611 640.9989,248.3115 644.9416,244.485 648.4902,242.5558 650.2174,242.3385 651.5264,242.6225 653.3388,243.9482 654.8675,246.3885 656.0102,249.8609 656.6814,253.8277 656.9893,258.5545 656.9024,264.4733 655.5867,277.5561 652.7719,292.7954 648.7609,308.5531 643.3786,325.5532 636.8322,343.0918 631.3547,356.1654 625.6798,368.46 617.9254,383.8185 610.2522,397.9703 596.0439,421.6355 569.7059,462.4155 561.0995,476.2631 553.5972,489.3194 551.6092,493.1963 550.5278,496.088 552.6773,490.9691 556.1526,481.1056 561.1173,465.738 569.3374,438.8064 588.2345,374.6599 598.8171,340.7229 608.9808,310.7722 619.1801,283.3572 624.9337,269.6039 630.6873,257.2162 635.8344,247.4668 640.8195,239.4974 645.7877,233.1346 650.1804,229.1644 652.5029,227.8851 654.3158,227.3737 656.0,227.375 657.5396,227.8972 659.4213,229.5185 661.0397,232.4277 662.2637,236.4434 663.0889,241.46 663.4695,246.9915 663.4455,253.2922 662.1233,267.9031 659.2806,284.1578 654.9279,301.9656 649.2836,320.3184 642.4652,338.9488 636.9951,352.148 630.8695,365.6826 624.5158,378.5863 617.8959,390.9646 608.4484,407.4727 599.1262,422.7285 587.3369,440.9119 567.2496,470.9438 555.25,489.875 550.5742,498.2773 546.6494,506.1409 543.5193,514.2617 542.7949,517.4336 543.1035,517.9102 544.9043,515.166 547.5261,509.0819 554.2871,489.624 563.5087,458.9536 582.6363,391.0509 596.6604,343.25 610.2109,301.0981 616.2463,283.8835 621.9487,268.7779 628.3338,253.398 634.8683,239.3195 640.9881,227.8058 646.5842,218.9823 652.0297,212.3251 654.556,209.966 656.9793,208.2008 659.279,207.0482 661.4345,206.5268 663.4252,206.6554 665.3723,207.5305 667.6192,209.7569 669.4967,213.1651 670.9583,217.7083 671.8929,222.8303 672.4177,229.1517 672.509,236.8622 672.1642,245.0099 671.3759,253.803 668.7256,271.2112 664.3042,290.7633 658.484,310.9468 651.5692,330.7179 643.9827,349.4166 635.6761,367.6036 626.6116,385.3663 616.3976,403.5613 607.07,418.8983 596.8009,434.6898 557.5181,491.4985 549.9109,503.5868 544.2033,513.7059 537.653,527.4513 535.381,533.4197 533.5903,539.2948 532.3748,544.6521 531.6711,550.3362 532.125,553.625 532.633,554.271 533.429,554.173 534.5503,553.164 536.0314,550.936 538.9901,544.6916 542.7449,534.5652 546.9532,521.4091 555.2262,492.7171 584.5621,380.2569 599.1399,328.1343 606.3865,303.7487 613.7415,280.7505 621.4821,258.3143 628.7764,238.8772 636.6964,220.0784 644.5466,203.9444 651.9658,191.2264 655.5823,186.0521 659.1296,181.688 662.578,178.17 665.898,175.5339 669.0602,173.8156 672.0348,173.051 674.8352,173.2857 677.3139,174.4527 679.5759,176.5067 681.596,179.4202 683.494,183.547 685.041,188.6289 686.2041,194.6305 686.9546,201.5257 687.3113,209.546 687.249,217.9194 686.7596,227.2563 685.8796,236.7269 683.0604,255.9728 678.7428,276.3715 672.9893,297.6644 665.9522,319.2081 657.221,341.859 647.1647,364.4232 636.1914,386.0331 623.5441,408.1961 611.6866,427.0702 599.4241,444.8841 584.8634,464.7384 556.7105,501.7503 544.8304,518.4315 538.7746,527.7364 533.85,536.0688 529.1938,544.9345 525.3152,553.417 521.3656,563.8106 518.5312,572.7656 515.7959,583.8563 513.4392,595.7591 510.6355,617.4177 507.7788,650.8419 505.115,677.5123 503.4345,691.3675 501.0524,707.546 497.581,726.79 493.6736,746.1898 489.231,765.3309 485.4735,779.709 479.4923,799.994 474.0806,815.7244 468.0839,830.4196 461.5488,843.6721 455.4541,853.6367 452.3382,857.763 449.2547,861.2201 446.088,864.1619 442.9675,866.4936 439.7139,868.333 436.3146,869.6228 430.9154,870.4016 427.8759,870.1917 425.1184,869.6212 419.309,867.2623 413.454,863.2912 407.5517,857.7784 401.359,850.4771 395.1589,841.7125 388.929,831.5001 382.5985,819.6109 376.2914,806.3229 369.7427,791.0663 363.2912,774.6114 356.8192,756.682 350.7054,738.3378 344.7967,719.0627 339.0918,698.8726 333.6527,677.9753 328.5416,656.5783 323.8202,634.8892 319.7028,613.9112 316.1587,593.4654 313.2029,573.7332 310.7931,554.4722 308.9614,535.8431 307.7767,518.7027 307.1828,502.435 307.1979,487.808 307.8201,473.7998 309.0317,460.8228 310.872,448.5265 313.2822,437.3649 316.3331,427.0622 318.8942,420.3509 321.7124,414.3395 324.8229,408.9227 328.4457,403.7802 332.3408,399.2928 336.48,395.431 340.835,392.1655 345.6863,389.3061 350.7165,387.0557 356.2188,385.2919 361.9956,384.0892 368.3263,383.3952 374.744,383.2697 381.5907,383.6977 388.4446,384.6409 395.6359,386.1262 403.1017,388.1502 411.1839,390.7863 427.1588,397.2229 442.8383,405.0962 460.2112,415.3937 475.5239,426.0163 485.4991,433.7083 494.048,440.7859 508.6936,454.3162 529.0932,474.9809 534.7714,479.9462 537.5108,481.8342 540.4921,482.939 543.1928,483.0949 545.8322,482.1458 547.8333,480.6762 549.5029,478.9385 553.3148,473.3657 557.4125,465.175 561.8912,454.2524 570.934,428.336 590.7912,365.4257 602.3169,330.5731 612.9174,301.1058 622.2175,278.3002 627.2224,267.3782 631.8431,258.2483 636.2247,250.645 640.6468,244.1031 644.5745,239.4166 648.206,236.344 651.4219,234.9772 653.042,234.918 654.2354,235.2383 656.072,236.5997 657.6879,239.2546 658.924,242.9553 659.757,247.6612 660.1219,252.8511 660.0789,258.2851 658.716,272.8531 655.9572,288.655 652.028,304.5683 646.6249,321.9457 639.9475,340.0613 634.1033,354.0604 627.7498,367.8495 620.9616,381.3573 612.668,396.6923 604.517,410.8261 595.8619,424.9271 567.6349,467.8535 558.6879,482.1407 550.7269,496.4769 547.934,502.6782 546.7824,506.463 546.9676,506.3704 548.7214,502.9375 551.4467,495.9464 558.7173,474.0884 568.0594,442.9256 586.5681,378.7522 600.0573,334.7859 610.6089,303.2536 620.6695,276.1161 626.5784,261.8258 632.2228,249.6469 637.9122,238.9152 643.4492,230.0392 648.5133,223.5468 653.1257,219.3903 655.338,218.1389 657.4175,217.4997 659.347,217.4793 660.8275,217.9397 662.9289,219.5891 664.8229,222.6713 666.2777,226.9067 667.2348,231.8582 667.7725,237.7086 667.8589,244.3946 666.6491,260.3685 663.9657,277.369 659.9993,294.5517 654.0622,314.6833 646.9244,334.7846 639.9405,351.6508 631.9948,368.7998 623.25,385.902 613.6703,403.0391 597.0706,429.9381 562.2222,481.491 554.5356,493.4721 549.4259,502.1389 543.4195,514.0186 539.8023,523.0439 538.4963,527.4609 537.757,531.3272 537.75,533.625 537.882,533.958 538.434,533.976 540.3498,531.5682 543.2894,525.191 547.2223,514.5955 551.0199,502.9883 560.5537,470.3025 583.3787,387.0612 597.9221,336.0733 611.5862,292.5076 617.7516,274.7444 623.8928,258.362 631.1132,240.8136 637.8712,226.2655 644.4862,213.9373 650.9093,203.9876 653.9045,200.1543 656.8491,196.9838 659.3836,194.7717 662.1759,192.9363 664.8293,191.8556 667.3148,191.5463 669.6033,192.0249 671.4213,193.1031 673.6612,195.663 675.6542,199.6036 677.2367,204.7386 678.3681,210.9912 678.983,217.8 679.1376,224.9246 678.8307,233.9053 678.075,243.4184 675.5139,262.0278 671.5544,281.0136 665.5231,302.9398 658.2971,324.5917 650.5633,344.3695 641.5338,364.5336 631.5402,384.3315 620.4742,403.973 609.7141,421.367 597.1324,440.2281 552.8333,502.3168 542.564,518.7319 537.0229,529.0333 532.6163,538.5139 529.2628,547.3282 526.4531,556.6094 524.2946,566.4605 523.0591,576.8967 523.0068,584.7332 523.5965,588.7687 524.3519,590.7037 525.4114,591.6476 526.8692,591.2044 527.9512,590.0332 529.3686,587.693 532.8193,579.8506 537.21,566.739 540.6343,555.2996 549.1548,523.1372 579.9765,395.3475 595.8143,333.2868 603.3708,305.7458 611.0141,279.6677 618.7916,254.9311 626.2699,232.904 634.7727,210.1542 643.076,190.4098 651.1747,173.7188 658.6507,160.901 662.6425,155.1722 666.3238,150.5941 670.1926,146.5503 673.7081,143.6147 677.107,141.522 680.3655,140.3049 683.4323,139.9935 686.4799,140.6301 688.3986,141.592 690.4382,143.1771 692.3414,145.2844 694.0974,147.9031 697.1248,154.6315 699.3261,162.7471 700.8472,172.736 701.6552,184.4007 701.7181,197.3254 701.0521,210.8948 699.7063,224.8348 697.7305,238.9061 694.9413,254.184 691.5401,269.6383 687.5674,285.1391 683.0606,300.5486 678.0575,315.7292 672.5564,330.6442 662.2007,355.3175 650.6327,379.2468 638.201,401.8092 623.8714,424.8514 609.932,445.0729 594.5098,465.6103 581.4767,481.7691 549.968,519.4333 537.7084,534.9462 525.7716,551.9395 521.4696,558.9982 517.1813,566.8469 512.3242,576.7187 508.4107,586.0801 504.7681,596.3937 501.1726,608.4453 496.777,625.8234 487.4825,670.4009 481.095,698.2443 474.7136,721.7515 467.9554,742.0471 463.7683,752.4105 459.7486,761.0608 455.8282,768.2011 451.435,774.8507 447.0436,780.2498 442.8449,784.2262 438.3371,787.2614 433.911,789.057 429.5923,789.7098 425.4096,789.3606 421.0605,788.0344 416.5464,785.572 411.894,781.9065 407.3679,777.3159 402.6792,771.5795 398.0166,764.9191 393.6146,757.6247 389.0226,748.9825 384.4302,739.2945 379.8584,728.6028 371.4883,706.0593 363.6384,680.6166 356.2992,652.0078 350.8009,625.3657 346.4924,597.3352 343.844,570.6855 343.228,559.0336 343.0317,547.8401 343.2489,537.1735 343.9042,526.7418 344.9444,517.3605 346.3793,508.7142 348.2319,500.743 350.5329,493.3546 352.8932,487.4412 355.5245,482.1385 358.5898,477.1678 361.9044,472.8751 365.556,469.148 369.3325,466.1575 373.6369,463.5894 378.1192,461.6868 383.0936,460.3435 388.1657,459.6906 393.6691,459.6713 399.6168,460.2715 405.5794,461.4657 411.4869,463.2119 417.2694,465.468 423.4497,468.4451 430.1128,472.2365 436.8229,476.6765 443.1837,481.4985 450.0445,487.3321 455.602,492.5997 460.7332,498.0642 471.7442,511.9246 475.9645,518.0544 479.6452,524.1549 483.696,531.6489 487.0649,538.7112 493.355,555.0221 497.6435,570.4678 499.3688,578.5493 501.1595,589.5312 502.7037,604.2685 503.4215,625.5122 502.9549,644.9974 501.4569,664.7188 498.2527,690.3535 493.5871,717.4561 489.1335,738.5733 483.5188,760.9277 477.0055,782.6087 470.3722,800.9605 463.4828,816.6414 460.1113,823.0097 456.8181,828.4037 453.2999,833.3646 449.6962,837.6706 446.1601,841.1368 442.7144,843.8133 439.0766,845.9257 435.3322,847.365 430.144,848.0747 427.4238,847.874 424.6166,847.2731 419.1106,844.9897 413.6755,841.3877 408.1388,836.3828 402.6225,830.052 396.9165,822.1735 391.0304,812.6988 385.2012,802.0213 379.2445,789.8025 373.4403,776.5314 367.6259,761.8956 361.7091,745.6239 355.9922,728.5456 350.2557,709.9935 345.0872,691.8604 340.2866,673.3827 335.8106,654.4555 331.7003,635.271 327.9966,616.0216 324.7999,597.2722 322.117,579.0801 320.1052,562.4128 318.5723,545.8578 317.5828,529.9468 317.1484,515.1489 317.2547,500.8311 317.904,487.7955 319.0832,475.902 320.8223,464.8142 323.0788,454.7277 325.9436,445.2976 328.4867,438.7773 331.457,432.616 334.718,427.1551 338.2175,422.4315 342.1577,418.1471 346.649,414.2744 351.3827,411.104 356.3219,408.5949 361.7748,406.6012 367.374,405.2634 373.4748,404.5005 379.8011,404.3365 386.5665,404.7639 393.3502,405.748 400.4739,407.3218 407.8663,409.4929 415.1251,412.1179 422.9582,415.4273 430.5565,419.0873 438.1966,423.2061 446.0856,427.9224 454.4242,433.3819 469.4167,444.4595 484.7409,457.9661 491.1114,464.2498 496.4772,470.0926 507.9447,483.7868 524.1337,506.0087 529.59,512.871 532.0791,515.0757 534.3721,516.3225 536.5794,516.4504 539.003,515.403 540.5938,513.9844 542.5321,511.6084 546.2746,505.2172 550.2024,496.3142 554.546,484.2673 564.3621,453.0611 586.64,375.8151 599.8529,331.9033 613.2689,291.3551 618.7741,276.1962 624.1726,262.4257 630.3823,247.9578 636.3736,235.4991 642.148,225.0011 647.7511,216.4245 652.8711,210.2941 657.4403,206.6108 659.6391,205.549 661.7294,205.0396 663.691,205.0888 665.5036,205.7028 667.8987,207.6966 669.6823,210.6191 671.2675,215.0474 672.4209,220.6003 673.1099,227.1914 673.3051,234.2656 673.0331,242.1107 672.2926,250.7156 669.545,269.355 665.2376,288.981 659.3535,309.5071 652.1039,330.3797 644.8719,348.2788 636.166,367.3296 626.914,385.5476 616.8246,403.543 606.9378,419.7361 595.5,437.25 568.4994,475.8957 555.4511,495.0646 549.0163,505.3375 543.5509,515.1157 537.1979,528.4698 533.0337,540.4199 531.2783,548.686 530.8762,553.4351 530.9861,555.3519 531.5005,557.0271 532.1481,557.5556 532.8935,557.2778 534.217,555.9167 535.6887,553.5463 538.8301,546.3909 542.125,537.625 546.5352,523.7628 556.5108,488.1822 585.5551,376.5681 597.9699,331.2809 605.5,305.75 613.0726,281.7152 620.3399,260.2944 627.5118,240.8724 635.3328,221.8609 643.2665,205.0787 650.9702,191.2802 654.5653,185.7722 658.1617,180.9413 661.6388,177.0076 665.0185,173.9352 668.2729,171.7501 671.0714,170.5638 674.01,170.1367 676.4786,170.5749 679.0,172.0 681.1465,174.2363 683.4487,178.09 685.3524,183.0965 686.8322,189.1893 687.8628,196.302 688.419,204.368 688.4908,213.1134 688.1149,222.7142 687.2873,232.9212 684.4729,253.5234 680.1543,274.5874 673.9375,297.6539 666.2929,320.839 657.683,342.9708 647.7302,365.1543 636.7089,386.7909 624.8818,407.3954 611.8384,428.0437 598.3111,447.7209 585.6137,464.8968 554.8927,505.0104 544.795,519.0788 538.5914,528.5574 532.9691,537.914 528.6377,546.0733 524.4309,555.11 521.0259,563.7292 517.6807,573.7839 515.3484,582.6276 512.82,594.23 510.3672,609.1794 503.5853,669.8506 498.9112,702.4611 494.7121,724.8111 490.9968,742.4204 486.723,759.9835 481.7031,778.2188 476.5304,794.4916 470.7732,810.1189 465.1806,822.8305 459.1823,834.2679 453.4531,842.9115 447.6175,849.4874 444.6149,852.0706 441.7985,854.0092 438.8638,855.5448 435.8008,856.6415 430.3836,857.3968 427.6421,857.2346 424.9111,856.6908 419.5304,854.5278 413.8717,850.7714 407.9029,845.2871 401.9334,838.376 396.1888,830.4093 390.1496,820.5983 383.9623,809.11 377.8307,796.3501 371.6096,782.0384 365.2696,766.0369 359.3875,749.7385 353.5939,732.2378 347.9403,713.7068 342.4783,694.3173 337.2594,674.2413 332.3421,653.6626 328.1187,634.1229 324.3978,614.9032 321.0091,595.0382 318.202,575.8653 315.9846,557.5472 314.334,539.8797 313.3421,523.9607 312.9269,508.8011 313.0784,494.4906 313.8112,480.7164 315.0709,468.3009 316.9151,456.5943 319.3011,446.0267 322.2136,436.6899 324.8473,430.1867 327.7758,424.324 331.1815,418.7739 334.8599,413.8999 338.7802,409.6777 343.1604,405.8907 347.7404,402.7787 352.7719,400.1707 358.0819,398.1604 363.9278,396.6749 369.9151,395.8183 375.9961,395.5384 382.507,395.8145 388.9933,396.6165 396.4159,398.0592 403.7869,399.9717 411.0592,402.3027 418.5375,405.1446 425.8009,408.3322 433.5338,412.1626 449.7681,421.3646 465.3051,431.8222 473.6235,438.1462 481.7384,444.8613 497.6719,459.8125 510.4844,473.7054 527.9368,494.7442 530.9597,497.8512 534.5,500.625 536.884,501.715 539.5373,501.7902 541.8824,500.8476 543.8764,499.1686 545.5929,497.1371 549.574,490.567 553.7456,481.2946 558.5598,468.5603 568.1061,439.2647 585.3666,381.3967 601.078,330.8326 613.3893,294.8638 623.0768,269.9815 628.6969,257.1533 634.2409,245.6585 639.2346,236.6372 644.1171,229.1855 648.7678,223.5176 652.8517,219.975 654.7492,218.8794 656.9045,218.1389 658.907,218.0338 660.4438,218.4385 662.6209,220.0309 664.3334,222.6438 665.8633,226.8047 666.8908,231.7637 667.4893,237.6761 667.6241,244.4727 667.3076,251.4744 666.5291,259.602 663.787,276.9652 659.5761,295.2758 653.7652,314.8942 646.7202,334.6488 639.826,351.3932 631.8257,368.7522 623.3306,385.4062 613.656,402.7072 605.7983,415.8366 597.75,428.5 559.5612,485.3189 548.8594,503.1098 543.6846,513.386 539.7619,523.3748 538.0278,530.8796 538.25,532.75 538.443,532.946 539.051,532.732 541.4018,529.0752 544.2407,522.4174 547.3967,513.6959 552.3426,498.3009 562.1613,464.351 582.3247,390.6728 597.807,336.6822 611.6299,292.8616 617.522,275.8735 623.3773,260.2148 630.4955,242.8341 637.3165,228.0054 643.9621,215.4706 650.4278,205.3094 656.1954,198.3058 659.019,195.7678 661.5865,194.049 664.3936,192.8766 666.709,192.5531 668.8657,192.8935 670.8376,193.9061 673.0593,196.2088 675.0882,200.0386 676.6641,204.9161 677.8248,210.8613 678.5404,217.801 678.7802,225.1756 678.5611,233.5605 677.8633,242.7349 675.2372,261.7766 670.9723,282.1308 665.1655,303.2065 657.9116,324.8574 649.9233,345.2145 641.0639,364.9062 630.8412,385.0393 619.4303,405.2562 609.1971,421.8448 597.8889,438.8448 584.6632,457.6267 561.2117,489.9837 553.094,501.7108 544.1629,515.8371 537.5781,527.8906 532.8936,537.9404 529.812,545.9307 526.8179,555.8609 524.8695,564.8417 523.5977,574.7322 523.7514,583.2251 524.375,586.375 524.9752,587.7493 526.0,588.5 527.3246,587.941 528.625,586.5 530.0878,584.1319 533.2663,577.0006 536.9446,566.4874 541.6064,550.9253 552.5982,508.7457 583.3787,382.0314 596.3205,331.8647 605.0554,300.4335 613.0208,273.7385 621.2959,248.1491 629.4709,225.0432 638.3791,202.5172 647.2031,183.1562 655.7187,167.4114 659.7585,161.0605 663.8077,155.5087 667.6453,151.0755 671.7339,147.2912 675.6845,144.6302 679.1536,143.2005 682.4477,142.7574 685.5386,143.3213 688.3981,144.9126 691.0755,147.6365 694.1107,152.7062 696.6208,159.4022 698.5613,167.6018 699.8411,176.7185 700.5223,186.9867 700.5684,198.4819 699.975,210.9364 698.757,224.0998 696.9873,237.4224 694.653,251.1109 691.857,264.6164 688.5482,278.2212 684.5334,292.6813 680.0808,306.9627 675.2302,320.9968 669.8834,335.062 660.0389,358.0274 648.6748,381.1762 636.3863,403.3003 623.0001,424.7362 609.4883,444.3784 595.1019,463.6184 579.9158,482.5486 551.7839,516.3819 537.8598,534.1831 526.9656,549.9779 521.9801,558.1578 517.9058,565.6188 513.4605,574.9207 509.1975,585.2365 505.7187,595.1683 502.4375,606.25 498.3519,622.9444 487.0772,678.2042 482.1251,700.0529 476.0993,722.7887 469.0602,744.2083 465.1055,754.2129 460.625,764.1562 456.556,771.8242 452.2952,778.4881 447.9078,784.0621 443.4267,788.4044 438.6692,791.6518 434.2269,793.4954 429.9257,794.1907 425.382,793.8195 420.6235,792.3136 416.3062,789.9099 411.6101,786.1606 407.0374,781.456 402.3123,775.5958 397.2576,768.2923 392.7014,760.6436 387.9556,751.5743 383.3674,741.764 378.6296,730.5688 369.8656,706.8316 361.8248,680.5457 354.4889,651.4908 348.69,622.8783 344.362,594.215 342.8403,580.4421 341.7546,567.0918 341.1741,555.384 341.0258,543.9156 341.317,533.0228 342.0666,522.3945 343.2051,512.8477 344.7998,503.7357 346.702,495.8494 349.1676,488.2554 351.7066,482.2184 354.5403,476.8446 357.8394,471.8529 361.3991,467.592 365.1266,464.0979 369.3483,461.0808 373.7938,458.7448 378.7776,456.9452 383.908,455.8399 389.5008,455.3696 395.4206,455.5938 401.7002,456.5063 407.9653,458.0412 414.5001,460.2702 420.5,462.875 427.2422,466.4023 434.0684,470.5841 440.8834,475.4028 447.3899,480.655 454.0819,486.6653 459.755,492.3153 464.9601,498.1034 470.833,505.4308 476.0235,512.5784 480.2519,519.1226 484.7268,526.9241 488.5408,534.3193 491.5273,540.9928 494.6168,548.9639 497.2083,556.739 499.9751,566.7678 501.8345,574.9358 504.7266,593.1276 505.9011,606.6196 506.5087,619.1154 506.5803,638.0872 504.9293,667.1634 503.625,680.5332 501.9799,693.0672 497.9741,718.5401 491.5482,749.8196 485.2702,775.0556 478.3922,797.9874 471.3043,817.79 467.2866,827.1445 463.449,835.16 459.6535,842.1183 455.9145,848.0201 452.0653,853.173 448.2999,857.3383 444.2933,860.8168 440.3296,863.3222 436.1058,865.027 432.1159,865.7712 427.8497,865.6335 423.6958,864.6177 418.3154,862.0898 412.6237,858.0317 406.8521,852.5771 401.3528,846.0802 395.6817,838.0487 389.8425,828.4676 383.839,817.3218 377.8762,805.0316 371.778,791.2687 366.1475,777.3493 360.2866,761.5536 354.4844,744.5938 348.6676,726.2208 343.1189,707.3227 337.6532,687.2543 332.867,668.2264 324.5738,630.6732 317.7526,593.0124 314.987,574.5407 312.7416,556.8759 311.1213,540.9616 310.0194,525.9366 309.3813,511.1363 309.2399,496.6764 309.6109,483.0404 310.485,470.2912 311.8529,458.4915 313.6555,447.9617 315.9493,438.3581 318.8496,429.3006 321.4145,422.9875 324.4156,416.9392 327.6888,411.5302 331.415,406.4975 335.1791,402.3549 339.375,398.625 343.9045,395.4357 348.9771,392.6805 354.2433,390.5665 359.6689,389.0494 365.5935,388.0389 371.6192,387.603 378.0859,387.7093 384.8425,388.3602 392.2927,389.5916 399.7028,391.303 407.0204,393.438 414.193,395.9406 429.3637,402.4884 445.7871,411.0777 461.5525,420.8652 470.7673,427.3056 479.4588,433.8888 496.2983,448.2669 505.4691,457.0542 526.5339,479.5806 533.1067,485.9746 536.4068,488.3021 538.9984,489.4164 541.956,489.5418 544.5682,488.5793 546.4773,487.1095 548.1136,485.3058 552.2028,478.7982 556.3173,470.1805 561.2629,457.5778 571.4587,427.2322 591.7082,361.9358 602.0937,329.9831 612.6279,300.2983 622.7698,274.9371 627.9336,263.4477 632.734,253.8013 637.1992,245.9024 641.6269,239.2399 645.847,234.103 649.7388,230.6796 653.0121,229.1701 654.6497,229.0315 656.168,229.369 658.3171,230.8944 659.8783,233.2189 661.1043,236.462 662.0844,241.1957 662.6213,246.5052 662.7585,252.6051 662.46,259.4236 661.7523,266.4045 658.8945,283.4361 654.6921,301.1543 649.2084,319.1587 642.1902,338.4588 636.5612,352.1176 630.4384,365.6584 623.9761,378.7814 617.0156,391.8138 607.8305,407.7374 598.5777,422.841 567.4249,470.0951 556.083,488.0549 550.7623,497.616 546.5646,506.2574 544.2269,512.4094 543.75,514.75 544.0156,515.1719 544.75,514.375 545.806,512.3614 548.3453,506.2994 556.5603,481.9481 564.7019,454.5248 585.9653,379.9561 596.9789,342.7208 610.1512,302.1549 621.0384,272.1395 627.4205,256.5844 633.572,243.1023 639.1702,232.4181 644.8731,223.1768 650.2926,216.0841 655.1915,211.4742 657.3908,210.1232 659.8208,209.2496 661.7662,209.1123 663.5654,209.5485 665.9501,211.2959 667.9641,214.4536 669.6525,219.2082 670.7673,224.8816 671.384,231.6344 671.4766,238.8736 671.0843,246.8994 670.21,255.9399 667.3449,274.0781 662.9918,292.816 656.3855,314.9244 648.592,336.4763 641.5041,353.2826 633.4475,370.4514 624.6046,387.5817 615.0533,404.5399 605.9731,419.474 595.7532,435.189 557.4003,490.8869 547.201,507.664 541.125,519.5"/>
  </g>
</svg>
