<?xml version="1.0" encoding="utf-8" ?>
<svg xmlns="http://www.w3.org/2000/svg" xmlns:cc="http://creativecommons.org/ns" xmlns:dc="http://purl.org/dc/elements/1.1/" xmlns:ev="http://www.w3.org/2001/xml-events" xmlns:inkscape="http://www.inkscape.org/namespaces/inkscape" xmlns:rdf="http://www.w3.org/1999/02/22-rdf-syntax-ns" xmlns:sodipodi="http://sodipodi.sourceforge.net/DTD/sodipodi-0.dtd" xmlns:xlink="http://www.w3.org/1999/xlink" baseProfile="tiny" height="27.09333333cm" version="1.2" viewBox="0 0 1024.0 1024.0" width="27.09333333cm">
  <metadata>
    <rdf:RDF>
      <cc:Work>
        <dc:format>image/svg+xml</dc:format>
        <dc:source>vpype read './original_svgs/Strange Attractors #410.svg' linemerge linesimplify write './Strange Attractors #410.svg'
</dc:source>
        <dc:date>2024-08-05T01:35:56.631994</dc:date>
      </cc:Work>
    </rdf:RDF>
  </metadata>
  <defs/>
  <g fill="none" id="layer1" inkscape:groupmode="layer" inkscape:label="1" stroke="black" stroke-width="0.7mm" style="display:inline">
    <polyline points="327.0,569.875 327.5,546.75 327.5,526.75 326.5,509.25 324.5,493.5 321.625,478.875 317.875,464.875 303.5,422.5 298.625,407.25 294.125,391.125 290.5,374.375 288.25,357.375 287.875,340.5 290.0,324.625 295.0,310.75 303.125,300.125 314.375,293.75 328.5,292.375 344.75,296.125 362.25,304.875 380.125,317.625 397.375,333.25 413.625,350.625 428.375,368.75"/>
    <polyline points="441.375,386.625 452.625,403.5 462.25,419.25 470.5,433.5 477.5,446.125 499.625,488.375 507.25,501.375 513.125,509.0 516.625,512.125 519.75,514.25 521.375,515.0 524.5,516.125 529.25,517.0 533.5,521.375 537.0,525.625 540.375,530.625 543.25,535.875 547.125,545.625"/>
    <polyline points="530.75,517.25 538.875,517.625 565.875,517.5 575.625,518.0"/>
    <polyline points="577.625,518.125 585.25,519.0 589.0,519.75 594.125,521.25 597.0,522.75 599.375,524.75 600.25,525.875 601.25,528.75 600.875,532.5 600.0,534.625 598.625,537.125 596.625,539.875 593.875,543.0 590.25,546.375 585.875,550.0 580.375,554.0"/>
    <polyline points="573.75,558.125 566.0,562.375 557.0,566.75 547.0,570.875 535.875,574.625 524.0,577.75 511.5,580.0 498.875,581.125 486.5,580.875 474.875,579.375 464.125,576.375 454.625,572.0 446.75,566.5 440.25,560.125 435.375,553.125 431.75,545.875 429.5,538.625 428.125,531.5 427.625,524.625 427.75,518.375 428.375,512.625 429.25,507.5 430.5,502.875 431.875,498.875 434.875,492.625"/>
    <polyline points="436.375,490.125 439.375,486.5 442.0,484.25 444.375,483.0 446.375,482.5 448.625,482.75 450.125,483.625 450.875,484.75 450.75,486.375 450.0,487.625 449.5,487.875"/>
    <polyline points="449.125,488.25 447.25,489.125 443.0,489.875 435.875,489.625 431.375,488.875 424.375,487.125 416.375,484.125"/>
    <polyline points="414.125,483.125 404.625,478.25 396.625,473.125 391.0,468.875 382.125,460.875 373.0,450.75 370.0,446.875 364.25,438.25 361.5,433.625 356.5,423.5 352.75,412.75 351.375,407.25 350.625,401.875"/>
    <polyline points="350.25,396.625 350.625,391.625 351.625,387.125 353.375,383.25 355.875,380.125 359.0,377.75 362.875,376.375 367.375,376.0 372.5,376.75 378.0,378.5 383.875,381.25 390.0,384.875 396.25,389.25 402.5,394.375 408.5,399.875 420.25,411.75 430.875,423.875 444.375,441.0 458.5,459.875"/>
    <polyline points="461.375,463.75 475.125,481.5 480.375,487.375 487.125,494.375 492.375,499.0 497.25,502.75"/>
    <line x1="497.875" x2="507.625" y1="503.25" y2="509.5"/>
    <polyline points="507.875,509.625 510.875,511.375 512.625,512.0 525.25,511.0"/>
    <line x1="525.625" x2="538.25" y1="511.0" y2="509.625"/>
    <polyline points="539.0,509.5 550.0,508.125 563.875,505.875"/>
    <polyline points="565.25,505.625 586.625,501.5 597.0,499.0 613.75,494.125"/>
    <polyline points="616.25,493.25 627.25,489.25 642.0,482.625 647.875,479.375 656.375,474.0 663.625,468.0 665.5,466.125 668.125,462.25 668.75,460.5 668.875,459.125 668.25,457.875 666.875,457.0 664.875,456.5"/>
    <polyline points="662.0,456.625 658.375,457.125 649.0,460.125 643.25,462.5 630.5,468.75 609.875,481.0 590.125,494.125 563.875,512.375 555.875,517.5 546.125,522.875 538.375,526.125"/>
    <polyline points="536.125,526.75 532.125,527.625 528.625,528.0 522.625,527.75 516.5,526.375 504.875,522.375"/>
    <polyline points="504.0,522.0 493.75,519.125 481.75,517.25"/>
    <polyline points="480.75,517.125 460.5,515.125 444.75,513.0"/>
    <polyline points="442.75,512.75 429.25,510.0 418.5,507.125 406.25,502.75 399.5,499.75 392.125,496.125 379.875,488.75 371.0,482.25 361.375,474.0"/>
    <polyline points="356.25,469.125 345.75,457.375 340.25,450.5 334.875,442.75 329.375,434.125 324.0,424.5 319.0,414.125 314.375,402.75 310.375,390.625 307.375,377.875 305.625,365.0 305.375,352.25 307.0,340.375 310.875,329.875 317.0,321.75 325.375,316.625 336.0,314.75 348.25,316.625 361.75,322.0 375.75,330.625 389.875,341.625 403.5,354.5 416.375,368.5 428.125,382.75 438.75,396.875"/>
    <polyline points="448.125,410.25 456.5,422.875 470.25,444.875 489.0,476.0 495.625,486.25 501.25,493.875 503.75,496.875 508.375,501.625 514.625,506.375 520.5,509.25 524.25,510.5 529.75,511.75"/>
    <polyline points="531.625,512.0 539.125,512.625 552.75,512.75 584.0,511.25"/>
    <polyline points="586.5,511.125 617.125,509.625 632.5,509.875 641.75,510.75 647.625,511.875 653.0,513.75 655.375,515.125 657.375,516.75"/>
    <polyline points="659.125,518.75 660.125,521.25 660.5,524.375 660.0,528.125 658.375,532.75 655.25,538.375 650.125,545.25 642.5,553.375 632.0,563.125 617.625,574.25 598.875,586.875 575.375,600.25 546.875,613.5 514.25,625.125 479.0,633.25 443.875,636.0 411.625,632.0 384.625,621.25 364.125,604.75 350.125,584.375 341.625,562.125 337.125,539.625 335.5,518.0 335.5,498.125 336.625,480.0 338.125,464.0"/>
    <polyline points="340.125,449.75 342.25,437.375 344.5,426.625 347.125,417.375 350.0,409.625 353.25,403.125 356.875,398.125 360.875,394.25 365.375,391.75 370.125,390.5 375.25,390.375 380.625,391.25 386.25,393.125 392.0,396.0 397.75,399.5 403.375,403.5 409.0,408.125 414.375,412.875 424.625,423.125 438.0,438.375 448.875,452.0"/>
    <polyline points="452.125,456.0 467.0,475.25 474.125,483.875 479.625,490.125 489.375,500.125"/>
    <polyline points="489.875,500.75 494.0,505.375 494.75,507.375 494.625,508.375 493.75,509.375 491.5,510.375 484.625,511.375"/>
    <polyline points="484.0,511.5 468.875,511.75 458.5,511.125"/>
    <polyline points="457.125,511.0 443.375,509.375 437.25,508.25 425.625,505.5 414.75,502.125 402.375,497.0 398.875,495.25"/>
    <polyline points="395.375,493.375 387.875,489.125 375.5,480.5 366.625,472.875 361.875,468.375 352.125,457.875 347.125,451.625 342.125,444.75 337.125,437.125 332.25,428.75 327.625,419.625 323.25,409.75 319.5,399.25 316.375,388.125 314.25,376.875 313.375,365.5 313.875,354.625 316.25,344.875 320.375,336.5 326.5,330.375 334.5,326.75"/>
    <polyline points="344.25,326.125 355.25,328.5 367.25,333.75 379.75,341.625 392.25,351.5 404.25,362.875 415.75,375.0 426.375,387.625 436.0,400.0 444.75,412.0 452.5,423.25 484.125,472.5 490.875,482.375 499.25,493.0 504.125,497.875 508.5,501.5"/>
    <polyline points="510.625,503.0 516.5,506.25 522.25,508.25 527.75,509.5 536.875,510.625 544.375,510.875 558.25,510.5"/>
    <polyline points="560.375,510.375 578.375,509.0 596.625,507.0 628.625,502.375"/>
    <polyline points="632.375,501.75 648.375,498.875 661.875,496.0 676.875,492.125 688.125,488.75 694.125,486.75 707.0,481.75 714.125,478.625 729.5,470.875 737.875,465.875 746.75,460.0 756.125,453.125 765.875,445.0 775.75,435.5 785.25,424.5 793.75,412.25"/>
    <polyline points="799.75,399.0 801.875,386.0 797.625,374.875 785.125,367.875 763.125,367.625 732.0,376.0 694.625,393.5 654.875,418.25 617.0,447.375 583.875,478.125 556.75,507.75 536.0,535.0 521.0,559.25 510.875,580.125 505.0,598.0 502.375,613.125 502.5,625.5 504.625,635.5 508.5,643.25 513.375,648.875 519.125,652.375 525.25,654.0 531.375,653.75 537.5,651.75 543.25,648.125 548.5,643.375"/>
    <polyline points="553.0,637.375 556.875,630.625 560.125,623.25 562.625,615.625 564.625,607.875 566.75,592.625 567.25,578.5 567.0,572.125 565.875,560.75 563.125,547.0 561.125,540.0 558.0,532.0 556.0,527.875 552.5,522.125"/>
    <polyline points="551.75,521.0 546.0,513.375 545.75,511.75 546.125,511.0 546.875,510.5"/>
    <polyline points="547.125,510.25 551.75,508.5 564.5,505.625"/>
    <polyline points="565.625,505.5 589.0,500.25 598.5,497.75 607.0,495.125"/>
    <polyline points="609.25,494.375 621.0,490.25 628.5,487.125 638.625,482.125 645.875,477.875 650.25,474.75 655.625,470.125 656.875,468.625 658.25,465.875 658.375,464.75 658.0,463.875"/>
    <polyline points="657.25,463.125 655.75,462.75 651.375,463.0 644.625,464.875 636.0,468.25 625.875,473.25 609.5,482.5 567.125,509.5 557.375,515.125 554.5,516.5"/>
    <polyline points="551.875,517.75 543.125,521.0 534.875,522.375 527.75,521.875 523.25,520.75 519.75,519.375"/>
    <polyline points="519.125,519.25 512.875,516.625 507.875,515.0"/>
    <polyline points="507.5,514.875 502.625,514.0 498.125,513.75"/>
    <line x1="497.75" x2="482.5" y1="513.75" y2="513.5"/>
    <polyline points="481.625,513.5 466.0,512.875 451.0,511.5"/>
    <polyline points="449.25,511.25 439.625,509.75 430.75,507.875 420.5,505.125 411.875,502.125 402.25,498.125 395.25,494.625 387.625,490.375 379.5,484.875"/>
    <polyline points="375.25,481.75 370.75,478.125 361.375,469.75 351.5,459.125 346.375,452.875 336.0,438.125 331.0,429.625 326.125,420.25 321.625,410.125 317.625,399.375 314.375,387.875 312.0,376.125 311.0,364.375 311.5,353.0 313.75,342.75 318.0,334.0 324.25,327.375 332.625,323.625 342.75,322.875 354.25,325.375 366.625,330.875 379.625,339.125 392.5,349.5"/>
    <polyline points="405.0,361.375 416.75,374.125 427.625,387.125 437.5,400.0 446.375,412.375 454.25,424.0 467.375,444.375 485.875,473.875 495.5,487.875 503.25,496.875 507.875,501.0 514.0,505.25 519.875,507.875"/>
    <polyline points="521.75,508.5 529.25,510.25 540.375,511.25 554.0,511.25 571.25,510.25"/>
    <polyline points="573.5,510.0 605.25,507.0 635.375,503.375 651.125,501.125"/>
    <polyline points="655.375,500.625 688.625,495.25 711.5,490.375 724.5,487.0 739.0,482.5 746.875,479.625 764.5,472.0 774.5,466.75 785.25,460.5 797.125,452.5 810.125,442.5 824.125,430.0 838.875,414.375 853.125,395.5"/>
    <polyline points="865.0,373.5 870.5,349.875 864.125,328.875 839.625,316.625 794.375,320.75 732.5,345.0 664.75,386.625 602.5,437.875 552.875,490.75 517.75,540.375 496.125,584.625 485.75,623.25 484.625,656.625 491.0,685.125 503.375,708.5 520.0,726.5 539.5,738.0 560.125,742.625 580.25,740.0 598.5,730.625 614.0,715.375 626.25,696.0 635.125,674.125 641.25,651.375 645.0,629.125 646.875,608.25"/>
    <polyline points="647.375,589.25 646.875,572.375 645.625,557.75 644.0,545.125 641.875,534.625 639.5,525.75 636.875,518.625 634.0,512.75 631.0,508.125 627.875,504.625 624.625,501.875 621.375,500.0 618.0,498.625 611.0,497.625 604.0,498.125 597.25,499.5 587.75,502.375 576.5,506.5"/>
    <polyline points="574.125,507.375 563.625,511.125 557.25,512.875 550.375,513.875 547.25,513.875 544.25,513.25"/>
    <polyline points="544.0,513.125 543.0,512.625 542.75,512.125 542.875,511.5 545.0,510.125 547.25,509.375"/>
    <polyline points="547.875,509.25 551.625,508.25 571.125,504.375"/>
    <polyline points="572.5,504.125 585.0,501.375 598.25,498.0 613.875,493.125 621.25,490.375"/>
    <polyline points="623.75,489.375 629.0,487.25 636.75,483.5 642.0,480.75 649.375,476.125 653.75,472.875 657.25,469.625 659.625,466.5 660.5,463.875 660.125,462.875 659.375,462.125 657.875,461.625 655.875,461.5 653.375,461.75 646.375,463.625"/>
    <polyline points="642.0,465.25 626.625,472.375 609.375,482.25 565.625,510.625 558.75,514.625 550.125,519.0 543.25,521.625 539.375,522.625"/>
    <polyline points="537.625,523.0 534.375,523.375 530.25,523.375 526.75,523.0 519.375,521.0 513.375,518.625"/>
    <polyline points="512.75,518.5 507.125,516.5 500.375,515.125"/>
    <polyline points="499.875,515.0 495.75,514.5 484.375,514.0"/>
    <polyline points="483.625,514.0 468.5,513.375 454.375,512.125"/>
    <polyline points="452.75,512.0 441.625,510.375 430.5,508.125 414.625,503.5 401.875,498.25 391.125,492.75 387.25,490.375"/>
    <polyline points="383.25,487.875 374.625,481.75 365.5,474.125 355.75,464.5 350.75,458.875 345.625,452.5 340.375,445.5 335.25,437.625 330.125,429.0 325.25,419.5 320.75,409.25 316.75,398.25 313.5,386.75 311.25,374.75 310.25,362.875 310.875,351.5 313.375,341.125 317.875,332.5 324.375,326.0 333.0,322.5 343.25,322.0 355.0,324.875 367.75,330.75"/>
    <polyline points="380.75,339.375 393.875,350.0 406.375,362.125 418.125,375.125 429.0,388.25 447.625,413.625 462.25,436.0 490.125,480.125 496.25,488.625 501.5,494.875 506.25,499.625 510.5,503.125 516.625,506.625"/>
    <polyline points="518.5,507.5 522.375,508.875 529.75,510.5 539.125,511.375 550.625,511.5 567.5,510.625"/>
    <polyline points="569.75,510.5 606.25,507.25 644.0,503.0"/>
    <polyline points="648.0,502.5 714.625,494.75 744.0,492.125 762.5,491.5 774.625,492.25 780.25,493.25"/>
    <polyline points="785.5,494.875 790.0,497.5 793.375,501.375 795.0,507.25 793.75,515.75 788.25,528.25 775.875,546.5 752.875,572.375 713.25,608.5 649.25,655.75 555.0,709.75 434.25,755.75 310.375,770.25 215.75,739.125 163.875,672.25 144.125,590.25 139.375,507.375 139.375,428.25 141.0,352.875 146.25,281.5 159.625,217.25 186.0,167.875 227.0,142.625 279.5,147.0 335.75,178.625 387.625,228.5"/>
    <polyline points="429.75,285.375 460.625,341.125 480.625,391.25 491.375,433.875 494.75,469.125 492.125,497.375 485.125,519.5 475.0,536.25 463.0,547.875 450.375,555.0 438.0,558.0 426.75,557.5 417.25,553.875 409.625,548.0 404.0,540.625 400.125,532.25 397.875,523.375 397.0,514.75 397.125,506.375 398.0,498.625 399.375,491.625 401.0,485.5 403.0,480.125 405.125,475.5 409.375,468.5"/>
    <polyline points="411.5,466.0 415.625,462.5 419.375,460.625 422.75,460.125 425.875,460.375 429.75,462.0 433.625,465.0 436.125,468.375 437.375,471.5 437.5,472.875"/>
    <polyline points="437.5,473.5 437.125,475.125 436.5,476.125 435.5,476.875 433.75,477.625 431.375,478.0 428.375,478.0 423.625,477.125 416.375,474.625"/>
    <polyline points="414.75,473.875 405.75,468.875 397.75,463.125 391.5,457.5 383.0,448.0 377.125,439.375 373.75,433.125 370.875,426.5 369.0,419.875"/>
    <polyline points="368.375,416.625 368.125,413.5 368.625,407.75 369.375,405.25 372.125,401.5 374.125,400.25 376.375,399.5 379.0,399.125 382.0,399.375 388.75,401.5 392.375,403.25 400.0,408.125 403.875,411.0 411.625,417.75 422.625,428.875 435.25,443.75"/>
    <polyline points="438.0,447.25 443.125,453.75 453.125,467.375 462.125,480.625 465.875,487.0 467.625,490.75 468.0,492.375"/>
    <polyline points="468.125,493.125 468.25,495.625 467.625,497.125 466.25,498.75 461.875,500.625 455.0,501.5"/>
    <polyline points="453.875,501.5 450.0,501.5 444.125,501.0 437.25,500.0 431.375,498.75 422.5,496.25 417.5,494.5 412.25,492.375 403.625,488.25"/>
    <polyline points="400.5,486.625 390.625,480.375 383.5,475.125 376.0,468.75 368.125,461.0 360.0,451.625 352.0,440.375 348.0,434.0 344.25,427.25 340.75,420.0 337.625,412.25 335.0,404.25 332.875,396.0 331.5,387.75 331.0,379.625 331.5,371.875 333.25,364.875 336.125,359.0 340.375,354.375"/>
    <polyline points="345.875,351.375 352.5,350.25 360.125,351.0 368.5,353.625 377.375,358.0 386.625,364.0 395.875,371.25 404.875,379.5 413.625,388.25 421.875,397.375 436.625,415.625 449.125,432.375 471.875,465.0 481.5,478.0 489.25,487.25 491.625,489.625"/>
    <polyline points="493.75,491.75 495.875,493.75 501.625,498.25 506.875,501.5 510.125,503.125 514.875,505.0 520.75,506.625 529.25,508.0 533.5,508.25"/>
    <polyline points="535.0,508.375 546.75,508.375 556.375,507.75 577.0,505.125"/>
    <polyline points="579.125,504.75 598.125,501.25 621.5,495.375 635.375,490.875 654.875,482.875"/>
    <polyline points="659.0,480.75 667.625,476.125 676.25,470.75 684.625,464.5 692.125,457.5 695.25,453.875 697.75,450.25 699.375,446.75 700.0,443.5 699.375,440.625 697.375,438.5 693.625,437.25 688.25,437.125 681.125,438.375 672.375,441.0 662.25,445.125 651.0,450.625 639.125,457.25 627.0,464.75 615.0,472.875 592.625,489.75"/>
    <polyline points="582.5,497.75 540.625,533.625 532.25,540.125 525.625,544.375 522.875,545.875 518.125,547.75 512.25,548.625 508.875,548.25 505.75,547.5 498.75,544.375"/>
    <polyline points="497.5,543.75 486.75,538.5 478.25,535.375 472.25,533.625 460.5,531.125"/>
    <polyline points="458.75,530.75 420.0,524.875 407.5,522.25 393.125,518.25"/>
    <polyline points="389.125,516.875 380.75,513.625 371.375,509.25 361.25,503.625 355.75,500.125 343.75,491.375 337.25,485.875 330.5,479.5 323.375,472.0 315.75,463.25 308.0,453.0 299.875,441.125 291.625,427.25 283.5,411.375 275.75,393.125 268.75,372.875 263.375,350.625 260.25,327.125 260.5,303.875 265.125,282.25 274.875,264.875 289.875,253.75"/>
    <polyline points="309.625,250.75 333.0,256.5 358.125,270.25 383.25,290.375 406.75,314.375 427.625,340.25 445.625,365.875 460.625,390.25 472.75,412.25 482.375,431.875 490.0,448.875 495.875,463.5 503.75,486.125 508.125,501.875 509.375,507.75 511.125,519.375 511.5,527.125"/>
    <polyline points="511.5,527.375 514.75,525.0 520.375,522.25 529.375,519.75 535.375,518.875"/>
    <polyline points="537.0,518.75 548.625,517.75 557.75,517.5 571.125,517.625 582.75,518.625"/>
    <polyline points="584.625,518.875 590.25,519.875 595.25,521.625 599.25,524.125 600.25,525.25 601.5,528.0 601.5,531.5 600.875,533.625 598.0,538.625 592.375,544.875 588.25,548.375 577.0,556.375 569.75,560.625 561.25,565.0 551.625,569.25"/>
    <polyline points="540.875,573.25 529.125,576.75 516.75,579.375 504.125,581.0 491.5,581.5 479.375,580.5 468.125,578.0 458.0,574.25 449.375,569.125 442.25,563.0 436.625,556.25 432.5,549.0 429.75,541.625 428.0,534.25 427.125,527.25 427.0,520.75 427.5,514.75 429.5,504.375 432.25,496.5 433.75,493.375 436.75,488.625 439.625,485.375"/>
    <polyline points="441.0,484.25 444.375,482.375 446.25,482.125 447.75,482.25 449.75,483.375 450.25,484.625 450.0,486.25 448.625,487.75 446.875,488.5"/>
    <polyline points="446.125,488.75 442.625,489.375 438.125,489.375 435.5,489.125 427.75,487.625 422.375,486.0 414.0,482.75 407.0,479.125"/>
    <polyline points="404.625,477.75 402.0,476.25 393.875,470.625 385.25,463.375 382.375,460.5 376.375,454.0 370.375,446.625 364.625,438.125 361.875,433.375 357.125,423.5 355.125,418.25 353.375,412.875 352.125,407.5 351.375,402.25 351.125,397.125 351.375,392.25 352.5,387.875 354.125,384.125"/>
    <polyline points="356.625,381.0 359.75,378.75 363.5,377.375 368.0,377.0 372.875,377.75 378.375,379.5 384.125,382.125 390.125,385.75 396.25,390.0 402.375,394.875 414.25,406.0 425.25,418.0 430.25,423.875 443.75,440.75 468.125,473.25"/>
    <polyline points="470.375,476.0 476.125,483.125 482.375,490.125 490.375,497.875 498.375,504.25"/>
    <polyline points="499.0,504.625 505.0,509.125 506.25,510.625 506.25,511.25 505.5,511.75 501.125,512.375"/>
    <line x1="500.75" x2="490.625" y1="512.375" y2="512.875"/>
    <polyline points="490.0,512.875 477.375,513.0 468.875,512.625"/>
    <polyline points="467.625,512.625 458.125,512.0 442.5,510.0 431.75,507.875 421.75,505.125"/>
    <polyline points="419.0,504.375 410.25,501.25 400.375,497.0 393.25,493.25 385.5,488.625 377.25,482.875 368.375,475.75 363.625,471.5 353.875,461.375 343.75,448.875 338.625,441.5 333.625,433.375 328.625,424.5 324.0,414.75 319.75,404.25 316.25,393.125"/>
    <polyline points="313.5,381.625 311.875,369.875 311.625,358.5 313.125,347.75 316.375,338.25 321.75,330.75 329.125,325.75 338.375,323.625 349.125,324.625 361.125,328.75 373.75,335.75 386.625,345.125 399.25,356.25 411.25,368.5 422.5,381.375 432.75,394.25 450.375,418.625 490.75,481.5"/>
    <polyline points="493.875,485.75 499.375,492.625 504.25,497.75 508.625,501.625 512.75,504.5 518.625,507.375 524.25,509.125 529.875,510.25 535.375,510.875 544.875,511.25"/>
    <polyline points="546.75,511.25 556.75,511.0 574.25,509.875 597.5,507.625 606.25,506.5"/>
    <polyline points="609.375,506.25 636.875,502.625 666.375,497.875 676.125,496.0 692.125,492.5 703.875,489.375 724.0,483.0"/>
    <polyline points="731.5,480.0 739.5,476.625 748.0,472.5 757.25,467.5 767.25,461.5 778.125,454.25 789.75,445.25 802.0,434.25 814.625,421.0 826.625,405.25 836.625,387.375 841.875,368.5 838.625,351.125 822.875,339.375 791.875,338.375 746.5,351.5 692.5,379.125 638.0,417.125 589.875,459.875 551.625,502.375 523.875,541.625 505.75,576.5 495.75,606.75 492.5,632.75 494.625,654.75 500.875,672.875"/>
    <polyline points="510.5,687.25 522.5,697.5 535.75,703.375 549.5,705.0 562.75,702.375 575.0,695.75 585.75,685.625 594.625,673.0 601.625,658.625 606.875,643.375 610.5,628.0 612.75,612.875 613.875,598.625 614.25,585.5 614.0,573.625 613.25,563.0 612.125,553.625 610.75,545.5 609.125,538.5 607.5,532.375 604.0,522.875 600.5,516.25 597.0,511.625"/>
    <polyline points="595.25,510.0 593.625,508.625 590.375,506.625 587.25,505.5 583.125,504.75 579.5,504.625 569.5,505.5"/>
    <polyline points="569.125,505.5 568.5,505.5 568.375,505.25 570.25,504.375 576.125,502.625"/>
    <polyline points="576.875,502.375 596.0,496.875 608.125,492.625"/>
    <polyline points="609.75,492.0 619.625,487.875 630.25,482.125 634.625,478.875 636.0,477.375 636.75,475.75 636.125,475.0 635.375,474.875"/>
    <polyline points="634.5,474.875 632.0,475.25 628.375,476.375 618.875,480.25 610.25,484.5 579.125,501.75 572.5,505.125"/>
    <polyline points="570.5,506.0 562.25,509.625 555.25,511.625 549.875,512.0 547.875,511.25 548.125,510.375 550.125,509.25 556.375,507.5"/>
    <line x1="557.125" x2="588.0" y1="507.25" y2="500.375"/>
    <polyline points="589.75,499.875 605.5,495.5 619.125,490.75 631.375,485.5 638.75,481.75 645.625,477.5"/>
    <polyline points="647.75,476.0 651.625,473.0 654.625,470.125 655.625,468.75 656.75,466.25 656.75,465.25 656.125,464.375 655.125,463.875 653.625,463.625 649.0,464.125 642.125,466.125 633.625,469.75 618.625,477.375 608.0,483.625 592.625,493.25"/>
    <polyline points="587.75,496.375 564.0,511.25 550.25,518.125 546.0,519.625 539.0,521.25 533.5,521.5 529.25,521.0"/>
    <polyline points="528.25,520.875 520.375,518.375 514.5,515.75"/>
    <line x1="514.125" x2="507.75" y1="515.5" y2="513.5"/>
    <polyline points="507.5,513.5 504.375,513.125 500.875,513.125"/>
    <line x1="500.625" x2="489.0" y1="513.125" y2="513.25"/>
    <polyline points="488.375,513.25 476.375,513.125 465.0,512.625"/>
    <polyline points="463.75,512.5 451.625,511.375 436.0,508.875 421.375,505.25 412.875,502.375"/>
    <polyline points="409.875,501.125 403.375,498.5 392.75,493.125 385.0,488.5 372.25,479.25 363.0,471.0 353.25,460.875 348.125,454.875 343.0,448.125 337.875,440.625 332.875,432.5 328.0,423.375 323.375,413.625 319.125,403.0 315.625,391.75 313.0,380.125 311.5,368.375 311.5,357.0"/>
    <polyline points="313.125,346.25 316.75,337.0 322.25,329.75 329.875,325.0 339.375,323.25 350.375,324.625 362.5,329.125 375.25,336.5 388.125,346.125 400.75,357.5 412.75,369.875 423.875,382.875 434.125,395.75 443.25,408.25 451.375,420.125 465.125,441.125 480.25,465.5 491.25,482.125 499.75,493.125"/>
    <polyline points="502.25,495.875 506.875,500.25 511.125,503.375 517.125,506.75 522.75,508.75 528.375,510.0 533.875,510.75 541.375,511.25 551.125,511.25"/>
    <polyline points="553.125,511.125 570.125,510.25 582.125,509.25 616.375,505.5"/>
    <polyline points="619.625,505.125 645.375,501.625 667.125,498.125 687.125,494.375 698.25,491.875 710.5,488.625 723.875,484.5 731.25,482.0 747.375,475.25"/>
    <polyline points="756.375,470.875 766.125,465.5 776.625,459.0 788.125,450.875 800.5,440.875 813.5,428.625 826.75,413.75 839.125,396.25 848.375,376.5 851.25,356.25 843.125,339.125 819.625,330.375 778.875,335.625 724.75,357.25 665.5,393.25 610.125,437.5 564.5,483.75 530.625,527.625 507.875,567.125 495.0,601.75 490.0,631.5 491.5,657.0 498.25,678.25 508.875,695.25 522.375,707.625 537.625,715.125"/>
    <polyline points="553.5,717.375 568.875,714.625 583.0,707.0 595.125,695.25 605.125,680.5 612.75,663.875 618.25,646.25 622.0,628.625 624.125,611.75 625.125,596.0 625.25,581.5 624.625,568.75 623.5,557.375 622.125,547.625 620.5,539.125 618.625,532.0 616.625,525.875 614.625,520.875 610.375,513.25 608.25,510.5 604.0,506.625 601.875,505.25 597.625,503.625"/>
    <polyline points="595.625,503.125 591.625,502.75 586.0,503.0 579.5,504.125 569.0,506.625 564.5,507.375"/>
    <polyline points="564.125,507.375 563.0,507.375 562.75,507.0 564.625,506.0 569.0,504.625"/>
    <polyline points="569.75,504.5 589.25,499.25 600.125,496.0"/>
    <polyline points="601.75,495.375 616.375,490.125 627.75,484.875 636.25,479.875 641.125,475.875 642.5,474.125"/>
    <polyline points="642.875,473.375 642.75,472.125 642.25,471.75 641.5,471.5 638.875,471.625 632.625,473.25 623.875,476.875 609.875,484.0 579.0,501.875"/>
    <polyline points="576.125,503.5 564.125,509.625 555.25,513.125 547.875,514.75 544.375,514.875 541.375,514.375"/>
    <polyline points="541.0,514.25 539.125,513.5 538.625,512.875 538.625,512.25 539.875,511.125 541.125,510.625"/>
    <polyline points="597.875,506.375 579.5,508.625 563.5,510.0 549.25,510.625 541.5,510.5 548.75,508.625 559.625,506.625"/>
    <polyline points="560.75,506.375 585.0,501.5 600.875,497.375"/>
    <polyline points="603.125,496.75 612.375,493.875 625.125,489.25 638.625,483.125 646.625,478.625 654.0,473.625 656.25,471.875 659.875,468.375 662.25,465.125"/>
    <polyline points="662.875,463.625 663.0,462.375 662.5,461.25 661.5,460.5 657.5,460.0 651.0,461.375 646.75,462.75 642.0,464.5 636.75,466.875 619.25,476.125 607.0,483.5 570.25,507.75 558.75,514.875"/>
    <polyline points="555.5,516.75 544.625,522.0 540.25,523.375 534.625,524.5 531.5,524.75 527.375,524.625 522.75,523.75 516.25,521.875"/>
    <polyline points="515.5,521.5 507.125,518.5 499.25,516.5"/>
    <polyline points="498.625,516.375 491.5,515.375 480.0,514.625"/>
    <polyline points="479.125,514.625 458.125,513.125 444.25,511.25"/>
    <polyline points="442.25,511.0 428.875,508.25 421.125,506.125 412.5,503.25 399.375,497.75 388.25,491.75 380.125,486.5 371.25,479.875 361.875,471.5"/>
    <polyline points="356.875,466.625 346.625,455.0 341.375,448.125 336.125,440.375 331.0,432.0 326.0,422.625 321.25,412.5 317.0,401.5 313.375,389.875 310.75,377.875 309.375,365.75 309.375,353.875 311.25,342.875 315.25,333.5 321.25,326.125 329.375,321.625 339.5,320.25 351.125,322.25 363.75,327.375 377.0,335.5 390.375,345.875 403.25,357.875 415.375,371.0 426.625,384.375 436.875,397.625"/>
    <polyline points="446.0,410.5 461.25,433.5 490.0,479.375 499.0,491.75 506.25,499.625 508.5,501.625 512.75,504.625 514.75,505.875 520.5,508.5 528.0,510.375"/>
    <polyline points="529.875,510.75 539.25,511.625 550.875,511.75 559.0,511.5 581.875,510.0"/>
    <polyline points="584.375,509.75 636.125,505.0 667.375,503.0"/>
    <polyline points="671.5,502.875 684.125,503.125 688.25,503.5 692.375,504.0 700.0,505.75 703.375,507.25 706.375,509.125 708.875,511.75 710.375,515.25 710.75,519.75 709.5,525.625 706.0,533.5 699.25,543.5 688.25,556.5 671.125,572.875 646.25,593.0 611.375,616.625 565.25,642.125 508.625,665.75 445.625,681.75 384.375,684.375 333.125,670.75 296.875,642.5"/>
    <polyline points="275.375,604.875 264.75,563.75 260.875,522.875 260.5,484.5 261.625,449.125 263.625,417.0 266.625,388.0 270.75,362.125 276.875,339.75 285.5,321.625 296.75,308.625 310.875,301.125 327.25,299.75 345.25,304.25 363.875,313.75 382.375,327.375 399.875,343.75 415.875,361.5 430.0,379.625 442.375,397.125 453.0,413.625 461.875,428.75 475.625,454.125 485.25,473.375"/>
    <polyline points="489.0,480.875 494.875,492.875 501.375,504.375 504.875,509.0 508.0,512.125 511.0,514.125 515.375,515.875 518.375,516.375 524.5,516.75 532.625,516.5"/>
    <polyline points="534.25,516.5 568.25,515.375 583.5,515.5"/>
    <polyline points="585.625,515.625 599.125,516.75 603.375,517.5 607.375,518.625 611.0,520.25 614.0,522.375 615.125,523.625 616.625,527.0 616.25,531.625 615.25,534.375 613.375,537.625 610.75,541.25 607.0,545.375 602.125,550.0 595.75,555.25"/>
    <polyline points="587.875,560.875 578.125,566.75 566.75,573.0 553.375,579.125 538.375,584.75 522.0,589.625 504.75,593.125 487.25,594.75 470.25,594.375 454.5,591.5 440.625,586.375 429.0,579.125 419.75,570.375 412.875,560.5 408.125,550.125 405.125,539.625 403.5,529.375 403.125,519.875 403.375,511.0 404.25,503.125 406.875,490.0 410.125,480.125 413.25,473.125"/>
    <polyline points="414.75,470.5 417.5,466.75 418.75,465.5 420.875,463.75 422.75,463.0 424.25,462.875 425.5,463.125 426.75,464.125 427.375,465.625 427.375,466.375 426.125,467.875"/>
    <polyline points="425.75,468.125 424.125,468.5 420.5,468.25 417.625,467.5 413.375,465.75 410.875,464.5 405.625,461.125 400.0,456.625"/>
    <polyline points="398.5,455.25 392.875,449.125 388.875,443.75 386.5,440.0 384.5,436.0 382.375,430.0 381.625,424.375 382.0,421.25 382.5,419.875 384.125,417.75 385.25,417.0 388.0,416.125"/>
    <polyline points="389.625,416.125 391.5,416.375 395.5,417.75 400.0,420.0 407.125,425.0 411.875,429.0 416.625,433.5 425.25,442.875 432.5,452.0 439.375,461.75"/>
    <polyline points="440.5,463.5 445.25,472.25 446.5,475.75 447.125,479.375 446.875,481.625 446.0,483.375 444.0,485.0 442.5,485.625"/>
    <polyline points="441.75,485.875 439.0,486.25 431.75,485.875 422.25,483.5 412.375,479.375 407.875,477.125 400.75,472.75"/>
    <polyline points="398.25,471.0 393.125,467.0 385.0,459.75 379.5,453.875 374.0,447.125 368.75,439.5 363.875,431.0 359.875,421.75 358.25,417.0 356.125,407.5 355.75,403.0 355.875,398.625 356.5,394.625 357.75,391.0 359.625,388.0 362.125,385.625 365.125,384.0"/>
    <polyline points="368.75,383.25 372.875,383.375 377.5,384.25 382.375,386.125 387.625,388.75 393.0,392.0 398.5,395.875 409.25,405.25 424.5,420.875 433.5,431.5 448.375,450.5 468.125,476.75"/>
    <polyline points="469.875,479.0 479.625,490.75 488.25,500.25 490.875,503.75"/>
    <polyline points="491.125,504.125 491.875,505.75 491.75,507.5 490.375,508.875 488.375,509.625"/>
    <polyline points="488.0,509.75 484.0,510.625 479.875,511.0 469.875,511.25"/>
    <polyline points="468.75,511.125 462.625,511.0 447.125,509.5 437.375,507.875 425.875,505.125"/>
    <polyline points="423.25,504.375 415.0,501.75 405.875,498.125 399.25,495.0 392.125,491.125 384.375,486.25 376.0,480.25 367.125,472.75 362.5,468.375 352.875,457.875 348.0,451.875 338.0,437.5 333.25,429.25 328.625,420.25 324.25,410.625"/>
    <polyline points="320.5,400.25 317.375,389.375 315.25,378.125 314.25,367.0 314.75,356.375 316.875,346.5 320.875,338.25 326.75,332.0 334.5,328.25 343.875,327.375 354.625,329.375 366.375,334.25 378.625,341.75 390.875,351.25 402.875,362.25 414.25,374.25 424.875,386.625 434.5,398.875 451.125,422.0 483.125,471.375"/>
    <polyline points="486.625,476.75 495.75,489.125 498.375,492.125 503.25,497.125 509.75,502.375 515.75,505.75 521.375,507.875 527.0,509.25 536.125,510.375 539.75,510.5"/>
    <polyline points="600.75,506.0 630.5,501.5 646.375,498.375 664.625,494.0 674.875,491.125 692.0,485.25 712.0,476.5"/>
    <polyline points="719.375,472.625 727.25,468.125 735.5,462.875 744.125,456.75 753.125,449.625 762.125,441.25 771.0,431.75 779.0,421.125 785.375,409.75 788.875,398.125 787.875,387.375 780.375,379.25 765.375,375.875 742.125,379.125 712.0,389.875 677.625,407.75 642.5,431.125 609.375,457.625 580.625,484.75 556.875,510.625 538.375,534.375 524.75,555.375 515.125,573.625 509.0,589.0 505.625,602.0 504.5,612.75"/>
    <polyline points="505.125,621.375 507.125,628.0 510.125,633.0 513.875,636.375 518.0,638.25 522.375,638.625 526.875,637.75 531.125,635.625 535.125,632.5 538.75,628.625 542.0,623.875 544.75,618.625 547.125,613.0 548.875,607.25 550.375,601.25 552.0,589.375 552.375,583.75 552.25,573.125 550.625,559.5 548.125,548.625"/>
    <polyline points="528.875,516.75 526.75,514.125 526.625,513.125 527.375,512.25"/>
    <polyline points="527.625,512.125 531.125,511.0 536.75,510.125"/>
    <line x1="537.375" x2="559.0" y1="510.0" y2="506.75"/>
    <polyline points="560.125,506.5 572.625,504.375 584.5,501.875 603.25,497.125"/>
    <polyline points="605.625,496.5 615.625,493.375 623.625,490.5 637.875,484.375 646.625,479.75 652.25,476.375 659.875,470.75 665.625,465.0 667.375,461.5"/>
    <polyline points="667.625,460.0 667.125,458.75 666.0,457.875 664.125,457.375 661.625,457.25 658.25,457.75 654.125,458.75 644.0,462.5 631.75,468.375 618.5,475.875 605.0,484.25 566.0,510.875 557.875,516.125 551.0,520.125"/>
    <polyline points="547.875,521.75 540.0,525.125 535.625,526.375 530.125,527.25 525.5,527.25 522.75,526.875 515.75,525.25 510.0,523.25"/>
    <polyline points="509.125,522.875 496.875,519.0 488.625,517.5"/>
    <line x1="487.75" x2="458.375" y1="517.375" y2="514.375"/>
    <polyline points="456.75,514.25 440.0,511.875 431.0,510.0 423.25,508.0 408.625,503.25 398.5,498.875 394.875,497.0"/>
    <polyline points="391.125,495.0 383.125,490.25 374.375,484.25 360.125,472.125 349.875,461.375 339.125,448.0 333.75,440.0 328.375,431.125 323.25,421.5 318.25,410.875 313.875,399.375 310.25,387.25 307.625,374.625 306.25,361.875 306.625,349.5 308.875,338.125 313.25,328.5 320.0,321.25 329.0,317.125 339.875,316.25"/>
    <polyline points="352.375,319.125 365.75,325.25 379.75,334.375 393.5,345.875 406.875,358.875 419.25,372.75 430.625,386.75 440.75,400.5 449.875,413.625 471.125,447.0 485.5,470.875 495.875,486.875 501.375,494.125 506.25,499.5 510.625,503.375 514.75,506.25"/>
    <polyline points="516.625,507.375 522.375,509.75 526.125,510.75 529.875,511.5 535.5,512.125 543.0,512.5 550.875,512.5 565.5,512.0"/>
    <polyline points="567.625,511.875 608.75,509.25 624.125,508.625 637.0,508.625"/>
    <polyline points="640.375,508.75 646.875,509.25 656.125,511.0 661.75,513.125 664.125,514.625 666.0,516.5 667.5,518.875 668.375,521.875 668.25,525.5 667.125,530.125 664.375,535.625 659.75,542.5 652.625,550.875 642.375,561.0 628.0,572.875 608.875,586.375 584.375,601.125 554.0,616.25 518.5,629.875 479.75,639.75 440.625,643.625 404.625,639.75"/>
    <polyline points="374.875,627.875 352.625,609.375 337.75,586.5 329.125,561.5 324.875,536.5 323.5,512.625 323.75,490.75 325.0,470.875 326.75,453.25 328.875,437.625 331.25,423.875 334.0,412.0 337.125,401.875 340.75,393.5 345.0,386.75 349.875,381.625 355.375,378.375 361.375,376.625 368.0,376.5 374.875,377.875 382.125,380.625 389.375,384.5 396.75,389.375 403.875,395.0 410.875,401.25 417.5,407.75"/>
    <polyline points="423.875,414.375 435.375,427.625 440.5,434.0 467.25,468.75 477.375,481.125 487.125,491.25 493.25,496.5 496.0,498.5"/>
    <polyline points="497.25,499.375 503.0,502.75 509.75,505.75 514.75,507.375 520.125,508.5"/>
    <polyline points="520.875,508.625 528.375,509.25 541.0,508.875"/>
    <polyline points="541.875,508.75 555.0,507.375 573.75,504.375"/>
    <polyline points="575.5,504.0 593.0,500.375 604.5,497.375 614.875,494.25 626.125,490.375 635.125,486.625"/>
    <polyline points="638.25,485.25 644.625,482.25 657.125,475.0 665.5,468.625 670.0,464.25 671.625,462.0 672.875,460.0 673.5,458.125 673.375,456.375 672.625,455.125 671.125,454.125 668.625,453.75 665.375,453.875 661.125,454.625 656.0,456.125 650.25,458.25 643.75,461.125 629.25,468.5"/>
    <polyline points="621.75,473.0 614.125,477.625 599.25,487.5 568.25,509.625 554.625,518.875 547.25,523.375 538.5,527.75 531.5,530.0 525.75,530.75 520.875,530.5"/>
    <polyline points="519.5,530.375 512.875,528.75 500.125,524.125 492.125,521.875"/>
    <polyline points="491.125,521.625 481.625,519.625 460.375,516.875"/>
    <polyline points="458.75,516.75 439.875,514.0 425.5,510.875 414.25,507.625 407.875,505.375 397.5,501.0"/>
    <polyline points="393.75,499.25 381.75,492.375 372.75,486.375 368.0,482.75 358.0,474.0 352.75,468.875 341.75,456.375 336.125,449.0 330.375,440.625 324.625,431.375 319.125,421.0 313.875,409.75 309.25,397.5 305.25,384.375 302.5,370.75 301.125,357.0 301.5,343.625 304.125,331.375 309.125,321.125 316.75,313.5 326.875,309.5"/>
    <polyline points="339.0,309.375 352.75,313.125 367.5,320.75 382.625,331.375 397.375,344.375 411.375,358.875 424.25,374.125 435.875,389.25 446.125,403.75 455.25,417.5 463.125,430.125 489.875,475.375 496.625,486.5 499.625,490.875 504.75,497.75 509.375,502.75 515.5,507.625"/>
    <polyline points="517.375,508.75 521.125,510.625 526.625,512.25 535.75,513.625 555.0,513.875 565.5,513.5"/>
    <polyline points="567.625,513.5 588.625,512.75 609.125,513.0 619.625,514.125 624.625,515.125 629.125,516.625"/>
    <polyline points="631.25,517.75 633.125,518.875 635.875,522.125 636.75,524.25 637.0,526.75 636.625,529.75 635.375,533.375 633.125,537.625 629.5,542.5 624.375,548.25 617.375,554.875 608.125,562.375 596.375,570.75 581.625,579.625 563.875,588.875 543.25,597.75 520.0,605.5 495.25,611.125 470.125,613.5 446.25,612.25 424.875,606.875 407.125,597.625 393.375,585.375 383.5,571.0 377.125,555.625"/>
    <polyline points="373.375,540.0 371.625,525.125 371.375,511.125 372.0,498.5 373.25,487.125 374.75,477.25 376.5,468.5 380.125,454.75 382.0,449.25 385.625,441.0 387.5,438.0 391.25,433.75 395.0,431.375 399.0,430.75 402.875,431.25 407.0,432.875 412.875,436.5"/>
    <polyline points="414.75,438.0 420.125,442.875 425.0,448.125 430.375,454.75 434.5,460.875 436.75,464.875 438.625,469.5 439.375,473.125"/>
    <polyline points="439.375,473.875 439.25,475.25 438.125,477.5 436.625,478.625 434.5,479.375 430.75,479.625 427.375,479.25 423.5,478.375 419.0,476.875"/>
    <polyline points="417.375,476.25 412.125,473.875 404.375,469.375 395.875,463.0 391.375,459.0 386.875,454.375 380.25,446.375 374.125,437.0 370.75,430.125 368.0,423.0"/>
    <polyline points="367.0,419.5 365.875,412.5 365.875,409.25 366.125,406.25 366.875,403.5 368.125,401.0 369.625,399.125 371.625,397.625 374.125,396.625 376.875,396.25 380.0,396.375 383.5,397.125 387.125,398.5 395.125,402.75 399.25,405.5 407.625,412.125 415.75,419.75 423.375,427.875 433.75,439.875"/>
    <polyline points="436.75,443.625 449.625,460.375 458.75,473.0 467.625,486.0 471.375,493.0"/>
    <polyline points="471.625,493.75 472.25,497.0 472.0,498.5 471.0,500.125 469.25,501.5 467.5,502.25 462.75,503.25"/>
    <polyline points="461.75,503.375 455.125,503.75 446.5,503.25 433.875,501.125 425.125,498.875 420.25,497.25"/>
    <polyline points="417.625,496.375 409.375,493.0 400.125,488.5 386.375,479.75 382.625,477.0 374.875,470.5 366.75,462.5 362.5,457.875 354.0,447.25 349.75,441.125 341.625,427.375 337.875,419.625 334.5,411.5 331.5,402.875 329.25,394.125"/>
    <polyline points="327.75,385.125 327.25,376.375 327.75,368.125 329.625,360.5 332.75,354.125 337.375,349.25 343.375,346.125 350.625,345.0 358.875,346.125 368.0,349.25 377.75,354.375 387.625,361.125 397.375,369.125 407.0,378.125 416.125,387.75 424.75,397.625 432.75,407.375 446.75,426.0 479.0,472.5"/>
    <polyline points="482.125,476.75 490.375,487.0 492.875,489.625 499.375,495.75 505.25,500.125 512.375,503.875 515.75,505.125 523.75,507.25 529.875,508.125"/>
    <polyline points="531.5,508.25 540.875,508.75 550.75,508.5 563.375,507.5 575.5,506.0"/>
    <polyline points="577.75,505.75 599.875,501.875 614.75,498.5 624.625,495.875 643.375,489.875 656.0,484.75"/>
    <polyline points="660.5,482.75 674.625,475.5 684.375,469.375 694.0,462.125 702.75,454.0 706.375,449.5 709.375,445.125 711.375,440.75 712.0,436.75 711.125,433.25 708.25,430.75 703.25,429.375 696.125,429.625 686.625,431.625 675.25,435.625 662.375,441.375 648.375,449.0 633.875,457.875 619.5,467.625 605.625,477.875 592.625,488.125"/>
    <polyline points="580.875,498.125 561.0,516.0 530.0,545.5 522.75,551.625 517.375,555.5 513.0,557.5 508.0,558.125 503.75,557.0 498.75,554.25 496.375,552.5"/>
    <polyline points="495.125,551.75 486.375,546.125 481.0,543.375 470.625,539.625 459.0,537.0"/>
    <polyline points="457.125,536.75 447.5,535.25 409.375,531.125 392.25,528.125"/>
    <polyline points="388.375,527.25 375.875,523.875 366.5,520.625 356.25,516.125 350.625,513.25 344.75,510.0 331.75,501.375 324.75,495.875 317.125,489.25 309.125,481.25 300.5,471.75 291.375,460.5 281.75,446.875 271.75,430.5 261.625,411.25 251.625,388.5 242.625,362.25 235.5,332.875 231.625,301.375 232.875,269.75 240.875,241.375"/>
    <polyline points="256.75,220.125 280.625,210.0 310.875,213.25 344.5,229.375 378.125,255.875 409.25,288.625 436.0,323.625 457.875,357.75 475.0,389.375 487.875,417.25 497.125,441.375 503.625,461.75 507.625,478.75 509.75,492.75 510.375,504.25 509.875,513.5 508.5,521.0 506.5,526.875 504.0,531.375 501.25,534.625 498.375,537.0 495.5,538.375 492.75,539.125 490.125,539.125 487.75,538.625 485.625,537.75"/>
    <polyline points="483.875,536.5 482.5,535.0 481.5,533.25 480.25,529.375 480.125,527.5 480.25,525.5 481.25,521.875 482.0,520.125 484.0,517.125 486.5,514.625 490.75,511.75 495.25,509.875 498.375,509.125 504.625,508.25"/>
    <polyline points="506.25,508.25 515.25,508.125 529.625,508.75 542.875,508.625"/>
    <polyline points="544.375,508.625 562.625,507.25 578.5,505.125 592.375,502.625"/>
    <polyline points="594.875,502.125 608.625,499.125 621.0,495.875 638.625,490.125 646.375,487.125 663.125,479.375 672.0,474.375 680.875,468.5 685.25,465.25"/>
    <polyline points="689.375,461.75 693.25,458.125 696.625,454.375 699.5,450.5 701.625,446.75 702.75,443.125 702.5,440.0 700.875,437.5 697.625,435.875 692.5,435.25 685.625,436.125 676.875,438.5 666.625,442.375 655.125,447.75 642.875,454.375 630.25,462.125 605.5,479.375 583.5,496.75 565.25,512.25 539.875,534.75"/>
    <polyline points="535.25,538.5 527.75,544.25 521.875,547.875 517.125,549.875 511.25,550.75 508.0,550.375 503.625,549.0 488.875,541.5"/>
    <polyline points="487.5,540.875 479.125,537.375 470.0,534.625 459.75,532.5 446.125,530.375"/>
    <polyline points="444.0,530.125 429.75,528.25 415.875,526.0 402.875,523.25 395.625,521.375 383.625,517.375 374.75,513.875 364.875,509.125 359.625,506.125"/>
    <polyline points="354.0,502.75 342.0,494.125 335.375,488.625 328.5,482.25 321.125,474.75 313.375,466.0 305.25,455.75 296.875,443.625 288.25,429.5 279.75,413.125 271.375,394.25 263.875,373.0 258.0,349.5 254.375,324.5 254.375,299.375 259.0,276.125 269.25,257.25 285.25,245.25 306.625,242.125 331.875,248.75 358.75,264.0 385.375,286.125 410.125,312.375 431.875,340.0 450.25,367.25"/>
    <polyline points="465.25,392.75 477.25,415.75 486.625,436.0 493.875,453.375 499.25,468.125 503.25,480.625 508.0,499.5 509.875,512.25 510.125,516.875 509.75,523.375 508.875,527.25 507.875,529.125 507.0,529.75 506.625,529.375 506.5,528.5 507.25,526.625"/>
    <polyline points="507.75,526.0 511.625,522.5 515.0,520.75 520.25,518.875 529.375,517.0 541.375,515.875"/>
    <polyline points="543.125,515.75 558.5,514.875 577.75,514.375 596.375,514.75"/>
    <polyline points="598.875,514.875 603.625,515.25 610.5,516.375 612.75,517.0 618.75,519.25 621.875,521.625 623.125,523.125 624.375,527.0 624.25,529.375 623.625,532.25 622.125,535.5 619.75,539.375 616.25,543.75 611.375,548.75 605.0,554.375 596.875,560.625 586.625,567.375 574.25,574.625 559.625,581.875"/>
    <polyline points="542.875,588.75 524.25,594.75 504.5,599.375 484.25,601.75 464.5,601.375 446.375,598.25 430.5,592.125 417.375,583.5 407.375,573.0 400.125,561.25 395.25,549.0 392.5,536.75 391.125,525.125 391.0,514.125 391.625,504.25 392.75,495.375 394.125,487.625 395.75,480.75 399.0,470.0 402.25,462.375 405.25,457.25 408.0,454.0"/>
    <polyline points="409.25,452.875 411.625,451.625 413.625,451.25 414.625,451.25 418.0,452.5 420.5,454.75 422.125,457.25 423.125,460.0 423.125,461.5"/>
  </g>
</svg>
