<?xml version="1.0" encoding="utf-8" ?>
<svg xmlns="http://www.w3.org/2000/svg" xmlns:cc="http://creativecommons.org/ns" xmlns:dc="http://purl.org/dc/elements/1.1/" xmlns:ev="http://www.w3.org/2001/xml-events" xmlns:inkscape="http://www.inkscape.org/namespaces/inkscape" xmlns:rdf="http://www.w3.org/1999/02/22-rdf-syntax-ns" xmlns:sodipodi="http://sodipodi.sourceforge.net/DTD/sodipodi-0.dtd" xmlns:xlink="http://www.w3.org/1999/xlink" baseProfile="tiny" height="27.09333333cm" version="1.2" viewBox="0 0 1024.0 1024.0" width="27.09333333cm">
  <metadata>
    <rdf:RDF>
      <cc:Work>
        <dc:format>image/svg+xml</dc:format>
        <dc:source>vpype read './original_svgs/Strange Attractors #89.svg' linemerge linesimplify write './Strange Attractors #89.svg'
</dc:source>
        <dc:date>2024-08-05T01:35:25.958546</dc:date>
      </cc:Work>
    </rdf:RDF>
  </metadata>
  <defs/>
  <g fill="none" id="layer1" inkscape:groupmode="layer" inkscape:label="1" stroke="black" style="display:inline">
    <polyline points="364.625,549.5 334.9889,460.8913 322.881,421.6062 316.3846,398.0177 310.7038,375.1557 305.6285,352.1127 301.5977,330.8942 298.0956,308.4671 295.446,286.2695 293.7203,264.878 292.8892,244.075 292.9549,223.988 293.894,204.8957 295.7242,186.6775 298.5136,168.7503 302.4759,150.5109 307.4251,133.2704 313.3214,117.1396 320.1229,102.211 327.7858,88.5598 336.1809,76.3655 345.4881,65.3704 355.6905,55.5636 361.2522,51.0102 367.0192,46.7956 372.9809,42.9285 379.1269,39.4175 385.4467,36.2712 391.9299,33.4983 398.5659,31.1074 404.9842,29.2025 411.8878,27.5804 418.5409,26.4193 425.2945,25.6313 432.4133,25.2155 439.3749,25.2067 446.7483,25.6057 461.274,27.555 476.2313,31.096 491.4979,36.2632 506.5851,42.911 521.3605,50.9596 535.6911,60.329 549.132,70.6791 562.2326,82.4131 574.9574,95.527 587.0624,109.8118 598.4531,125.1719 609.0287,141.494 618.5077,158.3131 626.8462,175.4637 634.1464,193.1445 640.6492,211.9272 646.1353,231.3415 650.3895,250.5125 653.5877,270.0626 655.68,289.8218 656.625,309.25 656.4845,330.3317 655.2222,351.0911 652.872,371.404 649.3651,391.8237 646.0,407.0 641.6719,423.4745 636.9374,439.1648 631.5087,455.0908 624.6028,473.1796 615.7471,494.256 607.6702,512.206 589.8014,550.328 580.8156,571.1689 576.6884,582.5051 573.2424,593.739 571.2082,602.8162 569.6516,613.1951 569.089,623.309 569.6102,634.3978 571.2666,644.22 574.0859,654.942 578.3116,665.6884 584.0547,676.3042 586.8137,680.2757 590.2504,684.3998 592.5813,686.2074 593.3096,686.4165 593.7998,686.1948 594.1006,684.6147 593.3657,681.8472 591.5752,677.6796 588.9894,672.8613 582.7482,662.4871 572.2643,647.493 558.4201,629.4348 544.8112,612.9796 521.7484,586.4842 518.0,582.625 534.8578,609.2438 556.5393,645.6344 563.0893,656.0127 571.2536,667.9856 580.139,679.4465 587.2302,686.9747 589.9598,689.3111 592.3532,690.8615 594.037,691.566 595.429,691.412 595.873,690.954 596.1757,689.8233 595.7489,686.715 594.4745,683.136 591.7784,677.3575 587.1228,669.0315 576.076,652.4827 561.9768,633.6404 549.1803,617.9176 530.4962,596.1278 514.952,578.802 519.0758,584.7494 530.5849,602.7583 552.448,640.287 562.144,655.9871 571.0968,669.4022 579.657,680.7307 587.6584,689.7064 594.5251,695.3641 596.9588,696.3054 598.7915,696.0067 599.3909,694.5521 599.1662,691.8894 597.8494,687.6664 595.7487,682.7132 588.2092,669.372 581.0,658.375 567.9159,640.4832 554.472,623.8215 534.6807,600.5389 511.5,574.2969 519.9371,586.3127 524.7867,593.973 534.3668,609.9081 556.5741,648.4676 565.2993,662.5028 574.0228,675.3871 584.6233,688.6973 592.1346,696.5295 595.2632,699.1262 598.426,701.0756 600.6424,701.8333 602.372,701.4427 602.9618,700.5833 603.1358,699.5345 602.6099,695.5264 601.1538,691.1286 598.487,685.4108 591.6283,673.1936 578.9761,654.4426 567.0167,638.6391 555.2149,623.9872 537.6086,603.3365 507.625,569.375 514.3441,578.3149 526.6906,597.6374 557.9821,652.6803 567.749,668.3581 572.7208,675.6517 581.9243,688.0517 589.0797,696.4069 592.8491,700.309 597.4974,704.4022 600.7497,706.6909 603.9805,708.0059 605.375,708.125 606.242,707.857 606.881,707.211 607.274,706.199 607.1674,702.6432 605.6562,697.1719 603.1382,691.1536 599.3493,683.9935 594.3522,675.6241 582.3067,657.9163 569.9935,641.4496 553.1609,620.8454 532.399,596.8658 507.9871,569.5957 503.065,563.607 506.2024,567.2419 511.7871,574.6652 520.6095,588.2159 529.4125,603.1558 553.5608,647.4605 563.6666,664.5612 574.8078,681.6721 585.8608,696.1363 592.0199,703.111 596.4256,707.5117 601.5581,711.7629 605.6942,714.3874 608.9741,715.4698 610.3853,715.4371 611.3263,714.9994 612.0272,714.0776 612.422,712.694 612.2498,709.2243 610.5069,703.2026 607.5425,696.1255 603.7495,688.8847 598.3418,679.7721 592.4387,670.6874 585.6131,660.9548 570.5767,640.9541 552.4258,619.052 538.875,603.375 501.7597,562.2156 497.6713,556.875 498.5984,557.5312 502.1747,561.6934 508.6314,570.0712 518.0962,584.5838 528.3247,602.6321 549.417,643.051 558.1797,658.8608 568.75,676.375 576.6861,688.0966 582.5594,696.1195 587.9963,702.8195 595.0725,710.8277 600.3057,715.9014 606.1522,720.6749 610.0422,723.0514 614.3302,724.4491 615.7764,724.4403 616.9171,723.9667 617.7969,723.0312 618.3616,721.6457 618.3826,717.7845 616.9172,711.6039 614.0722,704.266 609.6631,695.6283 603.964,685.8002 597.652,675.9551 590.4184,665.584 574.7727,644.8885 555.8315,621.9791 540.5643,604.4969 496.7947,556.3248 493.375,552.2031 491.0791,548.8965 492.2015,549.3688 494.9781,552.1041 500.4019,558.4834 506.6354,567.022 513.8056,578.2215 523.7763,595.9502 546.344,641.2253 555.433,658.7027 566.4215,677.9517 578.2016,695.8422 584.8206,704.6291 592.3768,713.8991 598.6982,720.6783 605.4334,727.0833 611.1994,731.4838 617.0539,734.8096 619.2764,735.5885 621.2969,735.9062 623.0406,735.7357 624.1863,735.2295 625.2752,734.076 625.9558,732.3835 626.2344,730.1094 626.052,727.2471 624.46,720.8258 621.1622,712.3903 616.7375,703.3425 611.2134,693.6993 603.6971,681.9241 595.0626,669.467 578.6074,647.8672 559.5384,624.7773 529.4726,591.0981 492.1062,551.1087 484.625,542.125 482.827,538.936 483.0679,538.6849 483.9931,539.1824 487.2722,541.7809 495.5135,550.8662 503.7254,562.1453 511.155,574.2373 522.7231,596.4182 542.255,639.3606 553.6711,662.9953 565.7291,684.6292 573.4931,696.9082 579.2567,705.3559 588.1526,717.15 594.4015,724.6191 603.7234,734.3674 611.1514,741.1213 618.5374,746.5398 624.6984,749.8492 627.8099,750.8571 630.2519,751.2077 632.3498,751.0282 634.0905,750.2315 635.4434,748.6992 636.2204,746.8044 636.5872,744.3776 636.4898,741.4235 634.698,733.4665 631.0961,723.8221 626.3293,713.972 619.2211,701.5527 610.8588,688.3795 601.7471,675.2547 582.1659,649.7268 561.7012,625.1638 530.9148,591.1396 481.8457,539.5151 473.625,529.875 472.0594,527.5397 471.5046,525.8321 471.9266,525.3713 472.6976,525.5272 476.1751,527.6373 482.3254,533.1007 486.7795,537.6987 496.3069,550.0351 505.1106,564.2238 511.2235,576.0827 515.0732,584.4074 521.4817,599.9735 538.3371,643.4635 548.6166,667.1046 556.8012,683.4391 561.6973,692.2882 570.4727,706.7784 578.1657,718.0378 588.504,731.8025 599.5562,744.5539 609.2256,754.2314 620.4339,763.6877 624.904,766.94 629.4662,769.7617 633.8693,771.9891 637.6981,773.4749 641.2611,774.3604 644.16,774.5109 646.75,774.0312 648.9431,772.8994 650.6509,771.0933 651.8233,768.4638 652.3233,765.3337 652.2531,761.4597 651.563,756.8419 650.3436,751.9556 646.2998,740.8363 639.9511,727.5162 631.9093,713.3101 622.875,699.25 610.0599,681.103 598.6161,665.9441 586.7531,651.0908 574.8362,636.9683 559.6163,619.6877 544.3084,602.9283 529.0627,586.8314 467.0969,523.8299 457.8584,513.4 455.289,509.7575 454.1389,507.2685 454.25,505.75 455.5787,505.3981 457.8796,506.0185 461.1473,507.6586 468.3407,512.7693 476.428,520.3006 482.1589,526.6927 488.7645,535.6933 493.0616,542.5411 497.8403,551.685 500.595,557.9246 504.7212,568.6583 509.433,584.0474 513.7125,602.0219 518.419,626.0568 523.5843,649.8895 528.687,668.4473 532.1466,678.8235 537.1406,691.5469 542.207,702.7456 546.0915,710.4376 555.1029,726.3206 566.8136,744.068 574.132,753.7824 583.0526,764.8486 590.4159,773.2016 598.9804,782.2091 607.1271,790.2013 615.6198,797.8326 624.5294,805.1632 633.3078,811.7266 641.4468,817.0949 648.9776,821.3765 656.4296,824.8685 663.0448,827.1869 669.05,828.458 674.589,828.6873 679.1821,827.8499 683.1229,825.8458 685.9022,822.9859 687.9502,819.0264 689.0822,814.3322 689.3654,808.6274 688.7824,802.4385 687.3339,795.3974 684.9921,787.4203 681.8532,778.857 677.9846,769.841 673.4563,760.4935 668.341,750.9245 662.4514,740.8012 648.025,718.4773 630.7848,694.4781 614.9779,674.1815 598.0759,653.8805 578.9802,632.3254 558.0376,609.8523 535.455,586.7089 512.0005,563.699 485.7875,538.9336 443.0421,499.4315 430.5634,487.4544 423.0768,479.7919 417.6286,473.6788 413.9664,468.8086 412.3306,465.5104 411.9946,464.0101 412.1023,462.5006 412.7142,461.3713 413.9898,460.4781 415.5341,460.0576 417.7454,459.9306 423.6543,460.7617 431.7715,463.3047 439.9491,466.7 447.1471,470.6237 454.3194,475.3333 459.2524,479.3036 464.7141,484.625 468.4256,489.0984 471.7806,494.2692 473.8934,498.8138 475.287,504.039 475.2442,507.7941 474.1742,510.6396 472.3923,512.135 470.3079,512.4466 466.9676,511.7824 463.7551,510.1512 459.762,507.3146 456.6021,504.468 447.6459,494.1089 439.8794,482.7654 431.0787,467.8843 422.8546,451.4086 415.4969,434.5624 408.9664,417.1981 403.161,399.5715 398.6046,382.8497 394.6466,365.0478 391.56,347.5653 389.541,331.0547 388.4127,314.2348 388.2579,297.7323 388.9728,284.0483 390.5572,270.6306 392.957,258.0584 396.1237,246.4828 400.0851,235.8323 404.8178,226.1489 410.3222,217.4138 416.2958,210.0534 422.875,203.875 430.2212,198.8438 438.1173,195.1291 446.4329,192.7888 454.6593,191.8899 463.2074,192.3738 471.9074,194.2696 480.8942,197.6493 488.0125,201.3694 495.2481,206.1623 501.7855,211.4732 508.2938,217.7775 514.4282,224.7523 520.3624,232.6389 525.7917,241.0899 530.6647,250.0231 535.2908,260.1001 539.2914,270.3794 542.7038,280.8747 545.5948,291.8662 547.7526,302.5309 549.4973,314.5144 550.6395,326.4125 551.1999,338.4709 551.1621,350.2721 550.4948,363.1153 549.256,376.358 547.4869,389.3397 545.1915,402.0911 542.1964,415.7084 538.911,428.3922 534.9266,441.7652 529.4072,458.457 523.1253,475.3442 516.9182,490.7881 509.4843,507.7396 503.3247,519.9419 498.3384,528.2633 493.3001,534.7731 488.3994,539.1724 485.8913,540.69 483.3647,541.718 480.7655,542.2628 478.0305,542.3877 475.6521,542.154 472.9103,541.4215 467.1067,538.5874 460.9278,534.0004 453.8939,527.2156 447.4725,519.6581 440.2614,509.8738 433.4132,499.4124 426.08,486.824 418.9709,473.4125 412.3686,459.5655 405.8415,444.4639 399.7764,429.0162 394.4761,413.8431 389.5682,397.987 385.8377,384.4076 382.5995,371.07 379.7946,357.6028 377.5112,344.4782 375.6437,331.0521 374.2802,317.7889 373.4733,305.4521 373.1652,293.1501 373.3673,281.2523 374.0617,269.8461 375.2752,258.6318 376.9685,248.0538 379.1191,238.1415 381.8408,228.4388 385.1031,219.1425 388.7339,210.6743 393.0252,202.4057 397.6241,195.0711 402.683,188.3989 408.0551,182.5899 413.9395,177.4193 420.5278,172.8191 427.1427,169.2607 434.0408,166.5374 441.1741,164.6811 448.125,163.75 455.5426,163.6347 463.4401,164.4123 471.3915,166.0913 478.961,168.5185 486.7955,171.9077 494.113,175.9346 502.1835,181.4461 510.0459,187.9194 517.5334,195.1694 524.841,203.4158 531.4148,212.0111 537.672,221.4868 543.426,231.6614 548.6015,242.3217 553.1342,253.257 557.139,264.7525 560.4588,276.3758 563.0938,288.0427 565.2525,300.7918 566.7961,313.8675 567.6993,327.0953 567.9657,340.3998 567.6996,351.7349 566.99,363.4121 565.8626,375.0152 564.2686,386.8905 562.2571,398.6319 559.6664,411.1592 556.5923,424.0868 553.1581,436.8961 544.8994,463.5852 520.4655,534.628 514.1898,554.925 506.6371,581.2167 504.2177,588.5807 501.4362,595.7333 498.3379,601.8555 495.6385,605.4926 492.3653,608.1989 489.985,609.2978 487.1837,609.7828 484.149,609.5373 481.1031,608.6966 477.6785,607.0617 473.5154,604.4153 470.09,601.9 466.3456,598.6204 456.9388,588.941 447.4614,577.3653 437.3076,563.3436 426.1433,546.1043 416.847,530.538 407.5172,513.3684 396.5898,491.534 388.4138,473.705 380.5137,454.7224 372.9906,434.8102 366.1969,414.9567 360.1906,395.1938 355.6819,378.4309 351.6415,361.3901 348.1126,344.1669 345.3061,327.8481 343.1888,312.1979 341.6642,296.6953 340.7417,281.4488 340.4247,266.5526 340.7267,251.7091 341.6602,237.3493 343.1546,224.2173 345.299,211.3265 348.1005,198.7682 351.4514,186.9942 355.4334,175.7018 360.0532,164.9741 365.3171,154.8943 371.0046,145.8758 377.297,137.6137 384.1734,130.1296 391.5861,123.4741 399.4876,117.6976 407.8301,112.8507 416.5661,108.984 425.2927,106.2373 434.5293,104.4552 444.0686,103.7098 453.7963,103.9823 463.6379,105.2487 473.519,107.4851 483.7281,110.8035 493.4592,114.942 502.3045,119.5747 510.8488,124.9022 519.6786,131.3191 528.1999,138.4147 536.3785,146.1314 544.4336,154.6964 551.8103,163.4979 558.9639,173.0605 565.3977,182.7082 571.3161,192.6844 576.9435,203.4086 582.1755,214.7151 586.8207,226.1775 591.0122,238.1031 594.612,250.0753 597.7196,262.3954 600.5557,276.4237 602.7437,291.0124 604.2145,305.691 604.9886,320.7691 605.0391,335.7765 604.4012,350.6377 603.0655,365.8006 600.9546,381.9755 598.5447,396.1367 595.5374,410.6142 592.0356,424.9237 587.6321,440.6799 579.4076,466.3953 558.0563,526.9222 553.6203,541.1787 549.9991,554.5425 546.5333,571.1334 544.5846,585.1399 543.8598,600.5712 544.4658,613.9854 545.87,626.0488 548.1567,638.0166 550.9542,649.1031 554.8662,660.7177 559.7692,673.0357 566.4563,687.1588 572.1907,697.6392 579.6552,709.7164 587.1051,720.2002 597.1172,732.7773 605.1991,741.412 614.485,750.073 622.7331,756.0745 626.9661,758.5286 630.7636,760.2955 634.045,761.275 636.63,761.555 638.885,761.265 640.75,760.375 642.294,758.6736 643.236,756.4554 643.6973,753.5621 643.6052,749.9833 643.0138,746.2815 641.8168,741.7262 638.0369,731.5484 632.3571,719.7375 625.279,707.341 615.8721,692.7008 604.9649,677.1684 595.2482,664.2421 584.0369,650.1218 571.9069,635.5167 559.3967,621.0889 547.0027,607.3979 523.258,582.0438 475.5,532.75 467.6109,523.6454 465.0012,520.0788 463.7627,517.8322 463.8438,516.5938 465.0081,516.4387 469.7265,518.9351 474.375,522.5 481.5297,529.4293 487.11,535.971 492.4316,543.0555 496.8102,549.9491 501.5328,558.2038 508.9553,573.812 513.7847,585.9469 517.0565,595.1997 532.2789,642.024 537.8092,657.3521 544.3155,672.7616 550.828,686.8324 557.1965,698.9223 567.4024,715.9587 575.8009,728.3241 587.8897,744.1436 601.171,759.2232 612.8021,770.4913 625.369,780.7879 631.3735,784.9593 636.9752,788.3141 642.4067,790.998 647.0854,792.7515 651.3211,793.7128 655.2137,793.8975 658.6476,793.2407 661.2504,791.8762 663.2849,789.7432 664.7184,786.745 665.4481,783.2038 665.5523,778.8886 665.0497,774.2811 663.9279,769.0099 662.1765,763.1531 659.7135,756.4934 653.0588,741.9239 644.2794,725.9769 633.4679,708.8219 620.5319,690.2254 606.7633,671.9388 591.9038,653.533 574.4419,633.2547 555.4722,612.2946 525.3725,580.8798 498.6259,554.2758 462.6645,519.2559 447.4134,503.3489 442.5249,497.4616 439.8281,493.0 439.3093,491.3251 439.3951,489.9981 440.1555,489.2545 441.5303,489.0243 443.8488,489.3548 446.7099,490.304 454.0625,494.0312 460.0911,498.1066 468.0074,504.7541 472.8706,509.6703 479.737,518.0831 483.1196,523.1046 487.4617,530.984 490.2386,537.1807 493.9371,547.8689 495.5903,555.021 496.6154,562.4691 496.9749,571.6995 496.3018,579.0752 494.9868,584.9281 492.6159,590.225 490.9199,592.3965 489.0984,593.8533 486.6654,594.9931 484.5805,595.4097 482.2827,595.3264 479.5116,594.692 476.9863,593.6428 473.9159,591.8932 466.7537,586.6519 458.5,578.625 451.311,570.3488 442.0032,558.2472 431.4332,542.5902 418.4914,520.9505 407.791,500.965 397.3065,479.2443 388.0989,457.9514 379.3695,435.2772 371.343,411.7948 364.7868,389.7376 360.6453,373.7184 357.0571,357.8584 353.9674,341.9048 351.4902,326.4708 349.6703,311.8942 348.3656,297.1288 347.6352,282.6478 347.4789,268.5397 347.891,254.8802 348.897,241.3598 350.3948,229.1521 352.539,216.994 355.312,205.1518 358.5926,194.0782 362.4588,183.4684 366.9087,173.405 371.9408,163.9708 377.382,155.4923 383.2589,147.8881 389.9391,140.7281 397.141,134.393 404.5002,129.1328 412.5826,124.5564 420.6969,121.0746 429.1152,118.5297 437.6642,116.9793 446.5167,116.378 455.526,116.7194 464.6281,117.9779 474.1239,120.2321 483.217,123.2821 492.5649,127.344 502.4265,132.7006 511.6949,138.8191 521.2034,146.2328 530.2957,154.4868 538.9171,163.4958 547.2494,173.4773 554.7465,183.7568 561.8045,194.8662 568.3328,206.7711 574.3134,219.3514 579.689,232.516 584.2921,245.832 588.2253,259.5736 591.3638,273.288 593.7517,287.0664 595.5529,301.7225 596.5189,314.1377 596.9784,326.2839 596.9647,338.5005 596.4584,351.0827 595.4568,363.7058 593.9145,377.0324 591.921,390.1288 589.5052,402.9644 584.3832,424.7327 577.2998,449.4744 569.8298,472.3543 554.5988,516.1721 548.0013,537.246 543.4014,554.46 540.1446,570.9703 538.9618,580.1637 538.0994,590.5194 537.8541,597.8974 538.0076,605.4901 538.6192,614.9144 539.6226,623.5414 541.3302,633.999 543.1769,642.5692 546.4678,654.4614 550.2631,665.4441 555.3229,677.8043 561.0726,689.7637 567.1698,701.2413 573.9048,712.2636 581.8633,724.0801 590.441,735.3056 598.9106,745.2698 608.1724,754.7947 617.0036,762.845 625.5239,769.2296 634.1757,774.3431 640.3728,776.7539 643.7944,777.394 646.5469,777.4297 648.9522,776.9448 650.9125,775.9341 652.6624,774.0752 653.8906,771.4062 654.5015,767.9047 654.4492,764.0751 653.8111,759.761 652.5451,754.6308 648.3793,743.015 642.1464,729.8826 634.1216,715.7734 623.4563,699.105 611.2809,681.7961 600.6504,667.79 587.4641,651.4358 573.2064,634.526 558.7763,618.1361 544.7541,602.8947 523.6791,580.8675 479.2937,536.3686 464.6483,521.2574 455.6059,510.9392 452.998,507.2129 451.7252,504.5215 451.8258,503.1922 452.25,502.8594 453.2799,502.7442 455.7733,503.4561 459.7969,505.4182 465.8959,509.594 474.5386,517.3386 481.3867,525.036 486.6572,532.0012 492.8432,542.1116 496.9473,550.2152 500.2679,558.0402 502.7551,564.8839 506.1684,575.805 508.4767,585.0539 512.5811,606.5209 517.7166,641.2237 520.103,654.924 522.9972,668.1136 527.2813,683.2765 532.713,698.2129 540.195,714.7406 549.8296,731.9161 561.6644,749.629 569.7002,760.3249 578.0404,770.6151 587.1441,780.9332 597.2864,791.6374 606.7336,800.7549 616.9541,809.8138 625.9475,817.1265 634.9053,823.6268 644.7646,829.9699 654.2596,835.2965 662.1552,838.8853 669.865,841.483 677.1628,842.9088 683.2754,843.0281 688.56,841.8588 690.7649,840.8338 692.7712,839.4842 695.6806,836.375 697.8187,832.1996 699.0318,827.1516 699.3343,820.9504 698.6852,813.8935 697.1332,806.1276 694.7388,797.7908 691.3996,788.5752 687.2807,778.9675 682.3811,768.9141 676.5785,758.1316 669.8938,746.678 662.5588,734.9492 654.4387,722.7333 636.4705,697.827 619.4242,676.2421 599.5638,652.7224 578.0753,628.6923 555.6976,604.966 533.1823,582.3137 503.9452,554.265 476.6706,529.0159 433.886,490.35 418.6001,475.9901 411.2736,468.6256 406.1182,462.8851 402.5868,458.0517 400.814,454.3641 400.4955,452.7841 400.5808,451.4787 401.1346,450.2717 402.0163,449.4308 405.2449,448.2751 410.1864,448.1442 417.1813,449.2379 424.971,451.235 431.6521,453.5786 439.9823,457.249 445.9221,460.3504 451.1253,463.6579 456.3072,467.4474 460.25,471.0 464.2318,475.465 466.6065,478.9712 468.4973,483.6419 468.625,485.25 468.3287,486.6296 467.3671,487.7394 465.7661,488.0414 463.6497,487.4305 461.1288,486.1038 456.6587,482.4193 450.4932,475.6605 445.0487,468.1746 439.6914,459.6816 433.9599,449.0372 427.6197,436.0237 422.7504,424.4518 417.6417,410.7745 414.1661,400.2766 410.967,389.1302 407.7649,376.1888 405.0103,363.0187 402.9988,350.7896 401.479,338.2383 400.6068,327.4098 400.18,316.9681 400.25,306.9491 400.799,297.0046 401.8762,286.8695 403.4017,277.4034 405.3016,268.8861 407.68,260.8727 410.5401,253.284 413.8515,246.2063 417.5837,239.7259 421.7192,233.9232 426.258,228.856 431.1969,224.4994 436.4723,220.907 441.6879,218.2722 446.75,216.5 451.7796,215.4405 456.9347,215.0045 462.5459,215.2257 467.817,216.0713 473.0744,217.5311 478.273,219.602 483.692,222.4457 488.845,225.7829 494.15,229.8992 499.25,234.5731 503.8329,239.4608 508.1453,244.7716 512.6626,251.1941 516.785,257.8962 520.3913,264.5914 523.662,271.5522 526.4373,278.3761 531.255,293.4562 534.9356,309.8096 537.1563,326.1657 538.0312,343.682 537.5668,361.4725 535.7106,380.5665 532.6882,398.7925 529.8391,411.2978 526.2367,424.7485 522.625,436.375 518.1772,448.8996 513.7795,459.7349 508.2943,471.6282 503.2351,481.1254 498.3721,489.0991 493.9949,494.7706 489.5339,499.3896 485.4045,502.5518 481.2609,504.4854 476.9119,505.3711 472.8262,505.0893 467.4558,503.3754 462.9468,500.813 456.4685,495.562 451.1882,490.1623 444.7997,482.1078 438.4534,472.7395 431.8944,461.4842 425.1169,448.5314 419.5416,436.2076 413.7038,421.6735 409.1858,409.2046 404.95,395.7427 400.955,381.0283 397.6344,366.6919 395.2808,353.9005 393.3848,340.3404 392.0629,326.8974 391.2825,313.3581 391.1871,301.3791 391.7057,289.4845 392.8129,278.1782 394.5355,267.1941 396.6516,257.6705 399.4055,248.4637 402.7544,239.742 406.6586,231.6092 411.0787,224.1692 415.7749,217.7745 420.9458,212.1934 426.5782,207.4379 432.9249,203.3716 439.2744,200.4462 445.8614,198.4783 452.9492,197.4725 459.1118,197.4379 465.7249,198.2079 472.3617,199.7972 478.5906,202.0408 484.723,204.9965 490.9994,208.8356 497.1263,213.3877 503.0168,218.5743 508.6318,224.3453 514.176,230.964 519.1047,237.7767 523.7444,245.165 528.0912,253.1089 532.1562,261.7031 535.6058,270.2047 538.7183,279.2635 541.248,288.1401 543.4574,297.6113 545.2749,307.4662 546.6247,317.2819 547.5292,327.0136 548.0121,336.6527 548.1123,347.3703 547.799,357.7893 547.0729,368.2785 545.9751,378.4465 544.2777,390.0583 542.2699,401.1952 537.6422,421.1546 530.416,445.6785 521.1165,471.4823 512.7871,491.2579 508.0893,501.1482 503.6838,509.5134 499.3998,516.7737 495.437,522.373 491.8498,526.4321 488.3448,529.4691 484.8015,531.5217 481.2138,532.6872 477.0,533.0 473.4951,532.447 469.4766,530.9258 464.8524,528.3241 459.1083,523.7635 452.1612,516.9168 446.2307,509.6771 439.0806,499.7095 433.1601,490.4364 427.0076,479.6502 420.4976,467.179 414.6475,454.8675 408.9002,441.621 403.2733,427.4388 398.7388,414.7149 394.5328,401.4994 390.4876,387.1615 386.8898,372.5933 384.0315,358.9169 381.6766,345.1456 379.0143,323.3128 377.7699,302.4085 378.0041,282.8149 378.6596,273.3169 379.6885,263.9568 381.0397,255.1476 382.7587,246.5564 384.8312,238.3537 387.2236,230.6511 389.9846,223.246 393.1058,216.1868 396.5787,209.5221 400.3951,203.3005 404.5466,197.5705 408.9664,192.4422 413.5246,188.0127 418.6798,183.8527 424.1212,180.2789 429.4718,177.4725 435.3659,175.1056 441.0787,173.4776 446.9211,172.4516 452.7489,172.047 458.8241,172.2333 465.3167,173.0751 471.467,174.4649 477.9571,176.5513 484.3819,179.2548 490.3507,182.3607 498.2064,187.3932 505.9167,193.4612 513.182,200.2625 520.2928,208.0724 526.9189,216.5622 533.0059,225.6399 538.4605,235.1355 543.5254,245.3945 547.9824,255.9473 551.827,266.7251 555.1515,278.0253 557.8122,289.4163 560.0603,302.1601 561.709,315.2578 562.6846,328.1224 563.0196,341.0709 562.7639,352.6164 561.9712,364.9961 560.6899,377.2519 558.9508,389.3554 556.5989,402.2807 553.6373,415.9473 550.3444,429.0875 546.6278,442.157 540.7466,460.8109 534.0775,480.2256 505.3687,558.4741 501.5063,567.2204 497.6245,574.399 494.2807,578.8418 490.5674,582.0583 488.1993,583.3159 485.6201,584.0662 482.8051,584.2645 480.0246,583.9153 476.8103,582.8467 472.9803,580.9785 466.3879,576.3562 458.2996,568.7972 449.2951,558.3657 440.8814,547.3471 431.3594,533.063 423.034,519.4676 414.7469,504.3851 404.6747,484.3092 396.8452,467.2228 388.9677,448.2543 381.5753,428.6116 375.7048,411.2628 370.3094,393.1504 366.1152,377.1128 362.4763,361.2263 359.4322,345.8239 356.9887,330.76 355.1035,315.7525 353.7909,300.9192 353.0582,286.3636 352.9067,272.1748 353.3252,258.6398 354.3033,246.0316 355.8807,233.608 358.0704,221.4608 360.8857,209.682 364.2218,198.7091 368.0322,188.58 372.4197,179.0217 377.5859,169.7795 383.136,161.563 389.225,154.0644 395.8212,147.3436 402.8929,141.4606 410.0997,136.6568 417.6872,132.7335 425.7645,129.6908 434.24,127.5791 443.3347,126.3993 452.2511,126.2406 461.6583,127.0842 471.1117,128.9517 480.1594,131.7024 488.9641,135.3173 498.1781,140.102 507.162,145.7651 516.1553,152.4792 524.7837,159.9935 532.9866,168.2366 540.7039,177.1375 547.6454,186.3 554.5882,196.7783 560.8995,207.6542 566.7497,219.2117 571.9351,231.0455 576.4531,243.0736 580.4038,255.572 583.7653,268.6035 586.5328,282.153 588.5873,295.5515 590.0348,309.4876 590.7134,320.9348 590.9392,332.487 590.7064,344.2547 590.0459,356.285 588.9698,368.2849 587.4854,380.2119 585.5458,392.3723 583.2401,404.2429 577.915,426.9731 571.454,449.8379 564.0342,472.8506 550.8877,511.0385 543.0583,535.7232 538.0952,554.6914 535.3753,569.0705 533.9536,579.3901 533.2796,587.1173 532.8685,598.7708 532.9743,607.307 533.5477,616.3745 534.4319,624.333 536.875,638.375 538.3453,645.0295 542.7592,660.4819 547.0454,672.5113 552.2321,684.6855 560.0082,700.2239 566.3357,711.3033 574.8553,724.595 582.3769,734.9605 591.7667,746.7892 601.6823,757.8012 612.9639,768.8734 622.784,777.136 632.4999,783.977 641.0109,788.5289 645.2551,790.1559 648.9423,791.1472 652.375,791.625 655.1257,791.546 657.6028,790.9275 659.7512,789.7471 661.7336,787.6806 663.1327,784.8167 663.8096,781.6721 663.9658,777.6096 663.508,772.769 662.4654,767.5276 660.776,761.6085 658.5701,755.4755 652.3797,741.8236 643.7603,726.036 633.473,709.4869 621.6861,692.4213 607.5195,673.6217 591.9912,654.2559 575.6986,635.0603 559.2073,616.6874 541.2379,597.5288 522.4512,578.1708 464.9694,521.6143 449.5815,505.6304 444.3044,499.2152 441.4095,494.5869 440.9413,493.1587 441.0156,491.8125 441.7751,491.0589 443.0964,490.8485 445.4248,491.2341 448.1005,492.1017 453.9642,494.9995 461.3827,500.0677 467.9249,505.6439 474.1214,511.9306 478.7739,517.5672 484.9381,526.5631 489.0969,534.4134 492.7718,542.9335 495.5594,551.7954 497.3131,559.5101 498.5666,569.1943 498.8008,578.7992 498.1338,586.3348 496.6187,592.9088 494.2117,598.5055 492.5859,600.6484 490.9248,602.1338 488.6677,603.3954 486.5853,603.912 483.8341,603.8409 480.9673,603.2395 478.0533,602.0562 474.8075,600.2439 468.5359,595.5915 459.75,587.2289 452.9161,579.4151 443.7098,567.6387 431.7444,550.1 418.9353,529.1543 406.2146,505.5754 394.5937,481.7229 384.0043,457.0541 373.8596,430.4723 366.081,406.9262 359.1486,382.281 354.9248,364.8615 351.2485,347.4903 348.4891,331.807 346.2996,316.1384 344.6669,300.2273 343.6638,284.5593 343.2981,269.2364 343.5751,254.2688 344.5058,240.0596 346.0828,226.416 348.2701,213.425 351.1231,200.7909 354.5477,188.9615 358.6363,177.6484 363.2521,167.2551 368.3896,157.7483 374.5187,148.4102 381.0488,140.1975 388.1476,132.8205 395.7757,126.3365 403.8937,120.803 412.1374,116.4264 420.7737,113.0324 429.8353,110.6401 439.5491,109.2416 449.4908,108.936 459.5775,109.7097 469.7265,111.5494 479.8551,114.4414 489.8804,118.3723 499.7824,123.3553 509.36,129.228 518.6464,135.9504 527.5912,143.4537 536.1441,151.669 544.5084,160.8231 552.1096,170.2734 559.1662,180.2271 566.1251,191.4053 572.413,202.8918 578.2136,215.0001 583.3367,227.3223 587.904,240.1409 591.7642,253.0252 595.0,266.25 597.6632,280.1395 599.6127,293.8268 600.9577,308.0268 601.5637,319.6733 601.7321,331.7828 601.4533,343.5582 600.7021,356.0272 599.5281,368.4548 597.8873,381.1546 595.8283,393.6778 593.303,406.3279 587.5983,429.5662 580.6743,453.2778 573.5543,474.7782 558.9048,516.191 551.1337,540.5482 547.1305,555.2979 544.1224,569.804 542.1206,586.1396 541.593,594.3828 541.5414,601.6902 542.645,619.5058 543.7573,627.4324 545.407,636.1237 548.1684,647.1585 552.2085,659.9443 556.4069,670.8308 561.6674,682.6556 567.222,693.4879 573.7747,704.8623 580.6774,715.4308 588.502,726.3082 596.4286,736.0696 604.7936,745.1381 613.3573,753.1089 621.9693,759.9536 629.1679,764.3703 636.0351,767.1404 638.7724,767.7102 641.1556,767.7451 643.2706,767.2436 644.7826,766.3964 646.4434,764.5231 647.375,762.25 647.8102,759.3511 647.7408,755.7673 647.1196,751.5118 646.0248,747.0317 642.406,736.9809 636.2554,724.0633 628.384,710.0844 619.2124,695.7049 607.8504,679.5693 597.0704,665.2549 585.6719,650.9116 574.1484,637.1113 560.7378,621.752 545.7077,605.182 529.7518,588.2173 472.8395,529.9389 462.7219,518.3753 460.177,514.75 459.1374,512.4303 459.25,511.375 460.2531,511.0961 462.4458,511.7355 464.8511,513.0351 472.418,518.6833 479.391,525.4911 485.1786,532.1549 491.0336,540.2134 495.5003,547.2572 500.423,556.3732 503.5802,563.0029 506.5991,570.4766 512.6962,587.7814 515.5197,596.8925 527.7627,641.1683 532.8664,656.9817 538.8808,673.3607 546.5572,690.8888 555.815,708.5215 562.922,720.3305 572.9623,735.2313 587.4641,753.9265 600.8904,768.8462 608.022,775.9743 614.8339,782.1966 622.4954,788.5602 630.2766,794.4447 636.4342,798.5922 642.713,802.1687 648.8557,805.0069 654.6935,807.0056 659.5001,807.9548 663.8941,807.9889 667.4431,807.1648 670.4511,805.462 672.6022,803.127 674.1642,799.9116 675.0265,795.8628 675.1749,791.2555 674.6264,785.8352 673.4395,780.0627 671.5495,773.5677 669.0511,766.6872 665.8389,759.0806 661.9239,750.8359 652.3872,733.3285 640.9706,715.1151 627.1886,695.4488 611.3191,674.591 594.1155,653.4861 576.5641,633.2466 555.7578,610.5684 536.8862,590.8492 517.27,571.0825 451.5749,507.9624 437.7839,493.8118 431.9213,486.8356 428.7953,481.9355 428.2563,480.18 428.3002,478.8387 428.8441,477.8919 430.101,477.2332 433.9722,477.3565 439.3442,478.9221 446.0365,482.0074 452.7116,485.8885 458.4798,490.0976 465.278,495.92 469.757,500.4754 474.4641,506.2446 478.2231,511.8203 481.727,518.371 484.1721,524.2532 485.885,530.261 486.8183,536.0483 486.9169,542.1535 486.0399,547.0116 484.4884,550.5537 483.0922,552.2945 481.2926,553.6618 479.5781,554.3379 477.35,554.6694 475.299,554.4892 473.0556,553.8657 467.6767,551.2241 461.6731,546.4641 455.2054,540.2068 447.802,531.4625 441.0114,522.3015 431.5057,507.5044 422.9464,492.7699 414.5962,476.4565 406.1846,458.25 398.7026,440.117 391.9099,421.5706 385.945,403.1107 380.6978,384.2931 377.1951,369.7424 374.1454,355.0776 371.6632,340.8814 369.8347,327.5038 368.5035,313.8938 367.724,300.5317 367.4879,287.5144 367.7993,274.544 368.6397,262.4038 370.0457,250.6283 372.0441,239.1155 374.553,228.3293 377.6431,217.9705 381.1907,208.4584 385.1146,199.8835 389.6948,191.6507 395.0431,183.7352 400.6802,176.8636 406.7853,170.7567 413.3259,165.4792 420.2697,161.096 427.3809,157.7482 434.7253,155.3217 442.6898,153.713 450.8587,153.0614 459.1585,153.3695 467.516,154.6395 475.8578,156.8739 483.9417,159.9909 492.2731,164.1632 500.4158,169.1971 508.3089,175.0316 515.8912,181.6056 523.1016,188.858 529.8789,196.7277 536.2633,205.2605 542.2683,214.4274 547.9419,224.3391 553.0525,234.6042 557.7256,245.4939 561.7639,256.5792 565.2397,268.041 568.2495,280.1255 570.6275,292.1727 572.4454,304.4983 573.6469,316.6638 574.2617,328.6582 574.3496,341.907 573.5025,360.7695 571.5072,379.7054 568.1936,399.8066 563.7229,420.2901 559.0483,437.7697 552.1892,460.563 534.6411,512.051 527.7598,533.3761 523.3935,549.1682 519.7024,564.5486 517.2185,576.8432 514.1808,597.4865 512.3054,616.568 509.5779,653.732 508.51,662.822 507.1743,669.5641 505.4253,675.0988 503.4946,678.5239 501.2031,680.6094 498.3359,681.5449 495.2086,681.1196 491.8438,679.8594 487.3108,677.1789 483.299,674.059 477.5521,668.9218 466.0856,656.5903 453.9166,641.6626 441.3553,624.7509 425.8101,601.5938 413.0639,581.0201 399.061,556.7259 388.2398,536.6032 377.029,513.9493 365.7731,489.3655 355.8314,465.9579 346.8754,442.816 338.6893,419.4193 331.2562,395.7005 325.401,374.7525 320.3844,354.3391 316.0865,333.9483 312.5505,313.759 309.8002,293.9242 307.8098,274.1845 306.6163,254.6395 306.2788,236.2581 306.769,218.6964 308.0967,201.2846 310.2437,184.5282 313.1895,168.5254 316.9099,153.3588 321.3772,139.0967 326.701,125.4695 332.6109,113.1786 339.6492,101.1751 347.3005,90.3808 355.9686,80.2415 365.1133,71.4143 374.9279,63.671 385.3686,57.0876 396.3919,51.7398 407.5341,47.8236 419.2734,45.1456 431.3826,43.7482 444.1381,43.6216 457.0899,44.7992 470.1386,47.2542 483.1851,50.9597 496.13,55.8889 508.8742,62.0149 520.7861,68.9581 532.3261,76.8361 543.7478,85.812 554.9713,95.869 565.6491,106.6995 575.7325,118.2141 585.4001,130.6334 594.3394,143.5816 602.4979,156.9629 610.0356,171.0185 616.924,185.6663 622.9693,200.4464 628.4335,216.0091 633.0315,231.5512 636.9499,247.7014 640.0476,263.9892 642.3725,280.8437 643.8534,297.5951 644.5309,314.6026 644.3916,331.3855 643.4528,348.2321 641.687,365.3575 639.0678,382.7955 635.6092,400.55 632.0312,415.6719 627.74,431.2464 622.7839,447.0457 617.0972,463.3535 605.6738,492.4635 581.8145,548.1665 574.7547,567.0611 571.2694,578.0206 568.8567,587.2802 566.8292,597.7021 565.6197,607.0986 565.2683,614.0267 565.3271,622.173 565.6521,627.9222 566.42,633.9834 569.4614,648.3986 574.5891,663.4826 577.605,670.2522 582.3757,679.4653 585.729,684.916 590.2851,691.3399 594.0704,695.7494 598.9851,700.4278 601.5232,701.8396 602.6633,702.0461 603.5736,701.8017 604.0935,701.1696 604.3772,700.1487 604.1649,697.6236 602.3052,692.1312 599.5208,686.0044 590.7358,670.9293 579.8104,655.1981 568.3777,640.0012 550.2986,617.8236 506.949,568.43 515.347,579.5995 522.879,591.4585 531.8987,606.7119 544.2331,629.0327 558.1238,653.2657 565.1451,664.7051 574.9444,679.287 585.0937,692.5053 589.9267,697.9541 594.5492,702.6042 598.68,705.995 602.4655,708.3681 605.4219,709.2344 607.2346,708.7795 607.833,708.0095 608.1631,706.758 607.8788,702.8865 606.4375,698.1931 603.785,692.0462 600.129,685.0101 595.4984,677.2 583.7444,659.5369 570.657,642.1464 558.9999,627.672 541.7003,607.3282 511.8127,573.8491 504.5,565.5254 502.2095,562.5255 503.6144,563.8648 508.6762,570.3213 515.488,580.2379 520.5925,588.3514 531.3561,607.0411 555.7052,651.8737 565.1641,667.6692 575.7444,683.628 587.599,698.849 592.593,704.344 598.2327,709.8904 602.5212,713.3377 606.875,716.0 609.5972,716.8596 610.7604,716.8546 612.0229,716.4154 612.875,715.5 613.2924,714.1835 613.1235,709.9861 611.75,705.0 608.986,698.3635 605.2581,691.0241 600.4467,682.7652 593.6273,672.0876 586.5334,661.8136 572.2361,643.01 557.4764,624.8654 535.2998,599.2785 507.2562,568.4022 498.5064,558.2292 496.7349,555.651 499.3167,558.1043 505.9728,566.4892 512.6262,575.9887 519.0373,586.3773 529.2087,604.5839 554.3562,652.8234 565.7785,672.2871 576.9673,689.3245 589.1898,705.1667 595.6044,712.1916 601.6528,718.0516 607.2983,722.5212 611.954,725.2956 613.97,726.0255 615.7518,726.2993 616.9775,726.1795 618.1969,725.6113 619.1517,724.4064 619.6181,722.9142 619.4958,718.5984 617.6414,711.9663 614.6632,704.5311 610.847,696.9233 605.2226,687.3288 598.633,676.9853 591.6697,666.9093 575.5751,645.6445 560.2497,626.836 536.6825,599.8299 498.8125,558.5625 492.1443,550.888 489.8855,547.4394 490.6874,547.7197 492.6549,549.3885 499.8438,557.6279 506.7973,567.1752 515.2592,580.5739 524.637,598.018 546.846,643.1474 556.4829,661.5691 567.7779,681.1861 580.1502,699.53 586.655,708.07 594.7679,717.7494 600.9528,724.1839 607.7902,730.3788 613.5625,734.5312 618.7929,737.1935 622.6705,738.1132 624.4778,737.8898 625.6674,737.3024 626.7952,736.0444 627.4613,734.2868 627.7089,732.1066 627.5625,729.3906 626.082,722.8721 622.9642,714.7954 618.2758,705.1897 612.2047,694.5125 604.9861,683.2137 596.1719,670.5469 579.6706,648.8667 557.9465,622.6742 534.1382,596.0777 489.9529,548.5778 483.565,540.9623 481.875,538.625 481.1938,537.1353 481.4233,536.8062 482.5,537.25 486.0276,540.1353 494.5741,549.4954 503.6146,562.014 509.5933,571.832 514.9333,581.5294 522.8145,597.3353 542.268,641.0595 553.3315,663.8821 565.8967,686.6585 572.6387,697.4004 579.1097,706.9582 587.3872,717.8634 595.6159,727.741 604.5377,737.0976 611.9537,743.7778 619.8901,749.5137 623.6269,751.7366 626.5946,753.1104 629.3594,753.9671 632.1951,754.3047 634.3268,754.0313 636.0548,753.2135 637.3856,751.7527 638.2827,749.6224 638.68,746.8167 638.5729,743.8697 637.9458,740.119 636.8334,735.9246 633.03,725.794 627.6945,714.8486 620.717,702.7152 612.0085,689.1142 602.0181,674.8152 593.0339,662.8273 582.6313,649.6332 560.8635,623.7831 529.8046,589.7366 480.2474,537.8352 472.1539,528.3869 469.9329,525.2472 469.1903,523.5075 469.4363,522.7346 470.3128,522.8112 474.5437,525.2755 480.0554,530.0098 484.9503,535.001 490.1225,541.3054 494.9775,547.8685 500.2315,555.9306 504.1016,562.4941 510.9862,576.4613 516.2806,588.6165 537.0977,644.2539 543.5432,659.8115 548.3307,670.495 555.4648,684.8984 564.301,700.6602 570.8471,711.1551 579.4332,723.6059 588.9559,735.9024 600.4265,749.0755 610.5817,759.0794 621.0358,767.8554 630.9817,774.4931 635.8654,777.0842 639.8252,778.7367 643.5784,779.7171 647.0102,779.9777 650.0172,779.4814 652.25,778.375 654.1849,776.2995 655.3883,773.5561 655.98,769.9859 655.9232,766.0571 655.2477,761.4421 653.9911,756.4018 649.6453,744.2924 643.5015,731.2626 635.875,717.75 624.8774,700.601 612.0128,682.3169 600.7359,667.4251 588.856,652.6627 574.3692,635.5088 559.151,618.2681 543.5715,601.3758 525.0866,582.1695 476.2342,533.1722 462.4607,518.9659 453.9178,509.359 451.2425,505.4954 449.9647,502.6979 450.1094,501.168 450.785,500.773 451.8232,500.7241 454.1981,501.3848 458.2562,503.4491 465.75,508.625 470.8497,512.9784 475.3365,517.3339 482.3439,525.558 487.4509,532.7041 493.9352,543.9815 498.1976,553.4728 501.4271,562.0788 504.1917,571.2668 505.8771,578.1743 508.5577,591.6501 511.6914,616.1661 515.0296,654.0335 516.9734,670.1709 518.8867,681.5547 521.9004,693.9624 524.189,701.782 526.5208,708.2312 529.8641,716.4493 533.908,724.9392 543.8376,742.2906 554.0741,757.4529 561.899,767.7643 572.5195,780.7734 582.4573,791.7476 594.1571,803.8631 605.1771,814.1929 617.9608,825.2509 628.34,833.4016 639.2855,841.1555 650.0806,848.0035 659.5966,853.1794 669.1725,857.4144 678.2097,860.376 686.218,861.9397 693.1114,862.1263 696.5114,861.6728 699.3471,860.9207 701.9788,859.8208 704.3788,858.3544 707.9387,854.8504 710.3762,850.5291 711.9583,845.0414 712.589,838.335 712.1931,830.7817 710.8127,822.5291 708.5111,813.7209 705.166,803.9585 700.7993,793.4187 695.3938,782.036 689.1081,770.1267 681.8344,757.4941 673.8104,744.5629 665.122,731.45 655.5818,717.8881 645.6362,704.509 626.3039,680.1158 604.7272,654.695 581.3565,628.789 556.9873,603.2919 528.7987,575.4565 498.2324,546.6894 469.7969,520.9764 420.518,477.5951 403.3817,461.8906 395.9941,454.6041 390.9222,448.9637 387.346,444.0382 385.4444,439.9583 385.221,437.1608 386.2635,435.1222 388.5332,433.6321 392.1692,432.6941 397.1444,432.4242 403.4389,432.8526 410.641,433.8489 417.5166,435.2881 426.7597,437.918 434.0082,440.3778 440.2766,443.0504 447.1188,446.4203 452.0431,449.4079 456.8819,453.0234 460.2596,456.7184 460.9147,457.8131 460.938,458.598 459.912,458.562 458.3597,457.6879 454.0561,453.406 450.509,448.7548 445.6838,441.3271 441.4657,433.7147 436.7465,424.1258 433.1748,415.9032 429.6508,406.7145 426.5845,397.7106 423.7569,388.1781 421.1598,378.0221 418.9425,367.8047 417.2588,358.2016 415.9738,348.6827 415.059,338.9843 414.6036,330.1088 414.5642,321.6476 414.9031,313.2324 415.652,304.5622 416.7333,296.565 418.1094,289.5639 419.875,282.8438 422.0171,276.4688 424.5229,270.5032 427.3507,265.071 430.6512,259.9857 434.3022,255.4822 437.984,251.8578 441.8911,248.8431 446.0026,246.4729 450.6216,244.6311 455.0626,243.5616 459.6098,243.1187 463.8184,243.2811 467.9035,243.9747 472.3503,245.3074 476.7556,247.2055 481.086,249.645 485.3077,252.6018 489.3872,256.052 493.2816,259.9497 497.1266,264.4412 500.7376,269.3384 504.093,274.6036 507.1714,280.1991 509.9628,286.0892 514.9026,299.1216 518.4564,312.3798 520.9733,327.1221 522.2083,341.424 522.2571,356.4168 521.1597,372.3909 518.8754,387.91 515.597,403.0204 511.0682,418.21 506.875,429.5 501.3205,441.7064 496.1506,450.5909 490.9395,457.4563 488.199,460.319 485.4844,462.5938 482.736,464.396 479.7545,465.867 477.153,466.659 474.5162,466.9923 471.375,466.875 468.6703,466.3374 465.9371,465.334 462.7928,463.6661 456.9711,459.2664 450.3162,452.188 444.6813,444.416 437.3507,431.9481 432.2799,421.6749 425.7516,405.9026 421.1809,392.4779 417.1379,377.8279 414.0271,363.8121 411.7464,349.5866 410.2132,334.9175 409.6349,322.2316 409.8931,309.5741 411.0104,296.7949 412.8967,285.1948 415.6306,274.589 419.24,264.7912 423.5428,256.3011 428.3806,249.2697 434.1498,243.0971 440.5086,238.2896 447.1023,235.0592 450.7192,233.9196 454.4216,233.1653 459.3246,232.7707 463.9003,233.0056 468.4829,233.8268 473.2501,235.2986 478.1759,237.4296 483.0312,240.1562 487.7612,243.4601 492.0139,247.0483 496.2312,251.2879 500.4848,256.2731 504.4873,261.6744 508.0092,267.1254 511.2541,272.8857 514.1961,278.925 519.5725,292.759 523.5062,306.6737 526.1445,320.9719 527.7495,336.9897 528.0486,352.6604 527.075,369.8432 525.0535,385.7586 521.2931,404.4885 516.8852,420.33 511.6188,435.253 505.6484,449.1252 500.2503,459.2218 494.2102,468.1008 491.0941,471.8054 488.2274,474.6531 485.333,476.9469 482.1679,478.816 479.2647,479.9436 476.3015,480.5332 473.2758,480.6081 470.1182,480.1046 466.5192,478.8432 462.844,476.9628 460.0466,475.0446 456.947,472.3615 449.0174,463.8358 441.5068,453.1809 434.2885,440.7007 427.2212,425.8602 421.2889,411.1324 415.7285,394.5574 411.5517,379.8133 408.1365,364.3639 405.2138,346.5771 403.652,331.8875 403.0412,316.6379 403.4246,301.8612 404.7068,288.6266 406.9788,276.0531 410.2563,264.219 414.3421,253.8265 419.5369,244.2883 425.4237,236.3693 428.6584,232.9439 432.0692,229.9103 435.541,227.3596 439.194,225.1643 443.3321,223.2052 447.2442,221.8224 451.2494,220.8479 455.3279,220.2942 460.5933,220.2181 465.6816,220.8207 471.1908,222.1477 476.3486,224.0034 481.7886,226.6198 486.7812,229.6556 491.6218,233.2419 496.4881,237.5644 501.3026,242.5428 505.8557,247.9764 510.1172,253.8305 513.8579,259.7331 517.284,265.9528 520.7092,273.1621 523.7398,280.5307 526.5252,288.4615 528.7973,296.1835 530.5965,303.6307 533.4162,320.3857 534.9106,337.7511 535.0017,355.6333 533.8083,373.2704 531.3792,390.2196 527.2292,409.9546 522.0462,428.3524 515.6953,446.1597 508.7916,462.4392 502.0311,475.2965 498.6323,480.6881 495.0743,485.616 491.7109,489.5645 488.5394,492.5958 485.6724,494.7052 482.4175,496.3911 479.2542,497.4268 475.9057,497.8275 472.4812,497.5439 468.8996,496.6421 464.9572,494.8117 460.8135,492.0918 456.8948,488.9025 452.7965,484.8146 448.2668,479.561 444.0674,474.0662 439.8668,467.7701 435.3546,460.2424 426.6988,443.8261 418.5116,425.2136 411.7405,406.7398 405.636,386.4845 401.452,369.3688 398.2411,351.8734 395.8612,332.9248 394.8189,316.5315 394.8979,300.1317 396.0968,284.385 398.3784,269.7205 401.7179,256.3897 406.1878,244.0331 408.7619,238.4837 411.6713,233.1573 414.5538,228.6666 417.9212,224.1852 421.5383,220.0965 425.3813,216.4264 429.4266,213.2003 433.3431,210.6246 437.7111,208.3272 442.0599,206.5962 446.345,205.3755 451.1169,204.5246 455.9885,204.1675 460.9238,204.3079 467.0318,205.169 472.7361,206.6715 478.6414,208.9607 484.6887,212.0063 490.6148,215.699 496.3661,220.0172 501.8893,224.9397 507.1309,230.445 512.2163,236.7173 516.94,243.3966 521.3126,250.4537 525.4829,258.1847 529.0641,265.8689 532.2229,273.7885 535.1558,282.5092 537.6462,291.3276 539.7129,300.222 541.3657,309.1491 542.6141,318.0653 543.4998,327.2246 544.0734,336.9836 544.266,346.929 544.0698,356.2747 543.4766,365.7461 540.964,386.6568 537.2342,406.469 531.1912,430.1419 524.1728,451.4219 515.2141,474.2718 507.2085,491.4859 503.4665,498.4896 500.1754,503.8429 496.2745,509.4064 492.5808,513.8181 489.0754,517.1377 485.7642,519.4431 482.353,521.0175 478.7298,521.7537 474.9125,521.7208 471.5129,520.9893 467.6278,519.3312 463.0315,516.577 457.8071,512.268 451.691,506.0269 446.8494,500.2356 441.5848,493.008 435.7407,484.1015 430.1694,474.6577 424.6082,464.2558 418.971,452.721 414.0584,441.6094 409.3372,429.8763 404.5555,416.8445 400.4468,404.5133 396.7496,392.1246 393.5076,379.8804 390.6484,367.535 388.2721,355.52 385.3521,335.8509 383.6345,316.3929 383.1269,297.4941 383.8831,280.3663 385.924,263.644 389.2808,247.6704 391.3738,240.3535 393.652,233.7359 396.4125,227.0104 399.3335,220.9617 402.7423,214.9189 406.2451,209.5909 410.2379,204.3916 414.2619,199.9363 418.6499,195.8469 422.9917,192.4919 427.5494,189.5972 432.6428,187.0154 437.9229,184.9805 443.3579,183.5018 448.9163,182.589 454.1876,182.2558 459.7971,182.4548 465.4138,183.1971 471.059,184.4646 476.6977,186.2455 484.7212,189.6816 492.2188,193.9062 499.4505,199.0171 506.6364,205.2428 513.806,212.6126 520.5141,220.7166 526.9155,229.7973 532.5112,239.1449 537.5977,249.226 542.3904,260.4389 546.368,271.5311 549.7805,283.1514 552.4817,294.8767 554.4752,306.6137 555.9632,319.3969 556.7711,331.941 556.9542,344.2185 556.5598,356.3554 555.5324,369.9442 553.9644,383.2718 551.9439,395.9615 549.3158,409.1065 546.0625,422.8401 542.2935,436.6295 536.0077,456.5716 526.8753,482.2175 518.3833,504.2857 509.6833,525.1487 504.798,536.0032 500.2747,544.6339 495.5751,551.7772 491.4038,556.4439 487.7344,559.0876 483.5921,560.6483 479.8304,560.9437 475.481,560.13 470.8102,558.0417 465.2966,554.4419 460.3495,550.269 454.5739,544.4728 449.2407,538.3333 443.2073,530.4817 436.8036,521.3735 431.2321,512.6119 424.7953,501.5776 417.5519,488.3071 412.0865,477.4464 406.5362,465.5289 396.2247,441.0522 387.8253,417.8707 380.0044,392.2457 373.764,367.2685 369.1223,342.8114 365.9562,318.5396 364.9582,306.8292 364.3817,295.6871 364.1996,284.5143 364.4155,273.7544 365.8122,254.781 368.518,236.742 372.3287,220.7061 374.7287,213.0666 377.4611,205.69 380.521,198.6113 383.9035,191.8653 387.6034,185.4867 391.408,179.7992 395.4903,174.5047 399.9287,169.5476 404.5019,165.1655 409.6261,160.9825 415.0012,157.3032 420.2689,154.3156 426.0659,151.6622 431.6904,149.67 437.8238,148.106 443.7244,147.1689 449.7298,146.7648 455.8461,146.9005 462.2232,147.5836 468.6286,148.8032 475.0328,150.5456 481.7588,152.9366 488.4159,155.8783 494.6274,159.1585 500.7164,162.9045 506.6533,167.1025 514.3133,173.3853 521.5447,180.2335 528.4223,187.6617 535.1448,195.9141 541.197,204.3402 546.9906,213.4998 552.2552,223.0232 556.9566,232.8018 561.4336,243.4746 565.4732,254.6708 568.9227,265.9718 571.7886,277.3113 574.1413,288.9866 575.9076,300.6724 577.2047,312.9197 577.9691,325.3157 578.042,345.9412 576.6261,366.6979 573.6381,389.286 569.2628,411.834 564.4678,431.2838 558.7395,451.082 550.7998,475.5769 537.3524,515.2691 531.593,533.81 525.8804,555.0599 523.3999,566.8277 521.9633,575.2294 520.1695,589.4015 519.3625,598.9443 518.9191,610.2797 519.001,623.6043 519.9738,638.1462 521.7156,651.7818 523.8944,664.1027 527.0375,676.5689 532.1179,692.0467 538.4844,707.1505 547.0015,723.4172 553.0235,733.4941 563.1431,748.5461 575.5583,764.8306 586.8199,777.8842 600.1229,791.8177 613.8337,804.4234 628.2182,816.2135 641.1065,825.1507 653.6555,832.2994 659.3553,834.9235 664.9832,837.0432 670.452,838.5851 675.3356,839.438 679.9337,839.6639 683.7863,839.2584 687.1397,838.2449 690.1133,836.5788 693.0865,833.6643 695.3012,829.6891 696.6421,824.5873 697.0051,818.7844 696.4411,811.8618 694.9606,804.1773 692.6188,795.8772 689.3168,786.6793 685.4158,777.5122 680.625,767.625 674.9762,757.1173 668.4491,745.9306 661.0795,734.1479 653.1225,722.1729 635.5541,697.7439 619.3078,677.0229 599.8396,653.8539 578.9646,630.4107 556.926,606.9202 533.7552,583.4519 505.1878,555.8893 477.4024,530.0136 436.5788,492.9755 421.6361,478.8263 414.0628,471.1468 408.7124,465.1408 405.2083,460.2361 403.5416,456.5414 403.3012,454.9891 403.4714,453.7364 404.125,452.625 405.1543,451.8623 408.6446,450.982 413.8339,451.1496 420.9992,452.5846 429.1249,455.0084 436.1165,457.7714 443.5876,461.4138 449.3297,464.8326 455.7428,469.4712 460.2218,473.3173 463.9082,477.2969 467.3124,481.9031 469.3194,486.088 470.1348,489.5276 469.989,491.087 469.5469,492.2188 468.4814,493.2098 466.9559,493.5674 465.1829,493.1991 462.4937,491.9815 457.2811,487.949 451.5648,481.9259 444.0681,471.7376 439.0725,463.8719 432.0331,451.0413 426.4677,439.4766 421.1587,426.9181 416.1022,413.5829 412.0018,401.0291 408.0681,387.1423 404.8017,373.9225 402.2319,361.1921 400.1009,347.5948 398.5585,334.0273 397.7468,322.8503 397.4614,311.6905 397.7046,300.9465 398.4794,290.3487 399.75,280.375 401.4475,271.3011 403.7655,262.1704 406.4999,253.8424 409.7256,246.0242 413.4321,238.8108 417.5101,232.4384 421.9944,226.8047 427.1741,221.6294 432.4504,217.5302 438.0341,214.2841 443.6983,212.0052 449.4473,210.5605 454.9874,209.9012 460.6233,209.9246 466.3062,210.6403 471.9874,212.0582 477.6283,214.1827 483.6888,217.2042 489.3134,220.7063 494.7734,224.8053 500.0187,229.4761 504.7306,234.3901 509.4118,240.0752 514.154,246.669 518.5421,253.6583 522.5536,261.007 526.166,268.6791 529.2211,276.2709 531.9553,284.2536 534.4032,292.671 536.447,301.1563 538.0914,309.6759 539.3413,318.1964 540.7955,336.3557 540.9849,345.9445 540.7902,355.6899 539.2775,375.3812 536.3903,394.9247 532.0479,414.5804 526.5237,434.2487 518.4609,457.0367 510.2968,475.9596 505.74,485.02 501.6296,492.3693 498.0188,497.9232 494.3884,502.6879 490.7461,506.6377 487.2929,509.5317 483.674,511.5945 480.132,512.7792 476.7635,513.159 472.8307,512.7905 468.7768,511.5783 464.415,509.2223 459.3682,505.5605 454.7188,501.2188 449.1748,495.0339 444.3067,488.8691 439.261,481.547 433.798,472.7578 429.33,464.887 424.652,455.7562 414.8551,434.0552 407.3778,414.0 400.2103,391.0484 395.1077,370.5268 391.1016,349.1017 388.6183,329.6409 387.4728,310.191 387.7002,291.133 389.2835,273.3716 390.6308,264.805 392.2764,256.8191 394.2752,249.0778 396.6297,241.638 399.2048,234.8851 402.0498,228.6218 405.1822,222.8185 408.862,217.0724 412.8789,211.7944 416.9447,207.287 421.5431,203.0211 426.1107,199.5306 430.889,196.5795 435.9279,194.1608 441.2243,192.2887 446.6833,190.9991 452.2648,190.2977 457.9291,190.19 463.636,190.682 469.3457,191.7792 476.9465,194.1886 484.785,197.7589 492.4531,202.3438 499.8628,207.881 506.9258,214.3084 513.5245,221.5159 519.9086,229.7217 525.7636,238.5395 531.0437,247.8829 535.7028,257.6659 539.6936,267.7758 543.4132,279.1078 546.4632,290.5392 548.8434,302.0087 550.554,313.4553 551.7034,325.8023 552.2778,338.2368 552.2705,350.3625 551.7029,362.1258 550.5282,374.34 548.7016,387.8754 546.3815,401.0662 543.4295,414.5495 539.8036,428.6969 535.066,444.7513 529.6396,460.9765 522.9474,478.9274 515.7599,496.683 509.3204,511.1944 503.326,523.212 498.0638,531.9498 493.3409,538.1255 489.605,541.665 485.9031,544.0629 482.3594,545.3269 478.5538,545.5922 474.2171,544.8617 469.8148,543.0417 464.8236,539.9952 459.9373,536.0453 454.3168,530.5067 449.0445,524.5028 443.3522,517.0678 437.1087,508.036 431.4369,498.9923 425.4953,488.6709 418.9601,476.4933 413.9023,466.2493 404.0059,443.6498 395.0512,419.9713 387.7255,396.5655 381.3541,371.6401 376.6876,348.0014 373.4686,324.4681 371.8261,302.0215 371.6163,291.5967 371.796,281.1862 373.1187,262.8864 375.6504,245.8447 379.2752,230.3393 381.5686,222.9552 384.1908,215.8378 387.1339,209.0207 390.3895,202.5378 393.9496,196.423 397.5958,191.0002 401.5009,185.9667 405.6581,181.3515 410.1289,177.1221 414.689,173.469 419.4712,170.2446 424.7901,167.2925 430.3053,164.8585 435.6283,163.0612 441.4411,161.6759 446.9918,160.8893 452.6159,160.6115 458.667,160.8792 464.6508,161.6808 470.6579,163.0007 476.6588,164.824 482.9733,167.2871 489.213,170.2808 495.0061,173.5796 501.0007,177.5551 506.5,181.75 513.846,188.2184 521.0948,195.6336 527.9214,203.6916 534.2788,212.3142 540.1202,221.4234 545.2205,230.5949 550.0371,240.6528 554.4063,251.2613 558.1908,262.0597 561.4989,273.3477 564.284,285.062 566.4425,296.7605 568.1296,309.3551 569.1993,321.7326 569.7118,334.5893 569.6323,347.4859 568.2987,368.3788 565.4822,389.7706 561.1339,411.8863 554.8308,436.9851 551.0812,449.7236 545.0794,468.3915 528.6913,515.5047 520.6357,540.4702 515.4206,558.7945 506.3173,594.8479 503.3333,604.6883 501.2005,610.0818 499.0698,614.0697 496.3722,617.6314 493.7178,619.8093 490.9717,620.9314 487.6024,621.2556 484.7159,620.7756 481.0,619.375 477.2316,617.2576 473.0377,614.2235 468.697,610.6335 464.393,606.4647 453.023,593.7291 439.75,576.125 429.8135,561.3599 418.3757,542.5516 407.9524,523.9671 397.6058,503.793 387.4945,482.37 378.7334,461.9272 370.0233,439.4252 361.9068,416.118 355.5105,395.484 349.8239,374.3533 345.8377,357.1899 342.3946,339.8882 339.5305,322.5441 337.3837,305.9542 335.9348,290.0661 335.0968,274.0399 334.9175,258.3662 335.397,243.1442 336.5299,228.4593 338.3113,214.3454 340.6999,201.1483 343.6915,188.6994 347.3484,176.6786 351.6704,165.1705 356.6575,154.2595 362.1231,144.3386 368.213,135.1341 375.0297,126.6064 382.1109,119.3175 390.0393,112.6391 398.4951,106.9058 407.4192,102.1556 416.7526,98.4263 426.072,95.8356 435.6636,94.2607 445.4745,93.7355 455.7604,94.2971 466.0059,95.8905 476.2742,98.4796 486.8458,102.1677 497.289,106.8436 507.5262,112.4676 516.1718,118.0782 524.5539,124.3456 532.8462,131.4379 540.89,139.189 548.561,147.4496 556.0745,156.4671 563.1455,165.9187 569.9568,176.0715 576.0593,186.2335 581.8227,197.0008 586.8635,207.6429 591.5632,218.9249 595.8683,230.7433 599.5957,242.5925 602.857,254.7988 605.6234,267.3118 608.0873,281.5199 609.8662,295.8531 610.9775,310.5566 611.4208,325.4046 611.1855,340.5269 610.2852,355.4644 608.7241,370.514 606.4507,386.0511 603.8519,400.1394 600.6732,414.5513 597.0223,428.7981 592.7693,443.4654 583.6132,471.3443 561.5407,532.6635 557.7706,544.4411 554.6047,555.8052 551.3358,570.4052 549.1153,585.4372 548.2283,598.1813 548.437,611.4284 549.4968,622.5186 551.4879,634.4974 553.975,644.9046 557.3486,655.9247 561.4333,666.9033 566.6426,678.8698 571.672,688.6121 578.4009,700.1883 585.4123,710.7083 593.7467,721.8076 601.5411,730.6655 609.9016,738.9163 617.5082,744.8832 624.299,748.7982 627.1539,749.8126 629.7285,750.2618 631.9363,750.1143 633.6839,749.3468 635.0037,747.9145 635.7799,746.126 636.2015,743.3662 636.0913,740.408 634.4707,733.0258 631.019,723.7945 626.0266,713.5306 618.928,701.2042 610.2705,687.6215 601.0105,674.3255 581.4242,648.9342 559.9427,623.2765 529.9604,590.1787 483.563,541.52 474.8331,531.2548 472.6629,528.1996 472.0218,526.637 472.3147,525.992 473.1276,526.1123 477.127,528.5664 482.3505,533.2889 487.259,538.4952 496.5407,550.5081 505.7204,565.4571 511.5131,576.7069 515.546,585.424 522.3653,601.7096 539.482,645.617 549.1728,667.3979 556.4008,681.7796 562.232,692.397 570.9239,706.6369 577.9274,716.9155 588.2998,730.7188 597.9506,741.9668 608.1621,752.498 618.8837,761.7399 623.9793,765.5342 628.0195,768.1225 632.3281,770.4062 636.4171,772.0909 640.1665,773.1396 643.2342,773.4544 645.8568,773.0548 648.0911,771.9395 649.8411,770.0785 650.8829,767.8671 651.4874,764.6381 651.4818,760.9542 650.8942,756.5731 649.7951,751.9065 645.8436,740.7667 639.5543,727.5231 631.2968,712.8949 621.6362,697.7977 609.8675,681.124 598.5188,666.0445 586.4911,650.9198 574.7872,636.9669 561.1409,621.4745 544.6094,603.3281 527.9783,585.7192 467.3318,524.059 458.375,513.875 456.0963,510.6082 454.9664,508.035 455.1378,506.6802 456.201,506.377 458.5488,506.9739 461.6592,508.5216 470.0642,514.5923 477.4804,521.6452 483.4659,528.5696 489.5279,537.0371 493.7109,543.926 499.341,554.8415 501.8264,560.4286 505.6331,570.5209 510.1267,585.1303 514.4463,602.8016 523.9195,645.5784 528.1855,661.4649 532.9916,675.9122 540.0976,693.6816 547.8685,709.5381 558.9979,728.5925 567.1243,740.6132 574.7466,751.0018 580.6488,758.4623 588.8883,768.0824 597.3855,777.3553 605.6283,785.5926 614.6971,793.9463 622.3981,800.4718 630.0793,806.3079 638.2253,811.8277 646.3793,816.6745 653.1587,819.9941 659.8028,822.4935 666.1041,824.0379 671.6364,824.4964 676.3795,823.7848 680.1678,821.9791 682.9932,819.2941 685.0644,815.5688 686.1823,811.2347 686.4939,806.1309 686.0174,800.1048 684.6964,793.1243 682.5952,785.6004 679.616,777.2331 675.9227,768.5131 671.6515,759.6524 666.4641,749.9045 660.4795,739.5405 646.6598,717.894 630.6111,695.3637 615.5101,675.9295 598.0812,654.924 579.3772,633.6151 559.2805,611.8569 536.5057,588.4188 510.5017,562.7797 486.5486,539.9758 447.0476,503.2876 431.9116,488.677 424.9914,481.5159 420.4885,476.2896 417.3136,471.8228 415.6181,468.2618 415.3419,466.5859 415.6404,465.3001 416.6351,464.2836 418.2188,463.6875 420.2739,463.4797 423.1973,463.6978 429.6696,465.2518 437.4122,468.1716 445.1479,472.0671 452.3777,476.5535 459.1883,481.8294 464.303,486.5309 468.3373,491.139 472.2134,496.5331 474.7921,501.4421 476.8231,506.9247 477.5496,511.4518 477.1985,515.6551 476.5093,517.4376 475.6276,518.7542 474.4729,519.6775 473.0623,520.2042 469.872,520.1245 465.8044,518.6092 461.691,515.831 456.4836,511.3108 452.2006,506.6974 445.4347,498.1205 440.5685,491.1297 435.2372,482.5769 429.5301,472.6323 420.0894,453.5533 410.2607,430.4223 405.8775,418.5356 401.758,406.2081 395.7866,385.648 391.0235,364.7601 387.32,342.7406 385.1503,322.4112 384.343,302.2038 384.9296,283.2393 385.7263,274.3449 386.8425,266.0845 388.315,257.9954 390.1398,250.122 393.1138,240.0362 396.559,230.847 400.5717,222.2669 404.8995,214.8495 410.0022,207.8007 415.6305,201.5629 421.7271,196.2099 427.9309,191.993 434.3441,188.7613 441.3733,186.3668 448.6685,184.9756 456.149,184.5877 463.734,185.203 471.3429,186.8216 478.9785,189.4661 486.448,193.0289 493.7442,197.4688 500.801,202.7315 507.8383,209.0415 514.2011,215.8166 520.4996,223.689 526.448,232.3284 531.8642,241.4727 536.881,251.3857 541.1215,261.2966 544.8863,271.8507 548.1564,282.9267 550.8763,294.4406 552.8834,305.5917 554.2883,316.6945 555.2079,329.1007 555.5563,341.5278 555.3327,353.9866 554.5282,366.4108 552.9852,380.2112 550.9083,394.0354 548.5556,406.3695 545.8017,418.1897 541.8408,433.0366 537.5488,447.346 530.7134,467.5937 522.0906,490.7193 514.8466,508.6151 507.9719,524.313 502.375,535.75 497.5681,543.9288 493.1396,549.6017 488.4091,553.6075 486.0047,554.9114 483.5175,555.7184 480.5422,556.1489 478.1465,556.0472 475.2542,555.3958 472.1761,554.2365 469.1134,552.6836 466.1356,550.7377 458.9431,544.7423 452.2504,537.6757 443.7733,527.0883 435.9162,515.739 427.2977,501.6903 419.9395,488.3721 412.1283,472.7329 404.3372,455.5823 397.6128,439.1367 391.4249,422.2604 385.8333,405.1518 380.9518,388.1463 377.5645,374.6869 374.5716,361.1241 371.995,347.5329 369.8786,334.1166 368.3767,321.8139 367.2991,309.3485 366.6901,297.1786 366.5397,284.9989 366.8593,273.2572 367.6403,261.8984 368.8696,251.1827 370.5937,240.6802 372.8169,230.4563 375.5438,220.5767 378.6497,211.4496 382.2304,202.7611 386.3226,194.5101 390.5141,187.4654 395.3829,180.6182 400.6944,174.3793 406.4117,168.7946 412.4978,163.9096 418.9158,159.7703 425.6285,156.4224 432.3647,153.9774 439.4575,152.278 446.7442,151.3634 454.5469,151.2404 462.446,151.9676 470.0035,153.4434 477.5418,155.6767 485.0092,158.6606 493.9401,163.2646 502.5375,168.7744 510.8384,175.1642 519.0515,182.632 526.5413,190.5877 533.5307,199.2017 540.3502,208.9691 546.6177,219.3037 552.2663,230.0421 557.428,241.4556 561.9004,253.1282 565.6679,264.9734 568.9673,277.838 571.6461,291.1674 573.6367,304.7332 574.8941,318.0859 575.4029,328.6417 575.4872,339.6873 575.1534,351.2863 574.3989,362.9109 573.2711,374.1443 571.7598,385.3293 567.3091,409.3344 562.391,429.8608 556.1971,451.3858 549.038,473.4772 535.1961,513.6636 527.0074,540.113 521.534,562.0414 518.6306,576.8635 517.1426,586.4087 515.4177,602.7437 514.285,622.0973 514.1284,645.1715 514.5634,656.963 515.5781,670.6094 517.5612,685.6388 519.8431,696.918 522.4277,706.0222 526.6876,717.662 532.7488,730.7247 541.5068,745.8615 547.8278,755.3419 553.0824,762.6106 565.7631,778.6716 580.75,795.5198 595.1278,809.9172 611.545,824.8578 627.0212,837.2865 642.2473,848.0832 656.18,856.393 662.9299,859.83 669.6617,862.8329 675.892,865.1712 681.5353,866.8392 687.037,867.982 692.321,868.532 696.9659,868.4527 701.2963,867.7495 704.9201,866.5179 708.2572,864.6196 711.986,861.0728 714.8352,856.2452 716.5578,850.4593 717.2026,843.4 716.6997,835.5656 715.1753,827.145 712.5287,817.4349 708.8617,806.9608 704.2334,795.8597 698.7072,784.2584 692.35,772.2732 685.2319,760.0111 676.9957,746.8969 667.7797,733.1562 657.6711,718.9122 646.7425,704.2685 626.3093,678.5335 604.5945,653.0714 581.2284,627.4594 555.0295,600.3241 525.8346,571.6163 495.5887,543.3232 469.7293,520.1568 414.8837,472.2583 399.6451,458.5092 391.943,450.9499 386.0881,444.5049 382.2679,439.3918 380.2179,435.2969 379.8736,432.5347 380.7063,430.4333 382.8372,428.7409 385.9343,427.6933 390.3695,427.1268 395.8564,427.1141 402.2439,427.6541 409.5532,428.7736 417.9856,430.4836 425.2425,432.3394 440.7084,437.6845 447.2257,440.8535 452.5873,443.9105 457.338,447.556 458.8906,449.4688 457.204,448.4361 453.2617,443.9395 448.2045,436.4841 445.2811,431.4466 437.7688,415.9953 430.6174,397.0942 425.9381,380.6047 422.2662,363.4152 419.9241,345.1178 419.3031,336.7213 419.0634,328.3414 419.6443,313.1843 420.4293,305.9652 421.5381,299.2568 423.0967,292.4091 424.9167,286.2585 427.0601,280.489 429.5193,275.1576 432.2862,270.2908 435.1365,266.1892 438.483,262.2989 441.8243,259.2459 445.5463,256.6553 449.6522,254.5541 453.9347,253.0915 457.9558,252.3476 462.0128,252.208 465.9215,252.6353 470.1896,253.6478 474.4531,255.2303 478.3113,257.1817 482.0788,259.612 485.9049,262.6723 489.5557,266.1494 493.0354,270.0264 496.5496,274.5938 502.4939,284.2609 507.8992,295.8809 511.9436,307.9792 514.9811,321.7825 516.8033,335.2511 517.4883,349.8961 517.0699,363.9398 515.2992,379.2162 512.5884,393.732 508.5693,408.7435 503.8738,421.9091 499.5593,431.4166 494.7658,439.8271 489.9039,446.3629 485.1111,451.0085 479.7506,454.299 475.2987,455.5389 472.2923,455.6294 469.3633,455.2711 466.9472,454.5523 464.1504,453.2607 458.2461,449.2383 452.347,443.278 446.8445,436.1879 441.1858,426.8974 435.8599,416.5626 430.8022,404.5564 426.3117,391.9078 422.5766,378.7757 419.579,365.6981 417.5117,353.9189 415.9827,341.3104 415.1342,328.5386 415.1129,317.6775 415.8208,306.5721 417.3123,295.4846 419.2896,286.4486 422.2645,277.125 425.9615,268.628 430.1136,261.4521 434.8041,255.4842 440.0723,250.6108 445.8087,246.9571 452.0801,244.5603 458.3914,243.5184 462.9354,243.5379 467.1097,244.1149 471.4384,245.2951 475.7059,246.993 480.2566,249.3826 484.3887,252.1131 488.3809,255.3271 492.1846,259.0159 496.2596,263.7005 500.0544,268.7116 503.6089,274.105 506.8749,279.8447 509.6425,285.5307 512.2478,291.8235 516.6909,305.495 519.6244,318.8752 521.6608,334.875 522.2914,349.1601 521.7089,364.6448 519.9414,380.5755 516.8661,396.9913 513.0178,411.6925 507.899,426.6346 502.9954,437.9259 497.9126,447.374 492.6931,454.9327 487.0825,460.954 484.6321,462.9013 481.8495,464.6036 479.2639,465.7637 476.7049,466.442 473.7138,466.6582 470.2639,466.3193 467.6006,465.6397 464.9928,464.5072 461.6258,462.4957 458.1961,459.9855 452.4601,454.2863 445.5401,445.4764 439.2305,435.2012 433.0464,423.0465 427.0947,408.8695 421.991,394.4816 417.765,379.6005 414.5627,365.4906 412.3612,352.6388 410.7262,338.548 409.8841,324.6615 409.9333,312.2993 410.8026,300.1099 412.4922,288.3409 414.8249,278.1774 418.1571,268.2184 422.3114,259.1909 426.9767,251.6442 432.3595,245.2371 438.3901,240.0652 444.6103,236.4411 451.5004,234.1144 458.8764,233.1966 463.7604,233.4023 468.6526,234.2505 473.1299,235.6113 477.9838,237.7115 482.7387,240.365 487.391,243.5722 491.8874,247.3154 496.1749,251.5768 500.222,256.346 504.3798,261.9836 508.2468,268.0142 511.6052,274.0582 514.4728,280.0347 517.0083,286.2279 519.7504,294.079 522.0135,301.7093 525.2931,316.513 527.1984,331.7908 527.9097,348.0854 527.3278,364.265 525.4476,381.7556 522.3097,398.8954 517.9817,416.0544 512.7232,431.7915 507.0031,445.5956 501.523,456.496 495.4255,465.9563 489.3744,473.0336 486.3594,475.5938 483.3027,477.5706 480.2988,478.9968 477.3432,479.8252 474.3166,480.1183 470.9871,479.8504 468.269,479.1018 465.1389,477.6944 461.2382,475.3236 457.7931,472.6606 454.2573,469.3122 450.324,464.9396 443.0433,455.0767 435.3594,442.1487 428.1406,427.4194 421.4582,411.3229 416.1287,395.3848 411.1531,377.2806 407.8994,361.9719 405.4731,346.3201 403.9235,330.9564 403.3505,316.4539 403.683,302.7734 404.9263,289.6139 407.1255,277.1513 410.207,265.6982 414.2245,255.1193 419.0532,245.849 424.6988,237.8089 427.9407,234.1583 431.1071,231.1418 434.432,228.4868 437.9068,226.2149 441.5523,224.3232 445.0458,222.918 448.9939,221.7619 453.0312,221.0156 457.1361,220.681 461.2866,220.7598 466.6011,221.4609 471.8489,222.8104 477.1927,224.8319 482.7983,227.6613 487.9501,230.9375 492.9268,234.7811 497.6752,239.1653 502.3909,244.2926 506.7878,249.7993 511.1168,256.037 514.9098,262.3336 518.3575,268.9445 521.672,276.399 524.7804,284.5088 527.3733,292.43 529.5717,300.4836 531.2818,308.2691 532.6034,316.179 534.491,334.6156 534.8631,351.754 533.8028,370.3874 531.504,388.2382 527.5477,407.6413 522.8803,424.6992 516.286,444.032 509.9211,459.2646 502.4992,473.7632 499.1589,479.2508 495.9586,483.8161 492.8309,487.6063 489.4529,491.0013 486.5409,493.4062 483.5138,495.2005 480.0538,496.5063 476.3873,497.2176 473.0048,497.0977 469.4529,496.2728 466.2028,494.9829 462.8119,492.9946 458.2711,489.5077 453.9085,485.4006 449.2688,480.0942 443.9949,473.2324 436.1254,460.9605 427.0163,444.0109 419.3869,426.6694 412.0996,406.9599 406.2355,387.3245 401.2739,366.4619 398.2201,349.4297 396.1413,332.5874 395.1186,316.7408 395.1457,301.3634 396.262,285.8044 398.5,270.75 401.4247,258.5727 405.5207,246.8092 410.7912,235.8056 413.6986,230.9657 416.8445,226.463 419.924,222.6881 423.4865,218.9551 427.262,215.6138 431.2273,212.6856 435.3594,210.1918 439.6353,208.154 444.0318,206.5935 448.2345,205.5778 452.9424,204.9271 457.7444,204.7514 462.6071,205.0509 467.1209,205.7491 473.1305,207.3097 479.0731,209.59 484.7758,212.5131 490.5393,216.1841 496.1357,220.4659 501.7976,225.5846 507.1744,231.28 511.9714,237.1782 516.8122,244.0778 521.2868,251.3834 525.3814,259.0431 529.0701,267.0047 532.3266,275.2161 535.0132,283.256 537.6045,292.5767 539.737,301.9311 541.3573,310.9136 542.5644,319.8726 543.3634,328.783 543.8098,338.543 543.8724,348.6405 543.5475,358.4789 542.8354,368.4212 541.7311,378.4896 538.328,399.8672 533.6544,419.9866 527.5962,440.5231 519.5659,462.5644 511.1202,482.4902 503.8129,496.6287 499.9251,503.1416 496.2953,508.4644 492.9835,512.4835 489.3477,515.9393 485.8745,518.3487 481.9047,520.1281 478.2497,520.8764 474.7686,520.7837 471.1645,519.9603 467.5403,518.3709 462.9929,515.5273 458.68,512.1366 453.2848,506.8654 447.3841,500.1341 442.308,493.3102 436.5566,484.5841 431.201,475.7315 425.8408,465.8656 420.1857,454.4134 414.8666,442.6728 410.215,431.2914 405.8001,419.3738 401.5119,406.6269 397.806,394.416 394.5546,382.311 391.6769,370.0662 389.1938,357.7719 387.1145,345.4565 384.8364,326.6806 383.7091,308.326 383.7606,290.3958 384.9836,274.0264 387.4721,257.9678 391.1332,243.0664 393.3648,236.1829 395.9424,229.4849 398.6604,223.5225 401.6844,217.8624 405.2143,212.2134 408.8177,207.2718 412.6768,202.7246 416.7754,198.6018 421.0969,194.9336 425.625,191.75 430.2905,189.0894 435.1289,186.9052 440.1164,185.2039 445.5989,183.9245 450.8199,183.2445 456.1173,183.0678 461.4672,183.4008 466.8459,184.2502 472.396,185.6593 478.1306,187.6537 485.8082,191.1806 493.6378,195.8259 501.1885,201.3988 508.0753,207.5558 515.0514,215.0147 521.5421,223.159 527.524,231.9112 533.1461,241.5318 538.1465,251.6307 542.4688,262.04 546.3777,273.2764 549.6096,284.6287 552.1775,296.0451 554.1454,307.8419 555.5042,320.1616 556.2679,332.6226 556.4433,344.7761 556.0466,357.3319 555.0542,370.1518 553.5049,383.1533 551.4643,395.8673 548.964,408.304 545.4584,422.9748 541.5825,437.1806 536.1145,454.8064 530.0806,472.2933 521.6147,494.5056 513.2166,515.2176 506.0995,531.499 501.4378,540.7824 496.3855,548.9236 491.9153,554.1946 488.2661,557.0153 484.48,558.7091 480.8465,559.2998 477.0248,558.8479 472.6988,557.425 468.3126,554.9973 462.7694,550.911 457.9821,546.4768 451.6535,539.5653 445.7442,532.3759 439.6212,523.9193 432.3045,512.9208 427.1937,504.519 421.7577,494.7814 409.8873,471.2728 399.8925,448.2713 390.2708,422.7964 382.8464,399.5798 376.3588,375.1271 371.3547,351.7199 367.8037,328.7041 365.6661,305.8013 364.9986,283.7739 365.6806,265.4277 367.5851,247.7994 370.6942,231.1413 374.9834,215.671 380.2155,202.0718 383.355,195.5436 386.7947,189.3378 390.5232,183.4801 394.2991,178.2908 398.5558,173.184 402.81,168.75 407.5511,164.4917 412.2422,160.9051 417.2364,157.7026 422.5802,154.9 427.7704,152.7201 433.473,150.8772 439.3204,149.5372 445.2852,148.7052 451.3399,148.3864 457.0736,148.5581 463.2245,149.2483 469.0,150.375 475.0865,152.0561 481.1489,154.2166 487.1632,156.8381 493.1052,159.9025 501.5118,165.0736 509.6449,171.0754 517.4319,177.8529 524.4997,185.0218 531.7503,193.4945 538.7303,202.8412 545.1584,212.7081 551.1814,223.3518 556.2325,233.674 560.8153,244.6089 564.9648,256.3812 568.4728,268.3073 571.4207,280.6289 573.7176,292.9074 575.475,305.8081 576.5671,318.4653 577.0413,329.2762 577.1149,340.2321 576.7849,351.2859 576.0251,362.749 574.8563,374.1735 573.28,385.7286 568.9365,409.3866 564.2146,428.9155 557.1162,453.6082 551.8595,469.9245 536.5125,514.8641 529.6929,536.8545 524.1258,558.5085 520.3268,578.9784 518.6314,593.5669 517.7681,605.6337 517.376,620.0009 517.7111,631.5705 519.1471,649.5346 520.9808,662.4096 523.25,673.75 525.7608,683.1748 530.3239,696.7061 533.244,704.1403 536.347,711.0257 543.108,724.2229 548.7679,734.0054 552.8772,740.4713 564.0445,756.5063 579.0789,775.0201 589.9763,787.0968 603.6808,800.7944 617.8454,813.3619 632.2334,824.614 645.513,833.3615 658.6946,840.3988 664.379,842.8484 669.9012,844.7617 675.2799,846.1109 680.0645,846.791 684.5708,846.856 688.4191,846.3165 691.9706,845.1186 694.8877,843.3675 697.9938,840.186 700.3001,835.8716 701.6127,830.7889 702.0205,824.6112 701.4758,817.6995 699.9503,809.7832 697.5,801.1503 694.0494,791.5726 689.9149,781.8569 684.852,771.372 679.0788,760.5851 672.5768,749.4348 665.0203,737.3922 656.8194,725.1111 637.965,699.0323 620.1657,676.404 601.3591,654.0999 579.6345,629.8651 555.917,604.7909 531.8821,580.6016 507.3818,557.0915 479.8793,531.6621 430.3212,487.0302 416.9474,474.5387 409.1399,466.6885 403.4783,460.3697 399.7441,455.3669 397.8515,451.5246 397.5564,448.6983 397.9193,447.6295 398.781,446.5873 400.0314,445.8446 401.6911,445.3471 405.9545,445.0079 411.9836,445.5518 419.2821,447.054 426.9865,449.2586 434.1009,451.9269 441.7122,455.4715 447.8934,458.8393 453.3104,462.4699 458.2,466.374 462.1106,470.4014 465.1388,474.5337 466.8062,478.5898 466.9668,480.0293 466.75,480.875 465.8282,481.7749 464.7263,481.906 462.9512,481.4981 460.8361,480.3451 455.906,476.265 450.4331,469.8401 444.6917,461.8005 438.6328,451.8108 433.5848,442.3391 428.4122,431.1953 423.963,420.4743 419.989,409.5428 415.9493,396.9148 412.3168,384.0379 409.5876,372.4682 407.3062,360.7413 405.375,348.25 404.1493,337.3519 403.4298,327.062 403.1431,316.7216 403.3149,306.4159 403.9134,297.116 404.992,288.1745 406.5517,279.457 408.5744,271.0657 411.0421,263.1024 413.8497,255.9095 417.0489,249.3926 420.6773,243.4091 424.6906,238.0282 429.0442,233.3191 433.6138,229.4105 438.4753,226.2188 443.6261,223.7262 448.6337,222.0628 453.4065,221.1182 458.2517,220.7759 463.0017,221.0402 467.9403,221.8952 473.2465,223.4364 478.5135,225.6027 483.6858,228.3716 488.7074,231.721 493.2398,235.3698 498.2367,240.0717 502.7718,245.0079 507.0699,250.3772 510.873,255.8145 514.3906,261.5773 517.8095,268.0669 520.932,274.8759 523.7254,281.8872 528.4238,296.7347 531.8517,312.5084 533.9774,328.8356 534.7469,345.2693 534.1824,364.4067 532.5326,380.6684 529.3947,398.7611 526.6807,410.7466 523.2988,422.9587 519.2984,435.4131 514.8611,447.357 510.298,458.2782 505.7247,467.7628 500.839,476.3752 496.0279,483.4527 491.6127,488.6366 487.0347,492.8152 482.9028,495.3108 478.6388,496.7287 474.1388,496.9684 469.4074,496.0661 465.1916,494.1266 459.7498,490.4357 454.3972,485.6455 448.2144,478.665 443.1321,471.8646 437.7754,463.4747 432.0536,453.5079 427.0714,443.6452 421.4464,431.0738 416.2087,418.0557 412.0358,406.2534 408.0928,393.5792 404.6575,380.9596 401.8387,368.7399 399.4315,356.0316 397.5374,343.3513 396.1785,330.9894 395.4031,319.2062 395.1719,308.1094 395.4541,297.0622 396.2463,286.5541 397.4874,276.9323 399.2656,267.5454 401.58,258.5008 404.4254,249.897 407.6458,242.1563 411.3193,235.0428 415.5159,228.5156 420.1828,222.6807 424.9965,217.8411 430.448,213.5117 435.9229,210.197 441.6092,207.7129 447.7205,206.001 453.2668,205.2078 459.2916,205.0995 465.3775,205.7496 471.0924,207.0445 477.0168,209.0954 482.83,211.8097 488.5244,215.1596 494.3637,219.3462 499.9827,224.1604 505.0618,229.2626 510.0486,235.0737 514.9088,241.5724 519.4299,248.4963 523.5839,255.7935 527.3428,263.412 530.6787,271.3001 533.6751,279.6527 536.2504,288.0933 538.5072,296.9807 540.3291,305.9059 541.7211,314.8243 542.7181,323.9397 543.4063,333.7409 543.721,343.7531 543.2099,362.7376 541.2122,381.8107 537.5198,402.6866 532.365,423.9848 525.6815,445.6972 517.7678,466.8813 509.75,484.875 505.0097,494.2065 501.0113,501.1328 497.349,506.6285 493.9455,510.9434 490.2844,514.7159 486.6895,517.502 483.067,519.3942 479.8335,520.314 475.6526,520.5264 472.226,519.9476 467.7309,518.0812 462.3522,514.7472 457.6466,510.776 451.5987,504.678 446.9744,499.1721 441.9444,492.2904 436.2061,483.6722 431.358,475.5669 426.0123,465.7078 420.228,454.1352 411.5764,434.1505 402.3563,408.7877 398.7162,397.0199 395.3266,384.6398 390.125,361.875 386.8125,342.4027 384.6068,321.8917 383.7526,301.5093 384.3402,282.8501 386.3249,265.3027 387.8621,256.7978 389.6836,248.9003 391.8746,241.2283 394.3028,234.2348 397.2365,227.1823 400.3541,220.8533 403.9885,214.5877 407.7443,209.085 411.792,204.0427 416.1193,199.4991 420.5787,195.601 425.6162,192.0162 430.9163,189.0304 436.4407,186.659 442.151,184.9173 447.6392,183.8701 453.2255,183.4024 459.1972,183.5514 465.1457,184.3232 471.1097,185.6836 479.1427,188.4354 487.397,192.3891 495.0971,197.1782 502.6917,203.0689 510.0904,210.0216 517.2844,218.0592 523.719,226.5312 529.7921,235.9422 535.0263,245.547 539.9407,256.2759 544.2879,267.6378 547.9172,279.2252 550.8355,290.9471 553.0718,302.8401 554.7874,315.686 555.8496,328.6751 556.2442,341.0142 556.0595,353.061 555.2562,366.1845 553.874,379.2825 551.9538,392.1191 549.4999,404.8815 546.3076,418.7744 542.4838,433.1071 536.6824,452.1694 530.7155,469.8263 523.4871,489.1894 514.1614,512.3751 506.8962,529.0787 501.0561,540.7043 496.1761,548.4179 491.8159,553.4149 488.4387,556.1186 484.875,557.875 481.3494,558.5304 477.4971,558.2549 473.7003,557.1967 469.6693,555.1772 464.622,551.7551 460.2404,547.9983 454.3354,541.9983 448.8586,535.75 443.4916,528.7452 437.0066,519.4913 426.858,503.2257 415.3416,481.8828 405.443,460.6931 395.137,435.52 387.7013,414.5451 380.9979,392.3353 375.1818,369.3754 370.8532,347.5759 367.6765,325.2875 365.7881,303.2431 365.2837,285.4112 365.8543,268.0278 367.5369,250.9323 370.2371,235.1024 373.8961,220.5429 378.4198,207.4989 384.1417,195.0225 390.6897,184.0127 394.3155,178.9755 398.1685,174.2804 402.2432,169.9499 406.4328,166.093 410.7019,162.7044 415.4832,159.4662 420.1208,156.818 425.2567,154.3906 430.5443,152.3963 435.9619,150.8446 441.4878,149.7447 446.7242,149.1341 452.3984,148.9344 457.7354,149.1803 463.3571,149.8816 468.9291,150.9957 478.6757,153.9204 488.3243,158.0353 497.7672,163.2813 506.897,169.5996 515.536,176.8662 524.1158,185.4414 532.158,194.8318 539.6036,204.9311 546.3937,215.6333 552.6417,227.1783 558.0952,239.1728 562.957,251.8379 567.1579,265.0065 570.6411,278.6082 573.2898,292.1932 575.1438,305.9179 576.172,317.8489 576.702,329.5098 576.7663,341.2669 576.3611,353.0815 575.4563,365.2653 573.9868,378.3373 572.1093,391.1405 569.8276,403.6744 565.0727,424.2534 558.2051,448.568 551.2837,470.264 534.1799,520.8617 528.3596,539.9092 525.0382,552.5925 522.3347,564.8165 520.5025,574.693 518.7704,587.0673 517.2928,603.5779 516.7238,618.4587 516.9137,632.1856 517.7021,645.3094 519.296,659.0456 521.2106,670.2472 524.1072,682.953 526.619,691.3421 531.4904,704.4631 534.1499,710.7762 537.097,716.7909 545.1467,731.6687 556.0189,748.5574 568.1016,764.8223 581.277,780.5107 593.3587,793.4188 608.2623,807.7376 622.2763,819.6362 637.4182,830.9035 649.4146,838.4328 661.2858,844.4019 667.2849,846.811 672.6283,848.542 677.5974,849.6907 682.3776,850.2874 686.8891,850.27 690.7205,849.6617 694.1978,848.4375 697.0,846.75 700.281,843.3665 702.6018,838.9865 703.9668,833.7737 704.4175,827.4669 703.9052,820.5287 702.5234,813.1309 700.0425,804.2683 696.5794,794.5432 692.3595,784.5046 687.1812,773.6552 681.2254,762.4162 674.5588,750.8977 667.2492,739.1997 659.0509,726.9368 649.8608,713.9352 639.9287,700.5552 621.6,677.2714 601.7118,653.6396 581.4538,631.0216 558.4156,606.7368 531.7073,579.9762 502.9215,552.4745 481.5729,532.8417 427.1278,483.9718 412.5319,470.4776 405.4723,463.348 400.3472,457.523 396.8357,452.664 394.9661,448.7729 394.7057,445.9835 395.165,444.788 396.0109,443.8512 397.1991,443.1481 399.0978,442.5602 403.6205,442.1645 409.4268,442.5307 416.1667,443.6997 424.2012,445.9043 431.9065,448.539 437.6813,450.974 445.9008,455.1708 451.1429,458.3607 456.0749,462.0052 460.196,465.7806 463.4252,469.9013 465.0388,472.8653 465.4444,474.5463 465.3472,475.5787 464.5019,476.3677 463.3009,476.4552 461.7122,475.9026 459.7894,474.7297 453.875,469.125 449.9844,464.4105 443.8083,455.2984 439.1695,447.4009 433.2315,435.828 428.7901,425.9135 424.3921,414.7445 420.3157,403.1348 416.8952,391.9014 413.8284,380.2613 411.2213,368.7513 409.2007,357.7541 407.6101,346.3966 406.4927,334.8229 405.9623,325.1739 405.862,315.5576 406.2056,305.9631 407.0009,296.5091 408.1969,287.6755 409.7726,279.5355 411.7868,271.8634 414.2506,264.556 417.1412,257.7038 420.4361,251.3971 424.0066,245.8714 427.9888,240.8928 432.3276,236.5449 436.9765,232.8951 441.8887,230.0108 446.8462,228.0024 451.8697,226.7297 456.6636,226.1484 461.5392,226.1561 466.4549,226.7631 471.369,227.9799 476.2182,229.7933 481.348,232.3315 486.3671,235.4544 491.2335,239.1409 495.6195,243.0902 499.7996,247.4989 503.8377,252.4466 507.7144,257.8779 511.5105,263.9728 514.8138,270.0564 517.9779,276.7684 520.7815,283.6989 523.4262,291.2917 527.5427,306.4128 530.1092,321.0 531.585,337.5651 531.7994,354.0783 530.7023,370.897 528.3111,388.5065 524.6047,406.6066 520.1441,422.9545 514.6738,438.9176 508.3103,454.0185 501.6877,466.7612 495.5328,476.3015 492.5072,479.9917 489.3524,483.2181 486.1641,485.8261 482.9318,487.7948 480.0235,488.9694 476.6712,489.652 473.3094,489.6819 470.0674,489.0475 466.3397,487.6113 462.6858,485.633 459.2669,483.1125 455.7266,479.9102 448.1351,471.5407 440.2272,460.3823 433.9164,449.6034 425.3433,432.0066 419.3446,417.3957 412.7556,398.2225 408.1664,382.2533 404.2086,364.6484 401.141,346.2608 399.3566,329.0012 398.7164,311.8591 399.2479,296.0435 400.9342,281.3475 403.7988,267.3169 407.8315,254.3009 410.3109,248.2683 412.9277,242.922 415.8142,237.9074 418.9577,233.2566 422.3455,229.0014 425.9648,225.1736 429.7276,221.864 433.8606,218.8906 438.1898,216.4074 442.686,214.4302 447.3196,212.9747 451.6936,212.108 457.2553,211.6877 462.6701,211.9886 468.6616,213.0488 474.315,214.7251 480.2715,217.2154 485.7702,220.2161 491.1062,223.8435 496.0786,227.9331 501.3138,232.962 506.2927,238.5072 510.9828,244.5282 515.3518,250.9847 519.3672,257.8359 523.1481,265.3042 526.6308,273.251 529.6869,281.4016 532.2112,289.3561 534.3452,297.4342 536.1846,306.0834 537.6613,314.8925 539.4984,332.6851 539.8494,341.6137 539.8223,350.7337 538.7434,370.4598 536.3606,389.1234 532.2771,409.3834 526.722,429.8449 520.1218,449.1733 512.637,467.7134 504.2323,484.7518 500.7568,490.5558 496.7832,496.3554 493.2129,500.8338 490.086,504.05 486.648,506.76 483.072,508.793 479.7691,509.8225 475.9032,510.1364 472.3715,509.7197 468.4496,508.4395 463.8892,506.1025 459.9293,503.2307 454.9074,498.6019 449.6967,492.9368 444.4851,486.2212 438.5734,477.6051 434.0952,470.3309 429.3215,461.7498 419.7999,442.3152 415.3692,431.8123 410.9969,420.4288 403.5693,398.3832 400.4578,387.2807 397.511,375.3057 393.3734,355.0896 390.6793,336.5112 389.1022,317.4301 388.7994,298.9416 389.8305,281.8689 392.1433,265.6502 393.8314,257.6626 395.7646,250.2999 397.9236,243.5309 400.3996,237.0894 403.3692,230.6141 406.4886,224.8593 409.9008,219.4887 413.5929,214.5355 417.552,210.0328 421.725,206.0507 426.0231,202.6634 430.5461,199.7579 435.2643,197.3457 440.5029,195.3215 445.8959,193.8908 451.0366,193.1033 456.2509,192.8565 461.9384,193.1977 467.245,194.0519 472.9175,195.52 480.3136,198.2967 487.5679,202.0094 494.587,206.6268 501.3041,212.1053 508.1021,218.7093 514.5034,226.0407 520.4491,234.0298 525.8803,242.6071 530.8326,251.8739 535.3825,261.868 539.3295,272.1287 542.7713,282.9629 545.4719,293.5889 547.6099,304.5934 549.244,316.1932 550.287,327.9956 550.715,339.2218 550.5991,350.6865 549.9066,363.7778 548.6942,376.6902 547.0651,388.6799 544.865,401.0183 542.1514,413.5868 538.9712,426.0475 533.8148,443.4028 528.919,458.2465 522.428,475.5895 515.8195,491.8578 509.7,505.5545 503.7224,517.3828 498.8887,525.6611 493.8472,532.4547 490.486,535.8777 486.6795,538.5807 483.1243,540.1164 479.3484,540.7465 475.3574,540.4492 471.3801,539.1806 466.6943,536.7755 462.5605,533.8291 457.188,529.0306 451.9167,523.5468 446.6074,517.0098 440.1895,508.2381 435.2934,500.9254 430.2304,492.6333 419.4644,472.9251 409.7748,451.9391 399.9993,427.6871 392.5053,405.4045 385.7355,381.2116 380.6878,358.6015 377.0369,336.2958 374.7915,314.481 374.0304,293.7462 374.5573,276.1178 376.2024,259.2131 378.8744,243.7177 382.6634,229.297 387.6482,215.7903 390.4951,209.6261 393.6127,203.7678 396.997,198.2446 400.6438,193.0857 404.315,188.5864 408.4323,184.2336 412.7918,180.2872 417.3727,176.7618 422.1545,173.6722 427.1164,171.0333 432.2377,168.8597 437.4979,167.1662 442.8762,165.9676 447.9537,165.3109 453.2813,165.0901 459.0412,165.353 464.8511,166.1199 470.6802,167.3805 476.4983,169.1242 482.2748,171.3406 487.9793,174.019 493.2347,176.9404 501.2697,182.3197 509.1512,188.7172 516.6607,195.9315 523.7442,203.8725 530.3477,212.4503 536.6234,221.9099 542.171,231.6533 547.354,242.2183 551.911,253.08 555.9582,264.5209 559.3382,276.1096 562.125,288.125 564.3125,300.5806 565.9168,313.6387 566.8593,326.8404 567.1508,340.1084 566.8932,351.6057 566.1877,363.1628 565.0541,374.6707 563.458,386.4686 561.338,398.8396 558.7911,411.241 555.8277,423.677 552.2943,436.737 542.3101,468.6192 520.082,532.3698 504.1313,583.0298 501.1524,590.4673 498.5336,595.6557 495.2152,600.1421 492.0826,602.8296 489.6299,603.9653 486.5,604.5 483.7036,604.3163 480.6326,603.4796 477.3859,602.0934 474.4776,600.3717 465.9507,593.7197 457.5706,585.1457 448.0797,573.9417 438.0241,560.1887 428.6531,545.9673 418.5136,528.9348 408.5529,510.8408 399.7494,493.2537 390.8606,473.8555 382.782,454.6548 375.4115,435.2938 368.6441,415.5164 362.4409,395.1774 357.9432,378.5905 354.0031,362.0962 350.6479,345.7991 347.8422,329.4597 345.6758,313.5698 344.1493,298.3411 343.2377,283.4346 342.9391,268.8349 343.2565,254.2635 344.19,240.1998 345.7711,226.3535 347.9609,213.1794 350.6565,201.0515 354.0262,189.3265 357.9326,178.4551 362.4642,168.1139 367.7965,158.0533 373.561,149.0206 379.9122,140.7442 386.5893,133.5405 393.9746,127.03 401.7563,121.5186 409.9858,116.924 418.603,113.271 427.5479,110.5846 436.7604,108.8896 446.1804,108.2111 455.7479,108.5737 465.5317,110.0172 475.1693,112.4267 484.7695,115.7685 494.6068,120.1662 504.9264,125.8671 514.9608,132.5437 524.6256,140.1372 533.5472,148.3033 542.3204,157.571 550.7144,167.7269 558.7074,178.7828 566.0295,190.3593 572.6595,202.3578 578.7303,215.0254 584.0508,227.9954 588.7333,241.4674 592.8472,255.6991 596.1493,269.8766 598.7361,284.3009 600.6266,299.2485 601.6053,311.771 602.0799,324.8118 602.0475,337.5316 601.504,350.6203 600.4525,363.6275 598.9117,376.504 596.8732,389.4213 594.1816,403.5202 588.7825,426.5548 582.0036,449.9541 575.1485,470.9332 557.9963,519.8967 552.1858,537.7375 547.083,556.7027 544.2898,570.8473 542.2023,588.0454 541.8603,596.3536 541.9114,605.6715 542.4046,613.6543 543.4208,622.6322 544.6388,630.843 546.2276,638.593 549.1256,649.701 552.4318,659.8038 556.9997,671.6316 562.0111,682.6293 567.5506,693.5844 573.0131,703.0007 580.8898,715.1995 588.5179,725.6683 596.5062,735.6032 603.8301,743.602 613.3845,752.6899 620.7195,758.56 628.1307,763.2789 634.6532,766.1747 637.4833,766.8478 640.0668,767.0216 642.3427,766.6659 644.25,765.75 645.827,764.084 646.906,761.632 647.384,758.7877 647.3521,755.3135 646.7555,751.205 645.6116,746.6558 641.6398,735.7254 635.9013,723.6569 628.5628,710.6847 618.7098,695.2752 607.4769,679.2595 597.34,665.8039 586.0738,651.6942 573.1377,636.2076 559.3009,620.3222 545.1308,604.7087 526.0083,584.4021 484.6249,542.1858 470.5,527.375 462.7904,518.4079 460.5006,515.073 459.5766,512.9599 459.8607,511.8534 461.1005,511.6754 463.237,512.4713 466.4919,514.3458 471.388,518.0553 479.6176,525.845 485.234,532.3913 490.7111,539.7118 495.6129,547.5568 499.8686,555.2293 506.9679,571.0034 512.695,586.8038 517.9996,604.6498 525.5702,632.0782 529.7019,645.7041 538.5183,670.4545 545.8277,687.4947 553.3475,702.4639 563.1011,719.0824 571.6413,731.9391 585.8007,750.6009 599.5216,766.1939 605.6489,772.4567 612.3125,778.6719 627.1203,790.8851 633.4204,795.2901 640.0544,799.2931 646.2241,802.4081 651.9739,804.6926 656.963,805.9491 661.5569,806.292 665.3015,805.7265 668.4888,804.2475 670.6493,802.2536 672.3765,799.3585 673.4185,795.9491 673.874,791.7974 673.6763,786.8842 672.8738,781.7411 671.4326,775.9363 669.3685,769.5312 663.4134,755.1214 655.248,739.1995 645.2782,722.5155 632.8396,703.8919 619.8431,685.9874 605.9462,668.1213 591.7364,650.9653 574.5221,631.3191 551.1972,606.0194 526.5491,580.6476 497.7328,552.3766 456.1984,512.7205 442.1777,498.554 434.6722,490.1387 431.0004,485.0244 429.9431,482.7278 429.6399,480.9966 430.0868,479.6337 431.1269,478.939 432.5179,478.6946 434.6646,478.8244 439.5348,480.1299 446.3059,483.1485 452.7428,486.8814 459.3352,491.6713 465.1,496.6051 470.7152,502.4498 475.4223,508.1269 478.9627,513.5356 482.6574,520.4253 484.6399,525.272 486.9888,532.7375 487.9079,537.9035 488.2078,543.7775 487.668,548.7637 486.492,552.817 484.2339,556.5043 482.8164,557.7461 480.8652,558.7553 479.177,559.0965 477.3056,559.0648 472.6348,557.9492 467.9824,555.4258 462.4098,551.234 456.4606,545.3741 449.5059,537.5059 439.2872,523.6081 430.3436,509.7368 420.187,491.5996 410.6831,472.6694 402.0861,453.4388 394.1389,433.4896 387.2894,413.7005 380.9719,392.6176 377.2953,378.7152 374.3179,365.9016 371.6876,352.6803 369.5017,339.5039 367.7195,326.0765 366.3783,312.4646 365.5916,300.0896 365.2886,287.765 365.489,275.4456 366.1854,263.5968 367.3502,252.284 369.0175,241.1935 371.125,230.75 373.5975,221.2543 376.7146,211.7408 380.2101,203.0303 384.3576,194.4603 388.8084,186.7762 393.7023,179.6827 399.023,173.2378 404.818,167.4459 410.8389,162.5436 417.2282,158.3492 423.9373,154.8879 431.2728,152.0698 438.4856,150.1897 445.8701,149.1192 453.348,148.8826 461.0622,149.4866 468.846,150.9063 476.6402,153.1155 484.7352,156.2408 493.7364,160.7409 502.1538,165.997 510.25,172.125 518.3869,179.423 526.3501,187.7351 533.8122,196.7455 540.7234,206.3682 547.227,216.8522 552.8657,227.454 558.1196,239.0416 562.6796,250.8657 566.668,263.2138 569.9487,275.6406 572.6001,288.42 574.5903,301.5268 575.9934,315.3514 576.625,326.1896 576.8533,337.1809 576.6682,348.2735 576.0651,359.4095 575.0266,370.8412 573.5459,382.6321 571.6747,394.3008 569.367,406.163 564.2493,427.6598 558.0634,449.5427 551.7873,468.9682 536.4836,514.1488 528.0796,541.4423 525.525,550.9906 523.41,560.3616 520.9583,572.9722 519.2686,583.6703 518.1234,594.4479 517.226,608.5744 516.9065,623.5362 517.269,635.7792 518.0667,647.1414 519.9383,661.5625 521.9538,672.4692 525.6939,687.1617 530.0296,699.7907 536.1603,714.1056 544.8584,730.1756 555.2036,746.5592 567.1773,762.9693 579.4847,777.8771 591.924,791.445 607.125,806.25 620.7097,817.9675 636.0542,829.4658 648.002,837.0975 659.9353,843.2122 666.0151,845.7237 671.7142,847.6569 676.7643,848.8982 681.6161,849.5625 686.1926,849.5914 690.0804,849.0098 693.6133,847.8004 696.4672,846.1182 699.6964,842.8849 702.091,838.4395 703.4642,833.0711 703.864,826.9332 703.3008,819.6989 701.8136,811.8829 699.4533,803.4638 696.1538,794.1967 691.8807,784.055 686.7932,773.4339 680.7627,762.0852 674.0084,750.4413 666.6055,738.6044 658.5863,726.6004 639.6284,700.4228 621.2013,676.9954 601.4521,653.507 581.0733,630.7288 558.5186,606.9449 531.7282,580.0823 503.1421,552.7454 482.7329,533.9383 428.2325,484.9546 413.1668,471.0252 406.2331,464.0142 401.1586,458.2456 397.624,453.3991 395.625,449.375 395.3284,446.5896 395.7749,445.3793 396.6094,444.4219 397.7839,443.6978 399.657,443.091 403.9569,442.7158 410.0431,443.2006 417.1667,444.5556 425.2557,446.8086 432.9583,449.5046 439.1329,452.1833 446.6988,456.1272 451.6423,459.2522 456.6975,463.1856 460.7053,466.9137 463.8774,470.9878 465.5,474.25 465.787,475.7593 465.6296,476.8241 464.7547,477.6148 463.5932,477.6512 461.5242,476.7881 459.5116,475.5189 453.6644,470.028 449.5349,464.9217 443.6367,456.1482 439.2156,448.511 432.6357,435.6047 427.9599,425.13 423.6349,414.1407 419.7014,402.9991 416.3812,392.0995 413.3401,380.4828 410.7048,368.656 408.7212,357.6313 407.0988,345.8769 405.9415,333.9078 405.3906,324.2736 405.2899,314.6515 405.65,305.0517 406.4709,295.5819 407.7526,286.35 409.3122,278.4524 411.3462,270.7707 413.8193,263.4717 416.7094,256.6379 419.9946,250.3514 423.5927,244.7931 427.575,239.8556 431.9216,235.546 436.5824,231.9192 441.5074,229.0302 446.4729,226.9847 451.1332,225.7453 456.2897,225.0577 461.5401,225.0492 466.4558,225.6568 471.3692,226.8638 476.22,228.6588 481.0246,231.0083 486.0361,234.0864 490.8985,237.7308 495.2926,241.6401 499.5002,246.0056 503.8606,251.2568 507.9753,256.9299 511.8008,262.9626 515.3106,269.3192 518.478,275.9641 521.135,282.4828 523.9081,290.4297 528.0344,305.5423 530.6381,320.1251 532.1617,336.6736 532.4407,353.5903 531.3576,371.141 529.0959,388.3491 525.5292,405.6215 521.2979,421.6231 515.9289,437.4738 509.0408,454.2175 502.7945,466.827 496.3583,476.8971 492.9092,481.2434 489.8529,484.4545 486.7688,487.0342 483.6725,488.9845 480.4538,490.3567 477.1591,491.0929 473.8094,491.2351 470.5674,490.7091 467.223,489.5217 463.4678,487.572 460.0554,485.2058 456.2266,481.9238 452.2301,477.9319 448.8611,474.0093 440.4855,462.2454 433.7627,450.8855 425.4362,434.0234 419.0678,418.7093 412.7547,400.5743 407.9055,383.6383 403.5644,364.4375 400.3886,345.8061 398.591,328.5132 397.9414,311.3564 398.4136,295.8111 400.0831,280.7549 402.9895,266.3927 407.0112,253.4668 409.498,247.4425 412.1149,242.0864 415.1924,236.7285 418.3287,232.0787 421.9235,227.561 425.5105,223.7806 429.1475,220.5884 433.2395,217.6411 437.5429,215.1589 442.0218,213.1608 446.6402,211.6658 451.3622,210.693 456.8922,210.2442 462.578,210.5373 468.2314,211.5182 474.2463,213.2892 480.2083,215.7879 485.7151,218.7833 491.3954,222.6276 496.7418,227.0104 501.9918,232.069 506.981,237.6549 511.6776,243.7207 516.0501,250.219 520.0545,257.0796 523.9751,264.8145 527.487,272.8129 530.5755,281.0258 533.1199,289.0372 535.2506,297.1569 538.5315,314.6773 540.3544,332.4754 540.7114,341.4318 540.6965,350.738 539.6087,369.7225 537.0429,389.3277 533.0038,409.4521 527.4241,430.2252 521.1201,449.1727 513.6409,467.8669 504.6805,486.2339 500.8633,492.8203 497.0605,498.4515 493.6409,502.7669 490.2344,506.2344 486.4718,509.1181 482.9868,511.001 479.6764,512.0164 475.9266,512.3828 472.3579,511.8863 468.6115,510.5971 464.2678,508.3906 459.8867,505.2 454.25,500.0 449.7431,495.0004 444.34,487.9417 438.3799,479.2316 433.4049,471.0746 428.0845,461.4484 422.9545,451.3698 418.5047,441.6824 413.9652,430.7795 409.3417,418.6084 402.2706,397.0774 396.164,373.716 392.3148,354.7037 389.6585,335.5788 388.0736,315.2549 387.8323,297.1376 388.944,279.91 391.3351,263.5655 394.9322,248.4948 397.1865,241.5752 399.6284,235.3081 402.5324,228.9963 405.751,223.0588 409.2708,217.5373 413.0785,212.4737 417.1154,207.9561 421.1826,204.1438 425.4853,200.7787 430.3285,197.6886 435.3832,195.1522 440.2649,193.3029 445.2796,191.9711 450.4025,191.1738 455.811,190.92 461.5324,191.2416 466.9346,192.0764 472.7023,193.5282 480.2195,196.3 487.5988,200.039 494.6146,204.6228 501.6492,210.2712 508.3421,216.6883 514.8841,224.1009 520.941,232.1872 526.4539,240.8671 531.6563,250.5484 536.2192,260.5269 540.1814,270.8019 543.6349,281.652 546.4189,292.6328 548.7133,304.4843 550.4057,316.6647 551.4446,328.7003 551.8633,340.1508 551.7241,352.1524 551.0471,364.3099 549.8619,376.3723 548.0949,389.0144 545.7981,401.8288 543.0269,414.54 539.7648,427.1716 534.7426,444.1005 529.8124,458.9697 522.3838,479.176 515.4222,496.1157 509.253,509.972 502.9172,522.3834 498.1109,530.4951 493.4352,536.5972 489.9237,540.0295 486.439,542.416 482.8955,543.8098 478.8551,544.2948 474.8609,543.7082 469.912,541.8527 465.7366,539.4256 461.2827,536.0002 456.2993,531.3925 451.1299,525.742 445.0508,518.2186 439.7907,510.9816 434.0279,502.1587 427.7239,491.6379 417.6212,472.6039 407.2956,450.1335 399.0943,429.3577 390.3579,403.3305 383.9187,380.3126 378.7514,356.5551 375.0067,332.892 372.9167,311.0185 372.3018,290.0296 372.9586,272.2156 374.7543,255.2854 377.6489,239.755 381.7325,224.9803 386.8673,211.5591 389.7839,205.4481 393.0464,199.5338 396.3578,194.3434 400.1718,189.1711 403.9957,184.6791 408.3223,180.2858 412.8868,176.3211 417.6712,172.8033 422.6571,169.7504 427.4985,167.3268 432.8236,165.2265 438.0483,163.7025 443.4096,162.6477 448.8702,162.0632 454.4072,161.9457 460.3717,162.3309 466.369,163.2391 471.9965,164.5616 477.9781,166.4706 483.5418,168.7239 489.2077,171.5059 495.0905,174.9098 503.2217,180.5142 511.0341,186.9569 518.4718,194.1689 525.7296,202.3869 532.2158,210.9304 538.5944,220.6771 544.3623,230.9034 549.5075,241.5165 554.0179,252.4236 557.9952,263.893 561.3363,275.7049 564.1854,288.2773 566.4049,301.149 567.9287,313.8763 568.8034,326.7615 569.0211,339.6708 568.7741,350.7682 568.1343,361.9142 567.0908,373.0664 565.6903,383.8278 561.0644,409.0557 555.1526,433.2831 550.9428,447.7255 545.8985,463.5189 521.5123,534.7852 515.7601,554.0034 506.4526,588.438 503.6357,597.6422 501.0429,604.0864 498.625,608.75 496.0186,612.2604 493.1258,614.696 490.6362,615.7603 487.5708,616.1401 484.7188,615.7656 481.5068,614.7311 478.6151,613.4111 475.2362,611.3164 466.9636,604.6222 456.5847,593.6578 448.5202,583.7631 436.5781,567.407 426.2888,551.5728 415.3939,533.2029 406.0726,516.0873 396.0677,496.1097 386.5101,475.4416 378.4879,456.2749 370.9825,436.4867 363.678,415.1865 357.5334,395.1732 352.9326,378.1777 348.9103,361.2545 345.4165,344.1675 342.5521,327.411 340.323,311.1688 338.7201,295.3374 337.7239,279.7114 337.3502,264.4073 337.6075,249.5259 338.4657,235.5293 339.9166,222.1015 341.9832,209.1236 344.7217,196.5101 348.0236,184.6815 351.9611,173.3132 356.5314,162.4803 361.7314,152.2578 367.558,142.7208 373.7905,134.2147 380.6095,126.4888 387.7094,119.8664 395.6063,113.8554 403.9723,108.7676 412.7529,104.6329 421.8935,101.4815 431.3396,99.3432 440.6596,98.2707 450.331,98.1965 460.1136,99.1456 470.3175,101.1648 480.5221,104.194 490.654,108.188 500.299,112.9174 509.7419,118.4635 518.9169,124.7859 527.4488,131.5795 536.01,139.3728 544.3319,147.9529 552.2002,157.0915 559.8142,167.0309 566.8944,177.4223 573.4149,188.1935 579.3496,199.2725 584.6724,210.5872 589.7565,223.0136 594.1986,235.5812 598.0966,248.5498 601.3338,261.4945 604.1916,275.822 606.3354,290.3322 607.7547,305.0691 608.4829,320.1306 608.5107,335.4807 607.8411,350.6489 606.4797,365.9312 604.3699,381.7174 601.823,396.419 598.7636,411.0348 595.1238,425.8433 590.9355,440.7226 581.4334,470.1244 560.4713,528.826 555.7584,543.5869 552.3747,555.8356 549.2239,570.616 546.9838,586.3816 546.2823,598.721 546.6164,612.422 547.7619,623.018 549.8671,635.3378 552.5072,645.9968 555.9987,657.2044 560.2841,668.5249 565.0123,679.275 571.5115,691.7765 577.8752,702.636 586.3259,715.0638 593.3448,724.1995 603.3171,735.4775 611.1299,743.0031 619.5185,749.6532 623.0176,751.875 626.3743,753.5652 629.8227,754.7783 632.5702,755.2341 634.8559,755.0405 636.6672,754.2293 638.1034,752.7962 639.0747,750.729 639.4639,748.5134 639.3863,745.309 638.8022,741.5693 637.6875,737.1719 634.106,727.4064 628.6652,716.1656 621.4995,703.5376 613.0276,690.2095 603.179,676.1034 593.5417,663.2283 583.1282,650.0313 572.1468,636.7596 560.2631,623.0117 531.5035,591.2997 480.7081,538.3689 471.19,527.3223 469.255,524.494 468.4675,522.6918 468.5417,521.9444 469.3789,521.8281 472.6962,523.4365 478.308,528.0683 483.3269,533.0461 488.4337,538.9321 492.7271,544.4883 498.2505,552.7166 502.4412,559.7574 509.9978,574.3619 515.9061,588.0902 535.5501,641.2902 542.2528,657.988 549.3625,673.9572 554.9328,685.0936 562.5745,698.9278 570.4174,711.5592 578.1065,722.875 590.0841,738.5082 598.6038,748.2512 611.0869,760.6981 621.909,769.6819 632.3467,776.6253 636.9387,778.9529 641.3263,780.63 645.3807,781.5736 648.8654,781.7086 651.6074,781.0801 653.922,779.679 655.707,777.4635 656.7544,774.8237 657.25,771.5 657.1988,768.0031 656.6261,763.5998 655.4796,758.5364 653.7202,752.8325 651.4907,746.948 645.4738,734.1054 636.9691,718.8164 626.8943,702.7822 615.6641,686.624 602.9568,669.8133 588.5716,651.901 573.3126,633.9036 557.7169,616.4338 541.476,598.978 524.091,580.8826 468.2993,525.0738 457.4565,513.6414 452.2324,507.3573 449.0826,502.7271 448.4543,500.2935 448.7996,499.6145 449.805,499.2301 453.3303,500.0269 458.1946,502.4415 464.0292,506.4692 469.7113,511.2075 475.2804,516.7506 480.3411,522.5506 484.7402,528.4631 489.1523,535.2576 492.288,540.9431 496.5232,549.9404 498.7576,555.4802 501.2887,563.0899 503.2383,569.9749 505.1395,578.552 508.0139,596.0185 509.3051,609.7436 509.9624,623.1345 510.1594,634.5529 509.8401,651.4692 509.2125,661.4413 508.125,670.125 506.9873,675.2552 505.0,680.625 502.7928,683.6085 500.538,684.91 497.236,685.2641 493.045,684.037 488.7662,681.4342 483.375,677.2344 477.4951,671.7634 471.4653,665.3997 463.4216,656.3688 456.9939,648.4929 446.9406,635.237 438.6333,623.5596 419.6244,594.6505 411.2492,580.805 402.1009,564.9009 385.7436,534.6944 371.2072,504.8168 356.4924,471.0741 344.0933,439.0535 337.8263,421.0655 332.0173,402.9615 326.7043,384.8622 321.9104,366.8789 317.9122,350.1471 314.43,333.5459 311.4355,316.9314 308.9554,300.3961 306.9709,283.64 305.5866,267.4999 304.76,251.6623 304.4943,235.7973 304.8016,221.1965 305.6961,206.6274 307.1484,192.5894 309.1276,179.1383 311.682,165.9462 314.8279,153.0776 318.4654,140.9472 322.691,129.2417 327.3686,118.3425 332.513,108.162 338.0491,98.8275 344.3571,89.7436 351.2132,81.3043 358.5878,73.5475 366.4515,66.5108 374.7747,60.2323 383.5279,54.7497 392.3482,50.2522 401.5145,46.5638 411.0004,43.7186 418.842,42.0651 427.1823,40.9525 435.3088,40.461 443.9006,40.5367 452.5789,41.2021 461.3152,42.4458 470.0811,44.2563 478.8483,46.622 487.5884,49.5315 496.6331,53.1281 505.2294,57.1121 513.7123,61.6049 522.0532,66.595 530.0847,71.9722 538.1235,77.9367 546.2194,84.5531 554.0582,91.5781 561.6279,98.9812 569.1716,107.0145 576.4005,115.3865 583.3013,124.0632 589.8605,133.0107 596.065,142.1948 602.0958,151.9086 607.5371,161.4694 612.75,171.5 617.741,182.0766 622.285,192.7133 626.3945,203.3859 630.2017,214.4381 633.5712,225.4755 636.6076,236.8364 640.6584,255.3507 643.6398,273.8824 645.5956,292.7202 646.5311,311.7015 646.4595,330.7259 645.3635,350.0234 643.2385,369.3793 640.0575,388.9545 636.4396,406.1962 632.1788,423.0292 627.2378,439.7088 621.3738,457.0245 615.5918,472.4642 608.9706,488.8804 582.0834,551.2809 574.9919,570.352 571.399,581.9704 569.1409,590.9237 567.396,600.4168 566.2959,610.1758 565.9804,616.7038 566.0452,623.3667 566.4906,629.7969 567.3451,636.3428 570.1748,649.2818 574.6904,662.2447 577.7977,669.4327 581.3822,676.5136 584.5256,681.9133 588.4197,687.5623 592.7599,693.0714 596.7148,697.0646 599.7593,699.0926 600.9461,699.3986 602.0708,699.1665 602.5075,698.4919 602.6588,697.4171 602.1487,694.0289 600.6911,689.9695 598.2794,684.7453 590.2832,670.9056 580.6317,656.6023 566.8471,638.3023 552.0387,620.1739 508.834,570.8027 516.8125,581.8281 526.0813,596.472 556.7449,649.9196 566.0729,665.1747 574.4681,677.5387 585.7232,691.8158 594.0092,700.4225 597.3472,703.2037 600.6068,705.2131 603.3769,706.1988 605.1091,705.8833 605.7783,705.1096 606.125,703.875 605.7959,700.2174 604.2616,695.3218 601.4338,688.9606 597.8739,682.1691 593.739,675.1984 581.0139,656.2956 569.4373,640.9761 555.768,624.1238 535.5728,600.6189 512.2099,574.445 504.4782,565.2126 512.2012,575.3222 522.7777,591.6097 534.2204,611.6713 556.9475,652.6849 566.375,668.125"/>
  </g>
</svg>
