<?xml version="1.0" encoding="utf-8" ?>
<svg xmlns="http://www.w3.org/2000/svg" xmlns:cc="http://creativecommons.org/ns" xmlns:dc="http://purl.org/dc/elements/1.1/" xmlns:ev="http://www.w3.org/2001/xml-events" xmlns:inkscape="http://www.inkscape.org/namespaces/inkscape" xmlns:rdf="http://www.w3.org/1999/02/22-rdf-syntax-ns" xmlns:sodipodi="http://sodipodi.sourceforge.net/DTD/sodipodi-0.dtd" xmlns:xlink="http://www.w3.org/1999/xlink" baseProfile="tiny" height="27.09333333cm" version="1.2" viewBox="0 0 1024.0 1024.0" width="27.09333333cm">
  <metadata>
    <rdf:RDF>
      <cc:Work>
        <dc:format>image/svg+xml</dc:format>
        <dc:source>vpype read './original_svgs/Strange Attractors #350.svg' linemerge linesimplify write './Strange Attractors #350.svg'
</dc:source>
        <dc:date>2024-08-05T01:35:51.257265</dc:date>
      </cc:Work>
    </rdf:RDF>
  </metadata>
  <defs/>
  <g fill="none" id="layer1" inkscape:groupmode="layer" inkscape:label="1" stroke="black" style="display:inline">
    <polyline points="418.25,426.0 424.0648,415.8133 429.443,405.511 434.5563,394.7567 439.2328,383.9052 443.6179,372.6157 447.5697,361.2511 451.2088,349.4683 454.4226,337.6372 457.308,325.414 459.809,313.0146 461.9572,300.2222 463.6785,287.4563 464.9814,274.7603 465.8955,261.7985 466.3843,249.0046 466.4572,236.4261 466.0918,223.3951 465.2548,210.3851 463.9699,197.8618 462.2477,185.8407 460.1022,174.4028 457.547,163.6286 454.5958,153.599 451.2624,144.3947 447.5606,136.0964 443.562,128.8559 439.402,122.7898 434.7319,117.4429 429.8438,113.2656 425.0803,110.4371 419.8847,108.6406 414.9036,108.1214 411.446,108.4407 408.0876,109.2831 404.6263,110.6977 401.2039,112.6461 397.8331,115.112 394.5265,118.0791 388.157,125.4521 382.1971,134.6348 376.7484,145.4973 371.9622,157.773 367.9029,171.2796 364.6021,185.7901 362.0761,201.1089 360.3406,217.04 359.399,233.7999 359.3155,250.455 360.0561,267.4052 361.6085,284.5804 364.0134,302.211 366.5605,316.5009 369.6806,330.9016 373.224,344.6571 377.3957,358.6221 382.1785,372.6923 387.6643,387.0887 393.9335,401.9435 400.1148,415.2489 406.0964,427.0069 412.8652,439.3319 429.1028,466.2578 442.0099,485.5384 472.3433,528.4816 486.418,550.2815 491.7799,559.8752 496.7032,569.8804 500.3694,578.5811 504.1278,589.1256 506.9928,599.1657 510.2743,614.566 512.3021,629.6423 513.5513,643.0 514.3421,658.1424 514.8014,679.516 515.224,746.6501 515.9156,764.7133 516.5796,773.5959 518.0209,784.4393 519.5813,791.249 520.7317,794.213 521.911,796.2968 523.2513,797.8676 524.8236,798.8941 527.3045,799.1261 529.896,798.186 532.8323,796.1018 535.9022,793.0323 539.6254,788.4299 543.6138,782.7369 552.5106,767.9298 563.068,747.5744 574.212,723.791 585.9008,696.5718 597.1739,668.3207 606.1115,644.0897 613.9263,620.8564 620.3872,599.3198 625.3008,580.1811 628.879,562.5063 631.0312,546.7656 631.7222,533.4696 631.5349,527.6328 630.9836,522.231 629.0784,513.3043 627.6657,509.3662 625.9854,505.9248 624.2367,503.2205 622.0824,500.7051 619.4808,498.4519 616.5922,496.6187 613.5156,495.2656 610.2706,494.3731 606.8764,493.9217 603.3817,493.8899 598.9621,494.3087 594.5424,495.1592 590.1228,496.4266 585.7031,498.0962 576.7738,502.6264 567.697,508.778 559.4548,515.7684 551.6106,524.0429 543.9026,533.9979 536.9276,545.0956 532.6104,553.7519 527.7382,565.8511 524.191,577.1962 521.5042,587.9474 518.8355,602.1807 516.7651,618.0558 514.164,652.348 511.1224,717.5525 508.8645,777.4224 508.4849,800.6411 508.6859,812.1788 509.6739,826.7582 510.9353,834.9703 511.9874,838.6193 513.1792,841.2314 514.625,843.125 516.1267,844.0949 517.3582,844.3488 518.7264,844.2139 521.5456,842.9269 524.842,840.1968 528.9155,835.5528 533.2299,829.5541 538.1267,821.8202 549.4066,801.5134 564.2571,771.4675 579.9805,737.0571 595.6501,700.2658 610.6613,662.6517 621.9764,632.2103 631.592,604.1061 639.8594,577.4481 646.2107,553.8671 650.4764,534.1675 653.1281,516.2963 654.1608,500.5156 654.0589,493.5518 653.552,487.2055 652.6454,481.477 651.3609,476.4171 649.6453,471.7152 647.4041,467.26 644.8055,463.4701 641.8783,460.3061 638.6514,457.7284 634.851,455.5519 630.5596,453.8897 625.8651,452.7409 620.6211,452.1179 615.2407,452.0833 609.7848,452.5875 604.0035,453.6448 597.7022,455.2714 591.1642,457.4352 584.8048,460.0021 578.2843,463.1155 571.3629,466.9014 564.87,470.913 558.8057,475.1327 552.3484,480.1761 546.5273,485.1876 541.3187,490.2157 532.3684,500.465 528.0746,506.2167 524.7211,511.299 517.9065,523.6409 515.1912,529.6944 511.599,538.967 511.125,539.875 510.7188,540.0 510.4481,537.052 511.3955,473.3959 511.1408,441.0589 509.9767,403.0835 508.1792,369.84 504.9979,333.0982 501.1427,301.3007 495.8469,269.1105 492.9965,254.7794 489.9648,241.4325 486.6659,228.7933 483.2189,217.3355 479.1977,205.6152 474.8771,194.6095 470.5854,185.1331 466.2073,176.8221 461.7706,169.6833 457.0447,163.3913 452.126,158.097 447.0768,153.8663 441.9307,150.7516 436.7217,148.805 431.4836,148.0787 426.5763,148.5526 421.6542,150.1808 416.6574,153.0611 412.134,156.8395 407.8276,161.6059 403.7643,167.3207 399.9703,173.9447 396.5593,181.2401 393.5332,189.184 390.789,198.0917 388.4608,207.5763 386.5541,217.5544 385.0742,227.943 383.9949,239.0763 383.427,249.7148 383.3039,261.0486 383.6368,272.4602 384.4265,284.261 385.6348,295.9958 387.3422,308.3301 389.4972,320.6317 392.0711,332.61 395.208,344.9783 398.9028,357.6435 403.2435,370.8401 407.9308,383.6886 412.9013,395.9548 423.0863,418.0907 435.0602,440.8727 451.693,468.7236 467.6821,493.9819 479.0647,512.6272 490.9858,534.4137 495.8712,545.0027 500.2194,556.2587 504.1296,569.1991 506.7874,580.8216 507.9701,587.5272 509.5364,599.7487 510.5742,611.1427 511.1539,622.6555 511.66,646.9351 511.127,681.0 508.9505,727.7615 500.6035,844.8759 499.9396,859.3617 499.7266,872.7403 500.1518,885.3915 501.5131,894.2286 502.5603,897.2824 503.8372,899.3344 505.2831,900.3253 507.06,900.4216 510.0919,898.934 513.8667,895.3652 518.1233,889.9528 523.1262,882.3732 528.9838,872.4308 535.69,860.108 551.1504,829.2384 571.5553,785.3241 593.3131,735.8764 614.9989,684.0877 634.0198,636.1938 646.9553,601.5677 657.6432,570.8245 666.4207,542.9992 673.4723,517.465 678.5508,495.1298 681.794,475.3912 682.6809,466.7485 683.1232,458.653 683.1297,451.1994 682.6798,443.9611 681.9716,438.5107 680.8896,433.1668 679.5914,428.6278 677.9061,424.2299 675.9314,420.2974 673.6827,416.8141 671.0701,413.6336 668.0223,410.6933 664.7357,408.1991 660.9045,405.9539 656.8453,404.1695 652.5874,402.8094 648.16,401.8368 643.2064,401.178 631.8076,400.8946 620.025,401.9159 607.2812,404.266 592.8654,408.2117 578.5495,413.2282 562.9565,419.8944 547.6505,427.6549 534.3853,435.3716 511.885,449.7754 509.7288,450.7032 507.728,451.1146 506.1562,450.9062 504.8345,450.1146 503.604,448.542 502.468,445.864 501.3773,441.676 500.6152,437.0312 493.9526,370.4281 491.901,353.6795 489.5296,338.0707 486.959,323.3968 484.3388,310.5067 480.8584,295.7478 477.6381,283.8849 473.9908,272.7039 469.1382,260.5749 464.6559,251.325 460.24,244.1334 454.9989,237.8141 450.0427,233.7444 447.4118,232.3624 445.0807,231.614 442.728,231.3266 440.3051,231.5268 436.9784,232.7092 434.1409,234.675 431.473,237.4951 428.7887,241.5219 426.5359,246.115 424.4604,251.7843 422.732,258.1936 421.4022,265.0488 420.5084,272.1359 419.9841,279.9586 419.8516,288.5059 420.105,297.3426 421.5813,313.208 424.5783,330.9049 428.6265,348.2771 434.3332,366.9484 440.2579,383.0523 448.3333,401.5307 453.3008,411.607 460.5679,425.2596 471.2857,443.38 480.3252,456.7234 486.845,464.208 489.77,466.197 490.9967,466.5777 492.0634,466.5244 493.0337,466.0655 493.8773,465.2312 495.5782,461.5551 496.5,457.5 497.4259,449.0278 498.1029,428.8335 497.0895,398.7139 494.5164,364.9926 490.8692,334.8557 486.4635,309.3209 481.9657,289.0059 477.2486,272.0985 471.1971,254.8857 468.2459,247.9537 465.1067,241.6083 461.8687,236.0991 458.2907,230.9608 454.9033,226.9484 451.4709,223.7313 448.0107,221.3726 444.7765,219.9957 441.164,219.3495 437.9905,219.5898 434.2342,220.9557 430.9574,223.2352 427.797,226.5781 424.9003,230.9551 422.3428,236.2239 419.9888,242.7057 418.0,250.0 416.5134,257.5429 415.5116,265.2099 414.8844,273.6641 414.6741,282.8899 414.8887,292.0083 415.5163,301.0792 416.5676,310.5593 420.0291,331.2702 424.5018,349.6986 430.757,369.5345 437.2539,386.5776 445.9227,406.0342 451.3906,417.0469 458.8209,431.0087 470.7656,451.3561 481.9517,468.6295 487.471,476.1705 490.5479,479.6073 493.4443,481.9525 494.5524,482.3895 495.8432,482.3647 496.8127,481.7456 497.8838,480.22 499.1493,476.1932 500.1997,469.2883 501.0833,456.9583 501.1955,430.6255 499.829,394.7955 496.8138,358.1362 495.1573,343.7781 492.586,325.306 490.0527,309.7883 487.375,295.75 482.3436,274.0224 476.907,255.6699 473.8407,247.1849 470.2782,238.4696 466.8772,231.1629 463.3154,224.5572 459.7775,219.0321 456.2433,214.5114 452.4254,210.5693 448.5712,207.504 444.6963,205.3673 441.1394,204.2687 437.5901,204.0339 433.8588,204.746 429.7221,206.722 425.8209,209.9013 422.1927,214.254 419.1009,219.3201 416.3199,225.3542 413.8894,232.3388 411.8722,240.0583 410.2022,248.8266 409.0114,257.9398 408.3284,267.0119 408.0984,276.7597 408.3494,287.1199 409.0695,297.6175 410.2266,308.1116 411.8624,318.8329 413.9691,329.7606 418.8591,349.8303 424.1159,366.8143 432.5216,388.8396 440.7945,407.5373 452.6965,430.9568 466.7897,455.6616 488.0527,490.0133 492.969,497.485 496.9996,502.5454 498.4531,503.6719 499.7266,504.0184 500.523,503.807 501.521,502.749 502.375,500.875 503.0649,498.2515 504.0783,490.8854 504.8976,478.7495 505.2685,459.338 504.6465,417.6932 502.3976,377.5773 498.6981,338.8297 496.587,322.2552 494.1094,306.1415 491.1945,289.5645 488.13,274.5799 485.3301,262.8246 482.3532,251.9958 478.8413,240.6817 475.3178,230.6705 471.8317,221.9809 468.2784,214.2748 464.5156,207.2893 460.563,201.046 456.4824,195.6371 452.2865,191.13 447.9879,187.5921 443.8759,185.2155 439.5863,183.7736 435.3485,183.331 430.863,183.9647 426.84,185.573 422.315,188.686 418.3006,192.7641 414.346,198.2452 410.8759,204.6099 407.8019,211.9049 405.0291,220.4542 402.738,229.837 401.015,239.7044 399.8399,250.329 399.2266,261.3449 399.1378,273.0415 399.5791,285.3283 400.4169,296.0628 401.8065,307.4735 403.7111,319.1342 406.181,331.321 411.0541,350.6827 417.0585,369.5839 425.2844,391.1378 433.4625,409.4637 440.7237,424.0317 448.1603,438.0235 463.1041,463.7788 483.4866,497.7667 492.309,513.7861 502.6248,534.4845 505.0,538.0 505.374,538.334 506.098,538.378 506.8571,537.5722 508.125,532.5 509.1059,523.3333 510.0677,503.7526 510.6012,476.2816 510.5724,444.4238 509.8364,415.0433 508.8083,389.6523 505.7637,347.0882 501.9686,311.6385 499.2833,292.871 496.3329,275.1251 493.2086,258.9833 489.8844,244.2463 486.3164,230.6788 482.2189,217.1356 478.0107,205.0299 473.7509,194.4158 469.3394,184.9807 464.8023,176.7733 459.8834,169.3865 454.9085,163.2544 449.4895,157.987 444.2306,154.2172 438.8826,151.7111 433.7789,150.5723 428.3865,150.6975 423.034,152.1556 417.8339,154.9188 412.8341,158.9539 408.3542,163.8837 404.1341,169.8833 400.2971,176.766 396.67,184.917 393.5928,193.5413 390.8327,203.2332 388.5348,213.5645 386.7128,224.4364 385.4499,235.1602 384.6777,246.2972 384.3944,257.6229 384.5864,269.45 385.2694,281.7095 386.4121,293.9365 387.9771,305.9545 390.0728,318.3087 392.4129,329.6089 395.1636,340.984 401.9196,364.1108 409.5276,385.2847 418.875,407.0361 428.2861,426.1879 439.3227,446.1825 451.2031,466.2823 476.4992,506.8937 485.7918,522.9916 490.6256,532.3328 495.7322,543.4809 498.6698,550.6746 501.5218,558.9576 504.1974,567.8023 506.8,579.4033 508.8313,591.8247 510.1717,604.6384 511.4756,626.6241 512.138,677.622 512.401,684.259 512.875,686.5 513.6553,683.8977 514.5871,677.548 517.5768,650.469 521.8165,601.3642 524.2511,568.2333 526.2178,535.3415 528.2756,491.956 529.2772,462.215 529.8026,432.6569 529.9923,401.2376 529.7407,372.3639 529.0436,345.0036 527.8568,317.5825 526.1864,290.3391 524.094,264.6285 521.5558,240.0587 518.5543,216.4913 515.1447,194.2872 511.3025,173.1678 507.0458,153.2197 502.3133,134.236 497.2254,116.741 491.8274,100.819 486.0331,86.2011 479.9981,73.2471 473.3723,61.2475 466.305,50.5703 458.8382,41.3234 451.2896,33.8536 443.4461,27.9149 435.639,23.7292 431.508,22.1836 427.627,21.1445 423.4033,20.4634 419.4548,20.2479 414.1321,20.5906 408.5104,21.7207 402.9053,23.6209 397.3376,26.2718 391.8278,29.6539 386.3965,33.7479 381.0644,38.5342 375.8521,43.9936 370.7802,50.1065 365.8693,56.8535 361.1399,64.2152 356.8457,71.739 352.6302,80.0276 348.6789,88.7364 344.8536,98.1899 341.3053,108.045 338.0394,118.2616 334.9635,129.1682 329.8346,151.4497 325.963,174.5515 323.361,198.5375 322.1643,222.0934 322.2915,246.1447 323.7125,270.1442 326.458,294.6166 329.6095,314.2577 333.5358,333.4809 338.1175,351.8449 343.5463,370.0741 349.7874,388.021 356.9267,405.9027 364.7439,423.2076 373.5682,440.6748 383.1459,457.6593 393.5512,474.1812 405.1264,490.7783 418.3045,508.0779 428.8829,520.9718 440.6882,534.3959 457.789,552.8203 480.2498,576.3655 491.7142,589.0599 501.0085,600.3372 510.1546,613.3011 513.7466,619.1538 516.9225,625.095 522.5134,637.5902 528.2247,655.1967 535.2289,685.687 537.2163,692.7079 538.7269,696.8739 540.1405,699.5298 542.3991,702.2881 544.2454,703.4676 545.703,703.679 547.2886,703.4211 550.5541,701.6629 554.4358,697.8762 558.47,692.4172 562.9288,684.7078 568.0128,674.3475 571.9052,665.269 576.2217,653.7415 579.5028,643.803 582.4969,632.8664 584.7408,622.9493 586.1885,614.1306 586.9369,606.1439 586.8994,599.4097 586.1491,593.741 584.6568,589.5721 583.0344,586.9719 581.4319,585.3927 579.875,584.625 577.3318,584.2088 575.0281,584.4372 572.6875,585.2689 569.875,586.8749 567.0625,589.096 561.7117,595.0236 556.6923,602.4195 551.396,613.2292 547.7532,622.8443 544.139,634.9953 541.2013,649.0023 539.3877,661.5852 538.1873,677.643 538.2379,689.0567 539.5546,699.4329 540.5625,703.1094 541.8215,705.9699 542.9146,707.5504 544.4967,708.6122 545.9625,708.8418 547.544,708.5202 549.2765,707.608 551.1637,706.105 555.0292,701.6889 559.6979,694.7234 564.1757,686.5869 569.0568,676.2013 574.0065,664.3074 578.2365,652.7676 581.9264,640.8509 585.1299,628.9461 587.1017,619.7653 588.4368,611.0252 589.0972,602.8459 588.9763,594.9468 588.0847,589.243 586.376,584.8428 584.8974,582.5548 583.1681,580.9494 580.874,579.9232 578.2129,579.6035 575.7884,579.9962 572.8509,581.1995 569.9807,582.9897 567.375,585.125 564.2376,588.2602 561.4605,591.5663 556.0001,599.8212 550.8984,609.7793 546.509,621.3402 542.0989,637.4967 539.6162,649.7153 537.7513,663.9047 536.651,679.5804 536.568,691.2238 537.6852,702.7824 538.7331,706.9112 540.0748,710.4206 541.4716,712.4347 543.4438,713.7751 544.9194,714.008 546.5468,713.66 548.3328,712.7407 550.25,711.25 554.2105,706.8412 558.6219,700.2977 563.8438,690.8906 568.65,680.9111 574.2824,667.5491 578.8746,655.1198 583.151,641.9538 586.1369,631.4096 588.8472,619.412 590.5867,609.2561 591.3902,599.7566 591.3954,591.5152 590.528,585.6799 588.6932,580.4883 586.9978,577.8874 584.8708,576.0391 582.495,574.9126 579.9129,574.5401 577.085,574.956 574.0124,576.1002 570.8426,577.9791 567.916,580.3047 564.7014,583.4512 561.0381,587.697 555.5611,595.93 550.7552,605.207 545.4504,618.8286 541.4098,632.9285 537.9558,649.8052 535.851,666.9745 534.7963,683.3682 534.923,698.1246 535.451,703.8366 536.4342,709.9178 537.3167,713.3683 538.707,716.527 540.2885,718.6842 541.9248,719.6846 543.4229,719.874 545.4547,719.4242 547.2612,718.4623 549.3247,716.794 553.948,711.532 559.0558,703.6928 564.4236,693.6586 571.568,678.3564 576.3983,666.5921 582.02,651.1904 585.7156,639.5561 589.1248,626.6558 591.7195,614.5903 593.412,603.7395 594.1665,594.8465 594.0566,587.1641 593.0782,580.7377 591.2109,575.4409 589.388,572.5869 587.138,570.4369 584.5547,569.2104 581.759,568.883 578.5304,569.2591 575.5344,570.2984 571.959,572.3281 568.1027,575.2893 564.6224,578.6396 561.2342,582.5826 554.7058,592.2917 549.236,603.0076 544.1844,616.1344 540.1209,630.3869 536.6557,646.7685 534.3405,663.7241 532.8691,683.8936 532.9558,701.1421 533.5476,708.8295 534.3808,714.6666 535.4705,719.2458 536.8281,722.6836 538.7236,725.1633 540.8971,726.4703 542.3794,726.5922 544.4049,725.9698 546.6665,724.5251 548.8833,722.5282 554.1137,716.1555 559.4294,707.7801 565.4569,696.4209 571.2387,683.8623 577.784,667.9629 583.2464,652.9438 587.8438,638.625 591.5602,625.2893 594.4815,612.4028 596.297,601.5363 597.1425,591.6226 597.0717,582.2025 596.1018,575.5066 594.0974,569.679 592.2082,566.5761 590.1303,564.5552 587.1239,562.9933 584.167,562.4318 581.0288,562.666 576.8682,563.9402 573.0476,565.9103 569.4058,568.5563 565.6147,572.0735 561.687,576.4935 558.1319,581.1369 554.5942,586.5785 551.0932,592.7315 548.2908,598.4341 542.851,612.4293 538.1575,628.6847 534.6855,645.9969 532.0109,667.1111 530.6763,687.4487 530.7881,706.6537 531.3545,714.624 532.214,721.1973 533.3613,726.2097 534.9609,730.4387 536.676,732.88 538.7402,734.2188 540.6189,734.4924 542.4785,734.0131 544.8969,732.5641 547.23,730.5208 552.6065,723.9815 558.5982,714.5456 565.1714,702.2693 571.951,687.796 578.9192,670.9371 584.9453,654.6895 590.1335,638.6184 594.582,622.8669 597.2968,611.1485 599.6197,597.8187 600.7421,587.1826 600.7741,578.3506 599.8327,569.7868 598.004,563.7804 595.9386,560.1967 593.331,557.355 590.2901,555.5967 586.7748,554.8587 583.0516,555.0722 579.15,556.2114 574.5951,558.4777 569.8764,561.7546 565.7832,565.3666 561.6879,569.76 557.5753,575.0167 553.8109,580.6796 550.4133,586.6796 547.0222,593.6159 543.9457,600.871 541.0007,608.8603 538.574,616.8212 535.9154,627.6179 531.883,648.5001 529.2888,670.9809 528.0976,691.6729 528.2861,713.3778 528.8523,722.0173 529.683,728.979 530.9591,734.7944 532.5765,739.3291 534.2522,741.9224 536.6581,743.5808 538.6189,743.8676 540.7105,743.2836 543.0518,741.7942 545.6428,739.4378 548.6446,736.0518 551.7019,731.9882 558.5117,721.1392 565.8068,707.1894 573.4053,690.6549 581.2009,671.7284 588.112,653.0467 593.4106,636.7277 597.9692,620.5673 601.4638,605.6576 603.7532,592.653 604.9521,581.2422 605.0692,571.1678 604.0247,562.1432 603.125,558.5787 601.9658,555.4948 599.5627,551.4913 596.849,548.737 593.4259,546.8218 589.5891,546.0115 585.5169,546.1884 580.9305,547.4279 575.834,549.9141 570.8366,553.2591 565.9536,557.3787 561.81,561.675 557.2452,567.3926 552.8899,573.7409 549.088,580.2757 545.487,587.4804 542.3971,594.7152 539.3764,603.0051 536.4751,612.4552 533.3635,624.7296 529.6313,644.8755 526.7488,670.7518 525.3655,693.556 525.2453,717.7571 525.805,730.1146 526.5452,737.0588 528.0218,744.814 529.5548,749.6507 531.672,753.1516 533.0237,754.4287 534.3086,755.1313 536.4219,755.2897 538.8404,754.436 541.5496,752.585 544.2685,750.0023 547.3909,746.2862 550.8102,741.5231 557.9293,729.8103 566.1493,713.9677 574.5816,695.615 582.9977,675.1636 590.8845,653.8865 597.1678,635.0124 602.2325,617.6409 606.105,601.4892 608.8917,586.5662 610.3117,574.3566 610.527,563.6072 609.5684,553.9042 608.6748,550.0056 607.5,546.625 605.0027,542.0326 601.9538,538.6255 598.4406,536.3817 594.3164,535.1973 589.4344,535.1251 584.2807,536.2428 578.8539,538.481 573.3036,541.8205 567.7573,546.1805 562.6149,551.1439 557.0,557.625 552.5599,563.6879 548.3699,570.4758 544.2656,578.2891 540.5985,586.596 537.1077,595.899 533.9953,605.9538 531.1468,617.0303 528.7498,628.6558 526.8237,640.3479 524.9549,655.1017 523.847,667.062 522.7435,681.9312 521.8897,702.0811 521.8657,730.1528 522.4965,742.5845 523.323,751.0851 524.6577,758.4353 526.47,764.3682 528.6956,768.1122 529.8986,769.2141 531.2211,769.9111 533.3031,770.1182 535.9949,769.1827 538.7179,767.2787 541.7293,764.321 545.1559,760.1122 548.9078,754.7644 557.0785,741.0494 567.1375,721.2811 577.2218,699.1869 586.575,676.3841 595.6446,651.882 602.6239,631.0006 608.3461,611.5453 612.5922,594.3182 615.5966,578.3751 617.2504,564.7564 617.5975,552.9869 617.2309,547.5084 616.5028,542.2264 615.5392,537.9275 614.1648,533.8303 611.4711,528.8433 607.9986,525.082 603.8064,522.5031 599.1434,521.2557 593.2788,521.2526 586.9901,522.5497 580.7168,525.0698 574.3115,528.7852 568.1606,533.4077 561.914,539.1491 556.3481,545.2672 551.04,552.2527 545.9226,560.3075 541.178,569.137 537.2452,577.8657 533.752,587.2222 530.7495,597.0109 527.7723,608.8278 525.596,619.5747 523.6578,631.5605 520.7969,656.7934 519.1679,679.1473 518.1796,699.5019 517.4985,725.0172 517.445,740.2376 517.8065,754.2907 518.7907,768.4533 519.9509,776.821 521.8336,783.96 523.8917,788.2116 525.1747,789.6315 526.6349,790.5084 528.995,790.7605 531.3616,789.9871 534.1187,788.1565 537.2472,785.2096 540.7385,781.0939 544.25,776.25 552.432,762.9291 562.0258,744.7602 572.6561,722.2412 583.5073,697.3293 593.4732,672.4389 602.4435,648.1734 610.1262,625.4591 616.3848,604.6641 621.3729,585.3778 624.8125,568.7656 626.832,554.4395 627.6418,540.6492 627.509,534.3864 627.0439,529.0559 625.3762,520.8078 622.5505,513.8596 620.6742,510.8229 618.5682,508.2567 616.248,506.1484 613.7293,504.4858 610.8578,503.1825 607.6263,502.2283 604.2765,501.7094 600.4441,501.6264 593.3955,502.7149 584.9216,505.604 576.6424,509.8562 568.3977,515.5664 560.3317,522.5599 552.6595,530.7264 545.9771,539.4392 540.0264,548.9122 534.2966,560.0812 530.1504,570.2755 526.495,581.487 523.5376,593.3836 521.3608,604.2116 518.783,621.1035 517.1396,636.9949 515.7467,656.3754 513.279,704.3783 512.2598,731.3086 511.6026,759.1168 511.5119,782.9999 511.909,796.3189 512.9436,808.8919 514.507,817.2518 515.617,820.5505 516.8272,822.9286 518.2474,824.6479 519.8003,825.5752 522.2478,825.7047 525.1618,824.4531 528.2825,821.9779 531.8572,818.1077 535.933,812.7258 540.2671,806.1675 550.129,788.9102 562.9486,763.6093 576.1388,735.1994 591.4966,699.4064 605.0871,665.5316 614.9752,638.8973 624.0067,612.4007 631.3333,588.5338 637.0619,566.989 641.3005,547.1294 643.906,529.9304 644.9517,514.9804 644.8695,508.3892 644.3866,502.5053 643.3183,496.0001 641.6617,489.9021 639.5058,484.68 636.8814,480.3074 633.8198,476.7575 630.0708,473.7903 625.7571,471.4825 621.1412,469.9558 615.8928,469.1248 610.4211,469.0727 603.7181,469.8503 596.7441,471.4127 590.2198,473.5389 583.4502,476.4085 576.2265,480.1538 569.4175,484.3324 563.0,488.875 556.7929,493.8693 551.1515,498.9983 545.4682,504.8042 541.0156,509.9764 536.668,515.7571 532.2639,522.3649 528.5225,528.7851 524.875,536.0 522.0944,542.2949 519.4828,549.3076 517.5215,555.8077 515.3782,564.3529 513.5792,574.2924 512.4815,583.088 512.162,589.7222 512.8797,585.2856 513.5224,576.2544 515.5817,539.8716 517.205,490.234 517.6243,437.3849 516.3908,385.2266 515.3697,362.6808 514.0606,341.8355 512.1475,318.1349 509.9749,296.3988 507.6061,276.9436 504.977,258.8814 501.9114,241.055 498.5111,223.9273 494.7576,207.5081 490.6518,191.9689 486.3121,177.7992 481.6542,164.7318 476.5723,152.5734 471.3203,141.8572 465.7359,132.204 460.0701,124.0228 454.147,117.0416 447.9915,111.3654 441.7852,107.1852 435.6086,104.4909 429.0064,103.1268 422.3837,103.2752 415.8058,104.9286 409.6746,107.8764 403.0456,112.7202 396.8688,118.9859 390.9206,126.857 385.2459,136.3709 380.2436,146.8058 375.6373,158.7024 371.6443,171.6072 368.3498,185.2054 365.8051,199.2294 363.9747,213.6841 362.8119,228.8316 362.3416,244.5624 362.5855,260.7476 363.5314,276.8563 365.1207,292.3383 367.4123,307.9142 370.054,321.9453 373.3086,336.2966 377.169,350.8472 381.5,365.125 386.0755,378.4529 391.094,391.4722 396.6523,404.4869 402.8477,417.7207 415.0138,441.017 428.8208,464.0921 445.164,488.9141 475.196,531.9545 485.4178,548.0723 491.2968,558.286 495.6206,566.7179 500.5237,577.9911 504.0008,587.4518 507.6866,600.2466 510.0586,610.8817 512.4756,626.2409 513.96,642.4692 515.3304,674.7734 516.1967,745.8512 516.6504,757.9629 517.5449,768.7041 518.9447,779.3156 520.6643,786.2586 521.7786,789.0448 523.0938,791.3345 524.3848,792.7461 525.8491,793.6195 528.1987,793.8895 530.9081,792.9843 533.662,791.0955 536.6471,788.2175 540.2297,783.9317 543.9169,778.7866 552.0818,765.3726 562.2438,746.0141 573.6226,721.9827 585.0023,695.8545 595.3966,669.8647 604.4484,645.0757 612.1245,622.0343 618.2496,601.3346 623.0807,582.1282 626.6235,564.4231 628.6206,549.3807 629.164,536.5618 628.9097,530.5474 628.3004,525.0963 626.4752,517.0618 625.098,513.4009 623.5268,510.315 621.6715,507.5102 619.3473,504.8464 617.0878,502.9042 614.3482,501.1846 611.4205,499.9436 608.31,499.1581 604.6934,498.7324 600.9866,498.7436 593.3666,499.9698 584.9673,502.8786 576.5064,507.2538 567.8269,513.1982 560.0269,519.8793 552.7086,527.6473 545.7116,536.6703 539.4465,546.5353 534.0601,556.9664 529.537,568.012 525.6625,579.9987 523.2813,589.2992 520.5717,602.7256 518.2715,618.172 516.3479,637.2514 514.9455,656.3339 512.8191,701.3247 510.6325,761.6855 510.3436,783.5066 510.7086,799.8509 511.6454,813.5172 513.2259,823.0946 514.25,826.625 515.367,829.1227 516.7527,830.9448 518.4119,832.022 519.6725,832.2922 521.0583,832.18 523.8751,830.9471 527.2079,828.2037 530.8785,824.1113 535.0571,818.5017 539.7438,811.3173 550.0466,793.1952 562.8058,767.8712 576.7886,737.4908 591.9235,702.3808 605.4122,668.8048 616.5395,638.8993 626.0514,611.3092 633.7101,586.728 639.6643,564.6417 644.2259,543.8104 647.0354,525.6822 647.7865,517.6993 648.1136,510.3421 648.024,503.7339 647.5194,497.2229 646.5337,490.9614 645.1101,485.4195 643.2715,480.5773 640.8786,476.1608 638.0854,472.511 634.6295,469.2768 630.8347,466.7782 626.3989,464.8439 621.6866,463.6516 616.375,463.125 610.4966,463.2777 604.1821,464.1097 597.8601,465.5685 591.5949,467.5898 584.7709,470.3642 577.8986,473.6916 571.6824,477.2206 565.6743,481.1656 559.0509,486.035 552.9928,491.0483 547.9578,495.7929 542.5027,501.5684 537.6895,507.259 533.1639,513.2858 529.3365,519.1967 524.7671,527.2431 521.9375,533.0 519.3788,539.1642 515.0388,552.4404 513.1626,560.5806 511.6944,568.875 513.649,531.0948 514.5011,503.5797 514.8422,474.9084 514.5911,425.2593 513.2246,384.1529 510.4589,340.3592 508.6936,320.6612 506.6442,301.9718 504.1703,282.8532 501.4107,264.7189 498.3924,247.7811 495.0744,231.8128 491.4492,216.7942 487.4909,202.5601 483.2543,189.3235 478.7722,177.1905 474.2239,166.5601 469.3555,156.8225 464.3656,148.3979 458.8882,140.7045 453.1716,134.203 447.5433,129.1965 441.7729,125.4208 435.8969,122.949 430.25,121.875 424.2345,122.1222 418.2906,123.7579 412.4723,126.7443 406.5426,131.3057 401.151,136.9464 396.0496,143.8225 391.1111,152.2474 386.6886,161.7327 382.7822,172.1829 379.4071,183.4745 376.4962,195.8819 374.2471,208.5028 372.5932,221.4441 371.576,234.521 371.158,248.1449 371.3473,262.2376 372.1463,276.7058 373.5508,291.4403 375.54,306.2317 377.7418,318.8435 380.5207,331.8663 383.7924,344.8455 387.6329,358.0719 392.0224,371.4353 396.8613,384.6422 401.9065,397.0388 407.6094,409.7812 419.4376,433.2903 432.0108,455.3277 449.0166,482.1425 475.5208,522.0242 484.5416,536.7468 491.1946,549.2386 495.9377,559.2047 500.7411,571.0595 503.9828,581.0068 507.5362,595.5323 510.0516,610.9377 511.8009,628.5939 512.709,647.1504 513.0499,671.02 512.8981,697.1852 511.9927,737.2025 511.7023,765.1037 511.8946,782.2819 512.398,794.7308 513.5804,806.0373 515.2821,814.387 516.4294,817.6144 517.6419,819.8385 519.0757,821.4335 520.5,822.25 522.9811,822.3735 525.9546,821.0547 529.4408,818.1807 533.0723,814.1236 537.1799,808.572 541.7996,801.4373 552.534,782.465 565.0796,757.4166 578.6694,727.6809 592.0711,695.9833 605.936,660.8414 615.9238,633.552 624.2411,608.6623 631.3349,584.8427 636.8517,563.1366 640.5562,544.5315 642.6451,528.2183 643.2103,513.9493 642.9165,507.5047 642.2378,501.6761 640.899,495.3991 638.9177,489.7271 636.4543,484.9857 633.2985,480.8083 629.6799,477.5472 625.6584,475.1544 620.8785,473.4087 615.3708,472.3713 609.6477,472.1893 603.3658,472.866 596.6028,474.4335 589.7524,476.7159 582.7347,479.7431 575.5672,483.5332 568.3502,488.0437 561.6487,492.9468 555.8708,497.8349 550.2485,503.1927 545.1695,508.6236 540.3321,514.4362 536.1783,520.1947 531.9897,526.8527 528.1648,533.6691 525.0621,540.1179 521.7936,548.2719 518.7126,557.5567 517.155,563.2204 515.2438,571.9757 513.2352,586.1653 512.2981,599.1295 512.5,603.875 513.5768,596.3022 515.7439,567.8672 517.3711,534.548 518.6836,497.9453 519.261,469.8932 519.4345,443.2394 518.5662,389.2222 517.6358,365.0833 516.3618,342.4462 514.4963,317.677 512.3681,294.9742 509.9717,274.0957 507.2714,254.5855 504.3181,236.6307 500.7667,218.1968 496.885,200.8353 492.6123,184.361 488.0722,169.2906 483.1858,155.372 477.9841,142.7464 472.5065,131.4439 466.6735,121.2648 460.5118,112.3289 454.2925,105.0109 447.8168,99.0637 441.1085,94.5944 434.5232,91.8051 427.7563,90.4753 424.3608,90.3696 420.6287,90.681 416.9097,91.438 413.5489,92.5107 406.9163,95.7473 403.3372,98.1432 399.8199,100.9728 393.0126,107.9236 386.65,116.4533 380.7362,126.4889 375.2181,138.1552 370.3183,151.017 365.9751,165.3042 362.4703,180.0716 359.805,194.9927 357.8763,210.6063 356.699,226.8898 356.2904,243.7183 356.6638,260.947 357.7946,278.0333 359.6933,295.2137 362.3037,311.9219 365.1336,326.1827 368.5901,340.7253 372.5732,355.0937 377.1566,369.5553 382.211,383.7143 387.5788,397.1723 393.653,410.913 400.2245,424.4441 406.5391,436.4582 413.5822,449.0012 427.5084,471.4591 445.8459,498.1267 474.8504,538.1377 485.5334,554.134 491.9933,565.125 496.9237,574.4289 501.0151,583.5011 504.9366,593.4634 507.956,602.9991 511.4082,617.0573 513.4684,629.3586 515.0956,642.5416 516.7891,665.9358 518.7303,729.2711 519.532,743.874 520.6196,754.2433 522.0868,763.4803 523.9142,770.1389 526.2442,774.8636 527.5895,776.3344 529.1376,777.2137 531.2545,777.4625 533.6445,776.8024 536.3091,775.1742 539.2344,772.5365 542.5047,768.8154 545.8065,764.4035 553.4319,752.2469 562.3772,735.5225 572.0777,715.1729 582.3613,691.6296 591.4822,668.7523 599.6622,646.2194 606.4358,625.5913 611.7837,606.9458 616.369,588.1061 619.2945,572.7631 620.827,560.0406 621.2014,547.6529 620.9075,542.2061 620.2471,536.9386 618.468,529.7648 615.621,523.6252 613.849,521.0989 611.8819,518.9788 609.732,517.2527 607.4116,515.9083 604.7338,514.8616 601.8329,514.1864 595.7865,514.0158 588.8188,515.4309 581.1562,518.4688 573.6389,522.8134 566.6195,528.1078 559.7199,534.6777 553.185,542.2866 547.3891,550.3303 542.2671,558.826 537.4872,568.6664 533.0997,579.5698 529.1643,591.8609 525.9113,604.8233 523.6663,616.1294 521.3435,632.5001 518.5246,661.2594 516.1552,704.7675 515.407,729.3013 515.3774,752.4591 515.6776,765.4009 516.4478,778.7664 517.648,788.0065 519.5,795.5 520.6221,798.2281 521.7336,800.0217 523.0097,801.3463 524.4541,802.1713 526.7665,802.4281 529.434,801.5054 532.3359,799.4192 535.6294,796.1059 539.3063,791.5245 543.1382,785.9755 552.1371,770.7751 562.9869,749.727 575.836,722.2265 587.3649,695.4934 598.3064,667.8781 607.715,642.2348 615.593,618.7416 622.0593,597.013 627.1066,577.1684 630.6697,559.4288 632.6416,544.3881 633.3034,530.3504 633.0913,524.1821 632.5172,518.5848 630.6417,510.1716 629.201,506.372 627.4649,502.9365 625.4904,499.9678 623.0383,497.2015 620.6184,495.1769 617.7154,493.4281 614.474,492.1361 610.8735,491.2458 607.1521,490.8109 602.9472,490.83 599.0492,491.2737 594.7879,492.18 585.6321,495.3665 576.0799,500.3119 566.8413,506.6068 558.5028,513.7812 550.0303,522.7659 543.0,531.875 537.0462,541.4055 531.1897,552.945 526.4966,564.6022 523.3965,574.6212 519.8255,589.8942 517.4392,604.4438 515.4996,621.1788 514.2154,637.9295 513.2937,655.1284 508.0837,773.803 507.1975,806.9496 507.3137,822.3639 507.7374,832.0237 508.662,840.013 510.1366,846.5356 512.0202,850.7443 513.1861,852.0551 514.25,852.7188 515.4385,853.0191 516.7589,852.9366 519.8247,851.5449 523.3401,848.5136 527.3524,843.8096 531.763,837.6181 536.7549,829.6857 548.4243,808.5403 562.9201,779.2165 578.8243,744.3817 595.9135,704.4808 611.8994,664.7766 623.9124,632.9365 634.1515,603.7626 642.5577,577.427 649.1143,553.9436 654.0073,532.4597 657.1477,513.5833 658.0863,505.0535 658.6169,496.8145 658.6891,489.2637 658.3281,482.685 657.5276,476.5561 656.393,471.2877 654.9189,466.559 652.9652,462.0241 650.6685,458.0782 648.0577,454.6982 645.1616,451.8611 641.6771,449.3294 637.7263,447.2475 633.5546,445.7296 628.8251,444.6646 623.9189,444.1413 618.4871,444.1118 612.7509,444.5827 606.7698,445.5312 600.4689,446.9918 593.8988,448.9817 587.125,451.5 580.1752,454.551 573.5841,457.8846 567.0478,461.6292 560.3879,465.9108 553.505,470.7945 547.5696,475.4772 537.1578,485.1818 528.2307,495.2064 524.1213,500.6605 520.0117,506.773 511.3579,521.9949 510.6625,522.7985 509.9375,522.5977 509.2621,517.7935 509.2772,470.0744 508.5729,432.0567 507.0725,394.7105 504.751,362.0591 501.725,330.7909 497.8053,301.7543 493.0251,274.3347 487.5772,250.0526 484.289,237.8726 480.9266,226.8848 477.413,216.773 473.633,207.2676 469.7319,198.7851 465.6557,191.1729 461.2086,184.0526 456.8452,178.188 452.3458,173.2528 447.7205,169.3179 443.2456,166.584 438.526,164.8086 433.9276,164.101 429.046,164.4773 424.6072,165.8838 420.2865,168.3083 415.4831,172.3706 411.1472,177.4687 407.0413,183.8044 403.1627,191.5036 399.8657,199.8278 396.8962,209.3982 394.4826,219.5633 392.6637,230.1535 391.3853,241.5526 390.6847,253.3156 390.5321,265.7329 390.943,278.7145 391.8301,290.7804 393.2681,303.0636 395.2456,315.5475 397.8129,328.5182 402.4022,347.3428 407.4747,364.096 414.0634,382.2666 422.3381,402.1954 431.2631,420.9149 443.3619,443.4791 452.7781,459.638 478.8166,502.3492 486.1127,515.2605 493.3193,529.3525 499.4475,543.7677 503.8311,556.7573 507.0568,568.9834 509.2778,579.4306 510.4375,583.2188 510.875,583.375 511.2456,582.7518 511.8701,579.8262 513.4675,562.3183 514.79,539.3334 515.8681,509.907 516.7692,452.8926 516.4515,420.32 515.7266,392.9602 514.6081,368.5933 513.1227,344.4448 511.3891,322.6096 509.3452,302.0608 506.8564,281.6069 503.9971,261.9079 500.819,243.3655 497.3692,226.1831 493.6133,210.1288 489.545,195.1545 485.0346,180.7769 480.3752,167.9325 475.4816,156.3079 470.2223,145.6652 464.9486,136.6968 459.3408,128.8304 453.072,121.7619 446.9012,116.3926 440.5736,112.4168 434.1275,109.8971 430.872,109.2029 427.6011,108.8964 421.3615,109.4099 415.0075,111.4366 408.9397,114.8222 402.8168,119.778 396.7285,126.4209 391.0112,134.4911 385.9399,143.4931 381.3214,153.6754 377.1766,165.0332 373.6186,177.2358 370.5863,190.5268 368.2627,204.0301 366.5303,218.3743 365.4815,233.0078 365.1183,247.5897 365.4235,262.95 366.3896,278.2292 368.0185,293.7083 370.307,309.2691 372.875,323.0 375.8339,336.1422 379.2692,349.2 383.2722,362.4884 387.8329,375.9113 393.0507,389.6935 398.5594,402.9113 404.4154,415.6369 416.0851,438.0228 430.8814,463.0444 444.6063,484.0415 472.8301,525.2078 486.1245,546.2572 491.9245,556.9468 497.4483,568.2882 500.9465,576.7464 504.3981,586.6934 507.6133,598.75 510.4637,613.0 512.413,629.179 513.6824,645.8966 514.1877,656.6281 514.598,677.631 514.7706,749.1333 515.1864,763.7516 516.0196,775.7139 517.337,786.603 519.0243,793.9922 520.0614,796.7999 521.3484,799.2277 522.8403,800.9348 524.2855,801.7917 526.6246,802.0576 529.342,801.1481 532.2648,799.1119 535.5092,795.8769 539.1612,791.3685 543.205,785.5788 552.3277,770.2622 563.0151,749.54 574.7701,724.3359 587.0174,695.8421 598.6166,666.6801 607.7503,641.778 615.6232,618.2592 622.0197,596.7737 626.9333,577.3493 630.515,559.4692 632.5788,543.9235 633.1366,530.7887 632.9001,524.7796 632.2802,518.9125 630.3729,510.2942 629.0362,506.6585 627.3124,503.2201 625.1749,500.0794 622.7718,497.4188 620.1427,495.2512 617.3074,493.5601 614.2854,492.3291 611.0966,491.5417 607.0922,491.121 603.048,491.1555 598.9558,491.6138 594.8211,492.4731 585.9445,495.5063 576.732,500.136 567.7407,506.1959 558.971,513.6433 550.5403,522.4436 543.7173,531.1703 537.4205,541.089 531.5749,552.5086 527.1744,563.248 523.6925,574.1168 521.1002,584.0554 518.9537,594.9306 517.1,607.2739 514.5524,635.2455 512.1727,680.5684 508.0562,777.5248 507.4784,799.2745 507.376,815.7887 507.9983,831.0554 509.2436,841.3559 510.2271,845.3289 511.4845,848.5059 512.8621,850.6009 514.5629,851.8991 515.9311,852.1976 517.2144,852.0574 520.188,850.63 523.732,847.5359 527.9928,842.4609 532.6512,835.7591 537.964,827.1268 550.3212,804.4043 565.4725,773.3215 582.2484,736.1337 599.5064,695.2776 615.3421,655.3634 626.8199,624.3479 636.473,595.9986 644.4461,569.8718 650.594,546.4778 654.8754,526.0527 657.3495,508.4137 657.9696,500.4303 658.184,492.6545 657.9571,485.5419 657.2998,479.087 656.2903,473.5737 654.9138,468.641 653.156,464.1957 650.9672,460.0745 648.4686,456.5184 645.6875,453.5 642.3634,450.7885 638.771,448.649 634.6175,446.9357 630.072,445.7421 624.9494,445.0002 619.6875,444.7969 614.3238,445.0898 608.8957,445.8368 602.7301,447.1662 596.4013,448.9318 589.8786,451.1547 583.2129,453.8656 570.4376,460.3626 557.8103,468.4773 551.4204,473.2799 545.3768,478.2971 535.6973,487.6329 527.2497,497.5797 520.5085,507.2321 511.7223,522.9108 510.791,524.1934 510.248,524.3457 509.616,522.4956 509.3316,517.7182 509.5051,467.7077 508.6199,423.9861 507.2136,393.2039 505.0384,362.1958 501.9259,330.1938 498.1159,301.5921 493.1217,273.2182 487.4271,247.9761 484.2197,236.1932 480.697,224.8271 477.0111,214.3708 473.2057,204.9183 469.3098,196.4977 465.1816,188.8256 461.0,182.25 456.4361,176.2855 451.7342,171.3144 446.9266,167.394 442.0456,164.5816 437.4316,163.0024 432.8079,162.4946 428.1278,163.093 423.5377,164.7744 419.0852,167.5071 414.2571,171.8352 409.7178,177.4275 405.6983,183.9226 402.0207,191.5813 398.8041,200.1635 395.9609,209.9304 393.6335,220.4417 391.8314,231.5693 390.6394,242.4556 389.9735,254.0 389.8561,265.7586 390.2738,278.0206 391.238,290.6885 392.7104,303.3201 394.6604,315.7473 397.2092,328.6568 402.5134,349.8367 409.1054,370.7359 416.9342,391.1732 426.531,412.6311 435.1766,429.7953 445.7212,448.7313 480.3329,505.828 489.1416,521.8154 495.4207,534.9463 501.2616,549.885 504.2559,559.4335 507.2161,571.5785 509.7781,584.3209 510.8125,587.8594 511.25,588.125 511.5714,587.551 512.207,584.0957 513.7824,566.5068 515.0161,545.2793 516.5363,507.7722 517.1805,478.9321 517.375,453.3477 517.1775,422.2851 516.5199,395.2596 514.0184,345.7984 512.4096,324.6265 510.4557,304.3699 507.8346,282.3192 504.9038,261.5658 501.6839,242.3372 498.1469,224.4548 494.4214,208.4051 490.0873,192.3483 485.5713,177.8197 480.7726,164.4606 475.7144,152.3757 470.5816,141.9439 465.0876,132.5846 459.4119,124.6362 453.3241,117.7621 447.0177,112.2533 440.5386,108.1748 433.9326,105.5914 427.5653,104.5802 424.3665,104.6227 420.9564,105.0797 414.5907,107.0765 408.3671,110.5038 402.0692,115.5522 395.7882,122.3449 389.8707,130.6192 384.6034,139.868 379.7823,150.3692 375.441,162.1478 371.7223,174.816 368.6409,188.2321 366.2115,202.2544 364.4096,217.149 363.3485,231.9788 362.9913,246.9482 363.322,262.2869 364.34,277.9034 366.0379,293.6927 368.4633,309.899 371.0692,323.6681 374.0487,336.7321 377.6211,350.1095 381.7827,363.6983 386.5081,377.3861 391.8762,391.3725 397.4997,404.6993 403.4941,417.5802 415.443,440.3434 429.8439,464.53 442.6712,483.9979 473.2521,528.257 486.252,548.5508 492.1634,559.3588 497.4167,570.1094 500.5,577.5 504.6673,589.2415 507.9246,600.871 510.6797,614.2695 512.648,628.5197 513.9304,643.3757 514.7387,657.8001 515.1458,676.3326 515.7823,744.8079 516.375,761.75 516.9932,770.0481 518.5183,781.15 520.1442,788.1692 521.3507,791.1878 522.5875,793.3069 523.9819,794.8809 525.5982,795.8667 528.1294,796.0177 530.7765,794.9781 533.7973,792.7624 536.8699,789.6667 540.4665,785.213 544.4755,779.463 553.1401,764.9667 563.4963,744.9979 574.3171,721.8955 585.7843,695.0732 596.8867,667.1228 605.4976,643.6293 613.1188,620.7934 619.2859,600.07 624.0372,581.3235 627.5778,563.392 629.6472,547.8616 630.2731,534.7865 630.0455,529.0687 629.4453,523.6974 627.4554,514.9978 626.1371,511.5061 624.4276,508.1436 622.4601,505.2768 620.2957,502.9391 617.8688,500.9458 614.9448,499.1707 611.8394,497.8746 608.5773,497.0411 605.1834,496.6536 601.8026,496.6799 597.8042,497.1102 593.7839,497.9359 585.3339,500.8609 576.3549,505.5097 567.8137,511.3199 559.3558,518.6471 551.6235,526.874 544.658,535.942 537.9343,546.798 533.25,556.0625 528.3934,567.9388 524.9779,578.9592 522.0383,590.8242 519.1687,606.5038 517.0208,623.1806 515.6643,638.4988 514.2358,660.6923 511.2837,726.6953 509.8259,775.0562 509.6931,796.1391 510.111,811.3943 511.1008,821.8033 512.6891,829.5874 514.6543,834.3691 516.0993,836.0827 517.5105,836.9184 518.7812,837.1684 520.1827,837.0225 523.1281,835.6353 526.511,832.7269 530.4603,828.1642 534.7179,822.2691 539.4951,814.77 550.9554,794.2338 564.5572,766.8844 579.2739,734.5827 594.7813,698.1764 608.9656,662.4941 620.3193,631.8279 629.7929,604.0965 637.2149,579.8402 642.9882,557.7591 647.2821,537.3596 649.8611,519.3552 650.4616,511.6111 650.6341,504.4736 650.3778,497.6716 649.708,491.3366 648.6461,485.6426 647.0957,480.2333 645.1421,475.5182 642.8095,471.4759 639.9541,467.904 636.7655,464.9979 632.9636,462.5092 628.8762,460.6796 624.1883,459.3792 619.2964,458.7213 613.7095,458.6549 608.1562,459.1713 602.2008,460.2775 595.8912,461.991 589.2783,464.3088 582.4826,467.2105 576.0092,470.4898 569.858,474.1034 563.0991,478.6504 556.8903,483.3112 551.1965,488.0807 545.6978,493.2487 540.5808,498.6249 535.8291,504.2335 531.664,509.769 527.818,515.543 524.0705,521.8901 521.125,527.6562 517.9944,534.8535 515.7655,540.8618 511.3472,556.1574 512.9747,501.806 513.3547,462.9731 512.588,413.1239 510.9472,375.7194 508.0586,336.4786 504.0028,299.7627 498.9655,266.4776 496.0562,251.0516 492.8968,236.5217 489.2752,222.0088 485.4739,208.7285 481.4276,196.4058 477.1632,185.1363 472.7076,174.9917 467.9533,165.7522 462.8978,157.4196 457.8494,150.4693 452.6068,144.5871 447.1933,139.8595 441.8997,136.5098 436.4086,134.3336 430.9195,133.4049 425.1289,133.7511 419.4296,135.4586 414.1934,138.2981 409.1232,142.3222 404.2604,147.5204 399.5928,153.9487 395.0681,161.781 391.103,170.2817 387.4285,180.0021 384.3514,190.1246 381.7605,200.8992 379.7235,212.0029 378.1408,224.0267 377.1036,236.37 376.597,248.9369 376.6139,262.0173 377.1618,275.1285 378.2328,288.2448 379.82,301.1492 381.8823,313.8082 384.5224,326.9258 387.7425,340.3999 391.422,353.7648 395.2674,366.1721 399.4021,377.9921 404.2116,390.3202 409.5134,402.668 420.6383,425.8557 432.5476,447.4499 447.536,472.118 476.432,516.9318 488.3439,537.5635 492.8573,546.5622 498.5492,559.8375 501.9399,569.7272 505.0896,580.6623 508.2803,596.342 510.1603,610.8146 511.4657,629.1599 511.9277,646.2366 511.9661,667.4569 511.5912,688.3991 508.5159,783.3727 508.3763,805.7212 508.588,815.5703 509.4717,827.8116 510.8785,836.5659 511.8787,839.8224 512.9606,842.1137 514.4531,844.0193 516.0,845.0 517.3736,845.2495 518.6903,845.0611 521.7231,843.5111 525.3101,840.3029 529.1073,835.8085 533.6,829.4562 538.5716,821.5009 550.0627,800.6886 564.5523,771.2384 580.7798,735.5896 595.7788,700.3635 611.2605,661.5525 622.537,631.3241 632.0767,603.6426 639.8852,578.4386 646.1758,555.0431 650.6854,534.4892 653.496,516.4828 654.2791,508.1951 654.6329,500.5423 654.5698,493.5156 654.0627,486.7479 653.1812,480.9816 651.9214,475.8139 650.2959,471.2357 648.134,466.8846 645.6149,463.1242 642.51,459.6827 639.0747,456.8947 635.3518,454.7234 631.0442,453.0244 626.4528,451.937 621.2823,451.3299 615.9993,451.2691 610.6407,451.7124 604.8575,452.6987 598.7575,454.2487 592.1316,456.3926 585.339,459.0634 578.8013,462.1052 572.0225,465.7728 564.9632,470.0697 559.0445,474.1055 553.5537,478.2988 547.4625,483.4892 541.6727,488.9568 536.7143,494.1936 532.5231,499.1652 528.5087,504.5246 524.232,510.9115 518.3932,521.19 515.5548,527.2833 511.4887,537.2751 511.0295,538.0328 510.6065,537.963 510.3225,533.4023 510.9174,502.3796 511.1105,467.1134 510.7365,436.6028 509.8477,405.7646 507.634,366.4542 504.5319,331.8559 500.2859,297.7619 495.625,269.875 489.5565,241.812 486.1574,228.8378 482.6252,217.0747 478.9946,206.5543 475.0177,196.5634 470.5135,186.7199 465.9375,178.1267 461.3314,170.7854 456.5192,164.42 451.7326,159.3366 446.72,155.2717 441.4628,152.2586 436.5284,150.5541 431.2434,149.9304 426.3417,150.4852 421.4977,152.1518 416.786,154.9104 412.5648,158.43 408.3339,163.079 404.3587,168.6327 400.6642,175.0359 397.2755,182.2333 394.2179,190.1698 391.5807,198.5735 389.348,207.4848 387.5211,216.832 386.0459,226.9323 384.9929,237.3638 384.3385,248.4561 384.1209,259.7498 384.3231,270.6163 384.9478,281.7636 386.0103,293.2288 387.632,305.7049 389.7574,318.3439 392.3811,331.0524 395.3296,343.0799 398.8798,355.5542 402.875,367.8954 407.3912,380.377 412.5369,393.2631 417.6237,404.9183 423.303,416.9047 436.3303,441.6161 448.5469,462.401 478.8982,511.2145 485.0235,521.8865 490.6026,532.7521 495.7297,543.7863 501.062,557.8045 504.9148,571.5395 507.6508,584.3321 509.4776,597.9005 510.5231,610.2361 511.6011,633.3741 511.6578,676.8284 510.9456,700.5061 509.7141,724.0647 507.2624,756.0548 497.6785,864.3872 496.4534,883.0117 495.9327,896.9144 496.139,909.3137 497.2232,918.0351 498.1443,920.8929 499.2001,922.6173 500.527,923.5918 502.1491,923.7398 503.7436,923.1765 505.1883,922.2446 509.0565,918.4027 513.6653,912.1953 519.2355,903.3442 525.5817,892.1434 532.6499,878.7416 550.2409,842.8688 573.5592,792.1926 599.2085,733.6749 622.9643,677.1 643.2761,626.1083 656.9918,589.4807 668.8065,555.6709 678.2302,526.0917 685.5995,499.72 690.7208,477.2981 693.9722,457.1999 694.9022,448.0488 695.3721,439.1909 695.3501,431.4506 694.8478,424.033 693.1009,413.7943 691.7599,409.1725 690.129,404.9796 688.1638,401.0942 685.7198,397.2834 683.0042,393.9302 680.0376,391.0083 676.8406,388.4917 673.1145,386.1777 669.1654,384.2808 665.0202,382.7672 660.3393,381.5206 655.1697,380.5921 643.9824,379.724 632.5814,380.0962 620.0231,381.6377 605.702,384.4679 590.846,388.3075 573.8454,393.7556 555.8148,400.5246 541.5879,406.6707 519.8611,416.8891 511.8205,420.3295 508.6612,421.2938 505.6257,421.7357 503.3691,421.5488 501.667,420.7934 499.4315,418.7817 498.0214,416.5981 496.6725,413.2974 495.3649,408.6291 492.7952,394.9606 487.4891,358.4931 483.3896,335.5129 477.8454,311.8333 472.8256,295.2146 469.5259,286.4392 466.2892,279.1872 462.8184,272.7695 459.3163,267.5525 455.9139,263.7558 452.1815,260.9642 448.668,259.57 445.6009,259.5819 443.3958,260.3976 441.2492,261.8852 439.2861,263.9875 437.4977,266.6954 435.875,270.0 434.519,273.7353 432.5378,282.9195 431.5376,293.7023 431.6186,305.748 432.7428,319.5458 434.8828,332.7963 438.105,347.0716 442.1626,360.7201 447.4777,375.8807 453.875,390.875 459.8935,402.9398 467.1338,415.7176 473.6956,425.1701 477.4764,429.4884 479.5441,431.2072 482.25,432.5 484.0898,432.4267 486.0,431.0 487.4375,428.3906 488.4121,424.8877 489.3512,418.1746 489.9197,405.1111 489.8646,396.6011 489.2636,385.1229 487.5431,364.7257 485.1839,345.7929 481.3258,323.5972 477.6831,307.7802 473.1706,291.8253 468.9577,280.4323 463.9516,269.5282 459.5,262.25 456.5742,258.6562 453.9203,256.0605 451.2645,254.1405 448.916,253.0565 446.667,252.5986 444.1981,252.7137 441.4927,253.6646 439.2449,255.2313 436.9385,257.7424 435.0245,260.7221 433.3558,264.2653 431.8059,268.7542 429.6243,278.9942 428.6307,291.2217 428.7727,305.464 430.0318,318.6085 432.5729,333.8031 436.0999,348.4861 441.1131,364.9381 446.6706,379.9489 453.1005,394.8658 460.6997,410.0763 469.152,424.353 476.2485,434.0809 479.0253,437.0815 481.9323,439.5707 484.3073,440.6319 486.2882,440.5475 487.9412,439.3011 489.25,436.875 490.4335,432.7001 491.1507,428.4454 491.7656,420.6094 491.9993,412.5827 491.4981,392.6479 489.4773,366.1395 486.2956,340.9405 482.2717,318.5029 478.5488,302.0921 474.0028,286.5876 469.2271,273.4499 464.2002,262.7564 458.8412,254.2437 456.0391,250.8973 453.4103,248.4235 450.5495,246.3953 447.7484,245.1138 444.9995,244.5866 442.6309,244.7501 439.8954,245.6961 437.1828,247.5645 434.9233,249.996 432.6146,253.5214 430.7407,257.3817 429.1437,261.8135 427.7677,267.112 426.7041,272.9363 425.4115,286.006 425.4369,299.848 426.7594,315.7884 429.3621,331.6443 433.1673,348.0918 437.6836,362.991 444.3201,381.2807 451.7674,398.4248 458.9328,412.6971 468.1331,428.7107 473.0193,436.126 476.8328,441.3096 480.633,445.945 483.568,448.5731 485.9866,450.0619 487.186,450.3383 488.2738,450.214 490.0684,448.9824 491.6776,445.895 492.8804,441.3883 493.66,436.1938 494.3981,419.3001 493.7548,395.3303 491.6918,368.6123 487.9496,338.6291 484.1085,316.4766 479.8998,297.7841 475.2372,281.3576 470.1672,267.1045 464.845,255.638 461.742,250.2776 458.7921,245.9466 455.7763,242.2878 452.934,239.5489 449.7575,237.2903 446.8175,235.9168 443.5817,235.2543 440.7692,235.4634 437.6769,236.6118 434.7832,238.6478 432.2795,241.3213 429.806,245.0428 427.6016,249.579 425.7169,254.7504 424.1946,260.4111 423.0104,266.5884 422.1568,273.2224 421.605,280.6781 421.5816,296.2358 423.0751,313.9264 425.8027,330.7721 429.7603,347.3756 434.9378,364.7251 441.815,383.4121 448.5253,398.9674 457.6936,417.2445 468.6612,436.4406 478.6895,451.3181 483.3215,457.1074 486.5251,460.0731 489.2171,461.7023 490.3734,461.8384 491.408,461.5941 493.22,459.87 494.4748,457.0467 495.5821,451.8014 496.2498,446.3964 497.0124,426.916 496.4014,402.7098 495.0417,381.5905 493.7924,367.1631 489.9136,335.728 484.7382,306.1738 480.6132,288.4364 474.9598,269.4526 469.6232,255.2954 463.8064,243.5454 460.6053,238.3352 457.5288,234.1114 454.3776,230.5697 451.2582,227.8445 447.9617,225.7541 444.6901,224.4576 441.466,223.9719 438.3118,224.3137 434.9901,225.6428 431.7334,228.0405 428.9436,231.1212 426.1783,235.3608 423.7037,240.4996 421.5561,246.465 419.837,252.9075 418.4218,260.285 417.4028,268.1983 416.7715,276.5707 416.7596,292.1785 417.3726,301.3239 418.456,311.3365 419.8518,320.9677 421.5618,330.0774 425.9371,348.1512 431.5947,367.0285 438.3049,385.0185 446.0544,402.7085 456.42,423.193 469.2152,445.5452 480.6845,463.1696 485.9814,470.128 490.2785,474.6068 491.8231,475.6783 493.2148,476.2012 494.4036,476.1955 495.2037,475.7639 496.8074,473.3592 498.35,468.006 499.1629,461.687 499.9113,450.2788 499.9388,425.3886 498.6837,394.5028 495.7536,358.5718 491.3816,325.5913 489.0395,311.5882 486.431,298.2995 481.4289,277.1868 475.9738,259.0177 472.8371,250.3531 469.573,242.416 466.292,235.464 463.0249,229.5027 459.6167,224.257 456.0513,219.7371 452.188,215.8179 448.5729,213.0433 444.9414,211.1289 441.6234,210.172 438.1289,210.0226 434.5644,210.792 430.8324,212.695 427.2841,215.6945 423.9404,219.7763 420.6738,225.2452 418.0272,231.2202 415.773,237.9712 413.911,245.4369 412.375,254.0 411.3902,262.502 410.8715,271.3496 410.785,280.8634 411.1396,291.0023 411.8956,301.196 413.0154,310.7434 414.6382,320.9527 416.6964,331.4022 421.4275,350.8364 427.2856,369.5181 434.8023,389.2426 443.7121,408.8835 454.3258,429.7185 469.2693,455.592 485.79,481.8013 491.3789,489.7793 495.412,494.2544 497.0,495.1719 498.348,495.3094 499.2969,494.8379 500.1846,493.6605 501.6249,489.3694 502.7056,481.8759 503.4959,468.8936 503.7663,451.8557 502.9363,413.7976 500.6577,374.4318 497.5535,342.9976 495.3942,326.1477 493.0106,310.4485 490.1949,294.7501 487.1427,279.9682 481.6883,258.2971 475.4133,239.1051 472.024,230.5121 468.426,222.539 464.794,215.59 460.9805,209.3973 456.9753,203.9801 452.9616,199.5473 448.8748,196.037 444.7285,193.5033 440.8368,192.0723 436.7836,191.5691 432.8407,192.0309 428.7216,193.582 424.4851,196.4522 420.4799,200.5423 416.7586,205.784 413.5426,211.8063 410.5981,219.0471 408.0943,227.1381 406.0372,235.9744 404.423,245.5315 403.3689,255.2704 402.8287,265.3698 402.7745,276.126 403.221,287.4617 404.0949,298.4372 405.3967,309.1622 407.25,320.504 409.5943,332.0155 414.4969,351.3733 420.245,369.32 429.5,393.25 437.3562,410.7293 447.0735,429.7494 455.2349,444.4293 465.5239,462.1093 484.2268,493.1094 498.3813,517.8116 502.0062,522.9224 503.1542,523.5423 504.2954,523.248 505.1274,521.8891 505.9305,519.1199 506.924,511.9741 508.0043,495.2216 508.4744,469.7826 508.4258,444.5847 508.0288,425.63 507.0062,400.4978 504.2383,359.0 500.5447,323.2212 497.9604,304.6746 494.9843,286.2578 491.9415,270.126 488.7565,255.7399 485.3837,242.7534 481.5447,229.7831 477.7579,218.5506 473.8077,208.3567 469.8563,199.5838 465.7869,191.9039 461.1561,184.5371 456.2782,178.0882 451.5174,173.0409 446.6329,169.1086 441.6368,166.3714 436.859,164.9566 432.0289,164.6506 426.9505,165.5611 422.0138,167.7442 417.5719,170.9224 413.0305,175.5418 409.073,180.9203 405.327,187.4887 401.8367,195.305 398.7866,204.0021 396.1897,213.4767 393.9804,224.0613 392.4026,234.6082 391.3559,245.6394 390.8205,257.3611 390.8211,269.6885 391.3534,282.1262 392.3588,294.1892 393.8238,305.7598 395.8635,317.8956 398.4024,330.1502 403.1922,349.1791 408.2578,365.8555 414.5515,383.1675 422.2401,401.47 431.3852,420.7907 441.8927,440.5669 451.6658,457.4172 480.4041,504.6943 486.7854,515.9739 492.5305,527.3393 496.3656,535.7346 501.6407,549.6642 504.8931,560.0128 509.237,578.164 510.4074,581.6343 510.7176,581.8241 511.163,581.283 511.875,577.875 513.5978,556.8063 514.9371,531.055 516.0571,496.9622 516.4678,468.4996 516.4448,439.5602 516.0004,411.4107 515.1297,384.7735 513.9508,361.3953 512.2464,336.0706 510.3801,314.3504 508.1892,293.9739 505.6059,274.4457 502.3926,254.1557 498.9422,235.5308 495.2253,218.3568 491.2889,202.7636 486.9747,188.1297 482.2096,174.3108 476.9974,161.3387 471.7269,150.1427 466.1075,140.0638 460.3498,131.5192 454.2903,124.3059 448.0082,118.5931 441.5795,114.3967 435.0214,111.6982 431.5394,110.8904 428.3978,110.5296 424.9069,110.5398 421.7724,110.9227 418.3063,111.7677 415.2092,112.9096 408.9367,116.4066 402.7932,121.4837 397.3918,127.4384 392.0848,134.8472 387.1485,143.397 382.6282,152.9974 378.5691,163.5577 375.0745,174.7915 372.1367,186.6651 369.6896,199.4579 367.8279,212.7101 366.5237,226.6937 365.8495,240.5091 365.7666,254.8026 366.278,268.4941 367.4151,282.8316 369.107,296.9679 371.4257,311.5819 374.1483,325.47 377.3501,339.292 380.7905,352.1261 384.6767,364.7705 389.1229,377.5923 394.1076,390.4964 399.7284,403.7056 405.7671,416.7329 411.6918,428.5101 418.0191,440.197 433.2045,465.7295 445.1112,484.0243 474.4822,526.9424 487.2224,547.3555 492.0384,556.1964 497.3519,567.4911 501.0043,576.4654 504.3219,586.2581 507.4687,597.8183 510.2263,611.6879 511.9019,624.8783 513.1854,639.7113 514.1259,658.0452 514.4287,674.7597 514.5139,752.7894 514.8709,766.1393 515.6178,777.0778 516.9605,788.7546 518.5402,795.8241 519.773,799.1501 521.0651,801.5486 522.335,803.0879 524.0,804.0926 526.64,804.196 529.3438,803.0561 532.3518,800.7541 535.5188,797.4436 539.3103,792.6222 543.2834,786.811 552.4393,771.2212 563.1571,750.4998 574.0322,727.3009 587.7759,695.4178 599.4445,666.2171 608.4036,641.6434 616.4965,617.3391 622.8776,595.851 627.7652,576.4963 631.4489,558.1354 633.6142,542.1791 634.2618,528.7465 634.0033,522.5568 633.4126,517.2434 631.4096,508.4669 629.9459,504.6133 628.2198,501.2509 626.25,498.375 623.7627,495.6325 621.3707,493.618 618.4884,491.8119 615.4171,490.4766 612.1707,489.5945 608.763,489.1484 604.3678,489.1114 600.322,489.4871 595.8825,490.3229 587.3686,493.0962 577.7702,497.7997 568.4219,503.8472 559.7022,510.9912 551.4969,519.3628 543.9087,528.7529 537.7161,538.1895 531.3988,549.981 526.5445,561.7324 522.6429,574.5411 519.375,588.625 517.2244,601.4498 515.6696,614.8361 514.5518,628.6184 512.9148,657.8 507.6298,773.3305 506.3873,810.6436 506.3812,827.0743 506.7535,836.5218 507.721,845.5449 509.1647,852.1237 510.9684,856.1377 512.1107,857.4581 513.428,858.2625 514.6151,858.5051 515.9267,858.367 519.1549,856.7055 522.7758,853.3502 527.0851,848.0944 531.8164,841.2394 536.8718,832.9837 549.3861,809.8345 565.0435,777.6801 582.3244,739.377 600.0847,697.5508 616.3085,656.8499 628.1413,625.0379 638.2764,595.5807 646.6146,568.7714 653.0,545.0918 657.5758,523.968 660.3931,505.2888 661.1313,497.0658 661.4518,489.1666 661.3145,481.9622 660.7312,475.4117 659.8389,469.9644 658.507,464.6478 656.9585,460.2617 654.9554,456.0551 652.6344,452.3944 650.0172,449.2581 647.125,446.625 643.6789,444.2547 639.6614,442.224 635.4158,440.7309 630.9847,439.733 626.0244,439.1613 620.9506,439.0666 615.245,439.4438 609.2361,440.2963 603.2565,441.5683 596.9741,443.3276 590.447,445.588 576.4148,451.7231 563.1432,459.0943 550.819,467.533 540.1373,476.4796 530.7832,485.8344 521.761,496.8391 511.793,511.587 510.4,513.082 510.08,513.213 509.5,512.875 508.8864,510.5851 508.4103,503.9436 507.9257,454.6921 506.822,418.9539 504.9694,385.0746 503.2426,361.8493 500.0154,331.1676 496.4116,304.9117 491.9118,279.6687 486.798,256.8122 480.931,236.1993 477.4124,225.9718 473.8237,216.7087 470.1812,208.4185 466.5111,201.1222 462.659,194.5362 458.8123,188.9944 454.7329,184.1257 450.4451,179.9902 446.0806,176.7728 441.6627,174.5172 437.2148,173.267 433.0784,173.0443 428.7492,173.808 424.5759,175.5426 420.0052,178.6816 415.4213,183.3287 411.4027,188.8979 407.5264,195.9643 404.1271,203.9856 401.1986,212.8921 398.7671,222.5791 396.8588,232.9416 395.5418,243.4452 394.7494,254.5566 394.5042,266.2304 394.8163,278.4523 395.6963,291.1214 397.0982,303.7353 398.9388,315.7565 401.3291,327.9465 406.2494,347.8 412.54,368.3431 419.3929,386.7898 428.0037,406.6397 437.1985,425.3805 449.4588,447.7451 478.3212,495.7123 489.2537,515.0491 494.437,525.5729 499.9379,538.0993 505.6201,553.812 507.7344,558.8438 508.737,559.672 509.448,558.673 510.705,551.6585 512.3274,526.2322 513.1234,502.2301 513.5497,476.449 513.5731,448.1699 512.9523,415.1928 512.1368,390.7284 511.152,372.1744 509.29,345.8381 507.485,325.4058 505.4574,306.7165 503.011,288.1345 500.2075,270.0322 497.1475,253.0772 493.7949,237.0881 490.1751,222.2065 486.3246,208.5298 482.1976,195.7842 477.7057,183.7639 473.1669,173.295 468.3143,163.7345 463.3284,155.4791 458.1002,148.3429 452.44,142.088 446.9264,137.347 440.9857,133.6676 435.2794,131.5063 429.532,130.701 423.9076,131.2849 418.104,133.307 412.4502,136.7 407.0045,141.4086 402.0771,147.05 397.4402,153.7814 393.1439,161.5553 389.1829,170.4567 385.7603,179.9903 382.7083,190.589 380.1617,201.8304 378.1294,213.6067 376.6199,225.8106 375.6586,238.1388 375.2598,250.6334 375.4117,263.58 376.12,276.9116 377.3843,290.5489 379.1968,304.3987 381.2696,316.8532 383.7555,329.0274 386.8063,341.5783 390.3171,354.0612 394.594,367.4643 399.3909,380.9354 404.1939,393.1743 409.4626,405.3011 420.4989,427.7795 433.65,451.4847 451.3383,479.8496 472.6976,512.4963 480.6036,525.2609 485.9617,534.5738 492.1617,546.4387 496.3664,555.6734 501.4259,568.9815 504.8079,580.5517 507.3035,591.663 509.7428,607.5598 511.2943,625.3853 512.0807,643.8099 512.2846,663.6646 512.0293,682.5957 509.3781,778.3277 509.2583,797.9929 509.5828,810.3261 510.5594,822.6391 512.0377,830.874 513.0948,834.1375 514.232,836.469 515.75,838.375 517.2419,839.2836 518.4555,839.4974 519.7983,839.3287 522.8911,837.7723 526.1669,834.8852 530.2504,830.0804 534.8642,823.5606 540.1359,815.1519 551.7985,794.0638 565.625,765.9946 580.6077,732.9618 596.306,695.8134 610.9867,658.7577 621.8233,629.3965 630.9976,602.3537 638.6182,577.2816 644.498,554.7619 648.5197,535.3579 650.9802,517.6066 651.7753,502.4046 651.5694,495.713 650.9262,489.3213 649.8517,483.5965 648.3949,478.6112 646.3963,473.7987 644.0235,469.6712 641.3094,466.1905 638.0218,463.1053 634.4137,460.6858 630.388,458.828 625.8092,457.4714 621.0346,456.7183 615.7288,456.5215 610.3116,456.8972 604.1273,457.925 597.4534,459.575 591.2712,461.569 584.8858,464.1202 578.6598,467.1208 571.7506,470.9637 565.5953,474.8295 559.5462,479.1077 553.468,483.95 547.6654,489.075 542.1935,494.4562 537.2459,499.9167 532.699,505.6086 528.0353,512.1875 524.7018,517.6533 521.125,524.375 516.6085,534.544 511.6172,550.0098 511.125,550.625 511.011,546.6138 512.4548,498.5509 512.6355,458.3307 511.9172,415.3471 509.8048,371.2495 507.0549,336.4075 502.5041,296.6719 497.7674,266.5713 491.7392,237.6667 488.2232,223.7347 484.5499,211.0217 480.6383,199.25 476.6305,188.8148 472.0762,178.5845 467.3818,169.5176 462.4338,161.408 457.4696,154.6353 452.3031,148.9376 447.1856,144.5819 441.7511,141.2802 436.3944,139.2568 430.6702,138.4068 425.3395,138.8422 420.0873,140.4756 414.9566,143.3125 410.1005,147.2521 405.2613,152.5372 400.9043,158.6224 396.6723,165.9778 392.8102,174.2639 389.3581,183.3946 386.3562,193.2837 383.9019,203.5759 381.9475,214.3437 380.4421,225.8834 379.4474,237.7549 378.9438,250.263 378.9587,262.9319 379.473,275.5066 380.5012,288.2634 382.003,300.8657 384.0721,314.0103 386.588,326.8717 389.5955,339.7458 393.0291,352.3325 396.9686,364.8867 401.3328,377.238 406.468,390.3485 412.1746,403.6813 422.8995,425.994 435.9138,449.5725 447.5765,468.83 475.6516,512.7633 487.4048,532.99 493.3801,544.9287 497.6081,554.5998 502.0644,567.2264 504.7385,576.9054 507.6951,591.1483 510.0,608.375 511.3912,630.3814 511.7787,652.4799 511.5981,672.4203 510.3959,711.1094 506.5597,804.3655 506.6086,828.4549 507.266,840.5051 508.5597,849.1687 509.5048,852.4661 510.6828,855.0817 511.9668,856.7695 513.4956,857.7594 514.9741,857.9961 516.3009,857.7685 519.3692,856.1056 522.9207,852.803 527.1449,847.5834 532.0414,840.3827 537.3959,831.5417 549.9026,808.3577 565.3145,776.7559 581.5262,740.8948 600.064,697.2215 616.4841,656.0493 628.2364,624.4277 638.3987,594.8677 646.6211,568.3916 652.9232,544.95 657.3677,524.2314 660.1439,505.5702 660.869,497.3735 661.1888,489.4404 661.062,482.1832 660.492,475.6086 659.6517,470.5136 658.3868,465.4637 656.7999,460.9489 654.7247,456.6058 652.3156,452.8395 649.5982,449.619 646.5982,446.9129 643.0594,444.5256 638.929,442.5204 634.7381,441.0969 630.0247,440.0877 625.1615,439.589 620.1796,439.5556 614.7178,439.9882 602.6343,442.2639 596.0568,444.126 589.2794,446.479 575.7416,452.4228 562.8472,459.6375 550.4318,468.264 539.8051,477.1655 531.7157,485.3184 526.5179,491.4246 521.8245,497.5235 511.6137,512.7798 510.454,513.958 510.087,514.069 509.491,513.697 508.9769,512.0046 508.4915,504.6415 507.9933,452.3095 506.9368,417.7831 505.2304,387.1471 503.1787,359.8704 499.9839,330.0868 496.1423,302.548 491.7377,278.1105 486.5206,254.9243 483.5637,243.8934 480.43,233.6204 477.25,224.5 473.5515,215.1454 469.8255,206.8067 465.9115,199.1625 461.9964,192.6031 458.102,187.1045 454.25,182.625 449.8852,178.5913 445.4522,175.5151 440.9846,173.42 436.5156,172.3294 432.4182,172.2343 428.3745,173.0334 424.1316,174.8948 419.4336,178.269 414.9844,182.8906 410.6181,189.0405 406.8512,195.9936 403.5604,203.8071 400.6939,212.6464 398.335,222.2459 396.4305,232.8771 395.1212,243.6583 394.3227,255.1123 394.1097,266.3439 394.4435,278.0972 395.3544,290.6761 396.8211,303.5991 398.8923,317.2001 401.2363,329.2158 405.9843,348.2204 412.3379,368.6191 418.8976,386.4064 427.0372,405.2382 435.9162,423.5687 445.1408,440.6671 456.2722,459.9109 479.4151,497.9998 489.3652,515.8594 495.7657,529.1725 500.0687,539.2506 508.2088,561.1199 508.9462,561.6157 509.5556,560.7824 510.9575,553.0246 511.8078,542.2003 512.6305,525.5461 513.4405,499.3103 513.8273,471.8878 513.8096,445.2938 513.2208,414.88 512.3536,389.4881 511.2764,369.0461 509.6419,346.0094 507.7931,325.2895 505.6768,305.878 503.2244,287.1191 500.4266,268.988 497.3642,252.0022 494.0095,235.981 490.4873,221.4255 486.635,207.624 482.4667,194.6612 477.9282,182.4431 473.3409,171.8013 468.4353,162.0752 463.3939,153.6625 458.1853,146.4897 452.398,140.1251 446.742,135.3635 440.9625,131.8807 435.1037,129.721 429.2101,128.9288 423.6517,129.4761 417.9472,131.3997 412.2063,134.7911 406.9415,139.2843 401.6798,145.2635 396.9723,152.0979 392.6098,159.9848 388.5768,169.0206 385.0648,178.7563 381.9365,189.5666 379.3319,201.0305 377.324,212.6437 375.7933,225.0733 374.8342,237.7572 374.4534,250.2954 374.6258,263.6421 375.3501,276.9722 376.6266,290.5942 378.4524,304.4235 380.6146,317.2739 383.1135,329.4989 386.0982,341.8058 389.6405,354.4286 393.7331,367.2673 398.3463,380.2109 403.3963,393.0513 408.7549,405.3917 419.9729,428.2464 433.6447,452.8369 445.8731,472.5022 471.8893,512.3039 480.5764,526.2366 485.8541,535.3577 492.7596,548.793 497.25,558.75 501.5325,570.407 505.1121,582.6774 507.8035,594.6285 510.0586,610.0703 511.4968,627.9694 512.3259,647.6934 512.1503,688.4559 510.3072,751.3281 509.7775,779.1917 510.1692,807.0918 511.1826,818.62 512.8876,827.8146 513.8091,830.58 514.936,832.8088 516.2806,834.4394 517.8554,835.4097 520.3567,835.5642 523.361,834.1954 526.9531,831.1406 530.8445,826.6748 535.2641,820.5614 539.8139,813.3936 550.832,793.601 564.875,765.25 580.0301,731.9692 595.2201,696.1766 609.5671,659.916 620.4202,630.4275 629.6398,603.1582 637.1164,578.3264 642.8938,555.9472 646.8997,536.4211 649.1675,519.7874 649.6935,512.0973 649.8179,504.5309 649.5444,498.0541 648.8513,491.7883 647.6783,485.8408 646.0738,480.6061 644.0568,476.0654 641.6219,472.1336 638.7997,468.7438 635.3817,465.7431 631.6441,463.4278 627.2756,461.6429 622.6189,460.5562 617.108,460.042 611.5193,460.1626 605.8701,460.8578 599.8025,462.1662 593.4292,464.0836 586.6299,466.6516 580.0918,469.6331 573.8148,472.9866 567.5289,476.8432 561.5026,481.0275 555.3584,485.8357 549.3997,491.0585 544.277,496.0758 539.4801,501.3608 534.9622,506.9872 530.8154,512.718 527.0882,518.5369 523.6435,524.7262 520.5852,531.0779 517.7845,537.8967 515.3425,544.8664 511.5,559.75 513.1771,513.4829 513.7628,460.3696 513.3578,421.334 511.6312,378.112 508.5333,335.8186 504.5973,298.8516 502.2843,282.2097 499.509,265.2346 496.5046,249.1574 493.2734,234.0688 489.7371,219.731 485.996,206.6127 481.9507,194.3823 477.6312,183.0282 472.9962,172.448 468.0596,162.7735 463.0267,154.4258 457.9389,147.4096 452.5908,141.4687 447.2397,136.8602 441.4342,133.2382 435.8981,131.0615 430.3315,130.1112 424.7731,130.4184 419.2616,132.0139 413.8607,134.9056 408.4977,139.159 403.3837,144.6282 398.5633,151.2378 393.8862,159.2856 389.8053,167.9935 386.1815,177.5322 383.0368,187.8591 380.3333,199.1713 378.1811,211.0411 376.5802,223.3625 375.5305,236.0298 375.0254,249.3429 375.0994,262.1732 375.728,275.2557 376.9109,288.6305 378.6969,302.5972 380.9069,315.9458 383.6054,329.3436 386.5861,341.8364 390.0001,354.0891 394.0919,366.9453 398.7286,379.9221 404.2491,393.895 409.8116,406.7648 420.7119,428.8468 434.6199,453.5321 446.125,472.0817 473.1496,513.578 486.7018,536.1631 492.5741,547.6852 497.0509,557.5906 501.3289,569.073 504.1752,578.45 507.6833,593.6165 509.4916,605.6516 511.3438,625.3438 512.1094,641.7432 512.3046,667.641 512.0327,689.1951 510.077,751.7064 509.4894,782.3654 509.8231,809.4327 510.7828,820.8877 512.3758,829.8305 513.4322,833.0364 514.5485,835.2038 515.8713,836.7875 517.412,837.742 520.0381,837.9158 523.058,836.5202 526.3906,833.6719 530.2436,829.2265 534.6405,823.0819 539.6127,815.1579 551.2753,794.1284 564.625,767.125 580.7172,731.7207 596.0128,695.7233 610.2463,659.8179 621.0905,630.3692 630.3043,603.1099 637.75,578.4115 643.6754,555.5552 647.8104,535.6256 650.2442,518.3294 650.8377,510.3314 650.9953,503.1776 650.7596,496.616 650.093,490.2595 649.0172,484.5555 647.5517,479.4932 645.5897,474.8053 643.3282,470.9402 640.5761,467.4343 637.2353,464.3099 633.5743,461.8684 629.2863,459.9372 624.7056,458.6875 619.5722,458.0181 613.9813,457.9257 608.313,458.4123 602.2214,459.5058 596.125,461.125 589.4941,463.4121 583.1094,466.1094 576.6498,469.3367 570.4346,472.9215 564.1423,477.0246 558.0126,481.5235 552.3482,486.1862 546.4895,491.5692 541.349,496.8272 536.5698,502.3259 532.1225,508.0972 528.2609,513.7255 524.5423,519.8935 521.3127,526.052 518.2269,532.9699 515.25,540.875 511.3194,554.125 511.2664,548.6317 512.8043,498.5101 513.0309,457.6996 512.3684,413.387 510.4025,371.8052 507.6032,334.8265 503.4414,298.3275 498.4786,266.2315 495.6688,251.604 492.4975,237.1903 488.9298,222.9143 485.094,209.4944 481.1245,197.4 476.9348,186.3379 472.6441,176.5863 467.8296,167.2263 462.7379,158.863 457.6371,151.8952 452.3386,146.0319 447.1217,141.5522 441.7734,138.2466 436.4454,136.2035 430.8263,135.3245 425.2359,135.7349 419.7203,137.4229 414.3259,140.377 409.0991,144.5857 404.2845,149.7959 399.7934,156.0348 395.4766,163.555 391.557,172.0243 388.0631,181.3483 385.0235,191.4325 382.4668,202.1825 380.4656,213.254 378.9517,224.9884 377.9635,237.0415 377.4796,249.7072 377.5233,262.5117 378.0788,275.3536 379.1464,288.2862 380.7571,301.488 382.8368,314.4339 385.4209,327.4546 388.4977,340.4815 392.048,353.438 395.9317,365.8448 400.2794,378.1664 405.1453,390.5933 410.617,403.3523 420.8734,424.8452 432.9694,446.7463 446.4662,469.1334 475.9586,515.0777 487.8845,535.6915 493.0754,546.2163 498.5285,558.7629 501.9711,568.7981 504.9424,579.4475 507.9021,593.5458 510.0402,609.9066 511.3484,628.0539 511.8543,646.6409 511.9214,664.6432 511.5868,685.5832 507.7313,794.7979 507.6325,808.0924 507.9436,821.8219 508.717,832.9583 510.1767,841.3056 511.1717,844.4855 512.34,846.9323 513.7256,848.6306 515.0811,849.4757 516.3038,849.7458 517.6547,849.6301 520.7607,848.148 524.1892,845.1141 528.2593,840.2722 532.974,833.55 538.0905,825.3059 550.2564,803.0793 564.6405,773.8068 579.6501,740.6848 597.4243,698.9052 613.2441,659.2425 624.6445,628.5037 634.5068,599.7405 642.612,573.5449 648.7255,550.692 653.1763,529.888 655.9267,511.3116 656.6458,502.9712 656.9273,495.2816 656.7714,488.2567 656.1919,482.0024 655.227,476.3805 653.9064,471.3334 652.2516,466.841 650.107,462.5772 647.6232,458.9156 644.8276,455.831 641.7479,453.2977 637.9386,451.0024 633.8147,449.2364 629.4772,448.0082 624.58,447.2419 619.5217,447.0171 614.0003,447.321 608.0246,448.1461 601.7344,449.4927 595.5278,451.2778 589.0731,453.594 582.1927,456.5434 575.1564,460.0056 568.5466,463.7015 562.3479,467.6002 556.1417,471.9713 550.143,476.6933 544.4169,481.6846 534.7058,491.4645 526.1396,502.2158 519.9602,511.69 515.3933,520.0738 511.2532,528.5735 510.75,529.125 510.3565,529.0833 509.875,527.25 509.723,524.962 509.9837,468.4168 509.3722,429.1737 508.2184,400.2082 505.7853,362.4415 502.6474,329.4005 498.6676,298.688 494.2046,272.8894 488.3469,246.7003 484.9482,234.0091 481.4485,222.5247 477.7667,211.953 474.0065,202.5496 469.8065,193.4187 465.5565,185.4578 461.097,178.3501 456.4459,172.1915 451.8437,167.2863 447.2751,163.5321 442.3218,160.6104 437.329,158.821 432.3403,158.1872 427.3992,158.7325 422.8918,160.3152 418.3092,163.0905 413.4665,167.4063 408.9134,172.9331 404.6953,179.5926 400.8577,187.3064 397.4457,195.9964 394.5001,205.6143 392.1518,215.6936 390.274,226.6997 388.944,238.1918 388.1313,250.4666 387.8753,263.0063 388.1731,275.2219 389.0359,287.804 390.466,300.6824 392.458,313.7743 394.9987,326.9835 400.0905,347.7306 406.5735,368.5461 414.7861,390.4486 423.6891,410.5936 432.7713,428.6641 442.5253,446.4136 484.0064,514.9697 491.4401,529.17 496.1442,539.6342 500.7753,551.4594 504.9181,565.2801 508.2743,581.5341 511.1149,601.8699 511.8148,604.7639 512.0602,604.8611 512.4444,604.0 513.1869,599.8181 515.0056,579.3749 517.0783,541.5079 518.3451,509.9231 519.1522,480.8044 519.4266,454.0668 519.3883,422.6587 518.8907,395.341 517.9374,368.8031 516.6875,344.6089 515.0816,321.6592 513.1241,299.9714 510.6545,277.9092 507.7931,256.7864 504.5546,236.7805 500.9794,218.1041 497.031,200.5372 492.7087,184.0512 488.0455,168.6999 483.0573,154.5384 477.7786,141.6765 472.2432,130.1986 466.484,120.1654 460.3539,111.3747 453.9909,104.0312 447.377,98.1013 440.5616,93.6589 437.0937,92.0186 433.5939,90.7779 430.0683,89.946 426.5231,89.5321 422.9645,89.5456 419.723,89.9364 416.1996,90.7732 412.8209,91.9721 406.1656,95.4864 402.6339,97.9926 398.9016,101.1496 391.9535,108.5318 385.404,117.5381 379.5507,127.6573 374.2766,138.9716 369.5535,151.604 365.4153,165.5447 362.0038,180.3066 359.3311,195.7127 357.3709,211.9875 356.2318,228.1363 355.865,244.77 356.2901,261.756 357.5019,278.9712 359.4883,296.276 362.2296,313.5133 365.0894,327.7828 368.4457,341.781 372.429,355.9943 376.9118,369.9628 381.9751,383.9742 387.7109,398.2398 394.0276,412.5059 400.5356,425.8704 406.5944,437.327 413.2249,449.0165 428.5716,473.7132 440.2809,490.7096 473.4087,536.5285 487.0127,556.9566 492.1223,565.588 497.0566,575.0094 500.9736,583.5405 504.3291,592.1876 508.4467,604.8591 511.4619,617.6964 513.5494,629.2166 515.4245,645.1087 516.25,654.75 517.1483,671.4174 518.9615,730.5059 519.9086,744.0427 521.0359,755.1241 522.5303,763.6776 524.3146,769.9203 526.6146,774.1296 527.9896,775.5023 529.4914,776.345 531.6183,776.5695 534.0859,775.7962 536.8833,773.9611 539.5933,771.4339 542.846,767.642 546.5822,762.541 554.5854,749.6293 563.5787,732.6852 572.9162,713.0113 582.5961,690.3725 592.121,666.2888 599.5039,645.9204 606.2005,625.4281 611.7364,606.2474 615.8443,589.3179 618.7163,573.8283 620.3335,559.99 620.6886,548.0429 619.7862,537.9264 618.0177,530.6474 615.2369,524.5968 613.3404,521.9594 611.3749,519.881 609.2691,518.1817 606.7024,516.6847 603.9779,515.6408 601.1092,515.0273 594.983,514.9809 587.9878,516.5193 580.6938,519.5675 572.9472,524.1674 565.2952,530.1276 558.8165,536.5318 552.0,544.75 546.3859,552.8823 540.7669,562.8061 536.7344,571.4062 532.6038,581.9576 529.3533,592.4772 525.8657,606.8843 523.2533,621.1245 521.0753,636.5695 519.8074,647.9826 518.0777,670.7676 516.9003,690.7518 516.0206,714.0077 515.6181,751.1484 516.0156,766.9039 516.8247,778.2737 518.0814,787.5764 519.7456,793.9269 522.0754,798.4595 523.4805,799.9113 524.7868,800.6341 527.2006,800.8288 529.6555,799.9562 532.874,797.6721 535.979,794.5559 539.5877,790.0769 543.5995,784.2969 552.3935,769.4891 563.0767,748.7843 574.5628,724.1916 586.9606,695.3371 598.2784,666.9015 606.9447,643.1814 615.0614,618.8239 621.4819,597.2617 626.426,577.8254 629.9635,560.1257 632.0306,544.6416 632.6414,531.2671 631.7832,520.0129 629.788,511.1553 628.3943,507.4231 626.5904,503.8779 624.6893,501.108 622.3342,498.5582 619.6128,496.3547 616.6878,494.636 613.5811,493.38 609.9432,492.5003 606.5256,492.1488 602.4846,492.2124 598.4724,492.6997 594.075,493.6728 585.2434,496.8367 576.4324,501.409 567.6157,507.4498 558.5419,515.2151 550.5743,523.6127 543.3263,533.0637 537.1608,542.9118 531.6037,553.9706 526.7759,566.0303 523.4769,576.5081 521.2354,585.9198 518.431,600.937 516.3565,616.8148 513.8284,651.0514 509.9336,737.6172 508.0194,793.0453 507.8703,809.5303 508.1824,822.8767 509.0615,833.3166 510.625,841.5 512.5724,846.1924 513.9688,847.8125 515.3279,848.5944 516.5501,848.8206 517.8975,848.6706 521.2031,846.9974 524.8756,843.6275 528.9566,838.6921 533.3485,832.3925 538.2625,824.4254 550.9666,801.1363 565.3276,771.9137 580.8308,737.5985 597.5522,698.1481 612.9767,659.3612 624.5731,628.1535 634.3594,599.6418 642.1624,574.3714 648.2336,551.5247 652.8042,530.2977 655.5658,511.8971 656.2819,503.6398 656.5395,496.3279 656.3702,489.5707 655.7578,482.9378 654.8168,477.3808 653.4232,472.0222 651.7946,467.6071 649.7014,463.4336 647.2775,459.8395 644.4663,456.725 641.1945,454.0085 637.3379,451.6628 633.2233,449.9196 628.8941,448.7354 624.3936,448.0671 619.375,447.875 613.4273,448.2203 607.4551,449.0691 601.499,450.3741 595.2333,452.208 588.6422,454.6161 581.7948,457.5493 575.2768,460.7624 569.0755,464.2429 562.1847,468.6259 555.4559,473.3771 549.6339,477.9708 544.3126,482.6876 534.373,492.803 526.0193,503.4497 519.7374,513.3858 516.0554,520.2446 511.5695,529.6892 511.0,530.625 510.4688,530.8594 510.015,529.155 509.8422,522.4557 510.278,472.0081 509.6209,431.1462 508.1881,395.35 506.3168,365.2482 503.0514,330.5433 499.1434,300.0043 494.158,270.8291 488.4599,244.9334 485.2637,233.0108 481.9506,222.231 478.0227,211.061 473.8479,200.648 469.7341,191.7195 465.5605,183.9025 461.1669,176.9268 456.75,171.125 451.9866,166.0577 447.1297,162.0162 442.2051,159.049 437.2389,157.2051 432.2571,156.5332 427.6163,157.0064 422.6681,158.7275 418.0265,161.5371 413.0827,165.9378 408.4341,171.6025 404.1194,178.462 400.2441,186.2959 396.8297,195.0483 393.9102,204.6259 391.4975,214.916 389.6038,225.8063 388.2411,237.184 387.4255,248.8642 387.1586,260.94 387.4454,273.5051 388.2951,286.4794 389.7106,299.7669 391.688,313.254 394.0425,325.7715 399.1909,346.8374 406.0077,368.7598 413.6411,389.1975 422.9054,410.109 432.5578,429.4706 442.4338,447.3635 452.7245,464.6934 469.0971,491.01 482.8727,513.9729 491.1445,529.4121 496.8906,542.2812 499.4072,548.7849 502.8764,559.1059 506.2271,572.0893 508.8109,586.0452 511.5605,609.8488 512.3125,612.5469 512.9531,610.6875 513.6309,606.021 515.2566,587.0845 516.9582,561.4443 518.6851,525.7072 520.3587,467.0817 520.5547,433.5633 520.2246,404.3021 518.3481,353.1043 516.9759,330.5153 515.244,308.7121 512.974,286.1207 510.3374,264.3486 507.3877,243.9249 504.1672,225.0934 500.659,207.6334 496.8947,191.5828 492.4549,175.1902 487.6842,159.8959 482.7398,146.1905 477.6749,134.0981 472.3825,123.2975 466.8845,113.8282 460.8009,105.1826 454.6062,98.0369 447.8709,91.9362 441.2515,87.4978 434.4892,84.4739 427.6265,82.9248 421.0359,82.8761 414.374,84.2891 410.2715,85.8966 406.2169,88.0399 402.2231,90.7036 398.3029,93.8724 394.4691,97.5309 390.7346,101.6637 383.6142,111.291 377.0444,122.6312 371.2338,135.2998 366.0369,149.6317 361.6548,165.0612 358.1085,181.3763 355.3677,198.7575 353.545,216.617 352.6649,234.6319 352.7107,252.5983 353.6729,271.1804 355.5338,289.8446 358.3198,308.7979 361.2699,324.2923 364.7572,339.4349 368.729,354.0298 373.3533,368.7366 378.6084,383.4444 384.5873,398.3647 391.2287,413.3089 398.1711,427.5193 404.7923,439.9423 411.8077,452.1566 419.6904,464.9865 428.6225,478.7002 442.4207,498.316 474.5087,541.4434 487.1482,560.0652 492.2359,568.4673 496.8533,577.1375 501.1508,586.1209 504.6245,594.5398 508.373,605.4359 511.1266,615.5384 513.9247,629.3217 515.6931,642.1167 517.1515,656.0148 518.2188,672.0156 520.8959,732.1057 522.9418,750.3323 524.3101,757.0364 526.3074,762.7482 528.3794,766.2335 529.8033,767.5629 531.0691,768.2183 533.1869,768.4722 535.386,767.8743 537.9405,766.3445 540.8158,763.833 543.6758,760.6739 546.7401,756.6579 553.875,745.418 562.2306,730.0369 571.241,711.3502 580.345,690.568 589.0049,668.8522 596.3464,648.6625 602.6078,629.5801 608.1093,610.458 612.2816,593.3695 614.9541,579.1255 616.4797,565.8276 616.8596,554.3307 616.0604,544.6921 614.2883,537.4827 611.6585,531.6592 608.2993,527.3468 606.375,525.75 604.0769,524.3682 601.653,523.3649 599.1154,522.7278 593.7473,522.5046 587.1929,523.8157 580.5326,526.4881 573.7483,530.4723 567.1828,535.487 560.75,541.625 554.5961,548.787 549.1192,556.5284 543.6909,565.7465 539.1561,575.0216 535.1534,584.9765 531.6723,595.6031 529.0316,605.8807 526.0177,620.0318 523.7322,634.7246 522.0328,648.5442 520.5462,664.1084 519.2624,684.6269 518.296,706.7764 517.8916,739.9583 518.4609,755.9542 519.3327,767.0822 520.5952,775.6209 522.2318,781.6864 523.4216,784.3843 524.6146,786.2622 525.9833,787.6966 527.2546,788.4062 529.6446,788.5624 532.0865,787.6663 534.8468,785.7611 538.0583,782.6386 541.5429,778.3889 545.18,773.2498 553.5215,759.4887 563.3024,740.8656 573.3223,719.6531 584.5703,693.5075 594.7922,667.8341 602.8015,645.8447 610.4079,622.8889 616.2966,602.9358 620.7024,585.352 624.0501,568.2865 625.9831,553.4469 626.5368,540.9156 625.7235,529.8165 623.9458,521.6785 622.6446,518.0845 621.1024,514.9503 619.2457,512.1667 617.0925,509.7446 614.7414,507.7477 612.2121,506.1628 609.524,504.9769 606.3345,504.1035 603.0283,503.7004 599.7544,503.6981 596.0741,504.0973 592.3599,504.8866 584.1929,507.7989 576.1822,512.0203 568.2685,517.5294 560.1268,524.6558 552.8424,532.5081 546.1314,541.4454 540.0,551.375 534.8243,561.5342 530.5497,572.061 527.2359,582.2164 524.3664,593.3519 521.5593,607.4999 519.7269,619.8565 518.2352,632.0057 516.4894,652.8027 515.1861,672.9204 514.1019,696.8093 512.9271,727.2472 512.2376,754.5561 512.1559,775.5177 512.6734,792.6709 513.5835,803.684 515.2349,812.2402 517.4782,818.2025 518.8544,820.0757 520.4772,821.2111 521.7094,821.526 523.0713,821.4647 525.7232,820.4321 528.97,817.9398 532.496,814.1653 536.4777,808.959 540.9152,802.2753 551.2213,784.2916 563.7852,759.4443 577.1987,730.3454 591.3071,697.4154 604.4085,664.5096 614.5012,637.0794 623.1964,611.253 630.1717,588.0482 635.7512,566.3687 639.7438,547.0341 642.0583,530.5699 642.6309,523.0122 642.7825,516.2455 642.5553,509.6972 641.9504,503.7535 640.7279,497.3323 638.8765,491.4633 636.6282,486.7766 633.7104,482.6279 630.0424,479.0154 625.9708,476.3241 621.2058,474.3766 616.1226,473.3308 609.9221,473.0795 603.2187,473.733 596.4614,475.2174 589.4654,477.5373 582.1279,480.7083 574.7713,484.6484 568.0979,488.9535 560.9632,494.3241 555.266,499.207 549.6457,504.6149 544.8882,509.843 540.4308,515.4136 535.615,522.1346 531.6858,528.3813 527.8233,535.4821 524.6997,542.1991 519.7232,555.7584 517.0448,565.6896 515.7372,571.8722 513.0809,590.3375 512.3294,603.5996 512.625,608.5 513.125,606.625 514.5373,591.9127 516.0282,570.7958 517.5931,542.1829 518.9061,507.1874 519.9464,446.0146 519.8228,419.056 519.2873,392.065 518.385,367.1253 517.1017,343.1788 515.3152,318.2211 513.2266,295.1201 510.8862,274.2199 508.2297,254.6627 505.2367,236.2127 501.6711,217.392 497.6953,199.2697 493.5035,182.7942 488.9364,167.3448 484.1207,153.3843 478.926,140.5591 473.3508,128.8693 467.4015,118.3346 461.3356,109.3859 454.9708,101.737 448.5819,95.7034 441.9598,91.0768 435.2307,87.9895 428.4614,86.4262 425.0664,86.2012 421.3342,86.3786 417.9506,86.9237 414.2467,87.9429 407.2594,91.0983 403.3348,93.6076 399.793,96.3549 392.9049,103.1201 386.2055,111.7557 380.0209,121.9339 374.2616,133.8124 369.1479,146.9516 364.7202,161.1735 360.9296,176.7199 358.0917,192.1278 356.0347,208.1045 354.753,224.7514 354.2674,241.9398 354.5955,259.5209 355.718,276.949 357.6451,294.4284 360.3386,311.5268 363.2786,326.1666 366.8634,341.069 370.9784,355.771 375.6816,370.5303 380.8402,384.9779 386.2346,398.4734 392.3543,412.2368 398.9896,425.7872 405.3773,437.8306 412.6239,450.6273 419.3648,461.7744 426.6438,473.0676 444.2594,498.4128 475.236,540.963 486.4219,557.5099 492.5883,567.8506 497.3525,576.7391 501.3691,585.4394 505.0891,594.7197 508.1791,604.1738 511.7205,618.2903 513.7718,629.8759 515.7597,644.6417 517.6615,671.8869 519.5475,724.8418 520.7517,742.4397 521.6766,750.781 523.3512,760.3564 525.0037,765.8712 527.4157,770.1321 528.8823,771.5802 530.2563,772.3274 532.4306,772.5623 534.5349,771.9704 537.2812,770.3025 539.9975,767.8883 543.0923,764.4373 546.4928,759.9714 553.5497,748.8571 562.6246,731.966 572.0876,712.2194 581.1518,691.3129 590.1051,668.6703 598.0407,646.7997 604.6454,626.8037 609.8557,608.8995 613.7304,592.9397 616.7188,577.0781 618.4143,562.9833 618.7734,550.9196 617.8467,540.7439 616.1169,533.7942 613.3959,528.051 611.72,525.6437 609.6188,523.3443 607.6175,521.7209 605.1444,520.3016 602.4729,519.3387 599.643,518.7943 596.729,518.6105 593.3735,518.8172 587.2837,520.2079 580.0608,523.2643 572.875,527.5477 566.1835,532.7742 559.6837,539.1149 553.4296,546.5121 547.9106,554.3301 542.6317,563.2927 538.3194,572.2821 534.028,582.9989 530.9709,592.4517 528.0111,603.5602 525.4589,615.5684 523.4277,627.5004 521.4437,643.0007 520.0151,657.8121 517.6931,694.8939 516.9317,716.6983 516.7175,740.8644 516.9995,755.045 517.7278,768.4348 518.9866,779.146 520.648,786.797 521.8308,789.8264 523.0587,791.93 524.4665,793.498 526.0691,794.481 528.5156,794.6571 531.065,793.694 533.967,791.6024 537.0338,788.5241 540.5855,784.1214 544.5421,778.4422 553.2976,763.7584 563.8305,743.3581 574.6414,720.2157 586.0622,693.4319 597.0353,665.7499 605.2474,643.2676 612.9746,620.038 619.0112,599.7137 623.5555,581.6904 626.8873,564.5948 628.935,548.9661 629.534,535.8198 629.2963,530.0718 628.702,524.7499 626.756,516.1511 625.464,512.6986 623.7806,509.3691 622.0188,506.7613 619.9563,504.4609 617.5218,502.3926 614.6079,500.5678 611.869,499.3717 608.6282,498.4815 605.2272,498.0481 601.4277,498.0549 597.4317,498.4852 593.4222,499.3109 585.0473,502.2359 575.8696,507.0811 567.3832,512.9308 559.1737,520.1056 551.4116,528.4886 544.664,537.317 538.771,546.8697 533.7928,556.7647 528.7945,569.0592 525.4057,579.8894 522.1933,592.7691 519.6063,606.5512 517.7053,621.3749 516.2715,636.3985 514.4739,661.8756 512.3091,708.1419 510.2749,769.0807 510.133,788.3041 510.4928,802.3276 511.3826,815.6126 512.8133,824.4341 513.9045,828.1242 515.1092,830.8001 516.4242,832.5918 517.9116,833.6134 519.3466,833.9383 520.6257,833.8316 523.543,832.574 526.811,829.9567 530.3389,826.0856 534.5541,820.4489 539.0801,813.5183 549.6665,794.8902 562.858,768.6406 577.191,737.5448 592.5537,701.7457 606.7245,666.4088 617.4392,637.6809 627.0075,609.8441 634.9061,584.3752 640.9992,561.7513 645.2313,542.2897 647.9504,524.389 649.0097,508.8597 648.9333,502.1659 648.4406,495.796 647.4231,489.5142 645.9585,484.0005 644.0784,479.1878 641.6304,474.757 638.7876,471.0722 635.5951,468.0988 631.7253,465.5601 627.2593,463.5556 622.5216,462.2494 617.5754,461.6072 612.4837,461.5945 606.4345,462.2804 600.1709,463.5634 593.5949,465.4845 586.756,468.0738 579.972,471.2094 573.4692,474.7321 567.0216,478.7551 560.8863,483.1136 554.6529,488.0908 549.273,492.9214 544.375,497.875 539.0211,503.939 534.168,510.1346 530.0489,516.1239 526.2758,522.3604 522.6103,529.2735 519.8603,535.383 517.2686,542.0058 515.3896,548.0044 512.6325,559.0184 511.6898,564.3519 513.337,524.4942 514.3724,471.9764 513.9883,424.7353 512.1187,373.575 510.9223,354.402 509.3224,334.986 505.1611,296.0664 500.4423,264.5104 497.4182,248.2834 494.1655,233.0095 490.6168,218.4597 486.7751,204.765 482.7637,192.3682 478.4588,180.872 473.7384,169.9538 468.7086,159.9616 463.5886,151.3347 458.2133,143.8004 452.8182,137.693 447.4371,132.9698 441.8686,129.4196 435.8617,127.0014 429.8149,125.99 424.1357,126.334 418.5142,127.9449 412.9956,130.8326 407.4579,135.1589 402.2458,140.6947 397.3426,147.3918 392.6071,155.5102 388.2959,164.6986 384.4544,174.8602 381.1968,185.6413 378.4856,197.0803 376.3311,209.0383 374.6875,221.7969 373.6226,234.8931 373.1244,248.6129 373.215,262.0613 373.8837,275.7117 375.1463,289.5962 376.9968,303.6534 379.2812,317.0586 382.0703,330.4892 385.3556,343.9011 389.0478,356.8665 393.2178,369.6711 397.9456,382.6111 403.3169,395.9062 409.4275,409.7623 414.8168,421.0071 420.648,432.2445 435.1839,457.6003 446.2679,475.3337 475.073,519.0894 486.7822,538.6089 492.1581,548.9868 497.4764,560.7308 501.4262,571.22 504.688,581.731 507.566,594.635 509.2826,605.0012 511.1541,621.3959 512.3279,641.8118 512.6169,660.8545 512.5355,683.3583 510.6522,769.9051 511.218,801.9267 512.2663,813.3402 513.7922,821.4711 514.8914,824.6511 516.058,826.8644 517.4246,828.4966 519.0,829.5 520.2427,829.7727 521.6289,829.6426 524.5529,828.3043 527.9873,825.4586 531.9501,821.0062 536.0014,815.4899 540.5078,808.4588 551.3707,789.0693 564.5967,762.5865 578.8185,731.4237 593.8577,695.9917 607.959,660.3893 618.3747,632.0201 626.9672,606.4383 634.4229,581.5807 640.1458,559.2848 643.954,540.4868 646.1703,523.694 646.8296,508.9882 646.5658,502.3359 645.9011,496.3051 644.7004,490.3358 642.9473,484.924 640.7299,480.1995 637.8913,475.9292 634.8994,472.7235 631.29,469.9965 627.3334,467.9911 622.4931,466.4757 617.3744,465.643 611.7141,465.4883 605.9236,466.0451 600.1489,467.2312 593.2175,469.274 586.451,471.852 579.5561,475.0779 572.7338,478.8678 566.5207,482.8196 560.4188,487.2479 554.8946,491.8178 549.4377,496.8972 544.0394,502.5476 538.9221,508.5496 534.4219,514.5312 530.3244,520.7122 526.8961,526.5321 523.7901,532.6491 520.871,539.343 518.4887,545.9071 516.1008,553.6842 514.3044,560.8741 512.629,569.74 511.8613,576.4023 512.5715,569.1914 514.1885,538.7642 515.2035,507.7604 515.7357,480.5408 515.6885,427.6392 514.6835,389.6628 512.0242,343.1963 510.398,323.661 508.4575,305.0508 505.8077,283.8021 502.918,264.1775 499.7157,245.7211 496.2312,228.628 492.5065,212.9901 488.4607,198.2757 484.1181,184.5646 479.649,172.3276 474.9696,161.2588 469.9537,151.1264 464.7058,142.2242 459.4147,134.7558 453.6137,128.0848 447.603,122.6936 441.4249,118.6643 435.4241,116.1678 429.3465,115.0514 423.451,115.3234 417.2892,117.0048 411.2576,120.0767 405.1246,124.7529 399.2592,130.8678 393.9797,137.9848 388.8775,146.6592 384.3268,156.3473 380.1837,167.346 376.614,179.2338 373.6332,191.875 371.2567,205.1339 369.5,218.875 368.4057,232.7984 367.9593,246.8775 368.1536,261.787 368.9923,276.6639 370.4813,291.778 372.5656,306.6329 375.0039,320.1244 377.8793,333.2485 381.3354,346.6837 385.2642,359.9755 389.7446,373.3928 394.6697,386.6185 400.0167,399.5839 405.8676,412.4949 417.6354,435.6525 424.0605,447.195 430.556,458.0992 450.1634,488.3913 470.0757,517.6574 479.7943,532.6852 485.4041,541.9664 492.01,554.248 496.5011,563.6178 501.1557,575.3415 504.5124,585.368 507.9598,598.9724 510.2285,612.4311 511.7769,624.9191 513.2436,645.2882 513.6858,661.0844 513.805,684.9747 513.3566,754.2795 513.7898,773.6234 514.3404,783.2864 515.7018,795.5473 517.198,802.7568 518.2427,805.7458 519.4846,808.1677 520.9298,809.9506 522.5754,810.9991 524.831,811.229 527.4706,810.2913 530.512,808.0784 533.9172,804.5555 537.8408,799.5749 542.2735,793.1086 551.7471,777.0643 563.0999,754.9378 575.2544,728.8776 587.7214,699.8755 599.8375,669.5612 609.5998,643.2404 618.1913,618.0251 625.1907,595.164 630.5558,574.8241 634.3464,556.7527 636.787,539.938 637.6814,525.6892 637.5653,519.2573 637.0637,513.5023 636.2161,508.3233 635.0613,503.6774 633.6135,499.5504 631.887,495.928 629.8959,492.7961 627.4387,489.9221 624.6445,487.5458 621.7381,485.7258 618.3085,484.2107 614.6996,483.1983 610.9436,482.656 606.6809,482.5639 602.1807,482.9663 597.3911,483.8625 592.6138,485.1958 587.856,486.9228 577.6269,491.852 567.6626,498.2954 558.1001,506.1254 549.0771,515.3266 541.3015,525.0234 534.3884,535.8034 528.627,547.1178 523.9013,559.1183 520.3292,571.0642 517.3739,584.9553 515.3006,598.9537 514.0312,612.4045 512.5293,639.2905 511.3389,675.412 509.1479,725.1344 504.9299,788.9773 502.4505,831.3471 501.713,856.9676 501.976,866.5865 502.6746,875.0141 503.6952,880.8288 505.1181,884.7343 506.8701,886.9145 508.0577,887.5031 509.1263,887.6244 510.431,887.3745 512.0012,886.6142 515.5594,883.6488 519.6423,878.8748 524.1523,872.4812 529.314,864.1353 534.9702,854.0845 549.0981,826.636 566.8292,789.2806 586.0542,746.271 605.6162,700.1983 623.8751,654.9024 636.7196,621.1935 647.7551,590.2972 656.9275,562.3505 664.135,537.6665 669.8672,514.5019 673.8532,493.8408 676.0654,475.7476 676.5016,467.5327 676.4761,460.2869 676.0688,454.217 675.2864,448.4676 674.1621,443.2285 672.7171,438.4824 670.9725,434.2116 668.7692,430.1011 666.2663,426.5056 663.4908,423.4029 660.4696,420.7706 656.917,418.3966 652.9593,416.384 648.4444,414.7083 643.7262,413.5177 638.8384,412.7715 633.4239,412.4182 627.8944,412.4823 621.6755,412.9708 614.833,413.9095 601.4394,416.8385 586.9141,421.49 572.214,427.5346 556.7594,435.3809 541.8581,444.3081 532.4416,450.943 516.1207,463.9241 511.6816,467.1389 508.9126,468.3703 507.773,468.386 506.8629,467.9157 505.7001,466.568 504.9561,464.832 503.4668,457.2168 502.2794,443.2901 499.5198,401.0331 496.7644,370.1191 492.6365,337.1604 488.75,313.5"/>
  </g>
</svg>
