<?xml version="1.0" encoding="utf-8" ?>
<svg xmlns="http://www.w3.org/2000/svg" xmlns:cc="http://creativecommons.org/ns" xmlns:dc="http://purl.org/dc/elements/1.1/" xmlns:ev="http://www.w3.org/2001/xml-events" xmlns:inkscape="http://www.inkscape.org/namespaces/inkscape" xmlns:rdf="http://www.w3.org/1999/02/22-rdf-syntax-ns" xmlns:sodipodi="http://sodipodi.sourceforge.net/DTD/sodipodi-0.dtd" xmlns:xlink="http://www.w3.org/1999/xlink" baseProfile="tiny" height="27.09333333cm" version="1.2" viewBox="0 0 1024.0 1024.0" width="27.09333333cm">
  <metadata>
    <rdf:RDF>
      <cc:Work>
        <dc:format>image/svg+xml</dc:format>
        <dc:source>vpype read './original_svgs/Strange Attractors #391.svg' linemerge linesimplify write './Strange Attractors #391.svg'
</dc:source>
        <dc:date>2024-08-05T01:35:55.380447</dc:date>
      </cc:Work>
    </rdf:RDF>
  </metadata>
  <defs/>
  <g fill="none" id="layer1" inkscape:groupmode="layer" inkscape:label="1" stroke="black" stroke-width="0.7mm" style="display:inline">
    <polyline points="466.625,567.5 446.0,556.75 429.5,549.25 416.25,544.375 405.375,541.375 396.375,539.875 388.875,539.5 382.5,540.125 377.0,541.5 372.25,543.5 368.0,546.0 364.375,549.0 361.125,552.375 358.375,556.0 356.0,559.75 354.125,563.75 351.5,571.625 350.875,579.125 351.375,582.5 352.375,585.5 353.875,588.125 355.875,590.25 358.375,591.75 361.375,592.875"/>
    <polyline points="364.875,593.375 372.75,592.75 377.0,591.75 381.5,590.25 390.875,586.25 400.375,581.125 409.5,575.5 422.375,566.625 433.75,558.125 459.25,538.0"/>
    <polyline points="461.375,536.25 480.0,521.25 487.5,514.0 489.625,511.25"/>
    <polyline points="490.125,510.625 492.125,507.0 493.125,502.875 493.0,498.625 492.25,495.25"/>
    <polyline points="492.125,494.625 489.875,488.5 482.0,469.75"/>
    <polyline points="481.5,468.25 479.25,461.625 476.375,449.25 475.25,438.5 475.125,432.25 475.875,421.25 477.25,412.625 481.375,397.125 483.5,391.25"/>
    <polyline points="486.125,384.75 493.0,370.5 497.5,362.5 502.75,353.875 509.0,344.75 516.25,335.125 524.75,324.875 534.375,314.25 545.25,303.5 557.5,292.75 571.0,282.375 585.625,273.0 601.0,265.0 616.625,259.0 632.125,255.875 646.875,256.0 660.0,259.625 671.125,267.0 679.625,278.0 685.625,291.75 688.875,307.875 689.75,325.5 688.5,343.75 685.625,361.875 681.5,379.375"/>
    <polyline points="676.625,395.875 671.25,411.0 665.625,424.875 659.875,437.375 654.375,448.5 648.875,458.25 643.75,466.875 638.75,474.5 629.75,486.875 621.875,496.5 618.25,500.5 606.25,512.375 595.5,521.875 589.625,527.625"/>
    <polyline points="588.375,528.875 585.625,532.5 583.25,537.25 582.625,539.5 582.375,544.25 582.75,546.625 585.0,553.0 589.25,560.0"/>
    <polyline points="590.25,561.375 595.25,567.625 600.0,572.625 607.5,579.875 614.25,585.875 622.25,592.25 631.875,599.375 639.375,604.5 652.875,612.75"/>
    <polyline points="658.25,615.875 677.625,625.625 694.5,633.0 716.0,641.0 743.375,649.375 759.875,653.5 778.125,657.25 798.0,660.125 818.875,661.625 839.25,660.625 857.0,655.875 869.125,646.0 872.0,629.75 863.375,606.875 842.875,578.0 813.0,545.375 777.875,511.75 709.75,449.375 682.375,422.875 660.75,399.75"/>
    <polyline points="644.75,379.75 633.875,362.625 627.375,348.0 624.375,335.625 624.25,325.5 626.375,317.5 630.0,311.5 634.75,307.75 639.875,306.125 645.0,306.75 649.625,309.5 653.75,314.375 656.75,320.875 658.75,329.125 659.625,338.375 659.375,348.625 658.25,359.375 656.125,370.375 653.25,381.375 649.875,392.0 646.0,402.25 641.875,411.875 637.5,420.875 633.0,429.25 624.0,444.125"/>
    <polyline points="619.625,450.625 615.375,456.5 607.125,466.625 599.625,475.0 596.0,478.625 580.75,492.5 554.875,513.0"/>
    <polyline points="553.75,514.0 549.25,518.5 545.875,523.5 544.875,525.875 544.125,529.875 544.375,534.625"/>
    <polyline points="544.5,535.375 546.625,542.25 551.625,552.875 554.25,559.375"/>
    <polyline points="554.625,560.5 555.375,562.75 555.875,566.125 555.75,568.375 555.125,570.5 553.875,572.5 551.625,574.375 548.375,575.875 546.125,576.5 540.375,577.375 536.75,577.5 527.625,577.125 515.625,575.75 500.375,572.875"/>
    <polyline points="491.5,571.0 471.5,565.875 460.625,562.75 449.375,559.375 426.875,552.0 398.0,541.5 381.75,534.625 379.5,533.375 378.75,532.625 379.25,532.375 380.75,532.5 401.0,535.5 412.5,536.125"/>
    <polyline points="416.125,536.0 423.0,535.5 432.125,533.75 437.5,532.125 444.375,529.25 452.0,524.875 457.875,520.25 463.25,514.5 464.875,512.125"/>
    <polyline points="465.5,511.0 467.375,507.625 468.625,504.25 469.375,500.875 469.75,497.375 469.375,490.0 467.25,480.375"/>
    <polyline points="466.75,478.875 461.375,460.75 459.625,453.625 458.125,445.5 457.375,439.25 457.0,432.125 457.125,424.0 458.0,414.625 458.875,409.375"/>
    <polyline points="460.0,403.625 463.625,390.625 466.25,383.125 469.625,375.0 473.75,366.0 478.875,356.25 485.125,345.375 492.75,333.625 502.0,320.75 513.0,306.75 526.125,292.0 541.375,276.5 559.125,260.75 579.0,245.625 600.75,231.75 624.0,220.625 647.375,213.625 669.875,211.875 689.875,216.625 706.375,227.875 718.25,245.25 725.5,267.5 728.25,293.0 727.25,320.0 723.5,346.875"/>
    <polyline points="717.875,372.5 711.25,396.125 704.125,417.25 696.875,435.75 690.0,451.875 683.5,465.75 677.5,477.375 671.875,487.25 666.875,495.625 658.0,508.375 650.5,517.25 647.25,520.5 641.375,525.75 636.375,529.375 628.25,534.0 621.875,537.0"/>
    <polyline points="620.625,537.75 615.375,541.0 612.875,543.875 612.0,546.375 611.75,548.125 611.875,550.0 612.875,552.875 613.875,555.0 617.25,559.5"/>
    <polyline points="618.375,560.75 623.875,565.75 631.375,571.125 641.25,576.75 653.875,582.5 661.375,585.25 674.0,589.0 683.25,590.875 692.875,592.25"/>
    <polyline points="697.75,592.5 702.5,592.5 707.125,592.0 711.375,591.125 715.125,589.875 718.375,588.0 720.875,585.5 722.5,582.25 723.0,578.5 722.5,574.0 720.75,569.0 717.75,563.375 713.5,557.25 708.375,550.875 702.125,544.25 695.25,537.625 680.0,524.75 672.0,518.75 656.0,507.875 648.375,503.25 633.875,495.375 620.75,489.5"/>
    <polyline points="614.875,487.25 603.875,483.875 594.375,481.875 585.875,480.75 578.375,480.5 568.625,481.125 560.25,482.375 550.875,484.5 538.125,488.25"/>
    <polyline points="536.625,488.625 528.75,491.0 521.375,492.5 514.75,492.75 512.0,492.375"/>
    <polyline points="511.25,492.125 507.5,490.875 504.5,489.125 501.0,486.25 496.375,481.0"/>
    <polyline points="495.875,480.125 494.0,477.625 490.375,471.375 486.75,463.25 483.5,452.75 482.0,443.875"/>
    <polyline points="481.75,441.25 481.375,435.75 481.625,426.125 483.125,414.625 485.25,405.625 488.625,395.25 493.5,383.375 500.375,369.875 504.875,362.375 516.0,346.0 522.875,337.25 530.75,328.125 539.75,318.75 549.75,309.25 560.75,300.0 572.75,291.25"/>
    <polyline points="585.5,283.375 598.875,276.875 612.375,272.125 625.625,269.625 638.25,269.875 649.625,273.0 659.25,279.125 667.0,288.125 672.5,299.625 675.875,313.0 677.25,327.875 676.75,343.375 674.75,359.125 671.5,374.625 667.5,389.5 662.875,403.375 657.875,416.25 652.75,428.125 647.5,438.75 642.375,448.25 632.5,464.375 627.875,471.125 619.25,482.375 615.25,487.125"/>
    <polyline points="611.625,491.375 604.875,498.375 596.25,506.625 585.25,516.25 577.875,523.375 573.875,528.25 571.875,531.75 570.625,535.125"/>
    <polyline points="570.375,536.25 570.0,538.375 570.0,541.875 571.25,547.625 573.25,552.625 575.375,556.625 582.75,568.125"/>
    <polyline points="583.875,569.625 592.0,581.375 595.25,586.75 597.0,590.375 598.25,594.125 598.75,597.625 598.5,599.375 597.875,601.0 596.875,602.5 595.125,604.0 592.625,605.125 589.25,606.125 584.75,606.75 578.875,607.0 571.25,606.625"/>
    <polyline points="561.5,605.625 549.375,603.75 534.25,600.625 515.875,596.375 493.875,590.375 468.125,582.75 438.875,573.25 407.375,562.25 375.0,550.25 344.25,538.125 283.875,513.0 277.625,510.75 277.25,511.75 302.125,533.0 309.375,539.75 316.125,546.25 341.125,571.875"/>
    <polyline points="345.25,575.25 349.125,578.25 353.125,580.5 357.125,582.25 361.25,583.375 365.5,584.125 369.75,584.25 374.125,583.875 383.0,582.0 387.5,580.625 396.5,576.875 409.375,569.875 424.875,559.875 443.875,545.75"/>
    <polyline points="446.5,543.75 458.0,534.5 469.625,524.5 478.25,515.875 481.75,511.25"/>
    <polyline points="482.25,510.375 484.375,506.25 485.375,503.0 485.75,500.625 485.75,495.625 484.5,489.25"/>
    <polyline points="484.125,488.25 475.625,462.875 472.75,450.25"/>
    <polyline points="472.375,447.75 471.625,442.375 471.25,433.0 471.875,421.75 473.25,412.75 475.625,402.5 479.625,390.625 482.25,384.0 489.375,368.875 494.0,360.5 499.625,351.375 506.25,341.625 514.0,331.25 523.125,320.25 533.5,308.75 545.375,297.125 558.875,285.375"/>
    <polyline points="573.625,274.125 589.625,264.0 606.5,255.5 623.75,249.5 640.5,246.75 656.25,247.75 670.0,252.875 681.375,262.25 689.75,275.375 695.0,291.625 697.375,310.0 697.25,329.625 695.0,349.625 691.25,369.0 686.375,387.5 680.75,404.625 674.875,420.25 668.875,434.125 663.0,446.5 657.25,457.5 646.625,475.25 637.25,488.75 629.125,499.0"/>
    <polyline points="625.5,503.125 616.0,512.875 599.25,527.625 595.5,531.5 592.75,535.0 590.5,539.625 589.875,544.25"/>
    <polyline points="590.0,545.5 591.0,550.375 592.75,554.25 595.25,558.375 598.625,562.75 602.875,567.375 608.125,572.375 614.375,577.75 622.125,583.5"/>
    <polyline points="625.0,585.5 635.125,592.0 652.5,601.625 669.875,609.5 684.25,615.125 692.5,618.0 701.5,620.875 722.125,626.25 733.625,628.625 745.875,630.625 758.625,631.875 771.5,632.125 783.875,631.0 794.75,628.125 803.125,622.75 808.0,614.5 807.875,603.25"/>
    <polyline points="802.375,588.875 791.375,571.875 775.625,552.875 756.375,533.0 735.375,513.25 714.0,494.25 644.625,435.0 623.0,415.875 608.75,402.375 591.25,384.25 590.25,383.5 588.875,383.25 587.5,385.625"/>
    <polyline points="587.0,387.0 585.375,392.125 581.875,400.75 579.625,405.25 575.625,412.0 571.125,418.25 564.625,425.625 559.75,430.125 554.75,433.875"/>
    <polyline points="553.25,435.0 550.0,436.875 544.125,439.625 541.25,440.5 537.25,441.25 532.5,441.125 528.25,439.875 525.5,438.125 523.125,435.75"/>
    <polyline points="522.5,434.75 521.25,432.625 520.25,430.125 519.0,424.125 518.875,418.625 520.25,409.75 522.5,402.0 524.875,396.25 529.75,386.875 534.125,380.125"/>
    <polyline points="536.625,376.625 542.375,369.625 549.0,362.75 556.625,356.25 564.875,350.5 573.625,346.0 578.0,344.375 582.375,343.25 586.625,342.75 590.75,342.75 594.5,343.375 598.0,344.625 601.25,346.625 604.0,349.125 606.25,352.25 608.0,355.875 609.375,360.0 610.25,364.625 610.5,369.5 610.375,374.625 609.875,379.875"/>
    <polyline points="609.0,385.25 606.0,396.0 602.125,406.375 597.375,416.25 594.875,420.75 592.25,425.125 586.75,433.125 578.625,443.375 570.625,451.625 563.0,458.375 558.375,462.0 549.625,467.75"/>
    <polyline points="547.625,469.0 538.5,473.5 533.75,475.375 529.375,476.625 521.625,477.75 517.125,477.625 513.125,476.75"/>
    <polyline points="512.125,476.375 510.25,475.75 506.625,473.75 503.375,471.125 500.25,467.75 497.25,463.5 495.875,461.0 492.75,453.625"/>
    <polyline points="492.25,452.0 490.75,446.25 490.0,442.0 489.375,434.625 489.375,428.875 490.375,419.0 492.875,407.25 495.75,398.125 500.0,387.75 502.75,382.0 509.5,369.625 513.75,362.875 518.75,355.875"/>
    <polyline points="524.25,348.5 530.625,340.875 537.75,333.125 545.625,325.25 554.25,317.5 563.75,310.0 573.875,303.125 584.5,297.0 595.5,292.0 606.5,288.5 617.25,286.75 627.5,287.0 636.75,289.5 644.875,294.125 651.375,301.0 656.375,309.875 659.75,320.375 661.5,332.0 661.75,344.5 660.75,357.375 658.625,370.25 655.625,382.875 652.0,395.0 647.875,406.5 643.5,417.125 638.875,427.0"/>
    <polyline points="634.25,436.0 629.625,444.25 620.625,458.375 612.125,469.75 604.5,479.125 597.5,486.625 588.25,495.5 567.375,513.375 563.5,517.125"/>
    <polyline points="562.25,518.25 557.875,523.5 555.625,527.375 554.5,530.25 553.875,534.0 553.875,536.0 554.125,538.875 555.125,542.75"/>
    <polyline points="555.375,543.875 559.0,552.5 564.75,564.625 566.75,571.25 566.875,573.75"/>
    <polyline points="566.875,575.125 566.625,576.375 565.5,578.75 563.375,581.0 561.75,582.0 559.75,582.75 554.25,584.125 546.125,584.5 540.875,584.375 527.25,583.0 518.75,581.625 498.0,577.25 472.125,570.5 457.625,566.25 426.75,556.25 396.875,545.625 384.0,540.75"/>
    <polyline points="373.0,536.375 358.375,530.375 353.5,528.0 377.5,535.875 386.875,538.125 395.5,539.5 399.5,539.875 406.875,540.0 413.375,539.375 419.125,538.125 426.75,535.375"/>
    <polyline points="428.875,534.375 433.0,532.125 439.875,527.125 446.25,520.75 449.125,516.875 451.875,511.75 453.625,506.625 454.375,502.75"/>
    <polyline points="454.5,501.375 454.375,494.875 453.0,487.75 449.875,478.5 442.75,461.125"/>
    <polyline points="441.75,458.875 438.125,448.5 435.625,439.125 433.75,427.625 433.25,418.5 433.75,407.625 435.625,394.5 437.5,386.75 440.0,378.125 443.375,368.5 447.875,357.625 453.875,345.375 461.5,331.5 471.25,315.625 483.625,297.875 499.125,278.0"/>
    <polyline points="518.375,256.125 541.875,232.5 569.75,208.375 602.0,185.125 637.625,165.375 674.75,152.25 710.25,149.125 740.875,158.5 763.875,180.625 777.625,213.625 782.75,253.5 780.875,296.125 774.5,337.75 765.75,376.125 756.125,409.75 746.875,438.5 738.375,462.25 730.875,481.625 724.5,497.25 719.0,509.5 714.25,518.875 710.125,526.125 706.25,531.375 702.75,535.0 699.25,537.375 695.875,538.625"/>
    <polyline points="692.25,539.0 688.625,538.625 680.75,536.5 649.5,523.125 636.125,518.25 627.75,515.75 623.75,514.75 612.5,512.75 602.75,512.125 594.25,512.625"/>
    <polyline points="591.625,512.875 586.875,513.75 582.75,514.875 577.25,517.0 572.625,519.25 567.875,522.75 564.5,526.25 562.625,529.125 561.125,532.875"/>
    <polyline points="560.875,533.875 560.625,538.875 561.875,545.25 565.25,553.375 570.0,562.375"/>
    <polyline points="570.75,563.75 573.75,569.375 575.625,573.75 576.625,576.625 577.125,579.625 577.25,581.125 576.75,584.0 575.25,586.625 574.0,587.75 570.0,589.875 563.625,591.25 553.625,591.5 539.0,590.125"/>
    <polyline points="529.375,588.625 518.125,586.5 490.125,579.75 473.25,575.125 435.125,563.125 414.875,556.25 394.875,549.0 360.125,535.625 329.375,523.125 341.25,529.625 358.0,537.625 368.375,542.125 377.75,545.25"/>
    <polyline points="381.875,546.375 385.875,547.25 393.0,548.125 399.375,548.0 405.125,547.125 412.75,544.75 419.5,541.5 423.5,539.125 427.125,536.5 433.5,531.125 438.625,525.625"/>
    <polyline points="439.75,524.25 441.75,521.625 445.0,516.25 446.75,512.375 447.875,508.5 448.625,503.375 448.625,499.5 447.875,494.125 447.125,491.375"/>
    <polyline points="446.75,490.0 443.25,481.0 437.0,469.0 428.75,454.125 422.375,440.25"/>
    <polyline points="421.25,437.0 420.0,433.625 417.875,425.875 416.375,416.875 415.625,406.125 416.5,392.875 417.75,385.0 419.75,376.125 422.75,366.0 427.0,354.375 432.75,341.0 440.625,325.5 451.125,307.5 465.0,286.625 483.0,262.5 506.25,235.125 535.625,204.75 571.75,172.75 614.625,141.75 662.625,116.0 712.125,101.25 757.75,103.25"/>
    <polyline points="793.5,125.0 815.75,164.875 824.375,217.125 822.25,274.125 813.625,329.5 802.25,379.125 790.625,421.375 780.25,455.875 764.75,504.5 759.375,520.375 755.125,532.0 751.375,539.875 747.875,544.625 744.0,546.875 739.75,547.0 734.625,545.25 728.875,542.25 689.0,516.125 671.125,505.125 662.375,500.125"/>
    <polyline points="653.875,495.625 638.125,487.875 624.0,482.125 617.625,479.875 606.125,476.625 596.0,474.75 587.125,473.875 583.0,473.75 572.25,474.125 557.875,476.5 546.5,479.375"/>
    <polyline points="544.5,479.875 531.25,483.375 526.0,484.375 521.375,484.875 517.25,484.875 512.625,484.125"/>
    <polyline points="511.75,484.0 506.875,482.0 501.625,478.125 498.125,474.375 493.375,467.25"/>
    <polyline points="492.75,466.0 489.0,457.375 487.5,452.0 485.75,443.5 485.125,435.75 485.125,429.875 486.125,419.625 487.625,411.625 490.0,402.625"/>
    <polyline points="491.625,397.625 493.625,392.25 498.875,380.5 502.25,374.125 510.875,359.875 516.125,352.25 522.25,344.25 529.25,335.875 537.125,327.25 545.875,318.625 555.5,310.0 566.125,301.75 577.5,294.25 589.375,287.625 601.625,282.375 614.0,278.875 625.875,277.625 636.875,278.75 646.75,282.5 655.125,288.75 661.625,297.5 666.25,308.375 669.0,320.875 669.875,334.5"/>
    <polyline points="669.25,348.75 667.375,363.125 664.375,377.25 660.5,390.875 656.25,403.625 651.5,415.625 646.625,426.5 636.75,445.5 632.0,453.625 627.25,460.875 618.5,473.125 610.5,482.875 600.0,494.125 591.25,502.375 580.125,512.125"/>
    <polyline points="578.25,513.75 573.5,518.0 568.75,523.0 566.125,526.375 564.875,528.625 563.125,532.75 562.625,534.875 562.375,539.125 562.875,542.375"/>
    <polyline points="563.0,543.5 565.875,551.5 568.375,556.5 574.5,567.375 577.5,573.25 578.75,576.375"/>
    <polyline points="579.375,577.875 580.125,581.0 580.25,584.0 580.125,585.375 578.875,588.25 577.75,589.5 576.125,590.625 574.0,591.75 571.25,592.625 563.375,593.625 558.0,593.625 551.25,593.25 533.5,591.0 508.375,585.75 492.75,581.875 475.0,576.875 455.375,571.0 434.375,564.125 391.125,548.875"/>
    <polyline points="371.0,541.25 324.0,522.125 321.75,521.5 322.625,522.25 330.25,526.625 353.125,539.0 368.5,546.25 373.0,547.875 381.125,550.375 388.25,551.5 394.625,551.625 400.375,551.0 403.125,550.375"/>
    <polyline points="405.75,549.625 413.125,546.75 417.625,544.375 423.875,540.375 429.25,536.25 434.0,532.0 438.125,527.75 442.625,522.125 446.0,516.75"/>
    <polyline points="446.625,515.5 448.75,510.25 449.75,506.375 450.125,502.5 450.125,498.5 449.625,494.5 448.625,490.375 445.375,481.375"/>
    <polyline points="444.625,479.875 433.125,456.625 429.625,449.0 426.25,440.0 423.25,429.25 422.5,425.125 421.375,415.75 421.25,410.375"/>
    <polyline points="421.25,404.5 422.875,390.75 424.5,382.625 427.0,373.375 430.625,362.875 435.5,350.875 442.0,337.0 450.75,321.25 462.125,302.875 476.875,282.0 495.75,258.125 519.625,231.5 549.25,202.625 585.0,173.25 626.25,146.0 671.125,125.0 716.0,115.5 756.125,121.625 786.5,145.25 804.875,184.125 811.375,232.875 808.75,285.125 800.625,335.75 789.875,381.25 779.0,420.125"/>
    <polyline points="769.0,452.375 753.375,498.625 747.75,514.25 743.0,525.875 739.0,534.125 735.375,539.625 731.75,542.875 727.875,544.25 723.625,544.0 718.875,542.375 713.5,539.875 707.625,536.625 672.375,515.375 664.875,511.125 650.375,503.75 643.375,500.5 630.375,495.25 618.625,491.375"/>
    <polyline points="613.25,489.875 603.25,487.875 594.375,486.75 582.875,486.5 576.25,487.0 567.375,488.375 559.875,490.125 549.625,493.375 541.5,496.5"/>
    <line x1="540.125" x2="519.625" y1="497.0" y2="505.625"/>
    <polyline points="519.125,505.875 514.625,507.125 512.0,507.125"/>
    <polyline points="511.75,507.125 509.625,506.375 507.375,504.625"/>
    <polyline points="507.25,504.375 504.625,501.5 501.625,497.5"/>
    <polyline points="501.375,497.125 496.0,489.375 491.375,481.5"/>
    <polyline points="490.875,480.625 485.375,469.125 481.5,457.875 479.625,449.625 478.375,439.5"/>
    <polyline points="478.25,436.625 478.25,430.25 479.25,419.25 480.875,410.5 485.375,395.0 490.375,382.75 497.625,368.625 507.625,352.375 513.875,343.5 521.25,334.125 529.625,324.375 539.125,314.375 549.875,304.25 561.75,294.375 574.75,285.0 588.5,276.5 603.0,269.625"/>
    <polyline points="617.5,264.875 631.75,262.625 645.125,263.375 657.0,267.5 667.0,274.875 674.625,285.375 679.875,298.5 682.75,313.625 683.375,330.0 682.25,346.875 679.5,363.75 675.75,380.125 671.125,395.625 666.0,410.0 660.625,423.125 655.25,435.0 649.75,445.625 639.5,463.5 634.625,470.875 625.625,483.125 617.75,492.75 610.75,500.25"/>
    <polyline points="607.625,503.375 587.5,521.75 582.25,527.125 578.75,532.0 577.625,534.25 576.5,537.75 576.125,541.25"/>
    <polyline points="576.25,542.375 576.25,543.625 577.375,548.375 578.875,552.25 581.0,556.25 583.625,560.5 588.0,566.5 598.0,578.25"/>
    <polyline points="599.625,580.125 623.0,605.5 630.75,615.125 633.875,620.125 635.75,624.875 636.125,627.25 635.75,629.375 634.5,631.375 632.125,633.125 628.25,634.5"/>
    <polyline points="622.375,635.25 613.875,635.25 602.0,634.125 585.625,631.5 563.5,626.75 534.25,619.25 496.375,608.125 449.125,592.625 393.5,572.5 333.0,548.875 274.875,524.375 227.625,503.125 197.625,489.25 185.5,484.75 187.125,488.875 196.625,499.625 208.625,514.625 220.0,531.875 229.375,550.375 236.5,569.25 241.75,588.25 250.0,624.0 254.75,639.75 260.875,653.25 268.625,663.875"/>
    <polyline points="278.375,671.25 290.0,675.125 303.0,675.5 317.0,672.875 331.25,667.625 345.5,660.375 359.125,651.875 371.875,642.75 383.5,633.375 394.0,624.125 403.375,615.25 411.625,607.0 425.25,592.5 449.5,564.25 456.625,556.5 462.125,551.25"/>
    <polyline points="463.875,549.875 468.375,546.625 471.25,545.0 478.0,542.375 485.5,540.625 491.25,540.0 495.5,539.875"/>
    <polyline points="496.5,539.875 499.5,540.0 506.5,541.125 511.0,542.625 515.875,545.5"/>
    <polyline points="516.375,545.875 519.0,548.625 520.125,550.625 520.625,552.625 520.5,554.0 519.75,555.5 518.875,556.375 516.875,557.5"/>
    <polyline points="516.0,557.75 512.875,558.625 504.875,559.0 500.75,558.75 490.875,557.5 479.5,555.125 470.625,552.875 460.0,549.375"/>
    <polyline points="457.75,548.625 450.875,545.5 448.5,543.625 448.25,543.0 448.5,542.125 449.5,541.25 453.75,539.875 468.0,537.25"/>
    <polyline points="469.625,537.0 490.875,533.375 498.0,532.625 503.125,532.5"/>
    <polyline points="504.125,532.5 510.125,533.125 514.75,534.375 518.875,536.25 522.625,538.75"/>
    <polyline points="523.25,539.25 526.75,542.375 530.875,547.375 533.25,551.625 534.375,555.375"/>
    <polyline points="534.375,556.125 534.375,557.625 533.75,559.875 532.25,561.875 529.5,563.625 525.125,564.875 518.75,565.5 506.5,564.875 489.375,562.125"/>
    <polyline points="484.375,561.0 468.5,557.125 442.625,549.0 434.375,545.875 428.375,543.25 424.625,541.25 423.625,540.375 423.25,539.625 423.25,539.125 423.875,538.625 426.125,537.875 436.25,536.75"/>
    <polyline points="438.75,536.375 446.125,535.5 455.75,533.75 462.5,532.125 475.625,528.0 486.625,523.5"/>
    <polyline points="487.75,523.0 496.5,518.875 503.75,514.75"/>
    <polyline points="504.0,514.625 507.375,512.125 508.0,511.375 508.5,510.0 508.25,508.5 507.5,507.0 505.25,503.625"/>
    <line x1="505.125" x2="499.0" y1="503.375" y2="494.375"/>
    <polyline points="498.625,493.875 491.0,481.25 487.25,473.75"/>
    <polyline points="486.75,472.625 483.875,465.625 481.125,457.125 479.75,450.875 478.625,443.75 478.125,435.25 478.25,428.75 479.375,417.375 480.25,413.125"/>
    <polyline points="481.25,408.5 484.25,398.125 488.75,386.375 491.625,379.75 499.375,365.125 504.375,357.0 510.25,348.375 517.0,339.25 524.75,329.75 533.625,319.75 543.75,309.75 555.0,299.625 567.375,289.875 580.875,280.75 595.0,273.0 609.625,266.875 624.125,263.125 638.125,262.25 650.875,264.5 662.0,270.125 671.0,279.0 677.625,290.875 681.75,305.0"/>
    <polyline points="683.625,320.75 683.375,337.5 681.375,354.625 678.125,371.375 673.875,387.375 669.0,402.375 663.75,416.25 658.375,428.75 652.875,440.125 647.5,450.25 642.375,459.125 637.375,467.125 628.125,480.25 619.875,490.5 612.625,498.5 600.875,510.125 592.0,518.0"/>
    <polyline points="590.25,519.625 585.5,524.0 582.0,527.875 580.125,530.25 577.625,535.0 576.875,537.25 576.375,541.875 577.125,546.625 578.375,550.375"/>
    <polyline points="578.875,551.75 582.5,558.5 590.25,569.0 599.25,579.375 612.375,593.25"/>
    <polyline points="614.5,595.5 620.875,602.25 631.5,614.375 636.875,622.0 639.125,627.0 639.625,629.375 639.5,631.625 638.625,633.75 636.5,635.625 633.0,637.0 627.5,638.0 619.375,638.125 607.75,637.125 591.75,634.75 569.875,630.125 540.5,622.75 502.0,611.5"/>
    <polyline points="453.5,595.625 395.75,574.875 332.25,550.0 270.625,524.0 220.375,501.375 188.625,486.625 176.375,482.0 178.75,486.75 189.0,498.625 201.625,514.875 213.125,533.625 222.375,553.75 229.125,574.375 234.0,594.875 242.0,633.875 247.125,650.75 254.0,664.875 263.0,675.625 274.375,682.5 287.625,685.25 302.375,684.25 317.875,679.75 333.5,672.75 348.625,663.875 362.75,653.875"/>
    <polyline points="375.875,643.5 387.5,633.25 397.875,623.25 406.875,614.0 414.625,605.375 427.0,590.75 436.125,579.125 450.0,560.25 455.25,553.75 461.125,548.125 463.875,546.25 468.0,544.125"/>
    <polyline points="469.375,543.5 476.0,541.25 482.625,539.875 491.125,538.875 499.625,538.875"/>
    <polyline points="500.625,539.0 504.375,539.375 510.875,541.125 516.375,543.875 519.125,546.125"/>
    <polyline points="519.625,546.625 522.25,550.125 523.125,552.375 523.125,554.5 522.75,555.5 521.625,557.0 519.625,558.375 517.75,559.0"/>
    <polyline points="516.625,559.375 512.5,560.0 507.0,560.125 497.375,559.375 491.625,558.5 478.875,555.875 468.875,553.25 456.625,549.375 451.75,547.5"/>
    <polyline points="449.75,546.5 448.0,545.75 444.5,543.5 443.75,542.375 443.875,541.75 444.75,540.875 449.125,539.5 469.875,535.75"/>
    <polyline points="471.625,535.375 493.875,531.125 501.375,530.25 504.25,530.25"/>
    <polyline points="505.125,530.25 508.375,530.375 513.5,531.375 517.5,532.875 522.25,535.75"/>
    <polyline points="522.875,536.25 525.75,538.625 530.125,543.25 534.0,548.75 535.5,551.75"/>
    <polyline points="535.875,552.5 537.0,557.375 536.75,559.75 535.625,562.0 533.375,564.0 529.75,565.625 526.25,566.375 521.625,566.75 512.5,566.5"/>
    <polyline points="508.875,566.25 500.375,565.125 479.625,560.875 461.875,556.125 450.0,552.5 434.375,547.125 423.5,542.625 419.625,540.375 418.25,538.875 418.5,538.25 419.25,537.875 421.875,537.25"/>
    <polyline points="423.75,537.0 438.375,535.75 446.25,534.625 456.125,532.625 468.625,528.875 478.375,524.875"/>
    <polyline points="479.75,524.25 485.75,521.25 492.625,517.125 496.125,514.5 498.625,512.125"/>
    <polyline points="498.875,511.75 500.25,510.125 501.375,507.5 501.5,504.5 501.25,503.5"/>
    <polyline points="501.25,503.125 499.625,498.75 495.625,491.25"/>
    <polyline points="495.25,490.625 489.0,479.125 484.625,469.5 483.0,465.0"/>
    <polyline points="482.5,463.375 480.25,456.125 478.875,449.75 477.875,442.375 477.5,436.625 477.5,430.375 478.0,423.125 480.125,410.375 482.875,400.375 487.0,388.875 489.75,382.375 493.125,375.5"/>
    <polyline points="497.0,368.125 507.25,351.625 513.625,342.625 521.125,333.125 529.625,323.25 539.375,313.0 550.25,302.75 562.375,292.625 575.625,283.125 589.625,274.625 604.375,267.75 619.25,263.0 633.625,260.875 647.125,262.0 659.125,266.375 669.125,274.25 676.625,285.125 681.75,298.75 684.375,314.25 684.875,331.0 683.375,348.25 680.5,365.375 676.5,382.0 671.75,397.5 666.625,411.875"/>
    <polyline points="661.125,425.125 655.625,436.875 644.875,456.875 639.875,465.25 635.0,472.625 626.125,484.75 614.625,498.125 602.625,510.0 591.625,519.625 583.375,528.0"/>
    <polyline points="582.375,529.25 580.625,531.625 578.875,535.125 577.875,538.625 577.625,542.125 578.0,545.75 580.125,552.0 583.0,557.375 584.875,560.25"/>
    <polyline points="585.875,561.625 589.25,566.25 594.75,572.75 603.125,581.75 617.875,596.375 633.375,610.875"/>
    <polyline points="636.25,613.5 661.125,636.875 667.5,643.375 676.125,653.125 680.0,659.625 680.875,662.625 680.75,665.375 678.875,667.875 674.875,669.625 667.5,670.5 655.625,670.125 637.125,667.5 609.25,661.625 568.125,650.875 509.5,632.875"/>
    <polyline points="429.875,605.125 330.75,566.625 224.625,521.125 135.625,478.875 85.25,453.125 74.875,450.0 88.625,466.375 108.625,495.375 124.875,532.0 133.875,573.5 137.0,618.375 137.5,665.125 139.5,710.5 147.375,750.5 163.75,780.0 189.125,795.625 221.375,796.25 256.5,784.125 290.5,763.25 320.625,737.875 345.0,711.5 363.25,686.125 375.875,663.125 383.375,642.875 386.75,625.125 386.875,610.0"/>
    <polyline points="384.875,596.875 381.25,585.75 377.0,576.25 365.875,556.25 363.875,552.0 363.125,548.75 363.5,546.375 365.0,544.875 367.25,543.875 370.375,543.25 377.875,543.0 399.75,543.375 408.0,542.875 419.375,541.25 426.125,539.625"/>
    <polyline points="429.25,538.625 435.0,536.625 440.25,534.375 451.0,528.375 454.5,525.875 459.0,522.25 463.875,517.5 468.25,511.875 469.5,509.625"/>
    <polyline points="470.125,508.5 472.375,502.0 473.0,495.25 472.75,491.75 471.625,485.5 469.75,478.5"/>
    <polyline points="469.375,477.0 465.625,464.875 462.875,453.875 461.125,442.875 460.5,432.75 460.625,425.0 461.5,415.875 463.375,405.375"/>
    <polyline points="464.875,399.375 469.25,385.875 476.125,369.625 480.875,360.375 486.625,350.375 493.625,339.375 502.0,327.375 511.875,314.5 523.75,300.75 537.5,286.375 553.375,271.75 571.25,257.25 591.0,243.875 612.25,232.5 634.0,224.375 655.5,220.625 675.25,222.25 692.25,229.75 705.625,243.125 714.75,261.5 719.5,283.75 720.625,308.125 718.625,333.375 714.375,358.125"/>
    <polyline points="708.75,381.5 702.125,402.875 695.375,422.0 688.5,438.875 681.875,453.5 675.625,466.125 669.75,477.0 664.375,486.125 659.5,493.875 650.75,506.0 646.875,510.75 640.125,518.0 634.375,523.25 629.375,527.25 615.625,536.5"/>
    <polyline points="614.5,537.25 610.875,540.625 609.625,542.375 608.5,545.125 608.25,548.0 609.125,552.125 610.875,555.5 612.5,557.875 617.0,562.875"/>
    <polyline points="618.5,564.25 621.625,567.0 625.375,569.75 634.625,575.75 643.375,580.5 657.875,586.875 671.25,591.375 686.75,595.25 697.875,596.875 703.625,597.375 709.25,597.375"/>
    <polyline points="714.625,597.125 719.75,596.25 724.375,594.75 728.25,592.625 731.25,589.625 733.125,585.875 733.625,581.375 732.625,575.875 730.125,569.75 726.125,562.875 720.75,555.5 714.0,547.625 706.25,539.75 688.625,524.125 670.0,509.875 660.75,503.5 643.5,492.625 628.0,484.375 614.375,478.25 602.625,474.125"/>
    <polyline points="597.375,472.75 587.875,470.75 579.625,469.875 572.25,469.75 565.75,470.0 554.75,471.5 539.875,474.75 530.0,476.5"/>
    <polyline points="528.5,476.75 524.5,477.125 519.625,477.125 513.25,475.875 510.375,474.75 506.75,472.75 502.5,469.125"/>
    <polyline points="501.75,468.25 498.75,464.375 495.875,459.5 493.375,453.625 491.375,446.25 490.625,442.0 490.0,434.625 490.125,426.0 490.5,422.75"/>
    <polyline points="490.875,419.375 493.375,407.75 496.125,398.625 498.0,393.75 502.875,382.875 509.625,370.625 513.75,364.0 518.5,357.125 523.875,349.875 530.125,342.375 537.0,334.75 544.75,327.0 553.125,319.25 562.375,311.875 572.25,305.0 582.75,298.875 593.5,293.75 604.375,290.0 615.0,288.0 625.125,288.0 634.5,290.125"/>
    <polyline points="642.625,294.375 649.375,300.75 654.625,309.125 658.25,319.25 660.25,330.5 660.75,342.625 659.875,355.25 658.0,368.0 655.25,380.5 651.75,392.625 647.75,404.125 643.5,414.75 639.0,424.75 629.75,442.125 625.25,449.625 620.75,456.375 612.375,468.125 600.875,481.5 594.25,488.5 588.25,494.25"/>
    <polyline points="585.5,496.75 567.0,512.375 560.625,518.375 556.375,523.5 554.25,527.375 553.625,529.25"/>
    <polyline points="553.375,530.125 552.75,532.875 552.75,536.625 553.375,540.5 555.375,546.5 559.5,555.375"/>
    <polyline points="560.0,556.625 562.875,562.625 565.0,569.125 565.375,572.875 564.625,576.625 564.0,577.75 561.875,580.0 558.375,581.75 556.0,582.5 553.0,583.0 545.125,583.5"/>
    <polyline points="540.125,583.375 534.125,583.0 527.125,582.125 509.875,579.125 487.625,574.0 461.0,566.625 431.375,557.25 402.5,547.125 369.75,534.375 359.125,529.875 357.25,528.875 357.25,528.625 378.625,535.25"/>
    <polyline points="383.25,536.375 396.5,538.75 404.375,539.25 411.375,539.0 420.5,537.375 428.25,534.75 432.625,532.625 436.5,530.25 443.0,525.25 446.875,521.5 447.875,520.125"/>
    <polyline points="449.0,518.875 451.625,515.0 453.625,511.25 456.0,503.625 456.375,497.125 456.0,493.0 454.5,485.875"/>
    <polyline points="454.0,484.375 451.25,476.25 445.875,462.75 442.5,453.125 440.875,447.5 438.625,437.875 437.625,430.375 437.0,421.625"/>
    <polyline points="437.125,416.75 437.375,411.375 439.0,399.125 440.5,391.875 442.625,384.0 445.5,375.125 449.375,365.25 454.375,354.125 460.875,341.5 469.125,327.375 479.625,311.5 492.625,293.75 508.75,274.0 528.5,252.75 552.25,230.25 580.0,207.625 611.5,186.75 645.5,170.125 680.0,160.5 712.25,160.625 739.375,172.375 759.0,195.5 770.375,227.75 774.0,265.75 771.625,305.625"/>
    <polyline points="765.25,344.375 756.75,380.0 747.625,411.375 738.625,438.125 730.375,460.625 723.125,479.0 711.125,505.875 706.25,515.125 702.0,522.375 698.125,527.875 694.5,531.875 691.125,534.625 687.75,536.375 684.5,537.375 681.125,537.625 677.75,537.5 670.75,535.875 663.375,533.5 644.25,526.5"/>
    <polyline points="640.5,525.25 633.25,523.125 622.875,520.875 613.5,519.625 605.375,519.5 600.5,519.875 592.125,521.625 587.0,523.5 582.875,525.75 580.625,527.5"/>
    <polyline points="579.625,528.375 577.875,530.125 575.375,534.0 574.625,536.0 573.875,540.375 574.125,543.625 574.875,547.25 576.25,550.875 578.875,556.125"/>
    <polyline points="579.75,557.5 582.375,561.75 585.625,566.25 593.375,576.125 604.25,589.125 609.0,595.25 613.25,601.625"/>
    <polyline points="614.5,603.75 616.375,608.0 616.875,610.125 617.0,612.125 616.625,614.125 615.75,615.875 614.0,617.5 611.375,618.875 607.375,620.0 601.875,620.625 594.25,620.625 584.125,619.75 570.875,617.75 553.5,614.375 531.375,609.125 503.625,601.5 469.875,591.25 430.375,578.0 386.625,562.125 341.75,544.5 300.125,527.25 244.125,502.875 233.5,498.75 232.5,500.125"/>
    <polyline points="237.875,506.0 246.5,514.875 256.125,525.5 265.25,537.0 273.25,548.625 279.875,560.25 285.625,571.375 294.875,591.75 299.25,600.625 303.875,608.375 308.875,615.0 314.625,620.125 320.875,623.875 327.75,626.125 335.375,627.0 343.375,626.5 351.625,624.75 360.125,621.875 368.625,618.25 376.875,614.0 385.0,609.375 392.875,604.375 400.25,599.25 413.875,589.25"/>
    <polyline points="420.0,584.5 452.5,558.25 465.0,549.0 478.875,540.375 484.25,537.75 491.875,534.75"/>
    <polyline points="493.25,534.375 499.375,533.0 503.5,532.5 507.125,532.5 511.25,533.0 516.375,534.625"/>
    <polyline points="517.125,534.875 521.625,537.5 525.25,540.375 529.625,545.0 531.5,547.75"/>
    <polyline points="532.0,548.375 533.875,552.0 534.625,554.25 535.0,557.375 534.5,559.625 533.75,561.0 532.5,562.25 530.625,563.5 528.125,564.5 524.875,565.25"/>
    <polyline points="522.875,565.5 515.375,565.75 508.875,565.375 492.125,562.875 482.125,560.75 465.75,556.5 454.625,553.25 444.375,549.875 431.875,545.125 426.25,542.625 423.0,540.625"/>
    <polyline points="422.375,539.875 422.125,539.25 422.5,538.75 424.5,537.875 439.25,536.25 451.75,534.375 461.0,532.25 470.875,529.25"/>
    <polyline points="472.625,528.625 476.0,527.5 485.625,523.5 498.625,516.75"/>
    <polyline points="499.125,516.375 502.5,514.25 505.875,511.125 506.625,509.375 506.5,507.375 506.125,506.5"/>
    <polyline points="506.0,506.25 505.0,504.0 502.125,499.625"/>
    <line x1="501.875" x2="493.25" y1="499.25" y2="485.5"/>
    <polyline points="492.875,484.625 488.75,477.125 484.875,468.375 481.5,458.75 479.625,450.625"/>
    <polyline points="479.25,448.25 478.25,440.625 478.0,431.625 478.375,424.625 480.25,412.375 484.375,397.375 489.0,385.375 492.125,378.75 500.0,363.875 505.125,355.75 511.125,347.0 518.0,337.875 526.0,328.125 535.125,318.25 545.375,308.125"/>
    <polyline points="556.875,298.0 569.375,288.25 583.0,279.375 597.25,271.75 611.875,266.0 626.375,262.75 640.25,262.25 652.875,265.0 663.625,271.125 672.375,280.625 678.5,292.75 682.375,307.25 683.75,323.25 683.25,340.125 681.125,357.25 677.625,373.875 673.25,389.75 668.375,404.625 663.0,418.375 657.625,430.75 652.125,441.875 641.625,460.625 632.0,475.25 627.5,481.25"/>
    <polyline points="623.375,486.625 615.75,495.5 606.0,505.5 590.0,519.875 584.125,525.625 580.125,530.5 578.75,532.875 577.375,536.375"/>
    <polyline points="577.0,537.5 576.625,539.875 576.75,544.5 577.625,548.125 579.125,552.0 582.875,558.75 587.0,564.625 592.125,571.0"/>
    <polyline points="593.5,572.75 603.375,583.625 628.5,610.125 634.875,617.625 636.75,620.25 638.5,622.75 641.125,627.875"/>
    <polyline points="641.875,630.375 642.0,632.75 641.375,634.875 639.625,636.875 636.5,638.5 631.5,639.625 624.0,640.0 613.25,639.25 598.125,637.25 577.25,633.125 549.0,626.125 511.75,615.5 464.0,600.25 406.0,579.75 341.125,554.625 276.375,527.5 222.125,503.125 186.375,486.375 171.25,480.25 172.375,484.125 182.375,495.875 195.375,512.625 207.375,532.125 216.875,553.0 223.625,574.75 228.5,596.5"/>
    <polyline points="232.25,617.625 236.25,637.75 241.5,655.75 248.625,670.75 258.25,682.0 270.25,689.0 284.5,691.5 300.125,689.875 316.5,684.625 333.0,676.75 348.75,667.0 363.5,656.25 376.75,645.125 388.5,634.25 398.875,623.75 407.75,614.125 415.25,605.375 427.0,590.375 431.5,584.125 441.375,569.625 447.625,559.875"/>
    <polyline points="449.375,557.375 452.375,553.375 456.375,549.0 460.375,546.0 463.125,544.375 468.625,542.125 474.25,540.5 483.875,538.75"/>
    <polyline points="485.25,538.5 493.75,537.75 500.25,537.75 506.0,538.375 511.0,539.75"/>
    <polyline points="511.75,540.0 516.75,542.375 519.75,544.5 523.25,548.125 525.125,551.5"/>
    <polyline points="525.25,552.125 525.625,554.5 524.875,556.75 522.875,558.75 520.125,560.0 517.75,560.625 512.75,561.25 501.125,560.75"/>
    <polyline points="498.125,560.375 488.5,558.75 477.625,556.375 466.375,553.375 452.75,549.0 443.375,545.0 440.75,543.375 440.0,542.625 439.5,541.5 440.25,540.5 441.0,540.125"/>
    <polyline points="442.125,539.75 449.625,538.125 467.125,535.125 485.5,531.125"/>
    <polyline points="486.875,530.75 494.375,529.125 501.5,528.0 508.0,527.75 510.75,528.125"/>
    <polyline points="511.5,528.25 514.0,528.75 518.0,530.375 521.25,532.375 525.375,535.75"/>
    <polyline points="525.875,536.25 529.625,540.125 533.125,544.625 535.125,547.5 537.875,553.125"/>
    <polyline points="538.125,553.875 539.0,557.25 539.0,558.875 538.5,561.375 537.0,563.625 534.25,565.625 529.75,567.125 525.375,567.75 519.875,567.875 509.0,567.125"/>
    <polyline points="504.625,566.5 494.75,564.875 483.375,562.5 457.875,555.75 445.25,551.75 429.0,546.0 418.25,541.375 416.25,540.25 414.25,538.5 414.25,537.875 416.0,537.125 421.625,536.5"/>
    <polyline points="424.0,536.375 437.5,535.375 450.75,533.125 464.25,529.25 471.5,526.375 478.75,522.75"/>
    <polyline points="480.0,522.125 485.375,518.875 490.125,515.375 493.5,512.25 496.125,508.375"/>
    <polyline points="496.375,508.0 497.125,505.625 497.375,502.875 496.375,497.875 495.5,495.625"/>
    <line x1="495.25" x2="485.125" y1="495.0" y2="473.125"/>
    <polyline points="484.5,471.875 480.625,461.0 478.625,453.25 477.375,446.25 476.625,438.125 476.625,428.5 477.375,421.0 478.75,412.375 479.875,407.625"/>
    <polyline points="481.25,402.625 485.0,391.25 487.625,384.875 490.75,378.125 498.875,363.0 504.125,354.625 510.25,345.625 517.375,336.25 525.5,326.25 535.0,316.0 545.625,305.5 557.5,295.125 570.625,285.125 584.625,276.0 599.5,268.125 614.625,262.375 629.625,259.25 643.875,259.125 656.75,262.375 667.625,269.25 676.25,279.5 682.25,292.625 685.625,307.875 686.75,324.75"/>
    <polyline points="685.875,342.375 683.375,359.875 679.5,377.0 674.875,393.25 669.75,408.25 664.25,422.0 658.625,434.375 653.125,445.375 647.75,455.25 637.625,471.625 632.875,478.375 624.375,489.5 616.875,498.125 610.375,504.875 591.875,521.75"/>
    <polyline points="590.25,523.25 584.125,529.75 581.75,533.375 580.25,536.875 579.5,541.5 579.75,545.125 580.625,548.75 582.875,554.0"/>
    <polyline points="583.625,555.375 586.125,559.5 589.375,564.0 593.25,568.75 599.5,575.5 611.25,587.0 626.75,600.5"/>
    <polyline points="629.875,602.875 640.0,610.75 648.0,616.5 662.125,625.875 673.875,632.75 688.375,640.5 706.875,649.125 731.375,658.875 746.75,664.125 764.875,669.75 785.875,675.5 810.25,680.875 837.625,685.375 867.0,687.75 895.625,685.875 918.5,677.375 928.875,659.0"/>
    <polyline points="920.5,629.0 891.25,588.5 846.0,541.5 744.375,447.625 703.25,406.875 672.875,371.25 653.125,340.375 642.875,313.5 640.625,290.375 644.875,270.75 653.875,255.125 666.25,243.875 680.125,237.875 694.0,237.5 706.5,243.125 716.375,254.375 723.125,270.625 726.375,290.5 726.5,312.75 724.125,335.875 719.625,358.75 713.75,380.5 707.25,400.5 700.25,418.625 693.25,434.625"/>
    <polyline points="686.5,448.625 673.75,471.0 667.875,479.875 657.5,493.75 648.375,503.625 640.375,510.75 630.375,518.0 624.625,521.375 611.125,528.125 603.5,532.625"/>
    <polyline points="602.375,533.5 599.375,536.25 597.375,539.125 596.125,542.125 595.75,545.25 596.25,548.75 597.5,552.375 599.5,556.125 603.625,561.625"/>
    <polyline points="605.0,563.125 609.5,567.75 615.125,572.625 622.125,577.875 630.625,583.5 641.125,589.625 654.25,596.125 670.75,602.875 684.0,607.5 699.375,611.875"/>
    <polyline points="707.875,613.875 716.875,615.625 726.25,617.0 735.875,618.0 745.5,618.125 754.75,617.5 763.25,615.625 770.5,612.25 775.625,607.25 778.125,600.375 777.375,591.5 773.25,580.75 765.5,568.25 754.625,554.625 741.375,540.25 726.375,525.625 710.5,511.5 694.625,498.125 679.375,485.875 665.25,474.75 652.25,465.0 640.5,456.375 621.125,442.875 606.25,433.5"/>
    <polyline points="600.25,430.0 595.0,427.125 586.375,423.125 582.75,421.75 574.125,419.75 569.625,419.5 564.0,420.125 557.875,421.625 551.5,423.625 547.125,424.5"/>
    <polyline points="546.125,424.625 543.375,424.75 540.125,424.0 538.0,422.75 535.875,420.375 535.125,418.75 534.25,414.75 534.25,411.125 534.625,408.375"/>
    <polyline points="535.0,406.875 537.0,400.5 538.625,397.0 543.0,389.625 547.375,384.0 552.625,378.625 558.625,374.0 565.125,370.5 571.375,368.75"/>
    <polyline points="573.5,368.5 575.375,368.625 579.0,369.5 580.5,370.375 583.125,372.75 585.125,376.125 585.75,378.125 586.5,385.125 585.5,393.125 582.875,401.375 580.5,406.875 577.75,412.125 573.0,419.5"/>
    <polyline points="571.25,421.75 566.0,427.875 562.5,431.375 553.75,438.5 548.625,441.5 543.875,443.75 536.625,445.75 531.375,446.0"/>
    <polyline points="530.25,445.875 525.75,444.625 521.875,442.25 518.75,438.625 517.5,436.375 515.875,432.375 514.75,425.625 515.0,417.25"/>
    <polyline points="515.375,414.875 516.375,409.75 519.0,401.125 521.75,394.625 525.25,387.625 529.75,380.25 535.25,372.375 542.0,364.375 549.875,356.5 554.125,352.75 558.75,349.125 568.5,342.75 573.625,340.125 578.75,338.0 583.875,336.375 589.0,335.5"/>
    <polyline points="593.75,335.25 598.375,335.75 602.625,337.125 606.375,339.25 609.625,342.125 612.375,345.625 614.5,349.875 616.125,354.75 617.0,360.125 617.375,365.75 617.25,371.75 615.375,384.25 613.75,390.375 609.75,402.625 604.625,414.0 599.0,424.375 593.125,433.625 587.125,441.75 581.25,448.75"/>
    <polyline points="578.25,452.0 572.75,457.625 564.875,464.625 553.25,473.125 549.125,475.75 540.0,480.625 532.375,483.875 528.375,485.125"/>
    <polyline points="527.125,485.5 519.375,486.75 514.75,486.625 509.875,485.5 506.125,483.75 504.625,482.75"/>
    <polyline points="504.0,482.25 502.5,481.25 499.125,477.875 497.125,475.5 493.75,470.625 490.0,463.125 487.625,456.75"/>
    <polyline points="487.125,455.0 485.625,449.125 484.5,442.375 484.0,434.375 484.125,428.125 484.75,421.25 487.125,409.125 489.875,399.5 491.75,394.25 496.75,382.625 503.75,369.375 508.125,362.125 513.25,354.5"/>
    <polyline points="519.125,346.375 525.875,338.0 533.625,329.25 542.25,320.5 551.75,311.625 562.375,303.0 573.75,294.875 585.75,287.75 598.25,281.75 611.0,277.5 623.375,275.5 635.0,275.75 645.625,278.75 654.625,284.5 661.875,292.875 667.25,303.5 670.5,315.875 671.875,329.625 671.625,344.125 669.875,359.0 667.125,373.5 663.375,387.625 659.0,400.875 654.375,413.25 649.375,424.625 644.375,435.0"/>
    <polyline points="639.375,444.375 634.5,452.875 625.125,467.125 620.75,473.125 612.625,483.125 605.375,491.25 598.875,497.75 593.25,503.125 578.375,516.125 572.75,521.5 570.625,524.0"/>
    <polyline points="569.625,525.125 567.375,528.5 565.75,531.75 564.875,535.0 564.5,538.125 564.875,542.5 565.375,544.75 566.5,548.25 568.625,553.125"/>
    <polyline points="569.25,554.375 579.75,572.625 582.875,579.0 584.375,583.75 584.625,586.875 584.0,590.0 583.125,591.375"/>
    <polyline points="581.875,592.625 580.25,593.875 574.875,595.75 566.125,596.75 560.0,596.625 543.25,594.875 532.125,593.0 518.875,590.25 503.25,586.5 485.125,581.625 464.75,575.625 442.25,568.5 418.5,560.5 394.5,551.875 371.625,543.125 351.125,535.125 314.75,520.125 311.625,519.125 312.0,519.875 320.0,525.0"/>
    <polyline points="325.75,528.75 344.25,540.125 360.125,549.25 368.875,553.375 372.875,554.875 380.125,556.875 383.375,557.375 389.75,557.625 392.875,557.375 398.625,556.25 401.5,555.5 406.875,553.5 414.5,549.75 419.25,546.875"/>
    <polyline points="421.5,545.375 429.75,539.25 433.375,536.125 438.375,531.5 443.875,525.625 449.875,517.25 452.625,511.875 453.5,509.25"/>
    <polyline points="454.0,508.0 454.875,504.125 455.25,500.25 454.625,492.125 453.25,486.375 451.75,481.75 447.75,471.5"/>
    <polyline points="447.0,469.5 440.875,453.875 438.25,445.5 436.0,435.5 435.0,427.625 434.5,418.5 434.625,413.25 435.875,401.375 437.125,394.375 439.0,386.75 441.5,378.125 445.0,368.5 449.5,357.75"/>
    <polyline points="455.5,345.5 463.125,331.625 472.875,316.125 485.125,298.5 500.5,278.875 519.5,257.375 542.625,234.25 570.0,210.625 601.625,187.875 636.5,168.625 672.75,155.75 707.5,152.625 737.625,161.5 760.375,182.75 774.25,214.5 779.625,253.25 778.25,294.875 772.125,335.875 763.625,373.625 754.25,407.0 745.0,435.5 736.5,459.375 729.0,478.875 722.5,494.625 716.875,507.0 712.0,516.75"/>
    <polyline points="707.75,524.125 703.875,529.625 700.25,533.625 696.875,536.25 693.5,537.75 690.0,538.5 686.5,538.375 682.875,537.875 675.125,535.5 649.625,525.0 637.0,520.5 625.125,517.25 611.125,515.0"/>
    <polyline points="607.875,514.75 599.25,514.875 594.25,515.375 587.5,516.75 581.875,518.625 577.25,520.875 572.375,524.25 569.625,527.0 567.0,530.75"/>
    <polyline points="566.625,531.75 565.375,535.75 565.125,537.875 565.25,541.0 565.875,544.375 568.375,551.375 573.25,560.375"/>
    <polyline points="574.0,561.75 582.875,576.75 585.5,583.25 586.25,588.125 585.5,591.125 584.75,592.625 583.5,594.0 579.25,596.25 572.0,597.625"/>
    <polyline points="566.875,597.875 560.375,597.75 552.5,597.0 542.75,595.625 530.875,593.5 516.875,590.5 500.25,586.5 459.5,574.75 435.875,567.125 386.375,549.5 342.75,532.375 315.625,521.125 307.5,518.25 309.0,519.625 313.0,522.375 348.875,545.625"/>
    <polyline points="354.0,548.75 358.75,551.5 367.25,555.75 371.125,557.375 374.875,558.5 381.625,559.875 384.875,560.125 391.125,559.875 397.125,558.75 400.125,557.875 408.5,554.5 418.75,548.75 423.5,545.625 429.875,540.75"/>
    <polyline points="431.875,539.125 440.625,531.25 443.625,528.125 446.25,525.25 450.625,519.5 453.125,515.5 455.125,511.5 456.875,506.375 457.375,503.75"/>
    <polyline points="457.625,502.5 457.875,495.875 456.875,489.0 453.75,478.25 448.125,463.125"/>
    <polyline points="447.25,460.875 444.125,450.875 441.875,441.875 440.25,431.0 439.875,422.375 439.875,417.5 440.875,406.5 443.375,393.125 445.5,385.375 448.375,376.75 452.125,367.125 457.0,356.375 463.125,344.25 471.0,330.75 480.875,315.5 493.25,298.625"/>
    <polyline points="508.375,279.875 526.875,259.625 549.125,238.25 575.0,216.75 604.5,196.5 636.5,179.875 669.375,169.25 700.75,167.25 727.875,175.875 748.5,195.125 761.375,223.625 767.0,258.375 766.375,296.0 761.375,333.5 753.875,368.625 745.125,400.125 736.25,427.375 728.0,450.625 720.375,469.875 713.625,485.625 707.625,498.5 697.875,516.75 693.75,523.0 690.0,527.75 686.5,531.25"/>
    <polyline points="683.25,533.75 680.0,535.375 676.875,536.375 670.625,536.875 667.375,536.5 660.875,535.125 644.375,530.125 628.5,526.125 620.0,524.875 612.25,524.5 607.75,524.75"/>
    <polyline points="605.625,525.0 601.625,525.625 595.0,527.75 592.25,529.125 588.0,532.375 585.75,535.0 584.0,539.0 583.5,542.25 583.75,545.75"/>
  </g>
</svg>
