<?xml version="1.0" encoding="utf-8" ?>
<svg xmlns="http://www.w3.org/2000/svg" xmlns:cc="http://creativecommons.org/ns" xmlns:dc="http://purl.org/dc/elements/1.1/" xmlns:ev="http://www.w3.org/2001/xml-events" xmlns:inkscape="http://www.inkscape.org/namespaces/inkscape" xmlns:rdf="http://www.w3.org/1999/02/22-rdf-syntax-ns" xmlns:sodipodi="http://sodipodi.sourceforge.net/DTD/sodipodi-0.dtd" xmlns:xlink="http://www.w3.org/1999/xlink" baseProfile="tiny" height="27.09333333cm" version="1.2" viewBox="0 0 1024.0 1024.0" width="27.09333333cm">
  <metadata>
    <rdf:RDF>
      <cc:Work>
        <dc:format>image/svg+xml</dc:format>
        <dc:source>vpype read './original_svgs/Strange Attractors #443.svg' linemerge linesimplify write './Strange Attractors #443.svg'
</dc:source>
        <dc:date>2024-08-05T01:35:59.176552</dc:date>
      </cc:Work>
    </rdf:RDF>
  </metadata>
  <defs/>
  <g fill="none" id="layer1" inkscape:groupmode="layer" inkscape:label="1" stroke="black" stroke-width="0.7mm" style="display:inline">
    <polyline points="563.375,722.625 577.375,684.5 587.625,652.125 595.0,625.25 600.5,603.0 607.25,569.875 609.375,557.625 612.0,539.375 613.625,522.625 614.0,513.375 613.375,506.25 612.75,504.375 612.25,503.75"/>
    <polyline points="612.0,503.5 611.0,503.375 610.25,504.375 610.25,505.625 611.625,508.0"/>
    <polyline points="611.875,508.25 613.625,509.75 617.125,511.625 621.625,512.875 626.0,513.125"/>
    <polyline points="626.75,513.0 629.625,512.5 631.75,511.625 633.5,510.375 635.25,508.125 635.875,506.0 635.75,503.375 635.125,501.5 633.375,498.375"/>
    <polyline points="632.625,497.375 630.625,495.25 625.25,491.25 620.25,488.625 614.75,486.625 608.875,485.375 603.0,484.75 597.5,485.0 591.0,486.5"/>
    <polyline points="589.5,487.0 586.875,488.25 583.375,490.5 580.625,493.125 578.625,495.875 576.875,500.0 576.25,504.125 576.5,507.25 577.375,510.5"/>
    <polyline points="577.75,511.5 578.625,513.625 582.0,518.875 588.0,525.125 594.5,530.5 606.375,538.375"/>
    <polyline points="608.25,539.625 636.875,556.5 642.5,560.0 654.5,568.25 663.5,575.875 666.375,578.875 669.25,582.0 671.875,585.5 674.25,589.375"/>
    <polyline points="676.25,593.5 677.75,598.125 678.75,603.375 678.75,609.125 677.5,615.625 674.625,623.0 669.5,631.125 661.5,640.25 649.75,650.125 633.125,660.625 610.625,671.375 581.5,681.375 546.0,689.625 505.5,694.75 463.0,696.0 422.625,693.125 388.25,687.0 362.25,679.375 344.75,672.0 334.375,666.0 329.375,662.25 327.875,660.625 330.25,663.25 335.75,671.0"/>
    <polyline points="339.125,675.875 347.0,686.0 351.5,690.625 356.625,694.625 362.0,697.75 368.0,699.875 374.25,700.875 380.875,700.625 387.625,699.25 394.375,696.75 401.25,693.125 408.0,688.625 414.5,683.375 420.625,677.5 426.625,671.25 437.375,658.0 442.125,651.25 450.75,638.0 458.0,625.375 466.75,608.375"/>
    <polyline points="469.25,603.25 480.75,578.0 498.0,536.875"/>
    <polyline points="498.5,535.625 503.125,523.25 504.375,517.5"/>
    <polyline points="504.5,517.125 504.625,514.625 504.375,513.125 504.125,512.125 502.875,510.0"/>
    <polyline points="502.75,509.75 500.375,507.25 495.75,503.875"/>
    <line x1="495.375" x2="480.75" y1="503.5" y2="493.75"/>
    <polyline points="480.0,493.25 474.75,489.625 463.375,480.625 453.625,471.25"/>
    <polyline points="452.375,469.875 445.75,461.75 440.5,453.75 436.75,446.5 432.375,434.875 430.125,424.125 429.25,415.875 429.125,406.5 430.0,396.125"/>
    <polyline points="430.875,390.5 433.75,378.5 438.375,365.5 441.375,358.875 444.875,352.125 449.0,345.375 453.625,338.75 458.875,332.5 464.5,326.625 470.75,321.375 477.375,317.0 484.25,313.5 491.375,311.25 498.5,310.125 505.625,310.375 512.625,312.0 519.125,315.0 525.25,319.25 530.875,324.75 535.875,331.125 540.125,338.25 543.875,346.0 546.875,354.125 549.375,362.5"/>
    <polyline points="551.25,370.875 552.625,379.25 553.5,387.375 554.375,402.625 554.125,416.5 553.125,428.625 550.875,444.125 549.125,452.75 545.75,466.625 540.25,485.5"/>
    <polyline points="539.75,487.25 537.75,495.0 536.5,503.125 536.5,506.875 536.875,509.5 538.125,514.0"/>
    <polyline points="538.5,514.625 540.875,518.625 544.25,522.5 550.25,527.625 555.0,531.0"/>
    <polyline points="538.625,515.625 540.25,518.25 542.875,521.375 549.375,527.125 554.875,531.125 578.625,546.875 583.625,550.5 592.375,557.625"/>
    <polyline points="557.0,532.625 580.25,548.125 588.75,554.625 596.0,560.875 599.5,564.5 602.875,568.5 606.0,573.0 609.75,580.75 611.125,586.75 611.375,590.125 611.125,593.625 610.5,597.375 609.125,601.375 607.125,605.5 604.25,610.0 600.375,614.625 595.25,619.375 588.875,624.125 581.0,629.0 571.625,633.75 560.75,638.125 548.25,642.0"/>
    <polyline points="534.625,645.25 519.875,647.75 504.875,649.125 489.875,649.625 475.625,648.875 462.625,647.375 451.375,645.0 442.0,642.0 434.625,638.75 429.125,635.25 425.375,631.625 423.0,628.125 421.875,624.75 421.5,621.375 422.0,618.125 424.0,612.0 433.25,594.875 437.125,586.625"/>
    <polyline points="438.25,584.0 440.875,576.25 442.875,566.625 443.375,559.875 443.0,553.625 441.875,547.75 440.0,542.375 438.375,539.0 434.25,532.75"/>
    <polyline points="433.0,531.375 428.875,527.125 425.75,524.375 416.5,518.125 410.0,514.75 400.0,510.75 391.5,508.125 385.25,506.75 375.125,505.375"/>
    <polyline points="371.375,505.125 363.625,505.0 355.25,505.875 350.75,506.625 341.25,509.375 330.75,514.125 325.125,517.5 319.25,521.75 313.125,527.0 306.625,533.5 299.75,541.625 292.75,551.5 285.375,563.625 277.875,578.375 270.25,596.25 262.875,617.75 256.125,643.375 250.5,673.25 247.0,707.25 246.625,744.5 250.875,783.25 260.875,820.625"/>
    <polyline points="277.5,852.625 300.75,875.375 329.125,885.875 360.375,883.25 391.75,869.25 421.0,847.125 446.5,820.625 467.75,792.875 484.5,766.375 497.375,742.375 506.875,721.375 513.375,703.75 517.5,689.0 519.75,677.0 520.375,667.375 519.75,659.5 518.125,653.125 515.625,648.0 512.5,643.75 509.125,640.125 505.375,637.0 490.625,626.75 487.625,624.25"/>
    <polyline points="484.875,621.875 480.5,617.0 479.0,614.5 477.0,609.375 476.375,604.125 476.875,599.0 478.125,593.875 482.125,583.875 485.625,576.875 494.125,562.25"/>
    <polyline points="495.25,560.375 500.5,552.125 507.75,542.125 512.375,536.875 516.625,533.25"/>
    <polyline points="517.25,532.75 519.25,531.5 522.5,530.125 525.875,529.375 530.0,529.25 534.375,530.0"/>
    <polyline points="535.25,530.125 540.25,531.625 547.875,534.75 560.875,541.375"/>
    <polyline points="562.25,542.125 575.5,550.5 582.0,555.25 587.0,559.5 590.25,562.625 595.0,568.0 597.875,572.125 600.375,576.75"/>
    <polyline points="601.375,579.25 602.875,584.625 603.125,590.625 602.75,594.0 601.875,597.5 600.375,601.125 598.25,605.0 595.375,609.0 591.5,613.125 586.75,617.375 580.875,621.625 573.75,625.75 565.5,629.875 556.0,633.625 545.25,637.0 533.625,639.75 521.25,641.875 508.625,643.25 496.0,643.625 483.875,643.25 472.625,642.125 462.75,640.25 454.25,637.875 447.375,635.125"/>
    <polyline points="442.0,632.0 438.0,628.75 435.375,625.5 433.75,622.125 433.0,618.875 433.0,615.625 433.5,612.5 434.375,609.25 436.875,603.125 444.125,588.375 447.875,579.875 451.625,569.125 453.75,559.375"/>
    <polyline points="454.125,557.0 454.5,552.625 454.5,546.25 453.375,538.625 451.75,533.25 449.625,528.25 446.875,523.5 444.75,520.5 438.25,513.0"/>
    <polyline points="436.75,511.5 430.25,505.625 424.625,501.125 396.5,480.0 388.125,473.125 379.25,464.875"/>
    <polyline points="376.25,461.625 370.25,454.625 364.375,446.125 358.875,435.75 356.375,429.75 354.0,422.875 352.0,415.125 350.5,406.375 349.5,396.375 349.125,384.875 349.75,371.75 351.5,356.5 354.875,339.0 360.25,319.0 368.0,296.375 378.75,271.0 393.375,243.5 412.125,214.625 435.375,186.125 463.25,160.625 494.5,141.375 527.75,131.5 560.375,133.375"/>
    <polyline points="590.25,147.625 615.125,172.375 634.375,204.375 648.0,239.875 656.75,275.5 661.625,308.75 663.875,338.25 664.25,363.5 663.25,384.5 661.5,401.625 659.125,415.25 656.25,425.875 653.0,434.125 649.5,440.25 645.75,444.875 641.75,448.25 637.5,450.625 633.125,452.125 628.5,453.25 619.0,454.375 595.625,455.75"/>
    <polyline points="591.25,456.125 579.375,458.125 572.625,460.0 566.625,462.25 559.0,466.125 554.875,468.875 549.625,473.25 544.375,479.125 542.25,482.0 539.0,487.5"/>
    <polyline points="538.375,488.75 536.125,493.625 534.0,500.875 533.5,504.5 533.5,507.625 534.25,511.875"/>
    <polyline points="534.5,512.5 535.5,515.0 538.75,519.625 543.5,524.125 547.25,527.0"/>
    <polyline points="548.125,527.625 553.625,531.5 574.0,544.625 578.625,548.0"/>
    <polyline points="580.25,549.125 587.125,554.25 592.375,558.75 597.625,563.875 602.625,569.875 604.125,572.125 606.875,577.0 608.0,579.625 609.5,585.5 609.875,588.625 609.875,592.125 609.375,595.625 608.375,599.5 606.625,603.5 604.125,607.75"/>
    <polyline points="600.625,612.25 596.25,616.875 590.5,621.5 583.5,626.25 575.0,631.0 565.0,635.375 553.5,639.5 540.625,643.0 526.75,645.75 512.25,647.625 497.625,648.5 483.375,648.375 470.125,647.25 458.25,645.25 448.25,642.75 440.0,639.625 433.75,636.25 429.125,632.75 426.125,629.25 424.375,625.875 423.625,622.5 423.625,619.125 424.25,616.0 425.25,612.875 428.0,606.875"/>
    <polyline points="429.5,604.0 434.25,595.375 438.25,587.0 440.5,581.625 443.625,571.375 444.875,564.25 445.25,557.5 444.5,549.375 443.0,543.75"/>
    <polyline points="442.375,542.0 441.0,538.5 437.125,532.0 434.75,529.0 429.125,523.375 424.125,519.25 418.375,515.5 412.0,511.75 402.125,507.25"/>
    <polyline points="399.5,506.125 387.75,502.125 381.25,500.375 374.375,498.875 366.875,497.75 358.75,497.125 350.0,497.125 345.375,497.5 335.5,499.25 330.25,500.75 318.875,505.5 312.75,509.0 306.25,513.5 299.5,519.25 292.25,526.5 284.625,535.625"/>
    <polyline points="276.625,547.0 268.25,561.375 259.5,579.0 250.75,601.0 242.25,627.75 234.625,660.0 228.875,698.125 226.25,741.5 228.625,788.625 238.125,835.75 256.125,877.625 283.125,908.375 317.375,923.0 355.75,920.125 394.0,901.875 428.875,873.5 458.375,840.5 481.75,807.125 499.25,776.375 511.75,749.75 519.875,727.5 524.375,709.375 526.0,695.125 525.125,683.875 522.375,675.125 518.0,668.25"/>
    <polyline points="512.5,662.875 506.25,658.375 499.375,654.625 478.875,644.75 472.875,641.625 467.625,638.375 463.125,635.125 459.5,631.75 456.75,628.375 454.625,625.0 453.375,621.625 452.625,618.25 452.375,614.875 453.125,608.375 455.0,601.875 457.5,595.625 464.375,580.75"/>
    <polyline points="465.75,577.875 471.5,564.625 476.875,549.0 478.625,541.375 479.375,536.375 479.625,527.5"/>
    <polyline points="479.5,526.125 478.375,519.875 476.75,515.25 475.25,512.0 471.25,505.75 465.0,498.5"/>
    <polyline points="464.0,497.375 442.0,475.0 435.75,467.5 429.5,458.375"/>
    <polyline points="427.875,455.75 421.875,443.75 418.125,432.5 416.25,423.625 415.125,413.375 414.875,407.625 415.0,401.5 416.25,388.0 417.625,380.5 419.5,372.5 422.0,364.0 425.125,355.25 429.0,346.0 433.625,336.5 439.25,327.0 445.75,317.5 453.125,308.375 461.375,300.0"/>
    <polyline points="470.5,292.5 480.25,286.375 490.5,281.875 500.875,279.5 511.25,279.25 521.375,281.375 530.875,285.75 539.625,292.25 547.25,300.5 554.0,310.25 559.5,321.125 564.0,332.625 567.5,344.5 570.125,356.25 571.875,367.75 573.0,378.75 573.625,389.25 573.75,399.125 573.0,416.625 570.5,437.75 567.375,453.875"/>
    <polyline points="566.25,458.375 558.125,487.875 556.5,495.25 555.75,501.375 555.75,505.375 556.5,510.125"/>
    <polyline points="556.875,511.25 559.0,516.625 560.875,519.625 563.125,522.5 568.75,528.375 578.875,536.5"/>
    <polyline points="580.375,537.625 599.5,551.625 609.625,560.0 615.75,566.125 619.625,570.75 623.25,576.0 626.25,582.0"/>
    <polyline points="627.375,585.375 628.125,588.875 628.5,592.75 628.375,596.875 627.625,601.375 626.0,606.25 623.375,611.375 619.5,616.875 614.125,622.625 607.125,628.625 598.0,634.875 586.625,641.0 572.75,646.875 556.625,652.125 538.25,656.625 518.125,659.875 497.375,661.5 476.875,661.625 457.625,660.25 440.625,657.625 426.625,654.0 415.625,649.875 407.625,645.625 402.375,641.5 399.25,637.75 397.75,634.125"/>
    <polyline points="397.5,631.0 398.125,628.125 399.375,625.625 401.0,623.25 413.375,608.75 418.75,600.5 421.625,594.375 423.625,588.25 424.75,582.5 425.0,578.75"/>
    <polyline points="425.0,576.875 424.25,570.125 423.375,567.0 421.5,562.75 418.875,559.125 416.75,556.875 411.5,553.375 408.375,552.125 403.25,550.875 399.375,550.625"/>
    <polyline points="397.25,550.625 392.875,551.125 388.125,552.25 385.75,553.125 380.5,555.5 374.875,558.875 369.125,563.5 363.0,569.625 356.75,577.625 353.75,582.375 347.625,593.625 344.75,600.25 342.0,607.5 339.5,615.375 337.25,624.0 335.5,633.25 334.125,643.0 333.5,653.25"/>
    <polyline points="333.625,663.75 334.5,674.25 336.375,684.5 339.375,694.25 343.375,703.125 348.625,710.75 354.75,716.875 362.0,721.0 369.875,723.25 378.375,723.5 387.375,721.75 396.375,718.125 405.25,712.875 414.0,706.375 422.25,698.875 430.0,690.75 437.25,682.125 443.875,673.5 450.0,664.75 455.5,656.25 465.0,640.125 472.75,625.75 479.125,613.0"/>
    <polyline points="481.875,607.375 496.375,577.625 503.75,564.25 508.75,556.625 511.125,553.5 513.25,550.875 518.5,545.75"/>
    <polyline points="519.625,545.0 524.5,541.875 527.5,540.625 530.5,539.875 534.5,539.375 537.625,539.375 543.0,540.125 545.375,540.75"/>
    <polyline points="546.5,541.0 555.125,544.125 564.75,549.0 573.875,554.75 581.625,561.125"/>
    <polyline points="583.25,562.5 589.125,569.125 592.875,575.125 594.75,579.625 595.875,584.625 596.0,590.25 594.625,596.5 593.125,599.875 591.125,603.25 588.5,606.875 585.125,610.5 580.875,614.25 575.875,618.0 569.75,621.75 562.625,625.25 554.625,628.625 545.75,631.625"/>
    <polyline points="536.0,634.125 525.625,636.25 514.875,637.625 504.125,638.375 493.625,638.375 483.75,637.75 474.75,636.375 466.75,634.625 460.0,632.375 454.5,629.75 450.25,626.875 447.125,624.0 444.875,620.875 443.625,617.75 443.0,614.625 443.0,611.5 444.25,605.25 445.25,602.25 447.75,596.125 454.625,581.5"/>
    <polyline points="455.875,578.625 458.25,573.125 461.875,562.875 464.625,551.25 465.5,541.125 465.375,537.375 464.75,532.125 463.0,525.75"/>
    <polyline points="462.5,524.25 460.625,519.75 459.0,516.875 454.25,509.875 447.0,501.5 432.875,487.75"/>
    <polyline points="431.0,486.0 417.375,471.875 413.25,466.875 409.125,461.25 407.0,458.25 403.0,451.375 401.0,447.625 397.25,439.125 394.0,429.125 391.625,417.125 390.375,402.75 391.0,385.375"/>
    <polyline points="392.25,375.25 394.375,364.25 397.375,352.25 401.5,339.25 407.0,325.25 413.875,310.375 422.5,295.0 432.875,279.5 445.25,264.375 459.25,250.375 474.875,238.625 491.75,229.875 509.125,225.0 526.5,224.875 543.125,229.375 558.25,238.625 571.375,251.875 582.375,268.125 591.0,286.375 597.5,305.5 602.0,324.625 605.0,343.0 606.75,360.375 607.375,376.125 607.375,390.5 606.75,403.125"/>
    <polyline points="605.75,414.375 603.125,432.875 599.875,446.875 596.625,457.625 592.0,469.375 580.125,492.0 577.75,498.625"/>
    <polyline points="577.5,499.75 577.125,503.375 577.5,507.875 579.375,513.375 580.5,515.5 584.5,520.75 587.5,523.875 591.125,527.0"/>
    <polyline points="592.5,528.125 596.75,531.375 605.25,537.0 646.5,561.25"/>
    <polyline points="649.5,563.25 655.625,567.375 665.0,574.75 668.0,577.5 673.875,583.875 676.5,587.5 678.875,591.5 680.875,595.875 682.25,600.75 682.875,606.25 682.5,612.5 680.75,619.375 677.0,627.25 670.75,636.0 661.0,645.75 646.75,656.375 627.0,667.375 600.625,678.375 567.125,688.0 527.125,695.25 483.125,698.625 439.125,697.625"/>
    <polyline points="399.625,692.5 368.25,685.0 346.125,676.875 332.5,670.0 322.375,663.125 326.375,669.0 336.5,685.5 340.875,691.5 345.75,697.125 351.125,702.0 357.125,706.0 363.625,708.75 370.625,710.125 377.875,710.25 385.5,708.75 393.125,706.0 400.75,702.0 408.25,697.0 415.5,691.0 422.375,684.375 428.875,677.375"/>
    <polyline points="435.0,670.125 440.625,662.625 450.5,647.875 454.875,640.75 462.5,627.25 474.25,604.25 490.625,569.125 497.75,554.75"/>
    <polyline points="498.75,552.875 502.375,546.125 507.625,537.75 512.0,532.125 515.875,528.5"/>
    <polyline points="516.375,528.125 519.0,526.625 522.125,525.625 525.75,525.375 529.875,526.0"/>
    <polyline points="530.5,526.125 535.125,527.5 538.875,529.0 550.875,534.625"/>
    <polyline points="551.875,535.25 561.625,540.5 570.0,545.625 582.75,554.625 587.75,558.875"/>
    <polyline points="589.5,560.5 596.0,567.5 599.0,571.5 601.625,576.125 603.625,581.25 604.75,587.0 604.5,593.5 603.625,597.0 602.25,600.625 600.25,604.5 597.5,608.625 593.75,612.875 589.125,617.125 583.25,621.5 576.25,625.875 567.875,630.0 558.25,634.0 547.375,637.5"/>
    <polyline points="535.5,640.5 522.75,642.75 509.625,644.25 496.5,644.875 483.875,644.5 472.25,643.375 461.875,641.5 453.0,639.125 445.75,636.25 440.125,633.125 436.0,629.875 433.25,626.5 431.625,623.125 430.875,619.75 430.75,616.5 431.25,613.375 433.375,607.125 444.625,583.625"/>
    <polyline points="445.875,580.875 448.75,572.75 450.75,565.25 451.625,560.375 452.25,553.625 452.125,547.375 450.875,539.625 449.125,534.25 445.875,527.75"/>
    <polyline points="444.875,526.125 440.375,520.0 436.25,515.5 428.0,508.25 416.0,499.375 398.75,488.0"/>
    <polyline points="395.875,486.25 384.125,478.25 374.625,471.25 364.625,462.875 357.75,456.125 354.375,452.25 347.625,443.375 344.375,438.125 341.25,432.25 338.375,425.5 335.75,417.875 333.625,409.125 331.875,398.875 331.0,387.0 331.0,373.25 332.25,357.0 335.25,337.875"/>
    <polyline points="340.5,315.5 348.75,289.375 360.75,259.5 377.375,226.125 399.75,190.375 428.375,154.5 463.25,122.25 502.875,98.75 544.75,89.0 585.0,96.25 620.125,120.125 647.5,156.75 666.875,200.375 679.125,245.25 685.875,287.25 688.875,324.0 689.25,354.625 688.0,379.25 685.75,398.375 682.625,412.75 678.75,423.125 674.375,430.5 669.25,435.25 663.625,438.125 657.375,439.5 650.625,439.875"/>
    <polyline points="643.375,439.5 635.875,438.875 612.375,436.0 597.375,434.875 590.25,434.625 577.375,434.875 566.375,436.125 557.125,438.0 553.0,439.25 546.0,442.0 543.0,443.5 537.625,446.75 533.25,450.0 526.25,456.75"/>
    <polyline points="524.75,458.375 518.625,465.875 510.5,476.625 506.0,481.5 502.5,484.375"/>
    <polyline points="501.75,484.75 499.75,486.0 496.375,487.25 492.875,487.75 487.625,487.25 483.625,486.0"/>
    <polyline points="482.875,485.75 474.625,481.75 470.625,479.125 461.75,472.125 457.0,467.5"/>
    <polyline points="455.875,466.25 450.875,460.375 444.875,451.125 441.5,444.375 438.5,436.5 436.875,430.5 435.625,423.75 435.25,420.125 434.875,407.875 435.75,398.625"/>
    <polyline points="436.5,393.75 439.0,383.25 442.875,372.125 448.25,360.625 455.375,349.375 459.625,344.0 464.25,339.0 469.375,334.375 474.75,330.375 480.375,327.0 486.25,324.625 492.25,323.125 498.25,322.625 504.25,323.125 510.0,324.75 515.5,327.5 520.625,331.125 525.25,335.75 529.5,341.0 533.25,347.0 536.375,353.5 539.125,360.375"/>
    <polyline points="541.375,367.375 544.5,381.75 546.0,395.625 546.5,408.625 546.125,420.5 544.5,435.875 541.5,452.5 537.5,467.875 533.875,479.125"/>
    <polyline points="533.25,481.125 529.0,494.125 527.375,500.125 526.75,503.375 526.5,507.375"/>
    <polyline points="526.5,508.0 526.75,510.625 527.875,513.875 529.125,516.0 532.0,519.125"/>
    <polyline points="532.5,519.625 539.625,525.0 549.375,531.0"/>
    <polyline points="550.375,531.625 569.875,543.5 584.125,553.625"/>
    <polyline points="585.875,555.0 591.0,559.375 597.875,566.5 601.0,570.5 603.75,575.125 605.0,577.625 606.875,583.125 607.625,589.25 607.5,592.625 606.875,596.125 605.75,599.875 603.875,603.875 601.25,608.0 597.75,612.375 593.25,616.875 587.5,621.375 580.5,626.0"/>
    <polyline points="572.125,630.375 562.25,634.625 551.125,638.5 538.75,641.75 525.375,644.375 511.5,646.125 497.5,646.875 484.0,646.625 471.5,645.625 460.25,643.75 450.625,641.25 442.875,638.25 436.75,635.0 432.375,631.625 429.375,628.125 427.625,624.75 426.875,621.375 426.875,618.125 427.375,614.875 428.25,611.75 429.5,608.75 437.0,594.0"/>
    <polyline points="438.5,591.125 442.25,582.75 445.125,574.875 447.5,564.875 448.125,560.125 448.25,553.625 447.75,547.5 446.5,541.75 443.75,534.75"/>
    <polyline points="442.875,533.125 439.875,528.375 437.5,525.375 433.375,520.875 427.0,515.25 419.375,509.875 412.875,505.75 397.625,497.75"/>
    <polyline points="394.75,496.375 375.75,488.25 360.875,482.75 344.125,477.375 330.0,473.75 325.0,472.625 314.375,470.875 302.875,469.875 296.75,469.75 283.75,470.875"/>
    <polyline points="276.625,472.375 269.25,474.75 261.25,478.375 252.75,483.375 243.5,490.5 233.625,500.25 222.75,513.625 210.875,531.75 198.125,556.25 184.375,589.125 170.5,632.875 157.625,690.0 148.5,762.125 148.125,847.75 162.875,938.625 199.0,1018.25 206.0699,1024.0"/>
    <polyline points="408.5996,1024.0 462.75,971.625 507.5,908.75 536.5,853.25 551.875,809.25 555.875,777.0 550.5,754.5 537.25,739.25"/>
    <polyline points="517.5,729.0 493.0,721.25 439.25,707.75 414.875,700.5 394.625,693.0 379.25,685.625 368.875,679.125 362.5,673.75 359.5,669.625 358.75,666.625 359.75,664.625 361.625,663.5 364.375,662.875 367.375,662.625 381.625,662.125 385.5,661.5 389.25,660.5 397.0,657.5 404.5,653.0 408.125,650.25"/>
    <polyline points="411.75,647.25 418.5,640.5 427.75,629.0 435.375,617.0 441.75,605.25 446.625,594.0 450.5,583.625 454.0,571.25 455.875,560.5"/>
    <polyline points="456.125,558.0 456.5,553.25 456.25,544.625 455.375,538.75 453.875,533.375 450.125,525.0 444.875,517.375 441.0,512.875"/>
    <polyline points="439.5,511.5 435.0,507.0 429.875,502.5 398.625,477.5 390.625,470.125 385.0,464.375"/>
    <polyline points="382.25,461.125 376.625,454.0 371.125,445.5 366.125,435.25 363.75,429.25 361.75,422.5 360.0,415.0 358.625,406.375 357.75,396.75 357.625,385.75 358.375,373.25 360.125,358.875 363.375,342.625 368.25,324.25 375.375,303.5 385.25,280.625 398.125,255.875 414.75,230.125 435.125,204.625 459.375,181.5 486.75,163.0 516.125,152.125 545.625,150.75"/>
    <polyline points="573.25,159.75 597.375,178.5 616.875,204.5 631.375,235.125 641.375,267.125 647.75,298.375 651.125,327.0 652.5,352.5 652.5,374.25 651.375,392.625 649.625,407.625 647.375,419.875 644.75,429.75 642.0,437.5 639.0,443.625 635.75,448.5 632.5,452.125 629.0,455.0 625.5,457.125 621.875,458.75 618.125,460.0 610.75,461.875 599.875,463.875"/>
    <polyline points="596.375,464.5 589.875,465.75 581.0,468.25 573.5,471.375 567.25,474.875 562.25,478.625 558.25,482.625 555.125,486.75 551.625,493.25"/>
    <polyline points="551.125,494.5 550.0,498.25 549.25,502.875 549.25,506.125 549.625,509.25 550.375,512.125 551.875,515.875 554.75,520.375"/>
    <polyline points="555.375,521.25 560.25,526.375 564.25,530.0 571.5,535.625 585.125,545.375"/>
    <polyline points="586.875,546.625 597.875,555.125 607.5,564.0 611.25,568.25 614.75,573.0 617.75,578.375 620.0,584.5 620.75,587.875 621.0,591.5 620.875,595.375 620.125,599.5 618.625,604.0 616.25,608.75"/>
    <polyline points="612.875,613.75 608.25,619.0 602.125,624.5 594.25,630.0 584.5,635.625 572.875,641.0 559.125,645.875 543.5,650.125 526.5,653.5 508.375,655.625 490.25,656.5 472.75,656.0 456.625,654.25 442.75,651.625 431.375,648.25 422.5,644.5 416.125,640.5 411.875,636.625 409.25,633.0 408.125,629.5 408.0,626.25 408.625,623.25 411.25,617.625 414.625,612.375"/>
    <polyline points="416.375,609.875 421.25,602.625 425.375,595.375 429.25,586.0 430.5,581.5 431.5,574.875 431.75,568.875 430.75,561.375 429.0,556.375"/>
    <polyline points="428.375,554.75 424.625,549.0 421.0,545.25 416.625,542.0 409.625,538.625 403.5,536.875 396.5,536.0 388.625,536.375 382.875,537.375"/>
    <polyline points="379.75,538.25 376.625,539.25 369.875,542.25 366.375,544.25 359.0,549.375 355.0,552.75 351.125,556.625 347.0,561.125 342.875,566.375 338.625,572.5 334.375,579.5 330.125,587.375 326.0,596.5 322.125,606.75 318.375,618.125 315.125,630.875 312.5,644.875 310.75,659.875 310.0,675.875 310.625,692.375 312.875,708.75 317.0,724.5 323.0,738.875 331.125,751.0"/>
    <polyline points="341.25,760.0 352.875,765.625 365.75,767.375 379.375,765.25 393.25,759.875 406.75,751.625 419.625,741.25 431.5,729.375 442.25,716.875 451.875,704.125 460.375,691.5 467.75,679.5 474.25,668.25 484.75,648.25 507.625,598.75 512.625,588.875"/>
    <polyline points="514.125,586.125 518.125,579.625 520.75,576.25 524.375,572.375 526.875,570.375 530.375,568.125 533.875,566.625 537.375,565.75 539.75,565.5 544.375,565.625"/>
    <polyline points="545.625,565.875 550.125,567.125 553.5,568.625 557.625,571.375 561.125,575.125 563.125,578.5 564.125,581.0 564.625,583.875 564.25,588.375"/>
    <polyline points="563.875,590.0 561.375,595.125 558.5,598.625 554.625,602.125 549.625,605.375 543.5,608.375 540.125,609.75 532.75,612.0 524.875,613.5 517.0,614.125 513.125,614.125 505.875,613.5 502.625,612.75 497.0,610.875 494.625,609.625"/>
    <polyline points="492.625,608.25 490.875,606.75 489.625,605.125 488.5,603.5 487.75,601.625 487.125,597.875 487.125,595.875 488.25,589.75 490.625,583.75 494.75,575.875 498.25,570.375 504.125,562.25"/>
    <polyline points="505.375,560.75 509.875,555.5 513.25,552.125 519.625,547.0 524.875,544.0 530.125,542.25 532.125,541.875"/>
    <polyline points="533.25,541.75 538.625,541.625 544.375,542.375 546.75,543.0 551.75,544.5 557.0,546.625 564.0,550.25"/>
    <polyline points="565.5,551.0 573.0,555.875 579.125,560.75 583.625,565.125 586.5,568.375 589.0,572.125 592.25,578.375 593.5,583.125 593.875,588.375 593.0,594.25"/>
    <polyline points="591.875,597.375 590.375,600.75 588.125,604.125 585.375,607.625 581.75,611.125 577.375,614.75 572.125,618.375 566.0,621.875 559.0,625.125 551.0,628.25 542.25,631.0 532.875,633.375 522.875,635.125 512.75,636.25 502.5,636.75 492.75,636.625 483.5,635.875 475.125,634.625 467.75,632.75 461.625,630.5 456.5,628.0 452.625,625.25 449.625,622.25 447.75,619.25 446.5,616.25 446.0,613.125"/>
    <polyline points="446.0,610.125 447.25,603.875 448.25,600.875 461.125,572.125 464.875,561.875 467.75,550.5 468.625,544.25"/>
    <polyline points="468.875,542.375 469.0,536.875 468.625,531.75 467.75,527.0 466.375,522.5 464.625,518.375 461.625,512.875 455.75,505.0"/>
    <polyline points="454.625,503.75 449.625,498.25 428.875,477.375 421.375,468.625 413.75,457.875"/>
    <polyline points="411.875,454.75 408.125,447.875 406.375,444.0 401.75,430.625 399.5,419.625 398.25,406.625 398.625,391.125 399.5,382.375 401.125,372.75 403.375,362.375 406.625,351.125 410.875,339.125 416.375,326.5 423.125,313.25 431.25,299.75 441.0,286.375 452.125,273.75 464.625,262.25 478.5,252.75 493.125,245.875"/>
    <polyline points="508.125,242.25 523.125,242.5 537.375,246.5 550.375,254.375 562.0,265.375 571.75,279.0 579.625,294.5 585.875,310.875 590.375,327.625 593.5,343.875 595.375,359.5 596.5,374.125 596.75,387.5 596.5,399.625 594.875,420.25 592.375,436.625 589.625,449.5 586.75,459.625 581.625,474.25"/>
    <polyline points="580.5,477.0 575.375,490.0 574.25,493.375 572.875,499.375 572.625,502.0 572.875,507.0 574.5,512.75 575.625,515.0"/>
    <polyline points="576.25,516.125 580.125,521.5 583.125,524.75 588.0,529.0 595.375,534.625 610.375,544.5"/>
    <polyline points="612.5,545.75 629.25,556.625 642.5,566.625 648.0,571.5 650.625,574.25 655.625,580.25 657.875,583.625 659.875,587.25 661.625,591.25 662.75,595.75 663.375,600.625 663.25,606.0 662.0,612.0 659.25,618.625"/>
    <polyline points="654.75,625.875 647.875,633.875 638.0,642.5 624.25,651.625 606.125,660.875 583.125,669.625 555.0,677.25 522.625,682.875 487.75,685.625 453.125,685.125 421.625,681.625 395.375,676.125 375.75,669.75 362.375,663.625 354.375,658.5 350.375,654.625 349.0,652.375 349.5,651.25 351.0,651.25 353.25,652.125 364.375,659.75 370.875,663.5"/>
    <polyline points="374.375,664.875 378.0,665.875 381.875,666.375 385.75,666.375 389.75,665.75 393.875,664.625 398.0,663.0 406.25,658.125 410.25,655.125 414.125,651.625 417.875,648.0 425.0,639.75 428.375,635.5 434.375,626.75 439.75,617.875 444.375,609.25 448.375,600.875 453.125,589.375"/>
    <polyline points="454.5,585.75 457.875,575.625 460.25,566.625 461.875,558.5 462.75,551.25 463.0,542.625 462.5,536.875 461.375,531.625 459.875,526.625"/>
    <polyline points="459.25,525.0 454.375,516.0 447.625,507.375 440.625,500.125 426.75,487.25"/>
    <polyline points="424.75,485.5 416.5,477.5 410.0,470.5 405.5,465.125 401.0,459.0 396.625,452.125 392.375,444.0 388.5,434.375 385.375,422.875 384.125,416.25 383.25,408.875 382.75,400.75 382.875,391.75 383.5,381.75 384.875,370.625"/>
    <polyline points="387.375,358.375 390.875,344.875 395.75,330.0 402.125,314.125 410.375,297.125 420.75,279.625 433.25,261.875 448.0,245.0 464.875,229.875 483.375,217.625 503.125,209.75 523.25,207.125 542.625,210.25 560.5,219.25 576.125,233.25 589.125,251.375 599.375,272.0 606.875,293.75 612.125,315.5 615.5,336.375 617.375,355.75 618.0,373.25 617.75,388.875 617.0,402.625 615.875,414.5 614.375,424.75"/>
    <polyline points="612.625,433.625 610.875,441.125 607.125,453.125 605.25,457.875 601.5,465.625 596.25,473.875 593.125,478.0 583.375,489.625 581.0,493.25 579.25,496.75"/>
    <polyline points="578.875,497.875 578.0,501.125 577.75,504.5 577.875,506.625 579.375,511.875 581.0,515.125 583.125,518.25 585.75,521.375 589.0,524.5"/>
    <polyline points="590.125,525.5 596.875,530.75 605.25,536.375 615.25,542.375 640.5,556.625"/>
    <polyline points="643.5,558.375 652.625,563.875 658.875,568.125 662.125,570.375 668.5,575.5 674.625,581.375 677.625,584.75 680.375,588.375 682.75,592.375 684.75,596.875 686.25,601.875 686.875,607.5 686.5,613.875 684.5,621.0 680.5,629.125 673.875,638.25 663.375,648.375 648.125,659.375 626.875,670.875 598.375,682.125 562.375,691.875"/>
    <polyline points="519.625,698.75 473.25,701.5 427.75,699.375 388.125,693.25 357.5,685.0 336.75,676.75 324.625,670.25 316.75,664.875 329.0,687.25 333.25,694.125 338.125,701.0 343.625,707.125 349.875,712.375 356.75,716.375 364.25,718.75 372.25,719.625 380.5,718.75 389.0,716.25 397.625,712.25 405.875,707.0 414.0,700.625"/>
    <polyline points="421.75,693.5 428.875,685.875 435.625,677.875 441.875,669.625 452.75,653.5 457.375,645.875 465.625,631.375 472.375,618.375 492.25,577.375 496.75,568.5 500.75,561.375"/>
    <polyline points="501.875,559.25 506.375,552.125 512.25,544.375 515.875,540.75 519.25,538.125 521.75,536.625 525.125,535.25"/>
    <polyline points="525.875,535.0 530.0,534.125 534.375,534.125 541.0,535.25 549.375,538.125"/>
    <polyline points="550.625,538.625 564.875,545.75 570.75,549.375 580.25,556.125 586.75,561.875"/>
    <polyline points="588.25,563.5 592.875,568.75 596.875,575.0 598.875,579.75 600.125,585.125 600.375,588.0 599.75,594.25 598.75,597.625 597.125,601.25 595.0,604.875 592.0,608.75 588.25,612.75 583.5,616.75 577.875,620.75 571.0,624.75 563.0,628.625 553.875,632.125 543.75,635.25 532.75,637.875"/>
    <polyline points="521.25,639.875 509.25,641.125 497.5,641.625 486.125,641.25 475.625,640.125 466.25,638.5 458.125,636.25 451.5,633.625 446.25,630.625 442.375,627.625 439.625,624.375 438.0,621.125 437.125,617.875 437.0,614.75 437.375,611.5 438.125,608.375 440.375,602.125 451.375,578.75"/>
    <polyline points="452.375,576.0 455.25,568.0 456.625,563.0 458.375,553.625 458.75,549.25 458.625,541.25 457.375,533.875 455.75,528.875 453.5,524.0"/>
    <polyline points="452.75,522.5 449.875,518.0 446.5,513.5 441.125,507.625 433.25,500.125 413.25,483.0"/>
    <polyline points="410.875,480.875 403.75,474.125 396.375,466.25 391.25,460.125 386.25,452.875 383.875,448.875 381.5,444.5 377.0,434.375 373.375,422.125 371.875,414.875 370.875,406.75 370.25,397.75 370.25,387.625 371.0,376.125 372.75,363.375 375.625,349.0 380.0,332.875 386.125,315.125"/>
    <polyline points="394.375,295.75 405.125,275.0 418.625,253.5 435.0,232.125 454.375,212.125 476.375,195.5 500.25,183.75 524.875,178.75 549.0,181.5 571.0,192.125 590.0,209.625 605.375,232.25 617.0,258.0 625.25,284.625 630.625,310.75 633.75,335.125 635.125,357.125 635.25,376.5 634.5,393.25 633.125,407.375 631.5,419.375 629.375,429.25 627.25,437.5 624.875,444.375 622.5,449.875 620.0,454.5"/>
    <polyline points="617.5,458.375 615.0,461.5 612.375,464.125 609.875,466.375 605.0,469.875 587.5,479.0 584.0,481.0 579.5,484.125 574.75,488.625 572.125,492.0"/>
    <polyline points="571.375,493.125 569.75,496.625 568.5,501.25 568.375,505.875 568.625,508.125 569.125,510.375 570.875,514.625 572.0,516.75 575.125,521.0"/>
    <polyline points="576.0,522.0 581.125,527.375 587.75,532.75 597.5,539.875 616.0,552.375"/>
    <polyline points="618.375,554.0 630.5,563.375 635.375,567.875 640.25,573.0 644.75,578.875 646.75,582.125 648.5,585.625 649.875,589.5 650.875,593.75 651.375,598.25 651.125,603.25 649.875,608.875 647.5,614.875 643.5,621.5 637.5,628.625 629.125,636.25 617.75,644.25 602.875,652.375 584.0,660.25"/>
    <polyline points="561.25,667.25 534.875,672.875 505.875,676.5 476.125,677.625 447.625,676.125 422.5,672.5 402.0,667.625 386.75,662.0 376.375,656.75 370.0,652.0 366.75,648.25 365.75,645.5 366.125,643.625 367.5,642.375 369.375,641.75 374.0,641.625 381.5,642.375 386.5,642.5 391.625,642.0 396.625,640.5"/>
    <polyline points="399.25,639.375 406.75,634.625 411.5,630.375 418.0,622.875 423.875,614.5 428.625,605.75 431.375,599.875 433.625,594.0 436.875,583.0 438.25,575.375"/>
    <polyline points="438.5,573.0 438.875,566.0 438.125,557.625 436.75,552.0 434.625,546.75 431.875,542.0 428.375,537.75 425.625,535.0 419.25,530.125"/>
    <polyline points="417.5,529.125 413.625,527.0 409.375,525.125 404.875,523.5 397.25,521.625 391.625,520.875 385.625,520.5 379.125,520.625 375.75,521.0 364.5,523.5 356.25,526.75 351.875,529.0 347.375,531.875 342.625,535.25 337.75,539.25"/>
    <polyline points="332.625,544.125 327.375,550.0 321.875,557.0 316.25,565.25 310.625,575.0 304.875,586.375 299.25,599.875 293.875,615.375 289.0,633.125 284.875,653.375 282.0,675.75 280.875,700.125 282.0,725.5 286.125,751.0 293.75,775.0 305.125,795.5 320.0,811.0 338.0,819.875 358.25,821.625 379.25,816.375 400.0,805.5 419.625,790.375 437.25,772.625 452.625,753.75 465.75,735.125 476.625,717.375"/>
    <polyline points="485.625,701.125 492.875,686.5 503.25,662.25 506.875,652.375 511.75,636.75 514.375,625.375 515.75,617.0 516.25,608.125 515.375,595.0 515.625,590.5"/>
    <polyline points="515.875,589.5 516.375,587.5 518.0,583.875 521.0,579.75 525.625,575.875 529.125,573.875 532.75,572.625"/>
    <polyline points="533.75,572.375 537.5,571.75 541.25,571.875 546.625,573.375 548.375,574.25 551.375,576.5 554.125,580.375"/>
    <polyline points="554.5,581.25 555.125,584.125 555.125,586.375 554.25,589.75 552.125,593.375 548.75,596.875 545.625,599.25 542.0,601.375 537.75,603.25 530.625,605.25 525.625,606.125"/>
    <polyline points="523.125,606.375 518.25,606.375 513.75,605.875 509.75,604.75 508.0,604.125 505.0,602.25 503.75,601.25 501.875,599.0 501.25,597.75 500.625,595.0 500.625,590.625 501.875,586.125 504.75,580.25"/>
    <polyline points="505.625,578.75 508.5,574.625 512.75,569.625 518.5,564.375 523.25,561.125 526.875,559.125 530.5,557.625 534.25,556.75"/>
    <polyline points="535.375,556.5 541.75,556.0 546.875,556.625 552.125,558.0 556.0,559.5 560.0,561.5 565.25,565.0 567.75,567.125"/>
    <polyline points="568.875,568.25 573.125,573.5 574.875,576.625 576.25,580.0 576.875,583.75 576.875,587.875 576.625,590.0 575.0,594.625 573.75,597.0 570.125,601.875 567.75,604.375 564.75,606.875 561.375,609.375 553.25,614.125 543.125,618.25"/>
    <polyline points="537.5,620.0 525.25,622.625 512.625,623.875 506.5,624.0 495.125,623.0 490.0,622.0 485.5,620.75 481.5,619.125 478.25,617.375 475.5,615.375 473.375,613.25 471.75,611.0 470.625,608.5 470.0,606.125 469.75,603.625 469.75,601.0 470.75,595.875 472.375,590.625 475.625,583.0"/>
    <polyline points="476.875,580.5 494.875,546.0 499.875,535.625"/>
    <polyline points="500.375,534.5 504.125,526.75 507.5,518.625"/>
    <polyline points="507.625,518.25 508.75,514.625 508.75,512.25 507.25,510.125 503.5,507.5"/>
    <line x1="503.25" x2="495.25" y1="507.375" y2="502.625"/>
    <line x1="494.875" x2="479.375" y1="502.375" y2="492.5"/>
    <polyline points="478.625,492.0 470.25,485.875 463.75,480.625 459.0,476.375 451.375,468.5"/>
    <polyline points="450.125,467.0 443.5,458.25 438.375,449.5 433.75,438.625 431.875,432.125 430.375,424.875 429.25,412.25 429.625,402.5 430.125,397.25 430.875,391.75 432.125,385.875"/>
    <polyline points="433.625,379.875 438.0,367.0 440.875,360.375 444.375,353.75 448.25,347.0 452.75,340.375 457.875,334.125 463.375,328.125 469.5,322.875 475.875,318.25 482.75,314.625 489.75,312.125 496.875,310.75 504.0,310.75 510.875,312.0 517.5,314.75 523.75,318.75 529.5,323.875 534.5,330.0 539.0,336.875 542.75,344.5 546.0,352.5 548.5,360.75 550.5,369.125 552.0,377.375"/>
    <polyline points="553.0,385.5 553.75,393.375 554.0,408.125 553.5,421.25 552.25,432.875 550.75,442.875 547.375,459.25 539.125,488.5"/>
    <polyline points="538.625,490.125 536.75,498.375 536.125,503.75 536.5,509.875 538.25,515.0"/>
    <polyline points="595.875,561.0 601.125,566.5 605.875,573.125 607.25,575.5 609.625,580.875 611.0,586.875 611.0,593.75 610.25,597.5 608.875,601.5 606.875,605.625 603.875,610.125 600.0,614.625 594.875,619.375 588.5,624.25 580.625,629.125 571.25,633.75 560.25,638.125 547.875,642.0 534.125,645.25"/>
    <polyline points="519.5,647.625 504.5,649.125 489.625,649.5 475.375,648.75 462.5,647.125 451.375,644.75 442.0,641.875 434.75,638.5 429.375,635.125 425.625,631.5 423.25,628.0 422.125,624.5 421.75,621.25 422.25,618.0 424.25,611.875 433.5,594.625 438.5,583.75"/>
    <polyline points="439.5,581.125 441.75,573.5 443.125,566.375 443.5,561.875 443.25,553.375 442.125,547.625 439.5,540.5 436.625,535.625 433.25,531.125"/>
    <polyline points="432.0,529.625 426.0,524.125 420.75,520.25 412.5,515.5 403.0,511.25 394.875,508.5 388.875,506.875 379.0,505.0 371.875,504.25"/>
    <polyline points="368.125,504.125 360.125,504.25 351.375,505.375 346.75,506.375 341.875,507.75 336.75,509.625 331.5,512.125 325.875,515.25 320.125,519.125 314.0,524.0 307.5,530.125 300.75,537.75 293.625,547.0 286.25,558.5 278.75,572.5 271.0,589.5 263.375,610.125 256.25,634.75 250.0,663.875 245.625,697.25 244.125,734.5 246.875,774.0 255.25,813.0 270.25,847.875"/>
    <polyline points="292.25,874.125 320.125,888.375 351.625,889.125 384.0,877.5 414.5,856.5 441.625,830.0 464.25,801.75 482.25,774.25 496.125,749.125 506.25,727.125 513.375,708.5 517.875,693.125 520.25,680.5 520.875,670.375 520.25,662.125 518.5,655.625 515.75,650.25 512.5,645.875 508.75,642.25 504.75,639.0 488.875,628.375 482.625,623.375"/>
    <polyline points="480.125,620.875 478.0,618.25 476.375,615.625 474.375,610.375 473.875,605.0 474.375,599.625 475.75,594.375 478.625,586.625 487.125,570.0 493.0,559.875"/>
    <polyline points="494.125,558.0 504.875,540.75 509.0,535.125 513.125,530.5"/>
    <polyline points="513.75,530.0 517.375,527.25 520.375,525.875 523.5,525.25 526.75,525.375"/>
    <polyline points="527.25,525.375 531.5,526.25 537.0,528.125 545.375,531.875"/>
    <polyline points="546.375,532.375 557.25,538.0 566.5,543.375 578.75,551.625"/>
    <polyline points="580.375,552.75 585.375,556.75 590.375,561.25 596.875,568.5 601.125,575.0 604.125,582.75 604.875,588.625 604.75,591.875 604.125,595.375 603.0,599.0 601.375,602.75 598.875,606.75 595.625,610.875 591.375,615.125"/>
    <polyline points="586.125,619.5 579.625,623.875 571.875,628.125 562.875,632.25 552.5,636.0 541.0,639.25 528.625,641.875 515.625,643.75 502.5,644.75 489.625,644.75 477.375,644.0 466.375,642.5 456.75,640.25 448.75,637.625 442.5,634.625 437.625,631.375 434.25,628.0 432.125,624.625 431.0,621.375 430.625,618.0 431.625,611.625 434.0,605.5 436.875,599.375"/>
    <polyline points="438.375,596.5 442.75,587.75 446.375,579.375 449.875,568.875 451.0,563.875 452.0,556.875 452.25,550.375 451.375,542.375 450.0,536.875"/>
    <polyline points="449.375,535.125 447.125,530.125 444.25,525.25 442.0,522.25 436.75,516.25 432.125,511.875 426.875,507.5 421.125,503.125 412.375,497.125"/>
    <polyline points="410.0,495.5 385.375,479.375 375.875,472.5 369.25,467.375 359.0,458.0 348.75,445.875 342.25,435.375 339.25,429.125 336.5,421.875 334.0,413.75"/>
    <polyline points="332.0,404.375 330.625,393.375 330.125,380.5 330.75,365.5 332.75,347.875 336.875,327.125 343.5,302.875 353.375,274.75 367.625,242.875 387.125,207.875 412.75,171.375 444.75,136.5 482.5,107.625 524.125,90.375 566.0,88.875 604.25,105.0 635.875,136.25 659.375,177.625 675.0,222.875 684.25,267.0 688.75,306.75 690.25,340.625 689.75,368.125 687.875,389.875 685.0,406.375 681.5,418.625"/>
    <polyline points="677.375,427.25 672.5,433.0 667.0,436.625 661.0,438.625 654.375,439.375 647.25,439.25 639.625,438.625 615.875,435.625 593.0,433.875 579.625,433.875 573.625,434.25 568.0,434.875 558.25,436.625 550.25,439.125 546.75,440.5 540.625,443.5 535.625,446.875"/>
    <polyline points="533.375,448.5 529.5,451.875 523.25,458.5 510.125,475.375 505.5,480.25"/>
    <polyline points="504.75,481.0 500.5,484.125 497.0,485.75 492.0,486.625 486.625,486.0"/>
    <polyline points="485.875,485.75 482.5,484.75 479.0,483.25 474.25,480.75 469.125,477.375 461.375,471.0"/>
    <polyline points="460.125,469.875 454.125,463.5 449.25,457.25 445.75,451.625 442.375,445.0 439.375,437.375 437.0,428.25 436.375,424.875 435.375,413.625"/>
    <polyline points="435.5,409.5 436.125,400.5 437.75,390.75 440.5,380.25 444.875,369.125 450.75,357.875 454.25,352.25 458.25,346.875 462.75,341.75 467.5,337.125 472.625,332.875 478.125,329.375 483.875,326.625 489.75,324.75 495.625,323.875 501.5,324.0 507.25,325.125 512.75,327.375 517.875,330.5 522.75,334.625 527.125,339.625"/>
    <polyline points="531.0,345.25 534.375,351.375 537.25,358.0 539.625,364.75 541.625,371.75 544.25,385.875 545.5,399.375 545.5,417.75 544.625,428.5 543.375,438.125 540.375,454.0 535.625,471.25"/>
    <polyline points="534.875,473.625 528.0,494.25 526.375,500.125 525.5,504.625"/>
    <polyline points="525.5,505.25 525.5,510.25 526.625,513.75 528.625,516.75"/>
    <polyline points="529.0,517.125 530.75,519.0 535.0,522.375 542.25,527.0"/>
    <polyline points="543.0,527.5 561.375,538.375 571.0,544.5"/>
    <polyline points="572.5,545.5 580.5,551.0 589.0,557.75 595.875,564.5 600.625,570.375 603.5,575.0 605.75,580.0 607.125,585.75 607.25,592.25"/>
    <polyline points="606.75,595.75 605.625,599.5 603.75,603.5 601.25,607.625 597.875,611.875 593.375,616.375 587.75,620.875 580.875,625.5 572.625,629.875 563.0,634.125 552.0,638.0 539.875,641.375 526.625,644.0 512.875,645.75 498.875,646.625 485.375,646.5 472.75,645.5 461.5,643.75 451.75,641.25 443.75,638.375 437.625,635.125 433.125,631.75 430.0,628.375 428.125,625.0 427.25,621.625 427.125,618.375"/>
    <polyline points="427.625,615.125 428.5,612.0 431.125,605.875 440.0,588.5 443.5,580.25 445.375,574.875 446.75,569.75 448.125,562.5 448.625,555.75 448.375,549.5"/>
    <polyline points="448.125,547.5 446.875,541.75 445.0,536.5 443.375,533.125 439.25,526.75 435.375,522.25 431.0,518.0 425.875,513.75 418.125,508.375"/>
    <polyline points="415.875,507.0 406.625,501.5 401.375,498.75 393.0,494.625 377.125,487.5 350.375,477.0 332.375,470.875"/>
    <polyline points="327.5,469.375 312.0,464.875 300.875,462.25 288.875,460.125 275.875,458.875 268.875,458.75 261.625,459.125 254.0,460.375 245.75,462.375 237.125,465.875 227.75,471.0 217.625,478.5 206.5,489.375 194.125,504.75 180.5,526.375 165.5,556.75 149.25,599.0 132.625,657.0 118.375,734.5 111.375,833.125 120.625,946.5"/>
    <polyline points="467.811,1024.0 480.125,1011.375 531.125,933.75 560.375,869.25 571.5,821.625 567.375,789.5 550.25,769.0 522.5,756.125 486.625,746.875 446.75,738.5 407.875,729.25 374.375,719.0 349.0,709.125 332.125,700.625 322.5,694.5 318.25,691.25 317.75,690.5 331.875,704.75 337.5,709.75 343.875,714.25"/>
    <polyline points="350.75,717.875 358.25,720.375 366.25,721.5 374.5,721.125 383.0,719.25 391.625,715.875 400.125,711.125 408.375,705.25 416.25,698.625 423.75,691.25 430.625,683.375 437.125,675.375 448.625,659.25 458.125,643.75 466.0,629.625 475.375,611.25 486.75,587.75"/>
    <polyline points="488.625,583.875 496.375,568.25 503.75,555.25 509.875,546.5 512.625,543.25 517.0,539.125"/>
    <polyline points="517.875,538.5 521.875,535.875 526.75,534.125 530.0,533.625 534.25,533.625 538.875,534.375"/>
    <polyline points="539.75,534.625 542.75,535.375 548.0,537.25 553.875,539.75 564.375,545.25 570.25,548.875"/>
    <polyline points="571.75,549.875 581.375,556.75 587.875,562.625 592.5,567.875 596.625,573.875 599.625,581.125 600.625,586.625 600.375,592.75 599.625,596.125 598.375,599.625"/>
    <polyline points="596.375,603.25 593.875,607.0 590.5,611.0 586.125,615.0 580.875,619.125 574.5,623.125 567.0,627.125 558.375,630.75 548.625,634.125 537.875,637.0 526.5,639.375 514.5,640.875 502.5,641.75 490.875,641.75 479.875,641.0 469.875,639.5 461.125,637.5 453.75,635.0 447.875,632.125 443.5,629.125 440.25,626.0 438.125,622.75 436.875,619.5 436.5,616.25 436.625,613.0 437.25,609.875"/>
    <polyline points="438.25,606.75 439.375,603.625 450.375,580.125 452.625,574.625 455.25,566.75 457.0,559.375 457.75,554.75 458.25,548.25 458.125,542.25"/>
    <polyline points="457.875,540.25 457.375,536.625 455.375,529.75 454.0,526.375 451.5,521.75 448.5,517.25 443.625,511.25 433.0,500.875"/>
    <polyline points="431.25,499.375 408.125,479.75 395.75,467.5 390.625,461.375 385.5,454.5 380.625,446.25 376.0,436.5 373.875,430.75"/>
    <polyline points="372.0,424.5 370.375,417.5 369.125,409.625 368.25,400.875 368.0,391.0 368.5,379.875 369.875,367.25 372.5,353.125 376.375,337.25 382.0,319.625 389.625,300.25 399.75,279.375 412.75,257.25 428.75,235.125 447.875,213.875 469.875,195.375 494.125,181.75 519.5,174.5 544.5,175.375 567.875,184.375 588.25,201.125 605.0,223.5 617.75,249.625 626.875,277.25 632.75,304.375 636.25,329.75"/>
    <polyline points="637.875,352.75 638.25,373.0 637.5,390.5 636.25,405.25 634.5,417.625 632.375,427.875 630.125,436.375 627.75,443.25 625.125,449.0 622.625,453.625 620.0,457.375 614.625,463.0 609.25,467.0 604.0,469.875 589.75,476.125 583.875,479.0"/>
    <polyline points="582.125,480.0 577.375,483.25 573.5,486.625 570.5,490.125 569.0,492.5 566.75,497.25 565.875,500.75 565.625,505.375 566.0,508.75"/>
    <polyline points="566.25,509.875 567.375,513.125 569.625,517.375 571.75,520.5 574.375,523.625 581.125,530.0 589.75,536.625"/>
    <polyline points="591.375,537.875 615.125,554.5 622.0,560.0 629.125,566.25 633.75,571.125 638.125,576.75 640.0,579.75 643.25,586.625"/>
    <polyline points="644.375,590.5 645.125,594.75 645.125,599.375 644.5,604.375 642.75,609.875 639.875,615.875 635.375,622.375 628.875,629.25 620.0,636.625 608.25,644.25 593.125,651.75 574.625,658.875 552.625,665.125 527.75,669.875 500.875,672.75 473.75,673.25 448.125,671.75 425.625,668.25 407.375,663.625 393.625,658.5 384.25,653.5 378.375,649.0 375.375,645.125 374.375,642.125 374.625,639.875 375.875,638.125"/>
    <polyline points="377.625,636.875 379.625,635.875 390.875,633.125 395.25,631.75 399.375,629.875 405.375,625.875 410.75,620.875 414.125,616.875 419.875,608.125 423.25,601.125"/>
    <polyline points="424.25,598.75 426.0,594.125 428.625,582.875 429.125,576.625 429.0,570.75 427.625,563.75 425.75,559.0 424.125,556.125 421.0,552.25"/>
    <polyline points="419.875,551.125 414.375,547.0 407.625,544.125 401.625,542.875 397.125,542.625 392.25,542.875 387.125,543.75 378.5,546.625 372.375,549.875 369.125,552.0 365.75,554.375 362.375,557.25"/>
    <polyline points="358.875,560.625 351.625,568.875 347.875,574.0 344.125,579.75 340.5,586.25 336.875,593.625 333.375,601.875 330.125,611.125 327.125,621.25 324.625,632.375 322.625,644.375 321.5,657.125 321.125,670.375 321.875,683.875 324.0,697.25 327.5,710.125 332.5,721.75 339.125,731.625 347.25,739.25 356.625,744.375 367.0,746.625 378.0,745.875 389.5,742.5 400.875,736.75 411.875,729.0"/>
    <polyline points="422.375,719.875 432.125,709.75 441.0,699.125 449.125,688.375 456.375,677.75 462.75,667.5 473.625,648.625 478.0,640.125 485.625,625.0 502.875,589.375 509.625,577.25 515.5,568.875"/>
    <polyline points="516.875,567.25 519.5,564.25 524.625,559.875 531.0,556.375 533.5,555.5 539.75,554.5 543.625,554.5 548.875,555.375"/>
    <polyline points="550.125,555.625 554.125,556.875 558.25,558.625 565.0,562.625 570.125,566.875 572.5,569.375 575.75,573.75 577.5,577.0 578.75,580.625 579.125,582.625"/>
    <polyline points="579.375,584.625 579.375,586.75 578.75,591.375 577.875,593.75 575.375,598.75 571.125,604.0 568.25,606.625 561.0,611.875 556.625,614.375 551.625,616.75 546.125,618.875 540.25,620.875 533.875,622.625 527.375,624.0 520.625,625.0 513.75,625.625 500.625,625.625 494.5,625.0 483.875,622.75 479.5,621.125"/>
    <polyline points="475.875,619.25 472.875,617.25 470.5,615.0 468.625,612.625 467.375,610.125 466.375,605.0 466.75,599.625 468.125,594.25 472.5,583.625 485.375,557.875"/>
    <polyline points="486.25,555.875 490.5,546.875 495.125,535.375 497.0,529.875 498.5,523.625"/>
    <polyline points="498.625,522.875 499.0,520.0 498.875,515.375 498.0,512.125 496.625,509.5"/>
    <polyline points="496.375,509.125 494.125,506.25 492.125,504.25 485.0,498.5"/>
    <polyline points="484.375,498.0 469.125,486.5 461.375,479.875"/>
    <polyline points="460.25,478.75 452.625,471.375 450.0,468.375 444.625,461.625 440.625,455.625 436.75,448.625 434.375,443.25 431.25,433.875 429.625,426.75"/>
    <polyline points="429.0,422.875 428.5,418.625 428.125,409.625 428.625,399.375 430.375,388.0 431.75,381.875 433.625,375.5 435.875,368.875 438.625,362.125 441.875,355.25 445.75,348.25 450.125,341.5 455.125,334.75 460.625,328.5 466.75,322.75 473.25,317.625 480.25,313.5 487.375,310.375 494.75,308.625 502.125,308.125 509.375,309.0 516.375,311.25 522.875,315.0"/>
    <polyline points="528.875,320.0 534.375,326.0 539.125,333.0 543.25,340.75 546.625,348.875 549.5,357.375 551.625,366.0 554.5,382.875 555.5,398.875 555.625,406.25 555.5,413.375 554.625,426.125 551.5,446.875 548.875,459.0 545.625,471.5"/>
    <polyline points="544.875,474.25 540.625,488.75 538.375,498.875 537.875,504.375 538.375,509.875"/>
  </g>
</svg>
