<?xml version="1.0" encoding="utf-8" ?>
<svg xmlns="http://www.w3.org/2000/svg" xmlns:cc="http://creativecommons.org/ns" xmlns:dc="http://purl.org/dc/elements/1.1/" xmlns:ev="http://www.w3.org/2001/xml-events" xmlns:inkscape="http://www.inkscape.org/namespaces/inkscape" xmlns:rdf="http://www.w3.org/1999/02/22-rdf-syntax-ns" xmlns:sodipodi="http://sodipodi.sourceforge.net/DTD/sodipodi-0.dtd" xmlns:xlink="http://www.w3.org/1999/xlink" baseProfile="tiny" height="27.09333333cm" version="1.2" viewBox="0 0 1024.0 1024.0" width="27.09333333cm">
  <metadata>
    <rdf:RDF>
      <cc:Work>
        <dc:format>image/svg+xml</dc:format>
        <dc:source>vpype read './original_svgs/Strange Attractors #210.svg' linemerge linesimplify write './Strange Attractors #210.svg'
</dc:source>
        <dc:date>2024-08-05T01:35:37.413732</dc:date>
      </cc:Work>
    </rdf:RDF>
  </metadata>
  <defs/>
  <g fill="none" id="layer1" inkscape:groupmode="layer" inkscape:label="1" stroke="black" stroke-width="0.7mm" style="display:inline">
    <polyline points="691.375,623.625 694.125,617.875 693.875,615.0 692.375,614.625 690.75,616.5 689.125,620.125 687.625,625.625 682.125,652.375 679.125,664.875 675.125,679.0 669.625,695.0 662.25,712.625 652.875,731.375 641.0,750.875 626.5,770.25 609.25,788.0 589.5,802.75 568.0,812.875 545.375,817.125 522.875,814.5 501.5,805.125 482.25,789.625 465.625,769.625 451.875,746.875"/>
    <polyline points="441.125,722.875 432.875,699.125 426.75,676.75 422.375,656.25 419.5,637.875 417.75,621.875 416.75,608.0 416.625,586.375 418.25,571.375 419.5,565.75 421.0,561.125 422.625,557.5 424.5,554.5 426.5,552.0 428.5,550.125 432.875,547.375 439.625,545.125 448.25,543.625"/>
    <polyline points="450.25,543.375 455.875,542.5 460.75,541.375 463.5,540.625 467.875,538.625 470.375,536.875 472.25,535.0 473.875,532.375 474.5,530.5"/>
    <polyline points="474.625,529.875 474.75,527.375 474.375,525.75 472.625,522.75 470.375,520.625 465.875,518.25"/>
    <polyline points="465.0,518.0 458.875,516.125 452.25,514.875 445.875,514.0 435.625,513.125"/>
    <polyline points="434.0,513.125 422.125,512.625 407.625,513.0 399.0,514.125 394.75,515.25 392.5,516.375"/>
    <polyline points="391.625,516.875 390.375,518.375 390.25,519.25 390.25,520.125 391.25,522.25 395.375,526.0 402.875,530.5 413.25,535.375 430.0,541.625 438.75,544.5 454.75,548.5"/>
    <polyline points="458.25,549.125 464.75,550.0 470.5,550.25 475.25,550.0 479.375,549.25 482.875,548.125 487.0,546.0 490.25,543.375 494.0,538.75 496.125,535.0"/>
    <polyline points="496.5,534.125 498.375,529.25 499.375,524.625 499.5,521.125 499.125,519.25"/>
    <polyline points="499.0,518.875 498.125,517.125 496.125,515.375 492.0,513.75"/>
    <polyline points="491.625,513.75 485.5,512.625 474.625,511.625"/>
    <polyline points="473.625,511.625 456.0,510.5 440.125,509.875"/>
    <polyline points="438.25,509.75 422.5,509.25 404.25,509.25 394.75,509.75 383.5,511.25"/>
    <polyline points="381.625,511.75 378.125,512.875 375.5,514.375 374.125,516.375 374.125,517.625 374.5,519.0 377.0,522.125 379.125,523.875 385.375,528.0 394.25,532.75 411.625,540.375 431.5,547.875 444.5,552.25 456.5,555.875"/>
    <polyline points="462.0,557.375 471.75,559.5 479.875,560.625 483.375,560.875 489.5,560.75 494.375,559.875 496.5,559.25 501.75,556.625 504.5,554.375 506.875,552.125 509.875,548.5 513.875,542.5"/>
    <polyline points="514.625,541.375 519.25,534.25 523.5,528.75 527.875,524.5 530.5,522.625"/>
    <polyline points="531.25,522.25 534.75,520.25 539.5,518.375 549.0,515.875 553.5,515.0"/>
    <polyline points="554.75,514.75 577.375,510.25 589.5,507.0 598.75,503.875"/>
    <polyline points="601.25,502.875 609.375,499.375 618.125,494.75 624.375,490.75 631.125,485.875 638.125,479.75 645.5,472.25 649.375,467.75 657.25,457.125 661.25,450.875 665.25,443.875 669.125,436.0 673.0,427.125 676.625,417.25 680.0,406.375 683.0,394.375 685.5,381.125"/>
    <polyline points="687.25,366.75 688.125,351.375 687.875,335.375 686.125,319.0 682.75,302.75 677.5,287.375 670.375,273.625 661.25,262.5 650.25,254.75 637.875,250.875 624.5,251.125 610.625,255.625 596.875,263.875 583.625,275.0 571.375,288.5 560.25,303.375 550.25,318.75 541.625,334.25 534.25,349.25 527.875,363.375 517.875,388.625 510.625,409.5 505.25,426.25"/>
    <polyline points="503.0,433.375 499.25,445.125 493.125,461.875 490.375,467.875 486.375,474.75 482.25,479.875 479.5,482.625 476.625,484.875 472.0,487.75 465.5,490.5"/>
    <polyline points="463.75,491.125 458.25,492.625 452.5,493.75 442.0,495.0 425.0,495.5 405.125,494.625"/>
    <polyline points="402.0,494.5 378.125,492.25 363.125,490.25 343.375,487.0 332.125,484.375 325.75,482.375 323.25,481.25 321.375,480.0 320.375,478.75 320.625,477.375"/>
    <polyline points="322.625,476.0 327.0,474.5 334.25,473.0 345.5,471.375 361.625,469.875 383.5,468.375 445.375,465.0 483.0,462.5 521.625,459.125 557.875,454.375 588.75,448.0 613.125,440.125 630.75,431.0 642.875,421.0 650.5,410.375 655.0,399.5 657.375,388.5 658.0,377.75 657.625,367.25 656.125,357.25 653.875,347.875 650.75,339.25 646.875,331.5 642.25,325.125 636.875,320.0"/>
    <polyline points="631.0,316.375 624.5,314.375 617.625,314.125 610.625,315.5 603.375,318.5 596.25,322.875 589.25,328.5 582.625,335.125 576.25,342.375 570.375,350.25 565.0,358.375 560.0,366.625 551.375,383.0 544.375,398.25 538.75,412.0 532.125,429.75 524.5,452.0"/>
    <polyline points="523.25,455.5 520.0,464.75 513.875,480.125 508.75,489.875 506.0,494.0 503.375,497.25"/>
    <polyline points="502.625,497.875 501.375,499.25 497.375,502.375 493.875,504.375 486.875,506.75 484.25,507.25"/>
    <polyline points="483.375,507.375 476.625,508.25 470.0,508.625 453.5,508.625"/>
    <polyline points="452.0,508.625 421.0,507.875 398.75,508.0"/>
    <polyline points="396.125,508.0 380.625,509.25 376.0,510.125 371.875,511.375 368.75,513.0 367.0,515.125 366.875,516.375 367.375,517.875 368.375,519.5 370.125,521.375 372.625,523.5 376.0,525.75 380.125,528.25 391.0,533.75 404.5,539.75"/>
    <polyline points="412.0,542.875 435.5,551.75 457.375,559.0 469.625,562.5 484.375,565.5 491.75,566.125 494.875,566.0 497.75,565.75 502.5,564.625 508.0,561.875 510.875,559.5 514.5,555.75"/>
    <polyline points="515.5,554.375 523.375,543.0 528.875,535.75 533.75,530.875 536.375,528.875"/>
    <polyline points="537.25,528.25 541.875,525.375 547.0,523.0 555.25,520.25 566.625,517.25"/>
    <polyline points="568.25,516.875 584.875,512.75 598.625,508.5 612.0,503.0 621.25,498.125 627.75,494.125"/>
    <polyline points="631.25,491.75 642.25,482.75 650.0,474.75 658.25,464.75 662.375,458.875 666.625,452.125 670.875,444.5 675.0,435.875 679.125,426.25 683.0,415.5 686.625,403.375 689.875,390.0 692.375,375.25 694.125,359.125 694.625,342.0 693.875,324.0 691.375,305.625 686.875,287.75 680.125,271.25 671.125,257.0 660.0,246.25 646.875,239.625"/>
    <polyline points="632.25,238.0 617.0,241.125 601.5,248.875 586.625,260.5 572.625,275.0 560.0,291.25 548.875,308.25 539.25,325.375 531.0,342.0 524.125,357.625 518.25,372.125 509.25,397.125 491.625,454.5 488.875,461.875 485.125,470.125"/>
    <polyline points="483.875,472.25 480.0,477.625 477.375,480.375 474.625,482.75 468.625,486.375 463.875,488.375 456.875,490.375 451.25,491.5 443.125,492.5"/>
    <polyline points="440.875,492.625 434.25,493.0 424.5,493.0 411.375,492.375 400.125,491.375 391.375,490.25 379.625,488.25 374.125,486.875"/>
    <polyline points="371.625,486.25 367.125,484.625 364.0,482.875 363.125,481.875 363.0,480.875 363.75,479.75 365.5,478.625 368.625,477.375 373.375,476.125 388.875,473.5 414.25,470.625 470.5,465.375 491.875,463.0 512.875,460.375 532.5,457.125 549.875,453.5 564.375,449.375 576.125,445.0 585.25,440.625 591.875,436.125"/>
    <polyline points="596.625,431.75 599.875,427.625 601.875,423.875 603.125,420.5 603.75,414.75 603.5,412.375 602.375,408.875 601.625,407.625 599.875,405.875 598.0,405.25 596.0,405.375 593.0,406.875 591.125,408.625 589.375,410.625 587.0,414.25"/>
    <polyline points="586.375,415.625 583.5,422.375 582.0,429.0 581.75,431.5 581.625,433.75 582.125,437.875 583.375,441.125 584.75,442.875"/>
    <polyline points="585.375,443.375 586.5,444.25 587.875,444.75 590.25,445.125 592.0,445.0 595.875,443.875 601.25,440.625 604.625,437.625 609.125,432.25"/>
    <polyline points="610.25,430.625 613.5,425.25 616.25,419.0 617.75,414.5 619.0,409.625 619.75,404.625 620.0,399.625 619.25,392.375 618.75,390.125 617.125,386.125 615.0,382.875 613.625,381.5 610.5,379.75"/>
    <polyline points="608.75,379.375 605.0,379.375 603.0,379.875 598.875,381.625 594.625,384.5 590.5,388.375 586.625,393.0 581.125,400.875 578.0,406.375 575.25,412.0 570.875,423.0 568.625,430.625"/>
    <polyline points="568.0,433.0 566.625,439.75 566.125,443.875 566.0,450.875 566.5,455.375 568.0,460.25 569.75,463.25 571.875,465.5 574.5,467.25"/>
    <polyline points="575.5,467.625 578.75,468.625 583.75,468.875 588.0,468.375 594.375,466.375 599.625,463.875 605.25,460.375 611.25,455.5 615.375,451.5"/>
    <polyline points="617.5,449.25 621.625,444.0 625.875,437.875 629.875,430.75 633.625,422.625 635.375,418.125 637.0,413.375 639.625,403.0 640.625,397.5 641.75,386.125 641.5,374.375 640.75,368.625 639.5,363.0 637.875,357.75 635.75,353.0 633.125,348.625 630.0,345.0 626.5,342.25 622.5,340.25"/>
    <polyline points="618.25,339.125 613.625,339.0 608.875,339.875 604.0,341.75 599.125,344.375 594.125,347.875 589.375,352.0 584.75,356.75 580.25,362.0 576.0,367.625 568.375,379.25 565.0,385.25 556.25,402.75 547.875,423.5 543.375,436.5 540.0,447.625"/>
    <polyline points="539.125,450.875 535.625,464.625 533.25,476.5 532.25,485.0 532.25,489.375 532.625,492.875"/>
    <polyline points="532.75,493.75 533.625,496.5 535.625,499.75 539.0,502.375 542.125,503.75 544.375,504.375"/>
    <polyline points="545.125,504.5 550.375,505.25 556.75,505.5 568.75,504.625 575.125,503.5"/>
    <polyline points="576.875,503.25 586.5,501.0 592.875,499.0 602.375,495.25 610.375,491.375 619.0,486.125 625.125,481.625 635.0,472.875 641.875,465.25"/>
    <polyline points="645.375,460.875 649.0,456.0 656.25,444.375 663.25,430.125 666.625,421.875 669.75,412.625 672.625,402.625 675.125,391.75 677.0,379.875 678.375,367.25 678.75,353.875 678.25,340.125 676.5,326.25 673.375,312.625 668.75,299.875 662.625,288.625 654.875,279.375 645.75,272.75 635.5,269.25 624.25,268.875 612.625,272.0 600.875,278.0 589.5,286.625 578.625,297.375"/>
    <polyline points="568.625,309.375 559.5,322.375 551.375,335.5 544.25,348.625 538.0,361.375 532.625,373.375 523.875,395.125 520.25,404.75 504.5,450.75 500.0,462.25 495.875,470.875 491.875,477.375 490.5,479.125"/>
    <polyline points="489.25,480.75 486.5,483.75 482.375,487.375 479.5,489.375 473.375,492.625 468.625,494.5 463.5,496.0 454.25,497.75 448.125,498.375"/>
    <polyline points="446.0,498.625 432.25,499.25 421.875,499.25 404.125,498.75 371.5,497.0"/>
    <polyline points="367.375,496.875 349.625,496.0 334.875,495.625 313.75,495.875 308.375,496.25 298.25,497.5 293.75,498.625 290.0,500.0 287.375,502.0 286.375,504.5 287.875,507.875 292.625,512.25 301.25,517.625 314.625,524.375 333.0,532.5 382.375,552.125"/>
    <polyline points="410.25,563.0 437.875,574.125 463.375,585.0 485.75,595.375 504.5,604.875 519.5,613.375 531.25,621.125 540.0,627.75 546.25,633.625 550.5,638.5 553.25,642.75 554.625,646.125 555.0,648.75 554.5,650.75 553.5,652.0 551.875,652.625 550.0,652.75 547.875,652.125 545.625,651.0 540.875,647.125 538.5,644.625 536.25,641.625 534.125,638.375 530.25,631.125"/>
    <polyline points="528.625,627.25 525.875,619.125 522.875,606.875 521.375,595.25 521.0,588.0 521.125,578.25 522.375,567.0 523.75,560.0 524.875,556.0 526.875,550.625"/>
    <polyline points="527.5,549.0 529.625,544.625 532.0,540.75 536.25,535.625 539.875,532.25 542.875,530.125 550.5,526.0"/>
    <polyline points="551.75,525.5 555.5,524.0 564.0,521.375 583.5,516.25 594.625,513.0"/>
    <polyline points="597.0,512.25 604.75,509.5 616.25,504.5 622.5,501.25 629.25,497.25 636.375,492.25 644.0,486.0 652.0,478.125 660.5,468.125 669.25,455.375 673.625,447.625 678.0,438.875 682.375,429.125 686.5,418.0"/>
    <polyline points="690.375,405.375 693.875,391.5 696.75,376.0 698.625,359.0 699.5,340.75 698.75,321.375 696.25,301.625 691.625,282.25 684.5,264.25 674.75,248.75 662.625,237.125 648.375,230.125 632.625,228.625 616.0,232.625 599.375,241.625 583.375,254.75 568.625,270.75 555.5,288.625 544.0,307.0 534.125,325.375 525.875,342.875 519.0,359.25 513.25,374.125 504.5,399.625 501.25,410.25"/>
    <polyline points="498.5,419.625 489.5,451.625 485.75,462.875 482.25,470.5 480.0,474.375 477.625,477.5 475.125,480.0 469.75,483.875 463.75,486.625"/>
    <polyline points="462.125,487.25 457.125,488.75 449.875,490.125 437.875,491.25 422.0,491.25 409.625,490.25"/>
    <polyline points="407.125,490.0 397.125,488.5 390.125,487.0 382.875,484.375 381.0,482.75 380.75,481.875 381.125,480.875 384.25,478.875 391.5,476.75 397.125,475.625 404.375,474.375 423.875,471.75 449.75,468.875"/>
    <polyline points="464.625,467.25 495.625,463.375 510.5,461.125 524.25,458.625 536.625,455.875 547.125,453.125 555.875,450.25 562.875,447.5 568.375,444.75 572.375,442.25 575.375,439.875 578.75,436.25 579.875,433.75 580.0,433.0 579.625,432.25 578.5,432.875 577.625,434.125 577.0,435.75"/>
    <polyline points="576.75,436.625 576.125,439.75 576.125,442.875 576.875,446.75 578.0,449.25 579.625,451.375 582.5,453.375 587.0,454.375"/>
    <polyline points="588.125,454.25 591.5,453.875 596.5,452.0 602.125,448.625 606.5,445.0 611.0,440.125 617.0,431.875 622.375,421.125"/>
    <polyline points="623.5,418.125 625.625,411.625 627.125,404.625 628.0,397.375 628.125,390.125 627.25,383.0 626.5,379.75 624.125,373.75 622.5,371.125 620.75,368.875 618.625,367.0 616.375,365.625 613.875,364.75 611.25,364.25 608.375,364.375 602.5,366.0 599.375,367.5 593.25,371.875"/>
    <polyline points="590.25,374.625 584.5,381.0 576.75,392.0 572.25,399.875 566.625,411.5 561.125,425.875 558.125,435.5 555.625,446.5 554.375,455.625"/>
    <polyline points="554.25,457.75 554.125,463.125 554.5,467.75 555.5,471.75 556.75,475.125 558.5,477.875 560.625,480.125 565.125,482.875 567.25,483.625"/>
    <polyline points="568.375,483.875 573.375,484.625 577.75,484.625 584.125,483.75 589.5,482.375 595.375,480.375 601.75,477.375 608.625,473.25 613.625,469.625"/>
    <polyline points="616.125,467.625 624.0,460.125 629.375,453.875 634.875,446.375 640.375,437.5 645.5,426.875 648.0,420.875 650.25,414.375 654.125,400.0 655.625,392.125 656.625,383.875 657.25,375.25 657.25,366.5 656.75,357.625 655.375,348.875 653.375,340.375 650.5,332.5 646.75,325.375 642.125,319.25"/>
    <polyline points="636.75,314.5 630.75,311.375 624.0,309.75 617.0,310.0 609.625,311.875 602.125,315.375 594.75,320.375 587.5,326.625 580.625,333.75 574.125,341.75 568.125,350.125 562.625,358.75 557.5,367.5 548.875,384.375 541.875,400.125 536.25,414.125 529.75,432.0 523.5,450.375"/>
    <polyline points="522.125,454.125 515.75,471.625 511.375,481.5 505.875,491.0 500.75,497.125"/>
    <polyline points="500.0,497.875 495.5,501.375 490.75,503.875 484.625,505.875 478.75,507.0"/>
    <polyline points="477.75,507.125 473.25,507.625 461.875,508.125 442.375,508.0"/>
    <polyline points="440.5,508.0 404.375,507.375 388.25,507.875 380.375,508.625"/>
    <polyline points="377.75,509.0 370.875,510.5 369.0,511.25 366.0,513.0 365.125,514.125 364.75,515.375 364.75,516.75 365.5,518.375 367.0,520.25 372.375,524.625 376.375,527.125 387.0,532.625 393.5,535.75 408.375,542.125 433.0,551.5 456.25,559.5"/>
    <polyline points="463.0,561.625 475.0,564.875 484.875,566.875 492.75,567.75 496.0,567.75 501.625,567.125 506.0,565.75 509.625,563.75 512.5,561.5 516.25,557.625 522.875,548.25"/>
    <polyline points="523.75,547.0 529.5,539.0 533.75,534.375 536.375,532.0 540.125,529.25 546.25,525.875"/>
    <polyline points="547.375,525.375 550.75,523.875 559.75,520.875 585.75,514.125"/>
    <polyline points="587.875,513.5 599.75,509.75 613.375,504.125 619.5,501.125 626.0,497.375 636.5,490.0 644.125,483.5 652.125,475.375 660.5,465.0 669.125,451.875"/>
    <polyline points="673.375,444.0 677.75,435.0 681.875,425.0 685.875,413.625 689.5,401.0 692.75,386.875 695.125,371.375 696.75,354.5 697.125,336.5 696.0,317.625 693.0,298.625 687.75,280.25 680.25,263.5 670.25,249.375 658.0,239.25 643.75,233.875 628.375,233.625 612.25,238.5 596.25,248.0 581.125,261.25 567.125,277.0 554.625,294.375 543.625,312.25 534.375,329.875 526.375,346.75 519.75,362.375"/>
    <polyline points="514.25,376.75 502.625,411.625 492.25,447.375 486.875,463.125 484.5,468.625 482.0,473.0 479.625,476.375 475.75,480.5 470.125,484.5"/>
    <polyline points="468.625,485.25 465.625,486.75 460.75,488.5 455.5,489.875 449.875,490.875 443.875,491.625 435.25,492.125 418.5,491.875"/>
    <polyline points="415.875,491.75 402.625,490.5 394.625,489.375 386.75,487.875 379.625,486.0 375.875,484.5 373.5,482.75 373.0,481.875 373.25,480.875 374.125,479.875 376.125,478.75 379.25,477.625 389.875,475.25"/>
    <polyline points="397.875,474.0 420.125,471.25 467.5,466.375 503.25,462.0 520.125,459.25 535.5,456.375 548.875,453.125 560.0,449.625 569.0,446.125 575.875,442.625 581.0,439.375 584.75,436.125 587.25,433.375 589.0,430.75 589.875,428.625 590.5,425.25 590.125,423.125 589.625,422.5 588.625,422.0"/>
    <polyline points="588.0,422.0 586.375,423.125 585.125,425.25 583.875,428.75 583.5,431.625 583.75,436.0 584.5,438.125 586.125,440.5"/>
    <polyline points="586.625,440.875 588.25,441.875 591.125,442.5 593.5,442.125 596.25,441.25 599.125,439.625 603.125,436.375 605.25,434.25 608.25,430.375"/>
    <polyline points="609.25,428.875 612.0,424.0 614.5,418.25 616.375,412.125 617.625,403.25 617.5,398.875 617.0,394.75 615.875,391.125 614.125,387.875 613.125,386.625 610.625,384.625 609.25,384.0"/>
    <polyline points="607.75,383.625 604.375,383.5 602.625,383.875 597.25,386.5 593.5,389.375 588.125,395.125 581.875,404.375 577.875,411.875 574.75,419.375 573.0,424.25 571.75,428.875"/>
    <polyline points="571.125,431.125 569.875,437.375 569.25,444.625 569.5,449.25 570.25,453.25 571.0,455.625 573.25,459.375 575.5,461.5 578.125,463.0"/>
    <polyline points="579.125,463.375 583.5,464.125 587.375,463.875 591.625,462.875 597.875,460.375 603.0,457.25 608.375,453.125 614.125,447.5 617.875,443.0"/>
    <polyline points="619.75,440.375 625.375,431.5 628.875,424.5 631.875,416.5 634.5,407.75 635.5,403.0 636.875,393.25 637.125,388.125 636.875,378.0 636.125,373.125 633.625,363.875 631.75,359.75 629.5,356.125 626.75,353.0 623.75,350.5 620.375,348.75 616.75,347.75 612.875,347.625"/>
    <polyline points="608.75,348.125 604.625,349.5 600.375,351.625 596.125,354.375 591.875,357.75 587.75,361.625 583.75,366.0 576.375,375.5 573.0,380.625 564.125,396.375 557.25,411.375 550.5,429.125 546.0,443.875 544.375,450.125"/>
    <polyline points="543.75,453.0 541.25,465.125 540.5,471.0 540.125,477.375 540.75,484.875 541.875,488.625 543.125,491.0"/>
    <polyline points="543.625,491.625 545.125,493.625 547.625,495.625 549.875,496.875 552.5,497.875 558.5,499.125 565.875,499.375"/>
    <polyline points="567.25,499.375 573.25,498.875 580.125,497.75 587.75,495.875 594.125,493.75 601.125,490.875 608.625,487.125 614.125,483.75 619.875,479.75"/>
    <polyline points="622.75,477.5 629.0,472.125 632.125,469.0 635.375,465.5 642.0,457.375 648.75,447.5 655.375,435.25 661.625,420.5 664.5,412.125 667.125,402.875 669.375,392.875 671.125,382.125 672.25,370.75 672.625,358.875 672.25,346.625 670.75,334.25 668.125,322.125 664.25,310.75 659.0,300.5 652.5,292.0 644.625,285.5"/>
    <polyline points="635.875,281.625 626.125,280.375 615.875,282.0 605.5,286.25 595.125,292.875 585.25,301.5 575.875,311.625 567.125,322.75 559.25,334.5 552.25,346.25 546.0,358.0 540.375,369.375 535.625,380.125 527.625,399.625 521.5,416.25 509.375,451.125 504.875,462.375"/>
    <polyline points="503.625,465.5 499.75,473.375 497.25,477.5 493.5,482.75 489.75,486.875 485.875,490.125 481.875,492.875 474.75,496.25 470.125,497.75"/>
    <polyline points="468.625,498.25 460.25,500.0 449.0,501.25 431.25,501.875 415.5,501.625"/>
    <polyline points="412.625,501.625 368.25,500.5 352.0,500.75 339.625,501.625 331.875,502.875 325.5,504.875 323.125,506.25"/>
    <polyline points="321.75,507.875 321.375,510.0 322.5,512.625 325.5,515.75 330.625,519.5 338.125,524.0 348.25,529.125 375.75,541.25 475.0,581.25 525.25,603.5 529.125,605.0 534.625,606.625 538.0,606.625"/>
    <polyline points="539.125,606.125 540.625,604.375 541.625,601.75 544.625,584.125 546.625,577.0 548.625,572.125 551.75,566.375"/>
    <polyline points="552.625,565.0 557.75,559.0 561.375,556.0 565.25,553.375 571.0,550.375 575.75,548.5 581.0,546.875 588.625,545.0"/>
    <polyline points="590.75,544.625 601.875,542.75 623.375,540.125 647.0,536.5 659.0,533.75 667.625,531.125"/>
    <polyline points="672.25,529.5 682.0,525.25 687.125,522.625 692.625,519.375 698.25,515.5 704.125,511.0 710.375,505.5 716.875,498.75 723.625,490.625 730.75,480.75 738.125,468.75 745.75,454.0 753.625,435.875 761.25,413.625 768.5,386.625 774.75,353.75 779.0,314.625 779.75,269.25 775.25,219.0 763.125,167.375 741.625,120.125 710.125,85.375 670.25,70.125 626.25,77.5 583.125,105.125"/>
    <polyline points="544.875,146.25 514.0,193.25 490.5,239.875 473.75,282.125 462.625,318.5 455.875,348.75 452.625,373.125 452.25,392.5 454.0,407.625 457.625,419.375 462.75,428.375 469.0,435.125 475.875,440.25 483.375,443.875 491.125,446.5 498.875,448.25 506.25,449.375 519.5,450.25 529.875,450.125 543.625,449.375"/>
    <polyline points="544.625,449.625 545.875,450.375 546.0,451.75 541.75,464.25 540.25,470.125 539.5,474.25 539.0,479.375"/>
    <polyline points="539.0,480.625 539.5,486.75 541.25,491.625 544.125,495.25 546.625,497.125 548.875,498.25"/>
    <polyline points="549.75,498.5 552.25,499.375 556.25,500.125 560.875,500.5 566.0,500.5 575.125,499.625 582.25,498.25"/>
    <polyline points="584.125,497.75 594.5,494.5 604.125,490.5 614.75,484.375 623.625,478.0 633.0,469.375 639.625,461.875 646.375,452.75 653.25,441.5"/>
    <polyline points="656.625,435.0 659.875,427.75 662.875,419.875 665.875,411.125 668.375,401.75 670.625,391.5 672.375,380.375 673.5,368.75 673.875,356.5 673.25,343.875 671.625,331.25 668.75,319.0 664.625,307.5 659.0,297.125 652.125,288.75 644.0,282.5 634.75,279.0 624.625,278.25 614.125,280.375 603.5,285.25 593.0,292.5 582.875,301.75 573.5,312.375 564.75,324.0 557.0,336.0 550.0,348.0"/>
    <polyline points="543.75,359.875 533.625,382.125 529.5,392.25 522.625,410.25 509.5,448.0 503.5,463.375 500.875,469.125 497.0,476.125 493.25,481.625 490.625,484.5"/>
    <polyline points="489.375,485.875 485.5,489.375 481.375,492.125 477.125,494.375 472.625,496.25 462.875,498.875 449.875,500.625"/>
    <polyline points="447.875,500.75 437.0,501.25 424.75,501.375 377.125,500.0"/>
    <polyline points="373.25,499.875 356.875,499.75 344.0,500.125 331.25,501.25 323.625,502.875 320.5,504.0 318.0,505.375 316.5,507.125 316.125,509.375 317.5,512.125 320.75,515.5 326.5,519.5 335.0,524.25 346.25,529.875 376.875,543.0 414.25,558.0"/>
    <polyline points="433.25,565.5 482.25,586.0 505.25,596.5 534.25,610.75 538.875,612.5 541.375,612.5 542.125,612.0 543.0,610.25 543.375,606.0 543.375,596.75"/>
    <polyline points="543.5,594.75 544.25,586.875 545.375,581.125 548.125,572.375 551.25,566.375 554.0,562.5 557.125,559.0 560.625,555.875"/>
    <polyline points="561.875,555.0 565.875,552.375 570.25,550.125 580.125,546.5 591.875,543.75 608.375,541.25"/>
    <polyline points="611.0,540.875 635.0,537.5 642.125,536.25 653.5,533.75 666.25,529.875 675.625,526.125 685.625,521.0 691.125,517.75 696.75,513.75 702.625,509.0 708.75,503.375 715.25,496.5"/>
    <polyline points="722.0,488.25 729.0,478.25 736.25,466.0 743.875,451.125 751.5,432.875 759.0,410.625 766.0,383.5 771.875,350.875 775.625,312.25 776.125,267.75 771.125,218.875 758.875,169.0 737.625,124.0 706.625,91.125 668.0,77.0 625.375,84.5 583.75,111.25 546.75,150.875 516.5,196.25 493.375,241.375 476.75,282.75 465.5,318.375 458.5,348.25 455.0,372.375 454.125,391.75 455.375,407.0"/>
    <polyline points="458.25,418.875 462.625,428.0 468.125,435.0 474.375,440.25 481.125,444.125 488.125,446.875 495.125,448.875 502.0,450.25 514.5,451.5 524.625,451.75 536.875,451.5 539.75,451.75 541.125,452.625 541.5,454.0 540.375,458.125"/>
    <polyline points="539.875,459.375 536.25,469.25 534.0,477.5 532.75,485.75 532.75,490.5"/>
    <polyline points="532.875,491.375 533.875,495.75 535.0,498.0 536.125,499.5 539.0,501.875 542.75,503.5"/>
    <polyline points="543.5,503.75 547.5,504.625 552.125,505.125 562.75,505.0 571.5,504.0"/>
    <polyline points="573.125,503.75 580.125,502.375 592.375,499.0 599.375,496.375 607.0,492.875 615.375,488.25 621.25,484.25 627.5,479.375 634.125,473.375"/>
    <polyline points="637.5,469.875 641.0,466.0 648.125,456.875 651.75,451.5 658.875,439.0 662.375,431.625 665.75,423.5 668.875,414.625 671.875,404.75 674.375,394.0 676.5,382.375 677.875,370.0 678.5,356.875 678.25,343.25 676.75,329.375 673.875,315.75 669.625,302.875 663.875,291.25 656.5,281.5 647.625,274.375 637.625,270.125 626.625,269.25 615.125,271.5 603.5,276.875"/>
    <polyline points="592.0,285.0 581.125,295.125 570.875,307.0 561.625,319.625 553.25,332.75 546.0,345.875 539.5,358.75 529.125,382.25 521.25,402.625 503.5,454.0 497.75,467.625 493.75,474.875"/>
    <polyline points="492.375,476.875 488.375,482.0 485.625,484.75 481.5,488.25 477.125,491.0 472.5,493.125 465.875,495.5 458.875,497.125 453.125,498.0"/>
    <polyline points="451.125,498.25 440.375,499.125 423.0,499.375 411.625,499.125 381.125,497.75"/>
    <polyline points="377.25,497.5 351.625,496.25 337.125,495.875 316.375,496.125 305.875,497.0 300.875,497.75 296.375,498.75 292.5,500.0 289.625,501.875 288.375,504.25 289.25,507.375 293.125,511.375 300.625,516.5 312.625,522.75 329.375,530.375"/>
    <polyline points="350.75,539.25 430.125,570.625 455.875,581.375 478.75,591.625 498.25,601.125 514.125,609.75 526.625,617.375 536.125,624.125 543.125,630.0 548.0,635.0 551.25,639.25 553.125,642.75 554.0,645.5 554.0,647.5 553.25,648.875 552.125,649.625 550.5,649.75 548.625,649.375 546.625,648.5 542.25,645.125 538.0,640.125 536.0,637.125"/>
    <polyline points="534.125,633.875 530.75,626.625 527.0,615.125 524.5,603.5 523.625,596.125 523.125,585.75 523.75,573.75 525.375,563.75 527.75,555.625"/>
    <polyline points="528.375,553.75 532.0,546.0 535.375,541.0 538.0,537.875 542.875,533.5 548.375,530.0 551.875,528.25"/>
    <polyline points="553.125,527.625 558.375,525.5 567.375,522.625 590.5,516.375 597.5,514.125"/>
    <polyline points="600.125,513.375 611.0,509.25 616.875,506.625 630.125,499.5 637.375,494.625 645.0,488.5 653.125,480.75 657.5,476.0 666.25,464.75 675.375,450.375 679.875,441.625 684.375,431.625 688.75,420.375 692.875,407.625"/>
    <polyline points="696.5,393.375 699.625,377.5 701.75,360.0 702.875,341.0 702.375,320.875 700.0,300.125 695.25,279.5 688.0,260.375 678.0,243.75 665.25,231.125 650.25,223.75 633.625,222.0 616.125,226.25 598.625,236.0 581.875,250.0 566.5,267.125 552.875,285.875 541.0,305.375 531.0,324.5 522.625,342.75 515.625,359.5 505.25,388.625 495.75,420.875"/>
    <polyline points="493.5,429.0 486.125,456.5 483.875,463.25 480.75,470.625 477.5,475.75 472.875,480.625 469.0,483.25 461.75,486.375"/>
    <polyline points="460.25,486.875 451.875,488.875 438.5,490.25 425.75,490.25 419.0,489.875 409.875,488.875"/>
    <polyline points="407.625,488.5 401.25,487.375 395.5,485.875 391.5,483.875 390.375,482.375 390.5,481.625 391.125,480.75 392.5,479.875 397.625,477.875 406.875,475.75 413.25,474.625 430.125,472.25 476.5,466.5"/>
    <polyline points="489.25,464.875 513.25,461.0 523.875,458.875 541.25,454.5 547.875,452.375 557.375,448.5 560.625,446.875 564.625,444.25 566.75,442.375 565.375,444.875 564.0,450.25"/>
    <polyline points="563.75,451.5 563.625,456.5 563.875,458.875 565.125,463.25 566.625,466.0 568.625,468.375 571.0,470.25 573.875,471.625 577.25,472.375"/>
    <polyline points="578.5,472.625 581.0,472.75 585.25,472.375 588.375,471.75 595.125,469.5 602.625,465.625 608.875,461.25 615.375,455.625 622.0,448.125 624.25,445.125"/>
    <polyline points="626.5,441.875 631.0,434.75 635.125,426.375 639.0,416.75 642.125,405.875 644.375,393.875 645.375,381.125 644.75,368.125 643.625,361.875 642.125,355.75 640.0,350.125 637.375,345.0 634.125,340.5 630.375,337.0 626.125,334.375 621.5,332.75 616.5,332.25 611.25,332.875 605.75,334.625"/>
    <polyline points="600.375,337.5 594.875,341.125 589.5,345.625 584.375,350.875 579.5,356.625 570.5,369.125 566.375,375.625 562.75,382.125 559.25,388.625 553.25,401.25 546.25,418.375 539.5,437.375 532.375,461.125"/>
    <polyline points="531.625,463.75 526.875,482.875 525.625,489.125 525.0,493.875 524.875,497.5"/>
    <polyline points="524.875,498.25 525.125,500.5 526.125,503.5 527.25,505.125 530.25,507.25"/>
    <polyline points="530.75,507.375 534.5,508.5 536.875,508.875 541.75,509.25 546.875,509.25"/>
    <polyline points="547.75,509.25 557.5,508.75 567.125,507.625 582.625,504.5"/>
    <polyline points="584.625,504.0 597.875,499.75 608.125,495.25 619.625,488.625 625.875,484.125 636.0,475.5 643.0,468.0 650.375,458.625 657.875,447.0"/>
    <polyline points="661.625,440.125 665.25,432.5 668.75,424.0 672.125,414.625 675.125,404.375 677.875,393.0 680.0,380.75 681.5,367.5 682.125,353.5 681.75,338.875 680.0,324.125 676.875,309.625 672.125,295.875 665.625,283.75 657.5,273.75 647.75,266.5 636.875,262.75 624.875,262.5 612.5,265.875 600.0,272.5 588.0,282.0 576.625,293.5 566.125,306.5 556.625,320.375 548.25,334.375 541.0,348.125"/>
    <polyline points="534.625,361.5 529.125,374.0 520.375,396.25 503.0,447.375 498.375,459.875 494.125,469.0 490.125,475.875 487.375,479.5 481.875,485.125"/>
    <polyline points="480.375,486.25 476.0,489.125 471.25,491.5 466.25,493.375 461.0,494.875 455.25,496.0 445.0,497.25 433.375,497.75"/>
    <polyline points="431.0,497.875 420.375,497.875 399.125,497.0 342.25,492.875"/>
    <polyline points="337.25,492.5 303.375,490.625 284.0,490.375 270.625,491.0 264.125,491.625 258.125,492.75 253.0,494.375 249.625,496.75 249.125,500.0 252.75,504.75 262.5,511.125 279.875,519.75 306.125,530.625 380.75,558.75 422.5,575.0 461.875,591.375 495.75,607.375"/>
    <polyline points="522.875,622.625 543.25,636.75 557.75,649.875 567.125,662.0 572.375,673.0 574.375,683.125 573.75,692.0 571.125,699.75 566.625,706.0 561.0,710.875 554.25,713.875 547.0,715.125 539.375,714.5 531.625,712.125 524.0,707.875 516.875,702.125 510.25,695.0 504.125,686.75 498.75,677.75 494.125,668.375 490.25,658.625 486.875,649.0 484.25,639.5 482.0,630.375 479.0,613.5"/>
    <polyline points="478.125,605.875 477.375,598.75 476.75,586.125 476.75,571.0 478.0,553.375 480.25,533.5 480.25,530.375"/>
    <polyline points="480.25,529.375 479.5,525.5 478.75,523.625 477.25,521.5 474.25,519.0 469.5,516.875"/>
    <polyline points="468.625,516.625 463.25,515.125 454.375,513.625 438.625,512.25"/>
    <polyline points="437.0,512.125 420.875,511.5 405.0,511.875 395.5,513.0 390.625,514.25"/>
    <polyline points="389.25,514.75 388.0,515.25 386.125,516.625 385.375,518.375 385.75,520.5 386.5,521.75 389.375,524.5 396.875,529.375 404.0,533.0 412.625,536.875 422.25,540.625 437.125,545.75 451.375,549.875"/>
    <polyline points="455.625,550.875 463.625,552.375 470.5,553.25 476.25,553.375 483.375,552.5 488.75,550.625 491.625,549.0 494.125,547.125 497.0,544.125 501.25,538.0"/>
    <polyline points="501.75,537.0 504.5,531.625 508.875,520.375"/>
    <polyline points="509.0,520.0 511.125,514.0 511.375,512.375 509.5,512.0 501.5,511.875"/>
    <line x1="501.25" x2="491.25" y1="511.875" y2="511.625"/>
    <line x1="490.625" x2="471.125" y1="511.625" y2="510.875"/>
    <line x1="470.0" x2="432.875" y1="510.875" y2="509.25"/>
    <polyline points="430.875,509.25 404.125,509.0 392.0,509.625 382.875,510.875 379.0,511.875 375.75,513.25"/>
    <polyline points="374.5,514.0 373.5,514.875 372.75,517.125 373.125,518.5 374.0,520.0 375.5,521.75 380.375,525.5 383.875,527.75 398.25,535.0 410.625,540.375 424.125,545.625 444.5,552.75 462.5,558.0 476.875,561.0"/>
    <polyline points="480.75,561.5 487.625,561.875 493.125,561.25 497.625,560.125 501.375,558.5 505.75,555.25 509.125,551.75 513.75,545.5 518.125,538.75"/>
    <polyline points="518.75,537.75 523.375,531.375 527.25,527.25 531.375,523.875 535.875,521.375"/>
    <polyline points="536.75,521.0 539.125,519.875 545.625,517.75 563.875,513.75"/>
    <polyline points="565.375,513.5 577.0,511.0 593.625,506.375 601.0,503.75 609.0,500.25 620.875,493.875"/>
    <polyline points="624.0,491.875 630.75,487.125 634.125,484.25 637.75,481.125 645.125,473.75 653.0,464.5 660.875,452.875 665.0,446.0 672.875,429.625 676.625,419.875 680.125,409.125 683.25,397.125 685.875,384.0 687.875,369.75 689.0,354.375 689.0,338.25 687.625,321.625 684.625,305.0 679.75,289.125 672.75,274.75 663.875,262.75"/>
    <polyline points="653.125,254.125 640.75,249.375 627.25,248.875 613.25,252.75 599.125,260.5 585.625,271.375 573.0,284.75 561.375,299.75 551.25,315.375 542.25,331.125 534.625,346.375 528.0,360.875 522.375,374.375 513.625,398.0 495.5,454.0 491.25,464.625"/>
    <polyline points="489.875,467.5 487.25,472.375 483.25,478.0 480.5,481.0 474.625,485.625 470.0,488.25 463.25,490.875 456.0,492.75 450.125,493.75"/>
    <polyline points="448.0,494.0 434.625,495.0 419.25,495.0 395.25,493.5 378.125,491.625"/>
    <polyline points="374.5,491.125 356.0,488.25 345.125,486.0 338.5,484.25 335.625,483.25 331.125,481.0 330.0,479.875 329.875,478.5 331.125,477.25 334.25,475.75 339.75,474.375 348.375,472.875 360.875,471.375 400.25,468.25 459.375,464.5 493.625,461.875"/>
    <polyline points="527.625,458.375 558.875,453.625 585.375,447.625 606.125,440.375 621.375,432.375 632.0,423.625 638.875,414.625 643.125,405.5 645.375,396.5 646.25,387.75 646.0,379.25 645.0,371.375 643.375,363.875 641.25,357.125 638.375,351.0 635.125,345.875 631.375,341.5 627.125,338.25 622.625,336.125 617.625,335.125 612.5,335.125 607.125,336.375 601.75,338.625 596.375,341.875 591.125,346.0 586.0,350.75"/>
    <polyline points="581.125,356.125 572.125,368.0 568.0,374.375 560.75,387.125 554.625,399.375 549.625,411.0 542.0,431.125 534.75,453.875 530.5,469.5"/>
    <polyline points="529.875,471.625 526.25,488.375 525.5,494.875 525.75,499.5"/>
    <polyline points="525.875,500.0 526.5,502.375 528.125,504.875 530.5,506.625 533.125,507.625"/>
    <polyline points="533.625,507.75 540.375,508.875 553.0,508.875"/>
    <polyline points="554.125,508.75 563.0,508.0 577.25,505.625 586.875,503.25 595.75,500.375"/>
    <polyline points="598.125,499.375 600.625,498.5 608.5,494.875 614.125,491.875 626.375,483.625 633.0,478.125 639.875,471.25 643.5,467.125 650.875,457.625 654.625,452.125 662.0,438.875 665.625,431.125 669.125,422.625 672.375,413.125 675.375,402.625 678.0,391.125"/>
    <polyline points="680.125,378.75 681.5,365.5 681.875,351.375 681.375,336.75 679.375,322.125 676.0,307.75 671.125,294.25 664.375,282.375 656.0,272.75 646.125,266.125 635.0,262.875 623.125,263.125 610.625,267.0 598.25,274.125 586.375,283.875 575.125,295.625 564.75,308.75 555.5,322.5 547.375,336.5 540.125,350.25 528.625,375.75 520.0,397.75 513.625,416.0"/>
    <polyline points="511.0,423.875 501.375,452.5 496.875,463.625 492.75,471.875 488.75,478.0 484.625,482.75 480.375,486.375 477.375,488.375 472.75,490.875"/>
    <polyline points="471.25,491.625 466.25,493.5 459.125,495.375 447.125,497.125 435.875,497.875 417.5,497.875"/>
    <polyline points="414.625,497.75 395.625,496.875 326.5,492.0 309.375,491.25"/>
    <polyline points="303.25,491.0 290.5,490.875 277.375,491.25 264.625,492.5 259.0,493.875 254.625,495.625 252.25,498.375 253.125,502.125 258.625,507.25 270.5,514.25 290.375,523.375 318.5,534.75 393.875,563.25 434.0,579.0 470.875,594.875 502.125,610.25 526.875,624.625 545.25,638.0 558.125,650.375 566.5,661.625 571.0,671.875 572.625,681.125"/>
    <polyline points="571.875,689.375 569.25,696.25 565.0,701.875 559.625,706.0 553.375,708.625 546.625,709.5 539.5,708.75 532.25,706.25 525.25,702.125 518.625,696.625 512.5,689.875 506.875,682.25 501.75,673.875 497.375,665.0 493.75,656.0 490.5,646.875 485.875,629.375 484.125,621.125 482.875,613.25 481.875,605.875 480.75,592.625 480.375,576.375"/>
    <polyline points="480.375,571.875 481.25,557.25 483.875,533.875 483.875,528.75 483.375,525.625"/>
    <polyline points="483.25,525.0 482.25,522.625 480.75,520.625 479.0,519.0 474.75,516.75 470.125,515.375"/>
    <polyline points="469.25,515.125 457.75,513.125 437.5,511.5"/>
    <polyline points="435.75,511.375 420.875,510.875 408.5,511.0 400.125,511.5 392.25,512.5 387.125,513.875"/>
    <polyline points="385.75,514.375 383.625,515.75 382.5,517.5 382.375,518.625 383.25,521.0 384.375,522.375 388.0,525.375 393.625,529.0 401.25,532.875 410.5,537.0 426.25,543.125 437.0,546.875 457.0,552.5"/>
    <polyline points="461.375,553.5 469.25,554.75 475.875,555.25 484.0,554.875 488.25,553.875 493.25,551.625 497.125,548.75 501.125,544.5 505.25,538.125"/>
    <polyline points="505.875,537.125 511.375,526.5 515.0,520.5"/>
    <polyline points="515.25,520.125 518.5,516.75 522.5,514.75"/>
    <polyline points="522.875,514.625 528.0,513.375 534.5,512.625"/>
    <line x1="535.125" x2="558.0" y1="512.625" y2="510.375"/>
    <polyline points="559.25,510.25 572.625,508.125 585.75,505.125 599.25,500.625 607.0,497.25"/>
    <polyline points="609.75,495.875 618.5,491.0 628.0,484.375 634.75,478.625 641.875,471.5 649.25,462.625 653.125,457.375 656.875,451.5 660.75,445.0 664.5,437.75 668.125,429.625 671.75,420.625 675.0,410.625 678.0,399.625 680.625,387.625 682.5,374.5 683.75,360.5 684.0,345.75 683.0,330.625"/>
    <polyline points="680.625,315.375 676.625,300.625 670.875,287.0 663.375,275.375 654.125,266.375 643.375,260.625 631.5,258.5 618.875,260.25 605.875,265.625 593.25,274.125 581.125,285.25 569.875,298.125 559.625,312.125 550.625,326.625 542.625,341.0 535.75,354.875 524.75,380.375 516.625,402.0 502.125,445.625"/>
    <polyline points="500.5,450.5 496.0,462.125 493.25,468.125 489.125,475.125 485.125,480.375 480.875,484.5 476.375,487.625 470.125,490.875 463.375,493.25"/>
    <polyline points="461.5,493.75 454.0,495.375 445.75,496.375 436.625,497.0 421.25,497.125 400.25,496.25"/>
    <polyline points="397.0,496.0 362.875,493.25 276.125,484.75"/>
    <polyline points="269.0,484.25 261.625,483.625 237.375,482.5 219.75,482.5 210.875,483.0 202.375,484.125 195.375,486.0 191.375,489.125 193.0,494.25 204.375,502.125 230.375,513.75 274.0,530.125 334.0,551.125 402.25,575.625 467.75,601.875 522.125,628.25 562.0,654.0 588.125,679.25 602.875,703.875 608.5,728.125 606.875,751.5 599.125,773.5 586.25,792.875"/>
    <polyline points="569.5,808.375 549.875,818.25 528.75,821.375 507.375,817.125 487.25,806.0 469.125,789.0 453.875,767.75 441.5,744.125 432.0,719.75 424.875,696.25 420.0,674.25 416.75,654.375 414.875,636.75 414.125,621.625 414.125,608.75 414.875,597.875 416.125,588.75 417.75,581.25 419.875,575.125 422.125,570.125 424.625,566.125 427.25,562.875 430.125,560.25 433.0,558.125 435.875,556.375 438.875,555.0"/>
    <polyline points="441.75,553.875 447.5,552.25 462.25,548.875 469.625,546.5 472.625,545.125 476.375,542.875 480.0,539.625 482.375,536.25"/>
    <polyline points="482.875,535.375 483.75,533.75 484.75,530.75 485.125,526.625 484.875,524.875 484.125,522.75 482.125,520.125"/>
    <polyline points="481.75,519.75 479.875,518.25 475.625,516.25 470.125,514.75 463.25,513.5"/>
    <polyline points="462.125,513.375 446.375,511.75 423.625,510.75"/>
    <polyline points="421.625,510.75 415.5,510.625 402.75,511.0 392.5,512.125 388.75,512.875 384.25,514.5 382.25,516.0 381.625,516.875 381.375,517.875 381.375,519.0 381.875,520.125"/>
    <polyline points="382.75,521.5 386.0,524.5 388.375,526.25 398.625,532.0 412.75,538.375 434.75,546.5 450.75,551.375 464.5,554.5 475.5,555.875 478.5,556.0 483.875,555.625"/>
    <polyline points="486.25,555.25 490.375,554.125 493.75,552.5 496.5,550.75 500.0,547.625 503.5,543.25 505.625,540.0 510.375,531.5"/>
    <polyline points="510.75,530.625 515.5,522.625 517.5,520.125 519.5,518.25"/>
    <polyline points="519.875,518.0 522.25,516.375 524.25,515.5 530.25,514.0"/>
    <polyline points="530.75,513.875 537.5,512.875 549.625,511.625"/>
    <polyline points="550.75,511.5 557.625,510.75 570.625,508.75 581.25,506.5 589.5,504.25"/>
    <polyline points="591.625,503.5 603.75,499.0 611.875,495.0 620.875,489.75 630.625,482.5 641.125,472.625 648.5,464.0 656.125,453.25 663.75,439.75 667.5,431.875 671.125,423.125"/>
    <polyline points="674.5,413.375 677.625,402.5 680.25,390.75 682.375,377.875 683.875,364.0 684.375,349.375 683.625,334.125 681.625,318.875 678.0,303.75 672.75,289.75 665.625,277.5 656.75,267.75 646.25,261.125 634.5,258.125 622.0,259.0 609.0,263.5 596.125,271.375 583.75,282.0 572.25,294.625 561.75,308.5 552.375,323.0 544.125,337.5 537.0,351.625 530.875,365.0 521.125,389.25"/>
    <polyline points="517.25,399.75 502.375,444.5 497.5,457.875 494.625,464.625 490.625,472.5 486.5,478.375 482.375,482.875 478.0,486.375 475.0,488.25"/>
    <polyline points="473.5,489.125 468.625,491.375 463.5,493.125 458.0,494.5 452.125,495.5 439.125,496.75 421.5,497.0"/>
    <polyline points="418.75,496.875 400.5,496.125 379.375,494.5 350.0,491.75 320.125,488.5"/>
    <polyline points="314.75,487.875 249.375,481.125 224.25,479.25 205.5,478.5 185.375,478.875 175.625,479.75 167.375,481.75 162.75,485.125 165.625,491.125 182.25,500.75 219.375,515.75 280.75,537.125 360.625,564.25"/>
    <polyline points="444.25,595.125 516.375,627.25 569.375,659.25 603.375,691.125 621.5,723.25 626.875,755.625 622.125,787.875 608.75,818.5 588.25,845.25 562.125,865.0 532.5,874.875 501.75,873.0 472.75,859.0 447.125,835.0 426.375,804.25 410.375,770.375 399.0,736.5 391.375,704.75 386.75,676.625 384.375,652.375 384.0,632.125 385.0,615.75 387.125,602.625 390.25,592.25 394.25,584.375 398.875,578.5"/>
    <polyline points="404.125,574.125 409.875,571.125 416.0,569.125 422.375,567.875 428.75,567.25 441.5,567.125 473.0,568.125 480.625,567.625 486.875,566.625 494.125,564.125 496.125,563.0 499.5,560.75 503.625,556.875"/>
    <polyline points="504.875,555.5 509.75,548.625 519.125,533.0 522.625,528.375"/>
    <polyline points="523.25,527.75 527.375,523.75 531.25,521.125 536.25,518.75 540.375,517.5"/>
    <polyline points="541.25,517.25 550.0,515.125 571.75,511.0"/>
    <polyline points="573.375,510.75 591.25,506.125 600.75,502.75 608.75,499.25 614.5,496.375 627.0,488.5 630.375,486.0 637.375,480.0"/>
    <polyline points="641.0,476.5 648.5,468.25 652.375,463.375 660.25,451.75 664.25,444.75 668.125,437.125 671.875,428.5 675.625,418.875 679.0,408.125 682.125,396.375 684.625,383.375 686.5,369.375 687.5,354.375 687.5,338.5 686.0,322.25 683.0,306.125 678.125,290.625 671.375,276.75 662.625,265.25 652.125,256.875 640.125,252.25 627.0,251.75 613.25,255.5 599.5,262.875"/>
    <polyline points="586.25,273.5 573.875,286.5 562.625,301.0 552.5,316.25 543.625,331.625 536.0,346.5 529.5,360.75 523.875,374.125 519.125,386.375 515.125,397.5 500.0,444.0 495.25,457.625 491.0,467.25 488.375,472.25 485.625,476.25"/>
    <polyline points="484.25,478.0 478.75,483.625 474.25,486.75 469.5,489.25 462.75,491.75 457.25,493.125 447.25,494.75 440.625,495.25"/>
    <polyline points="438.375,495.375 420.75,495.625 406.25,495.0 390.0,493.75 375.625,492.25 360.25,490.25"/>
    <polyline points="356.125,489.625 335.75,486.125 324.375,483.375 318.25,481.25 316.0,480.0 314.625,478.75 314.375,477.375 315.875,475.875 319.5,474.375 326.25,472.875 336.875,471.375 352.625,469.75 374.625,468.25 478.5,462.75 520.0,459.375 559.125,454.5 592.625,447.875"/>
    <polyline points="618.875,439.5 637.75,429.625 650.375,418.625 658.375,406.875 662.875,394.75 665.125,382.5 665.625,370.375 664.75,358.375 662.875,347.0 660.0,336.25 656.125,326.375 651.25,317.75 645.625,310.75 639.0,305.375 631.75,302.0 623.875,300.625 615.625,301.375 607.125,304.25 598.75,308.875 590.5,315.125 582.625,322.625 575.25,331.125 568.375,340.25 562.125,349.75 556.375,359.375 551.25,368.875"/>
    <polyline points="546.625,378.125 539.0,395.375 532.875,410.75 513.875,463.375 508.375,475.75 503.375,484.5"/>
    <polyline points="502.375,485.875 497.5,491.75 493.625,495.25 489.5,498.125 481.875,501.625 476.0,503.25"/>
    <polyline points="474.75,503.625 468.125,504.75 455.875,505.75 445.125,506.0 432.875,505.875"/>
    <polyline points="430.625,505.875 391.0,505.5 372.625,506.5 366.875,507.25 361.5,508.375"/>
    <polyline points="359.125,509.125 357.125,509.875 355.375,511.0 354.25,512.125 353.625,513.625 353.75,515.25 354.625,517.125 356.5,519.25 359.375,521.75 368.75,527.625 375.375,531.0 391.625,538.5 401.125,542.5 431.75,554.625 451.5,561.875 476.125,570.25 493.875,575.0"/>
    <polyline points="498.375,575.75 505.75,576.375 511.375,575.875 515.75,574.5 519.25,572.375 524.5,567.125 534.125,552.625 537.0,548.875"/>
    <polyline points="538.0,547.625 540.875,544.25 544.0,541.25 549.625,536.875 558.75,532.0 569.5,528.0"/>
    <polyline points="571.125,527.5 595.75,520.625 608.75,516.5 620.875,511.75 631.0,506.75 634.5,504.625"/>
  </g>
</svg>
