<?xml version="1.0" encoding="utf-8" ?>
<svg xmlns="http://www.w3.org/2000/svg" xmlns:cc="http://creativecommons.org/ns" xmlns:dc="http://purl.org/dc/elements/1.1/" xmlns:ev="http://www.w3.org/2001/xml-events" xmlns:inkscape="http://www.inkscape.org/namespaces/inkscape" xmlns:rdf="http://www.w3.org/1999/02/22-rdf-syntax-ns" xmlns:sodipodi="http://sodipodi.sourceforge.net/DTD/sodipodi-0.dtd" xmlns:xlink="http://www.w3.org/1999/xlink" baseProfile="tiny" height="27.09333333cm" version="1.2" viewBox="0 0 1024.0 1024.0" width="27.09333333cm">
  <metadata>
    <rdf:RDF>
      <cc:Work>
        <dc:format>image/svg+xml</dc:format>
        <dc:source>vpype read './original_svgs/Strange Attractors #256.svg' linemerge linesimplify write './Strange Attractors #256.svg'
</dc:source>
        <dc:date>2024-08-05T01:35:43.607042</dc:date>
      </cc:Work>
    </rdf:RDF>
  </metadata>
  <defs/>
  <g fill="none" id="layer1" inkscape:groupmode="layer" inkscape:label="1" stroke="black" style="display:inline">
    <polyline points="784.0,630.25 788.1126,634.2918 792.6281,638.1805 797.2145,641.5975 801.8525,644.5524 806.523,647.0547 811.5413,649.2446 816.2177,650.8402 821.1981,652.0808 826.1241,652.8476 830.8433,653.1401 835.416,652.9651 840.2535,652.2566 844.9395,651.012 849.1034,649.3905 853.0869,647.3182 856.8653,644.7979 860.414,641.8325 863.4441,638.7256 866.4869,634.9097 869.0874,630.9087 871.4267,626.5091 873.4856,621.7273 875.2443,616.5797 876.5978,611.4597 878.406,600.36 878.9102,588.2028 878.0265,575.1621 875.8465,561.4441 872.7717,548.5235 868.6356,535.2133 863.5903,522.0413 857.7162,509.1585 850.5493,495.6747 842.5698,482.4854 833.7817,469.5773 824.5007,457.3861 814.8464,446.0048 804.6595,435.2415 793.8372,425.0472 782.475,415.4792 770.86,406.772 759.0703,398.9693 746.8622,391.943 734.9579,386.1078 725.835,382.3207 716.4135,379.0031 706.7282,376.1866 697.1959,373.9994 687.8385,372.4176 678.3156,371.3895 669.0301,370.964 659.665,371.1314 650.237,371.9193 641.1474,373.2675 632.0741,375.2187 623.4121,377.6755 614.8168,380.717 606.3297,384.3409 597.7677,388.6463 589.4713,393.4517 581.7326,398.5478 573.9482,404.3305 566.4895,410.5482 559.1531,417.3703 552.2705,424.4781 545.5675,432.1391 538.9029,440.5416 532.9009,448.8526 523.9312,463.0913 515.0326,479.6521 507.0345,496.9849 496.305,524.0197 492.1579,533.5715 488.1679,541.2682 483.8471,547.4961 481.4901,550.1516 478.8885,552.4126 475.9498,554.3132 472.4541,555.933 468.7693,557.141 465.2031,557.8125 460.8897,558.1118 456.5273,558.0312 451.2809,557.5127 445.2296,556.4976 435.1204,553.6846 420.161,548.3726 401.4213,540.1145 385.7966,532.1831 366.247,521.311 345.9766,509.1169 323.7893,495.0586 300.9733,479.6137 274.2101,460.7535 250.3742,443.0662 224.6123,423.1997 199.4244,402.7442 170.4013,378.2832 148.682,358.5299 144.125,353.8984 142.6823,351.7422 143.3146,351.6944 145.1044,352.6489 153.1193,358.3049 226.241,413.8929 252.4411,433.0059 275.1316,448.8994 298.6663,464.545 321.4909,478.8593 342.3571,491.098 362.5757,502.0089 382.2086,511.6474 400.9075,519.8805 417.9586,526.4294 435.0386,531.9844 452.5512,536.6898 468.1862,539.9714 485.4219,542.6246 506.3851,545.0373 516.7733,546.744 524.841,549.0338 531.2439,551.9521 535.8623,555.1591 539.8596,558.7238 545.7435,565.1213 557.6844,579.6978 566.5712,589.778 577.2659,600.3458 584.8576,606.9813 596.2454,616.0626 612.5721,627.1452 625.6762,634.9699 641.1579,643.2329 660.7073,652.1579 678.8808,659.254 700.7377,666.0365 710.6213,668.6309 720.0706,670.7179 738.5435,673.6614 747.8439,674.5669 756.5459,675.0298 764.9077,675.072 772.9011,674.7138 780.8576,673.933 788.3578,672.7665 797.93,670.5802 806.5586,667.752 814.8922,664.0879 822.8111,659.5716 829.9003,654.4288 836.3629,648.5055 841.7829,642.2068 846.5912,635.0981 850.5518,627.55 853.808,619.3056 856.2899,610.3881 857.875,601.25 858.6733,591.218 858.6209,580.6349 857.7405,569.9558 856.024,558.9086 853.4512,547.5655 850.1356,536.4006 845.9342,524.9318 840.7925,513.0739 834.8772,501.282 828.4323,489.9836 821.1225,478.6099 813.4074,467.9033 805.3484,457.882 796.4385,447.9208 787.1114,438.5413 777.4336,429.7982 767.4713,421.7463 757.291,414.4406 747.2645,408.115 736.6995,402.3386 726.847,397.7076 717.0618,393.8073 707.0148,390.5132 697.1002,387.9614 687.0038,386.0774 677.172,384.9428 667.4156,384.4852 657.6189,384.7131 647.8304,385.6618 638.454,387.283 629.1576,389.6204 620.095,392.633 610.9334,396.4164 602.3733,400.6804 593.7677,405.7456 585.5033,411.4118 577.0672,418.0573 569.2653,425.0538 561.9805,432.4473 554.8057,440.6641 548.4066,448.9587 542.4465,457.7106 536.4062,467.7213 531.3402,477.2894 527.2984,485.9627 523.491,495.0585 520.2315,503.9861 517.009,514.025 512.1031,533.8297 507.0305,560.9801 504.6962,571.8981 502.7015,578.6813 500.1957,584.1101 498.391,586.7879 496.2671,589.1203 494.0758,590.8387 491.3441,592.3063 488.4662,593.2155 485.1744,593.8251 477.1016,593.6699 471.8359,592.6973 465.348,591.0358 450.1328,585.5156 431.3289,576.9034 412.1906,566.7547 390.7317,554.3467 364.183,537.9627 338.8066,521.0332 309.3974,500.5682 279.2732,478.4396 250.0856,456.2141 220.6976,432.7346 189.1419,406.5999 158.8751,380.3361 128.5456,352.8605 108.3685,333.1115 102.2678,326.3904 100.3796,323.4551 100.6102,323.1711 101.3324,323.3151 103.9348,324.7089 113.5087,331.5415 189.7478,392.6765 213.8342,411.6166 248.5822,437.8824 281.8226,461.7668 310.8703,481.3761 339.5147,499.1811 367.5295,515.0367 381.0466,522.0836 393.6576,528.2416 415.1965,537.6306 436.2559,545.3862 457.527,551.7381 476.5116,555.9629 492.4008,558.3523 509.7106,559.8982 525.9269,560.271 558.9172,559.4666 569.5873,560.1929 577.5311,561.7411 585.8537,564.6732 595.8909,569.9135 623.7121,588.0889 633.855,594.4289 641.622,598.8391 657.2466,606.6739 672.8754,613.2328 680.8996,616.0369 689.9842,618.7004 700.472,621.2886 708.5588,622.8243 717.5956,623.9635 726.7243,624.5652 734.3308,624.6003 741.5384,624.0788 748.6504,623.0093 755.2286,621.4905 761.3991,619.5318 767.4037,616.9882 772.7526,614.0609 777.4389,610.8333 781.75,607.125 785.7048,602.86 789.2226,598.0779 792.0719,593.1424 794.438,587.7855 796.2727,582.0232 797.5509,575.8194 798.2416,569.3206 798.3413,562.5116 797.8738,555.8437 796.764,548.5825 795.0605,541.3031 792.7029,533.6179 789.7483,525.8787 786.3711,518.5221 782.649,511.6155 778.5154,504.9871 773.4994,497.8762 768.0616,491.0172 762.4997,484.7554 756.618,478.847 750.449,473.352 743.9409,468.2363 736.8926,463.3649 730.0271,459.2303 722.7344,455.4551 711.0584,450.6704 698.837,447.2004 686.9386,445.299 681.1527,444.9196 675.2052,444.9193 669.203,445.3067 663.4028,446.0626 657.8088,447.169 652.0742,448.7157 646.5848,450.6196 641.033,452.9903 635.8148,455.6614 630.9411,458.5992 626.0764,462.0116 621.3768,465.8091 616.9935,469.8589 612.7944,474.315 609.0296,478.9117 605.3333,484.1143 602.2424,489.2103 599.634,494.3073 597.2858,499.7939 595.3553,505.2839 593.9807,510.4862 592.909,516.3525 592.2343,522.3378 592.0295,528.1625 592.2977,533.8197 593.0599,539.7701 595.3192,549.0432 598.9716,558.7133 603.5482,567.0682 609.6367,575.7282 617.6145,584.605 626.3207,592.6637 637.2291,601.1273 647.5497,607.7326 660.7212,614.8348 674.0752,620.8646 687.3889,625.7986 700.7759,629.5872 714.7138,632.4394 727.1251,633.8783 740.8492,634.1886 752.9645,633.2458 760.1061,631.9435 767.0789,630.0618 773.7824,627.5925 779.8429,624.6669 785.2705,621.2996 790.3229,617.3486 794.6797,613.0969 798.5972,608.3282 802.1791,602.7788 805.0455,597.0368 807.3713,590.8136 809.0181,584.521 810.0799,577.8507 810.5,571.25 810.3209,563.6372 809.5023,555.7042 808.035,547.5343 806.0207,539.5912 803.399,531.5802 800.2087,523.6595 796.2579,515.3251 791.7396,507.0806 786.8893,499.3266 781.5571,491.8035 776.0137,484.8779 769.5214,477.672 762.6705,470.8385 755.5214,464.4574 748.421,458.8222 741.4371,453.9307 734.1899,449.521 726.3832,445.4224 719.6167,442.3532 712.8558,439.7235 706.1274,437.536 699.1093,435.7146 692.4668,434.4339 685.2105,433.5064 678.5225,433.0776 671.6282,433.0849 664.9389,433.5542 658.4673,434.4729 652.2429,435.8179 645.739,437.6873 639.5846,439.9197 633.763,442.4873 627.943,445.54 622.2078,449.0687 616.4309,453.2066 611.1479,457.5857 606.0629,462.426 601.0369,467.9133 596.6223,473.5123 592.7799,479.184 589.0892,485.5342 585.9778,491.797 583.3444,498.1731 581.2452,504.4818 579.6316,510.7665 578.5737,516.8743 577.8982,523.9319 577.7056,530.8013 578.0749,536.873 579.0408,543.5238 580.1084,548.3911 581.6521,553.4931 583.8522,559.2121 586.2392,564.3993 589.1916,569.733 592.9595,575.6436 599.6105,584.2537 609.2027,594.2501 619.9897,603.1817 631.5511,611.5359 646.6178,620.5747 660.6136,627.5974 677.0223,634.47 692.074,639.5339 707.8927,643.6664 722.7969,646.3281 737.7703,647.7336 751.1724,647.7946 763.7626,646.5403 771.9715,644.936 779.5598,642.7875 786.6088,640.0542 793.3721,636.6195 799.4369,632.7068 805.0588,628.161 810.0542,623.0875 814.3851,617.4867 818.1477,611.2254 821.142,604.7011 823.52,597.6497 825.1586,590.5136 826.1948,582.6016 826.5411,574.1778 826.2001,565.7256 825.1782,556.9756 823.4539,548.0003 821.1271,539.2715 818.0023,530.0861 814.0802,520.5166 809.6616,511.3039 804.6467,502.1991 799.0636,493.294 793.1769,484.9934 786.3973,476.5011 779.2077,468.4165 771.6416,460.7793 763.7485,453.6542 755.8737,447.3288 748.0879,441.7986 739.2819,436.3193 730.6024,431.6056 722.9494,427.9989 714.9637,424.7795 707.0238,422.1325 699.5,420.1446 691.4791,418.5851 683.5647,417.5764 675.8406,417.1039 667.9502,417.1543 660.301,417.733 652.5637,418.8708 644.7113,420.6024 637.1779,422.832 630.0708,425.5062 623.3667,428.5959 616.7357,432.2555 610.0652,436.5668 603.2512,441.6549 597.0338,447.0071 591.1081,452.8469 585.5353,459.1167 580.3356,465.844 575.6058,472.9141 571.3717,480.2308 567.7781,487.637 564.4621,495.854 561.7826,503.8484 559.955,511.241 558.5713,519.5304 557.8584,527.7288 557.8205,535.9059 558.3253,542.8173 559.5673,550.2208 560.8525,555.7744 562.4856,560.9205 565.2394,567.6993 567.8731,573.1424 571.1581,578.6658 575.6073,585.2449 579.4782,590.1888 584.3458,595.7143 589.0012,600.5375 594.1971,605.334 607.7588,616.3389 623.4658,626.87 638.2195,635.3037 655.8455,644.062 674.1542,651.5983 693.2352,658.1214 712.386,663.146 730.3764,666.5215 738.951,667.5883 747.661,668.2855 756.0614,668.5698 764.4735,668.4445 772.1045,667.9251 779.3294,667.0107 788.7135,665.1476 797.4916,662.6162 805.9388,659.3176 813.5283,655.4371 820.3366,650.9517 826.6836,645.6749 832.4722,639.6157 837.3877,633.1107 841.554,626.0409 844.9915,618.3299 847.7184,609.9018 849.6165,601.1909 850.7597,591.9256 851.1017,582.5745 850.6625,572.8083 849.4397,562.8058 847.306,551.867 844.434,541.0318 840.6481,529.6791 836.2078,518.6386 831.2035,508.0053 825.3135,497.1299 818.5887,486.1738 811.4541,475.8134 803.774,465.8078 795.6007,456.2413 787.2536,447.4638 778.3341,439.0691 768.8063,431.0463 759.0567,423.728 749.1421,417.1457 739.1193,411.331 729.3704,406.4645 719.625,402.375 709.0787,398.7605 698.73,395.974 688.6015,393.9893 678.3544,392.7499 668.3932,392.3153 658.647,392.6599 648.6285,393.7742 638.7247,395.6565 629.3345,398.2173 620.1141,401.5304 610.6643,405.8166 601.5657,410.8064 592.9072,416.4233 584.6963,422.6347 576.2644,430.0108 568.4582,437.8973 561.1324,446.4369 554.0411,455.9406 547.7859,465.6791 541.7683,476.6192 537.0404,486.5631 532.779,497.4575 528.9461,509.2242 526.1975,520.1608 524.4557,530.187 523.068,542.6417 522.7346,553.3767 523.5113,565.6292 524.8509,574.5723 527.2105,583.9978 530.6409,593.0967 532.778,597.5451 536.5691,604.1891 541.9615,611.7865 545.5361,616.0573 552.6901,623.6287 564.9303,634.4891 572.394,640.227 581.8155,646.9262 604.6172,661.1077 630.3668,674.9573 650.6161,684.378 675.4713,694.6228 699.399,702.8942 712.5201,706.8169 724.9024,710.13 736.8085,712.8873 748.7487,715.2002 759.8473,716.9154 770.7644,718.1649 781.3349,718.9283 791.532,719.2062 801.4179,719.0016 810.9273,718.3154 820.0086,717.1589 828.9944,715.4702 840.6477,712.3424 851.4688,708.2754 861.5248,703.2558 870.7205,697.3335 878.9866,690.5662 886.5331,682.7188 892.9882,674.1222 898.361,664.8431 902.8664,654.5639 906.429,643.3222 908.9102,631.5495 910.3678,618.943 910.7392,605.9815 910.0608,592.5887 908.3483,578.5537 905.6092,564.0141 901.7449,548.7173 896.9454,533.5092 891.1369,518.1451 884.3253,502.7403 876.7226,487.7797 868.059,472.6854 858.5844,457.9121 848.3763,443.5685 837.5124,429.7634 826.3248,416.8838 814.6566,404.7255 802.4962,393.315 789.7847,382.6197 776.5414,372.6665 763.1613,363.752 749.725,355.8931 739.2509,350.5038 728.8299,345.776 718.5003,341.7178 708.4229,338.3737 697.7837,335.4825 687.362,333.2662 676.7811,331.6439 666.0814,330.6541 655.673,330.3295 645.5695,330.6292 635.441,331.5546 625.5874,333.0763 615.1169,335.3647 605.1326,338.2005 595.2691,341.6621 585.5724,345.7389 578.0044,349.4079 570.4819,353.4975 562.9181,358.0726 555.3958,363.0827 541.0755,373.9638 526.9112,386.6302 518.9252,394.6456 511.4459,402.8294 503.997,411.7078 496.2349,421.6962 481.7703,441.9515 459.8126,475.7291 453.117,485.133 448.2275,491.1241 441.079,498.026 437.5679,500.6934 434.0238,502.9092 430.2188,504.6875 426.2036,506.0457 421.7168,507.1206 417.736,507.608 410.3613,507.6216 402.5984,506.8492 393.474,504.936 383.6817,502.1544 373.3207,498.3206 359.8984,492.6914 348.3253,487.1225 334.1586,479.7264 319.9255,471.6659 301.6878,460.7844 267.7552,438.4045 251.3484,426.8225 232.2226,412.7474 215.6795,399.871 209.3487,394.1345 217.3499,399.1222 261.3107,429.6383 287.3101,446.602 312.2045,461.9675 340.0915,477.6499 360.986,488.1751 384.3185,498.6443 410.1684,508.4801 443.5102,519.2108 448.1693,521.2173 449.9398,522.4306 450.9823,523.5561 451.0937,524.4854 450.8298,525.1319 449.1013,526.3802 445.9858,527.2977 441.4896,527.8855 432.6654,527.4836 421.2629,525.3978 410.9399,522.4548 397.8918,517.893 383.5711,511.9714 372.8897,506.9367 353.5153,496.8807 336.3333,487.2407 320.3193,477.7423 304.9606,467.9627 280.7425,451.8708 260.4127,437.5987 237.9153,421.0615 212.4777,401.4083 197.0869,388.5962 192.5813,384.5288 191.5741,383.0994 192.9354,383.6081 195.625,385.375 244.9099,420.4885 281.0045,444.8947 313.8844,465.4794 328.3705,473.951 342.3076,481.6174 356.3278,488.8574 370.443,495.6836 382.7046,501.1761 395.4375,506.4184 409.5761,511.7374 421.856,515.8094 463.8577,527.5013 469.8153,530.1464 471.4635,531.3378 472.9355,533.0761 473.7317,535.037 473.318,537.544 471.8328,539.8454 469.3976,541.9046 466.3985,543.4356 462.4526,544.6447 458.4431,545.345 453.9917,545.613 449.9266,545.5261 444.8284,544.9416 437.8918,543.7507 431.5696,542.245 418.0202,537.951 402.357,531.6922 388.3128,525.1708 368.6139,514.9149 351.3671,505.1477 330.454,492.6272 310.7843,479.9559 286.0567,463.1845 263.2222,446.8796 238.4443,428.5002 215.906,410.8855 191.495,391.0364 168.4076,370.9026 164.0202,366.6544 162.588,364.6852 163.2166,364.7191 164.752,365.5797 172.7807,371.1098 233.7259,416.39 256.0093,432.3401 275.9247,445.9973 297.7161,460.2448 319.0657,473.4954 337.4577,484.2094 355.752,494.1288 373.3217,502.9279 389.177,510.155 405.0218,516.5534 421.2595,522.2986 435.3556,526.6228 449.927,530.2931 464.3027,533.4219 482.5,536.625 493.5827,538.8928 501.0012,541.2974 505.8482,543.6897 508.6691,545.7935 510.8452,547.8623 514.6979,553.3428 518.2125,561.2891 525.0938,581.3867 529.2959,591.453 532.8186,598.2198 537.8445,606.0291 540.9502,610.2152 545.8855,616.0827 558.1204,628.2315 567.514,635.9606 574.3339,641.1064 584.875,648.375 595.0386,654.8941 607.0307,662.0348 617.6779,667.8863 632.4662,675.356 648.1716,682.8008 662.4125,688.9407 677.611,694.9343 690.7977,699.6824 704.5399,704.0598 718.6867,708.0089 733.125,711.5 746.401,714.1775 759.3747,716.2092 771.9006,717.5885 784.2518,718.3495 795.8769,718.4793 806.8116,717.9681 817.3738,716.8 827.8406,714.914 839.5588,711.8096 850.5293,707.7632 860.7474,702.7434 869.8581,696.8992 878.0771,690.1713 885.6,682.3537 892.0934,673.7442 897.539,664.4296 902.0391,654.2264 905.5873,642.991 908.0648,631.1389 909.5321,618.4414 909.9416,605.3633 909.3026,591.6174 907.6352,577.6975 904.8883,563.2428 901.038,548.2996 896.0093,532.7125 889.9195,516.9549 882.9799,501.5152 875.1063,486.1736 866.5473,471.3994 857.4033,457.3009 847.0731,442.9742 835.8572,428.915 824.0645,415.543 811.782,402.9539 799.3765,391.4879 786.6675,380.9524 774.0257,371.6366 760.6132,362.9443 747.0751,355.2805 736.7702,350.1631 726.1689,345.5286 715.66,341.558 705.276,338.2449 695.0497,335.5827 685.0135,333.5649 674.6895,332.1212 664.3724,331.2921 653.9675,331.0832 643.8952,331.4962 633.7894,332.5351 624.0458,334.1455 613.9858,336.4544 604.3479,339.3022 594.4578,342.8782 584.9097,346.9738 577.2533,350.7447 569.9677,354.7587 555.5728,363.9867 540.7764,375.3456 527.02,387.6562 519.4699,395.2592 512.1199,403.3318 504.0723,412.9425 496.4522,422.738 482.5419,442.3843 458.9923,478.7747 453.6241,486.1261 448.5377,492.2194 444.8196,496.0437 441.2008,499.2287 437.8616,501.6665 434.041,503.9102 430.2814,505.6304 426.4347,506.8984 421.9816,507.843 417.5356,508.3617 410.131,508.3293 401.2231,507.2412 392.611,505.3003 382.0118,502.0912 371.8708,498.2241 357.0161,491.7392 347.1819,486.9282 334.7179,480.2715 317.3158,470.3871 297.625,458.375 283.0609,448.9399 263.2914,435.5211 250.0031,426.0737 227.3286,409.2427 211.98,396.9651 208.4103,393.5404 217.6559,399.4603 263.391,431.104 282.6954,443.7859 312.6729,462.3295 339.4309,477.3728 362.5018,489.134 387.3242,500.0935 399.3775,504.7895 414.6804,510.1477 444.0356,519.4521 449.7835,521.9166 451.0,522.75 452.1875,524.1094 452.3711,524.7363 452.0911,525.6865 450.1531,527.1455 446.9844,528.1406 442.2006,528.7167 432.8956,528.2709 422.9288,526.4682 413.2609,523.8841 399.338,519.0847 387.7393,514.2073 371.8665,506.8794 350.4645,495.6354 337.9487,488.5974 317.375,476.25 304.717,468.2344 278.0538,450.3559 263.0053,439.7857 236.7171,420.4617 219.0432,406.833 199.7746,391.2434 192.4813,384.7854 190.0975,382.2105 191.5405,382.7924 195.2806,385.2032 244.9411,420.6933 284.2283,447.3298 313.5925,465.6073 331.1287,475.7933 343.9616,482.8539 357.2331,489.6627 371.1104,496.3104 383.9292,502.0645 396.148,507.0451 410.8783,512.441 424.8199,517.0502 465.9879,528.2799 468.7258,529.3626 471.6516,530.9521 473.4863,532.2266 474.6323,533.466 475.6132,535.9004 475.331,538.554 473.9049,541.016 471.3626,543.2828 468.2702,545.0825 464.5654,546.3102 460.4866,547.0837 455.378,547.3639 451.2568,547.2988 446.5163,546.8025 434.6557,544.5183 420.5455,540.1725 406.4827,534.5995 389.9249,527.0517 371.5723,517.6178 353.3814,507.3583 332.3248,494.6369 310.5879,480.6208 285.2107,463.4591 264.0219,448.2542 236.8426,427.9939 212.5159,408.9486 188.6656,389.4796 166.1278,369.6805 161.4954,365.1528 159.8703,362.9667 160.4082,362.9092 161.7555,363.6401 170.0093,369.3643 233.1168,416.3453 255.3881,432.342 274.5951,445.5631 297.2772,460.4447 319.9857,474.5937 337.7358,484.9673 355.4619,494.5772 373.1591,503.4158 389.7853,510.9715 405.9513,517.4978 422.2483,523.2452 437.4385,527.8428 452.5164,531.6067 466.6886,534.5807 497.491,540.2037 504.559,542.5531 509.3575,544.946 514.2405,548.8896 518.3899,554.3378 522.4792,562.2122 531.5635,583.0417 536.7861,592.4343 544.204,603.3007 553.5897,614.1995 566.9428,626.6035 574.9565,632.9824 582.5787,638.5556 602.6186,651.647 626.1297,664.8055 638.5625,670.9062 655.336,678.4518 666.9611,683.3482 678.8021,687.8826 692.1766,692.5212 705.8561,696.7804 718.5899,700.245 731.1628,703.1722 743.7897,705.6089 756.1951,707.4931 767.6533,708.7106 778.5749,709.3437 789.6021,709.4166 800.2668,708.8902 810.4919,707.768 820.1885,706.0514 831.1677,703.1496 841.8191,699.1919 851.6713,694.3056 860.6485,688.5467 868.6236,682.0467 875.7475,674.6609 881.9306,666.4907 887.3226,657.3286 891.6857,647.5608 895.0246,637.3021 897.4306,626.236 898.8051,614.7634 899.2309,602.29 898.6531,589.133 897.108,575.7725 894.5738,561.9554 891.0315,547.7756 886.4618,533.3272 880.9142,518.8386 874.451,504.3553 866.9356,489.6184 858.7643,475.4154 849.8297,461.5254 840.1855,448.0639 830.1318,435.4396 819.7554,423.7008 808.2533,411.9226 796.3761,400.9371 784.2039,390.8004 771.8167,381.5688 759.2945,373.2987 746.7176,366.0462 736.8102,361.0786 726.7703,356.6696 716.4445,352.7553 706.2444,349.498 696.1941,346.8773 685.9554,344.8106 675.9303,343.3844 665.8008,342.5584 655.9589,342.3704 645.6986,342.8243 635.7292,343.8965 626.1399,345.5358 616.5724,347.7882 607.0767,350.6584 597.7054,354.1394 588.6217,358.1597 574.037,365.9498 560.0027,375.1453 546.6655,385.6402 533.3523,397.9732 525.583,406.1044 518.0884,414.6721 510.2781,424.3601 503.2554,433.8039 489.5285,454.4145 468.4043,489.2598 462.3796,498.0556 457.941,503.6602 454.554,507.1663 450.9687,510.2873 447.27,512.912 443.6311,514.9643 440.1609,516.4561 436.154,517.6674 431.9284,518.481 427.6149,518.857 419.3718,518.5852 410.596,517.3251 399.7855,514.6133 389.4768,511.214 376.6104,506.0228 364.0186,500.2655 349.1535,492.6632 333.8166,484.1797 316.1212,473.6976 300.5765,464.0223 281.0945,451.1139 261.5678,437.6587 235.047,418.2276 221.4429,407.8167 202.3933,392.4229 196.2387,387.0121 193.8434,384.5027 195.8201,385.4988 200.5809,388.6639 253.9569,426.4778 288.75,449.625 314.5625,465.5312 344.7984,482.5527 368.9949,494.5862 383.875,501.25 394.5008,505.6272 407.8194,510.5556 422.6936,515.5037 435.5325,519.2599 454.8997,524.4191 461.089,526.3953 466.544,528.7393 468.6406,530.1406 469.9796,531.6108 470.7551,533.8126 470.5,535.375 469.0577,537.5543 466.5872,539.5771 463.714,540.922 460.3659,541.91 456.6042,542.5125 451.94,542.829 441.1683,541.9576 431.672,539.9697 419.1286,536.2573 403.1039,530.2337 389.6037,524.1095 372.0456,515.2549 352.6481,504.5262 335.4695,494.3632 313.4853,480.4118 293.497,467.1315 268.6538,449.7005 247.1312,433.9362 217.5273,411.1021 197.7889,395.1696 175.957,376.6282 169.5218,370.5963 166.7487,367.4085 169.6299,368.8265 176.8398,373.7383 238.5575,419.2904 258.1323,433.1032 278.8155,447.1581 299.5953,460.758 317.2241,471.6858 336.0819,482.6692 354.7109,492.7951 369.6066,500.2661 385.1747,507.3411 402.1272,514.2927 417.9543,520.1218 432.2453,524.5952 448.9224,529.0415 489.5447,537.4708 496.573,539.7424 501.8536,542.756 504.4064,544.9519 507.2678,548.6679 508.5985,551.0231 510.2686,555.3279 512.3737,564.3434 515.886,590.5412 518.4225,602.8034 520.1991,608.625 522.8241,614.9722 525.8819,620.8231 530.2182,627.0538 536.1764,634.007 543.375,641.0 559.0681,653.4842 570.0,661.0 577.6147,665.8237 594.5708,675.8619 607.0091,682.7241 624.6923,691.8613 640.3502,699.2876 660.9352,708.2681 678.3901,715.2305 696.4537,721.7188 714.6745,727.5641 731.3407,732.2311 747.8519,736.1313 763.946,739.1985 779.9311,741.4849 794.8123,742.8494 809.1915,743.3586 822.9048,742.9964 835.8302,741.7833 848.2562,739.694 859.813,736.7868 872.4472,732.3093 883.8989,726.8041 889.3958,723.5578 894.7122,719.9674 904.1554,712.2361 908.5652,707.8749 912.4897,703.4751 919.554,693.8912 925.6749,683.038 930.6373,671.2947 934.5296,658.4248 937.2029,644.8706 938.6979,630.3266 938.9437,615.2857 937.9505,599.5916 935.7242,583.2046 932.2775,566.2087 927.6249,548.7454 921.7806,530.9565 914.7591,512.9836 906.7568,495.343 897.8169,478.0867 887.6265,460.6244 876.5184,443.5564 864.5911,427.0126 851.6986,410.8301 838.4185,395.7401 824.882,381.8245 811.2086,369.1516 796.9113,357.2778 781.9436,346.1764 766.8807,336.2822 751.4688,327.4219 735.7959,319.684 725.2145,315.1794 714.4139,311.1845 703.7579,307.8523 693.3775,305.2033 682.5783,303.0378 671.6295,301.4482 660.9581,300.4949 650.1915,300.1398 639.7377,300.3904 629.2482,301.2455 618.7671,302.7212 608.6714,304.7493 598.2921,307.4733 588.1814,310.7394 578.1891,314.5855 568.3527,319.0027 560.3317,323.0886 552.6754,327.4089 537.274,337.3829 521.8125,349.136 506.8759,362.3037 498.9181,370.1332 491.125,378.375 482.4453,388.1602 473.9224,398.3765 459.8051,416.7064 432.6962,454.2792 427.6376,460.7117 422.7142,466.3214 415.6263,473.2155 408.9305,478.1619 401.809,481.757 394.312,483.9438 388.2811,484.728 382.0763,484.8361 376.2048,484.243 369.2354,482.9061 362.2534,481.1689 354.8468,478.7634 344.5724,474.8255 335.6928,470.9736 317.01,461.6604 292.816,447.9265 267.9667,432.1019 253.329,422.0847 243.8906,415.0312 248.2265,417.5495 264.6337,428.3648 289.7363,444.2767 312.1714,457.8049 327.5783,466.4458 344.1066,475.2854 358.9934,482.5685 385.125,494.1601 406.6043,502.6271 410.357,504.571 410.7129,505.166 410.1855,505.4199 407.3281,505.375 400.5027,504.0596 391.1813,501.2456 378.9482,496.7827 359.4427,488.2887 336.0268,476.3771 311.9591,462.5993 283.2853,444.5352 258.4097,427.513 243.2092,416.3813 236.037,410.5463 289.9666,445.3171 314.25,459.875 328.9244,468.1474 351.4399,479.9396 373.9355,490.3648 383.5104,494.3657 416.0182,507.0187 419.2726,508.7876 419.378,509.613 418.584,509.909 416.6855,510.0247 413.599,509.708 406.1394,508.228 397.9542,506.0193 385.1527,501.5769 364.2924,492.767 338.8877,479.8573 312.7076,464.894 284.1988,446.799 252.2806,424.7232 234.2172,411.2819 228.25,406.5 226.6513,404.843 229.125,406.125 262.0029,428.1741 287.1163,444.4488 309.2485,458.0641 325.8935,467.5878 353.4784,482.027 376.224,492.5822 386.0219,496.683 402.5887,503.0357 426.25,511.625 429.0173,512.9875 430.125,513.875 430.179,514.784 428.5813,515.4543 422.4098,515.5296 413.249,514.053 401.6801,510.8379 390.9704,507.1849 379.3409,502.5945 362.9486,495.0634 351.6487,489.4251 338.3543,482.2776 323.3259,473.6621 305.4383,462.763 270.349,439.6901 238.0836,416.3625 220.4431,402.6336 215.1097,397.7729 221.4476,401.5551 258.9301,427.3646 282.0451,442.5746 304.345,456.5355 327.0036,469.661 340.0635,476.8042 352.7672,483.3127 366.9875,490.1219 379.7502,495.8152 403.687,505.2141 432.8392,514.8912 440.7637,517.9102 443.625,519.9062 444.125,521.0 443.6691,521.8462 443.0007,522.3156 439.7229,523.2431 432.719,523.434 422.4444,522.088 411.0478,519.3369 399.1989,515.3556 386.8936,510.6163 371.0167,503.4156 357.7939,496.7423 340.3798,487.2791 323.9864,477.6978 304.2194,465.5101 286.81,454.0897 266.9706,440.5059 246.2384,425.5455 227.8735,411.7279 207.5087,395.5582 201.883,390.6595 199.5608,388.208 201.7969,389.3125 207.3274,392.9688 254.6674,426.2991 287.8272,448.2113 314.4915,464.6427 341.901,480.0655 366.9439,492.6403 379.8296,498.5336 390.2764,502.9175 402.6774,507.6272 416.9131,512.5655 455.625,524.1719 459.25,525.75 461.2592,527.0622 462.5631,528.331 463.1523,529.6777 463.1655,530.783 462.4139,532.1418 461.0934,533.3491 456.8985,535.3654 450.802,536.444 446.2519,536.6289 441.4393,536.3983 430.117,534.559 420.3958,531.988 406.3545,527.1098 391.6394,521.0217 377.662,514.459 357.3971,503.8648 341.296,494.6432 319.5986,481.4483 301.7926,469.9093 277.2955,453.2066 254.4425,436.7637 229.0333,417.7502 204.9979,398.6991 185.5208,382.3192 178.3528,375.7373 176.7376,373.686 179.0442,374.8244 185.7739,379.4863 246.6121,423.5488 280.7072,446.9945 298.1828,458.2804 315.8877,469.1453 333.0679,479.1327 348.8646,487.7355 365.2068,496.011 381.4093,503.5828 395.5755,509.6034 409.5813,514.9127 424.0609,519.762 436.3395,523.3177 479.5188,533.6119 484.0685,535.1875 488.4689,537.5062 490.9983,539.6006 492.76,541.754 493.75,543.75 494.629,546.7733 494.8712,549.525 494.5651,552.6525 493.795,555.736 492.6217,558.5976 491.0655,561.3295 489.219,563.736 486.9497,565.9328 484.3835,567.7397 481.8878,569.0225 478.9796,570.0027 475.4599,570.7356 471.9369,571.0409 466.2931,570.9874 462.1311,570.5965 455.9007,569.4712 449.8323,567.9755 433.0002,562.0839 415.9951,554.5635 398.8524,545.9691 376.0405,533.3455 353.3321,519.5413 329.5576,504.2486 301.2729,484.8531 275.3125,466.2407 244.6406,443.1696 218.4579,422.5914 185.5767,395.4382 158.8492,372.2872 135.7994,351.0241 129.7929,344.7405 127.7595,341.7329 128.5898,341.7335 131.0155,343.1957 142.68,351.6917 200.1727,396.4107 233.6198,421.7523 257.5087,439.2048 280.6828,455.4437 307.5213,473.2789 332.2142,488.571 355.9829,502.042 379.2515,513.9648 399.1708,523.109 417.1914,530.3655 435.4698,536.563 454.5459,541.8417 468.822,544.9606 483.9578,547.2911 498.5948,548.8374 523.5601,550.6507 532.5368,551.6067 540.1302,553.1517 546.3646,555.2412 553.0428,558.7626 558.5156,562.4996 566.565,569.409 582.2369,584.3094 594.0885,594.518 603.4898,601.839 615.4926,610.3576 631.3223,620.0635 645.3395,627.5816 660.8908,634.8876 676.7271,641.0697 689.2524,645.2297 701.1501,648.4876 713.9784,651.2722 726.9463,653.3866 737.9031,654.4437 749.0151,654.7672 760.1037,654.2923 769.9485,653.0874 778.5649,651.2829 786.5959,648.867 793.9571,645.8985 800.8926,642.2639 807.0275,638.1537 812.7538,633.3346 817.9759,627.8169 822.3826,621.937 826.1657,615.4442 829.1399,608.6884 831.6193,600.9501 833.3174,592.998 834.3107,584.5543 834.5593,576.0778 834.0844,567.2349 832.8876,558.1225 830.8738,548.2077 828.0925,538.0781 824.6871,528.1993 820.575,518.3014 815.9504,508.8346 810.3943,498.9715 804.2898,489.3935 797.8622,480.3897 790.7154,471.4234 783.3711,463.1732 775.9153,455.671 767.7018,448.2843 759.1006,441.3514 749.9951,434.8301 740.7434,429.0146 731.7238,424.1023 723.3155,420.1873 714.8365,416.8697 706.4438,414.1584 697.7791,411.9495 689.2558,410.3638 680.9038,409.3846 672.7531,408.9953 664.274,409.2 655.9231,409.9938 647.5544,411.4063 639.5643,413.3631 631.6047,415.9351 623.608,419.1791 616.0875,422.885 608.7853,427.1627 601.7203,432.0061 594.625,437.625 587.7186,443.8921 581.3097,450.5752 575.4105,457.6567 570.0347,465.0819 565.0345,473.0611 560.4667,481.5637 556.61,489.9984 553.3344,498.9716 550.3738,509.2763 548.6203,517.7161 547.4596,526.5326 547.1204,534.3987 547.5584,544.034 548.3912,550.8917 549.9092,558.2591 551.7737,564.5695 554.543,571.6846 556.9332,576.7561 560.1484,582.3215 563.8484,588.0782 567.2715,592.5767 573.9636,600.2941 579.1079,605.5997 585.5041,611.4976 591.7828,616.7689 607.9893,628.6121 624.896,638.966 642.6611,648.481 663.832,658.1029 681.4298,664.7672 704.3963,671.9131 714.0625,674.3782 724.0604,676.5259 733.9562,678.2562 743.6783,679.5731 752.3232,680.3864 761.0034,680.7904 769.75,680.7656 778.4966,680.2831 786.8017,679.3664 794.6192,678.0523 804.5075,675.6248 813.7883,672.4031 822.3586,668.4364 830.1446,663.7816 837.0985,658.5026 843.2256,652.6293 848.8925,645.7455 853.6839,638.326 857.7655,630.133 860.9438,621.5749 863.3391,612.344 864.8585,602.7393 865.5537,592.3964 865.3803,581.5076 864.368,570.5365 862.5066,559.1995 859.7779,547.5673 856.138,535.6291 851.5879,523.4045 846.2136,511.1244 840.0565,498.8994 833.3593,487.1719 825.9996,475.7028 818.0155,464.5937 809.4053,453.8791 800.2873,443.6758 790.7518,434.0657 780.8667,425.1037 770.6997,416.8444 760.3188,409.3427 749.9157,402.7264 738.711,396.521 729.3362,392.0101 719.6538,387.9894 710.0561,384.6387 700.5737,381.9519 691.2375,379.9227 681.914,378.5258 672.4532,377.7274 662.8861,377.5378 653.2577,377.9948 643.9795,379.0729 634.7086,380.8024 625.8305,383.0996 616.7394,386.1256 607.9504,389.7287 599.3732,393.9479 591.3535,398.5778 583.2805,403.9639 575.1749,410.132 567.3835,416.7885 560.032,423.835 553.1558,431.2264 546.4174,439.3375 540.0784,447.8139 533.922,456.9901 525.1061,472.1651 516.1274,490.8745 508.4385,510.7931 500.347,535.473 497.4676,543.4398 493.5403,552.4411 489.9927,558.2183 487.529,561.0856 484.71,563.659 481.8349,565.5528 478.3136,567.1744 474.5576,568.2424 470.7984,568.8352 466.7813,568.9399 461.75,568.625 456.9071,567.9239 450.3745,566.4134 443.8013,564.5941 436.8415,562.2232 421.3539,555.9208 401.8251,546.5346 384.181,537.081 362.5512,524.5232 342.0147,511.6978 319.1088,496.634 294.5696,479.4733 264.1284,457.3482 238.9299,438.058 208.8743,414.223 182.562,392.3804 156.9572,370.173 137.6985,352.0914 131.3803,345.5714 129.5865,343.0221 130.6764,343.2173 133.3005,344.797 143.1268,351.9067 204.2321,399.3015 231.5905,419.9733 256.4996,438.1292 280.1525,454.7116 305.7765,471.6715 331.0324,487.2685 355.6433,501.3191 377.576,512.6468 396.6626,521.4376 415.4933,529.1202 432.5378,535.1507 449.3355,539.9847 465.4904,543.6299 481.4137,546.3532 495.4861,547.9219 522.1293,550.048 532.0205,551.357 538.3666,552.7246 545.4062,555.3438 550.3189,557.9276 557.4002,563.0168 565.6046,570.4727 582.0347,586.362 587.5833,591.2966 599.3824,601.0724 614.6625,612.0074 627.7737,620.1691 642.2886,628.1183 661.0208,636.9096 674.6215,642.3161 688.5605,646.986 701.5962,650.7145 714.1225,653.5262 726.7273,655.5967 738.4987,656.8048 749.913,657.1814 760.9709,656.7429 771.8749,655.4392 780.4383,653.6485 788.4453,651.2198 796.1633,648.0705 803.1625,644.3738 809.6445,640.0303 815.1315,635.3837 820.4117,629.766 824.9066,623.7391 828.8067,617.0781 831.8949,610.186 834.3453,602.6649 836.0347,594.8866 837.0826,586.2321 837.374,577.488 836.9407,568.3674 835.7561,558.9334 833.7324,548.9542 830.9685,538.9024 827.4614,528.7174 823.2284,518.486 818.4688,508.645 813.0642,498.9197 806.9992,489.3262 800.3532,479.9439 793.2221,470.9081 785.6547,462.2903 777.6997,454.1621 769.6873,446.8373 761.1051,439.8677 751.9758,433.2824 742.7031,427.3789 733.3421,422.1829 724.6187,418.014 716.2447,414.6207 707.6537,411.7678 698.9592,409.4872 690.038,407.7574 681.3102,406.6724 672.797,406.2071 664.1655,406.3555 655.8149,407.1203 647.0352,408.5502 638.7039,410.5269 630.4499,413.1431 622.6377,416.2847 615.0418,420.0215 607.4078,424.4744 600.3839,429.2452 593.0674,434.9876 585.78,441.5716 579.1149,448.4645 573.0262,455.7097 567.4926,463.3151 562.0396,471.9898 557.4639,480.4326 553.3358,489.3872 550.0955,498.0201 547.3979,507.2672 545.2831,516.6753 543.9336,525.926 543.368,533.9349 543.5577,542.6794 544.2591,550.3719 545.8245,558.6664 547.1656,563.8185 549.3723,569.8835 552.1929,576.5154 555.4025,582.4812 559.2389,588.6465 562.7575,593.4746 568.9472,600.9273 573.732,605.9875 585.5214,616.8664 602.3648,629.4695 610.3379,634.6693 621.2865,641.2369 637.3767,650.0178 657.6004,659.571 677.5878,667.4504 699.7176,674.7131 710.1363,677.5656 720.5777,680.0317 740.0066,683.5238 748.9617,684.5787 758.0634,685.2604 767.2499,685.5334 776.0761,685.3791 784.8693,684.7862 792.7972,683.8019 803.2637,681.7067 813.4838,678.6663 822.6277,674.9488 831.3203,670.3253 838.797,665.2233 845.6383,659.2854 851.8677,652.4378 857.1793,645.0117 861.7461,636.7544 865.3415,628.0644 868.0933,618.6531 869.9909,608.4702 870.9891,597.6096 871.0641,586.5337 870.2305,574.9553 868.5318,563.3598 865.8039,550.9185 862.1326,538.2073 857.5466,525.3137 852.2362,512.7088 846.1178,500.1575 839.22,487.7715 831.7937,475.994 823.4954,464.2765 814.3777,452.723 804.7139,441.7076 794.5842,431.3162 784.0688,421.6343 773.2479,412.7477 762.433,404.8914 751.1001,397.6435 739.7251,391.3134 730.4215,386.8129 720.8074,382.7873 711.258,379.4113 701.8034,376.6813 692.2292,374.5441 682.4627,372.9772 672.5648,372.0185 662.9604,371.7131 653.6617,372.0264 644.3287,372.9713 635.3537,374.509 626.4196,376.6762 617.2551,379.5384 608.581,382.8804 600.0458,386.812 591.6872,391.3224 583.7765,396.2297 575.7685,401.8675 568.4045,407.7067 561.0843,414.1982 553.6353,421.5615 546.624,429.2351 540.1338,437.1308 533.9498,445.4841 523.8043,461.0733 515.3578,476.2826 510.4428,486.548 504.2845,500.6674 492.3975,529.9337 487.794,538.9769 483.1767,545.7111 480.2877,548.823 477.592,551.0904 474.6767,552.9484 471.2719,554.5401 468.0276,555.5584 464.0238,556.2968 459.6933,556.6152 455.3829,556.5122 445.3737,555.124 432.6263,551.8801 418.1896,546.6094 404.6102,540.6647 384.2799,530.4235 365.4748,519.9874 344.8422,507.6769 321.2217,492.5621 299.3637,477.974 276.5806,461.8395 251.199,443.1027 226.1535,423.6968 198.672,401.6522 175.0563,381.6795 153.5744,362.5814 147.0258,356.135 144.4992,352.9591 145.2415,353.0673 147.3558,354.2823 155.6145,360.0324 229.9219,416.3736 252.8206,432.9617 276.1846,449.2065 300.4689,465.3605 320.7969,478.0963 342.1171,490.5439 363.3044,501.9708 381.2243,510.8014 398.9233,518.5684 416.7713,525.4249 434.1201,531.1452 450.5858,535.5619 469.2396,539.5086 479.8156,541.2009 506.8968,544.6923 513.9817,545.932 522.4007,548.1722 529.0355,551.4034 533.3133,554.385 538.8009,559.6157 545.364,567.389 557.0452,582.2662 562.7764,588.842 571.3169,597.8522 582.8657,608.3843 597.2407,619.6197 614.375,631.0 625.5423,637.568 642.1769,646.2874 660.0465,654.4068 681.5926,662.6726 700.9685,668.7198 720.1375,673.3833 738.7542,676.4703 756.853,677.9968 764.9148,678.1657 772.8879,677.9203 780.472,677.2768 788.0053,676.2156 798.022,674.0892 807.7704,671.1264 816.0739,667.7122 824.0067,663.4364 831.4628,658.2782 838.0603,652.4885 843.7796,646.1591 848.851,639.021 853.1787,631.1557 856.7653,622.5049 859.4432,613.4837 861.2958,603.8097 862.234,593.9419 862.2905,583.4945 861.4571,572.454 859.8061,561.338 857.231,549.5308 853.7714,537.489 849.5763,525.6985 844.5509,513.8806 838.6332,501.9273 831.8008,489.8203 824.2415,477.9574 816.2439,466.7593 807.9118,456.2998 799.0802,446.3606 789.4277,436.6629 779.3692,427.5792 769.045,419.22 758.5145,411.6298 747.837,404.8531 737.0719,398.9344 727.7247,394.5363 718.0877,390.6742 708.5671,387.4849 698.8145,384.8588 689.2398,382.9131 679.5138,381.5867 670.0382,380.9408 660.5616,380.9554 650.8877,381.6415 641.6105,382.9539 632.3647,384.9295 623.5415,387.4669 614.4824,390.7688 605.6584,394.7004 597.2226,399.1709 589.0639,404.2231 580.919,410.0477 573.141,416.3939 565.3854,423.5149 558.1339,430.9945 551.4275,438.7784 545.1356,446.9838 538.7823,456.1703 532.9489,465.6207 524.6133,481.5488 517.4572,498.3745 511.2522,516.5786 500.2469,555.1005 497.1523,562.8633 493.6858,568.7726 491.5139,571.4444 488.9878,573.7106 486.441,575.3039 482.855,576.8987 479.6636,577.7711 475.6642,578.2749 467.5159,577.9925 463.0533,577.3885 457.7122,576.123 449.0426,573.5669 441.6293,570.9089 425.5489,564.076 404.6594,553.6611 386.4893,543.5464 362.7052,529.2908 339.4714,514.4099 316.0987,498.6453 289.3151,479.5962 262.419,459.6686 233.652,437.3097 202.1387,411.9931 174.6999,388.8474 147.6003,364.981 126.3353,344.8395 120.2687,338.5518 118.2731,335.6991 118.4046,335.4337 118.8906,335.4688 120.601,336.2736 127.9993,341.3404 196.431,394.9736 220.3518,413.3954 251.6847,436.7103 280.2563,456.9808 307.9268,475.3851 335.0703,492.1692 361.6209,507.2745 384.2785,518.8236 404.4797,527.8638 424.5637,535.664 443.4141,541.8545 461.8929,546.6487 476.4455,549.4972 490.8051,551.5223 506.4981,552.8298 539.1029,554.272 548.388,555.3883 555.3908,557.1821 563.0087,560.3519 571.9816,565.9831 581.5537,573.4365 602.9024,590.9753 612.6442,598.1087 622.3769,604.6709 633.347,611.3278 642.5879,616.5 652.8472,621.5231 665.5902,627.204 678.1703,631.9623 692.3037,636.4312 703.8624,639.3425 715.8919,641.6045 728.1352,643.1933 738.7888,643.7807 749.8866,643.493 760.4998,642.3092 768.4048,640.7418 775.7683,638.6215 782.8684,635.8668 789.2813,632.6418 795.2405,628.835 800.3658,624.6934 805.0662,619.9442 809.2775,614.6073 812.9354,608.7023 815.8239,602.6217 818.2216,595.7352 819.9569,588.4233 820.9979,581.0056 821.3993,573.2035 821.1188,565.0746 820.1687,557.0067 818.4186,547.9528 816.0672,539.0471 813.0602,530.0288 809.3976,520.9804 805.2648,512.3421 800.4967,503.7628 795.0482,495.1561 789.0857,486.7988 782.655,478.7595 775.8019,471.1069 768.8461,464.1673 761.3144,457.4686 753.2838,451.0673 745.0726,445.2465 736.7188,440.0442 728.2606,435.4986 721.0504,432.1936 713.3462,429.2239 705.6913,426.7852 697.7574,424.7892 690.3229,423.413 682.669,422.505 675.1963,422.1326 667.8339,422.2766 660.2953,422.9433 653.057,424.1011 646.119,425.7132 639.1405,427.861 631.8733,430.6932 625.0456,433.9117 618.6673,437.4608 612.4232,441.5228 606.3681,446.1124 600.2008,451.5406 594.4811,457.3312 589.1354,463.5469 584.2869,470.0074 580.1639,476.3792 576.3064,483.3742 572.625,491.25 569.9853,498.0141 567.7269,505.3241 565.9642,512.932 564.8278,520.3456 564.313,527.445 564.337,534.731 564.979,541.637 566.2823,549.139 567.6945,554.707 569.7372,560.8075 571.8649,566.1075 574.422,571.1445 582.0378,582.9902 591.6169,594.136 601.072,603.1882 612.9731,612.7519 628.8872,623.3048 642.8941,631.3182 659.4377,639.3797 676.8783,646.421 694.596,652.4147 711.8211,656.8183 728.9465,659.8456 744.7991,661.2941 752.8343,661.4815 760.8863,661.2764 768.5167,660.6908 775.3099,659.7704 784.257,657.8951 792.6099,655.3707 800.6379,652.1007 807.8816,648.2629 814.2448,643.9553 820.1569,638.9152 825.5381,633.1473 830.0965,626.9817 834.0323,620.1643 837.1683,612.9857 839.6749,605.0133 841.3938,596.7934 842.4069,588.0669 842.6774,578.8935 842.2078,569.7562 840.9579,560.0518 838.8415,549.5811 836.0215,539.2253 832.4502,528.7346 828.1374,518.2029 823.0929,507.7243 817.5578,497.7661 811.0972,487.4845 804.2724,477.786 796.9432,468.4315 789.1616,459.5069 781.2492,451.3601 772.902,443.6797 763.8893,436.2813 754.341,429.3166 744.9548,423.2769 735.1472,417.7741 726.2892,413.4934 717.4513,409.8712 708.1395,406.7327 698.8892,404.2673 689.7963,402.4767 680.5237,401.3047 671.4871,400.8144 662.7196,400.9801 653.8485,401.7884 644.9343,403.2486 636.095,405.3898 627.7168,408.1111 619.4675,411.5071 611.029,415.7408 602.9684,420.5084 595.5372,425.6326 587.895,431.7666 580.5224,438.6374 573.5634,446.0229 566.9544,454.0498 561.0063,462.3298 555.6095,471.0149 550.9514,479.7825 546.6456,489.3058 543.0333,498.9879 540.0092,509.0834 537.8889,518.5278 536.4043,528.3008 535.8054,537.0834 535.8878,545.9609 536.9298,556.1455 538.459,563.751 540.4333,570.6822 542.6456,576.6861 545.4345,582.9487 548.5656,588.535 552.7222,594.9178 557.308,600.8695 562.9784,607.4844 569.083,613.5345 575.8575,619.7268 582.1716,624.8605 592.5031,632.4936 602.2678,639.1462 619.5537,649.5692 642.3625,661.3574 652.0485,665.8533 663.1531,670.5597 687.1844,679.5971 708.8079,686.1525 730.6679,691.3136 740.5463,693.0715 750.6464,694.455 760.5378,695.3942 770.1618,695.8982 779.3971,695.9797 788.1324,695.6164 796.493,694.8158 804.7976,693.5376 815.557,691.0655 825.6241,687.7618 835.1064,683.5569 843.6688,678.592 851.4182,672.8717 858.5703,666.2021 864.7822,658.8684 870.2436,650.6075 874.6208,641.9353 878.1949,632.3523 880.8884,621.9484 882.6021,611.1638 883.3899,599.7152 883.2243,588.079 882.1303,576.1272 880.0708,563.5354 876.9801,550.2008 872.9161,536.5781 867.8942,522.7882 862.0987,509.3156 855.6159,496.2711 848.1675,483.1397 839.9535,470.2585 830.8402,457.4405 821.3438,445.4062 811.3198,433.9314 800.8384,423.1094 789.9695,413.0335 778.7863,403.7811 767.0017,395.091 755.0818,387.3215 742.7609,380.3145 733.4341,375.6832 723.8091,371.5061 714.2544,367.969 704.6995,365.0506 694.5702,362.5914 684.6567,360.797 674.9733,359.6356 665.1616,359.0653 655.6298,359.1097 646.0446,359.768 636.7962,361.0108 627.2589,362.9228 618.0211,365.3877 608.8711,368.4626 599.8564,372.1507 591.3421,376.2767 583.3169,380.7781 574.8539,386.1763 566.7799,391.9464 559.0133,398.1348 551.5806,404.7091 544.5,411.625 537.1992,419.4688 530.3857,427.5143 519.9626,441.4047 509.7743,457.0369 499.4785,474.9121 486.2976,500.7433 480.1748,512.0028 475.277,519.8133 470.4008,525.847 467.2862,528.9018 464.3343,531.2806 461.1624,533.253 457.7353,534.8564 454.2512,536.0426 450.5427,536.8527 446.0582,537.3492 441.7408,537.4374 432.3635,536.538 422.6994,534.442 408.1742,529.9213 395.1204,524.744 380.2565,517.9153 363.789,509.4001 345.9759,499.444 325.9212,487.3855 308.2425,476.1919 288.216,462.6875 266.5574,447.5551 245.6456,432.0999 220.5031,412.8741 199.0746,395.6181 178.8539,378.5045 171.1865,371.4433 168.9714,368.8781 171.458,369.8978 176.9035,373.517 237.9664,418.5132 260.5207,434.4435 282.394,449.3493 299.2169,460.2567 316.9234,471.1246 335.4575,481.8902 352.1264,491.009 367.619,498.7769 383.4803,506.0585 400.1932,513.0938 414.6703,518.4773 429.3445,523.1951 444.151,527.3012 479.9455,534.8647 488.9569,537.0424 493.844,538.7435 499.0417,541.7361 502.2637,544.8994 504.541,548.0589 506.5521,553.0732 507.5938,558.3281 508.1557,564.8124 508.261,573.3137 507.6755,580.3269 506.5952,586.9999 505.3717,591.7635 503.677,596.1004 501.565,599.5423 499.1136,602.0351 496.1888,603.8289 492.8814,604.9426 489.0543,605.4313 484.2529,605.2998 479.9131,604.5303 472.8867,602.7278 458.0672,597.2073 438.3795,587.861 414.4208,574.8508 386.6045,558.0357 366.252,544.8342 334.5387,523.2651 302.2412,500.0385 273.5898,478.6816 242.6616,454.4924 209.4213,427.6362 179.3172,402.1506 144.3496,371.2876 117.0453,345.9353 104.439,333.6528 94.7738,323.7639 89.3885,317.5393 88.0622,315.5334 87.8222,314.5874 88.3202,314.4085 89.2435,314.7238 92.5147,316.6801 105.7281,326.6125 190.9713,395.6936 216.118,415.5495 239.9959,433.9073 260.4794,449.1921 278.9725,462.4921 297.945,475.5886 316.9101,488.1138 338.4612,501.6196 359.1064,513.7543 377.7106,523.8804 395.9315,532.9211 414.1085,541.0271 431.9859,548.048 449.2292,553.8423 466.0026,558.4519 478.2748,561.1342 490.2442,563.1617 502.6758,564.6407 514.5252,565.4402 524.9531,565.625 535.635,565.346 565.4917,563.1151 576.0138,562.628 583.5886,562.7401 591.1438,563.6578 599.1538,565.6329 609.2746,569.7266 645.1653,589.6311 661.7896,597.6733 673.2823,602.189 687.87,606.8359 696.7941,609.0065 705.9884,610.6909 713.5502,611.5839 721.1587,611.9442 729.4959,611.7519 736.7633,611.0188 743.9342,609.5786 750.48,607.5747 755.3448,605.5939 759.3973,603.5178 763.569,600.8584 767.1626,598.0413 770.456,594.8925 773.3974,591.4275 776.0399,587.5355 778.16,583.6351 780.089,579.0887 781.4981,574.6234 782.5193,569.9269 783.1189,565.1016 783.3164,559.7629 783.0938,554.5761 782.4103,548.8543 781.3489,543.4097 779.8707,537.912 777.8364,531.9609 772.643,520.2377 766.3375,509.5005 758.6954,499.3445 749.8619,489.8536 740.1441,481.4256 729.2792,473.9304 718.2574,467.9861 708.7424,464.1916 698.4148,461.3882 688.5621,459.8665 678.6957,459.5761 668.5417,460.5833 658.976,462.7705 649.9109,466.2309 641.1028,471.002 633.4429,476.6621 626.4461,483.5201 620.4494,491.2639 615.8297,499.3684 612.3814,508.138 610.248,517.098 609.3679,527.642 610.0133,536.4784 611.7933,544.7194 614.4701,552.1669 618.7818,560.7484 623.6158,567.9646 629.912,575.6488 636.5413,582.1806 645.064,589.2524 654.086,595.3459 664.4207,601.3294 674.7053,606.2395 686.2865,610.7609 697.2215,614.0157 709.3756,616.6346 719.5996,617.9367 731.0527,618.2922 741.3996,617.5822 747.4844,616.5263 753.413,614.9958 759.1049,613.0085 764.5407,610.5292 769.3978,607.6377 773.6405,604.4602 777.8094,600.5647 781.2888,596.4905 784.3277,591.9936 786.892,587.0978 788.9655,581.7891 790.4104,576.4936 791.3367,570.8992 791.7415,564.7591 791.632,558.2709 791.0277,551.9146 789.9079,545.3991 788.2442,538.786 786.1518,532.4948 783.3918,525.6813 780.1449,518.896 776.4262,512.1994 772.2508,505.6519 767.875,499.625 762.7857,493.3884 757.3613,487.4335 751.9082,482.078 746.1986,477.0826 740.2558,472.4981 734.1044,468.3472 727.3421,464.341 720.8609,461.0251 709.8632,456.5484 698.8867,453.4986 687.7818,451.7551 676.7325,451.4019 665.7747,452.4774 655.3388,454.8929 645.4315,458.6407 635.8264,463.8184 631.4634,466.7895 627.1293,470.2132 623.045,473.9356 619.2379,477.9298 612.5905,486.5587 609.4628,491.5812 607.0602,496.1503 604.9413,501.0493 603.0964,506.306 601.6453,511.416 600.6619,516.3397 600.0025,521.9525 599.7392,527.9062 599.9086,532.5145 600.497,537.403 602.6885,547.0916 606.2745,556.3945 610.6616,564.7348 616.8938,573.3853 623.8283,581.3094 633.5628,590.191 641.7475,596.4202 652.4906,603.3822 663.7237,609.4945 676.4893,615.2266 688.5586,619.5132 702.0849,623.2662 713.9294,625.5569 725.6815,626.7857 736.7224,626.9806 747.3721,626.0949 754.4555,624.848 760.9792,623.1567 767.0589,620.974 772.541,618.3853 778.0419,615.0672 782.8505,611.4099 787.1314,607.3448 790.8541,602.8984 794.1256,597.9494 796.7331,592.8782 798.8492,587.4128 800.4704,581.3806 801.5381,574.828 802.0065,568.2597 801.9189,561.4 801.2483,554.3078 799.9677,547.0414 798.0341,539.5123 795.5193,531.8687 792.4395,524.1849 788.8088,516.5413 784.8425,509.3567 780.4537,502.4293 775.3605,495.3314 769.8418,488.4908 764.2079,482.2488 758.2683,476.3594 752.0638,470.8798 745.3182,465.6095 738.2059,460.6789 730.9531,456.2656 723.6059,452.4053 711.8362,447.492 705.2994,445.407 698.8023,443.7368 692.7796,442.5608 686.4853,441.732 680.6664,441.348 674.6027,441.3608 668.2051,441.8064 661.988,442.6349 656.0139,443.834 649.9381,445.5034 644.4804,447.4366 638.8291,449.9091 633.2752,452.8 628.0953,455.9625 622.9772,459.596 618.1942,463.5173 613.572,467.8644 609.177,472.6281 605.2509,477.5411 601.4571,483.0261 598.2417,488.4479 595.5421,493.8303 593.0036,499.9169 590.9902,505.8632 589.5536,511.5147 588.517,517.4391 587.9332,523.1261 587.8222,528.5539 588.168,534.6202 588.9681,541.0248 591.3125,550.1378 595.5056,560.6636 601.1969,570.5957 607.4193,578.943 615.7891,588.0709 624.5926,595.8056 635.645,604.1022 648.7337,612.2093 661.3335,618.8652 676.3794,625.2928 690.0694,630.1187 704.1725,633.9469 717.2156,636.4473 730.4517,637.8301 743.7732,638.0873 755.5501,637.0895 763.0342,635.7171 770.3081,633.743 776.9606,631.2753 783.3891,628.1625 789.1592,624.6059 794.5263,620.4385 799.1444,615.9244 803.0919,611.0546 806.7197,605.3478 809.6327,599.3978 811.9793,592.9567 813.6251,586.456 814.669,579.5818 815.1095,571.8856 814.8993,563.9941 814.0832,556.1834 812.5582,547.7688 810.439,539.571 807.6341,531.2185 804.1837,522.7344 799.9896,513.9393 795.3953,505.5884 790.2707,497.4184 784.8707,489.8162 778.7976,482.2419 772.3521,475.0413 765.2874,467.9714 758.1915,461.6287 750.8424,455.7841 743.5891,450.6893 735.5075,445.7307 727.4895,441.4572 720.5013,438.2394 713.5193,435.4881 706.5634,433.2061 699.3098,431.3183 692.0127,429.9208 684.9093,429.0154 677.6053,428.5629 670.5085,428.603 663.627,429.1112 656.625,430.125 649.5337,431.6697 642.7869,433.6401 636.3846,436.0024 630.0004,438.8839 624.0,442.125 618.24,445.7619 612.2968,450.1119 606.8464,454.7242 601.6085,459.8185 596.3981,465.6422 591.9079,471.4135 587.7806,477.5482 584.0915,483.9467 580.9484,490.3803 578.0981,497.4004 575.6433,504.81 574.0908,510.9852 572.9475,517.7212 572.2679,524.8336 572.1793,531.3719 572.6974,538.8031 573.6808,545.601 575.0029,551.154 576.9863,557.2833 578.9617,562.1599 581.6512,567.5937 585.3173,573.9383 588.1986,578.2441 597.2106,589.3015 605.9559,597.9325 617.3731,607.3453 631.4348,616.9369 644.4442,624.5888 660.0844,632.465 674.8603,638.5944 692.8017,644.6724 709.1716,648.8899 725.6184,651.8575 739.9536,653.2338 754.8642,653.2479 762.1043,652.7052 768.955,651.8153 777.2284,650.1308 785.2763,647.7465 792.6583,644.7762 799.337,641.2803 805.7409,637.0107 811.4041,632.284 816.5871,626.8805 820.9746,621.1157 824.5693,615.0828 827.6337,608.2696 830.0964,600.7239 831.8083,592.9676 832.8456,584.7299 833.1635,576.0554 832.7549,567.4088 831.6545,558.6604 829.7167,548.9073 827.1298,539.2945 823.7133,529.2025 819.7218,519.4399 815.0562,509.733 809.7569,500.2 803.7091,490.6004 797.3296,481.5804 790.4659,472.8923 783.4165,464.8898 775.9882,457.3358 768.3249,450.3831 759.6858,443.3519 750.5332,436.7199 741.5519,430.9829 732.4819,425.9383 724.3512,422.0497 716.1708,418.7454 707.688,415.9191 699.3141,413.7034 691.0741,412.0765 682.6295,410.9817 674.3868,410.4818 666.0981,410.5637 657.6252,411.2499 649.4944,412.4967 641.7149,414.2619 633.9521,416.6212 626.2715,419.5938 618.7342,423.165 611.6361,427.1553 604.7367,431.6877 597.4995,437.2118 590.5694,443.3081 584.2241,449.6913 578.3466,456.4719 572.883,463.7181 567.8173,471.4955 563.4208,479.4169 559.5408,487.6358 556.15,496.1639 553.4028,504.692 551.3747,512.8514 550.0308,521.1067 549.2138,530.0429 549.163,537.7122 549.8351,546.5754 551.2346,554.4938 552.9428,561.1188 554.7736,566.5564 557.4614,572.8621 560.3828,578.4876 564.4042,584.9313 568.7421,591.1389 572.8588,596.073 578.9845,602.6568 584.8594,608.2656 592.0475,614.4606 604.1676,623.6035 620.7454,634.4676 639.8612,645.0126 658.6715,653.7967 679.7564,662.1319 699.8672,668.5513 720.363,673.6896 729.6104,675.4376 739.0669,676.8312 748.2951,677.8006 757.625,678.375 765.9759,678.4914 773.981,678.1924 781.5915,677.5068 789.1473,676.4033 798.8204,674.3008 808.2205,671.3948 816.8985,667.7678 824.8359,663.4505 831.979,658.5078 838.5712,652.7418 844.2729,646.424 849.2563,639.3945 853.6594,631.3927 857.1747,622.9327 859.9063,613.7597 861.7187,604.3176 862.6461,594.7154 862.7369,584.4257 861.9913,573.6126 860.4023,562.3835 857.9614,550.8305 854.6603,539.0458 850.4907,527.1215 845.666,515.6279 839.6761,503.3295 833.1037,491.4785 825.6342,479.5266 817.7202,468.2259 809.4605,457.6488 800.9448,447.8521 791.5569,438.1669 781.9652,429.2686 772.0944,421.0416 761.7014,413.3085 751.1525,406.3722 740.5187,400.2752 731.0945,395.6123 721.223,391.417 711.4373,387.9174 701.4007,385.0046 691.5273,382.8116 681.8532,381.3231 672.4146,380.5235 663.0574,380.3907 653.3763,380.9105 643.707,382.1149 634.4614,383.939 625.2952,386.4314 616.2614,389.5935 607.3014,393.4557 598.5259,397.9671 590.032,403.0844 582.1616,408.5497 574.3058,414.7685 566.4241,421.8159 559.047,429.2338 552.1924,436.9746 545.7254,445.1651 539.7485,453.6465 534.2047,462.492 529.5691,470.7422 524.9743,479.7255 517.2464,497.2666 510.458,516.7542 500.6196,551.0268 497.555,559.3409 493.8142,566.1459 491.3942,569.2164 489.2323,571.37 486.5214,573.3864 483.5149,574.9413 480.3143,575.9869 476.6319,576.635 472.4092,576.9406 468.3613,576.7089 462.3587,575.8998 457.9814,574.9607 442.1237,570.0465 425.6595,563.1553 407.377,554.1968 388.3328,543.7956 362.8447,528.6377 342.0648,515.3541 314.9391,497.1869 289.6031,479.1652 256.1858,454.4188 230.1248,434.1672 201.8895,411.3663 174.2709,388.0056 145.6544,362.6636 127.2761,345.0934 121.7153,339.1215 120.0605,336.5963 120.9303,336.6252 123.3107,337.9618 132.6344,344.6656 198.9867,396.7394 229.7256,420.2182 256.9565,440.2236 283.0495,458.6061 308.6372,475.6262 334.3475,491.4408 360.0475,505.9522 383.9231,518.1495 403.704,527.0333 423.2008,534.6332 442.698,541.0559 460.632,545.757 474.6432,548.5379 489.304,550.6396 504.7753,552.0025 536.4082,553.5887 546.0621,554.8776 552.625,556.5 561.1802,560.0409 569.4375,565.3438 601.8398,592.0212 621.1684,605.7707 630.9107,611.6771 642.4685,618.1239 652.9566,623.3187 664.6,628.5226 677.9627,633.5902 692.5699,638.2006 704.7649,641.2774 717.1475,643.615 729.3848,645.1849 740.4084,645.7407 751.8482,645.3794 762.75,644.125 770.5864,642.5321 777.9044,640.3602 784.974,637.5424 791.6902,634.0717 797.6044,630.1934 802.6987,626.0049 807.6276,620.938 811.8042,615.5358 815.435,609.5573 818.3043,603.3902 820.6728,596.4356 822.3524,589.1987 823.3906,581.5156 823.7513,573.4306 823.4317,565.3974 822.4466,557.16 820.6928,548.1826 818.2392,538.9994 815.094,529.698 811.265,520.3661 807.1306,511.8008 802.2977,503.1338 796.641,494.1978 790.4637,485.5136 784.0508,477.4518 777.2259,469.7682 770.2974,462.7928 762.9174,456.1791 754.5458,449.4817 746.3156,443.6318 737.9522,438.4023 729.4875,433.8252 722.2696,430.4853 714.665,427.5229 706.5642,424.9 698.5855,422.8306 690.7426,421.3078 683.0496,420.3247 675.5202,419.8744 668.1921,419.9463 660.5808,420.541 653.2906,421.6222 645.9491,423.2479 638.9339,425.334 631.9024,427.9759 624.6557,431.3004 618.1724,434.8448 611.8406,438.9063 605.4124,443.7281 599.1167,449.2232 593.0182,455.3262 587.5817,461.5566 582.3297,468.4605 577.897,475.1823 573.9425,482.1926 570.4625,489.4738 567.5425,496.7531 565.1117,504.3695 563.25,512.125 562.0341,519.5835 561.3923,527.0758 561.275,534.743 561.835,541.691 563.0968,549.5208 564.5358,555.1124 566.6515,561.2621 568.9239,566.8972 571.5144,571.9927 578.6439,583.2142 582.8333,588.5648 587.9664,594.4349 598.2791,604.3285 610.2175,614.0004 624.9209,623.9545 639.852,632.5507 657.4761,641.2413 676.3351,648.9983 693.3076,654.7373 711.5745,659.5062 728.7112,662.7181 745.3403,664.391 753.7577,664.6733 761.7677,664.5619 768.9697,664.0665 776.1475,663.1534 785.0988,661.3759 793.8235,658.8691 802.2138,655.5992 809.492,651.878 816.3694,647.3773 822.4736,642.3443 828.0443,636.5823 832.9993,630.0823 837.0037,623.3334 840.4655,615.6767 843.1023,607.6933 845.0153,599.1176 846.1155,590.3965 846.4518,581.2033 845.9977,571.6358 844.7566,561.4671 842.7287,550.9825 839.9074,540.2695 836.2862,529.4157 832.0248,518.8847 826.9371,508.2342 821.1682,497.7179 814.5603,487.0766 807.5668,477.0389 800.0483,467.3607 792.0565,458.1238 783.8191,449.582 775.048,441.4276 766.0007,433.9007 756.4232,426.8147 746.6764,420.4649 736.8244,414.8851 727.5692,410.3921 717.6778,406.3375 708.2104,403.1252 698.5053,400.5142 688.975,398.6333 679.6505,397.4689 670.5633,397.0068 661.2955,397.2295 651.8637,398.1639 642.8394,399.7502 633.5342,402.1262 624.7309,405.102 615.7953,408.8813 607.3963,413.1687 598.9732,418.2781 591.2133,423.8013 583.6371,430.0529 576.1868,437.1442 569.0968,444.9139 562.3757,453.3316 556.176,462.186 550.5342,471.4594 545.5156,480.9768 541.44,490.3454 537.4848,501.4279 534.7189,510.9321 532.227,522.1849 530.9519,531.4373 530.2825,541.6814 530.5748,552.5907 531.741,562.1781 533.6003,570.7067 536.0161,578.3374 539.2044,585.8095 542.1607,591.596 546.375,598.25 550.5399,603.9139 556.3228,610.7225 561.5432,616.1052 568.1686,622.2928 575.541,628.4382 585.1353,635.7172 604.2055,648.2365 622.5801,658.6723 644.4926,669.6146 669.6243,680.4071 690.9391,688.163 703.2072,692.0091 715.2957,695.3946 726.3073,698.0616 737.3599,700.3052 748.3453,702.1017 759.1701,703.4377 769.5976,704.2968 779.7207,704.6513 789.1854,704.5061 798.669,703.8596 807.7285,702.7256 816.3134,701.1297 827.2501,698.2476 837.4184,694.5015 846.8461,689.8826 855.7589,684.2266 863.4605,678.0005 870.5017,670.7936 876.5864,662.848 881.7866,654.0861 886.154,644.383 889.5093,634.1392 891.8724,623.4704 893.3086,612.0637 893.7552,600.3904 893.2212,587.82 891.6798,574.5905 889.2134,561.2605 885.6911,547.2149 881.3003,533.2945 875.9635,519.2333 869.6828,505.1308 862.5147,491.1423 854.3538,477.0686 845.4121,463.307 835.9964,450.2737 825.9776,437.7486 815.4254,425.8355 804.677,414.896 793.2403,404.4275 781.4326,394.7227 769.1033,385.6818 756.6364,377.6005 744.1083,370.5074 734.4777,365.7417 724.5726,361.4632 714.4953,357.758 704.5678,354.7026 694.4258,352.1848 684.4846,350.3123 674.389,349.021 664.5421,348.3642 654.6107,348.3203 644.9825,348.8905 635.2242,350.0995 625.7175,351.8885 616.247,354.2943 606.8574,357.3191 597.9283,360.8099 588.8176,365.0125 580.4429,369.4656 572.0839,374.4989 564.2832,379.7728 556.4119,385.7074 548.5477,392.2941 541.0003,399.2582 533.4878,406.8431 526.4075,414.663 515.0136,428.7392 503.8135,444.4007 492.6663,462.099 471.9962,497.7483 466.0755,506.3983 460.6422,512.7785 454.5847,518.0118 448.0787,521.7511 444.52,523.0811 440.6867,524.0814 437.0585,524.6898 432.9844,524.9531 424.2354,524.5248 415.712,523.1362 405.0768,520.4524 394.8443,516.9343 380.441,511.0247 366.4413,504.4755 350.7986,496.4621 334.9891,487.4899 315.8405,476.0114 299.787,465.7524 276.2255,449.891 255.4426,435.1875 233.1975,418.7288 211.1937,401.5419 193.9437,387.3302 186.8759,380.9949 185.5516,379.3432 187.2526,380.0689 191.5344,382.8729 244.6677,421.0498 280.5135,445.5782 296.1003,455.5673 312.6888,465.7004 330.854,476.29 344.4887,483.7798 358.9609,491.2049 373.8657,498.3501 386.5492,504.0255 398.9408,509.0278 414.0842,514.5033 427.299,518.7616 470.9167,530.2222 473.6092,531.2512 476.9415,533.0005 478.6977,534.2413 480.2078,535.8038 481.636,538.5191 481.7914,540.4545 481.5299,542.4205 480.02,545.579 477.043,548.7168 473.3926,550.9374 468.824,552.655 463.4575,553.6528 457.811,553.8611 452.9235,553.5544 447.5057,552.7737 435.3464,549.8701 419.0237,544.2202 402.8024,537.2665 387.6351,529.8462 364.3495,517.1835 348.6897,507.9014 324.7222,492.9383 303.4436,478.7857 275.0046,458.9439 253.4077,443.0424 227.8228,423.4329 203.0671,403.6317 178.0733,382.7856 158.888,365.5618 152.5613,359.422 150.706,357.0359 151.2558,356.9542 153.0858,357.9402 159.9948,362.7472 228.6779,414.5287 253.3055,432.3535 275.5514,447.8449 297.3309,462.2245 319.165,475.8412 339.7558,487.9059 358.7383,498.1827 377.6128,507.5111 396.0226,515.7422 412.2371,522.1814 428.5765,527.7353 446.125,532.75 459.5754,535.8678 475.7909,538.7336 498.2735,542.0392 508.1113,543.9233 515.3479,546.0847 521.2863,548.8824 526.0847,552.6107 530.1049,556.8225 534.361,562.318 543.0125,575.4997 551.7967,587.6444 561.4804,599.0168 571.6737,609.1789 585.3691,620.6621 602.2189,632.6323 617.7276,642.1207 635.9042,651.9352 658.4283,662.4527 669.2425,666.8822 680.408,671.0358 692.2169,675.0018 703.0685,678.2487 714.2966,681.1724 725.5583,683.6629 736.3664,685.6324 746.4839,687.0673 756.2258,687.9911 765.7328,688.4411 775.3105,688.4188 784.5112,687.9143 793.6237,686.9004 801.8318,685.4516 812.1084,682.8014 821.7127,679.3362 830.5557,675.1023 838.5746,670.1538 845.8335,664.4453 852.1945,658.1233 857.9278,650.9425 862.9483,642.9063 867.0185,634.3901 870.2783,625.0921 872.6102,615.2479 874.0302,605.001 874.5947,594.1297 874.2746,582.7083 873.0408,570.8107 870.9523,558.9269 867.8699,546.4204 863.9054,533.8132 858.9254,520.7188 853.2278,507.9385 846.7279,495.2388 839.4606,482.7291 831.6863,470.8443 823.3284,459.4191 813.9923,447.9002 804.1597,436.9495 793.8981,426.645 783.2753,417.0648 772.6493,408.5071 762.1027,400.9794 750.7511,393.867 739.0914,387.4988 729.5696,382.9767 720.0959,379.0707 710.7003,375.7776 701.0711,373.0066 691.5913,370.8879 682.2479,369.4029 672.8673,368.4877 663.3701,368.1575 654.1728,368.4258 644.9134,369.2986 635.634,370.8004 626.7145,372.8578 617.3375,375.6807 608.4097,379.0016 599.6442,382.9137 591.4026,387.2317 583.663,391.8989 575.9016,397.222 567.8828,403.3887 560.2446,409.94 552.9979,416.8476 545.9068,424.3319 539.4156,431.904 533.2107,439.9329 522.5612,455.5771 514.1842,469.9201 505.7168,486.6431 488.1938,525.6977 483.4998,533.9358 479.3454,539.5525 476.4123,542.5822 473.501,544.9377 470.5513,546.7873 467.0685,548.3561 463.3199,549.5636 460.1239,550.1591 450.4519,550.4477 445.7665,549.9949 440.2101,549.0405 428.888,546.1138 413.3482,540.5412 397.5666,533.6047 380.4226,525.0794 359.039,513.2928 341.8414,503.0319 319.9587,489.1873 297.6245,474.2157 269.2766,454.1582 247.7422,438.1685 220.0347,416.8446 199.0101,399.9087 173.33,378.2416 159.1152,365.3578 153.6844,359.9727 152.17,358.031 152.7214,357.9957 154.401,358.8727 160.5011,363.0111 231.718,416.4816 256.0049,433.9507 279.5299,450.2193 299.5217,463.364 319.968,476.035 340.7093,488.1138 359.8851,498.5251 377.3665,507.173 394.6602,514.8901 411.7567,521.672 427.8335,527.1539 443.4881,531.6232 459.5908,535.4045 472.7004,537.7977 498.745,541.795 505.9187,543.2333 513.2716,545.3862 519.454,548.3929 523.8268,551.7545 528.0352,556.085 532.2292,561.9864 541.8764,577.3988 549.0452,587.6239 557.4541,598.0088 568.3001,609.2079 582.3265,621.1979 598.7031,633.0317 615.0833,643.2697 632.3187,652.6846 656.2441,664.0465 667.1922,668.6093 678.5226,672.9055 690.4384,677.0151 701.5566,680.4116 713.2038,683.51 724.9236,686.1821 736.0624,688.3196 746.0152,689.8108 756.1906,690.8688 766.51,691.4431 776.5098,691.4918 786.5,691.0 795.1845,690.0536 803.8162,688.5477 814.1469,685.911 823.8082,682.4803 833.0546,678.123 841.1977,673.1638 848.6024,667.3909 855.1583,660.9356 861.0644,653.5934 866.034,645.7106 870.232,637.0106 873.4782,627.8283 875.9344,617.6651 877.4572,607.105 878.0964,595.9054 877.8341,584.5396 876.667,572.7097 874.5563,560.4814 871.358,547.4171 867.2488,534.2609 862.2205,520.9476 856.4712,507.9501 849.909,495.0324 842.7714,482.6479 834.9748,470.6299 826.0986,458.3726 816.6341,446.602 806.6545,435.4016 796.2333,424.8549 785.4439,415.0454 774.647,406.2762 763.3784,398.1778 751.9699,390.9573 740.1654,384.4495 730.7969,379.9531 721.1235,375.9167 711.5282,372.5165 702.0465,369.751 692.5445,367.5852 682.7167,365.9592 673.1491,364.9606 663.4657,364.5521 654.0776,364.7515 644.6342,365.5636 635.5245,366.9513 626.5431,368.9263 617.5564,371.5155 608.6666,374.7047 599.9137,378.4932 591.335,382.8675 583.2646,387.6104 575.1761,392.9968 567.4294,398.7665 559.7208,405.1727 552.3885,411.9568 545.4186,419.0885 538.5172,426.8526 531.8675,435.0999 521.8157,449.2626 512.2482,464.8739 502.8371,482.5685 484.4314,520.8716 480.1,527.964 475.4815,533.9355 472.8107,536.6602 469.8458,539.0603 466.9364,540.8826 463.5292,542.4956 459.9354,543.6755 455.6574,544.5535 451.7762,544.9337 447.5993,544.9491 442.3303,544.5539 437.4546,543.8185 424.7146,540.7664 414.5136,537.2585 398.1732,530.5993 383.1534,523.4106 365.2351,513.9873 346.0578,502.9886 327.6726,491.7523 306.4765,477.9378 284.7984,463.1654 260.9943,446.0931 238.1733,429.074 212.3459,408.7418 188.377,389.2167 166.5563,370.0893 161.2843,364.9801 159.4088,362.5745 159.8247,362.4895 161.3379,363.2963 168.0042,367.8722 232.0233,415.5165 255.8521,432.6392 277.597,447.6146 298.6561,461.4445 318.8649,474.0108 338.0997,485.2153 356.8056,495.3519 374.6945,504.2715 391.3623,511.7665 408.2794,518.5008 425.875,524.625 439.5597,528.6534 454.702,532.2814 466.6734,534.7452 496.9114,540.0972 504.6389,542.5225 509.5,544.875 514.7323,548.8727 519.047,554.2854 523.2373,562.1929 528.7471,574.8325 532.7548,583.0333 537.8079,592.1904 545.8247,603.5873 555.9213,614.8565 568.4954,626.3565 579.659,635.0292 586.2447,639.7428 606.6917,652.7478 629.433,665.2061 642.1856,671.399 657.3906,678.1886 669.4608,683.1985 681.9457,687.8408 696.387,692.6593 711.2974,697.1242 723.7088,700.2921 736.651,703.0285 749.6533,705.2146 762.851,706.8601 774.4836,707.7323 785.5009,707.9719 796.565,707.5805 807.2152,706.5361 817.3851,704.8472 826.8933,702.5485 837.5642,698.943 847.823,694.2404 857.2061,688.5902 865.6383,682.0486 872.8738,674.8973 879.4067,666.6463 884.9418,657.6318 889.6026,647.6293 893.1838,637.0446 895.6945,625.9919 897.158,614.578 897.6283,601.9984 897.0672,588.9334 895.4802,575.2735 892.8528,561.1301 889.2816,547.0005 884.6975,532.6208 879.0875,518.0938 872.4244,503.4187 864.8217,488.7839 856.3659,474.3528 847.1265,460.2517 837.1735,446.6065 826.8242,433.8329 816.1843,422.0057 804.4694,410.3016 792.5461,399.5788 780.0454,389.5001 767.3383,380.3854 754.502,372.2756 741.6133,365.2116 728.9778,359.331 719.5046,355.5763 710.1527,352.3885 700.5542,349.6517 691.1159,347.4907 681.8524,345.8855 672.4192,344.784 663.207,344.2393 653.8919,344.2388 644.3308,344.8304 634.9939,345.9588 625.623,347.6502 616.628,349.8238 607.6536,352.5541 598.7437,355.846 590.2605,359.5451 581.5763,363.9276 573.4973,368.5493 565.9103,373.401 558.4847,378.6658 550.967,384.5508 543.6936,390.802 536.3386,397.7003 529.3146,404.8835 522.416,412.5611 511.6616,425.8359 501.5085,439.8917 489.9087,457.8055 475.1533,482.7296 468.5747,493.3113 462.7701,501.5677 457.0,508.25 451.1443,513.3637 444.4996,517.2401 441.0577,518.6013 437.3983,519.6343 429.64,520.7169 421.5305,520.4962 413.0694,519.3102 401.5355,516.3655 390.8794,512.8351 377.5789,507.436 365.099,501.6929 348.2427,493.0466 333.9321,485.0946 314.912,473.7134 299.1424,463.7607 277.8158,449.4925 258.49,436.0066 235.5,419.125 218.9914,406.3809 199.8017,390.9605 193.9546,385.7637 191.2981,382.9053 193.4839,383.9369 198.135,386.981 245.5793,420.9961 282.1423,445.6439 297.3981,455.3968 313.2806,465.0854 330.1415,474.8949 345.5201,483.4023 357.6856,489.6502 370.2709,495.6671 384.9089,502.1755 395.9371,506.6708 409.1973,511.5416 424.4574,516.6317 456.935,525.4605 464.2226,527.7307 469.7471,530.1075 471.8823,531.5769 473.0779,532.859 473.9844,534.8906 473.7692,537.1191 472.6181,539.4976 470.4028,541.6389 467.2918,543.3249 463.5156,544.6406 459.1651,545.553 455.2449,545.8402 445.2317,545.2429 433.3673,542.861 420.8346,539.0454 407.3422,533.9792 389.9477,526.1031 374.7328,518.3387 353.9153,506.8162 332.8162,494.1653 309.9244,479.5497 282.7715,461.0425 261.8207,446.0966 236.2048,426.925 214.2785,409.8227 186.2884,386.6845 169.3889,371.8704 163.6653,366.4109 162.1728,364.51 162.5297,364.3811 163.7375,364.9434 168.7173,368.2332 233.1726,416.0162 257.5144,433.3795 279.781,448.7336 298.4107,460.8765 317.8433,472.8541 339.125,485.25 355.3648,494.0727 372.5027,502.6169 389.414,510.2896 404.6552,516.5222 420.123,522.0344 435.7936,526.8239 450.4698,530.6092 465.148,533.6713 486.2364,537.4321 495.7604,539.5628 501.0,541.25 506.6667,544.1111 509.4674,546.2755 512.4238,549.2998 516.4885,555.8664 519.316,562.6316 524.3683,577.0553 527.6667,585.3472 531.0822,592.8325 535.6875,600.9588 544.6024,612.8261 551.2189,620.0214 556.5747,625.1432 565.831,633.1558 579.4357,643.3469 589.8004,650.3186 602.8333,658.3019 617.9325,666.6497 634.6749,675.2184 650.3761,682.4656 667.5569,689.7048 688.2458,697.3613 710.553,704.4492 728.8825,709.2646 746.8328,712.9187 765.5391,715.5801 782.792,716.8704 799.4684,716.8275 815.0207,715.4493 829.625,712.75 836.4954,710.9089 842.9024,708.7928 849.1799,706.3016 855.2979,703.4229 860.9027,700.3368 866.3134,696.883 871.5048,693.0507 876.168,689.0887 880.5936,684.773 884.8359,680.0035 888.6483,675.0343 892.006,669.972 895.2626,664.261 898.0572,658.5088 901.3131,650.3327 903.9943,641.5908 906.0598,632.2978 907.4235,622.888 908.1482,612.998 908.2072,602.8124 907.604,592.0363 906.3839,581.2202 904.4682,569.7236 901.9766,558.3199 898.7485,546.3308 894.9855,534.5605 890.597,522.6908 885.7543,511.1599 880.3232,499.6193 874.1004,487.6567 867.3426,475.8135 860.2923,464.4698 852.8004,453.3489 844.8986,442.5049 836.6185,431.9922 827.9915,421.8647 819.3091,412.447 810.3234,403.4603 800.877,394.7592 790.9554,386.3507 780.8949,378.5355 770.7306,371.3246 760.4974,364.7289 749.909,358.5831 739.3227,353.1153 728.7767,348.3376 719.2567,344.6031 709.3016,341.269 699.7252,338.5845 689.927,336.3704 680.3217,334.727 670.5502,333.5979 661.0146,333.0339 651.3769,333.0178 642.0242,333.5526 632.963,334.6087 623.2257,336.3143 613.8864,338.5087 604.5756,341.2673 595.6848,344.4601 586.8774,348.1884 578.1976,352.4419 570.1525,356.9243 561.7782,362.1376 553.9283,367.5483 546.2739,373.3523 538.8396,379.523 531.3867,386.2655 523.885,393.6331 516.9102,401.0532 505.8873,414.0102 493.9722,429.6167 483.0615,445.4788 459.8809,481.4048 453.5442,490.0368 447.6698,496.6869 441.4079,502.1637 435.5123,505.8316 428.0566,508.7037 420.8807,509.962 413.0906,510.0914 405.5938,509.3125 395.4598,507.2123 386.5204,504.5963 374.4048,500.1592 364.1892,495.8275 348.2461,488.1847 336.294,481.9231 319.05,472.1027 305.4784,463.9726 288.0618,452.8147 270.3055,440.9432 247.625,424.875 233.3156,414.2718 215.5688,400.4768 205.941,392.0866 211.5769,395.3965 250.5542,422.6337 287.3354,447.0493 312.1598,462.2797 339.088,477.5862 364.2856,490.2744 386.5839,500.2456 410.2066,509.1359 447.9042,520.9713 452.9074,523.3981 455.0,525.25 455.2985,526.3783 455.1148,527.0466 454.4079,527.9797 453.2689,528.7577 449.3228,530.0972 444.6673,530.6805 436.7472,530.5261 427.128,528.974 413.5016,525.413 399.5939,520.4734 386.5932,515.032 370.6727,507.4806 355.7045,499.6145 336.4842,488.8904 320.1364,478.9392 298.6485,465.1555 278.1564,451.3118 258.0543,437.1978 227.0588,413.9428 214.6762,404.2747 193.664,386.907 188.374,382.1106 186.4803,379.9008 188.4722,380.8611 193.9423,384.5549 253.2631,426.9149 283.4778,447.2817 299.6332,457.6563 314.7482,466.8622 330.9203,476.1864 347.6934,485.3375 360.6567,491.9684 374.0601,498.3187 388.1515,504.4726 401.4261,509.7796 415.0734,514.6376 429.8218,519.2787 467.2881,529.0455 474.2137,531.6672 477.0741,533.4722 478.7447,534.9462 480.3208,537.8327 480.5,540.125 479.2095,543.6869 476.7442,546.5572 473.2284,549.0852 469.3152,550.745 464.2452,551.952 458.9428,552.393 453.8544,552.2033 447.3015,551.4552 437.816,549.3941 424.2227,545.0903 407.6687,538.426 391.4675,530.8521 374.9772,522.3669 348.5844,507.0778 331.9377,496.8393 307.0733,480.5922 287.3886,467.0544 257.0696,445.1503 235.9857,429.2108 204.8481,404.5649 182.4376,385.9534 161.2877,367.3251 155.1658,361.302 152.757,358.2186 153.5649,358.3765 155.8753,359.7623 164.8936,366.1266 209.8579,400.1214 239.9945,422.4298 277.3856,448.6518 300.2312,463.7564 318.7688,475.3285 338.4203,486.7482 358.7617,497.7239 376.6925,506.6966 393.2623,514.1278 410.8814,521.1028 429.0972,527.4167 444.7856,531.8294 462.825,535.8417 504.2116,542.6564 512.5987,545.1395 518.6255,548.1843 523.2109,551.6039 528.4998,557.5309 533.5642,565.0262 543.0527,580.2887 550.5081,590.8461 559.637,601.5301 569.703,611.5283 583.8681,623.494 599.625,634.625 614.9957,644.0396 634.2475,654.5454 657.7803,665.5841 678.6334,673.7988 690.9595,678.0141 702.5615,681.5953 713.6494,684.5448 724.7893,687.0529 735.8971,689.1185 747.0714,690.7647 757.1523,691.8066 767.3867,692.3813 777.3167,692.4378 786.8705,691.9826 796.3693,690.9802 804.9258,689.5162 815.1924,686.9012 825.1682,683.3208 834.0404,679.0865 842.4132,673.9337 849.8419,668.1044 856.3555,661.6309 862.2337,654.2563 867.3861,645.9911 871.572,637.2136 874.9233,627.6316 877.2743,617.7159 878.6988,607.4515 879.2804,596.1841 878.9352,584.3209 877.6945,572.3428 875.54,559.9674 872.45,547.2742 868.4135,534.3408 863.3867,521.043 857.474,507.703 850.7209,494.4373 843.3761,481.6942 835.3188,469.2398 826.8292,457.4932 817.4186,445.8015 807.4876,434.6785 797.1206,424.2043 786.3902,414.4442 775.3693,405.4638 764.1304,397.3285 753.1619,390.3491 741.1944,383.7163 731.4301,379.0018 721.7214,374.9203 712.0974,371.4641 702.2374,368.5322 692.8758,366.3261 683.3503,364.6742 674.0054,363.6518 664.2451,363.2036 654.7938,363.3804 645.2819,364.178 636.1147,365.549 626.9518,367.5256 617.8425,370.1091 608.5645,373.385 599.4527,377.2563 590.8937,381.5396 582.8619,386.1836 575.0405,391.3411 567.0713,397.293 559.2748,403.7734 551.8438,410.6094 544.8041,417.7675 538.1727,425.2045 531.5116,433.4135 521.4959,447.3108 511.7988,462.7813 501.2589,482.4227 484.0383,517.6692 479.2609,525.5361 474.3931,531.9046 471.5641,534.776 468.5794,537.1839 465.3133,539.1327 461.4121,540.885 458.3102,541.8889 454.6481,542.6111 446.0776,543.0421 435.1295,541.8344 424.0149,539.1746 411.032,534.8023 395.0962,528.0939 380.0898,520.8777 359.5762,509.9352 343.8486,500.8039 322.3309,487.5802 301.7118,474.0937 275.9727,456.3141 255.8435,441.6652 230.3478,422.3804 208.792,405.3882 184.6028,385.4999 168.8081,371.4908 163.1697,366.0291 161.7224,364.142 162.1628,364.0904 163.5121,364.7828 169.0,368.5 235.1362,417.5778 256.7696,433.0293 276.8074,446.8123 296.7558,459.8434 317.1605,472.4712 338.245,484.7974 355.3631,494.1032 372.2989,502.5588 389.3656,510.3136 405.2795,516.7946 420.9512,522.3845 436.9996,527.3251 450.6255,530.8498 465.2108,533.8653 486.6684,537.6263 495.9974,539.6878 501.25,541.375 507.9666,544.7157 510.605,546.817 513.0434,549.3896 517.3839,556.3377 520.4306,563.4815 524.8941,575.8032 528.1706,583.9102 533.8328,595.2548 539.8298,604.5274 544.7916,610.964 548.4219,615.0938 555.357,622.2186 562.1053,628.2012 570.5266,635.0989 581.5885,643.143 590.807,649.315 605.8647,658.5183 623.4945,668.158 638.5872,675.683 651.4249,681.5592 666.9496,688.0379 682.4261,693.9331 696.7691,698.8107 711.2911,703.1768 725.8111,706.9701 739.4148,709.9318 752.8023,712.2356 766.1702,713.9021 778.9944,714.8651 791.1243,715.1303 802.8426,714.6713 813.7993,713.5325 824.2754,711.7159 834.1948,709.2379 844.8645,705.5948 854.541,701.1701 863.7502,695.6948 872.0834,689.373 879.4946,682.2788 886.1922,674.1711 891.875,665.375 896.6256,655.7567 900.3803,645.497 903.2357,634.3679 905.1316,622.4177 905.9967,610.1038 905.8716,597.5383 904.75,584.375 902.6149,570.6352 899.4987,556.45 895.3031,541.577 890.2415,526.8416 884.2393,512.0081 877.3099,497.1915 869.8701,483.2181 861.396,469.0881 852.2058,455.3152 842.1353,441.6738 831.4667,428.5806 820.2764,416.1274 808.641,404.4061 796.9135,393.7464 785.0049,384.0326 772.2694,374.7501 759.4366,366.4534 746.2315,358.9678 736.0926,353.9219 725.6692,349.361 715.666,345.5811 705.4496,342.3327 695.3236,339.7388 684.9853,337.7028 674.4952,336.2528 664.2817,335.4492 654.3551,335.2572 644.3612,335.668 634.3474,336.7099 624.7029,338.3359 614.7522,340.6823 605.018,343.6093 595.3955,347.1362 585.9264,351.2592 578.5925,354.9214 571.2802,359.0004 557.1599,368.1474 543.2007,378.902 529.9181,390.9328 522.0284,398.9933 513.9161,408.002 506.3772,417.0782 499.2288,426.3906 486.2754,445.0688 462.5301,482.4471 456.7938,490.5486 451.8173,496.6268 448.4596,500.0731 445.0509,503.0278 441.5476,505.5565 437.9812,507.6388 434.2419,509.3062 429.8935,510.7081 425.8816,511.584 421.4348,512.0741 413.4051,511.9761 405.1561,510.9092 395.6698,508.7389 385.8363,505.6721 373.9571,501.1474 363.3551,496.5222 348.4497,489.1597 333.9808,481.4403 317.6033,471.9866 302.2752,462.6682 284.295,451.015 266.1899,438.7902 248.2294,425.9682 232.7948,414.483 211.1968,397.5619 203.1414,390.3169 209.7894,394.4482 255.8392,426.5874 288.1298,447.9274 313.1267,463.2787 340.9874,479.0347 364.7054,490.9478 387.8897,501.2048 413.855,510.9209 451.749,522.5505 455.8843,524.5434 457.5936,525.788 458.3882,526.7524 458.7179,527.8294 458.5474,528.9971 457.4949,530.2149 455.897,531.2686 451.8428,532.5952 445.5228,533.329 441.1222,533.2197 435.3873,532.6237 424.8108,530.4641 414.1153,527.4961 400.1298,522.3856 386.3849,516.5066 371.2586,509.3428 355.3978,500.8534 336.8359,490.2596 318.1087,478.8203 299.9556,467.1484 276.6968,451.3592 257.7444,437.92 229.1125,416.4435 210.7249,402.0218 191.73,386.4749 185.2962,380.6401 182.1418,377.2648 184.548,378.4057 190.102,382.076 244.5028,421.4221 264.1587,435.022 284.7373,448.7721 299.7321,458.3896 315.3413,467.8759 332.2215,477.6213 349.0814,486.8713 362.4398,493.6435 376.1257,500.0501 392.0399,506.9222 403.9495,511.5875 417.5448,516.3141 433.1245,521.1473 444.2215,524.0814 466.2754,529.3262 473.0876,531.3083 479.232,533.6121 482.1072,535.2654 483.7962,536.6219 485.0674,538.3098 486.0997,540.3396 486.4602,541.7543 486.508,544.1092 486.147,546.0718 485.1404,548.5739 483.7562,550.8568 482.2162,552.6295 477.8422,555.94 473.332,557.8844 468.3099,559.0023 461.2883,559.3892 456.6084,559.0594 449.5668,558.027 439.1328,555.4023 426.1857,550.9851 408.5059,543.5811 392.2768,535.5145 371.9438,524.5093 347.9648,510.4243 330.1178,499.1501 302.0038,480.3422 282.5397,466.6561 251.4908,443.7411 227.3046,425.0963 197.0131,400.7611 174.9319,382.0883 151.83,361.382 145.4403,355.0243 142.9657,351.8104 143.8,351.9934 146.592,353.7204 157.0126,361.1853 204.0147,397.1348 237.2677,421.9713 257.5475,436.5809 277.6668,450.555 301.2813,466.2282 322.5666,479.5171 343.88,491.8265 365.3834,503.2697 384.5782,512.6501 402.2047,520.3004 420.3905,527.1423 438.803,533.0452 453.756,536.8975 470.0566,540.1229 481.5657,541.9354 507.291,545.095 515.4928,546.3668 522.7157,548.2089 528.7346,550.6816 534.679,554.3891 540.2044,559.4679 548.446,568.8123 559.577,582.5732 567.6681,591.4239 577.2656,600.8594 591.3868,612.8516 607.1364,624.1461 625.5075,635.3693 642.5641,644.3295 661.8763,653.1751 677.2012,659.0945 693.3723,664.4797 708.0658,668.4864 723.5236,671.8266 737.8349,674.1362 751.3658,675.3996 764.7063,675.679 777.25,674.9635 787.739,673.4979 797.7255,671.227 807.0806,668.1801 816.0425,664.2278 823.7677,659.7766 831.0955,654.3696 837.5664,648.2987 843.1477,641.6584 848.0253,634.2006 851.9441,626.2905 855.0304,617.7433 857.3678,608.3389 858.8216,598.6184 859.4375,588.3233 859.1639,577.518 858.0115,566.691 855.8149,554.873 852.6684,542.7389 848.5989,530.3903 843.7843,518.3044 838.1426,506.2422 831.8964,494.6628 824.6674,482.9261 816.8183,471.5912 808.38,460.6706 799.4107,450.2532 789.9688,440.4282 780.3916,431.5287 770.647,423.4865 759.7982,415.5567 748.8225,408.4963 737.7755,402.319 728.0526,397.6307 718.3553,393.6445 708.7211,390.37 698.8687,387.7237 688.9433,385.7347 678.8795,384.4203 669.0956,383.8367 659.2486,383.9628 649.7387,384.792 639.9499,386.3936 630.2605,388.7062 621.1153,391.604 612.1486,395.1781 603.7031,399.2614 594.8808,404.3187 586.6026,409.8274 578.4193,416.0867 570.6973,422.8298 563.064,430.3869 556.1261,438.1329 549.312,446.7207 542.8889,455.8549 537.2646,464.8611 532.005,474.4267 524.0796,491.4999 520.5907,500.4053 517.8049,508.5471 511.9409,530.0862 504.2214,566.392 502.0,574.0 498.6805,580.7306 496.8935,583.3241 494.783,585.533 492.2997,587.3179 489.2047,588.8871 486.294,589.7096 482.8937,590.199 474.799,589.9978 469.4104,589.0473 461.9324,587.1708 447.3558,581.8984 427.1726,572.5939 412.4601,564.8667 388.5306,551.1797 360.2917,533.5927 336.2218,517.6677 308.2485,498.1752 278.1598,476.1798 246.58,452.0471 217.7437,429.006 186.2455,402.8601 156.6658,377.2247 127.0117,350.1999 110.7378,334.1255 106.0439,328.8151 104.3558,326.0868 104.6241,325.8935 105.3708,326.1228 108.2824,327.8056 119.619,335.9811 190.3648,392.3105 221.038,416.3281 251.0878,438.9177 280.4271,459.8832 311.2088,480.5973 338.83,497.7768 366.4173,513.3526 392.6205,526.5411 413.5326,535.7419 434.2886,543.4538 454.6097,549.579 474.9554,554.2757 489.8725,556.6068 505.2628,558.0424 521.3492,558.6778 555.6545,558.371 564.9167,559.2269 572.2441,560.7341 581.4133,564.1855 589.1159,568.3692 597.1644,573.5166 622.0763,590.8075 636.5505,599.7305 654.1546,608.9296 671.5052,616.3001 680.9402,619.7122 690.7345,622.6958 700.8613,625.2043 709.7165,626.857 719.5955,628.0899 729.5964,628.7177 738.0609,628.6726 746.0938,627.9844 753.231,626.8054 760.1609,625.0876 766.2905,622.9945 772.2199,620.3267 777.846,617.0889 782.7876,613.5208 787.2662,609.4952 791.3483,604.8734 794.7418,600.0046 797.64,594.6546 799.8546,589.2211 801.5333,583.4013 802.7647,576.5184 803.3385,569.667 803.3117,562.5008 802.7004,555.4711 801.4034,547.8494 799.4681,540.1954 796.8825,532.2017 793.7008,524.1591 790.0995,516.5013 786.1532,509.295 781.7423,502.3037 776.4191,494.8562 770.9075,487.9741 765.0306,481.4094 758.824,475.229 752.6117,469.7386 745.5598,464.2509 738.4542,459.3508 730.8906,454.7812 723.562,450.9698 717.5218,448.2789 711.4619,445.9901 704.8671,443.933 698.3106,442.2961 691.8599,441.0915 685.5257,440.312 679.3189,439.9506 673.25,440.0 666.8243,440.4765 660.6477,441.3448 654.7153,442.591 649.0227,444.2011 643.2316,446.2949 637.5773,448.8049 632.0167,451.7047 626.5202,455.0644 621.4317,458.703 616.6987,462.644 612.1214,467.0326 607.7371,471.8466 603.593,477.0734 599.8321,482.528 596.8016,487.6681 594.0725,493.1509 591.508,499.319 589.5011,505.1703 587.9688,511.1406 586.9335,517.0045 586.3026,523.0011 586.1528,528.8115 586.4678,534.8714 587.2769,541.2823 588.3187,546.1062 589.8207,551.189 593.9262,561.3386 599.4104,570.9229 605.8413,579.5272 614.4436,588.8497 624.1582,597.3886 634.4181,605.0872 647.2742,613.0536 660.4966,619.9804 676.5968,626.9065 690.4144,631.6426 705.4912,635.6604 718.379,638.0949 732.0758,639.4829 745.0704,639.6825 756.8276,638.6214 764.6419,637.165 772.2175,635.0915 778.9255,632.5885 785.0516,629.6004 790.8459,626.0066 796.2275,621.7948 800.8585,617.2383 805.122,611.9239 808.6011,606.3911 811.5448,600.3291 813.8972,593.7657 815.5258,587.1316 816.5516,579.9369 816.9637,571.9026 816.7015,563.8493 815.8247,555.8901 814.3092,547.726 812.129,539.4167 809.2259,530.8485 805.6172,521.9837 801.5694,513.4892 796.9629,505.0938 791.8053,496.8666 786.3427,489.191 780.0469,481.3314 773.384,473.8616 766.3811,466.8156 759.0789,460.2461 751.8131,454.4278 744.2348,449.073 736.0533,444.0091 727.7935,439.5802 720.8798,436.3843 713.9633,433.6466 706.7237,431.2738 699.875,429.5 692.2517,428.0281 684.7973,427.0685 677.5268,426.6062 670.0889,426.6403 663.243,427.1517 656.3811,428.1571 649.3117,429.6877 642.2232,431.7452 635.8507,434.0855 629.4745,436.9391 623.3119,440.2326 617.2201,444.039 611.2979,448.3296 605.5875,453.1085 600.3711,458.1137 595.2775,463.6945 590.6991,469.4494 586.4573,475.5936 582.6072,482.0562 579.2015,488.8036 576.293,495.7644 573.7575,503.2015 571.9382,510.1103 570.7032,516.7809 569.9253,523.8735 569.7188,530.8125 570.1043,538.2785 570.9957,544.7285 572.3812,550.6192 574.3635,557.0902 578.4312,566.5221 581.7389,572.6394 584.5231,577.0556 593.0559,588.1052 601.7159,596.9507 613.1615,606.8015 626.8867,616.5911 639.2653,624.0297 655.9153,632.6692 672.1924,639.6479 689.0437,645.6788 706.6721,650.4768 723.19,653.7882 738.5585,655.4925 746.9459,655.8411 754.9783,655.7889 762.2418,655.3629 769.0978,654.5396 777.7377,652.8665 785.7812,650.5875 793.5109,647.6166 800.4924,644.1202 807.1088,639.9052 812.9889,635.1952 818.3657,629.786 822.9248,623.9812 826.9112,617.4418 830.1667,610.4084 832.7593,602.7602 834.5668,594.935 835.6755,586.6442 836.0396,578.3577 835.665,569.2468 834.5923,560.095 832.739,550.2903 830.1286,540.2647 826.8961,530.4822 822.9551,520.6521 818.1809,510.5838 812.8126,500.7355 806.6344,490.7469 800.0896,481.3485 793.0325,472.2989 785.7647,463.9612 777.8826,455.8783 769.4911,448.16 760.8235,441.0343 751.9329,434.5436 742.8722,428.7304 734.0123,423.8003 725.3523,419.6783 716.7368,416.183 708.2084,413.3027 699.4243,410.9402 690.7806,409.2212 682.3007,408.1323 673.8593,407.6523 664.9901,407.757 656.455,408.4589 648.2632,409.7218 640.0757,411.6028 632.2836,414.0163 624.1309,417.2218 616.397,420.9282 608.8667,425.2315 601.8876,429.9071 594.4536,435.7008 587.3757,442.0277 580.764,448.8091 574.8779,455.7516 569.2324,463.424 564.3064,471.1621 559.6276,479.7389 555.4815,488.6806 551.9982,497.7371 549.2503,506.649 547.3295,515.3125 545.8198,525.2899 545.2481,533.7061 545.3511,542.6341 546.1151,549.4948 547.7461,558.0245 549.6059,564.5584 552.2031,571.6367 554.812,577.1175 558.6292,583.8904 562.3982,589.5045 567.9774,596.6558 576.6766,605.9598 582.8653,611.8079 588.8206,616.8784 597.375,623.5 604.588,628.6007 623.1143,640.118 642.4801,650.4228 652.421,655.2009 662.1112,659.413 685.4662,668.2143 704.863,674.1226 725.3933,678.9136 734.6764,680.5843 743.6108,681.7959 752.6994,682.633 761.5015,683.0618 770.3434,683.1042 779.1434,682.7378 787.0867,681.9676 794.6158,680.7961 804.6305,678.4945 814.0026,675.4472 822.992,671.5321 830.9614,667.008 838.0871,661.8279 844.6712,655.7818 850.3831,649.1675 855.4235,641.7432 859.5379,633.8774 862.9599,625.097 865.5463,615.7302 867.3157,605.6756 868.1964,595.386 868.2163,584.569 867.3757,573.7056 865.6495,562.4017 862.895,549.993 859.3297,537.649 854.9005,525.1427 849.7811,512.945 844.0522,501.1592 837.5838,489.5211 830.2192,477.8122 822.0616,466.2054 813.3195,455.0223 804.0616,444.3503 794.3569,434.2769 784.5511,425.1332 774.4163,416.6893 763.6425,408.6966 752.7254,401.5313 741.3895,395.0291 732.0318,390.3557 722.3597,386.1739 712.7468,382.6716 703.2476,379.857 693.2273,377.5322 683.4371,375.8916 673.8933,374.9072 664.2469,374.5492 654.9032,374.8388 645.8807,375.7444 636.4468,377.3727 627.1464,379.6359 617.9477,382.5509 609.2315,385.9715 600.6601,389.9965 592.1593,394.6706 583.9435,399.8748 576.0706,405.5668 568.272,411.9599 560.8632,418.7842 553.6011,426.2174 546.5922,434.1972 539.9212,442.6494 533.4199,451.7753 524.5918,466.2208 515.1016,484.6803 507.5359,502.2508 495.0,535.8906 490.2812,545.7812 486.5385,551.4883 484.0677,554.2619 480.9593,556.9771 478.1628,558.7705 474.625,560.375 471.4481,561.3645 467.6339,562.0216 463.442,562.3215 459.0905,562.173 448.163,560.5432 434.7376,556.7203 421.6983,551.7902 406.1995,544.9108 383.9914,533.4391 367.4682,524.1432 344.9504,510.4783 322.5173,495.9512 297.844,479.1715 274.9235,462.7616 244.558,440.1333 219.8545,420.8573 190.71,397.0801 165.7506,375.6802 145.4601,357.2014 139.6127,351.2307 137.4877,348.2878 138.326,348.395 141.0013,350.0161 151.7439,357.7437 204.6579,398.4173 237.5322,423.1007 257.922,437.8098 278.4055,452.0135 304.484,469.2587 327.7104,483.6754 350.7176,496.7898 373.3329,508.5418 391.8335,517.2685 409.4938,524.617 427.6123,531.1112 445.7355,536.5976 459.926,539.9898 475.0784,542.7149 487.0356,544.3757 511.4008,546.9453 520.9849,548.2597 528.632,550.0206 534.442,552.1628 541.0274,555.907 546.274,560.081 550.6257,564.3026 565.1621,580.1848 576.195,591.5714 588.5554,602.7579 602.7923,613.7384 620.75,625.5 632.6664,632.3221 652.2121,642.1075 670.0401,649.6229 684.5856,654.8809 698.9002,659.1757 714.3865,662.9058 728.8434,665.532 742.4243,667.0827 755.8597,667.6746 768.4565,667.26 780.1999,665.8334 789.5179,663.8668 798.2104,661.2344 806.1926,657.983 813.4352,654.1282 820.2718,649.4912 826.605,644.0722 832.0916,638.1699 836.9465,631.555 841.0687,624.269 844.3628,616.5386 846.9532,608.1343 848.7218,599.498 849.7399,590.3404 849.9645,581.1373 849.4038,571.3384 848.0614,561.1751 845.8545,550.3381 842.8189,539.2622 839.0996,528.4141 834.6119,517.51 829.2911,506.4903 823.312,495.6698 816.4886,484.7458 809.2682,474.4471 801.5046,464.5325 793.4998,455.3645 785.2953,446.9339 776.1461,438.4963 766.7275,430.7143 757.0955,423.622 747.306,417.2536 737.4149,411.6434 727.7989,406.9683 717.7887,402.8866 707.8895,399.5729 697.7702,396.9206 687.8465,395.0436 677.7967,393.8851 668.0284,393.4972 658.3952,393.8425 648.974,394.8904 639.6144,396.6647 630.3552,399.1769 621.2338,402.4249 611.9386,406.5527 603.2496,411.2027 594.9169,416.4777 586.702,422.5716 578.3059,429.8377 570.3022,437.8377 562.7884,446.5097 555.7159,455.8856 549.5184,465.324 543.8303,475.3943 539.0287,485.3783 534.5777,496.4399 531.0316,507.0489 527.9074,519.5331 526.3514,528.0753 525.0209,539.2815 524.7615,551.5347 525.3062,561.5013 526.5355,570.3904 528.6323,579.3152 530.9082,586.1172 534.6062,594.5362 536.802,598.5399 540.9681,605.0699 547.7224,613.5192 551.3368,617.575 558.4881,624.7046 564.2344,629.7344 572.8133,636.5768 579.7406,641.6448 591.7974,649.8126 600.353,655.1034 624.973,668.7351 638.025,675.2081 652.2741,681.8286 663.2114,686.4494 675.68,691.2744 690.9786,696.7386 702.2523,700.417 713.6656,703.728 725.1879,706.6696 737.1238,709.305 748.5945,711.444 759.2643,713.0271 769.7927,714.1645 780.0924,714.8374 790.0905,715.0387 799.7272,714.7714 808.8777,714.0537 817.887,712.841 826.4683,711.1613 837.8331,708.0267 848.4699,703.9603 858.273,698.9823 867.1882,693.1075 875.2312,686.3313 882.3547,678.7417 888.7304,670.1212 894.0772,660.8112 898.3895,650.9079 901.7871,640.0881 904.1666,628.4936 905.5166,616.3003 905.8652,603.3645 905.2147,590.1582 903.56,576.411 900.8725,562.2021 897.1238,547.611 892.4258,533.0585 886.5161,517.7523 879.7747,502.7273 872.133,487.7764 863.6427,473.0305 854.575,458.9436 844.7944,445.3002 834.1639,431.9773 822.8489,419.1528 811.075,407.0716 798.9219,395.7969 786.469,385.392 773.7961,375.9201 760.9827,367.4446 747.8798,359.8987 737.7971,354.8143 727.4073,350.204 717.1103,346.2518 706.9315,342.9411 696.5408,340.1708 686.3324,338.0524 675.994,336.5274 665.9122,335.66 655.6475,335.41 645.541,335.7812 635.3979,336.7871 625.2633,338.4454 615.1847,340.7639 605.5474,343.6277 596.0337,347.0991 586.572,351.1993 571.8628,358.9019 557.6865,368.0231 543.625,378.875 530.0438,391.1495 522.3029,399.0175 514.5455,407.5871 506.916,416.6863 499.7402,425.992 484.7515,447.7152 461.905,483.7262 457.101,490.4597 452.3908,496.1598 448.8849,499.7688 444.7754,503.3878 441.1545,506.0246 437.6636,508.0452 434.226,509.567 430.2908,510.7979 425.7464,511.7162 420.9763,512.2482 413.166,512.0534 404.1121,510.7892 394.6852,508.4398 382.935,504.707 371.8892,500.3433 358.4202,494.307 346.1329,488.1401 331.5286,480.2221 315.9442,471.0961 295.8698,458.622 280.3864,448.4488 261.3733,435.422 246.413,424.6442 224.6335,408.3538 207.2173,394.3063 204.0296,391.4935 202.9616,390.189 209.5594,394.2666 258.2208,428.1589 282.3354,444.1538 312.3752,462.9116 339.9928,478.4896 364.2005,490.7645 390.153,502.1837 402.5421,506.9223 419.5009,512.7095 450.2317,522.0257 456.1906,524.6173 457.8801,525.9009 458.8472,527.1574 459.0,528.125 458.5469,529.4844 457.679,530.427 455.7558,531.5975 451.1763,532.9406 445.5297,533.4752 437.3163,533.0432 426.1242,531.0751 413.4285,527.4317 400.763,522.7424 385.5861,516.2854 368.3945,507.9426 353.5625,500.0 335.1229,489.3617 315.6832,477.4235 294.124,463.4326 275.2512,450.466 252.5978,434.2261 231.2929,418.1637 206.3361,398.5746 187.7401,383.0268 183.2494,378.8163 181.8861,377.0106 184.4184,378.3413 192.6437,383.9219 245.0554,421.8448 277.5801,444.1514 296.2759,456.2263 314.4315,467.4758 330.488,476.8202 346.6792,485.6555 362.9254,493.9561 376.5845,500.3959 391.3824,506.7618 407.2707,512.9744 419.689,517.2404 433.0722,521.1878 472.6444,531.0116 479.891,533.8 483.7963,536.4722 485.291,538.0962 486.1664,539.5983 486.8658,541.7623 487.02,543.6251 486.6979,546.1947 486.1113,548.008 484.784,550.4125 483.1064,552.6137 479.5349,555.6292 474.3848,558.1887 468.7785,559.6209 462.4059,559.9297 457.5281,559.6943 452.3742,558.9606 445.3777,557.5031 438.7969,555.7188 424.6492,550.8537 408.2436,543.6745 391.9563,535.6463 370.2309,523.819 350.7715,512.2147 327.1099,497.3222 302.5039,480.7815 275.8679,462.0371 250.4052,443.156 223.762,422.5472 196.1349,400.2546 172.7195,380.4329 148.6605,358.562 143.8646,353.6698 142.3037,351.3773 142.8873,351.3334 144.5254,352.2051 151.3471,356.988 222.6558,411.2348 254.1312,434.2805 275.7311,449.4306 299.384,465.1469 322.607,479.6779 343.1276,491.6562 363.2385,502.4193 382.751,511.9309 402.0428,520.4016 419.2027,526.9209 436.7164,532.5259 453.2403,536.9247 468.6394,540.109 484.6968,542.6346 504.4635,544.9167 517.1496,546.8466 523.776,548.63 529.8167,551.0316 535.2305,554.4038 539.9712,558.3493 545.8851,564.6396 559.2678,580.8858 569.5059,592.0549 579.9375,602.1548 594.4715,614.1324 611.8565,626.1378 626.142,634.6345 644.4889,644.2481 665.1212,653.4667 678.283,658.5407 692.7985,663.2986 707.7328,667.4839 721.2132,670.4467 735.2167,672.6847 749.4884,674.1408 761.5419,674.5348 773.3074,674.0362 784.2458,672.7333 794.6188,670.6609 803.7173,667.9762 812.1554,664.5522 820.19,660.2707 827.7097,655.1038 834.3297,649.2955 840.1494,642.7895 845.2636,635.4768 849.6437,627.325 853.0732,618.7383 855.5707,609.8352 857.2134,600.3819 857.9845,590.2979 857.8736,579.6364 856.8673,568.4901 854.9524,556.9515 852.1158,545.1131 848.3917,533.2032 843.8485,521.3971 838.3053,509.2327 831.9381,497.161 824.8061,485.297 817.1952,474.0708 808.9716,463.2554 800.0686,452.7853 790.411,442.6 780.6238,433.3582 770.5088,424.8323 760.1297,417.0861 749.5505,410.1834 738.8404,404.1585 728.6423,399.2194 718.4991,395.0505 708.4526,391.6409 698.1934,388.8979 688.1288,386.9451 678.2789,385.7606 667.7721,385.2433 657.6395,385.4858 647.8979,386.4424 638.2131,388.1426 628.9863,390.5125 619.7126,393.6649 610.6685,397.4738 601.5559,402.1096 592.7746,407.3988 584.0897,413.4811 575.9644,420.031 568.0985,427.3035 560.5746,435.2498 553.476,443.7382 546.9352,452.5486 540.8996,461.7674 535.3268,471.4585 530.1158,481.8591 526.169,490.7873 523.2269,498.3674 519.1206,510.6565 517.005,518.0077 514.09,529.9701 511.6343,542.3781 507.6329,568.4498 506.1541,576.4521 504.148,583.6349 501.6936,589.6749 499.9153,592.3574 498.0843,594.407 495.8962,596.094 493.132,597.594 490.5972,598.3565 487.131,598.918 479.5722,598.6126 474.2272,597.5894 467.2403,595.661 450.9335,589.5763 431.6811,580.3152 407.5528,567.1835 387.9003,555.4062 360.8862,538.1307 330.3183,517.4573 306.1763,500.3796 275.7783,477.8007 245.6275,454.4944 213.9868,429.0044 183.3549,403.3856 151.9831,375.9555 123.223,349.7027 112.0232,338.8627 102.6479,329.2906 96.3513,322.2504 95.0552,320.475 94.7037,319.4662 95.1599,319.3133 96.0611,319.6293 99.2821,321.5221 110.781,329.9864 194.2512,397.0417 231.0133,425.6642 265.5781,451.3358 297.2953,473.6082 314.6711,485.1103 331.6651,495.8171 348.5045,505.8812 365.0532,515.2124 380.8661,523.5637 395.724,530.8372 409.9308,537.1768 424.0987,542.8709 442.1083,549.1733 460.0201,554.3694 476.6013,558.1382 492.7515,560.7185 507.5588,562.1458 521.8242,562.6932 534.1214,562.4497 561.8327,561.0843 569.5315,561.0425 578.0018,561.6651 585.476,563.1749 593.4132,565.8253 602.1202,570.0579 607.8269,573.3308 626.9638,585.3338 639.4295,592.5496 648.7914,597.5948 658.9537,602.5271 668.9245,606.711 680.3599,610.7542 689.3304,613.4187 699.3098,615.7616 708.7336,617.4907 716.639,618.4456 725.026,618.8744 732.9967,618.7188 740.5892,617.9916 747.7512,616.6833 754.7022,614.7578 760.9723,612.3466 766.3828,609.5563 771.1468,606.3898 775.5338,602.722 779.4667,598.5836 782.7485,594.1887 785.6371,589.16 788.0056,583.6384 789.7083,578.066 790.8669,572.1597 791.4676,565.6301 791.45,558.7387 790.8379,551.9347 789.7014,545.3374 787.9973,538.6434 785.6802,531.7876 782.7387,524.6112 779.2765,517.4748 775.5005,510.7901 771.4853,504.606 766.865,498.392 761.4602,491.9366 755.6846,485.8008 749.8651,480.3155 743.7847,475.2643 737.3463,470.6204 730.3274,466.1937 723.5513,462.4786 716.7103,459.2824 710.1733,456.7541 703.417,454.691 696.3758,453.085 689.4793,452.0327 683.4813,451.5458 677.2555,451.4748 671.4327,451.8235 665.4683,452.5926 659.7835,453.738 654.3604,455.2479 648.8437,457.2466 643.7748,459.5331 638.5037,462.3403 633.6094,465.3906 629.0831,468.6927 624.9161,472.2554 620.5022,476.6733 616.5076,481.3062 612.9833,486.0765 609.8372,491.0817 607.2407,496.0288 604.9672,501.3293 603.0227,506.9832 601.5152,512.628 600.5515,517.9707 599.995,523.6238 599.8769,528.9623 600.2044,533.9518 601.0347,539.6213 602.3278,545.6073 603.6861,549.9446 605.6777,554.8675 608.5023,560.7301 610.9028,564.8935 614.3056,569.8981 618.5815,575.4395 622.4886,579.8543 627.0863,584.398 632.9158,589.5863 638.0602,593.6389 652.7121,603.3828 665.6776,610.3059 680.8458,616.7311 688.7705,619.4453 697.344,621.958 704.3836,623.6951 711.4754,625.0466 718.7143,626.042 726.4098,626.7053 732.9195,626.9428 739.4081,626.7804 745.8673,626.2012 751.8594,625.2754 757.7097,623.9804 763.1243,622.3703 768.4263,620.2797 773.1817,617.9084 777.6997,615.1408 781.9309,611.9857 785.7759,608.5003 789.1794,604.7226 792.2592,600.5315 794.792,596.2936 797.1274,591.3821 798.8954,586.5219 800.9574,577.6277 801.8694,567.9127 801.564,557.9338 800.0728,547.9155 797.1446,536.8621 793.1261,525.9978 787.9921,515.1979 782.0,505.0 774.8137,494.7963 767.0378,485.397 758.831,476.9365 749.9971,469.2477 739.7599,461.7724 729.2403,455.408 718.8841,450.3763 708.2243,446.4395 697.8699,443.6855 687.7626,442.025 677.9615,441.458 667.882,441.9937 657.9256,443.5792 648.279,446.2369 639.2202,449.9018 630.4102,454.6514 622.2161,460.3473 614.3823,467.1954 607.6935,474.4591 601.8311,482.527 596.6453,491.7144 592.4866,501.6393 589.8844,510.7665 588.375,520.375"/>
  </g>
</svg>
