<?xml version="1.0" encoding="utf-8" ?>
<svg xmlns="http://www.w3.org/2000/svg" xmlns:cc="http://creativecommons.org/ns" xmlns:dc="http://purl.org/dc/elements/1.1/" xmlns:ev="http://www.w3.org/2001/xml-events" xmlns:inkscape="http://www.inkscape.org/namespaces/inkscape" xmlns:rdf="http://www.w3.org/1999/02/22-rdf-syntax-ns" xmlns:sodipodi="http://sodipodi.sourceforge.net/DTD/sodipodi-0.dtd" xmlns:xlink="http://www.w3.org/1999/xlink" baseProfile="tiny" height="27.09333333cm" version="1.2" viewBox="0 0 1024.0 1024.0" width="27.09333333cm">
  <metadata>
    <rdf:RDF>
      <cc:Work>
        <dc:format>image/svg+xml</dc:format>
        <dc:source>vpype read './original_svgs/Strange Attractors #28.svg' linemerge linesimplify write './Strange Attractors #28.svg'
</dc:source>
        <dc:date>2024-08-05T01:35:18.303743</dc:date>
      </cc:Work>
    </rdf:RDF>
  </metadata>
  <defs/>
  <g fill="none" id="layer1" inkscape:groupmode="layer" inkscape:label="1" stroke="black" stroke-width="0.7mm" style="display:inline">
    <polyline points="885.875,500.25 846.25,412.5 831.875,354.0 840.0,314.875 868.125,289.375 914.25,275.375 973.75,275.125 1024.0,290.6954"/>
    <polyline points="1024.0,506.7689 1023.125,508.25 937.125,598.875 851.5,675.25 786.75,735.75 748.75,783.75 735.75,822.75 743.125,853.75 765.25,876.0 796.125,886.625 828.375,882.0 855.0,860.5 871.125,823.375 875.25,775.25 869.375,722.625 857.375,671.25 843.0,625.25"/>
    <polyline points="829.125,586.375 817.25,555.125 800.625,513.125 795.25,501.0 791.0,493.375 787.125,489.75 783.0,489.5 778.125,491.75 772.25,496.125 747.125,516.25 736.75,523.75 725.875,531.125 714.75,538.0 703.5,544.25 692.5,549.75 682.0,554.625 671.875,558.75 662.375,562.125 653.375,564.875 645.0,567.0 637.25,568.5 629.875,569.75 623.125,570.375"/>
    <polyline points="616.75,570.875 605.25,570.875 600.0,570.625 590.5,569.625 577.875,567.625 546.5,561.125 539.25,560.0 530.375,559.25"/>
    <polyline points="528.375,559.125 522.5,559.125 516.875,559.625 508.25,561.375 503.125,562.875 498.25,564.75 489.875,568.625 484.75,571.375"/>
    <polyline points="482.875,572.375 469.5,579.875 460.625,584.375 453.0,587.75 447.375,589.75 437.75,592.125 430.25,593.125 421.875,593.25 417.125,593.0 412.125,592.25"/>
    <polyline points="406.625,591.25 394.375,587.5 387.375,584.75 379.75,581.125 371.5,576.5 362.625,570.875 352.875,564.0 342.375,555.5 331.125,545.5 319.375,533.75 307.125,520.0 294.75,504.5 282.75,487.25 271.625,468.5 262.375,449.0 255.625,429.625 252.125,411.125 252.375,394.875 256.875,381.625 265.0,372.125 276.5,366.625 290.375,365.0 305.625,366.75 321.375,371.125 336.875,377.25"/>
    <polyline points="351.5,384.5 364.875,392.25 377.125,400.125 397.375,414.875 413.0,427.5 438.125,449.125 450.5,458.875 457.75,463.5 462.25,465.75 468.375,468.125 472.25,469.125"/>
    <polyline points="474.125,469.625 479.75,470.5 483.375,470.75 486.875,470.875 493.75,470.5 498.625,469.75 505.0,468.25 511.25,466.125 515.875,464.125"/>
    <polyline points="517.375,463.375 526.5,458.0 535.875,451.0 544.25,443.75 559.5,429.25"/>
    <polyline points="561.75,427.125 579.625,410.125 589.625,401.5 597.5,395.25 612.125,384.75 618.0,381.0 632.0,373.125 649.75,364.625 660.625,360.25 673.25,355.75 687.75,351.25 704.625,346.875 724.125,342.875"/>
    <polyline points="746.75,339.625 772.625,337.75 801.5,338.125 832.25,341.875 862.875,350.75 889.625,366.5 907.875,390.375 912.75,422.5 901.625,460.875 876.0,502.375 840.875,542.75 802.375,579.375 765.75,610.625 709.25,657.625 690.5,674.625 677.5,688.25 669.375,699.0 665.25,707.25 664.0,713.25 664.875,717.125 667.375,719.0 670.625,718.75 674.125,716.5 677.375,712.375 680.125,706.5"/>
    <polyline points="681.875,699.0 682.75,690.25 682.375,680.5 681.0,670.0 678.75,659.125 675.5,648.25 671.625,637.5 667.25,627.0 662.5,617.0 657.375,607.625 652.125,598.875 641.75,583.25 631.5,570.375 626.625,564.75 622.0,559.625 609.0,547.125 601.375,540.625 588.125,530.75"/>
    <polyline points="585.25,528.75 569.0,518.125 558.375,510.75 555.125,508.125 551.875,504.875 549.625,501.75"/>
    <polyline points="549.25,501.0 548.125,497.875 547.75,495.625 548.375,490.875 550.125,486.625 554.5,480.0"/>
    <polyline points="555.25,479.0 559.0,474.625 563.625,469.875 574.5,460.25 587.5,450.625 599.0,443.5"/>
    <polyline points="602.25,441.625 613.625,435.75 627.25,429.875 638.0,426.125 657.0,421.0 664.125,419.625 679.5,417.625 687.75,417.125 705.0,417.75 713.625,419.0 722.125,421.125 730.0,424.125 737.25,428.125 743.375,433.25 748.125,439.5 751.0,446.875 752.0,455.125"/>
    <polyline points="750.875,464.25 747.5,474.0 742.25,484.0 735.25,494.125 726.875,503.875 717.375,513.25 707.25,521.875 696.875,529.75 686.375,536.75 676.125,542.875 656.875,552.5 648.0,556.125 639.625,559.125 631.875,561.5 624.625,563.25 611.5,565.625 600.125,566.625 590.0,566.75 581.125,566.25 573.125,565.375"/>
    <polyline points="569.5,564.875 542.75,560.875 529.125,559.75 519.375,560.125 510.375,561.625"/>
    <polyline points="508.75,562.125 505.375,563.0 500.25,564.875 493.625,567.75 486.75,571.25 463.125,584.375"/>
    <polyline points="460.875,585.5 453.25,588.875 441.375,592.75 434.375,594.125 426.5,594.75 422.125,594.875 412.25,594.0 400.875,591.5 394.5,589.375 387.375,586.625 379.75,583.0 371.375,578.375 362.375,572.75 352.375,565.75 341.75,557.25 330.25,547.125 318.125,535.0"/>
    <polyline points="305.625,521.125 292.875,505.125 280.375,487.375 269.0,468.0 259.375,447.875 252.25,427.75 248.75,408.625 249.125,391.875 253.875,378.25 262.5,368.625 274.625,363.25 289.0,361.875 304.875,364.0 321.125,368.75 336.875,375.375 351.875,383.0 365.5,391.0 377.625,399.125 398.0,414.25 413.25,427.0 433.875,445.375"/>
    <polyline points="437.625,448.75 440.875,451.75 449.375,458.625 456.375,463.25 462.75,466.5 468.625,468.625 474.25,470.0 483.375,471.0 490.25,470.875"/>
    <polyline points="492.0,470.75 501.875,469.25 511.25,466.25 518.875,462.75 526.5,458.125 531.125,454.875"/>
    <polyline points="532.625,453.625 537.5,449.875 547.875,440.75 574.0,415.75 586.375,404.75"/>
    <polyline points="589.875,401.75 602.375,392.125 618.625,381.375 632.625,373.5 641.125,369.25 650.75,365.0 661.75,360.625 674.375,356.125 689.0,351.625 706.0,347.375 725.75,343.5 748.5,340.5 774.375,338.875 803.125,339.375 833.625,343.625 863.625,352.875 889.5,369.125 906.5,393.375 910.125,425.625 898.125,463.875 872.125,504.75"/>
    <polyline points="837.125,544.5 799.125,580.25 763.25,610.875 732.375,636.25 707.875,656.875 689.375,673.375 676.625,686.625 668.5,697.125 664.125,705.25 662.75,711.125 663.5,714.875 665.625,716.625 668.625,716.5 671.875,714.375 675.0,710.5 677.5,704.875 679.25,697.75 680.0,689.375 679.75,680.0 678.5,669.875 676.375,659.5 673.375,648.875 669.625,638.375 665.375,628.25 660.75,618.5 655.75,609.25"/>
    <polyline points="650.75,600.625 640.375,585.375 635.375,578.625 625.5,566.875 616.375,557.25 604.0,545.875 590.0,534.875 578.625,527.125 563.75,517.75"/>
    <polyline points="562.125,516.75 556.375,512.875 552.0,509.5 548.75,506.375 546.875,504.25 545.25,501.375 544.5,499.375 544.25,497.25"/>
    <polyline points="544.25,496.5 544.5,493.625 546.625,488.125 550.0,482.875 556.875,474.75"/>
    <polyline points="558.0,473.625 562.875,468.75 570.5,462.0 582.75,452.625 596.25,443.75 606.625,438.0 614.75,434.0"/>
    <polyline points="619.125,432.0 629.0,428.0 640.25,424.125 653.0,420.625 667.625,417.625 683.75,415.875 692.5,415.5 701.375,415.75 710.375,416.625 719.25,418.125 727.875,420.75 735.875,424.25 743.0,428.875 748.75,434.75 752.875,441.75 755.0,449.875 755.0,459.0 752.625,468.875 748.125,479.25 741.625,489.75 733.5,500.125"/>
    <polyline points="724.0,510.125 713.75,519.375 703.0,528.0 692.125,535.625 681.5,542.375 671.125,548.125 661.25,553.125 651.875,557.125 635.0,563.25 620.375,566.875 613.875,568.0 607.75,568.75 596.625,569.5 587.0,569.375 578.375,568.875 557.375,566.0"/>
    <polyline points="554.375,565.5 538.625,563.375 529.625,562.875 525.5,563.0 519.625,563.5 512.25,564.75 507.0,566.125 501.875,568.0"/>
    <polyline points="500.125,568.75 489.75,573.75 464.25,589.0 456.875,592.875 448.625,596.5"/>
    <polyline points="445.625,597.625 439.0,599.625 431.625,601.25 427.5,601.75 418.5,602.0 407.875,601.0 401.875,599.75 395.25,597.875 388.0,595.375 380.125,591.875 371.375,587.5 361.75,581.875 351.25,574.75 339.75,565.875 327.125,555.125 313.75,542.25 299.5,527.0 285.0,509.125 270.5,489.0 257.125,466.875 245.5,443.5 237.125,419.875"/>
    <polyline points="232.875,397.625 233.625,378.125 239.75,362.75 250.625,352.5 265.375,347.625 282.75,347.5 301.25,351.375 319.75,358.0 337.25,366.5 353.25,375.875 367.5,385.5 379.75,394.75 390.375,403.375 399.375,411.375 413.25,425.0 423.125,435.75 438.125,453.375 444.375,459.875"/>
    <polyline points="446.25,461.625 449.875,464.5 455.375,467.75 461.0,470.125 468.5,472.25 478.0,473.625 481.625,473.875 492.375,473.625"/>
    <polyline points="494.125,473.5 502.5,472.25 507.375,471.0 512.125,469.375 521.375,465.25 527.625,461.625 534.0,457.375"/>
    <polyline points="535.625,456.25 547.875,446.5 575.5,422.875 585.25,415.25 597.125,406.75"/>
    <polyline points="601.75,403.625 618.25,393.875 632.25,386.875 649.75,379.5 660.25,375.75 672.0,372.0 685.375,368.375 700.5,365.0 717.625,362.25 736.75,360.125 757.875,359.25 780.625,360.25 804.25,364.0 827.25,371.25 847.625,383.25 862.375,400.5 868.875,423.125 865.25,450.5 851.5,480.75 829.5,511.625 802.375,541.125 773.5,567.75"/>
    <polyline points="745.75,590.875 720.875,610.125 668.625,649.25 650.25,663.75 638.0,674.375 636.375,675.5 635.375,675.75 634.875,675.125 634.0,665.625 632.625,657.625 631.5,653.125 628.375,643.625 624.0,633.75 618.75,624.0"/>
    <polyline points="615.875,619.25 609.75,610.375 603.25,602.25 593.25,591.75 583.375,583.25 573.875,576.375 562.125,569.625 556.625,567.0 548.875,564.0 541.75,561.875"/>
    <polyline points="539.5,561.375 535.125,560.5 529.0,559.75 521.25,559.625 517.625,559.875 510.75,561.0 507.25,561.875 500.625,564.125 494.0,566.875"/>
    <polyline points="492.375,567.75 487.25,570.25 464.0,583.125 454.25,587.625 445.75,590.625 435.75,592.875"/>
    <polyline points="432.0,593.375 423.875,593.75 419.25,593.625 409.125,592.25 403.375,590.875 397.25,589.0 390.5,586.5 383.125,583.25 375.125,579.125 366.5,574.0 357.0,567.625 346.875,559.875 335.875,550.5 324.25,539.5 312.0,526.5 299.5,511.625 287.25,495.0 275.625,476.625 265.25,457.25 257.25,437.5 252.25,418.25 250.875,400.75 253.5,386.0 260.25,374.75"/>
    <polyline points="270.625,367.5 283.75,364.375 298.625,364.875 314.5,368.25 330.25,373.875 345.375,380.75 359.375,388.5 372.125,396.5 383.625,404.25 402.5,418.5 416.875,430.5 436.375,447.625 446.25,455.875 454.125,461.375 460.875,465.25"/>
    <polyline points="463.0,466.125 467.0,467.75 472.875,469.375 480.25,470.625 483.875,470.875 489.125,470.875 495.875,470.25 502.375,469.0 507.0,467.625"/>
    <polyline points="508.625,467.125 514.75,464.625 519.25,462.375 528.5,456.625 536.375,450.625 548.375,440.0"/>
    <polyline points="550.125,438.25 572.0,417.25 580.625,409.375 590.75,400.625 598.75,394.25 608.375,387.375 619.875,380.0 634.375,372.0 643.0,367.75"/>
    <polyline points="652.875,363.375 664.125,359.0 677.25,354.5 692.375,350.0 710.0,345.75 730.5,342.0 754.0,339.125 780.75,337.75 810.25,339.0 841.25,344.0 871.125,354.75 895.875,372.75 910.625,399.0 910.875,433.25 895.125,473.0 866.25,514.375 829.5,553.875 791.25,588.875 756.0,618.625 726.375,643.0 703.125,662.75 686.125,678.625 674.625,691.375 667.75,701.375 664.375,708.875 663.875,714.25"/>
    <polyline points="665.375,717.625 668.0,718.75 671.375,718.0 674.75,715.25 677.875,710.625 680.375,704.25 681.875,696.5 682.375,687.5 681.75,677.5 680.125,667.0 677.625,656.125 674.25,645.25 670.25,634.5 665.75,624.25 660.875,614.5 655.75,605.25 645.25,588.75 635.0,575.0 630.0,569.0 620.5,558.625 607.75,546.375"/>
    <polyline points="603.875,543.125 593.25,534.75 587.125,530.375 561.75,513.625 556.625,509.875 552.875,506.5"/>
    <polyline points="552.125,505.625 549.125,501.875 548.375,500.375 547.375,496.625 547.75,491.875 548.5,489.5 550.125,486.0"/>
    <polyline points="550.75,485.125 552.5,482.25 555.625,478.25 564.25,469.0 573.625,460.75 581.75,454.5"/>
    <polyline points="584.0,452.875 594.625,445.875 600.875,442.125 616.125,434.5 625.375,430.5 635.875,426.625 654.375,421.375 668.75,418.75 676.625,417.75 684.75,417.125 693.25,416.875 701.875,417.25 710.625,418.25 719.25,420.0"/>
    <polyline points="727.5,422.75 735.0,426.375 741.625,431.125 746.875,436.875 750.625,443.875 752.25,451.875 751.875,460.75 749.375,470.375 744.75,480.375 738.375,490.5 730.375,500.5 721.125,510.125 711.125,519.0 700.75,527.25 690.25,534.625 679.875,541.0 669.75,546.625 660.25,551.375 651.125,555.25 642.5,558.5 634.5,561.0 627.125,563.0 620.125,564.5 613.625,565.625 601.875,566.875"/>
    <polyline points="596.625,567.125 587.0,567.0 578.375,566.375 567.125,565.0 538.75,560.75 527.75,560.125 521.875,560.375"/>
    <polyline points="520.0,560.5 514.5,561.25 509.25,562.375 500.75,565.125 488.875,570.625 476.25,577.75"/>
    <polyline points="474.25,578.875 463.625,584.75 458.875,587.125 451.0,590.5 445.125,592.5 438.625,594.125 427.125,595.625 418.125,595.5 407.75,594.125 395.5,590.75 380.875,584.625"/>
    <polyline points="372.625,580.25 363.5,574.625 353.625,567.875 343.0,559.5 331.5,549.5 319.375,537.625 306.625,523.75 293.625,507.875 280.875,490.125 269.0,470.625 258.875,450.125 251.25,429.625 247.125,409.875 247.0,392.375 251.25,378.125 259.625,367.75 271.625,361.875 286.125,360.125 302.125,362.0 318.625,366.625 334.75,373.25 350.0,380.875 363.875,389.125 376.375,397.5 387.375,405.375 397.0,412.875"/>
    <polyline points="405.25,419.75 418.75,431.5 440.0,451.125 445.75,456.125 450.75,460.0 457.375,464.25 465.375,467.875 473.0,470.0 478.5,470.75"/>
    <polyline points="480.25,471.0 487.375,471.25 494.125,470.75 499.0,470.0 503.875,468.875 510.125,466.875 516.25,464.25 520.75,461.875"/>
    <polyline points="522.375,461.0 531.625,454.75 541.375,446.875 567.25,422.625"/>
    <polyline points="569.75,420.25 584.25,407.125 595.375,398.125 609.375,388.0 621.25,380.625 628.25,376.625 645.0,368.375 655.125,364.125 666.75,359.75 680.125,355.25 695.75,351.0 713.75,346.875 734.5,343.375 758.375,340.875 785.125,340.125 814.375,342.125"/>
    <polyline points="844.5,348.125 872.75,360.0 895.25,379.125 907.0,406.375 904.5,440.75 886.875,479.75 857.25,520.0 821.125,557.75 784.125,591.125 750.375,619.25 722.0,642.375 699.875,661.125 683.625,676.25 672.5,688.25 665.5,697.625 662.125,704.75 661.125,709.75 662.125,712.875 664.375,714.0 667.125,713.375 670.125,710.875 672.875,706.625 675.0,700.875 676.375,693.75 676.875,685.5 676.375,676.375"/>
    <polyline points="675.0,666.625 672.625,656.625 669.625,646.5 665.875,636.375 661.75,626.75 657.125,617.375 652.375,608.625 642.375,592.75 637.25,585.625 627.5,573.25 622.75,567.875 613.75,558.5 601.5,547.5 594.25,541.625 587.625,536.75 576.25,529.125"/>
    <polyline points="573.75,527.625 552.375,514.375 545.5,509.125 542.0,505.25"/>
    <polyline points="541.5,504.625 539.875,501.0 539.625,499.125 539.75,496.625 541.0,492.5 543.5,488.125"/>
    <polyline points="544.0,487.375 548.625,481.25 554.125,475.25 562.875,466.875 571.125,459.875"/>
    <polyline points="573.0,458.375 579.25,453.625 589.375,446.625 598.625,441.0 609.75,435.0 623.375,428.875 639.875,422.875 653.0,419.125 668.0,416.125 676.125,414.875 684.625,414.125"/>
    <polyline points="693.625,413.75 702.875,413.875 712.25,414.75 721.5,416.375 730.5,418.875 739.0,422.625 746.375,427.5 752.375,433.5 756.625,440.875 758.75,449.5 758.5,459.0 755.875,469.5 750.875,480.25 743.875,491.375 735.125,502.125 725.125,512.5 714.375,522.25 703.125,531.0 691.875,538.875 680.875,545.75 670.25,551.625 660.125,556.5 650.625,560.625 641.875,564.0 633.625,566.625 626.125,568.625"/>
    <polyline points="619.0,570.25 612.5,571.25 600.75,572.5 590.5,572.75 573.5,571.5 545.5,567.5 538.0,566.75 529.125,566.5"/>
    <polyline points="527.0,566.5 519.0,567.25 513.375,568.375 504.5,571.25 495.75,575.25 481.25,584.0"/>
    <polyline points="479.375,585.25 464.75,595.125 454.75,601.125 446.25,605.375 439.75,608.0 436.125,609.125 428.25,611.0 419.25,612.0 408.5,611.75 402.375,610.875 395.75,609.375"/>
    <polyline points="388.25,607.125 380.0,604.0 370.875,599.875 360.75,594.25 349.375,587.0 336.75,577.875 322.75,566.375 307.5,552.125 291.125,535.0 273.875,514.625 256.5,491.0 240.0,464.5 225.75,436.125 215.375,407.375 210.625,380.25 212.5,357.0 221.25,339.75 236.125,329.375 255.375,325.875 277.25,328.375 299.5,335.375 320.75,345.375 340.0,356.625 356.75,368.375 370.875,379.875 382.625,390.5"/>
    <polyline points="392.125,400.25 399.75,409.0 405.75,416.75 414.125,429.625 419.25,439.75 426.625,457.0 427.875,459.5 430.75,463.75 432.25,465.625 435.625,468.875 439.5,471.5 445.75,474.625 452.5,477.0"/>
    <polyline points="454.75,477.625 466.25,480.25 481.25,482.25 488.875,482.75 494.25,482.75 504.125,482.0"/>
    <polyline points="505.625,481.75 508.75,481.25 514.5,479.75 520.125,477.75 525.625,475.25 534.125,470.375 541.5,465.25"/>
    <polyline points="543.125,464.125 565.875,446.625 579.0,437.0 596.375,425.75 610.0,418.125"/>
    <polyline points="615.25,415.5 627.125,410.125 641.25,404.625 649.375,401.875 668.0,396.625 678.5,394.375 690.125,392.375 702.625,390.875 716.125,390.125 730.375,390.125 745.125,391.375 759.875,394.25 774.125,398.875 787.0,405.875 797.375,415.375 804.25,427.5 806.75,442.0 804.375,458.75 797.125,476.75 785.625,495.25 770.75,513.5 753.875,530.625 736.0,546.25"/>
    <polyline points="718.375,560.0 701.625,571.875 686.25,581.875 672.25,590.0 659.875,596.75 649.0,602.125 639.375,606.25 623.75,612.0 617.25,613.75 606.5,615.625 602.0,616.0 594.125,615.875 584.5,614.5 565.125,609.0"/>
    <polyline points="563.0,608.5 555.25,606.875 549.875,606.5 544.75,606.875 541.625,607.5 535.75,609.75 533.125,611.5 529.5,614.625 525.625,620.25"/>
    <polyline points="524.75,621.875 522.875,627.625 521.875,634.375 522.0,639.5 522.625,645.375 525.375,655.25 526.75,658.875 530.625,666.875 536.0,675.625 539.375,680.25 547.625,690.0 558.375,700.375 564.625,705.5 571.5,710.625"/>
    <polyline points="579.125,715.625 587.375,720.375 596.125,724.5 605.375,728.125 614.875,730.75 624.5,732.375 634.0,732.75 643.125,731.625 651.5,728.875 659.0,724.5 665.25,718.375 670.25,710.75 673.625,701.75 675.625,691.625 676.0,680.625 675.25,669.125 673.25,657.375 670.25,645.75 666.5,634.5 662.25,623.625 657.5,613.375 652.625,603.75 647.5,594.875 642.375,586.75 632.375,572.5"/>
    <polyline points="627.5,566.375 614.0,551.375 602.25,540.375 589.125,529.75 565.25,513.125 560.0,509.0"/>
    <polyline points="558.875,508.125 553.875,502.875 552.375,500.375 551.375,498.0 550.75,495.625 550.75,492.25 552.25,487.125"/>
    <polyline points="552.75,486.125 553.625,484.25 557.75,478.25 563.875,471.375 572.375,463.375 581.75,455.875"/>
    <polyline points="584.0,454.25 588.75,450.875 597.125,445.625 610.875,438.125 614.875,436.25 623.625,432.375 633.75,428.625 651.375,423.5 665.125,420.75 672.5,419.625 680.25,418.875 696.625,418.75 705.0,419.375 713.375,420.75"/>
    <polyline points="721.5,423.0 729.0,426.125 735.875,430.125 741.5,435.25 745.75,441.375 748.375,448.625 749.125,456.75 747.75,465.625 744.375,475.0 739.125,484.75 732.25,494.375 724.125,503.75 715.0,512.75 705.125,521.0 695.125,528.625 685.0,535.25 675.0,541.125 665.375,546.25 656.25,550.5 639.375,556.875 631.75,559.125 617.875,562.25 605.75,563.75"/>
    <polyline points="600.25,564.125 590.25,564.25 577.25,563.375 562.875,561.5 543.125,558.25 533.875,557.25 523.625,557.0"/>
    <polyline points="521.75,557.0 516.375,557.5 511.125,558.375 502.875,560.625 493.125,564.5 479.5,571.625"/>
    <polyline points="477.75,572.5 470.0,576.75 456.5,583.125 445.5,586.875 439.125,588.25 428.125,589.375 419.5,589.125 409.625,587.625 398.125,584.375"/>
    <polyline points="391.625,581.875 384.625,578.75 377.0,574.75 368.75,569.875 359.875,563.875 350.375,556.5 340.125,547.875 329.375,537.75 318.125,525.875 306.75,512.375 295.375,497.25 284.75,480.75 275.125,463.25 267.5,445.375 262.375,427.875 260.25,411.5 261.75,397.375 266.75,386.25 275.0,378.375 286.125,374.0 299.125,373.125 313.25,374.875 327.75,379.0 342.0,384.625 355.625,391.25 368.25,398.375"/>
    <polyline points="379.75,405.5 390.125,412.5 407.5,425.125 440.5,451.125 450.75,458.5 459.125,463.5 464.0,465.875 468.5,467.625 472.75,468.875 480.625,470.5"/>
    <polyline points="482.5,470.625 486.25,470.875 493.25,470.75 498.375,470.125 504.875,468.75 514.125,465.375 517.25,464.0 523.375,460.625"/>
    <polyline points="524.875,459.625 532.625,454.25 542.625,446.125 571.75,419.0"/>
    <polyline points="574.5,416.5 590.625,402.625 603.375,393.0 620.125,382.25 634.75,374.375 653.375,366.0 664.75,361.625 677.75,357.375 692.875,353.0 710.25,349.0 730.375,345.5 753.5,342.875 779.375,341.875 807.75,343.375 837.25,348.625 865.5,359.25"/>
    <polyline points="888.75,376.75 902.375,402.0 902.625,434.5 888.125,472.125 861.25,511.375 826.75,549.125 790.375,582.75 756.25,611.5 703.75,654.5 686.25,670.0 673.875,682.375 665.75,692.125 661.125,699.625 659.25,705.125 659.375,708.625 660.875,710.375 663.25,710.25 665.875,708.5 668.375,705.125 670.5,700.25 672.125,694.0 672.75,686.5 672.625,678.25 671.625,669.25 669.75,659.875"/>
    <polyline points="667.125,650.25 663.75,640.75 660.0,631.375 655.75,622.25 651.25,613.625 641.625,597.875 636.75,590.75 627.125,578.25 622.5,572.875 613.5,563.25 601.125,551.875 586.875,540.75 577.875,534.625 570.0,529.875"/>
    <polyline points="567.75,528.375 544.0,514.625 539.0,511.0 536.625,508.875"/>
    <polyline points="536.25,508.375 534.625,506.375 533.5,503.875 533.25,502.5 533.375,499.5 534.75,495.75"/>
    <polyline points="535.0,495.125 537.75,490.75 541.75,485.75 545.5,481.5 551.25,475.75"/>
    <polyline points="552.25,474.625 567.875,460.75 580.25,451.25 594.125,442.125 604.625,436.25"/>
    <polyline points="608.625,434.125 612.875,432.0 627.5,425.75 633.125,423.625 645.5,419.625 659.75,416.0 667.625,414.375 676.0,413.125 684.875,412.25 694.125,411.75 703.75,411.75 713.5,412.5 723.25,414.125 732.75,416.75 741.625,420.375 749.5,425.375 755.875,431.75 760.375,439.375 762.75,448.25 762.5,458.375 759.75,469.25 754.5,480.75"/>
    <polyline points="747.0,492.25 737.75,503.625 727.125,514.5 715.75,524.625 704.0,533.75 692.375,541.875 680.875,549.0 670.0,555.0 650.0,564.25 632.875,570.25 625.25,572.25 611.625,574.875 605.625,575.625 594.75,576.25 589.875,576.25 573.0,575.0 562.5,573.5"/>
    <polyline points="559.375,573.0 547.875,571.375 540.25,570.625 533.25,570.25 529.0,570.375 524.75,570.625 517.0,571.875 511.375,573.375 504.25,576.125"/>
    <polyline points="502.375,577.0 495.375,580.75 486.375,586.625 462.0,605.5 451.875,612.75"/>
    <polyline points="449.125,614.625 443.125,618.125 436.375,621.5 432.75,623.125 424.5,625.75 420.0,626.75 409.625,627.75 403.625,627.625 396.875,627.0 389.5,625.5 381.125,623.125 371.75,619.625 361.125,614.625 349.125,607.875 335.375,598.75 319.75,587.0 302.125,571.75 282.625,552.625 261.375,529.0 239.125,500.5 217.125,467.25 197.5,430.625"/>
    <polyline points="182.75,392.5 175.875,356.375 178.75,326.125 191.75,304.75 213.25,293.875 240.125,293.125 269.0,300.125 296.875,312.5 321.625,327.375 342.625,343.0 359.375,358.25 372.375,372.25 381.875,385.0 388.5,396.25 392.875,406.25 395.375,415.125 396.625,423.125 397.0,430.125 395.25,456.75 395.5,460.75 396.125,464.25 397.125,467.5"/>
    <polyline points="398.625,470.25 400.5,472.875 402.75,475.125 405.25,477.0 408.125,478.875 411.125,480.375 417.375,483.0 430.625,487.0 459.25,494.0 468.0,496.5"/>
    <polyline points="470.0,497.0 483.0,501.125 498.875,507.0"/>
    <polyline points="499.375,507.125 509.125,511.0 511.375,512.25 511.25,512.75 503.125,520.75"/>
    <line x1="502.875" x2="494.25" y1="521.0" y2="528.875"/>
    <polyline points="493.75,529.25 484.75,536.875 476.125,543.125"/>
    <polyline points="475.125,543.75 467.0,548.625 459.875,552.0 454.875,553.875 447.25,555.875 443.0,556.625 438.25,557.125 433.125,557.25"/>
    <polyline points="430.375,557.125 421.375,556.0 414.625,554.375 407.125,551.875 398.875,548.125 394.5,545.875 385.25,540.125 380.375,536.625 370.25,528.25 359.875,518.125 354.75,512.25 345.125,499.625 340.875,492.75 337.0,485.75 333.75,478.625 331.25,471.625 329.625,464.875"/>
    <polyline points="329.0,458.625 329.25,452.75 330.625,447.75 333.0,443.5 336.375,440.125 340.5,437.75 345.5,436.25 351.125,435.5 357.125,435.75 363.5,436.625 376.75,440.0 383.375,442.375 396.25,447.75 419.25,459.125 449.625,475.25"/>
    <polyline points="453.125,477.0 465.25,482.875 479.625,488.625 485.375,490.5 493.625,492.625 503.0,493.875"/>
    <polyline points="504.125,493.875 508.5,493.875 513.5,493.25 515.375,492.75 518.875,491.75 523.25,489.875 527.5,487.5"/>
    <polyline points="528.375,486.875 536.875,481.0 556.75,464.5"/>
    <polyline points="558.375,463.25 571.625,452.75 581.5,445.625 590.375,439.875 601.0,433.625 605.0,431.375 618.875,424.625 636.0,417.75 642.75,415.5"/>
    <polyline points="649.875,413.375 666.0,409.5 675.0,407.875 684.5,406.5 694.625,405.625 705.375,405.375 716.375,405.75 727.5,407.0 738.5,409.5 749.0,413.125 758.5,418.375 766.5,425.125 772.25,433.625 775.375,443.75 775.375,455.25 772.25,467.875 766.125,481.125 757.375,494.625 746.375,507.75 734.0,520.25 720.75,531.75 707.375,542.125 694.25,551.125 681.625,559.0 669.75,565.5"/>
    <polyline points="658.75,570.875 648.625,575.375 639.375,578.875 631.0,581.625 623.25,583.75 616.25,585.25 609.875,586.375 604.0,587.0 593.5,587.625 584.5,587.375 569.375,585.75 549.0,582.75 541.625,582.25"/>
    <polyline points="539.375,582.25 534.875,582.25 528.625,582.875 520.875,584.625 515.375,586.625 510.125,589.25 503.375,593.75 496.875,599.5 493.75,602.875"/>
    <polyline points="492.125,604.625 489.125,608.375 484.625,614.875 479.0,625.125 476.5,630.875 474.25,637.5 472.375,644.75 471.75,648.625 470.875,657.375 471.125,667.5 471.75,673.0 474.625,685.75 477.125,693.0 480.375,701.0"/>
    <polyline points="484.75,709.75 490.375,719.5 497.625,730.25 506.875,742.125 518.375,755.375 532.75,770.0 550.375,785.75 571.75,802.375 597.375,819.5 627.125,835.75 660.375,849.5 695.75,858.5 731.0,860.125 762.75,851.75 787.875,832.375 804.0,802.75 810.75,765.375 809.25,724.25 802.0,682.625 791.375,643.75 779.625,609.0 768.25,579.25 758.25,554.5 737.75,505.875"/>
    <polyline points="733.75,496.5 728.375,485.125 726.25,482.5 724.375,481.25 722.375,481.375 720.0,482.625 717.25,484.625 706.0,494.125 696.125,501.75 684.625,509.125 678.625,512.625 672.5,515.75 660.125,521.25 648.125,525.625 631.25,529.75 621.0,531.25"/>
    <polyline points="616.125,531.625 607.125,532.0 599.0,531.75 584.75,530.125 573.125,527.625 565.75,525.625 555.75,522.25 547.875,519.0"/>
    <polyline points="546.625,518.375 539.0,514.625 534.625,511.75 532.125,509.625 530.0,506.75"/>
    <polyline points="529.75,506.375 529.125,504.0 529.25,502.0 530.5,498.375 532.25,495.5"/>
    <polyline points="532.625,494.875 540.0,486.0 549.5,476.25"/>
    <polyline points="550.625,475.25 559.375,467.125 567.5,460.25 575.5,454.0 591.0,443.375 601.125,437.5"/>
    <polyline points="604.875,435.5 617.75,429.125 628.0,424.875 639.875,420.625 653.375,416.75 669.0,413.375 677.5,412.125 686.625,411.25 696.0,410.75 705.875,410.875 715.75,411.75 725.75,413.5 735.375,416.25 744.25,420.25 752.125,425.5 758.5,432.125 762.75,440.125 764.75,449.5 764.0,460.0 760.75,471.25"/>
    <polyline points="754.875,483.0 746.875,494.75 737.125,506.375 726.125,517.25 714.375,527.375 702.375,536.5 690.5,544.625 678.875,551.5 668.0,557.5 657.75,562.375 648.125,566.5 639.25,569.75 623.5,574.25 616.625,575.625 604.25,577.375 593.5,577.875 584.25,577.625 572.125,576.5 565.125,575.5"/>
    <polyline points="561.875,575.0 544.75,572.625 535.125,572.0 530.75,572.0 522.5,572.75 516.625,573.875 509.25,576.25 505.75,577.75"/>
    <polyline points="503.875,578.5 493.375,584.625 484.25,591.125 454.75,616.125"/>
    <polyline points="452.25,618.125 440.625,626.375 437.375,628.375 430.125,632.125 421.875,635.375 417.25,636.625 412.125,637.625 406.625,638.25 400.375,638.375 393.5,637.75 385.625,636.5 376.875,634.125 366.75,630.375 355.25,625.0 342.0,617.5 326.625,607.25 309.0,593.75 288.875,575.875 266.25,553.125 241.375,524.5 215.375,489.75"/>
    <polyline points="190.25,449.375 168.875,405.125 155.125,360.5 152.625,320.625 163.125,290.5 185.5,273.5 216.0,269.625 249.625,276.625 282.375,290.75 311.25,308.5 334.875,327.125 353.125,345.125 366.25,361.625 375.0,376.375 380.25,389.5 382.625,401.125 382.875,411.625 381.75,421.0 379.875,429.5 373.25,450.875 371.875,456.75 371.375,462.0 371.5,466.625 372.5,470.75"/>
    <polyline points="374.25,474.375 376.625,477.375 379.5,480.0 382.875,482.25 390.5,485.625 402.75,489.125 428.875,494.375 437.875,496.5 445.5,498.75 454.125,501.875"/>
    <polyline points="456.0,502.625 465.125,507.25 469.625,510.125 472.25,512.25 475.0,515.0 476.875,517.625 478.0,520.25"/>
    <polyline points="478.125,520.875 478.5,522.75 478.375,525.25 477.125,529.0 474.625,532.875 471.0,536.75"/>
    <polyline points="470.25,537.5 465.0,541.5 460.625,544.0 455.375,546.5 445.875,549.375 440.0,550.25 435.75,550.5"/>
    <polyline points="433.5,550.5 426.0,550.0 420.5,549.0 411.125,546.25 400.75,541.625 393.125,537.25 385.125,531.625 376.75,524.75 372.625,520.875 368.375,516.625 360.375,507.125 356.625,502.0 353.25,496.75 350.125,491.25 347.5,485.75"/>
    <polyline points="345.375,480.375 343.75,475.0 342.875,470.0 342.75,465.25 343.25,461.0 344.625,457.25 346.625,454.0 349.375,451.5 352.75,449.625 356.625,448.375 361.0,447.75 365.75,447.625 376.125,449.0 381.5,450.375 392.25,453.875 397.625,455.875 412.875,462.625 434.625,473.625"/>
    <polyline points="438.375,475.625 457.625,485.625 469.75,491.5 479.25,495.75 491.75,500.625"/>
    <polyline points="492.875,501.0 501.75,503.625 506.125,504.5 510.125,504.75"/>
    <polyline points="510.5,504.75 513.375,504.375 515.875,503.625 519.625,501.625"/>
    <polyline points="520.0,501.375 522.625,499.5 531.0,492.0"/>
    <line x1="531.5" x2="553.375" y1="491.375" y2="471.0"/>
    <polyline points="554.75,469.75 565.5,460.5 571.25,456.0 578.0,451.0 588.625,443.75 594.875,439.875 605.875,433.75 619.375,427.25"/>
    <polyline points="624.5,425.125 630.0,422.875 642.375,418.625 649.25,416.625 664.5,413.0 681.875,410.25 691.375,409.5 701.25,409.25 711.5,409.625 721.75,410.75 732.0,413.0 741.75,416.25 750.625,421.0 758.125,427.0 763.75,434.5 767.125,443.5 767.875,453.75 765.875,465.125 761.0,477.125 753.75,489.375 744.375,501.5 733.5,513.25 721.625,524.125"/>
    <polyline points="709.25,534.125 696.875,543.0 684.875,550.625 673.375,557.25 662.5,562.75 652.5,567.25 643.125,571.0 634.625,573.875 626.75,576.125 612.75,579.0 606.625,579.875 595.625,580.625 586.125,580.5 573.875,579.5 551.5,576.25"/>
    <polyline points="548.75,576.0 543.625,575.375 532.0,575.0 527.75,575.25 519.75,576.5 512.25,578.75 506.875,581.0 498.125,586.0"/>
    <polyline points="496.375,587.25 485.75,595.5 474.75,606.0 462.75,618.875 446.75,637.0"/>
    <polyline points="444.125,639.875 433.0,651.625 426.625,657.75 419.5,663.75 411.375,669.375 406.75,672.0 401.75,674.375 396.125,676.375 389.875,677.875 382.875,678.75 374.625,678.75 365.125,677.375 354.0,674.5 340.625,669.25 324.375,661.0 304.75,648.625 280.75,630.625 251.625,605.0 216.875,569.625 177.0,522.125"/>
    <polyline points="134.25,461.375 94.625,388.875 67.5,311.75 63.375,243.0 87.375,196.75 134.25,180.25 191.125,189.75 245.125,215.25 288.625,247.25 319.0,279.25 336.5,308.75 343.125,334.875 341.0,358.25 332.625,379.5 320.375,399.375 293.5,435.5 282.75,451.25 275.75,465.125 272.625,476.625 273.375,485.5 277.25,491.75 283.25,495.75 290.5,497.625 298.375,498.125 306.0,497.25"/>
    <polyline points="313.375,495.75 320.125,493.5 331.75,488.375 341.375,483.125 349.375,478.25 356.875,474.375 364.0,471.625 371.25,470.0 378.75,469.5 382.5,469.625 390.0,470.5 401.25,473.125 408.5,475.5 415.5,478.25"/>
    <polyline points="418.75,479.625 425.25,482.375 434.0,486.625 448.75,494.5 461.5,502.125 470.25,508.25"/>
    <polyline points="471.25,509.125 476.625,514.125 479.25,518.125 480.375,521.875 480.125,525.5"/>
    <polyline points="480.0,526.125 479.125,528.5 475.75,533.625 470.25,538.875 465.625,542.25"/>
    <polyline points="464.5,542.875 459.875,545.375 452.75,548.375 446.0,550.25 442.125,550.875 435.75,551.375 428.5,551.125 423.0,550.375 417.125,549.0"/>
    <polyline points="413.875,548.0 403.625,544.0 396.125,540.0 388.0,534.875 379.625,528.375 375.25,524.625 366.75,516.125 358.5,506.25 354.625,500.875 351.125,495.375 348.0,489.75 345.375,484.125 343.25,478.5 341.875,473.0 341.125,467.875 341.125,463.125 341.875,458.75 343.375,455.0 345.625,451.875"/>
    <polyline points="348.625,449.5 352.375,447.75 356.5,446.625 361.125,446.125 366.125,446.25 371.375,446.875 376.875,448.0 388.0,451.25 399.0,455.5 414.375,462.5 459.0,485.5"/>
    <polyline points="461.625,486.75 478.875,494.625 492.0,499.5 500.125,501.75"/>
    <polyline points="500.875,501.875 505.375,502.75 508.5,503.0 512.625,502.75 515.375,502.0"/>
    <polyline points="515.875,501.875 520.625,499.625 527.125,494.75"/>
    <line x1="527.625" x2="546.125" y1="494.25" y2="477.25"/>
    <polyline points="547.25,476.25 557.25,467.25 571.125,455.875 582.875,447.375 594.75,439.75"/>
    <polyline points="598.25,437.75 614.5,429.25 624.375,424.875 642.25,418.5 656.5,414.5 664.5,412.75 682.0,410.0 691.5,409.25 701.375,408.875 711.625,409.375 722.0,410.5 732.25,412.75 742.125,416.0 751.0,420.625 758.5,426.75 764.25,434.375 767.625,443.375 768.375,453.625"/>
    <polyline points="766.375,465.0 761.5,477.125 754.125,489.5 744.75,501.75 733.75,513.5 721.75,524.5 709.375,534.5 697.0,543.375 684.875,551.125 662.5,563.25 652.375,567.75 643.0,571.5 634.5,574.375 626.625,576.625 612.625,579.5 600.875,580.875 595.625,581.125 586.0,581.0 570.25,579.5"/>
    <polyline points="566.75,579.0 548.875,576.375 536.5,575.5 532.125,575.5 525.75,576.0 519.875,577.125 512.375,579.375 508.75,580.875"/>
    <polyline points="507.0,581.625 501.625,584.5 498.25,586.75 493.0,590.5 485.875,596.375 476.875,605.125 471.125,611.25 461.125,622.75"/>
    <polyline points="459.0,625.375 429.5,661.75 420.25,672.5 409.5,683.5 401.25,690.5 396.625,693.875 391.5,697.0 385.75,699.75 379.25,702.0 371.875,703.5"/>
    <polyline points="363.25,704.0 353.0,703.125 340.625,700.125 325.375,694.25 306.5,684.375 282.625,668.75 252.5,644.875 214.625,609.875 168.375,559.625 115.0,490.5 60.5,402.0 18.25,301.0 6.125,206.5 35.625,143.0 98.875,123.75 174.0,141.875 240.625,179.75 288.375,222.875 315.625,263.5 324.375,299.75 318.25,332.125 301.375,362.0 278.375,390.625 253.875,418.0 232.5,443.5 217.625,466.0"/>
    <polyline points="210.875,484.0 211.625,496.75 218.0,504.375 227.625,507.25 238.25,506.375 248.5,502.75 257.75,497.125 265.5,490.125 271.875,482.25 277.125,474.125 290.25,450.25 294.875,443.375 300.0,437.5 305.625,432.75 312.0,429.125 319.0,426.625 326.5,425.375 334.5,425.125 342.625,425.875 351.0,427.375 359.25,429.625 367.375,432.25 383.0,438.5"/>
    <polyline points="390.25,441.875 403.875,448.625 440.25,468.25 455.25,475.625 470.125,481.875 479.75,485.125 485.875,486.75"/>
    <polyline points="487.875,487.125 494.875,488.375 501.0,488.875 506.625,488.75 510.375,488.375 515.125,487.375 521.875,485.125"/>
    <polyline points="523.0,484.625 530.75,480.5 535.375,477.5 544.25,471.0 554.625,462.75"/>
    <polyline points="556.375,461.375 561.75,457.0 577.5,445.25 589.375,437.375 600.25,430.875 608.875,426.25 618.75,421.5 630.25,416.625 643.75,411.875"/>
    <polyline points="651.375,409.5 668.5,405.25 678.125,403.5 688.375,402.125 699.375,401.25 711.0,400.875 723.0,401.375 735.125,402.875 747.125,405.75 758.5,410.0 768.625,416.125 776.75,424.0 782.375,433.875 784.75,445.5 783.5,458.625 778.625,473.0 770.5,487.75 759.5,502.5 746.625,516.75 732.5,530.0 717.875,541.875 703.375,552.5 689.5,561.5 676.5,569.25 664.5,575.625"/>
    <polyline points="653.625,580.75 643.625,585.0 634.75,588.25 626.625,590.75 612.75,594.0 601.25,595.375 591.625,595.625 583.25,595.25 552.75,590.875 543.375,590.125"/>
    <polyline points="541.25,590.125 533.0,590.875 527.375,592.25 520.375,595.0 517.125,596.875 510.875,601.625 506.5,606.125 503.875,609.625 500.125,615.5"/>
    <polyline points="499.0,617.75 496.0,625.125 493.875,633.875 493.125,640.625 493.0,648.125 493.875,656.75 496.125,666.625 497.875,672.0 503.125,684.25 506.75,691.125 511.25,698.5 516.75,706.375 523.375,715.0 531.375,724.125 540.875,733.875 552.125,744.125 565.25,754.75"/>
    <polyline points="580.375,765.375 597.5,775.75 616.5,785.25 637.0,793.125 658.5,798.5 680.0,800.125 700.25,797.375 718.0,789.5 732.25,776.25 742.125,758.25 747.375,736.375 748.375,711.875 745.75,686.5 740.5,661.375 733.375,637.375 725.5,615.375 717.25,595.625 709.25,578.25 701.625,563.25 694.625,550.25 682.625,530.125 673.0,516.0 665.5,506.25"/>
    <polyline points="662.25,502.75 659.375,499.75 654.375,495.5 650.0,492.75 646.25,491.0 641.125,489.625 627.0,488.25 621.5,487.125"/>
    <polyline points="620.625,486.875 618.125,485.875 615.5,484.125 613.625,481.375 613.25,479.5 613.5,477.5 614.75,474.75 616.375,472.5"/>
    <polyline points="617.125,471.875 620.5,468.875 625.125,466.0 632.25,462.875 635.5,461.875 642.625,460.375 648.125,460.0 653.5,460.25"/>
    <polyline points="655.25,460.625 658.5,461.5 661.25,462.75 663.625,464.5 665.25,466.75 666.25,469.25 666.375,470.625 666.0,473.625 665.5,475.25 663.875,478.5 659.875,483.375 654.375,487.875 647.875,491.75"/>
    <polyline points="645.625,492.875 640.875,494.875 633.625,497.0 628.875,498.0 619.875,498.75 613.75,498.5 606.75,497.25 602.375,495.75 597.75,493.25"/>
    <polyline points="596.75,492.5 594.375,490.25 592.75,487.75 591.75,484.125 591.875,481.125 593.125,477.125 594.375,474.875 596.75,471.625 600.0,468.125"/>
    <polyline points="601.25,467.0 607.375,462.125 615.375,457.25 625.25,452.625 634.125,449.375 644.25,446.75 651.5,445.5 663.0,444.75 670.75,445.125"/>
    <polyline points="674.625,445.625 678.375,446.5 685.125,449.0 690.875,452.75 693.0,455.125 694.75,457.875 696.0,460.875 696.625,464.125 696.625,467.5 695.875,471.25 694.625,475.125 692.75,479.0 690.375,482.875 687.375,486.875 683.875,490.75 675.75,498.0 666.625,504.375 656.875,509.875 652.0,512.125 642.25,515.875"/>
    <polyline points="637.5,517.375 628.375,519.625 619.75,521.0 608.0,521.75 597.625,521.375 585.875,519.625 578.5,517.75 572.125,515.75 563.75,512.0"/>
    <polyline points="562.25,511.25 558.5,509.0 555.5,506.75 552.375,503.75 550.75,501.625 549.125,497.875 548.75,495.5 549.0,492.375"/>
    <polyline points="549.125,491.625 549.5,490.0 551.0,486.5 553.125,482.75 555.25,479.75 563.25,470.75 568.75,465.625"/>
    <polyline points="570.375,464.25 579.5,456.75 591.375,448.375 600.5,443.0 611.25,437.25 624.375,431.375 634.625,427.625 646.25,424.0 659.625,420.875"/>
    <polyline points="666.75,419.625 682.375,417.875 690.75,417.625 699.25,417.875 707.75,418.625 716.25,420.25 724.5,422.625 732.125,426.0 738.875,430.375 744.375,435.875 748.5,442.375 750.625,450.0 750.875,458.5 749.0,467.75 745.0,477.5 739.125,487.5 731.75,497.375 723.0,506.875 713.375,515.875 703.25,524.25 692.875,531.625 682.625,538.25 672.5,544.0 662.875,549.0 653.75,553.0"/>
    <polyline points="645.125,556.5 629.375,561.375 622.375,563.0 609.625,565.0 598.375,565.875 588.625,565.875 575.875,564.875 568.375,564.0 549.875,561.0 537.375,559.375"/>
    <polyline points="535.0,559.125 522.75,558.875 517.125,559.375 511.875,560.25 505.0,562.125 500.0,563.875 495.125,565.875 490.125,568.375"/>
    <polyline points="488.375,569.25 465.5,581.75 456.0,586.25 447.75,589.25 441.625,591.0 438.25,591.75 430.875,592.75 426.875,592.875"/>
    <polyline points="422.5,592.875 413.0,592.0 401.75,589.625 388.625,584.875 381.125,581.375 373.0,577.0 364.25,571.5 354.625,564.75 344.375,556.75 333.25,547.0 321.625,535.5 309.5,522.25 297.25,507.125 285.25,490.25 274.0,471.875 264.5,452.625 257.25,433.25 253.25,414.75 252.875,398.125 256.5,384.375 264.0,374.25 274.875,368.125 288.25,365.75"/>
    <polyline points="303.25,366.875 318.75,370.75 334.25,376.625 349.0,383.625 362.625,391.25 375.0,399.0 386.0,406.625 404.375,420.5 441.125,451.625 450.25,458.625 457.75,463.375 462.125,465.625 466.375,467.25"/>
    <polyline points="468.375,468.0 472.25,469.125 478.0,470.25 483.375,470.75 490.375,470.75 498.75,469.75 506.75,467.75 511.375,466.0"/>
    <polyline points="512.875,465.375 519.0,462.5 523.5,459.875 531.25,454.625 541.0,446.75 553.625,435.0"/>
    <polyline points="555.5,433.125 576.875,412.625 589.875,401.25 602.25,391.625 612.5,384.5 625.125,376.875 640.875,368.625 661.375,359.875 674.0,355.375"/>
    <polyline points="688.75,350.875 705.75,346.625 725.5,342.625 748.375,339.5 774.375,337.75 803.375,338.25 834.25,342.25 864.75,351.5 891.125,367.75 908.625,392.125 912.5,424.75 900.375,463.5 874.0,505.0 838.375,545.25 799.875,581.5 763.625,612.5 732.5,638.125 707.875,658.875 689.5,675.625 676.875,689.0 669.0,699.625 665.0,707.75 664.0,713.625 665.125,717.375 667.625,719.0 670.875,718.625"/>
    <polyline points="674.375,716.25 677.625,712.0 680.25,706.0 682.0,698.5 682.75,689.625 682.375,679.75 681.0,669.375 678.625,658.5 675.375,647.5 671.375,636.75 667.0,626.25 657.125,607.0 651.875,598.25 641.375,582.75 636.25,576.0 626.375,564.375 617.125,554.75 608.75,546.875 597.5,537.625"/>
    <polyline points="594.125,535.0 585.125,528.5 559.625,511.625 555.125,508.0 551.25,504.0"/>
    <polyline points="550.625,503.125 548.875,500.125 548.125,497.875 547.875,494.0 548.75,490.0 550.25,486.5 552.5,482.875"/>
    <polyline points="553.125,481.875 558.125,475.625 561.375,472.125 569.625,464.375 580.75,455.375 590.5,448.625"/>
    <polyline points="593.375,446.875 606.375,439.375 614.125,435.5 628.0,429.625 638.75,425.875 651.125,422.375 657.875,420.875 672.75,418.375 680.625,417.625 689.0,417.125 697.5,417.25 706.125,417.875 714.75,419.375 723.25,421.5 731.125,424.625 738.125,428.875 744.125,434.125"/>
    <polyline points="748.5,440.5 751.25,448.0 751.875,456.375 750.5,465.625 746.875,475.375 741.375,485.5 734.125,495.5 725.5,505.25 716.0,514.5 705.75,523.0 695.375,530.75 684.875,537.625 674.75,543.625 664.875,548.75 655.625,553.0 646.75,556.5 638.5,559.375 630.875,561.625 623.625,563.5 616.875,564.75 610.625,565.625 599.375,566.625 584.875,566.5"/>
    <polyline points="580.625,566.125 569.0,564.875 550.25,561.875 535.375,560.0 524.875,559.75 515.5,560.625"/>
    <polyline points="513.75,560.875 506.75,562.5 503.375,563.625 493.375,567.75 484.75,572.25 469.5,580.875"/>
    <polyline points="467.375,582.0 458.125,586.625 450.125,590.0 441.0,592.75 437.5,593.5 426.0,594.75 421.5,594.75 411.75,593.75 400.25,591.125 393.625,589.0 386.625,586.125 378.875,582.375 370.375,577.75 361.25,571.875 351.25,564.75"/>
    <polyline points="340.5,556.125 329.0,545.75 316.875,533.5 304.25,519.25 291.5,503.125 279.25,485.125 268.0,465.75 258.625,445.625 251.875,425.625 248.75,406.75 249.75,390.25 254.875,377.125 263.875,368.0 276.25,363.125 290.875,362.25 306.75,364.625 323.0,369.625 338.625,376.25 353.375,384.0 366.875,392.0 379.0,400.125 389.625,407.875 407.0,421.75 420.125,433.125"/>
    <polyline points="425.5,437.875 438.0,449.125 447.125,456.875 454.5,462.125 458.875,464.625 465.0,467.375 472.75,469.625 480.125,470.75 485.375,471.0"/>
    <polyline points="487.125,471.0 494.0,470.625 498.875,469.875 503.75,468.75 510.0,466.75 517.625,463.375 526.75,457.875"/>
    <polyline points="528.25,456.875 534.5,452.25 546.375,442.125 577.375,412.625"/>
    <polyline points="580.375,409.875 590.5,401.25 603.125,391.5 619.625,380.625 626.375,376.75 642.625,368.5 652.5,364.125 663.75,359.75 676.75,355.25 691.75,350.875 709.25,346.625 729.375,342.875 752.75,340.0 779.125,338.625 808.25,339.75 838.875,344.625 868.625,355.0 893.375,372.5 908.5,398.25"/>
    <polyline points="909.5,431.75 894.75,470.75 866.75,511.75 830.75,551.0 792.875,586.125 757.625,615.75 727.75,640.25 704.25,660.125 686.875,676.125 674.875,688.875 667.5,699.0 663.75,706.625 662.875,712.125 664.0,715.625 666.375,717.0 669.375,716.5 672.75,714.0 675.75,709.75 678.125,703.875 679.75,696.375 680.375,687.75 680.0,678.25 678.5,668.125 676.125,657.5 673.0,646.875 669.125,636.5"/>
    <polyline points="664.75,626.25 655.125,607.5 650.0,599.0 644.75,591.125 634.625,577.25 624.875,565.75 615.75,556.25 607.375,548.375 603.375,545.0 592.75,536.625 586.5,532.125 569.25,520.875"/>
    <polyline points="567.25,519.625 556.375,512.5 552.125,509.125 548.875,506.0 547.125,503.875 545.25,500.25 544.875,498.875"/>
    <polyline points="544.75,498.125 544.625,495.25 545.0,493.125 546.5,489.125 549.5,484.0 555.0,477.125"/>
    <polyline points="555.875,476.125 561.5,470.25 567.125,465.125 570.375,462.25 580.125,454.625 592.875,446.0 606.125,438.375"/>
    <polyline points="610.0,436.375 618.5,432.375 628.25,428.375 645.5,422.75 659.0,419.375 674.25,416.875 682.5,416.125 691.125,415.75 699.875,415.875 708.875,416.625 717.75,418.125 726.5,420.5 734.5,423.875 741.75,428.25 747.625,433.875 752.0,440.75 754.5,448.625 754.75,457.625 752.75,467.375 748.625,477.625"/>
    <polyline points="742.375,488.0 734.5,498.375 725.375,508.5 715.25,517.875 704.5,526.5 693.75,534.25 683.0,541.125 672.625,547.125 662.75,552.125 653.375,556.25 644.5,559.75 636.25,562.5 621.5,566.375 614.875,567.5 602.875,568.875 592.5,569.25 579.125,568.625 564.25,566.75"/>
    <polyline points="561.0,566.25 543.875,563.625 532.25,562.625 525.875,562.625 516.25,563.5 510.875,564.625 505.625,566.25"/>
    <polyline points="503.875,566.875 497.0,569.625 490.125,573.125 462.5,589.375 455.0,593.125"/>
    <polyline points="452.25,594.375 443.25,597.75 439.875,598.75 432.625,600.25 424.375,601.125 414.75,600.875 409.375,600.25 403.5,599.125 397.125,597.5 390.125,595.125 382.375,592.0 374.0,587.875 364.625,582.5 354.5,575.875 343.375,567.625 331.25,557.5 318.125,545.25 304.375,530.875 290.0,514.0 275.75,494.75 262.125,473.5"/>
    <polyline points="250.125,450.75 241.0,427.5 235.5,405.0 234.75,385.0 239.125,368.5 248.5,356.875 262.0,350.375 278.375,348.875 296.375,351.375 314.625,357.125 332.25,365.0 348.625,374.0 363.25,383.375 376.125,392.625 387.25,401.375 404.875,416.875 422.25,434.5 440.625,455.25"/>
    <polyline points="442.75,457.375 446.75,461.125 450.5,464.0 454.25,466.375 459.75,469.0 465.375,470.875 472.875,472.5 482.125,473.375 489.375,473.375"/>
    <polyline points="491.125,473.25 499.5,472.25 506.0,470.75 510.75,469.25 520.125,465.25 526.25,461.75 531.0,458.625"/>
    <polyline points="532.625,457.5 540.875,451.25 548.125,445.25 570.25,425.875 589.375,410.625"/>
    <polyline points="593.25,407.75 607.25,398.5 618.875,391.75 633.0,384.5 641.375,380.75 650.875,377.0 661.5,373.125 673.625,369.25 687.375,365.5 703.0,362.125 720.75,359.125 740.625,357.125 762.625,356.25 786.375,357.5 811.0,361.625 834.875,369.625 855.5,382.625 869.875,401.375 875.125,425.875 869.375,455.125 853.125,487.0 828.625,519.125"/>
    <polyline points="799.5,549.375 769.5,576.375 741.375,599.375 716.625,618.625 679.5,646.875 666.75,657.0 657.125,665.0 650.375,671.125 645.625,675.75 640.125,681.75 639.875,681.5 640.5,672.125 639.75,663.375 638.75,658.375 635.875,647.625 631.375,636.25 628.75,630.625"/>
    <polyline points="625.875,625.125 622.75,619.75 616.125,609.625 612.625,604.875 605.5,596.25 598.25,588.625 587.75,579.0 581.0,573.75 574.5,569.25 568.375,565.5 557.0,559.625 547.0,555.625"/>
    <polyline points="544.625,554.875 540.25,553.625 532.0,551.875 526.25,551.125 522.75,551.0 517.625,551.0 512.875,551.5 506.75,552.625 500.75,554.375"/>
    <polyline points="499.375,554.875 488.875,559.25 468.625,569.5 455.75,574.875"/>
    <polyline points="453.375,575.75 445.375,577.875 436.125,579.25 429.0,579.625 421.125,579.125 416.75,578.5 407.125,576.25 396.125,572.375 390.0,569.625 376.375,562.125 369.0,557.25 361.0,551.375 352.625,544.5 343.875,536.5 334.75,527.5 325.5,517.125 316.375,505.625"/>
    <polyline points="307.5,493.125 299.375,479.75 292.25,465.875 286.625,451.875 283.0,438.375 281.625,425.75 282.75,414.625 286.5,405.625 292.625,399.0 300.75,394.75 310.625,392.875 321.625,393.25 333.125,395.375 344.875,399.0 356.5,403.625 367.5,408.75 378.0,414.25 387.75,419.875 404.875,430.625 440.75,454.5"/>
    <polyline points="445.125,457.25 452.875,461.875 462.625,466.875 468.375,469.375 476.0,471.875 484.875,473.75 492.875,474.375 500.125,474.0 505.25,473.125"/>
    <polyline points="506.875,472.875 516.375,469.875 525.75,465.375 536.875,458.125 547.375,450.0"/>
    <polyline points="549.375,448.5 575.0,427.5 592.25,414.875 601.0,409.25 611.25,403.25 623.5,396.75 638.5,390.0 647.25,386.625"/>
    <polyline points="657.125,383.125 680.375,376.375 694.25,373.375 709.625,370.75 726.75,368.875 745.5,368.0 765.625,368.75 786.5,371.5 807.125,377.25 826.0,386.5 840.875,400.125 849.625,418.25 850.625,440.625 843.125,466.125 827.625,493.125 806.25,519.875 781.625,545.0 756.25,567.5 732.125,586.875 710.375,603.125 691.5,616.375 662.75,636.0 644.125,648.125"/>
    <polyline points="637.625,652.125 628.75,657.0 625.875,658.125 623.5,658.625 621.75,658.375 620.25,657.625 619.0,656.375 616.75,652.75 610.25,639.25 604.875,629.875 596.0,617.75 586.125,607.125"/>
    <polyline points="583.5,604.875 575.75,598.625 570.625,595.25 563.0,591.0 555.625,587.875 548.625,585.75 539.875,584.25 533.625,584.125 525.875,585.0"/>
    <polyline points="524.0,585.375 518.5,587.125 511.5,590.375 506.5,593.625 501.625,597.625 495.375,604.0 492.375,607.625 486.625,616.25 484.0,621.125"/>
    <polyline points="482.75,623.875 479.25,632.625 477.5,639.375 476.125,647.0 475.5,655.5 476.0,665.375 476.75,670.875 478.0,676.75 479.875,683.25 482.375,690.25 485.625,698.0 490.0,706.375 495.5,715.75 502.625,726.0 511.375,737.25 522.375,749.75 535.75,763.25 552.25,777.75 572.0,793.125 595.25,808.625"/>
  </g>
</svg>
