<?xml version="1.0" encoding="utf-8" ?>
<svg xmlns="http://www.w3.org/2000/svg" xmlns:cc="http://creativecommons.org/ns" xmlns:dc="http://purl.org/dc/elements/1.1/" xmlns:ev="http://www.w3.org/2001/xml-events" xmlns:inkscape="http://www.inkscape.org/namespaces/inkscape" xmlns:rdf="http://www.w3.org/1999/02/22-rdf-syntax-ns" xmlns:sodipodi="http://sodipodi.sourceforge.net/DTD/sodipodi-0.dtd" xmlns:xlink="http://www.w3.org/1999/xlink" baseProfile="tiny" height="27.09333333cm" version="1.2" viewBox="0 0 1024.0 1024.0" width="27.09333333cm">
  <metadata>
    <rdf:RDF>
      <cc:Work>
        <dc:format>image/svg+xml</dc:format>
        <dc:source>vpype read './original_svgs/Strange Attractors #1.svg' linemerge linesimplify write './Strange Attractors #1.svg'
</dc:source>
        <dc:date>2024-08-05T01:35:17.857251</dc:date>
      </cc:Work>
    </rdf:RDF>
  </metadata>
  <defs/>
  <g fill="none" id="layer1" inkscape:groupmode="layer" inkscape:label="1" stroke="black" style="display:inline">
    <polyline points="310.5,627.125 290.6512,628.6648 270.0218,629.0884 249.2665,628.3777 230.4148,626.5298 212.0149,623.4539 193.9851,619.0981 178.357,614.0133 170.936,611.0367 163.6797,607.7151 156.9564,604.2221 150.4489,600.3996 144.4964,596.4555 138.7958,592.1996 133.6529,587.8738 128.8682,583.3136 124.3949,578.435 120.4748,573.5377 116.6713,568.0523 113.4296,562.5949 110.5505,556.8747 108.0557,550.8978 105.9666,544.6703 104.3906,538.5857 103.2113,532.2896 102.4394,525.656 102.1238,518.6536 102.2909,511.4398 102.9444,504.0375 104.0882,496.4697 105.7261,488.7591 107.8619,480.9286 110.4993,473.0011 113.4811,465.3818 116.9247,457.7149 120.8334,450.0202 129.7153,435.1167 140.544,419.9432 152.9262,405.1378 166.7013,390.9046 181.4034,377.7028 196.9938,365.5419 213.7385,354.2359 231.4432,343.9529 249.5647,335.0112 267.8741,327.5006 286.1429,321.5108 297.8993,318.4593 309.4673,316.0387 321.2658,314.1597 332.8559,312.8991 344.5733,312.2276 355.9864,312.1786 367.0537,312.7326 378.0713,313.9167 388.9337,315.7491 399.6959,318.2116 409.9793,321.1986 420.1315,324.8 430.0898,329.0155 439.7879,333.8347 448.8641,339.0562 457.9612,345.0373 466.4011,351.246 474.2363,357.6508 481.7616,364.4666 489.1842,371.9234 495.9596,379.4669 503.1283,388.2724 509.7131,397.1482 516.0089,406.4782 524.9572,421.4952 533.9787,438.9951 543.0274,459.3359 554.7608,488.8566 561.0167,503.4113 565.515,512.2078 570.724,520.465 576.67,527.3642 579.6519,530.1083 582.9588,532.5986 590.9704,537.0796 599.0453,539.8904 608.279,541.852 618.0691,542.8013 629.493,542.9763 642.1972,542.2162 656.3149,540.5326 673.5131,537.6043 689.9655,534.2444 707.3018,530.0319 727.6865,524.3391 751.9019,516.7283 771.747,509.9219 793.7692,501.7031 814.6733,493.2757 834.8881,484.3123 848.2083,477.4907 851.7452,475.2047 852.8252,473.9076 851.731,473.5994 848.6128,474.1538 836.8462,477.7478 765.7371,502.7527 722.0145,517.2377 689.375,526.75 659.7339,534.0171 643.8427,537.253 629.4648,539.6817 615.4519,541.4575 601.3923,542.6564 588.987,543.2185 576.7122,543.0969 567.3642,542.5446 548.2604,540.6273 545.5995,540.805 544.2569,541.68 544.125,542.2969 544.6308,543.8002 546.0348,545.6858 548.2515,547.9257 553.0119,551.3861 560.9218,555.1583 570.7378,558.0061 576.2664,559.0668 582.2802,559.8145 594.5291,560.2949 609.8058,559.7243 626.5205,557.9357 643.8342,555.1717 661.2407,551.5972 687.4905,545.1171 707.6464,539.4603 734.1842,531.1234 760.9943,521.8882 787.6183,511.9256 813.6402,501.3742 840.5836,489.5802 863.7074,478.4478 874.0034,473.0351 881.5331,468.7025 886.3189,465.4499 888.0057,463.5657 887.7558,463.0858 886.8363,462.9401 882.738,463.5891 876.1669,465.4246 866.9985,468.4597 769.7058,504.7237 741.9285,514.565 716.3385,523.1436 696.4116,529.3731 676.8836,534.9752 658.3721,539.7656 640.8672,543.7473 622.9095,547.1196 605.5709,549.5862 587.9341,551.2294 573.2772,551.7605 560.6057,551.4494 547.7313,550.4198 535.0567,548.5262 512.5545,543.994 508.1225,543.6607 504.4872,544.1895 502.8307,544.874 501.2606,545.9905 498.125,549.5 488.8434,564.9287 484.9275,570.3312 481.0836,574.8775 476.5869,579.4487 472.2004,583.3269 461.1896,591.0116 454.7614,594.7031 445.981,599.0786 438.195,602.4894 429.4849,605.8597 409.0453,612.4396 387.8337,617.8334 362.3132,622.7862 335.1879,626.4352 309.275,628.5768 283.238,629.26 260.2371,628.5184 248.9186,627.5917 237.4032,626.2523 226.1088,624.5362 215.5032,622.5343 205.6125,620.2343 195.7774,617.4806 182.4998,612.9265 170.2796,607.7371 158.8333,601.8124 148.5492,595.2726 139.6011,588.2854 131.4463,580.4564 124.4297,572.0762 118.374,562.8858 113.6871,553.5295 110.1813,543.658 107.804,533.124 106.6085,521.9954 106.6478,510.3401 107.9095,498.6365 110.317,486.9801 113.946,475.0619 119.0961,462.2534 125.3699,449.6553 132.8312,437.0654 141.4287,424.607 150.8426,412.7205 161.1485,401.2795 172.6064,390.0255 184.8818,379.2961 197.8487,369.1802 211.7015,359.5571 226.0115,350.7648 240.3084,343.0665 254.6716,336.3846 269.4805,330.536 284.6692,325.5689 299.7572,321.6312 311.0307,319.3306 322.1351,317.6074 333.0224,316.4567 344.0335,315.8608 354.7641,315.8355 365.5816,316.3779 376.0506,317.4684 386.5215,319.1445 396.5814,321.3409 406.5476,324.1266 416.0325,327.3932 425.2274,331.1745 434.7149,335.69 443.9862,340.7584 452.9877,346.3708 461.3777,352.2915 468.9009,358.2412 476.2214,364.6908 483.8174,372.083 490.7763,379.5454 497.127,387.03 503.319,395.06 508.6871,402.7187 514.9141,412.4206 523.5481,427.402 531.3787,443.0803 539.5631,461.9627 555.2455,501.8952 561.0517,514.2297 566.2073,522.6842 571.434,529.1606 574.7453,532.2621 578.8188,535.5146 582.0192,537.5225 585.8343,539.4365 590.5238,541.37 594.2939,542.553 604.3739,544.5604 613.0561,545.468 626.5397,545.612 637.9375,544.9219 653.1894,543.1454 666.8288,540.8709 686.7626,536.7517 703.9041,532.4927 726.3537,526.2171 745.7493,520.1425 770.7512,511.5912 793.31,503.1632 816.8263,493.6216 837.7591,484.2683 853.5954,476.2311 857.7929,473.589 859.0258,472.1298 857.8464,471.8425 854.6841,472.3978 842.0438,476.2326 766.5416,503.1272 723.5304,517.5051 688.4161,527.8058 671.5328,532.2151 657.0459,535.5901 640.9551,538.819 624.9263,541.4705 611.7274,543.1433 598.5989,544.1958 584.4463,544.6378 572.6715,544.369 559.5602,543.4039 541.254,541.231 538.2663,541.5237 537.0,542.375 536.6622,543.3688 536.9582,545.31 538.875,548.875 540.909,551.413 544.5061,554.7445 549.2719,558.094 553.007,560.0369 559.0626,562.4703 565.8045,564.3171 570.8333,565.2269 577.0926,565.8695 583.5561,566.2849 590.6339,566.3205 606.3978,565.4411 625.6444,563.1194 643.0463,559.9444 665.9476,554.7939 687.7858,549.0817 709.1771,542.7532 740.6574,532.4213 764.0858,524.1166 795.7207,511.9126 820.9414,501.4175 852.9877,486.9244 875.1878,475.948 886.0229,470.0921 894.5551,465.0629 899.4243,461.6273 901.3262,459.4074 901.0765,458.8273 899.9795,458.64 895.6465,459.3951 887.526,461.7443 876.0252,465.6322 770.4547,505.8491 742.5153,515.9566 716.9413,524.6791 694.4691,531.8142 673.5069,537.8932 653.1849,543.1564 633.8965,547.4982 613.7467,551.2263 595.5951,553.6734 577.8414,555.0627 560.6884,555.3341 548.4722,554.7203 536.3795,553.3372 522.8211,550.8473 499.1524,544.9016 493.32,544.231 489.0911,544.7894 485.5225,546.1974 482.0297,548.4896 466.7077,562.7628 458.3544,569.4483 449.138,575.614 438.2496,581.6778 423.059,588.5057 411.1899,592.8386 394.001,598.0527 375.6119,602.3948 356.339,605.9441 333.3601,608.8999 315.2472,610.3142 296.1306,610.7974 277.1934,610.2926 259.1517,608.7262 241.0679,605.9923 224.817,602.3489 212.476,598.6141 201.1161,594.3039 190.4687,589.3527 180.7994,583.8844 172.001,577.7993 164.183,571.1809 157.3796,564.0907 151.3897,556.2777 146.5185,548.096 142.7386,539.5334 139.9509,530.3883 138.2203,520.7143 137.6138,510.9634 138.1027,500.8206 139.6231,490.9301 142.276,480.497 146.2912,469.1606 151.3271,458.057 157.4571,446.9602 164.4103,436.3245 172.3449,425.8925 181.2736,415.6821 191.0557,405.8417 201.5881,396.4618 212.7677,387.6329 224.4916,379.4456 236.755,371.933 249.2482,365.2728 262.3313,359.2649 275.5499,354.1292 288.7926,349.8894 302.301,346.4924 312.5354,344.5583 323.1126,343.1348 333.4893,342.2933 344.02,342.0127 354.2669,342.3131 364.1957,343.1711 374.1192,344.6242 383.625,346.625 393.1546,349.2424 402.6003,352.446 411.8997,356.251 420.6614,360.493 428.8818,365.1261 436.8415,370.3018 445.3067,376.5788 453.146,383.1227 460.3207,389.8445 467.0877,396.9603 473.2713,404.2757 479.6446,412.6813 485.2984,420.9728 490.4558,429.4387 494.8186,437.504 499.9924,448.1501 506.436,463.5028 512.9023,482.4884 518.296,502.9779 524.2941,530.376 527.1441,541.7849 530.0635,550.7742 533.8156,558.2144 536.0,561.4375 539.2706,565.1614 542.1326,567.6239 545.678,570.0676 549.0061,571.7722 553.57,573.4797 561.405,575.3955 567.5593,576.2902 572.8712,576.6894 587.1862,576.5443 605.0167,574.7901 623.2667,571.7379 645.074,567.163 669.9853,560.8129 696.2298,553.1908 722.8575,544.5738 753.0266,533.8543 785.2525,521.5356 815.8666,508.9025 845.6181,495.7548 874.0392,482.1036 899.1734,468.8749 909.0239,463.1655 916.2721,458.5338 921.0198,454.9319 922.3405,453.5844 922.9089,452.5698 922.6529,451.866 921.4672,451.5958 916.6855,452.2987 908.4817,454.6455 896.6063,458.7615 868.4656,469.4975 771.6945,507.7543 740.1849,519.5075 712.5562,529.1667 686.479,537.5329 661.398,544.7992 637.642,550.8494 616.8261,555.2666 595.8936,558.6574 575.9569,560.7778 558.3211,561.5796 541.5947,561.0605 527.5099,559.5643 514.8791,557.342 506.9942,555.4028 497.5,552.625 476.4123,545.658 471.1037,544.5975 466.2205,544.4677 461.7493,545.2644 455.7731,547.5324 427.2699,563.3748 416.545,568.2856 405.1755,572.8299 394.3362,576.5257 383.4042,579.5811 367.7888,583.2646 355.0532,585.6216 338.985,587.8337 325.8474,588.9763 310.7297,589.5 295.4273,589.2658 280.4159,588.1723 265.8298,586.2593 253.5465,583.8736 241.8187,580.6982 231.729,577.217 222.25,573.25 214.6324,569.3907 207.4268,564.9597 200.3975,559.7351 193.949,553.9247 188.1568,547.5581 183.6213,541.2914 179.8172,534.487 176.7975,527.1977 174.6152,519.4765 173.3638,511.77 172.9752,504.2318 173.4376,496.1412 174.7778,487.7971 176.992,479.2751 180.0763,470.6513 184.0269,462.0014 188.8432,453.3975 194.4863,444.9177 201.1556,436.3136 208.3258,428.2633 216.1499,420.5487 224.5644,413.2518 233.6123,406.3414 243.0957,399.9435 253.2816,393.9125 263.426,388.6929 273.7672,384.1345 284.0245,380.3551 294.6817,377.1622 305.6964,374.6008 314.7343,373.0516 324.0188,371.9845 333.1168,371.4723 342.0356,371.5143 351.339,372.1187 360.7356,373.2966 369.4085,374.9273 378.0761,377.1286 386.3167,379.8159 394.1458,382.9815 402.1502,386.8188 409.9734,391.204 416.9296,395.7223 423.6452,400.7488 430.0131,406.2504 436.6081,412.6483 443.0787,419.7178 448.7974,426.8822 453.7436,434.1068 458.8711,442.6373 463.2391,450.9535 466.8698,459.0554 470.3763,468.4146 473.0745,477.3934 475.122,486.8983 476.6495,496.8809 477.25,504.375 477.2996,513.8784 476.673,521.5239 475.119,530.3316 473.2494,537.134 470.6007,543.9868 467.6866,549.7075 464.6308,554.519 461.0687,559.1136 456.6926,563.8756 452.2792,567.9916 447.1535,572.0436 441.0122,576.2823 434.7485,580.0417 428.6697,583.2152 421.432,586.5103 413.1115,589.8765 405.2878,592.6291 385.3579,598.4442 365.3891,602.8619 343.9634,606.3241 320.4178,608.596 300.4164,609.3522 279.5527,608.8796 259.8261,607.2888 241.1138,604.4226 231.6928,602.4126 222.6305,600.0871 214.578,597.6475 206.6793,594.8333 196.5473,590.5132 186.8294,585.4627 177.9377,579.8565 169.8636,573.6799 162.9796,567.2144 156.8139,560.0793 151.4539,552.2965 147.1473,544.2359 143.7408,535.6177 141.5101,527.2264 140.1918,518.1136 139.8735,508.9419 140.5483,499.04 142.1822,489.2287 144.7991,479.1908 148.2611,469.3978 152.8759,459.1293 158.6796,448.5123 165.2628,438.2915 172.7297,428.2433 180.7531,418.7666 189.6779,409.461 199.2876,400.5996 209.5372,392.1952 220.325,384.3122 231.8754,376.8154 243.7768,370.0081 255.579,364.1173 267.7892,358.8848 280.4714,354.3022 293.1622,350.5426 305.7706,347.6091 316.0277,345.8158 326.473,344.5532 336.3337,343.9102 346.4587,343.825 356.5032,344.3115 366.2311,345.3404 375.9887,346.9458 385.7077,349.1465 394.9779,351.8445 404.0451,355.0998 413.3866,359.1118 422.1809,363.5439 430.4242,368.3491 438.4086,373.6914 445.7883,379.3333 452.9519,385.5581 459.8877,392.2671 466.4708,399.3486 472.6522,406.7622 478.3868,414.4557 484.3341,423.3745 489.9204,432.6873 494.7434,441.724 499.1342,451.0879 505.8444,468.1569 512.1913,488.5857 514.2938,496.6144 517.0739,509.2555 521.8978,534.477 524.3449,545.5385 527.2753,555.2074 530.5507,562.1742 532.7963,565.6991 535.393,568.908 538.253,571.5274 541.6484,574.0542 545.0897,575.9197 549.3485,577.7497 558.9843,580.0523 564.7438,580.6998 573.0556,581.0208 587.7128,580.3429 602.871,578.514 624.4085,574.6952 650.3403,568.744 671.3959,563.0778 699.1339,554.7187 727.9274,545.025 759.6406,533.5332 791.4688,521.0371 822.3546,508.0392 852.8445,494.2098 882.9357,479.5088 908.1944,465.9306 917.7944,460.2435 924.8433,455.6066 929.44,451.8621 930.4943,450.5324 930.6938,449.7327 930.0775,449.1714 928.4837,449.0756 922.8482,450.1996 912.7474,453.2824 899.1828,458.0693 876.4377,466.8056 808.7835,494.0332 772.7228,508.225 740.3797,520.3638 710.3661,530.9287 682.8554,539.8559 658.208,547.0357 634.2193,553.0989 611.8509,557.7921 589.8499,561.3112 570.2766,563.2476 551.4539,563.8029 533.0224,562.9296 519.7818,561.2551 506.6588,558.5368 493.6486,554.7625 468.8004,545.8246 462.9295,544.5314 458.0696,544.2543 452.4922,545.0843 446.9765,546.8872 440.4972,549.7813 417.7612,560.9213 407.7318,565.1676 397.9637,568.7446 387.6166,572.0318 377.3087,574.7866 365.0021,577.531 354.6766,579.3562 340.4235,581.2304 327.0075,582.4477 314.221,582.9656 301.2643,582.8515 288.9704,582.1145 276.4395,580.6814 263.75,578.5 253.3737,576.029 243.8629,573.0784 234.9395,569.6563 226.0,565.5 218.6028,561.3061 211.6721,556.4993 205.5677,551.353 200.0359,545.6749 195.3841,539.8074 191.4827,533.5536 188.4654,527.1852 186.0555,520.0624 184.5323,512.9261 183.7927,505.4578 183.8775,498.057 184.8141,490.2657 186.5938,482.2969 189.3375,473.8534 192.7893,465.7435 197.0341,457.6736 202.2221,449.4974 208.2286,441.4604 214.9777,433.6563 222.3936,426.1787 230.0941,419.3743 238.5915,412.8059 247.4214,406.8298 256.6415,401.3618 266.4908,396.2874 276.5307,391.8675 286.3833,388.2443 296.241,385.3258 306.4875,383.0049 315.1606,381.5843 323.7269,380.6631 332.1335,380.2297 340.4459,380.2763 348.9321,380.8245 357.1543,381.8495 365.084,383.323 373.0466,385.3166 380.6244,387.7384 387.7551,390.5399 395.3749,394.1001 402.5386,398.0219 409.2347,402.2645 415.4514,406.7869 421.3639,411.7105 427.5088,417.48 433.3141,423.6432 438.7148,430.2051 443.3357,436.6903 448.0038,444.2147 451.9774,451.6134 455.448,459.214 458.6577,467.6689 461.1645,475.8013 462.8748,483.2394 464.2593,492.1927 464.9228,499.7141 464.9439,506.8107 464.4231,514.2736 463.4408,520.5605 461.5251,528.0369 459.1439,534.7099 456.8928,539.5363 454.251,544.1669 451.2102,548.5745 447.6245,552.9252 443.64,557.0217 438.6785,561.4397 434.0311,564.9872 428.5778,568.5883 416.8095,575.048 401.3692,581.6693 385.7933,586.6737 368.4292,591.0414 349.4338,594.4794 330.2009,596.7672 309.8545,597.9551 291.3149,597.851 272.3188,596.513 255.0252,594.1145 238.2932,590.4129 222.5123,585.4945 212.8854,581.6 203.9814,577.1702 195.8435,572.2753 188.2021,566.7513 181.4098,560.8488 175.8026,554.8507 170.8872,548.2785 166.7099,541.1655 163.3165,533.5454 160.8511,525.8292 159.2325,517.9372 158.5048,509.5933 158.7017,500.8965 159.8232,491.9149 161.8693,482.7164 164.6978,473.7608 168.3828,464.7229 173.018,455.5723 178.5371,446.4676 185.1141,437.1793 192.2504,428.4062 200.0927,419.913 208.4785,411.8708 217.6487,404.0916 227.0511,397.0203 237.2031,390.25 247.7175,384.0674 258.5025,378.5232 269.1219,373.8088 280.2733,369.6214 291.5692,366.1296 302.8212,363.373 313.2241,361.4546 323.8384,360.1249 334.2296,359.4548 344.7174,359.4366 355.09,360.0712 365.0941,361.3243 375.0622,363.2376 384.5694,365.7305 393.5835,368.7586 402.7751,372.5729 411.6102,376.9736 420.1529,381.9952 428.0496,387.3959 435.5799,393.3247 443.3203,400.2872 450.4391,407.5563 457.26,415.5173 463.2304,423.5502 470.1924,434.3245 475.9043,444.5364 480.125,453.5 484.7455,465.2023 488.114,475.4473 490.9312,486.2093 493.1954,497.5572 494.605,509.0103 495.1147,518.1169 494.94,530.5185 493.9502,540.4241 492.8392,546.6367 490.158,555.784 486.8488,563.5018 483.3987,569.4769 479.792,574.5243 475.2543,579.6231 470.394,584.0942 464.5749,588.5186 457.3448,593.1702 450.9727,596.6479 442.3792,600.7881 434.1509,604.2352 422.4303,608.4863 405.0165,613.7311 381.3312,619.505 355.279,624.2493 330.5449,627.2557 303.4468,629.2251 279.2782,629.5425 255.0957,628.494 244.0979,627.4779 233.3093,626.0965 222.7922,624.3634 212.599,622.2962 202.3948,619.8171 193.1716,617.1765 184.1534,614.128 175.6582,610.7748 164.3272,605.4503 153.8348,599.4602 144.245,592.8425 135.9431,585.899 128.4372,578.1424 122.032,569.8848 116.7262,561.2226 112.3589,551.8886 109.1175,542.2791 106.9607,532.3842 105.9028,521.906 105.9576,511.2863 107.1426,499.8944 109.395,488.5394 112.7481,476.9324 117.2151,465.1454 122.8132,453.2525 129.3979,441.5714 137.2283,429.635 146.0706,417.8544 155.8496,406.3336 166.2072,395.4571 177.6149,384.7542 189.3626,374.9129 201.9914,365.4673 215.1253,356.7082 228.6562,348.6875 242.476,341.4572 256.4763,335.0693 270.2058,329.6986 284.4988,325.0436 298.689,321.3125 309.9829,318.9639 321.1169,317.1898 332.4296,315.9476 343.4955,315.2968 354.2761,315.2254 364.7328,315.7215 375.0901,316.7982 385.6591,318.4663 396.2084,320.7244 406.3122,323.4826 416.3076,326.8326 425.799,330.6412 434.7736,334.8682 443.5661,339.6741 452.6271,345.3171 461.0653,351.2391 468.6155,357.1517 475.9067,363.4811 482.9001,370.1973 489.4384,377.123 496.6695,385.509 503.2248,393.8266 509.3453,402.3441 515.1792,411.3055 524.2276,427.1241 532.122,442.9073 542.0428,466.123 556.6715,503.482 561.7309,513.8378 566.431,521.6975 569.3912,525.5407 573.0598,529.6022 576.1486,532.4113 579.7695,535.1445 583.5566,537.5487 586.8503,539.1942 591.1401,540.856 596.4525,542.4638 605.083,544.1232 616.7222,545.18 627.6183,545.1224 640.6765,544.204 655.2408,542.3662 671.3486,539.6193 689.3665,535.813 706.7474,531.5405 726.4439,525.8697 750.6153,518.2863 772.6601,510.6622 793.8514,502.7276 819.0864,492.4009 837.4051,484.2452 852.5757,476.4767 856.7182,473.8229 858.0159,472.2904 856.9155,472.0248 853.8788,472.606 841.3162,476.435 762.7338,504.3398 721.8471,517.8598 688.9398,527.5692 673.1375,531.6619 657.4682,535.3147 642.5406,538.3435 627.6754,540.7972 611.8968,542.7885 598.1143,543.9749 585.4622,544.3778 572.2823,544.1018 562.3991,543.3616 541.7656,541.1406 539.625,541.375 538.1343,542.3657 537.8511,543.4592 538.0312,544.5469 539.458,547.4111 542.7105,551.2913 547.1988,555.0679 550.7566,557.3361 555.2876,559.6466 559.6012,561.191 565.4223,562.81 577.807,564.7993 591.8291,565.2495 605.7519,564.5647 622.5304,562.6402 642.6366,559.1847 663.0278,554.7457 685.6972,548.9132 710.4003,541.6925 738.5926,532.5509 768.1081,522.0231 795.6963,511.3337 825.2458,498.9812 851.4146,487.1357 876.7848,474.4512 885.5762,469.6546 892.7728,465.3255 897.1998,462.1714 899.0,460.125 898.7927,459.562 897.7686,459.374 893.6342,460.0389 886.5919,462.0405 876.1148,465.5681 854.7629,473.4414 771.046,505.3363 742.0125,515.8372 716.5837,524.5395 694.9156,531.397 673.7707,537.5267 653.4328,542.8286 635.462,546.911 616.3371,550.4386 597.7159,552.9589 580.3879,554.3753 564.2714,554.6661 551.2584,554.0907 538.377,552.7939 524.3371,550.2691 500.2296,544.4681 496.1907,544.1136 491.5737,544.694 488.1599,546.249 484.125,549.375 472.0,561.625 462.5049,569.8911 452.2961,577.1314 444.0773,581.8522 429.8117,588.6993 413.1851,595.1448 395.2126,600.5534 375.507,605.2526 355.2164,608.9311 332.7703,611.6916 312.8771,613.1898 292.0099,613.5198 271.4426,612.7631 252.4413,610.8731 233.8042,607.724 216.2218,603.404 203.9842,599.3578 192.7908,594.7308 182.0304,589.2625 172.4194,583.3142 164.2521,577.1277 156.7831,570.1782 150.3502,562.7786 144.7588,554.698 140.2646,546.298 136.8619,537.6384 134.5092,528.4499 133.2166,518.7349 133.0107,508.5569 133.9185,497.9796 135.8702,487.4759 138.9367,476.6531 143.2067,465.5754 148.6231,454.4093 155.1272,443.2631 162.6601,432.2451 171.1631,421.4637 180.2655,411.3519 190.3497,401.4824 201.1871,392.0876 212.663,383.2498 224.6628,375.0515 237.0718,367.5748 249.7753,360.9022 262.8225,355.0237 276.0964,349.9728 289.7639,345.7024 303.3496,342.372 313.8705,340.4231 324.2226,339.0592 334.291,338.2855 344.5499,338.0491 354.9233,338.373 364.975,339.2474 374.6844,340.6415 384.383,342.6065 393.6675,345.0645 402.6578,348.0327 412.1482,351.8092 421.098,356.0019 429.514,360.564 437.7073,365.6503 445.6203,371.2454 453.2162,377.3385 460.1873,383.5791 466.8694,390.2104 473.2153,397.2082 479.1815,404.5392 484.9506,412.4743 491.2121,421.9889 496.5177,430.9154 501.1184,439.5698 508.5328,455.8392 514.1189,470.2636 520.5195,490.875 531.4778,531.6314 535.4674,542.3985 538.9809,549.2605 541.3027,552.7034 544.0199,555.849 546.956,558.7543 550.2973,561.217 554.3126,563.5413 557.6699,565.0356 563.8028,567.0171 568.7184,568.1953 574.4288,569.0112 580.9818,569.5058 595.5508,569.3367 610.3728,568.0482 629.5106,565.2383 649.7354,561.1838 671.3328,555.949 695.5297,549.1815 719.4257,541.7095 749.1937,531.574 774.5865,522.1315 806.949,509.1474 835.4015,496.8771 863.2967,483.8915 886.5949,471.9671 895.933,466.7224 902.8637,462.4421 907.4932,459.0249 909.2931,456.8026 909.0371,456.2066 907.9599,455.9899 903.3798,456.7472 894.6862,459.2861 882.7559,463.3726 864.0968,470.3453 770.263,506.8043 741.34,517.3845 714.2002,526.7128 690.0068,534.4115 667.8245,540.8052 646.4485,546.2442 625.9342,550.7067 605.3847,554.2939 587.4982,556.4472 569.6245,557.5029 552.1064,557.3867 539.0797,556.3747 526.2245,554.4455 514.2154,551.8214 491.7268,545.471 485.4874,544.5005 481.8999,544.4674 477.8792,545.4175 474.3543,547.038 469.6401,550.1235 454.9681,561.1971 446.126,567.299 436.3886,572.7884 423.8312,578.8393 410.176,584.2911 395.2122,589.1966 381.1764,592.8645 363.9783,596.4757 345.6993,599.2895 325.7261,601.3344 307.7573,602.2204 290.25,602.125 273.2722,601.0465 256.2175,598.9009 239.8038,595.7724 225.5239,591.8715 215.125,588.1658 205.0221,583.7553 195.6178,578.7988 187.5174,573.6136 180.0035,567.7481 173.425,561.4822 167.5485,554.5994 162.6487,547.4291 158.7651,540.1101 155.6338,531.9992 153.5062,523.7372 152.2727,515.0471 151.9724,505.9785 152.5944,496.9958 154.17,487.7429 156.6594,478.541 160.357,468.5101 164.9041,458.7647 170.3821,449.0435 176.7623,439.4291 183.8987,430.1442 191.9208,421.0126 200.9526,411.9502 210.3762,403.5735 220.3621,395.6919 230.8258,388.3867 241.4021,381.893 252.7037,375.8104 264.2564,370.4135 276.3164,365.6079 288.4276,361.6065 300.1282,358.5288 311.1378,356.3626 322.3464,354.8526 333.3476,354.0397 344.4639,353.9065 355.237,354.4674 365.6053,355.6952 375.9227,357.653 386.1055,360.2979 396.1269,363.6199 405.5705,367.4756 414.738,371.981 423.2522,376.9436 432.212,383.043 440.8666,389.833 448.6991,396.9074 455.9649,404.4633 463.4278,413.4278 470.3941,422.9349 476.3811,432.3097 481.7248,442.0613 486.8344,452.7725 491.1103,463.3135 495.6265,476.932 498.7132,488.3288 501.1058,500.5127 502.5891,510.9098 503.9014,525.0361 504.108,538.38 503.3916,549.9332 501.8946,560.0694 499.6174,569.3039 496.125,578.125 493.0467,583.5698 488.892,589.1799 485.2008,593.1635 480.29,597.5769 474.7663,601.5804 467.0346,606.3305 461.1339,609.4001 452.8333,613.1691 443.7089,616.7477 431.3071,621.0187 407.8509,627.845 382.7853,633.455 355.3901,638.2689 327.9499,641.7399 302.9182,643.6586 275.3389,644.3744 250.096,643.7172 226.4659,641.6851 214.7484,640.1036 203.5755,638.2048 193.6438,636.1313 183.7361,633.6528 174.2649,630.8598 164.9072,627.6456 151.5274,622.1439 139.2899,615.9946 128.6388,609.495 118.9526,602.3049 110.0373,594.2286 102.2678,585.55 95.6829,576.3416 90.3006,566.675 86.1684,556.7026 83.0872,545.7634 81.25,534.488 80.5961,522.6229 81.1378,510.6292 82.8817,498.2057 85.8727,485.4131 89.9567,472.8597 95.5133,459.5181 102.3398,446.037 110.3755,432.536 119.3281,419.4516 129.3187,406.5732 140.2908,394.012 151.9161,382.1404 164.4727,370.6555 178.0423,359.5083 192.2351,349.035 207.2552,339.108 222.3414,330.2261 237.6883,322.2445 252.8386,315.3798 268.6192,309.2837 284.3887,304.2109 296.9779,300.8712 309.429,298.1808 322.0679,296.075 334.4683,294.6315 346.5836,293.837 358.7083,293.6823 370.6287,294.1947 382.1825,295.3275 393.7085,297.103 405.1495,299.5353 416.4445,302.6305 427.1911,306.2604 437.6959,310.5076 447.8884,315.3537 458.0798,320.9674 467.9554,327.1726 475.6143,332.5556 482.8236,338.1221 489.8714,344.0743 496.9728,350.6297 503.5653,357.2638 510.3965,364.7223 516.8877,372.3893 523.0667,380.2964 529.7291,389.6013 535.8727,399.0237 542.703,410.5127 549.1674,422.2744 557.5519,439.2303 578.23,485.221 583.0347,494.8813 587.0752,501.7601 594.2813,511.5532 597.4802,514.9681 601.1531,518.2475 605.0434,521.1296 608.8699,523.4022 613.2917,525.4815 618.375,527.375 625.7866,529.305 634.763,530.6256 643.0604,531.1444 652.7017,531.0255 663.2757,530.3302 675.3154,528.8799 689.3801,526.6787 703.2935,523.8898 718.7828,520.253 733.6529,516.2329 752.4657,510.5842 769.3928,504.972 788.7436,498.029 804.8614,491.6624 818.9399,485.3284 822.7268,483.253 823.6816,482.252 822.8594,482.1094 820.7012,482.5059 811.1514,485.3595 756.8972,503.4565 730.0444,511.9236 699.8494,520.6097 679.0013,525.8975 650.7251,531.7649 637.8051,533.8752 625.6165,535.4505 614.0669,536.4765 600.2602,537.1435 580.1636,536.8401 577.253,537.191 577.8043,537.8276 580.793,539.0547 589.5674,541.013 599.5256,542.2772 613.0601,542.8502 627.6424,542.314 641.3061,541.0007 658.2198,538.6497 673.9069,535.7879 690.1482,532.2046 711.7501,526.7611 730.3411,521.5026 752.0766,514.7172 771.6692,507.9278 796.124,498.6402 817.9836,489.5575 835.2223,481.4306 839.8842,478.7416 841.0434,477.4972 839.787,477.3056 837.0468,477.8429 825.0489,481.4443 756.0,505.125 721.8067,516.0987 691.7506,524.782 664.8076,531.3468 649.8775,534.4175 636.9755,536.6383 623.4411,538.4678 609.1719,539.8995 598.0329,540.4945 585.1385,540.6217 576.9844,540.3438 561.9337,539.2589 558.9033,539.3143 558.0,539.625 558.054,540.543 558.9504,541.5626 562.625,543.875 566.5942,545.6831 572.355,547.7141 582.5171,550.0419 595.0618,551.4675 610.0814,551.6182 622.3474,550.9008 639.3458,548.9082 659.3857,545.4851 677.1735,541.746 697.5621,536.6805 721.0882,530.0457 744.6779,522.6049 769.6579,513.8677 795.8881,503.924 822.1902,493.0456 845.4371,482.4647 861.4911,474.0971 865.6543,471.3076 866.7026,470.2587 866.8409,469.7137 865.4907,469.4585 861.841,470.1819 847.6868,474.5526 765.3033,504.2817 721.1864,519.1029 702.8131,524.7608 685.8871,529.5754 669.3498,533.8634 653.3662,537.5678 637.3019,540.7626 621.9856,543.2087 605.8373,545.1281 591.4975,546.2025 577.9798,546.4233 563.6613,545.8842 554.7715,545.0006 538.0709,542.4901 533.1611,542.0413 530.1388,542.1855 527.9377,543.1912 527.1013,544.4631 526.8056,546.3287 527.0332,548.6797 528.1081,552.4516 531.0416,558.2113 534.8426,563.1059 539.6986,567.6016 543.5709,570.1149 548.6755,572.5145 556.0554,574.8472 560.776,575.677 569.5408,576.6089 584.5395,576.699 592.4318,576.1162 604.5715,574.7102 620.9563,572.1777 642.7593,567.645 671.163,560.403 692.8585,554.0821 720.6588,545.1628 750.2369,534.7636 784.1254,521.8882 813.1587,509.8993 844.3855,496.1026 873.3642,482.2313 899.4309,468.6151 908.7105,463.2473 916.1661,458.4571 920.749,454.9238 922.4958,452.66 922.1356,451.9726 920.9381,451.7726 916.0197,452.562 907.6622,454.9839 895.3025,459.2654 868.7159,469.3915 772.698,507.2546 740.5852,519.2454 713.2528,528.8552 688.409,536.8703 664.7627,543.7793 641.8872,549.7025 621.2729,554.2469 599.7053,557.9522 579.474,560.306 560.4528,561.3567 543.2342,560.9961 529.0895,559.6204 515.4905,557.3321 502.1812,553.8507 482.9113,547.4196 476.5373,545.5946 471.5593,544.6 466.623,544.552 462.1243,545.3845 455.8174,547.8245 428.3714,563.2759 419.536,567.513 409.8367,571.5513 399.2683,575.3429 388.7114,578.5838 375.2455,582.0307 363.2719,584.6186 349.0346,586.9457 334.2165,588.7165 320.3945,589.5875 304.5,589.875 291.9261,589.5366 279.411,588.5463 266.2417,586.8211 254.5883,584.6269 243.8998,581.8593 233.7502,578.5176 223.5102,574.3751 214.8963,570.136 207.0598,565.412 199.7543,560.0403 193.3267,554.2712 187.7794,548.1817 183.025,541.6054 179.2389,534.8034 176.1073,527.1748 173.9586,519.4568 172.6739,511.3557 172.3183,503.5705 172.8861,495.1041 174.3288,486.7551 176.8857,477.4981 180.3006,468.5102 184.575,459.6364 189.7925,450.7701 195.9003,442.0227 203.0733,433.1942 211.0306,424.688 219.3878,416.865 228.3908,409.469 237.9558,402.5742 247.9815,396.241 258.3635,390.5317 268.9977,385.509 279.4308,381.3609 290.6232,377.73 301.6546,374.8952 310.7299,373.107 319.7058,371.8266 328.5349,371.0565 337.5251,370.7998 346.6416,371.1134 355.4136,371.9256 363.9055,373.2022 372.4501,375.0065 380.6192,377.2629 388.3773,379.943 395.9816,383.1397 403.8317,387.027 411.1878,391.265 418.0498,395.8116 424.6954,400.8492 430.8328,406.1525 437.4395,412.5808 443.6413,419.4139 449.1586,426.3304 454.1641,433.5112 459.1696,441.718 463.4102,449.75 467.0982,457.9519 470.6252,467.239 473.2621,475.5337 475.25,483.5 476.9043,492.6907 477.8265,501.2042 478.1475,510.4207 477.9162,517.9513 476.7858,526.6736 475.3349,533.7588 473.728,538.8976 471.5702,544.2828 469.1863,549.0414 466.0772,554.2068 462.9924,558.5077 459.7491,562.3155 455.7556,566.3546 451.5882,569.9801 446.8544,573.5749 441.4664,577.1679 435.2712,580.8135 429.2005,583.9526 414.7579,590.154 398.6606,595.7025 381.1408,600.3968 359.4569,604.7331 339.4282,607.6372 318.6201,609.5249 298.2708,610.2273 277.75,609.75 259.6215,608.2126 241.8562,605.5289 227.7722,602.5031 215.6676,599.1129 204.2145,595.0038 193.1211,590.0459 182.8388,584.409 173.397,578.099 165.2416,571.3025 158.1839,563.957 152.0215,555.8559 147.0288,547.3608 143.1502,538.4624 140.5193,529.4696 138.9077,519.541 138.4646,509.469 139.1456,498.9899 140.984,488.1845 144.0386,477.0747 148.2734,466.0285 153.7039,454.8907 160.4697,443.4505 168.3533,432.1596 177.01,421.4528 186.5897,411.1133 196.8976,401.3602 208.2495,391.8989 220.259,383.0827 232.7997,375.0017 245.4093,367.9212 258.3247,361.6858 271.9031,356.1463 285.5451,351.5585 299.1412,347.9262 309.6946,345.7496 320.4556,344.12 330.6526,343.1479 341.29,342.7329 351.707,342.911 362.191,343.6969 372.3078,345.0629 382.0294,346.9758 391.328,349.4029 400.6062,352.4652 410.0764,356.2482 419.3369,360.63 428.0056,365.4188 436.0907,370.5648 443.8781,376.2334 451.5924,382.6278 458.6354,389.1659 465.3326,396.103 471.6331,403.3929 477.4897,410.9753 483.5956,419.8099 489.3438,429.0625 494.4922,438.3976 499.0039,447.7006 506.2501,465.0617 512.3771,483.7852 516.0688,497.4608 523.8008,533.5137 526.2795,543.8294 529.4524,553.1495 532.875,560.0 535.1254,563.2853 538.5206,567.0363 541.0781,569.25 543.9495,571.2126 547.1443,572.9621 551.409,574.697 555.3385,575.9576 560.0216,576.9286 566.2499,577.7288 572.3708,578.1035 580.5623,578.1337 587.9421,577.7963 605.6156,575.8878 626.3492,572.2482 646.607,567.7903 673.5445,560.6982 698.9489,553.155 725.5247,544.4668 754.9667,533.9298 785.5898,522.0854 817.2494,508.9169 847.0016,495.6834 876.2845,481.5279 902.8864,467.5484 912.2574,462.0974 919.4167,457.4815 923.993,453.9274 925.6176,451.7407 925.261,451.0473 923.916,450.809 918.6804,451.6384 909.826,454.2115 898.1684,458.2738 870.8543,468.7226 808.0379,493.8783 775.374,506.6399 741.3289,519.3689 712.1127,529.616 685.292,538.2489 659.8864,545.6296 636.4274,551.6051 615.4825,556.0329 594.2389,559.4594 574.05,561.58 556.2327,562.3332 539.2638,561.7376 525.3125,560.166 512.2097,557.7274 497.0135,553.5541 479.9913,547.6033 473.576,545.679 468.3548,544.5971 462.9867,544.4397 458.8743,545.1401 452.0312,547.6406 425.558,561.7705 414.5625,566.6835 404.0916,570.8518 390.875,575.25 380.4732,578.206 368.232,581.0466 356.215,583.2475 341.1011,585.2751 326.0126,586.656 311.7829,587.1465 295.7993,586.9392 283.2229,586.0857 270.3987,584.4473 257.0035,581.9185 245.5946,578.9913 236.2351,575.9128 227.1281,572.2349 218.3314,567.9286 211.0619,563.6046 204.2792,558.6716 198.0561,553.1533 192.4561,547.0687 187.75,540.75 183.8767,534.104 180.9284,527.3172 178.7429,520.1244 177.3595,512.565 176.8179,504.6785 177.127,496.8943 178.2887,488.9062 180.2937,480.7283 183.265,472.077 187.1133,463.3925 191.8176,454.7633 197.0469,446.7266 203.2328,438.5995 210.1597,430.6947 218.0326,422.8247 226.2288,415.612 234.9308,408.8568 244.0897,402.6198 253.6357,396.9386 263.4838,391.8396 273.5375,387.3576 284.0517,383.4073 294.4489,380.2264 304.8866,377.7378 313.7158,376.1662 322.4437,375.0907 331.0289,374.5037 339.79,374.4034 348.3032,374.8175 356.6788,375.7372 364.8968,377.1345 373.1757,379.0646 381.0871,381.4352 388.9329,384.3442 396.0,387.5 403.8521,391.6129 411.2031,396.0555 418.0406,400.7907 424.6264,406.0139 430.4675,411.3212 436.9035,417.9587 442.6619,424.6986 447.7661,431.5058 452.5262,438.8143 457.4719,447.5182 461.4283,455.6299 464.5137,463.2219 467.5336,472.2952 469.7804,480.6575 471.3973,488.8809 472.5488,497.8766 472.994,506.31 472.76,514.547 471.9304,521.905 470.3704,529.4352 468.212,536.312 465.9949,541.6038 463.3735,546.6824 460.5,551.25 457.0958,555.7916 453.2734,560.0963 449.1366,564.1083 444.5842,567.8584 439.498,571.4708 433.5035,575.2392 427.5193,578.5552 413.7262,584.8733 396.6145,590.974 379.1138,595.8212 358.854,599.9823 336.7106,603.1537 318.1663,604.7077 298.3867,605.1765 278.0674,604.518 258.7013,602.6103 240.3149,599.4909 223.7565,595.2426 212.5643,591.4166 202.0377,586.9761 192.5369,582.107 184.1107,576.8298 176.2578,570.844 169.0793,564.1552 162.9067,557.066 157.611,549.4432 153.5851,541.8384 150.4403,533.6681 148.2211,524.9842 146.9719,515.8385 146.7259,506.6883 147.4611,497.1503 149.1613,487.7047 151.9501,477.6844 155.9116,467.1601 160.7584,456.9269 166.5824,446.7267 173.3651,436.6454 180.9304,426.9671 189.3435,417.5577 198.513,408.4995 208.6456,399.6287 219.0686,391.5366 229.9707,384.0452 241.3271,377.1997 253.0148,371.0671 265.2814,365.5237 277.6764,360.7844 290.0884,356.8727 302.406,353.8124 313.7332,351.7247 324.8091,350.338 336.0442,349.6007 346.9887,349.5509 357.5918,350.1647 367.8027,351.4182 378.0851,353.3941 388.1984,356.0319 398.1649,359.3466 407.5729,363.1882 416.7257,367.6644 425.5422,372.7584 434.572,378.831 443.2639,385.5468 451.4273,392.7865 458.7556,400.232 465.6779,408.2659 472.3961,417.0258 478.2883,425.7198 483.3839,434.304 488.8684,444.9413 493.6181,455.4452 497.6428,465.7715 501.533,477.5256 504.1467,486.9886 506.7392,498.3331 508.3964,507.0284 509.8465,516.9747 511.934,536.786 514.2578,576.75 515.7626,588.4303 516.6973,592.5341 518.0202,596.5252 520.9245,601.5848 523.3486,604.2219 525.6311,605.8891 527.9548,607.1319 531.316,608.3508 538.068,609.5426 542.7041,609.7694 551.363,609.5796 560.8815,608.5449 570.1768,607.1484 593.4289,602.4167 619.7603,595.7621 651.5507,586.498 686.3778,575.0729 720.3791,562.9359 755.7931,549.2991 793.3096,533.7756 832.8981,516.3828 866.8285,500.4312 899.6315,483.9641 931.5413,466.7039 945.769,458.4543 957.7509,451.0881 966.991,444.9452 973.6564,439.9127 977.6634,436.0406 978.6357,434.5014 978.7719,433.5147 977.9094,432.7101 976.1358,432.5162 969.6027,433.6688 958.4038,437.1269 942.6419,442.8892 906.3337,457.5431 808.6776,499.1837 759.6113,519.3911 734.593,529.1654 710.4674,538.1521 687.395,546.2864 665.8595,553.4036 644.324,559.9668 624.4008,565.4207 605.2478,569.9816 586.6783,573.6793 568.8295,576.4657 552.1472,578.2826 536.1274,579.1826 521.4345,579.1279 507.5793,578.1698 494.6635,576.3642 481.8432,573.5983 470.0277,570.0446 459.3391,565.8688 447.6276,560.3016 439.9424,556.1087 423.0106,545.9927 417.6423,543.0782 411.0532,540.3827 405.6591,538.8587 399.0199,538.1858 391.2607,538.6682 383.0691,539.8436 357.4767,544.4515 340.3492,546.611 325.0021,547.2436 312.5244,546.7981 302.9572,545.7528 294.9534,544.4469 287.524,542.6268 279.8966,540.168 273.477,537.593 267.375,534.4531 261.678,530.807 256.3201,526.6003 252.9761,523.3331 249.7675,519.4948 247.0077,515.3822 244.719,511.0384 243.2439,507.2096 242.2039,503.1823 241.5883,499.005 241.3881,494.334 241.6612,489.6534 242.4178,485.0794 243.6885,480.4199 245.4493,475.7351 247.6763,471.0849 250.3161,466.5752 253.221,462.426 256.773,458.103 260.727,453.942 265.029,449.979 269.921,446.0255 274.519,442.789 284.7791,436.9413 296.0188,432.2476 307.9118,428.9173 314.3031,427.7454 320.2624,427.0402 326.1666,426.7321 332.0559,426.8069 338.2099,427.2925 343.8146,428.1283 352.0,430.125 360.9315,433.3631 368.4034,437.0007 375.2735,441.4214 381.9685,446.8558 387.4128,452.4367 392.7361,459.5417 396.9038,466.7819 399.9734,474.5747 401.7701,481.8642 402.4067,489.4528 401.9987,496.6953 400.4464,503.766 397.8427,510.5442 394.1863,516.8501 389.4909,522.701 383.7494,528.188 377.3395,532.8653 369.4475,537.3784 361.0567,541.105 352.003,544.1526 342.0124,546.5955 331.7484,548.3244 321.5988,549.187 310.7458,549.3487 300.9197,548.7787 290.6538,547.3595 281.6931,545.3258 272.3029,542.226 263.2333,538.2659 256.5595,534.34 250.2681,529.4538 246.5085,525.8154 243.3001,522.0741 240.7155,518.3202 238.3652,513.986 236.4969,509.4088 235.125,504.625 234.3654,500.0115 234.1473,495.2168 234.459,490.2926 235.2892,485.2902 236.6265,480.2614 238.4934,475.2214 240.8809,470.2315 243.7733,465.2919 247.1374,460.458 250.9398,455.7853 255.2795,451.1782 260.2237,446.5946 265.2575,442.5017 270.5883,438.7006 275.8266,435.445 281.5479,432.3731 287.8094,429.4733 293.8754,427.0908 300.0289,425.0928 306.2104,423.5172 312.5988,422.3429 319.151,421.533 325.6535,421.1211 332.0355,421.1202 337.8684,421.5063 343.9701,422.3341 353.8937,424.5113 362.7679,427.502 371.7858,431.8186 379.7211,436.7229 386.3417,442.0167 393.433,449.3453 398.6995,456.1936 403.1218,463.8265 406.6661,472.2755 408.8216,480.8251 409.8747,489.1374 409.5664,496.8184 408.0512,504.6455 405.1065,512.5046 401.2368,519.5259 396.3198,525.7481 390.0734,531.6046 382.7967,536.9459 374.25,541.875 365.5664,545.7139 354.7987,549.3346 345.788,551.5305 331.5408,553.8172 320.7215,554.6953 307.8971,554.7609 297.3276,554.0783 286.328,552.4641 275.7889,549.9889 266.0365,546.6667 256.7764,542.3952 249.2005,537.802 242.3835,532.3233 238.4414,528.3312 234.928,524.0255 232.2781,519.9499 230.0789,515.5936 228.2265,510.6366 226.9221,505.4551 226.1864,500.1819 226.0452,495.2131 226.481,489.708 227.4307,484.4604 229.0244,478.7859 231.0447,473.5008 233.5623,468.3214 236.537,463.2963 240.2075,458.0447 244.3537,452.9328 248.925,448.0112 253.9603,443.2532 259.4577,438.6997 265.0012,434.66 270.8188,430.9295 276.8595,427.5502 283.0797,424.5602 289.5106,421.9314 296.0637,419.6801 303.0553,417.7292 309.694,416.2991 316.2939,415.2905 323.2725,414.6733 330.2807,414.4922 337.1393,414.7493 343.7987,415.432 354.3719,417.4891 364.4102,420.6397 373.6085,424.7075 382.4111,429.8901 390.5792,435.9412 397.2997,442.2922 404.4388,451.0091 409.6579,459.1486 413.969,468.5709 416.7723,477.5422 418.3221,487.0279 418.4877,496.0302 417.2523,504.8615 414.75,512.875 410.8459,520.5996 405.4456,527.9943 399.1913,534.4449 391.7378,540.327 383.3038,545.3982 373.4219,550.0311 362.9896,553.8214 351.3377,556.9781 337.9382,559.5134 325.6245,560.9219 312.2408,561.3962 299.7003,561.0142 287.7061,559.6216 275.2275,557.1946 264.5412,554.1232 254.6515,550.2057 245.766,545.573 237.8449,540.0823 233.8102,536.6133 230.0813,532.873 226.675,528.8691 223.8882,524.883 221.5102,520.6394 219.5524,516.1608 218.0259,511.4696 217.0095,506.9702 216.3619,502.0986 216.197,497.451 216.4602,492.6842 217.213,487.4511 218.3395,482.5308 220.0034,477.201 222.125,471.875 224.6053,466.7716 227.5194,461.7009 230.8495,456.6959 234.5776,451.7892 238.6859,447.0137 247.9451,438.0047 258.4145,429.8489 269.8157,422.723 281.5272,416.9722 294.2037,412.2906 307.4489,408.9065 318.7769,407.1962 329.8245,406.5959 340.9711,407.0581 351.5969,408.555 362.348,411.219 372.9969,415.0494 382.3628,419.6141 391.0508,425.1412 399.2158,431.6549 406.4643,438.9124 413.4719,447.7559 419.2141,456.9662 423.5569,466.3884 426.6793,476.0068 428.6157,486.5926 429.0307,495.9676 428.1289,504.7302 426.3532,512.4713 423.3541,520.0235 419.5745,526.6947 414.5737,533.3594 408.952,539.1653 401.9448,544.7432 393.5215,550.1259 384.2235,554.8938 374.0769,558.9492 363.003,562.401 350.4325,565.3838 339.0344,567.3674 326.5333,568.6823 314.2182,569.2928 301.7955,569.0689 290.5401,568.2115 280.6291,566.9499 271.3064,565.1285 261.733,562.6048 252.6757,559.5873 244.8469,556.2891 237.0666,552.1743 230.0868,547.6008 223.8816,542.6148 218.7734,537.4778 214.1165,531.5235 210.429,525.3911 207.5104,518.8376 205.548,512.2763 204.4382,505.372 204.1846,498.1523 204.8651,490.2943 206.4666,482.5362 209.1102,474.4299 212.5731,466.6202 216.9109,458.8746 222.0892,451.2959 227.966,444.1015 234.8846,436.8939 242.5083,430.0728 250.4129,423.966 258.7698,418.4056 267.4543,413.4785 276.798,408.9817 286.7407,405.0145 296.806,401.8118 306.5,399.5 320.6216,397.4176 334.3936,396.8051 347.1856,397.6189 360.1912,399.9568 372.698,403.652 384.1124,408.5263 389.9011,411.6644 395.6126,415.2083 400.9337,418.9682 405.8584,422.9153 410.6344,427.2662 415.4307,432.2442 420.0055,437.5755 424.1006,442.9859 427.6943,448.443 430.8845,454.0813 434.0186,460.4391 436.4813,466.3638 438.3308,471.8555 440.1127,478.7021 441.2806,484.6988 441.9779,490.5077 442.199,496.597 441.9746,502.7176 441.3282,508.2267 440.1936,513.8165 437.2884,522.7144 433.1991,530.8148 427.6404,538.5891 420.8914,545.6749 412.7979,552.1806 403.5926,557.9491 392.9906,563.2189 381.3714,567.7377 367.3849,571.9685 352.3156,575.3539 338.3864,577.5186 323.0184,578.856 307.4513,579.3359 291.9008,578.7818 276.9184,577.2698 263.1696,574.7453 253.2199,572.1701 243.4108,568.9871 235.5645,565.8164 228.0176,562.0831 220.5259,557.5957 213.5222,552.5292 207.8471,547.5617 202.7491,541.9811 198.3289,535.86 194.8037,529.5906 191.8515,522.562 189.8626,515.611 188.7086,508.1335 188.4437,500.7002 189.0024,493.0257 190.3941,485.1718 192.6834,477.0516 195.7832,469.1348 199.7322,461.1993 204.6953,452.9961 210.4699,444.9424 216.725,437.4321 223.6187,430.2387 231.3878,423.1671 239.7265,416.524 248.2157,410.5926 257.0564,405.1934 266.2605,400.3411 275.8083,396.0566 285.8838,392.284 295.6715,389.3122 305.7957,386.941 313.6653,385.5989 321.9634,384.6497 330.2523,384.1488 338.3922,384.0996 346.3357,384.4925 354.0352,385.3181 361.4435,386.5668 369.0023,388.3408 376.2081,390.4988 383.4489,393.1573 390.3151,396.1738 397.0973,399.6832 403.6281,403.6324 410.2152,408.1829 416.3016,412.9538 422.1615,418.1845 427.4858,423.6254 432.7817,429.8328 437.7574,436.4281 442.1052,443.0234 445.8522,449.6188 449.6818,457.4994 452.7781,464.9633 455.1105,471.8875 457.2111,480.134 458.6269,487.6557 459.4082,494.4746 459.6685,501.8853 459.3561,509.0463 458.3674,516.4965 456.9426,523.234 455.0235,529.1931 452.7036,534.4826 450.2045,539.1788 447.5,543.375 443.8874,548.0827 440.3608,551.9993 436.188,555.979 431.6526,559.7312 426.6576,563.3237 421.0225,566.8616 415.2015,570.0607 401.4622,576.332 387.2861,581.289 370.2122,585.9438 352.9243,589.4161 335.1078,591.7744 313.6649,593.2993 295.8908,593.4449 278.0488,592.3666 260.9615,590.1515 244.9696,586.7683 229.8655,582.2517 220.571,578.6593 211.9642,574.5646 203.7699,569.841 196.3754,564.7147 189.7845,559.2443 183.9834,553.3623 178.8657,546.8987 174.678,540.2093 171.2285,533.0343 168.5736,525.3956 166.8418,517.6637 166.0004,509.9011 165.9939,501.4557 166.84,493.1206 168.5364,484.5914 171.0997,475.9246 174.6114,467.0228 179.0264,458.0677 184.3048,449.1358 190.4015,440.3176 197.2711,431.7032 204.5854,423.6741 212.3407,416.1739 220.899,408.8562 229.9681,401.9831 239.7857,395.3983 249.9642,389.3907 260.0698,384.1756 270.6242,379.4771 281.6607,375.3194 292.3738,371.986 303.4289,369.2581 313.2929,367.4386 323.0186,366.2299 332.6284,365.633 342.7233,365.5999 352.5074,366.1519 361.9525,367.2677 371.0301,368.9261 380.0505,371.2036 388.848,374.0976 397.7461,377.6807 406.1116,381.6959 414.2536,386.2862 421.8059,391.2393 429.1217,396.788 436.3943,403.0933 443.0009,409.6079 449.637,417.0867 455.5982,424.8432 461.8783,434.1572 467.2261,443.3157 471.3572,451.6809 475.6792,462.103 478.9883,471.6523 481.6705,481.3517 483.7005,490.8045 485.0464,500.0459 485.8652,510.3705 485.8165,519.2552 485.0376,529.0224 483.6483,536.9259 481.3748,544.9598 478.2277,552.7599 475.5,557.75 471.4705,563.71 468.0,567.875 463.0353,572.8671 458.2063,576.9899 453.4595,580.4467 446.9201,584.5272 439.7171,588.5175 431.9231,592.2201 422.7487,596.0579 402.3969,602.9253 383.5938,607.8539 361.7046,612.262 336.2919,615.8095 315.5889,617.5951 290.5436,618.2632 268.5622,617.572 247.2943,615.4374 236.7981,613.8254 226.5857,611.8692 217.3671,609.6876 208.589,607.1995 199.9224,604.305 191.7589,601.1311 181.0399,596.2017 171.3635,590.8342 162.54,584.8879 154.6393,578.4399 147.4331,571.2822 141.2404,563.7112 135.9002,555.5222 131.688,547.0233 128.4603,537.8924 126.3279,528.5565 125.1966,518.7402 125.0931,508.8968 125.9935,498.7033 127.9509,488.1988 130.8682,477.8659 134.9226,467.0103 140.1798,455.7126 146.2882,444.7537 153.3591,433.8865 161.3603,423.2048 170.1537,412.9162 179.7281,402.9953 190.027,393.4724 201.2575,384.1902 212.7301,375.7187 224.6361,367.8866 236.9708,360.7232 249.6871,354.2532 262.5818,348.5531 275.9273,343.5177 289.2708,339.338 302.516,336.0353 313.1167,334.016 323.2015,332.634 333.8719,331.7258 344.3086,331.3784 354.8698,331.585 365.1183,332.3429 375.0232,333.6247 384.8991,335.4782 394.3377,337.8355 403.7025,340.7786 413.1075,344.3359 422.0185,348.3081 430.7619,352.8298 439.276,357.8923 447.214,363.2713 454.9446,369.1959 462.3044,375.4729 469.0941,381.8857 475.8313,388.9414 481.9522,396.0618 487.8715,403.7221 494.1839,412.7243 499.7992,421.5362 504.9228,430.4245 512.7767,446.1134 519.6431,462.1101 526.6535,481.6522 538.231,518.3823 542.8526,530.0355 547.8483,539.2437 550.6108,543.0466 553.875,546.75 556.372,549.057 559.4882,551.3359 563.4941,553.7105 567.0964,555.3811 572.1632,557.1785 577.1581,558.539 582.6227,559.4769 589.875,560.25 599.9943,560.5029 615.9953,559.6851 633.7713,557.445 651.5781,554.3281 672.5438,549.7206 692.3047,544.5738 716.6249,537.5238 741.2367,529.5693 768.0348,520.0822 794.3643,509.9667 821.0158,498.9738 846.4492,487.5886 868.8314,476.6686 884.9225,467.6502 889.4912,464.4847 891.0725,462.6824 890.8839,462.146 889.9688,461.9219 885.9045,462.4858 880.448,463.9916 870.0881,467.4519 848.2644,475.3897 769.1883,505.1903 741.3171,515.1776 717.438,523.2477 696.3726,529.8795 676.7794,535.5473 658.7079,540.239 641.3236,544.1751 621.7123,547.8791 602.6618,550.6525 586.9509,552.0679 571.4889,552.5352 557.748,552.2197 545.7031,551.2031 531.0309,548.946 509.1944,544.1898 504.5371,543.834 501.1267,544.2666 498.0521,545.7467 495.1147,548.4385 482.6614,565.2021 478.9844,569.5625 475.375,573.25 470.407,577.696 465.196,581.8372 459.9318,585.4795 454.0948,589.0234 447.0242,592.8021 439.625,596.25 430.3172,600.1184 420.8879,603.5724 400.4747,609.6926 378.2182,614.889 350.6365,619.6703 337.5955,621.3189 324.0352,622.6171 309.845,623.5757 296.7886,624.0552 283.5719,624.111 270.239,623.7217 257.5773,622.9311 246.1733,621.7954 234.9959,620.238 223.7418,618.1936 212.8478,615.7207 201.9955,612.7265 192.1725,609.4838 182.9133,605.8593 171.8731,600.6744 161.987,595.044 152.6592,588.6241 144.318,581.6565 137.0722,574.1897 130.8901,566.2599 125.7709,557.9628 121.5532,549.0326 118.319,539.4845 116.234,529.852 115.2183,519.7807 115.2647,509.5908 116.3911,498.6559 118.5366,487.7781 121.7347,476.6696 125.999,465.4014 131.2799,454.169 137.6608,442.8465 145.2771,431.2691 153.6569,420.1493 162.9178,409.2818 172.9904,398.7675 183.8054,388.707 194.9949,379.4283 207.0365,370.5075 219.8787,362.0301 232.7767,354.4702 246.2854,347.492 259.9703,341.3519 273.3788,336.2228 287.1683,331.858 300.8862,328.382 311.7296,326.2354 322.7993,324.5933 333.6691,323.5298 344.3024,323.0325 354.6624,323.0885 365.0533,323.7153 375.4076,324.9341 385.3713,326.6657 395.3277,328.9713 405.2169,331.8653 414.6346,335.2219 423.8895,339.1406 432.9104,343.6136 441.7751,348.6838 450.5175,354.3456 458.6586,360.2834 465.9298,366.206 472.9231,372.5383 479.3472,378.9969 485.9853,386.3688 492.5836,394.3758 498.7767,402.6286 504.53,411.08 509.7728,419.5998 517.7318,434.0998 524.7646,448.9193 533.5212,470.4549 547.6613,509.21 553.068,521.4482 558.0331,529.7592 560.526,533.1547 563.3689,536.3125 567.25,539.875 570.2561,542.1271 573.9108,544.3111 578.25,546.375 586.9532,549.1899 597.7588,551.1408 610.875,551.875 622.1892,551.5341 637.3248,550.0598 653.447,547.7226 669.461,544.6399 688.6877,540.1016 710.4931,534.2748 733.6542,527.2892 758.0024,519.2213 782.3239,510.4044 806.4095,500.9627 831.356,490.3209 851.5833,480.8736 867.7754,472.1196 871.7113,469.4276 872.6419,468.4904 872.8203,467.8671 871.2194,467.6052 867.7356,468.3176 852.1951,473.2023 765.521,504.7774 721.2043,519.821 701.9056,525.8018 684.1588,530.8766 666.8778,535.3566 649.8804,539.2759 632.1502,542.7768 616.6538,545.1825 600.9973,546.8894 584.8462,547.8861 571.4722,547.9032 557.9258,547.0281 548.1627,545.8561 527.1205,542.545 523.5645,542.68 521.1898,543.5556 519.625,545.25 518.905,547.464 518.4816,551.098 518.8194,556.0972 519.579,561.049 521.3236,567.1569 523.353,572.223 525.625,576.375 527.2319,578.6308 530.1748,581.819 534.8583,585.3829 541.9663,588.4778 548.4074,589.945 554.2866,590.762 561.4931,590.9984 569.0078,590.8003 578.2603,590.0837 598.3164,587.2108 618.5794,583.245 643.6721,577.0838 675.9972,567.7615 702.932,559.1257 732.8483,548.6567 766.6239,535.8471 802.4968,521.3042 833.8639,507.6118 864.9137,493.089 897.3235,476.7663 923.8636,462.1531 933.8081,456.1019 941.6382,450.8046 946.4292,446.8986 947.7557,445.4224 948.312,444.3012 947.9528,443.4916 946.4541,443.1996 940.3389,444.1879 929.9963,447.2491 915.4498,452.4184 886.7925,463.7125 809.6488,495.4853 777.6546,508.3562 740.6659,522.584 707.5307,534.5306 680.2748,543.5667 654.0797,551.3509 629.3304,557.7623 606.2622,562.7476 582.7227,566.5716 571.5864,567.8338 560.8028,568.6788 550.0761,569.1178 539.8485,569.1299 529.6702,568.7126 520.3651,567.8851 505.686,565.5736 490.7192,561.8629 477.6539,557.337 455.1256,547.5779 449.063,545.2526 442.5568,543.5326 436.2134,543.1456 431.2139,543.6593 424.3063,545.4004 418.6476,547.2314 399.9355,554.1788 386.4029,558.673 375.3232,561.6826 360.9981,564.8666 345.5058,567.289 331.7101,568.6918 316.3576,569.1479 302.0099,568.6915 291.0674,567.6469 280.0085,565.9952 270.7617,564.0425 261.9883,561.5812 253.057,558.3895 245.0349,554.8244 237.6625,550.7751 230.7843,546.1181 224.7722,541.0942 219.8061,535.9585 215.4533,530.2049 212.0427,524.2948 209.2381,517.6062 207.375,510.875 206.3755,503.8418 206.2682,496.8748 207.0488,489.3122 208.7532,481.588 211.3625,473.8491 214.9421,466.0366 219.4346,458.2887 224.7736,450.7086 230.8928,443.3998 237.8135,436.3795 245.4444,429.755 253.3686,423.8238 261.7483,418.4208 270.4755,413.6337 279.956,409.2891 289.6722,405.6227 299.4888,402.6818 309.287,400.5059 322.4992,398.8165 336.1075,398.5347 349.49,399.72 362.3611,402.3513 374.6393,406.3081 380.5357,408.7955 386.1122,411.5714 391.4424,414.6812 397.1105,418.4531 406.9817,426.2998 411.7222,430.8576 415.9718,435.5554 420.4952,441.1825 424.4901,446.8428 427.5768,451.8919 430.2862,457.1044 433.0417,463.2917 435.3154,469.3585 437.1075,475.305 438.4925,481.3633 439.4924,487.533 439.9601,493.1163 439.9224,499.1739 439.4143,505.404 438.548,510.618 437.1975,515.7738 433.7795,524.7187 428.8336,533.1836 423.493,540.054 416.3936,546.7753 408.125,552.875 398.5012,558.4285 387.1461,563.6243 375.1501,567.8431 361.1401,571.7305 347.0815,574.5037 331.8777,576.4999 315.9185,577.4885 300.5286,577.5295 285.9455,576.5545 270.625,574.375 257.6158,571.4207 248.5118,568.6034 239.9704,565.3317 231.9617,561.6318 224.9129,557.6763 218.3103,553.1936 212.2222,548.1835 206.7172,542.6461 202.3188,537.161 198.5795,531.1901 195.5418,524.7697 193.2451,517.9394 191.7887,511.1261 191.0891,504.1981 191.1787,497.0792 192.1149,489.3779 193.8042,481.8942 196.4107,473.951 199.6496,466.4384 203.826,458.6518 208.801,450.9319 214.5142,443.3672 220.905,436.0463 227.9127,429.0576 235.1405,422.7581 242.9424,416.7806 251.5047,411.0186 260.4303,405.7747 269.6124,401.114 278.617,397.2298 288.239,393.7706 297.953,390.9354 307.6705,388.7438 315.8303,387.4066 323.5135,386.584 330.8502,386.2179 338.9061,386.2595 346.7504,386.7364 354.3593,387.6349 361.7091,388.9416 369.1216,390.7379 376.0395,392.8976 383.5849,395.7694 390.3837,398.8354 397.1252,402.3922 403.1108,406.0593 408.6642,409.9835 414.8228,414.9664 420.3347,419.9643 425.8809,425.6407 430.8443,431.4477 435.843,438.209 440.3377,445.1187 443.854,451.3267 446.8222,457.4679 450.0477,465.5153 452.4723,472.8169 454.2017,479.5434 455.5792,487.2441 456.4061,494.5009 456.6354,501.0408 456.3075,508.4422 455.5313,514.7358 454.1225,520.9037 452.059,527.493 450.0672,532.3323 447.6278,536.9787 444.8328,541.3998 441.6283,545.6672 438.1747,549.6159 434.2042,553.5137 425.2884,560.592 414.1866,567.3996 403.1212,572.7177 388.174,578.2498 372.6908,582.688 355.9491,586.3762 337.6493,589.0792 321.1697,590.5239 302.7742,590.8995 285.5349,590.3195 269.359,588.6008 251.7533,585.4187 237.7865,581.6698 228.1137,578.2236 218.7247,574.1273 209.9885,569.552 202.5152,564.793 195.5937,559.3958 189.5596,553.6478 184.1662,547.3385 179.6852,540.8162 176.1029,534.0768 173.3117,526.8784 171.3412,519.2591 170.2547,511.6461 169.965,503.7187 170.5243,495.3135 171.9989,486.7461 174.281,478.3383 177.5426,469.4731 181.688,460.5841 186.6984,451.758 192.3248,443.3918 199.0396,434.7883 206.5332,426.4138 214.7249,418.3684 223.2312,410.9979 231.9232,404.3466 241.2742,398.0635 251.2417,392.1833 261.8525,386.7296 272.3281,382.0919 283.2687,378.0001 293.8749,374.7559 304.4749,372.2293 313.8963,370.5655 323.5807,369.4178 333.0881,368.8498 342.3732,368.8432 351.3905,369.3798 360.2488,370.4622 369.34,372.1526 378.0461,374.3463 386.6994,377.1257 394.8902,380.3581 402.907,384.1546 410.7418,388.527 418.3533,393.427 425.3955,398.6275 432.1369,404.3253 438.5,410.5 445.2877,418.0019 451.5331,425.8298 456.98,433.6528 461.7705,441.6226 466.3382,450.4382 470.3822,459.662 473.959,469.5477 476.6905,478.8875 478.6942,488.0862 480.3389,499.4061 480.9728,508.0812 480.9263,517.1674 480.2242,525.298 478.8068,532.9729 476.75,540.125 473.6491,547.9926 470.9879,553.0357 467.5002,558.4142 464.1535,562.6499 459.9834,567.0488 455.0659,571.4354 449.0874,576.0344 443.4398,579.7904 437.0927,583.4265 429.5287,587.172 421.0,590.875 403.9131,597.0717 384.6965,602.4098 362.9568,607.0162 341.3472,610.2237 318.0571,612.331 296.3014,613.0175 274.199,612.4391 254.105,610.5927 234.67,607.41 225.5379,605.3894 217.0781,603.1351 208.7168,600.4895 200.8543,597.5791 190.4212,592.9886 180.4159,587.6508 171.8049,582.1159 163.7349,575.7992 156.6321,569.0012 150.5164,561.807 145.1923,553.9719 140.9096,545.8511 137.6286,537.3752 135.3908,528.7528 134.037,519.306 133.7063,509.8079 134.3617,499.9487 135.9499,490.186 138.5336,480.1061 142.1109,469.9073 146.8302,459.2729 152.5544,448.6221 159.2455,438.0478 166.8651,427.6428 175.096,417.8121 184.2589,408.1556 194.1128,398.9182 204.6015,390.1338 215.6327,381.8765 227.1142,374.2208 238.9537,367.241 250.9688,361.051 263.3341,355.5328 276.1557,350.6574 288.989,346.6073 302.1139,343.3115 312.5706,341.3044 322.8726,339.8808 333.1037,339.0303 343.6984,338.7163 354.0083,338.9729 364.0073,339.7739 374.0336,341.1539 383.6669,343.0634 392.8779,345.473 402.0294,348.4865 411.4261,352.2074 420.302,356.3447 428.9808,361.0401 437.0964,366.0848 444.9282,371.6381 452.5652,377.7876 459.7391,384.2198 466.326,390.7685 472.5911,397.6806 478.2768,404.6503 484.5199,413.2065 490.4875,422.2101 495.721,430.9754 500.2475,439.5161 507.706,455.9596 513.4039,470.8497 519.7846,491.2368 530.5526,532.1494 534.3848,543.1888 538.3971,550.9306 541.0389,554.6755 544.536,558.5393 547.4179,560.9247 551.5475,563.6856 554.4606,565.2008 558.4922,566.752 567.9097,569.2161 573.524,570.0356 579.5411,570.4945 593.5243,570.4285 611.0751,568.8481 627.7145,566.3333 650.0649,561.8074 670.7036,556.7296 696.2624,549.489 723.6561,540.8663 751.7489,531.1882 782.7382,519.5297 808.4986,509.0977 836.893,496.6846 864.2812,483.9442 887.4991,472.0477 897.1501,466.6202 904.8838,461.8453 909.525,458.4587 911.3718,456.2728 911.0897,455.6589 909.9343,455.4729 904.809,456.3153 896.4738,458.6997 884.8615,462.653 864.1545,470.4594 773.1142,505.97 741.0037,517.7184 711.3962,527.8818 687.6836,535.3955 664.9778,541.8776 642.9691,547.4097 622.3178,551.814 603.4542,554.9649 585.0099,557.0528 566.5267,558.0685 550.8367,557.9092 537.8511,556.8076 523.9046,554.7135 511.8,551.9467 488.7078,545.2917 483.162,544.4537 478.793,544.696 474.527,545.884 469.6094,548.4062 449.5547,562.6488 437.6404,569.8707 424.8684,576.2857 411.1042,581.9203 392.4913,588.0094 373.764,592.597 353.7619,596.3174 331.5923,599.0091 317.436,599.9535 302.4737,600.2637 287.2505,599.9757 273.9049,599.0429 260.2991,597.3532 246.5272,594.8691 234.6888,592.0173 223.3939,588.509 213.4187,584.6656 203.7642,580.1493 195.0864,575.2458 187.5063,570.0209 180.5139,564.1601 174.4331,557.9468 169.0256,551.1495 164.4358,543.9004 160.8698,536.465 158.1471,528.5221 156.3055,520.1247 155.4036,511.7162 155.3758,502.9869 156.274,493.8873 158.0419,485.0894 160.8266,475.7551 164.7087,465.9526 169.3847,456.4701 174.9507,447.0447 181.4315,437.6948 188.676,428.6516 196.6959,419.8573 205.6894,411.1347 215.025,403.0956 224.8807,395.5512 235.1723,388.5826 245.5537,382.4044 256.585,376.6695 267.8376,371.6167 279.5696,367.1505 291.3249,363.4712 302.6444,360.6845 313.582,358.7002 324.2792,357.4002 335.1546,356.7295 345.7506,356.7231 356.009,357.3549 366.2157,358.6547 376.0384,360.5911 386.0662,363.2731 395.5865,366.5227 404.9117,370.4301 413.9515,374.9813 422.4434,380.0361 431.0495,385.9713 438.9334,392.2209 446.3815,398.9765 453.5722,406.4551 460.7706,415.0586 467.4241,424.1745 473.5195,433.7973 479.2252,444.2287 483.9108,454.1381 487.8279,463.9806 491.9463,476.6786 494.8445,487.7038 497.2205,499.8477 498.5012,509.2336 499.4306,523.2079 499.3414,534.9654 498.1931,546.3552 496.7427,553.8372 494.375,562.25 492.5497,566.9574 490.6926,570.78 487.2489,576.348 482.9769,581.8981 478.125,587.0 473.4556,591.0281 467.4316,595.2856 460.6855,599.3431 452.4411,603.5601 443.5303,607.5921 435.0033,610.9762 425.5609,614.2062 412.8673,618.08 401.2745,621.1695 374.4703,627.041 347.7032,631.397 320.9128,634.2965 293.6234,635.8049 268.9031,635.8247 244.6069,634.3982 232.8006,633.1584 222.5217,631.7204 212.1748,629.8837 201.8125,627.625 191.8548,625.0254 181.9788,621.9907 172.5896,618.6376 163.752,614.9933 152.4739,609.4237 142.0658,603.1556 132.6098,596.2444 123.8965,588.4839 116.5284,580.4345 110.1303,571.7265 104.7934,562.3657 100.6289,552.611 97.5244,542.1995 95.6091,531.5582 94.8385,520.7804 95.2006,509.4127 96.7317,497.9421 99.4427,486.0891 103.3097,473.951 108.1504,461.979 114.4162,449.2088 121.6082,436.7992 129.8609,424.4938 139.038,412.5259 149.1596,400.8427 160.4185,389.2456 172.4808,378.1143 184.9386,367.7852 197.9666,358.0851 211.1417,349.3101 225.0253,341.1044 239.1323,333.7457 253.7736,327.0661 268.4999,321.2786 283.5696,316.2939 298.5167,312.2841 309.7566,309.8955 321.1581,308.0462 332.7823,306.7587 344.2179,306.0664 355.3636,305.9521 366.5796,306.4132 377.4392,307.433 388.2738,309.0427 398.6768,311.1824 408.9461,313.9135 419.167,317.2828 428.9746,321.1386 438.626,325.5745 448.0657,330.5815 457.2365,336.1399 465.7961,342.0103 473.75,348.125 481.6035,354.8251 489.162,361.9352 496.3851,369.4173 503.2366,377.2218 509.6857,385.2857 516.0564,394.0183 522.3814,403.4341 531.3329,418.2933 539.6548,434.2019 548.7455,453.8748 565.8884,494.5913 572.3554,507.3606 577.0181,514.7092 582.9786,521.8799 589.2759,527.2734 593.3116,529.9551 596.8954,531.9069 605.2042,535.154 614.2275,537.2212 624.9267,538.4233 635.0182,538.6053 647.2964,537.9482 661.3101,536.4794 675.7316,534.2615 689.6034,531.4606 708.6651,526.9966 726.6314,522.202 748.6047,515.6193 766.0009,509.8417 785.4048,502.8339 805.5434,494.9238 824.7422,486.6834 838.0799,480.1711 841.4351,478.1315 842.4048,476.9818 841.4357,476.718 838.7511,477.1855 828.0785,480.3873 756.4737,505.0718 721.3958,516.399 691.4819,524.9723 662.6967,531.9733 648.7932,534.8497 636.5193,536.9331 622.8314,538.7463 608.0585,540.2294 597.9185,540.7515 585.4187,540.8721 575.4645,540.5189 560.7948,539.385 557.424,539.456 556.287,539.991 556.329,540.587 557.2764,541.7965 561.2286,544.5 566.9286,547.1194 572.2155,548.7992 583.0094,551.1753 594.7344,552.3715 607.9562,552.5786 622.875,551.5623 637.831,549.8193 659.3763,546.2039 677.4002,542.3719 697.0211,537.4677 720.9905,530.6107 744.4532,523.2075 772.8017,513.3006 795.8933,504.5192 823.4521,493.064 845.436,482.9519 863.1421,473.8291 867.846,470.743 869.0221,469.6292 869.2069,469.0353 867.6506,468.8307 863.5633,469.6238 850.3126,473.6533 768.5806,503.3015 743.5475,511.9455 719.4525,519.8716 701.5141,525.3705 683.8205,530.3774 666.9264,534.7412 650.874,538.4538 634.5576,541.6737 618.6229,544.1971 603.5323,545.9357 590.0333,546.8067 575.7138,546.9705 562.497,546.4335 548.5,544.875 536.5247,542.9018 530.2878,542.1969 527.6255,542.3326 525.479,543.1854 524.3357,544.4796 523.8402,546.2611 523.7444,548.643 524.3337,552.7217 526.8194,559.6125 528.9199,563.4902 531.2405,566.7239 533.3295,569.1098 536.625,572.0 541.0044,574.9663 546.0408,577.3928 553.7309,579.605 559.768,580.6102 566.16,581.1776 573.246,581.2887 581.8067,580.9917 598.8248,579.3046 619.4967,575.8707 640.9887,571.1878 667.3853,564.2463 694.7451,556.1586 722.3006,547.1526 753.7265,535.8436 787.0658,522.9286 818.3495,509.8649 848.437,496.3795 879.0278,481.5417 905.4688,467.5556 915.7083,461.5732 923.613,456.4866 928.7852,452.5609 930.2898,451.0314 930.83,450.0361 930.5322,449.306 929.2402,449.0283 924.0735,449.7915 915.2237,452.333 902.7772,456.6802 874.315,467.6327 772.1846,508.3852 738.5486,521.0229 709.1391,531.3547 681.3855,540.2976 655.544,547.7714 632.1335,553.6432 610.0461,558.1711 588.6818,561.4411 568.7644,563.3362 550.5003,563.8707 533.4147,563.0271 519.3613,561.2452 507.4161,558.826 493.1841,554.6045 474.7488,547.8824 468.3268,545.8234 462.7343,544.5046 457.7844,544.2227 452.5,545.0 446.1202,547.0416 415.5064,561.7204 405.6739,565.7796 395.647,569.361 384.6235,572.6848 373.3025,575.5871 360.9248,578.1109 347.9788,580.227 334.6853,581.6842 319.8233,582.5713 306.5972,582.7132 293.2592,582.1738 280.5389,581.017 268.6199,579.2233 257.0911,576.7517 245.6401,573.517 236.9492,570.377 228.9003,566.7773 221.2077,562.608 213.9524,557.8773 207.684,552.9685 202.1614,547.6945 197.2305,541.9083 193.1632,535.9635 189.763,529.6077 187.1757,523.0949 185.3345,516.1556 184.2749,508.84 184.0241,501.2156 184.5595,493.748 185.8724,486.1207 187.9446,478.5087 190.9499,470.4303 194.7807,462.3188 199.4074,454.25 204.8005,446.2997 210.8217,438.6721 217.2151,431.6264 224.473,424.6008 232.2804,417.9369 240.5558,411.7009 249.2174,405.9589 257.8799,400.9391 267.2358,396.2376 276.8075,392.1149 286.871,388.4724 296.6199,385.5911 306.6845,383.2795 315.0626,381.8763 323.3864,380.9392 331.5638,380.4675 339.9466,380.4606 347.7469,380.9076 355.6799,381.8389 363.2351,383.2063 371.4773,385.2027 378.9827,387.4912 386.4806,390.2791 393.2368,393.2808 399.9057,396.7753 406.7649,400.9907 413.5998,405.7723 419.9064,410.7946 425.6775,416.0354 430.9057,421.4727 436.8726,428.5267 442.0007,435.3392 446.2807,441.8435 450.0083,448.4881 454.2126,457.1666 457.2612,464.5227 459.6791,471.6994 461.8956,480.2402 463.379,488.0286 464.3004,496.2031 464.6602,504.4419 464.3882,511.4333 463.4805,518.3964 462.0239,525.0028 459.853,531.805 457.8118,536.6618 455.2052,541.6404 452.3691,546.1082 448.9623,550.57 444.8659,555.1625 441.1079,558.7751 436.3482,562.703 431.0031,566.5906 425.7501,569.8625 419.651,573.1715 406.1274,579.3832 391.1588,584.7056 374.9428,589.1686 356.5232,593.0623 337.3937,595.7748 318.0037,597.3495 297.9276,597.7275 280.053,597.0011 262.6957,595.0609 244.7862,591.7673 229.7434,587.6694 219.676,584.051 209.9021,579.7477 200.8202,574.9089 193.075,569.9 185.906,564.2679 179.6398,558.2749 174.0261,551.689 169.125,544.5 165.2966,537.1932 162.4418,529.719 160.3412,521.442 159.2151,513.1234 158.9894,504.4529 159.6591,495.7975 161.2236,487.0214 163.694,478.0449 167.1982,468.5942 171.6383,459.0978 176.9936,449.6426 183.1637,440.4252 190.0225,431.604 197.9177,422.735 206.5462,414.1978 215.5142,406.3309 224.9935,398.9459 234.8973,392.1268 245.5064,385.7211 256.4552,379.9478 267.6415,374.8441 279.3175,370.3221 290.6704,366.6943 301.95,363.8501 312.1463,361.9335 322.7513,360.568 333.1642,359.8521 343.7044,359.7728 353.5655,360.3137 363.4215,361.4918 373.361,363.3604 383.0577,365.8205 392.2714,368.7972 400.9848,372.2563 409.4979,376.3288 417.3124,380.7717 425.7837,386.3423 433.8762,392.4462 441.5141,399.0677 448.3809,405.9227 455.5364,414.1495 462.2276,422.8487 468.0323,431.4917 473.1182,440.3443 478.3104,450.7615 482.689,461.064 486.7022,472.6831 489.8231,483.7702 492.1397,495.2557 493.7211,505.7929 494.488,517.2756 494.5317,526.159 493.7146,536.7734 491.9796,546.6248 489.7265,554.3976 486.581,562.0774 483.6719,567.4062 480.1716,572.4718 476.251,577.086 471.2607,581.9905 466.2888,586.0132 459.9314,590.4051 453.3974,594.2621 445.8983,598.1874 438.1219,601.6863 428.0055,605.7206 409.2024,611.7975 386.7849,617.5547 363.0335,622.176 335.9346,625.9313 314.2778,627.8511 287.7704,628.7326 275.7043,628.668 264.3184,628.2336 253.0485,627.4334 241.5632,626.233 230.2855,624.6677 219.6017,622.8109 210.0588,620.7527 200.5425,618.276 191.4681,615.4821 182.5173,612.2667 170.6299,607.1866 159.4731,601.4034 149.8108,595.2697 141.1087,588.5467 133.1412,581.0356 126.0142,572.7284 120.0301,563.9449 115.2122,554.7574 111.6063,545.2384 109.0624,535.0858 107.6337,524.3528 107.3622,513.4891 108.2276,502.1818 110.2085,490.7916 113.2722,479.4525 117.6065,467.555 123.2635,455.1868 130.0899,442.7876 138.0358,430.4694 146.7942,418.6686 156.4191,407.2659 166.8938,396.2821 178.1815,385.7259 190.4732,375.4446 203.3857,365.7931 216.4773,357.0665 229.9392,349.1128 243.6335,342.0288 257.9481,335.6327 272.3482,330.1596 287.1036,325.5022 302.1037,321.7305 312.9345,319.612 323.9446,317.9908 334.7213,316.9456 345.3532,316.4612 355.9458,316.5239 366.6327,317.1519 376.9813,318.3183 387.3354,320.0584 397.2833,322.2994 407.1356,325.106 416.658,328.4212 426.1682,332.351 435.5184,336.8507 444.3251,341.721 453.2103,347.3218 461.4836,353.2298 468.8908,359.158 476.3761,365.8237 483.8657,373.179 490.7175,380.5954 496.9699,388.0298 503.077,396.0064 509.2381,404.8725 515.1533,414.1282 523.4054,428.5802 530.7399,443.5766 539.5034,463.6829 551.6848,495.5232 555.2932,504.256 560.4364,515.0661 565.9726,524.0535 571.1102,530.1888 574.4318,533.2065 577.9734,535.911 581.5,538.0781 585.6667,540.1649 589.8418,541.891 594.3659,543.3091 603.5826,545.1747 612.8308,545.9689 626.6545,546.0642 639.808,545.159 654.1919,543.3997 670.3208,540.5502 687.1982,536.998 705.9603,532.2405 726.5957,526.4291 749.1095,519.2437 771.7268,511.4684 795.6837,502.4111 818.5755,493.099 840.9688,483.0085 855.0109,475.77 859.0183,473.2175 860.2501,471.8041 858.8673,471.5167 855.6348,472.0886 843.1566,475.8671 763.2629,504.4082 725.0391,517.1514 687.4545,528.2265 671.814,532.3274 656.5313,535.8917 640.5181,539.1136 624.8871,541.7104 611.0612,543.4351 597.3987,544.515 584.1012,544.9308 571.6806,544.5999 558.2441,543.5859 540.6557,541.3673 537.2656,541.625 535.5977,542.5332 535.2074,543.5663 535.3056,545.2129 537.0432,548.9428 540.7459,553.5638 543.5794,556.1994 547.4028,558.9306 553.63,562.2344 557.873,563.8248 563.9135,565.5098 569.5225,566.5179 576.498,567.3089 590.0799,567.647 604.3168,566.8442 621.5705,564.7327 643.8761,560.6771 661.3505,556.7196 687.7014,549.875 713.3359,542.2285 740.3621,533.3304 769.1271,522.8864 800.3132,510.6549 829.8054,498.2186 856.6998,485.8754 881.5878,473.2951 890.4208,468.4228 897.6569,464.0152 902.3614,460.6075 904.1475,458.5375 903.9296,457.9317 902.9618,457.7367 898.5059,458.4275 890.7538,460.6363 879.6791,464.3895 855.1545,473.5252 770.7239,506.0714 742.5711,516.3353 717.2827,525.0293 695.0257,532.119 673.3541,538.4365 652.5354,543.8944 633.221,548.3189 613.7075,551.8951 594.6963,554.3809 575.3633,555.8427 559.4427,556.0102 545.6446,555.2105 531.4151,553.4891 519.0378,551.0139 496.4656,545.1292 491.8536,544.4189 487.8344,544.5153 483.8056,545.5411 479.5296,547.8232 474.9764,551.3784 463.3424,561.537 455.6075,567.5118 446.1593,573.6668 434.7882,579.8935 419.7814,586.3912 407.7164,590.7582 391.2027,595.6463 374.7711,599.5823 355.2145,603.1313 334.1625,605.828 316.6052,607.187 298.0829,607.6204 279.6329,607.1568 262.0963,605.6431 244.5349,603.0009 228.4301,599.4492 216.7703,595.9424 205.3611,591.6343 194.6535,586.679 184.6642,581.0689 176.2064,575.1951 168.7188,568.8125 162.2159,562.0033 156.4813,554.5351 151.6949,546.5819 148.0528,538.4429 145.2564,529.3741 143.5741,520.1378 142.9309,510.459 143.3391,500.8092 144.8369,490.6773 147.3628,480.6187 151.2098,469.6783 156.0434,458.9796 161.9387,448.2892 168.8682,437.7131 176.5735,427.6327 185.5121,417.4416 195.3083,407.6216 205.5691,398.5237 216.4576,389.9742 227.5593,382.2805 239.15,375.2479 251.3359,368.8108 264.1125,362.9896 277.0235,358.0075 289.9563,353.8927 303.1524,350.5968 313.8192,348.6207 324.3796,347.2773 334.7468,346.5419 345.2669,346.3941 355.4937,346.8453 365.7431,347.915 375.582,349.5656 385.1953,351.8218 394.8759,354.7269 404.44,358.2525 413.4713,362.2434 422.2658,366.8267 430.4438,371.8023 438.8468,377.7221 446.9312,384.1427 454.6166,391.0282 461.3408,397.8337 467.408,404.7768 474.2341,413.6053 480.4434,422.5603 485.4879,430.7269 490.0687,439.1291 494.8645,449.0874 499.1653,459.2255 505.3741,476.9007 509.8215,492.9557 513.6352,511.0827 520.367,553.7542 522.3732,562.2319 525.2446,569.8307 527.662,574.1909 529.2964,576.4168 532.1644,579.5336 535.2191,581.8724 538.421,583.9055 542.0353,585.4089 546.314,586.8481 551.5175,587.8524 557.0791,588.5205 563.6133,588.7383 571.5712,588.6727 579.9187,588.0816 598.4409,585.5611 621.0417,581.1296 647.9257,574.581 672.7011,567.5519 702.7469,558.0442 734.6574,546.9314 766.9567,534.7407 802.4196,520.2518 834.2728,506.3747 866.384,491.3728 896.0036,476.4989 921.4346,462.4485 931.0244,456.6039 938.0989,451.8268 942.7982,447.9922 944.0829,446.5431 944.6111,445.438 944.2248,444.6154 942.7062,444.3318 936.7767,445.3364 926.3008,448.4976 911.6765,453.7111 885.4623,463.9496 810.8117,494.5347 772.9145,509.7379 740.7159,522.0536 710.2319,532.9846 682.2716,542.2445 656.4545,549.957 632.0801,556.3239 608.9506,561.383 585.401,565.3066 574.2018,566.6292 563.5451,567.5111 553.2465,567.9793 542.9892,568.0305 533.2383,567.6568 523.7173,566.8601 508.6036,564.6325 494.2014,561.2206 479.9275,556.4649 453.9239,545.6768 446.5635,543.7814 441.0,543.375 435.3639,544.0463 429.0402,545.7961 401.7201,556.2245 387.7795,560.8776 374.9786,564.4274 362.1066,567.3551 346.3661,569.8366 329.29,571.4805 313.4437,571.9362 298.1671,571.3383 286.7893,570.1545 275.625,568.375 267.056,566.4803 258.269,563.9165 248.9908,560.4942 240.3233,556.5651 232.9968,552.4003 226.4844,547.8249 220.5121,542.6934 215.1423,537.0243 210.916,531.3262 207.4327,525.1298 204.6102,518.1272 202.7702,511.0737 201.8214,503.8432 201.821,496.3116 202.8376,488.1612 204.7715,480.234 207.6395,472.2619 211.3503,464.4846 216.2382,456.2957 221.805,448.562 228.4223,440.7829 235.4366,433.7383 243.1047,427.1275 251.3497,421.004 260.0599,415.4332 269.1238,410.4809 278.5109,406.1763 288.7142,402.3295 298.6941,399.3326 308.6813,397.0791 322.1425,395.2772 329.3397,394.9092 336.8496,394.9276 343.8013,395.3242 350.9321,396.1326 357.4589,397.2578 364.0719,398.8145 370.5065,400.755 377.1382,403.1888 383.4507,405.9484 389.4248,409.0004 395.0413,412.3112 400.6656,416.1141 406.0291,420.2078 411.2623,424.7273 416.037,429.4218 420.3531,434.2761 425.1828,440.5137 429.3207,446.5902 432.72,452.3457 435.4764,457.8029 438.3563,464.4944 440.7044,471.0328 442.3903,477.0674 443.6558,483.4653 444.5469,490.0156 444.9169,496.2854 444.7211,502.3148 444.0664,508.4686 443.0215,513.9807 441.4736,519.5187 439.7812,524.2188 437.9022,528.3649 432.9162,536.4638 426.6592,543.8391 418.5411,551.0689 409.0849,557.5889 398.604,563.2752 387.1701,568.1419 374.13,572.4297 359.134,576.1877 343.2916,578.9763 327.1642,580.7149 309.8971,581.5138 294.7159,581.1993 279.076,579.783 265.0864,577.5919 252.204,574.4527 242.8055,571.4058 233.9532,567.8884 225.9797,564.0314 218.7316,559.7881 211.9303,554.988 205.924,549.8728 200.6958,544.4706 196.0989,538.5131 192.2277,532.058 189.2698,525.5019 187.059,518.5684 185.6378,511.2501 185.0952,503.8898 185.3757,496.231 186.488,488.3451 188.329,480.6887 191.0912,472.5645 194.6286,464.59 199.1626,456.335 204.31,448.483 210.18,440.8019 216.7236,433.3776 223.8113,426.3697 231.7106,419.5225 240.1372,413.0856 249.0002,407.124 258.2084,401.7027 267.6708,396.8869 277.2256,392.76 287.1838,389.1642 297.2214,386.2202 307.2428,383.946 315.6951,382.5508 323.6494,381.6939 331.7625,381.2886 340.1274,381.3254 348.2903,381.8182 356.5829,382.8096 364.2111,384.1959 371.8583,386.0948 379.4755,388.543 386.8548,391.4135 394.198,394.7996 401.1059,398.5308 407.5576,402.5707 413.834,407.1085 420.011,412.1612 425.9313,417.6321 431.5399,423.5268 436.5703,429.5691 441.7453,436.6716 446.3133,443.8438 450.2144,450.9541 453.6593,458.3941 456.8534,466.4596 459.3442,474.2182 461.2937,482.6017 462.6857,491.0594 463.3032,497.9882 463.377,505.7738 462.9539,512.9787 462.0299,519.171 460.334,526.2672 458.1565,532.5697 455.9151,537.5035 453.3009,542.1944 450.2798,546.6762 446.7942,551.0552 442.8899,555.2507 438.6408,559.2059 434.0566,562.8827 428.9931,566.4037 423.4034,569.8441 417.586,572.972 403.6044,579.2264 388.1481,584.5608 372.1858,588.8395 352.1466,592.6609 333.941,595.0594 314.0111,596.5341 295.8502,596.6524 275.1516,595.4116 258.4464,593.2785 241.7171,589.7768 233.5631,587.5202 225.4949,584.8878 215.8639,581.0764 206.9411,576.7599 198.78,571.9916 191.1187,566.5982 184.5348,560.9916 178.7921,554.9907 173.7054,548.4217 169.3424,541.316 165.7708,533.7052 163.188,526.0906 161.5056,518.261 160.6962,510.0239 160.7772,501.4453 161.766,492.5912 163.6799,483.5275 166.3627,474.8059 169.9919,465.8177 174.6852,456.4583 180.2812,447.1406 186.4954,438.2717 193.462,429.6134 201.1374,421.2501 209.5229,413.2157 218.4289,405.6663 227.8554,398.5666 238.0379,391.7677 248.5828,385.5671 259.0518,380.188 270.1431,375.288 281.1648,371.1786 292.2217,367.7746 303.6071,364.9983 313.7895,363.1381 324.1692,361.8593 334.5013,361.2275 344.5581,361.2256 354.7009,361.8542 364.4896,363.0907 373.8925,364.8997 383.2145,367.3463 392.6988,370.5568 401.5738,374.2219 410.239,378.4885 418.6232,383.3593 426.3677,388.6177 434.1132,394.7156 441.7905,401.5633 448.7271,408.5907 455.5778,416.5787 461.8449,425.1144 468.2353,435.0193 473.622,444.7141 478.2814,454.688 482.4346,465.2461 485.5318,474.8444 488.6996,486.9828 490.5866,496.6758 492.0007,509.0295 492.3719,516.5593 492.1538,528.4798 490.9892,538.3346 489.6922,544.9177 487.0583,553.4099 483.9235,560.3824 480.894,565.7448 477.3764,570.7544 473.0,575.75 468.4375,580.1094 463.125,584.375 457.6849,588.0854 449.8242,592.6649 442.7917,596.24 433.6652,600.2956 425.376,603.5472 415.9512,606.7777 405.4174,609.9592 393.3774,613.1313 379.5397,616.3227 357.6943,620.3029 332.7501,623.5998 309.2411,625.3695 284.0001,625.897 260.4787,624.9427 248.8887,623.914 237.0878,622.4745 227.0614,620.8975 217.1246,618.9298 207.572,616.6234 198.0839,613.889 189.0658,610.8338 180.194,607.3395 169.0971,602.1492 159.142,596.4546 150.0798,590.1717 141.6843,583.1069 134.3179,575.5279 128.0,567.5 122.762,559.0338 118.626,550.2068 115.4469,540.7733 113.2827,530.7773 112.191,520.2631 112.2075,509.6894 113.2823,499.0425 115.4721,488.044 118.769,476.7706 123.0039,465.659 128.4221,454.0999 134.8871,442.5259 142.379,431.0243 150.7653,419.8229 160.006,408.9521 170.3388,398.1474 181.4425,387.778 193.2211,377.9306 205.2636,368.9149 217.7677,360.5583 230.572,352.9769 243.9126,346.0284 257.4376,339.8897 271.4131,334.4476 285.3847,329.8915 299.252,326.238 310.1336,323.989 320.6561,322.3511 331.7342,321.1915 342.5832,320.6139 353.1749,320.5916 363.857,321.1264 374.2009,322.1998 384.524,323.8476 394.4159,326.0083 403.9883,328.6877 413.6219,331.969 423.1335,335.8212 432.4688,340.25 441.2568,345.0671 449.7982,350.4206 457.7629,356.085 465.5828,362.3201 473.0994,368.9478 480.2897,375.9581 487.1134,383.317 493.535,390.9801 499.8417,399.3095 506.2527,408.5533 511.9649,417.5782 519.761,431.5443 528.3584,449.4693 534.1382,463.3076 551.8963,510.3305 556.0895,519.1773 560.9583,527.2639 563.945,531.1447 567.1596,534.67 570.2715,537.4494 573.9542,540.104 577.4907,542.2142 581.1246,543.9051 591.4484,547.227 600.6621,548.8215 612.467,549.5672 625.2914,549.2587 638.9663,548.0289 655.8681,545.5854 671.9233,542.5566 691.3431,538.1006 709.9918,533.1543 733.125,526.25 754.6013,519.1681 781.4479,509.5624 803.5841,500.9754 827.7107,490.7863 849.1982,480.8495 862.9019,473.4979 866.7366,470.8787 867.6651,469.977 867.877,469.3854 866.337,469.179 862.3544,469.9975 847.7857,474.4907 765.8652,504.1891 721.9815,518.9931 703.5928,524.6378 685.8793,529.6639 668.6055,534.1367 652.3183,537.9099 635.3261,541.2866 619.5453,543.8094 604.7012,545.5385 590.7083,546.4907 577.3463,546.7034 564.075,546.1814 554.3238,545.1906 531.8144,542.0837 529.25,542.25 526.9444,543.1852 525.9033,544.6708 525.5051,546.93 525.6435,548.7639 526.5576,552.6181 528.755,558.037 532.9841,564.2319 537.3977,568.5976 542.8895,572.2267 550.1505,575.3604 556.2978,576.9753 561.9958,577.9005 568.214,578.4159 576.3156,578.6488 583.9269,578.4085 599.9683,576.9567 622.2662,573.3577 642.5096,568.9794 665.8837,562.9751 696.722,553.9594 721.9184,545.7984 753.3637,534.6596 783.3604,523.0809 816.894,509.1432 848.6775,494.9935 877.4568,481.1461 902.9319,467.6652 912.3157,462.1947 919.3226,457.6828 924.178,453.8852 925.8939,451.5908 925.6062,450.8159 924.5746,450.547 919.724,451.2498 910.4704,453.969 897.2236,458.5831 872.4473,468.0407 806.4368,494.4998 770.8857,508.4088 740.2241,519.825 710.7805,530.0881 683.473,538.8778 658.7501,546.0498 635.7183,551.8164 613.8402,556.3519 592.4297,559.7537 573.4979,561.6801 555.1145,562.324 537.5,561.625 523.8952,560.0526 510.5681,557.4705 496.8847,553.7813 473.215,545.662 467.7217,544.5627 462.934,544.3675 458.4741,545.0728 453.6496,546.7776 446.2642,550.2992 425.6726,561.3776 412.6892,567.2445 401.5238,571.5406 389.5194,575.3911 375.375,579.125 364.4177,581.4729 351.7871,583.6028 338.274,585.3727 323.9161,586.4558 308.252,586.9193 294.1802,586.5698 280.0417,585.4158 266.3103,583.5223 254.1042,580.99 242.4135,577.7026 232.7297,574.2643 224.6237,570.7478 216.8358,566.6358 209.4609,561.9366 202.5906,556.657 196.5669,551.0592 191.4001,545.1337 187.1255,538.9931 183.5346,532.3918 180.6799,525.3534 178.6137,517.9019 177.4702,510.5794 177.1617,502.7263 177.6892,494.9685 179.1068,486.6317 181.2895,478.5343 184.3874,470.1175 188.42,461.5583 193.3293,453.0221 198.8354,444.9045 205.3098,436.6649 212.2237,428.9936 219.8165,421.6034 227.7812,414.7864 236.5501,408.1628 245.7564,402.0332 255.3075,396.4478 265.4523,391.2959 275.3564,386.9971 285.6657,383.2493 296.032,380.1822 306.3694,377.7997 315.1417,376.3057 324.1314,375.2904 332.8411,374.8262 341.6372,374.8709 350.2179,375.4151 358.9147,376.4879 367.2859,378.0443 375.6241,380.1494 383.8411,382.8215 391.5976,385.8969 399.2913,389.5199 406.5175,393.5028 413.5446,397.9962 420.0021,402.7624 426.4901,408.1855 432.6941,414.0522 438.5406,420.3509 443.9551,427.0609 449.7276,435.2711 454.7901,443.4958 458.7349,450.9655 462.3227,459.065 465.4984,467.4831 468.084,475.9085 470.1994,484.948 471.625,493.5185 472.3171,501.5081 472.4646,510.5683 471.9667,517.5312 470.5554,526.0791 468.9581,532.2273 466.4788,539.0393 464.1101,544.1246 461.2268,548.9938 457.5811,554.2115 453.8772,558.6485 449.9379,562.574 445.2494,566.5389 439.7434,570.6511 434.4357,574.0914 428.1354,577.653 420.9161,581.2494 405.7642,587.4868 390.2837,592.3585 370.3544,597.3011 350.8929,600.8253 331.5178,603.1605 308.4439,604.5963 290.061,604.6393 270.1057,603.3658 250.6962,600.8863 233.3495,597.2626 217.2748,592.4685 207.2208,588.6215 197.8291,584.1935 188.8859,579.0546 180.7857,573.4341 173.5498,567.4081 166.9629,560.7814 161.4281,553.7811 156.9033,546.4745 153.195,538.6212 150.3563,530.259 148.5038,521.8192 147.555,512.9024 147.6044,503.8884 148.6128,494.5394 150.5832,484.9314 153.5188,475.1405 157.4226,465.2429 162.2659,455.3763 168.0525,445.5829 174.7507,435.8892 182.2901,426.3834 190.6001,417.1537 199.6103,408.2882 209.25,399.875 219.1876,392.1866 229.9231,384.8285 241.0659,378.089 252.5181,372.0157 264.182,366.6561 275.6123,362.1814 287.5037,358.3223 299.489,355.1903 311.7329,352.7615 324.1505,351.1015 336.2806,350.2879 348.0469,350.3093 359.6551,351.1614 371.509,352.8737 383.1719,355.4375 394.2013,358.7334 404.8816,362.8224 415.0415,367.6371 425.1308,373.3641 434.7042,379.7896 443.4076,386.6201 451.5461,394.0398 460.2014,403.077 468.0738,412.4755 474.6712,421.5963 480.8925,431.6741 487.0273,443.0025 492.198,454.147 496.7644,465.8374 500.5929,477.4872 504.2921,491.5767 506.8164,503.6633 509.1988,519.77 511.089,542.8367 511.5345,564.012 511.2956,578.7486 510.5739,594.3679 509.5779,603.494 507.5446,611.6486 506.0872,615.179 504.0912,618.4615 500.5237,622.6435 495.7419,626.5032 488.3927,630.9528 479.8238,634.8786 470.1108,638.6208 459.9382,641.9983 444.3307,646.6953 427.3316,651.0785 410.0312,655.1562 392.4939,658.829 376.4043,661.7922 358.6473,664.6427 339.5313,667.3412 322.6265,669.3357 304.749,671.0091 286.3392,672.2877 258.3265,673.274 230.968,672.8569 204.125,671.0 191.7644,669.6026 179.9891,667.8881 168.5035,665.8216 157.3628,663.4088 146.6123,660.6608 135.9219,657.4756 125.6953,653.9589 115.9883,650.145 107.2962,646.2448 98.8309,641.9168 86.1861,634.2763 74.6679,625.7432 64.3673,616.3531 55.3527,606.1472 51.261,600.6349 47.6994,595.2167 41.7879,584.2562 39.2115,578.2754 36.9613,572.0644 33.5579,559.3343 31.5162,545.8069 30.915,531.9276 31.7566,517.387 34.0298,502.6601 37.6981,487.7816 42.8109,472.582 49.3471,457.0891 57.2558,441.4213 66.6921,425.3698 77.4513,409.3854 89.2216,393.9136 102.1584,378.7456 115.9781,364.2307 130.61,350.4037 146.3448,336.9744 163.0957,324.0603 180.442,311.9993 198.2467,300.8739 216.373,290.7669 234.6841,281.7611 252.7568,274.051 271.3351,267.3077 290.1049,261.6623 308.966,257.1585 320.3258,255.0138 331.5177,253.3244 342.5213,252.0823 353.6717,251.2599 364.5759,250.8972 375.2113,250.9852 385.5549,251.5148 396.1952,252.5364 406.592,253.9939 417.0457,255.9353 427.1334,258.2826 437.2217,261.1192 446.9154,264.3308 456.5512,268.0234 466.0836,272.1988 475.1607,276.6922 486.65,283.167 498.1309,290.5621 508.9767,298.4163 519.5927,307.0257 529.608,316.0963 539.2414,325.8103 548.4061,336.077 557.5289,347.3618 565.9049,358.6815 573.7909,370.3102 581.3166,382.4079 588.8246,395.5134 600.5386,417.7778 622.9496,465.0889 631.0622,480.1806 635.5236,487.2345 639.5938,492.6094 644.5026,497.9215 649.41,502.1564 653.8189,505.1253 658.7137,507.7917 662.5769,509.3732 667.015,510.676 673.8284,512.1318 678.9714,512.8174 685.9454,513.2054 693.5293,513.1731 710.763,511.532 729.3442,508.1348 749.9409,503.0649 761.5827,499.5751 767.3125,497.375 715.1675,512.0854 692.9729,517.5961 678.248,520.845 663.9647,523.579 637.4462,527.4184 649.1316,526.7178 672.2479,523.7578 688.0478,521.0294 706.7257,516.908 725.6287,512.1466 743.6894,506.8743 764.2596,500.0772 770.7371,497.5596 772.4082,496.5391 765.965,497.8841 718.7146,511.5191 689.769,518.8123 673.4529,522.2876 655.5155,525.3891 632.1852,528.338 640.668,528.1152 664.8684,525.6104 681.9033,522.8059 700.2465,519.1136 722.5629,513.6016 744.0818,507.4226 764.8448,500.5862 773.732,497.1738 778.0284,495.0706 775.6094,495.4062 767.1075,497.7601 734.6453,507.3527 716.3613,512.4471 700.5058,516.5484 681.5813,520.9698 669.3285,523.4541 652.9946,526.2155 640.7633,527.9261 626.3102,529.4074 631.5273,529.4858 641.2867,528.9826 658.8101,527.3025 675.4596,524.8013 700.9974,519.6551 728.0171,512.8035 751.4048,505.859 773.5077,498.2325 780.7466,495.2461 784.3563,493.3606 782.4357,493.5516 776.4352,495.1624 717.2513,512.6589 684.0254,520.9916 667.3263,524.4292 654.265,526.6374 638.7227,528.8056 619.652,530.562 628.3711,530.7457 639.2315,530.32 655.5562,528.8405 674.4178,526.0551 699.0549,521.0873 724.1106,514.9279 749.2359,507.4537 779.4355,497.0095 787.9626,493.5123 791.6465,491.4043 789.0341,491.7066 781.1925,493.8682 725.5656,510.7704 702.3302,517.0898 684.2314,521.4734 665.197,525.455 647.9613,528.4195 630.2251,530.5813 611.9398,531.9074 612.125,532.0 620.1334,532.3696 634.75,532.125 650.375,530.875 674.8283,527.307 698.5722,522.5774 725.2556,515.8143 753.9497,507.2033 784.0505,496.4518 796.0966,491.4519 799.341,489.8453 800.2509,489.0566 797.802,489.224 791.692,490.8864 750.5923,503.8676 722.1972,512.337 699.0096,518.6116 678.9247,523.4478 659.3184,527.4594 637.5109,530.8042 622.5062,532.2842 602.8472,533.3519 608.8044,534.2661 620.9688,534.5938 631.5921,534.3397 645.0976,533.3808 655.6733,532.1087 671.1463,529.749 697.2521,524.5125 712.1472,520.9225 725.7732,517.2346 747.75,510.6341 761.5088,506.1688 779.0939,499.9756 793.9307,494.2408 805.1149,489.4 809.0947,487.3382 810.5646,486.2205 809.5857,486.1339 806.7764,486.7165 797.0253,489.5331 746.8345,505.7422 725.0708,512.3589 698.5666,519.6922 678.0023,524.6675 655.5016,529.3022 632.7538,532.6745 616.7326,534.1265 608.3021,534.5915 593.4779,534.8404 591.7168,535.1035 592.0319,535.3335 596.7828,536.3782 610.1496,537.618 619.9755,537.7783 632.6391,537.279 650.2152,535.5651 661.1592,534.0914 676.556,531.408 692.3164,528.0725 710.1157,523.726 731.721,517.7643 745.5918,513.5712 761.8691,508.1087 782.5448,500.6674 803.739,492.4048 817.9895,485.9517 822.4457,483.5207 823.4088,482.5457 822.5457,482.4493 819.6732,482.9947 810.7833,485.535 753.9893,504.3748 719.8572,514.9793 696.914,521.4091 673.9953,527.037 650.5993,531.7555 628.0861,535.1229 605.8676,536.9737 591.4735,537.1239 579.2344,536.8438 577.6582,537.1719 579.1146,538.1163 586.0838,540.0964 596.6507,541.8255 608.1221,542.6042 623.8409,542.3293 639.5,541.125 651.6562,539.5781 669.5571,536.568 686.4145,532.9708 708.5292,527.485 732.7291,520.6447 751.8385,514.5958 775.6124,506.4084 797.5893,498.0346 820.0661,488.6187 834.8715,481.5215 839.2804,478.8635 840.4743,477.5634 839.3542,477.412 836.1343,478.0833 824.1394,481.6785 759.3911,503.9172 720.4321,516.4508 691.9433,524.5396 663.0545,531.6166 649.3092,534.4273 635.9662,536.7168 623.0018,538.4997 610.7581,539.7072 590.5122,540.5824 575.6179,540.0992 561.6674,539.1138 559.74,539.1988 558.6562,539.7344 559.0237,540.9352 561.375,542.75 568.365,546.0111 578.1305,548.8074 590.0045,550.6636 604.0444,551.3865 615.0551,551.0279 632.7446,549.4716 651.0011,546.8316 669.9804,543.1384 691.1716,538.1345 715.1279,531.5723 740.0548,523.8928 765.7593,515.1483 789.8837,506.1323 818.0281,494.6636 842.5143,483.626 852.5302,478.728 859.476,474.957 864.4559,471.7266 865.5922,470.702 865.8748,470.0259 864.5464,469.7563 861.0958,470.3901 848.9891,474.0918 763.416,504.852 724.2247,518.0676 705.5149,523.7886 687.0051,529.0404 668.3079,533.9228 653.2072,537.436 636.5582,540.7442 620.3671,543.3486 606.346,545.0215 592.6101,545.9683 577.9179,546.2474 566.7056,545.8302 552.8335,544.5412 534.7744,542.0012 531.1569,542.1564 529.2331,542.9146 528.354,544.0742 528.0122,545.668 528.1367,547.5067 528.875,550.25 531.6551,556.0863 534.8565,560.4144 538.287,563.9311 541.922,566.802 547.3629,569.8827 552.6365,571.8998 557.7149,573.3286 563.3889,574.3336 570.1765,575.0507 577.4244,575.2924 592.825,574.6719 604.4791,573.5149 613.118,572.3232 635.856,568.0434 660.6605,562.1938 684.4775,555.6343 714.3275,546.3947 743.3442,536.457 778.1153,523.4781 807.1913,511.679 838.4822,498.0765 867.8828,484.1948 894.702,470.3686 904.4837,464.8101 912.3962,459.8589 917.3801,456.1863 919.4272,453.8286 919.2067,453.0677 918.127,452.7988 913.4243,453.4335 905.2327,455.7289 893.5204,459.7545 866.9361,469.84 771.4001,507.4365 739.4289,519.3051 712.3543,528.7135 686.5936,536.9278 661.7936,544.0657 638.9677,549.8339 618.4195,554.1656 597.5557,557.5689 578.0318,559.7029 560.9969,560.5191 544.5882,560.0853 530.4422,558.6635 517.2613,556.3942 500.5061,552.1073 480.1012,545.5588 475.2251,544.5975 470.6687,544.4528 466.2485,545.2595 460.2884,547.6482 431.9968,564.2491 420.7566,569.7974 410.4199,574.1087 397.8641,578.5281 384.0814,582.5114 370.3791,585.8064 356.1218,588.4818 339.8814,590.6861 323.4907,592.0431 307.5465,592.5785 291.7126,592.2356 275.625,591.0 262.3312,589.1784 248.663,586.3494 235.4265,582.5988 225.9982,579.2152 216.9072,575.1704 208.5626,570.6524 200.6737,565.518 193.2971,559.7583 187.543,554.286 182.1758,547.9689 177.7452,541.4096 174.0514,534.3613 171.2728,527.2189 169.2561,519.554 168.1664,511.8508 167.918,503.4354 168.551,495.106 170.0531,486.5679 172.4422,477.8848 175.7554,469.0708 180.0797,460.0057 185.3087,450.9551 191.389,442.0179 198.0088,433.5997 205.3231,425.4675 213.4143,417.5707 221.9594,410.1905 231.0231,403.2392 240.5213,396.7838 250.37,390.8916 260.4854,385.6299 270.8457,381.0168 281.8433,376.8813 292.9038,373.4652 303.9333,370.7804 313.3945,369.0542 322.7008,367.8936 331.9886,367.2836 341.5764,367.2044 350.9006,367.6805 359.9322,368.6895 368.9981,370.283 377.6828,372.4053 386.4467,375.1849 395.0335,378.5082 403.4628,382.4066 411.3447,386.702 418.6738,391.3509 425.8396,396.6134 432.857,402.5 439.2586,408.5896 445.7832,415.6385 451.8809,423.1636 457.7469,431.4176 462.8037,439.5713 467.2615,447.9063 471.4489,457.1283 474.9389,466.1835 477.7616,475.1609 480.3178,485.571 482.0031,494.7844 483.106,505.0148 483.451,513.9282 482.988,523.1593 481.969,530.8751 480.0279,539.0592 477.4606,546.4741 475.0938,551.6875 472.289,556.6089 468.605,561.8718 464.8669,566.3132 460.5805,570.6009 455.9586,574.5498 450.4443,578.6451 444.56,582.436 437.9427,586.1633 431.8792,589.154 415.2058,595.9686 396.1688,601.9311 378.0571,606.3862 355.0079,610.6404 332.7205,613.5033 310.3445,615.1543 288.5435,615.4559 266.4306,614.46 246.3456,612.2244 227.0734,608.6441 217.6403,606.3023 208.8682,603.7136 197.0193,599.4631 186.2384,594.6818 175.9274,589.0748 166.8188,583.0265 158.6021,576.3528 151.4071,569.1596 145.2578,561.534 139.9718,553.2268 135.7941,544.6002 132.6549,535.5527 130.6007,526.0601 129.641,516.4161 129.736,505.9753 130.9091,495.5495 133.1731,484.8367 136.4588,474.1766 140.9983,463.024 146.6825,451.7843 153.4497,440.5664 161.2381,429.479 169.9862,418.6308 179.3445,408.4248 189.5777,398.5657 200.4986,389.2348 212.0314,380.4691 224.3894,372.1351 237.1589,364.5479 249.8841,357.947 262.739,352.2138 276.249,347.142 289.7744,342.9803 303.2199,339.7195 313.5614,337.8002 324.1127,336.3764 334.4526,335.5217 344.6342,335.23 354.9054,335.4937 365.2578,336.3364 375.2533,337.7236 384.8714,339.62 394.4374,342.0904 403.5505,345.0321 412.1576,348.3915 421.0566,352.472 429.7899,357.1091 437.9826,362.0903 446.2313,367.7974 453.866,373.7821 461.0281,380.0972 468.2812,387.1913 474.8804,394.3454 481.0894,401.8228 486.8753,409.5988 492.5851,418.1731 498.412,427.7159 503.4896,436.9128 510.2267,451.2236 517.0764,468.4233 523.5393,488.0075 534.7404,526.4877 538.0601,535.3503 542.5365,544.1118 545.1908,547.8972 548.4128,551.6593 551.494,554.468 555.1746,557.2047 558.3959,559.0402 562.7078,560.891 566.9456,562.397 571.5952,563.546 583.2075,565.0914 596.9856,565.3529 611.6435,564.3653 628.7161,562.1093 647.7157,558.5973 667.8718,553.9703 692.5029,547.4695 715.7975,540.4775 744.0649,531.1189 771.8002,521.0904 799.0079,510.4251 826.9682,498.6092 853.93,486.3543 877.4673,474.5717 887.7889,468.9249 894.7015,464.7686 899.3594,461.4062 900.9668,459.4453 900.6704,458.8972 899.75,458.75 895.2572,459.4875 887.5134,461.7 877.1191,465.2118 770.5661,505.742 741.7512,516.1924 716.3185,524.8947 694.2826,531.8861 673.2005,537.9984 653.3066,543.1721 634.3995,547.4501 615.0452,551.0263 596.3917,553.5565 578.9062,554.9713 562.5261,555.2848 549.3616,554.6208 536.0951,553.0867 523.3245,550.7288 500.125,545.0 493.9881,544.2287 489.6693,544.7771 486.1969,546.1233 482.6875,548.4062 467.0653,562.9256 458.2053,570.0364 448.4815,576.4444 437.8632,582.3041 423.1519,588.8811 407.1023,594.6071 390.1963,599.4518 370.7901,603.8947 348.5158,607.5065 325.9771,609.9207 301.4222,611.0881 280.4153,610.8226 259.4378,609.106 248.8828,607.6946 239.3082,606.045 230.0885,604.0629 220.9083,601.6724 212.1809,598.9746 203.9391,596.0023 193.7626,591.6699 184.2954,586.729 175.6572,581.2391 167.5948,575.0318 160.2012,568.102 153.8247,560.7707 148.6601,553.2842 144.5186,545.5067 141.1123,536.8294 138.7676,527.9837 137.3823,518.6692 137.0066,509.0923 137.6306,499.6961 139.3156,489.646 142.0459,479.3492 145.6632,469.2465 150.4146,458.6921 156.1771,448.1221 162.7378,437.9103 170.3381,427.6894 178.803,417.7146 188.0544,408.0722 198.0143,398.8487 208.6047,390.1303 219.4054,382.2383 230.8494,374.839 242.6561,368.1092 255.0741,361.9222 267.6632,356.5183 280.3154,351.9352 292.5744,348.3024 305.1571,345.406 315.4754,343.6266 326.0436,342.3548 336.417,341.6549 346.9199,341.517 356.7552,341.9352 366.602,342.9239 376.2699,344.4936 385.7598,346.5965 395.2132,349.2747 404.2177,352.4125 413.0974,356.1217 421.7854,360.409 430.1636,365.2409 438.6379,370.8234 446.497,376.6684 454.0282,382.9783 460.9155,389.4754 467.1698,396.1103 474.2021,404.46 480.5859,412.8813 485.8495,420.6035 490.6828,428.5191 495.9843,438.2687 500.7829,448.0396 506.6793,462.0502 512.8189,479.8213 518.6829,501.3321 527.3021,538.7393 530.8328,549.2008 534.0632,555.7968 536.6719,559.8125 539.8779,563.6683 542.4257,565.8855 546.25,568.5 549.7303,570.3801 554.0923,572.1052 557.916,573.2773 562.7575,574.301 568.5626,575.1652 573.9364,575.5644 588.8451,575.3983 606.575,573.6243 625.1738,570.5176 646.3116,566.1219 670.9638,559.8638 696.2854,552.5228 722.7298,544.0003 752.534,533.4513 783.9028,521.467 814.2061,508.9735 844.1322,495.768 872.3438,482.3088 896.8392,469.514 906.7361,463.848 914.0234,459.2662 918.8153,455.6955 920.7287,453.3759 920.5534,452.6727 919.523,452.3703 914.8411,453.0047 906.5726,455.3531 894.9919,459.3452 866.8984,470.0073 771.6959,507.4892 738.8605,519.6658 710.4819,529.5339 684.3256,537.8765 659.5756,544.9801 636.8212,550.6764 615.9637,555.0004 595.8672,558.1903 576.6034,560.186 558.922,560.908 542.2092,560.3655 528.778,558.9441 515.7486,556.6601 502.8102,553.3293 484.7863,547.4135 478.076,545.496 473.5529,544.6 469.0092,544.5244 464.1243,545.3845 459.0438,547.4141 453.5813,550.3291 439.7868,558.5878 428.3553,564.8636 418.8724,569.4023 408.0381,573.761 394.6583,578.3842 381.8796,582.0047 367.8215,585.1896 352.654,587.819 336.812,589.8411 320.5057,591.0293 303.8138,591.4181 288.5361,590.887 273.1738,589.4426 259.2667,587.2824 245.5963,584.1384 232.8263,580.1758 223.4992,576.5588 215.1192,572.5838 207.1649,568.0011 199.7063,562.8038 193.0884,557.2397 187.3155,551.3614 182.449,545.1672 178.2862,538.4336 174.888,531.2075 172.4183,523.9106 170.75,516.25 169.9565,508.342 170.0455,500.0963 170.9636,491.9537 172.8017,483.2378 175.407,474.7662 178.9189,466.0644 183.1719,457.6293 188.4566,448.9146 194.5673,440.3223 201.4392,431.9424 208.726,424.1471 216.5586,416.7523 225.2346,409.5108 234.4102,402.726 244.0005,396.451 253.9208,390.7386 264.0863,385.6419 274.4874,381.1841 284.9328,377.4329 295.4359,374.343 306.288,371.8476 315.5537,370.278 325.0365,369.2224 333.9472,368.7675 343.5567,368.8655 353.0807,369.535 362.2943,370.75 371.1578,372.4817 379.9752,374.8036 388.3871,377.6454 397.0259,381.2159 405.1491,385.1951 412.7458,389.5451 419.8053,394.228 426.3167,399.2059 433.248,405.27 439.9477,411.8998 446.4424,419.2169 452.1816,426.61 457.9949,435.1818 463.102,443.8433 467.3469,452.3097 471.0552,461.2007 474.4018,470.6849 476.9597,479.6998 479.0812,489.4149 480.4183,498.2265 481.106,507.8761 481.0952,516.5465 480.183,526.082 478.8568,533.4458 476.5929,541.1946 473.7036,548.1024 470.6873,553.7856 467.8161,558.1925 464.0304,562.8918 459.5122,567.5799 454.484,572.1296 449.4173,576.0257 443.5662,579.8822 436.8702,583.6788 428.692,587.7722 422.258,590.6104 404.1968,597.0672 393.6736,600.1034 380.862,603.3295 361.9708,607.1933 338.5279,610.5688 316.6269,612.4667 293.316,613.2081 272.0938,612.4771 250.2939,610.235 231.7435,606.9575 222.5351,604.7327 213.3943,602.0838 204.7112,599.1204 196.5,595.875"/>
  </g>
</svg>
