<?xml version="1.0" encoding="utf-8" ?>
<svg xmlns="http://www.w3.org/2000/svg" xmlns:cc="http://creativecommons.org/ns" xmlns:dc="http://purl.org/dc/elements/1.1/" xmlns:ev="http://www.w3.org/2001/xml-events" xmlns:inkscape="http://www.inkscape.org/namespaces/inkscape" xmlns:rdf="http://www.w3.org/1999/02/22-rdf-syntax-ns" xmlns:sodipodi="http://sodipodi.sourceforge.net/DTD/sodipodi-0.dtd" xmlns:xlink="http://www.w3.org/1999/xlink" baseProfile="tiny" height="27.09333333cm" version="1.2" viewBox="0 0 1024.0 1024.0" width="27.09333333cm">
  <metadata>
    <rdf:RDF>
      <cc:Work>
        <dc:format>image/svg+xml</dc:format>
        <dc:source>vpype read './original_svgs/Strange Attractors #444.svg' linemerge linesimplify write './Strange Attractors #444.svg'
</dc:source>
        <dc:date>2024-08-05T01:35:59.846212</dc:date>
      </cc:Work>
    </rdf:RDF>
  </metadata>
  <defs/>
  <g fill="none" id="layer1" inkscape:groupmode="layer" inkscape:label="1" stroke="black" stroke-width="0.7mm" style="display:inline">
    <polyline points="572.5,802.5 612.25,771.25 642.375,749.25 666.125,734.125 686.25,723.875 704.625,716.75 722.5,711.25 741.125,706.375 761.5,700.625 784.25,693.0 809.625,681.875 837.25,665.625 865.375,642.5 890.375,610.75 906.625,569.75 907.5,521.125 888.875,469.125 852.125,419.375 804.25,376.5 754.75,342.25 676.5,295.375 653.0,279.0 639.5,265.375 634.75,253.875 637.25,244.75"/>
    <polyline points="645.125,238.125 656.75,235.0 670.5,236.0 684.5,241.75 697.25,252.375 707.5,267.5 714.5,286.375 718.125,307.875 718.625,330.5 716.375,353.25 712.25,375.0 706.75,395.125 700.375,413.125 693.875,429.0 687.25,442.625 680.75,454.25 674.5,464.0 668.75,472.125 658.0,484.5 648.375,492.75 643.875,495.75 639.75,498.25 631.875,501.875"/>
    <polyline points="628.125,503.375 621.125,505.625 597.5,511.75 588.375,514.875 582.375,517.5 578.875,519.375 571.625,524.375 570.5,525.5"/>
    <polyline points="569.375,526.5 565.5,531.0 563.25,534.5 560.75,540.625 560.125,543.25 559.5,548.625 559.5,553.0 560.125,559.125"/>
    <polyline points="560.375,560.625 562.0,569.25 567.25,590.0 569.375,600.125 570.25,605.75 570.75,611.75 570.875,618.25"/>
    <polyline points="570.625,621.625 569.625,628.875 567.375,636.75 565.625,640.875 563.25,645.25 560.25,649.75 556.5,654.375 551.625,659.125 545.75,664.125 538.375,669.0 529.375,674.0 518.25,678.875 504.875,683.375 489.0,687.375 470.125,690.5 448.25,692.375 423.5,692.375 396.625,690.125 368.5,685.0 340.875,676.875 315.625,665.875 294.75,652.5 279.625,637.875 270.875,623.125"/>
    <polyline points="268.0,609.25 269.875,597.0 275.25,586.875 282.625,578.875 291.0,572.75 299.625,568.25 308.0,565.0 315.75,562.875 322.75,561.375 334.75,560.0 358.625,559.5 367.25,558.75 374.75,557.0 381.875,554.375"/>
    <polyline points="384.0,553.25 388.375,550.875 394.375,546.75 399.875,542.125 406.125,535.625 408.875,532.25 413.25,525.375 416.25,518.625 417.625,513.5"/>
    <polyline points="417.875,511.875 418.25,507.0 418.0,503.75 417.375,500.625 415.75,496.0 412.25,490.375 408.375,486.5 403.375,483.25 399.375,481.375 392.125,479.625"/>
    <polyline points="389.375,479.375 383.25,479.5 379.75,479.875 372.25,481.625 363.75,484.875 354.0,489.875 343.125,497.375 331.25,507.75 325.0,514.25 318.625,521.5 312.375,529.75 306.125,538.875 300.125,548.75 294.75,559.375 290.125,570.625 286.375,582.125 284.0,593.625 283.125,604.75 283.75,615.125 286.25,624.375"/>
    <polyline points="290.5,632.125 296.25,638.125 303.625,642.375 312.0,644.75 321.25,645.375 331.0,644.5 341.0,642.25 350.875,639.0 360.625,635.0 369.875,630.5 387.125,620.625 408.75,605.875 439.75,582.75 457.5,570.5"/>
    <polyline points="460.5,568.625 468.5,564.0 475.375,560.625 479.5,558.875 485.125,557.125 491.625,555.875 497.375,555.75 501.125,556.25 504.625,557.25"/>
    <polyline points="505.625,557.75 507.75,558.75 511.625,561.375 515.125,564.75 516.625,566.75 518.875,570.125 521.375,575.375 522.875,579.75 524.0,584.75"/>
    <polyline points="524.25,586.5 524.625,592.125 524.125,598.375 523.125,602.75 521.5,607.5 519.0,612.375 517.375,614.875 513.25,620.0 510.625,622.625 507.625,625.25 500.25,630.25 490.75,635.125 478.875,639.25 472.0,641.0 464.5,642.375"/>
    <polyline points="456.375,643.375 447.75,643.875 438.75,643.875 429.375,643.25 419.875,642.0 410.5,640.0 401.5,637.375 393.25,634.125 385.75,630.25 379.25,626.0 374.125,621.25 370.375,616.375 367.875,611.25 366.75,606.25 366.875,601.375 368.125,596.625 370.25,592.25 373.125,588.0 376.5,584.125 380.375,580.5 388.875,573.875 393.375,570.875 406.625,563.0"/>
    <polyline points="411.0,560.5 426.625,551.75 439.625,543.75 447.875,538.25 454.875,533.0 460.75,528.125 468.5,520.625 472.125,516.375"/>
    <polyline points="473.25,515.0 477.5,508.5 479.375,504.75 481.5,498.5 482.25,494.875 482.75,489.875 482.625,483.375"/>
    <polyline points="482.5,482.0 481.125,471.875 476.75,450.5 474.625,436.75"/>
    <polyline points="474.375,434.125 473.75,419.875 474.0,413.375 475.375,402.5 477.125,394.5 478.375,390.25 481.625,381.125 483.75,376.25 489.125,365.75 496.5,354.5 501.125,348.625 506.25,342.625 512.125,336.5 518.75,330.25 526.125,324.25"/>
    <polyline points="534.25,318.375 543.125,312.875 552.625,307.875 562.75,303.75 573.375,300.625 584.125,298.75 594.875,298.25 605.25,299.625 614.875,302.75 623.625,307.875 631.125,314.625 637.25,323.125 641.75,333.125 644.875,344.0 646.375,355.75 646.625,367.75 645.625,379.75 643.75,391.5 641.0,402.875 637.875,413.5 634.25,423.5 630.375,432.75 626.375,441.125 622.25,448.875 614.25,462.125"/>
    <polyline points="610.5,467.75 599.75,481.625 590.375,492.0 580.0,502.125 568.125,512.875 560.0,521.375 557.125,525.125"/>
    <polyline points="556.25,526.375 552.375,533.625 551.25,537.25 550.5,541.0 550.125,544.75 550.125,548.75 550.375,552.875 551.25,558.875"/>
    <polyline points="551.625,560.375 557.0,584.625 558.625,594.0 559.375,601.875 559.375,607.625 559.0,613.75 558.5,617.0"/>
    <polyline points="557.875,620.375 555.625,627.375 552.0,635.0 549.375,639.0 546.125,643.125 542.25,647.25 537.375,651.5 531.5,655.875 524.375,660.25 515.875,664.375 505.875,668.5 494.0,672.25 480.125,675.375 464.125,677.75 446.125,679.125 426.125,679.0 404.75,677.25 382.75,673.375 361.0,667.5 340.75,659.375 323.375,649.5 309.875,638.5 300.625,627.0 295.875,615.5"/>
    <polyline points="295.0,604.875 297.375,595.5 302.125,587.375 308.375,580.5 315.5,575.0 322.875,570.5 330.25,566.75 337.25,563.875 343.875,561.375 374.125,551.75 384.25,547.625 392.375,543.375 396.75,540.375 402.375,535.625"/>
    <polyline points="404.0,534.0 408.125,529.25 411.25,524.375 412.875,521.0 415.0,514.625 415.625,509.875 415.125,503.75 413.75,499.25 411.5,495.125"/>
    <polyline points="410.5,493.875 407.0,490.125 404.0,488.0 400.5,486.25 396.375,484.75 391.75,483.875 386.375,483.625 383.375,483.75 376.75,484.875 369.25,487.125 365.125,488.875 356.25,493.625 346.375,500.375 341.0,504.75 335.625,509.75"/>
    <polyline points="330.0,515.375 324.25,521.875 318.5,529.125 312.875,537.125 307.625,545.875 302.625,555.25 298.375,565.0 294.75,575.125 292.25,585.375 291.0,595.25 291.0,604.75 292.5,613.375 295.5,620.875 300.0,627.0 305.75,631.75 312.625,634.875 320.5,636.375 328.875,636.625 337.75,635.5 346.75,633.25 355.75,630.25 364.5,626.5 373.0,622.375 381.125,618.0 396.0,608.75"/>
    <polyline points="402.75,604.25 420.375,591.625 439.0,577.75 456.625,565.25 462.375,561.5 472.375,555.75 480.625,551.75 486.0,549.625"/>
    <polyline points="487.75,549.125 495.125,547.375 498.875,547.0 503.5,547.25 505.625,547.625 510.375,549.375 512.25,550.375 515.5,552.875"/>
    <polyline points="516.375,553.5 520.875,558.625 523.625,562.75 525.5,566.375 529.0,575.0 530.375,579.875 531.375,585.375"/>
    <polyline points="531.625,587.375 531.875,591.375 531.625,598.0 530.875,602.75 528.5,610.5 525.75,615.875 521.875,621.625 519.375,624.5 513.0,630.375 504.375,636.125 493.125,641.625 478.875,646.25 470.5,648.125 461.25,649.5"/>
    <polyline points="451.25,650.375 440.625,650.625 429.5,650.25 418.0,648.875 406.5,646.75 395.5,643.75 385.0,639.875 375.75,635.25 367.75,630.0 361.5,624.25 356.875,618.25 354.125,612.25 353.0,606.25 353.5,600.5 355.25,595.125 358.0,590.125 361.75,585.5 365.875,581.25 375.5,573.75 390.375,564.625 404.5,556.875"/>
    <polyline points="408.75,554.625 424.0,545.75 433.375,539.5 438.75,535.5 445.75,529.625 453.125,522.25 456.125,518.75 459.875,513.5 463.625,506.75"/>
    <polyline points="464.375,505.125 465.625,501.875 467.375,495.25 468.375,486.875 468.125,478.25 466.875,468.875 465.25,460.75"/>
    <polyline points="464.75,458.5 460.625,439.125 459.125,430.375 458.0,420.75 457.5,413.625 457.625,401.625 458.625,392.625 460.5,382.625 463.875,371.375"/>
    <polyline points="466.125,365.125 469.0,358.625 472.5,351.75 476.75,344.375 481.875,336.625 488.0,328.375 495.125,319.75 503.625,310.875 513.375,301.75 524.625,292.5 537.375,283.625 551.5,275.25 567.125,267.875 583.75,262.125 601.0,258.5 618.25,257.75 634.75,260.375 649.875,266.625 662.75,276.5 672.875,289.625 680.0,305.625 684.25,323.5 685.75,342.375 684.875,361.375 682.25,379.875 678.375,397.375"/>
    <polyline points="673.5,413.375 668.25,427.875 662.875,440.625 657.375,451.875 652.125,461.75 647.0,470.25 637.5,483.875 629.25,493.875 621.875,501.25 615.375,506.875 606.875,513.125 588.625,524.875"/>
    <polyline points="587.125,526.0 584.25,528.125 580.625,531.5 576.875,536.0 574.75,539.625 573.25,543.25 572.0,548.5 571.625,552.75 571.75,557.125"/>
    <polyline points="572.0,558.625 572.625,563.5 574.75,572.125 577.25,579.875 587.0,605.625 588.875,611.375"/>
    <polyline points="589.875,614.25 591.75,620.625 594.0,630.875 594.5,634.625 594.875,642.5 594.25,651.25 593.25,655.875 591.625,660.75 589.375,665.875 586.25,671.375 582.0,677.0 576.25,683.0 568.625,689.25 558.875,695.625 546.25,702.125 530.0,708.5 509.5,714.375 484.0,719.125 452.75,722.125 415.875,722.25 374.25,718.25"/>
    <polyline points="330.125,708.875 287.5,693.75 251.125,673.375 225.125,650.0 211.25,626.375 208.375,605.25 213.625,588.125 223.5,575.75 235.125,567.875 246.625,563.625 257.0,562.375 265.625,563.5 272.75,566.25 278.5,570.25 283.25,575.0 287.125,580.375 297.875,597.0 301.875,602.0 306.25,606.25 311.25,609.875 316.625,612.625 322.625,614.5 328.875,615.5 335.5,615.625"/>
    <polyline points="342.375,615.0 349.375,613.625 356.5,611.625 363.375,609.25 370.25,606.375 377.0,603.125 389.625,596.25 401.125,589.0 416.375,578.5 433.25,566.0 460.25,545.0"/>
    <polyline points="462.5,543.25 486.25,524.75 494.5,517.5"/>
    <polyline points="495.125,516.875 498.25,513.625 500.625,510.375 501.875,507.75 502.5,505.25"/>
    <polyline points="502.625,504.875 502.75,501.0 502.5,499.25 500.875,493.0"/>
    <line x1="500.625" x2="493.25" y1="492.375" y2="471.75"/>
    <polyline points="492.875,470.625 490.375,463.125 486.75,448.875 485.125,439.25 484.375,427.75"/>
    <polyline points="484.375,425.125 485.0,414.0 486.0,407.875 487.5,401.125 489.75,394.0 492.875,386.25 497.0,378.125 502.5,369.375 509.375,360.375 513.5,355.75 518.0,351.125 523.0,346.625 528.5,342.125 534.5,337.875 540.875,333.875 547.625,330.375"/>
    <polyline points="554.75,327.25 562.125,324.875 569.75,323.25 577.25,322.5 584.75,322.625 591.875,324.0 598.5,326.5 604.625,330.0 610.0,334.75 614.5,340.5 618.125,347.125 620.75,354.5 622.375,362.5 623.125,370.875 623.125,379.5 622.375,388.125 621.0,396.625 619.125,404.875 616.75,412.875 611.25,427.625 605.0,440.5 601.75,446.375 595.25,456.625"/>
    <polyline points="592.125,461.25 583.125,472.875 570.0,487.0 550.125,505.5 543.375,512.25"/>
    <polyline points="542.5,513.25 540.0,516.125 537.5,519.625 535.625,523.0 533.875,528.0 533.25,534.75"/>
    <polyline points="533.25,535.625 533.875,541.25 535.25,547.5 540.125,564.375"/>
    <polyline points="540.625,565.875 543.375,576.125 545.25,586.125 546.0,593.0 546.125,600.375 545.625,605.875 544.5,611.625 542.5,617.75 539.375,624.25"/>
    <polyline points="537.25,627.625 534.75,631.125 527.875,638.25 523.5,641.875 518.25,645.5 512.125,649.0 505.0,652.5 496.75,655.75 487.125,658.75 476.25,661.25 464.0,663.25 450.5,664.5 435.75,664.75 420.0,663.875 403.75,661.75 387.5,658.25 371.875,653.25 357.75,647.0 345.625,639.625 336.0,631.5 329.25,623.0 325.375,614.5 324.25,606.375 325.375,598.75 328.375,591.875"/>
    <polyline points="332.75,585.875 338.0,580.5 343.875,575.875 350.0,571.75 362.25,565.0 393.0,550.375 400.875,546.25 407.625,542.125 418.625,534.0 424.875,527.875 429.875,521.875"/>
    <polyline points="431.25,520.0 434.625,514.125 437.125,508.25 439.0,500.5 439.5,494.75 439.125,488.875 437.75,481.0 436.5,477.0 434.0,470.875"/>
    <polyline points="433.0,468.875 429.625,462.625 425.375,456.25 422.0,451.875 413.875,443.375 409.0,439.125 403.5,435.25 397.125,431.625 393.625,430.0 385.75,427.25 381.25,426.25 376.375,425.625 371.125,425.25 365.25,425.5"/>
    <polyline points="358.875,426.375 351.75,428.0 343.875,430.5 335.125,434.25 325.375,439.375 314.375,446.25 302.125,455.375 288.625,467.0 273.625,481.875 257.5,500.375 240.375,523.0 223.125,550.0 206.75,581.125 193.0,615.625 183.875,651.75 181.25,686.625 186.875,717.125 200.75,740.375 221.75,754.5 247.375,759.5 274.75,756.75 301.625,748.5 325.875,736.875 346.875,724.0 364.125,710.875 377.75,698.625"/>
    <polyline points="388.25,687.5 395.875,677.75 401.125,669.125 404.375,661.625 406.125,655.0 406.75,649.25 406.375,644.0 405.5,639.25 399.875,622.75 398.0,615.375 397.625,608.25 399.0,601.5 402.0,595.25 406.375,589.5 411.625,584.25 417.5,579.5"/>
    <polyline points="420.625,577.25 430.0,571.125 448.25,561.25 468.5,551.625 483.875,545.625"/>
    <polyline points="485.5,545.125 488.5,544.125 495.375,542.625 499.0,542.25 503.25,542.25 506.125,542.625 508.875,543.375 513.0,545.25"/>
    <polyline points="513.75,545.75 518.125,549.375 520.875,552.375 522.875,555.125 526.625,561.5 530.125,569.375"/>
    <polyline points="530.625,570.875 533.125,579.0 534.5,586.625 534.875,595.125 534.125,602.25 532.875,607.5 529.625,615.75 525.875,621.625 520.75,627.625"/>
    <polyline points="517.5,630.625 513.625,633.75 509.125,636.75 504.0,639.75 498.125,642.625 491.375,645.375 483.875,647.875 475.375,650.0 465.875,651.75 455.5,652.875 444.375,653.5 432.625,653.25 420.375,652.25 407.875,650.25 395.75,647.25 384.25,643.375 373.75,638.5 364.75,633.0 357.5,626.875 352.125,620.5 348.75,614.0 347.25,607.625 347.5,601.375 349.25,595.625 352.25,590.25 356.0,585.375"/>
    <polyline points="360.5,581.0 365.375,576.875 375.75,569.875 386.125,563.875 413.125,549.25 423.75,542.75 432.5,536.5 437.5,532.375 441.875,528.5 449.0,520.875"/>
    <polyline points="450.5,519.0 454.375,513.5 457.375,508.0 460.625,499.25 462.0,492.125 462.375,486.75 462.0,477.5 461.375,473.5"/>
    <polyline points="461.125,471.5 459.0,461.0 451.875,432.75 450.0,423.125 448.5,412.25 447.75,399.75"/>
    <polyline points="447.875,395.25 448.75,385.25 449.5,379.75 450.75,374.0 452.25,367.75 454.375,361.125 457.125,354.0 460.625,346.375 464.875,338.25 470.125,329.5 476.625,320.0 484.5,310.0 494.0,299.375 505.25,288.25 518.5,277.0 533.75,265.625 551.25,254.875 570.75,245.25 591.75,237.625 613.75,233.125 635.875,232.625 656.625,236.875 675.125,246.375 690.0,261.0 700.875,280.0"/>
    <polyline points="707.375,302.125 710.0,326.125 709.25,350.375 706.0,373.75 701.125,395.5 695.25,415.125 688.875,432.375 682.5,447.25 676.25,460.0 670.375,470.625 664.875,479.5 659.75,486.875 655.0,493.0 650.625,498.0 646.5,502.0 642.625,505.25 635.625,510.125 632.375,511.875 626.375,514.5 613.125,518.25"/>
    <polyline points="610.75,518.75 604.0,520.375 596.0,522.75 587.75,526.5 583.75,529.125 580.25,532.0 576.625,536.25 574.625,539.625"/>
    <polyline points="574.0,540.875 572.625,544.5 571.625,549.875 571.5,555.5 572.75,565.0 575.125,573.875 577.0,579.625"/>
    <polyline points="577.75,581.75 588.625,611.125 591.375,620.375 593.5,630.625 594.375,638.25 594.25,646.5 592.625,655.625 591.125,660.5"/>
    <polyline points="588.75,665.625 585.5,671.125 581.25,676.75 575.375,682.75 567.875,688.875 558.0,695.375 545.25,701.75 529.0,708.125 508.5,713.875 483.0,718.625 451.875,721.625 415.125,721.625 373.625,717.5 329.875,708.125 287.75,693.0 251.75,672.75 226.125,649.625 212.375,626.25 209.625,605.25 214.875,588.25 224.625,576.0 236.25,568.0 247.625,563.75 258.0,562.5 266.625,563.375 273.75,566.0"/>
    <polyline points="279.625,569.875 284.25,574.5 288.25,579.75 299.0,595.875 303.0,600.75 307.25,605.0 312.125,608.5 317.375,611.25 323.25,613.125 329.375,614.125 335.875,614.375 342.625,613.75 349.5,612.5 356.375,610.625 363.25,608.25 376.5,602.375 389.0,595.5 400.5,588.5 415.625,578.0"/>
    <polyline points="420.25,574.75 449.0,552.75 469.875,536.25 481.875,526.375"/>
    <polyline points="483.0,525.375 487.25,521.75 494.0,515.0 496.0,512.5 498.75,508.0"/>
    <polyline points="498.875,507.5 499.875,504.875 500.375,501.75 500.375,499.0 499.5,493.75"/>
    <polyline points="499.375,493.125 496.625,483.5 492.5,471.625"/>
    <polyline points="492.125,470.5 488.5,458.375 486.125,448.375 485.125,442.625 484.125,434.0 483.875,426.75"/>
    <polyline points="483.875,424.125 483.875,421.375 485.125,409.625 486.5,403.0 488.5,396.0 491.375,388.375 495.25,380.125 497.625,375.875 503.375,367.0 510.75,357.75 519.875,348.5 525.125,343.875 531.0,339.375 537.25,335.25 543.875,331.375 550.875,328.0"/>
    <polyline points="558.375,325.125 565.875,323.0 573.625,321.625 581.25,321.375 588.75,322.0 595.875,323.875 602.375,327.0 608.25,331.125 613.25,336.5 617.375,342.75 620.5,350.0 622.75,357.875 624.0,366.125 624.375,374.75 623.875,383.625 622.75,392.25 621.125,400.875 618.875,409.125 616.375,417.0 610.5,431.5 604.0,444.0 597.5,454.875 594.25,459.625"/>
    <polyline points="591.125,464.0 582.125,475.25 574.125,484.0 569.375,488.875 551.25,505.625 543.5,513.5"/>
    <polyline points="542.625,514.5 538.375,520.125 535.75,525.375 534.25,531.25 534.125,536.625"/>
    <polyline points="534.25,537.625 534.625,541.5 536.5,550.125 541.625,568.125"/>
    <polyline points="542.125,569.75 544.375,578.75 546.125,589.25 546.625,596.375 546.25,604.25 544.625,612.875 542.5,619.125 539.125,625.75 534.125,632.625"/>
    <polyline points="530.75,636.25 526.875,639.875 522.125,643.5 516.5,647.125 510.0,650.75 502.375,654.125 493.625,657.375 483.5,660.125 472.0,662.5 459.125,664.25 444.875,665.125 429.625,665.0 413.375,663.75 396.875,661.0 380.625,656.875 365.375,651.25 351.75,644.5 340.5,636.625 332.0,628.25 326.375,619.625 323.625,611.125 323.5,603.125 325.5,595.75 329.25,589.125 334.0,583.375 339.625,578.375"/>
    <polyline points="345.75,573.875 358.125,566.625 394.125,549.5 401.75,545.375 408.375,541.25 416.5,535.125 423.125,529.125 428.25,523.125 432.25,517.25"/>
    <polyline points="433.25,515.25 435.125,511.375 437.125,505.625 438.25,499.875 438.5,492.125 438.125,488.25 437.0,482.375 435.125,476.375 430.25,466.25"/>
    <polyline points="429.0,464.125 424.75,457.875 419.625,451.625 410.875,443.375 405.75,439.5 399.75,435.875 392.75,432.75 389.0,431.5 380.25,429.625 375.25,429.25 369.875,429.25 364.0,429.75 357.5,430.875 350.25,432.75 342.25,435.75"/>
    <polyline points="333.375,439.875 323.5,445.5 312.625,452.875 300.375,462.5 286.875,474.625 272.25,489.875 256.625,508.75 240.25,531.375 224.125,558.125 209.25,588.375 197.25,621.375 190.0,655.25 189.125,687.25 195.875,714.75 210.125,735.25 230.625,747.375 255.0,751.25 280.875,748.125 306.0,740.125 329.0,729.25 348.875,717.0 365.5,704.625 378.875,693.0 389.375,682.375 397.25,673.0 402.875,664.625"/>
    <polyline points="406.875,657.5 409.25,651.125 410.625,645.5 411.125,640.625 411.0,636.125 410.375,632.0 407.0,617.625 406.125,611.25 406.125,608.25 407.125,602.25 409.375,596.75 411.0,594.125 414.875,589.125 419.5,584.625 427.375,578.5 430.25,576.625"/>
    <polyline points="433.0,574.875 438.625,571.5 449.625,565.75 462.25,560.0 471.125,556.5 477.25,554.5 484.375,552.625 489.25,551.75"/>
    <polyline points="490.75,551.5 497.625,551.25 501.25,551.625 505.75,552.875 508.75,554.125 512.5,556.5 515.125,558.75 517.5,561.375"/>
    <polyline points="518.25,562.375 521.25,566.625 524.375,573.125 526.0,577.625 527.25,582.625 528.0,588.125 528.125,594.25 527.75,598.625 526.75,603.25"/>
    <polyline points="526.125,605.625 525.25,608.125 522.75,613.25 519.25,618.625 514.375,624.0 507.75,629.625 499.0,634.875 493.75,637.5 487.875,639.875 481.25,642.0 473.875,643.875 465.75,645.5 457.0,646.5 447.5,647.125 437.625,647.125 427.375,646.5 416.875,645.0 406.625,642.875 396.75,639.875 387.5,636.125 379.375,631.875"/>
    <polyline points="372.5,627.0 367.125,621.75 363.25,616.25 360.875,610.75 360.0,605.375 360.5,600.0 362.25,595.125 364.75,590.375 368.125,586.0 372.125,582.0 376.375,578.25 385.625,571.625 404.25,560.625 420.75,551.5 437.25,541.125"/>
    <polyline points="440.125,539.125 445.25,535.375 452.0,529.875 457.5,524.75 463.5,518.125 467.0,513.5 469.75,508.875 472.5,503.0 474.0,498.625"/>
    <polyline points="474.375,497.25 475.375,491.375 475.625,482.25 475.125,475.875 474.375,470.75 471.5,455.375"/>
    <polyline points="471.0,453.25 469.25,444.125 467.375,430.875 466.625,418.375 467.0,407.625 468.75,395.25 471.0,386.125 472.5,381.125 474.5,375.875 479.5,364.5"/>
    <polyline points="482.875,358.5 486.75,352.125 491.375,345.375 496.75,338.5 503.0,331.375 510.0,324.125 518.125,316.75 527.25,309.375 537.5,302.375 548.625,295.875 560.625,290.125 573.5,285.5 586.75,282.375 600.125,281.125 613.125,282.125 625.375,285.5 636.375,291.5 645.75,299.875 653.25,310.625 658.5,323.125 661.75,336.875 663.125,351.5 662.75,366.25 661.0,381.0 658.25,395.0 654.625,408.25"/>
    <polyline points="650.5,420.5 646.0,431.625 641.375,441.75 636.75,450.875 632.25,458.875 627.75,466.125 619.375,478.0 611.75,487.5 601.75,498.0 593.25,505.875 574.0,522.625"/>
    <polyline points="572.75,524.0 570.25,526.625 566.375,531.75 563.625,536.75 562.625,539.375 561.5,543.375 560.875,547.5 560.75,553.125 561.125,557.75"/>
    <polyline points="561.375,559.375 563.25,569.625 567.5,585.75 570.375,598.0 571.875,606.25 572.625,615.5"/>
    <polyline points="572.625,618.75 572.25,625.75 570.75,633.375 567.875,641.5 565.625,645.875 562.75,650.5 559.0,655.125 554.375,660.0 548.5,665.0 541.25,670.125 532.25,675.125 521.25,680.125 507.875,684.875 491.75,689.0 472.75,692.375 450.5,694.5 425.25,694.625 397.5,692.5 368.375,687.375 339.625,679.125 313.25,667.75 291.5,654.0 275.75,638.75"/>
    <polyline points="266.5,623.375 263.625,609.125 265.75,596.5 271.375,586.25 279.125,578.125 287.75,572.0 296.625,567.625 305.0,564.625 312.75,562.625 319.75,561.5 326.0,560.875 336.5,560.625 352.0,561.625 361.0,561.875 369.0,561.0 376.75,558.875"/>
    <polyline points="379.125,558.0 386.375,554.5 393.125,550.375 401.25,543.875 404.875,540.375 409.625,535.125 415.0,527.875 418.0,522.5 420.25,517.125"/>
    <polyline points="420.875,515.25 421.75,511.75 422.5,504.875 422.125,499.75 421.375,496.375 420.25,493.125 417.875,488.375 414.5,483.75 410.125,479.625 404.5,476.0"/>
    <polyline points="402.375,474.875 397.625,473.125 388.875,471.625 382.0,471.75 378.25,472.125 369.75,474.125 359.875,477.875 354.5,480.5 348.625,483.875 342.5,488.0 335.875,493.0 329.0,498.875 321.875,505.75 314.375,513.75 306.75,523.0 299.125,533.375 291.75,544.875 284.875,557.5 278.875,571.0 273.875,585.0"/>
    <polyline points="270.5,599.25 268.875,613.0 269.5,625.875 272.375,637.375 277.625,646.875 285.0,654.0 294.0,658.75 304.5,661.0 315.875,661.125 327.75,659.25 339.625,655.875 351.125,651.375 362.25,646.125 372.625,640.5 382.25,634.625 399.25,623.125 447.0,586.625"/>
    <polyline points="450.375,584.125 456.625,580.0 464.75,575.25 469.375,573.0 477.5,570.0 482.875,568.875 489.0,568.625 493.0,569.125 497.75,570.75"/>
    <polyline points="498.75,571.25 501.75,573.25 505.125,576.75 507.125,579.875 509.0,584.75 509.625,587.5 509.875,590.5 509.625,595.375 509.375,597.125 507.625,602.375"/>
    <polyline points="506.75,604.25 504.5,608.125 499.5,614.0 494.875,617.875 492.125,619.75 485.625,623.25 477.75,626.5 473.25,627.875 463.375,630.0 457.875,630.75 446.25,631.25 440.125,631.125 434.125,630.5 428.0,629.5 422.125,628.125 416.5,626.375 411.25,624.25 406.5,621.875"/>
    <polyline points="402.375,619.125 398.875,616.125 396.125,612.875 394.25,609.625 393.0,606.25 392.625,602.875 392.875,599.5 393.75,596.25 395.125,593.0 397.0,590.0 399.375,587.0 405.0,581.375 414.875,574.0 428.625,565.625 447.75,555.25"/>
    <polyline points="450.625,553.75 481.0,538.0 495.25,531.625"/>
    <polyline points="496.25,531.25 500.75,529.875 505.875,529.0 509.375,529.125 512.875,530.25"/>
    <polyline points="513.375,530.5 516.875,533.125 519.375,535.75 522.75,540.5 524.0,542.75"/>
    <polyline points="524.5,543.5 527.25,548.625 531.625,558.25 534.25,564.875 536.75,572.625"/>
    <polyline points="537.25,574.375 539.25,583.625 540.25,594.5 539.875,601.875 538.25,610.0 536.125,615.75 534.625,618.875 530.75,625.125 525.0,631.625 521.375,635.0 517.125,638.25"/>
    <polyline points="512.125,641.625 506.375,644.875 499.625,648.0 492.0,650.875 483.25,653.5 473.375,655.75 462.375,657.375 450.375,658.5 437.375,658.75 423.75,658.0 409.625,656.25 395.5,653.375 381.875,649.25 369.375,644.125 358.5,637.875 349.5,631.125 342.875,623.75 338.625,616.375 336.75,609.125 336.875,602.125 338.75,595.625 342.0,589.75 346.25,584.5 351.25,579.75 356.625,575.5 362.25,571.75"/>
    <polyline points="367.875,568.375 379.0,562.375 398.5,552.5 410.375,545.75 420.25,539.375 428.25,533.125 434.75,527.0 441.375,519.0 445.0,513.25"/>
    <polyline points="446.125,511.25 447.875,507.5 450.25,499.875 451.25,494.125 451.5,490.25 451.25,482.5 450.375,476.375 449.0,470.125 446.25,461.25"/>
    <polyline points="445.5,459.0 440.75,446.625 429.5,420.125 424.0,405.625 421.375,397.375 419.125,388.375 417.25,378.25 416.625,372.75"/>
    <polyline points="416.25,366.75 416.625,353.5 417.625,346.0 419.375,337.75 421.875,328.625 425.625,318.5 430.75,307.25 437.625,294.75 446.75,280.625 458.75,264.875 474.125,247.375 493.75,228.25 518.25,207.875 548.25,187.25 583.75,168.0 624.0,152.875 666.75,145.375 708.5,149.0 744.75,166.25 771.75,196.875 787.375,237.875 792.5,284.0 789.625,330.375 781.875,372.875 772.0,409.5"/>
    <polyline points="762.0,439.625 752.75,463.25 744.75,481.0 738.125,493.875 732.5,502.625 727.75,508.0 723.375,510.5 719.125,510.875 714.75,509.5 710.0,506.875 692.75,494.75 678.75,485.75 663.5,477.75 655.75,474.375 640.625,468.75 633.25,466.625 619.625,463.625 607.375,462.0 601.75,461.75"/>
    <polyline points="596.5,461.625 582.75,462.375 575.0,463.625 568.125,465.125 554.375,469.5 531.75,478.75"/>
    <polyline points="530.5,479.25 523.875,481.25 518.5,482.0 513.875,481.5 511.25,480.625 509.375,479.625"/>
    <polyline points="508.75,479.25 505.875,476.875 501.625,471.5 498.125,465.125 495.625,459.375"/>
    <polyline points="508.25,478.625 505.375,476.125 503.75,474.25 499.625,467.875 496.625,461.625 494.75,456.875 492.625,449.75 490.5,439.375 489.625,429.0 489.75,421.875 491.0,411.25 491.625,408.375"/>
    <polyline points="492.375,405.375 495.375,395.75 498.375,388.75 500.125,385.125 504.5,377.625 507.125,373.75 516.875,362.0 525.125,354.25 529.875,350.5 534.875,347.0 545.875,340.75 551.75,338.125 557.875,336.125 564.0,334.625 570.25,333.875 576.5,333.875 582.375,334.625 588.0,336.375"/>
    <polyline points="593.25,338.875 598.0,342.25 602.125,346.5 605.625,351.5 608.375,357.25 610.375,363.375 611.625,370.125 612.25,377.0 612.125,384.125 611.5,391.375 610.375,398.5 608.875,405.5 604.75,418.75 602.25,425.0 596.875,436.375 591.25,446.5 585.5,455.25 580.0,462.75 572.125,472.125"/>
    <polyline points="569.625,474.875 556.625,487.625 540.25,501.625 533.0,508.25"/>
    <polyline points="567.0,477.375 554.625,489.25 539.0,502.5 532.125,508.75 531.625,509.625 528.25,513.25 526.0,516.5 524.75,519.0 523.875,522.5"/>
    <polyline points="523.875,523.0 523.75,525.5 524.125,528.875 526.75,538.0"/>
    <polyline points="527.0,538.75 534.75,559.0 537.125,566.0"/>
    <polyline points="537.625,567.625 540.375,577.75 541.875,585.75 542.625,594.625 542.5,599.625 541.375,607.625 539.875,613.375 537.375,619.5 533.5,625.875"/>
    <polyline points="530.875,629.25 524.25,636.125 514.875,643.0 509.0,646.375 502.125,649.625 494.25,652.625 485.25,655.375 475.125,657.75 463.75,659.625 451.125,660.75 437.5,661.125 423.0,660.375 408.125,658.625 393.125,655.5 378.75,651.125 365.5,645.625 354.0,639.125 344.625,631.75 337.875,624.0 333.5,616.125 331.75,608.5 332.125,601.25 334.375,594.625 338.0,588.5"/>
    <polyline points="342.625,583.125 348.0,578.375 353.625,574.25 359.5,570.5 371.125,564.125 400.375,549.375 411.375,543.0 422.875,534.625 427.5,530.5 433.375,524.375 436.5,520.375"/>
    <polyline points="437.875,518.5 441.375,512.5 443.875,506.75 445.125,502.875 446.5,495.125 446.625,487.375 446.25,483.375 445.125,477.25 442.75,468.875"/>
    <polyline points="442.0,466.75 439.375,460.0 436.125,453.0 432.25,445.5 426.125,435.0 420.75,426.5 412.5,414.5 405.375,404.75 400.0,398.0"/>
    <polyline points="397.25,394.625 388.0,384.0 381.125,376.75 377.375,373.125 369.125,366.125 364.625,362.75 359.625,359.5 354.25,356.625 348.375,354.0 341.75,351.875 334.375,350.375 325.875,349.875 316.125,350.625 304.75,353.125 291.125,358.125 274.75,366.5 254.875,379.625 230.75,399.125 201.25,427.75 166.125,468.25 126.125,524.125 84.5,597.5"/>
    <polyline points="49.125,686.625 32.25,781.625 46.0,863.75 92.625,914.25 160.125,926.75 229.75,910.25 287.875,879.625 328.625,846.5 351.375,816.75 358.375,791.875 352.125,771.125 335.875,752.875 312.75,735.125 286.75,716.5 261.75,696.375 241.5,675.125 228.125,654.0 222.5,634.375 223.625,617.625 229.625,604.125 238.5,594.125 248.75,587.375 259.0,583.25 268.625,581.25 277.375,580.75 285.375,581.5"/>
    <polyline points="292.375,582.875 298.75,584.75 315.375,590.875 325.75,594.125 330.875,595.125 336.125,595.625 346.875,595.5 352.25,594.75 357.625,593.5 368.375,590.25 378.75,585.875 383.75,583.375 397.875,575.25 410.375,566.75 417.875,561.125"/>
    <polyline points="421.375,558.375 436.5,545.625 448.125,534.375 455.375,526.375 459.75,520.875 465.375,512.375 467.875,507.5"/>
    <polyline points="468.5,505.875 469.25,504.375 471.125,498.125 472.125,493.5 472.625,488.75 472.625,482.25 472.125,475.5 470.375,464.5"/>
    <polyline points="470.0,462.5 465.0,437.0 463.875,428.375 463.375,422.0 463.125,411.625 463.5,403.75 464.625,395.125 466.625,385.75"/>
    <polyline points="468.125,380.625 472.25,369.5 475.0,363.5 482.125,350.375 486.75,343.375 492.25,336.0 498.625,328.375 506.125,320.5 514.625,312.5 524.25,304.5 535.25,296.625 547.25,289.25 560.375,282.75 574.5,277.375 589.125,273.75 604.0,272.125 618.5,273.125 632.0,277.0 644.125,283.75 654.375,293.25 662.25,305.5 667.75,319.625 670.875,335.125 671.75,351.375"/>
    <polyline points="670.875,367.75 668.625,383.75 665.125,398.875 661.0,412.875 656.375,425.75 651.5,437.375 646.5,447.75 641.625,456.875 632.25,472.0 627.875,478.125 619.75,488.375 612.5,496.25 606.125,502.375 595.375,511.5 585.0,519.625"/>
    <polyline points="583.25,521.0 577.375,526.25 573.875,530.0 569.625,536.25 567.375,541.25 566.625,544.0 565.875,548.0 565.625,553.75"/>
    <polyline points="565.75,555.25 566.625,563.25 568.625,572.125 575.0,593.5 578.375,606.875"/>
    <polyline points="579.0,609.75 580.125,616.0 580.75,622.625 580.75,629.875 580.375,633.625 578.75,641.875 577.375,646.25 575.375,650.75 572.75,655.5 569.25,660.5 564.75,665.75 559.0,671.125 551.625,676.625 542.375,682.125 530.875,687.75 516.625,693.0 499.125,697.875 478.0,701.75 452.875,704.25 423.875,704.625 391.75,702.125 357.625,695.875"/>
    <polyline points="324.0,685.75 293.625,671.75 269.375,654.875 253.0,636.75 244.875,619.0 244.125,603.0 248.75,589.875 256.625,579.625 266.125,572.25 276.0,567.25 285.25,564.375 293.75,562.875 301.25,562.625 307.625,563.125 313.25,564.25 318.125,565.625 322.375,567.375 339.625,575.75 346.25,577.75 349.625,578.375 353.125,578.625"/>
    <polyline points="356.625,578.625 363.875,577.75 371.375,575.875 382.5,571.375 393.125,565.5 399.875,561.125 406.125,556.5 414.625,549.5 426.5,538.0 432.25,531.375"/>
    <polyline points="433.875,529.25 439.75,520.875 442.0,516.75 444.875,510.875 446.875,505.0 448.25,499.125 449.0,491.5 448.875,485.5 448.125,479.5"/>
    <polyline points="447.75,477.5 444.125,464.625 439.5,453.0 430.625,434.625 419.125,412.875"/>
    <polyline points="417.25,409.375 407.75,389.875 402.25,376.25 400.5,371.125 397.625,360.125 396.375,354.0 395.5,347.375 395.125,340.25 395.25,332.375 396.125,323.625 397.875,314.0 401.0,303.0 405.625,290.625 412.625,276.375 422.25,259.875 435.75,240.875 454.0,219.0 478.5,194.125 510.625,166.625"/>
    <polyline points="551.625,137.875 602.0,111.0 660.0,91.25 720.875,85.625 776.625,101.0 818.75,139.375 842.25,196.5 848.125,262.375 841.875,327.125 829.5,383.875 816.125,429.5 804.375,464.0 795.25,488.25 788.5,503.875 783.75,512.25 779.875,514.875 776.125,512.875 757.375,489.125 747.375,478.25 735.625,467.375 722.375,456.875 708.375,447.25 694.0,438.75 679.875,431.5"/>
    <polyline points="666.375,425.375 653.875,420.5 642.375,416.625 632.125,413.625 623.0,411.375 607.875,408.875 601.75,408.375 596.5,408.375 587.75,409.125 581.0,411.0 575.5,413.375 571.125,416.25 565.5,420.875 556.125,430.5"/>
    <polyline points="554.75,432.0 547.875,438.75 540.25,445.0 532.25,449.5 530.125,450.25 525.25,451.25"/>
    <polyline points="524.375,451.25 521.75,451.125 519.25,450.5 517.0,449.5 514.375,447.5 511.375,444.0 509.875,441.25 508.25,437.125"/>
    <polyline points="508.0,436.0 507.125,432.125 506.625,423.25 506.875,419.875 508.125,412.5 509.25,408.625 511.625,402.375 515.0,395.75 517.75,391.375"/>
    <polyline points="519.375,389.125 523.0,384.75 527.25,380.5 534.5,374.625 540.0,371.375 545.75,368.875 548.75,368.0 554.75,367.0 560.625,367.0 563.375,367.625 568.625,369.625 573.0,373.125 574.875,375.25 577.875,380.5 578.875,383.375"/>
    <polyline points="579.625,386.625 580.25,389.875 580.5,393.375 580.125,400.5 579.625,404.125 578.125,411.375 575.875,418.5 574.5,421.875 569.875,431.5 564.75,440.0 555.875,451.5 548.875,458.5"/>
    <polyline points="547.25,460.0 539.625,466.125 531.625,470.875 529.125,472.0 523.75,473.75 520.875,474.25 517.375,474.25"/>
    <polyline points="516.5,474.125 513.375,473.5 510.5,472.125 507.875,470.25 504.75,467.125 500.25,460.125"/>
    <polyline points="499.75,459.125 496.375,450.5 494.125,441.375 492.875,430.0 492.875,423.375 493.5,416.125"/>
    <polyline points="494.0,413.625 495.0,408.125 497.625,399.375 500.25,393.0 503.5,386.375 510.25,375.875 516.0,368.75 519.375,365.125 523.0,361.625 531.25,354.875 535.75,351.75 540.625,348.875 545.625,346.375 551.0,344.125 556.375,342.375 561.875,341.125 567.375,340.5"/>
    <polyline points="572.75,340.5 578.125,341.125 583.125,342.5 587.75,344.75 592.0,347.625 595.75,351.25 599.0,355.5 601.625,360.375 603.625,365.75 604.875,371.5 605.75,377.5 605.625,390.25 604.75,396.625 603.625,403.0 600.25,415.125 595.875,426.5 590.875,436.625 585.625,445.75 577.75,457.25"/>
    <polyline points="575.25,460.625 565.5,471.875 555.0,482.125 548.0,488.25 533.0,499.875"/>
    <polyline points="532.0,500.5 522.5,507.75 519.25,510.75"/>
    <polyline points="519.0,511.0 516.75,513.875 516.125,516.125 516.5,519.25 517.375,521.75"/>
    <line x1="517.5" x2="521.875" y1="522.0" y2="532.0"/>
    <line x1="522.125" x2="531.0" y1="532.5" y2="552.375"/>
    <polyline points="531.375,553.375 535.75,565.0 539.125,576.375 541.0,586.125 541.5,590.5 541.625,595.125"/>
    <polyline points="541.625,597.5 540.875,605.25 539.625,610.875 538.625,613.75 535.875,619.875 534.125,623.0 529.25,629.625 522.25,636.375 517.875,639.75 512.625,643.125 506.625,646.375 499.625,649.625 491.625,652.5 482.375,655.125 472.125,657.375 460.625,659.0 448.125,660.0 434.5,660.125 420.25,659.125 405.625,657.125"/>
    <polyline points="391.0,653.875 377.125,649.375 364.5,643.75 353.625,637.125 345.0,629.875 338.75,622.375 335.0,614.625 333.625,607.25 334.25,600.125 336.75,593.75 340.375,587.875 345.125,582.625 350.375,578.0 356.0,573.875 361.75,570.25 367.625,567.0 378.625,561.125 398.0,551.5 413.125,542.75"/>
    <polyline points="416.25,540.625 424.625,534.375 429.25,530.25 433.25,526.25 438.125,520.25 440.875,516.25 444.875,508.5 446.875,502.75 448.125,497.0 448.625,491.125"/>
    <polyline points="448.625,489.25 448.5,485.25 446.875,475.125 445.125,468.75 442.875,462.125 437.875,450.25 428.375,431.5"/>
    <polyline points="426.75,428.5 414.25,405.5 404.375,385.625 398.5,371.5 395.125,360.75 393.625,354.875 391.625,341.625 391.25,334.125 391.5,325.875 392.625,316.625 394.75,306.375 398.375,294.625"/>
    <polyline points="403.875,281.25 412.0,265.75 423.375,247.75 439.25,226.875 460.75,202.75 489.625,175.375 527.375,145.5 575.25,115.5 632.75,89.75 696.625,75.25 759.375,80.125 811.5,110.125 844.875,163.375 857.875,230.875 855.0,301.0 843.5,364.5 829.375,416.625 816.5,456.25 806.375,484.5 799.125,502.625 794.125,512.625 790.5,515.875 786.875,513.75 776.25,498.25 767.75,487.125"/>
    <polyline points="757.0,474.875 744.0,462.5 729.25,450.75 713.75,440.0 698.0,430.625 682.5,422.625 668.0,416.125 654.75,410.75 642.75,406.625 632.25,403.5 615.125,399.625 608.375,398.625 602.5,398.25 597.625,398.25 593.375,398.625 589.75,399.25 586.625,400.25 584.0,401.375 581.625,402.875 579.5,404.375 575.75,407.875 570.875,413.75"/>
    <polyline points="569.5,415.75 558.0,431.625 550.875,439.875 542.625,447.375 537.5,451.0 535.0,452.375"/>
    <polyline points="533.875,453.0 531.625,454.125 528.375,455.25 524.25,456.0 521.5,456.0 518.875,455.625 516.5,454.75 514.25,453.5 511.625,451.25"/>
    <polyline points="511.0,450.5 509.125,448.25 507.125,444.5 506.125,442.375 504.625,437.5 503.375,428.625 503.375,423.5 503.875,417.75"/>
    <polyline points="504.25,415.75 505.625,409.5 508.0,402.625 510.125,397.875 514.25,390.375 519.875,382.875 524.375,377.875 527.0,375.5 532.5,371.0 535.5,369.0 538.625,367.125 545.375,363.875 548.75,362.625 552.25,361.75"/>
    <polyline points="555.75,361.125 562.75,361.0 566.125,361.5 569.25,362.375 572.25,363.625 575.0,365.375 577.5,367.5 579.75,370.0 581.625,372.875 583.25,376.125 584.5,379.5 586.0,387.125 586.25,391.125 586.125,395.375 585.125,403.75 583.125,412.125 580.5,420.125 577.25,427.75 573.5,434.625"/>
    <polyline points="571.625,437.875 567.75,444.0 563.75,449.375 559.875,454.125 552.25,462.125 547.125,466.875 542.25,470.75 536.375,474.75 530.125,478.25"/>
    <polyline points="529.0,478.75 524.75,480.375 518.5,481.625 514.0,481.25 510.75,480.125 508.875,479.0"/>
    <polyline points="494.75,456.625 493.0,451.0 491.125,442.875 490.125,435.25 489.75,428.75 489.875,421.625 490.375,416.5 491.75,408.0 492.5,405.0"/>
    <polyline points="493.375,401.875 495.625,395.375 498.625,388.5 502.5,381.125 507.5,373.5 513.75,365.625 521.375,357.75 530.375,350.25 535.375,346.75 540.75,343.5 546.375,340.625 552.375,338.125 558.375,336.125 564.625,334.75 570.875,334.0 576.875,334.125 582.875,335.0 588.5,336.75 593.625,339.375"/>
    <polyline points="598.25,342.875 602.375,347.125 605.75,352.125 608.375,357.875 610.25,364.125 611.5,370.75 612.0,377.75 612.0,384.875 610.125,399.125 606.625,412.75 604.375,419.25 599.25,431.25 593.75,442.0 585.25,455.5 577.0,466.25 569.375,474.875"/>
    <polyline points="531.375,509.5 527.625,513.625 526.125,515.75 524.625,518.75 523.875,521.25 523.75,522.75"/>
    <polyline points="523.625,523.25 523.75,527.375 524.75,532.0 526.75,538.25"/>
    <polyline points="527.0,539.0 533.875,556.75 537.125,566.375"/>
    <polyline points="537.625,567.875 540.0,576.375 541.875,586.125 542.5,592.875 542.375,600.125 541.25,608.25 539.625,614.0 536.875,620.125 535.125,623.375 532.875,626.625"/>
    <polyline points="530.25,630.0 523.25,636.875 513.625,643.75 507.5,647.0 500.375,650.25 492.375,653.25 483.0,656.0 472.625,658.25 461.0,659.875 448.125,660.875 434.25,661.0 419.75,660.125 404.75,658.0 389.875,654.625 375.75,650.0 362.75,644.125 351.75,637.5 343.0,630.0 336.75,622.25 333.0,614.375 331.75,606.875 332.625,599.75 335.125,593.125 339.0,587.25"/>
    <polyline points="343.875,582.125 349.25,577.5 355.0,573.375 360.875,569.75 372.375,563.5 397.125,551.125 405.125,546.75 412.125,542.5 421.0,536.25 425.875,532.125 432.0,526.0 436.875,520.0"/>
    <polyline points="438.25,518.0 440.625,514.125 444.125,506.375 445.75,500.5 446.625,494.75 446.75,488.875 446.0,480.875 444.625,474.75 442.75,468.375"/>
    <polyline points="442.0,466.25 436.0,452.375 430.625,442.375 425.875,434.375 420.5,425.875 412.25,413.75 399.875,397.125"/>
    <polyline points="397.0,393.625 384.625,379.125 377.375,371.75 369.25,364.5 360.0,357.5 354.75,354.375 349.125,351.375 342.75,349.0 335.625,347.125 327.625,346.0 318.375,346.125 307.625,347.75 294.75,351.625 279.375,358.5 260.75,369.75 237.875,386.75 209.75,412.125 175.875,448.75 136.125,500.25 92.875,569.75"/>
    <polyline points="52.625,657.25 27.0,755.875 30.25,848.125 69.375,912.0 135.375,935.75 209.125,924.875 273.375,895.25 319.75,860.75 347.0,828.75 356.625,802.0 351.75,779.875 335.375,760.625 311.25,742.0 283.375,722.5 256.25,701.25 234.0,678.75 219.5,656.25 213.375,635.375 214.625,617.625 221.125,603.625 230.625,593.625 241.25,587.125 251.875,583.375 261.625,582.0 270.5,582.375 278.375,583.875"/>
    <polyline points="285.25,586.25 291.625,589.0 308.5,597.5 313.875,599.75 319.5,601.625 325.125,603.0 330.875,603.75 336.875,603.875 342.875,603.5 349.0,602.625 355.125,601.25 361.125,599.5 367.125,597.25 373.0,594.875 384.375,589.25 399.875,580.125 409.125,573.875 421.5,564.875"/>
    <polyline points="425.25,562.0 438.5,551.375 457.875,534.125 464.875,527.125 469.125,522.375 472.75,518.0 475.625,513.875"/>
    <polyline points="476.5,512.5 478.125,510.0 480.0,506.25 481.5,502.5 482.875,497.75 483.75,491.75 483.875,488.0 483.5,481.5"/>
    <polyline points="483.25,480.125 482.25,473.125 477.25,448.375 475.25,434.25"/>
    <polyline points="475.0,431.75 474.625,423.25 474.75,417.0 475.25,410.375 476.25,403.125 478.0,395.25 480.75,386.625 482.375,382.0 487.0,372.125 493.125,361.5 497.0,355.875 501.375,350.125 506.375,344.25 512.125,338.25 518.5,332.25 525.625,326.375 533.5,320.625"/>
    <polyline points="542.0,315.25 551.25,310.375 561.125,306.125 571.375,303.0 581.75,301.0 592.25,300.375 602.375,301.375 611.875,304.25 620.625,308.875 628.125,315.125 634.25,323.125 639.0,332.5 642.25,343.0 644.125,354.25 644.625,365.875 643.875,377.625 642.25,389.125 639.875,400.25 636.875,410.875 633.375,420.875 625.75,438.5 617.75,453.25 610.0,465.5"/>
    <polyline points="606.375,470.625 599.25,479.625 592.875,487.0 584.375,495.75 562.875,516.0 559.125,520.125 555.25,525.125"/>
    <polyline points="554.5,526.25 551.25,532.25 550.0,535.75 549.0,540.625 548.75,543.125 548.875,551.0 550.0,558.25"/>
    <polyline points="550.25,559.75 555.125,581.5 557.125,592.875 557.75,597.875 558.0,603.375 557.875,609.125 557.25,615.375"/>
    <polyline points="556.5,618.625 554.5,625.625 553.0,629.25 551.0,633.0 548.625,636.875 541.875,645.0 537.375,649.25 531.875,653.5 525.25,657.75 517.25,661.875 507.875,665.875 496.75,669.625 483.875,673.0 468.875,675.5 452.0,677.25 433.125,677.625 412.75,676.5 391.5,673.5 370.25,668.375 350.0,661.25 332.125,652.375 317.5,642.125 306.875,631.0 300.5,619.75"/>
    <polyline points="298.25,609.125 299.25,599.375 303.0,590.875 308.5,583.625 315.125,577.625 322.25,572.75 329.5,568.625 336.625,565.375 343.375,562.625 378.625,550.375 385.5,547.375 393.875,542.875 398.5,539.625 404.25,534.75"/>
    <polyline points="405.875,533.125 410.125,528.125 412.375,524.75 415.625,518.0 417.0,513.125 417.5,509.75 417.5,505.0 417.0,501.875 415.625,497.25 413.25,493.0"/>
    <polyline points="412.25,491.625 408.625,487.75 405.625,485.375 402.0,483.375 397.875,481.875 393.0,480.75 387.5,480.25 384.5,480.25 377.75,481.25 370.0,483.25 365.75,484.875 356.375,489.5 351.25,492.625 346.0,496.375 334.5,506.0"/>
    <polyline points="328.375,512.0 322.25,518.75 316.0,526.375 309.875,535.0 303.875,544.375 298.375,554.5 293.5,565.125 289.5,576.25 286.5,587.5 284.875,598.625 284.875,609.125 286.5,618.625 289.75,626.875 294.75,633.625 301.125,638.75 308.75,641.875 317.5,643.375 326.75,643.375 336.5,641.875 346.25,639.125 355.875,635.625 365.25,631.375 374.25,626.75 382.75,622.0 398.125,612.125"/>
    <polyline points="405.0,607.375 441.375,580.5 455.625,570.5 461.5,566.75 471.75,561.0 480.25,557.25 487.5,555.125"/>
    <polyline points="489.125,554.75 495.125,554.0 497.875,554.0 502.75,554.75 506.125,555.75 510.125,557.875 512.0,559.25 514.625,561.625 517.0,564.375"/>
    <polyline points="517.75,565.375 520.0,568.75 523.125,575.375 524.625,579.875 525.875,586.875 526.125,594.75 525.625,599.0 524.625,603.625 522.875,608.375"/>
    <polyline points="521.75,610.875 518.625,616.0 516.625,618.625 511.5,624.0 504.75,629.25 496.0,634.375 484.75,639.0 478.125,641.0 470.875,642.75 454.375,645.0 445.25,645.375 435.75,645.25 425.875,644.375 416.0,642.875 406.375,640.625 397.125,637.625 388.625,634.125 381.125,629.875 374.875,625.125 369.875,620.125"/>
    <polyline points="366.5,615.0 364.375,609.75 363.75,604.5 364.375,599.5 366.0,594.75 368.5,590.25 371.75,586.125 375.5,582.25 384.125,575.25 393.25,569.125 430.0,548.0 444.875,538.25"/>
    <polyline points="447.375,536.375 456.125,529.5 459.875,526.125 467.25,518.375 470.625,514.0 473.375,509.75 476.125,504.25 478.0,499.0"/>
    <polyline points="478.375,497.625 479.125,493.625 479.625,488.125 479.5,482.5 478.25,471.75 475.875,459.375"/>
    <polyline points="475.5,457.5 472.625,442.25 471.625,434.75 470.75,420.125 471.25,410.0 472.125,402.375 473.75,394.125 476.375,385.125 478.125,380.25"/>
    <polyline points="480.25,375.125 485.75,364.25 489.125,358.5 497.875,346.125 503.25,339.75 509.5,333.125 516.5,326.5 524.25,319.875 533.0,313.5 542.5,307.5 552.875,302.0 563.875,297.25 575.5,293.75 587.25,291.625 599.0,291.25 610.375,292.75 621.0,296.375 630.375,302.25 638.375,310.0 644.75,319.625 649.25,330.75 652.125,343.0 653.375,356.0 653.125,369.125"/>
    <polyline points="651.75,382.125 649.375,394.75 646.125,406.875 642.5,418.0 638.5,428.375 634.25,437.875 630.0,446.5 625.75,454.25 621.5,461.125 613.375,473.0 609.625,478.0 602.5,486.5 593.25,496.375 573.125,514.875"/>
    <polyline points="571.5,516.375 564.625,523.375 560.75,528.5 558.5,532.25 556.375,537.25 555.625,539.875 554.75,545.0 554.625,549.125"/>
    <polyline points="554.625,550.625 555.5,559.5 556.75,566.125 561.875,588.25 563.625,598.25"/>
    <polyline points="564.0,600.875 564.5,612.625 564.0,619.125 563.375,622.625 561.375,629.875 559.875,633.75 555.375,642.0 552.125,646.25 548.125,650.625 543.25,655.125 537.25,659.75 530.0,664.375 521.125,669.0 510.375,673.375 497.75,677.375 482.75,680.875 465.375,683.5 445.5,685.0 423.375,684.875 399.5,682.625"/>
    <polyline points="374.875,678.125 350.75,671.125 328.625,661.625 310.0,650.25 296.0,637.625 287.125,624.75 283.375,612.25 283.875,601.0 287.75,591.25 293.75,583.125 301.125,576.625 309.0,571.5 316.875,567.5 324.375,564.5 331.5,562.125 344.0,558.875 366.625,554.0 376.125,551.375 378.75,550.375"/>
    <polyline points="381.375,549.25 386.0,547.125 392.0,543.375 398.75,537.875 401.5,535.0 406.125,528.875 409.375,522.875 411.25,516.75 411.625,513.75"/>
    <polyline points="411.75,512.375 411.25,506.625 409.875,502.625 407.625,498.875 404.5,495.5 401.75,493.625 398.625,492.0 392.875,490.375 385.75,490.0 380.125,490.625"/>
    <polyline points="377.125,491.375 370.375,493.5 362.875,497.0 358.875,499.25 350.25,505.25 341.125,513.25 336.25,518.125 326.75,529.625 322.0,536.125 317.5,543.25 313.375,550.875 309.625,558.875 306.5,567.125 304.25,575.5 302.75,583.75 302.25,591.75 302.875,599.25 304.625,605.875 307.5,611.75 311.5,616.5 316.5,620.0"/>
    <polyline points="322.375,622.5 329.0,623.625 336.125,623.75 343.5,622.875 351.125,621.125 358.875,618.75 366.375,615.75 373.75,612.25 387.875,604.625 406.375,592.75 426.75,578.125 442.75,566.0 458.375,554.625"/>
    <polyline points="461.0,552.75 470.375,546.25 481.625,539.375 492.625,533.625 499.625,531.0"/>
    <polyline points="500.5,530.75 503.625,530.0 508.875,529.875 512.125,530.75 515.375,532.625"/>
    <polyline points="515.875,533.0 518.5,535.5 521.125,538.75 525.125,545.125 527.0,548.75"/>
    <polyline points="527.5,549.625 531.0,557.125 535.125,567.875 538.375,579.75 539.375,585.75"/>
    <polyline points="539.625,587.75 540.0,592.25 539.625,601.875 538.75,607.25 535.875,615.875 532.625,622.0 530.5,625.125 527.875,628.375 521.125,635.0 511.875,641.625 506.0,644.75 499.25,647.875 491.625,650.75 482.875,653.375 473.0,655.625 462.125,657.25"/>
    <polyline points="450.0,658.375 437.125,658.5 423.5,657.875 409.375,656.0 395.375,653.125 381.875,649.0 369.375,643.875 358.625,637.75 349.75,630.875 343.125,623.625 339.0,616.25 337.0,609.0 337.25,602.0 339.125,595.625 342.375,589.75 346.625,584.5 351.5,579.75 357.0,575.5 362.5,571.75 373.75,565.25 398.75,552.5"/>
    <polyline points="403.0,550.25 414.125,543.625 420.5,539.375 428.5,533.125 435.0,527.0 440.125,521.0 443.0,517.125 445.375,513.25 448.875,505.625 450.625,499.875"/>
    <polyline points="451.0,498.0 451.75,492.25 451.875,486.5 451.625,482.5 450.375,474.375 446.0,459.0 440.25,444.125"/>
    <polyline points="439.125,441.375 429.0,416.75 423.75,401.5 421.375,392.875 420.375,388.125 418.75,378.0 418.25,372.375 418.0,366.375 418.25,359.875 418.875,352.875 420.0,345.25 422.0,336.875 424.75,327.625 428.875,317.375"/>
    <polyline points="434.375,306.0 441.625,293.25 451.375,279.0 463.875,263.25 479.875,245.75 500.125,226.75 525.125,206.75 555.5,186.875 591.0,169.0 630.75,155.625 672.25,150.25 712.0,156.125 745.75,175.125 770.125,206.5 783.75,247.125 787.625,292.0 784.25,336.625 776.375,377.25 766.75,412.375 757.0,441.0 748.0,463.75 740.125,480.875 733.625,493.375 728.0,502.0 723.125,507.375 718.75,510.125"/>
    <polyline points="714.5,510.75 710.25,509.75 705.625,507.625 700.625,504.625 682.875,492.875 669.125,485.0 654.625,478.25 640.25,473.0 626.625,469.375 620.125,468.125 614.0,467.125 602.75,466.125 597.625,466.0 588.25,466.375 580.0,467.25 572.75,468.625"/>
    <polyline points="569.5,469.375 563.5,471.0 553.25,474.5 531.625,483.75 525.0,486.0"/>
    <polyline points="524.125,486.375 519.0,487.375 514.875,487.375 512.375,486.875 510.125,485.875 507.625,484.125"/>
    <polyline points="507.125,483.75 504.625,481.375 500.875,476.125 497.125,469.0 495.375,464.625"/>
    <polyline points="494.875,463.5 491.75,454.125 490.5,449.5 489.125,442.375 488.125,434.375 487.875,430.0 487.875,422.75 488.25,417.5"/>
    <polyline points="488.625,414.75 489.5,408.875 492.0,399.375 494.5,392.375 497.875,385.0 502.25,377.25 507.875,369.125 514.875,360.875 518.875,356.625 528.25,348.625 533.5,344.75 539.0,341.125 545.0,337.875 551.25,335.125 557.75,332.75 564.375,331.125 571.0,330.125"/>
    <polyline points="577.625,330.0 584.0,330.75 590.125,332.375 595.875,335.0 600.875,338.625 605.375,343.125 609.0,348.5 612.0,354.625 614.0,361.25 615.375,368.375 616.0,375.875 615.875,383.5 615.125,391.125 613.875,398.625 612.125,406.125 607.625,420.125 602.25,432.625 596.375,443.75 587.5,457.75 581.75,465.375"/>
    <polyline points="578.875,468.75 571.125,477.625 562.0,486.75 537.0,509.375"/>
    <polyline points="536.25,510.125 532.25,514.625 529.625,518.625 527.875,523.0 527.25,526.875"/>
    <polyline points="527.25,527.5 527.25,530.125 528.0,535.125 529.75,541.625 531.75,547.375"/>
  </g>
</svg>
