<?xml version="1.0" encoding="utf-8" ?>
<svg xmlns="http://www.w3.org/2000/svg" xmlns:cc="http://creativecommons.org/ns" xmlns:dc="http://purl.org/dc/elements/1.1/" xmlns:ev="http://www.w3.org/2001/xml-events" xmlns:inkscape="http://www.inkscape.org/namespaces/inkscape" xmlns:rdf="http://www.w3.org/1999/02/22-rdf-syntax-ns" xmlns:sodipodi="http://sodipodi.sourceforge.net/DTD/sodipodi-0.dtd" xmlns:xlink="http://www.w3.org/1999/xlink" baseProfile="tiny" height="27.09333333cm" version="1.2" viewBox="0 0 1024.0 1024.0" width="27.09333333cm">
  <metadata>
    <rdf:RDF>
      <cc:Work>
        <dc:format>image/svg+xml</dc:format>
        <dc:source>vpype read './original_svgs/Strange Attractors #380.svg' linemerge linesimplify write './Strange Attractors #380.svg'
</dc:source>
        <dc:date>2024-08-05T01:35:53.974513</dc:date>
      </cc:Work>
    </rdf:RDF>
  </metadata>
  <defs/>
  <g fill="none" id="layer1" inkscape:groupmode="layer" inkscape:label="1" stroke="black" stroke-width="0.7mm" style="display:inline">
    <polyline points="317.625,834.25 310.375,769.0 310.25,709.75 313.25,658.875 319.625,582.375 321.0,554.5 320.75,532.0 318.875,513.375 315.625,497.875 310.875,484.5 305.125,472.625 298.375,461.75 291.0,451.25 267.25,420.375 260.5,410.125 255.625,400.375 253.25,391.75 254.625,385.0 260.625,381.25 271.625,381.625 287.625,386.75 307.625,396.625 330.25,410.875"/>
    <polyline points="353.875,428.375 376.875,447.75 398.25,467.625 417.125,487.0 433.375,505.125 447.0,521.5 458.25,535.875 474.625,558.875 485.125,575.125 494.0,589.875 498.5,596.5 500.375,598.125 501.75,598.125 503.625,596.25 505.0,594.125"/>
    <polyline points="505.75,593.0 508.25,589.125 511.25,585.25 514.625,581.5 518.375,578.125 522.5,575.25 526.875,572.875 533.0,570.5 537.875,569.375"/>
    <polyline points="539.5,569.125 544.375,568.75 551.125,569.125 554.5,569.625 559.5,571.125 562.75,572.5 565.875,574.25 570.375,577.75 571.75,579.25 575.375,584.375 577.25,588.75"/>
    <polyline points="578.0,591.375 578.875,597.0 578.875,600.375 578.75,603.875 577.375,612.0 574.25,621.375 572.0,626.625 569.125,632.25 561.5,644.375 556.5,650.75 550.875,657.375 544.375,663.875 537.125,670.25 529.125,676.25 520.5,681.5 511.375,686.0 501.875,689.375 492.375,691.25 482.875,691.625 473.875,690.25 465.375,687.125 457.75,682.25"/>
    <polyline points="451.125,675.75 445.625,668.125 441.25,659.25 437.875,649.75 435.5,639.875 434.0,629.75 433.375,619.75 433.375,610.125 434.0,600.75 434.875,592.125 437.75,576.5 439.5,569.625 443.25,557.75 447.0,548.125 452.5,537.25 457.375,529.5 461.625,524.0"/>
    <polyline points="462.875,522.5 469.875,515.125 472.0,512.5 472.625,510.375 471.375,508.75"/>
    <polyline points="471.0,508.625 468.625,507.375 465.875,506.375 447.125,501.625"/>
    <polyline points="445.5,501.25 427.75,496.5 412.25,491.625 396.375,485.75 377.125,477.25"/>
    <polyline points="372.875,475.125 359.25,467.75 349.75,461.875 340.125,455.25 330.875,447.875 323.0,440.25 317.5,433.125 316.125,430.0 316.0,427.625 317.25,426.0 319.875,425.375 324.125,425.875 329.875,427.75 337.125,431.0 345.5,435.5 354.875,441.25 364.875,447.875 385.5,463.25"/>
    <polyline points="395.5,471.25 405.125,479.25 443.875,512.75 455.125,521.75 464.5,528.5 475.875,534.875 482.125,537.375 485.0,538.125 490.375,539.0 495.125,539.375 505.75,538.375"/>
    <polyline points="507.625,538.0 534.0,532.0 551.5,529.25"/>
    <polyline points="553.375,529.0 578.125,526.375 593.125,524.375 607.625,521.75 614.0,520.125"/>
    <polyline points="617.375,519.25 628.125,515.75 640.0,510.75 648.75,506.125 658.125,500.125 668.25,492.375 679.0,482.375 684.625,476.25 690.5,469.25 696.375,461.5 702.125,452.625 707.875,442.875 713.375,432.0 718.375,420.125 722.5,407.375 725.625,394.125 727.25,380.625 727.0,367.5"/>
    <polyline points="724.375,355.625 719.25,345.75 711.25,338.625 700.625,334.875 687.75,335.125 673.0,339.125 657.375,346.75 641.25,357.375 625.5,370.0 610.625,383.875 597.0,398.25 584.75,412.375 573.875,425.875 556.375,449.875 543.5,469.0 524.625,498.5 516.5,509.375"/>
    <polyline points="514.875,510.875 512.0,513.25 509.375,514.75 506.875,515.5 503.25,516.0 493.25,515.25 482.125,513.625"/>
    <line x1="480.625" x2="433.5" y1="513.5" y2="506.875"/>
    <polyline points="431.125,506.375 417.5,504.125 398.25,500.25 374.0,494.125 364.375,491.25 347.75,485.5 334.75,480.25 327.5,477.0"/>
    <polyline points="319.75,473.375 302.25,463.875 292.375,457.875 281.625,450.875 270.0,442.625 257.5,432.75 244.375,421.25 230.875,408.125 218.0,393.25 207.0,377.25 199.625,361.25 198.75,347.5 206.875,338.75 225.875,338.125 255.5,348.0 292.75,368.375 333.0,397.125 371.875,430.75 406.0,465.5 434.0,498.875 455.5,529.25 471.25,555.875 482.125,579.0 488.75,598.625 492.25,615.125"/>
    <polyline points="493.0,628.875 491.875,640.0 489.0,648.875 485.125,655.625 480.375,660.375 475.25,663.0 470.0,664.0 464.875,663.125 460.125,660.625 455.75,656.875 452.0,651.75 449.0,645.75 446.625,639.0 445.0,631.75 444.0,624.25 443.5,616.625 443.625,609.0 444.125,601.625 445.0,594.5 447.625,581.375 449.25,575.5 452.75,565.0 456.625,556.125"/>
    <polyline points="458.5,552.25 464.125,542.75 469.375,535.75 474.125,530.5 480.75,524.5 484.875,521.375 490.375,517.75"/>
    <polyline points="490.875,517.375 495.5,514.25 496.125,513.5 496.375,512.5 494.625,511.25 488.25,509.875"/>
    <line x1="487.75" x2="466.25" y1="509.75" y2="506.125"/>
    <polyline points="464.875,505.875 454.875,504.0 436.125,499.75 415.625,494.0"/>
    <polyline points="412.625,493.125 387.875,484.125 379.5,480.5 365.5,473.75 355.25,468.125 344.375,461.625 327.625,449.625 317.0,440.625 312.375,435.875 308.375,431.125 305.25,426.625 303.375,422.625"/>
    <polyline points="303.0,419.375 304.375,417.0 307.875,416.125 313.25,416.75 320.875,419.25 330.125,423.625 341.0,429.75 353.0,437.375 365.5,446.25 378.125,455.875 390.5,466.0 413.25,485.875 448.0,518.125 465.75,533.75 474.75,540.5 478.75,543.0 482.25,545.0 488.75,547.625"/>
    <polyline points="491.625,548.5 497.0,549.5 501.875,549.625 506.375,549.375 514.875,547.875 534.5,543.25 544.25,541.625"/>
    <polyline points="546.25,541.25 556.625,540.125 570.0,539.375 607.625,539.375"/>
    <polyline points="610.875,539.375 631.875,539.25 643.875,538.625 652.5,537.75 661.875,536.5 672.0,534.375 677.5,533.0 689.125,529.125 702.25,523.125 709.5,519.0 717.125,513.875 725.5,507.5 734.375,499.625 744.125,489.875"/>
    <polyline points="754.5,477.625 765.75,462.625 777.625,444.0 789.875,421.25 802.0,394.0 812.875,362.0 820.875,326.0 823.625,288.125 818.125,252.5 802.0,224.625 774.5,210.375 737.25,213.25 695.0,233.125 652.625,265.625 614.375,305.0 582.75,345.75 558.25,384.25 540.75,418.625 529.125,448.25 522.5,473.0 519.875,493.625 520.625,510.375 523.75,524.0 528.875,534.625 535.25,542.875 542.375,548.75"/>
    <polyline points="549.875,552.5 557.25,554.5 564.125,554.875 570.375,553.875 575.875,551.625 580.25,548.375 583.875,544.375 586.375,540.0 588.25,535.375 589.25,530.625 589.625,521.5 589.125,517.375 587.125,510.0 585.875,507.0 583.125,501.875 580.125,498.125 577.125,495.5 574.25,493.875 571.625,493.0"/>
    <polyline points="570.375,492.875 568.125,492.75 566.125,493.0 563.625,493.75 561.625,494.875 559.75,496.5 559.0,497.625 558.625,498.75 558.625,499.75 559.0,500.375"/>
    <polyline points="559.125,500.75 561.625,502.375 566.125,503.25 572.375,503.375 576.875,503.0"/>
    <polyline points="578.125,502.75 583.5,502.0 589.5,500.625 601.625,496.5 611.75,491.75 616.0,489.25 622.625,484.625"/>
    <polyline points="624.875,482.875 629.5,479.125 634.0,474.75 638.5,469.75 642.75,464.25 644.75,461.375 648.25,455.125 651.125,448.625 652.25,445.375 653.0,442.125 653.75,435.75 653.0,430.25 652.0,427.75 650.5,425.75 648.75,424.125 646.5,422.875 643.75,422.125 640.75,422.0"/>
    <polyline points="637.375,422.25 633.75,423.0 625.625,426.0 617.0,430.75 612.625,433.5 604.0,439.875 595.625,446.625 587.875,453.5 577.375,463.375 553.25,487.125"/>
    <polyline points="551.5,488.75 544.5,495.125 531.0,506.5"/>
    <polyline points="530.75,506.75 529.625,508.375 529.5,509.25 530.375,510.375 531.5,510.875"/>
    <polyline points="531.875,511.0 537.625,512.0 545.0,512.375"/>
    <polyline points="545.75,512.375 558.5,512.25 575.0,510.625"/>
    <polyline points="576.625,510.375 585.625,508.75 593.625,506.75 600.125,504.75 609.75,501.0 615.0,498.625 623.25,494.0 626.125,492.25 635.125,485.75"/>
    <polyline points="638.125,483.25 647.5,474.25 653.625,467.0 659.5,458.625 664.875,449.375 669.125,439.25 670.75,434.0 671.875,428.75 672.5,423.625 672.5,418.75 671.875,414.125 670.5,410.0 668.5,406.5 665.5,403.625 661.875,401.75 657.5,400.75 652.5,400.75 646.875,401.75 640.75,403.75 634.375,406.5"/>
    <polyline points="627.75,410.125 621.0,414.5 614.375,419.25 607.875,424.375 595.375,435.25 584.125,446.125 546.375,485.375 539.375,491.875 530.125,499.0"/>
    <polyline points="528.625,500.125 524.25,502.625 517.125,505.875 511.125,507.625 505.875,508.625 502.5,508.875"/>
    <polyline points="501.75,509.0 496.875,509.25 491.0,509.125 479.625,508.125"/>
    <polyline points="478.625,508.0 462.125,505.625 440.625,501.25"/>
    <polyline points="438.5,500.75 429.0,498.5 412.0,493.625 390.625,486.125 377.75,480.75 368.25,476.25 357.875,471.0 346.75,464.625"/>
    <polyline points="341.0,461.0 329.0,452.75 323.0,448.125 311.5,438.125 306.5,433.0 302.125,427.75 298.875,422.75 296.875,418.375 296.75,414.75 298.625,412.375 302.75,411.5 309.375,412.625 318.125,415.75 329.0,421.125 341.5,428.375 354.875,437.375 368.75,447.625 382.5,458.625 395.75,469.75 419.375,491.375 447.0,518.125"/>
    <polyline points="454.25,525.125 466.375,536.25 475.875,544.125 483.625,549.375 487.125,551.25 493.125,553.625 498.5,554.875 503.375,555.125 507.875,554.875 516.25,553.375 528.25,550.375"/>
    <polyline points="530.125,550.0 542.125,547.625 550.25,546.625 560.875,546.0 572.25,546.125 584.5,547.0"/>
    <polyline points="587.125,547.375 600.625,549.375 612.25,552.0 624.5,555.875 633.875,560.125 643.125,566.25 648.75,571.75 653.875,579.125 655.875,583.75 657.625,589.125"/>
    <polyline points="658.75,595.375 659.125,602.75 658.625,611.625 657.0,622.0 653.75,634.375 648.5,649.125 640.75,666.625 629.625,687.125 614.375,710.75 594.125,737.375 568.125,766.0 536.125,794.875 498.5,820.625 457.5,839.0 416.0,845.75 378.125,837.875 347.25,815.5 325.0,781.375 311.125,740.375 304.0,697.25 301.375,655.625 301.625,617.75 303.375,584.625 305.625,556.375 308.125,532.75 310.625,513.125"/>
    <polyline points="313.25,497.25 316.125,484.5 319.375,474.5 323.125,467.0 327.625,461.75 332.75,458.375 338.75,456.875 345.375,456.875 352.625,458.25 360.375,461.0 368.5,464.5 376.75,468.875 393.125,478.875 408.5,489.5 434.25,508.0 444.625,515.0 457.25,522.5 461.0,524.25"/>
    <polyline points="464.375,525.75 467.5,527.0 475.875,529.25 485.125,530.125 491.0,529.75 496.25,529.0 511.875,525.125"/>
    <polyline points="513.125,524.875 526.875,521.625 541.875,519.5"/>
    <polyline points="543.125,519.375 565.875,517.125 582.5,514.625"/>
    <polyline points="584.625,514.25 596.0,511.75 606.25,508.625 617.75,504.125 627.125,499.25 633.875,495.25 644.625,487.375 652.125,480.75 659.75,472.625"/>
    <polyline points="663.625,468.0 671.125,457.625 678.0,445.5 681.0,439.0 683.75,432.0 685.875,425.0 687.375,417.75 688.125,410.75 688.0,403.875 686.75,397.625 684.5,392.25 681.125,387.75 676.5,384.5 670.75,382.75 664.0,382.5 656.375,383.875 648.125,386.75 639.375,391.0 630.5,396.375 621.5,402.75 612.875,409.625 596.375,424.625 589.0,432.125"/>
    <polyline points="582.0,439.5 569.75,453.0 543.75,482.625 532.5,493.875 528.0,497.75 522.125,501.875 515.375,505.375 509.5,507.375"/>
    <polyline points="508.0,507.625 502.75,508.625 496.375,509.125 487.5,509.125 475.375,508.125"/>
    <polyline points="474.0,508.0 463.0,506.625 452.25,504.875 439.5,502.375 424.25,498.75"/>
    <polyline points="421.375,498.0 408.75,494.5 389.875,488.125 371.5,480.75 355.125,472.875 336.5,462.25 322.75,453.25 308.625,442.375 295.125,429.875"/>
    <polyline points="289.375,423.25 284.625,416.75 281.375,410.625 280.375,405.375 281.875,401.5 286.375,399.75 294.25,400.5 305.25,404.125 319.0,410.75 334.75,420.125 351.75,431.875 369.0,445.125 385.75,459.25 401.5,473.5 415.875,487.25 428.5,500.125 439.75,511.875 471.0,546.125 476.375,551.625 485.0,560.0 491.75,565.25"/>
    <polyline points="494.625,567.125 497.25,568.375 502.0,569.875 504.125,570.25 508.125,570.25 513.75,569.25 527.875,564.875 533.25,563.5 542.375,562.0"/>
    <polyline points="544.25,561.875 551.75,561.75 559.375,562.5 567.125,564.25 571.0,565.625 576.75,568.375 580.5,570.75 585.75,575.5 588.75,579.5 590.125,581.875"/>
    <polyline points="591.375,584.375 593.25,590.5 593.875,594.0 594.25,597.875 594.25,602.125 593.75,606.875 592.875,612.125 589.375,624.25 586.5,631.25 582.875,638.875 578.125,647.0 572.5,655.75 565.5,665.0 557.375,674.5 547.875,684.125 537.0,693.5 525.0,702.25 512.0,709.75 498.25,715.625 484.125,719.125 470.25,720.125 457.125,718.0 445.0,712.875 434.5,704.875"/>
    <polyline points="425.75,694.375 418.75,681.875 413.75,668.125 410.25,653.625 408.25,639.0 407.5,624.625 407.5,611.0 408.375,598.25 409.625,586.5 413.25,566.25 417.25,550.125 421.25,537.75 426.75,524.5 431.25,515.875 436.5,507.75"/>
    <polyline points="437.25,506.75 438.5,505.0 439.75,502.5 439.875,501.5 439.125,500.0 436.625,498.125 428.875,494.75"/>
    <polyline points="427.625,494.25 418.5,490.875 400.0,483.25 384.625,475.75 373.625,469.5"/>
    <polyline points="371.0,467.875 365.75,464.375 356.875,457.375 353.0,453.0 352.5,451.875 352.5,451.0 353.0,450.5 354.0,450.25 357.625,451.125 360.25,452.125 367.125,455.5 380.125,463.25 399.875,476.75"/>
    <polyline points="404.75,480.25 430.625,498.5 440.875,504.875 446.625,508.0 456.25,512.25 460.25,513.5 466.75,514.75 471.625,515.0"/>
    <polyline points="472.75,514.875 476.25,514.5 479.625,513.375 480.875,512.625 481.375,511.75 481.375,511.25 480.75,510.5"/>
    <polyline points="480.5,510.25 475.75,508.375 463.375,505.5"/>
    <polyline points="462.25,505.25 438.375,499.875 419.5,494.625 413.875,492.75"/>
    <polyline points="410.875,491.875 397.75,487.125 386.375,482.5 378.125,478.75 364.5,472.0 354.625,466.375 344.25,459.875 333.875,452.5 324.0,444.25 319.5,440.0 315.625,435.75 312.5,431.625 310.375,427.875 309.375,424.75"/>
    <polyline points="310.0,422.25 312.125,420.875 316.125,420.875 322.0,422.25 329.5,425.25 338.5,429.875 348.625,435.875 359.625,443.125 382.5,460.125 393.625,469.25 414.25,486.875 446.375,515.75 458.125,525.75 463.25,529.75 472.0,535.875 479.375,539.875 485.75,542.5"/>
    <polyline points="488.625,543.25 491.375,543.875 496.5,544.375 505.625,543.875 513.75,542.375 528.875,538.75 540.0,536.5"/>
    <polyline points="541.875,536.25 557.625,534.125 599.0,530.875"/>
    <polyline points="601.875,530.5 611.375,529.375 621.75,527.625 629.25,526.0 641.5,522.625 655.375,517.125 660.375,514.75 671.125,508.625 683.0,500.25 689.375,495.0 696.0,488.75 703.0,481.5 710.375,473.0 717.875,463.125 725.5,451.5"/>
    <polyline points="733.25,438.25 740.75,423.25 747.625,406.25 753.375,387.625 757.375,368.0 758.875,348.0 756.75,329.0 750.625,312.75 739.625,300.875 724.125,295.0 704.625,296.0 682.5,303.875 659.125,317.625 636.125,335.75 614.75,356.375 595.625,377.875 579.125,398.875 565.25,418.5 554.0,436.375 544.875,452.125 537.75,465.875 532.25,477.625 528.125,487.5 525.125,495.75 521.375,508.25"/>
    <polyline points="520.375,512.875 519.5,519.375 519.625,524.5 520.25,526.125 519.0,523.375 517.25,521.375 514.875,519.5 510.875,517.25"/>
    <polyline points="509.75,516.75 503.875,514.75 497.5,513.375 492.125,512.375 475.875,510.375"/>
    <polyline points="474.375,510.125 456.75,507.75 441.875,505.25 420.875,500.875"/>
    <polyline points="417.875,500.25 397.125,494.75 380.0,489.125 370.125,485.5 359.125,480.875 340.0,471.75 325.25,463.5 317.125,458.5 299.875,446.5 290.625,439.375 281.375,431.375 272.375,422.625"/>
    <polyline points="263.875,413.25 256.625,403.625 251.5,394.125 249.5,385.875 251.75,379.625 258.875,376.75 271.625,378.25 289.5,385.0 311.375,396.75 335.5,412.875 360.25,432.0 383.875,452.75 405.375,473.625 424.125,493.625 439.875,512.0 453.0,528.5 463.5,542.875 472.0,555.25 478.625,565.625 488.0,581.5 497.625,600.375"/>
    <polyline points="498.375,601.875 499.5,603.0 500.25,602.625 504.125,593.125 508.625,585.375 513.25,579.75 518.625,574.875"/>
    <polyline points="520.125,573.875 527.75,569.5 536.0,566.75 539.375,566.125 542.875,565.625 549.875,565.375 557.125,566.25 562.5,567.625"/>
    <polyline points="564.375,568.25 567.875,569.75 573.0,572.875 576.25,575.5 579.25,578.75 581.875,582.625 584.0,587.375 585.5,593.125 585.875,596.5 586.0,600.125 585.125,608.5 584.125,613.375 582.625,618.625 580.625,624.25 577.875,630.375 574.5,637.0 570.25,644.125"/>
    <polyline points="565.125,651.5 559.125,659.25 552.125,667.125 544.125,675.0 535.0,682.5 525.125,689.5 514.375,695.625 503.125,700.375 491.625,703.5 480.125,704.625 469.125,703.625 458.75,700.25 449.5,694.625 441.5,687.0 434.875,677.625 429.75,667.0 426.0,655.5 423.375,643.5 421.875,631.375 421.375,619.5 421.5,608.25 423.5,587.625 425.125,578.5 428.75,562.75"/>
    <polyline points="430.625,556.125 432.625,550.125 436.5,540.125 440.125,532.375 444.875,524.0 449.875,516.75 455.0,510.0 455.875,508.375 456.125,507.0"/>
    <polyline points="456.0,506.625 455.5,505.5 453.75,504.125 450.25,502.5 433.75,497.125"/>
    <polyline points="432.0,496.625 407.5,488.25 392.625,482.125 378.875,475.625 367.75,469.5 360.0,464.75"/>
    <polyline points="356.125,462.25 345.25,454.125 339.0,448.625 334.5,443.375 333.125,441.125 332.625,439.25 332.875,437.875 334.0,437.125 336.25,437.0 339.5,437.625 343.625,439.125 348.75,441.375 361.5,448.5 383.75,463.625 399.0,475.125 419.75,491.625"/>
    <polyline points="426.0,496.5 442.125,508.875 451.0,515.0 462.125,521.375 468.25,524.125 473.75,525.875 480.75,527.25 486.875,527.5 492.125,527.125 498.375,526.125"/>
    <polyline points="499.75,525.875 519.25,521.0 527.0,519.5"/>
    <polyline points="528.0,519.375 534.875,518.375 555.75,516.5"/>
    <polyline points="557.125,516.375 571.0,515.0 584.125,512.875 595.0,510.375 604.875,507.375"/>
    <polyline points="607.5,506.375 613.0,504.25 624.875,498.375 631.375,494.5 638.125,489.75 648.625,480.875 655.875,473.375 659.5,469.125 666.5,459.625 669.875,454.25 673.125,448.625 676.0,442.625 678.625,436.375 680.75,429.875 682.375,423.25 683.375,416.75"/>
    <polyline points="683.5,410.5 682.875,404.5 681.25,399.25 678.625,394.625 674.875,391.25 670.125,388.875 664.5,387.875 658.0,388.25 650.75,390.0 642.875,393.125 634.875,397.375 626.625,402.5 618.375,408.5 610.375,414.875 602.625,421.75 595.25,428.625 581.875,442.125 545.625,482.125"/>
    <polyline points="542.625,485.25 534.75,492.875 530.25,496.625 526.25,499.625 521.0,502.875 513.5,506.125 509.5,507.25 501.0,508.625"/>
    <polyline points="499.75,508.75 495.125,509.0 484.625,508.75 478.25,508.25 468.5,507.0"/>
    <polyline points="467.0,506.875 447.75,503.625 434.5,500.75 418.25,496.625 412.0,494.75"/>
    <polyline points="408.75,493.75 398.0,490.25 385.75,485.75 366.75,477.5 350.0,468.875 331.25,457.375 317.875,447.75 304.75,436.5 298.75,430.5 293.5,424.375 289.375,418.5 286.75,413.0 286.125,408.375"/>
    <polyline points="288.0,405.25 292.625,403.875 300.125,404.875 310.375,408.5 323.25,414.75 337.875,423.5 353.5,434.375 369.5,446.5 385.25,459.5 400.0,472.625 425.75,497.375 436.625,508.375 461.5,534.5 478.0,550.75 482.25,554.375 489.375,559.625 495.375,562.625 500.375,564.25"/>
    <polyline points="502.75,564.5 509.25,564.5 515.125,563.375 530.25,559.25 539.75,557.375 547.625,556.5 551.625,556.375"/>
    <polyline points="553.625,556.375 561.75,556.75 566.0,557.25 572.375,558.5 579.0,560.375 585.5,563.0 592.0,566.75 598.125,571.75 601.875,576.125 605.0,581.5"/>
    <polyline points="606.375,584.75 608.375,592.25 608.875,596.75 608.5,607.5 607.375,613.875 605.625,621.0 603.0,629.0 599.375,637.875 594.5,647.75 588.25,658.625 580.375,670.375 570.75,682.875 559.125,695.875 545.625,708.875 530.0,721.375 512.75,732.375 494.25,741.125 475.125,746.5 456.375,747.875 438.625,744.375 423.0,736.25 409.75,723.875 399.5,708.0 392.0,689.75"/>
    <polyline points="387.0,670.25 384.125,650.5 383.0,631.25 383.125,613.125 384.125,596.375 385.75,581.375 387.625,568.0 389.75,556.25 394.125,537.25 398.25,523.25 400.125,517.875 403.625,509.375 408.0,501.125 411.5,496.375 415.125,493.125 415.875,492.75"/>
    <polyline points="416.5,492.375 419.25,491.0 419.5,490.5 417.875,489.375 413.75,487.375"/>
    <polyline points="412.875,487.125 395.5,478.625 385.0,472.375"/>
    <polyline points="384.125,471.75 381.25,469.5 380.25,468.125 381.125,468.0 385.625,469.875 401.0,478.75"/>
    <polyline points="403.0,480.0 422.625,491.75 430.875,496.0 435.25,497.625"/>
    <polyline points="435.5,497.75 436.125,497.75 431.875,495.625 420.875,491.375"/>
    <polyline points="419.5,490.875 407.375,486.0 392.25,479.0 377.75,471.125 370.625,466.625 366.375,463.5"/>
    <polyline points="364.5,462.0 362.75,460.625 359.0,456.75 358.375,455.75 358.25,454.375 358.75,454.0 359.75,454.0 363.125,454.875 374.875,460.75 386.75,468.125 416.0,488.25"/>
    <polyline points="419.875,490.875 430.25,497.75 439.0,503.0 450.625,508.5 455.875,510.25 460.25,511.25 463.625,511.625 467.75,511.375"/>
    <polyline points="504.625,514.25 496.625,514.5 468.375,511.375 470.375,510.625 471.0,509.875 471.0,509.375 469.75,508.125 465.5,506.375"/>
    <line x1="464.75" x2="429.0" y1="506.125" y2="496.75"/>
    <polyline points="426.75,496.0 414.0,492.0 401.875,487.75 387.875,482.0 375.875,476.375 362.75,469.5 353.5,463.875 344.0,457.625 334.75,450.625"/>
    <polyline points="330.5,446.875 323.125,439.5 320.375,436.0 318.375,432.75 317.5,430.0 317.75,427.875 319.5,426.625 322.625,426.5 327.25,427.5 333.375,429.75 340.75,433.25 349.25,438.0 358.625,443.875 368.375,450.625 378.5,458.0 398.25,473.625 444.75,513.25 455.625,521.75"/>
    <polyline points="460.375,525.25 468.75,530.5 475.75,534.125 484.75,537.125 490.0,538.0 496.875,538.125 503.125,537.5 514.375,535.25 521.25,533.5"/>
    <polyline points="522.875,533.125 537.75,530.0 555.125,527.5 566.75,526.25"/>
    <polyline points="568.875,526.0 582.25,524.5 592.25,523.0 609.5,519.5 616.0,517.75 626.5,514.125 634.125,511.0 642.25,507.0"/>
    <polyline points="646.5,504.5 651.0,501.75 660.375,495.125 665.375,491.125 675.75,481.375 681.125,475.5 686.625,468.875 692.25,461.5 697.75,453.25 703.125,444.0 708.25,433.875 712.875,422.875 716.875,411.125 719.875,398.75 721.5,386.375 721.375,374.375 719.375,363.25 715.0,353.75 708.125,346.625 698.875,342.5 687.375,341.75 674.25,344.5 660.0,350.5 645.125,359.375"/>
    <polyline points="630.25,370.375 616.125,382.75 602.875,395.875 590.75,409.125 579.875,421.875 561.875,445.125 542.875,472.125 527.625,494.5 520.25,504.0 518.25,506.25 513.125,510.75 510.125,512.5 505.875,513.875"/>
    <polyline points="466.625,511.0 438.375,507.0 407.75,501.25"/>
    <polyline points="404.375,500.5 389.625,496.875 372.0,491.875 350.375,484.125 330.125,475.25 322.375,471.375 305.0,461.625 295.375,455.625 284.875,448.5 273.625,440.125 261.875,430.5 249.625,419.5 237.5,407.0 226.375,393.25"/>
    <polyline points="217.375,379.125 212.5,365.5 213.625,354.5 223.0,348.5 241.5,349.875 268.625,360.0 302.0,379.0 337.625,404.625 372.25,434.375 403.0,465.125 428.875,494.75 449.375,521.75 465.0,545.875 476.375,566.625 484.25,584.375 489.25,599.25 491.875,611.75 492.75,622.0 492.125,630.125 490.5,636.625 488.125,641.375 485.25,644.625 482.0,646.5 478.625,647.0 475.375,646.375 472.25,644.75"/>
    <polyline points="469.375,642.125 467.0,638.625 464.875,634.5 463.25,629.875 462.0,624.875 461.25,619.5 460.875,614.0 461.125,603.0 462.75,592.25 465.125,582.5 466.625,578.0 469.75,569.75 473.25,562.5 478.75,553.625 482.375,548.875 487.75,543.0"/>
    <polyline points="489.5,541.25 497.625,534.75 500.625,532.75 506.375,529.625 510.375,527.75 516.625,525.375 523.75,523.375"/>
    <polyline points="525.0,523.125 528.375,522.25 536.625,520.875 556.5,518.625"/>
    <polyline points="558.0,518.5 575.125,516.5 589.75,513.875 604.625,509.875 610.125,507.875"/>
    <polyline points="613.0,506.875 625.375,501.125 635.5,495.125 642.75,489.875 650.375,483.625 658.125,475.875 666.0,466.625 669.875,461.375 673.625,455.75 680.5,443.0 683.625,436.125 686.125,428.875 688.125,421.5 689.5,414.125 690.0,406.875 689.5,400.0"/>
    <polyline points="687.875,393.75 685.125,388.5 681.125,384.375 675.875,381.5 669.5,380.375 662.125,380.75 654.0,382.875 645.125,386.5 636.125,391.375 626.875,397.5 617.75,404.375 608.875,411.875 600.375,419.625 592.5,427.375 578.25,442.5 544.5,481.25 535.375,490.75"/>
    <polyline points="532.75,493.25 525.875,499.125 520.125,502.875 515.125,505.5 509.125,507.5 503.5,508.625 497.0,509.25 493.0,509.25"/>
    <polyline points="491.75,509.25 485.25,509.125 475.5,508.375 464.625,507.0 454.0,505.25"/>
    <polyline points="452.125,505.0 431.875,500.875 411.5,495.625 393.25,489.75 375.375,482.875"/>
    <polyline points="370.375,480.625 353.75,472.75 334.75,461.875 320.75,452.5 313.5,447.125 299.125,435.0 292.5,428.375 286.5,421.5 281.75,414.75 278.625,408.5 277.875,403.25 279.75,399.375 284.875,397.75 293.5,398.875 305.25,403.125 319.875,410.5 336.5,420.625 354.25,433.125 372.0,447.125 389.125,461.75"/>
    <polyline points="405.0,476.5 419.25,490.5 443.0,515.5 478.5,555.0 486.75,563.125 490.25,566.0 495.875,569.875 498.375,571.125 502.875,572.5 506.875,572.75 510.5,572.375 519.125,569.875"/>
    <polyline points="520.875,569.375 532.875,565.625 541.625,564.125 545.25,563.875 552.625,564.0 558.125,564.75 565.625,566.75"/>
    <polyline points="567.375,567.375 571.125,569.125 576.375,572.375 579.75,575.25 582.75,578.75 585.375,583.0 587.5,588.125 588.25,591.125 589.125,598.125 588.625,606.5 587.875,611.375 584.625,622.375 582.125,628.75 578.75,635.625 574.625,642.875 569.625,650.75"/>
    <polyline points="563.625,658.875 556.5,667.375 548.25,675.875 538.875,684.25 528.5,692.125 517.125,699.0 505.125,704.75 492.75,708.625 480.25,710.5 468.25,709.875 456.875,706.625 446.75,700.875 438.0,692.875 430.75,683.0 425.125,671.5 420.875,659.0 418.125,646.125 416.625,633.125 416.0,620.375 416.25,608.25 417.125,596.875 418.375,586.25 420.0,576.75 423.75,560.25 425.75,553.25"/>
    <polyline points="427.75,547.125 431.625,537.0 435.25,529.125 438.375,523.125 442.375,516.75 448.625,508.0 449.625,505.75 449.625,504.75 449.25,504.0"/>
    <polyline points="449.0,503.625 447.375,502.25 443.75,500.375 420.625,492.375"/>
    <polyline points="418.5,491.625 406.875,487.25 393.0,481.375 380.375,475.25 373.75,471.625 363.5,465.375 356.75,460.875 350.625,456.125 345.375,451.375"/>
    <polyline points="343.375,449.25 340.625,445.375 340.25,443.875 340.5,442.875 341.5,442.25 343.375,442.125 349.375,443.875 353.625,445.75 364.0,451.5 376.375,459.25 382.875,463.75 396.0,473.25 425.625,495.875 444.0,508.875"/>
    <polyline points="447.75,511.25 454.75,515.25 460.75,518.125 466.125,520.125 472.875,521.875 478.625,522.5 483.625,522.5 490.375,521.625 495.75,520.375"/>
    <line x1="496.75" x2="512.0" y1="520.125" y2="515.375"/>
    <polyline points="512.5,515.25 517.75,514.25 521.875,513.875"/>
    <line x1="522.25" x2="534.625" y1="513.875" y2="513.75"/>
    <polyline points="535.375,513.75 546.25,513.75 557.875,513.25"/>
    <polyline points="559.125,513.125 573.5,511.75 584.0,510.0 592.0,508.125 603.375,504.625"/>
    <polyline points="605.75,503.625 616.25,499.125 621.875,496.125 627.75,492.5 633.875,488.125 640.125,483.125 649.875,473.625 659.375,461.625 665.125,452.25 667.75,447.125 672.0,436.375 673.625,430.875 674.625,425.375"/>
    <polyline points="675.125,420.0 674.875,414.875 674.0,410.125 672.25,406.0 669.75,402.5 666.375,400.0 662.125,398.375 657.125,397.75 651.625,398.25 645.375,399.75 638.875,402.25 632.0,405.75 624.875,410.0 617.875,414.875 604.25,425.75 591.5,437.375 580.25,448.625 554.75,475.75"/>
    <polyline points="551.5,479.125 538.5,491.875 532.5,496.75 527.375,500.375 520.125,504.25 514.25,506.5 510.0,507.5"/>
    <polyline points="509.0,507.75 502.375,508.75 498.625,509.0 490.5,509.0 485.625,508.625"/>
    <polyline points="484.625,508.625 469.5,506.875 450.625,503.5"/>
    <polyline points="448.75,503.125 428.875,498.625 408.625,492.75 390.25,486.25 372.5,478.625"/>
    <polyline points="367.625,476.25 362.375,473.75 351.5,467.875 333.75,456.75 321.5,447.625 309.75,437.375 304.625,432.0 300.125,426.625 296.75,421.5 294.875,417.0 294.875,413.25 296.875,410.875 301.375,410.125 308.25,411.375 317.625,414.75 328.875,420.5 341.875,428.25 355.75,437.625 370.0,448.25 384.125,459.625 397.5,471.25"/>
    <polyline points="410.0,482.5 431.75,503.25 462.5,533.375 473.125,542.75 481.5,549.125 485.125,551.5 491.5,554.625 497.125,556.25 499.625,556.625 502.0,556.875 506.625,556.75 513.125,555.875 519.125,554.5"/>
    <polyline points="521.125,554.0 535.0,550.625 547.0,548.75 559.625,548.0 573.125,548.375"/>
    <polyline points="575.5,548.625 585.375,549.75 598.375,552.375 609.5,555.75 618.0,559.375 623.625,562.5 626.375,564.375 631.75,568.875 634.25,571.5 636.625,574.625 638.875,578.125 640.875,582.125"/>
    <polyline points="642.5,586.75 643.75,592.125 644.375,598.25 644.375,605.5 643.5,613.875 641.5,623.75 638.25,635.25 633.0,648.625 625.75,664.125 615.625,682.0 602.125,702.25 584.75,724.5 563.0,748.0 536.625,771.5 506.125,792.625 472.75,808.625 438.5,816.5 406.0,813.875 378.0,800.0 356.0,776.125 340.625,745.25 331.125,710.625 326.375,675.25 324.875,641.5 325.375,610.875 327.0,583.75"/>
    <polyline points="329.25,560.375 331.625,540.625 334.125,524.0 339.0,499.125 341.625,490.125 344.375,483.0 347.25,477.5 350.5,473.5 354.125,470.625 358.0,469.0 362.125,468.25 366.625,468.5 371.375,469.375 376.375,470.75 381.5,472.75 392.0,477.75 402.25,483.5 429.25,500.0"/>
    <polyline points="433.0,502.25 448.625,510.375 453.625,512.375 460.0,514.375 465.25,515.375 469.625,515.75 473.25,515.625 478.375,514.75"/>
    <polyline points="479.0,514.625 481.875,513.375 483.0,512.125 483.125,511.75 482.75,511.0 481.0,509.875"/>
    <polyline points="480.5,509.625 475.5,508.125 459.625,504.75"/>
    <polyline points="458.25,504.5 431.375,498.125 418.75,494.5 403.625,489.375"/>
    <polyline points="400.125,488.125 385.125,482.125 376.625,478.25 367.5,473.75 357.75,468.5 347.5,462.25 337.0,455.125 326.625,447.0 321.875,442.75 313.75,434.125 310.75,430.0 308.875,426.25 308.375,423.25 309.375,421.0 312.125,420.0 316.75,420.375"/>
    <polyline points="323.25,422.25 331.375,425.875 341.0,431.0 351.625,437.5 363.0,445.25 374.625,453.875 397.375,472.25 417.75,490.0 442.375,512.375 455.125,523.5 465.5,531.75 469.875,534.875 474.0,537.5 481.125,541.375 487.375,543.625 490.25,544.375 495.5,545.125"/>
    <polyline points="498.0,545.25 504.75,544.875 511.125,543.875 528.375,539.75 539.625,537.5 547.375,536.375"/>
    <polyline points="549.25,536.0 565.875,534.375 593.125,532.625 611.25,530.875"/>
    <polyline points="614.625,530.5 629.125,528.0 637.125,526.125 650.375,521.875 660.125,517.875 670.875,512.25 682.75,504.5 695.875,493.75 703.0,486.875 710.375,478.875 718.125,469.375 726.125,458.25 734.25,445.25 742.375,430.25 750.0,413.25 756.875,394.25"/>
    <polyline points="762.25,373.5 765.25,352.0 764.875,330.875 760.25,311.75 750.5,296.625 735.5,287.75 715.75,286.25 692.625,292.5 667.75,305.75 642.875,324.375 619.5,346.25 598.625,369.375 580.625,392.25 565.625,413.625 553.5,433.125 544.0,450.375 536.625,465.25 531.125,477.875 527.0,488.5 522.375,504.75 520.875,515.625 520.75,519.5 521.5,524.75"/>
    <polyline points="522.125,526.375 522.75,527.5 524.0,528.625 524.875,528.375 525.5,527.5 525.125,524.375 523.625,521.875 522.125,520.125 519.5,518.0 516.25,516.125 512.875,514.625"/>
    <polyline points="511.625,514.25 501.625,512.0 478.375,509.375"/>
    <polyline points="476.875,509.25 454.625,506.25 439.625,503.5 426.875,500.75"/>
    <polyline points="424.0,500.0 411.75,496.875 389.125,489.875 370.25,482.5 353.375,474.75 340.625,468.0 326.375,459.5 311.0,448.875 303.0,442.75 295.0,436.0"/>
    <polyline points="287.25,428.75 280.0,421.0 273.875,413.125 269.25,405.5 266.875,398.625 267.625,393.25 272.125,390.125 280.625,390.0 293.25,393.625 309.375,401.125 328.125,412.25 348.25,426.375 368.5,442.375 388.0,459.25 405.875,476.25 421.75,492.5 435.5,507.375 447.25,520.875 457.25,532.75 482.875,565.0 493.25,577.125"/>
    <polyline points="495.75,579.5 499.875,582.5 501.625,583.375 504.875,584.125 507.625,583.875 513.0,581.625 521.0,577.125 525.25,575.125 532.75,572.5"/>
    <polyline points="534.25,572.125 538.875,571.25 545.25,571.0 551.625,571.75 556.375,573.125 561.0,575.125 565.25,578.125 569.125,582.25 571.25,585.625"/>
    <polyline points="572.125,587.625 573.0,589.75 574.125,594.625 574.5,600.375 573.75,607.25 571.875,615.125 568.25,624.25 565.75,629.25 562.625,634.5 559.0,640.0 554.75,645.625 549.875,651.375 544.25,657.125 538.0,662.75 531.125,668.125 523.75,672.875 515.75,677.125 507.625,680.375 499.25,682.5 490.875,683.5 482.625,683.0"/>
    <polyline points="474.875,681.0 467.75,677.625 461.375,672.875 455.875,666.875 451.125,659.875 447.5,652.0 444.625,643.5 442.75,634.75 441.5,625.75 441.0,617.0 441.125,608.375 441.625,600.125 443.75,585.0 445.25,578.25 448.625,566.25 454.25,552.0 459.75,541.5 464.875,533.875"/>
    <polyline points="466.375,531.75 473.125,524.25 484.125,514.75 485.25,513.25"/>
    <polyline points="485.375,513.0 485.625,512.125 485.375,511.5 484.5,510.75 482.0,509.625 478.0,508.625"/>
    <line x1="477.375" x2="448.125" y1="508.375" y2="502.25"/>
    <polyline points="446.375,501.875 427.375,497.125 407.625,491.0 390.0,484.375 373.125,476.75"/>
    <polyline points="368.375,474.5 353.5,466.25 343.0,459.625 332.25,452.0 322.0,443.5 313.375,434.625 310.125,430.375 307.875,426.375 307.0,423.0 307.625,420.5 310.0,419.125 314.25,419.125 320.375,420.75 328.375,424.0 337.875,428.875 348.625,435.25 360.125,443.0 372.0,451.625 395.25,470.375"/>
    <polyline points="406.25,479.75 448.625,518.125 460.375,528.25 470.0,535.5 474.125,538.25 477.875,540.5 484.625,543.625 490.5,545.375 493.25,545.875 498.25,546.375 503.0,546.25 507.375,545.75 513.5,544.5"/>
    <polyline points="515.5,544.125 529.0,540.875 540.375,538.625 556.25,536.5 564.875,535.75"/>
    <polyline points="567.125,535.625 600.625,533.875 616.625,532.5 631.375,530.375 643.875,527.625"/>
    <polyline points="648.25,526.375 657.875,523.125 668.25,518.625 679.75,512.375 686.0,508.25 692.625,503.5 699.625,497.75 707.0,490.875 714.75,482.75 722.875,473.125 731.375,461.75 740.25,448.25 749.0,432.5 757.625,414.25 765.375,393.625 771.75,371.0 775.5,346.875 775.625,323.0 770.875,301.25 760.25,284.0 743.375,274.0 721.125,272.75 694.875,280.625"/>
    <polyline points="667.0,296.625 639.625,318.375 614.25,343.5 592.125,369.5 573.5,394.75 558.5,418.0 546.75,438.75 537.875,456.875 531.5,472.25 527.0,485.25 524.0,496.0 522.375,505.0 521.75,512.25 521.875,518.0 522.625,522.625 523.75,526.25 525.0,528.875 526.5,530.75 528.0,532.0 530.875,532.875 532.25,532.75 533.25,532.25 534.25,531.5 535.375,529.5"/>
    <polyline points="535.75,528.25 535.875,527.0 535.5,524.5 534.0,520.75 531.5,517.625 529.5,515.875 526.125,513.75 522.625,512.25 519.0,511.25 513.0,510.25"/>
    <polyline points="511.75,510.125 493.75,509.375 483.375,508.625"/>
    <polyline points="482.125,508.625 467.375,506.875 457.625,505.375 442.125,502.375"/>
    <polyline points="439.875,501.875 427.625,499.0 413.125,495.0 391.375,487.75 378.25,482.5 368.5,478.125 357.75,472.875 346.125,466.375"/>
    <polyline points="340.0,462.75 327.0,454.125 320.375,449.25 307.375,438.5 301.25,432.625 295.875,426.625 291.375,420.625 288.375,415.125 287.125,410.25 288.125,406.75 291.875,404.75 298.375,405.125 307.75,407.875 319.625,413.25 333.5,421.125 348.75,431.125 364.5,442.75 380.125,455.375 395.125,468.25 409.0,481.0 421.5,493.25 432.75,504.375 451.25,523.5"/>
    <polyline points="458.75,531.375 471.0,543.75 480.375,552.375 484.375,555.5 491.125,559.875 496.75,562.375 499.25,563.125 504.0,563.75 508.375,563.625 514.375,562.625 529.625,558.625"/>
    <polyline points="531.625,558.125 539.25,556.625 549.0,555.5 559.25,555.5 569.875,556.75 576.5,558.25 583.25,560.375"/>
    <polyline points="585.375,561.25 592.125,564.625 598.625,569.125 604.5,575.375 607.875,580.875 610.375,587.75 611.25,591.875 611.875,596.5 611.5,607.5 610.5,614.125 608.625,621.5 606.0,629.75 602.125,639.125 597.0,649.5 590.5,660.875 582.125,673.25 571.875,686.5"/>
    <polyline points="559.5,700.25 545.0,714.125 528.375,727.25 509.875,738.75 490.125,747.625 469.875,752.875 450.125,753.375 431.75,748.75 415.75,739.0 402.625,724.875 392.5,707.25 385.375,687.375 380.875,666.5 378.625,645.75 377.875,625.75 378.375,607.125 379.625,590.25 383.5,561.75 387.875,540.125 390.125,531.625 394.125,518.125 397.75,508.625"/>
    <polyline points="399.5,504.875 401.0,501.875 403.875,497.375 406.375,494.25 408.625,492.375 409.625,491.625 413.125,490.125 418.625,489.75 404.125,482.875"/>
    <polyline points="403.125,482.375 393.75,477.5 386.25,473.0 382.625,470.25 381.875,469.5 381.75,468.875"/>
    <polyline points="382.0,468.75 385.25,469.875 393.375,474.25 417.875,489.125"/>
    <polyline points="419.375,489.875 425.875,493.5 431.125,496.0 434.0,496.875 433.125,496.25"/>
    <polyline points="432.75,496.125 409.625,486.75 402.0,483.375"/>
    <polyline points="400.0,482.375 393.5,479.375 384.5,474.625 375.375,469.25 369.125,465.0 365.625,462.25 361.875,458.625 360.75,456.25 361.125,455.875 363.0,455.875"/>
    <polyline points="364.625,456.25 371.625,459.5 381.5,465.125 393.0,472.5 426.375,495.125 437.75,501.875 444.625,505.25"/>
    <polyline points="446.625,506.125 450.375,507.625 457.5,509.625 463.0,510.0 464.75,509.75 465.875,509.375 466.375,508.875 466.125,507.875 464.0,506.5 459.25,504.75 446.625,501.25"/>
    <polyline points="445.125,500.875 426.375,495.625 414.0,491.625 399.0,486.125 381.125,478.25"/>
    <polyline points="377.125,476.375 360.125,467.125 351.25,461.5 338.125,451.875 330.375,445.0 324.625,438.375 322.75,435.375 321.875,432.875 322.125,431.0 323.5,429.75 326.25,429.5 330.25,430.25 335.625,432.125 342.25,435.25 349.875,439.375 358.375,444.625 376.625,457.25"/>
    <polyline points="386.0,464.25 404.0,478.625 446.125,513.625 456.125,521.0 464.5,526.375 468.25,528.5 474.875,531.625 480.75,533.5 486.0,534.5 493.0,535.0 499.125,534.5"/>
    <polyline points="501.0,534.25 508.25,532.875 531.625,527.5 540.625,526.0"/>
    <polyline points="542.125,525.75 574.0,521.875 590.0,519.375"/>
    <polyline points="592.5,518.875 606.125,515.75 618.5,511.75 625.375,509.0 632.625,505.5 644.375,498.625 648.625,495.75 657.375,488.875 666.5,480.375 676.0,469.625 680.875,463.375 685.625,456.5"/>
    <polyline points="690.25,448.875 694.625,440.625 698.75,431.75 702.25,422.25 705.125,412.375 707.0,402.375 707.625,392.5 706.875,383.0 704.625,374.625 700.5,367.5 694.5,362.375 686.75,359.5 677.25,359.125 666.625,361.25 655.0,365.875 642.875,372.625 630.75,381.0 618.75,390.625 607.375,401.0 596.75,411.625 587.0,422.25 578.125,432.375 570.25,442.0 551.25,466.125"/>
    <polyline points="546.375,472.625 534.5,487.75 528.5,494.75 523.5,500.0 517.25,505.25 511.875,508.375 507.125,510.125 502.625,511.125 493.875,511.625"/>
    <polyline points="492.375,511.5 483.625,511.125 475.875,510.375 450.5,506.875"/>
    <polyline points="448.375,506.625 429.125,503.0 417.625,500.5 404.25,497.125 392.75,493.875 384.25,491.125 364.375,483.75"/>
    <polyline points="358.75,481.375 339.5,472.25 324.625,464.0 316.5,459.0 307.875,453.375 298.875,446.875 289.625,439.75 280.0,431.625 270.625,422.625 261.875,413.0 254.25,403.0 248.625,393.25 246.25,384.375 248.125,377.625 255.25,374.375 268.125,375.625 286.5,382.25 309.125,394.375 334.125,411.0 359.75,430.875 384.125,452.375 406.25,474.125 425.375,494.75"/>
    <polyline points="441.375,513.75 454.625,530.75 465.125,545.5 473.5,558.125 485.125,577.75 488.875,585.125 493.875,595.75 498.125,606.75 499.375,600.25 501.625,593.25"/>
    <polyline points="502.375,591.5 505.125,586.125 508.625,581.125 512.5,576.625 516.875,572.75 519.875,570.5 524.625,567.625 531.375,564.75 538.375,562.875"/>
    <polyline points="540.25,562.5 549.5,561.625 557.0,562.0 564.875,563.375 568.75,564.5 574.5,566.875 578.375,569.0 583.75,573.125 587.125,576.625"/>
    <polyline points="588.625,578.625 590.125,580.875 592.5,586.125 594.125,592.625 594.625,596.375 594.375,605.125 593.625,610.25 592.375,615.875 590.5,622.125 588.0,628.875 584.625,636.375 580.25,644.375 574.875,653.0 568.25,662.25 560.5,671.75 551.375,681.5 540.875,691.0 529.125,700.125 516.25,708.125 502.625,714.75 488.375,719.125 474.25,720.875 460.625,719.75"/>
    <polyline points="448.125,715.625 436.875,708.375 427.5,698.5 420.0,686.375 414.375,672.75 410.375,658.375 408.0,643.5 406.875,628.875 406.75,614.875 407.375,601.75 408.5,589.625 410.125,578.5 414.0,559.75 418.0,545.0 422.0,533.625 427.25,521.625 433.75,510.375"/>
    <polyline points="434.75,509.0 438.75,502.875 439.0,500.875 438.125,499.375 436.625,498.25 430.75,495.5"/>
    <polyline points="429.625,495.0 406.5,486.0 389.875,478.375 379.25,472.625"/>
    <polyline points="376.625,471.125 371.25,467.875 361.5,461.0 356.125,456.125 354.0,453.5 353.5,452.375 353.5,451.625 354.0,451.125 355.0,451.0 356.625,451.25 358.625,451.75 364.375,454.25 376.125,460.875 390.125,470.0"/>
    <polyline points="395.0,473.375 426.25,495.5 440.0,504.25 450.75,509.75 457.25,512.25 462.5,513.625 468.125,514.375"/>
    <polyline points="469.375,514.375 471.375,514.375 476.125,513.625 478.625,512.5 479.375,511.625 479.375,510.875 478.5,509.875 474.5,508.25 461.125,505.0"/>
    <polyline points="459.875,504.75 444.875,501.375 430.75,497.75 409.375,491.125"/>
    <polyline points="406.25,490.125 392.375,484.875 371.75,475.5 362.5,470.625 352.625,464.875 337.25,454.625 332.125,450.75 322.75,442.5 318.625,438.375 315.125,434.25 312.5,430.375 311.0,427.0 310.875,424.25 312.125,422.375"/>
    <polyline points="315.125,421.625 319.875,422.25 326.375,424.375 334.375,428.0 343.75,433.125 354.125,439.625 365.125,447.25 376.25,455.5 398.125,473.125 417.875,490.125 448.375,517.25 459.625,526.5 468.875,533.25 476.625,537.875 483.25,540.75 489.125,542.5"/>
    <polyline points="491.75,542.875 496.75,543.375 501.375,543.25 505.625,542.75 511.75,541.625 530.5,537.25 541.5,535.125"/>
    <polyline points="543.375,534.875 555.0,533.25 594.75,529.75 600.5,529.0"/>
    <polyline points="603.5,528.625 613.125,527.25 623.625,525.125 631.25,523.125 643.875,518.875 658.0,512.375 668.5,506.25 674.125,502.375 680.0,497.875 686.125,492.625 692.625,486.5 699.25,479.375 706.25,471.125 713.375,461.5 720.625,450.5 727.875,438.0"/>
    <polyline points="734.75,423.75 741.0,408.0 746.25,390.875 749.875,372.75 751.125,354.5 749.375,337.25 743.75,322.25 734.125,311.125 720.25,305.125 702.875,305.125 683.0,311.25 661.75,322.75 640.375,338.375 620.125,356.75 601.75,376.25 585.5,395.625 571.625,414.25 560.0,431.25 550.5,446.5 542.75,460.0 531.75,481.625 524.875,497.0 521.0,507.625"/>
    <polyline points="519.75,511.5 517.125,520.625 516.5,522.5 515.875,523.25 514.75,523.125 509.375,519.75 503.375,517.125"/>
    <polyline points="502.125,516.75 494.75,514.75 486.625,513.25 466.125,510.375"/>
    <polyline points="464.375,510.125 450.875,508.25 435.125,505.625 418.75,502.5 402.375,498.75"/>
    <polyline points="398.75,497.875 378.0,491.875 368.125,488.5 357.125,484.375 344.75,479.125 330.75,472.25 314.5,463.375 305.5,457.875 295.875,451.5 285.75,444.125 275.0,435.75 264.0,426.125 253.0,415.375 242.625,403.5 233.875,391.25 227.875,379.125 226.375,368.5"/>
    <polyline points="230.875,361.125 242.875,359.0 262.5,363.625 288.5,375.75 318.625,394.5 350.0,418.25 379.875,444.625 406.5,471.375 429.125,497.0 447.375,520.375 461.75,541.0 472.625,559.0 480.625,574.25 486.25,587.125 489.875,597.875 492.125,606.625 493.125,613.75 493.25,619.375 492.75,623.625 491.625,626.75 490.25,628.75 488.75,629.875 487.0,630.125 485.375,629.5 483.75,628.375 482.25,626.625"/>
    <polyline points="481.0,624.25 479.125,618.5 478.5,615.25 478.125,608.125 478.25,604.375 479.25,596.875 480.875,589.625 482.0,586.125 485.875,576.5 490.625,568.25 497.5,559.375 501.0,555.75 504.625,552.625"/>
    <polyline points="506.5,551.125 513.625,546.375 524.5,541.25 535.25,537.875 542.625,536.25 552.25,534.75"/>
    <polyline points="554.25,534.5 599.875,530.625 619.25,527.875"/>
    <polyline points="622.875,527.25 634.5,524.5 638.625,523.25 652.125,518.375 662.0,513.5 673.0,507.0 678.875,503.0 691.5,492.5 698.25,486.0 705.375,478.25 712.75,469.375 720.25,458.875 728.0,446.75 735.5,432.875 742.75,417.25 749.25,399.75 754.5,380.875 757.625,361.125 757.875,341.5"/>
    <polyline points="754.375,323.375 746.5,308.625 734.0,298.875 717.0,295.5 696.625,298.875 674.0,308.875 650.875,324.25 628.5,343.25 607.875,364.25 589.75,385.5 574.25,406.0 561.375,424.875 550.875,442.0 542.5,456.875 536.0,469.875 527.125,490.125 524.375,497.875 521.0,509.625 519.625,517.25 519.25,521.875 519.375,524.5"/>
    <polyline points="519.5,525.25 519.75,525.875 519.125,524.25 518.25,523.125 516.375,521.125 513.875,519.25 508.75,516.625 502.75,514.75"/>
    <polyline points="501.5,514.375 490.875,512.375 464.375,509.0"/>
    <polyline points="462.625,508.75 444.5,505.875 427.0,502.5 412.0,499.0 397.625,495.125"/>
  </g>
</svg>
