<?xml version="1.0" encoding="utf-8" ?>
<svg xmlns="http://www.w3.org/2000/svg" xmlns:cc="http://creativecommons.org/ns" xmlns:dc="http://purl.org/dc/elements/1.1/" xmlns:ev="http://www.w3.org/2001/xml-events" xmlns:inkscape="http://www.inkscape.org/namespaces/inkscape" xmlns:rdf="http://www.w3.org/1999/02/22-rdf-syntax-ns" xmlns:sodipodi="http://sodipodi.sourceforge.net/DTD/sodipodi-0.dtd" xmlns:xlink="http://www.w3.org/1999/xlink" baseProfile="tiny" height="27.09333333cm" version="1.2" viewBox="0 0 1024.0 1024.0" width="27.09333333cm">
  <metadata>
    <rdf:RDF>
      <cc:Work>
        <dc:format>image/svg+xml</dc:format>
        <dc:source>vpype read './original_svgs/Strange Attractors #254.svg' linemerge linesimplify write './Strange Attractors #254.svg'
</dc:source>
        <dc:date>2024-08-05T01:35:42.669301</dc:date>
      </cc:Work>
    </rdf:RDF>
  </metadata>
  <defs/>
  <g fill="none" id="layer1" inkscape:groupmode="layer" inkscape:label="1" stroke="black" stroke-width="0.7mm" style="display:inline">
    <polyline points="336.5,701.5 366.625,656.0 394.125,617.625 453.875,538.75 466.75,521.5 476.875,507.25 484.625,495.5 490.5,485.75 494.75,477.375 497.75,470.125 499.625,463.75 500.375,458.0 500.375,452.625 499.625,447.5 498.125,442.5 495.875,437.375 492.875,432.125 489.125,426.625 484.5,420.75 479.0,414.375 472.375,407.375 464.375,399.5 454.875,390.75 443.5,381.0"/>
    <polyline points="430.125,370.0 414.125,357.625 395.375,343.75 373.25,328.5 347.75,312.0 318.875,295.0 287.25,278.25 254.125,263.625 221.75,253.375 193.5,250.25 172.625,256.25 161.625,272.5 161.375,298.375 170.75,331.25 186.875,367.625 206.625,404.625 227.25,439.5 246.75,471.0 291.0,541.125 308.5,570.0 322.875,594.625"/>
    <polyline points="325.875,599.125 328.5,602.125 330.75,604.0 332.875,604.875 335.125,604.75 337.5,603.875 340.0,602.375 345.75,597.75 368.25,578.125 381.125,568.375 389.75,562.5 398.125,557.375 406.125,553.0 413.875,549.375"/>
    <polyline points="417.5,547.75 424.625,545.0 437.375,541.125 443.0,539.875 450.75,538.625 459.75,537.875 467.5,537.875 476.75,539.0"/>
    <polyline points="478.125,539.25 484.125,541.0 490.0,543.75 494.75,547.0 500.75,552.125"/>
    <polyline points="501.5,552.875 504.875,555.5 507.875,557.375 513.0,559.375 516.5,560.0 523.0,560.125 532.375,558.5 540.75,556.125 551.75,552.0 566.0,545.5"/>
    <polyline points="574.75,541.125 595.875,529.5 622.875,513.25 638.75,503.25 674.125,479.375 693.0,466.0 729.25,439.0 744.5,427.125 756.25,417.5 763.75,410.875 766.5,408.0 764.75,408.75 759.0,412.875 750.125,419.875 727.5,438.75 665.0,493.5"/>
    <polyline points="657.625,499.75 645.25,509.5 635.25,516.5 631.0,519.0 623.375,522.625 616.75,524.625 610.75,525.625 607.875,525.75 600.0,525.25 590.5,523.125 577.875,518.625"/>
    <polyline points="576.0,517.75 568.75,514.625 556.75,508.25 548.5,502.625 543.0,497.5"/>
    <polyline points="542.125,496.625 538.375,492.0 534.0,484.5 526.0,465.375"/>
    <polyline points="525.25,463.375 519.625,451.875 514.375,442.875 506.25,431.25 498.25,421.5 487.0,409.25 471.0,393.375 447.5,372.625 431.875,359.875 413.0,345.125 390.125,328.25 362.875,309.375 330.5,288.625 293.5,266.875"/>
    <polyline points="252.75,246.125 211.0,229.25 172.25,220.125 142.0,223.0 125.0,240.375 123.375,271.75 135.25,313.5 156.5,360.125 181.75,406.875 247.875,520.75 262.25,547.625 272.875,569.5 280.25,587.125 285.125,600.875 288.125,611.5 290.875,624.25 291.75,627.125 292.75,628.0 294.125,627.125 296.25,624.625 307.5,609.75"/>
    <polyline points="312.75,603.125 318.625,596.125 331.75,581.75 345.75,567.875 352.75,561.375 366.375,549.75 379.375,540.0 385.5,535.75 397.0,528.625 407.375,523.0 412.25,520.75 421.25,517.0 429.5,514.125 440.25,511.125 446.75,509.75"/>
    <polyline points="449.625,509.25 457.75,508.0 468.75,506.875 491.375,505.5"/>
    <polyline points="492.25,505.5 499.875,504.0 501.625,503.125 503.25,501.625"/>
    <polyline points="503.375,501.375 503.875,500.625 504.375,498.75 504.375,495.5 503.5,491.375"/>
    <polyline points="503.375,490.75 500.875,483.25 498.625,478.25 494.625,470.75 490.625,464.375"/>
    <polyline points="489.375,462.5 479.25,449.25 474.375,443.75 465.0,434.0 452.25,422.0 434.75,407.375 411.125,389.75 391.25,376.5 368.0,362.875 355.375,356.375"/>
    <polyline points="342.25,350.375 329.125,345.125 316.25,341.125 304.125,338.625 293.375,338.25 284.5,340.125 277.875,344.5 274.0,351.5 272.75,360.625 274.25,371.875 278.25,384.5 284.125,398.125 291.625,412.125 300.125,426.0 309.375,439.375 318.875,452.0 328.25,463.625 337.5,474.25 346.375,483.75 354.875,492.125 362.875,499.5 377.5,511.5 390.25,520.375 396.0,523.875"/>
    <polyline points="401.375,526.75 411.25,531.5 415.625,533.25 431.0,538.125 443.125,540.75 461.125,543.875 470.5,546.125"/>
    <polyline points="471.875,546.625 475.5,548.0 478.625,549.625 483.625,553.5 485.75,555.75 488.125,559.125 491.125,564.75"/>
    <polyline points="491.625,565.75 496.25,574.375 498.875,577.5 501.125,579.375 504.125,580.875 506.0,581.5 510.75,582.125 517.25,581.625 521.5,580.875 526.5,579.5 532.625,577.5 548.75,570.75"/>
    <polyline points="559.5,565.5 572.5,558.625 588.125,549.75 607.125,538.375 629.75,524.0 656.5,506.375 687.25,485.0 721.625,460.25 758.0,432.875 793.625,404.875 824.375,379.375 846.25,359.875 856.25,349.5 853.875,349.625 841.25,359.5 822.125,376.5 800.375,397.625 779.125,420.125 760.25,442.375 744.5,463.0 732.125,481.625 722.75,498.125 715.875,512.5 711.125,525.0 707.75,535.875 705.375,545.0"/>
    <polyline points="703.5,552.625 701.625,558.875 699.75,563.75 697.375,567.25 694.5,569.625 691.0,570.875 687.0,571.125 682.25,570.375 677.125,568.875 665.875,564.25 653.75,558.125 614.125,536.5 596.125,528.0 588.5,524.875"/>
    <polyline points="585.0,523.625 581.625,522.375 572.5,519.75 560.375,517.25 549.25,516.25 542.25,516.25 536.75,516.625"/>
    <polyline points="535.875,516.75 531.125,517.625 528.25,518.5 525.0,520.25 523.625,521.75"/>
    <polyline points="523.375,522.0 522.625,524.0 522.625,526.125 523.125,527.875 524.375,530.0"/>
    <polyline points="524.75,530.375 526.5,532.125 528.0,533.125 529.75,534.0 533.875,535.125 539.625,535.375 546.25,534.625"/>
    <polyline points="548.25,534.25 555.25,532.375 567.375,528.0 583.5,520.625 598.625,512.625 615.875,502.75 628.0,495.25 645.5,483.75 659.375,474.0"/>
    <polyline points="662.625,471.5 667.25,467.375 665.875,467.625 636.125,484.25 617.0,493.875 603.625,499.75 591.625,504.0 584.375,506.125"/>
    <polyline points="581.0,507.0 566.25,509.75 554.625,510.75 543.75,510.75 532.25,509.625"/>
    <polyline points="531.25,509.375 526.0,508.375 522.0,507.125 518.375,505.375 516.0,503.75"/>
    <polyline points="515.625,503.5 512.125,499.625 508.25,492.5"/>
    <polyline points="508.0,491.875 504.375,484.125 499.875,475.5 493.375,464.875"/>
    <polyline points="492.125,463.0 484.0,452.125 470.875,437.375 459.125,425.875 448.875,416.75 436.25,406.25 420.5,394.125 411.375,387.625 401.25,380.625 390.25,373.5 378.25,366.125 365.375,358.875 351.75,351.75"/>
    <polyline points="337.625,345.125 323.375,339.625 309.625,335.375 296.625,332.875 285.25,332.75 276.125,335.375 269.625,340.625 266.125,348.75 265.625,359.375 268.125,372.0 273.125,386.125 280.25,401.125 288.75,416.375 298.25,431.125 308.25,445.375 318.25,458.5 328.125,470.5 337.75,481.25 346.75,490.875 355.375,499.25 370.75,512.875 377.75,518.25 390.25,526.75 395.75,530.0"/>
    <polyline points="401.0,532.75 405.875,535.125 414.75,538.75 426.0,542.25 435.5,544.375 458.0,548.375 461.25,549.125 466.75,551.0"/>
    <polyline points="468.0,551.375 472.25,553.625 474.875,555.625 478.25,559.5 479.75,562.25 480.875,565.375 481.625,568.75 482.125,573.875"/>
    <polyline points="482.125,575.25 481.25,583.125 478.75,592.75 475.875,599.875 473.0,605.375 469.0,611.625 463.625,619.125 455.75,628.25 450.625,633.625 436.75,646.625 427.5,654.625"/>
    <polyline points="416.0,664.0 401.875,674.875 384.25,687.75 362.5,702.875 335.875,720.5 303.25,740.625 264.625,762.875 220.625,785.625 173.75,805.875 129.375,818.75 94.875,818.25 78.25,799.625 82.625,762.25 105.25,710.75 138.5,652.875 174.0,595.375 205.625,542.875 230.375,497.25 247.375,458.625 257.0,426.625 260.625,400.5 259.375,379.5 254.875,363.5 248.5,352.25 242.0,345.75 236.375,344.0"/>
    <polyline points="232.875,346.875 232.25,354.0 234.625,364.875 239.875,378.5 247.75,394.125 257.625,410.75 268.625,427.5 280.25,443.75 292.0,459.0 303.5,473.0 314.5,485.5 324.875,496.625 334.5,506.125 351.625,521.375 359.25,527.375 372.75,536.375 384.25,542.625 389.375,544.875 398.75,548.125 410.75,550.875"/>
    <polyline points="414.25,551.375 423.875,552.375 443.375,553.5 449.0,554.125 456.625,555.75 460.25,557.125 463.25,558.875"/>
    <polyline points="464.125,559.5 465.625,560.875 468.0,564.25 469.25,568.25 469.5,571.875 469.0,576.0 467.625,580.75 466.125,584.5 462.75,590.75 461.125,593.125"/>
    <polyline points="459.375,595.625 455.125,601.25 449.375,607.875 441.75,615.5 431.625,624.75 418.125,635.875 409.75,642.25 388.875,657.25 361.125,675.25 344.375,685.25 325.625,695.75 305.125,706.375 283.125,716.5 260.75,725.25 239.125,731.375 220.0,733.625 205.125,730.75 196.375,721.75 194.375,706.625"/>
    <polyline points="199.25,686.0 209.875,661.25 224.625,634.25 241.625,606.875 259.125,580.5 316.5,497.75 326.125,483.375 340.5,461.25 357.625,433.125 360.875,429.0 363.625,427.625 365.0,427.75 366.375,428.375 367.875,429.25 371.25,432.0"/>
    <polyline points="373.125,433.75 382.125,441.875 390.0,448.375 404.0,458.25 409.625,461.625 417.625,465.875 427.625,470.125 436.5,473.0"/>
    <polyline points="438.625,473.5 445.875,474.875 450.625,475.25 454.625,475.25 458.0,474.75 460.75,473.75 462.875,472.5 464.375,470.875 465.125,468.75"/>
    <polyline points="465.25,468.0 465.125,464.375 464.125,461.0 460.5,454.25 458.25,451.125 452.125,443.625 445.75,437.0 434.25,426.75"/>
    <polyline points="430.875,424.0 418.875,414.875 409.375,408.375 398.875,401.875 387.5,395.625 381.5,392.75 369.5,387.75 363.625,385.75 352.5,383.375 347.625,383.125 343.25,383.625 339.5,384.75 336.625,386.75 334.5,389.5 333.25,393.0 333.0,397.125 333.625,401.875 335.125,407.125 337.375,412.875"/>
    <polyline points="340.375,418.75 348.125,430.875 352.625,436.875 362.375,448.5 372.75,458.875 383.125,468.0 388.25,472.0 398.25,479.125 403.0,482.125 416.375,489.625 424.5,493.375 432.0,496.375 442.125,499.625 448.25,501.25"/>
    <polyline points="451.0,502.0 463.375,504.375 474.875,505.75 486.0,506.375 491.875,506.25"/>
    <polyline points="492.625,506.25 499.5,505.5 501.5,504.875 503.875,503.375"/>
    <polyline points="504.0,503.125 505.125,501.25 505.375,500.125 505.375,497.25 505.0,495.0"/>
    <polyline points="504.875,494.625 504.125,491.25 501.875,484.75 496.875,474.25"/>
    <polyline points="496.125,473.0 491.625,465.375 486.25,457.75 476.125,445.375 467.25,435.875 459.625,428.5 444.75,415.25 424.375,399.0"/>
    <polyline points="416.125,393.0 407.0,386.625 386.125,373.125 362.0,359.375 349.0,353.0 335.75,347.25 322.5,342.5 309.875,339.125 298.125,337.5 288.125,338.125 280.25,341.25 274.75,346.875 272.125,355.0 272.375,365.375 275.125,377.375 280.125,390.75 286.875,404.75 295.0,418.875 304.0,432.625 313.5,445.875 323.0,458.125 332.5,469.375 341.625,479.5 350.375,488.5"/>
    <polyline points="358.625,496.375 366.375,503.375 380.5,514.5 386.875,519.0 392.875,522.75 403.625,528.75 413.125,533.0 421.5,536.0 428.875,538.25 441.375,541.0 459.75,544.25"/>
    <polyline points="461.5,544.5 472.0,547.375 477.5,550.0 481.875,553.125 485.375,556.875 487.0,559.5"/>
    <polyline points="487.625,560.375 490.5,566.25 494.375,575.25 497.375,579.75 499.5,581.875 502.25,583.625 506.0,584.875 508.375,585.125"/>
    <polyline points="511.25,585.25 518.75,584.375 523.625,583.125 529.625,581.25 536.875,578.5 545.625,574.75 569.5,562.625 585.5,553.625 605.0,541.875 628.625,527.0 656.625,508.375 689.5,485.75 726.375,459.0 765.625,429.375 804.125,398.875 837.375,371.125 860.25,350.375 869.75,340.125 865.25,341.875 850.0,354.125 828.25,373.875 804.75,397.625 782.5,422.375 763.5,446.25"/>
    <polyline points="748.25,468.25 736.75,488.0 728.625,505.375 723.125,520.625 719.625,533.875 717.5,545.25 714.75,562.75 713.25,569.0 711.25,573.625 708.625,576.75 705.0,578.5 700.75,578.875 695.625,578.0 689.75,576.25 683.5,573.5 669.875,566.625 656.0,558.625 636.375,546.75 619.125,536.875"/>
    <polyline points="614.0,534.125 596.25,525.625 588.75,522.75 576.375,519.0 564.25,517.0 553.375,516.625 547.75,517.125"/>
    <polyline points="546.5,517.25 541.25,518.125 535.875,519.875 532.5,521.75 530.75,523.625"/>
    <polyline points="530.5,523.875 529.875,525.5 529.875,526.875 530.375,528.25 532.0,530.125 535.125,531.75"/>
    <polyline points="535.75,531.875 540.125,532.625 542.375,532.625 549.625,531.75 553.5,530.875 565.75,526.875 575.375,522.875 586.875,517.375"/>
    <polyline points="591.125,515.125 610.125,504.625 630.25,492.25 643.5,483.375 650.25,478.5 654.625,475.125 656.25,473.375 655.125,473.5 651.5,475.25 638.625,482.0"/>
    <polyline points="634.75,484.125 614.0,494.375 601.875,499.5 590.75,503.5 584.0,505.625 571.875,508.625 561.75,510.5 553.25,511.5"/>
    <polyline points="551.375,511.625 541.75,512.25 528.0,512.25 524.0,512.0"/>
    <polyline points="523.5,512.0 517.0,511.5 514.25,511.0 512.875,510.375 511.625,509.125 511.125,508.125 509.375,503.0"/>
    <line x1="509.375" x2="506.0" y1="502.75" y2="492.625"/>
    <polyline points="505.875,492.125 503.375,485.625 500.25,478.875 497.0,472.75 493.25,466.625"/>
    <polyline points="492.125,465.0 488.25,459.25 483.0,452.5 473.375,441.5 459.0,427.0 443.375,413.25 437.0,408.0 422.0,396.5 403.75,383.5 393.25,376.625 369.625,362.625"/>
    <polyline points="356.625,355.75 343.125,349.25 329.5,343.625 316.0,339.25 303.375,336.375 291.875,335.625 282.375,337.125 275.25,341.375 270.875,348.25 269.375,357.625 270.75,369.125 274.625,382.125 280.625,396.25 288.375,410.75 297.125,425.125 306.625,439.125 316.375,452.25 326.125,464.25 335.5,475.25 344.625,485.0 361.375,501.25 369.0,507.75 376.125,513.5 382.75,518.375 389.0,522.5"/>
    <polyline points="394.75,526.0 400.125,529.0 409.875,533.625 414.375,535.5 422.375,538.25 435.875,541.75 457.5,545.5 467.25,547.875"/>
    <polyline points="468.625,548.25 475.375,551.375 478.125,553.25 480.5,555.375 483.0,558.625 484.5,561.25 485.875,564.25 486.875,567.5"/>
    <polyline points="487.25,568.625 491.375,587.5 492.375,590.5 493.75,593.375 495.75,596.0 498.625,598.125 503.0,599.625 506.0,599.875"/>
    <polyline points="509.75,599.625 514.375,598.875 520.25,597.25 527.625,594.75 537.0,590.75 548.75,585.125 563.875,577.25 583.0,566.25 607.25,551.375 637.875,531.625 675.75,505.875 721.375,473.25 773.625,434.125 828.625,390.75 879.0,348.5 915.5,315.125 930.25,298.375 922.25,301.625 897.75,322.125 865.625,353.25 834.125,388.875 807.875,424.375 788.625,457.5 776.375,487.5 770.0,514.375 768.0,538.125"/>
    <polyline points="769.0,559.0 771.25,577.125 773.5,592.0 774.375,603.625 773.25,611.625 769.5,615.875 763.25,616.625 754.75,614.25 744.5,609.25 733.25,602.25 721.5,594.125 709.875,585.25 688.375,567.25 639.0,523.375 630.75,516.75 620.75,510.375"/>
    <polyline points="617.875,509.0 615.125,507.875 607.625,506.0 602.875,505.625 596.375,505.75 586.125,507.375 575.25,510.0 567.5,512.25"/>
    <polyline points="566.0,512.75 558.5,515.125 551.875,517.625 547.25,520.0 545.25,521.625"/>
    <polyline points="545.0,521.875 544.25,522.75 543.875,523.875 544.625,525.375 547.0,526.375 551.375,526.5"/>
    <polyline points="552.375,526.375 558.375,525.375 564.875,523.5 578.0,518.375 586.0,514.625 598.125,508.375 607.625,502.875"/>
    <polyline points="610.75,501.125 624.75,492.25 630.375,488.25 633.25,485.625 632.375,485.5 628.625,486.875 609.125,495.625"/>
    <polyline points="606.25,496.875 594.625,501.5 581.125,506.25 569.25,509.75 549.625,514.5"/>
    <polyline points="548.25,514.75 542.25,516.125 535.875,518.0 532.0,519.5 529.0,521.375"/>
    <polyline points="528.625,521.75 527.375,523.125 526.625,525.0 526.75,527.375 528.125,529.75"/>
    <polyline points="528.375,530.125 531.375,532.375 534.875,533.5 537.75,533.875 545.75,533.5 553.625,531.75"/>
    <polyline points="555.875,531.125 564.0,528.375 570.5,525.75 582.0,520.5 600.625,510.75 616.75,501.375 638.375,487.625 647.875,481.25 659.875,472.25"/>
    <polyline points="661.125,471.125 661.5,470.5 659.875,470.875 658.0,471.75 632.375,485.75 619.0,492.375 606.0,498.25 594.125,502.75 577.0,507.625"/>
    <polyline points="574.0,508.25 563.375,510.125 548.75,511.375 542.25,511.5 530.5,510.875"/>
    <polyline points="529.625,510.75 522.0,509.625 516.25,507.625"/>
    <polyline points="516.0,507.5 513.25,505.5 510.75,501.875"/>
    <polyline points="510.625,501.5 509.375,499.125 505.5,489.625"/>
    <polyline points="505.25,488.875 500.75,479.0 496.625,471.375 492.625,465.0 487.0,457.125"/>
    <polyline points="485.25,454.875 476.5,444.375 467.25,434.625 459.25,426.875 443.5,413.0 421.875,396.0 413.125,389.625 392.75,376.0 381.25,368.875 368.875,361.75 355.75,354.75 342.125,348.25 328.25,342.625 314.625,338.125 301.875,335.375"/>
    <polyline points="290.375,334.75 280.875,336.5 273.75,340.875 269.5,348.0 268.125,357.625 269.75,369.375 273.875,382.75 280.125,397.0 288.125,411.75 297.0,426.375 306.625,440.375 316.5,453.5 326.25,465.625 335.75,476.625 344.875,486.375 353.5,495.0 369.25,509.125 376.375,514.75 383.0,519.5 394.875,527.125 405.25,532.5 414.25,536.375"/>
    <polyline points="418.375,537.875 432.625,541.875 462.25,547.375 469.25,549.5 472.75,551.125"/>
    <polyline points="473.75,551.625 478.125,554.875 480.25,557.125 482.0,559.625 483.5,562.5 485.0,566.625 486.25,572.625 486.5,575.25"/>
    <polyline points="486.75,576.625 487.125,582.625 487.375,598.25 487.75,604.0 488.75,609.75 490.0,613.5 491.0,615.25 492.375,616.75 494.125,618.0 496.375,619.0"/>
    <polyline points="499.5,619.625 503.5,619.5 508.875,618.625 515.875,616.625 525.375,613.0 538.0,607.125 555.125,598.125 578.0,584.875 608.75,565.75 649.75,538.625 703.375,501.125 770.625,451.625 848.625,390.625 927.375,324.875 988.375,268.875 1013.0,240.0 997.5,246.625 956.0,282.5 908.25,333.375 868.25,387.75 841.75,439.75 829.0,487.375 827.875,530.75 834.5,570.125 845.0,605.125 854.875,634.375"/>
    <polyline points="860.625,656.375 859.5,669.375 850.875,672.625 835.875,667.125 816.75,654.625 796.0,637.5 776.0,618.125 758.25,598.25 743.25,579.0 731.25,561.25 722.125,545.125 715.5,530.875 710.75,518.375 707.375,507.625 701.5,484.875 699.625,480.125 697.375,476.75 694.625,474.375 691.25,473.25 687.375,473.0 682.875,473.625 678.0,474.875 667.125,478.75"/>
    <polyline points="661.375,481.125 637.875,491.5 621.5,498.25 611.5,501.875 602.375,504.75 590.125,507.75 579.625,509.75 570.375,510.75 557.875,511.0"/>
    <polyline points="555.625,511.0 544.625,510.125 536.125,508.625 530.625,507.25 524.0,504.625"/>
    <polyline points="523.25,504.25 520.125,502.375 516.5,499.375 513.0,495.125 511.0,491.875"/>
    <polyline points="510.625,491.125 499.625,471.5 492.625,461.0"/>
    <polyline points="491.125,458.875 485.75,451.875 475.5,440.125 468.625,433.0 455.0,420.125 436.0,404.125 419.375,391.375 409.625,384.375 387.0,369.5 374.125,361.625 360.375,353.875 345.75,346.375 330.75,339.625 315.75,334.0"/>
    <polyline points="301.25,329.875 287.875,328.0 276.5,328.75 267.625,332.375 261.875,339.125 259.5,348.875 260.375,361.25 264.25,375.5 270.75,391.125 279.0,407.25 288.625,423.375 299.0,438.875 309.5,453.25 320.0,466.625 330.125,478.625 339.75,489.25 357.125,506.625 372.25,519.625 385.25,529.0 391.0,532.625 396.25,535.625 405.875,540.25"/>
    <polyline points="410.25,542.0 418.125,544.75 425.0,546.625 455.125,552.125 459.625,553.375 465.5,556.0"/>
    <polyline points="466.5,556.625 469.125,558.625 471.125,561.0 472.625,563.75 473.875,567.875 474.125,571.5 473.75,575.75 472.625,580.5 470.5,586.125"/>
    <polyline points="469.5,588.125 467.125,592.625 463.875,597.75 456.75,607.0 445.625,618.875 434.75,628.875 419.875,641.25 399.375,656.875 371.125,676.375 353.25,687.625 332.75,700.0 309.5,713.125 283.75,726.25 256.375,738.625 228.75,748.75 203.125,754.625"/>
    <polyline points="182.25,754.125 168.875,745.625 164.75,728.5 170.25,703.5 183.625,672.75 202.25,639.125 223.375,605.0 280.625,517.0 294.5,494.5 305.5,475.25 313.75,459.25 319.875,446.0 324.125,435.125 327.0,426.375 328.625,419.5 330.75,407.375 332.0,408.5 337.0,416.375"/>
    <polyline points="339.625,420.25 346.125,428.875 350.0,433.5 363.25,447.5 377.625,460.25 387.25,467.625 396.5,474.0 405.5,479.375 413.875,483.75 425.5,489.0 435.875,492.75 442.125,494.5"/>
    <polyline points="445.125,495.375 455.625,497.625 466.25,499.25 474.75,499.875 481.5,499.875 487.5,499.25"/>
    <polyline points="488.375,499.125 492.0,498.25 495.0,496.75 496.5,495.375 497.5,493.875 498.25,491.0"/>
    <polyline points="498.25,490.5 498.25,488.125 497.625,484.5 496.25,480.125 494.5,475.875 489.25,466.5"/>
    <polyline points="488.25,464.875 484.625,459.375 479.75,453.0 470.75,442.625 461.25,432.875 453.125,425.25 443.25,416.625 431.125,406.875 416.375,395.875 398.75,383.875 378.0,371.25"/>
    <polyline points="366.75,365.125 354.875,359.125 342.75,353.75 330.625,349.25 319.0,346.0 308.125,344.125 298.5,344.125 290.5,346.25 284.75,350.625 281.375,357.125 280.375,365.625 281.75,375.875 285.375,387.5 290.75,399.875 297.625,412.75 305.5,425.5 314.0,437.875 322.75,449.625 331.625,460.5 340.5,470.5 349.0,479.5 357.125,487.5 365.0,494.625 372.375,500.875 385.875,511.0"/>
    <polyline points="392.0,515.0 403.125,521.5 408.25,524.0 413.125,526.25 425.875,531.0 436.625,534.0 445.75,536.0 464.25,539.125 471.125,540.625"/>
    <polyline points="472.625,541.0 480.375,543.375 485.5,545.875 488.25,547.625 492.125,550.75 496.25,555.0"/>
    <polyline points="497.0,555.875 502.5,561.125 506.75,564.0 511.125,565.5 515.0,566.125 519.875,566.125 526.125,565.25 530.0,564.375 539.625,561.5 552.375,556.375"/>
    <polyline points="560.25,552.75 580.25,542.5 606.875,527.25 641.5,505.375 683.75,476.5 706.875,460.0 729.75,443.0 751.125,426.5 769.25,411.875 782.5,400.5 789.875,393.75 790.75,392.125 785.875,395.375 776.375,402.875 749.625,426.0 735.25,439.25 708.875,464.875 679.0,495.625"/>
    <polyline points="671.625,503.375 659.875,515.75 650.875,524.375 647.0,527.625 640.375,532.125 637.25,533.75 634.25,534.75 628.5,536.0 625.75,536.125 622.875,536.0 617.25,535.125 608.875,533.0 603.25,531.125 589.75,525.875"/>
    <polyline points="587.25,524.75 559.25,512.625 552.75,509.5 542.125,503.375"/>
    <polyline points="541.0,502.625 535.75,498.75 529.75,492.75 523.75,484.375 519.875,477.875"/>
    <polyline points="519.0,476.5 510.5,462.125 503.75,452.25 496.5,442.75 490.0,435.125 481.625,426.125 470.625,415.125 456.0,401.875 436.5,385.5"/>
    <polyline points="424.375,376.0 410.375,365.5 394.25,354.0 375.875,341.75 355.125,328.75 332.125,315.5 307.25,302.625 281.5,291.375 256.25,283.0 233.25,279.125 214.625,281.125 202.0,289.875 196.75,305.625 198.625,327.375 206.875,353.25 219.625,381.375 235.125,409.625 251.5,436.75 267.75,461.5 282.75,483.625 308.375,519.125 327.75,544.25 342.0,561.25"/>
    <polyline points="347.625,567.25 352.5,572.125 360.5,578.75 367.0,582.25 369.875,583.125 375.25,583.75 377.875,583.625 385.125,581.875 392.25,579.125 408.125,572.25 414.5,570.0"/>
    <polyline points="416.5,569.375 422.375,567.75 429.375,566.625 435.25,566.5 437.75,566.75 440.125,567.25 442.125,568.0 443.75,569.0 445.75,570.875 446.875,573.25"/>
    <polyline points="447.125,574.125 447.375,576.25 447.125,578.5 445.25,583.875 441.0,590.75 437.875,594.875 431.25,601.875 422.0,610.375 409.25,620.5 398.375,628.25"/>
    <polyline points="392.25,632.375 378.0,641.25 361.5,650.375 352.5,654.875 343.125,659.125 333.5,663.0 323.875,666.25 314.625,668.75 305.875,670.25 298.125,670.375 291.625,669.0 286.75,666.0 283.75,661.125 282.75,654.625 283.75,646.625 286.75,637.125 291.5,626.75 297.625,615.75 304.875,604.375 312.875,593.0 321.375,581.875 330.0,571.375 347.125,552.375"/>
    <polyline points="355.375,544.125 363.125,536.625 370.625,530.0 384.125,518.875 396.125,510.5 401.5,507.0 406.625,504.125 415.75,499.375 423.875,496.0 431.0,493.5 443.0,490.375 458.5,487.75"/>
    <polyline points="460.25,487.375 464.875,486.625 469.875,485.375 474.625,483.5 476.625,482.125 478.125,480.375 479.375,477.75 479.625,475.5"/>
    <polyline points="479.625,474.625 479.0,470.75 477.75,467.25 475.0,461.75 471.875,456.875 467.625,451.25 461.875,444.5 451.375,433.75 448.0,430.75"/>
    <polyline points="444.5,427.5 431.5,416.75 415.0,404.5 401.75,395.625 386.75,386.75 378.75,382.375 361.875,374.625 353.5,371.375 345.125,368.75 337.25,367.0 330.0,366.125 323.625,366.5 318.25,368.125 314.125,371.0 311.375,375.125 310.0,380.5 310.25,386.875 311.875,394.25 314.75,402.25"/>
    <polyline points="318.625,410.75 323.625,419.5 329.125,428.25 335.25,436.875 341.75,445.125 355.25,460.25 368.625,473.25 375.125,478.875 387.5,488.5 393.25,492.5 404.25,499.25 414.125,504.5 423.25,508.5 431.375,511.625 438.875,514.0 448.75,516.5"/>
    <polyline points="451.625,517.125 464.5,519.625 486.75,522.875 494.375,524.5"/>
    <polyline points="495.25,524.75 499.375,526.0 504.625,528.375 508.375,530.75 510.75,532.75"/>
    <polyline points="511.25,533.125 517.25,537.75 520.875,539.625 525.75,541.25 530.875,541.75"/>
    <polyline points="532.5,541.75 538.0,541.375 545.25,540.0 554.5,537.125 566.625,532.375 582.375,525.0 595.25,518.125 618.0,505.0 635.0,494.375 660.625,477.25"/>
    <polyline points="668.5,471.625 686.625,458.25 690.125,455.5 692.5,453.0 691.5,453.25 685.5,456.875 650.875,479.125 632.125,490.0 620.75,495.875 610.375,500.625 596.75,505.5"/>
    <polyline points="592.75,506.75 588.875,507.75 578.375,509.625 572.375,510.25 564.375,510.5 557.5,510.125 551.5,509.375 541.75,507.125 536.5,505.25"/>
    <polyline points="535.375,504.75 530.125,502.25 524.25,498.125 520.0,494.0 515.625,488.125"/>
    <polyline points="515.0,487.25 505.125,471.125 499.0,461.875 494.0,455.0 484.625,443.625"/>
    <polyline points="481.625,440.25 465.625,424.0 454.25,413.625 439.875,401.375 421.5,387.125 398.25,370.625 369.75,352.5 353.5,343.125 336.125,334.25 318.25,326.125 300.25,319.375 283.125,314.875 267.625,313.25 255.0,315.25 246.0,321.25 241.125,331.25 240.75,345.0 244.25,361.5"/>
    <polyline points="251.375,380.125 260.875,399.5 272.125,418.875 284.125,437.625 296.25,455.0 308.125,470.75 319.5,484.875 330.0,497.25 339.75,507.875 348.625,517.125 356.625,524.875 364.0,531.375 370.75,536.875 382.375,545.25 392.125,550.75 396.5,552.875 404.25,555.875 411.0,557.75 422.25,559.75"/>
    <polyline points="424.75,560.125 440.0,562.0 444.25,563.0 446.625,563.875 449.5,565.5 451.75,567.5 453.25,570.0 454.0,573.0"/>
    <polyline points="454.0,574.125 453.875,576.5 452.75,580.625 449.375,587.375 443.125,595.875 435.75,603.875 425.25,613.5 415.875,621.125 404.125,630.0 389.625,639.875"/>
    <polyline points="381.125,645.25 361.75,656.625 350.875,662.5 339.375,668.25 327.25,673.625 315.0,678.5 302.75,682.375 291.25,685.0 280.75,685.75 272.125,684.5 265.625,680.875 261.875,674.75 260.875,666.125 262.875,655.25 267.5,642.625 274.375,628.75 282.875,614.125 292.625,599.375 303.0,585.0 313.5,571.25 334.0,546.75 343.5,536.25 360.625,518.625"/>
    <polyline points="368.25,511.5 375.125,505.25 387.5,495.25 397.75,488.125 406.625,483.0 414.0,479.375 423.375,475.875 428.75,474.375 448.0,470.25"/>
    <polyline points="449.125,469.875 452.0,468.75 454.125,467.25 455.625,465.5 456.5,462.5 456.25,459.75 454.625,455.375 453.25,452.75 450.25,448.5"/>
    <polyline points="449.0,446.875 442.75,439.75 431.25,429.125 422.0,421.875 414.875,416.75 406.875,411.625 402.625,409.0 393.625,404.125 384.25,399.75 379.625,397.75 374.875,396.125 366.125,393.875"/>
    <polyline points="362.0,393.375 358.25,393.25 355.0,393.75 352.25,394.75 350.0,396.25 348.25,398.375 347.25,400.875 346.875,404.0 347.25,407.5 348.125,411.375 349.625,415.625 354.25,424.625 360.625,434.0 364.25,438.625 372.25,447.625 376.5,451.75 385.125,459.625 389.5,463.125 398.0,469.5 406.375,474.875"/>
    <polyline points="410.375,477.25 418.0,481.25 425.25,484.625 435.125,488.5 444.0,491.25 451.75,493.125 458.5,494.375 464.5,495.125 474.125,495.625"/>
    <polyline points="475.5,495.625 482.375,495.0 488.5,493.125 491.25,490.875 492.25,489.5 492.625,488.375"/>
    <polyline points="492.875,487.875 493.25,484.75 493.125,483.25 492.0,478.125 488.5,470.0 483.875,462.375"/>
    <polyline points="482.75,460.625 480.0,456.75 472.625,447.75 462.0,436.25 454.875,429.375 446.25,421.625 429.625,408.125 415.625,397.875 399.125,386.625 379.875,375.0 369.375,369.375 358.5,364.0"/>
    <polyline points="347.5,359.125 336.375,355.0 325.625,351.875 315.5,350.0 306.5,349.875 299.0,351.375 293.25,355.0 289.625,360.375 288.125,367.75 288.75,376.625 291.375,386.875 295.625,397.875 301.5,409.5 308.375,421.125 316.0,432.75 324.125,443.75 332.375,454.125 340.625,463.75 348.875,472.5 356.75,480.5 364.5,487.5 371.75,493.875 378.625,499.375 391.5,508.375 397.25,512.0"/>
    <polyline points="402.875,515.125 408.0,517.875 417.625,522.25 426.125,525.375 433.75,527.75 449.625,531.5 469.875,534.875 476.375,536.25"/>
    <polyline points="477.875,536.625 481.875,537.625 486.5,539.25 491.375,541.5 496.25,544.625 501.5,548.75"/>
    <polyline points="502.25,549.375 507.25,553.125 512.875,555.75 517.375,556.75 523.5,557.0 528.625,556.375 535.25,555.125 543.5,552.625 554.125,548.5"/>
    <polyline points="560.5,545.75 567.75,542.375 585.25,533.375 607.375,520.75 634.625,503.75 650.0,493.75 683.25,470.875 715.75,447.125 741.125,427.25 749.125,420.5 753.125,416.75 753.25,416.125 749.625,418.375 734.25,430.25 681.625,473.75"/>
    <polyline points="672.25,481.375 656.0,494.25 642.625,504.125 631.625,511.125 626.875,513.75 618.375,517.5 611.125,519.875 604.625,521.0 598.875,521.375 588.625,520.375 581.875,518.75 575.875,516.75"/>
    <polyline points="573.875,516.125 565.25,512.375 559.375,509.375 554.125,506.25 546.625,500.625 542.375,496.25"/>
    <polyline points="541.625,495.375 537.5,489.625 534.0,482.875 526.25,462.875"/>
    <polyline points="525.375,460.875 521.0,451.375 513.625,439.0 504.5,426.25 495.125,415.375 481.875,401.375 473.125,392.875 462.5,383.125 449.5,371.875 433.75,358.875 414.5,343.75 391.125,326.375 363.0,306.75 329.5,285.0 290.875,262.25 248.25,240.375"/>
    <polyline points="204.25,222.5 163.625,213.125 132.5,216.75 115.75,236.0 115.5,270.25 129.5,315.0 152.75,364.375 179.5,413.25 227.875,496.875 246.0,529.75 259.625,556.75 269.25,578.625 275.625,596.0 279.375,609.5 281.375,619.625 282.75,631.25 283.25,633.25 284.125,633.0 285.75,630.875 296.5,615.375 308.375,600.125"/>
    <polyline points="315.25,592.0 330.125,575.625 345.5,560.375 360.375,547.125 367.5,541.375 380.875,531.375 393.0,523.5 398.625,520.25 409.0,514.875 413.75,512.75 422.625,509.25 430.5,506.625 437.625,504.75 449.875,502.25"/>
    <polyline points="452.625,501.875 478.75,499.125 485.375,498.125 489.375,497.0"/>
    <polyline points="490.0,496.75 492.875,495.375 495.375,492.75 496.375,489.75 496.5,486.75 496.25,485.375"/>
    <polyline points="496.125,484.625 495.125,480.375 491.25,471.375 485.625,462.125 481.5,456.375 476.0,449.5"/>
    <polyline points="473.75,447.0 465.75,438.25 454.875,427.75 445.75,419.625 428.0,405.25 404.375,388.375 385.0,376.25 374.375,370.125 363.125,364.25 351.5,358.625 339.75,353.75 328.0,349.75 316.875,347.125 306.75,345.875 297.875,346.625 290.875,349.375"/>
    <polyline points="286.0,354.25 283.375,361.125 283.125,370.0 285.125,380.375 289.125,391.875 294.75,404.0 301.75,416.5 309.625,428.75 318.0,440.625 326.625,451.875 335.375,462.25 343.875,471.75 352.125,480.375 360.125,488.0 375.0,500.75 388.125,510.375 394.125,514.25 399.875,517.5 405.125,520.375 414.875,525.0 427.625,529.625"/>
    <polyline points="431.375,530.75 447.25,534.5 470.875,538.625 478.25,540.5 483.0,542.25"/>
    <polyline points="484.125,542.625 490.625,546.25 504.5,558.375"/>
    <polyline points="505.5,559.0 510.375,561.375 513.5,562.125 517.375,562.625 522.25,562.5 528.375,561.625 536.375,559.5 541.25,558.0 553.25,553.25 569.125,545.75 578.875,540.75 602.75,527.25 617.25,518.5 651.25,496.5"/>
    <polyline points="670.625,483.375 691.0,469.125 731.25,439.375 762.875,414.125 772.25,406.0 776.375,401.875 775.25,402.0 769.5,406.125 760.25,413.5 735.875,434.25 698.625,468.0 662.875,501.375 650.75,512.125 641.125,519.625 633.25,524.625"/>
    <polyline points="629.875,526.25 626.5,527.625 620.5,529.25 614.875,529.75 609.5,529.375 604.25,528.625 592.0,525.125 578.75,519.875 569.125,515.5"/>
    <polyline points="567.25,514.75 559.125,510.625 548.625,504.25 543.25,500.125 539.625,496.625 537.25,493.875"/>
    <polyline points="536.5,493.0 534.25,490.0 530.875,484.5 521.125,464.625 516.125,455.5"/>
    <polyline points="514.5,452.875 508.5,443.75 503.0,436.375 491.125,422.25 485.75,416.5 471.875,402.875 463.125,394.75 440.125,375.0 425.25,363.125 407.5,349.75 386.625,334.75 362.0,318.125 333.75,300.375 301.875,282.375 267.5,265.25 232.5,251.5 199.875,243.75 173.375,245.0 156.625,257.125"/>
    <polyline points="151.375,280.25 157.375,312.375 172.125,350.0 192.0,389.25 213.625,427.25 234.625,462.0 269.5,518.25 282.5,539.875 300.875,572.125 317.625,604.25 319.875,607.625 321.875,609.5 323.875,610.25 325.875,609.875 328.25,608.5 330.875,606.5 348.875,588.875"/>
    <polyline points="353.375,584.75 367.625,572.25 377.5,564.625 391.875,554.875 405.5,547.0 417.875,541.25 429.125,537.0 439.125,534.125 448.0,532.25 453.375,531.5"/>
    <polyline points="455.875,531.125 466.875,530.375 472.5,530.375 479.0,530.875 488.0,532.375 494.0,534.375"/>
    <polyline points="494.875,534.75 499.75,537.125 510.375,544.375 513.875,546.25"/>
    <polyline points="514.875,546.75 518.125,548.0 520.75,548.5 527.375,549.0 531.75,548.75 536.875,547.875 547.0,545.125 560.75,539.875 579.625,531.0 587.375,527.0 605.0,517.0"/>
    <polyline points="615.125,511.0 637.375,497.125 673.75,472.625 705.5,449.25 718.25,439.0 721.0,436.5 721.25,435.875 715.0,439.75 661.25,478.75 646.125,488.875 632.875,496.875"/>
    <polyline points="626.875,500.25 616.125,505.5 606.75,509.125 598.5,511.5 588.0,513.25 579.0,513.5 571.375,512.875 566.875,512.125 559.0,510.125 552.375,507.625"/>
    <polyline points="550.875,507.0 543.0,502.875 537.625,499.0 533.125,494.875 529.875,491.125 526.125,485.875"/>
    <polyline points="525.5,484.625 511.25,460.375 504.125,450.0 499.25,443.5 493.0,436.0 484.875,427.125"/>
    <polyline points="480.0,421.875 467.75,410.0 451.25,395.25 428.875,377.0 414.875,366.375 398.75,354.75 380.125,342.0 359.0,328.375 335.25,314.25 309.375,300.5 282.25,288.0 255.25,278.25 230.25,273.125 209.5,274.0 195.25,282.375 188.875,298.375 190.375,321.0 198.875,348.375 212.375,378.25 228.625,408.375 246.0,437.125 262.875,463.375 278.5,486.625"/>
    <polyline points="292.5,506.625 315.0,538.0 331.125,559.375 342.625,573.25 351.0,581.75 354.5,584.375 357.625,586.25 360.5,587.5 363.25,588.125 365.75,588.375 370.75,587.625 375.75,585.75 380.875,583.375 396.375,574.75"/>
    <polyline points="399.0,573.375 409.25,568.625 414.25,566.625 421.125,564.25 427.625,562.625 437.0,561.25 443.25,561.375 448.375,562.5"/>
    <polyline points="449.5,562.875 450.625,563.25 453.25,564.875 455.25,567.0 456.5,569.625 457.0,571.625 457.125,573.875 456.125,579.125 454.125,584.0 452.0,587.75 449.125,591.875"/>
    <polyline points="447.375,594.125 440.625,602.0 430.625,611.625 416.5,623.5 403.75,633.0 387.75,643.875 378.5,649.875 368.125,656.125 344.625,669.125 331.625,675.5 318.0,681.5 304.25,686.75 290.75,690.75 278.125,693.125 267.125,693.25 258.375,690.875 252.625,685.5"/>
    <polyline points="250.0,677.125 251.0,665.875 255.125,652.375 262.0,637.125 271.0,620.875 281.625,604.375 292.875,588.0 304.375,572.5 315.75,558.125 326.625,544.875 346.25,522.625 354.875,513.375 362.75,505.5 376.25,492.75 387.375,483.625 396.625,477.125 407.625,471.0 416.25,467.625"/>
    <polyline points="418.75,466.875 425.125,465.25 437.375,463.125 441.25,462.0 442.75,461.25 444.375,459.875 445.125,458.625 445.5,456.625"/>
    <polyline points="445.5,455.875 444.75,452.375 443.125,449.25 439.625,444.25 435.75,440.0 429.0,433.5 424.875,430.0 420.125,426.375 412.0,420.875"/>
    <polyline points="409.125,419.0 399.75,413.625 393.25,410.5 386.75,408.0 380.5,406.125 377.5,405.625 372.25,405.25 368.0,406.25 366.375,407.25 365.125,408.5 364.25,410.0 363.75,412.0 364.0,416.5 365.75,422.0 371.0,431.375"/>
    <polyline points="373.375,434.5 381.625,444.0 387.75,450.0 397.5,458.0 407.375,464.75 413.625,468.5 425.625,474.25 436.125,478.25 445.375,480.625"/>
    <polyline points="447.375,481.125 453.125,482.0 458.125,482.375 466.0,481.875 469.0,481.125 472.125,479.625 473.75,478.125 474.875,476.25"/>
    <polyline points="475.125,475.5 475.5,474.0 475.375,470.5 474.125,466.125 471.625,460.875 468.625,456.125 464.5,450.625 461.125,446.5 454.5,439.375"/>
    <polyline points="451.875,436.75 442.375,428.0 434.5,421.375 425.375,414.125 414.625,406.375 402.25,398.25 388.5,390.125 373.5,382.5 365.75,379.125 358.125,376.125 350.5,373.75 343.25,372.0 336.625,371.125 330.625,371.25 325.5,372.5 321.5,374.875 318.625,378.25 317.0,382.75"/>
    <polyline points="316.75,388.25 317.625,394.625 319.875,401.625 323.0,409.25 327.125,417.0 332.0,425.0 337.375,432.875 343.125,440.5 355.5,454.875 361.875,461.375 368.125,467.375 380.375,478.0 392.0,486.625 397.5,490.25 407.75,496.375 417.25,501.125 429.875,506.5 437.375,509.0"/>
    <polyline points="440.875,510.0 450.5,512.5 458.75,514.25 472.125,516.375 491.0,518.875"/>
    <polyline points="492.0,519.0 495.75,519.625 501.625,521.125 504.375,522.125 508.0,524.125"/>
    <polyline points="508.375,524.375 511.375,526.625 517.375,532.75"/>
    <polyline points="517.875,533.125 520.25,535.125 522.625,536.625 524.875,537.625 529.625,538.875 536.5,539.125 542.0,538.5"/>
    <polyline points="544.25,538.0 552.0,536.125 555.0,535.125 570.0,529.25 584.875,522.125 596.75,515.875 617.25,504.0 647.25,484.875 661.125,475.25 676.625,463.875"/>
    <polyline points="679.625,461.375 682.125,459.0 681.5,459.0 679.75,459.875 653.0,476.25 635.75,486.25 624.75,492.125 614.375,497.125 600.375,502.75 588.25,506.5 581.125,508.125"/>
    <polyline points="577.75,508.75 571.75,509.625 563.625,510.25 556.625,510.25 550.5,509.875 540.75,508.375 535.5,507.125 531.125,505.625"/>
    <polyline points="530.125,505.25 525.0,502.75 520.25,499.375 516.75,495.875 513.75,491.875"/>
    <polyline points="513.25,491.125 500.875,470.25 493.25,459.125"/>
    <polyline points="491.625,456.875 483.125,446.375 474.125,436.5 466.25,428.625 456.5,419.5 444.125,408.875 428.75,396.5 409.375,382.25 398.125,374.5 385.625,366.5 372.0,358.25 357.375,350.0 341.875,342.0 325.875,334.875 310.0,328.875 294.625,324.75"/>
    <polyline points="280.625,323.125 268.875,324.25 260.125,328.875 254.75,336.75 253.125,347.875 255.0,361.625 260.0,377.375 267.5,394.375 276.875,411.625 287.375,428.5 298.375,444.625 309.5,459.625 320.25,473.125 330.5,485.25 340.25,495.875 349.25,505.125 365.25,519.875 378.875,530.5 384.875,534.625 395.5,540.875 408.875,546.75"/>
    <polyline points="412.75,548.0 419.75,550.0 428.75,552.0 446.625,554.75 453.0,556.25 456.875,557.625 462.0,560.625"/>
    <polyline points="462.75,561.375 465.25,564.625 466.125,566.5 466.625,568.5 466.875,572.125 466.375,576.125 465.0,580.875 462.375,586.5 458.25,593.125 454.375,598.375"/>
    <polyline points="451.875,601.25 446.0,607.75 433.5,619.75 421.875,629.625 414.625,635.25 406.375,641.5 386.0,655.75 359.625,672.5 343.875,681.75 326.5,691.25 307.75,700.625 287.875,709.5 267.875,716.875 248.625,722.0 231.75,723.625 218.5,720.875 210.375,712.875 208.0,699.75 211.625,681.75 220.25,660.125"/>
    <polyline points="232.875,636.375 247.75,611.875 263.625,587.875 279.25,565.375 307.375,526.375 351.625,466.375 364.625,449.25 370.25,442.75 374.5,439.0 376.375,437.875 378.0,437.25 381.25,437.0 384.375,437.875 387.5,439.5"/>
    <polyline points="389.25,440.5 405.875,451.5 411.75,454.875 422.875,460.0 429.5,462.25 434.0,463.25"/>
    <polyline points="435.25,463.375 437.875,463.75 441.125,463.75 443.875,463.25 445.375,462.75 446.5,462.0 447.875,460.5 448.5,457.875 448.125,455.375 447.0,452.375"/>
    <polyline points="446.375,451.25 443.125,446.25 438.0,440.25 428.625,431.5 421.25,425.625 406.0,415.5 399.0,411.625 391.875,408.125"/>
    <polyline points="388.25,406.625 381.125,404.125 377.625,403.25 371.375,402.25 368.5,402.25 366.0,402.625 363.875,403.375 362.125,404.5 360.75,405.875 359.875,407.75 359.375,410.0 359.375,412.5 359.875,415.25 360.875,418.25 362.125,421.5 365.875,428.375 373.875,439.125 380.25,446.0 387.125,452.375"/>
    <polyline points="390.625,455.5 397.75,461.0 404.75,465.875 415.0,471.875 424.5,476.5 435.875,480.875 441.0,482.375 448.0,484.125 459.5,485.75"/>
    <polyline points="461.125,485.75 464.125,485.875 469.25,485.5 474.25,484.25 477.625,482.25 478.625,481.125 479.875,478.75 480.375,476.5"/>
    <polyline points="480.375,475.625 480.125,473.0 478.875,468.625 475.625,462.0 473.625,458.75 469.75,453.375 462.5,444.625 451.875,433.875"/>
    <polyline points="448.625,430.75 432.0,416.625 426.875,412.75 408.875,399.875 394.5,390.875 386.75,386.25 370.125,377.75 361.5,373.875 352.875,370.625 344.5,367.875 336.5,366.125 329.125,365.25 322.5,365.625 317.125,367.25 312.875,370.125 310.125,374.375 308.875,379.875 309.125,386.5 310.75,394.0"/>
    <polyline points="313.75,402.25 317.75,410.875 322.875,419.75 328.5,428.625 334.75,437.375 348.125,453.625 355.0,461.0 361.875,467.875 375.0,479.75 387.5,489.375 393.375,493.375 404.25,500.125 409.375,502.875 418.875,507.5 427.5,511.0 438.875,514.75 445.625,516.625"/>
    <polyline points="448.75,517.375 462.25,520.0 484.125,523.25 493.375,525.125"/>
    <polyline points="494.375,525.375 500.125,527.25 504.0,529.125 506.375,530.5 510.5,533.625"/>
    <polyline points="511.0,534.0 516.125,537.875 521.375,540.625 526.625,542.0 532.375,542.375"/>
    <polyline points="534.125,542.25 538.125,541.875 542.875,541.0 551.75,538.5 559.125,535.875 573.0,529.875 584.5,524.25 605.5,512.75 630.5,497.625 648.375,486.0 673.375,468.5"/>
    <polyline points="680.25,463.5 690.5,455.625 694.625,451.875 694.375,451.75 692.625,452.625 689.5,454.5 648.75,480.875 630.0,491.625 613.5,499.75 603.875,503.625 591.25,507.5"/>
    <polyline points="587.375,508.375 583.875,509.125 574.25,510.375 566.0,510.625 559.0,510.25 551.0,509.125 545.875,508.0 540.125,506.25 535.125,504.25"/>
    <polyline points="534.0,503.75 530.0,501.5 526.5,499.0 522.75,495.75 518.625,491.0 514.75,485.5"/>
    <polyline points="514.125,484.375 503.875,467.875 495.0,455.125 488.375,446.875 475.5,432.75"/>
    <polyline points="471.25,428.5 461.25,418.875 448.375,407.5 431.875,394.125 422.125,386.625 398.5,369.75 384.625,360.625 369.25,351.125 352.625,341.625 334.875,332.375 316.5,324.0 298.0,317.125 280.375,312.5 264.625,310.875 251.75,313.125 242.625,319.375 237.875,330.0 237.75,344.25 241.75,361.5 249.25,380.75 259.375,400.75 271.0,420.75"/>
    <polyline points="283.25,439.75 295.75,457.5 307.75,473.5 319.125,487.625 329.75,500.125 339.375,510.75 348.25,519.875 356.25,527.625 363.5,534.125 376.0,544.0 381.5,547.75 386.5,550.75 395.25,555.125 402.875,558.0 409.5,559.75 420.5,561.625 427.25,562.25"/>
    <polyline points="429.25,562.375 439.375,563.75 444.25,565.25 447.125,566.875 449.875,569.625 451.0,572.25 451.25,574.25 451.0,577.875"/>
    <polyline points="450.625,579.125 448.125,585.25 444.5,590.875 441.125,595.125 436.875,600.0 431.375,605.5 420.25,615.25 410.625,622.875 391.625,636.125 375.625,646.125 356.75,656.625"/>
    <polyline points="346.375,661.75 335.625,666.75 324.5,671.25 313.375,675.0 302.75,677.75 292.875,679.125 284.25,678.875 277.375,676.625 272.75,672.125 270.375,665.625 270.625,657.0 273.25,646.625 278.125,634.75 284.875,622.0 292.875,608.75 302.0,595.625 311.5,582.625 321.25,570.375 330.875,559.0 349.125,539.0 357.5,530.5 365.375,523.125 372.75,516.5 385.875,505.875"/>
    <polyline points="391.75,501.5 397.125,497.875 406.75,492.125 418.875,486.375 425.75,483.875 434.375,481.375 451.0,478.125 458.875,476.0"/>
    <polyline points="459.875,475.625 461.75,474.75 463.875,473.25 465.625,470.625 466.25,468.375 466.0,464.625 465.375,462.375 463.0,457.25 460.0,452.75"/>
    <polyline points="458.875,451.0 450.5,441.25 437.625,429.0 426.875,420.25 413.625,410.75 397.875,400.75 386.125,394.375 373.875,388.75 367.75,386.375 361.625,384.5"/>
    <polyline points="355.875,383.0 350.375,382.25 345.375,382.0 341.0,382.625 337.375,384.0 334.625,386.25 332.625,389.125 331.625,392.875 331.625,397.375 332.375,402.375 334.125,408.0 336.75,413.875 339.875,420.0 348.0,432.5 352.75,438.625 362.875,450.25 368.125,455.625 378.75,465.5 389.25,473.875 404.0,483.875"/>
    <polyline points="408.75,486.5 413.125,489.0 421.625,493.125 429.375,496.375 440.0,500.0 449.125,502.5 459.625,504.75 478.75,507.125"/>
    <polyline points="480.25,507.25 492.5,507.625 496.25,507.5 501.0,506.875"/>
    <polyline points="501.375,506.75 504.25,505.875 506.0,504.25 506.5,503.0"/>
    <polyline points="506.5,502.75 506.75,501.125 506.625,499.25 505.375,493.625"/>
    <polyline points="505.25,493.0 503.25,487.125 500.625,480.875 494.75,469.75"/>
    <polyline points="493.75,468.25 487.75,459.25 482.625,452.625 475.75,444.625 470.0,438.375 462.875,431.25 454.125,423.125 437.125,408.625 422.375,397.25 404.375,384.5 394.0,377.75"/>
    <polyline points="382.875,370.75 358.125,357.0 344.875,350.625 331.5,345.125 318.25,340.625 305.625,337.75 294.25,336.75 284.625,338.125 277.375,342.0 272.75,348.375 270.875,357.375 271.875,368.375 275.5,381.0 281.125,394.75 288.5,409.0 297.125,423.25 306.375,437.125 315.875,450.125 325.5,462.125 344.0,483.0 352.625,491.625 360.875,499.25 368.5,506.0 375.625,511.75"/>
    <polyline points="382.375,516.625 394.375,524.5 405.0,530.125 414.25,534.25 422.375,537.125 429.625,539.125 439.125,541.25 458.0,544.5 464.875,546.0"/>
    <polyline points="466.375,546.375 470.625,547.75 475.25,549.75 479.875,552.75 481.5,554.125 484.75,558.0 486.375,560.625 487.75,563.625"/>
  </g>
</svg>
