<?xml version="1.0" encoding="utf-8" ?>
<svg xmlns="http://www.w3.org/2000/svg" xmlns:cc="http://creativecommons.org/ns" xmlns:dc="http://purl.org/dc/elements/1.1/" xmlns:ev="http://www.w3.org/2001/xml-events" xmlns:inkscape="http://www.inkscape.org/namespaces/inkscape" xmlns:rdf="http://www.w3.org/1999/02/22-rdf-syntax-ns" xmlns:sodipodi="http://sodipodi.sourceforge.net/DTD/sodipodi-0.dtd" xmlns:xlink="http://www.w3.org/1999/xlink" baseProfile="tiny" height="27.09333333cm" version="1.2" viewBox="0 0 1024.0 1024.0" width="27.09333333cm">
  <metadata>
    <rdf:RDF>
      <cc:Work>
        <dc:format>image/svg+xml</dc:format>
        <dc:source>vpype read './original_svgs/Strange Attractors #446.svg' linemerge linesimplify write './Strange Attractors #446.svg'
</dc:source>
        <dc:date>2024-08-05T01:36:00.247268</dc:date>
      </cc:Work>
    </rdf:RDF>
  </metadata>
  <defs/>
  <g fill="none" id="layer1" inkscape:groupmode="layer" inkscape:label="1" stroke="black" style="display:inline">
    <polyline points="370.75,848.375 342.0157,848.2258 320.5467,847.6956 302.1094,846.6596 286.6598,845.1063 274.0334,842.9992 263.0169,840.1697 253.6263,836.6197 245.5794,832.1847 241.9796,829.5112 238.795,826.5681 236.1565,823.4608 234.117,820.3093 232.3696,816.608 231.1961,812.9278 230.4571,808.996 230.1649,804.8138 230.3316,800.3827 230.9695,795.7041 232.0908,790.7792 233.5538,786.0495 238.118,775.2608 244.4239,764.0453 252.6216,752.0292 262.6275,739.3318 274.3581,726.0724 287.4153,712.6788 301.6169,699.2877 317.135,685.7214 334.3859,671.603 353.5189,656.833 372.7894,642.7018 393.4738,628.2203 414.6677,614.02 436.7421,599.8392 480.9837,572.7748 561.0022,525.8065 586.961,509.6592 598.4471,501.7891 607.0889,495.0811 613.7217,488.9193 618.362,483.199 619.8879,480.4956 620.8764,477.7882 621.2379,475.1875 620.9803,472.8686 620.1892,470.8179 618.7063,468.7463 616.75,467.0 614.2178,465.3631 610.7344,463.6971 607.0753,462.4891 602.365,461.5849 597.6872,461.0966 593.875,461.125 589.0691,461.7519 585.7183,462.8801 584.625,463.875 585.2344,464.2344 586.875,464.125 590.345,462.912 595.1386,460.4361 600.1781,457.0456 606.0768,452.3463 611.7045,447.3017 616.5601,442.3976 621.7332,436.5729 632.047,423.2843 641.4998,408.9087 649.6336,394.1976 656.7365,378.6628 662.1878,363.9091 666.317,349.3233 669.0,335.5 670.4202,321.5273 670.4062,308.9395 669.0222,297.7338 667.7543,291.939 666.1355,286.3692 664.1437,281.0773 661.9285,276.4359 659.5476,272.4221 656.6207,268.4163 653.2789,264.6416 649.9247,261.5195 646.3215,258.7749 642.479,256.4364 638.7547,254.6742 634.5864,253.2102 629.9695,252.0819 625.5708,251.4441 620.681,251.2074 616.0737,251.4235 611.3968,252.0713 606.5069,253.2058 601.6574,254.743 596.5237,256.8116 587.1653,261.8133 577.9669,268.435 569.191,276.5647 561.2842,285.7448 554.0468,296.1492 547.8964,307.1694 542.5552,319.2888 538.2253,332.0543 535.1697,344.4244 533.0063,357.6621 531.9836,369.8119 531.889,382.9769 532.6738,395.6191 534.5684,408.4199 537.2551,420.6732 541.0088,432.3831 545.1172,442.0579 550.458,451.3273 555.3749,457.4838 561.0582,462.6005 564.0109,464.4924 567.0971,465.995 570.5923,467.2242 573.4221,467.8046 576.7718,468.0429 580.6463,467.8643 584.3259,467.324 587.8324,466.3776 592.2093,464.6955 597.0389,462.3472 605.1336,457.2114 614.5249,449.5485 623.6781,440.3119 633.2098,428.9344 641.9795,416.7551 649.7849,404.0521 657.5963,389.3006 663.4681,376.1758 668.5521,362.3299 672.4781,349.1089 675.2485,336.3755 677.0144,322.9633 677.5987,310.3345 676.988,298.7782 675.1278,287.6282 672.6232,278.6505 669.3831,270.6657 665.4721,263.7541 660.5546,257.4103 654.7897,251.9069 648.6352,247.6306 641.8946,244.3883 634.4879,242.1947 626.3999,241.0758 618.4064,241.1397 610.2427,242.3412 601.9429,244.6977 593.3621,248.2475 584.9934,252.8586 576.9365,258.4938 569.3901,264.9769 560.2536,274.5742 552.1195,285.2071 545.0296,296.7484 538.7932,309.4872 533.5372,323.1952 529.5631,337.0268 526.7866,351.6156 525.107,367.0658 524.7819,382.8043 525.804,399.6536 528.0511,415.1676 531.5278,430.0509 536.558,444.9153 539.1383,450.8638 542.0445,456.5594 545.3734,462.3078 548.34,466.5679 551.928,470.783 555.6834,474.3685 558.5158,476.4807 561.7983,478.4001 565.2075,479.8946 568.49,480.8275 571.9097,481.3267 575.8297,481.413 579.3876,481.0841 583.4062,480.25 591.3411,477.3551 600.1205,472.4866 608.947,466.0486 618.2399,457.8345 627.4408,448.2307 637.0815,436.5959 645.391,425.098 653.5406,412.2166 661.0612,398.681 667.7528,384.7768 673.6191,370.534 678.4579,356.3356 681.322,345.952 683.5531,335.8949 685.1878,326.101 686.2104,316.6786 686.6201,307.7133 686.4111,298.3705 685.6461,289.7639 684.2861,281.4087 682.3886,273.767 679.9985,266.8797 676.9662,260.325 673.208,253.9289 668.875,248.0937 664.2498,243.1624 659.1279,238.8874 653.8453,235.5169 647.5249,232.5033 640.8411,230.2839 633.8432,228.8861 626.5804,228.3372 619.1421,228.6603 611.5949,229.834 604.0317,231.8091 596.5167,234.5535 588.7658,238.2186 581.5504,242.4377 574.5099,247.361 567.548,253.0695 560.9488,259.3453 554.4935,266.4262 548.7304,273.6884 543.2206,281.6697 536.149,293.9071 530.1052,306.8898 525.03,320.6218 521.123,334.788 518.2435,349.808 516.5488,364.4929 515.9948,379.7403 516.5557,396.3218 518.2892,412.086 521.3275,428.8069 523.5282,437.4732 526.625,447.875 531.2817,460.6312 536.9652,472.6748 540.3519,478.2176 544.6046,484.2941 547.9165,488.1609 551.3685,491.4221 554.6085,493.9087 558.3125,495.9844 561.8351,497.3691 565.4305,498.32 568.7894,498.7315 572.704,498.7182 576.75,498.25 580.7515,497.3375 589.4628,493.9993 597.9328,489.2497 607.8312,481.9832 618.1671,472.9982 627.8759,463.1411 638.0406,451.1581 647.6026,438.4244 656.9058,424.4018 665.6883,409.5754 673.215,395.1801 680.2117,379.7927 685.8772,365.2637 690.5017,350.8912 693.3753,339.7071 695.6632,328.4627 697.2888,317.4816 698.2239,306.8966 698.4605,297.185 698.0283,287.5435 696.9461,278.168 695.1875,269.0781 692.8387,260.7358 689.8128,252.8517 686.1688,245.6633 681.9752,239.1399 676.9536,232.9004 671.6033,227.6066 665.7196,223.0113 659.3228,219.1795 652.2154,216.0833 644.7963,213.8932 637.0647,212.573 628.696,212.1228 620.5141,212.5836 611.9434,213.9698 603.5172,216.2071 595.1766,219.2665 586.9757,223.1075 578.6401,227.8958 570.8926,233.2065 563.1347,239.4424 555.6623,246.4145 548.6701,253.9184 541.9438,262.1854 535.7702,270.8678 527.8071,284.1605 520.8706,298.6759 514.8528,314.7937 510.2462,331.1322 507.0844,347.6882 505.1501,365.5184 504.5897,382.6957 505.3049,400.1904 506.2114,409.9941 507.5186,419.8159 511.5413,440.9455 513.973,450.6495 517.0976,461.3285 519.8443,469.7479 523.0482,478.1373 526.9254,487.295 529.8849,493.4584 534.5,501.75 537.6288,506.4859 541.8299,511.68 545.8378,515.766 550.0598,518.8937 554.6024,521.3032 558.2656,522.5 562.5326,523.2411 566.5141,523.4083 570.8578,522.9536 575.4908,521.8761 580.3188,520.2181 585.6746,517.8131 591.033,514.9161 596.4894,511.5142 601.9738,507.6098 613.875,497.75 625.9332,486.0927 638.151,472.6143 649.5268,458.4149 660.7625,442.6394 671.6814,425.4609 681.2136,408.635 689.3663,392.232 696.6573,375.2202 702.8594,358.1257 707.7766,341.5149 710.6916,329.1347 712.9474,316.6445 714.4089,304.8226 715.1528,293.0278 715.1292,282.116 714.3743,271.6834 712.8014,261.1088 710.5234,251.2558 707.4802,241.8315 703.8177,233.2704 699.6092,225.6002 694.6072,218.4142 688.8467,211.816 682.4469,205.9588 675.446,200.9018 667.8821,196.704 659.7934,193.4243 651.405,191.1564 642.4784,189.7744 632.916,189.3188 623.5287,189.8318 614.0264,191.2842 604.4821,193.683 594.886,197.0639 585.1058,201.4729 575.598,206.7083 566.4145,212.718 557.3109,219.6946 548.9476,227.1193 540.8193,235.4216 533.0775,244.4848 526.008,253.9552 520.9935,261.5204 516.3768,269.2518 511.9883,277.4454 508.0378,285.7186 504.3683,294.4042 501.145,303.103 498.2366,312.1469 495.6706,321.4993 493.543,330.761 491.743,340.3889 490.3633,349.9238 489.3289,359.9807 488.7014,370.1303 488.4637,380.346 488.6002,390.8971 489.1113,400.9137 490.3313,414.1745 492.3114,429.1652 494.3344,441.1138 497.0195,453.9582 501.172,470.8744 506.744,490.4054 514.8386,514.4905 522.4398,534.2315 527.386,544.5127 530.7795,550.2934 534.9515,556.2414 538.8975,560.3278 542.84,563.1728 547.7549,565.2803 552.0282,566.1562 557.0744,566.2074 562.4238,565.4053 568.2748,563.6931 574.3857,561.2195 580.3566,558.155 587.2908,553.9557 594.5085,548.9973 601.8404,543.3511 609.3873,536.9643 618.1282,528.942 626.8032,520.4569 642.5999,503.5112 657.97,484.9784 671.875,466.25 686.3013,444.6692 698.5974,424.1008 709.3556,403.7249 719.1333,382.5585 727.4356,361.5194 734.099,341.0293 739.1629,321.0783 741.9449,306.4432 743.8587,292.0818 744.8763,278.1206 744.9919,265.0383 744.1976,252.0315 742.4975,239.625 739.9537,227.9525 736.5041,216.7313 732.2816,206.4047 727.1682,196.7022 721.3214,187.9589 714.533,179.8416 706.9568,172.5507 698.6406,166.1491 689.6324,160.6997 680.3352,156.4057 670.1067,153.01 659.4204,150.7613 648.318,149.619 636.5691,149.5815 624.6245,150.6822 612.5827,152.8991 600.5419,156.2105 588.9712,160.4415 577.251,165.8154 565.7185,172.2099 554.6185,179.4672 543.713,187.7477 533.388,196.7692 523.4465,206.7217 514.2819,217.223 505.7427,228.3784 496.4122,242.4604 487.919,257.5495 480.3834,273.5038 474.1144,289.6227 469.0053,306.1882 465.0294,323.1779 462.0726,341.1095 460.243,359.3819 459.5973,375.9546 459.8623,393.158 461.0651,411.7676 463.0495,428.833 465.624,444.8777 469.3413,464.4245 481.5391,517.8092 485.0225,534.7069 487.7016,550.8909 489.2076,564.7844 489.6364,583.7996 489.0811,592.1382 488.1578,599.6416 486.2269,609.7685 484.2526,617.8257 481.5746,626.1036 478.3853,634.3359 471.8582,648.1246 464.0177,661.1108 454.8665,673.9172 443.8931,686.9396 431.9596,699.3881 417.4272,712.698 403.5316,723.8976 387.33,735.5867 370.6909,746.1743 354.045,755.3588 337.4731,763.022 321.4247,769.0282 314.3735,771.0525 307.5316,772.5734 300.983,773.561 295.1432,773.977 290.2964,773.8794 285.6953,773.1915 281.6897,771.8722 278.6284,770.1038 276.1783,767.7741 274.396,764.864 273.4344,761.7449 273.1661,758.254 273.5659,754.2879 274.6557,749.8624 276.4572,744.9934 278.9922,739.6969 282.0023,734.442 285.8129,728.6505 295.0908,716.6639 307.1887,703.2608 321.3863,689.2625 338.1016,674.3162 357.287,658.5602 379.1694,641.8117 402.9197,624.7078 422.7156,611.1377 444.3934,596.8286 469.1721,581.0038 524.8009,546.208 538.5981,537.183 549.6535,529.4639 559.013,522.282 565.3182,516.5723 567.648,513.879 568.969,511.862 569.666,510.193 569.7885,508.6411 569.1145,507.4062 568.0212,506.75 566.5471,506.4688 564.7507,506.5625 559.9567,508.0153 554.7423,511.0737 551.7639,513.4618 549.0941,516.1471 546.7036,519.2142 544.6724,522.4566 543.0209,525.8911 541.8194,529.338 540.959,533.123 540.4693,536.999 540.4582,540.5622 540.9537,544.4088 541.831,547.4429 543.0802,550.159 544.7349,552.7224 546.6469,554.6711 549.1828,556.4243 551.5549,557.4203 557.0634,558.3978 562.021,558.0952 568.6454,556.4669 575.8869,553.4813 584.2103,548.9849 592.7186,543.4582 601.125,537.125 611.1957,528.6066 625.5825,514.9101 640.9047,498.3867 654.8221,481.5794 668.8636,462.7354 681.5701,443.7659 692.9929,424.6739 703.6691,404.5785 713.079,384.3729 719.2627,369.2409 724.5367,354.4715 729.0737,339.5913 732.8014,324.7501 735.6004,310.4579 737.5475,296.3583 738.5929,282.8054 738.761,269.333 738.0519,256.8212 736.4393,244.6061 733.9563,233.1478 730.6048,222.3987 726.2691,211.9798 721.2181,202.5263 715.3261,193.7612 708.6017,185.7764 701.0535,178.6637 693.0167,172.7259 683.8219,167.5071 673.9883,163.3685 663.6054,160.3341 652.7627,158.4277 641.5499,157.6732 630.4564,158.0601 618.9899,159.5854 607.1339,162.2898 595.3542,166.0841 583.393,171.074 572.0471,176.9081 560.7256,183.8799 550.0573,191.6179 539.8273,200.2213 532.6448,207.036 525.8255,214.1713 519.3764,221.5905 513.0787,229.5566 507.1957,237.7487 501.7013,246.1808 496.6563,254.7518 491.8912,263.7624 487.4415,273.1876 483.4779,282.6443 479.8572,292.4434 476.6067,302.5389 473.75,312.875 471.3578,323.1859 469.3756,333.7026 467.8603,344.0091 466.0699,363.567 465.5877,383.9542 466.4551,403.9122 468.7442,426.1044 471.4601,443.908 475.6603,465.1274 479.321,481.6335 488.9135,521.5745 492.4701,538.3481 495.9955,560.6992 497.1627,574.4619 497.4056,584.1738 497.033,596.02 496.2097,604.3485 494.8301,613.4969 492.3917,624.2452 490.375,631.25 486.9448,640.5767 482.8711,649.6187 475.8222,662.6975 471.6206,669.3557 467.2508,675.5784 455.4547,690.1886 443.1454,703.2674 427.521,717.8034 410.0798,731.9957 393.3431,744.125 375.1745,755.7132 356.1432,766.3081 336.4861,775.6927 327.834,779.2446 319.1345,782.4034 310.8263,785.0085 302.9707,787.0665 295.7018,788.5648 288.564,789.5448 282.2259,789.903 276.3333,789.6713 270.9623,788.8075 266.4077,787.3608 262.6807,785.3149 259.9275,782.8271 257.8721,779.7486 256.5761,776.0744 256.1011,771.7995 256.4335,767.3879 257.5072,762.5947 259.3634,757.3423 262.0299,751.5947 265.3273,745.6892 269.3685,739.3905 274.1579,732.7259 285.6652,718.781 299.7944,703.9871 316.6258,688.2073 335.6561,671.8795 356.461,655.3555 379.158,638.5727 404.5954,620.8301 425.9996,606.565 448.2576,592.2671 536.875,538.0 550.9124,529.0426 562.9026,520.8989 573.1606,513.2366 580.1311,507.1057 584.7058,501.6618 585.9442,499.358 586.5,497.25 586.2891,495.3066 585.1202,493.548 583.1818,492.434 580.2347,491.8961 576.8543,491.9376 573.2806,492.6295 569.5477,494.0186 566.2217,495.8415 562.5121,498.7123 559.453,502.4618 557.6384,505.958 556.875,510.0 557.2581,513.2492 559.0141,516.6709 561.3791,518.595 564.8107,519.9669 568.1213,520.2363 572.7534,519.8132 576.9062,518.7344 581.9978,516.7957 586.4589,514.6826 591.5112,511.7552 602.7379,503.8977 612.2716,495.8922 622.1811,486.3052 632.5812,475.0587 642.6025,463.0202 652.1297,450.3819 661.1998,437.1351 669.9639,422.9913 677.9143,408.8379 684.359,396.0933 690.093,383.3688 695.7468,369.1219 700.4459,355.5616 704.1077,343.0938 707.0342,330.7744 709.1843,318.6483 710.6091,306.7835 711.3132,294.9451 711.2348,283.6213 710.3815,272.8971 708.7709,262.8098 706.3142,252.8271 703.1772,243.6703 699.2675,235.0506 694.5723,227.0705 689.0789,219.8324 682.8009,213.3967 675.7872,207.7617 668.1457,203.0458 659.934,199.3107 651.5822,196.7085 642.616,195.0929 633.2015,194.5181 623.58,194.983 613.8379,196.4704 604.0617,198.9629 594.338,202.4433 584.3173,207.0985 574.5582,212.6734 565.1752,219.0821 556.2338,226.264 549.4428,232.5257 543.2702,238.9259 537.2209,245.9479 531.3661,253.5386 525.9583,261.3733 520.7991,269.7394 515.9328,278.6175 511.5561,287.6422 507.7149,296.6502 504.3155,305.8566 501.3174,315.3793 498.8201,324.832 496.636,334.9138 494.8723,345.1879 493.6083,355.1647 492.7485,365.6164 492.3122,376.8444 492.3275,388.3852 492.7257,398.6914 493.5758,409.2683 495.0363,421.4942 497.1149,435.148 499.217,446.0302 501.9601,457.8855 505.7104,472.0988 510.2387,487.0188 514.2842,498.9624 519.3338,512.2372 524.3635,523.8221 528.3224,531.8648 533.0136,539.7473 537.0584,544.9204 540.0655,548.0434 542.8161,550.2075 546.7859,552.488 550.5548,554.0245 554.3239,554.7752 558.6983,554.9976 562.4765,554.6625 566.5976,553.8109 571.673,552.2718 576.4028,550.3472 581.9306,547.5694 588.1458,543.9585 598.9195,536.4031 611.5989,525.9192 624.7199,513.5111 637.8262,499.5343 651.2658,483.6604 663.8751,467.1889 676.2214,449.3626 687.4184,431.4989 697.6291,413.3746 706.9651,394.7669 713.6023,379.8673 719.2969,365.429 724.1505,351.2639 728.372,336.7374 731.821,322.3062 734.4523,308.0449 736.1729,294.4743 737.0281,281.3349 737.0061,268.6406 736.1196,256.0986 734.3995,244.2176 731.7904,232.7188 728.3804,222.0644 724.2212,212.3078 719.2188,203.2315 713.5764,195.077 706.6726,187.0749 698.9502,179.9606 690.7665,174.0172 681.896,169.0477 672.7388,165.2508 662.7165,162.3843 652.3065,160.5954 641.195,159.8659 629.8316,160.2734 618.6991,161.7453 607.5105,164.2741 596.2312,167.8904 584.8954,172.5739 573.4944,178.3672 562.4545,185.0702 551.5515,192.8437 543.8062,199.145 536.4025,205.859 529.014,213.3151 522.0584,221.1028 515.3104,229.4805 509.0398,238.1191 503.2506,246.9721 497.7663,256.3178 492.8068,265.7918 488.2015,275.7179 484.0062,285.9686 480.2379,296.5375 477.0238,307.0282 474.2473,317.7666 471.9259,328.7063 470.0566,339.9084 467.995,359.231 467.2718,379.3765 467.8526,400.56 469.8272,421.9223 472.7651,441.8361 476.5608,461.8173 481.1336,482.2513 492.0063,527.3014 495.3302,543.6206 496.8992,552.6746 498.2799,563.0732 499.5679,578.5995 499.7788,587.5428 499.4108,598.9312 498.4513,609.1818 497.3074,616.7497 494.7911,627.5941 491.8415,637.4965 489.3373,644.284 485.14,653.646 477.5792,667.3038 469.2816,679.5348 458.227,693.0936 445.8258,706.1919 432.0822,718.9619 415.8969,732.3239 399.4709,744.3859 381.4815,756.2343 363.3881,766.7748 344.8978,776.1371 327.0287,783.8367 310.0019,789.7572 302.3129,791.911 294.7734,793.6354 287.819,794.8143 281.1344,795.4867 275.3628,795.6094 270.0692,795.2278 265.2371,794.315 260.9375,792.8438 256.963,790.588 253.787,787.61 251.6423,784.19 250.3586,780.0569 250.0525,775.3226 250.665,770.2423 252.1962,764.5697 254.691,758.3174 257.9447,751.9408 262.1214,745.0765 267.0582,738.0079 273.0669,730.3042 279.9873,722.2025 287.5156,714.0312 304.8819,696.8987 324.375,679.625 346.6223,661.6284 372.1349,642.4896 400.019,622.9069 422.2744,608.093 448.486,591.3591 478.0073,573.1617 541.675,534.7617 558.2229,524.3199 570.1838,516.2375 579.7832,508.87 586.7675,502.339 590.803,497.1263 591.9061,494.8158 592.4028,492.446 592.005,490.2365 590.4936,488.4264 587.6803,487.0585 584.2079,486.4728 580.1935,486.7006 576.0945,487.5587 572.625,488.875 568.7031,491.0781 566.1177,493.2167 563.8273,496.1745 562.4685,499.2733 562.1257,502.0193 562.875,504.875 564.2722,506.6986 567.125,508.375 570.1423,509.0078 573.4958,508.9328 576.7711,508.3632 580.6309,507.1792 585.3072,505.2542 593.7494,500.6373 603.0696,494.0397 611.737,486.742 620.3255,478.5459 628.7963,469.4855 637.1958,459.5453 645.9609,448.1731 654.2537,436.4048 661.9264,424.4357 668.9189,412.3863 674.9743,400.8987 680.614,389.0796 685.5761,377.466 689.9707,365.8423 693.7417,354.4271 696.9177,343.0839 699.4445,331.9109 701.2354,321.3535 702.5283,310.1397 703.1666,299.3402 703.1312,289.0521 702.4183,279.3513 701.0383,270.2944 698.9441,261.5305 696.1292,253.0 692.6255,244.9438 688.4331,237.4467 683.7784,230.8766 678.42,224.8946 672.4662,219.6447 665.9569,215.1484 658.9444,211.4582 651.481,208.6262 643.6189,206.7048 635.4591,205.7342 627.0947,205.6547 618.5991,206.4452 609.663,208.1846 601.0969,210.7158 592.5929,214.0806 583.8678,218.4266 575.2161,223.6279 568.1048,228.6204 561.2665,234.0947 554.7339,240.0181 548.2791,246.642 542.2621,253.6138 536.4373,261.1928 531.0661,269.0487 526.1562,277.1286 521.715,285.38 517.5893,294.1139 513.9988,302.8666 510.7753,311.9965 507.9418,321.4648 505.4334,331.5824 503.3734,341.919 501.8749,351.8063 500.8339,361.9309 500.247,372.143 500.0789,383.4656 500.356,394.3339 501.0958,404.9233 502.3283,416.0706 504.0832,428.1281 506.013,438.3027 512.0071,462.4198 515.3536,473.0979 519.5571,485.1078 528.048,504.5976 533.3906,513.9173 537.4284,519.8278 540.7755,523.8149 543.767,526.823 546.8631,529.2352 550.7251,531.5432 553.7285,532.8555 556.9637,533.6975 560.7889,534.1721 564.7641,534.2113 568.7344,533.7188 572.9497,532.736 577.6125,531.2129 582.2072,529.2578 591.502,524.1035 602.8316,516.1491 614.0805,506.683 627.063,494.0677 638.8848,481.0967 650.486,466.8488 661.7885,451.395 672.7506,434.7321 682.6822,417.9426 691.5631,401.0664 698.219,386.841 704.1367,372.6094 709.2395,358.5381 713.4725,344.7991 717.0431,330.5772 719.766,316.6568 721.6415,302.9941 722.5993,290.1197 722.6723,277.7733 721.884,266.3239 720.2226,255.0291 717.6706,244.111 714.3368,234.0418 710.1245,224.5487 705.2085,216.0434 699.5949,208.4327 692.5903,200.9442 685.0703,194.6628 676.8455,189.3648 667.9705,185.1204 658.8746,182.0984 648.632,180.0404 638.0462,179.1732 627.1933,179.4848 616.1787,180.9709 605.4895,183.5161 594.789,187.1669 583.965,191.9725 573.1096,197.9371 562.6527,204.8391 552.6823,212.5909 543.286,221.1045 536.291,228.3391 529.4779,236.2303 523.148,244.4336 517.0941,253.2173 511.5597,262.2278 506.3755,271.74 501.7801,281.3017 497.4659,291.5492 493.7392,301.7793 490.4656,312.3233 487.6708,323.1396 485.44,333.8254 483.6312,345.0587 482.3223,356.4447 481.5143,367.8508 481.174,379.5998 481.3353,392.7965 482.0521,404.8766 483.4378,418.1459 485.6884,434.1678 487.6831,445.8066 490.3678,458.7699 493.9265,473.9866 497.7731,488.5171 513.6769,542.8435 518.6578,558.1523 522.7841,569.5788 527.178,578.929 531.5025,585.4593 535.1759,589.0602 538.028,591.0336 540.1028,592.0404 545.125,593.375 549.413,593.5573 555.7407,592.6197 561.8941,590.7165 569.0597,587.606 576.0502,583.7974 584.6632,578.2612 593.2112,572.0519 602.2685,564.7789 612.0187,556.2838 621.2254,547.6274 630.892,537.9222 641.3969,526.7233 651.6269,515.2064 661.1589,503.8418 670.2585,492.3247 686.6032,469.7819 701.9841,446.1192 715.9525,422.0019 728.4278,397.6616 738.8293,374.262 743.3969,362.6027 747.3774,351.4179 751.0082,340.0679 754.3121,328.4604 757.1466,317.042 759.5022,305.8692 762.0787,290.0979 763.6821,274.6467 764.2722,259.988 763.8762,245.659 762.4774,231.6622 760.1202,218.393 756.7434,205.5749 752.4525,193.665 747.3039,182.7175 741.1554,172.4713 734.1693,163.2096 726.2659,154.7571 717.5186,147.2062 707.9826,140.6223 697.7129,135.0706 687.1281,130.7424 675.5759,127.4128 663.3389,125.2735 650.6752,124.3465 637.727,124.6172 624.5988,126.0643 611.0177,128.7574 597.8454,132.5252 584.8097,137.4047 571.9449,143.3921 559.0684,150.5762 546.6951,158.6728 534.5857,167.8311 523.1243,177.7588 512.1115,188.6319 501.8518,200.1742 492.3165,212.406 481.8632,227.9168 472.4224,244.438 464.2496,261.4769 457.125,279.5 451.4981,297.3348 447.0386,315.9097 443.8014,335.0265 441.7217,355.1272 440.9502,372.6205 441.171,390.5818 442.3829,409.2168 444.6406,429.4056 447.4579,447.2762 451.5357,468.3436 465.8413,533.078 468.2167,547.6534 469.6763,560.3807 470.2404,576.3249 469.4553,589.2987 468.4082,596.8942 466.977,604.322 465.2042,611.2982 463.0465,618.1039 458.3595,629.7078 452.3888,641.5859 445.799,652.3681 437.7328,663.571 428.642,674.612 417.7835,686.0912 407.1406,696.1406 395.75,705.625 381.9751,715.7459 368.6884,724.2614 355.4728,731.4467 343.2095,736.7822 331.7162,740.3875 326.6275,741.3925 321.9022,741.8547 317.6731,741.7282 314.3749,741.0655 311.6437,739.8617 309.5296,738.1 308.2253,736.0878 307.4426,733.4475 307.3723,730.5727 307.8638,727.5574 309.0245,723.8139 310.6515,720.0364 315.875,711.0 322.736,701.7667 331.6927,691.5244 342.8355,680.1754 355.6851,668.2376 367.0157,658.4406 379.4253,648.2725 407.0294,627.1916 424.6238,614.5731 444.3203,600.9619 501.1153,563.3017 515.3189,553.5824 530.3838,542.2716 534.7099,538.322 536.4887,535.8542 536.496,535.2172 535.9348,535.105 533.6367,536.2031 530.203,538.74 526.4473,542.243 519.8926,550.1762 514.0,559.375 509.6496,567.2853 506.1278,574.5602 490.4089,611.9603 484.636,624.698 476.1912,640.9683 468.2964,653.9716 458.5083,667.596 447.8635,680.6922 437.2102,692.2032 424.5894,704.3033 414.5666,713.0624 404.1484,721.4946 394.7119,728.5607 384.7609,735.4206 373.2355,742.7678 363.4432,748.4759 352.6313,754.1526 341.8623,759.2024 331.8885,763.314 322.2764,766.6311 312.9422,769.1635 304.4418,770.7616 297.3185,771.3497 290.9219,771.0 285.7327,769.7682 281.465,767.6122 279.0581,765.4394 277.476,762.9666 276.42,759.685 276.1178,756.2031 276.476,752.2577 277.5273,747.8597 279.3045,743.02 281.6335,738.1543 284.7643,732.7302 288.4317,727.1934 297.7348,715.1453 309.2702,702.3213 323.238,688.5605 339.8774,673.6733 358.9455,657.9123 379.4016,642.141 401.4923,626.1663 421.0268,612.7155 442.5023,598.4706 526.389,545.2425 547.7935,530.7081 556.5029,523.9991 562.1451,518.8468 565.8841,514.2101 566.7801,512.3407 566.948,510.7741 566.5634,509.8386 565.441,509.0681 564.2184,508.8673 562.1428,509.0764 557.8115,510.5083 552.9741,513.3327 549.9239,515.7608 547.0643,518.6343 544.6567,521.7155 542.4264,525.3426 540.6887,528.9015 539.1187,533.2747 537.922,537.798 537.3647,541.9061 537.2651,546.0903 537.5904,549.2484 538.625,553.625 539.749,556.559 541.4677,559.4653 543.4299,561.8523 545.9216,563.8181 548.9547,565.413 553.8047,566.3065 560.1012,566.0557 567.158,564.2825 574.6023,561.2467 582.8676,556.7319 591.9565,550.7413 601.0676,543.8115 610.8611,535.4537 619.2639,527.6713 627.9419,519.066 644.0154,501.5138 660.1913,481.6364 675.8863,460.1243 689.5217,439.1249 701.8804,417.579 713.0453,395.389 722.5812,373.3684 728.3017,358.0397 733.2497,342.6552 737.2952,327.6146 740.4233,313.0767 742.6963,298.79 744.0701,285.043 744.5779,271.4231 744.2012,258.3195 742.9665,245.8323 740.8283,233.6802 737.8477,222.3168 733.9761,211.5732 729.1588,201.3862 723.6437,192.1993 717.0587,183.4406 709.8786,175.7946 701.9112,169.0239 693.1766,163.2067 683.7063,158.4124 673.482,154.6343 662.7439,151.9649 651.2037,150.3798 639.6985,149.9893 627.9526,150.7317 616.1815,152.5891 604.1166,155.6254 592.1869,159.7358 580.4669,164.8539 568.7003,171.105 557.3168,178.2811 546.3979,186.3097 535.7589,195.3491 528.5132,202.2733 521.6416,209.4918 515.1477,216.9737 508.8079,224.9888 502.8836,233.2198 497.1833,241.9467 491.939,250.8298 487.1247,259.8847 482.6892,269.1878 478.5857,278.8586 474.8431,288.8701 471.5933,298.8346 468.6246,309.4247 466.151,319.8901 464.1238,330.2993 462.482,341.0319 460.6137,360.2013 459.9679,380.5407 460.5137,400.1309 462.3563,420.3814 465.2107,440.5361 468.6562,459.2812 473.3807,481.3631 479.7776,508.1967 485.5722,534.9567 488.7062,554.6091 490.103,570.9766 490.2566,578.7573 489.8142,589.8686 489.0746,597.258 487.6927,605.8996 485.908,613.9915 483.434,622.7188 480.875,630.0 477.3742,638.3777 470.3351,651.9942 462.0997,664.9939 452.0965,678.3525 440.9156,691.1237 427.2102,704.6915 412.2526,717.7734 397.9742,728.8595 381.383,740.216 364.4911,750.4538 347.0884,759.4678 331.1592,766.3237 323.2129,769.1475 315.733,771.405 308.2967,773.2224 302.1032,774.32 296.2496,774.8939 290.8156,774.9065 285.8809,774.3203 281.5251,773.0979 278.3221,771.5008 275.5684,769.1526 273.7337,766.4352 272.6713,763.5128 272.206,760.1368 272.3755,756.305 273.2177,752.0156 274.5567,747.8588 276.5816,743.1672 279.2575,738.0982 286.5564,726.9182 296.1319,714.8585 307.7315,702.2119 321.8229,688.5189 339.0843,673.2392 358.4954,657.3722 379.3983,641.4452 402.9177,624.5738 422.2306,611.3479 442.8119,597.7602 525.7941,545.4765 539.925,536.2189 551.3105,528.293 560.2893,521.3965 566.2011,515.9737 569.7654,511.425 570.547,509.5933 570.7083,507.8241 570.123,506.606 568.919,505.9106 566.8461,505.6778 564.7181,505.8585 560.375,507.25 555.1547,510.3565 552.4151,512.6032 549.6982,515.4018 547.3477,518.4283 545.4691,521.4678 543.958,524.6693 542.859,527.902 541.9555,531.74 541.533,535.1525 541.5,538.5 541.8536,541.6363 542.6012,544.5289 543.7685,547.3386 545.5183,549.9207 547.8922,552.3641 549.6815,553.6123 552.133,554.7045 556.9276,555.7263 562.9216,555.3678 569.1639,553.7897 576.6936,550.7535 583.7966,546.9787 592.2138,541.5296 600.0825,535.7656 608.7706,528.5829 622.6721,515.6532 636.5183,501.0754 650.3021,484.879 663.6726,467.4328 676.4541,448.9948 687.8676,430.7266 698.3306,411.9714 707.8144,392.7036 714.2662,377.8485 719.942,363.0609 724.789,348.5105 728.8816,333.9618 732.1457,319.6325 734.6244,305.2643 736.1915,291.5759 736.8947,278.3099 736.7381,265.9378 735.7115,253.7896 733.8212,242.2531 731.0954,231.2568 727.5059,220.7345 723.0434,210.7788 717.8977,201.7907 711.9213,193.5003 704.9979,185.8776 697.1375,179.0188 688.5313,173.1287 679.5893,168.421 669.7148,164.6035 659.6756,162.003 649.3119,160.5266 638.526,160.1324 627.1564,160.8339 615.6634,162.6357 603.782,165.6209 592.3631,169.5751 581.1405,174.5473 570.119,180.5335 559.3177,187.4807 548.6952,195.4469 541.1637,201.8495 533.6949,208.8939 526.6111,216.3023 519.9384,224.0355 513.4575,232.3716 507.4101,241.0024 501.8476,249.8152 496.5809,259.106 491.6537,268.8466 487.2517,278.6607 483.238,288.8403 479.7749,298.9422 476.6512,309.5828 474.0668,320.0741 471.8432,331.1278 470.0783,342.3226 468.0933,361.5897 467.4529,380.904 468.1593,401.8486 470.153,423.2578 472.9231,441.5982 477.1211,463.7016 483.3198,490.4407 490.125,518.0 495.204,541.6602 498.1953,559.5552 499.8229,577.2972 500.1349,588.8244 499.7284,599.0199 498.9706,607.626 497.2936,618.8918 495.3869,627.5125 493.1241,635.2506 489.7209,644.8064 485.8337,653.4729 478.8344,666.4844 469.9811,679.6214 464.737,686.3413 458.0188,694.2654 447.0819,705.8708 432.9319,719.0798 416.3696,732.7075 400.3611,744.4545 382.2883,756.3376 363.5242,767.3512 345.1746,776.7766 327.6505,784.3437 310.5142,790.3504 302.7006,792.5834 295.5181,794.2547 288.5294,795.4774 281.8062,796.2099 275.4203,796.4108 269.7637,796.0748 264.8569,795.2404 260.624,793.9062 256.3365,791.6245 253.1591,788.8085 250.8225,785.2796 249.4951,781.3922 249.027,776.8685 249.5387,771.6286 250.9761,766.0308 253.3633,759.8561 256.7227,753.1311 260.8225,746.2764 265.8342,738.9743 271.4678,731.6312 278.0098,723.8756 285.4142,715.7715 302.8869,698.4522 322.9467,680.5957 345.0511,662.6364 370.918,643.2219 399.5615,623.1062 423.3984,607.217 448.643,591.0967 480.4143,571.564 541.9303,534.6769 558.3033,524.3322 570.898,515.803 580.3938,508.6056 587.2563,502.2772 591.5823,496.7649 592.75,494.375 593.2723,492.1217 592.8695,489.5928 591.3733,487.7556 588.819,486.4672 585.2148,485.7232 581.6823,485.7718 576.953,486.671 572.9733,488.077 569.7849,489.8639 566.789,492.3469 564.6087,495.1011 563.2635,497.8924 562.8525,500.8831 563.7319,503.5081 565.3303,505.4957 567.6864,506.7676 570.9449,507.4559 574.2328,507.275 578.0,506.5 581.8428,505.2823 585.8015,503.6172 594.6917,498.6053 604.2867,491.7397 612.2872,484.9704 620.7059,476.819 629.458,467.3262 638.0401,457.1139 645.9015,446.8757 653.4004,436.1641 660.6422,424.8431 667.6203,412.8829 673.727,401.3834 679.1783,390.0667 684.1587,378.5504 688.4597,367.3135 692.3426,355.6179 695.6375,343.9944 698.2268,332.8833 700.1703,322.0254 701.4358,311.5038 702.036,301.0752 702.0044,290.9201 701.3125,280.9531 700.0424,272.0061 698.1239,263.3826 695.5971,255.3789 692.4234,247.7648 688.4407,240.2836 683.7936,233.3918 678.7458,227.4397 673.1083,222.1734 666.8492,217.6315 660.0215,213.8418 652.7517,210.8733 645.1,208.754 637.1268,207.5121 629.2894,207.1709 621.1062,207.6835 612.4203,209.116 604.0877,211.3105 595.4504,214.4206 586.9399,218.33 578.625,223.0 571.4462,227.7534 564.2468,233.2417 557.6523,238.9664 551.1159,245.3816 544.9592,252.2034 539.2098,259.3865 533.834,266.9505 528.7177,275.0572 524.0897,283.3505 519.7815,292.1336 515.9744,301.0372 512.5606,310.2935 509.5924,319.7573 507.0491,329.5013 504.9491,339.4815 503.3028,349.6457 502.0848,360.2697 501.3741,370.9509 501.1494,382.0174 501.4267,393.7254 502.0949,404.1414 503.2421,414.637 504.9528,425.9704 507.2068,438.1162 509.9298,449.8799 513.608,463.2245 517.0164,473.9596 521.0,484.875 524.921,494.1395 529.7717,504.1336 533.5136,510.6266 537.881,517.0325 540.4761,520.1522 543.6967,523.3568 546.7895,525.9741 550.016,528.0376 553.4314,529.6261 557.26,530.8863 560.5711,531.4154 564.4932,531.5058 568.7187,531.1187 572.4667,530.3276 577.2276,528.8151 582.25,526.75 591.5408,521.6972 601.6829,514.7175 613.1837,505.1729 625.2905,493.5779 636.9338,480.9588 648.0409,467.4677 659.5734,451.9655 670.025,436.384 679.8963,419.873 689.0164,402.8236 695.5344,389.1733 701.285,375.622 706.6147,361.2668 711.1079,347.2148 714.6491,333.9156 717.3314,321.1743 719.218,308.6695 720.3735,295.8857 720.7117,283.5419 720.2357,271.7568 718.9592,260.626 716.9055,250.2242 713.9687,240.1351 710.2489,230.6971 705.7133,221.8478 700.3658,213.6788 694.21,206.2823 687.25,199.75 679.7412,194.2855 671.2729,189.5849 662.2151,185.9295 653.0277,183.4411 643.4471,181.9985 633.3197,181.6449 622.8465,182.4343 612.2632,184.3235 601.6721,187.2654 591.1752,191.2128 580.8748,196.1186 570.7881,201.9862 560.8737,208.8494 551.1698,216.7209 543.9272,223.4316 536.8093,230.8234 530.1279,238.5968 523.8559,246.7761 517.9202,255.4772 512.5237,264.3823 507.478,273.7823 502.9736,283.2982 498.8576,293.22 495.1087,303.6632 491.9644,313.9737 489.2916,324.5205 487.0953,335.2679 485.3212,346.5352 484.0,358.25 483.2281,369.5974 482.9726,380.5285 483.1759,391.787 483.8748,403.9915 484.9779,415.7646 486.625,428.2031 488.9226,441.9613 491.3291,454.3862 494.1963,466.808 499.0863,485.6615 505.1003,506.617 518.4595,548.1403 522.8633,559.5566 527.3918,569.1397 531.3513,575.3741 534.9065,579.4491 538.6849,582.4677 541.3703,583.9391 545.1623,585.1422 549.5046,585.6667 554.1144,585.4074 558.8914,584.4812 564.2001,582.7604 570.125,580.25 575.5,577.4676 581.716,573.6879 589.0547,568.7051 595.991,563.5361 611.4713,550.61 625.5805,537.2155 641.2876,520.5435 657.804,501.327 672.2128,482.9289 685.7919,463.8644 698.6533,443.9764 710.3701,423.869 721.1291,403.2081 730.5185,382.8311 737.5989,365.3351 743.597,348.3024 748.5522,331.7259 752.5996,315.0892 755.6017,298.9422 757.6027,283.0673 758.5623,267.5944 758.4678,252.9562 757.3257,238.7993 755.0946,224.9852 751.8507,212.0127 747.517,199.618 742.2353,188.2493 736.0728,177.958 728.8968,168.5205 720.9238,160.1484 711.4907,152.2775 701.1515,145.5579 689.9769,140.0689 678.4101,135.9964 666.3488,133.2543 653.5029,131.8008 640.3159,131.6875 626.9049,132.8799 613.3872,135.3433 599.506,139.1632 585.7628,144.2516 572.4914,150.457 559.3236,157.9259 546.3929,166.6172 534.109,176.2416 522.2739,186.9466 515.1024,194.2229 508.0531,202.0528 501.3556,210.2154 495.1944,218.4423 489.2461,227.148 483.5508,236.3174 478.3263,245.5954 473.3992,255.2814 468.8072,265.3419 464.7148,275.4004 461.0303,285.6426 457.7491,296.0797 454.8587,306.7741 452.4559,317.3149 450.4445,328.0464 448.7886,339.2812 446.9318,359.0565 446.3485,379.2217 447.0462,399.9083 449.0561,421.9299 451.7887,441.0405 455.9577,463.5306 471.1928,533.2419 473.8112,549.325 475.0256,561.2818 475.4788,578.2512 474.1745,593.7678 472.9813,600.8789 470.9933,609.4008 468.9206,616.6218 466.6013,623.0695 461.0014,635.7375 454.4503,647.6712 447.3115,658.6052 438.236,670.4544 428.1568,682.0196 417.3114,692.9436 404.968,703.9684 392.1217,714.1511 377.8411,724.0556 362.9226,733.05 349.3181,740.0444 336.186,745.3885 329.6414,747.4661 324.1626,748.831 319.109,749.6687 314.4464,749.9824 310.2409,749.748 306.5583,748.9417 303.7309,747.6647 301.4032,745.703 299.942,743.4205 299.1032,740.6273 298.9347,737.3194 299.375,734.0 300.4429,730.2407 302.0442,726.3562 306.981,717.5743 314.5025,707.187 323.8447,696.3123 335.6319,684.277 349.6806,671.271 361.7257,660.8703 374.4135,650.4862 388.1571,639.8049 402.9549,628.8132 421.6449,615.5267 443.5107,600.6099 505.3687,559.9891 522.7576,548.214 531.0569,542.1723 537.6734,536.8659 542.1599,532.7036 544.6333,529.4482 544.7986,528.3657 544.2589,527.9727 543.1021,528.1148 541.4701,528.7975 537.188,531.539 532.9394,535.2992 528.9023,539.835 525.5862,544.3061 522.1684,549.8407 518.9265,556.0123 514.9016,565.2052 510.6264,577.1173 500.1694,613.8589 494.3427,631.5034 488.2627,646.2488 481.3622,659.3981 472.3449,673.4119 461.52,687.4097 450.6925,699.5864 437.3686,712.6129 426.7732,722.0054 415.7312,730.9693 403.6099,740.0114 390.9822,748.6835 378.1731,756.8139 365.5622,764.1298 351.8837,771.3568 338.8686,777.5838 327.1543,782.4973 315.3208,786.7478 303.875,790.125 293.8528,792.3238 284.7053,793.5052 276.2019,793.7019 268.5365,792.8363 262.4979,791.0066 258.6637,788.8267 255.5934,785.9443 253.3828,782.3433 252.1937,778.3975 251.8816,773.8222 252.4704,768.8928 253.9875,763.3897 256.4507,757.3126 259.8724,750.6882 264.2648,743.5431 269.3619,736.2788 275.3614,728.5898 281.9588,720.8569 289.1277,713.0945 306.2525,696.2817 326.1137,678.7096 348.1905,660.7901 372.1113,642.8088 398.8972,623.9673 421.8495,608.6304 446.2852,592.9544 476.9098,574.031 539.6105,536.1171 555.6142,525.9539 568.2227,517.3922 577.8579,510.106 584.5158,504.0788 588.8512,498.7339 590.0067,496.4548 590.5226,494.3229 590.2266,491.9777 588.9861,490.2593 587.0109,489.1327 583.447,488.3524 579.9929,488.3231 576.096,489.0317 571.778,490.478 568.5,492.25 564.9564,495.0539 562.625,497.875 561.0347,501.1634 560.4846,504.4247 561.0891,507.5472 562.6515,510.0303 565.1407,511.5794 568.365,512.4987 571.5913,512.5389 575.75,511.875 579.5928,510.7594 583.9302,509.0228 588.7155,506.6841 593.1499,504.0857 603.3981,496.7763 612.296,489.2951 620.9857,480.9747 630.8759,470.3099 640.0433,459.4011 648.5628,448.1682 657.0418,435.8762 664.9369,423.314 672.3005,410.3928 678.3589,398.6619 683.9972,386.5773 688.9528,374.6692 693.3443,362.6295 697.1911,350.3949 700.2985,338.5868 702.7319,326.9717 704.4544,315.6515 705.4798,304.4503 705.8198,293.5587 705.4691,283.2067 704.3909,273.1046 702.6913,264.0615 700.2927,255.4558 697.0999,246.9573 693.2048,238.9527 688.6075,231.5419 683.553,225.1012 677.856,219.3831 671.4359,214.3855 664.082,209.9883 656.5514,206.6528 648.5936,204.2059 640.2657,202.6844 631.625,202.125 622.9561,202.5141 614.2109,203.7929 605.0827,206.042 596.3616,209.0533 587.3843,213.0484 578.4869,217.9449 570.0448,223.5012 562.8444,228.9943 555.9581,234.9618 549.4129,241.3585 543.236,248.1393 537.4313,255.288 531.756,263.1232 526.5643,271.1761 521.8488,279.4142 517.6025,287.805 513.6761,296.6584 510.1363,305.8965 507.0637,315.2869 504.4059,324.9636 502.1752,334.8879 500.3191,345.372 498.9463,355.7706 498.0567,366.0966 497.619,376.8604 497.6575,387.9598 498.1738,399.3697 499.1373,410.4518 500.5582,421.6651 502.6491,434.4556 504.8175,445.1659 507.6557,456.8099 511.1199,469.1895 515.0407,481.1763 519.8306,494.4281 524.0215,504.3575 527.5613,511.7076 533.2732,521.6988 537.109,527.1235 540.625,531.125 543.2825,533.5925 546.7267,536.0851 550.2786,538.0738 553.3832,539.2419 557.1054,540.0461 561.2873,540.418 564.9072,540.2372 569.1593,539.4975 573.8604,538.1767 582.4851,534.4425 593.7221,527.8318 604.8035,519.7421 617.0593,509.0311 629.9133,496.1793 642.4501,482.1546 654.3574,467.3092 665.9617,451.1869 677.1168,434.0238 686.9748,417.1002 695.7969,400.0036 702.6017,385.2478 708.6627,370.4626 713.7451,356.2225 717.9997,342.1407 721.5506,327.7818 724.2607,313.5519 726.0349,299.9821 726.9204,286.8223 726.9025,274.2885 725.9765,262.0762 724.1867,250.561 721.4889,239.4649 717.9905,229.2493 713.5905,219.645 708.4231,210.9712 702.4479,203.0366 695.4191,195.631 687.5962,189.1658 679.0249,183.7325 670.1065,179.5613 659.9672,176.3253 649.565,174.3238 638.7959,173.4816 627.7603,173.8103 616.5583,175.3214 605.679,177.9133 594.4142,181.7549 583.1708,186.7311 572.2275,192.707 561.3579,199.8268 551.2903,207.5915 541.5079,216.3853 534.2354,223.839 527.1756,231.9327 520.6091,240.3446 514.5384,249.0219 508.7763,258.2324 503.381,267.9378 498.586,277.7188 494.2591,287.8312 490.3923,298.3035 487.0033,309.0923 484.1024,320.1455 481.6914,331.4014 479.8172,342.5774 478.439,353.9102 477.5333,365.672 477.1188,377.7765 477.1636,389.0972 477.6173,400.0818 478.5394,411.6578 479.896,423.3504 483.9559,448.274 490.2169,476.8483 507.0179,540.1019 518.2791,586.385 521.0061,595.2805 524.2956,603.6222 527.241,608.594 529.1607,610.93 531.1266,612.7129 533.5512,614.4412 535.9042,615.4767 541.4259,616.5017 546.6992,616.1113 553.184,614.5506 560.689,611.5143 568.8097,607.1938 577.6258,601.6288 587.5085,594.5418 598.0779,586.1982 608.5047,577.2622 619.1206,567.4623 630.2628,556.4706 641.186,545.016 651.8485,533.1723 662.5797,520.5754 673.2555,507.3595 683.5838,493.8761 701.0561,469.191 717.2536,443.6919 724.77,430.8094 731.8266,417.9538 738.3678,405.2384 744.5263,392.4025 750.1024,379.8771 755.3712,367.0357 760.1981,354.1496 764.4298,341.6598 768.177,329.2889 771.5154,316.7234 774.2396,304.7549 776.516,292.682 778.8427,275.9361 780.0859,260.01 780.3196,244.5217 779.5202,229.2143 777.6835,214.5891 774.8314,200.7401 770.9926,187.7441 766.1112,175.4612 760.1765,163.9334 753.1844,153.1468 745.1766,143.1938 736.1946,134.1668 726.5843,126.3785 716.1333,119.6341 704.8794,114.0182 693.0541,109.6501 680.1192,106.3457 666.6573,104.3054 652.7823,103.5273 638.6081,104.0096 624.2486,105.7503 609.8177,108.7478 595.589,112.9422 581.2706,118.406 566.9464,125.1345 553.0499,132.9151 539.3506,141.8733 525.9756,151.9753 513.6217,162.6595 501.8034,174.3149 490.7121,186.7486 480.1239,200.2481 468.7504,216.9978 458.6891,234.4244 449.8543,252.6638 442.4349,271.3254 436.3111,290.6423 431.4986,310.617 427.9929,331.3723 425.8534,352.4768 425.1052,371.0449 425.3841,389.6852 426.7331,409.583 429.0798,429.7006 432.2088,448.8822 436.7147,471.4242 447.2715,516.2074 451.4615,535.3495 453.9003,549.0418 455.5408,561.7995 456.315,575.4337 455.9531,588.7681 454.2908,600.974 451.6194,612.4151 448.1653,622.4838 443.7821,632.6057 438.7773,642.0508 432.8947,651.3953 425.8435,660.9444 418.0299,670.2395 409.2874,679.407 400.1219,687.9764 389.6247,696.6184 378.7676,704.4043 368.1218,710.9839 357.8277,716.195 348.384,719.82 340.6657,721.4644 337.3221,721.62 334.2445,721.2865 332.089,720.483 330.4375,719.1875 329.326,717.412 328.8382,715.5744 328.7741,713.401 329.1575,711.0643 331.4348,705.1071 335.6827,697.9121 341.5812,690.019 349.4258,681.0231 358.6632,671.5502 369.3599,661.5576 391.1334,643.1172 416.3828,623.6449 443.9487,603.8425 498.8104,566.0367 511.0761,557.0384 515.9062,552.9375 512.5219,555.962 507.7337,561.2925 498.8826,572.9968 492.2589,583.1823 467.6734,623.3125 459.8073,634.9621 451.2926,646.6379 442.125,658.125 432.8282,668.7284 423.4382,678.4228 413.0925,688.1539 398.4559,700.4606 384.2865,710.9265 368.5694,720.7824 354.4575,728.0898 347.6157,730.9815 341.3742,733.1843 335.1003,734.8993 329.7556,735.8483 324.9954,736.0582 321.2719,735.5693 318.1965,734.4147 315.8588,732.5938 314.6298,730.6739 314.0138,728.611 313.863,725.8228 314.2388,723.0123 315.2771,719.3837 316.7183,715.9014 321.1766,708.1052 328.0178,698.8123 336.9841,688.4497 347.1853,677.9745 359.2768,666.7084 370.2692,657.1716 381.9951,647.5488 410.6666,625.6059 440.6046,604.3454 493.5861,568.7821 514.334,554.4247 525.2955,546.0316 528.6018,543.0394 530.4495,540.7285 530.392,540.3718 529.6806,540.5829 526.9355,542.379 521.3239,547.6583 515.7559,554.2802 509.5647,563.297 499.8886,580.7132 484.3787,612.7521 477.7748,625.2765 469.8978,638.8205 461.3362,651.9746 453.128,663.0539 443.1294,675.0503 433.5142,685.554 423.024,695.8536 406.2425,710.4809 389.405,723.2152 380.2981,729.4179 371.638,734.8576 362.7468,739.9594 353.6428,744.705 344.723,748.8869 336.4189,752.2986 328.2545,755.1335 320.6746,757.2187 313.8094,758.5405 307.6735,759.1034 302.1685,758.8847 297.7057,757.9103 294.5284,756.4604 292.2067,754.5738 290.5127,752.1456 289.4915,749.1757 289.1882,745.6641 289.6481,741.6109 290.7728,737.4541 292.6623,732.8137 295.3302,727.7054 298.5578,722.4817 307.3396,710.6286 318.2247,698.2707 331.6371,684.8924 344.8328,672.8861 359.3405,660.5839 374.9388,648.1645 392.9153,634.6051 414.7928,618.9071 437.7018,603.24 509.6906,556.6685 531.6803,541.8764 541.723,534.4863 548.932,528.4653 552.75,524.375 553.9891,522.3488 554.336,520.961 553.6484,520.0709 551.9735,519.9804 549.4301,520.6796 546.9471,521.9253 542.7067,524.8934 538.5985,528.8326 534.5509,533.8704 531.0062,539.4481 527.7884,546.0708 525.2419,552.4988 522.961,560.5305 521.5564,567.6939 520.6704,575.4031 520.3247,585.3952 520.6582,594.2676 521.7744,601.8115 523.7534,609.286 525.3346,612.9293 527.9961,617.2693 531.6446,620.6723 534.3416,622.0195 538.02,623.039 541.08,623.173 545.451,622.7311 549.6395,621.66 555.539,619.51 564.9789,614.8485 576.9171,607.4304 591.38,596.6174 606.1459,584.2795 620.8247,570.6254 636.0027,555.3621 650.306,539.8923 664.9446,522.9118 678.8757,505.5602 692.0184,487.954 704.5743,469.8601 716.2775,451.67 727.3273,433.0639 737.4913,414.4359 746.6598,396.0187 754.9143,377.637 762.1484,359.5359 768.4316,341.5485 773.7089,323.8178 777.9994,306.299 781.3076,288.9951 783.606,271.9198 784.8414,255.2153 784.9845,239.3807 784.0541,224.1359 782.0428,209.5674 778.9131,195.4514 774.6501,181.8422 769.4065,169.2016 763.0744,157.2656 755.8671,146.4421 747.8667,136.7625 738.875,128.0 728.8993,120.2262 718.0606,113.5205 706.4481,107.9226 694.1509,103.472 680.882,100.133 667.47,98.1318 653.6436,97.398 639.3399,97.9796 624.5161,99.9013 609.6606,103.0921 594.5233,107.6131 579.5833,113.3369 564.9574,120.1983 550.7621,128.132 537.4298,136.85 524.0562,146.95 511.184,158.0758 499.1588,169.8956 487.7631,182.5908 477.0858,196.0843 471.0799,204.5017 465.4553,213.0401 455.3043,230.4793 450.5509,239.7815 446.2198,249.0834 438.5005,268.3255 432.1808,288.0303 427.1252,308.6628 423.511,329.5876 421.3374,350.7385 420.581,369.6813 420.8943,389.6388 422.2392,409.4236 424.622,429.3747 427.6525,448.0232 431.4624,467.4942 447.293,535.3467 450.0029,550.0835 451.6701,562.3958 452.633,576.2917 452.4854,587.4971 451.0444,599.6102 448.5544,611.0377 445.4869,620.7478 441.9431,629.4662 436.8135,639.5697 431.3261,648.7067 425.2084,657.391 418.2566,665.9312 409.9668,674.9271 401.4937,683.143 391.843,691.4416 381.8278,698.9466 371.5894,705.5679 361.8858,710.7319 353.2193,714.3252 345.7003,716.1621 342.4426,716.4061 339.4854,716.1483 337.3121,715.3707 335.9456,714.3165 334.9936,712.888 334.4654,711.0803 334.3825,709.0244 334.8118,706.5089 337.0813,700.7409 340.9597,694.2087 346.4561,686.8519 353.7483,678.4976 362.8772,669.1357 372.8285,659.8084 393.485,642.3021 417.9113,623.3553 444.4349,604.2523 499.2111,566.0482 510.5324,557.5787 502.4185,566.6397 494.9981,576.49 489.4755,584.5015 465.7105,621.2778 457.1584,633.5637 449.4946,643.8414 440.6789,654.7002 431.2839,665.3645 422.0309,674.9309 412.303,684.128 399.3656,695.027 384.4476,706.1282 372.1262,713.9877 359.4537,720.6713 347.2024,725.6601 341.7596,727.2577 336.7396,728.2542 332.1818,728.6233 328.724,728.3548 325.7656,727.3842 323.5582,725.7077 322.4367,723.9871 321.7932,721.7851 321.7239,719.4609 322.1504,716.7683 324.5277,710.3401 329.0,702.625 335.1529,694.3454 343.4818,684.7682 353.5953,674.4062 364.8691,663.8861 375.5465,654.6046 387.5715,644.7043 414.1859,624.2696 442.6115,603.9269 502.0097,563.4368 516.968,552.467 521.0205,549.0704 522.8281,547.0625 521.7209,547.5144 519.2169,549.5471 513.228,555.9718 508.2988,562.2266 502.1694,571.1848 493.7557,585.4207 472.2495,623.6535 463.2417,637.7385 455.5,648.875 446.1917,661.0068 436.734,672.0698 426.4754,682.8502 415.17,693.5473 399.1525,706.8994 381.9543,719.351 373.4269,724.8171 365.0957,729.7113 357.0367,734.0119 348.9711,737.8519 341.1938,741.0487 334.0123,743.4603 327.1746,745.2017 320.8186,746.2177 315.8839,746.4038 311.45,745.8106 307.7932,744.4002 305.2321,742.3926 303.7426,740.2193 302.9864,737.8827 302.788,734.8092 303.2045,731.6221 304.2013,728.0445 305.7945,724.0845 308.0,719.75 310.8089,715.1144 318.1685,705.025 327.8856,693.7651 339.2258,682.1623 352.5654,669.7903 364.5142,659.4604 377.2758,649.009 390.3077,638.8489 404.7488,628.0973 421.4753,616.1468 439.8188,603.5259 504.1599,560.9475 519.5691,550.4343 534.3227,539.3771 538.7624,535.2718 540.9587,532.3579 541.0814,531.6452 540.5274,531.1653 538.1713,531.912 533.875,534.875 530.4362,538.0524 523.6361,546.1829 516.5023,557.7172 512.2683,566.437 508.1024,576.4025 494.3286,615.2263 489.7966,626.5081 482.0853,642.95 474.256,656.78 465.788,669.4524 456.6143,681.1265 445.1833,694.0002 433.1331,705.9211 423.1667,714.8984 412.8652,723.492 402.9893,731.0878 392.2877,738.6835 380.6338,746.331 369.1258,753.2773 357.357,759.7855 345.4906,765.7535 334.9074,770.4652 324.2578,774.5725 314.0058,777.8777 304.769,780.211 295.9955,781.6836 288.18,782.2128 281.0944,781.7988 275.5059,780.5217 271.4495,778.5925 268.4619,776.1294 266.2521,772.9912 264.8964,769.1673 264.4713,764.6474 264.9984,759.8446 266.513,754.3814 268.8832,748.6206 272.1752,742.3324 276.403,735.5448 281.5808,728.286 287.375,721.0 293.8917,713.5261 301.248,705.721 318.8039,688.7982 336.8456,673.0342 356.9487,656.8086 379.2966,640.0012 403.7733,622.6677 423.3705,609.4261 443.8067,596.1307 472.3931,578.1286 529.884,542.6607 545.5348,532.5552 557.5027,524.3366 566.5968,517.3986 572.9199,511.6319 576.9772,506.5856 578.0135,504.3703 578.3153,502.66 578.066,501.2943 577.1073,500.0826 575.3345,499.3499 573.2063,499.0838 570.7981,499.2114 568.25,499.75 565.0275,500.9322 562.2479,502.3627 557.5349,505.8665 553.7714,510.071 551.0156,514.8906 549.4913,520.1511 549.2348,525.2485 550.2755,529.3825 551.3759,531.4041 552.9884,533.4589 556.475,535.8597 559.9819,537.0361 564.6046,537.2961 569.3517,536.6998 574.9127,535.1081 580.4428,532.8491 586.3816,529.7057 593.6658,525.1175 600.5314,520.163 613.1155,509.4628 626.8426,496.0947 639.0066,482.6907 651.3953,467.3957 663.0616,451.3343 674.1609,434.2163 684.5248,416.4729 693.6281,398.9043 699.9825,385.0558 705.7713,370.8733 710.6472,357.221 714.818,343.5523 718.2116,330.0068 720.7734,316.8223 722.5435,303.8961 723.5069,291.3524 723.6604,279.2947 723.0116,267.808 721.5227,256.5799 719.2165,245.8668 716.0584,235.609 712.1879,226.2449 707.4893,217.4915 702.1655,209.7254 695.741,202.3341 688.5115,195.7606 680.569,190.1194 671.9662,185.4741 663.1205,182.0062 653.7595,179.5749 643.7635,178.1887 633.1592,177.9014 622.7346,178.7112 611.8405,180.6609 601.3192,183.6014 590.9456,187.5404 580.2237,192.7011 569.8306,198.7765 559.8355,205.6891 550.0181,213.6127 542.683,220.369 535.4734,227.825 528.6299,235.7611 522.0526,244.3015 516.0017,253.1096 510.2865,262.4624 505.1296,271.9958 500.3791,281.9902 496.1769,292.1453 492.3597,302.8538 489.1473,313.4941 486.4195,324.3885 484.1916,335.4805 482.4391,346.9547 481.2065,358.5211 480.469,370.4563 480.2399,382.6837 480.5,395.125 481.1689,406.1116 482.3069,417.3117 484.1659,430.7734 486.6584,445.6687 489.1648,457.8344 492.8501,473.5393 501.7982,506.8604 513.0422,545.2837 521.0243,570.9368 525.0482,580.513 527.2897,584.8028 530.9512,590.1939 534.7151,594.0153 537.9696,596.0868 542.4564,597.5749 546.4844,597.9844 551.0638,597.6849 555.9197,596.6849 561.2776,594.8915 567.3205,592.2257 573.6022,588.8783 580.3845,584.7052 587.587,579.7151 603.5966,567.0963 619.7606,552.4738 636.5679,535.544 652.2925,518.0241 667.954,498.8831 683.0592,478.7712 696.8373,458.6463 709.7244,437.8488 721.5694,416.6974 732.1046,395.6454 741.3017,374.7654 748.0264,357.2755 753.7273,340.1349 758.5455,322.8978 762.3159,306.0894 765.0298,289.8518 766.7164,274.109 767.367,258.8934 766.9864,243.8156 765.5675,229.3873 763.1396,215.7091 759.7382,202.8633 755.265,190.5821 749.7804,179.1501 743.4345,168.7431 735.8799,158.8337 727.6115,150.1163 718.1512,142.1439 708.1097,135.4937 697.25,130.0 685.5448,125.6917 673.2208,122.6254 660.0212,120.7694 646.4157,120.2322 632.9186,120.9763 619.2729,122.9714 605.6669,126.1988 591.9491,130.6927 578.1229,136.4614 564.6374,143.3148 551.268,151.371 538.4589,160.3749 526.0255,170.4795 517.8533,177.9713 509.8086,186.1039 502.2328,194.534 495.1217,203.2233 488.2499,212.4441 481.866,221.8588 475.7771,231.7458 470.0274,242.0717 464.8164,252.4685 460.0308,263.1446 455.7288,273.9972 451.9895,284.7643 448.6748,295.7898 445.7147,307.3975 443.234,319.1728 441.2294,331.0647 438.8344,352.0942 437.8618,373.2479 438.2788,394.8339 440.1061,417.4796 442.9352,438.3195 447.3181,462.8034 460.2227,520.1093 462.8838,533.0382 465.8276,551.3899 467.1499,565.4266 467.3961,580.2523 465.9219,595.375 464.8097,601.6949 463.3912,607.6132 461.2867,614.8855 458.939,621.674 454.5027,632.0999 449.1838,642.2237 441.945,653.6915 434.6302,663.6823 425.0288,675.0815 415.4547,685.1639 404.7037,695.1582 393.056,704.7442 380.5551,713.8462 367.8653,721.8959 355.8371,728.2939 343.7486,733.4753 338.4547,735.2486 333.4213,736.5454 328.7171,737.3505 324.7264,737.644 321.0481,737.471 318.1945,736.8362 315.8145,735.7286 313.9502,734.1388 312.6438,732.0574 312.0,729.875 311.8792,727.1027 312.3346,724.1846 313.4641,720.5505 315.0683,716.8731 319.9486,708.4952 326.8535,699.1816 335.7007,689.0283 346.4324,678.0607 358.5248,666.8053 369.2665,657.4984 381.3475,647.5813 407.5626,627.5269 442.6324,602.7468 512.0476,555.9934 525.6076,545.8646 529.937,542.035 532.1669,539.4074 532.2719,538.8681 531.7821,538.8273 528.9332,540.3906 526.0881,542.815 522.5833,546.3843 516.3892,553.8444 510.4274,562.9215 501.8541,578.6567 481.8715,620.926 472.9894,637.0932 462.6397,653.3884 453.729,665.3995 442.7058,678.5975 431.9987,690.0167 420.9257,700.5838 411.9635,708.3363 401.781,716.4736 391.2774,724.3045 381.0676,731.3539 372.0295,737.0926 362.4776,742.6005 352.6498,747.7223 343.0482,752.2168 333.8429,755.9392 325.1842,758.8443 316.4793,761.094 309.304,762.285 302.7169,762.5782 297.2503,761.9778 292.6016,760.4834 289.2083,758.2859 287.4078,756.1547 286.2003,753.5556 285.6152,750.4806 285.6817,746.9217 286.4292,742.8709 287.7587,738.6649 289.7129,734.1632 292.1855,729.5482 299.1579,719.0272 308.6046,707.288 320.1762,694.8031 333.7705,681.6976 349.519,667.8023 366.7725,653.6762 385.4446,639.3779 406.708,623.9746 440.8108,600.7061 515.9902,552.3553 539.8121,536.1355 547.5745,530.1611 553.1915,525.1601 556.6834,521.1222 557.5781,519.4878 557.8496,518.189 557.679,517.5792 556.974,517.0226 555.0597,516.9055 552.1111,517.6991 549.1955,519.1826 545.3716,521.9485 541.625,525.5 537.9531,529.7656 534.9508,534.1642 532.2386,539.3067 529.6081,545.725 528.2948,550.0877 526.9215,556.4004 526.1675,561.7808 525.8461,567.8267 526.0554,573.9463 526.6713,579.6754 528.1162,585.6588 529.2707,588.6929 531.6845,593.0653 534.2685,596.0694 536.2963,597.8682 538.2538,599.0715 541.272,600.1742 544.5059,600.8145 547.9138,600.7991 552.2468,600.2732 559.3009,598.1898 568.5831,594.0916 578.2661,588.4777 589.9733,580.2084 602.3526,570.2577 612.9853,560.8728 623.5684,550.8286 634.4352,539.7704 645.3958,527.9686 655.4874,516.4444 665.0371,504.8603 674.7151,492.4087 684.2656,479.3906 693.3405,466.276 702.2842,452.5583 710.7278,438.7855 718.6605,424.9643 725.9184,411.3983 732.6123,397.9116 738.8578,384.2534 744.4081,370.9804 751.1425,352.9029 756.7808,335.2692 761.3892,317.9378 764.9326,301.0737 767.452,284.4314 768.8676,268.5667 769.233,252.9936 768.5061,237.6022 766.7393,223.2779 763.8619,209.3672 759.9352,196.3359 755.0365,184.3356 748.9101,172.7872 741.9182,162.372 733.9302,152.8363 724.9798,144.2763 720.0044,140.279 714.7871,136.5795 703.9862,130.2977 692.4104,125.3072 680.0243,121.5652 667.0684,119.1212 653.2827,117.9595 639.1476,118.164 624.7909,119.7323 610.7313,122.5649 596.3998,126.7796 582.1122,132.3085 568.1518,139.0046 554.2954,146.9694 540.9959,155.9456 528.3614,165.8251 516.2144,176.7761 508.4395,184.656 501.0943,192.8046 494.1769,201.1892 487.4614,210.0877 480.9931,219.4846 475.0093,229.037 469.5077,238.7051 464.3269,248.7744 459.5389,259.1492 455.3382,269.3677 451.5175,279.8856 448.0982,290.6741 445.0959,301.6998 442.5193,312.9246 440.3704,324.3047 438.5974,336.1343 436.6365,356.1294 435.9817,376.7629 436.6647,398.2359 438.6827,420.7397 441.5082,440.7257 445.5426,462.7167 461.3212,534.0284 464.0047,550.1874 465.307,562.187 465.6882,578.5245 464.5631,593.2173 462.3232,605.5396 458.0469,619.6157 453.8102,629.7984 447.9814,641.2232 441.358,651.8929 433.8342,662.4167 424.8565,673.2454 415.7288,683.0671 405.8241,692.4213 395.0287,701.4931 382.6536,710.7115 370.2383,718.7547 358.1806,725.4074 346.5227,730.5788 336.2529,733.8639 331.808,734.7279 327.7063,735.125 324.0015,735.0484 320.6757,734.4599 318.2573,733.4187 316.3998,731.8675 315.1386,729.8062 314.5593,727.6335 314.4666,725.086 314.9006,722.168 315.9143,718.8221 317.5153,715.0719 322.2477,706.8653 328.8174,697.9747 337.3494,688.2108 347.7322,677.6388 360.0578,666.1835 371.0134,656.6891 383.1348,646.7297 409.7644,626.3089 445.2605,601.1998 508.9088,558.2817 523.666,547.3176 527.6888,543.8238 529.625,541.5 529.6767,540.9949 529.2125,540.9796 526.9052,542.4027 520.0597,548.8837 514.505,555.8062 508.252,565.0254 504.3588,571.688 498.2419,583.3172 485.1535,609.8465 477.158,625.0914 469.3967,638.5609 461.4687,650.6304 452.2747,663.0384 443.212,673.973 432.511,685.527 421.4856,696.2891 413.4023,703.5365 405.414,710.1812 386.926,724.0656 370.3648,734.7813 361.625,739.75 353.2835,744.0539 344.5577,748.0787 336.2193,751.4437 328.2782,754.1686 320.9236,756.1455 313.9838,757.3977 307.9421,757.8542 302.6855,757.5689 298.2746,756.4749 295.3037,754.9256 292.982,752.783 291.3796,750.0426 290.6157,747.1013 290.5291,743.6926 291.1421,739.8867 292.4656,735.5975 294.5214,730.844 297.3313,725.6454 300.6348,720.4362 309.1727,709.1417 320.686,696.2509 334.4117,682.6509 346.8813,671.3596 360.8652,659.5735 376.4164,647.2378 393.6214,634.2869 414.9847,618.9995 440.3438,601.7077 512.2062,555.0718 530.6123,542.6991 540.2878,535.524 547.4819,529.4617 551.8985,524.7329 552.8152,523.2178 553.0924,521.9288 552.4199,521.082 551.051,520.9738 549.0779,521.5184 546.3643,522.7876 541.8589,525.8943 537.5329,530.109 532.9215,535.8807 529.4852,541.4242 526.2778,548.0886 523.4751,555.6362 521.375,563.0 519.6392,571.6201 518.3918,581.4511 517.9591,592.7235 518.2116,602.7886 519.1105,610.9397 520.713,618.9407 522.917,625.1427 525.3109,629.1406 528.2631,632.1179 531.1321,633.9768 534.0413,634.9446 537.4607,635.2672 541.1453,634.8943 545.7735,633.8913 550.0938,632.3906 556.5304,629.4882 562.3008,626.4273 575.0968,618.299 589.5379,607.4192 604.1846,595.0881 620.6066,579.8701 636.3416,564.1437 651.9967,547.2917 667.1489,529.773 681.5767,511.8471 695.7299,492.9578 709.6143,473.0473 722.1707,453.6432 733.7033,434.3099 744.2317,415.0294 753.9476,395.4476 762.7923,375.6945 770.4467,356.4653 776.9701,337.6609 782.4245,319.094 786.6809,301.28 790.0032,283.0742 792.1964,265.4804 793.298,248.2532 793.2872,231.9081 792.1831,216.1726 789.9794,201.1412 786.7416,187.1159 782.3204,173.4775 776.9138,160.7973 770.2357,148.4798 762.6608,137.2958 754.037,127.0049 744.66,117.9538 734.3167,109.9382 723.3961,103.2494 711.4309,97.5673 698.7492,93.0614 685.0871,89.6753 670.5098,87.527 655.8792,86.7447 640.9397,87.2743 625.803,89.1337 610.9302,92.2381 595.5607,96.725 580.0439,102.5555 564.8449,109.5506 549.7394,117.8161 535.1905,127.1103 521.3115,137.3375 508.0428,148.5558 495.5092,160.6424 483.6663,173.6084 472.3476,187.6813 465.8982,196.5798 459.856,205.6056 454.2203,214.7285 448.8173,224.2357 443.8481,233.7806 439.2694,243.4225 435.0399,253.2413 431.1104,263.3753 427.6286,273.4291 424.465,283.7529 421.64,294.316 419.1698,305.0832 417.0656,316.0141 415.3333,327.0634 413.9797,338.1355 413.0073,349.2809 412.2304,368.6674 412.5683,388.4266 414.121,410.2954 416.6524,431.0252 419.9365,450.226 424.6227,472.6898 440.9666,540.4333 443.3067,552.9139 445.1369,565.7089 445.9892,576.7805 445.9177,590.0045 444.9288,600.2679 442.8107,611.1151 440.3858,619.3677 436.9362,628.2223 432.8557,636.7879 428.1268,645.1079 423.1323,652.6825 417.7665,659.7212 410.5685,668.1113 403.5695,675.3279 394.742,683.3324 385.625,690.625 377.1997,696.4908 368.942,701.2718 360.6033,705.0147 353.4881,707.0272 350.933,707.3012 348.407,707.111 346.3821,706.3937 345.1074,705.4084 344.2705,704.1606 343.888,702.674 344.3655,698.724 346.7206,693.1033 350.5287,686.9772 355.7872,680.2014 362.4913,672.705 370.7102,664.4641 380.3971,655.5076 401.109,637.9082 425.9103,618.7981 461.6142,593.1996 500.4153,566.0384 501.0541,565.6421 501.1527,565.8116 493.7016,575.0435 486.75,584.375 460.1079,622.4326 447.5173,638.9665 437.5963,650.9719 430.3977,659.0827 421.4369,668.2588 411.6016,677.5221 400.287,687.0741 387.9886,696.3666 376.5431,703.8007 365.7809,709.7108 355.6133,714.0085 351.1177,715.4085 346.9242,716.3303 343.201,716.6831 340.2941,716.4725 337.8195,715.699 336.1365,714.4632 335.0488,712.7219 334.6184,710.8899 334.6391,708.7164 335.1088,706.2868 337.5446,700.3449 341.7317,693.4658 347.3425,686.0605 354.7306,677.7077 363.9684,668.3491 374.7743,658.278 395.5728,640.7122 421.2541,620.9348 447.2075,602.2441 502.25,564.0 510.507,557.645 503.5378,565.2271 494.6658,576.905 464.3337,623.2971 449.4938,643.7596 440.4387,655.0007 431.7516,664.8951 422.4447,674.5323 412.9199,683.4993 399.063,695.2674 385.4615,705.414 371.9961,713.9982 358.8015,720.9848 352.6578,723.6865 346.7,725.8928 341.5557,727.3753 337.0966,728.2295 332.6961,728.5565 328.8365,728.2409 325.9549,727.3681 323.6358,725.6953 322.4872,723.9374 321.8751,721.7429 321.8264,719.1074 322.2287,716.6558 323.2722,713.3392 324.7724,709.9346 329.3456,702.154 335.7099,693.6037 343.7461,684.4184 353.7778,674.1852 365.3025,663.4317 375.3309,654.7214 386.9528,645.1973 415.3307,623.4615 445.1109,602.2105 505.6714,560.8404 516.6992,552.594 521.1388,548.8941 522.7199,547.1458 522.625,546.9375 521.8634,547.3958 519.6225,549.2913 513.7203,555.3371 509.0302,561.1846 503.6213,568.9539 497.0942,579.4777 471.8843,624.1192 463.6047,637.1712 455.0168,649.6625 445.7052,661.56 436.1379,672.6637 426.3635,682.922 415.8678,692.8519 399.3734,706.6388 391.0591,712.9787 383.017,718.6331 374.6875,724.0 366.0338,729.0998 357.773,733.5242 349.8595,737.3183 341.9991,740.6087 334.6599,743.1767 327.9511,744.9652 321.7156,746.0194 316.0562,746.288 311.6001,745.7681 307.9319,744.3991 305.4116,742.4388 303.8559,740.117 303.0669,737.6382 302.8725,734.7937 303.2631,731.6959 304.3347,727.8633 305.9194,723.9531 310.8575,715.0643 317.772,705.4362 327.0356,694.5632 338.1024,683.0973 350.8818,671.1456 362.4517,661.1382 375.4883,650.4725 389.5131,639.5417 404.2681,628.5326 422.4391,615.541 442.286,601.8734 504.389,560.757 519.0758,550.751 534.603,539.0639 538.8906,535.0312 540.875,532.25 540.9082,531.5938 540.1194,531.3125 537.4354,532.4448 533.6327,535.074 529.875,538.6097 526.375,542.5536 523.2802,546.6379 516.6975,557.2527 511.0929,569.0954 508.0564,576.3972 494.3119,614.8161 490.8151,623.7706 482.7584,641.3693 474.2864,656.3245 465.7197,668.9951 455.8424,681.7254 445.7919,693.0496 434.1736,704.5718 423.6653,714.0867 413.8044,722.4057 403.356,730.4863 391.9844,738.6719 381.3392,745.7393 370.4482,752.3417 358.9368,758.7389 347.6846,764.417 336.339,769.5459 325.7,773.7368 315.4791,777.1193 305.8193,779.6421 297.1528,781.2188 289.1376,781.8644 282.2641,781.5447 276.2479,780.2493 272.0,778.375 268.9387,776.0301 266.6759,772.9907 265.2812,769.25 264.8241,764.8009 265.2879,760.0944 266.6513,754.7815 268.9825,748.8816 272.2852,742.5086 276.3874,735.8947 281.3978,728.8227 287.3076,721.3298 294.1081,713.4533 301.4383,705.5944 318.2549,689.3054 336.0873,673.7326 356.3702,657.3623 378.6281,640.5834 402.7959,623.4567 423.3163,609.5961 445.3869,595.2303 533.0776,540.7144 545.0479,532.9553 555.4801,525.7592 565.5954,518.1029 572.3561,512.0995 576.536,507.0715 577.6591,504.886 578.0236,503.0705 577.7334,501.5861 576.6195,500.2561 574.8492,499.5099 572.9915,499.3213 570.4463,499.5246 567.735,500.1538 564.6599,501.3096 561.903,502.74 557.25,506.25 553.3523,510.7312 550.5689,515.5 549.1778,520.375 548.9188,525.1328 550.1315,530.3208 551.2025,532.2992 552.5976,534.0739 553.9489,535.3406 555.8859,536.4825 560.068,537.8208 563.5674,538.0987 569.375,537.375 574.244,535.9864 580.5072,533.3468 586.9227,529.9792 593.3509,525.9143 600.3942,520.7834 613.1707,510.0244 626.0959,497.4748 638.6731,483.5907 651.283,467.975 663.4109,451.3307 674.4052,434.5306 684.8909,416.557 694.1364,398.62 700.5367,384.5778 706.2438,370.4565 711.3716,355.9778 715.5501,342.1455 718.868,328.7785 721.319,316.0061 723.0618,302.9402 723.9942,290.2189 724.1035,277.9805 723.3918,266.3228 721.8723,255.3238 719.5655,245.0022 716.39,234.8945 712.3883,225.318 707.5492,216.3701 702.0874,208.4383 695.8287,201.2665 688.7088,194.8861 680.8022,189.3639 671.9258,184.656 662.8137,181.1551 653.2232,178.7103 643.6196,177.395 633.4978,177.133 623.0089,177.9589 612.0588,179.9276 601.4721,182.8678 590.6173,186.9405 579.9619,192.0192 569.6889,198.0037 559.7629,204.8778 550.039,212.7515 542.4969,219.7234 535.0932,227.4001 528.1384,235.4767 521.7732,243.7374 515.7764,252.4439 510.1257,261.6624 504.8608,271.3722 500.1705,281.2038 495.8982,291.4563 492.2037,301.7053 489.0287,312.0631 486.2414,323.0352 483.9667,334.194 482.1393,345.852 480.76,358.1079 479.9817,369.8057 479.7423,381.0941 479.9767,392.6907 480.7105,405.1762 481.8368,417.0742 483.4186,429.0624 485.4607,441.3775 488.1357,455.1098 491.1798,468.671 495.5075,485.952 502.9162,512.6478 513.4213,549.3915 520.875,573.5 523.5533,580.5214 526.5142,586.6838 530.2477,592.4028 533.816,596.067 536.9249,598.1914 541.3416,599.8046 544.9444,600.3889 549.7726,600.217 554.4324,599.4213 559.5552,597.8228 565.4475,595.3325 571.6875,592.0625 579.0144,587.5958 586.224,582.6647 594.3333,576.5417 603.2263,569.3075 619.4802,554.665 636.253,537.7512 652.5462,519.5844 668.3891,500.2172 683.8224,479.6973 697.9885,459.0302 711.1409,437.7746 723.2887,416.0602 733.9515,394.7133 743.0856,373.8919 749.7021,356.5941 755.4897,339.1043 760.2682,321.884 763.9991,305.0969 766.6742,288.8767 768.3487,272.8306 768.9738,257.2266 768.5613,242.1402 767.1256,227.6968 764.6887,214.0014 761.2799,201.1396 756.7953,188.8465 751.402,177.6084 744.8543,166.8868 737.2862,156.9977 729.011,148.2924 719.5511,140.3189 709.1906,133.4578 698.3224,127.9561 686.7466,123.6736 674.1557,120.5157 661.0506,118.6449 647.5499,118.0588 633.7722,118.7553 619.8364,120.732 606.2488,123.8792 592.1909,128.4136 578.3702,134.1211 564.5583,141.0891 551.1973,149.094 538.3803,158.0403 525.9119,168.081 517.7451,175.4783 509.7271,183.4712 502.0184,191.916 494.5393,200.9216 487.5605,210.1602 481.0787,219.5903 474.8992,229.492 469.069,239.8327 463.7919,250.245 458.9715,260.8947 454.5649,271.8776 450.5959,283.1558 447.0877,294.6923 444.1448,306.0791 441.659,317.6442 439.5859,329.6851 437.1604,350.706 436.1633,372.4964 436.6182,394.6795 438.5333,418.4538 441.3216,438.7273 445.6844,462.5443 458.7123,520.7744 461.6317,534.9694 464.1936,550.7974 465.4784,563.4012 465.8481,579.6521 465.4794,585.91 464.4837,594.7332 462.2618,606.6516 457.7829,621.0518 453.2879,631.5314 447.4314,642.6005 440.4996,653.506 432.9982,663.7202 424.4493,673.8675 414.9297,683.8802 404.169,693.957 393.2447,703.0716 381.1089,711.951 368.559,719.908 357.1082,726.0911 345.8123,730.9681 335.8967,734.1139 331.4867,734.9779 327.4229,735.375 323.7455,735.2984 320.4234,734.7075 317.9873,733.6438 316.107,732.0505 314.9761,730.2671 314.3228,728.1015 314.1791,725.5569 314.6349,722.4234 315.653,719.1409 317.2457,715.478 322.1426,707.082 328.9334,697.8427 337.1879,688.314 347.5064,677.7634 359.4503,666.6595 370.6056,657.0141 383.0589,646.7865 410.0752,626.0406 442.6258,603.0097 511.5603,556.4616 524.0253,547.0669 527.9566,543.529 529.875,541.25 529.9267,540.8243 529.4625,540.8448 526.9398,542.4271 520.9024,548.0196 515.1294,555.0082 509.3021,563.5738 504.5857,571.563 498.9035,582.1628 486.6295,607.2924 476.7712,626.3513 469.3676,639.0907 461.2053,651.449 453.1265,662.3084 440.9479,677.0384 431.2664,687.2773 420.1327,697.8687 411.2434,705.6876 402.5466,712.8347 393.2439,719.9419 384.8789,725.844 375.6203,731.8146 365.3134,737.9078 355.7232,743.1077 346.7356,747.4529 337.7466,751.2484 329.2004,754.3011 321.8799,756.3613 314.9756,757.7032 308.2346,758.2925 302.4727,758.0212 297.9906,756.9504 294.4029,755.0163 292.4194,753.0539 291.011,750.613 290.2209,747.6844 290.1054,744.1882 290.7016,740.3019 292.0196,735.9165 293.9146,731.4198 296.479,726.5349 303.048,716.5657 312.3198,705.1284 323.7725,692.8405 337.3176,679.7792 351.8397,666.9668 368.6134,653.2363 387.1174,639.005 407.2125,624.3717 442.8008,600.0054 518.4111,550.9467 538.0642,537.3244 544.5841,532.2018 549.2399,528.0187 552.3475,524.3885 553.4424,521.8365 553.077,520.9491 551.8906,520.5625 550.0793,520.8426 547.8034,521.8291 543.6011,524.5422 539.3019,528.2805 535.4775,532.5597 531.8145,537.6926 528.7418,543.0887 525.9111,549.4169 523.3806,556.6367 521.8122,562.7385 520.2229,571.0757 519.1752,580.173 518.7276,590.8033 518.8809,596.5797 519.6687,605.0315 521.0009,612.2689 522.6751,617.7805 525.6004,623.5168 527.513,625.9167 529.7567,627.9608 532.0659,629.2178 535.2338,630.2508 538.1779,630.5298 542.4439,630.2685 546.3304,629.482 550.3477,628.2269 554.9663,626.3397 560.0078,623.84 572.0996,616.5934 584.2548,607.9931 597.2176,597.56 610.5273,585.9111 622.6986,574.4331 636.4626,560.533 650.0902,545.8982 662.8705,531.2418 675.3775,516.0056 687.7547,500.0262 699.2346,484.2608 709.8688,468.6901 720.1383,452.6157 729.7429,436.4955 738.89,420.008 747.325,403.588 754.9517,387.4347 761.8673,371.3572 768.025,355.4711 774.5252,336.3496 779.9452,317.4391 784.2435,298.8732 787.3821,280.8314 789.354,263.4594 790.1846,246.496 789.8387,230.0445 788.3522,214.4393 785.6952,199.1869 781.8311,184.4241 776.8666,170.6327 770.6861,157.564 763.6677,145.949 755.4526,135.1563 746.2843,125.5356 736.1057,116.9591 730.353,112.8749 724.3522,109.1083 718.1148,105.6683 711.9979,102.7191 705.3327,99.9419 698.8312,97.637 691.782,95.5573 684.9373,93.9298 670.8016,91.7072 656.0531,90.8848 640.7252,91.4707 624.8337,93.5044 608.8795,96.9349 593.0022,101.7074 576.9808,107.9234 561.6855,115.2445 546.5471,123.9397 531.8954,133.8266 517.7151,144.9054 504.3886,156.8395 495.8323,165.3862 487.7151,174.2257 479.8229,183.6034 472.4357,193.2017 465.3121,203.3596 458.804,213.5641 452.6528,224.1956 447.0638,234.883 441.8615,245.9393 437.0753,257.3293 432.7317,269.0108 428.8537,280.9341 425.4609,293.0414 422.5893,305.18 420.1981,317.5178 418.3102,329.9368 416.4019,348.6674 415.5394,367.9242 415.7011,387.3856 416.94,407.0255 419.7141,430.197 424.1333,455.9161 429.1628,478.9194 441.8039,530.8578 445.1737,547.4776 447.2097,560.1721 448.4928,574.756 448.4184,588.0334 446.9228,602.3245 445.7613,608.209 444.0818,614.4663 441.1832,623.1692 437.875,631.0 433.329,639.813 428.3176,648.0297 422.389,656.4408 415.701,664.7664 408.7356,672.4549 400.8509,680.1455 392.4309,687.5141 383.6008,694.1835 373.5258,700.7859 364.4738,705.7399 356.7691,708.963 350.124,710.5744 347.4453,710.7613 344.9466,710.5534 343.082,709.9238 341.6894,708.8467 340.7824,707.3287 340.4155,705.8015 340.3931,703.7653 340.838,701.454 343.037,696.161 346.963,689.7547 352.4183,682.5707 359.3599,674.7164 367.6877,666.2376 377.294,657.2685 398.8014,639.1196 423.8551,619.7773 450.0459,600.8271 504.7193,562.7078 497.9788,570.7402 490.4017,580.7038 463.6398,619.9146 454.7943,632.1792 447.4378,641.7704 438.9386,652.0601 430.2266,661.7452 420.4454,671.781 410.9667,680.6931 399.0864,690.7115 386.7276,699.8359 374.3918,707.7307 362.3524,714.2258 351.9845,718.4834 347.0,720.0 342.8473,720.8618 339.133,721.1445 335.917,720.8582 333.2589,720.0128 331.2832,718.5753 330.3011,716.9724 329.8171,714.9592 329.8447,712.5539 330.2683,710.2629 332.6243,704.1986 336.9078,697.0215 342.8185,689.0942 350.1282,680.6766 359.1096,671.4933 369.7938,661.5226 391.5505,643.1325 417.2325,623.273 445.939,602.609 499.1876,565.8031 510.4225,557.5796 515.1047,553.6262 511.9593,556.392 506.9598,562.0335 497.2427,575.0956 490.8028,584.8917 466.0703,624.8574 459.0276,635.2607 451.7317,645.2198 442.5884,656.7063 433.6285,666.9511 423.438,677.613 413.1313,687.3965 398.4918,699.6787 383.3697,710.8527 369.6567,719.4651 355.521,726.786 348.7584,729.7093 342.5477,731.994 336.951,733.5738 331.406,734.5922 326.7342,734.9018 322.856,734.5665 319.5145,733.4083 317.2509,731.6856 315.8778,729.6494 315.1926,727.5153 315.0142,725.1694 315.358,722.3758 316.2431,719.2103 317.6753,715.6899 322.2035,707.6537 328.7808,698.632 337.6107,688.3395 347.8544,677.7538 359.4976,666.8587 370.5019,657.2798 382.5948,647.2957 409.4501,626.6015 440.6895,604.4679 507.9586,558.9479 522.9907,547.8176 527.4212,543.9333 529.3056,541.6157 529.0278,541.4259 528.0,541.875 525.7095,543.4589 519.409,549.6586 513.451,557.07 507.1788,566.5598 499.2921,580.8542 485.3078,608.8922 476.8887,624.7988 468.8959,638.3784 459.9543,652.0007 451.3998,663.4101 441.6638,675.0823 432.0317,685.3882 420.6436,696.4187 413.0825,703.2257 405.0521,709.9195 396.131,716.8262 386.8729,723.5036 378.3692,729.173 369.5205,734.6024 360.6692,739.5682 352.0456,743.9696 343.404,747.926 334.8087,751.3732 327.6478,753.78 321.0132,755.5054 314.3802,756.6509 308.2726,757.0447 303.2574,756.6798 298.9673,755.5083 296.0835,753.9278 293.834,751.7732 292.42,749.3656 291.5844,746.3212 291.5083,742.9609 292.1502,739.0935 293.5245,734.739 295.6457,729.9176 298.5281,724.6496 301.8768,719.4078 310.2118,708.4158 321.3535,695.9559 334.8841,682.5765 349.6325,669.3579 366.8239,655.0704 385.5602,640.4505 405.3199,625.9001 439.0391,602.6751 515.3023,553.0988 527.0571,545.1622 536.9219,538.0469 543.3948,532.9608 548.0019,528.8765 551.0691,525.3595 552.1316,522.9003 551.7311,521.9758 550.4092,521.6982 546.6188,523.0646 541.6845,526.305 536.6972,530.9836 532.7167,535.9176 528.9271,541.9616 525.3142,549.2523 522.2475,557.2496 520.2607,564.2896 518.2719,573.7255 516.8492,584.0181 516.0436,596.047 515.873,606.115 516.7893,621.0526 518.1593,629.9745 519.8763,636.1582 522.2961,641.391 525.125,644.75 527.3422,646.3929 530.4651,647.687 533.4793,648.1323 537.2435,647.9574 541.2653,647.0409 546.2631,645.3247 557.5661,639.8124 571.625,630.75 585.2574,620.583 601.3824,607.139 617.5208,592.4142 635.0182,575.0914 651.3582,557.69 667.9386,538.6623 683.875,519.125 698.7522,499.5701 713.0188,479.3934 726.3345,459.1204 738.6728,438.7636 749.819,418.693 760.1422,398.2429 769.3129,378.0699 777.4439,357.9633 784.5472,337.829 790.4186,318.2376 795.133,298.9962 798.6444,280.3381 800.9404,262.6997 802.1482,245.787 802.3092,229.3431 801.4145,213.476 799.4646,198.2782 796.4687,183.8273 792.4543,170.2174 787.4022,157.3356 781.0947,144.7448 773.6812,132.9109 765.4299,122.2189 756.1777,112.4306 746.2445,103.8683 735.4075,96.3324 723.9747,90.0447 711.5316,84.777 698.0634,80.5913 683.9951,77.6502 669.4342,75.9623 654.4881,75.5358 639.2646,76.3792 623.871,78.5008 608.5609,81.8705 593.194,86.4906 577.3747,92.5174 561.9108,99.6793 546.8906,107.891 532.0874,117.2816 517.9347,127.5891 504.5272,138.7226 491.8982,150.645 479.6471,163.7397 472.042,172.7442 464.6516,182.2422 457.5179,192.2176 450.8827,202.3303 444.7417,212.5433 438.9219,223.1417 433.4656,234.0892 428.5521,245.0213 424.0092,256.3163 420.0269,267.4604 416.4444,278.8597 413.2817,290.4797 410.5537,302.2816 408.2696,314.2211 406.3857,326.598 404.9722,338.9881 403.6942,357.8413 403.4679,377.0662 404.2893,396.2478 406.1686,416.2219 409.4945,439.4768 414.1969,463.7951 419.7792,487.7628 433.1491,539.7986 435.6717,550.9931 437.3386,560.2222 439.2292,575.082 439.7658,588.0087 439.0645,600.3026 437.026,611.8296 435.043,619.1501 432.5479,626.2056 429.035,634.2305 425.143,641.6713 420.6386,648.8406 415.5093,655.9498 409.8695,662.8344 403.9132,669.2931 396.3081,676.6195 389.678,682.2352 381.4581,688.1965 374.1745,692.6682 367.231,696.0119 362.0185,697.6806 359.6968,697.9995 357.3754,697.9364 355.6738,697.5013 354.3868,696.5518 353.7812,695.4062 353.5658,693.9308 354.2266,690.4036 356.5075,685.5612 360.176,679.989 365.3057,673.5989 371.8042,666.4711 379.2372,659.0425 387.7898,651.1524 407.4875,634.5571 434.1156,614.1395 455.6244,598.502 475.8468,584.2938 489.3435,575.1074 491.2963,573.9722 491.864,573.9566 490.0725,576.7478 481.6933,587.528 458.1683,619.4302 445.1488,635.9302 436.8544,645.7631 429.918,653.4278 420.922,662.5965 412.4792,670.5373 402.2704,679.2438 391.8289,687.2966 382.0395,693.8468 372.7425,699.1461 364.1759,702.9797 357.0762,705.0267 353.8982,705.3638 351.1859,705.2095 349.0698,704.6073 347.7048,703.6004 346.8437,702.1296 346.5384,700.6345 347.0761,696.6511 349.3009,691.5873 353.2238,685.4079 358.3298,678.8193 365.0372,671.3093 373.3911,662.8767 382.7828,654.1302 403.6735,636.461 430.002,616.2267 459.2509,595.1553 496.7757,568.8578 498.626,567.745 498.768,567.955 483.4901,587.8772 461.4636,619.0216 446.7918,638.3474 438.3475,648.4359 429.9925,657.7198 419.8448,668.0468 411.0601,676.3254 399.9609,685.735 388.6265,694.2578 377.2997,701.5981 366.7528,707.3572 357.2831,711.377 349.3937,713.4315 346.1169,713.7411 343.1598,713.5688 340.8576,712.8679 339.1422,711.6309 338.1875,710.1839 337.7113,708.5168 337.6813,706.4322 338.0659,704.2988 340.1956,698.813 344.1389,692.165 349.6013,684.84 356.7076,676.6355 364.669,668.448 374.5575,659.2046 396.2303,640.7857 419.5525,622.7062 442.4746,606.0551 494.3293,569.8047 507.5876,560.1201 497.7794,571.7767 490.125,582.125 463.953,621.3835 456.0365,632.5524 448.7517,642.1799 439.6839,653.3141 430.7444,663.4257 421.7856,672.6651 411.9599,681.935 399.195,692.7132 386.5466,702.1563 372.8208,711.009 361.0969,717.301 349.5969,722.0066 344.6762,723.4353 340.1485,724.3086 335.7507,724.6152 332.3027,724.2986 329.6736,723.3918 327.7179,721.873 326.6105,720.0843 326.1095,718.2503 326.0177,716.0505 326.4406,713.386 327.4071,710.3263 328.9211,706.8971 333.3189,699.455 339.4954,691.2139 347.5212,682.0299 357.2562,672.0707 368.0594,661.9764 389.3749,643.9566 414.6874,624.5458 447.583,600.9526 501.2408,564.1966 513.0046,555.5093 518.7812,550.5 514.8931,553.7762 510.599,558.4696 506.5395,563.4131 502.1094,569.5938 491.4196,586.2131 476.1627,612.4132 468.9153,624.249 461.7528,635.1434 452.2534,648.4334 443.6174,659.2435 433.5928,670.6995 423.6755,681.0205 413.6349,690.5043 398.8549,702.8892 382.6785,714.6952 367.5075,724.0517 359.6909,728.2605 352.1417,731.9067 344.7794,735.0037 337.9885,737.3954 332.4514,738.9239 327.006,739.8634 321.7126,740.0975 317.4609,739.5926 314.0803,738.4134 311.6803,736.5422 310.3947,734.5621 309.6583,732.1229 309.5084,729.2246 309.9236,726.1395 310.9576,722.6041 312.5042,718.9416 317.2618,710.6186 324.1904,701.1261 332.9074,691.0197 343.738,679.926 356.6273,667.9182 367.625,658.375 379.5668,648.5765 407.5723,627.1753 441.7816,603.0393 514.4806,554.1626 529.2791,542.9861 532.6702,539.8773 534.5779,537.3387 534.5465,536.8659 533.8767,536.8628 531.375,538.25 528.0404,540.8638 524.9497,543.8962 518.1801,552.0869 511.9306,561.7056 507.8159,569.1316 502.7975,579.5684 490.9035,606.701 481.2147,626.9726 473.6956,640.8291 465.866,653.261 456.3428,666.4942 446.601,678.4101 435.5871,690.2929 423.3399,702.0672 414.04,710.2342 404.5355,718.0075 394.9177,725.243 384.6362,732.3838 374.3755,738.9727 364.2464,744.9222 353.7498,750.5225 343.4349,755.457 334.0058,759.3817 324.6988,762.6361 315.9683,765.0446 308.2232,766.5273 301.3459,767.1398 295.141,766.8835 289.7566,765.6796 285.8017,763.7246 283.5317,761.7033 281.8626,759.1775 280.8421,756.1389 280.5178,752.5791 280.9373,748.4897 281.9988,744.3409 283.8,739.6738 286.179,734.8582 289.4157,729.352 293.1504,723.7896 302.5953,711.6972 314.0582,699.0951 327.9467,685.5036 344.1389,671.0586 362.0135,656.3356 382.154,640.896 404.6058,624.6606 440.5136,600.2875 521.2362,548.7279 544.1897,533.2181 552.8464,526.4826 558.6308,521.1933 561.9453,516.9433 562.5663,515.4886 562.6757,514.0354 562.2887,513.2947 561.5597,512.8401 558.6197,512.7685 555.2816,513.8241 551.209,516.1068 547.7774,518.7391 544.3691,522.0508 541.4798,525.6377 538.6797,530.0117 536.4364,534.5183 534.4851,539.6579 533.4309,543.7951 532.5674,549.0294 532.2154,553.7886 532.4097,558.7812 533.0548,563.0621 534.2581,567.391 535.8164,571.0117 537.625,573.875 539.7577,576.154 542.5835,578.2217 544.5297,579.2721 547.0498,580.0928 549.8557,580.5405 553.1384,580.6033 560.1381,579.3721 568.0805,576.5735 576.9275,572.1962 585.834,566.7021 595.5019,559.6803 606.3175,550.8411 615.0022,543.0952 623.7698,534.7176 632.4883,525.8599 640.9121,516.7628 658.2712,496.2341 674.7121,474.6985 689.5171,452.9859 703.5581,429.959 715.5952,407.6444 726.29,384.8474 733.0938,368.3519 738.929,352.2938 743.747,336.8703 747.7297,321.4807 750.8655,305.9334 753.0809,290.6838 754.3675,275.7726 754.7005,261.7055 754.113,248.1996 752.6056,235.3377 750.1709,223.0886 746.7145,211.0598 742.4276,199.9374 737.2122,189.4325 731.2761,179.9434 724.4613,171.2064 716.4913,163.0593 707.9559,156.1595 698.6869,150.2535 688.4021,145.2105 677.4873,141.2828 666.0316,138.5092 654.1244,136.9282 642.2555,136.5701 629.8234,137.408 617.1399,139.4295 604.4418,142.5822 591.4714,146.9536 579.052,152.2507 566.5805,158.7243 554.574,166.1502 543.0501,174.4717 534.7447,181.2571 526.5339,188.6855 518.7337,196.4822 511.1105,204.8926 503.9549,213.61 497.2812,222.5901 490.9659,232.0031 485.1654,241.582 479.531,251.9362 474.4747,262.3474 469.833,273.1252 465.7591,283.8813 462.1226,294.9172 458.9168,306.3019 456.2187,317.8189 454.0218,329.4993 452.5149,339.7904 451.377,350.2237 450.183,371.6782 450.4247,393.4738 452.1396,416.0381 454.7963,436.5846 458.269,456.4751 475.4817,535.8469 477.9322,552.2757 479.0394,565.1902 479.2672,574.2078 479.0618,582.4272 478.3279,591.5102 477.2479,599.3492 475.7673,606.3662 473.4768,614.7094 471.0475,621.9109 467.8263,630.0233 462.3152,641.5215 455.4414,653.0539 446.2913,666.0966 436.3404,678.3505 426.2047,689.2311 414.582,700.2377 401.5146,711.3596 387.9063,721.7225 373.75,731.135 358.9518,739.6341 344.9468,746.3964 331.125,751.75 325.3066,753.5239 319.7206,754.8375 314.4246,755.6676 309.8168,755.9854 305.5546,755.8482 302.0828,755.2936 298.7514,754.103 296.3189,752.5349 294.4282,750.487 293.1218,747.9593 292.442,744.9518 292.4355,741.7004 293.1464,737.8706 294.4651,733.8773 296.4225,729.4817 299.0232,724.7017 306.1728,714.0615 315.1066,703.1301 326.6023,690.903 340.1876,677.933 354.4686,665.4463 371.3223,651.7061 389.839,637.4664 409.5683,623.0735 442.4576,600.4822 512.0797,555.1739 525.8992,545.8815 535.6311,538.9402 544.4797,531.9368 549.4039,527.0525 550.7465,525.0598 551.1891,523.5256 550.5996,522.7598 548.8009,522.7037 546.75,523.375 544.6297,524.4929 539.7167,528.1938 535.0329,532.9964 530.3676,539.17 526.876,545.1346 523.7539,551.8583 520.382,561.2423 518.257,569.0786 516.2382,579.4361 514.716,590.234 513.4466,606.3055 513.0987,616.4349 512.9493,628.9712 513.4116,650.3707 514.457,661.9735 515.5027,667.5288 516.4983,671.0303 517.347,672.884 519.0324,675.6128 520.9926,677.4643 523.1253,678.4952 524.9391,678.8974 528.0,678.875 531.0322,678.3612 537.384,676.049 547.0294,670.9782 559.0696,663.1693 571.2987,654.2047 586.7128,641.7384 604.2669,626.3547 620.724,610.9053 637.7911,593.8562 653.463,577.3646 668.0004,561.1413 684.3214,541.8048 699.1737,523.2043 712.7242,505.1761 725.375,487.25 738.3561,467.6602 750.2912,448.4105 760.9707,429.9026 770.8438,411.4197 780.0035,392.7587 788.3626,374.0946 794.252,359.7422 799.5395,345.7171 804.3321,331.7435 808.6016,317.8767 812.3274,304.1662 815.4965,290.6564 818.1026,277.3868 820.1456,264.3921 821.6761,251.2473 822.6281,238.4505 823.0208,226.0571 822.8642,213.7252 822.1636,201.8804 820.8982,190.1777 819.0438,178.6587 816.6654,167.7253 813.7997,157.3922 810.3568,147.3253 806.3168,137.5587 801.8707,128.5209 796.8135,119.7522 791.2016,111.3711 785.0507,103.4046 778.3763,95.8801 771.1939,88.8247 763.5193,82.2656 755.3679,76.2299 747.0825,70.9378 738.0407,66.0087 728.9267,61.8327 719.4274,58.2411 709.5475,55.2552 698.874,52.8022 687.9124,51.0312 676.7052,49.9342 664.9234,49.5 653.3469,49.7472 641.2742,50.6831 629.1227,52.3016 616.9389,54.5935 604.7694,57.5499 593.0376,61.0391 581.405,65.1352 569.6576,69.9416 558.1705,75.3012 546.6004,81.3693 535.3212,87.956 524.037,95.2402 513.1079,102.9962 502.5577,111.1849 492.1265,120.0174 482.1473,129.2231 472.646,138.7592 463.4061,148.8594 454.9535,158.934 446.6979,169.6758 438.9842,180.6447 431.6559,192.0589 424.7472,203.8908 418.461,215.7667 412.4679,228.3253 407.1196,240.8423 402.2705,253.6053 397.9426,266.5543 393.3741,282.5916 389.7132,298.375 386.7453,314.8832 384.6446,331.2326 383.3182,348.0741 382.8002,364.8977 383.0696,382.5176 384.1231,399.5651 385.7662,415.1654 388.0385,430.8723 391.2274,448.5044 394.8891,465.7163 402.3874,494.7792 417.8668,547.4257 423.197,568.9654 424.8833,578.4282 426.1536,588.6727 426.6182,596.6445 426.4606,604.5495 425.9073,610.6695 424.9621,616.474 423.4421,622.7014 421.5026,628.9341 419.4411,634.1882 416.8951,639.4548 414.0368,644.4702 410.673,649.5579 406.1803,655.505 401.5213,660.8913 395.966,666.495 390.8752,670.8937 385.4722,674.6499 380.75,677.125 377.2587,678.1286 375.7339,678.0408 374.8022,677.5577 374.4028,676.7789 374.3383,675.6775 375.0,673.25 376.9838,669.6399 379.9595,665.5185 389.5162,654.8973 401.6837,643.4237 421.9844,626.3906 444.3058,609.4398 466.0195,594.3064 470.301,591.93 470.9592,591.777 471.2732,592.2056 470.8679,593.438 469.6716,595.3614 462.6802,604.792 443.2475,628.5068 428.8906,644.3178 414.5941,657.9623 407.9456,663.694 401.437,668.7954 393.125,674.625 387.5506,678.0351 381.875,680.875 377.6719,682.3358 373.75,682.75 372.5436,682.4699 371.6874,681.8273 371.1723,680.859 370.989,679.6018 371.4964,676.9792 373.1389,673.6157 376.2055,669.029 380.356,663.8903 385.9027,657.7907 398.4277,645.7312 418.3226,628.9189 440.3357,611.9126 458.3455,598.8368 468.5827,591.8128 473.9884,588.6927 474.875,588.5 475.1406,589.0938 473.5024,591.9158 465.7515,602.3758 444.9528,628.1258 427.8877,646.9674 414.1607,660.0506 405.8817,667.1684 398.7286,672.7403 391.0009,678.0348 383.5,682.5 377.7656,685.1094 372.3242,686.6041 369.1406,686.625 368.1461,686.2751 367.1772,685.4975 366.7092,684.5784 366.5833,683.4398 367.3946,679.989 369.3567,676.1254 372.4844,671.5312 376.7525,666.2429 382.3315,660.1465 396.1879,646.7785 417.0886,629.1883 438.8191,612.3815 472.0168,588.7808 477.6667,585.2598 479.134,584.814 479.322,585.252 476.7766,589.3841 462.3067,608.327 444.1774,630.8547 428.9115,647.7972 412.6818,663.463 404.5396,670.4292 397.0533,676.2168 388.0,682.375 381.3648,686.2627 374.625,689.375 369.0938,691.0625 364.875,691.25 363.6833,690.9089 362.5369,690.061 362.0027,689.1431 361.7151,687.562 362.3334,684.2607 364.4549,679.9378 367.9757,674.6415 372.3834,669.1311 378.2347,662.6967 385.0972,655.8367 392.9186,648.5853 412.1052,632.3877 436.8599,613.1981 458.4489,597.5543 478.2151,583.766 482.5787,581.0046 483.8949,580.5033 484.1477,580.7896 483.0535,582.9253 472.5809,596.8785 453.3716,621.8352 446.4194,630.4482 428.7767,650.4092 420.9779,658.2374 412.0901,666.5067 403.1322,674.1828 394.6904,680.6682 386.3705,686.2828 378.0952,691.0648 370.9613,694.3833 364.772,696.3872 362.1327,696.7485 359.9074,696.6528 358.1196,696.1352 356.914,695.3021 356.149,693.957 355.9267,692.547 356.5654,688.903 358.6695,684.3766 362.261,678.9216 367.2412,672.645 373.3098,665.9614 381.1094,658.1699 390.1817,649.7303 410.609,632.5197 437.066,612.1827 456.4191,598.2203 486.6518,577.2046 489.033,575.827 489.761,575.729 489.807,575.953 459.3193,616.9217 444.9638,635.0021 436.4871,644.9432 428.8158,653.3295 419.9867,662.2761 411.552,670.1973 402.2003,678.1699 392.2709,685.7026 382.8576,691.9231 373.2203,697.4155 365.3489,700.8758 358.5118,702.7971 355.8624,703.07 353.6124,702.9189 351.7618,702.3531 350.306,701.3589 349.634,700.3927 349.199,698.8475 349.214,696.9387 349.679,694.6784 351.6909,689.7908 355.2438,684.1091 360.2922,677.5825 366.9734,670.0882 375.1104,661.8705 384.0884,653.5074 405.0878,635.781 431.1133,615.7558 471.5556,586.8217 492.1111,572.4583 495.75,570.125 496.38,570.062 480.5607,590.9619 460.6289,618.7083 446.251,637.3976 437.2335,648.0609 428.992,657.1856 420.6341,665.7424 411.9715,673.8978 401.2917,682.9491 389.6674,691.8079 379.5725,698.4779 369.5353,704.1072 360.324,708.1213 352.4266,710.3491 348.93,710.746 346.2362,710.6333 343.8123,709.9882 342.1589,708.8335 341.2656,707.4531 340.8301,705.6983 341.244,701.6403 343.3638,696.3284 347.2738,689.8448 352.5951,682.8025 359.5695,674.8485 368.0286,666.1891 377.5318,657.2955 398.967,639.1457 424.7567,619.27 448.2297,602.249 504.437,562.897 497.5422,571.1995 490.828,579.902 462.0165,621.9435 449.6944,638.5694 439.0773,651.5774 430.9103,660.8755 422.1101,670.0291 412.9993,678.6087 399.5694,690.037 387.1934,699.4072 375.422,707.0491 363.6117,713.4398 352.777,717.9529 347.6068,719.5131 342.8855,720.5042 339.2471,720.7616 336.1325,720.4231 333.5908,719.5081 331.6879,718.0522 330.6889,716.384 330.2731,714.5746 330.3156,712.048 330.8152,709.548 333.2162,703.544 337.636,696.2103 343.5573,688.3411 350.875,680.0 360.5034,670.2324 371.3606,660.1268 391.4189,643.1633 416.3053,624.024 453.247,597.5339 499.0735,566.033 509.1142,558.5789 514.625,554.0 511.47,556.9178 507.0352,561.9069 497.6574,574.2005 491.9909,582.8398 466.3348,623.9387 457.9877,636.2037 450.32,646.7286 441.5415,657.609 431.749,668.6682 422.3462,678.3791 412.3968,687.7469 398.5759,699.3342 384.0309,710.0651 369.1869,719.3171 355.5573,726.362 348.6995,729.2513 341.9289,731.6424 336.3252,733.1585 331.5312,733.9844 326.8359,734.2246 322.75,733.75 319.7781,732.6639 317.5676,730.8947 316.4439,729.1096 315.8052,726.924 315.6758,724.3311 316.1422,721.1429 317.1837,717.8152 318.6566,714.4308 323.3274,706.4077 329.8748,697.5649 338.533,687.614 349.1333,676.7674 361.1099,665.5962 371.8495,656.2788 383.6566,646.5713 410.5249,625.9383 439.5312,605.3385 510.3056,557.2917 523.5068,547.4054 527.0482,544.1628 528.5926,542.1075 528.3819,541.9027 527.6727,542.1527 525.5656,543.563 520.375,548.5 513.8849,556.2582 508.3526,564.3827 501.1551,576.6144 484.4368,609.6676 476.1933,625.0711 466.5518,641.0798 458.45,653.1318 448.3721,666.2744 438.3731,677.829 425.655,690.8138 413.1649,702.2959 403.9532,709.9857 394.3366,717.3613 384.4512,724.2985 373.7201,731.2595 364.251,736.8616 355.4267,741.5395 345.7929,746.0538 336.6322,749.7616 327.6871,752.7611 319.9303,754.7241 313.0218,755.7365 306.7889,755.836 301.4109,754.9584 297.4374,753.1992 295.8207,751.9123 294.5076,750.3588 292.9528,746.8098 292.5833,744.0731 292.7327,740.9594 293.414,737.5569 294.7585,733.5313 299.0033,724.9358 305.2595,715.4409 313.4161,705.198 323.6339,694.0209 335.7444,682.0794 349.1905,669.9136 362.625,658.625 379.2642,645.4887 396.9828,632.1864 415.9578,618.5703 447.0566,597.3997 509.9517,556.6313 533.8024,540.3244 542.2017,533.8371 547.979,528.5326 549.773,526.3959 550.8426,524.5494 550.9543,523.3822 550.1833,522.8327 548.5625,522.8594 546.3677,523.6035 541.1937,526.9493 536.4578,531.3438 531.636,537.3438 527.5007,543.9109 523.8797,551.2795 520.9397,559.0458 518.4405,567.8693 516.5139,576.8794 514.6736,588.7545 513.6035,598.5926 512.8687,609.7554 512.2048,628.724 511.6758,674.3738 510.9176,692.3131 509.8781,700.0236 508.523,705.488 506.237,710.9501 503.5985,715.5538 498.7959,722.0594 493.5216,727.8732 478.3891,741.4373 469.1427,748.8931 456.8585,758.1646 432.4274,775.0558 407.6438,790.528 380.7274,805.6689 355.2616,818.5984 330.2097,829.7286 306.4625,838.8444 284.6861,845.7547 273.9777,848.5578 263.6088,850.8485 253.5161,852.6334 244.5735,853.7757 236.2555,854.3853 228.2273,854.4732 220.9551,854.0241 214.1106,853.0086 208.0943,851.4819 202.6036,849.3657 198.0354,846.8269 193.9582,843.5688 190.0856,838.8459 188.5115,835.9822 187.3892,833.1794 186.0387,826.9249 185.9732,819.793 187.1918,812.2382 189.75,803.875 193.4158,795.4133 198.3847,786.2653 204.835,776.2062 212.4044,765.8368 221.2356,754.949 231.3152,743.5983 242.2988,732.172 254.0742,720.7518 266.5954,709.358 280.4903,697.4429 305.5166,677.4085 333.1239,656.8772 362.8217,636.191 394.3734,615.5255 429.9414,593.6208 469.3222,570.6598 507.6613,549.2653 582.3183,508.6667 612.6126,491.3729 626.618,482.6431 637.2503,475.1769 645.5238,468.2544 648.8922,464.8505 651.53,461.684 653.6333,458.4988 655.0269,455.5442 655.8235,452.5868 656.0029,449.7895 655.5518,446.7963 654.4963,444.0204 652.9365,441.4617 650.7031,438.843 644.4382,433.7197 636.8666,429.1602 625.5512,424.0612 608.3425,417.7977 605.7117,416.2023 604.6481,414.6713 604.8479,412.7869 605.876,410.651 618.4552,392.0709 621.872,386.0561 624.9794,379.8069 628.2598,371.9863 630.8574,364.7339 632.6132,358.3999 634.2296,350.8498 635.1636,344.0031 635.4803,336.2421 635.1683,330.2069 634.2034,324.666 632.4457,318.6912 630.2963,314.0315 627.4187,309.9364 623.8733,306.5463 619.3787,304.0051 614.0024,302.4319 609.0,302.25 603.5357,303.3422 597.7071,305.8072 592.3164,309.267 587.1989,313.7964 582.1223,319.6923 577.8776,325.9503 574.2391,332.8567 571.254,340.335 568.7613,348.7885 567.3982,356.3413 566.6358,365.0066 566.7005,372.755 567.4676,380.338 568.6936,385.6789 570.6972,391.8123 572.5759,395.6887 575.125,399.625 577.8131,402.6945 580.8218,405.0551 583.844,406.6257 587.1764,407.5146 590.5479,407.7566 594.2194,407.2425 598.375,405.875 602.5264,403.7531 606.4507,401.0502 610.6668,397.3908 614.6766,393.2331 618.11,388.9946 621.7656,383.7344 625.2369,377.9212 628.2726,371.8788 630.9351,365.5759 633.2206,359.0412 634.9402,352.7313 636.2052,346.2804 636.9313,340.1693 637.1914,333.9671 636.9492,328.3376 636.1365,322.7532 634.8517,317.7785 633.2129,313.5527 631.0653,309.6956 628.192,305.931 625.1407,303.0791 622.98,301.6397 620.2661,300.3566 614.7725,298.8517 609.25,298.75 603.4557,299.9799 597.3197,302.5979 591.5251,306.2916 586.1063,311.0134 580.9983,316.8015 576.5902,323.3131 572.453,331.1589 569.2767,339.0007 566.7761,347.3913 565.1127,355.8458 564.2004,364.9455 564.2169,372.856 565.0492,381.1176 566.2672,386.9997 568.269,393.3991 570.2418,397.8985 572.5555,401.8267 575.2145,405.221 578.4023,408.0273 581.6486,409.9946 585.3817,411.2347 589.1969,411.6384 592.8439,411.2417 597.3744,409.8976 601.64,407.854 605.9821,405.0191 610.255,401.479 614.5825,397.1176 618.6164,392.2575 622.6833,386.5123 626.5451,380.1699 629.9896,373.5345 632.9073,366.8519 635.2047,360.3259 637.2304,352.9681 638.5988,346.2124 639.4496,339.3708 639.7995,332.7443 639.6222,327.0459 638.8432,321.3694 637.5145,316.0415 635.6542,311.1485 633.3643,306.976 630.2853,302.8807 626.9758,299.747 624.5201,298.0989 621.8381,296.7978 618.6649,295.7002 615.7177,295.0965 610.25,295.0 603.3544,296.3891 597.1991,298.9685 590.7365,303.1438 584.985,308.2094 579.6239,314.3783 574.6926,321.5479 570.2709,329.7683 567.1084,337.6345 564.3054,347.1403 562.6297,355.9081 561.7035,365.6901 561.7053,373.9099 562.5345,382.8546 563.8266,389.3641 565.8963,396.0336 568.0002,400.8937 570.6402,405.368 573.5812,409.0664 577.0012,412.0044 580.6032,414.1208 584.6799,415.4245 588.841,415.81 593.0897,415.3084 597.5786,413.866 602.2276,411.5169 606.6609,408.5138 611.288,404.51 616.1598,399.4538 620.6463,393.9858 624.9925,387.6736 628.9308,380.9745 632.6494,373.536 635.8268,365.9692 638.2795,358.7959 640.2358,351.4219 641.5706,344.3685 642.3981,337.0787 642.6456,330.5892 642.3287,324.3364 641.3119,317.7484 639.7237,311.822 637.7511,307.0755 634.9327,302.4089 631.7777,298.6031 628.1505,295.4953 625.301,293.7504 622.232,292.3496 619.0243,291.3655 616.043,290.8613 612.9266,290.7246 609.2479,291.0137 602.369,292.685 595.2449,295.9831 588.5929,300.5947 582.093,306.6876 576.2836,313.7514 571.1996,321.8238 566.9289,330.4963 563.5668,339.767 561.0471,349.5266 559.4951,359.424 558.798,369.4346 559.321,379.7201 560.7778,389.6827 562.7823,397.0879 565.0811,402.9909 568.4378,409.0866 571.5933,413.1501 575.7188,416.7967 579.6615,418.9987 585.1122,420.4277 589.6562,420.375 595.3885,419.0509 600.4398,416.8658 605.8909,413.4311 611.6877,408.5936 617.2296,402.8637 622.4808,396.2797 627.5702,388.7009 632.1687,380.5616 636.1364,372.1591 639.4824,363.6133 642.115,355.2509 644.0,347.125 645.2861,338.3883 645.7742,330.4141 645.4629,322.866 644.4263,315.4424 642.8288,309.2514 640.5453,303.8002 637.3196,298.4103 633.4193,293.841 629.3499,290.629 624.5979,288.1689 619.4354,286.6832 614.0454,286.2441 608.6101,286.7422 603.129,288.1191 597.625,290.375 592.1879,293.4619 586.9738,297.2922 581.9826,301.8657 577.3817,306.993 573.0887,312.7657 569.0602,319.2974 565.5684,326.1289 562.6497,333.1457 560.16,340.6767 558.2883,348.198 556.9484,356.0512 555.9938,364.9835 555.7674,372.3943 556.1708,380.5774 557.1493,388.3809 558.8641,396.1315 561.2106,403.5139 563.8519,409.367 566.9378,414.5243 570.6595,418.8362 574.9915,422.4042 579.2134,424.4811 583.9005,425.6073 588.8722,425.522 594.0058,424.4743 598.9104,422.4829 604.3909,419.2434 609.9412,414.9887 615.25,410.0"/>
  </g>
</svg>
