<?xml version="1.0" encoding="utf-8" ?>
<svg xmlns="http://www.w3.org/2000/svg" xmlns:cc="http://creativecommons.org/ns" xmlns:dc="http://purl.org/dc/elements/1.1/" xmlns:ev="http://www.w3.org/2001/xml-events" xmlns:inkscape="http://www.inkscape.org/namespaces/inkscape" xmlns:rdf="http://www.w3.org/1999/02/22-rdf-syntax-ns" xmlns:sodipodi="http://sodipodi.sourceforge.net/DTD/sodipodi-0.dtd" xmlns:xlink="http://www.w3.org/1999/xlink" baseProfile="tiny" height="27.09333333cm" version="1.2" viewBox="0 0 1024.0 1024.0" width="27.09333333cm">
  <metadata>
    <rdf:RDF>
      <cc:Work>
        <dc:format>image/svg+xml</dc:format>
        <dc:source>vpype read './original_svgs/Strange Attractors #138.svg' linemerge linesimplify write './Strange Attractors #138.svg'
</dc:source>
        <dc:date>2024-08-05T01:35:29.102381</dc:date>
      </cc:Work>
    </rdf:RDF>
  </metadata>
  <defs/>
  <g fill="none" id="layer1" inkscape:groupmode="layer" inkscape:label="1" stroke="black" stroke-width="0.7mm" style="display:inline">
    <polyline points="714.0,565.75 717.5,536.75 716.0,511.625 708.75,487.75 694.375,463.5 670.75,437.875 635.5,411.25 587.75,386.0 529.0,367.125 465.5,360.5 405.875,370.25 358.375,395.5 325.75,431.625 306.5,472.5 296.875,513.125 293.25,551.25 293.25,585.875 295.5,616.875 299.5,644.25 305.125,668.25 312.75,688.75 322.375,705.375 334.25,717.5 348.0,724.875 363.375,727.125 379.75,724.375"/>
    <polyline points="396.375,717.125 412.75,706.0 428.25,692.0 442.375,676.375 455.0,660.0 465.875,643.5 475.375,627.75 490.0,599.375 495.5,587.125 503.875,566.75 518.75,525.25 521.375,519.25 523.625,515.875"/>
    <polyline points="524.375,515.125 525.875,513.875 528.125,512.75 530.5,512.125 546.5,510.5"/>
    <polyline points="547.625,510.375 556.75,508.75 562.375,506.875 566.0,504.625 567.0,503.5 567.875,501.5"/>
    <polyline points="567.875,500.75 567.75,499.25 566.875,497.625 564.5,495.0 563.25,494.125 558.625,491.625 554.5,490.125 549.75,489.0 547.125,488.5 541.625,488.125 533.0,488.5 527.375,489.75 522.125,491.5"/>
    <polyline points="519.875,492.5 515.625,495.0 512.375,497.75 508.875,502.125 507.25,506.125 507.125,509.625 507.625,511.5 508.625,513.0 510.625,514.75 513.0,515.875 514.875,516.25"/>
    <polyline points="515.875,516.5 524.0,516.75 543.5,515.375"/>
    <polyline points="544.75,515.25 558.125,514.5 568.375,513.5 574.375,512.5 580.375,511.0"/>
    <polyline points="581.75,510.5 585.875,508.875 588.25,507.375 591.125,504.5 591.75,503.25 592.375,500.625 592.0,497.5 590.375,493.75 588.875,491.75 584.5,487.375 577.75,482.75 573.5,480.5 568.625,478.25 563.25,476.25 550.625,473.0"/>
    <polyline points="543.625,472.0 536.375,471.5 529.125,471.625 521.75,472.375 514.625,473.75 507.875,475.75 501.625,478.25 496.0,481.375 491.0,484.75 486.75,488.625 483.125,492.5 480.125,496.5 477.875,500.375 475.0,507.875 473.875,514.25 474.0,519.5 474.375,521.625 475.625,525.0 476.5,526.375 477.25,527.375 479.0,528.75"/>
    <polyline points="479.875,529.25 483.375,529.625 484.875,529.25 487.625,527.75 489.625,525.875 490.75,524.375 491.75,522.5 492.25,520.625"/>
    <polyline points="492.25,520.25 492.125,517.875 491.0,515.75 488.75,513.625 486.0,512.0"/>
    <polyline points="485.5,511.75 478.25,508.5 464.875,503.5"/>
    <polyline points="463.75,503.0 450.875,497.25 442.0,492.125 437.375,488.875 434.25,486.25 428.125,480.0"/>
    <polyline points="426.75,478.25 422.5,471.75 420.125,466.75 418.25,460.75 417.0,454.0 416.5,446.125 417.25,437.0 419.375,426.75 421.125,421.25 426.25,409.5 429.75,403.375 433.875,397.25 438.625,391.125 444.0,385.375 450.0,379.875 456.625,375.0 463.875,370.875"/>
    <polyline points="471.5,367.75 479.375,365.75 487.375,365.0 495.25,365.625 503.0,367.5 510.5,370.875 517.375,375.375 523.625,381.0 529.25,387.5 534.125,394.625 538.25,402.125 541.75,410.0 544.5,417.75 546.75,425.5 549.625,440.0 551.0,453.0 551.125,464.125 550.75,473.375 548.625,487.25"/>
    <polyline points="548.125,489.875 545.25,499.5 541.875,508.0 541.375,510.125 541.375,511.25 541.875,512.625"/>
    <polyline points="542.125,512.875 543.625,514.125 547.0,515.5 552.875,516.75 557.5,517.375"/>
    <polyline points="558.5,517.5 571.0,518.5 580.375,518.75 593.125,518.375 597.125,518.0"/>
    <polyline points="599.125,517.75 605.375,516.75 611.625,515.125 615.625,513.625 619.375,511.625 622.5,508.875 623.875,507.125 624.875,505.25 625.5,503.0 625.75,500.5 625.5,497.625 624.5,494.375 622.75,490.75 620.125,486.75 616.25,482.25 611.125,477.375 604.5,472.125 596.25,466.75 586.25,461.375"/>
    <polyline points="574.375,456.25 561.0,451.875 546.125,448.5 530.25,446.625 514.125,446.625 498.375,448.625 483.625,452.75 470.5,458.75 459.125,466.375 450.0,475.125 442.75,484.375 437.5,493.875 433.75,503.125 431.375,511.875 430.0,519.875 429.5,527.0 429.625,533.375 430.125,538.75 430.875,543.375 432.875,550.25 435.125,554.75 438.125,557.75"/>
    <polyline points="439.0,558.125 441.125,557.75 442.0,556.625 442.5,555.25 442.375,552.0 441.375,549.375 439.625,546.875 438.125,545.375 436.25,543.875 431.625,541.375"/>
    <polyline points="430.25,540.75 424.125,538.875 418.75,537.75 410.375,536.875 403.25,536.75 392.375,537.5 386.25,538.375 376.375,540.625 369.125,543.0"/>
    <polyline points="365.375,544.5 357.375,548.375 348.75,553.5 339.625,560.625 334.875,565.125 329.875,570.25 324.875,576.25 319.875,583.25 314.75,591.375 309.75,600.75 304.875,611.5 300.375,623.875 296.375,637.875 293.25,653.625 291.375,670.75 291.25,689.125 293.375,708.0 298.375,726.5 306.75,743.125 318.625,756.5 334.125,765.0 352.5,767.5 373.0,763.375"/>
    <polyline points="394.375,753.0 415.375,737.25 435.0,717.75 452.75,696.125 468.125,673.875 481.125,652.125 492.0,631.625 500.75,613.0 507.75,596.25 513.25,581.625 517.625,568.875 523.375,548.5 525.25,540.625 527.5,528.25 528.625,516.625 528.125,510.25 527.875,508.875 526.875,506.5"/>
    <polyline points="526.5,506.125 525.625,505.75 525.5,506.5 527.0,508.125 530.25,509.5 533.75,510.0"/>
    <polyline points="534.625,510.125 541.5,510.25 545.375,510.0 553.125,508.875 557.75,507.625"/>
    <polyline points="558.625,507.375 561.0,506.375 563.75,504.625 565.5,502.5 565.75,500.5 565.125,498.375 563.125,496.125 559.75,493.75 556.625,492.25"/>
    <polyline points="554.75,491.625 548.5,490.0 543.625,489.5 538.625,489.375 530.875,490.375 523.875,492.5 519.75,494.5 516.375,496.875 513.625,499.375 511.75,502.0 510.625,504.375 510.0,506.625"/>
    <polyline points="510.0,507.75 510.0,508.75 510.875,511.25 512.5,513.125 515.5,514.75 521.125,515.75 529.625,515.75"/>
    <polyline points="530.75,515.625 554.25,514.125 562.625,513.25"/>
    <polyline points="564.0,513.125 569.75,512.25 576.875,510.5 580.875,509.0 585.375,506.25 587.125,504.375 588.375,500.875 588.125,498.125 586.75,494.875"/>
    <polyline points="585.625,493.0 584.0,491.125 579.375,487.125 576.25,485.125 568.625,481.125 564.0,479.25 558.875,477.625 547.25,475.125 541.0,474.5 534.5,474.25 528.0,474.625 521.625,475.375 515.375,476.75 504.0,481.0 499.125,483.75 494.625,486.875 490.875,490.125 487.75,493.625 485.125,497.125 483.0,500.5 480.375,507.125"/>
    <polyline points="479.625,510.0 479.125,515.25 479.375,517.5 480.25,521.125 482.375,524.75 485.0,526.625 487.625,527.25 491.0,526.75 495.75,524.25"/>
    <polyline points="496.25,523.875 498.25,522.25 500.625,519.625 502.125,517.375 502.75,515.75"/>
    <polyline points="502.75,515.5 502.875,514.875 502.375,513.375 500.25,511.75"/>
    <polyline points="500.0,511.625 496.5,510.25 490.75,508.625"/>
    <polyline points="490.125,508.5 475.875,504.5 471.125,502.875"/>
    <polyline points="470.125,502.625 458.5,498.125 453.25,495.625 444.875,490.75 440.375,487.625 437.5,485.125"/>
    <polyline points="436.0,483.875 431.625,479.25 428.875,475.625 426.375,471.5 424.125,466.75 422.25,461.25 421.0,455.0 420.625,451.5 420.625,443.75 421.625,435.125 424.125,425.375 426.125,420.25 428.5,414.875 431.375,409.375 434.75,403.875 438.75,398.375"/>
    <polyline points="443.375,393.0 448.5,388.0 454.125,383.375 460.375,379.25 466.875,376.0 473.875,373.5 481.0,372.125 488.125,371.75 495.25,372.625 502.125,374.625 508.75,377.75 514.875,381.875 520.5,387.0 525.5,392.875 529.875,399.125 533.625,406.0 536.875,412.875 539.5,419.875 543.125,433.625 545.25,446.25 546.0,457.5 546.0,467.0"/>
    <polyline points="545.75,471.25 545.0,478.625 542.875,489.625 540.625,497.0 536.625,506.625 535.875,509.125"/>
    <polyline points="535.875,509.5 536.0,511.25 537.25,513.0 539.375,514.125 543.125,515.25"/>
    <polyline points="543.75,515.375 554.375,517.0 568.875,518.0"/>
    <polyline points="570.375,518.0 583.375,518.125 596.625,517.125 602.625,516.125 608.625,514.5 614.375,512.0 616.125,510.875"/>
    <polyline points="617.625,509.625 619.125,508.25 620.25,506.625 621.25,504.75 621.875,502.625 622.0,500.125 621.625,497.375 620.75,494.375 619.0,490.875 616.5,487.0 612.875,482.875 608.0,478.25 601.875,473.5 594.125,468.5 584.875,463.5 573.875,458.875 561.5,454.75 547.75,451.625 533.25,449.75 518.25,449.5 503.5,451.0 489.5,454.375 476.875,459.625 465.75,466.25 456.625,474.125 449.375,482.5"/>
    <polyline points="443.75,491.25 439.75,499.875 437.0,508.125 435.375,515.875 434.625,522.75 434.5,528.875 434.75,534.25 435.375,538.875 437.25,545.875 438.25,548.375 440.375,551.875 442.375,553.625 444.625,554.125 446.25,552.875 447.0,550.75 447.0,549.25"/>
    <polyline points="446.875,548.375 446.0,545.75 443.75,542.5 441.25,540.125 438.125,538.0 432.875,535.5 428.25,533.875 419.0,531.75"/>
    <polyline points="416.875,531.375 405.125,529.875 397.0,529.5 388.0,529.5 381.5,529.875 367.0,531.75 359.0,533.625 350.25,536.25 341.0,540.125 330.875,545.75"/>
    <polyline points="325.5,549.375 319.875,553.625 314.125,558.75 308.125,565.0 301.875,572.375 295.625,581.125 289.125,591.75 282.625,604.25 276.375,619.25 270.5,636.75 265.625,657.25 262.125,680.5 261.0,706.375 263.125,734.0 269.875,761.5 282.125,786.375 300.5,805.375 324.625,815.5 353.25,814.5 384.0,802.25 414.5,780.25 442.625,751.75 467.0,719.875 487.0,687.625 502.875,657.0 515.0,629.125"/>
    <polyline points="524.0,604.625 530.25,583.375 534.25,565.375 536.5,550.25 537.25,537.625 536.875,527.125 535.5,518.625 533.375,511.875 530.75,506.375 527.625,502.25 524.125,499.125 520.5,496.875 516.875,495.625 513.25,495.0 509.75,495.0 506.5,495.5 503.5,496.5 500.875,497.75 496.5,501.125 494.75,503.0 492.5,506.75 491.75,508.625 491.0,512.125"/>
    <polyline points="491.0,513.75 491.5,516.5 492.625,518.625 494.0,520.25 496.5,521.75 499.375,522.375 502.125,522.375 505.875,521.875 511.125,520.5"/>
    <polyline points="512.0,520.25 521.375,517.75 526.75,516.875 531.5,516.5"/>
    <polyline points="532.25,516.5 546.25,516.375 558.0,516.75"/>
    <polyline points="559.375,516.75 574.25,516.625 586.375,515.625 595.5,513.875 600.75,512.125"/>
    <polyline points="602.5,511.375 607.0,508.375 608.25,507.125 610.125,504.125 610.875,500.375 610.75,498.125 610.125,495.625 608.875,492.875 607.0,489.875 604.375,486.625 600.875,483.125 596.375,479.375 590.875,475.625 584.125,471.75 576.25,468.0 567.25,464.5 557.25,461.625 546.25,459.375 534.75,458.125 522.875,458.0 511.25,459.125 500.0,461.625"/>
    <polyline points="489.625,465.375 480.375,470.125 472.375,475.875 465.625,482.125 460.375,488.875 456.25,495.625 453.25,502.125 451.25,508.375 449.875,514.25 449.25,519.5 449.125,524.125 449.375,528.25 450.625,534.75 452.375,539.125 453.375,540.625 455.25,542.625 457.0,543.5 458.5,543.5 460.25,542.375"/>
    <polyline points="460.625,541.875 461.375,539.75 461.5,537.5 460.25,533.5 458.75,531.25 455.875,528.25 452.125,525.5 448.625,523.5"/>
    <polyline points="447.375,522.875 438.75,518.875 410.25,508.0 397.375,502.0"/>
    <polyline points="394.625,500.5 389.125,497.25 383.5,493.375 375.125,485.75 369.75,479.125 367.25,475.125 365.0,470.75 362.875,465.625 361.0,459.875 359.625,453.375 358.75,445.875 358.375,437.25 358.875,427.375 360.5,416.125 363.25,403.375 367.75,389.0 374.125,373.0 382.75,355.5 394.25,336.875 408.625,317.75 426.25,299.125"/>
    <polyline points="447.0,282.625 470.125,269.875 494.875,262.625 519.875,262.25 543.75,269.125 565.0,283.0 583.0,302.375 597.375,325.375 608.0,350.0 615.625,374.875 620.625,398.375 623.5,420.0 625.0,439.25 625.375,456.0 624.875,470.375 623.75,482.5 622.25,492.625 620.5,501.0 618.5,507.875 616.375,513.375 614.0,517.75 611.625,521.25 609.25,523.875 606.75,525.875 604.25,527.375 601.75,528.375"/>
    <polyline points="599.375,529.0 596.875,529.25 592.25,529.125 590.0,528.875 583.75,527.375 576.875,524.875 564.625,519.5"/>
    <polyline points="564.375,519.5 564.0,519.25 576.5,521.375"/>
    <polyline points="577.625,521.5 594.125,522.875 603.875,523.25 612.75,523.25 625.0,522.5"/>
    <polyline points="627.625,522.25 635.625,520.875 641.0,519.5 646.125,517.375 648.625,516.0 652.875,512.5 654.625,510.25 656.0,507.5 656.875,504.25 656.875,500.5 656.125,496.0 654.125,490.75 650.625,484.5 645.125,477.375 637.375,469.375 626.625,460.5 612.625,451.125 595.0,441.625 573.875,432.875 549.375,425.875 522.875,421.875"/>
    <polyline points="495.75,421.75 469.875,426.25 447.0,435.125 427.875,447.75 413.25,463.0 402.75,479.5 395.75,496.125 391.5,512.0 389.375,526.75 388.625,540.0 389.0,551.5 389.875,561.5 391.25,570.0 392.875,577.0 394.625,582.875 396.5,587.75 398.5,591.5 400.5,594.5 402.375,596.75 404.375,598.375 408.25,600.0 412.0,599.875 415.625,598.625"/>
    <polyline points="417.375,597.625 422.125,593.625 426.25,588.625 428.5,585.125 431.25,579.875 433.75,573.125 434.625,568.625 434.75,564.5 433.75,559.75"/>
    <polyline points="433.375,558.75 431.625,556.0 429.125,553.625 424.875,551.25 419.25,549.625 414.375,549.0 408.75,549.0 402.375,549.625 397.75,550.5"/>
    <polyline points="395.25,551.125 387.25,553.75 378.625,557.75 375.5,559.5 365.75,566.5 362.375,569.375 355.5,576.5 352.0,580.75 345.0,590.75 338.375,603.25 335.375,610.625 332.625,618.5 330.25,627.25 328.5,636.625 327.5,646.5 327.25,656.75 328.125,667.125"/>
    <polyline points="330.375,677.375 333.875,687.0 339.125,695.5 345.875,702.375 354.125,707.25 363.875,709.5 374.75,709.0 386.5,705.625 398.5,699.75 410.625,691.375 422.375,681.25 433.375,669.75 443.625,657.5 453.0,645.0 461.375,632.625 468.75,620.625 481.0,598.75 490.25,580.25 507.375,544.375"/>
    <polyline points="509.25,540.5 515.75,529.75 519.875,524.625 523.625,521.25 527.25,519.0 530.75,517.5 534.375,516.375 541.625,515.0"/>
    <polyline points="542.875,514.875 562.625,512.5 569.625,511.25 576.25,509.25"/>
    <polyline points="577.375,508.75 579.75,507.625 582.625,505.375 584.0,503.5 584.875,501.375 584.875,498.875 583.875,496.0 581.625,492.75 580.0,491.0 577.875,489.25 572.375,485.625 565.125,482.25 560.875,480.625 556.125,479.25 545.625,477.25"/>
    <polyline points="539.875,476.875 534.125,476.75 522.625,477.875 511.75,480.875 506.875,483.0 502.5,485.5 498.5,488.125 495.0,491.125 492.125,494.125 487.75,500.25 485.125,506.0 484.375,508.75 483.875,513.5 484.25,517.375 485.25,520.25 486.0,521.5 488.375,523.875"/>
    <polyline points="489.25,524.375 492.0,525.125 496.375,524.75 500.875,523.0 507.25,519.375"/>
    <polyline points="507.75,519.125 512.125,516.625 516.75,515.0"/>
    <polyline points="517.0,515.0 520.625,514.5 525.875,514.625"/>
    <line x1="526.25" x2="541.25" y1="514.625" y2="515.875"/>
    <polyline points="542.0,516.0 558.375,517.125 570.875,517.375"/>
    <polyline points="572.375,517.375 580.625,517.25 587.875,516.75 593.5,516.0 601.25,514.375 606.75,512.375 610.125,510.5 613.0,508.125 615.25,505.0"/>
    <polyline points="615.875,503.125 616.25,501.0 616.125,498.625 615.5,496.0 614.25,493.0 612.375,489.625 609.625,486.0 605.75,482.125 600.875,478.0 594.75,473.625 587.375,469.25 578.5,465.0 568.375,461.0 557.0,457.75 544.625,455.25 531.5,453.875 518.25,454.0 505.25,455.625 492.875,458.875 481.625,463.5 471.75,469.375 463.375,476.125 456.75,483.625 451.5,491.25 447.625,498.875 445.0,506.125"/>
    <polyline points="443.25,513.0 442.375,519.25 442.25,529.75 443.5,537.5 445.25,542.75 447.25,546.125 449.125,547.875 450.875,548.5 452.75,547.875 453.625,546.75 454.25,544.625 453.875,541.375"/>
    <polyline points="453.625,540.5 452.375,538.0 450.5,535.625 448.0,533.375 444.875,531.25 441.25,529.25 437.0,527.375 430.375,524.875 424.625,523.125"/>
    <polyline points="422.625,522.625 411.375,519.625 369.25,509.875 358.0,506.625 346.0,502.5"/>
    <polyline points="342.0,500.875 333.5,496.875 325.125,491.625 320.875,488.375 316.75,484.5 312.75,480.0 309.0,474.75 305.5,468.25 302.5,460.625 300.0,451.25 298.5,439.875 298.25,425.875 299.625,408.875 303.5,388.0 310.625,362.5 322.25,332.125 339.875,296.75 365.125,257.5 399.0,217.125 442.0,180.875 491.875,156.0 544.25,149.625 593.25,165.375 633.75,200.75"/>
    <polyline points="663.5,248.875 683.0,301.75 694.375,352.875 700.0,398.75 701.875,437.875 701.25,470.0 698.625,495.875 694.5,516.375 689.0,532.125 682.125,543.875 673.875,552.125 664.25,557.25 653.625,559.625 642.0,559.625 629.75,557.5 617.375,553.625 605.125,548.375 593.25,542.125 582.0,535.25 571.75,528.125 562.375,521.125 554.0,514.25 540.125,501.875 529.75,491.75"/>
    <polyline points="525.625,487.625 512.25,474.625 509.125,472.375 506.625,471.25 505.625,471.0 503.75,471.125 501.5,472.0 494.875,477.75"/>
    <polyline points="494.25,478.375 490.875,480.875 488.0,482.5 485.75,483.375 481.75,484.375 478.375,484.625 474.875,484.375"/>
    <polyline points="473.875,484.25 468.25,483.0 461.5,479.875 458.5,478.0 455.625,475.625 452.875,472.875 450.375,469.625"/>
    <polyline points="449.5,468.375 446.25,461.125 445.125,455.875 444.875,450.0 445.625,443.375 447.75,436.25 451.5,429.0 456.875,422.125 461.5,418.125"/>
    <polyline points="464.0,416.5 469.375,413.625 472.25,412.75 475.25,412.0 481.25,411.625 484.25,412.0 490.125,413.75 495.5,416.75 498.0,418.75 502.625,423.5 506.375,428.875 508.0,431.75 510.625,437.75 512.5,443.875 513.75,449.75 514.375,455.375"/>
    <polyline points="514.625,458.0 514.625,463.0 514.25,467.625 513.75,471.625 512.5,477.0 511.0,481.375 508.625,486.125 506.75,488.875 503.0,493.0"/>
    <polyline points="502.25,493.5 500.375,495.0 498.375,496.125 493.5,497.875 489.875,498.5 484.375,498.625"/>
    <polyline points="483.5,498.5 478.25,498.0 471.375,496.5 464.75,494.375 457.625,491.25"/>
    <polyline points="456.375,490.625 450.0,486.875 444.75,482.875 442.25,480.5 437.25,474.75 434.0,469.375 432.125,465.125 430.0,457.75 429.25,452.125"/>
    <polyline points="429.25,449.0 429.25,445.75 430.125,438.625 432.0,430.875 435.25,422.625 437.375,418.375 442.875,409.875 450.0,401.75 454.125,398.0 458.625,394.625 463.5,391.75 468.5,389.375 473.875,387.625 479.375,386.625 484.875,386.375 490.25,386.875 495.625,388.25 500.875,390.375 505.75,393.125 510.25,396.75 514.375,400.75"/>
    <polyline points="518.25,405.375 524.5,415.5 529.0,426.25 532.125,437.0 533.875,447.0 534.875,460.25 534.5,471.125 533.375,479.75 532.375,484.375 531.25,488.375 529.0,494.375"/>
    <polyline points="528.5,495.625 526.625,499.625 521.125,508.875"/>
    <polyline points="521.0,509.125 520.625,510.625 521.125,511.75 521.75,512.25 524.25,513.25 530.25,514.375"/>
    <polyline points="530.625,514.5 547.875,516.375 537.625,515.375 531.0,514.375"/>
    <polyline points="548.75,516.5 568.125,517.5 582.75,517.25 579.25,517.5 562.5,517.375 529.5,515.375"/>
    <polyline points="611.5,486.875 614.125,490.5 615.875,493.75 616.875,496.75 617.375,499.375 617.375,501.625 616.875,503.75 616.125,505.625 615.0,507.25 613.75,508.625 610.75,511.0 607.25,512.75 603.5,514.125 595.75,516.0 584.5,517.25 595.875,515.875 605.375,513.375 610.75,510.75 614.875,507.0 616.625,503.5 617.0,501.375 617.0,499.0 616.5,496.25 615.375,493.25 613.5,490.0 610.75,486.375"/>
    <polyline points="607.0,482.375 602.25,478.25 596.125,473.75 588.75,469.375 579.875,465.0 569.625,460.875 558.25,457.375 545.625,454.75 532.375,453.375 518.875,453.375 505.5,454.875 492.875,458.0 481.375,462.625 471.25,468.625 462.75,475.5 455.875,483.125 450.625,490.875 446.625,498.625 443.875,506.125 442.25,513.125 441.25,519.5 441.125,530.125 441.625,534.375 443.25,541.0"/>
    <polyline points="444.125,543.5 446.25,546.875 447.125,547.875 449.0,549.125 450.5,549.25 451.125,549.0 452.5,547.625 453.125,545.5 453.0,543.0 452.5,541.25 451.125,538.75 449.25,536.375"/>
    <polyline points="448.375,535.625 443.5,532.0 439.75,530.0 433.75,527.5 424.75,524.625 406.625,520.375"/>
    <polyline points="404.0,519.875 345.375,509.0 327.375,504.75 317.75,502.0 307.875,498.375"/>
    <polyline points="302.875,496.125 297.75,493.5 292.75,490.5 287.75,486.875 282.875,482.375 278.125,477.0 273.75,470.5 269.875,462.25 266.625,451.875 264.5,438.875 264.0,422.25 265.75,401.25 270.875,374.25 280.875,340.375 298.0,298.25 324.875,248.125 364.375,192.375 418.25,138.125 484.875,97.625 557.125,84.625 624.0,107.125 676.5,160.25 711.625,230.375 731.875,303.375 741.75,369.75 745.125,425.875"/>
    <polyline points="744.375,471.375 740.625,507.375 734.125,535.0 724.625,555.5 712.125,569.875 696.5,578.375 677.875,581.375 657.125,579.375 635.125,572.875 613.25,563.0 592.25,550.5 573.25,536.75 556.625,522.375 542.5,508.25 530.875,495.0 521.5,482.75 514.375,471.875 508.875,462.25 504.875,454.125 502.25,447.125 500.625,441.375 499.75,436.75 499.625,433.0 499.875,430.25 500.625,428.375 501.625,427.25"/>
    <polyline points="502.875,426.75 504.25,426.75 505.625,427.375 508.375,429.875 509.625,431.75 510.875,433.75 513.0,438.5 515.125,446.25 515.625,449.0 516.375,459.375 516.0,466.25 515.375,470.375 513.625,477.5"/>
    <polyline points="513.125,479.0 511.5,483.125 509.625,486.5 505.875,491.5 504.0,493.375 501.375,495.375 497.375,497.375"/>
    <polyline points="496.75,497.625 494.0,498.5 488.875,499.25 481.625,499.0 477.125,498.25"/>
    <polyline points="476.125,498.125 470.125,496.625 462.25,493.875 453.625,489.625 447.125,485.25"/>
    <polyline points="445.75,484.25 443.125,482.0 439.375,478.125 435.75,473.375 433.5,469.625 430.75,463.125 429.0,455.25 428.625,449.125 428.875,442.25 430.25,434.75 431.375,430.75 434.625,422.375"/>
    <polyline points="436.875,418.0 439.375,413.625 442.375,409.375 445.75,405.125 449.625,401.0 453.75,397.25 458.375,393.75 463.25,390.75 468.5,388.375 474.0,386.625 479.5,385.625 485.125,385.25 490.75,385.875 496.125,387.25 501.375,389.5 506.375,392.375 511.0,396.0 515.25,400.25 519.0,405.0 522.375,410.0 525.375,415.375 527.875,420.875 531.625,431.875 534.0,442.375"/>
    <polyline points="534.75,447.375 535.75,460.75 535.5,468.375 534.5,477.75 532.5,487.0 530.875,492.125 528.75,497.25 526.125,502.25"/>
    <polyline points="525.75,502.875 523.25,507.0 522.25,509.0 522.0,510.375 522.375,511.5 523.0,512.125 524.75,513.0 526.75,513.5"/>
    <polyline points="527.125,513.625 532.0,514.625 540.0,515.625"/>
    <polyline points="540.625,515.75 553.5,516.875 567.375,517.5"/>
    <polyline points="568.875,517.5 581.875,517.375 594.875,516.125 598.75,515.375 606.375,513.125 609.875,511.375 613.0,509.125"/>
    <polyline points="614.375,507.875 616.5,504.625 617.25,500.375 617.0,497.875 616.25,495.125 614.875,492.0 612.625,488.5 609.5,484.75 605.375,480.625 600.0,476.375 593.375,471.875 585.375,467.375 575.875,463.125 565.125,459.25 553.125,456.0 540.125,453.875 526.625,453.0 513.125,453.625 500.0,455.875 487.75,459.75 476.75,465.0 467.25,471.375 459.375,478.625 453.25,486.375"/>
    <polyline points="448.5,494.25 445.125,501.875 442.875,509.25 441.5,516.0 440.875,522.125 440.75,527.5 441.0,532.25 441.625,536.25 443.375,542.375 445.375,546.25 446.375,547.5 447.375,548.5 449.125,549.375 451.125,549.0 452.125,548.125 452.375,547.5 452.875,546.0 452.875,544.5"/>
    <polyline points="452.875,543.625 452.125,541.125 451.25,539.375 449.375,537.0 446.0,534.0 441.5,531.25 437.375,529.25 427.375,525.75"/>
    <polyline points="425.5,525.125 407.625,520.875 393.75,518.25 351.125,511.25"/>
    <polyline points="346.875,510.5 338.0,509.0 324.0,506.125 314.125,503.875 303.75,501.0 293.125,497.25 287.625,494.875 282.25,492.0 276.875,488.625 271.5,484.625 266.375,479.625 261.375,473.375 257.0,465.625 253.125,455.75 250.375,443.0 249.125,426.75 250.125,405.5 254.5,378.125 264.0,342.75 281.0,297.75"/>
    <polyline points="308.875,242.875 351.25,180.375 410.75,118.0 485.625,70.875 567.375,56.625 642.125,85.0 698.625,149.0 734.5,230.25 753.75,311.75 762.125,383.75 764.0,443.125 761.625,490.25 755.875,526.75 746.5,554.375 733.125,573.875 715.5,586.0 693.625,591.125 668.5,589.375 641.625,581.625 614.625,569.0 589.125,553.0 566.5,535.125 547.125,516.875 531.5,499.0 519.25,482.5 510.0,467.375"/>
    <polyline points="503.5,454.125 499.25,442.625 496.75,432.875 495.875,424.625 496.25,418.125 497.5,413.0 499.5,409.25 502.0,406.75 504.875,405.375 507.875,405.125 511.0,405.875 514.125,407.5 517.125,409.75 519.875,412.75 522.375,416.25 526.625,424.25 529.75,433.125 531.75,442.0 532.875,450.5 533.125,462.0"/>
    <polyline points="533.0,465.375 531.5,477.0 528.75,487.25 524.75,496.25 520.5,502.625"/>
    <polyline points="520.125,503.125 516.25,507.75 511.75,511.875 510.5,511.875 502.25,510.375"/>
    <line x1="502.0" x2="492.875" y1="510.25" y2="508.375"/>
    <polyline points="492.25,508.25 482.25,505.875 474.625,503.625"/>
    <polyline points="473.75,503.375 459.375,498.125 450.0,493.5 442.875,489.0"/>
    <polyline points="441.375,487.875 435.5,482.875 431.25,478.125 428.625,474.375 425.0,467.75 423.125,462.375 421.75,456.375 421.0,449.5 421.0,445.625 421.875,437.25 424.0,427.875 427.875,417.625"/>
    <polyline points="430.5,412.25 437.25,401.375 441.5,396.125 446.375,391.0 451.75,386.125 457.625,381.875 463.875,378.25 470.5,375.375 477.5,373.5 484.5,372.625 491.625,373.0 498.5,374.375 505.125,376.875 511.375,380.5 517.25,385.125 522.5,390.5 527.125,396.5 531.125,402.875 534.625,409.75 537.5,416.625 539.875,423.5 543.125,436.875 544.75,449.0"/>
    <polyline points="545.25,454.5 545.25,468.875 543.625,482.875 541.375,492.375 538.25,501.0 535.625,507.125"/>
    <polyline points="535.5,507.625 535.0,509.375 535.0,510.5 535.5,511.875 536.375,512.875 539.875,514.5"/>
    <polyline points="540.375,514.625 543.875,515.5 551.0,516.625 561.75,517.625"/>
    <polyline points="563.0,517.625 574.375,518.125 584.5,518.0 595.875,517.125 601.875,516.125 605.875,515.125"/>
    <polyline points="607.875,514.5 613.625,512.125 615.375,511.125 618.375,508.5 620.625,505.125 621.25,503.0 621.625,500.75 621.375,498.0 620.5,495.0 619.0,491.75 616.75,488.0 613.375,483.875 608.875,479.5 603.0,474.75 595.75,469.75 586.875,464.875 576.375,460.125 564.375,455.875 551.125,452.5 536.875,450.375 522.0,449.75 507.375,450.75"/>
    <polyline points="493.25,453.75 480.25,458.5 468.875,464.75 459.375,472.125 451.625,480.375 445.625,489.0 441.25,497.625 438.25,506.0 436.375,513.75 435.375,520.75 435.0,527.125 435.25,532.625 436.5,541.375 438.5,547.375 439.625,549.375 441.625,552.25 443.5,553.5 445.625,553.5 446.625,552.625"/>
    <polyline points="447.0,552.0 447.5,550.625 447.5,549.0 447.0,546.375 445.75,543.875 443.75,541.375 441.125,539.125 437.875,537.125 432.5,534.625 429.375,533.5"/>
    <polyline points="427.625,533.0 416.0,530.375 401.5,528.75 395.875,528.5 380.125,528.75 369.25,529.875 357.25,532.25"/>
    <polyline points="352.875,533.5 343.75,536.5 338.875,538.625 328.625,544.0 317.5,551.875 311.625,557.0 305.5,563.125 299.125,570.5 292.625,579.375 285.875,590.0 279.125,602.75 272.625,618.0 266.5,636.125 261.25,657.25 257.5,681.625 256.125,708.75 258.25,737.75 265.125,766.875 278.0,793.25 297.625,813.375 323.375,823.625 353.875,821.875 386.375,807.875"/>
    <polyline points="418.375,783.75 447.5,753.0 472.375,719.125 492.625,685.25 508.375,653.375 520.125,624.75 528.5,599.75 534.25,578.25 537.5,560.125 539.125,545.0 539.0,532.5 537.75,522.125 535.625,513.875 532.5,507.25 529.0,502.125 524.875,498.25 520.625,495.5 516.25,493.875 511.875,493.0 507.75,492.875 503.75,493.5 500.125,494.625 496.875,496.25 494.0,498.125 489.625,502.5"/>
    <polyline points="488.0,504.75 486.0,509.375 485.125,513.5 485.375,517.0 486.25,519.875 486.875,521.0 489.125,523.375 490.875,524.25 492.75,524.75 494.625,524.875 497.375,524.5 500.75,523.5"/>
    <polyline points="501.5,523.25 512.75,518.0 516.25,516.75"/>
    <polyline points="516.75,516.625 521.375,515.625 529.0,515.375"/>
    <polyline points="549.75,516.625 564.375,517.25 576.625,517.25 585.25,516.75"/>
    <polyline points="587.125,516.5 592.75,515.875 598.375,514.75 605.875,512.25 610.75,509.375 613.25,506.625 614.25,505.0 615.25,501.125 615.25,498.75 614.625,496.125 613.5,493.25 611.625,490.0 609.0,486.5 605.375,482.625 600.625,478.625"/>
    <polyline points="594.75,474.375 587.5,470.125 579.0,465.875 569.125,462.0 558.125,458.625 546.125,456.125 533.375,454.75 520.375,454.625 507.5,456.0 495.25,459.0 484.0,463.375 474.125,468.875 465.75,475.5 458.875,482.625 453.5,490.125 449.5,497.5 446.625,504.75 444.75,511.5 443.75,517.75 443.375,523.375 443.375,528.25 444.5,536.125 446.25,541.625 447.25,543.5"/>
    <polyline points="448.25,545.0 450.125,546.875 451.0,547.375 452.625,547.5 454.25,546.625 455.25,544.75 455.5,542.375 454.75,539.125 452.75,535.75 450.5,533.5"/>
    <polyline points="449.625,532.75 447.75,531.25 443.125,528.5 434.375,524.75 425.25,521.625 407.0,516.625"/>
    <polyline points="404.375,516.0 383.875,510.375 367.0,504.75 359.75,501.75 348.5,495.875 344.75,493.375 337.25,487.25 333.625,483.625 330.0,479.25 326.75,474.125 323.625,468.25 321.0,461.125"/>
    <polyline points="318.75,452.75 317.375,442.75 317.0,430.75 317.875,416.375 320.625,399.125 325.875,378.625 334.375,354.375 347.125,326.5 365.125,295.375 389.375,262.5 420.5,230.625 457.875,203.875 499.625,187.5 542.375,185.875 582.0,200.5 615.125,229.5 640.375,268.125 657.875,311.0 668.75,353.375 674.875,392.25 677.625,426.375 678.0,455.25 676.75,479.0 674.25,498.25 670.75,513.625 666.375,525.5"/>
    <polyline points="661.25,534.625 655.375,541.25 648.75,545.625 641.5,548.25 633.75,549.125 625.75,548.75 617.375,547.25 609.125,544.75 600.875,541.625 592.875,537.875 578.0,529.625 559.375,517.125 535.125,499.25 527.625,494.375 523.75,492.5"/>
    <polyline points="522.125,491.75 519.125,490.875 516.625,490.625 513.25,490.75 509.625,491.75 499.125,496.375"/>
    <polyline points="498.5,496.625 495.0,497.75 489.875,498.625 485.125,498.75 479.125,498.125"/>
    <polyline points="478.25,498.0 471.375,496.5 462.5,493.5 455.125,490.0 450.0,486.875"/>
    <polyline points="448.75,485.875 443.5,481.75 437.25,474.75 434.0,469.375 431.25,462.875 430.0,457.75 429.125,449.0 429.5,442.25 430.875,434.875 432.0,430.875"/>
    <polyline points="433.5,426.75 437.375,418.375 442.875,409.875 446.25,405.625 454.125,398.0 458.625,394.625 463.5,391.75 468.5,389.375 473.875,387.625 479.375,386.5 484.875,386.25 490.375,386.875 495.625,388.125 500.875,390.25 505.75,393.125 510.25,396.625 514.5,400.75 518.25,405.375 521.625,410.375 524.5,415.5 527.0,420.875 530.75,431.625"/>
    <polyline points="532.125,437.0 533.875,447.0 534.75,456.125 534.875,464.25 534.25,474.25 532.875,482.25 530.75,490.0 529.125,494.375 526.125,500.375"/>
    <polyline points="525.75,501.125 521.875,507.375 520.75,509.875 521.0,511.5 522.0,512.375 523.5,513.0"/>
    <polyline points="523.75,513.0 528.25,514.125 533.375,514.875"/>
    <line x1="534.0" x2="554.375" y1="515.0" y2="516.875"/>
    <polyline points="555.5,517.0 567.25,517.5 576.5,517.5 587.0,517.0 594.625,516.0"/>
    <polyline points="596.5,515.75 602.375,514.375 606.125,513.125 611.25,510.375 612.75,509.25 615.375,506.375 616.875,502.75 617.125,500.5 616.875,498.0 616.125,495.25 614.75,492.125 612.625,488.75 609.5,485.0 605.375,480.875 600.125,476.625 593.625,472.125 585.625,467.75 576.375,463.375 565.625,459.5"/>
    <polyline points="553.75,456.375 540.875,454.125 527.5,453.125 514.0,453.625 500.875,455.875 488.5,459.5 477.5,464.75 468.0,471.0 460.125,478.25 453.75,485.875 449.0,493.75 445.5,501.375 443.125,508.75 441.75,515.5 441.125,521.625 441.0,527.0 441.25,531.75 441.875,535.875 442.625,539.25 444.5,544.25 446.5,547.25 448.375,548.875 449.25,549.125"/>
    <polyline points="450.0,549.25 451.875,548.5 452.875,546.625 453.125,544.375 452.375,541.0 451.0,538.5 448.125,535.375 443.0,531.75"/>
    <polyline points="441.875,531.125 434.75,527.875 422.0,523.875 405.625,520.125 388.375,516.875"/>
    <polyline points="385.25,516.375 352.25,510.375 334.875,506.75 320.875,503.0 311.0,499.75 300.875,495.375 290.75,489.375 285.75,485.625 281.0,480.875 276.25,475.125"/>
    <polyline points="272.0,468.125 268.375,459.25 265.375,448.125 263.75,434.125 263.75,416.125 266.5,393.375 273.0,364.25 285.0,327.625 305.0,282.75 335.625,230.25 379.875,173.75 438.5,122.25 508.25,89.0 580.25,87.25 643.375,120.875 690.375,181.625 720.25,254.25 736.625,326.0 744.0,389.5 745.75,442.25 743.875,484.5 739.25,517.625 731.75,542.875 721.25,561.375 707.5,573.625 690.625,580.25"/>
    <polyline points="671.125,581.5 649.625,577.75 627.5,570.0 605.625,559.0 585.25,545.75 566.875,531.5 551.0,517.125 537.75,503.125 527.0,490.125 518.375,478.375 511.875,467.875 507.0,458.75 503.625,450.875 501.375,444.375 500.0,438.875 499.5,434.625 499.625,431.25 500.125,428.875 501.0,427.25 502.125,426.25 503.5,426.0 506.375,427.125 510.5,432.0"/>
    <polyline points="511.625,434.125 514.5,441.75 515.75,447.125 516.5,452.5 516.75,462.625 516.0,469.25 514.875,475.0 513.375,479.75 510.5,486.0"/>
    <polyline points="509.875,487.125 506.75,491.375 502.25,495.375 499.0,497.25 493.625,499.0"/>
    <polyline points="492.875,499.125 488.5,499.625 482.125,499.375 471.75,497.375"/>
    <polyline points="470.75,497.0 464.125,494.875 459.375,492.875 453.0,489.5 449.125,487.125 445.125,484.125 440.0,479.25"/>
    <polyline points="438.625,477.75 436.25,474.625 432.875,469.125 431.0,464.875 429.5,459.875 428.5,454.375 428.25,451.375 428.375,444.75 428.75,441.125 430.25,433.5 431.5,429.375 433.0,425.125 437.25,416.375 443.125,407.625 450.625,399.375"/>
    <polyline points="455.0,395.625 459.875,392.25 464.875,389.375 470.25,387.125 475.75,385.625 481.5,384.75 487.125,384.75 492.75,385.625 498.25,387.375 503.375,389.875 508.375,393.125 512.875,397.0 517.0,401.375 520.75,406.375 523.875,411.625 526.75,417.0 529.125,422.625 531.0,428.125 533.875,439.0 535.5,449.125 536.125,458.25 536.125,466.25"/>
    <polyline points="535.875,469.75 535.25,476.125 532.75,488.0 529.5,496.75 527.25,501.375 524.875,505.375"/>
    <polyline points="524.625,505.875 523.25,508.25 522.875,509.5 522.75,510.125 523.125,511.5 525.375,513.0 530.5,514.25"/>
    <polyline points="607.875,483.0 603.25,478.75 597.25,474.375 590.0,469.875 581.375,465.375 571.25,461.25 559.875,457.625 547.375,454.875 534.125,453.25 520.5,453.0 507.0,454.375 494.125,457.375 482.5,461.875 472.125,467.75 463.375,474.5 456.25,482.125 450.75,489.875 446.625,497.75 443.75,505.375 442.0,512.375 441.0,518.875 440.625,524.75 440.75,529.875 441.125,534.25 442.75,541.0"/>
    <polyline points="443.75,543.5 445.75,547.0 447.625,548.875 448.5,549.375 450.0,549.5 451.75,548.5 452.625,546.5 452.625,543.375 451.375,540.0 448.875,536.75"/>
    <polyline points="448.125,536.0 444.25,533.0 441.875,531.625 433.375,527.875 422.375,524.5 406.125,520.875"/>
    <polyline points="403.5,520.375 375.75,515.625 325.75,508.0 305.375,504.0"/>
    <polyline points="300.0,502.75 283.125,498.0 271.625,493.25 265.75,490.25 260.0,486.5 254.375,481.875 249.0,476.125 244.0,468.75 239.5,459.375 236.0,447.25 234.0,431.25 234.125,410.375 237.75,382.625 246.5,346.25 263.25,298.875 291.625,239.5 336.5,169.875 401.5,98.625 485.375,43.75 577.5,27.75 660.5,62.625 721.125,138.375 757.5,231.375"/>
    <polyline points="775.625,321.5 782.375,398.875 782.75,461.25 778.75,509.875 770.375,547.0 757.125,574.125 738.375,592.0 713.875,600.75 684.375,600.625 651.875,592.375 619.0,577.25 588.125,557.5 561.125,535.125 538.75,512.25 521.375,490.125 508.375,469.625 499.625,451.125 494.125,435.0 491.5,421.125 491.25,409.375 492.875,399.875 495.875,392.5 499.875,387.125 504.75,383.625 510.0,382.125 515.5,382.25"/>
    <polyline points="520.875,384.0 526.0,387.125 530.875,391.5 535.125,396.75 538.875,402.875 542.125,409.375 544.875,416.125 547.0,423.0 548.625,429.875 549.875,436.625 551.25,449.0 551.25,464.875 550.375,473.5 548.5,483.625 547.125,488.875 544.375,496.625"/>
    <polyline points="543.75,498.125 538.75,508.25 538.375,509.625 538.375,511.375 539.25,512.75"/>
    <polyline points="539.5,513.0 542.375,514.625 546.5,515.75 558.0,517.5 573.625,519.0 586.75,519.25"/>
    <polyline points="555.75,517.125 563.75,517.875 575.125,518.375 583.5,518.375 592.75,517.875"/>
    <polyline points="594.75,517.75 598.75,517.25 606.875,515.625 611.0,514.375 616.625,511.75 618.375,510.5 621.25,507.625 623.125,503.875 623.5,501.5 623.5,498.875 622.875,495.875 621.5,492.5 619.375,488.75 616.125,484.625 611.75,480.125 606.125,475.25 598.875,470.125"/>
    <polyline points="590.125,465.0 579.625,460.0 567.5,455.375 553.875,451.625 539.125,449.125 523.875,448.125 508.5,449.0 493.625,451.75 480.0,456.5 468.0,462.875 457.875,470.5 449.75,479.125 443.5,488.125 438.875,497.125 435.75,505.75 433.75,513.875 432.75,521.25 432.375,527.875 432.625,533.75 433.125,538.625 435.0,546.25 437.125,551.25 439.125,554.125"/>
    <polyline points="440.125,555.0 441.875,555.75 442.625,555.75 443.875,555.125 444.875,553.375 445.125,551.875 444.875,549.375 444.25,547.625 442.0,544.25 439.5,542.0 436.375,539.875"/>
    <polyline points="435.25,539.25 432.625,538.0 424.75,535.5 419.125,534.25 410.5,533.125 400.5,532.625 395.0,532.75 385.875,533.375 379.125,534.25"/>
    <polyline points="375.625,534.875 368.25,536.625 360.375,539.0 351.875,542.5 347.375,544.75 342.625,547.375 332.75,554.125 327.625,558.5 322.25,563.625 316.625,569.625 311.0,576.75 305.25,585.25 299.375,595.125 293.625,606.75 288.25,620.25 283.25,636.0 279.0,654.0 276.25,674.125 275.375,696.125 277.25,719.375 282.75,742.5 292.5,763.5"/>
    <polyline points="307.0,780.375 326.375,790.75 349.5,792.75 375.0,785.75 401.125,770.625 426.125,749.125 448.875,723.625 468.5,696.375 484.875,669.375 498.0,643.875 508.375,620.75 516.375,600.25 522.25,582.375 526.5,567.0 529.375,554.0 531.25,543.0 532.125,533.875 532.25,526.25 531.875,520.0 531.0,515.0 529.75,510.875 528.25,507.625 526.625,505.125 524.875,503.25 521.125,501.125"/>
    <polyline points="519.375,500.625 516.0,500.625 513.125,501.625 510.125,504.0 508.5,506.875 508.25,509.625 509.125,512.0 511.375,514.25 513.75,515.375 515.5,515.75"/>
    <polyline points="516.5,516.0 523.5,516.375 544.25,515.0"/>
    <polyline points="545.5,515.0 561.75,513.75 569.0,512.875 574.875,511.75 580.625,510.0"/>
    <polyline points="582.0,509.5 584.5,508.25 587.75,505.875 589.25,503.75 590.125,501.375 590.125,498.5 588.875,495.125 586.125,491.375 584.125,489.375 578.5,485.0 570.75,480.75 566.0,478.75 560.625,476.875 554.875,475.375 548.625,474.125 542.0,473.375"/>
    <polyline points="535.25,473.0 528.375,473.25 521.5,474.0 514.875,475.375 508.625,477.375 502.75,479.875 497.5,482.75 492.875,486.0 488.875,489.5 485.5,493.25 482.75,496.875 480.625,500.625 479.0,504.125 477.125,510.625 476.75,516.125 477.25,520.5 478.5,523.75 480.0,526.0 481.75,527.375 482.75,527.75"/>
    <polyline points="483.625,528.125 487.0,528.125 489.25,527.375 491.875,525.875 495.125,522.75 496.875,519.875"/>
    <polyline points="497.0,519.5 497.5,517.75 497.375,516.0 496.25,514.0 494.75,512.75"/>
    <polyline points="494.375,512.5 488.5,509.75 481.5,507.375"/>
    <polyline points="480.75,507.125 466.875,502.5 454.75,497.25"/>
    <polyline points="453.375,496.625 444.75,491.875 438.875,487.625 434.375,483.75 429.875,478.875 427.125,475.125 423.375,468.375 421.375,463.0 419.875,456.875"/>
    <polyline points="419.375,453.375 419.125,449.75 419.375,441.5 420.75,432.25 422.0,427.25 423.75,422.0 428.75,411.0 432.0,405.25 435.875,399.5 440.375,393.875 445.375,388.5 451.0,383.375 457.25,378.875 463.875,375.0 471.0,372.125 478.375,370.125 485.75,369.375 493.25,369.75 500.5,371.5 507.5,374.375 514.0,378.375 520.0,383.375 525.375,389.125"/>
    <polyline points="530.125,395.625 534.25,402.625 537.75,409.75 542.875,424.375 544.625,431.375 545.875,438.25 547.5,450.75 547.875,466.5 546.875,478.5 545.25,487.5 543.5,494.0 540.875,501.375"/>
    <polyline points="540.375,502.375 537.875,509.25 537.875,511.125 538.25,512.0 539.375,513.25 540.125,513.625"/>
    <polyline points="540.5,513.875 543.25,515.0 546.375,515.75 559.0,517.375"/>
    <polyline points="560.125,517.5 572.125,518.25 581.875,518.375 591.0,518.0 600.875,516.75"/>
    <polyline points="603.0,516.375 611.0,514.25 614.875,512.5 618.375,510.25 619.875,508.875 622.125,505.5 622.875,503.375 623.25,501.0 623.125,498.375 622.375,495.375 620.875,491.875 618.5,488.125 615.125,483.875 610.625,479.375 604.75,474.5 597.25,469.375 588.25,464.25 577.5,459.375 565.125,454.875 551.375,451.375"/>
    <polyline points="536.625,449.125 521.375,448.375 506.125,449.5 491.625,452.625 478.25,457.625 466.625,464.125 456.875,472.0 449.125,480.5 443.125,489.5 438.75,498.375 435.75,507.0 434.0,515.0 433.125,522.25 432.875,528.625 433.125,534.25 434.5,543.125 436.5,549.125 438.75,552.875 440.75,554.75 441.625,555.25 443.125,555.375"/>
    <polyline points="443.75,555.125 444.75,554.25 445.25,553.0 445.5,550.625 444.875,548.0 443.625,545.5 440.75,542.25 438.875,540.875 435.5,538.875 431.375,537.0"/>
    <polyline points="429.875,536.5 425.0,535.0 415.25,533.125 408.375,532.375 398.0,532.0 392.125,532.125 379.375,533.375 372.25,534.625 364.625,536.625"/>
    <polyline points="360.5,537.875 352.0,541.125 347.5,543.125 342.875,545.625 332.875,552.125 327.75,556.25 322.25,561.125 316.75,566.875 311.0,573.75 305.125,581.875 299.125,591.375 293.25,602.75 287.5,615.875 282.25,631.25 277.625,649.0 274.25,669.125 272.75,691.375 273.75,715.125 278.25,739.125 287.0,761.75 300.75,780.625 319.625,793.25 342.625,797.375 368.625,792.25"/>
    <polyline points="395.75,778.25 421.875,757.0 445.875,731.25 466.625,703.25 483.875,675.125 497.875,648.625 508.875,624.375 517.125,602.875 523.375,584.125 527.75,568.0 530.625,554.375 532.375,543.0 533.125,533.375 533.0,525.5 532.375,519.125 531.25,513.875 529.75,509.625 528.0,506.375 526.0,503.75 521.75,500.625 519.625,499.875 517.5,499.625 513.625,499.875 512.0,500.375"/>
    <polyline points="510.5,501.125 508.0,503.0 506.25,505.25 505.125,508.5 505.25,511.5 506.5,513.875 508.5,515.5 512.75,517.0 516.75,517.375"/>
    <polyline points="517.75,517.375 522.875,517.25 545.875,515.5"/>
    <polyline points="547.125,515.375 559.25,514.75 571.25,513.625 575.875,512.875 583.5,510.875"/>
    <polyline points="585.0,510.375 587.75,509.125 591.375,506.75 593.875,503.5 594.25,502.125 594.5,499.125 593.5,495.5 592.375,493.5 588.75,489.0 586.125,486.625 579.0,481.75 574.375,479.25 569.125,477.0 563.25,474.75 556.75,472.875 549.75,471.375 542.375,470.375"/>
    <polyline points="534.625,470.0 526.75,470.125 519.0,471.125 511.625,472.75 504.5,475.0 498.0,477.875 492.25,481.375 487.25,485.125 482.875,489.25 479.375,493.5 476.625,497.75 474.375,502.0 471.75,509.75 471.25,513.125 471.0,519.125 472.5,525.5 474.0,528.25 476.625,530.5 477.625,530.75"/>
    <polyline points="478.5,531.0 480.125,531.0 482.375,530.375 485.25,528.125 486.75,526.0 487.625,523.875 487.875,522.375 487.75,520.5"/>
    <polyline points="487.625,520.0 486.75,517.875 484.25,515.125 482.25,513.625 476.25,510.5"/>
    <polyline points="475.375,510.125 455.0,501.5 446.5,497.25"/>
    <polyline points="445.0,496.375 437.125,491.5 432.25,487.75 427.375,483.125 424.25,479.5 421.25,475.375 417.25,467.75 416.125,464.875 414.375,458.25 413.375,450.625 413.125,446.375 413.25,441.75"/>
    <polyline points="413.75,436.875 414.625,431.5 416.0,425.875 420.25,413.75 423.25,407.25 427.0,400.625 431.375,394.0 436.5,387.375 442.375,381.0 449.0,375.0 456.25,369.625 464.125,365.25 472.5,361.875 481.125,359.875 489.875,359.25 498.5,360.25 506.875,362.75 514.875,366.75 522.125,372.0 528.75,378.5 534.5,385.875 539.5,393.875 543.625,402.25 547.0,410.875 549.75,419.375"/>
    <polyline points="551.875,427.625 553.375,435.5 555.125,450.0 555.5,462.375 555.125,472.625 553.625,484.5 552.375,490.5 549.375,500.625 546.25,508.75"/>
    <polyline points="546.125,509.375 545.75,510.375 545.75,512.125 546.125,513.125 546.875,514.0 548.875,515.25 553.75,516.625"/>
    <polyline points="588.5,519.25 598.375,518.75 611.125,516.875 617.5,514.875 623.375,511.875 626.625,508.875 627.875,507.125 628.875,505.0 629.5,502.625 629.625,499.875 629.125,496.75 627.875,493.125"/>
    <polyline points="625.75,489.125 622.5,484.625 618.0,479.75 612.0,474.25 604.25,468.625 594.75,462.75 583.125,457.0 569.625,451.75 554.5,447.375 538.0,444.5 520.75,443.375 503.5,444.5 487.125,448.0 472.25,453.625 459.25,461.25 448.625,470.25 440.375,480.125 434.125,490.375 429.75,500.5 426.875,510.125 425.25,519.0 424.5,527.0 424.5,534.125 425.75,545.375 426.75,549.625"/>
    <polyline points="427.875,553.125 429.0,556.0 431.375,559.875 432.375,561.0 433.375,561.875 435.25,562.5 436.625,562.125 437.875,560.5 438.375,559.0 438.25,556.5 436.875,553.0 434.25,549.875"/>
    <polyline points="433.5,549.125 429.25,546.625 425.25,545.125 419.0,543.75 411.375,543.0 407.0,543.0 399.875,543.625 394.625,544.375 386.125,546.5"/>
    <polyline points="383.0,547.5 376.625,549.875 373.25,551.5 369.75,553.25 362.5,557.625 358.625,560.375 350.75,567.0 342.5,575.75 334.125,587.125 330.0,594.0 325.875,601.875 322.125,610.625 318.5,620.375 315.5,631.25 313.125,643.25 311.625,656.0 311.25,669.625 312.5,683.5 315.5,697.125 320.625,709.875 328.125,720.875"/>
    <polyline points="338.0,729.125 350.0,734.125 363.875,735.0 379.125,731.625 395.0,724.125 410.75,713.125 426.0,699.5 440.0,684.0 452.75,667.625 464.0,651.25 473.75,635.25 482.125,620.125 489.25,606.125 500.375,582.125 504.625,572.125 519.5,534.125 524.625,522.5"/>
    <polyline points="525.75,520.625 528.5,516.5 531.125,514.0 533.75,512.5 539.0,510.875 548.125,509.375"/>
    <polyline points="549.125,509.25 556.375,507.5 558.75,506.625 561.5,505.125 563.125,503.75 563.875,502.625 564.25,501.5 564.0,499.625"/>
    <polyline points="563.75,498.875 561.25,496.0 557.875,493.875 554.875,492.625 551.25,491.625 544.875,490.5 538.0,490.375 533.25,491.0 528.75,492.0 524.5,493.5 520.875,495.375"/>
    <polyline points="519.25,496.375 516.5,498.625 513.625,502.125 512.25,505.5 512.0,507.375 512.625,510.0 514.0,511.875 515.25,512.875 517.5,514.0 521.125,514.75"/>
    <polyline points="522.125,514.875 524.125,515.125 531.625,515.125 551.0,513.875"/>
    <polyline points="552.25,513.75 566.0,512.125 572.875,510.625 576.875,509.25 580.375,507.5 582.375,506.125 584.0,504.375"/>
  </g>
</svg>
