<?xml version="1.0" encoding="utf-8" ?>
<svg xmlns="http://www.w3.org/2000/svg" xmlns:cc="http://creativecommons.org/ns" xmlns:dc="http://purl.org/dc/elements/1.1/" xmlns:ev="http://www.w3.org/2001/xml-events" xmlns:inkscape="http://www.inkscape.org/namespaces/inkscape" xmlns:rdf="http://www.w3.org/1999/02/22-rdf-syntax-ns" xmlns:sodipodi="http://sodipodi.sourceforge.net/DTD/sodipodi-0.dtd" xmlns:xlink="http://www.w3.org/1999/xlink" baseProfile="tiny" height="27.09333333cm" version="1.2" viewBox="0 0 1024.0 1024.0" width="27.09333333cm">
  <metadata>
    <rdf:RDF>
      <cc:Work>
        <dc:format>image/svg+xml</dc:format>
        <dc:source>vpype read './original_svgs/Strange Attractors #109.svg' linemerge linesimplify write './Strange Attractors #109.svg'
</dc:source>
        <dc:date>2024-08-05T01:35:26.884961</dc:date>
      </cc:Work>
    </rdf:RDF>
  </metadata>
  <defs/>
  <g fill="none" id="layer1" inkscape:groupmode="layer" inkscape:label="1" stroke="black" stroke-width="0.7mm" style="display:inline">
    <polyline points="235.625,536.625 247.125,514.0 255.75,494.625 262.0,478.25 272.875,445.875 275.625,440.125 278.75,436.375 282.375,434.625 286.625,434.625 291.625,436.0 297.375,438.625 310.5,446.625 340.25,467.0 362.25,481.125 375.875,489.0 388.5,495.375"/>
    <polyline points="394.375,498.125 405.25,502.625 415.25,506.125 424.25,508.75 436.25,511.375 443.25,512.5 458.25,514.0 465.625,514.25 477.75,514.0"/>
    <polyline points="479.5,514.0 496.375,512.25 506.125,510.0"/>
    <polyline points="506.75,509.75 512.875,507.25 516.375,505.25 522.125,501.25"/>
    <polyline points="522.875,500.75 545.25,483.625 565.0,469.375"/>
    <polyline points="568.875,466.625 587.75,453.75 613.25,437.25 636.5,423.375 653.0,414.375 661.125,410.375 676.25,404.25 682.625,402.375 688.0,401.625 692.25,402.0 695.0,403.625 696.25,406.5 696.125,410.5 694.5,415.75 691.625,421.75 687.625,428.5"/>
    <polyline points="682.625,435.625 677.0,443.125 664.375,457.875 651.0,471.625 638.0,483.5 625.875,493.375 620.125,497.5 614.75,501.25 604.625,507.25 600.0,509.75 591.5,513.625 587.5,515.25 577.0,518.625 570.75,520.0 562.625,521.25"/>
    <polyline points="560.125,521.5 551.375,522.0 542.375,522.0 523.25,521.0"/>
    <polyline points="522.375,521.0 510.75,520.5 502.625,519.5"/>
    <polyline points="501.625,519.25 494.875,517.5 488.625,515.25 474.625,508.875 455.0,498.125 429.375,482.5"/>
    <polyline points="420.875,477.125 389.0,456.375 312.75,405.125 279.25,383.25 264.25,374.125 251.875,367.25 242.875,363.5 237.875,363.25 237.125,366.75 240.5,373.875 247.375,383.875 257.0,396.25 268.375,409.875 293.375,438.25 317.75,464.25 339.25,485.75"/>
    <polyline points="348.625,494.5 357.25,502.25 372.125,514.375 384.5,522.875 394.875,528.625 399.375,530.625 407.625,533.625 411.25,534.5 414.75,535.25 423.875,536.125 431.75,535.875 436.25,535.375 445.75,533.625"/>
    <polyline points="447.5,533.25 463.75,528.875 462.75,529.75 461.75,530.125 452.5,535.875 418.75,557.5 377.375,585.375"/>
    <polyline points="461.5,530.5 438.375,544.75 417.375,558.5 307.375,632.875"/>
    <polyline points="294.125,641.375 282.125,648.75 271.875,654.375 264.125,657.625 259.375,658.25 257.875,656.0 259.625,650.875 264.25,643.125 271.25,633.375 280.0,622.125 290.0,610.0 311.125,585.375 331.5,562.875 349.5,544.0 357.5,536.0 371.375,522.875 388.0,509.25 400.625,500.875"/>
    <polyline points="404.25,499.0 410.5,496.25 416.0,494.375 420.75,493.25 428.375,492.375 442.75,492.75"/>
    <polyline points="443.0,492.75 443.375,492.375 442.625,491.375 438.75,488.75 418.375,476.625"/>
    <polyline points="415.75,475.0 386.5,457.75 365.75,446.25 358.0,442.75 356.0,442.125 353.5,441.875 353.0,442.25 352.875,442.875 354.125,445.25"/>
    <polyline points="355.375,446.875 357.0,448.75 364.25,455.5 370.375,460.5 380.875,468.25 392.0,475.5 409.875,485.5 419.875,490.125 434.375,495.75"/>
    <polyline points="437.0,496.625 444.125,499.0 456.0,502.25 473.5,506.25"/>
    <polyline points="474.125,506.375 476.375,506.875 467.875,503.125"/>
    <polyline points="466.625,502.5 453.625,495.875 429.875,482.25 388.125,456.5 355.625,436.0"/>
    <polyline points="347.0,430.625 330.5,420.75 316.25,413.0 310.625,410.375 306.25,408.75 303.25,408.375 301.875,409.375 302.0,411.5 303.625,414.75 306.625,419.125 310.75,424.25 322.0,436.375 335.5,449.5 349.875,462.25 357.125,468.125 371.125,478.75 384.125,487.5 390.25,491.375 396.125,494.625"/>
    <polyline points="401.75,497.625 412.25,502.5 421.625,506.25 430.125,509.0 441.375,511.75 451.125,513.375 462.125,514.375 475.125,514.5 480.375,514.25"/>
    <polyline points="482.0,514.125 490.5,513.25 497.125,512.125 502.5,510.75 507.75,509.0"/>
    <polyline points="508.375,508.75 516.5,504.5 527.25,496.625"/>
    <polyline points="528.375,495.875 548.75,480.375 573.0,463.0 588.75,452.25 608.75,439.25"/>
    <polyline points="616.375,434.375 632.875,424.375 650.625,414.25 668.25,405.375 676.625,401.75 684.125,399.125 690.75,397.5 696.125,397.125 700.0,398.125 702.25,400.625 702.75,404.375 701.75,409.5 699.125,415.75 695.25,422.875 690.125,430.625 684.25,438.75 677.75,446.875 663.75,462.75 649.625,476.875 642.75,483.25 636.125,488.875"/>
    <polyline points="629.875,494.0 623.875,498.625 612.75,506.125 602.875,511.75 590.0,517.625 582.5,520.125 569.875,522.875 562.0,523.75 555.125,524.125 545.625,524.0"/>
    <line x1="543.875" x2="516.375" y1="523.875" y2="522.125"/>
    <polyline points="515.625,522.125 506.375,521.25 500.125,519.875 494.75,518.25 487.625,515.5"/>
    <polyline points="485.375,514.5 474.375,509.25 457.875,500.125 439.5,489.125 423.125,478.75 390.125,457.125 290.25,389.75 272.375,378.125 256.125,368.125 242.875,360.625"/>
    <polyline points="233.375,356.75 228.5,356.875 228.375,361.25 232.75,369.625 241.0,381.25 251.875,395.125 278.0,425.875 304.625,455.5 328.125,480.5 347.75,500.0 356.125,507.75 370.375,519.875 376.5,524.375 382.125,528.25 391.875,533.75 400.0,537.25 403.625,538.375 410.25,539.75"/>
    <polyline points="413.25,540.125 418.875,540.375 428.25,539.625 439.375,537.375 453.5,533.5"/>
    <polyline points="454.0,533.375 455.25,533.25 455.375,533.5 447.5,539.0 419.25,557.0 338.375,612.125 296.875,639.75 284.375,647.5 273.375,653.75 264.875,657.75 259.25,659.125 256.875,657.625 257.875,653.125 261.875,645.875 268.375,636.5 276.875,625.375 297.25,600.75 328.75,565.25"/>
    <polyline points="414.0,560.5 349.875,603.25 319.375,623.0 301.625,633.375 294.625,636.75 289.375,638.625 286.125,638.75 285.0,637.0 286.0,633.375 289.0,628.125 293.625,621.5 299.75,613.75 307.0,605.25 314.875,596.375 331.75,578.5"/>
    <polyline points="340.125,570.0 356.25,554.625 371.0,541.625 384.125,531.375 395.625,523.375 400.875,520.125 414.5,512.875 418.5,511.125 425.875,508.5 432.25,506.625 438.0,505.375 445.375,504.375 451.5,504.0"/>
    <polyline points="453.375,504.0 460.875,504.125 472.125,505.25 471.125,504.5 466.375,502.375 452.25,495.125 434.375,485.0"/>
    <polyline points="430.5,482.625 411.25,471.0 363.375,441.125 333.0,422.875 326.375,419.25 315.75,414.25 312.0,413.125 309.625,413.0 308.5,414.0 308.75,416.125 310.375,419.125 317.125,427.875"/>
    <polyline points="321.875,433.125 333.375,444.75 353.125,462.25 373.125,477.5 385.5,485.75 397.125,492.625 407.75,498.0 417.375,502.25 430.25,506.75 437.875,508.875 451.125,511.5"/>
    <polyline points="454.0,511.875 462.0,512.75 471.0,513.25 484.75,513.125 496.5,512.125"/>
    <polyline points="497.375,512.0 506.375,510.25 513.375,507.625"/>
    <polyline points="513.875,507.375 519.375,504.0 529.125,496.625"/>
    <polyline points="530.125,495.875 543.375,485.625 557.25,475.5 574.875,463.125 594.875,449.75"/>
    <polyline points="600.875,445.875 620.875,433.375 635.875,424.75 643.5,420.5 658.75,413.0 666.0,409.875 672.625,407.5 678.5,405.875 683.375,405.25 687.125,405.75 689.75,407.25 690.875,410.0 690.75,413.75 689.375,418.375 686.75,423.875 683.125,430.125 678.625,436.625 673.375,443.5 667.625,450.375 661.625,457.25 649.125,470.125"/>
    <polyline points="642.875,476.0 630.75,486.375 619.375,495.0 614.125,498.625 604.25,504.625 595.25,509.25 591.125,511.125 580.0,515.25 570.5,517.75 559.875,519.5 549.125,520.25"/>
    <polyline points="547.25,520.25 540.5,520.375 518.375,519.625"/>
    <polyline points="517.625,519.625 507.375,519.25 499.375,518.0"/>
    <polyline points="498.375,517.75 493.875,516.625 484.5,513.125 469.0,505.625 447.0,493.25 418.5,475.5"/>
    <polyline points="409.25,469.5 361.0,437.75 314.625,406.625 283.125,386.375 269.25,378.0 257.75,371.75 249.375,368.25 244.625,368.0 243.75,371.25 246.625,377.625 252.875,386.875 261.625,398.125 272.25,410.875 295.875,437.375 307.875,450.125 330.25,472.875 340.375,482.75 349.75,491.375"/>
    <polyline points="358.375,498.875 373.5,510.75 386.25,519.25 391.75,522.5 397.0,525.125 406.125,529.0 417.75,532.0 427.375,533.125 432.875,533.125 438.0,532.75 444.5,532.0 452.0,530.5"/>
    <polyline points="453.625,530.125 464.75,527.125 470.75,525.125 470.125,525.5 471.125,524.875 455.75,530.375"/>
    <polyline points="299.625,639.75 412.5,561.625 448.625,538.0 462.375,529.625 469.625,525.75 454.25,534.5 438.125,544.625 418.625,557.5 363.375,595.375 314.375,629.625"/>
    <polyline points="296.5,641.875 262.75,664.0 248.875,672.125 238.625,677.0 232.5,678.0 231.25,674.625 234.375,667.125 241.5,656.0 251.625,642.125 263.625,626.625 302.125,579.0 350.125,521.125 367.375,501.375 375.625,492.875 382.25,487.0"/>
    <polyline points="385.0,484.75 389.875,481.625 394.0,479.75 397.625,478.875 400.875,478.5 404.0,478.5 408.125,479.125 415.375,481.125 421.125,483.125 407.875,478.75 403.75,477.875 400.75,477.625 397.625,477.75 394.125,478.375 390.25,479.875 385.875,482.375"/>
    <polyline points="423.875,481.375 427.25,483.75 428.0,484.5 427.875,484.875 425.375,484.5 422.0,483.375 425.75,484.5 427.5,484.625 427.625,484.375 427.0,483.625 423.125,480.875 409.25,472.5 398.375,466.25 383.875,458.5"/>
    <polyline points="422.375,480.5 401.25,467.875 390.125,461.75 383.5,458.5"/>
    <polyline points="382.125,457.875 377.875,456.25 376.75,456.25 376.5,456.5 376.625,457.25 377.5,458.5 383.0,463.375 389.75,468.375 400.0,474.75"/>
    <polyline points="402.125,476.0 408.625,479.625 422.625,486.25 432.625,490.25 442.875,493.625"/>
    <polyline points="443.75,493.75 446.125,494.375 447.5,494.25 447.125,493.625 444.625,491.875 436.625,487.125"/>
    <polyline points="435.0,486.125 371.125,448.5 363.5,444.25 353.875,439.625"/>
    <polyline points="351.375,438.75 349.5,438.125 348.0,438.0 347.125,438.125 346.75,438.75 347.0,439.875 349.0,443.0 353.125,447.5 358.75,452.875 365.625,458.625 377.375,467.5 389.625,475.75 405.625,484.875 413.125,488.5"/>
    <polyline points="416.625,490.25 429.875,495.625 443.75,500.25 458.875,504.125 471.875,507.0 456.25,503.75 442.5,500.125 431.125,496.375 414.375,489.375"/>
    <polyline points="473.0,507.0 483.25,509.375 478.625,508.0 469.75,504.25 460.0,499.375 448.5,493.125"/>
    <polyline points="445.0,491.125 415.625,473.5 349.25,431.375 320.625,413.875 304.875,405.25 298.875,402.625 294.5,401.25 291.875,401.5 291.125,403.25 292.25,406.5 295.125,411.125"/>
    <polyline points="299.5,416.875 311.75,430.75 334.75,453.375 342.875,460.625 358.5,473.75 373.25,484.75 386.75,493.625 392.875,497.25 404.375,503.375 409.75,505.75 419.5,509.625 428.25,512.375 439.75,515.0 446.5,516.0"/>
    <polyline points="449.625,516.25 458.125,516.875 471.875,516.625 479.25,515.875 485.5,514.875 492.0,513.625 495.375,512.625"/>
    <polyline points="496.375,512.375 501.375,510.625 507.5,507.875 512.5,504.875 519.25,500.125"/>
    <polyline points="520.375,499.375 531.625,490.625 560.375,469.125 582.125,453.75 605.0,438.125"/>
    <polyline points="614.125,432.125 634.625,419.0 657.75,405.125 669.75,398.25 681.75,392.0 693.375,386.5 704.0,382.125 713.375,379.5 720.75,378.75 725.875,380.125 728.5,383.75 728.5,389.625 726.0,397.5 721.375,406.875 715.125,417.5 707.375,428.625 698.875,440.0 689.875,451.125 671.875,471.75 654.875,489.125 639.875,502.75"/>
    <polyline points="633.125,508.375 621.0,517.25 610.625,523.5 601.625,527.75 593.75,530.625 586.75,532.375 583.5,532.875 572.25,533.75 565.125,533.5 551.625,532.0"/>
    <polyline points="550.0,531.75 533.0,529.5 521.5,528.625"/>
    <polyline points="520.625,528.625 511.875,527.625 502.5,525.25 496.875,523.125 489.25,519.75 478.625,514.375"/>
    <polyline points="474.25,511.875 463.25,505.625 448.875,496.75 429.75,484.5 404.0,467.375 348.875,429.25 245.875,357.125 220.625,340.375 199.625,327.5 185.25,320.625 178.875,321.125 181.0,329.25 190.5,344.375 205.375,364.375 260.875,434.125"/>
    <polyline points="277.75,455.5 316.5,506.25 349.0,550.625 356.0,559.0 358.875,561.875 364.0,565.375 366.5,566.375 371.125,566.875 373.625,566.625 378.5,565.375 381.0,564.375 389.0,560.75 394.5,557.875"/>
    <polyline points="397.25,556.375 416.5,546.5 426.625,541.75 440.125,536.125 454.25,531.0"/>
    <polyline points="281.75,651.875 264.875,662.75 250.25,671.625 239.0,677.375 231.875,679.25 229.625,676.75 232.0,669.875 238.5,659.25 248.25,645.75 273.125,613.875 322.0,553.625 354.75,514.0 370.125,496.625 377.5,489.25 383.375,484.25"/>
    <polyline points="382.375,457.875 377.75,456.0 376.375,455.875 375.875,456.25 376.625,457.75 381.75,462.625 390.5,469.0 398.875,474.25"/>
    <polyline points="401.125,475.5 412.0,481.375 422.0,486.125 432.25,490.25 443.125,493.75"/>
    <polyline points="444.0,494.0 447.0,494.75 448.25,494.625 447.75,493.875 445.875,492.5 438.375,488.125"/>
    <polyline points="436.875,487.25 377.875,452.25 365.5,445.25 355.0,439.875"/>
    <polyline points="352.125,438.625 347.875,437.25 346.5,437.25 345.75,437.625 345.625,438.375 346.875,441.125 350.375,445.25 355.75,450.5 362.375,456.375 370.0,462.5 378.25,468.5 386.5,474.0 398.875,481.5 410.625,487.625"/>
    <polyline points="473.0,507.25 481.25,508.875 484.375,509.875"/>
    <polyline points="484.125,509.75 481.125,509.0 473.875,506.125 467.75,503.375 456.5,497.5"/>
    <polyline points="453.625,496.0 434.375,484.875 411.625,471.0 331.875,420.375 313.375,409.5 305.5,405.125 298.875,402.0 293.75,400.25 290.625,400.0 289.25,401.375"/>
    <polyline points="289.875,404.25 292.375,408.625 301.875,420.875 315.75,435.75 331.75,451.375 339.875,458.75 348.0,465.875 363.625,478.5 371.0,484.0 384.75,493.25 391.0,497.125 402.75,503.375 408.125,505.875 418.0,509.875 431.0,513.875 438.625,515.375"/>
    <polyline points="442.125,516.0 454.5,517.25 464.625,517.375 476.75,516.5 487.625,514.75 492.625,513.5"/>
    <polyline points="493.75,513.25 499.0,511.5 505.375,508.75 510.625,505.75 517.25,501.125"/>
    <polyline points="518.25,500.375 542.625,481.75 561.0,468.125 599.875,440.875"/>
    <polyline points="608.875,434.875 629.5,421.375 653.125,406.75 678.625,392.25 691.25,385.75 703.25,380.5 713.875,376.625 722.75,374.75 729.375,375.0 733.375,377.875 734.5,383.25 732.875,390.875 728.75,400.375 722.625,411.25 714.875,423.0 706.0,435.125 696.625,447.125 687.125,458.625 677.625,469.5 659.875,488.375 644.125,503.25"/>
    <polyline points="637.125,509.25 630.625,514.375 619.125,522.5 614.0,525.5 604.875,530.125 596.875,533.0 586.625,535.375 577.875,536.0 572.75,536.0 566.0,535.5 554.5,533.875"/>
    <polyline points="552.75,533.625 540.125,531.625 531.375,530.625 524.0,530.25"/>
    <polyline points="523.125,530.125 514.75,529.5 509.0,528.375 502.875,526.625 496.75,524.25 484.75,518.5"/>
    <polyline points="480.75,516.375 458.0,503.125 429.625,484.875 401.875,466.25 364.25,440.25 257.0,364.25 227.5,343.875 200.875,326.25 180.125,314.0 167.75,309.5 165.125,313.75 171.75,326.75 185.875,346.625 204.5,371.0 245.5,423.25"/>
    <polyline points="264.25,447.75 280.75,469.75 306.375,506.0 323.25,532.25 341.25,562.5 344.0,566.75 346.375,569.875 348.625,572.25 350.75,573.75 353.0,574.75 355.25,575.0 357.625,574.875 360.125,574.25 362.875,573.25 368.75,570.375 385.375,560.5"/>
    <polyline points="389.0,558.375 410.125,546.5 423.125,540.125 432.25,536.125 443.0,531.875 460.625,525.875"/>
    <polyline points="462.5,525.25 475.125,521.25 481.25,519.0 486.25,516.875 492.0,513.75"/>
    <polyline points="492.75,513.25 496.0,510.875 500.875,506.125 511.75,493.875"/>
    <polyline points="513.375,492.25 523.25,482.875 536.875,471.125 561.75,451.125 589.75,429.5 633.125,397.125 662.625,375.625 698.375,350.25 740.375,321.5 787.125,290.875 835.0,262.375 877.75,241.625 907.5,235.25 918.125,247.625 908.75,278.625 884.5,322.75 853.0,372.875"/>
    <polyline points="821.375,422.375 794.125,467.5 773.125,506.875 758.625,539.875 749.75,567.375 745.5,589.625 744.625,607.375 745.75,620.875 747.75,630.5 750.125,638.625 741.625,626.0 727.25,606.5 718.25,595.0 699.25,571.75 689.875,560.625 672.25,540.75 656.875,524.5 644.0,512.0"/>
    <polyline points="638.375,507.0 628.625,499.125 620.375,493.625 616.75,491.625 610.125,488.75 604.375,487.125 599.125,486.25 590.125,486.25 582.5,487.25 573.0,489.25"/>
    <polyline points="571.625,489.625 558.25,492.25 553.875,492.25 552.25,491.375 552.125,490.125 552.375,489.5 554.75,486.5 559.625,482.125 562.75,479.75"/>
    <polyline points="563.875,478.875 569.25,474.875 580.0,467.625 594.0,459.0 607.375,451.625 618.125,446.75"/>
    <polyline points="620.5,445.875 627.0,444.0 630.125,443.875 632.25,444.5 633.25,446.125 633.25,447.25 631.375,451.875 628.75,455.625 625.125,459.875 618.5,466.5 610.75,472.875 605.375,476.875"/>
    <polyline points="602.625,478.75 600.0,480.625 589.375,486.875 582.0,490.625 577.375,492.625 565.25,497.125 551.5,500.625"/>
    <polyline points="550.375,500.875 541.125,502.0 537.25,501.875 534.875,501.0 534.375,499.75 535.375,497.75 538.0,494.75 541.125,491.875"/>
    <polyline points="542.0,491.25 546.75,487.25 563.0,475.125 582.75,461.75 594.125,454.5"/>
    <polyline points="598.25,452.0 607.125,446.625 621.375,438.625 631.0,433.75 640.375,429.625 644.625,428.0 652.125,426.0 655.125,425.75 657.5,426.0 659.25,426.75 660.5,428.125 660.875,430.0 660.625,432.375 658.125,438.375 656.0,442.0 650.125,449.875 642.875,458.125"/>
    <polyline points="638.875,462.125 634.75,466.25 621.75,477.375 609.0,486.625 597.125,493.875 586.375,499.25 576.875,503.25 565.875,506.75 554.75,509.25"/>
    <polyline points="552.75,509.625 547.375,510.5 537.5,511.5 524.625,512.0"/>
    <polyline points="524.0,512.0 511.875,512.125 508.0,514.125 505.125,515.0 502.625,515.375"/>
    <polyline points="502.25,515.375 498.375,515.375 495.5,515.0 486.75,512.625 475.25,507.875 465.0,502.75 454.25,496.875 434.125,485.0 404.125,466.125 373.0,445.875"/>
    <polyline points="485.375,512.0 479.125,509.625 470.625,505.625 450.25,494.625 428.375,481.5 413.625,472.25 362.75,439.125"/>
    <polyline points="350.25,430.875 310.75,405.375 298.25,397.625 286.875,391.0 277.375,385.875 270.0,382.875 265.375,382.125 263.75,383.875 264.875,388.125 268.75,394.5 274.875,402.75 282.75,412.375 291.875,422.75 301.75,433.375 322.25,454.25 341.75,472.75 359.5,487.875 375.0,499.625 388.5,508.375"/>
    <polyline points="394.5,511.75 405.375,517.0 415.0,520.625 427.25,523.75 434.25,524.75 443.5,525.25 451.375,525.0 460.25,524.0 470.875,521.875"/>
    <polyline points="472.375,521.5 477.875,520.0 486.375,516.75 491.875,513.75 494.625,511.875 495.75,510.75"/>
    <polyline points="496.375,510.25 499.25,507.5 510.125,494.625 517.5,487.125 523.625,481.5"/>
    <polyline points="527.625,477.875 545.75,462.625 580.75,435.0 621.5,404.125 685.0,357.75 727.25,328.125 776.0,295.375 828.125,262.625 877.5,235.875 915.25,222.875 933.125,230.0 927.875,259.0 904.125,304.625 870.625,358.5 836.125,412.875 806.25,462.75 783.5,506.125 768.375,542.75 759.75,572.875 756.625,597.5"/>
    <polyline points="757.0,617.0 759.625,631.75 762.875,641.875 765.5,647.625 766.5,649.0 765.25,646.25 761.375,639.75 755.125,630.25 746.875,618.5 737.125,605.375 726.625,591.5 705.125,564.25 685.375,540.25 668.75,520.875 661.625,513.0 649.5,500.375 639.75,491.5 635.5,488.25 631.75,485.625 624.875,481.875"/>
    <polyline points="621.875,480.75 619.0,479.875 613.5,479.0 608.625,479.125 601.625,480.125 593.125,482.5 576.75,488.25 570.625,490.125"/>
    <polyline points="569.25,490.625 561.0,492.75 555.0,493.75 551.75,493.75 550.0,493.25"/>
    <polyline points="549.875,493.0 549.375,492.25 549.5,491.375 550.875,489.125 555.5,484.625 559.375,481.5"/>
    <polyline points="560.5,480.625 576.375,469.375 590.75,460.25 605.125,452.0 617.25,446.0"/>
    <polyline points="620.125,444.75 625.5,442.75 632.125,441.125 633.875,441.125 636.375,441.75 637.125,442.5 637.5,443.625 637.125,446.375 635.375,450.0 630.5,456.625 620.875,466.5 609.375,475.875"/>
    <polyline points="606.375,478.0 594.75,485.5 586.5,490.0 578.875,493.5 574.125,495.5 565.625,498.5 558.375,500.5 550.875,502.125"/>
    <polyline points="549.625,502.375 538.875,503.75 534.75,503.75 532.25,503.25"/>
    <polyline points="532.0,503.125 531.125,502.25 531.125,501.25 532.5,499.0 534.75,496.625"/>
    <polyline points="535.25,496.125 539.875,492.0 547.375,486.0 569.375,470.125"/>
    <polyline points="572.375,468.125 594.375,453.625 613.375,442.125 629.0,433.625 644.375,426.5 649.0,424.75 657.0,422.75 660.125,422.5 662.625,422.875 664.5,423.875 665.5,425.5 665.75,427.75 665.125,430.5"/>
    <polyline points="663.875,433.875 659.25,441.625 652.625,450.375 648.625,454.875 644.375,459.5 635.375,468.25 621.5,480.0 608.25,489.5 596.0,496.75 585.0,502.0 575.375,505.75 569.625,507.5"/>
    <polyline points="567.0,508.25 557.375,510.5 547.625,512.0 538.625,512.875 528.125,513.25"/>
    <line x1="527.25" x2="515.0" y1="513.25" y2="513.625"/>
    <line x1="514.75" x2="503.375" y1="513.625" y2="515.5"/>
    <polyline points="503.125,515.5 500.125,515.625 496.5,515.25 492.875,514.5 488.0,513.0"/>
    <polyline points="361.0,438.0 308.625,403.875 284.875,389.625 275.5,384.75 268.5,382.0 264.25,381.625 262.875,383.75 264.5,388.375 268.75,395.25 275.25,403.75 283.375,413.625 292.75,424.125 313.125,445.625 333.375,465.375 352.0,482.125 368.5,495.25 382.75,505.25"/>
    <polyline points="389.25,509.25 400.75,515.375 410.875,519.625 419.75,522.375 431.125,524.75 440.75,525.5 451.5,525.25 462.25,523.875 469.25,522.375"/>
    <polyline points="470.75,522.125 478.875,519.75 485.125,517.375 490.0,514.875 494.5,511.625"/>
    <polyline points="495.0,511.125 498.125,508.0 507.75,494.75 511.875,490.0"/>
    <polyline points="513.75,488.0 518.75,482.875 526.375,475.875 546.75,458.625 571.25,438.875 612.125,407.25 679.875,356.75 727.25,322.625 784.25,283.25 847.375,242.125 908.875,207.25 955.625,189.75 975.25,199.75 964.125,238.875 930.25,298.625 887.5,366.0 847.75,431.25 817.0,488.875 797.125,537.75"/>
    <polyline points="787.25,578.125 785.5,611.25 789.25,637.5 796.125,657.25 803.25,670.375 808.5,676.75 810.25,676.0 807.5,668.75 800.25,655.875 789.375,638.875 761.625,598.5 721.125,541.0 676.5,474.75 672.5,469.375 669.0,465.375 665.875,462.375 663.0,460.25 660.125,459.0"/>
    <polyline points="657.25,458.5 654.375,458.625 651.375,459.25 645.125,461.625 638.5,465.25 620.625,476.25 606.25,484.5 589.875,492.625 575.875,498.125"/>
    <polyline points="573.375,499.0 564.25,501.75 553.125,504.25 543.5,505.75 535.75,506.375"/>
    <polyline points="535.0,506.375 531.25,506.5 528.375,506.25 527.125,505.875 526.125,505.125 526.125,504.0 526.875,502.625 531.25,498.25"/>
    <polyline points="531.75,497.75 539.25,491.375 548.25,484.375 565.625,471.875"/>
    <polyline points="568.5,469.875 586.625,457.625 611.125,442.375 628.25,432.625 645.625,424.125 656.125,420.0 660.625,418.75 664.5,418.125 667.75,418.25 670.125,419.0 671.625,420.5 672.25,422.75 672.0,425.625"/>
    <polyline points="670.75,429.125 668.875,433.25 666.125,437.75 658.875,447.5 654.5,452.625 645.125,462.75 640.125,467.625 625.0,480.625 610.625,491.0 597.625,498.875 582.625,505.875 576.125,508.25 570.125,510.0"/>
    <polyline points="567.375,510.75 559.75,512.5 549.25,514.0 542.375,514.625 527.125,515.125"/>
    <polyline points="526.25,515.125 518.875,515.125 512.625,515.5"/>
    <line x1="512.25" x2="503.25" y1="515.5" y2="516.125"/>
    <polyline points="502.875,516.125 498.125,515.875 493.75,515.0 487.5,513.125 481.5,510.75"/>
    <polyline points="479.75,510.0 470.75,505.875 461.75,501.125 444.625,491.375 426.375,480.25 401.75,464.625 329.875,417.375 302.625,400.0"/>
    <polyline points="290.125,392.25 279.0,386.0 270.125,381.625 263.875,379.625 260.5,380.125 260.375,383.25 263.125,389.0 268.375,396.75 284.875,416.75 305.25,438.875 326.25,460.0 336.25,469.5 354.625,485.875 370.75,498.625 378.0,503.75 384.75,508.125 396.75,515.0 402.125,517.625 411.875,521.5"/>
    <polyline points="416.25,522.875 424.375,524.875 431.5,526.0 437.875,526.5 446.25,526.5 459.75,525.0 468.375,523.125 475.25,521.25"/>
    <polyline points="476.5,520.875 479.75,519.75 486.625,516.625 491.125,513.5 493.0,511.25"/>
    <polyline points="493.25,510.875 493.5,509.25 492.875,508.5 491.125,508.375 489.25,508.75 481.875,511.875 475.125,515.5 464.875,521.75 449.125,532.0 424.25,549.125"/>
    <polyline points="406.875,561.375 357.75,597.125 324.125,622.125 184.875,727.125 135.0,764.0 95.0,791.75 73.5,802.125 74.75,790.75 95.75,759.375 128.0,715.0 162.625,665.375 193.25,616.5 216.75,571.625 232.125,532.0 240.125,497.375 242.0,467.5 239.25,442.0 233.75,420.5 227.0,403.25 220.75,390.25 216.375,381.875 215.0,378.375 217.0,379.375"/>
    <polyline points="222.5,384.75 267.625,432.0 306.125,471.125 328.125,492.0 346.5,507.875 361.75,519.5 368.375,523.75 374.5,527.375 385.25,532.625 394.625,535.75 398.875,536.75 406.625,537.875 410.25,538.125 416.875,538.0"/>
    <polyline points="420.0,537.875 431.0,536.375 440.375,534.375 453.25,530.875 465.25,527.0"/>
    <polyline points="466.125,526.75 470.625,525.25 463.5,529.0 454.75,534.25"/>
    <polyline points="451.625,536.125 433.75,547.5 402.875,568.125 301.5,638.375 267.5,661.0 253.0,669.625 241.75,675.5 234.625,677.5 232.0,675.25 234.0,668.875 240.125,658.75 249.375,645.75 260.875,630.75"/>
    <polyline points="273.5,614.75 340.75,533.0 361.25,509.125 371.125,498.5 378.75,491.0 382.0,488.25 384.875,485.875 390.0,482.625 396.125,479.875 399.625,479.125 404.375,479.0"/>
    <polyline points="405.875,479.125 409.875,479.75 424.875,484.25 426.625,484.625 427.375,484.5 426.25,483.125 422.625,480.625 409.0,472.375"/>
    <polyline points="407.375,471.5 394.75,464.25 381.625,457.625 379.375,456.75 377.125,456.375 376.75,457.125 377.5,458.25"/>
    <polyline points="378.125,459.0 382.375,462.875 387.125,466.5 396.875,472.875 409.625,480.125 423.5,486.5"/>
    <polyline points="425.25,487.25 431.75,489.875 441.375,493.125 446.125,494.25 447.0,494.25 447.25,494.0"/>
    <polyline points="447.125,493.75 441.0,489.75 408.0,470.25"/>
    <polyline points="404.5,468.125 385.25,456.625 361.625,443.375 352.75,439.25 350.5,438.5 347.75,438.25 347.25,438.75 347.25,439.625 348.875,442.5 352.5,446.75 357.875,451.875"/>
    <polyline points="361.0,454.625 368.125,460.5 375.875,466.375 384.0,472.0 392.125,477.125 404.0,483.875 411.5,487.75 418.625,491.0 428.5,495.0 437.25,498.125 447.5,501.125"/>
    <polyline points="449.75,501.75 461.375,504.625 480.625,508.625"/>
    <polyline points="481.0,508.75 482.75,509.25 475.5,506.75"/>
    <polyline points="474.5,506.25 470.625,504.625 459.25,499.0 435.75,485.75 407.625,468.5 376.0,448.5"/>
    <polyline points="366.875,442.625 328.625,418.625 311.5,408.75 304.375,405.125 298.625,402.75 294.625,401.75 292.375,402.125 292.0,404.125 293.375,407.625 296.375,412.375 301.0,418.25 306.75,424.875 320.75,439.625 336.375,454.5 352.25,468.25 359.875,474.5 367.375,480.125 381.25,489.875"/>
    <polyline points="387.75,494.0 399.75,500.75 405.375,503.5 415.5,507.875 428.875,512.25 440.375,514.875 455.875,516.625 465.875,516.75 476.125,516.125"/>
    <polyline points="477.875,515.875 485.75,514.75 493.375,513.25 499.625,511.375 506.75,508.25"/>
    <polyline points="507.625,507.875 517.25,501.875 537.125,486.625"/>
    <polyline points="539.5,484.875 573.125,460.25 600.5,441.375 628.5,423.125 650.625,409.625 662.25,402.875 685.75,390.625 696.625,385.75 706.625,382.125 714.875,380.375 721.25,380.5"/>
    <polyline points="725.25,382.75 726.75,387.375 725.75,393.875 722.5,402.125 717.25,411.875 710.5,422.375 702.625,433.375 694.125,444.5 685.25,455.25 667.5,474.875 659.125,483.5 643.625,498.125 636.625,504.125 624.0,513.75 613.125,520.75 603.625,525.625 595.375,528.875 588.125,531.0 584.75,531.625"/>
    <polyline points="581.625,532.125 573.125,532.875 561.375,532.5 535.125,529.375"/>
    <polyline points="534.0,529.25 517.625,527.875 509.5,526.625"/>
    <polyline points="508.25,526.375 502.625,524.875 497.125,522.875 487.0,518.375 475.875,512.625 459.75,503.25 444.625,493.875 412.125,472.625 381.25,451.75 362.5,438.625"/>
    <polyline points="341.125,423.875 265.875,371.125 240.125,353.625 216.875,338.5 198.5,327.875 186.875,323.375 183.25,326.25 187.5,336.25 198.375,352.25 213.75,372.5 284.0,460.0 298.25,478.125 348.625,543.625 356.875,553.375 360.25,556.75"/>
    <polyline points="363.375,559.375 366.125,561.375 368.625,562.75 371.125,563.625 376.0,564.25 380.75,563.625 385.625,562.125 390.5,560.125 425.25,543.25"/>
    <polyline points="427.5,542.375 443.125,535.875 462.375,529.125"/>
    <polyline points="462.875,529.0 464.0,528.75 463.25,529.5 443.5,541.5 425.5,553.125"/>
    <polyline points="338.25,555.0 355.25,537.5 369.5,523.75 381.25,513.625 391.0,506.125 402.875,498.875 412.0,494.875 417.125,493.375 421.625,492.5 427.125,491.875 433.0,491.875"/>
    <polyline points="434.25,492.0 441.25,492.375 442.0,492.25 442.375,491.875 441.25,490.625 436.875,487.75"/>
    <polyline points="435.875,487.125 383.75,456.25 370.125,448.75"/>
    <polyline points="367.125,447.25 361.75,444.625 357.75,443.125 356.25,442.75 355.125,442.75 354.5,443.125 354.625,444.625 355.375,445.875 358.125,449.125 364.875,455.5 370.75,460.375 384.375,470.25 398.75,479.125"/>
    <polyline points="402.25,481.125 409.125,484.75 419.0,489.375 430.625,494.125 447.25,499.625 462.125,503.375"/>
    <polyline points="463.375,503.75 474.625,506.125 473.75,505.625"/>
    <polyline points="473.25,505.5 463.375,500.875 451.375,494.625 435.5,485.625 422.25,477.625"/>
    <polyline points="417.125,474.5 344.875,429.5 329.375,420.375 316.375,413.5 311.375,411.375 307.625,410.375 305.375,410.5 304.5,411.75 305.125,414.25 307.125,417.75 310.375,422.125 320.0,433.125 332.5,445.5"/>
    <polyline points="339.25,451.75 353.25,463.875 367.125,474.75 380.25,483.875 386.5,487.875 392.5,491.5 403.625,497.5 418.5,504.125 431.375,508.375 439.0,510.375 445.875,511.75 457.625,513.375 460.25,513.5"/>
    <polyline points="462.875,513.75 469.625,514.0 482.5,513.75 493.0,512.75 499.875,511.5"/>
    <polyline points="500.75,511.375 508.75,509.0 513.0,507.0 517.25,504.5"/>
    <line x1="517.875" x2="545.5" y1="504.125" y2="483.375"/>
    <polyline points="547.75,481.75 562.0,471.375 583.625,456.375 608.125,440.375 630.875,426.375 647.5,417.125 664.0,408.75 671.875,405.375 679.0,402.875 685.25,401.25 690.375,400.75"/>
    <polyline points="694.25,401.5 696.625,403.5 697.5,406.875 696.875,411.375 694.875,416.875 691.5,423.25 687.125,430.25 681.875,437.625 675.875,445.25 662.875,460.125 649.5,473.75 642.875,479.875 630.25,490.625 618.625,499.25 608.125,505.875 598.75,511.0 590.375,514.75 582.875,517.375"/>
    <polyline points="579.375,518.5 570.0,520.625 559.5,522.0 552.875,522.375 543.625,522.375 530.0,521.75"/>
    <line x1="529.0" x2="508.125" y1="521.625" y2="520.5"/>
    <polyline points="507.25,520.375 502.875,519.75 497.625,518.5 490.5,516.125 477.5,510.375 463.75,503.125"/>
    <polyline points="459.375,500.625 442.75,490.875 409.75,470.0 373.25,445.875 291.375,390.875 274.875,380.375 260.25,371.5 248.25,365.125 240.0,362.0 235.875,362.625 236.0,367.0 240.25,374.875 248.0,385.75 258.25,398.625 270.125,412.75"/>
    <polyline points="282.75,427.25 308.125,454.875 319.875,467.375 330.875,478.5 350.25,497.125 358.625,504.5 373.125,516.25 379.5,520.75 390.5,527.5 399.75,531.875 403.875,533.375 407.75,534.625 417.875,536.5 426.375,536.75 433.5,536.25"/>
    <polyline points="435.75,535.875 446.75,533.75 459.875,530.125 462.25,529.75"/>
    <polyline points="366.5,592.875 316.0,626.875 291.25,642.625 280.75,648.625 272.25,652.75 266.375,654.5 263.5,653.75 263.5,650.25 266.5,644.125 271.875,636.0 288.25,615.0 298.0,603.5 318.375,580.375 337.75,559.625 354.875,542.25 369.5,528.5 376.0,522.875"/>
    <polyline points="381.875,518.125 392.25,510.375 401.0,504.875 408.5,501.0 414.875,498.5 423.0,496.125 429.5,495.125 433.125,494.875 444.5,495.125"/>
    <polyline points="445.25,495.25 448.25,495.25 448.625,494.75 445.875,492.5 436.25,486.75"/>
    <polyline points="434.375,485.75 387.875,458.0 366.625,445.75 358.875,441.625 349.875,437.625"/>
    <polyline points="347.75,437.0 345.25,436.875 344.875,437.625 345.0,438.625 345.75,440.125 349.0,444.125 357.25,452.25 372.375,464.5 385.0,473.25 397.5,481.0 405.625,485.375 416.875,490.75"/>
    <polyline points="420.375,492.375 433.375,497.375 444.5,500.875 457.875,504.25 474.25,507.5"/>
    <polyline points="475.25,507.75 484.25,509.625 485.25,510.0 485.0,510.125"/>
    <polyline points="484.75,510.125 479.125,508.375 473.75,506.125 467.25,503.125 455.375,497.0"/>
    <polyline points="452.375,495.25 441.25,489.0 421.125,476.875 392.75,459.125 335.625,422.625 307.75,406.125 300.375,402.375 294.625,400.0 290.5,399.0 288.375,399.75 288.25,402.0"/>
    <polyline points="290.0,405.875 293.5,411.125 298.5,417.5 311.875,432.375 319.625,440.25 336.0,455.875 344.25,463.25 352.375,470.125 367.75,482.125 375.0,487.375 388.375,496.0 394.5,499.625 405.875,505.375 416.0,509.625 425.125,512.75 440.625,516.25"/>
    <polyline points="444.0,516.625 450.25,517.375 458.625,517.75 470.125,517.375 485.5,515.25 493.125,513.375"/>
    <polyline points="494.25,513.125 504.875,508.875 511.125,505.25 518.0,500.25"/>
    <polyline points="519.25,499.375 543.375,480.75 563.0,466.25 596.125,443.0 614.75,430.5"/>
    <polyline points="625.5,423.5 649.375,408.375 675.625,393.0 688.875,386.0 701.625,379.875 713.375,375.125 723.375,372.375 731.125,371.875 736.25,374.0 738.375,378.625 737.5,385.875 733.875,395.375 728.0,406.375 720.25,418.5 711.375,431.125 701.75,443.75 691.875,455.875 682.0,467.375 672.625,477.875 663.625,487.375 647.375,503.125 633.5,515.0"/>
    <polyline points="627.375,519.625 621.75,523.625 611.75,529.5 603.125,533.375 595.625,535.75 592.125,536.5 583.0,537.625 577.625,537.625 568.125,537.0 553.25,534.625"/>
    <polyline points="551.75,534.25 533.25,531.625 524.125,531.125"/>
    <polyline points="523.25,531.125 515.0,530.5 510.375,529.625 504.375,528.0 495.875,524.625 482.5,517.875"/>
    <polyline points="477.875,515.375 466.5,508.75 451.125,499.25 416.875,476.75 361.5,438.375 246.75,356.75 215.5,335.125 188.0,316.875 167.375,305.125 156.5,302.25 156.375,309.25 166.0,325.5 183.0,348.625 246.875,431.375 265.625,456.625"/>
    <polyline points="281.5,479.125 294.625,498.75 305.25,515.5 313.5,529.625 320.0,541.5 336.375,574.75 338.25,577.625 340.25,579.5 342.25,580.625 344.5,581.0 349.5,579.875 352.5,578.625 362.625,572.625 386.75,557.0"/>
    <polyline points="390.875,554.375 407.125,545.125 418.5,539.375 425.625,536.125 435.375,532.125 447.0,527.875 467.75,521.625"/>
    <polyline points="469.625,521.125 482.5,517.5 490.0,515.0 496.375,512.375 501.0,509.875"/>
    <polyline points="502.0,509.375 511.625,502.75 540.375,479.75"/>
    <polyline points="544.125,476.875 564.875,461.25 579.875,450.375 599.25,436.5 624.0,419.5 654.75,399.125 672.25,388.0 690.625,376.875 709.5,366.125 727.875,356.625 744.75,349.25 758.875,345.0 769.25,344.75 774.875,349.0 775.5,357.625 771.375,370.375 763.375,386.125 752.625,403.75 740.0,422.25"/>
    <polyline points="726.75,440.375 713.625,457.75 689.5,487.875 679.0,500.5 661.375,520.375 654.0,528.125 647.625,534.5 636.75,544.0 628.125,549.875 624.25,551.75 620.75,553.25 614.375,554.625 608.625,554.875 603.25,554.25 598.25,553.0 591.0,550.625"/>
    <polyline points="588.75,549.75 562.75,539.75 556.25,537.75 545.375,535.125"/>
    <polyline points="544.125,535.0 540.75,534.375 532.875,533.625 521.5,533.625"/>
    <polyline points="520.625,533.625 516.0,533.375 506.75,531.25 502.875,529.875 491.75,524.75 483.5,520.375 472.25,513.875 446.75,497.75"/>
    <polyline points="434.75,489.875 403.5,468.625 359.0,437.25 223.625,339.5 186.625,313.5 155.25,292.625 134.0,281.125 126.375,282.25 132.5,296.25 149.75,321.0 199.75,386.75 224.5,420.375 246.25,451.5 264.0,479.125 277.875,503.125 288.25,523.625 295.625,540.875 300.5,555.25 303.75,567.125 305.75,576.875"/>
  </g>
</svg>
