<?xml version="1.0" encoding="utf-8" ?>
<svg xmlns="http://www.w3.org/2000/svg" xmlns:cc="http://creativecommons.org/ns" xmlns:dc="http://purl.org/dc/elements/1.1/" xmlns:ev="http://www.w3.org/2001/xml-events" xmlns:inkscape="http://www.inkscape.org/namespaces/inkscape" xmlns:rdf="http://www.w3.org/1999/02/22-rdf-syntax-ns" xmlns:sodipodi="http://sodipodi.sourceforge.net/DTD/sodipodi-0.dtd" xmlns:xlink="http://www.w3.org/1999/xlink" baseProfile="tiny" height="27.09333333cm" version="1.2" viewBox="0 0 1024.0 1024.0" width="27.09333333cm">
  <metadata>
    <rdf:RDF>
      <cc:Work>
        <dc:format>image/svg+xml</dc:format>
        <dc:source>vpype read './original_svgs/Strange Attractors #84.svg' linemerge linesimplify write './Strange Attractors #84.svg'
</dc:source>
        <dc:date>2024-08-05T01:35:25.236887</dc:date>
      </cc:Work>
    </rdf:RDF>
  </metadata>
  <defs/>
  <g fill="none" id="layer1" inkscape:groupmode="layer" inkscape:label="1" stroke="black" style="display:inline">
    <polyline points="527.625,762.875 515.3475,772.8699 503.7091,784.0639 490.9974,798.2538 469.1713,825.4452 465.1742,829.3072 463.898,829.9468 463.0026,829.7856 462.5246,828.746 462.4616,827.3429 463.4489,821.8369 465.9823,813.5982 470.1837,802.1748 480.857,776.7802 496.6691,742.8524 511.8694,712.0147 530.6349,675.5251 595.4726,553.6699 606.9253,531.0569 615.4092,513.2425 622.2913,497.0934 626.7961,483.9067 628.2352,478.3001 629.2047,472.9678 629.5755,468.705 629.4318,464.7732 628.6694,461.3038 627.3122,458.558 625.3997,456.4143 623.0241,454.9165 620.2361,454.0097 616.6695,453.6278 612.6228,453.8575 607.7939,454.7433 602.3879,456.3256 596.8072,458.4647 590.4765,461.3764 584.4345,464.5886 572.9487,471.9287 561.6974,480.8392 552.0005,490.1132 543.9908,499.2837 537.0291,509.0536 530.9871,519.6399 526.6126,529.5413 524.351,536.0964 523.0736,540.8886 521.8341,547.1994 521.5156,550.5469 521.5786,555.5738 522.375,558.25 522.8867,558.6538 523.5295,558.6028 525.2611,556.9338 527.4491,553.0943 529.8266,547.5273 534.1468,534.3236 538.8972,515.8273 543.6608,492.9196 547.9032,468.27 551.2544,444.4798 553.8408,420.5957 555.6763,397.8401 556.8298,376.0712 557.3718,353.6569 557.2743,332.3509 556.5694,313.1256 555.2493,294.7917 553.156,275.8067 550.5358,258.1565 547.5209,242.3784 544.0415,227.8486 540.1142,214.5847 535.456,201.7285 530.2124,189.8245 524.5997,179.3576 518.6919,170.3705 512.3382,162.6457 505.6447,156.3726 498.6739,151.5617 494.9236,149.6239 491.1187,148.0934 483.7407,146.3228 479.8358,146.0087 476.2733,146.095 472.7068,146.5398 468.8784,147.4221 461.5219,150.315 454.1091,154.884 448.1311,159.8728 442.1612,166.1545 436.7861,173.0933 431.6516,181.0918 427.0418,189.7564 422.9332,199.0696 419.3256,208.9437 416.1174,219.6683 413.4467,230.8034 411.2495,242.6508 409.7194,254.0822 408.7069,266.2375 408.2635,278.7809 408.3863,291.6507 409.0632,304.7736 410.3029,318.3147 413.2899,338.6694 417.861,360.1832 424.1794,383.3482 431.2506,404.3605 438.3623,422.5098 446.7161,441.8191 474.7601,499.7138 485.5115,522.8689 493.4074,542.563 498.1831,556.7404 501.0468,567.0459 503.5278,578.1356 505.3396,587.6988 506.9298,598.7693 508.6998,619.9079 509.017,645.4669 508.4308,661.1885 507.4918,673.8415 505.8596,690.1697 504.2478,701.8882 501.7795,716.4405 497.8904,735.4637 490.9461,762.3871 485.1292,781.8064 478.8661,800.2427 473.0,816.25 466.0528,833.412 459.0677,848.958 452.935,860.8691 447.8851,868.6336 446.0944,870.5023 444.8568,870.878 444.3226,869.886 444.2746,868.1481 445.4491,862.0131 448.3767,852.3182 453.0657,839.2099 457.9971,826.6968 464.0921,812.3465 479.8587,777.8993 501.1291,734.639 527.5693,684.1787 557.1434,630.0123 611.0556,533.8645 623.4928,510.8303 633.5715,491.3072 643.8534,469.631 647.6761,460.5204 650.5625,452.6888 652.7012,445.6059 654.0897,439.2395 654.6902,433.7915 654.551,429.2083 654.0467,426.5137 653.1172,423.9539 651.8203,421.8278 650.1612,420.0892 648.0295,418.6001 645.5903,417.4877 642.8742,416.7261 639.5257,416.2565 631.629,416.4511 622.4484,418.0587 612.2644,420.8894 600.9464,425.0308 589.0883,430.281 578.0952,435.9856 566.4353,443.0459 556.2712,450.0921 546.8336,457.7492 539.25,464.875 533.056,471.9449 529.7839,476.0736 526.409,481.008 525.671,481.647 528.555,468.2274 530.6975,456.5099 534.1528,433.1694 536.3659,409.7549 537.6373,386.841 537.8362,360.2568 536.9517,337.2613 534.7498,313.9494 531.3661,292.585 526.7872,272.922 524.1678,264.1198 521.3623,256.1185 518.3919,248.9391 514.9778,241.9619 511.475,235.9141 507.7573,230.5494 503.8403,225.9359 499.9858,222.3407 495.6114,219.2856 491.3596,217.2258 486.7039,215.9465 482.3976,215.6604 478.1185,216.2485 473.8889,217.7266 469.7801,220.0562 465.5698,223.4454 461.8461,227.4045 458.1067,232.4578 454.8556,237.9414 451.9996,243.928 449.3797,250.7782 447.1449,258.1281 445.2832,265.9136 443.712,274.5432 442.638,283.0218 441.9549,292.0338 441.6823,301.5497 441.8331,311.5277 442.3759,321.2219 443.367,331.2209 446.412,350.6378 450.7855,370.1967 456.8037,390.749 463.8211,410.4422 473.6197,434.1589 486.262,460.6585 492.8447,473.2974 497.6923,481.7954 502.3719,489.3215 507.4783,496.2543 509.6054,498.4059 511.9389,500.0624 513.9033,500.9407 515.8783,501.1195 517.7713,500.574 519.523,499.3058 521.2438,497.4238 522.9231,494.8585 526.8001,485.8357 530.2236,474.5541 533.1281,461.9407 536.002,445.3624 538.3815,427.7887 540.5319,406.0979 541.6505,388.7897 542.173,370.3981 542.162,351.7836 541.54,334.4218 540.1205,315.4622 538.1643,298.443 536.0891,285.3436 533.6239,273.2626 530.4948,260.8104 527.0958,249.7074 523.5012,240.0019 519.6351,231.3814 515.2414,223.3378 510.4392,216.1406 505.3249,210.0313 500.1979,205.3393 495.125,202.0 489.3108,199.5889 483.4321,198.5329 477.9297,198.7938 472.4998,200.2845 467.1659,203.0469 462.685,206.4355 458.1851,210.9214 453.967,216.271 450.0612,222.4229 446.4984,229.316 443.4272,236.6072 440.7372,244.5264 438.4839,252.8863 436.6623,261.628 435.2166,271.0932 434.2423,280.7632 433.7437,290.5849 433.6966,300.8188 434.1012,311.4291 434.9842,322.747 436.2459,333.6042 439.7082,353.6319 444.8737,375.0239 450.9933,394.9038 459.3428,417.7615 471.8176,446.9128 487.097,478.792 502.2443,508.4835 507.989,518.4505 510.8675,522.561 513.2016,525.2134 515.1936,526.766 517.4468,527.59 519.3194,527.3843 521.3054,526.1836 523.3218,523.9949 525.2558,520.7854 527.2519,516.4184 531.8262,503.2305 536.0386,486.3478 539.9397,466.641 543.3927,444.4205 545.9531,421.8988 547.8664,399.1496 548.8612,379.6686 549.261,357.4916 548.9625,337.6512 547.991,318.8316 546.1125,297.9443 543.6298,278.9743 541.131,264.8092 538.1704,251.6864 534.2869,237.8123 530.0819,225.4978 525.63,214.7786 520.8402,205.3382 515.5865,196.988 509.9725,189.8445 504.0296,183.9273 497.8145,179.3328 491.384,176.1573 484.9534,174.5154 478.2033,174.3187 471.5103,175.6157 468.035,176.8881 464.6059,178.5616 458.2558,182.8306 453.0663,187.5703 448.2587,193.1556 443.8188,199.5445 439.5779,207.0021 435.7547,215.1714 432.2194,224.3622 429.2491,233.8388 426.8597,243.5193 424.9231,253.884 423.5113,264.5017 422.5741,275.6803 422.1358,287.346 422.2153,298.5931 422.8013,310.0935 423.8879,321.8045 425.5154,334.045 428.9007,352.7398 433.3253,371.0224 439.8061,392.618 446.7145,412.1367 452.7985,427.1135 461.4689,447.1102 483.3621,493.2122 494.0594,516.4735 500.86,532.8841 512.9599,564.9106 515.6071,570.2474 518.0179,573.4617 519.902,574.513 521.7501,574.2024 524.0297,572.3338 526.1103,569.3487 528.7027,564.1492 531.1289,558.1408 536.8381,540.1106 542.3956,517.2127 547.9745,489.4328 552.1684,464.0444 555.7676,436.6148 558.282,412.3686 560.0231,388.9413 561.1365,364.3733 561.4707,340.7199 561.029,318.5638 559.7873,296.2687 557.8757,275.3535 555.2804,255.6945 552.2552,238.6244 548.5685,222.4368 544.1893,206.9763 539.2503,192.7696 533.9495,180.2811 528.0342,168.9167 521.875,159.375 514.9555,150.853 507.6006,143.8254 503.6287,140.7907 499.8847,138.3796 495.7543,136.2018 491.8817,134.6026 487.9602,133.4081 483.9978,132.628 480.0029,132.2717 475.6539,132.3659 471.6428,132.8784 467.3155,133.8851 463.3501,135.2234 459.0995,137.1079 455.23,139.2407 451.1105,141.9689 445.5579,146.4465 440.2164,151.715 435.125,157.75 430.3966,164.3834 425.8079,171.9199 421.575,180.0313 417.7102,188.6525 414.0945,198.0892 411.0189,207.548 408.2508,217.7145 406.0333,227.6694 404.2057,238.1226 402.7925,249.0708 401.8423,260.0946 401.3194,271.526 401.2363,282.932 401.6195,295.3847 402.4935,307.9107 403.8843,320.5122 405.7817,333.161 408.2376,346.1701 411.2473,359.4416 414.7954,372.9086 418.7744,386.1436 427.3959,410.6191 438.2468,436.9002 447.9113,457.384 477.0571,516.0044 483.6035,530.1717 488.8547,542.8741 493.932,557.1143 498.6618,573.6842 501.7658,589.3875 503.7229,604.1829 504.618,615.199 504.9737,630.1598 504.1392,653.7812 502.5212,670.9137 501.061,682.3583 498.956,695.692 495.2663,715.8741 491.7347,731.8679 487.1146,750.0835 482.8983,765.1349 477.6586,781.9852 472.9039,795.7334 466.5901,812.4227 461.259,824.2665 459.6673,827.1447 458.6712,828.162 458.6428,827.1247 459.2269,824.8009 462.0046,816.5151 470.8841,794.7012 483.7347,766.4145 500.2089,732.4506 514.7742,703.6341 529.014,676.3598 594.1848,554.9911 603.8226,536.3133 611.3471,520.9467 619.4951,502.8467 625.0547,488.4294 628.3018,477.0859 629.1294,472.2801 629.4528,467.9214 629.2619,464.196 628.4886,460.7671 627.1704,458.0506 625.1478,455.8418 622.5343,454.3541 619.3162,453.5057 615.6804,453.3047 611.2847,453.7383 606.125,454.875 600.601,456.6343 594.6202,459.0632 588.6165,461.9767 582.3713,465.4664 576.1891,469.378 570.0073,473.7778 564.1597,478.428 554.2866,487.4329 545.9702,496.5085 538.4802,506.4127 532.3884,516.5373 526.6438,529.0179 524.8512,534.2397 523.1732,540.4372 522.0749,545.9038 521.4143,551.3224 521.625,555.5 522.4417,557.668 522.8914,558.043 523.555,558.082 525.265,556.633 527.283,553.164 529.5153,548.0656 534.0273,534.4964 539.0224,514.7973 543.3088,494.4535 547.0848,472.9753 550.6366,448.0195 553.3442,424.4838 555.1646,403.2701 556.5015,381.2519 557.1919,360.8936 557.2815,341.6916 556.7517,321.1145 555.6349,301.4189 553.9541,283.0933 551.6586,265.6352 548.8561,249.6326 545.5414,234.5478 541.7164,220.4046 537.5303,207.6864 532.9171,196.1138 527.801,185.5472 522.1899,175.9925 516.1389,167.582 509.6913,160.4325 503.1579,154.8557 496.3362,150.6564 489.4478,147.9547 482.2076,146.6116 478.5633,146.488 474.5522,146.7725 467.2969,148.4137 460.1605,151.4986 453.9929,155.4396 447.719,160.7588 441.7731,167.1343 436.2011,174.4842 431.0486,182.727 426.3615,191.7806 422.3423,201.159 418.6571,211.6577 415.5217,222.7494 412.898,234.5921 410.8279,247.1176 409.3863,259.851 408.5566,272.6897 408.3526,285.1586 408.7575,298.2778 409.7699,311.5901 412.7495,334.1562 414.7941,345.4492 417.248,356.8075 423.2861,379.3621 431.1245,403.0289 439.1884,423.7779 449.9504,448.4227 457.1918,463.7503 477.8495,505.6433 485.4637,522.5022 492.3295,539.2907 498.51,557.2808 503.1764,575.1571 505.4399,587.1383 506.5835,594.8831 508.0428,608.5168 508.783,620.0991 509.2752,636.0634 509.127,650.5684 507.4036,679.5878 506.0639,692.1204 503.8581,707.5262 500.8201,723.9825 497.5428,739.1997 489.8257,767.9029 484.4129,785.4241 477.2732,806.1529 471.9294,820.3179 464.746,837.7688 458.0661,852.2066 451.7196,864.2348 447.0732,871.2466 445.2959,873.0112 444.0377,873.3501 443.4724,872.404 443.3908,870.7032 444.5137,864.5012 447.3441,854.9728 451.7214,842.6688 456.9994,829.2526 463.5743,813.7295 480.1205,777.5092 502.0369,733.0077 529.2209,681.2307 558.5513,627.6571 613.8083,529.3076 625.3259,508.0601 634.6207,490.0843 645.1712,467.8282 649.0773,458.4929 652.0281,450.4759 654.1815,443.3399 655.5043,437.2656 656.1218,431.6244 655.9473,426.9042 655.3928,424.1454 654.5054,421.7812 653.3043,419.7925 651.625,418.0 649.514,416.5283 647.104,415.428 644.4229,414.6715 641.1167,414.197 633.3018,414.3323 624.0676,415.8338 613.8704,418.5522 602.5858,422.5492 590.3075,427.8234 578.7712,433.5983 568.212,439.7249 558.3374,446.3714 549.0891,453.4916 540.9091,460.8663 534.5795,467.4485 526.2246,477.7656 525.7832,477.9688 530.9202,449.7515 533.7371,428.2764 535.7174,405.1161 536.9127,380.1237 536.8686,357.4779 535.7733,335.7607 533.3179,312.0641 530.1046,292.1669 525.6329,273.5199 523.1286,265.307 520.3418,257.531 517.548,250.9218 514.4899,244.8165 510.9732,238.8634 507.2545,233.5674 503.3562,229.001 499.5581,225.4469 495.64,222.6573 491.3661,220.554 486.9625,219.3278 482.9229,219.0307 478.9043,219.5293 474.9298,220.8283 470.9685,222.9653 466.9109,226.0992 463.0813,230.0564 459.5097,234.7888 456.2261,240.2483 453.27,246.3754 450.6951,253.0638 448.5006,260.2371 446.6805,267.8231 445.1658,276.154 444.1331,284.1482 443.4741,292.7493 443.2136,301.8592 443.3512,311.4245 443.9314,322.1589 444.8151,331.4835 447.5782,349.6284 451.858,368.9835 457.5851,388.8017 464.5972,408.9444 474.6812,433.3281 486.2782,457.3599 496.8915,476.9906 501.9818,485.1271 506.0171,490.4425 510.1106,494.4645 512.4083,495.8042 514.3311,496.3845 516.1313,496.1841 517.937,495.306 519.8481,493.6845 521.5649,491.4898 524.7126,485.2579 528.3149,475.024 531.4986,462.0466 534.0108,449.0515 536.6442,430.9622 538.5211,414.0765 540.12,392.8392 540.9003,373.9748 540.9648,355.0234 540.3998,337.2841 539.2147,320.6644 537.2936,303.7237 535.3001,290.3809 532.9626,278.052 530.3901,267.1966 527.2396,256.3837 523.6496,246.1249 519.7912,236.9701 515.7098,228.985 511.2189,221.8755 506.3633,215.7344 501.2493,210.6952 495.9214,206.8467 490.7328,204.385 485.1088,203.0913 479.7414,203.0888 474.1017,204.3803 468.612,206.9848 464.3057,210.0512 460.069,214.0714 456.1377,218.8518 452.307,224.6776 448.8194,231.2315 445.6911,238.4391 442.8571,246.4929 440.6333,254.5398 438.7817,263.3154 437.3813,272.4009 436.3412,282.5028 435.7708,292.667 435.6934,302.1973 436.0597,312.0854 436.8627,322.2822 438.083,332.7273 441.5821,353.3172 446.7005,374.5118 453.2257,395.8276 461.75,419.0 466.9074,431.3649 475.6193,450.6618 488.1688,476.5325 500.5822,500.3752 505.9193,509.6024 510.1372,515.6198 512.4581,518.0108 515.0021,519.8381 516.9303,520.3829 518.867,520.0913 520.613,519.078 522.631,516.906 524.3803,514.1934 526.4496,510.0432 530.0,500.5 534.1306,484.9141 538.1435,465.3074 541.1947,446.4356 543.6843,425.8806 545.581,404.4668 546.7953,383.0788 547.2858,362.4289 547.0561,341.8067 546.073,320.4585 544.4772,301.7703 542.2375,284.6416 539.6056,269.8513 536.5447,256.1008 533.0284,243.2746 529.2025,231.8519 524.9091,221.3493 519.9954,211.5063 514.8416,203.1247 509.5168,196.1891 503.5965,190.2367 497.4963,185.7894 491.1297,182.6933 484.6711,181.0573 478.1847,180.9137 474.9512,181.4115 471.7347,182.2945 465.5044,185.1364 459.3622,189.4146 454.5673,193.8797 449.7819,199.4798 445.3293,205.9373 441.4043,212.913 437.8861,220.558 434.6854,229.1051 431.9542,238.1592 429.6881,247.6307 427.883,257.4298 426.4966,267.8614 425.6293,278.4361 425.2534,289.0909 425.3578,300.5196 425.9466,311.8811 427.0038,323.3016 428.5683,334.9418 432.3706,355.107 437.8191,376.8488 443.9018,396.2699 452.1312,418.5628 458.1264,432.9648 468.6308,456.4034 494.6977,511.5198 511.2268,549.5139 513.9521,554.6498 516.2813,557.918 518.5,559.625 520.3243,559.8809 522.2472,559.038 524.2509,557.022 526.4362,553.5743 528.811,548.6102 531.0602,542.8636 533.1619,536.3562 538.4728,516.7238 543.9693,491.458 548.4752,465.12 552.071,439.0352 554.5775,414.7622 556.3778,390.6207 557.3674,368.2505 557.6679,345.0435 557.2558,323.1808 556.1453,302.7391 554.3224,283.2846 551.6298,263.1782 548.6754,246.4528 545.2038,230.9612 541.2451,216.8261 536.7455,203.8273 531.5452,191.4634 525.9593,180.5561 519.8493,170.8657 513.4518,162.7994 506.6974,156.2568 499.3412,151.043 495.5595,149.0392 491.7234,147.445 487.8438,146.2656 483.9315,145.5067 479.9976,145.1735 476.053,145.2717 472.1086,145.8067 468.5322,146.6767 461.0702,149.6908 453.5352,154.411 447.698,159.3241 441.87,165.4623 436.3826,172.5531 431.2834,180.534 426.7087,189.1461 422.4869,198.6799 418.781,208.783 415.5,219.7418 412.8722,230.7368 410.7264,242.4333 409.1988,254.1 408.195,266.3611 407.7509,279.0165 407.875,291.992 408.5693,305.1998 409.7865,318.1712 412.8653,338.9224 417.4595,360.2186 423.9984,383.6509 431.3804,405.3906 439.1615,425.1078 448.8357,447.2042 459.821,470.3088 476.2192,503.3418 484.0697,520.3364 491.5762,538.4153 496.6872,552.8571 501.8985,571.5321 503.9545,581.2603 505.3786,589.6988 507.625,608.125 508.4298,621.3815 508.6659,636.3248 508.4556,651.0931 507.7214,664.4353 506.6502,677.4511 504.721,694.205 502.2148,709.9574 499.4248,724.5152 492.75,752.875 487.5202,771.158 480.7609,792.4448 474.8979,808.9218 468.4267,825.5752 461.2694,842.0521 454.5896,855.5287 449.4408,863.9153 447.4985,866.1015 446.2362,866.5886 445.779,865.8764 445.724,864.2049 446.8981,858.2018 449.7875,848.7685 454.2328,836.5022 466.1897,807.5446 481.9305,773.2684 503.1299,730.3431 527.0612,684.5181 551.1118,640.4498 607.9294,538.4542 620.7903,514.6716 630.6505,495.6604 640.3396,475.4077 646.9104,459.2148 649.2889,451.97 650.9385,445.5998 651.8845,440.0699 652.1521,435.3459 651.9073,432.2068 651.277,429.4457 650.2025,426.8994 648.7516,424.7936 646.955,423.1004 644.5178,421.635 641.7152,420.6307 638.5932,420.0459 631.0226,419.9909 621.7707,421.4615 611.2272,424.4478 599.4939,428.8721 587.3527,434.4463 575.3253,440.9968 564.3959,447.885 554.8665,454.9537 545.5832,463.0046 537.6594,471.1062 530.5113,480.1144 525.4531,488.209 527.7447,479.7853 530.0537,469.4631 534.3557,444.2051 537.4823,415.1178 539.2048,386.3058 539.4237,359.4976 538.431,332.6457 536.252,310.624 532.7132,288.2282 530.6082,278.2703 528.25,269.0 525.3717,259.5053 522.2892,250.8936 519.0379,243.1974 515.6532,236.427 511.9888,230.2975 507.9474,224.6862 503.8587,219.9991 499.6214,216.1291 495.2404,213.1305 491.0262,211.166 486.3319,209.979 481.6439,209.7311 477.0237,210.4233 472.4974,212.0608 468.0913,214.6487 463.9337,218.0917 459.834,222.5391 456.0429,227.7615 452.5773,233.7143 449.4541,240.3523 446.6627,247.7122 444.2813,255.6509 442.3588,263.9763 440.8772,272.6343 439.7817,281.9649 439.1336,291.413 438.932,300.9563 439.1532,310.4905 439.8137,320.7392 440.9001,331.2711 442.2886,341.2704 444.1247,351.6334 449.1187,373.1933 454.896,392.585 463.123,415.3255 467.9742,427.1543 475.9498,445.1669 487.6971,469.1581 498.3174,489.1753 504.1927,498.9161 508.0114,504.2298 510.1962,506.7928 512.4264,508.6169 514.875,509.75 516.7443,509.9088 518.5794,509.3364 520.4112,508.0053 522.3438,505.7086 524.0813,502.8211 528.3458,492.3146 531.7261,480.5485 535.1891,465.0013 538.4458,445.7373 540.774,427.6622 542.9246,404.0683 544.0446,385.0516 544.5279,365.155 544.4032,346.1742 543.6402,328.1019 542.0453,308.6135 539.9069,291.1355 537.6571,277.6629 535.0574,265.571 531.599,252.5644 527.7257,240.5888 523.7573,230.4797 519.4986,221.5629 514.7833,213.5583 509.5712,206.3869 504.0424,200.4024 498.5153,195.9111 492.7643,192.6993 487.0171,190.8774 481.213,190.3194 475.0902,191.105 469.0807,193.2902 463.2541,196.8544 458.575,200.8639 453.9279,205.9891 449.8125,211.6562 445.8322,218.398 442.4192,225.4804 439.2807,233.498 436.6811,241.7651 434.435,250.7902 432.584,260.543 431.2115,270.5851 430.2753,281.2279 429.8681,291.2079 429.9217,301.5498 430.4645,312.607 431.4511,323.566 432.9334,335.1509 434.6883,345.7908 436.8366,356.4582 442.4178,378.4793 448.804,398.5596 457.875,422.5 464.6098,438.4069 476.6531,464.5573 507.2824,527.8145 509.959,532.804 513.1576,537.6382 515.4582,540.0499 517.7237,541.3855 519.5781,541.4531 521.4976,540.5442 523.5925,538.4776 525.6271,535.4456 530.1664,525.0197 534.7523,509.7926 539.387,489.7237 543.3145,468.8008 546.5366,446.4445 549.2189,423.3924 551.1027,401.2664 552.3829,378.4362 552.8999,356.407 552.632,334.5076 551.6208,313.0795 549.9215,293.2577 547.5137,274.5508 544.7422,258.5566 541.4925,243.7451 537.7214,229.9053 533.5722,217.5199 528.9738,206.3106 523.8223,196.035 518.1869,186.8761 512.1125,178.9577 505.8901,172.6201 499.2376,167.5911 492.5264,164.1574 488.9308,162.9376 485.3054,162.1238 481.6606,161.7168 478.0072,161.7172 471.0797,162.8429 464.2318,165.4469 457.1964,169.755 451.6156,174.4491 446.0775,180.3839 440.9002,187.2958 436.3367,194.7455 432.0149,203.3378 428.1955,212.581 424.7745,222.7197 421.9018,233.3434 419.6522,243.9755 417.8691,255.2867 416.6675,266.5913 416.0081,278.4591 415.9135,290.3122 416.3731,302.8434 417.3842,315.5829 418.9533,328.6529 421.8603,345.854 425.7701,363.3828 431.172,383.0717 436.6458,399.8293 443.4799,417.7928 452.6802,439.5794 461.2536,458.2957 486.2719,510.845 495.6249,533.1533 502.1505,551.6454 506.2491,565.4764 514.0059,598.2203 515.8876,604.8477 517.3353,608.3309 518.969,610.5635 520.9977,611.1034 522.7794,610.0942 525.1074,607.2168 527.6985,602.4068 530.7195,595.1929 533.6604,587.0283 540.5989,563.958 547.9333,533.7956 553.9905,503.9555 558.9761,475.1188 563.4008,443.3274 566.4204,416.5863 568.5512,391.2259 570.0739,363.3028 570.7491,336.6217 570.5811,312.0713 569.622,288.8318 567.8075,265.5484 565.2386,243.7799 562.0758,224.2115 558.2274,205.9103 553.6913,188.9043 548.4106,172.9178 542.5281,158.3539 535.9333,145.0051 528.8343,133.3612 521.2942,123.4968 517.318,119.1876 513.2623,115.3537 509.0935,111.9463 504.4909,108.7594 500.1242,106.2534 495.335,104.0486 490.8198,102.4653 486.2508,101.3337 481.6394,100.6589 476.9972,100.4456 472.3355,100.699 467.666,101.4238 463.0,102.625 458.1703,104.3773 453.6893,106.4678 448.9727,109.1582 441.7659,114.2714 434.8043,120.4331 428.1409,127.5747 421.584,135.9673 415.6928,144.8944 410.2164,154.6774 405.1348,165.4241 400.6223,176.7564 396.5664,188.9465 393.0178,201.9346 390.1027,215.2587 387.8185,228.8082 386.1677,242.4666 385.1745,256.0908 384.7982,270.0014 385.0492,284.5155 385.8713,298.4243 387.2868,312.7843 389.3142,327.5364 391.7511,341.2475 394.8112,355.1884 398.3828,368.9067 402.6242,383.0519 407.6098,397.8022 412.3878,410.6303 417.5615,423.3115 423.2826,436.2612 430.0583,450.5999 441.2988,472.8274 469.7781,525.4665 480.8954,548.5936 486.129,561.1497 491.035,575.0578 494.1993,586.11 496.7798,598.1442 498.8127,613.0609 499.6553,623.4414 499.9868,631.8431 499.6635,652.0088 497.7122,673.6283 494.1297,698.08 489.2801,722.6724 483.9936,744.93 475.0674,777.3805 476.7664,774.4095 493.3379,739.596 507.7923,710.2275 562.5884,603.5033 581.8413,564.4701 590.2464,545.5663 596.0417,530.3853 598.1901,523.5433 599.6875,517.5938 600.5339,512.5231 600.7364,508.5716 600.0782,504.0688 598.5488,500.9147 596.2129,498.9824 592.8787,498.207 588.5589,498.621 583.3842,500.3181 577.5146,503.2895 571.3281,507.3594 565.5017,511.9984 559.5744,517.4844 553.8764,523.5599 548.5137,530.053 543.5833,536.8773 538.4873,544.9248 534.4931,551.9685 530.6671,559.8712 526.1583,570.4861 522.6917,580.2361 518.9288,592.6035 515.1403,607.3709 510.4915,629.9851 499.2142,692.2089 492.7855,721.7933 487.2238,743.9499 481.3323,764.5985 474.8,785.0573 468.8567,801.3424 465.1818,809.9816 463.7972,812.402 464.5294,809.5154 467.625,801.375 476.097,781.5702 487.8791,755.9385 500.976,729.0159 527.4649,677.2963 584.5202,569.4957 601.3519,535.8467 610.1566,516.2125 616.1366,500.697 619.4506,488.9913 620.2575,483.942 620.4654,479.8073 620.0212,475.625 618.7268,472.0957 616.6632,469.5766 613.9673,467.9718 610.6671,467.1422 606.5222,467.1171 601.4659,468.0163 596.0537,469.7144 589.858,472.397 583.5937,475.7741 576.514,480.2466 569.9644,484.9614 564.0366,489.7993 558.3208,495.082 552.9336,500.6694 547.7777,506.6682 539.5254,517.8556 533.2207,528.4602 530.1099,534.8664 527.0457,542.1274 522.9966,553.9719 520.9866,561.805 519.623,568.9082 518.6111,576.2176 517.9231,584.9092 517.9121,590.6562 518.3102,595.8005 519.266,600.225 520.75,602.625 521.6311,602.8777 522.7363,602.5371 524.6111,600.7593 526.7922,597.1756 529.4903,591.1617 532.0896,584.2181 536.0103,572.2202 542.0315,550.255 547.0302,529.0692 553.4653,496.9226 558.0505,469.3326 561.8651,441.7688 564.5092,417.5647 566.6483,391.1191 568.0297,366.149 568.6655,342.2576 568.5503,319.1932 567.682,295.5847 566.1506,273.9064 563.9311,253.3589 561.1167,234.5406 557.7051,217.0741 553.6499,200.5104 548.8812,184.6764 543.6722,170.476 537.8082,157.3264 531.4566,145.6987 524.6973,135.6881 517.1329,126.7457 509.3735,119.6116 505.1919,116.5194 501.2227,114.0342 496.8637,111.7859 492.7452,110.1069 488.5659,108.8321 484.3331,107.972 480.0225,107.5349 475.6214,107.5295 471.2206,107.9573 466.8311,108.8098 462.4644,110.0784 457.8,111.9002 450.2595,115.8912 442.9254,121.0822 435.8598,127.4259 429.4101,134.5288 422.9874,143.0557 416.921,152.6846 411.3785,163.1409 406.3882,174.3179 401.9786,186.1088 398.1782,198.407 395.0427,210.9824 392.5122,224.065 390.5453,238.0528 389.2636,252.1146 388.615,266.5395 388.6041,281.2251 389.1833,295.3191 390.2804,308.7197 391.9954,322.4654 394.3487,336.5484 397.3312,350.8766 400.998,365.6938 405.3249,380.8947 409.99,395.2215 414.5249,407.6567 419.4961,420.0998 431.4101,446.7272 442.7229,469.271 468.3389,517.5872 477.0089,535.0052 482.103,545.9922 487.7433,559.9468 491.6604,571.2409 495.353,584.8427 497.7835,596.571 500.182,616.2473 500.7967,634.3947 500.541,645.3753 499.8881,656.6818 497.3674,680.8195 493.1569,706.576 488.2051,729.7168 481.6755,755.0645 472.0825,786.753 487.3788,753.5034 505.4624,716.5239 526.2546,675.6806 567.928,595.5658 586.8566,557.2646 595.4214,538.055 601.4041,522.4629 604.7625,510.6515 605.629,505.6919 605.9398,501.1536 605.3378,496.2801 604.63,494.4655 603.5846,492.83 602.284,491.5566 600.7518,490.6348 597.0863,489.8044 592.1171,490.3657 586.2425,492.3098 580.3717,495.2406 573.6454,499.5785 566.9461,504.7659 560.469,510.5812 554.6311,516.6077 549.2398,523.0006 543.9375,530.1748 538.7813,538.1459 533.8672,546.7708 529.8389,555.0575 525.4923,565.7247 521.5945,577.3595 518.7424,587.3105 515.4607,601.6565 511.7948,622.0359 504.6105,671.2224 501.3389,691.0662 497.258,712.194 490.3691,741.6461 481.2368,773.5925 472.3594,799.8594 468.1511,810.8899 462.5874,823.9674 458.9175,831.2704 457.5472,833.4472 456.8102,833.9907 457.1942,830.6815 459.3959,823.5256 462.9645,813.9264 467.8653,802.0291 481.1066,772.6012 498.0458,737.4927 513.723,706.573 532.5214,670.7008 596.2738,552.5156 606.7421,532.2397 615.3091,514.7566 623.2161,497.134 628.5608,483.0648 631.8039,471.3528 632.599,466.5216 632.864,462.0509 632.5784,458.557 631.7238,455.4894 630.2076,452.8004 628.182,450.7797 625.6983,449.376 622.4203,448.4702 618.7005,448.2074 614.7094,448.4939 609.844,449.383 604.773,450.8112 599.1768,452.8742 593.5837,455.3677 580.7876,462.248 574.6883,466.1576 568.9278,470.2945 558.7921,478.6244 549.5836,487.6671 541.7456,496.8856 535.1106,506.5388 529.299,517.204 524.7914,528.7445 523.543,533.4729 522.5879,538.8008 522.4781,542.8378 523.035,544.8859 523.4905,545.211 524.1367,545.1399 525.6666,543.561 527.4812,540.0444 529.5561,534.8601 534.1397,520.2063 538.3933,502.6193 542.1571,483.7758 545.7456,462.009 548.6924,439.9826 551.0232,417.7728 552.52,398.0113 553.5456,376.4545 554.0373,355.959 553.9488,337.3166 553.2953,319.8813 551.9877,301.4106 550.1961,284.338 547.8924,268.1424 545.1786,253.3578 541.9659,239.3732 538.2552,226.1874 534.1212,214.0543 529.6114,203.0765 524.7723,193.3285 519.5487,184.7001 513.9006,177.0897 507.9111,170.626 501.6275,165.3905 495.0968,161.4646 488.3665,158.93 481.4928,157.8483 474.7972,158.1768 467.8111,159.9526 460.9658,163.1539 454.9906,167.2196 449.1904,172.437 443.6824,178.7196 438.3551,186.2403 433.476,194.6648 429.0848,203.8896 425.2215,213.8109 421.9785,224.1394 419.3186,234.9352 417.1825,246.4218 415.5947,258.5384 414.575,271.2071 414.142,283.9456 414.2855,296.4842 415.0368,309.2832 416.4206,322.6042 419.1362,340.3427 422.9213,358.7364 427.5716,376.579 433.2323,394.6737 440.8146,415.456 450.2129,437.8262 459.4358,458.1726 482.9684,506.8093 489.8436,522.2852 494.0,532.625 499.897,549.0486 504.5724,564.7802 508.797,582.7071 515.0353,617.3437 516.8069,623.3948 517.7813,625.1782 518.9606,626.5729 520.0856,626.9862 521.25,626.75 523.2878,625.009 525.6204,621.5158 528.3035,615.9841 531.6685,607.5679 534.8034,598.5366 542.3347,572.7776 550.0298,541.4197 556.2422,511.0473 561.9728,478.5648 566.8272,444.812 570.0309,417.103 572.3484,390.3026 573.9892,361.244 574.7325,333.9324 574.6175,309.1086 573.6915,285.3226 571.8248,260.6428 569.2008,237.611 565.9405,216.795 562.0188,197.6415 557.5045,180.2834 552.1321,163.7491 545.9334,148.2653 539.1286,134.4113 531.598,121.9872 527.6741,116.5127 523.5869,111.4486 519.3396,106.8181 515.1706,102.8524 510.8248,99.2831 506.175,96.0398 501.7602,93.4668 496.9149,91.1724 491.9898,89.3761 486.9994,88.0822 481.9585,87.2949 476.8817,87.0183 471.7836,87.2567 467.0434,87.9428 461.9458,89.186 457.2314,90.8125 452.1998,93.0696 447.4005,95.7256 439.4051,101.2658 431.6976,108.0048 424.3323,115.8567 417.3632,124.7357 410.6284,134.9102 404.6327,145.6137 399.1474,157.1956 394.2627,169.4679 389.9145,182.5921 386.1493,196.5011 383.0847,210.7336 380.6583,225.558 378.95,240.4809 377.9391,255.7072 377.6596,270.6807 378.0837,286.1903 379.103,300.6329 380.7539,315.4726 383.0462,330.5909 385.8836,345.4278 389.2128,359.7394 393.0621,373.7912 397.6112,388.247 402.7033,402.6202 407.8657,415.8726 413.1517,428.3876 418.977,441.1162 425.4514,454.306 439.1403,480.3101 468.9896,533.6508 477.9399,551.3255 483.3408,563.3657 487.4039,573.7658 491.7215,586.9966 494.5792,598.0869 497.3958,614.5609 498.7454,630.4306 498.8983,644.8629 497.7806,665.3311 495.6016,685.3203 492.0226,707.2676 487.5804,728.6937 481.3236,755.0869 480.4482,760.9444 481.8617,759.2183 486.014,751.223 516.5273,690.1385 557.7413,609.2214 573.1449,577.5026 581.7184,558.1565 587.2576,543.4502 590.7639,530.9245 591.5711,525.9892 591.7375,521.7757 591.1302,517.8069 589.7114,515.0535 587.536,513.4788 584.422,512.9659 580.8053,513.5342 576.3085,515.2866 571.3333,518.1204 566.0854,521.9617 560.9288,526.5012 555.9573,531.5386 550.9324,537.316 546.2299,543.4122 541.9512,549.7097 537.575,556.9806 533.798,564.0392 530.0723,571.8748 526.1234,581.0183 522.8142,589.8796 519.2139,600.7982 515.9918,612.1716 510.0599,635.8431 500.5144,680.7198 490.7151,723.1296 483.0799,751.7972 473.1454,783.7147 490.4522,746.7101 510.5275,706.0701 568.2712,594.1119 585.3177,559.4648 593.8094,540.4008 599.5428,525.3731 601.6969,518.4723 603.2038,512.4343 604.0636,507.2593 604.2822,503.2077 603.6326,498.6554 602.0319,495.4614 600.7828,494.2249 599.3031,493.3494 595.8197,492.6103 590.867,493.128 585.3312,494.9348 579.1295,498.0412 572.6406,502.2969 566.5142,507.1428 559.9348,513.1253 554.1734,519.1351 548.7659,525.6189 543.5551,532.8129 538.4728,540.8334 533.758,549.2343 529.8025,557.3915 525.3588,568.3368 521.0081,581.2499 518.7317,589.4352 515.3105,603.8595 511.3046,625.1925 504.1878,670.2449 500.0853,693.1636 495.5141,716.1861 490.2363,738.2175 482.7877,765.129 474.7644,790.2868 469.71,803.8963 465.0131,815.4266 461.2495,823.6113 460.032,825.6607 459.2994,826.2753 459.1891,825.4537 459.6142,823.549 462.125,816.0 470.6396,795.0322 482.9617,767.808 498.3797,735.9774 513.3037,706.4781 530.8353,672.8998 592.2544,558.2479 602.3873,538.5463 610.2607,522.4277 618.5189,503.981 624.0889,489.3697 627.2685,477.9496 628.069,472.9152 628.3199,468.606 627.991,464.5979 627.0539,461.3638 625.5408,458.855 623.4843,457.0229 620.575,455.6674 617.1788,455.0054 613.3918,454.9911 608.8432,455.6397 603.5107,457.0328 597.6655,459.1025 591.784,461.6868 585.9198,464.7454 579.5554,468.5902 572.9052,473.0843 566.5828,477.8401 560.7648,482.7016 551.83,491.408 543.2088,501.4736 536.4102,511.3878 530.3409,522.2658 525.7807,533.305 522.483,545.066 521.4605,551.3271 521.1274,555.5885 521.3095,559.7179 522.2138,562.0297 522.8708,562.4746 523.427,562.4277 524.7561,561.3496 526.7399,558.3567 528.6224,554.4578 533.5767,540.3564 538.3299,522.4315 543.2587,499.9417 546.9846,479.9172 551.097,452.8401 553.916,429.4588 556.0606,405.3626 557.5037,383.2234 558.2564,362.9053 558.3972,342.4055 557.9383,321.4511 556.8619,301.5691 555.1665,282.6653 552.8102,264.3817 550.0598,248.1926 546.8402,233.168 543.0995,219.0618 538.9684,206.3258 534.1151,194.0327 528.6673,182.6055 522.9045,172.6503 516.8944,164.1918 510.699,157.2303 504.1255,151.5588 496.9654,147.1188 489.8772,144.2704 486.2844,143.3764 482.3064,142.8027 475.0348,142.863 471.0315,143.5053 467.4002,144.4656 460.1889,147.4664 453.7281,151.4572 447.2702,156.7837 441.3923,162.9306 435.6241,170.3568 430.2709,178.7394 425.2229,188.3172 420.9579,198.1555 417.1488,208.9093 413.8438,220.5288 411.1646,232.5638 409.0451,245.2909 407.5709,258.1746 406.7358,271.271 406.5317,284.3325 406.9468,298.0443 407.988,311.9224 410.8786,333.9857 412.8871,344.9613 415.3661,356.3539 421.6274,379.7166 429.5517,403.675 437.2813,423.4433 447.3138,446.4271 455.2145,463.0486 476.3925,505.9251 484.9185,524.3611 489.7529,536.0505 497.0237,556.4636 501.9462,574.9993 505.3208,593.8031 507.0701,612.2515 507.7053,626.2618 507.7059,638.5009 506.4609,664.9123 503.1843,693.3502 500.9298,707.5649 497.7783,723.6414 490.9201,752.3082 486.0271,769.6666 480.9724,785.801 475.204,802.3456 468.2124,820.8013 462.3796,834.6476 456.8449,846.1509 452.3892,853.6609 450.6049,855.7997 449.6358,856.2146 449.2502,855.5373 449.25,853.875 450.4079,848.4482 453.1932,839.7362 457.3882,828.4214 468.3076,802.1571 482.8351,770.4953 502.3564,730.8604 526.716,684.1292 552.8218,635.8851 603.981,543.4227 623.9326,505.4451 634.0102,484.1949 640.7394,467.5678 642.9801,460.7018 644.6758,454.1354 645.6368,448.4621 645.8991,443.6318 645.6021,440.1659 644.8527,437.2375 643.6728,434.8162 642.0784,432.8507 639.9537,431.1858 637.4808,429.9982 634.6921,429.2462 631.2173,428.8692 627.4296,428.9319 622.6842,429.4804 612.3712,431.8596 601.0188,435.8773 589.144,441.2978 577.8004,447.5507 566.7837,454.6951 556.793,462.3242 547.6733,470.5144 539.339,479.6174 532.5924,488.6 529.575,493.499 527.2875,497.8858 525.6019,501.8426 524.9941,504.6074 525.75,503.5 527.1759,499.75 530.4432,488.3945 533.5551,473.7088 536.0523,459.9464 538.3303,444.6751 540.1098,429.8592 541.6994,412.3596 542.808,395.5203 543.4266,380.2518 543.6841,364.3074 543.5389,349.4762 543.0057,335.3641 542.0035,320.7078 540.6232,306.6541 538.8769,293.3881 536.7848,281.0562 534.3066,269.4141 531.305,257.7167 528.1076,247.2751 524.6429,237.7828 520.9357,229.3018 517.0932,221.9926 512.7382,215.0688 508.1155,209.0273 503.2518,203.9477 498.1734,199.9095 493.0282,197.0445 487.9313,195.3116 482.7919,194.5952 477.2946,194.9557 471.8664,196.4832 466.9162,198.9617 462.2161,202.3673 457.7293,206.671 453.5156,211.7969 449.398,218.0368 445.6549,225.0628 442.4548,232.463 439.6132,240.5654 437.1226,249.4883 435.1821,258.4478 433.63,268.1166 432.5603,278.0112 431.9627,288.3105 431.8467,298.6249 432.185,309.2932 433.0068,320.6403 434.2701,332.0273 435.8775,342.4909 438.0,353.4219 443.9515,377.5674 449.6385,395.7376 458.2963,419.0876 465.4834,436.4166 474.6585,456.5547 502.4053,513.3578 510.3438,527.2656 513.1984,531.0118 515.081,532.8098 517.2,533.9166 519.18,533.9884 521.2562,532.9823 523.178,531.076 525.166,528.102 527.25,524.0 529.402,518.63 531.5014,512.2361 536.485,493.2789 540.2728,474.4976 543.7874,453.112 546.7237,429.8641 548.8419,407.3836 550.2302,383.514 550.9198,360.4787 550.8202,340.1179 549.9474,320.4113 548.3266,299.9484 546.0954,281.3697 543.5701,266.067 540.4247,251.2467 536.818,237.445 532.7436,224.7092 528.3632,213.5122 523.75,203.875 518.4023,194.7552 512.6472,186.8089 506.5197,180.1471 500.0549,174.8812 493.5755,171.2474 486.9036,169.0711 480.0287,168.3478 473.1682,169.1261 466.404,171.3951 459.8182,175.1439 454.36,179.5264 449.1095,184.9504 444.2019,191.2714 439.4622,198.7702 435.1472,207.1081 431.2824,216.2129 427.9718,225.8439 425.2465,235.8422 422.9873,246.5787 421.2301,257.9947 420.0381,269.6226 419.3853,281.6725 419.3209,293.2414 419.8083,305.4936 420.8404,317.9677 422.4384,330.9423 425.5891,349.341 429.8621,367.7876 435.7656,388.188 442.3527,407.2867 449.1412,424.5059 457.4689,443.9893 482.024,495.5668 492.3359,518.2774 498.7375,534.1057 503.7338,547.6621 514.0915,580.288 516.5452,585.9957 518.656,588.7424 519.4628,589.3429 520.5214,589.6284 522.5773,588.8573 524.6732,586.6384 527.0444,582.7275 529.6202,577.2238 532.1502,570.6206 538.25,550.875 544.1833,527.0416 549.5752,500.7138 554.5477,471.5638 558.7474,441.3472 561.4764,416.1522 563.5242,390.372 564.809,365.6536 565.3222,341.9445 565.0555,318.7883 563.9982,295.5423 562.2369,273.8995 559.7623,253.4721 556.7537,235.2466 553.0745,218.0192 548.6951,201.6224 543.828,186.8021 538.4194,173.3005 532.5112,161.2297 526.0029,150.463 519.1874,141.4324 511.6203,133.5498 507.5248,130.092 503.6289,127.2808 499.3431,124.6956 495.2885,122.7166 491.1705,121.1539 486.9975,120.0177 482.7778,119.3182 478.3808,119.0609 474.2875,119.2398 469.8553,119.8792 465.7776,120.8733 461.3881,122.3794 457.0411,124.3229 452.7508,126.6949 446.2928,131.1604 440.0524,136.5862 434.0805,142.9399 428.5211,150.0333 423.0887,158.2354 418.0788,167.1467 413.5093,176.6914 409.2601,187.1636 405.6428,197.7631 402.4184,209.1649 399.8312,220.4876 397.7051,232.4328 396.0889,244.8759 395.0309,257.3822 394.4962,270.2658 394.4958,283.0784 395.0244,296.1564 396.0663,308.9947 397.6309,321.8893 399.7656,335.1719 402.4737,348.7603 405.8239,362.9108 409.5856,376.7175 413.8005,390.1752 418.0312,402.2072 422.9652,414.9822 434.8629,442.4966 445.7001,464.7879 470.25,512.5 479.2094,530.88 484.6355,543.1594 490.5771,558.7972 495.192,573.9467 498.1594,586.2864 500.5469,600.906 501.5409,609.876 502.2969,623.2563 502.3867,631.2368 502.0086,646.1653 500.259,668.593 496.6559,694.1691 492.1072,718.18 487.7315,737.162 484.6018,749.1155 479.8214,765.9523 474.5595,782.8191 469.594,796.5462 466.5358,803.8733 470.9318,792.3049 480.223,771.2733 490.1688,750.0347 502.7329,724.3635 527.141,676.5783 580.087,575.9936 597.4333,540.8824 605.7817,522.2148 611.3291,507.6441 613.2261,501.3955 614.6391,495.4175 615.3631,490.6432 615.5447,486.2554 614.9477,481.9416 613.3878,478.5549 610.8423,476.121 607.515,474.8625 603.0662,474.7054 597.582,475.7157 591.5048,477.7755 585.144,480.7602 578.5457,484.6306 572.0252,489.2231 565.125,494.875 558.0629,501.4187 552.6175,507.1261 547.5246,513.2304 542.2995,520.3586 537.6828,527.5489 530.9241,540.1306 525.4226,553.2311 520.9656,567.7298 517.803,583.0763 516.0764,595.9149 515.0891,606.9113 514.7229,621.2187 514.9523,630.4399 515.6915,639.3613 516.8811,644.7586 517.75,646.75 518.6562,647.8125 519.75,648.125 520.5741,647.9167 522.8144,645.8418 525.7499,640.9311 528.8471,633.8981 532.8908,623.1419 536.7825,611.6311 544.6076,584.3675 552.1724,553.6874 558.4445,524.3323 564.9853,488.4382 570.2787,453.7285 574.0952,423.0435 576.9027,394.193 578.8071,366.1402 579.8532,338.1356 580.0778,309.8798 579.4112,283.5382 577.8463,258.4013 575.3446,234.2663 572.0497,211.8386 568.038,191.0553 563.2008,171.3755 557.6525,153.3624 551.4497,137.1347 544.5671,122.5799 536.7422,109.207 528.4217,97.7926 523.8888,92.5813 519.4592,88.0951 514.6197,83.8258 509.9152,80.2658 505.0878,77.1821 500.1443,74.5921 495.0917,72.513 489.9841,70.9725 484.8194,69.9572 479.2614,69.4431 474.0202,69.4867 468.4137,70.0852 463.1578,71.156 457.5685,72.8333 452.3597,74.8998 446.8535,77.6223 437.7267,83.4052 429.2014,90.3501 420.781,98.8586 412.9081,108.5071 405.3795,119.5255 398.282,131.8684 391.8691,145.1113 386.1829,159.1127 381.2653,173.7311 377.191,188.6801 373.824,204.4526 371.2936,220.3848 369.527,236.7538 368.5238,253.827 368.3407,271.0888 368.9778,288.3867 370.2112,303.4422 372.0809,318.4827 374.6281,333.7814 377.77,348.879 381.6389,364.4054 386.2182,380.1949 391.1472,395.0928 396.7712,410.1448 402.0262,422.8717 407.978,436.1585 415.125,451.0 421.5183,463.3835 433.8222,485.266 463.8826,535.9962 477.0999,560.295 481.8353,570.3886 486.4643,581.6365 489.7247,590.9756 492.5321,600.8528 495.4797,614.1264 497.3932,628.4584 498.1104,640.125 498.0299,657.5694 497.0811,672.0287 495.9533,682.8767 492.9344,702.9379 486.777,737.3539 486.5933,740.2697 487.0,741.375 488.2711,740.1769 490.3657,736.8169 500.5813,717.5213 538.2954,643.1826 561.9782,594.97 570.7676,575.0398 576.6851,559.5659 580.274,546.8756 581.1011,541.7973 581.2279,537.9479 580.713,534.662 579.5813,532.3757 577.8515,531.0704 575.0726,530.7162 572.2222,531.3439 568.6064,533.0031 564.253,535.8291 560.0833,539.2037 556.125,543.0 551.958,547.618 543.7683,558.4928 536.4422,570.4422 529.8281,583.5469 525.0431,594.898 520.7224,606.7214 516.8078,618.795 512.0914,635.3475 505.793,660.0437 492.3421,715.7036 483.5556,749.5907 482.5586,753.9023 482.4727,755.8477 484.1039,753.7325 488.0357,746.2989 518.1633,686.021 548.9848,625.4194 570.5219,581.4016 579.151,561.6743 584.8609,546.5805 586.6571,540.6924 588.0523,534.8262 588.8539,529.6699 588.9936,525.8081 588.4121,522.3105 586.8065,519.5316 584.479,518.014 581.4757,517.6638 577.8145,518.4219 573.7956,520.1846 569.1215,523.0938 563.7842,527.2098 558.9395,531.6232 554.5058,536.3035 549.4455,542.329 544.8451,548.4896 537.3109,560.5222 529.7853,575.4978 525.9238,584.6074 522.1895,594.6719 518.1618,607.0215 514.7372,618.8036 510.2233,636.9018 497.845,692.6589 492.3209,715.7662 485.7451,741.4635 475.8503,775.9124 493.537,739.0954 509.3409,707.0544 563.0496,602.3545 581.7445,564.1443 590.0175,545.5146 595.5536,530.8704 598.9129,518.6908 599.6771,513.9491 599.8928,509.7398 599.2997,505.2478 597.7568,502.1499 595.334,500.3413 591.5863,499.6397 587.2156,500.1891 581.9259,502.0556 576.1259,505.1577 570.0512,509.3601 564.1963,514.2178 558.2031,519.9531 552.7517,525.9143 547.4717,532.495 542.4722,539.6204 537.6352,547.4243 533.4219,555.1562 529.495,563.3609 525.5595,572.8664 521.8573,583.5282 518.4327,594.9824 515.3176,607.2314 510.9377,627.7242 501.2967,680.5012 496.7767,703.2591 492.492,722.1422 486.558,745.5052 481.4485,763.3998 475.988,780.6808 469.5859,798.4927 465.8718,807.4045 464.7207,809.365 465.5979,806.3352 469.3875,796.7258 477.4585,778.0021 487.9007,755.5232 500.8172,729.0934 528.1835,675.4784 583.2518,571.1553 600.862,535.8112 609.1065,517.2315 614.7269,502.2685 616.6169,495.9763 617.8296,490.742 618.5341,485.6952 618.6281,481.582 618.0344,477.4619 616.5794,474.0608 614.585,471.9022 611.4671,470.3538 607.6557,469.7698 603.2998,470.0979 598.1693,471.3529 592.1509,473.5975 586.0379,476.5425 579.5296,480.3404 572.8367,484.9001 566.5391,489.8139 560.5748,495.0927 554.5092,501.1416 548.9732,507.365 544.1425,513.5273 536.7035,524.8155 530.439,536.666 524.7563,550.9045 520.9005,564.7048 518.1383,579.3445 516.8941,595.9122 516.9552,602.062 517.6927,609.0681 518.75,613.125 519.4048,614.4148 520.1914,615.2168 521.0091,615.5513 521.8872,615.3368 524.329,613.005 526.741,608.955 529.5612,602.6843 532.3729,595.3097 535.659,585.3232 542.4747,561.2916 548.36,536.7826 554.6287,506.0614 559.6412,477.0906 563.8744,447.6633 566.9441,421.0242 569.3246,394.0395 570.9412,367.991 571.7564,343.2503 571.7913,319.5728 571.0203,294.6798 569.5305,271.5107 567.3229,249.8321 564.5758,230.6376 561.1939,212.6999 556.9702,194.9788 552.0902,178.3854 546.5978,163.0971 540.6927,149.5839 534.2953,137.5762 527.2898,126.9365 519.5882,117.6299 515.538,113.5649 511.3676,109.9073 507.0869,106.6683 502.7055,103.8594 498.2332,101.4917 494.0074,99.6982 489.3872,98.2136 485.0407,97.2597 480.3086,96.7003 475.875,96.625 471.2721,96.9992 466.6803,97.821 462.1108,99.0794 457.2522,100.8995 449.2769,104.981 441.2038,110.5564 433.7194,117.1314 426.2941,125.1629 419.4909,134.073 413.0996,144.0976 407.2725,154.9712 401.8845,166.93 397.1373,179.5409 393.0527,192.6783 389.5655,206.6079 386.8702,220.5569 384.8571,235.0278 383.5441,249.9262 382.9353,265.1649 383.0389,281.0174 383.7599,295.5079 385.0968,310.3017 386.9562,324.3942 389.4536,338.775 392.5931,353.3497 396.3563,368.0168 400.8031,382.9989 405.7546,397.7304 410.6978,410.9012 416.0939,424.0218 422.16,437.656 429.2473,452.5807 440.7514,474.9488 468.2037,525.3168 481.0043,551.3416 486.0077,563.313 490.4467,575.7377 493.5222,586.4182 496.039,597.761 498.5313,615.0114 499.6104,630.4883 499.463,650.017 497.7247,671.7439 494.719,693.4192 490.3346,717.339 484.7177,741.6402 477.553,768.2227 476.6454,772.6774 478.8432,768.8319 492.8598,739.4919 504.696,715.6339 561.5078,604.4899 579.5176,567.6991 588.0879,548.4771 593.6603,533.8931 597.0173,521.8716 597.8262,517.0309 598.0858,512.71 597.5026,508.1722 596.0139,505.013 593.6992,503.1202 590.4458,502.4432 586.0496,502.975 581.1254,504.723 575.415,507.8227 569.5725,511.8176 564.0375,516.3549 558.199,521.9439 552.8326,527.82 547.7832,534.1166 542.8907,540.9913 538.4116,548.1305 534.3312,555.5994 530.392,563.8279 526.0725,573.9415 522.603,583.5487 518.8143,595.5091 515.5424,608.0087 510.6533,629.7371 503.1618,669.7992 495.8211,705.8039 493.189,717.4777 487.8553,738.5191 482.0583,759.6505 477.4986,774.2761 471.2194,792.4461 466.722,803.423 471.0204,792.1283 480.4461,770.8239 491.3264,747.6704 504.5115,720.735 529.6605,671.6186 578.5511,579.017 588.3961,559.574 596.9846,541.8134 605.4836,522.6964 610.9841,507.9976 612.9832,501.3822 614.3607,495.5975 615.1207,490.6177 615.2678,486.4166 614.6267,482.3132 612.8716,478.7147 610.2348,476.4201 606.8122,475.2928 602.3619,475.2184 596.8108,476.247 590.8833,478.3308 584.9169,481.2727 577.9548,485.4856 571.1302,490.3413 564.2048,496.0356 557.4832,502.3267 551.8317,508.4057 546.2067,515.3582 541.1335,522.4383 536.5246,529.8175 533.0,536.2722 529.9318,542.671 524.4199,556.7096 520.5437,570.2688 518.3409,580.2035 517.1246,587.3729 515.9195,596.8356 514.8555,609.7379 514.4597,619.6502 514.5207,630.1529 514.9837,638.9381 515.8334,645.8943 517.0742,650.584 517.9102,652.0332 518.7072,652.6991 519.8843,652.7407 520.9562,652.2442 523.3567,649.3778 526.9473,642.5133 530.416,634.04 533.9508,624.2669 537.8508,612.0107 547.2548,578.5172 554.3465,548.4918 561.592,513.042 567.6149,478.5218 572.419,445.4256 575.9435,414.9509 578.7251,383.2683 580.466,353.5089 581.239,325.0564 581.0579,296.8571 579.9202,269.6699 577.8678,244.1495 574.8779,219.9233 571.0487,197.6383 566.3636,176.9188 560.7063,157.1548 554.3422,139.2851 547.2213,123.1088 543.4147,115.7492 539.3961,108.7968 535.3533,102.5563 531.1157,96.7435 526.8474,91.5703 522.1551,86.5833 517.2928,82.1011 512.2757,78.1339 506.7925,74.4941 501.5044,71.6205 496.1083,69.2926 490.6194,67.5204 485.0531,66.314 479.4246,65.6833 473.7491,65.6385 468.042,66.1896 462.5139,67.2968 456.9728,68.9728 451.4778,71.1918 445.7439,74.1028 440.39,77.3802 434.8379,81.3673 426.5989,88.449 418.4332,96.9691 410.6984,106.6189 403.463,117.313 396.8791,128.7963 390.8275,141.2114 385.2932,154.6188 380.4514,168.584 376.2128,183.3639 372.7187,198.4806 369.977,213.8076 367.9843,229.3278 366.7305,245.1467 366.217,261.1784 366.4479,277.7289 367.4237,294.3149 368.9805,309.7503 371.1337,325.0838 373.8203,340.0247 377.1625,355.0783 381.0634,369.833 385.6963,384.9474 390.9119,399.9336 396.9135,415.4018 402.2087,427.8506 408.0974,440.601 414.354,453.1755 421.3884,466.4297 434.5875,489.6834 465.3182,540.9137 475.3832,559.2648 480.6899,570.0718 484.7276,579.3503 489.2012,591.3339 492.2,600.9634 495.2295,614.7029 497.0442,627.0064 498.0534,642.7541 497.9904,657.3552 497.2919,669.9526 495.3359,688.3685 492.6405,706.6459 488.4542,730.0932 487.899,735.4031 488.1045,737.3009 488.766,737.167 489.427,736.499 491.8331,732.84 501.1304,715.5518 542.6809,633.5611 560.7631,596.0787 569.0179,577.4183 575.0098,561.4628 578.375,549.375 579.0786,544.8322 579.1824,540.7708 578.5726,537.7474 577.297,535.7671 575.5499,534.6767 572.9958,534.4192 569.9862,535.189 566.5581,536.8843 562.5151,539.654 558.2358,543.2782 554.5734,547.017 550.4287,551.8688 542.4085,562.827 535.3599,574.7049 528.7829,588.0239 524.8396,597.3794 520.8725,608.1776 512.578,635.0623 508.0213,652.4174 485.6459,742.4508 484.2846,748.542 484.25,750.625 485.18,749.813 486.7812,747.1797 495.4029,730.3163 548.5677,625.1545 567.5083,586.1136 576.1583,566.4286 582.0414,550.8793 584.0225,544.3882 585.3594,538.75 586.0626,533.9858 586.1428,530.1166 585.4682,526.5137 584.1716,524.1779 582.3012,522.8346 579.4919,522.4462 576.0938,523.1094 571.8788,524.9426 567.3518,527.7799 562.6303,531.4791 557.805,535.9462 553.4854,540.5483 549.1759,545.7963 544.821,551.7377 537.0174,564.3013 529.9842,578.3449 525.5822,588.5853 522.5754,596.4617 518.1585,609.5725 515.2971,619.3823 507.8277,648.7231 491.9336,717.2623 487.0948,735.8502 479.7513,761.964 478.3165,768.3109 479.9911,765.5357 511.7661,700.8558 560.3415,605.8177 576.6918,572.2306 585.5804,552.18 591.4332,536.8071 594.8075,524.8096 595.593,519.8824 595.7281,515.9085 595.1056,511.8012 594.4062,510.0625 593.4688,508.69 591.2181,507.0876 587.8192,506.4704 583.8491,507.0058 579.4033,508.6264 573.8563,511.6927 568.338,515.5833 563.0975,520.0005 557.3968,525.5074 552.2209,531.2162 547.6323,537.0017 542.6108,544.2188 537.5694,552.4154 533.915,559.1263 530.168,566.9707 526.7904,574.752 523.8229,582.5942 520.035,593.8301 517.5043,602.6197 511.4228,627.6607 498.4103,691.769 490.0193,727.9791 485.56,745.0173 479.25,766.6902 474.2407,782.1806 469.367,795.5013 475.3389,781.1388 483.0693,764.0236 505.1888,718.3897 524.8878,679.6284 575.3964,582.9288 592.3361,548.8001 600.6504,530.1087 606.5464,514.6003 609.7545,503.133 610.5817,498.076 610.8193,493.7831 610.1533,488.724 609.4541,486.9105 608.375,485.25 606.8842,483.8733 605.1066,482.8949 603.071,482.2986 600.8062,482.0685 595.7041,482.6429 589.279,484.7361 582.3663,488.1239 574.895,492.7769 567.9878,498.0396 561.1328,504.1644 554.3674,511.0572 548.4359,517.9944 543.1767,525.0718 538.4328,532.4855 533.3187,541.6839 529.283,550.0823 525.2002,560.245 521.8981,570.5278 518.9188,581.649 516.0566,595.7025 513.7873,611.0629 511.985,626.1784 508.1455,666.7822 505.0401,691.4869 500.9109,716.2195 497.2739,733.1296 492.9032,750.7411 486.9689,771.9694 480.7408,791.2419 475.5892,806.1636 468.4185,824.7404 461.8384,840.0959 455.5753,852.8556 449.7223,862.473 447.902,864.5432 446.8532,864.8776 446.375,864.0 446.3447,862.32 447.5727,856.3425 450.5204,846.9029 455.2107,834.0117 466.8594,806.0469 482.5691,771.9339 503.7921,729.0545 530.0673,678.8501 554.5777,633.8156 606.5906,540.5411 619.1483,517.2646 629.0164,498.1961 639.0462,477.2774 645.827,460.7564 648.0762,453.9749 649.7766,447.5167 650.767,441.8961 651.087,437.0735 650.8938,433.8184 650.2615,430.7789 649.2134,428.2489 647.7727,426.1667 645.7757,424.3271 643.4008,422.9541 640.6854,422.0103 637.6667,421.4583 633.9546,421.2594 629.9591,421.456 620.6167,423.0088 610.2566,426.007 598.3246,430.6291 586.074,436.3593 574.6512,442.6818 563.6464,449.8068 553.3927,457.6086 544.3548,465.6942 536.4528,474.1686 530.0339,482.672 525.4682,490.7824 528.0354,481.7349 530.7494,469.4604 535.1169,442.885 538.0907,416.0632 539.7299,388.2663 540.1569,361.5822 539.1803,333.4018 537.1243,311.0573 533.4332,287.6413 531.2358,277.1859 528.7802,267.4279 525.9695,258.0914 522.8995,249.448 519.5221,241.3725 516.006,234.2819 512.3871,228.1677 508.5,222.75 504.0959,217.7794 499.5258,213.7126 494.823,210.5994 490.3433,208.5981 485.8041,207.5117 480.9715,207.3709 476.0885,208.2361 471.6501,209.9446 467.0166,212.7539 462.8892,216.2579 458.8441,220.7706 455.0673,226.1239 451.6299,232.1845 448.3839,239.2584 445.5259,246.9713 443.1356,254.9956 441.2439,263.198 439.7911,271.685 438.7203,280.7874 438.0629,290.473 437.846,300.5911 438.0606,310.5605 438.7026,320.8504 439.7404,331.0294 442.6981,349.8938 447.1638,369.3878 453.4451,391.1162 460.6986,411.3808 469.5741,433.0741 481.3379,458.6427 489.5321,475.0355 498.3611,491.6569 504.833,502.672 507.8508,506.995 510.5808,510.2384 512.2243,511.7266 514.4397,513.0 516.6844,513.4795 518.4865,513.0616 520.625,511.625 522.5896,509.3054 524.4417,506.28 526.3552,502.2811 528.3154,497.1729 531.8726,484.9521 535.7697,467.8497 538.9255,449.2838 541.6175,429.0859 543.6364,408.0369 544.9222,387.0815 545.5013,365.7613 545.4203,345.8347 544.656,327.1624 543.0945,308.3387 540.8615,290.4259 538.467,276.1368 535.6711,262.9674 532.244,249.9435 528.4863,238.247 524.5023,228.0342 520.0511,218.6935 515.419,210.8299 510.0866,203.5316 504.4288,197.4497 498.5011,192.6816 492.6555,189.4509 486.5091,187.5457 480.3896,187.0596 477.1556,187.3552 473.941,188.0314 467.6183,190.5176 461.8489,194.2431 457.0194,198.5782 452.4979,203.7473 448.2915,209.6991 444.4211,216.3797 440.9075,223.735 437.625,232.125 434.9367,240.7113 432.7446,249.6838 430.9591,259.3512 429.6028,269.6717 428.6922,280.5864 428.2744,291.447 428.367,302.2075 428.9209,312.8924 429.9686,324.2055 431.4803,335.6914 435.0552,354.9828 440.3462,375.9066 446.8695,397.0344 454.9505,418.7361 462.5897,437.1546 475.3249,464.9832 492.4604,500.3572 508.2019,533.9144 510.9568,538.9963 514.3666,544.4487 516.3868,546.477 518.1953,547.4727 520.4297,547.3867 522.3993,546.1882 524.5934,543.6345 526.5251,540.3682 528.7923,535.4156 530.8922,529.8167 535.8538,512.9741 540.4654,492.7977 544.6964,469.9465 548.238,445.6945 550.6894,423.7066 552.8773,397.3301 554.0331,375.462 554.4672,354.0791 554.2106,332.0704 553.2263,310.9504 551.5413,291.1388 549.0743,271.8322 546.3185,255.8464 543.0747,241.0346 539.4017,227.5151 535.1159,214.6586 530.2376,202.562 524.8209,191.516 519.2718,182.2964 513.2618,174.3071 507.0299,167.8991 500.1342,162.6149 492.9801,158.8504 489.1559,157.5044 485.6459,156.6632 481.7585,156.1662 478.2097,156.1106 474.6556,156.4386 471.1046,157.1565 463.9762,159.7718 456.8345,164.0044 451.129,168.6493 445.4255,174.5593 440.0616,181.4677 435.1329,189.2286 430.7271,197.63 426.6585,207.0193 423.1102,217.0036 419.9954,227.87 417.5403,238.7709 415.6208,250.1134 414.2787,261.7917 413.5122,273.5599 413.2754,286.1062 413.5967,298.964 414.4932,312.3984 415.8593,324.9662 419.1334,344.9078 423.7603,365.2892 429.647,385.9876 436.9172,407.1639 444.0362,425.266 450.9727,441.2137 486.9776,517.3773 494.9501,536.7195 500.047,551.4287 502.7289,560.2131 506.931,577.1504 510.6874,598.0452 513.415,617.0078 515.099,626.3536 516.9531,632.8906 517.875,634.75 518.7966,635.7012 519.8757,636.0226 520.803,635.849 523.0378,634.0526 525.6848,629.9442 528.1999,624.6313 531.908,615.0446 535.8332,603.5993 543.336,577.6723 550.4729,548.4009 557.5842,514.7229 563.495,481.2991 568.3549,448.5237 571.7501,420.0222 574.4329,390.7619 576.1483,363.5341 577.0157,336.8752 577.0151,310.1255 576.156,284.2093 574.4384,259.4918 571.895,236.3307 568.6625,215.3396 564.5446,195.0117 559.6407,175.8944 554.0877,158.4792 547.8242,142.553 541.0447,128.5732 533.6178,116.2398 525.6962,105.7349 521.2293,100.7844 516.6095,96.3074 511.8485,92.3194 507.2674,89.0385 502.2669,86.0419 497.4823,83.7175 492.6142,81.8755 487.6724,80.5285 482.6668,79.6892 477.6071,79.3705 472.6432,79.5653 467.3949,80.2923 462.1579,81.5415 456.9477,83.3004 451.7797,85.5561 446.6693,88.2961 438.2194,93.9827 430.0518,100.9513 422.2407,109.1411 415.125,118.125 408.1977,128.5526 401.8563,139.8668 395.9696,152.2944 390.6116,165.7671 386.0859,179.4439 382.1702,193.9275 379.0192,208.7159 376.6307,223.7183 374.9189,239.4999 373.9753,255.2284 373.7582,271.5763 374.2974,288.049 375.4061,302.7142 377.1417,317.6054 379.4251,332.0092 382.353,346.6507 385.9192,361.4315 390.197,376.5899 395.1491,391.9567 400.5856,406.9722 405.7033,419.6913 411.4131,432.696 417.7999,446.1698 425.3115,461.0479 438.2999,484.9814 466.218,533.532 477.9972,556.1165 482.811,566.6275 487.4473,578.427 490.8117,588.4162 493.273,597.695 496.2704,613.0842 497.9952,628.9698 498.5,641.5 498.0024,660.5752 496.2349,679.9719 493.51,698.5818 489.3171,720.939 483.6134,747.6657 483.1181,751.0893 483.3124,752.3006 484.144,751.6286 485.3356,749.7693 490.67,739.6774 550.3719,621.7538 568.0914,585.2045 577.0224,565.1864 582.6044,550.5796 586.1706,538.125 586.9814,533.2277 587.1392,529.2511 586.669,525.749 585.3899,522.968 583.375,521.375 580.5,520.7917 577.125,521.2917 573.25,522.875 568.4407,525.7389 563.808,529.2147 559.3297,533.2543 554.9763,537.8259 545.5187,549.6497 541.3465,555.9306 536.625,563.875 530.2577,576.3886 525.4844,587.7227 521.2293,599.2145 517.8565,609.7269 513.4681,625.0975 507.077,651.5587 497.6298,693.491 490.4186,723.0679 477.4623,770.8542 479.3516,767.6208 507.6789,709.4636 559.1464,608.9306 578.951,568.5447 587.0031,550.2647 592.9515,534.4328 596.2062,522.6756 596.9611,517.8589 597.1363,513.6619 596.5608,509.6351 595.0224,506.5617 592.5871,504.7295 589.1781,504.0402 585.1322,504.5845 580.2231,506.4079 574.954,509.2464 569.1833,513.2226 563.7302,517.7469 558.2772,522.9883 552.7416,529.0325 547.9577,534.9923 543.1019,541.8796 538.1855,549.7246 533.938,557.3738 530.2646,564.9387 526.4342,574.1751 521.8721,586.7439 518.7334,596.8149 515.4398,608.8774 510.1797,632.8437 500.3252,683.1408 496.0892,703.3625 491.3071,723.8924 486.4635,742.9321 482.1973,758.2841 477.4667,773.568 472.0712,789.4118 467.9059,800.1162 471.8514,789.8049 479.6951,772.0901 490.6812,748.6573 502.7852,723.8845 528.441,673.57 576.7039,581.6419 594.2886,546.176 602.7483,527.3194 608.5393,512.3428 612.1009,500.143 613.0196,495.1716 613.3738,490.9423 612.8858,485.7136 612.1335,483.4214 611.067,481.5637 609.709,480.1253 608.0822,479.0911 606.2094,478.4458 603.6789,478.1109 598.0309,478.5674 591.7276,480.4439 584.3615,483.9499 576.4932,488.7115 569.4749,493.8294 562.2566,499.982 555.5422,506.6385 549.4246,513.6622 543.4513,521.563 537.8337,530.1532 532.9998,538.7377 528.9514,547.2949 524.6824,558.3525 521.0647,570.1583 517.9397,583.607 515.7344,597.0464 514.1749,610.8888 513.0142,625.881 511.8363,658.4473 511.0312,692.8749 509.5556,715.0648 508.3775,725.3157 505.5933,741.6387 502.9195,753.6031 499.7239,765.7068 493.694,785.7738 485.5471,809.3621 474.477,837.4742 464.0151,861.4423 453.0754,883.2675 448.337,891.776 444.0746,898.7128 439.8556,904.8034 436.3292,909.0008 433.5678,911.2328 432.5,911.625 431.5622,911.5416 430.6211,910.4403 430.2251,908.0625 430.4046,904.7197 431.1558,900.1359 434.3193,887.8685 439.503,872.2429 446.4194,854.0134 454.9908,833.3589 465.0036,810.82 475.8874,787.6735 489.1502,760.7463 504.0914,731.5483 520.3016,700.8819 537.4601,669.3517 569.7961,612.0927 634.3844,500.7729 647.2049,477.9249 657.4019,458.9365 667.8849,437.6808 671.7314,428.835 674.6765,421.1721 677.03,413.8836 678.588,407.5 679.3855,401.9713 679.4374,396.9601 678.406,391.8917 676.2946,388.1144 672.8867,385.0578 668.2401,382.9032 662.7291,381.749 655.6511,381.445 647.0227,382.0797 637.0774,383.6001 626.9319,385.788 616.0975,388.6908 600.933,393.393 587.9138,397.9551 574.5937,403.3604 562.327,408.833 530.9881,424.8634 527.72,425.984 526.2552,426.0416 525.3772,425.7667 524.4313,424.7592 523.7648,423.1206 523.172,418.6845 523.9044,383.2821 523.5694,365.1389 522.7894,352.3279 520.6196,332.5371 518.342,319.604 516.2111,309.9466 513.2452,299.9213 509.8348,290.7234 506.554,283.9264 502.7335,277.9483 498.4623,272.9834 494.3754,269.9078 489.9285,268.1756 487.731,267.9299 485.5443,268.111 483.0,268.875 480.3309,270.3241 477.83,272.3622 475.7483,274.6683 473.5653,277.8189 471.7808,281.1018 468.5418,289.7042 466.1708,299.8942 465.0865,309.4491 464.7602,323.8958 465.4795,335.987 467.429,350.7289 470.1602,363.8844 474.1217,378.6687 479.4225,393.9173 485.0275,407.1323 490.3637,417.53 496.026,426.1665 499.213,429.8191 501.8099,432.1696 504.4656,433.5584 507.062,434.081 509.5556,433.3056 511.9078,431.4944 513.9997,428.5071 516.1059,424.012 517.9998,418.557 519.4488,412.7676 522.0848,395.8745 523.5176,375.0859 523.3618,354.1037 521.9422,334.655 519.6707,318.291 516.2531,303.0589 512.2766,290.3188 507.2872,279.2511 504.553,274.4822 501.8635,270.654 499.2271,267.7166 495.9786,264.9801 492.9472,263.1311 489.896,261.9928 486.8148,261.6052 483.7454,261.9795 480.7981,263.071 477.9771,264.8777 475.2822,267.3996 472.9271,270.3404 470.7246,273.8874 468.6122,278.264 465.2563,288.2302 463.1937,299.0804 462.1102,312.5001 462.1887,324.9437 463.3341,339.3699 465.4019,353.2174 468.917,369.2244 472.7074,382.1941 478.04,397.3408 484.6803,412.7326 491.5255,425.7626 494.375,430.2182 497.7948,434.7483 500.1098,437.3334 502.7107,439.5575 505.573,441.169 508.6764,441.4822 511.2279,440.583 513.637,438.3422 516.0064,434.4762 518.19,429.3193 519.8259,423.8904 521.5744,416.1523 523.0968,407.2183 524.5025,396.1783 525.225,387.4299 525.6467,377.0282 525.6114,355.3837 524.9791,343.4333 523.9807,332.3839 521.1797,313.6698 517.8964,298.5042 513.3905,284.6202 510.8519,278.4756 508.2563,273.1942 505.625,268.75 502.2571,264.0734 499.0469,260.5 495.7286,257.7042 492.5832,255.8776 489.0169,254.6962 485.3422,254.3981 482.0962,254.969 479.2674,256.1595 476.2822,258.1714 473.5067,260.7871 470.925,263.9953 468.5451,267.7799 466.375,272.125 464.5846,276.6349 462.9616,281.8605 460.4729,293.8144 459.0908,307.12 458.9881,321.198 460.0479,335.8388 462.4233,352.0811 465.7491,367.675 470.745,385.0601 476.4199,400.9727 481.7264,413.6727 489.9795,430.1052 496.9824,441.0886 500.3873,445.0975 503.4445,447.9744 506.7706,449.7861 509.5172,450.1921 511.0308,449.8219 512.484,449.057 514.9445,446.6566 517.4083,442.6963 519.7806,436.99 521.9377,429.8123 523.6816,421.8105 525.2919,412.0856 526.5238,401.5732 527.5865,389.2758 528.1142,378.2964 528.2715,364.7436 528.0143,352.3799 527.3324,340.775 526.2149,329.0805 523.375,309.875 519.41,292.2601 517.1619,284.7047 514.7525,277.9495 511.939,271.3426 508.8476,265.2501 505.5324,259.8735 502.2272,255.5731 498.5254,251.8446 494.9568,249.1414 491.3193,247.2621 487.6399,246.2698 483.8816,246.2263 480.4596,247.0248 477.1431,248.5923 473.9554,250.898 470.9194,253.911 468.1869,257.4363 465.5822,261.7205 463.2434,266.5779 461.1782,271.9691 459.4031,277.8289 457.9327,284.1833 456.7476,291.2231 455.375,306.5 455.4158,320.4818 456.7591,336.4626 459.3013,352.9335 463.6774,371.9308 468.307,387.634 474.3092,404.4474 482.8878,424.2321 490.7207,439.386 494.4615,445.5237 498.8047,451.8104 501.6655,455.1384 504.9999,458.1722 506.864,459.3295 508.6823,459.9945 510.4166,460.2434 512.0703,460.0664 513.371,459.5286 514.9397,458.3882 517.7487,454.8173 520.461,449.3845 522.8516,442.2398 524.8913,434.1427 526.989,422.9282 528.6142,411.9356 529.7375,400.3164 530.6614,385.9013 531.0699,372.2084 531.0493,359.2053 530.6157,346.7794 529.688,333.9754 528.3379,321.0507 526.9039,310.8123 525.2265,301.48 522.8808,290.9484 520.4618,281.8942 518.0517,274.3818 515.4628,267.6683 512.3546,260.9851 508.9582,254.8418 505.3424,249.4785 501.7302,245.2112 497.765,241.6454 493.6418,238.9412 489.4757,237.2017 485.6426,236.5098 481.8178,236.7324 477.96,237.8972 474.3002,239.8694 470.8053,242.6411 467.49,246.1975 464.5074,250.3095 461.7472,255.0887 459.3032,260.3882 457.1687,266.181 455.2325,272.8463 453.6701,279.8283 452.5485,286.7093 451.2656,301.8274 451.3147,318.9362 452.7486,336.0412 455.6454,354.1963 460.0159,372.6893 465.389,390.7666 473.1707,411.925 483.2108,434.4222 492.0994,451.2921 500.3047,463.8581 503.1655,467.2524 506.125,470.0 507.9676,471.291 509.7452,472.1011 511.7928,472.4922 513.4469,472.3164 515.0844,471.5912 516.6875,470.3507 519.4943,466.7595 522.3999,460.6702 525.2706,451.9411 527.3225,443.4972 529.6859,430.5739 531.4494,417.9357 533.2498,399.9557 534.0047,387.5939 534.4295,371.2 534.4299,356.6199 533.9803,343.5031 532.8977,328.0728 531.3669,314.028 529.7156,303.1088 527.6206,292.3068 525.1897,282.0012 522.4818,272.4877 519.529,263.8829 516.3788,256.2599 512.7353,248.8666 509.0002,242.5941 505.0148,237.1687 500.9191,232.8164 496.5468,229.3238 492.072,226.8298 487.535,225.3826 483.3263,225.0172 478.9215,225.6665 474.4608,227.3716 470.4699,229.8629 466.9446,232.9267 463.3281,237.0615 460.1579,241.693 457.1169,247.2608 454.4291,253.4201 452.0943,260.1178 450.1128,267.3008 448.5424,274.6964 447.3724,282.3742 446.5485,290.6539 446.1009,299.1195 446.2692,317.3325 447.962,335.8789 451.1316,355.1763 455.9082,374.9176 461.8272,394.282 470.3649,416.9277 474.7351,427.2308 481.8677,442.7921 491.5947,461.6276 500.4392,476.311 504.1614,481.155 507.7808,485.0262 509.9501,486.6472 512.0,487.625 513.4976,487.914 515.348,487.697 517.1484,486.8633 518.8884,485.396 520.5195,483.3526 522.1022,480.693 525.5045,472.5031 528.3499,462.9231 531.3113,449.6476 533.8416,434.6328 535.8068,419.3014 537.2409,403.1567 538.3269,385.6451 538.7438,369.95 538.544,351.7512 537.7982,334.6223 536.5109,318.7321 534.6119,303.0698 532.6498,290.9517 530.3013,279.4858 527.5823,268.8327 524.4448,258.6733 521.0536,249.4949 517.2952,241.0351 513.3418,233.7179 509.0779,227.3053 504.2764,221.5217 499.5144,217.1082 494.561,213.794 489.75,211.75 484.6012,210.7618 479.5148,210.9598 474.5193,212.3154 469.3006,215.0199 465.0189,218.2977 461.2416,222.1263 457.5065,226.9476 454.0684,232.4886 450.7634,239.0762 447.8813,246.1591 445.5463,253.3079 443.5274,261.2006 441.9294,269.4407 440.6907,278.3547 439.875,287.5 439.4722,296.994 439.5003,306.9204 439.9465,316.8477 440.8115,327.1004 442.077,337.4426 445.5477,356.8021 450.6733,377.3353 457.0399,397.4314 465.2539,419.3223 476.889,446.0146 489.7364,472.0712 496.8506,485.4137 503.232,496.1653 506.9897,501.5887 510.7084,505.8989 512.9306,507.4907 515.125,508.3401 516.9902,508.3025 518.8144,507.5269 520.706,505.9589 522.4375,503.7656 524.169,500.7807 525.9419,496.7642 529.7554,485.8367 533.5509,470.6812 536.6078,454.7559 539.3657,436.0859 541.5101,416.1549 543.0942,395.3945 543.9252,376.2233 544.1672,355.985 543.7835,338.6567 542.8153,322.4947 540.9833,303.4585 538.6419,286.3691 536.2507,273.3648 533.3192,260.9262 529.7407,248.5231 525.9016,237.567 521.8806,228.0987 517.4232,219.5191 512.3792,211.6772 507.2432,205.2372 501.8383,199.9536 496.1908,195.9316 490.625,193.375 484.4672,192.0131 478.3136,192.0665 472.5903,193.4031 466.6504,196.1831 461.261,200.0684 456.7385,204.4696 452.5151,209.6797 448.6033,215.6441 445.0157,222.3083 441.7649,229.6176 438.8573,237.5739 436.4098,245.9566 434.3354,255.0722 432.7217,264.5119 431.5061,274.5998 430.723,285.1816 430.4603,295.1321 430.6553,305.4253 431.3086,316.0219 432.4113,326.8747 433.986,338.1743 438.1325,359.2691 444.25,382.5 450.4861,401.7331 458.877,423.6823 464.6893,437.3195 473.8347,457.292 496.6248,504.5108 508.6611,528.6003 511.5185,533.0694 514.6528,536.9676 517.0626,538.6411 518.9825,538.9997 521.1793,538.0944 523.2167,536.243 525.0558,533.6705 526.9213,530.0872 529.6415,523.4315 531.8177,517.1256 536.5437,499.3011 540.8965,478.4961 544.5124,456.8041 547.7027,432.1253 549.827,410.2033 551.2818,387.6413 552.0781,365.5538 552.1454,344.6266 551.4254,322.9055 550.0284,302.5087 547.9652,283.5384 545.2016,265.7352 542.0889,250.4184 538.4315,236.0255 534.2476,222.7365 529.6976,211.0185 524.31,199.8322 518.5055,190.0574 512.4745,181.9043 506.0409,175.1268 499.5028,170.0356 492.6668,166.4599 489.049,165.214 485.4072,164.3866 481.752,163.977 478.0938,163.9844 474.443,164.408 470.8102,165.2471 467.206,166.501 463.6408,168.1689 456.7097,172.7024 450.1742,178.6593 445.2158,184.4322 440.577,191.0011 436.2886,198.3073 432.2056,206.6881 428.7902,215.1566 425.681,224.5306 423.06,234.3174 420.8541,244.8226 419.2173,255.2183 418.0248,266.1937 417.3478,277.0865 417.1406,288.6436 417.4362,300.5108 418.2023,312.2542 419.4812,324.5654 421.2469,337.0018 424.2866,352.9573 428.3544,369.62 433.8933,388.4145 439.6283,405.1034 446.0592,421.5967 454.2317,440.8364 484.9484,505.9464 490.3399,517.9504 495.498,530.4085 499.5204,540.9678 504.2149,555.2094 508.143,568.5067 515.1408,594.8023 517.2321,600.1243 519.088,602.401 519.9299,602.8889 520.97,602.9722 522.112,602.5556 523.2423,601.6511 525.8226,598.2107 528.4693,593.0801 531.3142,586.0295 534.827,575.5885 541.3762,552.7788 546.9688,529.0753 553.7796,494.6477 558.7202,464.2389 562.678,434.3315 565.2132,409.3027 567.344,380.1346 568.4588,354.6991 568.7427,330.4773 568.1476,305.1464 566.7169,280.5663 564.5013,257.7608 561.5298,236.6916 557.899,217.6139 553.5358,199.7493 548.4569,183.1168 542.7072,167.8954 536.3316,154.2334 529.5534,142.5248 522.0848,132.2451 517.9561,127.5212 513.975,123.5288 509.5834,119.7106 505.3765,116.588 500.7641,113.7282 496.3709,111.5246 491.5798,109.6758 487.0394,108.4403 482.4421,107.6898 477.772,107.4346 473.0607,107.68 468.3541,108.418 463.6666,109.6378 458.6816,111.4667 454.0789,113.6495 449.2175,116.4851 444.7608,119.584 440.0886,123.3761 433.759,129.48 428.0,136.125 422.5332,143.5472 417.2416,151.9352 412.3517,160.9571 407.729,170.8941 403.5749,181.357 399.9084,192.2674 396.7488,203.5469 394.165,214.8665 392.0571,226.5397 390.4119,238.6789 389.2543,251.2411 388.6171,263.7941 388.4764,276.661 388.8476,289.774 389.7358,302.9781 391.1534,316.2036 393.0971,329.4352 395.5445,342.6275 398.6356,356.4468 402.2837,370.4127 406.4758,384.5074 410.9997,397.971 420.3521,422.0329 432.055,447.9682 442.8604,469.4598 468.5446,518.0027 477.0394,535.0576 481.9785,545.6948 487.4902,559.427 491.6784,571.5095 495.2583,584.6854 497.6665,596.3497 500.1211,615.9959 500.6341,624.6706 500.7981,634.5415 499.9147,657.6335 497.3991,680.1951 493.0319,707.1852 488.1682,729.9723 481.6516,755.2157 476.1964,773.8291 472.0886,786.6961 487.6642,752.8294 505.8159,715.6367 522.1436,683.5575 569.6344,591.9623 587.0999,556.5323 595.7114,537.2151 601.5765,521.8768 604.9326,509.7817 605.7232,504.872 605.9326,500.4153 605.2338,495.8972 604.4738,494.1275 603.3871,492.5644 602.0542,491.3722 600.4932,490.5353 596.7604,489.8649 591.6937,490.5631 586.1629,492.4694 579.5196,495.8297 572.7873,500.1725 566.4642,505.1409 560.121,510.9589 554.051,517.3237 548.3959,524.0992 543.1295,531.3082 538.4464,538.6459 533.8432,546.9251 529.8595,555.2113 525.3807,566.168 521.7227,576.8691 518.6729,587.8407 515.2512,602.6611 512.0701,620.4027 504.8837,669.3761 501.0717,692.6038 495.6449,719.1444 489.8592,743.4078 480.9868,774.4675 472.1753,800.5379 468.0422,811.3107 462.2733,824.7457 458.8299,831.5576 457.526,833.4812 456.9242,833.8302 456.7772,832.9878 457.1323,830.8908 459.1469,824.329 462.8881,814.409 468.3231,801.2682 481.95,770.8408 498.3662,736.7557 514.4645,705.0071 533.3409,668.9946 596.3493,552.4496 606.8088,532.2202 615.1851,515.1581 623.0003,497.7765 628.2613,483.9864 631.587,472.1675 632.4062,467.4688 632.7505,463.0533 632.5499,459.3093 631.7484,455.9928 630.3778,453.3197 628.4537,451.163 626.077,449.6336 622.9111,448.6088 619.7034,448.2682 615.6183,448.4778 610.7595,449.3006 605.3154,450.7607 599.7039,452.7499 593.625,455.375 581.5116,461.9059 569.5003,470.0785 559.2746,478.3834 550.0284,487.3027 542.2784,496.4145 535.19,506.584 529.2276,517.4601 527.0441,522.5871 524.9724,528.4815 523.6146,533.6161 522.5879,539.3008 522.4781,543.3378 523.0,545.1719 523.5648,545.5087 524.2508,545.3334 525.6894,543.6886 527.6481,539.8333 529.6698,534.8714 534.0726,520.7041 538.2451,503.4982 542.1629,483.7904 545.8349,461.4769 548.8136,439.1008 551.1645,416.4544 552.6486,396.638 553.6289,375.8026 554.0725,355.7453 553.9423,337.1918 553.2727,320.1499 551.8395,300.1424 550.055,283.0288 547.7597,266.7893 545.1016,252.3399 541.9583,238.776 538.1971,225.5225 534.0078,213.356 529.5889,202.6984 524.7018,192.9252 519.3841,184.2175 513.6699,176.5881 507.6177,170.1234 501.267,164.9114 494.6574,161.0399 488.1431,158.6757 481.3316,157.6581 474.3272,158.0556 467.7485,159.7618 460.9634,162.9263 454.707,167.2042 449.0,172.375 443.5041,178.6725 438.2122,186.1856 433.3796,194.5811 429.0335,203.7574 425.2013,213.6131 421.7967,224.4562 419.1542,235.2161 417.0324,246.6659 415.4563,258.742 414.4458,271.3632 414.0158,284.4293 414.1677,296.9292 414.9131,309.7207 416.2883,323.0288 419.5473,343.6555 424.1546,364.4813 430.0533,385.171 437.8641,407.988 445.1331,426.2162 455.8144,450.2722 480.9326,502.7769 487.4977,517.2409 493.2553,530.9746 499.4452,547.9292 504.3148,563.9847 507.7236,578.2143 515.138,618.6306 516.9801,624.7747 518.1381,626.859 519.1159,627.9719 519.8455,628.2628 521.0,628.125 523.1389,626.2824 525.6244,622.5783 528.3131,617.0945 531.982,607.7888 535.0608,598.9307 542.507,573.4457 549.5898,544.6562 556.1945,512.7525 561.5866,482.4105 566.3435,449.9711 569.6387,422.5967 572.0867,396.0755 574.0146,365.9443 574.9879,338.5652 575.0849,314.4245 574.3945,291.2779 572.7806,266.5143 570.3883,243.1911 567.3905,222.3815 563.7333,203.1481 559.4807,185.623 554.3615,168.7202 548.4731,152.8802 541.984,138.5908 534.9632,125.9575 527.2706,114.7933 523.2835,109.9419 519.1416,105.5045 514.8213,101.4745 510.6648,98.1151 506.4054,95.1547 501.7158,92.4187 496.933,90.1577 492.0705,88.3781 487.1418,87.0863 482.1605,86.2886 477.14,85.9913 472.4548,86.169 467.397,86.8549 462.7005,87.9565 457.7825,89.5999 453.072,91.6427 444.6929,96.4141 436.5704,102.4893 428.7656,109.7812 421.0913,118.5127 413.8904,128.3571 407.2307,139.2182 401.2828,150.7784 395.9436,163.1712 391.1627,176.5194 386.9941,190.7428 383.5705,205.3628 380.8306,220.6283 378.8691,236.0232 377.6604,251.7509 377.2174,267.4274 377.5216,283.6338 378.4479,298.3906 380.0253,313.5393 382.2138,328.604 384.9772,343.4317 388.3323,358.0619 392.3323,372.7791 396.9346,387.4823 402.3085,402.7258 407.422,415.942 412.738,428.5162 418.6421,441.3757 425.3596,455.0149 439.5605,481.913 468.351,533.04 478.4395,552.8438 483.5321,564.3683 487.6792,575.2952 491.6316,587.5458 494.4593,598.6368 497.2042,614.1472 498.5743,630.0296 498.8617,645.1371 497.9376,663.7013 495.724,683.6939 492.4038,705.326 488.3432,725.0155 481.6044,754.1601 480.8166,758.5098 480.8904,759.8278 482.4636,757.6799 486.0242,750.9184 515.3433,692.2468 553.0214,618.4572 572.0648,579.3611 580.7827,559.7657 586.5978,544.4697 590.1713,531.8657 590.9631,527.0691 591.1352,522.8501 590.5439,518.9094 589.1472,516.1799 587.0,514.625 583.4588,514.0872 579.664,514.7921 575.5763,516.53 570.0776,519.8492 564.7028,523.906 559.6911,528.3879 554.9943,533.2507 550.2265,538.8711 545.3792,545.3109 541.1794,551.6181 537.25,558.25 529.5865,573.5115 525.6872,582.6814 522.0748,592.6414 518.3247,604.3442 514.5,618.0 509.8884,636.9685 500.1348,682.3412 490.8935,722.3704 483.4724,750.0325 473.7891,781.9004 489.6591,747.9321 504.949,716.7564 522.786,681.6007 565.8944,598.1899 585.2388,558.8856 593.3847,540.5558 598.7268,526.4548 602.1466,514.1144 602.9355,509.3316 603.1848,505.0078 602.5446,500.3808 601.7793,498.416 600.753,496.8403 598.2757,494.9572 596.5645,494.4254 594.625,494.25 589.6311,494.9026 584.1385,496.7919 577.9693,500.0187 571.2031,504.5469 565.1021,509.4749 559.1281,515.11 553.3826,521.2423 548.0137,527.8094 543.0915,534.7257 538.2531,542.4727 533.6204,550.8662 529.4839,559.4344 525.1572,570.0377 520.625,583.75 518.3255,591.9503 515.2353,604.9952 510.9819,626.5866 503.1168,674.7454 500.4796,689.3316 494.9899,716.1527 489.0093,741.0231 481.4139,767.9536 473.7645,791.4186 465.8347,811.8748 462.5264,819.1435 460.7925,821.9593 461.1531,819.315 463.3926,812.6808 471.8042,792.1098 483.9652,765.3014 498.5241,735.2043 513.7812,705.0312 531.8148,670.3645 590.1179,561.1608 600.3776,541.1297 608.5175,524.4318 616.4077,506.7745 621.6002,492.9838 624.8471,481.0974 625.6098,476.3771 625.8691,472.068 625.466,467.871 624.4416,464.6854 622.8537,462.2256 620.4611,460.2697 617.5008,459.1111 613.9741,458.6763 609.5573,458.9091 604.7962,459.8184 599.386,461.486 593.6592,463.8519 586.9786,467.1801 580.7235,470.8066 574.9459,474.6267 568.3574,479.5293 562.4631,484.3729 556.967,489.4133 547.9254,499.1431 539.9151,509.6203 533.6064,519.8663 528.2489,530.9282 523.9783,542.719 521.0602,555.588 520.3386,562.5935 520.2694,566.7313 520.7891,570.8668 521.875,573.0 523.0469,573.2812 524.8278,571.8576 526.9592,568.4409 529.0465,563.8711 533.9817,549.6349 539.0895,531.0041 544.6502,506.1991 548.8376,483.4102 553.0565,456.4175 556.3218,429.9364 558.5423,406.8138 560.0331,384.9763 560.9217,362.1589 561.1826,339.9108 560.8059,319.2036 559.8118,299.6565 558.108,279.9662 555.7928,261.2164 553.0794,244.6021 549.7953,228.7719 546.0364,214.2287 541.6872,200.5278 536.7923,187.7978 531.3191,176.0329 525.4762,165.7084 519.3282,156.8734 512.7562,149.3711 505.7642,143.212 498.1413,138.2945 490.6184,135.0912 486.7928,134.0537 482.9355,133.3995 479.0545,133.1341 475.1581,133.2629 471.2544,133.7913 467.2583,134.7509 459.5712,137.7799 453.5657,141.2546 447.4462,145.8564 441.8378,151.1007 436.225,157.4626 431.1848,164.2898 426.4079,171.953 421.9797,180.3486 417.838,189.638 414.1593,199.4451 410.9482,209.6931 408.1201,220.6903 405.8035,231.9932 404.0312,243.3161 402.7352,255.167 401.9693,267.0366 401.698,279.2549 401.9454,292.137 402.759,305.5917 404.0781,318.6926 405.9419,331.7473 408.3476,344.7868 411.3367,358.1126 414.9705,371.9582 419.2447,386.2818 423.4942,398.9766 428.2069,411.7094 433.4586,424.7232 439.5688,438.8046 450.282,461.5134 475.7391,512.3827 482.4654,526.7852 487.2483,538.1048 493.82,556.0315 498.4663,572.0775 501.3535,585.3449 503.7631,602.0011 504.7492,614.9017 505.1235,629.2286 505.0418,639.4784 504.3276,653.9632 502.7629,670.3189 501.0946,683.737 498.9659,697.4082 495.8513,714.4386 492.1226,731.2305 488.8345,744.4667 483.2967,764.8043 477.6404,782.8446 472.5654,797.5689 466.1213,814.4432 460.7188,826.2188 459.0171,829.2091 458.0574,830.1456 457.9293,829.3576 458.411,827.12 460.9476,819.2948 469.3001,798.4441 481.9428,770.3467 497.7614,737.6556 524.7708,684.7521 590.7397,561.9617 603.2326,537.9356 612.5618,518.9743 620.5837,501.1158 626.1555,486.6096 629.4044,475.1895 630.2094,470.5076 630.5335,465.9861 630.296,462.1614 629.4201,458.6859 628.1231,456.2158 626.165,454.1576 623.2931,452.6 620.0455,451.7909 616.4095,451.5889 612.0423,452.0007 606.9417,453.1214 601.5014,454.8606 595.5851,457.2199 589.6506,460.0391 583.775,463.2668 577.1417,467.3949 565.1379,476.1335 555.8241,484.3991 547.167,493.6275 539.4211,503.4756 532.9429,513.6386 529.9494,519.5296 527.0068,526.3371 523.3782,537.5749 522.4062,542.125 521.8005,547.3795 521.8935,550.6065 522.4907,553.1806 523.0509,553.6528 523.75,553.625 525.4733,551.9436 527.48,548.25 529.6331,543.1875 534.6684,527.1449 538.8124,510.5381 543.0,490.25 546.8673,467.6034 550.0397,444.6819 552.8125,419.7031 554.4745,399.5815 555.5673,379.2221 556.1472,358.1908 556.1189,338.5285 555.501,319.9032 554.204,300.1808 552.411,281.9525 550.1534,265.3321 547.4368,250.1111 544.2536,236.065 540.3171,221.8554 536.0485,209.131 531.5327,197.9396 526.5247,187.6647 521.375,179.0 515.3899,170.8321 509.0155,163.9094 502.6032,158.5351 495.6217,154.3064 488.7266,151.672 481.8036,150.5004 478.3095,150.4427 474.4756,150.7793 467.5644,152.4413 460.4497,155.6026 454.1984,159.6702 448.1803,164.8448 442.5218,171.0008 437.1701,178.1825 432.237,186.218 427.5883,195.3662 423.4547,205.2301 419.8687,215.705 416.9337,226.3927 414.5202,237.6982 412.6388,249.6413 411.3496,261.7678 410.6112,274.3651 410.4465,287.3333 410.8608,300.2097 411.8728,313.4105 414.7701,335.2592 419.1834,357.5532 424.6923,378.4553 431.9491,400.5863 439.1497,419.5663 447.4118,438.7988 458.1806,461.9824 481.2378,509.4718 488.2407,525.4444 492.8866,536.8507 496.5445,547.0262 499.654,556.78 502.7029,567.9403 504.9097,577.4217 507.3813,591.0244 509.0374,604.36 510.3268,618.5176 511.5758,643.1171 512.7891,702.7168 513.071,707.4494 514.0,713.5 515.2269,715.8519 516.125,716.0 517.016,715.514 519.8866,711.5588 522.2871,706.5549 527.0161,695.1573 532.5681,679.3504 538.3479,661.5955 546.5781,633.7399 555.5272,600.1398 565.2172,559.4767 572.8417,522.9763 579.4896,486.4044 584.5732,453.3984 588.891,419.5394 592.3271,386.4246 594.7094,355.3824 596.1162,325.6857 596.5862,296.9748 596.1741,268.0839 594.8472,240.2613 592.6572,214.2744 589.6442,190.0103 585.7481,166.9076 581.0822,145.5685 575.3776,124.8318 568.9494,105.9 561.5967,88.195 553.6683,72.5716 549.3845,65.3308 545.0794,58.7812 540.5787,52.636 535.8823,46.9184 531.1261,41.7893 526.0152,36.9484 521.0514,32.8434 515.6277,28.9673 510.064,25.598 504.3746,22.7422 498.5738,20.4066 493.0252,18.6896 487.049,17.3828 481.0035,16.6158 474.9031,16.3954 469.1241,16.6932 462.2312,17.6909 455.688,19.2892 448.998,21.5906 442.0202,24.7126 435.1241,28.5201 428.3302,32.9827 421.6587,38.0703 415.1302,43.7526 408.7649,49.9994 402.3301,57.0742 396.3614,64.3797 390.384,72.4916 384.674,81.0822 379.2545,90.1172 374.3465,99.1773 369.5688,108.969 365.2328,118.8528 361.1093,129.331 357.3508,140.0323 353.954,150.9216 350.8204,162.3342 348.0657,173.8712 345.6864,185.4941 343.6201,197.5408 341.946,209.5951 340.6598,221.6142 339.2332,245.4055 339.2899,269.7297 339.886,281.9753 340.8715,294.3671 342.6401,309.8512 344.9844,325.2247 347.8783,340.4177 351.3693,355.686 355.3567,370.5989 359.8859,385.3238 365.0126,400.0124 370.7085,414.5632 378.2446,431.754 386.8512,449.3361 395.9183,466.1061 405.9377,482.9796 416.0294,498.6793 427.9614,516.1523 461.6496,562.0912 470.997,575.2741 481.0214,591.0658 487.7285,603.3227 492.0879,612.7738 495.0478,620.3097 497.6674,629.0869 499.6236,637.639 501.0861,647.139 501.9185,655.6895 502.6237,684.2355 503.25,688.0 504.0781,689.4375 504.6738,689.582 505.5579,689.2726 507.9658,686.8467 510.872,682.64 514.958,675.755 524.3709,658.2723 539.9565,626.1252 547.5551,608.4135 552.0684,596.2559 553.6722,590.682 554.5486,586.4341 554.8705,582.4609 554.4968,580.1772 553.754,579.243 552.8281,578.8594 551.666,578.982 550.4791,579.5255 547.0408,582.1945 543.0463,586.5871 539.0,592.25 536.359,596.6099 531.0651,606.473 527.0069,615.1728 523.2395,624.3186 518.6542,636.6864 514.678,648.722 510.8006,661.8155 507.092,675.5741 504.5059,686.9219 503.7263,692.8211 503.8451,693.883 504.3732,694.6177 504.9235,694.4883 505.7041,693.7362 508.4556,689.7845 517.6115,673.3338 531.7385,645.4046 543.6223,619.6164 550.6811,602.9631 554.7993,591.1876 556.8641,582.3121 557.0891,578.8428 556.7141,576.4656 555.9275,575.2555 554.96,574.774 553.7225,574.846 552.4167,575.3663 549.0046,577.769 544.8732,582.254 540.594,587.9584 536.6075,594.3009 531.8714,602.8445 527.702,611.6289 519.5235,632.2601 514.7891,646.4804 510.9166,659.3989 506.111,677.2154 503.2772,689.3623 502.0497,696.6745 502.0771,698.3454 502.5185,699.3705 503.1713,699.1869 504.1574,698.207 507.1294,693.8229 519.5218,671.0368 530.6306,648.8165 546.7834,614.2492 552.3919,600.939 557.4976,586.3775 559.4375,577.125 559.5366,574.1448 559.092,572.2089 558.2969,570.8906 557.459,570.3652 556.0856,570.2812 554.2318,570.8582 550.625,573.375 546.0509,578.1528 541.2971,584.5471 536.0675,592.9366 532.2125,600.1315 527.5579,609.9135 519.8442,629.4127 514.9586,643.9555 510.5274,658.6943 502.52,689.0347 500.2112,701.0336 500.0,703.5 500.3247,704.6906 500.8655,704.7008 501.625,704.125 503.9197,701.0143 512.8683,685.1214 530.143,651.2758 547.1995,615.1372 555.2677,595.8993 559.6441,583.6484 561.1867,577.9565 562.0664,573.2969 562.2151,569.6782 561.7031,567.125 560.8317,565.7996 559.845,565.2867 558.287,565.211 556.4457,565.7853 552.3288,568.617 547.6773,573.3928 542.534,580.0679 537.4225,587.908 532.4786,597.0506 527.7719,606.9919 522.4956,619.7855 517.7579,632.797 507.9787,665.2581 502.901,684.7143 499.4789,699.4563 497.8809,708.1328 497.9398,710.125 498.3617,710.9375 499.7002,710.0 501.8904,706.8612 512.6673,687.2152 532.045,648.779 549.1178,612.9337 557.424,593.5745 562.6406,578.8594 564.2451,573.0933 565.1023,568.6361 565.3876,564.668 564.942,561.8196 563.912,560.1722 562.7344,559.4375 561.2812,559.3151 559.4372,559.8433 557.3407,560.9573 554.7239,562.8765 548.923,568.5999 543.7043,575.2131 537.863,584.1057 532.8357,593.2785 527.875,603.75 523.3658,614.6604 518.57,627.6814 513.716,642.55 509.1813,658.3736 503.2022,680.657 496.7862,707.4418 495.375,715.375 495.3113,717.2251 495.709,717.9414 496.3747,717.6539 497.3389,716.6259 499.9496,712.7699 509.5422,695.1174 535.9316,642.8085 553.6631,605.2512 561.5416,586.4604 566.5125,572.0821 568.0312,566.4062 568.8317,562.0187 568.9748,558.3697 568.4686,555.2516 567.6784,553.8073 566.5,553.0 564.5833,552.7222 562.3333,553.1944 560.2037,554.221 557.2947,556.2454 551.4782,561.7085 545.5608,568.9322 539.635,577.5859 532.875,589.75 528.6274,598.648 523.8344,610.0535 520.1328,620.077 515.9435,632.7923 510.3085,651.4243 501.8966,683.0233 496.7284,703.8328 493.128,720.1512 492.4355,724.9348 492.7637,726.2971 493.2793,726.0906 494.5204,724.5692 498.5459,717.8701 513.103,689.9174 541.0486,634.2549 557.5047,599.4818 565.9141,579.481 570.7093,565.9469 572.2148,560.1236 573.1022,554.9314 573.2356,550.8831 572.662,547.9477 571.7188,546.2031 570.0521,545.0631 568.1328,544.8921 565.5911,545.5456 562.7161,547.0394 559.6663,549.1946 552.7651,555.64 546.3356,563.3466 539.7664,573.077 533.8678,583.645 527.9167,596.1141 523.329,607.2064 519.3027,618.3715 515.1997,631.163 509.841,649.599 499.136,691.2966 491.0786,724.2174 489.1188,733.7761 488.9688,735.8906 489.25,736.416 490.1798,735.6407 491.7565,733.3028 496.5824,724.4947 532.2646,654.2746 552.2528,614.0581 565.0635,586.3476 573.2089,566.1835 575.5,559.25 577.4762,551.785 578.4225,546.4404 578.576,542.2455 577.8017,538.7391 576.3374,536.632 574.5653,535.7409 572.0459,535.6716 568.948,536.5653 565.8596,538.1895 562.1123,540.8537 558.1603,544.2569 550.1005,552.9076 543.3964,561.8937 537.084,572.2987 530.5366,585.0204 524.5,599.0"/>
  </g>
</svg>
