<?xml version="1.0" encoding="utf-8" ?>
<svg xmlns="http://www.w3.org/2000/svg" xmlns:cc="http://creativecommons.org/ns" xmlns:dc="http://purl.org/dc/elements/1.1/" xmlns:ev="http://www.w3.org/2001/xml-events" xmlns:inkscape="http://www.inkscape.org/namespaces/inkscape" xmlns:rdf="http://www.w3.org/1999/02/22-rdf-syntax-ns" xmlns:sodipodi="http://sodipodi.sourceforge.net/DTD/sodipodi-0.dtd" xmlns:xlink="http://www.w3.org/1999/xlink" baseProfile="tiny" height="27.09333333cm" version="1.2" viewBox="0 0 1024.0 1024.0" width="27.09333333cm">
  <metadata>
    <rdf:RDF>
      <cc:Work>
        <dc:format>image/svg+xml</dc:format>
        <dc:source>vpype read './original_svgs/Strange Attractors #142.svg' linemerge linesimplify write './Strange Attractors #142.svg'
</dc:source>
        <dc:date>2024-08-05T01:35:29.819762</dc:date>
      </cc:Work>
    </rdf:RDF>
  </metadata>
  <defs/>
  <g fill="none" id="layer1" inkscape:groupmode="layer" inkscape:label="1" stroke="black" stroke-width="0.7mm" style="display:inline">
    <polyline points="413.0,606.75 412.75,574.25 411.75,552.875 409.875,539.0 408.625,534.0 405.625,526.75 403.875,524.25 400.0,520.625 398.0,519.375 393.75,517.875 389.25,517.0 382.375,516.875 375.75,517.75 371.75,518.875"/>
    <polyline points="369.875,519.625 366.75,521.5 365.625,522.625 364.75,524.0 364.375,525.5 364.375,527.25 365.0,529.25 366.375,531.375 368.5,533.75 371.75,536.375 376.0,539.25 381.5,542.125 388.375,545.125 396.75,548.0 406.625,550.75 418.0,552.875 430.75,554.5 444.625,555.125 459.125,554.625 474.0,552.875 488.5,549.875 502.25,545.625 515.0,540.375 526.375,534.25 536.125,527.5"/>
    <polyline points="544.5,520.625 551.25,513.625 556.75,507.0 561.125,500.625 564.5,494.75 567.0,489.5 568.875,484.75 571.125,477.0 571.875,471.375 571.875,467.625 570.875,464.625 569.625,463.875 568.25,464.5 566.625,466.625"/>
    <polyline points="566.25,467.25 565.5,469.375 565.0,472.125 565.25,476.0 566.125,478.0 567.125,479.375 569.5,480.875"/>
    <polyline points="570.0,481.125 573.125,481.875 576.125,481.875 579.5,481.375 584.25,480.0 591.5,476.25"/>
    <polyline points="592.5,475.625 599.0,470.25 604.0,464.25 605.75,461.375 608.0,456.75 609.75,451.625 610.75,444.5 610.5,440.875"/>
    <polyline points="610.25,439.125 608.625,434.25 605.75,430.25 601.625,427.625 598.375,426.75 596.625,426.625 592.75,427.0 590.75,427.5 588.75,428.125 584.75,430.125 578.625,434.25 571.25,441.375"/>
    <polyline points="569.5,443.375 563.5,451.375 561.0,455.25 557.0,462.75 554.25,469.25 552.125,476.0 551.375,482.375"/>
    <polyline points="551.375,483.25 552.375,487.625 553.375,489.375 554.75,490.75 556.875,492.25 558.75,493.0 563.5,493.875"/>
    <polyline points="564.375,494.0 568.25,494.0 573.75,493.375 577.375,492.625 586.875,489.625 591.375,487.625 596.125,485.0"/>
    <polyline points="597.625,484.125 602.5,480.75 609.0,475.0 615.375,467.625 619.625,460.75 622.125,455.5 624.125,449.75 625.5,443.5 626.0,440.25 626.375,433.625 625.75,426.875"/>
    <polyline points="625.0,423.625 622.75,417.25 621.125,414.5 617.0,409.5 614.375,407.625 611.625,406.125 608.625,405.0 605.25,404.375 601.875,404.25 598.25,404.625 594.5,405.5 586.875,408.625 579.375,413.375 575.75,416.25 568.75,422.75 562.5,429.875 557.0,437.125 552.125,444.25"/>
    <polyline points="550.0,447.75 544.5,457.375 539.125,468.375 536.25,475.0 532.5,485.25 530.75,491.125 530.125,494.75"/>
    <polyline points="530.0,495.5 529.875,499.375 530.25,501.25 532.0,504.0 534.375,505.5"/>
    <polyline points="534.875,505.75 537.125,506.5 541.25,507.125 551.625,507.125"/>
    <polyline points="552.625,507.0 560.125,506.375 572.0,504.375 586.625,500.375"/>
    <polyline points="588.375,499.625 594.125,497.5 604.25,492.5 610.625,488.375 617.25,483.25 619.5,481.125 626.125,474.125 630.375,468.375 636.25,458.125 639.5,449.875"/>
    <polyline points="640.875,445.375 642.125,440.625 643.0,435.625 643.625,430.375 643.875,425.0 643.125,413.875 642.0,408.25 640.375,402.75 638.125,397.5 635.375,392.5 632.0,388.125 628.0,384.375 623.5,381.375 618.375,379.25 612.875,378.125 607.0,378.0 600.875,379.0 594.625,380.875 588.375,383.875 582.125,387.625 576.125,392.0 570.25,397.125 559.5,408.375 554.75,414.375"/>
    <polyline points="550.25,420.375 542.5,432.125 539.125,437.75 530.875,452.875 524.875,465.25 513.75,490.125 509.75,497.375"/>
    <polyline points="509.25,498.375 506.125,502.625 504.125,504.625 500.25,507.375 496.5,508.875"/>
    <polyline points="496.0,509.0 490.0,510.25 484.125,510.75 477.875,510.875"/>
    <polyline points="477.0,510.875 461.625,510.375 447.375,509.375 429.0,507.25 416.5,505.375 402.125,502.625 389.25,499.375 378.875,496.125 371.75,493.375"/>
    <polyline points="439.75,508.625 418.875,506.0 401.75,502.875 385.125,498.75 374.25,495.125 366.875,492.125"/>
    <polyline points="363.125,490.375 356.0,486.5 352.75,484.25 349.625,481.75 347.0,479.125 344.875,476.375 343.375,473.625 342.75,470.625 343.25,467.875 345.125,465.25 348.5,463.0 353.5,461.375 360.375,460.625 369.125,461.0 379.625,462.625 391.5,465.625 404.375,470.125 417.875,476.0 431.25,483.0 444.25,490.75 456.5,499.0 467.5,507.5 477.375,515.75 486.0,523.5 493.375,530.75"/>
    <polyline points="499.75,537.25 513.375,552.25 519.5,558.5 524.0,562.5 527.5,564.5 530.5,565.25 534.375,564.5 538.0,562.5 548.25,555.375"/>
    <polyline points="549.625,554.5 552.5,552.75 557.125,550.5 563.75,547.875 569.125,546.25 575.0,544.875 583.5,543.5 590.375,542.75 597.75,542.375"/>
    <polyline points="600.375,542.25 614.375,542.125 630.25,542.875 644.375,544.375 655.875,546.25 664.0,548.0 676.875,551.75 681.375,553.375 690.375,557.625"/>
    <polyline points="695.0,560.25 699.625,563.25 704.25,567.0 708.875,571.375 713.375,576.625 717.75,582.875 721.875,590.5 725.625,599.75 728.875,611.0 731.25,624.75 732.5,641.75 732.0,662.375 729.0,687.5 722.75,717.75 711.625,753.25 694.375,793.375 669.125,836.125 635.125,876.875 592.5,909.0 544.125,924.875 494.875,918.875 450.125,891.0 413.75,846.5 387.0,793.5 368.875,739.25 357.375,688.75"/>
    <polyline points="350.875,644.625 347.625,607.375 347.0,576.875 348.25,552.25 351.25,532.75 355.875,517.75 362.25,506.5 370.25,498.625 379.625,493.625 390.375,491.375 402.0,491.375 414.25,493.5 426.625,497.375 438.75,502.375 450.125,508.375 460.625,514.75 470.125,521.375 478.625,527.875 486.0,534.0 509.625,555.875 515.0,560.375"/>
    <polyline points="517.125,561.875 520.75,563.5 522.375,563.875 525.125,563.75 527.625,562.75 532.25,559.5 543.125,550.375 550.0,546.0"/>
    <polyline points="551.5,545.25 561.0,541.125 574.0,537.5 586.875,535.125 601.875,533.0"/>
    <polyline points="604.5,532.75 625.75,530.125 643.5,527.375 651.25,525.75 663.875,522.5 677.5,517.5 687.25,512.625 692.375,509.5 702.875,501.625"/>
    <polyline points="708.375,496.5 714.0,490.375 719.75,483.125 725.375,474.375 731.125,463.875 736.625,451.25 741.75,436.25 746.25,418.25 749.75,397.0 751.625,372.25 751.0,344.0 746.875,312.875 738.125,280.375 723.5,249.0 702.25,222.375 674.75,204.75 642.25,199.25 607.5,207.25 573.25,227.625 542.25,256.875 516.0,290.75 494.875,325.625 478.75,358.875 467.125,388.75 459.125,414.875 454.125,436.875"/>
    <polyline points="451.625,455.25 450.875,470.375 451.75,482.5 453.875,492.25 457.0,499.875 460.75,505.875 465.0,510.25 469.75,513.375 474.625,515.5 479.5,516.75 484.5,517.25 489.125,517.125 493.625,516.5 497.875,515.375 505.125,512.625 510.875,509.375 517.0,504.5 519.625,501.75 521.75,498.75"/>
    <polyline points="522.125,498.0 522.75,496.625 522.625,496.25 522.0,496.5 520.75,497.875 518.375,502.25"/>
    <polyline points="518.125,502.625 516.75,506.125 516.25,508.75 516.75,510.25 518.0,511.0"/>
    <polyline points="518.25,511.0 520.0,511.375 523.375,511.5"/>
    <line x1="523.625" x2="534.25" y1="511.5" y2="511.125"/>
    <polyline points="534.75,511.125 546.625,510.25 555.625,509.125"/>
    <polyline points="556.75,509.0 567.0,507.375 577.625,505.0 590.125,501.125 596.0,498.75"/>
    <polyline points="598.125,497.875 602.375,495.875 608.875,492.125 613.5,489.125 618.125,485.5 625.125,479.0 629.75,473.75 632.0,470.75 638.375,460.125 640.25,456.125 643.625,447.0 646.125,436.75 647.375,425.375"/>
    <polyline points="647.375,419.375 647.0,413.375 646.0,407.125 644.375,401.0 642.25,395.125 639.375,389.625 635.875,384.625 631.625,380.25 626.75,376.75 621.375,374.125 615.375,372.75 609.0,372.375 602.375,373.375 595.5,375.375 588.625,378.5 581.875,382.625 575.25,387.625 569.0,393.25 563.0,399.25 557.375,405.75 547.5,418.75 539.375,431.5 532.75,443.25"/>
    <polyline points="529.875,448.625 521.25,466.625 510.75,490.0 505.75,498.625 502.625,502.375"/>
    <polyline points="502.125,503.0 499.125,505.375 495.5,507.375 490.875,508.875 485.625,509.75"/>
    <polyline points="484.75,509.875 474.375,510.5 456.25,510.0"/>
    <polyline points="454.625,509.875 440.25,508.75 422.125,506.625 405.375,503.875 395.875,501.875"/>
    <polyline points="392.625,501.125 378.375,497.125 371.0,494.5 363.375,491.25 355.875,487.375 349.125,482.75 343.5,477.375 341.625,474.375 340.5,471.375 340.375,468.375 341.5,465.5 344.25,462.875 348.625,460.875 354.875,459.5 363.125,459.25 373.25,460.25 385.125,462.75 398.25,466.875"/>
    <polyline points="412.125,472.375 426.25,479.25 440.125,487.25 453.125,495.75 465.0,504.625 475.625,513.375 485.0,521.75 493.0,529.5 505.625,542.875 520.875,560.0 525.5,564.5 527.375,565.875 530.625,567.5 533.375,567.875 537.125,566.75 539.5,565.375"/>
    <polyline points="540.75,564.5 549.625,558.25 554.0,555.625 558.625,553.375 567.0,550.25 574.625,548.375 580.75,547.375"/>
    <polyline points="583.0,547.125 592.125,546.375 602.25,546.25 610.5,546.625 622.375,547.875 632.0,549.625 642.375,552.125 649.5,554.5 657.0,557.625"/>
    <polyline points="660.75,559.625 664.625,561.75 672.375,567.25 676.25,570.625 680.125,574.625 683.75,579.25 687.375,584.625 690.875,590.875 694.0,598.375 696.75,607.125 698.875,617.625 700.25,629.875 700.625,644.375 699.625,661.5 696.75,681.5 691.25,704.5 682.625,730.625 669.875,759.0 652.375,788.625 629.5,817.125 601.5,841.375 569.25,857.375 534.75,861.875 500.875,853.125 470.125,831.875"/>
    <polyline points="444.375,801.0 424.125,764.5 409.25,726.375 399.0,689.5 392.125,655.75 388.0,625.875 385.625,600.375 384.75,578.875 385.0,561.0 386.0,546.375 387.75,534.5 390.25,525.0 393.125,517.625 396.75,512.0 400.75,507.875 405.25,505.125 410.125,503.375 415.25,502.625 420.5,502.625 426.0,503.375 436.75,506.25 447.0,510.5 456.25,515.125"/>
    <polyline points="460.375,517.375 478.75,528.125 486.0,531.375 489.875,532.125 492.75,531.875 496.125,530.0 497.875,527.875"/>
    <polyline points="498.25,527.375 499.25,525.75 500.75,521.75 501.0,520.5 500.75,517.0"/>
    <polyline points="500.625,516.75 499.375,515.125 496.375,513.75 494.0,513.25"/>
    <polyline points="493.625,513.125 487.875,512.375 477.125,511.625"/>
    <line x1="476.25" x2="441.375" y1="511.625" y2="508.75"/>
    <polyline points="439.375,508.5 416.0,505.25 401.625,502.375 385.25,498.125 374.75,494.375 367.75,491.375"/>
    <polyline points="364.25,489.625 357.625,485.75 354.625,483.5 351.875,481.125 349.625,478.625 347.875,476.0 347.0,473.375 346.875,470.625 348.0,468.125 350.375,466.0 354.125,464.125 359.625,463.0 366.75,462.75 375.5,463.625 385.75,465.625 397.25,469.0 409.375,473.625 422.0,479.375 434.375,486.125 446.375,493.5 457.5,501.125 467.625,509.0 476.75,516.5 491.5,530.25"/>
    <polyline points="497.375,536.125 516.375,555.375 520.75,558.875 524.25,560.625 527.25,561.125 528.625,561.0 532.5,559.75 545.0,551.25"/>
    <polyline points="546.375,550.375 550.625,547.875 555.25,545.625 567.125,541.375 576.875,539.125 592.625,536.625"/>
    <polyline points="595.125,536.375 611.5,534.75 634.125,533.0 657.125,530.5 674.625,527.375 684.25,524.875"/>
    <polyline points="689.25,523.375 699.75,519.375 710.875,513.5 716.75,509.625 722.75,505.0 728.875,499.375 735.25,492.5 741.75,484.0 748.25,473.625 754.75,460.875 761.0,445.125 766.75,425.75 771.625,402.25 774.875,373.875 775.5,340.25 772.0,302.0 762.5,260.75 745.25,219.75 718.75,184.875 683.125,162.5 641.0,158.0 596.5,173.0 554.25,204.125 517.875,245.25"/>
    <polyline points="489.0,290.0 467.5,333.375 452.5,372.5 443.0,406.125 437.875,434.25 436.25,457.125 437.5,475.5 441.0,490.125 446.375,501.5 453.125,510.0 461.0,516.25 469.625,520.375 478.5,522.75 487.5,523.625 496.375,523.125 504.625,521.625 512.25,519.25 519.125,516.375 525.25,513.0 530.5,509.375 534.875,505.75 538.625,502.125 544.0,495.5 547.375,490.0"/>
    <polyline points="548.375,487.625 549.75,484.125 550.25,481.75 550.0,479.75 549.5,479.875 548.875,480.75 548.125,483.375 548.0,485.875 548.25,487.75"/>
    <polyline points="548.375,488.375 549.0,490.0 550.0,491.5 552.625,493.875 557.0,495.625 562.0,496.25"/>
    <polyline points="562.875,496.375 569.125,496.125 572.625,495.625 581.875,493.375 589.375,490.625 595.75,487.375"/>
    <polyline points="597.5,486.5 604.375,481.875 609.625,477.375 614.75,472.0 618.0,467.75 621.125,462.875 623.875,457.5 626.375,451.5 628.125,444.875 629.25,437.75 629.5,434.125 629.125,426.625"/>
    <polyline points="628.5,422.875 627.625,419.25 626.375,415.75 624.75,412.5 622.875,409.375 620.5,406.625 617.875,404.25 614.875,402.25 611.625,400.875 608.125,400.0 604.375,399.625 600.375,399.875 596.25,400.625 592.125,402.0 587.875,403.875 583.625,406.25 575.5,412.25 571.625,415.75 567.875,419.5 561.0,427.25 552.25,439.25 549.75,443.125"/>
    <polyline points="547.375,447.0 541.625,457.375 534.75,471.5 529.875,483.5 527.875,489.125 525.875,496.125"/>
    <polyline points="525.75,496.875 525.125,500.0 525.125,502.875 525.625,504.875 527.125,506.75"/>
    <polyline points="527.375,506.875 528.5,507.625 531.375,508.5 534.75,509.0 538.25,509.125"/>
    <polyline points="538.875,509.125 549.875,508.75 562.0,507.25"/>
    <polyline points="563.25,507.125 576.125,504.5 586.375,501.5 597.875,497.0 606.375,492.5"/>
    <polyline points="608.5,491.125 615.25,486.5 619.875,482.625 624.375,478.125 628.875,472.875 633.25,466.625 637.25,459.5 639.125,455.5 642.375,446.625 643.625,441.75 645.375,431.25 645.75,425.625 645.75,419.75 645.25,413.875 644.25,408.0 642.75,402.125 640.625,396.5"/>
    <polyline points="637.75,391.25 634.375,386.5 630.25,382.375 625.625,379.0 620.375,376.625 614.625,375.25 608.625,374.875 602.125,375.75 595.625,377.75 589.0,380.625 582.5,384.625 576.125,389.25 570.0,394.625 564.125,400.375 553.75,412.75 544.875,425.25 541.0,431.375 531.625,448.0 523.0,465.75"/>
    <polyline points="521.375,469.375 514.25,485.5 510.25,493.625 508.25,497.125 505.875,500.5 503.625,503.125 501.875,504.5"/>
    <polyline points="501.375,505.0 499.25,506.5 495.75,508.125 491.375,509.375 485.5,510.125"/>
    <polyline points="484.75,510.25 478.625,510.625 470.125,510.625 456.625,510.0"/>
    <polyline points="455.0,509.875 436.625,508.375 425.25,507.0 406.25,503.875 396.75,501.875"/>
    <polyline points="393.5,501.125 383.125,498.375 372.125,494.625 364.625,491.5 353.75,485.5 347.5,480.625 345.0,477.875 343.0,475.0 341.75,472.125 341.625,469.125 342.5,466.25 345.0,463.75 349.0,461.625 354.875,460.25 362.75,459.875 372.5,460.75 383.75,463.0 396.5,466.75"/>
    <polyline points="410.0,471.875 423.75,478.5 437.375,486.0 450.375,494.25 462.25,502.875 473.0,511.5 482.375,519.75 490.5,527.5 503.5,540.875 521.75,560.875 526.0,564.375 527.75,565.5 529.375,566.125 532.125,566.625 534.75,566.0 538.375,564.25"/>
    <polyline points="539.5,563.375 551.25,555.375 558.875,551.5 567.5,548.5 579.25,545.875"/>
    <polyline points="581.375,545.625 595.375,544.375 603.125,544.25 614.375,544.625 623.625,545.375 633.5,546.625 644.125,548.625 651.5,550.375 655.375,551.625"/>
    <polyline points="659.25,552.875 667.25,556.0 675.5,560.25 683.75,566.0 688.0,569.625 692.125,573.875 696.125,578.875 700.0,584.875 703.625,591.875 707.0,600.25 709.875,610.25 712.0,622.375 713.125,636.75 713.0,654.0 711.0,674.625 706.5,698.875 698.625,727.0 686.25,758.75 668.375,792.875 644.25,827.0 613.375,857.375 576.875,879.0 537.125,887.125"/>
    <polyline points="497.5,878.75 461.625,854.625 431.875,818.5 409.25,775.75 393.125,731.5 382.375,689.375 375.625,651.5 371.75,618.75 370.0,591.25 369.75,568.375 370.875,549.875 373.0,535.0 376.25,523.25 380.25,514.25 385.25,507.5 391.125,502.75 397.625,499.875 404.75,498.5 412.25,498.5 420.125,499.625 428.0,501.625 435.75,504.25 443.25,507.5 450.375,511.125 463.25,518.625"/>
    <polyline points="468.875,522.25 492.0,538.375 496.75,541.125 500.625,542.75 503.75,543.375 507.5,543.0 509.75,542.125 512.625,540.25 516.875,536.625"/>
    <polyline points="517.75,535.75 522.5,531.375 527.375,527.625 532.375,524.5 538.75,521.625"/>
    <polyline points="539.75,521.25 548.25,518.5 571.875,513.0"/>
    <polyline points="573.5,512.625 588.625,508.625 595.0,506.5 604.125,502.875 611.5,499.375 616.625,496.5 624.625,491.0 630.125,486.5"/>
    <polyline points="632.875,484.0 641.125,474.625 646.375,466.875 649.0,462.375 653.625,452.125 657.5,440.125 660.0,426.25 660.625,418.625 660.625,410.75 660.0,402.5 658.5,394.125 656.25,385.875 653.0,378.0 648.875,370.5 643.625,364.0 637.5,358.625 630.375,354.625 622.375,352.25 613.875,351.625 604.75,353.0"/>
    <polyline points="595.625,356.0 586.375,360.75 577.5,366.875 568.875,374.125 560.875,382.25 553.375,390.875 546.625,399.625 540.5,408.5 535.125,417.125 526.125,433.25 516.25,453.625 503.75,483.25 498.625,494.0"/>
    <polyline points="497.75,495.5 493.625,501.0 492.0,502.625 488.625,505.0 483.375,507.25 475.25,509.0"/>
    <polyline points="474.125,509.125 465.5,509.75 451.875,509.75 434.25,508.625"/>
    <polyline points="432.0,508.5 408.5,505.75 395.75,503.625 385.125,501.375 373.625,498.25 365.375,495.625 356.75,492.375 348.125,488.375"/>
    <polyline points="343.875,486.0 335.875,480.5 332.375,477.25 329.375,473.75 327.125,470.0 325.875,466.125 326.125,462.25 328.125,458.375 332.125,455.125 338.75,452.5 348.0,451.25 359.875,451.5 374.375,453.875 390.75,458.375 408.375,465.125 426.25,473.75 443.5,483.875 459.625,495.0 474.125,506.5 486.625,517.75 497.375,528.375 506.25,538.25 513.5,547.0 524.375,561.375"/>
    <polyline points="528.25,567.0 537.875,580.5 540.625,583.375 542.75,584.5 544.625,584.375 546.5,583.5 555.375,575.5 560.25,572.125"/>
    <polyline points="561.625,571.375 567.375,568.75 570.5,567.875 577.375,566.625 582.875,566.375 590.75,567.125 597.125,568.5 603.625,570.875 608.25,573.125"/>
    <polyline points="610.5,574.375 615.0,577.625 619.5,581.5 623.875,586.5 628.0,592.625 629.875,596.25 633.25,604.625 635.625,615.0 636.25,621.0 636.625,627.625 636.375,634.875 635.625,642.75 634.125,651.25 631.875,660.375 628.75,670.125 624.625,680.125 619.25,690.25 612.75,700.375 605.125,710.0 596.125,718.75"/>
    <polyline points="586.0,726.0 575.0,731.5 563.375,734.5 551.375,734.875 539.375,732.5 527.75,727.125 516.875,719.25 507.125,709.25 498.375,697.5 491.0,684.5 484.75,671.125 479.75,657.5 475.625,644.125 472.5,631.375 470.125,619.25 468.5,608.125 466.375,588.625 465.5,572.75 465.5,554.75 466.0,542.375"/>
    <polyline points="466.125,539.125 466.625,527.75 465.875,521.375 464.375,518.0 462.125,515.625 459.0,513.75 456.25,512.625"/>
    <polyline points="455.25,512.25 446.875,509.75 424.875,504.875 414.25,502.125"/>
    <polyline points="412.0,501.5 400.5,497.875 391.375,494.125 385.375,490.75 382.0,488.25 379.75,485.875 379.125,484.625 378.875,483.375 379.125,482.375 379.75,481.375 381.125,480.5 385.5,479.625 392.375,480.0"/>
    <polyline points="396.75,480.875 401.75,482.0 412.875,485.75 425.0,491.0 431.125,494.125 443.0,501.0 453.875,507.875 483.0,528.75 490.625,532.875 494.625,533.875"/>
    <polyline points="495.75,534.0 497.625,533.75 499.375,533.125 502.625,530.75 505.875,526.75 508.875,522.25"/>
    <polyline points="509.125,521.75 511.375,518.25 514.125,515.25"/>
    <polyline points="514.375,515.125 516.875,513.5 518.875,513.0"/>
    <line x1="519.125" x2="526.625" y1="512.875" y2="512.0"/>
    <line x1="527.0" x2="541.25" y1="512.0" y2="510.875"/>
    <polyline points="542.0,510.875 559.875,508.75 569.25,507.0"/>
    <polyline points="570.75,506.75 583.875,503.375 597.375,498.375 605.875,494.125 610.375,491.375 615.0,488.25 619.625,484.5"/>
    <polyline points="622.0,482.375 629.0,474.875 633.5,468.875 637.75,461.75 641.625,453.5 644.75,444.0 646.0,438.875 647.5,427.625 647.75,421.625 647.5,415.625 646.625,409.375 645.375,403.25 643.375,397.125 640.75,391.375 637.5,386.125 633.5,381.5 628.875,377.625 623.625,374.625 617.875,372.75"/>
    <polyline points="611.625,372.0 605.0,372.5 598.125,374.125 591.25,376.875 584.375,380.75 577.625,385.375 571.125,390.75 565.0,396.75 559.25,403.125 553.875,409.625 549.0,416.25 540.5,429.25 536.875,435.375 528.0,451.875 520.0,469.0 513.625,483.5"/>
    <polyline points="512.625,485.625 510.0,491.125 505.75,498.375 502.625,502.25 500.25,504.375 496.0,507.0"/>
    <polyline points="495.25,507.25 491.375,508.625 485.375,509.75 475.125,510.375"/>
    <polyline points="474.0,510.375 464.375,510.375 454.125,509.875 435.375,508.25"/>
    <polyline points="433.125,508.0 421.125,506.5 407.375,504.25 398.0,502.375 387.875,499.875 380.75,497.875 369.5,494.0 361.875,490.625 354.5,486.625"/>
    <polyline points="351.0,484.375 347.875,481.875 342.625,476.375 341.0,473.375 340.125,470.25 340.375,467.25 342.125,464.5 345.375,462.0 350.375,460.125 357.375,459.125 366.375,459.375 377.125,460.875 389.5,463.875 403.0,468.5 417.125,474.625 431.25,481.875 444.875,490.125 457.5,498.875 469.0,507.75 479.25,516.375 488.125,524.625 502.125,539.0 512.125,550.25"/>
    <polyline points="516.0,554.625 522.0,561.125 526.375,565.25 529.875,567.375 532.75,568.125 535.25,567.75 537.75,566.75 547.625,559.875 554.625,555.625"/>
    <polyline points="556.125,554.875 564.25,551.375 569.75,549.75 577.5,548.125 583.875,547.25 593.125,546.625 608.875,546.875"/>
    <polyline points="611.625,547.125 626.875,549.125 636.75,551.25 643.75,553.25 651.0,555.875 658.5,559.375 666.0,563.875 669.875,566.75 673.75,570.0 677.5,573.75 681.25,578.125 684.875,583.25 688.25,589.25 691.5,596.25 694.25,604.625 696.625,614.375"/>
    <polyline points="698.25,626.0 698.875,639.625 698.375,655.625 696.125,674.375 691.5,696.125 684.125,720.75 673.0,748.0 657.5,776.75 636.875,805.25 611.125,830.75 580.75,849.5 547.625,858.25 514.0,854.375 482.5,838.0 455.125,811.0 433.25,777.0 416.625,740.0 404.75,703.125 396.75,668.625 391.625,637.625 388.625,610.875 387.125,588.0 386.875,568.875 387.5,553.125 388.875,540.375 390.875,530.0"/>
    <polyline points="393.375,521.75 396.5,515.375 400.125,510.625 404.125,507.125 408.5,504.875 413.125,503.5 418.125,503.125 423.125,503.375 428.25,504.125 433.375,505.375 438.375,507.0 447.875,511.0 460.375,517.375 475.25,526.0 484.375,530.125"/>
    <polyline points="485.625,530.375 487.875,530.75 489.75,530.625 491.375,530.125 493.625,528.625 495.75,525.625 496.5,523.625 496.875,521.25"/>
    <polyline points="496.875,520.875 496.625,519.0 495.75,517.125 494.125,515.625 491.125,514.25"/>
    <polyline points="490.75,514.125 485.875,513.0 472.625,511.625"/>
    <polyline points="471.625,511.5 449.875,509.625 432.375,507.625"/>
    <polyline points="430.125,507.25 415.25,505.0 403.875,502.75 394.5,500.5 384.5,497.625 374.125,493.875 367.25,490.75 360.5,487.0 354.625,482.625"/>
    <polyline points="352.25,480.25 350.25,477.75 348.875,475.25 348.375,472.625 348.75,470.125 350.375,467.875 353.25,465.875 357.625,464.375 363.625,463.625 371.25,463.875 380.375,465.125 390.75,467.625 402.25,471.375 414.25,476.25 426.5,482.25 438.375,489.0 449.75,496.25 460.375,503.875 469.875,511.25 485.875,525.25 510.125,549.375"/>
    <polyline points="513.125,552.25 515.75,554.625 520.0,557.75 523.375,559.25 526.375,559.625 529.0,559.125 531.5,558.0 535.125,555.75 542.625,550.375 549.625,546.25"/>
    <polyline points="551.0,545.5 555.625,543.25 560.5,541.375 569.5,538.625 581.625,536.125 601.0,533.25"/>
    <polyline points="603.75,533.0 635.0,529.0 654.125,525.375 662.5,523.125 676.0,518.5 685.75,513.875 696.0,507.625 701.25,503.625"/>
    <polyline points="706.75,498.875 712.375,493.25 718.0,486.375 723.75,478.25 729.5,468.5 735.125,456.75 740.375,442.625 745.25,425.875 749.25,405.75 751.875,382.25 752.375,355.25 749.75,324.875 743.0,292.375 730.625,259.875 711.875,230.75 686.5,208.875 655.375,198.375 620.875,201.375 585.75,217.5 553.0,244.125 524.625,277.125 501.5,312.25 483.5,346.625 470.25,378.125 461.0,405.75 455.125,429.5"/>
    <polyline points="451.75,449.25 450.5,465.5 450.875,478.75 452.75,489.375 455.5,497.75 459.25,504.25 463.5,509.125 468.125,512.75 473.125,515.25 478.125,516.625 483.25,517.375 488.125,517.375 492.75,516.875 497.125,515.875 504.875,513.125 511.0,509.75 515.625,506.375 517.375,504.75 520.125,501.875 522.625,498.625"/>
    <polyline points="523.0,497.75 523.625,496.25 523.5,495.75 522.375,496.75 521.125,498.625 519.625,501.875"/>
    <polyline points="519.5,502.25 518.25,506.5 518.5,508.75 519.5,509.875 522.25,510.75"/>
    <polyline points="522.5,510.75 526.75,511.125 531.5,511.0"/>
    <polyline points="532.0,511.0 540.75,510.625 550.25,509.75"/>
    <polyline points="551.25,509.625 561.375,508.25 572.625,506.125 577.375,505.0 586.0,502.375"/>
    <polyline points="587.875,501.875 597.75,498.0 606.25,493.625 610.75,490.875 615.25,487.625 622.25,481.75 626.875,476.875 631.5,471.25 635.875,464.5 637.875,460.875 641.625,452.5"/>
    <polyline points="643.25,447.875 645.75,437.75 646.625,432.25 647.125,426.5 647.25,420.625 646.875,414.5 646.0,408.375 644.625,402.25 642.5,396.375 639.75,390.75 636.375,385.625 632.375,381.125 627.625,377.5 622.25,374.75 616.5,373.125 610.125,372.625 603.625,373.25 596.75,375.125 590.0,378.125 583.125,382.0 576.5,386.875 570.125,392.25 564.125,398.25 553.25,411.125"/>
    <polyline points="548.5,417.625 540.25,430.375 533.375,442.25 523.625,461.75 512.875,485.875 508.75,494.0 506.0,498.375"/>
    <polyline points="505.375,499.25 503.0,502.25 499.5,505.25 496.5,507.0 493.25,508.25 489.875,509.125"/>
    <polyline points="489.125,509.25 484.5,510.0 479.125,510.375 464.5,510.375"/>
    <polyline points="463.125,510.25 454.125,509.875 437.5,508.5 423.75,506.875 413.25,505.25"/>
    <polyline points="410.375,504.75 394.875,501.625 380.875,497.875 373.5,495.375 365.875,492.375 358.375,488.75 354.75,486.625 348.125,481.875 345.25,479.25 342.875,476.375 341.25,473.375 340.5,470.375 340.75,467.375 342.375,464.625 345.625,462.125"/>
    <polyline points="350.625,460.375 357.625,459.375 366.5,459.5 377.25,461.0 389.5,464.125 403.0,468.625 417.0,474.625 431.0,481.875 444.5,490.0 457.125,498.75 468.625,507.5 478.875,516.125 487.75,524.375 495.25,531.875 507.25,544.75 521.625,560.875 524.0,563.125 527.875,566.125 529.5,567.0 532.375,567.75"/>
    <polyline points="533.75,567.625 536.25,567.0 538.625,565.75 550.0,557.75 554.375,555.25 560.625,552.375 569.375,549.5"/>
    <polyline points="571.25,549.0 579.25,547.375 585.75,546.625 592.875,546.125 603.0,546.125 611.25,546.5 620.25,547.375 626.5,548.25 636.5,550.25"/>
    <polyline points="639.875,551.125 650.75,554.5 658.25,557.625 665.875,561.75 673.75,567.375 677.625,570.75 685.25,579.5 688.875,585.0 692.25,591.5 695.375,599.125 698.125,608.125 700.25,618.75 701.5,631.375 701.75,646.375 700.5,664.0 697.375,684.5 691.5,708.25 682.25,734.875 668.875,764.0 650.375,794.125"/>
    <polyline points="626.5,822.625 597.375,846.25 564.25,861.125 529.125,863.75 495.125,852.75 464.625,829.375 439.375,796.75 419.875,759.25 405.75,720.625 396.0,683.625 389.75,650.125 386.0,620.75 384.0,595.625 383.375,574.625 383.75,557.25 385.0,543.125 387.0,531.75 389.625,522.75 392.875,515.625 396.75,510.375 401.0,506.625 405.75,504.0 410.875,502.625 416.25,502.125 421.875,502.5 427.5,503.5"/>
    <polyline points="433.125,505.0 438.75,506.875 449.125,511.375 462.625,518.625 473.0,525.0 484.75,531.375 489.375,532.875 491.75,533.125 494.625,532.625 496.75,531.5"/>
    <polyline points="497.375,531.125 500.375,527.875 502.0,525.125 503.625,521.25 504.125,519.0"/>
    <polyline points="504.25,518.75 504.375,516.625 504.125,515.625 502.5,513.875 499.125,512.875 495.0,512.5"/>
    <line x1="494.625" x2="478.375" y1="512.5" y2="511.5"/>
    <polyline points="477.5,511.5 464.125,510.75 443.625,509.0"/>
    <polyline points="368.125,491.75 361.125,488.25 357.875,486.125 351.875,481.625 349.5,479.125 347.625,476.5 346.375,473.75 346.125,471.125 346.875,468.5 349.0,466.125 352.5,464.25 357.625,462.875 364.375,462.375 372.875,463.0 383.0,464.75 394.375,467.75 406.5,472.25 419.25,477.875 431.875,484.5 444.125,491.75 455.625,499.5 466.0,507.5 475.375,515.125 483.625,522.5"/>
    <polyline points="490.75,529.25 513.625,552.875 521.0,559.25 524.625,561.25 527.625,561.875 531.625,561.125 535.25,559.125 544.125,553.0"/>
    <polyline points="545.375,552.125 549.625,549.5 554.0,547.25 564.0,543.25 573.25,540.75 581.625,539.125 590.875,537.875"/>
    <polyline points="593.25,537.625 615.25,535.75 649.875,533.75 666.5,532.25 680.375,530.375"/>
    <polyline points="685.25,529.5 695.375,527.25 700.75,525.75 706.25,524.0 711.875,521.75 717.75,519.125 723.75,515.875 730.0,512.0 736.375,507.125 743.0,501.125 749.875,493.625 756.875,484.25 763.875,472.625 771.0,458.0 777.75,439.75 784.0,417.0 788.875,388.875 791.625,354.5 790.75,313.75 784.0,267.5 768.875,219.0 743.0,174.125 705.625,141.25 658.5,128.875 607.0,140.625"/>
    <polyline points="557.25,174.0 514.375,221.0 480.75,273.125 456.375,323.5 440.25,368.375 430.625,406.5 426.375,437.875 426.5,463.125 430.0,483.125 436.375,498.75 445.0,510.5 455.375,519.0 467.0,524.625 479.25,527.75 491.75,528.625 503.75,527.625 515.0,525.125 525.25,521.25 534.25,516.625 541.875,511.375 548.375,505.875 553.5,500.375 557.625,495.125 560.875,490.125 565.0,481.5"/>
    <polyline points="566.125,477.875 567.375,472.25 567.5,470.125 566.875,466.125 566.375,465.375 565.375,464.75 563.625,465.25 561.5,467.625 559.875,470.875 558.75,475.125"/>
    <polyline points="558.75,476.0 558.625,479.0 558.875,480.375 559.75,482.75 560.875,484.25 562.125,485.5 563.75,486.5 567.875,487.625"/>
    <polyline points="568.625,487.75 572.125,487.875 575.0,487.625 580.25,486.5 583.75,485.375 591.25,482.0 596.625,478.625"/>
    <polyline points="598.0,477.625 603.375,473.0 608.5,467.125 612.0,461.75 615.0,455.625 617.125,448.75 618.0,443.875 618.125,436.375 616.625,429.0"/>
    <polyline points="615.75,426.75 614.625,424.625 611.75,421.0 610.0,419.375 605.875,417.125 601.25,416.125 598.625,416.0 596.0,416.25 590.375,417.875 587.5,419.0 581.875,422.25 573.75,428.875 566.375,436.625 558.25,447.5"/>
    <polyline points="556.625,450.25 550.875,460.25 547.625,466.75 545.25,472.5 542.375,481.625 541.375,487.25 541.375,490.75"/>
    <polyline points="541.375,491.5 542.5,495.25 543.875,497.125 545.125,498.25 549.125,500.125 552.75,500.875"/>
    <polyline points="553.5,501.0 562.0,501.125 569.0,500.375 574.25,499.375 583.125,497.0"/>
    <polyline points="584.75,496.375 591.5,493.875 600.625,489.25 606.375,485.5 612.25,480.875 618.125,475.125 621.875,470.5 627.25,462.25 630.375,455.875"/>
    <polyline points="631.75,452.375 634.125,444.75 635.625,436.375 636.125,427.5 635.125,418.375 634.125,413.875 632.75,409.5 630.875,405.375 628.5,401.5 625.625,398.125 622.375,395.125 618.75,392.75 614.75,391.0 610.25,390.0 605.625,389.75 600.75,390.25 595.625,391.625 590.625,393.625 585.5,396.25 580.375,399.5 570.75,407.5"/>
    <polyline points="566.25,412.0 558.0,421.5 554.25,426.375 547.75,436.0 542.125,445.125 533.75,460.875 530.625,467.5 520.25,491.625"/>
    <polyline points="519.75,492.875 515.5,502.25 512.875,507.0"/>
    <polyline points="512.75,507.25 510.125,510.375 508.75,511.125 506.125,511.75"/>
    <line x1="505.875" x2="499.875" y1="511.75" y2="512.0"/>
    <line x1="499.5" x2="487.5" y1="512.0" y2="511.75"/>
    <polyline points="486.875,511.75 475.375,511.375 462.5,510.5"/>
    <polyline points="486.75,510.75 472.25,510.875 461.125,510.5 448.625,509.5 426.0,506.875 410.25,504.25"/>
    <polyline points="407.25,503.625 391.625,500.125 384.75,498.125 374.125,494.5 367.0,491.375 360.0,487.75 353.625,483.375 350.875,481.0 348.625,478.375 346.875,475.75 345.875,473.0 345.75,470.375 346.75,467.75 349.25,465.5 353.125,463.625 358.625,462.5"/>
    <polyline points="366.0,462.125 375.0,463.0 385.5,465.125 397.125,468.5 409.625,473.25 422.375,479.25 435.125,486.125 447.25,493.75 458.625,501.625 468.875,509.5 478.0,517.25 492.875,531.125 514.875,554.0 519.875,558.5 523.75,561.125 525.375,561.75 528.375,562.25 529.75,562.125"/>
    <polyline points="531.0,561.875 536.0,559.375 544.75,553.125 550.375,549.75 558.125,546.0 563.125,544.125 566.75,543.125"/>
    <polyline points="568.625,542.5 580.625,540.0 592.125,538.375 616.875,536.5 633.25,535.875"/>
    <polyline points="636.75,535.75 660.125,534.75 687.625,532.375 703.25,529.75 708.75,528.5 720.375,525.0 726.5,522.625 732.75,519.625 739.25,516.0 746.0,511.5 752.875,505.75 760.125,498.625 767.5,489.5"/>
    <polyline points="775.0,478.0 782.625,463.375 790.125,444.75 797.0,421.125 802.875,391.25 806.5,354.25 806.125,309.375 799.375,257.375 782.875,202.125 753.625,150.625 710.375,113.875 655.875,102.375 597.125,120.25 542.0,162.75 496.25,219.0 462.0,278.375 438.625,333.625 424.375,381.375 417.375,420.875 416.25,452.75 419.875,477.875 427.375,497.375 438.125,512.125 451.375,522.625 466.25,529.5 482.125,533.125"/>
    <polyline points="498.25,533.625 513.625,531.625 527.75,527.5 540.25,521.75 551.0,514.875 559.75,507.5 566.75,499.875 572.125,492.375 576.125,485.375 579.125,478.875 581.0,473.0 582.25,467.875 582.875,463.5 583.0,459.625 582.25,453.875 581.5,451.875 579.625,449.25 578.5,448.625 576.0,448.125 573.5,448.875 570.875,450.25"/>
    <polyline points="569.75,451.25 566.25,454.625 563.25,458.625 560.75,462.75 557.375,470.5 556.25,475.0 555.875,480.625"/>
    <polyline points="556.0,481.375 556.25,482.875 557.625,485.875 559.875,488.0 561.625,489.0 564.375,489.875 569.375,490.375"/>
    <polyline points="570.375,490.375 577.75,489.375 585.125,487.125 590.5,484.75 594.75,482.375 602.0,477.125"/>
    <polyline points="603.5,475.875 609.25,469.875 614.5,462.375 617.75,455.625 620.25,448.0 621.25,442.5 621.5,436.875 621.0,431.125 619.625,425.75 618.625,423.125 615.75,418.5"/>
    <polyline points="614.0,416.5 609.625,413.375 607.25,412.375 604.5,411.625 598.75,411.375 592.5,412.75 586.125,415.5 582.875,417.375 576.625,422.0 573.625,424.625 570.75,427.375 565.375,433.375 558.25,442.625 554.25,448.625 549.375,457.125"/>
    <polyline points="548.0,459.75 544.375,467.0 541.0,475.0 539.25,480.0 537.25,487.75 536.75,492.375 537.0,495.25"/>
    <polyline points="537.125,495.75 538.375,498.875 540.125,500.75 543.625,502.5 548.125,503.5"/>
    <polyline points="548.875,503.625 552.125,503.875 560.0,503.625 569.75,502.375 576.875,500.75"/>
    <polyline points="578.375,500.375 584.875,498.5 591.875,495.875 601.375,491.25 607.375,487.5 613.625,482.75 617.75,478.875 621.875,474.5 625.875,469.375"/>
    <polyline points="627.75,466.5 631.5,460.125 633.125,456.625 636.0,449.0 638.25,440.375 639.5,431.0 639.625,426.125 638.75,416.0 636.125,406.25 634.0,401.625 631.5,397.25 628.375,393.5 624.75,390.125 620.75,387.5 616.25,385.625 611.375,384.625 606.125,384.5 600.625,385.25 595.125,386.75 589.5,389.25"/>
    <polyline points="583.875,392.375 578.375,396.25 573.0,400.625 568.0,405.375 563.125,410.375 558.625,415.75 550.5,426.375 543.75,436.875 535.625,451.125 526.625,469.625 518.5,487.875"/>
    <polyline points="517.875,489.5 512.625,499.875 509.25,504.75 507.25,506.75"/>
    <polyline points="506.875,507.0 504.0,509.0 498.0,510.75"/>
    <polyline points="497.5,510.75 490.375,511.375 482.625,511.375"/>
    <polyline points="481.75,511.375 463.75,510.625 451.875,509.75"/>
    <polyline points="450.25,509.625 430.375,507.5 418.125,505.75 404.0,503.125 387.75,499.125"/>
    <polyline points="384.375,498.125 377.25,495.75 366.375,491.375 359.25,487.625 352.875,483.25 347.75,478.25 346.0,475.5 345.0,472.75 345.0,470.0 346.0,467.375 348.5,465.0 352.5,463.125 358.25,462.0 365.75,461.75 374.875,462.625 385.625,464.875 397.5,468.375 410.25,473.25 423.25,479.375 436.125,486.5"/>
    <polyline points="448.375,494.125 459.75,502.25 470.125,510.25 479.25,518.125 487.25,525.375 494.125,532.125 515.875,555.0 520.75,559.5 524.625,562.0 527.75,563.0 529.25,563.125 531.875,562.625 534.25,561.625 539.25,558.375"/>
    <polyline points="540.5,557.5 544.25,554.75 549.875,551.25 554.25,548.875 560.75,546.125 571.625,542.875 581.875,540.875"/>
    <polyline points="584.125,540.625 598.625,539.0 612.5,538.25 635.125,537.875 662.25,538.125"/>
    <polyline points="666.5,538.25 710.75,539.125 740.375,538.875 753.5,538.25 767.375,536.875 774.625,535.75 782.125,534.25 790.0,532.125 798.0,529.25 806.375,525.375 815.25,520.125 824.375,512.875"/>
    <polyline points="833.875,503.0 843.875,489.5 854.25,470.625 864.875,444.625 874.875,408.625 883.25,359.125 887.0,292.75 880.75,207.625 856.0,109.25 802.875,16.625 776.7224,0.0"/>
    <polyline points="580.9573,0.0 516.375,48.375 441.375,151.875 393.25,255.125 367.875,343.25 360.375,413.125 367.0,467.125 385.875,508.0 415.5,537.75 453.375,557.125 496.125,565.625 539.0,563.625 577.625,552.0 609.0,533.375 632.375,510.375"/>
    <polyline points="648.25,485.5 658.125,460.75 663.25,437.0 664.75,415.25 663.375,395.5 659.625,378.125 653.625,363.5 646.0,351.625 636.625,343.0 626.0,337.75 614.5,335.75 602.375,337.125 590.25,341.5 578.5,348.375 567.25,357.375 556.875,367.625 547.5,378.75 539.25,390.25 532.0,401.625 525.75,412.625 520.375,423.0 515.875,432.625 509.0,449.375 504.125,462.75"/>
    <polyline points="502.375,468.375 495.0,492.125 491.875,499.5 490.625,501.375 488.625,503.5 485.75,505.5 482.5,506.875"/>
    <polyline points="481.625,507.125 475.75,508.5 467.75,509.5 459.5,509.875 449.875,509.875"/>
    <polyline points="448.0,509.875 431.875,509.125 411.375,507.25 392.375,504.5 381.25,502.375"/>
    <polyline points="377.375,501.5 360.375,497.0 346.375,491.875 336.75,487.375 332.0,484.625 327.25,481.5 322.875,478.0 318.875,474.125 315.5,469.875 313.125,465.25 312.125,460.5 313.0,455.5 316.25,450.875 322.5,446.875 332.0,444.25 345.25,443.375 361.875,445.0 381.5,449.5 402.75,457.125 424.625,467.375"/>
    <polyline points="445.75,479.75 465.25,493.5 482.25,507.75 496.75,521.625 508.75,534.75 518.375,546.75 526.0,557.375 532.0,566.625 536.625,574.625 542.875,586.75 549.375,602.0 550.0,602.75 550.5,602.25 551.75,597.875"/>
    <polyline points="552.0,596.75 553.375,593.125 556.75,587.25 559.375,584.125 562.375,581.375 565.875,579.25 569.75,577.625 572.5,576.875 577.0,576.25"/>
    <polyline points="578.5,576.25 585.0,576.75 588.375,577.5 591.875,578.75 597.25,581.375 600.75,583.75 604.25,586.625 606.0,588.375 610.875,594.75 613.625,600.125 616.0,606.625 617.75,614.25"/>
    <polyline points="618.25,618.5 618.5,623.125 617.875,633.5 617.125,639.125 615.75,645.0 613.875,651.125 611.5,657.5 608.5,663.875 604.875,670.375 600.625,676.5 595.625,682.5 590.0,687.75 583.75,692.375 577.0,696.0 569.875,698.5 562.375,699.75 554.875,699.375 547.25,697.625 539.875,694.5 532.875,689.875 526.25,684.0 520.25,677.125 514.875,669.375 510.125,661.125 506.0,652.5"/>
    <polyline points="502.625,643.625 499.75,634.875 497.375,626.25 495.625,618.0 494.125,610.125 493.125,602.625 491.875,589.125 491.5,572.5 492.125,559.625 494.0,544.75 496.375,532.375"/>
    <polyline points="496.625,531.125 497.875,525.375 498.25,522.0 498.125,519.125 497.0,516.625"/>
    <polyline points="496.75,516.375 495.5,515.25 493.125,514.125 486.375,512.75"/>
    <line x1="485.75" x2="461.375" y1="512.75" y2="510.625"/>
    <polyline points="460.0,510.5 447.25,509.375 431.25,507.5 421.75,506.125 408.25,503.625"/>
    <polyline points="405.375,503.125 392.875,500.125 382.75,497.125 375.75,494.625 368.625,491.625 361.875,488.0 355.625,483.875 353.0,481.5 350.75,479.0 349.0,476.5 348.0,473.875 347.75,471.25 348.75,468.75 350.875,466.625 354.5,464.75 359.625,463.625 366.5,463.25"/>
    <polyline points="374.875,464.0 384.75,465.875 395.875,468.875 407.75,473.25 420.125,478.875 432.375,485.25 444.25,492.375 455.375,500.0 465.5,507.625 474.625,515.0 489.625,528.625 512.25,551.5 517.375,556.125 519.625,557.75 523.125,559.625 526.25,560.25 528.875,559.875"/>
    <polyline points="530.125,559.5 535.125,556.75 543.875,550.5 551.0,546.375 557.125,543.5 565.625,540.625"/>
    <polyline points="567.5,540.0 575.25,538.125 590.75,535.5 631.25,531.0"/>
    <polyline points="634.75,530.5 649.875,528.375 662.25,525.875 675.75,522.0 685.375,518.25 695.75,513.125 701.0,509.75 706.5,505.875 712.25,501.125 718.0,495.5 723.875,488.625 729.875,480.375 735.875,470.375 741.875,458.25 747.5,443.625 752.625,426.0 757.0,404.75"/>
    <polyline points="759.875,379.625 760.375,350.5 757.625,317.5 750.0,282.125 736.125,246.75 715.0,215.5 686.5,193.0 651.75,183.875 613.75,190.25 576.0,211.0 541.625,242.5 512.625,279.75 489.75,318.125 472.5,354.5 460.375,387.0 452.375,415.125 447.75,438.75 445.75,458.25 446.0,474.0 448.0,486.625 451.25,496.625 455.625,504.375 460.875,510.25 466.625,514.375 472.875,517.25 479.125,518.75"/>
    <polyline points="485.375,519.375 491.5,519.25 497.25,518.25 502.625,516.875 507.625,515.125 515.875,510.75 522.125,506.125 528.375,499.875 530.75,496.625 532.625,493.125 533.25,491.125 533.0,490.875 532.625,491.25"/>
    <polyline points="532.5,491.625 531.25,495.5 531.125,497.5 531.625,500.125 532.625,502.25"/>
    <polyline points="532.875,502.5 535.125,504.375 538.375,505.625 541.75,506.25 545.25,506.5"/>
    <polyline points="546.0,506.5 555.0,506.375 565.375,505.125 573.75,503.5"/>
    <polyline points="575.25,503.125 585.125,500.375 588.625,499.125 600.25,494.125 606.5,490.5 612.875,486.125 617.25,482.5 623.875,475.875"/>
    <polyline points="626.0,473.25 632.125,464.375 635.875,457.25 639.125,449.0 641.5,439.875 642.375,434.875 643.0,424.375 642.125,413.375 641.0,407.875 639.25,402.5 637.0,397.5 634.125,392.75 630.75,388.5 626.75,385.0 622.25,382.125 617.125,380.25 611.75,379.25 605.875,379.375 599.875,380.375"/>
    <polyline points="593.75,382.375 587.625,385.375 581.5,389.125 575.625,393.625 569.875,398.625 564.5,404.0 554.75,415.5 546.375,427.25 542.75,432.875 536.5,443.625 529.25,457.625 516.125,486.5"/>
    <polyline points="515.25,488.25 511.875,495.25 509.625,499.0 507.125,502.5 505.25,504.5 502.0,506.875"/>
    <polyline points="501.5,507.25 498.625,508.625 496.125,509.375 492.125,510.25 487.375,510.625"/>
    <polyline points="459.625,510.25 444.625,509.125 427.75,507.25 406.5,503.75"/>
    <polyline points="403.5,503.125 387.125,499.25 372.75,494.5 365.375,491.375 358.25,487.625 351.625,483.125 348.75,480.625 346.375,478.0 344.5,475.125 343.5,472.25 343.375,469.5 344.5,466.75 347.0,464.375 351.125,462.375 357.0,461.125 364.625,460.875"/>
    <polyline points="374.125,461.75 385.25,464.0 397.5,467.75 410.625,472.875 424.0,479.25 437.25,486.5 449.75,494.5 461.375,502.875 471.875,511.125 481.0,519.125 489.125,526.625 496.0,533.5 514.5,553.5 522.375,561.125 524.375,562.625 527.75,564.375 530.625,564.75 533.25,564.25"/>
    <polyline points="534.5,563.75 538.125,561.625 544.375,557.125 551.25,552.75 560.625,548.375 571.5,545.0"/>
    <polyline points="573.375,544.625 586.25,542.5 601.0,541.375 618.125,541.25 634.5,542.0 641.75,542.625"/>
    <polyline points="645.375,543.0 661.125,545.125 673.875,547.75 682.875,550.25 692.25,553.625 697.0,555.75 701.875,558.25 706.75,561.25 711.625,564.75 716.5,568.875 721.25,574.0 725.875,580.125 730.375,587.625 734.5,596.75 738.0,608.125 740.875,622.0 742.375,639.375 742.25,660.75 739.625,687.0"/>
    <polyline points="733.25,719.125 721.875,757.375 703.5,801.375 676.125,848.625 638.625,894.0 591.125,929.375 537.375,945.375 483.25,935.875 435.125,901.375 397.25,849.25 370.5,789.5 353.125,730.5 342.75,677.0 337.25,631.25 335.125,593.5 335.625,563.0 338.375,538.75 343.25,520.125 350.125,506.0 359.25,496.125 370.375,490.0 383.375,487.25 397.5,487.5 412.5,490.375 427.5,495.375 442.0,502.0"/>
    <polyline points="455.625,509.75 467.875,518.125 478.75,526.5 488.125,534.5 502.75,548.875 522.375,570.75 524.625,573.0 528.0,575.625 530.75,576.5 531.875,576.5 534.125,575.625 536.125,574.125 541.25,568.75"/>
    <polyline points="542.375,567.625 545.875,564.125 552.5,559.0 556.875,556.375 561.625,554.125 566.75,552.25 572.25,550.75 582.5,549.125"/>
    <polyline points="584.625,548.875 591.5,548.375 598.875,548.375 609.5,549.0 615.25,549.75 627.5,552.0 634.0,553.75 644.125,557.375 651.25,560.75 658.375,565.25"/>
    <polyline points="662.0,567.875 665.625,571.0 669.125,574.625 672.75,578.75 676.125,583.625 679.375,589.125 682.375,595.625 685.0,603.25 687.25,612.125 689.0,622.5 689.875,634.625 689.625,648.75 688.125,665.125 684.75,683.875 679.0,705.25 670.25,728.75 658.0,754.0 641.625,779.625 620.875,803.875 595.875,823.875 567.625,836.875 537.75,840.375 508.25,833.125 481.0,815.625 457.75,789.875 439.0,758.875"/>
    <polyline points="424.75,725.75 414.375,693.0 407.25,662.375 402.625,634.75 399.75,610.5 398.25,589.75 397.75,572.25 398.0,557.625 398.75,545.5 400.125,535.625 401.875,527.625 404.0,521.25 406.5,516.25 409.25,512.5 412.25,509.625 415.5,507.625 418.875,506.375 422.375,505.75 429.75,505.875 437.0,507.375 447.25,511.0 450.25,512.375"/>
    <polyline points="453.25,513.75 467.0,520.625 473.875,523.375 476.5,523.875 478.75,523.5 479.875,522.5 480.125,521.375"/>
  </g>
</svg>
