<?xml version="1.0" encoding="utf-8" ?>
<svg xmlns="http://www.w3.org/2000/svg" xmlns:cc="http://creativecommons.org/ns" xmlns:dc="http://purl.org/dc/elements/1.1/" xmlns:ev="http://www.w3.org/2001/xml-events" xmlns:inkscape="http://www.inkscape.org/namespaces/inkscape" xmlns:rdf="http://www.w3.org/1999/02/22-rdf-syntax-ns" xmlns:sodipodi="http://sodipodi.sourceforge.net/DTD/sodipodi-0.dtd" xmlns:xlink="http://www.w3.org/1999/xlink" baseProfile="tiny" height="27.09333333cm" version="1.2" viewBox="0 0 1024.0 1024.0" width="27.09333333cm">
  <metadata>
    <rdf:RDF>
      <cc:Work>
        <dc:format>image/svg+xml</dc:format>
        <dc:source>vpype read './original_svgs/Strange Attractors #120.svg' linemerge linesimplify write './Strange Attractors #120.svg'
</dc:source>
        <dc:date>2024-08-05T01:35:28.226097</dc:date>
      </cc:Work>
    </rdf:RDF>
  </metadata>
  <defs/>
  <g fill="none" id="layer1" inkscape:groupmode="layer" inkscape:label="1" stroke="black" stroke-width="0.7mm" style="display:inline">
    <polyline points="648.25,688.5 655.375,649.5 659.75,615.125 662.5,585.5 664.375,560.375 667.5,506.75 668.0,494.125 668.25,483.625 668.0,474.625 667.375,467.0 666.125,460.625 664.125,455.375 661.375,451.125 657.75,448.0 653.25,446.0 647.875,445.0 641.75,445.125 635.0,446.375 627.625,448.625 620.0,451.875 612.125,455.875 604.375,460.5 596.625,465.625 589.25,471.125"/>
    <polyline points="582.25,476.75 564.25,493.0 543.75,513.375 538.125,518.625 533.375,522.375 529.375,525.125 524.5,527.375 520.375,528.125 517.875,528.125 514.5,527.625"/>
    <polyline points="513.5,527.375 507.5,525.5 495.75,521.125 490.125,519.625"/>
    <polyline points="489.125,519.375 478.75,517.125 459.0,514.0"/>
    <polyline points="457.375,513.75 441.625,510.75 426.875,506.875 414.875,502.5 404.25,497.5"/>
    <polyline points="401.5,495.875 393.0,490.375 384.125,483.0 378.25,476.75 372.5,469.5 367.0,460.625 364.5,455.75 360.25,444.625 358.625,438.625 357.375,432.125 356.75,425.5 356.625,418.625 357.25,411.625 358.625,404.875 361.0,398.25 364.25,392.25 368.625,387.0 373.875,382.875"/>
    <polyline points="380.25,379.875 387.375,378.25 395.25,378.25 403.75,379.75 412.5,382.75 421.375,387.25 430.25,392.875 438.875,399.5 447.0,406.75 454.625,414.5 461.75,422.375 474.125,437.875 479.5,445.25 488.5,458.5 505.75,486.625 512.625,497.125"/>
    <polyline points="514.125,499.0 516.625,502.125 521.125,506.375 526.125,509.25 529.0,510.25 532.0,510.875 540.0,511.625"/>
    <polyline points="541.0,511.625 544.375,511.75 556.875,511.25 569.25,510.25 576.375,509.375"/>
    <polyline points="578.375,509.125 588.875,507.75 598.375,506.125 618.375,501.75 632.0,497.875 643.5,493.75 651.75,490.25"/>
    <polyline points="656.125,488.125 660.625,485.875 670.0,480.375 674.75,477.25 684.5,469.625 689.25,465.125 693.875,460.125 698.25,454.625 702.25,448.75 705.375,442.25 707.75,435.5 708.625,428.5 708.0,421.625 705.25,415.25 700.0,409.75 692.125,406.0 681.5,404.375 668.25,405.375 652.875,409.375 636.25,416.25 619.0,425.875 602.0,437.5 586.0,450.5 571.375,464.0"/>
    <polyline points="558.375,477.625 547.125,490.5 537.625,502.625 529.625,513.5 522.875,523.125 502.875,554.125 496.75,562.125 493.5,564.875 492.125,565.625 489.5,566.25 485.875,565.75 479.5,563.25"/>
    <polyline points="478.125,562.625 474.0,560.75 466.375,558.25 457.875,556.625 448.625,556.125 440.5,556.75 434.125,557.875"/>
    <polyline points="432.0,558.375 425.25,560.5 418.375,563.625 413.875,566.375 409.375,569.75 405.125,574.125 401.125,579.375 397.75,586.0 395.25,594.25 394.375,599.125 393.875,604.5 393.875,610.5 394.375,617.0 395.625,624.25 397.5,632.125 400.375,640.75"/>
    <polyline points="404.25,649.875 409.25,659.5 415.625,669.375 423.25,679.375 432.375,689.125 442.875,698.0 454.75,705.5 467.5,711.125 481.125,714.375 494.875,714.875 508.375,712.125 521.25,706.5 533.125,697.875 543.5,687.0 552.375,674.375 559.625,660.625 565.375,646.375 569.875,632.0 573.125,618.25 575.375,605.125 576.875,592.875 578.25,571.75 578.25,562.75 577.625,547.75"/>
    <polyline points="577.125,541.5 576.625,536.125 574.875,524.0 571.875,508.75 571.875,506.25 572.375,504.625 574.0,503.0 575.75,502.125"/>
    <polyline points="576.375,501.75 598.25,495.0 611.125,490.125"/>
    <polyline points="613.125,489.25 623.375,484.0 631.625,478.625 637.25,473.875 641.75,468.75 642.875,467.0 644.375,463.5 644.625,460.25 644.125,458.875 643.25,457.625 642.0,456.625 640.25,455.875 638.125,455.5"/>
    <polyline points="635.5,455.375 632.5,455.625 629.0,456.375 625.25,457.5 616.875,460.75 607.875,465.5 603.375,468.25 590.125,477.5 578.25,487.0 556.625,505.75 551.625,509.75 550.0,510.25 548.875,511.0 549.375,511.125 550.75,510.625 554.875,508.125"/>
    <polyline points="550.25,510.625 546.75,512.75 543.375,514.25 540.0,514.625 539.25,514.25 538.875,513.625 539.5,512.75 540.5,512.125 543.0,511.25 553.125,509.5 550.5,510.25 549.0,511.0 548.125,511.5 546.75,513.125 546.5,515.5 547.625,520.375"/>
    <polyline points="586.75,503.125 553.875,509.375 578.25,505.75 592.0,503.0"/>
    <polyline points="594.25,502.625 612.0,498.0 620.75,495.125 627.0,492.875 640.625,486.75 651.5,480.625 658.875,475.5 666.125,469.375 672.75,462.25"/>
    <polyline points="675.625,458.375 678.125,454.25 680.125,450.0 681.375,445.625 681.875,441.25 681.25,437.125 679.5,433.375 676.375,430.25 671.75,427.875 665.75,426.625 658.25,426.625 649.5,428.125 639.625,431.125 629.125,435.625 618.125,441.375 607.125,448.25 596.5,456.0 586.25,464.25 568.125,480.875 560.375,488.875 541.875,509.5 533.0,520.0"/>
    <polyline points="529.375,524.125 523.125,530.75 518.125,535.25 516.0,536.875 512.125,539.125 508.625,540.25 503.875,540.625 499.5,540.0 485.25,535.375"/>
    <polyline points="483.75,534.875 474.5,532.125 462.625,529.5 437.75,525.5"/>
    <polyline points="435.375,525.125 422.5,523.25 404.75,519.875 391.125,516.25 383.875,513.875 372.0,509.0 367.875,506.875 359.25,501.875 350.125,495.25"/>
    <polyline points="345.375,491.25 340.5,486.625 335.625,481.25 330.75,475.125 325.875,468.0 321.0,459.875 316.375,450.5 312.125,439.75 308.25,427.75 305.25,414.125 303.25,399.125 302.875,383.0 304.375,366.0 308.5,349.0 315.625,332.875 326.0,319.125 339.875,308.875 357.0,303.5 376.375,303.875 397.375,310.125 418.5,321.625 438.875,337.25 457.5,355.5 474.125,375.25 488.25,394.875 500.0,413.75"/>
    <polyline points="509.625,431.25 517.375,447.0 523.375,460.875 528.125,472.875 534.25,491.875 537.5,505.25 539.0,517.5 538.625,523.75 537.75,526.25 537.125,526.625 536.625,526.25 536.75,524.625"/>
    <polyline points="537.0,524.25 537.625,523.25 539.5,521.5 543.875,519.375 550.875,517.625 558.375,516.625"/>
    <line x1="559.75" x2="609.125" y1="516.5" y2="511.625"/>
    <polyline points="611.875,511.25 630.625,508.5 649.375,504.875 662.5,501.5 672.125,498.5 682.75,494.625 694.25,489.5 706.875,482.5 713.75,478.125 720.75,473.125 728.0,467.125"/>
    <polyline points="735.375,460.0 742.75,451.75 749.75,442.0 756.125,430.875 761.125,418.25 763.875,404.375 763.125,389.875 757.375,376.0 745.375,364.5 726.125,357.625 699.75,357.625 667.875,365.875 633.5,382.375 599.75,405.25 569.125,432.125 543.25,460.375 522.5,487.75 506.5,513.125 494.75,535.75 486.5,555.5 481.0,572.5 477.625,586.875 476.125,598.875 476.0,608.75 476.875,616.875 478.625,623.25"/>
    <polyline points="481.125,628.25 484.0,631.75 487.25,634.0 490.625,635.25 494.125,635.375 497.625,634.5 501.0,632.875 504.25,630.375 507.25,627.375 509.875,623.875 512.25,619.875 514.375,615.625 516.125,611.125 517.5,606.5 518.625,601.875 520.125,592.75 520.625,584.0 520.375,576.0 519.5,568.875 517.5,559.75"/>
    <polyline points="516.625,557.125 514.75,552.375 511.75,546.375 509.625,543.125 506.375,539.0 499.625,533.0 495.0,530.125 489.0,527.375"/>
    <polyline points="487.75,526.875 481.375,524.75 474.625,523.0 450.0,518.375"/>
    <polyline points="448.0,518.0 428.375,514.0 418.25,511.25 409.875,508.5 397.875,503.5 388.125,498.25 381.375,493.75"/>
    <polyline points="377.875,491.125 370.75,485.0 367.125,481.375 360.0,472.75 356.5,467.875 349.875,456.125 346.875,449.5 344.125,442.125 341.875,434.125 340.125,425.5 339.125,416.25 338.875,406.75 339.875,397.0 341.875,387.375 345.5,378.125 350.5,369.75 357.125,362.75 365.375,357.625 375.125,354.625 386.0,354.125 397.875,356.125 410.125,360.75 422.5,367.5"/>
    <polyline points="434.5,376.25 446.0,386.125 456.625,397.0 466.25,408.125 475.0,419.25 482.625,430.0 495.125,449.625 508.125,472.875 523.625,502.25 528.625,509.125 530.75,511.125 532.75,512.5"/>
    <polyline points="533.75,513.125 537.875,514.375 543.125,514.875 547.75,514.875 564.25,513.875"/>
    <polyline points="565.875,513.75 580.25,512.5 598.125,510.375 614.625,507.875 624.125,506.0"/>
    <polyline points="627.5,505.375 642.5,501.75 655.125,497.75 664.5,494.375 680.0,487.25 685.625,484.25 697.375,476.75 703.5,472.125 709.75,466.75 715.875,460.75 722.0,453.75 727.75,445.875 732.75,437.0 736.75,427.25 739.0,416.75 738.75,406.0 735.25,395.625"/>
    <polyline points="727.5,386.75 715.125,380.5 697.75,378.375 676.125,381.25 651.375,389.75 625.375,403.375 599.875,421.0 576.5,441.0 556.0,462.125 538.75,482.75 524.875,502.125 513.75,519.625 505.125,535.125 498.625,548.5 493.75,559.875 490.25,569.5 487.75,577.5 486.125,584.0 484.625,593.5 484.5,599.125 485.375,601.875 485.875,602.5 486.5,602.625"/>
    <polyline points="487.125,602.25 488.375,600.875 488.875,599.75 490.0,595.5 490.375,590.25 489.875,584.875 488.5,579.75 486.5,574.875 482.75,569.25 479.5,565.75"/>
    <polyline points="478.25,564.75 474.375,562.0 470.0,559.75 463.75,557.625 458.625,556.5 451.25,555.875 445.375,555.875 439.125,556.5 434.875,557.25"/>
    <polyline points="432.625,557.75 425.875,559.625 419.0,562.5 412.125,566.625 407.625,570.25 403.375,574.75 399.375,580.375 397.625,583.625 394.75,591.5 393.75,596.125 393.0,601.25 392.625,606.875 392.875,613.25 393.625,620.125 395.125,627.75 397.5,636.125"/>
    <polyline points="400.75,645.125 405.25,654.75 410.875,664.75 418.0,675.0 426.5,685.125 436.5,694.75 447.875,703.375 460.5,710.25 474.0,715.0 488.0,717.0 502.125,716.0 515.75,711.75 528.375,704.375 539.75,694.25 549.625,682.125 557.75,668.5 564.375,654.0 569.5,639.25 573.375,624.875 576.125,611.125 578.0,598.25 579.125,586.375 579.75,575.625 579.875,557.375 579.5,549.875"/>
    <polyline points="579.0,543.25 576.75,524.375 573.5,507.25 573.5,505.0 574.125,503.5 575.375,502.375 577.0,501.5"/>
    <polyline points="577.75,501.125 599.0,494.375 611.5,489.375"/>
    <polyline points="613.375,488.5 619.25,485.625 627.25,480.875 634.625,475.125 639.125,470.375 641.875,465.5 642.375,463.875 642.5,462.375 642.25,461.0 641.75,459.75 639.5,457.875 635.5,457.0"/>
    <polyline points="633.0,457.125 626.75,458.25 619.375,460.75 611.125,464.75 602.625,469.625 590.25,478.25 582.625,484.125 560.625,503.0 553.875,508.25"/>
    <polyline points="552.625,509.25 548.375,511.875 545.0,513.25 543.5,513.375 542.75,513.125 542.875,512.375 543.375,512.0"/>
    <polyline points="543.625,511.875 546.0,510.875 549.5,510.0 561.5,508.0"/>
    <polyline points="562.75,507.875 580.625,504.875 592.625,502.5 609.5,498.125"/>
    <polyline points="612.25,497.25 618.0,495.375 630.375,490.625 644.0,483.875 654.625,477.125 661.625,471.5 665.0,468.375 671.125,461.5 673.75,457.625 676.0,453.75 677.625,449.625 678.5,445.5 678.625,441.5 677.75,437.75 675.625,434.375"/>
    <polyline points="672.25,431.75 667.5,429.875 661.5,429.0 654.125,429.375 645.625,431.125 636.25,434.25 626.25,438.75 615.875,444.375 605.625,451.0 595.5,458.375 586.0,466.0 568.875,481.625 555.0,496.125 528.5,525.625 520.75,532.75 516.5,535.5"/>
    <polyline points="514.625,536.5 511.25,537.625 509.625,537.875 503.75,537.75 498.25,536.375 485.875,532.125 478.625,530.0"/>
    <polyline points="477.125,529.625 462.5,526.25 428.5,520.5"/>
    <polyline points="426.0,520.0 420.625,519.0 409.125,516.25 396.25,512.375 385.75,508.25 374.375,502.375 370.5,500.0 362.25,494.125 353.75,486.625 345.0,476.875 340.75,471.125 336.375,464.5"/>
    <polyline points="332.25,457.0 328.375,448.5 324.75,439.0 321.75,428.5 319.375,416.875 317.875,404.375 317.75,391.0 319.25,377.25 322.75,363.625 328.375,350.625 336.625,339.5 347.5,330.75 360.625,325.5 375.875,324.375 392.5,327.5 409.75,334.75 426.75,345.5 443.125,358.875 458.125,374.0 471.5,389.875 483.125,405.75 493.0,421.0 501.375,435.125 508.375,448.0 518.625,469.625"/>
    <polyline points="522.375,478.5 529.875,498.0 534.625,512.25 537.0,518.5 538.375,520.375 540.0,521.0 541.75,521.0 545.375,520.125"/>
    <polyline points="546.25,520.0 555.375,518.25 579.5,515.875"/>
    <polyline points="581.375,515.75 622.625,512.0 650.5,508.125"/>
    <polyline points="654.625,507.375 667.75,504.625 677.375,502.25 682.5,500.875 693.5,497.25 699.5,495.0 712.25,489.375 726.375,481.5 734.125,476.375 742.125,470.125 750.375,462.75 758.875,454.0 767.375,443.375 775.375,430.625 782.125,415.875 786.625,399.0 787.0,380.75 781.375,362.5 767.25,346.875 743.125,337.25"/>
    <polyline points="709.125,337.25 668.125,349.125 624.5,372.125 583.25,403.25 547.75,438.5 519.5,474.0 498.375,507.5 483.5,537.625 473.75,564.0 468.125,586.75 465.75,606.0 466.0,622.375 468.25,635.875 472.25,646.875 477.625,655.375 483.875,661.625 490.75,665.625 498.0,667.375 505.375,667.125 512.5,664.875 519.25,661.0 525.375,655.5 531.0,648.875 535.75,641.375 539.75,633.25 543.125,624.75"/>
    <polyline points="545.75,616.25 547.75,607.75 550.125,591.75 551.0,577.5 550.75,565.375 549.25,550.875 547.875,543.375 545.0,532.625 542.5,525.625 540.125,520.25"/>
    <polyline points="539.875,519.5 538.75,516.5 538.625,514.875 538.875,513.875 540.625,512.25 543.375,511.25 540.5,512.25 539.375,513.125 539.25,514.0 540.875,514.625"/>
    <polyline points="567.875,507.375 550.0,509.875 543.875,511.125 548.625,510.125 568.625,507.25"/>
    <polyline points="570.125,507.0 582.0,505.125 596.75,502.125 609.375,498.875 627.25,492.875"/>
    <polyline points="630.5,491.5 640.875,486.75 648.125,482.75 655.5,478.125 662.875,472.5 669.875,465.875 676.0,458.25 678.5,454.0 680.5,449.75 681.75,445.375 682.125,441.0 681.5,436.875 679.625,433.125 676.5,429.875 671.875,427.5 665.75,426.375 658.125,426.375 649.25,428.0 639.375,431.0"/>
    <polyline points="628.75,435.625 617.625,441.5 606.625,448.5 595.875,456.375 585.75,464.625 576.25,473.0 559.875,489.375 546.75,503.75 528.875,524.625 520.125,533.625 515.625,537.25 511.75,539.375 508.25,540.5 503.625,540.875"/>
    <polyline points="502.125,540.75 494.875,539.0 478.875,533.625 463.875,530.0"/>
    <polyline points="462.0,529.625 418.75,523.0 406.75,520.75 400.375,519.25"/>
    <polyline points="397.0,518.375 389.875,516.5 382.5,514.0 374.625,510.875 366.375,507.0 362.0,504.5 353.0,498.625 343.5,490.875 338.625,486.125 333.75,480.625 328.75,474.25 323.875,466.875 319.0,458.5 314.25,448.75 310.0,437.625 306.25,425.125 303.25,411.125 301.5,395.625 301.375,378.875 303.375,361.5"/>
    <polyline points="308.125,344.125 316.0,328.125 327.375,314.625 342.25,305.125 360.25,300.875 380.625,302.5 402.125,310.25 423.625,323.125 444.0,340.0 462.5,359.25 478.75,379.375 492.5,399.375 503.75,418.375 513.0,435.625 520.25,451.125 525.875,464.75 530.25,476.375 535.75,494.75 537.375,501.75 539.375,516.125 539.0,523.5"/>
    <polyline points="538.625,525.0 537.375,527.125 536.625,527.25 536.0,527.0 535.75,526.25 536.0,524.375 537.375,522.375 539.625,520.625 542.625,519.25"/>
    <polyline points="543.5,519.0 547.375,517.875 556.875,516.375 577.375,514.5"/>
    <polyline points="579.375,514.25 596.5,512.625 618.125,509.875 638.375,506.375 650.25,503.625"/>
    <polyline points="654.625,502.625 663.625,500.0 678.75,494.625 684.25,492.375 696.0,486.625 708.875,478.875 715.625,474.125 722.625,468.375 729.875,461.75 737.0,454.0 743.875,445.0 750.125,434.625 755.25,422.875 758.5,410.0 758.75,396.375 754.625,382.875 745.125,371.25 728.875,363.25 706.0,361.125 677.375,366.375 645.375,379.25"/>
    <polyline points="612.75,398.875 582.25,423.125 555.625,449.5 533.625,476.0 516.125,501.0 503.0,523.75 493.25,543.75 486.5,561.0 482.0,575.75 479.25,588.125 478.0,598.375 478.0,606.875 478.75,613.625 480.25,619.0 482.25,623.0 484.625,625.875 487.25,627.75 490.0,628.625 492.75,628.5 495.625,627.75 498.375,626.25 500.875,624.125 503.25,621.625 505.5,618.5 509.125,611.625"/>
    <polyline points="510.5,607.75 512.625,599.875 513.75,592.125 514.0,580.875 512.875,571.125 510.75,562.75 509.0,558.0 507.0,553.875 502.5,547.125 497.625,542.0"/>
    <polyline points="496.375,540.875 491.25,537.125 487.125,534.875 480.0,531.875 472.25,529.5 458.5,526.5"/>
    <polyline points="456.625,526.25 435.25,522.75 417.0,519.375 401.75,515.625 391.625,512.25"/>
    <polyline points="388.125,511.0 376.875,505.875 368.875,501.375 364.75,498.625 356.125,492.0 351.75,488.0 347.25,483.5 342.75,478.375 338.25,472.375 333.875,465.75 329.5,458.125 325.375,449.5 321.625,439.75 318.25,428.75 315.75,416.75 314.125,403.625 313.875,389.5 315.25,375.0 318.75,360.5 324.625,346.75 333.25,334.625 344.75,325.375"/>
    <polyline points="358.75,319.875 375.0,318.875 392.625,322.375 410.875,330.5 428.875,342.25 445.875,356.875 461.375,373.125 475.125,390.0 487.0,406.75 497.0,422.625 505.375,437.375 517.75,462.375 525.625,481.5 528.5,489.125 532.375,501.0 537.75,520.625"/>
    <polyline points="538.125,521.25 539.0,522.375 540.125,522.375 548.375,519.75 555.875,518.375"/>
    <polyline points="557.125,518.125 569.875,516.75 601.625,514.125"/>
    <polyline points="604.125,513.875 630.0,511.25 640.375,509.875 660.125,506.5 669.125,504.625 678.875,502.125 689.5,499.0 701.125,494.75"/>
    <polyline points="707.5,492.125 721.0,485.25 728.375,480.75 736.125,475.5 744.25,469.125 752.75,461.5 761.375,452.375 769.75,441.375 777.75,428.25 784.25,413.0 788.25,395.625 787.875,377.0 780.875,358.75 765.0,343.625 738.75,335.375 702.875,337.375 660.375,351.5 616.25,376.625 575.5,409.25 541.0,445.25 513.875,481.0 494.0,514.25 480.25,544.0 471.375,569.875 466.625,592.125"/>
    <polyline points="464.875,611.125 465.875,627.0 468.75,640.125 473.25,650.75 479.0,658.875 485.75,664.625 493.0,668.125 500.5,669.375 508.125,668.5 515.375,665.625 522.125,661.0 528.375,655.0 533.875,647.875 538.5,639.875 542.375,631.375 545.625,622.625 548.0,613.75 549.875,605.125 552.0,589.0 552.5,581.625 552.5,568.5 552.25,562.75 551.25,552.875"/>
    <polyline points="550.625,548.625 549.25,541.375 547.125,533.125 541.25,517.125 541.0,516.125 541.125,514.125"/>
    <polyline points="541.25,513.75 542.375,512.375 544.375,511.375 547.875,510.375 555.375,509.125"/>
    <polyline points="556.375,508.875 580.0,505.25 596.375,501.875"/>
    <polyline points="598.75,501.25 608.875,498.625 623.25,493.875 629.75,491.375 636.375,488.375 647.0,482.75 657.875,475.5 664.875,469.5 668.25,466.25 671.375,462.625 674.25,458.75 676.75,454.75"/>
    <polyline points="678.625,450.625 679.875,446.375 680.375,442.25 679.75,438.125 678.125,434.5 675.125,431.375 670.75,429.125 665.0,427.875 657.75,427.75 649.375,429.125 639.875,431.875 629.75,436.125 619.125,441.625 608.375,448.25 598.0,455.625 588.0,463.625 578.625,471.75 570.125,479.75 555.375,494.875 527.875,526.0"/>
    <polyline points="524.875,529.125 519.75,533.75 515.625,536.625 511.875,538.375 508.625,539.25 504.0,539.25 499.75,538.5 484.25,533.375"/>
    <polyline points="482.875,532.875 475.25,530.75 461.75,527.75 436.875,523.75"/>
    <polyline points="434.5,523.375 416.0,520.125 407.0,518.125 393.875,514.375 383.0,510.375 375.375,506.75 367.125,502.25 358.625,496.5 354.25,493.0 349.75,488.875"/>
    <polyline points="345.125,484.375 340.5,479.125 335.875,473.125 331.25,466.25 326.875,458.375 322.5,449.5 318.625,439.5 315.125,428.125 312.5,415.625 310.75,401.875 310.5,387.25 312.0,372.0 315.75,356.625 322.0,342.25 331.25,329.75 343.5,320.25 358.375,314.875 375.625,314.25 394.25,318.625 413.375,327.75 432.125,340.75 449.625,356.5 465.5,373.875 479.375,391.625 491.25,409.0 501.125,425.375"/>
    <polyline points="509.25,440.375 521.125,465.75 528.5,484.875 533.0,498.625 535.5,508.25 538.375,523.375 539.25,523.625 540.75,522.75"/>
    <polyline points="541.25,522.5 545.125,520.625 551.625,518.875 558.75,517.75 567.125,516.875"/>
    <polyline points="568.75,516.75 602.625,513.875 625.0,511.5"/>
    <polyline points="628.125,511.125 642.0,509.125 658.0,506.375 676.5,502.0 692.625,496.875 704.75,491.875 711.25,488.75 718.125,485.125 725.375,480.75 733.0,475.625 741.0,469.375 749.25,462.0 757.625,453.0 765.875,442.375"/>
    <polyline points="773.625,429.75 780.125,415.125 784.125,398.5 784.125,380.625 778.0,363.0 763.5,348.125 739.375,339.375 705.875,340.0 665.625,352.125 623.125,374.875 583.0,405.375 548.375,439.625 520.75,474.375 500.0,506.875 485.25,536.25 475.5,562.0 469.75,584.125 467.125,603.0 467.0,618.875 469.0,632.0 472.5,642.75 477.25,651.25 483.0,657.375 489.25,661.5 496.0,663.5 502.875,663.5"/>
    <polyline points="509.5,661.875 516.0,658.375 521.875,653.625 527.25,647.625 531.875,640.875 535.875,633.375 539.125,625.5 541.75,617.375 543.875,609.375 546.5,594.125 547.125,587.0 547.5,580.25 547.375,568.25 546.0,553.875 544.625,546.375 542.375,537.625 540.25,531.25"/>
    <polyline points="539.5,529.5 533.625,516.875 533.375,514.875 533.75,513.875"/>
    <polyline points="534.0,513.625 535.125,512.75 537.375,512.0 541.125,511.125 546.125,510.5"/>
    <polyline points="546.875,510.375 567.25,507.875 578.75,506.125"/>
    <polyline points="580.625,505.75 597.625,502.5 616.375,497.5 625.75,494.25 635.875,490.125 643.125,486.75 650.625,482.625"/>
    <polyline points="654.5,480.25 662.125,474.875 666.0,471.75 673.25,464.75 676.625,460.875 679.625,456.625 682.25,452.125 684.125,447.625 685.375,442.875 685.5,438.25 684.625,433.875 682.375,429.875 678.5,426.625 673.125,424.375 666.125,423.375 657.625,423.875 647.75,426.125 636.75,430.0 625.25,435.375 613.375,442.25 601.75,450.125 590.625,458.75 580.125,467.75 570.5,476.875"/>
    <polyline points="561.875,485.625 547.375,501.625 524.375,529.125 518.5,535.25 513.75,539.5 509.75,542.0 506.25,543.375 504.625,543.625 499.875,543.75 491.125,541.5"/>
    <polyline points="489.625,541.0 475.75,536.375 467.25,534.25 456.0,532.125 445.5,530.625"/>
    <polyline points="443.25,530.375 411.625,526.75 395.375,524.375 384.375,522.25 372.5,519.125 364.0,516.375"/>
    <polyline points="359.5,514.625 354.875,512.75 350.125,510.375 340.125,504.75 334.875,501.125 329.5,496.875 323.875,491.875 318.25,486.0 312.5,479.125 306.625,471.0 300.75,461.375 295.125,450.125 289.625,436.875 284.875,421.5 281.0,403.875 278.625,383.875 278.5,361.875 281.5,338.75 288.375,315.625 300.125,294.625 317.125,278.25 339.25,268.75 365.25,268.0 393.625,276.5 422.0,293.25"/>
    <polyline points="448.75,316.0 472.375,342.125 492.25,369.25 508.375,395.625 521.0,419.875 530.5,441.5 537.375,460.25 542.0,476.375 545.0,489.875 546.625,501.0 547.0,510.125 546.625,517.5 545.625,523.5 544.0,528.125 542.0,531.625 539.75,534.25 537.5,536.0 535.0,537.125 530.25,537.75 525.75,536.75 522.0,534.625 519.0,532.0"/>
    <polyline points="517.875,530.625 516.0,527.75 514.5,523.625 514.125,521.25 514.5,518.125 516.0,515.25 517.625,513.75 521.0,512.375 523.25,512.0"/>
    <polyline points="524.0,511.875 528.875,511.5 547.125,511.25"/>
    <polyline points="548.375,511.25 567.625,509.75 578.375,508.5 588.75,506.875"/>
    <polyline points="591.0,506.5 603.5,504.25 621.25,499.875 635.125,495.375 642.875,492.375 655.25,486.625 664.125,481.625 673.25,475.5 677.875,471.875"/>
    <polyline points="682.5,467.875 691.125,458.5 695.125,453.25 698.5,447.5 701.125,441.375 702.75,435.0 703.0,428.625 701.625,422.5 698.375,417.0 692.75,412.625 684.75,409.75 674.25,409.0 661.625,410.75 647.25,415.0 631.75,421.875 616.0,431.0 600.375,441.75 585.75,453.75 572.25,466.125 560.375,478.5 549.875,490.25 540.875,501.25 533.25,511.25 521.375,527.875"/>
    <polyline points="516.75,534.625 509.625,545.0 502.125,554.5 498.375,557.875 495.125,559.75 492.25,560.375 489.375,560.25 485.25,559.125 472.0,554.125"/>
    <polyline points="470.375,553.625 461.75,551.625 456.125,550.75 450.25,550.25 441.75,550.25 437.25,550.5 427.875,551.75 417.75,554.125"/>
    <polyline points="415.125,554.875 407.25,558.0 399.125,562.5 393.75,566.5 391.25,568.875 386.25,574.625 381.875,582.0 380.0,586.375 378.375,591.375 377.125,597.125 376.375,603.5 376.125,610.875 376.5,619.0 377.875,628.25 380.25,638.625 384.0,650.0 389.125,662.5 396.125,676.0 405.0,690.0"/>
    <polyline points="416.25,704.125 429.75,717.625 445.375,729.75 462.875,739.25 481.75,745.125 501.125,746.5 520.25,742.75 538.0,734.125 553.875,721.0 567.25,704.375 578.125,685.375 586.5,665.5 592.75,645.375 597.125,626.125 600.125,608.125 602.0,591.625 602.875,576.875 603.25,563.875 603.25,552.5 602.875,542.75 601.625,527.125 600.0,515.875 598.25,508.0"/>
    <polyline points="597.5,504.875 595.875,500.375 593.75,496.25 591.5,493.625 589.625,492.75 588.875,492.75 589.5,492.875"/>
    <polyline points="589.875,492.75 593.375,492.0 597.5,490.625 602.625,488.5 607.375,486.125"/>
    <polyline points="608.375,485.625 612.25,483.375 615.75,480.875 619.625,477.0 620.5,475.125 620.375,473.75 619.25,472.875 617.875,472.625"/>
    <polyline points="617.125,472.625 613.75,473.25 611.125,474.125 603.25,477.75 595.0,482.75 589.0,487.0 582.0,492.5"/>
    <polyline points="581.125,493.375 578.125,495.875 575.75,498.75 576.125,499.375 580.375,499.0"/>
    <polyline points="581.125,498.75 585.625,497.75 596.875,494.375 604.625,491.5 615.125,486.75"/>
    <polyline points="616.875,485.75 618.75,484.875 625.875,480.375 630.875,476.5 635.125,472.25 637.875,467.875 638.375,466.5 638.625,463.875 638.375,462.75 637.75,461.75 636.75,461.0 635.5,460.375 631.75,459.75 626.875,460.375"/>
    <polyline points="623.875,461.125 613.75,465.0 606.375,469.0 598.875,473.625 588.125,481.25 556.0,507.5"/>
    <polyline points="552.125,509.625 559.375,507.875 578.625,504.375"/>
    <polyline points="580.25,504.125 598.125,500.125 613.0,495.75 624.375,491.5 630.5,488.75 643.375,482.0"/>
    <polyline points="646.625,479.875 653.25,475.125 659.5,469.75 662.5,466.75 667.625,460.125 669.75,456.625 671.375,453.125 672.375,449.5 672.625,446.0 672.125,442.625 670.625,439.5 668.0,437.0 664.375,435.125 659.5,434.0 653.625,433.875 646.625,434.875 638.75,437.0 630.25,440.25 621.25,444.625 612.125,449.875 603.0,455.875 594.125,462.375 585.625,469.125"/>
    <polyline points="577.75,476.0 563.875,489.375 536.375,518.5 530.625,524.125 525.75,528.125 520.0,531.625 515.125,533.125 510.875,533.25 505.75,532.25"/>
    <polyline points="504.5,532.0 491.375,527.375 483.875,525.125 473.0,522.5"/>
    <polyline points="471.5,522.25 435.125,515.5 423.125,512.5"/>
    <polyline points="420.5,511.875 406.75,507.25 400.625,504.75 391.125,499.875 387.75,498.0 381.0,493.375 377.5,490.75 370.375,484.5 363.25,476.75 359.625,472.125 356.125,467.125 352.75,461.5 349.625,455.375 346.625,448.5 344.0,441.125 341.75,433.0"/>
    <polyline points="340.125,424.375 339.125,415.125 339.125,405.625 340.125,395.875 342.375,386.25 346.125,377.125 351.375,369.0 358.25,362.125 366.625,357.25 376.5,354.5 387.5,354.375 399.375,356.75 411.625,361.625 423.875,368.625 435.875,377.5 447.25,387.625 457.75,398.375 467.25,409.625 475.875,420.625 483.375,431.25 495.625,450.625 511.625,479.625"/>
    <polyline points="514.375,484.875 518.75,493.5 523.75,502.375 526.375,506.375 529.75,510.25 531.875,512.0 535.875,513.875 541.0,514.75 545.5,514.875"/>
    <polyline points="546.625,514.75 564.375,513.875 586.625,511.75"/>
    <polyline points="588.75,511.5 603.5,509.625 617.875,507.25 627.875,505.25 638.875,502.625 655.5,497.625 664.875,494.125 675.125,489.625"/>
    <polyline points="680.5,486.875 691.875,480.25 697.875,476.25 704.0,471.5 710.125,466.125 716.375,460.0 722.375,453.0 728.125,445.0 733.0,436.0 736.75,426.25 738.75,415.75 738.25,405.0 734.25,394.75 726.125,386.125 713.25,380.25 695.5,378.625 673.5,382.125 648.625,391.125 622.75,405.125 597.5,423.0 574.375,443.25 554.25,464.25 537.5,484.625 523.75,503.75 513.0,521.125"/>
    <polyline points="504.625,536.25 498.25,549.5 493.625,560.625 490.125,570.125 487.75,577.875 486.125,584.25 484.625,593.5 484.5,596.625 484.875,600.5 485.375,601.625 486.5,602.25 487.75,601.25 489.25,598.0 490.125,591.75 489.75,586.375"/>
    <polyline points="489.5,584.625 488.125,579.5 485.25,573.25 482.375,569.25 480.125,566.875 476.5,563.875 471.0,560.625 468.0,559.375 461.5,557.5"/>
    <polyline points="459.75,557.125 454.5,556.5 446.75,556.25 438.625,557.0 432.125,558.375 425.5,560.375 418.625,563.5 414.0,566.125 407.375,571.625"/>
    <polyline points="405.25,573.75 401.25,579.125 399.5,582.125 396.375,589.5 395.25,593.75 394.375,598.625 393.875,603.875 393.75,609.75 394.25,616.375 395.375,623.5 397.25,631.375 400.0,639.875 403.75,648.875 408.625,658.5 414.75,668.5 422.375,678.5 431.375,688.25 441.75,697.25 453.5,705.0 466.25,710.875 479.75,714.375 493.5,715.125 507.125,712.75 520.125,707.25"/>
    <polyline points="532.125,699.0 542.625,688.25 551.625,675.75 559.125,662.0 565.0,647.75 569.625,633.375 573.0,619.5 575.375,606.25 576.875,594.0 577.875,582.75 578.375,563.5 578.25,555.375 577.375,542.0 575.625,527.75 572.25,509.875"/>
    <polyline points="572.0,508.75 572.25,505.125 572.75,504.125 574.0,503.0 578.875,500.875 587.75,498.25"/>
    <polyline points="589.125,497.875 603.5,493.125 613.0,489.25 621.25,485.125 627.5,481.5 635.375,475.625"/>
    <polyline points="637.125,474.0 640.25,470.625 642.75,467.125 644.25,463.625 644.5,460.5 643.25,457.75 641.875,456.75 640.25,456.0 635.5,455.5 632.5,455.75 625.375,457.5 617.0,460.875 612.625,463.0 603.625,468.25 599.0,471.125 590.375,477.375"/>
    <polyline points="586.25,480.625 578.625,486.75 561.125,502.0 553.375,508.375 547.0,512.625 543.625,514.125 541.375,514.625"/>
    <polyline points="569.375,507.125 586.875,504.125 597.75,501.75 610.625,498.375 625.5,493.375"/>
    <polyline points="628.625,492.125 635.375,489.25 646.0,483.75 653.375,479.25 660.75,474.0 667.75,467.625 671.125,464.125 674.125,460.25 676.875,456.25 679.125,452.125 680.75,447.75 681.5,443.375 681.5,439.25 680.25,435.25 677.75,431.75 673.875,429.0 668.625,427.25 661.875,426.625 653.75,427.375 644.375,429.625"/>
    <polyline points="634.125,433.375 623.375,438.625 612.5,445.0 601.625,452.25 591.25,460.25 581.375,468.625 572.375,476.875 564.25,485.0 556.875,492.75 531.25,522.0 522.0,531.875 517.25,536.0 513.125,538.5 509.625,539.875 504.875,540.5"/>
    <polyline points="503.375,540.375 497.625,539.25 480.25,533.5 474.0,531.75 465.625,529.875"/>
    <polyline points="463.75,529.5 450.375,527.125 424.375,523.25 413.0,521.25 403.75,519.25"/>
    <polyline points="400.5,518.5 386.5,514.375 378.875,511.5 370.875,507.875 366.625,505.625 358.0,500.375 353.5,497.125 344.125,489.125 339.25,484.125 334.375,478.5 329.625,472.0 324.75,464.5 320.0,456.0 315.625,446.125 311.5,435.0 308.0,422.5 305.375,408.5 304.125,393.125 304.375,376.875"/>
    <polyline points="306.875,360.0 312.0,343.5 320.375,328.5 332.0,316.125 346.875,307.875 364.625,304.625 384.5,307.125 405.375,315.25 426.0,328.25 445.5,344.75 463.25,363.375 478.75,382.875 492.0,402.125 502.875,420.25 511.75,436.875 518.875,451.75 524.375,464.875 528.625,476.125 534.375,493.875 536.125,500.75 538.0,511.0 538.5,514.75 538.75,520.25"/>
    <polyline points="538.625,522.125 538.25,524.625 537.375,526.25 537.125,525.5 537.5,524.25 539.0,522.5 541.25,521.0 544.375,519.625"/>
    <polyline points="545.25,519.375 547.125,518.75 556.125,517.125 579.625,514.875"/>
    <polyline points="581.625,514.625 604.125,512.5 621.125,510.375 634.5,508.375 645.75,506.25 653.875,504.375"/>
    <polyline points="658.25,503.375 667.5,500.875 677.5,497.625 688.5,493.375 700.625,487.625 707.125,484.125 713.875,479.875 720.875,475.0 728.25,469.25 735.75,462.375 743.375,454.375 750.75,444.875 757.5,433.875 763.25,421.25 767.0,407.25 767.375,392.25 763.25,377.5 752.625,364.5 734.625,355.75 709.0,353.625 677.125,360.125 641.625,375.375"/>
    <polyline points="606.25,398.0 573.625,425.375 546.0,454.625 523.625,483.375 506.5,510.125 494.0,534.125 485.125,555.125 479.375,573.25 476.0,588.5 474.5,601.375 474.5,612.0 475.75,620.625 478.0,627.5 480.875,632.75 484.25,636.625 488.0,639.0 492.0,640.25 496.0,640.25 500.0,639.125 503.875,637.125 507.5,634.375 510.75,630.75 513.75,626.75 516.375,622.125 518.75,617.375 520.625,612.25"/>
    <polyline points="522.125,607.125 524.25,596.875 525.25,587.0 525.375,578.0 524.25,566.25 522.125,556.75 519.5,549.125 516.625,543.125 514.625,539.875 512.625,537.125 509.5,533.75"/>
    <polyline points="508.5,532.75 503.5,528.625 497.625,525.25 489.375,522.0 482.75,520.25"/>
    <line x1="481.625" x2="444.375" y1="520.0" y2="513.125"/>
    <polyline points="442.375,512.75 431.875,510.25 420.125,506.75 406.875,501.5 398.375,497.0 392.375,493.25 383.125,486.0 376.75,480.0"/>
    <polyline points="373.625,476.5 367.5,468.5 361.75,458.75 359.25,453.375 354.75,441.0 353.125,434.125 352.0,427.0 351.5,419.5 351.75,411.875 352.875,404.125 354.875,396.75 358.0,389.625 362.25,383.375 367.625,378.125 374.25,374.25 381.875,371.875 390.375,371.25 399.5,372.5 409.25,375.5 419.0,380.125 428.875,386.25 438.375,393.5 447.375,401.625"/>
    <polyline points="455.75,410.125 463.5,418.875 470.625,427.625 482.625,444.125 496.0,465.125 509.75,488.625 516.625,499.25 521.75,505.375 524.0,507.375 527.125,509.375"/>
    <polyline points="528.25,509.875 533.25,511.5 537.375,512.125 548.875,512.375 556.75,512.0"/>
    <polyline points="558.25,511.875 571.0,510.875 586.75,509.0 596.125,507.625 609.625,505.125"/>
    <polyline points="612.5,504.5 628.875,500.5 640.125,497.0 648.25,494.0 657.0,490.25 666.375,485.5 671.25,482.75 681.375,476.125 686.5,472.25 691.75,467.75 696.875,462.75 701.75,457.25 706.375,451.125 710.375,444.375 713.5,437.0 715.5,429.375"/>
    <polyline points="715.875,421.5 714.125,414.0 709.875,407.25 702.5,401.875 692.0,398.75 678.375,398.5 662.125,401.5 643.875,408.125 624.75,418.0 605.75,430.5 587.75,444.75 571.375,459.875 556.875,475.125 544.5,489.75 534.125,503.25 525.5,515.5 518.375,526.375 507.875,543.875 496.25,564.625 492.875,569.875 491.5,571.5"/>
    <polyline points="490.25,572.75 488.125,574.125 487.125,574.375 485.125,574.125 483.25,573.375 477.0,569.5 472.125,566.875 466.625,564.75 460.625,563.375"/>
    <polyline points="459.125,563.125 454.125,562.75 449.0,562.875 441.75,564.0 434.125,566.375 428.5,569.25 422.875,573.25 417.625,578.75 414.625,583.375"/>
    <polyline points="413.25,586.125 412.0,589.125 410.125,595.875 409.25,604.125 409.375,608.75 410.75,619.25 414.25,631.25 417.0,637.75 420.5,644.5 424.75,651.375 429.875,658.375 435.875,665.125 442.75,671.375 450.375,677.125 458.875,681.875 467.875,685.375 477.25,687.375 486.75,687.75 496.375,686.25 505.5,683.0 514.125,678.0 522.125,671.375"/>
    <polyline points="529.125,663.5 535.375,654.5 540.5,644.875 544.75,634.875 548.125,624.875 550.75,615.0 552.75,605.375 554.0,596.375 555.375,579.875 555.5,566.125 554.75,554.75 554.25,549.875 552.375,538.25 551.125,532.5 548.0,521.625"/>
    <polyline points="588.75,502.75 609.625,497.375 617.875,494.625 633.25,488.375 646.625,481.0 653.375,476.375 660.125,470.875"/>
    <polyline points="663.25,467.875 669.0,461.125 671.375,457.5 673.25,453.875 674.625,450.0 675.25,446.25 675.125,442.5 674.0,439.125 671.875,436.125 668.375,433.75 663.75,432.25 658.0,431.625 651.0,432.25 642.875,434.0 634.125,437.125 624.625,441.375 615.0,446.75 605.375,452.875 595.875,459.625 586.875,466.875 578.5,474.125 570.75,481.375 557.375,494.875 551.75,501.0"/>
    <polyline points="546.75,506.5 534.75,519.625 528.75,525.75 523.75,529.875 519.625,532.75 516.125,534.375 514.375,534.875 509.875,535.375 504.375,534.625 496.75,532.25"/>
    <polyline points="495.375,531.75 483.625,527.875 478.125,526.375 459.0,522.375"/>
    <polyline points="457.25,522.125 432.25,517.625 422.25,515.375 408.25,511.375 395.625,506.625"/>
    <polyline points="392.375,505.125 381.875,499.5 370.75,491.625 363.125,484.75 355.25,476.125 347.625,465.125 344.0,458.75 340.5,451.625 337.375,443.625 334.625,434.875 332.375,425.375 330.875,415.125 330.375,404.25 331.0,393.125 333.125,381.875 336.75,371.0 342.375,361.0 349.875,352.625 359.25,346.375"/>
    <polyline points="370.5,342.75 383.125,342.375 396.75,345.125 411.0,350.875 425.125,359.375 438.75,370.0 451.625,382.0 463.25,394.75 473.625,407.75 482.75,420.5 490.75,432.5 497.5,443.75 508.125,463.25 515.75,478.5 528.0,504.875 530.375,509.25 532.375,512.125"/>
    <polyline points="533.375,513.25 534.25,514.25 536.875,516.0 538.625,516.625 541.375,517.0 548.5,516.875 559.875,515.875"/>
    <polyline points="561.375,515.75 588.0,513.5 613.0,510.625"/>
    <polyline points="615.875,510.125 632.125,507.625 643.25,505.375 651.375,503.375 664.875,499.625 669.75,498.0 685.75,491.75 691.5,489.0 704.0,482.125 717.5,472.75 724.5,466.875 731.625,460.0 738.75,451.875"/>
    <polyline points="745.5,442.625 751.625,431.875 756.375,419.75 758.875,406.625 758.25,392.875 752.875,379.75 741.75,368.75 723.875,362.125 699.375,361.625 669.625,368.75 637.125,383.625 604.875,404.625 575.125,429.625 549.625,456.25 528.75,482.5 512.5,507.0 500.125,529.0 491.25,548.375 485.125,565.0 481.125,579.125 478.875,590.875 477.875,600.75 478.0,608.75 479.0,615.25 480.625,620.25 482.75,624.0"/>
    <polyline points="485.25,626.5 487.875,628.125 490.75,628.75 493.5,628.5 496.375,627.5 499.0,625.875 501.625,623.625 503.875,620.875 507.875,614.375 509.5,610.625 510.875,606.875 512.875,598.875 513.5,595.0 514.125,587.25 514.0,580.0 513.25,573.375 512.125,567.375 509.75,559.75"/>
    <polyline points="508.75,557.375 505.75,551.5 503.5,548.125 501.125,545.25 497.5,541.625 491.0,536.875 486.875,534.625 482.625,532.75 476.75,530.75"/>
    <polyline points="475.125,530.25 467.125,528.125 456.25,526.0 424.75,520.75"/>
    <polyline points="422.125,520.25 404.5,516.25 391.125,511.875 383.875,509.0 376.25,505.375 368.25,500.75 359.875,494.75 355.5,491.25 346.625,482.5 337.75,471.125 333.25,464.25 329.0,456.5"/>
    <polyline points="325.0,447.625 321.25,437.75 318.125,426.625 315.75,414.5 314.375,401.125 314.375,387.125 316.125,372.5 320.0,358.125 326.375,344.75 335.5,333.25 347.375,324.625 361.75,319.875 378.125,319.625 395.875,324.0 414.0,332.75 431.875,345.0 448.5,359.875 463.75,376.25 477.125,393.0 488.625,409.5 498.25,425.25 506.25,439.625 512.875,452.625 518.25,464.125 525.875,482.75"/>
    <polyline points="528.625,490.125 533.75,506.0 536.625,516.875 538.125,521.25 539.125,522.25 540.25,522.25 545.25,520.625"/>
    <polyline points="546.125,520.375 551.75,519.0 560.125,517.75 579.0,516.0"/>
    <polyline points="580.875,515.875 605.0,513.875 624.75,511.875 649.25,508.5"/>
    <polyline points="653.25,507.75 670.75,504.25 691.5,498.375 703.375,493.875 709.75,491.0 716.5,487.75 723.625,483.75 731.125,479.125 739.0,473.5 747.25,466.75 755.75,458.625 764.375,448.75 772.75,437.125 780.375,423.25 786.125,407.125 788.875,389.25 786.5,370.5 776.625,352.875 757.25,339.625"/>
    <polyline points="727.375,334.625 688.75,340.75 645.0,359.0 601.5,387.25 562.625,421.625 530.625,457.875 506.125,493.0 488.375,525.125 476.5,553.625 469.25,578.25 465.625,599.375 464.875,617.125 466.625,632.125 470.125,644.375 475.125,654.125 481.375,661.375 488.25,666.375 495.75,669.0 503.375,669.5 510.875,667.875 518.0,664.375 524.625,659.25 530.625,652.75 535.75,645.125 540.25,636.875 543.875,628.25"/>
    <polyline points="546.75,619.375 549.0,610.625 550.625,602.125 551.75,593.875 552.5,586.25 552.75,579.0 552.875,572.375 552.625,566.25 551.25,551.125 549.875,543.375 548.5,537.125 546.375,530.125 542.375,519.625"/>
    <polyline points="542.125,518.875 541.25,515.875 541.25,514.5 541.75,513.25 544.0,511.625 547.25,510.625"/>
    <line x1="547.875" x2="576.375" y1="510.375" y2="505.75"/>
    <polyline points="578.0,505.5 596.125,501.875 603.375,500.125 614.125,497.0 626.125,492.75 636.0,488.5 643.0,484.875"/>
    <polyline points="646.5,482.875 650.125,480.75 657.375,475.75 664.5,469.75 671.0,463.0 676.375,455.25 678.25,451.125 679.625,446.875 680.125,442.625 679.625,438.625 678.0,435.0 675.25,431.875 671.0,429.5 665.375,428.125 658.375,428.0 650.125,429.125 640.75,431.75 630.625,435.875 620.125,441.25 609.5,447.625 599.0,455.0 589.0,462.875"/>
    <polyline points="579.625,470.875 563.25,486.75 544.5,507.125 531.75,521.875 525.375,528.625 520.25,533.25 516.0,536.375 514.125,537.375 509.0,539.0 504.375,539.125 498.75,538.0"/>
    <polyline points="497.375,537.5 477.25,531.0 458.625,527.0"/>
    <polyline points="456.75,526.625 433.0,522.875 417.125,520.0 401.875,516.375 391.75,513.125"/>
    <polyline points="388.125,511.875 376.875,507.0 368.75,502.625 364.625,500.0 356.0,493.625 351.5,489.75 342.5,480.25 337.875,474.5 333.25,467.875 328.875,460.375 324.5,451.875 320.5,442.125 317.0,431.375 314.125,419.25 312.25,406.0 311.5,391.75 312.5,376.875 315.625,361.75 321.125,347.25 329.375,334.375 340.625,324.125"/>
    <polyline points="354.5,317.5 370.875,315.5 389.0,318.375 407.75,326.0 426.375,337.75 444.125,352.5 460.25,369.125 474.625,386.625 487.0,403.875 497.375,420.5 506.0,435.75 513.0,449.5 518.75,461.75 523.25,472.375 526.75,481.625 529.625,489.5 533.375,501.625 535.625,510.125 538.0,521.5"/>
    <polyline points="538.125,522.25 538.75,523.25 539.375,523.25 546.25,520.375 554.25,518.5"/>
    <polyline points="555.5,518.375 566.25,517.0 598.5,514.25"/>
    <polyline points="600.875,514.125 632.5,510.75 654.875,507.25 668.0,504.5 677.75,502.0 694.0,496.875"/>
    <polyline points="699.875,494.5 706.25,491.875 712.75,488.75 719.75,485.0 727.0,480.625 734.75,475.375 742.75,469.0 751.125,461.5 759.625,452.375 768.0,441.5 775.75,428.625 782.25,413.5 786.125,396.5 785.75,378.25 779.0,360.375 763.5,345.625 738.125,337.375 703.125,339.0 661.75,352.5 618.5,376.625 578.125,408.375 543.875,443.5 516.75,478.625 496.625,511.375 482.5,540.75 473.375,566.5"/>
    <polyline points="468.125,588.5 466.0,607.375 466.5,623.125 468.875,636.25 473.0,646.75 478.25,655.0 484.375,660.875 491.125,664.625 498.25,666.25 505.5,665.875 512.375,663.5 519.0,659.625 525.0,654.125 530.375,647.625 535.125,640.25 539.0,632.25 542.25,624.0 544.75,615.5 546.75,607.25 549.125,591.5 549.875,577.5 549.875,571.25 549.25,560.375"/>
    <polyline points="548.625,555.625 548.125,551.25 546.75,543.875 545.25,538.0 542.5,529.375 537.875,518.625 537.0,515.75"/>
    <polyline points="537.0,515.375 537.375,513.875 538.875,512.5 541.875,511.375 546.375,510.5"/>
    <line x1="547.125" x2="577.5" y1="510.375" y2="506.0"/>
    <polyline points="579.25,505.75 598.125,502.0 613.875,497.75 622.875,494.75 632.75,490.875 639.625,487.75 646.875,483.875"/>
    <polyline points="650.625,481.75 658.125,476.75 661.875,473.875 669.125,467.375 672.625,463.75 675.75,459.875 678.5,455.75 680.75,451.375 682.375,447.0 683.25,442.5 683.125,438.125 681.875,434.0 679.25,430.375 675.125,427.625 669.5,425.75 662.375,425.25 653.875,426.125 644.125,428.625 633.5,432.75 622.375,438.25 611.0,445.0 599.875,452.75 589.25,461.0 579.375,469.625"/>
    <polyline points="570.25,478.25 562.0,486.625 548.125,501.75 525.875,527.75 520.125,533.75 517.625,535.875 513.375,539.0 511.375,540.125 506.25,541.75 501.625,541.75 494.375,540.0"/>
    <polyline points="493.0,539.5 484.125,536.5 471.5,532.875 461.0,530.625 451.125,529.0"/>
    <polyline points="449.0,528.75 413.875,523.75 401.25,521.375 387.25,518.0 375.625,514.25"/>
    <polyline points="371.625,512.625 363.0,508.75 354.0,503.625 344.375,496.875 339.5,492.625 334.375,487.875 329.25,482.25 324.0,475.625 318.75,468.125 313.625,459.25 308.625,449.125 304.0,437.375 300.0,424.0 296.75,408.875 294.875,392.125 294.625,374.0 296.875,355.0 302.25,336.125 311.125,318.625 323.875,304.125 340.75,294.5 361.0,291.0 383.5,294.25"/>
    <polyline points="407.125,304.25 430.25,319.875 451.75,339.375 471.0,361.0 487.375,383.125 501.0,404.5 511.875,424.5 520.625,442.375 527.25,458.25 532.25,471.875 538.375,493.25 540.0,501.375 540.875,508.125 541.25,513.625 541.25,518.125 540.875,521.625 540.25,524.375 538.75,528.0 536.875,529.75 536.0,530.125 534.25,530.125 533.5,529.75"/>
    <polyline points="532.875,529.375 531.5,527.625 530.875,525.5 531.125,523.375 532.0,521.5 533.5,520.0 535.5,518.625 537.875,517.625 541.5,516.625"/>
    <polyline points="542.5,516.375 552.875,514.875 578.375,512.625"/>
    <polyline points="580.25,512.375 591.0,511.25 608.875,508.75 624.375,505.875 642.625,501.5 655.5,497.5"/>
    <polyline points="660.0,495.875 669.75,491.875 680.375,486.875 686.0,483.75 697.75,476.125 703.875,471.375 710.0,466.125 716.25,459.875 722.25,452.875 727.875,444.875 732.75,436.0 736.5,426.125 738.375,415.75 737.875,405.0 733.875,394.875 725.75,386.25 712.875,380.5 695.125,378.875 673.125,382.5 648.375,391.5 622.625,405.5 597.5,423.25 574.5,443.375"/>
    <polyline points="554.375,464.25 537.625,484.625 524.0,503.625 513.25,520.875 504.875,536.0 498.5,549.125 493.75,560.375 487.875,577.5 486.25,583.875 484.75,593.0 484.625,598.5 485.375,601.125 485.875,601.625 486.5,601.75 487.0,601.5 488.625,599.0 489.75,593.125"/>
    <polyline points="489.75,591.5 489.125,584.5 487.75,579.5 485.625,574.75 483.0,570.625 477.375,565.0 472.0,561.625 467.5,559.625"/>
    <polyline points="466.0,559.125 459.375,557.5 452.125,556.75 444.375,556.875 438.25,557.625 431.75,559.0 427.375,560.375 420.625,563.25 416.125,565.75"/>
    <polyline points="413.875,567.375 411.625,569.0 407.375,573.0 403.375,577.875 401.5,580.75 399.875,584.0 397.0,591.625 395.25,601.0 395.0,606.5 395.125,612.625 395.875,619.25 397.375,626.625 399.5,634.625 402.625,643.125 406.875,652.25 412.125,661.75 418.75,671.5 426.75,681.25 436.125,690.375 446.75,698.75 458.625,705.5 471.375,710.375"/>
    <polyline points="484.75,712.75 498.125,712.375 511.25,708.875 523.5,702.625 534.75,693.625 544.5,682.5 552.75,669.875 559.625,656.25 565.0,642.25 569.0,628.375 572.0,615.0 574.125,602.375 575.375,590.625 576.25,580.0 576.5,570.25 576.25,554.0 574.875,536.125 573.625,527.75 571.5,516.75"/>
    <polyline points="571.125,514.75 570.125,508.625 570.375,506.375 571.0,504.875 572.375,503.75 574.875,502.5 581.375,500.5"/>
    <polyline points="582.5,500.125 600.375,494.75 610.0,491.125 618.375,487.375 627.125,482.5"/>
    <polyline points="629.25,481.125 635.625,476.625 639.375,473.25 644.125,467.625 645.25,465.75 646.75,462.125 646.75,458.625 646.25,457.125 645.25,455.875 643.75,454.875 641.75,454.125 639.25,453.75 632.875,454.125 624.875,456.375 620.375,458.125 610.875,462.875"/>
    <polyline points="606.0,465.75 601.125,468.75 587.125,478.875 575.0,488.875 557.5,504.5 549.875,510.625 543.5,514.625 540.75,515.625"/>
    <polyline points="540.0,515.75 537.125,516.0 535.75,515.625 534.75,514.5 534.875,513.75 535.75,513.0"/>
    <polyline points="536.0,512.875 539.75,511.5 550.5,509.875"/>
    <polyline points="551.5,509.75 570.125,507.375 588.25,504.25"/>
    <polyline points="590.375,503.875 604.75,500.625 612.875,498.375 628.375,493.125 635.125,490.25 646.0,485.0 653.5,480.5 661.125,475.25 668.625,468.875"/>
    <polyline points="672.125,465.25 675.5,461.5 678.5,457.375 681.125,453.0 683.125,448.5 684.375,443.875 684.75,439.25 684.0,434.875 681.875,431.0 678.375,427.625 673.25,425.25 666.625,424.125 658.375,424.5 648.875,426.375 638.25,429.875 627.0,435.0 615.375,441.5 603.875,449.125 592.75,457.5 582.25,466.25 563.875,483.875 549.25,499.875 538.0,513.125"/>
    <polyline points="533.375,518.75 522.625,531.125 517.25,536.5 512.875,539.875 509.0,541.875 505.625,542.875 500.875,543.0 493.625,541.375 484.75,538.375"/>
    <polyline points="483.25,537.75 472.0,534.5 457.625,531.5 435.75,528.5"/>
    <polyline points="433.25,528.25 417.125,526.25 401.625,523.875 387.625,521.125 380.0,519.125 372.0,516.625 363.375,513.375 354.25,509.125 344.625,503.5"/>
    <polyline points="339.5,499.875 334.375,495.875 329.0,491.0 323.5,485.375 318.0,478.75 312.375,471.0 306.875,462.0 301.375,451.375 296.25,439.0 291.625,424.75 287.875,408.5 285.5,390.125 285.0,370.0 287.25,348.625 292.875,327.25 302.625,307.375 317.125,291.0 336.375,280.25 359.375,277.0 385.125,282.0 411.625,294.75 437.125,313.75 460.5,336.75 480.75,361.5 497.625,386.375 511.125,409.875"/>
    <polyline points="521.75,431.25 529.75,450.25 535.625,466.625 539.75,480.5 542.375,492.25 543.875,501.875 544.5,509.875 544.375,516.375 543.75,521.5 542.75,525.625 541.375,528.75 538.125,532.75 534.625,534.375 532.875,534.5 529.625,534.0 526.875,532.625 524.75,530.625 523.875,529.625 522.125,526.25"/>
    <polyline points="521.875,525.25 521.625,524.125 521.875,520.5 522.5,519.0 524.5,516.75 525.75,515.875 528.75,514.625 535.875,513.375"/>
    <polyline points="536.875,513.25 557.0,512.0 569.5,510.875"/>
    <polyline points="571.25,510.75 587.0,508.875 607.125,505.5 622.375,502.0 636.625,497.875"/>
  </g>
</svg>
