<?xml version="1.0" encoding="utf-8" ?>
<svg xmlns="http://www.w3.org/2000/svg" xmlns:cc="http://creativecommons.org/ns" xmlns:dc="http://purl.org/dc/elements/1.1/" xmlns:ev="http://www.w3.org/2001/xml-events" xmlns:inkscape="http://www.inkscape.org/namespaces/inkscape" xmlns:rdf="http://www.w3.org/1999/02/22-rdf-syntax-ns" xmlns:sodipodi="http://sodipodi.sourceforge.net/DTD/sodipodi-0.dtd" xmlns:xlink="http://www.w3.org/1999/xlink" baseProfile="tiny" height="27.09333333cm" version="1.2" viewBox="0 0 1024.0 1024.0" width="27.09333333cm">
  <metadata>
    <rdf:RDF>
      <cc:Work>
        <dc:format>image/svg+xml</dc:format>
        <dc:source>vpype read './original_svgs/Strange Attractors #430.svg' linemerge linesimplify write './Strange Attractors #430.svg'
</dc:source>
        <dc:date>2024-08-05T01:35:58.300694</dc:date>
      </cc:Work>
    </rdf:RDF>
  </metadata>
  <defs/>
  <g fill="none" id="layer1" inkscape:groupmode="layer" inkscape:label="1" stroke="black" stroke-width="0.7mm" style="display:inline">
    <polyline points="183.875,588.375 197.0,545.375 203.625,518.5 203.5,505.125 197.75,503.125 187.75,511.0 175.875,528.0 164.625,552.875 157.375,584.25 157.5,619.375 167.625,655.0 188.25,687.0 217.375,712.5 251.625,730.25 286.5,740.625 319.0,745.25 347.0,746.125 369.75,744.875 387.5,742.5 400.5,739.875 409.625,737.25 415.5,734.625 418.875,732.125 420.25,729.375 420.25,726.5 419.25,723.25"/>
    <polyline points="417.5,719.5 413.5,710.5 411.5,705.125 409.875,699.125 408.75,692.875 408.0,686.125 407.875,679.125 408.25,672.125 409.125,664.875 410.375,657.75 412.125,650.75 414.25,643.875 419.25,631.0 422.0,624.875 428.0,613.75 437.375,599.25 443.5,591.0 452.375,580.375"/>
    <polyline points="455.125,577.25 465.625,566.5 478.75,554.625 489.5,546.25 495.5,542.125 502.0,538.25"/>
    <polyline points="503.125,537.625 509.625,534.75 516.375,533.0 522.375,532.625 526.75,533.125"/>
    <polyline points="527.5,533.25 535.625,535.5 544.625,539.25 552.875,543.125"/>
    <polyline points="554.125,543.625 562.5,547.5 569.0,550.125 580.0,554.0 591.0,556.625 601.25,557.875"/>
    <polyline points="604.125,557.875 613.125,557.5 619.75,556.5 626.875,554.75 634.5,551.875 642.75,547.875 651.375,542.25 660.5,534.75 665.0,530.25 669.625,525.125 674.125,519.5 678.5,513.25 682.625,506.375 686.5,499.0 689.875,491.125 692.625,482.875 694.75,474.375 696.0,465.625"/>
    <polyline points="696.375,457.0 695.625,448.625 693.875,440.625 691.0,433.375 687.0,426.875 682.125,421.375 676.25,416.875 669.75,413.5 662.625,411.25 655.25,410.0 647.625,409.75 639.875,410.25 632.375,411.5 625.0,413.25 617.875,415.5 611.0,418.125 598.5,423.875 587.5,430.125 577.875,436.125 562.125,447.375"/>
    <polyline points="558.75,449.875 537.875,465.75 528.25,472.5 521.75,476.375 517.25,478.625 510.625,481.25"/>
    <polyline points="509.375,481.625 505.75,482.5 501.125,483.0 496.5,483.0 491.875,482.5 488.5,481.75 479.875,478.875"/>
    <polyline points="478.5,478.375 467.0,473.375 446.625,463.75 431.625,457.875"/>
    <polyline points="428.75,456.875 419.375,454.0 408.5,451.625 400.125,450.375 390.875,449.75 380.5,449.875 368.625,451.25 362.125,452.375 355.25,454.125 347.875,456.5 340.125,459.375 331.875,463.25 323.25,467.875 314.375,473.625 305.125,480.625 295.875,489.0 286.75,498.75 278.25,510.0"/>
    <polyline points="270.5,522.75 264.25,536.875 260.0,552.125 258.25,568.0 259.5,583.875 263.875,599.125 271.375,613.125 281.625,625.375 294.25,635.375 308.25,643.0 323.25,648.25 338.25,651.5 352.75,653.0 366.5,653.0 379.25,652.0 390.875,650.125 401.375,647.75 410.625,645.0 419.0,642.0 426.5,639.0 439.25,632.875 449.625,627.125 458.25,621.75"/>
    <polyline points="462.125,619.25 478.25,608.875 486.25,604.25 493.5,600.75 498.125,599.0 506.875,596.625 511.125,596.125 517.25,596.0 523.25,596.75"/>
    <polyline points="525.25,597.125 533.0,599.75 540.75,603.75 548.375,609.25 554.125,614.5 559.625,620.875 564.875,628.375 566.625,631.125 569.75,637.25 571.125,640.625"/>
    <polyline points="572.5,644.25 574.625,652.125 576.125,661.125 576.375,671.5 575.875,677.375 574.875,683.625 573.375,690.375 571.125,697.75 568.0,705.75 563.75,714.5 558.375,723.75 551.5,733.875 543.0,744.625 532.5,756.125 519.75,767.875 504.5,779.75 486.75,791.25 466.5,801.625 444.125,810.0 420.25,815.125 395.875,816.0 372.5,811.75 351.625,801.875"/>
    <polyline points="334.25,786.75 321.5,767.125 313.5,744.625 309.625,720.75 309.375,697.125 311.625,674.75 315.625,654.25 320.5,636.25 325.75,620.625 330.875,607.375 335.875,596.375 340.5,587.125 344.75,579.625 351.875,568.5 357.75,561.375 360.25,558.875 364.875,555.375 367.0,554.25 371.0,552.5 376.875,551.0"/>
    <polyline points="378.75,550.625 388.125,548.625 391.75,547.5 398.75,544.75 401.875,543.125 405.0,541.25 410.25,537.25 413.5,534.0 416.25,530.625"/>
    <polyline points="417.0,529.5 419.25,525.0 420.125,521.75 420.375,518.625 420.0,515.5 418.875,512.625 417.125,510.0 414.75,507.625 411.625,505.5"/>
    <polyline points="410.375,504.875 404.875,502.875 398.125,501.875 390.25,502.125 383.625,503.375 376.625,505.875 369.375,509.625 364.75,512.875 360.25,516.875"/>
    <polyline points="358.25,519.125 356.375,521.5 353.0,526.75 350.625,532.375 349.5,538.25 349.25,541.25 350.0,547.125 352.25,552.5 353.875,554.875 358.0,559.25 360.5,561.0 363.25,562.5 369.375,564.75 372.625,565.5 379.375,566.125 382.875,566.125 389.875,565.25"/>
    <polyline points="393.25,564.625 399.875,562.75 406.25,560.375 414.875,556.125 422.625,551.25 429.25,546.25 436.5,539.5 442.0,533.0 446.125,526.75"/>
    <polyline points="446.875,525.25 449.25,519.625 450.125,515.625 450.375,510.5 450.0,508.0 449.0,504.5 447.375,501.125 445.0,497.75 442.125,494.625"/>
    <polyline points="441.0,493.625 435.75,489.5 429.125,485.875 423.25,483.25 418.75,481.75 413.75,480.5 402.375,478.75 395.75,478.5 388.625,478.875 380.75,479.875"/>
    <polyline points="376.625,480.75 367.75,483.25 363.125,485.0 353.5,489.5 343.5,495.875 338.5,499.75 333.625,504.125 328.875,509.0 324.375,514.5 320.25,520.375 316.75,526.875 313.75,533.75 311.625,540.875 310.375,548.375 310.125,555.75 311.0,563.125 313.125,570.25 316.25,576.875 320.5,583.0 325.625,588.375 331.625,593.0 338.25,596.75 345.5,599.625"/>
    <polyline points="352.875,601.625 360.5,602.875 368.125,603.375 375.625,603.375 382.875,602.75 389.875,601.625 396.625,600.125 409.125,596.375 420.125,591.875 430.0,587.0 438.75,582.0 450.125,574.875 462.75,566.125 473.0,558.5"/>
    <polyline points="475.25,556.875 485.375,549.5 496.625,542.125 505.625,537.375 512.0,535.0"/>
    <polyline points="513.0,534.75 519.625,533.625 525.0,533.75 529.5,534.5 536.0,536.5"/>
    <polyline points="537.0,536.75 543.25,539.25 559.375,546.625 568.875,550.5"/>
    <polyline points="570.625,551.125 580.0,554.375 588.75,556.625 598.75,558.125 607.25,558.375 616.625,557.625 623.625,556.125 631.0,553.875 639.0,550.375"/>
    <polyline points="643.25,548.125 647.625,545.5 656.625,538.875 665.875,530.25 670.5,525.0 675.0,519.25 683.625,506.0 687.5,498.5 690.875,490.375 693.625,482.0 695.75,473.375 696.875,464.5 697.125,455.75 696.375,447.25 694.5,439.25 691.375,431.875 687.25,425.5 682.125,420.0 676.125,415.625 669.5,412.375 662.25,410.125 654.625,409.0 646.875,408.875"/>
    <polyline points="639.125,409.5 631.5,410.875 624.0,412.75 616.875,415.125 603.625,420.625 591.875,426.75 577.0,436.0 568.625,441.875 533.125,468.5"/>
    <polyline points="531.25,469.75 522.625,475.125 513.875,479.375 505.0,481.875 500.25,482.375 496.75,482.375"/>
    <polyline points="495.625,482.25 488.5,481.125 481.125,478.875 472.875,475.5 461.875,470.375"/>
    <polyline points="460.125,469.625 448.375,464.125 441.5,461.25 431.0,457.25 421.875,454.25 415.125,452.5 403.375,450.375 394.5,449.5 384.5,449.25"/>
    <polyline points="379.0,449.5 373.125,450.0 360.375,452.25 353.25,454.125 337.875,459.75 329.5,463.75 320.75,468.75 311.625,474.875 302.375,482.25 293.0,491.0 283.875,501.125 275.375,513.0 268.0,526.25 262.125,540.75 258.5,556.375 257.375,572.375 259.5,588.375 264.75,603.5 273.125,617.25 284.25,629.0 297.375,638.5 312.0,645.5 327.125,650.25 342.25,653.0"/>
    <polyline points="356.75,654.0 370.25,653.625 382.75,652.375 394.125,650.25 404.25,647.75 413.375,644.875 421.5,641.875 428.75,638.875 435.25,635.75 446.25,629.875 455.5,624.375 479.0,609.25 486.875,604.75 494.125,601.375"/>
    <polyline points="496.375,600.375 500.875,598.875 509.375,597.125 515.625,596.875 519.625,597.125 523.5,597.75 527.5,598.75 531.375,600.125 537.125,602.875 540.875,605.125 546.625,609.375"/>
    <polyline points="548.5,611.0 555.875,618.375 559.375,622.875 566.0,633.625 568.875,640.0 570.125,643.5 573.125,655.5 573.875,665.0 573.875,670.25 572.5,682.0 571.0,688.625 568.75,695.75 565.75,703.5 561.75,711.875"/>
    <polyline points="556.625,721.0 550.125,730.625 542.0,741.0 532.0,751.875 520.0,763.25 505.75,774.625 489.0,785.625 470.0,795.75 448.875,804.0 426.25,809.5 403.125,811.125 380.5,808.125 360.0,799.875 342.625,786.625 329.25,769.0 320.25,748.125 315.5,725.625 314.25,702.875 315.75,680.875 319.0,660.5 323.5,642.375 328.5,626.375 333.625,612.625 338.625,601.0 343.375,591.125 347.75,583.0"/>
    <polyline points="351.75,576.25 355.375,570.75 361.5,562.5 366.75,557.0 371.125,553.375 377.0,549.875 393.375,543.75 399.125,541.0 400.375,540.125"/>
    <polyline points="401.625,539.375 405.25,536.875 408.25,534.125 411.5,530.25 413.25,527.375 414.375,524.5 415.0,520.75 414.75,518.0 414.125,516.25"/>
    <polyline points="413.875,515.5 412.375,513.125 410.25,511.0 408.5,509.75 403.0,507.375 398.875,506.625 394.25,506.375 389.0,506.875 383.5,508.25"/>
    <polyline points="381.5,508.875 377.625,510.5 373.75,512.625 368.125,516.625 363.125,521.875 359.25,528.0 357.625,532.5 357.125,534.75 356.75,537.0 356.875,541.625 357.375,543.875 359.125,548.0 360.375,549.875 363.625,553.25"/>
    <polyline points="365.5,554.625 369.875,557.0 377.5,558.875 380.25,559.125 385.875,559.0 388.625,558.75 394.25,557.625 399.625,556.0 404.875,554.0 412.0,550.25 418.375,546.125 425.5,540.125"/>
    <polyline points="427.0,538.625 431.0,534.125 434.25,529.625 436.625,525.375 438.25,521.125 439.125,517.125 439.25,513.25 438.75,509.625 438.0,507.25 436.875,505.0"/>
    <polyline points="436.25,503.875 433.0,499.625 428.375,495.625 422.375,492.125 416.875,489.875 412.75,488.625 405.625,487.25 397.5,486.625 391.5,486.875"/>
    <polyline points="388.375,487.125 385.0,487.5 378.0,489.0 374.375,490.125 366.75,492.875 358.75,496.875 350.75,502.125 342.875,508.875 339.125,512.875 332.5,521.75 329.75,526.75 327.375,532.0 325.625,537.375 324.5,543.0 324.125,548.75 324.375,554.375 325.5,559.875 327.375,565.125 330.125,570.0 333.5,574.5"/>
    <polyline points="337.625,578.375 342.25,581.875 347.5,584.625 353.0,586.875 358.75,588.5 364.75,589.5 376.75,590.125 388.375,588.875 399.5,586.375 404.625,584.75 409.625,583.0 418.875,579.0 427.25,574.625 434.75,570.25 444.625,563.625 453.0,557.375"/>
    <polyline points="455.5,555.375 464.375,547.875 476.0,537.125 482.0,531.0 489.25,522.5"/>
    <polyline points="489.75,521.625 492.875,516.875 494.25,513.375 494.625,511.375 494.375,507.625"/>
    <polyline points="494.25,507.25 493.75,505.875 491.5,502.375 488.125,498.75 484.625,495.625"/>
    <polyline points="484.0,495.125 479.5,491.625 469.75,484.875 460.625,479.25 457.5,477.625"/>
    <polyline points="456.0,476.75 449.0,473.0 436.125,467.25 428.5,464.5 419.75,461.875 405.875,459.125 393.375,458.125 383.875,458.375"/>
    <polyline points="378.625,458.875 367.375,460.625 354.875,464.125 341.0,469.875 333.5,473.75 325.875,478.5 318.125,484.125 310.125,490.75 302.375,498.5 295.0,507.375 288.125,517.375 282.25,528.5 277.625,540.5 274.75,553.25 273.875,566.375 275.25,579.375 279.125,591.75 285.375,603.125 293.75,613.25 303.875,621.625 315.375,628.25 327.625,633.0 340.125,636.125"/>
    <polyline points="352.5,637.875 364.5,638.25 375.875,637.625 386.5,636.25 396.25,634.25 405.25,631.875 413.375,629.25 427.625,623.5 439.5,617.625 454.125,609.25 481.75,592.0 492.5,586.375"/>
    <polyline points="494.875,585.25 499.75,583.25 506.5,581.125 513.0,579.75 519.25,579.125 525.375,579.25 533.375,580.5 541.5,582.75 547.75,585.125"/>
    <polyline points="549.875,586.125 556.375,589.25 567.75,595.75 603.875,619.25 618.125,627.75"/>
    <polyline points="622.0,629.75 626.125,631.875 635.0,635.625 645.0,639.0 656.375,641.25 662.75,641.75 669.625,641.75 677.25,641.125 685.625,639.5 694.875,636.75 705.25,632.5 716.875,626.375 729.875,617.75 744.5,606.0 760.875,590.375 778.875,569.875 798.125,543.5 817.625,510.5 835.875,470.625 850.125,424.625 856.875,375.0 852.875,326.5 836.125,284.625"/>
    <polyline points="807.625,254.125 771.125,237.125 731.75,232.5 694.375,237.0 662.0,246.5 635.875,258.25 616.375,270.125 602.75,281.125 594.125,290.875 589.75,299.25 588.625,306.75 590.0,313.625 593.25,320.25 607.625,340.625 612.375,348.0 616.625,355.875 620.0,364.0 622.625,372.25 624.125,380.5 624.875,388.75 624.75,396.625 623.875,404.25 622.375,411.5 620.5,418.375"/>
    <polyline points="618.125,424.625 615.625,430.5 610.0,441.0 601.25,453.625 590.625,466.625 574.125,484.25 564.875,495.0"/>
    <polyline points="563.875,496.375 559.875,502.5 558.25,505.75 556.875,509.75 556.375,512.625 556.375,516.125 557.625,521.0"/>
    <polyline points="558.0,521.875 561.0,526.375 565.5,530.75 569.375,533.5 573.875,536.125 580.5,539.0"/>
    <polyline points="582.0,539.5 586.875,541.0 596.125,542.625 602.375,542.875 607.0,542.625 611.75,541.875 619.625,540.0 628.125,536.625 634.0,533.25 640.125,529.125"/>
    <polyline points="643.125,526.625 649.25,520.75 655.125,513.75 660.5,505.625 665.125,496.5 668.375,486.625 669.5,481.5 670.125,476.25 670.25,471.25 669.875,466.25 669.0,461.5 667.5,457.125 665.5,453.0 662.875,449.25 659.875,446.125 656.375,443.375 652.5,441.25 648.25,439.625 643.75,438.5 639.125,437.875 634.25,437.75"/>
    <polyline points="629.375,438.125 619.75,439.75 610.375,442.625 601.5,446.25 589.5,452.5 582.375,456.75 573.0,463.125 565.0,469.125 548.875,482.625"/>
    <polyline points="547.375,484.0 538.25,492.375 532.0,498.625 526.0,505.375"/>
    <polyline points="525.625,505.875 523.875,508.5 522.625,511.25 522.375,512.25 522.5,514.375"/>
    <polyline points="522.5,514.625 524.0,517.75 527.5,521.25"/>
    <polyline points="527.875,521.5 533.5,526.0 541.25,531.125"/>
    <polyline points="542.0,531.625 550.875,537.125 556.375,540.125 561.375,542.75 570.125,546.625"/>
    <polyline points="571.75,547.25 580.625,550.375 588.875,552.375 598.125,553.75 606.125,553.875 614.875,553.125 621.375,551.75 628.125,549.625 635.5,546.5"/>
    <polyline points="639.375,544.5 647.25,539.5 655.5,532.875 663.75,524.375 671.875,514.0 675.625,508.0 679.125,501.625 682.25,494.875 685.0,487.625 687.125,480.25 688.625,472.625 689.25,465.0 689.125,457.375 688.125,450.25 686.25,443.375 683.375,437.25 679.5,431.75 675.0,427.125 669.625,423.375 663.75,420.5 657.5,418.625 650.875,417.625"/>
    <polyline points="644.0,417.375 637.125,417.75 630.375,418.875 623.75,420.375 611.0,424.625 605.125,427.125 594.125,432.625 584.375,438.25 568.25,449.125 539.125,471.25"/>
    <polyline points="537.25,472.625 528.625,478.75 520.375,483.875 513.375,487.125 505.25,489.25"/>
    <polyline points="504.375,489.25 500.625,489.5 494.25,488.75 488.5,487.125 480.0,483.625"/>
    <polyline points="478.875,483.125 450.25,468.75 436.875,463.0"/>
    <polyline points="434.25,462.0 425.875,459.125 416.375,456.5 409.125,455.0 401.125,453.875 392.125,453.25 382.125,453.5 376.625,453.875 364.625,455.875 358.0,457.5 351.125,459.625 343.75,462.375 336.0,465.875 327.875,470.25 319.5,475.5 310.875,481.875 302.25,489.375"/>
    <polyline points="293.75,498.25 285.625,508.375 278.25,520.0 272.125,532.75 267.5,546.5 265.125,561.0 265.25,575.625 268.125,590.0 273.875,603.5 282.375,615.5 293.0,625.75 305.375,633.875 318.875,639.875 332.875,643.875 346.625,646.125 360.0,646.875 372.625,646.375 384.25,645.0 394.875,643.0 404.5,640.625 413.25,637.875 428.125,631.875 434.5,628.875 445.625,623.0"/>
    <polyline points="450.5,620.125 479.25,602.125 487.5,597.5 495.0,594.0 502.0,591.5 508.625,589.875 513.0,589.25 519.25,589.125"/>
    <polyline points="521.25,589.125 529.375,590.375 533.5,591.5 541.5,594.75 547.625,598.0 556.0,603.5 562.375,608.625 568.875,614.625 573.125,619.125"/>
    <polyline points="575.375,621.625 581.875,629.625 588.25,639.125 594.0,650.5 597.375,659.25 599.875,669.375 601.125,681.25 601.125,688.0 600.375,695.375 599.0,703.5 596.75,712.5 593.25,722.375 588.25,733.5 581.5,745.75 572.375,759.375 560.5,774.375 545.25,790.625"/>
    <polyline points="526.125,807.875 502.375,825.625 473.875,842.5 440.75,856.75 404.375,866.125 366.625,868.0 330.75,860.25 300.25,841.875 277.5,814.25 263.5,780.25 257.625,743.75 257.875,708.125 262.125,675.875 268.125,648.25 274.75,625.625 281.0,607.75 286.5,594.25 291.125,584.625 295.0,578.0 298.125,574.0 300.875,572.125 303.5,572.0 306.125,573.0 315.75,580.625"/>
    <polyline points="319.875,583.75 324.625,586.75 329.875,589.5 335.5,592.0 341.5,594.0 347.875,595.5 354.375,596.5 361.0,597.125 367.625,597.125 374.125,596.75 380.625,595.875 386.75,594.75 398.625,591.625 414.375,585.5 423.5,580.875 431.875,576.125 449.0,564.625"/>
    <polyline points="451.875,562.375 468.625,549.0 485.5,534.0 492.25,527.5"/>
    <polyline points="493.125,526.75 500.875,518.75 503.75,514.875"/>
    <polyline points="503.875,514.625 504.875,512.75 504.875,509.875 503.25,507.375 500.125,504.5"/>
    <line x1="499.75" x2="488.75" y1="504.25" y2="496.125"/>
    <polyline points="488.125,495.75 475.0,486.875 464.25,480.375"/>
    <polyline points="462.75,479.5 453.25,474.25 445.75,470.5 431.875,464.75 417.25,460.375 402.625,457.875"/>
    <polyline points="398.5,457.5 384.625,457.375 374.0,458.5 368.25,459.5 355.625,462.875 348.875,465.25 341.625,468.375 334.25,472.125 326.5,476.75 318.5,482.375 310.5,488.875 302.5,496.625 294.875,505.5 287.75,515.5 281.625,526.625 276.625,538.75 273.375,551.75 272.25,565.0 273.375,578.375 277.0,591.125 283.0,603.0 291.375,613.375"/>
    <polyline points="301.625,622.125 313.25,629.125 325.625,634.125 338.375,637.5 351.125,639.25 363.375,639.75 375.0,639.25 385.75,637.875 395.75,635.875 404.875,633.5 413.125,630.875 427.5,625.125 439.5,619.125 449.625,613.5 481.875,593.625"/>
    <polyline points="484.625,592.0 492.5,588.0 497.375,585.875 504.375,583.375 513.0,581.5 519.375,581.0 527.5,581.375 533.625,582.5 539.625,584.25"/>
    <polyline points="541.75,585.0 552.25,589.5 568.0,598.75 577.875,605.5 603.375,624.5"/>
    <polyline points="606.5,626.875 620.5,637.0 636.625,647.375 651.0,654.625 656.375,656.75 662.125,658.625 668.375,660.125 675.125,661.25 682.5,661.75 690.75,661.5 699.875,660.125 710.125,657.375 721.875,652.75 735.125,645.75 750.5,635.5 768.25,621.0 788.375,600.875 811.125,573.75"/>
    <polyline points="835.625,537.875 860.125,492.0 881.625,436.125 894.75,373.0 893.75,308.625 874.25,252.25 837.25,212.25 788.75,192.25 737.75,189.75 691.5,198.625 654.125,212.75 626.875,227.875 609.25,241.75 599.75,253.625 597.125,263.625 599.75,272.25 606.25,280.375 625.75,297.5 636.5,307.375 646.5,318.5 655.125,330.5 661.75,343.375 666.25,356.5 668.75,369.5 669.375,381.875"/>
    <polyline points="668.5,393.625 666.5,404.25 663.625,413.75 660.25,422.25 656.625,429.625 649.0,441.5 641.625,450.25 634.875,456.75 631.625,459.375 623.0,465.5 604.375,476.5 598.75,480.125"/>
    <polyline points="597.0,481.25 589.25,487.125 585.5,490.5 581.25,495.0 578.0,499.25 576.125,502.375 574.0,508.125"/>
    <polyline points="573.875,509.125 573.625,513.5 574.375,516.75 575.375,519.0 577.375,521.875 579.375,523.875 581.75,525.75 584.625,527.375"/>
    <polyline points="585.625,527.875 591.375,529.875 595.5,530.75 600.0,531.125 606.625,530.75 610.25,530.125 616.0,528.5 620.0,526.875 626.125,523.5"/>
    <polyline points="628.25,522.125 632.375,519.0 636.375,515.125 640.25,510.75 643.75,505.75 645.375,503.0 648.0,497.375 650.0,491.375 650.625,488.25 651.125,485.25 651.125,479.125 650.0,473.5 649.0,470.875 646.125,466.25 642.25,462.625 639.875,461.125"/>
    <polyline points="637.375,460.0 631.875,458.375 629.0,458.0 622.875,458.0 616.625,458.875 607.25,461.5 598.5,465.25 587.875,471.125 579.0,477.375 571.5,483.5"/>
    <polyline points="569.875,485.0 561.75,493.375 558.75,497.0 555.625,501.625 553.375,505.75 552.25,508.625 551.375,513.125"/>
    <polyline points="551.25,514.0 551.5,517.25 552.25,520.375 554.125,524.0 557.625,528.375 562.5,532.5"/>
    <polyline points="563.375,533.25 569.875,537.25 576.5,540.375 581.125,542.125 586.25,543.625 591.875,544.75 596.0,545.25 602.625,545.5"/>
    <polyline points="605.0,545.5 612.5,544.625 618.0,543.5 623.75,541.625 629.875,539.0 636.25,535.375 642.875,530.875 649.5,525.0 656.0,517.875 659.125,513.875 665.0,504.875 669.875,494.625 671.75,489.125 674.375,477.875"/>
    <polyline points="674.875,472.125 674.75,466.5 674.125,461.125 672.75,456.0 670.875,451.25 668.25,446.875 665.125,443.125 661.5,439.875 657.375,437.25 652.75,435.25 648.0,433.875 642.875,433.125 637.625,432.875 632.375,433.125 627.0,433.75 616.5,436.25 606.625,439.875 597.5,444.0 589.0,448.5 578.0,455.5"/>
    <polyline points="574.625,457.75 563.0,466.25 551.625,475.375 529.625,494.25"/>
    <polyline points="528.75,495.0 521.625,500.875 515.25,505.5"/>
    <polyline points="514.875,505.625 511.75,507.125 508.375,507.375 506.0,506.625 503.375,505.25"/>
    <line x1="503.125" x2="493.75" y1="505.125" y2="499.125"/>
    <line x1="493.25" x2="474.625" y1="498.75" y2="486.5"/>
    <polyline points="473.5,485.75 463.625,479.75 450.625,472.75 440.375,468.0 430.5,464.25"/>
    <polyline points="427.875,463.25 415.5,459.875 404.625,458.0 396.375,457.25 387.125,457.125 376.75,458.0 365.125,460.0 352.25,463.875 345.25,466.625 337.875,470.0 330.25,474.25 322.375,479.25 314.375,485.375 306.375,492.5 298.5,500.75 291.125,510.25"/>
    <polyline points="284.375,520.875 278.75,532.625 274.625,545.25 272.25,558.5 272.25,571.875 274.625,585.0 279.5,597.375 286.75,608.625 296.125,618.25 307.25,626.125 319.375,632.125 332.0,636.25 344.875,638.875 357.375,640.0 369.375,639.875 380.625,638.875 391.0,637.125 400.5,635.0 409.25,632.375 417.125,629.625 424.375,626.75 430.875,623.75 442.375,617.875 452.0,612.25"/>
    <polyline points="456.375,609.625 477.5,596.375 486.125,591.5 493.75,587.625 501.0,584.75 509.875,582.25 516.25,581.375 522.5,581.25"/>
    <polyline points="524.5,581.375 530.625,582.125 536.625,583.625 540.75,584.875 547.0,587.375 557.75,592.875 566.875,598.5 579.125,607.0"/>
    <polyline points="581.75,608.875 622.125,639.5 634.0,647.625 642.875,653.0 652.625,658.0 663.75,662.375 670.0,664.125 676.625,665.5 684.0,666.25"/>
    <polyline points="692.125,666.25 701.25,665.25 711.5,662.75 723.125,658.625 736.5,651.875 752.0,642.0 769.875,627.875 790.5,608.0 813.75,580.75 839.375,544.375 865.375,497.375 888.5,439.375 903.375,372.875 903.125,304.625 883.0,244.625 843.75,202.375 792.25,181.75 738.25,180.0 690.125,190.125 651.875,205.375 624.75,221.125 608.0,235.375 600.0,247.25 599.125,257.25 603.75,266.0 612.375,274.375"/>
    <polyline points="623.5,283.25 635.75,293.125 647.875,304.25 658.625,316.75 667.5,330.5 674.0,344.75 678.0,359.125 679.625,373.125 679.375,386.25 677.625,398.25 674.875,409.0 671.5,418.375 667.625,426.375 663.625,433.25 659.625,439.0 655.625,443.875 651.875,447.875 644.75,454.0 641.375,456.375 635.125,460.125 623.875,465.375"/>
    <polyline points="621.25,466.5 611.5,470.625 604.75,473.875 593.0,480.875 588.125,484.5 582.5,489.375 577.875,494.125 577.0,495.375"/>
    <polyline points="576.0,496.5 573.625,499.75 572.375,502.0 569.875,508.0 569.375,510.875 569.375,514.375 569.875,517.0 571.125,520.125"/>
    <polyline points="571.625,521.0 574.5,524.625 576.0,526.0 580.375,529.125 582.5,530.25 590.0,532.875 597.625,534.125"/>
    <polyline points="599.375,534.25 606.625,534.0 612.625,532.875 616.875,531.625 623.625,528.75 630.5,524.625 637.5,519.0 642.0,514.25 648.125,505.875 651.5,499.5"/>
    <polyline points="653.0,496.125 655.125,489.125 655.75,485.625 656.25,478.5 656.0,475.0 655.375,471.75 653.125,465.625 651.375,463.0 647.125,458.5 644.625,456.625 638.75,454.125 635.5,453.25 628.75,452.625 621.625,453.125 614.5,454.5 604.125,458.0"/>
    <polyline points="600.875,459.5 588.75,465.875 580.875,471.0 571.875,477.75 563.0,485.625 556.25,492.5 552.25,497.375"/>
    <polyline points="551.375,498.5 546.875,505.625 545.0,510.875 544.625,512.375 544.5,516.125 545.375,519.625"/>
    <polyline points="545.625,520.25 547.25,523.625 551.0,528.25 556.375,532.875 562.375,536.875"/>
    <polyline points="563.5,537.5 569.75,540.875 575.5,543.375 580.375,545.125 585.875,546.625 591.875,547.875 598.375,548.625 608.375,548.5"/>
    <polyline points="611.125,548.125 619.75,546.375 625.875,544.375 632.5,541.5 639.375,537.625 643.0,535.125 650.125,529.375 657.375,522.125 660.875,517.875 664.375,513.25 667.625,508.25 670.625,502.875 673.375,497.25 675.75,491.25 677.75,485.125 679.125,478.75 680.0,472.375 680.25,466.0 679.75,459.875"/>
    <polyline points="678.625,453.875 676.625,448.375 674.0,443.5 670.625,439.0 666.625,435.25 662.125,432.25 657.125,430.0 651.75,428.375 646.125,427.375 640.375,427.125 634.5,427.375 622.875,429.375 617.125,431.0 606.375,435.0 601.375,437.25 591.875,442.0 583.5,447.0 572.375,454.375 566.0,459.0"/>
    <polyline points="563.0,461.25 529.5,487.75 522.125,492.875"/>
    <polyline points="521.25,493.5 517.125,495.875 512.25,498.0 507.5,499.125 504.875,499.125"/>
    <polyline points="504.25,499.125 499.875,498.375 497.125,497.5 489.375,493.75"/>
    <line x1="488.625" x2="462.5" y1="493.375" y2="478.25"/>
    <polyline points="461.0,477.375 456.25,474.75 442.75,468.25 433.25,464.375 427.875,462.5 422.0,460.75 412.0,458.375 400.5,456.75 396.125,456.5"/>
    <polyline points="391.625,456.375 381.75,456.625 376.375,457.125 364.625,459.25 358.25,461.0 351.5,463.125 344.375,465.875 337.0,469.375 329.25,473.75 321.25,478.875 313.125,485.125 305.0,492.375 297.0,500.875 289.375,510.625 282.625,521.5 277.0,533.5 272.875,546.375 270.75,559.875 270.875,573.5 273.5,586.875 278.75,599.5 286.375,610.75 296.25,620.375 307.625,628.25"/>
    <polyline points="320.0,634.125 333.0,638.125 346.125,640.5 358.75,641.375 370.875,641.25 382.125,640.125 392.5,638.25 402.0,636.0 410.625,633.375 418.5,630.5 425.625,627.625 438.0,621.625 453.0,613.25 478.125,597.5 486.625,592.625"/>
    <polyline points="489.25,591.25 499.125,586.875 503.75,585.375 510.375,583.75 518.75,582.875 525.0,583.125 533.125,584.5 543.375,587.875"/>
    <polyline points="545.375,588.75 556.0,594.25 562.75,598.375 572.125,605.0 590.0,619.375 607.375,635.125"/>
    <polyline points="610.375,638.0 630.375,658.0 644.75,674.0 652.25,683.125 659.625,693.0 667.0,704.25 670.375,710.375 673.625,717.125 676.5,724.375 678.875,732.375 680.625,741.375 681.375,751.625 680.75,763.5 678.25,777.375 673.0,794.0"/>
    <polyline points="663.75,814.0 649.125,838.5 626.375,868.625 592.5,904.875 543.375,947.125 474.875,991.875 400.4748,1024.0"/>
    <polyline points="198.8594,1024.0 186.75,1020.875 118.5,950.875 89.0,853.75 89.25,756.5 102.5,677.875 115.75,623.875 123.625,593.75 125.375,584.0 123.375,591.0 121.625,611.375 124.625,640.875 136.375,674.5 158.875,707.0 190.625,733.875 227.875,752.75 266.0,763.875 301.0,768.875 330.625,769.75"/>
    <polyline points="354.0,768.25 371.25,765.625 383.25,762.5 390.75,759.25 394.875,755.75 396.25,752.0 395.75,747.625 394.125,742.5 389.25,730.0 386.875,722.375 385.125,714.125 383.875,705.125 383.375,695.75 383.625,686.25 384.625,676.5 386.25,667.0 388.5,657.625 391.125,648.625 394.25,640.125 397.5,632.0 404.75,617.25 408.375,610.5 415.75,598.625"/>
    <polyline points="419.375,593.25 432.75,575.375 449.125,556.25 464.5,539.0 473.0,528.25"/>
    <polyline points="473.875,526.875 478.0,520.0 479.75,516.0 480.5,513.25 480.875,509.0 480.625,506.625 479.75,503.5"/>
    <polyline points="479.375,502.75 476.25,497.625 471.375,492.25 464.375,486.5 459.5,483.125"/>
    <polyline points="458.125,482.25 450.5,477.625 441.125,472.875 434.375,470.0 426.875,467.375 421.25,465.625 411.75,463.5 404.5,462.375 396.5,461.75"/>
    <polyline points="392.25,461.75 387.75,461.75 377.875,462.625 372.5,463.5 361.0,466.375 354.75,468.375 348.25,471.0 341.375,474.25 334.375,478.125 327.125,482.75 319.875,488.375 312.5,494.875 305.375,502.25 298.625,510.75 292.5,520.25 287.25,530.625 283.25,541.875 280.875,553.625 280.375,565.5 281.875,577.375 285.5,588.75 291.25,599.125 298.875,608.375 308.125,616.125"/>
    <polyline points="318.625,622.25 329.75,626.875 341.375,629.875 352.875,631.625 364.125,632.125 374.875,631.625 385.0,630.375 394.375,628.625 403.0,626.375 411.0,623.875 418.375,621.25 431.375,615.5 442.25,609.75 456.0,601.75 482.75,585.0"/>
    <polyline points="485.5,583.5 493.125,579.5 500.25,576.375 506.875,574.125 513.125,572.75 519.25,571.875 527.125,571.875 531.0,572.25 538.75,573.875"/>
    <polyline points="540.75,574.375 548.875,577.0 555.125,579.5 590.0,596.25 602.875,601.625"/>
    <polyline points="606.375,603.0 614.0,605.375 622.25,607.25 626.75,608.0 636.625,608.75 642.0,608.75 647.75,608.25 654.0,607.25 660.625,605.75 667.875,603.5 675.625,600.25 684.0,596.0 693.125,590.5 703.0,583.25 713.625,574.25 725.0,563.0 737.0,549.0 749.25,532.25 761.5,512.25 772.875,489.125 782.625,463.0 789.5,434.75 792.125,405.625"/>
    <polyline points="789.625,377.25 781.125,351.875 767.0,331.125 748.125,316.25 726.125,307.625 702.875,304.5 679.875,305.875 658.625,310.5 639.625,317.0 623.25,324.375 609.625,332.125 598.5,339.625 589.5,346.625 582.375,353.125 576.875,359.125 572.625,364.5 569.375,369.5 567.0,374.125 565.25,378.375 564.0,382.375 562.25,389.875 560.0,403.375"/>
    <polyline points="559.375,406.5 557.875,412.625 555.0,421.125 552.625,426.375 549.875,431.375 546.875,435.875 543.625,440.125 537.0,447.375 530.125,453.25 523.375,457.875"/>
    <polyline points="521.75,458.875 516.875,461.375 512.0,463.25 508.875,464.25 502.625,465.5 499.5,465.875 493.375,465.875 485.5,464.875 482.375,464.125"/>
    <polyline points="480.75,463.75 473.875,461.625 464.75,458.0 434.25,444.625 424.875,441.125"/>
    <polyline points="421.5,440.0 414.125,437.625 406.0,435.625 401.5,434.625 391.875,433.25 380.75,432.375 374.625,432.375 360.875,433.5 353.125,434.875 344.875,436.75 335.875,439.375 326.125,443.125 315.75,447.875 304.625,454.0 292.75,461.875 280.5,471.625 268.125,483.5 255.875,497.75 244.625,514.625 235.125,533.875 228.375,555.0"/>
    <polyline points="225.625,577.5 227.75,600.25 235.0,621.75 247.375,641.0 264.0,656.75 283.5,668.875 304.375,677.0 325.25,681.875 345.125,684.0 363.125,684.0 379.25,682.75 393.125,680.5 405.125,677.75 415.25,674.75 423.75,671.625 437.0,665.5 446.375,659.875 453.375,654.625 458.875,649.875 465.25,643.375"/>
    <polyline points="467.125,641.375 473.875,634.125 478.75,629.625 481.875,627.0 488.375,622.75 491.5,621.125 494.75,619.875 499.5,618.625 502.75,618.25 507.375,618.375"/>
    <polyline points="508.875,618.625 513.375,619.75 518.875,622.75 521.5,624.75 524.0,627.25 527.25,631.75 529.875,637.375 531.75,644.25 532.25,649.5 531.875,658.5"/>
    <polyline points="531.25,661.75 530.375,665.375 527.875,672.875 524.0,681.0 518.375,689.75 510.875,698.875 506.25,703.5 501.125,708.0 495.375,712.375 489.125,716.5 482.375,720.375 475.125,723.625 467.375,726.375 459.375,728.25 451.375,729.25 443.25,729.25 435.375,728.0 428.0,725.625 421.125,722.125 415.125,717.375 409.875,711.5 405.75,704.625"/>
    <polyline points="402.625,697.125 400.5,688.875 399.375,680.375 399.125,671.625 399.75,662.875 401.125,654.375 402.875,646.0 405.25,637.875 407.875,630.25 410.875,623.0 417.25,609.875 420.5,604.0 427.125,593.25 433.625,584.0 442.625,572.375 457.75,554.875"/>
    <polyline points="460.0,552.5 479.875,530.875 485.75,523.5 488.5,519.25"/>
    <polyline points="488.875,518.375 491.0,513.625 491.5,510.625 491.375,508.5 490.75,505.875 489.75,503.75"/>
    <polyline points="489.5,503.25 488.125,501.25 484.75,497.5 478.625,492.125 474.125,488.875"/>
    <polyline points="473.125,488.125 464.0,482.0 451.75,475.0 442.0,470.25 432.75,466.5"/>
    <polyline points="430.125,465.625 421.625,462.875 411.875,460.625 404.5,459.5 396.25,458.875 387.125,458.75 377.0,459.625 371.375,460.5 359.375,463.375 352.875,465.5 346.0,468.25 338.875,471.625 331.375,475.75 323.75,480.75 316.0,486.625 308.25,493.625 300.625,501.625"/>
    <polyline points="293.5,510.75 287.0,521.125 281.5,532.375 277.5,544.5 275.25,557.25 275.125,570.125 277.25,582.75 281.75,594.75 288.625,605.75 297.375,615.125 307.875,622.875 319.375,628.875 331.625,633.125 344.0,635.875 356.25,637.125 367.875,637.125 379.0,636.375 389.25,634.75 398.75,632.75 407.375,630.25 415.375,627.5 422.625,624.625 435.25,618.875 445.875,613.125"/>
    <polyline points="450.625,610.25 482.375,590.625 495.375,584.0 502.5,581.25 507.0,579.875 513.375,578.625 519.625,578.0"/>
    <polyline points="521.625,578.0 525.75,578.125 533.75,579.25 541.875,581.5 546.0,583.0 558.875,589.0 575.5,598.75"/>
    <polyline points="578.125,600.25 598.125,612.75 615.5,622.375 627.75,627.75 637.125,630.875 642.25,632.125 647.75,633.125 653.625,633.75 660.0,634.0 666.875,633.625 674.375,632.625 682.625,630.625 691.75,627.5"/>
    <polyline points="701.75,623.0 713.0,616.625 725.625,607.875 739.5,596.25 754.875,581.125 771.5,561.5 789.0,536.75 806.625,506.375 822.75,470.0 835.25,428.75 841.375,384.625 838.25,341.25 824.5,303.125 800.5,274.25 769.0,256.75 734.125,250.0 699.875,251.875 669.0,259.125 643.125,269.25 622.625,280.0 607.25,290.5 596.5,300.125 589.5,308.625 585.625,316.125 584.25,322.875 584.75,329.125"/>
    <polyline points="586.625,335.125 589.25,341.0 598.875,359.125 601.75,365.625 604.125,372.125 605.875,378.875 607.0,385.625 607.625,392.25 607.5,398.875 606.875,405.25 605.875,411.375 604.375,417.125 600.5,428.0 598.25,432.875 590.75,446.0 583.125,456.625 575.875,465.375"/>
    <polyline points="573.625,467.875 553.0,490.25 546.75,497.75 543.125,502.75 542.125,504.625"/>
    <polyline points="541.625,505.5 540.375,507.875 539.375,510.875 538.875,514.25 538.875,515.625 539.5,518.625 541.125,522.125"/>
    <polyline points="541.5,522.75 543.25,525.125 547.25,529.25 553.625,534.125 559.75,538.0"/>
    <polyline points="561.0,538.75 568.625,542.625 579.75,547.0 587.375,549.0 593.75,550.125 598.375,550.625 606.0,550.75"/>
    <polyline points="608.75,550.5 614.375,549.875 620.5,548.5 630.375,545.0 637.375,541.5 644.875,536.75 648.625,533.875 656.25,526.875 660.125,522.75 663.875,518.25 670.875,508.0 674.125,502.125 677.0,496.0 679.5,489.625 681.5,482.875 682.875,476.125 683.75,469.25 683.75,462.375"/>
    <polyline points="683.0,455.875 681.5,449.625 679.25,443.875 676.125,438.75 672.25,434.25 667.75,430.5 662.75,427.5 657.25,425.375 651.375,424.0 645.25,423.375 639.0,423.375 632.75,424.0 626.5,425.125 620.5,426.625 608.875,430.625 598.375,435.5 588.75,440.625 580.25,445.875 565.875,455.75"/>
    <polyline points="562.875,458.125 533.0,481.25 523.875,487.625 519.5,490.125"/>
    <polyline points="518.5,490.75 513.125,493.25 508.375,494.625 504.0,495.125 499.0,494.625"/>
    <polyline points="498.375,494.5 490.875,492.125 485.875,489.875 477.0,485.125"/>
    <polyline points="476.0,484.5 461.5,476.5 449.25,470.25 436.0,464.5 433.375,463.625"/>
    <polyline points="430.75,462.625 418.875,459.0 412.0,457.5 404.375,456.25 396.0,455.5 386.625,455.375 376.0,456.125 364.125,458.25 357.75,460.0 343.625,465.0 336.125,468.625 328.25,473.0 320.125,478.25 311.75,484.5 303.5,492.0 295.375,500.75"/>
    <polyline points="287.625,510.625 280.75,521.875 275.0,534.125 271.0,547.375 268.875,561.25 269.125,575.25 272.125,588.875 277.75,601.625 285.75,613.125 296.0,622.75 307.75,630.5 320.625,636.25 334.0,640.125 347.25,642.375 360.125,643.125 372.25,642.75 383.5,641.5 394.0,639.625 403.5,637.25 412.125,634.625 419.875,631.75 433.375,625.75 449.5,617.0"/>
    <polyline points="454.0,614.375 475.75,600.625 484.5,595.5 494.75,590.375 501.875,587.75 508.625,586.0 512.875,585.25 521.25,584.875"/>
    <polyline points="523.25,585.0 527.375,585.5 533.5,586.75 539.625,588.75 547.875,592.5 554.25,596.0 563.0,601.75 567.625,605.125 577.0,612.875"/>
    <polyline points="579.5,615.125 587.0,622.125 592.125,627.375 600.0,636.125 608.125,646.25 613.5,653.75 618.625,662.25 621.125,666.875 625.625,677.125 627.5,682.875 629.125,689.125 630.375,696.0 631.0,703.5 631.0,711.875 630.125,721.125 628.0,731.625"/>
    <polyline points="624.375,743.625 618.75,757.375 610.375,773.125 598.625,791.125 582.125,811.875 560.0,835.125 530.5,860.625 492.625,886.875 445.75,911.125 391.125,928.625 333.0,933.25 278.125,919.875 234.25,886.75 206.375,838.125 194.625,782.25 194.75,727.75 201.375,680.25 210.125,642.5 218.25,614.75 224.5,596.25 228.75,585.5 231.5,581.375 233.25,582.5 238.0,596.125 242.375,606.25"/>
    <polyline points="249.125,617.375 258.125,628.25 269.5,638.125 282.75,646.5 297.25,653.0 312.5,657.5 327.875,660.125 342.75,661.125 356.75,660.875 369.75,659.5 381.5,657.25 392.125,654.625 401.75,651.5 410.25,648.25 424.75,641.5 436.5,634.75 450.375,625.375 468.0,612.5"/>
    <polyline points="471.125,610.25 479.5,604.5 487.125,599.875 494.25,596.375 501.125,593.75 509.75,591.75 515.875,591.25 522.0,591.5 528.125,592.625"/>
    <polyline points="530.125,593.125 536.125,595.125 542.125,598.0 546.125,600.25 552.125,604.375 556.25,607.625 564.5,615.25 570.625,622.125 576.625,630.375 580.375,636.5"/>
    <polyline points="582.25,640.0 585.625,647.375 588.5,655.875 590.5,665.5 591.125,671.0 591.375,676.875 591.25,683.25 590.5,690.25 589.0,697.75 586.75,706.125 583.375,715.25 578.875,725.375 572.625,736.5 564.5,748.625 554.125,761.875 541.0,776.0 524.75,791.0 504.875,806.25 481.25,821.0 453.875,834.0 423.5,843.5 391.625,847.625 360.0,844.75"/>
    <polyline points="331.5,833.625 308.0,814.375 291.25,788.625 281.5,758.75 277.75,727.5 278.625,697.375 282.625,669.875 288.0,645.875 294.125,625.75 300.0,609.375 305.375,596.5 310.125,586.375 314.25,579.0 317.875,573.625 320.875,570.0 323.75,567.75 326.25,566.625 328.875,566.375 331.375,566.75 334.0,567.625 343.25,571.625 354.625,575.25"/>
    <polyline points="358.75,576.125 363.0,576.75 371.875,577.125 380.875,576.5 393.875,573.875 402.0,571.125 413.125,566.25 425.875,558.875 436.375,551.125 444.75,543.625"/>
    <polyline points="446.625,541.875 451.375,536.75 455.25,531.875 460.0,524.5 462.0,520.375 463.25,516.625 464.125,510.625 463.875,507.375"/>
    <polyline points="463.75,506.25 462.375,502.125 460.875,499.0 456.25,493.0 450.75,488.0 443.625,483.125 440.25,481.25"/>
    <polyline points="438.375,480.25 428.0,475.75 423.125,474.0 417.75,472.5 408.625,470.75 398.125,469.75 390.125,469.75 385.875,470.125 381.375,470.625 371.75,472.375 361.25,475.5 349.75,480.25"/>
    <polyline points="343.875,483.5 337.75,487.25 331.5,491.625 325.375,496.75 319.375,502.625 313.625,509.25 308.25,516.625 303.5,524.625 299.5,533.375 296.625,542.625 295.0,552.25 294.75,561.875 296.125,571.375 299.0,580.625 303.625,589.0 309.5,596.625 316.875,603.125 325.125,608.5 334.0,612.5 343.5,615.5 353.0,617.375 362.5,618.25 371.75,618.25 380.75,617.5 389.25,616.25 397.25,614.5"/>
    <polyline points="404.75,612.375 411.75,610.0 424.25,604.875 440.125,596.875 456.875,586.625 486.375,567.5 497.5,561.625"/>
    <polyline points="499.5,560.625 507.125,557.625 512.375,556.125 519.125,554.875 525.625,554.5 530.375,554.75 535.25,555.375 541.75,556.875"/>
    <polyline points="543.375,557.25 553.875,560.625 578.75,569.875 589.0,573.0 597.75,575.0"/>
    <polyline points="600.875,575.5 611.0,576.625 618.625,576.625 631.375,575.0 641.0,572.375 646.125,570.5 651.625,568.0 657.375,565.125 663.375,561.375 669.625,557.0 676.125,551.75 682.875,545.625 689.75,538.375 696.625,530.0 703.5,520.5 710.25,509.75 716.375,497.875 721.875,484.875 726.25,470.875 729.25,456.375"/>
    <polyline points="730.625,441.75 729.875,427.375 727.0,413.875 721.75,401.875 714.5,391.5 705.375,383.375 694.75,377.625 683.125,374.0 671.0,372.5 658.75,372.75 646.75,374.375 635.375,377.25 624.625,380.875 614.75,385.0 605.75,389.375 597.5,393.875 583.5,402.75 567.25,414.75 548.5,430.5"/>
    <polyline points="545.5,433.0 540.125,437.625 530.875,444.875 522.75,450.25 517.25,453.25 513.75,454.75 506.875,457.0 500.25,458.125 497.0,458.25"/>
    <polyline points="495.375,458.375 487.125,457.625 480.375,456.125 476.75,455.0 465.5,450.75 448.0,442.5"/>
    <polyline points="445.5,441.375 428.625,433.5 410.75,426.625 402.125,424.125 392.5,421.875 387.125,421.0 375.25,419.875 361.25,420.0 353.375,420.75 344.75,422.125 335.375,424.25 325.0,427.375 313.75,431.625"/>
    <polyline points="301.5,437.5 288.25,445.125 274.0,455.0 259.125,467.625 244.0,483.25 229.375,502.25 216.5,524.75 206.625,550.375 201.625,578.125 203.0,606.75 211.625,634.125 227.25,658.25 248.625,677.75 273.5,691.875 299.75,700.875 325.125,705.625 348.375,707.125 368.75,706.625 385.875,704.75 400.125,702.125 411.625,699.25 420.75,696.25 427.875,693.375 433.375,690.625 437.625,687.875 440.875,685.25"/>
    <polyline points="443.25,682.75 445.125,680.25 447.5,675.125 452.75,652.75 453.625,649.75 457.125,641.0 459.875,635.5 464.75,627.625 470.25,620.625 474.125,616.5"/>
    <polyline points="476.125,614.5 482.25,609.375 486.375,606.5 492.625,603.0 500.75,599.75 506.75,598.375 512.75,597.75 518.625,598.0 526.375,599.625"/>
    <polyline points="528.25,600.25 532.125,601.75 535.875,603.625 543.375,608.5 548.875,613.25 554.25,619.0 557.75,623.5 561.0,628.5 565.5,637.375 568.0,644.125 569.875,651.875"/>
    <polyline points="570.5,656.125 571.0,660.75 571.125,665.625 570.25,676.5 569.25,682.625 567.5,689.25 565.125,696.375 561.875,704.0 557.75,712.25 552.375,721.25 545.625,730.625 537.375,740.75 527.375,751.25 515.375,762.125 501.25,772.875 484.875,783.25 466.375,792.5 446.125,799.875 424.5,804.375 402.625,805.25 381.5,801.75 362.375,793.375 346.25,780.375 334.0,763.375 325.625,743.625"/>
    <polyline points="321.25,722.25 320.125,700.625 321.5,679.75 324.625,660.375 328.875,642.875 333.625,627.375 338.75,614.0 343.625,602.5 348.375,592.625 356.75,577.5 363.75,566.875 369.5,559.5 374.375,554.375 382.25,547.875 390.125,543.25"/>
    <polyline points="391.5,542.5 399.0,538.0 403.0,535.0 405.5,532.5 407.5,530.0 409.0,527.5 410.0,525.0 410.375,522.5"/>
    <polyline points="410.375,521.75 410.125,519.375 408.875,516.5 407.375,514.625 405.25,513.0 402.625,511.75 399.375,510.75 394.5,510.25 391.75,510.375"/>
    <polyline points="390.25,510.5 382.625,512.5 377.875,514.75 373.375,517.875 369.25,521.75 365.875,526.5 363.625,531.625 363.0,535.25 363.375,540.5"/>
    <polyline points="364.0,542.125 364.625,543.75 366.625,546.625 369.375,549.125 371.0,550.125 372.625,551.0 376.5,552.375 378.5,552.875 382.875,553.25 387.375,553.125 391.875,552.5 398.5,550.625 402.75,548.875 410.5,544.625"/>
    <polyline points="412.25,543.5 415.5,541.0 421.125,535.75 424.375,531.75 427.625,526.375 428.75,523.875 430.0,518.75 430.125,515.125 429.5,511.75"/>
    <polyline points="429.125,510.625 427.5,507.375 425.25,504.375 422.375,501.625 417.25,498.375 412.375,496.375 406.875,494.875 400.375,494.0 393.0,493.875"/>
    <polyline points="390.375,494.125 384.875,495.0 378.875,496.375 372.75,498.625 366.25,501.625 359.875,505.5 356.625,507.875 350.625,513.375 345.125,519.875 340.5,527.375 338.75,531.375 336.5,539.875 336.125,544.125 336.25,548.375 337.0,552.625 338.25,556.625 340.0,560.5"/>
    <polyline points="342.375,564.0 345.125,567.25 348.5,570.125 352.125,572.5 356.125,574.625 360.5,576.25 365.0,577.375 369.625,578.125 379.125,578.625 383.875,578.25 388.5,577.625 397.5,575.75 410.125,571.375 417.625,567.75 424.5,564.0 433.625,558.125 439.0,554.125"/>
    <polyline points="441.375,552.125 448.0,546.5 453.625,541.125 462.0,531.375 464.125,528.5 468.125,521.875 469.625,518.25 470.625,514.875"/>
    <polyline points="470.875,513.75 471.25,508.625 470.875,505.625 469.625,501.875 468.75,500.0 466.375,496.375 464.125,493.625 460.375,490.0"/>
    <polyline points="459.25,489.125 455.75,486.25 448.75,481.5 438.0,475.75 431.375,473.0 423.875,470.375 415.25,468.125 408.75,467.0"/>
    <polyline points="405.25,466.5 397.625,465.875 389.375,465.875 380.125,466.75 369.875,468.625 358.5,471.875 346.25,477.125 339.75,480.625 333.125,484.75 326.5,489.625 319.75,495.375 313.125,501.875 306.875,509.25 301.125,517.5 296.0,526.625 292.0,536.5 289.125,546.875 287.875,557.5 288.25,568.25 290.375,578.75"/>
    <polyline points="294.5,588.625 300.375,597.625 307.75,605.375 316.375,611.875 326.0,617.125 336.25,620.875 346.75,623.25 357.25,624.625 367.5,624.875 377.25,624.375 386.5,623.125 395.25,621.375 403.375,619.25 410.875,616.875 417.875,614.25 430.25,608.75 440.875,603.25 454.375,595.25 468.875,585.875"/>
    <polyline points="472.125,583.875 483.5,576.75 491.125,572.5 502.375,567.375 508.5,565.375 516.125,563.625 523.5,563.0 527.125,563.0"/>
    <polyline points="529.0,563.125 538.0,564.375 547.25,566.875 557.125,570.375 580.0,579.625"/>
    <polyline points="582.625,580.625 594.125,584.625 600.625,586.375 615.125,588.875 623.5,589.25 632.75,588.75 643.125,586.875 648.75,585.25 654.875,583.125 661.25,580.375 668.0,576.75 675.25,572.375 682.875,566.875 691.0,560.125 699.375,552.125 708.125,542.5"/>
    <polyline points="716.875,531.25 725.625,518.125 734.125,503.25 741.625,486.5 748.0,468.375 752.375,449.125 754.375,429.375 753.25,410.125 748.875,392.125 741.25,376.5 730.375,363.875 717.0,354.625 702.0,348.875 686.0,346.375 670.0,346.625 654.5,349.0 640.0,352.875 626.75,357.75 614.875,363.125 604.5,368.75 595.375,374.375 587.375,379.75 580.5,384.875 574.5,389.75 564.75,398.5"/>
    <polyline points="560.75,402.5 554.125,409.375 538.25,427.25 531.25,434.125 526.25,438.375 521.375,441.75 516.625,444.375 511.875,446.375"/>
    <polyline points="510.25,446.875 505.5,448.125 500.75,448.875 496.0,449.0 491.125,448.625 487.75,448.125 481.0,446.375 475.75,444.5 468.375,441.25"/>
    <polyline points="466.5,440.375 451.875,432.375 425.875,416.375 416.125,410.75 408.875,406.875 396.5,401.125"/>
    <polyline points="391.75,399.25 381.5,395.75 375.75,394.25 362.75,391.75 355.375,391.0 347.125,390.75 338.0,391.0 327.75,392.125 316.375,394.375 303.5,397.875 288.875,403.25 272.5,411.0 254.125,421.75 233.875,436.5 212.125,456.125 189.875,481.625 169.125,513.625 152.875,552.0 145.0,595.125 149.125,639.625 167.125,680.875 197.625,714.5 236.125,738.125 276.75,752.0"/>
    <polyline points="314.875,758.5 347.375,760.125 373.375,759.25 392.75,757.25 406.375,755.25 415.125,753.25 419.75,751.625 421.25,750.125 420.375,748.375 409.25,739.625 404.625,734.875 400.0,729.125 396.0,722.375 392.625,714.625 390.0,706.125 388.5,697.125 387.75,687.625 388.0,678.0 389.0,668.375 390.625,659.0 393.0,649.75 395.625,641.125 402.0,625.0"/>
    <polyline points="405.5,617.625 409.0,610.875 416.125,598.625 423.125,588.125 429.75,579.125 438.875,567.75 461.125,542.125 468.25,533.375"/>
    <polyline points="469.5,531.875 475.75,522.625 479.0,515.375 479.875,510.75 479.875,508.25 479.5,505.875"/>
    <polyline points="479.25,505.125 478.5,502.75 476.875,499.625 472.625,494.25 468.375,490.25 461.875,485.25"/>
    <polyline points="460.625,484.375 455.125,480.75 445.0,475.125 432.125,469.5 418.375,465.25 404.75,462.75"/>
    <polyline points="401.0,462.375 392.625,462.0 388.125,462.125 383.375,462.375 373.0,463.75 361.625,466.5 355.5,468.5 349.0,471.125 342.25,474.25 335.25,478.125 328.125,482.625 320.875,488.125 313.625,494.5 306.5,501.75 299.75,510.125 293.5,519.375 288.25,529.625 284.25,540.75 281.625,552.25 280.875,564.125 282.25,575.875 285.625,587.25 291.125,597.625"/>
    <polyline points="298.5,607.0 307.5,614.75 317.75,621.125 328.75,625.75 340.25,629.0 351.625,630.75 362.875,631.5 373.625,631.125 383.75,630.0 393.125,628.25 401.875,626.125 417.375,621.0 430.375,615.375 441.5,609.625 451.0,604.125 476.375,588.125"/>
    <polyline points="479.375,586.375 487.625,581.625 495.125,577.875 502.0,575.0 508.5,573.0 516.75,571.375 522.625,571.0 528.5,571.25 534.375,572.0"/>
    <polyline points="536.25,572.5 544.125,574.5 550.25,576.625 556.625,579.25 586.0,593.25 595.125,597.25"/>
    <polyline points="598.25,598.5 612.625,603.375 620.75,605.25 625.25,605.875 629.875,606.375 640.125,606.625 651.875,605.25 658.25,603.875 665.25,601.625 672.875,598.625 681.0,594.625 689.875,589.375 699.375,582.625 709.625,574.125 720.5,563.625 732.0,550.625 743.875,534.875 755.75,516.25 767.0,494.5 776.75,470.0"/>
    <polyline points="784.125,443.25 787.875,415.25 786.75,387.625 780.25,362.125 768.25,340.75 751.375,324.625 731.0,314.25 708.875,309.5 686.375,309.5 665.125,312.875 645.875,318.5 629.0,325.375 614.625,332.875 602.625,340.25 592.875,347.25 585.0,353.875 578.75,359.875 573.875,365.5 570.0,370.625 567.0,375.25 564.75,379.625 561.625,387.375 558.75,397.75"/>
    <polyline points="558.0,401.0 555.75,410.0 553.0,418.375 549.625,425.875 545.5,432.75 541.0,438.75 536.25,444.0 531.25,448.5 524.625,453.375"/>
    <polyline points="522.875,454.375 518.0,457.125 511.5,459.75 503.5,461.75 498.75,462.25 494.0,462.25 490.875,462.0 482.625,460.5"/>
    <polyline points="481.0,460.125 475.75,458.625 466.5,455.125 441.875,444.0 424.0,436.5"/>
    <polyline points="420.5,435.25 404.75,430.5 390.375,427.875 384.875,427.25 372.625,426.75 365.75,427.0 358.25,427.75 350.25,429.0 341.5,431.0 332.0,433.75 321.625,437.625 310.5,442.75 298.5,449.375 285.75,457.875 272.375,468.625 258.75,481.75 245.375,497.875 233.25,516.75 223.25,538.5 216.625,562.375"/>
    <polyline points="215.0,587.5 219.0,612.5 229.125,635.625 244.875,655.625 265.0,671.375 287.5,682.75 310.75,689.875 333.25,693.5 353.75,694.5 372.0,693.625 387.75,691.625 401.0,689.0 412.0,686.125 421.125,683.0 428.625,680.0 439.625,674.25 443.75,671.5 447.0,668.875 452.125,663.875 455.875,659.0 460.125,652.125"/>
    <polyline points="461.5,650.0 463.875,645.625 469.125,637.5 474.75,630.25 479.375,625.625 484.25,621.625 489.375,618.5 494.375,616.125 499.5,614.625"/>
    <polyline points="501.25,614.25 506.25,613.75 511.25,614.125 516.125,615.375 519.25,616.625 522.25,618.375 526.625,621.625 530.625,625.875 534.125,631.25 536.875,637.75"/>
    <polyline points="537.625,640.25 538.875,645.625 539.375,655.0 538.625,662.25 537.875,666.125 535.375,674.625 531.25,683.875 525.125,694.125 521.25,699.375 516.625,704.875 511.375,710.375 505.375,716.0 498.625,721.375 491.125,726.5 482.875,731.25 473.875,735.5 464.375,738.875 454.5,741.375 444.5,742.5"/>
    <polyline points="434.375,742.375 424.75,740.625 415.625,737.25 407.5,732.25 400.375,725.75 394.625,717.875 390.25,708.875 387.25,699.0 385.5,688.625 385.0,678.125 385.625,667.5 387.0,657.125 389.125,647.125 391.875,637.625 395.0,628.75 398.375,620.5 405.375,605.625 412.625,593.0 419.5,582.25 426.0,573.125 432.0,565.375"/>
  </g>
</svg>
