<?xml version="1.0" encoding="utf-8" ?>
<svg xmlns="http://www.w3.org/2000/svg" xmlns:cc="http://creativecommons.org/ns" xmlns:dc="http://purl.org/dc/elements/1.1/" xmlns:ev="http://www.w3.org/2001/xml-events" xmlns:inkscape="http://www.inkscape.org/namespaces/inkscape" xmlns:rdf="http://www.w3.org/1999/02/22-rdf-syntax-ns" xmlns:sodipodi="http://sodipodi.sourceforge.net/DTD/sodipodi-0.dtd" xmlns:xlink="http://www.w3.org/1999/xlink" baseProfile="tiny" height="27.09333333cm" version="1.2" viewBox="0 0 1024.0 1024.0" width="27.09333333cm">
  <metadata>
    <rdf:RDF>
      <cc:Work>
        <dc:format>image/svg+xml</dc:format>
        <dc:source>vpype read './original_svgs/Strange Attractors #287.svg' linemerge linesimplify write './Strange Attractors #287.svg'
</dc:source>
        <dc:date>2024-08-05T01:35:45.620092</dc:date>
      </cc:Work>
    </rdf:RDF>
  </metadata>
  <defs/>
  <g fill="none" id="layer1" inkscape:groupmode="layer" inkscape:label="1" stroke="black" style="display:inline">
    <polyline points="458.625,810.875 471.7961,808.6134 484.0503,805.3955 495.005,801.2874 504.7399,796.2938 513.3344,790.42 520.9872,783.5266 527.5868,775.6443 533.1978,766.6959 537.8254,756.6558 541.4747,745.4984 544.1777,733.066 545.9528,719.2268 546.7265,704.5226 546.5067,688.6944 545.2913,672.2222 543.0469,654.7968 539.1349,633.181 533.9173,610.4782 527.5592,587.3892 520.038,563.8699 511.5611,540.6188 501.9672,517.0946 491.4658,493.7886 480.2399,471.1161 467.7944,448.3115 454.231,425.8962 440.4908,405.3917 426.8865,387.2911 420.0758,379.1459 413.213,371.6408 406.7112,365.1822 400.9062,360.1562 396.2112,356.9002 392.6263,355.3183 391.25,355.125 390.0058,355.3533 389.1395,356.0186 388.6332,357.0915 388.4694,358.5423 388.6999,360.7408 390.4415,366.4399 393.388,372.9233 397.8399,380.9321 411.0834,401.3963 443.3047,446.8084 456.8606,467.1161 465.6142,481.403 472.2982,493.2332 479.1495,506.8071 484.3043,518.3778 490.2903,534.5954 494.3337,548.0499 497.6182,562.7259 499.6362,577.5915 500.1895,584.5173 500.3179,592.0428 500.1076,597.9784 499.4837,603.5189 498.7674,607.7256 497.7999,610.7351 496.3431,613.3469 494.625,614.75 492.7686,614.855 490.6563,613.5233 488.6572,611.2042 486.5627,607.4689 483.9156,601.3517 481.7829,595.3596 477.2958,578.7421 473.9703,561.3697 471.2293,541.2339 469.4215,521.2476 468.3702,499.9609 468.0949,479.4454 468.5699,459.1347 469.8034,438.3254 471.7908,417.3873 474.3626,397.8817 477.6719,378.4062 481.6844,359.2597 486.2648,341.0755 491.3076,324.2185 497.0957,307.8229 503.3654,292.6485 510.1725,278.5722 517.0352,266.5163 524.4033,255.6501 532.0728,246.2558 540.1592,238.2288 548.2502,232.0475 552.1188,229.7606 555.9869,227.9278 559.9434,226.5294 563.8246,225.6336 567.614,225.2299 571.6567,225.3415 575.2,225.9366 578.9324,227.1213 582.1574,228.6686 585.5,230.875 588.4503,233.4268 591.4041,236.6612 593.9034,240.0538 596.3609,244.1401 600.3408,253.0855 603.412,263.7011 605.3788,275.3143 606.344,288.2579 606.2505,302.1977 605.1364,316.5434 602.91,332.4585 599.6957,348.9274 596.6649,361.4752 593.1864,373.9116 588.5152,388.8848 583.3582,404.0104 572.657,432.44 552.5943,482.0147 543.9282,504.1767 536.6095,524.737 529.5553,546.8526 523.959,567.2527 518.4485,592.2914 514.2936,616.7137 508.0,660.75 505.625,673.625 503.6831,681.3089 501.2812,687.4688 499.1825,690.7324 496.8741,692.3263 494.1524,692.532 492.6565,691.9695 491.0568,690.9095 487.6706,687.4549 484.2222,682.2685 480.5945,675.4168 477.4043,668.0279 473.737,657.9718 470.1177,646.607 464.1646,623.4758 459.05,597.7763 455.1208,570.5323 452.0855,540.2994 450.5103,513.3727 449.9577,485.7901 450.4473,457.4056 451.9546,430.4416 454.5242,403.4531 458.1118,376.9165 462.7329,350.8265 468.1985,326.3617 474.6917,302.6892 481.9927,280.4947 490.1038,259.714 498.829,240.8444 508.1978,223.8367 513.1388,215.9869 518.4578,208.2845 523.9109,201.1269 529.2308,194.8181 534.6318,189.0615 540.0934,183.8834 545.846,179.117 551.3683,175.204 556.7987,171.9908 562.6532,169.2125 568.4456,167.1561 574.148,165.8098 579.7325,165.1615 585.528,165.2259 590.7805,165.9824 595.8296,167.4002 600.9597,169.6281 605.5,172.375 609.9059,175.8416 614.2432,180.1352 618.0215,184.739 621.6764,190.1516 624.7935,195.7316 627.7305,202.0927 630.1526,208.4881 632.3359,215.6272 634.0294,222.6771 635.4925,230.7503 636.5716,239.0897 637.2717,247.6122 637.5795,265.4446 636.3975,284.3529 633.8078,303.2855 629.6587,323.843 625.298,340.836 619.995,358.3291 613.7603,376.2839 606.4644,395.0229 599.8553,410.5806 592.208,427.4939 558.1122,499.3233 550.1079,517.6506 543.8474,533.3707 538.2318,549.4183 533.72,564.802 529.919,580.9536 527.2768,596.2035 525.1189,615.5908 524.4707,635.7462 525.3052,655.3942 527.6269,674.1836 529.3147,682.9915 531.7965,693.1978 533.7388,699.2876 536.321,705.6903 538.8438,710.3044 541.6657,713.8004 544.0503,715.3162 546.1992,715.248 547.5,714.375 548.3548,713.2811 550.0498,709.3086 551.1869,703.6953 551.706,696.5819 551.6713,688.1011 551.0567,678.739 549.8583,668.5782 548.0372,656.9753 543.2278,633.9016 536.6192,609.555 528.1089,582.9725 518.5818,557.3238 507.0645,530.2631 494.2645,503.5055 480.8319,478.4093 466.88,455.1246 459.5516,444.0302 452.3472,433.9636 444.9911,424.4542 438.4302,416.8261 433.1832,411.6443 428.5341,408.2055 426.9902,407.4883 425.5479,407.2951 424.6161,407.8345 424.1616,409.0541 424.278,411.483 425.2155,414.8537 430.1759,426.2654 437.3988,440.1281 457.011,475.3904 469.1004,498.5116 479.7678,521.3786 486.9513,539.0908 491.957,552.9308 495.3107,563.3086 500.6617,582.1916 504.33,597.2768 507.2844,610.8822 511.0957,631.1348 520.8068,688.0081 524.7675,706.2495 529.1501,722.5866 531.7585,730.2688 534.9966,738.3918 537.9897,744.3253 541.5024,749.9675 544.4689,753.3836 547.8932,755.9433 550.8281,756.9727 553.5909,756.6272 555.2682,755.6813 556.875,754.125 558.3227,752.023 559.6907,749.2239 561.7897,742.3205 563.05,734.1575 563.6455,723.6824 563.4674,711.9419 562.5247,699.022 560.8392,685.1205 558.5437,670.8373 555.6929,656.3339 552.2823,641.5421 548.3683,626.6856 543.5444,610.3193 538.0168,593.2279 531.946,575.9591 525.5441,559.0883 518.5949,542.0631 511.3,525.4175 503.507,508.7697 495.2222,492.1532 486.8901,476.4399 478.2581,461.1458 469.6783,446.9105 460.5346,432.6882 450.8201,418.6065 441.2518,405.8308 432.4863,395.2198 423.8514,385.9765 415.9171,378.7738 412.6864,376.3818 409.7556,374.6589 407.4286,373.8061 405.6224,373.7838 404.4787,374.6022 404.0,376.2031 404.4026,379.9183 406.157,385.4685 408.8087,391.4073 412.9086,399.0974 423.0112,416.1958 455.4338,467.5501 463.2546,481.1201 470.4835,494.566 477.3619,508.7461 484.0648,523.9074 488.162,534.6424 492.6676,548.3487 497.6575,567.0877 501.0,583.25 503.6691,602.8543 505.1172,623.8896 505.2648,635.6537 504.9853,643.9762 504.31,653.7533 503.144,662.646 501.649,668.8691 499.8969,673.4721 497.8936,676.4023 496.7397,677.342 495.4676,677.9099 494.1961,678.0807 492.8995,677.7953 489.4318,675.4501 486.8727,672.3612 483.8341,667.3426 480.8917,661.6328 477.9003,654.4435 474.451,644.6297 471.4512,634.8187 465.9682,612.6504 461.5238,589.5802 457.9221,563.8443 455.126,535.5332 453.7357,510.9429 453.2581,485.5911 453.6938,459.6656 455.0141,434.9566 457.2899,409.9029 460.458,385.304 464.5251,361.13 469.3567,338.2386 475.0787,316.0473 481.512,295.144 488.6749,275.417 496.3514,257.4252 504.8229,240.5942 513.7818,225.5396 523.2279,212.1704 533.026,200.687 538.0147,195.7151 543.0407,191.2898 548.2663,187.3096 553.2136,184.1088 558.5276,181.2629 563.8029,179.036 569.0146,177.4237 574.1377,176.4217 579.1471,176.0255 584.018,176.2308 588.7255,177.0331 593.2444,178.4279 597.5417,180.4064 601.787,183.0507 605.7818,186.2321 609.7565,190.183 613.6435,194.9703 617.1712,200.3212 620.3263,206.1911 623.0954,212.535 625.4653,219.3084 627.42,226.4483 629.0257,234.096 630.293,242.3656 631.1542,250.8731 631.6362,259.9573 631.7093,269.2045 631.3688,278.9573 629.5068,298.4942 625.9815,319.3422 622.0646,336.3586 617.0281,354.3236 610.9,373.0848 603.737,392.4583 597.0069,409.0231 588.9446,427.5468 563.5398,482.5991 554.8422,502.091 547.7832,518.9355 541.6702,535.2907 535.8209,552.954 531.001,571.0751 527.4896,587.7045 524.9484,605.1776 523.9579,616.313 523.2605,629.5279 523.0758,639.935 523.2777,650.7876 523.8899,661.1249 525.0546,673.1066 528.0964,692.4407 530.0194,700.8178 532.8762,710.6111 535.3538,717.2532 538.2923,723.5632 541.1445,728.1197 544.1423,731.3145 546.9261,732.7922 549.4558,732.6752 550.8052,731.9035 552.0679,730.5479 554.2509,726.1415 555.6876,720.2298 556.4906,712.6123 556.748,703.5791 556.3658,693.4726 555.3491,682.8577 553.5747,670.1769 551.3198,657.43 548.5561,644.3089 545.3443,631.075 541.4604,616.8218 537.0718,602.1669 532.2107,587.279 521.6923,558.6743 515.3897,543.3155 508.6216,527.8268 501.6769,512.8715 494.4706,498.269 487.4149,484.832 479.8883,471.3753 471.9816,458.0185 464.0323,445.3734 455.9729,433.3961 448.1736,422.7134 439.6081,412.0509 431.8639,403.4354 425.5461,397.4729 420.4555,393.9464 418.7134,393.2365 417.1107,393.136 416.1157,393.8519 415.6952,395.3222 416.0686,398.72 417.5568,403.1988 420.1535,409.0209 424.4683,417.5164 431.5335,430.1817 455.2127,470.6624 471.3966,500.798 481.4853,522.8437 489.4843,543.8106 494.2253,558.0772 499.4137,577.0 502.2002,589.0646 505.5823,606.822 508.4101,624.9171 510.1703,638.8021 516.1284,699.1635 518.2502,717.7719 521.9106,740.1744 523.7854,749.1557 526.0516,757.9545 529.3125,768.5781 533.2088,778.5357 537.581,787.156 542.3503,794.4101 547.4607,799.9086 549.6638,801.6435 552.1,803.043 554.6179,803.9688 557.1698,804.3829 559.4901,804.2731 561.5465,803.6874 563.9225,802.3723 566.2721,800.3015 568.5396,797.4049 570.3336,794.2959 572.0352,790.442 573.4987,786.12 575.8296,775.6315 577.1823,763.4334 577.6133,749.1736 577.0988,733.696 575.6709,717.1912 573.3259,699.6127 570.1144,681.2473 566.0787,662.1816 561.2429,642.5579 555.7856,623.0594 549.6908,603.5631 542.7402,583.4144 535.0399,562.8691 526.4803,541.7158 517.4177,520.9079 507.9527,500.6843 498.3536,481.5953 487.6134,461.7158 476.5017,442.4921 465.1381,424.1247 453.8936,407.1922 441.958,390.6066 430.289,375.8628 418.3653,362.2256 407.3112,351.0617 397.345,342.6146 393.0851,339.6834 388.9846,337.4315 385.757,336.2381 382.9856,336.0105 381.3244,336.7248 380.252,338.4888 379.9977,340.7808 380.2826,343.3578 382.4413,350.2215 386.7898,359.2205 393.5,370.625 406.4469,389.6182 441.0238,436.019 456.8614,458.4268 463.6463,468.7514 470.1653,479.5026 475.8046,489.5185 480.375,498.5 485.6302,510.2043 489.9147,521.396 493.5657,533.1527 495.8281,543.0509 497.7643,555.6983 498.1935,566.8845 497.875,570.5 497.06,574.2474 496.0878,576.4364 494.8399,577.5804 493.5214,577.5409 491.7054,576.0348 490.1286,573.5832 488.4546,569.9652 485.1725,559.9048 482.2342,546.6529 480.0533,531.979 478.1311,513.5679 477.2705,497.7869 476.9814,479.2335 477.2528,462.2432 478.1223,445.1726 479.579,427.9836 481.5988,410.945 484.1337,394.6432 487.2421,378.5301 490.8804,362.8526 495.0083,347.8348 499.5152,333.9046 504.5366,320.5705 509.8641,308.3768 515.469,297.3507 521.5585,287.1487 527.9126,278.1603 534.42,270.531 540.9699,264.4058 547.4642,259.8983 550.8875,258.1367 554.2617,256.8179 560.437,255.535 563.5674,255.4954 566.5782,255.8986 569.4511,256.7446 572.1479,258.0101 574.6805,259.6523 577.3093,261.9036 579.5019,264.2972 581.7374,267.3464 585.3736,274.1979 588.3172,282.8704 590.4498,293.3517 591.522,304.4057 591.6078,316.6077 590.612,330.5701 588.6636,345.1823 585.8826,359.8685 581.9221,376.366 575.5607,398.5815 567.411,423.0191 560.8357,441.0296 540.3361,494.8839 530.4417,522.4029 523.0602,545.0156 508.2214,593.0529 505.0537,601.2825 502.7659,605.8328 500.1367,609.4074 497.323,611.401 495.171,611.577 492.6533,610.4799 490.459,608.3419 488.1999,604.9273 485.8642,600.4178 483.7355,595.13 478.9708,579.3743 475.6853,563.3965 472.5405,542.3805 470.6713,522.621 469.4501,499.9177 469.1408,480.3071 469.5954,459.4393 470.8731,437.1692 472.7307,417.3963 475.4142,397.2308 478.8101,377.4971 482.929,358.1066 487.5487,340.187 492.8092,323.09 498.756,306.6974 505.1953,291.5979 511.8905,278.2581 519.1736,265.9869 527.0387,254.9018 534.9036,245.8157 543.0,238.4536 547.1209,235.4718 551.2209,232.999 555.281,231.0342 559.6423,229.4691 563.5573,228.5632 567.7147,228.1505 571.7295,228.3372 575.2635,229.0337 578.67,230.2419 582.2306,232.1249 585.3017,234.3299 588.4278,237.2306 591.3059,240.6196 593.9213,244.4676 596.2593,248.7453 598.3054,253.4233 601.2231,262.6369 603.381,273.1869 604.6466,284.5047 605.0168,296.8161 604.4281,309.8525 602.8897,324.5079 600.54,339.2039 597.4397,353.8035 590.5954,378.9058 582.1162,404.6187 571.8937,431.8372 543.8836,502.6561 537.0751,521.4493 531.2798,539.1854 524.6756,562.23 518.6309,588.1499 514.9815,607.1481 507.7616,651.018 505.1033,664.1247 503.2824,670.4092 501.2794,675.1846 499.0058,678.7502 497.7622,679.9395 496.4554,680.6591 495.3739,680.8829 493.8109,680.7144 490.809,679.1916 487.9934,676.2216 484.4382,671.0453 481.127,664.7047 477.5357,656.3348 474.8447,648.8209 471.8647,639.0898 465.908,616.0221 461.2001,591.658 457.1868,563.4821 454.4431,534.6342 453.0308,507.8605 452.653,481.49 453.2815,454.8181 454.9316,427.7904 457.5052,401.7109 460.9246,377.2708 465.4552,352.5456 470.9097,328.6658 477.1902,305.9613 484.0442,285.1941 491.7883,265.4919 500.3669,247.0203 509.6674,230.0878 519.3813,215.2736 524.125,209.0 529.2674,202.8655 534.4934,197.2914 539.7792,192.2866 545.1011,187.8605 550.7489,183.8146 556.0701,180.6082 561.6638,177.8742 567.1881,175.8308 572.6148,174.4887 577.625,173.875 582.8409,173.909 587.8954,174.6197 593.1065,176.101 597.7559,178.1264 602.4818,180.9533 606.6307,184.1759 610.7693,188.2226 614.5639,192.8508 617.9873,198.027 620.82,203.2731 623.4992,209.2632 625.8358,215.6314 627.833,222.3375 629.4937,229.3408 630.8817,236.9896 631.9038,244.8758 632.5636,252.9523 632.8191,269.8623 631.7054,287.9701 629.2227,306.8359 625.4791,325.8211 621.2879,342.3331 616.0967,359.8694 610.3014,377.0431 603.8426,394.1108 596.7151,411.3094 588.8079,429.325 555.6961,501.1297 548.6834,517.7883 542.4769,533.9593 536.8311,550.8088 532.0654,567.7039 528.455,584.1121 525.7058,600.7007 524.5732,611.1402 523.7783,622.1226 523.4255,644.8699 524.7123,666.6593 527.657,686.9182 529.4543,695.4905 531.7704,704.2831 534.395,711.9794 537.2522,718.6902 540.2963,723.8588 543.3978,727.5286 546.1959,729.2225 547.5678,729.4187 548.875,729.125 550.2827,728.1575 551.464,726.7396 553.403,722.625 554.7839,716.644 555.5892,708.8418 555.7299,700.1768 555.2468,690.6316 554.0651,678.7634 552.2826,666.2352 550.1334,654.3926 547.5282,642.4257 543.829,627.5253 539.7148,612.6295 531.1903,585.7703 520.9822,558.395 508.5166,528.8159 495.6083,501.6659 488.2154,487.503 480.5625,473.6559 472.9355,460.6365 465.245,448.3012 457.6137,436.8962 448.7635,424.6526 440.8628,414.6041 433.9525,406.735 427.3487,400.4447 422.0628,396.6764 420.1872,395.9095 418.8047,395.8457 417.9013,396.4538 417.4566,397.7613 417.6187,400.3251 418.6657,404.1338 423.3805,415.1004 431.1389,429.3981 455.4021,471.1999 465.9738,490.7257 479.6229,519.1569 483.9672,529.4769 488.7969,542.125 492.947,554.4711 498.4676,573.5694 501.9484,587.8817 505.0318,602.8542 508.4678,622.9479 510.6243,638.3931 515.5094,681.5124 519.4786,711.681 522.905,731.346 527.1177,748.5151 530.491,758.9642 533.7227,767.2442 538.0145,775.9732 541.8554,781.9096 546.4815,787.2348 550.6719,790.3906 553.0352,791.4385 555.4121,791.9692 557.6221,791.9305 559.5325,791.4192 561.7616,790.2043 563.9365,788.255 565.7142,785.9456 567.4947,782.7851 569.0286,779.1762 570.4302,774.8254 572.5196,764.6795 573.6615,752.8845 573.9171,739.5651 573.2711,724.6069 571.7493,708.7854 569.3871,692.1364 566.1716,674.4182 562.1413,655.9202 557.4559,637.3429 552.1077,618.5905 546.093,599.6436 539.2538,579.9672 531.8113,560.221 523.7066,540.286 515.1545,520.7373 506.4065,502.1249 496.8456,483.1719 486.6663,464.2934 476.1147,445.9794 465.5338,428.8164 454.8853,412.7494 443.3844,396.8021 431.5415,381.7753 420.5001,369.114 410.1241,358.6492 400.9095,350.9912 396.7809,348.2717 393.3693,346.5585 390.6516,345.7819 388.3946,345.9411 386.9532,347.0983 386.3093,349.0393 386.2915,350.9152 386.7139,353.4188 388.652,359.1525 392.3016,366.8468 397.6904,376.4234 410.5274,396.0331 441.4552,439.3984 458.4515,464.5725 466.3383,477.4515 473.0273,489.2011 477.8442,498.5863 482.8865,509.6601 488.3184,523.1431 492.7668,536.7584 495.8394,548.7866 498.165,561.8386 499.4016,576.462 499.0869,586.0767 498.4961,590.5449 497.5518,594.1799 496.3008,596.6489 494.7093,598.0259 493.807,598.2123 492.8525,597.9993 490.75,596.375 488.944,593.8327 487.0271,590.0064 484.883,584.7589 483.1641,579.4754 479.3046,563.7555 476.5046,547.5252 474.0808,527.3432 472.8405,510.1719 472.2045,490.4207 472.2043,470.7726 472.8774,451.7804 474.2517,432.4388 476.2604,413.6589 478.9203,395.2157 482.2729,376.8751 486.1938,359.3104 490.7246,342.3505 495.8072,326.3128 501.3947,311.2692 507.3748,297.4445 513.8118,284.7222 520.5616,273.4677 527.5078,263.7736 534.6652,255.5131 542.1678,248.6017 549.625,243.5 553.2199,241.6865 557.1473,240.1829 560.6083,239.2845 564.3562,238.7859 567.9848,238.8066 571.4772,239.3402 574.8162,240.3801 577.6762,241.7435 580.5409,243.6208 583.5141,246.1823 586.0373,248.9402 588.5621,252.3712 590.8414,256.2171 592.8676,260.4513 596.015,269.5559 598.1843,279.8405 599.4584,291.479 599.7621,304.1964 599.0959,317.43 597.344,332.619 594.7263,347.9357 591.3247,363.1371 584.5049,387.3117 575.9818,412.893 565.8531,440.0769 543.7181,496.6691 532.4463,528.0981 525.0206,552.5325 520.7441,568.1356 516.7285,584.4421 507.9468,623.2751 505.4337,632.5274 503.2706,638.8841 500.6873,644.3514 498.625,647.125 496.2188,648.75 493.625,648.875 491.5239,647.8829 488.7032,645.0791 485.9436,641.0952 482.9883,635.3436 479.8041,627.8106 477.4731,621.1647 475.037,612.9083 470.3555,593.7019 466.6678,572.7918 463.3312,546.7656 461.2249,520.9325 460.2624,497.1045 460.1689,473.96 460.9939,450.1208 462.7081,426.1492 465.2961,402.1338 468.5131,380.2806 472.709,358.1831 477.6923,336.9422 483.367,316.8556 489.6917,298.0216 496.7161,280.2842 504.4332,263.6691 512.566,248.7798 520.9914,235.7968 529.6523,224.7858 534.1378,219.915 538.9792,215.2374 543.8544,211.1066 548.7383,207.5347 553.6052,204.5341 558.43,202.1169 563.1872,200.2954 567.5631,199.1397 572.107,198.5007 576.6542,198.4517 581.0503,198.999 585.6224,200.2408 589.6488,201.9636 593.7802,204.4298 597.3629,207.2377 600.9736,210.8302 604.2818,214.9698 607.121,219.3554 609.6951,224.1693 611.98,229.3448 615.6862,240.6631 618.3099,253.478 619.7258,267.1978 619.9888,282.7572 619.0625,298.9531 616.9377,316.0303 613.6796,333.4335 610.0589,348.5497 605.5805,364.3577 600.2818,380.717 593.9351,398.3586 580.844,431.3022 551.405,499.7331 543.1055,521.0124 537.3664,537.439 530.9345,559.036 525.9709,579.9323 522.9369,597.4526 520.1815,620.1117 519.0951,635.9459 518.6187,653.645 519.3518,678.8293 520.6293,695.5531 521.649,704.2807 523.7937,718.607 526.8596,733.4654 529.6177,743.5323 533.0244,753.4796 537.1835,762.8739 541.008,769.4828 545.3276,775.0053 549.3978,778.252 551.7057,779.3264 554.0,779.875 555.899,779.865 557.822,779.345 559.733,778.255 561.596,776.535 563.375,774.125 564.9642,771.1431 567.5723,763.5807 569.342,754.0765 570.2428,742.6371 570.3139,729.3862 569.543,715.3307 567.9789,700.6525 565.4665,684.1274 562.193,666.7873 558.3321,649.4851 553.8107,631.863 548.8081,614.5928 542.8808,596.1731 536.2989,577.3852 529.1727,558.5668 521.4265,539.5858 513.4242,521.3641 505.1897,503.9234 496.2003,486.1184 486.3829,467.8796 476.4178,450.5213 466.4458,434.2525 456.4207,419.008 445.4229,403.5551 434.6702,389.6502 424.6087,377.8535 415.2824,368.2232 406.0676,360.4212 402.4186,357.9433 399.0043,356.1401 396.3096,355.3193 394.3219,355.4187 393.0288,356.376 392.3911,358.3063 392.7611,362.2171 394.4146,367.3495 397.6193,374.4401 401.8903,382.3953 413.104,400.3357 440.8054,440.7088 460.1663,470.5088 468.8418,485.5821 475.3665,497.8133 481.0028,509.7308 486.0269,521.7043 491.2655,536.6459 495.2463,550.7934 498.5559,567.0281 500.296,580.5323 500.87,594.4726 500.6779,601.5918 500.1252,607.4433 499.2672,612.0478 498.0,616.0 496.5492,618.6844 494.7935,620.1383 493.597,620.399 492.676,620.242 490.3559,618.652 488.1074,615.8652 485.6096,611.3872 483.1794,605.8248 481.1726,600.0804 476.5411,582.7465 473.1881,565.6103 470.1859,544.0321 468.3548,524.3159 467.2118,502.6904 466.8052,481.6633 467.2056,461.4248 468.4542,439.4778 470.5,417.25 473.0029,397.8212 476.2594,378.4061 480.214,359.2978 484.8132,340.7579 489.956,323.2672 495.6805,306.812 502.0483,291.191 508.829,276.98 515.9926,264.2278 523.4716,253.0288 531.5125,243.0076 539.7249,234.7019 547.9611,228.2525 551.911,225.84 556.0076,223.8263 559.9834,222.3544 564.2793,221.3036 568.0962,220.8548 572.1772,220.9062 575.762,221.438 579.5473,222.5448 582.8267,224.0149 586.2358,226.1304 589.4555,228.7854 592.4403,231.8968 595.1883,235.4342 597.6921,239.3722 599.9446,243.6856 601.9385,248.349 605.1216,258.6248 607.238,270.2054 608.4014,283.3282 608.5266,297.0669 607.625,311.6103 605.645,327.0455 602.6636,343.1429 599.57,356.4315 595.916,369.8292 591.0819,385.4422 585.7781,401.0738 575.8763,427.284 552.6291,484.3494 544.8101,504.2845 536.3681,527.9563 529.7651,549.0765 523.1386,574.5193 519.8888,589.8026 517.8475,601.2794 515.1677,619.3625 512.4898,641.2958 508.8667,675.5392 506.375,693.625 504.3954,702.029 502.344,707.929 499.8917,711.8682 498.473,713.1355 497.125,713.75 495.8155,713.9147 494.092,713.489 490.6186,711.211 487.3234,707.3612 483.019,700.6519 479.2681,693.1445 474.8663,682.7314 471.1609,672.5497 467.5187,661.0679 464.1263,648.9953 461.1407,636.7702 455.322,607.4493 450.8509,578.1051 447.6623,547.4877 445.7692,517.0709 445.0712,487.8073 445.5193,457.9016 447.1206,428.2357 449.788,399.5904 453.5492,371.8263 458.5331,344.0938 464.5342,317.5988 471.5381,292.3483 479.2949,269.1774 488.0838,247.2588 497.8349,226.7838 503.0312,217.1993 508.4199,208.1098 513.9849,199.56 519.5102,191.8589 525.1705,184.7428 530.7216,178.4947 536.4759,172.7318 542.625,167.32 548.8207,162.6044 555.3585,158.4002 561.552,155.1353 568.0181,152.4735 574.0778,150.6885 580.3339,149.5999 586.1283,149.3239 591.955,149.8147 597.5421,151.0471 603.2265,153.1303 608.6297,155.9702 613.7298,159.5256 618.5047,163.7553 623.1817,168.9228 627.2179,174.4107 631.0634,180.818 636.1459,191.9001 640.2674,204.4775 643.3241,218.3262 645.258,233.287 646.0108,248.7646 645.6249,264.6211 644.1344,281.8231 641.5484,299.5937 637.6057,318.8682 632.5821,337.9202 625.8923,358.8382 617.8896,380.318 609.4503,400.3749 598.7606,423.547 588.5615,444.352 564.0239,492.8351 552.642,516.9348 546.4527,531.5892 541.0537,545.7318 536.7612,558.7428 532.9485,572.2767 529.3172,589.8023 527.8907,599.4293 526.9054,608.6413 525.9459,626.7646 526.5564,645.0913 527.454,653.9262 528.9644,664.3711 530.4104,671.2291 532.632,679.5446 534.7533,685.234 537.189,690.0289 539.7053,692.7568 540.7536,693.2124 541.7245,693.1506 543.2993,691.5777 544.3613,688.6398 545.214,682.8997 545.4603,676.2835 545.1692,670.0249 544.1648,660.4652 541.1527,641.8324 536.3333,620.8052 530.2702,599.2751 523.2574,578.2716 514.5926,555.4501 504.7593,532.3594 493.5764,508.8694 482.1242,487.1448 470.6752,467.7479 457.9232,448.4492 452.7602,441.5661 447.1633,434.8661 442.1461,429.5578 438.5881,426.6449 436.9604,425.8482 435.9458,425.6968 435.2589,425.9853 434.817,427.0186 434.9577,429.2836 435.7604,432.452 439.4745,441.6832 445.0928,453.3349 463.6782,489.2057 471.403,505.0576 479.6489,523.1817 488.1112,544.1399 496.1719,567.0938 503.1871,590.8497 510.3228,618.9781 522.5978,671.3894 528.7511,692.383 533.6879,704.9189 535.7961,709.1406 537.9598,712.6533 540.4246,715.7435 542.4634,717.4079 544.4509,718.1867 546.4345,717.9717 547.5221,717.2517 548.5777,716.0378 550.4223,712.0642 551.6163,706.3929 552.254,698.826 552.2542,690.5368 551.6301,680.7188 550.4506,669.9601 548.7131,658.4917 546.5329,647.0889 543.8181,635.1596 536.5989,608.209 528.6923,583.642 518.713,556.9945 507.2857,529.8941 495.5152,505.1619 481.3692,478.6004 467.1769,454.8438 459.5644,443.3525 451.8481,432.5003 444.6261,423.1519 438.1151,415.5905 432.0079,409.5637 427.464,406.1415 425.6747,405.3332 424.3264,405.2011 423.3678,405.7553 422.9375,406.9234 423.0976,409.3506 423.9978,412.6645 428.0275,422.3217 434.6106,434.9124 457.515,476.1392 466.9906,494.0277 479.5622,520.6327 488.25,542.2031 492.4395,554.2436 498.1609,572.8658 500.6623,582.1455 504.9752,600.336 510.1344,626.943 520.9551,692.7917 525.6744,714.6393 528.2926,724.3137 531.3834,734.0218 534.0305,740.831 537.5832,748.383 540.8709,753.7785 544.7392,758.5181 547.9931,761.0631 551.3323,762.3023 552.9012,762.3558 554.5954,761.9481 556.3095,761.0045 557.9837,759.4768 559.5579,757.3171 560.8449,754.7814 563.1259,747.5935 564.6077,738.7033 565.2384,728.9165 565.1101,716.5779 564.2209,703.346 562.6123,689.4596 560.32,675.0682 557.1424,658.9222 553.3498,642.4187 549.0448,625.9449 544.3383,609.8184 539.1695,593.7687 533.1201,576.5465 526.5889,559.3195 519.5119,541.936 512.0986,524.9366 504.4247,508.4904 496.3717,492.3618 487.5643,475.809 478.4341,459.6937 469.1075,444.2453 459.9171,430.0001 449.9417,415.6608 439.9295,402.3678 430.57,391.0393 421.8884,381.7287 413.7354,374.4947 410.3537,372.0496 407.1699,370.2237 404.9632,369.426 403.0831,369.3723 401.8665,370.1735 401.2802,371.8643 401.6495,375.6744 403.4697,381.2336 406.7542,388.5102 411.2441,396.9199 421.071,413.0539 442.7838,446.4236 451.9869,461.1664 461.9145,477.7518 470.0305,492.5015 475.7715,503.7331 480.2324,513.4181 486.2093,527.9427 490.4394,539.7593 496.1422,559.3551 500.0106,577.3293 501.4235,586.1204 502.7079,596.8666 503.8029,613.1205 504.033,622.729 503.8316,630.5167 503.116,639.4567 502.0744,646.9169 500.7465,652.6518 499.2016,656.7547 497.2883,659.7371 496.0398,660.7963 495.0162,661.2382 492.6691,661.2134 490.3635,659.7995 487.2435,656.3537 484.4902,651.9411 481.3105,645.3529 478.3483,638.0584 475.5893,629.8159 472.613,619.5248 467.883,599.6392 463.7818,576.4724 460.7605,552.9524 458.6028,527.5611 457.4282,503.0288 457.1754,479.6142 457.8069,455.2584 459.3319,430.7409 461.7038,406.7145 464.9192,383.3103 468.9849,360.3832 473.8513,338.2739 479.2261,318.0785 485.3257,298.8727 492.23,280.4156 499.8613,263.0013 507.9699,247.2301 516.2841,233.537 525.0103,221.5319 534.3448,210.9653 539.0927,206.4014 544.1488,202.1117 548.9298,198.5871 553.9754,195.428 558.7035,192.9999 563.375,191.125 568.138,189.7723 572.814,189.003 577.3835,188.8007 582.191,189.2024 586.476,190.1284 590.9294,191.7134 595.1625,193.8833 599.1505,196.6169 602.8685,199.8933 606.2236,203.599 609.5808,208.1514 612.6205,213.1897 615.3381,218.6746 617.8593,224.9249 619.8991,231.2049 621.6921,238.2087 623.1026,245.531 624.125,253.125 624.7844,261.0884 625.0935,269.5792 624.6066,287.3035 622.6664,306.0335 619.3021,325.5192 615.4986,342.1037 610.8406,358.9205 605.2841,376.201 598.5483,394.8169 585.7754,426.3303 561.2893,481.5127 552.3839,502.2322 544.8519,521.0423 538.71,538.2241 532.5316,558.2906 527.2909,580.5156 524.5095,596.1468 522.3048,614.4687 520.9102,637.1445 520.8139,649.26 521.09,660.418 522.2762,677.4714 523.2665,687.0944 524.956,699.668 527.0978,710.5179 529.6592,721.0048 533.277,732.6968 535.9723,739.3816 539.5526,746.3881 543.0406,751.4021 547.0938,755.2523 548.8465,756.2479 550.6332,756.7719 552.4229,756.7858 553.8362,756.4038 555.6615,755.3151 557.2105,753.7409 558.6875,751.5156 559.8831,748.9921 561.8551,742.2554 563.1882,733.1548 563.7158,722.9582 563.4963,712.0396 562.4595,698.8033 560.7433,684.7016 558.4492,670.509 555.6181,656.2862 552.1094,641.356 547.8306,625.2232 542.9354,608.5512 537.5887,591.9444 531.8717,575.6345 525.8017,559.6535 518.7702,542.4455 511.2462,525.228 503.3092,508.2045 495.2102,491.9124 487.0416,476.5133 478.4631,461.3729 469.3935,446.3241 460.4795,432.4514 450.8445,418.4989 441.74,406.4007 431.8342,394.4941 423.0441,385.0925 415.6075,378.3936 412.4677,376.1192 409.6383,374.537 407.4316,373.7676 405.5362,373.8123 404.5469,374.5926 404.0209,376.3391 404.5225,380.6086 406.4299,386.1103 409.8893,393.4802 415.2166,403.3589 422.1866,414.9572 452.9006,463.392 461.9787,478.8125 469.1837,492.0431 477.3457,508.6456 482.7159,520.5879 488.2431,534.932 492.5552,547.8151 498.2919,569.5138 501.7572,587.843 503.0512,597.4356 504.2972,610.0929 505.2312,629.5285 504.842,647.8935 503.8737,657.5565 502.9442,663.6594 501.5264,669.2702 499.7024,673.7251 497.6828,676.614 495.4058,678.0338 494.4071,678.1399 492.9785,677.8236 490.0204,675.9616 487.1343,672.6296 484.0388,667.779 480.9362,661.4706 477.1992,652.3317 474.4382,644.6747 471.6407,635.5474 465.9708,612.8206 461.4259,589.1385 457.6843,562.7938 455.149,536.455 453.7387,511.0079 453.2443,484.6147 453.6952,459.4778 455.0891,434.0003 457.4653,408.2305 460.7254,383.2998 464.8266,359.3927 469.8881,335.8111 475.5637,314.0231 481.9185,293.5462 488.8719,274.5964 496.6723,256.5875 505.1921,239.8514 514.3161,224.639 523.9294,211.2014 528.7773,205.3483 533.6301,200.0819 538.6866,195.1882 544.1196,190.5638 549.2282,186.7921 554.6701,183.3762 559.7432,180.7485 565.1003,178.5645 570.3771,177.0255 575.5487,176.1377 580.5901,175.9074 585.2273,176.3016 589.7186,177.268 594.3617,178.9037 598.7891,181.1295 602.9858,183.9177 606.9368,187.2408 610.8803,191.3634 614.5058,196.0343 618.0017,201.5828 620.9116,207.2795 623.6664,213.9686 625.9889,221.0018 627.9942,228.7493 629.5691,236.835 630.721,245.2083 631.4574,253.8185 631.7856,262.615 631.7133,271.5471 631.2487,280.8266 629.1487,300.9132 625.4925,321.8987 621.5461,338.7519 616.6405,355.9714 610.6881,373.9987 603.653,392.8642 596.8481,409.5434 588.9042,427.7995 564.7333,479.905 555.3764,500.769 547.7917,518.9693 541.21,536.4106 535.6692,553.4308 530.9725,571.06 527.4531,587.8648 525.087,604.1111 523.2574,626.4186 523.2347,648.4368 524.5587,668.885 527.7434,690.3034 529.6368,698.8502 532.1301,708.0561 534.7835,715.7129 537.5444,722.1692 540.5825,727.1423 543.939,731.081 546.693,732.657 548.061,732.854 549.5948,732.5398 550.9032,731.7017 552.1652,730.279 554.2258,726.0424 555.7371,719.71 556.5939,711.6301 556.7539,702.6793 556.2386,692.4074 555.0254,680.169 553.2511,667.6817 551.0541,655.5339 548.2296,642.533 544.729,628.4092 540.7656,614.0781 532.0183,586.6233 521.3137,557.9998 508.8292,528.4004 495.8557,501.1767 487.8113,485.8118 479.806,471.3485 471.8495,457.7934 464.0348,445.3196 456.1109,433.6107 447.3534,421.6641 439.2198,411.5078 432.1305,403.6166 425.6115,397.5306 420.4984,393.9455 418.6474,393.1892 417.0566,393.123 416.0558,393.8866 415.6528,395.2262 415.9456,398.2004 417.3436,402.6167 420.1401,409.097 423.6484,416.1113 435.9878,437.8982 452.2466,465.2895 462.5356,483.7627 469.0031,496.1236 480.4409,520.3805 489.5143,543.4638 494.0321,557.3987 499.3345,576.3628 502.8816,592.0069 505.9746,608.7526 508.2669,623.3397 510.729,643.3486 515.7078,695.1424 519.1767,724.3915 522.6596,744.0479 526.0278,758.1216 529.4393,768.7685 533.2902,778.4408 537.9123,787.6875 542.2754,794.2179 547.1243,799.6059 549.619,801.5754 551.9121,802.931 554.606,803.9968 556.9632,804.433 559.375,804.3009 561.4715,803.6972 563.8947,802.3762 566.232,800.3435 568.2412,797.8347 570.1742,794.5933 571.8694,790.8594 573.4306,786.3565 575.7871,775.9207 577.1931,763.4396 577.6157,749.5745 577.0692,734.0245 575.5797,717.4384 573.1839,699.5374 569.9426,680.8141 565.9118,661.6805 561.174,642.492 555.6319,622.8722 549.0064,601.816 541.7376,580.7537 533.9393,559.9841 525.5636,539.3961 516.838,519.5613 507.1909,499.2642 496.9644,479.1379 486.2427,459.3577 475.3378,440.5249 464.3831,422.8766 453.5116,406.6501 441.0438,389.5465 428.5709,373.8616 416.6994,360.3934 406.0382,349.7856 401.25,345.625 395.8868,341.5121 391.7468,338.8272 387.8974,336.9058 384.825,336.031 382.3265,336.1894 380.7334,337.4267 380.0342,339.5738 380.0393,341.5921 380.5118,344.285 382.9406,351.232 387.4746,360.4578 392.8862,369.6763 400.2153,380.6906 412.0512,397.3134 436.8523,430.3688 455.9863,456.9936 463.4176,468.4215 470.4938,480.0112 475.4389,488.8544 480.1509,498.2365 485.7861,510.7385 490.3638,523.0027 493.7829,534.2171 496.2278,545.3043 497.7907,556.7729 498.1797,567.0257 497.787,571.2639 497.1611,574.1826 495.971,576.777 494.817,577.729 493.1589,577.5336 491.8812,576.4678 490.3391,574.1265 488.3397,569.9621 485.0864,559.5201 482.2749,546.9015 479.9093,531.1567 478.3593,516.0523 477.3076,497.7392 476.8954,478.6114 477.21,462.0751 478.1282,444.7941 479.5812,427.6628 481.5757,411.0992 484.1773,394.4833 487.274,378.4762 490.8084,363.2503 494.9396,348.1993 499.5085,333.9456 504.446,320.663 509.6428,308.5986 515.1653,297.6615 521.2455,287.4149 527.5742,278.4037 534.0252,270.7795 540.5365,264.6437 547.0547,260.0307 553.7921,256.8331 557.0594,255.8871 560.2296,255.3845 563.2809,255.3312 566.0002,255.6772 568.74,256.414 571.6812,257.6849 574.4576,259.4069 577.0534,261.5625 581.4073,266.7551 585.0925,273.6123 588.1787,282.495 590.3133,292.5895 591.4649,303.6448 591.6219,315.8794 590.7812,329.3906 588.9728,343.6026 586.1443,358.913 582.3742,374.9504 576.3477,396.0367 567.909,421.4229 555.4336,455.3284 540.1337,495.4673 531.4799,519.5168 524.6135,540.0061 512.2917,580.5475 507.2099,595.916 504.9247,601.7142 502.2717,606.8085 499.9762,609.7838 497.686,611.418 495.598,611.804 493.2022,611.0367 491.0452,609.1138 488.5,605.625 486.3657,601.625 484.1759,596.375 481.6021,589.0418 479.8328,582.9232 476.0678,565.623 473.0823,546.8671 470.7672,524.9244 469.3857,503.0092 469.008,482.5454 469.4083,460.6459 470.4553,440.8945 472.2972,420.9054 475.0822,399.4811 478.6673,378.1238 482.6204,359.3419 487.2904,341.1162 492.591,323.7306 498.5729,307.0961 504.8649,292.2605 511.5824,278.7936 518.9453,266.2562 526.66,255.25 534.4547,246.1554 542.6848,238.625 546.6485,235.7064 550.9219,233.0625 555.1498,230.9643 559.3076,229.4187 563.3707,228.4329 567.3144,228.0138 571.0386,228.1485 574.905,228.855 578.6034,230.1217 582.1132,231.928 585.4138,234.2534 588.4848,237.0774 591.3056,240.3794 593.8556,244.1389 596.1688,248.4279 598.2149,253.0887 601.2355,262.3016 603.4528,272.8259 604.7192,284.1589 605.0372,296.334 604.4598,310.1131 602.9593,324.5358 600.6104,339.0482 597.248,354.6337 594.2069,366.5617 590.6435,378.963 581.9417,405.067 571.4256,433.1512 543.5093,503.8102 536.5334,522.9975 530.2603,542.3109 524.5609,562.6311 518.973,586.3205 516.1297,600.8905 508.4328,647.6178 505.5851,662.2812 503.3027,670.623 501.0988,676.117 499.1078,679.1329 497.6053,680.4712 496.3094,681.1651 494.8998,681.4216 493.5655,681.2625 490.723,679.575 487.047,675.5346 483.8566,670.5484 480.2551,663.3633 477.3298,656.2851 474.033,646.8238 470.5817,635.4239 465.1118,613.1249 460.3469,587.4316 456.7794,560.8547 454.1512,531.9946 452.8392,506.8479 452.5163,480.5668 453.2067,453.5393 454.867,426.8636 457.448,401.516 461.0256,376.287 465.5594,351.583 470.9168,328.0851 477.1067,305.7883 484.2954,284.173 492.268,263.9533 500.9147,245.4184 509.9436,229.1346 519.5911,214.6411 524.4744,208.2744 529.7148,202.0916 535.0349,196.4626 540.4116,191.4093 545.8215,186.9535 551.2412,183.1171 556.6476,179.9218 562.1528,177.3339 567.351,175.5069 572.8543,174.2188 578.236,173.6204 583.4723,173.6962 588.539,174.4309 593.4123,175.809 598.0683,177.8151 602.7884,180.644 606.9179,183.9022 610.9107,187.9026 614.7149,192.6269 618.1617,197.8755 621.0881,203.2767 623.8371,209.4265 626.1025,215.6049 628.1496,222.4994 629.7501,229.3073 631.0912,236.7903 632.756,253.0244 633.0323,270.2588 631.9367,288.1597 629.509,306.4532 625.6151,325.9286 621.3597,342.7647 616.2868,359.7763 610.3622,377.1361 603.1517,396.0465 590.0024,426.8554 556.3868,499.6435 548.9311,517.1972 542.8745,532.8677 537.0604,550.0687 532.202,567.2038 528.5163,583.5594 526.0092,599.119 523.9927,620.0033 523.4907,641.2593 524.3753,661.7706 527.034,683.0414 529.0104,692.676 531.4485,702.4951 534.0259,710.6862 536.586,716.9696 539.772,722.6826 542.8933,726.5148 545.9441,728.4664 547.4028,728.7712 548.798,728.5285 550.164,727.6816 551.1994,726.5485 553.1542,722.5505 554.6539,716.2584 555.491,708.2522 555.5954,699.5447 555.0524,689.009 553.91,677.7664 552.1837,665.8813 549.8927,653.469 546.9741,640.0609 543.6539,626.6966 539.931,613.3043 531.1108,585.9039 520.2486,556.7242 508.1804,528.187 494.9292,500.5367 480.2879,473.2407 472.9373,460.7116 465.8173,449.3432 457.4538,436.8189 449.4039,425.5915 441.8419,415.9121 435.0378,408.1304 428.1204,401.338 422.9621,397.4692 420.9355,396.5408 419.3918,396.3516 418.2877,396.8941 417.7493,398.2151 417.8887,400.6433 418.9332,404.4717 423.2009,414.4819 433.1218,432.9387 455.5768,471.8096 465.0236,489.0821 478.197,515.8349 483.7261,528.9305 488.3626,540.9602 493.8962,557.5723 497.6005,569.8655 501.6215,586.2499 504.4236,599.4232 507.6024,617.4278 510.0395,633.9456 516.839,690.621 519.2814,708.3459 522.9599,729.2074 527.4295,747.5365 530.7593,758.1193 533.5317,764.9593 538.0531,774.2527 542.4917,781.0093 546.8378,785.8537 551.0185,788.7315 553.363,789.6394 555.3612,790.0029 557.3594,789.9208 559.3648,789.352 561.6701,788.0152 563.5794,786.2427 565.4776,783.72 567.1215,780.7701 569.9766,773.0501 571.9643,763.3935 573.1134,751.3871 573.3826,738.0993 572.7691,723.6834 571.25,708.125 568.7945,691.0286 565.5406,673.1752 561.5646,654.9833 556.9629,636.81 551.6019,618.1441 545.3184,598.4438 538.4678,578.7861 531.0296,559.0911 523.0796,539.5878 514.8523,520.8406 505.963,502.0119 496.5393,483.3476 486.4498,464.6254 476.1865,446.7939 465.8862,430.0739 455.686,414.6864 443.8847,398.2496 432.29,383.4154 421.2423,370.6266 411.1301,360.3416 401.9659,352.657 398.0694,350.0463 394.4578,348.1903 391.593,347.3585 389.2936,347.5336 387.875,348.75 387.3188,350.7979 387.8599,355.2212 389.8322,361.0141 393.4867,368.8773 398.2065,377.3691 404.2078,386.8918 412.7648,399.5572 442.1326,440.82 458.0466,464.4528 466.4369,478.2654 473.1538,490.1449 478.4934,500.6989 484.0084,512.7755 488.5,524.25 493.319,539.5076 496.6362,553.4998 498.5948,565.2336 499.6225,578.5372 499.184,589.89 498.5733,593.685 497.2371,598.3038 496.0777,600.2835 494.6111,601.3704 492.9043,601.3613 490.785,599.895 488.825,597.105 486.2745,592.1263 483.0012,582.7481 479.0774,567.3803 476.1298,550.7987 473.7231,531.9848 472.2022,512.4847 471.4056,491.5935 471.3657,472.3715 471.9896,453.1783 473.2682,434.1204 475.1588,415.8252 477.8413,396.7632 481.226,377.8021 485.2728,359.2266 489.5755,342.8631 494.5652,326.8686 500.1735,311.5169 506.183,297.4051 512.5616,284.586 519.5231,272.689 526.5949,262.4989 533.8781,253.8147 541.2685,246.8147 548.9131,241.4289 552.5883,239.4729 556.5791,237.8186 560.4924,236.6876 564.3047,236.0825 567.9925,236.0058 571.2172,236.3966 574.6363,237.347 577.7278,238.7188 580.9465,240.7157 583.9619,243.1996 586.5156,245.8594 589.1062,249.2039 591.4551,252.9629 593.5491,257.1116 596.8271,266.0955 599.2112,276.48 600.6625,288.1634 601.1222,300.5658 600.5927,314.1298 599.1205,328.3321 596.6712,343.389 593.3147,358.7607 586.2805,384.3721 577.4008,411.163 567.6725,437.3496 543.9613,497.4511 537.7909,514.3371 532.0667,531.169 525.7799,551.6312 519.7798,574.2548 514.9408,595.7543 508.388,627.1541 505.4474,639.0987 502.9372,646.5429 500.875,651.125 498.7035,654.2919 496.1515,656.01 493.7119,656.115 490.5602,654.4199 488.1085,651.8701 485.2641,647.5649 482.6392,642.5136 479.8943,635.8914 476.5287,626.2232 474.0145,617.8401 469.1118,597.3292 465.081,575.2651 461.8743,550.3047 459.6083,523.9839 458.6094,500.4062 458.487,475.8154 459.2259,450.9325 460.8323,427.2608 463.3628,403.4385 466.7947,379.8339 470.9616,357.4324 476.0219,335.5449 481.8282,314.7658 488.2548,295.3883 495.3259,277.3051 502.7947,261.1018 511.1898,245.6759 519.9122,232.1543 529.2524,220.1106 534.0335,214.8485 538.6346,210.3444 543.3416,206.3007 548.4826,202.5096 553.2504,199.5538 558.3544,196.9759 563.4018,195.0231 568.3668,193.6926 573.2238,192.9816 577.9473,192.8875 582.5116,193.4074 586.891,194.5387 590.9245,196.1959 595.065,198.574 598.9514,201.5241 602.5733,205.0135 605.9201,209.0096 608.9813,213.4797 611.7463,218.3912 614.2046,223.7113 616.3456,229.4075 618.1083,235.2115 620.9556,248.5512 622.6011,263.5522 622.9365,279.2317 622.0305,295.4238 619.823,313.2371 616.3858,331.6274 612.753,346.7269 608.3168,362.2332 602.7921,379.2729 596.529,396.6158 584.073,427.2739 561.3401,479.1093 551.7168,501.7574 544.8792,519.0721 538.875,536.0 532.492,556.5199 528.1834,573.6942 523.9247,596.7618 521.5602,615.9678 520.5748,628.5314 519.9454,644.7454 520.4012,668.1032 521.4113,681.68 522.8594,695.3281 524.7004,707.7099 526.9126,718.5429 529.6655,729.6548 533.1379,740.3833 536.3036,748.0 540.1567,755.231 544.1479,760.6872 548.0699,764.2496 549.8583,765.2111 551.6875,765.7344 553.5167,765.7857 555.3051,765.3311 557.2497,764.1605 558.9204,762.4986 560.5356,760.1617 561.8515,757.5161 563.9812,750.6248 565.5231,741.2782 566.256,730.8506 566.2101,719.1794 565.347,705.787 563.7408,691.5168 561.4454,676.7431 558.5541,661.8637 554.8192,645.677 550.3856,628.6927 545.3974,611.4887 539.9282,594.3392 534.0521,577.4726 527.744,560.8188 520.3073,542.5875 512.3304,524.3411 504.0597,506.6489 495.5947,489.7057 487.0259,473.6822 477.6429,457.2787 467.9301,441.2822 458.4085,426.5722 448.6032,412.493 439.3078,400.2813 428.8192,387.8536 419.3977,377.9415 411.6964,371.1665 408.3479,368.8324 405.5087,367.3341 403.2679,366.5993 401.2972,366.624 400.0713,367.5637 399.5487,369.3402 400.0507,373.6343 402.1794,379.7223 405.8533,387.3831 411.548,397.6753 419.1836,410.0646 451.1045,459.0265 461.0223,475.3461 468.3952,488.3895 475.3504,502.0529 480.9327,514.0674 485.8801,526.2632 490.5269,538.9726 495.2603,555.1328 498.8696,571.2848 501.7007,589.2531 503.1514,607.2146 503.0545,624.6748 502.4537,632.0139 501.5741,638.2001 500.3396,643.7435 499.1094,647.2083 497.1801,650.3113 495.1676,651.832 492.9613,651.901 490.2709,650.3143 487.4588,647.2862 484.7383,642.92 481.903,637.0991 479.3028,630.5232 473.5229,611.856 469.2608,592.852 465.1057,568.3285 462.4186,546.0085 460.4776,521.5365 459.4999,498.9751 459.3944,475.7881 460.1651,451.7383 461.7684,427.9314 464.154,405.2102 467.326,383.06 471.2711,361.4439 476.0318,340.2515 481.4491,320.291 487.5902,301.2334 494.3522,283.3505 501.7977,266.5459 509.5508,251.6748 517.7079,238.4552 526.5243,226.4694 535.6294,216.273 540.2449,211.8947 544.878,208.0226 549.5108,204.6762 554.125,201.875 558.8786,199.5574 563.5859,197.8273 568.2242,196.6725 572.7709,196.0808 577.2033,196.0403 581.4987,196.5386 585.6345,197.5638 589.9086,199.2547 593.9399,201.5342 597.5131,204.2199 600.8782,207.3981 604.2207,211.2937 607.2838,215.6642 610.2344,220.8125 612.6955,226.0601 614.9864,232.0687 616.8126,238.0523 618.4088,244.7708 619.6357,251.7468 620.5581,259.2851 621.3558,275.2921 620.779,292.2177 618.8925,309.7675 615.5963,328.7658 612.0264,344.3967 607.6487,360.3843 602.2397,377.4784 595.9762,395.1654 584.0228,425.2265 560.112,480.3488 550.6527,502.9875 543.3015,521.8033 536.6581,541.0879 531.005,560.3569 526.1125,581.5593 522.7735,601.0867 520.4608,621.6606 519.6113,634.7387 519.2252,649.1223 519.3742,661.1022 519.9815,675.5463 521.2325,691.7141 522.4815,701.9537 524.3227,714.0399 527.4786,729.0397 530.0413,738.2729 533.2358,747.7624 537.2326,756.8258 540.6974,763.0274 544.9378,768.5131 548.5139,771.6528 550.5427,772.7042 552.5962,773.2865 554.625,773.375 556.5583,772.9183 558.5018,771.8235 560.3983,770.0262 561.943,767.8776 563.375,765.125 565.8874,757.5401 567.556,748.1275 568.3423,737.5716 568.327,724.3946 567.4991,710.5143 565.9039,695.8811 563.6246,680.9318 560.46,664.4278 556.6036,647.4237 552.0961,630.0353 547.1374,612.9384 541.582,595.5894 535.3152,577.6982 528.422,559.5024 520.9313,541.115 512.9056,522.7503 504.7421,505.3127 496.3133,488.5025 486.914,470.9561 477.1729,453.9123 467.2293,437.6154 457.4337,422.6194 447.1866,408.0969 436.6774,394.462 426.5727,382.5977 417.0273,372.7074 408.8937,365.6585 405.056,362.9845 401.912,361.2976 399.4375,360.5312 397.6084,360.6192 396.2774,361.6804 395.7289,363.5837 396.1945,367.696 398.3226,373.85 402.06,381.7292 407.2425,391.0598 419.1067,409.7406 448.112,452.934 457.8843,468.3421 465.0053,480.4291 472.4153,494.184 478.0781,505.5459 483.3308,517.408 487.8399,528.8042 492.9615,544.6757 496.7398,559.2774 500.0983,577.385 501.5469,592.1875 501.8648,599.4633 501.7852,609.6487 501.448,614.9489 500.6087,621.4509 499.6758,625.9954 498.3096,629.9491 496.8743,632.3425 494.9416,633.8625 492.7981,633.9957 490.5127,632.6948 488.1362,629.9832 485.3449,625.5296 483.1713,620.9257 480.7967,614.6685 478.2224,606.7949 476.1387,599.211 471.6392,578.3922 468.5414,559.3751 465.9798,536.5117 464.3092,512.5433 463.6757,490.7427 463.8323,468.2664 464.755,446.2857 466.4931,424.1873 469.0493,402.0399 472.3286,380.6235 476.2194,360.4621 480.9282,340.5788 486.2526,321.7888 492.0793,304.345 498.4256,288.1459 505.1912,273.4663 512.7028,259.5869 520.665,247.1023 528.9522,236.2075 537.5044,227.0353 541.6646,223.3167 546.1921,219.7993 550.7181,216.8159 555.2189,214.3693 559.6711,212.4622 564.0509,211.0973 568.3348,210.2773 572.4992,210.0051 576.5205,210.2832 580.5306,211.1391 584.1291,212.4264 587.8666,214.3444 591.3951,216.7764 594.7017,219.6993 597.7733,223.0905 600.5967,226.927 603.159,231.1859 605.4471,235.8445 607.5011,240.9742 609.3424,246.6396 612.1266,258.8399 613.7306,271.9894 614.1712,286.251 613.4226,301.8016 611.5973,317.9817 608.657,334.889 605.5286,348.6347 601.1268,364.9237 596.1722,381.0401 590.4989,397.578 578.0027,429.9188 548.4366,500.9871 538.8273,527.0468 533.0659,544.7247 526.4727,569.0949 521.7778,591.6528 518.064,617.171 515.841,643.316 515.0676,659.6649 514.7505,689.2663 516.1104,723.8325 517.6974,740.1872 519.4476,754.167 521.909,766.874 524.3134,776.8927 527.6288,787.5969 531.9586,798.3269 537.1587,808.0598 542.3312,815.3436 547.7489,820.963 550.5938,823.0312 553.5962,824.6265 556.7188,825.7171 559.1692,826.1087 562.0361,825.9632 564.5692,825.2565 567.4519,823.714 569.988,821.6022 572.4047,818.7932 574.7659,815.1098 576.8297,810.8672 578.5709,806.2146 581.3289,795.2273 583.243,781.5368 584.0477,766.6295 583.7854,750.4462 582.4266,732.3238 580.103,713.0923 576.83,692.9476 572.6639,672.3006 567.691,651.5119 561.6435,629.5435 554.7145,607.1067 547.0503,584.6271 538.627,562.0423 529.6719,539.9725 520.1263,518.2841 509.3214,495.5421 497.8046,472.9554 485.9027,451.1681 473.7761,430.4612 461.7753,411.4055 449.8003,393.8353 436.3535,375.6911 422.8681,359.1246 410.0053,344.9531 398.2092,333.6231 392.6811,329.02 386.9828,324.8438 382.0818,321.8532 377.9672,319.9694 374.6281,319.1137 371.8569,319.2603 370.808,319.7253 369.865,320.5755 368.9263,322.8145 368.8255,325.346 369.3151,328.3843 370.4755,332.2428 372.223,336.5677 377.75,347.25 384.9836,358.6684 393.4827,370.5364 406.2613,387.2687 442.1201,431.5685 453.1828,445.723 467.5492,466.1891 477.0084,481.5303 482.2147,491.2042 486.3365,499.8844 490.28,509.5682 493.1715,518.2382 495.8534,528.991 496.8386,536.3709 496.9187,542.8548 496.25,545.4844 495.498,546.2199 494.6412,546.0319 493.5764,544.717 491.2789,539.1962 488.6894,528.7485 487.0694,518.844 485.635,505.5996 484.909,494.2194 484.5244,478.8342 484.6327,464.1552 485.2434,450.7261 486.3289,436.4718 487.6839,423.3491 489.4643,410.3612 491.7948,396.726 494.6022,383.0317 497.516,370.9474 500.7865,359.3817 504.4467,348.1303 508.4396,337.3737 512.4693,327.8454 516.8375,318.9351 521.6668,310.4426 526.6738,302.8803 531.75,296.375 536.8495,291.0348 541.968,286.8668 547.3171,283.7628 552.1638,282.1255 557.0572,281.765 561.3701,282.6614 565.6239,284.9189 569.3514,288.4455 572.467,293.1296 575.616,300.6069 577.7744,309.5193 578.9221,319.8657 579.1302,331.6388 578.3616,344.0536 576.6114,357.199 573.798,372.4879 570.2719,387.3893 563.2399,411.7715 555.2583,435.7358 543.3801,468.4319 517.8727,536.4687 512.0558,550.2092 507.75,558.75 505.7421,561.806 503.7613,564.1317 501.8782,565.6084 500.088,566.291 498.3311,566.2069 496.1772,565.1797 494.5783,563.5938 492.9899,561.2422 489.7561,554.1114 486.6797,543.3303 484.3372,531.8515 482.3796,517.1716 481.1039,502.4282 480.4504,485.8031 480.4065,468.3847 480.9417,452.6155 482.1401,435.4298 483.9623,417.8985 486.0981,402.8023 488.8645,387.4683 492.2207,372.1144 496.074,357.1682 500.1268,343.9426 504.8275,330.8552 509.9733,318.5006 515.4128,307.2 520.7669,297.7353 526.4021,289.3303 532.2046,282.0825 538.2944,275.8772 544.3633,271.105 550.6153,267.7018 556.2898,266.0093 559.3544,265.7044 561.9836,265.8262 564.5106,266.3188 567.3123,267.343 569.6953,268.6362 572.218,270.4965 576.4887,275.1187 580.051,281.0871 583.2166,289.5013 585.4107,299.3581 586.5761,310.283 586.6849,322.4156 585.7612,336.1384 583.8409,350.5967 580.9389,365.5243 576.6366,383.3792 571.324,401.8278 562.8211,427.3914 531.4544,512.1059 511.0621,571.3363 507.4145,580.225 503.9367,587.054 501.0148,590.7687 499.3594,591.9844 498.0098,592.5098 496.0366,592.54 494.0048,591.5351 491.9301,589.4586 489.9224,586.5895 487.9062,582.5737 485.8473,577.3933 482.4463,566.1238 479.0,549.25 476.8058,534.1133 474.9242,514.0276 473.9666,494.8818 473.8242,475.1979 474.4054,454.3003 475.5196,436.6578 477.3199,418.6042 479.9131,399.6259 483.1497,381.1477 486.9745,363.5437 491.4266,346.5145 496.3201,330.6852 501.5288,316.301 507.3237,302.6766 513.6191,290.0368 520.304,278.6122 527.0709,268.8892 534.2601,260.4307 541.5701,253.6136 545.2246,250.8505 549.1565,248.3596 552.7422,246.5356 556.268,245.1792 559.7166,244.3012 563.5077,243.8683 566.9137,243.9593 570.2008,244.5116 573.3514,245.5141 576.3481,246.9556 579.4761,249.0584 582.0907,251.3898 584.4971,254.1253 586.8668,257.5275 589.0087,261.3263 591.053,265.8237 594.0019,274.7983 596.073,285.2373 597.1018,296.5795 597.2243,309.0654 596.3998,322.7653 594.6798,336.787 591.9665,351.8925 588.3692,367.4314 581.8197,390.4398 573.3331,416.0401 540.1068,503.1339 529.742,532.9191 521.2801,561.1892 508.6056,610.8911 505.2124,622.1892 503.0313,627.8178 500.9904,631.7713 498.7305,634.6906 496.477,636.214 494.0946,636.4709 491.8627,635.4959 488.8338,632.4209 486.1852,628.4715 483.6371,623.3277 480.7775,616.1927 478.257,608.5982 475.7975,599.855 471.6195,581.3521 468.1626,559.8592 465.4345,535.591 463.7581,510.7922 463.1364,487.6135 463.4011,464.4408 464.5645,440.8261 466.6061,417.2343 469.2905,395.5637 472.8256,374.3264 477.2186,353.37 482.4939,332.6567 488.4009,313.1982 494.7627,295.5925 502.0191,278.5953 509.9312,262.8957 518.0197,249.3552 526.4987,237.5619 535.4168,227.5271 540.0993,223.1229 544.8017,219.2654 549.498,215.9691 554.4519,213.0979 559.053,211.0049 563.568,209.5176 568.0558,208.6233 572.6601,208.3208 577.1192,208.6532 581.4092,209.6003 585.5065,211.1421 589.3874,213.2582 593.0281,215.9287 596.4049,219.1332 599.531,222.8986 602.4713,227.3019 605.114,232.1686 607.5895,237.8014 610.8015,247.6068 613.175,258.7043 614.5467,270.5191 615.0249,283.6804 614.5781,297.6094 613.1995,312.1486 611.0305,326.3456 607.7545,342.2585 604.2352,356.3399 600.166,370.4341 595.6052,384.4662 589.5104,401.5909 578.883,428.9158 557.0464,480.7811 548.9654,500.6597 540.8495,522.1093 534.4375,541.1295 528.4292,562.4004 522.9594,587.0991 519.5743,608.0236 517.1691,630.6989 516.0628,649.6739 515.5941,667.8535 515.6645,688.9598 516.2403,704.589 517.5378,722.505 519.4451,738.6157 521.929,753.686 524.625,765.75 528.153,777.574 531.4876,786.5412 536.7352,797.1661 542.0793,805.1684 544.5722,808.1381 547.4023,810.8823 550.4074,813.1629 553.1893,814.7324 555.9441,815.7156 558.4926,816.0627 561.1061,815.8536 563.3682,815.184 566.1086,813.6946 568.4672,811.6646 570.7772,808.8393 572.7872,805.5185 574.6674,801.424 576.2132,797.0313 578.8326,785.8474 580.4126,772.8827 580.9818,758.3195 580.5358,741.7609 579.0856,724.0292 576.7631,705.9573 573.5159,686.8932 569.4719,667.546 564.4127,646.892 558.3782,625.2022 551.6827,603.6333 544.3309,582.1516 536.4122,561.0129 527.5174,539.2629 517.588,516.8464 507.0306,494.679 496.16,473.3789 485.1256,453.1821 473.879,433.9946 462.383,415.8037 450.5363,398.3881 437.384,380.551 424.5201,364.6667 412.3251,351.2042 400.9515,340.351 395.5829,335.8834 390.4614,332.1361 385.7383,329.2818 381.8107,327.5588 378.5038,326.888 376.1743,327.3067 374.6956,328.6882 374.0401,331.2109 374.1984,333.8859 374.9076,337.066 377.7709,344.6513 382.3118,353.4728 388.7381,363.8518 396.2537,374.8065 405.3872,387.3536 440.7846,432.801 452.8927,449.0194 468.1869,471.5182 479.6047,491.5594 484.5648,501.6761 489.4918,513.7969 492.4031,522.465 495.3801,533.9098 496.8482,542.588 497.4008,551.7886 496.7546,557.9167 496.125,559.5 495.029,560.4369 493.6531,559.9582 492.2678,558.3724 489.1222,550.8131 486.9208,542.3586 484.5999,529.6788 482.9313,516.0965 481.6523,500.0692 481.143,485.6125 481.1549,469.0907 481.6018,454.9134 482.6246,439.7832 484.2185,423.9118 486.3039,407.9859 488.6618,393.9044 491.4747,380.1038 494.7755,366.3815 498.4014,353.3917 502.371,341.2382 506.9244,329.2254 511.8588,317.9313 517.0879,307.5484 522.1914,298.8765 527.6046,291.0999 533.1617,284.4234 538.7525,278.9495 544.4399,274.6628 550.1526,271.6569 556.0287,269.9909 561.217,269.902 563.5,270.3564 565.9738,271.261 568.2968,272.5211 570.762,274.3397 574.9379,278.8674 578.2172,284.3377 579.9072,288.3033 581.2782,292.5341 583.4656,302.5856 584.6243,313.7979 584.715,325.7202 583.7833,338.6895 581.8056,353.0876 578.7794,368.7731 574.7533,385.5232 569.0995,405.0404 560.3308,431.2549 530.9956,510.3492 511.992,563.7897 508.358,572.634 504.8993,579.4183 501.9575,583.2724 500.2621,584.6589 498.838,585.341 496.724,585.453 494.6461,584.5976 492.6725,582.7261 490.6515,579.7658 488.7136,575.9845 486.9375,571.4844 483.2389,558.8936 480.4756,544.7516 477.9148,526.2984 476.4827,509.1792 475.5964,489.1242 475.5051,472.2678 476.0856,454.402 477.3964,434.6183 479.1051,417.7749 481.5114,400.574 484.6169,383.0964 488.3217,365.9684 492.3474,350.4401 496.9844,335.2812 502.1835,320.7471 507.7506,307.4132 513.5924,295.4636 520.0922,284.1732 526.6959,274.5183 533.4988,266.2979 540.3294,259.7315 547.3771,254.6396 554.2858,251.2904 557.6481,250.2778 561.2508,249.6791 564.4213,249.6068 567.5627,250.004 570.5767,250.8442 573.761,252.2633 576.4665,253.9624 579.2802,256.302 581.6272,258.799 584.0149,261.9911 586.1561,265.6047 588.0188,269.5742 591.0981,278.6855 593.2012,288.9187 594.3138,300.0891 594.4388,311.9918 593.6182,325.72 591.8457,340.0953 589.1391,355.0169 585.3673,371.1533 578.804,394.0612 569.9073,420.738 563.5365,438.0876 543.0168,491.4398 531.5524,523.2637 522.443,552.097 509.9185,596.3659 506.4764,607.2983 503.7563,614.3397 501.6006,618.6578 499.1791,621.7587 496.8354,623.2742 494.5832,623.4689 492.3461,622.4152 489.7034,619.8855 487.3118,616.3836 484.6283,611.0539 482.199,605.104 479.8802,598.0583 477.5204,589.5626 473.6673,572.0815 470.2094,549.4536 468.0485,529.4066 466.7011,506.9616 466.2177,484.1097 466.595,462.2424 467.8537,439.2251 469.9886,415.858 472.6814,395.1071 476.204,374.5025 480.5352,354.2524 485.5334,335.0375 491.2643,316.6723 497.7299,299.2162 504.7306,283.1578 512.3125,268.4174 520.0052,255.8713 528.3113,244.7078 536.8951,235.3708 541.2331,231.4306 545.571,227.9993 550.1539,224.9305 554.4181,222.6036 558.8054,220.7656 563.159,219.5061 567.4245,218.8269 571.5783,218.7156 575.5968,219.1599 579.7983,220.2636 583.457,221.8294 587.2097,224.1269 590.3592,226.7165 593.5044,230.0151 596.395,233.7902 599.1987,238.3268 601.5316,242.9856 603.716,248.3944 606.406,257.4366 608.2609,267.2407 609.4339,278.7266 609.7745,291.0927 609.3037,303.4487 608.0846,316.0255 605.9276,330.2182 603.0357,344.8245 599.9517,357.7331 596.2534,371.131 591.8695,385.2083 586.7477,400.2265 576.0981,428.4011 554.3331,481.4912 543.716,508.5465 535.0798,533.3019 528.7206,554.2388 524.789,569.5489 521.6448,583.7825 519.0752,597.6582 516.2051,615.9962 513.5824,638.7468 508.6053,694.4139 506.5621,709.6496 504.9883,716.9785 502.8738,722.912 500.7165,726.4001 499.3357,727.6649 498.0897,728.2774 496.766,728.4955 495.375,728.2812 491.953,726.3745 488.8337,723.1673 485.1005,718.0286 481.7455,712.2212 477.921,704.2729 474.2714,695.6411 470.6569,685.8789 463.8228,664.0223 457.7899,639.8922 452.3696,612.6895 448.141,584.9497 445.1007,557.812 442.9436,529.7855 441.8519,502.8055 441.7141,475.6504 442.5497,447.6482 444.3657,419.7317 447.0987,392.9783 450.8239,366.391 455.212,341.8454 460.4043,318.1154 466.2955,295.6283 472.8418,274.5901 480.4014,253.9072 488.6227,234.5761 497.5596,216.4543 506.9536,200.0766 516.6892,185.6008 526.802,173.0092 532.1498,167.2522 537.5712,161.9952 543.0464,157.2469 548.5556,153.0164 554.0789,149.3125 559.5964,146.1442 565.3923,143.3907 570.8356,141.3512 576.2124,139.8746 581.503,138.9696 586.9387,138.6317 592.1435,138.8793 599.3286,140.1881 606.5156,142.7144 613.2894,146.3549 619.6022,151.0424 625.4065,156.7099 630.6545,163.2902 635.2576,170.6371 639.5608,179.3153 643.2109,188.6739 646.3088,198.9839 648.718,209.8189 650.4919,221.4691 651.5185,233.0506 651.8746,244.841 651.5578,257.8539 650.5661,271.201 649.1191,283.3356 647.2033,295.3572 644.7853,307.5877 641.8769,319.959 638.3846,332.7921 634.3876,345.8185 629.9835,358.7574 625.0694,371.9163 615.4179,395.0303 603.1955,421.1518 592.7112,441.9514 565.7807,493.2884 552.133,521.1366 546.6639,533.5897 542.0471,545.3277 537.9633,557.1277 534.3652,569.1396 530.59,585.2363 527.9818,601.784 526.676,618.1284 526.682,633.54 527.1967,641.9627 528.133,650.3104 529.4085,658.2201 531.008,665.1181 532.7159,670.9786 534.6898,675.5046 536.6912,678.4526 537.7351,679.1896 538.7333,679.2674 539.3434,678.9229 540.0923,677.8805 541.0557,674.739 541.4836,670.3167 541.3857,664.1034 540.0271,650.0395 536.6475,631.5008 532.3249,613.577 526.2847,593.0652 519.6687,573.548 512.021,553.7773 503.2438,533.0808 494.7454,514.9769 483.7234,493.9414 473.3042,475.9576 461.272,457.6767 451.9285,445.32 447.8358,440.9729 444.4858,438.2171 443.2483,437.5719 442.1483,437.4102 441.4799,437.8588 441.2336,438.6888 442.0259,442.9818 444.9299,450.6557 452.303,466.4721 462.0019,485.8141 474.0631,511.1547 483.9016,533.7896 492.2151,555.4639 502.3315,586.523 508.7951,609.7825 521.315,657.0809 526.3817,673.5359 528.446,679.321 532.4815,688.5053 536.1465,694.668 537.8531,696.7534 539.3056,697.838 540.758,698.247 542.1251,697.9947 543.081,697.3419 544.0309,696.0885 545.3611,692.5972 546.125,687.875 546.4292,681.0036 546.2319,673.769 545.5433,665.6146 542.4517,645.119 538.1415,625.4313 531.463,601.4853 524.1565,579.0341 515.9653,557.2866 505.6085,532.7302 494.9638,510.1437 482.377,486.2853 469.9652,465.119 463.6357,455.3298 456.9967,445.7789 450.7622,437.5118 445.125,430.7897 439.9043,425.4889 435.939,422.4348 434.6521,421.8587 433.5164,421.7986 432.8031,422.4114 432.5501,423.4381 432.7371,425.5827 433.6576,428.9666 437.3484,438.0667 443.2198,449.9498 457.9263,477.7969 470.2087,502.1435 480.4101,524.7156 487.3938,541.9828 494.7598,562.6451 502.434,588.2814 506.9137,605.6951 512.2776,628.8709 520.3755,666.4412 525.0239,684.7074 529.1348,698.5933 531.4688,705.0312 534.5,712.125 536.4658,715.9664 538.7454,719.5725 541.3215,722.8637 543.3315,724.5684 545.7136,725.5021 547.8397,725.2999 549.1328,724.498 550.3915,723.0677 552.2523,719.1869 553.6096,713.3155 554.3964,705.6201 554.5227,697.1151 553.9984,687.0624 552.8581,675.8338 551.1125,663.7864 548.9593,652.1185 546.2334,639.7938 542.6928,625.6733 538.694,611.318 530.1518,584.5274 519.8474,556.8345 508.1123,529.022 495.6208,502.8796 480.2646,474.3358 472.4176,460.9479 464.9197,448.9347 457.1649,437.3808 449.3479,426.6156 441.9942,417.3535 435.119,409.6154 428.6743,403.472 423.5938,399.8281 421.9407,399.1841 420.532,399.2125 419.75,399.875 419.3575,401.2474 419.6909,404.1785 421.0954,408.5987 423.7589,414.9872 426.7321,421.0816 437.8217,441.1528 457.7659,475.8966 469.1299,497.3642 480.1467,520.826 488.1769,541.0957 492.7911,554.5715 498.2315,572.6327 500.625,582.0 505.0863,602.1419 508.0476,618.6264 511.2538,639.628 520.3336,705.1503 523.2619,720.5837 527.9236,739.4203 531.0084,749.2635 534.1007,757.0535 537.7329,764.6514 541.8381,771.0784 545.7656,775.8082 549.5491,778.6849 551.8264,779.7365 553.7766,780.2513 555.7758,780.2707 557.4636,779.8491 559.4689,778.7776 561.4023,777.0451 563.1637,774.6896 564.7559,771.7969 567.4059,764.5333 569.2319,755.4691 570.2409,744.2125 570.4326,731.2043 569.7563,717.0443 568.2508,702.2354 565.8304,685.794 562.6678,668.7287 558.8388,651.3765 554.3359,633.6884 549.2002,615.8504 543.2403,597.1872 536.6362,578.2591 529.6122,559.6666 521.822,540.5476 513.7618,522.1759 505.2192,504.0569 496.0143,485.7912 486.3475,467.8055 476.3444,450.3597 466.3349,434.0356 456.4545,419.044 445.3496,403.4297 434.4247,389.3164 424.0039,377.1426 414.6642,367.5692 405.709,360.0059 401.7933,357.3916 398.5476,355.7564 395.9691,355.0402 393.8999,355.2421 392.6619,356.3447 392.1441,358.5314 392.7474,362.6589 394.5997,368.0142 397.8938,375.1616 401.7878,382.3295 414.6947,402.7839 446.4348,449.166 459.7716,469.7776 468.1633,484.223 474.5251,496.0772 480.9542,509.5888 485.886,521.1684 491.2508,536.6762 495.4617,551.8066 498.6512,567.4421 500.4014,581.9689 500.8333,588.6438 500.8427,595.3012 500.5782,601.6884 499.9459,607.3965 499.039,612.0386 497.7299,615.822 496.298,618.322 494.75,619.5 492.7919,619.5656 490.2712,617.8845 488.2846,615.5055 486.0776,611.5829 483.4339,605.6913 481.4718,600.2716 476.6959,582.8447 473.3981,566.037 470.4411,544.9492 468.4519,524.3277 467.2778,503.206 466.9178,482.6229 467.3331,461.5243 468.5191,439.7894 470.4639,417.8644 472.899,398.6969 476.1402,379.1794 480.0923,359.9761 484.7006,341.3551 489.7813,324.1422 495.6205,307.4479 501.9656,291.9456 508.8584,277.5129 515.8756,264.9702 523.4016,253.6336 531.2332,243.8091 539.4906,235.3939 543.6381,231.8889 547.7726,228.8765 551.875,226.375 555.8442,224.4304 559.7712,222.9664 564.0209,221.9021 567.8012,221.4226 571.8465,221.4228 575.4018,221.8942 579.1562,222.9218 582.7239,224.4729 586.0811,226.5372 589.1286,229.0117 592.161,232.1319 594.7415,235.4173 597.2943,239.3868 601.471,248.1098 604.7513,258.5057 606.9787,270.3428 608.1563,283.1326 608.3102,296.9213 607.4161,311.5153 605.4672,326.8184 602.4788,342.9558 599.3652,356.3068 595.5859,370.1547 590.7336,385.8961 585.2332,402.1067 575.1793,428.8756 556.5005,474.5702 544.1029,506.0476 535.98,528.8371 530.1036,547.4973 522.946,575.0112 520.1379,588.1943 517.7143,601.5475 515.741,614.168 513.3682,632.5091 508.2408,677.9661 505.6609,693.5623 504.0617,700.2032 501.7539,705.9941 499.6131,709.0067 498.3525,709.9921 496.9827,710.5898 495.6343,710.7966 494.0245,710.4934 490.75,708.375 487.584,704.819 483.7567,698.9409 480.1551,692.0183 476.1571,682.8009 472.4353,673.1068 468.946,662.4628 462.2865,637.9813 457.2078,613.7527 452.023,581.2315 448.7826,552.5741 446.7807,524.0202 445.8199,494.3713 445.9665,466.1676 447.1689,438.082 449.4788,409.5394 452.8362,381.6714 457.165,355.1646 462.5513,329.2864 468.7977,304.8108 475.8824,281.6847 483.6945,260.2244 492.4155,240.0411 502.1729,220.9759 507.2395,212.2684 512.4688,204.0325 517.845,196.3034 523.138,189.382 528.7558,182.7484 534.2517,176.9451 540.11,171.4831 546.1196,166.6071 552.1572,162.4113 558.1935,158.897 564.1992,156.0656 570.1452,153.9184 576.0022,152.4567 582.0743,151.6576 587.656,151.6115 593.0592,152.2549 598.3843,153.6293 603.4664,155.6719 608.3122,158.3418 613.1852,161.828 617.7567,165.9431 622.0088,170.6464 625.4813,175.2522 628.882,180.603 631.9551,186.3727 634.6857,192.5271 637.0595,199.0287 639.1859,206.1515 640.9578,213.5369 642.4437,221.5206 644.3196,238.1007 644.7985,255.6471 643.9096,273.4779 641.6119,292.7398 637.8707,313.1288 632.7245,334.0005 626.3365,354.7538 617.9459,377.9303 609.6656,398.128 600.3766,418.6611 589.2873,441.6128 563.6563,492.9602 551.2713,519.5127 545.3609,533.7773 540.2609,547.6042 536.1436,560.5273 532.4291,574.2899 528.8935,591.6481 527.4717,601.442 526.6428,609.6147 525.779,629.7096 525.9367,638.5308 526.5021,647.8881 527.5239,657.2559 529.1176,667.3216 530.8649,675.4422 532.9246,682.7463 535.1819,688.4892 537.8147,693.4524 540.0903,695.7362 541.4828,696.2357 542.4576,696.1088 543.3704,695.474 544.2097,694.3161 545.3755,690.989 546.0891,685.646 546.2806,679.2875 545.9566,671.7912 545.0557,662.6832 542.0144,643.6236 536.8453,621.1937 530.6725,599.2249 523.6817,578.3766 514.4912,554.1345 504.9796,531.7548 493.8748,508.5149 482.4245,486.7107 471.5242,468.1852 458.0351,447.8329 452.0423,439.7617 446.4604,432.9852 441.5522,427.7324 437.5405,424.3281 436.0157,423.4697 434.7278,423.1524 433.8181,423.4315 433.3828,424.317 433.5169,426.7142 434.4126,430.1565 438.3251,439.8603 443.8002,451.0632 461.3498,484.4415 468.5901,498.8635 479.1309,521.6474 487.8284,543.1814 491.4126,553.021 497.8261,572.2847 504.2963,595.0362 511.176,623.3276 521.0994,667.919 524.6141,681.6718 528.604,695.1439 533.8359,708.6352 536.0185,713.0545 538.4379,717.0495 540.6241,719.8792 542.8972,721.8101 545.4157,722.8311 547.3131,722.5876 548.6077,721.71 549.5938,720.5674 551.5,716.5 552.869,710.3873 553.6055,702.6508 553.6428,694.9061 552.9801,683.5502 551.8238,672.6045 550.1596,661.4742 547.9846,650.1204 544.869,636.243 537.8188,609.8733 529.5098,584.2334 518.9569,555.9304 507.4067,528.61 494.8643,502.4673 480.7178,476.0596 473.5379,463.773 466.4764,452.4353 458.3505,440.222 450.5428,429.3007 443.226,419.9099 436.6651,412.3808 430.2037,406.0046 425.4155,402.3844 423.4488,401.4895 422.0,401.375 421.1186,401.9109 420.6672,403.275 420.893,405.785 421.8293,409.1933 425.7882,418.7153 435.6595,437.2677 455.337,471.8662 466.1515,491.9408 478.5282,517.5506 488.6972,542.6841 492.9556,555.2742 497.5662,570.6729 501.6924,586.6014 504.8614,600.5767 510.5542,632.6993 519.9377,696.3828 523.5028,715.4231 527.7438,732.3796 531.75,744.5 534.0423,750.4252 537.9116,758.4966 541.264,763.999 545.2696,768.8112 548.9921,771.768 551.1228,772.7163 552.9098,773.1068 554.6785,773.1112 556.4117,772.6959 558.5035,771.5183 560.3018,769.813 562.0134,767.4211 563.3707,764.7835 565.8741,757.1317 567.5092,747.9763 568.3049,737.178 568.2456,724.5329 567.4245,710.3515 565.8593,695.6652 563.6492,681.048 560.5853,665.1494 556.6212,647.6404 552.0662,629.9904 547.15,612.9499 541.6357,595.652 535.654,578.5494 528.9373,560.8203 521.3356,542.1698 513.3373,523.8699 505.0461,506.1351 496.5568,489.1552 487.0682,471.4272 477.2934,454.2728 467.3235,437.8631 457.5008,422.7663 447.2031,408.1473 436.6408,394.503 426.4035,382.492 416.9869,372.7263 408.8119,365.6659 405.0414,363.0963 402.0605,361.5156 399.683,360.745 397.6413,360.8021 396.3535,361.8125 395.7835,363.6957 396.1877,367.7612 398.2448,373.7276 401.8858,381.3146 407.5426,391.4233 418.1494,408.2053 448.375,453.25 458.1412,468.7939 465.8186,481.922 472.7762,494.9436 478.6288,506.8236 483.6456,518.2111 488.0408,529.393 493.2092,545.5506 497.4615,562.4643 500.1365,578.2389 501.734,595.0058 501.9973,601.9208 501.875,610.3438 501.4865,616.1089 500.6436,622.1859 499.5588,626.8042 497.9359,631.0648 496.4407,633.3426 494.7162,634.4689 492.5993,634.3491 490.0723,632.7484 487.8261,630.0527 485.1148,625.5152 482.7234,620.3457 480.3823,614.112 475.6932,598.176 471.4318,578.5199 468.4333,560.0816 465.9041,536.9695 464.113,511.886 463.5049,490.7044 463.664,468.0974 464.5535,445.7873 466.1937,424.6344 468.6681,403.1132 471.9663,381.5395 475.9553,360.8013 480.5865,341.2053 485.9288,322.3266 491.7858,304.7708 498.1911,288.3718 505.0483,273.3841 512.6725,259.1979 520.5484,246.7717 528.7549,235.9205 537.1822,226.8393 541.6046,222.8836 545.8994,219.5419 550.1927,216.677 554.8197,214.1139 559.048,212.2495 563.5594,210.7757 567.9751,209.8727 572.2704,209.5434 576.421,209.7906 580.1643,210.5492 584.0494,211.9075 587.751,213.7856 591.2548,216.1609 594.5463,219.0109 597.611,222.3129 600.6587,226.3739 603.4051,230.91 605.6571,235.4939 609.4974,246.2218 612.3135,258.5649 613.9807,272.2441 614.4175,286.235 613.6782,301.356 611.775,317.9402 608.7343,335.2671 605.5266,349.4196 601.4435,364.5904 596.684,380.0693 591.1994,396.0104 577.3255,431.8095 556.5154,481.4407 547.9042,502.7298 539.4448,525.4146 533.5234,543.4145 527.2809,566.0072 522.0898,590.4235 518.4128,615.0778 516.2159,639.6397 515.2911,657.8307 514.9469,677.2201 515.0425,693.6103 515.9466,715.2721 516.8223,727.5215 518.5535,743.6425 520.9537,758.7731 523.7364,771.3467 527.9675,785.1607 532.6551,796.855 536.588,804.3171 541.7797,811.9477 544.6102,815.1677 547.647,818.0006 550.6691,820.2837 553.3735,821.7939 556.2061,822.8232 559.1349,823.2862 561.8875,823.1347 564.279,822.4654 566.9819,821.0217 569.6553,818.7613 571.9711,815.9949 574.1294,812.5745 576.0864,808.5666 577.9166,803.7234 579.4646,798.368 580.7191,792.6113 582.4225,779.8393 583.1735,764.2719 582.8604,747.4511 581.5284,729.7324 579.2192,711.2183 575.7683,690.6744 571.434,669.5917 566.2545,648.133 560.4388,627.0571 553.8764,605.8838 546.475,584.3485 538.1201,562.0607 528.8211,539.1711 518.9398,516.6485 508.5826,494.747 497.8488,473.6969 486.2161,452.5627 474.1213,432.0931 461.7784,412.6231 449.172,394.147 435.9416,376.3101 423.0417,360.572 409.9224,346.1992 397.6326,334.4797 392.0249,329.8622 387.0272,326.2709 382.4875,323.5971 378.5666,321.938 375.4786,321.2566 372.864,321.542 371.1748,322.8565 370.3156,325.4278 370.3639,328.1306 371.0763,331.6469 374.189,339.7442 379.8182,350.2223 388.0782,363.1763 401.3594,381.2969 438.8771,428.2583 455.0979,449.4813 465.5885,464.4601 472.5171,475.3486 477.5756,483.9658 483.0935,494.7736 487.8383,505.2447 491.2828,514.4235 494.0674,523.424 496.1989,533.5693 497.1124,540.9395 496.8941,547.2544 496.2649,549.1348 495.2366,550.1191 494.0921,549.6192 493.1322,548.3228 490.4643,541.6363 488.2321,532.5864 486.2975,521.3941 484.9558,508.7618 483.9504,493.8587 483.5902,479.7294 483.728,464.4868 484.2947,450.8482 485.3272,436.8865 486.8099,422.6964 488.6739,408.9093 490.883,395.865 493.5676,382.7225 496.6309,370.0318 499.9168,358.3497 503.6004,347.0502 507.7951,335.8346 512.3172,325.2602 517.0283,315.6404 521.7065,307.4141 526.8091,299.7642 532.0496,293.1817 537.1177,287.9741 542.5522,283.6362 547.9986,280.5539 553.252,278.8424 558.201,278.5319 560.7095,278.9573 562.9907,279.7191 567.2107,282.1959 570.9187,285.8976 574.0481,290.7685 577.1774,298.6449 579.411,308.2221 580.5596,318.5848 580.6862,330.254 579.7985,343.2719 577.9359,357.0819 574.966,372.5667 571.1554,388.3905 564.1995,411.9295 555.4427,438.0371 515.7576,544.8354 510.9544,556.2958 506.948,564.1365 503.1873,569.2223 501.4043,570.6904 499.776,571.437 498.0125,571.4646 496.2379,570.6644 494.2946,568.9541 492.4866,566.4228 490.6786,562.9617 489.018,558.9149 486.0174,548.6714 483.4844,536.6497 481.5255,522.3053 479.9086,504.806 479.1647,487.3442 479.0915,469.063 479.5336,453.8111 480.6438,437.3957 482.426,420.2096 484.7701,403.2682 487.733,386.47 491.2131,370.3679 495.2245,354.8655 499.401,341.2216 504.103,328.139 509.4241,315.4175 514.9809,303.9882 520.6731,293.9728 526.4386,285.4391 532.641,277.7971 538.9138,271.5322 545.5162,266.4976 551.7264,263.2935 554.7692,262.2781 558.114,261.6013 560.998,261.4123 564.1195,261.6622 566.7656,262.2943 569.2722,263.3109 571.7882,264.8053 574.3818,266.8824 578.5883,271.7101 582.2919,278.1921 585.25,286.375 587.4622,296.9065 588.5938,308.1135 588.7135,320.0876 587.7452,333.8222 585.7779,348.7526 583.011,363.4618 579.1145,379.6934 573.55,399.0962 566.434,420.623 558.5377,442.6551 531.8779,513.984 523.3319,538.9951 513.0116,571.0826 509.0045,582.4129 506.1752,589.2509 503.2527,594.7271 500.1635,598.6586 497.6443,600.1984 495.6869,600.3142 493.4786,599.2587 491.2072,597.0312 489.2509,594.2145 487.1152,589.9342 484.922,584.3577 481.344,572.274 477.8135,555.5538 475.1141,537.5057 473.1992,517.967 472.1797,497.9338 471.943,477.55 472.3976,456.9868 473.5775,437.2366 475.4704,417.6876 478.1264,397.9244 481.2556,380.0174 485.2316,361.7248 489.9605,343.6706 495.1603,326.8707 500.5822,311.9836 506.7072,297.7145 513.3474,284.5277 520.3909,272.6551 527.5983,262.5025 535.1093,253.9278 542.7448,247.0628 546.5551,244.2971 550.6203,241.8315 554.6193,239.9103 558.25,238.625 561.7941,237.8176 565.6288,237.4605 569.3372,237.6569 572.9009,238.3913 575.9695,239.4994 579.2078,241.2131 582.2483,243.4198 585.0726,246.104 587.6852,249.267 590.0947,252.8963 592.2576,256.9191 594.3059,261.6587 597.2215,271.0626 599.1581,281.4982 600.1958,293.6167 600.2775,306.6819 599.4813,319.4065 597.8169,332.7527 594.9885,348.5317 591.2802,364.8348 585.0973,386.8223 576.9138,411.3508 562.3477,449.7707 542.9993,499.1586 537.6771,513.8314 531.1163,533.2798 526.6276,547.9307 520.6488,569.5266 516.072,588.6731 509.5339,618.9374 505.875,633.875 503.4405,641.5836 501.2344,646.5879 498.934,650.084 496.3147,652.0541 493.8214,652.2136 491.1633,651.0437 488.4138,648.3101 485.5626,644.1935 482.62,638.3964 479.4741,630.68 476.9839,623.5263 474.4169,614.7957 469.4867,594.1627 465.5653,571.7021 462.2569,545.4279 460.3029,519.7071 459.4642,494.8269 459.5236,469.739 460.546,444.8357 462.4919,420.1549 465.3889,395.4322 468.923,373.1069 473.536,350.3183 479.0771,328.1241 485.2545,307.588 492.1043,288.496 499.6215,270.9068 508.0266,254.2799 517.03,239.2929 526.2924,226.4875 530.8958,221.0401 535.5898,216.0865 540.3357,211.6549 545.4288,207.512 550.5257,203.9814 555.5981,201.0725 560.6176,198.7949 565.5557,197.158 570.384,196.1713 575.1311,195.8414 579.9225,196.1704 584.5386,197.1516 588.957,198.7616 593.1555,200.977 597.112,203.7746 601.0764,207.4115 604.4589,211.3434 607.5309,215.7856 610.5127,221.1658 613.0615,226.8271 616.6556,237.4634 619.2434,249.0587 620.859,261.8333 621.4064,275.2045 620.9502,290.1531 619.4485,306.033 616.94,322.2918 613.459,338.8136 609.8718,352.8543 605.6719,367.2188 600.9904,381.4667 595.75,395.875 582.1112,429.8516 552.1128,499.4519 544.3652,519.0706 538.2795,536.062 532.22,555.9051 527.278,575.8831 523.8797,593.7256 521.1851,614.3184 520.1806,626.4769 519.5305,640.0924 519.3783,657.807 519.6652,668.5195 520.5385,683.7506 521.9203,697.7647 523.6508,709.9542 525.9295,722.012 529.2932,735.4311 532.1298,744.3415 535.8582,753.7986 539.9809,761.5501 543.8891,767.0406 546.056,769.2473 548.5369,771.2021 550.6799,772.3935 552.5058,772.9414 554.7498,773.0182 556.6074,772.5418 558.4027,771.5231 560.3713,769.6397 562.1375,767.1538 563.6359,764.2191 565.9123,757.165 567.4581,747.9844 568.2876,736.8663 568.2827,724.1473 567.4374,710.5247 565.7605,695.3197 563.4468,680.0923 560.4279,664.2203 556.8468,648.4045 552.4959,631.6781 547.3214,613.8086 541.4946,595.5367 535.1952,577.4537 528.5072,559.7727 520.914,541.2467 512.6492,522.444 503.9318,503.8714 495.0227,486.0918 486.3789,469.9326 477.5638,454.5332 467.9172,438.8233 457.8978,423.52 447.129,408.207 436.589,394.4271 426.6146,382.6683 417.2828,372.9723 408.7337,365.5604 405.2506,363.1556 402.1282,361.501 399.4784,360.7404 397.624,360.8914 396.4326,361.8248 395.8339,363.8176 396.3504,368.1595 398.3363,373.981 401.6757,381.0032 406.6882,389.9282 418.5627,408.8979 451.0561,457.5149 459.2503,470.778 466.7575,483.7043 472.475,494.3494 479.2261,508.0563 483.6213,517.936 487.2706,527.3917 492.702,543.5897 496.6947,559.1443 499.5651,574.6002 501.4302,590.5599 501.9579,605.783 501.4963,614.7778 500.8535,620.8319 499.8311,626.0768 498.5129,630.0451 496.6369,633.2404 494.7951,634.5383 492.624,634.519 490.1556,632.9023 487.7798,630.1152 485.3911,626.0143 482.6607,620.0756 480.2719,613.6909 475.0983,595.8183 471.3074,577.7494 467.8116,555.1029 465.6249,534.4455 464.1497,511.6916 463.4773,489.7914 463.6123,467.8881 464.5531,445.669 466.2965,423.4519 468.7665,402.1913 472.0709,380.805 476.104,360.013 480.8898,339.7358 486.1149,321.3459 492.0425,303.8331 498.6695,287.1546 505.7526,271.892 513.1992,258.1799 520.8981,246.1893 529.2014,235.3741 537.7322,226.2808 546.3476,219.0586 550.7719,216.1173 555.0737,213.7737 559.4415,211.912 563.7512,210.5826 567.9828,209.7769 572.4869,209.485 576.4913,209.7463 580.3565,210.5046 584.0625,211.7514 587.9006,213.6583 591.2098,215.8983 594.6798,218.9453 597.6348,222.1898 600.5602,226.1296 603.2134,230.5017 605.5884,235.2749 607.6792,240.4183 609.48,245.901 612.1828,257.7236 613.8349,271.2946 614.3269,285.9259 613.6554,301.4273 611.8,317.7963 608.7844,335.0955 605.5439,349.5302 601.6791,364.0523 597.0853,379.112 591.6575,394.9463 578.8345,428.059 548.0327,502.4844 539.3984,525.7364 532.9862,545.3929 529.4199,557.9231 526.2182,570.6281 521.2202,595.5893 517.9492,619.4473 516.0398,643.069 515.1574,663.0601 515.0016,680.3187 515.3141,699.089 516.248,717.8333 517.4688,733.1445 519.4579,748.7037 521.8326,762.2364 524.92,774.8707 529.1156,787.6349 532.7118,796.0895 537.8583,805.5325 543.625,813.5 546.0753,816.1186 548.7467,818.3646 551.5625,820.2124 554.4676,821.6436 556.95,822.4013 559.1684,822.6724 561.8179,822.49 564.1055,821.8601 567.0169,820.3377 569.5996,818.1781 571.938,815.4217 574.1852,811.8486 576.0973,807.8313 577.8373,803.0259 580.526,791.9405 582.2681,778.7482 582.9624,763.8897 582.5981,747.3441 581.2107,729.1536 578.9169,710.4733 575.7295,691.1131 571.627,670.9942 566.6164,650.2159 560.5874,628.3469 553.7535,606.2089 546.2175,584.1042 537.93,561.9121 528.8416,539.6038 518.7473,516.7466 508.0057,494.1504 496.751,472.0953 485.4853,451.5097 473.9858,431.9495 462.4946,413.8411 450.0977,395.6916 436.3964,377.1721 423.243,360.9634 410.5403,346.9508 399.0118,335.9583 393.254,331.1722 387.7722,327.1741 383.0425,324.3153 379.0714,322.5344 375.6658,321.753 373.1467,322.0635 371.4428,323.4484 370.6239,326.0469 370.6858,328.5534 371.3606,331.9162 374.4075,340.0574 379.3215,349.4849 386.4219,360.7188 394.482,372.1641 404.511,385.5443 442.1136,432.5965 452.7999,446.4979 467.3952,467.3314 471.9257,474.5672 477.9351,485.0291 483.4789,495.6464 487.8252,505.4952 491.535,515.3609 494.3526,524.9238 496.3045,533.8252 497.1957,542.2715 496.7668,548.5559 496.2124,550.281 495.271,551.1 494.157,550.65 492.875,549.0 490.7275,543.5242 488.1208,533.6438 486.0048,520.8663 484.6971,509.3336 483.7816,495.2649 483.3551,480.7118 483.4688,465.9708 484.0322,451.5953 484.9894,437.5585 486.3949,423.8657 488.2565,410.1168 490.6052,396.153 493.2547,383.1049 496.3835,370.081 499.9761,357.2719 503.7676,345.5974 507.7383,334.9997 512.1653,324.7333 517.0644,314.8655 522.0246,306.2227 527.1276,298.6193 532.2623,292.2415 537.4737,286.9475 542.9354,282.6168 548.4086,279.57 553.6115,277.9684 558.5509,277.7175 563.1375,278.7876 567.2822,281.149 571.0445,284.8777 574.3353,289.9274 575.9715,293.4199 577.504,297.6756 579.6176,306.8352 580.8601,318.0284 581.0328,329.739 580.1053,342.8112 578.0934,357.7955 575.3438,372.1937 571.5667,387.6437 565.0983,409.9212 555.1353,439.4217 514.7195,548.2666 510.5102,558.4146 506.4472,566.0984 502.8365,570.7605 501.2831,571.9531 499.722,572.6 497.8218,572.6892 496.0,571.8594 494.1782,570.1545 492.3125,567.6047 489.0312,560.4746 485.9069,550.2049 483.1196,536.5346 481.1482,522.9908 479.6845,506.1939 478.772,487.5566 478.6995,471.3277 479.2548,454.1684 480.3523,437.4913 482.0831,420.3922 484.4371,403.132 487.2972,386.5119 490.508,371.5482 494.3523,356.6842 498.7524,342.1638 503.6945,328.0635 508.4029,316.5372 513.6988,305.3952 519.7,294.5914 525.759,285.3563 531.9918,277.4863 538.2948,271.0997 544.9202,265.9437 551.4021,262.4463 554.5365,261.3474 557.7431,260.6606 560.8287,260.4229 563.8168,260.6136 566.6905,261.2243 569.4332,262.2467 572.3411,263.8784 574.7495,265.7476 576.9744,268.0021 579.0381,270.6644 582.7387,277.2289 585.8542,285.8197 587.9588,295.6726 589.0916,307.234 589.2205,319.9109 588.3502,333.1792 586.4993,347.1158 583.625,362.3906 579.8345,378.2641 574.4004,397.2702 567.6882,417.8117 559.0767,441.7792 533.5909,509.8916 524.213,537.1065 509.1195,583.4313 506.024,591.148 502.8684,597.1056 500.3512,600.4088 499.074,601.452 497.6623,602.1087 495.4936,602.1961 493.2782,601.2069 491.0122,598.8979 488.7366,595.5189 486.9589,592.0056 485.0489,587.192 480.9153,573.7792 477.5943,557.7098 474.6745,538.7707 472.8248,519.7557 471.6636,498.3859 471.404,478.7556 471.8958,458.1912 473.0906,437.9633 475.0202,417.7407 477.6477,398.0121 480.9072,379.1292 484.7574,361.2458 489.2618,344.0036 494.454,327.211 500.142,311.4835 506.0674,297.4254 512.54,284.4172 519.6633,272.3047 527.1151,261.6807 534.75,252.75 542.1724,245.9248 546.2407,242.9306 550.2917,240.4554 554.301,238.5029 558.2442,237.0768 562.0967,236.1807 565.8343,235.8183 569.329,235.9787 572.8371,236.6564 576.1962,237.8302 579.6996,239.6718 582.6925,241.8258 585.753,244.6995 588.5498,248.0771 590.8449,251.5637 592.9251,255.5033 594.8897,260.1159 597.84,269.631 599.8566,280.1598 600.9396,291.5075 601.0986,303.9698 600.3524,317.4273 598.6991,331.4754 596.2236,345.5903 592.5541,361.7562 585.7397,386.2244 576.9789,412.3991 567.4331,437.9449 545.258,494.1988 537.6805,514.8102 532.8811,528.924 526.4519,549.5215 520.0222,573.6269 515.5385,592.9269 509.1505,623.7052 505.768,638.435 503.2348,646.3445 501.3194,650.7183 498.943,654.4264 496.4517,656.3355 493.8812,656.6301 491.047,655.42 488.569,652.93 485.5894,648.5266 482.6461,642.8367 479.3111,634.8811 476.5203,627.1502 473.9128,618.488 468.9198,597.6387 465.0705,575.8691 461.4711,547.811 459.489,523.1862 458.5207,497.8354 458.4474,471.4529 459.3201,447.2859 461.1272,423.0067 463.9171,398.2271 467.5591,374.3436 472.0862,351.5277 477.5593,329.259 483.7865,308.2325 490.786,288.3477 498.3798,270.1724 506.5231,253.6756 515.2651,238.7185 524.5018,225.5608 529.2733,219.7379 533.9916,214.5988 538.9403,209.8214 543.9243,205.608 548.9196,201.9653 554.2331,198.7162 559.5028,196.1319 564.6995,194.2205 569.7938,192.9902 574.7567,192.4489 579.4579,192.5925 584.0455,193.3771 588.4492,194.7671 592.9646,196.913 597.2218,199.7022 601.1978,203.1041 604.8692,207.0882 608.2128,211.6239 611.2056,216.6808 613.902,222.3767 617.7721,233.3005 620.5873,245.2492 622.3992,258.4069 623.1219,272.1936 622.7448,287.6163 621.3344,303.4692 618.859,320.0687 615.383,336.8498 611.5829,351.5562 607.035,366.788 601.7454,382.537 595.6554,399.0289 582.8576,430.4895 552.5269,500.0188 545.3435,518.1263 538.9749,535.7501 533.0462,554.921 528.2067,574.1466 524.4961,593.3587 521.8673,612.9066 520.8359,624.9175 520.2042,639.3212 520.1334,652.3247 520.4908,666.7513 521.7214,683.8758 523.0018,695.2662 524.6556,706.6305 527.5008,720.6692 529.7585,729.3371 533.189,739.9012 536.6496,748.0221 540.3263,754.9061 543.9578,759.8033 547.893,763.3236 549.9663,764.4031 551.7139,764.8802 553.4602,764.9349 555.2388,764.5043 556.9468,763.508 558.6033,761.8903 560.1725,759.6151 561.6182,756.6465 563.8394,749.3717 565.3534,740.0409 565.9966,729.4692 565.8177,717.7005 564.912,704.047 563.2621,689.5452 560.9764,675.1005 558.0558,660.4328 554.1087,643.3835 549.6066,626.2237 544.8868,610.0719 539.6175,593.7018 533.9994,577.7562 527.4009,560.4019 520.1024,542.4899 512.4496,524.9335 504.5289,507.9337 496.4193,491.6673 487.2478,474.51 477.6574,457.6142 468.0969,441.7765 458.6935,427.199 449.0048,413.3012 438.9465,400.1577 429.0595,388.3938 420.1991,379.0463 412.2581,372.0555 408.6616,369.5577 405.6996,367.9631 403.3713,367.2237 401.6532,367.2805 400.5217,368.0743 399.9113,369.8533 400.3136,373.8317 402.2214,379.4672 405.7923,387.1103 410.8512,396.3993 420.5767,412.1959 449.0336,455.9251 460.1643,474.1465 467.7878,487.6169 474.8187,501.2589 480.2561,512.8371 485.8082,526.3546 490.345,538.8184 495.48,556.1536 498.8322,571.1355 501.6265,588.3579 503.2962,607.2579 503.3134,624.7197 502.8247,632.3369 502.0649,638.2152 500.6746,644.8768 499.375,648.75 497.2595,652.4426 495.0988,654.0492 494.0836,654.2206 492.6358,653.9542 489.7733,652.1935 487.403,649.3545 484.1162,643.882 481.7241,638.8442 479.1381,632.1234 475.8578,622.3763 473.4775,614.1674 468.9704,594.7128 465.1889,573.0211 462.1249,548.6698 459.9538,523.23 458.9844,500.375 458.855,476.669 459.5362,452.8807 461.0648,429.6767 463.4831,406.2646 466.7574,383.0458 470.7319,360.9535 475.4636,339.8203 480.9,319.7375 487.0425,300.6017 493.6833,282.9911 500.9359,266.5877 508.9345,251.1871 517.4674,237.2387 526.4105,224.9674 535.412,214.8263 539.9789,210.4997 544.7689,206.5423 549.5218,203.1694 554.2711,200.3317 558.9935,198.0306 564.0224,196.1545 568.6147,194.9728 573.4494,194.3056 578.141,194.268 582.3439,194.7985 586.375,195.875 590.4385,197.5739 594.2986,199.7991 597.9448,202.5242 601.3665,205.7225 604.788,209.6657 607.9234,214.0937 610.7596,218.9734 613.2831,224.2716 615.625,230.375 617.5341,236.6435 619.1807,243.5651 620.465,250.7786 621.4347,258.6227 622.2528,274.5601 621.7235,291.0044 619.7998,309.1877 616.4885,328.34 612.9299,343.8611 608.5462,359.7453 603.092,376.9161 596.7428,394.7189 583.6924,427.2324 561.6824,477.5308 551.2144,502.2808 543.9265,520.9043 537.3269,539.602 531.524,559.2063 526.9859,578.0995 523.3309,598.8725 520.9845,619.818 520.1489,632.0729 519.6665,645.3264 520.225,672.063 521.3212,686.7424 522.4506,696.3524 524.464,710.0443 527.3885,724.6984 529.82,733.6148 533.2358,743.9421 537.0723,752.6265 540.739,759.274 544.7958,764.521 548.4646,767.6305 550.514,768.6414 552.2274,769.0927 554.25,769.125 555.8479,768.7029 557.7459,767.6237 559.6122,765.8511 561.1325,763.7311 562.5317,761.0138 564.8934,753.754 566.4916,744.5633 567.2023,734.2697 567.1053,721.4758 566.2371,707.5629 564.6576,693.2396 562.4193,678.6286 559.3673,662.7684 555.5619,645.9931 551.2093,629.1954 546.3118,612.3127 540.9437,595.5718 534.8567,578.2395 528.247,560.8181 520.7815,542.4947 512.9417,524.529 504.823,507.1207 496.4097,490.2461 487.4038,473.3321 477.8602,456.5207 468.1088,440.4299 458.4981,425.615 448.4354,411.2528 437.9846,397.5872 428.1197,385.8777 418.9914,376.2868 411.0,369.25 407.0907,366.4705 403.8941,364.6861 401.3876,363.8387 399.5486,363.87 398.3543,364.7217 397.75,366.625 398.2141,370.6814 400.1874,376.3886 404.0725,384.6007 409.2277,393.9813 420.6082,412.1743 446.9774,451.8725 458.8879,470.9841 466.696,484.4823 473.558,497.3785 478.9427,508.4447 484.3184,521.0371 488.7595,532.691 493.9468,549.3916 497.4158,563.4423 500.6367,582.0606 502.4487,600.3832 502.5313,615.8567 501.9253,624.3113 501.1348,630.6134 499.9881,635.7082 498.6721,639.2866 497.005,641.958 495.1544,643.3692 492.9259,643.5295 490.5737,642.279 487.9221,639.4583 485.3895,635.4953 482.6977,629.9933 480.088,623.5247 477.5938,615.9531 475.0185,606.8026 470.6233,587.8987 466.9776,566.4549 464.2625,544.1149 462.4066,519.6986 461.4517,495.3559 461.3965,474.2671 462.1845,451.3386 463.855,427.5828 466.2152,405.186 469.3786,383.2881 473.3387,361.8895 478.122,340.9446 483.3225,322.0204 489.235,303.9079 495.8872,286.5697 503.2003,270.2687 510.9219,255.5716 518.9296,242.6581 527.1525,231.5779 535.9269,221.8541 540.3758,217.6814 545.1195,213.7733 549.8578,210.4237 554.2921,207.7972 558.6822,205.6958 563.1314,204.0943 567.4868,203.0423 572.1302,202.4956 576.2696,202.5327 580.6376,203.1457 584.8305,204.3414 588.8266,206.1041 592.2984,208.205 595.857,211.0116 599.0569,214.2278 602.1491,218.069 604.9775,222.3422 607.6979,227.3414 609.9644,232.4087 612.0731,238.1839 615.2271,250.321 617.1636,263.9244 617.9398,279.7361 617.4303,296.0762 615.651,313.0361 612.5783,330.6337 609.024,346.3895 604.6766,362.5047 599.8072,378.1035 593.4614,396.2164 582.0294,425.5296 558.3258,481.0333 549.6676,502.0396 541.6474,523.1958 535.0605,542.6979 529.321,563.0589 524.0827,586.453 520.9244,606.2489 518.5654,630.2665 517.8957,643.2466 517.5954,656.6725 517.7037,674.8935 518.3985,690.2466 519.9561,707.4056 521.5292,719.6197 523.5928,732.4137 526.4074,745.423 529.8872,757.1583 533.2963,766.2546 537.542,775.2542 541.8881,782.1093 546.4214,787.4806 548.8419,789.4859 551.0414,790.8304 553.625,791.875 555.688,792.256 557.799,792.163 559.916,791.542 561.997,790.339 564.1572,788.3221 566.0175,785.7796 567.7967,782.4477 570.568,774.5539 572.6146,764.2451 573.7523,752.2655 573.984,738.719 573.31,724.1113 571.7454,708.3423 569.3279,691.4577 566.147,673.9913 562.2028,655.9107 557.5471,637.4668 552.1111,618.4268 545.8966,598.8074 538.9951,578.9218 531.6224,559.3729 523.7289,540.0153 515.3774,521.0332 505.9895,501.1861 496.182,481.8078 486.079,463.1162 475.8042,445.329 465.4815,428.6641 455.22,413.2883 443.5468,397.0298 432.0755,382.3343 421.1199,369.6297 411.2408,359.5631 401.1695,351.052 397.0103,348.2453 393.535,346.4349 390.7382,345.5696 388.4551,345.643 386.9692,346.7033 386.2317,348.8228 386.6589,353.2066 388.7645,359.4441 392.3414,367.0267 397.295,375.8175 403.8573,386.2325 412.5543,399.1226 443.3011,442.1205 457.6594,463.2561 466.3406,477.2976 472.5256,488.0654 477.9935,498.8205 483.569,510.815 488.1903,522.4389 492.9498,536.9341 496.1644,550.2498 498.1295,561.2825 499.3503,575.2872 499.0304,585.7475 498.4363,590.1858 497.5324,593.6921 496.2917,596.2292 494.7966,597.5419 493.0009,597.4963 490.969,596.0348 489.1798,593.5832 487.0703,589.4912 485.0858,584.6324 483.1648,578.7666 479.579,564.514 476.7842,548.2725 474.4017,528.9214 472.9697,509.7952 472.2247,488.9086 472.2593,470.9676 472.9653,452.032 474.3787,431.9945 476.2997,413.728 478.9364,395.5049 482.241,377.419 486.2361,359.3646 490.4604,343.4208 495.4146,327.7772 501.121,312.4136 507.3589,297.9863 513.7744,285.2492 520.5188,273.9673 527.5956,264.0445 534.8641,255.629 542.184,248.869 546.1575,245.9274 549.9335,243.6137 553.6759,241.7782 557.3658,240.4178 560.9847,239.529 564.5138,239.1087 567.9343,239.1534 571.5492,239.7359 574.6811,240.7465 577.9494,242.3712 580.7559,244.2891 583.6497,246.8564 586.0939,249.5827 588.5651,252.986 590.7959,256.7845 592.773,260.949 595.8832,270.0806 598.0802,280.5434 599.3106,291.8877 599.5922,304.3067 598.8279,318.2992 597.128,332.9391 594.5431,348.017 591.0048,363.7874 584.3011,387.4825 574.8603,415.5347 565.9926,439.4987 544.391,494.6638 535.2187,520.0258 530.3947,534.4255 524.9083,552.4791 519.6663,571.8003 507.8791,622.4203 504.3457,635.1211 502.3178,640.196 500.3795,643.7967 498.347,646.38 496.1389,647.7917 493.4937,647.8552 491.1228,646.5789 488.1615,643.4503 485.5539,639.469 482.6058,633.6103 479.9456,627.1765 477.4531,619.6874 474.7736,610.2823 470.2703,591.4401 466.3171,568.4264 463.2888,544.0268 461.308,518.5576 460.4176,494.9034 460.4254,471.8393 461.3324,447.9314 463.1335,423.9846 465.7146,401.1193 469.1367,378.7489 473.4377,356.5487 478.4833,335.2414 484.1228,315.358 490.3317,297.0525 497.4604,279.2683 505.1245,263.005 513.1928,248.4513 521.7405,235.5058 530.4945,224.5865 534.9691,219.8096 539.7656,215.25 544.5828,211.2355 549.3972,207.78 554.1855,204.8973 558.9243,202.6013 563.2963,200.9954 568.0273,199.8361 572.6617,199.2958 577.1767,199.3563 581.5495,199.9996 585.7575,201.2079 589.7778,202.963 593.895,205.4605 597.4514,208.2971 600.75,211.625 604.0124,215.7286 606.9667,220.3066 609.4556,224.9965 611.8096,230.3883 615.4827,241.8427 617.9775,254.4003 619.3538,268.5495 619.567,283.85 618.6147,299.9059 616.5276,316.4885 613.2143,334.0767 609.6267,349.0492 605.3038,364.3812 600.0891,380.644 593.9961,397.7498 583.0362,425.293 550.5104,501.435 543.4341,519.7137 537.2685,537.5093 531.0437,558.1416 526.1643,578.4523 524.1557,589.1077 522.0,603.0 520.1373,619.476 519.0256,634.3287 518.5201,648.643 518.5213,659.82 519.0316,678.4329 520.203,694.609 522.0213,710.794 523.504,719.9568 526.2115,733.4219 529.4739,745.4984 532.7434,754.9141 536.7044,764.0243 541.2471,771.9021 545.2109,776.942 547.525,779.0023 549.9164,780.6132 552.1795,781.6884 553.982,782.1293 556.184,782.1332 558.018,781.6541 560.1747,780.4433 562.1103,778.632 563.8408,776.3002 565.4857,773.2685 568.0698,765.8874 569.9149,756.0373 570.8991,744.417 571.0012,731.4227 570.25,717.625 568.5485,701.3649 566.2334,685.5278 563.1754,668.9484 559.4962,652.3247 555.1838,635.5153 549.7393,616.5825 543.6822,597.493 536.9818,578.1739 529.8414,559.2303 522.194,540.5 514.0038,521.911 505.1714,503.2028 495.7749,484.5732 486.1014,466.6053 476.4584,449.8334 466.7667,434.0918 456.463,418.4597 445.3336,402.7916 434.3927,388.6658 424.1608,376.7505 414.3524,366.7258 405.4885,359.0653 401.712,356.418 398.2856,354.5355 395.5262,353.6133 393.4083,353.6055 391.9993,354.445 391.2758,356.3466 391.6629,360.4142 393.4334,365.9132 396.386,372.5314 400.8587,380.7624 413.6198,401.0353 447.3229,449.9939 460.0122,469.7281 467.2802,481.9616 473.1963,492.8034 479.9171,506.4848 484.9603,518.0794 490.7812,534.375 494.9692,549.072 498.1011,563.3874 499.9824,577.8604 500.456,584.3645 500.5728,592.3171 500.3791,598.5458 499.8508,603.7774 499.0051,608.2516 497.8564,611.9299 496.4414,614.3989 494.6825,615.778 492.7203,615.8385 490.3242,614.2067 488.288,611.601 485.884,607.243 483.7454,602.355 481.756,596.6101 477.4149,580.406 473.9563,562.9128 471.1991,543.5239 469.3181,523.3679 468.1773,501.4815 467.855,481.5765 468.2914,460.9313 469.5018,439.3511 471.4333,417.9104 473.9546,398.2956 477.1641,379.0876 481.0769,360.2142 485.5099,342.5109 490.7309,325.0174 496.5312,308.4844 502.8031,293.146 509.6078,278.8909 516.5875,266.473 523.861,255.5695 531.6572,245.8484 539.6214,237.8243 543.8774,234.2998 547.877,231.475 551.7721,229.1793 556.0586,227.1567 559.8983,225.7966 564.0391,224.822 568.0725,224.3881 571.9769,224.4894 575.731,225.1201 579.3132,226.2747 582.4027,227.7741 585.6736,229.9509 588.7005,232.5679 591.5209,235.6235 594.1253,239.09 596.6926,243.2771 600.6988,252.0704 603.776,262.416 605.8478,274.3077 606.8285,287.0221 606.7723,300.735 605.6563,315.3762 603.4877,331.1336 600.3037,347.5454 597.2791,360.0725 593.5212,373.4701 588.8947,388.313 583.6525,403.6856 572.0615,434.4442 552.1961,483.4512 544.419,503.3475 536.4959,525.4282 530.0503,545.6242 524.132,567.1454 518.4267,593.7773 515.6539,609.7002 512.8825,628.1123 507.9433,665.0114 505.0501,680.246 503.3137,686.4686 501.2642,691.4869 498.9619,694.685 496.625,696.125 495.3155,696.3117 493.9491,696.0717 492.0745,695.1717 490.369,693.9255 487.387,690.5444 483.3655,684.4036 480.2163,678.1832 476.6963,669.749 473.3094,660.5137 469.9589,649.9999 463.8086,626.7922 458.938,602.69 454.5875,573.8437 451.5415,544.9067 449.7947,517.5926 449.058,489.7268 449.373,462.7011 450.7315,435.1423 453.1404,407.5737 456.5227,380.8531 460.8323,355.4223 466.2109,330.3153 472.3004,307.0257 479.2759,284.741 486.8864,264.2841 495.2613,245.297 504.5906,227.3749 514.5834,211.185 519.8906,203.6864 525.1075,197.002 530.4203,190.866 535.6944,185.4254 541.1345,180.462 546.9662,175.8297 552.4769,172.0787 558.3266,168.7456 564.1411,166.0905 569.8903,164.1193 575.5439,162.8378 581.0717,162.252 586.4435,162.3677 591.5067,163.1604 596.5489,164.6443 601.3617,166.7572 605.9323,169.468 610.5259,172.983 614.8131,177.1044 618.7783,181.794 622.4056,187.0139 625.8718,193.0984 628.9198,199.6928 631.5197,206.6568 633.7652,214.1364 635.6821,222.3106 637.1677,230.7959 638.2311,239.5398 638.8817,248.4899 639.1285,257.5939 638.9807,266.7994 638.4124,276.5949 637.4237,286.8939 636.0126,297.5169 632.0515,318.8368 627.7384,336.3177 622.332,354.3835 615.6645,373.7481 607.9053,393.74 600.875,410.25 591.8689,430.0734 566.6954,482.1533 557.6331,501.4993 549.7657,519.4591 543.3476,535.6009 537.806,551.6954 532.8021,569.4361 529.612,583.509 527.1381,598.4194 525.395,615.7477 524.8137,632.8988 525.4891,652.2993 527.6417,670.7451 531.18,687.911 533.1521,694.3235 535.8714,701.4933 538.3397,706.1878 540.8529,709.5058 542.9908,711.0423 544.382,711.3402 545.374,711.1741 546.5033,710.4921 547.4868,709.2864 549.0751,705.5136 550.0963,700.0979 550.5943,692.6938 550.5084,684.8459 549.8564,675.9033 548.5305,665.147 546.7431,654.0923 542.0477,631.9679 535.1492,606.6065 527.0629,581.6667 517.7674,557.003 506.7767,530.9646 495.377,506.9027 481.0879,480.1165 467.3476,456.9701 460.8342,447.0752 453.0816,436.1659 446.1431,427.1879 440.1092,420.1863 434.6834,414.8449 430.1718,411.4612 428.6778,410.7839 427.3343,410.6457 426.4725,411.2139 426.1,412.3199 426.2167,414.4839 427.0858,417.8053 431.2433,427.8963 436.4961,438.1384 456.01,473.7935 468.8797,498.2451 480.1009,522.682 487.5401,541.3524 492.6397,555.6001 497.2689,570.1301 500.8015,582.4509 504.224,596.2608 509.5527,621.2682 521.6003,685.8847 525.6245,703.3492 529.6159,717.5295 532.0962,724.5248 535.7315,733.0347 538.3455,738.1169 540.9318,742.1384 543.6435,745.3941 546.5781,747.7151 549.4951,748.8101 552.1233,748.535 553.8574,747.5219 555.2546,746.1435 556.5576,744.2593 557.7744,741.713 559.648,735.181 560.825,726.9068 561.2549,717.446 560.9628,705.7065 559.9719,693.2585 558.2789,679.8786 555.9431,666.0115 552.9079,651.1036 549.3591,636.0447 545.2971,620.8138 540.9149,606.066 535.9361,590.8623 530.0479,574.2429 523.8604,557.9841 517.3255,541.9435 510.5063,526.2963 503.6293,511.5432 496.0145,496.2273 487.7823,480.6214 479.4388,465.7191 470.9107,451.3973 462.5104,438.2002 453.0006,424.3366 443.7214,411.7934 435.0317,401.0508 427.1649,392.3911 419.4461,385.2564 413.5534,381.1919 411.3978,380.3311 409.5888,380.2297 408.5,380.8871 407.908,382.4205 408.1853,385.7051 409.7404,390.6529 412.6637,397.3998 416.452,404.7411 428.5789,425.4611 444.9343,451.5198 457.3453,472.2607 465.0301,485.8591 473.5366,502.3022 479.5751,515.3774 487.1235,533.9452 490.6404,544.0285 496.0837,562.1796 498.0453,570.0211 501.5834,586.599 504.8982,608.5364 506.804,629.8194 507.6197,652.5315 507.5339,665.6472 506.9659,678.2892 505.0,695.375 503.5386,702.005 501.5434,707.2536 499.625,710.25 498.4284,711.3062 497.117,711.9364 495.6473,712.1405 494.0778,711.8764 490.9314,709.8505 487.5645,706.2515 483.7375,700.3597 480.1451,693.561 476.4649,685.0889 471.8509,672.8864 468.5487,662.7216 464.9945,649.9848 461.3381,635.1616 456.0835,609.5723 451.2215,577.9309 448.0242,548.1503 446.2157,518.6626 445.5072,487.8463 445.8797,458.9598 447.3957,430.2134 450.0985,401.0292 453.9477,372.2882 458.7173,345.4027 464.6512,319.0436 471.4921,294.2329 479.3289,270.5906 487.9574,248.787 492.5488,238.6233 497.3873,228.8333 502.4415,219.4778 507.6903,210.589 513.3327,201.8745 518.913,194.038 524.8546,186.4877 530.6786,179.8379 536.59,173.8189 542.5678,168.4629 548.764,163.6793 554.8472,159.734 560.9233,156.51 567.3381,153.865 573.6759,152.0139 579.9014,150.9462 585.979,150.6514 591.8733,151.119 597.5489,152.3387 602.9704,154.2999 608.0522,156.9585 612.9925,160.3908 617.6157,164.4663 622.1404,169.4187 626.2881,174.9894 630.0467,181.1277 635.1598,191.8531 639.3419,204.0791 642.4421,217.6273 644.4371,232.2637 645.3088,247.7618 645.0642,263.9531 643.7218,280.6395 641.2474,298.0556 637.2736,317.7892 632.0099,337.9714 625.5369,358.3493 617.6224,379.6941 609.0126,400.3775 598.9391,422.4355 587.0041,446.9294 563.3565,493.8947 551.4731,519.1663 545.7405,532.9957 540.2106,548.046 536.4353,559.6934 533.0876,571.982 529.33,589.449 526.7057,608.8802 526.1399,617.7733 525.8612,629.7021 526.5175,645.0569 527.4144,655.3061 528.9479,665.6837 530.487,673.376 532.7297,681.2517 535.0063,687.3706 537.875,692.375 538.8676,693.564 540.2344,694.5625 541.2442,694.8331 542.1998,694.6609 543.7611,693.0676 545.0423,689.5074 545.7152,684.7095 545.8904,678.1718 545.5438,670.6638 544.6782,662.0345 541.4317,641.852 537.125,623.125 529.6968,596.9568 522.8,576.2257 514.391,554.2492 504.9986,532.0824 495.5864,512.1699 482.5956,487.425 470.9241,467.4674 457.5813,447.6069 451.976,440.078 447.0032,434.0412 441.7984,428.6303 437.7511,425.3069 436.2876,424.552 435.1774,424.3764 434.4433,424.7215 434.0082,425.6867 434.0625,427.5781 434.8274,430.7142 438.396,439.7983 470.714,503.3165 480.4738,524.9169 487.7573,542.9567 494.0276,560.435 501.7673,585.5791 508.4561,611.2832 521.3249,667.9727 524.8772,681.5955 529.39,695.9472 533.9905,707.3912 536.102,711.605 538.4476,715.2992 541.0371,718.4092 543.0626,720.0406 545.2548,720.7547 546.9825,720.4727 548.1515,719.7107 549.3523,718.2535 551.1672,714.1386 552.3198,708.6213 552.9675,700.7764 552.9918,692.2582 552.4386,683.0188 551.1711,671.6513 549.424,660.0146 547.3193,648.6842 544.7084,636.8213 537.7657,610.8197 529.3397,584.4382 519.6138,558.3439 507.7814,530.1999 495.4267,504.0849 480.7875,476.7944 466.2679,452.5272 458.9403,441.4882 451.1715,430.7457 443.4377,420.8559 436.7451,413.1565 430.8037,407.3813 426.0932,403.9719 424.3962,403.2531 423.1172,403.1454 422.2404,403.6143 421.7108,404.813 421.8367,407.4937 423.0127,411.585 425.2893,417.1888 428.6759,424.3247 456.4416,474.0384 465.6494,491.1322 471.6835,503.2019 482.9852,528.4015 488.5873,543.1019 492.9403,555.577 499.973,579.5545 505.8397,605.0668 510.1458,628.7175 518.5663,683.3765 521.4865,700.584 525.4993,719.2815 529.75,734.125"/>
  </g>
</svg>
