<?xml version="1.0" encoding="utf-8" ?>
<svg xmlns="http://www.w3.org/2000/svg" xmlns:cc="http://creativecommons.org/ns" xmlns:dc="http://purl.org/dc/elements/1.1/" xmlns:ev="http://www.w3.org/2001/xml-events" xmlns:inkscape="http://www.inkscape.org/namespaces/inkscape" xmlns:rdf="http://www.w3.org/1999/02/22-rdf-syntax-ns" xmlns:sodipodi="http://sodipodi.sourceforge.net/DTD/sodipodi-0.dtd" xmlns:xlink="http://www.w3.org/1999/xlink" baseProfile="tiny" height="27.09333333cm" version="1.2" viewBox="0 0 1024.0 1024.0" width="27.09333333cm">
  <metadata>
    <rdf:RDF>
      <cc:Work>
        <dc:format>image/svg+xml</dc:format>
        <dc:source>vpype read './original_svgs/Strange Attractors #361.svg' linemerge linesimplify write './Strange Attractors #361.svg'
</dc:source>
        <dc:date>2024-08-05T01:35:52.548213</dc:date>
      </cc:Work>
    </rdf:RDF>
  </metadata>
  <defs/>
  <g fill="none" id="layer1" inkscape:groupmode="layer" inkscape:label="1" stroke="black" stroke-width="0.7mm" style="display:inline">
    <polyline points="824.625,614.5 814.5,584.875 810.25,557.625 812.0,530.875 819.375,502.125 831.75,468.75 848.25,428.25 867.625,377.75 887.5,315.5 903.875,241.875 909.875,162.25 897.25,89.375 860.25,41.625 801.5,33.5 732.375,65.375 666.375,123.875 612.75,191.875 574.375,257.0 550.375,313.625 538.625,360.125 536.75,397.625 543.0,427.375 555.375,450.875 572.375,469.25 591.875,483.25 612.125,493.125"/>
    <polyline points="631.25,499.25 647.875,501.625 661.0,500.875 670.375,497.25 676.25,491.75 679.0,484.875 679.625,477.25 678.625,469.5 676.5,461.875 673.75,454.625 670.75,448.0 667.625,442.125 664.375,436.875 658.25,428.625 652.25,423.0 649.25,421.0 646.375,419.625 643.5,418.75 637.875,418.25 635.125,418.625 632.375,419.375 626.875,421.625"/>
    <polyline points="624.25,423.0 619.125,426.5 614.125,430.5 607.375,437.0 599.625,445.75 594.875,452.0 589.75,459.625 586.125,466.125 584.375,470.375"/>
    <polyline points="583.875,471.75 583.0,475.25 582.875,478.25 583.625,481.625 585.5,484.125 588.5,485.875 591.5,486.625 596.5,486.875"/>
    <polyline points="597.875,486.75 604.25,485.75 612.0,483.25 620.875,479.0 628.375,474.375 636.625,468.125 642.375,462.875 648.375,456.625 657.375,445.375"/>
    <polyline points="660.25,441.125 665.875,431.75 670.75,421.5 674.75,410.75 677.125,400.0 677.625,394.75 677.625,389.875 677.0,385.5 675.875,381.5 674.0,378.25 671.625,375.625 668.5,373.875 665.0,373.0 660.875,373.0 656.375,373.875 651.5,375.625 646.375,378.125 641.125,381.25 635.75,385.125 625.125,394.0 620.0,398.875"/>
    <polyline points="614.875,404.0 601.0,419.375 592.875,429.125 548.75,485.625"/>
    <polyline points="547.625,487.0 541.25,495.625 538.625,500.125 537.375,504.125 537.5,506.0"/>
    <polyline points="537.5,506.375 538.75,508.625 540.875,510.5 544.75,512.25 549.25,513.5"/>
    <polyline points="550.125,513.75 556.0,514.75 566.125,515.625 577.375,515.625 585.25,515.0"/>
    <polyline points="587.375,514.75 599.25,512.75 607.5,510.625 613.625,508.625 623.625,504.5 635.0,498.5 647.875,489.75 652.625,486.125 657.375,481.875 662.5,477.25 667.625,471.875 673.125,466.0 678.625,459.25"/>
    <polyline points="684.25,451.75 689.875,443.5 695.625,434.25 701.125,424.125 706.5,413.125 711.375,401.25 715.625,388.75 719.0,375.875 721.25,362.75 722.25,350.125 721.375,338.25 718.75,327.75 714.125,319.375 707.5,313.5 699.125,310.625 689.25,310.75 678.125,313.875 666.375,319.75 654.375,327.75 642.375,337.625 630.875,348.5 620.125,360.125 610.0,371.75 600.75,383.25 584.875,404.75"/>
    <polyline points="578.0,414.375 561.25,438.5 548.625,456.0 545.125,460.625 535.75,471.5 527.75,479.125 520.625,484.375 512.0,489.125 507.875,490.75 501.875,492.5"/>
    <polyline points="500.0,492.875 496.0,493.625 488.25,494.5 478.5,494.625 464.0,493.375 447.875,490.75"/>
    <polyline points="445.375,490.25 426.5,486.0 403.75,480.125 375.125,472.0 354.5,465.75"/>
    <polyline points="348.625,464.0 257.5,435.0 248.75,432.5 241.75,430.875 237.75,430.75 238.125,432.875 244.375,438.0 257.25,446.875 301.875,475.75 330.375,494.625 359.75,514.75 387.75,534.875 412.875,554.0 434.25,571.5 451.75,587.125"/>
    <polyline points="465.5,600.625 475.875,612.125 483.375,621.875 488.625,629.875 492.0,636.375 493.75,641.375 494.375,645.25 494.125,648.0 493.25,649.625 491.75,650.25 490.125,650.0 488.25,648.875 486.375,647.0 484.5,644.5 481.375,637.875 479.0,629.625 477.75,620.375 477.375,610.875 477.875,601.5 479.125,592.5"/>
    <polyline points="479.875,588.25 482.875,576.75 485.25,570.0 490.375,558.75 495.625,550.0 499.375,544.875 504.125,539.5 509.75,534.5"/>
    <polyline points="510.75,533.75 515.875,530.25 521.5,527.375 526.125,525.75 530.875,524.5 534.625,523.875"/>
    <polyline points="535.625,523.75 546.375,522.875 567.5,522.5"/>
    <polyline points="569.125,522.375 580.625,521.75 589.625,520.75 597.25,519.5 608.75,516.75 615.25,514.75 622.25,512.125 634.0,506.625 638.25,504.25"/>
    <polyline points="642.75,501.5 647.375,498.5 657.375,490.875 662.75,486.375 668.25,481.25 674.125,475.25 680.125,468.625 686.375,461.0 692.75,452.375 699.25,442.75 705.75,431.875 712.125,419.875 718.125,406.75 723.75,392.5 728.5,377.5 732.0,361.875 734.125,346.25 734.25,331.25 732.125,317.625 727.5,306.375 720.25,298.0 710.75,293.5 699.125,292.875 686.0,296.25 672.0,303.125"/>
    <polyline points="657.625,312.875 643.625,324.875 630.125,338.125 617.75,352.0 606.375,365.875 596.125,379.375 587.0,392.125 578.875,403.875 546.25,453.5 539.125,463.375 533.0,470.875 527.625,476.625 520.25,482.75 513.625,486.75"/>
    <polyline points="511.5,487.75 505.25,490.125 499.25,491.625 489.25,492.875 477.0,492.875 468.625,492.25 459.875,491.125"/>
    <polyline points="457.625,490.75 450.625,489.625 435.875,486.625 412.125,480.75 394.5,476.0"/>
    <polyline points="392.5,475.5 387.625,474.375 399.25,478.875 416.125,484.625 445.5,494.0 491.25,507.5 520.375,515.25 552.625,522.75 586.25,529.25 618.625,533.375 647.25,534.375 670.25,531.625 686.75,525.375 697.0,516.125 702.375,505.0 704.0,492.75"/>
    <polyline points="703.375,480.375 701.375,468.125 698.875,456.5 693.375,435.625 688.125,418.25 683.0,404.375 680.25,398.75 677.375,394.0 674.125,390.125 670.75,387.125 667.0,385.125 663.0,384.0 658.625,383.625 654.125,384.25 649.375,385.5 644.625,387.5 639.625,390.125 629.75,396.875 620.25,404.875 611.25,413.625"/>
    <polyline points="607.0,418.125 595.375,431.25 582.625,446.75 564.875,469.75 552.5,487.0"/>
    <polyline points="551.75,488.25 548.25,494.5 547.25,497.0 546.625,499.875 546.875,502.875 547.625,504.5 549.0,506.25"/>
    <polyline points="549.5,506.625 551.625,508.125 553.75,509.125 560.0,511.0 565.75,511.875 574.375,512.375"/>
    <polyline points="576.0,512.375 587.125,511.75 596.0,510.375 603.625,508.625 612.125,505.875 618.375,503.5 628.875,498.5 636.5,494.0 644.75,488.25"/>
    <polyline points="649.25,484.75 658.5,476.625 663.375,471.75 668.5,466.25 678.875,453.375 684.25,445.875 689.5,437.625 694.75,428.5 699.75,418.625 704.5,408.0 708.75,396.75 712.25,385.125 714.75,373.125 716.25,361.375 716.375,350.125 714.875,339.875 711.625,331.25 706.75,324.5 700.125,320.125 691.875,318.5 682.5,319.5 672.125,323.0 661.25,328.875 650.25,336.625"/>
    <polyline points="639.375,345.75 628.875,355.875 618.875,366.5 609.5,377.125 593.125,397.875 586.0,407.375 554.875,450.75 544.25,464.25 538.25,471.0 532.875,476.375 525.5,482.5 518.875,486.875"/>
    <polyline points="516.875,488.0 508.875,491.625 503.125,493.375 495.75,494.875 486.625,495.75 479.125,495.75 469.5,495.0"/>
    <polyline points="467.5,494.875 456.875,493.375 440.375,490.125 423.875,486.25 400.5,480.0"/>
    <polyline points="396.625,479.0 360.0,468.5 293.625,448.875 281.25,446.0 277.0,445.5 274.75,446.125 275.125,448.125 279.0,451.875 286.5,457.625"/>
    <polyline points="297.875,465.5 369.875,513.375 407.375,539.5 438.125,561.875 482.0,596.125 490.375,602.375 495.875,605.5 497.75,606.25 499.375,606.5 500.75,606.375 502.75,605.0 505.125,601.125"/>
    <polyline points="505.875,599.5 511.25,586.625 513.0,583.0 516.125,577.75 519.5,573.0 524.375,567.5 526.875,565.125 532.375,561.125"/>
    <polyline points="533.75,560.25 538.125,557.875 544.125,555.375 553.875,552.875 562.875,551.75 577.0,551.25"/>
    <polyline points="579.25,551.25 611.125,551.5 628.5,550.625 640.75,548.875 649.875,546.875 660.125,543.75 665.75,541.625"/>
    <polyline points="671.625,539.0 684.75,531.875 692.125,527.0 700.0,521.125 708.625,513.875 717.875,505.0 728.0,494.125 739.0,480.875 750.875,464.5 763.625,444.625 776.875,420.5 790.375,391.625 803.25,357.75 814.25,319.375 821.5,278.0 822.5,236.5 815.0,199.75 797.5,173.125 770.5,161.375 736.625,166.375 699.75,186.125 663.75,216.375 631.625,251.875 604.75,288.25 583.375,322.625"/>
    <polyline points="567.375,353.375 555.75,380.0 548.0,402.375 543.25,421.0 540.875,436.375 540.5,449.0 541.625,459.25 543.75,467.5 546.75,474.125 550.25,479.375 553.875,483.5 557.625,486.625 561.25,489.0 567.5,491.625 571.875,492.25 574.25,491.625 574.75,491.0 574.375,489.625 573.625,488.875 571.25,487.5 569.75,487.0"/>
    <polyline points="568.0,486.5 564.375,485.875 558.375,485.75 550.375,486.875 546.5,487.75 539.375,490.125 530.0,493.75 524.75,496.125"/>
    <polyline points="523.5,496.625 517.75,499.125 508.875,502.25 502.75,503.625 499.375,504.0"/>
    <polyline points="498.5,504.125 490.75,504.25 487.125,504.0 474.625,502.125"/>
    <polyline points="473.5,501.875 461.625,499.5 432.875,492.375"/>
    <polyline points="430.625,491.75 381.75,478.75 367.5,475.125 353.5,472.125"/>
    <polyline points="350.375,471.625 343.0,471.125 341.625,471.5 340.75,472.125 340.75,473.25 341.5,474.75 343.25,476.75 349.625,482.125 366.125,493.625 380.5,502.75 403.75,516.75 418.625,525.125 438.375,535.375 449.5,540.125"/>
    <polyline points="454.5,542.0 459.0,543.625 467.125,545.75 470.625,546.375 477.125,547.0 485.125,546.625 493.75,544.625 497.375,543.25 502.375,541.125 512.125,536.125"/>
    <polyline points="513.375,535.5 521.5,531.625 528.125,529.25 535.875,527.375 541.75,526.5"/>
    <polyline points="542.875,526.375 549.25,525.75 579.125,524.25 583.5,523.75"/>
    <polyline points="585.75,523.5 598.5,521.625 613.625,517.875 624.25,514.0 636.5,508.25 650.375,499.625 660.875,491.625 666.5,486.75 672.25,481.125 678.375,474.75 684.75,467.5"/>
    <polyline points="691.375,459.25 698.125,449.875 704.875,439.25 711.75,427.375 718.375,414.25 724.625,399.875 730.25,384.25 734.75,367.875 738.0,351.125 739.25,334.5 738.375,319.0 734.75,305.5 728.375,294.875 719.25,288.0 707.75,285.5 694.25,287.375 679.5,293.375 664.25,303.0 649.125,315.125 634.625,329.0 621.125,343.75 608.75,358.625 597.75,373.125 587.875,386.875 571.75,411.25"/>
    <polyline points="565.125,421.625 549.5,446.375 538.25,463.0 532.25,470.75 526.875,476.625 519.875,482.75 513.375,486.75 509.25,488.625 505.25,490.0 495.375,492.0"/>
    <polyline points="493.375,492.25 487.5,492.625 481.5,492.625 469.25,491.875 456.25,490.125 440.5,487.125"/>
    <polyline points="438.125,486.625 409.625,479.875 423.75,484.625 450.125,492.625"/>
    <polyline points="463.375,496.5 479.375,501.0 519.0,510.875 541.75,515.75 565.375,519.875 588.5,522.875 610.0,524.125 628.5,523.375 643.25,520.5 654.125,515.625 661.375,509.375 665.375,502.0 667.0,494.125 666.75,486.125 665.5,478.375 663.375,471.125 661.0,464.5 655.75,453.0 650.875,444.25 646.375,437.75 642.375,433.25"/>
    <polyline points="640.5,431.625 636.875,429.5 633.5,428.5 628.375,428.875 623.5,430.875 617.375,435.25 611.875,440.625 608.25,444.875 604.25,450.375"/>
    <polyline points="603.5,451.75 600.75,456.75 599.375,460.125 598.625,463.125 598.5,465.625 599.25,468.375 600.375,469.875 602.25,470.875 603.75,471.25"/>
    <polyline points="604.5,471.375 608.5,471.125 612.125,470.25 619.25,467.125 624.125,464.125 629.375,460.25 634.875,455.25 638.625,451.25 642.25,446.75"/>
    <polyline points="644.125,444.375 647.5,439.25 650.625,433.75 653.25,428.0 655.375,422.25 656.125,419.375 656.875,413.875 657.0,411.375 656.25,406.875 655.5,405.0 653.125,402.25 651.5,401.375 649.625,400.875 647.5,400.75 645.25,401.0 640.0,402.625 637.25,403.875 634.375,405.625"/>
    <polyline points="631.375,407.5 628.375,409.625 619.25,417.375 610.625,426.0 602.875,434.875 593.875,446.125 586.75,456.0 578.25,469.875"/>
    <polyline points="577.5,471.5 576.0,474.625 574.125,479.875 573.5,484.125 573.75,486.875 574.25,488.375 575.5,490.5 578.125,492.625 580.75,493.75"/>
    <polyline points="581.75,494.125 587.75,495.0 593.875,494.875 601.25,493.625 607.625,491.875 614.75,489.125 620.0,486.625 628.625,481.75 631.625,479.625"/>
    <polyline points="634.75,477.375 641.375,472.125 652.0,462.0 659.25,453.625 666.625,443.625 670.125,438.125 677.0,425.875 680.125,419.25 682.875,412.375 685.25,405.25 687.25,398.125 688.625,391.125 689.25,384.25 689.25,377.75 688.375,371.75 686.625,366.625 684.0,362.375 680.5,359.25 676.25,357.375 671.125,356.75"/>
    <polyline points="665.5,357.5 659.25,359.375 652.75,362.5 645.875,366.625 639.0,371.625 632.125,377.25 619.0,389.875 606.875,403.0 601.25,409.625 586.375,427.875 561.625,459.75 549.5,474.125"/>
    <polyline points="547.375,476.375 538.625,485.5 532.875,490.625 522.875,498.375 517.0,501.875"/>
    <polyline points="516.25,502.375 512.75,504.0 507.875,505.75 503.5,506.625 501.25,506.75"/>
    <polyline points="500.625,506.875 493.625,506.625 484.25,505.125"/>
    <polyline points="483.375,505.0 467.25,501.5 454.75,498.375"/>
    <line x1="453.25" x2="396.875" y1="498.0" y2="483.125"/>
    <polyline points="393.75,482.25 370.375,476.375 357.25,473.625 349.25,472.625 345.875,473.0 345.125,473.625 344.875,474.625 345.5,475.875 346.875,477.625 349.125,479.75 356.25,485.375 366.5,492.5"/>
    <polyline points="372.75,496.5 393.5,509.375 414.75,521.625 434.0,531.5 445.0,536.375 454.5,539.875 462.625,542.25 469.75,543.5 475.75,543.875 481.125,543.75 485.75,543.125 489.875,542.125"/>
    <polyline points="491.75,541.5 497.0,539.625 506.875,534.875 512.625,531.75 522.875,527.375"/>
    <polyline points="523.875,527.0 532.625,524.75 542.0,523.625 550.25,523.25"/>
    <polyline points="551.5,523.25 564.625,523.0 579.25,522.25 590.5,521.0 598.25,519.625"/>
    <polyline points="601.0,519.0 610.0,516.75 620.0,513.375 627.5,510.25 635.625,506.125 644.5,500.875 654.25,493.875 659.5,489.75 670.625,479.5 682.625,466.25 689.0,458.25 695.5,449.25 702.0,439.0 708.625,427.75 714.875,415.25 720.875,401.5"/>
    <polyline points="726.25,386.75 730.625,371.375 733.75,355.5 735.125,339.75 734.5,325.125 731.375,312.125 725.75,301.75 717.5,294.75 707.0,291.625 694.625,292.625 680.875,297.5 666.5,305.75 652.125,316.625 638.125,329.375 624.875,343.125 612.75,357.25 601.875,371.125 592.0,384.5 575.5,408.375 544.375,455.875"/>
    <polyline points="540.75,460.875 537.5,465.25 531.625,472.25 526.25,477.75 521.5,481.75 514.75,486.125 506.375,489.75 500.25,491.375 490.25,492.75 484.25,492.875"/>
    <polyline points="482.25,492.875 474.0,492.625 461.125,491.25 449.625,489.375 424.75,483.875"/>
    <polyline points="422.125,483.25 395.75,476.25 391.875,475.5 400.0,478.625 423.375,486.5 436.625,490.75 474.25,502.0"/>
    <polyline points="498.875,508.875 527.25,516.125 558.0,522.875 589.375,528.5 619.375,531.875 645.5,532.125 666.375,529.125 681.25,522.875 690.625,514.125 695.375,503.625 696.875,492.375 696.25,480.875 694.375,469.625 691.875,459.0 686.375,440.0 681.25,424.375 676.25,412.0 673.75,406.875 671.125,402.625 668.375,399.125 665.375,396.5 662.25,394.5 658.875,393.125"/>
    <polyline points="655.25,392.625 651.5,392.75 647.625,393.5 643.625,394.75 639.5,396.625 631.125,401.75 622.875,408.0 618.875,411.5 607.625,422.75 594.625,437.375 584.125,450.5 574.25,464.0"/>
    <polyline points="572.625,466.25 567.125,474.25 561.0,484.875 559.125,489.5 558.625,491.5 558.375,495.75 558.875,497.75"/>
    <polyline points="559.25,498.5 560.375,500.25 562.0,501.75 564.875,503.375 568.625,504.75 573.25,505.625 578.875,506.125 583.75,506.125"/>
    <polyline points="585.5,506.0 591.125,505.5 597.625,504.375 604.75,502.625 615.75,498.75 625.25,494.25 632.125,490.25 639.625,485.125 647.625,478.875 651.875,475.125 660.625,466.375"/>
    <polyline points="665.25,461.25 669.875,455.625 674.5,449.375 679.25,442.5 683.875,435.0 688.375,427.0 692.625,418.375 696.625,409.125 700.0,399.5 702.875,389.625 705.0,379.625 706.125,369.875 706.125,360.5 704.875,352.0 702.375,344.75 698.375,339.0 693.125,335.125 686.5,333.125 678.875,333.375 670.5,335.625 661.5,339.75 652.25,345.375 642.875,352.5 633.625,360.5 624.75,369.125 616.25,378.125"/>
    <polyline points="608.375,387.25 600.875,396.125 587.75,412.875 563.125,446.125 549.125,463.75 540.75,473.125 533.5,480.0 525.0,486.625 519.375,490.125"/>
    <polyline points="517.5,491.0 509.125,494.75 501.125,497.0 495.125,498.0 489.0,498.5 478.125,498.375"/>
    <polyline points="476.5,498.25 462.625,496.5 453.0,494.75 424.5,488.125"/>
    <polyline points="421.75,487.375 399.375,481.5 342.25,465.75 332.25,463.25 319.375,460.75"/>
    <polyline points="316.25,460.625 314.0,460.875 313.0,461.75 313.5,463.375 315.5,465.875 319.5,469.375 325.25,473.75 352.875,492.625 400.5,523.375 432.25,543.25 449.25,553.25 456.375,557.125 468.375,563.125 473.375,565.125 477.875,566.75 485.5,568.625"/>
    <polyline points="488.75,569.0 494.5,568.875 497.0,568.5 503.5,566.625 510.875,562.875 520.5,556.75 528.0,552.375 534.0,549.5"/>
    <polyline points="535.5,548.875 544.75,545.75 553.0,544.0 567.75,542.25 580.625,541.5"/>
    <polyline points="583.0,541.375 601.625,540.0 614.5,538.25 629.625,534.875 638.25,532.0 647.75,528.25 653.0,525.75 664.25,519.5 677.0,510.625 684.0,505.0"/>
    <polyline points="691.5,498.25 699.375,490.25 707.875,480.875 716.875,469.625 726.375,456.375 736.375,440.875 746.5,422.75 756.5,401.875 766.0,378.125 774.375,351.875 780.5,323.75 783.5,295.125 781.875,267.875 775.0,244.875 762.125,228.375 743.75,220.75 721.125,222.625 696.125,233.5 670.625,251.5 646.375,274.125 624.5,299.0 605.5,324.0 589.5,347.875 576.375,369.625 565.875,389.0 557.5,406.0"/>
    <polyline points="550.875,420.5 542.0,443.375 536.875,459.375 533.25,474.625 531.375,487.875 530.75,489.75 529.875,490.875 528.75,491.625 523.25,492.375"/>
    <polyline points="522.0,492.5 506.0,493.0 492.25,493.0 481.375,492.5"/>
    <polyline points="479.5,492.375 468.125,491.25 458.625,489.875 436.5,485.625"/>
    <polyline points="435.75,485.5 435.125,485.375 438.625,486.625 452.75,490.625 484.125,498.75 507.5,504.0 520.75,506.625 534.75,509.125 548.875,511.125 562.875,512.625 576.125,513.375 588.25,513.25 598.625,512.125 607.125,510.25 613.875,507.5"/>
    <polyline points="618.625,504.125 621.625,500.375 623.25,496.25 623.625,492.25 623.125,488.25 622.0,484.5 620.25,481.0 616.0,475.25 613.75,473.0 609.125,469.625 606.875,468.375 602.75,467.0 599.0,466.625 594.5,467.375 592.0,468.375 588.5,471.375"/>
    <polyline points="587.875,472.125 586.5,474.625 586.0,477.0 586.0,478.5 587.125,481.0 588.75,482.5 591.0,483.625 596.125,484.5 598.625,484.375"/>
    <polyline points="600.125,484.25 604.75,483.5 608.125,482.5 616.0,479.5 622.625,476.0 629.875,471.125 635.125,467.0 643.375,459.375 651.75,449.75 657.25,442.125"/>
    <polyline points="660.0,437.875 665.0,428.875 669.25,419.25 671.0,414.375 673.5,404.375 674.125,399.625 674.25,395.125 674.0,390.875 673.125,387.0 671.75,383.75 669.75,381.125 667.25,379.125 664.125,378.0 660.625,377.5 656.75,377.875 652.5,379.0 648.0,380.875 643.25,383.375 633.375,390.125 623.5,398.375 618.75,403.0"/>
    <polyline points="614.125,407.625 601.25,421.875 583.875,443.375 566.75,465.75 552.5,485.0"/>
    <polyline points="551.625,486.375 549.125,490.0 545.125,497.5 544.375,500.375 544.25,502.25 544.5,503.875 545.375,505.75"/>
    <polyline points="545.75,506.125 546.875,507.375 548.875,508.875 552.25,510.375 559.75,512.25 565.75,513.0"/>
    <polyline points="567.125,513.125 576.25,513.375 583.625,513.0 592.0,512.0 596.75,511.125 601.875,510.0 610.25,507.5 623.125,502.375"/>
    <polyline points="626.625,500.625 634.125,496.5 638.25,493.875 642.375,491.125 651.25,484.25 660.75,475.625 665.875,470.5 671.0,464.75 681.75,451.25 687.125,443.25 692.5,434.625 697.875,425.0 702.875,414.625 707.5,403.5 711.625,391.75 714.875,379.625 717.125,367.375 718.125,355.5 717.625,344.25 715.375,334.25 711.375,326.0 705.625,320.125"/>
    <polyline points="698.125,316.75 689.125,316.25 679.0,318.375 668.0,323.125 656.75,330.125 645.5,338.875 634.5,348.75 623.875,359.5 614.125,370.375 605.0,381.375 596.625,392.0 582.125,411.5 552.125,453.5 541.875,466.25 536.0,472.625 530.625,477.75"/>
    <polyline points="528.25,479.875 523.5,483.5 519.125,486.375 512.75,489.625 504.875,492.5 497.375,494.25 491.75,495.0 486.125,495.375 478.5,495.375"/>
    <polyline points="476.625,495.25 470.625,494.875 453.5,492.5 438.875,489.5 415.75,483.875"/>
    <polyline points="412.375,483.0 386.0,475.75 362.0,468.75 293.625,448.0 272.5,442.5"/>
    <polyline points="267.875,442.0 265.75,442.625 266.75,445.0 271.625,449.375 281.0,456.25 332.875,490.625 376.625,520.125 397.375,534.75 416.25,548.5 446.875,572.125 458.625,581.75 476.0,596.75 495.75,614.625 498.5,616.375 499.375,616.375 500.0,615.875"/>
    <polyline points="500.375,615.0 502.5,602.5 504.0,595.5 506.125,588.5 508.75,581.875 512.875,573.875 518.875,565.75"/>
    <polyline points="520.25,564.25 525.5,559.25 529.625,556.25 535.375,552.875 539.875,550.875 544.625,549.25 552.75,547.25 558.0,546.5"/>
    <polyline points="559.875,546.25 575.875,545.0 598.25,544.125 613.875,542.625 624.625,540.875"/>
    <polyline points="628.625,540.125 637.0,537.875 646.25,534.875 651.375,532.875 662.25,527.625 674.625,520.125 681.5,515.25 688.875,509.375 696.625,502.5 705.125,494.125 714.125,484.125 723.75,472.25 733.875,458.0 744.625,441.125 755.625,421.25 766.625,398.0 777.125,371.375 786.0,341.75 792.5,310.0 794.875,277.875 791.75,248.125 782.125,223.75"/>
    <polyline points="765.625,208.125 742.875,203.375 716.125,210.0 687.5,226.25 659.5,249.5 634.0,276.625 611.75,304.875 593.125,332.125 578.0,357.25 566.125,379.5 557.0,399.0 550.125,415.5 545.125,429.5 541.5,441.25 539.125,451.0 537.75,459.125 537.0,465.75 536.875,475.625 537.25,479.25 538.5,484.625 540.875,490.0"/>
    <polyline points="541.125,490.625 541.375,491.5 540.875,491.875 530.375,491.75 511.375,492.875"/>
    <polyline points="509.5,493.0 492.375,493.875 480.5,493.625 472.125,493.0 459.125,491.25"/>
    <polyline points="456.75,491.0 439.875,487.75 429.375,485.375 388.75,474.625"/>
    <polyline points="386.0,473.75 374.75,470.75 372.875,470.5 376.75,472.25 396.5,479.625 426.375,489.75 476.375,505.5 510.125,515.125 548.625,525.0 589.75,533.875 629.875,540.0 665.25,541.75 693.0,538.375 712.0,530.25 722.875,518.125"/>
    <polyline points="727.75,503.5 728.625,487.625 727.125,471.5 724.625,455.75 719.0,426.375 713.5,401.0 710.75,389.875 707.5,380.0 704.0,371.375 699.75,364.125 694.875,358.625 689.25,354.625 682.875,352.5 676.0,352.0 668.5,353.25 660.75,355.875 652.75,360.0 644.75,365.125 636.875,371.125 629.125,377.75 614.625,392.0 601.75,406.5"/>
    <polyline points="595.875,413.5 585.375,426.375 565.0,452.375 552.875,466.75 545.5,474.75 539.125,481.0 533.5,485.875 525.375,491.875"/>
    <polyline points="524.0,492.75 517.25,496.625 511.25,499.25 503.75,501.5 500.625,502.125 495.625,502.625"/>
    <polyline points="494.5,502.75 487.25,502.75 479.375,502.0 465.0,499.5"/>
    <polyline points="463.5,499.25 444.75,495.0 411.625,486.375"/>
    <polyline points="408.75,485.625 371.375,475.625 349.0,470.5 342.875,469.625 338.375,469.625 337.125,470.125 336.5,471.0 336.875,472.375 338.25,474.125"/>
    <polyline points="340.625,476.5 348.625,482.875 354.25,486.875 368.0,496.0 384.0,506.125 409.0,521.125 431.5,533.5 444.25,539.875 449.875,542.375 459.875,546.125 464.375,547.5 472.125,549.25 478.75,550.0 484.375,549.875"/>
    <polyline points="487.0,549.625 491.625,548.75 497.75,546.875 504.625,543.875 521.125,535.5 526.0,533.5"/>
    <polyline points="527.25,533.0 533.25,531.125 540.75,529.5 547.25,528.625 560.75,527.625"/>
    <polyline points="562.375,527.5 579.625,526.375 588.75,525.375 599.375,523.75 608.25,521.75 614.875,519.875 625.875,515.875"/>
    <polyline points="629.75,514.25 642.875,507.5 652.75,501.125 658.0,497.25 669.375,487.625 675.5,481.75 681.875,475.0 688.5,467.25 695.375,458.5 702.375,448.5 709.625,437.125 716.75,424.375 723.625,410.25 730.125,394.625 735.75,377.875 740.375,360.375 743.25,342.375 743.875,324.875 742.0,308.875 737.25,295.375 729.375,285.375 718.625,279.75"/>
    <polyline points="705.375,279.0 690.375,283.0 674.25,291.125 658.125,302.75 642.375,316.875 627.5,332.25 614.0,348.125 601.75,363.75 591.0,378.75 573.375,405.25 541.75,456.5 535.125,466.0 527.0,476.125 522.375,480.625 518.0,484.0"/>
    <polyline points="516.0,485.375 510.0,488.375 504.125,490.375 494.625,492.0 488.875,492.375 481.125,492.375 467.25,491.25"/>
    <polyline points="465.25,491.0 457.0,489.875 446.625,488.0 428.125,483.875 424.25,483.25"/>
    <polyline points="425.0,483.5 446.375,490.0 475.0,497.875 503.0,504.75 519.375,508.375 536.875,511.75 554.875,514.75 572.625,516.875 589.375,517.875 604.25,517.625 616.875,516.0 626.75,513.0 634.0,509.0 638.875,504.25 641.5,498.875 642.5,493.25 642.25,487.75 641.125,482.375"/>
    <polyline points="639.25,477.375 637.125,472.875 634.75,469.0 629.875,462.5 625.25,458.0 621.0,455.125 615.875,453.25 614.375,453.0 611.75,453.125 607.625,454.875 605.125,457.5 603.875,459.625"/>
    <polyline points="603.625,460.25 603.375,461.5 603.625,463.75 604.875,465.5 606.5,466.25 609.25,466.5 612.0,466.125 615.25,465.125 617.625,464.0"/>
    <polyline points="618.875,463.375 622.875,461.125 628.625,456.75 631.625,454.0 637.75,447.375 643.375,439.375 646.875,432.75 649.5,426.0 650.5,421.625"/>
    <polyline points="650.625,419.5 650.625,415.75 650.25,414.125 648.875,411.5 647.875,410.5 646.75,409.75 643.875,409.0 642.125,409.0 638.25,409.875 631.625,413.125 624.5,418.25 615.0,426.875 608.375,434.0"/>
    <polyline points="606.375,436.5 597.25,448.0 590.5,458.125 588.5,461.625 586.0,466.5 583.875,472.0 583.0,476.5 583.125,478.5"/>
    <polyline points="583.25,479.375 583.625,481.0 585.375,483.625 587.375,485.125 591.125,486.375 594.5,486.75 600.25,486.375 603.5,485.75 609.0,484.125"/>
    <polyline points="611.0,483.5 617.375,480.75 622.0,478.25 632.375,471.375 643.75,461.375 652.625,451.375 655.625,447.5 661.5,438.875 666.875,429.375 671.625,419.0 675.25,408.25"/>
    <polyline points="676.375,402.875 677.25,397.625 677.5,392.625 677.125,388.0 676.25,383.75 674.75,380.125 672.75,377.25 670.0,375.0 666.75,373.625 662.875,373.25 658.625,373.625 654.0,374.875 649.0,377.0 643.875,379.75 638.625,383.25 633.25,387.25 622.75,396.375 617.625,401.375 608.0,411.625 595.125,426.625 587.625,435.875"/>
    <polyline points="584.25,440.25 546.5,488.75 542.625,494.25"/>
    <polyline points="542.0,495.125 539.25,499.75 538.0,503.375 537.875,505.25 538.125,506.625 539.5,508.75"/>
    <polyline points="539.875,509.125 542.0,510.625 546.875,512.625 552.75,514.0 558.0,514.75"/>
    <polyline points="559.125,514.875 567.125,515.5 576.875,515.5 582.5,515.125 593.375,513.75 601.0,512.25 606.5,510.75"/>
    <polyline points="609.375,509.875 615.625,507.75 626.0,503.25 637.625,496.75 646.25,490.75 650.875,487.25 660.625,478.75 671.125,468.0 676.5,461.625 682.125,454.375 687.75,446.375 693.5,437.5 699.0,427.75 704.5,417.125 709.5,405.625 714.0,393.375 717.75,380.625 720.375,367.625"/>
    <polyline points="721.75,354.75 721.625,342.5 719.625,331.625 715.75,322.5 709.875,315.625 702.125,311.625 692.75,310.75 682.125,312.75 670.625,317.625 658.625,325.0 646.625,334.125 635.0,344.75 624.0,356.0 613.625,367.75 604.125,379.25 587.625,401.0 554.125,448.625 543.125,463.125"/>
    <polyline points="539.875,467.0 531.375,476.0 526.25,480.375 521.625,483.875 515.0,487.75 506.75,491.125 500.75,492.75 493.0,494.125 485.25,494.625"/>
    <polyline points="483.375,494.625 473.375,494.375 460.625,493.0 441.625,489.5 425.0,485.625"/>
    <polyline points="421.875,484.875 390.25,476.375 357.0,466.625 317.125,454.25 291.25,445.875"/>
    <polyline points="281.625,442.75 262.375,436.75 246.0,432.125 241.0,431.5 239.75,432.875 243.75,436.875 254.0,444.25 320.5,487.625 349.25,506.875 377.375,526.75 403.25,545.875 425.75,563.75 444.5,579.75 459.625,593.75 471.25,605.75 480.0,616.0 486.25,624.375 490.5,631.375 493.0,636.875 494.375,641.0 494.625,644.125 494.25,646.125"/>
    <polyline points="493.25,647.125 491.875,647.25 490.375,646.625 488.625,645.25 487.0,643.125 484.0,637.375 482.75,633.75 480.875,625.625 480.25,621.375 479.75,612.375 480.125,603.375 481.875,590.5 483.75,582.75 485.875,575.625 488.25,569.25 490.75,563.625"/>
    <polyline points="492.0,561.125 495.875,554.25 498.5,550.375 501.0,547.0 504.75,542.75 508.25,539.25 513.875,534.75 519.25,531.375 521.375,530.375"/>
    <polyline points="522.375,529.875 527.5,527.875 534.625,526.0 544.75,524.75 549.75,524.5"/>
    <polyline points="551.125,524.375 575.125,523.5 588.125,522.25 598.25,520.625"/>
    <polyline points="601.125,520.0 610.125,517.75 620.25,514.375 627.75,511.25 636.0,507.125 644.875,501.875 654.75,494.875 665.5,485.875 671.375,480.375 683.625,466.875 690.0,458.75 696.625,449.625 703.25,439.25 710.0,427.75 716.375,414.875 722.5,400.875"/>
    <polyline points="728.0,385.875 732.5,369.875 735.625,353.625 737.125,337.5 736.25,322.375 733.0,309.125 727.125,298.625 718.5,291.75 707.5,288.75 694.625,290.125 680.5,295.5 665.625,304.25 650.875,315.75 636.625,329.0 623.25,343.125 611.125,357.625 600.0,371.875 590.25,385.375 573.875,409.5 543.125,456.875"/>
    <polyline points="539.625,461.75 533.375,469.75 528.0,475.75 523.0,480.375 516.25,485.25 512.0,487.5 507.875,489.125 499.75,491.375 491.875,492.5 483.875,492.75"/>
    <polyline points="481.875,492.75 471.5,492.25 460.75,491.0 442.375,487.75 425.375,483.875"/>
    <polyline points="422.875,483.25 401.0,477.75 409.75,481.0 422.375,485.125 459.0,496.375 498.875,507.375 523.375,513.5"/>
    <polyline points="549.875,519.25 577.25,524.125 603.625,527.25 627.5,528.125 647.25,526.25 662.25,521.875 672.375,515.25 678.5,507.0 681.25,497.75 681.625,488.125 680.5,478.625 678.5,469.5 676.0,461.0 670.625,446.25 665.625,434.5 660.875,425.5 658.75,421.875 654.25,416.375 649.75,413.0 647.375,412.0 645.0,411.5"/>
    <polyline points="642.5,411.25 639.875,411.5 634.625,413.0 629.25,415.75 623.875,419.25 616.0,425.75 608.75,433.0 600.375,442.75 595.0,449.625 588.125,459.875"/>
    <polyline points="587.0,461.75 582.25,471.25 581.0,475.125 580.5,478.375 580.75,482.125 581.75,484.375 582.75,485.625 585.5,487.5"/>
    <polyline points="586.375,487.875 589.375,488.75 591.75,489.0 597.375,488.875 602.375,488.125 610.125,485.875 614.375,484.125 621.625,480.5 629.5,475.625 632.375,473.5"/>
    <polyline points="635.25,471.375 641.125,466.25 647.375,460.125 653.75,452.875 660.125,444.5 666.125,434.875 671.75,424.25 674.25,418.625 676.375,412.875 678.125,407.0 679.5,401.125 680.375,395.375 680.75,389.875 680.5,384.75 679.625,380.125 678.0,376.125 675.75,372.875 672.75,370.5 669.125,369.125 665.0,368.625"/>
    <polyline points="660.375,369.25 655.25,370.625 649.875,373.0 644.25,376.25 638.5,380.125 632.75,384.625 621.5,394.75 610.875,405.625 596.75,422.0 588.5,432.125 558.0,471.125"/>
    <polyline points="556.125,473.375 537.0,495.875 532.375,502.125"/>
    <polyline points="532.0,502.625 530.625,505.375 530.25,506.625 530.25,508.25 530.75,509.625 532.125,511.125"/>
    <polyline points="532.375,511.25 535.0,512.75 537.5,513.625 546.625,515.625"/>
    <polyline points="547.5,515.75 554.625,516.625 564.875,517.25 574.5,517.25 582.125,516.75"/>
    <polyline points="584.25,516.625 593.25,515.375 600.875,513.875 609.375,511.5 615.75,509.375 622.625,506.625 634.0,500.875 646.875,492.5 656.375,484.875 666.75,475.125 672.25,469.25"/>
    <polyline points="677.875,462.75 683.625,455.375 689.5,447.125 695.375,438.0 701.125,427.875 706.75,416.875 712.0,404.875 716.75,392.125 720.625,378.75 723.375,365.125 724.875,351.625 724.625,338.875 722.5,327.375 718.25,318.0 711.875,311.0 703.625,307.125 693.625,306.5 682.25,309.0 670.125,314.5 657.625,322.625 645.125,332.5 633.125,343.75 621.75,355.75 611.25,368.0 601.5,380.0 592.875,391.5"/>
    <polyline points="585.0,402.375 547.875,455.625 540.875,464.5 534.875,471.5 526.875,479.125 519.75,484.375 515.25,487.0 509.0,489.875 502.875,491.75"/>
    <polyline points="500.875,492.25 495.0,493.375 489.0,494.0 475.0,494.0 464.375,493.0 448.25,490.375"/>
    <polyline points="445.75,489.875 429.75,486.375 411.25,481.75 381.25,473.375 357.5,466.25"/>
    <polyline points="352.125,464.625 319.875,454.5 294.375,446.125 238.125,426.875 215.375,419.5 207.75,417.625 205.5,418.375 211.125,423.25 226.625,433.375 286.25,471.0 324.75,496.5 363.375,523.5 398.625,550.125 428.25,575.125"/>
    <polyline points="451.625,597.5 469.125,617.125 481.125,634.125 488.75,648.625 492.75,660.75 493.75,670.875 492.375,678.875 489.25,685.0 485.0,689.125 479.875,691.25 474.375,691.5 468.75,689.875 463.25,686.625 458.25,681.75 453.875,675.625 450.0,668.25 447.0,660.125 444.625,651.5 443.0,642.5 442.0,633.375 441.5,624.375 441.5,615.5 441.875,607.125 443.625,591.75 444.875,584.75"/>
    <polyline points="446.125,578.375 450.625,562.25 453.75,553.75 456.75,546.75 459.625,541.0 464.625,532.375 474.125,518.875"/>
    <polyline points="474.5,518.25 476.0,515.25 476.375,512.5 475.375,510.125 472.125,507.375"/>
    <polyline points="471.5,507.125 469.0,505.75 463.125,503.375 446.25,498.0"/>
    <polyline points="444.75,497.5 424.875,491.875 390.25,482.75"/>
    <polyline points="387.5,482.125 376.25,479.5 364.0,477.5 359.125,477.75 358.25,478.125 357.875,478.875 357.875,479.75 358.5,480.875 361.5,484.125 363.875,486.125 374.5,493.75 389.125,502.875"/>
    <polyline points="394.625,506.125 405.625,512.375 421.875,520.75 431.875,525.375 440.875,529.0 449.0,531.75 452.625,532.75 462.375,534.625 470.375,535.125 474.875,534.875 478.875,534.25 484.125,532.875"/>
    <polyline points="485.625,532.375 491.125,530.25 496.625,527.375 508.0,520.5"/>
    <polyline points="508.625,520.25 513.5,517.75 518.875,516.25"/>
    <polyline points="519.25,516.25 522.625,515.875 530.125,516.25"/>
    <line x1="530.625" x2="550.125" y1="516.25" y2="518.0"/>
    <polyline points="551.125,518.125 559.75,518.625 573.75,518.625 583.375,518.0 592.5,516.75"/>
    <polyline points="594.875,516.375 602.875,514.625 611.875,512.125 618.375,509.75 629.25,504.875 641.75,497.625 646.25,494.625 655.875,487.125 666.25,477.625 671.75,471.875 677.5,465.375 683.375,458.125 689.375,450.0 695.375,440.75 701.375,430.625"/>
    <polyline points="707.25,419.5 712.75,407.375 717.875,394.375 722.125,380.625 725.25,366.5 727.125,352.375 727.25,338.875 725.5,326.625 721.5,316.25 715.375,308.625 707.0,304.0 696.875,302.75 685.25,304.875 672.75,310.375 659.75,318.375 646.875,328.625 634.375,340.25 622.625,352.625 611.625,365.25 601.625,377.75 584.625,401.0 559.875,437.125"/>
    <polyline points="555.125,444.125 547.0,455.625 536.875,468.375 531.125,474.5 523.5,481.25 516.625,485.875 510.25,489.0 504.0,491.125 500.0,492.125 492.0,493.375"/>
    <polyline points="490.0,493.5 477.875,493.75 471.625,493.375 460.75,492.125 451.5,490.625 433.5,486.875"/>
    <polyline points="430.75,486.25 416.0,482.625 392.125,476.125 358.75,466.375 333.0,458.375"/>
    <polyline points="327.125,456.625 274.75,439.375 240.25,427.25 192.0,409.125 139.125,388.625 132.75,387.0 142.125,393.25 173.0,411.0 225.0,441.875 290.0,483.0 355.375,528.75 411.25,574.0 453.125,615.75 480.875,653.25"/>
    <polyline points="496.125,686.375 500.75,715.5 497.0,741.0 486.625,762.375 471.375,778.75 453.0,789.375 433.25,793.0 414.125,789.25 396.75,778.375 382.5,761.25 371.5,739.625 364.0,715.125 359.375,689.75 357.125,664.875 356.75,641.625 357.5,620.375 359.25,601.75 361.5,585.5 364.0,571.75 366.75,560.25 369.75,550.625 372.75,542.875 375.875,536.625 379.125,531.625 382.375,527.75 385.875,524.875"/>
    <polyline points="389.25,522.625 392.875,521.125 396.375,520.125 400.0,519.625 407.25,519.375 414.5,519.875 434.125,522.875 445.125,524.125 454.0,524.375 461.125,523.75"/>
    <polyline points="462.625,523.5 467.875,522.25 472.0,520.625 473.5,519.75 477.5,516.75 478.375,515.5 479.125,513.5"/>
    <polyline points="479.125,513.125 478.625,511.0 477.25,509.375 473.375,506.875 469.125,505.125"/>
    <polyline points="468.375,504.75 452.125,499.375 436.25,494.875"/>
    <polyline points="434.375,494.375 400.0,485.0 383.0,480.75 371.5,478.25"/>
    <polyline points="368.875,477.75 361.75,476.75 359.75,476.75 357.0,477.125 356.125,477.625 355.875,478.375 356.125,479.375 357.0,480.625 360.5,484.125 366.625,488.875 375.0,494.625 396.375,507.75 413.625,517.25 424.625,522.75"/>
    <polyline points="429.75,525.125 439.375,529.25 451.75,533.5 458.875,535.125 467.75,536.25 475.125,536.125 481.25,535.25 488.0,533.25 494.625,530.375"/>
    <polyline points="495.75,529.75 509.75,521.875 514.375,519.75"/>
    <polyline points="514.875,519.5 521.75,517.625 527.5,517.25"/>
    <polyline points="528.0,517.25 534.25,517.375 546.625,518.25"/>
    <polyline points="547.625,518.375 559.5,519.0 571.75,519.0 585.375,518.125"/>
    <polyline points="587.5,517.75 594.75,516.75 602.625,515.0 608.5,513.5 614.75,511.375 621.625,508.75 629.0,505.375 641.5,498.25 650.625,491.75 655.625,487.875 660.75,483.375 671.5,472.625 677.25,466.25 683.125,459.0"/>
    <polyline points="689.125,450.875 695.25,441.75 701.375,431.625 707.25,420.5 712.875,408.25 718.0,395.25 722.375,381.5 725.75,367.25 727.625,353.0 728.0,339.25 726.25,326.75 722.5,316.125 716.375,308.125 708.125,303.25 698.0,301.75 686.375,303.875 673.75,309.125 660.625,317.125 647.625,327.375 635.0,339.0 623.0,351.5 612.0,364.375 601.875,376.875 584.625,400.375 577.375,410.875"/>
    <polyline points="570.875,420.5 546.875,455.5 536.75,468.375 531.0,474.5 523.375,481.25 516.5,485.875 508.0,489.75 503.875,491.125 497.875,492.5"/>
    <polyline points="495.875,492.75 487.875,493.625 483.875,493.75 471.5,493.25 460.5,492.0 441.25,488.5"/>
    <polyline points="438.625,488.0 415.75,482.5 402.75,479.0 350.75,463.875"/>
    <polyline points="346.0,462.375 284.625,443.25 223.125,423.125 202.125,415.875 175.625,406.25 138.75,392.0"/>
    <polyline points="114.125,382.0 84.125,369.25 49.125,353.75 13.625,337.25 0.0,330.1243"/>
    <polyline points="0.0,329.1357 10.875,333.5 95.0,376.375 230.125,454.75 365.875,549.125 464.375,641.0 517.625,725.0 531.125,803.125 512.0,876.75 466.5,941.875 402.75,988.25 332.875,1002.0 271.5,975.25 228.25,913.25 204.625,832.625 195.5,750.375 194.375,677.5 197.125,618.5 201.75,573.625 208.125,541.625 217.5,520.875 230.875,510.0"/>
    <polyline points="249.0,507.5 271.75,512.125 298.0,522.125 325.875,536.0 353.25,551.875 378.625,568.25 400.75,584.125 419.125,598.625 433.875,611.5 445.125,622.625 453.5,631.75 459.25,639.0 463.125,644.5 466.5,650.625 466.625,651.625 464.75,647.5 463.125,640.25 462.5,635.75 461.75,625.5 462.0,614.625"/>
    <polyline points="462.5,609.125 463.875,598.5 467.125,583.75 469.75,575.125 472.625,567.5 478.375,555.125 482.5,547.875 490.0,537.375 493.25,533.625"/>
    <polyline points="494.25,532.5 502.625,524.625 506.375,521.75 510.875,519.0"/>
    <polyline points="511.375,518.75 514.125,517.375 516.375,516.625 520.75,515.875"/>
    <polyline points="521.125,515.875 527.0,515.875 533.0,516.375"/>
    <line x1="533.5" x2="555.75" y1="516.5" y2="518.375"/>
    <polyline points="557.0,518.375 560.875,518.625 573.5,518.625 583.125,518.0 594.625,516.375 605.375,514.0"/>
    <polyline points="608.375,513.125 617.875,509.875 628.75,505.125 636.875,500.625 645.625,495.0 655.125,487.75 660.25,483.25 665.5,478.375 676.75,466.375 688.5,451.125 694.5,442.125 700.625,432.125 706.5,421.125 712.0,409.125 717.125,396.125 721.5,382.5 724.875,368.5"/>
    <polyline points="727.0,354.375 727.375,340.75 725.875,328.25 722.125,317.625 716.25,309.5 708.25,304.375 698.375,302.75 686.875,304.5 674.5,309.5 661.625,317.25 648.625,327.125 636.0,338.625 624.125,351.0 613.125,363.625 603.0,376.125 585.625,399.5 551.5,449.375 540.5,464.125"/>
    <polyline points="537.375,467.875 531.625,474.125 523.875,481.0 517.0,485.625 510.5,488.875 502.25,491.625 498.25,492.5 490.25,493.5 482.25,493.75"/>
    <polyline points="480.25,493.75 467.75,493.0 454.25,491.125 436.625,487.625 419.5,483.5"/>
    <polyline points="416.375,482.75 385.0,474.125 368.5,469.25 333.625,458.625 301.125,448.125"/>
    <polyline points="293.25,445.625 253.75,432.0 226.625,422.125 140.875,389.375 134.875,388.0 144.625,394.375 175.375,412.25 227.0,442.875 291.0,483.375 355.5,528.625 410.75,573.25 452.375,614.5 480.0,651.375 495.375,684.0 500.375,712.875 497.125,737.875 487.375,759.0 472.75,775.25"/>
    <polyline points="455.0,785.875 435.875,789.875 417.125,786.75 400.125,776.625 385.875,760.5 374.875,739.625 367.125,716.125 362.25,691.375 359.875,666.875 359.25,643.875 359.875,622.875 361.375,604.25 363.5,588.0 366.0,574.125 368.75,562.375 371.625,552.625 374.5,544.625 377.625,538.125 380.75,533.0 383.875,528.875 387.125,525.75 390.5,523.375 393.875,521.625 397.25,520.5 404.125,519.375"/>
    <polyline points="407.625,519.125 417.75,519.75 441.375,522.875 448.375,523.25 457.875,523.0 462.375,522.25 466.125,521.25"/>
    <polyline points="467.125,520.875 470.75,519.375 474.875,516.375 476.25,514.375 476.5,513.5 476.5,512.0 476.125,511.0"/>
    <polyline points="475.875,510.625 473.625,508.25 470.875,506.625 465.0,504.0 460.125,502.375"/>
    <polyline points="459.0,502.0 443.0,497.0 418.125,490.125"/>
    <polyline points="415.875,489.5 392.75,483.375 378.75,480.0 370.625,478.375 361.75,477.375 359.0,477.75 358.125,478.25 357.75,478.875"/>
    <polyline points="357.875,479.75 358.5,481.0 361.625,484.25 367.125,488.625 374.875,494.0 389.625,503.25 400.625,509.625 411.75,515.625 422.375,521.0 432.375,525.625 441.375,529.25 453.0,532.875 459.75,534.25"/>
    <polyline points="462.75,534.75 470.625,535.125 477.25,534.625 481.0,533.875 488.75,531.375 494.75,528.5 501.125,524.875"/>
    <polyline points="501.875,524.375 508.25,520.5 514.875,517.375"/>
    <polyline points="515.375,517.25 520.25,516.125 525.125,516.0"/>
    <line x1="525.625" x2="540.75" y1="516.0" y2="517.25"/>
    <polyline points="541.5,517.375 559.75,518.625 572.0,518.625"/>
    <polyline points="573.75,518.625 583.375,518.0 594.875,516.375 600.125,515.375 611.75,512.125 621.875,508.375 629.25,504.875 637.375,500.375 646.125,494.625"/>
    <polyline points="650.875,491.125 655.75,487.25 666.25,477.75 671.75,472.0 683.25,458.25 689.25,450.125 695.375,441.0 701.375,430.875 707.125,419.75 712.75,407.625 717.75,394.5 722.0,380.875 725.25,366.75 727.125,352.625 727.375,339.125 725.625,326.75 721.625,316.375 715.5,308.625 707.25,304.0 697.125,302.625 685.5,304.875 673.0,310.25 660.0,318.25 647.0,328.375"/>
    <polyline points="634.5,340.0 622.75,352.5 611.75,365.125 601.75,377.625 592.75,389.5 577.375,411.25 555.25,444.0 540.125,464.625 531.25,474.5 526.0,479.25 521.25,483.0 516.625,485.875 512.375,488.0"/>
    <polyline points="510.25,489.0 506.125,490.5 500.0,492.125 492.0,493.375 486.0,493.75 478.0,493.75 471.75,493.375 458.5,491.75"/>
    <polyline points="456.25,491.375 446.625,489.75 428.0,485.625 402.875,479.125 380.5,472.75"/>
    <polyline points="376.5,471.625 321.25,454.75 265.25,436.125 241.25,427.625 193.375,409.75 155.375,394.875"/>
    <polyline points="139.375,388.625 131.25,386.25 138.25,391.125 216.875,437.125 281.625,477.625 348.125,523.625 405.875,569.625 449.75,612.25 479.125,650.5 495.5,684.375 501.0,714.375 497.75,740.5 487.5,762.625 472.25,779.75 453.75,791.0 433.625,795.125 414.0,791.875 396.25,781.125 381.5,764.0 370.25,742.125 362.5,717.25 357.625,691.5 355.375,666.125 354.875,642.375 355.75,620.875"/>
    <polyline points="357.375,601.875 359.625,585.5 362.25,571.5 365.125,559.875 368.125,550.25 371.125,542.375 374.375,536.125 377.625,531.25 381.0,527.375 384.5,524.5 388.125,522.375 395.375,520.0 399.125,519.5 402.875,519.375 410.375,519.75 421.375,521.25 440.375,524.375"/>
    <polyline points="443.125,524.625 452.75,525.25 458.75,525.0 465.25,524.0 471.375,522.125 476.375,519.5 478.125,518.125"/>
    <polyline points="478.625,517.75 480.75,514.875 481.0,512.25 480.125,510.625 478.125,508.75"/>
    <polyline points="477.625,508.5 473.75,506.375 468.375,504.25 456.625,500.5"/>
    <line x1="455.375" x2="408.125" y1="500.125" y2="487.0"/>
    <polyline points="405.5,486.375 385.75,481.25 365.75,477.0 358.875,476.25 355.875,476.625 355.0,477.0 354.625,477.75 355.625,480.125 359.125,483.625"/>
  </g>
</svg>
