<?xml version="1.0" encoding="utf-8" ?>
<svg xmlns="http://www.w3.org/2000/svg" xmlns:cc="http://creativecommons.org/ns" xmlns:dc="http://purl.org/dc/elements/1.1/" xmlns:ev="http://www.w3.org/2001/xml-events" xmlns:inkscape="http://www.inkscape.org/namespaces/inkscape" xmlns:rdf="http://www.w3.org/1999/02/22-rdf-syntax-ns" xmlns:sodipodi="http://sodipodi.sourceforge.net/DTD/sodipodi-0.dtd" xmlns:xlink="http://www.w3.org/1999/xlink" baseProfile="tiny" height="27.09333333cm" version="1.2" viewBox="0 0 1024.0 1024.0" width="27.09333333cm">
  <metadata>
    <rdf:RDF>
      <cc:Work>
        <dc:format>image/svg+xml</dc:format>
        <dc:source>vpype read './original_svgs/Strange Attractors #488.svg' linemerge linesimplify write './Strange Attractors #488.svg'
</dc:source>
        <dc:date>2024-08-05T01:36:04.221276</dc:date>
      </cc:Work>
    </rdf:RDF>
  </metadata>
  <defs/>
  <g fill="none" id="layer1" inkscape:groupmode="layer" inkscape:label="1" stroke="black" stroke-width="0.7mm" style="display:inline">
    <polyline points="679.125,575.25 672.875,569.375 668.75,564.0 666.375,558.875 665.625,554.0 666.125,549.375 667.75,544.625 670.375,540.0 677.625,530.25 691.25,514.375 700.25,503.0 707.5,491.625 710.25,486.25 712.125,481.0 713.0,476.375 713.0,472.125 712.0,468.625 710.0,465.75 707.0,463.5 703.375,462.0 698.875,461.25"/>
    <polyline points="693.875,461.125 688.375,461.5 682.5,462.375 676.5,463.625 664.0,467.125 645.625,473.375 600.375,490.375 572.75,499.25"/>
    <polyline points="570.0,500.0 552.0,504.75 530.375,509.625"/>
    <polyline points="529.5,509.75 522.75,511.25 518.625,512.5 516.375,513.625 515.5,514.625 515.375,516.375 515.75,517.625 519.75,525.25"/>
    <line x1="520.0" x2="527.875" y1="525.625" y2="538.125"/>
    <polyline points="528.375,538.875 534.0,546.625 537.75,551.125 542.375,556.25 548.125,561.625"/>
    <polyline points="549.375,562.75 557.25,568.375 565.375,572.75 573.125,575.5 579.25,577.0 586.375,578.0 590.375,578.25 599.5,578.125 610.25,576.75 623.125,573.875 630.375,571.625 638.25,568.75"/>
    <polyline points="646.875,565.25 656.125,560.875 666.125,555.5 676.75,549.25 688.0,541.875 699.75,533.375 711.75,523.75 723.75,513.0 735.25,501.375 745.75,489.25 755.0,476.75 762.125,464.5 767.0,453.0 769.0,442.75 768.125,434.25 764.375,427.875 758.125,423.625 749.875,421.625 740.0,421.5 729.125,423.0 717.875,425.75 706.375,429.5 684.5,438.25 664.625,447.375"/>
    <polyline points="655.75,451.75 639.75,459.375 619.875,468.25 603.875,474.25 590.75,477.75 579.625,479.625 567.125,480.0 561.75,479.625 556.75,478.875 550.0,477.125"/>
    <polyline points="547.875,476.5 541.875,474.125 536.5,471.375 531.625,468.125 527.0,464.375 524.125,461.75 517.25,454.125 509.625,443.25"/>
    <polyline points="508.375,441.125 503.375,432.5 497.0,420.125 478.25,381.75 469.0,365.375"/>
    <polyline points="466.125,360.875 463.0,356.25 455.5,346.375 445.625,335.5 439.5,329.625 432.375,323.5 423.75,317.0 413.5,310.0 401.125,302.625 385.875,294.75 367.25,286.625 344.5,278.25 316.75,270.0 283.25,262.75 244.125,258.0 200.625,257.875 156.125,265.625 117.25,285.125 92.125,318.875 87.75,366.375 105.5,423.0 139.5,481.375 180.625,535.625 220.125,581.875"/>
    <polyline points="253.25,619.5 277.75,649.0 293.75,671.625 302.25,688.25 305.0,700.0 303.25,707.0 298.875,709.625 293.25,708.125 287.625,702.5 283.25,693.125 280.875,680.5 280.875,665.25 283.25,648.25 287.875,630.375 294.25,612.25 302.0,594.75 310.25,578.25 318.875,563.125 327.375,549.5 335.625,537.5 343.25,527.125 350.375,518.125 363.0,504.25 368.375,499.0 373.375,494.625"/>
    <polyline points="378.0,491.125 382.125,488.25 389.625,484.25 396.125,482.0 401.875,480.875 412.25,480.75 433.125,483.25 439.875,483.75"/>
    <polyline points="441.5,483.75 448.375,483.5 454.75,482.125 459.25,479.75 461.625,477.125 462.375,475.25"/>
    <polyline points="462.625,474.625 463.0,471.875 462.75,469.5 462.125,467.0 460.625,463.375 456.875,457.375 452.25,451.875"/>
    <polyline points="451.25,450.75 444.75,444.875 438.25,440.125 432.5,436.625 426.0,433.375 413.625,429.0 408.25,427.875 400.0,427.0"/>
    <polyline points="397.25,427.125 391.875,427.625 387.0,429.0 384.75,430.0 381.0,432.625 379.375,434.375 377.125,438.25 376.375,440.5 376.125,445.5 377.125,451.125 378.25,454.0 381.25,459.875 383.125,462.875 390.25,471.25 393.0,474.0 398.875,478.875"/>
    <polyline points="401.875,481.125 411.25,487.0 417.375,490.125 423.375,492.75 431.875,495.625 442.25,498.0 449.0,498.875 458.625,499.125 463.375,498.75"/>
    <polyline points="464.875,498.625 472.25,497.0 476.75,495.125 480.5,492.375 482.125,490.375 483.125,488.0"/>
    <polyline points="483.25,487.375 483.625,484.125 483.125,480.375 480.75,473.5 476.875,466.25"/>
    <polyline points="476.125,465.125 472.0,459.0 466.625,452.125 459.5,444.625 448.25,434.75 438.375,427.875"/>
    <polyline points="435.5,426.125 429.375,422.75 422.625,419.5 411.125,415.25 402.625,412.875 393.5,411.25 388.875,410.75 379.375,410.625 374.75,411.125 370.25,412.0 365.875,413.25 361.875,415.0 358.25,417.125 355.0,419.875 352.375,423.0 350.375,426.625 349.125,430.75 348.5,435.25 348.625,440.0"/>
    <polyline points="349.625,445.0 351.25,450.375 353.5,455.625 356.5,461.0 360.0,466.375 363.875,471.625 368.25,476.625 377.625,485.875 387.625,493.875 397.5,500.625 407.25,506.0 416.375,510.25 428.875,514.75 440.0,517.5 449.625,519.0"/>
    <polyline points="452.625,519.375 463.0,520.0 469.75,520.0 480.5,519.5 494.875,518.25"/>
    <polyline points="495.875,518.125 505.0,517.75 509.375,518.375"/>
    <polyline points="509.75,518.5 512.625,519.625 514.125,520.625 516.125,522.625"/>
    <polyline points="516.375,522.875 518.875,525.875 523.375,532.375"/>
    <polyline points="523.75,532.875 530.0,541.875 537.5,551.25"/>
    <polyline points="538.375,552.25 543.125,557.375 547.75,561.75 553.5,566.25 558.75,569.625 565.125,572.875 570.0,574.75 575.625,576.5 582.25,577.75"/>
    <polyline points="586.0,578.125 590.0,578.5 599.0,578.375 609.75,577.125 622.375,574.25 629.625,572.125 646.125,565.75 655.375,561.5 665.25,556.25 676.0,550.0 687.25,542.75 699.0,534.25 711.0,524.625 723.0,514.0 734.625,502.375 745.375,490.125 754.75,477.5 762.125,465.25 767.25,453.5 769.375,443.125 768.75,434.5 765.25,427.875"/>
    <polyline points="759.125,423.5 750.875,421.375 741.0,421.125 730.25,422.5 718.875,425.25 707.375,429.0 685.25,437.75 675.0,442.375 633.125,462.375 614.625,470.25 604.25,474.0 595.25,476.625 583.5,479.0 576.625,479.75"/>
    <polyline points="573.375,479.875 564.75,479.75 559.5,479.125 552.375,477.625 544.125,474.875 540.375,473.125 535.125,470.125 531.875,467.875 527.25,464.25 523.0,460.125"/>
    <polyline points="521.625,458.625 515.0,450.5 508.75,441.0 498.875,422.5 489.5,402.375"/>
    <polyline points="488.125,399.25 480.0,381.625 471.875,365.5 466.75,356.5 456.875,341.625 447.75,330.625 442.125,324.75 435.5,318.5 427.5,311.75 418.0,304.625 406.25,297.125 391.875,289.0 374.0,280.375 351.75,271.375 324.25,262.25"/>
    <polyline points="290.375,253.625 249.75,246.875 202.875,244.25 153.0,249.375 106.875,266.875 74.25,300.625 65.0,351.0 82.125,413.375 119.5,478.875 165.375,539.5 245.125,632.5 270.375,664.625 285.5,689.0 291.875,706.875 291.5,718.75 286.375,725.25 278.75,726.375 270.5,722.25 263.25,712.875 258.5,699.0 257.0,681.125 258.875,660.625 263.875,638.625 271.25,616.375 280.25,594.875"/>
    <polyline points="290.125,574.875 300.125,556.75 309.75,540.75 318.875,526.875 327.125,515.25 334.625,505.375 341.25,497.375 347.25,491.0 352.5,485.875 357.125,481.875 361.5,478.875 365.375,476.75 369.0,475.375 372.375,474.5 378.75,474.125 384.875,475.125 390.75,476.875 408.375,483.625"/>
    <polyline points="411.125,484.625 419.5,487.5 427.25,489.75 439.0,492.0 443.125,492.5 450.625,492.875 456.875,492.5 462.125,491.625"/>
    <polyline points="463.25,491.25 468.125,489.5 470.375,488.125 472.625,486.125 473.875,484.375 474.875,481.875 475.25,479.75 475.125,477.5"/>
    <polyline points="475.125,476.625 474.125,472.375 472.625,468.5 469.75,463.25 465.75,457.375 459.0,449.5"/>
    <polyline points="457.75,448.125 453.25,443.75 446.0,437.75 437.125,431.625 426.25,425.875 416.625,421.875 406.0,418.75 398.375,417.375 390.5,416.75"/>
    <polyline points="386.625,416.875 382.75,417.125 379.0,417.75 375.375,418.75 372.0,420.0 368.875,421.625 366.0,423.625 361.625,428.75 360.25,431.875 359.25,435.375 359.0,439.0 359.125,443.0 360.0,447.125 361.375,451.375 363.25,455.75 368.375,464.5 371.625,468.75 375.125,473.0 382.875,480.75 391.125,487.625 399.625,493.5"/>
    <polyline points="403.875,496.0 412.25,500.375 423.875,505.375 431.125,507.75 441.0,510.125 452.375,511.75 461.875,512.25 474.75,511.625"/>
    <polyline points="476.25,511.5 481.625,510.75 490.375,508.75 497.125,505.875"/>
    <polyline points="497.5,505.5 499.375,503.75 500.25,502.0 500.5,500.625 500.25,497.75"/>
    <polyline points="500.25,497.375 498.75,492.75 496.0,486.75 494.0,483.25"/>
    <polyline points="493.625,482.5 485.625,469.25 479.625,460.75 475.25,455.25"/>
    <polyline points="474.0,453.75 467.125,445.75 462.0,440.625 453.875,433.25 446.375,427.5 440.625,423.5 430.5,417.5 418.5,411.75 409.375,408.375"/>
    <polyline points="404.375,406.875 393.875,404.25 382.625,402.75 376.75,402.375 370.875,402.5 365.125,403.125 359.5,404.25 354.125,405.875 349.125,408.25 344.75,411.125 341.0,414.75 338.0,419.0 335.875,424.0 334.875,429.375 334.75,435.375 335.75,441.75 337.75,448.5 340.625,455.25 344.375,462.125 348.875,468.75 353.875,475.25 359.375,481.5 371.0,492.875"/>
    <polyline points="377.125,497.875 389.125,506.5 400.625,513.375 411.375,518.625 416.375,520.75 425.75,524.0 438.25,527.25 449.0,529.0 455.375,529.625 463.75,530.0 475.25,530.0"/>
    <polyline points="477.25,530.0 484.5,529.75 495.75,529.875 504.125,530.875 508.375,532.125"/>
    <polyline points="509.25,532.375 512.25,533.625 515.75,535.625 521.75,540.375 526.5,545.125"/>
    <polyline points="527.25,546.0 535.5,554.75 541.875,561.0 548.5,566.625 555.25,571.375"/>
    <polyline points="557.125,572.5 563.625,575.875 571.5,578.75 581.375,581.0 589.375,581.75 598.75,581.625 604.125,581.125 610.0,580.25 623.5,577.125 639.5,571.75 648.625,567.875 658.625,563.125 669.25,557.375 680.75,550.5 692.875,542.375 705.625,532.875"/>
    <polyline points="718.5,522.25 731.375,510.375 743.75,497.625 754.875,484.125 764.25,470.5 771.375,457.375 775.625,445.125 776.625,434.75 774.375,426.375 769.125,420.375 761.25,417.0 751.375,415.875 740.125,416.75 728.125,419.25 715.875,423.0 703.875,427.5 681.25,437.375 637.125,459.25 618.0,468.0"/>
    <polyline points="612.625,470.125 602.875,473.5 590.375,476.625 583.125,477.75 573.625,478.25 565.375,477.625 560.5,476.875 555.875,475.75 547.625,472.75 540.5,468.875"/>
    <polyline points="538.875,467.875 534.125,464.25 528.5,458.875 525.875,455.875 522.25,451.0 517.75,443.75 515.75,439.875 512.875,433.5 509.625,424.25"/>
    <polyline points="509.0,421.875 507.75,416.75 506.875,411.5 506.375,403.25 506.75,397.5 507.25,394.625 509.25,389.0 510.75,386.125 512.75,383.375 515.25,380.75 518.5,378.375 522.625,376.125 527.75,374.125 534.0,372.625 542.0,371.75 551.75,371.5 563.75,372.375 578.5,374.5 596.625,378.375 618.375,384.625"/>
    <polyline points="644.375,393.625 674.625,406.125 708.75,422.75 745.5,443.5 782.375,468.125 815.5,495.0 841.25,522.0 856.125,546.125 859.25,564.625 852.125,576.5 837.875,581.625 820.125,581.25 802.0,576.75 785.5,569.625 771.5,561.125 760.375,551.875 752.125,542.375 746.5,532.875 742.75,523.5 740.5,514.5 739.25,505.75 737.375,482.5 736.125,476.0 734.25,470.375"/>
    <polyline points="731.5,465.625 727.875,461.75 723.375,458.875 718.125,457.0 712.25,456.0 705.75,455.75 698.875,456.25 691.75,457.375 684.5,458.875 669.875,462.875 649.0,470.0 609.0,484.625 599.875,487.75 587.625,491.375"/>
    <polyline points="583.875,492.5 567.875,496.375 555.125,498.625 541.5,500.0 530.125,500.0"/>
    <polyline points="528.875,499.875 522.625,499.0 516.75,497.25 513.125,495.5 508.625,492.5"/>
    <polyline points="508.125,492.0 502.125,486.0 497.125,479.875 492.25,473.25"/>
    <polyline points="491.5,472.125 483.5,461.25 475.25,451.0 465.75,440.625 459.75,435.0"/>
    <polyline points="457.625,433.0 452.75,428.875 444.375,422.625 430.5,414.0 422.125,409.75 417.5,407.75 407.375,404.0 396.25,400.75 384.0,398.5 377.5,397.875 364.375,397.75 357.875,398.625 351.625,400.0 345.625,402.125 340.25,404.875"/>
    <polyline points="335.5,408.5 331.625,413.0 328.75,418.125 327.0,424.125 326.5,430.75 327.125,437.75 329.0,445.25 332.0,453.0 336.125,460.75 341.0,468.375 346.5,475.875 359.0,489.625 365.625,495.75 379.0,506.5 385.625,511.0 398.125,518.625 409.625,524.25 420.125,528.375 429.5,531.375 433.875,532.375"/>
    <polyline points="438.0,533.25 449.125,535.0 458.625,535.75 466.875,536.0 490.5,535.875 496.125,536.25"/>
    <polyline points="497.375,536.375 505.5,538.0 510.375,539.75 516.625,543.125 521.625,547.0"/>
    <polyline points="522.5,547.625 542.0,565.75 551.25,572.875"/>
    <polyline points="553.125,574.0 561.625,578.75 566.75,580.875 572.75,582.75 583.5,584.75 592.375,585.125 602.875,584.625 615.5,582.5 630.75,578.25 639.375,575.125 649.0,571.125 659.5,566.125 670.75,560.0 683.0,552.625 696.0,544.0"/>
    <polyline points="709.5,533.875 723.375,522.375 737.25,509.5 750.5,495.625 762.375,480.875 772.25,466.125 779.5,451.875 783.5,439.0 783.875,428.0 780.625,419.625 774.125,413.875 765.0,411.0 753.75,410.625 741.375,412.25 728.375,415.625 715.375,420.125 702.75,425.25 690.75,430.625 669.25,441.375 643.125,455.125 623.25,464.875"/>
    <polyline points="617.625,467.375 607.625,471.125 599.0,473.875 587.75,476.0 578.375,476.75 570.125,476.25 562.875,475.0 554.5,472.25 549.0,469.625 545.625,467.625"/>
    <polyline points="544.0,466.5 539.5,463.0 534.125,457.625 531.75,454.625 527.625,448.125 525.0,442.75 522.875,437.0 521.5,430.875 520.875,424.375"/>
    <polyline points="521.0,422.125 521.625,417.625 523.0,413.125 525.5,408.75 527.25,406.625 529.375,404.625 532.125,402.625 535.25,400.875 539.25,399.25 543.875,398.0 549.5,397.0 556.25,396.5 564.125,396.5 573.625,397.25 584.75,398.875 597.75,401.625 612.875,405.625 630.125,411.25 649.75,418.75 671.375,428.375 694.625,440.125 718.5,454.125 741.875,469.875"/>
    <polyline points="763.0,486.625 780.125,503.5 792.0,519.125 797.75,532.625 797.375,542.875 792.0,549.875 782.75,553.5 771.25,554.375 758.75,553.0 746.25,550.125 734.5,546.25 723.875,542.0 714.5,537.5 706.375,533.0 699.375,528.75 693.625,524.75 684.5,517.75 670.75,505.125 664.875,500.5"/>
    <polyline points="663.0,499.5 659.125,497.875 652.875,496.75 646.125,496.875 641.5,497.625 634.25,499.25 627.125,501.5 616.0,505.875 608.125,509.75"/>
    <polyline points="606.375,510.75 599.875,514.5 595.875,517.375 590.75,522.0 588.625,524.75 587.25,527.5 586.5,530.875 586.875,533.375"/>
    <polyline points="587.125,534.25 589.125,537.25 592.625,539.875 597.875,541.875 601.25,542.5 607.125,542.875 614.375,542.375 620.0,541.375 629.5,538.625"/>
    <polyline points="633.0,537.375 636.625,536.0 644.25,532.375 652.25,528.0 660.375,522.625 672.25,513.25 679.125,506.25 684.875,499.125 687.0,495.625 689.75,489.125 690.375,486.25 690.25,483.625 689.625,481.25 688.375,479.375 686.625,477.875 684.25,476.75 681.5,476.0 678.25,475.625"/>
    <polyline points="674.625,475.5 666.625,476.375 658.0,478.25 653.5,479.375 640.0,483.625 614.875,492.875 580.875,506.875"/>
    <polyline points="578.5,507.875 568.375,512.625 562.125,516.0 557.0,519.25 554.0,521.625 551.625,524.0 548.5,528.75"/>
    <polyline points="548.125,529.625 547.25,533.75 547.25,536.375 548.25,540.875 550.0,544.75 551.75,547.625 553.25,549.75 556.0,552.75"/>
    <polyline points="557.125,553.875 562.0,558.0 566.75,561.0 570.5,562.875 577.125,565.375 585.375,567.25 588.5,567.625 595.625,568.0 608.375,567.125 618.75,565.125 630.75,561.625"/>
    <polyline points="637.5,559.125 644.75,556.125 652.375,552.5 660.5,548.25 669.125,543.25 678.0,537.5 687.25,531.0 696.625,523.75 705.875,515.75 714.875,507.125 723.375,498.0 730.875,488.625 737.25,479.375 742.125,470.25 745.125,461.875 746.25,454.5 745.375,448.25 742.5,443.375 737.875,440.0 731.75,438.0 724.375,437.375 716.25,438.0 707.375,439.625 698.25,441.875 680.0,448.0"/>
    <polyline points="671.25,451.375 620.125,472.875 603.875,478.875 594.5,481.75 582.125,484.75 571.625,486.625 559.625,487.5 552.0,487.375"/>
    <polyline points="549.625,487.25 541.0,486.0 535.375,484.625 525.5,480.75 518.375,476.5 514.375,473.5 509.25,469.0"/>
    <polyline points="508.0,467.75 501.625,461.0 477.0,431.125 467.75,421.25"/>
    <polyline points="465.125,418.625 456.0,410.25 444.5,401.25 429.625,391.75 417.25,385.125 410.25,381.875 394.125,375.75 384.875,372.875 374.875,370.375 364.25,368.25 352.875,366.875 341.0,366.125 328.875,366.5 316.75,368.125 305.0,371.25 294.25,376.25 285.25,383.125 278.25,392.125"/>
    <polyline points="274.0,403.125 272.875,415.75 274.75,429.75 279.625,444.625 287.0,459.875 296.375,474.75 307.125,489.0 318.5,502.25 330.25,514.25 341.625,524.875 352.625,534.125 363.0,542.0 372.5,548.75 381.375,554.375 389.375,558.875 396.625,562.625 403.25,565.625 409.25,567.875 419.875,571.0 428.75,572.5 432.75,572.875 443.125,572.875"/>
    <polyline points="446.25,572.625 454.625,571.625 470.625,569.125 478.25,568.5 486.75,568.75 492.875,569.875 495.75,570.75"/>
    <polyline points="497.125,571.25 501.25,573.0 505.125,575.25 512.75,580.875 519.125,586.875 530.25,598.875"/>
    <polyline points="531.875,600.625 540.625,609.625 544.875,613.375 552.375,619.0 558.375,622.625 565.5,625.875 569.75,627.375 574.375,628.625 585.375,630.25 591.875,630.5 599.375,630.125 608.0,629.125 617.875,627.25 629.375,624.25 642.5,619.75 657.875,613.5"/>
    <polyline points="675.625,605.0 696.125,593.5 719.5,578.625 745.75,559.625 774.375,536.0 804.125,507.75 833.0,475.5 858.125,440.75 875.875,406.625 883.375,376.5 879.25,353.75 864.5,340.375 842.125,336.5 816.0,340.25 789.25,349.5 764.375,361.75 742.75,375.125 724.875,388.5 710.5,401.25 699.375,412.875 691.0,423.25 685.0,432.625 680.625,440.875 677.75,448.375 675.75,455.0 674.375,460.875"/>
    <polyline points="673.5,466.25 671.875,475.25 670.875,479.0 669.625,482.375 668.125,485.375 666.125,487.875 663.875,490.0 661.125,491.875 658.125,493.375 651.25,495.5 643.5,496.625 635.25,497.25 618.375,497.0 594.625,495.5"/>
    <polyline points="591.0,495.25 574.375,493.875 553.125,491.25 542.5,489.25 536.875,487.75 530.25,485.375"/>
    <polyline points="528.625,484.75 522.75,481.875 518.75,479.5 511.125,473.75 503.875,466.75 496.5,458.25"/>
    <polyline points="495.25,456.75 476.375,434.125 465.0,422.25 456.25,414.375 449.375,408.75 436.625,400.0"/>
    <polyline points="431.75,396.875 426.375,393.875 414.0,387.75 399.5,382.0 391.25,379.25 382.5,376.875 373.0,374.75 362.875,373.125 352.25,372.25 341.375,372.0 330.375,372.875 319.5,374.875 309.25,378.375 300.0,383.5 292.375,390.25 286.75,398.875 283.5,409.0 283.0,420.625 285.0,433.375 289.625,446.75 296.25,460.375 304.75,473.75 314.375,486.625 324.75,498.5"/>
    <polyline points="335.375,509.375 345.875,519.125 356.125,527.75 365.875,535.125 375.0,541.5 383.375,546.75 391.25,551.25 398.375,554.875 405.0,557.75 416.625,562.0 421.875,563.375 431.0,565.125 435.125,565.625 439.0,566.0 446.0,566.125 455.125,565.75 467.75,564.5"/>
    <polyline points="470.0,564.25 478.125,563.75 483.625,563.75 491.875,564.625 499.25,566.625 502.0,567.75 507.375,570.5 509.875,572.125"/>
    <polyline points="511.25,573.125 516.375,577.0 520.25,580.375 531.5,591.375 542.125,601.0 551.25,607.625"/>
    <polyline points="554.0,609.375 563.5,614.0 571.375,616.5 580.875,618.375 592.875,618.875 600.0,618.5 608.0,617.5 617.125,615.75 627.5,613.0 639.375,609.125 653.0,603.625 668.5,596.375 686.25,586.875 706.125,574.625 728.125,559.25 752.125,540.375 777.25,518.0 802.125,492.125 825.0,463.875 843.5,435.0 855.0,407.75"/>
    <polyline points="858.125,384.625 852.25,367.75 838.5,358.25 819.25,355.75 797.0,359.0 774.25,366.5 752.625,376.25 733.25,387.25 716.5,398.375 702.25,408.875 690.625,418.625 681.125,427.5 667.5,442.25 658.75,453.75 645.125,474.625 641.5,478.625 637.5,481.625"/>
    <polyline points="635.375,482.875 630.875,484.625 625.75,485.875 617.625,486.75 609.0,486.75 597.375,485.875 586.125,484.375 578.25,482.875 568.5,480.375"/>
    <polyline points="566.125,479.75 557.5,476.75 551.625,474.125 544.5,470.125 539.625,466.75 535.25,463.0 531.125,458.875 527.375,454.375 525.125,451.0"/>
    <polyline points="524.0,449.375 520.0,442.0 516.625,433.875 515.25,429.5 513.75,422.625 513.0,415.25 513.625,407.625 515.0,402.5 517.625,397.5 521.75,392.625"/>
    <polyline points="524.75,390.375 528.375,388.375 532.875,386.625 538.375,385.25 545.0,384.25 553.125,383.75 563.0,384.125 574.75,385.375 589.0,388.0 606.0,392.125 625.875,398.25 649.125,406.75 675.375,418.125 704.125,432.5 734.375,450.0 764.125,470.125 791.0,491.875 812.0,513.5 825.25,533.25 829.625,549.25 826.0,560.375 816.25,566.5 802.625,568.375 787.375,566.625 772.375,562.5 758.5,556.875"/>
    <polyline points="746.5,550.5 736.625,543.75 728.625,537.0 722.25,530.375 717.5,524.125 713.875,518.125 711.125,512.375 704.125,493.375 702.5,489.75 700.625,486.375 698.5,483.625 696.0,481.25 693.125,479.375 689.875,477.875 686.375,476.875 678.375,476.125 674.0,476.25 664.875,477.5 660.125,478.375 650.625,480.75"/>
    <polyline points="645.875,482.125 632.125,486.625 607.75,495.625 580.625,506.375 571.625,510.25 566.125,513.0"/>
    <polyline points="564.375,513.75 558.625,517.0 551.375,522.375 549.25,524.75 547.25,527.75 546.25,530.125 545.75,533.375"/>
    <polyline points="545.625,534.25 546.125,538.625 546.625,540.375 547.75,543.25 550.625,548.125 554.0,552.25 557.125,555.375 561.0,558.5"/>
    <polyline points="562.5,559.5 569.375,563.5 573.625,565.25 578.625,566.75 584.25,568.0 594.375,568.875 598.375,568.875 607.125,568.125 612.125,567.375 623.25,564.75 636.25,560.5 651.125,554.0 659.375,549.75 668.0,544.75"/>
    <polyline points="677.125,539.125 686.5,532.5 696.0,525.25 705.625,517.125 714.875,508.375 723.625,499.125 731.5,489.625 738.25,480.0 743.375,470.625 746.75,461.875 748.125,454.125 747.5,447.625 744.75,442.5 740.25,438.875 734.0,436.75 726.625,436.125 718.25,436.625 709.25,438.125 700.0,440.5 690.625,443.5 672.375,450.25 640.25,464.0"/>
    <polyline points="633.25,467.0 620.625,472.25 604.25,478.25 590.375,482.375 582.375,484.25 575.125,485.5 568.625,486.25 559.875,486.75 549.75,486.375 541.125,485.0"/>
    <polyline points="539.25,484.5 535.5,483.5 528.625,480.875 521.125,476.75 512.875,470.5 505.125,462.875 502.625,459.875"/>
    <polyline points="501.25,458.375 483.25,436.25 473.125,424.375 462.5,413.625 456.0,407.75 448.5,401.625"/>
    <polyline points="444.125,398.5 439.5,395.125 434.375,391.875 422.5,385.0 415.75,381.625 400.125,374.875 391.125,371.75 381.25,368.75 370.625,366.25 359.125,364.125 347.0,362.625 334.25,362.125 321.125,362.75 308.25,365.0 296.0,368.875 285.0,374.875 276.0,383.0 269.625,393.375 266.375,405.875 266.5,420.25 270.125,435.75 276.75,451.875 285.875,468.125 296.75,483.75"/>
    <polyline points="308.75,498.5 321.125,511.875 333.375,523.875 345.125,534.25 356.25,543.125 366.5,550.75 375.875,557.0 392.0,566.375 405.25,572.25 410.875,574.25 416.0,575.625 425.0,577.25 432.625,577.75 439.375,577.5 445.375,576.75 458.0,574.25"/>
    <polyline points="460.25,573.75 472.5,571.5 478.0,571.0 483.0,571.0 489.25,571.75 493.625,572.875 497.75,574.375 501.75,576.375"/>
    <polyline points="503.0,577.125 509.375,581.75 516.75,588.75 536.875,612.0"/>
    <polyline points="538.625,613.875 544.75,620.0 549.625,624.125 555.125,628.125 561.75,631.875 565.625,633.625 574.75,636.5 580.125,637.625 586.25,638.375 593.125,638.625 601.125,638.25 610.375,637.0 621.125,634.75 633.625,631.25 648.375,626.0 665.5,618.5 685.625,608.25 709.0,594.5 735.875,576.5 766.0,553.375"/>
    <polyline points="798.625,524.625 831.75,490.625 862.375,452.5 886.375,413.25 899.625,376.875 899.375,348.0 885.875,329.75 862.375,323.0 833.5,326.0 803.625,335.75 776.0,349.5 752.25,364.625 733.0,380.0 718.25,394.375 707.375,407.625 699.75,419.5 694.875,430.25 692.0,439.875 690.5,448.5 690.0,456.375 690.375,475.75 690.125,480.875 689.375,485.5 688.125,489.5"/>
    <polyline points="686.25,493.0 683.625,495.875 680.5,498.25 676.75,500.125 668.0,502.625 658.125,503.75 653.0,504.0 637.375,503.75 596.0,501.75 578.25,501.5"/>
    <polyline points="575.125,501.625 541.625,502.5 528.5,502.25"/>
    <polyline points="527.5,502.125 522.0,501.5 518.25,500.625 513.75,498.875 510.0,496.625"/>
    <polyline points="509.5,496.25 507.0,494.125 503.125,490.0 496.875,481.75"/>
    <polyline points="496.375,480.875 485.625,465.625 474.75,451.75"/>
    <polyline points="473.375,450.125 467.25,443.375 459.75,436.0 447.625,426.0 438.375,419.75 427.375,413.5 418.75,409.5 409.125,405.75 398.375,402.625"/>
    <polyline points="392.625,401.25 380.5,399.5 374.25,399.125 367.875,399.25 361.625,399.875 355.5,401.0 349.625,402.875 344.25,405.375 339.5,408.625 335.375,412.625 332.25,417.375 330.25,422.75 329.25,428.875 329.375,435.5 330.75,442.5 333.25,449.875 336.625,457.25 341.0,464.75 346.0,472.0 357.75,485.5 364.0,491.75 377.0,502.625 383.375,507.25"/>
    <polyline points="389.625,511.375 395.75,515.125 401.625,518.25 412.75,523.5 422.75,527.25 431.875,529.875 443.75,532.25 454.0,533.5 465.375,534.0 480.75,533.875"/>
    <polyline points="482.625,533.875 490.75,533.875 499.875,534.625 506.25,536.0 512.5,538.625"/>
    <polyline points="513.375,539.0 517.5,541.5 522.25,545.25 534.5,557.125"/>
    <polyline points="535.5,558.125 542.625,564.625 550.0,570.5 557.5,575.25 561.875,577.5 567.0,579.625 572.875,581.5 579.625,582.875 587.625,583.75"/>
    <polyline points="592.125,583.875 597.0,583.875 608.25,582.625 621.75,579.75 629.5,577.375 638.0,574.375 647.25,570.625 657.375,565.875 668.375,560.125 680.125,553.125 692.75,544.875 705.875,535.25 719.375,524.25 732.875,512.0 746.0,498.625 757.875,484.5 768.0,470.125 775.625,456.125 780.25,443.25 781.375,432.125 779.125,423.25 773.625,417.0 765.25,413.5 754.875,412.375"/>
    <polyline points="743.0,413.5 730.375,416.375 717.625,420.375 705.125,425.125 693.25,430.375 671.5,440.875 630.625,461.75 613.25,469.375 599.375,474.0 591.5,475.75 581.25,477.125 572.375,477.125"/>
    <polyline points="569.75,476.875 564.625,476.125 555.75,473.875 548.0,470.5 544.5,468.5 541.25,466.375 536.75,462.75 531.375,457.25 526.75,451.0"/>
    <polyline points="525.625,449.25 523.625,445.75 521.0,440.125 518.75,434.0 517.625,429.75 516.5,422.875 516.5,415.75 516.75,413.375 517.875,408.5 520.0,403.75 523.625,399.125 526.25,396.875 529.25,394.875"/>
    <polyline points="533.125,393.0 537.625,391.5 543.25,390.25 550.0,389.5 558.125,389.25 567.875,389.875 579.5,391.375 593.25,394.0 609.5,398.125 628.375,404.125 650.125,412.25 674.375,422.875 700.875,436.25 728.25,452.25 755.125,470.375 779.25,490.0 798.5,509.5 811.0,527.375 816.0,542.125 813.875,553.0 805.875,559.5 794.125,562.125 780.375,561.5 766.375,558.625 753.0,554.25 741.0,549.0"/>
    <polyline points="730.625,543.375 721.875,537.625 714.625,532.125 708.875,526.75 700.5,517.0 697.5,512.625 689.25,498.375 687.375,495.625 683.5,491.125 681.375,489.375 676.5,486.875 673.625,486.0 667.625,485.25 660.875,485.375 653.75,486.375 646.375,488.0"/>
    <polyline points="642.625,489.0 635.375,491.125 624.75,494.75 603.0,503.375 590.625,509.125 584.5,512.375 576.25,517.5"/>
    <polyline points="574.875,518.5 573.5,519.375 569.125,523.25 566.125,527.0 564.5,529.875 563.625,532.75 563.375,536.5 563.875,539.5 565.125,542.375"/>
    <polyline points="565.625,543.375 569.5,548.125 574.25,551.75 579.0,554.25 584.875,556.25 592.25,557.625 601.25,558.0 608.5,557.5 616.75,556.125"/>
    <polyline points="621.25,555.0 631.375,552.0 642.625,547.5 655.25,541.25 668.75,533.0 675.875,528.25 689.875,517.125 696.75,510.875 703.125,504.375 709.0,497.625 714.25,490.875 718.5,484.125 721.625,477.75 723.5,471.875 724.25,466.5 723.5,462.0 721.625,458.375 718.375,455.625 714.125,453.75 709.0,452.875 703.0,452.75"/>
    <polyline points="696.5,453.375 689.625,454.625 675.375,458.375 654.125,465.75 612.375,482.0 594.0,488.375 578.875,492.75 566.5,495.5"/>
    <polyline points="563.75,496.125 556.125,497.375 547.5,498.375 540.25,498.75 531.375,498.5 527.625,498.125 522.25,497.0"/>
    <polyline points="521.25,496.75 517.625,495.5 512.125,492.75 507.875,489.625 502.5,484.375"/>
    <polyline points="501.875,483.625 494.75,475.0 480.75,456.5"/>
    <polyline points="479.625,455.0 474.25,448.625 464.125,437.875 452.75,427.875 447.25,423.625 440.875,419.25 433.75,414.875 425.625,410.5 416.375,406.25"/>
    <polyline points="411.25,404.25 400.25,400.625 394.25,399.125 381.625,396.875 374.875,396.25 368.125,396.125 361.375,396.5 354.625,397.375 348.25,399.0 342.125,401.375 336.75,404.5 332.0,408.5 328.25,413.375 325.625,419.0 324.25,425.375 324.125,432.375 325.25,439.875 327.625,447.75 331.125,455.75 335.625,463.875 341.0,471.75 347.0,479.25 353.5,486.5 360.25,493.125"/>
    <polyline points="367.125,499.25 374.0,504.875 380.75,509.875 393.875,518.25 400.0,521.625 406.0,524.5 411.625,527.0 422.0,531.0 435.625,534.625 447.125,536.625 453.875,537.25 462.75,537.625 475.0,537.625"/>
    <polyline points="477.125,537.625 488.25,537.625 498.375,538.375 506.5,540.25 511.5,542.25"/>
    <polyline points="512.375,542.75 516.125,544.875 523.375,550.25 536.5,562.375"/>
    <polyline points="537.75,563.5 541.625,567.0 547.625,571.75 555.0,576.625 561.75,580.125 570.0,583.25 576.5,584.875 584.25,586.0 593.375,586.375 604.375,585.625"/>
    <polyline points="610.625,584.625 617.5,583.25 625.0,581.25 633.375,578.5 642.5,575.125 652.5,570.75 663.5,565.25 675.25,558.625 688.0,550.75 701.5,541.375 715.625,530.5 729.875,518.125 743.875,504.5 757.125,489.875 768.625,474.75 777.875,459.625 784.125,445.375 786.75,432.875 785.625,422.5 780.875,415.0 773.0,410.375 762.5,408.625 750.375,409.25 737.375,411.875 724.0,415.875 710.875,420.875"/>
    <polyline points="698.25,426.375 675.5,437.5 648.0,452.25 633.375,459.75 621.25,465.625 610.875,469.75 598.0,473.875 590.625,475.375 584.125,476.125 575.375,476.125 570.25,475.625 565.5,474.75"/>
    <polyline points="563.25,474.25 555.125,471.375 551.5,469.625 546.5,466.625 542.0,463.125 536.75,457.875 533.375,453.5 529.625,447.0 528.0,443.5"/>
    <polyline points="527.375,441.625 525.75,435.875 525.125,432.0 525.125,425.75 525.875,421.625 527.375,417.375 528.5,415.25 530.0,413.25 534.0,409.375 536.75,407.625 543.75,404.625 548.375,403.5 553.875,402.75 560.25,402.375 567.875,402.5 576.75,403.25 587.0,404.75"/>
    <polyline points="599.125,407.375 612.875,411.0 628.5,416.125 646.125,422.75 665.375,431.25 685.875,441.5 707.0,453.5 727.75,467.125 746.75,481.625 762.875,496.5 774.75,510.625 781.625,523.125 783.375,533.375 780.5,540.875 773.75,545.5 764.375,547.625 753.5,547.75 742.125,546.25 730.875,543.625 720.25,540.375 710.5,536.875 701.75,533.25 687.25,526.5 676.25,520.625"/>
    <polyline points="671.75,518.125 656.125,509.5 649.75,506.875 644.25,505.5 637.5,505.25 634.25,505.625 628.0,507.125 622.125,509.25"/>
    <polyline points="620.75,509.875 615.5,512.5 611.125,515.25 608.375,517.375 606.25,519.5 604.125,522.25 603.125,524.875 603.25,526.75"/>
    <polyline points="603.375,527.25 604.25,528.875 606.5,530.625 610.125,531.75 612.5,532.0 618.125,531.875 625.25,530.5 633.375,527.625"/>
    <polyline points="635.625,526.75 644.75,521.875 653.625,515.625 659.375,510.25 663.75,504.75 664.75,503.0 666.0,499.75 666.25,498.25 666.0,495.625 664.625,493.5 662.125,492.125 660.5,491.75"/>
    <polyline points="658.75,491.5 654.625,491.375 649.875,491.875 642.125,493.5 633.875,495.875 615.375,503.0 604.0,508.375 598.125,511.625"/>
    <polyline points="596.375,512.625 591.5,515.75 586.25,519.75 584.125,521.625 580.875,525.5 579.25,528.375 578.375,531.25 578.25,534.0 578.875,536.625"/>
    <polyline points="579.125,537.5 580.75,540.125 582.25,541.75 585.375,544.0 587.875,545.375 591.0,546.5 596.5,547.75 600.875,548.25 608.75,548.125 618.25,546.75 625.625,544.875"/>
    <polyline points="629.5,543.625 638.125,540.375 647.375,536.0 657.25,530.375 667.5,523.5 677.5,515.625 682.25,511.25 686.75,506.75 694.375,497.5 697.5,493.0 699.875,488.625 701.5,484.375 702.5,480.625 702.5,477.125 701.75,474.125 700.25,471.75 697.875,469.875 694.875,468.5 691.25,467.75 687.125,467.375"/>
    <polyline points="682.5,467.625 677.625,468.125 667.125,470.25 650.75,475.125 574.375,503.25"/>
    <polyline points="571.75,504.125 558.875,508.625 546.75,513.375 539.75,517.0 537.0,519.0"/>
    <polyline points="536.375,519.5 534.75,521.0 533.25,523.0 531.875,526.125 531.625,530.125 532.25,533.25"/>
    <polyline points="532.375,534.0 534.75,539.875 537.125,544.0 541.75,550.5 546.25,555.625"/>
    <polyline points="547.375,556.625 553.5,562.125 558.25,565.5 561.875,567.625 568.125,570.625 576.0,573.25 585.625,575.0 593.5,575.375 602.625,575.0 613.375,573.375"/>
    <polyline points="619.5,572.0 626.125,570.25 633.375,567.875 641.25,564.875 649.75,561.125 658.75,556.625 668.5,551.25 678.75,545.0 689.625,537.625 700.75,529.375 712.0,520.0 723.0,509.75 733.5,498.75 743.125,487.25 751.25,475.75 757.5,464.5 761.375,454.0 762.75,444.75 761.5,437.25 757.625,431.5 751.625,427.875 743.75,426.0 734.5,426.0 724.25,427.375 713.625,430.0 702.875,433.375"/>
    <polyline points="692.25,437.25 682.0,441.375 662.875,449.875 638.625,461.25 625.0,467.25 613.125,472.0 602.875,475.625 589.5,479.25 578.25,481.125 571.625,481.75 562.875,481.75 557.625,481.25"/>
    <polyline points="555.125,480.875 548.25,479.5 544.0,478.25 538.25,476.0 532.875,473.25 528.0,470.125 523.375,466.625 516.25,459.875 512.125,455.125"/>
    <polyline points="510.875,453.5 502.625,442.375 481.25,409.75 474.25,400.25 465.375,389.5"/>
    <polyline points="462.0,385.75 458.125,381.75 449.125,373.5 437.875,364.375 423.375,354.625 414.5,349.625 404.375,344.375 392.625,339.0 379.25,333.625 363.75,328.5 346.125,323.75 326.125,319.75 304.0,317.0 280.25,316.375 255.625,318.625 231.875,325.0 211.0,336.5 195.75,353.875 188.125,376.875 189.5,404.875 199.5,435.75 216.25,467.375 237.375,497.875"/>
    <polyline points="260.0,525.5 282.0,549.75 302.0,570.125 319.25,586.875 345.25,611.125 354.375,619.25 366.75,629.5 370.875,632.125 373.875,633.5 376.125,633.75 378.0,632.875 379.625,631.25 381.125,628.875 388.125,614.125 392.875,605.125 401.5,591.375 408.125,582.625"/>
    <polyline points="411.5,578.5 418.375,571.0 428.75,561.25 438.625,553.5 444.875,549.25 450.75,545.75 461.375,540.375 472.75,536.125 480.5,534.125"/>
    <polyline points="482.25,533.75 490.0,532.5 497.625,532.25 502.0,532.625 505.875,533.375 510.875,535.125"/>
    <polyline points="511.75,535.5 516.25,538.0 520.5,541.25 525.0,545.25 530.5,551.0"/>
    <polyline points="531.375,551.875 540.375,560.875 544.125,564.25 550.0,568.875 553.375,571.25 559.25,574.625 563.875,576.875 569.0,578.875"/>
    <polyline points="571.875,579.75 578.375,581.375 582.0,581.875 590.25,582.625 594.875,582.625 605.5,581.75 618.25,579.375 625.5,577.375 633.5,574.75 642.125,571.5 651.625,567.375 662.0,562.25 673.125,556.0 685.0,548.625 697.5,540.0 710.5,530.125 723.75,518.75 736.75,506.375 749.0,493.0 759.875,479.25 768.75,465.375 775.0,452.125"/>
    <polyline points="778.25,440.25 778.125,430.25 774.625,422.625 768.25,417.5 759.375,414.875 748.75,414.625 736.875,416.25 724.5,419.375 712.125,423.5 700.0,428.375 677.625,438.625 628.0,463.375 616.25,468.5 606.125,472.25 597.25,474.875 589.375,476.5"/>
    <polyline points="585.875,477.125 576.125,477.75 570.375,477.625 565.125,477.125 555.875,475.0 549.75,472.75 542.5,469.0 537.625,465.625 531.875,460.5"/>
    <polyline points="530.5,459.0 526.625,454.5 522.0,447.875 518.0,440.25 515.375,434.125 513.875,429.75 512.0,422.75 510.875,415.25 510.875,407.5"/>
    <polyline points="511.125,404.75 512.5,399.5 514.875,394.25 516.75,391.625 519.125,389.125 522.0,386.875 525.625,384.75 530.125,382.875 535.625,381.25 542.5,380.25 550.75,379.75 560.875,380.0 573.25,381.375 588.125,384.0 605.875,388.375 627.125,394.875 651.75,404.125 679.875,416.375 710.875,432.0 743.375,451.125 775.125,473.125 803.125,496.625 824.5,519.875 836.75,540.375"/>
    <polyline points="839.375,556.5 833.5,567.0 821.5,572.125 806.125,572.5 789.875,569.5 774.5,564.25 760.75,557.5 749.375,550.125 740.25,542.5 733.125,534.875 727.875,527.5 724.0,520.5 721.375,513.625 719.375,507.25 716.75,495.625 714.0,485.875 712.125,481.75 709.875,478.25 707.125,475.375 703.875,473.0 700.125,471.25 696.0,470.125 691.375,469.5 686.5,469.375"/>
    <polyline points="681.25,469.75 670.375,471.375 664.75,472.625 653.625,475.75 627.5,484.5 573.25,504.0"/>
    <polyline points="570.75,504.875 549.0,513.0 542.375,516.25 537.125,519.875"/>
    <polyline points="536.625,520.375 535.125,521.875 533.75,524.0 532.75,526.75 532.5,530.375 533.375,535.0"/>
    <polyline points="533.625,535.75 536.0,541.125 540.5,548.25 544.5,553.125 549.75,558.5"/>
    <polyline points="551.0,559.5 556.625,564.0 561.75,567.25 568.125,570.25 575.75,572.875 581.875,574.125 589.0,575.0 593.0,575.125 602.125,574.75 612.75,573.25 625.25,570.125 632.375,567.875"/>
    <polyline points="640.125,565.0 648.5,561.375 657.375,557.0 667.0,551.875 677.125,545.75 687.75,538.625 698.75,530.375 710.0,521.25 721.0,511.25 731.5,500.375 741.25,489.125 749.5,477.625 756.0,466.375 760.25,455.875 762.0,446.5 761.125,438.75 757.75,432.75 752.125,428.75 744.625,426.75 735.625,426.375 725.625,427.5 715.125,429.875 704.375,433.125 693.75,436.875 673.625,445.25"/>
    <polyline points="664.375,449.5 639.75,460.875 619.875,469.5 603.625,475.5 594.375,478.25 582.375,480.75 572.125,481.875 563.25,482.0 555.375,481.25 550.625,480.375"/>
    <polyline points="548.375,479.875 542.125,478.0 536.5,475.625 533.0,473.875 526.5,469.625 522.0,466.0 516.375,460.625 508.125,450.875"/>
    <polyline points="506.75,449.125 496.875,434.875 485.25,417.125 476.625,405.125 465.375,391.375 458.125,383.75 453.875,379.75"/>
    <polyline points="449.125,375.5 438.0,366.75 431.375,362.0 423.75,357.25 415.125,352.25 405.25,347.125 393.875,341.875 380.75,336.75 365.875,331.75 348.875,327.125 329.75,323.25 308.625,320.625 285.75,319.75 262.25,321.75 239.25,327.375 218.875,337.875 203.25,353.625 194.75,375.0 194.5,401.0 202.5,430.125 217.375,460.5 236.75,490.125 258.375,517.375 279.75,541.5 299.75,562.0"/>
    <polyline points="317.375,579.125 344.5,604.0 362.25,619.125 368.25,623.75 373.0,626.875 376.625,628.75 379.5,629.375 381.75,629.125 383.75,628.0 385.5,626.125 387.25,623.75 399.625,601.875 405.125,593.75 411.125,585.75 420.75,575.0"/>
    <polyline points="424.0,571.625 430.375,565.75 439.875,558.25 448.75,552.375 454.25,549.25 459.5,546.625 466.75,543.5 473.375,541.25 477.375,540.125 486.25,538.5"/>
    <polyline points="487.875,538.25 496.375,538.0 502.5,538.75 506.75,539.75 509.75,540.875 513.5,542.625 516.125,544.25"/>
    <polyline points="517.0,544.875 518.875,546.0 526.0,551.875 536.125,561.5 542.5,567.125"/>
    <polyline points="543.875,568.25 552.125,574.375 558.25,577.875 563.0,580.125 568.375,582.25 571.5,583.125 582.0,585.375 590.75,586.0 595.625,585.875 607.0,584.875 620.625,582.0 628.375,579.75 637.0,576.75"/>
    <polyline points="646.5,573.0 656.75,568.25 668.0,562.375 680.125,555.25 693.125,546.875 706.75,537.0 720.875,525.625 735.0,512.875 748.625,498.875 761.125,484.125 771.75,469.0 779.875,454.375 784.625,440.75 785.875,429.125 783.375,420.0 777.375,413.625 768.5,410.125 757.375,409.25 745.0,410.625 731.875,413.75 718.625,418.125 705.75,423.375 693.5,428.875 671.5,439.875 661.875,445.0"/>
    <polyline points="653.0,449.75 630.875,461.125 619.0,466.625 608.875,470.625 596.25,474.375 585.75,476.125 574.0,476.25 564.25,474.75 557.75,472.875 555.875,472.0"/>
    <polyline points="553.875,471.25 548.625,468.5 543.75,465.25 539.5,461.625 534.5,456.125 531.25,451.5 528.375,446.5 526.125,441.0 524.5,435.25"/>
    <polyline points="524.125,433.25 523.625,427.0 523.875,422.75 524.875,418.375 526.875,414.125 530.0,410.0 534.75,406.25 537.875,404.5 546.125,401.875 551.5,400.875 557.875,400.375 565.375,400.375 574.25,401.125 584.625,402.5 596.625,405.0 610.625,408.625 626.625,413.625 644.5,420.25"/>
    <polyline points="664.25,428.875 685.5,439.25 707.5,451.75 729.25,465.75 749.375,481.0 766.375,496.5 779.125,511.375 786.5,524.5 788.375,535.25 785.25,543.0 778.25,547.75 768.5,549.875 757.125,549.75 745.375,548.0 733.75,545.125 723.0,541.625 713.125,537.75 704.375,533.875 696.75,530.125 684.375,523.25 665.375,511.0"/>
    <polyline points="662.875,509.375 658.375,506.625 652.5,504.0 647.125,502.75 643.5,502.5 636.375,503.125 631.0,504.375 622.25,507.375 617.5,509.5"/>
    <polyline points="616.0,510.25 610.375,513.375 606.875,515.75 604.75,517.375 601.5,520.5 599.75,522.875 598.625,525.125 598.25,526.625 598.5,529.25"/>
    <polyline points="598.75,529.875 600.625,532.25 603.875,534.0 607.25,534.875 613.125,535.25 622.875,533.875 629.875,531.75 635.0,529.75"/>
    <polyline points="637.625,528.625 643.125,525.875 648.75,522.5 656.875,516.75 664.25,510.125 669.875,503.25 671.25,501.0 673.0,496.875 673.375,493.25 673.0,491.625 671.25,489.125 669.875,488.25 666.25,487.125 664.0,486.875"/>
    <polyline points="661.5,486.75 653.0,487.625 650.0,488.25 640.375,490.75 633.75,492.875 621.125,497.5 606.875,503.5 590.875,511.5"/>
    <polyline points="589.0,512.5 583.875,515.625 578.25,519.75 576.0,521.625 572.5,525.5 571.125,527.5 569.75,530.375 569.0,534.25 569.125,537.125"/>
    <polyline points="569.375,538.0 571.0,541.875 573.0,544.625 575.875,547.25 581.25,550.5 586.5,552.5 593.0,553.875 598.25,554.375 607.5,554.0"/>
    <polyline points="611.125,553.625 618.875,552.25 627.75,549.75 637.75,546.125 648.75,541.125 654.625,538.0 666.875,530.5 679.5,521.25 685.625,516.125 691.625,510.625 702.5,499.0 707.0,493.125 710.75,487.25 713.5,481.625 715.375,476.5 716.125,471.75 715.75,467.625 714.25,464.25 711.625,461.625"/>
    <polyline points="708.125,459.75 703.75,458.625 698.75,458.25 693.125,458.5 680.75,460.625 674.25,462.25 661.25,466.25 648.5,470.75 615.0,483.625 597.0,490.125 578.75,495.875"/>
    <polyline points="575.625,496.75 561.875,500.25 547.375,503.25 539.5,504.5 530.0,505.5"/>
    <polyline points="529.0,505.5 525.5,505.75 519.0,505.5 514.0,504.25"/>
    <polyline points="513.625,504.125 511.125,502.875 509.25,501.375 505.75,497.625"/>
    <polyline points="505.5,497.25 501.875,492.375 496.25,483.5"/>
    <polyline points="495.75,482.75 486.375,468.5 476.625,455.5"/>
    <polyline points="475.5,454.0 463.5,440.75 453.0,431.375 445.125,425.375 435.75,419.25 428.375,415.25 420.125,411.25 410.875,407.625"/>
    <polyline points="405.875,406.0 395.125,403.125 389.5,402.125 377.5,400.875 365.375,401.25 359.5,402.25 353.75,403.75 348.375,405.875 343.625,408.75 339.375,412.25 336.125,416.625 333.625,421.5 332.25,427.125 332.0,433.25 332.75,439.875 334.625,446.75 337.5,453.75 341.25,460.875 345.75,468.0 350.875,474.875 356.5,481.375 368.625,493.25"/>
    <polyline points="374.875,498.5 387.25,507.625 399.25,514.75 410.25,520.25 425.125,525.875 433.75,528.25 445.375,530.5 458.125,531.75 475.375,532.0"/>
    <polyline points="477.5,532.0 493.75,531.875 501.875,532.75 509.375,534.75"/>
    <polyline points="510.25,535.125 514.875,537.5 519.375,540.625 524.5,545.125 529.25,549.875"/>
    <polyline points="530.0,550.75 537.625,558.5 546.25,566.25 550.875,569.75 556.375,573.25 562.875,576.625 565.375,577.625"/>
    <polyline points="568.0,578.625 570.75,579.625 577.125,581.25 584.5,582.375 588.625,582.625 598.0,582.625 609.375,581.375 615.75,580.125 622.75,578.375 630.5,576.0 639.0,572.875 648.25,569.125 658.25,564.25 669.125,558.5 680.75,551.5 693.125,543.375 706.0,533.75 719.25,523.0 732.375,510.875 745.0,497.75 756.5,484.0 766.25,470.0"/>
    <polyline points="773.5,456.5 777.875,444.0 778.875,433.25 776.5,424.75 771.125,418.75 762.875,415.25 752.75,414.25 741.25,415.25 729.0,418.0 716.5,421.875 704.25,426.5 692.5,431.5 681.375,436.75 671.0,441.75 637.125,459.0 624.0,465.125 607.75,471.625 594.625,475.375"/>
    <polyline points="590.75,476.25 583.625,477.25 574.25,477.75 566.125,477.125 559.0,475.75 552.5,473.75 545.0,470.25 536.75,464.75 533.875,462.125"/>
    <polyline points="532.5,460.875 527.25,455.0 522.625,448.375 518.625,440.875 516.0,434.75 513.875,428.125 512.25,421.0 511.625,416.0 511.5,411.0"/>
    <polyline points="511.625,408.375 512.5,403.125 514.375,397.875 515.75,395.25 517.625,392.75 520.0,390.25 522.875,388.0 526.5,385.875 531.0,384.0 536.5,382.5 543.375,381.5 551.625,381.0 561.625,381.375 573.75,382.625 588.5,385.375 606.0,389.625 626.75,396.0 651.0,405.0 678.5,417.0 708.875,432.25 740.625,450.875 771.625,472.25 799.25,495.125 820.5,517.875"/>
    <polyline points="833.125,538.125 836.25,554.125 831.125,564.875 819.875,570.375 805.0,571.25 789.0,568.625 773.75,563.75 760.0,557.375 748.375,550.25 738.875,543.0 731.5,535.625 726.0,528.5 721.875,521.75 718.75,515.125 716.625,509.0 712.25,492.875 710.75,488.375 709.0,484.375 706.875,481.0 704.375,478.0 701.5,475.75 698.0,473.875 694.125,472.625 690.0,471.875"/>
    <polyline points="685.375,471.625 680.5,471.75 670.25,473.0 659.75,475.375 649.125,478.375 629.125,485.125 578.125,503.875"/>
    <polyline points="575.5,504.875 562.5,509.875 554.375,513.375 550.375,515.375 545.125,518.5 542.75,520.25 540.875,522.125"/>
    <polyline points="540.25,522.75 538.125,525.75 537.375,527.75 536.875,530.375 536.875,533.125 537.25,535.375 538.875,540.25"/>
    <polyline points="539.25,541.0 542.25,546.5 545.875,551.375 549.625,555.625 555.875,561.0 560.5,564.25 564.125,566.25"/>
    <polyline points="566.125,567.25 570.5,569.125 575.625,570.875 581.5,572.25 588.25,573.125 596.25,573.375 605.5,572.625 610.75,571.875 622.625,569.25 629.25,567.25 644.25,561.5 652.75,557.625 661.625,553.0 671.25,547.5 681.25,541.125 691.75,533.75 702.375,525.5 713.0,516.25"/>
    <polyline points="723.375,506.25 733.125,495.75 741.75,484.875 749.0,474.0 754.25,463.5 757.375,453.875 758.0,445.625 756.25,438.75 752.25,433.75 746.125,430.625 738.375,429.25 729.375,429.375 719.625,430.875 709.375,433.25 699.125,436.5 679.0,444.25 630.125,466.0 612.0,473.375"/>
    <polyline points="606.625,475.25 597.0,478.25 588.375,480.5 577.125,482.5 567.5,483.25 559.0,483.125 549.25,481.875 542.75,480.25 533.375,476.625"/>
    <polyline points="531.75,475.75 526.875,472.875 520.75,468.375 515.125,463.25 511.0,458.875 505.5,452.375 495.375,438.75"/>
    <polyline points="493.875,436.625 483.375,422.0 476.875,413.625 469.0,404.375 462.75,397.75 455.25,390.625 450.875,386.875 440.875,379.0 435.0,374.75 428.375,370.5 412.625,361.75 403.25,357.25 392.625,352.75"/>
    <polyline points="380.625,348.5 367.25,344.375 352.25,340.75 335.625,337.75 317.75,336.0 298.875,335.875 279.5,337.875 261.0,342.875 244.25,351.375 231.125,363.875 223.0,380.375 220.75,400.5 224.75,423.5 234.375,447.875 248.375,472.25 265.0,495.625 282.75,517.0 300.375,536.0 317.0,552.25 332.0,565.875 345.125,577.125 366.125,593.375 381.0,603.125 386.75,606.125"/>
    <polyline points="391.625,608.125 395.75,609.25 399.375,609.75 402.5,609.625 405.25,609.0 410.375,606.625 412.75,605.0 417.25,601.125 428.625,590.25 438.125,581.875 447.75,574.875 454.625,570.625"/>
    <polyline points="456.875,569.5 463.5,566.375 467.75,564.75 473.625,563.0 481.125,561.75 484.5,561.5 491.0,561.625 495.5,562.375 501.125,564.0"/>
    <polyline points="502.5,564.5 510.375,568.5 516.75,573.125 521.875,577.375 536.625,590.875"/>
    <polyline points="538.375,592.5 542.125,595.625 548.625,600.375 553.625,603.5 562.625,607.875 570.0,610.375 579.0,612.25 584.125,612.75 589.875,613.0 596.375,612.875 603.625,612.25 611.75,610.875 621.0,608.875 631.375,605.75 643.25,601.625 656.75,595.875 672.0,588.375 689.125,578.75"/>
    <polyline points="708.125,566.625 729.0,551.625 751.375,533.625 774.375,512.375 796.875,488.5 817.125,462.75 833.0,436.75 842.875,412.375 845.125,391.875 839.625,376.75 827.375,368.0 810.125,365.375 790.0,367.875 769.125,374.125 749.0,382.625 730.5,392.375 714.0,402.25 699.875,412.0 687.875,421.0 669.5,436.375 652.0,453.375 644.5,461.5"/>
    <polyline points="641.5,464.625 634.125,472.0 630.0,475.375 623.75,478.75 619.625,480.125 615.25,481.0 610.75,481.5 606.125,481.625 594.625,480.75 585.5,479.125"/>
    <polyline points="583.375,478.625 573.0,475.625 563.75,471.75 560.5,470.0 554.375,466.0 549.25,461.5 547.0,459.0 544.125,455.0"/>
    <polyline points="543.25,453.625 541.75,450.75 540.625,447.75 539.625,443.0 539.5,439.75 539.625,438.125 541.0,433.25 542.875,430.125 544.125,428.625 547.625,425.625 552.375,423.25 555.5,422.125 563.125,420.625 573.375,420.25"/>
    <polyline points="579.5,420.625 594.5,422.875 603.375,424.875 613.25,427.625 624.125,431.125 636.0,435.625 648.5,441.0 661.75,447.25 675.25,454.625 688.625,462.625 701.25,471.375 712.75,480.5 722.375,489.625 729.875,498.25 734.625,506.25 736.75,513.25 736.25,518.875 733.25,523.125 728.5,526.0 722.125,527.75 714.75,528.375 706.75,528.25 690.25,526.375 682.25,524.875"/>
    <polyline points="674.625,523.375 654.25,519.0 637.75,516.0 628.75,514.875 621.0,514.375 611.375,514.625 603.625,515.75 597.25,517.5 593.875,518.875 588.375,522.0"/>
  </g>
</svg>
