<?xml version="1.0" encoding="utf-8" ?>
<svg xmlns="http://www.w3.org/2000/svg" xmlns:cc="http://creativecommons.org/ns" xmlns:dc="http://purl.org/dc/elements/1.1/" xmlns:ev="http://www.w3.org/2001/xml-events" xmlns:inkscape="http://www.inkscape.org/namespaces/inkscape" xmlns:rdf="http://www.w3.org/1999/02/22-rdf-syntax-ns" xmlns:sodipodi="http://sodipodi.sourceforge.net/DTD/sodipodi-0.dtd" xmlns:xlink="http://www.w3.org/1999/xlink" baseProfile="tiny" height="27.09333333cm" version="1.2" viewBox="0 0 1024.0 1024.0" width="27.09333333cm">
  <metadata>
    <rdf:RDF>
      <cc:Work>
        <dc:format>image/svg+xml</dc:format>
        <dc:source>vpype read './original_svgs/Strange Attractors #401.svg' linemerge linesimplify write './Strange Attractors #401.svg'
</dc:source>
        <dc:date>2024-08-05T01:35:55.849982</dc:date>
      </cc:Work>
    </rdf:RDF>
  </metadata>
  <defs/>
  <g fill="none" id="layer1" inkscape:groupmode="layer" inkscape:label="1" stroke="black" stroke-width="0.7mm" style="display:inline">
    <polyline points="805.125,601.875 790.375,578.625 777.0,556.5 765.375,536.125 755.75,517.875 748.125,501.875 742.25,487.875 737.75,475.875 728.875,450.0 726.5,444.375 724.0,440.125 721.125,437.0 718.0,435.125 714.375,434.25 710.25,434.5 705.625,435.5 700.625,437.25 695.25,439.5 683.625,445.625 659.375,460.25"/>
    <polyline points="653.375,463.875 625.875,480.0 616.125,485.125 603.125,491.375 585.0,498.625 573.25,502.375 559.375,506.0"/>
    <polyline points="557.5,506.5 535.375,511.125 531.375,512.25"/>
    <polyline points="530.875,512.5 529.25,513.125 527.875,514.25 527.75,515.0 528.125,515.75 529.0,516.5 532.625,518.25 539.5,520.125"/>
    <polyline points="540.25,520.25 545.5,521.125 551.0,521.5 559.75,521.25 567.25,520.25 576.75,518.25"/>
    <polyline points="579.5,517.375 592.75,513.0 600.875,509.625 615.875,502.375 634.75,491.75 658.75,476.25 677.75,462.625 688.125,454.75 710.0,437.125 731.875,417.75 742.0,408.25 751.0,399.125 758.375,391.125"/>
    <polyline points="763.625,384.625 766.5,380.125 766.625,377.875 764.0,378.25 758.75,381.0 751.375,386.125 742.25,393.0 720.625,410.875 666.25,458.125 656.875,466.0 640.125,479.375 625.75,489.75 613.375,497.5 602.5,503.25 593.125,507.25 588.75,508.75"/>
    <polyline points="584.75,510.0 577.25,511.75 570.5,512.875 567.25,513.25 555.875,513.5 550.875,513.25 541.875,512.25 531.875,510.375 523.25,508.0"/>
    <polyline points="521.5,507.5 513.625,504.75 504.625,500.875 495.625,496.25 482.5,488.5"/>
    <polyline points="480.625,487.375 465.5,477.5 400.25,433.5 324.0,383.5"/>
    <polyline points="300.75,368.5 246.0,334.625 216.5,317.625 188.75,303.25 166.25,294.25 152.875,293.875 151.75,304.375 163.375,325.875 185.625,356.5 214.0,392.5 244.375,429.875 272.875,465.75 297.625,498.25 317.625,526.625 332.875,550.75 343.875,570.75 351.25,587.125 355.75,600.25 358.0,610.5 358.625,618.125 358.375,623.5 357.5,626.625 356.625,628.0 356.0,627.5 355.75,625.375"/>
    <polyline points="356.25,622.0 357.375,617.5 359.25,612.0 361.75,605.875 364.875,599.25 368.625,592.375 372.625,585.375 381.625,571.875 391.125,559.5 400.5,548.625 405.125,543.875 409.5,539.5 417.875,532.125 425.5,526.125 432.5,521.5 438.75,517.875 447.125,513.875"/>
    <polyline points="449.625,512.75 456.375,510.375 462.125,508.75 482.25,504.75"/>
    <polyline points="482.75,504.625 484.75,503.875 485.875,502.625 485.375,500.75 484.0,499.375"/>
    <polyline points="483.75,499.0 478.125,494.625 464.5,485.75"/>
    <polyline points="463.125,484.875 426.5,462.375 395.125,444.375"/>
    <polyline points="390.5,441.875 380.875,436.75 371.125,432.0 361.625,427.75 353.25,424.625 346.5,423.25 344.125,423.375 342.375,424.0 341.5,425.25 341.375,427.125 342.0,429.75 343.625,432.875 345.875,436.5 352.75,445.0 366.625,459.5 382.875,473.875"/>
    <polyline points="388.375,478.25 399.125,486.375 414.25,496.25 427.75,503.625 435.875,507.25 443.125,510.0 452.875,513.0 461.25,514.875 472.75,516.375 476.75,516.625"/>
    <polyline points="478.5,516.75 493.0,516.875 506.125,516.5"/>
    <polyline points="506.75,516.5 513.375,516.75 519.375,517.625"/>
    <line x1="519.75" x2="533.25" y1="517.75" y2="520.875"/>
    <polyline points="534.0,521.0 543.625,522.375 548.25,522.75 555.25,522.75 564.125,521.875"/>
    <polyline points="566.25,521.5 576.0,519.5 585.125,516.75 596.5,512.5 610.75,506.0 628.875,496.125 643.75,487.125 661.25,475.5 670.875,468.625 692.25,452.5 715.25,433.625"/>
    <polyline points="726.875,423.5 738.25,413.125 748.625,403.125 757.75,393.75 765.0,385.625 769.75,379.25 771.75,375.25 770.875,373.75 767.0,375.125 760.625,379.125 751.875,385.375 741.625,393.5 718.375,413.25 672.75,453.625 645.0,477.0 629.875,488.5 623.125,493.125 611.125,500.625"/>
    <polyline points="605.75,503.5 596.125,507.875 587.5,510.875 579.875,512.875 569.875,514.375 561.125,514.75 553.375,514.375 542.125,513.0 532.5,510.875"/>
    <polyline points="530.625,510.375 523.875,508.5 514.625,505.125 504.625,500.625 493.5,494.625"/>
    <polyline points="492.125,493.75 483.625,488.375 470.375,479.0 463.375,473.5 458.75,469.375"/>
    <polyline points="458.5,468.875 461.125,469.875 467.75,473.75 493.875,490.625 533.375,517.25 736.375,656.0 820.5,712.25 905.625,766.375 972.75,802.625 1004.125,806.625 997.625,775.875 967.375,721.75 931.375,658.25 902.125,595.375 884.25,537.0 878.375,484.0 881.875,436.0"/>
    <polyline points="891.375,392.75 902.25,355.375 909.875,326.0 910.375,307.0 901.625,300.375 883.75,306.25 859.25,322.5 831.5,346.0 803.625,373.25 778.125,401.25 756.125,428.125 738.0,452.5 723.625,474.0 712.5,492.5 704.25,508.125 698.125,521.125 685.5,552.25 683.375,555.875 681.25,558.25 678.875,559.5 676.125,559.75 673.125,559.25 669.75,558.0"/>
    <polyline points="666.125,556.25 634.5,538.375 625.0,533.375 611.5,527.125 603.0,523.75 591.125,519.625 574.125,515.25 565.375,513.625"/>
    <polyline points="562.625,513.25 555.125,512.125 531.0,509.625 519.625,508.125"/>
    <polyline points="518.5,507.875 512.5,506.75 507.0,505.25 500.0,502.75 495.5,500.75"/>
    <polyline points="494.625,500.375 478.5,491.75 462.75,482.25"/>
    <polyline points="460.75,481.0 422.125,457.375 397.125,442.625 378.5,432.0 364.875,424.625 351.0,417.625"/>
    <polyline points="344.125,414.375 331.75,409.375 326.5,407.875 322.125,407.25 318.875,407.5 316.875,408.875 316.375,411.375 317.125,415.0 319.375,419.625 323.0,425.125 327.75,431.5 340.0,445.75 354.5,460.625 369.625,474.75 384.5,487.375 391.5,492.875 404.5,502.375 421.625,512.875"/>
    <polyline points="426.75,515.5 431.5,517.75 440.25,521.25 448.0,523.75 454.875,525.5 464.125,526.875 474.375,527.625 481.0,527.625 495.25,527.0"/>
    <polyline points="496.75,526.875 506.25,526.375 515.625,526.375 526.5,527.125"/>
    <polyline points="527.5,527.125 539.625,528.125 548.625,528.25 555.875,527.875 567.375,526.25"/>
    <polyline points="570.125,525.625 576.125,524.125 586.875,520.75 600.5,515.25 611.75,509.875 625.25,502.625 641.375,493.0 660.875,480.125 671.875,472.375 696.875,453.5 724.75,430.5 739.25,417.75 753.375,404.625 766.625,391.625 778.0,379.625"/>
    <polyline points="786.875,369.25 792.375,361.375 793.875,356.875 791.375,356.25 785.0,359.375 775.25,366.125 763.125,375.75 749.25,387.375 734.75,400.375 706.125,427.125 659.375,471.875 634.5,493.75 621.625,503.625 611.0,510.5 601.875,515.125 594.0,518.125"/>
    <polyline points="590.5,519.125 583.875,520.5 578.0,521.125 570.125,521.125 565.375,520.75 549.25,517.875 537.0,514.5"/>
    <polyline points="535.75,514.0 524.0,510.125 526.5,512.0 533.625,516.25"/>
    <polyline points="536.375,517.875 608.75,562.125 637.125,579.125 669.25,597.75 685.5,606.75 701.125,614.75 715.375,621.25 727.375,625.75 736.375,627.75 742.125,626.75 744.375,623.125 743.5,617.0 740.0,608.75 734.25,599.125 727.0,588.5"/>
    <polyline points="718.875,577.75 701.75,556.75 685.625,538.5 678.25,530.75 665.125,517.75 654.125,508.125 649.375,504.25 641.125,498.375 634.125,494.375 631.125,493.0 625.75,490.875 621.125,489.75 615.375,489.125 610.875,489.375"/>
    <polyline points="609.625,489.5 604.0,490.875 601.625,492.125 601.5,492.5 603.625,492.375 606.625,491.375"/>
    <polyline points="607.625,491.0 617.25,486.875 634.125,477.75 647.125,469.375 660.5,459.875"/>
    <polyline points="663.0,457.875 672.75,449.75 675.5,446.75 675.625,446.0 674.375,446.25 667.75,449.875 641.375,466.625"/>
    <polyline points="638.0,468.75 625.25,476.5 610.625,484.625 580.125,499.875"/>
    <polyline points="579.0,500.375 574.125,503.25 572.0,505.375 572.0,506.125 572.625,506.75 574.0,507.125 577.0,507.125"/>
    <polyline points="578.0,507.0 584.25,506.0 591.375,504.0 600.75,500.625 609.5,496.75 628.5,486.875 648.125,474.75"/>
    <polyline points="653.625,471.125 665.125,463.0 677.25,453.875 695.0,439.5 709.625,426.125 715.75,419.5 717.375,417.375 717.875,416.0 717.25,415.625 715.625,416.125 709.125,419.75 699.375,426.5 667.625,450.125"/>
    <polyline points="661.0,455.0 648.125,464.25 630.125,476.25 614.25,485.625 604.75,490.5 596.25,494.5 588.375,497.75 581.375,500.25 571.875,503.25 556.625,506.75"/>
    <polyline points="554.5,507.125 538.875,509.25 528.5,510.0 522.625,510.125"/>
    <polyline points="522.0,510.125 516.625,510.0 510.0,509.125"/>
    <polyline points="509.625,509.0 507.25,508.375 501.0,505.875"/>
    <polyline points="500.625,505.625 493.125,501.75 487.375,498.375"/>
    <line x1="486.625" x2="455.875" y1="498.0" y2="479.125"/>
    <polyline points="453.875,477.875 418.375,456.375 389.875,440.0 367.125,427.875 350.125,420.125"/>
    <polyline points="345.125,418.25 340.5,416.75 336.5,416.0 333.375,415.875 331.125,416.5 329.875,417.875 329.625,420.125 330.625,423.25 332.5,427.125 335.5,431.75 339.375,436.875 349.375,448.25 361.375,460.375 367.75,466.25 374.125,472.0 386.875,482.625 399.125,491.875 405.0,495.875 415.75,502.625 425.625,508.0"/>
    <polyline points="430.125,510.25 438.625,513.875 446.125,516.5 459.125,519.75 467.375,521.0 474.375,521.625 493.75,521.625"/>
    <polyline points="495.125,521.5 511.25,521.25 519.5,521.75"/>
    <polyline points="520.375,521.875 537.75,524.125 543.375,524.5"/>
    <polyline points="544.625,524.625 551.75,524.75 556.75,524.5 562.625,523.875 572.125,522.125 588.0,517.375 600.625,512.25 611.0,507.375"/>
    <polyline points="616.875,504.375 637.875,492.375 655.0,481.25 664.75,474.5 686.5,458.625 710.625,439.25 735.875,417.25 747.875,406.0 758.75,395.25 767.875,385.375 774.75,377.125 778.75,371.25 779.5,368.125 776.875,368.0 771.125,371.0 762.625,376.75 752.125,384.875 740.125,394.875 714.625,417.25"/>
    <polyline points="702.0,428.75 667.75,459.75 649.0,476.125 633.25,488.75 619.875,498.25 614.0,501.875 603.625,507.625 598.875,509.75 594.5,511.5 586.5,514.0 576.125,516.125 567.0,516.75 559.125,516.5"/>
    <polyline points="556.625,516.25 547.625,515.125 536.125,512.625 521.875,508.125 514.0,504.875 527.25,509.125 540.5,511.875 552.0,513.125 559.875,513.25 565.625,513.0"/>
    <polyline points="470.25,480.875 482.625,488.875 494.375,495.75 505.125,501.125 512.75,504.375 501.75,498.625 499.5,496.875 510.25,502.875"/>
    <polyline points="514.0,505.125 541.5,522.25 625.625,576.125 682.25,612.0 714.25,631.625 746.5,650.625 776.5,666.75 801.0,677.75 817.875,681.625 825.5,677.5 824.5,665.875 816.75,648.5 804.5,627.375 763.125,560.875 751.875,541.375 742.5,524.0"/>
    <polyline points="735.0,508.5 729.125,495.125 724.75,483.5 721.5,473.5 715.375,451.75 713.75,447.0 712.0,443.25 710.125,440.5 707.875,438.625 705.125,437.625 702.0,437.5 694.5,439.25 690.125,441.0 675.5,448.75 638.875,471.0"/>
    <polyline points="633.875,473.875 620.0,481.625 600.125,491.5 590.125,495.75 578.75,500.0 558.375,506.375"/>
    <polyline points="557.0,506.875 545.25,510.5 541.5,512.375 540.375,513.25 540.0,514.0"/>
    <polyline points="540.0,514.25 540.0,515.125 542.0,516.75 545.625,518.0 550.25,518.75"/>
    <polyline points="551.25,518.875 558.125,519.125 564.25,518.625 574.125,517.0 581.75,515.0 591.0,511.875 606.875,505.25"/>
    <polyline points="611.625,502.875 622.25,497.25 634.625,490.125 657.125,475.75 674.75,463.125 694.125,448.25 714.25,431.5 733.375,414.125 748.75,398.5 754.0,392.375 757.25,387.875 758.125,385.25 756.625,384.75 752.75,386.375 746.875,390.125 730.375,402.5"/>
    <polyline points="720.5,410.5 660.25,461.25 643.5,474.375 628.875,485.0 622.25,489.375 616.125,493.125 604.875,499.25 599.875,501.625 590.5,505.375 586.25,506.875 578.5,509.0 568.125,510.875 561.875,511.5"/>
    <polyline points="559.0,511.625 551.0,511.75 543.875,511.375 533.5,510.0 519.5,506.75 510.125,503.5"/>
    <polyline points="508.625,503.0 501.125,499.75 488.5,493.25 462.875,477.75"/>
    <polyline points="460.0,475.875 405.5,440.75 351.25,406.5 320.75,388.0 286.5,368.375 269.25,359.375 253.25,351.875 239.875,347.125 230.25,345.875 225.625,349.125"/>
    <polyline points="226.75,357.375 233.625,370.25 245.25,387.125 260.5,406.75 277.875,427.625 313.25,468.75 368.125,530.75 385.5,549.875 397.875,562.75 402.75,567.25 410.375,573.375 413.5,575.125 416.375,576.375 419.0,577.0 421.375,577.125 425.875,576.25 430.125,574.5"/>
    <polyline points="432.25,573.25 449.5,561.375 462.375,553.375 472.5,548.25 476.375,546.625 483.75,544.125"/>
    <polyline points="485.5,543.5 493.75,541.5 500.0,540.5 510.125,539.75 522.625,540.25"/>
    <polyline points="524.0,540.375 541.375,542.0 551.375,542.125 564.5,541.0 571.125,539.75 578.875,537.75"/>
    <polyline points="583.25,536.375 593.5,532.625 606.25,527.0 613.75,523.25 631.75,513.25 642.625,506.625 654.875,498.625 669.0,489.0 684.875,477.5 703.0,463.75 723.125,447.625 745.25,428.875 769.0,407.75 793.375,384.75 817.0,360.875 837.5,338.125 852.75,318.75 860.125,305.625 858.625,300.625 848.125,304.75 830.375,317.25 808.0,336.25 783.875,359.125"/>
    <polyline points="760.0,383.5 738.125,407.625 718.875,430.125 702.625,450.5 689.125,468.375 678.25,483.875 662.75,508.25 657.375,517.5 645.25,540.875 642.0,546.5 640.5,548.375 637.5,550.25 636.0,550.625 634.25,550.5 632.375,550.125 628.25,548.625 621.0,545.0"/>
    <polyline points="618.375,543.625 601.125,535.125 586.375,528.75 570.0,522.875 551.125,517.25"/>
    <polyline points="549.0,516.625 533.75,512.125 523.875,508.875 516.5,506.0 508.375,502.375"/>
    <polyline points="507.125,501.75 500.875,498.5 495.25,495.125 490.5,492.0 488.125,490.125 487.875,489.625 490.75,490.875"/>
    <polyline points="492.625,492.0 515.875,506.125 537.0,519.625 655.375,597.125 694.375,622.25 737.125,649.375 780.75,675.875 820.5,697.875 851.0,711.0 868.25,712.25 871.375,701.0 862.875,679.25 847.25,651.0 828.75,619.875 810.75,588.75 795.5,559.625 783.5,533.0"/>
    <polyline points="774.875,509.375 769.25,488.5 766.125,470.125 764.75,454.25 764.25,419.75 763.25,412.625 761.25,407.875 758.0,405.25 753.25,404.625 747.125,406.125 739.875,409.375 731.625,414.0 722.625,419.625 703.625,433.125 666.5,460.75 650.125,472.375 635.5,482.125 628.75,486.25"/>
    <polyline points="622.5,489.875 610.875,495.875 600.625,500.375 591.5,503.75 579.375,507.125 569.0,509.0 559.875,510.0 549.375,510.375 536.375,509.625"/>
    <polyline points="534.5,509.375 524.125,507.875 516.5,506.125 509.5,504.0 497.25,499.125"/>
    <polyline points="495.875,498.5 487.25,494.125 477.25,488.5 462.25,479.5 444.125,468.125"/>
    <polyline points="440.25,465.75 380.0,428.625 351.0,411.625 329.375,399.625 307.75,388.875 298.0,384.75 289.375,381.875 282.75,380.875 278.25,381.75 276.5,385.0 277.625,390.5 281.5,398.375 288.0,408.0"/>
    <polyline points="296.5,419.25 306.625,431.375 317.625,443.875 340.625,468.5 362.5,490.125 372.5,499.5 381.75,507.75 398.0,521.25 405.0,526.5 417.375,534.75 427.625,540.25 432.125,542.25 440.25,545.0 447.375,546.5 456.5,547.25 461.875,547.0"/>
    <polyline points="464.375,546.75 469.125,546.25 493.875,542.0 504.625,541.0 508.875,540.875"/>
    <polyline points="510.375,540.875 515.875,541.0 538.125,543.25 549.75,543.75"/>
    <polyline points="551.875,543.75 559.5,543.375 572.125,541.375 584.875,537.75 595.625,533.75 609.0,527.625 617.0,523.5 636.5,512.5 648.25,505.0 661.75,496.125 677.25,485.25 694.875,472.125 714.75,456.5 737.0,438.25 761.25,417.125 786.875,393.5"/>
    <polyline points="812.625,368.25 836.375,343.0 855.375,320.25 867.0,303.0 869.125,294.0 861.125,294.875 844.5,305.375 821.875,323.75 796.5,347.25 770.875,373.125 747.25,399.125 726.5,423.75 709.0,446.0 694.75,465.625 683.375,482.5 674.625,497.0 667.75,509.25 658.875,527.875 650.125,551.125 647.875,554.25"/>
    <polyline points="646.5,554.875 643.375,554.75 639.25,553.125 615.875,540.0 605.75,534.75 599.0,531.625 589.125,527.5 573.75,522.125"/>
    <polyline points="570.875,521.25 555.25,516.75 532.125,510.875 518.5,506.625"/>
    <polyline points="517.0,506.125 506.25,501.875 498.75,498.25 490.75,494.0 476.0,485.125"/>
    <polyline points="473.75,483.75 457.75,473.5 412.75,443.75 357.75,408.25 324.25,387.125 304.625,375.125 283.5,362.5 261.625,349.875"/>
    <polyline points="240.125,338.375 220.625,329.375 205.375,324.625 196.5,325.75 195.375,333.75 202.5,348.75 216.875,369.75 236.375,394.875 258.375,421.875 302.125,474.375 337.125,517.625 350.625,535.0 361.375,549.625 370.0,561.75 391.125,593.5 393.0,595.625 394.5,596.75 396.0,597.0 397.5,596.625 398.875,595.5"/>
    <polyline points="400.5,593.875 413.5,577.625 419.0,571.25 430.875,559.375 439.75,551.75 445.625,547.375 456.625,540.375 466.5,535.25"/>
    <polyline points="468.875,534.25 477.375,530.875 486.625,528.125 498.75,525.75 508.5,524.875"/>
    <polyline points="509.625,524.875 517.875,524.875 535.5,526.375"/>
    <polyline points="536.625,526.5 547.375,527.0 555.875,526.625 562.125,525.875 569.5,524.625 575.25,523.25 589.25,518.75"/>
    <polyline points="593.5,517.0 608.625,510.375 614.5,507.375 628.125,499.875 644.375,490.0 663.875,477.0 674.875,469.125 699.375,450.375 712.625,439.625 726.25,428.0 740.0,415.75 753.25,403.25 765.375,391.25 775.625,380.25 783.25,371.0 787.625,364.375 788.25,360.875 785.25,360.875 778.625,364.5 769.0,371.25"/>
    <polyline points="757.125,380.625 744.0,391.875 716.25,416.875 657.5,471.625 640.25,486.625 626.125,497.75 614.375,505.75 604.375,511.25 599.875,513.25 591.875,516.25 588.25,517.25 581.5,518.625 572.5,519.375"/>
    <polyline points="569.875,519.375 560.0,518.75 549.5,517.0 540.5,514.875 525.25,510.0"/>
    <polyline points="524.25,509.5 516.25,506.25 539.625,520.375"/>
    <polyline points="545.375,523.875 624.0,572.625 661.375,595.25 681.75,607.25 702.25,618.75 721.75,629.0 739.0,637.0 752.875,641.875 762.5,643.0 767.5,640.125 767.875,633.5 764.375,623.75 757.75,611.75 749.25,598.5 739.5,584.625 719.625,558.0 701.75,535.125"/>
    <polyline points="694.0,525.5 681.0,509.625 670.75,497.875 659.5,486.25 653.75,481.5 646.75,477.5 642.875,476.125 639.375,475.625 633.125,476.125 626.25,478.25"/>
    <polyline points="625.0,478.75 615.125,483.75 611.25,486.25 610.375,487.125 610.5,487.5"/>
    <polyline points="610.75,487.5 615.0,486.25 625.125,481.375 638.375,473.625"/>
    <polyline points="640.25,472.375 647.625,467.5 657.375,460.25 660.75,457.375 662.625,455.5 662.75,454.875 660.75,455.5 657.125,457.375"/>
    <polyline points="655.625,458.25 632.25,472.5 604.125,488.5"/>
    <polyline points="602.625,489.25 592.625,495.0 589.5,497.625 589.375,498.375 589.625,498.625 591.375,498.75"/>
    <polyline points="592.0,498.75 595.5,498.0 602.25,495.875 616.75,489.5 631.25,481.625 645.5,472.75"/>
    <polyline points="649.375,470.25 669.125,456.0 680.125,447.125 688.5,439.625 691.875,436.0 693.0,434.125 692.625,433.75 691.75,434.0 688.125,435.75 682.5,439.25 666.875,449.875"/>
    <polyline points="662.375,452.875 648.625,462.25 635.0,471.0 618.25,481.0 607.0,487.0 597.0,491.875 583.125,497.875 574.25,501.25"/>
    <polyline points="572.25,502.0 558.75,506.875 552.625,509.5 549.875,511.375 549.25,512.25"/>
    <polyline points="549.125,512.5 549.125,513.5 549.625,514.25 551.5,515.25 553.25,515.75 558.25,516.375 562.75,516.25"/>
    <polyline points="564.125,516.25 570.375,515.5 576.25,514.375 583.375,512.5 595.375,508.25 602.75,505.25 621.0,496.25 638.625,486.0 652.5,477.0"/>
    <polyline points="660.125,471.75 676.625,459.875 694.375,446.0 703.5,438.625 721.0,423.25 728.875,415.875 741.5,402.875 745.625,397.875 747.875,394.375 748.125,392.625 746.5,392.5 742.75,394.25 730.625,402.625 713.75,415.75 667.25,453.875 658.625,460.625"/>
    <polyline points="650.5,467.0 635.5,478.0 622.125,486.75 610.375,493.625 595.25,500.875 582.375,505.375 574.875,507.375 568.125,508.75 559.0,509.875 551.0,510.25 543.875,510.125"/>
    <polyline points="541.75,510.125 531.75,509.125 523.125,507.625 511.125,504.375 501.375,500.625"/>
    <polyline points="500.0,500.0 495.75,498.125 485.125,492.625 472.125,485.125 451.375,472.25"/>
    <polyline points="447.875,470.125 401.875,441.25 367.125,420.125 345.625,407.5 322.125,394.5 310.25,388.375 298.75,382.875 288.375,378.625 279.625,376.0 273.0,375.375 269.125,377.125 268.5,381.625 271.0,388.75"/>
    <polyline points="276.625,398.25 284.75,409.875 295.125,422.75 306.75,436.375 319.0,450.125 331.5,463.5 355.375,488.0 366.125,498.5 385.125,516.0 393.375,523.0 407.5,534.0 413.625,538.25 424.125,544.375 432.875,548.25 440.375,550.375 449.875,551.625 455.5,551.5"/>
    <polyline points="458.0,551.25 465.25,550.25 490.125,544.875 498.0,543.75 503.875,543.375"/>
    <polyline points="505.25,543.25 512.25,543.25 521.875,544.125 542.0,547.0"/>
    <polyline points="543.875,547.125 550.0,547.625 559.875,547.5 565.75,546.875 576.75,544.75 591.25,540.125 597.25,537.75 611.625,531.125 630.5,521.0 642.0,514.0 655.25,505.375 670.75,494.875 688.625,481.875 709.125,466.125"/>
    <polyline points="732.625,447.125 758.875,424.75 787.5,398.75 817.25,370.125 845.75,340.5 869.875,312.5 885.875,290.0 890.75,277.0 883.0,276.125 864.375,287.375 838.25,308.625 808.875,336.25 779.875,366.5 753.625,396.625 731.375,424.75 713.5,449.875 699.625,471.875 689.25,490.75 681.875,506.75 676.875,520.125 673.75,531.25 672.0,540.5 671.125,548.0 670.875,562.125"/>
    <polyline points="670.75,564.375 670.375,565.75 669.5,566.25 666.375,565.0 642.375,547.75 629.125,539.25 620.25,534.25 603.25,526.0 595.25,522.875 584.375,519.25"/>
    <polyline points="580.875,518.25 574.5,516.5 555.25,512.75 526.0,508.875"/>
    <polyline points="524.625,508.625 511.5,506.0 505.375,504.125 497.375,501.0"/>
    <polyline points="496.375,500.5 488.875,496.875 480.125,492.125 461.75,481.125"/>
    <polyline points="459.5,479.75 416.625,453.5 394.5,440.375 359.5,420.75 344.375,413.125 337.0,409.75"/>
    <polyline points="330.125,406.75 323.75,404.5 318.375,403.125 314.0,402.75 311.125,403.625 309.625,405.625 309.875,409.0 311.625,413.625 315.0,419.375 325.625,433.5 332.5,441.5 348.125,457.875 356.25,465.875 364.5,473.625 380.375,487.625 395.125,499.25 408.25,508.5 419.875,515.625 430.125,520.875"/>
    <polyline points="434.75,522.875 443.25,526.0 450.75,528.125 463.5,530.25 476.375,530.75 498.5,529.5"/>
    <polyline points="500.0,529.375 507.0,529.0 518.125,529.0 531.375,529.875"/>
    <polyline points="532.75,529.875 541.125,530.375 549.375,530.375 562.0,529.25 573.125,527.0 587.75,522.375"/>
    <polyline points="592.25,520.75 608.125,513.625 621.375,506.75 629.125,502.375 646.875,491.375 668.5,476.75 680.875,467.75 694.375,457.5 708.75,446.0 724.0,433.375 739.625,419.75 755.25,405.375 770.0,391.0 783.25,377.25 793.75,365.125 800.75,355.75 803.375,350.0 801.25,348.375 794.75,351.375 784.5,358.375 771.25,368.75"/>
    <polyline points="756.25,381.625 740.5,395.875 724.875,410.75 651.875,482.625 636.25,496.875 629.75,502.375 623.875,507.0 613.625,514.125 609.25,516.75 601.375,520.5 591.375,523.5 585.625,524.375 577.875,524.5"/>
    <polyline points="575.5,524.375 568.875,523.625 557.5,521.375 537.625,515.875"/>
    <polyline points="537.0,515.75 535.875,515.375 534.875,515.5 538.0,517.875 550.625,525.625 588.75,548.5"/>
    <polyline points="597.25,553.625 638.75,577.75 662.125,590.5 673.5,596.25 684.25,601.25 693.75,605.125 701.75,607.75 707.875,608.625 711.875,607.875 713.75,605.375 713.625,601.5 711.5,596.125 707.875,589.75 703.0,582.75 690.875,567.75 677.25,553.25 663.625,540.375 651.0,529.625"/>
    <polyline points="645.125,525.25 634.375,517.875 624.75,512.375 616.375,508.375 612.625,506.875 605.75,504.75 597.0,502.875 587.625,502.25 580.625,502.75 574.5,504.0"/>
    <polyline points="573.5,504.375 570.125,505.75 568.875,506.875 568.875,507.75 569.25,508.125 571.125,508.625 576.25,508.5"/>
    <polyline points="577.375,508.375 584.75,506.875 593.0,504.375 610.25,497.25 621.75,491.375 635.5,483.5 657.75,469.0"/>
    <polyline points="664.0,464.625 683.25,450.0 702.0,434.375 716.5,420.625 721.625,414.5 722.5,412.75 722.125,412.125 720.625,412.375 717.875,413.75 714.0,416.125 703.75,423.25 656.125,459.0"/>
    <polyline points="649.375,463.875 636.625,472.625 619.375,483.375 609.125,489.0 595.5,495.5 587.5,498.75 573.75,503.25 562.25,506.0 550.625,507.875"/>
    <polyline points="548.625,508.125 543.0,508.75 533.75,509.25 524.375,509.25 517.25,508.75"/>
    <polyline points="516.5,508.625 508.375,507.125 500.75,504.5"/>
    <polyline points="500.125,504.25 492.25,500.5 481.25,494.25"/>
    <line x1="480.125" x2="433.0" y1="493.625" y2="464.75"/>
    <polyline points="429.5,462.75 404.125,447.625 388.125,438.5 370.25,428.875 357.875,422.75 346.25,417.5 336.125,414.125 332.125,413.375 329.0,413.375 326.875,414.25 325.875,416.0 326.0,418.75 327.25,422.25 329.75,426.625"/>
    <polyline points="333.25,431.75 343.0,443.5 348.875,449.875 361.75,462.75 368.5,469.0 382.0,480.625 395.0,490.75 401.125,495.125 407.0,499.125 417.875,505.875 422.875,508.625 432.25,513.125 440.625,516.5 448.125,519.0 454.875,520.75 461.0,521.875"/>
    <polyline points="463.75,522.375 471.5,523.125 480.25,523.5 506.375,522.75"/>
    <polyline points="507.5,522.75 517.125,523.0 530.75,524.375"/>
    <polyline points="531.625,524.5 540.25,525.375 551.375,525.625 556.5,525.375 562.625,524.625 569.625,523.375"/>
    <polyline points="572.375,522.75 581.5,520.25 592.875,516.25 602.125,512.375 612.875,507.125 619.125,503.875 633.125,495.875 641.125,491.0 659.375,479.0 669.75,471.75 692.625,454.5 705.125,444.625 718.0,433.875 744.0,410.75 756.0,399.125 766.5,388.25"/>
    <polyline points="775.0,378.625 780.75,371.25 783.125,366.375 782.125,364.75 777.5,366.375 770.0,371.125 759.875,378.625 748.0,388.25 735.125,399.25 721.875,411.125 662.5,465.5 644.5,481.125 636.625,487.5 623.0,497.75 616.875,501.75 606.25,507.875 597.0,512.125 592.875,513.625"/>
    <polyline points="589.0,514.875 581.75,516.5 575.25,517.375 569.375,517.75 559.0,517.375 552.25,516.5 544.125,515.0 530.5,511.375"/>
    <polyline points="529.0,510.875 520.75,507.875 514.0,505.0 507.125,501.375 507.5,501.5"/>
    <polyline points="507.875,501.75 515.0,505.75 545.25,524.25 657.375,594.875 709.0,625.875 734.875,640.5 758.375,652.375 777.625,660.25 790.875,662.875 797.375,659.5"/>
    <polyline points="797.5,650.75 792.125,637.5 783.0,621.125 771.625,603.375 726.875,536.5 718.5,523.25 705.25,501.625 689.75,473.875 685.0,465.875 680.875,460.625 678.875,458.875 676.875,457.625 672.625,456.5 667.875,456.75 665.25,457.375"/>
    <polyline points="662.625,458.25 654.125,461.75 645.0,466.375 613.25,483.625 595.875,492.375"/>
    <polyline points="594.125,493.25 582.5,499.25 579.625,501.125 578.25,502.25 577.625,503.25 577.75,503.875 578.625,504.375"/>
    <polyline points="579.0,504.375 581.625,504.5 587.0,503.625 593.25,501.875 601.625,498.875 612.5,494.125 626.25,486.875"/>
    <polyline points="630.25,484.625 643.5,476.5 653.375,470.0 669.125,458.75 679.75,450.5 690.0,442.125 698.875,434.25 707.75,425.125 709.25,423.25 709.75,422.0 709.375,421.625 708.0,421.875 705.875,423.0 699.125,427.125 694.625,430.25"/>
    <polyline points="689.75,433.625 667.0,450.25 643.375,466.75 622.125,480.125 612.625,485.5 596.0,493.625 585.375,498.0 573.375,502.125"/>
    <polyline points="570.625,502.875 555.25,506.875 533.375,511.125"/>
    <polyline points="532.625,511.25 527.25,512.625 525.0,513.875 524.75,514.625 525.5,515.75 527.5,517.0 529.125,517.625"/>
    <polyline points="529.5,517.875 533.125,519.125 538.125,520.375 546.0,521.5"/>
    <polyline points="547.125,521.625 556.125,521.75 561.125,521.375 571.375,519.75 579.25,517.75 588.75,514.75 605.25,507.875"/>
    <polyline points="610.25,505.5 627.875,496.0 634.75,492.0 650.25,482.25 668.25,469.875 678.125,462.625 699.5,446.0 710.75,436.75 722.0,427.0 732.875,417.125 752.25,398.25 759.75,390.125 765.0,383.625 767.75,379.125 767.75,376.875 765.0,377.375 759.625,380.25 752.0,385.5 732.0,401.375"/>
    <polyline points="720.625,410.875 675.875,450.125 656.5,466.625 639.75,480.0 625.375,490.375 619.0,494.5 607.5,501.25 602.375,503.75 597.5,506.0 588.625,509.25 584.625,510.5 577.125,512.25 570.375,513.25 561.375,513.75"/>
    <polyline points="558.625,513.875 551.0,513.5 537.875,511.75 525.0,508.625 520.125,507.125 510.875,503.625"/>
    <polyline points="509.375,503.0 502.0,499.5 493.0,494.75 481.5,487.75 467.25,478.25"/>
    <polyline points="464.75,476.625 399.0,431.875 339.375,392.125 291.375,360.875 262.0,342.25 229.75,322.5 196.625,303.125 165.875,287.25 142.375,278.75 131.0,281.375"/>
    <polyline points="134.875,297.5 153.5,326.375 182.75,364.5 250.125,448.75 279.375,487.5 303.125,521.5 320.75,550.5 333.0,574.625 340.5,594.5 344.25,610.375 345.25,622.75 344.375,631.875 342.375,638.25 339.875,641.75 337.625,642.75 335.875,641.375 335.125,637.875 335.375,632.625 336.75,625.875 339.25,617.875 342.75,609.125 347.0,600.0 351.875,590.75 362.75,572.75"/>
    <polyline points="368.5,564.375 379.625,549.5 390.25,537.125 399.875,527.25 404.375,523.125 412.625,516.5 419.875,511.375 423.25,509.375 434.75,503.875 443.875,501.0 452.75,499.375"/>
    <polyline points="454.25,499.125 464.125,497.875 467.875,497.125 469.5,496.25 470.125,495.0"/>
    <polyline points="470.0,494.75 468.75,492.375 466.5,490.25 461.5,486.375 455.125,482.0"/>
    <polyline points="453.875,481.125 439.0,471.75 424.875,463.375 413.375,456.75 393.0,445.875"/>
    <polyline points="389.5,444.125 375.625,437.875 366.875,435.0 362.625,434.5 361.0,434.75 360.0,435.375 359.5,436.375 359.375,437.875 360.875,441.625 362.375,444.125 366.875,449.75 372.875,456.125 380.0,463.0 392.0,473.0"/>
    <polyline points="396.125,476.125 404.375,482.0 416.375,489.625 423.875,493.75 434.125,498.625 446.125,503.25 453.875,505.5 464.75,507.75 470.0,508.375"/>
    <polyline points="471.625,508.625 479.75,509.125 484.875,509.125 491.125,508.625 493.25,508.125"/>
    <polyline points="493.625,508.125 495.125,507.5 495.75,506.875 495.75,506.0 494.75,504.625"/>
    <polyline points="494.5,504.5 492.375,502.625 483.5,496.75"/>
    <line x1="482.75" x2="450.125" y1="496.375" y2="476.0"/>
    <polyline points="447.875,474.625 413.25,453.875 379.125,434.75 362.875,426.625 357.5,424.25 347.875,420.5 343.625,419.375"/>
    <polyline points="340.125,418.625 337.25,418.625 335.25,419.375 334.125,420.75 334.0,422.875 335.0,425.875 336.75,429.5 339.5,433.625 347.5,443.625 357.75,454.625 369.5,465.75 381.625,476.25 399.375,489.875 415.5,500.375 429.5,507.875 433.75,509.75"/>
    <polyline points="437.75,511.375 448.75,515.25 455.125,516.875 463.625,518.5 475.375,519.75 483.0,520.0 494.875,519.75"/>
    <polyline points="496.125,519.75 509.875,519.5 517.875,520.0"/>
    <line x1="518.5" x2="537.375" y1="520.125" y2="523.0"/>
    <polyline points="538.375,523.125 547.375,523.875 553.125,523.875 560.0,523.375 571.0,521.625 582.5,518.5"/>
    <polyline points="585.875,517.375 597.75,512.75 612.875,505.75 632.125,495.125 648.0,485.25 657.0,479.25 677.0,465.0 688.0,456.625 711.75,437.625 736.0,416.375 747.375,405.625 757.625,395.25 766.125,386.125 772.25,378.5 775.625,373.25 775.875,370.625"/>
    <polyline points="772.875,371.0 767.0,374.125 758.75,380.0 748.375,388.0 736.75,397.625 724.5,408.125 656.875,468.5 639.875,482.5 632.375,488.125 619.125,497.375 613.25,501.0 602.75,506.625 593.625,510.5 589.5,511.875 578.25,514.625"/>
    <polyline points="575.0,515.125 565.875,515.75 560.375,515.75 548.375,514.625 538.25,512.75 532.75,511.375 521.5,507.75"/>
    <polyline points="520.0,507.25 515.625,505.625 505.125,500.75 499.25,497.5 490.875,492.125"/>
    <polyline points="490.375,491.625 489.5,490.75 490.75,491.125 495.625,493.75 521.75,509.875 669.625,606.125 709.0,631.25 750.75,657.25 791.75,681.375 827.125,699.5"/>
    <polyline points="852.125,708.25 864.125,705.125 863.125,690.75 852.5,667.625 836.25,639.375 818.25,609.375 801.5,580.125 787.25,552.75 776.125,528.0 768.125,506.125 762.875,486.75 759.75,469.875 758.25,455.25 756.875,423.75 755.75,417.25 753.75,412.75 750.625,410.25 746.25,409.625 740.75,410.75 734.125,413.375 726.625,417.375 718.375,422.375 700.875,434.25"/>
    <polyline points="691.875,440.75 657.875,465.25 642.875,475.5 629.375,483.875 617.25,490.625 606.5,495.875 601.5,498.0 596.75,500.0 588.125,503.0 580.25,505.25 573.125,506.875 566.625,508.0 558.0,509.0"/>
    <polyline points="555.375,509.25 541.5,509.5 533.875,509.125 528.75,508.625 521.125,507.375 517.0,506.625 511.875,505.25"/>
    <polyline points="510.625,504.875 503.375,502.5 493.75,498.375 484.5,493.625 478.5,490.125"/>
    <line x1="476.875" x2="389.0" y1="489.25" y2="435.75"/>
    <polyline points="381.625,431.375 347.875,412.5 330.0,403.375 321.5,399.5 313.625,396.375 306.75,394.25 301.25,393.375 297.375,394.0 295.5,396.25 295.625,400.25 298.0,405.875 302.25,413.0 308.125,421.25 315.625,430.5 324.125,440.25 333.25,450.25 352.375,469.75 361.75,478.75 370.875,487.0 379.5,494.625 387.75,501.375"/>
    <polyline points="395.375,507.5 402.5,512.75 415.25,521.25 426.25,527.375 431.125,529.625 440.0,533.125 447.75,535.375 451.375,536.125 460.875,537.25 469.125,537.5 478.5,537.0 486.625,536.125"/>
    <polyline points="488.5,536.0 506.125,534.375 515.75,534.25 525.25,534.75"/>
    <polyline points="526.625,534.75 540.125,535.625 553.5,535.375 560.75,534.625 566.375,533.625 572.75,532.25 580.125,530.125"/>
    <polyline points="584.375,528.75 594.0,525.125 612.25,516.75 628.0,508.125 637.25,502.625 659.25,488.375 672.125,479.375 686.375,468.875 702.125,456.75 719.375,442.875 737.625,427.375 756.625,410.375 775.75,392.375 793.625,374.375 809.125,357.5 820.5,343.25 826.75,333.25 826.625,328.625 820.375,330.25 808.75,337.625 792.875,350.0"/>
    <polyline points="774.625,366.0 755.5,384.0 736.875,402.5 719.25,420.75 689.25,453.25 642.75,505.625 631.875,517.0 627.5,521.125 620.125,527.375 617.0,529.5 611.375,532.5 606.5,534.0 602.0,534.625 595.625,534.25"/>
    <polyline points="593.625,534.0 582.125,531.125 553.625,522.125"/>
    <polyline points="552.625,521.875 547.5,520.625 546.5,520.75 547.0,521.5 551.125,524.5 564.375,532.5"/>
    <polyline points="567.75,534.625 619.0,564.25 634.75,572.75 650.5,580.625 657.875,584.125 664.75,587.0 670.75,589.125 675.875,590.5 679.875,591.0 682.625,590.5 684.25,589.125 684.5,586.75 683.625,583.625 681.625,579.875 678.75,575.625 675.0,571.0"/>
    <polyline points="670.75,566.0 660.875,556.125 650.25,546.75 644.75,542.375 634.125,534.75 619.125,525.5 605.625,519.125 597.625,516.0 590.375,513.75 580.625,511.5 567.25,509.75"/>
    <polyline points="565.0,509.625 555.125,509.5 550.375,509.75 540.875,510.75 534.5,512.25"/>
    <polyline points="534.0,512.375 531.75,513.25 530.5,514.375 530.5,515.375 531.25,516.375"/>
    <polyline points="531.5,516.5 532.875,517.375 536.25,518.75 540.625,519.875 544.75,520.5"/>
    <polyline points="545.625,520.625 552.25,521.125 557.875,521.0 571.0,519.25 581.375,516.625 595.125,511.75"/>
    <polyline points="599.125,510.0 613.5,503.375 625.125,497.125 638.625,489.125 654.5,478.875 663.375,472.75 672.75,466.0 693.25,450.375 715.0,432.5 736.25,413.375 745.625,404.25 753.75,395.75 760.0,388.625 764.0,383.125 765.5,379.875 764.25,378.875 760.375,380.375 754.25,384.25"/>
    <polyline points="746.0,390.125 736.375,397.75 714.5,416.0 661.625,461.75 644.25,475.75 629.25,486.875 622.625,491.375 610.625,498.625 600.125,503.875 591.0,507.625 582.75,510.125 575.375,511.75 568.75,512.625"/>
    <polyline points="467.875,479.375 387.875,426.125 324.875,385.375 279.0,356.625 253.125,341.25 226.875,326.375 202.5,314.125 182.75,306.625"/>
    <polyline points="170.75,306.5 169.125,315.5 178.125,333.75 196.5,359.875 221.0,391.0 274.25,456.5 298.0,486.375 318.0,512.875 334.25,535.625 346.75,554.875 356.0,570.75 362.5,583.625 366.875,593.875 369.625,601.875 372.0,611.75 372.5,615.25 372.875,614.875 375.5,607.75 377.25,603.875 382.125,594.625"/>
    <polyline points="385.125,589.5 391.875,579.125 403.5,564.125 411.5,555.25 423.125,544.125 434.0,535.5 443.75,529.0 455.0,523.125 462.25,520.0 466.625,518.5"/>
    <polyline points="468.625,517.875 474.125,516.25 481.625,514.5 497.125,512.125"/>
    <polyline points="497.75,512.125 504.0,511.125 505.625,510.25 505.5,509.75 504.125,508.5 499.75,505.875"/>
    <line x1="499.5" x2="487.875" y1="505.75" y2="498.875"/>
    <line x1="487.125" x2="458.75" y1="498.5" y2="481.125"/>
    <polyline points="456.875,479.875 434.875,466.375 403.75,448.0 377.5,433.5 360.375,424.875"/>
    <polyline points="354.875,422.5 344.75,418.5 340.5,417.375 336.75,416.75 334.0,416.75 332.0,417.625 331.0,419.25 331.125,421.625 332.25,424.875 334.5,428.875 337.625,433.5 341.625,438.625 351.625,449.875 363.5,461.75 376.125,473.125 388.625,483.375 406.25,496.125 416.875,502.625"/>
    <polyline points="421.875,505.375 431.0,510.0 439.375,513.5 446.75,516.0 456.625,518.625 462.375,519.75 472.375,520.875 480.75,521.25 490.75,521.125"/>
    <polyline points="492.25,521.125 502.125,520.75 511.625,520.75 517.25,521.125"/>
    <line x1="518.0" x2="539.0" y1="521.125" y2="523.875"/>
    <polyline points="540.125,524.0 550.25,524.5 556.75,524.25 562.5,523.625 571.875,521.875 577.5,520.5 591.375,515.875"/>
    <polyline points="595.5,514.125 604.875,510.125 616.0,504.625 629.0,497.375 644.5,487.875 662.875,475.625 684.125,460.125 695.75,451.125 720.375,430.75 732.75,419.75 755.875,397.875 765.25,387.875 772.5,379.375 777.0,373.125 778.5,369.375 776.5,368.625 771.5,371.0 763.625,376.125"/>
    <polyline points="753.625,383.625 742.125,393.125 717.0,415.0 670.0,457.625 660.0,466.375 642.5,481.125 627.75,492.375 621.25,496.875 609.75,504.0 599.75,508.875 595.25,510.75 587.125,513.5 583.375,514.375 576.5,515.625 570.25,516.25"/>
    <polyline points="567.375,516.375 561.875,516.375 554.375,515.875 541.625,513.75 532.5,511.5 518.75,506.875"/>
    <polyline points="517.375,506.375 512.25,504.125 503.125,499.5 498.125,496.5 496.625,495.25 497.375,495.375"/>
    <polyline points="498.125,495.75 509.125,502.125 534.875,518.125 676.125,608.75 710.125,630.0 745.0,651.0 778.25,669.625 806.375,683.125 826.125,689.0 835.875,685.875 835.75,674.25 827.75,655.875 814.875,633.125"/>
    <polyline points="799.75,608.625 784.75,584.25 771.0,561.125 759.5,540.0 750.125,521.125 742.875,504.5 737.625,490.0 733.75,477.375 731.125,466.625 727.75,449.625 725.0,438.125 723.25,434.375 721.0,431.75 718.25,430.25 714.875,429.875 711.0,430.5 706.375,431.875 701.375,434.0 690.125,440.0 665.375,455.5"/>
    <polyline points="659.125,459.625 630.125,477.5 619.875,483.125 606.0,490.125 594.0,495.375 586.875,498.125 571.75,503.0 559.75,506.0"/>
    <polyline points="557.75,506.375 548.75,508.25 529.0,511.625"/>
    <polyline points="528.5,511.75 524.5,512.875 523.5,513.375 522.875,514.125 523.0,514.75 523.75,515.625 527.125,517.375"/>
    <polyline points="527.5,517.5 533.375,519.5 542.125,521.25"/>
    <polyline points="543.0,521.375 553.375,522.0 565.25,521.0 571.875,519.75 579.875,517.75 589.625,514.5"/>
  </g>
</svg>
