<?xml version="1.0" encoding="utf-8" ?>
<svg xmlns="http://www.w3.org/2000/svg" xmlns:cc="http://creativecommons.org/ns" xmlns:dc="http://purl.org/dc/elements/1.1/" xmlns:ev="http://www.w3.org/2001/xml-events" xmlns:inkscape="http://www.inkscape.org/namespaces/inkscape" xmlns:rdf="http://www.w3.org/1999/02/22-rdf-syntax-ns" xmlns:sodipodi="http://sodipodi.sourceforge.net/DTD/sodipodi-0.dtd" xmlns:xlink="http://www.w3.org/1999/xlink" baseProfile="tiny" height="27.09333333cm" version="1.2" viewBox="0 0 1024.0 1024.0" width="27.09333333cm">
  <metadata>
    <rdf:RDF>
      <cc:Work>
        <dc:format>image/svg+xml</dc:format>
        <dc:source>vpype read './original_svgs/Strange Attractors #493.svg' linemerge linesimplify write './Strange Attractors #493.svg'
</dc:source>
        <dc:date>2024-08-05T01:36:04.566336</dc:date>
      </cc:Work>
    </rdf:RDF>
  </metadata>
  <defs/>
  <g fill="none" id="layer1" inkscape:groupmode="layer" inkscape:label="1" stroke="black" stroke-width="0.7mm" style="display:inline">
    <polyline points="315.75,629.0 321.25,613.5 327.0,599.5 332.875,587.0 338.75,576.0 344.625,566.625 350.375,558.5 356.0,551.625 361.375,545.875 366.625,541.0 371.75,537.0 376.625,533.75 381.375,531.0 390.25,526.875 398.5,524.0 402.25,523.0 412.75,520.625 427.125,518.125"/>
    <polyline points="429.625,517.625 443.125,514.5 448.375,512.5 451.25,511.0 454.0,509.0 455.625,506.5 455.75,505.375"/>
    <polyline points="455.75,504.875 455.0,502.875 453.75,501.25 449.5,497.875 442.875,494.125 433.625,489.875"/>
    <polyline points="431.875,489.0 388.25,471.375 347.75,456.125"/>
    <polyline points="342.625,454.25 327.875,449.375 315.875,446.375 313.0,446.25 311.0,446.625 310.0,447.625 310.25,449.25 311.625,451.75 314.25,455.0 318.125,458.875 329.125,468.75 343.75,480.5 360.0,492.75 376.5,504.5 392.25,514.875 406.5,523.375"/>
    <polyline points="413.0,526.875 424.75,532.5 435.125,536.5 444.125,539.125 455.75,540.875 465.5,541.125 473.875,540.25 485.625,537.875 495.25,535.125"/>
    <polyline points="497.0,534.625 513.375,530.125 523.5,528.25 530.75,527.625"/>
    <polyline points="532.0,527.5 544.75,527.25 567.875,527.625"/>
    <polyline points="569.625,527.625 579.625,527.125 591.125,525.75 601.625,523.5 607.5,521.75 617.125,518.125 624.0,514.875 631.625,510.625 639.625,505.25"/>
    <polyline points="643.875,502.125 648.375,498.5 657.5,490.125 667.125,479.75 676.875,467.25 686.25,452.625 690.625,444.5 694.625,436.125 698.0,427.5 700.625,418.875 702.5,410.375 703.25,402.25 702.875,395.0 701.125,388.625 698.0,383.625 693.625,380.125 687.875,378.25 681.125,378.125 673.375,379.625 664.875,382.75 656.0,387.125 647.0,392.625"/>
    <polyline points="638.0,398.875 629.125,405.625 620.5,412.75 604.75,426.875 564.875,466.0 553.5,476.5 544.25,484.0 539.0,487.75 532.0,491.875 525.875,494.875"/>
    <polyline points="524.0,495.625 516.875,497.875 509.125,499.375 497.625,500.0 486.5,499.0"/>
    <polyline points="485.0,498.75 480.625,498.125 468.125,495.25 459.125,492.75 439.375,486.5 458.75,492.875 467.625,495.375 475.5,497.375 484.125,499.0"/>
    <polyline points="310.375,436.375 351.25,453.0 387.0,467.125 422.5,480.625 437.0,485.5 415.875,478.0 376.125,462.75 308.625,435.375"/>
    <polyline points="299.125,431.625 280.125,424.25 263.5,418.75 257.375,417.375 253.625,417.625 253.0,419.75 255.875,424.25 262.5,431.25 272.875,440.75 302.25,465.5 384.875,533.5 419.875,561.875 428.75,568.75 443.125,579.0 454.25,585.625"/>
    <polyline points="458.875,587.875 463.0,589.5 470.0,591.375 476.0,591.875 481.25,591.5 483.75,591.125 490.5,589.25 508.5,583.375 517.75,581.625"/>
    <polyline points="519.625,581.5 525.0,581.375 532.125,582.25 537.25,583.625 540.625,585.0 543.875,586.75 550.0,591.375 552.75,594.5 556.375,600.25 558.125,605.0"/>
    <polyline points="558.875,607.75 559.75,613.875 559.75,621.125 559.25,625.25 557.25,634.625 553.25,645.75 546.875,658.875 542.625,666.125 537.375,673.875 531.25,682.125 524.125,690.75 515.875,699.625 506.625,708.5 496.25,717.25 484.875,725.5 472.75,732.75 460.0,738.625 447.0,742.75 434.25,744.625 422.125,743.75 411.125,740.25"/>
    <polyline points="401.5,733.875 393.625,725.0 387.5,713.75 383.25,700.875 380.75,686.75 379.875,672.125 380.25,657.25 381.625,642.875 383.75,629.0 386.5,615.875 389.5,603.875 392.875,592.875 399.625,573.875 406.375,558.75 412.5,546.875 418.0,537.625 420.625,533.75 425.125,527.375 430.875,520.375"/>
    <polyline points="432.5,518.5 441.125,508.5 442.25,506.75 443.125,504.625 443.375,502.5 442.5,500.0 439.625,496.875"/>
    <polyline points="438.875,496.25 432.5,492.125 423.25,487.5 408.25,481.0 391.125,474.125"/>
    <polyline points="387.875,472.875 357.75,461.5 341.75,456.25 331.625,453.75 326.875,453.375 325.375,453.875 324.5,454.625 324.5,456.0 325.375,457.75 327.125,460.125 333.125,466.25 337.25,469.875"/>
    <polyline points="342.125,474.0 359.75,487.5 372.625,496.5 391.75,508.625 409.0,518.125 419.25,522.75 428.375,526.0 436.5,528.375 443.75,529.75 450.25,530.375 456.0,530.5 461.25,530.125"/>
    <polyline points="463.625,529.875 470.125,528.875 479.0,526.5 484.75,524.625 497.375,519.375"/>
    <polyline points="498.0,519.0 510.0,513.625 512.125,513.0 515.5,513.125 522.75,514.875"/>
    <line x1="523.0" x2="533.375" y1="514.875" y2="517.125"/>
    <polyline points="534.0,517.25 546.5,519.5 554.625,520.375"/>
    <polyline points="555.75,520.5 564.875,521.125 572.5,521.125 579.375,520.75 589.375,519.5 598.5,517.375"/>
    <polyline points="601.0,516.75 611.75,512.875 617.625,510.125 624.0,506.625 630.625,502.5 637.75,497.25 641.5,494.25 649.0,487.25 656.75,479.0 660.75,474.25 668.375,463.875 672.0,458.125 678.5,445.875 681.25,439.625 683.5,433.125"/>
    <polyline points="685.25,426.875 686.25,420.75 686.5,415.0 686.0,409.875 684.5,405.375 682.25,401.75 679.0,399.125 674.875,397.5 670.0,397.125 664.375,397.75 658.375,399.375 651.75,402.0 645.0,405.5 631.125,414.25 624.25,419.25 611.125,429.75 599.125,440.125 570.625,466.25"/>
    <polyline points="566.875,469.625 554.0,480.625 543.875,488.25 535.625,493.375 528.75,497.0 520.25,500.375 516.5,501.375"/>
    <polyline points="515.375,501.75 509.875,502.875 503.0,503.5 498.375,503.5 490.75,502.75"/>
    <polyline points="489.75,502.5 476.875,499.75 458.375,494.125"/>
    <polyline points="456.625,493.5 433.375,485.5 409.0,476.5 383.625,466.625"/>
    <polyline points="378.625,464.625 310.875,438.0 288.125,429.875 281.75,428.125 276.625,427.125 273.125,427.25 271.75,428.625 273.0,431.75 276.875,436.5 283.375,443.125 303.875,461.0 344.625,494.0"/>
    <polyline points="358.5,505.125 384.25,525.125 406.125,541.375 415.5,548.0 423.875,553.75 431.375,558.375 438.125,562.375 444.25,565.5 449.75,568.0 459.375,571.25 463.5,572.25 471.125,573.25 477.75,573.25 483.625,572.75 489.125,571.75 499.125,569.25"/>
    <polyline points="501.5,568.625 514.75,565.375 523.125,564.0 529.25,563.5 537.5,563.375 541.625,563.625 554.25,565.5"/>
    <polyline points="556.375,566.0 567.5,569.25 576.625,573.0 586.0,578.125 593.0,583.0 599.875,589.375 604.0,594.625 607.875,601.0 610.75,608.875"/>
    <polyline points="611.875,613.5 612.625,618.75 612.75,624.75 612.375,631.625 611.25,639.375 609.125,648.375 605.875,658.625 601.0,670.625 594.375,684.375 585.375,700.25 573.625,718.5 558.375,739.0 539.25,761.75 515.5,786.25 487.25,811.0 454.625,834.125 419.0,852.625 382.625,863.125 348.5,862.625 319.625,849.625 298.25,824.5 284.75,790.375 278.5,751.125 277.625,710.375 280.25,671.375 284.625,635.875"/>
    <polyline points="289.75,604.75 299.25,555.875 306.625,522.875 309.625,511.0 312.375,501.875 315.0,494.875 317.75,489.75 320.75,486.25 324.125,484.125 327.75,483.25 332.0,483.375 336.5,484.375 341.5,486.125 346.875,488.25 352.625,491.0 388.5,509.375 404.875,516.875"/>
    <polyline points="409.875,518.875 423.5,523.625 435.125,526.25 441.875,527.125 450.625,527.375 455.75,527.125 462.375,526.25 468.125,525.0 477.0,522.0"/>
    <polyline points="478.25,521.625 483.375,519.25 488.375,516.375 491.0,514.375 492.5,512.375"/>
    <polyline points="492.625,512.125 492.875,510.875 491.875,509.125 487.875,506.5"/>
    <polyline points="487.375,506.25 482.75,504.25 467.0,498.5"/>
    <polyline points="465.75,498.0 447.125,491.375 415.0,479.375"/>
    <polyline points="411.625,478.125 329.875,446.25 308.375,438.25 295.25,434.0 285.375,431.875 282.375,432.125 281.375,433.625"/>
    <polyline points="282.375,436.375 285.625,440.625 291.125,446.25 298.875,453.375 308.5,461.625 331.5,480.5 368.625,509.5 391.0,526.125 410.125,539.5 418.5,544.875 432.875,553.25 444.875,558.875 450.0,560.75 459.25,563.375 467.25,564.5 474.25,564.75"/>
    <polyline points="477.5,564.5 483.5,563.875 491.625,562.25 510.375,557.5 518.875,555.75 527.125,554.5 535.25,553.875"/>
    <polyline points="537.25,553.75 547.625,553.875 560.625,555.0 597.0,560.75"/>
    <polyline points="600.0,561.25 609.875,562.625 624.5,563.875 632.75,564.0 641.875,563.5 646.75,562.875 657.375,560.875 663.25,559.25 676.25,554.25 683.625,550.5 691.625,545.875 700.375,539.875 710.0,532.375 720.625,522.875 732.5,510.875 745.5,496.0 759.875,477.375"/>
    <polyline points="775.375,454.625 791.625,427.125 807.875,394.5 822.875,357.5 834.125,317.5 839.25,278.0 835.125,243.75 819.875,220.0 794.0,211.125 760.125,217.875 722.75,238.25 686.0,267.375 653.25,300.625 626.125,333.875 604.875,364.875 589.375,392.375 578.75,416.0 572.375,436.0 569.25,452.625 568.875,466.375 570.375,477.75 573.375,487.0 577.375,494.5 581.75,500.375 586.25,504.875 590.625,508.125"/>
    <polyline points="594.625,510.375 597.875,511.75 600.625,512.25 602.5,512.0 603.625,511.25 604.125,510.25 604.0,508.75 602.25,505.5 599.0,502.125 594.75,499.125 587.875,495.75 583.375,494.375 576.875,493.375 572.875,493.375 567.5,494.0"/>
    <polyline points="565.875,494.375 562.875,495.125 559.0,496.625 553.125,499.875 549.5,503.125 548.125,505.0 547.375,506.75"/>
    <polyline points="547.375,507.25 547.75,509.5 549.875,511.75 552.375,513.125 557.375,514.75"/>
    <polyline points="558.25,514.875 566.25,516.125 575.5,516.375 583.5,515.75 593.0,514.125"/>
    <polyline points="595.0,513.625 599.375,512.5 606.375,510.0 616.75,505.25 628.375,498.125 634.5,493.375 641.0,487.75 644.25,484.5 654.125,473.5 660.375,464.875 666.125,455.375"/>
    <polyline points="668.625,450.375 670.875,445.25 674.125,435.125 675.0,430.375 675.375,425.75 675.125,421.625 674.25,417.875 672.625,414.75 670.375,412.375 667.5,410.625 664.0,409.75 659.875,409.625 655.375,410.25 650.375,411.625 645.125,413.75 634.0,419.625 628.25,423.25 617.0,431.125 601.375,443.75 591.875,451.875"/>
    <polyline points="587.5,455.75 572.375,469.25 557.75,481.625 548.625,488.625 539.75,494.75 530.25,500.125"/>
    <polyline points="529.125,500.75 520.875,504.5 515.5,506.375 511.25,507.375"/>
    <polyline points="510.75,507.5 504.5,507.875 499.5,507.25"/>
    <polyline points="499.0,507.25 490.75,505.375 483.5,503.25"/>
    <polyline points="482.75,503.0 464.25,497.0 451.625,492.5"/>
    <polyline points="449.75,491.875 421.5,481.625 367.875,460.875"/>
    <polyline points="362.125,458.625 314.0,439.875 292.875,432.625 287.125,431.125 282.5,430.375 279.5,430.625 278.25,432.0 279.375,434.875 282.75,439.25 288.625,445.25 296.875,452.75 331.125,481.125 369.625,511.375 381.5,520.375"/>
    <polyline points="392.5,528.5 411.875,542.125 427.75,552.25 440.875,559.25 446.5,561.75 456.375,565.125 464.75,566.875 468.625,567.25 472.125,567.5 478.625,567.25 487.375,566.0 504.75,561.75"/>
    <polyline points="507.0,561.25 513.5,559.625 522.0,558.125 534.25,556.875 542.5,556.875 548.875,557.25 559.75,558.625"/>
    <polyline points="562.125,558.875 579.0,562.375 586.875,564.375 635.25,578.375"/>
    <polyline points="639.25,579.5 661.0,584.625 671.0,586.25 676.25,586.75 687.875,587.25 694.25,586.875 701.0,586.125 708.5,584.625 716.625,582.25 725.5,578.625 735.625,573.5 747.125,566.125 760.375,555.875 775.75,541.625 793.75,522.125 815.0,495.625 839.75,459.875 867.625,412.5 896.875,351.875 923.375,278.75"/>
    <polyline points="939.25,199.625 933.75,129.0 899.5,86.375 839.375,85.125 766.875,122.375 698.25,182.625 643.625,248.875 606.25,310.5 585.25,363.625 578.25,407.5 582.5,443.5 595.5,473.0 614.625,496.75 637.0,515.5 659.875,529.0 680.75,537.375 697.625,540.375 709.625,538.75 716.625,533.125 719.625,524.625 719.375,514.375 717.0,503.125 713.5,491.875 709.5,481.0 705.25,470.625 701.0,461.25"/>
    <polyline points="696.75,452.75 692.625,445.25 688.5,438.875 684.375,433.375 680.0,429.0 675.5,425.625 670.875,423.125 665.875,421.625 660.75,421.0 655.5,421.125 650.125,422.0 644.5,423.625 639.0,425.75 633.375,428.25 622.375,434.5 611.875,441.375 602.25,448.5 578.0,468.0"/>
    <polyline points="574.75,470.625 558.25,483.875 546.375,492.5 537.625,498.125 530.25,502.375"/>
    <line x1="529.375" x2="516.625" y1="502.875" y2="509.25"/>
    <polyline points="516.375,509.375 512.875,510.75 509.625,511.125 500.25,508.75"/>
    <polyline points="519.75,508.25 513.25,511.5 511.5,512.0 488.25,505.125"/>
    <line x1="487.625" x2="463.25" y1="504.875" y2="496.75"/>
    <polyline points="461.75,496.25 433.375,486.125 402.75,474.5"/>
    <polyline points="460.5,495.625 440.5,488.625 398.75,473.0 310.375,438.625 296.375,433.875 290.25,432.125 285.125,431.0 281.375,430.75 279.375,431.625 279.375,433.875 281.75,437.5 286.375,442.75 293.5,449.375"/>
    <polyline points="394.5,471.375 339.0,449.5 302.5,435.75 295.75,433.5 284.375,430.625 280.625,430.375 278.625,431.25 278.75,433.5 281.125,437.25 286.0,442.625 302.625,457.625 313.5,466.625 338.25,486.625 375.875,515.875 397.75,532.0 416.125,544.5 431.125,553.75 437.625,557.125 449.0,562.125 453.875,563.75 462.625,565.875 470.25,566.625 477.0,566.625 485.875,565.5"/>
    <polyline points="488.625,565.0 510.125,559.625 520.75,557.5 533.125,556.125 543.375,556.125"/>
    <polyline points="545.5,556.125 558.5,557.375 570.125,559.25 609.0,568.25"/>
    <polyline points="612.375,569.125 622.875,571.5 638.5,574.375 652.0,575.75 662.0,576.0 673.25,575.0 679.5,574.0 686.25,572.375 693.5,570.0 701.375,566.75 710.125,562.25 720.0,556.25 730.875,548.25 743.375,537.625 757.5,523.5 773.625,505.125 792.0,481.25"/>
    <polyline points="812.5,450.625 834.625,411.875 857.0,364.5 876.875,309.625 889.375,251.0 888.625,197.0 869.75,158.375 832.5,144.5 782.25,157.75 728.125,192.5 678.375,238.875 638.0,287.75 608.375,333.625 589.0,373.625 578.625,407.5 575.625,435.625 578.375,458.75 585.625,477.625 595.875,493.0 607.75,505.0 620.125,514.125 632.0,520.5 642.5,524.125 650.875,525.375 657.125,524.375 661.0,521.75"/>
    <polyline points="663.0,517.875 663.25,513.125 662.125,507.875 660.125,502.5 657.375,497.125 651.125,487.375 647.75,483.25 644.375,479.5 638.0,473.5 632.0,469.375 629.125,467.875 623.75,466.125 621.125,465.625 616.125,465.375 611.5,466.0 605.0,468.0 601.0,469.75"/>
    <polyline points="599.125,470.75 595.375,472.875 590.5,476.25 583.5,481.75 577.375,487.75 575.125,490.375 572.25,494.875"/>
    <polyline points="571.875,495.5 571.25,498.0 571.25,499.5 572.5,502.0 575.5,503.875 580.0,504.875"/>
    <polyline points="580.875,504.875 585.0,505.0 589.75,504.5 598.375,502.5 606.75,499.25 612.375,496.375 618.25,492.75"/>
    <polyline points="620.25,491.375 628.625,484.625 637.0,476.0 642.75,468.5 647.5,460.25 649.875,454.75 650.75,452.0 651.375,449.375 651.875,444.5 651.25,440.375 649.25,437.25 647.875,436.125"/>
    <polyline points="646.125,435.375 641.875,434.875 636.625,435.625 633.625,436.5 627.375,439.125 617.5,444.75 610.75,449.125 601.125,456.25 592.125,463.375 575.125,477.875"/>
    <polyline points="573.125,479.625 560.375,491.0 554.25,497.0 550.875,500.75 548.5,504.375"/>
    <polyline points="548.25,504.875 547.75,506.375 547.75,508.125 548.625,510.0 549.5,511.0 551.625,512.5 554.75,513.75"/>
    <polyline points="555.375,514.0 562.375,515.5 571.75,516.25 577.625,516.125 585.875,515.25"/>
    <polyline points="587.75,515.0 595.625,513.375 607.0,509.625 614.75,506.125 626.125,499.5 632.25,495.0 638.625,489.75 645.125,483.5 654.875,472.25"/>
    <polyline points="658.0,468.0 663.875,458.875 666.625,454.0 669.0,449.0 671.125,444.0 672.875,438.875 674.125,434.0 674.875,429.25 675.0,424.875 674.625,420.75 673.5,417.25 671.75,414.375 669.375,412.125 666.375,410.625 662.625,410.0 658.5,410.125 653.875,410.875 648.75,412.5 638.0,417.5 632.375,420.75 621.125,428.375 610.25,436.625"/>
    <polyline points="605.125,440.875 595.375,449.0 575.125,467.0 559.875,480.0 546.375,490.375 535.125,497.625"/>
    <polyline points="533.875,498.375 528.125,501.5 522.625,504.0 517.0,506.125 513.625,507.0"/>
    <polyline points="513.0,507.125 508.0,508.0 502.125,507.75"/>
    <polyline points="501.75,507.75 493.875,506.25 488.25,504.625"/>
    <polyline points="487.625,504.5 476.5,501.125 462.0,496.25"/>
    <polyline points="313.625,466.875 351.625,497.375 387.875,525.125 398.375,532.75 416.75,545.375 431.75,554.5 438.25,557.875 449.5,562.875 458.875,565.75 467.0,567.0 474.0,567.375 480.375,567.0 488.875,565.625"/>
    <polyline points="491.625,565.0 510.375,560.25 521.0,558.125 529.25,557.125 535.5,556.75 545.875,557.0"/>
    <polyline points="548.0,557.125 558.875,558.25 575.375,561.375 594.0,566.125 612.375,571.375"/>
    <polyline points="615.75,572.375 629.875,576.375 645.875,580.375 664.25,583.875 674.75,585.0 680.375,585.125 692.875,584.5 699.75,583.375 707.375,581.5 715.625,578.75 724.75,574.625 735.125,568.875 746.875,560.75 760.375,549.625 776.125,534.375"/>
    <polyline points="794.5,513.625 816.0,485.625 840.625,448.5 867.875,400.0 895.75,339.125 919.375,267.5 931.0,192.875 920.875,129.5 883.875,95.25 824.125,100.0 755.125,138.875 690.875,197.125 640.0,259.875 605.125,318.0 585.25,368.0 578.125,409.5 581.25,443.625 592.375,471.375 609.25,494.0 629.25,511.875 650.0,525.0 669.375,533.375 685.5,537.125 697.375,536.625 704.875,532.5 708.625,525.625"/>
    <polyline points="709.125,516.875 707.5,507.125 704.625,497.125 700.875,487.25 692.75,469.375 684.625,454.625 680.75,448.625 676.875,443.625 672.875,439.375 669.0,435.875 664.875,433.375 660.625,431.5 656.25,430.375 651.875,430.0 647.25,430.25 642.625,431.0 633.125,434.0 623.75,438.5 614.625,443.875 606.0,449.625"/>
    <polyline points="601.875,452.625 583.625,466.625 556.75,488.25 544.0,497.875"/>
    <polyline points="543.0,498.625 533.875,506.0 531.875,508.125 531.0,509.875"/>
    <polyline points="530.875,510.25 530.875,511.375 532.0,513.125 533.0,513.875 536.0,515.25"/>
    <polyline points="536.5,515.375 544.375,517.625 555.25,519.375"/>
    <polyline points="556.375,519.5 565.125,520.125 574.125,520.125 584.875,519.25 591.0,518.25 597.75,516.625"/>
    <polyline points="600.25,516.0 605.25,514.375 613.5,511.0 619.375,508.125 625.75,504.5 635.875,497.375 646.75,488.0 650.5,484.25 658.0,475.75 665.375,465.875 672.25,454.875 675.375,449.0 678.125,443.0 680.5,436.875"/>
    <polyline points="682.375,430.75 683.625,424.875 684.125,419.25 684.0,414.0 683.0,409.5 681.125,405.625 678.5,402.75 674.875,400.75 670.625,399.75 665.625,399.875 660.0,401.0 653.875,403.0 647.5,405.875 634.25,413.625 627.625,418.125 614.75,428.0 602.75,438.125 573.875,464.25"/>
    <polyline points="570.0,467.75 556.875,479.125 548.875,485.375 542.125,490.125 534.5,494.75 528.125,498.0 519.0,501.5"/>
    <polyline points="517.875,501.75 512.625,503.125 507.0,504.0 500.0,504.25 495.0,503.875"/>
    <polyline points="494.125,503.75 487.75,502.75 480.75,501.125 467.375,497.25"/>
    <polyline points="466.0,496.75 449.125,491.25 409.5,476.75"/>
    <polyline points="405.875,475.375 313.125,439.0 290.5,431.0 284.125,429.125 279.0,428.125 275.25,428.0 273.625,429.25 274.375,432.0 277.625,436.375"/>
    <polyline points="283.625,442.5 302.75,459.375 328.375,480.375 355.875,502.375 393.0,531.0 413.0,545.375 421.5,551.125 436.125,560.0 448.0,565.875 453.125,567.875 462.125,570.5 469.875,571.625 476.625,571.625 482.75,571.125"/>
    <polyline points="485.625,570.75 514.125,563.875 520.5,562.75 530.875,561.625 541.125,561.75"/>
    <polyline points="543.25,561.875 549.5,562.5 556.0,563.625 562.625,565.125 571.875,567.875 581.375,571.625 588.875,575.125 593.875,577.875 601.5,583.0"/>
    <polyline points="604.0,584.875 609.0,589.375 613.75,594.75 618.0,601.25 619.875,605.0 621.5,609.25 622.75,614.125 623.625,619.625 624.0,626.0 623.75,633.25 622.625,641.625 620.375,651.375 616.75,662.75 611.375,676.0 603.875,691.625 593.375,710.0 579.375,731.25 561.125,755.5 537.625,782.625 508.5,811.625 473.375,840.75 433.375,866.625 390.5,885.0"/>
    <polyline points="348.5,891.125 311.625,881.625 283.5,856.25 265.625,818.125 257.125,772.25 255.75,724.25 258.625,678.25 263.75,636.875 269.25,601.0 278.75,546.125 285.5,510.5 288.25,498.375 290.875,489.375 293.875,483.0 297.375,479.0 301.625,477.0 306.625,476.75 312.5,478.125 319.25,480.625 326.75,484.125 334.75,488.375 360.625,503.5"/>
    <polyline points="369.375,508.75 393.5,522.5 407.75,529.75 420.125,535.25 425.75,537.375 436.0,540.5 440.625,541.625 449.0,543.0 459.75,543.375 466.0,543.0 471.75,542.25 479.375,540.75 484.0,539.5"/>
    <polyline points="486.125,539.0 510.125,531.875 522.25,529.375 524.875,529.125"/>
    <polyline points="526.125,528.875 537.5,528.125 560.75,528.375"/>
    <polyline points="562.375,528.375 573.5,528.25 579.75,527.875 588.875,526.875 596.5,525.5 605.0,523.375 611.125,521.375 621.25,517.25 624.875,515.375"/>
    <polyline points="628.625,513.375 632.5,511.125 640.75,505.625 645.125,502.375 654.25,494.625 663.875,484.875 673.875,473.125 683.75,459.0 688.5,451.125 693.0,442.75 697.0,434.0 700.375,425.125 703.0,416.125 704.75,407.375 705.25,399.125 704.625,391.75 702.625,385.375 699.125,380.5 694.25,377.25 688.125,375.75 680.75,376.0"/>
    <polyline points="672.625,378.0 663.75,381.625 654.5,386.5 645.125,392.375 635.875,399.125 626.875,406.25 618.25,413.625 602.375,428.125 572.0,458.375 555.25,474.5 548.5,480.25 540.0,486.75 532.75,491.25"/>
    <polyline points="530.625,492.375 522.625,495.875 512.375,498.625 503.25,499.625 496.0,499.625 490.375,499.25"/>
    <polyline points="488.875,499.0 480.125,497.75 470.5,495.625 459.875,492.75 445.0,488.125"/>
    <polyline points="442.625,487.25 413.125,476.875 392.5,469.0 358.625,455.625 327.75,443.0"/>
    <polyline points="318.75,439.375 280.125,423.875 262.5,417.75 255.75,416.0 251.25,415.875 249.875,417.625 252.125,421.75 258.25,428.375 268.375,437.75 281.875,449.375 409.0,554.75 428.5,570.375 443.125,581.25"/>
    <polyline points="449.0,585.25 458.75,590.625 462.875,592.375 469.75,594.375 475.5,595.0 480.625,594.625 485.25,593.625 491.5,591.625 503.125,587.25 512.25,584.75"/>
    <polyline points="514.0,584.5 521.0,583.75 526.25,584.0 531.375,584.875 536.25,586.5 541.0,588.875 546.75,593.5 550.5,598.375 552.5,602.25"/>
    <polyline points="553.375,604.5 554.75,609.625 555.125,612.5 555.375,615.625 555.0,622.75 553.5,631.125 550.375,640.875 545.25,652.375 537.625,665.5 532.625,672.625 526.875,680.125 520.125,688.0 512.5,695.875 504.0,703.75 494.5,711.5 484.25,718.625 473.375,724.875 462.0,729.875 450.5,733.375 439.125,734.875"/>
    <polyline points="428.375,734.25 418.5,731.125 409.75,725.75 402.5,718.125 396.75,708.5 392.625,697.375 390.0,685.125 388.75,672.125 388.625,659.0 389.625,645.875 391.375,633.125 393.625,621.125 396.375,609.75 402.625,589.625 405.875,581.0 409.25,573.125 412.5,566.0 418.625,554.0 427.0,540.5 434.125,531.0"/>
    <polyline points="436.25,528.375 441.625,522.25 449.25,514.25 452.875,509.75 453.625,508.375 454.375,505.75 454.125,503.875 453.625,502.75"/>
    <polyline points="453.25,502.125 451.125,499.875 448.0,497.5 441.25,493.625 435.25,490.75 421.5,484.875"/>
    <polyline points="419.125,483.875 388.875,471.75 354.0,458.5 334.375,451.625 321.125,447.875"/>
    <polyline points="317.625,447.125 314.75,446.875 312.625,447.125 311.5,448.0 311.5,449.625 312.5,451.875 314.875,454.875 323.0,462.875 328.75,467.875 342.625,479.125 358.375,491.125 382.5,508.0 404.375,521.625 422.875,531.0 433.25,535.125 438.0,536.625"/>
    <polyline points="442.375,537.75 450.375,539.375 457.5,540.0 463.875,540.125 472.375,539.375 477.375,538.5 488.125,536.0 503.25,531.5"/>
    <polyline points="504.75,531.125 514.0,528.625 522.375,527.125 528.125,526.5 535.0,526.25"/>
    <polyline points="536.25,526.125 557.375,526.625 572.625,526.5"/>
    <polyline points="574.625,526.5 582.875,525.875 589.625,525.0 599.875,522.875 611.5,519.25 621.5,514.875 632.5,508.75 640.5,503.25 649.125,496.25"/>
    <polyline points="653.5,492.25 662.75,482.75 672.25,471.25 681.5,457.75 685.875,450.375 689.875,442.5 693.5,434.375 696.5,426.125 698.875,417.875 700.25,409.75 700.625,402.25 699.875,395.5 697.875,389.875 694.625,385.375 690.0,382.5 684.25,381.125 677.5,381.25 670.0,383.0 661.75,386.25 653.25,390.625 644.5,396.0 635.75,402.0 627.25,408.625"/>
    <polyline points="619.125,415.375 611.25,422.25 597.125,435.375 565.25,466.5 550.75,479.375 547.75,481.875 539.625,487.75 530.625,493.0 522.875,496.375"/>
    <polyline points="521.125,497.0 513.125,499.125 504.5,500.25 495.0,500.25 485.625,499.25"/>
    <polyline points="301.25,432.75 282.875,425.75 274.375,422.75 266.875,420.5 261.0,419.25 257.375,419.5 256.5,421.5 259.125,425.75 265.25,432.25 274.875,441.125 302.5,464.5 368.0,518.25 395.5,540.625 417.5,558.0 426.5,564.75 441.25,575.125 447.375,578.875 452.75,581.75"/>
    <polyline points="457.5,584.0 461.875,585.75 469.25,587.625 472.625,588.125 478.5,588.125 483.75,587.5 488.625,586.5 505.625,581.25 511.625,579.75 519.25,578.5"/>
    <polyline points="521.125,578.375 526.75,578.25 534.125,579.0 539.625,580.375 546.625,583.25 551.75,586.5 556.5,590.625 559.375,594.125 563.0,600.625"/>
    <polyline points="564.0,603.125 564.875,606.0 566.0,612.375 566.25,616.0 565.75,624.375 563.875,634.375 562.125,640.125 559.75,646.5 556.75,653.375 553.0,660.875 548.375,669.0 542.625,677.75 535.875,687.125 527.75,696.875 518.375,707.125 507.75,717.5 495.625,727.75 482.375,737.375 468.125,745.75 453.25,752.5 438.125,756.875 423.375,758.375 409.625,756.5"/>
    <polyline points="397.25,751.125 387.0,742.375 378.875,730.5 373.0,716.25 369.375,700.25 367.75,683.25 367.75,666.125 369.125,649.25 371.25,633.125 374.25,618.0 377.5,604.25 384.625,580.375 388.25,570.375 395.125,553.75 401.375,541.0 409.375,527.375 415.625,518.375 419.0,514.125"/>
    <polyline points="420.5,512.25 426.875,505.0 428.125,503.25 429.25,501.0 429.5,499.75 429.25,497.875 428.75,496.625 426.625,494.125 424.25,492.25"/>
    <polyline points="423.25,491.5 417.375,488.0 403.5,481.5 384.25,473.625 372.875,469.5"/>
    <polyline points="370.0,468.5 361.25,465.5 350.75,462.75 345.0,462.0 342.875,462.625 342.375,463.375 342.375,464.375 344.0,467.125 347.5,471.0 350.0,473.25 360.0,481.375 372.5,490.125"/>
    <polyline points="377.0,493.0 390.5,501.125 403.375,507.75 411.375,511.125 422.0,514.875 428.375,516.5 434.125,517.5 439.125,518.0 447.875,518.0 454.625,517.0"/>
    <polyline points="456.0,516.625 461.875,514.625 465.75,512.375 467.25,511.0 468.5,508.625 468.5,507.375 467.875,505.5"/>
    <polyline points="467.5,505.125 465.875,503.25 461.0,500.0 452.25,495.625 443.125,491.75"/>
    <polyline points="441.375,491.125 433.625,487.875 359.5,459.125"/>
    <polyline points="354.0,457.0 336.5,450.375 313.125,442.375 303.75,440.0 300.25,439.625 297.75,440.0 296.75,441.125 297.25,443.25 299.375,446.5 303.125,450.75 315.5,462.125 323.75,469.0 332.875,476.5 362.875,499.625 391.625,520.0"/>
    <polyline points="400.125,525.625 415.5,534.875 428.75,541.75 440.0,546.5 445.0,548.125 454.0,550.375 458.0,551.0 465.5,551.625 475.125,551.25 486.125,549.5 500.0,546.0"/>
    <polyline points="502.125,545.5 510.125,543.375 521.125,541.0 535.0,539.25 547.375,538.75"/>
    <polyline points="549.25,538.75 576.25,539.0 589.125,538.5 597.75,537.625 610.875,535.25"/>
    <polyline points="614.375,534.25 618.125,533.25 626.125,530.375 630.375,528.625 639.625,524.125 649.75,518.125 660.875,509.875 667.0,504.875 679.875,492.25 686.75,484.625 693.875,476.0 701.125,466.125 708.5,455.125 715.625,443.0 722.375,429.875 728.5,415.875 733.625,401.25 737.25,386.625 739.0,372.5 738.5,359.625 735.25,349.0"/>
    <polyline points="729.25,341.125 720.625,336.625 709.625,335.75 696.875,338.625 682.75,344.625 668.25,353.125 653.75,363.625 639.75,375.25 626.75,387.375 614.75,399.375 603.875,411.0 585.75,431.75 556.375,467.75 548.875,476.5 540.125,485.625 533.125,491.25"/>
    <polyline points="531.125,492.5 527.25,494.625 521.875,496.625 516.875,497.75 513.5,498.125 504.0,498.375 489.625,497.0"/>
    <polyline points="488.0,496.75 476.0,494.625 470.625,493.375 450.25,487.75 438.125,483.875"/>
    <polyline points="435.5,483.0 403.125,471.375 374.75,460.25 339.875,445.875 297.875,427.625"/>
    <polyline points="284.5,421.75 237.0,400.375 203.25,385.625 189.125,380.125 180.0,377.75 178.375,380.25 186.625,389.125 205.5,405.375 266.875,455.75 302.0,485.5 335.25,515.125 364.375,543.0 388.375,568.0 407.375,589.875 421.75,608.625 432.0,624.5 439.0,637.75 443.25,648.75 445.375,657.75 445.875,664.75 445.125,670.125 443.5,673.875"/>
    <polyline points="441.375,676.25 438.875,677.125 436.25,676.75 433.75,675.125 431.5,672.5 429.625,668.75 428.25,664.375 427.25,659.125 426.75,653.5 427.125,641.0 428.0,634.5 429.25,628.0 432.625,615.375 434.75,609.25 439.375,598.0 444.5,587.875 449.75,579.0 455.125,571.25 460.375,564.75"/>
    <polyline points="462.875,561.75 470.25,554.25 474.875,550.125 481.25,545.125 485.25,542.375 490.875,538.875 496.0,536.125 502.25,533.25 509.25,530.75"/>
    <polyline points="510.625,530.25 515.625,528.875 525.125,527.125 533.25,526.5 540.5,526.375"/>
    <polyline points="541.75,526.375 570.125,526.875 582.125,526.125"/>
    <polyline points="584.375,525.875 591.375,524.875 599.125,523.25 610.625,519.75 620.5,515.625 631.5,509.625 639.5,504.25 643.625,501.125 652.375,493.625 661.625,484.375 671.125,473.125"/>
    <polyline points="675.875,466.75 685.0,452.5 689.25,444.625 693.0,436.5 696.25,428.125 698.75,419.75 700.5,411.625 701.25,403.875 700.75,396.875 699.125,390.75 696.125,385.875 691.875,382.5 686.375,380.625 679.75,380.5 672.375,381.875 664.25,384.75 655.625,388.875 646.875,394.0 638.125,400.0 629.5,406.5 621.125,413.375 605.75,427.0 592.125,440.0"/>
    <polyline points="586.0,445.875 562.0,469.375 554.625,476.0 542.625,485.625 535.25,490.375 528.875,493.75 525.0,495.5 519.625,497.375 514.75,498.625"/>
    <polyline points="513.25,499.0 508.75,499.75 503.125,500.25 496.25,500.25 489.5,499.75 478.375,497.875"/>
    <polyline points="476.875,497.5 470.625,496.125 458.5,492.75 438.875,486.375 425.0,481.375"/>
    <polyline points="421.875,480.25 390.75,468.625 349.5,452.25 317.125,439.0 289.375,428.125 280.375,424.75 264.75,419.75"/>
    <polyline points="259.25,418.75 256.125,419.375 256.125,421.875 259.5,426.75 266.5,433.875 277.125,443.375 306.0,467.75 371.75,521.625 410.125,552.625 428.75,566.875 436.375,572.375 449.0,580.375 458.75,585.25 463.0,586.75 466.75,587.875 473.375,588.875"/>
    <polyline points="476.375,589.0 479.125,588.875 486.75,587.625 506.0,581.75 513.75,579.875 523.125,578.875 528.75,579.0"/>
    <polyline points="530.5,579.25 536.0,580.125 543.125,582.5 549.875,586.25 554.625,590.25 557.5,593.625 560.125,597.5 562.25,602.125 563.875,607.625 564.5,610.875 564.875,618.0"/>
    <polyline points="564.625,622.125 564.125,626.625 563.125,631.625 561.625,637.0 559.75,642.875 557.125,649.375 553.75,656.375 549.625,664.0 544.625,672.25 538.5,681.125 531.375,690.375 522.875,700.25 513.25,710.25 502.25,720.25 490.0,729.875 476.75,738.75 462.5,746.25 448.0,751.875 433.375,755.0 419.375,755.125 406.5,752.0 395.375,745.5 386.125,735.75 379.0,723.375 374.125,709.0 371.25,693.125"/>
    <polyline points="370.25,676.5 370.625,659.875 372.25,643.75 374.625,628.375 377.625,614.0 381.0,600.875 384.5,589.0 388.125,578.25 391.625,568.75 398.375,553.0 401.5,546.5 407.25,535.875 416.75,521.625 422.0,514.875 428.125,507.75"/>
    <polyline points="429.0,506.75 431.0,504.125 432.25,501.125 432.25,499.25 431.5,497.25 430.0,495.375 427.875,493.5 421.25,489.375"/>
    <polyline points="419.875,488.625 408.0,482.875 391.5,476.0 377.25,470.5 358.375,464.0"/>
    <polyline points="355.375,463.125 347.125,460.875 342.75,460.25 339.75,460.5 338.875,461.125 338.625,461.875 339.625,464.5 342.875,468.375 348.375,473.5 355.75,479.5 374.0,492.375 383.75,498.5 393.5,504.125"/>
    <polyline points="398.125,506.625 411.25,512.75 419.125,515.75 429.625,518.75 435.75,519.875 443.75,520.625 450.5,520.5 457.875,519.5 464.75,517.5"/>
    <polyline points="465.875,517.0 469.625,515.25 471.75,513.875 474.0,511.625 475.0,509.5 474.875,507.875 474.0,506.25"/>
    <polyline points="473.625,505.875 471.5,503.875 467.375,501.375 461.75,498.625 451.375,494.25"/>
    <line x1="449.75" x2="379.125" y1="493.625" y2="466.25"/>
    <polyline points="374.25,464.375 327.5,446.375 308.75,440.0 298.5,437.25 294.75,436.875 292.25,437.25 291.125,438.5 291.875,440.875 294.375,444.5 298.875,449.25 305.125,455.125 313.0,462.0 332.375,477.875 354.125,494.875"/>
    <polyline points="365.0,503.125 385.625,518.125 403.875,530.625 419.5,540.125 426.375,543.875 438.625,549.625 448.875,553.25 453.5,554.375 457.75,555.25 465.5,556.125 475.625,556.0 484.375,554.75 494.5,552.5"/>
    <polyline points="496.875,551.875 514.0,547.625 523.625,545.75 531.125,544.75 546.375,544.0"/>
    <polyline points="548.375,544.0 587.5,545.125 602.5,544.375 613.0,543.0"/>
    <polyline points="616.75,542.25 629.125,539.0 638.5,535.5 643.5,533.25 654.5,527.25 660.5,523.375 666.875,518.875 673.625,513.5 680.75,507.25 688.375,499.875 696.5,491.25 704.875,481.25 713.75,469.625 722.75,456.375 731.75,441.375 740.5,424.75 748.5,406.625 755.125,387.5 759.875,368.125 761.875,349.625 760.375,333.0 755.0,319.875"/>
    <polyline points="745.625,311.25 732.625,308.0 716.5,310.25 698.5,317.375 679.75,328.625 661.125,342.5 643.5,358.125 627.5,374.125 613.125,389.875 600.75,404.625 590.125,418.25 573.5,441.125 561.875,458.75 543.75,487.375 540.375,492.0 536.25,496.25"/>
    <polyline points="535.0,497.125 532.5,498.5 528.75,499.625 523.5,500.125 515.125,499.875 500.25,498.5"/>
    <polyline points="498.75,498.375 482.625,495.875 468.5,492.75 454.5,488.875"/>
    <polyline points="452.375,488.25 432.875,482.0 418.125,476.75 396.0,468.5 365.25,456.25"/>
    <polyline points="358.75,453.625 335.375,443.875 291.375,424.625 207.0,386.375 189.25,378.625 174.625,372.875 166.25,371.125 167.25,375.375 180.125,387.375 204.75,407.875 238.625,435.25 276.875,467.125 315.0,500.25 349.25,532.125 377.875,561.25 400.375,587.125 417.125,609.375"/>
    <polyline points="429.0,628.375 436.625,644.25 440.875,657.625 442.5,668.625 442.0,677.25 440.0,684.0 437.0,688.625 433.25,691.375 429.25,692.375 425.25,691.625 421.5,689.25 418.25,685.375 415.5,680.25 413.5,674.0 412.25,666.875 411.625,659.125 411.75,651.0 412.375,642.625 413.625,634.25 417.375,618.0 422.25,603.0 425.0,596.125 430.75,583.75"/>
    <polyline points="433.75,578.25 436.625,573.125 442.375,564.25 448.0,556.75 455.625,547.75 464.625,539.0 468.625,535.625 477.125,529.25 485.0,524.125"/>
    <polyline points="486.0,523.375 496.125,517.375 500.625,514.25"/>
    <polyline points="500.875,514.125 502.375,512.25 502.125,511.0 499.5,509.25 495.25,507.625"/>
    <line x1="494.875" x2="479.125" y1="507.5" y2="502.25"/>
    <line x1="478.25" x2="443.0" y1="501.875" y2="489.625"/>
    <polyline points="440.875,488.875 391.5,470.25 341.25,450.5"/>
    <polyline points="334.375,447.75 305.25,436.875 292.125,432.75 286.75,431.375 282.625,430.875 280.125,431.5 279.5,433.25 281.125,436.5 285.25,441.25 291.625,447.625 310.625,464.0 334.875,483.75 360.375,503.75 384.125,521.875 404.625,536.625 421.75,548.0"/>
    <polyline points="429.125,552.375 435.75,556.0 447.375,561.25 457.125,564.375 465.375,566.0 476.0,566.375 485.0,565.375 513.75,558.5"/>
    <polyline points="515.875,558.125 526.25,556.375 534.5,555.75 540.625,555.625 551.125,556.125 562.25,557.5 569.25,558.75"/>
    <polyline points="571.625,559.125 584.5,561.75 614.875,568.625 629.5,571.25 642.125,572.75 651.375,573.25 656.375,573.125"/>
    <polyline points="661.625,572.875 673.25,571.25 679.625,569.625 686.625,567.5 694.125,564.5 702.5,560.375 711.625,555.0 721.875,547.75 733.375,538.375 746.375,526.0 761.125,510.125 777.75,489.5 796.375,463.125 816.625,430.0 837.75,389.25 857.625,341.25 873.0,288.0 879.0,235.0 870.75,190.75 845.625,164.5 805.5,162.0 756.75,182.5 707.375,219.125 663.5,263.375 628.5,308.125"/>
    <polyline points="603.0,349.25 586.375,385.0 577.375,415.125 574.5,440.25 576.5,460.875 582.25,477.75 590.5,491.5 600.375,502.375 610.625,510.625 620.625,516.5 629.5,520.125 637.0,521.875 642.75,521.75 646.625,520.125 648.75,517.375 649.5,513.75 649.0,509.75 647.5,505.375 645.375,501.125 642.75,496.875 639.875,493.0 636.75,489.5 630.625,483.5 627.625,481.125 624.625,479.25"/>
    <polyline points="621.75,477.625 619.125,476.25 614.0,474.625 609.25,474.0 602.875,474.375 595.625,476.625 589.625,479.75 583.625,484.125 580.0,487.5"/>
    <polyline points="579.25,488.375 576.375,492.0 575.25,494.0 574.5,496.375 574.5,497.875 574.875,499.25 576.125,500.75 577.5,501.625"/>
    <polyline points="578.0,501.875 580.625,502.625 583.875,503.0 590.125,502.625 598.0,500.875 605.75,497.875"/>
    <polyline points="607.375,497.125 614.5,493.25 620.0,489.5 627.75,483.125 631.5,479.375 637.0,473.0 643.25,463.5 646.5,456.125 647.75,451.5"/>
    <polyline points="648.0,449.25 648.0,447.25 647.375,443.75 645.625,441.0 644.25,440.0 642.75,439.375 639.0,438.875 634.375,439.5 626.25,442.375 620.375,445.375 614.25,449.0 608.25,453.125 594.25,463.75"/>
    <polyline points="591.625,465.875 582.25,473.75 566.75,487.625 561.0,493.25 555.875,499.25"/>
    <polyline points="555.375,500.0 553.5,503.125 553.0,504.75 553.0,506.625 553.375,507.875 554.5,509.375 557.375,511.25"/>
    <polyline points="557.875,511.5 564.0,513.375 570.25,514.125 576.625,514.25 586.0,513.5"/>
    <polyline points="587.625,513.25 597.25,511.125 603.625,509.0 610.75,506.125 621.125,500.5 626.625,496.75 635.5,489.875 644.625,481.125 650.625,474.125"/>
    <polyline points="653.625,470.25 661.75,457.625 666.125,448.625 669.25,439.5 670.25,435.125 670.75,431.0 670.625,427.125 670.0,423.625 668.875,420.625 667.125,418.125 664.75,416.25 661.875,415.125 658.375,414.625 654.5,414.875 650.25,415.75 645.625,417.25 635.625,421.75 630.5,424.75 625.375,428.0 615.125,435.25"/>
    <polyline points="610.125,439.125 600.625,446.75 559.875,481.75 549.375,490.0 539.875,496.625"/>
    <polyline points="538.625,497.5 529.375,503.125 520.125,508.0"/>
    <line x1="499.75" x2="487.875" y1="508.625" y2="505.0"/>
    <line x1="487.25" x2="462.375" y1="504.75" y2="496.5"/>
    <polyline points="461.0,496.0 424.0,482.625 400.5,473.625"/>
    <polyline points="396.5,472.125 342.375,450.875 306.375,437.25 292.875,432.875 287.25,431.375 282.875,430.75 280.0,431.125 279.125,432.75 280.375,435.625 284.0,440.25 298.375,453.75"/>
    <polyline points="308.5,462.375 345.5,492.25 382.25,520.625 393.125,528.625 412.25,542.0 428.125,551.875 441.0,558.75 446.625,561.125 456.5,564.5 460.75,565.5 472.125,566.75 478.625,566.5 487.375,565.25"/>
  </g>
</svg>
