<?xml version="1.0" encoding="utf-8" ?>
<svg xmlns="http://www.w3.org/2000/svg" xmlns:cc="http://creativecommons.org/ns" xmlns:dc="http://purl.org/dc/elements/1.1/" xmlns:ev="http://www.w3.org/2001/xml-events" xmlns:inkscape="http://www.inkscape.org/namespaces/inkscape" xmlns:rdf="http://www.w3.org/1999/02/22-rdf-syntax-ns" xmlns:sodipodi="http://sodipodi.sourceforge.net/DTD/sodipodi-0.dtd" xmlns:xlink="http://www.w3.org/1999/xlink" baseProfile="tiny" height="27.09333333cm" version="1.2" viewBox="0 0 1024.0 1024.0" width="27.09333333cm">
  <metadata>
    <rdf:RDF>
      <cc:Work>
        <dc:format>image/svg+xml</dc:format>
        <dc:source>vpype read './original_svgs/Strange Attractors #77.svg' linemerge linesimplify write './Strange Attractors #77.svg'
</dc:source>
        <dc:date>2024-08-05T01:35:23.630869</dc:date>
      </cc:Work>
    </rdf:RDF>
  </metadata>
  <defs/>
  <g fill="none" id="layer1" inkscape:groupmode="layer" inkscape:label="1" stroke="black" stroke-width="0.7mm" style="display:inline">
    <polyline points="252.5,724.25 214.125,654.75 188.75,612.5 170.0,589.5 154.375,580.0 140.25,581.25 126.375,592.0 112.875,613.125 100.0,646.5 90.125,695.25 88.25,761.5 104.875,842.0 154.875,920.0 247.75,961.375 370.25,936.25 489.0,850.125 578.125,737.375 632.125,627.25 656.125,530.75 655.875,448.25 634.75,377.75 594.75,319.75 539.5,278.875 476.25,262.125 415.375,273.0 365.625,308.25"/>
    <polyline points="330.75,358.375 309.875,413.625 299.5,466.75 296.5,514.125 298.875,554.75 305.25,588.375 315.25,615.25 328.5,635.25 344.75,648.625 363.5,655.25 383.75,655.5 404.625,650.0 425.125,639.625 444.125,625.875 461.25,610.125 476.125,593.375 488.5,576.875 498.625,561.125 506.625,546.625 512.75,533.625 517.25,522.125 520.5,512.375 522.625,504.0 523.875,497.0 524.5,491.375 524.375,486.75"/>
    <polyline points="524.0,483.25 523.25,480.5 522.25,478.625 521.125,477.375 519.875,476.625 517.5,476.625 515.25,478.0 514.25,479.0 512.0,482.875 511.0,485.75 510.5,488.625 510.375,492.625 510.625,495.0 511.875,499.0"/>
    <polyline points="512.25,499.875 514.625,503.125 517.875,505.625 522.0,507.25 526.25,508.125"/>
    <polyline points="526.875,508.125 532.125,508.625 545.5,508.375"/>
    <polyline points="546.375,508.375 554.375,507.625 561.125,506.625 569.875,504.75 575.25,503.125"/>
    <polyline points="576.625,502.625 582.125,500.5 588.875,496.625 592.75,493.5 595.0,491.0 597.0,488.125 599.125,483.0 599.875,479.0 599.75,474.375 598.625,469.25"/>
    <polyline points="597.625,466.625 596.375,463.75 594.625,460.875 592.625,457.875 590.125,454.875 583.875,448.875 576.0,443.5 566.5,439.25 561.25,437.625 555.75,436.625 550.125,436.125 544.5,436.125 538.75,436.875 533.25,438.125 527.875,440.0 522.75,442.5 518.0,445.375 513.625,448.75 509.75,452.375 506.25,456.25 503.125,460.25 500.5,464.25 498.25,468.375"/>
    <polyline points="496.375,472.375 494.875,476.125 492.125,486.5 491.375,492.375 491.375,497.125 491.875,502.75 493.375,507.625 495.5,511.125 497.5,512.625"/>
    <polyline points="497.875,512.875 499.875,513.5 501.125,513.25 499.75,512.625 495.5,512.125"/>
    <line x1="495.125" x2="480.625" y1="512.125" y2="510.625"/>
    <polyline points="479.875,510.5 464.25,508.375 449.875,505.25"/>
    <polyline points="448.25,504.75 437.75,501.375 432.0,498.875 425.875,495.75 417.75,490.0 411.75,484.0 408.0,478.875 404.875,472.625 403.5,469.0 402.375,464.875"/>
    <polyline points="401.625,460.375 401.25,455.5 401.25,450.0 401.875,443.875 403.125,437.375 405.25,430.125 408.25,422.5 412.25,414.25 417.625,405.75 424.125,397.0 432.25,388.375 441.625,380.25 452.5,373.0 464.5,367.25 477.5,363.25 491.0,361.75 504.5,362.75 517.5,366.5 529.625,372.75 540.5,381.375 549.875,391.625 557.625,403.25 563.75,415.375 568.5,427.625 572.0,439.625 574.5,451.125"/>
    <polyline points="576.0,461.625 576.875,471.375 577.25,480.0 577.125,487.75 576.25,500.375 574.875,509.875 573.375,516.625 570.75,524.75 569.0,529.0 569.0,529.375 570.125,529.375"/>
    <polyline points="570.5,529.375 575.625,528.375 585.375,527.375 595.5,526.625 603.625,526.375"/>
    <polyline points="605.875,526.25 626.375,525.75 690.125,525.0"/>
    <polyline points="694.875,525.0 720.625,524.25 737.75,523.25 755.875,521.25 762.125,520.125 774.75,517.125 781.0,514.75 787.25,511.75 793.25,507.875 798.75,502.625 803.75,495.625 807.625,486.125 810.0,473.375 809.625,456.0 805.25,432.375 794.375,400.5 773.375,358.5"/>
    <polyline points="737.125,305.875 679.625,246.25 598.375,191.5 499.5,161.625 401.25,174.75 323.5,230.25 273.875,310.125 247.75,394.25 236.625,471.0 234.5,537.375 238.375,593.75 247.75,641.25 263.625,680.125 286.625,709.0 316.875,725.875 352.75,729.0 391.375,718.375 429.25,696.25 463.125,666.25 491.375,632.75 513.375,599.0 529.25,567.25 539.75,538.625 545.75,513.875 548.0,492.625 547.125,475.125"/>
    <polyline points="543.75,460.875 538.5,449.75 531.875,441.625 524.25,436.25 516.125,433.375 508.0,432.75 500.0,434.25 492.625,437.5 486.0,442.125 480.125,447.75 475.25,454.125 471.125,460.75 467.875,467.5 463.625,480.625 461.75,492.0 461.25,501.5 461.875,508.875 462.5,511.75 463.875,516.5 465.375,519.75"/>
    <polyline points="466.125,520.875 467.625,522.625 469.0,523.625 470.25,524.125 471.75,524.125 473.125,523.25 473.375,522.375 472.875,521.0 472.0,520.25"/>
    <polyline points="471.625,519.875 468.625,518.375 465.75,517.375 449.25,513.375"/>
    <polyline points="447.75,513.125 432.5,509.125 424.375,506.5 417.75,503.875 410.75,500.375 406.0,497.5 401.125,493.875 396.375,489.5"/>
    <polyline points="394.0,486.875 389.625,480.75 387.625,477.0 385.875,472.875 384.375,468.25 383.25,462.875 382.5,456.875 382.375,450.125 383.0,442.5 384.5,434.0 387.0,424.5 391.0,414.0 396.625,402.625 404.0,390.625 413.625,378.25 425.5,365.875 439.75,354.5 456.25,344.875 474.375,338.0 493.5,334.75 512.75,335.875 531.25,341.5 548.0,351.375 562.375,364.875 574.25,380.75"/>
    <polyline points="583.5,398.0 590.375,415.75 595.125,432.875 598.375,449.125 600.125,464.0 601.0,477.25 601.25,489.0 600.875,499.125 599.5,515.25 598.5,521.375 596.375,530.875 593.5,539.375 591.25,543.625 589.75,545.375 589.0,545.625"/>
    <polyline points="589.0,545.375 591.375,543.875 594.5,543.125 597.5,542.875 602.75,542.875 607.25,543.25 614.5,544.375"/>
    <polyline points="616.5,544.75 627.5,547.75 637.75,551.625 643.25,554.25 649.0,557.5 655.0,561.5 658.0,563.875 664.125,569.25 667.125,572.375 673.0,579.625 678.25,588.125 682.25,598.125"/>
    <polyline points="683.625,603.5 684.5,609.25 684.5,615.0 683.75,620.75 682.0,626.375 679.0,631.625 674.875,636.125 669.5,639.625 662.75,641.875 654.875,642.75 645.875,641.875 636.125,639.25 625.875,635.0 615.375,629.0 604.875,621.875 594.75,613.625 585.125,604.625 576.25,595.25 568.125,585.875 560.75,576.75 554.25,567.875 543.25,551.875 531.25,532.875"/>
    <polyline points="528.25,527.875 518.875,513.375 513.75,506.875 510.875,504.125 508.25,502.125 503.5,500.0 497.0,499.0 492.625,499.0"/>
    <polyline points="491.625,499.0 477.75,498.875 467.25,497.625 460.125,496.0"/>
    <polyline points="458.625,495.5 454.0,494.125 445.875,490.625 439.375,486.5 434.5,482.5 430.125,477.25 428.75,475.25 426.25,470.5 424.375,465.125 423.375,458.625"/>
    <polyline points="423.25,455.125 423.375,451.25 424.75,442.75 428.125,433.25 430.625,428.125 433.75,423.0 437.5,417.875 442.125,412.75 447.25,407.875 453.25,403.375 459.75,399.375 466.875,396.25 474.5,393.875 482.375,392.75 490.375,392.75 498.25,394.0 506.0,396.5 513.25,400.25 519.875,405.125 525.75,410.75 531.0,417.25 535.5,424.125 539.125,431.25 542.125,438.5"/>
    <polyline points="544.5,445.625 546.25,452.5 548.25,465.25 548.75,476.25 548.375,485.375 546.75,495.75 544.0,504.75 541.375,509.875 538.25,513.875"/>
    <polyline points="537.875,514.25 537.0,515.25 541.875,514.875"/>
    <polyline points="542.375,514.75 557.875,513.0 565.0,511.875"/>
    <polyline points="566.25,511.75 574.75,510.25 582.5,508.375 589.25,506.375 597.875,502.75 603.125,499.625 606.375,497.25"/>
    <polyline points="608.0,495.75 611.0,492.625 612.375,490.75 614.625,486.5 616.25,481.5 616.75,478.75 616.75,472.25 615.125,464.75 613.625,460.625 608.875,451.625 605.5,446.875 601.375,442.0 596.375,437.25 590.75,432.5 584.125,428.125 576.875,424.125 568.875,420.75 560.375,418.25 551.5,416.75 542.375,416.5"/>
    <polyline points="533.25,417.25 524.375,419.375 515.875,422.625 508.125,427.0 501.0,432.25 494.625,438.125 489.25,444.5 484.625,451.125 480.75,457.875 477.625,464.5 475.25,470.875 473.375,477.0 471.125,487.75 470.25,496.625 470.25,503.625 471.25,511.25 472.625,515.875 473.625,517.875"/>
    <polyline points="474.125,518.625 475.25,520.0 476.125,520.5 476.75,520.375 476.75,519.75 476.25,519.25 473.25,517.625"/>
    <polyline points="472.75,517.375 466.25,515.5 446.875,511.125"/>
    <polyline points="445.25,510.75 434.75,508.0 424.75,504.5 418.25,501.625 413.625,499.125 406.625,494.625 402.0,490.625 397.5,485.75 393.25,479.75"/>
    <polyline points="391.375,476.125 388.375,467.5 387.25,462.375 386.625,456.5 386.5,450.0 387.125,442.75 388.5,434.625 391.0,425.75 394.75,415.875 400.0,405.25 407.0,394.0 415.875,382.375 426.75,371.0 439.875,360.375 455.0,351.25 471.625,344.5 489.375,341.0 507.375,341.25 524.75,345.625 540.75,353.875 554.875,365.625 566.75,379.75 576.125,395.5 583.375,411.875 588.5,428.125"/>
    <polyline points="592.125,443.625 594.25,458.0 595.5,471.0 596.0,482.625 595.5,501.625 593.875,515.5 593.0,520.875 591.125,529.0 587.875,538.0 585.375,541.875 585.875,541.625"/>
    <polyline points="586.25,541.375 588.375,540.625 592.875,539.875 602.125,539.75 613.125,540.875 619.75,542.125"/>
    <polyline points="622.0,542.625 627.0,543.75 635.0,546.125 647.0,550.875 656.875,556.125 660.375,558.375 663.875,560.75 671.0,566.5 678.125,573.625 681.625,577.875 685.0,582.5 688.25,587.625 691.125,593.375 693.75,599.5 695.75,606.25 697.125,613.375"/>
    <polyline points="697.625,620.75 697.0,628.375 695.125,635.75 691.75,642.75 686.625,649.0 679.75,653.875 671.0,656.875 660.5,657.875 648.75,656.25 635.875,652.25 622.5,645.75 609.125,637.125 596.0,626.875 583.75,615.375 572.375,603.375 562.25,591.25 553.25,579.25 545.375,568.0 538.625,557.375 527.625,539.0 511.25,508.875"/>
    <polyline points="509.125,505.125 504.0,496.875 502.5,495.0 498.75,491.125 496.375,489.625 494.25,488.75 491.0,488.0 478.875,487.625"/>
    <polyline points="477.75,487.5 469.25,486.375 461.75,484.0 454.25,479.875 450.625,476.875 447.5,473.25"/>
    <polyline points="446.5,471.75 444.75,468.625 443.375,465.125 442.5,461.125 442.125,456.625 442.5,451.75 443.875,446.5 444.875,443.625 447.875,438.0 452.0,432.375 457.5,427.125 460.625,424.875 464.125,422.75 467.875,421.0 471.75,419.625 475.875,418.75 480.125,418.25"/>
    <polyline points="484.375,418.375 488.625,418.875 492.875,420.0 496.875,421.75 500.75,423.875 504.375,426.375 507.625,429.375 513.375,436.125 515.75,439.875 517.75,443.75 519.375,447.625 521.875,455.375 523.25,462.625 523.5,466.125 523.625,472.375 523.125,478.0 521.75,484.875 520.375,488.5"/>
    <polyline points="519.625,490.125 517.25,494.125 515.625,496.25 513.875,498.0 511.25,500.0 506.25,502.625 502.875,503.75 498.625,504.625"/>
    <polyline points="497.75,504.75 489.875,505.5 480.125,505.375 473.375,504.75"/>
    <polyline points="472.125,504.625 463.0,503.25 450.75,500.25 442.25,497.125 438.625,495.5 433.0,492.375"/>
    <polyline points="431.125,491.25 427.5,488.5 422.0,483.375 417.0,476.5 414.25,470.875 413.125,467.625 411.5,460.125 411.25,451.125 411.75,446.0 414.5,434.5 416.875,428.25 420.0,421.625 424.125,414.75 429.25,407.75 435.375,400.75 442.625,394.125 450.875,388.0"/>
    <polyline points="460.0,382.875 470.0,378.875 480.625,376.5 491.375,375.875 502.25,377.125 512.625,380.5 522.375,385.625 531.125,392.375 538.875,400.375 545.5,409.5 550.875,419.125 555.25,428.875 558.5,438.625 560.875,448.0 562.625,457.0 564.25,472.875 564.25,485.75 563.875,491.25 562.75,500.25 562.125,503.875 560.0,511.875"/>
    <polyline points="559.375,513.875 555.75,522.0 556.0,522.25 557.0,522.25 561.75,521.375"/>
    <polyline points="562.625,521.25 591.5,517.375 599.5,516.0"/>
    <polyline points="601.625,515.625 608.375,514.25 617.875,511.75 628.0,508.0 635.5,503.875 640.5,500.25 642.75,498.125 645.0,495.625 648.875,489.875 651.625,482.25 652.375,477.75 652.75,472.625 652.375,466.75"/>
    <polyline points="651.125,460.125 649.0,452.875 645.625,444.625 640.75,435.75 634.375,426.125 626.0,416.0 615.625,405.75 603.0,395.75 588.25,386.625 571.625,379.125 553.625,374.25 534.75,372.375 516.0,374.0 498.125,379.375 481.875,388.125 467.75,399.625 456.0,413.0 446.625,427.375 439.375,442.0 434.25,456.25 430.625,469.625 428.25,481.875 426.875,492.875 426.375,502.5 426.375,510.875 426.75,518.0"/>
    <polyline points="427.5,523.875 428.5,528.875 430.75,536.25 432.125,538.875 434.625,542.5 437.25,544.375 439.625,545.0 440.75,545.0 441.875,544.875 444.625,543.625 447.375,541.125 448.375,539.75 449.5,537.0"/>
    <polyline points="449.5,536.25 449.5,534.375 449.125,533.25 448.125,531.75 445.875,529.875 440.0,527.25 432.625,525.5"/>
    <polyline points="431.125,525.25 419.375,523.25 394.125,519.75 382.625,517.75 373.125,515.625"/>
    <polyline points="369.875,514.75 362.875,512.75 352.0,508.5 344.5,504.5 340.75,502.0 333.25,495.5 329.75,491.5 326.25,486.5 323.125,480.625 320.5,473.5 318.375,465.0 317.25,454.625 317.375,442.0 319.25,426.625 323.625,408.25 331.5,386.25 344.125,360.625 362.75,331.75 388.75,301.375 422.875,272.375 464.375,249.625"/>
    <polyline points="510.5,238.5 556.625,243.0 597.625,263.875 630.375,297.625 653.625,338.875 668.625,382.0 677.25,423.25 681.5,460.5 682.875,492.75 682.25,520.125 680.5,543.125 677.625,562.125 673.75,577.625 669.125,590.0 663.75,599.75 657.5,606.875 650.375,611.625 642.625,614.25 634.375,614.875 625.875,613.625 617.125,610.75 608.375,606.625 599.75,601.25 591.625,595.125 583.875,588.5 576.75,581.625"/>
    <polyline points="570.125,574.5 564.125,567.625 553.875,554.75 531.625,523.375 525.875,516.125 522.875,512.75 519.0,509.375 514.5,506.875 511.625,506.0"/>
    <polyline points="510.625,505.75 507.875,505.375 501.125,505.375 489.0,505.875"/>
    <polyline points="488.125,505.875 480.125,505.625 471.0,504.75 458.875,502.625"/>
    <polyline points="457.375,502.25 454.25,501.5 444.25,498.25 437.0,495.0 429.625,490.5 425.875,487.625 420.375,482.125 417.125,477.5 414.25,472.0"/>
    <polyline points="413.0,468.75 411.25,461.375 410.875,457.25 410.75,452.625 411.125,447.625 412.0,442.125 413.5,436.375 415.625,430.125 418.5,423.5 422.375,416.625 427.25,409.5 433.0,402.5 440.0,395.625 448.0,389.25 457.0,383.75 466.875,379.375 477.5,376.375 488.375,375.25 499.375,376.0 510.0,378.75 520.0,383.375 529.25,389.75 537.375,397.625 544.375,406.5 550.125,416.125"/>
    <polyline points="554.75,426.0 558.25,436.0 561.0,445.625 562.75,454.75 564.0,463.25 564.875,478.25 564.875,484.5 564.125,495.125 562.875,503.375 560.75,511.75 558.375,518.125 556.375,522.125"/>
    <polyline points="556.375,522.375 557.25,522.625 566.125,521.125 574.375,520.125"/>
    <polyline points="575.75,519.875 588.75,518.25 605.0,515.5 616.875,512.75 627.0,509.375"/>
    <polyline points="629.625,508.25 637.375,504.125 639.875,502.375 642.25,500.5 646.875,495.875 650.875,489.875 652.5,486.25 653.75,482.125 654.5,477.5 654.75,472.125 654.375,466.125 653.0,459.375 650.75,451.75 647.125,443.25 642.125,434.0 635.25,424.0 626.375,413.375 615.375,402.75 602.125,392.5 586.625,383.25 569.125,375.75 550.25,371.125"/>
    <polyline points="530.75,369.75 511.375,372.25 493.25,378.5 476.875,388.25 462.75,400.75 451.25,414.875 442.25,430.0 435.375,445.125 430.5,459.75 427.25,473.25 425.125,485.625 424.125,496.5 423.75,506.125 424.5,521.25 425.375,527.0 426.5,531.875 427.75,535.75 430.375,541.375 433.25,544.75 436.0,546.375 438.5,546.75"/>
    <polyline points="439.75,546.75 444.0,545.0 446.375,542.875 448.125,540.625 449.5,537.625 449.75,535.0 449.0,532.625 447.75,531.125"/>
    <polyline points="447.25,530.625 443.875,528.625 437.875,526.5 428.25,524.5 415.5,522.625"/>
    <polyline points="413.5,522.375 399.5,520.375 385.75,518.0 376.5,516.125 366.5,513.375 355.875,509.625 348.375,506.0 340.875,501.125 337.25,498.125"/>
    <polyline points="333.5,494.5 330.0,490.25 326.625,485.125 323.625,479.0 321.125,471.625 319.25,462.75 318.375,451.875 318.75,438.875 321.125,423.0 326.125,404.0 334.875,381.5 348.5,355.375 368.375,326.5 395.75,296.375 431.0,268.625 473.125,248.125 519.0,239.875 564.0,247.5 603.125,270.625 633.875,305.75 655.375,347.125 669.0,389.625 676.75,429.75 680.375,465.75 681.375,496.875 680.625,523.25"/>
    <polyline points="678.625,545.25 675.75,563.5 671.875,578.25 667.25,590.125 661.875,599.375 655.75,606.125 648.75,610.625 641.25,613.0 633.25,613.5 624.875,612.125 616.375,609.375 607.875,605.25 599.625,600.125 591.625,594.125 584.125,587.75 577.125,581.0 570.75,574.25 559.625,561.125 546.75,544.0 535.125,527.5"/>
    <polyline points="532.875,524.375 524.25,513.875 519.25,509.625 515.125,507.5 512.25,506.75 508.875,506.25 504.75,506.25"/>
    <polyline points="504.0,506.25 494.5,506.75 483.125,506.625"/>
    <polyline points="482.125,506.625 472.375,505.75 466.125,504.875 457.75,503.25 449.875,501.125"/>
    <polyline points="448.25,500.625 439.375,497.25 431.875,493.375 424.25,487.875 422.375,486.25 418.75,482.25 415.375,477.625 413.875,474.875 411.25,468.625 409.5,461.0 409.125,456.625 409.125,451.875"/>
    <polyline points="409.5,446.625 410.5,441.0 412.125,434.875 414.375,428.375 417.625,421.5 421.75,414.375 426.875,407.0 433.125,399.625 440.625,392.625 449.125,386.125 458.625,380.625 469.125,376.375 480.25,373.625 491.625,372.875 502.875,374.125 513.875,377.625 524.125,383.0 533.25,390.125 541.375,398.75 548.125,408.25 553.75,418.375 558.125,428.75 561.5,438.875 563.875,448.75 565.5,458.0 566.5,466.625"/>
    <polyline points="567.0,474.375 567.125,481.5 566.875,487.75 566.0,498.125 565.375,502.25 563.25,511.75 561.25,517.5 558.75,523.25 558.75,523.625 559.625,523.75"/>
    <polyline points="560.0,523.625 571.125,521.875 587.25,520.0"/>
    <polyline points="589.0,519.75 607.75,517.125 617.5,515.25 625.25,513.25 633.5,510.5 641.875,506.75 644.625,505.25 649.875,501.375"/>
    <polyline points="652.5,499.125 657.125,493.375 659.125,490.0 660.875,486.0 662.125,481.5 662.875,476.25 663.0,470.25 662.375,463.375 660.625,455.625 657.75,446.875 653.25,437.0 646.875,426.125 638.25,414.5 627.25,402.25 613.5,390.125 597.0,378.625 578.0,369.0 557.0,362.125 534.75,359.125 512.5,360.625 491.375,367.0 472.375,377.5 456.125,391.625 442.875,407.875 432.75,425.25"/>
    <polyline points="425.25,442.75 420.0,459.5 416.625,474.875 414.625,488.875 413.75,501.125 413.625,511.625 414.125,520.625 415.0,528.25 417.625,539.625 419.25,543.75 422.75,549.625 424.625,551.5 428.375,553.625 430.125,554.125 433.75,554.125 437.125,553.25 441.625,550.875 444.25,548.875"/>
    <polyline points="445.5,547.875 447.625,545.75 451.5,540.625 452.5,538.75 453.625,535.375 453.75,533.25 453.5,531.875 451.875,529.25 450.75,528.25"/>
    <polyline points="450.125,527.875 445.375,525.5 441.0,524.125 435.75,522.875 416.5,519.25"/>
    <polyline points="414.25,518.875 394.625,514.625 386.0,512.125 376.75,508.625 367.0,503.75 363.75,501.625 357.125,496.375 353.875,493.125 350.75,489.375 347.875,485.0 345.125,479.875 342.625,473.875"/>
    <polyline points="340.75,466.75 339.5,458.25 339.125,448.25 340.0,436.375 342.5,422.375 347.375,406.125 355.125,387.25 366.75,366.125 383.0,343.125 404.625,319.625 431.875,297.875 464.125,280.75 499.75,271.625 535.75,273.125 569.25,286.0 597.5,308.875 619.5,338.5 635.0,371.5 645.25,404.75 651.375,436.0 654.5,464.25 655.5,488.875 655.25,510.0 654.125,527.75 652.25,542.5 649.875,554.625"/>
    <polyline points="647.125,564.5 644.125,572.5 640.625,578.625 637.0,583.25 633.0,586.625 628.875,588.75 624.5,589.875 620.0,590.125 615.5,589.5 610.875,588.125 606.25,586.25 601.75,583.875 593.125,578.125 589.125,574.875 581.75,568.0 575.25,561.25 567.25,551.875 559.5,541.625"/>
    <polyline points="557.875,539.5 551.5,530.125 548.125,523.75 548.0,522.0 548.25,521.25 549.625,520.0"/>
    <polyline points="550.0,519.75 554.75,518.375 573.5,515.625"/>
    <polyline points="574.875,515.375 590.0,512.625 601.75,509.5 608.0,507.25 612.25,505.375 616.375,503.125 622.625,498.75"/>
    <polyline points="624.5,497.0 628.125,492.875 631.125,487.75 633.125,481.375 633.75,477.625 633.625,469.0 631.125,458.625 628.75,452.75 625.375,446.375 621.125,439.5 615.625,432.5 608.75,425.375 600.75,418.25 591.25,411.5 580.5,405.625 568.625,400.75 555.875,397.375 542.625,395.875 529.375,396.5 516.375,399.25 504.125,404.125"/>
    <polyline points="493.0,410.875 483.125,419.125 474.75,428.375 467.75,438.25 462.25,448.375 457.875,458.375 454.625,467.875 452.375,476.75 450.75,484.875 449.875,492.25 449.25,504.375 449.875,513.625 451.625,522.625 453.125,526.375 454.5,528.625 455.875,530.0 457.375,530.625"/>
    <polyline points="457.875,530.625 458.75,530.125 459.125,528.875 458.75,527.75 457.5,526.25 455.375,524.75 449.625,522.5"/>
    <polyline points="448.625,522.125 441.375,520.25 416.375,514.75 404.5,511.375"/>
    <polyline points="401.875,510.625 391.0,506.25 382.375,501.5 379.375,499.5 373.5,494.75 367.875,488.625 365.125,484.75 362.625,480.375 360.375,475.375 358.5,469.5 357.0,462.625 356.25,454.75 356.25,445.5 357.5,434.875 360.125,422.625 364.75,408.5 371.625,392.75 381.625,375.375 395.125,356.875"/>
    <polyline points="412.5,338.125 434.125,320.875 459.375,306.75 487.375,298.0 516.375,296.625 544.375,303.375 569.375,317.875 590.125,338.75 606.25,363.625 617.875,390.125 625.625,416.5 630.5,441.25 633.125,463.75 634.125,483.5 634.125,500.625 633.375,515.125 632.125,527.375 630.625,537.5 628.875,545.875 626.875,552.625 624.875,558.125 622.75,562.375 620.5,565.625 618.25,568.125 616.0,569.875 613.75,571.0"/>
    <polyline points="611.375,571.625 606.875,571.625 602.5,570.25 598.375,568.125 591.125,562.5 585.625,556.375 582.625,552.125 580.125,547.375 579.375,545.25 579.125,543.5"/>
    <polyline points="579.0,542.625 579.25,541.125 580.125,539.375 581.75,537.875 584.875,536.5 589.25,535.625 594.625,535.125 603.125,535.125"/>
    <polyline points="605.125,535.25 611.375,535.625 626.125,537.5 634.875,539.25 647.875,542.625 655.0,545.125 666.625,550.125 675.0,554.75 683.75,560.75"/>
    <polyline points="688.25,564.5 692.875,568.625 697.5,573.375 702.125,578.875 706.625,585.125 711.0,592.125 715.0,600.125 718.5,609.125 721.125,619.0 722.75,629.75 722.75,641.125 720.875,652.75 716.625,664.0 709.375,674.0 699.0,682.0 685.5,686.75 669.0,687.5 650.375,683.625 630.5,675.125 610.375,662.625 591.125,647.0 573.375,629.375 557.625,610.875 544.125,592.375 532.75,574.875 523.375,558.5"/>
    <polyline points="515.75,543.75 509.625,530.625 504.75,519.125 497.875,500.625 493.875,487.25 491.5,477.875 489.75,467.375 489.625,465.0 489.875,463.375 489.875,465.75"/>
    <polyline points="489.75,466.375 488.5,469.375 487.25,471.0 484.625,473.375 480.625,475.125 476.125,475.75"/>
    <polyline points="475.25,475.625 471.125,475.0 468.75,474.125 466.375,472.875 463.375,470.625 461.375,468.375 460.375,466.75 459.0,463.875 458.5,461.625"/>
    <polyline points="458.375,460.5 458.5,455.625 459.75,451.625 461.125,449.0 462.875,446.5 465.25,444.125 469.625,441.25 474.625,439.5 480.25,439.125 485.875,440.375"/>
    <polyline points="487.625,441.25 491.0,443.25 495.25,447.25 498.625,452.25 500.75,457.625 501.75,462.875 501.875,467.75 501.5,470.875 500.75,473.625 498.625,478.25"/>
    <polyline points="497.875,479.25 496.5,481.125 494.0,483.375 490.375,485.625 487.375,486.75 484.125,487.625 478.625,488.25 472.625,487.875"/>
    <polyline points="471.375,487.75 465.0,486.375 459.875,484.5 455.875,482.5 452.125,480.0 449.625,478.0 445.125,472.875 443.25,469.625 441.75,466.0"/>
    <polyline points="441.25,464.0 440.375,459.625 440.25,457.25 440.625,452.125 441.875,446.625 444.125,440.625 445.75,437.625 450.125,431.5 452.75,428.625 459.125,423.25 462.75,421.0 466.75,419.0 470.875,417.5 475.375,416.375 479.875,415.875 484.5,415.875 489.0,416.375 493.5,417.625 497.875,419.375 502.0,421.625"/>
    <polyline points="505.875,424.375 509.5,427.625 512.625,431.125 515.5,435.0 518.0,439.0 521.875,447.25 524.375,455.5 525.125,459.5 525.75,463.375 526.125,470.375 525.625,479.375 524.625,484.25 523.375,488.375 521.125,493.25 518.75,496.875"/>
    <polyline points="517.875,497.875 514.625,500.875 510.625,503.375 505.875,505.125 502.875,505.875 498.375,506.5"/>
    <polyline points="497.625,506.625 492.0,507.0 485.125,507.0 474.875,506.25"/>
    <polyline points="473.75,506.125 467.75,505.375 459.5,503.875 451.875,502.0 445.125,499.875 436.125,496.0"/>
    <polyline points="434.25,495.0 430.375,492.875 424.625,488.75 420.875,485.25 417.25,481.125 414.0,476.125 411.25,470.0 410.125,466.5 408.75,458.375 408.75,448.625 409.5,443.125 410.875,437.125 413.0,430.75 415.875,423.875 419.625,416.75 424.5,409.375 430.375,402.0"/>
    <polyline points="437.375,394.75 445.625,387.875 455.0,381.875 465.25,377.0 476.25,373.75 487.625,372.25 499.25,372.75 510.5,375.5 521.0,380.25 530.75,387.0 539.25,395.125 546.625,404.625 552.625,414.625 557.375,425.125 561.125,435.5 563.75,445.625 565.625,455.125 566.875,464.0 567.5,472.125 567.75,479.5 567.25,491.875 566.125,501.375 564.75,508.5"/>
    <polyline points="564.125,511.375 562.75,515.75 559.375,523.75 560.0,524.125 564.875,523.25"/>
    <line x1="565.625" x2="604.125" y1="523.125" y2="518.25"/>
    <polyline points="606.5,517.875 613.625,516.75 621.25,515.125 632.125,512.125 637.875,510.125 643.5,507.5 649.125,504.125 651.875,502.125 657.0,497.25 659.375,494.25 661.5,490.875 663.25,486.875 664.625,482.375 665.625,477.125 665.875,471.125"/>
    <polyline points="665.25,464.125 663.75,456.25 660.875,447.375 656.375,437.25 650.0,426.125 641.375,414.0 630.125,401.25 616.125,388.5 599.125,376.5 579.375,366.25 557.5,358.875 534.375,355.625 511.125,357.25 489.125,363.75 469.375,375.0 452.625,389.875 439.125,407.0 428.875,425.25 421.375,443.5 416.25,460.875 412.875,476.875 411.0,491.125 410.25,503.625 410.375,514.5 411.0,523.625 412.0,531.25"/>
    <polyline points="413.375,537.625 415.0,542.75 416.75,546.875 418.625,550.125 420.625,552.625 422.625,554.375 424.625,555.625 426.625,556.375 428.75,556.75 430.75,556.75 434.625,556.125 438.125,554.625 441.5,552.625 447.125,548.0 451.375,543.25 452.875,541.125"/>
    <polyline points="453.625,540.0 455.125,537.125 456.0,534.5 456.125,531.625 455.875,530.375 455.375,529.25 454.125,527.75 451.75,526.0 448.5,524.5"/>
    <polyline points="447.5,524.25 439.375,521.875 416.625,517.25 404.875,514.5"/>
    <polyline points="402.375,513.875 391.625,510.5 382.75,506.875 376.625,503.75 370.5,499.625 367.375,497.125 364.25,494.375 358.25,487.375 355.5,483.0 353.0,477.875 350.875,472.0 349.125,465.125 348.125,457.0 347.875,447.5 348.875,436.25 351.375,423.25 355.875,408.25 363.125,391.125"/>
    <polyline points="373.625,372.0 388.125,351.5 407.25,330.5 431.25,310.875 459.625,295.0 491.0,285.5 523.5,284.75 554.25,293.625 581.375,311.375 603.125,336.125 619.5,364.75 630.75,394.625 638.0,423.625 642.25,450.375 644.125,474.25 644.625,494.875 644.125,512.5 642.875,527.375 641.25,539.75 639.25,549.875 636.875,558.25 634.375,564.875 631.625,570.0 628.875,574.0 625.875,576.875 622.75,578.875"/>
    <polyline points="619.5,580.125 616.25,580.625 613.0,580.5 606.375,578.875 600.0,575.75 594.125,571.625 586.125,564.75 581.5,560.125 577.625,555.625 571.5,547.625 568.375,542.75 566.375,538.75"/>
    <polyline points="565.875,537.625 564.875,534.75 564.75,532.5 565.25,530.625 566.375,529.25 569.5,527.5 577.75,525.625"/>
    <polyline points="579.125,525.5 593.5,524.0 615.875,522.375 632.75,520.75"/>
    <polyline points="635.75,520.375 652.25,517.875 662.875,515.375 670.25,513.0 677.625,509.875 681.25,508.0 684.875,505.625 691.625,499.75 694.625,495.875 697.375,491.25 699.625,485.875 701.25,479.25 701.875,471.375 701.5,462.0 699.375,450.75 695.25,437.5 688.25,421.875"/>
    <polyline points="677.875,403.875 662.875,383.875 642.75,362.625 616.875,341.875 585.375,323.875 549.5,311.75 511.625,308.375 475.125,315.25 442.625,332.25 416.25,356.875 396.5,386.125 382.75,416.625 374.0,446.25 369.0,473.5 366.625,497.5 366.25,518.25 367.25,535.875 369.25,550.5 372.125,562.625 375.75,572.375 380.0,580.0 384.875,585.875 390.125,590.125 395.75,592.75 401.75,594.125 408.0,594.25"/>
    <polyline points="414.5,593.25 420.875,591.375 427.25,588.75 433.375,585.375 439.375,581.625 450.625,573.125 460.375,564.25 468.75,555.5 475.75,547.625 492.0,527.75 499.75,519.125"/>
    <polyline points="500.75,518.125 504.75,514.875 507.25,513.5 511.25,512.125 514.375,511.75"/>
    <line x1="514.625" x2="523.5" y1="511.75" y2="511.625"/>
    <line x1="523.875" x2="536.5" y1="511.625" y2="511.25"/>
    <polyline points="537.125,511.25 551.125,510.25 559.875,509.125"/>
    <polyline points="561.0,508.875 572.75,506.625 581.5,504.0 589.0,500.75 593.5,498.125 596.375,496.0"/>
    <polyline points="597.75,494.75 600.375,492.125 603.625,487.25 605.125,483.25 606.0,478.75 605.875,473.5 604.625,467.5 603.375,464.25 599.75,457.375 594.25,450.25 590.625,446.625 586.5,443.125 581.875,439.75 576.625,436.625 571.0,434.0 564.875,431.75 558.375,430.125"/>
    <polyline points="551.625,429.25 544.75,429.125 538.0,429.75 531.25,431.125 524.75,433.375 518.625,436.25 513.0,439.875 507.875,443.875 503.25,448.375 499.25,453.125 492.75,463.0 488.375,472.625 486.875,477.25 484.75,485.5 484.125,489.125 483.625,495.625 483.875,503.0 484.875,508.125"/>
    <polyline points="485.375,509.375 486.625,512.25 487.875,514.0 489.5,515.375 490.75,515.625 491.0,515.375 490.625,515.0 489.0,514.25 480.75,512.625"/>
    <polyline points="480.0,512.5 465.125,510.125 453.0,507.625"/>
    <polyline points="451.5,507.25 445.0,505.625 435.875,502.625 428.0,499.25 419.625,494.5 415.375,491.375 409.125,485.375 405.25,480.125 403.5,477.125"/>
    <polyline points="401.875,473.875 399.25,466.0 398.375,461.5 397.875,456.375 397.75,450.75 398.375,444.5 399.5,437.625 401.625,430.125 404.625,422.0 408.75,413.25 414.25,404.25 421.125,394.875 429.625,385.625 439.625,376.75 451.25,369.0 464.125,362.625 478.0,358.5 492.5,356.875 507.0,358.125 520.875,362.375 533.75,369.375 545.125,378.875 554.75,390.25 562.75,402.875 569.0,416.0"/>
    <polyline points="573.75,429.125 577.125,441.875 579.375,453.875 580.75,464.875 581.5,475.0 581.625,483.875 581.5,491.75 581.0,498.5 579.625,509.5 578.875,513.875 577.25,520.5 575.25,526.75 573.125,531.625 573.125,532.0 573.5,532.125"/>
    <polyline points="573.75,532.125 580.75,530.875 586.875,530.25 604.5,529.75"/>
    <polyline points="606.625,529.75 627.0,530.5 649.75,532.75 661.25,534.625 669.625,536.375 683.25,540.125 693.25,543.75"/>
    <polyline points="698.5,546.125 704.0,548.75 715.625,555.75 728.0,565.75 734.5,572.125 741.125,579.875 747.75,589.125 754.25,600.125 760.375,613.125 765.5,628.5 769.25,646.25 770.375,666.125 768.0,687.5 760.375,708.625 746.125,727.375 724.625,740.625 696.0,745.125 662.25,738.75 626.125,721.5 591.25,695.375 560.0,663.75 533.875,630.0 513.125,596.875 497.375,566.0"/>
    <polyline points="486.125,538.375 478.5,514.0 473.875,493.0 471.625,475.125 471.5,460.0 472.875,447.25 475.75,436.875 479.5,428.5 484.25,422.0 489.5,417.375 495.25,414.375 501.125,413.0 507.0,413.125 512.75,414.625 518.125,417.25 523.0,421.0 527.375,425.375 531.25,430.5 534.5,436.0 537.25,441.75 539.375,447.5 541.0,453.25 542.125,458.75 543.5,469.125 543.625,473.875"/>
    <polyline points="543.625,478.125 543.375,482.125 541.875,491.875 539.75,499.0 538.25,502.375 535.375,507.125 533.5,509.375 531.0,511.5 529.5,512.375"/>
    <polyline points="529.25,512.5 527.75,513.25 529.625,513.25"/>
    <line x1="529.875" x2="542.125" y1="513.25" y2="512.375"/>
    <polyline points="542.875,512.25 557.75,510.75 568.875,508.875"/>
    <polyline points="570.25,508.625 579.0,506.5 583.625,505.0 590.0,502.5 593.25,500.875 597.875,498.0 600.875,495.625 604.875,491.25 607.125,487.625"/>
    <polyline points="608.0,485.625 609.375,481.125 609.75,478.5 609.625,472.875 609.125,469.75 608.125,466.375 605.125,459.125 600.0,451.25 592.5,443.25 587.875,439.375 582.5,435.625 576.625,432.25 570.125,429.375 563.25,427.125 556.0,425.5 548.375,424.75 540.75,424.875 533.25,426.0 525.875,428.0 519.0,430.875 512.5,434.625"/>
    <polyline points="506.5,439.0 501.25,443.875 496.625,449.125 492.625,454.625 489.25,460.125 486.5,465.625 484.25,470.875 482.5,476.0 481.125,480.875 479.5,489.375 479.125,493.125 479.0,499.5 479.25,504.5 480.375,510.0 481.625,513.375 483.375,515.875"/>
    <polyline points="483.75,516.25 484.625,517.0 485.75,517.0 485.5,516.5 484.5,515.875 482.875,515.25"/>
    <polyline points="482.5,515.125 474.5,513.25 462.625,511.125"/>
    <polyline points="461.5,510.875 447.125,507.75 436.625,504.625 428.75,501.625 420.375,497.375 418.25,496.0"/>
    <polyline points="416.0,494.625 409.5,489.375 405.25,484.75 403.25,482.125 401.375,479.25 398.0,472.375 395.5,463.75 394.5,453.125 394.875,446.875 395.75,439.875 397.5,432.25 400.25,424.0 404.25,415.0 409.5,405.5 416.25,395.625 424.625,385.75 434.75,376.125 446.5,367.375 459.875,360.0 474.5,354.875"/>
    <polyline points="489.75,352.375 505.25,353.0 520.25,356.875 534.125,364.0 546.5,373.75 557.0,385.625 565.625,399.0 572.25,413.0 577.375,427.0 581.0,440.625 583.375,453.375 584.875,465.125 585.75,485.125 585.5,493.5 584.375,506.75 582.75,516.5 581.125,523.25 578.0,532.125"/>
    <polyline points="577.5,533.0 576.875,534.75 585.875,533.375 594.25,532.875"/>
    <polyline points="595.875,532.75 605.125,532.875 614.0,533.375 632.875,535.5 642.5,537.25 653.125,539.75 664.875,543.5"/>
    <polyline points="669.125,545.125 677.875,549.125 687.25,554.25 692.25,557.5 697.25,561.25 702.375,565.625 707.625,570.625 713.0,576.5 718.25,583.25 723.375,591.125 728.25,600.125 732.625,610.5 736.125,622.125 738.5,635.125 739.0,649.125 737.0,663.75 731.875,678.125 722.875,691.0 709.625,701.0 692.0,706.375 670.5,706.0 646.5,699.25 621.5,686.25 597.125,668.25"/>
    <polyline points="574.5,646.875 554.75,623.875 538.0,600.625 524.25,578.5 513.25,558.0 504.75,539.625 498.25,523.375 493.375,509.375 490.0,497.25 487.625,486.875 486.125,478.25 485.5,470.875 485.375,464.875 485.625,460.0 486.375,456.0 487.375,452.875 489.875,448.75 491.375,447.625 492.875,447.0 495.875,447.125 498.75,448.625 501.125,451.0"/>
    <polyline points="502.25,452.5 504.625,457.625 505.5,461.375 506.0,465.0 506.0,468.5 505.625,471.875 504.375,476.375 502.625,480.125 499.625,484.125 496.125,487.125"/>
    <polyline points="495.125,487.625 491.125,489.625 488.0,490.625 480.0,491.75 476.375,491.75 471.25,491.25 466.0,490.25"/>
    <polyline points="464.625,490.0 457.625,487.625 453.375,485.625 447.75,482.0 443.75,478.5 441.25,475.625 438.0,470.375 435.75,464.0 434.875,458.875"/>
    <polyline points="434.75,456.125 435.25,450.0 436.0,446.75 438.25,439.75 442.125,432.5 447.75,425.25 451.125,421.75 455.0,418.5 459.375,415.5 464.125,413.0 469.125,410.875 474.5,409.375 480.0,408.625 485.5,408.5 491.125,409.125 496.625,410.625 501.875,412.75 506.875,415.75 511.375,419.25 515.625,423.25 519.375,427.75 522.5,432.5"/>
    <polyline points="525.25,437.5 527.625,442.5 529.5,447.625 532.0,457.375 533.25,466.375 533.5,474.25 533.0,481.125 532.0,486.75 530.75,491.375 529.375,495.125 527.0,499.5 524.75,502.625 522.625,504.75"/>
    <polyline points="521.875,505.375 519.25,507.125 515.875,508.625 512.375,509.625 509.0,510.125"/>
    <line x1="508.625" x2="498.5" y1="510.25" y2="510.75"/>
    <line x1="498.0" x2="482.5" y1="510.75" y2="509.875"/>
    <polyline points="481.625,509.75 478.0,509.5 466.25,507.875 452.125,505.0"/>
    <polyline points="450.625,504.5 442.125,502.0 436.5,499.875 428.75,496.125 420.625,490.75 416.625,487.25 411.0,480.625 407.625,474.875 406.125,471.625 404.875,467.875"/>
    <polyline points="403.875,463.875 402.875,454.5 403.125,449.0 403.75,443.0 405.125,436.5 407.375,429.5 410.375,421.875 414.5,413.875 419.875,405.625 426.5,397.25 434.375,389.0 443.75,381.25 454.375,374.375 466.0,369.0 478.625,365.5 491.625,364.125 504.625,365.375 517.125,369.125 528.75,375.25 539.25,383.625 548.25,393.625 555.75,404.75 561.75,416.375 566.375,428.25 569.875,439.875"/>
    <polyline points="572.25,450.875 573.75,461.125 574.625,470.625 575.0,479.0 575.0,486.625 574.625,493.25 573.5,504.0 572.0,512.0 569.875,519.875 566.875,527.25 566.875,528.0 567.375,528.125"/>
    <polyline points="567.75,528.125 573.875,527.0 580.875,526.125 597.625,524.875"/>
    <polyline points="599.75,524.75 618.625,523.75 645.875,521.75 660.25,520.125 675.75,517.375"/>
    <polyline points="679.875,516.375 688.0,513.75 696.25,510.25 700.25,508.0 704.25,505.25 708.0,501.875 711.5,497.875 714.625,493.0 717.25,487.125 719.25,479.875 720.125,471.0 719.5,460.125 717.0,446.875 711.875,430.875 703.0,411.625 689.375,389.25 669.75,364.125 642.875,337.75 608.125,312.875 566.5,293.5 520.625,284.25 474.875,288.5 433.875,306.75 400.875,336.125"/>
    <polyline points="376.75,372.125 360.625,410.125 351.0,446.5 346.0,479.5 344.125,508.375 344.5,533.0 346.625,553.75 350.125,570.875 354.75,584.875 360.5,595.875 367.25,604.375 375.0,610.25 383.625,613.875 392.75,615.25 402.375,614.5 412.25,612.0 422.0,608.0 431.625,602.75 440.875,596.5 449.5,589.625 457.5,582.5 464.875,575.125 477.5,560.875 487.5,548.125"/>
    <polyline points="491.625,542.5 511.125,514.375 515.0,509.75 517.125,507.75 520.75,505.375 523.125,504.625 526.75,504.25"/>
    <polyline points="527.5,504.25 538.0,505.0 547.5,504.875"/>
    <polyline points="548.375,504.75 556.5,504.0 563.125,502.75 571.375,500.375 576.25,498.375"/>
    <polyline points="577.375,497.75 581.0,495.75 583.25,494.125 587.25,490.125 589.625,486.5 591.25,482.0 591.625,478.625 591.375,474.875 590.25,470.75 588.375,466.375 585.25,461.875"/>
    <polyline points="583.375,459.625 578.5,455.25 572.625,451.25 569.25,449.5 561.625,446.875 553.5,445.375 549.125,445.25 540.625,446.125 536.375,447.125 528.5,450.375 524.875,452.5 518.375,457.5 515.5,460.375 510.75,466.25 505.75,475.25 504.625,478.125"/>
    <polyline points="503.75,480.875 502.5,486.0 501.875,490.5 501.75,494.5 502.25,499.125 502.875,501.625 504.5,505.25 505.875,507.125 509.25,509.5"/>
    <polyline points="509.75,509.75 513.125,510.75 519.625,511.375"/>
    <line x1="520.0" x2="531.125" y1="511.375" y2="511.375"/>
    <polyline points="531.75,511.25 540.125,511.0 550.5,510.125"/>
    <polyline points="551.5,510.0 559.0,509.125 567.625,507.625 574.5,506.0 583.375,503.125"/>
    <polyline points="584.875,502.5 592.375,498.625 598.0,494.25 601.625,489.875 603.625,486.5 604.375,484.5 605.0,482.375 605.625,477.75 605.375,472.375 604.75,469.5 602.5,463.125 598.5,456.25"/>
    <polyline points="595.875,452.625 588.875,445.5 584.625,442.125 579.75,438.875 574.5,436.0 568.625,433.5 562.5,431.5 556.0,430.125 549.25,429.5 542.5,429.625 535.75,430.5 529.125,432.25 522.875,434.625 517.0,437.75 511.5,441.5 506.625,445.625 502.125,450.25 498.375,455.0 495.125,459.875 492.375,464.75 488.25,474.25 485.75,482.75 485.0,486.625"/>
    <polyline points="484.5,490.25 484.125,496.375 484.25,501.375 485.5,508.375 486.75,511.5 488.0,513.5 490.125,515.25 490.75,515.5 491.5,515.375 491.25,514.875 489.875,514.25 486.625,513.5"/>
    <line x1="486.125" x2="466.375" y1="513.375" y2="510.125"/>
    <polyline points="465.125,510.0 456.0,508.25 445.0,505.5 439.75,503.875 428.125,499.125 424.0,496.875"/>
    <polyline points="421.875,495.625 415.5,491.25 411.375,487.375 407.375,482.75 403.75,477.0 400.625,470.0 398.625,461.25 398.125,456.25 398.125,450.625 398.625,444.375 399.875,437.5 401.875,430.0 405.0,421.875 409.125,413.25 414.625,404.25 421.5,394.875 430.0,385.75 440.0,377.0 451.5,369.25"/>
    <polyline points="464.375,363.0 478.25,358.75 492.625,357.25 507.0,358.5 520.75,362.75 533.5,369.75 544.875,379.25 554.5,390.5 562.375,403.0 568.625,416.125 573.375,429.25 576.75,441.875 579.0,453.875 580.375,464.875 581.125,474.75 581.125,491.5 580.0,504.25 578.5,513.5 577.0,520.25 574.875,526.5"/>
    <polyline points="574.375,527.875 572.875,531.375 573.125,532.0 578.375,531.0 586.5,530.125"/>
    <polyline points="587.875,530.0 599.875,529.5 618.125,529.75 632.25,530.5 649.0,532.125"/>
    <polyline points="652.75,532.625 668.75,535.375 682.25,538.75 697.375,544.125 708.5,549.5 720.375,557.0 726.75,561.875 733.25,567.75 740.0,574.75 746.75,583.25 753.5,593.375 760.125,605.5 766.0,619.875 770.875,636.75 773.75,656.125 773.625,677.5 768.875,699.875"/>
    <polyline points="758.125,721.25 739.875,738.625 713.875,748.5 681.125,747.75 644.375,735.375 607.125,712.25 572.625,681.5 543.125,647.0 519.25,612.0 501.0,578.75 487.75,548.5 478.625,521.875 473.0,498.75 470.125,478.875 469.5,462.0 470.875,447.875 473.75,436.25 477.875,426.75 482.875,419.5 488.75,414.125 495.0,410.625 501.5,409.0 508.125,409.0 514.375,410.625 520.375,413.5 525.875,417.5"/>
    <polyline points="530.75,422.5 534.875,428.125 538.5,434.25 541.375,440.5 543.625,446.875 545.375,453.25 546.625,459.25 547.875,470.5 548.0,475.5 547.625,484.375 546.0,494.5 544.625,499.625 543.125,503.5 540.875,507.75 538.375,511.125"/>
    <polyline points="537.875,511.75 535.875,513.625 534.5,514.5 534.5,514.75 536.125,514.625"/>
    <line x1="536.5" x2="552.25" y1="514.5" y2="512.875"/>
    <polyline points="553.25,512.75 569.75,510.375 581.75,507.625 586.625,506.125"/>
    <polyline points="588.25,505.5 596.75,501.875 603.375,497.625 606.5,494.875 609.25,491.625 612.625,485.625 614.0,480.625 614.375,477.875 614.125,471.5 613.5,468.0 612.375,464.25 608.625,456.0"/>
    <polyline points="606.0,451.625 602.625,447.125 598.5,442.625 593.625,438.0 588.125,433.75 581.875,429.625 574.875,426.0 567.25,423.0 559.25,420.875 550.75,419.625 542.25,419.375 533.625,420.25 525.25,422.25 517.375,425.375 510.0,429.375 503.25,434.25 497.25,439.75 492.0,445.75 487.625,452.0 483.875,458.25 480.875,464.5 476.625,476.25 475.25,481.625 473.625,491.125"/>
    <polyline points="473.375,495.125 473.25,502.0 473.75,507.375 474.5,511.375 475.375,514.25 477.25,517.625 478.625,519.0 479.125,519.25 479.75,519.125 479.0,518.0 476.5,516.75 466.5,514.125"/>
    <polyline points="465.5,514.0 446.125,509.75 437.5,507.375 427.75,504.0"/>
    <polyline points="425.625,503.125 421.375,501.25 414.75,497.625 410.125,494.625 403.375,488.75 399.125,483.625 397.0,480.625 395.125,477.25 391.875,469.375 390.75,464.625 389.875,459.375 389.625,453.375 389.75,446.75 390.75,439.375 392.625,431.25 395.5,422.25 399.75,412.5 405.5,402.125"/>
    <polyline points="412.875,391.375 422.125,380.375 433.375,369.875 446.625,360.25 461.5,352.5 477.625,347.125 494.625,345.0 511.5,346.625 527.625,351.875 542.375,360.625 555.25,372.375 565.875,386.25 574.375,401.25 580.75,416.75 585.5,432.0 588.625,446.5 590.625,460.0 591.75,472.125 592.125,483.0 592.0,492.5 590.875,507.75 589.125,518.875 587.375,526.5"/>
    <polyline points="586.5,529.375 584.375,535.125 582.25,539.125 587.5,537.75 591.75,537.375"/>
    <polyline points="593.0,537.25 600.25,537.125 609.5,537.75 623.375,539.75 631.375,541.5 637.25,543.125 650.125,547.625"/>
    <polyline points="653.625,549.125 657.25,550.75 664.625,554.75 672.5,559.875 676.5,563.0 684.75,570.375 688.75,574.75 692.875,579.75 696.75,585.375 700.375,591.625 703.75,598.625 706.625,606.25 708.75,614.625 710.0,623.625 710.0,633.0 708.5,642.5 705.0,651.625 699.375,659.875 691.375,666.625 680.875,671.0 668.125,672.625 653.5,670.875 637.5,665.625"/>
    <polyline points="620.875,657.0 604.375,645.75 588.75,632.25 574.25,617.625 561.25,602.5 550.0,587.375 540.25,573.0 532.0,559.625 525.125,547.375 514.5,526.75 507.25,511.0 496.125,485.25 492.375,478.875 490.875,477.25 490.125,476.875"/>
    <polyline points="489.375,476.5 487.375,476.0 485.25,476.0 480.0,476.625 476.0,476.625 472.5,476.125 470.0,475.375"/>
    <polyline points="469.125,475.0 465.75,473.375 462.75,471.0 460.75,468.75 459.0,466.0 457.875,462.875 457.375,459.25 457.625,455.375 458.375,452.625"/>
    <polyline points="458.875,451.125 461.25,447.0 464.75,443.25 467.75,441.125 473.0,438.875 474.875,438.375 478.75,438.0 482.75,438.375 484.75,438.875 486.625,439.5 490.375,441.375 495.125,445.375 497.75,448.75"/>
    <polyline points="498.875,450.5 501.5,456.0 502.5,459.75 503.125,465.25 503.0,468.625 501.75,474.5 500.125,478.25 498.75,480.375 496.5,483.0 493.875,485.0"/>
    <polyline points="492.875,485.625 488.0,487.875 483.625,488.875 480.25,489.25 476.75,489.375 471.875,489.0 464.125,487.25"/>
    <polyline points="462.75,486.875 457.375,484.75 453.375,482.5 449.5,479.625 444.625,474.75 441.625,469.875 439.5,464.0 438.625,459.5 438.5,457.0 438.875,451.5"/>
    <polyline points="439.5,448.625 441.375,442.5 442.75,439.375 444.625,436.125 449.25,429.625 452.125,426.5 455.375,423.625 459.0,420.875 463.0,418.5 467.25,416.5 471.875,415.0 476.625,414.0 481.375,413.5 486.375,413.625 491.25,414.5 496.0,415.875 500.5,418.0 504.875,420.625 508.875,423.75 512.5,427.375 515.75,431.25 521.0,439.875 523.0,444.25"/>
    <polyline points="524.75,448.75 527.0,457.375 528.25,465.375 528.5,472.625 528.375,475.875 527.625,481.625 526.0,488.625 523.0,495.25 520.625,498.75 515.875,503.125"/>
    <polyline points="515.125,503.625 510.625,505.75 507.875,506.625 504.5,507.375 497.875,508.125"/>
    <polyline points="497.125,508.125 486.625,508.25 476.375,507.5"/>
    <polyline points="475.25,507.375 470.75,506.875 459.0,504.875 448.0,502.0 439.25,498.875"/>
    <polyline points="437.375,498.0 433.5,496.25 427.75,492.875 421.875,488.5 418.0,484.75 412.75,477.75 409.75,471.75 408.5,468.375 407.5,464.5 406.5,455.75 406.5,450.75 407.0,445.125 408.125,439.125 410.0,432.625 412.625,425.75 416.125,418.375"/>
    <polyline points="420.75,410.75 426.5,402.875 433.5,395.125 441.625,387.75 451.125,381.125 461.625,375.625 472.875,371.5 484.875,369.375 497.0,369.375 508.875,371.625 520.125,376.125 530.5,382.75 539.75,391.125 547.625,400.875 554.125,411.375 559.375,422.25 563.25,433.25 566.25,443.875 568.25,454.0 569.625,463.375 570.25,471.875 570.5,486.5 569.625,498.0 569.0,502.5"/>
    <polyline points="568.25,506.5 566.875,512.875 565.5,517.375 562.25,525.125 562.375,525.5 563.0,525.625 566.875,525.0"/>
    <polyline points="567.625,524.75 580.125,523.125 606.375,520.5"/>
    <polyline points="608.75,520.25 621.5,518.5 629.875,517.0 641.875,514.25 648.125,512.25 657.625,508.125 660.75,506.375 666.75,502.0 669.625,499.25 672.375,496.0 674.75,492.375 676.875,488.0 678.625,483.0"/>
    <polyline points="679.625,477.125 680.0,470.25 679.375,462.25 677.375,452.875 673.875,442.125 668.25,429.75 660.125,416.0 648.875,401.0 634.125,385.125 615.5,369.5 593.125,355.25 567.375,344.125 539.375,338.0 510.75,338.0 483.5,345.0 459.125,358.375 438.75,376.625 422.875,398.125 411.125,420.875 402.875,443.375 397.625,464.375 394.625,483.5 393.25,500.375 393.0,514.875 393.625,527.125 395.0,537.5"/>
    <polyline points="396.875,546.0 399.125,552.875 401.625,558.375 404.375,562.625 407.25,565.875 410.375,568.25 413.625,569.75 416.875,570.5 420.125,570.75 423.5,570.5 426.875,569.75 430.125,568.625 433.375,567.25 439.5,563.875 445.125,559.875 450.25,555.625 454.75,551.5 463.625,541.875"/>
    <polyline points="465.0,540.25 470.25,533.25 474.0,526.625 474.5,525.25 474.75,523.0 474.25,521.25 473.375,520.125"/>
    <polyline points="473.0,519.75 470.0,518.0 467.25,517.0 451.0,513.125"/>
    <polyline points="449.625,512.75 434.625,509.0 422.5,504.875 411.125,499.375 404.0,494.625 399.25,490.5"/>
    <polyline points="397.0,488.125 392.5,482.375 388.625,475.125 387.0,470.875 385.625,466.0 384.75,460.5 384.25,454.375 384.375,447.375 385.25,439.625 387.125,430.875 390.125,421.25 394.5,410.75 400.625,399.5 408.625,387.625 418.625,375.5 431.0,363.875 445.625,353.25 462.125,344.75 480.0,339.125 498.75,337.25 517.25,339.625 534.75,346.25 550.5,356.875 563.875,370.5"/>
    <polyline points="574.75,386.375 583.125,403.25 589.375,420.375 593.625,436.875 596.5,452.375 598.125,466.5 598.875,479.125 598.875,490.125 598.5,499.75 597.0,515.0 595.125,525.75 592.25,535.875 589.875,541.0 588.75,542.75 587.375,544.0 588.25,543.25 590.5,542.375 593.75,541.75 597.125,541.5 604.125,541.625 613.0,542.75"/>
    <polyline points="615.0,543.125 626.125,545.75 636.5,549.25 645.125,553.0 651.125,556.375 657.5,560.5 664.0,565.5 670.5,571.75 673.75,575.375 679.875,583.75 685.125,593.75"/>
    <polyline points="687.125,599.375 688.75,605.375 689.625,611.625 689.875,618.125 689.0,624.625 687.0,631.0 683.75,636.75 679.125,641.875 672.875,645.75 665.25,648.125 656.25,648.875 646.0,647.5 635.0,644.125 623.5,638.75 611.75,631.75 600.375,623.125 589.375,613.625 579.125,603.375 569.75,592.875 561.25,582.5 553.75,572.5 541.375,554.125 528.125,532.375"/>
    <polyline points="524.75,526.625 516.875,513.375 512.875,507.375 509.625,503.0 505.375,498.875 501.625,496.5 499.25,495.625 492.5,494.625 487.875,494.625"/>
    <polyline points="486.75,494.625 477.125,494.375 470.75,493.625 462.375,491.875 453.625,488.625"/>
    <polyline points="452.125,487.875 447.625,485.375 443.25,482.125 439.125,478.0 435.375,472.75 433.375,468.625 431.875,463.75 431.375,461.0 431.0,455.0 431.75,448.25 432.5,444.625 433.75,440.75 435.375,436.75 437.5,432.625"/>
    <polyline points="440.0,428.5 443.0,424.375 446.625,420.375 450.75,416.5 455.375,412.875 460.5,409.75 466.0,407.125 471.875,405.0 478.0,403.75 484.375,403.375 490.625,403.75 496.875,405.125 502.875,407.375 508.625,410.5 513.875,414.375 518.625,419.0 522.875,424.0 526.5,429.375 529.625,435.0 532.125,440.75 535.75,452.0 537.75,462.5 538.375,471.875"/>
    <polyline points="538.375,476.0 537.875,483.375 536.875,489.375 535.625,494.25 534.125,498.125 531.25,503.625 529.125,506.25 526.75,508.5 523.75,510.375"/>
    <polyline points="523.375,510.5 521.375,511.375 518.5,512.125 520.375,512.25"/>
  </g>
</svg>
