<?xml version="1.0" encoding="utf-8" ?>
<svg xmlns="http://www.w3.org/2000/svg" xmlns:cc="http://creativecommons.org/ns" xmlns:dc="http://purl.org/dc/elements/1.1/" xmlns:ev="http://www.w3.org/2001/xml-events" xmlns:inkscape="http://www.inkscape.org/namespaces/inkscape" xmlns:rdf="http://www.w3.org/1999/02/22-rdf-syntax-ns" xmlns:sodipodi="http://sodipodi.sourceforge.net/DTD/sodipodi-0.dtd" xmlns:xlink="http://www.w3.org/1999/xlink" baseProfile="tiny" height="27.09333333cm" version="1.2" viewBox="0 0 1024.0 1024.0" width="27.09333333cm">
  <metadata>
    <rdf:RDF>
      <cc:Work>
        <dc:format>image/svg+xml</dc:format>
        <dc:source>vpype read './original_svgs/Strange Attractors #273.svg' linemerge linesimplify write './Strange Attractors #273.svg'
</dc:source>
        <dc:date>2024-08-05T01:35:44.139828</dc:date>
      </cc:Work>
    </rdf:RDF>
  </metadata>
  <defs/>
  <g fill="none" id="layer1" inkscape:groupmode="layer" inkscape:label="1" stroke="black" stroke-width="0.7mm" style="display:inline">
    <polyline points="756.625,516.125 771.5,477.75 778.25,458.0 784.625,435.625 790.25,409.125 794.5,376.375 796.25,335.5 793.625,284.75 783.875,223.375 762.875,153.5 726.625,82.75 673.0,25.375 606.6818,-0.0"/>
    <polyline points="603.1803,0.0 533.5,15.875 469.375,70.375 420.125,146.25 386.75,226.0 366.5,298.625 355.875,359.25 352.375,407.875 354.375,445.5 361.0,474.125 371.75,495.25 386.5,510.125 404.375,519.5"/>
    <polyline points="424.875,523.875 446.75,523.875 468.625,520.0 489.375,513.125 508.0,503.875 524.0,493.375 537.125,482.25 547.625,471.125 555.625,460.5 561.75,450.625 566.125,441.75 569.125,433.75 571.0,427.0 572.125,421.125 572.625,416.25 572.625,412.125 572.125,409.0 571.375,406.5 570.375,404.625 569.25,403.5 568.0,402.875 566.625,402.625 565.25,402.875 562.375,404.625 561.0,405.875"/>
    <polyline points="559.75,407.375 558.375,409.125 556.0,413.125 554.0,417.625 551.625,424.5 550.5,429.25 549.25,438.0 549.125,443.875 550.125,452.25 551.375,456.25"/>
    <polyline points="551.875,457.375 553.625,460.625 556.625,463.875 558.375,465.125 561.125,466.5 565.375,467.5 567.75,467.625 570.25,467.5 577.0,466.0"/>
    <polyline points="578.375,465.5 586.0,461.625 590.875,458.125 594.25,455.25 597.5,451.875 602.375,445.625 607.0,437.875 609.875,431.75 611.125,428.375 613.25,420.875 614.75,412.625"/>
    <polyline points="615.25,408.25 615.375,398.875 614.5,389.125 612.125,379.375 608.125,370.125 605.5,366.0 602.625,362.25 599.25,359.0 595.5,356.375 591.5,354.5 587.125,353.375 582.625,353.125 578.0,353.75 573.375,355.125 568.75,357.5 564.25,360.5 559.875,364.25 555.625,368.5 551.75,373.375 548.0,378.5 544.625,384.0 541.625,389.625"/>
    <polyline points="538.875,395.375 534.25,406.75 530.75,417.625 528.0,427.75 525.375,441.0 523.625,455.375 523.125,463.875 523.125,470.75 524.0,481.125"/>
    <polyline points="524.25,482.375 525.625,488.0 527.375,492.25 529.5,495.25 531.0,496.75 533.75,498.625 535.0,499.125"/>
    <polyline points="535.625,499.375 539.0,500.5 543.875,501.125 551.625,501.0 558.75,500.125"/>
    <polyline points="560.0,499.875 571.625,497.25 584.125,493.0 592.375,489.25 599.125,485.625 606.25,480.875"/>
    <polyline points="608.75,479.125 616.5,472.5 624.5,463.75 629.875,456.5 635.125,447.625 640.125,436.875 642.375,430.625 646.25,416.25 647.75,408.125 648.75,399.25 649.25,389.625 649.125,379.375 648.25,368.375 646.5,357.0 643.625,345.375 639.625,333.625 634.25,322.375 627.625,312.0"/>
    <polyline points="619.75,302.875 610.5,295.75 600.375,291.0 589.375,289.0 578.0,290.0 566.5,294.0 555.375,300.875 544.875,310.0 535.25,321.0 526.625,333.375 519.125,346.5 512.625,359.75 507.125,373.0 502.625,385.625 498.75,397.625 495.75,408.875 491.125,428.5 487.0,451.5 483.375,476.125"/>
    <polyline points="482.875,479.5 480.625,490.0 479.375,493.75 478.75,495.375 475.75,500.5 473.125,503.375 470.125,505.625 466.75,507.5 460.25,509.875"/>
    <polyline points="458.875,510.25 452.75,511.75 447.625,512.625 436.0,514.0 417.25,515.125 406.25,515.375"/>
    <polyline points="403.375,515.375 390.875,515.375 370.0,514.5 354.75,512.875 343.125,510.75 335.625,508.625 328.875,505.75 326.125,503.875 323.75,501.75 322.25,499.25 321.75,496.5"/>
    <polyline points="322.5,493.25 325.125,489.875 329.875,486.25 337.5,482.5 348.25,479.25 362.75,476.75 380.875,475.5 402.25,476.125 426.125,479.25 451.125,484.875 475.75,492.875 498.625,503.0 518.875,514.375 535.875,526.375 549.5,538.375 560.25,549.875 568.25,560.375 574.125,569.75 578.125,578.0 580.875,585.125 582.375,591.125 583.0,596.125 582.875,600.125 582.375,603.375 581.375,605.75 580.0,607.375"/>
    <polyline points="578.5,608.5 576.75,609.0 574.875,609.0 571.0,607.625 567.125,604.875 565.25,603.125 560.125,596.625 557.125,591.75 554.625,586.625 551.75,578.875 550.25,573.875 549.25,569.25 548.25,560.625"/>
    <polyline points="548.125,558.625 548.375,553.25 549.125,548.5 549.875,545.625 551.375,541.75 553.25,538.375 556.375,534.5 560.25,531.0 563.5,528.75"/>
    <polyline points="564.625,528.0 568.375,525.875 578.875,521.25 605.5,511.5 610.5,509.375"/>
    <polyline points="613.25,508.25 624.625,502.875 630.875,499.375 641.0,492.625 648.125,486.875 655.5,479.625 659.375,475.25 663.125,470.375 667.0,464.75 670.875,458.375 674.75,451.125 678.375,442.875 682.0,433.25 685.125,422.375 687.875,409.75 690.125,395.5 691.375,379.125 691.375,360.75"/>
    <polyline points="689.875,340.375 686.25,318.125 680.0,294.625 670.625,270.875 657.875,248.25 641.375,228.75 621.625,214.5 599.375,207.375 575.75,208.625 552.25,218.375 530.375,235.5 510.875,258.125 494.5,283.875 481.25,310.875 470.875,337.25 463.0,362.0 457.25,384.5 453.125,404.375 450.125,421.75 447.0,449.25 446.375,459.875 446.125,476.25 446.875,487.625"/>
    <polyline points="447.375,491.875 448.625,498.125 449.875,502.375 451.625,506.125 453.75,509.5 453.625,510.125 452.75,510.625 450.125,511.5"/>
    <polyline points="449.375,511.625 434.75,515.0 413.75,518.875"/>
    <polyline points="411.75,519.25 397.25,522.5 391.25,524.25 385.875,526.375 383.125,528.0 381.125,529.875 380.625,530.75 380.5,531.75 380.875,532.75 383.125,534.75 388.0,536.5 391.5,537.125"/>
    <polyline points="395.875,537.5 401.0,537.625 413.5,536.75 428.5,534.125 444.75,529.5 460.875,523.0 468.375,519.375 475.5,515.5 482.0,511.5 493.0,503.75 504.875,493.625 516.5,482.0 518.375,480.5"/>
    <polyline points="519.125,480.125 519.625,479.875 520.625,480.0 522.0,481.625 525.625,490.625 527.5,493.625"/>
    <polyline points="527.875,494.25 530.125,496.625 532.125,498.125 534.5,499.375 538.5,500.625 543.125,501.25"/>
    <polyline points="544.0,501.25 551.875,501.125 560.25,500.0 568.875,498.125 575.375,496.25"/>
    <polyline points="577.125,495.625 586.5,492.125 595.0,488.0 601.875,484.0 609.25,478.875 617.0,472.125 622.375,466.5 627.75,459.75 630.375,455.875 635.625,446.75"/>
    <polyline points="638.25,441.625 642.875,429.5 644.875,422.625 646.625,415.0 648.0,406.625 649.0,397.625 649.5,387.875 649.25,377.5 648.125,366.375 646.25,354.875 643.125,343.125 638.875,331.5 633.375,320.25 626.5,310.0 618.25,301.25 608.875,294.5 598.5,290.125 587.375,288.625 575.875,290.25 564.5,294.75 553.375,302.0 543.0,311.625 533.5,323.0 525.125,335.5 517.75,348.75"/>
    <polyline points="511.375,362.125 506.125,375.25 501.625,387.875 498.0,399.75 495.0,410.875 492.625,421.0 487.75,446.0 483.75,473.125 481.5,485.875 479.125,494.125 476.25,499.625"/>
    <polyline points="475.375,500.75 472.75,503.5 470.75,505.125 467.5,507.0 463.875,508.625 459.75,510.0 453.75,511.5 441.375,513.375"/>
    <polyline points="439.375,513.625 430.875,514.375 416.375,515.125 399.25,515.5 383.0,515.25 368.625,514.375"/>
    <polyline points="364.875,514.125 353.25,512.875 341.5,510.625 334.125,508.375 327.375,505.375 324.625,503.5 322.5,501.25 321.125,498.625 320.75,495.75 321.875,492.5 325.0,488.875 330.375,485.125 338.75,481.5 350.375,478.25 365.875,476.0 385.0,475.125 407.375,476.25 432.0,479.875 457.375,486.25 482.0,495.0"/>
    <polyline points="504.625,505.625 524.25,517.375 540.5,529.75 553.5,541.75 563.5,553.125 571.0,563.5 576.375,572.75 580.0,580.875 582.25,587.75 583.5,593.625 583.875,598.375 583.625,602.25 582.75,605.25 581.625,607.5 580.125,609.125 578.5,610.0 576.625,610.375 574.625,610.25 572.625,609.625 568.5,607.25 566.5,605.625 562.75,601.625 559.25,597.0"/>
    <polyline points="557.75,594.375 554.875,589.25 551.5,581.25 549.875,576.125 547.75,566.5 547.125,560.125 547.25,552.625 548.0,547.875 549.625,542.375"/>
    <polyline points="550.25,541.25 551.375,538.875 554.25,534.875 556.875,532.125 560.875,528.875 569.5,524.0 577.0,520.75"/>
    <polyline points="578.625,520.125 603.0,511.125 615.875,505.625 621.625,502.75 630.875,497.5 641.0,490.5"/>
    <polyline points="644.5,487.625 651.75,480.875 659.25,472.25 666.875,461.25 670.625,454.5 674.25,446.875 677.875,438.125 681.125,428.125 684.125,416.75 686.625,403.75 688.25,388.875 689.0,372.125 688.5,353.375 686.125,332.75 681.625,310.75 674.375,287.75 664.125,265.0 650.375,244.25 633.125,227.125 613.125,215.75 591.0,211.75 568.125,215.75 545.875,227.625"/>
    <polyline points="525.375,246.0 507.375,268.875 492.375,294.375 480.375,320.375 470.875,345.5 463.75,369.0 458.5,390.25 454.75,408.875 452.125,425.25 450.25,439.25 449.125,451.125 448.25,469.75 448.625,487.625 450.0,497.875 450.875,502.0 452.625,507.375"/>
    <polyline points="452.75,508.0 452.875,509.625 451.875,510.625 450.375,511.25 446.75,512.375 436.5,514.625 454.625,515.625 467.625,516.75"/>
    <polyline points="435.125,515.0 405.125,520.875 397.125,522.875 389.875,525.375"/>
    <polyline points="388.25,526.125 385.5,527.625 384.5,528.5 383.25,530.25 383.125,531.125 383.375,532.125 385.375,533.875 389.75,535.5 396.875,536.5 401.625,536.625 413.0,535.875 419.625,535.0 426.75,533.625 434.25,531.75 441.875,529.5 449.5,526.75 464.25,520.5 477.25,513.25"/>
    <polyline points="483.0,509.625 488.25,506.0 496.75,499.375 503.25,493.75 512.5,484.75 514.5,483.125 515.75,482.375 516.75,482.375 517.5,482.875 519.0,486.875"/>
    <polyline points="519.125,487.625 520.625,493.25 521.875,496.25 522.875,498.25 525.5,501.375"/>
    <polyline points="525.875,501.75 528.875,503.5 531.25,504.25 534.125,504.875 539.5,505.125"/>
    <polyline points="540.25,505.125 545.25,504.875 553.375,503.875 560.75,502.5 567.875,500.75"/>
    <polyline points="569.375,500.375 576.0,498.375 585.375,495.0 591.5,492.25 600.5,487.5 605.375,484.5 613.0,478.875 618.375,474.125 623.875,468.5"/>
    <polyline points="626.625,465.375 632.25,457.875 635.0,453.5 640.375,443.5 642.875,437.625 645.25,431.25 649.375,416.25 650.875,407.75 652.0,398.375 652.5,388.25 652.375,377.25 651.375,365.75 649.5,353.5 646.375,341.125 642.0,328.625 636.125,316.625 628.875,305.625 620.25,296.125 610.25,288.75 599.125,284.125 587.25,282.75 575.0,284.5 562.875,289.625"/>
    <polyline points="551.125,297.625 540.125,308.125 530.25,320.5 521.5,334.0 513.875,348.125 507.5,362.375 502.125,376.25 497.75,389.375 494.125,401.75 488.875,423.5 483.125,455.5 479.75,479.25 477.5,490.25 476.25,494.125"/>
    <polyline points="475.5,495.75 474.125,498.625 471.625,502.0 468.75,504.625 464.25,507.375 461.75,508.5 456.125,510.375 449.875,511.875 444.5,512.75"/>
    <polyline points="442.625,513.0 430.125,514.5 415.5,515.5 391.625,516.25 374.0,516.25"/>
    <polyline points="370.25,516.125 358.25,515.75 341.125,514.625 327.375,512.875 318.125,511.0 313.625,509.75 305.0,506.5 301.125,504.375 297.875,501.75 295.25,498.625 294.0,495.0 294.25,490.75 296.875,485.875 302.625,480.5 312.5,474.875 327.5,469.625 348.25,465.625"/>
    <polyline points="375.125,463.75 406.875,465.375 441.75,471.25 476.875,481.5 509.25,495.375 537.25,511.875 559.75,529.5 576.875,547.125 589.25,563.875 597.625,579.25 603.0,593.0 605.875,605.25 606.75,615.875 606.25,625.0 604.375,632.625 601.625,638.875 598.125,643.875 593.875,647.5 589.25,649.875 584.125,651.125 578.875,651.125 573.5,650.125 568.125,648.0 562.875,645.125 557.75,641.375 552.875,637.0"/>
    <polyline points="548.375,632.125 540.125,621.375 536.625,615.75 530.5,604.375 523.625,588.375 520.375,578.75 516.875,566.5 514.125,553.5 511.875,537.0"/>
    <line x1="511.75" x2="510.75" y1="535.625" y2="518.375"/>
    <polyline points="510.625,518.125 510.0,514.625 509.0,513.375 507.125,512.875 503.0,513.0"/>
    <line x1="502.75" x2="494.25" y1="513.0" y2="513.375"/>
    <line x1="493.75" x2="477.0" y1="513.5" y2="514.25"/>
    <polyline points="476.125,514.25 464.5,514.625 444.625,514.625"/>
    <polyline points="443.0,514.625 430.625,514.25 416.875,513.25 407.0,512.0 401.5,510.875 396.75,509.375"/>
    <polyline points="395.375,508.875 393.25,507.625 392.625,507.0 392.125,505.625 393.125,504.125 396.125,502.75 401.25,501.75 408.875,501.25 419.0,501.625 424.875,502.25 437.75,504.5 451.375,508.0 458.25,510.125 471.375,515.125 483.125,520.375"/>
    <polyline points="488.25,523.0 500.875,530.125 511.625,536.875 517.625,539.875 519.5,540.25 520.875,540.0 522.0,539.25 523.875,536.375 524.75,534.125"/>
    <polyline points="525.0,533.375 527.625,527.0 529.125,524.5 532.125,520.875 534.75,518.625"/>
    <polyline points="535.375,518.25 542.125,514.625 556.875,509.75"/>
    <polyline points="558.0,509.375 566.125,507.125 583.0,501.5 591.125,498.25 602.5,492.625"/>
    <polyline points="605.0,491.125 612.875,486.25 621.125,479.75 627.0,474.25 635.875,463.875 638.875,459.625 644.875,449.625 650.5,437.25 653.0,430.0 655.375,422.0 657.375,413.125 658.875,403.25 660.0,392.5 660.25,380.625 659.75,367.875 658.125,354.375 655.375,340.125"/>
    <polyline points="651.0,325.75 645.125,311.375 637.375,298.0 627.875,286.125 616.625,276.625 604.0,270.375 590.375,267.75 576.25,269.375 562.0,274.875 548.375,284.25 535.875,296.5 524.5,311.0 514.625,326.875 506.25,343.25 499.375,359.5 493.625,375.25 489.0,390.0 485.375,403.625 482.5,416.0 478.375,437.125 474.875,460.625 473.5,471.75"/>
    <polyline points="472.875,476.375 471.375,487.0 470.25,492.0 468.375,497.625 466.125,501.625 464.375,503.75 461.25,506.25 456.5,508.75 449.375,511.125"/>
    <polyline points="447.75,511.5 438.875,513.375 428.625,514.875 408.625,516.875 387.125,518.5"/>
    <polyline points="383.625,518.75 357.25,521.125 348.75,522.125 335.625,524.25 326.625,526.125 322.125,527.375 313.375,530.375 309.375,532.375 305.625,534.625 302.5,537.375 300.125,540.625 298.875,544.375 299.375,548.75 302.125,553.625 308.0,558.875"/>
    <polyline points="317.875,564.25 332.75,569.125 353.125,572.625 379.125,573.75 409.75,571.5 443.0,564.875 476.375,553.75 507.125,539.0 533.625,521.5 555.0,502.75 571.5,483.875 583.625,465.625 592.125,448.5 597.875,433.0 601.375,418.875 603.125,406.125 603.625,394.875 602.875,385.0 601.25,376.375 598.75,369.125 595.625,363.0 591.875,358.25 587.75,354.75 583.125,352.5 578.25,351.5 573.25,351.75"/>
    <polyline points="568.25,353.25 563.25,355.75 558.375,359.25 553.625,363.5 549.25,368.5 545.125,374.125 541.375,380.0 537.875,386.125 534.875,392.5 532.125,398.75 527.625,411.0 524.25,422.625 523.0,428.0 519.375,446.5 518.0,457.625 517.25,469.0"/>
    <polyline points="517.125,471.375 517.0,481.125 517.375,488.0 518.125,493.875 518.75,496.875 519.75,499.75"/>
    <polyline points="520.0,500.125 521.375,502.625 523.0,504.375 524.25,505.25 527.75,506.5"/>
    <polyline points="528.125,506.625 532.625,507.125 535.625,507.125 543.875,506.375"/>
    <polyline points="544.75,506.375 556.25,504.5 564.0,502.75 576.75,499.0"/>
    <polyline points="578.5,498.5 586.125,495.625 594.625,491.75 604.0,486.5 614.25,479.125 622.375,471.625 628.0,465.25 633.625,457.625 639.125,448.25"/>
    <polyline points="641.875,442.875 646.75,430.25 649.0,422.875 650.875,414.875 652.375,406.0 653.375,396.25 653.75,385.75 653.5,374.5 652.375,362.5 650.125,350.0 646.75,337.25 641.875,324.5 635.625,312.375 627.875,301.25 618.625,292.0 608.125,285.125 596.5,281.125 584.125,280.5 571.625,283.25 559.25,289.25 547.375,298.25 536.5,309.75 526.625,322.75 518.125,336.875 510.75,351.5"/>
    <polyline points="504.5,365.875 499.375,379.875 491.75,405.375 486.875,426.875 483.625,444.25 478.875,477.375 476.625,489.25 475.375,493.5 474.0,496.75 472.5,499.5 470.75,501.75"/>
    <polyline points="469.875,502.75 466.875,505.25 463.5,507.25 459.625,509.0 455.375,510.375 445.5,512.5 431.5,514.375"/>
    <polyline points="429.25,514.5 419.625,515.375 393.625,516.5 364.625,516.75 347.625,516.375"/>
    <polyline points="343.25,516.125 329.125,515.25 314.25,513.5 304.125,511.625 294.0,508.75 289.25,506.75 284.875,504.375 281.125,501.5 278.125,497.875 276.5,493.625 276.75,488.5 279.875,482.5 287.0,475.75 299.625,468.75 319.0,462.25 346.125,457.5 380.875,456.125 421.375,459.875 464.125,469.5 504.75,484.625"/>
    <polyline points="540.125,503.875 568.5,525.375 589.625,547.125 604.375,568.125 613.875,587.625 619.5,605.25 621.875,621.0 621.75,634.875 619.75,647.0 616.0,657.25 610.875,665.75 604.625,672.25 597.625,676.875 589.875,679.5 581.625,680.25 573.25,679.0 564.875,676.0 556.75,671.375 549.0,665.375 541.75,658.375 535.125,650.625 529.0,642.25 523.625,633.75 518.875,625.125 514.75,616.75 511.25,608.625"/>
    <polyline points="508.125,600.875 503.25,586.75 498.5,569.5 495.625,556.375 491.25,531.625 489.375,525.875"/>
    <polyline points="489.125,525.125 486.75,521.875 484.375,520.0 480.125,518.25 475.0,517.125"/>
    <polyline points="474.25,517.0 466.875,516.125 445.75,515.0"/>
    <polyline points="444.25,515.0 426.75,513.75 420.125,513.0 412.25,511.625 408.25,510.625 406.125,509.75"/>
    <polyline points="405.25,509.375 403.875,508.0 403.75,507.5 404.5,506.5 406.5,505.625 410.125,505.0 415.125,504.75 421.875,505.0 430.0,505.875 439.25,507.625 454.0,511.375 463.75,514.625 472.75,518.25"/>
    <polyline points="476.875,520.0 503.625,533.0 506.5,533.625 508.375,533.375 509.625,532.375 510.75,530.0"/>
    <polyline points="510.875,529.5 511.5,524.625 511.625,518.375"/>
    <polyline points="511.625,518.125 511.5,513.5 511.25,512.75 510.75,512.375 499.75,513.0"/>
    <line x1="499.375" x2="487.75" y1="513.125" y2="513.75"/>
    <line x1="487.125" x2="464.625" y1="513.75" y2="514.625"/>
    <polyline points="463.5,514.625 441.625,514.625 423.125,513.75"/>
    <polyline points="421.25,513.625 409.25,512.375 403.5,511.375 395.5,509.0 392.625,507.125 392.125,505.75 392.375,505.0 394.125,503.5 398.0,502.25 400.75,501.75"/>
    <polyline points="404.125,501.5 412.875,501.25 423.875,502.125 430.125,503.0 443.375,505.75 457.25,509.75 470.375,514.625 482.25,520.0 492.25,525.125 509.125,535.375 517.5,539.875"/>
    <polyline points="518.5,540.125 520.125,540.25 520.875,540.0 522.75,538.375 528.375,525.875"/>
    <polyline points="528.75,525.25 531.625,521.375 534.25,519.125 537.125,517.125 542.875,514.375"/>
    <polyline points="543.75,514.125 549.125,512.125 573.875,504.625"/>
    <polyline points="575.5,504.125 593.125,497.375 600.0,494.0 610.0,488.125 618.125,482.25 623.875,477.375 629.75,471.375 635.75,464.125"/>
    <polyline points="638.75,459.875 644.625,450.0 647.5,444.125 650.25,437.75 652.875,430.5 655.25,422.625 657.25,413.75 658.875,404.0 659.875,393.25 660.375,381.5 659.875,368.75 658.375,355.25 655.625,341.125 651.375,326.625 645.5,312.375 638.0,298.75 628.5,286.75 617.5,277.125 604.875,270.625 591.25,267.75 577.125,269.0 562.875,274.375 549.25,283.5 536.625,295.625 525.125,310.0"/>
    <polyline points="515.25,325.75 506.75,342.125 499.75,358.5 493.875,374.25 489.25,389.125 485.5,402.75 480.25,426.5 477.0,445.5 471.375,486.75 470.25,491.875 469.0,495.875 468.375,497.625 466.125,501.625"/>
    <polyline points="465.25,502.75 463.375,504.625 460.25,506.875 456.625,508.75 452.5,510.25 439.0,513.375 426.5,515.125"/>
    <polyline points="424.125,515.375 357.375,521.125 340.375,523.375"/>
    <polyline points="335.875,524.25 326.875,526.125 318.0,528.75 313.75,530.375 309.625,532.375 305.875,534.625 302.75,537.375 300.375,540.5 299.125,544.25 299.625,548.625 302.25,553.375 308.125,558.625 317.875,564.0 332.5,568.875 352.75,572.5 378.5,573.75 408.875,571.5 442.125,565.0 475.375,554.125 506.125,539.375 532.75,522.0 554.25,503.375 570.875,484.5 583.0,466.25"/>
    <polyline points="591.625,449.25 597.5,433.625 601.0,419.5 602.875,406.875 603.375,395.625 602.75,385.75 601.125,377.125 598.75,369.75 595.625,363.625 592.0,358.875 587.875,355.25 583.25,353.0 578.5,352.0 573.5,352.25 568.5,353.625 563.5,356.0 558.75,359.375 554.0,363.625 549.625,368.5 545.5,374.0 541.75,379.875 535.25,392.25 530.125,404.625 528.0,410.75"/>
    <polyline points="526.25,416.5 522.125,432.625 519.125,450.125 518.0,460.375 517.375,471.125 517.375,480.75 517.875,488.875"/>
    <polyline points="518.0,490.0 518.75,494.5 519.875,498.5 522.0,502.375 523.5,503.875"/>
    <polyline points="523.875,504.125 525.875,505.375 529.375,506.375 535.375,506.75"/>
    <polyline points="536.0,506.75 542.75,506.375 551.25,505.25 559.5,503.625"/>
    <polyline points="560.75,503.375 574.375,499.75 585.375,495.75 596.0,490.875 600.625,488.375 608.0,483.625"/>
    <polyline points="610.5,481.75 615.875,477.625 624.125,469.625 629.75,462.875 632.5,459.0 638.125,450.0 643.375,439.0 648.0,425.5 650.0,417.75 651.625,409.25 652.875,399.875 653.5,389.625 653.5,378.625 652.75,367.0 650.875,354.625 647.875,342.0 643.625,329.25 637.875,316.875 630.75,305.375"/>
    <polyline points="622.0,295.375 612.0,287.625 600.75,282.5 588.75,280.625 576.25,282.125 563.75,287.0 551.75,295.0 540.5,305.5 530.25,318.0 521.25,331.875 513.5,346.25 506.875,360.75 501.375,374.875 496.875,388.375 493.125,400.875 490.25,412.5 485.875,432.625 483.125,448.875 478.625,479.625"/>
    <polyline points="478.125,482.875 477.0,488.25 475.125,494.5 473.0,499.0 470.375,502.375 467.5,505.0 463.0,507.625 459.0,509.25 453.125,511.0"/>
    <polyline points="451.625,511.375 442.875,513.0 430.375,514.5 413.125,515.75 392.0,516.5"/>
    <polyline points="388.75,516.5 362.625,516.625 350.0,516.25 341.125,515.875 326.875,514.75 317.125,513.5 307.125,511.625 302.125,510.375 297.25,508.875 292.5,507.0 288.125,504.625 284.375,501.875 281.375,498.5"/>
    <polyline points="279.5,494.375 279.5,489.5 282.25,483.75 288.625,477.375 299.875,470.625 317.625,464.25 342.75,459.25 375.25,457.375 413.625,460.0 454.875,468.25 495.125,481.875 530.875,499.75 560.125,520.25 582.375,541.375 598.25,561.875 609.0,581.125 615.5,598.5 618.75,614.125 619.5,628.0 618.125,640.0 615.25,650.375 610.875,658.875 605.5,665.625 599.125,670.625 592.125,673.875 584.625,675.125"/>
    <polyline points="576.875,674.75 569.125,672.625 561.375,669.0 553.875,664.0 546.875,657.875 540.25,650.875 534.25,643.375 528.875,635.5 524.0,627.5 519.75,619.5 512.875,604.125 505.625,584.0 501.25,567.875 498.5,555.625 496.0,541.625"/>
    <polyline points="495.625,539.625 494.25,531.75 492.5,526.0 490.0,521.875 486.75,519.375"/>
    <polyline points="486.25,519.125 483.375,518.0 480.0,517.125 473.625,516.25 466.75,515.75"/>
    <line x1="465.75" x2="430.375" y1="515.75" y2="514.125"/>
    <polyline points="428.625,514.0 413.125,512.125 405.75,510.375 402.625,509.0 401.125,507.5 401.375,506.375 402.0,505.875 404.375,505.0"/>
    <polyline points="406.125,504.625 411.0,504.0 417.625,504.0 426.0,504.75 435.75,506.25 451.625,510.125 457.0,511.75 467.375,515.5 476.75,519.375 485.0,523.25 503.375,532.875"/>
    <polyline points="504.875,533.625 507.375,534.625 510.125,535.125 512.25,534.25 513.75,531.875 515.25,525.5"/>
    <polyline points="515.375,524.875 516.0,521.5 516.875,518.875 517.625,517.125 518.5,516.0"/>
    <polyline points="518.625,515.75 520.125,514.25 524.875,512.25"/>
    <line x1="525.125" x2="537.75" y1="512.125" y2="509.5"/>
    <polyline points="538.5,509.375 549.625,507.375 564.0,504.0"/>
    <polyline points="565.5,503.625 576.75,500.375 586.125,496.875 592.375,494.125 601.5,489.375 606.5,486.375 617.0,478.5"/>
    <polyline points="619.75,476.0 625.375,470.5 628.25,467.25 634.0,459.75 636.875,455.375 642.375,445.25 645.0,439.25 649.875,425.5 651.875,417.5 653.5,408.75 654.75,399.125 655.5,388.625 655.375,377.25 654.5,365.125 652.5,352.25 649.375,339.125 644.875,325.875 638.875,313.125 631.25,301.375 622.0,291.125 611.375,283.375 599.625,278.5"/>
    <polyline points="587.0,277.0 574.0,279.125 561.125,284.75 548.75,293.625 537.375,305.0 527.0,318.375 518.0,332.875 510.25,347.875 503.75,362.75 498.375,377.25 494.0,391.0 490.375,403.75 485.25,426.0 483.5,435.5 482.0,443.875 476.625,481.375 474.875,489.75"/>
    <polyline points="474.25,492.0 473.0,495.75 470.75,500.0 469.0,502.25 465.125,505.625 460.375,508.25 454.875,510.25 445.0,512.5"/>
    <polyline points="443.125,512.75 428.75,514.625 413.75,515.875 375.375,517.5"/>
    <polyline points="371.625,517.5 355.375,517.875 322.375,517.875 294.875,517.0 282.875,516.125 270.375,514.75 257.5,512.5 251.0,510.875 244.625,508.875 238.5,506.125"/>
    <polyline points="232.875,502.625 228.0,498.125 224.625,492.25 223.75,484.75 227.125,475.5 236.875,464.375 256.5,452.0 289.625,440.375 338.375,432.875 401.0,433.875 469.875,446.75 534.625,471.25 587.125,503.875 624.875,540.125 649.25,576.375 663.0,611.0 668.75,643.375 668.5,673.375 663.125,700.75 653.375,725.0 639.75,745.5 622.875,760.875 603.25,770.25 582.25,772.625 560.75,768.125 540.125,757.125"/>
    <polyline points="521.125,741.125 504.5,721.625 490.5,700.25 479.125,678.5 470.125,657.5 463.25,637.875 458.25,620.25 454.75,604.625 452.5,591.0 451.25,579.25 450.875,569.375 451.125,561.125 451.875,554.125 453.0,548.5 454.625,543.75 456.375,540.0 460.375,534.625 462.625,532.75 467.0,530.25 471.25,529.0 477.125,528.25"/>
    <polyline points="478.75,528.25 488.375,528.5 490.375,528.125 491.5,527.625 492.375,526.25 492.0,524.125"/>
    <polyline points="491.875,523.75 490.375,521.75 488.5,520.25 484.5,518.375 480.75,517.375"/>
    <polyline points="480.0,517.25 470.0,516.0 455.125,515.375"/>
    <polyline points="453.875,515.25 427.375,513.875 413.75,512.125"/>
    <polyline points="412.125,511.875 407.625,510.875 404.125,509.625 402.375,508.625 401.5,507.125 402.25,506.125 403.125,505.625 406.125,504.75 408.25,504.375 417.125,504.125 429.875,505.375 439.875,507.25"/>
    <polyline points="445.125,508.375 455.75,511.5 466.0,515.0 475.375,518.875 487.25,524.5 505.375,533.875 509.375,534.875 511.625,534.125"/>
    <polyline points="512.0,533.75 513.375,531.25 513.875,529.5 515.5,520.75"/>
    <polyline points="515.625,520.375 516.25,518.0 517.25,516.0 518.875,514.25"/>
    <polyline points="519.125,514.125 521.25,512.875 525.75,511.625"/>
    <line x1="526.125" x2="539.625" y1="511.5" y2="509.125"/>
    <polyline points="540.375,508.875 554.625,506.25 567.875,502.875"/>
    <polyline points="569.375,502.5 583.375,497.875 589.375,495.375 598.25,491.125 605.5,486.875 610.5,483.5 618.625,477.0 624.125,471.625"/>
    <polyline points="627.0,468.5 632.75,461.25 638.5,452.5 641.25,447.375 646.5,435.375 648.875,428.5 651.0,420.75 652.875,412.25 654.25,403.0 655.125,392.875 655.375,381.875 654.875,370.0 653.375,357.5 650.625,344.5 646.75,331.25 641.25,318.25 634.375,306.0 625.75,295.125 615.75,286.375 604.375,280.25 592.125,277.375 579.25,278.0 566.25,282.25"/>
    <polyline points="553.625,289.875 541.875,300.375 531.125,313.0 521.5,327.0 513.25,341.875 506.25,356.875 500.5,371.625 495.75,385.625 491.875,398.75 488.75,410.75 484.25,431.75 481.375,448.5 476.375,483.25 475.25,488.75 473.375,495.0"/>
    <polyline points="472.75,496.625 471.25,499.5 468.625,502.75 465.625,505.375 462.25,507.375 457.0,509.5 452.5,510.875 445.875,512.375 440.25,513.25"/>
    <polyline points="438.375,513.5 422.75,515.25 409.625,516.125 391.25,517.0 365.625,517.625"/>
    <polyline points="361.625,517.625 344.125,517.875 319.625,517.625 297.75,516.75 291.875,516.375 273.625,514.375 261.125,512.0 254.875,510.25 248.625,508.0 242.875,505.25 237.5,501.5 233.125,496.875 230.5,490.875"/>
    <polyline points="230.5,483.25 235.0,474.0 246.25,463.125 267.5,451.5 301.875,441.0 350.875,435.25 411.75,438.0 477.125,452.0 537.625,476.375 586.375,507.875 621.5,542.25 644.125,576.5 657.125,609.0 662.875,639.25 662.875,667.125 658.25,692.5 649.75,715.0 637.625,734.0 622.5,748.625 605.0,757.875 586.0,761.125 566.5,758.375 547.375,749.75 529.5,736.375 513.5,719.5 499.75,700.5"/>
    <polyline points="488.375,680.75 479.125,661.25 471.875,642.75 466.25,625.625 462.125,610.375 459.25,596.75 457.375,585.0 456.25,574.875 455.875,566.125 456.0,558.875 456.5,552.75 457.25,547.625 459.625,539.875 462.625,534.75 465.875,531.375 470.625,528.625 477.5,527.0"/>
    <polyline points="478.625,526.875 482.25,526.625 485.5,525.625 486.125,524.75 486.125,524.25 485.875,523.375 484.625,522.0"/>
    <polyline points="484.375,521.75 482.375,520.375 478.0,518.625 473.75,517.625 468.625,516.875"/>
    <polyline points="435.0,514.375 421.125,512.875 412.875,511.25 408.875,509.75 407.75,509.0 407.375,508.125 408.0,507.375"/>
    <polyline points="408.75,507.0 409.625,506.625 414.625,505.875 422.625,506.0 433.5,507.25 441.875,508.875 450.75,511.125 459.5,513.875 467.75,516.875 478.75,521.5 489.875,526.75"/>
    <polyline points="492.0,527.875 498.5,530.75 500.75,531.5 503.125,531.75 504.625,531.375 505.625,530.375 506.25,528.625 506.375,525.75"/>
    <polyline points="506.375,525.25 506.25,523.375 505.375,520.25 504.875,519.0 503.25,517.0"/>
    <polyline points="503.0,516.75 500.25,515.25 495.25,514.5"/>
    <line x1="494.875" x2="479.5" y1="514.375" y2="514.375"/>
    <line x1="478.625" x2="449.375" y1="514.375" y2="514.75"/>
    <polyline points="447.75,514.75 430.625,514.25 421.0,513.625 409.25,512.25 401.875,510.875"/>
    <polyline points="400.25,510.375 396.0,508.875 394.0,507.625 393.0,506.375 393.375,504.875 395.375,503.5 397.125,502.875 402.375,501.875 410.0,501.5 414.75,501.625 425.75,502.625 438.375,504.875 451.875,508.25 465.125,512.75"/>
    <polyline points="471.375,515.25 482.75,520.375 487.875,523.0 496.5,527.75 510.875,536.5 515.625,539.0 518.625,539.75 520.0,539.5 521.5,538.375 522.875,535.875"/>
    <polyline points="523.25,535.25 525.625,528.75 526.875,526.125 529.875,521.625 531.75,519.875"/>
    <polyline points="532.25,519.375 534.875,517.375 539.375,515.0 546.625,512.25 550.5,511.125"/>
    <polyline points="551.625,510.75 574.625,504.0 589.75,498.375"/>
    <polyline points="591.875,497.375 596.375,495.375 603.5,491.625 611.125,486.875 616.5,482.875 625.125,475.5 631.0,469.25 634.0,465.625 639.875,457.125 642.875,452.125 645.75,446.625 648.5,440.5 651.125,433.75 653.625,426.125 655.75,417.75 657.625,408.5"/>
    <polyline points="658.875,398.25 659.625,387.125 659.5,374.875 658.5,361.875 656.375,348.125 652.875,334.0 647.875,319.625 641.25,305.875 632.75,293.25 622.625,282.5 610.875,274.5 597.875,269.875 584.0,269.25 569.875,272.5 556.125,279.75 543.0,290.25 531.125,303.5 520.5,318.5 511.375,334.5 503.75,350.75 497.375,366.625 492.25,381.875 488.0,396.0 484.75,409.0 480.0,431.375"/>
    <polyline points="478.375,440.75 472.25,484.875 470.0,494.75 467.875,499.5 465.375,503.0 462.5,505.625 457.875,508.25"/>
    <polyline points="456.625,508.875 449.375,511.25 438.875,513.375 423.875,515.375 405.5,517.0"/>
    <polyline points="402.5,517.25 364.5,520.0 343.5,522.25 334.5,523.5 325.125,525.25 315.75,527.625 306.75,530.875 302.5,533.0"/>
    <polyline points="298.625,535.5 295.5,538.5 293.125,542.0 292.25,546.125 293.25,551.0 296.875,556.375 304.25,562.25 316.375,568.125 334.125,573.125 358.375,576.375 388.625,576.5 423.25,572.375 459.625,563.125 494.625,549.25 525.625,531.5 551.25,511.625 571.125,491.0 585.75,470.75 596.0,451.625 602.875,433.875 607.125,417.625 609.25,403.0 609.75,389.875 608.875,378.25 606.75,368.125 603.75,359.375"/>
    <polyline points="599.875,352.125 595.25,346.375 590.0,342.25 584.25,339.75 578.25,338.875 572.0,339.5 565.75,341.75 559.625,345.25 553.75,349.875 548.25,355.625 543.0,362.125 538.25,369.125 534.0,376.5 530.25,384.125 523.875,399.25 519.25,413.625 515.75,426.5 512.375,443.125 510.375,456.375"/>
    <polyline points="509.875,460.125 507.25,488.125 506.0,497.0 505.0,500.75"/>
    <polyline points="504.875,501.375 503.25,505.0 502.0,506.875 499.5,509.125 497.625,510.125"/>
    <polyline points="497.25,510.25 496.0,510.875 489.25,512.5 483.0,513.25"/>
    <polyline points="482.25,513.375 471.375,514.125 455.25,514.5"/>
    <polyline points="453.875,514.5 446.125,514.625 430.125,514.25 418.25,513.5 408.0,512.25"/>
    <polyline points="406.0,512.0 396.75,510.0 393.875,508.875 391.625,507.625 390.875,506.875 390.375,506.125 390.5,504.625 392.375,503.125 396.5,501.75 407.375,500.625 417.875,501.0 430.625,502.625 437.5,504.0"/>
    <polyline points="444.75,505.625 452.0,507.625 466.125,512.5 479.125,518.0 484.875,520.75 495.0,526.25 513.875,538.0 518.625,540.625 521.625,541.375 523.0,541.125 524.5,539.75"/>
    <polyline points="524.875,539.25 529.875,528.125 531.375,525.5 534.25,522.125"/>
    <polyline points="534.875,521.625 538.375,518.75 543.5,516.0 547.875,514.125 555.125,511.625"/>
    <polyline points="556.375,511.25 580.125,503.625 592.125,498.875 599.0,495.625"/>
    <polyline points="601.375,494.375 608.875,490.125 617.0,484.625 625.625,477.375 628.625,474.375 634.625,467.625 640.75,459.25 646.75,449.0 649.625,442.875 652.375,436.125 655.0,428.625 657.25,420.375 659.25,411.125 660.75,400.875 661.625,389.625 661.875,377.25 661.0,364.0"/>
    <polyline points="659.125,349.875 655.875,335.25 651.125,320.375 644.5,305.75 636.125,292.25 625.875,280.625 613.875,271.625 600.625,266.25 586.25,264.75 571.625,267.625 557.125,274.625 543.5,285.375 531.0,298.875 519.875,314.375 510.25,331.0 502.25,347.875 495.625,364.375 490.25,380.25 486.0,394.875 479.875,420.625 476.125,441.125 473.0,463.625"/>
    <polyline points="472.375,469.375 470.125,485.875 469.125,491.25 468.0,495.5 466.0,500.25 463.5,503.625 459.5,506.875 455.875,508.75 450.375,510.75"/>
    <polyline points="448.875,511.125 442.25,512.75 428.25,515.0 413.875,516.625 390.5,518.75"/>
    <polyline points="387.125,519.0 369.5,520.75 357.875,522.25 341.625,525.125 333.375,527.25 329.375,528.625 321.75,531.875 318.5,533.875 315.625,536.375 313.5,539.125 312.375,542.25 312.625,545.875 314.625,549.875 319.125,554.125 326.625,558.5"/>
    <polyline points="338.0,562.625 353.625,565.875 373.625,567.5 397.875,566.75 424.875,562.875 453.375,555.5 481.0,545.0 506.375,531.75 528.125,516.75 545.875,501.0 559.875,485.375 570.5,470.375 578.25,456.375 583.75,443.625 587.375,432.25 589.75,422.125 590.875,413.25 591.25,405.5 590.75,398.75 589.875,393.0 588.375,388.25 586.5,384.375 584.375,381.25 581.875,379.0 579.25,377.625 576.375,376.875"/>
    <polyline points="573.375,376.75 570.5,377.375 567.5,378.625 564.5,380.5 561.625,382.75 558.75,385.5 556.125,388.5 551.25,395.5 547.125,403.25 542.25,415.125 539.875,422.875 538.0,430.25 536.25,440.25 535.625,446.125 535.375,454.0"/>
    <polyline points="535.375,456.375 535.75,462.5 536.625,467.75 537.875,472.125 539.375,475.625 541.875,479.5 544.0,481.75 545.625,483.0 549.125,484.875"/>
    <polyline points="550.125,485.25 554.25,486.375 558.875,486.875 565.375,486.5 572.875,485.125 579.5,483.0 585.0,480.75"/>
    <polyline points="586.875,479.75 592.875,476.5 599.125,472.25 603.5,468.75 608.0,464.5 614.75,456.625 621.5,446.625 623.625,442.625 627.625,433.5 631.0,422.875 632.5,416.875 633.625,410.5 634.5,403.5 634.875,396.25"/>
    <polyline points="634.875,388.5 634.25,380.375 633.125,372.0 631.25,363.5 628.75,355.0 625.25,346.75 621.0,339.0 615.875,331.875 610.0,325.875 603.25,321.125 595.875,318.0 588.125,316.5 579.875,317.0 571.625,319.375 563.5,323.5 555.625,329.25 548.25,336.5 541.375,344.75 535.125,353.75 529.625,363.25 524.625,373.0 520.375,382.75 516.75,392.25 511.0,410.0 508.875,418.25"/>
    <polyline points="507.0,425.875 504.125,439.375 502.125,450.75 496.875,486.5 494.875,494.25 492.5,499.5"/>
    <polyline points="492.0,500.375 489.75,503.375 485.75,506.75 480.0,509.5 472.125,511.625"/>
    <polyline points="471.0,511.75 465.0,512.75 452.125,513.875 432.125,514.25 420.25,515.25 400.75,516.125 369.625,516.375 353.375,515.875"/>
    <polyline points="430.125,514.25 421.5,514.125 409.875,513.5 395.375,511.875 388.5,510.5 384.25,509.25 379.125,507.0 377.0,505.125"/>
    <polyline points="376.625,504.0 376.625,502.875 377.25,501.75 378.5,500.625 383.5,498.375 392.125,496.75 398.0,496.25 412.625,496.5 421.25,497.375 430.625,498.875 440.375,500.875 450.25,503.5 460.125,506.625 469.75,510.125 478.75,514.0 487.125,518.125 494.875,522.25 507.625,530.25 517.25,537.125 524.125,542.75"/>
    <polyline points="526.75,544.875 533.5,550.0 535.375,550.75 536.75,550.625 538.25,549.125 542.125,540.0 544.25,536.25"/>
    <polyline points="544.75,535.375 548.125,531.0 551.25,528.0 554.0,525.875 561.625,521.5 569.75,518.0"/>
    <polyline points="571.25,517.375 595.25,508.375 604.75,504.375 615.25,499.125 627.125,491.75"/>
    <polyline points="630.25,489.5 636.75,484.25 643.5,477.625 646.875,473.875 653.875,464.75 657.5,459.25 664.375,446.125 667.625,438.375 670.625,429.375 673.375,419.375 675.75,408.0 677.5,395.25 678.375,380.875 678.25,365.0 676.875,347.625 673.75,329.0 668.625,309.5 661.0,289.875 650.75,271.25 637.875,254.75 622.25,242.0 604.5,234.25"/>
    <polyline points="585.5,232.5 566.0,237.375 547.125,248.25 529.625,264.125 514.25,283.625 501.125,305.25 490.375,327.5 481.75,349.375 475.0,369.875 469.875,388.75 466.0,405.75 463.125,420.75 459.5,445.25 457.25,470.625 456.25,497.875 455.875,501.375"/>
    <polyline points="455.625,502.75 454.625,506.0 453.125,508.125 451.0,509.75 444.125,512.5 431.25,515.375"/>
    <polyline points="429.5,515.75 407.875,519.625 394.375,522.5 385.75,525.125 381.875,526.625 378.625,528.375"/>
    <polyline points="377.375,529.375 376.375,530.375 375.5,532.625 375.75,533.75 376.5,534.875 378.0,536.125 383.25,538.125 392.125,539.5 404.625,539.5 412.25,538.75 420.625,537.5 429.5,535.75 438.75,533.25 448.125,530.125 457.25,526.625 474.5,518.25 482.125,513.75 489.0,509.125 495.25,504.625 505.25,496.25"/>
    <polyline points="509.25,492.375 522.75,477.875 524.75,475.875 526.25,475.0 526.875,474.75 527.875,475.0 528.75,475.75 532.75,482.5"/>
    <polyline points="533.25,483.25 537.125,487.75 540.625,490.25 545.375,492.25 549.25,493.125 552.25,493.375"/>
    <polyline points="553.375,493.5 562.0,493.125 572.375,491.0 582.875,487.5 592.875,482.75"/>
    <polyline points="595.0,481.5 601.75,477.125 606.375,473.5 611.125,469.25 616.125,464.125 621.0,458.0 626.0,450.625 628.375,446.5 632.875,436.875 635.0,431.375 638.5,418.875 640.0,411.75 641.0,404.125 641.625,396.0 641.75,387.25 641.375,378.0 640.125,368.25"/>
    <polyline points="638.125,358.375 635.25,348.375 631.375,338.625 626.375,329.25 620.375,320.875 613.25,313.75 605.25,308.125 596.5,304.625 587.125,303.375 577.5,304.5 567.75,307.875 558.25,313.625 549.25,321.125 540.875,330.25 533.25,340.625 526.5,351.625 520.625,363.0 515.5,374.375 511.25,385.5 504.5,406.25 500.0,424.25 495.625,446.25"/>
    <polyline points="494.625,452.125 490.375,480.5 487.875,491.375 486.125,495.875 483.5,500.375 481.25,502.875 478.75,505.0"/>
    <polyline points="477.75,505.625 474.875,507.375 471.75,508.75 461.75,511.5 452.625,512.875 443.875,513.625"/>
    <polyline points="442.0,513.75 425.125,514.5 410.125,514.375 390.625,513.25 378.75,511.625"/>
    <polyline points="375.875,511.125 367.5,509.0 365.0,508.125 360.625,506.0 359.0,504.75 357.75,503.25 357.0,501.75 357.0,500.125 357.875,498.25 359.75,496.375 362.75,494.5 367.25,492.75 373.375,491.25 381.125,490.0 390.5,489.25 401.625,489.25 414.25,490.25 428.0,492.25 442.375,495.25 457.0,499.375 471.125,504.5 484.5,510.25 496.75,516.5"/>
    <polyline points="507.625,523.0 517.0,529.375 524.875,535.5 531.5,541.25 541.125,551.125 547.25,558.375 553.0,566.25 554.5,567.5 554.75,567.375 555.125,565.625 556.0,557.875"/>
    <polyline points="556.375,556.625 557.75,551.75 558.75,549.375 560.625,546.125 562.875,543.0 568.625,537.625 572.125,535.25 577.5,532.375"/>
    <polyline points="579.0,531.75 588.875,527.75 620.875,518.0 636.125,512.625"/>
    <polyline points="639.375,511.25 646.375,508.125 653.75,504.25 661.625,499.5 665.75,496.5 674.25,489.5 678.625,485.25 683.125,480.25 687.625,474.625 692.25,467.875 696.875,460.125 701.375,451.0 705.875,440.125 709.875,427.5 713.625,412.5 716.5,394.75 718.375,374.0 718.5,349.875 716.5,322.25 711.25,291.375 701.875,258.125 687.375,224.5"/>
    <polyline points="667.0,193.5 640.75,169.0 609.75,155.25 576.25,155.125 542.875,169.125 512.5,195.25 486.75,229.25 466.25,267.0 450.75,304.75 439.625,340.0 432.0,371.5 427.0,398.75 424.125,421.75 422.875,440.875 422.75,456.625 423.5,469.375 425.0,479.5 427.125,487.75 429.75,494.125 432.625,499.0 435.875,502.625 439.375,505.375 442.875,507.25 446.625,508.375 450.25,509.0 453.875,509.125"/>
    <polyline points="457.375,508.875 464.0,507.625 469.75,505.875 474.625,503.875 486.75,497.75 486.625,498.5 485.75,499.625"/>
    <polyline points="485.375,500.0 484.5,501.0 481.375,503.375 474.5,507.25 469.0,509.25 462.625,510.875"/>
    <polyline points="461.25,511.125 455.25,512.25 443.125,513.625 430.875,514.375 411.25,514.625"/>
    <polyline points="408.625,514.625 394.25,514.125 381.875,513.125 369.125,511.25 360.125,509.0 357.375,508.0 352.5,505.5 350.625,504.125 349.25,502.5 348.625,500.625 348.625,498.625 349.75,496.5 352.125,494.375"/>
    <polyline points="355.875,492.125 361.375,490.0 368.875,488.125 378.375,486.75 390.0,486.125 403.625,486.375 418.875,487.875 435.25,490.75 452.125,495.0 468.625,500.5 484.375,507.0 498.625,514.25 511.375,521.875 522.125,529.5 531.25,536.875 538.625,543.75 544.5,550.0 549.25,555.625 552.75,560.375 557.5,567.75 560.0,572.5 561.25,575.75"/>
    <polyline points="561.25,576.0 560.5,573.375 560.0,570.0 559.875,564.625 560.25,560.5 561.5,555.25 563.0,551.625 565.0,548.25"/>
    <polyline points="565.75,547.25 568.25,544.25 571.125,541.625 577.125,537.625 582.75,534.875 587.5,533.0 600.75,529.0"/>
    <polyline points="602.875,528.375 631.375,521.5 644.25,517.875 655.0,514.25 662.75,511.125 671.0,507.125 679.75,502.125 684.375,499.0"/>
    <polyline points="689.0,495.375 693.875,491.125 703.875,480.375 709.0,473.5 714.125,465.375 719.25,455.625 724.25,443.875 729.0,429.75 733.25,412.75 736.75,392.25 738.75,367.75 738.875,338.375 735.875,304.25 728.625,265.5 715.375,223.5 694.875,181.75 666.125,145.125 629.75,120.375 588.375,113.125 546.125,125.75 507.125,156.125 474.5,198.375 449.375,245.75 431.125,292.75 418.75,335.75"/>
    <polyline points="410.875,373.125 406.5,404.75 404.625,430.625 404.75,451.5 406.5,468.25 409.625,481.375 413.75,491.5 418.875,499.0 424.625,504.5 431.125,508.25 437.875,510.5 445.0,511.625 452.125,511.5 459.125,510.625 466.0,509.125 472.375,507.125 478.375,504.75 483.875,502.125 488.75,499.5 496.875,494.375 509.375,484.75"/>
    <polyline points="510.875,483.625 514.625,481.25 515.75,481.125 516.875,482.0 518.125,485.75 519.75,493.125"/>
    <polyline points="520.0,493.75 520.75,496.25 522.5,499.75 524.75,502.25 527.375,504.0"/>
    <polyline points="527.875,504.125 532.25,505.375 534.625,505.625 539.375,505.75 543.375,505.5"/>
    <polyline points="544.25,505.375 551.0,504.625 560.5,502.875 569.125,500.75 575.625,498.75"/>
    <polyline points="577.375,498.25 589.0,493.75 595.5,490.625 604.875,485.125 612.5,479.625 620.625,472.5 626.125,466.5 631.75,459.125 637.25,450.25"/>
    <polyline points="640.0,445.125 645.0,433.125 647.25,426.25 649.25,418.5 650.875,410.125 652.125,401.0 652.875,391.0 652.875,380.125 652.125,368.625 650.5,356.625 647.625,344.125 643.625,331.5 638.125,319.25 631.25,307.75 622.875,297.75 613.125,289.75 602.125,284.25 590.375,282.0 578.125,283.0 565.75,287.25 553.75,294.75 542.5,304.75 532.25,316.875 523.125,330.25 515.25,344.375"/>
    <polyline points="508.5,358.75 502.875,372.75 498.25,386.25 491.375,410.5 486.875,430.875 484.0,447.375 478.375,484.875 476.625,492.0 475.25,495.625 472.25,500.875"/>
    <polyline points="471.375,502.0 468.5,504.625 466.25,506.125 464.0,507.375 458.75,509.5 452.875,511.125 446.125,512.5 434.25,514.0"/>
    <polyline points="349.125,515.625 335.625,514.625 326.375,513.5 312.125,510.625 302.875,507.625 298.75,505.625 294.875,503.25 291.75,500.375 289.625,496.875 288.75,492.75 290.125,487.875 294.125,482.375 302.125,476.5 315.0,470.625 333.75,465.5 359.125,462.125 390.625,462.0 426.5,466.0 463.875,475.0 499.5,488.375"/>
    <polyline points="530.875,505.0 556.5,523.5 576.25,542.375 590.5,560.5 600.375,577.375 606.5,592.75 610.0,606.375 611.125,618.25 610.625,628.625 608.625,637.375 605.5,644.625 601.5,650.375 596.75,654.75 591.375,657.625 585.625,659.25 579.5,659.375 573.375,658.25 567.25,655.875 561.25,652.5 555.375,648.125 549.875,643.125 544.75,637.5 540.0,631.5 535.625,625.125 528.125,612.25"/>
    <polyline points="525.125,606.0 519.875,593.875 516.0,582.875 513.0,573.25 509.25,557.75 507.125,546.5 504.5,529.375"/>
  </g>
</svg>
