<?xml version="1.0" encoding="utf-8" ?>
<svg xmlns="http://www.w3.org/2000/svg" xmlns:cc="http://creativecommons.org/ns" xmlns:dc="http://purl.org/dc/elements/1.1/" xmlns:ev="http://www.w3.org/2001/xml-events" xmlns:inkscape="http://www.inkscape.org/namespaces/inkscape" xmlns:rdf="http://www.w3.org/1999/02/22-rdf-syntax-ns" xmlns:sodipodi="http://sodipodi.sourceforge.net/DTD/sodipodi-0.dtd" xmlns:xlink="http://www.w3.org/1999/xlink" baseProfile="tiny" height="27.09333333cm" version="1.2" viewBox="0 0 1024.0 1024.0" width="27.09333333cm">
  <metadata>
    <rdf:RDF>
      <cc:Work>
        <dc:format>image/svg+xml</dc:format>
        <dc:source>vpype read './original_svgs/Strange Attractors #429.svg' linemerge linesimplify write './Strange Attractors #429.svg'
</dc:source>
        <dc:date>2024-08-05T01:35:57.956145</dc:date>
      </cc:Work>
    </rdf:RDF>
  </metadata>
  <defs/>
  <g fill="none" id="layer1" inkscape:groupmode="layer" inkscape:label="1" stroke="black" stroke-width="0.7mm" style="display:inline">
    <polyline points="576.25,611.5 561.625,587.25 550.0,565.875 541.0,547.25 534.25,531.25 529.375,517.625 526.0,505.875 524.0,496.0 523.125,487.375 523.125,480.125 524.0,473.875 525.5,468.5 527.5,463.875 530.0,460.0 532.75,456.75 535.875,454.125 539.125,452.0 542.375,450.5 545.75,449.5 552.125,448.875 555.0,449.375 557.625,450.25 560.0,451.5 562.0,453.125 563.625,455.125"/>
    <polyline points="565.0,457.25 565.875,459.625 566.875,464.875 566.5,470.375 565.125,475.75 564.125,478.25 560.125,485.375 555.25,491.125 549.875,495.75 544.5,499.25 535.75,503.125"/>
    <polyline points="534.125,503.625 526.25,505.75 520.5,506.75 512.625,507.625 500.875,508.125"/>
    <polyline points="499.75,508.125 493.125,508.125 485.375,507.625 478.75,506.75 472.0,505.0"/>
    <polyline points="470.875,504.625 467.625,503.125 464.625,501.25 462.75,499.625 461.125,497.625 459.875,495.25 459.125,492.25 459.0,488.75 459.625,484.5 460.375,482.0 463.0,476.375 467.125,469.5 473.5,461.5"/>
    <polyline points="477.625,457.125 488.125,447.375 494.5,442.25 501.75,437.125 509.75,432.0 518.5,427.0 527.875,422.375 537.625,418.5 547.75,415.375 557.75,413.25 567.5,412.375 576.625,412.875 585.0,414.75 592.25,418.0 598.375,422.5 603.25,428.125 606.75,434.5 609.125,441.5 610.375,448.75 610.625,456.125 610.125,463.375 609.0,470.375 607.25,476.875 605.25,483.0 602.875,488.625"/>
    <polyline points="600.375,493.625 597.75,498.125 592.5,505.625 587.25,511.25 584.75,513.5 580.0,517.0 573.75,520.25 568.5,521.875 564.125,522.375 560.75,522.375 556.75,521.5"/>
    <polyline points="556.125,521.25 554.25,519.875 553.875,519.0 554.25,517.5 555.875,516.0 560.0,513.75"/>
    <polyline points="560.75,513.375 572.25,508.125 578.125,504.875 584.375,500.375 587.875,496.875"/>
    <polyline points="589.0,495.5 590.125,494.0 592.0,490.5 592.75,488.625 593.875,484.125 594.25,478.75 593.5,472.25 591.25,464.375 587.125,454.875 584.0,449.375 575.5,436.875 563.125,422.625 555.25,414.875 546.25,407.0 536.125,399.125 524.875,391.5 512.625,384.5 499.625,378.5"/>
    <polyline points="486.125,374.0 472.75,371.25 459.75,370.625 447.75,372.375 436.875,376.375 427.625,382.5 420.125,390.625 414.375,400.125 410.25,410.75 407.75,421.75 406.5,432.875 406.25,443.625 406.875,454.0 408.25,463.625 410.0,472.375 414.375,487.375 419.25,499.0 424.125,507.625 426.5,511.125 430.875,516.375 435.0,520.125"/>
    <polyline points="436.875,521.5 441.875,524.125 447.125,525.625 451.75,525.75 453.0,525.5 454.875,524.875 455.25,524.5 455.125,524.0"/>
    <polyline points="454.875,523.875 450.875,522.75 433.75,520.25"/>
    <polyline points="432.25,520.0 424.5,518.125 419.5,516.25 416.25,514.625 413.125,512.5 410.375,509.625 408.0,506.0 406.625,501.0 406.375,497.875 406.625,494.375 407.5,490.125 409.0,485.25 411.375,479.5 414.875,472.875 419.75,465.125"/>
    <polyline points="426.375,456.0 435.0,445.625 446.25,433.625 460.25,420.25 477.625,405.625 498.5,390.25 522.75,374.875 549.875,360.75 578.875,349.625 607.75,343.25 634.625,342.875 657.5,349.25 675.25,361.875 687.375,379.5 694.25,400.5 697.0,422.75 696.625,445.0 694.25,465.875 690.75,485.0 686.625,501.875 682.375,516.5 678.25,529.125 670.375,548.5 666.875,555.875 663.625,561.75"/>
    <polyline points="660.5,566.625 657.5,570.375 654.625,573.25 651.875,575.5 649.25,577.0 646.625,578.0 644.125,578.5 639.125,578.5 636.75,578.0 632.125,576.375 623.375,571.375 614.125,564.125 607.0,557.25"/>
    <polyline points="605.875,556.0 601.0,549.625 599.75,547.125 599.25,545.0 599.875,542.75 601.25,541.5 602.625,540.875 606.375,540.0"/>
    <polyline points="607.5,539.875 613.125,539.75 620.25,540.5 629.125,542.25 640.0,545.625 649.75,549.625 661.0,555.375 674.125,563.875"/>
    <polyline points="678.875,567.5 689.125,576.125 694.5,581.25 700.125,587.0 711.5,600.5 717.25,608.375 722.625,616.75 727.75,625.75 732.25,635.125 735.75,644.75 738.125,654.125 738.875,662.875 737.625,670.5 734.25,676.25 728.5,679.875 720.375,680.75 710.125,678.5 698.25,673.5 685.125,665.625 671.375,655.5 657.5,643.875 644.125,631.0 631.375,617.875 619.5,604.75"/>
    <polyline points="608.75,592.0 590.5,569.125 556.25,524.0 546.125,512.375 543.375,509.5 538.375,505.125 532.25,501.0 526.875,498.625 519.25,496.875"/>
    <polyline points="517.75,496.75 500.75,495.375 497.625,494.75 493.875,493.5 490.625,491.625"/>
    <polyline points="490.0,491.125 488.25,489.125 487.375,487.5 486.875,484.625 487.25,481.0 488.875,476.625 490.875,473.375 495.375,467.75 497.375,465.75 504.75,459.625 510.875,455.5"/>
    <polyline points="514.25,453.5 521.625,450.0 529.375,447.125 533.5,446.125 541.375,444.875 545.125,444.875 552.125,445.875 558.0,448.375 560.5,450.125 564.125,454.5 566.25,459.75 566.75,462.5 567.0,465.375 566.5,471.125 564.875,476.625 562.5,481.75"/>
    <polyline points="561.125,484.125 556.375,490.25 552.875,493.625 547.5,497.75 543.875,499.875 538.625,502.375 532.0,504.625 525.75,506.125 520.125,507.0"/>
    <polyline points="518.75,507.125 512.375,507.875 505.25,508.25 489.75,508.25"/>
    <polyline points="488.75,508.125 479.875,507.25 473.125,505.75 468.625,504.125 466.5,503.0 463.5,501.0 461.75,499.25"/>
    <polyline points="461.0,498.25 459.125,494.625 458.375,489.75 458.875,485.625 460.375,480.625 463.375,474.625 465.5,471.125 468.25,467.375 471.375,463.375 479.875,454.25 491.375,444.25 498.375,439.0 506.125,433.75 514.625,428.625 523.875,423.75 533.75,419.375 543.875,415.875"/>
    <polyline points="554.0,413.25 564.125,411.875 573.75,411.875 582.5,413.125 590.375,416.0 597.0,420.125 602.375,425.375 606.5,431.5 609.25,438.5 610.875,445.75 611.5,453.25 611.25,460.625 610.375,467.875 606.875,481.125 602.125,492.25 599.5,497.0 594.125,504.875 591.5,508.125 586.25,513.25 583.875,515.25 579.25,518.25"/>
    <polyline points="577.125,519.5 573.25,521.125 569.75,522.125 565.375,522.75 561.875,522.75 558.5,522.125 556.25,521.125 555.125,520.0 555.0,519.125"/>
    <polyline points="555.0,518.75 555.75,517.5 558.125,515.625 570.5,509.75"/>
    <polyline points="571.625,509.25 577.5,506.25 583.875,502.125 586.375,500.125 591.125,494.875 593.125,491.5 595.25,485.25 595.75,480.0 595.375,473.625"/>
    <polyline points="594.625,470.0 591.75,461.375 589.5,456.5 586.625,451.0 583.0,445.0 578.5,438.625 573.0,431.625 566.5,424.125 558.75,416.25 549.875,408.125 539.75,399.875 528.375,391.875 515.875,384.375 502.625,377.75 488.875,372.625 474.875,369.25 461.25,368.0 448.5,369.25 437.0,372.875 427.125,379.0 419.0,387.0 412.625,396.75 408.25,407.5 405.375,418.875 403.875,430.5"/>
    <polyline points="403.625,441.75 404.25,452.5 405.5,462.625 407.25,471.75 409.375,480.0 411.75,487.375 414.25,493.875 419.25,504.375 421.625,508.5 426.375,515.0 428.625,517.5 432.75,521.25 436.5,523.75 441.25,525.875 444.0,526.5 448.25,526.75"/>
    <polyline points="449.125,526.75 452.5,526.0 453.5,525.375 453.5,524.875 452.0,524.0 448.5,523.375"/>
    <polyline points="447.625,523.25 438.5,522.125 427.125,520.25 420.625,518.5 417.125,517.25 413.75,515.625"/>
    <polyline points="412.125,514.75 409.0,512.375 406.125,509.25 404.0,505.125 403.25,502.5 402.875,499.5 403.0,496.0 403.625,491.875 405.0,487.125 407.125,481.375 410.5,474.75 415.125,467.0 421.5,457.875 430.0,447.375 441.0,435.125 455.125,421.375 472.625,406.25 494.0,390.0 519.0,373.625 547.375,358.375 577.75,346.0 608.375,338.625 637.0,337.625"/>
    <polyline points="661.5,344.0 680.375,357.25 693.0,376.0 700.25,398.125 702.875,421.75 702.375,445.25 699.75,467.25 696.125,487.25 691.875,504.875 687.5,520.125 683.25,533.25 679.25,544.125 671.875,560.875 668.5,567.0 665.375,571.875 662.25,575.75 659.375,578.625 656.375,580.875 653.625,582.25 650.75,583.125 647.875,583.5 645.125,583.5 642.375,583.0 636.75,581.25"/>
    <polyline points="634.125,580.0 628.75,577.125 623.75,573.75 618.875,570.125 612.375,564.625 600.75,553.5 595.5,547.375 593.125,543.5"/>
    <polyline points="592.75,542.625 592.0,539.75 592.25,538.625 592.75,537.5 594.875,535.875 596.375,535.125 601.625,533.875 610.875,533.375"/>
    <polyline points="612.75,533.375 619.0,533.75 628.875,535.0 641.0,537.625 651.625,541.0 664.25,546.25 679.125,554.5 690.625,562.25 703.5,572.75 710.5,579.25"/>
    <polyline points="717.875,586.75 725.625,595.25 733.625,605.125 741.625,616.25 749.5,628.625 756.875,642.125 763.25,656.625 768.125,671.5 770.625,685.875 770.125,699.0 765.75,709.25 757.125,715.5 744.375,716.75 727.875,712.375 708.75,702.625 688.25,688.25 667.625,670.5 648.0,650.75 629.875,630.5 613.875,610.5 600.0,591.625 588.25,574.375 578.5,558.875 570.5,545.25 563.875,533.375 558.625,523.125"/>
    <polyline points="554.375,514.375 550.875,507.0 546.125,495.625 539.875,477.5 539.25,476.75 538.625,476.75 533.375,481.875"/>
    <polyline points="532.625,482.5 530.125,484.375 526.375,486.5 520.25,489.0 515.125,490.25 511.125,490.75 508.25,490.75"/>
    <polyline points="507.375,490.75 501.5,489.625 498.75,488.25 497.125,486.75 496.125,485.0 495.625,483.5 495.5,481.875 496.5,478.0"/>
    <polyline points="497.0,476.875 498.375,474.5 501.375,470.625 505.75,466.5 513.625,461.0 520.875,457.5 528.75,455.0 533.875,454.25 538.875,454.125 543.375,455.0 545.5,455.75"/>
    <polyline points="547.25,456.625 550.25,459.0 551.5,460.5 553.125,463.75 553.875,467.375 553.875,469.25 553.75,471.125 552.875,475.0 550.375,480.375 547.0,485.125 544.375,487.875 540.125,491.5 535.5,494.25"/>
    <polyline points="534.0,495.125 526.375,498.25 517.625,500.5 508.125,501.75 499.25,501.875"/>
    <polyline points="498.0,501.875 490.875,501.25 485.375,500.0 482.25,498.875 477.625,496.125 475.5,493.75 474.0,490.625"/>
    <polyline points="473.625,489.375 473.5,485.125 474.25,481.625 475.875,477.5 478.625,472.875 482.625,467.375 488.125,461.375 495.375,454.875 499.75,451.5 509.75,444.75 515.375,441.5 527.625,435.75 534.125,433.375 540.75,431.625 547.375,430.375 553.75,429.75"/>
    <polyline points="559.875,430.0 565.5,430.875 570.75,432.625 575.25,435.0 579.125,438.0 582.25,441.625 584.625,445.75 586.25,450.125 587.25,454.75 587.75,459.5 587.0,468.875 586.0,473.375 583.0,481.75 579.25,489.0 575.0,495.0 568.375,502.0 564.0,505.375 559.75,508.0"/>
    <polyline points="557.75,509.0 552.125,511.375 544.0,513.375 536.375,514.125 526.75,513.875"/>
    <polyline points="526.125,513.75 518.375,512.875 515.25,512.125 515.875,511.75 520.125,511.125"/>
    <line x1="520.375" x2="527.875" y1="511.125" y2="509.875"/>
    <polyline points="528.25,509.875 537.75,507.875 542.5,506.5"/>
    <polyline points="543.25,506.375 549.875,504.125 557.125,500.75 560.875,498.375 565.5,494.5"/>
    <polyline points="566.375,493.5 568.0,491.375 570.0,487.75 571.0,484.75 571.625,481.375 571.75,477.375 571.125,472.875 569.75,467.625 568.625,464.75 565.5,458.375 563.375,454.875 557.875,447.375 550.625,439.125 541.375,430.625"/>
    <polyline points="536.0,426.25 530.125,422.125 523.75,418.125 517.0,414.625 510.0,411.375 502.75,408.875 495.375,407.0 488.125,406.0 481.125,405.875 474.375,406.625 468.25,408.375 462.625,411.125 457.75,414.625 453.5,419.0 450.125,423.875 447.5,429.25 445.5,434.875 444.25,440.75 443.625,446.75 443.5,452.5 443.75,458.25 444.375,463.625 446.625,473.5 449.5,482.0"/>
    <polyline points="451.125,485.75 454.625,492.125 458.125,497.25 459.75,499.375 464.75,504.5 470.5,508.875 474.25,510.875 477.375,512.25 482.75,513.75"/>
    <polyline points="483.375,513.875 487.125,514.625 485.625,514.75"/>
    <polyline points="485.25,514.75 477.75,514.5 469.625,513.75"/>
    <polyline points="468.625,513.625 464.625,513.0 456.625,511.125 450.625,508.625 447.125,506.5 445.0,504.625 443.0,502.25 441.5,499.375"/>
    <polyline points="440.875,497.75 440.375,493.625 440.75,488.5 441.5,485.5 444.375,478.25 446.625,474.0 449.625,469.25 453.5,463.875 464.0,451.5 471.125,444.5 479.5,437.0 489.375,429.0 500.625,420.875 513.375,412.75 527.375,405.125 542.375,398.375 558.0,393.125 573.625,389.75 588.5,388.625 602.25,390.25 614.125,394.375 624.0,401.125"/>
    <polyline points="631.375,409.875 636.5,420.25 639.5,431.5 640.75,443.125 640.625,454.75 639.25,465.875 637.125,476.25 634.5,485.75 631.5,494.25 628.25,501.875 625.0,508.375 621.75,514.125 615.625,523.0 610.0,529.125 605.0,533.25 602.875,534.625 597.125,537.125 595.625,537.5 591.625,537.75"/>
    <polyline points="590.625,537.625 589.0,537.125 586.875,535.75 586.375,534.5 586.5,533.625 587.0,532.875 589.75,531.0 597.0,529.0"/>
    <polyline points="598.25,528.75 604.5,528.0 614.25,527.5 621.25,527.5 632.125,528.125 641.75,529.25 648.875,530.5 656.75,532.25 665.375,534.75"/>
    <polyline points="670.125,536.375 680.5,540.5 692.375,546.5 705.875,555.0 713.5,560.5 721.75,567.125 730.625,575.0 740.125,584.375 750.375,595.75 761.25,609.125 772.625,624.875 784.0,643.125 794.75,663.75 804.125,686.25 810.375,709.625 812.0,731.875 807.25,750.375 794.875,762.0 774.5,764.0 747.75,755.5 717.125,737.125 685.5,711.125 655.625,680.875"/>
    <polyline points="629.25,649.25 607.125,618.5 589.5,590.125 576.0,564.625 566.125,542.5 559.25,523.375 555.0,507.125 552.875,493.375 552.5,482.0 553.375,472.5 555.25,464.875 557.875,458.75 561.125,454.25 564.5,450.875 568.0,448.75 571.375,447.875 574.5,447.875 577.25,448.625 579.625,450.375 581.5,452.625 583.0,455.375 583.875,458.5 584.25,465.5 583.0,472.875"/>
    <polyline points="581.875,476.5 578.75,483.25 575.125,489.25 571.0,494.375 564.5,500.5 560.25,503.5 556.125,505.875 550.25,508.5 545.0,510.25 535.75,511.875"/>
    <polyline points="534.375,512.0 528.375,512.5 512.375,512.5"/>
    <line x1="511.75" x2="498.25" y1="512.5" y2="512.625"/>
    <polyline points="495.25,513.375 498.0,513.0 497.625,512.875 497.75,512.625 491.0,512.75 480.375,512.375"/>
    <polyline points="479.375,512.25 471.75,511.5 462.875,509.625 455.875,506.875 452.625,504.75"/>
    <polyline points="451.5,503.875 448.75,500.625 448.0,499.375 446.875,496.25 446.375,492.375 446.5,490.125 447.5,484.875 450.125,478.25 452.125,474.375 458.25,465.25 462.375,460.125 467.5,454.375 473.625,448.25 480.875,441.625 489.25,434.75 498.875,427.625 509.75,420.625 521.625,413.75 534.5,407.625"/>
    <polyline points="548.0,402.375 561.75,398.75 575.25,396.75 587.875,396.75 599.375,399.125 609.25,403.5 617.25,409.875 623.375,417.875 627.5,427.0 630.0,436.875 631.0,447.0 630.75,457.125 629.5,466.75 627.5,475.875 625.125,484.25 619.375,498.5 613.25,509.625 610.25,514.0 604.5,520.875 599.25,525.625 594.625,528.75"/>
    <polyline points="592.625,529.875 587.25,531.75 584.375,532.125 581.0,532.0 578.625,531.25 576.875,529.875 576.625,529.125 576.75,527.875 578.625,526.0"/>
    <polyline points="579.125,525.5 582.125,524.125 588.625,521.875 615.25,515.625"/>
    <polyline points="617.5,515.125 627.125,512.5 637.5,508.875 645.375,505.0 647.875,503.375 650.375,501.5 655.0,497.0 657.0,494.125 658.75,490.875 660.25,487.0 661.125,482.5 661.375,477.125 660.75,470.75 659.25,463.0 656.125,453.875 651.375,442.875 644.25,429.75"/>
    <polyline points="634.25,414.0 620.5,395.5 602.25,374.0 578.5,349.875 548.75,323.875 513.0,297.875 472.375,275.25 429.25,259.75 387.625,255.25 351.5,264.125 323.875,285.625 305.75,316.875 296.0,353.25 292.625,390.75 293.25,426.375 296.25,458.5 300.25,486.25 304.625,509.75 309.0,529.375 313.5,545.375 318.0,558.25 322.75,568.375 327.875,576.125 333.375,581.625 339.375,585.25 345.875,587.125"/>
    <polyline points="352.875,587.375 360.375,586.25 368.125,584.0 376.125,580.75 384.25,576.625 392.25,572.0 400.125,567.0 414.875,556.625 462.125,519.875 474.625,511.75 481.75,508.125 483.875,507.375"/>
    <polyline points="485.875,506.625 492.625,504.75 498.25,504.125 504.125,504.125 515.0,505.0"/>
    <polyline points="515.875,505.0 520.375,505.375 526.125,505.375 534.25,504.625"/>
    <polyline points="535.0,504.5 541.375,503.125 546.375,501.5 550.875,499.625 556.25,496.5"/>
    <polyline points="557.125,495.875 561.25,492.0 564.0,487.875 565.75,482.5 566.125,479.25 566.0,475.5 564.5,468.875 561.0,461.0 557.25,454.875"/>
    <polyline points="554.875,451.625 549.125,444.875 541.75,437.625 532.75,430.625 522.25,424.0 516.625,421.125 510.75,418.625 504.75,416.625 498.625,415.125 492.625,414.25 486.75,414.125 481.125,414.75 475.875,416.0 471.125,418.0 466.75,420.75 463.125,424.0 459.875,427.875 457.375,432.125 455.375,436.625 454.0,441.375 452.625,451.125"/>
    <polyline points="452.5,456.0 453.5,465.125 455.375,473.5 459.375,483.875 462.5,489.5 467.25,496.125 473.25,502.25 478.625,506.125 484.25,509.0"/>
    <polyline points="485.25,509.375 489.375,510.875 497.5,512.75"/>
    <line x1="494.875" x2="482.375" y1="513.375" y2="513.375"/>
    <polyline points="481.625,513.375 470.125,512.375 462.625,510.875 456.75,509.0"/>
    <polyline points="455.625,508.5 453.25,507.375 449.875,505.125 446.875,502.0 445.25,499.375 444.25,496.0 443.875,491.875 444.625,486.75 445.5,483.75 448.625,476.5 454.125,467.5 462.875,456.625 468.75,450.375 475.875,443.625"/>
    <polyline points="484.125,436.5 493.625,429.125 504.5,421.625 516.625,414.25 529.875,407.375 544.0,401.375 558.375,396.75 572.75,394.0 586.5,393.375 599.125,395.0 610.0,399.125 619.0,405.375 625.875,413.5 630.75,422.875 633.625,433.25 634.875,444.0 634.875,454.75 633.75,465.125 631.75,474.75 629.25,483.75 626.5,491.75 623.375,499.0 620.25,505.25 617.125,510.75 611.125,519.375"/>
    <polyline points="608.25,522.625 602.875,527.75 600.5,529.5 596.125,532.125 592.5,533.625 588.0,534.375 583.875,533.875 582.5,533.375 581.125,532.25 580.75,531.5 581.0,529.875"/>
    <polyline points="581.375,529.5 582.625,528.375 585.375,526.875 591.75,524.875 602.5,522.75 612.5,521.375"/>
    <polyline points="614.75,521.125 645.125,518.375 667.0,517.125 684.125,516.75 704.125,517.375"/>
    <polyline points="709.625,517.875 715.5,518.5 728.125,520.5 742.5,524.25 750.5,527.125 759.375,530.875 769.125,535.875 780.125,542.625 792.625,551.625 807.0,563.875 823.625,580.25 843.125,602.5 865.75,632.25 891.125,671.875 917.625,722.75 940.875,784.5 951.875,850.75 938.5,906.25 891.625,929.75 815.75,907.0 729.375,843.875 652.375,760.25 595.5,675.0 560.375,597.875"/>
    <polyline points="544.625,531.375 545.5,474.875 559.875,427.25 585.125,387.875 617.75,358.0 653.5,339.375 687.375,333.875 715.375,341.5 735.0,360.5 746.25,387.5 750.625,418.375 750.0,449.875 746.375,479.75 741.375,506.625 735.625,530.25 729.875,550.25 724.0,567.125 718.25,580.75 712.375,591.75 706.375,600.125 700.125,606.25 693.5,610.25 686.625,612.375 679.5,612.875 672.125,611.75 664.625,609.5"/>
    <polyline points="657.0,606.25 649.5,602.125 642.125,597.5 634.875,592.375 621.375,581.625 615.125,576.25 581.0,545.25 573.875,539.125 564.875,531.875 557.375,526.75 549.125,522.0"/>
    <polyline points="547.375,521.125 541.0,518.375 534.75,516.25 528.0,514.625 522.0,513.625"/>
    <line x1="521.375" x2="513.125" y1="513.5" y2="512.625"/>
    <line x1="512.875" x2="503.625" y1="512.5" y2="512.75"/>
    <line x1="503.375" x2="494.75" y1="512.75" y2="513.125"/>
    <polyline points="494.375,513.125 484.25,513.125 477.75,512.75"/>
    <polyline points="476.875,512.625 465.75,511.125 458.875,509.125 456.5,508.25 453.125,506.375 449.875,503.875"/>
    <polyline points="448.875,502.875 446.375,499.25 445.25,495.875 445.0,494.0 445.125,489.5 445.625,486.875 447.75,480.5 451.75,472.75 454.75,468.125 458.5,463.0 468.875,451.375 475.625,444.875 483.5,438.0 492.75,430.75 503.25,423.375 515.0,416.125 527.75,409.375 541.375,403.375 555.5,398.625"/>
    <polyline points="569.625,395.625 583.125,394.625 595.75,395.875 606.75,399.375 615.875,405.125 623.0,412.625 628.25,421.625 631.5,431.625 633.0,442.125 633.25,452.5 632.375,462.75 630.625,472.375 628.25,481.375 625.625,489.5 622.625,496.75 619.5,503.125 616.5,508.625 613.375,513.5 610.375,517.5 604.75,523.875 599.75,528.125 595.25,530.875 593.25,531.75"/>
    <polyline points="591.5,532.5 588.25,533.25 585.625,533.5 582.5,533.125 580.5,532.25 579.25,531.125 579.0,529.5 580.5,527.625 582.375,526.5"/>
    <polyline points="583.125,526.125 585.75,525.0 590.375,523.625 599.25,521.625 624.875,517.375"/>
    <polyline points="627.5,516.875 638.75,515.0 647.875,513.125 657.5,510.75 664.25,508.625 667.625,507.375 674.25,504.25 680.5,500.125 683.375,497.375 686.0,494.25 688.25,490.375 689.875,485.75 690.875,480.125 691.0,473.125 689.625,464.5 686.625,453.75"/>
    <polyline points="681.125,440.375 672.5,423.625 659.375,402.875 640.625,377.375 614.375,346.75 578.875,311.375 533.375,273.375 478.125,237.375 417.125,210.75 357.125,201.625 306.5,215.0 270.875,249.75 251.0,298.625 243.25,352.75 243.0,405.25 246.5,452.5 251.375,492.875 256.5,526.75 261.5,554.375 266.625,576.75 272.5,594.25 279.625,607.375 288.375,616.25 298.875,621.125 311.125,622.0 325.0,619.375"/>
    <polyline points="340.0,613.625 355.625,605.25 371.125,595.0 386.125,583.625 400.125,571.75 412.875,560.0 424.375,548.5 443.375,528.125 451.0,519.375 474.75,490.0 482.0,481.625 486.625,477.5 489.0,476.5 491.0,476.375 491.875,476.625"/>
    <polyline points="492.75,476.875 497.0,479.625 503.0,484.5 506.625,486.875 511.125,489.375 514.75,490.875"/>
    <polyline points="515.625,491.125 520.125,492.375 526.125,493.125 530.25,493.0 536.625,491.75"/>
    <polyline points="537.375,491.5 541.75,489.375 544.25,487.375 546.5,484.75 547.375,483.25 548.375,480.5 548.75,477.5 548.5,473.875"/>
    <polyline points="548.25,472.5 546.875,468.125 544.375,463.375 540.5,458.125 535.25,452.75 528.5,447.375 523.375,444.25 514.875,440.5 511.875,439.625 506.0,438.5 500.25,438.375"/>
    <polyline points="497.5,438.75 492.375,440.25 490.125,441.375 486.25,444.25 483.25,448.0 482.125,450.125 480.5,454.625 480.0,457.0 479.625,461.875 479.75,464.25 480.375,468.875 481.5,473.25 483.875,479.125 488.0,485.625"/>
    <polyline points="489.125,487.0 492.375,490.625 499.125,495.875 502.375,497.75 507.375,500.0 514.75,502.0"/>
    <polyline points="515.625,502.25 520.625,503.0 525.375,503.25 532.625,502.875 535.75,502.375"/>
    <polyline points="536.625,502.25 544.25,500.25 548.625,498.5 553.75,495.5 557.875,492.0"/>
    <polyline points="558.625,491.125 561.25,487.25 563.0,482.125 563.25,479.0 563.125,475.5 562.375,471.625 561.0,467.125 557.125,459.5 553.25,453.625 548.125,447.5 541.625,441.0"/>
    <polyline points="537.75,437.75 529.125,431.375 519.375,425.75 514.125,423.375 508.75,421.375 503.25,419.75 497.75,418.75 492.375,418.25 487.125,418.375 482.125,419.125 477.5,420.5 473.25,422.625 469.5,425.125 466.25,428.25 463.5,431.75 461.25,435.625 459.5,439.75 457.5,448.5 457.125,452.875 457.375,461.5 457.875,465.625 458.75,469.5"/>
    <polyline points="459.75,473.25 463.375,482.875 467.75,490.5 470.75,494.5 475.25,499.125 480.625,503.5 486.5,506.875 491.25,508.75"/>
    <polyline points="492.125,509.0 497.5,510.625 505.375,512.25 504.5,512.625 501.25,512.875"/>
    <line x1="501.0" x2="491.375" y1="512.875" y2="513.25"/>
    <polyline points="490.875,513.25 480.0,513.0 471.75,512.125"/>
    <polyline points="470.75,512.0 465.375,511.125 462.0,510.25 458.5,509.125 453.75,507.0 449.375,503.75 447.5,501.5 446.0,498.875 445.0,495.5"/>
    <polyline points="444.75,493.5 445.0,488.875 446.5,483.0 449.875,475.75 455.5,466.875 459.5,461.625 464.375,455.875 470.375,449.75 477.5,443.0 485.75,436.0 495.375,428.625 506.125,421.25 518.25,414.125 531.375,407.5 545.25,401.75 559.375,397.5 573.5,394.875 586.875,394.5 599.125,396.375 609.625,400.5 618.375,406.875 625.0,414.875"/>
    <polyline points="629.625,424.25 632.375,434.375 633.5,445.0 633.375,455.375 632.25,465.5 630.375,475.0 627.875,483.75 625.0,491.75 622.0,498.75 615.875,510.25 612.75,514.875 607.0,522.0 601.625,527.0 597.0,530.25 593.0,532.125 589.625,533.25 586.75,533.625 584.375,533.5"/>
    <polyline points="583.375,533.375 581.125,532.625 579.75,531.5 579.25,530.375 579.625,529.125 580.125,528.375 582.25,526.875 585.5,525.375 588.625,524.375"/>
    <polyline points="589.875,524.125 596.875,522.375 603.875,521.125 643.625,514.875"/>
    <polyline points="646.75,514.25 656.625,512.375 663.5,510.625 670.5,508.5 677.5,505.875 684.25,502.125 687.5,499.875 690.5,497.0 693.25,493.625 695.5,489.625 697.25,484.625 698.125,478.5 697.875,470.875 696.125,461.25 692.25,449.25 685.625,434.125 675.0,415.125 659.25,391.375 636.375,362.0 604.625,326.875"/>
    <polyline points="562.0,287.125 508.0,246.125 444.625,210.75 378.25,190.5 318.125,193.5 272.625,222.125 245.125,270.125 232.875,327.75 230.75,385.75 233.625,438.625 238.5,484.375 243.75,522.625 248.75,554.125 254.125,579.5 260.125,599.5 267.625,614.5 277.125,624.625 289.0,629.875 303.0,630.5 319.0,626.875 336.25,619.5 354.125,609.125 371.625,596.75 388.25,583.125 403.625,569.25 417.25,555.5"/>
    <polyline points="429.25,542.5 439.625,530.625 455.5,510.375 466.375,495.0 481.0,471.75 483.0,469.375 483.625,468.75 484.375,468.5 485.5,468.75 487.125,470.625 490.375,475.625"/>
    <polyline points="491.125,476.75 494.375,481.125 498.125,485.0 501.0,487.5 507.875,491.875 514.625,494.75"/>
    <polyline points="515.625,495.0 521.0,496.25 526.375,496.75 533.25,496.375 537.375,495.5"/>
    <polyline points="538.25,495.25 544.0,493.0 547.0,491.125 549.75,488.625 552.5,484.5 553.25,482.5 553.875,479.125"/>
    <polyline points="554.0,477.75 553.875,475.0 553.25,471.875 550.5,464.75 546.625,458.5 543.0,454.125 538.625,449.5 530.375,442.875 523.875,438.75 520.375,436.875 513.0,433.875 505.375,431.875"/>
    <polyline points="501.625,431.375 497.875,431.25 494.375,431.5 491.0,432.125 487.75,433.125 484.75,434.5 482.125,436.125 479.75,438.125 477.625,440.5 475.875,443.0 474.5,445.625 472.5,451.5 472.0,454.5 471.625,460.625 471.875,463.625 473.375,472.0 475.125,477.125 478.375,483.625 479.625,485.5"/>
    <polyline points="480.875,487.25 482.0,488.875 485.875,493.125 489.5,496.375 494.25,499.625 500.625,502.875 507.75,505.125"/>
    <polyline points="508.625,505.375 517.75,506.875 525.375,507.0"/>
    <polyline points="526.0,506.875 534.625,506.0 543.75,503.75"/>
    <polyline points="544.625,503.5 550.75,501.25 557.125,497.75 562.375,493.375 566.0,488.25"/>
    <polyline points="566.625,487.0 567.875,482.625 568.25,479.25 568.0,475.25 567.125,470.75 565.375,465.625 564.125,462.875 560.75,456.75 558.5,453.375 552.875,446.375 545.75,438.75 536.75,431.125 526.125,423.75 520.25,420.5 514.0,417.5"/>
    <polyline points="507.625,415.0 501.125,413.0 494.625,411.625 488.25,411.125 482.0,411.25 476.25,412.25 470.875,414.125 466.0,416.625 461.75,420.0 458.125,423.875 455.125,428.25 452.875,433.125 451.125,438.125 450.0,443.375 449.375,448.625 449.375,458.875 450.875,468.375 453.25,476.75 454.625,480.5 457.625,487.125 460.875,492.5"/>
    <polyline points="462.625,494.875 467.375,500.5 471.875,504.5 475.875,507.25 482.5,510.5 489.625,512.625"/>
    <polyline points="490.125,512.75 493.625,513.5 492.875,513.75"/>
    <line x1="492.625" x2="481.625" y1="513.75" y2="513.75"/>
    <polyline points="480.875,513.75 471.625,513.0 466.625,512.25 461.0,511.0 456.375,509.5"/>
    <polyline points="455.125,509.0 451.625,507.25 448.25,504.875 445.375,501.625 443.875,498.75 443.0,495.125 442.875,493.0 443.375,488.0 444.0,485.125 446.875,478.125 449.0,474.0 451.875,469.375 460.125,458.625 465.625,452.5 472.375,445.875"/>
    <polyline points="480.375,438.625 489.625,431.125 500.25,423.5 512.25,415.75 525.375,408.5 539.5,402.125 554.25,396.875 569.0,393.375 583.375,391.875 596.625,392.875 608.375,396.375 618.125,402.125 625.75,410.0 631.25,419.375 634.75,429.75 636.5,440.75 636.625,451.75 635.75,462.5 634.0,472.5 631.5,481.875 628.75,490.375 625.75,497.875 622.5,504.5 619.375,510.25 613.25,519.375"/>
    <polyline points="610.25,522.875 604.875,528.25 602.5,530.125 598.125,532.875 594.25,534.5 589.75,535.375 586.375,535.125 584.75,534.625 583.625,534.0 582.625,532.875 582.375,532.0 582.75,530.875"/>
    <polyline points="583.0,530.375 585.625,528.5 592.5,526.25 603.125,524.375 615.25,523.125"/>
    <polyline points="617.625,523.0 630.75,522.25 643.125,522.25 657.625,522.875 674.875,525.0 684.875,527.125 690.375,528.625 702.375,532.625 716.125,538.75 724.0,543.0"/>
    <polyline points="732.5,548.375 742.0,555.0 752.375,563.25 764.0,573.75 776.875,586.875 791.125,603.25 806.75,623.75 823.25,648.875 840.0,679.125 855.125,714.125 865.75,752.0 867.75,788.5 856.875,817.125 830.625,830.125 790.125,822.5 741.25,794.5 691.5,751.75 646.875,702.0 610.875,651.75 584.375,605.125 566.75,563.875 556.625,528.25 553.125,498.0 554.75,472.5 560.625,451.25 569.75,434.125"/>
    <polyline points="581.125,420.75 593.625,411.375 606.5,405.75 618.625,404.125 629.375,406.125 638.125,411.375 644.625,419.25 649.0,429.0 651.25,440.0 651.75,451.5 650.875,463.0 649.0,474.0 646.25,484.375 643.125,493.75 639.75,502.125 636.125,509.375 632.5,515.75 628.875,521.125 622.125,529.5 618.875,532.625 613.125,537.125 607.875,539.875 605.625,540.625"/>
    <polyline points="603.5,541.25 599.625,541.625 596.375,541.5 593.75,541.0 590.625,539.75 588.5,538.25 587.375,536.625 587.125,535.625 587.625,533.875 589.5,532.25"/>
    <polyline points="590.25,531.875 592.75,530.875 597.125,529.75 601.375,529.125 610.0,528.5 621.125,528.5 635.0,529.625"/>
    <polyline points="638.125,530.0 652.375,532.875 665.125,536.625 680.375,542.875 692.125,549.25 698.75,553.25 705.75,558.125 713.375,564.0 721.5,570.875 730.375,579.0 739.75,588.75 749.75,600.25 760.25,613.75 771.0,629.375 781.625,647.375 791.375,667.375 799.25,688.75 804.0,710.25"/>
    <polyline points="804.0,730.125 797.875,745.875 784.625,754.75 764.5,754.625 738.875,745.0 710.0,726.75 680.5,702.0 652.875,673.75 628.25,644.25 607.5,615.75 590.75,589.25 577.625,565.625 567.75,544.75 560.625,526.875 555.875,511.625 553.0,498.625 551.75,487.875 551.625,478.875 552.5,471.5 554.125,465.625 556.25,461.0 558.625,457.625 561.25,455.25 563.75,453.75 566.25,453.25 568.625,453.375"/>
    <polyline points="570.625,454.125 572.25,455.625 573.625,457.5 574.625,459.75 575.375,465.0 575.25,467.875 574.0,473.875 573.0,476.75 570.375,482.375 565.375,489.625 561.625,493.75 559.625,495.5 553.75,500.0 548.0,503.25 544.25,504.875"/>
    <polyline points="542.5,505.5 537.25,507.125 528.125,509.0 520.375,509.875 509.5,510.375"/>
    <polyline points="508.5,510.375 502.75,510.625 485.125,510.375"/>
    <polyline points="484.125,510.375 475.75,509.5 469.125,508.125 464.625,506.625 461.25,505.125 458.0,503.0 457.125,502.125"/>
    <polyline points="456.125,501.25 453.75,497.875 453.125,496.5 452.375,493.25 452.25,491.375 452.75,486.875 454.25,481.5 455.625,478.375 459.75,471.0 466.375,462.25 470.75,457.25 476.0,451.875 489.25,440.25 497.375,434.125 506.5,428.0 516.625,422.0 527.5,416.375 539.0,411.5"/>
    <polyline points="550.875,407.625 562.75,405.0 574.375,404.0 585.125,404.75 594.75,407.25 603.0,411.5 609.75,417.25 614.875,424.375 618.375,432.375 620.5,440.875 621.375,449.625 621.125,458.375 620.125,466.75 618.375,474.75 616.25,482.125 613.75,488.875 611.0,495.0 605.25,505.0 602.375,509.125 599.625,512.625 594.25,518.125 591.75,520.25 587.125,523.375"/>
    <polyline points="585.0,524.5 579.375,526.625 575.0,527.25 570.625,527.0 567.875,526.0 566.75,525.0 566.375,524.25 566.375,523.125 567.0,522.125"/>
    <polyline points="567.25,521.75 569.75,519.875 574.625,517.5 592.625,510.375"/>
    <polyline points="594.25,509.625 602.5,505.125 607.5,501.5 610.625,498.5 613.375,494.75 615.75,490.125 617.25,484.375 617.625,480.875 617.625,477.0 617.125,472.625 616.125,467.625 614.375,462.0 611.875,455.625 608.375,448.375 603.625,440.25 597.625,431.125"/>
    <polyline points="589.875,421.0 580.375,409.75 568.75,397.625 554.875,384.875 538.75,371.875 520.25,359.25 500.0,347.875 478.5,338.75 456.625,333.125 435.5,331.625 416.25,335.0 399.875,343.125 386.875,355.5 377.375,371.0 371.125,388.625 367.75,407.125 366.625,425.375 367.25,442.875 368.875,458.875 371.375,473.25 374.25,486.0 377.375,497.0 380.625,506.375 383.75,514.25 390.0,526.25"/>
    <polyline points="393.0,530.75 395.875,534.25 398.75,537.125 401.375,539.25 406.5,542.125 411.375,543.375 417.875,543.375 423.75,542.125 433.125,538.25 439.75,534.375"/>
    <polyline points="440.625,533.875 444.125,531.125 444.875,530.125 445.125,529.0 444.625,528.375 443.5,527.75 439.875,527.0"/>
    <polyline points="439.125,526.875 420.125,525.625 411.125,524.75 400.75,523.0"/>
    <polyline points="398.625,522.5 394.25,521.25 387.75,518.375 383.875,515.625 382.125,513.75 380.5,511.625 378.25,506.0 377.75,502.375 378.0,497.875 379.0,492.625 381.0,486.125 384.5,478.375 389.75,468.875 397.375,457.5 408.0,443.625 422.5,427.25 441.75,408.125 466.625,386.375 497.875,362.75 535.25,339.25 577.375,318.625"/>
    <polyline points="621.25,304.75 662.75,301.125 697.375,309.875 722.375,330.125 737.375,358.875 744.0,392.25 744.75,426.5 742.0,459.0 737.5,488.5 732.5,514.25 727.625,536.5 723.0,555.375 714.625,584.5 710.5,595.25 706.375,603.875 702.0,610.5 697.125,615.375 692.0,618.625 686.25,620.25 680.125,620.375 673.625,619.25 666.875,616.875 659.875,613.625 652.75,609.625 645.625,604.875"/>
    <polyline points="638.75,599.75 631.875,594.25 619.0,583.125 602.125,567.25 584.25,549.875 570.5,537.5 562.375,531.0 555.5,526.25 546.5,521.125"/>
    <polyline points="545.0,520.375 539.5,518.125 533.25,516.0 523.875,513.75"/>
    <polyline points="523.5,513.625 520.375,512.875 519.125,512.25 519.625,511.75 521.375,511.375"/>
    <line x1="521.625" x2="529.125" y1="511.25" y2="509.875"/>
    <polyline points="529.5,509.75 536.25,508.375 544.5,506.125"/>
    <polyline points="545.25,505.875 553.875,502.5 558.625,500.0 564.25,495.875 567.625,492.125"/>
    <polyline points="568.375,491.0 570.375,487.125 571.375,484.125 571.875,480.625 571.875,476.625 571.125,471.875 569.5,466.5 568.25,463.5 564.75,457.0 559.875,449.625 556.75,445.625 549.0,437.25 539.25,428.625 533.625,424.375 527.5,420.25"/>
    <polyline points="521.0,416.375 514.0,413.0 506.875,410.0 499.5,407.75 492.125,406.25 485.0,405.5 478.0,405.75 471.5,407.0 465.5,409.25 460.125,412.25 455.5,416.25 451.75,420.875 448.625,426.0 446.25,431.625 444.625,437.375 443.625,443.375 443.25,449.25 443.25,455.0 443.75,460.625 444.5,466.0 445.625,470.875 446.875,475.625 448.375,479.875 451.625,487.375 453.375,490.5"/>
    <polyline points="455.125,493.5 458.625,498.375 462.0,502.125 465.25,505.25 469.625,508.5 474.5,511.25 476.625,512.125 480.875,513.5 483.875,514.125"/>
    <polyline points="484.25,514.25 486.75,514.75 484.375,514.75"/>
    <polyline points="484.0,514.75 476.875,514.5 466.5,513.375"/>
    <polyline points="465.5,513.125 461.125,512.375 455.25,510.75 451.625,509.25 447.0,506.5 444.75,504.625 442.0,500.875 440.75,497.625 440.25,493.625"/>
    <polyline points="440.25,491.125 441.375,485.375 444.375,478.125 446.625,473.75 453.5,463.625 464.25,451.25 471.375,444.125 479.875,436.5 489.75,428.5 501.125,420.375 514.0,412.25 528.125,404.625 543.25,398.0 558.875,392.75 574.5,389.375 589.5,388.5 603.125,390.125 615.0,394.5 624.625,401.375 632.0,410.25 637.0,420.75 639.875,432.125"/>
    <polyline points="641.0,443.75 640.75,455.375 639.375,466.5 637.25,476.875 634.5,486.375 631.5,494.875 628.25,502.375 625.0,508.875 621.75,514.5 615.625,523.375 612.75,526.625 607.5,531.625 602.875,534.875 599.0,536.75 594.25,537.875 590.75,537.75 589.125,537.25"/>
    <polyline points="588.5,536.875 587.125,535.75 586.625,534.625 586.75,533.75 588.125,532.25 590.125,531.125 594.875,529.625 601.625,528.5"/>
    <polyline points="603.25,528.375 612.625,527.75 624.375,527.875 632.875,528.5 642.5,529.75 649.625,531.125 662.0,534.125 671.25,537.375 681.875,541.875"/>
    <polyline points="687.625,544.75 693.875,548.125 707.75,557.125 715.5,563.0 723.875,569.875 732.875,578.25 742.5,588.25 752.875,600.125 763.75,614.0 775.0,630.375 786.125,649.125 796.375,670.125 804.625,692.75 809.5,715.5 809.25,736.375 802.375,752.625 787.75,761.375 765.75,760.25 738.0,748.875 707.375,728.375 676.625,701.5 648.0,671.125 623.125,640.25 602.5,610.5 586.125,583.375"/>
    <polyline points="573.625,559.25 564.5,538.125 558.375,520.125 554.5,504.75 552.625,491.875 552.25,481.125 553.125,472.25 555.0,465.0 557.5,459.375 560.375,455.125 563.625,452.125 566.875,450.125 570.0,449.25 572.875,449.375 575.5,450.125 577.625,451.75 579.375,453.875 580.625,456.5 581.5,459.5 581.875,462.75 581.375,469.625 579.5,476.5 576.5,483.0"/>
    <polyline points="574.875,485.875 571.0,491.25 564.875,497.75 560.625,501.125 556.5,503.75 550.5,506.75 545.0,508.75 538.5,510.375 530.125,511.5"/>
    <line x1="528.875" x2="507.0" y1="511.625" y2="512.125"/>
    <line x1="506.375" x2="489.375" y1="512.125" y2="512.25"/>
    <polyline points="488.625,512.25 478.25,511.75 471.25,510.875 464.5,509.375"/>
    <polyline points="463.375,509.0 458.75,507.375 454.25,504.75 452.25,503.0 449.625,499.625 448.875,498.25 447.875,495.125 447.625,493.125 447.875,488.75 449.25,483.25 452.25,476.375 454.5,472.375 457.5,468.0"/>
    <polyline points="461.125,463.125 465.625,457.75 471.0,452.0 485.0,439.25 493.75,432.5 503.625,425.625 514.625,418.75 526.75,412.375 539.5,406.75 552.75,402.25 566.0,399.25 578.875,398.125 590.875,399.0 601.5,402.0 610.5,407.0 617.625,413.75 623.0,421.875 626.5,431.0 628.375,440.75 628.875,450.625 628.375,460.25 627.0,469.5 624.875,478.125 622.375,486.125 619.625,493.25"/>
    <polyline points="616.625,499.5 613.625,505.125 610.625,510.0 607.625,514.125 602.0,520.5 596.875,525.0 592.375,528.0 590.375,529.0 586.625,530.375 583.625,531.0 581.0,531.125 578.875,530.875 576.0,529.875 574.875,528.75"/>
    <polyline points="574.625,528.375 574.5,527.25 575.375,525.625 578.125,523.75 583.5,521.5 592.75,518.75"/>
    <polyline points="594.25,518.375 613.0,513.125 624.125,509.0 628.75,506.75 633.375,504.0 637.75,500.5 639.75,498.5 643.375,493.5 644.875,490.375"/>
    <polyline points="646.125,486.875 646.875,482.75 647.125,478.0 646.75,472.375 645.5,465.875 643.125,458.125 639.375,449.0 634.0,438.375 626.5,425.75 616.25,411.25 602.875,394.5 585.625,375.625 564.0,355.0 537.75,333.625 507.125,313.0 473.25,295.5 437.75,283.75 403.625,280.5 373.375,287.125 349.375,303.375 332.5,327.375 322.25,356.125 317.5,386.625 316.625,416.625 318.25,444.5 321.375,469.25"/>
    <polyline points="325.125,490.625 329.125,508.875 333.25,524.0 337.375,536.5 341.375,546.5 345.5,554.625 349.75,560.75 354.0,565.5 358.5,568.75 363.25,570.75 368.125,571.75 373.25,571.875 378.375,571.25 389.125,568.125 394.625,565.75 400.0,563.125 410.5,557.25 425.0,548.0 441.375,536.75"/>
    <polyline points="445.0,534.375 459.75,524.75 470.625,519.0 479.75,515.375 485.25,514.0 488.5,513.5"/>
    <polyline points="489.25,513.375 491.625,513.125 496.125,513.25 493.5,513.625 489.625,513.625"/>
    <polyline points="489.125,513.625 478.875,513.375 470.75,512.5"/>
    <polyline points="469.75,512.375 465.5,511.75 461.0,510.625 456.25,509.0 451.625,506.75 449.375,505.125 446.5,502.0 444.875,499.25 443.875,496.0"/>
    <polyline points="443.625,494.0 443.75,489.25 444.25,486.5 445.25,483.375 448.5,476.125 451.0,471.75 458.25,461.75 463.25,455.875 469.25,449.625 476.375,442.75 484.875,435.5 494.625,428.0 505.75,420.375 518.125,413.0 531.625,406.125 545.875,400.25 560.5,395.875 575.0,393.25 588.625,392.875 601.125,395.0 611.875,399.375 620.625,406.0 627.375,414.375"/>
    <polyline points="631.875,424.125 634.5,434.625 635.625,445.5 635.375,456.25 634.0,466.625 632.0,476.25 629.5,485.125 626.5,493.125 623.5,500.25 620.375,506.375 614.125,516.375 608.25,523.5 603.0,528.375 598.5,531.5 596.375,532.625 591.125,534.375 588.375,534.75 586.0,534.625"/>
    <polyline points="585.125,534.5 582.875,533.625 581.5,532.125 581.375,530.875 582.0,529.75 583.375,528.625 586.25,527.125 591.625,525.5"/>
    <polyline points="592.875,525.25 603.875,523.25 621.25,521.25 634.875,520.25 651.25,519.75"/>
    <polyline points="654.875,519.625 666.625,519.75 675.375,520.25 689.75,521.625 695.125,522.5 706.625,525.0 719.75,529.0 727.125,531.875 735.125,535.625 743.875,540.25 753.625,546.375 764.375,554.25 776.625,564.375 790.5,577.5 806.125,594.5 823.875,616.375 843.5,644.5 864.125,679.625 884.125,722.25"/>
    <polyline points="899.375,770.375 904.0,818.75 890.75,857.0 855.375,872.875 800.5,858.625 736.25,816.25 674.625,756.75 623.875,691.75 587.0,629.875 563.625,574.625 552.0,527.25 550.375,486.875 556.875,452.875 569.875,424.75 587.625,402.5 608.25,386.375 629.5,377.0 649.625,374.625 666.75,379.0 679.75,389.375 688.5,404.125 693.25,421.625 694.625,440.5 693.625,459.25 690.875,477.125 687.125,493.5"/>
    <polyline points="682.75,508.0 678.25,520.625 673.625,531.375 669.25,540.375 664.875,547.875 660.625,554.0 656.625,558.875 652.875,562.625 649.125,565.375 645.625,567.5 642.25,568.875 638.875,569.625 635.75,570.0 629.75,569.5 627.0,568.875 619.125,565.75 612.375,561.75 605.0,556.125"/>
    <polyline points="603.375,554.875 597.125,548.75 593.375,543.875 592.25,541.5 592.0,539.5 592.75,537.375 594.25,536.0 595.75,535.25"/>
    <polyline points="596.5,535.0 599.5,534.125 606.25,533.375 617.375,533.5 629.625,535.0 638.5,536.875 648.75,539.875"/>
    <polyline points="652.625,541.25 660.875,544.625 670.125,549.125 680.5,555.125 686.125,558.875 692.125,563.125 705.25,574.0 712.375,580.75 719.875,588.5 727.625,597.375 735.625,607.5 743.625,619.0 751.5,631.625 758.75,645.5 765.0,660.125 769.375,675.125 771.25,689.375 769.875,702.0 764.5,711.5 754.875,716.75 741.125,716.625 723.875,711.0"/>
    <polyline points="704.25,700.0 683.5,684.625 662.875,666.125 643.375,646.125 625.75,625.625 610.125,605.875 596.875,587.25 585.625,570.375 576.25,555.25 568.625,542.0 557.375,520.625 550.125,505.0 544.25,490.0 540.375,477.625 539.5,476.375"/>
    <polyline points="539.25,476.375 533.625,482.0 529.375,485.125 524.5,487.75 520.25,489.25"/>
    <polyline points="519.25,489.5 515.125,490.5 511.0,491.0 505.375,490.875 500.5,489.625 497.25,487.625"/>
    <polyline points="496.75,487.0 495.625,485.25 495.0,482.125 495.5,479.25 497.75,474.75 500.75,470.75 505.25,466.5 511.0,462.25 515.5,459.625"/>
    <polyline points="518.0,458.375 525.875,455.375 528.5,454.625 533.875,453.75 539.125,453.625 541.5,453.875 545.875,455.125 547.75,456.125 550.875,458.5 552.0,460.0 553.0,461.625 554.25,465.25 554.625,469.0 554.5,471.0 553.625,474.875 552.125,478.625"/>
    <polyline points="551.125,480.375 548.875,483.75 545.0,488.125 542.125,490.625 537.625,493.75 529.875,497.5 523.875,499.5 518.0,500.875 515.125,501.25"/>
    <polyline points="513.75,501.5 504.5,502.375 495.875,502.25 488.875,501.375 483.375,499.875"/>
    <polyline points="482.25,499.5 478.375,497.625 475.125,494.75 473.875,492.875 473.0,490.75 472.5,486.625 473.5,481.5 476.5,474.875 480.0,469.75 485.0,463.75"/>
    <polyline points="488.0,460.625 495.625,453.875 505.125,446.875 510.625,443.375 522.75,437.0 529.25,434.25 536.0,432.0 542.75,430.25 549.5,429.125 556.0,428.75 562.25,429.125 568.0,430.25 573.125,432.125 577.625,434.875 581.375,438.125 584.25,442.0 586.5,446.375 588.0,451.0 588.875,455.875 589.125,460.75 588.75,465.625 588.0,470.375 586.875,474.875"/>
    <polyline points="585.375,479.25 583.75,483.25 581.75,487.0 577.625,493.625 573.125,499.0 570.875,501.25 566.5,504.875 560.125,509.0 552.5,512.125 547.5,513.5 539.375,514.5"/>
    <polyline points="538.25,514.5 532.375,514.5 522.625,513.25"/>
    <polyline points="522.25,513.125 520.375,512.625 520.0,512.125 521.25,511.5 524.5,510.875"/>
    <line x1="524.75" x2="535.375" y1="510.75" y2="508.625"/>
    <polyline points="536.0,508.5 547.25,505.25 555.25,501.875"/>
    <polyline points="556.125,501.375 560.0,499.25 564.625,495.625 568.0,491.75 570.125,488.125 571.5,483.5 572.0,479.875 571.875,475.75 571.0,471.0"/>
    <polyline points="570.125,468.25 569.125,465.375 566.125,459.125 561.625,452.0 555.5,444.125 547.375,435.625 537.25,426.875 531.375,422.75 525.0,418.625 518.375,415.0 511.25,411.625 504.0,409.0 496.625,406.875 489.25,405.75 482.125,405.375 475.375,406.0 469.0,407.625 463.25,410.25 458.25,413.625 453.875,417.875 450.25,422.75"/>
    <polyline points="447.5,428.0 445.375,433.75 444.0,439.625 443.25,445.625 443.0,451.5 443.25,457.25 443.875,462.75 444.75,468.0 446.0,472.875 447.375,477.375 450.5,485.25 454.0,491.75 457.5,497.0 460.875,501.125 464.125,504.375 468.625,508.0 472.625,510.375"/>
    <polyline points="448.5,494.5 449.375,497.75 450.75,500.5 452.625,502.625 456.75,505.875 460.125,507.5 464.75,509.125 468.125,510.0 473.75,510.875 477.875,512.625 481.125,513.625 486.625,514.75 477.75,514.5"/>
    <polyline points="477.125,514.5 464.75,513.125 458.0,511.625 452.0,509.5"/>
    <polyline points="450.875,508.875 446.125,506.0 443.125,502.75 441.5,500.0 440.375,496.5 440.125,494.375 440.375,489.5 441.0,486.5 443.625,479.5 445.625,475.375 452.0,465.625 462.0,453.5 468.625,446.625 476.625,439.25 486.125,431.375"/>
    <polyline points="497.0,423.125 509.375,415.0 523.125,407.125 537.875,400.125 553.5,394.25 569.125,390.25 584.5,388.375 598.625,389.25 611.25,392.625 621.625,398.75 629.75,407.0 635.625,417.0 639.25,428.0 640.875,439.75 641.125,451.375 640.0,462.75 638.125,473.375 635.5,483.25 632.625,492.125 629.5,499.875 626.25,506.75 623.0,512.75 616.75,522.125 611.0,528.625"/>
    <polyline points="608.375,531.0 606.0,533.0 601.625,535.625 597.875,537.125 594.875,537.875 590.25,537.625 588.75,537.125 587.625,536.375 587.0,535.625 586.75,534.375 587.25,533.125 588.125,532.375"/>
    <polyline points="588.625,532.0 592.5,530.375 601.25,528.625 612.125,527.875 621.125,527.875 629.125,528.375"/>
    <polyline points="632.0,528.625 641.5,529.75 648.625,531.0 656.5,532.875 660.75,534.0 670.0,537.125 680.375,541.375 692.125,547.5 698.75,551.375 713.375,561.75 721.5,568.375 730.375,576.375 739.875,586.0 750.0,597.25 760.75,610.75 771.875,626.375 783.0,644.5 793.375,664.875"/>
    <polyline points="802.125,687.0 807.875,709.75 809.0,731.0 803.75,748.5 791.125,759.125 770.875,760.5 744.625,751.625 714.75,733.375 684.0,708.0 654.875,678.5 629.125,647.625 607.5,617.75 590.125,590.125 576.75,565.375 566.875,543.625 559.875,525.0 555.375,509.0 553.0,495.625 552.125,484.375 552.625,475.125 554.125,467.625 556.375,461.5 559.0,456.875 562.125,453.5 565.25,451.375 568.25,450.125"/>
    <polyline points="571.125,449.875 573.75,450.375 576.0,451.75 577.875,453.625 579.25,456.0 580.25,458.75 580.75,461.875 580.5,468.5 578.875,475.25 577.625,478.5 574.5,484.625 572.75,487.5 568.875,492.5 564.75,496.625 560.625,500.125 556.5,502.875 550.5,506.0"/>
    <polyline points="548.625,506.75 541.5,509.125 533.875,510.625 525.0,511.5 516.0,511.75"/>
    <line x1="515.125" x2="496.625" y1="511.75" y2="512.0"/>
    <polyline points="495.875,512.0 483.25,511.875 474.625,511.0"/>
  </g>
</svg>
