<?xml version="1.0" encoding="utf-8" ?>
<svg xmlns="http://www.w3.org/2000/svg" xmlns:cc="http://creativecommons.org/ns" xmlns:dc="http://purl.org/dc/elements/1.1/" xmlns:ev="http://www.w3.org/2001/xml-events" xmlns:inkscape="http://www.inkscape.org/namespaces/inkscape" xmlns:rdf="http://www.w3.org/1999/02/22-rdf-syntax-ns" xmlns:sodipodi="http://sodipodi.sourceforge.net/DTD/sodipodi-0.dtd" xmlns:xlink="http://www.w3.org/1999/xlink" baseProfile="tiny" height="27.09333333cm" version="1.2" viewBox="0 0 1024.0 1024.0" width="27.09333333cm">
  <metadata>
    <rdf:RDF>
      <cc:Work>
        <dc:format>image/svg+xml</dc:format>
        <dc:source>vpype read './original_svgs/Strange Attractors #523.svg' linemerge linesimplify write './Strange Attractors #523.svg'
</dc:source>
        <dc:date>2024-08-05T01:36:07.418469</dc:date>
      </cc:Work>
    </rdf:RDF>
  </metadata>
  <defs/>
  <g fill="none" id="layer1" inkscape:groupmode="layer" inkscape:label="1" stroke="black" stroke-width="0.7mm" style="display:inline">
    <polyline points="626.75,533.25 633.125,530.5 661.0,520.25 670.875,515.75 681.875,509.625 694.0,501.25 700.625,495.75 707.5,489.375 714.875,481.625 722.75,472.5 730.875,461.375 739.375,448.125 748.125,432.25 756.875,413.25 765.375,390.75 772.875,364.5"/>
    <polyline points="778.375,334.625 780.875,301.75 778.625,267.625 769.75,235.375 753.125,209.125 728.5,193.5 697.375,191.625 662.375,204.375 627.125,229.375 594.625,262.625 566.75,299.5 544.25,336.375 526.75,370.625 513.75,401.25 504.5,427.625 498.375,449.875 494.75,468.5 493.0,483.875 492.875,496.25 493.875,506.375 495.875,514.375 498.625,520.75 501.75,525.5 505.25,529.0 509.0,531.5 512.625,533.0"/>
    <polyline points="516.25,533.625 519.625,533.625 522.875,533.125 525.625,532.125 528.125,530.75 530.25,529.0 533.375,525.25 535.125,521.125 535.5,519.125 535.5,515.5 534.625,512.25 533.125,509.625 531.25,507.625 529.125,506.125 525.5,504.75 523.0,504.375"/>
    <polyline points="521.75,504.25 515.5,504.375 501.375,506.75 492.375,507.875"/>
    <polyline points="491.125,508.0 484.0,508.5 475.0,508.5 456.75,507.125"/>
    <polyline points="455.0,507.0 439.75,505.0 421.125,501.625 407.5,498.5 395.5,495.0"/>
    <polyline points="392.25,494.0 385.75,491.75 375.5,487.625 365.0,482.375 358.25,478.25 352.125,473.625 346.875,468.625 344.875,466.0 343.5,463.375 342.75,460.875 342.75,458.5 343.875,456.5 346.0,454.875 349.375,453.875 353.875,453.625 359.75,454.125 366.875,455.75 375.0,458.25"/>
    <polyline points="384.125,461.75 393.75,466.125 403.75,471.375 413.875,477.125 433.5,489.75 442.5,496.125 458.625,508.25 486.875,530.625 497.5,537.875 502.875,540.75 507.25,542.375 511.0,543.0 515.75,542.75"/>
    <polyline points="517.125,542.375 522.375,540.375 537.75,532.375 547.875,528.5"/>
    <polyline points="549.25,528.125 559.375,525.5 595.125,518.625"/>
    <polyline points="597.75,518.125 615.0,513.5 621.625,511.25 632.375,506.75 640.375,502.875 644.5,500.5 653.5,494.875 658.25,491.5 668.25,483.25 673.625,478.25 679.125,472.5 684.875,465.875 690.75,458.25 696.625,449.625 702.625,439.75"/>
    <polyline points="708.625,428.5 714.375,415.75 719.75,401.375 724.375,385.5 728.0,368.125 730.0,349.75 730.0,330.875 727.25,312.375 721.375,295.625 712.0,282.0 699.125,272.875 683.125,269.375 664.75,272.125 645.125,280.875 625.375,294.75 606.375,312.375 589.0,332.25 573.625,352.875 560.25,373.375 549.0,392.625 539.5,410.5 531.75,426.5 520.125,453.0 512.375,472.625"/>
    <polyline points="509.375,480.375 501.5,500.875 498.875,506.625 495.5,512.0 494.375,513.25 492.25,514.875 488.0,516.75 483.125,517.375 476.625,517.5"/>
    <polyline points="475.125,517.5 457.875,517.875 447.625,518.625 438.875,519.875 434.0,521.125"/>
    <polyline points="432.5,521.625 428.25,523.375 426.0,525.0 424.375,527.0 423.875,528.25 423.75,530.875 424.875,534.25 426.125,536.125 430.125,540.375 432.875,542.75 440.625,547.75 445.625,550.25 457.75,555.125 465.0,557.375 472.75,559.25 481.0,560.625 489.625,561.5"/>
    <polyline points="498.5,561.625 507.25,561.125 515.75,559.75 523.75,557.625 531.125,554.75 537.75,551.25 543.5,547.25 548.25,542.875 552.25,538.25 555.375,533.5 557.75,528.75 559.375,524.125 560.5,519.75 561.125,515.75 561.25,512.0 561.125,508.625 560.625,505.625 559.25,500.75 557.375,497.125 555.25,494.75 554.25,493.875 552.125,492.875"/>
    <polyline points="551.125,492.5 548.5,492.375 547.0,492.75 545.0,493.75 543.5,495.0 541.875,497.75 541.625,499.5 542.0,501.0"/>
    <polyline points="542.25,501.375 543.0,502.375 544.5,503.5 548.5,505.0 555.0,506.0 558.125,506.125"/>
    <polyline points="559.25,506.125 571.0,505.625 583.0,503.875 593.375,501.5 603.0,498.5"/>
    <polyline points="605.625,497.5 614.0,494.0 620.0,491.0 629.75,485.25 636.875,480.25 640.5,477.375 648.125,470.5 652.125,466.5 660.25,457.25 664.375,451.875 672.5,439.25 676.375,432.125 680.125,424.25 683.625,415.625 686.75,406.5 689.25,396.875 691.0,386.75"/>
    <polyline points="692.0,376.375 691.875,366.0 690.5,356.125 687.75,347.0 683.375,339.125 677.625,333.0 670.25,328.875 661.5,327.25 651.75,328.25 641.125,331.875 630.25,337.75 619.125,345.625 608.375,355.125 598.125,365.75 588.625,377.0 579.75,388.375 564.625,410.625 558.25,420.875 547.5,439.25 529.125,471.75"/>
    <polyline points="526.5,476.25 519.5,486.875 517.375,489.625 511.625,496.0 506.5,500.375 501.625,503.375 495.25,505.875 488.875,507.5 482.375,508.375"/>
    <polyline points="480.75,508.625 474.0,509.0 457.125,508.75 446.375,508.0 429.375,506.25"/>
    <polyline points="426.75,505.875 418.25,504.75 399.125,501.5 380.625,497.375 372.25,495.125 358.875,490.875 344.0,485.0 328.125,476.75"/>
    <polyline points="322.625,473.25 317.125,469.5 311.75,465.25 306.75,460.5 302.0,455.375 298.125,449.75 295.375,444.0 294.125,438.25 295.0,432.75 298.5,428.125 305.125,424.75 315.375,423.625 329.25,425.0 346.25,429.5 365.625,437.0 386.375,447.5 407.375,460.0 427.375,474.0 445.875,488.625 462.125,502.875 476.0,516.5 487.75,528.875 497.25,540.0 505.0,549.625 516.0,564.875"/>
    <polyline points="519.625,570.625 522.5,575.375 528.625,586.75 528.5,579.625 528.875,574.75 530.25,568.125 531.875,563.375"/>
    <polyline points="532.625,561.875 534.0,559.0 536.5,555.125 539.375,551.625 543.75,547.625 547.375,545.125 552.5,542.375 561.375,539.125"/>
    <polyline points="563.0,538.625 571.5,536.625 579.125,535.25 619.625,529.75"/>
    <polyline points="622.875,529.25 637.0,526.375 649.0,523.125 658.0,520.0 672.875,513.125 678.375,510.125 690.25,502.25 696.625,497.25 703.375,491.25 710.5,484.125 718.125,475.625 726.0,465.375 734.25,453.25 742.875,438.625 751.5,421.125 760.0,400.375 767.75,376.125"/>
    <polyline points="774.125,348.25 778.0,317.125 777.875,284.0 772.125,251.375 759.25,222.75 738.625,202.5 710.75,194.375 677.875,200.375 643.25,219.625 609.875,248.875 580.375,283.625 555.625,320.0 536.0,355.0 521.0,386.75 510.0,414.75 502.375,438.625 497.375,458.75 494.625,475.375 493.5,489.0 493.625,500.125 494.875,509.125 496.875,516.25 499.5,521.75 502.5,526.0 505.75,529.0 509.125,531.0"/>
    <polyline points="512.5,532.25 515.75,532.75 518.75,532.75 521.625,532.125 524.125,531.125 528.125,528.25 529.625,526.5 530.875,524.625 532.25,521.0 532.5,519.125 532.375,515.75 532.0,514.25 530.75,511.625 529.0,509.5 526.875,507.875 524.625,506.75 520.875,505.75 518.25,509.5 518.25,510.5 518.625,511.0 520.25,511.625 522.625,512.0 528.75,512.25"/>
    <polyline points="519.625,505.5 513.125,505.375 497.875,507.25 487.75,508.125"/>
    <polyline points="486.375,508.25 481.0,508.5 467.875,508.25 456.0,507.375 446.375,506.25"/>
    <polyline points="444.375,506.0 426.0,503.25 409.75,499.875 400.625,497.625 387.375,493.625 373.0,488.25"/>
    <polyline points="369.25,486.625 361.625,482.875 354.125,478.5 347.0,473.5 343.625,470.75 340.75,467.75 338.125,464.75 336.125,461.75 334.875,458.75 334.5,455.875 335.25,453.25 337.125,451.0 340.5,449.5 345.375,448.75 351.75,449.125 359.75,450.5 369.0,453.25 379.375,457.125 390.625,462.25 402.125,468.375 413.875,475.125 425.25,482.5 436.125,490.0"/>
    <polyline points="446.125,497.5 463.875,511.5 497.25,539.75 503.75,544.375 506.5,546.0 508.875,547.25 513.0,548.75 518.125,549.125 522.25,548.125 528.5,544.875"/>
    <polyline points="529.75,544.125 536.875,539.75 545.75,535.375 549.75,533.75 555.625,531.875 563.625,529.875"/>
    <polyline points="565.25,529.5 594.25,524.25 607.75,521.5 620.25,518.25 627.125,516.0"/>
    <polyline points="630.875,514.75 638.625,511.75 647.0,507.75 656.125,502.75 661.0,499.625 666.125,496.125 677.0,487.375 682.875,481.875 688.875,475.625 695.25,468.375 701.75,459.875 708.5,450.0 715.25,438.625 722.0,425.5 728.5,410.375 734.625,393.125 739.75,373.875 743.375,352.75 745.0,330.375 743.625,307.5 738.5,285.875 729.125,267.25"/>
    <polyline points="715.0,253.625 696.625,247.125 675.0,248.75 651.375,258.25 627.5,274.75 604.875,296.125 584.375,320.25 566.625,345.25 551.75,369.625 539.5,392.375 529.625,412.875 521.75,431.0 515.625,446.75 510.875,460.25 507.25,471.625 502.375,489.125 500.875,495.75 498.25,509.375 497.125,519.0"/>
    <polyline points="496.875,519.875 496.5,520.875 495.625,521.25 486.625,518.875 476.625,517.75"/>
    <polyline points="475.125,517.75 462.75,517.5 452.5,517.875 441.75,519.0 433.125,520.625"/>
    <polyline points="431.5,521.125 427.0,522.875 423.625,525.375 422.125,527.625 421.625,530.25 422.5,533.625 423.625,535.5 425.125,537.625 430.0,542.25 437.625,547.5 448.375,552.875 454.875,555.5 462.25,557.875 470.25,560.0 478.875,561.75 488.0,562.75"/>
    <polyline points="497.25,563.125 506.5,562.75 515.5,561.5 524.125,559.5 532.0,556.5 539.125,552.875 545.25,548.75 550.5,544.125 554.75,539.125 558.125,534.125 560.625,529.125 562.5,524.25 563.625,519.5 564.25,515.25 564.375,511.25 563.875,504.5 561.5,497.25 559.5,494.125 557.375,492.125 555.375,491.0"/>
    <polyline points="554.5,490.75 552.625,490.5 551.125,490.75 549.75,491.375 547.5,493.375 546.5,495.25 546.375,496.25 546.75,498.375 547.5,499.5"/>
    <polyline points="547.875,499.875 549.125,500.875 551.875,502.125 556.625,503.25 560.5,503.625 569.0,503.5"/>
    <polyline points="570.5,503.5 576.625,502.875 583.625,501.75 589.5,500.5 598.375,498.0 608.5,494.25 614.125,491.75 626.25,485.0"/>
    <polyline points="629.625,482.75 636.5,477.75 640.125,474.75 643.75,471.625 651.375,464.0 659.125,454.75 663.125,449.375 667.0,443.5 674.5,430.0 678.0,422.375 681.125,414.125 683.875,405.375 686.125,396.25 687.625,386.625 688.25,377.0 688.0,367.5 686.375,358.375 683.5,350.125 679.375,343.0 673.625,337.625 666.625,334.125 658.5,332.875"/>
    <polyline points="649.25,334.0 639.375,337.375 629.25,342.875 618.875,350.25 608.875,359.125 599.25,368.875 590.125,379.375 581.75,390.0 574.125,400.5 567.25,410.75 561.0,420.5 550.5,438.0 532.375,469.75 527.125,478.25 522.625,484.875 514.875,494.25"/>
    <polyline points="513.125,495.875 508.125,500.0 505.0,502.0 497.375,505.375 492.875,506.625 486.875,507.75 479.0,508.5 474.125,508.625"/>
    <polyline points="472.5,508.625 460.0,508.375 445.75,507.25 434.0,505.875 418.0,503.5"/>
    <polyline points="415.125,503.0 399.375,499.875 377.125,494.0 364.625,489.625 351.125,483.75 341.625,478.875 332.25,472.75 327.625,469.25 319.375,461.5 316.0,457.125"/>
    <polyline points="313.25,452.625 311.75,448.125 311.625,443.875 313.25,440.0 317.0,436.875 323.125,435.0 331.875,434.75 343.125,436.375 356.625,440.125 371.875,446.125 388.25,454.125 404.875,463.625 421.125,474.25 436.5,485.375 450.5,496.625 463.0,507.375 473.875,517.5 483.25,526.75 497.75,542.0 511.625,557.5 519.625,565.75"/>
    <polyline points="521.375,567.25 524.25,568.875 525.5,569.125 527.375,568.875 529.125,567.75 538.125,556.625 541.0,553.625 545.375,550.0"/>
    <polyline points="546.625,549.125 552.875,545.5 561.5,542.125 567.875,540.375 575.0,539.0 587.125,537.375"/>
    <polyline points="589.25,537.125 621.0,534.25 638.0,532.125 649.625,530.0 658.25,528.0 667.5,525.25 672.5,523.375"/>
    <polyline points="677.75,521.375 689.0,516.0 701.5,508.25 708.25,503.125 715.5,497.0 723.25,489.625 731.5,480.625 740.25,469.625 749.375,456.125 759.0,439.75 768.875,419.75 778.625,395.5 787.625,366.625 794.75,332.875 798.5,294.75 796.875,254.375 787.25,215.375 767.875,183.625 738.25,165.125 700.375,164.625 658.5,182.625 617.375,215.5 580.875,257.0 550.75,301.125"/>
    <polyline points="527.625,343.5 510.75,381.875 499.25,415.0 492.0,442.875 488.25,466.0 487.375,484.875 488.625,500.125 491.75,512.375 496.125,522.0 501.375,529.375 507.5,534.625 513.875,538.25 520.375,540.375 526.625,541.125 532.625,540.75 538.125,539.375 542.875,537.25 547.125,534.5 550.5,531.25 553.25,527.75 555.375,524.125 556.875,520.5 558.25,513.75 558.25,507.75"/>
    <polyline points="557.75,505.125 557.125,502.875 555.375,499.25 554.375,497.875 552.125,495.75 548.875,494.0 545.75,493.625 543.0,494.125 540.625,495.125 538.625,496.375 536.75,498.25"/>
    <polyline points="536.375,498.75 534.75,501.25 534.5,503.75 535.125,505.25 537.25,506.75"/>
    <polyline points="537.625,507.0 541.0,508.0 546.5,508.875 556.125,509.0"/>
    <polyline points="557.25,509.0 567.75,508.375 577.625,507.125 589.5,504.75 601.375,501.375"/>
    <polyline points="604.0,500.5 609.375,498.5 618.375,494.5 624.75,491.125 635.25,484.5 642.875,478.75 650.75,471.625 655.0,467.5 663.5,457.75 672.125,445.625 676.375,438.625 680.5,430.875 684.5,422.375 688.125,413.25 691.25,403.375 693.875,392.75"/>
    <polyline points="695.75,381.875 696.5,370.625 696.125,359.5 694.25,348.875 690.875,339.125 685.625,331.125 678.75,325.0 670.25,321.5 660.375,320.75 649.375,322.875 637.75,327.875 625.75,335.375 614.0,344.875 602.625,355.875 592.0,367.875 582.25,380.125 573.375,392.5 565.375,404.375 558.375,415.75 546.625,435.875 527.125,471.5"/>
    <polyline points="524.375,476.375 517.125,487.75 513.0,493.125 507.375,498.875 503.875,501.625 498.75,504.5 493.875,506.5 487.25,508.125 478.625,509.25"/>
    <polyline points="476.875,509.375 471.5,509.625 453.625,509.375 437.5,508.25 421.375,506.625"/>
    <polyline points="418.5,506.25 395.75,503.125 376.5,499.625 358.625,495.5 348.75,492.75 332.5,487.125 320.5,482.0 307.625,475.25"/>
    <polyline points="301.0,471.125 294.125,466.25 287.25,460.875 280.625,454.625 274.5,447.5 269.25,439.75 265.5,431.375 264.25,422.875 266.375,414.875 273.0,408.25 285.125,404.5 303.25,404.625 326.875,409.75 354.5,420.25 384.125,435.625 413.375,454.5 440.375,475.375 464.0,496.5 483.5,516.75 499.0,535.5 511.0,552.125 519.875,566.625 526.125,579.125 530.25,589.5 532.5,598.25 533.5,605.25"/>
    <polyline points="533.5,610.875 532.5,615.125 531.0,618.25 528.875,620.25 526.625,621.25 524.125,621.5 521.5,620.75 518.875,619.5 516.375,617.5 511.75,612.125 509.75,608.875 508.0,605.375 505.125,597.75 503.25,589.875 502.625,586.0 502.125,582.125 501.75,574.75 502.25,564.75 503.125,559.0"/>
    <polyline points="503.625,556.25 506.25,547.125 508.5,541.75 510.875,537.5 515.0,531.875 519.125,527.875 523.25,525.0"/>
    <polyline points="524.0,524.5 528.125,522.375 532.5,520.75 539.875,518.75 547.25,517.5"/>
    <polyline points="548.375,517.25 572.625,513.875 588.75,510.75"/>
    <polyline points="591.0,510.25 603.625,506.875 612.25,503.875 618.5,501.25 625.25,498.125 632.375,494.25 644.125,486.625 652.625,479.75 661.75,471.25 666.5,466.125 671.25,460.375 676.125,454.0 681.125,446.75"/>
    <polyline points="686.0,438.625 690.75,429.625 695.375,419.625 699.5,408.625 703.25,396.75 706.125,383.875 708.125,370.5 708.625,356.75 707.625,343.125 704.625,330.375 699.375,319.125 691.875,310.25 682.125,304.5 670.5,302.375 657.25,304.125 643.125,309.75 628.5,318.75 614.25,330.5 600.625,344.125 588.0,358.875 576.625,374.0 566.5,388.875 557.625,403.125 550.0,416.375 537.625,439.5"/>
    <polyline points="532.625,449.375 521.25,472.25 515.625,482.875 508.875,494.0 505.0,499.125 499.625,504.25 494.625,507.375 491.25,508.875 488.0,509.875 479.375,511.375"/>
    <polyline points="477.625,511.5 472.125,512.0 462.5,512.25 422.75,511.5"/>
    <polyline points="420.0,511.5 405.625,511.375 387.25,512.375 378.25,513.875 372.625,515.5 370.0,516.625 367.625,517.875 363.75,521.5 362.5,524.0 362.0,526.875 362.25,530.375 363.5,534.5 366.25,539.5"/>
    <polyline points="370.625,545.375 377.125,552.25 386.25,560.25 398.5,569.125 414.375,578.75 434.125,588.5 457.875,597.75 484.875,605.375 514.0,609.875 543.375,610.375 571.0,606.125 595.25,596.875 615.0,583.625 629.75,567.5 640.125,549.875 646.75,532.0 650.75,514.5 652.625,498.25 653.25,483.375 653.0,470.125 652.125,458.375 650.875,448.125 649.375,439.25 647.625,431.625 645.75,425.125 643.625,419.625"/>
    <polyline points="641.25,415.125 638.75,411.5 636.125,408.75 633.25,406.75 630.25,405.5 627.0,405.0 623.75,405.0 616.875,406.875 613.5,408.5 610.0,410.625 603.25,415.75 593.625,425.0 582.75,438.25 574.25,450.625 570.875,456.125"/>
    <polyline points="569.375,458.625 563.375,469.5 559.75,477.625 558.875,480.25 558.25,482.625 557.875,487.375 558.25,489.5 559.25,491.375"/>
    <polyline points="559.625,491.875 561.125,493.25 563.125,494.375 566.5,495.375 571.75,496.0 579.875,495.625 586.5,494.625"/>
    <polyline points="588.25,494.25 598.25,491.5 610.0,486.75 618.0,482.5 626.625,476.875 636.0,469.25 642.5,463.0 649.25,455.375 656.0,446.375"/>
    <polyline points="659.25,441.25 665.5,429.75 670.875,416.625 673.0,409.5 674.75,402.0 676.0,394.5 676.5,386.875 676.25,379.375 675.125,372.375 673.125,365.75 670.125,360.125 666.0,355.5 661.0,352.25 655.0,350.5 648.125,350.375 640.75,352.0 632.875,355.125 624.75,359.75 616.625,365.75 608.5,372.625 600.75,380.25 593.375,388.5 580.0,405.25"/>
    <polyline points="574.125,413.5 559.25,436.125 542.25,464.375 531.0,481.875 525.75,488.75 522.625,492.25 518.375,496.375 513.25,500.375"/>
    <polyline points="512.0,501.125 505.25,504.625 500.875,506.125 492.25,507.875 484.5,508.5"/>
    <polyline points="483.375,508.5 474.75,508.5 467.875,508.125 460.375,507.5 446.375,505.75"/>
    <polyline points="444.5,505.5 424.875,502.125 412.125,499.25 394.625,494.25 378.5,488.125"/>
    <polyline points="375.125,486.5 368.5,483.25 362.0,479.375 356.0,475.0 351.0,470.375 347.5,465.5 346.625,463.125 346.5,461.0 347.125,459.0 348.75,457.375 351.5,456.375 355.375,455.875 360.375,456.125 366.5,457.125 373.625,459.125 381.625,461.875 399.625,470.0 409.125,475.125 427.625,486.5"/>
    <polyline points="436.5,492.375 459.5,509.25 481.625,526.25 489.5,531.875 495.875,535.875 503.25,539.25 509.0,540.375 513.625,540.0 517.75,538.875 520.25,537.75"/>
    <polyline points="521.5,537.25 532.875,531.375 538.625,528.875 543.5,527.125 551.25,525.0"/>
    <polyline points="552.625,524.625 563.25,522.375 588.5,517.75 601.0,514.875"/>
    <polyline points="603.75,514.125 615.75,510.5 622.375,508.0 637.25,501.125 645.5,496.25 654.5,490.125 664.125,482.25 669.25,477.5 680.0,465.75 685.5,458.75 691.25,450.625 696.875,441.5 702.625,431.125 708.125,419.5 713.25,406.375"/>
    <polyline points="717.75,391.875 721.375,376.125 723.75,359.25 724.375,341.875 722.75,324.625 718.375,308.625 711.0,294.875 700.5,284.625 686.875,279.125 670.875,279.0 653.25,284.375 635.0,294.75 616.875,309.125 599.875,326.375 584.375,345.125 570.625,364.25 558.75,382.875 548.625,400.375 540.125,416.5 527.0,443.625 509.0,486.0"/>
    <polyline points="506.75,491.125 503.0,499.0 498.5,506.625 495.75,509.875 493.125,512.0 489.25,514.0 485.125,515.125 476.5,516.0 470.125,516.25"/>
    <polyline points="468.5,516.25 454.375,516.625 441.0,517.5 433.125,518.5 427.5,519.625 422.25,521.25"/>
    <polyline points="420.75,522.0 417.875,523.625 416.75,524.75 415.125,527.125 414.625,528.625 414.875,532.0 416.875,536.25 421.25,541.5 428.875,547.5 434.0,550.75 447.25,557.375 455.5,560.5 464.625,563.375 474.625,565.75 485.375,567.5 496.375,568.375 507.625,568.375 518.5,567.125 528.875,564.875"/>
    <polyline points="538.5,561.5 547.0,557.125 554.25,552.0 560.375,546.25 565.25,540.25 569.0,534.0 571.75,527.875 573.625,522.0 574.75,516.5 575.375,511.375 575.375,506.625 574.625,498.875 573.0,493.0 570.0,487.375 567.125,484.5 565.375,483.75 563.375,483.875"/>
    <polyline points="562.75,484.0 561.5,485.125 561.0,486.0 560.75,487.875 561.25,489.375 562.75,491.125 564.375,492.125 566.5,493.0 569.125,493.625"/>
    <polyline points="570.125,493.75 574.625,494.125 578.5,494.0 586.25,493.0 589.75,492.25 601.875,488.5 606.5,486.625 613.875,482.875"/>
    <polyline points="616.5,481.375 622.0,478.0 630.875,471.5 637.0,466.0 643.375,459.5 649.875,451.75 656.125,442.5 659.25,437.375 664.875,425.875 669.625,412.875 671.375,406.0 672.75,399.0 673.5,391.875 673.5,384.75 672.75,378.0 671.25,371.625 668.75,366.0"/>
    <polyline points="665.375,361.25 661.0,357.625 655.875,355.375 649.75,354.625 643.125,355.25 636.0,357.375 628.5,361.0 620.75,365.875 613.125,371.875 605.625,378.625 598.5,386.0 591.625,393.75 579.25,409.5 573.75,417.125 564.125,431.625 537.0,475.625"/>
    <polyline points="535.0,478.625 526.625,489.875 519.875,496.75 516.375,499.625 511.125,503.0 508.125,504.5 504.375,505.875"/>
    <polyline points="503.375,506.25 499.75,507.25 493.25,508.375 485.5,508.875 479.0,508.875 487.375,507.875 492.25,506.875 498.625,504.625 503.625,502.0 508.75,498.25 512.375,494.75 518.375,487.375 522.875,480.625"/>
    <polyline points="478.0,508.75 461.125,507.5 440.5,504.625"/>
    <polyline points="438.5,504.25 420.75,500.75 410.5,498.25 402.25,495.875 393.375,493.0 381.125,488.125 371.875,483.5"/>
    <polyline points="368.875,481.75 360.5,476.0 356.0,471.75 354.25,469.625 353.0,467.5 352.25,465.375 352.125,463.5 352.875,461.875 354.375,460.5 356.75,459.5 360.125,459.125 364.5,459.375 369.875,460.25 376.125,461.875 383.125,464.25 390.875,467.375 399.0,471.125 415.875,480.25 432.375,490.5 447.375,500.875"/>
    <polyline points="454.125,505.75 483.75,527.25 490.25,531.25 495.625,533.875 498.0,534.875 502.125,536.0 504.0,536.375 507.25,536.5 511.625,535.875 518.875,533.125"/>
    <polyline points="520.0,532.625 532.5,526.625 536.75,525.0 547.125,522.125"/>
    <polyline points="548.375,521.875 564.0,518.875 576.375,516.875 591.375,513.875"/>
    <polyline points="593.875,513.25 607.125,509.625 616.25,506.5 622.875,503.75 630.0,500.375 637.625,496.25 641.75,493.75 650.25,487.75 659.5,480.25 669.25,470.625 679.625,458.25 684.875,450.875 690.25,442.5"/>
    <polyline points="695.5,433.0 700.625,422.5 705.375,410.75 709.75,397.75 713.25,383.75 715.75,368.75 716.75,353.25 716.0,337.75 713.0,323.0 707.375,309.875 699.125,299.375 688.25,292.625 675.0,290.125 659.875,292.25 643.75,299.0 627.375,309.75 611.375,323.625 596.25,339.5 582.625,356.375 570.5,373.5 559.875,390.125 550.75,405.625 542.875,420.0 525.875,454.625"/>
    <polyline points="521.875,463.5 510.125,488.25 504.125,498.875 500.625,503.5 497.375,506.75 494.375,509.0 491.25,510.625 486.625,512.25 478.625,513.625 475.25,514.0 472.5,514.0 470.0,513.625 465.75,512.375 460.0,510.125 448.125,504.25 440.75,500.25"/>
    <polyline points="473.5,514.0 437.5,514.75 421.25,515.875"/>
    <polyline points="418.875,516.125 411.875,517.25 405.375,519.0 401.5,520.75 398.375,523.125 397.125,524.625 396.25,526.375 395.875,528.25 395.875,530.5 396.5,533.125 397.75,536.125 400.0,539.375 403.125,543.125 407.5,547.375 413.25,552.0 420.5,556.875 429.5,562.125 440.25,567.375 452.75,572.375 467.0,576.875"/>
    <polyline points="482.625,580.375 499.125,582.625 515.875,583.125 532.375,581.625 547.75,578.0 561.5,572.375 573.25,565.0 582.75,556.5 590.25,547.125 595.625,537.375 599.5,527.75 602.0,518.5 603.375,509.75 603.875,501.875 603.875,494.875 603.375,488.625 601.75,478.5 600.75,474.625 598.625,468.625 596.5,464.625 593.875,461.5"/>
    <polyline points="593.0,461.0 591.75,460.5 590.25,460.875 589.5,461.875 589.25,462.75 589.625,464.375 590.125,465.125 591.875,466.25 595.25,466.75"/>
    <polyline points="596.125,466.625 598.875,466.25 603.125,464.875 606.75,463.125 610.625,460.75 617.75,455.25 623.5,449.25 627.625,443.75"/>
    <polyline points="628.875,441.75 632.375,435.375 634.875,428.5 636.0,423.875 636.375,419.5 636.25,417.375 636.0,415.375 634.75,412.0 632.625,409.25 631.25,408.375 629.75,407.75 626.0,407.25 621.75,408.125 616.875,410.125 614.375,411.5"/>
    <polyline points="611.875,413.25 606.75,417.25 601.625,422.0 594.5,429.75 590.25,435.125 584.5,443.125 578.5,452.75 575.0,459.125 572.375,464.625 570.625,469.25"/>
    <polyline points="570.125,470.75 569.25,474.5 569.0,477.625 569.375,480.125 570.625,482.875 573.625,485.25 576.125,486.125 580.25,486.625"/>
    <polyline points="581.375,486.625 586.625,486.375 592.75,485.125 600.0,482.875 608.25,479.375 619.875,472.375 630.25,464.0"/>
    <polyline points="632.875,461.375 635.625,458.625 641.0,452.375 646.375,445.125 651.5,436.75 656.125,427.25 659.75,416.875 661.25,411.5 662.25,406.0 662.875,400.375 662.875,395.0 662.5,389.75 661.375,384.875 659.75,380.5 657.375,376.625 654.25,373.625 650.625,371.375 646.25,370.25 641.5,370.0 636.125,370.875 630.625,372.75"/>
    <polyline points="624.75,375.625 618.75,379.375 612.75,384.0 606.875,389.125 595.5,400.625 585.375,412.875 580.625,419.0 568.625,436.375 562.0,446.625 545.875,472.875 538.375,484.25"/>
    <polyline points="537.25,486.0 528.25,497.75 521.375,505.375"/>
    <line x1="529.125" x2="545.5" y1="512.25" y2="512.25"/>
    <polyline points="546.375,512.25 567.0,510.75 580.75,508.625"/>
    <polyline points="582.75,508.25 591.25,506.375 603.625,502.875 615.0,498.375 624.75,493.75 635.375,487.25 643.0,481.75 651.25,474.75 659.875,466.125"/>
    <polyline points="664.25,461.0 668.75,455.25 677.875,441.75 682.25,434.0 686.5,425.25 690.5,415.875 694.125,405.625 697.125,394.625 699.375,383.0 700.625,371.0 700.625,358.875 699.0,347.25 695.875,336.5 690.75,327.25 683.75,320.125 674.875,315.625 664.375,314.375 652.75,316.25 640.25,321.25 627.375,329.125 614.75,339.25 602.625,351.125 591.25,364.0 580.875,377.25 571.5,390.375"/>
    <polyline points="563.125,403.125 549.375,426.375 538.75,445.75 524.125,473.375 516.375,486.5 512.0,492.625 508.125,497.125 504.5,500.625 501.0,503.25 497.625,505.125 490.875,507.75"/>
    <polyline points="489.125,508.25 482.25,509.5 469.5,510.375 453.25,510.25 439.375,509.5"/>
    <polyline points="436.875,509.375 411.625,507.25 387.875,504.75 372.125,502.875 349.75,499.625"/>
    <polyline points="344.875,498.75 334.625,497.0 317.75,493.375 305.25,490.125 291.5,485.75 284.125,483.0 268.0,475.75 259.125,471.0 249.875,465.125 240.0,458.0 229.875,449.375 219.625,438.875 209.875,426.125 202.0,411.5 197.875,395.125 200.5,378.75 213.375,365.125 239.875,358.375 280.375,362.875 331.625,380.875"/>
    <polyline points="386.625,411.0 437.875,448.625 480.5,488.875 512.625,527.875 534.875,563.375 548.625,595.0 555.25,622.5 556.125,646.125 552.375,666.25 545.0,682.75 534.75,695.625 522.5,704.5 509.125,709.375 495.25,709.875 481.875,706.25 469.5,699.0 458.5,688.5 449.125,675.625 441.5,661.25 435.625,646.125 431.25,631.0 428.125,616.375 426.125,602.5 425.0,589.625 424.5,578.125 424.625,567.75"/>
    <polyline points="425.125,558.625 425.875,550.75 428.0,537.875 430.625,528.5 433.375,521.75 436.25,517.0 437.625,515.25 440.375,512.625 443.0,511.0 446.5,509.5 452.125,508.5 453.625,508.5"/>
    <polyline points="454.25,508.5 457.125,508.375 457.75,508.125 457.75,507.875 453.75,506.125 426.25,499.125"/>
    <line x1="453.875" x2="429.625" y1="506.25" y2="499.875"/>
    <polyline points="428.25,499.375 413.5,494.625 406.0,491.5 400.5,488.75 397.125,486.625 394.625,484.625"/>
    <polyline points="394.125,484.0 393.5,482.875 393.625,482.0 394.0,481.625 395.375,481.375 399.25,481.75 405.0,483.375 409.875,485.125 418.0,488.625 438.125,498.875"/>
    <polyline points="475.625,513.875 477.0,513.25 477.0,512.375 475.75,511.375 472.25,510.125"/>
    <polyline points="471.75,509.875 464.25,508.125 446.875,504.875"/>
    <polyline points="445.5,504.5 430.625,501.375 416.875,497.75 406.0,494.25 397.0,490.75"/>
    <polyline points="394.75,489.75 386.0,485.375 378.75,480.375 376.125,477.875 374.5,475.5 374.25,474.375 374.875,472.625 375.75,472.0 379.125,471.375 384.375,472.0 391.625,473.875 400.375,477.125 405.125,479.25"/>
    <polyline points="410.125,481.625 420.5,487.0 430.75,492.75 460.625,511.125 472.5,517.75 481.25,521.625 484.75,522.625 490.375,523.375"/>
    <polyline points="491.5,523.375 494.625,523.125 498.125,522.25 502.5,520.25 507.125,517.375"/>
    <polyline points="507.375,517.125 513.25,513.5 516.5,512.75"/>
    <line x1="516.75" x2="522.0" y1="512.75" y2="512.625"/>
    <line x1="522.375" x2="532.5" y1="512.625" y2="512.625"/>
    <line x1="533.0" x2="553.625" y1="512.625" y2="512.0"/>
    <polyline points="554.875,511.875 565.375,511.0 578.875,509.125 591.25,506.5 598.5,504.5"/>
    <polyline points="601.0,503.75 606.375,502.0 618.25,497.125 631.75,489.75 643.125,481.75 651.25,474.875 655.5,470.75 664.375,461.0 668.875,455.25 678.0,441.875 682.375,434.0 686.625,425.375 690.625,415.875 694.25,405.5"/>
    <polyline points="697.25,394.5 699.5,382.875 700.75,370.875 700.75,358.75 699.25,347.0 696.0,336.25 690.875,326.875 683.875,319.75 675.0,315.375 664.5,314.0 652.75,316.0 640.125,321.125 627.375,329.0 614.625,339.25 602.5,351.125 591.125,364.0 580.625,377.25 571.25,390.5 563.0,403.25 555.625,415.375 538.625,445.875 527.0,467.875"/>
    <polyline points="523.875,473.5 518.625,482.875 511.875,492.75 508.0,497.25 502.625,502.125 497.375,505.25 490.625,507.875 485.625,509.0 476.75,510.0"/>
    <polyline points="475.0,510.125 467.5,510.5 453.125,510.25 436.625,509.375 417.5,507.875"/>
    <polyline points="414.5,507.625 379.875,504.0 354.25,500.625 329.0,496.375 317.625,494.0 305.375,491.0"/>
    <polyline points="298.75,489.25 284.5,484.625 276.75,481.625 260.0,473.75 250.75,468.5 240.875,462.0 230.625,454.125 220.0,444.375 209.5,432.5 200.0,418.25 193.0,401.875 191.375,384.375 198.5,367.875 218.625,356.125 254.125,354.375 303.5,366.25 360.75,392.5 417.25,429.5 466.125,471.375 504.125,513.375 531.125,552.5 548.125,587.5 556.875,618.25 559.0,644.875"/>
    <polyline points="555.75,667.625 548.25,686.5 537.375,701.5 524.0,712.25 509.125,718.25 493.75,719.5 478.875,716.0 465.0,708.125 452.75,696.5 442.5,682.25 434.25,666.25 427.875,649.5 423.25,632.75 420.125,616.75 418.125,601.625 417.125,587.875 416.75,575.5 417.75,555.125 418.75,546.875 421.375,533.75 424.375,524.5 427.75,518.125"/>
    <polyline points="429.5,515.75 431.25,513.75 434.625,511.0 437.875,509.375 441.125,508.5 444.0,508.0 448.0,508.0 458.875,509.125"/>
    <polyline points="459.25,509.125 460.625,509.125 460.875,508.75 458.375,507.5 455.125,506.5"/>
    <polyline points="424.75,498.625 411.75,494.375 402.0,490.25 396.25,487.125 392.75,484.75 390.125,481.875"/>
    <polyline points="390.0,481.25 390.25,480.25 390.75,479.875 393.875,479.625 399.375,480.75 404.25,482.25 419.375,488.75 447.25,503.625"/>
    <polyline points="449.875,505.125 462.875,511.625 469.0,514.0 473.75,515.25 476.375,515.625 479.5,515.5 480.625,515.125"/>
    <polyline points="481.0,515.0 482.125,513.875 481.625,512.75 480.375,511.875 477.5,510.75"/>
    <polyline points="477.0,510.625 471.75,509.375 454.25,506.25"/>
    <polyline points="452.875,506.0 430.125,501.5 415.625,497.75 406.5,494.875"/>
    <polyline points="404.25,494.125 392.25,489.375 382.875,484.625 375.125,479.125 372.375,476.375 370.75,473.75 370.5,472.5 370.75,471.5 371.375,470.625 372.5,469.875 376.5,469.375 382.75,470.25"/>
    <polyline points="386.75,471.25 391.125,472.625 401.125,476.625 417.875,484.875 429.125,491.25 458.0,509.5 471.875,517.875 479.75,521.875 487.625,524.625"/>
    <polyline points="489.25,525.0 494.875,525.375 499.25,524.75 503.5,523.375 510.875,519.5"/>
    <polyline points="511.375,519.25 516.75,516.625 522.125,515.0"/>
    <polyline points="522.625,514.875 528.75,514.0 536.125,513.5"/>
    <polyline points="536.75,513.5 551.0,512.75 562.125,511.75"/>
    <polyline points="563.5,511.625 578.375,509.625 593.125,506.5 605.875,502.625 617.625,497.875"/>
    <polyline points="620.875,496.375 627.625,492.75 634.75,488.375 642.5,482.875 650.625,476.125 659.375,467.625 668.375,457.0 677.5,443.75 682.0,436.0 686.375,427.375 690.5,418.0 694.25,407.75 697.5,396.75 700.0,385.125 701.5,373.0 701.75,360.625 700.625,348.625 697.625,337.375 692.875,327.625"/>
    <polyline points="686.125,319.875 677.5,314.75 667.125,312.75 655.375,314.0 642.875,318.625 629.75,326.25 616.875,336.25 604.375,348.0 592.75,361.0 582.0,374.5 572.375,387.875 563.875,401.0 556.25,413.25 549.625,424.75 521.0,478.125 516.0,486.5 509.625,495.125"/>
    <polyline points="507.75,497.375 504.125,500.875 500.625,503.5 495.5,506.25 492.125,507.5 488.75,508.5 481.875,509.75 472.75,510.5 463.125,510.625"/>
    <polyline points="461.125,510.625 436.125,509.625 394.25,506.125"/>
    <polyline points="390.75,505.875 340.125,500.625 313.75,497.5 283.375,493.125 269.625,490.875 262.375,489.375"/>
    <polyline points="254.875,487.875 238.625,483.625 229.75,481.0 220.25,477.625 210.125,473.375 199.0,467.875 187.0,460.875 173.625,451.625 159.125,439.375 143.625,423.125 128.25,401.875 115.75,375.125 112.0,344.25 126.5,314.375 170.625,297.0 248.25,306.125 346.125,347.5 440.75,412.25 514.5,485.375 562.75,555.75 588.25,619.5 595.0,676.625 586.625,727.625 565.625,771.875 534.625,807.125"/>
    <polyline points="496.875,829.75 456.625,836.125 418.5,825.125 386.25,798.5 361.625,761.125 344.75,718.625 334.25,675.875 328.75,636.125 326.625,601.25 327.0,571.75 329.125,547.375 333.0,528.0 338.25,512.875 344.875,501.625 352.75,493.875 361.75,489.0 371.75,486.875 382.5,487.0 393.75,488.875 405.0,492.375 416.125,496.875 426.875,502.125 436.875,507.75 446.125,513.5 454.625,519.0 462.25,524.375"/>
    <polyline points="469.0,529.25 484.75,540.75 492.375,545.75 498.25,548.875 503.0,550.5 506.875,551.0 510.125,550.625 513.0,549.75 518.0,546.75 524.75,541.5"/>
    <polyline points="525.875,540.75 532.625,536.0 539.625,532.25 547.25,529.25 557.25,526.5"/>
    <polyline points="558.75,526.125 596.625,518.75 613.75,514.25"/>
    <polyline points="616.875,513.25 627.25,509.5 638.75,504.25 647.125,499.625 656.375,493.625 661.25,490.0 671.5,481.0 677.0,475.625 682.625,469.375 688.5,462.25 694.375,454.125 700.5,444.75 706.5,434.125 712.5,422.0 718.125,408.25 723.25,392.875 727.375,376.0 730.25,357.875 731.25,338.875"/>
    <polyline points="729.75,319.875 725.375,301.875 717.5,286.375 706.0,274.875 691.125,268.75 673.5,268.75 654.0,275.0 634.0,286.875 614.375,303.375 596.0,322.625 579.5,343.375 565.125,364.375 552.875,384.5 542.75,403.125 534.25,420.125 527.25,435.125 513.125,469.5 503.375,495.75 499.125,506.125"/>
    <polyline points="498.0,508.5 495.875,511.875 493.75,514.25 489.75,516.625 486.375,517.375 482.875,517.625 467.5,517.75"/>
    <polyline points="466.0,517.875 451.125,518.5 439.125,520.125 435.875,520.875 431.375,522.5 428.875,523.75 426.75,525.375"/>
    <polyline points="425.875,526.375 424.875,528.625 424.75,530.0 425.375,533.0 427.625,536.625 431.75,540.875 438.375,545.5 442.625,548.0 447.75,550.5 459.875,555.125 467.0,557.25 474.75,558.875 482.875,560.125 491.25,560.75 499.875,560.75 508.25,560.125 516.5,558.625 524.125,556.375 531.125,553.5 537.5,550.125"/>
    <polyline points="542.875,546.125 547.5,541.75 551.25,537.25 554.125,532.75 556.375,528.125 558.0,523.75 559.0,519.5 559.5,515.625 559.625,512.125 558.875,506.0 557.5,501.25 556.5,499.375 553.5,495.5 551.375,494.125 548.375,493.25 545.0,493.75"/>
    <polyline points="544.25,494.0 541.375,495.875 539.25,499.0 539.0,501.375 539.5,502.75 540.25,503.75"/>
    <polyline points="540.625,504.0 543.625,505.625 546.625,506.375 551.375,507.125 558.375,507.375"/>
    <polyline points="559.625,507.375 571.875,506.5 580.5,505.25 595.125,502.0 605.0,498.75"/>
    <polyline points="607.75,497.75 613.375,495.375 625.875,488.875 632.75,484.5 640.0,479.125 647.75,472.375 655.875,464.25 664.125,454.125 668.375,448.125 676.625,434.5 680.5,426.625 684.25,418.0 687.5,408.875 690.25,399.0 692.375,388.625 693.625,378.0"/>
    <polyline points="693.875,367.375 692.875,356.875 690.375,347.125 686.375,338.625 680.625,331.75 673.375,326.875 664.75,324.625 654.75,325.125 644.0,328.25 632.75,333.875 621.375,341.75 610.125,351.375 599.5,362.25 589.5,373.75 580.375,385.625 572.0,397.25 558.0,419.25 546.875,438.25 531.25,466.625 525.375,476.5"/>
    <polyline points="477.25,509.0 472.0,509.25 458.625,509.125 443.375,508.125 422.875,505.875"/>
    <polyline points="420.0,505.5 404.5,503.25 386.625,499.875 370.25,496.0 356.5,491.875 346.5,488.375 330.125,481.25 324.375,478.25 312.625,470.875"/>
    <polyline points="306.625,466.5 300.875,461.625 295.375,456.125 290.375,450.125 286.5,443.75 284.0,437.0 283.5,430.375 285.875,424.375 291.75,419.625 301.75,416.875 316.125,417.25 334.5,421.125 356.125,428.75 379.625,440.125 403.625,454.25 426.5,470.25 447.375,487.0 465.5,503.5 480.875,519.125 493.5,533.375 503.5,546.125 511.375,557.125 517.375,566.5 521.875,574.375 525.0,580.875 527.125,586.125"/>
    <polyline points="528.5,590.375 529.5,595.875 529.375,597.375 529.0,598.25 528.375,598.625 526.875,597.875 524.625,594.0 523.25,590.375 522.0,583.875 521.625,579.375 521.625,574.75 522.375,568.25 523.75,562.25"/>
    <polyline points="524.375,560.375 526.5,555.25 529.0,550.75 532.875,545.75 536.0,542.625 539.5,540.0 544.375,537.0 551.0,534.0"/>
    <polyline points="552.5,533.5 558.375,531.625 566.625,529.625 601.5,523.25"/>
    <polyline points="604.25,522.625 613.125,520.625 622.875,517.875 630.0,515.625 637.75,512.625 646.125,508.875 655.125,504.0 660.0,501.125 670.25,493.875 681.625,484.125 687.625,478.125 693.875,471.125 700.375,463.0 707.0,453.625 713.875,442.625 720.75,430.0"/>
    <polyline points="727.375,415.375 733.75,398.625 739.25,379.875 743.5,359.0 745.875,336.625 745.5,313.5 741.625,290.875 733.375,270.875 720.5,255.375 703.125,246.5 682.0,245.625 658.375,253.125 634.125,268.125 610.75,288.625 589.375,312.625 570.625,337.875 554.75,362.875 541.75,386.375 531.25,407.75 522.875,426.75 516.375,443.25 511.375,457.375 507.5,469.375 504.625,479.5 500.75,494.875"/>
    <polyline points="499.625,500.625 498.0,512.25 497.25,521.25 497.0,521.5 496.125,521.5 492.75,520.125 488.125,518.875"/>
    <polyline points="487.0,518.75 481.0,517.875 470.875,517.25 459.375,517.25 448.75,517.875"/>
    <polyline points="446.875,518.0 437.75,519.0 430.625,520.5 424.5,522.875 421.125,525.625 419.75,528.0 419.5,529.375 420.0,532.75 422.25,536.75 426.625,541.375"/>
    <polyline points="429.875,544.0 433.875,546.875 438.625,549.625 444.375,552.625 450.875,555.375 458.25,558.125 466.5,560.5 475.375,562.5 484.875,564.0 494.625,564.75 504.5,564.625 514.125,563.625 523.375,561.75 532.0,558.875 539.75,555.25 546.5,550.875 552.25,546.0 557.0,540.875 560.625,535.5 563.5,530.125 565.5,524.875 566.75,519.875 567.5,515.25 567.75,510.875 567.25,503.625"/>
    <polyline points="566.625,500.625 565.875,498.0 562.875,492.5 560.875,490.375 558.875,489.125 558.0,488.75 555.5,488.625 553.625,489.375 551.875,491.0 551.0,493.875"/>
    <polyline points="551.125,494.375 551.125,494.875 552.0,496.5 554.625,498.625 558.875,500.125 564.75,500.875 567.125,500.875"/>
    <polyline points="568.25,500.875 573.75,500.75 578.375,500.25 591.25,497.75 602.375,494.25 610.125,491.125 618.5,486.875"/>
    <polyline points="621.5,485.125 627.75,481.25 631.0,478.875 641.25,470.5 648.5,463.25 655.875,454.5 659.625,449.5 666.875,438.0 670.375,431.5 676.75,416.875 679.375,408.875 681.5,400.375 683.125,391.625 683.875,382.75 683.875,374.0 682.75,365.5 680.5,357.625 677.125,350.875 672.375,345.375"/>
    <polyline points="666.375,341.5 659.25,339.5 651.25,339.5 642.375,341.75 633.125,345.875 623.625,351.75 614.25,359.125 605.0,367.625 596.25,376.875 588.125,386.625 580.5,396.375 567.25,415.375 551.875,440.25 534.75,469.625 527.5,481.0 523.375,486.625"/>
    <polyline points="521.5,489.0 514.625,496.25 510.0,499.875 504.25,503.125 500.0,504.875 494.5,506.5 484.75,508.0"/>
    <polyline points="483.375,508.125 479.0,508.375 463.0,508.125 451.875,507.25 439.125,505.75"/>
    <polyline points="436.875,505.375 416.375,502.0 398.125,497.875 391.25,496.0 372.75,489.75 360.75,484.5 356.625,482.375"/>
    <polyline points="352.5,480.125 344.5,475.0 340.625,472.125 333.625,465.75 330.75,462.375 328.625,458.875 327.125,455.375 326.75,452.0 327.625,449.0 330.125,446.5 334.125,444.75 340.0,444.125 347.875,444.625 357.375,446.625 368.375,450.25 380.625,455.25 393.625,461.625 406.875,469.0 420.0,477.25 432.5,485.875 454.75,503.0 464.375,511.0 472.75,518.5"/>
    <polyline points="480.25,525.125 501.125,544.375 510.5,551.75 515.0,554.25 520.25,555.5 524.25,554.75 526.75,553.625 535.875,547.25"/>
    <polyline points="537.0,546.5 544.25,541.875 553.75,537.625 561.5,535.25 573.75,532.625"/>
    <polyline points="575.625,532.25 615.125,525.75 628.375,522.625 635.875,520.5 648.125,516.0"/>
    <polyline points="652.5,514.125 662.0,509.5 672.5,503.25 678.125,499.375 690.125,489.5 696.625,483.125 703.375,475.875 710.5,467.125 717.875,456.875 725.5,444.875 733.25,430.75 740.875,414.125 748.125,394.875 754.5,372.75 759.375,348.0 761.75,321.125 760.625,293.25 754.75,266.5 743.25,243.375 725.625,227.25 702.375,220.625 675.25,224.75 646.25,239.375"/>
    <polyline points="617.75,262.25 591.625,290.375 569.0,320.625 550.25,350.75 535.25,378.875 523.5,404.25 514.625,426.5 508.125,445.625 503.5,461.75 500.375,475.25 498.375,486.375 497.375,495.625 497.0,503.125 497.25,509.125 498.0,514.0 499.0,517.875 501.375,523.0 502.75,524.625 504.125,525.625 506.75,526.625 507.875,526.625 508.875,526.375 510.375,525.375"/>
    <polyline points="511.0,524.625 511.625,522.25 511.375,520.5 510.5,518.875 509.25,517.375 507.5,516.125 505.5,515.0 500.75,513.5 496.75,512.75 489.25,512.125"/>
    <polyline points="487.625,512.125 460.5,511.625 438.0,510.75"/>
    <polyline points="435.5,510.625 410.5,509.375 380.5,508.375 366.0,508.75 354.875,509.875"/>
    <polyline points="351.375,510.5 344.5,512.5 341.5,513.875 338.75,515.625 336.375,517.875 334.75,520.75 333.875,524.25 334.0,528.625 335.75,534.125 339.375,541.0 345.75,549.25 355.375,559.375 369.5,571.25 389.0,584.875 414.75,599.5 447.25,614.0 485.625,626.25 527.625,633.625 569.75,633.625 607.875,625.25 639.0,608.875 661.75,586.625 676.875,560.875 686.0,534.25 690.875,508.375"/>
    <polyline points="692.875,484.25 693.125,462.125 692.375,442.25 690.875,424.375 688.5,408.625 685.625,394.875 681.875,383.0 677.375,373.125 672.0,365.375 665.75,359.625 658.75,356.0 651.0,354.625 642.625,355.375 634.0,358.0 625.25,362.375 616.5,368.25 608.0,375.125 599.75,383.0 592.125,391.25 585.0,399.75 578.375,408.25 566.875,424.625 553.25,445.875"/>
    <polyline points="549.625,451.875 537.75,471.125 531.0,481.125 525.25,488.5 520.375,493.75 516.0,497.625 511.875,500.5 504.25,504.375"/>
    <polyline points="503.0,504.75 498.25,506.25 491.0,507.625 482.25,508.375 471.375,508.25"/>
    <polyline points="469.875,508.25 458.75,507.5 443.875,505.75 428.375,503.25 420.875,501.75"/>
    <polyline points="418.25,501.25 410.0,499.375 394.75,495.25 381.375,490.625 370.75,486.0 360.125,480.375 353.25,475.875 347.125,470.75 344.5,468.125 342.375,465.375 340.875,462.625"/>
    <polyline points="340.0,459.875 340.0,457.375 341.0,455.25 343.125,453.5 346.625,452.375 351.375,452.0 357.5,452.5 365.0,454.125 373.625,456.75 383.125,460.5 393.375,465.125 414.625,476.875 435.0,490.25 453.0,503.5 489.375,532.75 499.875,540.25"/>
    <polyline points="502.625,541.75 507.375,543.875 511.375,544.875 514.75,545.125 517.75,544.625 521.75,543.25 538.625,534.25"/>
    <polyline points="539.875,533.75 547.625,530.625 554.625,528.5 569.375,525.25 579.125,523.5"/>
    <polyline points="581.125,523.125 603.0,518.75 611.75,516.5 625.0,512.25 640.25,505.625 644.375,503.375 653.375,498.125 663.125,491.25"/>
    <polyline points="668.25,487.0 673.625,482.25 679.25,476.75 685.0,470.375 691.0,463.125 697.125,454.75 703.375,445.125 709.625,434.0 715.75,421.375 721.625,407.125 726.875,391.125 731.125,373.375 734.0,354.25 735.0,334.25 733.25,314.375 728.25,295.625 719.5,279.625 707.0,268.25 690.875,262.625 671.875,263.625 651.25,271.5 630.125,285.125 609.75,303.25 591.0,324.125 574.375,346.0 560.125,367.875"/>
    <polyline points="548.0,388.625 538.125,407.625 530.0,424.75 523.375,439.75 513.75,464.0 507.375,481.75 500.375,502.875 497.25,510.875 494.75,515.125 493.125,516.75 491.375,517.75 487.75,518.5"/>
    <polyline points="486.75,518.5 466.0,518.25 456.5,518.625 451.5,519.125"/>
    <polyline points="449.875,519.25 443.375,520.125 438.625,521.125 433.0,523.125 430.625,524.5 428.875,526.25 427.75,528.375 427.5,529.5 427.875,532.25 429.75,535.625 433.25,539.375 435.75,541.5"/>
    <polyline points="438.875,543.625 446.875,548.125 457.5,552.5 463.75,554.5 470.625,556.25 477.875,557.5 485.5,558.5 493.375,558.875 501.25,558.625 509.0,557.75 516.375,556.125 523.375,554.0 529.625,551.125 535.25,547.875 540.25,544.125 544.375,540.25 547.75,536.0 550.375,531.875 552.375,527.625 553.75,523.625 554.625,519.875 555.125,516.25 555.0,510.125"/>
    <polyline points="554.5,507.375 553.0,503.125 551.125,499.875 549.0,497.75 546.875,496.375 542.75,495.5 540.125,495.875 537.75,496.75 535.875,497.875 533.875,499.625"/>
    <polyline points="533.375,500.0 531.875,502.0 531.0,504.375 531.375,506.25 532.625,507.5"/>
    <polyline points="532.875,507.75 537.875,509.375 543.0,510.0 547.125,510.125"/>
    <polyline points="548.0,510.125 559.875,509.875 569.75,509.0 582.125,507.125"/>
    <polyline points="584.125,506.75 595.0,504.125 602.5,501.875 607.875,499.875 619.75,494.625 629.875,489.125 640.875,481.5 648.875,474.75 653.0,470.875 661.5,461.625"/>
    <polyline points="665.875,456.25 670.25,450.25 679.0,436.125 683.125,428.0 687.125,419.125 690.625,409.375 693.75,399.0 696.125,388.125 697.625,376.625 698.125,365.125 697.125,353.875 694.625,343.25 690.375,333.875 684.375,326.25 676.625,321.0 667.25,318.5 656.5,319.0 644.875,322.5 632.75,328.875 620.5,337.625 608.625,348.125 597.25,360.0 586.75,372.5 577.25,385.125 568.625,397.625"/>
    <polyline points="561.0,409.625 554.25,420.75 543.125,440.5 524.625,474.625 519.5,483.25 515.0,489.875 510.875,494.875 505.375,500.25 500.25,503.75 495.25,506.125 491.875,507.125"/>
    <polyline points="490.25,507.625 480.0,509.375 471.0,509.875 455.0,509.75 441.375,508.875"/>
    <polyline points="439.0,508.75 417.25,506.75 390.625,503.25 370.625,499.875 352.25,495.75"/>
    <polyline points="347.125,494.5 336.5,491.5 324.875,487.5 312.25,482.375 305.5,479.125 298.5,475.375 291.25,471.0 283.75,466.0 276.125,460.125 268.625,453.25 261.5,445.375 255.125,436.375 250.5,426.625 248.625,416.5 250.625,406.75 258.375,398.625 273.0,393.875 295.0,394.375 323.875,401.375 357.375,415.25 392.375,434.875 425.75,458.25 455.5,483.375"/>
    <polyline points="480.125,508.125 499.75,531.375 514.375,552.25 524.875,570.625 532.0,586.5 536.125,599.875 537.875,611.125 537.875,620.375 536.375,627.75 533.75,633.375 530.375,637.375 526.375,640.0 522.0,641.125 517.5,641.0 513.0,639.75 508.625,637.375 504.5,634.0 500.625,630.0 497.25,625.25 494.25,620.0 491.625,614.5 489.375,608.75 487.625,603.0 486.25,597.125 484.375,585.875"/>
    <polyline points="484.0,580.625 483.625,570.875 484.0,562.25 484.875,554.75 486.0,548.5 487.25,543.125 490.0,535.0 493.25,528.0 496.5,522.875"/>
    <polyline points="497.0,522.125 501.375,516.25 502.125,514.375"/>
  </g>
</svg>
