<?xml version="1.0" encoding="utf-8" ?>
<svg xmlns="http://www.w3.org/2000/svg" xmlns:cc="http://creativecommons.org/ns" xmlns:dc="http://purl.org/dc/elements/1.1/" xmlns:ev="http://www.w3.org/2001/xml-events" xmlns:inkscape="http://www.inkscape.org/namespaces/inkscape" xmlns:rdf="http://www.w3.org/1999/02/22-rdf-syntax-ns" xmlns:sodipodi="http://sodipodi.sourceforge.net/DTD/sodipodi-0.dtd" xmlns:xlink="http://www.w3.org/1999/xlink" baseProfile="tiny" height="27.09333333cm" version="1.2" viewBox="0 0 1024.0 1024.0" width="27.09333333cm">
  <metadata>
    <rdf:RDF>
      <cc:Work>
        <dc:format>image/svg+xml</dc:format>
        <dc:source>vpype read './original_svgs/Strange Attractors #231.svg' linemerge linesimplify write './Strange Attractors #231.svg'
</dc:source>
        <dc:date>2024-08-05T01:35:39.367260</dc:date>
      </cc:Work>
    </rdf:RDF>
  </metadata>
  <defs/>
  <g fill="none" id="layer1" inkscape:groupmode="layer" inkscape:label="1" stroke="black" stroke-width="0.7mm" style="display:inline">
    <polyline points="840.625,624.875 804.0,534.75 798.625,460.75 820.75,393.5 867.125,326.375 932.875,256.875 1006.625,190.125 1024.0,176.2894"/>
    <polyline points="1024.0,222.3236 999.75,253.125 930.5,345.75 874.25,434.625 838.625,512.125 823.375,577.5 825.125,631.875 838.875,676.25 858.875,710.0 879.0,731.625 893.75,739.375 899.0,732.625 894.125,712.75 880.875,683.375 862.5,648.75 823.625,578.0"/>
    <polyline points="807.25,546.5 794.0,518.625 783.875,494.875 776.375,474.875 771.0,458.375 764.25,435.0 761.5,427.625 758.625,422.75 755.25,420.25 751.125,419.875 746.125,421.375 740.25,424.375 726.25,434.0 693.375,459.375 676.75,471.75 661.125,482.625 653.75,487.375 639.875,495.5"/>
    <polyline points="633.5,498.875 621.625,504.625 611.0,508.875 601.25,512.125 592.625,514.5 581.125,516.75 568.125,518.375 557.25,519.0 544.125,519.0"/>
    <polyline points="542.25,519.0 530.875,518.625 510.75,517.25"/>
    <polyline points="509.75,517.125 495.75,515.375 484.0,512.5"/>
    <polyline points="482.5,512.0 474.25,509.125 465.875,505.5 451.875,498.625 444.75,494.75 426.875,484.375 395.875,464.5"/>
    <polyline points="388.375,459.5 323.875,415.625 313.75,409.5 310.875,408.25 309.75,408.5 310.25,410.25 316.5,417.875 321.75,423.5 335.25,436.875 350.875,451.75 359.0,459.0 374.75,472.625 389.375,484.375"/>
    <polyline points="396.25,489.5 408.625,498.0 419.625,504.625 429.25,509.5 441.75,514.5 452.25,517.25 461.25,518.625 468.875,519.125 475.625,519.125 483.5,518.5"/>
    <polyline points="485.25,518.375 494.75,517.125 505.125,515.125 517.25,511.875"/>
    <polyline points="518.375,511.625 526.25,508.875 537.0,504.375 550.125,497.75 557.75,493.5"/>
    <polyline points="560.625,491.875 575.25,483.25 610.875,460.5 639.25,441.625 710.5,393.375 745.75,370.0 763.125,359.0 779.0,349.625 792.375,342.625 802.0,339.125 807.0,339.875"/>
    <polyline points="807.0,345.125 802.125,354.75 792.875,368.25 780.5,384.375 766.0,402.125 735.25,438.25 720.375,455.125 693.75,484.375 682.375,496.625 672.125,507.125 655.0,523.75 647.75,530.125 641.375,535.5 635.625,539.875 630.375,543.375 621.375,548.5 613.75,551.625 607.125,553.25 601.25,554.0"/>
    <polyline points="598.5,554.125 593.5,554.125 588.875,553.75 566.25,550.625 561.5,550.625 557.875,551.25"/>
    <polyline points="557.25,551.5 555.5,552.625 554.875,553.625 554.625,554.875 555.25,557.5 558.125,562.25 562.5,567.25 569.375,573.875 579.625,582.5 588.75,589.625"/>
    <polyline points="594.25,593.625 614.0,607.625 630.125,618.125 648.5,629.125 667.75,639.375 677.25,643.625 686.25,647.25 694.5,649.625 701.75,650.75 707.5,650.5 711.75,648.5 714.25,645.0 715.0,640.0 714.0,633.625 711.5,626.125 707.625,617.875 702.625,609.0 696.75,599.875 690.375,590.875 676.75,573.5"/>
    <polyline points="669.875,565.5 656.375,551.25 643.75,539.5 632.25,530.25 626.875,526.375 617.125,520.0 612.625,517.375 604.375,513.25 593.75,509.0 579.5,505.125 568.875,503.5"/>
    <polyline points="567.125,503.375 551.25,502.25 549.875,502.0 549.125,501.625 548.75,501.0"/>
    <polyline points="548.875,500.75 549.5,499.875 551.625,498.25 570.625,487.0"/>
    <polyline points="572.75,485.75 610.25,462.625 682.5,416.5 700.625,405.5 717.5,395.875"/>
    <polyline points="724.875,392.125 731.125,389.5 735.875,388.125 739.125,388.125 740.375,389.75 739.875,393.0 737.625,397.625 733.625,403.625 721.5,418.5 705.875,435.5 688.875,452.375 671.875,467.75 655.875,480.875 648.375,486.625 634.5,496.125 622.0,503.625 616.25,506.625 605.75,511.375"/>
    <polyline points="601.0,513.25 592.125,516.25 584.0,518.375 576.875,519.875 567.25,521.125 551.5,522.0 541.125,521.875 532.5,521.375"/>
    <polyline points="531.0,521.375 516.375,520.25 504.0,518.875 500.625,518.25"/>
    <polyline points="499.375,518.125 487.5,515.375 474.875,511.0 462.0,505.25 447.75,497.75"/>
    <polyline points="443.5,495.375 421.875,482.375 400.0,468.25 372.5,449.625 309.75,405.375 301.375,399.75 290.375,393.25 288.25,393.0 288.75,395.0 291.75,399.125 296.875,405.125 312.25,421.5"/>
    <polyline points="321.625,431.0 351.25,460.0 369.875,477.0 386.25,491.125 393.5,496.875 406.625,506.375 417.75,513.375 422.625,516.0 427.25,518.25 435.5,521.5 442.875,523.5 449.375,524.75 457.875,525.375 463.0,525.25"/>
    <polyline points="465.375,525.125 474.0,524.25 481.5,523.0 494.125,520.25 505.875,517.125"/>
    <polyline points="507.125,516.75 514.375,514.625 525.875,510.375 533.5,507.0 543.25,502.125"/>
    <polyline points="545.625,500.875 553.875,496.375 573.5,484.625 599.0,468.25 655.75,429.625 758.25,358.375 782.75,342.0 806.0,327.0 826.0,315.125"/>
    <polyline points="840.75,308.5 848.125,308.625 847.375,316.25 838.875,331.0 824.0,351.625 805.125,375.875 744.375,451.5 712.0,492.625 699.125,509.25 661.25,560.125 653.5,569.625 650.5,572.75 645.375,576.875 641.0,578.5 636.75,578.375"/>
    <polyline points="634.75,577.875 628.125,575.0 608.75,563.5 596.125,556.875 584.25,551.625 575.5,548.5"/>
    <polyline points="573.5,547.875 567.625,546.25 560.625,544.75 553.125,543.75 548.125,543.625 544.125,544.125 541.625,544.875 540.375,545.625"/>
    <polyline points="539.875,546.0 538.875,547.75 538.75,549.25 540.0,553.375 541.75,556.125 546.125,561.625 553.625,569.25 565.75,579.875 577.375,589.375 602.125,608.125"/>
    <polyline points="612.75,615.75 637.75,632.875 667.625,651.625 683.75,661.0 700.25,669.75 716.125,677.25 730.875,682.75 743.5,685.625 753.375,685.25 759.625,681.5 762.375,674.25 761.375,663.875 757.25,651.0 750.625,636.375 742.25,620.875 732.75,605.125 722.75,589.875 703.125,562.0 685.5,539.0 677.75,529.5 664.25,514.0"/>
    <polyline points="658.375,507.75 653.125,502.5 644.125,494.375 636.625,488.625 630.375,484.75 625.125,482.125 620.625,480.5 616.625,479.5 610.375,478.625 602.375,478.5"/>
    <polyline points="601.75,478.375 599.625,477.875 599.375,476.875 599.75,476.25 604.5,472.0 611.75,467.0"/>
    <polyline points="613.25,466.0 628.75,456.25 648.25,445.0 659.25,439.625 662.625,438.375 665.0,438.0"/>
    <polyline points="665.875,438.0 666.375,438.25 666.625,439.375 664.625,442.75 658.25,449.375 648.75,457.375 640.375,463.5 631.75,469.125 626.0,472.625 617.625,477.125"/>
    <polyline points="615.0,478.375 605.0,483.0 592.625,487.5 587.625,489.0 579.875,490.75 575.0,491.125"/>
    <polyline points="574.5,491.125 573.0,490.5 573.25,489.375 574.375,488.125 578.75,484.625 589.0,478.0"/>
    <polyline points="590.875,476.75 629.25,452.5 660.0,433.625 676.625,423.875 687.0,418.375 695.75,414.375"/>
    <polyline points="699.25,413.125 702.0,412.5 704.0,412.5 705.125,413.25 705.25,414.75 704.5,417.0 703.0,419.875 697.25,427.25 689.0,436.375 684.125,441.25 673.375,451.125 656.25,465.25 639.5,477.25 624.0,486.75 610.0,493.875"/>
    <polyline points="605.75,495.75 590.375,501.625 577.625,505.125 569.375,506.875 562.375,508.0 554.375,509.0 543.625,509.75"/>
    <polyline points="542.375,509.875 528.375,510.25 524.875,510.0 524.5,509.75 524.5,509.5 525.75,508.875"/>
    <line x1="526.0" x2="537.0" y1="508.75" y2="504.125"/>
    <polyline points="537.875,503.75 554.125,495.625 566.625,488.625 582.125,479.375"/>
    <polyline points="586.125,476.875 618.25,456.5 682.875,414.25 718.5,391.625 730.125,384.625 740.875,378.625 750.25,373.875 757.625,370.875 762.75,370.0 765.25,371.5 764.875,375.5 761.875,381.75 756.25,390.125"/>
    <polyline points="748.625,400.0 739.5,411.0 729.25,422.625 707.625,446.0 676.375,476.5 658.125,492.375 649.875,498.875 642.25,504.625 628.5,513.75 622.375,517.375 611.25,522.875 601.5,526.75 592.875,529.25 585.25,530.875 575.125,532.125"/>
    <polyline points="572.125,532.25 561.25,532.5 524.25,530.125"/>
    <polyline points="522.875,530.0 501.0,529.25 490.5,527.875"/>
    <polyline points="488.75,527.5 482.625,526.0 471.5,521.875 463.75,518.25 453.875,513.125 432.375,500.25 397.125,476.625 361.25,450.75 311.5,413.375 248.0,363.75 182.5,311.5"/>
    <polyline points="157.75,292.125 144.375,282.875 144.875,286.625 158.75,303.375 211.0,363.875 239.75,399.125 265.875,433.125 287.625,464.125 304.5,491.375 316.875,514.75 325.25,534.5 330.5,550.875 333.25,564.25 334.375,575.125 334.375,583.5 333.375,596.125 333.875,596.75 335.25,595.75 353.625,575.125"/>
    <polyline points="359.0,569.5 364.5,563.625 376.0,552.5 387.375,542.5 397.875,533.875 402.875,530.125 412.125,523.875 424.375,517.0 434.75,512.375 440.625,510.375 448.5,508.375 457.125,507.125"/>
    <polyline points="459.0,507.0 464.0,506.75 470.75,506.875 478.0,507.5 482.375,508.25"/>
    <polyline points="482.625,508.25 483.625,508.625 476.25,507.0 463.375,502.0 450.125,495.625 439.625,490.0"/>
    <polyline points="478.125,507.375 469.625,504.375 458.25,499.5 443.125,491.75"/>
    <polyline points="440.5,490.25 417.0,476.625 364.375,443.25 355.5,438.25 352.75,437.25 352.375,437.625"/>
    <polyline points="352.625,438.5 355.5,441.875 360.75,447.125 372.25,457.125 386.0,468.125 400.375,478.5 414.0,487.25 426.5,494.25 437.625,499.5 447.375,503.375"/>
    <polyline points="450.375,504.375 456.0,506.125 469.875,509.375 480.375,510.875 493.375,511.75"/>
    <line x1="494.375" x2="507.5" y1="511.75" y2="512.0"/>
    <polyline points="507.75,512.0 514.0,511.625 521.375,509.875"/>
    <line x1="521.625" x2="532.375" y1="509.875" y2="506.0"/>
    <polyline points="533.0,505.75 547.375,499.125 566.125,488.875"/>
    <polyline points="568.75,487.375 585.75,477.125 611.75,460.75 709.0,397.25 733.125,382.5 744.125,376.375 753.5,371.625 760.875,368.75"/>
    <polyline points="765.875,368.25 768.0,370.125 767.125,374.5 763.625,381.375 757.5,390.25 749.25,400.75 729.0,424.375 717.875,436.375 706.75,448.25 685.125,469.625 665.75,487.375 656.875,494.75 648.75,501.25 634.125,511.75 621.5,519.375 610.625,524.75 601.125,528.375 592.625,530.75"/>
    <polyline points="588.75,531.625 578.375,533.125 569.375,533.625 561.5,533.625 531.875,531.75"/>
    <polyline points="530.375,531.625 522.625,531.25 513.375,531.25 501.0,531.75"/>
    <polyline points="499.875,531.75 494.75,531.875 488.875,531.5 481.375,530.25 473.75,528.0 462.875,523.375 445.75,514.25 437.75,509.375 428.0,503.25 401.625,485.375"/>
    <polyline points="383.625,472.5 361.25,456.125 333.75,435.375 300.25,409.5 260.25,378.0 214.75,341.375 90.75,239.625 80.0,232.75 92.875,248.75 124.375,284.5 164.875,332.0 205.125,383.0 239.0,431.625 264.25,475.125 280.625,512.5 289.25,544.125 291.625,570.625 289.625,592.375 284.875,609.75 279.125,622.875 273.625,631.5 269.625,635.875 268.125,635.875 269.125,632.125"/>
    <polyline points="272.875,625.0 279.0,615.25 286.75,603.75 305.125,578.5 314.625,566.0 347.875,524.75 354.5,517.125 365.875,504.875 370.75,500.125 379.25,492.875 386.5,488.125 392.875,485.375 395.75,484.5 401.375,483.625 409.125,484.0"/>
    <polyline points="411.5,484.375 420.875,486.625 456.125,499.125"/>
    <polyline points="457.25,499.5 467.875,502.75 457.25,498.25 446.375,492.875"/>
    <polyline points="444.75,492.0 427.5,482.5 389.625,459.5 379.875,453.875"/>
    <polyline points="378.0,452.875 375.375,451.625 374.125,451.5 374.5,452.5 377.875,456.0 392.75,468.0 409.0,479.125 415.625,483.25 425.25,488.625"/>
    <polyline points="428.25,490.25 437.0,494.5 444.875,497.875 454.0,501.25 465.125,504.625 476.875,507.375"/>
    <polyline points="477.875,507.625 489.0,510.0 486.375,509.875 480.5,508.5"/>
    <polyline points="479.75,508.25 469.5,504.75 460.25,500.75 447.125,494.25 438.75,489.625"/>
    <polyline points="435.5,487.75 407.75,471.0 358.75,439.5 349.125,434.0 347.375,433.25 346.375,433.25 346.125,433.75 346.75,435.0 348.25,436.75"/>
    <polyline points="350.5,439.25 361.0,449.25 380.5,465.5 390.875,473.5 406.125,484.0 420.125,492.5 432.5,498.875 446.625,504.625 455.625,507.375"/>
    <polyline points="458.375,508.125 465.875,509.875 478.0,511.625 489.75,512.375 498.0,512.375"/>
    <polyline points="498.875,512.375 505.875,512.125 513.0,511.375"/>
    <polyline points="513.375,511.375 516.75,510.875 522.875,509.375"/>
    <polyline points="548.25,498.5 542.5,501.5 535.5,504.625 523.375,509.25 532.75,505.875 539.5,502.875"/>
    <polyline points="540.5,502.375 547.875,498.875 570.625,486.25 604.125,465.5"/>
    <polyline points="610.25,461.625 683.125,413.75 720.375,390.0 732.625,382.625 743.875,376.125 753.75,371.0 761.625,367.875 767.125,366.875 769.625,368.375 769.125,372.625 765.875,379.375 759.875,388.125 751.75,398.75 731.25,422.75 708.625,447.125"/>
    <polyline points="697.5,458.5 676.5,478.625 658.125,494.875 649.875,501.5 635.125,512.25 628.5,516.5 622.375,520.0 616.75,523.0 606.5,527.5 601.875,529.25 593.375,531.625 585.875,533.125 579.125,534.0 570.125,534.5 562.375,534.375"/>
    <polyline points="559.875,534.375 535.625,532.625 520.125,532.25"/>
    <polyline points="519.0,532.25 512.625,532.625 505.5,533.5 498.625,535.0 493.875,536.5"/>
    <polyline points="492.875,536.875 489.25,538.625 487.625,539.875 486.375,541.375 485.5,543.375 485.375,544.625 486.0,548.0 488.625,553.0 494.75,560.75 507.375,573.75 532.25,596.25 552.375,613.375 580.375,636.375 619.0,667.125 671.625,707.75"/>
    <polyline points="741.25,759.375 827.625,819.75 922.75,879.375 1006.75,919.0 1024.0,918.0701"/>
    <polyline points="1024.0,808.7627 1010.25,779.0 960.375,683.375 919.125,593.625 894.875,515.5 888.0,448.875 895.375,392.625 911.875,345.875 930.875,310.125 948.75,282.25 916.875,320.125 887.25,356.25 855.375,396.625 825.5,436.75 800.0,473.875 779.75,506.625 764.75,534.625 754.25,557.875 747.25,576.75"/>
    <polyline points="743.0,591.75 738.75,611.25 737.375,616.375 735.875,618.75 733.625,618.75 730.625,616.75 726.75,612.875 703.25,587.25 689.0,572.375 681.75,565.25 667.5,552.125 654.0,541.0 641.625,532.0 635.875,528.125 625.25,521.75 615.625,517.0"/>
    <polyline points="611.125,515.0 599.25,510.625 592.375,508.625 586.125,507.25 571.125,505.0 553.0,504.125"/>
    <polyline points="552.125,504.125 545.125,503.5 544.5,503.0 544.5,502.5 545.75,501.25"/>
    <line x1="546.125" x2="578.75" y1="501.0" y2="481.875"/>
    <polyline points="581.75,480.125 621.875,455.0 677.625,419.0 706.625,401.125 715.875,395.75 732.0,387.375 738.25,384.875 742.75,383.875 745.5,384.625"/>
    <polyline points="746.125,387.0 744.75,391.125 741.375,396.875 736.25,403.875 729.75,412.0 722.125,420.875 713.75,430.0 704.875,439.25 686.625,457.125 677.625,465.375 660.75,479.875 645.25,491.75 631.5,501.0 625.125,504.75 613.625,510.875 608.25,513.25 594.125,518.5 585.875,520.625"/>
    <polyline points="582.125,521.5 575.125,522.75 568.75,523.5 557.5,524.125 546.0,524.125 525.625,522.875"/>
    <polyline points="524.25,522.75 504.25,520.625 492.25,518.25"/>
    <polyline points="490.75,517.875 480.0,514.5 467.75,509.375 458.0,504.625 445.375,497.75 422.0,483.625 387.625,460.875"/>
    <polyline points="377.0,453.5 353.375,436.875 290.875,391.875 281.5,385.5 274.625,381.375 270.75,379.75 270.25,381.125 273.0,385.375 278.75,392.375 297.0,412.25 319.875,436.125 343.0,459.625 363.75,479.875 381.5,496.125 396.0,508.5"/>
    <polyline points="402.375,513.25 408.0,517.375 413.25,520.75 422.5,525.75 430.25,528.875 440.25,531.25 446.125,531.75 456.25,531.25 462.875,530.25 476.25,527.125"/>
    <polyline points="477.875,526.625 496.75,521.5 511.125,517.125"/>
    <polyline points="512.25,516.75 524.75,512.25 536.25,507.0 551.0,499.125 557.875,495.0"/>
    <polyline points="562.0,492.5 584.25,478.375 623.375,452.0 673.5,416.75 783.25,338.5 816.125,315.5 847.375,294.75 873.25,279.25 889.75,272.625 893.875,277.625 885.25,294.5 866.125,321.5 812.625,390.625 785.875,425.75"/>
    <polyline points="762.125,458.125 742.25,487.0 726.5,511.875 714.375,533.0 705.5,550.625 699.25,565.25 695.125,577.125 692.5,586.625 690.875,594.125 689.125,606.375 688.5,607.5 687.625,607.625 684.375,604.625 672.0,590.5 658.75,576.875 644.0,563.625"/>
    <polyline points="639.0,559.625 629.125,552.125 619.625,545.75 610.625,540.375 598.0,534.0 586.875,529.25 576.75,525.75 562.625,522.0 551.0,519.875"/>
    <polyline points="548.875,519.625 536.625,518.0 515.75,516.375"/>
    <polyline points="514.875,516.375 501.375,515.25 494.75,514.25"/>
    <polyline points="493.875,514.0 486.75,512.5 477.5,509.625 466.625,505.25 454.25,499.25"/>
    <polyline points="451.125,497.75 427.875,484.5 406.125,470.875 385.875,457.625 334.875,423.125 324.75,416.875 321.375,415.125 319.375,414.625 318.875,415.25"/>
    <polyline points="319.875,417.125 322.25,420.25 330.75,429.375 349.875,447.625 371.625,466.75 378.75,472.625 392.375,483.125 404.875,492.0 416.0,499.0 421.125,501.875 430.5,506.625 439.0,510.125 442.75,511.5 453.125,514.375"/>
    <polyline points="456.25,515.0 467.25,516.625 478.5,517.0 490.625,516.25 502.625,514.625"/>
    <polyline points="503.75,514.375 515.125,512.0 523.875,509.375 529.125,507.375"/>
    <polyline points="530.25,507.0 542.375,501.625 556.375,494.25 568.0,487.625 589.125,474.625"/>
    <polyline points="594.75,471.125 623.5,452.375 725.25,384.5 756.25,365.0 769.875,357.25 781.25,351.625 789.5,349.0 793.75,349.875 793.75,354.625 789.625,363.0 781.875,374.5 771.125,388.5 758.625,403.875 730.875,435.75"/>
    <polyline points="717.25,451.0 692.0,477.875 670.625,499.125 653.0,515.125 645.5,521.375 632.375,531.0 621.5,537.625 612.375,541.875 604.375,544.5 597.375,545.875 591.25,546.625 583.0,546.875 575.875,546.5"/>
    <polyline points="573.625,546.25 559.0,544.875 551.0,544.75 546.875,545.25 545.25,545.75 543.25,546.875 542.375,547.875"/>
    <polyline points="542.125,548.375 541.75,550.625 542.25,552.5 545.125,557.625 549.75,563.125 554.5,568.0 561.0,574.0 575.125,585.75 588.25,596.125 605.25,608.625 626.75,623.5"/>
    <polyline points="639.125,631.75 666.75,648.875 681.5,657.125 696.375,664.875 710.75,671.25 723.875,676.0 735.25,678.375 744.0,678.0 749.875,674.5 752.5,668.125 752.0,659.0 748.625,647.5 742.875,634.625 735.5,620.625 726.875,606.5 717.75,592.5 708.375,579.125 699.125,566.625 690.375,555.125 682.0,544.875 667.0,527.625 660.375,520.625 648.875,509.375"/>
    <polyline points="643.75,504.875 639.125,501.125 631.0,495.25 624.125,491.25 615.625,487.375 608.875,485.375 605.125,484.625 592.0,483.125"/>
    <polyline points="591.5,483.0 590.625,482.375 590.5,481.625 591.5,480.0 592.5,479.0 596.875,475.5 609.375,467.125"/>
    <polyline points="611.5,465.75 636.25,450.375 660.0,436.75 669.125,432.25 674.125,430.25 677.625,429.5 679.5,430.0"/>
    <polyline points="679.75,430.75 678.875,433.25 677.75,435.0 671.875,441.875 663.0,450.125 648.625,461.75 637.125,469.75 629.625,474.5 618.75,480.5 605.625,486.75"/>
    <polyline points="602.625,488.0 591.625,492.125 578.5,495.875 566.25,498.25 559.75,498.75"/>
    <polyline points="559.125,498.75 556.75,498.375 556.375,498.0 556.5,497.25 559.25,494.75 564.375,491.375"/>
    <polyline points="565.5,490.75 603.625,467.25 654.375,435.0"/>
    <polyline points="661.875,430.25 693.375,411.125 708.125,402.875 714.625,399.625 720.125,397.125 724.625,395.75 727.75,395.5 729.5,396.5 729.625,398.75 728.375,402.25 721.5,412.5 716.25,418.875 703.375,433.0 688.5,447.75 673.125,461.75 658.125,474.125 651.0,479.5"/>
    <polyline points="644.125,484.5 631.25,493.0 619.625,499.625 609.125,504.75 595.25,510.25 587.0,512.75 576.25,515.25 564.0,517.0 547.375,518.0"/>
    <polyline points="545.375,518.0 530.625,517.875 513.0,516.875"/>
    <polyline points="512.0,516.875 499.875,515.625 489.125,513.5"/>
    <polyline points="487.875,513.25 476.75,509.75 467.25,505.875 460.0,502.5 444.25,494.25 426.75,484.0"/>
    <polyline points="421.625,480.875 389.625,460.25 328.25,418.625 318.375,412.625 315.375,411.375 314.0,411.375 314.25,412.625 316.125,415.375 324.125,424.375 343.625,443.5 351.25,450.5"/>
    <polyline points="358.875,457.5 374.125,470.625 388.5,482.125 395.25,487.125 413.25,499.25 423.625,505.125 432.875,509.5 441.0,512.625 448.375,514.875 454.875,516.375 463.5,517.625 473.25,518.125"/>
    <polyline points="475.375,518.125 486.75,517.5 493.0,516.75 503.5,515.0 511.375,513.25"/>
    <polyline points="512.375,513.0 517.5,511.625 527.25,508.375 533.375,505.875 542.375,501.625"/>
    <polyline points="544.125,500.75 563.25,490.375 578.25,481.375 600.0,467.625 643.625,438.875 697.625,402.375"/>
    <polyline points="713.875,391.5 747.375,369.625 763.375,359.75 777.75,351.625 789.375,346.0 797.375,343.75 801.0,345.5 799.875,351.5 794.375,361.375 785.125,374.5 773.125,390.0 759.25,406.75 729.875,440.75 702.5,471.0 690.25,484.0 669.125,505.375 660.25,513.875 645.0,527.125 638.5,532.25 627.25,539.875"/>
    <polyline points="622.375,542.625 613.875,546.5 610.0,547.75 603.0,549.5 596.875,550.375 586.375,550.5 568.375,548.5 560.875,548.0"/>
    <polyline points="559.625,547.875 554.125,548.25 551.75,549.0 550.0,550.125 549.125,551.75 549.0,553.25 549.875,556.125 550.5,557.25 553.5,561.5 556.75,565.125"/>
    <polyline points="558.75,567.25 570.625,578.0 584.625,589.375 604.75,604.25 622.125,616.25 642.625,629.25 665.375,642.625 677.125,648.75 688.625,654.125 699.625,658.375 709.5,661.25 717.875,662.375 724.375,661.5 728.625,658.375 730.625,653.25 730.375,646.25"/>
    <polyline points="728.0,637.5 723.875,627.625 718.25,617.0 711.625,605.875 704.25,594.75 688.5,573.75 680.625,564.125 665.75,547.25 658.75,540.0 645.875,528.0 634.625,518.75 629.625,515.125 620.5,509.125 608.875,503.125 599.375,499.5 594.0,498.0"/>
    <polyline points="591.5,497.5 583.25,496.0 570.0,494.75 567.5,494.0 567.0,493.375 567.0,492.75"/>
    <polyline points="567.125,492.5 568.375,491.0 571.875,488.25 603.25,468.25"/>
    <polyline points="606.75,466.125 662.375,431.25 687.75,416.375 699.0,410.5 707.875,407.0 711.0,406.25 713.125,406.375 714.25,407.5 714.25,409.375 713.0,412.25 710.875,415.875"/>
    <polyline points="707.625,420.125 698.75,430.375 693.375,436.0 675.125,453.375 662.25,464.25 655.875,469.25 643.5,478.25 626.375,489.0 621.125,492.0 611.25,497.0 606.625,499.125 594.0,504.0 586.5,506.375 579.625,508.125"/>
    <polyline points="576.5,508.875 562.625,511.25 551.75,512.375 543.0,512.875 530.5,513.125"/>
    <line x1="529.625" x2="514.625" y1="513.125" y2="513.0"/>
    <line x1="514.25" x2="507.125" y1="513.0" y2="513.125"/>
    <polyline points="506.875,513.125 498.875,512.875 506.5,512.75 511.125,512.125 524.875,512.25"/>
    <polyline points="484.125,510.375 492.125,512.125 498.625,512.75 497.625,512.875 492.375,512.25 482.375,510.0"/>
    <polyline points="481.375,509.625 476.75,508.25 468.0,504.875 458.0,500.375 438.0,489.75 426.25,482.875"/>
    <polyline points="421.875,480.125 395.875,463.75 348.375,432.375 339.875,427.25 334.875,425.0 334.0,425.125 334.125,426.125 335.375,428.0 340.875,434.125 355.0,447.5"/>
    <polyline points="360.625,452.5 378.875,467.75 390.875,477.0 407.75,488.75 418.0,494.875 431.5,502.0 439.5,505.375 446.75,508.0 456.25,510.75 469.375,513.125"/>
    <polyline points="471.625,513.375 481.5,514.0 490.875,514.0 499.375,513.5 506.125,512.75"/>
    <polyline points="507.0,512.625 515.25,511.25 525.0,508.625"/>
    <polyline points="525.75,508.375 531.375,506.375 538.375,503.375 555.125,494.875"/>
    <polyline points="557.25,493.75 567.5,488.0 581.375,479.625 607.0,463.5 708.375,396.75 735.375,379.875"/>
    <polyline points="747.875,372.5 759.0,366.5 768.0,362.5 774.375,361.0 777.5,362.375 777.25,366.75 773.75,373.875 767.25,383.5 758.375,395.125 736.125,421.375 724.0,434.875 711.875,447.875 688.75,471.5 668.375,490.75 659.25,498.75 643.125,511.625 636.125,516.75 623.5,524.625 618.0,527.625 608.0,532.0"/>
    <polyline points="603.5,533.625 595.25,536.0 591.5,536.75 584.625,537.75 578.5,538.25 570.25,538.375 541.125,536.5"/>
    <polyline points="539.75,536.5 534.5,536.375 529.875,536.625 525.0,537.5 522.625,538.25 520.625,539.375 518.875,541.5 518.5,543.0"/>
    <polyline points="518.5,543.875 518.875,546.0 520.0,548.5 523.5,553.875 530.5,562.0 538.375,569.625 550.125,580.125 567.375,594.5 578.75,603.625 608.875,626.625 651.0,657.0 677.125,674.875 706.125,693.75 737.25,712.5 768.5,729.375"/>
    <polyline points="797.25,741.875 820.75,747.625 836.25,744.625 842.25,732.25 839.25,711.5 828.875,684.625 814.0,654.5 797.25,623.625 765.25,566.75 752.25,542.375 741.375,521.125 733.0,503.0 726.5,487.5 721.75,474.375 718.25,463.625 712.875,441.75 710.5,434.5 709.0,432.625 707.375,431.75 705.125,431.875 702.625,432.875 699.5,434.625"/>
    <polyline points="696.0,436.875 662.5,461.625 646.625,472.25 631.5,481.375 622.125,486.375 605.25,494.0 594.25,498.0 584.625,500.875"/>
    <polyline points="581.75,501.625 571.375,503.875 562.75,505.375 547.5,507.0 541.0,507.25"/>
    <polyline points="540.25,507.25 535.25,507.125 534.375,506.625 535.0,505.875"/>
    <line x1="535.25" x2="552.625" y1="505.625" y2="496.625"/>
    <polyline points="554.0,495.875 575.0,483.875 597.625,470.0 661.25,428.75"/>
    <polyline points="671.375,422.25 692.75,408.5 714.875,394.75 735.25,383.125 743.75,378.875 750.5,376.25 755.25,375.5 757.625,376.875 757.5,380.375 754.875,385.875 750.125,393.25 743.375,402.125 735.125,412.0 725.875,422.625 716.0,433.375 705.875,444.0 695.625,454.125 676.125,472.625 658.375,487.875 642.625,499.875"/>
    <polyline points="635.5,504.75 622.625,512.625 611.375,518.375 601.375,522.375 592.625,525.125 581.0,527.5 568.125,528.875 560.0,529.125 544.375,528.5"/>
    <line x1="542.5" x2="506.625" y1="528.375" y2="525.375"/>
    <polyline points="505.25,525.125 496.875,523.875 490.25,522.375 482.125,519.875 474.375,516.875 460.375,510.25 451.0,505.125 439.125,498.125"/>
    <polyline points="432.0,493.75 404.25,475.75 392.375,467.625 363.75,447.25 328.25,421.25 231.875,348.625 220.75,341.125 215.875,339.25 217.75,343.5 225.875,353.75 291.375,428.0 323.625,465.75 348.5,496.125"/>
    <polyline points="358.25,508.375 383.5,540.25 391.0,548.5 394.0,551.375 396.75,553.375 399.375,554.75 401.75,555.625 404.125,556.0 406.375,556.0 411.125,555.0 415.875,553.125 420.875,550.625 439.0,540.625"/>
    <polyline points="441.625,539.375 456.375,532.125 467.5,527.625 477.25,524.25 492.0,520.0"/>
    <polyline points="493.5,519.5 511.25,514.75 524.5,510.25"/>
    <polyline points="538.625,510.0 528.125,510.125 525.625,509.875 541.75,502.5 556.5,494.5 571.125,485.875 600.0,467.5"/>
    <polyline points="608.0,462.25 651.5,432.875 739.875,372.25 760.875,358.25 781.25,345.125 799.75,334.0 814.625,326.25 824.5,323.375 828.25,326.125 825.375,334.75 816.625,348.875 803.125,367.0 786.75,387.875 750.875,431.375 691.625,501.625"/>
    <polyline points="680.875,514.125 663.625,533.5 650.875,546.875 641.125,555.75 633.375,561.25 630.125,563.0 627.125,564.375 624.25,565.25 619.125,566.0 614.375,566.0 607.75,564.75 599.625,562.25 593.875,560.125"/>
    <polyline points="592.0,559.5 578.5,555.25 570.375,553.75 566.125,553.625 564.5,553.875 563.0,554.25 561.5,555.25"/>
    <polyline points="561.125,555.75 560.75,556.875 560.75,558.25 561.75,560.875 563.25,563.25 566.75,567.5 572.375,573.0 580.625,580.25 592.25,589.25 613.875,604.375"/>
    <polyline points="620.375,608.625 634.625,617.375 649.875,625.875 657.75,629.75 672.75,636.0 679.5,638.125 685.5,639.25 690.625,639.375 694.625,638.5 697.375,636.25 698.875,633.0 699.0,628.625 697.875,623.375 695.625,617.25 692.25,610.625 688.125,603.5 683.375,596.25 672.375,581.75 660.375,568.25 648.5,556.25"/>
    <polyline points="642.625,551.0 636.875,546.125 626.125,537.75 611.5,528.25 602.875,523.625 594.875,520.0 584.5,516.125 572.75,513.0 563.125,511.25 555.25,510.25"/>
    <polyline points="553.5,510.125 542.625,509.375 531.125,509.0"/>
    <polyline points="530.875,508.875 529.0,508.5 529.5,507.75 530.875,507.125"/>
    <line x1="531.125" x2="548.25" y1="507.0" y2="498.75"/>
    <polyline points="549.625,498.0 563.5,490.5 592.375,473.125 607.875,463.375 644.25,439.625"/>
    <polyline points="653.5,433.625 708.25,398.25 730.875,384.625 740.875,379.125 749.625,375.0 756.375,372.5 760.75,372.25 762.5,374.25 761.75,378.5 758.25,385.0 752.5,393.25 744.875,403.125 725.75,425.25 715.125,436.625 694.0,458.25 674.125,477.0 656.25,492.25"/>
    <polyline points="648.125,498.5 640.625,504.0 627.125,512.875 615.375,519.25 605.0,523.75 600.375,525.375 587.875,528.75 577.25,530.5 568.125,531.125 557.625,531.125 548.75,530.625"/>
    <line x1="546.75" x2="510.375" y1="530.5" y2="528.0"/>
    <polyline points="509.125,527.875 501.375,527.25 495.5,526.375 490.5,525.375 484.625,523.75 474.25,520.0 467.5,517.0 454.0,510.0"/>
    <polyline points="448.375,506.75 425.5,492.75 403.75,478.25 355.875,444.125 311.25,410.75 207.75,330.375 189.625,316.75 179.75,310.625 179.875,313.75 189.625,326.0 252.0,398.375 274.5,425.625 294.75,451.25 311.875,474.375 326.0,494.5"/>
    <polyline points="337.0,511.875 345.5,526.5 351.75,538.75 356.375,548.75 359.75,556.875 365.375,571.75 366.75,574.125 368.125,575.5 369.75,575.875 371.5,575.5 373.625,574.5 376.125,572.75 404.5,549.75 412.5,543.875 420.375,538.625"/>
    <polyline points="424.125,536.125 438.375,528.25 447.875,523.875 453.625,521.625 463.75,518.375 472.375,516.25 485.625,514.0"/>
    <line x1="487.0" x2="508.0" y1="513.875" y2="512.0"/>
    <polyline points="508.5,511.875 514.625,511.25 518.75,510.375"/>
    <polyline points="519.125,510.25 524.125,509.0 531.25,506.375"/>
    <polyline points="532.0,506.125 538.5,503.375 549.375,498.125 565.125,489.375"/>
    <polyline points="567.75,487.875 598.75,469.0 632.375,447.25 695.625,405.625 720.75,389.75 744.25,375.875 754.125,370.875 761.875,367.625"/>
    <polyline points="767.25,366.75 769.75,368.375 769.25,372.625 765.875,379.375 759.75,388.375 751.625,399.0 741.875,410.75 731.125,423.0 719.75,435.375 708.375,447.375 686.5,469.375 676.375,478.875 657.875,495.125 642.0,507.5 634.875,512.375 628.375,516.625 622.25,520.125 611.375,525.625 601.75,529.25 593.375,531.75"/>
    <polyline points="589.5,532.5 582.375,533.75 573.0,534.5 562.25,534.5 532.75,532.625"/>
    <polyline points="531.375,532.5 524.875,532.25 518.0,532.375 513.75,532.625 503.75,534.0"/>
    <polyline points="502.75,534.25 498.0,535.5 494.25,536.875 491.75,538.25 489.5,540.125 488.5,541.875 488.125,544.0 488.25,545.5 489.5,549.25 493.0,554.875 496.125,558.75"/>
    <polyline points="500.625,563.625 515.25,578.0 543.125,602.625 565.375,621.125 595.625,645.5 636.625,677.625 691.125,719.0 761.0,769.625 844.25,826.0 931.0,877.125 1001.5,905.0 1024.0,896.6259"/>
    <polyline points="1024.0,836.1619 986.375,757.125 941.0,669.5 903.75,587.75 881.0,516.625 873.375,456.0 878.125,404.625 891.0,362.0 906.875,328.75 925.5,298.0 920.25,303.5"/>
    <polyline points="904.375,322.125 880.5,350.5 852.875,384.25 824.875,419.625 799.5,453.375 777.875,484.25 760.375,511.125 746.875,534.0 736.875,553.0 729.5,568.5 717.5,597.125 715.125,601.75 712.75,604.375 710.125,605.25 707.25,604.625 703.875,602.625 695.625,595.75 680.0,581.0 662.375,565.375"/>
    <polyline points="656.375,560.375 644.75,551.375 633.625,543.5 623.125,537.0 608.875,529.375 596.25,524.0 581.875,519.25 570.0,516.375 557.875,514.375"/>
    <polyline points="555.75,514.125 538.125,512.625 525.5,512.25"/>
    <polyline points="483.25,510.125 472.75,506.75 458.375,500.5 445.25,493.75 435.25,488.0"/>
    <polyline points="431.375,485.875 408.5,471.875 345.75,430.875 338.5,426.625 336.25,425.75 335.0,425.625 334.875,426.25 335.75,427.875 340.625,433.5 344.375,437.25"/>
    <polyline points="348.875,441.625 359.375,451.25 383.25,471.0 395.125,479.875 411.5,490.75 421.25,496.5 434.375,503.0 438.25,504.625 449.0,508.5 455.25,510.25 463.625,512.0"/>
    <polyline points="466.125,512.375 475.125,513.5 482.625,513.875 494.25,513.75 503.75,512.875"/>
    <polyline points="504.625,512.875 513.25,511.625 522.625,509.375"/>
    <polyline points="550.0,497.625 560.125,492.25 571.125,485.875 596.125,470.5 622.125,453.75 683.375,413.25"/>
    <polyline points="696.25,404.75 736.25,379.375 748.625,372.25 759.5,366.5 768.125,362.75 774.125,361.625 776.875,363.25 776.25,367.75 772.5,375.125 765.875,384.875 756.875,396.5 746.25,409.375 734.625,422.75 710.5,448.875 687.625,472.25 667.375,491.25 650.0,505.875 642.375,511.75 635.375,516.75 628.875,520.875"/>
    <polyline points="622.875,524.375 617.375,527.375 612.25,529.75 602.875,533.375 594.75,535.625 587.5,537.0 577.875,537.875 569.625,538.0 546.875,536.5"/>
    <polyline points="545.125,536.375 536.375,536.0 528.125,536.375 522.625,537.375 520.375,538.375 518.625,539.625"/>
    <polyline points="518.125,540.125 517.375,541.375 517.0,543.75 517.875,547.125 519.5,550.125 522.375,554.125 526.75,559.375 538.25,570.75 559.375,589.0 582.125,607.25 615.125,632.375 636.5,648.0"/>
    <polyline points="661.5,665.5 689.875,684.75 721.375,704.75 754.25,724.0 786.375,740.375 814.75,750.875 835.875,753.125 847.5,745.375 848.875,727.75 841.375,702.25 827.625,671.875 810.625,639.375 776.375,577.75 762.0,550.875 750.125,527.375 740.875,507.0 733.875,489.75 728.75,475.125 725.25,463.0 723.0,452.875 719.375,433.625 718.5,430.25 717.125,428.125"/>
    <polyline points="715.5,427.25 713.25,427.5 707.125,430.75 693.75,440.75 671.375,458.125 659.625,466.625 642.375,478.0 631.625,484.375 621.625,489.625 607.875,495.875 595.875,500.375"/>
    <polyline points="592.25,501.5 585.375,503.5 570.75,506.75 555.375,508.875 539.75,509.875"/>
    <polyline points="525.5,509.875 524.875,509.5 527.25,508.25"/>
    <line x1="527.5" x2="541.75" y1="508.125" y2="502.0"/>
    <polyline points="542.75,501.5 554.75,495.25 567.5,488.125 583.375,478.625 607.375,463.5"/>
    <polyline points="613.5,459.625 686.125,412.125 710.0,397.0 733.125,382.875 743.5,377.25 752.375,373.0 759.25,370.5 763.625,370.375 765.25,372.5 764.125,377.125 760.25,384.0 754.125,392.875 746.0,403.125 736.5,414.375 715.375,437.75 704.375,449.125"/>
    <polyline points="693.625,459.875 683.375,469.875 673.5,478.875 655.625,494.25 640.125,506.0 633.125,510.75 620.625,518.125 615.0,521.0 604.875,525.375 595.875,528.375 591.75,529.375 584.125,530.875 577.375,531.75 568.375,532.375 560.5,532.375"/>
    <line x1="558.125" x2="517.5" y1="532.25" y2="529.75"/>
    <polyline points="516.25,529.625 509.125,529.5 496.25,528.625 487.875,527.125 479.0,524.5"/>
    <polyline points="476.25,523.5 469.75,520.875 461.625,517.0 451.125,511.25 437.0,502.875 417.625,490.375 390.375,471.625 372.875,459.0 352.25,443.875 300.125,404.25 268.875,380.0 174.25,304.875 154.125,289.5 146.25,285.375 152.0,294.125 195.25,344.125"/>
    <polyline points="223.75,377.875 251.375,412.25 275.625,444.625 295.375,473.75 310.625,499.125 321.625,520.75 329.0,538.875 333.625,554.0 336.0,566.25 337.0,576.0 336.75,594.5 337.5,594.625 339.0,593.5 362.75,567.75 373.875,556.875 384.875,546.75"/>
    <polyline points="390.375,542.125 400.625,534.0 410.125,527.25 422.75,519.75 430.125,516.125 436.75,513.375 442.75,511.375 450.5,509.375 460.875,507.875 467.5,507.625"/>
    <polyline points="468.875,507.625 476.75,507.875 482.5,508.5 486.125,509.25 484.25,509.125 479.25,507.875"/>
    <polyline points="436.625,488.25 430.125,484.625 406.125,470.0 363.75,442.75 356.5,438.375 351.625,435.875 350.125,435.375 349.375,435.5 350.375,437.5"/>
    <polyline points="351.875,439.375 360.625,447.875 378.25,462.875 393.25,474.25 407.75,484.125 416.875,489.75 433.25,498.25 443.75,502.75 453.0,505.875"/>
    <polyline points="455.75,506.75 465.75,509.125 477.5,511.0 487.75,511.875 496.125,512.125"/>
    <line x1="497.0" x2="510.25" y1="512.125" y2="511.75"/>
    <line x1="510.5" x2="517.375" y1="511.75" y2="510.75"/>
    <line x1="517.625" x2="526.125" y1="510.75" y2="508.375"/>
    <polyline points="526.5,508.25 534.875,505.0 545.75,499.875"/>
    <polyline points="547.125,499.25 568.5,487.5 585.5,477.25 599.75,468.375 642.375,440.75"/>
  </g>
</svg>
