<?xml version="1.0" encoding="utf-8" ?>
<svg xmlns="http://www.w3.org/2000/svg" xmlns:cc="http://creativecommons.org/ns" xmlns:dc="http://purl.org/dc/elements/1.1/" xmlns:ev="http://www.w3.org/2001/xml-events" xmlns:inkscape="http://www.inkscape.org/namespaces/inkscape" xmlns:rdf="http://www.w3.org/1999/02/22-rdf-syntax-ns" xmlns:sodipodi="http://sodipodi.sourceforge.net/DTD/sodipodi-0.dtd" xmlns:xlink="http://www.w3.org/1999/xlink" baseProfile="tiny" height="27.09333333cm" version="1.2" viewBox="0 0 1024.0 1024.0" width="27.09333333cm">
  <metadata>
    <rdf:RDF>
      <cc:Work>
        <dc:format>image/svg+xml</dc:format>
        <dc:source>vpype read './original_svgs/Strange Attractors #331.svg' linemerge linesimplify write './Strange Attractors #331.svg'
</dc:source>
        <dc:date>2024-08-05T01:35:49.098797</dc:date>
      </cc:Work>
    </rdf:RDF>
  </metadata>
  <defs/>
  <g fill="none" id="layer1" inkscape:groupmode="layer" inkscape:label="1" stroke="black" stroke-width="0.7mm" style="display:inline">
    <polyline points="740.875,577.5 757.0,553.5 769.25,536.25 786.875,512.375 793.25,502.25 797.875,491.25 800.75,478.25 800.875,461.375 796.875,438.5 786.5,407.0 765.875,363.125 729.0,303.25 667.125,225.75 572.25,138.125 446.0,65.375 312.875,47.125 210.125,103.75 155.125,212.375 136.0,333.375 133.75,443.0 136.625,535.75 141.375,613.25 150.0,678.0 166.875,729.25 196.375,763.25"/>
    <polyline points="239.75,774.375 293.25,760.75 349.25,725.75 400.125,677.375 441.0,624.375 470.5,572.625 489.125,525.75 498.375,484.75 500.0,449.875 495.5,421.0 486.125,398.0 473.375,380.875 458.625,369.875 443.25,365.0 428.5,365.875 415.5,372.0 404.75,382.375 396.625,395.75 391.0,411.0 387.625,427.0 386.125,443.0 386.125,458.125 387.125,472.0 388.875,484.5 391.125,495.5 393.75,505.0"/>
    <polyline points="396.5,513.125 399.375,520.0 402.25,525.75 405.125,530.375 407.75,534.125 410.375,537.125 415.375,541.25 419.75,543.5 421.75,544.0 425.375,544.5 428.5,544.25 432.25,543.125 435.0,541.625 437.5,539.0"/>
    <polyline points="437.625,538.625 437.75,537.25 437.0,536.25 435.625,535.375 433.375,534.75 425.625,534.0 415.875,534.25"/>
    <polyline points="413.875,534.375 400.375,535.875 389.25,537.75 376.25,540.875 364.875,544.5 356.5,547.75 347.375,552.0 337.375,557.625 332.0,561.0 326.375,565.0"/>
    <polyline points="320.5,569.625 314.375,574.875 308.125,580.875 301.625,587.875 295.0,596.0 288.5,605.125 282.25,615.5 276.5,627.0 271.625,639.5 268.375,652.875 267.25,666.375 269.125,679.125 274.625,690.125 284.375,697.875 298.5,701.125 316.5,698.875 337.625,690.875 360.375,677.625 383.125,660.0 404.875,639.75 424.625,618.25 441.875,596.75 456.5,576.375 468.625,557.375 478.5,540.375 486.25,525.375"/>
    <polyline points="492.375,512.375 497.125,501.125 500.625,491.5 503.25,483.375 506.375,471.0 507.125,466.25 507.375,462.5 507.25,457.25 506.375,454.125 505.25,452.875 504.125,453.0 503.625,453.5 502.375,455.875 502.125,460.625 502.5,463.375"/>
    <polyline points="502.875,464.625 504.25,468.625 505.625,471.125 507.125,473.375 510.625,477.375 513.625,479.75 519.0,482.75 525.875,484.75"/>
    <polyline points="527.0,485.0 532.75,485.5 538.5,485.0 541.875,484.25 545.25,483.125 549.5,480.875 554.125,476.875"/>
    <polyline points="554.875,475.875 556.375,473.625 558.0,469.625 558.625,464.75 558.5,461.0 557.75,456.875 555.0,449.875 550.25,442.25 548.125,439.625 543.0,434.375 536.875,429.625 529.875,425.5"/>
    <polyline points="526.0,423.875 522.125,422.5 514.0,421.0 506.0,421.375 502.25,422.125 498.625,423.5 495.25,425.25 492.25,427.375 489.5,430.0 487.125,432.875 483.375,439.375 482.125,442.875 481.125,446.375 480.0,453.5 480.125,460.5 480.875,466.875 482.5,472.75 484.375,477.75"/>
    <polyline points="485.5,480.125 490.5,487.625 493.125,490.5 497.125,494.0 502.25,497.25 504.75,498.5 511.875,501.125 516.375,502.125"/>
    <polyline points="517.5,502.375 523.875,503.25 528.125,503.5 535.625,503.5 544.625,502.75"/>
    <polyline points="545.875,502.625 552.0,501.5 560.0,499.375 567.0,496.625 572.75,493.5 575.625,491.5 579.625,487.75"/>
    <polyline points="581.0,486.25 584.5,481.0 586.375,476.625 587.875,468.375 587.75,461.5 586.125,453.375 584.75,448.75 582.75,443.875 580.25,438.5 577.0,432.75 573.0,426.75 568.125,420.5 562.5,414.125 555.875,407.625 548.375,401.375 540.0,395.375 530.875,390.125 521.125,385.75 510.875,382.5"/>
    <polyline points="500.5,380.75 490.25,380.5 480.5,382.125 471.375,385.5 463.25,390.5 456.25,396.875 450.375,404.375 445.75,412.875 442.375,421.75 440.0,430.875 438.5,439.875 437.875,448.625 437.875,456.875 438.375,464.625 439.25,471.75 441.75,484.125 446.625,498.0 451.625,507.125 456.0,513.0"/>
    <polyline points="457.375,514.375 461.75,518.125 464.25,519.5 467.375,520.5 467.125,520.125 465.5,519.75"/>
    <line x1="465.125" x2="438.5" y1="519.625" y2="514.75"/>
    <polyline points="436.875,514.375 428.375,512.0 421.125,509.25 414.0,505.25 409.125,501.0 406.375,497.25 405.25,495.0 404.25,492.625 403.625,489.875 403.125,486.75 403.125,483.375 403.5,479.5 404.5,475.125"/>
    <polyline points="406.0,470.375 408.25,465.0 411.375,459.125 415.375,452.625 420.625,445.625 427.125,438.0 435.0,430.125 444.375,422.0 455.25,413.875 467.5,406.125 481.25,399.25 495.875,393.625 511.125,389.875 526.5,388.25 541.375,389.25 555.25,392.875 567.5,399.0 578.0,407.125 586.625,417.0 593.25,427.875 598.125,439.25 601.5,450.625 603.5,461.75 604.375,472.125 604.5,481.75 604.125,490.25"/>
    <polyline points="603.125,498.0 600.5,510.375 598.875,515.375 595.5,523.0 592.25,528.125 590.625,530.0 587.625,532.625 583.625,534.375 581.375,534.625 577.75,533.875 576.0,532.75 574.75,531.375"/>
    <polyline points="574.5,530.875 574.125,529.5 574.375,528.25 576.5,525.875 581.625,523.5 588.125,521.625"/>
    <polyline points="589.5,521.375 609.625,516.75 623.0,512.875 632.875,508.875 638.0,506.125 640.5,504.375"/>
    <polyline points="643.125,502.5 648.0,498.0 650.375,495.125 652.5,492.0 654.5,488.25 656.125,483.875 657.375,478.75 658.125,472.75 658.25,465.625 657.375,457.375 655.375,447.5 651.625,435.875 646.0,422.25 637.75,406.375 626.25,388.0 610.625,367.5 590.25,345.25 564.875,322.5 534.375,301.375 499.875,284.625 463.625,275.25 428.5,276.0 397.5,287.75 372.875,309.125 355.25,337.625"/>
    <polyline points="344.125,369.5 338.25,402.0 336.125,432.875 336.25,460.875 337.875,485.375 340.375,506.5 343.125,524.375 346.125,539.25 349.25,551.5 352.5,561.5 355.75,569.5 359.25,575.875 362.75,580.75 366.625,584.25 370.5,586.625 374.625,588.0 378.875,588.5 383.25,588.125 387.625,587.125 392.125,585.625 396.625,583.625 405.5,578.5 417.875,569.375"/>
    <polyline points="421.75,566.125 432.0,557.0 459.5,530.5 465.0,524.875"/>
    <polyline points="465.375,524.375 466.0,523.25 466.0,522.375 464.625,521.0 460.625,519.75 455.25,518.75"/>
    <polyline points="454.25,518.625 439.75,516.125 431.5,514.25 422.5,511.5 415.0,508.25"/>
    <polyline points="413.125,507.125 409.5,504.75 406.125,501.75 403.25,498.0 402.0,495.75 400.125,490.375 399.625,483.75 400.0,479.75 400.875,475.25 402.5,470.125 404.75,464.625 408.0,458.375 412.375,451.5 417.875,444.0 424.75,435.875 433.25,427.375 443.25,418.625 455.0,409.875 468.375,401.625 483.25,394.25 499.0,388.5"/>
    <polyline points="515.5,384.75 531.875,383.625 547.625,385.375 562.0,389.875 574.625,397.125 585.25,406.5 593.75,417.625 600.0,429.625 604.5,441.875 607.375,454.125 609.0,465.75 609.625,476.5 609.375,486.375 608.625,495.125 607.5,502.75 606.0,509.375 602.75,519.875 599.125,527.25 597.375,529.875 594.0,533.75 590.875,536.0 589.375,536.625"/>
    <polyline points="588.0,537.125 586.75,537.375 583.25,537.125 579.875,535.75 578.625,534.75 577.0,532.75 576.5,531.25 577.0,529.0 578.125,527.75"/>
    <polyline points="578.625,527.375 581.0,525.875 587.5,523.625 596.875,521.5 609.375,519.125"/>
    <polyline points="611.375,518.625 624.875,515.5 637.625,511.25 643.125,508.75 648.625,505.625 651.375,503.75 656.625,499.0 659.125,496.125 661.5,492.75 663.5,488.75 665.25,484.0 666.625,478.5 667.375,472.0 667.25,464.25"/>
    <polyline points="666.125,454.875 663.5,443.875 659.0,430.625 652.0,415.0 641.875,396.625 627.5,375.375 608.25,351.5 583.125,326.125 552.0,301.0 515.25,279.0 475.0,264.25 434.625,260.25 398.0,269.125 368.25,290.25 346.75,320.625 333.125,356.125 325.875,392.75 323.125,427.75 323.125,459.375 324.875,487.125 327.375,510.875 330.375,530.75 333.625,547.375 337.125,561.125 340.75,572.125 344.625,581.0"/>
    <polyline points="348.75,587.75 353.25,592.875 358.125,596.25 363.25,598.375 368.875,599.125 374.625,598.625 380.5,597.25 386.625,595.0 392.75,592.0 398.875,588.375 404.75,584.375 410.5,580.125 421.375,571.125 431.125,562.25 453.25,540.375 463.375,530.75"/>
    <polyline points="465.375,528.875 472.375,523.25 477.625,519.75 482.375,517.25 488.5,515.0"/>
    <polyline points="488.75,514.875 489.5,514.375 488.625,514.0 485.375,513.625"/>
    <polyline points="484.875,513.5 475.25,512.5 465.875,511.0"/>
    <polyline points="464.875,510.875 454.25,508.5 446.5,505.75 439.875,502.375 437.375,500.5 434.0,497.25"/>
    <polyline points="433.0,496.0 431.25,493.0 430.0,489.5 429.625,487.5 429.5,483.0 429.75,480.5 431.25,474.75 432.5,471.5 436.375,464.5 442.25,456.5 446.0,452.375 450.5,448.0 455.625,443.75 461.375,439.5 467.75,435.375 474.75,431.5 482.25,428.125 490.125,425.375 498.25,423.375 506.625,422.125"/>
    <polyline points="514.875,422.0 522.75,422.75 530.375,424.625 537.375,427.5 543.625,431.25 549.125,435.75 553.875,440.875 557.75,446.5 560.875,452.25 563.25,458.25 564.875,464.125 566.0,469.875 566.625,475.25 566.75,485.125 565.625,493.5 564.875,497.0 562.875,503.0 559.5,509.5 556.125,513.625"/>
    <polyline points="555.125,514.625 552.25,516.625 549.125,517.875 546.75,518.125 544.875,517.75 544.25,517.25 544.5,516.25 547.375,514.75 559.125,511.625"/>
    <polyline points="560.125,511.375 575.125,507.25 582.875,504.25 591.25,499.875 596.375,496.125"/>
    <polyline points="598.0,494.75 599.75,493.125 604.375,487.125 605.75,484.75 608.0,479.0 608.875,475.625 609.625,467.75 609.5,463.0 608.875,457.75 607.625,451.875 605.625,445.375 602.75,438.25 598.875,430.25 593.875,421.5 587.5,412.125 579.625,402.125 570.0,391.875 558.625,381.5 545.5,371.5 530.875,362.625 515.0,355.375 498.375,350.5"/>
    <polyline points="481.75,348.625 465.625,350.25 451.0,355.25 438.125,363.625 427.625,374.75 419.375,387.75 413.5,402.125 409.5,417.0 407.25,431.625 406.375,445.625 406.5,458.625 407.375,470.375 408.75,481.0 410.5,490.375 412.375,498.375 416.375,511.375 418.375,516.5 422.125,524.25 426.875,531.5 430.625,535.125"/>
    <polyline points="431.5,535.875 433.75,537.125 435.25,537.25 434.75,536.625 431.25,535.875 423.5,535.5"/>
    <polyline points="422.0,535.5 407.375,536.625 395.25,538.625 383.5,541.375 373.25,544.5 369.625,545.875 361.75,549.0 353.125,553.0"/>
    <polyline points="348.625,555.5 338.875,561.5 328.375,569.25 322.75,574.0 311.125,585.625 305.25,592.625 299.375,600.625 293.625,609.5 288.375,619.25 283.875,630.0 280.5,641.25 278.75,652.875 279.125,664.125 282.375,674.375 288.875,682.375 298.875,687.375 312.375,688.375 328.875,684.875 347.5,676.625 367.25,664.375 387.0,648.875 405.875,631.25 423.125,612.75"/>
    <polyline points="438.5,594.25 451.75,576.5 462.875,560.125 472.25,545.25 480.0,531.875 491.375,510.125 498.875,494.125 503.625,482.75 510.25,464.375 511.0,463.5 512.0,464.375"/>
    <polyline points="512.375,464.75 515.875,469.25 519.75,472.375 523.5,474.25 528.375,475.375"/>
    <polyline points="529.125,475.375 534.0,475.125 537.125,474.125 539.25,473.0 541.125,471.5 543.125,468.75 544.125,466.375 544.5,464.5"/>
    <polyline points="544.5,463.375 544.5,461.25 543.75,457.75 542.125,454.0 539.5,450.0 535.75,446.25 531.25,443.0 525.875,440.5 520.25,439.25 516.375,439.25"/>
    <polyline points="514.5,439.5 509.375,441.375 505.25,444.625 503.125,447.5 501.5,450.75 501.0,452.5 500.125,457.75 500.25,461.25 500.75,464.625 503.0,470.875 505.375,474.875"/>
    <polyline points="506.25,476.0 508.25,478.25 511.375,481.0 513.5,482.5 519.25,485.375 525.25,487.125 531.25,487.875 534.875,487.875"/>
    <polyline points="536.0,487.75 543.25,486.625 546.75,485.5 550.125,484.0 552.375,482.625 556.375,479.375 559.0,476.125 560.375,473.5 561.5,470.5"/>
    <polyline points="561.875,468.875 562.25,463.125 561.75,458.75 560.5,453.875 558.125,448.5 556.625,445.625 552.625,439.75 547.375,433.75 544.25,430.75 537.0,425.25 533.0,422.75 528.75,420.625 519.625,417.375 515.0,416.5 510.25,416.125 505.625,416.25 501.125,417.0"/>
    <polyline points="496.875,418.25 493.0,420.125 489.375,422.5 486.125,425.375 483.25,428.625 480.75,432.25 477.25,440.125 475.25,448.375 474.875,452.5 474.875,460.375 475.875,467.75 477.5,474.25 479.625,479.875 483.375,486.75 486.125,490.375 488.875,493.375"/>
    <polyline points="490.125,494.625 494.125,497.875 498.0,500.25 501.625,502.0 508.125,504.25 513.125,505.375 517.75,506.0"/>
    <polyline points="518.625,506.125 524.875,506.625 534.625,506.625 541.5,506.125"/>
    <polyline points="542.5,506.0 549.0,505.125 560.25,502.625 568.625,499.75 574.5,496.875"/>
    <polyline points="576.0,496.0 580.5,493.0 583.375,490.375 587.5,485.75 588.75,483.875 590.875,479.5 592.5,474.25 593.0,471.25 593.25,464.25 592.125,455.875 590.875,451.125 589.125,445.875 586.75,440.25 579.625,427.5 574.75,420.625 568.875,413.5"/>
    <polyline points="561.875,406.125 553.875,398.875 544.75,391.875 534.625,385.375 523.75,380.0 512.25,375.875 500.375,373.25 488.75,372.75 477.5,374.25 467.0,377.875 457.75,383.375 449.75,390.75 443.25,399.5 438.25,409.125 434.5,419.375 432.0,429.75 430.625,440.0 430.0,449.75 430.125,459.0 430.875,467.625 431.875,475.375 433.25,482.375 436.5,494.0 440.0,503.0"/>
    <polyline points="441.75,506.625 446.625,514.5 449.5,518.0 453.875,522.0 456.25,523.375 458.625,524.125 457.625,523.5"/>
    <polyline points="457.25,523.375 451.0,522.125 428.75,519.0"/>
    <polyline points="426.875,518.75 414.75,516.375 406.0,513.875 396.875,510.125 390.375,505.875 386.5,502.0 384.75,499.625 383.25,497.0 382.0,493.875 381.125,490.375 380.75,486.375 380.875,481.75"/>
    <polyline points="381.625,476.375 383.25,470.25 385.875,463.25 389.875,455.25 395.25,446.25 402.5,436.125 411.75,425.0 423.5,413.0 437.875,400.625 454.875,388.25 474.375,376.75 496.0,367.25 518.75,360.625 541.875,358.125 563.875,360.375 583.625,367.25 600.25,378.5 613.5,393.125 623.25,409.875 630.0,427.5 634.125,445.0 636.25,461.75 636.875,477.125 636.375,490.875 635.25,502.875 633.5,513.25"/>
    <polyline points="631.5,522.125 629.375,529.5 627.0,535.625 624.625,540.5 622.25,544.5 619.75,547.75 617.375,550.125 615.0,551.875 612.625,553.125 608.0,554.375 603.5,554.25 599.375,553.25 591.875,549.75 587.125,546.5 582.0,542.25"/>
    <polyline points="581.0,541.25 576.25,535.75 574.375,532.125 574.125,529.25 574.5,528.25 575.5,526.875 577.625,525.375"/>
    <polyline points="578.25,525.0 580.625,523.875 588.125,521.625 613.75,515.625"/>
    <polyline points="616.0,515.0 627.75,511.125 632.75,508.875 640.375,504.5 645.375,500.5 647.875,498.125 652.375,492.125 654.375,488.375 656.0,484.0 657.375,478.875 658.125,473.0 658.125,466.0 657.375,457.75 655.375,447.875 651.875,436.375 646.25,422.875 638.125,407.0"/>
    <polyline points="626.75,388.875 611.375,368.5 591.25,346.25 566.0,323.625 535.75,302.25 501.5,285.25 465.25,275.625 430.0,275.875 398.75,287.0 373.875,308.125 356.0,336.25 344.625,368.125 338.5,400.625 336.25,431.5 336.375,459.625 337.875,484.375 340.25,505.625 343.125,523.5 346.125,538.5 349.25,550.875 352.375,561.0 355.75,569.125 359.125,575.5 362.75,580.375 366.5,584.0 370.375,586.5"/>
    <polyline points="374.5,587.875 378.625,588.375 383.0,588.125 387.5,587.125 392.0,585.625 396.375,583.625 405.25,578.625 413.625,572.625 421.5,566.375 437.625,551.625 455.75,534.0"/>
    <polyline points="457.0,532.75 464.5,525.5 465.5,524.125 465.875,523.0 465.625,521.875 463.5,520.75"/>
    <polyline points="463.0,520.5 457.0,519.125 442.5,516.75 434.625,515.125"/>
    <polyline points="433.0,514.75 427.625,513.375 420.25,510.875 412.75,507.25 409.125,504.75 405.75,501.75 402.875,497.875 400.625,493.125 399.375,487.125 399.75,479.5 400.625,475.0 402.25,469.875"/>
    <polyline points="404.625,464.25 408.0,457.875 412.375,451.0 418.0,443.375 425.0,435.25 433.5,426.75 443.75,417.875 455.75,409.125 469.25,400.875 484.125,393.5 500.125,387.875 516.75,384.25 533.25,383.25 549.0,385.125 563.375,390.0 575.875,397.375 586.375,407.0 594.75,418.25 600.875,430.375 605.25,442.875 608.125,455.0 609.625,466.625 610.125,477.5 609.75,487.25 609.0,495.875 607.75,503.5"/>
    <polyline points="606.375,510.125 603.0,520.5 601.125,524.5 597.625,530.375 594.25,534.125 591.125,536.375 589.625,537.0 585.75,537.625 583.5,537.375 580.75,536.375 578.25,534.375 577.25,532.875"/>
    <polyline points="577.0,532.375 576.75,531.375 577.0,529.5 577.5,528.625 579.25,527.125 581.875,525.625 583.625,525.0 591.375,522.875"/>
    <polyline points="592.75,522.625 613.625,518.375 627.5,515.0 637.875,511.5 646.125,507.625"/>
    <polyline points="648.875,506.0 654.375,502.0 657.0,499.5 661.875,493.375 664.0,489.375 665.875,484.875 667.25,479.375 668.125,473.0 668.125,465.375 667.125,456.25 664.75,445.375 660.5,432.375 653.75,417.0 644.0,398.75 630.125,377.625 611.375,354.0 586.75,328.375 556.0,302.75 519.5,280.125 479.125,264.125 438.125,258.875 400.625,266.5 369.75,286.75 347.25,316.75"/>
    <polyline points="332.875,352.25 325.125,389.25 322.0,424.75 322.0,457.125 323.5,485.375 326.125,509.625 329.125,530.125 332.375,547.0 335.75,561.0 339.5,572.375 343.375,581.375 347.625,588.375 352.125,593.625 357.125,597.125 362.375,599.25 368.0,600.0 373.875,599.625 380.0,598.125 386.25,595.75 392.5,592.625 398.75,589.0 410.75,580.5 426.875,566.625"/>
    <polyline points="431.625,562.125 457.0,536.875 466.5,528.125 475.0,521.5 481.125,517.875 484.625,516.25"/>
    <polyline points="485.375,516.0 491.875,513.875 490.625,513.5 481.5,512.625"/>
    <polyline points="480.875,512.625 466.0,510.625 456.875,508.625"/>
    <polyline points="455.625,508.25 451.875,507.125 444.125,503.875 440.25,501.5 435.625,497.5 432.875,493.5 431.5,490.125 430.875,486.25 431.0,481.625"/>
    <polyline points="431.375,479.0 433.125,473.25 434.625,470.0 438.875,463.0 445.125,455.125 449.125,451.0 453.75,446.875 464.75,438.625 471.25,434.875 478.125,431.375 485.625,428.375 493.375,426.0 501.25,424.375 509.25,423.625 517.125,423.875 524.625,425.0 531.75,427.125 538.25,430.25 544.125,434.125 549.125,438.625 553.5,443.75 557.0,449.125"/>
    <polyline points="559.75,454.75 561.875,460.5 563.375,466.125 564.375,471.5 564.875,476.75 564.75,486.125 563.625,494.0 561.875,500.375 560.875,503.0 557.5,509.125 555.375,512.0 553.25,514.0 550.375,516.0 547.25,517.125"/>
    <polyline points="546.625,517.25 544.875,517.5 542.625,517.0 542.25,516.625 542.25,516.125 544.125,514.875"/>
    <polyline points="544.5,514.75 550.625,512.875 564.125,509.75"/>
    <polyline points="565.25,509.375 571.875,507.5 579.375,504.875 584.125,502.75 589.125,500.0 594.25,496.5 597.625,493.625 600.75,490.0 603.625,485.75"/>
    <polyline points="604.875,483.125 607.0,477.25 607.75,473.75 608.125,469.875 607.75,460.75 606.875,455.25 605.375,449.25 603.125,442.625 599.875,435.25 595.625,427.125 590.25,418.375 583.375,408.875 575.0,399.125 565.0,389.0 553.25,379.0 539.875,369.625 525.125,361.5 509.375,355.25 493.125,351.625 477.0,350.875 461.75,353.625 448.0,359.625 436.25,368.625 426.625,380.125"/>
    <polyline points="419.375,393.25 414.125,407.375 410.75,421.75 409.0,435.875 408.375,449.25 408.75,461.625 409.75,472.875 411.125,482.875 412.875,491.625 416.875,505.875 420.75,516.25 422.625,520.25 427.625,528.625 430.375,531.875 432.625,534.0 434.375,535.25 436.25,536.0"/>
    <polyline points="436.625,536.0 437.125,535.875 436.125,535.25 431.125,534.375 426.5,534.125 417.0,534.375"/>
    <polyline points="415.125,534.5 406.875,535.25 391.375,537.625 375.25,541.5 367.75,543.875 355.25,548.75 346.0,553.25 335.875,559.125 330.5,562.75"/>
    <polyline points="324.75,567.0 318.875,571.75 312.75,577.375 306.5,583.75 300.0,591.0 293.5,599.375 287.125,608.875 281.125,619.5 275.75,631.25 271.625,644.0 269.125,657.125 269.125,670.25 272.25,682.25 279.125,691.875 290.375,698.0 305.75,699.25 324.625,695.0 346.0,685.25 368.5,670.625 390.75,652.375 411.5,631.875 430.125,610.75 446.375,589.875 460.0,570.25 471.25,552.25 480.25,536.125"/>
    <polyline points="487.625,522.0 493.25,509.75 497.625,499.125 501.0,490.25 505.25,476.25 507.125,466.75 507.625,460.375 507.5,458.25 506.875,455.5 506.0,454.375 505.5,454.25 504.625,454.875 504.0,456.25 503.625,459.125 504.0,462.75"/>
    <polyline points="504.25,464.0 505.5,467.625 507.375,471.0 511.375,475.875 515.25,479.0 518.375,480.75 523.75,482.75 526.0,483.25"/>
    <polyline points="527.0,483.5 530.375,483.875 534.875,483.875 541.5,482.625 544.625,481.5 547.625,479.875 550.375,477.75 552.875,475.125"/>
    <polyline points="553.625,474.0 555.375,470.5 556.125,467.75 556.375,462.875 556.0,459.25 555.0,455.25 551.875,448.5 546.875,441.5 542.375,436.75 539.75,434.5 533.75,430.375 530.5,428.5 527.125,427.0"/>
    <polyline points="523.625,425.75 520.0,424.75 512.625,423.875 509.0,424.0 505.5,424.625 502.125,425.625 499.0,427.0 493.375,431.0 489.0,436.125 485.875,442.125 484.75,445.375 483.5,451.875 483.125,458.25 483.75,464.375 484.875,470.0 487.625,477.25"/>
    <polyline points="488.75,479.375 489.875,481.375 493.5,486.375 496.125,489.125 500.0,492.375 503.875,494.875 509.0,497.375 515.0,499.375 519.75,500.375"/>
    <polyline points="520.875,500.5 528.875,501.375 536.875,501.375 544.0,500.75 550.25,499.625"/>
    <polyline points="551.625,499.375 556.875,498.0 563.75,495.375 569.375,492.375 573.5,489.375 577.375,485.5 579.75,482.375 581.75,478.625 583.25,474.125"/>
    <polyline points="583.75,471.5 584.125,468.75 584.125,462.5 583.75,458.875 581.75,450.875 577.875,441.5 575.125,436.375 571.625,430.875 567.5,425.25 562.625,419.375 557.0,413.5 550.5,407.75 543.125,402.125 535.125,397.0 526.5,392.625 517.375,389.125 508.0,386.75 498.625,385.625 489.375,386.125 480.625,388.125 472.625,391.625 465.5,396.375 459.25,402.5"/>
    <polyline points="454.125,409.5 450.125,417.25 447.125,425.375 445.0,433.625 443.75,441.875 443.125,449.875 443.125,457.375 443.625,464.5 444.5,471.0 446.875,482.375 448.375,487.25 451.5,495.375 454.75,501.75 457.875,506.5 462.125,511.5 467.75,515.875"/>
    <polyline points="468.625,516.375 471.375,517.625 474.0,518.125 470.875,517.25"/>
    <polyline points="470.375,517.125 456.625,514.875 444.875,512.375"/>
    <polyline points="443.375,512.0 435.75,509.625 429.375,506.875 426.125,505.0 421.625,501.75 419.0,498.875 416.625,495.375 415.0,491.25 414.375,488.75 414.125,483.0 415.25,476.125"/>
    <polyline points="416.5,472.0 418.375,467.625 424.0,457.625 428.125,452.0 433.0,446.125 439.0,439.875 446.125,433.5 454.25,427.125 463.5,420.875 473.625,415.125 484.75,410.125 496.625,406.125 508.75,403.5 520.875,402.5 532.625,403.375 543.75,406.0 553.75,410.375 562.625,416.375 570.0,423.625 576.125,431.75 580.75,440.5 584.25,449.375 586.625,458.25 588.0,466.75 588.75,474.75"/>
    <polyline points="588.75,482.25 588.375,489.0 586.625,500.375 584.125,509.125 581.375,515.5 577.125,521.75 573.375,525.0 570.125,526.5 568.375,526.75 566.375,526.625 564.5,525.625"/>
    <polyline points="564.25,525.375 563.75,524.125 564.0,523.125 566.0,521.25 570.625,519.125 575.5,517.625"/>
    <polyline points="576.625,517.375 592.25,512.875 601.25,509.75 611.25,505.0 615.5,502.375 619.625,499.25"/>
    <polyline points="621.625,497.375 625.625,492.875 629.0,487.125 630.5,483.75 631.75,479.875 632.625,475.375 633.125,470.25 633.0,464.375 632.25,457.625 630.625,450.0 628.0,441.125 624.0,431.125 618.25,419.75 610.625,406.875 600.5,392.875 587.75,377.75 572.0,362.0 553.0,346.5 531.25,332.5 507.125,321.25 481.875,314.5 457.0,313.5 434.0,318.875 414.25,330.5"/>
    <polyline points="398.375,347.25 386.875,367.5 379.125,389.75 374.625,412.25 372.625,433.875 372.375,454.0 373.375,472.0 375.0,487.875 377.25,501.5 379.625,513.25 382.0,523.0 386.875,538.0 391.5,548.0 393.625,551.5 397.75,556.5 401.375,559.125 404.75,560.375 407.875,560.5 410.625,559.875"/>
    <polyline points="411.875,559.5 415.25,557.625 417.0,556.25 419.125,554.125 420.5,552.125 421.25,549.875 421.125,549.0 420.375,547.875 418.875,547.125 417.5,546.875"/>
    <polyline points="416.625,546.75 414.875,546.625 410.25,547.0 402.75,548.5 397.125,550.125 390.875,552.375 381.25,556.75 370.375,563.125"/>
    <polyline points="367.5,565.125 358.375,572.25 352.25,578.0 346.25,584.875 340.75,592.625 336.25,601.125 334.5,605.625 333.375,610.0 332.75,614.375 332.875,618.5 333.75,622.375 335.625,625.625 338.375,628.125 342.25,629.75 347.0,630.375 352.75,629.875 359.375,628.25 366.625,625.375 374.5,621.375 382.625,616.25"/>
    <polyline points="390.875,610.375 399.0,603.875 407.125,596.875 422.125,582.5 435.25,568.5 463.875,535.75 473.25,525.5 482.875,516.75 486.75,513.875 493.375,510.375"/>
    <polyline points="494.875,509.75 498.875,508.5 504.75,507.5 516.0,507.375 520.125,507.625"/>
    <polyline points="521.0,507.625 533.125,507.625 542.375,506.875"/>
    <polyline points="543.375,506.75 549.75,505.875 559.5,503.75 567.75,501.125 575.125,497.75"/>
    <polyline points="576.625,496.875 579.625,495.0 585.625,490.125 588.375,486.875 590.875,483.0 593.0,478.375 593.75,475.75 594.75,469.5 594.875,465.875 594.125,457.625 593.0,452.875 591.375,447.625 589.125,442.0 586.25,435.875 582.5,429.25 577.75,422.25 572.0,414.875"/>
    <polyline points="565.25,407.375 557.375,399.75 548.25,392.375 538.125,385.5 527.0,379.5 515.25,374.75 503.0,371.5 490.875,370.375 479.0,371.375 468.0,374.625 458.0,379.875 449.5,387.25 442.5,396.0 437.0,405.875 432.875,416.375 430.125,427.25 428.5,437.875 427.75,448.125 427.875,457.75 428.5,466.75 429.5,474.875 430.875,482.125 434.125,494.375 437.75,503.75"/>
    <polyline points="439.5,507.375 442.875,513.375 447.25,519.125 449.625,521.625 451.625,523.25 454.5,524.875 456.125,525.25 454.875,524.625"/>
    <polyline points="454.5,524.5 446.625,523.0 423.75,520.125"/>
    <polyline points="421.75,519.875 408.75,517.625 396.75,514.5 391.875,512.625 386.875,510.25 382.25,507.125 377.875,503.125 376.0,500.75 374.375,497.875 373.0,494.625 372.0,490.75 371.5,486.375 371.625,481.25"/>
    <polyline points="372.625,475.25 374.5,468.375 377.75,460.375 382.375,451.125 389.0,440.625 397.75,428.75 409.25,415.625 423.625,401.5 441.375,387.0 462.375,372.75 486.125,360.25 512.125,350.875 538.875,345.875 564.75,346.625 588.375,353.25 608.25,365.5 624.0,382.125 635.375,401.5 643.0,422.0 647.5,442.5 649.75,461.875 650.125,479.5 649.5,495.25 648.0,508.875 646.0,520.5 643.625,530.25"/>
    <polyline points="641.0,538.375 638.375,545.0 635.625,550.375 632.75,554.625 629.75,558.0 626.875,560.375 623.875,562.125 620.875,563.125 617.875,563.625 614.875,563.75 608.875,562.875 606.0,562.0 600.375,559.625 590.25,553.5 585.75,550.25 576.5,542.5"/>
    <polyline points="575.0,541.125 567.875,534.0 563.875,528.875 562.625,526.375 562.375,525.25 562.625,523.375 563.25,522.25"/>
    <polyline points="563.625,521.875 566.125,520.125 570.75,518.25 588.25,513.125"/>
    <polyline points="589.875,512.625 600.5,508.875 608.375,505.125 612.5,502.625 616.625,499.625 620.625,495.875 622.5,493.625 626.0,488.375 627.625,485.125 628.875,481.625 630.625,472.875 630.875,467.5 630.5,461.375"/>
    <polyline points="629.375,454.375 627.375,446.375 624.25,437.25 619.625,427.0 613.375,415.375 605.0,402.375 594.125,388.375 580.625,373.375 564.25,358.25 544.875,343.75 522.875,331.125 499.125,321.75 474.75,317.0 451.25,318.0 429.875,325.125 411.875,337.875 397.75,355.125 387.5,375.375 380.875,397.0 377.25,418.625 375.75,439.125 375.75,458.125 376.875,475.0 378.75,489.875 380.875,502.75 383.25,513.625"/>
    <polyline points="385.625,522.875 390.375,536.875 392.75,542.0 394.875,546.25 397.0,549.5 398.875,552.125 400.75,554.125 402.5,555.625 405.75,557.5 410.0,558.125 412.5,557.625 415.375,556.375 417.0,555.25 419.5,552.25"/>
    <polyline points="419.75,551.75 420.125,550.25 419.375,548.75 418.125,548.0 415.25,547.5 408.75,548.0 401.0,549.75"/>
    <polyline points="399.25,550.25 389.25,554.0 379.625,558.625 374.375,561.625 368.875,565.375 360.25,572.125 351.625,580.75 346.125,587.625 341.25,595.25 337.625,603.5"/>
    <polyline points="336.5,607.625 335.875,611.625 335.875,615.5 336.625,619.125 338.25,622.125 340.625,624.625 344.0,626.375 348.25,627.125 353.5,626.875 359.375,625.625 366.0,623.25 373.125,619.875 380.625,615.5 388.375,610.25 396.0,604.5 411.0,591.5 418.125,584.75 436.875,565.25 459.625,539.5"/>
    <polyline points="463.125,535.625 469.25,529.0 476.75,521.75 481.0,518.25 484.75,515.625 489.5,512.875 494.875,510.75 498.375,509.875 504.125,509.25"/>
    <line x1="505.0" x2="521.875" y1="509.125" y2="509.5"/>
    <polyline points="522.5,509.5 530.0,509.5 539.75,508.75"/>
    <polyline points="540.625,508.625 549.25,507.5 558.375,505.625 569.125,502.375"/>
    <polyline points="570.625,501.875 575.125,499.875 579.75,497.375 585.875,493.0 588.875,490.125 591.625,486.75 593.0,484.75 595.25,480.25 596.875,474.625 597.5,471.5 597.75,467.875 597.25,459.625 596.375,454.875 595.0,449.625"/>
    <polyline points="592.875,443.875 590.125,437.625 586.5,430.875 582.0,423.625 576.375,416.0 569.625,408.0 561.625,399.875 552.375,391.875 542.0,384.25 530.375,377.5 518.0,372.0 505.125,368.125 492.0,366.25 479.25,366.75 467.375,369.75 456.5,375.125 447.25,382.625 439.625,391.875 433.5,402.375 429.125,413.625 426.125,425.125 424.375,436.5 423.625,447.375 423.625,457.75 424.375,467.25 425.5,475.875"/>
    <polyline points="426.875,483.5 428.5,490.375 432.125,501.5 433.875,506.0 437.5,513.125 440.625,518.125 443.5,521.75 446.875,525.0 449.375,526.625 451.25,527.375 451.625,527.25"/>
    <polyline points="451.375,527.125 448.125,526.125 440.375,525.0 424.75,523.625"/>
    <polyline points="422.875,523.5 402.625,521.625 391.875,520.125 380.25,517.875 374.25,516.25 368.25,514.125 362.375,511.125 359.5,509.375 356.875,507.25"/>
    <polyline points="354.25,504.625 352.0,501.75 350.125,498.25 348.625,494.0 347.625,489.0 347.5,483.125 348.375,476.0 350.625,467.375 354.5,457.25 360.5,445.125 369.375,431.0 381.625,414.5 398.125,396.0 419.5,375.75 446.25,355.125 478.0,335.875 513.625,320.75 551.0,312.625 587.125,313.625 618.875,324.625 644.25,344.375 662.625,370.25 674.5,399.25 681.25,428.625 684.25,456.375 684.625,481.5"/>
    <polyline points="683.5,503.625 681.375,522.5 678.625,538.5 675.375,551.75 671.75,562.625 667.75,571.375 663.375,578.25 658.625,583.375 653.5,587.125 648.125,589.375 642.5,590.5 636.625,590.375 630.5,589.5 624.375,587.625 618.25,585.125 612.125,582.125 600.375,574.875 589.5,566.875 579.75,558.75 563.875,544.25"/>
    <polyline points="560.5,541.125 545.375,527.125 538.375,521.5 535.625,519.5 529.0,515.75 523.625,513.75"/>
    <polyline points="523.0,513.5 517.625,512.5 513.625,512.25"/>
    <line x1="513.375" x2="504.375" y1="512.25" y2="512.125"/>
    <line x1="504.125" x2="496.375" y1="512.125" y2="512.0"/>
    <line x1="496.0" x2="481.5" y1="512.0" y2="511.125"/>
    <polyline points="480.75,511.125 466.75,509.25 455.25,506.375"/>
    <polyline points="454.0,505.875 450.375,504.5 445.375,502.0 441.875,499.5 438.75,496.375 436.25,492.5 434.75,487.5 434.5,483.375 435.25,478.75 437.0,473.25"/>
    <polyline points="438.375,470.375 442.375,463.875 445.0,460.375 451.875,453.0 456.0,449.25 466.0,442.0 471.75,438.625 478.0,435.5 484.625,432.75 491.625,430.625 498.625,429.125 505.875,428.25 512.875,428.25 519.75,429.125 526.25,430.75 532.375,433.25 537.875,436.375 542.75,440.125 546.875,444.5 550.5,449.125 553.375,454.125 555.625,459.125 557.25,464.25"/>
    <polyline points="558.5,469.25 559.25,474.0 559.5,478.5 559.625,482.875 559.375,486.75 558.25,493.75 555.625,501.875 552.5,507.5 549.375,511.125 545.625,514.0 543.125,515.125 541.125,515.625"/>
    <polyline points="540.5,515.75 537.875,515.75 536.5,515.25 536.375,514.875 537.625,514.0"/>
    <polyline points="537.875,513.875 539.625,513.25 553.25,510.5"/>
    <polyline points="554.25,510.25 564.375,507.875 574.0,504.875 583.375,500.75 588.25,497.75"/>
    <polyline points="589.875,496.625 591.625,495.375 596.375,490.75 600.625,484.625 602.875,479.25 604.375,472.875 604.75,469.0 604.75,464.75 604.25,460.125 603.375,454.875 601.875,449.125 599.625,442.625 596.5,435.625 592.375,428.0 587.25,419.625 580.75,410.875 572.875,401.625 563.375,392.125 552.5,382.875 540.0,374.125"/>
    <polyline points="526.375,366.5 511.75,360.625 496.625,356.875 481.5,355.875 467.125,358.0 454.0,363.0 442.625,370.875 433.125,381.0 425.625,392.875 420.25,405.875 416.625,419.25 414.375,432.5 413.5,445.25 413.5,457.25 414.25,468.125 415.5,478.0 418.875,494.375 420.75,501.0 424.625,511.625 428.25,519.25 433.0,526.5"/>
    <polyline points="434.375,528.125 438.625,531.875 440.5,532.875 441.75,533.0 441.0,532.5 438.875,531.875 434.5,531.375"/>
    <polyline points="433.375,531.25 426.75,530.875 420.0,530.875 407.375,531.375 394.25,532.5 378.5,534.625"/>
    <polyline points="375.0,535.25 359.25,538.75 345.625,543.125 335.375,547.125 324.0,552.75 317.875,556.25 304.5,565.375 297.25,571.25 289.625,578.125 281.625,586.375 273.375,596.125 264.875,607.625 256.375,621.125 248.5,636.625 241.75,654.0 237.0,673.125 235.75,692.625 239.375,711.125"/>
    <polyline points="249.25,726.25 266.375,735.125 290.5,735.375 320.0,725.875 352.25,707.125 384.5,681.5 414.125,651.625 439.625,620.625 460.625,590.375 477.125,562.5 489.625,537.375 498.5,515.5 504.5,496.5 508.125,480.25 509.625,466.625 509.625,455.125 508.375,445.625 506.0,438.0 502.875,431.875 499.25,427.375 495.375,424.25 491.25,422.5 487.125,421.875 483.125,422.375 479.375,423.75 476.125,426.125"/>
    <polyline points="473.125,429.125 470.75,432.75 468.75,436.75 467.25,441.125 466.125,445.625 465.5,450.125 465.25,459.25 466.25,467.625 467.125,471.625 469.25,478.625 471.875,484.625 474.625,489.5 477.5,493.625 480.375,497.0 483.25,499.625 487.25,502.625"/>
    <polyline points="488.5,503.375 494.125,506.375 498.125,507.75 503.75,509.125 509.5,509.875"/>
    <line x1="510.0" x2="521.625" y1="510.0" y2="510.625"/>
    <polyline points="522.125,510.625 528.5,510.5 536.0,509.875"/>
    <polyline points="536.625,509.875 550.625,508.0 561.0,505.625"/>
    <polyline points="562.375,505.375 573.625,501.5 581.375,497.5 586.125,494.25 590.625,490.0 593.375,486.375 595.875,482.0 597.75,476.75"/>
    <polyline points="598.5,473.625 599.0,470.25 598.875,462.375 597.25,452.75 595.5,447.25 593.125,441.125 590.0,434.5 585.875,427.375 580.75,419.75 574.5,411.625 567.0,403.375 558.25,395.0 548.125,386.875 536.875,379.375 524.5,373.0 511.5,368.0 498.0,365.0 484.625,364.25 471.875,366.125 460.125,370.5 449.875,377.25 441.25,386.0 434.25,396.25 429.0,407.625"/>
    <polyline points="425.375,419.375 423.0,431.25 421.875,442.75 421.625,453.625 422.125,463.75 423.0,472.875 424.375,481.125 427.75,494.875 431.375,505.375 435.0,513.0 438.375,518.5 442.5,523.75 446.5,527.125 448.875,528.25"/>
    <polyline points="449.25,528.375 449.75,528.375 448.5,527.75 445.375,527.0 432.375,525.625"/>
    <polyline points="430.875,525.5 396.0,523.375 384.375,522.375 368.25,520.125"/>
    <polyline points="364.875,519.5 354.5,516.875 347.625,514.25 341.0,510.5 337.875,508.125 335.0,505.25 332.5,501.75 330.375,497.625 329.0,492.5 328.375,486.25 328.75,478.625 330.75,469.25 334.625,457.75 341.25,443.875 351.25,427.0 365.75,407.0 386.0,383.75 412.875,358.125 447.125,331.875 488.25,308.0 534.25,290.75 581.125,284.625"/>
    <polyline points="624.0,292.25 658.875,313.375 684.0,344.625 699.75,381.125 708.25,418.625 711.75,454.0 712.0,485.875 710.375,513.5 707.625,537.0 704.125,556.625 699.75,573.0 694.875,586.125 689.125,596.5 682.5,604.375 675.125,609.75 667.0,612.875 658.125,613.75 648.75,612.75 639.0,610.125 629.125,605.875 619.25,600.5 609.75,594.375 600.625,587.5 592.125,580.375 576.75,566.25"/>
    <polyline points="570.125,559.375 558.5,547.0 535.75,521.5 528.625,514.375 521.625,508.875 518.75,507.25 515.0,505.75 509.625,504.75"/>
    <polyline points="508.625,504.75 505.75,504.625 493.5,505.375 486.625,505.375"/>
    <polyline points="485.75,505.375 479.25,505.0 472.5,504.0 466.375,502.5 461.375,500.625"/>
    <polyline points="460.375,500.125 455.5,497.25 452.125,494.125 450.75,492.25 448.875,487.5 448.625,484.75 448.75,481.625 449.625,478.0 451.25,474.125 453.875,469.875"/>
    <polyline points="455.5,467.625 459.625,463.0 464.875,458.375 471.25,453.875 474.875,451.875 478.75,450.0 487.125,447.0 495.875,445.125 500.375,444.75 509.125,445.25 513.25,446.125 520.875,449.125 524.25,451.25 527.25,453.5 532.25,458.875 534.25,461.875 537.25,468.0"/>
    <polyline points="538.25,471.125 539.5,477.125 539.75,482.625 539.625,485.25 538.875,489.875 537.75,494.0 535.5,498.875 532.0,503.5 530.25,505.25 527.625,507.125 524.375,508.875"/>
    <polyline points="523.625,509.125 517.0,510.875 509.625,511.5"/>
    <line x1="509.25" x2="499.0" y1="511.5" y2="511.625"/>
    <line x1="498.625" x2="484.25" y1="511.625" y2="511.0"/>
    <polyline points="483.5,511.0 470.5,509.5 459.5,507.125"/>
    <polyline points="458.25,506.75 451.0,504.25 446.125,501.75 441.625,498.375 439.625,496.25 437.125,492.375 436.0,489.25 435.5,485.5 435.625,481.25"/>
    <polyline points="436.125,478.875 436.75,476.375 439.125,470.625 443.0,464.375 448.625,457.5 452.125,453.875 456.25,450.25 460.75,446.625 471.5,439.75 477.5,436.75 483.875,434.0 490.625,431.875 497.5,430.25 504.5,429.375 511.375,429.25 518.125,430.0 524.5,431.5 530.5,433.75 535.875,436.625 540.75,440.25 545.0,444.375 548.625,448.875"/>
    <polyline points="551.625,453.625 555.75,463.375 557.0,468.25 558.25,477.5 558.375,481.75 557.75,489.375 556.375,495.625 554.625,500.875 551.625,506.5 548.5,510.375 546.5,512.125 543.875,513.875 542.25,514.5"/>
    <polyline points="541.5,514.75 539.0,515.375 537.125,515.5 535.625,515.25 534.875,514.625 535.375,514.0 537.875,513.125 547.125,511.25"/>
    <polyline points="548.0,511.125 563.375,507.75 568.625,506.25 577.5,503.0"/>
    <polyline points="579.0,502.375 587.125,498.0 590.375,495.625 595.125,491.25 598.125,487.5 600.625,482.875 602.75,477.375 603.5,474.125 604.0,466.5 603.75,462.0 603.125,457.0 601.875,451.5 597.25,438.75 593.625,431.375"/>
    <polyline points="588.875,423.5 583.0,415.0 575.875,406.0 567.25,396.75 557.0,387.5 545.375,378.625 532.375,370.625 518.375,364.0 503.625,359.25 488.625,357.0 474.125,357.625 460.5,361.25 448.375,367.75 438.125,376.75 429.875,387.75 423.625,400.125 419.125,413.25 416.25,426.375 414.875,439.25 414.375,451.5 414.875,462.75 415.875,473.0 417.25,482.25 418.875,490.25 422.625,503.5"/>
    <polyline points="424.625,508.75 428.375,517.0 433.25,524.875 434.625,526.75 438.125,530.25 440.625,531.875 441.75,532.375 442.625,532.375 440.875,531.625"/>
    <polyline points="440.25,531.5 436.125,530.75 428.75,530.25 416.5,530.25 400.25,531.0"/>
    <polyline points="397.5,531.25 388.75,532.0 375.5,533.75 368.0,535.0 355.625,537.75 346.5,540.375 336.375,543.75 325.25,548.5 312.875,555.125 306.125,559.375 299.0,564.5 291.375,570.5 283.375,577.75 274.875,586.5"/>
    <polyline points="266.0,596.875 256.875,609.125 247.75,623.75 239.25,640.75 231.875,660.0 227.0,681.125 226.125,702.875 231.0,723.125 243.375,738.875 264.0,747.0 292.5,744.625 326.375,731.0 362.25,707.375 396.75,676.875 427.5,643.0 453.0,608.875 473.125,576.625 488.25,547.375 499.0,521.625 506.125,499.25 510.125,480.125 511.625,463.875 511.125,450.25 508.875,439.0 505.5,429.875 501.0,422.75"/>
    <polyline points="496.0,417.5 490.5,414.0 484.875,412.25 479.375,412.0 474.125,413.25 469.375,415.625 465.125,419.25 461.625,423.625 458.75,428.75 456.5,434.375 454.875,440.25 453.5,452.0 453.5,457.75 454.5,468.5 456.625,477.875 459.375,485.75 464.0,494.875 468.625,501.25"/>
    <polyline points="470.125,502.875 475.625,507.75 479.125,510.0 483.875,512.125 486.75,513.0 490.625,513.625"/>
    <polyline points="491.0,513.75 491.875,513.75 488.625,513.375"/>
    <line x1="488.25" x2="471.625" y1="513.25" y2="511.5"/>
    <polyline points="470.75,511.375 460.0,509.375 452.625,507.375 444.875,504.25 441.125,502.125"/>
    <polyline points="439.875,501.25 436.375,498.25 434.25,495.75 431.875,491.25 431.375,489.5 430.75,485.375 430.75,483.125 431.625,478.0 433.625,472.125 435.25,468.75 439.875,461.5 442.875,457.625 446.5,453.625 455.625,445.25 461.0,441.125 467.125,437.25"/>
    <polyline points="473.75,433.5 480.875,430.125 488.5,427.375 496.25,425.25 504.25,424.0 512.25,423.625 520.0,424.125 527.375,425.75 534.25,428.25 540.5,431.625 546.125,435.75 550.875,440.5 554.875,445.75 558.125,451.25 560.625,456.875 562.5,462.625 563.75,468.125 564.875,478.625 564.625,487.625 563.25,495.25 561.5,501.375 560.375,503.875"/>
    <polyline points="559.375,506.125 557.125,509.75 555.0,512.375 551.0,515.625 547.0,517.25 545.25,517.5 543.25,517.25 542.25,516.5 542.625,515.625 544.25,514.75 550.875,512.875"/>
    <polyline points="551.75,512.625 561.125,510.5 571.0,507.75 575.375,506.375 581.5,503.875"/>
    <polyline points="583.125,503.125 588.125,500.625 594.875,496.0 598.125,493.0 601.375,489.25 604.125,484.75 605.375,482.125 607.25,476.0 607.875,472.375 608.25,468.375 608.125,463.75 607.5,458.75 606.375,453.125 604.625,446.875 602.0,439.875 598.5,432.25 593.75,423.875"/>
    <polyline points="587.875,414.875 580.375,405.25 571.375,395.25 560.75,385.25 548.375,375.375 534.5,366.5 519.375,359.0 503.25,353.625 487.0,351.0 471.125,351.5 456.5,355.5 443.375,362.625 432.375,372.625 423.625,384.875 417.125,398.5 412.625,412.75 410.0,427.125 408.625,441.0 408.375,454.0 409.0,466.0 410.25,476.75 411.75,486.25 413.625,494.625 415.625,501.875 419.5,513.375"/>
    <polyline points="421.5,517.875 425.125,524.75 429.625,531.0 432.0,533.5 433.875,534.875 435.875,535.875 437.125,535.875 436.375,535.375 434.125,534.75"/>
    <polyline points="433.375,534.625 429.625,534.25 423.125,534.125 410.375,534.875 398.625,536.375 387.25,538.5"/>
    <polyline points="384.125,539.25 377.375,540.875 362.25,545.875 353.625,549.5 339.125,557.125 328.375,564.25 322.625,568.75 316.625,573.75 310.375,579.625 304.0,586.375 297.625,594.0 291.125,602.75 284.875,612.75 279.0,623.875 274.125,636.0 270.5,648.875 268.875,662.125 269.875,674.875"/>
    <polyline points="274.375,686.25 282.875,694.625 295.625,699.125 312.375,698.375 332.375,692.0 354.375,680.25 376.875,664.125 398.75,644.875 418.75,624.0 436.5,602.875 451.75,582.375 464.375,563.375 474.875,546.0 483.25,530.625 489.875,517.25 495.0,505.625 499.0,495.625 502.0,487.25 505.75,474.25 506.75,469.25 507.625,462.125 507.625,459.5 507.125,456.125"/>
    <polyline points="506.75,455.25 506.25,454.625 505.375,454.375 504.5,455.125 504.0,456.5 503.625,459.625 504.375,464.375 505.25,466.875 507.0,470.375 509.125,473.5 511.75,476.25"/>
    <polyline points="512.75,477.0 514.625,478.5 517.75,480.375 519.75,481.375 524.125,482.875 528.625,483.75 530.875,483.875 534.125,483.875 539.75,483.125"/>
    <polyline points="540.75,482.75 544.0,481.75 548.0,479.625 551.625,476.625 553.875,473.625 555.5,470.0 556.375,465.625 556.25,460.375 555.375,456.5"/>
    <polyline points="554.625,454.375 552.75,450.0 548.125,442.875 546.125,440.5 541.375,435.875 538.625,433.625 532.625,429.625 529.25,427.875 522.25,425.25 514.875,424.0 511.25,423.875 507.625,424.25 500.875,426.125 495.0,429.625 490.25,434.375 488.375,437.25"/>
    <polyline points="486.75,440.25 484.5,446.5 483.75,449.75 483.125,456.25 483.875,465.5 485.25,471.0 488.0,478.0 491.5,483.75 494.0,486.875 497.875,490.75 503.125,494.375"/>
    <polyline points="504.375,495.125 510.625,498.0 516.625,499.75 521.25,500.625 527.0,501.25 533.875,501.375"/>
    <polyline points="535.0,501.375 545.75,500.5 554.75,498.625 563.0,495.75 567.125,493.625"/>
    <polyline points="568.5,492.875 572.625,490.0 575.375,487.625 577.875,484.875 580.125,481.625 582.0,477.75 583.5,473.125 584.0,470.5 584.25,464.5 584.0,461.125 582.5,453.375 579.25,444.5 576.875,439.5 573.75,434.25 570.125,428.75 565.75,423.0"/>
    <polyline points="560.5,417.125 554.5,411.25 547.625,405.5 540.125,400.125 531.875,395.25 523.0,391.125 513.75,388.0 504.375,386.125 495.0,385.625 485.875,386.75 477.375,389.25 469.75,393.375 462.875,398.75 457.125,405.125 452.5,412.5 448.875,420.375 446.125,428.625 444.375,436.875 443.375,445.0 443.25,460.25 443.875,467.125 444.875,473.5 446.125,479.25 449.0,489.0"/>
    <polyline points="450.625,493.125 455.375,502.75 458.5,507.25 461.375,510.625 463.875,513.0 467.125,515.5 471.625,517.75 474.0,518.125 471.25,517.25 461.625,515.625"/>
    <polyline points="460.625,515.5 448.625,513.25 439.875,511.0 432.0,508.125 425.625,504.75"/>
    <polyline points="424.125,503.625 419.75,499.875 417.375,496.625 415.375,492.625 414.25,487.75 414.125,485.0 414.75,478.375 415.625,474.625 417.125,470.5 419.25,465.875 422.0,461.0 425.5,455.625 429.875,449.875 435.125,443.875 441.5,437.5 449.0,431.125 457.5,424.75 467.125,418.75 477.75,413.125 489.125,408.5"/>
    <polyline points="501.0,405.0 513.125,403.0 525.25,402.625 536.75,404.125 547.5,407.5 557.125,412.5 565.5,419.0 572.375,426.5 577.875,435.0 582.125,443.75 585.125,452.625 587.125,461.375 588.375,469.75 588.75,477.625 588.625,484.75 588.125,491.25 587.25,497.0 586.125,502.125 583.625,510.375 582.25,513.625 579.375,518.75 576.625,522.25 575.25,523.5"/>
    <polyline points="574.0,524.5 571.75,525.875 568.875,526.75 566.125,526.5 564.75,525.875 563.75,524.375 563.875,523.375 565.25,521.75"/>
    <polyline points="565.75,521.5 567.875,520.25 573.75,518.125 592.75,512.625"/>
    <polyline points="594.5,512.125 605.875,507.75 614.125,503.25 618.25,500.25 622.375,496.625 628.0,489.125 630.875,482.375 632.0,478.25 632.75,473.625 633.125,468.25 632.75,462.125 631.75,455.0 629.75,447.0"/>
    <polyline points="626.625,437.75 622.125,427.25 615.75,415.25 607.25,402.125 596.25,387.625 582.5,372.125 565.5,356.375 545.5,341.375 522.875,328.125 498.25,318.375 473.0,313.5 448.625,314.75 426.625,322.375 408.25,336.0 393.875,354.125 383.75,375.375 377.25,397.75 373.75,420.125 372.375,441.25 372.625,460.625 373.875,477.875 375.875,492.875 378.125,505.875 380.5,516.875 383.0,526.0 385.5,533.75"/>
    <polyline points="387.875,540.0 390.125,545.125 394.5,552.5 398.5,557.0 400.375,558.375 403.75,560.0 407.0,560.5 409.75,560.125 412.375,559.25 417.25,556.0 418.75,554.5 420.625,551.875"/>
    <polyline points="420.875,551.25 421.125,549.25 420.5,548.125 419.125,547.25 417.875,546.875 413.375,546.75 409.625,547.125 402.0,548.75"/>
    <polyline points="400.125,549.25 394.25,551.125 382.75,556.0 372.125,562.0 363.25,568.25 357.125,573.375 351.0,579.375 348.0,582.75 342.375,590.25 339.875,594.25 337.5,598.5 335.625,602.875"/>
    <polyline points="334.125,607.375 333.125,611.75 332.75,616.125 333.25,620.125 334.5,623.625 336.75,626.625 340.0,628.875 344.25,630.125 349.375,630.25 355.5,629.25 362.375,627.125 369.875,623.75 377.75,619.25 386.0,613.875 394.25,607.75 410.25,594.0 424.875,579.5 437.75,565.75 461.5,538.375"/>
    <polyline points="465.125,534.25 471.5,527.375 479.25,519.75 487.5,513.5 492.375,510.75 496.75,509.125 502.875,507.75 508.125,507.375"/>
    <line x1="509.125" x2="529.875" y1="507.375" y2="507.75"/>
    <polyline points="530.75,507.75 539.5,507.25 547.5,506.25 555.625,504.75"/>
    <polyline points="556.875,504.375 563.5,502.625 569.125,500.625 572.125,499.375 578.125,496.125 582.625,492.875 585.625,490.125 589.75,485.125 592.0,481.0"/>
    <polyline points="593.0,478.5 593.875,475.875 594.875,469.625 595.0,466.125 594.25,457.875 591.625,447.875 589.375,442.25 586.5,436.125 582.75,429.625 578.125,422.5 572.375,415.25 565.625,407.625 557.75,400.0 548.75,392.625 538.625,385.625 527.5,379.625 515.75,374.75 503.5,371.5 491.25,370.25 479.375,371.125 468.25,374.25 458.25,379.5 449.625,386.75"/>
    <polyline points="442.625,395.5 437.0,405.375 432.875,416.0 430.0,426.75 428.375,437.5 427.625,447.75 427.625,457.5 428.25,466.5 429.375,474.625 432.25,488.5 434.0,494.25 437.5,503.625 441.0,510.625 445.625,517.625 449.5,521.625 453.125,524.25"/>
    <polyline points="453.75,524.625 455.25,525.25 456.0,525.25 453.25,524.25 445.25,523.0"/>
    <polyline points="444.125,522.75 421.5,520.0 410.75,518.25 396.375,514.625"/>
    <polyline points="393.875,513.75 388.875,511.625 384.0,509.0 379.5,505.5 377.375,503.375 375.375,500.875 373.75,498.0 372.375,494.75 371.375,491.0 370.875,486.5 371.0,481.375 371.875,475.5 373.75,468.5 377.0,460.5 381.625,451.25 388.25,440.625 397.0,428.625 408.5,415.5 423.0,401.25 440.875,386.5 462.0,372.25 486.125,359.5 512.25,350.0"/>
    <polyline points="539.25,345.0 565.5,345.75 589.25,352.5 609.25,364.875 625.0,381.75 636.5,401.375 644.125,422.25 648.625,442.875 650.75,462.375 651.125,480.125 650.375,495.875 648.875,509.625 646.75,521.25 644.375,531.125 641.875,539.25 639.125,545.875 636.25,551.25 633.375,555.5 630.375,558.75 627.375,561.25 624.375,562.875 621.25,563.875 618.25,564.375 615.125,564.5 609.125,563.375"/>
    <polyline points="606.125,562.5 603.25,561.375 595.0,557.0 590.0,553.75 585.5,550.375 579.5,545.5 571.625,538.375 568.125,534.875 563.5,529.375"/>
    <polyline points="563.0,528.625 561.625,526.125 561.375,525.0 561.625,522.75 562.75,521.25 564.75,519.875 569.125,518.125"/>
    <polyline points="570.125,517.75 587.75,512.625 596.25,509.625 603.875,506.375 607.875,504.25"/>
    <polyline points="609.875,503.0 613.875,500.25 617.875,496.75 621.625,492.375 623.375,489.75 626.5,483.625 627.625,479.875 628.5,475.625 629.0,470.75 629.125,465.25 628.5,458.875 627.125,451.75 624.75,443.5 621.125,434.125 616.125,423.625 609.375,411.875 600.375,398.875 589.0,384.75 575.0,370.125 558.0,355.5 538.375,341.75 516.375,330.25"/>
    <polyline points="493.0,322.375 469.375,319.25 446.875,321.875 426.75,330.25 410.125,343.875 397.25,361.375 388.125,381.5 382.375,402.625 379.25,423.375 378.125,443.125 378.375,461.25 379.625,477.375 381.5,491.5 383.625,503.75 386.0,514.125 388.375,522.875 390.75,530.125 395.25,541.0 399.375,548.125 401.25,550.625 404.75,554.0 407.875,555.625"/>
    <polyline points="409.25,556.125 411.75,556.375 413.875,556.0 416.5,554.875 418.375,553.375 419.625,551.375 419.75,550.0 419.5,549.25 418.875,548.75 416.625,547.875"/>
  </g>
</svg>
