<?xml version="1.0" encoding="utf-8" ?>
<svg xmlns="http://www.w3.org/2000/svg" xmlns:cc="http://creativecommons.org/ns" xmlns:dc="http://purl.org/dc/elements/1.1/" xmlns:ev="http://www.w3.org/2001/xml-events" xmlns:inkscape="http://www.inkscape.org/namespaces/inkscape" xmlns:rdf="http://www.w3.org/1999/02/22-rdf-syntax-ns" xmlns:sodipodi="http://sodipodi.sourceforge.net/DTD/sodipodi-0.dtd" xmlns:xlink="http://www.w3.org/1999/xlink" baseProfile="tiny" height="27.09333333cm" version="1.2" viewBox="0 0 1024.0 1024.0" width="27.09333333cm">
  <metadata>
    <rdf:RDF>
      <cc:Work>
        <dc:format>image/svg+xml</dc:format>
        <dc:source>vpype read './original_svgs/Strange Attractors #13.svg' linemerge linesimplify write './Strange Attractors #13.svg'
</dc:source>
        <dc:date>2024-08-05T01:35:18.005281</dc:date>
      </cc:Work>
    </rdf:RDF>
  </metadata>
  <defs/>
  <g fill="none" id="layer1" inkscape:groupmode="layer" inkscape:label="1" stroke="black" stroke-width="0.7mm" style="display:inline">
    <polyline points="459.375,804.375 389.5,777.0 328.375,769.375 269.5,776.75 208.875,794.25 147.125,816.625 90.25,835.0 50.5,838.125 41.0,815.25 65.625,764.375 114.625,693.875 171.0,617.375 220.375,545.0 255.875,481.75 275.875,428.25 281.375,383.5 275.375,346.625 260.75,317.375 241.5,296.375 221.375,284.875 204.5,284.0 193.875,294.125 191.125,314.0 195.75,341.375 206.125,372.875 220.0,405.625"/>
    <polyline points="235.25,437.125 250.25,465.75 264.0,490.75 276.0,512.0 286.375,529.625 295.125,543.75 302.5,555.0 308.75,563.375 314.5,569.5 319.625,573.75 324.5,576.125 329.375,577.125 334.25,576.875 339.375,575.5 344.5,573.5 349.875,570.75 361.0,564.0 389.375,545.125 405.125,535.375"/>
    <polyline points="410.0,532.5 419.25,527.5 431.75,521.75 439.0,518.875 448.875,515.625 457.25,513.5 464.5,512.25 472.75,511.25 481.0,510.875"/>
    <polyline points="482.375,510.875 494.25,511.125 502.75,511.875"/>
    <polyline points="503.125,511.875 508.25,512.625 509.5,513.0 510.75,513.875 511.0,514.5 511.0,516.875 510.625,519.75"/>
    <polyline points="510.625,520.0 510.25,522.5 510.25,526.375"/>
    <polyline points="510.25,526.75 511.0,529.75 512.0,531.375 513.5,532.5 515.125,533.125 518.5,533.375"/>
    <polyline points="519.625,533.375 527.75,531.875 532.625,530.375 538.75,528.0 551.375,522.625 569.5,513.875 585.625,505.5 617.0,488.25 684.875,449.75"/>
    <polyline points="698.375,442.375 710.75,435.875 721.375,430.75 729.625,427.25 735.125,425.875 738.0,426.5 738.0,429.25 735.5,433.75 730.875,439.625 724.625,446.625 717.25,454.125 700.625,469.625 692.125,477.0 683.625,483.875 667.625,495.875 653.375,505.125 646.75,508.875 640.625,512.125 629.625,516.875 624.625,518.625 615.5,521.125"/>
    <polyline points="611.375,521.875 604.0,522.75 597.375,522.875 591.5,522.5 584.0,521.25 577.75,519.5 570.875,516.75 563.375,512.125 560.75,509.625"/>
    <polyline points="560.0,508.75 558.0,506.25 557.0,504.5 555.875,501.75 555.125,498.875 554.875,495.875 555.0,491.625 556.625,483.0"/>
    <polyline points="557.0,481.625 560.375,469.0 561.5,463.125 562.0,458.625 561.875,450.625 560.75,444.125 558.125,436.125 556.125,431.375 553.25,426.0 549.375,419.75 544.375,412.5 537.625,403.875"/>
    <polyline points="528.875,393.75 517.375,381.625 502.375,366.875 482.875,349.125 457.75,327.75 425.5,302.5 385.25,273.25 336.375,241.25 280.375,209.75 221.5,184.375 167.875,173.0 129.0,183.0 111.875,216.75 116.375,269.375 136.0,331.5 162.0,393.875 187.5,450.625 208.5,499.0 223.875,538.75 233.5,570.5 238.625,595.25 240.625,613.875 240.75,627.0 240.5,635.125 241.125,638.5 243.5,637.5"/>
    <polyline points="248.25,632.375 289.125,584.625 315.375,555.25 350.25,517.375 376.125,490.625 393.875,474.25 398.5,470.75 406.25,465.625 409.625,463.875 415.375,462.0 420.5,461.5 425.125,461.875"/>
    <polyline points="427.25,462.375 431.5,463.75 437.5,466.375 457.125,476.125 463.25,478.625 470.0,480.875"/>
    <polyline points="471.25,481.125 474.625,482.0 479.625,482.625 483.625,482.5 486.75,481.75 488.625,480.625 489.75,479.5"/>
    <polyline points="490.0,479.125 490.75,477.625 491.125,476.0 491.125,474.0 490.0,469.125 488.75,466.25 486.875,463.0 483.5,457.875"/>
    <polyline points="482.375,456.5 477.125,450.5 468.0,441.875 458.375,434.375 452.75,430.625 443.625,425.25 437.125,422.125 427.375,418.375 421.25,417.0"/>
    <polyline points="418.375,416.625 413.25,416.875 411.0,417.5 409.125,418.375 407.5,419.625 406.25,421.125 404.75,425.0 404.75,430.0 405.25,432.75 407.25,438.625 410.25,444.875 416.375,454.125 418.625,457.125 423.625,462.75 434.0,472.625"/>
    <polyline points="436.625,474.75 446.75,481.875 458.25,488.25 466.25,491.625 474.75,494.5 484.25,496.5"/>
    <polyline points="485.5,496.75 490.5,497.25 496.0,497.125 500.125,496.125 502.625,494.75"/>
    <polyline points="503.0,494.5 505.0,492.0 506.0,489.25 506.375,485.0 505.875,481.125"/>
    <polyline points="505.75,480.25 503.875,474.25 501.625,469.25 496.0,460.0 491.625,454.25 486.0,447.75 478.5,440.375"/>
    <polyline points="475.625,437.625 465.375,428.875 452.625,419.5 437.5,410.125 426.375,404.25 420.625,401.75 409.125,397.625 403.625,396.25 398.375,395.375 393.5,395.25 389.0,395.625 385.125,396.75 382.0,398.625 379.5,401.25 377.75,404.5 376.875,408.5 376.625,412.875 377.25,417.75"/>
    <polyline points="378.5,423.0 380.375,428.5 382.75,434.0 388.75,445.25 396.0,455.875 399.875,460.875 407.75,470.0 419.625,481.375 427.25,487.5 434.375,492.5 447.125,499.875 452.75,502.5 460.5,505.5"/>
    <polyline points="462.75,506.375 469.125,508.375 479.5,510.875 496.375,513.75"/>
    <polyline points="497.0,513.875 504.125,515.5 506.625,516.625 508.0,518.0 509.125,521.125 509.375,525.375 509.875,528.125"/>
    <polyline points="509.875,528.5 510.375,529.875 511.5,531.5 513.875,533.125 516.0,533.625 518.875,533.625 524.75,532.75"/>
    <polyline points="526.625,532.25 531.375,530.875 541.0,527.25 549.625,523.5 567.25,515.125 602.5,496.375 695.75,443.75 719.875,431.25 728.875,427.25 735.25,425.375"/>
    <polyline points="738.75,425.5 739.375,427.875 737.375,432.0 733.125,437.625 727.125,444.5 711.875,459.875 694.625,475.375 686.125,482.375 677.875,488.875 662.375,500.0 655.375,504.5 642.5,511.75 636.625,514.5 626.125,518.625 617.0,521.25 612.875,522.0 605.25,523.0 598.625,523.125"/>
    <polyline points="595.625,523.125 587.5,522.125 582.875,521.125 576.875,519.25 573.5,517.875 569.125,515.625 564.5,512.5 560.25,508.375 558.5,505.75"/>
    <polyline points="558.125,504.875 557.25,503.125 556.5,500.25 556.125,497.375 556.25,493.25 558.125,485.125 561.125,477.125"/>
    <polyline points="561.75,475.75 568.625,460.375 571.75,451.625 573.0,446.5 573.75,440.625 573.5,433.625 572.875,429.5 571.625,424.875 569.625,419.5 566.625,413.25 562.25,405.75 556.125,396.75"/>
    <polyline points="547.375,385.875 535.375,372.125 518.625,355.0 495.625,333.25 464.125,305.875 421.625,271.5 365.5,230.125 294.625,183.625 212.125,138.625 129.125,108.5 64.375,109.75 34.875,152.125 43.0,228.375 74.875,319.375 112.875,407.5 144.875,483.75 166.0,545.75 176.0,594.625 177.0,632.125 172.5,659.625 166.25,677.25 161.875,685.125 162.5,683.0 170.0,671.25 184.375,651.5 203.875,625.875"/>
    <polyline points="226.375,597.125 249.375,567.875 270.75,539.75 289.375,514.25 304.75,491.625 316.875,472.125 326.0,455.875 332.625,442.5 340.0,423.75 343.0,414.0 343.875,412.0 344.875,411.75 346.0,412.875 355.375,428.25 363.0,439.5 367.375,445.375 376.875,457.0 386.75,467.75"/>
    <polyline points="391.75,472.625 401.5,481.5 410.875,488.875 419.625,494.875 431.5,501.75 438.5,505.125 451.0,509.875 461.25,512.875 473.25,515.375"/>
    <polyline points="475.0,515.75 492.625,518.625 498.875,520.375"/>
    <polyline points="499.25,520.625 501.25,521.5 502.875,522.625 505.0,525.125 505.75,526.625"/>
    <polyline points="505.875,526.875 506.625,528.875 508.5,532.25 509.875,533.5 512.625,534.625"/>
    <polyline points="513.375,534.875 517.375,535.0 520.25,534.625 528.5,532.5 541.875,527.375 557.5,520.25 571.625,513.125 589.5,503.625 638.125,476.375"/>
    <polyline points="652.75,468.0 698.25,442.125 712.125,434.625 724.25,428.5 733.875,424.125 740.875,421.875 744.625,422.125 745.25,424.5 743.0,429.0 738.5,435.25 724.25,450.875 715.625,459.25 697.625,475.75 680.25,490.0 664.5,501.625 650.75,510.25 638.75,516.5 633.375,518.75"/>
    <polyline points="628.375,520.625 619.375,523.125 611.5,524.5 604.625,525.0 595.75,524.5 588.375,523.125 580.5,520.625 573.0,516.875 568.625,513.625"/>
    <polyline points="567.75,512.875 564.375,508.75 563.5,507.0 562.875,505.25 562.375,501.75 562.625,499.125 563.875,495.5 564.875,493.625 567.0,491.0"/>
    <polyline points="567.875,490.125 569.875,488.375 572.375,486.75 577.25,484.75 583.875,483.625 589.625,483.625 597.0,484.75 606.625,487.375 619.375,492.5 636.625,501.375 647.5,507.875 660.25,516.125 675.25,526.5 692.875,539.5 713.5,555.625"/>
    <polyline points="737.25,575.375 764.0,599.125 793.125,626.625 823.125,657.125 851.5,688.625 874.5,718.0 888.375,740.875 890.25,753.375 879.375,753.25 858.375,740.75 831.125,718.625 802.125,690.875 774.75,660.875 751.125,631.375 732.125,603.875 717.75,579.125 707.75,557.375 701.375,538.375 698.0,522.125 697.125,508.0 697.75,496.0 699.625,486.0 702.0,477.625 708.0,462.125"/>
    <polyline points="708.625,459.875 708.25,459.0 706.75,459.375 704.125,460.875 685.75,473.375 667.375,485.25 654.875,492.5 636.875,501.5 620.75,507.875 611.0,510.875 602.125,513.0 590.375,514.875"/>
    <polyline points="586.875,515.25 574.375,515.875 561.75,515.25 553.75,514.25 547.125,513.0 537.375,510.125"/>
    <polyline points="536.5,509.75 531.5,507.375 527.0,503.875 524.625,500.875 523.125,498.0"/>
    <polyline points="522.875,497.375 522.0,495.5 517.75,481.625 514.625,473.875"/>
    <polyline points="513.875,472.25 511.375,467.25 507.875,461.5 498.875,449.375 490.625,440.25 479.5,429.375 469.875,421.125 458.375,412.0 444.625,402.375 437.0,397.375 428.75,392.5"/>
    <polyline points="420.25,387.75 411.25,383.25 402.125,379.125 393.0,375.75 384.0,373.125 375.5,371.5 367.625,371.0 360.75,372.0 355.0,374.25 350.5,378.0 347.625,383.125 346.125,389.5 346.0,396.875 347.375,405.125 349.75,413.875 353.25,423.0 357.5,432.0 362.375,441.0 367.5,449.625 373.0,457.75 378.625,465.375 384.25,472.375 389.75,478.75 395.25,484.5 405.5,494.375"/>
    <polyline points="410.375,498.375 419.375,505.125 427.625,510.375 434.875,514.25 441.5,517.125 455.375,521.625 466.0,523.875 477.0,525.5"/>
    <polyline points="478.25,525.75 488.125,527.75 492.5,529.5 496.0,532.0"/>
    <polyline points="496.375,532.25 500.75,537.0 502.625,538.375 506.0,539.625 509.125,539.875"/>
    <polyline points="510.375,539.75 517.625,538.5 522.875,536.875 533.875,532.75 550.5,525.125 575.5,512.25 598.5,499.625 644.125,473.375 699.5,440.75 734.375,421.25"/>
    <polyline points="748.25,414.25 758.625,409.875 764.875,408.75 767.0,410.875 765.125,416.0 759.875,423.625 752.125,433.0 742.75,443.375 722.0,464.75 701.5,484.125 683.5,499.875 675.375,506.375 668.125,511.875 655.25,520.375 644.375,526.25 635.25,529.875 627.5,531.875 620.75,532.75"/>
    <polyline points="617.75,532.75 612.25,532.5 607.375,531.75 603.125,530.625 596.125,528.0 591.875,525.75 587.625,522.75 584.375,519.25 583.5,517.25"/>
    <polyline points="583.375,516.625 583.5,514.875 584.125,513.875 586.625,512.375 591.375,511.75 596.625,512.25 603.875,514.0 610.125,516.25 617.75,519.5 627.0,524.125"/>
    <polyline points="632.375,527.125 645.0,534.625 668.625,550.875 687.875,565.625 698.375,574.25 720.375,593.625 741.75,614.5 751.125,624.625 759.0,633.75 764.75,641.625 767.875,647.375 768.25,650.75 765.75,651.375 760.625,649.5 753.125,645.0 743.75,638.375 721.875,620.75 699.0,600.625"/>
    <polyline points="688.125,590.75 651.0,556.875 636.75,544.5 630.5,539.375 619.625,531.125 610.375,525.0 606.25,522.625 599.125,518.875 595.875,517.5 590.0,515.375 582.5,513.625 578.125,513.0 572.625,512.75"/>
    <polyline points="570.875,512.75 565.25,513.125 560.75,513.875 555.75,515.125 554.25,515.875 555.0,515.875"/>
    <polyline points="555.375,515.75 558.0,515.125 564.125,512.875 574.5,508.5 586.375,503.0 615.375,488.625"/>
    <polyline points="620.125,486.125 639.0,476.75 651.125,471.25 659.0,468.375 661.375,468.375 661.625,469.0 660.25,471.125 658.75,472.75 654.25,476.5 644.875,483.125 629.625,492.0"/>
    <polyline points="625.625,494.0 617.75,497.75 610.0,501.0 599.0,505.0 588.875,508.0 576.875,510.875 552.25,515.0"/>
    <polyline points="550.5,515.25 541.625,516.5 533.875,518.0 529.625,519.25 525.375,521.0"/>
    <polyline points="524.875,521.25 522.375,523.0 520.75,525.125 520.5,527.0 520.875,527.875 521.75,528.5"/>
    <polyline points="522.125,528.75 524.375,529.25 529.5,528.875 539.0,526.25 547.75,522.875 560.25,517.375 571.125,512.125 592.25,501.25"/>
    <polyline points="600.875,496.75 687.0,449.375 705.25,440.5 711.875,437.875 716.625,436.625 719.25,436.875 719.875,438.625 718.375,441.75 715.25,446.0 710.75,451.125 698.5,462.875 684.25,475.0 676.875,480.75 662.375,491.125 655.375,495.625"/>
    <polyline points="648.75,499.625 636.25,506.125 625.125,511.0 615.125,514.375 606.25,516.625 602.125,517.375 591.25,518.5 582.0,518.375 576.625,517.875 569.625,516.75 560.125,514.125"/>
    <polyline points="558.625,513.5 553.0,511.0 549.625,509.0 545.875,506.125 543.625,503.875 541.125,500.625 539.625,498.0 538.0,494.25"/>
    <polyline points="537.625,493.25 533.125,477.875 528.75,466.5 523.25,456.25 516.625,446.5"/>
    <polyline points="513.625,442.625 506.375,434.0 496.75,423.625 490.75,417.75 475.875,404.375 456.375,388.5 444.625,379.75 431.375,370.5 416.75,361.0 400.75,351.5 383.625,342.375 365.875,334.125 348.0,327.5 330.875,323.25 315.375,322.125 302.5,324.5 293.0,330.875 287.25,341.125 285.375,354.625 287.0,370.75 291.625,388.5 298.5,406.875"/>
    <polyline points="306.875,425.0 315.875,442.375 325.25,458.5 334.375,473.0 343.125,485.875 351.375,497.125 359.0,506.75 366.0,515.0 372.375,522.0 378.125,527.75 383.5,532.5 392.875,539.5 397.0,542.0 404.5,545.375 411.125,547.375 419.875,548.375 427.375,548.125 432.0,547.625"/>
    <polyline points="434.125,547.375 448.625,545.0 454.375,544.375 462.25,544.375 467.0,545.5"/>
    <polyline points="467.75,545.75 470.75,547.75 471.875,549.125 472.875,551.125 473.5,553.5 474.0,558.875"/>
    <polyline points="474.0,559.625 474.625,563.25 475.75,565.125 477.125,566.0 479.25,566.625 480.75,566.75 484.75,566.25 487.5,565.625 495.25,563.0 507.0,557.875 525.125,548.625 553.125,533.125 572.25,521.875"/>
    <polyline points="596.0,507.625 659.875,467.875 792.125,383.0 835.375,355.875 869.0,336.5 888.25,328.875 891.5,334.625 881.25,352.0 862.5,377.375 840.25,406.625 818.625,436.25 799.75,464.25 784.5,489.625 772.875,512.25 764.625,532.0 759.0,549.125 755.375,563.875 749.875,595.75 748.125,602.5 745.75,607.375 742.5,610.375"/>
    <polyline points="738.25,611.75 733.125,611.5 727.0,609.75 720.125,606.75 712.625,602.75 704.75,598.0 688.375,587.0 642.875,554.875 624.25,543.0 613.625,536.75 599.625,529.75 591.5,526.375 584.25,523.75"/>
    <polyline points="580.875,522.75 569.0,519.625 557.125,517.75 547.75,517.125 540.375,517.125 533.625,517.75"/>
    <polyline points="532.625,517.875 527.75,518.875 524.5,520.0 520.5,522.25 519.125,523.75"/>
    <polyline points="518.875,524.125 517.875,526.25 517.875,527.5 518.625,529.0 520.125,529.875 523.5,530.375"/>
    <polyline points="524.5,530.375 528.25,529.875 533.625,528.5 544.5,524.625 556.625,519.375 573.625,511.125 606.25,493.875 663.25,462.125"/>
    <polyline points="675.375,455.5 697.75,443.5 714.875,435.75 720.375,434.0 723.75,433.875 724.75,435.5 723.625,438.5 720.625,442.875 716.0,448.25 710.125,454.25 696.0,467.25 688.5,473.625 673.125,485.625 658.5,495.625 645.125,503.625 633.125,509.625 622.375,513.875 617.5,515.375"/>
    <polyline points="612.875,516.625 600.5,519.0 593.5,519.5 587.125,519.5 578.875,518.75 567.875,516.375 559.625,513.25 553.5,509.75"/>
    <polyline points="552.375,509.0 549.625,506.75 547.375,504.375 543.5,498.25 541.0,491.0 539.625,484.75"/>
    <polyline points="539.25,483.375 537.875,477.125 536.25,471.625 534.75,467.5 531.375,460.0 526.25,450.875 518.0,439.125 504.625,423.625 498.5,417.375 483.125,402.875 473.375,394.375"/>
    <polyline points="462.125,385.125 449.125,375.125 434.125,364.25 417.375,352.875 398.625,341.125 378.25,329.75 356.75,319.375 335.0,310.875 314.125,305.25 295.375,303.875 280.25,307.375 269.625,316.125 264.125,330.0 263.75,347.875 267.75,368.75 275.0,391.125 284.375,413.625 295.0,435.25 305.875,455.25 316.5,473.25 326.5,489.0 335.625,502.75 343.875,514.25 351.25,524.0 363.75,538.625"/>
    <polyline points="369.0,543.875 373.75,548.0 382.0,553.75 389.25,556.75 395.625,558.0 401.625,557.875 410.0,556.25 415.25,554.75 440.25,546.0"/>
    <polyline points="442.125,545.375 452.5,542.875 460.625,541.875 467.875,542.25 472.25,543.625"/>
    <polyline points="472.75,543.875 474.875,545.25 476.75,547.5 480.75,556.375"/>
    <polyline points="481.25,556.875 482.875,558.375 485.75,559.25 490.625,559.0 495.75,557.875 503.125,555.375 513.875,550.75 521.0,547.375 540.125,537.5 568.375,521.75 609.375,497.5 666.5,462.25 701.0,440.5"/>
    <polyline points="738.125,417.125 775.5,393.75 809.375,373.125 836.0,358.5 852.25,352.25 856.75,355.625 850.875,367.625 837.5,386.125 801.75,431.75 784.25,454.625 768.75,475.75 755.75,494.75 745.125,511.5 736.75,526.0 730.25,538.5 725.125,549.125 715.125,571.875 712.625,576.75 710.125,580.625 707.5,583.5 704.5,585.375 701.375,586.25 697.75,586.5"/>
    <polyline points="693.875,586.0 685.125,583.125 675.375,578.375 665.0,572.625 629.375,551.125 611.625,541.0 596.375,533.25 583.375,527.25"/>
    <polyline points="580.5,526.0 553.0,514.75 545.0,511.0 539.0,507.375"/>
    <polyline points="538.25,506.75 534.625,503.75 531.0,499.0 529.0,495.125 526.25,487.625"/>
    <polyline points="526.0,486.625 522.875,477.75 520.125,471.375 517.125,465.625 513.0,458.875 507.25,450.75 502.125,444.375 491.625,433.0"/>
    <polyline points="487.25,428.75 476.75,419.125 463.625,408.25 456.0,402.375 438.25,390.0 428.25,383.625 417.5,377.25 406.125,371.125 394.375,365.5 382.5,360.625 370.75,356.875 359.5,354.625 349.25,354.0 340.375,355.375 333.25,358.875 328.25,364.375 325.375,372.0 324.5,381.25 325.75,391.875 328.625,403.375 333.0,415.375 338.375,427.25 344.5,439.0"/>
    <polyline points="351.125,450.125 358.0,460.625 364.75,470.125 371.5,478.875 378.0,486.625 390.125,499.5 395.75,504.75 406.0,513.25 415.125,519.375 419.25,521.75 426.75,525.5 430.25,526.875 436.625,529.125 442.25,530.625 449.75,532.0 456.0,532.75"/>
    <polyline points="458.0,533.0 466.125,533.625 475.75,534.875 481.375,536.5 484.25,538.125"/>
    <polyline points="484.75,538.5 486.25,539.5 490.875,544.625 492.875,546.25 495.0,547.125 498.0,547.75"/>
    <polyline points="499.25,547.75 502.5,547.5 509.25,546.0 515.75,543.875 524.625,540.25 544.5,530.875 576.5,513.75 607.5,496.0 647.75,472.0 722.0,427.0 746.75,412.375 768.75,399.875 786.25,391.0"/>
    <polyline points="797.75,386.75 802.75,387.875 801.375,394.0 794.75,404.25 784.375,417.375 772.0,432.125 758.625,447.375 732.875,476.125 702.25,509.5 687.375,524.875 681.25,530.75 676.0,535.625 667.0,542.875 659.625,547.375 656.375,548.875 650.5,550.625 647.875,551.0 642.75,551.0"/>
    <polyline points="640.375,550.75 633.5,549.125 629.25,547.625 619.375,543.0 612.5,539.125 606.625,535.375 599.125,529.625"/>
    <polyline points="598.375,529.0 596.125,526.375 595.25,524.25 595.5,523.0 597.375,521.875 600.125,521.75 604.125,522.25 611.875,524.625"/>
    <polyline points="614.375,525.625 623.25,529.625 630.625,533.5 649.25,545.0 660.75,553.0 680.25,568.0 700.875,585.875 713.625,598.125 719.0,603.875 723.625,609.125 727.125,613.625 729.25,617.125 730.125,619.625 729.5,620.75"/>
    <polyline points="727.375,620.625 724.0,619.25 719.25,616.625 707.0,608.25 676.75,585.25 647.125,562.25 634.0,552.75 622.25,544.75 611.75,538.25 597.875,530.875 589.875,527.25 582.75,524.5"/>
    <polyline points="579.375,523.375 570.375,520.75 562.75,519.0 558.125,518.25 545.25,517.125 539.625,517.125 532.875,517.625"/>
    <polyline points="532.0,517.75 527.875,518.5 523.0,520.125 520.0,521.875 518.5,523.375"/>
    <polyline points="518.375,523.625 517.125,525.75 517.0,527.75 518.0,529.375 519.625,530.375 520.875,530.625"/>
    <polyline points="521.625,530.625 525.625,530.5 530.25,529.625 534.25,528.5 546.0,524.125 559.125,518.25 585.0,505.375 602.5,496.0 634.875,478.0"/>
    <polyline points="646.875,471.25 684.0,450.75 705.375,439.625 713.875,435.75 720.25,433.5 724.375,432.875 726.25,433.875 725.75,436.5 723.25,440.625 719.0,445.75 713.375,451.75 699.5,464.875 684.125,477.875 676.375,484.0 668.75,489.5 654.375,499.0 641.375,506.25 635.5,509.25 629.875,511.625"/>
    <polyline points="624.5,513.75 614.75,516.75 606.25,518.625 598.625,519.625 588.625,519.875 577.875,518.75 569.25,516.75 562.375,514.25 557.0,511.5"/>
    <polyline points="555.75,510.75 551.75,507.75 549.375,505.375 546.75,502.0 544.0,496.375 541.75,487.375"/>
    <polyline points="541.5,486.125 539.625,477.125 536.75,467.375 533.625,459.875 528.5,450.625 523.5,443.0 520.25,438.625 511.875,428.5 500.375,416.25 493.0,409.0"/>
    <polyline points="484.375,401.0 462.375,382.25 448.5,371.625 432.75,360.0 414.625,347.75 394.5,335.25 372.625,323.0 349.5,311.875 326.25,303.0 304.0,297.625 284.5,297.0 269.25,302.0 259.25,312.75 255.0,329.0 256.125,349.5 261.75,372.75 270.625,397.0 281.375,421.0 292.875,443.625 304.25,464.125 315.125,482.375 325.0,498.125 334.0,511.625 349.0,532.25"/>
    <polyline points="355.125,539.875 360.625,546.0 365.5,550.875 370.0,554.5 374.0,557.375 377.75,559.375 381.25,560.75 384.5,561.625 387.75,561.875 393.875,561.625 402.625,559.375 411.0,556.125 424.25,550.25 434.0,546.375"/>
    <polyline points="436.25,545.5 440.625,543.875 448.625,541.5 453.875,540.25 460.0,539.25 466.375,538.875 470.5,539.125 473.125,539.625"/>
    <polyline points="474.0,539.875 477.875,541.375 480.375,543.25 482.875,546.375 485.125,549.875"/>
    <polyline points="485.5,550.375 487.0,551.75 489.125,552.875 491.0,553.375 495.25,553.375 502.25,551.875 513.5,547.875 525.125,542.75 552.0,529.0 579.625,513.5 597.375,503.125"/>
    <polyline points="618.125,490.75 669.25,459.625 760.75,403.25 788.375,387.0 810.25,375.375 824.25,370.0 829.375,371.875 826.25,380.5 816.75,394.375 803.125,411.625 772.0,449.375 744.125,483.75 723.0,511.125 693.25,551.625 686.5,559.75"/>
    <polyline points="683.5,562.5 677.875,566.25 675.125,567.25 672.375,567.75 669.5,567.875 666.625,567.5 660.5,566.125 654.125,563.75 641.0,557.375 607.375,538.5"/>
    <polyline points="604.75,537.125 587.0,526.875 577.375,520.75 570.625,515.25 567.0,510.875"/>
    <polyline points="566.5,510.0 565.25,507.5 564.625,504.875 564.875,500.625 565.875,498.125 567.5,495.625 570.0,493.25 572.125,491.75 576.375,489.875"/>
    <polyline points="578.0,489.375 584.375,488.5 587.0,488.5 597.0,489.875 606.125,492.5 611.625,494.625 617.875,497.25 625.125,500.75 643.25,510.875 654.5,518.0 667.625,526.875 682.75,537.75 700.25,551.125 720.25,567.25 742.75,586.5 767.25,608.875 793.0,633.875 818.5,660.5 841.25,686.75 858.5,710.0"/>
    <polyline points="867.5,726.875 866.5,734.875 855.75,732.75 837.0,721.0 813.5,701.875 788.5,678.25 764.375,652.75 743.0,627.5 725.0,603.75 710.5,582.25 699.5,563.125 691.375,546.5 685.875,532.0 682.5,519.625 680.625,509.0 680.0,500.0 680.125,492.5 680.75,486.25 682.625,474.125 682.625,472.125 682.25,471.0 681.125,470.625 679.5,470.875 677.25,471.875"/>
    <polyline points="674.5,473.25 645.0,489.75 635.375,494.5 621.25,500.625 604.0,506.625 596.25,508.75 582.375,511.75 573.375,513.0"/>
    <polyline points="570.5,513.375 552.375,514.875 530.0,515.75"/>
    <polyline points="529.125,515.875 522.0,516.75 518.875,517.625 516.625,518.75"/>
    <polyline points="516.375,519.0 515.125,519.875 514.0,521.25 512.5,525.0"/>
    <polyline points="512.5,525.375 512.375,527.875 513.25,530.25 515.25,531.875 517.75,532.5"/>
    <polyline points="518.625,532.625 524.625,532.125 535.5,529.0 545.875,524.875 560.75,518.0 574.125,511.375 590.75,502.625 648.25,470.625"/>
    <polyline points="661.75,462.875 688.875,447.625 701.5,440.875 712.625,435.25 721.875,431.0 728.875,428.5 733.125,428.0 734.75,429.375 733.875,432.625 730.75,437.375 725.625,443.5 719.25,450.375 703.75,465.125 687.125,479.375 679.0,485.875 671.0,491.75 656.375,501.625 643.25,509.125 631.75,514.5 626.5,516.5"/>
    <polyline points="621.5,518.125 612.625,520.375 601.25,521.875 594.625,521.875 588.875,521.5 579.125,519.75 571.5,517.25 565.375,514.375 560.75,511.25"/>
    <polyline points="559.75,510.5 557.125,508.0 554.5,504.625 552.375,500.0 551.375,496.0 551.0,492.75 551.0,485.5"/>
    <polyline points="551.0,484.125 551.25,471.125 550.25,462.5 548.0,454.125 545.25,447.375 543.25,443.375 537.875,434.125 529.375,422.375 523.5,415.375 516.125,407.25 507.125,397.875"/>
    <polyline points="496.0,387.0 482.25,374.5 465.375,360.125 444.75,343.625 419.875,325.125 390.5,305.0 356.75,284.125 319.5,264.125 280.875,247.75 244.25,238.375 214.0,239.25 193.625,252.5 185.25,277.875 188.25,312.625 199.75,352.5 216.0,393.375 233.75,432.0 278.0,521.5 295.125,558.375 305.125,581.125 308.5,588.375 311.375,593.25"/>
    <polyline points="314.125,596.0 317.125,597.125 320.375,596.625 324.125,594.75 328.375,591.75 333.125,587.875 369.75,555.75 382.625,545.25 394.875,535.875 406.125,528.0 421.125,518.875 429.875,514.375 441.375,509.5"/>
    <polyline points="444.75,508.375 453.875,505.75 464.125,503.75 474.125,502.75 491.375,502.5"/>
    <polyline points="492.25,502.5 496.375,502.375 501.25,501.75 504.375,500.75 506.0,499.75"/>
    <polyline points="506.375,499.5 507.625,498.25 508.625,496.625 509.75,492.875 510.0,489.625"/>
    <polyline points="509.875,489.0 509.875,487.0 509.125,482.25 506.875,475.0 504.5,469.875 499.875,462.0"/>
    <polyline points="498.625,460.125 494.125,454.125 488.125,447.125 483.0,441.875 473.625,433.125 461.5,423.375 446.5,412.75 434.875,405.75 422.375,399.375 416.0,396.5 409.5,394.0 403.125,392.0 397.0,390.625"/>
    <polyline points="391.25,389.875 385.875,390.0 381.125,390.75 377.125,392.5 374.0,395.0 371.625,398.375 370.25,402.5 369.75,407.25 370.125,412.625 371.375,418.5 373.25,424.625 375.75,430.875 382.375,443.375 390.25,455.375 394.5,461.0 403.125,471.125 411.75,479.75 420.125,487.125 431.625,495.5"/>
    <polyline points="435.25,497.75 438.625,499.875 445.0,503.25 453.75,507.125 458.875,509.0 469.75,512.25 487.375,515.75"/>
    <polyline points="488.5,516.0 498.375,518.0 501.5,519.125 503.25,520.125"/>
    <polyline points="503.5,520.25 505.5,522.125 506.5,523.875 507.375,526.375"/>
    <polyline points="507.5,526.75 508.125,529.0 509.875,532.0 511.75,533.5 514.25,534.25"/>
    <polyline points="515.125,534.375 518.25,534.375 522.625,533.75 531.75,531.125 546.625,525.125 557.375,520.125 571.0,513.375 598.375,498.75 649.375,470.0"/>
    <polyline points="664.0,461.5 707.375,437.25 719.625,431.0 729.625,426.375 737.0,423.75 741.375,423.375 742.875,425.125 741.375,429.0 737.5,434.625 731.625,441.625 724.375,449.375 707.5,465.625 689.75,481.125 673.125,494.125 665.5,499.625 658.25,504.375 651.5,508.5 639.25,515.0 628.625,519.375"/>
    <polyline points="623.875,520.875 615.25,523.0 607.625,524.0 601.0,524.125 592.375,523.5 585.25,522.0 576.0,518.75 571.625,516.5 566.125,512.5"/>
    <polyline points="565.25,511.625 563.0,509.125 561.0,505.75 560.125,503.125 559.75,500.375 560.0,496.625 560.75,493.625 563.125,488.5"/>
    <polyline points="563.875,487.5 565.375,485.375 568.375,482.25 572.25,479.25 577.375,476.625 581.875,475.375 587.375,474.75 590.75,474.75 598.75,475.75 609.625,478.75 624.375,484.875 633.875,489.75 645.25,496.25 659.0,504.75"/>
    <polyline points="675.375,515.875 695.25,530.375 719.0,548.875 747.125,572.375 779.875,601.5 816.375,636.25 854.75,675.625 890.625,716.875 918.375,754.125 931.5,780.875 926.375,790.75 904.375,781.875 871.125,757.125 834.125,722.25 799.375,683.5 770.375,645.125 748.75,609.5 734.25,577.75 726.125,549.875 723.375,525.625 724.875,504.625 729.125,486.5 735.125,471.25 741.75,458.75 747.75,449.0 752.5,442.25"/>
    <polyline points="755.375,438.25 755.875,437.125 719.25,468.375 701.0,482.875 692.25,489.625 683.625,495.625 675.625,501.125 667.875,505.875 654.0,513.5 641.75,519.0 636.25,520.875 631.0,522.5 621.625,524.625 613.25,525.625 606.0,525.75"/>
    <polyline points="602.625,525.625 590.875,524.125 581.625,521.625 577.625,520.125 572.625,517.875 568.375,515.5 562.0,510.625 559.75,508.0"/>
    <polyline points="559.25,507.125 558.625,506.375 556.875,502.75 556.125,499.875 555.75,496.0 556.25,490.625 556.75,488.25 559.125,480.625"/>
    <polyline points="559.5,479.25 565.125,464.75 567.625,456.5 568.875,448.875 569.0,442.875 568.0,435.625 565.0,426.375 562.5,420.875 558.875,414.25 553.75,406.625"/>
    <polyline points="546.75,397.25 537.375,386.0 524.5,372.25 507.125,355.125 483.875,333.875 452.875,307.5 412.0,275.625 359.625,238.125 295.5,197.375 223.0,159.625 151.375,135.25 95.125,137.125 67.25,172.125 70.375,235.625 95.125,313.625 128.0,391.75 158.5,461.375 181.25,519.375 195.25,565.875 201.25,602.375 201.625,630.0 198.875,649.625 193.875,666.25 203.0,653.75"/>
    <polyline points="214.5,638.25 247.75,596.75 284.5,551.625 316.0,511.875 339.0,481.125 347.5,469.125 363.75,444.625 369.875,436.375 372.125,434.125 374.125,432.875 376.0,432.625 378.0,433.125 380.0,434.25 382.125,436.125 395.375,450.25"/>
    <polyline points="398.5,453.5 411.875,466.5 425.5,477.5 432.0,482.0 438.25,485.875 447.0,490.75 459.625,496.375 470.125,499.875"/>
    <polyline points="471.875,500.375 485.375,503.375 492.75,504.25 499.5,504.5"/>
    <polyline points="500.0,504.5 504.75,503.75 507.5,502.5 508.75,501.25"/>
    <polyline points="509.0,501.0 509.875,499.75 510.75,497.375 511.25,495.0 511.375,491.375"/>
    <polyline points="511.375,490.75 511.0,486.0 509.5,479.75 507.5,474.125 503.0,465.5"/>
    <polyline points="502.0,463.75 495.0,454.0 486.375,444.25 480.75,438.625 474.0,432.5 461.5,422.25 456.625,418.625 445.875,411.375 433.75,404.0 420.75,397.25 407.25,391.875"/>
    <polyline points="400.625,389.875 394.25,388.5 388.25,387.75 382.75,387.875 378.0,389.0 374.0,390.875 370.875,393.75 368.625,397.375 367.375,401.875 367.125,407.125 367.75,412.875 369.25,419.0 371.375,425.5 374.25,432.125 377.625,438.75 385.375,451.5 394.125,463.25 403.125,473.5 411.875,482.125 420.375,489.375 424.375,492.375"/>
    <polyline points="428.25,495.25 439.0,501.875 451.25,507.75 459.125,510.625 468.0,513.25 485.125,516.75"/>
    <polyline points="486.25,516.875 497.0,519.125 502.25,521.375"/>
    <polyline points="502.5,521.625 504.875,523.875 506.875,528.375"/>
    <polyline points="507.0,528.625 508.625,531.75 510.625,533.625 512.875,534.5 515.375,534.875 518.875,534.625"/>
    <polyline points="520.375,534.375 526.125,533.125 531.25,531.5 541.75,527.375 551.375,523.125 571.0,513.5 598.875,498.5 622.875,485.125 696.0,443.375 722.25,429.5"/>
    <polyline points="732.125,425.0 739.375,422.5 743.5,422.375 744.625,424.5 742.75,428.75 738.5,434.625 732.375,441.875 724.75,449.875 707.375,466.625 689.625,482.125 672.875,495.25 665.25,500.75 658.0,505.5 645.125,513.0 633.75,518.25 624.0,521.625 615.5,523.625 608.0,524.5"/>
    <polyline points="604.625,524.75 598.5,524.5 590.625,523.5 584.0,521.875 580.25,520.5 575.375,518.25 570.25,515.25 566.5,512.0 563.875,508.625"/>
    <polyline points="563.375,507.75 562.25,505.25 561.625,501.625 561.75,499.0 562.5,496.25 563.75,493.375 565.625,490.5 568.25,487.75 571.75,485.25"/>
    <polyline points="573.25,484.375 578.5,482.375 583.0,481.625 585.75,481.375 592.125,481.75 596.0,482.25 605.375,484.75 611.25,486.75 618.0,489.625 625.875,493.25 646.0,504.5 658.875,512.75 674.125,523.125 692.125,536.25 713.25,552.75 737.75,573.125 765.75,597.75 796.375,626.625 828.25,659.0 858.625,692.75"/>
    <polyline points="883.5,724.25 898.25,748.875 899.75,762.125 887.5,761.25 864.25,747.0 834.875,722.625 804.125,692.375 775.75,660.25 751.75,629.0 733.125,600.125 719.5,574.375 710.625,551.875 705.75,532.25 703.875,515.25 704.375,500.75 706.5,488.5 709.625,478.125 712.875,469.75 719.75,455.375 719.875,454.0 718.625,454.125 716.125,455.625 707.75,461.75"/>
    <polyline points="702.125,465.875 675.625,484.375 661.75,492.875 648.625,500.0 630.75,508.0 615.125,513.125 601.75,515.875 597.75,516.5 587.0,517.375 574.875,517.125"/>
    <polyline points="572.25,516.875 563.0,515.625 557.25,514.375 549.25,512.0 541.25,508.25 536.375,504.75"/>
    <polyline points="535.625,504.125 532.75,500.875 530.5,497.25 528.25,492.125 525.0,482.5"/>
    <polyline points="524.5,481.25 523.0,477.0 520.125,470.375 517.0,464.5 512.625,457.5 508.75,452.0 503.75,445.75 497.5,438.625 489.5,430.375 479.5,421.0 466.875,410.25"/>
    <polyline points="459.375,404.5 451.25,398.375 432.375,385.5 421.75,379.0 410.375,372.625 398.625,366.75 386.5,361.375 374.375,357.125 362.625,354.125 351.875,352.75 342.25,353.375 334.25,356.125 328.375,361.0 324.625,368.0 323.0,376.875 323.625,387.25 326.0,398.75 330.0,410.75 335.125,423.0 341.125,435.125 347.75,446.625 354.625,457.5 361.5,467.5 368.375,476.625 375.0,484.75"/>
    <polyline points="381.375,492.0 393.25,503.875 403.75,512.75 413.0,519.375 421.25,524.0 431.875,528.5 440.75,531.125 450.5,532.875 463.5,534.125"/>
    <polyline points="465.0,534.25 472.625,535.0 476.625,535.75 482.375,537.875 485.75,540.375"/>
    <polyline points="486.25,540.75 490.0,545.125 493.25,547.5 496.875,548.375 501.25,548.25 505.375,547.5"/>
    <polyline points="507.875,546.875 518.25,543.25 528.5,538.875 551.5,527.5 574.25,515.125 605.25,497.375 624.25,486.125 721.5,427.375 747.0,412.125 769.875,399.0 788.125,389.625 800.375,385.0 805.75,385.75 804.625,391.875 798.0,402.25 787.5,415.75"/>
    <polyline points="774.625,430.875 761.125,446.625 735.0,476.125 696.25,518.875 683.375,532.125 673.5,541.125 669.25,544.5 662.125,549.125 659.0,550.625 653.125,552.5 647.875,553.0 643.0,552.625 638.25,551.625 633.75,550.125"/>
    <polyline points="631.5,549.25 625.125,546.375 610.375,538.125 602.0,532.5 597.0,528.5 595.0,526.375"/>
    <polyline points="594.5,525.625 593.375,523.875 593.125,522.875 593.5,521.5 595.5,520.375 599.375,520.125 604.0,521.0 610.25,522.875 618.5,526.25"/>
    <polyline points="621.875,527.875 633.875,534.25 649.0,543.75 667.875,557.125 682.125,568.25 697.125,581.0 711.75,594.5 718.5,601.125 729.375,613.25 733.125,618.125 735.375,621.875 736.125,624.375 735.25,625.5 732.625,625.125 728.625,623.25 723.25,620.125"/>
    <polyline points="716.75,615.75 701.625,604.5 653.25,566.125 639.25,555.5 626.625,546.5 615.5,539.25 601.0,531.125 592.75,527.25 585.375,524.25 578.75,522.0 572.75,520.375"/>
    <polyline points="570.0,519.75 562.5,518.375 552.25,517.375 541.5,517.625 536.875,518.125 531.375,519.375"/>
    <polyline points="530.625,519.625 528.5,520.25 524.0,522.75 522.375,524.625 521.875,526.125 522.0,526.75"/>
    <polyline points="522.125,527.0 522.625,527.75 523.375,528.125 525.5,528.625 529.25,528.5 533.5,527.625 539.625,525.75 548.25,522.5 560.25,517.25"/>
    <polyline points="565.125,514.875 583.625,505.75 599.25,497.5 671.875,457.625 692.25,446.875 707.75,439.875 712.875,438.375 716.0,438.125 717.125,439.375 716.375,442.0 713.875,445.75 704.75,455.75 692.0,467.375"/>
    <polyline points="685.0,473.25 670.625,484.25 663.5,489.25 649.875,497.875 643.5,501.5 631.625,507.375 620.875,511.625 611.25,514.625 606.875,515.625 598.75,517.125 591.5,517.875 582.0,518.0 576.5,517.625 569.25,516.625"/>
    <polyline points="567.125,516.125 557.875,513.625 549.75,510.0 546.625,508.0 543.125,505.25 538.625,499.875"/>
    <polyline points="538.125,499.0 536.75,496.375 534.875,491.5 529.125,473.75 525.625,465.875"/>
    <polyline points="524.375,463.5 517.75,452.625 510.0,442.125 498.125,428.875 487.0,418.0 480.25,411.75 463.625,397.875 442.625,382.125 430.125,373.625 416.5,365.0 401.75,356.375 386.125,348.25 370.0,341.0 353.875,335.25 338.375,331.5 324.375,330.5"/>
    <polyline points="312.625,332.625 303.75,338.125 298.0,347.0 295.75,358.75 296.625,372.875 300.125,388.625 305.875,405.0 313.125,421.625 321.25,437.5 329.875,452.5 338.5,466.375 346.875,478.625 354.875,489.625 362.375,499.125 369.375,507.375 381.75,520.25 387.25,525.25 397.125,532.625 405.5,537.625 409.25,539.375 416.125,541.875 419.25,542.625"/>
    <polyline points="422.25,543.25 432.75,544.125 439.375,544.0 457.5,542.75 465.125,543.25"/>
    <polyline points="466.0,543.375 469.75,544.5 471.5,545.5 473.625,547.375 475.375,550.375 476.375,553.875"/>
    <polyline points="476.5,554.5 477.125,557.125 478.125,559.625 479.0,560.75 480.375,561.75 481.125,562.125 483.5,562.5 489.125,562.0 495.125,560.25 504.25,556.75 517.625,550.625 526.75,546.0"/>
    <polyline points="537.875,540.0 551.625,532.5 568.25,522.875 613.375,495.875 677.25,456.0 797.75,379.625 833.125,358.375 858.5,345.125 871.0,342.375 870.375,350.625 859.25,367.875 802.25,442.75 784.875,467.25 770.5,489.375 759.0,508.875 750.25,526.0 743.625,540.75 738.875,553.5 732.75,573.25"/>
    <polyline points="730.5,580.75 728.375,586.75 726.0,591.375 723.375,594.625 720.125,596.625 716.375,597.375 712.0,597.125 707.125,596.0 696.0,591.25 683.5,584.25 628.25,549.0 617.875,543.0 604.125,535.625"/>
    <polyline points="599.875,533.625 592.125,530.0 578.5,524.625 572.625,522.625 558.0,518.25 539.875,514.0"/>
    <polyline points="538.625,513.75 527.0,510.875 524.125,509.875 521.25,508.375"/>
    <polyline points="520.875,508.25 519.625,507.375 517.5,504.875 516.25,501.5"/>
    <line x1="516.125" x2="514.125" y1="501.25" y2="488.0"/>
    <polyline points="514.0,487.125 511.625,478.5 507.5,469.25 503.5,462.375 495.5,451.75"/>
    <polyline points="493.375,449.25 485.75,440.875 479.125,434.625 466.875,424.0 456.75,416.25 451.125,412.25 438.625,404.125 424.625,396.25 417.375,392.75 409.875,389.5 402.5,386.75 395.125,384.5 388.125,383.125 381.625,382.5 375.75,382.875 370.625,384.375 366.5,386.875 363.375,390.375"/>
    <polyline points="361.375,394.875 360.5,400.25 360.75,406.375 361.875,413.0 364.0,420.125 366.875,427.375 370.25,434.75 374.25,442.0 378.625,449.125 388.0,462.25 392.75,468.125 402.375,478.75 411.625,487.5 416.125,491.125 424.5,497.5 432.125,502.5 439.25,506.5 448.625,510.75"/>
    <polyline points="451.5,511.875 459.25,514.5 467.875,516.75 491.25,521.25"/>
    <polyline points="492.0,521.375 498.0,523.375 501.0,525.375 502.75,527.375"/>
    <polyline points="503.0,527.625 505.625,532.0 506.75,533.375 508.25,534.625 510.5,535.625"/>
    <polyline points="511.25,535.75 514.0,536.125 516.375,536.0 523.375,534.625 531.5,532.0 538.875,529.125 548.375,524.875 560.625,519.0 585.75,505.875 608.0,493.625 635.0,478.25"/>
    <polyline points="650.0,469.625 697.75,442.25 712.625,434.0 725.875,427.125 736.625,422.125 744.5,419.375 749.0,419.125 750.125,421.375 748.125,425.875 743.625,432.25 737.0,440.0 720.0,457.5 701.375,474.875 683.5,490.0 675.25,496.5 667.375,502.125 653.5,511.25 641.375,517.75 636.0,520.125"/>
    <polyline points="631.0,522.0 622.0,524.625 614.25,526.0 607.5,526.5 598.75,526.0 591.5,524.625 583.75,522.0 576.5,518.25 572.375,515.0"/>
    <polyline points="571.625,514.25 570.125,512.625 568.125,509.375 567.25,505.375 567.625,502.875 568.625,500.625 570.375,498.375 573.125,496.25 575.375,495.125"/>
    <polyline points="576.75,494.625 580.125,493.75 584.125,493.375 589.125,493.5 592.0,493.875 599.125,495.375 603.25,496.625 613.375,500.375 626.5,506.625 643.75,516.375 666.25,531.25 680.125,541.125 695.75,553.125 713.5,567.375 733.0,584.0 754.25,603.125 776.25,624.25 798.125,646.625"/>
    <polyline points="818.125,669.0 834.125,689.25 844.125,705.25 846.5,714.625 840.75,716.375 828.0,710.125 809.875,697.125 789.0,679.25 767.5,658.5 746.875,636.875 728.5,615.75 712.625,596.0 699.375,578.0 688.75,562.125 680.375,548.125 674.0,536.0 669.375,525.625 665.875,516.75 663.5,509.25 661.875,502.875 659.25,486.75 658.125,483.0"/>
    <polyline points="657.375,481.875 655.0,481.125 651.375,481.875 641.25,486.25 625.0,493.875 611.25,499.5 598.125,504.125 586.125,507.625"/>
    <polyline points="583.375,508.375 568.625,511.875 545.125,516.75 539.875,518.25"/>
    <polyline points="538.875,518.625 535.125,520.0 531.25,522.375 530.75,522.875 530.375,524.125 530.625,524.625 531.5,525.0"/>
    <polyline points="532.0,525.125 535.75,525.0 542.75,523.25 558.625,517.125 576.25,508.875 609.375,491.75"/>
    <polyline points="617.5,487.375 662.5,463.125 686.25,451.25 692.25,448.75 696.875,447.25 700.0,446.625 701.625,447.25 701.75,448.75 700.375,451.25 694.125,458.5 678.625,472.125 666.25,481.375 660.0,485.625 653.75,489.75 641.625,496.875"/>
    <polyline points="635.75,499.875 624.75,505.0 614.75,508.75 605.5,511.625 593.375,514.25 579.75,515.625 571.125,515.75 559.5,514.75 552.125,513.5"/>
    <polyline points="550.5,513.125 544.75,511.625 537.125,508.625 533.125,506.25 529.5,503.25 528.125,501.5"/>
    <polyline points="527.75,501.0 526.125,498.5 524.25,494.375 519.375,479.75"/>
    <polyline points="518.875,478.375 516.375,472.625 511.5,463.5 503.125,451.5 498.25,445.625 488.625,435.375 480.25,427.375 469.875,418.5 457.375,408.625"/>
    <polyline points="450.125,403.375 433.875,392.625 415.375,382.0 405.5,377.125 395.5,372.875 385.5,369.25 375.75,366.75 366.625,365.375 358.375,365.5 351.25,367.25 345.625,370.5 341.625,375.5 339.25,381.875 338.625,389.75 339.625,398.5 341.875,408.0 345.375,418.0 349.875,428.0 355.0,437.875 360.5,447.5 366.375,456.5 372.5,464.875 384.375,479.625"/>
    <polyline points="390.125,486.0 401.0,496.625 410.875,504.875 419.875,511.125 427.875,515.75 435.0,519.25 444.375,522.75 457.0,525.875 470.0,527.875"/>
    <polyline points="471.5,528.125 480.125,529.375 486.125,530.875 489.875,532.5 492.25,534.125"/>
    <polyline points="492.625,534.5 498.0,539.75 500.125,541.125 502.375,541.875 505.375,542.25 506.75,542.125"/>
    <polyline points="508.125,542.125 513.875,541.0 519.125,539.5 530.375,535.25 541.0,530.5 555.125,523.625 573.875,513.75 613.375,491.5 709.375,434.875 729.25,423.5 747.0,413.75 761.375,406.5"/>
    <polyline points="771.5,402.75 776.75,402.75 777.25,406.375 773.625,413.25 766.5,422.75 757.0,433.875 735.0,457.625 712.875,479.875 693.375,498.25 684.875,505.875 670.25,517.75 663.875,522.375 653.0,529.25 648.25,531.75 640.0,535.125 632.875,536.875 629.625,537.375 624.0,537.625"/>
    <polyline points="621.375,537.375 616.625,536.75 612.375,535.75 608.625,534.5 603.75,532.375 599.75,530.125 595.625,527.25 592.5,524.0 591.625,521.75"/>
    <polyline points="591.625,521.25 592.625,519.625 593.875,519.125 597.75,518.875 602.375,519.5 611.25,522.25 620.5,526.25 628.25,530.25 637.5,535.5 642.625,538.75"/>
    <polyline points="648.25,542.375 667.875,556.125 682.875,567.75 698.75,581.25 706.75,588.5 721.75,603.0 733.625,616.0 737.625,621.375 740.125,625.5 741.0,628.25 739.875,629.375 737.125,628.875 732.75,626.75 726.875,623.25 719.875,618.5 695.0,599.25 677.5,585.0"/>
    <polyline points="669.125,578.125 645.875,559.5 632.375,549.5 620.375,541.25 610.0,534.75 605.25,532.125 596.5,527.75 588.75,524.375 578.75,521.0 567.75,518.5 558.75,517.5"/>
    <polyline points="556.75,517.375 546.75,517.375 540.375,518.125 533.75,519.75 529.375,521.625"/>
    <polyline points="528.875,522.0 527.375,523.125 526.5,524.25 526.5,525.875 527.25,526.375 529.25,526.875 532.875,526.625"/>
    <polyline points="534.125,526.375 540.75,524.625 551.125,520.75 562.5,515.75 578.0,508.25 598.75,497.625 674.375,456.625"/>
    <polyline points="683.375,452.0 698.25,445.125 703.5,443.25 707.0,442.625 708.875,443.125 709.0,444.875 707.5,447.75 704.5,451.5 700.375,455.875 689.5,466.0 676.75,476.5 670.0,481.5 656.625,490.5 650.125,494.5 637.875,501.375 621.25,508.75 607.0,513.25"/>
    <polyline points="602.75,514.25 591.125,516.125 584.375,516.625 572.75,516.5 559.375,514.625 551.125,512.375 544.625,509.75"/>
    <polyline points="543.625,509.25 538.875,506.375 534.75,502.625 531.25,497.625 528.625,491.625"/>
    <polyline points="528.375,490.75 523.75,477.625 521.0,471.0 513.75,458.25 505.125,446.625"/>
    <polyline points="502.25,443.25 491.25,431.375 475.625,416.875 461.75,405.5 444.625,392.875 434.75,386.375 424.125,379.625 412.75,373.125 400.75,366.875 388.5,361.25 376.0,356.5 364.0,353.125 352.625,351.375 342.5,351.5 334.0,353.75 327.5,358.375 323.125,365.125 321.125,373.875 321.375,384.25 323.625,395.875"/>
    <polyline points="327.375,408.125 332.5,420.625 338.625,433.0 345.25,445.0 352.125,456.125 359.25,466.5 366.25,475.875 373.0,484.375 379.5,491.875 385.625,498.375 391.5,504.125 402.125,513.25 411.5,520.0 415.75,522.625 423.625,526.625 430.5,529.375 439.5,532.0 447.0,533.375"/>
    <polyline points="449.375,533.625 470.5,535.5 475.5,536.375 480.75,538.25"/>
    <polyline points="481.375,538.5 484.875,541.0 489.875,546.75 492.875,548.625"/>
    <polyline points="493.75,548.875 495.75,549.25 501.875,548.875 506.625,547.75 513.0,545.75 527.375,539.75 541.75,532.875 550.875,528.125 574.125,515.5 606.0,497.125 647.875,472.125 726.0,424.5"/>
  </g>
</svg>
