<?xml version="1.0" encoding="utf-8" ?>
<svg xmlns="http://www.w3.org/2000/svg" xmlns:cc="http://creativecommons.org/ns" xmlns:dc="http://purl.org/dc/elements/1.1/" xmlns:ev="http://www.w3.org/2001/xml-events" xmlns:inkscape="http://www.inkscape.org/namespaces/inkscape" xmlns:rdf="http://www.w3.org/1999/02/22-rdf-syntax-ns" xmlns:sodipodi="http://sodipodi.sourceforge.net/DTD/sodipodi-0.dtd" xmlns:xlink="http://www.w3.org/1999/xlink" baseProfile="tiny" height="27.09333333cm" version="1.2" viewBox="0 0 1024.0 1024.0" width="27.09333333cm">
  <metadata>
    <rdf:RDF>
      <cc:Work>
        <dc:format>image/svg+xml</dc:format>
        <dc:source>vpype read './original_svgs/Strange Attractors #378.svg' linemerge linesimplify write './Strange Attractors #378.svg'
</dc:source>
        <dc:date>2024-08-05T01:35:53.961078</dc:date>
      </cc:Work>
    </rdf:RDF>
  </metadata>
  <defs/>
  <g fill="none" id="layer1" inkscape:groupmode="layer" inkscape:label="1" stroke="black" stroke-width="0.7mm" style="display:inline">
    <polyline points="651.25,762.625 614.875,712.125 582.875,673.25 555.25,644.0 531.875,622.25 512.125,606.25 495.125,594.875 480.375,586.75 467.5,581.25 456.125,577.625 446.0,575.25 428.75,573.0 409.875,571.5 405.375,570.75 401.875,569.75 399.25,568.25 397.5,566.5 396.625,564.375 396.5,562.0 397.125,559.25 398.375,556.25 402.5,550.0"/>
    <polyline points="405.125,546.75 411.125,540.5 417.75,534.625 428.0,527.125 437.75,521.375 443.875,518.5 452.375,515.125 464.375,512.0 474.0,510.625"/>
    <polyline points="475.625,510.5 486.5,510.25 499.375,511.25"/>
    <polyline points="499.875,511.375 504.25,512.125 506.0,512.875 506.0,513.375 505.375,514.0 500.0,516.125"/>
    <polyline points="499.75,516.125 495.0,517.625 488.5,519.125"/>
    <polyline points="487.875,519.25 479.375,520.5 473.25,520.875 462.75,520.375"/>
    <polyline points="461.125,520.25 454.25,519.25 443.625,516.625 435.875,514.0 426.875,510.25 420.125,507.0 408.5,500.75 399.75,495.375 385.25,485.25"/>
    <polyline points="380.0,481.375 374.625,477.25 358.375,463.375 348.0,453.5 343.375,448.625 339.125,443.875 332.75,435.5 330.75,432.25 329.625,429.5 329.625,427.75 330.625,426.75 332.75,426.625 335.75,427.5 339.75,429.25 344.375,431.75 349.75,434.875 361.75,442.75 387.5,460.875"/>
    <polyline points="393.75,465.25 416.625,480.625 431.125,489.375 443.5,495.75 450.75,499.0 457.25,501.5 465.75,504.25 475.375,506.5 483.5,507.75"/>
    <polyline points="485.25,507.875 494.75,508.5 502.375,508.375 515.0,506.75"/>
    <polyline points="515.875,506.625 519.25,505.875 526.5,503.625 537.375,499.125"/>
    <polyline points="538.375,498.625 551.875,492.0 580.375,476.125"/>
    <polyline points="583.25,474.5 697.625,406.75 732.75,387.125 744.25,381.25 754.875,376.25 764.125,372.625 771.375,370.75"/>
    <polyline points="776.0,371.125 777.75,374.0 776.25,379.625 771.5,387.625 764.0,398.0 742.5,423.25 716.75,450.625 703.75,463.75 679.25,487.5 657.75,506.75 648.25,514.625 631.75,527.375 624.5,532.25 611.75,539.75 600.875,544.875 591.5,548.125 583.25,550.125"/>
    <polyline points="579.5,550.75 572.5,551.625 566.125,551.875 555.0,551.75 536.875,550.875 527.25,551.0 520.375,551.625"/>
    <polyline points="518.75,551.875 513.875,552.75 507.875,554.375 500.75,557.375 496.625,559.625 490.5,564.625 487.375,568.5 485.75,571.75"/>
    <polyline points="485.0,573.5 484.0,577.5 483.75,582.375 484.625,588.25 487.0,595.625 491.75,605.125 499.875,617.375 505.75,624.875 513.125,633.625 522.5,643.625 534.0,655.25 548.25,668.75 565.75,684.0 587.0,701.375 612.125,720.375 641.375,740.375 674.25,760.5 709.375,778.5 744.5,791.75 776.5,797.375"/>
    <polyline points="802.0,792.75 818.375,777.125 824.875,751.5 822.5,718.625 813.75,682.0 801.375,644.75 787.875,609.5 753.75,525.125 746.125,504.75 736.0,473.75 728.625,446.25 727.0,441.125 725.25,437.5 723.375,435.375 721.0,434.625 718.125,435.0 714.75,436.375 710.75,438.625 695.75,449.375"/>
    <polyline points="690.0,453.625 665.25,471.75 652.875,480.0 635.375,490.375 624.75,495.875 610.375,502.125 597.75,506.5 586.875,509.25 577.5,511.0 571.875,511.625"/>
    <polyline points="569.25,511.875 560.125,512.5 549.25,512.5 539.125,511.875 533.25,511.125"/>
    <polyline points="532.5,511.125 528.125,510.25 525.875,509.375 525.375,508.75 525.375,508.125 526.5,506.875 530.375,504.5"/>
    <line x1="530.75" x2="548.25" y1="504.25" y2="494.75"/>
    <polyline points="549.375,494.25 571.375,482.0 605.0,462.375"/>
    <polyline points="609.5,459.75 668.875,424.5 698.125,407.625 719.375,395.75 730.0,390.25 749.25,381.25 757.0,378.625 763.0,377.5 766.625,378.375 767.625,381.375 765.875,386.75 761.5,394.125 754.625,403.375 745.75,414.125"/>
    <polyline points="735.375,425.875 724.0,438.0 700.375,462.0 677.625,483.5 657.25,501.25 648.125,508.625 631.875,520.625 624.625,525.25 611.75,532.625 606.0,535.5 595.625,539.625 586.625,542.25 578.5,544.0 571.25,544.875 561.625,545.375"/>
    <polyline points="558.625,545.375 532.25,544.5 522.625,544.5 513.875,545.0 507.25,545.75"/>
    <polyline points="505.5,546.0 492.5,548.625 470.75,554.5 459.625,556.875"/>
    <polyline points="457.125,557.25 451.625,557.875 445.625,558.125 442.25,558.125 434.625,557.5 425.625,555.75 420.375,554.25 414.5,552.375 407.75,549.75 400.25,546.375 391.5,541.875 381.5,536.25 369.75,528.875 356.0,519.5 339.875,507.5 321.0,492.5 298.75,473.625 273.25,450.375 244.5,422.25 213.5,389.625 182.5,353.75 155.0,317.5"/>
    <polyline points="136.125,285.875 130.5,264.625 140.5,258.375 164.5,268.375 197.875,292.125 234.25,324.375 268.625,360.125 298.0,395.375 321.125,427.75 337.875,456.375 349.0,481.0 355.375,502.0 358.0,519.75 357.875,534.375 356.0,546.5 352.875,556.125 349.625,563.5 346.375,568.625 344.0,571.875 342.5,573.25 342.125,572.875 343.0,571.0 345.0,568.0 348.0,564.0 356.375,554.375"/>
    <polyline points="361.25,549.125 371.625,538.875 387.125,525.5 396.625,518.5 409.25,510.875 419.875,506.125 428.75,503.625 433.875,502.75 440.5,502.25 447.75,502.75"/>
    <polyline points="449.25,502.875 456.875,504.625 461.25,506.25 465.125,508.625 465.875,510.125"/>
    <polyline points="465.875,510.375 464.75,511.5 460.75,512.375 456.75,512.375 450.25,511.5"/>
    <polyline points="449.0,511.25 443.125,509.875 436.125,507.625 425.375,503.125 420.5,500.75 406.5,492.75 397.0,486.5 390.5,481.75"/>
    <polyline points="387.25,479.125 377.5,471.25 366.625,460.625 361.25,454.125 360.375,452.375 359.75,450.0 360.25,449.375 361.25,449.125 362.625,449.25 364.5,449.75 369.5,452.0 375.75,455.25 390.875,464.375"/>
    <polyline points="394.875,466.875 422.125,483.375 438.625,492.25 454.375,499.5 468.0,504.75"/>
    <polyline points="469.625,505.25 485.0,510.125 490.375,512.375"/>
    <polyline points="490.625,512.625 491.875,513.75 491.875,514.625 490.875,515.75 489.5,516.5"/>
    <polyline points="489.125,516.625 487.25,517.375 482.25,518.625 473.0,519.625"/>
    <polyline points="472.0,519.625 466.125,519.625 459.0,519.0 448.125,516.875 436.5,513.25 424.875,508.375"/>
    <polyline points="421.625,506.75 406.75,498.625 389.0,487.0 374.125,475.625 359.0,462.5 345.375,448.875 338.625,440.75 336.25,437.25 334.0,432.25 334.25,430.75 335.5,430.0 337.625,430.25"/>
    <polyline points="340.625,431.125 349.0,435.25 359.5,441.75 406.75,474.0 422.125,483.75 439.375,493.375 450.25,498.375 459.5,501.875"/>
    <polyline points="462.25,502.875 472.25,505.625 480.375,507.25 491.75,508.5 497.0,508.75 503.5,508.625"/>
    <polyline points="504.5,508.625 510.5,508.125 515.125,507.375 523.375,505.25"/>
    <polyline points="524.0,505.0 533.75,501.25 545.375,495.625"/>
    <polyline points="546.5,495.0 571.25,481.625 602.625,463.375"/>
    <polyline points="607.125,460.625 698.125,406.875 732.125,388.0 743.125,382.5 753.25,377.875 762.0,374.5 768.75,373.0 773.0,373.625 774.375,376.625 772.75,382.125 768.125,390.0 760.75,400.0 751.125,411.625"/>
    <polyline points="739.875,424.375 715.0,450.625 690.125,475.375 678.5,486.375 667.5,496.25 648.0,512.75 639.5,519.375 631.5,525.125 624.375,530.0 611.5,537.5 605.875,540.25 595.75,544.375 586.875,547.0 579.0,548.5 571.875,549.375 562.5,549.75"/>
    <polyline points="559.625,549.625 535.75,548.75 527.875,548.75 517.375,549.5 509.25,550.875"/>
    <polyline points="507.625,551.25 503.0,552.5 498.5,554.125 494.125,556.0 486.875,559.875 482.625,562.875 478.75,566.5 476.25,569.25 474.125,572.5 473.25,574.375"/>
    <polyline points="472.375,576.375 471.25,580.875 471.0,583.5 471.375,589.75 473.625,597.75 475.625,602.625 478.5,608.25 482.5,614.75 487.75,622.375 494.75,631.375 503.75,642.0 515.5,654.625 530.625,669.625 549.75,687.375 573.875,708.125 603.625,731.875 639.625,758.125 681.625,785.5 728.0,810.875 775.0,830.0 817.375,837.625 849.125,829.375 866.375,804.375"/>
    <polyline points="868.875,765.25 860.0,717.75 844.625,667.875 827.375,620.25 811.25,577.25 798.0,540.0 788.25,508.625 781.625,482.5 777.75,461.125 775.875,443.875 774.875,413.75 773.75,410.0 771.25,409.0 767.375,410.625 761.75,414.625 754.5,420.5 704.25,464.875 683.125,482.625 673.125,490.625"/>
    <polyline points="663.75,497.75 646.5,509.875 631.375,519.125 624.625,522.875 606.75,530.75 596.625,533.875 587.5,536.0 579.375,537.25 565.375,538.125 545.75,537.625"/>
    <polyline points="543.375,537.5 534.5,536.875 519.375,536.375 507.625,536.625 498.125,537.375"/>
    <polyline points="496.5,537.5 475.625,539.125 464.75,539.125 454.125,538.125 448.0,537.0 441.0,535.25"/>
    <polyline points="437.125,534.125 432.875,532.75 423.5,529.0 412.375,523.875 406.0,520.5 391.375,511.875 373.625,500.0 352.25,483.875 340.125,473.875 327.125,462.625 313.375,450.0 299.25,436.25 285.125,421.5 271.625,406.5 259.625,391.75 250.125,378.25 244.125,367.25 242.375,359.5 245.125,356.125 252.375,357.25 263.5,362.75"/>
    <polyline points="277.5,372.0 293.125,384.0 309.5,397.75 325.5,412.25 340.75,426.625 378.25,464.5 409.75,497.625 424.25,511.5 434.375,519.0 439.875,521.625 442.375,522.5 447.0,523.5 453.375,523.5"/>
    <polyline points="455.5,523.375 461.5,522.25 471.125,519.75 500.25,510.75"/>
    <polyline points="501.75,510.375 520.875,503.625 528.25,500.625 539.125,495.625"/>
    <polyline points="540.875,494.75 551.875,489.125 571.375,478.25 599.25,461.5 626.75,444.375"/>
    <polyline points="636.0,438.375 786.625,341.875 817.625,322.625 848.875,303.875 877.25,288.375 898.25,279.625 907.625,281.25 902.375,295.625 883.0,322.25 853.5,358.125 819.0,398.625 784.75,439.5 754.125,477.75 728.625,512.0 708.75,541.5 694.125,566.375 684.0,587.25 677.625,604.25 674.25,618.125"/>
    <polyline points="673.125,629.0 673.625,637.375 675.0,643.375 676.875,647.25 678.875,649.0 680.5,648.875 681.75,647.125 682.125,643.875 681.75,639.25 680.5,633.625 678.375,627.125 675.5,620.125 672.0,612.75 663.5,597.625 658.75,590.25 648.5,576.5 638.25,564.375 628.125,554.0 623.25,549.5 613.875,541.75 609.5,538.5"/>
    <polyline points="605.25,535.625 601.25,532.875 590.125,526.625 580.375,522.125 574.625,519.875 560.375,515.5 544.5,512.125"/>
    <polyline points="543.375,511.875 534.75,510.25 530.875,509.125 529.375,508.375 528.75,507.625 529.125,506.5 529.875,505.625 532.625,503.75"/>
    <line x1="533.0" x2="551.5" y1="503.5" y2="493.125"/>
    <polyline points="552.75,492.5 568.5,483.75 616.625,455.625"/>
    <polyline points="622.0,452.375 691.875,411.25 712.625,399.625 733.5,388.75 743.125,384.25 751.625,380.75 758.625,378.75 763.5,378.5 766.125,380.125 766.0,384.125 763.25,390.125 757.875,398.25 750.375,408.0 741.0,419.0 718.875,442.75"/>
    <polyline points="707.125,454.625 695.5,466.125 673.375,486.625 653.625,503.5 636.625,516.5 622.0,526.125 609.5,532.875 603.875,535.5 598.75,537.625 589.25,540.75 585.0,541.875 577.0,543.375 566.625,544.375 554.625,544.625"/>
    <polyline points="552.0,544.5 533.375,543.75 520.0,543.75 509.625,544.5 503.0,545.5"/>
    <polyline points="501.375,545.75 491.5,547.625 469.125,552.75 462.25,553.875 454.5,554.625 451.625,554.625"/>
    <polyline points="448.5,554.625 441.75,554.25 433.75,553.125 418.75,548.875 412.5,546.5 397.5,539.5 388.5,534.5 378.0,528.125 366.0,520.25 352.0,510.25 335.75,497.75 316.875,482.375 295.375,463.5 271.125,440.875 244.625,414.375 217.0,384.5 190.5,352.75 168.375,322.25 154.625,296.75 152.375,280.875 162.875,277.75"/>
    <polyline points="184.75,287.75 214.0,308.625 245.75,336.5 276.375,367.375 303.25,398.125 325.25,426.625 342.125,452.125 354.375,474.25 362.625,493.125 367.625,509.125 370.125,522.5 370.75,533.5 370.25,542.5 368.875,549.625 367.375,555.0 364.5,562.375 372.75,553.75 384.25,543.0"/>
    <polyline points="388.5,539.375 401.625,529.25 410.25,523.625 422.0,517.125 429.0,514.0 438.5,510.75 446.625,508.875 455.625,507.75 461.125,507.625 464.375,507.875"/>
    <polyline points="465.875,507.875 472.125,508.75 477.375,510.0 480.375,511.125 481.875,512.0 482.875,513.0"/>
    <polyline points="483.0,513.25 483.0,514.25 481.625,515.5 479.375,516.5 475.25,517.375"/>
    <polyline points="474.5,517.5 470.375,517.875 464.0,517.875 455.75,517.0 448.875,515.625 440.625,513.25"/>
    <polyline points="438.375,512.5 425.0,507.0 411.75,500.125 400.25,493.0 387.375,484.125 373.75,473.375 360.25,461.5 352.25,453.375 345.875,446.125"/>
    <polyline points="343.5,442.875 341.75,440.125 340.875,437.875 340.625,436.25 341.25,435.25 342.75,435.0 344.875,435.375 351.5,438.125 355.625,440.375 370.5,449.625 413.375,478.0 422.75,483.75 435.25,490.75"/>
    <polyline points="439.125,492.75 449.375,497.625 455.5,500.125 468.375,504.375 481.875,507.5 493.0,509.0"/>
    <polyline points="494.125,509.0 501.75,509.5 506.125,509.5 512.5,509.0"/>
    <polyline points="513.0,508.875 516.75,508.25 524.5,505.875"/>
    <polyline points="525.0,505.625 534.5,501.5 541.875,497.75"/>
    <polyline points="542.875,497.25 564.5,485.625 586.125,473.25"/>
    <polyline points="589.375,471.375 689.375,412.25 710.75,400.125 732.75,388.25 743.125,383.25 752.625,379.125 760.625,376.375 766.5,375.375 770.0,376.5"/>
    <polyline points="770.75,379.875 768.625,385.625 763.625,393.625 756.125,403.5 746.625,414.875 735.625,427.125 723.75,439.875 699.375,464.5 687.5,476.0 665.625,495.875 655.75,504.25 638.25,518.0 623.375,528.25 616.75,532.125 605.0,538.125 594.875,542.125 586.0,544.625 578.0,546.125"/>
    <polyline points="574.375,546.625 564.5,547.375 550.5,547.25 532.5,546.5 524.875,546.5 516.0,547.125"/>
    <polyline points="514.25,547.25 506.125,548.5 498.125,550.375 490.25,552.875 482.0,556.0 473.5,559.875"/>
    <polyline points="471.75,560.75 456.5,568.75 443.875,576.5 437.25,581.125 430.625,586.625 426.375,590.875 422.625,596.0 421.0,599.125"/>
    <polyline points="419.75,602.5 419.0,606.5 419.0,611.25 419.875,616.875 422.125,623.875 426.25,632.625 433.125,644.0 444.0,658.75 460.5,678.5 485.375,704.875 522.0,740.625 575.5,788.125 651.125,849.25 752.125,921.25 872.375,989.875 980.8901,1024.0"/>
    <line x1="992.4682" x2="1024.0" y1="1024.0" y2="1011.9146"/>
    <polyline points="1024.0,748.2236 991.125,654.75 959.0,547.75 946.0,460.625 950.625,391.0 966.625,336.625 985.0,298.5 995.0,280.25"/>
    <polyline points="988.0,285.125 961.375,313.0 920.25,358.125 873.875,411.75 830.5,466.125 795.375,516.125 769.875,559.75 753.75,596.375 745.375,626.125 743.125,649.625 744.875,667.0 748.875,678.75 753.625,684.75 757.5,685.5 759.875,681.375 760.0,673.0 757.875,661.25 753.5,647.25 747.5,631.75 740.125,615.75 732.0,599.875 723.5,584.875 715.125,570.75 706.75,558.0 698.875,546.5 691.5,536.5"/>
    <polyline points="684.5,527.625 672.0,513.625 661.375,503.375 652.25,496.375 648.125,493.625 644.25,491.5 637.25,488.25 634.0,487.125 625.5,485.125 620.5,484.375 614.125,484.0 604.125,483.875"/>
    <polyline points="602.875,483.875 597.0,483.375 595.25,482.75 594.125,481.625 594.0,480.75 594.5,479.375 597.125,476.375 598.875,475.0"/>
    <polyline points="599.875,474.125 613.25,464.875 627.5,456.25 646.25,445.625 660.625,438.125"/>
    <polyline points="664.25,436.375 674.75,431.5 683.5,428.375 687.875,427.5 689.375,427.75 690.375,428.25 690.875,429.125 690.875,430.375 690.375,432.0 687.625,436.375 679.875,445.125 672.75,451.875 664.75,458.75 651.75,468.75"/>
    <polyline points="647.25,471.75 638.5,477.5 626.0,484.625 618.25,488.5 607.625,493.0 595.25,497.125 587.375,499.0 578.5,500.5 571.375,501.125"/>
    <polyline points="569.875,501.125 563.5,501.0 557.875,500.0 556.125,499.125 555.625,498.5 555.25,497.625 555.625,496.25"/>
    <polyline points="555.875,495.875 557.875,493.625 565.125,488.25 582.625,477.5"/>
    <polyline points="584.875,476.125 626.25,451.5 670.125,426.125 693.75,413.0 717.625,400.875"/>
    <polyline points="724.875,397.75 731.25,395.5 736.5,394.125 740.375,393.875 742.75,395.0 743.375,397.5 742.125,401.375 739.125,406.75 734.375,413.25 721.0,429.0 712.875,437.625 694.875,455.375 685.75,463.875 667.75,479.625 651.0,492.875 643.125,498.625 628.875,508.0 622.375,511.875 616.125,515.125 605.0,520.375"/>
    <polyline points="599.75,522.5 590.375,525.625 581.875,527.75 574.25,529.125 567.375,530.0 552.625,530.75 526.875,530.0"/>
    <polyline points="525.125,530.0 511.125,529.75 488.625,530.875"/>
    <polyline points="487.125,531.0 477.625,531.375 470.375,531.25 462.125,530.625 454.875,529.5 443.375,526.75 428.875,521.625"/>
    <polyline points="424.5,519.75 415.0,515.125 404.125,509.125 391.375,501.25 384.25,496.375 368.625,485.0 360.125,478.25 351.125,470.875 332.125,454.0 322.5,444.75 313.25,435.125 304.5,425.5 296.75,416.25 290.375,407.75 286.0,400.5 283.625,394.875 283.875,391.375 286.5,390.125 291.5,391.25 298.75,394.625 307.625,400.0"/>
    <polyline points="317.625,407.0 339.625,423.875 405.625,479.375 424.5,493.625 439.25,502.75 443.375,504.875 450.875,508.125 454.25,509.375 460.5,511.0 468.875,512.375 471.375,512.5"/>
    <polyline points="473.75,512.625 482.625,512.375 492.375,511.125 502.5,509.0 517.875,504.5"/>
    <polyline points="519.25,504.0 526.75,501.25 539.375,495.75 552.375,489.25 564.125,482.875"/>
    <polyline points="566.875,481.375 596.5,464.125 613.875,453.625 717.75,388.875 757.5,364.625 778.875,351.875 800.25,339.75 819.875,329.375"/>
    <polyline points="836.0,322.625 846.375,320.875 849.375,325.5 844.125,337.25 831.25,355.5 812.375,378.75 790.0,405.0 722.375,482.875 688.125,523.75 674.875,540.125 655.25,565.25 638.0,588.5 631.375,596.875 628.875,599.625 625.0,602.625 623.25,603.125 620.125,602.75"/>
    <polyline points="618.625,602.0 613.625,598.0 599.125,584.625 594.375,580.75 587.125,575.5 579.75,570.875 572.5,567.0 563.125,563.125"/>
    <polyline points="560.875,562.25 550.25,559.375 546.25,558.625 538.75,557.875 533.5,557.875 527.125,558.5 522.625,559.5 517.375,561.5"/>
    <polyline points="516.125,562.25 513.75,563.625 510.625,566.375 508.875,568.5 506.875,572.5 505.875,577.625 506.0,581.75 506.375,584.125 507.0,586.75 509.25,592.75 513.0,600.0 518.875,608.875 522.75,614.125 527.625,619.875"/>
    <polyline points="533.375,626.375 548.375,641.5 558.0,650.25 569.125,659.875 582.125,670.25 597.0,681.375 613.625,692.875 632.0,704.375 651.625,715.25 672.125,724.875 692.375,732.125 711.625,736.125 728.25,735.875 741.625,730.875 750.625,721.0 755.25,706.625 755.5,688.75 752.25,668.625 746.375,647.25 738.625,625.875 730.0,605.375 721.0,586.25 712.125,568.875 703.875,553.375 696.125,539.75"/>
    <polyline points="689.125,528.0 677.25,509.125 667.875,495.625 660.375,486.125 651.625,477.375 649.25,475.5 645.0,472.875 639.5,470.875 636.25,470.375 631.875,470.375 625.5,471.375"/>
    <polyline points="624.5,471.5 618.125,472.75 614.75,472.875 613.5,472.125 613.625,471.25 614.5,469.875"/>
    <polyline points="615.0,469.375 620.625,464.75 627.75,460.125 635.25,455.75 645.375,450.375"/>
    <polyline points="647.125,449.625 652.125,447.25 658.0,445.125 661.125,444.5 663.0,444.875 663.125,446.5 660.5,450.25 658.125,452.75 653.375,456.875"/>
    <polyline points="651.5,458.375 643.375,464.375 638.875,467.25 627.75,473.5 621.5,476.5 615.625,478.875 610.375,480.75 603.125,482.5"/>
    <polyline points="601.875,482.75 596.375,483.125 594.625,482.75 593.625,482.0 593.375,481.0 594.25,479.125 595.75,477.375 598.125,475.375"/>
    <polyline points="599.125,474.5 607.0,468.875 623.875,458.375 641.875,448.0 659.75,438.375"/>
    <polyline points="663.5,436.5 677.5,430.125 686.0,427.375 689.75,427.125 690.875,427.5 691.625,428.375 691.75,429.5 690.25,433.125 686.75,438.0 681.25,444.125 677.875,447.5 666.125,457.875 652.875,468.125"/>
    <polyline points="648.5,471.25 639.625,477.125 626.875,484.5 615.25,490.25 608.125,493.125 598.5,496.5 587.5,499.375 578.375,500.875 571.125,501.5"/>
    <polyline points="569.5,501.625 563.0,501.5 557.125,500.5 555.625,499.875 554.5,498.875 554.25,498.25 554.5,497.0"/>
    <polyline points="554.625,496.625 556.875,494.0 559.5,491.875 569.125,485.5 579.25,479.375"/>
    <polyline points="581.375,478.125 660.125,431.625 691.25,414.25 707.75,405.5"/>
    <polyline points="715.75,401.625 723.25,398.125 730.0,395.5 735.875,393.625 740.375,393.0 743.375,393.625 744.5,395.625 744.0,399.125 741.5,404.0 737.25,410.25 731.5,417.625 724.5,425.875 716.375,434.625 698.5,452.625 689.125,461.375 679.875,469.75 662.0,485.0 645.625,497.5 631.0,507.375 624.25,511.5 612.0,518.0"/>
    <polyline points="606.5,520.5 596.25,524.5 591.625,526.0 579.0,529.125 571.625,530.25 556.0,531.375 545.625,531.375 528.875,530.75"/>
    <polyline points="527.125,530.75 509.625,530.5 489.5,531.625"/>
    <polyline points="488.125,531.625 473.125,532.125 462.875,531.5 455.75,530.5 450.25,529.375 440.875,526.875 429.625,522.75"/>
    <polyline points="425.375,521.0 415.875,516.5 398.625,506.75 384.75,497.75 377.125,492.375 368.875,486.25 350.875,471.75 341.125,463.375 331.25,454.375 321.25,444.75 311.5,434.75 302.25,424.75 294.125,415.0 287.375,406.0 282.5,398.25 280.0,392.25 280.0,388.375 282.75,387.0 288.0,388.25 295.5,391.875 304.875,397.5"/>
    <polyline points="315.375,404.875 326.75,413.5 349.75,432.25 398.125,474.0 412.625,485.75 424.625,494.75 434.625,501.375 439.0,503.875 450.5,509.25 460.0,512.0 470.75,513.375"/>
    <polyline points="473.125,513.375 481.875,513.0 491.5,511.625 506.5,508.125 517.0,504.75"/>
    <polyline points="518.5,504.25 532.125,499.0 540.25,495.25 547.625,491.625 563.125,483.25"/>
    <polyline points="565.875,481.75 582.0,472.5 612.0,454.5 736.375,376.75 780.5,349.875 803.375,336.625 824.75,325.125"/>
    <polyline points="842.625,317.125 854.375,314.5 858.25,318.75 853.0,330.875 839.375,350.25 819.125,375.25 745.75,460.5 723.875,486.375 688.875,529.5 665.375,560.75 650.625,582.25 636.625,604.75 634.75,607.25 633.25,608.875 632.0,609.75 630.75,610.0 629.5,609.625 628.25,608.625"/>
    <polyline points="626.875,607.375 613.375,591.625 608.375,586.375 600.25,578.875 591.75,572.25 580.375,564.875 572.25,560.5 564.375,557.125"/>
    <polyline points="561.875,556.125 549.875,552.5 537.125,550.125 533.25,549.75 522.375,549.625 515.625,550.25 512.5,550.875"/>
    <polyline points="510.875,551.125 501.625,553.625 495.75,556.0 490.125,559.0 484.625,562.875 482.0,565.25 478.5,569.25 476.5,572.5"/>
    <polyline points="475.625,574.375 474.25,578.625 473.875,581.0 473.875,586.625 475.375,593.75 479.0,602.875 486.125,615.0 491.5,622.625 498.625,631.625 507.625,642.125 519.25,654.5 534.125,669.125 552.75,686.25 576.125,706.125 604.75,728.75 639.125,753.625 678.875,779.125 722.5,802.875 766.75,820.875 806.75,828.375 837.5,821.75"/>
    <polyline points="855.25,799.5 859.25,764.125 852.375,720.25 838.625,673.375 822.375,627.875 793.125,550.125 782.5,519.125 774.875,493.125 770.0,471.875 767.125,454.5 765.625,440.75 764.375,422.5 763.375,417.625 761.625,415.25 758.75,415.125 754.625,417.25 749.125,421.125 734.375,433.25 706.75,457.125 687.25,473.375"/>
    <polyline points="677.875,480.875 660.0,494.125 651.75,499.875 636.625,509.5 623.125,516.75 611.25,522.125 605.75,524.25 595.875,527.375 582.75,530.25 578.875,530.875 568.25,531.875 561.875,532.125 550.75,532.0"/>
    <polyline points="548.25,532.0 522.0,530.75 503.875,530.875"/>
    <polyline points="502.5,531.0 480.125,532.25 471.125,532.25 460.375,531.375"/>
    <polyline points="458.0,531.0 450.0,529.5 440.5,526.875 433.125,524.375 424.75,520.875 409.75,513.5 390.875,502.125 375.75,491.625 367.375,485.375 349.125,470.5 339.25,462.0 329.25,452.75 319.125,443.0 309.375,432.875"/>
    <polyline points="300.25,422.75 292.125,413.0 285.5,404.0 281.0,396.5 278.875,390.75 279.375,387.25 282.625,386.25 288.375,387.875 296.25,392.0 306.0,398.125 316.875,405.875 340.0,424.125 362.5,443.25 391.375,468.5 413.75,487.0 425.5,495.75 435.375,502.125 439.75,504.625"/>
    <polyline points="443.75,506.625 451.0,509.75 460.375,512.375 465.875,513.25 470.875,513.625 477.75,513.5 487.875,512.375 496.875,510.625 501.75,509.375"/>
    <polyline points="503.375,509.0 509.625,507.25 521.5,503.25 530.625,499.625 542.125,494.375"/>
    <polyline points="543.875,493.375 566.0,481.75 582.125,472.375 619.5,449.875 646.0,433.25"/>
    <polyline points="657.25,426.25 760.875,361.5 784.0,347.625 807.125,334.25 828.625,322.75 846.25,315.0 857.5,312.875 860.375,318.125 854.0,331.375 839.125,351.875 817.875,377.875 743.25,464.625 721.5,490.625 702.875,513.5 687.25,533.375 674.625,550.25 664.625,564.25 650.625,585.5"/>
    <polyline points="646.0,593.125 636.25,609.5 634.875,611.0 633.75,611.625 632.625,611.625 631.5,611.125 628.875,608.5 619.75,596.75 612.375,588.5 604.125,580.375 598.25,575.375 592.375,570.875"/>
    <polyline points="589.375,568.75 577.875,561.625 569.5,557.5 561.625,554.25 551.875,551.125 545.0,549.5 534.625,547.875 528.875,547.5"/>
    <polyline points="527.0,547.375 521.625,547.375 513.125,548.0 505.0,549.375 494.0,552.5 486.125,555.5"/>
    <polyline points="484.5,556.125 478.0,559.25 469.625,564.0 464.5,567.375 457.75,572.875 453.0,578.0 450.25,582.125 448.25,587.125 447.5,590.125 447.125,593.5"/>
    <polyline points="447.25,597.375 448.0,601.75 449.625,607.0 452.125,613.25 456.125,620.75 461.875,629.75 470.125,641.0 481.75,654.875 497.75,672.375 519.5,694.125 549.125,721.5 588.5,755.125 639.75,795.0 703.5,839.375 777.25,882.25 852.5,913.0 915.25,918.25 951.75,889.375 957.75,829.625 941.125,752.5 914.625,672.5 889.125,599.375 870.125,536.625 859.375,484.75 856.25,442.5 858.75,408.75"/>
    <polyline points="864.125,383.0 872.375,355.5 870.0,354.375 861.375,361.75 846.5,376.375 804.375,420.25 781.0,445.25 738.0,492.625 720.0,513.125 665.0,578.125 654.0,590.0 649.875,593.75 646.125,596.25 642.875,597.875 639.875,598.625 637.125,598.625 634.375,598.125 631.625,597.0"/>
    <polyline points="628.875,595.625 620.5,589.75 602.375,575.625 590.0,567.25 584.0,563.75 575.125,559.125 564.25,554.375 556.5,551.75"/>
    <polyline points="554.125,551.125 547.125,549.25 540.5,548.0 528.625,546.75 519.5,546.75 512.75,547.25 506.25,548.25"/>
    <polyline points="504.625,548.5 495.125,550.875 483.75,554.75 471.625,559.875 462.125,564.375"/>
    <polyline points="460.125,565.375 441.875,573.75 436.5,575.875 427.5,578.875 420.375,580.375 416.375,580.875 412.0,581.125 401.625,580.5 395.375,579.25 387.875,577.125 379.0,573.625 368.25,568.625 355.0,561.125 338.25,550.375"/>
    <polyline points="316.875,535.0 289.5,513.25 254.125,482.875 209.125,440.875 154.0,384.75 91.25,314.375 30.625,235.375 0.0,181.4712"/>
    <polyline points="0.0,129.194 36.625,138.0 109.625,191.375 183.875,265.75 242.25,342.25 278.5,411.625 293.625,471.625 291.125,523.0 275.625,566.875 252.125,603.5 226.375,631.75 203.875,649.875 188.75,656.625 183.25,652.0 186.5,637.875 195.875,617.0 221.875,567.5"/>
    <polyline points="234.0,543.125 244.25,520.375 252.5,499.875 258.875,481.875 267.875,453.0 271.75,442.125 275.625,433.625 280.25,427.5 285.5,423.625 291.875,421.75 299.0,422.0 307.125,423.875 315.75,427.125 324.875,431.625 343.75,442.625 362.125,454.75 394.125,476.75 413.5,489.0"/>
    <polyline points="419.125,492.25 424.375,495.125 438.25,501.625 449.875,505.625 459.75,508.125 468.375,509.375 478.125,510.0 486.5,509.875 493.875,509.25"/>
    <polyline points="495.5,509.125 504.875,507.75 514.375,505.75 521.875,503.625 529.375,500.875"/>
    <polyline points="530.75,500.375 540.25,496.375 549.625,491.875 565.875,483.25 576.625,477.125"/>
    <polyline points="579.75,475.375 599.0,464.25 709.125,397.875 737.875,381.25 752.5,373.125 766.5,365.75 779.25,359.875 789.75,356.0 797.125,354.875"/>
    <polyline points="800.5,357.25 799.5,363.25 794.125,373.0 784.625,386.0 772.0,401.5 741.25,436.0 725.25,453.25 695.0,484.875 669.25,510.625 658.375,521.125 639.875,537.625 632.125,544.0 619.125,553.625 613.5,557.125 603.875,562.125 595.75,565.125 588.75,566.75 585.5,567.125"/>
    <polyline points="582.5,567.375 576.875,567.5 571.75,567.25 550.75,565.125 540.75,565.375 533.875,566.875"/>
    <polyline points="532.625,567.375 528.375,569.875 525.875,572.5 524.625,574.75 523.625,578.75 523.5,582.0 523.75,583.75 525.5,590.25 529.625,598.625 537.125,609.25 540.625,613.375"/>
    <polyline points="544.625,617.875 549.375,622.875 560.875,633.875 575.75,646.375 594.25,660.0 604.875,667.0 616.25,673.875 628.25,680.375 640.625,686.125 653.125,691.0 665.25,694.375 676.625,695.875 686.625,695.375 695.125,692.5 701.5,687.375 705.75,679.875 707.75,670.375 707.625,659.375 705.625,647.25 702.125,634.375 697.375,621.375 691.75,608.625 685.625,596.25"/>
    <polyline points="679.125,584.625 666.25,564.0 653.875,547.125 642.625,533.875 632.625,523.625 619.875,512.75 616.125,510.0 609.375,505.75 598.5,500.0 585.5,495.125"/>
    <polyline points="584.125,494.75 579.0,492.75 577.125,491.625 575.75,489.75 575.75,488.75 576.375,487.25 579.0,484.25 580.625,482.875"/>
    <polyline points="581.625,482.125 585.0,479.5 596.75,471.75 618.625,458.5 648.125,441.375"/>
    <polyline points="653.25,438.625 680.875,423.625 692.125,418.25 702.25,413.875 706.625,412.375 713.375,411.125 715.5,411.5 716.625,412.75 716.75,414.75 715.75,417.5 713.75,421.0 710.875,425.125 706.875,430.0 702.25,435.25 691.125,446.5 671.875,463.875"/>
    <polyline points="665.25,469.25 652.125,479.25 639.75,487.75 628.125,494.875 612.5,502.875 598.875,508.25 587.25,511.75 574.0,514.375 558.375,515.75"/>
    <polyline points="556.25,515.875 543.375,515.75 524.125,514.625"/>
    <line x1="523.375" x2="512.375" y1="514.5" y2="514.125"/>
    <polyline points="512.125,514.125 509.25,514.375 505.75,515.125"/>
    <line x1="505.5" x2="497.5" y1="515.125" y2="517.25"/>
    <polyline points="497.125,517.375 489.375,519.125 482.0,520.375"/>
    <polyline points="481.125,520.375 473.0,521.0 466.75,520.875 460.75,520.375 453.625,519.25 445.25,517.125"/>
    <polyline points="442.875,516.5 429.0,511.375 418.875,506.5 411.125,502.375 402.625,497.25 388.375,487.75 372.5,475.625 361.5,466.375 345.875,451.5 337.25,442.0"/>
    <polyline points="333.875,437.625 329.625,430.75 329.0,428.375 329.375,426.875 330.75,426.25 333.25,426.5 336.625,427.75 341.0,429.75 346.0,432.5 357.625,439.875 396.125,466.875 413.375,478.625 428.375,487.875 437.25,492.625"/>
    <polyline points="441.25,494.75 452.125,499.625 458.5,502.0 466.875,504.625 476.375,506.75 484.375,507.875 491.0,508.375 498.125,508.5"/>
    <polyline points="499.375,508.375 504.125,508.25 514.0,507.0 523.25,504.625"/>
    <polyline points="524.125,504.375 536.625,499.5 549.375,493.25"/>
    <polyline points="550.75,492.5 575.75,478.75 594.875,467.75 623.875,450.5"/>
    <polyline points="630.125,446.75 702.375,404.0 725.875,390.75 737.75,384.5 749.0,378.875 759.125,374.375 767.75,371.375 774.0,370.375 777.625,371.75 778.0,375.625 775.125,382.25 769.125,391.375 760.5,402.5 749.75,415.25 737.625,428.75 711.5,456.125 698.625,469.125"/>
    <polyline points="686.25,481.125 663.75,501.75 644.625,517.875 628.625,529.75 621.625,534.375 609.375,541.375 598.875,546.0 594.125,547.625 589.75,549.0 581.75,550.75 574.5,551.75 568.125,552.125 551.625,551.875"/>
    <polyline points="549.125,551.75 534.125,551.125 523.25,551.625 515.0,552.875 509.0,554.5 504.625,556.125"/>
    <polyline points="503.25,556.75 496.5,560.5 490.625,565.75 487.75,570.0 486.25,573.375 485.75,575.25 485.125,579.625 485.125,582.125 486.0,588.0 486.875,591.375 488.375,595.25 493.0,604.5"/>
    <polyline points="496.375,610.125 500.875,616.5 506.625,623.875 513.75,632.25 522.625,642.0 533.75,653.25 547.5,666.25 564.25,681.0 584.5,697.625 608.5,715.875 636.5,735.25 667.875,754.75 701.75,772.625 736.0,786.25 767.75,793.0 793.875,790.5 811.5,777.375 819.75,754.375 819.25,723.75 812.0,688.75 800.625,652.625 787.625,617.75 752.75,532.875 744.625,512.0"/>
    <polyline points="738.25,494.5 733.25,480.125 722.875,445.5 721.125,441.5 719.25,438.75 717.125,437.375 714.625,437.125 711.75,437.875 708.25,439.5 699.75,444.75 678.625,460.125 655.25,476.25 643.875,483.25 633.125,489.375"/>
    <polyline points="628.0,492.0 613.875,498.5 609.625,500.125 601.5,503.0 590.625,506.0 581.25,508.0 573.0,509.125 563.875,509.875 553.25,510.0"/>
    <polyline points="551.75,509.875 540.875,509.0 536.0,508.0 534.125,507.125 533.25,506.0 533.75,504.75 534.75,503.625 538.25,501.125"/>
    <line x1="538.75" x2="564.0" y1="500.875" y2="486.5"/>
    <polyline points="565.75,485.5 600.0,465.625 673.5,422.125"/>
    <polyline points="682.875,416.75 713.0,399.75 733.125,389.375 742.375,385.125 750.5,382.0 757.125,380.125 761.625,380.125 763.875,382.0 763.5,386.125 760.625,392.125 755.25,400.125 747.75,409.75 738.5,420.5 717.0,443.625 694.125,466.25 672.375,486.25 653.0,502.625 636.25,515.25"/>
    <polyline points="628.75,520.375 621.75,524.75 615.25,528.375 603.75,534.0 593.625,537.75 589.0,539.25 584.75,540.25 576.75,541.75 566.25,542.875 554.375,543.125 535.0,542.375"/>
    <polyline points="533.0,542.375 519.625,542.25 509.25,542.875 502.625,543.625 489.25,545.875"/>
    <polyline points="487.5,546.25 472.375,548.875 463.25,549.875 452.375,550.0 449.25,549.75 442.25,548.875 434.125,547.25 429.5,546.0 424.5,544.375 412.625,539.625"/>
    <polyline points="405.75,536.375 389.0,527.25 367.5,513.25 354.5,503.75 339.5,492.25 322.625,478.375 303.625,461.75 282.75,442.25 260.25,419.875 237.25,395.125 215.375,369.25 196.75,344.25 184.125,322.75 179.75,307.875 185.125,302.125 199.625,306.25 221.125,319.375 246.625,339.5 273.0,363.375 298.0,388.625 320.0,413.375 338.5,436.125 353.5,456.5 365.125,474.375"/>
    <polyline points="373.75,489.625 380.0,502.5 384.375,513.25 387.25,522.25 389.125,529.625 390.125,535.5 391.375,546.25 391.875,547.875 392.5,548.75 393.5,549.0 396.375,547.75 405.75,541.125 418.375,532.75 431.75,525.125"/>
    <polyline points="435.0,523.5 444.375,519.375 453.0,516.25 463.25,513.5 469.875,512.125 477.75,511.0 489.875,510.125"/>
    <polyline points="491.125,510.0 503.125,509.625 511.75,508.875"/>
    <polyline points="512.25,508.875 518.875,507.5 524.75,505.625"/>
    <polyline points="525.25,505.375 532.5,502.375 543.125,497.125"/>
    <polyline points="544.125,496.625 563.375,486.25 590.75,470.5"/>
    <polyline points="594.375,468.375 694.125,409.5 716.0,397.125 737.875,385.625 747.875,381.0 756.75,377.375 763.875,375.375 768.875,375.25 771.125,377.5 770.5,382.0"/>
    <polyline points="767.0,388.875 760.75,397.75 752.25,408.5 742.0,420.375 718.375,445.75 682.25,481.125 671.25,491.125 651.5,508.125 642.625,515.0 627.125,526.125 620.25,530.375 608.0,537.0 602.5,539.5 592.75,543.125 584.125,545.375 572.875,547.125"/>
    <polyline points="569.5,547.375 554.625,547.625 537.875,546.875 525.875,546.75 513.625,547.625"/>
    <polyline points="512.0,547.875 507.125,548.625 494.375,551.875 483.25,556.125 471.375,561.875"/>
    <polyline points="469.625,562.875 462.5,567.125 457.0,570.875 451.5,575.25 448.0,578.625 446.25,580.5 443.125,584.875 440.75,590.0 439.875,593.125 439.375,596.625 439.5,600.625 440.125,605.375 441.875,611.0 444.625,617.75 449.125,626.0 455.875,636.25"/>
    <polyline points="465.75,649.125 479.625,665.5 499.375,686.25 526.75,713.0 564.375,746.75 615.25,788.625 681.375,837.625 761.875,889.25 849.5,931.875 927.75,948.625 977.25,925.0 989.0,861.25 971.125,773.75 940.625,681.75 911.75,597.875 891.75,526.75 882.5,468.375 882.5,421.375 888.75,384.25 897.5,356.875 904.375,339.75 905.25,334.0 897.625,339.875 881.0,356.5 857.25,381.625 829.375,411.75"/>
    <polyline points="800.75,443.625 773.875,474.75 750.25,503.375 730.5,528.75 714.75,550.5 702.375,568.625 693.125,583.625 686.25,595.625 674.875,616.75 672.75,619.75 671.0,621.25 669.25,621.375 667.375,620.25 665.25,618.0 646.375,593.375 638.25,583.875 629.625,574.75"/>
    <polyline points="625.25,570.625 616.625,562.875 608.125,556.125 600.0,550.375 588.625,543.5 578.25,538.25 566.0,533.25 553.0,529.25 544.125,527.25"/>
    <polyline points="542.125,526.875 531.375,525.125 522.375,524.25 506.875,524.0"/>
    <polyline points="505.75,524.0 487.25,525.375 477.0,525.75"/>
    <polyline points="475.625,525.75 471.0,525.75 458.25,524.5 453.875,523.75 443.875,521.125 434.75,518.125 427.75,515.25 420.0,511.625 411.125,506.875"/>
    <polyline points="406.25,504.125 395.75,497.625 377.5,484.875 356.875,468.25 342.625,455.25 335.625,448.5 329.125,441.625 323.0,435.0 317.875,428.75 313.625,423.0 310.75,418.125 309.25,414.375 309.375,411.875 311.0,410.75 314.125,411.125 318.75,412.875 324.625,415.875 331.5,420.125 347.25,431.0"/>
    <polyline points="355.625,437.125 402.5,472.75 415.25,481.875 431.5,492.125 436.25,494.875 444.875,499.25 456.0,503.75 468.25,507.25 478.375,508.75"/>
    <polyline points="480.625,508.875 486.875,509.125 494.375,508.875 502.375,508.0 510.875,506.5 520.0,504.125"/>
    <polyline points="521.25,503.75 526.25,502.125 535.375,498.5 547.25,493.0 558.25,487.375"/>
    <polyline points="560.375,486.25 593.0,467.75 704.5,400.5"/>
    <polyline points="718.5,392.375 747.75,375.625 762.125,367.875 775.5,361.375 787.0,356.625 795.625,354.5 800.5,355.625 801.0,360.375 797.0,369.0 788.75,381.0 777.0,395.75 762.75,412.5 730.875,447.625 699.875,480.25 673.25,507.125 661.875,518.125 642.75,535.75 634.625,542.5 627.5,548.125 615.375,556.5"/>
    <polyline points="610.25,559.5 601.25,563.75 597.25,565.125 593.5,566.25 586.875,567.5 575.5,567.875 557.375,566.0 548.25,565.375 544.875,565.5"/>
    <polyline points="543.25,565.5 537.5,566.375 533.625,567.5 529.25,570.0 526.0,573.5 524.625,577.125 524.125,580.125 524.75,585.5 526.0,589.875"/>
    <polyline points="527.0,592.25 531.875,601.0 534.25,604.5 540.375,612.25 548.625,621.375 559.75,632.0 566.375,637.875 582.375,650.75 591.625,657.5 612.875,671.125 624.5,677.5 636.5,683.5 648.75,688.375 660.75,692.125 672.125,694.125 682.375,694.25 691.125,692.125 698.0,687.75 702.875,681.125"/>
    <polyline points="705.5,672.5 706.0,662.125 704.75,650.625 701.75,638.25 697.5,625.5 692.25,612.875 686.375,600.5 680.125,588.875 673.625,578.0 667.25,568.0 654.875,550.75 643.375,537.0 633.25,526.375 624.25,518.25 612.75,509.625 606.25,505.75 598.0,501.5"/>
    <polyline points="595.625,500.5 591.375,498.75 576.75,493.625 574.5,492.125 573.875,491.375 573.625,489.625 574.0,488.75"/>
    <polyline points="574.25,488.125 577.625,484.5 585.5,478.625 596.375,471.625 612.5,461.875"/>
    <polyline points="615.75,460.0 645.0,442.875 672.5,427.625 690.25,418.5 701.375,413.5 710.75,410.125 714.375,409.375 717.125,409.375 719.0,410.125 719.625,411.625 719.25,414.125 717.75,417.375"/>
    <polyline points="715.25,421.375 707.125,431.5 701.875,437.125 696.0,443.125 683.0,455.375 676.125,461.5 662.375,472.75 655.625,478.0 642.625,487.25 630.5,494.875 614.25,503.5 604.625,507.625 595.875,510.75 587.875,513.0 580.75,514.625"/>
    <polyline points="577.375,515.25 568.375,516.625 558.0,517.375 547.625,517.5 529.0,516.75"/>
    <polyline points="528.0,516.625 518.0,516.125 510.625,516.25"/>
    <polyline points="510.125,516.375 503.625,517.0 498.5,518.0"/>
    <polyline points="498.0,518.125 488.25,520.0 480.875,520.875"/>
    <polyline points="480.0,521.0 474.75,521.375 468.625,521.375 462.75,521.0 452.125,519.25 440.625,516.125"/>
    <polyline points="438.0,515.25 422.5,508.75 406.875,500.25 393.0,491.375 382.75,484.0 366.125,470.875 349.625,455.75 344.5,450.625 335.75,440.875 329.75,432.625"/>
    <polyline points="328.0,429.5 327.375,427.0 327.875,425.5 329.375,425.0 332.0,425.375 335.625,426.625 340.125,428.875 357.25,439.5 396.625,467.25 414.125,479.125 429.125,488.375 445.75,497.0"/>
    <polyline points="449.375,498.625 462.125,503.375 474.875,506.5 488.5,508.25 501.375,508.25"/>
    <polyline points="502.625,508.25 515.0,506.625 526.5,503.375"/>
    <polyline points="527.375,503.125 538.0,498.75 556.5,489.375"/>
    <polyline points="558.125,488.5 575.25,479.0 598.125,465.75 660.25,428.75"/>
    <polyline points="669.625,423.125 713.5,397.5 725.625,390.75 749.0,378.625 759.5,373.875 768.375,370.625 775.0,369.375 778.75,370.625 779.375,374.375 776.75,381.0 770.875,390.125 762.25,401.25 751.375,414.125 739.125,427.875 726.0,441.875 699.625,468.875 664.375,502.125 645.0,518.5"/>
    <polyline points="636.625,525.0 622.0,535.125 609.625,542.25 604.25,544.875 594.5,548.625 590.125,549.875 582.125,551.75 571.625,552.875 562.625,553.125 540.875,552.125"/>
    <polyline points="538.75,552.125 525.625,552.375 515.75,553.875 508.375,556.125 504.25,558.0 499.125,561.125"/>
    <polyline points="497.875,562.0 494.5,565.25 492.5,567.75 490.875,570.75 489.25,576.125 488.875,580.625 489.5,586.125 490.25,589.25 493.125,596.75 498.25,606.25 502.0,611.875 512.75,625.75 520.25,634.25 529.5,644.0 540.75,655.125"/>
    <polyline points="554.625,667.75 571.25,682.0 591.125,697.875 614.375,715.0 641.0,732.875 670.5,750.375 701.75,765.875 732.75,777.25 761.25,782.25 784.375,778.75 800.0,766.0 807.375,744.75 807.0,716.75 800.625,685.0 790.5,651.875 778.5,619.875 766.25,590.125 736.25,520.625 723.875,489.875 710.875,455.25"/>
    <polyline points="708.875,450.75 706.875,447.5 704.875,445.375 702.75,444.25 700.375,443.875 697.625,444.375 694.625,445.5 683.75,451.625 661.375,466.75 637.875,481.0 629.0,485.625 613.0,492.75"/>
    <polyline points="609.25,494.125 596.125,498.375 587.75,500.375 580.5,501.625 569.0,502.625 563.25,502.625 558.0,502.125"/>
    <polyline points="557.125,502.0 553.875,501.125 552.75,500.375 551.875,499.125 552.0,498.125 552.875,496.75 555.25,494.5"/>
    <polyline points="555.75,494.0 561.625,489.875 570.75,484.125 595.5,469.5"/>
    <polyline points="598.625,467.625 666.5,427.75 690.75,414.125 716.125,400.875 731.25,394.125 737.5,392.125 742.375,391.125 745.75,391.625 747.25,393.5"/>
  </g>
</svg>
