<?xml version="1.0" encoding="utf-8" ?>
<svg xmlns="http://www.w3.org/2000/svg" xmlns:cc="http://creativecommons.org/ns" xmlns:dc="http://purl.org/dc/elements/1.1/" xmlns:ev="http://www.w3.org/2001/xml-events" xmlns:inkscape="http://www.inkscape.org/namespaces/inkscape" xmlns:rdf="http://www.w3.org/1999/02/22-rdf-syntax-ns" xmlns:sodipodi="http://sodipodi.sourceforge.net/DTD/sodipodi-0.dtd" xmlns:xlink="http://www.w3.org/1999/xlink" baseProfile="tiny" height="27.09333333cm" version="1.2" viewBox="0 0 1024.0 1024.0" width="27.09333333cm">
  <metadata>
    <rdf:RDF>
      <cc:Work>
        <dc:format>image/svg+xml</dc:format>
        <dc:source>vpype read './original_svgs/Strange Attractors #496.svg' linemerge linesimplify write './Strange Attractors #496.svg'
</dc:source>
        <dc:date>2024-08-05T01:36:04.851879</dc:date>
      </cc:Work>
    </rdf:RDF>
  </metadata>
  <defs/>
  <g fill="none" id="layer1" inkscape:groupmode="layer" inkscape:label="1" stroke="black" stroke-width="0.7mm" style="display:inline">
    <polyline points="221.0,670.375 224.875,633.125 228.625,607.0 232.375,590.125 236.875,581.0 243.125,578.0 252.0,579.75 263.625,584.875 295.25,600.875 314.0,609.75 333.375,618.25 352.375,625.875 370.375,632.5 386.75,637.875 401.375,642.25 414.125,645.5 425.0,647.875 434.375,649.375 442.25,650.25 448.875,650.5 454.625,650.125 459.375,649.375 463.625,648.25 467.25,646.875 470.375,645.125"/>
    <polyline points="473.25,643.25 478.25,639.0 482.625,634.375 494.0,620.125 499.5,613.75 505.0,608.125 508.75,604.75 514.25,600.5 518.0,598.125 521.875,596.125"/>
    <polyline points="523.75,595.25 531.375,592.75 537.125,591.75 543.0,591.5 549.0,592.125 553.125,592.875 561.25,595.625 569.625,600.0 573.75,603.0"/>
    <polyline points="575.875,604.625 581.875,610.5 585.875,615.375 587.75,618.125 591.25,624.375 594.25,631.75 596.625,640.625 597.875,651.375 597.75,664.375 596.875,671.875 595.5,680.125 593.25,689.25 590.125,699.375 585.875,710.5 580.5,722.5 573.625,735.625 565.125,749.625 554.75,764.25"/>
    <polyline points="542.375,779.25 528.125,794.125 511.75,808.0 493.75,820.0 474.625,829.0 455.0,834.0 435.75,834.0 417.875,828.5 402.25,817.5 389.375,801.75 379.625,782.25 373.0,760.25 369.0,737.125 367.125,714.0 367.125,691.875 368.25,671.25 370.25,652.375 372.75,635.625 375.5,620.75 378.25,607.75 383.75,586.875 388.75,571.375 393.125,560.0"/>
    <polyline points="395.125,555.625 398.625,548.375 404.375,539.0 411.75,529.5 413.75,526.5 415.125,523.125 415.125,521.875"/>
    <polyline points="415.125,521.25 414.75,519.5 413.5,517.375 411.375,515.375 409.25,514.0 402.625,511.5 398.125,510.75"/>
    <polyline points="396.875,510.625 391.875,510.5 389.25,510.75 384.25,511.875 379.875,513.875 377.5,516.0 375.875,518.75 375.5,520.75 376.125,524.0"/>
    <polyline points="376.625,525.125 379.125,528.5 382.875,531.75 387.625,534.5 393.125,536.625 399.0,537.875 402.875,538.375 410.375,538.125 417.0,536.75"/>
    <polyline points="418.375,536.25 422.375,534.375 425.75,532.25 429.625,528.125 431.375,524.625 431.875,521.875 431.75,519.375 430.5,516.0"/>
    <polyline points="430.0,515.125 428.25,512.75 425.75,510.5 420.25,507.0 417.5,505.75 412.875,504.0 407.625,502.5 399.625,501.0 395.25,500.5"/>
    <polyline points="393.0,500.375 383.25,500.375 378.25,500.875 370.625,502.5 363.625,505.25 359.5,507.875 357.75,509.375 354.875,513.0 353.375,517.25 353.125,519.625 353.25,522.0 354.875,527.25 358.375,532.625"/>
    <polyline points="360.75,535.25 366.625,540.5 373.625,545.125 377.625,547.125 381.625,549.0 390.0,552.125 398.375,554.25 402.5,555.0 410.375,555.75 414.125,555.75 421.125,555.375 424.5,554.875 433.375,552.75 438.5,550.75 445.25,547.375"/>
    <polyline points="447.125,546.125 452.375,542.25 456.625,538.375 460.0,534.5 462.625,530.875 464.0,528.5 465.875,524.125 466.625,521.125 466.75,517.375"/>
    <polyline points="466.625,516.5 466.375,514.75 465.0,511.625 463.5,509.25 461.5,507.125 459.0,505.0 455.0,502.25 450.125,499.5 447.25,498.25"/>
    <polyline points="445.75,497.5 437.25,494.125 429.125,491.375 414.25,487.5 405.375,485.625 395.25,484.125 383.875,483.0 379.875,482.875"/>
    <polyline points="375.625,482.75 366.625,482.875 352.125,484.5 342.125,486.75 337.125,488.375 332.25,490.375 327.5,492.75 323.125,495.625 319.25,499.0 315.875,502.875 313.5,507.375 312.0,512.375 311.625,518.0 312.625,524.0 315.125,530.375 319.0,537.0 324.375,543.625 331.125,550.375 338.875,556.75 347.625,562.875 357.0,568.375 366.625,573.375"/>
    <polyline points="376.25,577.75 385.75,581.5 395.0,584.5 403.625,586.875 411.875,588.625 426.5,590.5 433.0,590.75 444.5,590.125 449.5,589.25 458.5,587.125 469.75,582.75 476.125,579.5 481.75,576.125 496.125,566.375"/>
    <polyline points="498.25,565.0 509.75,557.375 518.375,552.75 521.75,551.25 531.375,547.875 541.125,546.0"/>
    <polyline points="542.75,545.875 547.875,545.375 558.625,545.25 586.5,546.25 594.25,546.125"/>
    <polyline points="597.0,546.0 605.75,545.25 615.375,543.625 622.375,541.75 630.0,539.25 638.0,535.625 646.75,530.5 651.375,527.375 661.125,519.375 666.25,514.5 671.625,508.75 677.125,502.25 682.625,494.75 688.25,486.25 693.875,476.625 699.375,465.75 704.625,453.75"/>
    <polyline points="709.5,440.625 713.75,426.375 717.125,411.375 719.25,395.75 719.875,380.125 718.75,364.875 715.5,350.875 710.25,338.75 702.75,329.125 693.25,322.5 682.25,319.125 670.0,318.875 657.0,321.75 643.875,327.0 630.875,334.375 618.625,343.0 607.125,352.5 596.5,362.375 587.0,372.125 578.375,381.625 558.125,406.875 544.125,426.25"/>
    <polyline points="540.5,431.5 531.375,444.375 524.375,453.625 516.625,462.25 513.25,465.375 506.75,470.25 502.125,472.875 493.0,476.25"/>
    <polyline points="491.5,476.625 482.0,477.875 475.5,477.875 468.5,477.375 457.125,475.5 446.375,473.0"/>
    <polyline points="444.125,472.375 403.0,460.625 381.75,455.375 366.0,452.375 347.0,449.875"/>
    <polyline points="339.75,449.25 323.5,448.75 314.5,449.0 304.75,449.75 294.25,451.0 283.125,453.125 271.5,456.25 259.5,460.625 247.75,466.625 236.875,474.625 227.875,485.0 222.25,497.875 221.625,513.5 227.375,531.5 240.375,551.25 260.25,571.5 285.625,591.25 314.0,609.375 343.0,625.25 370.125,638.75 394.375,649.875 445.125,672.375 455.5,677.375"/>
    <polyline points="463.375,681.375 469.25,684.5 479.25,690.75 476.75,684.0 475.5,678.375 474.75,671.75 474.625,664.25 475.25,656.25 476.5,648.125 477.375,644.125 480.875,632.375"/>
    <polyline points="482.25,628.75 485.25,621.625 490.25,612.125 497.5,601.375 501.375,596.875 507.125,591.0 512.875,586.25 520.75,581.25 524.625,579.375 528.625,577.875"/>
    <polyline points="530.5,577.125 536.5,575.625 542.625,574.75 546.75,574.5 555.25,574.75 568.75,576.875 581.0,580.375 586.125,582.25"/>
    <polyline points="588.875,583.25 600.0,587.875 615.125,595.375 628.125,603.25 638.375,610.5 645.375,616.375 648.75,619.625 652.25,623.125 655.625,627.125 659.0,631.375 662.25,636.125 665.25,641.5 668.0,647.5"/>
    <polyline points="670.5,654.375 672.5,662.375 673.875,671.5 674.375,682.25 673.875,695.0 671.75,710.0 667.625,728.125 660.75,749.875 650.25,776.0 634.875,807.125 613.125,843.5 583.375,885.0 544.25,929.25 495.375,971.75 438.5,1004.625 378.75,1018.625 323.875,1006.0 281.0,966.25 253.375,906.75 239.75,838.75 235.75,772.625 237.125,714.5 240.5,667.125 244.0,630.5 247.125,603.625 249.875,585.125"/>
    <polyline points="252.625,573.625 256.25,567.75 261.25,566.5 268.25,568.75 277.5,573.5 303.125,587.625 318.5,595.375 334.75,602.875 351.125,609.75 367.0,615.75 382.0,620.75 395.75,624.875 408.0,628.0 419.0,630.25 428.625,631.75 437.0,632.625 444.375,632.875 450.75,632.625 456.375,631.875 461.375,630.875 465.75,629.625 473.25,626.5 479.625,622.75"/>
    <polyline points="482.375,620.75 485.125,618.75 505.25,601.625 513.375,595.875 521.25,591.5 525.25,589.75 531.125,587.875 535.125,587.0"/>
    <polyline points="537.125,586.75 543.25,586.25 547.25,586.375 553.5,587.125 559.875,588.625 564.25,590.125 570.875,592.875 577.625,596.625 584.5,601.5 591.25,607.625"/>
    <polyline points="593.5,610.0 597.875,615.375 602.0,621.875 605.625,629.5 607.25,634.0 608.625,638.875 610.625,650.125 611.0,656.75 611.0,664.125 610.375,672.375 609.125,681.5 606.875,691.75 603.625,703.25 599.0,716.125 592.875,730.375 585.0,746.0 574.875,763.0 562.25,781.25 547.0,800.125 528.875,818.875 508.0,836.375 484.75,851.125"/>
    <polyline points="460.125,861.375 435.25,865.5 411.5,862.25 390.5,851.125 373.125,832.75 360.125,808.875 351.375,781.25 346.375,752.125 344.375,723.25 344.5,696.125 346.0,671.25 348.375,649.25 351.25,630.125 354.25,613.875 360.0,588.375 365.25,570.875 367.625,564.5 372.0,555.0 376.125,548.875 380.0,545.125 382.0,543.875"/>
    <polyline points="384.0,542.875 387.875,541.5 391.875,540.75 403.5,539.375 413.75,537.125 420.625,534.125 424.75,531.125"/>
    <polyline points="425.5,530.375 427.625,527.875 429.0,525.375 429.75,522.0 429.75,520.25 429.125,517.75 427.375,514.625 426.125,513.0 422.625,510.125"/>
    <polyline points="421.625,509.5 416.875,506.875 414.0,505.75 407.5,503.75 400.0,502.25 393.75,501.625 386.875,501.5 382.25,501.75 375.125,503.0"/>
    <polyline points="372.75,503.5 368.25,505.125 364.125,507.25 362.25,508.5 359.125,511.375 356.875,515.0 356.25,517.0 355.875,519.125 356.375,523.625 358.375,528.5 360.0,531.0 362.0,533.5 367.125,538.25 370.125,540.5 377.0,544.625 388.25,549.5"/>
    <polyline points="392.125,550.625 399.875,552.5 407.375,553.375 417.875,553.375 427.0,551.875 432.375,550.375 441.5,546.25 445.25,543.875 448.5,541.375 451.375,538.875 455.0,535.125"/>
    <polyline points="456.0,533.875 459.25,529.125 460.375,526.875 461.5,523.625 462.125,520.5 462.125,517.625 461.25,514.0 460.0,511.5 458.375,509.125"/>
    <polyline points="457.625,508.375 454.375,505.375 450.125,502.375 442.0,498.125 431.375,494.0 420.25,490.625"/>
    <polyline points="417.75,490.0 403.5,487.0 390.0,485.25 382.375,484.75 374.25,484.625 365.5,485.0 361.0,485.5 351.625,486.875 347.0,488.0 337.625,491.25 333.125,493.375 328.875,495.875 325.0,498.75 321.75,502.25"/>
    <polyline points="319.0,506.125 317.25,510.625 316.375,515.5 316.625,520.875 318.125,526.625 320.875,532.625 325.0,538.75 330.5,544.875 337.0,551.0 344.5,556.875 352.75,562.25 361.375,567.25 370.375,571.75 379.25,575.5 388.125,578.75 404.625,583.5 412.25,584.875 419.375,585.875 426.0,586.375 432.125,586.5 437.875,586.25 443.125,585.75 447.875,584.875 456.625,582.75"/>
    <polyline points="460.5,581.375 467.5,578.375 479.25,571.75 502.625,555.375 511.0,550.0 515.625,547.5"/>
    <polyline points="517.125,546.75 523.0,544.125 528.75,542.125 533.0,541.125 538.875,540.125 546.25,539.5 554.25,539.5"/>
    <polyline points="555.875,539.5 576.5,540.25 587.75,540.25 600.75,539.25 606.5,538.375 612.5,537.0"/>
    <polyline points="615.75,536.125 626.0,532.5 633.5,528.875 641.5,524.125 650.0,517.75 659.0,509.5 668.5,498.75 673.375,492.25 683.0,476.875 687.75,467.875 692.25,458.0 696.5,447.25 700.125,435.75 703.25,423.5 705.375,410.875 706.5,398.0 706.25,385.375 704.625,373.375"/>
    <polyline points="701.375,362.5 696.5,353.25 690.125,345.875 682.125,340.875 673.0,338.25 662.875,338.0 652.25,340.0 641.375,344.0 630.625,349.625 620.125,356.375 610.125,363.875 600.75,371.875 584.25,388.125 570.625,403.5 559.5,417.0 531.375,453.125"/>
    <polyline points="529.0,456.0 522.5,463.25 518.625,467.0 513.25,471.5 506.75,476.0 499.0,479.75 491.625,481.875 487.0,482.625"/>
    <polyline points="485.5,482.75 476.125,483.0 471.125,482.625 462.25,481.375 456.5,480.25 438.75,475.875"/>
    <polyline points="436.125,475.25 409.0,468.125 389.0,463.875 374.25,461.375 363.0,460.125 350.375,459.25 336.0,459.25 319.75,460.375"/>
    <polyline points="311.0,461.625 301.875,463.5 292.375,466.125 282.875,469.625 273.625,474.375 264.875,480.375 257.5,488.0 252.125,497.25 249.625,508.375 251.0,521.125 257.0,535.375 267.625,550.5 282.875,565.875 301.625,580.75 322.75,594.5 344.5,606.75 365.75,617.375 385.5,626.125 403.125,633.375 418.5,639.125 442.5,647.0 459.25,651.375 470.625,653.25"/>
    <polyline points="474.875,653.375 481.375,652.875 483.875,652.125 488.0,650.0 489.625,648.75 493.875,644.125 502.375,632.25 507.375,626.125 514.25,619.75"/>
    <polyline points="515.75,618.75 518.625,616.875 524.625,614.25 529.25,613.25 535.375,613.125 538.5,613.625 544.5,616.0 548.875,618.875 552.875,623.0"/>
    <polyline points="554.125,624.625 556.375,628.375 558.5,632.75 560.0,637.875 561.125,644.0 561.5,650.875 561.0,658.875 560.375,663.375 558.125,673.0 554.25,683.875 551.75,689.75 545.0,702.0 540.875,708.375 536.125,714.875 530.625,721.25 524.625,727.375 518.125,733.25"/>
    <polyline points="511.0,738.5 503.5,743.125 495.75,746.625 487.75,749.125 479.75,750.25 471.875,749.875 464.5,747.875 457.5,744.375 451.25,739.375 445.875,732.875 441.375,725.25 437.75,716.625 435.0,707.125 433.125,697.25 432.0,687.125 431.75,676.875 432.0,666.875 432.75,657.0 433.875,647.625 435.375,638.625 437.25,630.25 439.125,622.25 441.25,614.875 448.0,595.625"/>
    <polyline points="450.25,590.25 456.75,576.125 462.75,565.0 471.25,551.125 485.875,529.125"/>
    <polyline points="486.5,528.0 488.625,524.375 490.875,519.25 491.5,516.375 491.375,514.0 490.875,512.25"/>
    <polyline points="490.625,511.875 489.75,510.25 488.75,509.125 485.625,506.625 482.125,504.5 478.375,502.75"/>
    <polyline points="477.625,502.375 472.125,499.875 462.75,496.25 445.125,490.25"/>
    <polyline points="443.25,489.625 432.375,486.375 419.375,483.0 410.25,481.0 396.125,478.5 379.375,476.625 369.75,476.25 359.375,476.375"/>
    <polyline points="353.75,476.625 342.125,478.125 336.125,479.25 330.0,480.75 323.875,482.75 317.875,485.25 312.125,488.375 306.75,492.125 302.125,496.625 298.375,502.0 296.0,508.0 295.0,514.875 296.0,522.375 298.875,530.5 304.0,539.125 311.125,547.875 320.125,556.5 330.625,564.75 342.25,572.5 354.625,579.625 367.0,585.75 379.25,591.125 390.875,595.5 401.875,599.0 412.0,601.625"/>
    <polyline points="421.25,603.625 429.625,604.875 437.25,605.625 444.0,605.875 450.25,605.625 455.75,605.0 460.75,604.25 465.375,603.125 473.5,600.375 483.625,595.625 489.375,592.25 508.75,579.875 515.125,576.25"/>
    <polyline points="517.25,575.25 525.375,571.625 529.25,570.25 533.25,569.125 541.25,567.625 549.5,567.0 553.75,567.0 560.25,567.375 569.375,568.5"/>
    <polyline points="571.75,568.875 584.375,571.375 617.875,579.0 629.0,580.875 641.375,582.25 655.375,582.25"/>
    <polyline points="660.375,581.75 671.5,579.625 677.5,577.875 683.875,575.5 690.625,572.25 698.0,568.0 705.875,562.625 714.375,555.625 723.5,546.625 733.5,535.375 744.25,521.25 755.875,503.625 768.0,481.625 780.5,454.875 792.75,422.75 803.75,385.125 811.875,342.875 815.125,298.0 811.125,254.125 798.125,216.25 775.625,189.625 745.25,177.5 710.125,180.25 674.125,195.5 640.5,218.75"/>
    <polyline points="611.5,245.75 588.0,272.875 569.875,298.25 556.625,320.75 547.625,340.0 542.125,356.25 539.5,369.75 539.25,380.875 540.5,390.25 543.125,398.125 546.625,404.75 550.625,410.625 559.125,420.25 570.0,431.625 574.75,437.75 576.25,440.5 577.625,445.625 577.25,450.125 575.75,454.125"/>
    <polyline points="574.5,456.125 571.75,459.75 567.125,464.875 556.25,475.625 547.625,485.0 542.5,491.75"/>
    <polyline points="541.75,492.75 538.125,499.0 536.75,502.5 536.125,505.625 536.125,507.25 536.75,509.625"/>
    <polyline points="536.875,510.0 537.875,511.75 540.5,514.375 545.0,517.0 549.5,518.75"/>
    <polyline points="550.25,519.125 558.0,521.375 565.25,522.75 576.875,524.0 582.0,524.0"/>
    <polyline points="583.875,524.0 593.75,523.25 598.0,522.5 605.0,520.75 612.625,518.125 620.875,514.25 629.625,508.625 635.875,503.625 642.25,497.5 648.75,490.125"/>
    <polyline points="652.0,485.875 658.375,476.25 664.25,465.0 667.0,458.75 669.375,452.25 671.5,445.5 673.25,438.375 674.5,431.25 675.25,424.0 675.375,417.0 674.75,410.125 673.5,403.75 671.5,397.875 668.625,392.875 665.125,388.625 660.875,385.375 656.0,383.25 650.625,382.125 644.875,382.0 638.75,382.875 632.375,384.75 626.0,387.375 619.625,390.75 613.25,394.625"/>
    <polyline points="607.125,398.875 601.25,403.5 590.25,413.0 576.0,427.25 561.0,444.0 542.625,465.75 528.875,480.875"/>
    <polyline points="527.375,482.375 522.375,487.125 516.125,492.375 510.75,495.875 506.625,497.875 503.625,498.875"/>
    <polyline points="502.875,499.125 497.625,500.125 493.875,500.25 489.0,499.875 482.75,498.75"/>
    <polyline points="481.75,498.5 473.125,496.375 447.5,488.625"/>
    <polyline points="445.5,488.125 432.125,484.25 415.625,480.125 398.375,476.75 381.625,474.625 366.875,473.75 361.5,473.75"/>
    <polyline points="355.875,473.875 343.875,474.875 337.625,475.75 331.125,477.0 324.625,478.75 318.0,481.0 311.625,483.75 305.375,487.25 299.75,491.5 295.0,496.5 291.25,502.5 289.125,509.375 288.75,517.125 290.625,525.625 294.75,534.75 301.375,544.125 310.25,553.75 321.125,563.0 333.5,571.875 346.625,580.0 360.25,587.125 373.75,593.375 386.625,598.625 398.75,602.75 409.875,606.125"/>
    <polyline points="420.0,608.5 429.0,610.25 437.25,611.25 444.5,611.75 451.0,611.875 456.75,611.5 466.75,609.75 471.0,608.625 478.625,605.875 485.125,602.625 491.0,599.375 510.25,587.125 516.625,583.625"/>
    <polyline points="518.625,582.625 524.875,579.875 530.875,577.875 537.0,576.5 543.25,575.75 549.5,575.625 558.125,576.25 571.875,579.125"/>
    <polyline points="574.25,579.875 581.75,582.25 592.375,586.5 603.625,592.0 615.625,599.0 625.0,605.625 631.375,610.75 634.625,613.75 640.875,620.25 647.125,628.125"/>
    <polyline points="650.0,632.75 652.75,637.875 655.25,643.625 657.5,650.125 659.375,657.5 660.625,666.0 661.125,675.75 660.75,687.25 659.125,700.625 655.875,716.5 650.375,735.125 642.125,757.25 630.125,783.375 613.25,813.625 590.5,848.0 560.5,885.375 522.625,923.375 477.375,957.125 427.0,980.25 376.25,985.75 331.0,969.25 296.0,931.875 273.5,879.625 261.875,821.125 258.125,764.0 259.125,713.0"/>
    <polyline points="262.0,670.25 265.5,636.125 268.875,610.0 271.75,590.875 274.5,577.625 277.5,569.25 281.125,564.875 285.75,563.75 291.625,565.0 299.125,568.0 318.25,577.5 341.75,588.125 366.5,597.5 378.375,601.25 389.75,604.375 400.375,606.75 410.125,608.5 419.0,609.625 427.125,610.25 441.0,610.0 452.25,608.25"/>
    <polyline points="457.25,607.0 465.875,603.875 473.25,600.375 482.75,594.625 502.75,580.375 511.25,574.75 515.375,572.375 523.375,568.625"/>
    <polyline points="525.25,567.75 535.0,564.75 540.875,563.625 546.875,563.0 559.375,563.0 578.0,565.125"/>
    <polyline points="580.5,565.5 600.125,568.75 613.0,570.375 623.875,571.125 636.0,570.875 645.0,569.875 649.75,569.0 660.0,566.125 671.5,561.375 677.75,557.875"/>
    <polyline points="684.375,553.625 691.5,548.25 699.0,541.75 707.125,533.625 715.625,523.625 724.75,511.5 734.25,496.875 744.125,479.25 754.125,458.25 763.875,433.75 772.625,405.625 779.5,374.375 783.5,341.0 783.25,307.375 777.375,276.125 765.375,250.25 747.25,232.375 724.0,224.25 697.625,225.875 670.375,235.875 644.125,252.0 620.375,271.375 599.875,292.0 582.75,312.25 569.125,331.0 558.5,347.875"/>
    <polyline points="550.375,362.625 544.5,375.375 540.5,386.25 537.75,395.5 536.25,403.375 535.625,410.125 535.625,415.875 536.125,420.875 537.875,429.0 542.75,443.125 543.875,449.375 543.75,453.0 542.875,456.375 541.5,459.5 539.625,462.375"/>
    <polyline points="538.625,463.75 536.25,466.5 532.375,470.25 522.75,477.875 512.125,484.375 505.75,487.25"/>
    <polyline points="504.625,487.75 497.25,490.0 491.25,491.0 483.75,491.25 475.75,490.625 473.0,490.125"/>
    <polyline points="471.5,489.875 460.25,487.625 418.875,477.0"/>
    <polyline points="415.75,476.25 401.75,473.25 389.5,471.125 370.25,469.0 358.875,468.625 346.5,468.75 339.75,469.25 325.5,471.25 310.5,475.125 303.0,478.125 295.75,481.875 288.875,486.5 283.0,492.125 278.375,498.875"/>
    <polyline points="275.625,506.875 275.125,516.0 277.375,526.125 282.75,537.0 291.25,548.375 302.625,559.875 316.25,570.875 331.625,581.25 347.75,590.625 363.875,598.75 379.5,605.625 394.0,611.375 407.25,615.875 419.125,619.375 438.75,623.75 453.875,625.375 465.375,625.125 474.5,623.5 478.25,622.375 485.0,619.75 487.875,618.25"/>
    <polyline points="490.625,616.625 495.75,613.5 510.875,603.25 514.875,600.875 522.625,597.125 528.5,595.125 534.25,593.875 540.125,593.375 542.125,593.5"/>
    <polyline points="544.0,593.5 548.0,594.0 554.0,595.375 560.0,597.625 564.125,599.625 568.125,602.125 574.125,606.875 580.0,613.0 585.375,620.75 588.5,627.25 591.25,634.875"/>
    <polyline points="592.25,639.25 593.125,644.125 593.875,655.125 593.0,668.375 591.875,676.125 590.0,684.5 587.25,693.75 583.625,703.875 579.0,714.875 573.125,726.75 565.75,739.5 556.875,752.875 546.125,766.625 533.75,780.5 519.5,793.75 503.625,805.75 486.5,815.5 468.5,822.125 450.5,824.875 433.125,822.875 417.375,815.875 403.75,804.25 392.75,788.625 384.5,769.875"/>
    <polyline points="379.0,749.25 375.75,727.875 374.375,706.625 374.5,686.125 375.75,667.125 377.75,649.75 380.125,634.125 385.625,607.875 388.375,597.25 393.5,579.75 398.25,566.625 404.125,552.75 408.75,543.5 415.125,532.375"/>
    <polyline points="415.75,531.125 417.5,527.75 418.5,524.875 418.875,522.375 418.625,520.0 417.375,517.25 415.875,515.375 413.75,513.625 411.25,512.125"/>
    <polyline points="410.25,511.625 404.625,509.625 399.25,508.5 394.75,508.125 390.125,508.125 387.0,508.375 382.375,509.25 378.0,510.875 375.5,512.25"/>
    <polyline points="374.375,513.125 371.625,516.0 370.375,519.625 370.5,522.375 371.375,525.25 372.125,526.75 374.25,529.625 379.0,533.75 385.125,537.375 392.0,540.0 399.375,541.75"/>
    <polyline points="401.75,542.0 406.5,542.375 411.125,542.25 417.375,541.25 423.0,539.625 427.75,537.375 432.75,533.875 436.375,530.0 438.625,526.0"/>
    <polyline points="439.0,525.0 439.625,522.0 439.5,519.125 438.875,516.375 437.5,513.75 435.5,511.125 432.875,508.75 429.625,506.5 424.25,503.5"/>
    <polyline points="422.625,502.875 417.625,500.875 409.75,498.625 400.5,496.875 392.625,496.0 384.125,495.75 375.0,496.375 365.75,498.0 359.625,500.0"/>
    <polyline points="356.75,501.25 351.375,504.25 347.0,508.25 344.0,513.25 343.25,516.125 343.0,519.125 343.25,522.25 344.125,525.625 345.625,529.125 347.875,532.625 350.625,536.125 357.875,543.125 362.125,546.375 371.875,552.25 377.125,554.75 382.5,557.0 393.125,560.5 398.5,561.875 408.5,563.5"/>
    <polyline points="413.25,563.875 422.25,563.875 430.25,563.0 437.375,561.375 446.5,558.125 454.25,554.125 462.625,548.375 469.125,542.75 475.375,536.125"/>
    <polyline points="476.375,534.875 481.25,528.375 484.5,522.125 485.75,517.125 485.5,514.125"/>
    <polyline points="485.375,513.625 484.0,510.5 482.0,508.125 479.25,505.875 472.375,501.875"/>
    <polyline points="471.375,501.375 463.875,498.0 454.125,494.25 433.25,487.5"/>
    <polyline points="430.875,486.875 414.875,482.75 401.75,480.25 386.25,478.125 377.375,477.375 367.75,477.125 351.75,477.875 340.25,479.625 334.25,481.0 328.375,482.75"/>
    <polyline points="322.375,485.0 316.75,487.75 311.375,491.125 306.5,495.125 302.375,499.875 299.375,505.375 297.75,511.625 297.625,518.5 299.5,526.125 303.25,534.25 309.0,542.5 316.75,551.0 326.0,559.25 336.75,567.0 348.25,574.25 360.125,580.75 372.125,586.375 383.875,591.125 394.875,595.0 405.375,598.125 414.875,600.375 423.625,602.0 431.625,603.0 438.75,603.5 445.25,603.5 451.125,603.125"/>
    <polyline points="456.5,602.375 461.375,601.5 465.75,600.25 473.625,597.5 477.25,595.875 483.625,592.625 510.625,575.625 518.875,571.25 524.875,568.75"/>
    <polyline points="526.875,568.0 534.625,565.625 540.625,564.5 550.625,563.75 563.625,564.25 580.375,566.5"/>
    <polyline points="582.875,567.0 606.125,571.0 619.875,572.625 631.375,573.125 639.875,572.875 649.125,571.75 659.375,569.375 670.75,565.125 676.875,562.125 683.5,558.25"/>
    <polyline points="690.375,553.5 697.875,547.5 705.875,540.0 714.5,530.75 723.5,519.5 733.25,505.625 743.375,488.875 753.75,468.75 764.0,444.75 773.75,417.0 782.0,385.5 787.625,351.125 789.25,315.625 785.5,281.25 775.25,251.5 758.125,229.5 735.25,217.625 708.125,216.5 679.5,225.0 651.5,240.625 625.875,260.5 603.625,282.125 585.25,303.5 570.5,323.625 559.125,341.5 550.625,357.25"/>
    <polyline points="544.625,370.75 540.5,382.25 538.0,392.0 536.75,400.25 536.5,407.25 537.0,413.25 537.875,418.5 539.25,423.0 540.625,427.0 547.375,441.75 548.25,444.0 549.25,448.375 549.25,452.125 548.5,455.75 546.125,460.625 544.0,463.625"/>
    <polyline points="542.75,465.125 536.125,471.75 527.75,478.75 516.25,486.75 510.5,489.875"/>
    <polyline points="509.375,490.375 502.0,493.375 495.875,494.75 489.625,495.25 483.125,494.875"/>
    <polyline points="482.0,494.75 469.25,492.5 443.25,485.5"/>
    <polyline points="441.125,484.875 426.25,480.875 407.75,476.625 400.5,475.25 383.875,472.75 374.25,471.875 358.0,471.375 345.75,472.0"/>
    <polyline points="339.375,472.625 332.625,473.625 318.75,477.0 311.75,479.5 304.875,482.625 298.375,486.5 292.625,491.375 287.75,497.125 284.25,503.875 282.625,511.625 283.25,520.375 286.25,529.875 292.125,540.0 300.625,550.375 311.5,560.625 324.25,570.5 338.375,579.625 353.0,587.875 367.75,595.125 381.875,601.125 395.125,606.125 407.25,610.125 418.375,613.125 428.125,615.25 436.875,616.75"/>
    <polyline points="444.625,617.5 451.5,617.875 463.0,617.125 467.875,616.375 476.125,614.125 479.75,612.75 486.25,609.625 497.125,603.125 512.875,593.125 523.125,588.0"/>
    <polyline points="525.125,587.25 531.25,585.375 535.25,584.5 539.375,584.0 547.5,583.75 551.75,584.125 558.125,585.25 562.5,586.375 569.25,588.625 578.5,593.0"/>
    <polyline points="580.875,594.375 588.0,599.0 592.875,602.875 600.0,609.75 604.625,615.5 609.0,622.25 613.0,630.25 616.25,640.125 617.5,645.875 618.375,652.25 618.875,659.25 618.75,667.25 618.0,676.25 616.5,686.375 613.875,697.75 610.0,710.625 604.625,725.0"/>
    <polyline points="597.375,741.25 587.875,759.125 575.75,778.625 560.5,799.5 542.0,821.0 520.125,842.0 495.0,860.75 467.625,875.25 439.125,883.25 411.375,882.75 386.375,872.875 365.5,854.0 349.75,827.75 339.25,796.75 333.25,763.875 330.75,731.125 330.875,700.625 332.625,673.0 335.25,648.875 338.25,628.125 341.25,610.875 347.125,584.875 349.875,575.375 352.375,567.875 354.75,562.0"/>
    <polyline points="357.125,557.375 359.5,553.875 361.875,551.375 364.25,549.625 366.75,548.375 369.25,547.625 372.0,547.125 377.625,547.0 392.75,548.25 398.875,548.5 407.75,548.25 415.875,547.25 425.125,544.625"/>
    <polyline points="427.25,543.75 432.75,541.0 437.25,537.875 441.0,534.625 443.75,531.25 445.25,529.0 447.125,524.625 447.75,521.5 447.5,517.5"/>
    <polyline points="447.25,516.625 446.125,513.75 443.75,510.25 441.25,507.75 438.0,505.375 429.875,500.875 424.75,498.75 418.875,496.875"/>
    <polyline points="416.625,496.25 407.25,494.0 396.25,492.25 386.875,491.5 376.625,491.5 369.375,492.125 365.75,492.625 358.375,494.25 351.0,496.625 344.25,500.125 338.5,504.625"/>
    <polyline points="336.25,507.5 334.5,510.5 333.25,513.875 332.75,517.625 333.0,521.625 334.125,525.75 336.0,530.125 338.75,534.625 342.375,539.125 346.75,543.5 351.875,547.75 357.5,551.875 370.0,559.125 376.625,562.25 383.25,564.875 396.375,569.0 408.625,571.375 414.375,572.125 419.875,572.375 429.75,572.125 438.625,570.875"/>
    <polyline points="442.5,569.875 446.25,568.875 453.0,566.375 461.75,562.0 469.125,557.375 477.125,551.25 485.25,544.25 493.875,536.25"/>
    <polyline points="494.875,535.25 505.125,525.75 511.375,521.125"/>
    <polyline points="511.875,520.875 514.625,519.375 517.375,518.5 521.5,518.0"/>
    <polyline points="521.875,518.0 527.125,518.5 534.125,519.875"/>
    <polyline points="534.875,520.125 548.375,523.125 557.125,524.75"/>
    <polyline points="558.375,524.875 570.875,526.5 583.125,526.875 593.25,526.125 602.625,524.375"/>
    <polyline points="605.125,523.75 615.75,520.0 624.625,515.5 630.875,511.5 637.375,506.375 644.25,500.125 647.75,496.375 654.625,487.75 658.125,482.875 664.875,471.625 671.0,458.625 676.0,443.875 677.875,436.125 679.375,428.25"/>
    <polyline points="680.125,420.25 680.25,412.375 679.5,404.875 678.0,397.75 675.75,391.375 672.5,385.875 668.375,381.5 663.5,378.125 658.0,376.0 651.875,375.125 645.375,375.5 638.5,376.875 631.5,379.375 624.5,382.625 617.5,386.625 604.125,396.125 592.0,406.5 581.25,417.0 571.875,427.0 560.125,440.5"/>
    <polyline points="556.75,444.375 536.375,468.375 529.125,476.125 520.375,484.375 516.625,487.375 512.0,490.5"/>
    <polyline points="511.0,491.125 505.875,493.75 499.25,496.0 492.625,496.875 486.75,496.75"/>
    <polyline points="485.75,496.625 479.25,495.75 472.0,494.25 451.875,488.75"/>
    <polyline points="450.0,488.25 430.125,482.625 409.5,477.75 386.25,473.875 372.0,472.625"/>
    <polyline points="366.75,472.5 361.25,472.375 349.625,472.75 336.875,474.125 323.375,477.0 316.625,479.25 309.875,482.0 303.375,485.5 297.375,489.75 292.25,494.875 288.125,501.0 285.75,508.125 285.125,516.125 286.875,525.0 291.125,534.5 298.0,544.375 307.25,554.5 318.75,564.25 331.625,573.5 345.625,582.0 359.875,589.625 373.875,596.0 387.375,601.5"/>
    <polyline points="399.875,605.875 411.375,609.25 421.625,611.875 430.875,613.625 439.125,614.75 453.0,615.375 463.875,614.375 472.875,612.25 480.25,609.5 486.625,606.375 513.25,589.875"/>
    <polyline points="515.375,588.625 523.625,584.75 531.75,582.125 535.875,581.25 542.0,580.5 550.375,580.5 556.75,581.25 563.375,582.625 568.0,584.0"/>
    <polyline points="570.25,584.75 579.875,588.5 589.875,593.75 600.25,600.875 605.5,605.25 610.75,610.375 615.875,616.5 618.25,619.875 623.0,627.875 625.125,632.375 627.0,637.5 628.75,643.125 630.125,649.5"/>
    <polyline points="631.0,656.5 631.5,664.5 631.25,673.625 630.25,684.0 628.125,695.75 624.75,709.25 619.625,724.75 612.5,742.25 602.75,762.25 589.875,784.375 573.375,808.75 552.625,834.5 527.375,860.25 497.875,884.0 465.0,902.75 430.375,913.25 396.75,912.625 366.875,899.5 342.875,874.625 325.625,840.875 315.125,802.125 310.0,762.125 308.875,724.125 310.125,689.625 312.625,659.875 315.75,634.75"/>
    <polyline points="319.0,614.125 322.125,597.5 325.0,584.5 327.75,574.5 330.375,567.0 333.0,561.5 335.75,557.875 338.75,555.5 342.0,554.375 345.5,554.0 349.375,554.25 353.625,555.0 373.25,560.125 383.875,562.5 399.625,564.875 414.0,565.25 422.5,564.5"/>
    <polyline points="426.375,563.75 433.75,562.125 440.125,559.875 445.875,557.375 453.375,553.125 457.625,550.25 463.125,545.875 466.25,543.0 470.25,538.875 476.25,531.5"/>
    <polyline points="477.0,530.375 480.0,525.25 481.875,520.125 482.25,517.875 482.25,515.125 481.625,512.75 480.75,511.0"/>
    <polyline points="480.375,510.5 478.75,508.375 477.125,506.875 472.125,503.375 466.375,500.25 460.5,497.625"/>
    <polyline points="459.125,497.125 450.25,493.625 437.125,489.25 422.75,485.25 404.625,481.375"/>
    <polyline points="401.125,480.75 389.875,479.125 372.25,477.875 362.25,478.0 351.5,478.75 345.875,479.5 334.25,482.0 322.75,486.125 317.125,488.875 312.0,492.375 307.375,496.375 303.625,501.125 300.875,506.625 299.5,512.875 299.625,519.75 301.625,527.25 305.625,535.125"/>
    <polyline points="311.5,543.25 319.125,551.375 328.375,559.375 338.75,566.875 350.0,573.875 361.75,580.125 373.375,585.5 384.625,590.0 395.5,593.75 405.625,596.75 415.0,598.875 423.5,600.375 431.375,601.375 438.375,601.75 444.75,601.75 450.625,601.375 460.75,599.625 469.25,597.0 479.75,592.375 488.625,587.25"/>
    <polyline points="491.375,585.625 507.75,575.0 518.0,569.25 525.875,565.875 531.625,564.0 539.375,562.25 543.375,561.75"/>
    <polyline points="545.375,561.5 557.625,561.25 566.375,561.875 606.75,567.0"/>
    <polyline points="610.0,567.375 624.375,567.875 636.625,567.0 645.75,565.375 655.75,562.5 666.75,557.75 672.75,554.5 679.0,550.375 685.75,545.375 692.875,539.25 700.5,531.75 708.625,522.625 717.125,511.5 726.0,498.25 735.125,482.5 744.5,463.75 753.625,442.0 762.0,417.0"/>
    <polyline points="769.0,389.125 773.625,359.125 774.875,328.375 771.75,298.625 763.25,272.625 749.25,252.625 730.125,240.625 707.375,237.25 682.75,242.125 657.875,253.625 634.5,269.5 613.375,287.75 595.25,306.625 580.125,324.875 567.875,341.875 558.0,357.125 550.5,370.5 544.75,382.125 540.625,392.125 537.625,400.75 535.625,408.0 533.625,419.75 533.375,424.5 533.625,432.25"/>
    <polyline points="534.0,435.375 535.125,443.25 535.625,449.375 535.375,452.875 534.0,457.5 531.625,461.625 528.625,465.375 525.0,468.75 518.5,473.625"/>
    <polyline points="517.125,474.5 510.25,478.375 504.75,480.875 500.5,482.375 492.125,484.375 485.0,485.125 482.0,485.125"/>
    <polyline points="480.5,485.125 474.25,484.875 464.125,483.5 450.5,480.625 431.5,475.625"/>
    <polyline points="428.75,475.0 406.25,469.375 390.0,466.125 370.25,463.25 352.25,462.0 338.375,462.125 322.75,463.375 314.5,464.75 305.75,466.625 296.875,469.25"/>
    <polyline points="288.0,472.625 279.375,477.125 271.375,482.875 264.625,490.125 259.75,498.75 257.5,509.0 258.5,520.75 263.625,533.75 273.0,547.625 286.375,561.75 303.0,575.5 322.0,588.375 341.875,600.0 361.625,610.0 380.375,618.5 397.375,625.5 412.5,631.0 425.625,635.375 446.5,641.125 454.5,642.75 467.0,644.25 471.875,644.375 476.0,644.125 479.5,643.5"/>
    <polyline points="482.625,642.625 487.75,640.5 491.875,637.75 498.875,631.625 508.0,622.625 512.5,618.875 518.75,614.875 525.0,612.25"/>
    <polyline points="526.625,611.875 531.375,611.0 537.75,611.25 541.0,612.0 544.125,613.125 548.75,615.625 554.5,620.75 557.125,624.25 559.5,628.25 562.375,635.75"/>
    <polyline points="563.125,638.625 564.125,645.25 564.25,648.875 564.125,657.0 563.625,661.5 561.5,671.5 558.0,682.75 552.5,695.25 548.875,701.875 544.625,708.75 539.75,715.75 534.125,722.75 528.0,729.5 521.0,736.125 513.5,742.125 505.5,747.375 497.125,751.75 488.375,754.75 479.625,756.5 471.0,756.5 462.75,754.75"/>
    <polyline points="455.125,751.25 448.25,746.0 442.25,739.125 437.125,730.875 433.125,721.625 430.125,711.375 428.125,700.625 427.0,689.625 426.625,678.625 426.875,667.875 427.75,657.375 429.0,647.25 430.625,637.75 434.625,620.5 439.0,605.625 443.625,592.875 450.375,577.375 458.375,561.875"/>
    <polyline points="460.125,558.625 476.75,530.75 479.5,524.875 481.125,519.5"/>
    <polyline points="481.25,518.625 481.125,515.0 480.5,512.5 479.875,511.25 478.375,509.0 476.25,506.875 472.0,503.875"/>
    <polyline points="471.125,503.375 468.5,501.75 463.125,499.125 456.625,496.375 445.5,492.25 435.5,489.0"/>
    <polyline points="433.25,488.375 423.5,485.625 409.0,482.375 398.75,480.5 382.75,478.625 368.875,478.125 358.75,478.375 347.75,479.5 336.375,481.75"/>
    <polyline points="330.5,483.5 324.75,485.625 319.25,488.25 314.0,491.375 309.25,495.25 305.25,499.75 302.125,505.0 300.375,511.0 300.0,517.625 301.375,524.75 304.75,532.5 309.875,540.5 316.875,548.625 325.625,556.625 335.625,564.25 346.5,571.375 358.0,577.75 369.625,583.375 381.0,588.25 391.875,592.125 402.25,595.375 411.75,597.75 420.5,599.5 428.5,600.625 442.375,601.25"/>
    <polyline points="448.375,601.0 453.875,600.375 463.375,598.25 467.5,597.0 475.0,594.0 484.625,589.0 508.875,573.5 515.0,570.0 521.0,567.125"/>
    <polyline points="523.0,566.25 530.625,563.5 534.5,562.5 544.25,560.875 550.125,560.5 558.5,560.5 574.375,561.875"/>
    <polyline points="576.75,562.25 595.5,564.75 611.25,566.125 622.0,566.375 629.875,566.0 634.0,565.625 642.875,564.0 652.5,561.375 663.125,557.0 669.0,553.875"/>
    <polyline points="675.125,550.125 681.625,545.5 688.5,539.875 695.75,533.0 703.5,524.625 711.625,514.5 720.125,502.375 729.0,488.0 738.0,470.875 746.875,451.0 755.375,428.0 762.75,402.25 768.25,374.125 771.0,344.625 769.875,315.5 764.125,288.625 753.125,266.375 737.0,251.0 716.75,243.625 693.75,244.375 669.75,252.25 646.375,265.375 624.625,281.875 605.5,299.75 589.0,317.875 575.375,335.0"/>
    <polyline points="564.375,350.75 555.625,364.75 548.75,377.125 543.5,387.875 539.625,397.125 536.875,405.125 533.5,417.75 532.25,427.25 532.125,437.625 532.625,447.125 532.375,450.875 531.375,455.625 528.625,461.125"/>
    <polyline points="527.625,462.375 523.5,466.875 517.25,471.75 511.875,475.0 504.875,478.25 499.25,480.25 494.875,481.375"/>
    <polyline points="493.5,481.625 486.125,482.625 478.375,482.875 470.125,482.25 464.75,481.5 451.0,478.625"/>
    <polyline points="448.875,478.125 420.25,470.625 394.875,464.625 376.125,461.25 359.0,459.25"/>
    <polyline points="352.625,458.875 338.5,458.5 330.75,458.75 313.875,460.375 304.875,462.0 295.375,464.25 285.75,467.5 276.125,471.75 267.0,477.25 258.875,484.25 252.375,493.0 248.625,503.5 248.375,515.875 252.625,529.75 261.625,544.875 275.5,560.5 293.375,575.875 314.125,590.375 336.25,603.375 358.125,614.75 378.75,624.375 397.5,632.25 413.75,638.625 427.75,643.625"/>
    <polyline points="439.5,647.5 457.375,652.5 469.375,654.875 477.5,655.375 483.125,654.375 487.125,652.5 491.625,648.375 500.75,634.625 505.625,628.0"/>
    <polyline points="507.0,626.5 512.375,621.125 516.625,617.875 519.625,616.125 524.125,614.125 530.25,612.75 533.375,612.625 536.5,612.875 541.125,614.0 544.125,615.375"/>
    <polyline points="545.625,616.125 551.25,620.5 555.125,625.25 556.25,627.125 559.375,633.875 561.375,642.25 561.75,645.625 561.875,652.875 561.625,656.875 560.375,665.75 559.25,670.75 555.75,681.375 550.625,693.125"/>
    <polyline points="547.125,699.375 543.25,705.875 538.625,712.375 533.5,718.875 527.75,725.25 521.375,731.375 514.375,737.0 507.0,742.0 499.125,746.125 491.125,749.125 483.0,750.875 475.0,751.25 467.25,750.0 459.875,747.125 453.25,742.625 447.375,736.75 442.375,729.375 438.375,721.0 435.25,711.75 433.0,701.875 431.625,691.75 431.0,681.375 431.0,671.125 431.5,661.125 434.0,642.125"/>
    <polyline points="435.75,633.375 437.625,625.25 441.875,610.375 446.375,597.625 450.875,586.625 455.25,577.375 461.25,565.875 469.875,551.5 479.75,536.5"/>
    <polyline points="480.75,535.125 485.75,527.0 488.0,522.5 489.25,519.0 489.625,517.125 489.625,514.375"/>
    <polyline points="489.5,513.875 488.5,511.125 486.125,508.375 482.5,505.625 479.125,503.75"/>
    <polyline points="478.375,503.375 468.0,498.625 447.75,491.375"/>
    <polyline points="445.875,490.75 426.0,484.875 411.625,481.5 405.0,480.25 390.0,477.875 376.875,476.75 367.125,476.5"/>
    <polyline points="361.875,476.5 350.875,477.25 345.125,478.0 333.125,480.375 327.0,482.125 321.0,484.375 315.125,487.25 309.625,490.625 304.75,494.75 300.625,499.625 297.5,505.25 295.875,511.75 296.0,518.875 297.875,526.75 302.0,535.0 308.125,543.625 316.25,552.25 326.0,560.75 337.0,568.625 349.0,576.0 361.25,582.5 373.5,588.25 385.375,593.0 396.625,596.875"/>
    <polyline points="407.125,599.875 416.75,602.125 425.5,603.75 433.375,604.75 447.0,605.125 452.75,604.75 462.875,603.0 471.375,600.5 478.5,597.375 484.875,594.125 511.75,577.375"/>
    <polyline points="513.875,576.125 520.0,573.0 526.0,570.5 532.0,568.625 538.0,567.25 546.0,566.25 550.125,566.125 554.375,566.125 565.375,567.0"/>
    <polyline points="567.625,567.25 585.125,570.375 612.0,576.125 622.625,577.875 634.375,579.125 643.0,579.5 647.625,579.375"/>
    <polyline points="652.375,579.125 662.625,577.625 668.25,576.25 674.125,574.375 680.375,571.875 687.0,568.625 694.125,564.375 701.75,559.0 710.0,552.125 718.875,543.5 728.5,532.625 738.75,519.125 749.75,502.375 761.375,481.75 773.125,456.75 784.75,426.875 795.125,392.125 803.125,353.125 806.75,311.375 804.25,270.25 793.75,233.625 774.75,206.25 748.0,191.5 716.25,190.375 682.5,201.375"/>
    <polyline points="650.125,220.875 621.25,245.125 597.125,270.625 577.75,295.125 563.125,317.5 552.5,337.0 545.375,353.625 541.0,367.625 538.875,379.375 538.625,389.125 539.75,397.375 541.75,404.375 544.5,410.375 547.625,415.5 550.875,420.125 562.5,434.5 566.125,440.25 568.0,445.125 568.375,447.5 568.0,451.75"/>
    <polyline points="567.375,453.75 566.625,455.625 564.375,459.25 560.25,464.375 541.625,482.875 535.375,489.5"/>
    <polyline points="534.375,490.5 526.375,499.875 522.125,506.0"/>
    <polyline points="521.875,506.375 520.625,510.0 521.0,511.875 522.5,513.625 527.125,516.0"/>
    <polyline points="527.5,516.125 536.125,519.125 541.0,520.375"/>
    <polyline points="541.75,520.625 555.875,523.875 569.125,525.75"/>
    <polyline points="570.625,525.875 582.5,526.375 594.75,525.375 601.75,524.0 606.75,522.75 614.75,519.875 626.5,513.75"/>
    <polyline points="629.5,511.75 639.375,504.0 646.125,497.25 653.0,489.0 659.75,479.125 663.125,473.5 669.25,461.0 672.0,454.0 676.5,439.25 678.0,431.5 679.0,423.625 679.375,415.875 679.0,408.375 677.75,401.25 675.75,394.75 673.0,389.0 669.25,384.25 664.75,380.5 659.625,377.875"/>
    <polyline points="653.875,376.625 647.5,376.375 640.875,377.375 634.125,379.375 627.125,382.375 620.25,386.0 613.5,390.25 606.875,394.875 594.625,405.0 578.75,420.5 565.875,434.625 537.75,467.5"/>
    <polyline points="535.75,469.75 525.75,480.25 519.0,486.25 511.25,491.75 504.375,495.125"/>
    <polyline points="503.5,495.5 498.875,496.75 492.625,497.5 487.875,497.375 479.5,496.25"/>
    <polyline points="478.375,496.0 462.75,492.125 438.625,485.125"/>
    <polyline points="436.25,484.5 423.375,481.125 407.875,477.625 396.75,475.625 384.125,473.875 374.75,473.125 358.75,472.625 346.75,473.25 334.0,475.0"/>
    <polyline points="327.25,476.5 320.5,478.375 313.75,480.75 307.125,483.875 301.0,487.75 295.375,492.375 290.75,498.0 287.5,504.5 285.875,511.875 286.375,520.25 289.25,529.375 294.75,539.0 302.75,549.0 313.0,558.875 325.0,568.375 338.375,577.25 352.375,585.25 366.5,592.25 380.125,598.125 393.125,603.0 405.0,606.875 415.875,609.875 425.75,612.0 434.5,613.5 442.25,614.375 449.125,614.625"/>
    <polyline points="455.375,614.5 460.875,614.0 470.25,612.125 474.25,610.875 481.5,608.0 490.625,603.125 512.0,589.625 520.375,585.25 526.5,582.875"/>
    <polyline points="528.5,582.125 536.625,580.25 542.875,579.5 547.0,579.375 555.5,580.0 559.875,580.75 569.0,583.0 576.0,585.5 583.5,588.75"/>
    <polyline points="586.0,590.0 593.75,594.25 599.0,597.625 607.125,603.875 612.5,608.75 617.875,614.625 623.125,621.5 627.875,629.75 630.0,634.625 632.0,640.0 633.625,646.0 635.0,652.75 635.875,660.375 636.125,669.0 635.625,678.75 634.125,690.0 631.5,703.0"/>
    <polyline points="627.25,717.875 621.125,734.875 612.5,754.375 600.875,776.5 585.625,801.125 566.0,827.75 541.625,855.375 512.375,882.25 478.75,905.25 442.25,920.75 405.625,925.375 371.75,916.375 343.75,894.0 323.0,860.625 309.875,820.375 303.125,777.75 301.0,736.5 301.875,699.0 304.25,666.5 307.5,639.125 310.75,616.875 313.875,599.125 316.75,585.375 319.5,574.875 322.125,567.25 325.0,562.0"/>
    <polyline points="327.875,558.5 331.25,556.625 334.875,555.875 339.0,556.125 348.625,558.5 372.0,565.625 378.25,567.25 384.5,568.625 396.75,570.75 408.125,571.75 418.5,571.625 423.25,571.25 432.125,569.875 443.375,566.625 449.875,563.875"/>
    <polyline points="452.75,562.375 463.0,556.25 471.0,550.0 480.375,541.5 487.125,534.375 491.25,529.5"/>
    <polyline points="492.0,528.625 495.875,523.5 498.375,519.625 500.0,515.25"/>
    <polyline points="500.125,514.875 500.0,512.625 499.125,511.0 496.75,509.0"/>
    <polyline points="496.375,508.75 492.625,506.625 483.75,502.875"/>
    <polyline points="483.0,502.625 467.5,496.875 454.75,492.625"/>
    <polyline points="453.125,492.0 430.625,485.25 414.125,481.125 400.5,478.5 384.5,476.375"/>
    <polyline points="380.0,476.0 365.25,475.375 354.375,475.75 348.5,476.25 336.5,478.125 323.875,481.5 317.75,484.0 311.75,487.0 306.125,490.625 301.25,495.125 297.125,500.375 294.375,506.375 293.0,513.25 293.625,520.875 296.25,529.25 301.125,537.875 308.125,546.875 317.25,555.875 327.875,564.5 339.75,572.625 352.375,579.875"/>
    <polyline points="365.125,586.375 377.75,592.0 389.875,596.625 401.125,600.25 411.5,603.125 421.0,605.25 429.625,606.625 437.375,607.5 444.375,607.75 450.625,607.625 456.25,607.125 461.25,606.25 465.875,605.25 474.125,602.5 481.0,599.5 487.25,596.125 504.875,584.875"/>
    <polyline points="507.125,583.5 511.5,580.875 519.875,576.5 530.0,572.625 538.0,570.75 544.125,570.0 552.5,569.75 559.0,570.25"/>
    <polyline points="561.25,570.375 565.875,571.0 577.875,573.375 585.625,575.375 622.625,586.5 633.875,589.625"/>
    <polyline points="637.875,590.75 655.25,594.25 665.125,595.375 675.875,595.625 681.625,595.25 687.75,594.375 694.25,593.0 701.25,590.875 708.875,587.75 717.0,583.375 725.875,577.5 735.625,569.625 746.375,559.25 758.25,545.625 771.375,527.875 785.75,504.875 801.125,475.5 817.125,438.5 832.375,393.125 845.125,339.625 852.0,280.125"/>
    <polyline points="849.0,220.0 832.625,167.75 801.75,132.5 759.125,120.125 711.0,130.25 664.0,156.875 623.125,192.0 590.75,228.75 567.125,263.0 551.5,292.625 542.625,317.375 539.375,337.375 540.5,353.625 545.125,366.75 552.25,377.625 561.125,386.875 570.75,394.75 580.625,401.875 598.375,413.875 611.25,423.75 615.5,427.875 618.375,431.5 620.125,434.625 620.625,437.375"/>
    <polyline points="620.5,439.75 619.625,441.875 618.25,443.625 614.625,446.75 599.75,455.625 592.375,460.75 587.75,464.75 583.75,468.75 579.375,474.0"/>
    <polyline points="578.375,475.25 574.75,481.25 572.25,487.625 571.75,490.375 571.75,493.75 572.5,496.625 573.5,498.5"/>
    <polyline points="574.0,499.0 574.375,499.625 577.375,502.0 579.75,503.125 583.375,504.125 590.0,504.625 595.25,504.125 598.125,503.5"/>
    <polyline points="599.625,503.125 606.0,500.875 611.125,498.375 618.375,493.625 623.875,488.75 629.375,482.75 634.625,475.625 639.25,467.25 641.75,461.125"/>
    <polyline points="642.75,457.875 643.75,454.75 644.875,448.25 645.125,445.0 644.875,439.0 644.375,436.125 642.625,431.0 641.375,428.875 637.875,425.375 635.875,424.25 631.0,422.75 628.375,422.625 622.625,423.375 616.5,425.25 613.375,426.75 607.125,430.125 601.0,434.25"/>
    <polyline points="598.0,436.5 592.25,441.25 587.0,446.125 579.75,453.5 571.625,462.625 565.125,470.875 560.0,478.0 554.625,486.875"/>
    <polyline points="553.875,488.25 550.625,496.0 549.75,500.375 549.75,502.75 550.25,505.5 551.0,507.375 552.125,509.0"/>
    <polyline points="552.625,509.625 556.0,512.5 561.375,515.25 567.5,517.25 575.125,518.5"/>
    <polyline points="576.5,518.625 584.25,519.0 591.25,518.5 599.125,517.125 603.375,516.0 608.0,514.5 615.125,511.375 622.875,506.875 628.25,503.0"/>
    <polyline points="631.0,500.75 633.875,498.25 639.5,492.5 645.25,485.625 648.0,481.75 653.375,473.125 658.25,463.25 660.5,457.875 662.375,452.375 664.125,446.625 666.375,434.75 666.75,423.125 666.25,417.5 665.125,412.375 663.375,407.625 661.125,403.375 658.25,399.875 654.875,397.125 650.875,395.125 646.5,394.0"/>
    <polyline points="641.75,393.625 636.75,394.0 631.5,395.125 620.75,399.375 610.125,405.625 600.0,413.125 590.625,421.125 578.125,433.25 567.75,444.5 546.0,470.125"/>
    <polyline points="544.25,472.25 527.0,492.25 519.375,500.0"/>
    <polyline points="518.875,500.5 514.125,504.625 509.75,507.125"/>
    <polyline points="509.375,507.25 506.5,507.875 502.5,507.625"/>
    <polyline points="502.125,507.5 499.375,507.0 491.375,504.625"/>
    <line x1="490.75" x2="469.5" y1="504.375" y2="497.25"/>
    <polyline points="468.375,496.75 445.0,489.125 421.5,482.625"/>
    <polyline points="418.625,482.0 409.25,479.875 394.75,477.375 377.5,475.5 367.625,475.125 356.875,475.25 345.25,476.25 332.875,478.5 326.5,480.25 320.25,482.375 314.125,485.125 308.25,488.5 302.875,492.625 298.25,497.5"/>
    <polyline points="294.75,503.125 292.625,509.75 292.25,517.125 293.875,525.125 297.75,533.75 303.875,542.75 312.125,551.875 322.25,560.75 333.75,569.25 346.25,577.125 359.125,584.0 372.0,590.125 384.5,595.25 396.25,599.375 407.125,602.625 417.125,605.125 434.375,607.875 448.25,608.5 459.5,607.5 464.25,606.5 468.75,605.375 476.5,602.5"/>
    <polyline points="479.875,601.0 491.875,594.375 508.625,583.625 517.25,578.875 523.375,576.0 527.375,574.5 537.5,571.875"/>
    <polyline points="539.5,571.625 545.625,571.0 552.0,570.875 558.5,571.25 565.25,572.125 574.75,574.0 585.0,576.625 599.0,581.0"/>
    <polyline points="602.0,582.0 636.25,594.0 648.5,598.0 657.375,600.5 672.0,603.75 682.75,605.125 694.75,605.25 701.25,604.75 708.25,603.5 715.75,601.5"/>
    <polyline points="723.875,598.375 732.75,593.75 742.5,587.375 753.25,578.5 765.375,566.5 778.875,550.375 794.125,528.75 811.0,500.125 829.25,462.75 847.875,414.875 865.125,355.75 877.125,286.625 878.75,212.75 864.25,145.0 830.375,96.625 780.0,78.0 721.625,89.625 665.0,123.125 617.375,166.625 581.375,210.875 557.0,250.5 543.125,283.625 537.875,310.375 539.5,331.5 546.625,348.25 557.875,362.0"/>
    <polyline points="571.625,373.5 586.625,383.5 627.75,407.5 637.375,413.875 644.5,419.25 649.125,423.625 651.75,427.125 652.75,429.875 652.375,431.75 651.125,433.125 649.25,434.0 647.0,434.5 628.25,435.125 620.375,436.5 615.25,438.125"/>
    <polyline points="612.75,439.125 607.875,441.5 600.875,445.75 596.5,449.0 590.375,454.25 585.0,459.5 580.25,464.75 575.0,471.375 570.0,478.875"/>
    <polyline points="569.25,480.25 566.125,486.5 564.5,491.875 564.125,494.75 564.25,498.0 564.625,499.5 565.5,501.625 566.75,503.5"/>
    <polyline points="567.25,504.0 569.0,505.625 571.125,507.0 575.5,508.875 578.625,509.625 586.0,510.375 593.375,509.875"/>
  </g>
</svg>
