<?xml version="1.0" encoding="utf-8" ?>
<svg xmlns="http://www.w3.org/2000/svg" xmlns:cc="http://creativecommons.org/ns" xmlns:dc="http://purl.org/dc/elements/1.1/" xmlns:ev="http://www.w3.org/2001/xml-events" xmlns:inkscape="http://www.inkscape.org/namespaces/inkscape" xmlns:rdf="http://www.w3.org/1999/02/22-rdf-syntax-ns" xmlns:sodipodi="http://sodipodi.sourceforge.net/DTD/sodipodi-0.dtd" xmlns:xlink="http://www.w3.org/1999/xlink" baseProfile="tiny" height="27.09333333cm" version="1.2" viewBox="0 0 1024.0 1024.0" width="27.09333333cm">
  <metadata>
    <rdf:RDF>
      <cc:Work>
        <dc:format>image/svg+xml</dc:format>
        <dc:source>vpype read './original_svgs/Strange Attractors #216.svg' linemerge linesimplify write './Strange Attractors #216.svg'
</dc:source>
        <dc:date>2024-08-05T01:35:38.648156</dc:date>
      </cc:Work>
    </rdf:RDF>
  </metadata>
  <defs/>
  <g fill="none" id="layer1" inkscape:groupmode="layer" inkscape:label="1" stroke="black" stroke-width="0.7mm" style="display:inline">
    <polyline points="633.5,643.75 622.125,644.75 611.5,644.875 601.625,644.5 592.25,643.625 583.5,642.5 567.25,639.75 538.75,634.0 514.25,629.75 498.25,627.75 488.625,626.875 467.625,626.375"/>
    <polyline points="464.0,626.5 453.75,627.0 442.25,628.5 430.625,631.125 424.875,633.125 419.875,635.375 414.5,638.875 411.25,641.75"/>
    <polyline points="410.25,642.75 407.625,646.0 406.25,648.375 404.5,652.125 402.75,657.75 402.0,662.375 401.625,667.375 401.625,672.75 402.25,680.75"/>
    <polyline points="402.5,682.875 404.0,691.875 406.5,702.0 410.125,713.0 413.75,722.0 418.5,731.625 424.5,741.75 429.5,748.75 435.5,755.875"/>
    <polyline points="438.875,759.375 446.625,766.5 451.125,769.875 455.875,773.25 467.0,779.375 473.375,782.125 480.375,784.625 487.875,786.625 496.0,788.125 504.875,789.0 514.25,789.125 524.25,788.375 534.875,786.625 545.75,783.625 557.0,779.375 568.25,773.5 579.125,766.125 589.375,757.25 598.625,746.75 606.375,735.0 612.5,722.0 616.5,708.25 618.375,694.0 618.0,679.75"/>
    <polyline points="615.5,666.0 611.125,652.875 605.125,640.75 597.875,629.875 589.625,620.25 580.875,611.875 571.75,604.625 562.625,598.5 553.625,593.5 544.75,589.25 536.25,585.75 528.0,582.875 520.25,580.625 512.875,578.625 499.25,575.75 450.25,567.75"/>
    <polyline points="446.625,567.0 436.875,564.5 428.5,561.875 421.125,558.75 414.75,555.25 407.375,549.875 404.125,546.875 399.625,542.125 394.375,535.0"/>
    <polyline points="393.125,533.125 386.5,520.5 381.5,508.25 366.25,464.5"/>
    <polyline points="364.875,460.75 360.25,449.125 354.5,436.875 349.875,428.375 344.375,419.75 337.625,411.0 329.5,402.375 324.75,398.25 319.375,394.125 313.5,390.375 306.875,386.75 299.5,383.5 291.25,380.75 282.125,378.625 271.875,377.125 260.625,376.75 248.25,377.5 234.875,379.75"/>
    <polyline points="220.5,383.875 205.375,390.0 189.75,398.375 174.25,409.5 159.5,423.375 146.125,439.875 135.0,458.875 126.75,479.75 121.875,501.75 120.75,524.25 123.125,546.125 128.625,566.75 136.75,585.625 146.625,602.25 157.625,616.5 169.125,628.375 180.625,638.25 191.75,646.125 202.25,652.375 212.125,657.25 221.125,661.0 229.5,663.875 244.0,667.375 250.25,668.5 256.0,669.125"/>
    <polyline points="261.375,669.625 278.875,669.875 298.25,669.5 308.5,670.25 313.0,671.0 319.25,672.625 325.0,674.875 330.125,677.875"/>
    <polyline points="331.625,678.875 337.625,684.0 341.625,688.5 345.25,693.75 348.625,699.5 353.75,710.75 358.375,723.875 360.125,729.75"/>
    <polyline points="361.0,732.875 374.125,783.0 378.5,797.75 382.125,808.25 386.375,819.5 391.875,831.375 395.0,837.625 403.0,850.5"/>
    <polyline points="407.75,857.125 413.375,864.0 420.0,870.875 427.75,877.875 436.75,884.75 447.5,891.5 460.25,898.0 475.375,903.75 493.5,908.625 515.0,912.0 540.375,913.0 570.0,910.5 604.0,903.125 641.625,889.25 681.125,866.75 719.375,834.5 752.25,792.25 774.75,741.75 783.5,687.125 778.0,633.5 760.75,585.5 736.25,546.0 709.0,515.625 682.5,493.625 659.125,478.5 639.5,468.875"/>
    <polyline points="624.0,463.25 612.125,460.625 603.5,460.375 597.375,462.0 593.25,465.125 590.625,469.5 588.75,474.875 583.625,502.875 581.5,510.75 578.875,518.5 575.625,526.125 571.75,533.5 567.375,540.5 562.5,547.0 557.125,553.0 551.5,558.5 545.75,563.375 533.625,571.625 527.5,575.0 521.375,578.0 509.625,582.625"/>
    <polyline points="503.875,584.375 493.0,587.25 482.75,589.125 468.875,590.75 460.5,591.25 445.75,591.375 433.375,590.75 425.5,590.0 414.375,588.25"/>
    <polyline points="412.375,587.875 403.875,585.75 399.5,584.25 394.5,582.0 387.5,577.375 382.875,572.75"/>
    <polyline points="382.125,571.875 380.125,569.25 376.625,563.25 372.625,553.625 368.75,541.875"/>
    <polyline points="368.25,540.25 358.5,508.125 353.0,493.0 349.5,484.75"/>
    <polyline points="348.25,481.875 342.125,470.125 336.375,461.125 331.75,455.0 323.375,446.125 316.625,440.625 308.75,435.5 304.375,433.125 294.5,429.375 289.0,427.875 283.125,426.875 276.75,426.25 270.125,426.125 263.0,426.75 255.625,427.875"/>
    <polyline points="248.0,430.0 240.125,432.875 232.125,436.75 224.125,441.5 216.375,447.375 209.125,454.375 202.375,462.375 196.375,471.25 191.375,481.0 187.625,491.375 185.125,502.25 184.0,513.375 184.125,524.5 185.75,535.375 188.5,545.875 192.375,555.75 197.0,564.875 202.5,573.375 208.5,580.875 214.875,587.625 221.375,593.625 228.0,598.75 234.5,603.25 241.0,607.125 253.5,613.25"/>
    <polyline points="259.375,615.625 270.375,619.25 280.5,622.0 297.625,625.5 325.75,630.0 336.75,632.5 342.25,634.25"/>
    <polyline points="344.0,634.875 351.375,638.375 356.375,641.75 359.625,644.5 365.25,651.0 370.75,660.25"/>
    <polyline points="371.375,661.75 375.0,669.875 377.75,677.375 391.0,717.125"/>
    <polyline points="392.25,720.25 394.625,726.75 399.0,737.125 402.5,744.5 408.75,756.375 414.0,764.625 420.125,773.25 427.625,782.0 432.0,786.5 442.125,795.25 448.125,799.625 454.75,803.75 462.125,807.75 470.375,811.375 479.5,814.625 489.75,817.25"/>
    <polyline points="501.0,819.125 513.5,820.125 527.125,819.875 542.0,818.125 557.75,814.5 574.25,808.75 591.125,800.5 607.625,789.5 623.25,775.625 637.125,759.0 648.25,740.0 656.125,719.125 660.0,697.125 659.75,675.125 655.875,654.0 648.625,634.375 638.875,616.875 627.5,601.625 615.0,588.75 602.25,578.25 589.625,569.625 577.5,562.875 566.125,557.5 555.375,553.375 545.5,550.125 536.375,547.625"/>
    <polyline points="528.0,545.75 506.875,542.125 485.5,539.375 473.0,537.375 459.5,534.0 453.75,531.875 446.25,528.125 439.75,523.625 434.125,518.375"/>
    <polyline points="432.375,516.5 429.25,512.5 425.125,505.875 420.625,495.875 418.0,487.375 416.0,478.125 414.375,464.5 414.0,453.375 414.625,441.125"/>
    <polyline points="415.0,436.875 416.375,428.125 418.25,418.875 421.125,409.25 425.125,399.25 427.5,394.125 430.375,389.0 433.75,383.875 437.625,378.75 442.125,373.625 447.375,368.625 453.375,363.75 460.375,359.0 468.375,354.75 477.75,350.875 488.375,347.75 500.75,345.5 514.75,344.375 530.625,345.0 548.25,347.5 567.75,352.75 588.625,361.0"/>
    <polyline points="610.25,373.125 631.75,389.5 651.875,410.125 669.0,435.125 681.875,463.375 689.125,493.875 690.375,524.875 686.0,554.75 676.625,582.25 664.0,606.375 649.25,626.625 633.875,643.125 618.625,656.25 604.5,666.375 591.625,674.125 580.125,679.875 570.125,684.0 561.5,686.875 554.25,688.875 548.0,690.125 542.625,690.75 534.25,690.75 530.875,690.25 525.375,688.625"/>
    <polyline points="523.0,687.625 516.875,684.25 504.375,676.25 497.0,672.875 491.375,671.25 485.875,670.25 482.375,670.0 477.25,670.25"/>
    <polyline points="475.625,670.5 472.5,671.125 467.0,673.25 464.5,674.625 462.375,676.25 459.625,679.125 457.5,682.375 456.0,686.0 455.125,691.375 455.25,694.375"/>
    <polyline points="455.375,695.875 456.375,700.5 459.0,706.875 463.375,713.25 467.75,717.875 473.25,722.0 479.75,725.5 487.5,728.0 493.125,728.875"/>
    <polyline points="496.125,729.125 505.375,728.375 508.5,727.625 511.625,726.625 517.625,723.875 523.25,720.125 525.875,717.75 528.25,715.25 530.375,712.375 532.125,709.375 534.875,702.875 535.625,699.5 536.125,695.875 535.75,688.75 535.125,685.25 532.625,678.25 530.875,675.0 526.625,668.875"/>
    <polyline points="524.125,666.125 521.375,663.5 515.5,658.875 509.125,655.125 499.125,650.875 492.5,649.0 482.75,647.25 470.75,646.625 460.125,647.625 451.0,649.875"/>
    <polyline points="448.875,650.625 441.625,654.0 437.0,657.125 433.25,660.75 430.125,664.75 427.75,669.125 425.625,675.75 425.0,679.375 424.625,685.125"/>
    <polyline points="424.75,687.125 425.625,695.75 426.625,700.375 428.75,707.625 431.875,715.375 436.25,723.375 441.875,731.625 449.25,739.875 455.25,745.25 462.25,750.375"/>
    <polyline points="466.25,752.75 470.5,755.0 480.0,758.875 490.75,761.625 496.75,762.5 503.0,762.875 509.5,762.875 516.375,762.25 523.375,760.875 530.625,759.0 537.875,756.25 545.0,752.625 552.0,748.25 558.625,743.125 564.75,737.0 570.25,730.25 574.875,722.75 578.5,714.625 581.125,706.125 582.5,697.25 582.625,688.375 581.75,679.625 579.625,671.0 576.5,662.875"/>
    <polyline points="572.5,655.125 567.75,648.125 562.375,641.625 556.625,635.75 550.375,630.625 544.125,626.0 537.625,622.0 524.625,615.625 518.375,613.125 506.125,609.25 489.25,605.375 479.0,603.75 465.25,602.25 442.75,600.875"/>
    <polyline points="439.625,600.75 406.25,599.25 393.875,597.875"/>
    <polyline points="392.875,597.75 388.75,597.0 384.75,595.875 381.25,594.25 378.625,592.375"/>
    <polyline points="378.375,592.125 377.125,590.875 375.375,588.25 372.625,581.5"/>
    <polyline points="372.5,580.875 370.5,573.375 367.625,560.125"/>
    <polyline points="367.375,559.0 362.125,534.625 358.125,519.375"/>
    <polyline points="357.5,517.25 353.25,503.625 349.5,493.625 346.0,485.75 340.25,474.625 336.75,469.0 330.5,460.5 325.5,454.875 322.625,452.125"/>
    <polyline points="319.75,449.5 316.5,446.875 309.25,442.0 300.875,437.875 296.25,436.125 291.375,434.75 286.0,433.625 280.375,432.875 274.5,432.625 268.125,432.875 261.625,433.625 254.75,435.125 247.75,437.375 240.625,440.375 233.5,444.125 226.375,448.875 219.625,454.5 213.25,461.0 207.375,468.375 202.375,476.5 198.125,485.375 195.0,494.75 193.0,504.5 192.125,514.375"/>
    <polyline points="192.5,524.375 193.875,534.0 196.375,543.375 199.875,552.375 204.0,560.625 208.875,568.25 214.25,575.25 220.0,581.5 225.875,587.125 231.875,592.0 244.0,600.0 249.875,603.25 261.25,608.375 271.75,612.125 285.875,616.0 294.25,617.75 308.75,620.125"/>
    <polyline points="312.0,620.625 325.875,622.625 340.5,625.5 349.875,628.5 353.75,630.25 358.25,632.875"/>
    <polyline points="359.25,633.625 362.0,635.875 365.375,639.25 369.625,645.25 373.875,653.5 376.625,660.625"/>
    <polyline points="377.125,662.125 381.75,676.125 388.5,698.75 395.25,718.625"/>
    <polyline points="396.5,721.875 400.5,731.875 403.75,739.0 409.75,750.25 414.5,758.25 420.25,766.375 427.125,774.875 435.5,783.375 440.375,787.625 445.75,791.875 458.375,799.875 465.75,803.5 474.0,806.875 483.0,809.75 493.0,812.125 504.125,813.625"/>
    <polyline points="516.25,814.25 529.375,813.625 543.5,811.5 558.5,807.625 574.0,801.75 589.625,793.625 605.0,782.875 619.25,769.5 631.75,753.75 641.75,735.875 648.625,716.5 652.0,696.125 651.75,675.75 648.0,656.125 641.375,637.875 632.375,621.5 621.875,607.125 610.25,594.875 598.25,584.75 586.375,576.375 574.75,569.75 563.625,564.375 553.25,560.125 534.5,554.25 526.125,552.25"/>
    <polyline points="518.375,550.625 511.375,549.25 473.875,543.625 466.0,542.125 455.75,539.375 447.0,536.0 439.5,532.0 433.0,527.25 427.375,521.875"/>
    <polyline points="425.75,519.875 422.5,515.75 419.625,511.375 417.125,506.625 413.625,498.875 410.75,490.375 409.0,484.25 406.875,474.25 404.875,459.625 403.875,443.375"/>
    <polyline points="403.875,439.0 403.875,429.875 404.375,420.25 406.0,405.0 408.0,394.125 410.75,382.75 414.75,370.75 417.375,364.75 420.375,358.5 424.0,352.25 428.25,345.875 433.25,339.5 439.25,333.25 446.375,327.125 454.875,321.25 465.0,315.625 476.875,310.75 491.125,306.75 508.0,304.0"/>
    <polyline points="527.75,303.125 550.625,304.875 576.875,310.125 606.125,320.125 637.5,336.125 669.375,359.25 699.125,389.875 723.625,427.875 739.75,471.5 745.625,517.5 741.125,562.5 727.875,603.375 709.0,638.0 687.625,665.75 666.25,687.0 646.625,702.5 629.75,713.5 615.875,720.875 605.125,725.5 596.875,727.75 591.0,728.25 586.875,727.375 584.25,725.25 582.625,722.125 581.625,718.125 581.0,713.25"/>
    <polyline points="580.5,708.0 578.875,696.0 577.5,689.625 575.5,683.125 573.125,676.75 570.0,670.375 566.5,664.375 562.5,658.625 558.0,653.375 553.125,648.375 548.0,643.875 542.625,639.875 537.125,636.25 531.5,633.0 526.0,630.125 514.875,625.5 504.0,622.125 493.75,619.75 484.125,618.125 475.125,617.125"/>
    <polyline points="471.0,616.75 463.0,616.25 452.25,616.125 437.125,616.875 429.625,617.625 421.125,619.0 412.625,621.125 408.375,622.625"/>
    <polyline points="407.125,623.125 402.625,625.375 399.875,627.25 395.625,631.625 392.75,636.625 391.75,639.5 391.125,642.625"/>
    <polyline points="390.875,643.75 390.25,649.625 390.375,659.375 392.0,673.125 393.875,683.375"/>
    <polyline points="394.375,685.5 396.625,695.0 400.625,708.25 403.75,717.125 409.25,730.0 412.625,736.875 419.0,747.625 424.125,755.25 430.375,762.875"/>
    <polyline points="434.0,766.75 442.125,774.5 446.875,778.25 452.0,782.0 457.75,785.625 464.0,789.0 470.875,792.125 478.5,794.875 486.875,797.25 496.0,799.0 505.875,800.0 516.625,800.25 528.125,799.375 540.375,797.375 553.125,793.75 566.125,788.625 579.25,781.5 592.0,772.5 603.75,761.5 614.25,748.625 622.875,734.125 629.125,718.375 632.75,701.75 633.5,684.875 631.5,668.25"/>
    <polyline points="627.125,652.5 620.625,638.0 612.5,624.875 603.125,613.375 593.125,603.5 582.75,595.125 572.375,588.25 562.25,582.5 552.5,577.875 543.125,574.125 534.25,571.0 518.0,566.625 503.75,563.625 462.125,556.75 450.875,554.25"/>
    <polyline points="447.5,553.25 441.25,551.25 435.625,549.0 428.0,545.25 421.5,540.875 415.75,536.0 410.625,530.5 406.125,524.5 402.125,517.875 398.5,510.5"/>
    <polyline points="397.375,508.0 395.125,502.625 389.125,484.5 385.375,470.625 376.125,433.5 370.625,414.125"/>
    <polyline points="369.0,408.875 363.125,392.75 358.0,381.5 351.625,369.875 347.75,364.0 343.25,358.0 338.25,352.125 332.375,346.25 325.625,340.5 317.75,335.0 308.625,329.75 298.0,325.125 285.5,321.25 271.0,318.375 254.125,317.0 234.75,317.625 212.625,321.0 188.0,328.0 161.125,339.5 133.125,356.5 105.5,379.75 80.5,409.375"/>
    <polyline points="60.5,444.875 47.875,484.5 43.875,525.75 48.5,565.875 60.25,602.5 76.875,633.75 95.875,659.25 115.375,679.125 133.75,694.0 150.125,704.625 164.375,711.75 176.25,716.25 186.125,718.625 194.25,719.25 200.75,718.625 206.0,717.0 210.375,714.5 214.125,711.375 217.375,707.75 220.25,703.75 231.375,686.125 237.375,677.375"/>
    <polyline points="240.625,673.25 247.5,665.5 254.75,658.75 258.5,655.75 266.125,650.5 277.375,644.375 284.625,641.375 291.5,639.125 301.375,636.875 310.25,635.75 315.75,635.5 323.25,635.625"/>
    <polyline points="325.625,635.875 330.0,636.375 337.875,638.125 343.0,639.875 347.625,642.0 351.75,644.5 356.625,648.25 359.875,651.5 362.75,655.125"/>
    <polyline points="363.75,656.375 368.125,663.5 372.125,671.625 377.5,685.375 384.125,705.0"/>
    <polyline points="385.125,707.75 391.625,726.125 399.125,743.875 407.375,759.75 412.75,768.25 415.75,772.625 422.75,781.625 431.25,790.75 441.875,799.875 448.0,804.25"/>
    <polyline points="455.0,808.5 462.75,812.625 471.375,816.375 481.0,819.625 491.875,822.25 503.75,824.125 517.0,824.875 531.625,824.375 547.375,822.125 564.125,817.875 581.625,811.125 599.375,801.625 616.75,789.125 632.875,773.625 646.75,755.125 657.375,734.25 664.125,711.5 666.625,688.25 664.75,665.125 659.0,643.375 650.125,623.5 638.875,606.125 626.25,591.375 613.0,579.125 599.75,569.25 586.875,561.375"/>
    <polyline points="574.625,555.125 563.25,550.375 552.75,546.75 543.125,543.875 534.375,541.75 512.375,538.0 482.0,534.375 474.375,533.125 467.625,531.625 461.625,529.875 456.25,527.75 451.375,525.375 446.875,522.625"/>
    <polyline points="444.875,521.125 437.625,514.375 434.5,510.5 430.5,504.0 428.25,499.375 426.25,494.375 423.875,486.125 422.125,477.125 421.25,467.375 421.125,456.75"/>
    <polyline points="421.375,453.125 422.75,441.375 425.625,429.0 428.625,420.25 432.75,411.375 438.125,402.375 441.5,397.75 445.25,393.375 449.625,388.875 454.625,384.625 460.375,380.5 467.0,376.625 474.375,373.25 482.875,370.25 492.375,367.875 503.125,366.25 515.25,365.875 528.625,366.75 543.25,369.25"/>
    <polyline points="559.0,373.75 575.75,380.75 592.875,390.5 609.75,403.125 625.75,419.0 639.75,437.875 650.875,459.25 658.25,482.625 661.625,506.875 660.625,531.0 655.875,554.0 647.75,575.125 637.375,593.75 625.375,609.875 612.875,623.25 600.25,634.25 588.0,643.125 576.5,650.125 565.875,655.625 556.25,660.0 547.625,663.25 539.75,665.75 526.5,669.125 515.875,671.0"/>
    <polyline points="511.375,671.5 486.875,673.75 482.75,674.25 477.5,675.375 473.25,676.875 469.625,678.75 466.625,681.125 464.375,683.75"/>
    <polyline points="463.75,684.75 462.375,687.875 461.625,692.5 461.625,695.0 462.75,700.125 466.0,706.875 468.0,709.5 471.625,713.25 474.5,715.5"/>
    <polyline points="476.125,716.625 481.5,719.375 485.5,720.875 492.125,722.125 496.875,722.25 501.75,721.75 506.5,720.5 511.25,718.5 513.5,717.125 517.625,714.0 519.5,712.125 521.25,710.125 524.0,705.625 525.875,700.625"/>
    <polyline points="526.375,697.875 526.625,695.25 526.375,689.75 525.875,687.0 523.875,681.75 522.625,679.125 519.375,674.375 513.125,668.125 508.25,664.625 500.375,660.625 497.625,659.625 489.5,657.25 484.25,656.375 479.0,656.0"/>
    <polyline points="476.5,655.875 467.0,656.625 460.75,658.0 455.125,660.0 450.25,662.625 446.125,665.75 442.75,669.375 439.375,674.875 438.125,678.0"/>
    <polyline points="437.625,679.625 436.625,684.75 436.5,692.125 437.375,698.25 438.375,702.375 439.875,706.75 442.875,713.625 447.125,720.625 452.625,727.625 457.125,732.125"/>
    <polyline points="459.75,734.375 468.625,740.625 475.625,744.125 479.5,745.75 483.625,747.0 492.5,749.0 497.375,749.5 507.5,749.5 518.25,747.75 523.75,746.125 529.25,744.0 534.625,741.25 539.875,738.0 544.875,734.125 549.5,729.625 553.625,724.75 557.125,719.375 560.125,713.5 562.375,707.25 563.75,700.875"/>
    <polyline points="564.5,694.375 564.25,687.75 563.375,681.25 561.625,674.875 559.25,668.75 556.25,663.0 552.625,657.5 548.5,652.5 544.125,647.875 539.375,643.75 534.375,640.0 529.25,636.625 518.875,631.125 513.625,628.875 503.375,625.375 493.5,622.875 484.25,621.125 471.375,619.625 463.5,619.25"/>
    <polyline points="459.875,619.125 446.625,619.375 430.75,621.0 424.25,622.25 415.375,624.75 409.75,627.125 406.25,629.125"/>
    <polyline points="405.25,629.75 402.375,632.0 400.0,634.5 396.5,640.0 394.875,644.375 394.375,646.625 393.5,651.625 393.25,655.75"/>
    <polyline points="393.25,657.25 393.5,666.875 394.625,676.125 396.125,684.5 398.875,696.375 403.0,709.75"/>
    <polyline points="404.0,712.75 407.5,721.875 410.375,728.375 417.625,742.125 422.375,749.375 427.875,756.875 434.5,764.5 438.375,768.25 447.125,775.75 452.125,779.375 457.625,782.875 463.75,786.25 470.5,789.375 477.75,792.125 485.875,794.375 494.625,796.25"/>
    <polyline points="504.125,797.375 514.5,797.625 525.5,797.0 537.25,795.25 549.5,792.0 562.125,787.25 574.75,780.75 587.125,772.5 598.75,762.25 609.125,750.25 617.875,736.625 624.375,721.625 628.5,705.875 630.0,689.625 628.875,673.5 625.25,658.0 619.5,643.625 612.125,630.5 603.5,618.875 594.0,608.875 584.0,600.25 573.875,593.0 563.875,587.0 554.125,582.125 544.875,578.125 536.0,574.875"/>
    <polyline points="527.5,572.25 519.625,570.125 505.25,566.875 462.5,559.875 447.5,556.5 441.125,554.625 432.625,551.375 427.625,549.0 421.0,544.875"/>
    <polyline points="418.875,543.375 413.25,538.625 408.25,533.25 403.75,527.375 399.75,521.0 396.125,513.875 391.75,503.5 388.625,494.875 385.75,485.5"/>
    <polyline points="384.75,482.25 371.375,435.375 366.625,421.25 360.625,406.375 358.25,401.125 352.625,390.5 349.25,385.125 341.375,374.25 336.5,368.875"/>
    <polyline points="331.125,363.5 324.875,358.25 317.75,353.25 309.625,348.5 300.25,344.125 289.375,340.5 277.0,337.625 262.75,336.0 246.5,335.875 228.125,337.875 207.875,342.5 185.625,350.375 162.25,362.25 138.5,378.875 115.75,400.5 95.75,427.0 80.25,457.875 70.75,491.625 68.0,526.375 72.0,560.125 81.625,591.25 95.25,618.375 111.25,641.0 127.875,659.25 144.25,673.375 159.375,684.0"/>
    <polyline points="173.125,691.625 185.125,697.0 195.375,700.5 204.25,702.375 211.875,703.25 218.375,703.125 223.875,702.375 228.625,701.0 232.875,699.25 236.75,697.25 243.5,692.5 261.125,677.625 266.875,673.25 275.625,667.75 284.25,663.625"/>
    <polyline points="287.125,662.5 292.75,660.625 298.125,659.375 303.375,658.625 310.875,658.25 317.75,658.75 324.125,660.0 331.75,662.75 338.5,666.5 341.5,668.875"/>
    <polyline points="343.0,670.0 345.875,672.625 351.0,678.625 353.375,682.0 357.875,689.625 361.0,695.875 365.0,705.375 371.0,722.125"/>
    <polyline points="372.0,725.25 381.625,753.625 388.125,770.625 392.25,779.875 400.0,794.75 406.5,805.25 410.375,810.625 414.75,816.25 419.625,821.875 425.25,827.5 431.5,833.125 438.75,838.875"/>
    <polyline points="447.0,844.375 456.5,849.625 467.375,854.625 479.875,859.0 494.25,862.5 510.875,864.875 529.625,865.625 550.75,864.125 574.375,859.625 599.875,851.375 626.5,838.5 653.125,820.375 678.0,796.5 698.75,767.125 713.375,733.5 720.5,697.5 719.5,661.375 711.125,627.5 697.25,597.5 679.75,572.375 660.75,552.25 641.875,536.625 624.125,524.875 608.0,516.5 593.75,510.5 581.5,506.5"/>
    <polyline points="571.0,504.0 562.0,502.625 554.375,502.125 548.0,502.125 542.375,502.625 537.625,503.5 533.375,504.625 526.375,507.375 509.75,516.375 499.75,521.0 492.375,523.375 487.375,524.375 482.5,524.75"/>
    <polyline points="480.125,524.875 475.5,524.625 470.875,523.875 464.5,522.125 458.5,519.375 453.125,515.75 449.875,513.0 445.5,508.125 441.75,502.5 437.875,493.875"/>
    <polyline points="437.125,491.5 435.75,486.625 434.875,481.375 434.25,475.875 434.125,470.0 434.375,463.875 435.25,457.5 437.625,447.375 440.125,440.5 441.75,437.0 443.625,433.375 448.125,426.375 453.875,419.375 457.375,416.0 461.375,412.75"/>
    <polyline points="465.75,409.625 470.625,406.75 476.125,404.125 482.125,401.875 488.875,400.0 496.25,398.75 504.375,398.0 513.125,398.125 522.625,399.125 532.75,401.25 543.375,404.625 554.375,409.5 565.625,415.75 576.5,423.75 587.0,433.5 596.5,444.875 604.75,457.75 611.125,471.875 615.5,486.875 617.75,502.5 617.5,518.125 615.125,533.25 610.875,547.625 604.875,561.0 597.5,573.0 589.25,583.625"/>
    <polyline points="580.5,593.0 571.5,600.875 562.375,607.625 553.5,613.25 544.75,617.875 528.75,625.0 514.375,629.75 501.75,633.125 490.625,635.5 458.25,641.625 444.75,645.5"/>
    <polyline points="442.625,646.375 436.625,649.25 431.625,652.375 426.375,657.125 423.375,661.25 421.75,664.125 419.375,670.625 418.375,675.875 418.0,681.625"/>
    <polyline points="418.0,683.75 418.375,690.125 419.5,697.0 421.375,704.375 424.125,712.25 426.5,717.75 431.0,726.25 434.75,732.25 439.25,738.25 444.625,744.25 450.875,750.125"/>
    <polyline points="454.5,753.0 462.625,758.5 467.125,761.0 472.0,763.375 477.375,765.5 483.0,767.375 489.125,768.875 495.75,770.0 502.625,770.625 510.0,770.625 517.75,770.0 525.75,768.75 534.0,766.625 542.25,763.5 550.625,759.5 558.75,754.5 566.375,748.5 573.5,741.375 579.875,733.375 585.125,724.5 589.125,715.0 591.875,705.0 593.25,694.625 593.0,684.375 591.375,674.25"/>
    <polyline points="588.5,664.375 584.5,655.25 579.5,646.75 573.625,638.875 567.25,632.0 560.375,625.75 553.25,620.375 546.0,615.75 538.75,611.75 531.625,608.25 524.625,605.375 511.125,601.0 498.625,597.75 476.625,594.0 447.0,590.75"/>
    <polyline points="443.5,590.5 425.75,588.375 412.375,585.875 402.125,582.875 396.625,580.5 393.125,578.5"/>
    <polyline points="392.0,577.875 386.25,573.25 381.625,567.875 377.75,561.625 373.875,552.875"/>
    <polyline points="373.25,551.5 369.0,539.25 358.0,504.0"/>
    <polyline points="357.125,501.5 352.0,488.25 346.75,476.75 341.875,467.75 338.0,461.625 333.5,455.5 325.375,446.375 318.875,440.625 311.125,435.25 302.25,430.625"/>
    <polyline points="297.25,428.625 291.75,427.0 286.0,425.75 279.75,424.875 273.125,424.5 266.125,424.75 258.75,425.625 251.0,427.375 243.0,429.875 234.875,433.375 226.625,437.75 218.625,443.375 210.875,450.0 203.625,457.75 197.125,466.5 191.5,476.125 187.125,486.5 183.875,497.5 182.25,508.875 181.875,520.375 183.0,531.625 185.375,542.625 188.875,553.0 193.5,562.625 198.875,571.625 204.75,579.625"/>
    <polyline points="211.125,586.75 217.75,593.125 224.5,598.625 231.25,603.375 238.0,607.5 244.5,611.0 256.75,616.5 268.125,620.5 278.375,623.375 292.0,626.25 319.375,630.625 327.125,632.125"/>
    <polyline points="329.5,632.625 337.875,634.75 343.25,636.625 348.0,638.75 350.875,640.375 353.5,642.0 359.25,646.75 362.25,650.0 365.0,653.625"/>
    <polyline points="365.875,654.875 369.125,660.375 373.625,669.875 377.25,679.25 385.0,702.5"/>
    <polyline points="386.0,705.25 393.5,726.5 397.875,736.875 403.125,748.125 407.375,756.0 412.5,764.375 418.5,773.0 425.75,781.875 434.75,790.875 445.75,799.75"/>
    <polyline points="452.25,804.0 459.5,808.0 467.5,811.875 476.5,815.25 486.5,818.125 497.625,820.375 509.875,821.625 523.375,821.875 538.125,820.5 553.875,817.5 570.5,812.25 587.625,804.5 604.75,794.125 621.125,780.75 635.75,764.5 648.0,745.625 656.75,724.625 661.75,702.375 662.5,679.875 659.25,658.0 652.5,637.5 643.0,619.125 631.625,603.125 619.125,589.625 606.25,578.5 593.375,569.5"/>
    <polyline points="581.0,562.25 569.25,556.625 558.25,552.25 548.125,548.875 538.875,546.25 522.625,542.75 508.875,540.625 482.875,537.25 471.125,535.25 464.375,533.625 455.625,530.75 450.5,528.375 445.75,525.625"/>
    <polyline points="443.625,524.125 437.75,519.25 432.75,513.75 428.375,507.375 424.75,500.25 421.75,492.5 419.5,483.875 418.25,477.625 417.375,471.125 416.75,460.5"/>
    <polyline points="416.75,456.75 417.25,445.125 418.25,436.75 420.875,423.625 423.75,414.375 427.625,404.875 432.875,395.125 440.0,385.25 444.375,380.5 449.375,375.625 455.25,371.125 461.875,366.75 469.5,362.625 478.375,359.125 488.375,356.125 499.875,354.0 512.875,353.0"/>
    <polyline points="527.5,353.375 543.75,355.625 561.5,360.25 580.5,367.5 600.25,378.125 620.0,392.375 638.625,410.5 655.0,432.25 667.875,457.25 676.125,484.625 679.125,512.875 677.0,540.625 670.25,566.75 659.875,590.25 647.125,610.5 633.125,627.5 618.875,641.375 605.0,652.25 592.0,660.875 580.25,667.5 569.625,672.375 560.25,676.125 552.125,678.75 545.0,680.625 538.75,682.0 533.375,682.75"/>
    <polyline points="528.625,683.25 517.625,683.125 512.0,682.375 497.875,678.875 489.875,677.25 482.75,676.875 479.0,677.375"/>
    <polyline points="477.75,677.625 474.375,678.75 472.375,679.75 469.75,681.625 467.0,684.75 466.0,686.5 464.75,690.5 464.5,693.75 465.25,698.5"/>
    <polyline points="465.625,699.625 467.125,703.25 470.375,708.0 473.75,711.375 479.375,715.25 486.25,718.0 490.125,718.75 494.25,719.125 500.625,718.5"/>
    <polyline points="502.75,718.125 506.875,716.625 510.875,714.5 516.0,710.125 517.5,708.375 519.875,704.5 520.875,702.375 522.0,697.875 522.375,693.25 522.125,690.875 521.75,688.5 520.125,683.875 517.875,679.375 516.375,677.375 513.0,673.5 511.0,671.75"/>
    <polyline points="509.0,670.125 502.375,666.0 495.125,663.0 487.875,661.125 480.75,660.25 471.875,660.5 467.75,661.125 460.375,663.375 455.625,665.75"/>
    <polyline points="454.25,666.625 450.375,669.625 447.25,673.25 444.875,677.25 443.125,681.625 442.25,686.5 442.125,693.625 442.625,697.375 444.875,705.375"/>
    <polyline points="445.625,707.375 447.625,711.625 451.5,718.0 454.875,722.25 458.75,726.375 463.25,730.375 468.5,734.125 474.625,737.5 477.875,739.0 485.125,741.375 493.0,743.0 501.75,743.5 506.25,743.25 515.625,741.625"/>
    <polyline points="520.375,740.125 529.625,736.0 534.125,733.125 538.375,729.875 542.25,726.125 545.875,722.0 549.0,717.5 551.625,712.5 553.625,707.375 555.0,702.0 555.875,696.375 555.875,690.75 555.375,685.25 554.25,679.75 552.375,674.375 550.0,669.25 547.25,664.375 543.875,659.75 540.25,655.5 536.25,651.625 532.0,648.125 523.125,642.125 513.875,637.375"/>
    <polyline points="509.25,635.5 500.0,632.375 486.875,629.375 474.625,627.875 463.75,627.375 457.0,627.5 450.875,628.0 440.125,629.375 431.125,631.5 427.125,632.875"/>
    <polyline points="425.375,633.5 420.5,635.75 416.25,638.375 411.625,642.125 409.75,644.25 406.625,648.875 404.875,652.75 402.625,661.375"/>
    <polyline points="402.5,663.0 402.0,669.875 402.125,675.5 403.0,683.625 404.125,690.375 405.75,697.75 408.0,705.625 410.875,714.125 413.375,720.125"/>
    <polyline points="414.75,723.125 419.5,732.875 423.5,739.5 428.25,746.5 437.125,757.125 440.625,760.625 448.75,767.625 458.375,774.25 463.875,777.375 469.875,780.25 476.375,782.75 483.625,785.0 491.375,786.875 499.75,788.125 508.75,788.625 518.375,788.375 528.625,787.25 539.25,785.0"/>
    <polyline points="550.25,781.5 561.375,776.625 572.375,770.125 583.0,762.25 592.875,752.75 601.375,741.75 608.5,729.5 613.75,716.25 616.875,702.375 617.75,688.25 616.5,674.25 613.25,660.875 608.25,648.25 601.75,636.625 594.125,626.25 585.75,617.25 576.875,609.375 567.75,602.625 558.75,597.0 549.75,592.25 541.125,588.375 532.75,585.125 524.75,582.5 517.125,580.375 503.125,577.125"/>
    <polyline points="496.625,575.875 484.875,573.75 452.5,568.75 438.625,565.75 430.0,563.125 422.375,560.125 415.875,556.75 410.0,553.0"/>
    <polyline points="408.25,551.625 404.875,548.75 399.0,542.5 396.25,539.125 391.375,531.625 387.0,523.25 383.875,516.25 378.0,500.75"/>
    <polyline points="377.0,497.875 370.75,479.25 364.375,461.75 359.75,450.25 354.0,438.0 346.75,425.375 340.75,416.75 337.25,412.5 329.125,404.0"/>
    <polyline points="324.375,399.875 319.125,395.875 313.25,392.0 306.75,388.5 299.375,385.375 291.375,382.625 282.25,380.5 272.25,379.125 261.25,378.75 249.125,379.5 236.0,381.625 221.875,385.5 207.125,391.5 191.875,399.625 176.75,410.375 162.25,423.75 149.0,439.75 138.0,458.125 129.625,478.375 124.625,499.875 123.125,521.875 125.125,543.375 130.25,563.75 137.875,582.375 147.375,598.875 158.0,613.125"/>
    <polyline points="169.25,625.125 180.5,635.125 191.5,643.125 202.0,649.625 211.875,654.625 221.0,658.625 229.25,661.5 237.0,663.75 244.0,665.375 256.25,667.375 266.5,668.25 299.125,668.5 309.375,669.375"/>
    <polyline points="311.75,669.75 316.125,670.75 322.25,672.625 327.625,675.25 332.625,678.375 337.125,682.25 341.25,686.625 346.125,693.375 350.625,701.375"/>
    <polyline points="351.625,703.5 355.625,713.0 360.25,726.75 363.875,739.375 371.875,769.875 377.125,788.125"/>
    <polyline points="378.75,793.125 382.25,803.375 386.5,814.375 391.75,825.875 398.375,838.25 407.125,851.125 412.375,857.75 418.625,864.5 425.875,871.375 434.375,878.125 444.375,884.875 456.25,891.25 470.25,897.25 486.875,902.375 506.625,906.125 530.0,908.0 557.25,907.0 588.625,901.875 623.75,891.0 661.375,872.875 699.25,845.75"/>
    <polyline points="733.625,809.0 760.125,763.5 774.875,712.125 775.875,659.5 764.375,610.25 743.75,567.875 718.25,534.125 692.0,508.625 667.5,490.625 646.25,478.375 628.75,470.75 614.875,466.375 604.375,464.75 596.5,465.0 591.0,466.875 587.125,470.125 584.375,474.25 582.375,479.25 576.25,504.75 574.0,511.75 571.375,518.75 568.125,525.5 564.5,532.125"/>
    <polyline points="560.25,538.25 555.75,544.125 550.75,549.5 545.625,554.375 540.125,558.875 534.625,562.875 529.0,566.375 517.625,572.125 512.0,574.375 506.5,576.375 495.875,579.5 485.875,581.5 476.5,582.875 467.625,583.625 459.625,583.875 452.125,583.875 442.0,583.25"/>
    <polyline points="438.875,583.0 433.0,582.25 422.75,580.375 414.0,578.0 410.25,576.625 405.0,574.375 399.0,571.0 396.375,569.25 391.625,565.25"/>
    <polyline points="390.5,564.125 387.375,560.75 384.625,557.125 378.875,547.375 375.25,539.125 370.375,526.0"/>
    <polyline points="369.625,523.875 361.625,500.125 353.875,480.25 347.875,467.75 344.25,461.25 340.125,454.75"/>
    <polyline points="337.875,451.375 335.375,448.0 329.75,441.5 323.125,435.0 319.375,431.875 310.875,426.125 306.0,423.5 300.75,421.125 295.125,419.125 288.875,417.375 282.25,416.125 275.125,415.375 267.375,415.375 259.25,416.0 250.625,417.5 241.625,420.0 232.25,423.5 222.875,428.25 213.5,434.25 204.375,441.625 195.75,450.25 188.0,460.25 181.375,471.25"/>
    <polyline points="176.125,483.375 172.375,496.125 170.375,509.375 170.125,522.625 171.625,535.625 174.75,548.25 179.125,560.0 184.625,570.875 191.125,580.75 198.125,589.5 205.5,597.125 213.0,603.75 220.625,609.5 228.125,614.375 235.375,618.5 249.125,624.75 261.5,629.25 277.75,633.375 295.625,636.625"/>
    <polyline points="299.5,637.25 313.0,639.25 321.5,640.875 333.125,643.875 340.75,646.875 344.125,648.625 348.75,651.5 354.125,655.875"/>
    <polyline points="355.375,657.125 362.0,665.25 365.875,671.625 372.875,687.125 379.125,704.0"/>
    <polyline points="380.125,706.75 387.625,728.125 391.75,738.625 398.625,754.0 405.375,766.75 414.125,780.25 417.625,784.875 425.875,794.375 430.75,799.25 436.125,804.0"/>
    <polyline points="442.125,808.75 448.875,813.375 456.5,817.875 465.0,822.0 474.625,825.875 485.5,829.125 497.5,831.625 511.0,833.125 526.0,833.25 542.5,831.875 560.25,828.25 579.125,822.25 598.625,813.125 618.0,800.75 636.375,784.875 652.625,765.375 665.5,743.0 674.125,718.25 677.875,692.5 676.625,666.875 670.875,642.5 661.375,620.5 649.125,601.25 635.375,585.0 621.0,571.625 606.625,561.0"/>
    <polyline points="592.875,552.75 580.0,546.25 568.125,541.375 557.375,537.75 547.625,535.125 538.75,533.125 523.625,530.625 505.75,528.875 492.0,527.875 477.75,526.25 469.0,524.375 463.875,522.625 457.125,519.5"/>
    <polyline points="455.125,518.25 449.5,514.125 444.75,509.125 440.75,503.5 437.5,497.125 435.0,490.0 433.75,484.875 432.875,479.5 432.25,470.75 432.625,461.25"/>
    <polyline points="433.125,458.0 435.125,447.75 438.875,437.0 442.625,429.625 447.375,422.25 450.25,418.625 457.25,411.625 461.5,408.25 471.5,402.125 477.375,399.5 483.875,397.25 491.125,395.375 499.125,394.25 507.875,393.75 517.5,394.25 527.75,395.625 538.75,398.375 550.125,402.5"/>
    <polyline points="562.0,408.125 573.875,415.625 585.375,424.875 596.125,436.125 605.625,449.0 613.5,463.375 619.375,479.0 622.75,495.5 623.625,512.125 622.125,528.625 618.25,544.25 612.5,558.875 605.125,572.125 596.75,584.0 587.625,594.125 578.125,603.0 568.625,610.375 559.25,616.5 550.25,621.625 541.625,625.875 525.75,632.125 511.875,636.25 499.75,639.25"/>
    <polyline points="494.375,640.375 465.25,646.0 453.625,649.0 448.75,650.75 442.625,653.625 437.5,656.875 433.375,660.5 430.125,664.5"/>
    <polyline points="429.125,665.875 426.25,672.125 424.625,679.125 424.25,685.0 424.375,689.0 425.125,695.625 426.75,702.625 428.25,707.5 430.25,712.625 432.75,717.875"/>
    <polyline points="434.125,720.5 437.375,726.0 441.25,731.625 443.5,734.375 448.625,739.875 454.5,745.375 461.625,750.5 469.75,755.125 474.25,757.25 484.375,760.75 496.0,763.0 502.25,763.5 515.625,762.875 522.75,761.625 530.0,759.75 537.375,757.125 544.625,753.625"/>
    <polyline points="551.75,749.25 558.5,744.125 564.75,738.125 570.375,731.25 575.125,723.75 578.875,715.625 581.625,707.0 583.125,698.125 583.5,689.125 582.625,680.25 580.5,671.625 577.5,663.25 573.5,655.5 568.75,648.25 563.375,641.625 557.625,635.75 551.375,630.375 545.0,625.75 538.5,621.75 531.875,618.25 525.375,615.25 512.75,610.5 500.75,607.125 495.125,605.875"/>
    <polyline points="489.625,604.875 484.375,603.875 470.0,602.0 461.375,601.25 409.375,598.375"/>
    <polyline points="407.75,598.25 398.0,597.25 393.75,596.5 387.75,595.125 383.375,593.375"/>
    <polyline points="382.875,593.0 380.125,591.25 377.875,589.125 376.375,587.125 374.375,583.25"/>
    <polyline points="374.125,582.625 372.125,577.125 368.75,563.375"/>
    <polyline points="368.5,562.375 364.25,542.875 360.0,525.375"/>
    <polyline points="359.375,523.5 355.0,508.375 352.5,501.125 349.625,493.625 344.875,482.875 342.0,477.375 336.875,468.875 330.625,460.375"/>
    <polyline points="328.125,457.5 325.625,454.75 319.75,449.25 313.125,444.125 305.375,439.625 296.375,435.875 286.125,433.375 280.5,432.625 274.5,432.25 268.125,432.5 261.5,433.375 254.625,434.875 247.625,437.0 240.5,440.0 233.25,443.875 226.125,448.625 219.375,454.25 212.875,460.875 207.125,468.25 202.0,476.5 197.875,485.375"/>
    <polyline points="194.625,494.75 192.625,504.5 191.75,514.5 192.125,524.5 193.625,534.25 196.125,543.75 199.625,552.625 203.875,561.0 208.75,568.625 214.125,575.625 219.875,581.875 225.75,587.375 231.875,592.375 237.875,596.625 244.0,600.375 249.875,603.5 255.625,606.375 271.75,612.5 286.0,616.25 298.25,618.75"/>
    <polyline points="302.0,619.375 328.375,623.375 336.875,625.0 347.125,627.875 351.25,629.5 355.0,631.375"/>
    <polyline points="356.125,632.0 361.125,635.625 364.625,639.0 366.875,641.75 370.875,648.125 375.125,657.125"/>
    <polyline points="375.625,658.625 380.75,673.5 388.0,697.75 392.5,711.375"/>
    <polyline points="393.625,714.375 398.375,727.125 406.625,744.875 410.875,752.625 416.0,760.75 422.0,769.0 425.5,773.25 429.375,777.5 438.25,786.125 449.125,794.5 462.5,802.25 470.375,805.75 479.125,808.875"/>
    <polyline points="488.75,811.375 499.375,813.25 511.125,814.375 523.875,814.25 537.625,812.875 552.25,809.75 567.625,804.75 583.375,797.5 598.875,787.75 613.75,775.5 627.125,760.625 638.25,743.5 646.5,724.625 651.375,704.5 652.625,684.0 650.25,663.875 644.75,645.0 636.5,627.75 626.5,612.5 615.25,599.375 603.375,588.375 591.25,579.25 579.5,572.0 568.125,566.125 557.5,561.5 547.375,557.875"/>
    <polyline points="538.125,555.0 529.5,552.75 514.25,549.5 475.625,543.75 467.625,542.25 460.5,540.5 454.0,538.5 448.25,536.25 443.0,533.75 436.125,529.375 432.0,526.0"/>
    <polyline points="430.125,524.25 425.0,518.5 420.375,512.0 416.5,504.875 413.25,497.0 410.375,488.25 408.125,478.75 405.875,464.75 404.75,453.125"/>
    <polyline points="404.5,449.0 404.25,436.0 404.75,422.0 406.375,406.75 407.25,401.375 409.5,390.375 412.875,378.875 417.5,366.875 420.5,360.75 424.0,354.5 428.125,348.25 433.125,342.0 439.0,335.75 445.875,329.625 454.125,323.75 463.875,318.25 475.5,313.25"/>
    <polyline points="489.375,309.25 505.625,306.375 524.75,305.25 546.875,306.5 572.375,311.25 600.75,320.375 631.375,335.125 662.625,356.75 692.375,385.75 717.5,422.0 734.875,464.0 742.625,509.0 740.0,553.625 728.5,594.75 710.75,630.0 690.0,658.75 668.75,681.0 649.0,697.5 631.625,709.25 617.25,717.375 605.625,722.5 596.875,725.375 590.25,726.375 585.625,725.875 582.5,724.25 580.5,721.625"/>
    <polyline points="579.25,718.0 578.375,713.75 576.125,697.625 574.875,691.625 573.125,685.625 570.875,679.5 568.25,673.5 565.0,667.625 561.25,662.125 557.125,656.875 552.625,652.0 542.75,643.375 537.5,639.75 532.125,636.5 521.375,631.125 516.0,628.875 505.5,625.375 495.375,622.875 485.875,621.125"/>
    <polyline points="481.375,620.5 472.875,619.625 461.125,619.0 454.125,619.0 441.75,619.625 433.875,620.5 427.0,621.625 421.0,623.0 412.875,625.625"/>
    <polyline points="411.5,626.25 405.5,629.5 401.75,632.5 399.5,635.0 397.625,637.75 396.125,640.625 394.625,645.0 393.875,648.5"/>
    <polyline points="393.75,649.75 393.125,656.625 393.125,661.125 393.75,669.625 395.875,683.625 398.625,695.25"/>
    <polyline points="399.25,697.75 404.5,714.375 409.625,726.875 412.875,733.625 416.75,740.625 423.75,751.5 429.625,759.0 436.625,766.625 445.0,774.125 449.875,777.875 455.125,781.375"/>
    <polyline points="461.0,784.875 467.375,788.0 474.5,791.0 482.25,793.5 490.625,795.5 499.875,797.0 509.875,797.75 520.625,797.5 532.0,796.25 544.125,793.625 556.5,789.625 569.25,783.875 581.75,776.375 593.75,767.0 604.75,755.75 614.375,742.75 621.875,728.375 627.125,712.875 629.75,696.75 629.75,680.5 627.125,664.625 622.375,649.75 615.625,636.0 607.375,623.75 598.25,613.0 588.375,603.75"/>
    <polyline points="578.375,596.0 568.25,589.5 558.375,584.125 548.875,579.75 539.75,576.125 531.125,573.25 515.375,569.0 501.5,566.125 468.75,560.875 452.625,557.75 442.5,555.0 433.875,551.875"/>
    <polyline points="431.25,550.625 424.0,546.875 417.75,542.5 412.25,537.625 407.375,532.125 404.375,528.25 399.125,519.625 394.375,509.875 391.25,501.875"/>
    <polyline points="390.125,499.0 385.125,483.625 374.625,445.875 369.0,428.0 363.75,413.375 359.375,403.25 356.75,398.0"/>
    <polyline points="354.0,392.625 347.25,381.875 343.25,376.375 338.75,371.0 333.625,365.5 327.75,360.25 321.0,355.125 313.25,350.125 304.375,345.625 294.25,341.75 282.5,338.5 269.0,336.25 253.625,335.5 236.125,336.5 216.625,339.875 195.125,346.25 172.125,356.375 148.25,371.0 124.875,390.5 103.5,415.0 85.75,444.25 73.625,477.125 68.0,511.75 69.25,546.25 76.625,578.75"/>
    <polyline points="88.875,607.75 104.125,632.375 120.75,652.375 137.375,668.25 153.125,680.25 167.375,689.125 180.125,695.375 191.125,699.5 200.625,702.0 208.75,703.25 215.625,703.5 221.5,703.0 226.5,701.875 231.0,700.25 235.0,698.25 238.625,696.0 248.125,688.625 259.625,678.5 268.375,672.0"/>
    <polyline points="271.25,670.125 277.125,666.625 282.875,663.875 288.625,661.625 296.875,659.375 302.25,658.5 307.25,658.0 312.125,658.0 319.0,658.625 325.25,660.0 329.125,661.25 332.75,662.875"/>
    <polyline points="334.5,663.75 339.375,666.75 343.875,670.375 348.0,674.5 351.75,679.125 356.375,686.25 360.625,694.375 365.625,706.25"/>
    <polyline points="366.5,708.875 371.625,723.125 379.625,747.25 387.375,767.75 391.25,776.75 395.875,786.375 401.5,796.5 408.5,807.125"/>
    <polyline points="412.5,812.5 422.25,823.75 428.125,829.375 434.875,835.0 442.5,840.625 451.25,846.0 461.25,851.125 472.875,855.875 486.125,859.875 501.375,862.875 518.75,864.625 538.5,864.375 560.625,861.75 584.875,855.75 610.875,845.625 637.625,830.625 663.5,810.125 686.625,784.0 704.875,752.875 716.375,718.25 719.875,682.25 715.75,647.125 704.875,614.875 689.375,587.0 671.25,564.125"/>
    <polyline points="652.25,546.0 633.875,532.125 616.75,521.875 601.375,514.625 588.0,509.5 576.5,506.125 566.625,504.125 558.25,503.0 551.125,502.75 545.0,503.0 535.125,504.5 531.125,505.625 524.25,508.375 518.25,511.25 507.875,516.875 502.875,519.125 495.375,521.875"/>
    <polyline points="493.0,522.5 485.625,523.875 478.625,524.125 471.75,523.25 465.375,521.5 461.375,519.875 457.625,517.875 452.5,514.125 446.5,507.875 444.0,504.25"/>
    <polyline points="442.875,502.375 440.75,498.25 439.0,493.875 436.875,486.75 435.375,476.125 435.375,467.375 436.5,458.0 438.875,448.125 441.5,441.25 445.0,434.375 447.125,430.875"/>
    <polyline points="449.5,427.5 452.25,424.0 458.75,417.375 467.125,411.25 472.0,408.5 477.375,406.0 483.375,403.875 490.0,402.25 497.375,401.0 505.25,400.5 513.875,400.75 523.25,401.875 533.0,404.125 543.375,407.5 554.0,412.25 564.75,418.625 575.25,426.5 585.25,435.875 594.25,447.0 602.0,459.375 608.125,473.0 612.25,487.5 614.25,502.5 614.125,517.5"/>
    <polyline points="611.875,532.125 607.625,546.0 601.875,558.875 594.875,570.5 587.0,580.875 578.5,590.0 569.75,597.75 560.875,604.375 552.25,610.0 543.75,614.625 535.625,618.5 520.5,624.25 513.625,626.5 500.875,629.875 489.75,632.25 457.0,638.375"/>
    <polyline points="453.875,639.0 443.125,642.0 438.625,643.625 432.875,646.375 428.0,649.5 425.25,651.75 422.875,654.25 419.875,658.125 417.625,662.5 415.875,667.25"/>
    <polyline points="415.5,668.875 414.375,676.0 414.25,681.875 414.625,688.25 416.25,697.625 417.5,702.625 420.0,710.5 423.5,718.875 428.125,727.75"/>
    <polyline points="430.0,730.75 434.125,737.0 441.875,746.375 448.375,752.625 455.875,758.625 464.875,764.125 470.0,766.75 475.5,769.0 481.375,771.0 487.75,772.75 494.625,774.0 501.875,774.75 509.625,775.0 517.75,774.5 526.375,773.25 535.125,771.0 544.125,767.875 553.0,763.75 561.875,758.375 570.25,751.875"/>
    <polyline points="578.0,744.375 584.75,735.625 590.5,726.125 594.875,715.75 597.75,704.875 599.125,693.75 598.75,682.5 596.875,671.625 593.5,661.125 589.0,651.25 583.375,642.25 577.0,634.125 570.0,626.875 562.625,620.5 555.0,615.0 547.375,610.25 539.75,606.25 532.25,602.75 524.875,599.875 511.0,595.5 492.25,591.25 481.125,589.5"/>
    <polyline points="475.875,588.75 439.375,584.25 425.0,581.75 413.625,578.875 408.0,576.875 403.0,574.625"/>
    <polyline points="401.375,573.75 394.625,569.5 391.125,566.625 388.0,563.375 385.25,560.0 381.0,553.625 376.625,544.75"/>
    <polyline points="375.875,543.125 371.75,532.625 360.25,498.625 356.0,487.5"/>
    <polyline points="354.875,484.625 350.875,475.625 346.125,466.125 340.25,456.5 335.5,449.875 330.0,443.375 323.625,437.0 319.875,433.875 311.75,428.125 307.0,425.5 302.0,423.125 296.5,421.0 290.5,419.25 284.125,417.875 277.125,417.125 269.75,416.875"/>
    <polyline points="261.875,417.25 253.5,418.5 244.75,420.625 235.75,423.875 226.5,428.125 217.375,433.625 208.375,440.375 199.75,448.5 192.0,457.875 185.125,468.375 179.5,479.875 175.375,492.125 172.875,504.875 172.0,517.875 172.875,530.75 175.375,543.125 179.125,555.0 184.25,566.0 190.125,576.0 196.75,585.0 203.875,592.875 211.25,599.875 218.75,605.875 226.125,611.0 233.375,615.375 240.375,619.0"/>
    <polyline points="247.125,622.125 259.75,626.875 271.0,630.125 285.75,633.375 323.375,639.625 332.625,642.0 338.625,644.125"/>
    <polyline points="340.375,644.875 348.5,649.25 352.625,652.375 357.5,657.0 360.75,661.0 363.75,665.375 367.375,671.75 370.0,677.25"/>
    <polyline points="370.875,679.125 377.75,696.75 390.375,732.125 398.375,750.75"/>
    <polyline points="400.375,754.75 407.375,767.5 413.125,776.375 416.5,781.0 424.25,790.375 433.875,799.875 439.5,804.625 445.875,809.25 452.875,813.75 460.875,818.0 469.75,822.0 479.75,825.5 491.0,828.375 503.5,830.375 517.5,831.25 532.875,830.75 549.5,828.5 567.5,823.875 586.25,816.75 605.375,806.5 624.0,792.875"/>
    <polyline points="641.125,775.875 655.875,755.625 666.875,732.625 673.375,708.0 675.25,682.75 672.25,658.125 665.125,635.125 654.75,614.5 642.125,596.75 628.375,581.75 614.25,569.625 600.25,560.0 587.0,552.5 574.625,546.625 563.25,542.25 552.75,539.0 543.375,536.5 534.875,534.75 520.125,532.375 489.125,529.375"/>
    <polyline points="485.125,529.0 474.875,527.5 468.875,526.125 463.5,524.375 458.75,522.375 454.375,520.0 450.375,517.25 446.75,514.25 440.625,507.125 437.0,501.0 434.0,494.125"/>
    <polyline points="433.125,491.625 430.625,481.0 429.625,469.125 430.5,455.875 431.0,452.375 432.625,445.25 433.625,441.625 436.375,434.0 440.0,426.375 444.875,418.625 451.25,411.0 455.0,407.375"/>
    <polyline points="459.375,403.75 464.125,400.375 469.625,397.125 475.75,394.25 482.625,391.875 490.25,389.875 498.625,388.5 508.0,387.875 518.125,388.25 529.25,389.625 541.0,392.5 553.375,396.875 566.25,403.0 579.125,411.125 591.75,421.375 603.375,433.625 613.625,447.875 622.0,463.75 628.0,481.0 631.25,499.125 631.625,517.25 629.25,535.0 624.5,551.75 617.625,567.25 609.25,581.0 599.875,593.125"/>
    <polyline points="589.875,603.5 579.75,612.25 569.625,619.5 560.0,625.5 550.625,630.5 533.75,637.625 526.125,640.25 512.5,644.125 495.625,647.875 471.375,652.5 460.0,655.5 453.125,658.125"/>
    <polyline points="451.125,659.125 447.625,661.125 443.0,664.5 439.375,668.375 435.875,674.25 434.625,677.375 433.75,680.75 433.25,684.375 433.0,688.125 433.375,694.125 434.125,698.375"/>
    <polyline points="434.625,700.5 436.625,707.25 438.625,712.0 441.0,716.875 444.0,721.75 449.625,729.125 456.875,736.375 459.75,738.75 466.125,743.125 469.625,745.125 477.375,748.75 486.25,751.5 496.125,753.25"/>
    <polyline points="501.5,753.5 507.0,753.5 512.75,752.875 518.625,751.875 524.625,750.25 530.625,748.0 536.5,745.25 542.375,741.75 547.875,737.625 553.0,732.875 557.625,727.625 561.625,721.625 564.875,715.25 567.375,708.5 569.125,701.5 569.875,694.25 569.625,687.125 568.625,679.875 566.625,673.0 564.0,666.25 560.625,660.0 556.625,654.125 552.125,648.75 547.25,643.875 542.125,639.375 536.75,635.5"/>
    <polyline points="531.125,632.0 520.0,626.25 514.5,624.0 503.625,620.375 488.375,616.875 474.5,615.0 458.5,613.875 444.875,613.875 428.625,615.0"/>
    <polyline points="426.375,615.25 414.75,617.0 406.0,619.375 402.5,620.75 398.625,622.75 394.25,626.25"/>
    <polyline points="393.75,626.875 391.625,629.625 389.75,633.625 389.0,636.125 388.0,642.0 387.875,650.25"/>
    <polyline points="387.875,651.5 388.5,660.125 390.25,672.0 393.75,688.75 396.375,698.5"/>
    <polyline points="397.125,701.125 400.75,712.375 407.0,728.0 410.25,734.875 414.125,742.0 418.5,749.375 421.125,753.125 426.875,760.875 433.875,768.75 437.875,772.625 442.25,776.625 447.125,780.375 452.375,784.125 458.375,787.75"/>
    <polyline points="464.75,791.125 471.875,794.25 479.75,797.0 488.375,799.375 497.875,801.0 508.125,802.0 519.25,802.0 531.125,801.0 543.625,798.5 556.875,794.625 570.25,788.875 583.625,781.25 596.5,771.5 608.375,759.75 618.75,746.125 627.0,730.875 632.75,714.375 635.625,697.125 635.75,679.875 633.0,663.0 627.75,647.125 620.5,632.75 611.75,619.75 601.875,608.625 591.5,599.0 581.0,591.0"/>
    <polyline points="570.375,584.375 560.25,578.875 550.375,574.5 541.0,571.0 532.25,568.125 524.0,565.875 509.125,562.5 496.0,560.125 474.5,556.875 457.625,553.625 450.5,551.875 444.125,549.875 433.0,545.25"/>
    <polyline points="430.625,543.875 426.0,541.0 419.875,536.375 414.5,531.0 408.25,523.0 404.125,516.375 401.625,511.5 397.125,500.875 393.125,489.0"/>
    <polyline points="392.25,485.75 387.625,468.375 379.25,430.625 374.5,410.75 368.0,388.75 363.75,377.0 361.25,371.0"/>
    <polyline points="358.375,364.875 355.125,358.625 351.375,352.375 342.125,339.5 336.25,333.25 329.5,326.875 321.625,320.875 312.25,315.125 301.25,309.875 288.125,305.25 272.75,301.875 254.625,300.0 233.375,300.375 208.75,303.75 181.0,311.25 150.375,324.125 118.125,343.75 86.375,370.875 58.0,406.0 36.25,448.0 24.125,494.625 22.75,542.375 31.5,587.375 47.875,627.0 68.75,659.625"/>
    <polyline points="91.0,685.125 112.25,703.875 131.375,717.125 147.5,726.0 160.75,731.125 171.25,733.625 179.375,733.875 185.5,732.5 190.25,729.625 193.75,725.625 196.625,720.875 199.125,715.25 206.0,696.25 211.75,682.875 215.0,676.25 218.625,670.0 222.625,664.0 226.75,658.25 235.875,648.125 240.625,643.625 250.25,636.0"/>
    <polyline points="255.0,632.75 264.5,627.25 273.625,623.0 282.125,619.75 290.125,617.25 301.125,614.75 310.75,613.25 326.5,612.125 336.75,612.125"/>
    <polyline points="338.625,612.25 341.875,612.375 352.75,613.75 358.625,615.25 363.25,617.125 365.125,618.25"/>
    <polyline points="365.625,618.625 368.25,620.625 370.125,622.5 371.625,624.625 373.75,628.25 375.5,632.625"/>
    <polyline points="375.75,633.375 378.625,642.625 383.25,662.125"/>
    <polyline points="383.625,663.75 388.125,682.5 391.25,694.125 397.25,713.125 400.75,722.375"/>
    <polyline points="402.125,725.625 405.0,732.375 410.375,743.125 414.75,750.625 422.875,762.5 429.75,770.625 437.875,778.75 442.625,782.875 453.625,790.625 460.0,794.375 467.125,797.875 475.0,801.0 483.625,803.625 493.125,805.875 503.5,807.25 514.875,807.875 527.125,807.25"/>
    <polyline points="540.25,805.375 554.125,801.875 568.375,796.625 582.875,789.25 597.125,779.625 610.375,767.75 622.25,753.625 631.875,737.625 638.875,720.0 642.875,701.5 643.625,682.75 641.125,664.375 636.0,647.125 628.375,631.25 619.125,617.25 608.75,605.0 597.625,594.625 586.375,586.125 575.25,579.0 564.5,573.375 554.25,568.75 544.5,565.125 535.5,562.25 519.125,558.0 511.75,556.625"/>
    <polyline points="505.0,555.375 468.375,549.5 460.5,547.875 450.25,545.0 441.5,541.625 436.375,539.0 431.625,536.125 425.375,531.25 419.875,525.75"/>
    <polyline points="418.25,523.875 413.625,517.5 408.375,508.0 405.0,500.0 402.0,491.25 400.125,485.0 397.0,471.375 395.5,463.875 393.0,447.75"/>
    <polyline points="392.375,443.375 389.375,414.75 387.375,387.125 386.375,368.625 385.125,334.25 384.5,294.875 384.625,286.375"/>
    <polyline points="384.625,277.625 384.75,268.625 386.0,240.25 387.75,220.0 389.125,209.375 391.0,198.625 393.5,187.5 396.875,176.125 401.375,164.375 407.5,152.5 415.875,140.5 427.25,128.375 443.125,116.375 465.125,105.25 495.875,95.75 538.75,89.75 598.0,91.25 678.0,106.75 779.125,147.875 891.125,229.375 985.25,360.0 1023.5,524.875 993.0,684.125"/>
    <polyline points="921.375,804.25 848.375,878.375 797.75,916.875 776.0,930.375 780.75,924.5 805.0,900.375 839.25,857.125 871.25,795.375 889.125,720.25 886.0,641.375 863.0,569.5 827.875,511.875 789.75,470.75 755.625,444.375 728.625,429.75 709.625,424.125 697.875,425.5 691.5,432.25 688.875,443.5 687.875,476.0 686.5,495.625 683.375,516.125 677.875,536.75 670.125,556.375 660.375,574.625"/>
    <polyline points="649.125,590.875 637.0,604.875 624.375,616.75 612.0,626.5 599.875,634.375 588.5,640.75 577.875,645.625 568.0,649.375 558.875,652.25 543.125,656.0 536.125,657.125 518.625,658.75 493.25,659.25 478.0,660.125"/>
    <polyline points="475.5,660.5 468.375,661.75 462.375,663.625 457.125,666.0 452.875,668.875 450.375,671.125 447.375,674.75 445.125,678.875 443.625,683.5 443.125,686.75"/>
    <polyline points="443.0,688.375 443.0,693.75 444.375,701.375 446.5,707.375 449.625,713.625 451.0,715.75 455.625,722.0 461.75,728.125 469.25,733.625 475.25,736.875"/>
    <polyline points="478.5,738.375 485.625,740.625 493.5,742.125 502.0,742.5 511.125,741.625 520.375,739.125 524.875,737.25 529.375,734.875 533.75,732.125 537.875,728.875 541.625,725.25 545.125,721.125 548.125,716.625 550.625,711.875 552.5,706.75 553.875,701.5 554.625,696.125 554.625,690.625 554.125,685.125 552.875,679.75 551.125,674.625"/>
    <polyline points="548.875,669.625 546.0,664.875 542.75,660.375 539.25,656.25 535.375,652.375 526.875,645.875 522.375,643.0 513.375,638.375 504.25,634.875 495.375,632.25 482.625,629.875 474.75,629.0 467.375,628.625 460.5,628.625 451.25,629.25"/>
    <polyline points="448.375,629.5 440.5,630.75 433.625,632.375 429.625,633.625 422.625,636.625 418.25,639.25 414.625,642.0 411.5,645.25 408.25,649.875"/>
    <polyline points="407.625,651.125 405.875,655.125 404.625,659.5 404.0,662.625 403.375,669.375 403.625,678.875 404.375,685.25 406.75,697.0"/>
    <polyline points="407.375,699.625 410.625,710.375 414.0,719.125 418.375,728.5 422.0,735.125 426.375,741.875 431.375,748.75 440.875,759.25 448.875,766.125 453.375,769.5 458.25,772.625 463.625,775.75 469.5,778.625"/>
    <polyline points="476.0,781.125 483.0,783.375 490.5,785.25 498.75,786.5 507.5,787.125 516.875,787.0 526.875,786.0 537.25,783.875 548.0,780.625 558.875,776.0 569.75,770.0 580.125,762.375 589.875,753.375 598.5,742.875 605.625,731.125 611.0,718.25 614.5,704.875 615.75,691.0 615.0,677.25 612.125,664.0 607.5,651.5 601.5,640.0 594.25,629.625 586.125,620.375 577.5,612.375 568.625,605.5"/>
    <polyline points="559.75,599.75 550.875,594.875 542.25,590.875 533.875,587.5 518.25,582.5 504.25,579.0 491.625,576.625 449.25,570.0 436.0,567.0 427.625,564.375"/>
    <polyline points="425.0,563.5 420.25,561.5 412.0,557.0 408.25,554.5 401.75,548.875 397.5,544.25 393.625,539.125 390.125,533.625 385.875,525.5"/>
    <polyline points="384.875,523.25 380.875,514.0 378.0,506.375 366.375,472.875 360.75,458.625 355.625,447.0"/>
    <polyline points="353.625,443.125 351.5,439.0 346.625,430.875 340.875,422.5 337.625,418.375 330.0,410.125 320.75,402.125 315.25,398.375 309.25,394.875 302.5,391.75 295.125,388.875 286.875,386.625 277.75,384.875 267.625,384.0 256.625,384.125 244.75,385.5 231.875,388.375 218.25,392.875 204.0,399.375 189.75,408.125 175.625,419.125 162.5,432.625"/>
    <polyline points="150.75,448.5 141.25,466.375 134.375,485.75 130.625,506.125 130.125,526.625 132.75,546.625 138.0,565.5 145.625,582.625 154.75,597.875 164.875,611.0 175.625,622.125 186.25,631.375 196.75,639.0 206.75,645.0 216.125,649.875 224.875,653.625 233.0,656.625 240.5,658.875 253.625,661.75 264.875,663.375 282.875,664.5"/>
  </g>
</svg>
