<?xml version="1.0" encoding="utf-8" ?>
<svg xmlns="http://www.w3.org/2000/svg" xmlns:cc="http://creativecommons.org/ns" xmlns:dc="http://purl.org/dc/elements/1.1/" xmlns:ev="http://www.w3.org/2001/xml-events" xmlns:inkscape="http://www.inkscape.org/namespaces/inkscape" xmlns:rdf="http://www.w3.org/1999/02/22-rdf-syntax-ns" xmlns:sodipodi="http://sodipodi.sourceforge.net/DTD/sodipodi-0.dtd" xmlns:xlink="http://www.w3.org/1999/xlink" baseProfile="tiny" height="27.09333333cm" version="1.2" viewBox="0 0 1024.0 1024.0" width="27.09333333cm">
  <metadata>
    <rdf:RDF>
      <cc:Work>
        <dc:format>image/svg+xml</dc:format>
        <dc:source>vpype read './original_svgs/Strange Attractors #146.svg' linemerge linesimplify write './Strange Attractors #146.svg'
</dc:source>
        <dc:date>2024-08-05T01:35:30.637320</dc:date>
      </cc:Work>
    </rdf:RDF>
  </metadata>
  <defs/>
  <g fill="none" id="layer1" inkscape:groupmode="layer" inkscape:label="1" stroke="black" stroke-width="0.7mm" style="display:inline">
    <polyline points="364.125,334.25 324.75,356.25 293.375,377.5 266.5,399.75 241.75,425.125 217.5,455.75 193.625,493.875 170.625,541.25 151.125,598.25 139.0,662.875 140.0,729.5 158.125,789.0 194.0,831.875 242.125,853.625 294.25,855.75 342.375,844.75 381.5,827.75 410.125,809.875 428.5,793.875 437.625,780.75 438.875,770.375 434.0,762.0 424.25,754.625 396.5,738.75 381.375,728.875"/>
    <polyline points="367.25,717.25 355.5,704.25 346.5,690.125 340.5,675.75 337.625,661.5 337.125,648.0 338.625,635.625 341.625,624.625 345.625,615.0 350.125,606.75 355.0,599.75 359.875,593.875 364.625,588.875 374.0,580.875 382.5,575.0 413.625,556.875"/>
    <polyline points="416.5,555.0 426.75,547.625 431.125,544.0 437.125,538.375 442.125,532.875 445.125,529.25 449.875,522.125 453.5,515.25 455.375,510.25"/>
    <polyline points="455.875,508.625 457.125,503.625 457.75,498.75 457.875,493.875 457.5,488.875 456.375,482.0 455.5,478.5 453.875,473.0 451.0,465.125"/>
    <polyline points="450.25,463.0 441.5,441.375 438.25,432.5 434.875,422.375 431.875,410.5 430.25,401.375 429.25,391.0 429.0,379.0 429.375,372.25"/>
    <polyline points="430.25,365.0 431.5,357.0 433.5,348.375 436.125,338.75 439.75,328.375 444.625,316.875 450.875,304.25 458.875,290.5 469.0,275.5 481.5,259.375 496.875,242.5 515.375,225.125 537.25,208.25 562.375,193.125 590.0,181.125 619.0,174.125 647.75,173.875 674.125,181.625 696.25,197.25 712.625,219.625 722.875,246.875 727.5,276.25 727.75,305.75 724.75,333.375 719.75,358.375 713.75,380.125"/>
    <polyline points="707.375,398.625 701.25,414.0 695.375,426.75 690.0,437.125 680.625,452.125 676.5,457.5 672.75,461.75 666.125,467.875 663.125,470.0 657.5,473.125 652.125,475.25 637.5,479.875 633.0,481.625 626.625,484.625"/>
    <polyline points="624.75,485.75 619.25,489.5 614.5,493.625 610.625,498.125 607.5,502.75 605.125,507.75 604.0,511.0 603.25,514.375 602.875,517.75 603.125,524.5"/>
    <polyline points="603.5,526.25 604.25,529.625 605.5,533.0 609.0,539.75 614.125,546.25 617.375,549.5 625.125,555.5 629.875,558.25 638.125,561.875 644.5,563.75"/>
    <polyline points="648.0,564.5 655.5,565.5 659.75,565.625 664.125,565.5 673.75,564.25 678.875,563.0 684.375,561.25 690.125,559.0 696.25,556.0 702.375,552.375 708.875,547.875 715.25,542.5 721.75,536.0 727.875,528.5 733.625,519.875 738.625,510.25 742.625,499.5 745.25,487.875 746.25,475.625 745.25,463.125 742.0,450.75 736.5,438.875 729.0,427.875 719.5,418.125"/>
    <polyline points="708.625,410.0 696.75,403.375 684.375,398.375 671.875,394.875 659.75,392.75 648.125,391.625 637.375,391.5 627.375,392.125 618.25,393.25 609.875,394.75 602.5,396.625 589.625,400.625 579.125,405.0 570.5,409.25 560.0,415.25 544.5,424.75"/>
    <polyline points="542.375,426.0 538.375,428.25 531.375,431.5 525.125,433.25 520.875,433.625 517.0,433.25 513.375,432.125 510.125,430.25 507.0,427.625"/>
    <polyline points="506.125,426.5 504.25,424.125 502.625,421.375 500.5,416.625 498.875,410.875 498.125,406.5 497.75,401.625 497.875,393.375 499.25,384.0 502.125,373.375 505.125,365.625"/>
    <polyline points="507.0,361.625 511.625,353.25 517.625,344.75 521.0,340.5 524.875,336.25 533.375,328.25 543.25,321.25 548.5,318.375 554.0,316.0 559.5,314.125 565.125,313.0 570.625,312.625 576.0,313.0 581.0,314.125 585.75,316.25 589.875,319.125 593.625,322.75 596.75,327.0 599.25,332.0 601.125,337.5 602.375,343.375 603.0,349.5"/>
    <polyline points="603.0,355.875 602.625,362.375 601.625,368.75 600.375,375.25 598.75,381.5 594.625,393.375 589.875,404.375 587.25,409.5 582.0,419.0 576.625,427.375 571.375,434.875 563.875,444.625 554.75,455.0 548.625,461.375"/>
    <polyline points="546.75,463.25 539.75,469.75 529.75,477.75 523.0,482.125 519.125,484.0 515.625,485.125"/>
    <polyline points="514.875,485.375 512.5,485.75 509.625,485.75 506.875,485.25 504.25,484.25 501.625,482.75 497.75,479.625"/>
    <polyline points="497.125,479.0 493.75,475.375 490.25,470.875 485.75,464.125 483.375,460.125 478.5,450.5"/>
    <polyline points="477.75,448.625 476.0,444.75 472.75,436.0 470.5,428.25 468.625,419.375 467.625,412.625 467.125,405.125 467.0,396.875 468.25,382.5 470.375,371.5 474.0,359.0"/>
    <polyline points="476.625,352.25 479.75,345.0 483.5,337.375 487.875,329.375 493.25,321.125 499.5,312.5 506.75,303.75 515.0,294.75 524.375,286.0 534.875,277.625 546.5,270.0 558.875,263.375 572.0,258.25 585.5,254.875 598.75,254.0 611.625,255.5 623.375,259.75 633.625,266.75 642.0,276.125 648.5,287.5 652.875,300.375 655.25,314.125 656.0,328.375 655.25,342.625 653.25,356.375 650.5,369.5"/>
    <polyline points="647.0,381.75 643.125,393.125 639.0,403.5 634.875,413.0 626.5,429.375 618.5,442.875 611.375,454.125 594.125,478.75 586.125,490.75 581.625,498.375 578.25,505.25"/>
    <polyline points="577.25,507.375 574.5,515.75 573.75,519.625 573.125,525.5 573.125,531.125 573.875,536.75 575.125,542.375 577.0,548.25 580.25,556.125"/>
    <polyline points="581.25,558.25 585.625,566.75 603.125,597.25 608.125,606.625 612.875,617.125 616.875,629.0"/>
    <polyline points="617.875,633.375 619.125,642.75 619.375,647.875 619.0,653.375 618.125,659.25 616.5,665.5 614.0,672.25 610.5,679.375 605.5,687.125 598.875,695.5 590.125,704.375 578.75,713.625 564.5,723.25 546.75,732.75 525.0,741.875 499.375,749.5 469.875,754.875 437.625,756.625 404.375,753.75 372.25,745.25 344.125,731.375 322.0,713.0 306.875,692.0 298.625,670.5 295.875,650.125"/>
    <polyline points="297.25,632.0 301.25,617.0 306.5,604.875 312.25,595.75 317.875,589.125 323.375,584.625 328.375,581.75 333.125,580.25 337.5,579.875 341.75,580.125 345.875,580.875 358.375,584.375 367.0,586.25 371.625,586.875 381.0,587.125 385.625,586.875 395.125,585.25 404.375,582.5 413.25,579.0"/>
    <polyline points="417.5,577.0 425.375,572.625 436.125,565.625 442.375,561.0 450.625,554.125 457.625,547.625 465.25,539.875 472.625,531.25 476.0,526.75"/>
    <polyline points="477.0,525.25 481.25,518.75 484.125,512.875 486.375,505.5 486.875,500.5 486.75,497.5"/>
    <polyline points="486.75,496.625 486.0,491.625 484.625,486.25 482.125,479.375 476.875,467.25"/>
    <polyline points="476.125,465.625 469.25,449.25 466.75,442.625 463.5,432.25 462.0,426.375 460.125,416.375 458.875,404.75 458.75,400.375"/>
    <polyline points="458.75,395.75 459.25,385.625 461.0,374.25 462.25,367.875 466.375,354.0 469.25,346.375 472.875,338.125 477.25,329.5 482.5,320.25 488.875,310.625 496.375,300.625 505.25,290.25 515.375,279.75 527.125,269.5 540.125,259.875 554.5,251.25 570.0,244.125 586.125,239.25 602.375,237.125 618.125,238.25 632.625,242.875 645.25,250.875 655.5,262.125"/>
    <polyline points="663.125,276.0 668.125,291.625 670.625,308.375 671.0,325.375 669.75,342.125 667.0,358.0 663.5,372.875 659.25,386.5 654.75,398.875 650.125,410.0 641.0,428.875 632.375,443.875 624.75,455.875 604.875,484.125 599.25,492.75"/>
    <polyline points="597.625,495.25 594.875,500.125 591.75,507.0 589.125,515.375 588.25,521.375 588.375,529.25 589.375,535.0 591.125,540.75 593.625,546.625"/>
    <polyline points="594.625,548.5 598.125,554.5 605.625,564.75 611.375,571.0 618.0,577.375 625.875,583.875 635.0,590.125 642.125,594.25 650.0,598.0 654.5,599.75"/>
    <polyline points="659.125,601.25 664.125,602.625 675.5,604.625 681.875,605.0 688.75,605.0 696.375,604.375 704.625,603.0 713.75,600.625 723.625,597.125 734.5,592.25 746.25,585.5 758.75,576.5 772.0,565.0 785.375,550.375 798.25,532.375 809.5,510.75 817.75,485.75 821.25,458.125 818.375,429.25 808.25,401.0 790.875,375.375 767.625,354.125 741.0,338.0 713.25,326.875 686.75,319.875"/>
    <polyline points="662.875,316.0 642.375,314.25 625.625,313.625 602.0,314.0 589.25,314.875 585.75,315.25 583.875,315.75 583.125,316.375 583.25,317.25 588.625,324.25 590.375,327.125 591.875,330.5 593.25,334.25 595.25,342.875 595.75,352.625 595.5,357.75 595.0,363.0 592.875,373.625"/>
    <polyline points="591.5,378.75 588.0,388.875 583.875,398.5 579.375,407.25 572.25,419.0 565.0,429.0 560.375,434.875 555.875,440.0 549.5,446.625 543.5,452.125 538.0,456.5"/>
    <polyline points="536.375,457.875 531.5,461.125 525.625,464.375 519.0,466.875 516.625,467.375 512.125,467.75 508.875,467.375 504.875,466.25"/>
    <polyline points="503.875,465.75 501.0,464.25 497.25,461.375 494.5,458.75 490.875,454.375 486.375,447.375 483.75,442.375 481.25,436.625"/>
    <polyline points="480.5,434.5 478.25,427.5 476.375,419.5 475.125,410.125 474.75,403.0 474.875,395.125 475.125,390.875 476.375,381.625 477.375,376.625 480.375,365.75 482.375,359.875 484.875,353.75 491.375,340.375 495.625,333.375 500.5,326.125"/>
    <polyline points="506.0,318.625 512.5,311.0 519.75,303.5 527.875,296.25 536.75,289.25 546.5,282.875 556.875,277.5 567.75,273.125 578.75,270.375 589.875,269.25 600.5,270.25 610.375,273.125 619.25,278.125 626.875,285.125 632.875,293.875 637.375,303.875 640.375,315.0 641.875,326.625 642.125,338.625 641.125,350.5 639.375,362.125 636.75,373.25 633.75,383.75 630.25,393.5 622.875,411.125"/>
    <polyline points="619.0,418.875 611.5,432.625 604.375,444.25 591.75,462.75 577.375,482.625 572.125,490.5 565.5,501.625 562.75,507.625"/>
    <polyline points="561.875,509.5 559.625,516.625 558.875,520.125 558.375,523.375 558.125,528.375 558.375,533.25 559.375,539.75 560.625,544.75 562.875,551.625"/>
    <polyline points="563.5,553.375 575.5,582.125 579.25,592.375 581.625,601.0 583.375,610.625 583.625,614.125"/>
    <polyline points="583.75,617.75 583.75,621.5 582.875,629.375 580.625,638.125 578.75,642.75 576.375,647.625 573.375,652.625 569.625,657.875 565.0,663.25 559.375,668.75 552.75,674.375 544.75,680.0 535.375,685.375 524.625,690.625 512.5,695.25 498.75,699.0 483.875,701.875 468.125,703.25 451.75,702.875 435.375,700.625 419.875,696.375 405.625,690.125 393.375,682.0 383.5,672.5"/>
    <polyline points="376.125,662.0 371.25,651.125 368.75,640.25 368.0,629.625 369.0,619.75 371.0,610.5 374.0,602.25 377.375,594.875 381.125,588.25 388.875,577.25 392.625,572.75 399.875,564.875 409.625,555.625 420.375,546.0 430.75,535.75"/>
    <polyline points="432.375,533.875 437.0,528.375 439.5,524.875 442.75,519.625 445.25,514.5 446.5,511.125 448.25,504.5 448.875,499.5 448.875,492.75 448.625,491.125"/>
    <polyline points="448.5,489.375 446.125,478.75 442.75,469.25 439.125,461.0 426.875,436.125"/>
    <polyline points="425.5,433.125 421.125,423.375 418.25,416.125 415.5,408.0 412.875,398.875 411.75,393.75 410.0,382.5 409.5,376.25 409.5,361.75 410.25,353.5 411.625,344.25 413.875,334.0 417.25,322.625 421.875,309.875 428.25,295.5 436.75,279.375 448.0,261.375 462.625,241.5 481.25,219.875"/>
    <polyline points="504.5,197.125 533.0,174.25 566.75,153.375 604.75,137.25 644.875,129.25 683.75,132.375 717.625,148.25 743.25,175.875 759.25,212.125 766.25,252.375 766.375,292.25 762.0,328.75 755.25,360.25 747.75,386.25 740.375,407.0 733.625,423.0 727.75,435.0 722.625,443.625 718.125,449.5 714.0,453.25 710.125,455.125 706.375,455.875 702.625,455.5 698.625,454.5 690.0,451.5"/>
    <polyline points="685.25,449.75 675.0,446.625 669.625,445.375 658.5,443.875 652.875,443.5 647.25,443.625 641.75,444.0 631.125,445.5 616.625,449.625 604.0,455.125 596.625,459.25 590.0,463.625 584.125,467.875 576.5,474.375"/>
    <polyline points="574.125,476.5 568.0,482.625 564.5,486.625 556.25,497.5 553.25,502.375 550.875,507.0 548.5,512.875 547.0,518.375"/>
    <polyline points="546.75,519.75 546.125,526.25 546.75,534.0 549.0,543.25 552.75,553.375"/>
    <polyline points="553.375,554.875 560.5,572.125 565.0,584.75 568.0,597.125 569.0,608.5"/>
    <polyline points="568.875,611.625 568.25,618.125 567.5,621.625 566.625,625.125 563.75,632.625 559.375,640.5 552.875,648.875 548.625,653.125 538.25,661.5 531.75,665.625 524.5,669.5 516.375,673.0 507.375,676.125 497.625,678.75 487.125,680.625 476.25,681.5 465.0,681.375 453.875,680.125 443.0,677.75 432.875,674.0 423.75,669.25"/>
    <polyline points="415.75,663.375 409.125,656.75 404.125,649.5 400.5,641.875 398.25,634.0 397.375,626.25 397.5,618.75 398.5,611.625 400.125,604.75 402.375,598.375 405.0,592.5 407.875,587.0 414.0,577.25 423.25,565.25 445.625,539.75"/>
    <polyline points="447.5,537.5 452.5,531.25 457.75,523.625 461.625,516.625 464.375,510.0 465.75,505.375 466.625,500.75 467.0,494.625"/>
    <polyline points="467.0,493.125 465.875,483.75 463.25,473.625 459.375,462.375 453.375,446.625"/>
    <polyline points="452.5,444.125 449.625,435.75 446.875,426.25 444.375,415.375 443.125,407.0 442.25,397.625 442.125,392.375 442.125,386.875 443.125,374.5 444.125,367.625 447.625,352.25 450.375,343.5 454.0,334.0 458.5,323.875 464.25,312.75 471.375,300.875"/>
    <polyline points="480.125,288.125 490.75,274.75 503.5,260.875 518.5,246.875 535.875,233.375 555.5,221.0 577.0,210.875 599.75,204.125 622.5,201.875 644.375,204.875 663.75,213.75 679.625,227.875 691.25,246.625 698.75,268.5 702.125,291.75 702.375,315.25 700.0,337.625 696.125,358.375 691.125,377.125 685.75,393.5 680.25,407.75 674.75,420.125 664.625,439.625 655.875,453.75"/>
    <polyline points="651.875,459.375 645.0,468.375 639.25,475.25 626.125,489.25 620.125,496.25 616.875,501.0 615.125,504.125 613.125,508.75 612.125,513.375"/>
    <polyline points="611.875,514.875 611.75,517.875 612.625,523.875 614.25,528.25 617.625,534.0 619.875,536.75 625.75,541.875 631.25,545.125 638.0,547.875"/>
    <polyline points="640.5,548.625 643.125,549.25 648.875,550.0 655.25,550.125 658.625,549.875 665.875,548.625 673.875,546.25 682.25,542.25 686.625,539.5 691.0,536.375 695.375,532.75 699.625,528.5 703.75,523.625 707.625,518.125 711.125,512.125 714.0,505.5 716.25,498.375 717.625,490.875 718.125,483.125 717.375,475.25 715.625,467.25"/>
    <polyline points="712.625,459.625 708.5,452.375 703.25,445.625 697.0,439.75 690.0,434.5 682.25,430.25 674.25,426.875 666.0,424.375 657.75,422.75 649.5,421.875 641.625,421.5 634.0,421.875 626.75,422.625 619.875,423.75 607.375,427.0 596.625,431.0 587.125,435.375 575.125,442.125 565.25,448.625"/>
    <polyline points="562.375,450.625 533.5,472.0 525.375,477.0 519.875,479.625"/>
    <polyline points="518.875,480.0 516.875,480.625 512.375,481.375 509.875,481.375 507.5,481.0 504.5,480.0 501.5,478.5 498.625,476.375"/>
    <polyline points="497.875,475.75 492.625,470.375 488.0,464.125 483.125,456.125 478.125,445.875"/>
    <polyline points="477.25,444.0 473.25,432.75 470.5,421.75 469.0,412.0 468.5,404.625 468.5,396.375 469.75,382.25 472.0,371.25 475.75,358.875 478.25,352.25 481.375,345.125"/>
    <polyline points="485.125,337.75 489.625,329.875 494.875,321.75 501.0,313.375 508.125,304.75 516.25,296.125 525.375,287.625 535.625,279.625 546.875,272.25 559.0,265.875 571.625,260.875 584.625,257.75 597.5,256.875 609.875,258.375 621.125,262.5 631.125,269.125 639.375,278.125 645.625,289.0 650.0,301.375 652.5,314.625 653.375,328.375 652.75,342.125 651.0,355.625 648.25,368.375 645.0,380.375 641.25,391.625"/>
    <polyline points="637.25,401.875 629.0,419.875 620.875,434.75 609.875,452.5 590.25,480.625 582.625,492.125 577.125,501.875 574.25,508.375"/>
    <polyline points="573.5,510.5 572.125,514.5 570.875,520.375 570.25,527.875 570.375,531.5 571.125,537.125 572.875,544.5 574.75,550.25 578.125,558.25"/>
    <polyline points="579.125,560.375 583.375,569.0 595.375,591.375 602.375,606.625 606.25,617.25 608.125,625.125 609.375,633.75"/>
    <polyline points="609.625,638.375 609.5,643.375 608.875,648.625 607.75,654.125 605.875,660.125 603.25,666.375 599.625,673.125 594.75,680.25 588.375,687.75 580.25,695.75 569.875,704.0 557.125,712.5 541.5,720.75 522.875,728.5 501.125,735.25 476.375,740.0 449.375,742.0 421.25,740.375 393.75,734.625 368.75,724.5 347.875,710.5 332.125,693.75 322.0,675.625 316.875,657.5 315.75,640.625 317.625,625.5"/>
    <polyline points="321.375,612.75 326.125,602.125 331.25,593.75 336.5,587.125 341.5,582.125 346.375,578.375 350.875,575.625 355.125,573.75 363.0,571.625 370.375,570.75 384.375,569.75 391.25,568.75 398.125,567.25 408.125,563.875 417.375,559.5"/>
    <polyline points="420.375,557.875 425.875,554.375 433.5,548.75 442.125,541.125 447.5,535.5 453.375,528.125 456.875,522.875 459.75,517.75 462.0,512.875"/>
    <polyline points="462.5,511.25 464.0,506.5 465.125,500.25 465.375,492.5 464.5,484.625 462.5,476.25 460.75,470.875"/>
    <polyline points="460.125,469.0 449.25,439.5 444.5,423.875 441.375,408.125 440.375,398.875 440.125,393.75"/>
    <polyline points="440.125,388.25 440.75,376.125 441.625,369.375 443.0,362.0 444.875,354.0 447.375,345.375 450.75,336.0 455.0,325.75 460.5,314.75 467.25,302.875 475.75,290.0 486.125,276.375 498.5,262.25 513.375,247.75 530.625,233.5 550.375,220.25 572.25,209.0 595.625,201.125 619.5,197.625 642.5,199.5 663.25,207.5 680.375,221.375 693.375,240.125 701.625,262.375 705.75,286.5"/>
    <polyline points="706.25,310.875 704.125,334.25 700.25,355.875 695.25,375.25 689.75,392.375 684.0,407.125 678.5,419.75 673.25,430.5 668.25,439.625 659.375,453.875 655.5,459.375 648.5,468.25 642.625,474.875 623.125,494.375"/>
    <polyline points="621.75,495.875 618.375,500.25 615.875,504.75 614.125,509.125 613.125,513.5 612.875,517.875 613.875,523.75 615.5,528.0 618.0,532.125"/>
    <polyline points="619.0,533.5 621.25,536.125 625.5,539.875 630.75,543.125 639.375,546.625 647.375,548.125 653.375,548.375 656.625,548.125 660.0,547.75 667.125,546.25 674.875,543.5 683.0,539.125"/>
    <polyline points="687.125,536.375 691.375,533.125 695.375,529.25 699.375,525.0 703.125,520.125 706.5,514.625 709.5,508.625 712.0,502.25 713.75,495.375 714.625,488.125 714.625,480.75 713.5,473.25 711.375,466.0 708.125,458.875 703.875,452.25 698.625,446.25 692.5,440.875 685.625,436.25 678.25,432.5 670.625,429.5 662.75,427.375 655.0,426.0 647.25,425.25 639.75,425.125 625.625,426.375"/>
    <polyline points="619.125,427.625 613.0,429.125 601.875,432.75 592.125,437.0 583.625,441.375 576.125,445.875 566.375,452.375 551.25,463.875 538.5,474.125"/>
    <polyline points="536.875,475.375 530.125,480.5 522.625,485.375 518.25,487.5 515.125,488.5 512.375,489.0"/>
    <polyline points="511.625,489.0 509.125,489.0 505.0,487.75 501.0,485.25 496.875,481.375"/>
    <polyline points="496.25,480.75 493.75,477.875 488.375,470.375 482.375,460.375 478.375,452.375"/>
    <polyline points="477.5,450.625 473.375,440.5 470.25,430.75 468.25,422.125 467.125,415.625 466.375,408.5 466.0,400.5 466.75,386.625 468.375,376.0 471.375,364.0"/>
    <polyline points="473.5,357.5 479.5,343.125 483.375,335.375 488.125,327.25 493.625,318.75 500.125,310.0 507.625,301.0 516.375,291.875 526.125,283.0 537.0,274.625 549.0,267.0 561.875,260.5 575.375,255.5 589.125,252.625 602.75,252.25 615.5,254.5 627.25,259.5 637.25,267.25 645.375,277.375 651.375,289.5 655.25,303.0 657.25,317.25 657.5,331.75 656.375,346.125 654.125,360.0"/>
    <polyline points="651.0,373.125 647.375,385.25 643.375,396.5 639.125,406.75 630.625,424.5 622.5,439.0 615.0,451.0 608.25,461.125 588.625,489.25 583.875,497.125 580.25,504.25"/>
    <polyline points="579.25,506.375 577.625,510.75 575.875,516.875 575.0,522.75 574.75,528.5 575.5,536.125 576.75,541.875 579.375,549.625 582.0,555.625"/>
    <polyline points="583.0,557.75 588.75,568.5 592.875,575.5 606.0,596.5 613.25,609.0 616.75,615.875 621.875,627.375"/>
    <polyline points="623.25,631.625 625.75,640.625 627.0,650.875 627.0,656.375 626.5,662.375 625.25,668.75 623.0,675.75 619.75,683.125 615.0,691.25 608.5,700.0 599.75,709.375 588.25,719.5 573.375,730.0 554.5,740.625 531.125,750.875 502.875,759.75 470.0,766.125 433.625,768.375 395.75,765.0 359.5,755.0 328.125,738.5 304.25,717.0 289.0,692.875 281.5,668.625"/>
    <polyline points="280.25,646.5 283.0,627.625 288.125,612.625 294.25,601.375 300.375,593.375 306.25,588.375 311.625,585.625 316.625,584.75 321.25,585.25 325.75,586.75 330.125,588.875 339.25,594.125 349.25,599.0 354.625,600.875 360.375,602.375 366.25,603.375 372.25,603.75 378.375,603.625 384.5,603.0 390.5,601.875 396.5,600.375 402.375,598.5 413.5,593.875"/>
    <polyline points="418.75,591.375 432.875,583.125 441.0,577.5 451.625,569.5 463.0,559.875 472.0,551.625 486.25,537.75"/>
    <line x1="487.375" x2="504.375" y1="536.625" y2="519.5"/>
    <polyline points="504.75,519.25 509.875,514.0 511.375,512.0 511.125,510.875 506.0,503.5"/>
    <line x1="505.875" x2="500.125" y1="503.25" y2="494.75"/>
    <line x1="499.75" x2="488.5" y1="494.375" y2="476.5"/>
    <polyline points="487.875,475.5 482.5,466.0 476.375,453.5 472.25,443.625 469.125,434.125"/>
    <polyline points="468.25,431.5 465.625,419.625 464.625,412.625 463.875,400.875 464.0,391.75 465.125,381.625 466.125,376.0 469.0,363.75 471.125,357.0 477.125,342.375 481.125,334.375 485.875,325.875 491.625,317.125 498.375,308.0 506.125,298.625 515.125,289.125"/>
    <polyline points="525.375,279.875 536.875,271.0 549.5,262.875 563.0,256.125 577.25,251.0 591.75,248.125 606.0,247.75 619.375,250.375 631.5,256.0 641.875,264.5 650.125,275.625 656.125,288.625 659.875,303.0 661.5,318.0 661.375,333.375 659.875,348.25 657.375,362.5 654.0,376.0 650.0,388.375 645.875,399.625 637.125,419.25 628.625,435.125 620.75,448.25"/>
    <polyline points="617.0,453.75 593.125,488.375 586.875,498.875 584.5,503.625 581.75,510.25 580.0,516.5 579.0,524.375"/>
    <polyline points="578.875,526.375 579.0,530.25 579.75,536.0 580.625,539.875 583.25,547.75 585.875,553.75 590.375,562.125 594.5,568.75 600.875,578.0"/>
    <polyline points="602.625,580.5 610.25,590.75 634.0,621.25 642.125,632.375 647.5,640.5 652.75,649.25 655.25,654.0 659.625,664.25 661.5,669.875"/>
    <polyline points="662.875,676.0 663.625,682.5 663.75,689.75 662.75,697.5 660.5,706.25 656.375,715.875 650.0,726.75 640.25,738.875 626.375,752.5 606.875,767.5 580.125,783.5 544.625,799.5 499.0,813.75 443.5,822.875 381.25,822.625 319.125,809.25 265.75,781.875 228.625,744.25 209.625,703.0 205.125,665.25 209.375,635.25 217.375,614.375 225.875,602.375 233.375,598.0 239.375,600.0 244.5,606.75"/>
    <polyline points="249.25,617.125 254.625,629.75 261.125,643.375 269.5,656.75 279.875,668.75 292.25,678.375 306.25,685.375 321.5,689.5 337.25,690.625 352.875,689.375 367.875,686.25 381.875,681.625 394.625,676.25 406.0,670.25 416.0,664.125 424.75,658.125 438.625,646.875 444.0,641.75 452.5,632.625 458.75,624.75 465.25,614.875"/>
    <polyline points="467.0,612.0 476.0,595.875 481.625,587.25 485.0,582.875 488.375,579.125 491.75,575.875 496.125,572.375"/>
    <polyline points="497.25,571.625 501.375,569.25 505.5,567.625 511.125,566.5 515.5,566.875 520.25,568.625"/>
    <polyline points="521.0,569.125 525.375,572.5 527.375,574.75 529.75,578.25 532.625,584.75 533.375,587.25 534.25,592.625"/>
    <polyline points="534.375,594.0 534.125,600.125 533.125,605.125 530.25,612.0 528.125,615.5 525.375,618.875 520.125,623.875 515.75,626.875 508.125,630.625 502.25,632.5"/>
    <polyline points="499.25,633.125 489.75,633.875 483.5,633.25 480.375,632.5 474.75,630.375 472.125,629.0 469.75,627.375 465.625,623.5 462.625,619.0 461.625,616.5 460.75,614.0 460.0,608.625 459.875,606.0 460.5,600.625 461.875,595.375 463.75,590.25"/>
    <polyline points="464.875,587.875 467.375,583.125 470.25,578.75 477.625,569.25 487.75,559.125 493.0,554.875 499.0,550.875"/>
    <polyline points="500.125,550.125 506.25,547.25 512.375,545.875 515.625,545.875 517.875,546.25 521.5,547.625"/>
    <polyline points="522.25,548.0 526.375,550.75 530.625,554.75 533.375,558.0 536.875,562.875 539.5,567.5"/>
    <polyline points="540.25,568.75 542.75,574.0 545.75,581.75 547.125,586.875 548.125,592.625 548.5,598.75 548.0,605.5 547.125,610.125 545.625,615.125"/>
    <polyline points="544.5,617.75 541.875,622.875 538.125,628.25 533.25,633.5 527.125,638.625 519.625,643.5 515.25,645.625 510.625,647.625 500.5,650.75 489.375,652.5 483.5,652.75 477.75,652.5 472.0,651.75 466.375,650.5 461.125,648.75 456.125,646.5 451.625,643.75 447.5,640.5 444.125,637.0"/>
    <polyline points="441.25,633.125 439.0,629.125 437.375,624.75 436.25,620.375 435.75,616.0 435.625,611.625 436.0,607.25 436.75,603.0 439.25,594.75 442.625,587.125 444.5,583.625 450.75,573.75 454.875,568.0 459.125,562.75 470.5,549.75"/>
    <polyline points="472.125,547.875 488.75,529.875 497.0,519.75"/>
    <polyline points="497.375,519.125 499.75,515.625 501.25,512.625 502.25,509.625 502.5,507.25"/>
    <polyline points="502.5,506.875 502.375,504.625 501.75,502.125 499.25,496.25"/>
    <line x1="499.0" x2="488.625" y1="495.75" y2="477.75"/>
    <polyline points="488.0,476.75 483.5,468.75 477.5,457.0 472.625,445.75 469.375,436.5"/>
    <polyline points="468.625,434.0 465.75,422.5 464.625,415.875 463.625,404.625 463.5,396.0 464.125,386.25 465.75,375.375 468.875,363.0 471.0,356.125 477.125,341.25 486.125,324.625 492.0,315.75 498.875,306.5 506.875,297.0"/>
    <polyline points="516.125,287.5 526.5,278.25 538.25,269.375 551.125,261.375 564.875,254.625 579.25,249.75 593.875,247.125 608.125,247.25 621.625,250.25 633.625,256.375 643.75,265.25 651.75,276.75 657.5,290.125 660.875,304.75 662.25,320.0 662.0,335.375 660.25,350.375 657.5,364.625 654.0,378.0 650.0,390.25 645.75,401.5 641.375,411.625 637.0,420.75 632.625,429.125 624.5,443.25"/>
    <polyline points="620.625,449.375 607.5,468.875 602.0,476.375 593.375,489.0 590.0,494.5 584.875,504.125 582.25,510.75 580.625,517.0 579.75,522.875"/>
    <polyline points="579.625,524.875 579.75,530.75 580.25,534.625 582.125,542.25 584.25,548.25 587.0,554.25 591.625,562.625 600.75,576.25"/>
    <polyline points="602.5,578.625 616.625,596.875 637.375,621.5 652.375,640.0 658.625,648.25 668.0,662.125"/>
    <polyline points="670.875,667.125 673.625,672.5 678.375,684.375 680.0,690.875 681.0,698.125 681.0,706.0 679.875,714.75 676.875,724.625 671.5,735.875 662.875,748.625 649.625,763.25 630.25,779.75 602.5,798.125 563.875,817.375 512.375,835.375 447.125,848.0 371.625,849.125 295.25,833.125 231.0,798.125 189.375,750.25 171.625,700.0 171.125,656.875 179.0,625.875 189.0,607.625 197.625,601.125"/>
    <polyline points="204.25,604.375 209.125,615.25 219.25,651.625 227.25,672.875 238.625,693.125 253.875,710.25 272.5,723.0 293.375,730.5 315.5,733.0 337.375,731.375 357.75,726.5 376.25,719.625 392.125,711.75 405.5,703.5 416.375,695.375 425.125,687.75 431.75,680.625 436.875,674.125 440.625,668.125 443.125,662.75 444.875,657.625 446.0,652.875 446.625,648.375 447.0,640.0"/>
    <polyline points="447.125,635.875 447.125,628.0 447.625,620.5 448.625,613.125 450.375,606.125 452.625,599.5 456.875,590.25 461.875,582.0 465.25,577.0 468.75,572.5 477.25,562.75"/>
    <polyline points="478.875,561.125 486.375,553.875 493.0,548.375 499.75,543.625 504.5,541.0 507.875,539.625"/>
    <polyline points="508.625,539.375 513.0,538.625 515.0,538.625 518.25,539.25 520.75,540.25 524.875,543.0"/>
    <polyline points="525.5,543.5 528.0,545.75 533.0,551.5 538.25,559.25 541.625,565.125"/>
    <polyline points="542.25,566.375 545.0,571.875 547.5,578.125 550.125,587.0 550.875,591.0 551.375,595.125 551.625,601.875 550.75,609.25 549.5,614.375"/>
    <polyline points="548.625,617.125 546.125,622.625 542.625,628.25 540.375,631.125 535.0,636.875 528.125,642.5 524.125,645.125 514.75,650.0 509.625,652.125 498.0,655.375 491.75,656.375 485.375,656.875 478.875,657.0 472.375,656.375 466.0,655.375 459.875,653.625 454.125,651.375 448.875,648.5 444.125,645.125 440.125,641.25"/>
    <polyline points="436.75,637.125 434.0,632.625 432.125,627.875 430.75,623.125 430.125,618.25 430.0,613.375 430.375,608.625 432.375,599.375 435.625,590.875 439.625,583.0 444.125,575.875 453.125,563.75 467.125,547.375"/>
    <polyline points="468.75,545.5 475.0,538.5 484.25,527.375 489.0,520.875 492.625,514.625"/>
    <polyline points="493.0,513.75 494.875,508.625 495.5,504.5 495.375,500.5 494.5,496.375"/>
    <polyline points="494.375,495.75 493.125,492.0 490.25,485.5 484.0,473.125"/>
    <polyline points="483.375,471.875 476.875,458.875 471.25,445.625 468.0,436.25 464.375,422.0"/>
    <polyline points="463.75,418.75 462.5,407.75 462.125,394.875 462.375,390.0 463.625,379.5 466.125,367.5 468.0,360.875 473.25,346.5 476.875,338.5 481.25,330.25 486.5,321.375 492.625,312.125 500.0,302.625 508.5,292.875 518.25,283.125 529.375,273.625 541.75,264.75 555.25,256.875 569.625,250.375"/>
    <polyline points="584.625,246.0 599.625,244.125 614.125,245.125 627.625,249.375 639.375,256.625 649.0,266.875 656.375,279.5 661.375,293.75 664.125,309.25 664.75,325.0 663.875,340.75 661.625,355.875 658.375,370.125 654.625,383.25 650.375,395.375 646.0,406.25 641.5,416.125 637.0,425.0 632.75,433.0 624.625,446.75 617.375,457.875 608.0,471.25"/>
    <polyline points="605.375,475.0 598.375,485.0 592.875,493.5 588.75,501.0 585.625,507.75 584.125,512.125 582.375,520.25 582.0,526.25 582.75,534.0"/>
    <polyline points="583.125,535.875 584.0,539.75 586.0,545.625 590.75,555.75 594.5,562.0 602.25,573.0 607.875,580.125 616.625,590.0"/>
    <polyline points="619.0,592.625 629.625,603.375 635.75,609.0 642.25,614.75 653.375,623.5 661.875,629.25 671.375,635.0 682.25,640.25 688.375,642.625 702.375,646.375 710.5,647.5 719.625,647.875 729.875,647.5 741.625,645.75 754.875,642.25"/>
    <polyline points="770.25,636.625 787.75,627.75 807.625,614.875 829.875,596.625 853.5,571.375 876.625,537.75 895.875,495.25 905.625,444.625 900.25,390.125 875.875,338.0 834.5,295.0 783.25,264.875 731.25,246.75 685.625,237.125 624.625,228.375 609.25,224.625 602.25,220.25 602.25,215.375 607.875,210.875 617.75,207.5 630.375,206.375 644.5,208.375 658.5,214.25 671.375,224.125 682.125,237.875"/>
    <polyline points="689.875,254.625 694.75,273.75 696.75,293.875 696.375,314.0 694.0,333.5 690.125,351.75 685.5,368.5 680.375,383.5 674.875,396.75 669.5,408.375 659.0,427.5 649.5,442.0 641.0,453.25 633.625,462.25 612.125,486.125"/>
    <polyline points="610.25,488.5 605.25,495.0 600.375,503.125 598.625,507.0 596.75,512.75 595.75,518.375 595.75,525.875 596.625,531.375 598.375,536.875"/>
    <polyline points="599.125,538.75 603.0,546.125 606.875,551.625 613.625,559.0 619.75,564.375 624.625,567.875 630.0,571.25 639.375,575.875 646.75,578.5 655.0,580.375"/>
    <polyline points="659.5,581.125 669.625,581.625 681.25,580.75 687.75,579.5 694.625,577.625 702.0,575.0 709.875,571.375 718.125,566.75 726.75,560.875 735.625,553.625 744.625,544.75 753.375,534.0 761.5,521.5 768.5,507.0 773.625,490.875 776.125,473.375 775.5,455.125 771.25,436.875 763.0,419.375 751.375,403.625 736.625,390.125 719.875,379.375 702.25,371.375 684.5,365.75"/>
    <polyline points="667.5,362.25 651.625,360.5 637.5,360.0 625.0,360.5 614.0,361.5 596.625,364.375 584.0,367.875 579.125,369.625 575.0,371.375 568.375,374.75 563.5,377.875 559.625,380.875 554.125,386.375 548.75,392.375"/>
    <polyline points="547.75,393.5 543.125,398.125 540.375,400.25 535.125,403.0 531.125,403.625 528.875,403.25 526.875,402.25"/>
    <polyline points="526.375,401.875 524.75,400.125 523.125,397.0 522.5,394.0 522.25,389.25 523.125,383.625 524.0,380.625 527.625,372.625"/>
    <polyline points="528.625,371.0 532.125,366.25 537.875,360.75 541.125,358.5 544.5,356.75 549.625,355.25 551.375,355.125 554.5,355.5 556.125,355.875 558.875,357.375 561.125,359.5 562.125,360.875 563.5,364.125"/>
    <polyline points="564.125,365.875 564.75,372.0 564.125,378.75 561.5,388.0 557.375,396.875 553.625,402.75 549.5,408.125 542.5,415.125"/>
    <polyline points="541.0,416.25 536.875,419.25 532.75,421.375 527.5,423.0 525.125,423.25 522.75,423.25 518.25,422.125 516.25,421.125 514.375,419.75 511.75,417.0"/>
    <polyline points="511.0,416.0 508.375,410.75 506.875,406.0 506.25,402.25 506.0,393.625 506.5,388.625 509.0,377.625 511.25,371.5 514.25,365.125 518.0,358.625"/>
    <polyline points="520.25,355.25 525.5,348.75 531.5,342.375 538.375,336.75 542.125,334.25 550.0,330.25 558.125,327.875 562.25,327.375 566.125,327.375 570.0,327.875 573.5,329.0 576.875,330.625 579.875,332.875 582.5,335.625 584.75,338.75 586.625,342.375 588.0,346.375 589.0,350.75 589.625,355.25 589.625,364.875"/>
    <polyline points="589.125,369.75 588.25,374.625 585.75,384.375 582.375,393.625 578.5,402.25 572.0,414.0 565.125,424.125 556.25,435.25 547.875,443.875 540.25,450.625"/>
    <polyline points="538.375,452.0 535.0,454.5 528.625,458.375 524.25,460.375 518.875,462.125 512.75,462.75 508.25,462.125 505.125,461.0"/>
    <polyline points="504.0,460.5 501.0,458.75 497.0,455.625 491.375,449.0 488.625,444.75 485.125,438.0 481.25,427.375"/>
    <polyline points="480.625,425.0 479.375,419.75 478.0,410.875 477.5,400.5 477.625,396.625 478.25,388.375 479.875,379.25 482.375,369.0 484.25,363.5 489.125,351.625 492.25,345.25 500.25,331.875 505.25,324.875 511.0,317.75 517.375,310.75 524.625,303.75"/>
    <polyline points="532.625,297.0 541.375,290.75 550.625,285.25 560.5,280.625 570.75,277.25 581.0,275.25 591.25,275.0 600.875,276.5 609.75,279.875 617.625,285.125 624.25,292.0 629.5,300.5 633.375,310.125 635.875,320.5 637.0,331.5 637.0,342.625 636.0,353.75 634.125,364.625 631.75,375.0 628.75,384.875 625.5,394.125 618.375,410.875 614.75,418.25 607.375,431.5"/>
    <polyline points="603.875,437.25 600.5,442.75 591.0,456.75 566.625,490.375 560.25,501.0 556.0,510.0"/>
    <polyline points="555.375,511.75 553.5,518.125 552.75,522.75 552.5,530.25 553.375,537.625 555.75,546.75 556.875,550.0"/>
    <polyline points="557.5,551.625 569.0,580.125 570.625,584.875 573.625,595.125 575.625,606.75"/>
    <polyline points="575.75,609.875 575.875,613.25 575.5,620.25 574.0,627.75 572.875,631.75 571.375,635.875 569.25,640.125 566.75,644.625 563.625,649.25 559.875,653.875 555.375,658.75 550.0,663.625 543.625,668.375 536.25,673.125 527.875,677.75 518.375,681.875 507.75,685.625 496.0,688.625 483.5,690.75 470.25,691.625 456.875,691.25 443.375,689.375 430.625,685.875 418.875,680.875"/>
    <polyline points="408.375,674.375 399.75,666.875 393.0,658.375 388.25,649.375 385.25,640.25 383.875,631.125 383.875,622.25 385.125,614.0 387.125,606.25 389.75,599.125 392.75,592.625 396.0,586.625 399.5,581.25 406.375,571.875 409.75,567.875 419.25,557.375 436.375,539.25"/>
    <polyline points="438.375,537.0 441.875,532.875 447.625,525.0 452.75,516.0 455.375,509.125 457.0,502.5 457.5,497.5 457.5,492.625"/>
    <polyline points="457.375,490.875 456.5,484.125 455.375,478.875 453.75,473.375 449.375,461.25 440.375,439.0"/>
    <polyline points="439.25,436.125 435.875,426.5 431.75,411.25 430.125,402.25 428.625,386.25 428.625,380.125 429.625,366.375 430.875,358.5 432.625,350.0 435.125,340.5 438.625,330.25 443.25,319.0 449.25,306.5 456.875,292.875 466.5,278.125 478.625,262.125 493.5,245.25"/>
    <polyline points="511.5,227.875 532.875,210.75 557.5,195.0 584.875,182.25 614.0,174.125 643.125,172.625 670.25,178.875 693.375,193.25 710.875,214.75 722.25,241.5 727.75,270.875 728.625,300.625 726.0,328.875 721.25,354.375 715.375,376.75 709.125,395.875 702.875,411.75 696.875,424.875 691.375,435.625 686.375,444.25 681.875,451.25 677.75,456.75 674.0,461.125 670.5,464.625 664.25,469.5"/>
    <polyline points="661.25,471.25 653.125,474.75 635.875,480.0 627.125,483.875 623.125,486.125 617.75,490.0 613.125,494.25 609.375,498.875"/>
    <polyline points="608.25,500.375 606.25,503.625 603.5,510.25 602.375,515.375 602.125,522.125 602.875,527.375 604.375,532.5 606.75,537.5 610.0,542.625"/>
    <polyline points="611.25,544.25 615.625,549.25 619.125,552.375 623.25,555.5 627.75,558.375 632.875,561.0 638.625,563.375 645.125,565.375 648.75,566.125 656.5,567.0 660.875,567.125 670.125,566.5 675.25,565.625 680.625,564.25 686.375,562.5 692.25,560.0"/>
    <polyline points="698.5,556.875 705.0,553.0 711.625,548.25 718.25,542.5 724.875,535.625 731.25,527.625 737.125,518.5 742.125,508.25 746.0,496.875 748.375,484.75 749.0,471.875 747.375,458.875 743.375,446.0 737.125,433.875 728.625,422.875 718.375,413.25 706.625,405.125 694.0,398.875 681.125,394.25 668.375,391.125 656.0,389.375 644.25,388.625 633.5,388.75 623.5,389.5 606.5,392.5"/>
    <polyline points="599.25,394.375 586.75,398.5 581.5,400.625 572.5,404.875 561.625,410.875 541.75,423.0 532.75,427.375 526.5,429.25"/>
    <polyline points="525.125,429.5 521.125,429.625 518.5,429.375 513.875,427.75 510.75,425.625 508.0,422.75 506.25,420.375 504.75,417.625 502.875,412.75 501.5,407.0"/>
    <polyline points="501.125,404.875 500.75,400.25 501.0,392.5 502.375,383.625 505.125,373.75 508.0,366.5 511.875,359.0 514.125,355.125 519.625,347.25 522.75,343.375 530.0,335.875 534.0,332.375 538.375,329.125 542.875,326.125 547.625,323.5"/>
    <polyline points="552.5,321.25 557.5,319.625 562.5,318.5 567.5,318.125 572.25,318.375 576.875,319.25 581.125,320.875 585.0,323.25 588.375,326.375 591.375,330.125 593.75,334.375 595.625,339.125 597.0,344.25 597.75,349.625 598.125,355.375 597.25,367.0 596.25,372.875 593.25,384.375 589.375,395.125 584.875,405.125 579.875,414.25"/>
    <polyline points="577.375,418.5 572.375,426.25 567.375,433.125 560.25,442.0 553.5,449.5 547.375,455.75 540.0,462.375 532.0,468.5 527.75,471.125"/>
    <polyline points="526.5,472.0 522.75,473.875 518.25,475.625 513.125,476.625 507.625,476.25 505.125,475.5 501.75,473.875"/>
    <polyline points="501.0,473.375 496.875,470.375 493.625,467.125 489.5,462.0 486.125,457.0 483.625,452.625 480.25,445.75"/>
    <polyline points="479.375,443.875 476.875,437.75 475.375,433.125 473.875,428.125 472.0,419.5 471.0,413.125 470.5,406.0 470.375,398.125 470.875,389.25 472.25,379.375 473.375,374.0 476.75,362.25 479.0,355.875 481.875,349.125"/>
    <polyline points="485.25,342.0 489.25,334.5 494.0,326.75 499.625,318.75 506.0,310.625 513.5,302.25 521.875,294.125 531.25,286.125 541.5,278.75 552.75,272.125 564.625,266.75 576.875,262.875 589.25,260.875 601.375,261.0 612.75,263.625 623.125,268.625 631.875,275.875 639.0,285.25 644.25,296.25 647.75,308.5 649.625,321.375 649.875,334.625 648.875,347.75 646.875,360.5 644.125,372.625 640.75,384.0"/>
    <polyline points="637.0,394.625 633.125,404.375 629.125,413.25 621.0,428.875 617.125,435.625 606.375,452.875 587.125,480.25 579.5,491.625 575.25,498.875 571.875,505.5"/>
    <polyline points="571.0,507.625 568.875,513.625 567.875,517.5 566.75,524.875 566.625,528.5 567.5,537.5 568.625,542.875 571.0,550.375 572.5,554.125"/>
    <polyline points="573.25,556.125 575.875,562.25 588.375,588.0 593.25,599.5 597.5,612.625 598.375,616.25 599.5,624.125"/>
    <polyline points="599.875,628.25 599.625,637.25 597.75,647.25 596.0,652.625 593.5,658.375 590.25,664.5 585.875,670.875 580.375,677.5 573.5,684.5 564.875,691.75 554.375,699.0 541.625,706.25 526.625,713.0 509.25,719.125 489.5,723.875 467.75,726.75 444.875,727.25 421.5,724.625 399.25,718.75 379.125,709.625 362.5,697.5 349.875,683.5 341.375,668.375 336.75,653.25"/>
    <polyline points="335.5,638.75 336.625,625.5 339.5,613.75 343.375,603.75 347.875,595.25 352.625,588.125 357.25,582.375 361.875,577.625 366.25,573.75 370.375,570.5 374.375,567.875 384.875,562.25 405.25,553.5 410.25,551.0 417.25,546.875"/>
    <polyline points="419.375,545.375 423.5,542.375 429.125,537.625 433.875,532.75 438.125,527.75 441.5,522.75 445.125,516.0 446.5,512.75 448.75,504.5"/>
    <polyline points="449.0,502.875 449.375,499.5 449.375,494.5 448.75,487.75 447.625,482.5 445.5,475.25 442.5,467.375 437.625,456.75"/>
    <polyline points="436.5,454.5 426.25,433.25 422.0,423.5 417.75,412.25 415.125,403.625 412.875,393.75 411.25,382.5 410.75,376.125 410.625,369.25 410.875,361.625 413.125,344.125"/>
    <polyline points="415.5,333.875 418.875,322.5 423.625,309.625 430.125,295.375 438.75,279.25 450.0,261.375 464.625,241.75 483.25,220.375 506.5,197.875 534.75,175.625 568.0,155.25 605.375,139.625 644.75,132.125 682.875,135.5 715.875,151.25 741.0,178.5 756.75,214.0 763.625,253.375 763.875,292.5 759.625,328.5 753.0,359.625 745.625,385.5 738.25,406.25 731.625,422.25 725.625,434.375 720.5,443.25"/>
    <polyline points="715.875,449.375 711.75,453.375 707.875,455.625 704.125,456.625 700.375,456.625 696.625,456.0 692.5,454.875 679.0,450.375 669.0,448.0 658.375,446.5 653.0,446.25 642.375,446.5 632.25,448.0 627.375,449.125 618.25,451.875 609.75,455.375 602.25,459.125"/>
    <polyline points="598.75,461.25 592.25,465.375 586.375,469.75 578.875,476.125 572.5,482.375 567.125,488.375 562.75,494.125 558.125,501.25 554.125,509.5"/>
    <polyline points="553.5,511.0 551.25,518.5 550.375,525.75 550.375,528.625 550.875,534.25 551.625,538.5 554.125,547.375"/>
    <polyline points="554.625,548.875 567.125,580.125 570.875,592.125 572.5,600.25"/>
    <polyline points="573.0,603.125 573.5,612.5 573.375,615.875 572.375,623.0 570.375,630.625 566.75,638.75 561.25,647.5 557.625,652.0 553.125,656.625 548.0,661.25 542.0,665.875 535.0,670.375 527.0,674.75 518.0,678.75 508.0,682.25 497.0,685.125 485.25,687.125 472.875,688.125 460.25,687.875 447.625,686.25"/>
    <polyline points="435.5,683.25 424.25,678.75 414.125,673.0 405.625,666.125 398.875,658.25 393.875,649.875 390.625,641.25 388.875,632.625 388.5,624.125 389.25,616.0 390.875,608.375 393.125,601.375 395.875,594.875 399.0,588.875 405.625,578.375 412.25,569.625 418.625,562.125 434.625,544.75"/>
    <polyline points="436.875,542.375 444.375,533.5 447.5,529.375 452.625,521.875 454.625,518.25 457.0,513.0 459.25,506.375 460.375,499.875 460.625,496.625"/>
    <polyline points="460.625,495.0 460.625,491.75 459.875,485.125 457.375,474.625 452.5,460.875 447.0,446.875"/>
    <polyline points="446.0,444.25 442.875,435.75 438.75,422.5 436.875,414.875 435.25,406.375 433.75,391.375 433.625,385.625 434.25,372.875 436.625,357.875 438.625,349.375 441.375,340.125 445.125,329.875 449.875,318.875 456.0,306.75 463.75,293.5"/>
    <polyline points="473.5,279.375 485.5,264.25 500.0,248.375 517.375,232.25 537.625,216.75 560.75,202.625 586.25,191.5 612.875,184.75 639.5,183.875 664.125,190.0 685.125,203.25 701.25,222.75 712.0,247.0 717.625,273.75 718.875,301.125 716.875,327.375 712.75,351.625 707.375,373.125 701.5,391.75 695.375,407.625 689.625,420.875 684.125,432.0 674.375,448.75 666.25,460.125"/>
    <polyline points="662.75,464.25 656.375,470.75 650.75,475.25 641.25,481.375 633.125,486.0 626.25,490.5 623.25,492.875 618.25,498.0 615.25,502.125"/>
    <polyline points="614.375,503.5 612.375,507.875 611.125,512.375 610.625,516.875 610.875,521.375 612.5,527.375 614.625,531.75 617.625,536.125 621.625,540.125"/>
    <polyline points="623.125,541.5 626.5,544.0 630.25,546.25 637.0,549.125 642.25,550.625 651.125,551.875 657.875,551.75 661.5,551.375 669.375,549.75 677.75,546.75 682.25,544.625 686.75,542.0 695.875,535.25 700.5,531.0 704.875,526.125"/>
    <polyline points="709.0,520.625 712.75,514.375 716.0,507.625 718.625,500.25 720.375,492.5 721.125,484.25 720.75,475.875 719.125,467.5 716.25,459.375 712.0,451.625 706.625,444.375 700.25,438.0 692.875,432.375 684.875,427.75 676.375,424.125 667.75,421.5 659.0,419.625 650.5,418.625 642.125,418.25 634.25,418.5 626.625,419.25 612.875,422.0 601.0,425.625 595.625,427.75"/>
    <polyline points="590.625,429.875 581.625,434.375 570.25,441.125 560.875,447.375 534.875,465.875 527.25,470.375"/>
    <polyline points="525.875,471.0 524.625,471.75 517.5,474.375 513.25,475.0 510.375,475.0 507.625,474.625 505.0,473.875 500.625,471.625"/>
    <polyline points="499.75,471.125 495.625,467.625 493.125,465.0 488.0,458.375 482.875,449.625 478.75,440.375"/>
    <polyline points="477.875,438.375 474.125,426.25 471.875,414.375 471.0,403.625 471.125,395.5 471.875,386.375 473.625,376.25 474.875,370.75 478.75,358.75 481.25,352.125 484.375,345.25 492.5,330.5"/>
    <polyline points="497.75,322.75 503.75,314.75 510.625,306.5 518.5,298.375 527.375,290.5 537.125,282.875 547.75,276.0 559.25,270.125 571.125,265.625 583.375,262.875 595.375,262.125 607.0,263.5 617.625,267.375 627.0,273.5 634.75,281.75 640.875,291.875 645.125,303.375 647.625,315.875 648.625,328.75 648.25,341.75 646.75,354.5 644.375,366.75 641.375,378.375 637.875,389.25 630.125,408.5"/>
    <polyline points="626.125,417.0 622.125,424.75 614.375,438.375 607.125,449.75 600.625,459.375 587.25,478.125 577.75,492.375 572.375,501.75 568.75,510.125"/>
    <polyline points="568.0,512.125 566.875,515.875 565.625,523.25 565.375,526.875 565.625,534.0 567.75,544.75 570.25,552.125 572.625,557.875"/>
    <polyline points="573.5,559.875 587.5,590.25 589.875,595.875 593.125,605.125 594.875,612.0 596.25,619.25 596.875,627.375 596.75,631.625"/>
    <polyline points="596.375,636.25 595.625,641.0 594.375,646.0 592.5,651.375 590.0,657.0 586.625,662.875 582.375,669.125 576.875,675.5 570.0,682.25 561.625,689.125 551.375,696.125 539.125,703.0 524.75,709.375 508.125,715.125 489.5,719.5 469.0,722.25 447.375,722.75 425.5,720.375 404.5,715.0 385.5,706.625 369.375,695.625 357.0,682.5 348.375,668.375 343.5,654.0 341.75,640.125 342.375,627.25"/>
    <polyline points="344.75,615.75 348.25,605.625 352.375,597.0 356.875,589.625 361.5,583.5 366.0,578.375 370.25,574.125 378.375,567.5 382.0,565.0 388.875,560.75 408.5,550.25 417.625,544.5 423.5,540.0"/>
    <polyline points="425.375,538.375 428.75,535.25 434.625,528.75 438.125,523.875 441.875,517.375 443.375,514.0 445.0,509.125 446.5,501.0 446.625,497.625"/>
    <polyline points="446.625,496.0 446.5,492.625 445.75,487.625 444.625,482.375 442.25,475.125 436.125,461.125 428.875,447.375"/>
    <polyline points="427.5,444.75 420.125,430.75 415.375,421.0 412.125,413.625 409.0,405.5 406.0,396.25 404.75,391.125 402.625,379.75 401.875,373.375 401.5,366.375 401.5,358.625 402.125,350.125 403.375,340.625 405.5,330.0 408.875,318.0 413.625,304.5"/>
    <polyline points="420.375,289.25 429.5,272.0 441.625,252.5 457.625,230.75 478.375,206.875 504.75,181.625 537.25,156.375 575.75,133.625 619.125,117.125 664.125,110.875 706.625,118.625 741.75,141.5 766.125,177.125 779.25,220.625 782.75,266.0 779.75,308.75 773.125,346.0 765.25,376.75 757.25,401.0 750.125,419.375 743.875,432.625 738.625,441.625 734.0,447.375 729.875,450.25 726.0,451.125 722.0,450.375"/>
    <polyline points="717.75,448.5 702.25,439.75 696.0,436.75 689.375,434.0 682.375,431.625 675.125,429.75 667.875,428.375 660.375,427.5 653.125,427.125 646.0,427.25 639.0,427.75 632.375,428.75 626.0,430.0 614.25,433.25 603.875,437.25 594.625,441.75 586.375,446.25 575.875,453.25"/>
    <polyline points="572.75,455.5 564.375,461.875 553.125,471.5 541.375,482.25 530.25,493.0"/>
    <line x1="529.375" x2="516.875" y1="493.875" y2="505.625"/>
    <polyline points="516.5,505.875 513.5,508.25 512.25,508.75 511.125,508.75 510.125,508.25 507.125,504.875"/>
    <line x1="507.0" x2="502.25" y1="504.625" y2="497.75"/>
    <line x1="501.875" x2="492.5" y1="497.375" y2="483.0"/>
    <polyline points="492.0,482.125 486.75,473.5 481.125,463.375 474.875,450.0"/>
    <polyline points="474.0,448.0 471.5,441.625 469.125,434.375 466.25,423.0 464.625,413.0 463.875,401.25 464.0,392.25 464.375,387.25 466.0,376.5 468.875,364.375 473.625,350.625"/>
    <polyline points="476.875,343.125 480.75,335.125 485.5,326.75 491.125,318.0 497.75,308.875 505.375,299.5 514.25,290.0 524.375,280.75 535.75,271.75 548.25,263.625 561.75,256.625 575.875,251.375 590.375,248.25 604.625,247.75 618.25,250.125 630.5,255.375 641.0,263.625 649.375,274.5 655.625,287.25 659.5,301.625 661.375,316.625 661.5,331.875 660.125,346.875 657.625,361.25 654.25,374.75 650.375,387.25"/>
    <polyline points="646.25,398.625 641.875,409.0 637.5,418.375 629.0,434.5 617.375,453.25 591.5,490.875 585.75,501.0 583.5,505.625 581.875,510.0"/>
    <polyline points="581.125,512.125 580.0,516.25 579.125,522.25 578.875,528.125 579.375,533.875 581.125,541.625 583.125,547.5 585.75,553.5 590.25,561.875"/>
    <polyline points="591.5,564.0 595.75,570.75 602.375,580.25 610.0,590.5 631.125,617.5 641.75,632.0 644.375,636.0"/>
    <polyline points="647.125,640.125 652.375,648.875 657.125,658.625 659.25,663.875 661.0,669.5 662.375,675.5 663.25,682.0 663.375,689.125 662.5,697.0 660.25,705.625 656.25,715.25 649.875,726.0 640.375,738.0 626.625,751.5 607.375,766.375 581.125,782.375 546.125,798.375 501.125,812.625 446.25,822.0 384.5,822.25 322.375,809.625 268.75,783.125 230.875,746.0 211.0,705.0"/>
    <polyline points="205.875,667.125 209.75,636.625 217.625,615.375 226.125,602.875 233.625,598.0 239.75,599.5 244.875,606.0 249.75,616.0 255.0,628.375 261.375,641.75 269.5,655.0 279.625,667.0 291.75,676.875 305.625,684.0 320.625,688.25 336.25,689.75 351.75,688.75 366.75,685.75 380.75,681.25 393.625,676.0 405.0,670.125 415.125,664.0 423.875,658.125 431.5,652.25 438.0,646.75 443.5,641.625"/>
    <polyline points="448.25,636.875 455.625,628.375 461.125,621.0 467.125,611.875 475.125,597.75 479.75,590.375 483.125,585.625 488.75,579.125"/>
    <polyline points="489.875,578.0 493.125,575.0 497.5,571.75 503.75,568.5 508.5,567.125 510.375,566.875 514.75,567.125"/>
    <polyline points="515.625,567.25 519.625,568.625 522.625,570.5 525.5,573.0 527.375,575.25 529.75,578.875 532.125,584.25"/>
    <polyline points="532.5,585.375 533.75,590.5 534.125,596.25 533.75,600.875 532.0,607.5 530.5,610.875 527.25,616.125 522.75,621.125 519.0,624.25"/>
    <polyline points="516.875,625.75 509.5,629.75 504.0,631.625 498.0,633.0 491.75,633.5 488.5,633.375 482.375,632.625 479.375,631.75 473.875,629.5 471.375,628.0 469.125,626.375 465.375,622.375 463.875,620.125 461.625,615.375 460.5,610.125 460.375,607.5"/>
    <polyline points="460.375,604.875 461.125,599.625 462.5,594.375 464.5,589.375 468.25,582.375 472.5,576.125 478.5,568.875 485.75,561.5 491.125,556.875"/>
    <polyline points="492.5,555.875 498.5,551.625 501.75,549.75 505.75,548.0 511.25,546.5 515.375,546.375 516.875,546.625"/>
    <polyline points="517.625,546.75 521.375,548.0 525.625,550.625 530.5,555.125 535.375,561.25"/>
    <polyline points="536.0,562.25 541.5,571.625 544.5,578.875 546.5,585.5 547.625,591.125 548.25,599.125 548.125,601.375"/>
    <polyline points="548.0,603.625 546.75,610.625 545.125,615.5 542.75,620.625 539.5,625.875 535.125,631.25 532.5,633.875 526.25,638.875 522.625,641.375 514.375,645.75 504.75,649.25 499.5,650.625 494.0,651.625 488.375,652.125 482.625,652.25 476.875,652.0 471.25,651.125"/>
    <polyline points="465.75,649.875 460.5,648.0 455.625,645.75 451.25,642.875 447.375,639.75 444.0,636.125 441.25,632.25 439.125,628.25 437.625,624.0 436.625,619.625 436.125,615.25 436.125,610.875 437.375,602.25 438.5,598.125 441.5,590.375 445.25,583.125 449.25,576.5 455.625,567.75 459.75,562.625"/>
    <polyline points="461.75,560.25 471.0,549.625 488.125,531.125 493.875,524.5"/>
    <polyline points="494.5,523.75 499.5,517.25 502.0,512.875 502.875,510.375"/>
  </g>
</svg>
