<?xml version="1.0" encoding="utf-8" ?>
<svg xmlns="http://www.w3.org/2000/svg" xmlns:cc="http://creativecommons.org/ns" xmlns:dc="http://purl.org/dc/elements/1.1/" xmlns:ev="http://www.w3.org/2001/xml-events" xmlns:inkscape="http://www.inkscape.org/namespaces/inkscape" xmlns:rdf="http://www.w3.org/1999/02/22-rdf-syntax-ns" xmlns:sodipodi="http://sodipodi.sourceforge.net/DTD/sodipodi-0.dtd" xmlns:xlink="http://www.w3.org/1999/xlink" baseProfile="tiny" height="27.09333333cm" version="1.2" viewBox="0 0 1024.0 1024.0" width="27.09333333cm">
  <metadata>
    <rdf:RDF>
      <cc:Work>
        <dc:format>image/svg+xml</dc:format>
        <dc:source>vpype read './original_svgs/Strange Attractors #321.svg' linemerge linesimplify write './Strange Attractors #321.svg'
</dc:source>
        <dc:date>2024-08-05T01:35:48.161259</dc:date>
      </cc:Work>
    </rdf:RDF>
  </metadata>
  <defs/>
  <g fill="none" id="layer1" inkscape:groupmode="layer" inkscape:label="1" stroke="black" stroke-width="0.7mm" style="display:inline">
    <polyline points="424.25,484.125 434.0,459.5 438.75,438.0 439.125,418.875 435.625,401.25 428.75,384.875 418.875,369.25 406.25,354.5 391.25,340.5 374.375,327.875 356.5,317.0 338.375,308.625 320.875,303.625 305.375,302.75 292.75,306.25 283.625,314.25 278.5,326.5 277.25,342.0 279.5,359.875 284.375,379.125 291.125,398.5 299.25,417.25 307.875,434.875 316.75,451.125 325.375,465.625 333.75,478.375"/>
    <polyline points="341.5,489.625 348.75,499.25 361.75,514.375 372.75,525.25 382.0,532.75 389.875,537.875 399.75,542.5 405.25,544.375 412.25,546.0 424.75,548.0"/>
    <polyline points="425.875,548.25 427.75,548.75 430.25,550.125 431.0,550.875 431.25,551.75 431.125,553.5 430.125,555.5 428.125,557.875 421.125,564.125"/>
    <polyline points="419.5,565.375 408.625,573.25 391.75,584.375 351.75,609.25 326.5,624.375 307.125,635.5 297.125,641.125 277.75,651.125"/>
    <polyline points="269.125,655.0 261.875,657.5 256.5,658.25 253.625,657.0 253.5,653.375 256.125,647.375 261.625,639.0 269.75,628.625 279.75,616.75 291.25,603.75 303.5,590.25 328.5,563.75 351.75,540.125 371.75,520.625 388.5,505.375 402.125,493.875 413.375,485.5 422.625,479.625 426.75,477.5"/>
    <polyline points="430.5,475.625 440.25,472.0 448.125,470.25 454.75,469.375 471.75,468.25 476.75,466.75"/>
    <polyline points="477.5,466.375 479.625,465.0 481.125,463.0 481.75,461.5 482.125,459.75 481.875,455.5 480.625,451.5 478.375,446.75 476.25,443.125 471.875,437.0"/>
    <polyline points="470.0,434.75 465.875,430.0 458.0,422.25 448.25,414.0 436.625,405.75 432.375,403.125 419.375,396.375 410.625,393.25 406.5,392.25 402.5,391.625 398.875,391.625 395.5,392.0 392.625,392.875 390.125,394.375 388.25,396.25 386.75,398.75"/>
    <polyline points="385.875,401.625 385.5,404.875 385.625,408.5 386.25,412.375 388.875,420.625 390.75,425.0 395.5,433.625 401.125,441.875 407.375,449.625 410.625,453.125 417.25,459.625 423.875,465.375 430.375,470.25 436.75,474.5 448.375,481.0"/>
    <polyline points="451.0,482.25 461.0,486.375 473.5,490.125 478.75,491.25 484.875,492.125 489.0,492.5 494.75,492.5"/>
    <polyline points="495.75,492.375 499.625,491.875 502.875,491.0 506.875,488.875 510.0,485.75 511.875,482.125"/>
    <polyline points="512.125,481.25 512.625,479.5 513.0,476.25 512.875,472.5 512.125,468.0 511.125,464.375 508.75,458.25 506.25,453.25 501.0,444.5 496.125,437.625 489.75,429.625"/>
    <polyline points="485.875,425.125 476.625,415.25 471.125,409.875 458.125,398.125 442.375,385.5 433.375,378.875 423.75,372.375 413.625,366.125 403.0,360.25 392.125,355.0 381.375,350.75 370.875,347.75 361.0,346.125 352.125,346.375 344.625,348.375 338.75,352.25 334.5,357.875 332.0,365.25 331.375,373.875 332.25,383.625 334.5,394.0 338.0,404.625 342.375,415.375"/>
    <polyline points="347.5,425.875 353.0,435.875 358.875,445.25 364.875,454.0 370.875,462.0 376.75,469.25 382.5,475.75 388.125,481.625 398.625,491.375 408.25,499.0 412.75,502.125 417.0,504.875 424.75,509.25 431.75,512.75 440.875,516.5 453.125,520.25"/>
    <polyline points="455.125,520.875 466.375,523.625 474.5,526.0 477.5,527.375 479.375,528.875"/>
    <polyline points="479.75,529.125 480.625,530.625 480.875,531.75 480.625,534.625 480.75,535.25 481.25,535.5"/>
    <polyline points="481.5,535.625 482.875,535.375 486.5,533.875 494.0,530.0 561.5,491.5 600.0,470.375"/>
    <polyline points="614.375,462.875 643.375,448.875 656.875,443.125 669.0,438.875 679.25,436.25 687.0,435.5 692.25,436.75 695.0,440.0 695.25,444.75 693.375,450.875 689.875,457.875 685.0,465.25 679.375,472.75 666.875,487.25 654.25,499.625 642.5,509.375 637.125,513.375 627.125,519.5 618.5,523.625 614.5,525.125"/>
    <polyline points="610.75,526.25 607.25,527.125 601.0,528.0 595.25,528.125 587.875,527.375 579.875,525.25 574.75,523.25 568.125,519.75 563.25,516.125"/>
    <polyline points="562.375,515.375 559.75,512.5 557.875,509.625 556.75,506.5 556.25,503.375 556.25,499.875 556.875,494.875"/>
    <polyline points="557.0,493.75 558.25,482.875 558.0,475.25 556.75,467.75 553.625,458.0 549.75,449.75 543.875,439.25 539.875,433.0 528.625,417.875"/>
    <polyline points="521.0,408.75 511.75,398.125 500.375,386.125 486.625,372.5 469.875,356.875 449.875,339.625 426.25,320.625 398.75,300.625 368.0,280.5 334.75,262.0 300.875,247.5 269.125,239.625 242.375,240.75 223.375,252.125 213.375,273.125 212.0,301.75 217.5,335.0 227.75,369.625 240.375,403.125 253.625,434.0 266.25,461.375 277.75,485.125 296.25,521.75 309.5,546.75"/>
    <polyline points="314.5,555.625 318.875,562.75 322.75,568.25 326.25,572.375 329.375,575.25 332.5,577.25 335.5,578.25 338.625,578.625 341.75,578.5 348.25,576.625 355.25,573.375 385.375,556.25 403.0,547.375"/>
    <polyline points="406.25,545.875 418.125,541.375 430.5,537.875 436.625,536.75 443.375,536.125 449.875,536.25 453.5,537.0"/>
    <polyline points="454.25,537.25 456.125,538.0 457.625,539.375 458.125,541.5 457.75,543.0 456.875,544.625 453.375,548.875"/>
    <polyline points="452.75,549.5 449.75,552.375 438.0,561.875 444.0,558.25"/>
    <polyline points="447.375,556.125 562.0,482.375 597.875,459.75 640.5,433.375 688.75,404.75 739.0,376.5 786.0,353.375 823.125,340.0 845.375,339.75 851.75,352.875 845.5,376.25 831.5,405.375 798.75,466.625 785.0,494.375 774.25,519.125 766.375,541.0 760.75,560.0 756.75,576.5"/>
    <polyline points="753.625,590.375 750.75,601.75 747.375,610.75 743.125,617.25 737.875,621.25 731.375,622.875 723.625,622.125 714.875,619.5 705.375,615.125 695.375,609.5 685.125,602.875 674.875,595.625 655.5,580.75 616.625,548.625 605.125,539.5 595.5,532.25 587.375,526.75 583.75,524.625"/>
    <polyline points="580.375,522.75 574.375,519.75 569.0,517.625 564.375,516.125 558.125,514.875 552.75,514.25 546.5,514.125 535.625,515.125"/>
    <polyline points="534.5,515.25 527.625,516.5 519.125,518.875"/>
    <polyline points="532.0,515.625 523.5,517.5 518.0,519.25 529.0,513.875"/>
    <polyline points="530.5,513.125 554.125,501.375 574.75,491.75 591.875,485.125 597.5,483.5 601.875,482.75"/>
    <polyline points="603.5,482.75 605.75,483.375 606.25,484.0 606.5,484.75 605.75,486.875 602.375,490.875 596.875,495.375 592.625,498.25 583.125,503.375 575.875,506.5 566.5,509.625"/>
    <polyline points="564.375,510.25 556.125,512.25 550.625,513.25 541.125,514.625 527.375,516.0"/>
    <polyline points="526.5,516.125 517.875,517.5 514.25,518.375 511.625,519.375"/>
    <polyline points="511.25,519.5 506.125,522.375 504.25,524.25 504.5,524.5 505.125,524.375 509.125,522.875 523.625,515.5"/>
    <polyline points="526.25,514.125 558.75,497.125 582.25,485.5 594.75,479.75 606.75,474.75 617.375,471.125 625.75,469.375 628.875,469.25 631.25,469.625 632.75,470.625 633.5,472.0 633.375,473.875"/>
    <polyline points="632.75,476.0 629.5,481.0 627.125,483.75 621.375,489.375 611.125,497.125 604.0,501.625 593.5,506.875 583.75,510.625 572.25,513.625 567.125,514.5 560.25,515.125"/>
    <polyline points="558.125,515.25 549.0,515.25 540.5,514.5 535.25,513.625 528.5,512.0"/>
    <polyline points="528.0,511.75 525.5,510.875 523.5,509.75 521.875,508.25 521.375,507.375 521.125,506.25 521.25,504.125 523.0,498.625"/>
    <polyline points="523.125,498.125 524.875,492.375 525.875,486.5 526.0,479.75 525.625,476.875"/>
    <polyline points="525.5,475.375 524.375,470.125 522.25,463.875 520.125,458.75 515.25,449.625 507.625,438.125 495.75,423.25 484.5,411.0 469.875,396.75 451.125,380.625 440.125,371.875 428.0,363.0"/>
    <polyline points="414.75,354.0 400.625,345.375 385.875,337.5 370.875,330.75 356.125,325.75 342.25,323.0 329.875,322.75 319.625,325.625 311.75,331.5 306.75,340.125 304.5,351.375 304.75,364.375 307.375,378.625 311.75,393.5 317.375,408.375 324.0,422.875 331.125,436.5 338.5,449.0 345.875,460.5 353.125,470.875 360.0,480.0 366.625,488.0 373.0,495.0 378.875,501.0 389.625,510.75"/>
    <polyline points="394.5,514.625 407.25,523.0 417.75,528.25 426.25,531.5 446.125,536.75 450.75,538.5"/>
    <polyline points="451.5,538.875 452.625,539.625 454.0,541.25 454.25,543.125 453.875,544.625 452.0,547.75 446.875,552.875"/>
    <polyline points="452.625,539.25 453.625,540.0 454.625,541.625 454.625,543.125 454.125,544.75 452.75,547.125 451.0,549.125 446.0,553.75 438.75,559.375 426.875,567.75 388.125,593.0"/>
    <polyline points="382.25,596.75 318.5,638.375 168.5,737.75 123.375,767.125 80.0,793.875 47.875,810.5 38.375,807.5 58.0,778.875 159.25,662.0 213.875,594.125 258.125,530.875 288.625,475.0 305.375,427.125 310.25,386.25 305.5,352.0 293.5,324.125"/>
    <polyline points="277.0,303.0 259.125,289.375 242.375,284.375 229.375,288.125 221.75,300.25 219.875,319.375 223.25,343.375 230.625,370.0 240.75,397.125 252.125,423.0 263.75,447.0 275.125,468.25 285.625,486.75 295.125,502.375 303.75,515.625 311.5,526.5 318.375,535.375 324.625,542.375 330.25,548.0 335.5,552.25 340.375,555.5 345.0,557.75 349.375,559.375 353.625,560.25 361.625,560.625"/>
    <polyline points="365.5,560.25 373.0,558.875 380.125,556.875 399.75,550.125 413.5,545.75 422.625,543.375 433.25,541.75"/>
    <polyline points="434.75,541.75 438.625,541.625 441.625,542.0 444.5,542.875 445.875,543.875 446.5,545.125 446.375,547.25 444.5,550.375"/>
    <polyline points="443.875,551.125 439.625,555.375 429.375,563.375 411.125,575.75 382.5,594.25"/>
    <polyline points="375.625,598.625 276.375,661.25 236.75,685.25 216.625,696.75 198.25,706.5 183.625,712.625 175.0,713.5 174.25,707.5 181.875,694.25 197.25,674.125 218.375,648.75 267.5,591.25 290.875,563.0 311.625,536.875 329.25,513.375 343.625,492.75 355.0,475.0"/>
    <polyline points="363.625,459.75 369.875,447.0 374.25,436.25 377.0,427.5 378.625,420.25 379.375,414.625 379.5,410.375 378.625,405.25 378.0,404.25 377.625,404.25 377.375,406.5 378.5,411.375 381.25,418.0 385.25,425.75 387.75,429.875 393.5,438.0 403.375,449.75 406.875,453.25"/>
    <polyline points="410.375,456.625 417.375,462.875 424.25,468.375 434.125,475.0 443.375,480.25 449.125,483.125 461.75,488.125 468.375,490.25 477.875,492.5"/>
    <polyline points="479.5,492.75 484.125,493.5 494.25,494.125 498.25,493.875 501.75,493.25 506.125,491.625"/>
    <polyline points="506.75,491.25 509.125,489.75 510.625,488.25 512.75,485.125 513.375,483.625 514.5,479.0 514.625,475.5 514.25,471.5"/>
    <polyline points="514.0,469.875 512.625,464.75 511.125,460.625 509.0,456.0 504.375,447.625 499.875,440.875 494.125,433.25 486.625,424.375 477.0,414.125 464.75,402.625 457.625,396.375 441.125,383.125 431.75,376.375 421.625,369.625"/>
    <polyline points="411.0,363.125 399.875,357.0 388.625,351.75 377.375,347.5 366.5,344.625 356.5,343.375 347.5,343.875 340.125,346.5 334.375,351.0 330.5,357.5 328.5,365.5 328.25,375.0 329.75,385.375 332.5,396.375 336.5,407.5 341.375,418.625 346.75,429.375 352.625,439.5 358.75,449.0 364.875,457.75 371.0,465.75 377.0,473.0 382.75,479.375 388.375,485.125 398.875,494.625"/>
    <polyline points="403.75,498.5 417.0,507.625 424.75,511.875 431.5,515.125 440.5,518.625 448.0,521.0 467.375,526.125"/>
    <polyline points="468.375,526.375 473.875,528.375 476.5,530.125 477.625,532.0 477.875,534.0"/>
    <polyline points="477.75,534.25 477.5,537.0 478.0,537.375 479.0,537.375 483.625,535.5 491.875,531.125"/>
    <polyline points="494.875,529.375 547.125,499.125 585.375,477.5 600.5,469.125 632.75,452.375 648.875,444.625 664.125,438.0 677.75,433.0 689.125,430.125 697.75,429.5 703.25,431.25 705.75,435.125 705.5,441.0 702.875,448.125 698.5,456.375 692.875,464.875"/>
    <polyline points="686.375,473.5 679.625,481.75 665.875,496.625 653.125,508.5 641.75,517.5 636.625,520.875 627.5,526.125 619.5,529.375 615.875,530.375 609.25,531.625 606.25,531.875 600.625,531.875 595.75,531.25 591.25,530.25 585.25,528.25"/>
    <polyline points="583.5,527.625 575.875,523.875 571.125,520.75 567.375,517.75 563.5,513.25 562.25,511.0 561.5,508.75"/>
    <polyline points="561.25,508.0 560.875,504.875 561.25,500.625 564.625,487.125 565.625,480.75"/>
    <polyline points="565.875,478.75 565.5,469.625 564.375,463.75 562.125,456.5 560.375,452.25 555.375,442.125 547.125,428.875 534.0,411.5 524.875,400.625 513.5,388.0 499.375,373.25 481.875,356.375 460.375,337.0 434.375,315.25 403.375,291.5 367.625,267.125 328.125,244.0 287.375,225.25"/>
    <polyline points="248.75,214.875 216.75,216.125 195.0,231.0 185.25,258.5 186.25,295.125 195.375,336.375 209.125,378.0 224.375,417.0 239.25,451.875 272.75,528.25 290.125,569.875 293.875,578.25 297.0,584.375 300.0,588.75 303.0,591.5 306.25,592.75 309.75,592.75 313.625,591.75 317.875,589.875 327.75,583.875 333.125,580.125"/>
    <polyline points="338.875,576.125 368.75,554.625 380.25,547.0 396.375,537.375 406.125,532.25 415.0,528.25 427.0,523.625 440.5,519.875 451.625,518.0"/>
    <polyline points="454.125,517.75 462.75,517.125 473.0,517.25 482.375,518.25 487.75,519.5"/>
    <polyline points="488.375,519.625 491.5,521.0 492.875,522.0 493.875,523.625 494.0,525.0"/>
    <polyline points="494.0,525.25 493.375,528.75 493.875,529.125 495.25,529.0"/>
    <polyline points="495.75,528.75 497.125,528.375 501.375,526.375 508.75,522.625 561.0,494.25 595.5,476.375"/>
    <polyline points="604.875,471.875 614.125,467.625 631.375,460.625 639.0,458.125 645.625,456.5 651.0,455.75 655.0,456.125 657.625,457.375 658.875,459.5 658.875,462.375 657.75,466.0 655.625,470.0 649.0,478.75 640.625,487.5 631.375,495.375 622.0,502.125 613.125,507.625 600.75,513.25"/>
    <polyline points="597.0,514.625 590.125,516.625 583.75,517.875 578.125,518.5 570.625,518.625 564.25,518.125 557.25,516.875 550.5,514.75 546.25,512.875"/>
    <polyline points="545.375,512.5 541.0,509.5 537.875,506.0 536.625,503.125 535.875,498.625"/>
    <polyline points="535.875,498.0 535.875,481.75 534.5,473.375 531.75,464.375"/>
    <polyline points="530.625,461.625 527.75,455.5 523.75,448.25 514.625,434.625 505.5,423.125 499.75,416.5 485.375,401.25 476.375,392.5 454.25,372.75 440.75,361.875 425.625,350.625 409.125,339.25 391.125,328.125 372.25,318.0 353.125,309.625 334.5,303.75 317.375,301.375 302.875,303.0 291.625,309.0"/>
    <polyline points="284.125,319.25 280.625,333.125 280.875,349.75 284.25,368.25 289.875,387.5 297.25,406.5 305.5,424.75 314.125,441.625 322.75,456.875 331.25,470.625 339.25,482.625 346.75,493.0 353.75,502.0 360.25,509.625 371.625,521.5 376.75,526.125 385.625,533.0 389.5,535.625 396.625,539.625 402.625,542.25 407.875,544.0"/>
    <polyline points="410.25,544.625 425.25,547.625 429.0,548.75 430.75,549.75 431.625,551.125 431.875,552.125 431.0,554.5"/>
    <polyline points="430.625,555.25 427.875,558.5 425.75,560.5 421.75,563.875 414.125,569.5 392.5,584.0 366.5,600.375"/>
    <polyline points="359.75,604.5 336.125,618.875 307.5,635.625 297.25,641.375 277.25,651.75 268.375,655.75 260.75,658.5 255.125,659.5 251.875,658.5 251.5,655.0 254.0,649.0 259.5,640.625 267.5,630.25 277.75,618.125 289.375,604.875 314.75,577.375 339.5,551.375 361.625,529.25"/>
    <polyline points="371.25,519.75 388.125,504.25 401.75,492.625 413.0,484.125 422.25,478.125 433.375,472.625 436.5,471.375 442.25,469.75 447.25,468.625 453.75,467.875 464.0,467.375"/>
    <polyline points="465.375,467.25 470.375,466.75 474.375,465.75 476.0,465.0 478.0,463.5 479.375,461.625 480.25,458.25 479.5,452.75"/>
    <polyline points="479.0,451.375 476.125,445.25 473.875,441.625 469.375,435.625 463.25,428.875 455.5,421.5 449.25,416.25 442.375,411.0 434.75,406.0 426.625,401.5 418.375,397.75"/>
    <polyline points="414.375,396.25 406.625,394.375 403.125,394.125 399.75,394.25 396.875,394.75 394.375,395.875 392.25,397.375 390.625,399.375 389.375,401.75 388.75,404.625 388.5,407.75 388.75,411.125 390.625,418.625 392.25,422.625 394.0,426.625 398.625,434.75 404.0,442.375 410.0,449.625 416.25,456.125 419.5,459.0"/>
    <polyline points="422.625,461.875 428.875,466.875 438.0,473.125 443.75,476.5 451.875,480.5 459.25,483.625 467.875,486.5 477.25,488.75 482.0,489.5"/>
    <polyline points="483.5,489.75 490.125,490.125 496.5,489.625 501.625,488.125 505.125,486.125 506.75,484.5"/>
    <polyline points="507.25,483.875 508.875,481.125 510.0,477.5 510.25,471.75 509.875,468.875 508.0,462.125 505.375,455.625 501.0,447.875"/>
    <polyline points="499.125,444.875 491.625,434.5 480.625,421.875 465.25,406.625 451.875,395.125 436.0,383.0 427.0,377.0 417.625,371.0 407.75,365.375 397.75,360.375 387.5,356.125 377.625,352.875 368.25,351.0 359.625,350.5 352.125,351.625 345.875,354.5 341.125,359.125 338.125,365.25"/>
    <polyline points="336.625,372.625 336.75,381.25 338.125,390.625 340.875,400.5 344.5,410.5 349.0,420.375 354.0,430.0 359.375,439.25 364.875,447.75 370.625,455.75 376.375,463.125 387.5,475.75 392.875,481.125 403.0,490.25 412.25,497.25 420.75,502.75 431.875,508.75 441.375,512.875"/>
    <polyline points="444.25,513.875 451.875,516.5 471.0,521.375 480.625,524.375"/>
    <polyline points="481.25,524.625 482.25,525.125 484.75,527.25 485.5,529.25 485.625,532.75 486.875,533.0 488.625,532.5 492.75,530.625 510.25,521.375"/>
    <polyline points="514.375,519.0 574.5,485.375 597.5,473.125 622.0,461.0 634.125,455.5 645.5,450.75 655.75,447.125 664.625,444.75 671.625,443.875 676.625,444.5 679.625,446.625 680.625,450.0 679.875,454.625 677.625,460.0 674.0,465.875 669.625,472.0 664.5,478.25"/>
    <polyline points="659.125,484.125 653.5,489.875 647.75,495.125 636.75,504.125 626.375,511.125 617.125,516.25 612.875,518.125 605.0,521.0 598.0,522.625 591.75,523.5 586.25,523.625 579.0,523.0 574.875,522.25 569.375,520.75"/>
    <polyline points="567.75,520.125 563.5,518.375 558.75,515.875 554.375,512.625 550.875,508.625 549.75,506.5 548.75,503.5"/>
    <polyline points="548.625,502.75 548.125,498.625 548.375,482.0 547.75,476.625 546.375,469.875"/>
    <polyline points="545.625,467.375 543.625,461.5 538.375,450.375 529.125,435.5 524.625,429.25 512.875,414.625 505.25,406.0 496.0,396.25 485.125,385.25 472.25,373.125 457.125,359.75 439.5,345.375 419.25,330.0 396.5,314.25 371.75,299.125 345.625,285.5 319.375,275.25 294.875,269.625 273.875,270.25 258.0,277.75"/>
    <polyline points="248.125,292.125 244.5,312.375 246.375,336.625 252.5,362.875 261.375,389.5 271.875,415.0 282.75,438.625 293.5,459.75 303.5,478.125 312.75,494.0 321.0,507.5 328.375,518.875 340.625,536.0 350.375,547.375 354.5,551.5 358.25,554.75 361.625,557.125 364.875,559.0 370.625,561.375 375.875,562.375 380.75,562.375"/>
    <polyline points="383.0,562.25 391.5,560.625 409.375,556.0 412.875,555.5 416.375,555.5 418.125,556.0"/>
    <polyline points="418.5,556.25 419.125,556.75 419.375,557.625 419.0,559.125 415.625,563.5 406.125,571.25 394.5,579.25"/>
    <polyline points="391.625,581.125 381.375,587.75 359.0,601.375 336.25,614.375 324.0,620.875 318.0,623.875 307.0,628.75 302.125,630.5 298.25,631.375 295.25,631.5 293.375,630.625 292.875,628.75 293.625,625.625 295.875,621.5 299.5,616.375"/>
    <polyline points="304.25,610.25 316.75,596.125 340.0,572.875 356.125,558.0 363.875,551.25 378.75,539.0 385.75,533.75 392.25,529.0 404.375,521.0 415.125,514.875 420.125,512.375 433.25,506.75 444.375,503.375 450.875,502.0"/>
    <polyline points="453.875,501.5 456.625,501.0 469.0,500.0 497.0,500.125"/>
    <polyline points="497.875,500.125 501.375,499.875 507.625,498.625 510.375,497.5 513.625,495.25"/>
    <polyline points="514.125,494.75 515.375,493.5 517.5,490.25 519.125,485.875 519.875,481.125 519.625,474.875"/>
    <polyline points="519.375,473.375 517.75,466.375 516.25,462.125 512.75,454.625 509.375,448.625 502.0,437.625 490.75,423.875 474.25,406.75 459.375,393.125 440.875,378.25 430.375,370.625"/>
    <polyline points="418.875,362.875 406.75,355.5 394.125,348.625 381.25,342.625 368.5,338.0 356.25,335.0 345.125,334.0 335.5,335.375 327.625,339.25 322.0,345.375 318.625,353.75 317.5,363.875 318.375,375.375 321.0,387.75 325.125,400.625 330.25,413.25 336.125,425.625 342.5,437.375 349.125,448.25 355.875,458.25 362.5,467.25 375.125,482.625 381.125,489.0 392.125,499.375"/>
    <polyline points="397.25,503.625 402.0,507.25 410.875,513.125 422.125,519.375 425.5,520.875 436.875,525.125 460.125,531.5"/>
    <polyline points="461.0,531.75 464.625,533.375 466.0,534.375 466.875,535.5 467.375,536.625 467.375,538.25 467.25,539.125 466.25,541.25"/>
    <polyline points="466.0,541.625 464.25,544.5 463.875,545.25 464.0,545.625 465.75,545.25 469.5,543.375 491.125,530.625"/>
    <polyline points="498.0,526.5 542.125,499.625 599.0,466.0 622.5,452.5 647.625,438.75 673.125,425.5 697.5,414.0 719.0,405.5 736.0,401.0 747.625,401.25 753.375,406.25 753.625,415.25 749.625,427.25 742.625,441.0 733.75,455.375 724.25,469.625 714.75,483.0 697.375,506.25 683.125,524.0"/>
    <polyline points="677.25,531.0 671.875,536.875 667.0,541.625 662.625,545.625 658.625,548.75 651.25,553.0 647.75,554.25 641.25,555.375 634.875,555.25 631.75,554.75 625.5,553.125 616.5,549.625 607.875,545.5 594.75,538.375"/>
    <polyline points="592.375,537.0 579.5,529.625 568.125,522.5 560.125,516.75 556.125,513.0"/>
    <polyline points="555.5,512.25 553.375,509.375 552.25,507.125 551.25,504.125 550.75,500.0 551.125,490.75"/>
    <polyline points="551.25,489.5 551.375,482.25 551.125,478.75 550.625,474.625 549.625,470.0 548.0,464.5 545.5,457.875 541.625,449.875 539.0,445.25 531.875,434.375 521.625,420.5 514.75,412.25 506.5,403.0 496.625,392.5"/>
    <polyline points="484.75,380.75 470.625,367.5 453.875,353.0 434.5,337.25 412.125,320.5 387.0,303.625 359.625,287.5 331.25,273.625 303.375,264.0 278.125,260.25 257.5,264.0 243.25,275.5 236.0,294.375 235.375,318.75 240.125,346.5 248.625,375.375 259.25,403.625 270.75,429.875 282.25,453.625 292.875,474.375 311.375,507.5 319.0,520.125 325.75,530.625 336.75,546.25"/>
    <polyline points="341.25,551.875 345.375,556.375 349.0,559.75 352.5,562.375 355.625,564.25 358.625,565.625 361.375,566.5 364.125,566.875 369.5,566.875 377.0,565.375 405.75,554.875"/>
    <polyline points="407.625,554.25 416.75,552.0 419.25,551.625 423.125,551.625 424.625,551.875 426.75,553.25 426.875,554.625 426.25,556.375"/>
    <polyline points="425.875,557.0 423.25,560.25 421.25,562.125 413.875,568.125 395.875,580.5 363.875,600.625"/>
    <polyline points="357.625,604.375 320.5,626.125 295.625,639.25 288.125,642.75 281.25,645.5 275.75,647.125 271.625,647.375 269.5,646.0 269.375,642.875 271.5,637.875 275.75,631.25 282.0,623.0 289.875,613.5 309.125,592.25 330.375,570.375 351.0,550.0 360.75,541.0"/>
    <polyline points="369.75,532.75 386.125,518.625 400.125,507.75 412.125,499.625 422.25,493.75 431.125,489.5 435.0,488.0 438.75,486.625 448.5,484.0 459.25,482.375 471.75,481.625"/>
    <polyline points="473.5,481.625 483.75,480.875 488.25,480.0 491.125,479.0 494.25,477.125 495.5,476.0 496.625,474.625 497.75,472.25"/>
    <polyline points="498.125,471.375 498.625,467.125 498.375,464.5 497.375,460.0 495.375,454.625 492.0,448.125 486.875,440.375 482.25,434.375 473.0,424.0 465.125,416.125"/>
    <polyline points="460.5,412.0 450.125,403.125 438.125,394.125 431.5,389.625 424.5,385.375 417.375,381.25 410.0,377.5 402.625,374.25 395.25,371.625 388.125,369.75 381.5,368.75 375.375,368.75 370.125,369.75 365.625,371.875 362.125,375.125 359.625,379.25 358.25,384.375 357.875,390.25 358.5,396.75 360.0,403.625 362.25,410.75 365.125,418.0 368.625,425.25 372.625,432.25"/>
    <polyline points="376.75,439.125 381.25,445.625 385.875,451.625 395.125,462.625 404.375,471.875 417.375,482.75 429.25,490.75 439.75,496.5 449.0,500.625 454.5,502.75 466.25,506.5"/>
    <polyline points="468.25,507.0 481.375,510.125 496.875,513.125"/>
    <polyline points="497.375,513.25 502.0,514.625 503.625,515.5 504.625,516.875 504.5,518.125 503.75,519.75 499.375,525.625 499.625,526.5 502.5,525.75 510.625,521.875"/>
    <polyline points="512.5,521.0 566.625,492.25 588.125,481.5 603.125,474.625 617.375,468.75 629.625,464.875 634.5,463.75 638.5,463.5 641.5,463.875"/>
    <polyline points="643.5,465.0 644.5,466.625 644.5,468.875 643.625,471.625 639.625,478.0 633.5,484.875 629.875,488.25 622.125,494.625 618.0,497.625 606.0,505.0 594.75,510.25 584.625,513.5 578.5,514.875 570.375,516.125"/>
    <polyline points="568.0,516.25 559.25,516.375 552.125,515.75 541.625,513.625 537.875,512.375 534.375,510.75"/>
    <polyline points="533.75,510.5 530.875,508.5 528.625,505.625 528.0,503.625 527.875,500.875"/>
    <polyline points="527.875,500.375 529.375,487.75 529.125,479.375"/>
    <polyline points="529.0,477.875 527.125,468.875 523.375,459.25 520.375,453.25 516.125,446.125 510.5,437.75 502.75,427.75 492.5,415.875 486.125,409.125 470.375,393.875 450.125,376.375 438.125,367.0"/>
    <polyline points="424.75,357.25 410.375,347.625 394.875,338.375 378.75,330.0 362.5,323.0 346.75,318.0 332.0,315.75 319.25,316.75 309.0,321.0 301.75,328.625 297.625,339.375 296.625,352.625 298.25,367.625 302.125,383.625 307.625,399.875 314.375,415.875 321.875,431.0 329.625,445.0 337.375,457.875 345.0,469.375 359.375,488.5 366.0,496.25 372.125,502.875 383.25,513.5"/>
    <polyline points="388.25,517.75 392.875,521.25 401.25,526.75 411.75,532.125 420.25,535.375 438.625,540.125 444.125,542.125"/>
    <polyline points="444.75,542.5 446.375,544.25 446.75,545.625 446.625,546.75 445.875,548.5 443.75,551.375 441.375,553.875 434.0,560.0"/>
    <polyline points="432.375,561.125 424.5,566.875 413.5,574.25 386.75,591.625 287.75,654.25 249.125,678.0"/>
    <polyline points="228.5,690.25 208.5,701.5 191.0,710.25 178.125,714.875 172.0,713.375 174.25,704.75 185.125,688.5 203.25,665.875 276.125,580.0 298.75,552.125 318.5,526.625 335.0,504.0 348.125,484.375 358.25,467.375 365.75,453.0 371.125,441.0 374.625,430.875 376.75,422.75 377.875,416.125 378.125,411.0 377.875,407.25 377.25,404.625 376.625,403.125 376.0,402.625"/>
    <polyline points="375.5,403.0 375.5,406.25 377.0,412.0 378.375,415.5 382.25,423.375 387.5,431.875 393.625,440.375 397.0,444.5 404.0,452.25 411.25,459.25 418.375,465.375 428.875,473.125 435.375,477.25 441.625,480.75"/>
    <polyline points="444.625,482.375 455.625,487.25 467.375,491.25 478.75,494.0 485.0,495.0 492.75,495.625"/>
    <polyline points="493.875,495.625 498.875,495.375 503.0,494.75 505.25,494.0 509.0,492.25 512.0,489.5"/>
    <polyline points="512.5,489.0 514.125,486.5 515.75,481.625 516.125,476.125 515.125,468.75 513.375,463.125 511.625,458.75"/>
    <polyline points="510.375,456.25 505.75,447.875 498.5,437.25 491.75,428.875 483.125,419.125 472.0,408.0 458.0,395.375 449.875,388.625 431.25,374.625 420.75,367.625 409.625,360.875 398.125,354.625 386.375,349.125 374.75,344.75 363.5,341.875 353.25,340.75 344.125,341.5"/>
    <polyline points="336.5,344.375 330.875,349.375 327.125,356.375 325.375,365.125 325.5,375.125 327.25,386.0 330.375,397.5 334.75,409.125 339.875,420.625 345.625,431.625 351.75,442.0 358.0,451.625 364.25,460.5 376.5,475.75 382.375,482.125 388.0,487.875 393.5,492.875 403.5,501.125 412.375,507.375 416.5,509.875 427.625,515.625"/>
    <polyline points="430.875,517.125 444.625,522.125 465.75,527.625 471.25,529.75"/>
    <polyline points="471.75,530.125 474.125,532.0 474.875,533.625 475.0,535.375 474.25,538.25"/>
    <polyline points="474.25,538.5 474.25,539.125 474.625,539.375 477.25,538.75 484.875,534.875 545.875,499.375"/>
    <polyline points="558.375,492.125 588.0,475.125 622.625,456.25 641.0,446.75 658.875,438.125 675.75,431.0 690.5,425.75 702.375,423.125 710.75,423.25 715.625,426.25 717.125,431.75 715.5,439.125 711.5,448.0 705.75,457.625 699.0,467.375 691.625,477.0 684.125,486.125 669.75,501.875 656.75,514.25 651.0,519.125 640.75,526.625"/>
    <polyline points="636.125,529.375 628.0,533.25 620.875,535.5 614.5,536.375 608.875,536.375 601.25,535.375 596.875,534.125 590.75,531.875 582.375,527.75 577.0,524.375"/>
    <polyline points="575.875,523.625 569.25,518.125 566.75,515.125 565.125,512.125 564.375,509.875 564.0,507.625 564.125,504.375"/>
    <polyline points="564.25,503.625 565.25,499.25 568.625,490.75 571.0,483.75 572.375,476.5 572.625,469.375"/>
    <polyline points="572.375,466.5 571.125,460.0 570.0,456.125 566.25,446.875 563.5,441.25 559.875,434.75 555.125,427.25 549.0,418.625 541.125,408.375 531.125,396.375 518.5,382.25 502.375,365.625 482.25,346.125 457.0,323.5 425.875,297.875 388.625,269.875 345.625,241.25 298.625,215.375 251.375,196.875 209.5,190.875 178.75,201.375 162.5,228.625 160.75,269.0 169.875,316.625"/>
    <polyline points="185.25,365.5 202.625,411.625 233.625,487.5 245.125,516.625 253.875,540.5 260.25,559.625 271.125,595.25 273.625,601.25 276.375,604.875 279.75,606.375 283.75,605.875 288.5,603.875 294.25,600.25 308.0,589.875 348.875,556.5 372.375,538.5"/>
    <polyline points="379.625,533.375 393.0,524.625 404.875,517.625 410.25,514.75 420.25,510.125 429.25,506.75 440.875,503.375 450.75,501.5 459.25,500.5 468.875,500.0 475.0,500.0"/>
    <polyline points="476.75,500.125 498.75,500.5 504.875,499.75"/>
    <polyline points="505.625,499.625 509.75,498.375 513.125,496.375 515.875,493.5 517.375,491.375"/>
    <polyline points="517.625,490.75 519.75,484.75 520.25,478.375 519.875,474.25 518.875,469.375 517.0,463.5 515.125,458.875"/>
    <polyline points="513.875,456.25 510.75,450.375 503.875,439.875 500.875,435.875 488.875,421.5 478.0,410.0 464.0,396.875 455.625,389.75 436.25,374.5 425.25,366.75 413.375,359.125 400.875,351.75 388.0,345.25 375.0,339.75 362.25,335.75 350.5,333.75 339.875,333.75 331.0,336.25"/>
    <polyline points="324.125,341.25 319.5,348.625 317.125,357.875 317.0,368.875 318.75,381.0 322.25,393.75 326.875,406.625 332.5,419.25 338.75,431.5 345.25,442.875 352.0,453.375 358.625,463.0 371.625,479.375 377.75,486.125 389.125,497.375 399.25,505.875 408.375,512.25 412.5,514.75 420.0,518.875 426.625,521.875"/>
    <polyline points="429.75,523.125 440.125,526.625 459.125,531.625 463.125,533.25 465.25,534.625"/>
    <polyline points="465.625,535.0 466.75,537.25 466.75,538.5 465.625,541.5 463.125,545.25"/>
    <polyline points="463.0,545.5 462.875,546.375 464.125,546.125 471.375,542.375 550.875,494.25 590.25,470.75 613.75,457.125"/>
    <polyline points="639.125,442.875 665.5,428.75 691.25,416.0 714.875,405.875 734.375,399.625 748.375,398.125 756.125,401.75 758.125,409.875 755.25,421.5 748.625,435.375 740.0,450.25 730.375,465.125 711.125,492.5 694.75,514.5 681.625,530.875 676.125,537.25 671.25,542.5 662.75,550.25 655.25,555.0 651.875,556.375 648.375,557.375"/>
    <polyline points="645.125,557.75 638.5,557.625 632.0,556.375 625.625,554.375 619.25,551.75 604.25,544.25 575.875,528.0"/>
    <polyline points="574.0,526.875 564.625,521.125 559.75,517.875 556.0,514.875 551.75,510.625 549.5,507.125"/>
    <polyline points="549.25,506.375 548.0,502.625 547.625,499.375 547.875,490.25 547.625,480.125"/>
    <polyline points="547.375,478.25 545.75,469.625 542.875,461.125 537.5,450.0 531.875,440.5 523.625,428.75 511.75,414.125 504.0,405.375 494.75,395.625 483.875,384.75 470.875,372.75 455.75,359.375 438.125,345.0 418.0,329.875 395.375,314.375 370.875,299.5"/>
    <polyline points="345.0,286.25 319.25,276.375 295.25,271.125 274.75,272.0 259.25,279.625 249.75,294.0 246.25,314.0 248.125,337.875 254.25,363.875 263.125,390.125 273.375,415.25 284.125,438.5 294.75,459.25 304.75,477.5 313.875,493.25 322.125,506.625 329.5,517.875 336.0,527.125 347.0,541.125 355.75,550.375 363.125,556.125 366.25,558.0 369.25,559.375"/>
    <polyline points="372.125,560.375 377.375,561.5 384.375,561.5 390.75,560.625 408.625,556.375 414.75,555.875"/>
    <polyline points="415.5,555.875 417.75,556.625 418.5,557.5 418.375,558.875 417.5,560.75 411.5,566.75 403.375,573.0"/>
    <polyline points="401.25,574.5 390.875,581.5 372.75,592.875 348.0,607.5 330.625,617.125 319.0,623.0 308.375,627.625 303.875,629.125 300.125,630.0 297.375,630.0 295.625,629.0"/>
    <polyline points="295.25,627.125 296.125,624.125 298.25,620.0 301.75,615.0 306.375,609.125 318.5,595.5 340.875,573.125 364.25,552.25 371.625,546.0 385.625,535.25 398.25,526.375 404.0,522.75 419.625,514.125 428.625,510.125 436.625,507.25"/>
    <polyline points="440.375,506.125 450.375,503.75 464.0,502.0 472.75,501.625 492.375,502.0"/>
    <polyline points="493.375,502.0 498.375,502.125 503.75,501.75 509.125,500.625 511.125,499.75"/>
    <polyline points="511.5,499.5 514.125,497.875 516.75,495.25 519.0,491.625 520.25,488.125"/>
    <polyline points="520.5,487.375 521.375,481.75 521.375,478.125 520.625,472.25 519.25,466.875 517.75,462.625 514.25,455.0 510.75,448.875 506.125,441.875"/>
    <polyline points="503.375,437.875 500.125,433.5 487.125,418.375 475.125,406.125 468.0,399.375 459.875,392.25 440.875,376.875 430.0,368.875 418.125,360.875 405.5,353.25 392.375,346.125 379.0,339.875 365.75,335.125 353.125,332.125 341.75,331.375 331.875,333.0 324.0,337.125 318.375,343.875 315.25,352.875 314.375,363.625 315.625,375.75 318.625,388.75"/>
    <polyline points="323.0,402.0 328.5,415.25 334.75,427.875 341.375,439.875 348.25,451.0 361.75,470.125 374.625,485.5 386.25,497.25 391.625,502.0 396.625,506.25 405.875,512.875 414.0,517.75 421.25,521.5 430.375,525.25 440.25,528.375"/>
    <polyline points="442.375,529.0 454.875,532.125 459.625,533.75 462.625,535.5 463.875,537.0 464.25,538.25"/>
    <polyline points="464.25,538.625 463.875,540.875 462.875,542.75 458.875,547.875 458.25,549.25 458.75,549.25 462.75,547.25 474.5,540.375 528.125,507.25 587.5,471.125 613.625,455.75 642.25,439.375 672.375,422.875 702.0,407.875 729.125,395.875 751.125,388.875 766.375,387.75"/>
    <polyline points="774.125,392.75 774.875,403.125 770.125,417.5 761.75,434.25 751.375,451.75 729.875,485.0 697.5,533.25 686.875,548.125 682.375,553.75 678.375,558.25 674.5,561.75 670.875,564.5 667.25,566.5 663.75,567.75 660.0,568.375 652.5,568.25 644.75,566.375 636.75,563.375"/>
    <polyline points="632.75,561.5 624.625,557.5 580.75,532.625 559.375,521.375"/>
    <polyline points="557.75,520.625 548.375,515.75 542.875,512.375 539.5,509.75 538.0,508.25 536.5,506.125"/>
    <polyline points="536.25,505.625 535.25,503.5 534.625,500.5 534.5,495.625 534.875,487.125"/>
    <polyline points="534.875,486.0 533.875,475.75 531.75,467.625 527.25,456.75 523.5,449.875 518.375,441.625 515.125,437.0 506.75,426.125 501.5,419.875 488.25,405.625"/>
    <polyline points="480.125,397.375 459.75,378.875 447.375,368.5 433.5,357.75 418.0,346.75 401.25,335.75 383.25,325.375 364.75,316.25 346.375,309.25 328.875,305.0 313.25,304.375 300.375,307.75 291.0,315.375 285.375,326.75 283.5,341.5 284.875,358.375 289.125,376.625 295.25,395.375 302.75,413.5 311.0,430.75 319.625,446.75 328.0,461.125 336.25,473.875 344.0,485.0 351.25,494.75"/>
    <polyline points="358.0,503.125 364.25,510.125 375.375,521.25 384.875,529.125 393.0,534.625 396.5,536.625 405.875,540.875 413.375,543.25 430.125,546.875"/>
    <polyline points="431.0,547.25 432.5,547.875 433.875,549.0 434.5,550.5 434.125,552.75 432.75,554.875 429.625,558.25 427.375,560.375 421.125,565.25"/>
    <polyline points="419.25,566.625 396.0,582.5 376.25,595.0 356.0,607.625 319.5,629.75 285.875,649.0 264.0,660.375 254.625,664.375"/>
    <polyline points="247.125,666.625 242.25,666.625 240.5,663.875 242.125,658.25 247.375,649.625 255.875,638.375 266.875,624.875 279.75,610.125 308.0,579.0 335.25,549.625 358.875,524.875 386.375,497.125 400.0,484.5 410.75,475.375 419.375,469.125 426.375,464.875 429.375,463.375"/>
    <polyline points="432.25,462.25 437.25,460.5 441.5,459.625 447.125,459.0 460.625,459.0 464.375,458.5 467.25,457.375"/>
    <polyline points="467.75,457.0 469.5,455.0 470.125,452.25 470.0,450.5 468.75,446.375 466.875,442.75 464.0,438.5 457.0,430.5"/>
    <polyline points="455.25,428.75 444.625,420.0 437.0,415.0 429.0,410.75 421.0,408.0 418.5,407.375 414.0,407.0 411.875,407.25 408.5,408.375 407.125,409.375 405.25,412.125 404.5,415.875"/>
    <polyline points="404.625,418.0 405.5,422.625 407.375,427.75 408.75,430.375 411.875,435.75 413.75,438.375 419.875,445.875 426.75,452.75 436.25,460.375 443.25,464.875 452.125,469.625"/>
    <polyline points="454.25,470.5 463.875,474.125 473.75,476.25 476.5,476.5 482.625,476.375 485.75,475.75 489.125,474.25"/>
    <polyline points="489.75,473.75 492.125,471.375 493.0,469.875 493.5,468.125 493.875,466.125 493.875,463.75 493.25,459.75 492.375,456.75 490.0,451.25 486.25,444.75 482.875,439.75"/>
    <polyline points="480.75,437.125 473.125,428.0 466.5,421.25 458.5,413.875 449.25,406.0 438.5,398.125 426.625,390.375 413.875,383.625 407.375,380.75 401.0,378.375 394.75,376.625 388.875,375.625 383.5,375.375 378.625,376.0 374.375,377.625 371.0,380.0 368.5,383.25 366.875,387.375"/>
    <polyline points="366.0,392.0 366.125,397.375 367.0,403.125 368.5,409.25 370.75,415.5 373.5,421.875 380.25,434.25 388.125,445.875 392.375,451.25 396.625,456.25 405.125,465.25 413.5,472.75 421.5,479.125 432.75,486.625 442.75,492.125 448.875,494.875"/>
    <polyline points="451.75,496.125 464.25,500.625 474.375,503.375 483.875,505.375 494.125,506.875"/>
    <polyline points="495.0,507.0 503.375,507.75 508.875,507.5"/>
    <polyline points="509.125,507.5 512.0,506.75 515.375,504.625"/>
    <polyline points="515.625,504.375 518.375,501.25 521.125,496.5"/>
    <polyline points="521.25,496.0 522.25,493.75 523.625,488.875 524.375,483.125 524.125,476.75 523.25,472.0"/>
    <polyline points="522.875,470.25 520.875,464.125 517.5,456.5 514.25,450.375 509.75,443.25 503.75,434.875 495.75,425.0 485.125,413.375 478.75,406.875 471.5,399.875 454.0,384.5 443.625,376.25 432.25,367.75 419.875,359.125 406.5,350.75 392.5,342.875"/>
    <polyline points="378.125,336.0 363.875,330.5 350.25,327.0 337.625,325.75 326.875,327.25 318.375,331.625 312.25,338.875 308.875,348.5 308.0,360.125 309.5,373.375 312.875,387.375 317.75,401.75 323.75,415.875 330.375,429.375 337.375,442.0 344.625,453.75 351.75,464.25 358.75,473.75 365.375,482.125 371.75,489.5 383.5,501.5 388.875,506.25 398.625,514.0 403.125,517.0"/>
    <polyline points="407.25,519.625 414.75,523.75 424.375,527.875 434.5,531.25 450.5,535.375 453.375,536.375 455.375,537.5"/>
    <polyline points="456.0,537.875 457.75,539.75 458.0,541.625 457.625,543.125 455.0,547.125 451.0,551.125"/>
    <polyline points="450.25,551.875 437.625,562.125 459.0,548.625"/>
    <polyline points="467.625,543.0 567.0,479.125 604.125,455.75 648.125,428.75 697.25,399.625 747.875,371.75 794.0,349.625 829.125,338.125 848.75,340.375 852.625,355.625 844.625,380.5 829.75,410.5 797.0,471.875 783.75,499.25 773.625,523.75 766.125,545.25 761.0,563.875 754.25,593.5 751.25,604.625 747.75,613.125"/>
    <polyline points="743.375,619.25 737.75,622.75 730.875,623.75 722.875,622.625 713.75,619.5 704.0,614.75 693.75,608.625 683.375,601.75 663.125,586.75 644.75,571.875 615.375,547.25 599.25,534.5 586.75,525.875 576.875,520.375 574.0,519.125"/>
    <polyline points="571.375,518.0 562.0,515.25 558.125,514.5 552.75,514.0 543.875,514.125 532.875,515.5"/>
    <polyline points="518.75,519.0 518.5,519.125 535.125,510.875"/>
    <polyline points="537.125,509.875 552.375,502.25 568.875,494.5 586.125,487.25 592.375,485.125 599.75,483.375 603.125,483.25 605.125,484.0"/>
    <polyline points="605.5,484.625 605.25,486.5 602.5,490.25 597.5,494.5 591.25,498.75 581.875,503.75 574.75,506.75 567.75,509.125 559.25,511.375"/>
    <polyline points="557.25,511.875 543.5,514.25 524.5,516.375"/>
    <polyline points="523.625,516.5 516.0,518.0 510.25,520.125"/>
    <polyline points="509.875,520.375 507.875,521.375 505.375,523.125 504.75,524.25 505.625,524.25 508.0,523.375 514.375,520.375 540.625,506.625"/>
    <polyline points="544.875,504.375 576.625,488.25 595.125,479.75 606.875,474.875 612.25,473.0 621.625,470.375 625.375,469.75 628.375,469.75 630.5,470.125 632.0,471.125 632.625,472.5 632.5,474.375 631.75,476.5 628.5,481.5 623.5,486.875"/>
    <polyline points="620.5,489.625 613.875,494.875 603.375,501.625 593.0,506.875 586.375,509.5 580.25,511.5 574.5,513.0 569.125,514.0 559.875,515.125 550.25,515.25"/>
    <polyline points="548.625,515.25 535.875,513.875 529.375,512.5 525.625,511.25"/>
    <polyline points="525.25,511.125 523.375,510.25 521.25,508.5 520.75,507.5 520.625,506.375"/>
    <polyline points="520.625,506.125 521.0,503.25 523.0,497.875"/>
    <polyline points="523.125,497.375 524.75,491.875 525.75,486.0 525.75,479.0 525.125,474.5"/>
    <polyline points="524.75,472.75 523.25,467.0 521.625,462.5 519.25,457.25 514.0,447.75 508.875,440.0 502.0,430.875 492.875,420.125 487.25,414.125 480.875,407.5 465.25,392.75 455.875,384.625 445.375,376.125 433.75,367.375 421.125,358.375 407.375,349.625"/>
    <polyline points="393.0,341.375 378.125,334.125 363.25,328.25 349.0,324.25 335.875,322.875 324.5,324.25 315.5,328.625 309.125,336.0 305.625,346.0 304.75,358.125 306.25,371.875 309.75,386.375 314.875,401.25 321.0,415.875 328.0,429.875 335.25,443.0 342.625,455.0 349.875,465.75 356.875,475.5 363.75,484.0 370.125,491.5 382.0,503.625 387.375,508.375 397.125,516.125"/>
    <polyline points="401.5,519.125 413.0,525.75 419.5,528.625 430.25,532.375 445.875,536.375 449.0,537.375 452.125,538.875"/>
    <polyline points="445.0,554.625 437.625,560.375 423.5,570.125 388.5,592.875"/>
    <polyline points="383.125,596.375 351.625,616.75 306.75,646.375 178.0,732.625 128.625,765.375 77.0,798.75 32.75,825.0 10.5,832.125 22.25,809.75 67.5,756.875 131.375,684.375 195.125,606.625 246.375,533.375 280.375,469.0 297.25,413.625 299.25,366.625 289.375,327.25 271.0,295.5"/>
    <polyline points="248.125,272.625 224.75,260.25 205.125,259.75 192.25,271.375 187.5,293.375 190.375,322.875 198.875,356.375 211.0,390.625 224.625,423.25 238.125,452.875 250.625,478.625 261.875,500.625 271.625,518.875 280.125,533.875 287.5,545.75 293.875,555.125 299.75,562.25 305.125,567.375 310.25,570.875 315.125,573.0 320.125,574.0 325.125,574.0 330.25,573.125 335.375,571.75 345.875,567.5"/>
    <polyline points="351.25,564.875 387.625,545.5 396.875,540.875 405.625,537.0 417.375,532.375 427.75,529.125 439.5,526.375 449.25,525.0"/>
    <polyline points="451.375,524.875 462.125,524.5 468.625,525.0 475.75,526.5 478.75,528.0"/>
    <polyline points="479.125,528.25 480.5,529.625 481.0,530.875 481.0,534.875 481.375,535.375 482.625,535.375 487.0,533.625 508.5,522.0 562.375,491.125"/>
    <polyline points="574.125,484.625 600.625,470.125 629.375,455.5 643.5,449.0 656.875,443.375 668.875,439.125 678.875,436.625 686.5,436.0 691.625,437.375 694.125,440.5 694.375,445.375 692.5,451.375 689.0,458.25 684.125,465.625 678.625,473.125 666.125,487.375 653.625,499.625 647.625,504.75 636.5,513.25 626.625,519.25"/>
    <polyline points="622.125,521.625 614.0,524.875 610.25,526.0 603.5,527.375 600.375,527.75 594.75,527.875 585.25,526.625 579.25,525.0 571.375,521.625 565.5,518.0"/>
    <polyline points="564.5,517.375 560.5,513.75 558.75,511.625 557.125,508.625 555.875,504.0 555.75,500.625 556.0,497.75"/>
    <polyline points="556.125,496.75 557.375,487.25 557.625,479.0 557.375,474.875 555.875,467.25 554.0,461.0 550.875,453.375 545.875,444.0 542.5,438.375"/>
    <polyline points="538.375,432.0 526.875,416.625 509.5,396.75 497.875,384.5 483.875,370.75 466.875,355.125 446.5,337.75 422.625,318.875 395.125,299.0 364.375,279.375 331.375,261.5 298.125,248.0 267.25,241.125 241.75,243.375 223.875,255.625 214.875,277.25 214.25,306.0 220.25,339.0 230.625,373.0 243.125,405.875 256.25,436.125 268.75,462.875 289.875,505.5"/>
    <polyline points="298.25,521.75 311.5,546.125 316.5,554.875 320.875,561.75 324.75,567.125 328.25,571.25 331.5,574.125 334.625,576.0 337.625,577.125 340.625,577.625 343.75,577.5 346.875,576.875 353.5,574.375 364.0,569.125 378.625,560.75 392.875,553.125"/>
    <polyline points="396.25,551.375 405.875,547.0 414.625,543.5 427.125,539.75 437.0,538.0 441.75,537.625 445.75,537.625 448.875,538.0"/>
    <polyline points="449.75,538.125 453.125,539.375 454.375,540.375 455.0,541.625 455.0,543.0 454.25,545.125 450.75,549.625"/>
    <polyline points="450.0,550.375 442.25,557.0 436.875,561.0 426.875,568.0 411.125,578.375"/>
    <polyline points="408.375,580.125 369.875,604.875 312.0,643.0 131.375,765.0 71.125,805.25 13.625,841.875 0.0,848.6875"/>
    <polyline points="0.0,821.1211 28.625,787.75 103.625,703.75"/>
    <polyline points="179.25,612.0 238.125,526.0 274.0,450.875 287.625,386.75 282.25,332.0 262.375,286.5 233.0,251.5 200.75,229.625 172.0,224.125 152.5,236.375 145.125,264.375 148.875,303.625 160.5,348.125 176.25,392.875 192.875,434.375 232.375,527.125 248.375,563.5 254.5,575.5 260.125,584.0 265.625,589.5 271.25,592.375 277.25,593.0 284.0,591.75"/>
    <polyline points="291.25,588.75 299.0,584.625 307.25,579.5 315.75,573.75 358.625,542.875 374.0,532.375 394.25,520.0 406.0,513.875 411.375,511.375 421.25,507.375 434.0,503.375 441.5,501.625 448.125,500.625"/>
    <polyline points="451.25,500.125 464.625,499.25 496.0,499.875"/>
  </g>
</svg>
