<?xml version="1.0" encoding="utf-8" ?>
<svg xmlns="http://www.w3.org/2000/svg" xmlns:cc="http://creativecommons.org/ns" xmlns:dc="http://purl.org/dc/elements/1.1/" xmlns:ev="http://www.w3.org/2001/xml-events" xmlns:inkscape="http://www.inkscape.org/namespaces/inkscape" xmlns:rdf="http://www.w3.org/1999/02/22-rdf-syntax-ns" xmlns:sodipodi="http://sodipodi.sourceforge.net/DTD/sodipodi-0.dtd" xmlns:xlink="http://www.w3.org/1999/xlink" baseProfile="tiny" height="27.09333333cm" version="1.2" viewBox="0 0 1024.0 1024.0" width="27.09333333cm">
  <metadata>
    <rdf:RDF>
      <cc:Work>
        <dc:format>image/svg+xml</dc:format>
        <dc:source>vpype read './original_svgs/Strange Attractors #483.svg' linemerge linesimplify write './Strange Attractors #483.svg'
</dc:source>
        <dc:date>2024-08-05T01:36:04.002826</dc:date>
      </cc:Work>
    </rdf:RDF>
  </metadata>
  <defs/>
  <g fill="none" id="layer1" inkscape:groupmode="layer" inkscape:label="1" stroke="black" style="display:inline">
    <polyline points="550.875,585.625 553.4855,565.1584 555.5222,545.3943 557.0691,525.611 558.1784,505.0334 558.8512,483.8134 559.0316,462.6874 558.7174,441.994 557.919,421.6001 556.6023,400.6158 554.8374,380.2332 552.6357,360.5682 549.9735,341.4394 546.9358,323.3812 543.5,306.125 539.3604,288.2557 534.7835,271.0261 529.8091,254.5753 524.3459,238.6677 518.6794,224.1282 512.576,210.3517 506.3335,198.0096 499.6993,186.5464 492.7555,176.0862 485.3035,166.3933 477.6363,157.9221 470.0759,150.9653 462.1583,145.1165 454.4662,140.8358 446.7067,137.9301 439.1265,136.4506 431.379,136.3624 423.9107,137.7236 417.7797,140.0041 411.6253,143.4883 406.1372,147.7747 400.8432,153.1944 396.0332,159.5065 391.5609,166.9259 387.6358,175.1178 384.2563,183.9919 381.3186,193.8477 378.9671,204.2423 377.2,215.074 376.0105,226.4152 375.4233,238.3302 375.4393,250.4037 376.0375,262.9471 377.2604,276.2689 378.9137,288.7665 381.0,301.125 383.3997,312.8486 386.3472,325.0808 389.8528,337.7482 393.7903,350.4102 398.2304,363.3518 403.375,377.125 413.1616,400.6555 425.1779,426.4236 436.9923,450.0915 464.6949,503.2068 474.1878,522.7498 481.3,539.0943 486.4571,552.1762 491.3996,566.7656 495.0359,579.4737 499.1952,599.2125 501.57,616.3739 502.69,632.6615 502.7512,654.6683 501.2793,675.7033 499.9884,686.1236 498.5261,694.9609 496.1419,706.1466 493.9805,713.5566 491.8751,718.9403 490.9967,720.1963 490.2112,720.4201 489.5,718.75 489.3452,715.885 490.431,705.7969 493.1632,692.0931 497.4797,675.0117 502.6416,657.3707 508.8933,638.2117 515.7105,619.1002 523.4146,599.122 531.332,579.8797 539.6315,560.8435 548.4008,541.8477 557.9318,522.2041 575.8474,487.5675 586.7238,468.0168 599.4513,446.0707 601.2136,442.388 599.7063,443.7445 594.9084,449.6945 582.4538,466.6975 572.0588,481.9988 562.9297,496.6849 555.1172,510.3811 548.5011,523.2735 541.6407,538.1968 535.8148,552.4906 530.7953,566.5318 526.579,579.8782 523.2392,592.1328 519.3597,608.4074 514.0191,634.5961 503.4417,693.6613 500.0395,710.1211 497.2993,721.3697 494.125,732.125 490.0085,742.7417 486.8038,748.1725 485.3116,749.4935 484.0126,749.6907 483.3666,749.2099 482.8334,748.2309 482.1985,745.2649 481.9965,740.2165 482.3814,733.9146 484.9279,716.5577 488.9443,698.236 494.8915,676.2427 502.2118,652.4847 510.7064,627.9976 520.4067,602.4778 529.7366,579.7491 540.1065,556.2399 551.5779,531.8155 563.3022,508.2875 575.0918,486.0212 587.687,463.5304 598.8137,444.6834 615.3987,417.7986 612.6756,420.5376 603.8182,431.2709 587.2284,452.4966 575.4678,468.6749 563.8918,485.9947 554.9622,501.0761 546.0354,517.9249 539.2944,532.5916 533.2604,547.9909 528.2716,562.8905 524.6936,575.9673 520.7374,593.008 517.4923,611.3524 513.6993,640.9557 508.2523,702.0573 506.2816,720.9997 503.6967,739.2266 501.2142,753.4481 499.2214,762.8184 496.125,774.875 492.9546,785.0185 489.147,795.1378 485.2737,803.5293 481.1775,810.4484 477.3661,815.0956 475.375,816.75 473.6118,817.7131 471.9205,818.0618 470.6238,817.8574 469.0789,816.9464 467.9082,815.655 466.7936,813.7579 465.8794,811.3419 464.6106,804.883 464.1058,796.2267 464.3634,786.2091 465.4005,774.5148 467.2087,761.3794 469.7423,747.0899 472.7704,732.6592 476.2682,718.1197 480.516,702.3107 485.3957,685.7094 496.9944,650.3752 510.2202,614.7383 524.81,579.3786 541.0228,543.3837 557.6417,509.3824 575.2556,476.2022 594.752,442.2689 614.2349,411.0429 623.9934,396.4192 633.5392,382.8235 641.8246,371.7047 649.9056,361.6568 636.7704,376.4563 600.5953,414.5686 580.8795,436.2512 571.9734,446.7852 563.7847,457.0671 556.4155,466.9961 550.1958,476.1154 543.0645,487.7383 536.8724,499.1236 531.9972,509.7896 527.4379,521.5951 523.7941,533.9219 521.7726,544.2598 521.1718,549.4895 521.0731,553.832 521.3657,556.787 522.1716,558.2085 523.0741,557.8333 524.3137,555.6458 526.8148,547.463 529.257,534.3111 530.8963,521.9609 532.4244,503.8919 533.28,487.5969 533.6046,468.8842 533.362,450.8451 532.6509,434.6269 531.3687,416.5197 529.7642,400.1821 527.7662,384.5119 525.2047,368.4452 522.2024,352.7252 518.9227,338.2089 515.3377,324.6871 511.2028,311.3825 506.6782,298.7242 501.9312,287.1346 496.8532,276.4037 491.8123,267.2849 486.3998,259.0191 480.6216,251.6661 475.0161,245.8827 469.1146,241.1977 463.5148,238.1119 457.7297,236.3476 455.0683,236.0388 452.116,236.1009 449.6167,236.5137 446.8632,237.3893 442.0216,240.1706 437.6936,244.3376 433.8549,249.8791 431.6985,254.1055 429.8118,258.7869 426.857,269.3887 425.0676,281.2068 424.4329,294.5935 424.9609,309.4936 426.6123,325.3283 429.4538,342.1337 433.5174,360.2499 436.6684,372.178 440.3223,384.3407 450.2803,413.167 459.3678,436.775 475.433,476.1681 488.0,508.125 497.2886,534.0827 509.1549,571.0764 513.0788,582.1434 516.2962,588.8389 517.5242,590.5661 518.7836,591.5966 520.625,592.125 522.265,591.525 524.025,589.725 525.8692,586.3894 527.62,582.039 529.2405,576.846 533.0149,560.4012 535.9684,541.1874 538.0486,522.3811 539.5117,499.6429 540.2204,477.9029 540.2015,458.0762 539.5417,436.1466 538.3482,416.2341 536.5845,397.0698 533.9308,376.0444 530.7615,356.1608 527.0734,337.3364 522.9273,319.8281 518.2483,303.1994 513.1738,287.7401 507.7064,273.4396 501.8981,260.4589 495.6992,248.7543 489.0371,238.1473 482.1195,228.9422 475.2884,221.5376 468.1223,215.5344 464.5347,213.2199 461.0237,211.4097 457.5036,210.0191 454.0404,209.0702 450.6449,208.5581 446.9646,208.4951 443.7475,208.8886 440.2922,209.8196 436.9768,211.2638 434.1247,212.9968 431.2935,215.2372 428.5822,217.9509 423.7193,224.5683 421.2349,229.0971 419.016,234.0694 417.0674,239.4455 415.2849,245.6085 412.8237,258.1636 411.566,272.016 411.5083,287.7682 412.7083,304.8488 414.9564,321.4341 418.4664,339.3042 421.9588,353.5772 426.1399,368.3748 430.8011,382.8238 436.6214,399.117 447.699,427.5063 471.6275,483.3694 480.7977,505.9523 486.4164,520.6044 493.213,540.6111 499.97,563.848 505.3704,586.7005 509.0696,607.2515 513.1075,632.7576 515.9559,648.1505 517.3641,653.6723 518.8235,657.7009 520.1416,660.1369 521.8879,661.5958 522.766,661.761 523.936,661.4433 526.1807,659.4416 528.8125,654.9531 531.5,648.75 534.1495,641.1191 536.6754,632.4078 541.8041,610.0931 546.2707,584.3195 549.8216,557.5486 552.2514,530.5988 553.9634,500.8412 554.6199,474.7889 554.4331,448.6348 553.4261,422.0414 551.602,395.9916 549.0576,371.4049 545.696,347.1505 541.52,323.4116 536.6641,300.9334 531.2246,280.0014 525.184,260.4628 518.3651,241.8316 510.9043,224.483 502.9939,208.8256 494.5473,194.7188 485.8355,182.6638 481.3319,177.3543 476.8341,172.6359 472.1669,168.3089 467.4677,164.5127 462.753,161.2519 457.7028,158.3578 453.008,156.2211 448.0169,154.542 443.0859,153.5 438.5558,153.1072 434.1121,153.279 429.6862,154.0393 425.1947,155.4414 420.8785,157.4299 416.7489,159.9789 412.8175,163.0626 409.0957,166.6551 405.3539,171.0394 401.4379,176.6381 397.8868,182.8618 394.7211,189.6639 391.9936,196.9186 389.6686,204.7027 387.6979,213.2301 386.1747,222.1124 385.0447,231.678 384.3607,241.4968 384.1008,251.9047 384.2769,262.3861 384.8884,273.0422 385.9585,284.0584 387.4347,295.0195 389.3479,306.2641 391.6923,317.7425 396.4307,336.9149 402.1255,355.972 409.089,375.9226 417.5428,397.3438 424.3923,413.3038 432.1412,430.0649 462.0516,490.7033 470.1766,507.7463 477.7604,524.7263 483.8006,539.9185 490.0766,557.4558 494.466,572.6519 498.317,589.0669 501.0268,605.2355 502.9602,623.5722 503.7407,640.1523 503.4625,662.7472 501.8506,684.1247 500.0396,697.8449 498.322,708.2424 496.2118,718.3551 493.7313,727.7853 491.3638,735.3386 488.9868,740.7177 486.7624,744.1029 485.7316,744.8981 484.787,744.9352 484.2077,744.3485 483.7324,743.2019 483.1385,739.6524 483.1216,735.1077 483.6367,728.9185 486.048,713.2211 490.4243,693.908 496.2457,672.5498 502.7549,651.7878 511.3064,627.2486 520.9873,601.7295 530.1969,579.4041 540.4195,556.2023 551.0815,533.3712 561.7451,511.9051 573.0734,490.3574 584.9537,468.9148 594.9892,451.7067 613.0676,421.7925 610.9385,423.8043 603.9286,432.2212 586.5651,454.5881 575.5451,469.9271 564.912,486.0046 555.5996,501.5212 548.4582,514.8093 540.1089,532.562 534.5407,546.3921 529.4023,561.3985 525.1777,576.0234 521.6101,590.8543 517.9029,609.5346 514.1788,635.298 507.0853,699.0307 504.4474,719.0214 501.3821,737.907 497.6487,754.9501 495.178,764.1488 491.809,774.752 488.4397,783.4633 485.1885,790.4738 481.9212,795.9053 478.7787,799.7208 475.875,801.625 474.3636,801.8805 473.2339,801.6272 471.9324,800.6644 470.9883,799.3223 469.4096,794.9747 468.5337,788.9387 468.3345,780.9999 468.8306,771.2479 469.9882,760.3152 471.8246,748.3941 474.3869,735.0839 477.5579,720.9843 481.25,706.375 489.9107,676.5165 500.8659,643.7034 513.4218,610.1669 526.6229,578.2425 541.2465,545.7227 556.6567,513.992 572.5439,483.7051 590.0769,452.7182 607.8723,423.5326 625.4756,396.922 641.6401,374.775 600.8263,419.7768 579.2449,445.0564 569.2783,457.7619 560.3315,470.058 552.0054,482.5263 545.6173,493.1613 538.3744,506.9678 533.3901,518.108 528.0853,532.752 524.373,545.8513 521.9115,557.5475 520.4901,570.8456 520.592,580.7358 521.5,584.625 522.4844,586.1719 523.0996,586.3652 523.75,586.125 525.106,584.4878 526.9167,580.7801 528.4442,576.3086 531.6565,562.6135 534.6616,545.0503 536.8158,525.7529 538.2871,506.6711 539.1324,485.2711 539.3603,464.433 538.9797,445.759 537.944,425.6749 536.4004,405.9132 534.392,387.3511 532.0,370.375 528.7455,351.6993 525.1606,334.492 521.1663,318.2418 516.6966,302.7668 511.823,288.3567 506.4635,274.6849 500.8295,262.3046 494.9876,251.311 488.998,241.7723 482.5178,233.1953 475.7881,225.8902 469.0007,220.1025 462.2315,215.9205 458.7322,214.4056 455.5563,213.4329 452.2189,212.8406 449.2284,212.6839 446.3164,212.8867 443.1424,213.5332 440.0852,214.6101 437.1542,216.1046 434.3584,218.0037 431.7071,220.2946 429.2096,222.9644 426.6961,226.2575 424.1635,230.369 421.7689,235.2429 419.6854,240.5793 417.9072,246.3362 416.4286,252.4713 415.1794,259.3571 413.6727,273.9611 413.5202,288.7256 414.6194,305.0984 416.9993,322.8901 420.4772,340.6897 423.9444,354.782 428.1624,369.6214 432.954,384.6985 438.3621,399.9929 451.877,434.4355 477.4606,495.1024 486.9881,519.6968 492.5462,535.686 497.8087,552.6978 503.6325,574.7145 507.0562,590.4404 514.2048,627.9668 516.6152,637.589 517.6834,640.9527 519.25,644.5 520.3293,646.068 521.5618,646.9778 523.3173,647.1568 525.483,645.5414 527.889,642.0199 530.4262,636.6173 532.8324,629.6933 535.3728,620.9167 539.9994,600.596 543.8529,578.2478 547.3858,550.6255 549.6154,525.8769 551.104,498.232 551.6637,473.2996 551.4407,449.1511 550.3742,423.2545 548.5717,397.9878 546.1451,374.5149 543.0096,351.7443 539.0632,329.2026 534.458,307.6915 529.3276,287.6633 523.6635,268.9618 517.5317,251.7534 510.6669,235.3649 503.1916,220.1602 495.4084,206.7263 487.2141,194.87 478.6811,184.7844 474.3973,180.5464 469.7964,176.5752 465.5334,173.4045 460.9133,170.5057 456.6606,168.3249 452.082,166.4985 447.549,165.2298 443.078,164.5188 438.6856,164.3654 434.3881,164.7696 430.2019,165.7315 426.2059,167.2222 422.4193,169.2032 418.546,171.8693 415.1442,174.8158 411.6957,178.4698 407.8158,183.5375 404.2829,189.2498 401.1068,195.5565 398.1441,202.8264 395.708,210.3167 393.709,218.2186 392.1376,226.469 390.9359,235.396 390.1395,244.9795 389.7868,254.7903 389.8564,264.7641 390.3483,275.1561 391.2413,285.4761 392.5626,296.132 396.4883,318.307 400.803,336.6455 405.9823,354.9252 411.9726,372.78 419.4788,392.447 427.3966,411.5488 434.8329,428.2714 463.9262,489.2451 470.5172,503.6218 479.2236,523.7912 485.489,540.1745 491.6574,558.4685 496.6833,577.2199 499.5638,590.8952 502.5055,610.6346 504.4171,633.6403 504.7396,657.621 503.7152,678.3919 501.2162,703.1248 499.3237,714.8886 497.07,726.0973 494.3953,737.2188 491.7202,746.222 488.8725,753.7046 485.8118,759.7268 483.1565,763.0442 481.9352,763.7491 480.9167,763.7269 480.0463,762.9762 479.4907,761.9104 478.5812,758.0446 478.2663,752.686 478.5199,746.0991 479.326,738.2323 480.6557,729.4403 485.0354,708.3104 491.2177,684.3222 498.413,660.469 507.4956,633.8588 517.7948,606.6025 528.5221,580.5202 540.3092,553.8164 552.5576,527.8555 564.873,503.4528 578.1744,478.7111 591.6848,455.0744 604.3392,434.244 622.3404,406.055 619.5981,408.8649 612.1037,417.6732 588.2616,446.9149 575.7611,463.6476 564.2414,480.496 553.4239,498.0967 545.5598,512.7346 537.9549,529.1568 531.763,545.5332 526.5342,562.3019 521.6089,582.6467 518.2749,602.6242 516.1531,623.4018 515.2892,638.1522 514.9718,651.8951 515.168,667.7656 515.6549,677.0555 516.8764,687.548 517.8861,692.235 519.4062,696.3594 520.625,698.0 521.6065,698.588 522.7269,698.6204 523.875,698.125 526.3006,695.5181 529.3394,690.3282 532.3895,683.3664 535.4581,674.7095 538.5885,664.3339 544.6897,639.5634 549.5458,614.5885 554.6644,581.2606 557.6719,554.7186 560.1849,522.6652 561.5611,494.254 562.021,466.9862 561.5714,437.2898 560.2499,408.4037 558.1382,381.4179 555.1942,355.2967 551.3228,329.439 546.6548,304.5003 541.2019,280.5232 535.1245,258.1785 528.4017,237.3248 521.1013,218.1608 512.9803,200.0909 504.1807,183.494 495.0043,168.8992 490.1255,162.135 485.3533,156.1395 480.4883,150.6328 475.5407,145.6396 470.3884,141.0755 465.3093,137.1819 460.2108,133.8457 454.7452,130.888 449.6586,128.7019 444.2433,126.9735 439.2387,125.9319 433.9488,125.4267 428.7533,125.5518 423.6724,126.3056 418.726,127.6864 413.9344,129.6926 409.3147,132.3178 405.0458,135.403 400.0204,139.9568 395.1254,145.517 390.6325,151.8137 386.3694,159.1321 382.573,167.1186 379.2565,175.7016 376.4328,184.8094 374.1268,194.3185 372.306,204.3326 370.9929,214.6359 370.1447,225.5501 369.7902,237.0327 369.9411,248.6399 370.5997,260.6888 371.7846,273.102 373.4198,285.2023 375.4062,296.7457 377.8295,308.4672 380.6774,320.3241 384.0324,332.626 392.2988,358.4491 401.6661,382.9159 411.6931,405.7191 424.1162,431.3844 433.8584,450.0493 462.4848,503.0057 474.5971,527.0436 480.0095,538.8329 484.3761,549.3574 489.86,564.1454 493.4717,575.4598 497.7505,593.0765 500.4523,608.6671 502.1436,625.427 502.7551,643.9388 501.9632,663.7883 499.7145,683.1519 496.4785,699.2745 494.5125,705.0984 493.8687,706.2417 493.334,706.4902 492.9444,705.088 493.0362,702.0619 494.6415,691.6456 497.5785,678.6714 501.7516,663.3236 506.3145,648.3711 511.5501,632.8656 518.2913,614.3634 525.5064,595.7137 539.8238,561.905 554.7749,529.6483 569.125,501.375 592.831,457.864 594.481,454.249 593.2454,455.4444 588.7252,461.2672 580.0349,473.4952 569.5151,489.6832 561.1186,503.5475 553.5,517.375 548.1777,527.9529 542.0732,541.4527 536.5312,555.0469 529.0069,576.6482 523.9421,593.6222 520.9869,604.7056 515.8139,626.8991 504.8683,680.4137 498.2679,707.5243 495.7203,715.9619 493.0525,722.9868 490.6426,727.1484 489.7656,727.9375 489.0059,728.0703 488.1086,726.8724 487.746,724.1602 487.8744,719.2101 488.464,713.3522 490.9541,699.4865 495.2733,681.239 500.466,663.0915 507.2269,642.1273 514.5299,621.4339 522.6537,600.1863 530.7428,580.4233 539.3027,560.7917 548.8463,540.1382 558.9678,519.3701 568.9291,499.9511 579.4255,480.4188 590.2902,461.1016 602.7122,440.1318 604.7575,436.086 602.4637,438.3957 597.4123,444.5743 585.5515,460.4229 573.4638,477.8484 563.6327,493.3632 555.071,508.3493 546.7766,524.4595 540.8381,537.4449 535.0461,551.8432 530.5738,564.5211 526.4651,577.897 522.9206,591.1746 519.4082,606.2988 514.5029,631.5511 503.3645,699.6422 500.1024,716.1323 497.5007,727.5564 493.1862,742.6969 488.6191,754.4363 486.625,758.25 484.5714,761.1065 482.8964,762.4931 481.2042,762.6961 480.4195,762.0987 479.8803,761.2064 478.9851,757.7327 478.5929,752.3061 478.8134,745.9599 479.6586,737.798 481.0911,728.2703 485.2684,707.7334 491.4127,684.2279 499.358,657.9703 508.1618,632.2769 518.438,605.106 528.7804,579.9221 540.0289,554.5478 552.6617,527.9095 565.8949,501.7067 578.9351,477.4489 592.2072,454.212 604.3482,434.2283 621.8125,406.8281 603.9032,427.7455 587.4911,448.2179 575.0938,464.9062 562.6924,483.1677 552.8923,499.5146 543.8044,516.7955 537.0505,531.8863 530.7831,548.8123 525.5093,566.2222 520.6695,588.1138 517.6766,607.3138 515.4446,631.2903 514.8818,643.4243 514.5902,659.3169 514.8125,673.3379 515.4988,683.9382 516.5594,693.4341 517.9989,700.1022 519.575,703.3682 520.4177,704.4648 521.4219,705.0625 522.5842,705.0273 523.6699,704.4998 526.2837,701.7892 529.2175,696.6242 532.3185,689.4731 535.9971,679.3092 538.872,669.9954 542.4123,656.3742 545.7048,642.1278 551.0105,614.5697 555.5217,584.4501 559.209,551.6871 561.6833,519.5716 562.9253,490.3259 563.2435,459.822 562.6232,430.0782 561.0743,401.0869 558.5972,372.7844 555.168,344.9271 550.8166,317.8145 545.6871,292.2635 539.8,268.2256 533.2153,245.8685 525.8304,224.8483 517.5855,205.0049 508.5649,186.6355 499.0422,170.3326 494.0562,162.9084 489.1331,156.2707 484.181,150.2571 479.0305,144.6723 473.8062,139.6576 468.1949,134.9587 462.5429,130.9131 456.8721,127.526 451.5374,124.9441 445.893,122.8496 440.2944,121.4284 434.7636,120.6856 429.3227,120.6263 423.9936,121.2555 418.849,122.555 413.8493,124.5113 409.0454,127.0873 404.1689,130.4697 399.806,134.2293 395.425,138.8019 390.8558,144.574 386.6514,150.9962 382.8314,158.0183 379.4157,165.5905 376.3757,173.8025 373.8156,182.3428 371.6198,191.5897 369.8848,201.1568 368.5543,211.3742 367.6634,222.2117 367.2515,233.2302 367.2991,244.3638 367.7838,255.4738 368.7196,266.7145 370.1266,278.2474 372.0018,290.0316 374.256,301.6482 377.0158,313.7934 383.83,338.6251 391.7201,362.1736 401.2955,386.3097 411.4252,408.8295 422.4029,431.052 442.3121,468.1185 462.1415,503.969 473.8416,526.8224 479.5498,539.0254 484.5371,550.9041 489.0611,562.7394 492.5519,573.3297 497.1459,590.4899 499.8099,604.8202 501.878,621.2284 502.7507,639.1592 502.319,658.8842 500.6388,675.9078 499.235,684.8297 497.515,693.3452 495.8412,699.0542 495.2349,700.248 494.7079,700.6086 494.382,699.3515 494.5395,696.1686 495.834,688.5345 499.0583,674.6858 503.2345,659.6884 507.9656,644.469 513.1461,629.2111 519.6377,611.4097 526.2541,594.3686 539.7348,562.6765 555.0801,529.7484 569.6061,500.8262 589.991,463.24 591.7843,459.3717 590.5727,460.4102 587.5505,464.1872 578.7367,476.8213 570.1316,489.9908 562.6586,502.3382 555.5522,515.3545 548.8887,528.4322 541.75,544.0 537.3351,554.7105 529.1754,577.8079 521.6281,603.3774 515.5119,628.8782 505.1296,677.2397 499.8828,698.864 496.9923,708.4176 494.6005,714.8249 492.4349,718.7531 491.5493,719.6303 490.8351,719.6979 490.1852,718.4049 489.9438,715.0238 491.0889,704.4253 493.5802,691.3697 497.7567,674.6928 502.4506,658.3715 508.2551,640.5177 515.6981,619.5862 523.3048,599.7359 531.0899,580.7149 539.5427,561.1819 547.6031,543.5349 556.258,525.5795 573.6773,491.8032 599.0896,446.6098 600.6554,443.197 599.2212,444.5247 595.3993,449.2586 582.7037,466.6079 570.38,484.9491 562.9857,496.925 554.4583,512.0595 547.6918,525.287 541.3785,539.1715 535.3703,554.0342 530.6906,567.0452 526.3474,581.1629 522.8986,593.7675 518.5605,612.1502 513.6856,636.0641 504.1244,689.6101 498.408,716.1886 494.4088,730.0972 490.7031,739.9844 487.292,746.327 485.7946,747.8314 484.4694,748.1192 483.7745,747.658 483.278,746.7939 482.6126,743.6078 482.4606,738.3246 482.8416,732.1757 485.2569,715.9813 489.5546,695.9847 495.2081,675.126 502.605,651.4317 510.6331,628.3449 519.9105,603.9322 529.3619,580.8747 539.3432,558.1668 550.6184,534.102 562.3508,510.5049 574.7139,487.0274 586.952,464.9879 595.9516,449.62 614.5485,419.1588 612.6863,420.8822 607.0132,427.6462 588.6242,451.0183 574.8173,470.0382 563.0,487.875 554.615,502.0572 546.2111,518.0824 539.6974,532.3115 533.3761,548.1009 528.2988,563.481 524.1601,578.3304 520.1591,596.1059 516.8067,615.4114 513.5811,640.3264 507.5523,703.3682 505.5073,720.877 502.1221,742.7151 498.5598,759.8563 495.1953,772.4321 492.6252,780.8111 489.0625,790.3906 485.7947,797.5504 481.8438,804.3594 478.1036,809.0281 476.399,810.5131 474.617,811.5702 472.8965,811.9651 471.5586,811.7451 470.25,811.0 469.1181,809.7743 468.1111,807.9444 467.25,805.4688 466.101,798.941 465.6871,790.1997 466.0474,780.5358 467.1664,769.0454 469.0066,756.3217 471.496,742.7086 474.5683,728.4896 478.337,713.1178 482.6681,697.1576 487.6098,680.4412 498.4954,647.3864 511.3648,612.9312 525.5835,578.5058 540.945,544.4541 557.6047,510.5033 575.5895,476.5632 593.625,445.0 611.7552,415.7911 629.8982,389.0657 639.3461,376.2187 646.8735,366.6096 636.3072,378.3544 600.0884,417.2464 581.625,438.125 571.2806,450.6015 562.8348,461.4614 555.2696,472.0954 548.3748,482.7275 541.4445,494.5644 536.121,505.1195 530.6055,517.8681 526.7044,529.1081 523.4756,541.285 521.3839,553.3572 520.9078,563.42 521.625,567.375 522.3433,568.313 523.0117,568.2314 523.75,567.625 524.8044,565.7954 526.2755,561.7081 527.9398,555.6667 530.1468,544.7017 532.8442,525.4011 534.2508,509.2713 535.2966,489.8647 535.6216,474.0115 535.4427,454.0311 534.8414,436.5032 533.7719,419.5621 532.0062,400.7211 529.8086,382.7848 527.4087,367.1787 524.6126,352.2697 521.0362,336.283 517.1244,321.2817 512.9346,307.4436 508.3965,294.5458 503.3505,282.264 497.9701,270.898 492.2886,260.5623 486.5381,251.7029 480.77,244.344 474.8314,238.2563 468.447,233.1872 462.1508,229.6955 456.0183,227.8263 450.428,227.5933 447.4082,228.1134 444.7936,228.9496 442.2862,230.1252 439.5999,231.8429 434.9388,236.1881 430.6381,242.2817 428.4754,246.4596 426.4524,251.3816 424.7334,256.7126 423.3118,262.4144 421.29,275.1819 420.4424,289.4109 420.8395,303.4872 422.4161,319.0804 425.392,337.511 429.0753,354.472 435.2277,376.7826 442.8647,399.8739 455.0654,431.9084 478.3414,488.6678 488.716,515.5818 498.6995,544.9181 513.9112,597.7632 517.4929,605.9669 518.7555,607.8517 520.3397,609.1603 522.0889,609.398 524.0327,608.1864 525.866,605.62 527.9367,601.395 529.75,596.5 531.8146,589.4622 535.2833,573.8815 538.5185,553.7546 541.0042,531.5749 542.821,507.8238 543.7161,484.3703 543.8893,461.2709 543.3908,439.246 542.2804,419.1696 540.2907,396.2393 537.7673,374.8142 534.6261,354.1597 530.8948,334.5735 526.4758,315.4739 521.6474,297.8651 516.4192,281.5884 510.7409,266.4687 504.6959,252.7407 498.0371,239.7785 490.9939,228.1186 483.6396,217.9563 476.2735,209.7103 472.4133,206.1432 468.556,203.0793 464.5118,200.3576 460.4862,198.141 456.8557,196.5657 452.9086,195.3181 449.0253,194.5807 445.2213,194.3551 441.512,194.643 437.913,195.4462 434.4567,196.7585 431.3116,198.4523 428.3185,200.5476 425.232,203.2715 422.3374,206.4316 419.6404,210.0059 417.1466,213.9727 414.681,218.6877 410.6552,228.8758 407.6819,240.1918 405.6997,252.8955 404.7252,267.1508 404.8257,282.8207 405.946,298.2142 408.1715,314.4571 411.4234,331.3144 415.8789,349.8065 420.559,366.0587 426.3447,383.4409 433.8983,403.7581 441.631,422.9123 469.6554,486.866 481.8771,516.2425 488.0374,533.1743 492.3218,545.9609 497.1828,562.8504 500.2406,575.0049 503.5322,591.1836 505.8723,605.723 507.4206,617.7256 509.3257,637.6752 510.4674,657.2659 511.4399,684.7391 512.1402,749.5052 512.6559,772.7347 514.007,789.0578 515.0694,792.7269 516.5312,794.7344 517.6979,794.8432 519.1979,794.0214 522.3473,790.0762 525.8306,783.7412 530.3388,773.7291 534.8715,761.8006 539.7275,747.4562 544.3528,732.2161 548.5809,716.8367 556.6447,682.7322 563.4318,648.4759 569.3621,611.393 573.9072,575.1974 576.9718,541.4905 579.1103,505.1267 580.1407,470.1668 580.0741,435.8936 578.9329,403.0773 576.6765,370.2229 573.3879,338.2922 569.0348,306.9963 563.7192,277.1437 557.5316,249.0649 550.4436,222.5313 542.4933,197.6773 533.5155,173.9579 523.5781,151.6875 518.271,141.194 512.931,131.4958 507.398,122.283 501.6799,113.5912 495.7843,105.4561 489.9237,98.1547 484.0409,91.5743 477.8228,85.3809 471.508,79.835 465.1178,74.9397 458.6736,70.6982 452.1966,67.1137 445.708,64.1893 438.8889,61.8277 432.4434,60.2684 425.7168,59.3507 419.0742,59.179 412.8642,59.7101 406.7738,60.921 400.8375,62.8087 396.3065,64.7443 391.9008,67.0579 387.6253,69.735 383.2132,72.9751 378.9599,76.5952 374.8709,80.5778 367.2081,89.5608 360.2692,99.7849 353.9187,111.4809 348.4342,124.1958 343.8966,137.6651 340.1987,152.1658 337.3832,167.5499 335.4705,183.7101 334.476,200.5195 334.4087,217.8299 335.2718,235.4709 337.0253,252.9638 339.7199,270.908 342.4251,284.8897 345.6579,298.8886 349.3991,312.8494 353.7342,327.061 358.6509,341.4164 363.9905,355.4762 369.7467,369.279 375.9954,383.009 383.4178,397.9989 391.6089,413.2684 401.1176,429.7697 410.7387,445.4485 428.9684,472.6969 462.7278,519.8666 472.687,534.2892 482.6458,549.5584 490.9178,563.8551 497.4224,577.1527 501.2656,586.5938 503.8617,594.1683 507.5631,608.4714 509.262,618.8683 510.8494,631.1621 511.2031,632.6562 511.75,633.5 512.9259,632.3611 514.4551,629.334 524.8984,602.3745 534.6554,578.4965 543.9015,557.1874 559.7509,522.8404 561.2409,518.797 558.1549,523.7083 550.4411,538.6862 544.3682,551.6845 539.0091,564.1733 533.9641,577.0191 528.3122,592.9508 515.609,633.1334 513.2899,639.4606 515.087,632.4549 519.3343,619.5198 530.7523,588.951 542.3858,561.2201 561.1071,520.4487 563.4242,514.6625 562.439,515.813 558.9219,521.6406 549.0559,540.9126 542.2339,556.0029 535.816,571.5761 529.3219,589.6065 524.2354,604.7798 514.264,637.451 511.7031,644.3594 514.4724,633.8037 518.6041,621.1949 530.685,588.8873 543.4305,558.623 550.4592,542.9946 564.2539,513.6953 565.6011,510.1208 563.2543,513.3508 558.1603,522.2134 550.9271,536.1244 543.796,551.4146 537.3179,567.0777 530.5839,585.3629 525.2466,601.264 513.5104,639.761 510.018,649.93 511.7343,642.2288 516.5306,626.7827 523.9339,606.0675 530.6256,588.5712 544.9996,554.8859 566.2338,509.6699 568.125,504.9907 566.7024,506.5952 563.5081,511.6403 554.1083,528.7804 545.349,547.1733 537.813,564.6785 532.0754,580.1097 526.0116,597.867 520.1959,616.8577 513.1827,641.2708 510.0771,651.1619 508.0938,656.2714 508.3878,653.3378 510.4503,645.2373 516.9783,624.6859 521.3331,612.4438 530.1128,589.4645 537.6547,571.3343 546.6376,550.9514 556.3079,530.0955 569.1045,503.7488 570.945,499.145 568.6959,502.0537 564.695,508.52 554.6609,526.8698 545.9248,544.9301 538.3564,562.5532 532.9321,576.8333 526.6504,595.0492 520.7329,614.3706 509.923,652.1537 507.3078,660.4405 505.8192,663.4738 506.038,661.08 507.7319,653.6955 513.0143,635.4285 520.788,613.2451 529.8084,589.7745 537.7569,570.684 547.5654,548.5377 560.5771,520.999 572.7558,496.4186 574.2422,492.6172 573.8027,492.8105 572.1819,495.0318 565.6927,505.4839 555.8403,523.152 546.5803,542.0348 538.1034,561.8534 530.9339,581.1613 525.489,597.3885 518.8499,620.0776 507.874,660.1246 504.9351,669.157 503.3426,672.0463 503.5599,668.7797 505.2038,661.0865 511.1029,640.2472 520.1052,614.1398 528.6233,591.8121 538.259,568.7636 550.5542,541.4878 560.3017,521.1897 576.1719,489.6369 578.1541,484.9124 577.3608,485.6491 573.5248,491.1578 566.6947,502.0465 554.6546,523.7087 546.3638,540.6517 537.4526,561.8197 530.3685,581.0738 524.7802,598.3146 520.0214,614.6325 505.1887,670.7066 502.471,679.172 501.353,681.4479 500.5926,682.1667 500.3538,681.1641 500.5058,678.9796 502.0354,670.739 504.7358,659.9644 508.386,647.3796 516.5931,622.4893 527.3307,594.3037 538.616,567.1758 551.9433,537.9012 561.3514,518.5945 581.1447,480.1343 583.0012,475.9907 582.4262,476.2009 580.731,478.2926 573.3401,489.2038 565.3618,502.2042 559.0258,513.3123 547.25,536.5 542.3087,547.6068 536.7787,561.062 528.2578,585.0704 521.9478,606.1232 515.9318,628.9106 508.4245,660.0127 503.4179,679.0261 499.741,690.4628 498.0674,694.1589 497.1333,694.85 496.784,693.975 496.822,691.275 497.8654,683.8311 501.1764,669.3994 504.6562,656.7969 509.2549,642.0364 514.1948,627.4972 527.4651,592.3745 539.5909,563.6417 553.6884,533.1272 566.1399,508.0849 587.3057,468.3343 588.8898,464.7316 587.9831,465.4196 585.8365,468.1236 576.6588,481.3158 568.3724,494.2374 561.0296,506.6495 554.3789,519.0176 547.8235,532.1 542.4613,543.9448 537.2128,556.7302 529.2837,579.0643 522.001,603.6513 516.161,627.0178 504.899,676.5914 500.0148,695.5398 497.8977,702.3242 496.0,707.2117 494.125,710.5625 493.4648,711.125 492.875,711.125 492.3172,709.945 492.2188,707.1709 493.3009,697.8657 496.0455,684.5955 499.9565,669.4415 504.989,652.5552 510.9932,634.2094 517.4542,616.2052 524.9832,596.6864 531.6211,580.4715 538.9347,563.6678 557.0379,524.8921 572.4854,494.7952 594.7624,454.5319 596.6486,450.5008 595.2824,451.757 591.286,456.8451 581.4324,470.4945 571.1812,485.8004 562.7991,499.4882 555.2472,513.0721 548.1371,527.0405 541.9928,540.4797 536.2233,554.4789 532.1039,565.8567 527.599,579.5902 520.4468,605.7753 515.1609,629.258 504.4206,683.9866 498.3269,710.2459 495.4233,719.9478 492.0744,728.7327 489.5399,733.2911 488.3281,734.4844 487.5605,734.5879 486.568,733.3902 486.0722,730.3729 486.1086,725.8358 486.6586,719.6007 489.1519,704.7206 493.3361,686.4757 498.6483,667.4687 505.3931,646.2456 512.5349,625.8421 521.1075,603.382 530.3435,580.7682 539.3903,559.9117 549.3028,538.4894 560.146,516.3323 569.8389,497.4995 579.9806,478.8397 593.4402,455.2778 606.2268,433.9771 607.9375,430.5625 605.533,433.0432 598.5307,441.5632 586.1292,457.936 573.7655,475.5719 562.649,492.9521 554.9462,506.2416 547.2036,521.3252 540.5998,535.6915 534.6729,550.3449 530.3887,562.7134 525.6742,578.2836 522.2592,591.6271 518.747,607.3543 514.4404,631.6443 503.8378,704.7497 500.5625,722.0879 496.4602,739.993 491.6731,755.7609 486.7204,767.7489 484.6037,771.4846 482.4491,774.1736 480.4375,775.625 478.5926,775.7431 477.6196,775.1325 476.8974,774.1658 475.7219,770.4123 475.1789,764.7029 475.2643,757.1569 476.0279,748.869 477.4111,739.1676 482.0306,715.2673 488.1987,690.9238 496.3604,663.7205 505.6005,636.5327 516.4614,607.7522 528.1412,579.3011 540.213,552.0428 553.3787,524.5387 567.7605,496.461 582.0532,470.241 596.4324,445.6013 612.2108,420.3234 628.352,396.089 614.5483,411.8007 594.5575,435.4712 580.0876,453.7282 568.9274,468.8779 559.4743,482.9628 551.0135,497.1034 543.2665,511.8138 536.7521,526.0721 530.6093,542.1502 525.4889,558.9719 521.7676,575.9868 519.3007,592.2445 518.2756,602.5308 517.5879,614.5984 517.85,629.6507 518.75,638.125 519.3368,641.1416 520.9823,645.4613 521.754,646.53 522.6067,647.1262 523.5,647.25 524.465,646.8673 526.48,644.8718 529.026,640.4137 531.395,634.8789 536.2547,618.2623 540.5584,598.5073 544.3654,575.8047 547.4156,551.3083 549.7126,525.1175 551.1747,497.9969 551.7506,473.4535 551.5757,449.2423 550.6118,424.7514 548.8988,399.9755 546.5454,376.548 543.5364,354.1751 539.9446,333.2154 535.4223,311.5328 530.4905,291.6221 525.0547,272.9631 519.169,255.7374 512.75,239.75 505.4385,224.2586 497.8184,210.4913 489.78,198.2191 481.3938,187.6253 477.0924,183.0153 472.7305,178.8937 468.5057,175.4259 464.0401,172.2872 459.5849,169.6707 455.1546,167.5733 450.7637,165.992 446.4267,164.9239 442.158,164.3658 437.9722,164.3148 433.8838,164.7679 429.5813,165.824 425.7422,167.3175 421.9402,169.3697 418.4797,171.7903 414.9499,174.8722 410.7194,179.5152 406.8452,184.8703 403.338,190.8794 400.0458,197.8676 397.187,205.4516 394.855,213.2565 392.9534,221.5232 391.4474,230.4984 390.4059,239.7848 389.7934,249.7072 389.6383,259.8314 389.9368,270.4851 390.6782,281.2054 391.8441,291.935 393.4615,302.952 395.5275,314.2402 399.9041,333.4277 405.4929,353.3879 411.7261,372.2679 419.2625,392.2328 427.9751,413.2333 435.4752,430.1171 469.8074,502.2285 479.633,524.7801 485.728,540.5485 492.0016,559.4065 496.6375,576.9304 499.7734,592.243 502.7762,612.963 504.5619,636.8175 504.7692,657.2387 503.5598,680.4913 501.0237,703.6238 497.0,726.25 494.3667,737.2774 491.6789,746.1056 488.6852,754.0814 485.7438,759.7968 483.1273,762.9432 482.0,763.5 480.8902,763.3913 480.0977,762.7227 479.4178,761.4865 478.5773,757.8173 478.32,752.7808 478.605,746.3342 479.526,737.634 480.9558,728.0907 485.2493,707.3216 491.5806,682.9878 498.6965,659.4636 507.7415,633.1124 518.1597,605.6183 528.709,580.0122 540.5006,553.3889 552.8269,527.3259 565.3827,502.4592 578.798,477.5542 592.657,453.3585 604.4248,434.0367 622.2361,406.2639 618.5982,410.0782 606.8811,423.9622 587.6018,447.9049 575.0557,464.6098 564.2105,480.4722 553.9843,497.3048 544.9048,514.2757 537.4401,530.5829 531.1951,546.9922 526.2299,563.0864 521.6015,582.6711 518.0653,604.4051 516.0548,624.1986 515.1485,641.0255 514.8292,655.4701 515.0397,667.8815 515.625,678.625 516.8113,688.9488 517.6967,693.2939 519.4062,698.1562 520.4089,699.5495 521.2584,700.1389 522.3448,700.3056 523.4961,699.9722 525.8125,697.7344 528.7854,692.9119 531.9071,686.077 535.1451,677.1991 538.4926,666.4911 544.3156,643.2785 549.4359,617.3271 554.3299,585.6178 557.7807,555.9694 560.3244,524.5957 561.7375,495.7741 562.2539,466.7162 561.8598,437.2666 560.582,408.7562 558.4505,381.3884 555.5081,355.2679 551.5924,329.0594 546.7972,303.3684 541.4457,279.7807 535.3857,257.4516 528.6614,236.6109 521.3067,217.3815 513.0032,198.9461 504.0172,182.0265 494.6461,167.172 489.7727,160.4502 485.0067,154.4965 479.9247,148.7974 474.9781,143.875 469.7894,139.3589 464.7056,135.5412 459.6049,132.2828 454.1392,129.4093 449.0544,127.3013 443.6428,125.6544 438.6429,124.6855 433.3591,124.2532 428.1704,124.4444 423.0965,125.2559 418.1573,126.6845 413.3724,128.7271 408.8012,131.3489 404.5507,134.4326 399.2962,139.2221 394.4229,144.7986 389.945,151.1017 385.6935,158.4186 381.9081,166.3973 378.6052,174.9686 375.801,184.063 373.5082,193.6003 371.6927,203.6479 370.3426,214.3472 369.4889,225.6635 369.1612,237.1638 369.3474,249.1674 370.0382,261.2177 371.25,273.625 372.9074,285.7259 374.9824,297.6379 377.4312,309.3401 380.3043,321.1774 383.688,333.459 387.5793,346.1012 391.9425,358.9659 401.5096,383.7607 411.4039,406.1623 423.5101,430.9776 433.9893,450.9338 463.2461,504.7861 473.16,524.3487 479.4173,537.946 484.7774,550.7589 489.6586,563.7447 493.2802,575.0244 497.5925,592.5194 500.3436,608.0045 502.0939,624.7456 502.7541,643.1508 502.0032,663.1555 499.7218,683.295 496.6143,698.4119 494.8444,703.5204 494.132,704.7706 493.6296,705.0395 493.3438,703.533 493.5783,699.4479 494.9902,690.4655 497.6723,678.6009 501.6505,664.1547 506.8747,647.1882 512.0343,631.866 518.8056,613.2159 526.0714,594.4225 539.7552,562.271 556.105,527.306 570.547,498.7178 592.1081,459.3377 593.7703,455.5635 592.607,456.55 589.0891,461.1377 578.5148,476.0806 569.5158,489.9847 560.9812,504.2297 554.1758,516.6344 548.3238,528.3184 541.2761,543.9011 536.3054,556.0375 532.12,567.4572 528.357,578.8598 521.0445,604.9801 515.8492,627.0192 504.8218,679.8401 499.4375,702.5745 496.5125,712.2849 493.4062,720.7656 491.1654,724.9678 490.2415,725.8392 489.4496,725.8891 488.5733,724.4582 488.2517,721.7997 488.4375,717.1204 489.125,711.125 491.5954,697.4529 495.6186,680.7179 500.771,662.626 507.2433,642.4169 514.2597,622.4179 522.1943,601.6427 530.4435,581.5063 539.2806,561.2244 548.8073,540.5864 559.2216,519.1517 568.2127,501.4628 577.0399,484.9354 601.9012,441.5237 603.688,437.928 602.268,439.1979 597.2952,445.3344 584.7178,462.1816 572.5276,479.8876 563.4621,494.3542 554.4948,510.0523 547.1889,524.1702 540.8157,538.2305 534.6391,553.6757 530.5507,565.3954 525.4582,582.1502 522.5818,592.9571 519.1002,607.8353 513.7969,635.2656 503.6831,696.5889 500.913,710.4303 496.9734,727.189 492.8666,741.2229 488.9679,751.0165 487.0046,754.7685 485.25,757.25 483.4764,758.7255 482.2182,758.8268 481.3797,758.1815 480.7194,757.0348 479.9296,753.551 479.7034,747.98 480.0793,740.3465 482.3229,724.3078 486.7641,703.3655 492.4992,681.5357 500.0111,656.9779 508.7162,631.5322 518.4552,605.7652 528.8589,580.4196 539.9982,555.1861 551.7526,530.3539 564.7007,504.6504 577.8378,480.0317 589.9733,458.6343 602.2621,438.2113 619.8926,410.2524 617.1835,413.0245 604.6584,427.9062 585.9152,451.4792 572.0433,470.5479 560.6202,487.881 550.2506,505.9076 541.476,523.495 533.7575,542.3302 528.0558,559.3958 522.6132,580.3637 518.4947,602.4339 515.5348,626.6051 513.7006,654.047 513.1292,670.8293 512.9468,688.1195 513.1634,710.8891 514.0422,729.4722 514.9036,738.0392 516.0816,744.1568 517.6039,748.3732 518.4304,749.4523 519.375,750.0 520.3572,750.0242 521.9539,749.3044 524.5944,746.4687 528.0979,740.373 531.875,731.875 535.6436,721.8188 539.25,710.75 543.6165,695.7476 547.3945,681.057 554.4525,648.5867 559.7975,618.3201 564.8941,581.3585 568.5346,545.1586 570.7008,512.3543 571.8408,479.887 571.9389,447.9724 571.002,416.5997 568.9356,384.0972 565.8789,352.8499 561.8633,322.9239 556.8341,293.9903 551.0,267.125 544.2078,241.4308 536.4728,216.9507 528.0197,194.3577 518.8105,173.5329 509.0879,155.0153 504.0231,146.5874 498.7792,138.6564 493.4902,131.3981 487.7871,124.3239 481.9646,117.8441 475.7445,111.6958 469.7399,106.4792 463.3729,101.6886 456.9649,97.6177 450.8452,94.4248 444.7295,91.9138 438.638,90.099 432.5906,88.9946 426.4325,88.6142 420.4646,88.976 414.6464,90.0378 408.9933,91.7732 403.2046,94.3156 397.9398,97.3545 392.5969,101.2178 386.1452,107.0714 379.9003,114.2109 374.1958,122.3303 369.0751,131.3554 364.5754,141.1904 360.6456,151.9087 357.3763,163.2036 354.6784,175.3551 352.5941,188.3007 351.1948,201.566 350.448,215.4355 350.3822,229.3917 350.9843,243.45 352.2978,258.1635 354.241,272.6936 356.8924,287.7299 359.7461,300.9839 363.0776,314.2799 366.9584,327.8813 371.1879,341.0748 375.9239,354.3425 381.054,367.407 386.677,380.5694 393.0432,394.3833 405.0677,418.2955 418.5219,442.4875 434.8842,469.7249 459.8966,509.8415 474.4005,534.3818 484.1494,553.3159 491.4009,569.7463 495.5324,581.3889 498.6344,591.8239 501.4232,604.4279 503.1426,614.711 504.3742,627.3768 504.7467,635.0458 504.6921,648.7698 503.5148,664.1551 510.1004,642.5967 516.5551,623.539 523.0265,606.1579 531.8286,583.9588 540.1306,564.5128 548.8702,545.1775 559.5616,522.7062 572.793,496.271 574.9375,491.1719 573.0984,493.2423 566.9637,502.9689 557.0451,520.3579 547.7512,539.0239 538.3634,560.7468 531.7821,578.2831 525.4327,597.351 518.479,621.217 508.2949,659.1211 504.903,669.745 502.9753,673.832 502.938,671.347 504.127,664.8594 509.5559,644.9533 518.666,617.802 528.0776,592.9052 537.5684,570.1745 549.1352,544.3703 562.7092,516.2014 577.3906,487.1562 578.966,483.423 578.0516,484.183 576.1064,486.7651 570.6579,495.0813 557.4029,518.0125 547.5327,537.7959 537.97,559.8547 530.3418,580.8973 524.2738,599.6407 517.8152,622.8455 505.4414,670.3422 502.2223,680.4558 500.928,683.25 499.875,684.375 499.662,683.6667 499.8074,681.2767 500.9158,674.5303 504.5047,660.181 507.5384,649.7524 516.5509,622.4289 528.8234,590.3005 539.0276,566.0004 551.2598,539.0285 565.7644,509.6125 582.9758,476.4753 583.9062,473.9878 583.1641,474.5011 580.9355,477.4349 574.2726,487.364 565.0821,502.2349 558.2215,514.2657 547.4987,535.3834 536.9158,560.2961 529.614,580.3733 522.7315,603.031 516.3225,627.4142 507.4206,664.5083 502.5412,682.992 498.7344,694.1562 497.5063,696.6791 496.5884,697.5496 496.1445,696.7871 496.0039,694.1751 497.1211,686.2921 499.7794,674.2182 503.9405,658.7754 507.9433,645.5472 512.9457,630.6273 525.1898,597.9093 539.1907,564.4023 552.0626,536.4347 566.0872,508.0528 588.3193,466.4381 590.1719,462.3594 589.2499,463.0759 586.8169,466.1037 577.9567,478.6265 568.219,493.8828 561.9174,504.5862 554.8117,517.5754 549.032,529.104 542.432,543.3316 537.1778,556.005 529.0039,579.1261 525.3486,590.7426 522.2486,601.8607 513.9684,635.9059 505.4044,675.4061 499.7316,697.4621 497.442,704.971 495.1714,710.952 493.375,714.125 492.4671,714.9102 491.9844,714.9062 491.3399,713.5242 491.2084,710.502 492.5589,699.5177 495.0929,686.9482 499.2244,670.7959 503.7726,655.3471 509.6805,637.406 516.9821,616.9184 523.9876,598.6822 531.5737,580.1536 539.7858,561.1367 555.3959,527.8075 572.1416,495.0341 596.8364,450.5974 598.3673,447.2862 596.517,449.129 592.3608,454.3568 581.5834,469.2424 570.9753,485.1208 562.3449,499.1832 554.6838,512.9469 547.6318,526.8401 541.7975,539.677 536.111,553.7105 531.5275,566.2427 527.5392,578.5895 523.6611,592.2737 519.8897,607.3179 513.516,637.227 503.7342,689.1014 498.3003,712.816 494.5059,725.514 491.287,733.9907 488.4167,739.0499 487.2148,740.2051 486.0858,740.324 485.0,738.5 484.5208,735.4252 484.5417,730.6236 485.1108,723.9516 487.5336,708.8531 491.7746,690.2846 497.231,670.5054 504.013,648.9925 511.9598,626.2341 520.958,602.6163 529.9893,580.5719 539.5522,558.7131 549.995,536.3091 561.2596,513.4786 571.7148,493.3952 582.714,473.374 595.2403,451.7215 609.5389,428.1266 610.7403,425.6611 609.0806,427.217 602.5867,434.9879 587.1827,455.0507 574.2259,473.3238 563.8397,489.2347 554.923,504.448 546.8036,519.9397 540.4971,533.5039 534.5181,548.5715 529.651,562.613 525.1465,578.0056 521.8246,591.4935 518.4169,607.8974 514.4062,632.0131 504.75,707.5 501.8607,724.8781 498.1277,742.5081 492.8362,761.8385 489.8572,770.392 487.1453,776.8188 483.9798,782.6322 480.9315,786.7463 478.2241,788.909 476.8774,789.2301 475.9156,789.0514 474.7143,788.2091 473.8857,787.0936 472.4581,783.063 471.7661,777.224 471.7208,769.0832 472.2668,760.4883 473.4544,750.7375 475.3553,739.2548 477.9097,726.4578 484.0582,700.8001 492.3399,672.3641 502.7439,641.2662 514.1011,610.9357 526.6712,580.4347 540.5524,549.3268 554.384,520.5314 569.4509,491.4152 585.8997,461.7912 602.3793,434.1592 619.3107,407.7868 635.113,385.1863 595.782,429.8607 583.8573,444.1613 573.2033,457.6759 563.8863,470.5404 555.0365,483.9786 547.8945,496.1115 540.8879,509.4777 534.491,523.645 529.1624,538.1453 525.0949,552.2966 521.864,567.5261 519.8736,582.1126 519.3325,590.2555 519.2646,596.649 519.6221,602.9402 520.3728,607.6516 521.291,610.568 522.0312,611.7031 522.839,612.332 523.5855,612.5046 524.3065,612.2321 525.9973,610.4614 527.703,607.2693 529.5329,602.4917 533.57,588.1323 536.9723,571.1449 539.8931,550.8562 542.2838,527.7949 543.8368,505.5788 544.5885,483.6355 544.6398,460.379 544.0999,438.9012 542.9502,418.1724 541.1665,397.7843 538.5827,375.5929 535.4902,354.828 531.8377,335.089 527.6187,316.3837 523.0133,299.1802 517.7969,282.5156 512.1246,266.9767 506.1998,253.0519 499.8064,240.2244 493.0176,228.6216 485.9128,218.381 478.5616,209.6363 471.0335,202.5215 463.4303,197.1835 459.5678,195.1506 455.7501,193.5819 451.9877,192.4748 448.2912,191.8263 444.6713,191.6337 441.1385,191.8941 437.3657,192.7005 434.0504,193.903 430.8552,195.5498 427.7286,197.6831 424.7987,200.1972 421.8209,203.3416 418.6432,207.4853 415.565,212.477 412.9769,217.6566 410.5406,223.6751 408.4458,230.1625 406.7691,236.7644 405.375,244.0448 404.3563,251.6102 403.6705,259.7973 403.3531,268.2061 403.7818,286.2993 405.5843,305.0244 408.7963,324.2739 412.5307,340.9577 417.319,358.7959 422.2772,374.657 428.4228,391.9534 435.1894,409.3602 442.1342,426.1753 469.2605,487.4092 478.2485,508.8313 485.2763,526.7197 492.1254,546.7935 495.2335,557.2658 498.9822,571.5299 503.4121,592.9752 506.7933,616.4998 509.026,641.8849 509.7903,660.7465 510.1242,680.25 509.8324,705.7956 509.1928,723.3727 506.5512,753.855 504.782,765.9568 501.9209,780.8387 498.732,794.0932 494.1517,808.7657 489.522,820.2312 484.8466,829.6022 479.583,837.8685 476.848,841.2316 474.1557,843.8991 471.5836,845.7516 469.3115,846.7667 467.0282,847.144 464.8837,846.8032 463.2247,845.862 461.6719,844.25 460.2454,841.903 458.9654,838.7567 457.2084,831.3481 456.3325,821.9973 456.3197,810.6931 457.1974,797.2142 458.8491,782.9912 461.4206,767.1406 464.7076,750.7136 468.8287,732.9696 473.6489,714.499 479.2239,695.1036 485.1845,676.1318 491.9377,656.1838 499.1673,636.1712 507.0524,615.5878 515.0817,595.732 523.6267,575.6555 532.3479,556.1684 541.7219,536.1943 551.7344,515.7954 562.1148,495.5406 572.7439,475.6615 583.3147,456.7174 593.9001,438.5758 604.7315,420.8761 615.7044,403.7836 626.9214,387.143 638.7117,370.5538 649.8779,355.7676 659.7551,343.7362 663.6101,339.5604 665.25,338.25 663.3863,340.7686 658.621,346.1013 644.1146,361.1084 596.1816,407.4493 581.0716,422.4846 567.5482,436.9323 555.4008,451.1043 548.2658,460.1363 542.0396,468.714 536.7375,476.8739 531.938,485.17 527.8682,493.1772 524.4359,501.2539 521.5789,509.6008 520.481,514.977 521.6498,510.3776 522.9454,500.0564 523.8128,489.7626 524.4003,477.3072 524.553,455.0084 523.4152,430.1315 521.1595,405.7023 518.1998,384.6548 513.4821,360.8978 508.302,340.9771 501.7546,321.9028 498.2437,313.3308 494.6896,305.682 491.1236,298.9858 487.0324,292.3577 482.8839,286.6006 478.9338,282.0106 474.9679,278.2953 471.2042,275.6334 467.2965,273.7456 463.1671,272.7671 459.606,272.8758 456.266,273.9351 452.9449,276.1154 449.9218,279.2979 447.8738,282.3706 446.2449,285.5882 444.6816,289.6532 443.4135,294.1187 441.724,304.3051 441.089,316.1254 441.4275,328.5998 442.8216,341.7471 445.5737,357.875 449.0163,373.1493 454.7234,393.8823 459.8444,409.7269 467.9612,432.4736 480.4395,464.3716 494.9983,499.9384 502.8711,517.5879 505.9433,523.3793 508.6932,527.7229 511.197,530.531 513.248,531.791 514.7252,531.8764 516.1537,531.2603 517.4106,530.0562 518.5176,528.3839 520.7954,522.8373 522.9469,514.1227 524.6789,503.0326 526.0535,489.7545 526.7929,476.7622 527.0673,462.2161 526.8732,447.6078 526.2076,431.7368 525.1685,416.7179 523.7618,402.5843 521.7082,387.1343 519.321,372.5937 516.6359,359.1019 513.625,346.5 510.2314,334.2552 506.6195,322.7564 502.9333,312.4872 499.0763,303.1632 494.518,293.7015 489.691,285.016 485.1063,277.9911 480.3852,272.0023 475.4508,267.0928 470.1796,263.157 465.0499,260.6223 460.4275,259.549 456.0,259.75 451.5326,261.3612 447.8088,264.055 444.2767,268.1829 442.2779,271.4783 440.3698,275.5713 438.798,280.0279 437.5208,284.8773 435.7526,296.0224 435.069,308.9549 435.6002,322.2023 437.2931,337.1075 440.0087,353.1063 443.7142,369.3994 448.6556,387.2669 454.4718,405.245 462.888,428.7898 473.7154,456.7928 501.5494,526.5883 506.5466,538.3772 509.1057,543.5024 511.939,548.2308 513.9044,550.3991 516.0694,551.7429 517.7091,551.5933 519.3574,550.3683 520.9122,548.2934 522.329,545.521 524.5426,538.7478 527.147,526.6579 528.9605,513.6023 530.3833,497.6022 531.2792,479.9281 531.5709,462.6885 531.3121,447.8422 530.4138,428.9692 529.1917,412.6364 527.6038,397.631 525.1077,379.8116 522.3125,363.3149 519.2488,348.2987 515.8954,334.5892 511.9193,320.774 507.7306,308.0851 503.2866,296.3996 498.7722,286.1678 493.6278,276.2643 488.2927,267.5182 482.7848,259.9172 477.3961,253.8113 471.7121,248.7777 466.0159,245.1757 460.3997,243.0248 455.0,242.3618 449.8926,243.1784 447.3143,244.2159 445.0606,245.5201 440.7457,249.24 436.7951,254.5468 434.6985,258.4373 432.6894,263.2068 431.0941,268.0761 429.784,273.3616 427.9844,285.6406 427.3793,299.4457 427.8324,313.1269 429.411,327.6816 432.396,345.0598 436.416,363.195 439.9023,376.0977 444.0636,389.706 448.5839,403.176 454.0503,418.1175 463.4164,442.513 482.9033,490.7906 490.7552,511.1759 510.4704,566.8945 512.4244,571.6571 514.3333,575.3564 516.4425,578.5367 518.1406,579.875 520.25,580.125 521.7416,579.3519 523.2607,577.5842 524.9459,574.4091 526.8916,569.3995 528.5213,564.0074 531.6303,549.5923 534.1045,532.9798 536.0043,513.8145 537.2397,492.828 537.7685,471.1469 537.588,451.431 536.758,431.1765 535.3566,411.0699 533.3913,391.6477 530.8565,372.9425 527.6709,354.278 524.0208,336.7294 519.899,320.1771 515.3758,304.8547 510.3109,290.1925 504.7435,276.3425 498.8875,263.8688 492.8223,252.9059 486.4201,243.2431 479.6752,234.8502 473.0818,228.2994 466.1648,223.1565 462.8492,221.3305 459.5482,219.9388 456.236,218.9691 452.766,218.3996 449.3974,218.3108 446.1379,218.6938 442.9954,219.5397 439.9776,220.8396 437.0923,222.5847 434.3471,224.7661 431.75,227.375 429.3505,230.3655 425.1727,237.4129 423.1099,242.1246 421.3164,247.2363 418.4357,258.9476 416.6949,271.6525 416.1036,285.2433 416.6453,300.5653 418.3005,316.6302 420.9606,332.8955 424.7971,350.416 428.2275,363.5882 431.9206,376.2569 435.9434,388.4813 441.0748,402.7109 452.2337,431.5218 479.3674,496.803 486.2978,514.6322 491.9132,530.3765 496.7189,545.1442 502.9298,566.8982 515.3678,620.034 518.3243,627.9188 519.8524,630.1596 521.376,631.3773 522.3616,631.5616 523.4029,631.2742 525.6227,629.2832 527.8577,625.6826 529.9664,620.7373 532.2523,614.1169 534.2721,606.9283 539.0983,584.678 542.6646,561.9123 545.3107,538.7377 547.3057,511.2208 548.3828,484.9186 548.5278,462.0478 547.8582,436.5763 546.5065,412.5955 544.423,389.1256 541.5689,366.0943 537.9987,343.6315 533.7971,322.2455 529.0313,302.2467 523.6696,283.4951 517.3218,264.8157 510.4758,247.6449 503.3512,232.4327 495.8799,218.966 488.3191,207.6398 480.0612,197.5756 471.5846,189.3801 467.3058,186.0137 462.7137,182.9629 458.1313,180.4989 453.8794,178.7395 449.6666,177.5118 445.5077,176.8256 441.3429,176.6847 437.0788,177.1211 432.9555,178.1372 428.9871,179.7129 425.1875,181.8281 421.278,184.7051 417.8751,187.8797 414.4282,191.8571 411.4827,196.0037 408.7619,200.6159 406.1172,206.0412 403.6628,212.2119 401.6532,218.4383 399.8616,225.3689 398.4044,232.623 397.2275,240.5589 395.9724,256.6089 396.0441,273.3449 397.4084,291.1084 400.0881,310.0336 404.0323,329.6666 408.0701,345.5664 413.0982,362.4048 419.2862,380.646 426.1332,398.8671 432.7975,415.0091 441.4897,434.7685 473.7224,505.0871 479.7012,519.5228 487.6841,540.6146 493.4504,558.9322 497.6671,575.1432 501.7399,595.9147 504.3836,615.1928 505.3251,625.2617 506.1901,641.2674 506.4514,654.6548 506.3121,667.2468 505.5985,684.0452 504.4872,698.9061 501.0073,726.12 498.517,739.264 495.5996,751.5469 492.3279,762.859 488.7497,772.9319 485.525,779.922 481.7,785.989 478.6644,788.8349 477.0492,789.4046 475.8438,789.2344 474.7282,788.4491 473.9579,787.4241 472.46,783.394 471.7344,777.7656 471.65,769.876 472.1953,760.853 473.3617,750.9274 475.2112,739.5829 477.7299,726.9607 484.1548,700.4981 492.506,672.0081 502.8451,641.2179 514.5099,610.1275 527.1579,579.3908 540.7897,548.751 554.7054,519.7115 569.4887,491.1189 585.5505,462.193 601.854,434.8628 617.9265,409.8568 635.2101,384.9326 597.0058,428.2895 584.5267,443.2898 573.5218,457.2811 564.0781,470.2031 555.8403,482.5833 547.9767,495.7606 541.2009,508.5609 535.2921,521.6651 529.3031,537.6994 525.4232,550.9019 522.3219,564.8085 520.1267,579.5163 519.2724,594.3751 519.625,602.0 520.1561,606.0361 521.3424,610.1715 522.6713,611.8287 523.625,612.0 524.266,611.762 525.9769,609.9907 527.68,606.8146 529.7459,601.4726 533.4381,588.0808 536.9255,570.2 539.8111,550.6492 541.9299,530.6133 543.6987,505.4883 544.5406,481.7392 544.5759,459.8741 543.9925,438.1599 542.8079,417.08 541.0162,396.3864 538.5064,375.0065 535.4564,354.6948 531.878,335.4353 527.7442,317.1065 522.9809,299.365 517.8013,282.8196 512.1819,267.3735 506.1728,253.2059 499.9824,240.7616 493.065,228.9847 485.862,218.6551 478.6723,210.1135 471.0809,202.9056 467.2522,199.9654 463.4154,197.4907 459.6621,195.5296 455.7753,193.9517 451.9492,192.8535 448.1944,192.2297 444.5213,192.075 440.9405,192.3841 437.4625,193.1519 434.0977,194.373 430.8566,196.0423 427.7498,198.1545 424.6204,200.8636 421.7505,203.9414 418.4986,208.2618 415.5574,213.1326 412.9285,218.5147 410.6135,224.3686 408.614,230.655 406.8369,237.7643 405.4558,245.0746 404.4248,252.9188 403.515,268.8854 403.9946,286.6459 405.8537,305.4372 409.0631,324.6798 412.7084,340.9533 417.3866,358.2733 422.7334,375.4142 429.0257,393.1751 435.4295,409.667 442.4956,426.7612 469.3194,487.1944 475.9225,502.7598 484.9606,525.791 492.7114,548.467 495.6908,558.5666 499.2272,572.5084 503.8427,595.7991 507.1092,618.8078 509.0947,642.2176 509.9654,663.8748 510.3033,691.2322 510.0353,708.2686 509.3802,723.8733 507.3714,751.703 505.3727,766.3564 502.6728,781.4904 499.25,795.625 495.0257,809.3816 490.3716,821.3838 485.0781,832.1881 480.0922,840.2025 477.4863,843.5098 474.7365,846.3693 472.1884,848.417 469.5254,849.9049 467.1088,850.5368 465.0948,850.3771 463.1528,849.4815 461.6024,848.1123 459.9083,845.7655 458.5905,843.0112 456.6572,835.8221 455.6057,826.486 455.3994,814.8351 456.0723,802.163 457.6904,787.372 460.1616,771.4315 463.3684,754.7777 467.3206,737.2207 471.9843,719.0354 477.3539,700.1363 483.5704,680.0527 490.4909,659.3186 497.914,638.5271 505.7896,617.7961 513.8621,597.8091 522.4877,577.5647 531.7344,556.8906 541.3607,536.3216 551.4392,515.7048 561.7076,495.5874 571.8336,476.6014 582.1567,458.1098 593.3692,438.9121 604.837,420.1546 616.4697,401.9947 627.8688,385.0638 639.4459,368.8159 650.4204,354.3765 660.819,341.7962 665.1229,337.0981 666.9143,335.588 664.8255,338.4612 660.3083,343.6218 647.1914,357.1654 597.5061,404.6983 581.8317,420.2084 566.9366,435.8696 554.7203,449.7201 548.6108,457.2763 542.9367,464.9248 536.9733,473.7502 532.5068,481.0746 528.3953,488.8724 524.7627,496.8325 521.8351,504.5617 520.25,510.4688 521.237,505.1481 522.6502,492.7555 523.6183,474.0489 523.5855,451.286 522.4222,428.6007 520.2052,405.2447 517.0919,384.131 512.797,362.4807 507.7766,343.5218 501.7047,325.4188 495.3274,310.4239 491.6136,303.2522 487.849,296.8933 483.9911,291.3048 480.2688,286.7914 476.2766,282.8976 472.3209,279.9171 468.4844,277.8906 464.7749,276.8261 461.2004,276.7314 457.6669,277.6644 454.7131,279.4119 451.8168,282.2619 449.9427,284.9132 448.068,288.4476 445.3588,296.2263 443.5534,306.0574 442.8173,317.1342 443.1572,329.6549 444.6301,343.9929 446.9184,358.0963 450.2898,373.3095 455.8056,393.4076 464.1593,418.8904 475.4729,449.2296 484.9691,472.9294 494.3399,495.4906 502.0988,512.3063 507.4346,521.6494 510.207,524.8562 512.1528,526.1898 513.6806,526.3519 515.125,525.875 516.3861,524.8321 517.654,523.067 519.8117,517.9974 521.7892,510.2345 523.5375,499.4486 524.8225,487.3187 525.5395,474.0537 525.8055,459.1264 525.5946,445.2195 524.9251,430.1409 523.8789,415.9672 522.4566,402.3892 520.457,387.6561 518.0562,373.3284 515.3801,360.1092 512.285,347.2358 509.1767,335.9228 505.8585,325.3276 502.3449,315.5631 498.7914,307.0147 494.3968,297.7966 489.9758,289.7793 485.5806,282.9868 481.0471,277.1726 476.3474,272.3294 471.4323,268.3918 466.63,265.7325 462.2852,264.4483 457.7521,264.4036 453.7596,265.6118 450.1282,267.9753 446.6336,271.7751 444.5,275.125 442.7934,278.6337 441.2263,282.8539 439.9375,287.4844 438.085,298.2985 437.313,310.2991 437.7966,324.2164 439.5509,340.375 441.9141,354.1938 445.4672,369.7212 450.3887,387.8535 456.4917,406.9611 462.6362,424.3534 474.2059,454.571 493.5492,502.7416 505.0,530.25 507.8092,535.8344 510.8279,540.7063 512.8618,542.8687 515.0,544.125 516.3257,544.2352 518.0493,543.4076 519.5177,541.8003 520.8266,539.4961 523.3698,532.3619 525.7629,521.514 527.4942,509.223 528.9129,493.5562 529.5781,478.9926 529.8605,460.3165 529.6111,445.1313 528.835,429.3391 527.5842,412.9154 525.9618,397.7292 523.7648,382.2015 520.9448,365.7496 518.0316,351.4875 514.7933,338.1514 511.0082,325.0287 506.8932,312.5301 502.6877,301.3636 498.2879,291.2671 493.875,282.625 488.6084,273.8288 483.4273,266.4693 478.1463,260.2624 472.8054,255.3278 467.3932,251.7355 462.0702,249.5336 456.9779,248.7459 452.168,249.3466 449.8852,250.1595 447.4648,251.4517 443.4467,254.7521 439.7106,259.5283 437.6,263.2683 435.7405,267.4858 434.1403,272.1528 432.7696,277.43 430.9874,288.788 430.3138,302.0221 430.749,315.9027 432.3054,330.7937 435.0806,347.3572 438.9055,364.6479 443.249,380.489 449.0025,398.779 454.4194,414.2683 462.2933,435.1397 485.1162,492.4023 508.7559,555.2166 511.2162,560.7039 513.4319,564.8143 515.5158,567.5265 517.3218,568.897 518.75,569.0938 520.5288,568.2915 522.1295,566.5522 523.8102,563.6296 526.7828,554.9587 529.4519,543.319 531.7388,528.5041 533.4539,511.9224 534.8641,490.753 535.3713,471.4921 535.1737,450.7311 534.4658,431.9777 533.2728,414.9176 531.2401,394.979 528.7922,376.5238 525.8478,358.9589 522.4469,342.5385 518.3333,325.9074 514.0527,311.1687 509.5089,297.717 504.7752,285.6478 499.2967,273.6177 493.6025,262.8699 487.6296,253.3263 481.6272,245.3978 475.6516,239.0822 469.1082,233.752 465.6891,231.5968 462.304,229.8977 458.9658,228.6605 456.0123,227.947 452.799,227.6039 449.9789,227.7046 447.1083,228.227 444.2547,229.1934 441.5362,230.5754 438.9585,232.3586 434.2473,237.0708 429.9582,243.5959 427.87,247.9238 425.9516,252.9253 423.0802,263.6899 421.2039,276.4504 420.4869,290.4594 420.9376,304.4524 422.537,319.9297 425.5316,338.2327 429.0825,354.4242 432.4256,366.9188 436.5218,380.5276 441.2645,395.0355 446.3271,409.2366 457.1723,437.2753 480.8179,494.8186 491.9184,524.3198 499.6987,547.9955 511.2508,588.8632 514.5921,599.5149 517.9106,606.6602 519.0556,608.0655 520.5406,609.072 522.3389,609.1576 524.2827,607.773 526.2331,604.8296 528.2453,600.4805 530.0828,595.2314 532.2619,587.4349 535.7503,571.018 539.0167,549.6841 541.513,525.9978 543.1593,502.3486 543.8363,479.2642 543.7787,455.5476 543.0352,432.9819 541.5622,410.5646 539.338,387.8148 536.5185,366.2894 533.0642,345.6413 529.0111,326.092 524.1702,306.67 519.0377,289.2809 513.3834,273.0064 507.384,258.3678 500.7492,244.6816 493.4516,231.9136 486.0157,221.0278 478.3175,211.8228 474.3946,207.9081 470.4357,204.4825 466.4989,201.5914 462.3779,199.0875 458.28,197.1194 454.2233,195.6851 450.2261,194.783 446.3068,194.4111 442.4835,194.5677 438.7746,195.2509 435.1984,196.4589 431.6172,198.2803 428.4239,200.4735 425.1686,203.3404 422.1309,206.6919 419.3165,210.5013 416.7308,214.7418 414.3794,219.3869 410.8105,228.5138 408.0262,238.7301 406.1216,249.722 404.9858,262.1129 404.6957,275.8184 405.3016,290.6297 406.6626,304.2351 408.9508,318.9491 412.3392,335.3827 416.8739,353.4422 421.5547,369.3034 427.2906,386.294 433.9707,404.1328 440.9657,421.3941 455.8619,455.7816 470.1249,487.7717 482.0978,516.8478 487.8951,532.6174 492.5948,546.6328 496.4324,559.8004 499.7624,573.0203 503.0973,589.0986 505.783,605.48 507.4984,618.3144 509.3649,637.5698 510.5917,658.1406 511.5354,684.3245 512.3877,748.7584 513.0235,768.8226 513.7066,777.3987 514.5588,782.1972 515.5723,785.3449 517.065,787.229 518.19,787.256 519.4491,786.6435 522.2378,783.4609 525.9353,777.2065 529.7516,768.8902 534.0971,757.7595 537.8554,746.9458 543.4447,729.108 547.9501,712.9624 555.6237,680.6343 562.6578,644.7072 568.263,609.5333 572.6105,574.1638 575.7445,539.6855 577.8073,505.4503 578.7873,471.4714 578.6941,437.6088 577.5364,404.2964 575.3031,371.4828 572.0257,339.719 567.6533,308.6389 562.4464,279.7669 556.2114,251.6729 549.0575,224.9021 541.0652,199.7618 532.4521,176.8382 523.0358,155.6281 518.154,145.9548 512.9665,136.5335 507.59,127.5926 502.0405,119.1522 496.3344,111.2324 490.2308,103.5452 483.9927,96.4697 477.9055,90.2842 471.4577,84.473 465.2033,79.5411 458.6165,75.0818 452.2628,71.4875 445.8852,68.5786 439.5,66.375 433.1516,64.8877 426.8688,64.0962 420.6699,63.9816 414.2184,64.5768 407.9036,65.8868 401.7474,67.8888 397.4123,69.7524 392.8584,72.14 388.4335,74.912 384.148,78.0578 376.3147,85.1407 368.8581,93.8306 362.1696,103.7652 356.1013,115.131 350.884,127.4604 346.4015,140.9722 342.7132,155.5695 339.9377,170.7365 338.0277,186.7046 337.0565,202.825 336.9909,219.5755 337.8626,237.0035 339.6517,254.6125 342.3142,272.2829 344.8579,285.5302 347.8727,298.8285 351.4329,312.4394 355.319,325.5014 359.6935,338.5869 364.49,351.5268 369.8146,364.6256 375.7791,378.1204 383.3981,394.0246 391.5842,409.8736 399.9979,424.9393 409.0906,440.1222 430.3811,472.9959 455.4399,508.7331 472.6048,533.864 482.3292,549.3696 489.8139,562.7229 494.396,572.235 498.3538,581.5429 500.8931,588.5497 504.1632,599.1986 505.6096,605.1482 507.6123,615.8812 509.583,635.426 510.053,637.867 510.541,638.339 511.3298,637.5356 512.6474,634.6369 526.7807,597.6222 535.9778,575.2585 546.1437,552.0972 560.146,522.1594 563.4491,514.3796 558.977,521.2996 551.1066,536.3986 543.8159,552.0928 537.9038,566.1645 528.5139,591.7731 522.416,610.6282 514.9427,635.2723 511.643,644.632 513.3127,637.8326 518.9998,620.0989 524.4699,604.9706 531.522,586.8747 544.0144,557.2947 564.327,513.629 565.7031,509.8281 564.2482,511.5745 560.2962,518.1696 552.3424,533.3105 545.5882,547.6131 537.7469,565.8429 532.2822,580.1673 526.0951,598.4049 513.8371,638.801 509.9155,650.3345 510.521,646.4869 512.4144,639.6053 519.0871,619.1181 531.5131,586.377 545.2483,554.18 564.5243,513.1649 568.2051,504.6389 566.9479,506.185 562.2886,513.686 554.096,528.7967 546.7351,544.0328 537.1642,566.4599 532.4164,579.1411 526.6602,595.873 521.9408,610.8467 511.2756,647.5977 509.1539,654.1752 507.959,656.679 508.0694,654.7269 509.8738,647.1782 514.701,631.4672 522.8454,608.2352 529.9913,589.6029 537.7966,570.7646 546.5465,550.8742 569.1531,503.7066 571.1387,498.8097 569.9967,500.0226 567.0991,504.4481 560.1606,516.268 554.3651,527.077 545.4737,545.7032 537.7745,563.8773 530.8502,582.3526 526.9274,593.9998 519.1549,619.795 508.4624,657.2639 506.679,662.476 505.7456,663.9945 505.9146,661.2817 507.3843,655.0278 512.9397,635.8408 519.4052,616.8412 528.7087,592.39 538.1295,569.7979 548.8886,545.5096 558.5745,525.0022 572.8628,496.3449 574.53,492.0904 572.2069,494.9739 567.5257,502.2612 555.3792,523.8651 546.2356,542.6718 537.6088,562.7975 531.8048,578.3479 526.6819,593.601 519.9668,615.9188 506.4844,664.7812 504.405,670.8304 503.655,672.2909 503.1691,672.5937 503.3027,670.0938 504.6018,663.5404 507.6881,651.6726 510.511,642.2063 518.5655,618.2765 528.1697,593.0099 537.659,570.1603 547.2948,548.4184 562.2674,517.2106 576.7783,488.4998 578.4612,484.4407 577.8613,484.7988 576.25,486.9265 569.1667,497.8125 557.6974,517.7451 547.5592,538.1182 537.5491,561.3361 531.0762,578.9883 524.5882,598.8635 519.309,617.2877 505.129,670.7282 502.1551,679.8426 501.0509,682.3009 500.3853,682.8749 500.1264,682.2319 500.2193,679.9178 501.398,672.9238 504.258,661.4381 507.8576,649.0131 516.1822,623.6097 528.0178,592.1912 537.9163,568.6822 550.4617,540.8765 564.4178,512.4323 581.7108,479.0197 583.2284,475.3275 582.164,476.19 579.9324,479.2176 570.9061,492.9283 564.6037,503.2955 557.6815,515.6959 551.5299,527.4311 547.0575,536.7069 536.6052,561.4029 529.7456,580.3835 523.6049,600.406 517.8736,621.4808 506.875,666.0644 502.1215,683.842 498.9363,692.8138 497.5698,695.3091 496.9062,695.6562 496.5,694.0 496.5987,691.6158 498.3034,681.6094 500.8276,670.8394 504.7277,656.7992 509.0293,642.9313 514.3844,627.1346 526.697,594.3143 538.7636,565.487 552.0679,536.6097 565.9194,508.6227 587.1733,468.4949 589.1875,463.9648 588.1178,464.9078 585.375,468.5312 576.0995,482.0598 567.1927,496.1064 559.3737,509.6037 553.1194,521.2117 546.757,534.2399 541.7084,545.4917 536.4856,558.4745 529.5999,577.8811 525.3008,591.712 521.7081,604.5364 514.5119,633.7972 505.75,673.375 499.1726,698.5512 497.5959,703.6343 495.5673,708.7568 494.0187,711.5629 492.855,712.394 492.195,711.262 491.9386,708.4335 492.8882,699.5226 495.3097,687.177 499.3778,671.1419 504.1003,654.8259 509.7226,637.4945 516.2226,619.1801 523.4206,600.4138 531.0864,581.6624 539.1108,563.0875 547.633,544.371 556.6275,525.5461 572.1574,495.1354 594.8604,454.3615 597.1664,449.6097 596.1146,450.3952 592.7812,454.498 580.343,471.6779 571.0678,485.7972 561.8701,500.944 554.3715,514.3108 548.0439,526.7705 541.8623,540.2841 536.1438,554.3361 531.9236,565.7884 528.1545,577.3957 524.0369,591.5936 520.3744,605.8958 513.7731,636.3106 503.3136,689.8833 498.3027,711.0 494.6941,722.9703 492.0657,729.8636 489.3573,734.875 487.963,736.1853 486.9681,736.3198 486.0689,734.9996 485.5402,731.5123 485.6026,727.1583 486.17,721.2358 488.6819,706.1411 492.9724,687.676 498.4007,667.9843 504.8067,647.6521 512.6966,625.0551 521.3765,602.2289 530.2921,580.5271 539.8827,558.6369 550.1413,536.5848 561.0548,514.3751 571.1552,494.8567 581.1696,476.5312 592.0552,457.4392 608.75,429.125 606.8689,430.9241 601.0899,438.0597 585.8527,458.0449 574.0363,474.7076 564.1896,489.926 555.5438,504.6051 549.031,516.9294 540.7009,534.7956 535.2662,548.2671 529.8645,563.5929 525.6951,577.427 522.1272,591.4237 518.1866,609.9194 513.7104,636.2582 506.5425,688.8685 503.4827,708.4012 499.8935,727.6481 496.5911,741.9996 494.5248,749.645 491.8122,757.9196 489.2896,764.6541 486.8162,770.1178 484.2947,774.701 481.9489,777.7964 479.9431,779.3693 478.9291,779.6762 477.9729,779.5667 477.0785,779.0162 476.062,777.6797 474.9031,774.1431 474.3128,768.8992 474.3186,761.5967 474.9658,752.915 476.2073,743.1864 478.0839,732.0966 480.4939,720.2976 486.7949,694.8023 494.9237,667.1281 504.285,639.2159 515.0315,610.6107 527.2828,580.8092 540.7969,550.3384 553.3048,524.1626 567.1541,497.1634 582.8322,468.534 598.3403,442.0385 613.8123,417.4137 630.3779,392.8876 623.3038,400.7293 595.5807,433.0614 582.4673,449.3067 571.6799,463.5709 561.7924,477.8692 552.9573,491.9336 545.1294,506.0691 538.4275,519.9421 531.9828,535.8864 527.4113,549.9894 523.3034,566.278 520.1251,583.8627 518.4174,601.4809 518.2253,616.3793 518.8272,625.0581 519.5086,629.4903 520.7637,633.7852 521.5741,635.1225 522.5027,635.8905 523.3296,636.1046 524.2991,635.8798 526.0314,634.4495 527.9991,631.243 530.1797,626.1939 532.816,618.2748 535.1941,609.8693 539.284,591.0778 542.8795,568.698 545.908,543.387 547.8622,519.3641 549.1091,492.9612 549.5032,469.2309 549.1773,445.5964 548.109,421.4486 546.3439,397.9087 543.9415,375.5294 540.9401,354.3104 537.0628,332.4126 532.6341,311.7388 527.8319,292.8817 522.444,274.9393 516.6296,258.4932 510.265,243.1015 503.1919,228.4353 495.8338,215.4271 488.0885,203.8905 480.2343,194.2511 472.0031,186.2248 467.8898,182.9449 463.4235,179.9096 459.3061,177.5883 454.8678,175.5969 450.8064,174.2443 446.4613,173.3077 442.1903,172.9238 438.3289,173.0626 434.5595,173.6772 430.7452,174.8146 427.062,176.4355 423.5337,178.5172 420.1687,181.0405 416.7177,184.2499 412.7637,188.8442 409.1526,194.1065 405.9048,199.9914 403.0408,206.453 400.5201,213.622 398.4597,221.1182 396.7382,229.3659 395.4462,237.9732 394.5707,246.8787 394.087,256.423 394.0279,266.1557 394.3968,276.2897 395.1901,286.501 396.3713,296.7082 400.0458,318.4684 404.3203,337.2059 409.2887,355.0595 415.5279,374.0541 423.1274,394.4395 429.3485,409.8186 436.2222,425.5854 464.6454,486.7263 474.3141,508.4025 480.983,524.3468 487.3264,541.4776 492.4273,557.3121 497.9604,578.2774 501.8686,599.1547 503.9066,615.1745 505.0665,628.3289 505.7081,641.2695 505.9075,651.8731 505.6811,665.3259 504.3618,689.7373 501.3714,715.627 498.7536,730.7258 496.5019,741.1717 493.528,752.482 490.1345,762.9403 486.9516,770.5099 483.4244,776.726 480.3856,779.9623 478.9739,780.6569 477.66,780.6382 476.4535,779.8185 475.625,778.625 474.5381,775.3233 473.9438,769.7272 473.9769,762.3347 474.5671,753.9215 475.7838,744.3237 477.6444,733.3932 480.0328,721.7221 486.3083,696.2332 494.4835,668.3593 504.5518,638.2622 515.1978,609.8565 527.2488,580.5487 540.525,550.6334 553.5038,523.4108 567.5296,496.068 582.7711,468.2838 597.8643,442.5513 612.6517,419.0524 630.8304,391.9775 610.3891,415.2907 594.139,434.3967 581.9691,449.5864 570.1381,465.3539 560.6983,478.9476 552.5518,492.0357 545.055,505.644 538.3866,519.4972 532.2423,534.4663 527.6445,548.5219 523.3477,565.155 520.3265,582.3604 518.5011,600.3068 518.3277,615.2073 519.0,623.0 519.6885,626.8901 520.9519,631.0291 521.7,632.234 522.5831,632.9124 523.5,633.125 524.2307,632.9437 526.1946,631.0711 528.4679,627.0492 530.7326,621.5903 532.8652,615.0473 535.0633,606.8889 539.0708,588.0445 542.5514,566.2826 545.3835,542.1388 547.3776,517.455 548.541,492.0226 548.9264,468.0224 548.5962,444.7029 547.5818,422.5453 545.7629,398.6665 543.3554,376.1468 540.2891,354.3377 536.7399,334.3249 532.2665,313.614 527.3464,294.3255 522.0754,276.6835 516.2905,260.1338 510.1537,245.1771 503.1408,230.6654 495.6909,217.5395 488.076,206.2158 480.1626,196.4708 472.0186,188.464 468.0,185.25 463.8453,182.4145 459.7093,180.0588 455.6041,178.1806 451.5419,176.7774 447.1737,175.7855 443.2406,175.3676 439.0422,175.4448 434.9554,176.0752 431.3208,177.1364 427.492,178.8183 424.0948,180.8518 420.7354,183.4166 417.5581,186.417 413.6885,190.9593 410.1553,196.1553 406.9725,201.9533 404.1543,208.3016 401.7148,215.1485 399.5792,222.8042 397.902,230.7455 396.5924,239.3735 395.7154,248.296 395.2532,257.4577 395.1936,267.1963 395.5449,277.0724 396.3216,287.3915 397.4527,297.334 401.0153,318.5222 405.1532,336.6517 410.4508,355.8137 416.0846,373.192 422.9614,391.8423 431.25,412.375 437.9727,427.9652 464.9676,486.1242 471.903,501.6348 480.9769,523.4007 487.6739,541.6554 493.3478,559.1161 497.9172,577.0136 501.7068,596.7279 504.0899,613.8864 505.423,628.8565 505.9664,639.8719 506.2832,654.7473 505.9758,671.2507 505.3742,683.8756 504.3987,695.9983 502.5082,712.2439 500.6081,725.0779 498.519,736.6582 495.812,748.1883 492.3024,760.4267 489.1351,769.5078 485.6195,777.1804 482.1641,782.6864 480.6689,784.3553 478.9516,785.6318 477.6413,786.0376 476.4028,785.8433 475.25,785.0 474.4387,783.816 473.2188,779.8438 472.5822,773.4549 472.5815,765.6332 473.2509,757.0356 474.5713,746.9959 479.1232,722.7867 485.5162,697.0282 493.8748,668.7831 503.5773,639.953 514.9178,609.8138 527.3661,579.5485 540.6151,549.7463 554.518,520.813 569.5377,491.6948 585.082,463.5743 601.2195,436.389 616.6706,412.1596 633.5276,387.6664 597.1667,429.1532 584.0735,444.966 574.0634,457.8117 564.1202,471.6694 555.4294,484.8607 547.7668,497.9965 540.5152,511.9313 534.0659,526.7378 529.0131,540.6604 524.634,556.2827 521.5452,571.3298 520.2529,580.3078 519.4265,588.6735 519.019,604.5185 520.155,614.783 521.2602,617.8346 522.1384,619.2085 522.7361,619.6296 523.4079,619.7298 524.5005,619.2961 526.3032,617.2585 528.3582,613.398 530.2486,608.5189 534.0,595.25 537.9203,575.7204 541.0754,553.8944 543.4901,531.2239 545.1236,507.5132 545.9993,483.4531 546.1005,461.4189 545.5052,438.1879 544.2995,415.6228 542.5053,394.3563 540.1645,374.4573 536.8664,352.7154 533.1681,332.7963 528.9242,313.772 524.2681,296.2218 519.1547,279.8856 513.368,264.0261 507.0351,249.095 500.3803,235.6399 493.4859,223.7817 486.3005,213.4466 478.9242,204.7183 471.0965,197.3091 463.2098,191.675 459.2762,189.5471 455.366,187.891 451.492,186.7162 447.9591,186.067 444.0655,185.8322 440.1194,186.1144 436.6369,186.8241 432.934,188.0893 429.6949,189.6677 426.2841,191.861 423.0458,194.5184 419.9934,197.625 416.3986,202.2045 413.3563,207.0855 410.5027,212.7636 408.013,218.929 405.8837,225.5388 404.0282,232.9293 402.5647,240.7145 401.4893,248.8442 400.7981,257.2683 400.4811,266.1982 400.9854,284.5294 402.9594,303.8621 406.434,324.293 410.1765,340.627 414.8785,357.5577 421.0087,376.6547 427.936,395.9339 433.935,410.9925 441.4193,428.5448 475.3646,504.6111 483.6122,525.3628 489.4941,541.6783 496.1788,563.7947 500.944,584.5284 502.7773,594.3474 504.8076,607.7325 506.7152,626.2232 507.5144,637.7959 508.2308,657.6241 508.2485,674.5483 507.6945,693.3219 506.697,708.6492 504.9725,726.4401 501.6447,748.6108 498.7464,762.6597 494.8354,777.8472 491.2679,788.4443 487.2783,798.3196 483.0641,806.4622 478.75,812.5 476.4427,814.7742 474.4776,816.0838 472.5349,816.6937 470.9406,816.5925 469.6414,816.0121 468.3621,814.7929 467.2167,812.8972 466.3579,810.691 464.9541,803.8948 464.4194,795.5905 464.6845,785.7131 465.734,773.9254 467.6297,760.0426 470.0161,746.602 473.1712,731.7857 476.9686,716.1709 481.4413,699.6068 486.5571,682.2498 497.4475,649.2889 510.7225,613.7355 525.3524,578.2141 540.5633,544.416 557.6284,509.6412 575.6892,475.6312 594.4382,443.0373 614.067,411.6011 623.9294,396.8083 633.2948,383.4468 642.4052,371.1879 649.2895,362.7149 634.9732,378.5874 597.8319,417.9646 581.9915,435.606 572.2099,447.186 563.0591,458.6851 556.3612,467.7533 550.2068,476.8809 542.8366,489.0714 536.5271,500.9541 531.445,512.2495 527.0834,523.9444 524.0124,534.4001 521.601,546.6657 520.9922,555.8125 521.3516,558.8125 522.0543,560.3316 522.641,560.3622 523.2977,559.8418 524.3122,558.0201 525.6641,554.3156 526.9693,549.283 529.4057,536.798 531.5502,519.6473 532.8459,504.5807 533.8007,485.0028 534.0558,468.6301 533.7578,450.2305 533.0548,432.7388 531.937,416.5641 530.2771,400.2332 528.0741,383.2077 525.5532,367.3646 522.7123,352.5709 519.3047,337.6951 515.4657,323.2357 511.2838,309.5895 506.9168,297.266 502.4264,286.3309 497.3225,275.6171 491.9945,265.9594 486.4277,257.3675 480.8873,250.2457 475.1632,244.3453 469.1464,239.583 462.8875,236.1297 457.1449,234.4004 454.1918,234.0979 451.6269,234.1899 448.8009,234.7077 446.2711,235.5638 443.8563,236.7575 441.2817,238.4902 436.8467,242.8362 433.001,248.497 430.8431,252.8112 429.0804,257.2566 427.4624,262.4815 426.1419,268.086 424.3161,280.6671 423.625,294.75 424.0834,308.4117 425.6825,323.5398 428.655,341.4819 432.1385,357.3316 439.1456,382.1676 447.7855,407.8779 459.1599,437.5286 480.8951,490.7778 489.1106,512.2105 499.1788,541.1624 512.806,584.2913 516.045,591.5713 517.6962,593.9231 519.1935,595.2637 521.006,595.6506 522.8809,594.6932 524.7031,592.4688 526.5881,588.8636 528.4613,583.8631 530.3333,577.5927 533.656,562.3953 536.5758,543.4996 538.8277,522.2667 540.2548,500.6524 541.0125,476.403 541.0001,456.3182 540.375,437.25 538.8944,413.9181 536.8244,391.999 534.3357,372.5609 531.2524,353.7238 527.4992,334.883 523.3298,317.3612 518.7307,301.0047 513.6949,285.7942 508.0987,271.3472 502.0068,257.8449 495.6634,245.833 489.1582,235.4221 482.526,226.6353 475.4038,218.9996 467.8933,212.7765 460.7187,208.5565 457.0167,207.056 453.663,206.114 450.0606,205.5684 446.696,205.5182 443.1637,205.9521 439.7635,206.8768 436.5043,208.2764 433.3951,210.1348 430.4449,212.4363 427.6625,215.1648 425.057,218.3045 422.6374,221.8393 420.1224,226.3243 417.8998,231.2293 415.9632,236.5246 414.2142,242.5393 411.6492,255.6031 410.271,270.1947 410.1337,285.3639 411.1848,301.6001 413.4704,319.1928 416.8646,337.1711 420.2123,351.0361 424.4504,365.9884 429.8833,382.9047 435.564,398.9293 449.0081,432.7705 478.9669,502.9315 487.9604,526.6951 494.7447,547.3343 498.1036,558.7105 501.5422,572.1544 506.2116,594.8259 509.9656,617.5972 514.9772,653.6288 516.5965,662.2123 517.5146,665.4941 519.2697,670.0532 520.3931,671.7814 521.625,672.75 522.5193,672.9613 523.5352,672.7669 525.9021,670.9255 528.4213,667.0463 530.9206,661.6452 533.5739,654.7667 535.8503,647.6563 541.4973,625.288 546.0953,601.4821 549.7074,577.605 552.9109,548.7792 555.1353,520.9908 556.3328,496.1973 556.8383,469.2416 556.5827,443.8378 555.595,419.343 553.8138,394.7783 551.1496,369.0858 547.887,345.0593 543.9429,321.9873 539.5258,300.9023 534.5614,281.1532 528.6978,261.3015 522.3879,242.9572 515.5804,225.9052 508.3295,210.299 500.8582,196.5576 492.9109,184.1896 484.2424,172.8999 475.3083,163.3758 470.7717,159.3035 466.2048,155.706 461.6195,152.5943 457.028,149.9794 452.4421,147.8725 448.1588,146.3686 443.6191,145.2771 439.1401,144.7103 434.7419,144.6532 430.437,145.0918 426.2378,146.0123 421.8225,147.5371 416.2845,150.3305 411.0464,153.9936 406.1437,158.4869 401.3576,164.1055 397.2579,170.1756 393.3887,177.3086 390.0038,185.0894 387.0999,193.4447 384.5833,202.6798 382.5819,212.3759 381.092,222.45 380.0814,233.2388 379.63,243.8435 379.694,255.1733 380.296,266.9586 381.3923,278.7614 382.876,290.1413 384.8645,302.1697 387.375,314.75 390.0088,325.9883 393.1716,337.7119 396.7482,349.4909 405.6007,374.7465 414.9832,398.1398 425.8105,422.1429 439.8867,451.1 465.6217,501.792 476.005,523.8213 482.857,540.308 488.0453,554.1783 492.4492,568.026 495.9154,581.1812 500.1427,602.9592 501.3416,611.7921 502.3773,622.6314 502.9859,632.4956 503.1889,642.8294 503.1091,653.8205 502.6502,664.4169 501.8551,675.7158 500.6291,686.0056 498.8248,697.9696 496.5751,709.526 494.2451,718.656 491.7467,726.4101 489.4974,730.7725 488.5332,731.841 487.6913,732.0786 486.8425,730.9502 486.3981,727.7593 486.5,723.125 487.0633,717.6765 489.7217,702.4938 493.9698,684.5224 499.3741,665.393 506.059,644.4163 513.6523,622.8743 522.049,600.94 530.3831,580.6614 539.6413,559.4994 549.4543,538.2982 559.353,518.0492 569.7191,497.9517 580.5786,477.8846 591.352,458.8818 604.7752,436.47 606.763,432.4256 605.1846,433.9021 600.8994,439.2078 585.4411,459.4977 574.3101,475.4478 564.0,491.5"/>
  </g>
</svg>
