<?xml version="1.0" encoding="utf-8" ?>
<svg xmlns="http://www.w3.org/2000/svg" xmlns:cc="http://creativecommons.org/ns" xmlns:dc="http://purl.org/dc/elements/1.1/" xmlns:ev="http://www.w3.org/2001/xml-events" xmlns:inkscape="http://www.inkscape.org/namespaces/inkscape" xmlns:rdf="http://www.w3.org/1999/02/22-rdf-syntax-ns" xmlns:sodipodi="http://sodipodi.sourceforge.net/DTD/sodipodi-0.dtd" xmlns:xlink="http://www.w3.org/1999/xlink" baseProfile="tiny" height="27.09333333cm" version="1.2" viewBox="0 0 1024.0 1024.0" width="27.09333333cm">
  <metadata>
    <rdf:RDF>
      <cc:Work>
        <dc:format>image/svg+xml</dc:format>
        <dc:source>vpype read './original_svgs/Strange Attractors #501.svg' linemerge linesimplify write './Strange Attractors #501.svg'
</dc:source>
        <dc:date>2024-08-05T01:36:06.086616</dc:date>
      </cc:Work>
    </rdf:RDF>
  </metadata>
  <defs/>
  <g fill="none" id="layer1" inkscape:groupmode="layer" inkscape:label="1" stroke="black" style="display:inline">
    <polyline points="348.6527,0.0 336.0939,26.193 324.8961,52.2623 315.0894,78.1387 306.5992,104.0886 299.6734,129.3534 294.2736,153.8818 290.2273,178.3623 287.4412,203.3879 286.0455,226.7008 285.7681,250.2707 286.616,274.6918 288.5802,299.7446 291.281,323.1715 294.8367,347.5901 298.7434,370.6473 307.4072,418.146 310.6708,438.3041 313.3987,460.5206 314.767,480.0019 314.9678,491.3439 314.6599,501.915 313.8247,512.124 312.4867,521.6595 310.5726,530.999 308.0552,540.1906 304.9859,549.0809 301.3702,557.6901 295.2147,569.6347 287.9538,581.0999 279.6036,592.1465 269.747,603.2907 258.7524,614.0847 246.1673,624.9705 232.234,635.7256 216.6237,646.615 200.8008,656.7441 183.4929,667.0534 164.1732,677.8478 142.7981,689.1511 101.2755,709.9025 -0.0,758.5086 27.6129,745.2554 107.8712,707.5824 149.4312,687.2225 171.2032,675.9306 190.5514,665.3289 208.169,655.0434 224.375,644.875 240.4548,633.888 254.8354,623.0293 267.8478,612.0426 279.4868,600.9037 289.7551,589.5943 298.6163,578.175 306.223,566.4787 312.5277,554.6296 316.2655,546.0954 319.4753,537.2862 322.1544,528.1811 324.3003,518.7588 325.8875,509.1106 326.944,499.2032 327.5253,488.5975 327.6222,477.6056 326.7776,457.966 324.6694,435.7506 321.8885,414.5405 311.5337,344.7084 308.7394,320.7427 306.7647,297.8662 305.5443,273.0626 305.41,248.8337 306.381,225.0271 308.4357,201.8106 311.8923,176.9351 316.695,151.9725 322.8355,127.0798 330.2259,102.6654 339.2932,77.2843 349.9546,51.304 362.3807,24.4359 374.9918,0.0 362.4925,24.2853 351.1403,48.7111 341.0455,73.0206 332.0798,97.5308 324.4009,121.8038 317.9074,146.1296 312.6331,170.416 308.5999,194.5629 305.95,216.9034 304.2504,239.8503 303.5291,263.0896 303.7662,287.2424 304.7134,308.4987 306.3844,331.574 313.5205,403.487 315.3569,424.9683 316.4222,445.5143 316.4263,463.3068 315.8382,474.7625 314.811,485.4121 313.3114,495.6915 311.3187,505.6199 308.8125,515.2163 305.8947,524.1615 302.3208,533.162 298.3352,541.5717 291.5336,553.5271 283.6908,564.9848 274.5795,576.2717 264.1389,587.3995 252.6115,598.1227 239.458,608.9344 224.9842,619.5987 208.9064,630.3362 192.2054,640.5643 173.6073,651.1199 153.597,661.736 131.3452,672.8475 107.7323,684.0542 80.3915,696.5228 0.0,731.8191"/>
    <polyline points="1024.0,633.6669 947.4625,636.6768 873.3151,640.1087 801.4112,643.9664 730.9758,648.2914 659.857,653.2052 590.478,658.5667 523.5508,664.3192 457.8079,670.5715 392.2834,677.3831 330.1176,684.4428 271.4518,691.7357 215.5303,699.3515 157.6656,707.9238 102.2932,716.8534 50.0553,726.0347 0.0,735.6295"/>
    <polyline points="1024.0,584.3032 883.6542,588.5152 746.4086,594.0178 610.3636,600.9134 479.2629,608.9881 416.8231,613.3857 355.4982,618.0859 291.4347,623.3878 229.5955,628.9009 173.487,634.2787 119.4509,639.8329 58.2144,646.5636 0.0,653.3396"/>
    <polyline points="1024.0,487.751 911.757,488.6819 796.331,490.1929 683.3183,492.2025 570.9166,494.7402 451.2024,498.0063 327.8397,501.8021 0.0,513.3435"/>
    <polyline points="364.2511,0.0 349.7988,27.7622 336.1836,55.8011 323.5179,83.9051 312.0169,111.5718 300.3426,142.4247 289.0709,175.4196 278.8467,208.1383 255.8951,285.3526 249.3814,305.5685 243.2114,323.0835 235.0274,343.6014 226.1784,362.5931 216.7106,380.0225 206.4862,396.1402 198.6381,406.9691 190.4579,417.0855 181.776,426.7299 172.2977,436.2292 162.2465,445.356 151.3273,454.3637 139.8038,463.0231 127.676,471.3568 114.6006,479.5949 100.9424,487.5076 86.38,495.2865 70.8976,502.929 54.4721,510.4405 37.4426,517.6815 19.0789,524.9645 0.0,532.0434"/>
    <polyline points="357.8171,0.0 348.8426,17.3175 340.4924,34.7753 332.9482,52.005 326.1976,68.9986 320.1119,86.0946 314.8269,102.9281 310.3296,119.4907 306.5385,136.1033 303.5919,152.093 301.3557,168.1036 299.8839,183.7968 299.1492,199.5437 299.1484,215.4178 299.8966,231.3322 301.4061,247.2631 303.62,262.8032 307.0566,280.5712 311.5211,298.5395 316.9146,316.3006 323.322,334.1692 330.7264,352.088 339.0887,369.9999 348.6677,388.4408 359.113,406.7599 369.3186,423.2919 380.2361,439.8111 392.0153,456.5736 405.0078,474.0779 430.6866,506.6424 491.1192,580.3013 503.8212,596.5423 513.9803,610.3431 525.6286,627.7804 535.0136,643.869 542.3806,658.9793 545.267,666.0464 547.7931,673.2302 550.0544,681.1189 551.7921,689.2577 552.91,697.2595 553.4244,705.4011 553.3051,713.3026 552.5945,720.9907 551.262,728.8451 549.2777,736.871 544.5977,750.4801 538.0655,765.0059 531.0053,778.3713 513.5069,809.2337 506.1636,823.6866 500.9275,836.5065 499.1029,842.4387 497.8136,847.9582 496.924,853.8137 496.5784,859.285 496.7378,864.7501 497.4695,870.4096 498.6956,875.5252 500.4985,880.6046 502.9045,885.6477 505.7309,890.3426 509.8826,895.9345 514.8987,901.4804 520.8162,906.9804 527.1597,912.0451 534.49,917.138 542.7371,922.1733 551.594,926.9786 561.3528,931.7266 572.0367,936.4158 583.6689,941.0446 595.9996,945.5164 608.5757,949.6705 636.4263,957.6831 667.9366,965.3018 703.1807,972.5266 741.1067,979.1602 780.6381,984.99 823.5388,990.3101 871.3971,995.2582 922.3114,999.5913 971.9419,1002.9783 1024.0,1005.7096"/>
    <polyline points="1024.0,764.0877 965.7597,769.5809 909.9139,775.6717 855.569,782.4703 804.8427,789.7111 758.5368,797.2652 715.5851,805.2932 674.6076,814.0252 637.7706,823.0566 605.3695,832.3191 589.7805,837.3588 575.0627,842.5221 561.8399,847.5968 550.0355,852.5882 539.2714,857.6504 529.8325,862.6404 521.2582,867.8068 513.6493,873.1149 507.1886,878.4561 502.147,883.5466 497.9855,888.9521 495.1617,894.1036 493.4455,899.2847 492.856,904.4815 493.4655,909.897 495.2227,915.0126 498.1502,920.1138 502.2697,925.2007 507.6033,930.2732 514.1727,935.3313 522.0,940.375 530.2082,944.9089 539.794,949.5129 550.5469,954.0512 562.4814,958.5221 575.6121,962.9241 589.9535,967.2555 605.0582,971.394 638.2548,979.3016 674.9149,986.5025 715.608,993.1543 760.6678,999.3145 809.1631,1004.8572 857.993,1009.4094 910.3532,1013.3316 965.7025,1016.5805 1024.0,1019.1536"/>
    <polyline points="1024.0,751.3794 961.2869,756.6889 901.0708,762.7024 840.6345,769.6483 784.1009,777.1004 731.484,785.0342 682.1376,793.5233 636.5638,802.4919 595.1485,811.8612 555.8769,822.1179 538.2191,827.2739 521.6387,832.5167 506.144,837.8518 492.0447,843.1657 478.794,848.6679 466.97,854.1111 456.2648,859.6216 446.6987,865.1993 438.2917,870.8443 431.064,876.5566 425.0357,882.3361 420.298,888.0765 416.7198,893.947 414.5434,899.4795 413.5755,904.6765 413.667,909.8871 414.8388,915.1148 416.9259,920.0124 419.9678,924.899 424.0281,929.7994 429.1173,934.6735 435.2511,939.5183 442.4452,944.331 450.3488,948.9105 459.6643,953.6522 469.6297,958.1585 480.885,962.7253 492.5927,967.0096 519.1338,975.4017 549.1319,983.3278 582.7862,990.8464 619.7509,997.8749 658.4467,1004.1153 700.4395,1009.843 746.002,1015.0921 794.6783,1019.806 846.6606,1024.0"/>
    <polyline points="1024.0,737.1084 948.5248,743.0533 878.1086,749.5222 812.8184,756.4976 750.5244,764.2072 690.7836,772.6903 635.1012,781.7688 581.8505,791.7521 533.2821,802.171 510.8894,807.5234 489.9644,812.9211 470.1429,818.4585 451.1716,824.2106 433.3958,830.0569 416.8529,835.9922 401.5461,842.0229 387.4785,848.1552 374.931,854.2524 363.5109,860.4946 353.4031,866.7974 344.6374,873.1614 337.2407,879.5895 331.4445,885.8337 326.9627,892.1425 323.8588,898.4168 322.3477,903.4232 321.7211,908.1042 321.8648,912.7921 322.7923,917.4861 324.5169,922.1849 327.0519,926.8876 330.4108,931.5932 334.2792,935.9644 339.0699,940.5024 344.4441,944.8466 350.8583,949.3373 357.8473,953.6384 365.6435,957.9134 374.2564,962.159 393.9718,970.5491 416.1196,978.4692 440.9082,986.041 468.3278,993.2229 498.557,1000.0782 531.9325,1006.6712 568.4933,1012.9821 606.9985,1018.8031 646.7569,1024.0"/>
    <polyline points="1024.0,720.5858 943.2899,726.2494 864.0535,732.9506 785.9774,740.6237 714.6707,748.79 645.6511,758.0338 579.9973,768.1113 521.7148,778.3923 494.9448,783.6508 467.2652,789.4812 441.091,795.3796 416.2308,801.4041 393.0316,807.4791 371.4346,813.6161 351.13,819.9063 331.4215,826.5658 313.1359,833.3228 296.6283,840.0381 281.5057,846.8616 267.7789,853.8006 255.3865,860.9065 244.8258,867.8648 235.7277,874.892 228.1257,881.9948 222.0534,889.1799 217.6828,896.1829 215.6231,900.8093 214.2515,905.2836 213.4914,909.8565 213.3907,914.4372 213.962,919.0255 215.2179,923.6216 217.1708,928.2254 219.6193,932.5073 222.9519,937.126 226.7032,941.4217 231.0972,945.7241 236.336,950.184 242.0391,954.4496 248.4231,958.6985 262.9727,966.9752 279.9223,975.0005 299.6229,982.9201 321.6867,990.5619 346.0907,997.9254 372.5959,1004.933 401.1183,1011.5845 431.9093,1017.9438 464.9596,1024.0"/>
    <polyline points="1024.0,701.204 933.7745,706.7912 848.4596,713.2295 757.7267,721.3986 674.6212,730.1339 601.2077,739.155 522.7697,750.3092 488.0056,755.7903 455.2836,761.3269 424.1644,766.9913 394.515,772.8083 363.6993,779.2905 334.7608,785.8306 307.2751,792.5268 281.5707,799.2999 257.2629,806.2515 233.091,813.7696 210.7316,821.3311 190.7021,828.7542 172.5399,836.1903 156.1874,843.6562 141.169,851.3906 127.8678,859.1546 116.1444,867.0161 106.0433,874.9789 97.8328,882.8083 91.233,890.7408 88.2045,895.315 85.7889,899.8118 83.9306,904.3289 82.6387,908.8663 81.9221,913.4239 81.7898,918.0017 82.2507,922.5999 83.2104,926.8623 84.8374,931.4993 87.0838,936.1567 89.9587,940.8343 93.234,945.2308 97.1696,949.6875 101.5167,953.9352 106.4508,958.1761 111.9818,962.4097 124.8749,970.8533 140.2764,979.2621 157.8075,987.4335 177.7477,995.5004 198.797,1002.9184 222.2639,1010.1961 247.8441,1017.2284 275.4436,1024.0"/>
    <polyline points="1024.0,677.5181 936.5174,682.1942 853.09,687.576 764.1855,694.3446 680.4281,701.7157 603.9372,709.4658 529.5716,718.0844 458.1384,727.436 391.065,737.3602 326.3326,748.1989 266.3486,759.5432 211.1362,771.3735 185.5992,777.3933 159.4155,783.9653 135.1074,790.4624 112.3238,796.9683 90.6635,803.6033 70.4541,810.2716 51.6413,816.9811 32.9938,824.1892 15.949,831.336 0.0,838.6417"/>
    <polyline points="0.0,1002.4454 13.476,1008.0512 27.5799,1013.4526 42.7581,1018.8323 58.4966,1024.0"/>
    <polyline points="1024.0,647.4113 945.2103,650.8481 868.764,654.7538 794.4398,659.1413 722.6195,663.9886 650.2249,669.5277 579.6818,675.5673 512.5813,681.9767 448.4137,688.8008 383.29,696.4862 320.7919,704.564 262.1417,712.8843 207.0825,721.4767 149.2005,731.3958 95.8543,741.4091 46.3062,751.6564 0.0,762.2574"/>
    <polyline points="1024.0,605.2893 952.2682,607.5912 882.2173,610.2314 814.4125,613.1861 747.3857,616.5198 677.0688,620.4301 608.9939,624.6394 543.1081,629.1523 479.3554,633.9736 412.3286,639.5377 347.9083,645.3174 286.8695,651.2459 228.972,657.3442 168.7437,664.2376 109.0471,671.5826 53.0987,678.9916 -0.0,686.5741"/>
    <polyline points="1024.0,534.7088 895.2627,537.0528 769.7536,540.2448 638.3881,544.5229 511.3575,549.6024 382.3263,555.7846 253.4992,562.868 143.7835,569.7286 0.0,579.6699"/>
    <polyline points="0.0,710.4856 51.6958,701.9921 106.1067,693.7386 163.1255,685.7416 222.7958,677.9922 280.0546,671.1549 339.7998,664.5971 402.5543,658.2594 468.4597,652.1299 532.6614,646.6857 599.1197,641.5824 667.8961,636.8148 739.0487,632.3778 805.502,628.6688 873.6028,625.3282 939.0643,622.5258 1024.0,619.3283 951.1367,621.9516 879.2676,624.9885 809.0914,628.4095 740.0512,632.2394 668.3902,636.6893 599.4977,641.4465 532.5528,646.5692 468.2419,652.0061 402.3234,658.1235 339.4537,664.4604 279.6071,671.0173 222.6082,677.8103 163.2608,685.504 106.1177,693.5042 51.9584,701.7041 0.0,710.2247"/>
    <polyline points="0.0,617.8874 122.3776,606.7777 250.7818,596.47 372.0154,588.0476 504.8462,580.0836 623.851,574.0071 749.5149,568.7784 880.4297,564.4212 1024.0,560.7235 892.4503,563.8843 756.5664,568.3104 628.7984,573.5574 508.6131,579.6382 374.3006,587.6545 251.8028,596.1353 123.2962,606.4369 0.0,617.6176"/>
    <polyline points="1024.0,400.0957 779.5427,398.2181 355.9948,396.8476 241.9155,396.1669 104.6149,394.3803 50.8108,393.0925 0.0,391.402"/>
    <polyline points="320.2883,-0.0 257.3364,116.7196 240.5881,146.6898 225.9502,171.718 210.3138,196.8969 195.787,218.463 181.5628,237.6377 167.0948,255.1538 158.6862,264.5003 150.0514,273.5071 141.171,282.185 132.3066,290.2962 123.1753,298.118 113.4986,305.8618 104.0025,312.9492 93.9329,319.957 83.5784,326.6709 72.6077,333.294 61.3258,339.6313 49.7282,345.6963 37.5556,351.6217 25.5251,357.0536 -0.0,367.3173"/>
    <polyline points="335.8613,0.0 318.6804,32.1468 302.129,63.9286 248.6252,170.8538 237.2623,192.8409 226.7239,212.3743 213.4429,235.5035 200.5673,256.0335 187.9252,274.2436 174.8059,291.1596 166.4269,301.0176 158.0216,310.2325 149.0599,319.3733 140.0488,327.9124 130.7098,336.1332 121.0235,344.0456 111.0898,351.5725 100.5468,358.9818 89.6431,366.0894 78.0536,373.096 66.0868,379.8054 53.7449,386.2284 41.0302,392.3763 27.9471,398.2513 14.3797,403.8999 0.0,409.4493"/>
    <polyline points="353.5784,0.0 340.3143,25.0279 327.3269,50.7832 314.7077,77.0822 302.2265,104.4188 282.0657,151.5774 245.8034,241.7159 237.6653,260.6922 229.9564,277.5621 220.1253,297.3313 210.3141,315.0552 200.2528,331.2384 189.783,346.1533 181.6516,356.5855 173.3575,366.3342 164.3912,375.9878 155.2443,385.0095 145.6465,393.6943 135.5773,402.0567 124.8661,410.2272 113.5544,418.1672 101.4598,425.9851 88.8712,433.489 75.7862,440.7003 61.8477,447.8153 47.1017,454.7962 32.2813,461.2986 16.6773,467.6408 0.0,473.9271"/>
    <polyline points="371.8725,0.0 362.3118,18.2997 353.1291,36.9407 344.6152,55.3341 336.61,73.805 329.1354,92.3154 322.2123,110.8244 315.8602,129.2881 310.0974,147.6597 304.9821,165.6899 300.281,184.1036 295.9379,203.1433 291.9728,222.7057 285.6278,259.5229 273.1561,342.8276 269.4118,363.4909 265.5099,381.3622 259.7418,402.3175 256.5206,411.9898 253.0058,421.3477 249.1813,430.4082 245.197,438.8557 240.7185,447.3823 236.0756,455.348 228.5677,466.7506 220.3855,477.5792 211.4258,488.0042 201.461,498.2639 190.7171,508.1142 178.8883,517.8298 166.2398,527.1921 152.7363,536.2627 138.2117,545.1624 122.3179,554.0804 105.3354,562.8503 87.2527,571.5 67.3225,580.3812 45.9194,589.3145 23.6418,598.0433 0.0,606.7779"/>
    <polyline points="1024.0,517.1991 893.7948,519.1786 765.6355,521.8903 643.2015,525.2438 517.9187,529.4734 401.4358,534.0816 288.8483,539.2212 146.8195,546.5309 0.0,554.7784"/>
    <polyline points="373.2984,-0.0 362.9249,19.9594 353.2585,39.783 344.2128,59.6661 335.9633,79.2331 328.6316,98.1294 321.967,116.9755 315.8141,136.2814 310.2306,155.8453 305.3148,175.2591 300.8754,195.2348 296.9413,215.6707 293.4606,236.8064 290.688,256.4946 288.1275,277.5788 279.5779,359.6008 276.8805,378.9112 273.7952,396.047 271.3223,407.3613 268.6362,417.9139 265.6292,428.1169 262.4001,437.6391 258.8226,446.8646 255.0254,455.481 250.8604,463.8476 246.27,472.0391 238.9455,483.4742 230.8298,494.4312 221.6681,505.227 211.6655,515.601 200.522,525.8529 188.5775,535.6782 175.8288,545.1068 161.9734,554.3675 146.6705,563.6703 130.2044,572.8371 112.2113,582.08 92.3966,591.534 72.0796,600.5651 49.9952,609.7663 26.1203,619.1451 0.0,628.8854"/>
    <polyline points="1024.0,541.773 894.4237,544.3145 769.6715,547.7218 634.8182,552.438 505.0882,557.995 377.5205,564.5176 252.4966,571.8868 140.2986,579.4384 -0.0,589.8776"/>
    <polyline points="0.0,637.4204 26.4422,627.5485 50.9192,617.9117 73.818,608.3676 94.862,599.0256 114.4262,589.7204 132.5273,580.4436 149.2683,571.1466 164.6749,561.8046 178.8754,552.3485 192.2024,542.5393 204.3641,532.5787 215.4026,522.4612 225.4628,512.0725 234.6066,501.3354 242.872,490.177 250.2782,478.543 254.8057,470.3853 258.9556,461.9689 262.734,453.2767 266.0863,444.4625 269.106,435.3001 271.8728,425.5228 274.3868,415.0837 276.5864,404.2969 279.7176,385.1111 282.4768,362.7246 284.5591,341.2412 289.7509,279.6218 291.8961,259.1979 294.2507,240.4008 297.3996,219.3815 301.015,199.2077 305.1748,179.4144 309.9354,159.7471 315.4997,139.5415 321.8165,119.1813 328.7662,99.0859 336.4672,78.923 344.8857,58.8145 353.7357,39.402 364.237,18.1007 373.8849,0.0 359.5606,28.2498 346.9501,56.1719 336.1921,83.4576 331.5651,96.6809 327.3024,110.0285 323.4858,123.2886 320.0526,136.654 317.0786,149.8018 314.4709,163.1326 312.2484,176.6253 310.4724,189.8725 309.0847,203.2527 308.1172,216.3726 307.3376,241.1186 307.9108,266.2494 309.8223,291.5814 313.1468,318.1384 316.9771,341.0274 321.9014,365.3859 326.9213,387.3498 338.9518,437.0929 344.6606,463.0513 348.7248,485.6233 351.1109,505.3083 351.775,516.3427 351.8265,526.9951 351.2856,537.0105 350.1138,547.0556 348.4012,556.3811 346.0108,565.758 342.9991,574.8321 339.3662,583.6291 333.678,594.7571 326.9989,605.4304 318.9987,616.1981 310.0228,626.5828 299.8398,636.896 288.1223,647.4192 275.2868,657.7752 260.6768,668.5056 248.0612,677.1047 233.9712,686.1581 202.0075,705.2098 171.5835,722.1541 94.6494,763.6786 56.5862,785.2944 40.0148,795.3124 25.3274,804.6729 12.1561,813.6143 0.0,822.496"/>
    <polyline points="0.0,975.7985 11.9089,982.3426 24.7866,988.6974 38.96,995.0261 54.0089,1001.1465 70.0763,1007.1327 86.9616,1012.8988 104.8059,1018.5018 123.7986,1024.0"/>
    <polyline points="1024.0,657.1876 942.1184,660.9769 863.3689,665.2963 789.1116,670.0598 714.1392,675.6048 638.9855,681.8701 567.2977,688.5953 500.3132,695.641 431.5156,703.6982 367.0179,712.0555 306.2448,720.7807 247.6754,730.1128 191.3374,740.0089 139.8044,750.0062 92.0172,760.2736 43.6999,771.7859 -0.0,783.3365"/>
    <polyline points="1024.0,401.154 775.9115,399.2907 357.8873,398.1677 243.421,397.5454 106.0273,395.781 51.3434,394.5228 0.0,392.8933"/>
    <polyline points="321.0209,0.0 256.4406,119.8396 240.1046,149.1283 225.5974,174.0081 210.3468,198.5969 196.0026,219.9071 181.7637,239.1269 167.421,256.5307 159.0084,265.9078 150.3699,274.9426 141.4839,283.6459 132.6104,291.7792 123.4642,299.6207 114.0256,307.1804 104.5198,314.2829 94.4669,321.2769 84.1325,327.9693 73.1863,334.566 61.9327,340.877 50.3674,346.9199 38.1316,352.8788 25.6388,358.5395 0.0,368.9061"/>
    <polyline points="336.5847,0.0 318.8799,33.1838 301.5078,66.6585 247.7695,174.5409 236.351,196.7662 226.447,215.2376 213.3658,238.1107 200.681,258.4047 188.0635,276.655 175.2298,293.2846 166.88,303.1426 158.4887,312.3575 149.7949,321.2345 140.7791,329.7833 131.4217,338.0137 121.7034,345.9353 111.7208,353.4815 101.1517,360.9015 90.2289,368.0233 78.6227,375.0503 66.6379,381.7881 53.9233,388.4256 40.804,394.786 27.7322,400.6689 14.1527,406.3266 0.0,411.7879"/>
    <polyline points="354.4005,-0.0 340.9168,25.4758 327.8914,51.3813 315.1067,78.165 302.8192,105.2998 292.9818,128.1018 283.1456,151.9161 246.902,243.4192 238.3153,263.714 230.4293,281.1859 220.7708,300.8091 211.2795,318.1004 201.515,333.9079 190.839,349.2005 182.7402,359.6489 174.2344,369.6912 165.2929,379.3453 156.1624,388.3684 146.5672,397.0581 136.4212,405.4788 125.7668,413.6009 114.3454,421.6099 102.4386,429.2997 89.7138,436.879 76.4778,444.1607 62.3712,451.3405 47.9297,458.1556 32.6355,464.8546 16.5202,471.4081 0.0,477.6558"/>
    <polyline points="-0.0,618.1683 24.989,608.9346 47.9905,599.9402 68.9238,591.2221 88.7463,582.3892 108.1108,573.1574 125.5977,564.1748 141.9457,555.0665 157.1654,545.8014 170.9851,536.5546 183.7914,527.096 195.6102,517.4134 206.5828,507.3698 216.4663,497.1959 225.5587,486.5999 233.8659,475.5425 241.2235,464.2406 245.7461,456.3221 250.0757,447.8476 254.0455,439.1153 257.8107,429.7596 261.2358,420.0955 264.3453,410.1076 269.9137,388.2016 273.328,370.8697 276.5051,350.8591 287.0048,267.9897 292.7872,229.6256 296.4513,209.5608 300.5544,189.942 305.0859,170.8749 310.1223,152.0545 315.6938,133.4077 321.8614,114.7941 328.6583,96.1018 336.1937,77.0426 344.3254,57.9887 353.1878,38.6364 362.612,19.366 372.6836,0.0 362.7982,18.9145 353.1837,38.4781 344.3007,57.7771 336.157,76.7791 328.8815,95.133 322.2957,113.2475 316.0285,132.18 310.3827,151.039 305.2403,170.1706 300.6106,189.5105 296.4166,209.3465 292.5479,230.2571 286.4571,270.1374 275.9961,351.9636 272.8557,371.4202 269.4138,388.6141 263.991,409.8254 260.8314,419.9116 257.4684,429.3312 253.7712,438.4656 249.8729,447.0065 245.6216,455.3111 240.9309,463.5037 233.4848,474.9424 225.2799,485.8802 216.3043,496.3611 206.2718,506.6959 195.4014,516.6426 183.4498,526.4282 170.6589,535.8666 156.7879,545.1511 141.8103,554.2948 125.3576,563.4998 107.7188,572.5922 88.7749,581.6452 69.1875,590.3574 47.8727,599.2245 24.7948,608.2462 -0.0,617.4085"/>
    <polyline points="1024.0,529.5047 894.7229,531.7912 762.9959,535.0194 637.3041,538.9775 511.7791,543.8345 389.0556,549.3552 274.4376,555.3087 135.4668,563.5428 0.0,572.3853"/>
    <polyline points="0.0,699.21 35.5828,684.8532 65.1512,672.5346 91.5703,661.0539 115.1957,650.2611 136.9452,639.7332 157.1657,629.2758 175.5461,619.045 192.5238,608.7993 208.0911,598.5106 222.3422,588.0964 235.0067,577.7745 246.6726,567.0605 256.8642,556.3909 265.9378,545.407 273.9833,533.9752 281.0156,522.0508 285.359,513.3528 289.0752,504.7248 292.4666,495.4615 295.3018,486.1682 297.6015,476.8687 299.5299,466.9312 301.0759,456.302 302.2035,445.2955 303.2577,426.0517 303.4163,403.9005 302.8921,383.3435 300.1954,316.3759 299.891,293.7031 300.1507,272.4832 301.1485,249.4805 302.9425,227.1476 305.5797,205.0363 309.0563,183.2613 313.6829,160.3835 319.3172,137.565 325.9478,114.8773 333.4828,92.5801 342.1444,70.0576 352.0168,47.0683 363.0791,23.6639 375.2548,0.0 363.4345,22.7801 352.3242,46.1055 342.5381,68.705 334.0198,90.6498 326.3584,113.0294 319.7574,135.2271 314.0075,157.9652 309.245,180.7674 305.6145,202.4881 302.7977,224.5317 300.77,247.1087 299.5257,270.1967 299.0526,290.6363 299.1026,312.5671 300.9653,377.6964 301.2655,400.1324 300.8739,422.6802 299.6203,442.3233 298.4182,453.131 296.8127,463.5796 294.8373,473.3572 292.5038,482.5013 289.5275,492.052 286.2242,500.9339 282.4814,509.5364 278.1152,518.2034 271.0543,530.0805 262.9782,541.4674 253.8927,552.3846 243.384,563.3175 231.6094,574.0705 218.841,584.4326 204.4724,594.9 188.7611,605.2658 172.3269,615.1897 154.5014,625.1001 135.2009,635.0549 113.7238,645.4111 90.0186,656.187 63.7921,667.5282 34.5449,679.6464 0.0,693.4913"/>
    <polyline points="1024.0,595.6226 882.7309,600.227 814.1997,603.0235 746.6331,606.1659 676.5399,609.8135 608.2724,613.7608 541.8047,618.0093 477.1041,622.5602 412.6312,627.5248 350.0326,632.7477 289.5375,638.2115 231.4056,643.8928 173.3478,650.0343 112.4381,656.9476 55.261,663.888 0.0,671.0607"/>
    <polyline points="1024.0,514.6606 890.7944,516.5737 764.0124,519.1638 651.0549,522.2048 511.7547,526.803 395.094,531.2825 287.4041,536.1101 138.5339,543.5214 -0.0,551.1556"/>
    <polyline points="1024.0,530.3963 899.0695,532.5826 767.851,535.8227 639.7467,539.8202 517.4283,544.5147 389.7413,550.3468 268.7843,556.7015 137.6703,564.5919 0.0,573.6338"/>
    <polyline points="1024.0,599.5068 881.9407,604.2542 813.8822,607.0921 748.0403,610.2305 675.875,614.132 604.3748,618.4007 536.4199,622.8687 471.7992,627.5437 411.69,632.3176 349.4074,637.7173 289.1148,643.3812 229.3829,649.4372 169.9215,655.9237 110.5039,662.8717 53.7907,669.9669 0.0,677.1795"/>
    <polyline points="1024.0,522.9039 900.1514,524.8687 770.7078,527.7802 645.2561,531.3738 525.6648,535.6091 393.9743,541.1905 270.3312,547.186 145.3654,554.1203 0.0,562.8899"/>
    <polyline points="374.4943,0.0 363.3108,21.4591 353.1054,42.4953 343.8356,63.2046 335.6713,83.1889 328.1168,103.6598 321.2614,124.4361 315.2435,145.0766 309.8633,166.2784 305.39,186.8713 301.6158,207.537 298.4763,228.5319 295.8828,250.5179 294.0369,270.6432 292.5162,292.3206 289.4376,356.7289 288.2074,377.0781 286.315,398.2664 283.9001,416.6951 281.9914,427.698 279.81,437.979 277.2622,447.9283 274.4212,457.2356 271.1529,466.3272 267.5168,475.0748 263.4924,483.5541 259.0736,491.7785 251.7968,503.5112 243.6224,514.7582 234.5305,525.5627 224.5108,535.9596 213.2619,546.2673 200.8313,556.4154 187.1878,566.4169 172.3032,576.2895 156.5057,585.8511 139.3183,595.414 120.8908,604.8705 101.0154,614.3402 79.3204,624.0053 55.0282,634.1969 28.7226,644.6758 -0.0,655.597"/>
    <polyline points="1024.0,566.5843 883.8702,570.1659 750.5337,574.7268 624.7973,580.2246 495.7223,587.1209 368.7625,595.1675 243.913,604.3705 122.3574,614.6403 -0.0,626.3164"/>
    <polyline points="1024.0,429.8069 886.2657,429.4169 747.3782,429.5604 546.7974,430.5655 198.9855,433.1337 86.3782,433.3019 0.0,432.784"/>
    <polyline points="337.3913,0.0 321.1272,30.2988 305.8709,59.6978 247.2977,177.2895 236.1648,198.9914 226.4272,217.1712 213.67,239.468 200.9469,259.7682 188.3424,277.9666 175.3207,294.8414 166.949,304.7232 158.5034,313.9827 149.8356,322.8094 140.5923,331.5476 131.0207,339.9373 121.104,347.9971 110.8257,355.7457 100.1691,363.2019 89.1175,370.3845 78.1211,377.0213 66.6298,383.4436 54.4604,389.7438 41.9315,395.7601 28.694,401.6655 14.7231,407.4617 0.0,413.1511"/>
    <polyline points="355.0313,0.0 340.8281,26.6793 328.1397,51.7899 315.8052,77.6742 303.8008,104.3422 293.1822,129.1698 282.2599,155.86 245.7137,249.1403 238.188,267.0995 231.1881,282.7049 221.6022,302.2237 211.8073,320.1234 201.5875,336.7428 191.0678,351.886 183.0062,362.3042 174.6596,372.1478 165.8418,381.666 156.5902,390.8113 146.8861,399.6025 136.7103,408.0587 126.0439,416.1989 114.5409,424.2619 102.6212,431.9427 90.2089,439.3131 77.0066,446.5493 63.3208,453.4872 48.8027,460.3099 33.4187,467.0238 17.135,473.6384 0.0,480.1258"/>
    <polyline points="372.9863,0.0 362.8324,19.5224 353.3668,38.9333 344.4931,58.4225 336.3772,77.6025 328.7478,97.1265 321.8958,116.2628 315.7023,135.3074 310.1622,154.3006 305.2462,173.284 300.8532,192.5319 296.9082,212.3569 293.422,232.647 288.0217,271.4152 278.2107,356.721 275.1992,377.1163 271.9721,394.4204 269.5222,405.1815 266.7633,415.6107 263.687,425.6919 260.4056,435.0859 256.7922,444.1867 252.9876,452.6742 248.6694,461.2415 244.1528,469.2428 236.7769,480.6866 228.5501,491.6926 219.5758,502.1914 209.551,512.5302 198.7013,522.465 186.7165,532.2747 173.8639,541.7407 159.7804,551.137 144.6752,560.3265 128.1326,569.5548 110.0961,578.8281 90.8786,587.9946 70.3826,597.1328 48.8432,606.1276 25.5825,615.2588 0.0,624.7521"/>
    <polyline points="1024.0,537.4622 894.6533,539.8544 769.1958,543.0918 639.1943,547.4378 513.1999,552.609 391.834,558.5755 257.5368,566.1815 143.242,573.491 0.0,583.6079"/>
    <polyline points="1024.0,633.0879 948.1464,636.0858 874.2917,639.5435 801.3678,643.5219 725.7565,648.1889 653.937,653.1586 585.3464,658.4588 520.607,664.0235 452.8098,670.4501 388.4382,677.1498 327.2721,684.1407 270.6805,691.2324 209.1719,699.6221 152.9452,707.9438 99.7867,716.5023 49.4056,725.3522 -0.0,734.7897"/>
    <polyline points="1024.0,583.559 886.3308,587.6265 754.2413,592.85 615.3177,599.8104 484.9941,607.7573 423.3918,612.0709 353.6122,617.3746 289.8683,622.586 229.7778,627.8776 173.4126,633.2317 114.987,639.2084 56.2535,645.5933 0.0,652.1054"/>
    <polyline points="1024.0,485.8263 908.3524,486.7274 794.1123,488.158 681.2744,490.1133 565.7295,492.6659 450.972,495.6494 337.2456,499.0326 -0.0,510.5572"/>
    <polyline points="363.5425,0.0 346.7765,32.1161 331.4799,63.7916 318.2203,93.777 305.6608,125.0945 296.8495,149.0457 288.1938,174.3046 278.3839,204.9359 253.7011,285.2864 245.8932,308.2921 238.5056,327.7447 230.8536,345.4747 222.8702,361.6977 214.3939,376.7712 205.1693,391.0929 197.3684,401.8051 189.0428,412.0667 180.2435,421.8464 170.6366,431.5039 160.449,440.7841 149.6711,449.7086 138.2931,458.2995 126.3053,466.5785 113.6289,474.61 99.9514,482.576 85.3698,490.3941 70.1972,497.9057 54.0856,505.2949 37.005,512.5714 18.7735,519.8065 0.0,526.7577"/>
    <polyline points="368.9155,-0.0 360.3136,16.6332 352.2668,33.3176 344.9012,49.8007 338.2145,66.0706 332.2041,82.1156 326.7657,98.2439 322.0263,114.113 317.9834,129.7104 314.5894,145.2448 311.7944,160.9572 309.6729,176.3539 308.1581,191.8403 307.2635,207.392 306.9968,222.5994 307.3325,237.8411 308.3006,253.4598 309.6778,267.2534 311.5452,281.0783 313.8954,294.9112 316.7153,308.7279 320.0679,322.8276 323.9175,337.0467 328.2797,351.4693 333.1986,366.2086 342.3306,390.6709 353.1162,416.4691 363.3112,439.0702 389.5223,495.2375 400.1784,519.2581 408.3074,539.5743 414.2075,557.0814 416.9631,567.1798 419.0937,576.71 420.6743,585.9133 421.7036,594.8108 422.1804,603.4237 422.1035,611.7734 421.4715,619.8811 420.2832,627.768 418.1368,636.9204 415.0212,646.4194 411.1268,655.6105 406.3106,664.8505 400.7487,673.8281 394.2519,682.8871 386.7973,692.0434 378.3766,701.3163 370.8333,708.9402 362.37,716.9287 342.926,733.7613 322.5957,750.0529 276.0169,786.0239 254.581,803.6387 244.9359,812.1952 236.2073,820.4889 228.4125,828.5368 221.7734,836.0915 215.8881,843.6078 210.8706,851.0065 206.6877,858.4094 203.5264,865.4909 201.2284,872.5977 199.8883,879.3995 199.4252,886.1433 199.8809,892.7508 200.9272,898.0348 202.4777,902.986 204.7582,908.2634 207.5009,913.2066 210.8457,918.1446 214.809,923.0765 219.4073,928.0015 224.3426,932.6371 229.8223,937.1945 235.926,941.7306 249.7608,950.5589 265.8136,959.1271 284.4555,967.6163 305.8003,976.0263 327.8587,983.6146 352.564,991.0598 379.8658,998.3028 409.4401,1005.2433 441.2586,1011.8784 475.6601,1018.2707 510.4623,1024.0"/>
    <polyline points="1024.0,706.1574 936.5049,711.8062 847.1066,718.7926 764.1536,726.4095 687.3505,734.6911 609.7553,744.4692 537.7502,754.9106 503.9018,760.3688 471.6789,765.9482 439.5523,771.9191 408.8583,778.0466 380.3205,784.1754 353.1215,790.4687 327.2491,796.9349 302.9811,803.4981 279.3119,810.4222 257.12,817.4794 236.7627,824.5531 217.8573,831.7722 200.7096,839.0144 184.601,846.5898 170.0165,854.2837 157.3834,861.8725 146.3332,869.5733 137.1351,877.1888 129.6931,884.7228 123.6393,892.5691 120.7721,897.3881 118.6901,901.8811 117.1788,906.3929 116.2494,910.9249 115.9134,915.4784 116.1821,920.0548 117.067,924.6554 118.4405,928.9248 120.4628,933.4216 123.0141,937.8021 126.158,942.186 129.9072,946.5712 134.2746,950.9554 139.2729,955.3363 150.8651,963.85 164.5767,972.0983 180.7754,980.2963 198.9138,988.1519 219.2899,995.7984 241.8559,1003.2166 266.5685,1010.3932 293.38,1017.3165 322.3467,1024.0"/>
    <polyline points="1024.0,683.7307 931.9518,688.9019 836.9017,695.4225 747.5616,702.6211 664.4862,710.4702 581.5268,719.6171 503.9734,729.4247 433.5305,739.6335 362.5405,751.364 330.0286,757.2563 299.5233,763.1595 270.5829,769.1589 243.4882,775.1928 214.8488,782.0531 187.7284,789.0138 161.9937,796.1136 137.9918,803.2554 115.6675,810.441 94.6233,817.7959 74.8564,825.3143 56.8521,832.8077 40.2241,840.4401 25.3064,848.0594 12.0411,855.667 0.0,863.5149"/>
    <polyline points="0.0,976.5167 10.3513,982.8215 21.6932,988.9484 34.3054,995.054 48.2229,1001.1358 63.4805,1007.1915 79.6568,1013.0601 96.2536,1018.5802 114.0061,1024.0"/>
    <polyline points="1024.0,655.43 943.5091,659.1286 866.1245,663.3122 791.3387,668.0076 719.1136,673.2214 643.9044,679.3716 572.1658,685.9648 503.7407,693.0153 437.82,700.607 371.657,709.0003 309.7376,717.6599 252.1331,726.5662 196.2062,736.1364 143.0646,746.1775 93.1261,756.619 45.4561,767.6752 0.0,779.3334"/>
    <polyline points="0.0,705.696 52.1083,697.3948 107.0842,689.2643 164.2119,681.3981 219.2187,674.4273 277.3074,667.6671 339.1303,661.044 405.4031,654.4906 470.0008,648.6207 534.3312,643.2801 599.7309,638.344 666.5406,633.7901 733.596,629.6974 802.5396,625.9656 873.965,622.5616 947.9406,619.4851 1024.0,616.7542 868.7782,622.9287 801.7523,626.1645 736.9133,629.7191 666.0034,634.0906 596.6302,638.8382 529.6032,643.9071 464.1653,649.3549 400.4915,655.1681 338.3578,661.3478 278.4347,667.8268 220.2695,674.6535 162.1488,682.0521 105.2457,689.8679 51.2963,697.8676 0.0,706.0876"/>
    <polyline points="1024.0,556.394 896.6202,559.3308 757.8235,563.7447 627.5822,568.9647 503.2913,575.0693 374.6393,582.4997 253.4172,590.6083 120.5976,600.79 0.0,611.2356"/>
    <polyline points="1024.0,367.2209 858.8895,364.7305 437.9677,359.5154 292.938,357.0024 200.8829,354.7132 128.1096,352.2486 61.1413,349.132 0.0,345.3402"/>
    <polyline points="299.3057,0.0 280.2194,35.852 260.3915,71.36 240.4007,105.5082 222.5657,134.2322 205.9847,159.0899 189.9387,181.2871 174.2345,201.1147 158.4099,219.1638 141.801,236.107 124.3651,251.8696 106.077,266.4442 86.8743,279.8942 66.9507,292.1377 45.7857,303.4681 23.37,313.8437 -0.0,323.1381"/>
    <polyline points="312.3513,0.0 286.1083,48.8952 261.1252,94.2619 241.1073,129.552 224.5628,157.2657 208.9698,181.5777 193.4702,203.8615 178.4015,223.6346 163.4086,241.4039 146.3648,259.3997 137.6384,267.7984 128.6767,275.8913 119.4625,283.6826 110.2795,290.947 100.8281,297.9363 91.1593,304.6102 70.6772,317.3488 48.5168,329.3188 24.5642,340.5249 0.0,350.4485"/>
    <polyline points="327.5186,0.0 300.2359,50.9612 249.3365,147.9214 237.2168,170.2274 226.2647,189.5695 211.7603,213.6848 197.7487,235.1132 184.1289,253.9713 170.3521,271.1272 161.9582,280.7063 153.3055,289.9402 144.3749,298.8352 135.3678,307.2004 126.0612,315.2573 116.4593,323.0005 106.5499,330.4398 96.3211,337.5855 85.761,344.4473 74.8574,351.0353 63.4275,357.4528 51.7008,363.5716 39.3272,369.5686 26.6304,375.281 -0.0,386.0005"/>
    <polyline points="344.2539,0.0 323.7996,38.4619 303.5168,79.0274 283.7036,120.7574 246.1348,202.3644 236.5298,222.3388 227.7499,239.7227 215.9878,261.4057 204.4127,280.8044 192.6875,298.4822 180.6996,314.6215 172.5032,324.6304 164.0323,334.1974 155.2171,343.4038 146.0414,352.2615 136.4891,360.7829 126.5437,368.9801 116.1892,376.8652 105.3574,384.4857 94.1092,391.8007 82.4659,398.8103 70.0989,405.7067 57.3195,412.312 43.7775,418.8047 29.8059,425.0241 15.2902,431.0326 0.0,436.908"/>
    <polyline points="362.9402,0.0 346.2074,32.0591 331.1299,63.2012 317.7769,93.2345 305.2742,124.0962 296.3222,148.0696 287.3904,173.6591 276.8812,205.7847 252.4949,283.3773 244.8898,305.3704 237.659,324.1231 229.9072,341.8928 221.7232,358.3621 213.2255,373.3404 203.9849,387.5939 196.1701,398.2836 187.8253,408.5627 178.9781,418.4182 169.3398,428.1402 159.4175,437.2241 148.6455,446.1962 137.277,454.8211 125.2971,463.121 112.732,471.0937 99.3209,478.9105 85.0038,486.5962 69.7569,494.1551 53.5579,501.5948 36.3863,508.9258 18.5996,516.0112 0.0,522.9128"/>
    <polyline points="371.4016,0.0 363.6044,15.0275 356.1592,30.3442 349.3022,45.4803 343.0205,60.4308 337.1658,75.5571 331.8885,90.4779 327.067,105.5439 322.8225,120.3828 319.1401,134.9889 315.937,149.6956 313.292,164.146 311.1466,178.6608 309.5519,192.8944 308.4771,207.0625 307.8984,221.5115 307.8365,236.0442 308.22,249.0328 309.0223,262.133 310.2042,274.9387 311.8351,288.2036 313.8762,301.5126 316.3127,314.8431 322.5305,342.4888 329.6208,368.4665 337.9821,395.2883 346.5771,420.363 364.6677,470.6119 371.4866,491.0135 377.7768,512.6775 382.2531,532.1473 384.1074,543.0258 385.3189,553.17 385.9337,562.9743 385.9372,572.142 385.328,581.2983 384.1257,590.1532 382.3425,598.7199 379.8745,607.3759 376.0827,617.4851 371.2503,627.5847 365.517,637.3688 358.8799,646.9303 351.1664,656.5466 342.4148,666.1562 332.3441,676.0376 321.2093,685.9364 311.2748,694.1118 300.4018,702.5325 275.3252,720.4795 250.6628,736.8864 189.8938,775.9917 160.815,795.768 148.1137,805.0342 136.7689,813.8376 126.4713,822.4386 117.4874,830.6149 109.4482,838.695 102.0838,847.0179 96.1597,854.7147 91.1406,862.4375 87.2397,869.8744 84.286,877.3575 82.3995,884.5682 81.4763,891.9922 81.4701,897.1048 81.9488,901.8751 82.912,906.647 84.3758,911.4231 86.3563,916.206 88.6723,920.6559 91.6954,925.4598 95.0073,929.9337 98.8188,934.4226 103.2249,939.001 113.3584,947.8194 125.417,956.396 139.6865,964.9191 155.8615,973.1974 174.3173,981.4173 194.3111,989.2602 215.672,996.6621 239.2797,1003.9309 264.4575,1010.8569 291.4793,1017.5315 320.5605,1024.0"/>
    <polyline points="1024.0,683.5275 931.5227,688.6898 842.8957,694.7258 753.2173,701.9461 668.8302,709.8956 587.04,718.8743 504.922,729.1675 433.0809,739.4561 366.805,750.3536 333.4113,756.3953 301.7461,762.5097 271.7415,768.7078 243.3313,774.9995 216.4514,781.3938 189.2793,788.3408 163.8967,795.309 139.87,802.4115 117.1909,809.6567 96.1691,816.938 76.195,824.4703 58.1061,831.9435 41.4017,839.5505 26.1007,847.2913 12.2225,855.1659 0.0,863.0271"/>
    <polyline points="0.0,977.0693 10.269,983.2949 21.7443,989.4755 34.1626,995.4739 47.8374,1001.4421 62.3928,1007.2178 78.2045,1012.9523 95.3049,1018.6393 112.8158,1024.0"/>
    <polyline points="1024.0,655.2246 943.4718,658.9664 864.6022,663.2533 789.5836,667.9673 717.9041,673.1326 643.8506,679.221 571.0012,685.9204 502.6841,692.9316 437.9155,700.3457 371.6502,708.7766 309.1135,717.5277 251.0026,726.5019 196.2632,735.8597 142.2477,746.062 91.8867,756.5886 45.0549,767.4483 0.0,779.0503"/>
    <polyline points="1024.0,556.0234 891.3816,559.0451 761.5559,563.138 630.2697,568.3978 500.5282,574.7419 373.0454,582.0986 252.1121,590.1855 122.0342,600.2037 0.0,610.7006"/>
    <polyline points="1024.0,363.311 849.4793,360.6062 461.4966,355.3845 289.9016,352.1986 202.05,349.9005 130.0606,347.2821 61.744,343.9098 0.0,339.8869"/>
    <polyline points="296.6666,0.0 278.8704,33.537 259.5465,68.008 239.1536,102.6293 220.9074,131.8046 204.6899,155.9045 188.7808,177.6653 172.8209,197.6021 156.9735,215.5303 140.2538,232.498 123.0992,247.9466 105.1036,262.2641 85.8619,275.7289 66.3546,287.687 45.5188,298.7868 23.4616,308.9523 0.0,318.2789"/>
    <polyline points="309.451,-0.0 284.8786,45.8617 260.5863,89.8234 241.4433,123.1966 224.1641,151.7791 208.0878,176.6952 192.9463,198.2918 177.526,218.306 161.6961,236.862 145.0439,254.3142 136.279,262.6675 127.5633,270.4541 118.6124,277.9518 109.1112,285.401 89.6712,299.1882 69.1286,311.9049 47.618,323.4903 24.362,334.354 -0.0,344.1804"/>
    <polyline points="324.2469,0.0 253.0725,133.4291 238.5024,159.92 225.6925,182.2294 211.0011,206.265 196.9189,227.4503 182.5353,247.1007 168.151,264.8105 159.9353,274.0849 151.4677,283.0362 142.7198,291.6705 133.9426,299.7462 124.3163,308.0044 114.6942,315.7039 104.7849,323.1003 94.5763,330.2019 84.0563,337.0168 73.2127,343.5529 62.0334,349.8185 50.629,355.764 38.6933,361.5535 26.1302,367.2132 0.0,377.7328"/>
    <polyline points="340.7793,0.0 320.3777,38.2282 302.8803,72.4527 285.2077,108.502 246.0076,190.371 235.5921,211.292 226.3519,229.0159 214.3154,250.5749 202.2887,270.1793 190.2484,287.9042 177.7983,304.3398 169.4921,314.316 161.0991,323.6597 152.3288,332.6981 143.4477,341.1785 133.9536,349.5793 124.0987,357.6525 113.8708,365.412 103.2581,372.8719 91.9184,380.2531 80.3909,387.2043 68.366,393.9344 55.6411,400.5436 42.5319,406.8625 29.0432,412.9025 14.8191,418.8194 0.0,424.5438"/>
    <polyline points="358.8804,-0.0 344.0511,27.9703 330.3055,55.72 317.1337,84.2629 304.3239,114.0773 293.7939,140.2437 283.1942,168.1642 247.9127,266.8337 240.7076,285.3432 233.6375,302.1192 224.7703,321.1709 215.839,338.2238 206.4325,354.09 196.644,368.6178 188.7404,379.095 180.3813,389.1586 171.549,398.8285 162.2263,408.1242 152.3955,417.0654 142.0391,425.6718 131.1272,433.9714 119.5828,442.0202 107.2006,449.9469 94.2771,457.5602 80.4762,465.059 66.1222,472.2701 50.8526,479.3807 34.4448,486.4774 17.4739,493.3099 -0.0,499.8703"/>
    <polyline points="375.131,0.0 363.2211,22.9267 352.5147,45.4738 342.7298,68.2749 334.0139,90.973 326.2395,113.8981 319.4471,136.9781 313.6653,160.1358 308.9088,183.2883 305.4105,204.7032 302.7191,226.5687 300.8529,248.7963 299.7908,271.3045 299.4722,290.9602 299.6573,312.0137 301.9088,379.1784 302.3861,403.1384 302.1381,425.1912 301.0321,444.1695 299.841,455.2417 298.2817,465.472 296.2521,475.5373 293.8747,484.889 290.9522,494.2945 287.7025,503.0485 284.0151,511.5363 279.7088,520.1 272.7376,531.8622 264.6145,543.3666 255.4635,554.4442 245.0666,565.3574 233.6642,575.8644 220.9667,586.2491 206.9281,596.5297 191.4388,606.7769 174.5303,616.9753 156.0661,627.2212 135.6715,637.728 113.1887,648.5879 90.0295,659.1568 64.1671,670.3758 35.2212,682.4104 -0.0,696.5878"/>
    <polyline points="1024.0,597.6385 952.7687,599.8263 881.9344,602.3851 810.914,605.3423 740.7684,608.6476 673.1206,612.2227 607.1484,616.1064 543.186,620.2771 479.6169,624.84 414.5618,629.9244 350.9607,635.3255 288.8042,641.0461 228.0888,647.0853 167.771,653.5427 109.622,660.2429 53.8956,667.1556 -0.0,674.35"/>
    <polyline points="1024.0,519.1264 893.4486,521.0824 767.9566,523.7591 649.5365,527.0904 515.8222,531.679 392.8113,536.6787 267.4454,542.6223 135.6032,549.5533 -0.0,557.4441"/>
    <polyline points="1024.0,550.122 893.5802,552.9511 762.3801,556.8832 629.832,561.8234 507.7624,567.4201 378.3182,574.5682 256.4954,582.3086 124.5422,591.9575 0.0,602.0322"/>
    <polyline points="364.6027,0.0 355.2137,18.2148 346.6496,36.2104 338.9075,53.9653 331.8504,71.8092 325.6292,89.3801 320.1384,106.9961 315.4961,124.3044 311.6922,141.2931 308.7166,157.9498 306.5268,174.5376 305.0732,191.4861 304.4146,208.0378 304.5145,224.5964 305.3772,241.1371 307.0003,257.6351 309.375,274.0655 312.1072,288.6116 315.4229,303.1402 319.3072,317.6285 323.846,332.3841 329.037,347.3548 334.8487,362.4543 341.3408,377.85 348.4833,393.4445 361.4782,419.2197 376.5428,446.2793 390.8543,470.2987 426.5097,528.3585 440.3414,551.8796 450.816,571.252 458.75,588.0 462.6536,597.5203 465.8352,606.3088 468.4824,614.8069 470.6008,623.0346 472.196,631.0118 473.2734,638.7586 473.8387,646.2949 473.8881,653.9705 473.2967,662.3537 472.036,670.678 470.1543,678.7632 467.5626,686.9809 464.222,695.3233 460.278,703.4525 455.5791,711.7206 450.2612,719.9154 439.7533,733.9548 426.5957,749.2546 412.8115,763.911 380.5373,796.9087 365.8966,812.9247 359.555,820.5371 354.0085,827.7941 349.2443,834.7158 345.0613,841.6325 341.3653,848.8738 338.4726,855.9902 336.4941,862.6627 335.2972,869.3075 334.9302,875.9294 335.3889,882.1672 336.6712,888.3933 338.8176,894.6122 341.5449,900.2455 344.9744,905.7048 349.2079,911.1307 354.2703,916.5247 360.1865,921.8883 366.6531,926.981 374.31,932.2893 382.4836,937.332 391.3708,942.2711 400.7774,946.997 411.0391,951.6714 422.1733,956.291 446.7573,965.2283 474.0921,973.6734 504.5865,981.77 537.1069,989.2141 573.042,996.3098 611.6477,1002.9006 653.6131,1009.0945 698.7141,1014.8299 743.5416,1019.6779 791.0651,1024.0"/>
  </g>
</svg>
