<?xml version="1.0" encoding="utf-8" ?>
<svg xmlns="http://www.w3.org/2000/svg" xmlns:cc="http://creativecommons.org/ns" xmlns:dc="http://purl.org/dc/elements/1.1/" xmlns:ev="http://www.w3.org/2001/xml-events" xmlns:inkscape="http://www.inkscape.org/namespaces/inkscape" xmlns:rdf="http://www.w3.org/1999/02/22-rdf-syntax-ns" xmlns:sodipodi="http://sodipodi.sourceforge.net/DTD/sodipodi-0.dtd" xmlns:xlink="http://www.w3.org/1999/xlink" baseProfile="tiny" height="27.09333333cm" version="1.2" viewBox="0 0 1024.0 1024.0" width="27.09333333cm">
  <metadata>
    <rdf:RDF>
      <cc:Work>
        <dc:format>image/svg+xml</dc:format>
        <dc:source>vpype read './original_svgs/Strange Attractors #15.svg' linemerge linesimplify write './Strange Attractors #15.svg'
</dc:source>
        <dc:date>2024-08-05T01:35:18.831346</dc:date>
      </cc:Work>
    </rdf:RDF>
  </metadata>
  <defs/>
  <g fill="none" id="layer1" inkscape:groupmode="layer" inkscape:label="1" stroke="black" style="display:inline">
    <polyline points="304.0,743.875 281.1355,731.5655 257.2303,719.3341 196.6893,690.2609 178.918,681.4352 161.8817,672.2816 148.5893,664.2164 141.267,659.021 135.4822,654.1544 130.872,649.3439 127.5112,644.606 125.4745,639.9573 124.8342,635.6784 125.4365,631.7539 127.3757,627.7539 131.353,623.1781 137.1372,618.7792 144.7006,614.5954 153.5085,610.8549 164.062,607.3155 176.6379,603.9084 190.7142,600.7561 206.8732,597.7275 236.0822,593.359 270.0068,589.5075 307.7854,586.0148 387.8453,579.4128 429.3767,575.2341 448.3792,572.8829 464.4305,570.5258 478.9214,567.932 492.5505,564.9984 506.3157,561.4373 518.6387,557.5778 529.133,553.4825 538.435,548.9426 545.9196,544.3975 552.1046,539.6558 558.2919,533.5082 564.2288,525.9438 565.4287,524.8938 566.5509,524.4309 568.7454,524.7148 577.3087,529.0542 585.8799,532.4122 596.0957,534.9175 604.6532,536.0295 615.5651,536.5501 628.2768,535.9454 639.9918,534.5382 653.299,532.0524 663.7315,529.5463 675.1078,526.224 687.032,522.1862 698.5557,517.7657 709.5609,513.0245 720.1324,507.9371 730.0569,502.6227 740.0807,496.6991 751.4473,489.28 762.1051,481.5751 771.3815,474.0313 780.3566,465.8202 788.8738,457.0201 796.5444,448.0001 803.3537,438.7386 809.0336,429.6368 813.7494,420.4989 817.4571,411.4152 820.1679,402.3763 821.9772,393.0753 822.8125,383.6562 822.6461,374.5859 821.5501,365.942 819.4344,357.216 816.1853,348.3856 811.8621,339.8139 806.4701,331.5983 800.2823,324.1252 793.4209,317.4258 785.1436,310.8262 776.1926,304.9346 766.542,299.7238 756.2814,295.2695 745.8801,291.7574 734.9949,289.0594 723.4774,287.1093 711.7859,285.9998 700.0165,285.7406 688.265,286.3411 676.6087,287.8141 668.0928,289.4321 659.768,291.4396 651.6521,293.8248 643.41,296.7093 635.777,299.8299 628.0789,303.4571 621.0036,307.2631 613.8615,311.5936 606.7127,316.4383 599.9752,321.5294 593.6378,326.8447 587.428,332.6171 581.3877,338.848 575.8032,345.2358 570.6086,351.8173 565.68,358.7576 561.0467,366.0444 556.8999,373.3429 552.9647,381.1129 549.3672,389.1964 546.3012,397.1376 543.5947,405.2799 541.0589,414.2774 539.0029,423.0476 537.3671,431.949 536.1679,440.7992 535.2839,450.4964 534.831,460.0958 534.8271,469.0747 535.2355,477.7902 536.0302,486.0645 537.3121,494.7611 539.9502,506.9559 543.7515,518.7944 546.082,524.042 549.3252,530.2972 554.1324,537.1865 557.5254,541.096 560.3009,543.7318 564.2743,546.833 568.7059,549.7556 572.6689,551.7392 577.7203,553.7185 582.6704,555.3193 588.0461,556.5998 593.8792,557.547 600.1925,558.1507 614.0375,558.2193 629.8425,556.9157 646.413,554.2448 664.0941,550.1558 682.4057,544.7673 700.1932,538.3998 718.4851,530.7403 728.8119,525.9132 738.9196,520.7537 759.0012,509.2127 768.728,502.9751 777.4791,496.9222 785.8834,490.6318 794.1589,483.9115 801.655,477.2936 808.6279,470.5935 815.2718,463.6123 821.4637,456.4588 827.1001,449.2732 832.3741,441.7999 837.033,434.3904 841.2516,426.7598 844.8261,419.2735 847.9113,411.5995 850.3715,404.0344 852.2179,396.6913 853.6063,388.8695 854.3775,381.3454 854.5848,373.7791 854.2358,366.5794 853.3323,359.3946 851.7901,352.0033 849.6717,344.8252 847.0967,338.052 843.8149,331.0442 840.1458,324.5047 835.9531,318.1314 831.2432,311.9582 826.023,306.0193 820.597,300.6255 814.8127,295.5718 808.287,290.5239 801.3575,285.7792 794.0526,281.359 786.401,277.2845 778.4313,273.5767 770.5367,270.3929 762.4023,267.5827 754.053,265.1645 745.6565,263.1848 736.6968,261.5205 727.6552,260.2768 718.5617,259.4497 709.0661,259.0265 699.9591,259.0369 690.8908,259.4513 681.8911,260.2655 672.6215,261.5345 663.972,263.1265 655.0532,265.184 646.3605,267.6073 637.5433,270.5058 628.9979,273.7614 620.7376,277.353 612.7754,281.2594 604.8126,285.6409 597.1539,290.3489 589.7589,295.4006 582.7726,300.6737 575.8919,306.3958 564.9129,316.7707 554.8916,327.8251 545.5842,339.7913 537.3562,352.312 529.7828,366.1028 523.0,381.0 517.4578,395.7944 512.8365,411.3591 509.9446,423.7876 507.5185,437.0231 505.7313,450.1495 504.5007,463.7558 503.8552,477.5308 503.6082,495.3875 504.0857,516.4708 505.2118,544.9248 505.3097,562.8317 504.7881,573.2402 503.9861,581.2765 502.5254,589.7494 500.1388,598.2839 497.5955,604.379 494.0387,610.7473 490.3439,615.6743 486.3623,619.9374 480.6961,624.7507 475.2532,628.4873 467.0462,633.0349 459.4717,636.5207 449.1848,640.4663 441.173,643.1048 427.7792,646.8835 417.1556,649.4559 390.6037,654.6006 359.6725,658.7799 330.0727,661.5681 299.573,663.1509 266.9354,663.4824 234.2762,662.6153 218.8277,661.6332 203.2464,660.2583 172.1323,656.3956 159.4745,654.2523 147.698,651.8404 136.5625,649.1184 126.571,646.2128 117.498,643.0573 109.7786,639.772 103.4016,636.3138 98.3706,632.6694 94.8335,628.8823 93.0105,625.2575 92.6727,623.4238 92.7376,621.582 94.0195,618.0993 95.6977,615.8546 97.8417,613.7916 103.8327,609.7212 112.0785,605.7733 122.0786,602.1582 134.1147,598.7598 147.5589,595.7461 163.3476,592.8838 181.5294,590.1847 215.0281,586.3207 252.8892,583.1421 297.0803,580.3689 390.9989,575.3626 432.3999,572.3822 456.0577,570.121 477.2651,567.5953 494.6891,564.9901 510.525,561.9733 527.0203,557.941 541.4886,553.3345 554.3121,547.9765 565.2515,541.9766 573.0777,536.3504 579.6403,530.1291 582.7315,526.4352 585.625,522.375 592.1296,511.3056 593.939,509.302 595.6844,508.3195 598.2249,507.7168 601.162,507.641 619.3206,509.0178 627.2043,509.0066 639.6659,508.1244 652.4288,506.1595 665.714,503.0353 679.4665,498.7314 692.9897,493.4058 706.3286,487.1493 715.7344,481.9785 725.2035,476.0864 734.0666,469.9347 742.3616,463.4432 749.8108,456.8522 756.5766,450.0636 762.808,442.905 768.3113,435.6134 773.0287,428.2772 777.072,420.6542 780.3132,412.8905 782.718,405.2076 784.2646,397.7874 785.0046,390.3314 784.8903,383.2698 783.9009,375.861 782.0121,368.5554 779.363,361.812 775.8602,355.3579 771.5267,349.2964 766.1351,343.2925 760.2554,338.0256 753.6877,333.2896 746.4598,329.1608 738.313,325.5246 729.8405,322.5858 721.0051,320.3425 711.875,318.8478 702.5847,318.1544 693.0409,318.2382 683.5494,319.0762 674.1813,320.637 662.125,323.75 650.4577,328.0236 639.1631,333.4612 628.3745,340.0273 618.7993,347.2172 609.7528,355.5125 601.0979,365.1401 593.7123,375.0956 587.0519,386.3219 581.198,398.77 577.2667,409.93 574.2799,422.1428 572.418,434.5144 571.8616,447.3178 572.6083,458.7007 574.7531,470.331 577.5742,478.8107 581.6442,487.2178 586.0334,493.5583 591.6537,499.5862 598.031,504.3886 605.2581,508.3585 612.8083,510.98 622.0614,512.9368 632.0585,513.7328 642.6638,513.4827 654.4422,512.0661 667.4069,509.5116 679.9088,506.0665 692.6918,501.6488 704.6325,496.5525 717.2518,490.2632 726.9977,484.7591 736.5667,478.6042 746.0159,471.766 754.9614,464.5016 762.7351,457.3171 769.8333,449.8492 776.4067,441.9123 781.9667,434.1032 786.7325,426.1584 790.784,417.9069 793.897,409.786 796.1656,401.5065 797.5181,393.2365 797.9675,385.2528 797.5418,377.2747 796.1885,369.3939 793.9098,361.8363 790.5409,354.1439 786.1881,346.7361 781.1167,340.0272 775.1702,333.793 768.7054,328.3791 761.1584,323.2178 752.9621,318.6688 744.1856,314.7951 735.2787,311.7703 725.8191,309.4459 715.7372,307.8204 705.5085,306.9914 695.2117,306.959 684.9255,307.723 675.0044,309.2249 661.1665,312.5761 647.6304,317.3642 634.8958,323.4 622.4774,330.9272 610.9642,339.6197 600.4949,349.3318 591.1539,359.9198 582.7479,371.6268 575.3624,384.4207 569.3942,397.6423 564.5993,411.915 562.7247,419.206 561.2404,426.5137 560.1344,433.9115 559.4004,441.3997 559.1386,455.2613 560.3392,469.4377 561.4801,475.6417 563.2039,482.5016 566.4444,492.0552 571.0824,501.0952 575.9173,507.6912 582.5842,514.3855 589.3997,519.0959 593.7611,521.4435 597.4407,523.0171 607.5324,525.9024 617.2475,527.4638 629.125,527.875 641.3984,527.0632 655.4294,524.9377 669.6845,521.6372 684.8066,517.0646 698.4011,511.9768 713.0332,505.4528 727.6872,497.8509 739.1292,491.1015 749.8834,483.9851 759.9206,476.5048 769.1126,468.7789 777.9592,460.3758 785.7747,451.9298 792.752,443.268 798.8422,434.4376 803.9902,425.5419 808.3061,416.3285 811.4655,407.5354 813.7922,398.3151 815.1142,389.2938 815.4702,380.1976 814.8383,371.4932 813.2016,362.9282 810.4505,354.3141 806.6304,345.9396 801.7579,337.8942 795.8499,330.2671 789.2195,323.4218 781.4027,316.8614 772.8583,310.9721 763.5927,305.7703 754.0458,301.4814 743.9664,297.9797 733.219,295.2565 721.7039,293.2716 709.998,292.1746 698.5823,291.9751 687.1722,292.6396 676.0645,294.1349 667.6885,295.7954 659.503,297.8704 651.5265,300.3414 643.4309,303.328 635.6052,306.7059 628.0707,310.454 620.7632,314.5946 613.8088,319.0398 606.9336,323.974 600.4686,329.1631 594.138,334.829 587.9869,340.9682 582.405,347.1681 576.9775,353.8854 572.0617,360.68 567.4326,367.8345 563.1168,375.3202 559.07,383.2476 555.5254,391.2034 552.3807,399.3902 549.6427,407.781 547.2807,416.4481 545.3932,425.0641 543.8931,434.0561 542.7212,444.0779 542.1166,452.9339 541.9978,461.7916 542.3535,471.1518 543.116,479.5733 544.4126,488.1126 546.0289,495.8473 548.1249,503.0474 552.3398,513.959 554.6484,518.418 557.5894,523.1471 560.5521,527.1617 563.8247,530.8472 567.6599,534.5017 571.2494,537.2878 575.4941,539.9003 580.3489,542.3227 584.79,544.0859 589.9745,545.6633 595.4299,546.8795 600.75,547.6759 613.8244,548.4922 627.2677,547.9662 644.0683,545.8393 660.2644,542.3887 678.6328,537.2969 695.8747,531.3058 713.7437,523.9338 730.5291,515.8449 746.8203,506.8076 759.4799,498.8679 771.4722,490.4418 782.6492,481.6481 793.1474,472.3697 802.7337,462.7887 811.2587,453.074 818.8563,443.0685 825.2278,433.1881 830.5916,423.1393 835.0821,412.618 838.4375,402.1406 840.6403,391.8187 841.6937,381.746 841.6281,372.0837 840.4124,361.906 838.1243,352.1497 834.5764,342.1993 830.0052,332.8675 824.2882,323.8943 817.3819,315.3208 809.2338,307.1119 800.3503,299.7497 790.2404,292.85 779.6146,286.9308 768.2825,281.8638 756.0172,277.551 743.297,274.1437 730.2432,271.6767 717.3581,270.2133 704.3842,269.7017 691.2827,270.1742 677.7441,271.6328 666.7582,273.5392 655.6637,276.1489 645.245,279.2629 634.8301,283.0698 624.5488,287.578 614.5957,292.6884 605.2051,298.2424 596.0721,304.4143 587.2591,311.1953 579.0918,318.3245 571.2708,326.0579 564.0753,334.1007 557.3527,342.5877 550.922,351.7829 545.0441,361.3235 539.5684,371.4538 534.7126,381.8936 530.512,392.4854 526.7051,403.8368 523.4673,415.4523 520.9726,426.9232 519.02,438.8655 517.539,451.354 516.693,463.758 516.3514,479.4407 516.7651,494.0528 517.6645,506.1728 519.7601,522.7472 522.2086,536.4051 524.8131,547.2182 527.3504,555.2802 530.8743,563.6946 533.6132,568.6109 535.9872,572.1839 539.7312,576.59 542.7555,579.4219 547.091,582.5671 550.5998,584.6162 556.0304,586.9112 561.7271,588.7561 567.7734,590.0332 574.8311,591.0309 581.829,591.492 590.614,591.6199 605.9789,590.6137 624.757,588.0587 648.0493,583.343 668.0322,578.0827 693.0769,570.1188 716.5287,561.3364 738.8763,551.6332 760.4777,540.9268 780.9037,529.4239 800.0672,517.1865 814.7073,506.6158 828.5167,495.4343 841.3066,483.7897 853.2048,471.5316 863.5188,459.385 872.5013,447.1226 880.305,434.5301 886.6658,422.0463 891.7253,409.4377 895.499,396.5183 897.8598,383.7396 898.8879,370.7223 898.5263,357.9542 896.8158,345.5437 893.6909,333.21 889.3307,321.6171 886.3677,315.364 883.0076,309.1848 875.3426,297.412 866.2547,286.1116 856.0863,275.676 844.9908,266.1732 832.7663,257.4291 819.3334,249.4602 804.7966,242.314 789.4874,236.1519 773.1856,230.9199 756.3894,226.8237 739.6405,223.9681 723.0852,222.3231 705.7774,221.8004 688.2855,222.4564 671.1171,224.2621 658.7979,226.285 646.7577,228.875 635.0411,232.0104 623.3548,235.7885 611.7391,240.2425 600.6828,245.1588 589.7885,250.7001 579.4397,256.6649 569.3359,263.218 559.8269,270.1233 550.6513,277.5601 542.1232,285.263 533.4099,294.0291 525.399,302.9996 517.8735,312.3822 510.8583,322.1387 504.9313,331.3061 499.4211,340.7539 494.0858,350.9355 489.2769,361.1828 484.9288,371.5862 480.9225,382.4412 477.4034,393.3241 474.1391,404.9447 470.0707,422.5856 466.7025,441.6881 463.5174,465.9161 459.7833,506.1467 458.2642,518.6896 455.8166,533.6686 452.4007,546.6405 450.395,552.2042 447.9203,557.6905 445.0618,563.0443 442.0475,567.8211 438.8744,572.1195 435.1662,576.3963 426.4283,584.5149 417.296,591.101 406.4423,597.3413 394.5868,602.7402 379.8883,608.2097 365.5586,612.5337 350.6172,616.0901 331.0581,619.7412 314.7849,621.9578 292.7196,623.9435 274.3622,624.7294 254.0551,624.557 236.9608,623.3795 220.4874,621.0289 214.2558,619.6491 208.8925,618.049 204.1982,616.1163 200.946,614.1611 198.8496,612.0322 198.1204,610.037 198.5974,607.6437 200.2109,605.5 203.4812,603.0526 207.692,600.9108 213.5822,598.6091 220.8045,596.3372 238.6873,592.0617 257.8005,588.6704 281.7966,585.2627 381.1938,573.982 405.6923,570.8536 424.588,568.0834 443.7259,564.5582 461.5216,560.5345 475.5595,556.4698 490.5156,550.875 491.914,550.747 491.626,551.773 488.6603,556.479 477.625,570.875 468.5491,580.6843 458.1702,589.8215 444.7729,598.9839 431.375,606.25 416.9126,612.4528 399.5253,618.4847 379.7836,623.9359 359.701,628.2151 337.5921,631.8308 313.516,634.5409 287.4913,636.2924 260.75,636.75 237.1754,635.9055 214.0585,633.7999 204.3719,632.4397 195.4048,630.7543 187.2206,628.7833 179.6731,626.4744 174.0882,624.3037 169.5919,621.9307 166.3203,619.3593 164.3807,616.6404 163.8805,613.8247 164.2039,612.3965 165.0621,610.7617 167.9623,607.8094 172.3077,605.0166 178.5923,602.1005 186.1018,599.4277 194.5526,597.0211 205.1149,594.5592 229.3687,590.1511 257.9141,586.2775 301.3777,581.7309 396.4287,572.9141 424.6564,569.5746 448.9149,565.9099 462.536,563.3814 474.4786,560.7606 485.0498,557.9961 494.9383,554.9066 503.117,551.836 510.7627,548.3632 516.7726,545.0773 523.875,540.25 525.243,539.692 525.625,540.0 525.766,540.9085 525.7883,549.3092 526.6156,556.9679 527.9872,563.4286 530.443,570.036 533.7747,576.1363 537.2058,580.6054 540.9587,584.2375 546.3242,587.9965 551.7306,590.5191 558.7047,592.8242 566.875,594.5 573.8829,595.248 584.6062,595.6383 592.3253,595.418 606.3235,594.2164 617.4189,592.77 640.6375,588.4776 663.4813,582.7554 688.9886,574.9947 713.6624,566.014 737.5767,555.8701 760.4874,544.7329 781.815,532.8813 802.4644,519.7908 817.1944,509.2647 831.0859,498.1859 843.9635,486.6482 855.5747,474.9023 866.2524,462.6091 875.6195,450.1614 883.6066,437.6964 890.3562,424.9952 895.7861,412.1588 899.8856,399.2372 902.643,386.3402 904.0751,373.2058 904.1097,360.6864 902.7704,348.1136 900.1257,336.1264 896.082,324.088 890.3453,311.5866 883.329,299.7299 874.9192,288.2968 865.1342,277.3984 854.3109,267.4134 842.4866,258.305 829.3504,249.7896 815.272,242.1347 800.3783,235.4072 784.7963,229.6744 769.0338,225.0992 752.8539,221.5994 735.882,219.1411 718.5166,217.7855 700.8371,217.5685 683.3601,218.4999 670.2788,219.9572 657.4482,222.0453 644.5734,224.8355 632.2904,228.1933 619.9897,232.2592 607.8281,237.0148 596.2087,242.2968 584.816,248.2412 574.0227,254.6463 563.5506,261.6684 553.7396,269.0716 543.9411,277.3651 534.6101,286.1927 526.0587,295.2219 518.013,304.6927 510.2872,314.855 503.7167,324.4908 497.7277,334.2368 492.1836,344.2714 486.956,354.8709 482.2528,365.6249 477.937,376.8109 473.9297,388.6564 470.462,400.44 466.0009,418.9945 462.25,439.5 459.2393,461.8446 454.8827,505.3368 453.3051,517.8404 450.799,532.2816 447.2123,545.7884 445.1889,551.2911 442.8049,556.547 440.0895,561.5848 437.0604,566.3756 433.6937,570.9733 430.269,574.956 426.4819,578.7348 422.1066,582.5327 413.4016,588.9167 403.2351,594.9601 392.3122,600.1265 379.1256,605.2392 364.876,609.7242 350.2103,613.4977 333.2271,616.8111 316.2074,619.3633 295.947,621.3102 278.1176,622.248 259.1006,622.1619 241.4152,621.109 226.7591,619.1399 220.8262,617.9062 215.7492,616.4411 211.5653,614.7618 208.1321,612.7513 206.1249,610.8048 205.3498,608.8728 205.803,606.7715 207.5469,604.6009 210.5966,602.3991 215.1538,600.1224 220.9603,597.9161 228.0809,595.7236 245.3945,591.6271 264.3177,588.2689 287.1437,584.9644 379.7655,574.1179 421.1885,568.3491 437.5501,565.3824 455.6583,561.4585 467.5422,558.2073 481.625,553.5 484.6619,552.7686 484.5625,553.6719 482.845,556.1611 471.9042,568.794 462.6932,577.8377 455.0157,584.3149 449.3231,588.5102 443.1316,592.5625 435.9084,596.875 428.875,600.625 413.6057,607.4404 396.0224,613.7679 377.5866,619.0479 357.6949,623.4757 336.5803,627.0561 313.3454,629.8789 289.4038,631.5833 263.0806,632.1301 240.7589,631.3316 218.91,629.303 210.1345,627.9717 201.7104,626.2709 194.2154,624.2948 187.8185,622.088 183.2129,619.8711 179.8198,617.4426 177.7546,614.8704 177.1326,612.2222 177.9436,609.7586 180.3359,607.1142 183.9923,604.6143 189.0076,602.1202 195.3666,599.6675 202.424,597.4685 220.509,593.1804 242.6127,589.2944 268.7401,585.7789 305.5406,581.6944 393.1699,572.9718 417.4106,570.0192 438.7458,566.7978 462.0588,562.3544 471.3417,560.1024 480.6749,557.4462 489.5943,554.5425 496.383,551.967 503.436,548.7311 510.69,544.7111 512.439,544.225 512.207,546.0564 502.1274,580.2956 499.2592,588.2134 496.2601,594.8434 491.5576,602.7252 487.2887,608.2287 480.4645,614.9809 473.5968,620.3229 467.2567,624.3998 460.0151,628.2691 452.0227,631.8627 443.0662,635.2766 432.342,638.806 419.8642,642.3453 408.9864,645.0371 396.7907,647.592 369.436,652.1899 338.8736,655.7477 308.63,657.7977 275.5524,658.7838 243.5934,658.2606 226.2301,657.4344 212.0391,656.4107 197.4644,654.9567 183.4614,653.1634 169.83,651.0118 157.1476,648.5896 145.9924,645.9719 135.7105,643.0212 126.8474,639.9042 119.1812,636.5458 113.125,633.125 108.8365,629.7559 106.0193,626.2204 105.1917,624.408 104.7669,622.5753 104.8472,620.1123 105.5437,617.951 106.8441,615.7957 108.7668,613.6578 111.3304,611.5484 114.3669,609.5822 122.5336,605.598 133.5132,601.653 146.5479,598.0427 161.7888,594.7204 178.7661,591.8058 214.2428,587.2415 256.6111,583.2933 288.9022,581.0226 388.6146,575.1021 432.352,571.7581 452.7254,569.6654 471.1862,567.3335 487.6862,564.7704 502.372,561.9479 517.8583,558.2272 531.8309,553.9589 543.6236,549.3295 553.6378,544.2171 561.7761,538.8331 568.9046,532.6751 574.3145,526.5317 581.0,516.75 582.2393,515.4979 583.5507,514.7417 585.2862,514.4525 588.02,514.5445 603.8645,517.9046 610.9255,518.8005 617.908,519.228 624.8328,519.2421 631.179,518.881 649.0688,516.6245 657.5106,514.9383 666.0901,512.7981 674.8774,510.194 683.6692,507.1851 701.235,499.9953 718.3528,491.3743 729.2395,484.9947 738.4843,478.8828 747.6463,472.0682 756.533,464.6385 764.3172,457.3104 771.5938,449.5196 778.0977,441.5096 783.7521,433.3789 788.561,425.128 792.5188,416.8271 795.5598,408.6472 797.7559,400.3094 798.9672,392.2429 799.265,384.031 798.6412,375.7894 797.154,367.9992 794.6286,360.0248 791.2925,352.7445 786.7544,345.3608 781.4876,338.6638 775.3662,332.4253 768.4334,326.7315 760.8869,321.757 752.4848,317.2825 743.5272,313.4684 734.0957,310.3777 724.6562,308.1466 714.9874,306.703 704.7267,305.9842 694.0553,306.0473 683.4427,306.9267 672.9798,308.6153 659.2247,312.1573 645.4979,317.2393 632.3287,323.7074 619.9739,331.4363 608.555,340.3381 598.2097,350.2385 588.7251,361.3046 580.4579,373.2115 573.2899,386.1553 570.0067,393.2445 567.3349,399.9097 562.9118,413.9721 561.0,422.0 559.6504,429.2461 558.1043,443.932 557.8294,451.7366 557.9931,458.5166 558.6056,465.6799 559.7092,473.3743 561.0327,479.6992 562.762,485.8764 564.6589,491.3876 566.5454,495.7715 572.0,505.25 576.8825,511.3579 583.1323,516.9407 586.5377,519.2771 590.5298,521.5304 599.5576,525.4197 608.576,527.663 618.9958,528.9331 631.571,529.0719 643.895,528.0249 658.7178,525.4615 673.0556,521.8871 688.5586,516.9331 702.5472,511.4852 717.2585,504.6645 732.1372,496.6627 743.2963,489.8313 754.0878,482.4238 763.9381,474.8355 773.0056,466.95 781.6928,458.3799 789.3127,449.8021 796.043,441.0713 801.9258,432.1094 806.8939,423.0317 810.8926,413.9737 813.8935,405.0494 815.9681,395.9199 817.0163,386.9234 817.0791,377.8532 816.1165,368.8005 814.1948,360.2261 811.1965,351.6797 807.051,343.2378 801.8374,335.1462 795.8538,327.7847 788.9537,320.9197 781.2114,314.6643 772.7355,309.0812 763.225,303.9821 753.0801,299.6361 742.7877,296.2094 732.1083,293.5919 720.7501,291.763 709.3787,290.799 697.5703,290.6741 685.8039,291.429 674.1816,293.058 665.5219,294.8696 657.2054,297.0887 649.1226,299.7089 640.9405,302.8515 633.0509,306.3796 625.4729,310.2663 618.2253,314.4846 610.9588,319.2581 603.98,324.4124 597.4404,329.8189 591.3331,335.4472 585.4031,341.5352 579.9305,347.7972 574.5136,354.7155 569.552,361.8055 565.1062,368.921 560.7889,376.6941 556.67,385.1042 553.1871,393.2349 550.2252,401.2671 547.4582,410.1596 545.0612,419.5102 543.2243,428.4673 541.8899,437.2809 540.887,447.4529 540.4205,457.3743 540.5046,466.6799 541.125,477.125 542.0367,485.1693 543.4832,493.2454 545.326,500.9341 547.5822,507.9522 552.0098,518.411 554.6409,523.0764 557.7303,527.6962 560.4074,531.0231 563.8688,534.5722 567.8659,538.0902 571.268,540.4854 575.666,542.9387 580.8886,545.3182 585.7945,547.0439 591.5204,548.5655 596.7452,549.5993 601.7064,550.1834 615.7474,550.6198 630.2737,549.6429 647.5241,547.1086 664.3154,543.3208 681.8518,538.2101 700.1883,531.5929 718.0586,524.0305 734.875,515.6831 751.8293,506.0139 763.9187,498.2221 775.538,489.8311 786.6285,480.8806 797.0195,471.4923 806.2332,462.1022 814.4143,452.6238 821.9352,442.5926 828.2511,432.7128 833.5633,422.7202 837.7286,412.9247 840.9905,402.814 843.2533,392.4791 844.3995,382.386 844.4612,372.6255 843.4382,362.823 841.343,353.1124 838.0231,343.1756 833.7038,333.8167 828.2753,324.7695 821.8011,316.2141 814.2977,308.1629 805.5366,300.4124 796.1477,293.5256 785.9526,287.3279 775.3943,282.0583 764.0018,277.4935 751.8624,273.693 738.985,270.6906 725.8301,268.6276 712.8899,267.5384 699.8927,267.366 686.7808,268.1349 676.2858,269.4083 665.9904,271.227 655.9299,273.568 645.783,276.5229 636.3109,279.857 626.8503,283.7925 617.6421,288.2647 608.5804,293.3119 599.6921,298.9418 591.3326,304.9225 583.2186,311.446 575.4073,318.4936 568.1453,325.8351 561.4817,333.3831 555.193,341.3656 549.1021,350.0584 543.6643,358.7917 538.5,368.125 534.0363,377.2766 530.0631,386.63 526.337,396.8289 523.0527,407.4137 520.2113,418.3273 517.9672,429.0519 516.1066,440.6834 514.752,452.6044 513.9815,464.3644 513.625,478.0 513.7514,489.2556 514.4964,504.7252 516.6973,526.1178 519.3203,542.4122 522.4978,556.6362 525.9688,567.5469 528.5295,573.408 531.1621,577.9941 533.4854,581.441 536.4919,584.8514 539.8086,588.0273 543.3044,590.54 547.3373,592.8361 551.5116,594.6011 556.7055,596.2736 561.9844,597.4375 569.5716,598.5383 575.0605,598.9511 593.094,598.7704 602.0059,598.0231 612.8004,596.6957 633.4471,593.0831 655.7688,587.9578 679.2777,581.1919 702.9495,573.1899 726.3098,564.0353 740.3788,557.9029 753.506,551.6882 766.7201,544.8971 779.5485,537.7657 792.2085,530.173 804.6418,522.1328 816.0996,514.127 826.8841,505.9703 836.909,497.7456 846.4032,489.2695 855.3096,480.5782 863.5038,471.7989 871.0546,462.8802 878.1832,453.5284 884.3863,444.4134 890.0608,434.968 894.9659,425.5567 899.0963,416.2301 902.5755,406.6758 905.2357,397.3586 907.2761,387.5733 908.5401,377.9984 909.0818,368.3136 908.8671,358.5577 907.9153,349.1461 906.2019,339.7393 903.8123,330.7452 900.6658,321.8178 896.8129,313.139 892.1782,304.532 886.8134,296.1074 880.9692,288.1908 875.4859,281.6324 869.8184,275.5387 863.7483,269.6386 857.2862,263.9499 850.4428,258.4905 843.2287,253.2781 835.6544,248.3306 827.9176,243.7694 819.8541,239.4808 811.1866,235.3398 802.6076,231.6716 793.4579,228.1897 774.9425,222.3736 765.2686,219.9394 755.473,217.8733 736.0127,214.9174 716.6744,213.468 696.9578,213.4604 677.2072,214.906 657.5911,217.8099 638.2957,222.1694 619.8642,227.8538 611.1869,231.0999 602.2272,234.8653 593.3684,239.0142 584.5071,243.6182 576.0171,248.4882 567.5782,253.8113 559.5343,259.373 551.5955,265.3745 544.0755,271.5784 536.7151,278.1959 529.522,285.2502 522.7285,292.5022 516.1626,300.1319 510.092,307.8182 504.2757,315.8498 498.7411,324.2066 493.6887,332.554 488.7615,341.4797 480.5976,358.4475 473.6593,375.9647 467.6369,394.7377 462.3428,415.344 458.9454,432.4964 456.0884,451.3367 448.7229,517.3274 446.7425,529.1469 444.4873,538.7054 440.5391,550.2541 435.7833,559.9767 432.7362,564.8634 429.6103,569.1437 425.8776,573.552 422.2491,577.2644 414.3846,583.8638 405.3383,589.9085 394.6175,595.7065 383.1141,600.7834 369.6588,605.6117 357.2791,609.1865 339.3675,613.325 324.651,615.8779 304.2793,618.4523 287.6844,619.6934 268.4022,620.137 250.9208,619.5008 235.2391,617.8895 228.8732,616.7451 223.3166,615.3642 218.4132,613.6785 215.021,611.9764 213.0557,610.3063 212.0234,608.2012 212.3789,605.9875 214.0959,603.7849 217.3234,601.5155 221.6985,599.3619 227.3253,597.2301 233.616,595.3181 252.4307,590.977 269.6258,587.8685 288.6897,585.0827 376.5564,574.458 414.8766,569.0647 432.7762,565.9922 445.7513,563.3189 461.7051,559.3827 476.5041,554.7045 477.625,554.5 478.375,554.7344 477.4785,556.3516 475.0,559.375 463.4805,570.9416 452.0,580.625 440.0998,588.9259 426.2326,596.7593 411.4781,603.4903 395.0003,609.568 374.6041,615.5136 356.3809,619.6321 334.887,623.4502 308.3089,626.5497 285.0237,628.1126 260.3401,628.4553 238.3238,627.3807 227.3667,626.2663 217.6601,624.8635 209.1586,623.161 201.7948,621.153 196.0068,618.9803 191.8809,616.7251 188.9497,613.9622 188.195,612.5133 187.9512,611.3333 188.4682,608.9452 190.3965,606.5433 193.7923,604.0675 198.6422,601.5626 204.4924,599.2453 211.5874,597.0127 229.4278,592.8399 251.5138,588.8973 276.5967,585.3688 306.5339,581.9099 383.1155,573.9424 410.6694,570.5434 430.6373,567.5475 453.439,563.3047 469.8356,559.3077 485.2107,554.4037 492.6139,551.4872 500.2765,547.9673 501.7344,547.6875 501.75,548.375 500.8146,550.5441 493.6688,564.0067 489.458,571.178 485.1857,577.6152 481.007,583.274 476.8106,588.1845 471.4874,593.6503 466.5434,598.071 460.2853,602.8044 452.3259,607.9334 446.0423,611.4989 438.6724,615.1494 430.8411,618.5925 422.0707,621.9472 411.6447,625.4635 401.661,628.3964 378.5978,633.9329 353.2802,638.3836 328.0161,641.5835 298.9589,643.916 270.4765,644.7739 240.128,644.2765 227.0538,643.4682 213.7506,642.2534 200.0674,640.6049 188.2978,638.8138 177.9165,636.7675 168.4108,634.3883 159.9911,631.7065 153.125,628.875 147.7621,625.8476 144.2293,622.8811 142.1395,619.7816 141.6496,618.0522 141.6096,616.5976 142.0196,614.8428 142.9474,613.0851 144.4376,611.3072 146.5211,609.5106 152.1288,606.0726 159.8091,602.6958 169.0409,599.5825 180.0644,596.6403 192.8259,593.9102 207.6898,591.2963 234.6206,587.5244 265.4701,584.2015 304.8847,580.8007 381.5085,574.8655 416.5669,571.563 450.6141,567.3372 464.6183,565.0788 477.8657,562.5287 490.4317,559.6376 501.6189,556.5442 511.3929,553.2581 520.0639,549.7221 527.8283,545.8785 534.0513,542.1003 539.0065,538.4171 545.5,532.375 547.1667,531.3657 547.75,531.5 548.7296,532.3819 553.5283,539.0273 558.543,544.0825 565.3295,548.7335 570.6478,551.3746 578.55,554.1335 589.2847,556.359 598.3764,557.2867 608.9584,557.4763 621.1161,556.7531 634.8431,555.0695 648.4386,552.4764 664.103,548.7325 677.7188,544.7656 691.9353,539.8989 706.7935,534.1004 721.188,527.7974 731.8343,522.6514 742.0587,517.2762 752.1339,511.5153 761.6774,505.598 771.2375,499.1808 780.4227,492.5026 789.0103,485.7426 796.9532,478.9286 804.4063,471.9415 811.3226,464.844 817.9166,457.4008 823.892,449.9333 829.2372,442.4908 834.1557,434.7556 838.4202,427.0771 842.1923,419.1708 845.2915,411.4246 847.8467,403.5269 849.8122,395.5056 851.095,387.7681 851.7547,380.0295 851.8002,372.5944 851.2233,364.7593 850.0669,357.3077 848.3066,349.903 845.931,342.581 842.9285,335.3777 839.362,328.4594 835.2637,321.844 830.364,315.1394 825.1116,308.9617 819.3281,303.0469 813.3321,297.6755 807.2075,292.8352 800.6956,288.2879 793.8128,284.0577 786.3261,280.0386 778.6866,276.4527 770.7779,273.219 762.2741,270.2323 753.5506,267.6536 745.0192,265.577 736.3535,263.8975 727.5864,262.6263 718.7509,261.7744 709.8431,261.3471 700.9152,261.3242 691.6565,261.7199 682.8632,262.4917 673.7965,263.6964 664.8675,265.2988 656.1033,267.2882 647.5306,269.6541 639.1763,272.3861 630.7295,275.5962 622.7032,279.0621 614.6213,282.9896 606.8641,287.2066 599.1252,291.8921 591.7591,296.8448 584.7757,302.0401 578.1847,307.4533 571.394,313.6116 565.1713,319.817 556.3943,329.6467 548.1601,340.2746 540.767,351.312 534.1126,362.8467 528.083,375.0932 522.8214,387.793 518.1204,401.5051 514.3706,415.0707 511.2564,429.6621 508.7609,445.5813 507.3356,460.2625 506.3983,478.6215 506.749,507.1751 507.564,524.161 509.8387,557.918 510.8565,582.2575 510.9091,598.124 510.5186,610.3674 509.4574,621.9288 508.0619,628.7934 506.6211,633.5859 504.3414,638.5219 502.1781,641.7931 498.3905,645.8061 494.0211,649.2286 488.071,652.6576 483.1283,654.871 474.672,657.989 463.8912,661.2321 447.9846,665.0199 438.0741,667.0196 420.3549,670.0256 404.9982,672.2079 385.5928,674.4775 367.2198,676.1726 328.6036,678.6591 290.6212,679.5083 270.8007,679.4247 251.9114,678.9561 232.5562,678.0709 213.3164,676.7911 195.2084,675.2159 178.0826,673.3343 161.3219,671.0755 145.5033,668.5161 130.4087,665.6225 116.3492,662.4502 104.013,659.1506 92.5231,655.504 82.091,651.548 73.2311,647.4754 65.741,643.1836 60.0,638.875 56.1503,634.6943 54.7702,632.4171 53.9597,630.4048 53.4985,628.0889 53.5114,626.0538 53.9219,624.0156 54.7384,621.9791 56.3984,619.371 58.4637,617.0699 61.0973,614.7925 64.3117,612.5461 72.3454,608.2619 82.5936,604.2434 95.3913,600.3726 110.3625,596.7793 127.7643,593.4227 146.6421,590.4875 165.2281,588.147 185.8582,586.0579 209.3081,584.1474 235.2108,582.4524 288.2743,579.8861 416.7087,575.1649 451.7217,573.2136 479.8414,570.959 496.4109,569.1611 511.9857,567.0563 526.4976,564.6461 539.5587,562.007 551.511,559.0851 562.4227,555.851 572.2459,552.3264 581.1434,548.4769 590.547,543.4757 598.6156,538.075 605.6817,532.0385 611.414,525.7107 615.3271,520.2148 618.9265,513.859 622.0369,506.7668 627.6021,491.0837 629.7119,487.3195 632.2258,484.4733 635.2194,482.4925 638.9653,480.884 664.2373,474.0747 677.4547,469.3691 691.3014,462.9995 697.0174,459.8669 702.8438,456.2188 709.5242,451.4438 715.7012,446.3971 721.5756,440.9075 726.51,435.5775 730.7966,430.1414 734.5931,424.3749 737.6089,418.7013 740.0804,412.6194 742.2348,404.4332 742.758,400.3333 742.8692,396.6103 742.621,392.4189 741.9794,388.2897 740.9068,384.2755 739.5261,380.7702 737.5789,377.1689 735.2939,373.7857 732.6535,370.5775 729.6578,367.5978 726.3067,364.9004 722.8296,362.6365 714.7609,358.651 706.5801,356.1414 697.1415,354.818 687.5729,354.8271 677.9705,356.1977 668.0139,358.8855 658.8166,362.6585 650.0092,367.6698 641.8184,373.781 635.5792,379.5367 630.2115,385.5284 625.398,392.133 621.4636,398.9349 618.1214,406.4635 615.5765,414.1296 614.0648,421.6667 613.3877,429.5632 613.7144,436.4545 614.9967,443.4366 617.004,449.238 620.1171,455.1283 623.7311,459.6934 628.6516,464.0726 633.5652,467.0619 639.3272,469.4919 646.0635,471.1566 653.8426,471.9043 660.902,471.6734 669.9712,470.4402 677.8213,468.6361 685.9149,465.981 693.8997,462.6168 701.8185,458.5652 709.7543,453.7729 716.8997,448.6369 723.4159,443.11 729.3495,437.1354 734.5153,430.9478 738.9948,424.4003 742.7967,417.2673 745.4823,410.4785 746.6957,406.128 747.4282,402.1178 747.8454,397.49 747.8277,392.8395 747.3961,388.6231 746.633,384.8807 745.4963,381.2771 743.7253,377.1698 741.7252,373.5434 739.353,370.0906 736.8641,367.1358 734.0497,364.3874 730.3443,361.399 726.344,358.712 722.3705,356.518 718.1327,354.6381 713.6362,353.1102 708.5263,351.8228 698.3597,350.3327 689.0496,350.2855 678.057,351.7221 668.1032,354.2645 658.4343,358.1176 648.9736,363.2605 640.0662,369.6254 633.3818,375.5927 627.4971,381.9598 622.471,388.6341 618.0,396.0156 614.1724,404.1358 611.3021,412.2878 609.3544,420.6782 608.4434,428.706 608.4998,436.3682 609.4597,443.9146 611.3531,450.4424 614.2904,456.8586 618.0044,462.0988 622.7357,466.9437 628.1354,470.5976 634.9001,473.8044 641.4961,475.6296 648.9536,476.6622 657.4464,476.6567 666.4692,475.7475 675.4665,473.7987 684.642,471.0096 693.7732,467.2968 703.4578,462.511 711.8442,457.4381 720.3327,451.3423 727.3165,445.4453 733.5278,439.1898 739.3347,432.1363 744.495,424.48 748.4261,417.0978 751.1079,410.1399 752.3986,405.2632 753.1961,400.7028 753.5921,396.1329 753.5636,391.5991 753.0897,387.1445 752.1893,382.7548 750.8611,378.4512 749.088,374.2794 747.0572,370.61 744.625,367.125 741.3046,363.273 737.8347,359.9452 733.9986,356.8925 730.1372,354.3486 725.9731,352.0954 721.5151,350.1372 711.8212,347.1027 701.5062,345.4452 690.3704,345.2295 679.3538,346.4842 668.5318,349.19 657.1101,353.5314 647.1385,358.7775 637.9504,365.2136 630.7684,371.5057 624.0934,378.6198 618.3281,386.1666 613.4023,394.2109 609.2188,402.8757 606.142,411.4969 603.864,420.7058 602.7504,429.6561 602.6874,438.2544 603.6274,445.6421 605.8914,454.0512 608.8473,460.3993 613.0448,466.6873 617.9152,471.6526 623.8188,475.8993 630.7358,479.0431 638.3775,481.1805 646.8429,482.2233 655.4927,482.2797 665.0273,481.1891 675.3717,478.9467 686.1167,475.577 695.9549,471.5929 705.7794,466.5838 715.6778,460.5685 724.2811,454.365 732.1778,447.6135 739.4018,440.2194 745.6777,432.4697 750.6317,424.895 754.9907,416.2824 758.0093,408.0093 759.1697,403.2715 759.8755,398.4815 760.1637,393.1229 759.9702,388.1552 759.3032,383.2484 758.2425,378.8177 756.7378,374.5383 754.7114,370.2154 752.2379,366.0318 749.562,362.3414 746.2426,358.5807 742.7945,355.3749 738.607,352.1805 734.2386,349.3823 729.2344,346.7188 724.2864,344.5747 719.0947,342.7897 713.7996,341.415 707.9014,340.3281 702.2536,339.6847 696.5195,339.4141 690.7265,339.5255 679.162,340.8902 667.2537,343.7745 656.2654,347.8935 645.3087,353.6022 635.2923,360.4036 627.2425,367.2426 620.2883,374.5527 613.6758,383.1259 607.957,392.2812 603.4797,401.6152 599.7533,412.0058 597.5047,421.4432 596.2393,431.3958 596.2028,440.8333 597.3489,450.1076 599.5123,457.8825 602.9983,465.674 607.281,471.9404 612.4976,477.3351 619.1181,481.9302 622.7683,483.884 626.1348,485.2687 634.6845,487.5711 642.7345,488.619 654.25,488.5 664.0456,487.3614 674.8552,484.9814 685.4389,481.6342 698.2558,476.4169 708.2384,471.3772 718.8388,464.9089 728.4867,458.0173 737.2815,450.5597 745.125,442.625 752.1002,434.0855 757.9726,425.1861 762.376,416.4498 765.6033,407.3503 766.8391,402.1586 767.6152,396.9411 767.8903,392.1031 767.6845,386.8361 766.9863,381.5714 765.8798,376.7612 764.3103,372.0569 762.2566,367.4881 759.7314,363.1346 756.5076,358.6388 753.0751,354.6649 749.2462,350.9483 745.0337,347.5307 740.7894,344.6615 736.1395,342.056 730.8259,339.5568 725.2473,337.407 719.7965,335.7409 714.1512,334.4433 708.7229,333.5908 702.2389,333.0337 695.821,332.8771 689.3921,333.1121 682.9751,333.7477 670.9848,336.0691 664.6004,337.9119 658.43,340.097 652.4737,342.6192 646.7315,345.4736 635.9381,352.1066 627.0312,358.9688 619.1077,366.4566 611.5664,375.2208 604.9843,384.5513 599.3846,394.4769 595.1759,404.17 591.7381,415.0667 589.616,425.4379 588.6781,436.9807 588.9377,447.0864 590.6664,457.28 593.4742,465.9008 597.7477,474.3137 599.9461,477.4574 602.6389,480.6065 606.125,484.0 609.053,486.3563 612.5551,488.6367 616.635,490.7905 620.7292,492.5441 624.9341,493.8857 634.9715,495.7931 644.5309,496.2611 656.2119,495.5369 667.5789,493.5927 679.9033,490.3542 691.0573,486.3811 703.2237,481.037 714.3921,475.1549 725.2106,468.3657 735.5651,460.6653 745.0385,452.3857 753.25,443.875 760.4594,434.8571 766.3029,425.8398 770.8552,416.7193 774.3191,406.9087 776.3542,397.2083 776.8739,388.2257 775.8891,378.9716 773.4359,369.9029 771.5703,365.3387 769.4833,361.2571 767.0415,357.3296 764.2201,353.5284 757.4831,346.2903 749.7857,340.096 741.331,335.0393 731.3812,330.7472 720.5125,327.557 709.4861,325.7067 698.3137,325.1137 686.5385,325.6525 674.8895,327.3818 664.625,330.0 653.3318,334.1008 643.394,338.811 633.791,344.5328 624.775,351.163 616.2044,358.785 608.3862,367.1516 601.536,375.9613 595.3803,385.7176 589.75,396.875 585.8435,406.8442 582.8886,417.2365 580.8071,428.14 579.9178,438.7531 580.1037,450.1406 581.5291,460.2841 583.6345,468.3924 586.8186,476.2243 590.7389,483.1197 595.7305,489.2656 600.9315,494.0421 607.2991,498.1282 614.4919,501.352 622.6366,503.6446 631.2173,504.9558 640.7106,505.2804 651.4609,504.6318 662.1989,503.0364 672.8997,500.6009 683.3481,497.3878 696.1299,492.5296 707.3028,487.5078 717.1054,482.3485 726.5772,476.6794 734.9291,471.0155 743.0965,464.7411 751.2844,457.6426 758.6776,450.3959 765.2455,443.0081 770.7951,435.7623 775.5149,428.487 779.6049,420.7905 782.9136,413.0016 785.4521,405.023 787.0027,397.6618 787.75,390.25 787.6514,382.7315 786.6904,375.2406 784.8374,367.8742 782.0623,360.7294 778.4559,354.0835 774.0265,347.806 768.5406,341.6499 762.5389,336.2519 755.831,331.3965 748.6076,327.2177 740.5369,323.4967 731.9902,320.4511 723.0536,318.1241 714.2034,316.6083 704.7136,315.7851 694.8535,315.7209 685.0039,316.4436 675.6252,317.873 663.7095,320.7835 651.6316,324.992 640.2538,330.2274 629.3623,336.5967 618.8455,344.2108 609.3701,352.5415 600.7851,361.7287 593.1505,371.7253 586.1718,382.9722 580.0229,395.3563 575.4658,407.3149 572.0286,419.9317 569.8398,432.8341 569.0,446.0 569.4844,457.1406 571.3278,468.857 573.8539,477.8062 577.5087,486.6582 581.8519,493.9167 587.036,500.238 593.0609,505.3884 600.0104,509.7631 608.2764,513.153 616.994,515.45 627.0135,516.6112 637.3086,516.7017 649.3529,515.5911 662.1579,513.3789 675.0366,510.1585 688.1752,505.9208 701.2769,500.7338 713.9569,494.7753 724.6846,488.9315 734.8398,482.6702 744.8217,475.752 754.0126,468.5874 762.6288,461.016 770.2564,453.4249 777.0731,445.6773 783.307,437.4526 788.6636,429.0944 793.0759,420.727 796.5183,412.4252 799.0993,404.05 800.8432,395.4986 801.653,386.8603 801.4642,378.5989 800.3537,370.8657 798.2035,362.6734 795.0655,354.6997 790.9123,347.0336 785.9642,340.0709 779.9014,333.3932 773.0682,327.3234 765.4631,321.8231 757.1598,316.9659 748.2321,312.8256 738.85,309.4868 728.6884,306.8042 718.2073,304.9371 707.5137,303.9122 697.1011,303.7465 686.7043,304.3966 676.0826,305.8718 669.0011,307.3155 661.681,309.2058 647.8845,313.9308 641.2014,316.8086 634.4795,320.1208 621.9439,327.544 609.9973,336.3694 599.215,346.1319 594.119,351.5261 589.4311,357.0383 580.7572,368.9422 576.7645,375.3321 573.0648,381.976 566.8423,395.4549 561.6662,410.2987 558.1418,424.8649 556.8595,432.7073 555.9889,440.444 555.5311,447.9203 555.4539,455.755 555.7459,463.2108 556.3831,469.5889 557.4705,476.292 559.0448,483.4601 562.1523,493.1392 566.385,502.3132 571.3913,509.9361 574.2693,513.419 577.256,516.4096 584.7961,522.1954 592.312,526.1487 601.5718,529.4294 611.6581,531.2513 623.3909,532.0018 636.6808,531.4098 650.2422,529.6294 664.9294,526.4963 680.0519,522.1701 696.1878,516.4107 711.2908,510.0542 726.0301,502.7665 737.808,496.0637 749.5744,488.5068 760.3671,480.7233 770.312,472.6614 779.6505,464.1043 788.084,455.3302 795.6911,446.2532 802.138,437.2942 807.6389,428.1905 812.2218,418.8879 815.913,409.2677 818.5284,399.7725 820.0874,390.4906 820.6299,381.1872 820.1379,371.9241 818.5785,362.7158 815.9068,353.6573 812.254,345.1902 807.4661,336.9792 801.412,328.881 794.3304,321.294 786.5761,314.541 777.9588,308.4176 768.6057,303.0412 758.2727,298.2906 747.3699,294.3641 736.0151,291.3046 724.7073,289.2096 713.1932,288.0055 701.2674,287.6875 689.0184,288.2423 676.9151,289.6733 667.9924,291.3113 659.6087,293.3276 651.4257,295.7744 643.2652,298.7075 634.9611,302.203 626.9989,306.0771 619.3895,310.3021 611.8375,315.0551 604.6942,320.1289 597.8726,325.5712 591.3394,331.3824 585.0072,337.6563 579.1679,344.0971 573.5826,350.9564 568.2967,358.2078 563.5403,365.5289 559.028,373.3907 554.9158,381.5534 551.0719,390.2984 547.6717,399.1994 544.7997,408.0238 542.3866,416.9637 540.3592,426.3108 538.8132,435.5566 537.746,444.6181 537.0969,453.9378 536.8614,463.4641 537.1277,472.2119 537.9387,481.7748 539.1387,490.9766 540.8007,499.3102 543.1367,508.4422 545.0287,514.022 547.4322,519.877 549.2801,523.7514 551.5911,527.6898 558.079,536.4833 561.5611,540.0383 565.3391,543.2026 569.1022,545.7042 573.5742,548.0938 578.5136,550.3131 583.0543,551.8717 593.7195,554.2177 605.2303,555.1524 613.5842,555.2407 620.2668,554.9558 637.9526,552.9516 654.1665,549.87 672.1316,545.2552 690.561,539.2222 710.809,531.3116 728.01,523.5034 744.5078,514.861 757.777,506.9882 770.3993,498.6232 782.324,489.813 793.678,480.4412 804.0378,470.8411 813.407,461.0059 821.6676,451.0956 828.9831,440.9275 835.2757,430.5766 840.5546,419.9889 844.7327,409.3522 847.7839,398.7945 849.71,388.4111 850.5394,377.9058 850.2347,367.9099 848.8249,357.779 846.1785,347.3646 842.4547,337.4847 837.5603,327.8754 831.4728,318.6339 824.3853,310.0579 815.9509,301.6777 806.5026,293.9079 796.4492,287.0406 785.593,280.9119 774.3804,275.7557 762.1729,271.2993 749.505,267.7229 736.113,264.9684 722.4826,263.1663 708.7443,262.332 695.4079,262.4631 684.5058,263.2719 673.6502,264.6979 662.6374,266.785 651.8952,269.4591 641.4602,272.6859 631.0275,276.5691 621.0032,280.9691 611.4465,285.8303 601.8742,291.4125 592.8742,297.3884 584.1464,303.9443 576.0127,310.8237 568.2129,318.2269 561.0263,325.8783 554.1304,334.1508 547.711,342.845 541.7795,351.9104 536.3359,361.2836 531.1647,371.3176 526.7179,381.1595 522.6736,391.4927 519.1779,401.9233 515.9824,413.1843 513.4491,424.1806 511.3282,436.0583 509.4781,449.8822 508.4746,460.7634 507.8298,473.0876 507.5443,485.1491 507.7248,496.6549 508.2424,510.0976 509.5877,529.8121 513.6956,577.0596 514.7527,586.2215 515.8404,594.3824 516.9496,600.1676 518.841,607.06 520.961,612.2358 523.375,616.375 524.775,618.133 527.5122,620.7549 529.904,622.6275 532.9898,624.4483 539.9451,626.8493 544.9607,627.962 552.1269,628.8897 560.5532,629.1227 569.3155,628.935 590.2969,626.8629 615.5996,622.6895 640.2975,617.3475 666.0922,610.476 694.1966,601.7382 720.0735,592.4739 736.8865,585.7944 754.1166,578.4254 768.7535,571.6673 783.2223,564.4545 797.7114,556.6632 811.7651,548.52 825.625,539.875 838.8348,530.9997 851.1594,522.0614 862.7727,512.9524 873.8744,503.5002 884.1007,494.0135 893.6846,484.2883 902.4542,474.5061 910.7617,464.2551 918.1103,454.1509 924.7052,443.9663 930.6984,433.4204 935.8571,422.8777 940.1755,412.3857 943.659,401.988 946.4044,391.3535 948.2883,380.9572 949.3936,370.5075 949.7172,359.5617 949.211,348.8927 947.8735,338.1795 945.7692,327.8333 942.8425,317.5228 939.0704,307.2858 934.6105,297.5194 929.322,287.8904 923.9986,279.5973 918.085,271.5121 911.5762,263.613 904.2411,255.6649 896.5929,248.2241 888.4198,241.0478 879.7453,234.1618 870.5924,227.5919 860.9844,221.3639 851.2977,215.6993 841.2294,210.4007 830.8004,205.4915 820.1231,201.0265 808.846,196.8649 797.3291,193.1509 785.6105,189.8869 773.7283,187.0747 761.3437,184.6502 749.2466,182.7624 736.7214,181.2954 724.5665,180.3405 712.063,179.84 699.6325,179.8335 687.6879,180.3012 675.5075,181.2699 663.4051,182.7165 651.1456,184.6814 639.1535,187.1024 627.446,189.9577 615.6775,193.3372 604.2496,197.1321 593.1811,201.3182 582.491,205.8714 572.198,210.7677 562.3213,215.9829 552.5208,221.7092 543.0692,227.785 533.7841,234.3338 524.706,241.3535 516.1594,248.5839 507.8597,256.2524 499.8427,264.3424 492.1419,272.8307 485.003,281.4176 477.9864,290.6333 471.5013,299.9526 465.4002,309.5689 459.7035,319.4537 451.6873,335.2503 444.3439,352.2952 437.7194,370.5659 432.0461,389.4839 426.6714,412.0468 422.1122,436.8962 419.0337,459.5857 413.9236,506.3096 412.1707,518.2245 410.2308,528.3604 407.1823,539.8726 403.3449,550.022 398.8032,558.6804 393.0855,566.6036 388.2849,571.8052 382.9738,576.5358 376.4395,581.3333 370.0298,585.1993 362.0731,589.1703 353.6575,592.7471 344.3669,595.9523 334.0071,598.9344 323.2967,601.3017 311.117,603.317 298.6289,604.6992 287.3035,605.3801 276.6943,605.1834 268.3661,604.3779 264.5594,603.5047 261.7278,602.4804 260.33,601.631 259.5633,600.4679 259.88,598.859 261.2575,597.4726 263.972,595.8964 267.9531,594.2217 280.3363,590.5575 295.5718,587.1851 321.5644,582.887 378.4219,574.5781 424.0517,567.1106 430.4217,566.4319 431.707,566.832 431.5,567.75 424.6893,572.8223 413.8802,578.9182 403.2344,584.0156 390.175,589.3828 378.408,593.6136 367.3316,596.9446 352.7917,600.6735 338.6413,603.6508 324.6625,605.9694 307.3892,607.941 294.9353,608.7059 281.0588,608.8425 269.3056,608.1758 259.4471,606.6727 255.8997,605.6675 253.5263,604.6245 251.9747,603.4894 251.2255,602.0806 251.7205,600.2302 253.3108,598.635 256.316,596.875 260.5925,595.0572 272.0529,591.5473 288.7904,587.8689 320.7871,582.5989 379.6902,574.2821 404.2884,570.4825 434.875,564.875 439.4504,564.5702 440.007,565.061 439.621,565.833 435.0619,569.7049 423.4317,576.9227 409.438,584.1527 396.72,589.8151 383.9345,594.595 372.1593,598.2876 356.4286,602.5424 341.6752,605.6693 325.8798,608.3605 308.6403,610.3389 292.1248,611.4891 276.8692,611.7128 262.6274,610.8964 251.6222,609.3204 247.3316,608.091 244.0707,606.6795 242.1141,605.3586 241.1515,603.6444 241.6204,601.7639 243.5383,599.8222 246.9756,597.8203 251.7183,595.8021 262.6139,592.5004 282.316,588.2319 294.9469,586.0225 320.834,582.1151 398.2205,571.4118 418.9213,567.8889 447.0559,562.1732 448.781,562.0287 449.66,562.307 449.69,562.899 448.8183,564.0768 446.1697,566.4246 441.1875,570.125 428.0828,578.5618 415.7279,585.2454 401.527,591.7631 388.6228,596.729 371.8753,602.0343 358.6037,605.5402 342.7209,609.0201 323.5833,612.0596 305.2578,614.1885 286.0407,615.2905 269.2973,615.3126 253.2226,614.3519 246.9585,613.5042 241.0783,612.3336 235.875,610.875 232.4434,609.4531 229.8321,607.6013 228.786,605.835 229.0255,603.8896 230.7542,601.8108 233.9785,599.6378 238.1735,597.6598 243.4515,595.7775 251.1133,593.5635 268.457,589.6285 283.6588,586.9778 302.6913,584.0997 376.2069,574.6191 409.6479,569.6078 435.6676,564.7474 459.9482,559.0555 461.905,559.126 461.875,559.75 461.177,560.698 457.4015,564.3817 452.7274,568.2907 438.8061,578.4274 427.0326,585.5879 410.5389,593.7052 395.5065,599.8972 379.2538,605.3044 364.0973,609.4181 344.3498,613.7294 324.1531,616.8891 301.9825,619.2645 278.4802,620.4385 259.842,620.213 240.9717,618.779 233.1781,617.5872 225.9957,616.0139 220.3158,614.3044 216.5018,612.5839 213.6703,610.3837 212.797,609.0779 212.4717,608.0061 212.8494,605.8418 214.6981,603.6465 218.0464,601.3877 222.4082,599.3031 227.9829,597.2438 235.56,594.991 253.6132,590.7883 269.0889,588.0188 292.3697,584.639 384.5856,573.5466 414.9584,569.1429 431.4979,566.3347 446.1741,563.2576 458.9389,560.1067 475.8607,554.9034 477.913,554.759 477.875,555.375 476.822,556.968 470.8304,563.5426 459.6507,574.0459 452.348,579.9754 446.1111,584.5694 439.6569,588.8329 432.979,592.7815 418.0383,600.3292 401.3072,607.1161 382.8129,613.0184 364.2759,617.6677 341.7746,622.1403 329.4648,624.0059 316.4936,625.578 290.3193,627.67 265.531,628.2984 253.5318,628.0305 241.4302,627.363 229.9591,626.3522 220.2269,625.0556 211.043,623.3119 203.0531,621.216 197.0208,619.0333 192.522,616.6106 189.6756,613.9791 188.8656,612.4724 188.6105,611.1856 189.1858,608.7729 191.1842,606.3211 194.6094,603.8281 199.4426,601.3507 205.1373,599.1264 212.0265,596.9936 230.5333,592.6318 251.5653,588.8905 276.9664,585.3531 307.649,581.7958 388.7492,573.2739 411.007,570.4522 431.8587,567.2967 452.5541,563.4444 470.7329,558.8977 484.7108,554.5019 493.1576,551.1519 499.625,548.125 501.092,547.792 501.25,548.25 500.8438,549.4219 497.6545,555.4684 491.0811,567.2037 487.5404,572.8883 479.1615,584.2125 471.0274,592.7941 465.375,597.75 460.777,601.262 452.5775,606.6872 446.3116,610.3253 438.5461,614.2302 430.5514,617.7789 421.7421,621.1981 412.4899,624.3604 391.6461,630.1637 369.0768,635.0227 343.1423,639.1289 316.8947,642.052 288.4817,643.8258 259.5687,644.2124 232.5373,643.2338 206.1963,640.8438 194.8173,639.3004 184.3348,637.4565 174.6139,635.2835 165.8332,632.8097 158.1708,630.0638 152.3565,627.343 147.7269,624.2963 144.859,621.3527 143.8871,619.7034 143.3544,618.0329 143.2775,616.3487 143.6729,614.6581 144.5788,612.9371 145.8781,611.3632 150.1071,608.0315 156.3281,604.7188 164.0595,601.6419 173.5099,598.6993 184.6225,595.9482 197.9917,593.2538 213.3013,590.6845 230.3942,588.2657 249.0776,586.0248 291.4726,581.9808 371.1722,575.7255 401.2257,573.0578 437.3011,569.0749 462.7175,565.2738 478.1059,562.2471 492.4066,558.8288 503.6619,555.5692 513.9274,551.8585 523.128,547.7505 530.7283,543.5508 536.7839,539.2996 543.75,533.125 545.4167,532.0787 546.0,532.125 546.9563,532.9442 551.32,539.543 555.2417,544.0049 557.9844,546.5 561.9086,549.4495 566.0,551.8281 571.7526,554.3785 576.4883,555.9709 582.2281,557.4019 588.313,558.4975 595.114,559.1865 603.2319,559.5634 610.8662,559.4392 619.7101,558.8332 629.265,557.7698 648.3071,554.4712 667.8194,549.6291 688.5331,543.0525 707.7031,535.6406 727.8942,526.5248 745.7312,517.2823 762.7734,507.0922 778.9413,495.9941 793.8407,484.2427 804.0233,475.1218 813.4818,465.599 821.8571,456.0395 829.4864,446.0666 835.9958,436.2029 841.7314,425.9175 846.4188,415.6158 850.0273,405.3809 852.571,395.216 854.1276,384.8141 854.629,374.6545 854.0893,364.4488 852.5304,354.6521 849.8987,344.9582 846.1905,335.5077 841.5677,326.5453 835.5285,317.264 828.6509,308.6897 820.7793,300.5874 812.2619,293.2875 802.5531,286.3622 792.2324,280.223 781.2466,274.787 769.3275,269.9618 756.8968,265.9647 744.4358,262.9161 731.714,260.729 718.2995,259.3548 704.8785,258.8809 691.533,259.2876 678.3449,260.5554 665.0308,262.7368 654.5505,265.1267 644.2329,268.0918 633.7743,271.7392 623.7309,275.8866 613.781,280.6635 604.306,285.8833 595.0202,291.6984 586.1329,297.9907 577.8779,304.5646 569.9364,311.6548 562.3494,319.2433 555.1534,327.3028 548.3803,335.7954 541.9905,344.7733 536.3783,353.6716 531.0789,363.2118 526.6159,372.3358 522.5695,381.6837 518.6239,391.9995 515.4487,401.6148 512.6402,411.641 510.1374,422.3449 507.9276,433.7516 506.2981,444.5912 504.22,466.55 503.5406,484.3771 503.624,503.4401 505.103,547.7432 504.8736,567.7441 503.8798,579.7553 502.1631,589.1525 500.5388,595.5116 498.9011,600.1428 495.8974,606.6465 492.4912,612.0672 489.1534,616.2473 485.424,620.0062 480.1057,624.35 474.5918,628.175 467.9093,631.9611 459.3501,635.9634 450.7348,639.3953 441.092,642.6858 430.4613,645.6979 416.0983,649.2657 392.0345,653.9351 364.6816,657.767 329.8131,661.177 297.5041,662.8366 266.2174,663.1705 232.565,662.1245 202.8682,659.9431 188.0199,658.2731 173.3819,656.2209 159.1157,653.7936 147.0047,651.3163 135.757,648.5174 125.4047,645.3969 116.4599,642.1182 108.6923,638.6004 102.7782,635.2065 98.1337,631.5682 95.0584,627.7809 93.7078,624.193 93.6453,621.7708 94.283,619.3371 95.6468,616.9029 97.4558,614.781 99.8575,612.6743 103.1594,610.4176 111.7374,606.1189 123.0159,602.0184 136.8563,598.1806 152.6371,594.7621 170.7667,591.6837 187.6603,589.3781 206.5021,587.2314 250.6473,583.358 288.9409,580.8565 393.8403,575.0922 438.1846,571.8902 459.978,569.7215 479.9555,567.2169 497.3511,564.4777 512.742,561.4199 528.1676,557.4711 542.3491,552.7771 554.7581,547.489 564.912,541.8657 572.7296,536.1643 579.2734,529.8682 584.7353,522.8435 591.514,511.5089 593.2652,509.7044 594.9061,508.7514 596.912,508.25 599.3074,508.13 614.0212,509.4546 628.2199,509.7224 640.1608,508.8171 652.5938,506.8717 666.2617,503.6334 680.3021,499.1321 695.1245,493.2215 708.8629,486.6363 718.3198,481.3504 727.2544,475.7038 735.7751,469.64 744.0984,462.9601 751.6669,456.1212 758.5937,449.0496 764.7793,441.8426 770.2408,434.4428 774.9071,426.944 778.727,419.4929 781.6821,412.2047 783.9431,404.5671 785.3763,397.0378 786.0129,389.4401 785.7892,381.8614 784.7273,374.7824 782.6791,367.3313 779.868,360.4402 776.1955,353.8372 771.6399,347.6092 766.2116,341.8456 759.8301,336.3765 752.7361,331.4636 745.3346,327.3648 737.38,323.9301 729.1258,321.256 720.3579,319.2133 710.9671,317.8409 701.3915,317.2471 692.1058,317.4165 682.5592,318.3309 673.1772,319.9563 660.7788,323.2525 649.1599,327.6246 637.9292,333.1596 626.9521,339.9918 616.9594,347.6627 607.7369,356.3004 599.4492,365.7703 591.9008,376.2148 585.722,386.7787 580.2881,398.6846 575.9891,410.9091 572.9352,423.4713 571.1686,435.7364 570.7776,447.3233 571.6048,459.6909 572.5416,465.402 573.8776,471.1533 576.895,480.2985 581.4381,489.3093 585.7476,495.3828 591.9074,501.6267 598.03,506.1066 605.6083,509.9151 613.3287,512.4115 622.4984,514.206 632.3915,514.8518 644.741,514.4168 655.7597,512.9901 668.7272,510.3216 681.4362,506.6442 695.25,501.625 706.4897,496.7254 718.4128,490.639 728.864,484.6305 738.236,478.5664 747.5361,471.7774 756.2545,464.5934 764.3064,457.0787 771.8347,449.0798 778.3301,441.1446 783.9749,433.1022 788.6334,425.19 792.6094,416.8897 795.6541,408.699 797.864,400.347 799.1214,392.2491 799.4862,383.9576 798.9447,376.0455 797.4963,368.2176 795.1041,360.554 791.6456,352.9681 787.099,345.5231 781.8318,338.7447 775.7176,332.4213 768.7994,326.6576 761.4291,321.7327 753.0636,317.2237 744.1242,313.3994 734.6925,310.31 725.2355,308.0794 715.2182,306.5861 704.9433,305.8573 694.2644,305.9088 683.6443,306.7753 673.1673,308.4498 659.3014,311.9739 645.5568,316.9793 632.6803,323.2309 620.7846,330.6232 609.2963,339.4431 598.6301,349.4901 589.0703,360.5663 580.7576,372.4391 573.5219,385.3901 567.5903,398.9823 562.9443,413.4265 560.9431,421.56 559.5699,428.7001 558.5818,435.9539 557.9681,443.2897 557.6977,451.1375 557.8491,458.2313 558.4245,465.6296 559.3739,472.8811 560.6173,479.1042 562.2948,485.2469 565.85,494.8756 570.777,503.8287 575.8547,510.5169 582.6471,516.9529 589.3186,521.3064 597.9676,525.1847 607.1343,527.6487 617.411,529.0932 630.2214,529.2984 641.7853,528.4587 657.5,525.875 671.223,522.5609 686.807,517.6726 700.7918,512.325 716.2708,505.2778 731.0919,497.4843 742.2692,490.6938 753.0943,483.2943 763.2375,475.5441 772.6489,467.4377 781.3757,458.9113 789.0304,450.3792 795.8019,441.6783 801.7158,432.7833 806.7264,423.7832 810.7733,414.8027 813.8238,405.9474 815.9729,396.8043 817.161,387.4078 817.3187,378.3205 816.4558,369.2549 814.6184,360.6666 811.5979,351.8826 807.4731,343.3493 802.2684,335.1658 796.2614,327.7177 789.2872,320.7697 781.7049,314.6511 772.8995,308.827 763.3935,303.7137 753.2667,299.3697 742.9747,295.9603 732.6397,293.4525 721.0481,291.5829 709.3341,290.578 697.567,290.4393 685.8358,291.1723 674.2293,292.7827 665.8097,294.5229 657.5091,296.7095 649.4443,299.3008 641.2826,302.4174 633.4148,305.9244 625.8596,309.7953 618.5578,314.0516 611.1841,318.9035 604.2444,324.0259 597.4422,329.6382 591.0921,335.4796 584.9354,341.7821 579.2993,348.1956 574.0693,354.8449 569.1428,361.8804 564.5476,369.279 560.136,377.3307 556.144,385.6212 552.724,393.7609 549.5863,402.4598 546.8013,411.6588 544.5006,420.8892 542.7688,429.6576 541.4368,438.7705 540.471,448.8544 540.075,457.5692 540.1847,466.7127 540.8193,476.8399 541.8586,485.6035 543.563,494.9691 545.1926,501.7426 547.5665,509.0388 549.8474,514.8887 551.7473,518.831 554.4641,523.4437 557.9175,528.4996 560.8967,532.0926 564.4062,535.6019 567.8666,538.5368 571.8955,541.303 576.5944,543.9266 580.9281,545.9074 585.8926,547.5948 591.2579,548.9568 596.2685,549.8943 601.6959,550.5026 615.9441,551.0026 630.5725,549.9965 646.9196,547.5834 664.7253,543.4586 683.02,538.069 700.637,531.7023 718.4647,524.0705 735.5172,515.6228 751.9663,506.2628 764.6791,498.0674 776.41,489.615 787.5864,480.5931 797.8396,471.2705 807.3472,461.4861 815.7587,451.5962 823.2045,441.4418 829.3916,431.4452 834.7475,420.9023 839.0095,410.3008 842.1373,399.7678 844.121,389.3979 844.9699,379.2711 844.6767,368.9547 843.2225,358.7782 840.7095,349.0552 836.9351,339.1643 831.9543,329.5702 825.9928,320.6954 818.9065,312.2454 810.5482,304.0749 801.1785,296.5191 790.88,289.6774 780.0961,283.8245 768.5052,278.7878 756.1789,274.5749 743.4216,271.2644 729.9729,268.8262 716.6993,267.4205 703.3477,266.9902 689.8252,267.5614 676.3388,269.0926 665.0236,271.1246 653.9839,273.7885 642.9156,277.1728 632.244,281.1656 621.828,285.8236 611.9123,291.0123 602.2359,296.8574 592.8615,303.347 583.8536,310.4581 575.5359,317.9102 567.6125,325.9379 560.049,334.5908 553.0244,343.6984 546.5722,353.2151 540.719,363.0835 535.4023,373.4039 530.6458,384.1649 526.453,395.3708 522.625,407.625 519.4945,419.8284 517.0885,431.7532 515.2499,444.0979 513.9427,457.2254 513.2556,470.1919 513.1481,485.1065 513.8431,502.8043 514.7314,512.9382 516.8949,531.0437 519.0781,544.5156 521.9602,557.4741 525.3369,568.4889 527.092,573.0949 529.1389,577.1991 532.0917,581.9667 536.0,586.625 539.1132,589.4576 543.6125,592.6452 547.5861,594.7201 553.4253,596.9385 558.4101,598.2513 564.825,599.4254 571.8273,600.1479 581.7772,600.5106 596.8079,599.8741 614.1491,597.8384 637.5087,593.5018 660.2691,587.9471 685.183,580.5155 708.8848,572.1777 732.5995,562.5703 754.7872,552.2837 775.9147,541.1767 796.2135,529.1242 814.8413,516.6066 829.9294,505.2051 843.7659,493.5091 856.3644,481.5301 867.8969,469.0522 878.1066,456.3255 886.9085,443.4847 894.4415,430.3153 900.4507,417.3016 905.224,403.8237 908.5805,390.3037 910.5052,376.8659 910.9923,363.2389 909.9798,349.8936 907.5512,337.1449 903.6097,324.3729 898.3433,312.1136 894.9154,305.5959 891.2842,299.4937 882.9353,287.6076 873.1524,276.2377 861.9531,265.4946 849.7093,255.7306 836.1227,246.6545 821.5059,238.4849 805.9999,231.2922 789.7459,225.147 773.2651,220.2189 756.336,216.4257 738.991,213.7769 720.84,212.2171 702.7493,211.8536 684.4784,212.6868 666.5598,214.7064 654.1603,216.8379 641.7122,219.6261 629.5706,223.0123 617.6806,226.9749 605.8781,231.5784 594.5656,236.6628 583.4248,242.3665 572.5176,248.6851 562.2035,255.4038 552.2204,262.6864 542.7263,270.4264 533.6408,278.6658 524.998,287.3818 516.8281,296.5469 509.1557,306.1247 501.9984,316.0699 495.9074,325.4486 490.3386,334.9111 485.1869,344.6247 480.3003,354.9118 475.8754,365.3624 471.6546,376.5933 467.5,389.125 464.2458,400.3703 459.8651,418.9173 455.8599,440.9859 453.3995,458.8395 448.8896,501.7954 447.0543,516.1177 444.5571,530.6996 441.2904,542.7974 437.3349,553.1449 434.7559,558.3047 431.8858,563.2052 428.8914,567.5294 425.5645,571.6308 421.7473,575.7432 417.8541,579.3839 408.8772,586.234 399.1264,592.214 389.0864,597.1683 376.5835,602.1441 363.501,606.465 346.5,610.875 333.236,613.6232 318.0467,616.0204 299.7963,618.094 281.0363,619.2113 264.2091,619.32 247.6768,618.4627 234.1503,616.7572 228.2819,615.5234 223.2571,614.1013 219.7705,612.7663 216.9182,611.1075 215.1526,609.2872 214.5305,607.6309 214.9593,605.4515 216.7441,603.3164 219.9369,601.1214 224.5099,598.9218 229.8907,596.9486 237.059,594.8524 255.4972,590.6113 272.0955,587.6437 293.3116,584.5509 382.8967,573.7324 409.7827,569.8566 428.2102,566.7502 442.085,563.9669 457.1575,560.325 474.007,555.3712 475.921,555.376 475.875,556.0 475.0537,557.2012 469.8664,562.9084 457.8824,573.88 446.1428,582.9514 433.8442,590.7674 419.1857,598.3531 404.093,604.7139 389.0852,609.8992 368.8955,615.5423 350.7512,619.4682 331.7552,622.5879 305.9002,625.5108 285.2224,626.7929 260.5698,627.0711 239.0862,625.9811 228.6412,624.9203 220.0292,623.6899 212.2246,622.1317 205.0889,620.1873 199.5121,618.0983 195.5832,615.9601 192.8949,613.4481 192.1102,611.9791 191.8629,610.779 192.4234,608.3443 194.2624,606.08 197.6806,603.6416 202.25,601.3281 208.1049,599.0292 215.2107,596.7853 233.5109,592.4471 253.4217,588.8833 275.9366,585.6919 311.4346,581.4925 385.2716,573.5916 409.4289,570.5398 429.6068,567.5175 449.8535,563.775 467.951,559.456 481.3135,555.3417 496.8748,549.0029 498.0938,548.875 498.0,549.625 496.668,552.209 489.7406,563.5615 484.8751,570.8413 480.896,576.101 476.3356,581.6348 471.3943,586.8948 466.8144,591.1847 460.8199,596.1538 455.1504,600.3077 449.5503,603.8724 434.3005,611.9208 417.1469,618.9704 400.1862,624.4173 380.247,629.494 355.463,634.2794 332.7393,637.4865 307.3964,639.9762 281.2036,641.177 253.0055,641.2626 227.9498,640.079 204.7701,637.7025 194.011,636.0125 184.3214,634.0782 175.4635,631.8654 167.8898,629.487 161.8561,627.003 157.0057,624.3049 153.4593,621.442 151.3373,618.4637 150.7572,615.5171 151.1287,613.8775 151.8735,612.4259 154.7862,609.2877 159.4901,606.156 165.9798,603.0839 173.6434,600.3177 182.9258,597.6565 193.5963,595.1412 205.9837,592.6929 219.6239,590.413 250.4748,586.3862 293.6026,582.0532 364.7065,576.1826 400.8022,572.8129 432.6281,569.2014 459.4798,565.1477 473.8706,562.3939 486.2421,559.5141 497.7188,556.2031 508.2701,552.49 516.43,549.044 523.9135,545.079 530.464,540.7975 536.9585,535.4585 538.0503,534.8628 538.713,535.1667 539.1204,535.7917 541.6592,542.5271 544.1854,547.4898 546.4208,550.6709 549.702,554.5063 554.051,558.3648 557.6711,560.9081 563.8718,564.1651 568.6595,565.943 576.3757,567.9853 582.4343,569.102 590.0758,569.9139 598.3145,570.2105 607.6039,569.9579 617.3528,569.1956 627.1912,567.9583 638.0107,566.1504 657.631,561.8285 678.1533,555.9692 699.1139,548.708 719.7613,540.3273 738.6382,531.4569 757.3066,521.3846 774.7808,510.6572 790.9394,499.3514 803.2393,489.6346 814.8834,479.3277 825.1898,469.0513 834.4904,458.5077 842.8433,447.6172 849.9436,436.8045 856.1285,425.5223 861.0006,414.4631 864.8435,402.9765 867.4737,391.549 868.9033,380.2935 869.1468,368.9259 868.1724,357.9063 866.0295,347.2676 862.6534,336.6098 858.0691,326.153 852.2828,315.9906 845.3008,306.2158 837.1292,296.9218 828.0042,288.3901 817.7348,280.4061 806.1992,272.9327 793.7915,266.2727 780.9995,260.6414 767.6124,255.9135 753.9361,252.1977 739.769,249.4122 725.0237,247.5585 710.1916,246.7133 695.0172,246.884 680.384,248.0522 665.9298,250.2188 654.9414,252.5537 644.2682,255.3967 633.9288,258.7197 623.5921,262.6374 613.6547,267.0082 603.817,271.9735 594.452,277.3555 585.4706,283.1877 576.6865,289.566 568.1698,296.469 559.9721,303.8856 552.3944,311.5298 545.1931,319.6294 538.625,327.875 532.187,336.8856 526.2246,346.2044 521.1106,355.1414 516.4105,364.3327 512.1293,373.7422 508.188,383.5219 504.6911,393.3805 501.5214,403.6704 498.7219,414.3099 496.2908,425.29 492.9688,444.9844 490.4965,467.3168 489.5887,482.1193 488.2844,517.3185 487.0356,537.2784 485.335,550.2319 482.3889,562.9168 480.5951,568.225 477.8969,574.4883 475.0562,579.8309 472.1407,584.2558 468.0426,589.3524 462.9692,594.7557 458.4017,598.8661 453.3257,602.719 447.4074,606.6528 440.8895,610.4261 434.0742,613.8376 426.1412,617.3299 410.566,623.1417 390.7871,628.9081 370.1786,633.4469 347.5549,637.2467 321.4218,640.4165 298.2364,642.1571 270.5164,643.0737 246.6296,642.7757 219.8885,641.1442 198.2258,638.5771 188.0672,636.8441 178.572,634.8294 169.8368,632.5246 162.8467,630.1957 156.536,627.4817 151.8292,624.7489 148.4241,621.8601 146.5213,619.0158 146.0562,617.1121 146.2415,615.1649 147.082,613.1895 148.3586,611.4499 150.4401,609.4626 152.8098,607.7359 159.0974,604.3588 167.6663,601.078 178.6425,597.8796 191.7091,594.8405 207.063,591.929 233.686,587.9982 267.6388,584.2197 300.9037,581.2241 379.4157,574.9175 416.9071,571.2905 450.6024,566.9444 464.8072,564.602 477.5416,562.0906 489.0342,559.3648 499.282,556.4719 508.7988,553.2804 517.1849,549.9101 523.9903,546.5592 530.4898,542.643 535.2258,539.2145 541.3281,533.8438 542.5,533.125 543.198,533.215 543.824,533.785 546.9594,539.5601 550.196,544.376 556.3745,550.6924 560.4693,553.6238 564.9537,556.1713 570.2922,558.4265 575.5592,560.1349 581.8225,561.5328 589.2954,562.6323 596.7238,563.1987 605.2947,563.3727 612.6915,563.0873 620.755,562.3627 639.4016,559.629 656.8943,555.8671 673.9703,551.1874 691.7894,545.279 709.4061,538.4517 726.6987,530.7752 743.1844,522.4591 758.9078,513.481 773.9135,503.8161 786.6118,494.6552 798.7749,484.8567 809.9529,474.7408 819.8106,464.6468 828.5198,454.4619 836.2357,443.9958 843.0854,433.0115 848.828,421.855 853.2766,411.002 856.6837,399.8553 858.8738,388.8506 859.8636,377.8371 859.6378,366.7371 858.2303,355.9919 855.6167,345.3281 851.7605,334.8407 846.625,324.625 840.2791,314.8934 832.4764,305.3343 823.7518,296.6003 813.9677,288.4911 803.1983,281.0948 791.9269,274.7088 779.6106,269.002 766.6742,264.1804 752.8685,260.1896 739.0429,257.2779 724.96,255.3656 711.125,254.5 696.2382,254.626 681.5716,255.7645 667.2086,257.8797 656.5032,260.129 645.7054,263.0157 635.573,266.3309 625.5781,270.2246 615.6904,274.7021 605.9378,279.7765 596.375,285.4531 587.3597,291.5148 578.8919,297.9174 570.7083,304.853 562.7408,312.4226 555.3791,320.2457 548.4143,328.5156 541.8754,337.1974 535.7846,346.2454 530.0855,355.7274 525.4334,364.4019 521.0204,373.6711 517.0548,383.1334 513.408,393.084 510.1363,403.3387 507.335,413.5885 504.9417,424.1275 502.9575,434.9136 500.2536,455.412 498.6891,477.6539 498.2075,506.9067 498.2632,537.1303 497.7671,548.9445 496.2664,564.0487 494.4545,573.0152 492.6284,579.2757 489.9863,586.0722 487.1839,591.583 483.9238,596.7656 479.8652,601.8378 475.0184,606.7935 470.287,610.8878 464.6394,614.9624 458.3114,618.8602 451.3469,622.4763 442.1119,626.6136 433.028,630.1932 425.1111,632.9091 416.4498,635.4596 392.9235,641.2407 366.7728,645.9644 343.3209,649.0148 313.9863,651.5781 284.7049,652.8789 256.0395,653.0575 228.3284,651.9522 200.7966,649.6155 188.8403,648.0795 177.269,646.211 165.8667,643.961 155.1824,641.4175 145.9861,638.7872 138.1957,636.0104 131.5347,632.9914 126.4324,629.9605 122.5899,626.7762 120.133,623.468 119.3942,621.4769 119.2297,619.6191 119.5674,617.743 120.412,615.8565 121.7682,613.9679 123.6406,612.0854 128.9527,608.3711 135.8584,604.9987 144.6324,601.7945 155.6953,598.6523 168.651,595.683 183.299,592.9117 199.8703,590.3012 217.7945,587.9525 237.056,585.858 282.1959,582.005 371.8433,576.0006 413.3908,572.7632 449.7472,569.0468 465.3025,566.9526 479.7568,564.6205 497.0505,561.1818 511.6151,557.4819 524.8244,553.1399 536.4913,548.2085 546.1785,543.0009 553.9028,537.6065 560.377,531.5703 567.0734,523.3396 569.2012,521.8242 570.4031,521.688 571.75,522.0 579.1621,525.4067 587.3908,528.6798 595.8659,530.8549 602.3799,531.9604 611.0511,532.7226 619.8037,532.7973 630.4051,532.2117 640.1598,530.9722 653.5026,528.5489 663.614,526.178 675.592,522.694 688.1753,518.3888 700.3171,513.587 712.2199,508.2233 723.9313,502.2622 735.0477,495.9437 746.2238,488.8586 756.6338,481.472 766.6221,473.5332 775.7466,465.3772 783.882,457.1517 791.4109,448.4421 798.0417,439.5741 803.767,430.5713 808.5178,421.5348 812.2526,412.5521 815.1468,403.119 817.0287,393.8217 817.908,384.7921 817.7942,375.7395 816.7461,367.4877 814.638,358.9186 811.4352,350.2455 807.1902,341.8394 801.903,333.8041 795.8468,326.5353 788.5454,319.5281 780.5004,313.2365 771.6595,307.5668 762.1142,302.59 751.9557,298.3771 741.5122,295.0612 730.5732,292.5424 719.0079,290.8193 707.6589,289.9982 695.8706,290.0189 684.1081,290.9193 672.5067,292.6673 663.8337,294.5413 655.375,296.8594 647.1505,299.6041 638.8397,302.904 630.8284,306.6295 623.2383,310.6909 615.8287,315.1777 608.504,320.1745 601.6107,325.4509 594.8773,331.2179 588.6135,337.2137 582.7368,343.4866 577.1155,350.1726 571.7812,357.2656 566.7728,364.7399 562.2983,372.2471 558.0245,380.358 554.0853,388.9938 550.6391,397.8418 547.6755,406.8384 545.1922,415.8357 543.1408,425.15 541.5807,434.4557 540.3334,444.7917 539.7434,453.274 539.6066,462.0099 539.9391,472.5038 540.636,480.5187 541.9315,489.4115 543.6504,498.0605 545.6806,505.4444 548.3614,513.1329 550.6175,518.0661 553.4615,523.2234 556.0642,527.3418 559.0692,531.2382 562.862,535.3609 565.97,538.194 569.698,540.9402 574.0318,543.5616 577.9431,545.4954 582.556,547.287 587.9475,548.9159 593.1864,550.0921 599.0815,550.9614 605.8707,551.5518 617.9182,551.6028 634.557,550.1657 650.6596,547.4452 668.6066,543.0994 687.4854,537.1791 705.5419,530.3926 723.4472,522.3947 741.2518,513.1569 757.7391,503.3134 769.8353,495.1403 781.4519,486.372 792.3684,477.1459 802.5201,467.5035 811.5958,457.7144 819.5188,447.8981 826.2677,438.1584 832.2338,427.915 837.1365,417.5906 840.9432,407.2956 843.6421,397.1248 845.2811,386.8073 845.8336,376.4052 845.2614,365.9546 843.5854,355.9199 840.7483,346.0131 836.6936,336.319 831.5072,327.0954 824.9942,317.9634 817.3552,309.3053 808.9457,301.4717 799.5893,294.2663 789.6944,287.9833 778.566,282.2075 766.9087,277.3094 754.3484,273.1502 741.7255,270.0098 728.8081,267.7978 715.716,266.555 702.2026,266.2495 688.7723,266.8686 675.1481,268.4443 663.6511,270.5439 652.4432,273.3128 641.8594,276.6404 631.024,280.7942 620.3474,285.6583 610.2261,291.0467 600.3659,297.1093 591.1294,303.6167 582.3057,310.7033 573.6552,318.5821 565.7561,326.7185 558.3482,335.3465 551.4796,344.4223 545.0921,354.0548 539.215,364.202 533.9925,374.5794 529.2777,385.4723 525.0,397.125 521.2918,409.2353 518.3339,421.1704 515.942,433.6147 514.1894,446.1061 513.0278,458.9398 512.3794,472.8733 512.3021,487.1508 512.7941,501.8234 514.34,520.613 516.3908,537.0284 518.9763,551.5208 521.5024,563.13 524.8027,573.3772 528.4568,581.4507 531.5981,586.1803 534.5176,589.6275 538.1421,592.9562 542.2761,595.7983 546.5703,598.0605 552.0036,600.0231 557.4145,601.525 563.5131,602.5321 570.7904,603.246 578.6333,603.4991 587.7164,603.2915 596.9844,602.625 616.9788,600.0704 640.2766,595.4679 663.3233,589.7102 688.7017,582.0056 711.7455,573.7528 735.0311,564.1583 758.0682,553.4244 779.5567,542.0943 800.2365,529.7599 818.845,517.1777 833.8437,505.7455 847.885,493.7494 860.7871,481.322 872.133,468.913 882.2764,456.1536 891.2553,442.9433 898.7546,429.7315 904.8974,416.3087 909.6042,402.7708 912.7908,389.4607 914.6177,375.8298 914.9949,361.9891 913.9358,348.804 911.4227,335.6247 907.5165,322.9167 902.1108,310.4076 895.0278,297.8817 886.4368,285.75 876.4,274.1318 864.9795,263.1465 852.5634,253.153 839.3018,244.2044 824.7934,236.0435 809.0375,228.7034 792.5138,222.4222 775.0114,217.1446 757.4218,213.1341 739.5453,210.3117 721.5413,208.7201 703.3275,208.3619 684.904,209.225 666.8629,211.273 654.1127,213.4582 641.3008,216.2968 628.8521,219.7077 616.8119,223.6655 605.1029,228.1958 593.4348,233.4189 582.3269,239.0849 571.4457,245.3542 560.8438,252.2188 550.8676,259.4392 540.9671,267.43 531.7633,275.7048 523.0378,284.428 514.7617,293.6101 506.9823,303.1974 499.5059,313.47 493.3776,322.8288 487.4874,332.7909 482.0529,342.9966 476.9711,353.6169 472.5006,364.0827 468.3631,375.0083 464.6007,386.3149 461.1369,398.2457 456.6888,416.5276 453.1769,435.2035 449.6465,460.3805 445.4823,499.4639 443.5369,514.7468 440.883,529.8471 437.625,542.125 433.5673,552.6696 428.5129,561.8567 422.146,570.3901 414.4972,578.1993 406.7193,584.3409 397.7744,590.0709 387.9548,595.1466 376.8524,599.879 364.1733,604.2216 349.924,608.2162 335.6256,611.4062 320.5842,613.997 303.4638,616.1063 288.0413,617.2983 269.1744,617.6606 253.5696,617.1673 240.2954,615.6801 229.7122,613.3973 225.8657,612.0359 222.6127,610.3741 220.4056,608.4896 219.6547,606.861 220.0164,604.85 221.7312,602.7697 224.8203,600.6728 228.7147,598.8161 234.5137,596.6396 241.2496,594.5735 257.7166,590.7117 274.3903,587.7158 294.163,584.7569 374.7445,574.7615 408.8472,569.9331 439.601,564.3701 452.2525,561.3679 468.23,556.922 469.97,556.584 470.75,556.75 470.5093,557.8148 467.662,561.0044 457.9645,569.9598 446.2021,579.1519 433.9405,587.1098 421.3099,593.9039 406.3464,600.5684 391.8614,605.9313 373.0689,611.595 355.3152,615.7938 336.9954,619.1852 311.2841,622.4477 290.7023,624.0531 268.7314,624.6721 248.0454,623.9195 228.5888,621.9921 220.6566,620.5859 213.3694,618.7851 207.2932,616.6928 203.2639,614.6013 200.6714,612.3095 199.602,609.8714 200.0827,607.4554 201.8996,605.2053 205.0789,602.901 209.6001,600.5839 215.4424,598.2956 221.9233,596.2633 239.3917,592.1285 258.6837,588.6994 282.7206,585.2989 309.9743,581.9611 384.5582,573.5615 404.6761,570.9519 423.6991,568.0648 443.0215,564.6223 459.1967,560.9402 471.9906,557.3789 488.403,551.503 490.3906,551.125 490.5,551.75 490.1434,552.4756 486.0219,558.3237 480.332,565.7207 474.9419,572.084 467.5716,579.8072 458.8732,587.4415 447.6319,595.6315 435.1915,602.7856 419.2187,610.2212 404.5555,615.6603 383.7073,621.8114 363.5483,626.455 341.9398,630.2066 317.7617,633.1683 292.4102,635.0916 266.7821,635.8562 243.2103,635.254 219.9776,633.4163 209.4936,632.0615 200.0533,630.4581 191.3834,628.5687 183.8973,626.4822 177.7948,624.2159 172.9011,621.7162 169.3338,619.0314 167.3199,616.4307 166.75,614.875 166.6502,613.562 166.9937,612.0042 167.6837,610.6531 170.4375,607.7031 174.9242,604.7686 180.6148,602.1225 188.0292,599.5056 197.0112,596.9739 207.8143,594.4566 232.5081,589.9783 262.5414,585.9623 299.8836,581.9713 399.818,572.5568 424.3714,569.5823 446.8584,566.1461 460.1982,563.687 471.6522,561.176 482.5788,558.3178 493.0409,555.0782 500.9853,552.155 507.9471,549.0484 514.2083,545.7205 521.2784,541.1709 522.4869,540.6811 522.913,541.659 522.377,552.0352 522.8353,562.0508 524.03,569.749 525.8705,575.998 528.9923,583.0775 532.5132,588.3092 535.5318,591.598 540.5721,595.6292 546.7506,598.9122 552.4113,600.8229 560.2632,602.6442 570.1906,603.7193 579.4219,603.9688 591.5761,603.5112 601.8786,602.5663 614.3926,600.8811 626.0137,598.8725 639.1372,596.1289 653.2654,592.7916 665.9382,589.3797 680.3859,585.0366 695.7666,579.9802 708.5114,575.3928 721.272,570.3918 734.617,564.7397 748.0993,558.5974 761.291,552.1643 773.9448,545.5563 785.8553,538.8852 797.2251,532.0509 808.3011,524.8953 818.7339,517.6481 834.0776,505.9977 847.9557,494.2099 860.7389,481.975 872.2685,469.4064 882.4954,456.552 891.4585,443.392 899.1498,429.8932 905.3172,416.5104 910.0875,403.0122 913.4091,389.4806 915.2409,376.1124 915.6389,362.5816 914.6059,349.297 912.1153,336.003 908.2426,323.1716 902.887,310.532 899.5384,304.1387 895.889,298.0109 887.4597,286.0583 877.3425,274.327 866.0965,263.4755 853.5901,253.3351 839.9105,244.0162 825.5079,235.8173 810.4616,228.7348 794.0838,222.4353 776.747,217.1321 758.952,212.9955 740.8588,210.0502 722.6274,208.3207 704.7959,207.8291 686.8095,208.5555 668.6335,210.4939 655.5268,212.6566 642.7365,215.4095 630.2966,218.725 617.8924,222.6971 605.9322,227.2069 594.4529,232.2245 583.4159,237.7564 572.3421,244.045 561.5752,250.9355 551.4689,258.1826 541.7234,265.9774 532.3848,274.293 523.4979,283.093 515.1065,292.3309 507.1751,302.0373 499.5468,312.4389 489.2005,328.6868 480.1087,345.7192 472.0831,363.8323 465.161,383.0374 461.6941,394.5706 458.4386,407.0416 455.418,420.3968 452.9926,433.1919 449.4046,458.1467 443.214,513.128 441.2972,525.0378 438.8906,535.8594 436.9246,542.5298 434.7361,548.5024 432.253,554.1657 429.6274,559.1133 426.3718,564.1435 422.2624,569.5761 418.4754,573.8415 414.2908,577.8552 406.4519,584.0355 396.7661,590.2181 387.1471,595.121 375.4359,600.0598 363.4514,604.1433 348.9406,608.1802 335.3933,611.1626 319.7076,613.8843 303.2678,615.8828 285.519,617.1827 269.7653,617.4591 253.9999,616.8615 240.5181,615.3508 229.6088,613.0451 226.0135,611.7456 223.2407,610.2746 221.1706,608.4714 220.3232,606.7861 220.6659,604.7769 222.1804,602.9003 225.2257,600.7461 229.1083,598.8433 234.8031,596.7241 241.9471,594.5577 258.6039,590.6425 276.7837,587.401 297.3315,584.2994 376.0519,574.4955 413.1058,569.2519 439.625,564.25 450.2219,561.7501 467.1787,557.2267 469.3929,556.8101 470.1964,556.9479 469.7812,558.1094 467.7182,560.4497 459.3755,568.1826 447.5869,577.6413 435.839,585.427 421.7992,593.2344 407.2751,599.8405 390.2544,606.0879 371.7146,611.5536 355.9639,615.2365 334.7208,619.1619 313.3886,621.9281 290.6481,623.7593 267.4041,624.2686 247.6903,623.5772 227.9146,621.4859 220.6636,620.1873 214.2861,618.5961 208.6344,616.6448 204.3182,614.4866 201.6996,612.2481 200.6196,609.8293 200.9957,607.6238 202.6572,605.3875 205.9053,602.9961 210.4874,600.6552 216.4573,598.3155 223.2904,596.1683 240.0608,592.2199 260.0188,588.6291 283.3953,585.2362 384.093,573.673 405.3321,570.942 421.5887,568.4907 442.0203,564.8008 457.0623,561.4637 471.7535,557.3149 487.9056,551.6392 489.3711,551.4297 489.457,552.0078 487.2969,555.4023 481.875,562.625 477.798,567.4931 468.0483,578.0762 459.878,585.463 447.8572,594.2242 441.7121,598.1352 435.5449,601.6135 420.4475,608.7405 404.2486,614.9078 386.3903,620.2284 367.1106,624.8818 342.7257,629.3288 322.2435,631.9986 296.0629,634.168 271.0834,635.0341 246.1137,634.6734 222.7927,633.0182 211.9522,631.7227 203.2894,630.3318 194.678,628.497 186.9697,626.3746 180.3485,624.0317 174.9679,621.4998 171.2412,618.8299 169.2344,616.2656 168.7033,614.7944 168.6077,613.3008 169.5786,610.5836 172.2022,607.7723 176.7346,604.8193 182.7218,602.0199 190.3057,599.2853 198.9266,596.8072 209.1723,594.4191 233.3932,589.9899 262.3733,585.9995 300.0584,582.0082 391.8948,573.2403 424.1805,569.4169 445.4705,566.2271 458.4493,563.8289 470.3758,561.2497 480.285,558.7303 489.3198,555.9878 497.9337,552.9107 505.4439,549.7681 511.0972,546.8889 519.75,541.625 520.7031,541.3281 521.0,541.875 520.9688,543.1719 519.9852,552.0049 519.7358,561.462 520.5908,573.0672 521.957,580.0167 524.4045,587.6059 527.1909,593.2247 531.3546,598.7785 534.365,601.551 539.3795,604.9242 546.1098,607.9997 552.8952,609.7204 560.9885,610.9455 570.8964,611.556 579.9685,611.3942 593.569,610.4687 607.3903,608.7773 620.076,606.7295 633.2242,604.0882 648.3192,600.5467 663.2624,596.5895 678.1199,592.1971 693.3941,587.2285 707.8804,582.0944 722.5759,576.4408 736.9559,570.4642 751.182,564.1067 764.6643,557.6465 777.8694,550.8411 790.3658,543.9116 802.3542,536.7642 814.0795,529.2448 825.0741,521.6621 840.352,510.1429 854.7568,498.0189 868.0812,485.4134 879.9199,472.7359 890.369,459.9627 899.5003,446.9586 907.4067,433.5746 913.8439,420.2793 919.0728,406.4987 922.7808,393.0338 925.1202,379.397 926.0056,366.0574 925.4948,352.5554 923.5394,338.993 920.2038,325.8361 915.4095,312.8126 909.1119,300.0165 905.3852,293.733 901.2567,287.5281 892.0582,275.7083 881.4711,264.4169 869.3015,253.5112 856.2014,243.5859 842.0061,234.4823 827.1763,226.4767 811.5606,219.4689 795.027,213.4151 777.5841,208.333 759.7288,204.3734 741.6133,201.5463 723.01,199.8393 704.8329,199.3324 686.8551,199.9892 672.8804,201.3155 658.6315,203.3914 644.7376,206.1386 630.8653,209.6229 617.4446,213.7374 604.1719,218.5769 591.4584,223.9955 579.3461,229.9499 567.5455,236.5886 555.766,244.1002 544.7589,252.0115 534.2142,260.513 524.178,269.571 514.6946,279.1417 505.8062,289.1701 497.4396,299.7386 491.1843,308.4909 485.4795,317.2328 479.9082,326.6068 474.7143,336.2385 469.7522,346.4086 465.2028,356.7262 460.9622,367.3622 457.084,378.2879 453.3438,390.3401 450.0541,402.6316 446.9009,416.4043 444.1556,430.4858 440.2349,457.1979 434.2711,509.9967 432.071,523.4523 429.5329,534.8375 427.7175,541.1101 425.6235,546.9333 423.1969,552.3978 420.3054,557.8329 417.0776,562.907 413.4506,567.7281 409.4977,572.1994 405.4385,576.1169 398.5909,581.6377 390.7313,586.7982 381.8122,591.5944 371.9848,596.0047 361.3225,599.9812 350.8022,603.1979 335.7689,606.9564 324.4593,609.1548 306.6153,611.6727 294.6723,612.8107 278.3628,613.4839 264.735,613.3013 252.1117,612.2526 242.9132,610.564 238.9537,609.3493 235.65,607.8816 233.719,606.4583 232.9212,605.0068 232.9307,603.7598 233.3181,602.7927 235.0782,600.8267 238.0825,598.9206 242.6191,596.8965 248.5006,594.8655 255.6102,592.8795 275.0299,588.7264 290.03,586.2017 318.7489,582.022 397.0049,571.5914 426.0208,566.587 455.928,560.0717 457.1321,559.9356 457.798,560.182 457.672,561.208 454.998,563.9332 446.2461,570.8607 432.1241,580.2567 418.9974,587.6073 404.9011,594.1738 391.6945,599.2405 375.4098,604.5355 357.7832,609.125 342.146,612.366 320.9514,615.6446 297.6585,617.94 279.9558,618.778 261.8425,618.5765 245.1205,617.1683 236.4272,615.8503 230.007,614.5 225.3916,613.0364 221.5406,611.1973 219.0217,609.1746 218.0311,607.1687 218.39,605.2486 219.9688,603.2656 222.785,601.2456 227.2318,599.0442 232.8532,596.9059 239.3536,594.8892 255.2758,591.1172 273.4878,587.8075 293.5134,584.7706 372.7048,575.0433 411.7601,569.4904 427.032,566.8412 441.1141,563.9972 455.856,560.4754 468.6503,556.8044 471.5122,556.1396 472.375,556.25 472.4167,556.7222 471.6979,557.9253 468.6705,561.3772 455.9745,572.7995 444.9563,581.1679 432.8263,588.8349 418.5926,596.3139 402.8433,603.0222 387.2186,608.3629 368.5898,613.5864 350.1723,617.6366 331.5284,620.7677 307.7834,623.5626 283.4755,625.1485 263.5787,625.4352 242.8138,624.4047 233.2722,623.4939 224.5572,622.2724 216.7059,620.7378 209.8884,618.9164 204.7409,617.0202 200.643,614.78 198.0639,612.3523 197.1477,610.0554 197.5959,607.8343 199.6065,605.3768 202.8699,603.056 207.464,600.7397 213.3689,598.4809 220.0959,596.4387 238.5465,592.11 258.5084,588.56 285.3944,584.7798 310.718,581.7205 387.2652,573.2889 408.2443,570.5819 426.6475,567.8064 445.7164,564.3064 463.1669,560.2299 474.4162,556.9392 490.8445,550.7595 492.771,550.409 492.875,550.875 492.3716,551.8894 489.5471,556.1718 482.7634,565.6959 476.9769,572.9269 469.0705,581.4084 458.9384,590.3277 453.3998,594.4805 447.414,598.428 440.7264,602.3304 433.5381,606.071 418.2521,612.8812 401.2619,618.8088 381.6484,624.2841 362.0866,628.6092 336.5416,632.6926 314.7179,635.1418 287.5539,636.9716 264.1576,637.4156 238.1857,636.6293 214.8111,634.5816 204.2031,633.1196 194.3329,631.3749 186.6364,629.5956 179.3804,627.4237 172.8672,624.8695 167.9263,622.2594 164.4956,619.6618 162.4606,616.8149 162.0496,615.3389 162.0544,613.8386 162.484,612.3218 163.3471,610.7966 166.0211,608.0554 170.4591,605.2057 176.7846,602.3208 184.4957,599.6032 193.7332,596.9733 204.4193,594.4674 228.9396,590.0711 260.1119,585.9372 296.5893,582.1332 396.1309,573.0078 425.6054,569.5124 451.3348,565.6928 463.9835,563.2944 475.7521,560.6304 488.0986,557.3302 497.2802,554.3955 505.2071,551.3255 512.809,547.7769 518.5813,544.543 526.0352,539.4492 527.0449,539.0332 527.5566,539.459 528.1889,550.0004 529.5411,556.625 531.5,563.0 533.5231,567.5071 536.3657,572.0556 541.1661,577.5866 545.7361,581.1894 550.8755,584.2429 556.9438,586.8526 562.5267,588.424 570.833,589.9972 578.9966,590.6838 589.2784,590.8892 599.7284,590.4398 611.2556,589.3412 623.4887,587.5478 636.8234,585.0851 647.7132,582.7181 660.1321,579.5789 673.1532,575.871 686.0961,571.8035 698.9674,567.3552 724.4384,557.3674 736.2763,552.1493 748.1961,546.4773 771.5389,534.1122 782.5942,527.6402 792.7044,521.2845 802.5427,514.6265 812.0356,507.7179 825.61,496.8983 838.4706,485.4287 849.9808,473.8703 860.474,461.8651 869.6732,449.7085 877.5066,437.5409 883.9535,425.4872 889.2845,413.0058 893.4165,400.1174 896.1957,387.2394 897.6169,374.4976 897.6909,362.0004 896.4429,349.8401 893.8422,337.8362 889.7978,325.7952 884.5208,314.2773 877.7304,302.7312 869.5794,291.5983 860.089,280.9876 849.5984,271.2761 837.8448,262.2112 824.6973,253.7213 810.5883,246.1227 796.0103,239.6284 780.7736,234.1162 765.0056,229.6513 749.2367,226.3675 732.7424,224.0987 715.7903,222.9076 698.8959,222.8329 681.8166,223.8827 665.0807,226.0424 653.1089,228.3147 641.7061,231.0883 630.0112,234.5669 618.359,238.6837 607.1616,243.292 596.4347,248.3524 585.8716,254.0082 575.5389,260.2551 565.7938,266.8755 556.6951,273.789 547.9305,281.2085 539.5133,289.1303 531.4806,297.5295 523.865,306.3717 516.4809,315.9021 509.6057,325.776 504.0524,334.5872 498.7697,343.8544 493.897,353.3676 489.4401,363.0874 485.1336,373.6419 481.1753,384.5969 477.7469,395.3226 474.6436,406.5935 470.7602,423.8758 467.25,443.8921 464.9926,461.7703 461.0897,503.0868 459.0434,520.9475 456.8841,533.932 453.8703,545.5152 451.8457,551.3708 449.6028,556.7242 447.0616,561.7466 443.9652,566.8831 440.7314,571.469 437.1405,575.8243 433.1119,580.0043 428.7244,583.8977 418.375,591.375 407.8843,597.4577 395.2891,603.2773 381.1411,608.4933 365.9007,613.1023 348.4276,617.1472 331.0529,620.3549 311.6163,622.9368 291.4804,624.6671 267.7239,625.3785 250.3991,624.9818 233.0382,623.5701 218.4899,621.3698 212.0668,619.8418 206.5433,618.0912 201.9906,616.1249 199.1081,614.2711 197.2697,612.2836 196.5173,610.1983 197.041,607.7417 198.7283,605.6014 202.0995,603.1716 206.6741,600.8767 212.5775,598.5988 219.7704,596.3703 237.3599,592.2335 257.4298,588.6484 281.3995,585.2434 310.6057,581.7388 384.5976,573.6032 407.2123,570.7556 425.7022,567.987 445.8094,564.3097 462.1674,560.5022 476.127,556.444 491.7969,550.4785 493.4688,550.25 492.6312,552.3716 487.9074,559.3964 482.9309,566.4025 477.1392,573.5663 467.8632,583.3524 458.6665,591.2636 446.7966,599.5963 440.6388,603.2136 434.5432,606.3544 416.9931,614.0288 399.25,620.125 380.826,625.087 359.5041,629.5767 336.3322,633.1866 312.9231,635.793 286.9575,637.452 262.0765,637.8674 236.5058,637.0227 214.2161,635.0378 203.7306,633.5705 194.2376,631.8562 185.8965,629.9457 178.3892,627.74 171.9698,625.2845 167.0831,622.7775 163.4695,620.1112 161.3333,617.387 160.7794,615.7486 160.7154,614.3606 161.1243,612.6754 161.8763,611.2605 164.8762,608.1402 169.25,605.3313 175.3472,602.532 183.1298,599.7678 192.4931,597.0843 203.3316,594.529 214.5911,592.3184 227.3236,590.2296 261.2064,585.7434 295.8324,582.1166 397.8576,572.8586 427.6591,569.3109 453.3513,565.4181 465.8672,563.039 477.931,560.2866 489.3884,557.1721 499.1112,554.0229 507.4928,550.6846 515.125,547.0 520.4614,543.8978 528.125,538.625 528.75,538.7656 528.9336,539.1348 529.4173,546.0295 530.7509,553.4109 532.614,559.4424 535.5231,565.5077 539.5232,571.2483 543.8205,575.7272 547.4154,578.4028 553.8108,581.9074 559.5239,584.072 566.8927,586.0107 574.6499,587.1975 583.0929,587.8307 593.5945,587.8482 603.4958,587.3702 614.1391,586.2393 626.8489,584.3594 649.043,579.832 671.6614,573.7768 698.8197,564.7889 721.9431,555.7797 744.848,545.3385 767.3569,533.5263 787.7197,521.3335 806.5608,508.3919 820.5562,497.4739 833.2747,486.3712 844.6632,475.1822 855.1202,463.4964 864.2769,451.6867 872.4483,439.3135 879.2368,426.9886 884.7784,414.511 889.0102,401.9801 891.8923,389.484 893.3975,377.2447 893.6119,364.8475 892.4955,352.3712 890.0875,340.2845 886.3239,328.3159 881.3324,316.9124 874.9733,305.7955 867.0211,294.7835 857.7706,284.318 847.2815,274.4498 835.6406,265.274 823.2731,257.0901 809.9749,249.7415 795.8389,243.3201 780.7763,237.8057 765.1789,233.3323 749.1887,229.9158 732.5684,227.5303 715.8378,226.2848 699.5269,226.1852 683.0554,227.2154 666.6381,229.3438 654.8179,231.5724 642.9183,234.4272 631.3593,237.8166 620.1753,241.7115 609.4006,246.0827 599.0696,250.9014 588.6567,256.4353 578.6496,262.4415 568.8983,269.0158 559.7435,275.9138 550.6194,283.5791 542.1398,291.5098 534.0514,299.9099 526.3761,308.7682 519.425,317.7007 512.7189,327.3172 507.0976,336.2954 501.6989,345.8744 496.5827,355.9946 491.8913,366.3613 487.8164,376.5209 484.0652,387.1516 480.7724,397.8185 477.6383,409.4703 473.4401,428.607 470.0798,450.2675 468.0035,467.682 464.412,508.4872 462.4277,525.2185 460.3111,536.9702 457.3584,547.9803 455.5036,553.2694 453.2909,558.3228 450.1517,564.4028 447.001,569.505 443.591,574.0245 439.6602,578.5499 435.848,582.346 431.4272,586.142 421.5195,593.117 409.7784,599.8289 397.021,605.5672 383.5688,610.3865 366.3143,615.4288 349.996,619.1792 330.5812,622.5765 310.3021,625.1002 289.8912,626.7655 269.0137,627.3363 247.9812,626.9103 228.9234,625.329 213.4194,622.8559 207.102,621.31 201.2997,619.4342 196.5867,617.3681 193.1559,615.1951 191.1547,612.9255 190.5341,610.825 191.1713,608.3412 192.9527,606.135 196.2519,603.7348 200.7771,601.4468 206.9688,599.0469 214.1047,596.817 231.8452,592.5899 252.3493,588.9554 276.8177,585.5166 309.8709,581.6991 382.5667,573.9518 410.1083,570.475 430.4298,567.4616 451.1259,563.5991 468.5053,559.4103 483.467,554.7389 497.8611,548.6111 499.123,548.4492 499.2598,549.1133 498.7292,550.272 491.7646,562.369 486.7576,570.2014 481.08,578.0069 476.5878,583.4478 471.1283,589.2131 466.75,593.25 460.943,597.9194 455.0,602.125 449.1416,605.796 441.8801,609.8319 434.8479,613.3019 417.0501,620.4451 400.3407,625.6549 378.9533,630.9871 355.4277,635.509 332.3302,638.6232 305.6553,641.1163 279.0942,642.2244 251.7396,642.2139 225.8838,640.872 212.9354,639.7014 202.1801,638.3722 191.5393,636.6508 181.5974,634.6199 172.5169,632.3183 164.8794,629.9045 158.5638,627.2401 153.9045,624.5447 150.5188,621.6877 148.5171,618.7191 148.0209,616.8586 148.0911,615.2034 148.765,613.35 150.0654,611.4776 151.9923,609.5969 154.5457,607.7186 161.0781,604.2148 169.2681,601.0242 179.6867,597.9323 192.3005,594.9891 206.7327,592.2512 235.0938,588.0464 270.6857,584.0538 306.7012,580.7629 379.8821,574.8783 419.9762,570.9476 450.1763,566.9486 463.6658,564.6688 476.2629,562.1655 487.2936,559.5675 497.5096,556.6948 507.1029,553.4787 515.558,550.0956 522.915,546.55 529.045,542.96 533.4678,539.8042 539.498,534.5439 540.6699,533.8682 541.4028,534.1019 542.1684,534.9977 544.5848,540.5995 547.8454,545.9 550.2526,548.9 553.2905,551.9809 557.4883,555.2363 561.9159,558.0757 567.1601,560.4545 573.2271,562.6207 579.6759,564.144 586.7579,565.2854 594.3385,565.9006 602.9911,566.1373 610.8105,565.8165 621.0321,564.8733 630.0636,563.7559 639.4353,562.1863 657.7832,558.2083 674.9514,553.3712 696.127,546.2335 714.3641,538.9435 733.3299,530.1526 751.3488,520.6651 768.2698,510.538 783.9018,499.8823 796.421,490.2469 807.8428,480.4406 818.2739,470.3717 827.5781,460.1635 835.884,449.6586 843.3708,438.6253 849.7824,427.3775 854.8842,416.3774 858.8246,405.394 861.5727,394.5128 863.1777,383.5264 863.6307,372.3758 862.9193,361.5346 861.0255,350.7236 858.0261,340.3988 853.8498,330.3107 848.2368,320.0977 841.3858,310.2593 833.3489,300.8961 824.4722,292.3657 814.5769,284.4688 804.0641,277.5093 792.1103,270.9824 779.5791,265.3729 766.4491,260.6414 752.8339,256.8302 738.8472,253.9815 724.9901,252.1738 710.5938,251.3239 695.8773,251.4686 681.343,252.6054 666.7129,254.7625 656.0813,256.992 645.3537,259.8391 635.0669,263.1738 624.8877,267.0863 614.7959,271.6046 605.1788,276.5537 595.7211,282.0918 586.7772,288.0066 578.068,294.4755 569.9363,301.2328 561.8918,308.7006 554.4966,316.3666 547.4774,324.48 540.8653,333.0082 534.686,341.9087 528.8814,351.2596 523.9432,360.1695 519.4222,369.3303 515.3296,378.7043 511.6655,388.2474 508.2443,398.461 505.1713,409.107 502.5891,419.6823 500.3289,430.8647 497.3827,450.4607 495.5007,472.0822 494.3509,502.6003 494.1491,523.312 493.1926,544.3704 491.8072,556.5187 489.6016,567.1352 487.2655,574.4871 484.9576,580.1733 481.8949,585.9303 478.0653,591.7346 474.0775,596.677 469.4731,601.3606 464.455,605.6402 458.714,609.8203 452.648,613.6131 445.3853,617.5026 437.8009,621.0556 429.3496,624.4908 420.3098,627.727 411.335,630.5214 389.9554,635.9839 365.1451,640.7121 340.149,644.2315 312.2812,646.8708 285.1466,648.2226 256.8009,648.4331 229.4818,647.3584 202.573,644.9972 191.2057,643.4733 180.2905,641.6184 169.6452,639.3744 160.1808,636.9213 151.9366,634.2906 145.1056,631.5221 139.4942,628.5407 135.2505,625.3809 132.6546,622.3015 131.5,619.125 131.6032,617.0198 132.3116,615.1028 133.6056,613.1749 135.4876,611.2455 141.0251,607.4209 148.4409,603.9083 157.6321,600.6705 168.9619,597.5864 182.5424,594.6301 198.2889,591.8278 228.0139,587.6975 264.8033,583.8847 303.3657,580.6837 382.6798,574.9235 423.8903,571.2009 441.5538,569.1919 457.8074,566.9594 473.1477,564.4293 486.9991,561.6964 499.3481,558.774 510.5351,555.5058 520.919,551.7588 530.2712,547.6113 537.9074,543.4444 544.5656,538.915 549.4346,534.7534 555.353,528.339 557.0,527.25 558.0233,527.2566 559.1254,527.7157 565.4492,532.9577 570.735,536.448 575.1576,538.7612 582.5079,541.6773 592.6105,544.0196 606.3285,545.3948 617.2025,545.4358 631.0343,544.306 646.2373,541.8686 659.168,539.0638 672.0279,535.5805 686.25,531.0 698.9683,526.2327 712.0057,520.6449 724.75,514.5 737.4482,507.6887 749.779,500.343 761.4766,492.5803 772.5088,484.3865 782.9211,475.688 792.401,466.78 801.1208,457.5312 808.9427,448.0781 815.8057,438.437 821.6902,428.6307 826.5326,418.7654 830.2941,408.9337 832.9927,399.1299 834.7211,389.0788 835.3839,379.2998 834.9924,369.5035 833.556,360.142 831.0593,351.0322 827.3032,341.7296 822.3982,332.6747 816.3805,323.9756 809.286,315.7405 801.4588,308.3401 792.8219,301.6405 782.9474,295.3305 772.6507,289.9407 761.7324,285.3194 750.2893,281.5231 738.418,278.6082 726.0355,276.5585 713.1812,275.3726 700.2747,275.1139 687.4212,275.7824 674.7262,277.3782 664.6397,279.3455 654.3018,281.9901 644.3143,285.1651 634.6942,288.842 625.4588,292.9922 616.3057,297.7657 607.6038,302.9859 598.978,308.8858 590.8686,315.163 583.0672,321.9797 575.876,329.0578 569.0401,336.6283 562.4929,344.8069 556.4617,353.2905 550.9163,362.106 545.6974,371.5579 540.8685,381.6141 536.4789,392.2329 532.7617,402.9018 529.6973,413.5645 527.0716,424.9279 525.198,435.6269 523.7814,447.1874 522.7585,460.1558 522.453,472.3138 522.833,485.4159 523.7216,496.4215 525.3927,509.6491 527.2868,520.0979 529.5562,529.3966 532.9313,539.8143 535.9963,546.9961 538.4583,551.7627 541.145,555.958 544.624,560.3803 548.1275,563.9372 552.2834,567.3348 555.6584,569.5046 560.8201,572.0945 565.9488,574.1129 571.5239,575.6939 578.0441,577.0484 583.8101,577.7496 590.9844,578.1626 598.4321,578.2532 606.1591,577.9373 624.4061,576.0575 644.1836,572.5095 664.3582,567.5336 687.5975,560.3851 708.7967,552.6238 730.209,543.4999 750.2625,533.7227 769.3917,522.9984 787.7851,511.2349 801.081,501.6768 813.6554,491.5977 825.2843,481.1607 835.8327,470.4987 845.3907,459.5222 853.8597,448.342 861.3117,436.8581 867.4716,425.5273 872.4874,414.1365 876.3123,402.7727 878.9921,391.2134 880.4823,379.7842 880.8235,368.1945 879.9472,356.5375 877.8757,345.2803 874.6703,334.5009 870.0641,323.548 864.2436,312.9721 857.215,302.7594 849.0138,293.0002 839.6754,283.7845 829.5578,275.445 818.7864,268.0062 806.6483,260.9968 793.6317,254.7273 779.6103,249.1911 765.4072,244.7164 750.7988,241.2039 736.289,238.7551 721.5879,237.3077 706.0315,236.8181 690.6019,237.3439 678.0388,238.5172 665.6857,240.3379 653.5988,242.7863 641.8338,245.8427 630.3491,249.5215 618.604,254.0236 607.3941,259.0482 596.7275,264.5505 586.2955,270.6836 576.1624,277.4389 566.6738,284.5778 557.627,292.236 548.7298,300.7035 540.6146,309.375 532.9988,318.498 525.6918,328.3312 519.5225,337.626 513.7517,347.3118 508.567,357.0608 503.8804,367.0021 499.5475,377.4468 495.6005,388.3325 491.8976,400.0667 488.8116,411.519 485.054,428.9539 481.7859,449.1696 479.5508,470.4668 476.8123,509.8884 475.2527,526.878 472.9162,542.7587 469.5719,555.4977 467.5578,561.0705 465.005,566.543 462.055,571.841 458.858,576.5654 454.666,581.7693 450.4928,586.1958 445.6697,590.5098 440.3929,594.5888 428.9362,601.989 416.1615,608.3302 401.0854,614.2314 383.2177,619.8682 364.9733,624.3393 345.869,628.0025 322.001,631.3095 300.928,633.3114 276.8248,634.4702 255.7523,634.4719 231.2147,633.2057 211.4341,631.0533 202.3576,629.5335 194.36,627.8276 187.3126,625.9338 181.4927,623.8899 176.7058,621.6249 173.0658,619.181 170.6869,616.6001 169.6871,613.9453 170.1667,611.3277 172.1156,608.6647 175.534,605.9874 180.4218,603.327 186.7789,600.7146 193.8471,598.4115 202.6658,596.0564 212.7275,593.8024 236.065,589.6523 264.1278,585.8824 297.9727,582.241 396.8954,572.7582 421.2554,569.7837 444.4823,566.2377 458.1413,563.7599 468.6918,561.5044 478.9717,558.9 488.7852,555.9516 497.4805,552.8423 505.2155,549.541 511.2083,546.5237 519.4869,541.6877 519.7917,542.9167 518.6638,551.0198 518.0392,558.0958 517.84,563.924 518.0625,571.9473 518.7606,578.8004 519.8882,585.6579 522.5794,594.6614 524.675,599.266 527.1545,603.1899 529.3628,605.8875 532.5688,608.8407 535.8197,610.9809 540.2695,613.248 544.668,614.7129 550.2195,616.0515 557.7077,617.1045 563.3487,617.5494 575.25,617.5 582.0271,617.172 603.8118,614.7873 627.625,610.5 651.3337,604.949 678.1642,597.4047 702.6424,589.2853 727.5031,579.87 742.2555,573.6324 757.3326,566.7237 772.2474,559.3648 786.9752,551.5824 799.9931,544.1923 812.256,536.6968 824.2672,528.7922 835.6177,520.7436 846.8591,512.1379 857.2797,503.5094 867.239,494.5718 876.6497,485.374 885.1872,476.2485 893.0749,466.9843 900.2767,457.6245 906.9765,447.8901 912.9173,438.1171 918.0671,428.3974 922.572,418.4684 926.4339,408.2608 929.4989,398.1752 931.8597,387.8969 933.4212,377.834 934.2178,368.031 934.2789,358.1439 933.6057,348.5824 932.187,339.039 929.9486,329.2929 926.9165,319.5698 923.24,310.2456 918.8321,301.0244 913.6968,291.9461 908.5004,283.9938 902.7304,276.2157 896.3898,268.6404 889.4814,261.2962 882.3179,254.4897 874.5374,247.8673 866.1031,241.4241 857.2034,235.3052 847.8725,229.5276 838.1448,224.1085 827.7124,218.9037 817.2836,214.2666 806.562,210.04 795.5819,206.2411 784.3775,202.8871 772.9833,199.9951 761.8207,197.6547 750.1932,195.7222 738.557,194.2657 726.5273,193.2423 714.5234,192.6993 702.5775,192.6272 690.7215,193.0169 678.6114,193.8935 667.037,195.1929 655.2857,196.9887 644.1251,199.1593 632.8693,201.8347 622.2164,204.8489 611.2052,208.4684 600.5729,212.4672 589.963,216.9824 580.4552,221.5038 570.9748,226.4921 561.8835,231.7606 552.8804,237.4863 544.3002,243.4586 535.8721,249.8671 527.9028,256.4796 520.0383,263.5889 512.4487,271.0546 505.3695,278.6299 498.5349,286.587 491.9776,294.9081 485.7269,303.5694 479.9964,312.242 474.4119,321.4878 469.2365,330.8831 460.6977,348.5719 453.4326,366.6774 447.0088,386.309 441.5664,407.082 438.304,422.6915 435.3823,439.9995 432.7002,459.6763 426.6748,511.7944 424.7088,523.6624 422.3056,534.1343 418.891,544.6779 414.7827,554.1267 410.2653,561.7591 404.5939,568.9276 398.4017,575.1201 392.0888,580.2544 384.0,585.625 375.9823,590.0042 366.5074,594.2282 355.9471,598.124 343.4665,601.8933 332.4022,604.5968 317.744,607.2198 302.3716,609.248 288.3762,610.3079 275.2465,610.5259 261.7582,609.8314 251.9179,608.3553 247.9918,607.2911 244.9005,606.0284 243.1402,604.6869 242.383,603.179 242.8645,601.2654 244.5653,599.5848 247.6838,597.7127 252.1247,595.7937 264.1767,592.2084 282.2316,588.3178 316.0348,582.7865 375.4032,574.7739 393.8753,572.0076 414.3441,568.6229 446.11,562.4542 448.457,562.617 448.521,563.171 447.7031,564.291 443.6886,567.7071 437.4706,572.1932 426.7186,578.7824 412.9894,586.0 400.9382,591.4688 387.5229,596.6102 372.7383,601.3672 357.7665,605.2428 340.9873,608.8141 323.0088,611.7259 305.3551,613.6268 285.9899,614.8344 268.8042,614.8571 253.635,613.7844 246.5306,612.7318 240.125,611.375 236.4663,610.2513 233.3016,608.7416 231.2583,607.053 230.375,605.25 230.8369,603.2728 232.5156,601.4062 235.3778,599.4982 239.4135,597.6072 245.2774,595.5194 252.3809,593.4421 269.0711,589.6747 285.7485,586.7738 305.0451,583.8486 370.406,575.3991 405.9262,570.1968 431.8158,565.5664 456.7435,559.8581 460.2649,559.5084 460.2031,560.3555 458.8506,562.0181 448.9092,570.4134 436.411,579.0203 423.6373,586.5366 409.5861,593.3726 395.3929,599.1877 378.6545,604.6291 361.559,609.243 343.5996,613.1309 320.3023,616.7676 303.0703,618.5672 280.0127,619.7808 260.8113,619.5651 242.3382,618.1545 234.481,616.9504 227.3076,615.3768 221.9719,613.7168 218.171,611.861 215.6991,609.7969 214.6456,607.6137 215.0588,605.508 216.7747,603.4831 220.143,601.1932 224.5423,599.0905 230.2462,596.9864 237.5567,594.7899 254.9882,590.7203 271.2764,587.8524 294.3826,584.4849 380.7211,574.0426 414.7184,569.0685 431.029,566.2517 447.5046,562.821 457.2014,560.3905 473.0687,555.707 475.8333,555.3519 475.6343,556.2078 473.625,558.75 468.625,563.875"/>
  </g>
</svg>
