<?xml version="1.0" encoding="utf-8" ?>
<svg xmlns="http://www.w3.org/2000/svg" xmlns:cc="http://creativecommons.org/ns" xmlns:dc="http://purl.org/dc/elements/1.1/" xmlns:ev="http://www.w3.org/2001/xml-events" xmlns:inkscape="http://www.inkscape.org/namespaces/inkscape" xmlns:rdf="http://www.w3.org/1999/02/22-rdf-syntax-ns" xmlns:sodipodi="http://sodipodi.sourceforge.net/DTD/sodipodi-0.dtd" xmlns:xlink="http://www.w3.org/1999/xlink" baseProfile="tiny" height="27.09333333cm" version="1.2" viewBox="0 0 1024.0 1024.0" width="27.09333333cm">
  <metadata>
    <rdf:RDF>
      <cc:Work>
        <dc:format>image/svg+xml</dc:format>
        <dc:source>vpype read './original_svgs/Strange Attractors #519.svg' linemerge linesimplify write './Strange Attractors #519.svg'
</dc:source>
        <dc:date>2024-08-05T01:36:07.357091</dc:date>
      </cc:Work>
    </rdf:RDF>
  </metadata>
  <defs/>
  <g fill="none" id="layer1" inkscape:groupmode="layer" inkscape:label="1" stroke="black" stroke-width="0.7mm" style="display:inline">
    <polyline points="321.5,463.25 323.0,480.375 328.375,495.0 335.125,506.625 341.5,515.625 350.875,526.875 353.25,529.875 354.125,531.5 353.5,531.75 351.75,531.0 348.75,529.125 339.875,522.0 327.875,510.25 320.875,502.25 313.375,492.875 305.5,481.75 297.5,469.0 289.625,454.5 282.125,438.25 275.375,420.375 270.0,401.375 266.5,381.75 265.375,362.125"/>
    <polyline points="267.125,343.625 272.0,327.125 280.125,313.75 291.0,304.0 304.25,298.375 319.125,296.75 334.75,298.75 350.5,303.75 365.75,310.875 380.0,319.375 393.125,328.75 404.875,338.25 415.375,347.75 433.0,365.375 440.25,373.25 473.625,412.0 479.875,418.875 482.875,421.75"/>
    <polyline points="485.5,424.375 493.125,430.875 497.75,434.125 504.375,437.875 510.75,440.5 516.875,442.125 522.875,442.875 528.875,442.875 534.75,442.125 538.75,441.25"/>
    <polyline points="540.75,440.625 546.625,438.5 554.5,434.625 562.375,429.25 569.875,422.5 575.125,416.375 579.75,409.0 582.125,403.375 583.125,400.25 583.75,397.0"/>
    <polyline points="584.25,393.5 584.0,385.875 583.25,381.75 581.875,377.375 579.875,372.625 577.0,367.75 573.25,362.5 568.375,357.0 562.125,351.375 554.5,345.5 545.125,339.625 533.875,334.0 520.625,328.5 505.25,323.875 488.0,320.125 469.125,317.75 449.125,317.25 428.875,319.0 409.375,323.0 391.5,329.375 376.125,337.75 364.125,347.5 355.375,358.125 350.0,368.875 347.5,379.375"/>
    <polyline points="347.125,389.0 348.625,397.625 351.125,405.25 354.375,411.875 358.0,417.5 361.75,422.25 365.5,426.25 372.375,432.5 381.0,439.0 393.375,447.25 397.75,450.625 403.375,456.0"/>
    <polyline points="404.375,457.125 408.125,462.25 409.625,465.25 410.875,469.0 411.25,471.625 410.875,474.5 410.0,476.375 408.75,477.875"/>
    <polyline points="408.125,478.25 405.5,479.375 402.875,479.625 398.75,479.0 395.25,477.75 391.5,475.875 388.875,474.125 384.875,470.875 380.875,466.875"/>
    <polyline points="379.625,465.25 376.125,460.25 372.375,452.875 370.75,447.125 370.375,443.5 370.5,440.0 372.0,435.75 374.875,432.75 377.625,431.625 380.75,431.25 382.375,431.375"/>
    <polyline points="384.125,431.625 388.0,432.625 393.875,435.375 399.75,439.25 405.375,443.875 413.75,452.375 416.5,455.875 421.375,462.875 424.125,467.875"/>
    <polyline points="424.875,469.5 426.25,472.5 427.625,476.875 428.375,482.25 428.125,485.75 427.25,488.875 425.0,492.5 421.625,495.25 419.375,496.25"/>
    <polyline points="418.25,496.75 414.25,497.625 411.125,497.875 405.875,497.5 402.0,496.75 397.875,495.5 391.0,492.5 386.125,489.75 378.375,484.125 373.0,479.375 367.625,473.625 365.0,470.375"/>
    <polyline points="362.5,467.0 357.625,459.5 353.375,451.125 351.5,446.75 348.75,437.75 347.25,428.875 347.25,424.625 347.5,420.5 348.25,416.75 349.5,413.25 351.125,410.25 353.25,407.625 355.75,405.5 358.625,403.875 361.875,402.875 365.375,402.375 369.125,402.375 377.125,404.0 385.5,407.125 389.625,409.25"/>
    <polyline points="393.75,411.75 401.875,417.125 409.375,423.125 419.75,432.5 428.75,441.875 436.5,450.75 444.875,461.375 450.0,468.625 456.375,479.0"/>
    <polyline points="457.375,480.875 459.25,484.375 461.875,490.875 463.125,495.125 463.75,499.0 463.625,504.875 462.375,509.0 460.375,512.75"/>
    <polyline points="459.75,513.625 456.625,517.0 452.625,520.0 450.25,521.5 444.75,524.125 439.875,525.875 434.25,527.25 430.25,528.0 423.375,528.625"/>
    <polyline points="420.875,528.75 415.5,528.625 406.5,527.5 399.875,526.125 392.625,523.875 388.75,522.375 380.5,518.5 376.125,516.0 371.5,513.125 361.75,506.0 356.625,501.625 346.0,491.0 340.5,484.625 335.125,477.5 329.625,469.625 324.375,460.875 319.375,451.5 314.75,441.375"/>
    <polyline points="310.75,430.625 307.625,419.375 305.25,408.125 304.125,396.75 304.375,385.875 306.0,375.875 309.25,366.875 313.875,359.375 319.875,353.5 327.0,349.625 335.25,347.5 344.125,347.125 353.375,348.5 362.875,351.25 372.25,355.25 381.5,360.0 390.25,365.5 398.625,371.375 413.75,383.625 426.875,395.75 447.75,417.125"/>
    <polyline points="452.125,421.75 473.25,443.875 486.5,456.375 495.5,463.5 503.5,468.75 510.75,472.5 514.125,473.875"/>
    <polyline points="515.875,474.5 519.125,475.5 525.5,476.875 533.375,477.375 539.75,477.0 546.25,476.0 556.75,473.375"/>
    <polyline points="558.5,472.875 597.25,460.625 612.875,457.125 623.75,455.75"/>
    <polyline points="627.75,455.375 636.125,455.25 640.5,455.5 650.0,456.5 655.0,457.5 660.25,458.75 665.75,460.5 671.375,462.625 677.25,465.375 683.125,468.75 689.125,472.75 695.125,477.5 700.875,483.125 706.5,489.75 711.5,497.25 715.875,505.625 719.125,515.0 721.25,525.25 721.75,536.0 720.375,547.125 717.0,558.375 711.625,569.375 704.25,579.75 695.25,589.25"/>
    <polyline points="684.75,597.5 673.25,604.5 661.25,610.125 649.125,614.25 637.25,617.375 625.875,619.25 615.25,620.25 605.5,620.375 596.5,620.0 581.0,617.75 574.5,616.125 568.625,614.25 558.5,610.125 550.375,605.875 543.5,601.5 535.125,595.125 526.0,587.375"/>
    <polyline points="523.875,585.625 518.25,580.75 512.875,576.625 509.5,574.25 501.25,569.625 496.5,567.625 493.25,566.625 488.5,565.5 481.875,564.75"/>
    <polyline points="480.25,564.75 475.0,564.75 465.875,565.75 458.0,567.25 442.125,571.0 425.5,574.5"/>
    <polyline points="422.25,575.0 412.0,576.375 404.375,576.875 396.0,576.875 386.5,576.0 381.375,575.125 375.875,574.0 370.0,572.375 363.75,570.25 357.0,567.5 341.875,559.5 333.375,553.875 324.25,546.875 314.375,538.25 303.75,527.75 292.25,514.875 280.25,499.25 267.75,480.5 255.25,458.375 243.125,432.75"/>
    <polyline points="232.5,403.75 224.25,372.125 220.0,339.375 221.0,307.375 228.25,279.0 242.0,256.75 261.375,242.375 284.75,236.5 310.125,238.25 335.375,246.25 359.0,258.125 380.125,272.25 398.25,287.0 413.5,301.25 425.875,314.625 436.0,326.625 443.875,337.25 450.25,346.625 455.125,354.625 458.875,361.625 464.0,373.0 466.875,381.75 468.625,388.75"/>
    <polyline points="469.25,391.875 470.875,399.75 472.75,406.5 475.25,412.375 477.375,416.0 482.625,422.5 488.75,428.0 493.75,431.375 499.125,434.25"/>
    <polyline points="500.875,435.125 508.25,437.75 511.875,438.625 515.625,439.25 523.125,439.625 530.625,438.875 536.125,437.625 541.75,435.625 547.25,432.875"/>
    <polyline points="549.0,431.875 554.375,428.25 559.5,423.75 564.125,418.375 566.875,414.125 569.25,409.5 571.125,404.25 571.75,401.5 572.25,395.375 572.0,392.0 570.375,384.75 568.875,380.75 566.75,376.625 563.875,372.375 560.25,367.875"/>
    <polyline points="555.75,363.25 550.125,358.5 543.375,353.75 535.375,349.0 526.0,344.5 515.25,340.25 503.0,336.5 489.375,333.625 474.75,331.75 459.375,331.25 443.75,332.125 428.375,334.625 414.125,338.875 401.25,344.5 390.5,351.5 382.0,359.375 375.875,367.75 372.0,376.375 370.125,384.75 370.0,392.625 371.125,400.0 373.125,406.875 375.875,412.875 379.0,418.375 385.75,427.75"/>
    <polyline points="389.125,431.75 398.625,441.75 408.875,451.875 413.0,456.25 417.875,462.125 422.625,469.125 425.0,473.875 426.75,479.5 427.0,482.125"/>
    <polyline points="427.0,483.25 426.875,485.625 426.375,487.75 425.5,489.625 423.75,492.125 421.25,494.25 416.875,496.125 412.75,496.875 408.0,496.875 402.5,496.0"/>
    <polyline points="400.5,495.5 394.0,493.125 389.375,490.875 382.0,486.125 376.875,482.0 371.625,477.0 363.875,467.75 359.125,460.625 354.875,452.625 351.5,444.125 349.25,435.375 348.375,426.875"/>
    <polyline points="348.5,422.875 349.0,419.125 351.5,412.5 353.375,409.875 355.625,407.625 358.25,405.875 361.25,404.625 364.625,404.0 368.125,403.75 375.75,404.875 379.75,406.0 383.875,407.625 392.0,411.75 399.875,416.875 411.0,425.625 417.75,431.75 426.75,441.0"/>
    <polyline points="429.5,444.0 439.0,455.25 449.625,469.875 454.625,478.125 457.375,483.625 459.5,488.625 461.5,495.875"/>
    <polyline points="461.75,497.25 462.0,499.75 461.875,503.25 461.125,506.5 459.5,510.5 457.625,513.25 455.125,515.875 452.25,518.25 447.5,521.125"/>
    <polyline points="446.125,521.875 440.125,524.25 434.75,525.75 428.625,526.875 421.75,527.375 413.875,527.25 408.0,526.5 401.5,525.25 390.75,521.75 382.75,518.25"/>
    <polyline points="378.5,516.0 374.125,513.375 364.75,506.75 359.75,502.75 354.75,498.125 349.5,492.875 344.25,487.0 338.875,480.375 333.5,473.125 328.25,465.0 323.25,456.125 318.625,446.625 314.375,436.5 310.875,425.875 308.25,414.875 306.5,403.875 306.0,393.125 306.875,383.0 309.125,373.625 312.75,365.625 317.875,359.0 324.125,354.125 331.625,351.0 339.75,349.625 348.625,350.0"/>
    <polyline points="357.75,351.75 366.875,354.875 376.0,359.125 384.75,364.0 393.25,369.5 401.25,375.25 408.75,381.25 422.25,393.25 433.875,404.5 470.25,442.75 478.75,451.125 486.25,458.0"/>
    <polyline points="488.5,460.0 492.875,463.5 500.875,469.125 509.75,474.125 516.25,476.75 522.5,478.375 527.0,479.125 531.5,479.375"/>
    <polyline points="533.0,479.375 540.625,478.875 551.875,476.625 562.5,473.5 576.75,468.75"/>
    <polyline points="579.0,468.125 593.75,463.5 605.375,460.625 618.625,458.5 626.125,457.875 634.125,457.75 642.875,458.375 647.5,459.0 657.375,461.125 662.625,462.75 667.875,464.875"/>
    <polyline points="673.375,467.375 679.0,470.5 684.625,474.25 690.25,478.625 695.75,483.875 701.0,489.875 705.875,496.625 710.0,504.375 713.375,512.875 715.625,522.125 716.5,532.0 715.75,542.375 713.25,552.75 708.875,563.125 702.75,573.0 695.0,582.125 685.75,590.25 675.5,597.375 664.625,603.125 653.25,607.75 642.125,611.125 631.125,613.375 620.75,614.75 611.0,615.375 602.0,615.25 593.75,614.625"/>
    <polyline points="586.25,613.5 579.5,612.125 567.875,608.625 558.25,604.5 550.25,600.25 537.875,591.75 518.25,575.875 509.5,569.75"/>
    <polyline points="507.875,568.625 501.375,565.25 496.625,563.375 490.375,561.625 482.25,560.625 477.25,560.625 466.625,561.625"/>
    <polyline points="464.75,561.875 432.75,568.5 420.625,570.375 413.875,571.0 406.375,571.25 402.25,571.25 393.5,570.625"/>
    <polyline points="388.875,570.0 378.5,567.75 372.75,566.125 366.75,563.875 360.125,561.125 353.25,557.625 345.75,553.25 337.625,547.875 329.0,541.25 319.75,533.125 309.75,523.25 299.25,511.375 288.125,497.125 276.625,480.125 265.125,460.25 254.125,437.375 244.25,411.625 236.375,383.5 231.625,354.25 231.25,325.25 236.0,298.75 246.375,276.875 261.875,261.125 281.5,252.625 303.625,251.125"/>
    <polyline points="326.5,255.625 348.875,264.625 369.5,276.375 387.75,289.375 403.625,302.75 417.0,315.625 428.25,327.625 437.5,338.5 451.25,356.75 456.25,364.25 463.75,376.625 468.875,386.125 479.125,406.75 483.625,414.0"/>
    <polyline points="484.875,415.625 487.375,418.5 491.25,422.125 495.5,425.125 500.0,427.625 506.125,430.0 511.0,431.125 515.75,431.625 522.125,431.375"/>
    <polyline points="523.75,431.125 527.0,430.5 531.625,429.0 534.625,427.625 540.25,423.875 544.125,420.25 546.375,417.375 548.375,414.125 549.875,410.5 550.5,408.625 551.125,404.375 551.0,399.625"/>
    <polyline points="550.625,397.125 550.0,394.5 547.625,389.0 543.75,383.125 537.875,377.0 534.125,373.875 529.75,370.875 524.75,367.875 512.625,362.25 505.625,359.875 497.875,357.875 489.75,356.375 481.0,355.375 472.125,355.0 463.125,355.5 454.25,356.625 445.625,358.625 437.75,361.375 430.5,364.875 424.375,368.875 419.25,373.5 415.25,378.5"/>
    <polyline points="412.375,383.75 410.5,389.125 409.625,394.5 409.625,399.75 410.5,404.875 411.75,409.875 413.625,414.625 415.875,419.125 421.0,427.375 423.75,431.25 429.5,438.375 437.75,447.875 447.875,458.625 459.75,472.125"/>
    <polyline points="461.375,474.125 467.0,481.375 473.75,491.875 475.625,495.625 477.625,501.25 478.25,505.125 478.25,507.0"/>
    <polyline points="478.25,507.875 478.125,509.5 477.25,512.625 474.75,517.0 470.125,521.625 464.5,525.375"/>
    <polyline points="463.5,526.0 457.375,529.125 453.0,530.875 448.25,532.5 440.875,534.5 429.875,536.375 422.125,536.875 416.5,536.75"/>
    <polyline points="413.375,536.5 403.375,535.25 395.875,533.375 387.625,530.625 378.5,526.625 368.625,520.875 363.25,517.375 357.75,513.125 351.875,508.25 346.0,502.75 339.75,496.25 333.5,489.0 327.0,480.75 320.75,471.5 314.5,461.125 308.5,449.75 303.125,437.5 298.5,424.375 294.75,410.75 292.375,396.875"/>
    <polyline points="291.5,383.125 292.5,370.125 295.375,358.375 300.25,348.25 306.875,340.25 315.25,334.625 325.0,331.5 335.625,330.75 346.75,332.25 358.125,335.5 369.375,340.375 380.125,346.25 390.375,352.875 400.0,359.875 417.0,374.25 431.25,387.875 469.375,428.375"/>
    <polyline points="472.875,431.875 485.0,443.375 495.25,451.5 502.25,456.0 510.875,460.375 517.0,462.5 524.875,464.25 530.625,464.75"/>
    <polyline points="532.5,464.875 540.25,464.5 544.25,464.0 554.375,461.75 565.25,458.375 587.75,449.625"/>
    <polyline points="590.625,448.5 609.5,441.375 624.75,436.75 633.375,434.75 642.875,433.125 653.5,432.25 659.375,432.125 672.0,433.0 679.0,434.125 686.5,435.875 694.375,438.375 702.875,441.75 711.75,446.125 721.0,451.75"/>
    <polyline points="730.625,459.0 740.25,468.0 749.75,478.875 758.25,492.0 765.375,507.25 770.125,524.75 771.625,543.875 769.125,564.125 761.75,584.375 749.625,603.75 733.375,621.125 713.875,635.875 692.625,647.5 671.125,656.0 650.625,661.875 631.75,665.625 615.0,667.5 600.625,668.25 588.5,668.125 578.5,667.375 570.375,666.125 563.75,664.625 558.5,662.875 554.25,661.0 551.0,659.0 548.375,656.75"/>
    <polyline points="546.375,654.5 544.75,652.0 542.375,647.0 540.0,638.75 536.375,624.25 532.625,613.0 529.25,605.25 526.75,600.5 522.75,594.0 520.0,590.125"/>
    <polyline points="518.625,588.375 515.75,585.0 509.75,579.375 505.25,576.0 502.125,574.125 496.0,571.25 491.25,569.75 484.875,568.625 479.75,568.25"/>
    <polyline points="478.125,568.25 469.125,568.875 459.5,570.625 430.625,577.875 421.5,579.875"/>
    <polyline points="418.25,580.5 411.25,581.625 403.625,582.375 395.125,582.75 390.5,582.625 385.625,582.25 375.0,580.75 362.75,577.5 356.0,575.0 348.625,571.75 340.75,567.5 332.0,562.125 322.625,555.375 312.5,547.0 301.375,536.5 289.375,523.5 276.625,507.625 263.25,488.25 249.5,465.0 236.0,437.625 223.75,406.375"/>
    <polyline points="214.25,371.625 208.875,335.125 209.375,299.375 217.125,267.375 232.375,242.5 254.25,226.875 280.75,221.125 309.0,224.25 336.75,234.0 362.25,248.0 384.5,263.875 403.125,280.0 418.375,295.25 430.375,309.25 439.75,321.5 446.875,332.25 452.125,341.375 455.875,349.25 458.5,356.125 460.25,362.0 461.25,367.125 461.75,371.625 461.875,375.625 461.375,386.0"/>
    <polyline points="461.0,389.125 460.75,394.875 461.375,403.0 462.625,408.125 465.625,415.25 469.875,421.875 475.0,428.0 482.75,435.0 486.75,438.0 492.875,442.0"/>
    <polyline points="495.0,443.25 503.25,447.25 511.5,450.125 517.625,451.5 523.625,452.25 529.75,452.375 537.875,451.625 546.125,449.875"/>
    <polyline points="548.25,449.25 554.75,447.125 563.625,443.25 570.5,439.625 580.25,433.875 593.0,424.875 598.375,420.625 609.125,411.0"/>
    <polyline points="611.875,408.25 619.75,399.25 624.75,392.25 627.0,388.5 630.875,380.25 632.375,375.625 633.375,370.625 633.875,365.25 633.75,359.375 632.625,353.0 630.25,346.0 626.5,338.25 620.75,329.75 612.375,320.375 601.0,310.25 585.5,299.5 565.0,288.25 538.75,277.25 506.125,267.625 467.125,260.75 423.25,258.75 377.5,263.375"/>
    <polyline points="334.5,275.5 298.875,294.25 273.75,317.25 259.375,341.125 253.875,362.75 254.5,380.25 258.375,393.0 263.375,401.125 268.25,405.0 272.625,405.25 276.25,402.625 279.25,397.875 288.0,375.625 291.75,367.5 296.5,359.875 302.375,353.25 309.25,347.875 317.0,344.0 325.75,341.875 335.125,341.5 344.75,342.75 354.625,345.375 364.5,349.25 374.0,354.0"/>
    <polyline points="383.25,359.5 392.0,365.375 400.125,371.625 407.875,378.0 421.625,390.375 433.375,402.0 466.875,437.5 473.125,443.75 483.875,453.875 493.125,461.5"/>
    <polyline points="495.375,463.0 499.375,465.875 505.25,469.375 508.875,471.25 515.75,474.0 520.75,475.5 525.5,476.375 531.875,476.875 538.25,476.625"/>
    <polyline points="539.875,476.5 548.25,475.125 558.875,472.375 589.75,462.375"/>
    <polyline points="592.5,461.625 610.625,457.0 625.0,455.0 637.5,454.625 642.125,454.875 651.75,456.0 662.25,458.5 667.75,460.375 673.5,462.625 679.5,465.625 685.5,469.125 691.625,473.375 697.625,478.5 703.5,484.375"/>
    <polyline points="709.0,491.375 714.0,499.25 718.125,508.125 721.25,517.875 722.875,528.375 722.875,539.5 720.875,551.0 716.875,562.375 710.75,573.5 702.625,583.75 692.875,593.0 681.75,601.0 669.875,607.625 657.5,612.875 645.25,616.75 633.375,619.375 622.125,620.875 611.625,621.625 602.0,621.625 585.375,619.875 571.875,616.75 561.125,612.75 556.625,610.625"/>
    <polyline points="552.5,608.5 542.125,601.875 531.5,593.5 521.125,584.375 513.875,578.5 505.5,572.875 499.0,569.625"/>
    <polyline points="497.375,569.0 494.25,567.875 487.75,566.375 479.5,565.625 470.625,566.125 467.0,566.625 459.125,568.0 452.625,569.5"/>
    <polyline points="450.5,570.0 435.625,573.625 417.5,577.125 406.5,578.25 398.375,578.5 389.125,578.0 378.875,576.5 367.25,573.375 360.75,571.125 353.75,568.125"/>
    <polyline points="346.25,564.25 338.125,559.375 329.25,553.375 319.75,545.75 309.375,536.375 298.375,524.875 286.5,510.875 274.0,493.875 261.125,473.5 248.375,449.625 236.375,422.0 226.25,391.0 219.125,357.875 216.75,324.125 220.25,292.375 230.5,265.5 247.25,245.875 269.25,234.75 294.5,232.5 320.75,237.5 346.125,247.875 369.125,261.375 389.25,276.375 406.25,291.375 420.25,305.5 431.5,318.5"/>
    <polyline points="440.5,330.0 447.5,340.0 452.875,348.75 457.0,356.25 460.125,362.875 464.125,373.5 465.25,377.875 466.75,385.25 468.625,399.375 470.25,406.25 473.75,414.5 478.875,421.625"/>
    <polyline points="480.375,423.25 485.125,427.875 490.25,431.75 493.875,434.125 499.5,437.125 503.25,438.75 509.0,440.625 514.75,441.875 518.625,442.375 526.375,442.625"/>
    <polyline points="528.25,442.375 534.125,441.625 541.875,439.5 547.75,437.125 555.5,432.875 561.25,428.75 566.75,423.875 572.0,418.0 575.125,413.5"/>
    <polyline points="576.625,411.0 579.125,405.625 580.875,399.625 581.5,396.375 581.75,389.25 581.25,385.375 580.25,381.25 578.625,376.875 576.375,372.25 573.375,367.375 569.25,362.25 564.125,356.875 557.75,351.375 549.75,345.75 540.25,340.125 528.875,334.625 515.625,329.75 500.375,325.375 483.5,322.25 465.25,320.375 446.125,320.375 427.0,322.5 408.625,326.75"/>
    <polyline points="392.125,333.25 378.0,341.375 367.0,350.875 359.125,361.0 354.375,371.25 352.125,381.125 352.0,390.375 353.5,398.75 356.0,406.125 359.125,412.625 362.75,418.125 366.375,422.875 373.5,430.5 380.0,436.25 394.5,447.5 400.875,453.0"/>
    <polyline points="402.25,454.25 406.625,459.125 409.0,462.5 410.75,465.75 411.875,468.875 412.5,471.625 412.5,474.125 412.0,476.375 410.875,478.25"/>
    <polyline points="410.5,478.75 408.75,480.0 406.5,480.875 402.75,481.125 399.375,480.625 395.75,479.375 391.625,477.375 387.375,474.5 383.0,470.75"/>
    <polyline points="381.625,469.375 376.125,462.625 372.625,456.875 370.75,452.625 369.375,448.5 368.375,442.25 368.375,440.375 369.0,436.75 369.5,435.25 371.125,432.5 372.125,431.375 374.75,429.75 378.0,429.0"/>
    <polyline points="379.75,428.875 381.625,429.0 385.625,429.875 389.75,431.375 396.25,434.875 400.5,437.75 408.5,444.625 412.125,448.25 418.5,455.75 424.625,464.875"/>
    <polyline points="425.625,466.625 428.125,471.625 429.875,476.375 430.875,480.75 431.125,485.875 430.25,490.5 429.25,492.5 427.375,495.125 424.75,497.25"/>
    <polyline points="423.75,497.875 420.25,499.5 414.375,500.625 409.125,500.625 405.25,500.125 398.875,498.5 391.625,495.5 386.375,492.75 380.875,489.125 372.375,482.0"/>
    <polyline points="369.375,479.125 363.625,472.5 358.0,465.0 352.875,456.375 348.625,447.0 346.75,442.0 344.25,432.0 343.375,422.375 343.75,417.75 344.5,413.5 345.75,409.625 347.625,406.125 349.875,403.25 352.75,401.0 355.875,399.25 359.5,398.125 363.375,397.625 367.625,397.75 371.875,398.375 376.375,399.5"/>
    <polyline points="381.0,401.25 385.625,403.25 390.125,405.625 399.0,411.375 407.5,417.625 418.875,427.75 428.875,437.75 434.75,444.125 442.375,453.125 450.625,463.75 457.125,473.0"/>
    <polyline points="458.5,475.0 463.125,482.625 465.75,487.625 468.625,494.875 469.875,499.875 470.125,502.25 470.125,505.375 469.375,509.375"/>
    <polyline points="469.125,510.25 467.5,513.75 466.375,515.375 463.5,518.5 460.875,520.75 456.625,523.625 452.875,525.625 445.5,528.625"/>
    <polyline points="443.75,529.125 434.25,531.5 425.0,532.5 414.125,532.5 404.5,531.125 397.375,529.5 389.625,526.875 385.5,525.125 376.5,520.75 366.75,514.625"/>
    <polyline points="361.625,510.875 350.625,501.375 344.875,495.625 333.125,481.75 327.25,473.375 321.5,464.25 316.0,454.25 310.75,443.375 306.25,431.75 302.5,419.5 299.75,407.0 298.25,394.5 298.25,382.375 299.875,371.125 303.25,361.0 308.25,352.625 314.875,346.125 322.875,341.75 331.875,339.5 341.75,339.375 351.875,341.125 362.25,344.375 372.5,348.875 382.375,354.375"/>
    <polyline points="391.75,360.375 400.625,366.875 408.875,373.5 416.5,380.125 423.5,386.625 436.0,399.0 473.75,438.625 482.5,447.0 490.25,453.625 499.5,460.25"/>
    <polyline points="501.625,461.625 507.75,465.0 511.625,466.75 517.25,468.75 522.75,470.125 526.375,470.75 531.625,471.125 537.0,471.125 542.375,470.625 547.875,469.625"/>
    <polyline points="549.75,469.25 561.625,466.125 593.0,455.375 605.25,451.625 612.0,449.875"/>
    <polyline points="615.625,449.125 619.375,448.25 627.375,447.0 640.75,445.875 650.75,446.125 662.0,447.5 674.25,450.625 680.875,452.875 687.75,456.0 694.875,459.75 702.125,464.5 709.5,470.25 716.75,477.125 723.75,485.375 730.125,494.875 735.625,505.875 739.5,518.125 741.625,531.5 741.25,545.75 738.25,560.375"/>
    <polyline points="732.25,574.75 723.25,588.5 711.75,601.0 698.125,611.875 683.25,620.75 667.75,627.75 652.25,632.875 637.5,636.375 623.75,638.5 611.125,639.375 600.0,639.5 590.0,638.875 581.375,637.625 573.75,636.125 567.25,634.375 561.625,632.375 556.625,630.25 548.5,625.875 539.5,619.0 534.75,614.5 530.75,610.0"/>
    <polyline points="528.875,608.0 517.375,594.875 508.25,586.5 503.625,583.375 497.5,580.125 494.375,578.875 489.625,577.625"/>
    <polyline points="488.0,577.25 481.5,576.5 476.375,576.5 469.25,577.25 457.5,579.875 439.5,585.875"/>
    <polyline points="436.875,586.75 416.875,593.75 406.625,596.75 399.0,598.625 390.625,600.125 386.125,600.625 381.25,601.0 370.75,601.0 358.625,599.625 344.375,595.875 336.375,592.75 327.5,588.5 317.75,582.75"/>
    <polyline points="306.875,575.375 294.875,565.625 281.625,553.125 266.875,537.125 250.75,516.75 233.5,491.125 215.625,459.5 198.25,421.25 183.125,376.625 172.875,327.5 170.625,277.25 179.375,231.5 199.875,196.25 230.875,175.625 268.25,170.75 307.0,179.0 343.125,195.875 374.25,216.75 399.25,238.25 418.25,258.375 432.0,276.125 441.25,291.125 446.75,303.5 449.375,313.875 449.625,322.5 448.125,329.75"/>
    <polyline points="445.5,336.125 441.875,341.875 426.0,363.0 422.875,368.25 420.375,373.625 418.5,379.0 417.375,384.375 416.875,389.625 417.0,394.75 417.75,399.75 419.0,404.625 420.625,409.25 422.625,413.75 427.375,422.0 432.75,429.625 438.25,436.5 449.125,448.5"/>
    <polyline points="451.75,451.25 476.25,476.375 491.25,492.875"/>
    <polyline points="492.125,493.875 499.75,503.5 502.375,508.125"/>
    <polyline points="502.5,508.375 503.125,510.25 503.125,512.375 502.125,514.375"/>
    <polyline points="502.0,514.625 500.0,516.625 495.0,519.875"/>
    <polyline points="494.5,520.125 484.125,525.5 478.25,528.125"/>
    <polyline points="477.25,528.5 466.25,533.125 459.25,535.5 451.0,538.0 441.25,540.375"/>
    <polyline points="439.0,540.75 432.0,541.875 426.75,542.375 415.0,542.5 411.75,542.25 401.0,540.75 393.0,538.625 384.0,535.625 374.25,531.0 368.875,528.125 363.25,524.625 351.25,515.625 344.875,510.0 338.25,503.5"/>
    <polyline points="331.375,496.0 324.375,487.375 317.25,477.625 310.25,466.625 303.375,454.25 297.125,440.75 291.5,426.25 286.875,410.875 283.75,395.0 282.375,379.25 283.0,364.125 286.0,350.25 291.375,338.5 299.0,329.125 308.5,322.75 319.625,319.375 331.875,318.75 344.625,320.875 357.5,325.0 370.0,330.75 381.875,337.75 393.0,345.375 403.25,353.375 412.625,361.375 421.125,369.125 428.75,376.625"/>
    <polyline points="435.75,383.75 470.0,421.0 483.0,434.0 491.375,441.0 498.875,446.375 508.125,451.375 516.75,454.5"/>
    <polyline points="518.875,455.0 527.125,456.25 533.25,456.375 537.375,456.125 545.625,454.875 558.625,451.0 572.625,445.0"/>
    <polyline points="575.125,443.875 588.25,437.0 634.5,410.125 647.375,403.25 662.125,396.25"/>
    <polyline points="667.5,394.125 679.375,390.0 686.0,388.125 693.0,386.625 700.75,385.5 709.25,384.875 718.625,384.875 729.0,385.75 740.75,387.875 753.875,391.625 768.75,397.5 785.5,406.375 804.0,419.125 823.875,436.875 844.0,460.875 862.125,492.25 874.375,531.375 875.875,576.625 861.875,624.5 830.875,669.375 786.25,706.25 735.375,732.625 686.125,749.5 644.125,759.625 611.5,765.875"/>
    <polyline points="588.625,770.25 574.375,774.125 567.5,777.875 566.625,781.25 570.25,784.0 577.375,785.25 586.75,784.75 597.375,781.625 608.375,775.75 618.75,766.875 627.875,755.375 635.375,741.625 641.0,726.125 644.75,709.75 646.75,693.0 647.375,676.625 646.875,660.875 645.375,646.25 643.25,632.875 640.75,620.875 638.0,610.125 635.125,600.625 632.125,592.25 629.25,584.875 623.625,573.0"/>
    <polyline points="620.875,568.25 615.75,560.375 613.375,557.25 606.625,549.625 600.75,544.125 585.625,531.875 579.875,526.0"/>
    <polyline points="579.125,525.125 576.125,520.625 575.0,518.0 574.25,514.75 574.25,512.375 574.625,510.125 575.375,507.875 577.125,505.125"/>
    <polyline points="577.625,504.5 580.125,501.875 583.375,499.5 589.5,496.375 597.25,493.875 604.875,492.625"/>
    <polyline points="606.5,492.5 615.125,492.75 620.75,493.75 626.375,495.375 632.0,498.0 635.625,500.375 640.5,504.75 644.375,510.25 646.75,516.625"/>
    <polyline points="647.125,519.0 647.25,521.375 646.75,526.125 646.125,528.625 644.125,533.25 642.75,535.5 639.125,539.75 634.75,543.375 632.25,545.0 626.75,547.625 623.875,548.625 621.0,549.5 615.0,550.625 606.0,551.0 600.25,550.5 594.75,549.5"/>
    <polyline points="592.125,548.75 584.875,546.375 578.375,543.375 571.25,538.875 565.5,534.375 562.0,531.0 556.875,524.625 555.75,522.625"/>
    <polyline points="555.125,521.625 553.875,518.875 553.125,516.25 552.75,511.375 553.875,506.875 554.5,505.5 556.875,502.125"/>
    <polyline points="557.5,501.5 562.625,496.875 570.875,491.75 574.625,489.875 585.0,485.75"/>
    <polyline points="586.75,485.25 594.0,483.125 602.25,481.5 614.0,480.625 619.25,480.75 627.375,481.75 636.125,484.0 639.125,485.0 645.0,487.75 648.0,489.5"/>
    <polyline points="650.875,491.375 656.5,496.0 661.625,501.625 665.75,508.375 667.375,512.125 669.375,520.25 669.625,524.625 669.5,529.0 667.375,538.0 665.375,542.375 662.875,546.625 659.875,550.625 656.25,554.375 652.25,557.75 647.875,560.875 643.125,563.625 638.25,565.875 633.125,567.75 628.0,569.25 617.625,571.0"/>
    <polyline points="612.5,571.375 602.875,571.25 593.875,570.0 581.875,567.0 574.875,564.25 565.75,559.875 558.125,555.25 549.75,549.25 540.125,541.125"/>
    <line x1="538.75" x2="520.0" y1="539.875" y2="521.125"/>
    <polyline points="519.625,520.625 514.0,514.875 511.5,513.125 509.625,513.375 505.25,515.625"/>
    <line x1="505.0" x2="498.375" y1="515.625" y2="519.0"/>
    <line x1="498.0" x2="484.5" y1="519.125" y2="525.625"/>
    <polyline points="483.75,526.0 470.375,531.75 455.0,537.125"/>
    <polyline points="453.25,537.625 439.75,540.875 430.25,542.25 422.0,542.75 412.75,542.5 402.125,541.125 394.125,539.25 380.625,534.375"/>
    <polyline points="375.625,532.0 364.875,525.875 359.125,521.875 353.0,517.25 346.625,511.875 340.125,505.625 333.25,498.375 326.25,490.125 319.125,480.625 312.0,469.875 305.125,458.0 298.625,444.75 292.75,430.375 287.75,415.125 284.25,399.375 282.25,383.5 282.375,368.0 284.625,353.75 289.375,341.25 296.375,331.125 305.5,323.875 316.25,319.625 328.375,318.25 341.0,319.75 353.875,323.375"/>
    <polyline points="366.625,328.75 378.75,335.5 390.125,343.0 400.625,350.875 410.25,359.0 419.0,366.875 434.0,381.75 446.375,394.875 465.125,415.625 479.25,430.25 488.0,438.125 495.875,444.125 500.75,447.25"/>
    <polyline points="503.0,448.625 509.75,451.875 516.25,454.125 522.5,455.5 530.75,456.25 536.875,456.0 541.0,455.5 547.25,454.25 555.875,451.625"/>
    <polyline points="558.125,450.875 567.25,447.25 579.625,441.25 602.0,428.625 629.375,412.125"/>
    <polyline points="633.375,409.875 641.5,405.125 655.125,397.875 670.75,390.75 682.75,386.375 689.375,384.5 696.5,382.75 704.375,381.5 713.0,380.75 722.5,380.625 733.125,381.5 745.125,383.625 758.75,387.375 774.25,393.5 791.625,402.75 811.125,416.125 832.125,435.0 853.375,460.75 872.25,494.625 884.375,536.75"/>
    <polyline points="884.125,585.375 866.5,636.125 830.5,682.5 780.875,719.375 726.5,744.875 675.875,760.5 634.0,769.75 603.0,775.875 582.375,780.625 570.875,785.125 566.875,789.5 569.0,793.375 575.5,796.25 585.375,797.125 597.25,795.5 609.875,790.75 622.125,782.5 633.25,770.875 642.375,756.25 649.5,739.5 654.25,721.375 657.0,702.75 658.0,684.5 657.625,667.0 656.125,650.75 653.875,636.0"/>
    <polyline points="651.25,622.875 648.25,611.375 645.125,601.25 639.0,585.125 633.0,573.25 627.375,564.625 622.0,558.375 617.125,553.625 614.75,551.75 608.0,547.125 591.125,537.375"/>
    <polyline points="589.625,536.5 581.75,530.75 577.75,527.0 575.5,524.25 572.375,518.875 571.25,513.75"/>
    <polyline points="571.25,513.0 571.625,509.875 572.125,508.375 573.625,505.5 575.25,503.375 576.5,502.0 581.375,498.25 585.625,496.0"/>
    <polyline points="586.75,495.5 593.125,493.125 599.0,491.625 607.5,490.625 611.125,490.625 618.875,491.25 622.875,492.125 629.125,494.125"/>
    <polyline points="631.125,495.0 635.125,497.125 639.0,499.75 642.5,503.0 645.625,506.875 647.0,508.875 649.125,513.5 649.875,515.875 650.625,521.125 650.625,523.75 649.625,529.125 648.75,531.75 646.0,537.0 644.125,539.375 639.75,543.75 634.375,547.5"/>
    <polyline points="631.375,549.125 621.875,552.5 615.25,553.625 608.625,554.125 599.125,553.375 590.375,551.5 580.25,547.75 573.875,544.375 565.125,538.375"/>
    <polyline points="563.625,537.125 559.75,533.625 555.5,529.125 552.375,524.875 549.375,519.25 548.375,515.875 548.0,512.75"/>
    <polyline points="548.0,512.0 548.375,509.125 548.875,507.75 551.375,503.25 555.625,498.875 559.75,495.875"/>
    <polyline points="560.625,495.25 569.375,490.25 579.25,485.875 586.0,483.5 597.75,480.5"/>
    <polyline points="600.0,480.125 609.375,478.875 619.875,478.75 628.5,479.75 634.625,481.125 640.875,483.125 647.25,486.0 650.375,487.75 656.5,492.125 659.5,494.75 662.375,497.625 665.0,500.875 667.375,504.375 669.375,508.25"/>
    <polyline points="671.125,512.25 672.375,516.625 673.25,521.125 673.5,525.875 673.125,530.75 672.25,535.625 670.625,540.5 668.375,545.25 665.5,549.75 662.0,554.125 657.875,558.0 653.375,561.625 648.5,564.875 643.25,567.625 637.875,569.875 632.25,571.75 626.625,573.25 615.625,574.75 610.25,575.0 600.0,574.5 590.75,573.0 582.25,570.75"/>
    <polyline points="578.5,569.5 571.375,566.625 565.125,563.5 559.5,560.25 552.25,555.5 540.875,546.625 528.0,535.25"/>
    <polyline points="527.0,534.375 517.75,526.375 512.375,522.75 511.0,522.125"/>
    <polyline points="510.5,521.875 507.625,520.875 505.25,520.5 503.125,520.5 500.25,521.0"/>
    <polyline points="499.75,521.0 494.375,522.625 485.375,526.25"/>
    <polyline points="484.625,526.5 468.875,532.875 456.125,537.125"/>
    <polyline points="454.375,537.625 445.25,540.125 434.25,542.125 426.5,542.875 417.875,543.125 407.875,542.375 400.5,541.125 392.375,539.125 383.375,536.0"/>
    <polyline points="378.5,533.875 368.0,528.25 362.375,524.75 350.25,515.5 343.75,509.75 337.0,503.125 330.0,495.375 323.0,486.5 315.75,476.5 308.625,465.25 301.875,452.625 295.5,438.875 290.0,424.0 285.5,408.375 282.5,392.25 281.375,376.25 282.375,361.125 285.75,347.375 291.5,335.75 299.625,326.75 309.625,320.75 321.125,317.875 333.625,317.75 346.5,320.25"/>
    <polyline points="359.5,324.875 372.0,331.0 383.875,338.125 395.0,346.0 405.125,354.0 422.875,369.875 430.375,377.375 443.375,391.125 467.125,417.25 480.875,431.25 489.375,438.75 494.625,442.75 499.5,446.0"/>
    <polyline points="501.875,447.5 506.5,449.875 513.125,452.625 519.5,454.375 525.625,455.375 533.875,455.625 540.0,455.0 550.5,452.75 554.875,451.375"/>
    <polyline points="557.125,450.625 568.625,445.875 581.0,439.625 600.5,428.25 627.0,411.375"/>
    <polyline points="630.75,409.0 642.5,401.375 665.125,387.75 681.125,379.375 693.375,374.0 707.5,369.375 715.5,367.5 724.375,366.125 734.125,365.375 745.25,365.625 757.875,367.25 772.375,370.625 789.25,376.5 808.625,386.0 830.875,400.5 855.625,421.625"/>
    <polyline points="881.375,451.625 904.5,492.5 918.75,544.5 915.5,604.875 887.875,666.5 836.375,719.875 770.875,758.5 705.25,782.5 649.875,796.25 609.0,804.875 583.125,812.125 570.25,819.375 568.25,827.0 574.75,834.125 587.875,839.5 605.125,841.375 624.625,838.375 644.125,829.625 661.75,814.75 676.125,794.5 686.625,770.375 693.25,744.25 696.5,717.75 697.0,692.5 695.625,669.375 693.0,649.0"/>
    <polyline points="689.75,631.625 686.125,617.0 682.375,605.0 678.625,595.375 674.875,587.875 671.25,582.0 667.5,577.5 663.875,574.25 660.125,571.875 656.375,570.25 652.5,569.125 648.5,568.375 640.375,567.625 623.625,566.75 615.375,565.875 603.625,563.75 593.0,560.75"/>
    <polyline points="589.75,559.625 583.625,557.125 578.125,554.375 573.125,551.625 566.5,547.375 559.25,541.75 553.5,536.625 550.0,533.0 545.5,527.5"/>
    <polyline points="544.75,526.5 541.75,521.875 539.5,516.5 539.0,513.75 539.0,511.25 539.75,508.375"/>
    <polyline points="539.875,507.875 542.625,503.625 545.25,501.0 549.25,497.875 554.25,494.625"/>
    <polyline points="555.25,494.125 562.75,490.0 575.25,484.5 582.0,482.0 591.75,479.125"/>
    <polyline points="593.875,478.625 605.5,476.5 616.125,475.75 628.125,476.375 637.875,478.375 648.125,482.125 655.125,486.0 658.5,488.25 661.875,491.0 668.25,497.25"/>
    <polyline points="671.0,501.0 673.625,505.125 675.75,509.5 677.5,514.25 678.75,519.25 679.25,524.5 679.25,529.875 678.5,535.375 676.875,540.875 674.625,546.375 671.5,551.625 667.75,556.5 663.25,561.125 658.25,565.25 652.75,569.0 646.875,572.125 640.75,574.75 634.5,576.875 628.25,578.5 615.875,580.25 610.0,580.375 598.875,579.875 588.75,578.125"/>
    <polyline points="584.25,577.0 579.875,575.75 572.0,572.75 565.0,569.5 556.0,564.375 548.5,559.375 542.125,554.625 525.25,540.75"/>
    <polyline points="524.0,539.875 517.75,535.0 512.375,531.625 507.0,529.125 502.625,528.0"/>
    <polyline points="501.875,527.875 498.375,527.5 494.0,527.75 488.625,528.75 482.375,530.5"/>
    <polyline points="481.375,530.75 460.625,537.625 446.625,541.375"/>
    <polyline points="444.5,541.875 438.0,543.125 430.625,544.125 422.375,544.625 416.25,544.625 406.0,543.75 394.25,541.375 385.375,538.5 375.5,534.25 364.5,528.125 352.375,519.5"/>
    <polyline points="346.0,514.0 339.125,507.75 332.125,500.375 324.875,491.875 317.625,482.125 310.25,471.125 303.0,458.875 296.25,445.125 290.125,430.25 284.875,414.375 281.125,397.875 279.125,381.25 279.125,365.125 281.625,350.125 286.625,337.125 294.125,326.75 303.75,319.375 315.25,315.25 327.875,314.125 341.125,315.875 354.625,320.0 367.625,325.875 380.125,333.125 391.75,341.0 402.5,349.25 412.125,357.5"/>
    <polyline points="421.0,365.625 436.0,380.75 470.5,418.75 477.375,425.875 483.625,431.75 491.875,438.75 499.375,444.0 506.25,447.75 512.875,450.5"/>
    <polyline points="515.0,451.125 519.25,452.25 525.5,453.25 533.75,453.375 537.875,453.0 546.25,451.375 552.625,449.5 561.5,446.125 568.5,442.875"/>
    <polyline points="570.875,441.625 578.125,437.625 591.125,429.5 611.125,414.75 623.25,404.125 629.375,398.0 635.5,391.375 641.25,383.875"/>
    <polyline points="643.875,379.75 646.375,375.5 648.625,370.75 650.5,365.75 651.875,360.25 652.625,354.375 652.5,347.75 651.25,340.625 648.5,332.5 643.875,323.5 636.5,313.5 625.75,302.375 610.375,290.0 589.25,276.75 560.75,263.125 523.625,250.25 477.375,240.375 423.25,236.125 365.125,240.75 310.25,256.125 265.75,280.875 236.25,310.875 221.875,340.75 218.5,366.0 221.625,384.375 227.125,395.375"/>
    <polyline points="232.75,399.75 237.25,398.125 240.625,391.875 243.25,381.875 248.75,354.875 253.125,340.125 259.25,326.125 267.75,313.875 278.375,304.375 291.125,298.25 305.375,295.5 320.5,296.125 335.875,299.75 351.125,305.625 365.5,313.25 378.875,322.0 391.125,331.125 402.125,340.5 411.875,349.625 428.375,366.625 435.25,374.25 451.875,393.75"/>
    <polyline points="456.375,399.25 467.75,412.75 477.125,423.0 485.375,430.75 490.375,434.875 499.625,441.125 506.25,444.375 514.75,447.375 521.0,448.5"/>
    <polyline points="523.0,448.75 529.125,449.0 537.375,448.25 545.625,446.375 549.75,445.0 554.0,443.375 562.625,439.125 569.375,435.25 576.125,430.625"/>
    <polyline points="578.5,428.875 587.75,421.0 592.25,416.5 596.75,411.375 602.875,402.75 604.75,399.5 607.875,392.375 609.875,384.25 610.375,379.75 610.375,374.875 609.75,369.75 608.25,364.125 605.875,358.125 602.25,351.5 597.125,344.5 590.125,337.0 581.0,329.0"/>
    <polyline points="569.125,320.625 554.0,312.125 535.375,303.875 512.75,296.375 486.125,290.375 456.25,287.0 424.25,287.25 392.125,291.625 362.25,300.75 337.125,313.75 318.125,329.5 305.75,346.375 299.375,362.75 297.75,377.5 299.25,389.75 302.625,399.5 306.875,406.75 311.25,411.75 315.5,414.875 319.375,416.375 322.75,416.75 325.875,416.125 328.75,414.75 331.375,412.875 336.625,408.375"/>
    <polyline points="339.25,406.0 345.25,401.875 348.625,400.25 352.25,399.125 356.125,398.375 360.125,398.0 368.625,398.875 373.125,400.0 382.125,403.375 386.625,405.625 395.375,410.875 403.75,416.875 407.75,420.125 415.25,426.625 422.125,433.125 433.875,445.75"/>
    <polyline points="436.5,448.75 443.375,457.125 449.125,464.75 453.875,471.625 457.75,477.875 460.875,483.375 463.25,488.375 465.375,494.25 466.25,498.125"/>
    <polyline points="466.5,499.375 466.625,504.0 466.375,506.125 465.625,509.125 464.375,511.875 463.25,513.75 459.625,517.875 453.5,522.25"/>
    <polyline points="452.25,523.0 446.75,525.625 440.125,527.875 432.375,529.5 425.5,530.375 417.875,530.5 409.0,529.75 402.5,528.625 395.375,526.625"/>
    <polyline points="391.5,525.375 383.375,521.875 374.375,517.125 364.625,510.5 359.5,506.5 354.25,501.875 343.125,490.5 337.5,483.75 331.875,476.125 326.25,467.75 320.75,458.5 315.75,448.5 311.125,437.625 307.125,426.25 304.0,414.5 302.0,402.625 301.25,390.875 302.0,379.75 304.375,369.5 308.25,360.625 313.625,353.5 320.5,348.125"/>
    <polyline points="328.5,344.75 337.5,343.5 347.0,344.0 356.75,346.125 366.625,349.625 376.375,354.25 385.625,359.75 394.5,365.625 402.875,371.875 410.625,378.25 424.625,390.875 436.5,402.625 473.125,441.125 481.75,449.375"/>
    <polyline points="484.375,451.75 498.25,462.625 502.375,465.25 508.25,468.375 512.0,470.125 520.75,473.0 527.5,474.125 532.5,474.375"/>
    <polyline points="534.125,474.375 540.875,474.0 546.125,473.25 553.375,471.625 565.0,468.25 583.125,462.125"/>
    <polyline points="585.625,461.375 599.5,457.0 605.75,455.375 619.75,452.625 631.75,451.375 640.75,451.25 645.5,451.5 655.75,452.75 666.875,455.375 679.0,460.0 685.375,463.25 691.875,467.25"/>
    <polyline points="698.5,472.125 705.0,477.875 711.375,484.625 717.125,492.5 722.375,501.5 726.5,511.625 729.375,522.625 730.375,534.625 729.375,547.125 726.0,559.75 720.25,572.125 712.125,583.875 702.0,594.625 690.25,603.875 677.25,611.625 663.75,617.75 650.375,622.375 637.25,625.5 624.875,627.5 613.375,628.5 603.0,628.5 593.5,628.0 585.125,627.0 571.125,623.875 565.25,621.875"/>
    <polyline points="560.0,619.875 551.375,615.5 547.625,613.25 541.25,608.75 533.375,602.25 515.875,586.0 509.125,580.75 502.75,576.75"/>
    <polyline points="501.125,575.875 496.375,573.75 491.5,572.25 485.0,571.0 480.0,570.625 472.875,570.875 465.5,571.875 457.5,573.625"/>
    <polyline points="455.375,574.125 425.0,582.375 418.625,583.875 408.125,585.75 400.25,586.75 391.5,587.125 381.75,586.75 370.625,585.125"/>
    <polyline points="364.5,583.625 357.875,581.625 350.625,578.875 342.875,575.25 334.5,570.625 325.25,564.625 315.125,557.125 304.125,547.625 292.25,535.75 279.25,520.875 265.375,502.625 250.875,480.25 236.25,453.5 222.25,422.125 210.25,386.5 202.0,347.625 199.375,308.125 204.25,271.25 217.625,240.75 239.0,219.75 266.25,210.0 296.5,210.75 326.875,219.75 355.0,234.0 379.625,250.875 400.125,268.25"/>
    <polyline points="416.625,284.75 429.5,299.75 439.25,312.875 446.375,324.25 451.375,333.875 454.75,342.125 456.625,349.125 457.625,355.25 457.875,360.5 457.5,365.25 456.75,369.5 453.0,384.125 451.625,390.75 451.25,397.25 451.875,403.5 453.5,409.5 455.875,415.25 457.375,418.0"/>
    <polyline points="459.125,420.75 464.625,428.25 468.875,432.875 475.375,439.125 482.0,444.5 488.625,449.25 495.125,453.25 503.625,457.5 511.625,460.625"/>
    <polyline points="513.625,461.25 523.375,463.375 527.25,463.75 533.0,463.875 538.875,463.5 550.875,461.375 563.75,457.5"/>
    <polyline points="566.0,456.625 578.125,452.0 600.875,442.625 618.375,436.25 630.625,432.625 639.875,430.625 650.125,429.125"/>
    <polyline points="655.75,428.75 661.625,428.5 668.0,428.75 674.75,429.25 681.875,430.375 689.625,432.0 697.875,434.5 706.75,437.875 716.125,442.375 726.0,448.375 736.25,456.0 746.5,465.5 756.625,477.25 765.875,491.375 773.5,508.0 778.375,527.0 779.625,547.875 776.0,569.875 767.125,591.75 753.0,612.375 734.25,630.5 712.5,645.5 689.25,657.0 666.25,665.25 644.75,670.75 625.375,674.0"/>
    <polyline points="608.625,675.625 594.625,676.0 583.0,675.75 573.75,674.875 566.375,673.75 560.625,672.25 556.25,670.5 552.875,668.625 550.375,666.625 548.625,664.375 547.375,662.0 545.75,656.75 543.75,638.125 542.75,631.375 541.5,624.625 538.75,614.875"/>
    <polyline points="537.75,611.75 534.25,602.875 530.25,594.875 527.375,590.125 521.5,581.875 518.5,578.375 512.375,572.5 507.75,569.0 501.75,565.375"/>
    <polyline points="500.125,564.75 497.125,563.375 491.0,561.625 486.25,560.75 481.5,560.375 471.25,560.75 462.0,562.125 458.0,563.0"/>
    <polyline points="455.875,563.375 442.25,566.375 425.625,569.375 419.25,570.25 408.5,570.875 396.125,570.5 386.625,569.25 381.5,568.125 370.125,564.75"/>
    <polyline points="363.875,562.375 357.125,559.25 350.0,555.375 342.25,550.5 333.875,544.625 325.0,537.375 315.375,528.5 305.25,517.75 294.5,504.75 283.25,489.375 271.75,471.125 260.5,450.0 249.875,425.875 240.875,399.125 234.375,370.5 231.5,341.375 233.375,313.375 240.625,288.875 253.25,269.75 270.625,257.25 291.5,252.0 314.0,253.375 336.75,259.875 358.25,270.25 377.75,282.625 395.0,295.875"/>
    <polyline points="409.625,309.0 422.0,321.5 432.375,333.0 440.75,343.25 453.5,360.5 465.125,379.25 481.125,410.0 485.875,416.5 489.75,420.5"/>
    <polyline points="491.125,421.625 495.25,424.75 499.75,427.25 502.75,428.625 509.0,430.5 513.75,431.25 518.625,431.375 524.875,430.625 529.625,429.375"/>
    <polyline points="531.125,428.75 535.625,426.625 538.375,424.875 542.375,421.5 545.875,417.375 548.625,412.5 550.25,406.625 550.625,402.25 550.375,399.875 549.375,394.875 548.375,392.125 547.125,389.375 545.375,386.5"/>
    <polyline points="543.25,383.625 537.5,377.5 533.875,374.5 529.5,371.5 524.625,368.5 519.125,365.625 512.875,363.0 505.875,360.625 498.375,358.625 490.375,357.125 481.875,356.125 473.125,355.75 464.375,356.0 455.625,357.125 447.125,359.0 439.25,361.625 432.125,365.0 426.0,368.875 420.75,373.375 416.75,378.25 413.75,383.375 411.875,388.625 410.875,394.0 410.75,399.25 411.375,404.25"/>
    <polyline points="412.75,409.25 414.5,413.875 419.0,422.75 427.125,434.25 435.625,444.25 458.75,469.625 468.0,480.875"/>
    <polyline points="469.125,482.5 473.375,488.625 475.75,492.625 478.5,498.5 479.25,500.625 480.25,505.375 480.375,507.125 480.0,510.375"/>
    <polyline points="479.875,511.125 478.5,514.625 477.125,516.75 474.375,519.875 467.875,524.875 463.625,527.25"/>
    <polyline points="462.375,527.875 457.25,530.25 451.25,532.5 440.375,535.5 431.625,537.0 426.625,537.5 418.375,537.625 412.375,537.375"/>
    <polyline points="409.0,537.0 402.0,535.75 394.375,533.875 385.875,530.875 376.625,526.625 366.375,520.5 361.0,516.75 355.25,512.25 349.25,507.125 343.125,501.125 336.875,494.375 330.375,486.625 323.875,477.875 317.5,468.0 311.25,457.125 305.375,445.25 300.125,432.375 295.625,418.875 292.375,404.75 290.5,390.625 290.375,376.875"/>
    <polyline points="292.125,364.0 295.875,352.5 301.625,343.0 309.125,335.875 318.375,331.25 328.625,329.125 339.875,329.375 351.375,331.75 362.875,335.875 374.125,341.375 384.875,347.75 394.875,354.75 404.25,362.0 412.875,369.25 428.0,383.375 434.625,390.0 460.125,417.375 474.875,432.75"/>
    <polyline points="478.0,435.875 486.75,443.75 496.875,451.5 501.625,454.5 508.25,458.0 514.5,460.5 520.5,462.25 526.5,463.25 534.25,463.625"/>
    <polyline points="536.25,463.5 540.125,463.25 546.125,462.375 552.25,461.0 558.625,459.125 572.375,454.25 593.75,445.5"/>
    <polyline points="596.75,444.25 609.875,439.125 625.125,434.125 633.75,431.875 643.375,430.0 659.875,428.5 672.625,429.0 679.75,429.875 687.25,431.375 695.375,433.625 704.125,436.75 713.25,440.875 723.0,446.375 733.125,453.5 743.5,462.375"/>
    <polyline points="753.75,473.375 763.25,486.75 771.5,502.75 777.25,521.0 779.75,541.5 777.75,563.25 770.5,585.25 757.875,606.375 740.375,625.5 719.25,641.5 696.375,654.0 673.125,663.125 651.0,669.375 630.875,673.25 613.375,675.25 598.5,676.0 586.25,676.0 576.25,675.25 568.375,674.125 562.25,672.75 557.375,671.125 553.75,669.375 551.125,667.375 549.125,665.125 547.75,662.875 546.75,660.375"/>
    <polyline points="546.0,657.75 545.125,652.0 543.0,632.5 541.75,625.625 540.125,619.0 538.125,612.625 533.375,600.875 530.75,595.625 523.5,584.375"/>
    <polyline points="522.0,582.5 519.0,578.875 512.875,572.875 506.75,568.25 503.75,566.375 497.625,563.5 493.0,562.0 490.0,561.25 483.625,560.375"/>
    <polyline points="482.0,560.375 478.75,560.25 471.875,560.625 464.625,561.625 429.625,568.625"/>
    <polyline points="426.625,569.125 413.5,570.625 401.875,570.75 393.125,570.125 383.25,568.375 377.875,567.125 366.0,563.125 359.5,560.25 352.5,556.625 345.0,552.125 336.875,546.625 328.125,539.875 318.75,531.5 308.875,521.5 298.25,509.375 287.125,494.875 275.75,477.625 264.375,457.5"/>
    <polyline points="253.5,434.375 243.875,408.5 236.375,380.5 232.125,351.375 232.375,322.875 237.625,297.0 248.5,275.75 264.375,261.0 284.125,253.25 306.25,252.375 329.0,257.375 351.0,266.5 371.25,278.375 389.25,291.375 404.875,304.625 418.0,317.375 429.0,329.25 438.0,340.0 445.5,349.5 456.625,365.375 464.125,377.625 471.25,390.875"/>
    <polyline points="473.0,394.375 478.5,405.25 482.0,411.25 484.375,414.625 488.125,418.875 492.125,422.5 497.875,426.25 502.375,428.375 507.125,429.875"/>
    <polyline points="508.625,430.375 513.375,431.125 518.25,431.375 526.125,430.375 530.75,428.875 535.125,426.75 539.375,424.0 543.25,420.5 545.5,417.625"/>
    <polyline points="546.5,416.125 548.25,412.75 549.625,409.125 550.375,405.0 550.375,400.375 550.0,398.0 548.5,392.75 545.625,387.25 541.0,381.25 538.0,378.25 534.5,375.25 525.625,369.25 520.25,366.375 514.125,363.75 507.375,361.25 500.0,359.25 492.125,357.625 483.75,356.5"/>
    <polyline points="475.125,355.875 466.375,356.125 457.625,357.0 449.125,358.75 441.125,361.125 433.875,364.375 427.5,368.125 422.125,372.5 417.875,377.25 414.625,382.375 412.5,387.5 411.25,392.875 411.0,398.0 411.5,403.125 412.625,408.125 414.25,412.875 418.625,421.75 424.0,429.75 432.375,440.25 440.625,449.375"/>
    <polyline points="443.25,452.25 458.625,469.0 468.0,480.375 474.375,489.625 478.375,497.125"/>
    <polyline points="478.75,498.125 479.625,500.25 480.625,504.125 480.875,508.375 480.375,511.5 479.875,512.875 478.5,515.625 476.5,518.25"/>
    <polyline points="476.0,518.875 471.75,522.625 466.125,526.25 457.625,530.375 448.375,533.625"/>
    <polyline points="446.625,534.125 436.625,536.5 427.25,537.625 421.875,537.875 413.0,537.625 406.375,536.75 399.0,535.375 386.75,531.5 377.5,527.25 367.375,521.375"/>
    <polyline points="362.0,517.75 356.25,513.375 350.375,508.375 344.25,502.625 337.875,495.875 331.5,488.375 325.0,479.75 318.5,470.125 312.125,459.375 306.125,447.625 300.75,434.875 296.125,421.375 292.625,407.25 290.375,393.125 289.875,379.125 291.25,366.0 294.625,354.125 300.0,344.25 307.375,336.625 316.25,331.5 326.5,328.875 337.625,328.75 349.125,330.75 360.75,334.625 372.125,340.0 383.0,346.25"/>
    <polyline points="393.25,353.125 402.75,360.375 411.5,367.75 426.875,382.0 439.75,395.0 471.0,428.625 477.625,435.125 489.125,445.375 499.0,452.625 503.625,455.25"/>
    <polyline points="505.75,456.5 512.25,459.375 518.375,461.375 524.375,462.625 530.25,463.25 536.125,463.25 544.0,462.375 556.375,459.5"/>
    <polyline points="558.5,458.875 569.875,454.875 609.875,438.625 625.0,433.5 633.625,431.25"/>
    <polyline points="638.25,430.125 648.375,428.5 653.875,427.875 659.625,427.625 665.875,427.5 672.375,427.875 679.5,428.75 687.125,430.125 695.125,432.25 703.875,435.125 713.125,439.25 722.875,444.625 733.125,451.5 743.625,460.25 754.125,471.125 764.0,484.5 772.625,500.375 778.875,518.875 781.875,539.5 780.25,561.625 773.375,584.125 761.0,605.875 743.5,625.5 722.125,642.125 698.75,655.125"/>
    <polyline points="675.0,664.625 652.25,671.125 631.75,675.125 613.875,677.25 598.75,678.125 586.25,678.125 576.25,677.5 568.25,676.375 562.125,675.125 557.375,673.5 553.875,671.75 551.375,669.75 549.5,667.625 548.25,665.25 547.375,662.75 546.5,657.25 545.5,641.0 543.625,626.875"/>
    <polyline points="542.875,623.375 541.125,616.5 537.875,606.875 534.0,598.125 529.75,590.375 525.25,583.625 520.75,577.875 513.125,570.25 508.5,566.75"/>
    <polyline points="507.0,565.75 502.5,563.125 498.0,561.125 490.375,558.875 481.0,557.875 474.375,558.125 467.375,558.875"/>
    <polyline points="465.5,559.25 434.25,565.375 422.375,567.125 412.125,567.875 404.5,567.875 396.0,567.25"/>
    <polyline points="391.375,566.625 381.375,564.5 370.0,560.875 363.75,558.25 357.125,555.0 350.0,551.0 342.375,546.0 334.125,539.875 325.375,532.5 316.0,523.5 306.0,512.75 295.625,499.75 284.75,484.5 273.875,466.625 263.25,446.0 253.375,422.75 245.25,397.125 239.5,370.0 237.25,342.625 239.5,316.625 246.625,293.875 258.875,276.125 275.25,264.625 294.875,259.75"/>
    <polyline points="316.125,260.875 337.625,266.875 358.0,276.375 376.75,287.875 393.375,300.375 407.875,313.0 420.125,325.0 430.5,336.125 439.125,346.25 446.25,355.375 457.25,370.5 465.125,382.375 481.75,409.25 487.5,416.5"/>
    <polyline points="488.875,417.875 491.75,420.5 496.0,423.75 502.0,427.0 506.5,428.625 511.125,429.625 515.875,430.125 522.0,429.75 526.5,428.75"/>
  </g>
</svg>
