<?xml version="1.0" encoding="utf-8" ?>
<svg xmlns="http://www.w3.org/2000/svg" xmlns:cc="http://creativecommons.org/ns" xmlns:dc="http://purl.org/dc/elements/1.1/" xmlns:ev="http://www.w3.org/2001/xml-events" xmlns:inkscape="http://www.inkscape.org/namespaces/inkscape" xmlns:rdf="http://www.w3.org/1999/02/22-rdf-syntax-ns" xmlns:sodipodi="http://sodipodi.sourceforge.net/DTD/sodipodi-0.dtd" xmlns:xlink="http://www.w3.org/1999/xlink" baseProfile="tiny" height="27.09333333cm" version="1.2" viewBox="0 0 1024.0 1024.0" width="27.09333333cm">
  <metadata>
    <rdf:RDF>
      <cc:Work>
        <dc:format>image/svg+xml</dc:format>
        <dc:source>vpype read './original_svgs/Strange Attractors #78.svg' linemerge linesimplify write './Strange Attractors #78.svg'
</dc:source>
        <dc:date>2024-08-05T01:35:24.662538</dc:date>
      </cc:Work>
    </rdf:RDF>
  </metadata>
  <defs/>
  <g fill="none" id="layer1" inkscape:groupmode="layer" inkscape:label="1" stroke="black" style="display:inline">
    <polyline points="665.5,594.0 661.3308,614.1107 658.7319,633.7312 657.6307,653.3268 657.6472,663.4088 658.043,673.3364 658.8112,683.3018 659.965,693.3027 663.4009,713.2709 668.3452,733.4116 674.9,754.1309 679.0559,765.2809 683.5645,776.136 688.5446,786.9841 693.8005,797.3964 699.4608,807.6222 705.4912,817.5425 711.028,825.7337 716.7025,833.2046 722.4563,839.8591 727.9691,845.3614 733.4506,849.9488 738.8502,853.5378 743.7953,855.9076 748.8019,857.2402 753.2942,857.4088 757.5938,856.5156 761.6595,854.5291 765.1695,851.6975 768.6704,847.5193 771.5821,842.6237 774.1345,836.7565 776.4321,829.576 778.341,821.364 779.7888,812.5658 780.8412,802.9256 781.48,792.4964 781.6872,781.3313 781.4518,769.6729 780.7681,757.4019 779.6773,744.9713 776.1997,718.6058 771.4022,692.8638 765.2798,667.3027 757.9413,642.428 749.3234,617.9259 739.6798,594.572 729.3171,573.0502 718.474,553.7359 712.3187,543.9305 706.0595,534.669 696.1544,521.3458 685.856,509.0766 675.2202,497.9632 664.5497,488.3056 652.4422,478.852 640.2754,470.7632 627.803,463.8601 614.833,458.0919 604.274,454.3554 593.8486,451.4227 583.2755,449.2157 572.3073,447.7178 558.1738,446.7772 543.933,446.7704 529.6508,447.6782 506.0165,450.0244 493.5707,450.3254 487.5417,449.7083 482.2323,448.4194 478.0089,446.5979 473.1845,443.6041 469.0511,440.0876 463.7135,434.4909 459.8544,429.7405 454.5395,422.4192 442.3927,403.8534 418.1193,364.2551 398.1815,333.1836 380.5411,308.032 363.8843,286.9952 356.623,278.7852 350.1788,272.3238 342.2711,265.3644 335.2056,260.1673 329.2248,256.8432 323.6083,254.8704 318.5934,254.2074 313.96,254.8266 310.6687,256.2346 307.4214,258.692 304.7712,261.8168 302.4977,265.7501 300.6055,270.4829 299.099,276.0062 297.9828,282.311 297.2745,289.4085 297.0498,296.9167 297.2772,304.9624 297.9442,313.4827 299.0383,322.4148 302.3767,340.763 307.3357,359.7368 313.4359,377.9741 320.3644,395.0556 328.2749,411.1208 337.126,426.2581 346.6537,440.1096 356.7294,452.3877 367.9589,463.8533 373.6445,468.9133 379.5338,473.6128 386.625,478.5781 393.8458,482.9318 401.6891,486.934 408.6747,489.8126 416.4161,492.2561 424.5551,494.0684 431.6016,494.9758 438.8582,495.1636 446.1863,494.5648 452.7039,493.1287 458.3964,490.9196 463.0972,488.0139 466.5971,484.8625 469.1446,481.0353 470.7938,476.1736 471.2632,471.1575 470.9322,467.1292 470.1473,462.8127 466.4055,450.4606 460.869,437.6228 450.0953,415.6206 437.7023,392.4712 424.4082,368.8431 413.5296,350.3384 395.2024,320.6052 379.8197,297.4258 366.6761,279.6012 355.6854,265.932 345.4286,254.707 335.325,245.2169 330.6295,241.4623 326.2707,238.4396 322.2455,236.1031 318.1911,234.2449 314.1867,232.9298 310.3447,232.2401 306.6789,232.214 303.5416,232.7896 299.6149,234.4895 296.0721,237.2473 292.9102,241.0706 290.3224,245.6177 288.1336,251.0736 286.366,257.4271 285.0417,264.6671 284.1781,272.8959 283.8411,281.5786 284.0041,291.2698 284.6783,301.5639 285.8519,312.3753 287.5132,323.6185 289.58,334.7628 292.0628,345.7358 294.9865,356.7609 301.6415,377.5773 309.6519,398.0019 318.3778,416.3702 328.3023,433.9432 333.793,442.551 339.5966,450.9417 344.8312,457.8974 350.5197,464.7955 356.5367,471.4386 362.8461,477.7699 369.4003,483.7341 376.3157,489.4152 384.1861,495.0922 392.5457,500.2364 401.2715,504.7526 410.2258,508.6093 418.1723,511.3249 426.424,513.417 435.769,515.0007 443.8661,515.687 452.539,515.5733 461.7063,514.5992 470.5588,512.538 477.8922,509.8856 484.064,506.461 488.2891,502.8687 490.2798,500.2937 491.3865,498.2811 492.3902,493.4033 491.8828,487.8379 489.8828,480.8359 486.3608,472.4167 481.7984,462.7558 463.6464,427.3196 432.5437,369.2905 409.9397,328.9591 390.1147,295.7534 371.8047,267.2586 362.6821,253.9253 354.6207,242.7649 341.8501,226.6801 334.8205,218.7391 328.2523,211.8997 322.2729,206.2467 316.6189,201.4851 311.3055,197.6058 306.0686,194.4317 300.8913,192.006 296.2652,190.5024 291.4301,189.7179 287.1527,189.8237 283.0762,190.7748 279.222,192.6184 275.9029,195.1328 272.6926,198.625 269.8523,202.8889 267.451,207.6749 265.3337,213.1831 263.5112,219.3988 261.9942,226.3071 260.7936,233.8934 259.4151,250.4078 259.4201,268.5101 260.7674,288.18 263.4651,309.4447 267.3588,331.1351 272.0595,351.5522 277.934,372.301 284.7751,392.6076 292.6201,412.5376 300.9502,430.8293 309.757,447.5631 319.4633,463.6203 329.967,478.7963 339.1868,490.5624 348.469,501.108 358.1464,510.7393 368.0934,519.3494 378.7942,527.3254 389.8189,534.3038 400.9638,540.1609 412.2243,544.9101 421.9208,548.1554 432.1762,550.8482 441.2694,552.5907 450.9141,553.7478 464.375,554.375 475.5692,554.0733 489.9958,552.6695 511.1222,549.7642 518.7967,549.389 523.8208,549.7818 528.0609,550.9756 531.459,552.61 535.2795,555.5025 538.3305,558.4336 542.6217,563.8974 552.2906,578.6634 561.8328,595.026 595.8816,655.5205 612.218,683.5037 622.1014,699.7473 641.5343,729.9623 650.6163,743.1037 660.0472,756.0657 669.3524,768.0237 678.5147,778.6493 687.4997,787.9156 696.0208,795.5337 703.6476,801.0464 710.7363,804.8611 717.5078,807.092 720.5837,807.549 723.6961,807.5788 727.5507,806.8825 730.9113,805.5025 734.3471,803.178 737.2484,800.2879 739.877,796.6629 742.1984,792.295 744.1479,787.2808 745.8015,781.5165 747.2066,774.7141 748.2091,767.5696 748.8646,759.8225 749.1538,751.5189 748.625,734.375 746.5383,714.2188 743.2811,694.4383 738.8124,674.5605 733.4317,655.878 726.3552,635.5291 718.6162,616.6168 710.2208,599.0883 701.2332,583.12 691.1886,567.7298 681.7428,555.1242 672.1036,543.9022 661.9548,533.7142 651.2749,524.4671 640.8277,516.762 630.0358,510.1723 618.6406,504.6261 606.8514,500.1102 595.2338,496.9087 583.2446,494.9025 571.277,494.0799 559.4794,494.4816 549.5152,495.7393 539.1065,498.1021 525.9092,502.5049 512.6898,508.4954 511.25,508.625 510.125,507.9219 508.6328,505.9258 498.8066,486.8242 460.0887,408.1758 441.3179,370.7638 409.7265,309.8425 390.461,274.6233 375.0224,247.7358 357.6349,219.2991 342.4669,196.3147 328.1006,176.6649 320.5302,167.2178 313.4043,158.9107 306.8058,151.8086 300.4852,145.6152 294.4609,140.3416 288.4755,135.7888 282.8146,132.1921 277.2424,129.409 272.0676,127.571 267.0318,126.5594 262.1579,126.4152 257.7969,127.0938 253.2991,128.7381 249.3264,131.1484 245.0108,135.0304 241.2657,139.7603 237.6837,145.8752 234.581,152.9557 231.8659,161.1238 229.5541,170.3368 227.6613,180.5523 226.2031,191.7277 225.1953,203.8205 224.6646,216.3105 224.5813,229.5757 224.9523,243.1778 225.7852,257.2554 227.1082,272.1413 228.8945,287.3981 231.0724,302.5523 236.5137,332.5438 243.3672,362.2051 251.2723,390.133 255.7619,403.9131 260.545,417.3801 265.7422,430.8583 271.1992,443.9314 277.0474,456.8964 283.1153,469.3532 289.3753,481.261 295.7998,492.5788 302.3849,503.3014 309.091,513.3787 320.3275,528.5954 332.246,542.7551 344.4967,555.4686 357.4518,567.1164 370.1251,576.8723 383.4515,585.4627 397.4713,592.8551 411.9598,598.9463 424.5,603.125 436.8158,606.3054 449.2625,608.5824 462.3483,610.0416 476.808,610.6838 491.5379,610.3833 512.4528,608.8043 537.694,606.1395 549.9254,605.6159 556.6373,606.0498 563.1524,607.2042 568.3445,608.8549 573.6991,611.4082 578.1713,614.2334 582.813,618.0 587.7835,622.7672 592.5363,628.073 600.822,638.4167 621.0461,666.2573 635.6576,685.508 646.5448,698.7033 655.9016,708.6075 666.1837,717.9174 670.6288,721.12 674.9468,723.6392 678.8725,725.3479 682.5159,726.2659 686.3042,726.3929 689.3822,725.6897 691.6777,724.4773 693.8565,722.5093 695.7423,719.8489 697.143,716.9178 698.2572,713.4672 699.1168,709.2129 699.7789,699.6021 699.0833,689.036 696.8237,675.7787 693.5914,663.2287 689.303,650.7615 684.3855,639.0926 679.0579,628.5785 671.9867,616.7644 664.6581,606.3952 656.8145,597.207 648.8549,589.3265 641.1514,583.0962 632.4872,577.4391 627.0634,574.6701 621.4313,572.4665 616.1946,570.9822 611.337,570.2712 605.6517,570.249 601.4343,570.9584 597.5285,572.5411 594.266,574.935 591.8513,577.7435 590.3546,580.7394 589.3733,584.5737 589.063,588.9726 589.41,594.5926 590.1935,599.1901 592.2436,606.5825 594.5598,613.124 599.5,624.9482 604.819,635.8054 610.5461,646.5534 620.316,663.2104 626.5998,673.092 635.7912,686.5924 642.4237,695.5407 650.006,705.0622 656.3097,712.2997 662.7471,718.8776 668.9372,724.427 674.5913,728.6031 680.0542,731.6714 684.9864,733.4758 689.319,733.9964 693.2609,733.2987 695.8262,732.0149 698.0644,730.0988 700.002,727.5297 701.6507,724.3055 702.9698,720.4669 703.8416,716.5204 704.4599,711.4518 704.7313,705.9311 704.2129,693.918 702.3489,681.656 698.9358,667.438 694.4743,653.7022 688.6564,639.4387 682.5179,626.7609 676.2925,616.0168 668.6909,604.921 660.4954,594.8576 651.5162,585.7061 642.3479,577.8813 633.7292,572.1134 627.4375,568.75 621.1579,566.1027 614.4622,564.0785 608.3935,562.9537 602.9822,562.7848 597.7366,563.4629 593.6279,564.8253 589.5524,567.2541 586.9122,569.8517 584.7759,573.3696 583.4319,577.4741 582.8714,581.9559 583.1074,586.9121 584.082,593.002 585.8555,599.6309 588.3949,607.2207 593.6412,619.6901 598.7406,630.203 606.2801,644.4087 615.6853,660.5601 623.3764,672.8633 633.6382,688.3206 641.2235,698.8694 649.8732,710.0622 657.051,718.4399 664.3711,726.0414 670.9885,732.105 677.3924,736.9662 683.2755,740.4258 688.7399,742.5688 693.4706,743.185 697.775,742.4238 700.6558,740.9377 702.9981,738.8816 705.1685,736.0055 707.02,732.4005 708.3815,728.5131 709.3949,724.0655 710.1003,718.4888 710.4127,712.5776 709.9348,699.7317 707.9626,685.8448 704.3299,669.8402 699.6003,654.5699 693.7603,639.7901 687.056,625.6893 680.3157,613.8072 671.683,600.9065 663.3424,590.3236 654.5685,581.0999 644.8109,572.4902 635.25,565.75 627.6125,561.4675 620.7805,558.3606 614.5741,556.2545 607.361,554.6302 600.8936,553.9991 594.6706,554.3331 589.5586,555.4941 584.806,557.6284 581.2008,560.2688 578.5985,563.3982 576.8093,567.2502 575.7268,572.1384 575.6205,577.4307 576.3067,583.8158 577.7986,590.0578 580.3355,597.9399 585.012,609.5641 590.6929,621.5714 598.166,636.0362 608.6184,654.7204 618.089,670.2883 627.5989,685.1739 640.0994,703.1895 647.9745,713.6814 657.1141,724.8312 665.2439,733.9224 672.5832,740.9927 679.8383,746.8872 686.2867,751.0408 692.4746,753.6623 695.5876,754.3895 698.2343,754.6374 700.75,754.5 703.0128,753.9802 706.0557,752.5359 708.8268,750.2822 711.272,747.2372 713.3375,743.4187 714.9259,739.039 716.2269,733.5694 717.108,727.332 717.526,720.8434 717.5186,713.8349 717.0556,706.207 714.8773,689.8301 711.241,673.1766 706.0616,655.9815 700.1308,640.2179 693.5103,625.7658 684.7514,609.9142 675.8065,596.1178 667.2247,585.0525 656.2245,573.2276 646.3732,564.4739 636.1588,557.2407 628.3975,552.6803 620.9838,549.1149 613.4089,546.3371 605.8853,544.3857 598.7011,543.3973 591.3442,543.3121 585.2488,544.1043 579.2951,545.9489 574.7475,548.3256 571.2173,551.3132 568.5525,555.0739 566.7008,559.6077 566.0,565.0 566.2956,571.1649 567.5193,577.6807 569.7331,584.7255 573.6876,595.2648 581.5433,612.4553 590.8771,630.4419 602.0998,650.4865 613.8997,670.4483 624.7933,687.9785 639.1902,709.3858 648.267,721.8341 659.1259,735.477 667.7344,745.3848 676.0277,753.6234 684.528,760.7483 691.5327,765.4062 698.4402,768.4716 701.906,769.3353 704.8978,769.6467 707.75,769.5 710.3279,768.9028 713.942,767.1285 716.9432,764.5809 719.5988,761.1575 721.8628,756.8633 723.663,751.825 725.096,745.8378 726.104,739.0436 726.6353,731.9349 726.7241,724.2416 726.375,716.5 725.4941,707.1716 724.1404,697.3697 720.3672,678.4146 715.1349,659.747 708.5557,641.3043 701.1314,624.2081 692.8561,608.3999 683.213,592.806 673.3052,579.2491 668.3278,573.2972 662.7507,567.2366 656.9927,561.5002 650.9756,556.0538 645.2889,551.4216 639.382,547.1462 632.0736,542.5675 624.6153,538.5347 617.4982,535.3451 610.6919,532.9684 602.1863,530.7905 594.7039,529.537 587.5509,529.1078 580.2188,529.4219 574.1813,530.4132 568.019,532.378 562.8303,535.005 558.8122,538.1107 555.875,541.75 554.0633,545.621 552.9717,550.5791 553.0137,555.7871 553.8793,561.3611 555.5943,567.6123 557.9125,574.2238 562.0236,584.3207 570.9757,602.829 582.8136,625.3078 600.1095,656.2823 616.3505,683.8279 632.0233,708.4845 645.7901,728.8837 657.9996,745.3409 669.109,759.0869 679.4289,770.2229 689.4501,779.4307 694.0288,783.025 698.3628,785.9384 702.6263,788.2985 706.4475,789.943 710.1621,791.0607 713.7472,791.6222 717.2017,791.5955 720.3825,790.956 724.2574,789.1867 727.7959,786.3529 730.9519,782.45 733.6795,777.4733 735.847,771.7003 737.6027,764.7469 738.8631,756.821 739.5812,748.4101 739.7994,739.2653 739.4948,729.4628 738.6362,718.8561 737.2685,707.7732 735.3946,696.3141 733.0993,684.9803 730.4299,673.8998 727.3176,662.7972 719.9665,641.0288 711.5075,620.511 707.0231,611.0594 702.2999,601.9884 691.9745,584.6785 686.4368,576.4599 680.5579,568.4514 674.5788,561.0141 668.5215,554.17 662.2333,547.7594 655.4995,541.5374 648.8274,535.9767 641.9449,530.8487 634.0247,525.6927 626.1987,521.3605 618.0855,517.5813 609.6382,514.3881 601.303,511.9614 592.2856,510.0883 583.8835,509.0339 575.9088,508.7409 567.3852,509.1998 559.572,510.421 550.4372,512.9103 544.3968,515.505 538.8029,518.995 535.1474,522.5181 533.5433,524.9964 532.5938,527.1406 532.0575,529.3537 531.864,532.016 532.376,537.0458 534.5562,544.0283 538.0685,552.335 543.3875,563.6481 551.8664,580.4257 573.4335,621.5542 592.2255,656.2976 615.9956,698.2617 637.5425,734.0101 654.0564,759.387 670.8418,782.8757 683.9739,799.127 690.4071,806.2619 696.8442,812.8198 702.977,818.4796 708.3829,822.9136 713.8027,826.7003 719.1463,829.7294 724.368,831.9362 729.0912,833.1971 733.6312,833.633 737.6504,833.2533 741.4956,832.0485 745.347,829.8242 748.7041,826.8674 751.8001,823.0603 754.4139,818.7637 756.5814,814.1467 758.6406,808.44 760.2537,802.5214 761.6434,795.6269 762.731,788.0274 763.9274,771.3943 763.84,753.2021 762.4805,733.9483 759.8007,713.4902 755.869,692.1791 750.9606,671.3056 745.13,650.8974 738.5927,631.6035 730.9823,612.3765 722.4851,593.78 713.3614,576.3818 703.7299,560.3642 693.5719,545.6991 684.3477,533.9986 675.0156,523.5156 665.3791,513.9796 655.2477,505.2524 644.3343,497.1974 633.3394,490.2659 622.3789,484.5043 611.2125,479.8026 601.3447,476.5791 591.5642,474.0745 581.6727,472.245 572.1514,471.1732 559.4586,470.6269 548.1769,470.9473 534.1566,472.3677 514.4902,475.0664 505.389,475.672 501.0306,475.4068 497.5945,474.6035 493.5107,472.8765 490.4162,470.646 486.5101,467.0096 481.7958,461.1112 473.8995,449.0255 463.0112,430.5189 429.3353,370.4935 408.1323,334.3131 383.6476,295.3501 374.2203,281.592 363.3898,266.5647 354.303,254.852 345.7557,244.9176 335.9224,234.7263 327.3232,227.0302 319.6984,221.4582 312.8374,217.705 306.2143,215.4148 302.8552,214.8556 299.9673,214.763 295.8268,215.3748 292.254,216.7688 288.9161,219.0037 285.9209,222.0071 283.1229,225.9522 280.7977,230.4117 278.6513,235.971 276.967,241.9266 275.5362,249.0634 274.5529,256.4807 273.953,264.3283 273.7212,272.8429 274.3914,291.3481 276.5732,311.4133 280.0745,331.6058 284.8278,351.8375 290.8914,372.3758 298.0694,392.4783 305.9598,411.1435 314.6694,428.6947 324.3993,445.5447 334.8199,461.0948 343.6871,472.6098 353.2025,483.374 363.0516,493.0408 373.6342,501.9906 384.131,509.5497 394.6106,515.8046 405.6999,521.1515 417.3315,525.5239 428.1758,528.5122 439.2984,530.4969 450.6748,531.4684 461.8229,531.4002 473.1833,530.2202 486.665,527.4395 493.125,525.4722 511.0,519.0 512.784,518.828 513.9844,519.0938 515.8047,520.3438 519.375,525.625 527.1098,540.1773 584.5791,653.6982 605.3332,693.2461 619.2991,718.886 637.8289,751.7482 651.4772,774.5441 668.7432,801.4249 683.7374,823.0056 691.141,832.7646 698.4098,841.7225 705.4965,849.8284 712.3614,857.0494 718.8214,863.2302 724.8824,868.3558 730.8978,872.7006 736.4832,876.0123 741.9618,878.5087 747.3013,880.1301 752.4694,880.8166 757.1303,880.5577 761.5887,879.37 765.6039,877.3106 769.62,874.121 773.1637,870.1601 776.4392,865.2823 779.4208,859.4917 782.0828,852.7928 784.3994,845.1896 786.3451,836.6866 787.8367,827.7219 788.981,817.8007 789.7468,807.1186 790.1264,795.7471 790.1117,783.7575 789.6951,771.2211 788.8688,758.2092 786.0724,731.912 781.7852,705.185 776.2144,678.6294 769.3808,652.2061 761.4874,626.7337 752.7952,602.9603 742.827,579.6947 731.7956,557.3917 720.1478,536.9486 714.0316,527.3095 707.804,518.1959 697.3594,504.3866 686.3151,491.6086 674.6132,479.7596 662.6696,469.2759 650.5597,460.1613 638.0888,452.243 624.7101,445.2464 611.256,439.5647 600.1813,435.8547 588.9364,432.9333 577.2628,430.736 565.4048,429.2835 551.8792,428.5445 537.5758,428.7202 522.2369,429.6472 494.7219,432.1968 483.4563,432.5382 477.103,432.0133 471.3094,430.8664 466.0036,428.9272 460.7632,426.1349 456.0115,422.6089 450.3812,417.3872 446.4641,412.9988 440.2393,405.1851 427.8325,387.5934 404.5449,352.8352 391.7064,334.593 378.974,318.0142 366.3854,303.314 359.9169,296.6732 354.0509,291.2603 348.5401,286.86 343.375,283.5 338.2546,280.9722 333.4626,279.4895 329.317,279.1581 325.4127,279.9292 322.4354,281.4553 320.0588,283.5122 317.755,286.5712 315.9845,290.0326 314.5677,293.9863 313.4716,298.747 312.8152,303.7151 312.4831,309.5786 312.9265,323.3963 314.7671,337.055 318.2745,352.6934 323.2003,368.845 328.8634,383.462 335.5971,397.8755 342.3243,409.9791 350.1588,421.8288 359.3092,433.7343 367.2643,442.4282 377.4558,451.6009 383.133,456.0404 387.9387,459.3588 394.98,463.46 402.328,466.8785 408.9069,469.1858 415.6852,470.7593 422.8184,471.6303 429.1908,471.4931 435.0257,470.3858 439.8083,468.4092 443.625,465.75 446.4244,462.5063 448.5,458.375 449.5218,454.0383 449.75,448.75 449.0796,442.172 447.875,436.875 444.9833,427.6545 440.2303,416.0895 435.4408,405.746 425.8441,387.0922 415.4245,368.6159 404.1822,350.2636 395.007,335.9998 383.4549,319.3563 374.5905,307.4901 365.3517,296.3095 357.3619,287.5578 350.375,280.875 342.748,274.7487 336.2954,270.6991 330.4039,268.2456 324.7189,267.3098 322.1155,267.4436 319.652,267.9972 316.3801,269.5555 313.6896,271.773 311.3571,274.6844 309.2421,278.6425 307.6543,283.0514 306.3493,288.5613 305.4643,294.8319 305.0378,301.1418 305.0193,308.0224 305.4377,315.729 307.5564,332.3905 311.0307,349.0125 316.131,366.492 322.2504,383.1157 328.8348,397.8545 336.6535,412.3896 345.6741,426.5836 354.7084,438.563 364.5594,449.5044 375.0405,459.2925 385.6141,467.2723 393.3428,472.0271 400.9661,475.916 408.8185,479.032 416.4749,481.2466 423.5441,482.5314 430.9098,482.935 438.1208,482.4031 444.0166,481.0197 448.9902,478.8483 453.254,475.785 456.4087,472.2141 458.4666,468.0987 459.5501,463.0578 459.7088,457.3118 458.7192,450.7484 456.8909,443.9176 452.0037,430.7099 444.7682,414.9249 434.9213,395.8194 422.7765,373.9965 399.0632,334.7246 385.9704,315.1857 375.4436,300.542 365.0821,287.3318 356.1716,277.0727 347.2071,268.116 338.4909,260.678 330.9424,255.6262 324.2261,252.6501 321.0704,251.8283 318.0278,251.4436 315.1116,251.52 312.3347,252.0815 308.7682,253.6899 305.7631,256.0813 303.1291,259.2906 300.715,263.6287 298.7283,268.8871 297.2645,274.6159 296.1819,281.1283 295.5122,288.4113 295.3189,296.0096 295.5828,304.5124 296.3143,313.521 297.5044,322.9684 300.9399,341.3896 306.1163,360.6914 312.5909,379.5782 319.9744,397.3515 328.2999,413.991 337.5579,429.5918 347.3814,443.5695 357.9414,456.1287 363.7841,462.2011 369.8621,467.9584 375.5002,472.8073 381.389,477.2954 388.4703,481.9993 396.2887,486.4484 404.2727,490.3128 411.5124,493.1021 419.3958,495.3836 427.7254,497.0264 435.1025,497.7379 442.1153,497.717 449.3138,496.9401 455.9308,495.293 461.4391,492.9912 466.231,489.8579 469.704,486.3218 472.25,482.0 473.4745,477.6312 473.704,472.405 472.966,466.645 471.2847,460.2358 469.526,455.0475 465.8954,446.2467 457.4587,428.1412 445.2367,404.528 429.0417,375.2706 410.5637,343.4859 391.7322,313.2755 377.8738,292.833 365.5117,275.8477 354.9775,262.6784 344.0053,250.5064 333.8453,240.9158 329.219,237.228 324.693,234.109 320.4658,231.6581 316.3348,229.747 312.3203,228.4219 308.7894,227.7646 305.0546,227.6865 301.8119,228.2394 297.869,229.8755 294.1788,232.6043 290.8708,236.4148 288.1632,240.9627 285.8557,246.4827 283.9807,252.9891 282.5871,260.3677 281.6647,268.7259 281.2481,277.8594 281.3408,287.6944 281.9467,298.1571 283.0693,309.1739 284.5999,319.9086 286.6415,331.178 289.1445,342.6375 292.0891,354.1896 298.5911,375.3455 306.3234,395.6783 315.556,415.7485 320.613,425.3942 325.8584,434.5926 331.1915,443.2007 336.3461,450.8241 341.8667,458.2996 347.7305,465.567 353.9049,472.5649 360.3466,479.2305 367.0,485.5 373.4975,491.0077 381.556,497.0038 390.0926,502.4672 398.9548,507.2895 407.9993,511.3961 416.7084,514.5377 425.9786,517.0572 435.2145,518.7785 444.178,519.6561 453.9174,519.7203 462.6443,518.9169 473.0581,516.765 481.0725,514.092 487.9062,510.75 490.7575,508.8133 493.2486,506.6437 494.9418,504.6516 496.2969,502.25 496.9273,500.4712 497.3279,497.7837 496.7179,493.0788 494.5446,486.3476 486.8843,469.6528 459.1682,415.8888 441.596,382.6167 420.1462,343.37 398.9981,306.0118 381.9819,277.8947 366.4925,253.8972 353.6099,235.5688 340.5367,218.5553 329.1531,205.3595 318.6312,194.8995 313.3469,190.3753 308.0544,186.3663 303.1876,183.1989 298.4092,180.6383 293.7365,178.7353 289.5077,177.6014 285.3991,177.1191 281.7254,177.2874 277.1839,178.4248 273.1996,180.4456 269.2464,183.6402 265.8426,187.626 262.7547,192.5869 260.0055,198.5386 257.6178,205.4969 255.7209,212.9988 254.2074,221.4772 253.1213,230.754 252.4641,240.7676 252.2375,251.4559 252.4429,262.7572 253.0819,274.6096 254.1561,286.9513 255.6024,299.1876 259.6311,323.7452 265.2461,349.1063 272.2612,374.3576 280.3636,398.469 289.2908,420.6992 299.3147,441.9005 310.4526,462.0973 316.2472,471.4721 322.3458,480.6025 332.0073,493.6421 341.9639,505.4642 352.529,516.469 363.3333,526.2843 374.6087,535.1359 385.9701,542.6971 397.7288,549.1892 410.0457,554.6885 420.5088,558.4291 430.1487,561.1394 440.277,563.2063 451.1804,564.6358 464.8248,565.4788 478.0771,565.3457 491.5214,564.4097 514.6492,561.8143 522.375,561.5 528.4423,561.9046 532.6762,562.7707 537.9004,564.878 542.0625,567.5576 545.4219,570.3906 548.4423,573.5249 553.9334,580.3728 557.5,585.375 565.6863,598.1688 597.0154,651.4218 620.1944,689.38 641.1862,721.0011 650.9893,734.5875 660.3758,746.79 669.2819,757.3915 677.7904,766.4768 685.943,774.1025 693.1891,779.7736 700.2809,784.1003 706.7626,786.7777 709.865,787.5303 712.8395,787.8569 715.691,787.7264 718.0916,787.2338 721.9724,785.5618 725.2336,783.1035 728.1722,779.7522 730.8723,775.2565 733.1141,769.8556 734.9407,763.4908 736.3146,756.2287 737.1665,748.5591 737.5441,740.1968 737.4222,731.2989 736.7966,721.2813 735.7261,711.1095 734.1937,700.5543 732.2751,690.1124 729.9203,679.5081 727.1928,669.0669 720.7398,648.6245 713.0157,628.7217 704.5384,610.5435 694.7459,592.9125 684.3984,577.1611 679.1518,570.1306 673.594,563.3221 667.638,556.6935 661.2551,550.1969 654.9008,544.3163 648.5936,539.0423 640.6634,533.1928 632.6651,528.1429 624.3831,523.6622 616.1148,519.9518 607.908,517.0567 598.578,514.6312 589.8009,513.0551 582.1198,512.3998 572.6864,512.4973 564.7136,513.3628 556.0067,515.5064 549.3062,518.1401 543.7103,521.5099 541.448,523.3335 539.5,525.3906 536.771,529.8904 536.1651,532.0734 535.7873,535.1168 536.25,540.625 537.2491,544.7971 539.4844,551.3112 543.6533,560.9333 558.5079,590.8157 584.9468,640.4508 606.77,679.4389 630.153,718.8681 648.0203,746.6457 656.8077,759.4818 664.8389,770.5628 678.3627,787.6447 691.1712,801.8348 697.0205,807.4475 702.5598,812.176 708.0495,816.2556 713.1465,819.4453 718.1182,821.9266 722.7801,823.5933 727.2815,824.4603 731.6204,824.4932 735.7591,823.6569 739.3449,822.0965 742.9947,819.4955 746.0692,816.2581 748.5378,812.7096 750.8703,808.2868 752.9437,803.1492 754.7412,797.3293 756.246,790.8594 757.383,784.1812 758.7937,768.813 758.8707,751.6437 757.6656,732.8567 755.1864,712.8442 751.5887,692.856 747.0421,673.5003 741.1384,652.9754 734.541,633.5806 727.1191,614.8643 719.2606,597.7728 710.5776,581.4294 701.0059,565.5771 691.0855,551.1648 682.2406,539.8606 673.25,529.75 663.1753,519.8483 652.8887,511.068 642.7519,503.6478 632.5322,497.342 620.9751,491.4841 609.667,486.8314 600.6593,483.9141 591.7652,481.7522 581.0834,479.9722 570.4214,478.9534 558.4957,478.8046 545.2155,479.6401 534.3769,481.1014 516.8647,484.36 508.659,485.195 505.0581,485.0918 502.3196,484.4675 498.584,482.6504 495.4846,480.3005 493.1986,477.9667 489.3983,473.0716 483.0701,463.1584 468.7686,437.626 430.5395,367.3496 404.6473,322.3563 381.2733,284.6114 372.1566,270.9315 361.249,255.4308 350.4435,241.126 340.3063,228.9754 330.2754,218.3666 320.8014,209.8127 312.3383,203.6685 308.3253,201.349 304.375,199.5 300.4555,198.1335 297.0308,197.3617 293.3507,197.0361 290.1606,197.2416 286.1023,198.2827 282.2858,200.2402 278.7314,203.157 275.6293,206.8384 272.7382,211.6022 270.3296,216.9918 268.2633,223.1991 266.5521,230.2 265.1487,238.4007 264.2068,246.9562 263.6592,256.2326 263.5298,265.8362 263.8112,275.9116 264.5258,286.8156 267.1599,309.3915 271.2089,332.165 276.4035,354.1862 282.9996,376.3625 290.75,397.9448 299.6173,418.887 309.3182,438.4625 319.842,456.5517 331.1049,473.1435 340.0588,484.6762 349.5004,495.4587 359.0356,504.9481 368.8541,513.4105 379.7252,521.4572 391.1603,528.6433 402.214,534.4358 413.4474,539.1419 423.0883,542.296 432.9597,544.7442 442.405,546.3393 452.2765,547.2743 464.8749,547.6336 476.1106,547.0789 488.4753,545.6608 508.7591,542.2571 516.3438,541.6406 519.6597,541.8225 523.7899,542.7683 525.8123,543.6829 529.5775,546.262 535.1729,552.5297 542.3088,563.2364 556.5091,588.1626 594.3241,656.8306 613.0586,689.4888 627.5531,713.6635 638.8209,731.6603 649.9868,748.4596 662.1943,765.6972 672.1329,778.6843 684.1616,792.7436 695.7495,804.4367 700.6722,808.7517 705.5151,812.506 710.3036,815.6995 715.0083,818.2825 719.6,820.2055 723.7368,821.3568 727.7273,821.8564 731.533,821.6513 735.2552,820.6561 738.4894,819.0425 741.5307,816.7568 744.3572,813.7974 746.947,810.1628 749.278,805.8516 751.3283,800.8622 753.015,795.4612 754.5167,789.0821 755.6677,782.3971 757.1007,767.3944 757.3003,750.908 756.2477,733.1354 753.9358,714.144 750.4295,694.3641 745.8906,674.5987 740.4408,655.2557 734.1364,636.4785 726.8772,617.9472 718.8955,600.2959 710.2935,583.737 701.2315,568.562 691.4979,554.3383 682.463,542.7426 673.0462,532.0997 663.5639,522.731 653.1863,513.8404 642.5936,506.0045 631.9591,499.3624 621.6324,494.0635 610.1639,489.3724 600.4531,486.2187 590.614,483.823 581.0023,482.2782 570.7649,481.3923 559.1318,481.3433 545.3594,482.4375 536.6933,483.6926 516.487,487.599 510.516,488.3572 505.9242,488.2124 503.5513,487.6717 500.3611,486.2027 497.5113,483.9555 495.2017,481.5167 490.6982,475.3196 480.5257,458.1599 437.5391,378.2969 411.0963,331.3096 395.288,304.5596 385.2618,288.2277 372.4764,268.5634 361.1683,252.1801 350.2686,237.6329 338.5842,223.5087 328.4805,212.6349 319.1927,204.0868 310.1484,197.4364 305.925,194.9674 301.7869,192.9952 297.7459,191.5557 294.1667,190.7394 290.6866,190.4197 287.3146,190.6235 283.1073,191.7152 279.032,193.8548 275.384,196.924 272.25,200.7037 269.2565,205.6643 266.7725,211.2204 264.6282,217.6351 262.8396,224.9065 261.4139,233.095 260.4665,241.4959 259.9037,250.8894 259.7633,260.9113 260.0402,271.4952 260.7296,282.5749 263.3259,305.9567 267.2166,328.7598 272.6091,352.0499 279.4394,375.573 287.4503,398.4801 296.0321,419.2633 305.4746,438.6646 315.9944,457.2048 327.4397,474.5611 336.4667,486.521 346.0122,497.6386 356.1926,507.9974 366.6229,517.2357 377.436,525.531 388.2527,532.6186 399.6002,538.7494 411.1794,543.7715 421.509,547.3192 431.5894,549.9993 441.6875,551.9062 452.4417,553.1518 463.7743,553.6622 475.88,553.2324 489.7289,551.9483 511.066,548.8816 519.2656,548.5156 523.1699,548.8157 527.25,549.8594 530.3044,551.2984 533.9463,553.8534 536.5884,556.3086 541.4111,562.0506 550.1503,575.3768 558.2671,589.2371 604.5915,671.136 630.191,713.279 640.947,729.803 652.375,746.375 661.6387,758.973 670.7179,770.4092 682.3925,783.7204 692.1099,793.2733 697.05,797.436 701.9374,801.0544 706.4432,803.9085 710.8485,806.2002 715.1674,807.8991 719.0039,808.8402 722.7335,809.1683 726.3264,808.8648 729.7532,807.9114 732.9841,806.2895 735.9897,803.9805 738.4774,801.2997 740.8003,797.9358 742.8584,794.0213 744.6887,789.515 746.2764,784.4415 748.6021,773.1154 749.8568,759.9375 749.9713,744.703 748.9505,727.7661 746.8208,710.0647 743.7087,692.4502 739.6682,675.0239 734.6628,657.3536 728.8266,639.9331 722.2361,623.033 715.2826,607.5762 707.4282,592.3453 698.874,577.7887 689.9357,564.4334 680.9411,552.646 671.4999,541.8483 661.4396,531.8113 651.1571,522.9839 640.7361,515.4275 629.7368,508.8241 618.3906,503.2031 607.3222,498.9298 595.8583,495.8048 584.2737,493.7199 573.484,492.7838 561.6865,492.8618 552.098,493.8436 538.805,496.416 527.9654,499.7297 514.8681,504.8109 512.029,505.484 510.1973,505.4375 508.569,504.427 507.5179,503.2303 504.0545,497.8304 446.3137,383.6892 425.8463,344.3327 407.5107,310.2686 394.0344,286.0099 379.6227,261.3626 366.4075,239.6748 354.4893,221.2113 340.8473,201.5812 328.2006,184.9718 316.5341,171.388 305.6427,160.5513 299.9383,155.6771 294.6267,151.6745 289.3731,148.2822 284.5415,145.7203 279.7979,143.7922 275.1603,142.547 270.9646,142.0454 266.8905,142.2145 261.7685,143.5156 257.0344,146.0528 252.6367,149.8495 248.7969,154.6231 245.1387,160.8759 242.0539,167.9827 239.375,176.2262 237.1268,185.6065 235.3587,195.9777 234.0989,207.2481 233.3345,219.434 233.0684,232.444 233.3032,246.1868 234.0416,260.571 235.2863,275.5055 236.9846,290.4658 239.0792,305.2107 241.4961,319.3508 244.406,333.9443 247.8176,348.9238 251.6364,363.8392 255.8369,378.6141 260.3936,393.1718 265.4071,407.7878 270.4734,421.3291 275.6587,434.0934 281.1374,446.4679 286.8547,458.3398 292.9709,470.0449 299.4742,481.5215 306.149,492.3935 313.1636,502.9402 323.7763,517.3718 334.7667,530.5629 346.2524,542.5557 358.0466,553.207 370.6143,562.9519 384.059,571.7807 397.6708,579.2179 411.1363,585.0795 422.2755,588.8894 433.9384,591.9748 446.3895,594.3788 458.7638,595.9015 472.7718,596.65 488.3293,596.5008 499.7503,595.7543 530.0361,592.8954 540.46,592.6239 546.9705,593.0874 552.6631,594.2171 558.5116,596.1499 563.1771,598.5634 567.9841,601.8792 572.08,605.4208 577.5615,611.3812 582.4899,617.3841 593.6606,632.6934 612.9731,661.4872 630.3355,686.3173 645.767,706.6324 657.5583,720.2381 663.6806,726.5491 669.4291,731.7556 675.4027,736.3666 681.125,740.0 685.4862,742.0662 690.0768,743.3616 694.3688,743.6152 697.9256,742.8977 700.8006,741.3947 703.1501,739.3124 705.2275,736.5623 706.9878,733.1668 708.413,729.0543 709.5258,724.0852 710.2343,718.8178 710.5851,713.0177 710.1678,700.957 707.9979,685.207 704.6135,670.0888 700.0959,655.5398 694.5932,641.2802 688.3571,627.9044 680.5641,614.0169 672.3555,601.4806 664.5803,591.5246 654.6638,580.9286 645.6013,572.8157 636.3227,566.1389 629.5244,562.1083 622.9876,558.9847 615.2175,556.2332 608.0862,554.4251 602.625,553.75 595.945,553.8823 590.5993,554.8419 585.768,556.645 581.9583,559.0547 579.0497,562.0203 576.9605,565.6282 575.5572,570.2911 575.2101,575.1644 575.5717,580.8175 577.2703,588.9549 579.0473,594.7872 584.2098,607.9972 591.3557,623.3901 605.4913,649.3413 618.1269,670.4772 625.9372,682.744 637.5931,700.0301 647.8566,713.8891 656.3343,724.3672 664.272,733.1828 672.4916,741.2288 679.7621,747.2769 686.2463,751.355 692.787,754.1117 698.2315,755.1432 700.8685,755.023 703.3669,754.4387 706.3457,753.0099 709.0256,750.824 711.4346,747.7833 713.4302,744.0573 715.2037,739.2097 716.4778,733.9336 717.3442,727.977 717.75,721.875 717.762,714.512 717.3651,706.9617 715.3806,691.0922 711.7637,674.4263 706.6132,656.9954 700.8783,641.5057 694.152,626.562 686.4739,612.1378 678.3317,599.2588 668.4108,586.1989 658.4338,575.0044 649.125,566.375 637.9677,558.0032 630.1275,553.1937 622.3848,549.3457 614.3519,546.2455 606.5595,544.1195 598.9507,542.9524 591.6104,542.7765 584.963,543.6519 578.9471,545.4625 574.3328,547.8688 570.6605,551.0902 567.6752,555.3848 566.0475,560.1529 565.5164,565.2991 566.2209,572.684 567.375,577.9219 569.9102,586.1297 575.637,600.314 581.3179,612.2659 589.4343,628.084 602.234,651.068 616.3935,674.8353 630.2205,696.5355 639.4744,710.1547 650.6405,725.2255 659.1616,736.0045 667.7253,745.6512 677.0943,754.9523 684.8004,761.4184 692.1185,766.1404 699.0927,769.2032 702.2751,770.0391 704.9421,770.3542 707.8863,770.2204 710.3532,769.6713 713.9831,767.9936 716.9745,765.6042 719.6861,762.2979 721.8336,758.4516 723.7469,753.4942 725.2469,747.7018 726.3095,741.1228 726.887,734.2835 727.042,726.0948 726.7232,717.3187 725.9634,708.3818 724.7455,699.044 721.2051,680.9044 715.7273,660.9132 709.5977,643.2105 702.4882,626.3935 694.003,609.7029 684.7596,594.4047 674.9504,580.7804 663.8497,567.8055 652.7105,556.9449 647.1746,552.3196 641.3426,547.9623 633.667,542.9275 626.229,538.7965 618.7365,535.372 610.9767,532.5464 603.2146,530.4237 596.0493,529.1539 588.0715,528.5333 581.003,528.7285 574.0357,529.8392 567.7747,531.7075 562.715,534.192 558.3884,537.4413 555.1481,541.2639 553.2249,545.3849 552.3835,549.8595 552.4436,555.797 553.1706,560.1598 554.9425,567.007 559.794,579.8622 567.7988,596.9652 580.2753,620.9793 593.7656,645.6447 612.5573,677.8453 632.2239,709.3149 648.1105,732.5653 659.0183,747.3721 669.5335,760.2134 680.25,771.75 689.75,780.4213 698.7775,786.9338 703.013,789.2919 706.8442,790.9659 710.7586,792.1418 714.2105,792.6443 717.5337,792.59 720.7043,791.965 724.653,790.2197 728.2313,787.402 731.2366,783.7067 733.8573,779.0258 736.2111,773.0164 738.0014,766.364 739.3165,758.8299 740.0801,750.9502 740.3602,741.6578 740.1167,731.2862 739.3592,720.6161 738.1253,709.829 736.454,699.08 734.3854,688.5002 731.654,676.8836 728.4832,665.1843 721.6746,644.1468 713.8561,624.5027 704.5581,605.2554 699.4288,595.9148 694.1168,587.034 688.6443,578.6414 683.0336,570.7655 677.2865,563.4083 671.2797,556.3654 664.9774,549.6085 658.6721,543.4672 652.384,537.9374 645.863,532.8147 637.6356,527.1771 628.9612,522.0154 620.599,517.801 612.247,514.3693 603.5824,511.6269 594.7266,509.5945 586.2148,508.3935 577.3191,507.8906 567.8265,508.1601 559.2931,509.3513 551.272,511.462 543.4417,514.6598 537.6294,518.182 533.8582,521.825 532.5575,523.7877 531.375,526.5 530.7561,530.5754 531.0259,534.3569 532.7363,540.7612 536.2971,549.6291 544.4213,566.6048 578.6486,631.9863 598.9222,668.9786 621.0155,707.8286 634.8503,730.736 653.7765,760.1 670.1268,783.1874 684.1184,800.8303 690.3319,807.8738 696.3243,814.0971 702.3273,819.7401 708.2924,824.7121 713.8939,828.7406 719.375,832.0 724.4862,834.298 729.1043,835.6553 733.9537,836.2572 738.2475,835.9746 742.3271,834.8519 746.1544,832.8551 749.4087,830.2276 752.5627,826.578 755.1625,822.4858 757.5159,817.6529 759.6039,812.1032 761.4076,805.8607 762.9082,798.9493 764.0867,791.393 765.3755,775.2638 765.377,756.5948 764.0418,736.2266 761.4029,715.0256 757.5928,693.8965 752.611,672.6018 746.5067,651.092 739.553,630.3972 731.8679,610.829 723.6439,592.8252 714.2321,574.963 704.3132,558.5545 693.7808,543.3785 684.6959,531.9052 675.0982,521.2347 664.9738,511.3197 654.3441,502.246 643.8715,494.5486 633.0606,487.8166 621.9281,482.0609 610.3499,477.2289 601.0305,474.1633 591.8313,471.8294 581.2339,469.8801 570.8266,468.6737 559.583,468.2391 544.6541,468.7551 535.8764,469.5488 513.741,472.4132 503.9601,473.0178 499.6689,472.6181 495.0382,471.4047 491.6389,469.838 488.2685,467.5122 485.3271,464.6873 481.579,460.4546 473.3183,448.3936 464.4742,433.774 432.6067,377.5141 409.339,337.8498 396.2944,316.7391 386.3546,301.3365 374.5143,284.0088 364.2109,269.8667 354.5583,257.7148 344.6269,246.3474 335.9981,237.5731 327.9375,230.5794 320.0557,225.1111 312.6935,221.4257 309.1432,220.2524 306.0326,219.6101 303.0091,219.3815 300.0793,219.5878 296.4162,220.543 293.2191,222.1441 290.017,224.6573 287.3172,227.7 284.6862,231.7841 282.5436,236.2854 280.6896,241.493 279.1136,247.5231 277.9407,253.9082 277.0719,261.2129 276.4366,277.1539 277.2079,295.0377 279.3166,313.9062 282.614,332.4527 287.1997,351.7393 293.0174,371.4299 299.7286,390.3654 307.2041,408.0693 315.5917,425.1131 324.9193,441.561 334.5268,456.2621 343.5176,468.0963 353.1923,479.1623 363.4121,489.3108 373.9689,498.3418 384.3923,505.8354 395.4745,512.4205 406.8705,517.8591 418.4396,522.0529 430.9104,525.1665 443.2246,526.8945 456.0601,527.1971 463.3831,526.8225 469.4743,526.1432 475.8866,525.0031 481.9521,523.5026 488.7874,521.3076 494.2969,519.1406 499.3943,516.6239 503.7315,513.8472 506.3906,511.3906 507.5625,509.2695 507.75,507.25 506.8056,503.9028 503.5894,497.0371 453.2131,396.52 429.6737,350.5555 408.1366,309.9865 392.7365,282.3422 374.6495,251.1718 359.1534,226.3227 344.1439,204.0207 330.7819,185.863 318.4518,170.989 306.3886,158.4774 300.3634,153.0446 294.701,148.5185 289.4134,144.8654 284.2022,141.8791 279.0854,139.6209 274.3716,138.2159 269.9957,137.5759 265.6726,137.6701 260.3485,138.9346 255.5969,141.3368 251.1501,144.9403 247.0433,149.7723 243.3117,155.8601 240.1741,162.7613 237.4401,170.786 235.1376,179.9662 233.2948,190.222 231.8868,201.8322 230.9868,214.4185 230.6086,227.4884 230.7278,241.3219 231.3536,255.842 232.4953,270.972 234.0657,285.6652 236.0777,300.3132 238.61,315.5446 241.5193,330.5313 244.9302,345.9347 248.7546,361.2917 252.864,376.1435 257.3273,390.7824 262.125,405.125 267.1707,418.9024 272.4996,432.2407 278.0879,445.1162 284.0814,457.8516 290.2984,470.0463 296.713,481.6744 303.4844,493.0079 310.4091,503.6875 321.0552,518.4632 332.4296,532.276 344.1746,544.6983 356.4669,555.9642 369.4533,566.178 382.9828,575.1791 396.5584,582.6029 410.3792,588.6413 422.2609,592.7314 434.5,596.0 446.1983,598.2777 458.3613,599.7827 472.7647,600.5631 488.5892,600.4276 502.3714,599.5558 532.1216,596.7731 544.0461,596.4069 550.3476,596.9023 556.46,598.156 561.7773,600.0363 566.6386,602.6484 571.0719,605.697 574.75,608.875 580.3349,614.6261 585.2411,620.4209 594.8947,633.2187 616.7574,665.0387 631.2261,685.3542 645.3095,703.532 657.2037,716.9481 663.1373,722.9808 668.2684,727.543 673.9548,731.8641 679.5257,735.3483 683.8615,737.3413 688.0033,738.4588 691.8631,738.6633 695.0542,738.0244 697.6883,736.7071 700.0971,734.6723 702.2254,731.9544 704.0183,728.5878 705.3472,724.8743 706.4279,720.1928 707.1027,715.224 707.4318,709.7471 707.392,703.8312 706.9448,697.3379 704.8926,682.8504 701.7174,668.9705 697.1479,654.5492 691.854,641.054 685.8682,628.4012 678.3343,615.0635 670.5947,603.4479 662.4239,593.267 653.1343,583.4866 644.4638,575.9047 635.0194,569.2584 628.8415,565.7174 622.875,563.0 615.2878,560.3776 608.4879,558.8812 602.3314,558.4632 596.7128,558.8531 591.7707,560.1718 587.3723,562.3826 584.0381,565.2143 581.8081,568.2109 580.139,572.0967 579.3906,576.4062 579.4059,582.3083 580.043,587.2389 581.9005,594.87 584.3886,602.4787 588.8233,613.4062 595.8765,628.1401 601.5723,638.9076 610.5747,654.8768 621.9673,673.5562 629.2969,684.8281 639.8126,699.9291 648.882,711.8475 657.75,722.5 664.1257,729.3526 671.7052,736.3837 679.1036,742.1622 685.298,745.8509 690.8927,748.0118 696.0696,748.754 700.5203,748.0076 703.3773,746.6023 705.9583,744.463 708.2093,741.5836 709.9807,738.1946 711.5542,733.7502 712.6793,728.939 713.4922,723.1167 713.862,717.0989 713.8287,710.3401 713.3635,702.7098 711.3216,687.3445 708.0,672.25 702.9445,655.609 697.3161,640.9267 690.8059,627.001 682.8522,612.5655 674.5127,599.7302 665.5284,588.1875 655.9805,577.8356 646.9355,569.7185 636.4956,562.1339 629.1402,557.7535 622.1966,554.4021 614.8761,551.6674 607.7532,549.8504 599.9075,548.9202 593.0244,548.9335 587.3421,549.8909 582.2406,551.7371 578.208,554.2529 574.9593,557.4769 572.5242,561.6628 571.2947,566.0193 570.8107,571.3943 571.244,576.6509 572.7236,583.7473 575.2536,591.7298 579.6664,602.9656 586.4491,617.4583 595.9554,635.7356 606.3776,654.1758 615.2011,668.8886 628.5899,690.1787 638.528,704.7021 648.6367,718.4553 657.8753,729.77 667.5074,740.4966 674.8729,747.6437 682.1737,753.5874 689.31,758.1619 695.504,760.7947 698.4844,761.5156 701.3578,761.8168 704.1022,761.6811 706.6958,761.0916 709.7977,759.6219 712.7914,757.1406 715.4218,753.7291 717.4706,749.8008 719.1328,745.1214 720.3698,739.7827 721.2685,733.579 721.7763,726.701 721.8635,719.2285 721.5309,711.6734 719.5181,694.8155 715.9016,676.7521 711.0111,659.3844 704.587,641.8153 697.3025,625.3198 689.6592,610.8227 680.5821,596.3138 671.3111,583.6749 661.9725,572.9876 650.4292,562.029 644.8365,557.4517 639.3063,553.4253 632.6109,549.2409 624.5461,544.9476 617.6002,541.8802 610.7023,539.5161 603.1908,537.7197 596.0474,536.7024 589.808,536.5109 582.5156,537.0938 576.9592,538.3132 571.7611,540.3764 567.4424,543.0839 564.0697,546.3245 561.8416,549.8236 560.3689,554.1332 559.7395,559.9737 560.0625,564.6562 562.1236,574.0486 566.9021,587.3322 574.3471,603.5258 585.7619,625.6647 599.4237,650.2809 616.5078,679.1041 633.5291,705.6882 645.6242,723.172 657.1229,738.4556 666.2987,749.4824 676.4361,760.207 685.777,768.6266 694.1812,774.5474 698.1106,776.6733 701.9358,778.2864 705.6304,779.3514 709.0122,779.8191 712.2995,779.7013 715.085,779.0848 718.6698,777.4365 721.9263,774.8435 724.8058,771.2864 727.1658,766.9677 729.2701,761.3294 730.8372,755.075 731.9582,747.9992 732.6024,740.1677 732.7396,731.6457 732.366,722.1153 731.5253,712.3442 730.2041,702.122 728.4695,691.9625 726.3666,682.0007 723.7548,671.6412 720.688,661.0699 713.9718,641.5908 706.2133,623.1749 697.107,605.2556 687.0819,588.6099 681.8305,580.9811 676.6617,574.1423 665.2923,561.0793 659.4522,555.184 653.3563,549.5929 647.2931,544.5954 641.2725,540.1865 633.5216,535.1907 625.625,530.7812 618.0358,527.2428 610.5362,524.4773 602.1358,522.1122 594.0545,520.5516 586.3658,519.832 578.1927,519.82 570.7515,520.583 562.9559,522.366 557.2272,524.5713 551.786,527.7852 548.0244,531.1513 545.4824,534.9082 543.9013,539.5958 543.5273,544.9565 544.3672,550.7061 546.0805,556.8586 549.2339,565.5043 554.0338,576.1114 564.7366,597.7798 589.8649,644.335 610.0598,679.6678 632.0076,715.6357 647.6699,739.3168 663.4589,761.0679 676.3589,776.7948 688.6245,789.7052 694.1476,794.6965 699.3151,798.8093 704.4151,802.2964 709.4105,805.1007 714.2643,807.1649 718.6352,808.3702 722.7026,808.7787 726.5966,808.4028 730.2853,807.2255 733.7366,805.2294 736.9185,802.3973 739.5504,799.0826 741.6431,795.5694 743.559,791.3962 745.2479,786.6409 746.6966,781.3303 748.8197,769.1501 749.8084,755.5358 749.6668,740.5017 748.4283,724.1455 746.1724,707.1909 742.8927,689.621 738.83,672.6304 733.6483,654.7887 727.7727,637.6183 721.3101,621.3328 714.3591,606.117 706.7795,591.6639 698.336,577.4253 689.3399,564.0397 680.5325,552.516 671.3566,542.0461 661.2467,532.0158 650.627,522.9228 640.1766,515.346 629.8372,509.1444 618.4051,503.5506 607.2379,499.2833 596.5168,496.3008 584.7841,494.1585 573.9474,493.2101 562.4627,493.303 551.1998,494.4309 538.5628,496.9713 526.74,500.6705 514.9147,505.4428 512.248,506.25 510.0648,505.9907 508.101,504.359 505.262,499.795 497.0791,484.1281 453.2667,396.8366 433.3054,358.0162 410.8506,315.386 393.7945,284.6416 379.4417,259.6792 367.1741,239.4285 354.0506,219.0082 340.5266,199.4695 327.8723,182.9068 315.5465,168.6264 304.0177,157.1411 298.7232,152.5877 293.4694,148.5882 288.2736,145.2012 283.4352,142.6178 278.6786,140.6827 274.2148,139.483 269.715,138.954 265.6937,139.1354 260.5563,140.4158 255.7078,142.9304 251.4563,146.4547 247.5193,151.1515 243.926,157.0634 240.8492,163.8749 238.1145,171.9969 235.8149,181.2296 233.9655,191.5106 232.5811,202.7772 231.6768,214.9668 231.2675,228.017 231.3681,241.8651 231.9565,255.7929 233.0563,270.2473 234.6641,285.1295 236.7065,299.9691 239.2013,315.0353 242.1331,330.2389 245.3976,345.1096 249.1471,360.3227 253.1796,375.0332 257.5851,389.5826 262.2392,403.5468 267.1981,417.1559 272.5877,430.7362 278.2492,443.8663 284.3201,456.8428 290.4549,468.9436 296.9583,480.7827 303.64,491.9843 310.4232,502.4346 321.1541,517.2697 332.5943,531.1205 344.3983,543.597 356.9635,555.119 369.9205,565.3171 382.6967,573.8129 396.1781,581.2202 410.1773,587.3815 421.9759,591.4861 433.7003,594.6633 445.6093,596.9852 458.2297,598.5478 473.2556,599.4329 486.891,599.3527 506.9324,598.0189 530.564,595.7179 542.8996,595.3351 549.6339,595.8629 555.7238,597.06 560.5506,598.7309 565.7784,601.4792 570.7904,605.0828 575.9375,609.8647 580.6625,615.0207 587.2263,623.1702 593.162,631.1002 622.2192,673.471 631.5127,686.3922 644.4301,703.2212 657.6038,718.2892 663.0556,723.7685 668.7923,728.8854 674.4037,733.2322 679.3044,736.3723 684.1162,738.6356 688.335,739.838 692.25,740.125 695.7115,739.4549 698.5933,738.0306 700.9093,736.1247 702.9418,733.6282 704.7447,730.3258 706.1634,726.4664 707.265,721.9654 708.0135,716.8828 708.373,711.2787 707.8354,697.836 705.8566,683.53 702.7687,670.2262 697.8269,654.4302 692.5384,640.9056 686.3453,627.956 679.1302,615.1115 671.5481,603.7057 662.6823,592.5083 653.8692,583.0275 644.9597,575.2138 635.2593,568.2872 628.7456,564.5449 621.963,561.4643 615.375,559.198 609.273,557.8454 602.3819,557.1651 596.9091,557.3941 591.1898,558.7593 586.8185,560.771 583.2938,563.5697 580.7637,566.9011 579.1176,570.6517 578.3025,575.0471 578.1507,580.3048 578.858,585.9379 580.4141,592.6984 582.9284,600.3356 587.0969,610.8612 592.9679,623.6531 602.6671,641.9325 608.2339,651.7025 619.8685,671.0598 630.2338,687.072 639.434,700.3339 650.0213,714.238 656.9979,722.6687 664.6408,730.8317 673.0875,738.7983 679.4722,743.8148 685.7065,747.5277 691.6475,749.8417 696.6191,750.5625 699.2399,750.3347 701.3683,749.7769 704.3262,748.3125 706.9624,746.095 709.1974,743.1702 710.9808,739.7334 712.5748,735.2728 713.788,730.1037 714.5904,724.2862 714.9524,718.1822 714.9203,711.2363 714.4997,704.1609 712.4978,688.9607 708.8898,672.6103 703.8603,655.8614 698.2735,641.1035 691.3837,626.1047 683.8828,612.367 675.804,599.914 666.5469,587.7739 657.3064,577.5624 647.0775,568.3468 636.8565,560.7671 629.971,556.6433 621.9854,552.8189 614.4436,549.9941 607.3154,548.1646 599.9668,547.2088 593.144,547.2267 586.5079,548.1949 581.2414,549.9845 576.9477,552.6239 573.5272,555.9962 570.9972,560.2376 569.6931,564.7202 569.3686,569.8997 570.0245,576.6568 571.3286,582.421 573.7792,590.3397 579.6502,604.6293 585.1929,616.3595 592.6458,630.974 603.3384,650.1989 617.5691,673.9261 625.335,686.177 638.2173,705.4018 648.19,718.9718 658.4126,731.753 666.0775,740.4377 674.3901,748.7198 682.3126,755.413 689.4558,760.1072 695.9526,763.0172 699.2019,763.8856 702.0,764.25 704.885,764.1568 707.3026,763.6384 710.5496,762.1906 713.5102,759.9106 716.1364,756.7985 718.3803,752.856 720.271,747.9528 721.6713,742.5529 722.7243,736.0453 723.2766,729.2545 723.375,721.875 723.0173,713.7069 722.2209,705.0123 720.9758,695.9078 717.4938,678.5376 712.1612,659.6659 706.052,642.3943 699.1705,626.4294 690.9741,610.6953 682.1443,596.359 672.6143,583.3193 661.5342,570.617 650.7527,560.2931 645.6449,556.1148 639.9699,551.9851 632.4152,547.1217 625.1514,543.1654 618.489,540.2201 610.4446,537.4681 603.3544,535.6546 596.4792,534.586 588.7862,534.2534 582.1299,534.7207 576.1406,535.9862 570.6551,537.9903 565.7637,540.916 562.0981,544.2632 559.6646,548.1525 558.2264,552.5494 557.684,557.39 558.125,563.375 559.2473,568.7221 561.5559,576.317 567.5697,591.1634 576.6689,610.095 587.6094,630.693 604.9905,661.4885 620.5662,687.1841 632.7491,706.0395 647.6714,727.7478 658.3943,741.8346 669.3168,754.7611 678.7224,764.5419 687.511,772.2663 696.0339,778.225 699.9227,780.3032 703.3596,781.731 707.0782,782.7958 710.3087,783.2584 713.7388,783.1915 716.6564,782.5823 720.5317,780.7448 723.8367,777.9538 726.7852,774.1405 729.3333,769.3194 731.3026,763.9533 732.9266,757.375 734.066,749.8476 734.69,741.8232 734.8393,733.1001 734.4979,723.7716 733.6494,713.9312 732.3479,704.0615 730.5155,693.2886 728.2226,682.2683 725.5643,671.4845 722.4679,660.6736 715.7965,641.4688 707.4431,621.7591 698.4201,603.9423 688.6543,587.7859 677.5842,572.3176 672.0502,565.521 666.2145,558.9859 660.578,553.268 654.4211,547.646 647.7652,542.1341 641.217,537.2645 633.8806,532.4702 626.4241,528.3323 617.4841,524.229 609.0651,521.084 601.4717,518.9456 593.6249,517.4971 585.6384,516.6598 577.7532,516.5319 569.3995,517.2374 562.2056,518.6785 555.5,521.012 549.5046,524.2394 545.4717,527.4928 542.5352,531.297 540.6516,536.2489 540.2326,540.7898 540.7905,545.7627 542.4159,552.2244 548.4149,567.048 553.8332,578.4534 562.4779,595.4702 574.6282,618.5302 588.2119,643.3872 610.4578,682.5433 631.2731,717.07 647.9384,742.5066 664.7422,766.0176 677.8739,782.1619 690.6167,795.7168 696.1252,800.7608 701.2944,804.9395 706.4091,808.5061 711.4307,811.4009 716.3203,813.5642 720.75,814.875 725.1642,815.4097 729.0399,815.1085 733.0486,813.9038 736.4929,811.9852 739.6885,809.2768 742.6082,805.7681 744.7727,802.2947 746.8719,797.9005 748.7303,792.776 750.2331,787.3323 752.5067,774.408 753.5799,759.8471 753.4635,743.9713 752.1765,726.6756 749.741,708.3459 746.2599,689.7586 741.9229,671.6965 736.4603,653.0344 730.1682,634.8008 723.2432,617.5198 715.794,601.3903 707.9306,586.5746 699.059,571.8509 689.6321,558.0898 680.8672,546.8281 671.7489,536.5512 661.4936,526.5232 651.1794,517.774 641.0354,510.4025 630.8419,504.1822 619.2125,498.3986 607.9784,493.9658 598.0447,491.0048 587.6039,488.8469 576.9671,487.5289 566.7241,487.1098 555.1265,487.5472 544.4522,488.8198 535.8638,490.5214 517.6273,495.074 511.9297,496.1953 507.3565,495.8889 504.798,494.8355 503.625,493.9375 501.143,491.4777 498.403,487.7759 490.1511,473.6257 438.5664,375.7499 420.183,341.7894 404.3504,313.6759 392.5728,293.4581 381.696,275.6416 369.5058,256.51 358.6238,240.3565 346.6321,223.8614 334.7285,208.9633 323.9209,196.9577 313.8658,187.3989 304.355,180.0942 299.5273,177.1289 295.1486,174.9366 290.8609,173.3077 287.0242,172.3429 282.956,171.9034 279.3478,172.0948 274.9428,173.2095 270.6239,175.4542 266.5683,178.8707 263.0552,183.1644 259.8844,188.4867 257.0779,194.8374 254.6573,202.2167 252.6446,210.6245 251.1195,219.6489 250.0729,229.301 249.4817,239.7135 249.3445,251.1791 249.6652,262.9038 250.4597,275.5628 251.7203,288.7046 253.3812,301.8174 257.6831,327.1338 263.556,352.8033 270.96,378.6135 279.6559,403.6765 289.165,426.7597 299.6285,448.2861 305.4287,458.885 311.3979,468.9719 317.5056,478.5305 323.9235,487.8257 333.4347,500.32 343.299,511.747 353.807,522.381 364.5856,531.8607 376.0813,540.5763 387.8878,548.1962 399.3559,554.3396 411.479,559.5791 421.6935,563.094 432.2228,565.9534 442.1163,567.9216 452.207,569.2227 465.9696,570.063 478.6849,570.0308 490.8829,569.1925 513.7923,566.8212 526.625,566.2465 531.8517,566.7941 536.6582,567.957 541.3081,570.0057 545.4609,572.5961 549.445,576.0887 553.6556,580.5869 563.2861,593.4203 574.2283,610.8447 608.0317,667.1941 623.6211,691.8917 632.5656,705.3972 642.2011,719.2333 650.8816,731.1355 658.7989,741.2182 667.6705,751.5934 676.1252,760.5514 683.7575,767.5931 690.9806,773.1553 697.7004,777.1858 703.929,779.667 709.6647,780.5683 712.5604,780.4109 714.9809,779.8945 718.5381,778.3451 721.8499,775.7668 724.8819,772.0603 727.3732,767.6193 729.475,762.2748 731.0422,756.4989 732.1881,749.9883 732.9337,742.1602 733.1943,733.5494 732.975,724.6527 732.2837,715.2285 731.167,705.784 729.5579,695.8094 727.383,685.0048 722.0027,664.0597 715.7109,645.0574 708.297,626.9929 699.429,608.8361 689.7457,592.1344 679.5358,577.3932 668.6517,564.1755 663.0179,558.1844 657.1189,552.4739 651.4172,547.4715 645.1419,542.4881 637.3628,537.0127 629.4679,532.2488 621.8226,528.4067 613.5176,525.0098 605.3524,522.3477 597.7007,520.5493 589.6438,519.4404 581.477,519.0825 573.3742,519.5991 565.1482,521.0227 558.6271,523.1116 552.7522,526.0762 548.3056,529.5139 545.4304,533.3061 543.535,537.8645 542.8199,543.1411 543.4374,548.7206 544.9707,554.5313 547.3148,561.3796 551.7049,571.6686 558.8044,586.3838 568.1519,604.6416 583.607,633.5727 604.1462,669.8234 626.5283,707.4332 646.0042,737.4072 662.2667,760.0656 675.5181,776.563 686.6409,788.5416 692.5109,794.0444 698.0536,798.6811 703.5003,802.6545 708.5205,805.7103 713.179,807.8758 717.7253,809.3011 722.1141,809.9464 726.2999,809.7721 729.9198,808.8582 733.451,807.092 736.494,804.6544 739.3153,801.4304 741.7105,797.7482 743.7083,793.7736 745.4819,789.258 747.0125,784.2128 749.2494,772.7298 750.4176,759.1375 750.4871,743.8095 749.4178,727.0965 747.3041,710.2127 744.0445,692.2584 739.9408,674.5512 734.9418,656.8052 729.3494,640.0634 723.0096,623.8549 715.6041,607.4002 707.6239,591.8546 698.9733,577.0776 690.1271,563.8819 681.121,552.131 671.723,541.3379 662.0053,531.6051 652.2886,523.2107 641.2543,515.1297 630.376,508.4223 619.3015,502.8649 608.4031,498.6465 596.9948,495.3402 586.1338,493.2272 574.6034,492.161 563.3426,492.0877 551.3105,493.2129 540.0104,495.2231 530.5278,497.7747 515.1316,503.2959 512.375,504.0 509.702,503.785 507.6898,502.6759 504.463,498.42 499.4407,489.3921 452.0509,396.0711 432.6501,358.875 408.6029,314.057 392.7112,285.7667 379.5161,263.1206 367.9939,244.3514 355.5248,225.2065 342.5324,206.6275 330.2128,190.6436 318.0357,176.6702 306.6625,165.4415 301.3153,160.8981 296.309,157.1436 291.3591,153.9647 286.7641,151.5464 282.2426,149.7299 277.9255,148.5804 273.7577,148.0736 269.7177,148.2196 264.8734,149.355 260.2887,151.5912 255.997,154.9732 252.0314,159.5458 248.4254,165.354 245.4296,171.8941 242.8327,179.4745 240.5693,188.3911 238.7555,198.3326 237.4074,209.2389 236.5412,221.0498 236.1771,233.2557 236.2918,246.1948 236.8932,259.6858 237.9702,273.4156 239.5213,287.5576 241.475,301.6472 243.9198,316.3376 249.9097,345.2948 253.4851,359.7686 257.4298,374.1278 261.5283,387.6255 266.0359,401.071 270.8567,414.1831 276.1131,427.2854 281.6418,439.9606 287.4129,452.171 293.5654,464.1966 299.9099,475.6504 306.4137,486.4914 313.1393,496.808 323.7027,511.3593 334.7084,524.6782 346.3118,536.9769 358.3957,548.1217 370.4442,557.7104 382.9443,566.0833 395.8217,573.187 409.2382,579.149 421.125,583.375 432.1559,586.4594 443.3931,588.7563 455.372,590.3468 470.0549,591.2787 484.614,591.2536 499.3047,590.4005 526.2223,587.9392 538.4196,587.619 544.7784,588.1997 550.2853,589.41 555.3205,591.3989 560.2776,594.1862 564.9079,597.7072 570.5033,603.0211 573.9671,606.9622 581.0876,616.0671 594.1657,635.1246 615.6767,668.0246 630.8877,690.0311 645.3154,709.2928 656.5499,722.869 663.3761,730.0785 670.6843,737.068 676.2222,741.6435 681.6509,745.3635 687.1816,748.2879 692.0769,749.9658 696.7231,750.428 700.6667,749.7546 703.5977,748.4153 706.2253,746.3414 708.5921,743.4437 710.6433,739.7504 712.3285,735.293 713.5087,730.5629 714.307,725.2024 714.7385,719.2531 714.5013,705.8383 712.7708,691.3581 709.2336,674.3862 704.3257,657.3864 698.7372,642.4337 691.8925,627.3194 684.7679,614.0988 676.7367,601.5774 667.6582,589.3742 658.7995,579.3042 648.7497,569.923 638.5647,562.1559 631.4944,557.7859 623.3752,553.6444 616.4174,550.8415 609.6392,548.9302 602.0152,547.6094 595.2737,547.2869 587.9222,548.0929 582.4332,549.7031 577.898,552.211 574.3349,555.4395 571.6584,559.5481 570.0418,564.3612 569.5073,569.2154 569.9185,575.5054 571.147,581.3842 573.5926,589.6376 578.6419,602.3766 583.6283,612.9458 592.0503,629.5721 604.4446,651.8977 616.081,671.4113 627.6597,689.58 637.5905,704.4056 648.0249,718.5436 657.6836,730.674 665.9582,740.0452 674.5375,748.5845 682.1457,754.9905 689.5109,759.8085 696.2201,762.8038 699.25,763.625 701.9394,763.9796 704.9016,763.8682 707.3743,763.321 710.6736,761.815 713.6479,759.4621 716.0,756.625 718.1326,752.8519 720.0349,747.9048 721.4391,742.4674 722.447,736.3198 723.03,729.5237 723.1693,721.8557 722.8705,713.8071 722.1356,705.2789 720.9546,696.3591 717.4938,678.8418 712.4244,660.6797 706.3985,643.695 699.2242,627.0946 690.9254,610.9783 682.1082,596.5317 672.6626,583.6153 662.2108,571.5913 651.6932,561.4677 640.4795,552.6378 633.238,547.8645 626.2125,543.9536 618.9903,540.7058 611.1889,537.9252 604.3171,536.1219 597.8098,535.0759 589.6029,534.5214 583.1156,534.8274 576.6019,536.1296 571.0761,538.0943 566.4167,540.7609 562.8064,544.0133 560.1902,547.7775 558.6772,552.1 558.0104,556.943 558.3316,562.9518 559.3464,568.4114 561.1576,574.9374 566.9215,589.4071 576.2495,608.9533 586.3972,628.3915 602.6933,657.2816 620.0081,686.0938 631.5622,704.074 645.7446,724.8622 656.8288,739.5027 668.615,753.7198 677.682,763.3143 686.7338,771.434 695.2017,777.503 698.9981,779.5832 702.7162,781.172 706.3311,782.2467 709.8177,782.7852 713.1513,782.7647 716.2938,782.1667 719.952,780.541 723.2843,777.9117 726.2522,774.2835 728.8173,769.6613 730.9412,764.0499 732.5392,757.7368 733.7491,750.2193 734.4446,742.2169 734.6587,733.51 734.3872,724.6226 733.6728,715.7062 732.3908,705.4312 730.6572,694.8931 728.4603,684.0926 725.8994,673.5224 722.9065,662.9165 716.0362,642.8448 708.0451,623.5721 699.3879,606.1324 689.8168,590.0727 678.9339,574.5393 673.1172,567.2443 667.4577,560.7791 661.7393,554.8595 654.981,548.5326 648.5525,543.0814 642.2201,538.2603 634.5214,533.1479 627.065,528.9921 618.4332,524.9439 609.9121,521.707 601.9075,519.4185 593.5518,517.8066 585.5345,516.9575 578.25,516.875 569.9412,517.6043 562.6328,519.078 555.7799,521.3853 550.0377,524.4412 545.6332,528.0884 542.5,532.3438 540.9194,536.9246 540.6074,542.2136 541.2353,546.9306 543.1137,553.5711 547.1953,563.9414 552.0527,574.6672 562.7919,595.9048 588.341,643.608 609.5391,680.7274 631.8227,717.5745 648.2534,742.6529 664.2065,764.8272 677.4522,781.1157 689.8554,794.3487 695.5745,799.6088 700.9471,803.9787 706.2471,807.6954 711.1298,810.5333 715.8728,812.6709 720.2621,814.0049 724.6978,814.5542 728.6029,814.2669 732.3204,813.2074 735.8174,811.3603 739.0612,808.7103 742.019,805.2421 744.296,801.6164 746.2709,797.5087 748.1231,792.5012 749.6218,787.2098 751.9109,774.6363 753.0154,760.4845 752.9316,744.3828 751.6856,726.8945 749.3358,708.7015 745.934,690.2501 741.689,672.5124 736.1635,653.5693 730.0298,635.7093 723.1541,618.4395 715.9223,602.6641 707.8516,587.3317 698.9773,572.4986 689.7337,558.937 681.1071,547.8203 672.0923,537.6664 661.561,527.3099 651.1615,518.4367 641.2189,511.1818 631.3644,505.161 620.0921,499.5006 608.6995,494.9518 598.6107,491.9072 588.2317,489.6989 578.174,488.3811 567.7323,487.8786 556.3171,488.2389 546.0714,489.4458 534.3048,491.6776 517.7229,496.1128 511.875,497.2656 508.8834,497.3078 506.25,496.5 504.9174,495.7476 503.108,494.1302 499.4352,489.5093 492.266,477.2289 446.235,389.3786 427.0421,353.6073 406.9514,317.3033 397.1301,300.3122 380.2214,272.1902 369.9006,255.862 360.0727,241.223 347.0997,223.0424 335.6259,208.3576 324.8442,196.1376 314.2507,185.8464 304.4239,178.0411 299.7482,175.036 295.143,172.5976 290.9207,170.8744 286.7833,169.7237 282.7094,169.18 279.0677,169.2492 274.3262,170.2584 270.1567,172.1852 266.2573,175.0963 262.6504,179.0247 259.3585,184.0032 256.404,190.0647 253.9833,196.7232 251.9465,204.3097 250.3102,212.7546 249.041,222.3795 248.2162,232.8207 247.848,243.5944 247.9142,255.4754 248.4158,267.5322 249.347,279.9393 250.7005,292.4599 254.6003,317.9405 260.044,343.9961 266.9238,370.0487 274.8884,394.7634 284.041,418.4287 294.4871,441.366 300.0232,452.1901 305.9053,462.8438 311.9373,472.9542 317.8945,482.1812 327.6176,495.7413 338.0454,508.514 349.0927,520.3403 360.3922,530.8511 372.018,540.1611 383.9832,548.2807 396.2944,555.2315 409.0783,561.079 419.8093,564.9921 430.5385,567.9957 441.818,570.2575 453.6578,571.7959 466.589,572.6581 480.0039,572.5854 492.8974,571.734 517.6921,569.1797 526.5468,568.8879 532.4996,569.3371 537.0905,570.2915 542.0497,572.203 546.359,574.7641 550.8952,578.5089 554.5121,582.1109 558.9978,587.5125 563.4292,593.5904 573.8826,609.5669 606.7294,663.6202 626.3344,694.4739 644.3299,720.5021 651.9813,730.7267 659.6172,740.281 668.1348,750.0898 675.6176,757.8027 682.9053,764.3278 690.0782,769.6954 696.4215,773.4102 702.3046,775.6981 707.869,776.589 710.674,776.4606 713.0209,775.9893 716.6328,774.4603 719.7279,772.1106 722.497,768.8725 724.9136,764.7593 726.9513,759.7843 728.5835,753.9606 729.7678,747.4191 730.5223,740.0511 730.8232,731.9877 730.6755,723.721 730.0917,714.9734 729.0605,705.8197 725.6591,686.4148 720.6365,666.3832 714.7649,648.2315 707.5314,630.0658 699.3048,612.8389 690.449,597.2098 680.3895,582.2349 669.8419,568.9543 659.0961,557.6364 647.2333,547.3179 639.5403,541.6435 632.0152,536.8719 624.2929,532.7768 616.4459,529.3287 608.6667,526.6065 600.6955,524.5657 592.511,523.2428 584.7116,522.7457 576.5763,523.1178 568.8974,524.3178 562.578,526.2341 557.0471,528.9278 552.5239,532.3872 549.125,536.625 547.352,540.837 546.5698,546.3968 546.9354,550.9982 547.8736,555.7927 549.9834,562.6971 552.3128,568.7832 556.4119,578.3358 563.1192,592.1615 574.7063,614.5946 592.0996,646.2781 611.9924,680.8323 630.54,711.091 647.3097,736.1888 658.9439,752.3794 670.2375,766.561 681.75,779.375 691.7005,788.8183 696.6459,792.8152 701.2214,796.0495 705.7079,798.7354 709.7887,800.7022 713.861,802.1319 717.7059,802.8907 721.4135,803.0023 724.6094,802.5312 728.6259,801.0326 732.3179,798.5043 735.5343,795.0431 738.3819,790.5601 740.8628,785.0587 742.9398,778.5831 744.5756,771.1771 745.7331,762.8848 746.3547,754.2511 746.4946,744.8743 746.1479,734.7163 745.3119,724.0091 743.9897,712.8526 742.2546,701.7486 740.0718,690.4094 737.4416,678.9033 731.2879,656.8954 723.7756,635.2825 715.3657,615.2857 705.6082,595.8716 700.3373,586.6248 694.8972,577.8471 689.3134,569.5667 683.6119,561.812 677.6901,554.459 671.5145,547.4516 665.0427,540.7395 658.5788,534.6378 649.9223,527.3488 641.3839,521.0946 632.1281,515.2783 622.6403,510.2548 613.8716,506.447 604.875,503.375 594.6944,500.8056 584.9895,499.1918 574.5338,498.419 563.6725,498.6356 553.117,499.9211 543.3535,502.0897 533.7512,505.3889 525.9606,509.3212 522.7172,511.663 520.7305,513.5645 519.2703,515.794 518.625,517.75 518.8178,520.5007 519.7167,523.7212 526.3145,537.8236 568.8498,621.7422 595.71,673.3436 614.1501,707.6395 631.8831,739.0083 648.1351,766.5274 663.6062,790.8989 678.3477,812.388 690.8683,829.0271 703.1807,843.5531 714.8223,855.3481 720.6235,860.4185 725.7412,864.357 730.9434,867.7648 735.7125,870.3223 740.3975,872.2574 744.9741,873.5332 749.4179,874.1128 753.7049,873.9592 758.7297,872.7091 763.254,870.3404 767.51,866.7044 771.2619,862.0754 774.8461,856.0108 777.8848,849.1072 780.5222,841.122 782.7233,832.0732 784.3784,822.5085 785.6042,811.7583 786.3505,800.0651 786.6111,787.5459 786.3818,774.3019 785.6851,760.8271 784.5175,746.8559 782.8751,732.4813 780.8882,718.6422 778.4344,704.3965 775.5828,690.1637 772.2449,675.5341 768.6089,661.3312 764.6108,647.2519 760.2671,633.3677 755.5946,619.7506 750.7446,606.8168 745.6139,594.2705 740.2004,582.126 734.5214,570.3513 728.4626,558.7245 722.226,547.6489 715.6318,536.8206 708.8966,526.6114 698.4774,512.3595 687.875,499.625 676.1561,487.3635 664.1739,476.5146 652.0041,467.0771 639.4441,458.8606 626.4538,451.8496 612.7031,445.8272 601.7746,442.0124 590.6488,438.999 579.75,436.875 567.2004,435.2779 553.883,434.454 539.989,434.5311 525.3277,435.39 501.0339,437.6484 486.8387,438.1671 480.4911,437.61 475.0441,436.4457 470.0137,434.504 464.9901,431.7193 460.5103,428.2785 455.1637,423.1404 450.6107,417.9261 444.8289,410.4841 432.3496,392.2766 407.7615,354.4666 393.8136,334.1159 379.1813,314.3306 367.3715,300.051 359.8799,292.0527 353.2161,285.6608 347.1316,280.6375 340.959,276.4461 335.6562,273.6406 330.6226,271.9383 326.1264,271.5121 321.8731,272.2846 318.6719,273.8594 316.078,276.0479 313.7738,279.0078 311.8562,282.5977 310.2048,287.0934 309.0205,291.9197 308.145,297.7443 307.705,303.7707 307.6398,310.3726 307.9709,317.2364 309.8407,332.3192 313.5488,350.0649 318.0502,365.6672 323.716,381.0364 330.7027,396.7054 337.776,409.9477 346.0428,423.0284 355.0943,435.2931 364.1489,445.596 374.5733,455.4477 385.0103,463.5077 392.6244,468.2531 400.7994,472.4533 407.4532,475.1581 414.51,477.176 422.439,478.5542 429.4111,478.8974 436.8048,478.1805 442.2674,476.668 447.3592,474.05 450.8952,471.123 453.75,467.25 455.5045,462.7168 456.1374,458.0254 455.8779,451.28 454.4522,444.2329 452.2523,436.6644 446.9307,423.3502 439.7689,408.3755 428.9971,387.8548 422.4619,376.0579 408.9629,353.2719 395.9355,332.789 385.5998,317.4448 373.8803,301.4098 364.9131,290.2602 355.8853,280.1915 347.6737,272.1019 340.3322,266.0335 332.8714,261.2375 326.3983,258.4118 323.2994,257.6184 320.3084,257.2765 317.75,257.375 315.1028,257.9271 311.7458,259.4481 308.7267,261.8666 306.057,265.1999 303.9427,269.0381 302.1124,273.753 300.652,279.3524 299.6191,285.6992 299.0234,292.7407 298.8745,300.424 299.1651,308.4242 299.8838,316.7291 301.0283,325.3828 304.7086,344.2441 309.9212,363.383 315.9353,380.4073 323.3231,397.56 331.6561,413.9429 340.4838,428.4794 350.2617,442.0464 360.4879,454.046 371.1406,464.2812 382.7555,473.445 389.8031,478.1863 397.1862,482.3415 404.6199,485.7649 412.4516,488.6454 419.662,490.5812 427.1078,491.8462 434.6044,492.4491 441.0878,492.1819 448.4358,490.9462 453.588,489.355 458.815,486.6231 462.7503,483.4596 465.625,479.75 467.7852,474.9122 468.4743,470.4672 468.3472,464.7799 467.5178,459.9974 466.0581,454.3792 461.4404,441.9185 453.3957,424.3692 441.5318,401.2515 426.703,374.6441 407.8935,342.745 391.4814,316.7332 378.0313,297.1846 366.3982,281.4848 356.24,269.0267 345.7361,257.6579 336.3129,249.0185 327.8328,242.8761 323.549,240.4475 319.3978,238.5892 315.75,237.4375 312.2319,236.8372 308.8531,236.8266 305.6232,237.4438 301.9626,239.0577 298.5144,241.7215 295.4533,245.4011 292.7981,250.1103 290.5675,255.8633 288.8637,262.2906 287.6455,269.4688 286.9089,277.4109 286.6502,286.0525 286.8857,295.7459 287.633,306.0574 288.8811,316.8003 290.5472,327.2129 292.6773,337.8454 295.247,348.6217 298.3422,359.8394 305.1039,380.3526 312.7749,399.1811 322.1139,418.2177 332.6265,436.2969 337.6733,443.9168 343.082,451.3864 348.8329,458.6427 354.6538,465.3532 360.7487,471.7667 366.9713,477.7223 373.0149,482.9462 379.3176,487.8382 387.068,493.1352 395.2186,497.9153 403.0374,501.7842 411.3258,505.1222 420.2143,507.9 429.215,509.9589 436.9774,511.0048 445.1485,511.3479 453.7465,510.9849 461.4087,509.7803 469.3376,507.5521 475.8989,504.6121 481.4156,500.9031 484.6241,497.4005 486.0459,495.0523 486.8642,493.0192 487.4688,490.3438 487.6489,487.9268 487.0728,482.2611 485.6944,477.2222 483.9929,472.4153 479.5553,462.1731 463.5607,430.2637 437.8603,382.1194 415.6516,342.5095 394.7364,307.1594 374.7044,276.2243 358.6786,253.5931 344.5329,235.9311 332.1298,222.402 326.4273,216.9973 320.8792,212.333 315.3565,208.3201 310.2896,205.2449 305.3371,202.8844 300.5281,201.3047 295.8916,200.5719 291.7662,200.7074 287.9655,201.6368 284.2731,203.4552 280.848,206.1525 277.7091,209.7352 275.2611,213.5156 273.0495,217.9552 271.0863,223.0579 269.3836,228.8278 268.0138,235.0083 266.9317,241.8762 265.7279,256.837 265.7507,274.4304 267.031,293.2625 269.3918,312.1542 272.9837,331.9403 277.5129,351.2742 283.0129,370.5744 289.4588,389.6795 296.4131,407.2902 304.3696,424.7248 313.0931,441.4028 322.6599,457.4024 332.4098,471.6193 341.4803,483.15 350.9486,493.7335 360.7066,503.3108 371.0658,512.1769 381.3605,519.7036 391.7874,526.1103 402.8357,531.7271 414.151,536.3798 423.618,539.4031 433.328,541.7083 443.7052,543.3978 453.7868,544.3289 464.9213,544.4074 477.4696,543.5886 487.7225,542.1611 508.7396,538.4269 514.9142,537.8226 518.7583,537.9752 522.0804,538.8506 524.5922,540.0474 527.2696,542.1411 529.5923,544.5292 533.3353,549.2664 539.7326,559.36 554.3115,585.5574 588.8147,649.2659 606.2571,680.3999 616.2979,697.6161 631.0219,722.1243 639.9095,736.319 651.0341,753.1778 662.6072,769.7838 673.5084,784.2188 683.9562,796.7584 694.3264,807.8255 703.4633,816.1477 712.1695,822.5191 716.2827,824.92 720.3235,826.8431 724.2762,828.2557 727.833,829.0782 731.3016,829.4062 734.7162,829.201 738.9499,828.0983 742.625,826.2188 746.3222,823.2218 749.4442,819.5441 752.2597,814.9682 754.6882,809.6126 756.8425,803.1892 758.63,795.8875 760.0295,787.7633 760.9855,779.2743 761.5647,769.7025 761.6973,759.9309 761.4222,750.0872 760.702,739.1348 758.0515,716.271 753.9656,693.1307 748.6264,670.3851 741.8875,647.5508 734.027,625.4522 725.1606,604.358 715.583,584.9384 705.1705,566.956 693.794,550.0841 684.4399,538.0113 674.9393,527.2192 665.3647,517.7208 654.728,508.5403 643.8866,500.4463 632.9898,493.5632 622.405,488.0611 610.8036,483.2256 600.7812,479.8906 590.9743,477.4184 581.2608,475.7578 570.6106,474.6825 558.9022,474.3575 546.6485,474.9658 535.3305,476.2515 515.3885,479.3639 506.8683,480.0228 502.917,479.739 499.3504,478.8888 496.1822,477.4407 492.952,475.242 489.3366,471.6885 485.8793,467.3776 481.3081,460.6028 474.5416,449.3749 428.2506,366.3274 408.9231,333.0075 394.7488,309.6827 383.609,292.1295 373.6688,277.3351 362.1382,261.2416 351.8324,247.9204 340.6966,235.0483 329.2365,223.6407 319.4554,215.7052 314.796,212.671 310.4881,210.3759 306.1241,208.6156 301.8731,207.5078 297.7771,207.0935 294.2076,207.3469 290.4719,208.3498 287.2683,209.9474 284.2658,212.2242 281.5864,215.0756 279.1016,218.6485 276.8722,222.8941 274.9071,227.7949 273.2149,233.3332 271.8046,239.4916 270.6848,246.2524 269.375,261.0 269.2922,276.7546 270.3954,293.8881 272.7086,312.4804 276.0985,331.435 280.3544,349.8919 285.6097,368.363 291.8669,386.8603 299.0566,405.1183 306.6424,421.9003 314.5762,437.1699 323.3935,451.9748 333.0106,466.1032 342.0102,477.7579 350.9997,488.0511 360.5426,497.5504 370.3479,505.9993 380.8506,513.7874 391.9389,520.766 402.8113,526.3402 413.9129,530.8513 424.629,534.208 434.6652,536.4963 444.9338,537.9614 455.6876,538.6367 466.7428,538.3544 480.0711,536.9005 494.0243,534.1839 506.7303,531.1164 512.7715,530.187 515.4642,530.1603 518.1562,530.75 520.0,531.625 522.6367,533.6289 526.5439,538.2758 530.1196,543.8098 535.3563,553.0675 582.8446,642.4742 602.8385,679.1066 618.7279,707.1918 629.7342,726.0536 641.0026,744.4999 653.0637,763.3355 663.2987,778.4746 675.3022,794.959 686.7154,809.2469 697.0546,820.8343 707.162,830.5556 716.869,838.1506 721.487,841.0657 725.7403,843.2909 729.777,844.9398 733.5452,845.9841 737.5918,846.5139 741.1613,846.4192 745.9486,845.3395 750.1354,843.3203 754.0325,840.2936 757.6004,836.2316 760.6921,831.3076 763.4316,825.364 765.8048,818.4297 767.711,810.912 769.3014,802.1717 770.4577,792.5761 771.1365,782.6396 771.3772,772.0026 771.1695,760.7884 770.5112,748.8778 769.4053,736.4891 767.855,723.7146 763.6655,698.5543 758.0863,673.7547 750.8555,648.2845 742.2717,623.2758 732.9914,600.4964 727.9135,589.48 722.772,579.2142 717.1913,568.9715 711.4156,559.1726 705.5021,549.8812 699.2461,540.7892 689.6768,528.2056 679.7219,516.6575 669.6562,506.454 658.4409,496.5547 647.1025,487.922 635.7031,480.5688 624.3127,474.4921 612.268,469.318 602.0586,465.7853 592.0005,463.0714 582.1287,461.1429 570.9989,459.7524 558.2686,459.0139 545.4798,459.2022 532.2929,460.1439 509.2633,462.71 499.9179,463.0714 494.549,462.6436 491.1161,461.8107 485.593,459.4217 481.8539,457.0047 478.0046,453.6384 475.1327,450.4819 469.6947,443.4177 465.7837,437.7134 458.786,426.7393 425.6154,370.3522 403.0997,333.5962 382.8575,302.9022 372.1817,288.1472 363.0815,276.2851 354.4381,265.9914 345.9362,257.0053 337.7479,249.3579 330.2584,243.4885 323.341,239.2892 316.5915,236.5549 310.6308,235.553 307.8107,235.67 305.4383,236.1297 301.5919,237.7299 298.1598,240.3008 295.1422,243.7974 292.5093,248.2448 290.2818,253.6387 288.4801,259.9752 287.125,267.25 286.3338,274.4959 285.9525,283.0811 286.0625,292.3281 286.6563,302.1579 287.779,312.9141 289.3571,323.8094 291.2296,333.9423 293.6065,344.5617 296.3998,355.2437 302.8639,375.8077 310.4375,395.5278 319.0435,413.9458 328.7043,431.2874 339.2035,447.2593 344.6705,454.5571 350.2247,461.3458 356.3433,468.182 362.4807,474.4356 368.846,480.3432 375.304,485.7641 382.9365,491.3879 391.0761,496.5406 399.5873,501.1028 408.354,505.0061 416.4561,507.8541 425.1389,510.1328 434.2275,511.7472 442.4348,512.4282 451.5671,512.293 459.7103,511.3803 468.8214,509.2165 475.3189,506.7044 481.0488,503.2598 485.25,499.375 486.8797,497.0168 487.9053,494.9289 488.9415,489.7346 488.4375,484.3906 487.3185,479.7529 485.3449,474.2513 480.4943,462.9101 465.4099,432.8738 439.0677,383.5781 417.0266,344.1399 394.8288,306.4953 374.5531,274.8784 358.5565,252.0978 344.4646,234.2739 332.2478,220.7776 326.3586,215.1304 320.9002,210.4867 315.093,206.169 309.7564,202.8302 304.5481,200.2651 299.8237,198.6446 295.2508,197.8423 291.1571,197.8907 287.3108,198.7271 283.474,200.4749 279.9215,203.1191 276.8906,206.3906 274.1303,210.4606 271.833,214.9368 269.7864,220.1133 268.0,226.0 266.615,232.0441 265.4649,238.965 264.12,254.0879 264.0049,271.4965 265.1532,290.1067 267.5229,309.5688 271.1165,329.7516 275.7587,349.8803 281.3152,369.6054 287.7348,388.8167 295.0159,407.4102 303.181,425.4274 312.1462,442.6584 321.6266,458.5818 331.5736,473.1225 340.5604,484.5863 350.1795,495.3905 360.0754,505.1464 370.4869,514.0985 380.6347,521.5851 391.2576,528.2026 402.1968,533.8419 413.3841,538.4858 422.9061,541.5885 432.6452,543.9914 443.0808,545.7722 453.4146,546.7949 464.7849,547.021 477.1964,546.3469 486.5389,545.1618 505.9371,541.9188 515.3086,540.8776 519.6116,541.055 522.375,541.625 525.915,543.1509 528.9299,545.404 532.2135,548.6548 535.8912,553.4281 543.6118,565.5063 552.2361,580.7115 594.5881,657.7466 621.6656,704.6287 644.2402,740.5318 660.554,764.1666 671.7597,778.9451 681.74,791.004 691.3138,801.2137 700.6267,809.7227 709.3925,816.2582 717.1468,820.4957 720.9254,821.921 724.6123,822.8564 728.188,823.281 731.6329,823.1741 735.5666,822.3151 739.4719,820.4904 742.8957,817.8294 745.8685,814.4809 748.7543,810.0186 751.1627,805.0188 753.3826,798.8351 755.1067,792.2589 756.4568,784.9469 757.4057,777.0341 758.0031,768.1356 758.2011,758.9629 757.4592,739.0965 755.2152,718.051 751.4798,696.1011 746.468,673.9254 740.3197,652.1312 733.2737,631.5666 724.9427,611.3305 715.6117,591.9388 705.603,574.0081 694.8351,557.4437 685.8882,545.5435 676.1621,534.143 666.3886,524.0872 656.0996,514.8789 645.9214,507.0598 634.7711,499.8171 623.7401,493.8663 612.197,488.872 602.5301,485.6099 592.0944,482.9077 582.0395,481.1069 572.0786,480.1425 559.7822,479.9339 547.774,480.6818 535.3687,482.3175 515.3092,485.996 508.6854,486.6427 505.5028,486.4281 502.2179,485.6381 499.716,484.479 496.9055,482.5011 491.5799,476.2149 487.2803,469.8501 481.3611,459.9131 439.5211,382.9437 419.7289,347.5885 401.3025,315.7567 391.8052,300.0686 380.5714,282.3045 371.0674,267.9624 362.0304,255.0453 350.6021,239.8163 340.0057,226.9665 330.2665,216.5135 320.821,207.8673 311.8902,201.2277 307.5156,198.625 303.5475,196.6973 299.6579,195.2606 295.8577,194.3489 292.4622,194.0038 289.0153,194.1757 284.741,195.2564 281.0225,197.1425 277.565,199.8924 274.3876,203.5196 271.5096,208.0375 269.1353,213.0101 266.9505,219.0767 265.143,225.9428 263.72,233.5964 262.6865,241.9875 262.0478,251.0664 261.8091,260.783 261.9754,271.0877 262.552,281.9304 264.8051,303.5455 268.5001,325.6875 273.6542,348.6712 280.1037,371.6538 287.4066,393.1607 295.797,413.8892 305.3826,434.0856 315.8723,453.0658 326.8069,470.0609 335.9797,482.4405 345.5608,493.8328 355.7192,504.4194 366.1347,513.8554 376.8369,522.1605 387.6662,529.2624 399.1059,535.4989 411.1415,540.8027 420.9577,544.1906 431.0209,546.8281 441.8107,548.8282 452.5289,550.0391 463.808,550.3356 478.0866,549.7152 488.9076,548.4514 508.0,545.5 516.5698,544.7264 520.8064,544.9641 524.2159,545.6303 528.0093,547.2846 530.9363,549.2349 535.0,553.1944 538.9682,558.297 542.09,562.7945 548.1539,572.603 557.7095,589.2245 596.0146,658.0688 613.4154,688.1027 630.8638,716.938 640.7861,732.3683 651.7687,748.4722 661.7638,762.3901 670.9418,774.1795 682.8097,787.9092 693.8455,799.047 698.7524,803.286 703.6317,806.9904 708.4479,810.1147 712.8548,812.467 717.4484,814.3404 721.5858,815.4458 725.439,815.8616 728.8945,815.627 732.539,814.668 735.6811,813.148 738.9168,810.7503 741.6291,807.8997 744.096,804.3996 746.2186,800.3989 748.143,795.6522 749.8213,790.2608 751.2382,784.2585 752.3781,777.679 753.7653,762.9234 753.8899,747.2348 752.81,730.1965 750.5334,711.821 747.1035,692.6959 742.7613,674.0124 737.4559,655.4214 731.2484,637.0507 724.2527,619.2727 716.8669,602.9942 708.9247,587.7637 699.825,572.4939 690.1455,558.2597 681.3282,546.8764 672.1229,536.4598 662.032,526.576 651.5685,517.667 641.2919,510.169 630.9686,503.8519 619.4601,498.1384 608.1394,493.6417 598.1572,490.6147 588.1947,488.4876 577.7759,487.0853 567.6593,486.5751 555.1828,487.0571 544.4174,488.284 533.8917,490.3158 517.0023,494.5708 512.1664,495.4299 509.7549,495.5041 506.8232,495.168 504.7128,494.3085 502.9489,493.0638 500.5551,490.6026 497.2368,486.0345 488.17,470.2978 436.6743,372.6395 409.6617,323.5987 393.2445,295.2484 382.4641,277.3312 369.9465,257.7541 358.3915,240.6711 346.5619,224.4971 334.9257,210.164 323.6372,197.7904 313.4649,188.2742 304.2224,181.3374 299.8077,178.7141 295.4907,176.6215 291.2712,175.0742 287.1638,174.106 283.1832,173.7507 279.6868,173.9882 275.0093,175.2671 270.9167,177.4985 267.201,180.678 263.7269,184.9728 260.6089,190.3148 257.8668,196.6788 255.5203,204.0396 253.5892,212.3723 252.0932,221.6516 251.091,231.3461 250.5179,241.946 250.4085,253.0177 250.7638,265.0449 251.5599,277.2386 252.7976,289.8646 254.4738,302.8435 258.9632,328.7231 264.8139,354.0469 272.1171,379.3158 280.7985,404.1858 290.4432,427.477 295.5638,438.4105 300.7522,448.6129 306.3288,458.7277 312.2834,468.6948 318.3869,478.1343 324.8221,487.3339 334.6259,500.0316 344.8027,511.7011 354.8192,521.7739 365.4416,531.0606 376.5646,539.4267 388.0473,546.7617 400.1834,553.2139 412.3021,558.4188 422.0781,561.7643 432.0819,564.4448 442.2015,566.4426 452.5014,567.7566 465.3174,568.4745 479.7137,568.3455 492.0555,567.4757 514.7474,565.0258 525.9167,564.6898 531.3364,565.2477 536.1512,566.4528 540.1388,568.2166 544.2488,570.8594 547.875,574.0 553.3472,579.8981 562.9532,593.1795 572.213,608.0648 607.8861,667.8269 623.1926,692.1384 631.9051,705.4645 641.1857,718.8976 651.4015,732.9741 659.3654,743.1862 668.273,753.6393 676.9296,762.809 684.3943,769.677 691.4875,775.123 698.6688,779.4319 704.9412,781.9728 710.7488,782.9185 713.6875,782.7656 716.1501,782.244 719.785,780.672 723.0922,778.1522 725.8962,774.8352 728.4332,770.4403 730.5736,765.101 732.193,759.2724 733.4784,752.2147 734.2454,744.8087 734.5815,736.2168 734.4402,727.3155 733.8358,717.8765 732.7606,707.9883 731.2784,698.155 729.3207,687.9283 724.1549,667.1794 717.9565,647.8966 710.6785,629.5101 701.6667,610.5057 691.7989,592.9624 682.035,578.4285 670.557,564.1186 664.833,557.8516 659.0875,552.1167 653.3357,546.9216 647.3342,542.0741 639.1635,536.2095 631.2608,531.2765 623.3013,527.0781 615.4878,523.7366 606.854,520.7974 598.4637,518.6883 590.5543,517.4505 581.4175,516.8417 573.1076,517.1455 564.9589,518.4385 558.0547,520.4017 551.8341,523.2016 546.9882,526.5946 543.66,530.378 541.4219,534.7812 540.7598,537.3465 540.4711,540.0068 541.104,546.3129 542.228,550.9338 544.4721,557.4834 548.8485,567.7028 556.2913,583.201 565.8514,601.7052 584.5531,636.5459 603.7422,670.7144 615.6246,691.197 625.3222,707.1587 645.2962,738.4334 654.4342,751.6261 663.9148,764.543 676.143,779.8596 688.2229,792.8826 694.2733,798.5706 700.2412,803.5883 705.4075,807.3261 710.1435,810.1667 715.1368,812.4941 719.6365,813.9279 723.9687,814.6151 728.0981,814.5105 731.894,813.5963 735.4046,811.8566 738.6739,809.2822 741.4548,806.1687 743.987,802.351 746.0722,798.2359 748.0701,793.0783 749.6416,787.6979 750.9719,781.5449 752.0098,774.7753 753.1542,759.9593 753.0857,743.7451 751.8238,726.575 749.2485,707.5829 745.5007,687.9653 740.9203,669.186 735.4821,650.8723 729.2876,633.3286 722.0895,615.8028 714.2225,599.1529 705.6189,583.2585 696.5985,568.7401 686.7467,554.9176 677.6575,543.732 668.4616,533.7687 658.9886,524.8083 649.0258,516.672 638.8359,509.5334 628.2916,503.3554 618.0874,498.5046 606.6038,494.2042 596.6168,491.34 586.6396,489.3369 575.7311,488.1014 564.9948,487.7294 554.2455,488.2743 543.5232,489.6597 530.5452,492.4714 516.646,496.208 511.7734,497.0641 507.3417,496.8481 504.127,494.9714 500.2497,490.6732 494.6512,481.6559 484.1391,462.1764 455.4076,407.0372 427.6314,354.7898 415.7866,333.1768 397.8199,301.7064 384.401,279.0916 369.6725,255.6788 357.3623,237.3138 345.7432,221.3336 331.8683,204.1672 325.3638,196.9452 319.3652,190.8375 313.3733,185.3314 307.6667,180.7059 302.1534,176.8723 296.8624,173.8388 291.6878,171.5676 286.656,170.1207 282.1344,169.5696 277.7798,169.8327 273.9265,170.8412 270.0339,172.7585 266.4935,175.4825 263.2153,179.0597 260.2136,183.4835 257.5023,188.7476 255.0958,194.8456 253.1218,201.3407 251.3471,209.0389 249.993,217.0288 248.9712,225.6556 248.3201,234.7053 248.013,244.6552 248.0785,255.136 249.289,277.0654 251.9265,300.3966 255.8658,324.0677 260.9465,347.199 267.2928,370.5677 274.7026,393.4543 283.0459,415.5117 291.9144,435.7592 301.4892,454.6184 312.0253,472.6399 323.2043,489.2828 332.9809,502.0772 342.7959,513.4362 353.2958,524.0709 364.0719,533.5647 375.5834,542.3112 387.6495,550.1042 399.2658,556.3541 411.5998,561.6867 421.6796,565.1396 431.9397,567.9055 442.269,569.9929 452.98,571.4048 465.9987,572.183 480.4669,572.0726 494.2302,571.1574 516.8652,568.7974 527.3943,568.456 533.1748,569.0552 538.5509,570.364 542.589,572.1245 547.0333,574.9381 551.1085,578.4595 555.9257,583.6306 565.7091,596.9022 576.2006,613.3251 611.5124,671.5816 624.2491,691.5453 633.2465,705.1687 640.8326,716.0267 650.3704,728.8963 658.8817,739.6937 667.3093,749.4146 675.5424,757.96 682.7719,764.6009 689.6974,769.8729 696.447,773.8531 702.8683,776.3894 708.3897,777.2572 710.9861,777.1111 713.4807,776.5804 717.1549,774.9594 720.1869,772.6391 722.875,769.5 725.1999,765.5331 727.3073,760.3815 728.9118,754.7051 730.1127,748.2784 730.8745,741.1527 731.1669,733.2835 731.0022,724.4085 730.4002,715.304 729.3508,705.7436 727.9111,696.2317 726.0368,686.4843 721.0755,666.7619 715.1167,648.2877 707.9925,630.3044 699.6762,612.9228 690.5044,596.6763 680.9297,582.3322 670.3354,569.0532 659.0043,557.0351 653.3376,551.8094 647.4246,546.9071 639.8501,541.3925 632.0344,536.4138 624.4983,532.3242 616.9189,528.9628 608.1525,525.9433 599.5818,523.7619 591.9933,522.593 583.8846,522.155 575.8122,522.5445 568.2638,523.8418 561.804,525.82 555.9948,528.6947 551.5,532.25 548.566,536.048 546.6328,540.5566 546.0019,545.9644 546.3158,550.4338 547.4082,555.9019 551.4984,567.6365 558.937,584.2306 569.3786,604.8363 579.2869,623.4695 594.0622,650.2533 611.814,680.9526 634.0,716.75 646.5351,735.5637 660.1528,754.3822 670.7735,767.8515 681.5721,779.9299 692.125,790.0 696.7114,793.7298 701.2667,796.9553 705.7598,799.6353 710.1597,801.7282 714.4352,803.1926 718.2446,803.9507 722.0018,804.0982 725.2449,803.6208 729.512,801.9418 733.1532,799.3161 736.4481,795.6525 739.3608,790.9399 741.7916,785.3423 743.7853,778.7725 745.334,771.2497 746.4152,762.8487 747.0059,753.6443 747.0911,744.1574 746.6867,734.0696 745.7598,723.0702 744.3364,711.5186 742.4916,699.9826 740.1911,688.2191 737.4379,676.3391 731.3629,655.033 723.5763,633.0392 714.8982,612.6906 710.1805,603.0009 705.2343,593.7124 699.8986,584.5641 694.4122,575.8985 688.5802,567.4163 682.6422,559.4829 676.6206,552.1067 670.3033,545.0457 664.1879,538.8367 657.3459,532.5224 648.7324,525.4284 639.9555,519.1367 631.0688,513.691 621.9813,509.0302 612.7006,505.0853 603.2253,501.9006 594.0,499.625 584.0415,498.0349 573.2382,497.3271 562.0463,497.7088 552.3484,498.9188 542.0996,501.2527 532.8657,504.3997 524.0277,508.7127 520.875,510.9219 518.8579,512.7977 517.505,514.674 517.125,516.25 517.153,518.55 517.867,520.981 518.9093,523.7212 523.0672,532.2555 573.6484,632.5428 605.3469,693.2641 624.6822,728.7567 643.0274,760.6905 659.2512,787.2957 674.8365,810.9081 689.801,831.5876 702.7904,847.4763 709.2477,854.5205 715.7155,860.9609 721.8879,866.4849 728.0003,871.2958 733.5,875.0 738.8543,877.9236 744.1188,880.0321 748.8975,881.2203 753.5433,881.6294 758.0295,881.223 762.3294,879.9641 766.4162,877.8162 770.5485,874.4667 774.319,870.0611 777.8469,864.3428 780.8814,857.7451 783.5474,850.1005 785.8218,841.4474 787.6818,831.8242 789.1044,821.2691 790.0359,810.3149 790.5294,798.3397 790.5598,785.73 790.1387,772.4659 789.2649,758.6434 787.9373,744.3583 786.2075,730.096 784.0452,715.5747 778.7677,687.7074 772.1071,660.3698 763.9243,632.8405 754.4081,605.9749 744.2574,581.5761 738.7709,569.8422 733.2391,558.9073 727.3788,548.1957 721.0956,537.5426 714.6814,527.4609 707.9299,517.634 697.1681,503.4729 686.2574,490.8224 675.051,479.4665 663.3164,469.1753 650.8937,459.7795 638.0664,451.5778 624.9475,444.664 611.6853,439.0966 600.0664,435.2236 588.6747,432.2577 577.2076,430.0839 565.125,428.625 551.2993,427.8642 537.4065,427.9878 521.7657,428.9969 494.1924,431.5334 482.875,431.875 476.7809,431.3782 470.6878,430.1103 465.8201,428.4554 461.1603,426.0031 456.4881,422.7714 452.0544,418.8934 446.6684,413.2396 442.0622,407.6308 432.0754,394.0108 403.2497,351.3749 394.1934,338.4479 379.0941,318.4517 365.8873,303.197 359.8622,297.0609 354.351,292.1374 348.0384,287.2069 342.613,283.7286 337.9692,281.5482 333.4762,280.3164 329.2604,280.0963 325.7354,280.8437 323.1403,282.1265 320.5371,284.2757 318.4027,287.0314 316.6197,290.4683 315.1819,294.5805 314.0001,299.8296 313.2665,305.4467 312.965,311.2593 313.5066,324.1778 315.6226,339.0011 319.134,354.1202 324.0994,369.9665 329.358,383.492 335.7704,397.0879 343.6092,411.1275 351.0961,422.4808 359.9173,433.6043 369.7587,444.1405 378.7415,452.0229 388.4192,458.9227 394.9379,462.7545 402.0437,466.0443 410.25,468.875 416.3603,470.2416 423.0624,470.8701 429.3426,470.6297 434.7152,469.3831 439.8566,467.1736 443.287,464.5602 446.1164,461.1463 447.9666,457.2794 448.9389,452.7114 449.0463,447.375 448.1513,440.891 446.5027,433.8219 444.1045,426.6271 440.2416,416.8159 434.0178,403.5244 425.2267,386.6066 418.5079,374.5716 406.1945,353.9146 394.8257,336.2895 385.0123,321.9518 374.3835,307.7472 366.1963,297.8179 358.1377,289.1136 350.4564,281.7433 343.4404,276.0872 336.9115,271.9966 330.7129,269.3502 327.936,268.6783 325.2587,268.4103 322.6884,268.573 320.3992,269.1209 317.3329,270.5614 314.5653,272.7903 312.1146,275.8316 309.9986,279.7093 308.2795,284.3339 307.0432,289.396 306.1963,295.0782 305.723,301.757 305.6792,308.6111 306.0549,316.3491 308.0338,332.1583 311.674,349.3707 316.7121,366.7113 322.6187,382.4896 329.8396,398.3892 337.6779,412.9334 346.2247,426.2826 355.8587,439.045 364.8388,449.0356 375.2244,458.541 386.4038,466.964 393.7008,471.3804 401.7063,475.3154 409.1966,478.2479 416.6673,480.2868 424.8754,481.591 431.9352,481.9028 438.991,481.1229 444.7861,479.4673 449.7551,476.8403 453.8501,473.4592 456.3851,470.0139 458.2041,465.1116 458.8705,460.4056 458.4665,453.5149 457.2819,447.7776 454.7949,439.4395 449.5422,426.1666 443.2178,412.737 433.6699,394.3306 423.458,375.8592 410.3281,353.5358 395.8581,330.6592 386.0309,316.0631 373.0197,298.1733 364.328,287.2931 354.7292,276.4464 346.875,268.5972 339.5625,262.4716 331.659,257.2898 324.5666,254.0939 321.5234,253.2969 318.5841,252.9448 315.6941,253.0785 313.0623,253.6714 309.403,255.4111 306.3729,257.9222 303.6739,261.331 301.3265,265.6579 299.4618,270.6293 298.0444,276.3017 297.0485,282.687 296.4498,290.1537 296.3109,298.3176 296.6097,306.7755 297.3342,315.1252 298.551,324.1907 300.2822,333.9391 302.4519,343.9322 307.9628,364.2235 314.0696,381.5516 321.5583,398.9445 330.0478,415.5737 339.1471,430.4726 349.2017,444.3688 360.1043,457.1519 370.9799,467.6267 376.9515,472.5675 383.1056,477.1607 390.4825,482.0429 397.5868,485.9929 405.0972,489.4342 413.125,492.375 420.7898,494.4652 428.3291,495.7948 435.5598,496.3908 442.5612,496.2183 449.7651,495.2125 455.4609,493.6983 461.2244,491.0508 465.6342,487.9633 468.8086,484.4062 471.1341,479.9705 472.1331,475.5734 472.2413,469.7829 471.4279,464.5899 470.1765,459.5792 464.9542,445.5636 457.266,428.992 437.6876,391.635 419.5098,359.4524 404.1775,334.0065 391.5899,314.1257 376.2323,291.4994 364.77,276.0359 353.281,261.966 343.3741,251.2786 334.0744,242.8248 324.9909,236.1867 320.7364,233.756 316.8977,232.0197 313.1573,230.8155 309.3787,230.1732 305.7609,230.177 302.6745,230.7481 298.8254,232.3787 295.3002,235.042 292.1204,238.7812 289.2547,243.7518 287.0461,249.309 285.2106,256.096 283.9266,263.4257 283.0698,271.9873 282.7203,281.3909 282.8727,291.1607 283.5391,301.2948 284.712,311.891 286.371,322.8538 288.5768,334.4788 291.2583,346.288 294.2984,357.8136 300.8832,378.358 308.8626,398.6116 318.2087,418.4269 322.8944,427.1249 327.8012,435.4425 333.2949,443.9648 339.1474,452.274 345.3203,460.3052 351.5412,467.7361 357.5044,474.2577 363.6235,480.3079 370.0434,486.0352 376.7131,491.3851 385.2562,497.4368 393.7108,502.5953 402.0505,506.8334 410.7435,510.4396 420.5607,513.6598 428.6795,515.6194 437.422,516.9101 446.8162,517.5137 455.4672,517.2618 464.9338,515.9348 473.1898,513.9254 480.7671,511.097 486.75,507.625 491.3274,503.6544 493.5473,499.8161 494.5715,494.9831 493.8021,489.2203 491.8365,482.9777 483.3472,464.5231 453.7353,407.2491 435.2425,372.696 412.2883,331.4423 393.0201,298.5917 375.0012,269.876 358.3944,245.5259 345.1971,228.1137 332.0341,212.7298 326.0271,206.4641 320.3013,201.0296 314.878,196.4381 309.7724,192.6795 304.619,189.5102 299.5753,187.0507 294.6552,185.3446 290.2509,184.4914 286.004,184.3806 281.9395,185.0605 278.0823,186.5794 274.5519,188.9086 271.1424,192.2535 268.2042,196.2575 265.5549,201.0717 263.209,206.6861 261.1813,213.0902 259.4863,220.2739 258.1388,228.227 257.166,236.7978 256.5874,245.7509 256.3787,255.2769 257.0606,275.8087 259.1915,297.9164 262.7511,321.1229 267.3137,343.029 273.163,365.2251 280.1114,387.0569 288.1651,408.5272 296.783,428.272 306.0074,446.4905 316.1882,463.9192 327.2296,480.306 336.6713,492.5737 346.196,503.4924 356.3158,513.6443 366.6926,522.7039 377.7828,531.0595 389.3865,538.4974 400.5236,544.3975 411.9798,549.2757 421.8872,552.6292 432.3148,555.3985 442.1082,557.261 452.0144,558.4199 465.1922,559.0052 478.7235,558.6815 490.3204,557.7018 513.9986,554.8229 519.7304,554.4853 524.9391,554.8535 528.9584,555.6665 533.5156,557.4375 536.8159,559.4989 540.625,562.8125 543.6016,565.9746 548.9213,572.9861 553.7561,580.2238 566.1193,600.8551 587.0705,637.6704 602.9,664.7839 624.0381,699.6091 632.9281,713.4787 643.2822,728.8031 652.4384,741.807 661.0129,753.2092 670.7986,765.2049 679.9538,775.3394 688.2444,783.3095 696.4505,789.9253 704.1191,794.783 711.0551,797.749 714.5231,798.5787 717.5173,798.8954 720.4121,798.8038 723.1926,798.2923 727.1156,796.7121 730.7227,794.0961 733.9268,790.4477 736.6235,786.0318 739.0995,780.3398 741.0167,774.0812 742.4881,766.9874 743.4604,759.2048 743.9936,750.1354 744.0374,740.28 743.5994,730.1432 742.6735,719.4925 741.3056,708.8499 739.5362,698.3488 737.1292,686.6655 734.3208,674.9579 728.0576,653.3147 720.7183,632.8624 712.008,612.959 702.2812,594.2188 697.1293,585.4637 691.812,577.166 686.5542,569.6409 680.8296,562.1373 674.7635,554.811 668.4038,547.7689 662.035,541.339 655.679,535.5176 647.5231,528.8929 638.6167,522.6199 629.7871,517.259 620.9312,512.7435 612.4324,509.2364 602.9088,506.1964 593.557,504.0394 584.2358,502.7166 574.0351,502.1332 564.5196,502.4425 553.9999,503.8929 545.6889,506.0168 536.7451,509.452 533.1543,511.3563 530.0577,513.4447 527.5649,515.5346 525.75,517.625 524.607,519.794 523.8935,522.4722 523.9739,526.1301 525.039,530.4086 527.145,535.769 530.6527,543.3465 541.4512,564.9419 572.4629,624.8921 594.5072,666.2599 616.6681,706.5077 631.4338,731.9675 650.5292,763.1429 666.5978,787.2063 681.5567,807.5395 694.1492,822.8342 700.4183,829.617 706.4233,835.5505 712.404,840.8671 718.0608,845.2986 723.375,848.875 728.4585,851.6635 733.4451,853.6966 738.3025,854.9301 742.9984,855.3199 747.1619,854.8926 751.1349,853.674 754.8921,851.6295 758.6527,848.4792 762.014,844.4342 765.0832,839.4113 767.8337,833.4376 770.2384,826.5399 772.1783,819.1556 773.8316,810.5333 775.0091,801.5592 775.7854,791.7514 776.1537,781.075 776.1115,769.7298 775.6518,757.8033 773.5449,733.3443 769.8636,708.0753 764.8189,683.3702 758.2442,657.9165 750.5488,633.29 741.8889,609.9212 732.7155,588.8456 722.3593,568.5167 710.9432,549.2016 698.8261,531.5343 689.0258,519.0634 679.0808,507.9032 668.3836,497.3476 657.1655,487.6935 646.0957,479.4954 634.941,472.4945 623.0409,466.3394 610.8874,461.2347 600.7427,457.8364 590.7267,455.2299 580.3398,453.2782 569.6435,451.9537 556.5565,451.2209 542.1101,451.4197 529.2462,452.2233 505.1267,454.6285 496.4688,454.8906 489.9627,454.3186 486.1098,453.4612 480.9199,451.3423 476.8285,448.8476 472.9785,445.637 469.2984,441.9635 459.847,429.8701 450.5701,415.7393 416.0463,358.8519 398.2535,330.9121 390.2453,318.9883 380.3428,305.002 372.3338,294.2664 364.9882,285.0588 356.0461,274.6907 348.3704,266.6806 341.2031,260.2008 334.1127,254.8911 327.4844,251.0156 321.4841,248.6912 316.125,247.875 313.2969,248.0466 310.9413,248.5676 307.4765,250.1043 304.3184,252.5441 301.4865,255.9163 299.0,260.25 297.0168,265.2297 295.3678,271.3527 294.2396,277.9314 293.5462,285.225 293.3,293.1922 293.5133,301.7543 294.1718,310.5071 295.3178,320.0111 296.9175,329.8464 298.9544,339.934 304.1104,359.9532 310.1443,378.0744 317.4425,396.0101 325.7052,413.025 334.6933,428.5212 344.8909,443.3766 356.1352,457.268 361.4805,462.9902 367.1414,468.4719 372.7955,473.4275 378.9561,478.3066 386.8243,483.8392 394.3525,488.3515 402.3066,492.3138 410.5346,495.6397 417.8921,497.9852 425.3117,499.623 433.5374,500.6684 441.611,500.9735 448.9051,500.4306 456.14,499.0213 462.3792,496.8349 467.8662,493.841 472.172,490.1272 474.8594,486.3281 476.4945,481.7034 476.9643,476.3307 476.3679,470.8615 475.132,465.7794 471.896,456.4992 466.5227,444.0937 456.5708,423.8409 435.9547,385.5064 414.641,348.1706 400.2437,324.4725 383.4796,298.432 367.5625,275.75 355.4853,260.2384 343.5491,246.7012 333.0926,236.5557 328.1698,232.4832 323.289,228.9767 318.7896,226.2646 314.1611,224.0524 309.6862,222.5651 305.7355,221.8822 301.9446,221.891 298.3285,222.6307 295.1305,224.0135 292.0545,226.1712 289.231,229.0732 286.6774,232.7152 284.4113,237.0926 282.5898,241.7824 281.0418,247.0918 279.7166,253.3847 278.7918,259.8928 278.1672,267.2721 277.9675,283.5762 279.1968,302.0704 281.6913,320.8655 285.4504,339.8575 290.3236,358.7283 296.2486,377.4708 302.8752,395.1245 310.3779,412.1181 319.1034,429.108 328.4086,444.7747 337.8821,458.5798 348.1914,471.4296 355.5978,479.5162 363.2712,487.0329 371.3018,494.0608 379.0399,500.0346 387.3163,505.5939 395.7072,510.4371 404.4137,514.6965 413.135,518.2142 421.9666,520.971 430.9568,523.0262 440.2179,524.4549 449.2328,525.0739 458.3666,524.9251 467.3664,524.0455 476.4921,522.3063 484.4766,519.9855 492.874,516.4197 497.4172,513.7792 500.75,511.375 502.5093,509.4398 503.6891,507.3356 504.2407,505.0556 504.1328,502.5332 502.5288,497.6024 497.9213,487.5694 468.375,429.375"/>
  </g>
</svg>
