<?xml version="1.0" encoding="utf-8" ?>
<svg xmlns="http://www.w3.org/2000/svg" xmlns:cc="http://creativecommons.org/ns" xmlns:dc="http://purl.org/dc/elements/1.1/" xmlns:ev="http://www.w3.org/2001/xml-events" xmlns:inkscape="http://www.inkscape.org/namespaces/inkscape" xmlns:rdf="http://www.w3.org/1999/02/22-rdf-syntax-ns" xmlns:sodipodi="http://sodipodi.sourceforge.net/DTD/sodipodi-0.dtd" xmlns:xlink="http://www.w3.org/1999/xlink" baseProfile="tiny" height="27.09333333cm" version="1.2" viewBox="0 0 1024.0 1024.0" width="27.09333333cm">
  <metadata>
    <rdf:RDF>
      <cc:Work>
        <dc:format>image/svg+xml</dc:format>
        <dc:source>vpype read './original_svgs/Strange Attractors #442.svg' linemerge linesimplify write './Strange Attractors #442.svg'
</dc:source>
        <dc:date>2024-08-05T01:35:59.636451</dc:date>
      </cc:Work>
    </rdf:RDF>
  </metadata>
  <defs/>
  <g fill="none" id="layer1" inkscape:groupmode="layer" inkscape:label="1" stroke="black" stroke-width="0.7mm" style="display:inline">
    <polyline points="427.125,341.5 455.5,358.25 468.5,365.375 477.875,369.75 481.625,371.125 487.5,372.5 491.75,372.5 493.375,372.0 495.625,370.375 496.5,369.25 497.0,368.0 497.5,365.0 497.25,361.5 496.25,357.75 494.375,353.75"/>
    <polyline points="493.0,351.625 489.75,347.375 487.625,345.25 482.5,341.125 476.125,337.25 468.25,333.875 458.875,331.25 453.625,330.375 448.0,329.75 436.0,329.625 429.625,330.125 416.875,332.625 410.5,334.625 404.5,337.0 398.875,339.875 393.875,343.0 389.25,346.5 385.5,350.25 382.375,354.25"/>
    <polyline points="380.125,358.25 378.625,362.375 377.875,366.375 377.875,370.25 378.5,374.125 379.625,377.75 381.375,381.25 386.0,387.75 391.875,393.5 395.0,396.125 401.75,401.0 408.625,405.5 422.25,413.25 440.375,423.0"/>
    <polyline points="443.125,424.375 471.75,439.25 484.875,445.625"/>
    <polyline points="485.75,446.0 493.625,449.125 496.625,449.875 499.75,450.0"/>
    <polyline points="500.0,450.0 503.125,448.875 505.0,447.25 506.25,445.5"/>
    <polyline points="506.5,445.25 509.0,440.875 512.625,432.625"/>
    <polyline points="512.875,431.875 517.0,421.5 522.375,405.25"/>
    <polyline points="522.75,403.75 524.625,397.25 527.0,385.875 527.75,381.625 528.625,372.25 528.625,364.5 528.125,358.875 527.125,352.875 525.375,346.625"/>
    <polyline points="524.125,343.375 520.75,336.625 515.875,329.5 508.875,322.375 504.5,318.875 499.375,315.375 493.5,312.0 486.625,308.875 478.75,306.0 469.75,303.625 459.75,301.75 448.625,300.5 436.375,300.25 423.25,301.0 409.5,302.875 395.5,306.125 381.5,310.75 368.25,316.5 356.125,323.5 345.625,331.375 337.125,339.875 330.875,348.5 326.75,357.125"/>
    <polyline points="324.75,365.25 324.625,372.875 326.0,379.75 328.625,385.875 332.125,391.375 336.25,396.25 340.75,400.5 345.5,404.25 355.25,410.75 382.0,425.75 389.5,430.125 396.25,434.5 405.125,441.0 412.625,447.375"/>
    <polyline points="414.75,449.375 420.625,455.625 426.625,463.875 430.0,470.0 431.75,474.125 433.125,478.25 434.625,484.375 435.375,490.75 435.5,495.0 435.125,501.625"/>
    <polyline points="434.875,504.0 434.25,508.625 432.75,515.75 431.5,520.875 428.25,531.5 425.25,540.125 410.875,577.875"/>
    <polyline points="409.375,582.0 405.125,595.25 402.625,605.0 400.5,615.875 399.875,621.625 399.375,627.875 399.75,641.75 400.875,649.5 402.625,658.0 405.5,667.25 409.75,677.625 415.625,689.125 423.75,702.125 434.625,717.0 449.25,733.875 468.625,753.125 493.875,774.875 526.625,799.25 568.125,825.625 619.25,852.25 679.75,876.0"/>
    <polyline points="746.5,891.875 813.0,893.25 869.875,874.375 907.625,833.75 921.875,775.75 915.125,709.625 894.5,644.75 867.875,587.375 841.125,540.625 817.5,504.875 798.375,479.125 783.5,461.875 772.25,452.0 763.5,447.875 756.5,448.375 750.125,452.75 743.625,459.75 728.375,479.0 719.125,489.75 709.125,500.25 698.375,510.375 687.25,519.5 676.125,527.5 665.375,534.5 655.125,540.25"/>
    <polyline points="645.5,545.0 636.75,548.75 628.75,551.625 621.5,553.75 609.125,556.125 603.875,556.625 599.125,556.75 594.875,556.5 591.125,556.0 584.375,554.375 575.875,551.125 568.875,547.25 553.375,537.125"/>
    <polyline points="551.75,536.0 542.375,530.5 534.25,527.125 527.375,525.75 522.5,526.125 520.875,526.625"/>
    <polyline points="520.0,527.0 516.375,529.25 514.5,531.25 512.5,534.5 511.375,537.5 510.375,542.125 510.125,544.75 510.25,550.5"/>
    <polyline points="510.375,552.125 511.75,558.875 513.5,564.5 516.125,570.625 519.75,577.0 522.75,581.375 528.25,588.125 535.125,594.875 540.375,599.125 546.25,603.0"/>
    <polyline points="549.375,604.875 555.875,608.0 562.625,610.5 566.0,611.375 572.75,612.375 576.125,612.5 579.25,612.25 582.25,611.625 585.125,610.75 587.625,609.5 590.0,607.875 592.125,606.0 593.875,603.875 595.25,601.25 596.375,598.5 597.125,595.5 597.5,592.25 597.5,588.875 596.75,581.75 595.875,578.0 593.375,570.5"/>
    <polyline points="591.75,566.75 588.125,559.375 583.875,552.375 579.375,545.875 572.25,537.0 562.75,527.125 555.875,521.125 547.5,514.625 541.875,510.875 538.25,508.875"/>
    <polyline points="536.625,507.875 527.625,503.875 525.0,503.0 520.25,502.0 518.125,501.75 513.25,502.0 509.875,503.0 508.375,503.75"/>
    <polyline points="507.625,504.125 505.5,505.625 502.375,508.875 499.75,513.125 497.0,519.625 495.5,524.875 495.0,527.75"/>
    <polyline points="494.75,529.25 493.875,537.75 493.875,543.5 494.75,552.125 496.125,559.375 498.5,567.375 500.75,573.125 505.375,582.375 509.375,588.875"/>
    <polyline points="511.75,592.25 520.375,602.875 527.625,610.0 536.25,617.25 546.0,624.0 557.0,630.25 563.0,632.875 569.125,635.25 575.375,637.25 581.625,638.75 587.875,639.625 594.125,640.0 600.0,639.625 605.625,638.5 610.875,636.75 615.5,634.125 619.5,630.875 622.875,626.875 625.375,622.125 627.25,616.875"/>
    <polyline points="628.25,611.25 628.5,605.125 628.125,598.75 627.0,592.125 625.25,585.5 623.125,578.875 620.5,572.25 617.5,565.875 610.75,553.75 603.5,542.625 596.0,532.75 584.875,520.125 574.75,509.875 565.5,501.625 557.25,495.0"/>
    <polyline points="554.75,493.0 540.25,482.5 518.875,468.875"/>
    <line x1="518.125" x2="507.75" y1="468.375" y2="461.875"/>
    <polyline points="507.5,461.75 505.5,460.25 504.25,458.5 504.25,457.0 505.0,454.625"/>
    <line x1="505.0" x2="507.0" y1="454.375" y2="449.125"/>
    <line x1="507.0" x2="511.0" y1="448.875" y2="438.5"/>
    <line x1="511.25" x2="519.0" y1="437.875" y2="416.875"/>
    <polyline points="519.375,415.625 524.125,400.125 526.25,391.25 527.75,383.125 528.875,371.5"/>
    <polyline points="528.875,369.0 528.625,360.875 527.125,351.875 525.25,345.5 522.375,338.875 518.0,331.875 515.25,328.375 511.875,324.75 507.875,321.125 503.375,317.625 498.0,314.125 491.75,310.75 484.5,307.75 476.375,305.0 467.0,302.75 456.625,301.0 445.0,300.125 432.5,300.125 419.0,301.125"/>
    <polyline points="405.125,303.5 390.875,307.125 377.0,312.125 364.0,318.375 352.25,325.75 342.25,333.875 334.5,342.5 328.875,351.25 325.5,359.75 324.125,367.75 324.5,375.25 326.25,381.875 329.25,387.875 333.0,393.125 337.25,397.75 341.875,401.875 351.625,408.75 361.25,414.5 386.625,428.75"/>
    <polyline points="390.25,430.875 400.0,437.375 405.625,441.75 412.875,448.0 420.625,456.375 423.875,460.5 427.75,466.625 431.5,474.875 433.75,483.125"/>
    <polyline points="434.125,485.25 434.625,489.375 434.875,495.875 434.125,504.875 433.375,509.5 431.125,519.25 429.625,524.375 426.0,535.375 421.375,547.25"/>
    <polyline points="420.125,550.375 406.75,583.0 400.375,600.875 396.25,616.25 394.25,628.0 393.625,634.375 393.5,641.25 393.75,648.625 394.75,656.625 396.5,665.5 399.375,675.125 403.75,686.0"/>
    <polyline points="410.125,698.25 418.875,712.125 430.875,728.0 447.0,746.25 468.75,767.25 497.5,791.375 534.875,818.25 582.75,847.25 641.875,876.0 711.0,900.125 785.5,912.875 855.875,906.0 910.0,874.375 939.0,819.25 941.25,749.25 923.75,676.125 895.875,609.375 866.125,554.125 839.25,511.625 817.5,481.125 800.875,461.0 788.625,449.625 779.625,445.25 772.375,446.625 765.875,452.5 759.0,461.75"/>
    <polyline points="751.0,473.25 741.625,486.0 730.875,499.25 718.875,512.0 706.125,523.875 693.125,534.5 680.5,543.75 668.375,551.375 657.25,557.75 647.125,562.75 638.125,566.625 630.125,569.5 623.25,571.625 617.25,573.0 612.0,573.75 603.5,573.875 596.875,572.625 591.5,570.25 589.125,568.875 584.875,565.625 580.875,562.0"/>
    <polyline points="579.0,560.125 564.375,545.25 555.5,537.375 552.125,534.625 545.625,530.125 536.75,525.375"/>
    <polyline points="535.5,524.875 531.625,523.5 528.125,522.75 523.75,522.5 520.875,522.875 517.5,524.0 515.25,525.5 513.25,527.25 512.125,528.75"/>
    <polyline points="511.5,529.5 510.5,531.25 508.875,535.375 507.875,540.25 507.5,544.375 507.5,547.375 508.25,554.125 509.5,559.75 511.5,565.875"/>
    <polyline points="512.375,568.0 517.0,577.0 520.125,581.75 523.75,586.5 530.5,593.875 538.625,601.0 545.0,605.5 548.375,607.5 559.125,612.75 562.875,614.125 570.5,616.0 578.0,616.625"/>
    <polyline points="581.625,616.5 588.125,615.0 591.125,613.625 596.125,609.875 598.125,607.375 599.625,604.625 600.875,601.5 601.75,598.125 602.125,594.5 601.875,586.875 601.125,582.75 598.875,574.5 595.5,566.25 593.5,562.125 589.125,554.375 584.25,547.0 576.5,537.125"/>
    <polyline points="573.875,534.125 563.75,523.75 556.5,517.375 549.875,512.25 543.875,508.0 536.625,503.625 528.875,499.875 524.875,498.375"/>
    <polyline points="523.625,498.0 520.125,497.125 515.875,496.625 510.625,497.125 508.25,497.875 505.5,499.375 502.375,502.125"/>
    <polyline points="501.75,502.75 498.625,507.25 495.375,514.375 492.875,523.5 491.75,531.375"/>
    <polyline points="491.5,533.25 491.375,542.875 491.875,549.5 493.625,559.375 496.0,567.75 499.75,576.875 503.0,583.375 509.75,593.875 515.5,601.25"/>
    <polyline points="518.875,605.0 526.5,612.75 535.625,620.375 546.25,627.75 552.125,631.25 558.25,634.375 564.625,637.375 571.25,639.875 578.125,641.875 585.0,643.5 591.75,644.375 598.5,644.625 604.875,644.125 611.0,642.75 616.5,640.625 621.375,637.5 625.5,633.75 628.875,629.125 631.375,623.75 633.0,617.875 633.75,611.375 633.75,604.625 632.875,597.625"/>
    <polyline points="631.375,590.375 629.25,583.25 626.625,576.125 620.125,562.25 612.625,549.625 604.625,538.125 592.75,523.625 581.625,511.75 571.5,502.25 565.375,497.0 550.25,485.125"/>
    <polyline points="548.0,483.5 527.0,468.625 518.375,461.875"/>
    <polyline points="517.75,461.375 515.375,459.125 513.0,456.25 511.875,454.25 510.875,451.25"/>
    <polyline points="510.875,450.875 510.625,448.875 510.75,446.25 512.25,439.0"/>
    <line x1="512.5" x2="519.5" y1="438.375" y2="416.875"/>
    <polyline points="519.875,415.75 524.5,400.125 526.625,391.125 528.125,383.0 529.25,371.375"/>
    <polyline points="529.25,368.75 529.0,360.625 527.5,351.625 525.625,345.25 522.625,338.5 518.375,331.5 512.125,324.375 508.125,320.75 503.5,317.125 498.125,313.625 491.75,310.375 484.5,307.25 476.25,304.5 466.875,302.25 456.25,300.5 444.625,299.625 431.875,299.625 418.375,300.875"/>
    <polyline points="404.25,303.25 389.875,307.0 375.875,312.125 362.75,318.5 351.0,326.0 341.125,334.25 333.375,342.875 327.875,351.75 324.5,360.25 323.25,368.375 323.75,375.75 325.75,382.5 328.75,388.375 332.5,393.625 336.875,398.25 346.375,405.875 351.375,409.125 361.0,414.875 378.625,424.5 386.25,429.0"/>
    <polyline points="389.875,431.125 399.5,437.625 407.75,444.0 414.5,450.375 420.125,456.625 424.625,462.875 428.125,469.0 430.75,475.125 432.875,483.375"/>
    <polyline points="433.25,485.5 433.875,491.875 433.875,496.25 433.375,502.875 431.75,512.25 429.875,519.625 427.375,527.375 424.375,535.75 419.5,547.5"/>
    <polyline points="418.125,550.625 393.375,604.25 389.375,614.0 385.625,624.625 382.25,636.25 379.75,649.25 379.0,656.5 378.875,664.25 379.375,672.75"/>
    <polyline points="380.75,682.125 383.5,692.5 387.875,704.375 394.625,717.75 404.25,733.25 418.125,751.5 437.375,772.75 464.125,798.0 500.5,827.375 549.375,860.875 612.875,896.75 692.0,930.75 782.75,954.625 874.125,956.5 948.375,925.625 989.5,860.875 993.5,774.0 970.0,683.0 934.25,602.0 898.0,537.875 867.75,491.625 845.25,461.125 829.875,444.125 819.5,438.25 812.125,441.25 805.5,451.25"/>
    <polyline points="797.5,466.5 787.125,485.25 773.75,505.5 757.75,525.5 740.125,544.25 721.875,560.875 704.25,574.875 688.125,586.5 674.125,595.625 662.25,602.875 652.5,608.375 639.125,615.25 634.875,617.0 631.75,617.875 629.625,617.875 628.125,617.125 627.125,615.75 626.375,613.75 623.5,600.625 619.25,587.125"/>
    <polyline points="617.25,582.375 612.625,572.5 607.125,562.875 598.0,549.375 588.25,537.25 578.75,526.875 569.75,518.25 556.375,507.0 547.125,500.375"/>
    <polyline points="545.125,499.0 534.25,492.25 525.625,488.0 518.875,485.5 512.75,484.25"/>
    <polyline points="512.0,484.25 509.125,484.25 507.25,484.625 503.875,486.0 500.5,488.75 498.375,491.5"/>
    <polyline points="498.0,492.125 495.5,496.25 492.5,503.5 490.375,510.375 488.875,517.125"/>
    <polyline points="488.5,518.625 487.5,525.0 486.75,534.25 486.875,545.0 488.125,555.0 489.25,560.5 491.75,569.5 494.25,576.0"/>
    <polyline points="495.75,579.5 501.625,590.375 506.875,598.25 513.5,606.375 521.5,615.0 531.125,623.625 542.625,632.125 555.875,640.0 563.125,643.625 570.75,646.75 578.5,649.375 586.5,651.5 594.5,652.875 602.375,653.375 610.0,653.125 617.125,651.75 623.75,649.5 629.5,646.125"/>
    <polyline points="634.5,641.75 638.375,636.375 641.25,630.25 643.125,623.25 643.875,615.75 643.625,607.875 642.5,599.625 640.5,591.375 637.875,583.125 634.625,575.0 626.875,559.5 622.625,552.25 613.75,539.0 604.875,527.5 592.125,513.125 584.25,505.25 570.5,492.875"/>
    <polyline points="567.5,490.25 535.25,465.25 529.75,460.5 526.375,457.125"/>
    <polyline points="525.625,456.375 522.125,451.875 519.875,447.625 518.625,443.375 518.125,438.125"/>
    <polyline points="518.125,437.375 519.375,427.625 523.375,411.5"/>
    <polyline points="523.75,410.125 527.875,393.75 530.125,381.5 531.125,369.5 531.125,364.125 530.625,358.375"/>
    <polyline points="530.25,355.375 529.0,349.125 526.875,342.5 523.5,335.5 518.75,328.25 511.875,320.875 502.25,313.5 496.125,310.0 489.125,306.75 481.125,303.75 471.875,301.125 461.375,299.125 449.75,297.75 437.0,297.375 423.125,298.125 408.5,300.125 393.625,303.5 378.75,308.375 364.75,314.625 351.875,322.125"/>
    <polyline points="340.75,330.625 332.0,339.625 325.5,348.875 321.375,357.875 319.625,366.375 319.75,374.25 321.375,381.375 324.25,387.625 328.0,393.125 332.375,398.0 337.125,402.125 342.125,405.875 352.0,412.125 386.0,431.0 398.5,439.625"/>
    <polyline points="401.25,441.75 408.5,448.0 416.125,456.375 420.5,462.625 424.0,468.75 426.5,475.0 428.125,481.25 429.0,487.5 429.125,494.0"/>
    <polyline points="429.0,496.125 427.75,505.125 426.0,512.125 423.625,519.375 419.25,529.625 415.125,537.75 411.875,543.25 406.125,551.875 399.375,560.75"/>
    <polyline points="396.75,563.75 391.125,569.75 384.625,575.625 377.0,581.125 368.0,586.25 357.0,590.375 350.5,591.875 343.25,592.75 335.0,593.0 325.625,592.5 314.875,590.75 302.375,587.5 287.875,582.25 270.875,574.625 250.875,563.75 227.5,548.875 200.25,528.625 169.125,502.0 134.5,467.625 97.875,424.875 62.25,373.875"/>
    <polyline points="32.75,317.0 15.875,259.25 17.375,207.625 39.625,169.5 79.375,148.5 129.75,144.375 182.25,152.75 230.875,168.375 272.0,187.0 304.25,205.5 327.875,222.5 343.875,237.5 353.5,250.625 357.625,262.0 357.75,272.375 354.875,282.125 349.875,291.5 337.5,310.25 331.5,319.875 326.5,329.375 322.875,338.625 320.75,347.625 320.0,356.125 320.75,363.875 322.75,371.0"/>
    <polyline points="325.75,377.5 329.5,383.125 333.75,388.25 338.5,392.75 343.375,396.75 353.5,403.75 363.375,409.625 385.875,422.25 400.75,431.375 412.875,440.125 422.625,448.625"/>
    <polyline points="424.625,450.625 430.25,456.75 433.375,460.75 437.25,466.625 441.125,474.5 443.25,480.375 445.0,488.375 445.625,494.5 445.625,500.875"/>
    <polyline points="445.625,503.125 444.625,514.625 439.375,544.875 437.375,558.625 436.625,566.125 436.125,578.875"/>
    <polyline points="436.25,583.5 437.125,593.375 439.0,604.5 442.625,617.125 445.375,624.125 448.75,631.5 453.0,639.625 458.375,648.25 464.875,657.625 473.0,667.75 482.875,678.75 494.75,690.625 509.25,703.25 526.5,716.625 546.875,730.5 570.625,744.375 597.75,757.625 627.875,769.25 660.0,777.875 692.875,781.875 724.25,779.875 751.625,770.5 773.0,753.5"/>
    <polyline points="786.5,729.625 792.0,700.5 790.125,668.625 782.5,636.125 771.125,605.125 757.75,576.75 743.625,551.875 730.0,530.625 717.25,512.875 705.625,498.375 695.375,486.75 686.375,477.5 678.5,470.375 671.5,464.875 665.375,460.875 659.875,458.0 654.875,456.125 650.25,454.875 646.0,454.25 638.125,454.25 630.875,455.125 620.5,457.0"/>
    <polyline points="617.125,457.625 610.625,458.75 598.5,459.875 590.0,459.625 582.375,458.5 575.5,456.75 569.375,454.5 562.5,450.875 558.0,447.75"/>
    <polyline points="556.625,446.625 552.0,442.25 549.25,438.75 545.75,432.5 543.625,425.875 542.875,421.75 542.5,414.25"/>
    <polyline points="542.5,412.625 542.75,407.625 543.875,398.625 548.875,368.875 549.875,357.125"/>
    <polyline points="550.0,354.0 549.875,347.25 549.125,340.125 547.625,332.375 546.375,328.25 542.75,319.75 540.125,315.25 537.0,310.625 533.0,305.875 528.125,301.125 522.125,296.375 514.875,291.625 506.25,287.0 495.75,282.75 483.375,279.0 468.75,276.0 452.0,274.125 432.875,273.75 411.75,275.375 389.125,279.25 365.875,285.875 343.25,295.125"/>
    <polyline points="322.625,306.75 305.125,320.25 291.75,334.625 282.875,349.0 278.25,362.5 277.25,374.5 279.125,384.625 282.75,393.0 287.625,399.75 293.125,405.0 298.75,409.0 304.375,412.125 309.625,414.5 314.75,416.375 323.875,419.125 338.875,423.125 350.75,427.125 356.0,429.5"/>
    <polyline points="358.5,430.75 365.25,434.625 371.125,439.0 377.75,445.125 381.75,449.875 384.875,454.75 387.125,459.625 388.5,464.375 388.875,469.125"/>
    <polyline points="388.875,470.75 388.375,473.75 387.5,476.625 386.125,479.5 384.25,482.125 380.375,485.75 377.0,487.75 373.125,489.5 368.375,490.75 365.75,491.125 359.875,491.5 356.625,491.375 349.25,490.375 340.875,488.25"/>
    <polyline points="336.25,486.75 326.0,482.375 320.5,479.5 308.625,472.125 295.875,462.5 289.25,456.75 282.625,450.25 276.0,443.125 269.625,435.5 263.625,427.375 258.25,418.75 253.5,409.875 249.75,400.875 247.25,392.0 246.0,383.375 246.125,375.375 247.875,368.25 251.25,362.0 256.0,357.0 262.25,353.125 269.625,350.5 278.0,349.125 287.0,348.875"/>
    <polyline points="296.625,349.625 306.375,351.25 316.25,353.625 326.0,356.625 344.875,363.625 362.125,371.375 384.625,383.0 391.25,386.75 450.75,421.875"/>
    <polyline points="453.375,423.375 464.875,429.5 478.375,435.625 485.75,438.125 491.5,439.25"/>
    <polyline points="492.375,439.375 496.125,439.375 500.625,438.25 502.25,437.5 505.25,435.25 507.125,433.25"/>
    <polyline points="507.5,432.75 511.125,427.5 512.875,424.25 516.5,416.25 518.75,410.25"/>
    <polyline points="519.25,408.875 520.75,404.625 523.5,395.0 526.25,381.25 527.125,369.5 527.0,364.25 526.375,358.625"/>
    <polyline points="525.875,355.75 523.375,346.5 520.375,339.875 518.5,336.5 513.375,329.625 510.125,326.125 506.25,322.625 501.75,319.25 496.5,315.875 490.5,312.625 483.5,309.625 475.625,307.0 466.625,304.75 456.625,303.125 445.625,302.25 433.625,302.125 420.75,303.125 407.5,305.25 393.875,308.625 380.625,313.125 368.0,319.0 356.625,325.875"/>
    <polyline points="346.875,333.5 339.0,341.75 333.25,350.0 329.625,358.25 328.0,366.125 328.0,373.375 329.5,380.0 332.0,386.0 335.5,391.25 339.625,396.0 344.0,400.125 348.75,403.875 353.5,407.25 363.125,413.125 388.625,427.625 399.125,434.25 405.25,438.625"/>
    <polyline points="408.0,440.75 415.625,447.125 421.875,453.375 427.0,459.5 431.125,465.5 435.125,473.625 437.25,479.625 439.0,487.875 439.375,492.125"/>
    <polyline points="439.5,494.25 439.5,498.625 438.875,507.625 436.75,519.75 434.25,530.375 425.625,562.25"/>
    <polyline points="424.75,566.0 421.625,582.5 420.625,592.0 420.25,602.375 421.125,614.125 422.0,620.625 423.5,627.5 425.625,635.0 428.625,643.0 432.5,651.875 437.625,661.5 444.375,672.125 452.875,683.875 463.75,696.875 477.5,711.25 494.75,727.0 516.0,744.125 542.25,762.5 573.75,781.375 610.875,799.625"/>
    <polyline points="653.125,815.625 698.625,826.625 744.375,829.625 786.125,821.75 819.125,801.375 839.875,769.25 847.25,728.375 842.875,683.375 830.125,638.375 812.625,597.0 793.625,561.125 775.125,531.25 758.5,507.375 744.125,489.0 732.0,475.25 721.875,465.625 713.375,459.125 706.25,455.375 700.0,453.875 694.375,454.0 689.0,455.375 683.875,457.875 678.75,460.875 662.5,472.125"/>
    <polyline points="656.75,475.875 645.0,482.875 639.125,485.875 627.5,490.875 616.5,494.375 606.125,496.625 592.25,497.875 580.125,497.375 573.0,496.375 566.625,495.0 558.0,492.625 550.625,490.0"/>
    <polyline points="548.375,489.125 536.875,484.375 521.375,477.375 515.375,475.125"/>
    <polyline points="514.625,474.875 509.75,473.625 508.25,473.5 505.375,473.75 503.0,474.75"/>
    <polyline points="502.625,475.0 501.125,476.125 499.5,478.0 497.625,480.875 495.875,484.625"/>
    <polyline points="495.625,485.25 493.625,490.0 491.0,497.75 488.375,507.875"/>
    <polyline points="488.0,509.125 485.375,524.25 484.75,531.75 484.625,540.25 485.0,547.375 486.5,558.0"/>
    <polyline points="487.125,560.875 489.75,570.125 492.25,576.875 495.625,584.0 499.875,591.75 505.375,599.875 512.125,608.5 520.625,617.5 525.5,622.0 536.75,631.125 550.0,639.875 557.25,643.875 565.0,647.625 573.125,650.875 581.5,653.75 590.0,655.75"/>
    <polyline points="598.5,657.125 606.875,657.625 615.0,657.0 622.5,655.375 629.375,652.5 635.25,648.625 640.25,643.625 644.125,637.625 646.75,630.75 648.25,623.0 648.625,614.875 647.875,606.25 646.25,597.5 643.75,588.625 640.625,579.875 636.875,571.375 632.75,563.125 628.375,555.375 623.75,548.0 619.125,541.0 614.375,534.5 605.125,523.0 592.0,508.75"/>
    <polyline points="588.0,504.75 580.5,497.625 570.5,488.875 544.75,468.625 537.375,462.625 532.875,458.5"/>
    <polyline points="531.875,457.5 527.125,452.125 524.0,447.125 521.875,441.375 521.25,436.125"/>
    <polyline points="521.125,435.25 521.375,429.625 522.5,422.125 526.25,406.25"/>
    <polyline points="526.625,404.625 528.625,396.125 530.875,384.25 532.25,372.5 532.375,364.5 532.125,358.875 531.25,352.75 529.75,346.25"/>
    <polyline points="528.625,342.875 527.25,339.5 523.5,332.25 518.0,324.875 514.375,321.125 510.125,317.25 505.125,313.5 499.25,309.875 492.375,306.5 484.5,303.25 475.5,300.5 465.125,298.125 453.5,296.625 440.75,295.875 426.75,296.375 412.0,298.0 396.625,301.125 381.25,305.75 366.375,311.875 352.75,319.375 340.875,327.875 331.25,337.125 324.125,346.625 319.375,356.0"/>
    <polyline points="317.125,364.875 316.875,373.125 318.375,380.5 321.125,387.125 324.875,392.75 329.25,397.75 334.0,402.0 344.0,409.125 353.875,414.875 379.5,428.75 389.75,435.125 398.375,441.375 405.625,447.75"/>
    <polyline points="407.75,449.75 414.875,458.125 417.625,462.25 420.0,466.375 423.5,474.625 425.375,483.0 425.875,489.375 425.75,493.625 424.5,502.5"/>
    <polyline points="424.0,504.75 421.125,514.0 416.875,523.625 412.625,531.125 407.375,538.875 401.0,546.625 393.0,554.375 390.0,556.875 383.125,561.625 375.0,566.0"/>
    <polyline points="370.375,567.875 365.25,569.5 353.5,571.75 346.5,572.125 338.625,571.875 329.875,570.875 319.875,568.75 308.5,565.5 295.375,560.5 280.5,553.625 263.375,544.125 243.875,531.625 221.625,515.125 196.875,494.125 169.75,467.875 141.25,435.875 113.25,398.125 88.375,355.875 70.375,311.5 63.125,268.75 69.375,232.25 89.5,205.625 121.0,190.875 159.5,187.375 200.25,192.625"/>
    <polyline points="239.125,203.625 273.75,217.375 302.875,232.0 326.25,246.0 344.25,258.75 357.625,270.125 366.875,280.125 372.875,288.875 376.125,296.75 377.375,303.75 377.125,310.25 375.75,316.5 369.0,334.0 365.375,345.25 364.25,350.75 363.75,356.0 364.0,361.125 364.75,366.0 366.125,370.625 368.125,375.0 370.5,379.125 376.5,386.5"/>
    <polyline points="379.875,389.875 383.375,393.0 390.875,398.75 406.125,408.625 444.375,430.25 457.75,438.25"/>
    <polyline points="459.625,439.5 470.875,446.75 475.75,450.25 483.625,456.625 486.625,459.625"/>
    <polyline points="487.125,460.25 490.0,464.0 491.5,467.0 492.5,470.5 492.75,473.125"/>
    <polyline points="492.75,473.75 492.75,476.5 492.25,481.0 490.125,491.0"/>
    <polyline points="489.875,491.875 486.375,507.5 483.75,524.625"/>
    <polyline points="483.625,526.5 483.125,534.5 483.375,546.0 484.25,553.75 485.875,562.5 488.75,572.125 493.125,582.875 497.25,590.625 502.5,598.875"/>
    <polyline points="505.625,603.125 509.125,607.625 517.5,616.75 522.25,621.5 527.625,626.25 533.5,631.0 539.875,635.625 546.75,640.25 554.125,644.625 562.0,648.625 570.375,652.375 579.0,655.5 587.875,658.0 596.875,659.75 605.75,660.625 614.375,660.5 622.5,659.125 630.0,656.625 636.625,652.875 642.125,648.0 646.5,642.0 649.625,635.0 651.5,627.125 652.25,618.625 651.75,609.75"/>
    <polyline points="650.125,600.5 647.75,591.25 644.5,582.125 640.75,573.125 636.5,564.5 631.875,556.25 627.125,548.625 617.375,534.5 612.5,528.25 603.125,517.25 598.625,512.25 590.125,503.625 575.375,490.125 556.0,474.5"/>
    <polyline points="553.875,472.75 541.5,462.875 534.25,456.125 528.625,449.5 526.125,444.875"/>
    <polyline points="525.75,444.0 524.375,440.375 523.625,436.75 523.375,433.875 523.375,428.875 524.75,418.5"/>
    <polyline points="525.0,417.25 531.0,389.75 533.0,376.5 533.375,371.5"/>
    <polyline points="533.5,368.875 533.375,360.5 532.25,351.375 530.625,344.75 528.0,337.875 524.0,330.5 518.125,322.875 514.375,319.125 509.875,315.25 504.5,311.5 498.25,307.75 491.0,304.375 482.625,301.125 473.0,298.5 462.125,296.375 449.875,295.0 436.375,294.625 421.75,295.375"/>
    <polyline points="406.25,297.625 390.375,301.375 374.75,306.625 359.875,313.5 346.5,321.625 335.0,330.625 326.0,340.375 319.625,350.125 315.875,359.625 314.375,368.5 314.875,376.5 317.0,383.625 320.375,390.0 324.5,395.375 329.125,400.125 334.0,404.125 339.125,407.75 349.125,413.75 379.125,429.75"/>
    <polyline points="382.625,431.875 389.0,436.0 397.375,442.25 404.25,448.5 410.0,454.75 414.5,461.0 418.0,467.125 421.125,475.375 422.125,479.5 422.625,483.75"/>
    <polyline points="422.875,485.875 422.625,494.375 421.0,503.125 417.875,512.125 415.75,516.75 411.875,523.75 406.875,531.0 402.875,535.75 395.625,542.875"/>
    <polyline points="392.875,545.125 386.625,549.5 379.375,553.5 375.125,555.25 365.625,558.125 354.0,559.625 347.125,559.75 339.625,559.125 331.125,557.875 321.625,555.625 310.875,552.125 298.625,547.25 284.875,540.625 269.375,531.875 251.875,520.375 232.25,505.75 210.75,487.5 187.5,465.0 163.375,438.0 139.625,406.5 118.125,371.5 101.625,334.5"/>
    <polyline points="92.75,298.0 94.0,265.25 106.0,239.125 128.0,221.75 157.625,213.625 191.125,213.5 225.5,219.5 258.0,229.375 287.125,241.125 312.0,253.5 332.75,265.5 349.5,276.5 362.5,286.375 372.5,295.125 379.75,302.875 385.0,309.625 388.375,315.75 390.5,321.125 391.625,326.125 391.875,330.75 391.625,335.125 389.375,351.125 389.125,354.875"/>
    <polyline points="389.125,358.5 389.375,362.0 390.0,365.375 390.875,368.75 392.125,371.875 395.5,377.875 397.5,380.625 402.125,385.75 410.25,392.625 419.0,398.5 433.625,406.5 447.0,412.625"/>
    <polyline points="449.5,413.625 461.0,418.0 470.75,420.875 474.25,421.625 483.375,422.75 489.75,422.375 492.0,421.875"/>
    <polyline points="493.125,421.625 498.125,419.625 502.5,416.5 504.875,414.125 509.25,408.25 513.125,400.75"/>
    <polyline points="513.75,399.375 516.5,391.5 518.5,382.125 519.25,375.875 519.375,368.875 518.625,361.375 517.5,356.0 515.625,350.25 512.75,344.375"/>
    <polyline points="510.875,341.25 506.25,335.125 503.25,332.0 499.75,328.875 495.75,325.875 485.875,320.125 479.875,317.5 473.125,315.25 465.625,313.25 457.375,311.75 448.25,310.75 438.375,310.5 428.0,310.875 417.125,312.25 406.0,314.5 395.0,317.75 384.25,321.875 374.375,327.0 365.5,332.75 357.875,339.125 351.75,345.875 347.375,352.75 344.5,359.5 343.125,366.0"/>
    <polyline points="343.125,372.25 344.375,378.0 346.5,383.375 349.375,388.125 352.875,392.5 361.0,400.125 365.375,403.5 374.25,409.5 403.0,426.5 413.125,433.0 422.0,439.125 429.5,445.125"/>
    <polyline points="431.75,447.125 436.0,450.875 441.25,456.375 444.375,460.0 449.375,467.125 452.25,472.375 455.125,479.375 456.625,484.75 457.875,492.0"/>
    <polyline points="458.0,493.875 458.375,499.625 458.25,507.75 455.75,539.625 455.375,555.5"/>
    <polyline points="455.5,559.0 455.625,562.625 457.0,574.625 460.125,588.375 463.625,598.625 468.75,610.125 472.125,616.375 476.25,623.0 481.0,629.875 486.5,637.25 493.125,645.125 500.875,653.25 509.75,661.75 520.125,670.75 532.0,679.75 545.5,689.0 560.625,698.125 577.5,706.625 595.875,714.375 615.375,720.75"/>
    <polyline points="635.5,725.125 655.625,727.0 674.875,725.625 692.25,720.5 706.875,711.75 718.0,699.25 725.125,683.625 728.375,665.5 727.875,645.875 724.25,625.625 718.125,605.625 710.375,586.5 701.625,568.625 692.375,552.5 683.0,538.0 674.0,525.25 665.375,514.125 657.25,504.375 649.75,496.125 642.75,489.0 630.625,477.5 620.375,469.125 611.75,462.875"/>
    <polyline points="607.875,460.375 598.0,454.25 581.5,444.75 573.375,439.0 568.5,434.375 564.75,429.5 563.375,426.875"/>
    <polyline points="562.625,425.5 560.375,418.625 559.625,414.125 559.375,409.375 559.75,402.5 560.875,395.0 563.875,382.5"/>
    <polyline points="564.5,380.125 573.375,350.375 576.625,336.75 578.5,325.125 579.0,316.625 578.625,307.25 577.875,302.25 576.625,297.125 574.875,291.625"/>
    <polyline points="572.375,286.0 568.875,280.0 564.125,273.75 558.0,267.25 550.0,260.625 539.5,253.875 526.125,247.25 509.125,241.125 487.75,236.0 461.375,232.625 429.625,232.125 392.625,235.625 352.0,244.5 310.5,259.75 272.0,281.0 240.625,306.5 219.25,333.5 208.0,358.75 205.25,380.0 208.0,396.125 213.75,407.25 220.375,413.75 226.5,416.75 231.625,417.0 235.625,415.125 238.5,411.625"/>
    <polyline points="240.75,407.0 245.75,390.125 247.875,384.25 250.625,378.75 254.125,373.75 258.375,369.25 263.625,365.75 269.625,362.875 276.375,361.0 283.75,360.0 291.625,359.875 299.875,360.5 308.25,361.75 316.875,363.625 325.375,366.0 333.75,368.75 342.0,371.75 357.5,378.375 371.75,385.375 390.625,395.5"/>
    <polyline points="396.125,398.75 411.125,407.75 431.0,420.375 455.5,436.75 469.375,446.625"/>
    <polyline points="470.625,447.625 480.25,455.375 485.0,460.25 487.0,462.75 488.875,465.75"/>
    <polyline points="489.125,466.375 490.5,469.75 491.125,472.625 491.375,477.625 491.0,481.75"/>
    <polyline points="490.875,482.5 490.0,488.125 485.875,507.5"/>
    <polyline points="485.625,508.875 483.5,523.0 482.625,537.0 483.5,551.625 485.0,560.125"/>
    <polyline points="485.625,563.125 488.625,572.875 491.375,580.0 495.125,587.625 499.875,595.75 506.0,604.375 513.625,613.5 523.125,622.875 528.625,627.625 534.625,632.5 548.25,641.75 555.75,646.125 563.875,650.125 572.375,653.75 581.125,656.875 590.25,659.25 599.25,660.875"/>
    <polyline points="608.25,661.5 616.875,661.0 625.0,659.5 632.375,656.625 638.875,652.625 644.125,647.375 648.375,641.0 651.125,633.625 652.75,625.5 653.125,616.875 652.375,607.625 650.5,598.375 647.75,589.0 644.375,579.75 640.375,570.75 636.0,562.125 631.375,554.0 621.5,539.125 611.75,526.375 602.375,515.375 589.375,502.125"/>
    <polyline points="585.5,498.375 568.625,483.625 541.375,461.875 533.375,454.25"/>
    <polyline points="532.5,453.25 528.875,448.5 527.25,445.75 525.625,442.0 524.375,437.375 524.0,434.5 523.875,429.375"/>
    <polyline points="524.0,428.375 524.625,421.625 525.5,416.5 530.75,392.5"/>
    <polyline points="531.125,390.625 532.875,379.875 533.875,367.25 533.625,358.75 532.75,352.625 531.375,346.125 529.0,339.25 525.375,332.0 520.0,324.375 516.5,320.625 512.25,316.75"/>
    <polyline points="507.25,312.875 501.5,309.125 494.75,305.5 486.75,302.25 477.625,299.25 467.25,296.875 455.5,295.125 442.5,294.25 428.25,294.5 413.0,296.125 397.125,299.125 381.25,303.875 365.75,310.0 351.625,317.75 339.125,326.5 329.0,336.0 321.375,345.875 316.5,355.625 314.125,364.75 313.875,373.25 315.375,380.875 318.25,387.5 322.0,393.375 326.5,398.375 331.375,402.625 336.375,406.375"/>
    <polyline points="341.5,409.75 351.5,415.375 373.25,426.75 380.625,431.0 390.125,437.25 395.75,441.375 404.875,449.75 408.625,453.875 411.875,458.0 415.75,464.125"/>
    <polyline points="416.875,466.25 419.5,472.375 421.5,480.625 422.125,487.0 421.875,493.375 421.25,497.625 419.0,506.5 416.25,513.25 412.625,520.125"/>
    <polyline points="411.25,522.5 406.25,529.5 400.0,536.625 395.0,541.125 389.125,545.5 382.25,549.5 378.375,551.375 374.125,553.0 369.5,554.375 358.875,556.375 352.625,556.75 345.75,556.625 338.125,555.875 329.5,554.375 319.875,551.875 309.0,548.125 296.75,543.0 282.875,536.0"/>
    <polyline points="267.375,526.875 250.0,515.0 230.625,500.125 209.375,481.625 186.875,459.125 163.625,432.375 141.125,401.5 121.25,367.5 106.375,332.0 99.125,297.5 101.5,266.75 114.125,242.625 135.875,226.75 164.5,219.375 196.75,219.625 229.625,225.375 260.875,234.875 289.0,246.25 313.25,258.125 333.5,269.625 350.0,280.25 363.125,289.875 373.25,298.375 381.0,306.0 386.625,312.625 390.5,318.5"/>
    <polyline points="393.125,323.75 394.75,328.5 395.625,332.875 395.875,340.875 395.0,351.75 394.875,358.375 395.125,361.625 395.75,364.75 397.5,370.625 398.875,373.5 402.125,378.75 408.5,385.75 416.0,391.875 424.125,397.125"/>
    <polyline points="426.875,398.625 437.625,404.25 445.25,407.625 454.875,411.25 465.375,414.375 471.0,415.5 476.125,416.25 480.75,416.375"/>
    <polyline points="482.25,416.375 486.375,416.0 490.125,415.125 493.5,413.875 497.625,411.5 501.375,408.375 503.875,405.5 507.625,399.75"/>
    <polyline points="508.25,398.375 510.25,394.25 511.375,391.125 513.25,384.25 514.375,376.5 514.5,369.875 513.75,362.75 512.625,357.75 510.75,352.375 508.0,346.875"/>
    <polyline points="506.25,344.0 504.25,341.125 499.0,335.5 495.75,332.625 492.0,329.875 487.75,327.125 483.0,324.625 477.625,322.25 471.5,320.125 464.875,318.25 457.5,316.875 449.5,315.875 440.875,315.5 431.625,315.75 422.125,316.75 412.375,318.5 402.625,321.0 393.125,324.375 384.25,328.5 376.0,333.25 368.875,338.625 362.875,344.375 358.25,350.375 354.875,356.375 352.875,362.375"/>
    <polyline points="352.25,368.125 352.625,373.625 353.875,378.625 356.125,383.375 358.875,387.875 362.25,391.875 365.875,395.5 369.875,399.0 378.125,405.125 386.5,410.625 416.875,428.625 428.875,436.5 434.0,440.25"/>
    <polyline points="436.5,442.0 448.625,452.25 454.625,458.625 457.125,461.75 460.375,466.25 463.0,470.625 465.625,476.5 467.125,481.0"/>
    <polyline points="467.5,482.5 468.875,490.125 469.375,498.125 468.875,512.625 467.75,527.75"/>
    <polyline points="467.625,530.125 467.375,546.0 468.375,558.625 469.375,565.625 471.0,573.125 475.0,585.75 479.0,595.125 481.5,600.25 484.5,605.375 491.875,616.625 501.75,628.875"/>
    <polyline points="507.75,635.25 514.5,642.0 522.25,648.75 530.875,655.75 540.625,662.625 551.375,669.5 563.125,676.0 575.75,682.0 589.25,687.375 603.375,691.625 617.75,694.5 632.125,695.75 645.875,695.0 658.625,692.125 669.75,686.875 679.0,679.25 685.875,669.5 690.375,657.875 692.5,644.75 692.25,630.75 690.0,616.25 686.0,601.625 680.875,587.5 674.75,573.875 668.0,561.25 661.0,549.5"/>
    <polyline points="653.875,538.75 646.875,529.0 633.625,512.375 627.375,505.375 616.0,493.625 606.0,484.25 593.5,473.5 566.25,452.375 559.625,446.375"/>
    <polyline points="558.125,445.0 553.375,439.5 551.5,436.875 549.25,432.875 547.0,427.375 545.625,421.625 545.25,418.625 545.0,414.0 545.125,409.125"/>
    <polyline points="545.25,407.375 546.0,400.125 551.125,371.0 552.25,362.5 552.875,356.375 553.0,346.5"/>
    <polyline points="552.875,342.875 552.0,335.375 550.125,327.25 548.75,323.0 546.875,318.5 544.5,314.0 541.5,309.25 537.625,304.375 533.0,299.5 527.25,294.5 520.125,289.5 511.625,284.625 501.25,280.125 488.75,276.0 474.125,272.5 456.875,270.25 437.125,269.5 415.0,270.75 391.125,274.375 366.375,281.0 342.0,290.625 319.5,302.875 300.375,317.25 285.75,332.625"/>
    <polyline points="276.0,348.125 271.0,362.5 269.875,375.25 271.875,385.875 275.75,394.5 280.875,401.25 286.5,406.375 292.25,410.25 297.875,413.125 303.125,415.125 312.625,417.75 331.125,420.875 340.0,422.75 348.0,425.125 355.375,428.25"/>
    <polyline points="357.625,429.375 362.125,431.875 368.25,436.0 373.75,440.5 379.875,446.875 383.5,451.75 385.5,455.0 387.0,458.25 388.25,461.5 389.375,467.875"/>
    <polyline points="389.5,469.5 389.25,472.5 388.5,475.625 387.375,478.5 385.75,481.25 383.5,483.875 380.875,486.25 375.625,489.25 368.875,491.375 363.375,492.125 357.0,492.125 349.625,491.125 345.5,490.25"/>
    <polyline points="341.125,489.125 331.5,485.625 326.25,483.25 314.875,477.0 302.25,468.5 289.0,457.375 282.25,450.875 275.5,443.75 269.0,436.0 262.875,427.625 257.25,418.875 252.375,409.75 248.5,400.625 245.75,391.5 244.5,382.75 244.625,374.625 246.375,367.25 249.75,360.875 254.625,355.75 261.0,351.75 268.5,349.125 277.0,347.75"/>
    <polyline points="286.25,347.5 296.0,348.375 306.0,350.0 316.0,352.5 326.0,355.5 335.625,359.0 354.0,366.625 370.5,374.625 391.75,386.0 448.625,419.375"/>
    <polyline points="451.375,421.0 467.5,429.375 476.125,433.125 485.375,436.125 491.5,437.125"/>
    <polyline points="492.375,437.125 497.125,436.875 501.625,435.25 504.5,433.25 508.125,429.5"/>
    <polyline points="508.625,428.75 512.5,422.625 515.375,416.75 520.75,402.5"/>
    <polyline points="521.125,401.0 523.5,392.5 525.125,384.75 526.0,378.25 526.5,368.625 526.0,360.5 525.0,354.75 523.375,348.75 520.75,342.25"/>
    <polyline points="519.125,339.0 514.5,332.125 508.125,325.25 504.0,321.75 499.25,318.375 493.75,315.125 487.5,312.0 480.25,309.25 472.0,306.75 462.75,304.75 452.5,303.375 441.25,302.75 429.0,303.0 416.25,304.375 403.0,306.875 389.625,310.625 376.75,315.625 364.75,321.75 354.0,328.875 345.125,336.625 338.0,344.625 333.125,352.875 330.125,360.875 329.0,368.5"/>
    <polyline points="329.5,375.5 331.375,381.75 334.25,387.5 337.875,392.625 342.0,397.125 346.625,401.125 356.0,408.0 365.5,413.75 383.0,423.625 394.375,430.375 401.125,434.75 409.875,441.25 417.375,447.5 419.5,449.625"/>
    <polyline points="421.625,451.75 425.375,455.75 431.375,463.875 434.875,469.875 437.5,475.875 439.75,484.0 440.5,488.125 441.125,496.5 440.875,503.125"/>
    <polyline points="440.75,505.375 439.5,514.875 437.5,525.0 431.75,548.625 427.875,566.375 425.625,583.25"/>
    <polyline points="425.375,588.0 425.25,598.25 426.25,609.625 428.875,622.5 431.125,629.75 434.0,637.5 437.875,646.0 442.75,655.25 449.125,665.25 457.125,676.25 467.25,688.375 479.75,701.75 495.375,716.25 514.625,732.0 538.0,748.625 565.875,765.875 598.625,782.875 635.875,798.0 676.5,809.5 718.25,814.75 757.75,811.375 791.25,797.5 815.25,772.875"/>
    <polyline points="827.875,739.375 829.375,700.125 821.875,658.875 808.25,619.125 791.625,583.125 774.25,552.0 757.625,526.125 742.625,505.25 729.5,489.0 718.375,476.625 708.875,467.625 700.75,461.375 693.875,457.375 687.75,455.125 682.25,454.375 677.125,454.75 672.375,456.0 662.875,460.125 638.625,473.125 628.75,477.375"/>
    <polyline points="623.875,479.25 609.875,483.125 601.125,484.5 592.875,485.0 585.375,484.875 572.125,483.125 561.0,480.125 549.75,475.75 544.125,473.0"/>
    <polyline points="542.5,472.125 533.875,467.125 528.375,463.25 523.5,459.125 519.125,454.125"/>
    <polyline points="518.75,453.5 517.625,451.75 516.0,447.75 515.25,442.25 515.5,438.125"/>
    <polyline points="515.625,437.5 516.75,431.25 521.75,413.25"/>
    <polyline points="522.125,411.875 526.375,396.5 528.375,386.875 529.875,375.75 530.25,368.25 530.125,362.875"/>
    <polyline points="529.875,360.0 528.375,351.0 525.125,341.125 521.375,334.125 519.0,330.5 516.125,326.875 508.625,319.625 503.75,316.0 498.25,312.5 491.75,309.125 484.25,306.0 475.75,303.25 466.0,301.0 455.125,299.375 443.0,298.5 430.0,298.75 416.0,300.0 401.5,302.75 386.875,306.75 372.75,312.25"/>
    <polyline points="359.5,319.0 347.75,326.75 337.875,335.25 330.375,344.25 325.125,353.25 322.25,361.875 321.375,370.0 322.25,377.375 324.375,384.0 327.75,389.875 331.75,395.0 336.25,399.5 341.0,403.5 345.875,407.0 350.875,410.125 360.5,415.75 381.875,427.5 395.625,436.125"/>
    <polyline points="398.625,438.25 406.625,444.625 413.25,451.0 417.0,455.125 420.25,459.25 423.0,463.375 425.375,467.5 428.875,475.75 430.5,482.0 431.5,490.5"/>
    <polyline points="431.5,492.625 431.25,499.25 430.25,506.0 429.25,510.75 426.5,520.5 423.625,528.25 420.125,536.375 414.375,548.0 409.125,557.375"/>
    <polyline points="407.25,560.5 400.875,570.5 393.375,580.875 384.625,591.625 377.75,598.75 369.75,605.75 365.25,609.125 360.25,612.25 354.75,615.25 348.625,617.875 341.75,620.125 334.0,621.625 325.0,622.5 314.5,622.25 302.25,620.5 287.75,616.875 270.25,610.625 249.25,600.875"/>
    <polyline points="223.625,586.375 192.75,565.5 155.625,536.25 112.25,496.25 63.625,443.375 13.75,376.875 0.0,352.0208"/>
    <polyline points="0.0,98.6605 52.375,83.25 124.75,88.75 193.25,108.625 249.625,134.0 291.125,159.25 318.25,181.875 332.875,201.375 337.125,218.25 333.25,233.5 323.625,248.375 310.5,263.5 296.125,279.375 282.5,295.875 271.375,312.75 263.625,329.125 259.5,344.375"/>
    <polyline points="258.75,357.75 260.75,369.25 264.625,378.625 269.875,386.125 275.75,391.875 281.75,396.375 287.875,399.625 293.875,402.125 299.5,404.0 310.125,406.75 332.625,411.5 344.375,415.0 355.125,419.125 368.125,425.875"/>
    <polyline points="371.0,427.625 379.375,433.25 386.625,439.125 390.875,443.125 398.0,451.125 402.25,457.125 404.5,461.125 407.75,469.0 409.375,477.0"/>
    <polyline points="409.5,478.875 409.375,484.875 407.75,492.625 405.375,498.5 403.125,502.375 400.5,506.125 397.125,509.75 393.25,513.25 388.625,516.5 383.25,519.5 380.125,520.75 373.125,522.875"/>
    <polyline points="369.25,523.625 364.875,524.25 360.25,524.5 355.125,524.375 343.375,523.0 336.75,521.5 329.375,519.375 321.375,516.5 312.625,512.625 303.125,507.875 292.625,501.875 281.375,494.5 269.375,485.625 256.5,475.125 243.0,462.625 229.25,448.375 215.5,432.125 202.5,414.125 190.875,394.875 181.375,374.75 175.125,354.75 172.75,335.625 174.75,318.625 181.5,304.5 192.5,293.875"/>
    <polyline points="207.25,287.125 224.75,284.125 243.75,284.375 263.5,287.25 282.875,292.125 301.5,298.25 318.75,305.25 334.5,312.375 348.625,319.5 361.25,326.375 372.5,332.875 390.875,344.25 434.625,373.5 444.375,379.0"/>
    <polyline points="446.375,380.0 453.125,382.625 458.75,383.875 462.375,384.0 465.625,383.5 469.125,382.25 471.375,380.75 473.625,378.125"/>
    <polyline points="474.0,377.375 475.25,374.125 475.375,371.25 474.875,368.25 473.0,364.0 470.625,360.875 467.25,357.875 462.75,355.125 459.25,353.625"/>
    <polyline points="457.25,353.0 453.125,352.0 448.625,351.375 441.625,351.375 434.5,352.625 427.875,355.125 424.25,357.375 422.625,358.75 421.25,360.125 419.125,363.125 418.375,364.75 417.625,368.0 417.75,371.25 418.125,373.0"/>
    <polyline points="418.75,374.625 419.5,376.25 421.625,379.375 424.25,382.25 429.125,386.375 434.625,389.875 442.375,393.75 448.375,396.0 454.125,397.75 461.375,399.25"/>
    <polyline points="463.125,399.5 466.5,399.75 474.125,399.5 478.25,398.625 482.0,397.25 485.375,395.5 488.375,393.125 491.75,389.25 493.125,387.0"/>
    <polyline points="493.75,385.75 495.375,381.875 496.375,377.375 496.625,374.25 496.625,370.75 496.125,367.125 494.625,361.5 492.875,357.5 488.75,351.375 485.0,347.375 480.125,343.5 477.25,341.625"/>
    <polyline points="474.125,339.875 466.875,336.875 458.25,334.375 453.5,333.5 443.125,332.625 437.625,332.75 426.25,334.0 420.5,335.25 414.875,336.875 409.5,339.0 404.375,341.375 399.625,344.125 395.5,347.125 391.875,350.5 388.875,353.875 386.5,357.5 384.875,361.125 383.875,364.75 383.625,368.375 383.875,372.0 384.625,375.375 386.0,378.625"/>
    <polyline points="387.75,381.875 392.25,387.75 397.875,393.0 400.875,395.5 410.5,402.125 429.625,413.0 446.625,421.5 458.375,427.0"/>
    <polyline points="460.5,427.875 470.0,432.0 479.0,435.375 487.25,437.625 490.25,438.125 493.625,438.25"/>
    <polyline points="494.5,438.25 498.625,437.625 501.75,436.375 504.375,434.5 508.875,429.625"/>
    <polyline points="509.25,428.875 512.125,424.375 515.375,417.75 518.25,410.75 521.125,402.25"/>
    <polyline points="521.625,400.75 523.875,392.125 525.75,382.25 526.5,375.5 526.75,368.0 526.25,360.0 525.25,354.125 523.5,348.0 520.75,341.5"/>
    <polyline points="519.0,338.125 516.875,334.75 511.25,327.875 503.5,320.875 498.625,317.5 492.875,314.25 486.375,311.25 478.875,308.375 470.5,306.0 461.0,304.125 450.5,302.875 438.875,302.375 426.5,302.875 413.5,304.5 400.125,307.25 386.75,311.25 373.875,316.625 362.0,322.875 351.625,330.25 342.875,338.125 336.25,346.375 331.75,354.625 329.125,362.5 328.5,370.0"/>
    <polyline points="329.25,377.0 331.375,383.125 334.5,388.75 338.25,393.75 342.5,398.125 347.125,402.0 351.875,405.5 361.375,411.75 387.375,426.5 398.125,433.125 410.0,441.75 419.5,450.125"/>
    <polyline points="421.5,452.25 426.875,458.375 432.375,466.5 434.5,470.5 437.75,478.5 439.25,484.625 440.125,490.875 440.375,495.125 440.125,503.875"/>
    <polyline points="439.875,506.25 438.5,515.75 437.0,523.375 427.0,563.75 424.75,575.75 423.625,584.625"/>
    <polyline points="423.25,589.375 423.125,599.625 423.375,605.25 425.0,617.5 428.5,631.5 431.375,639.375 435.25,648.0 440.125,657.375 446.5,667.625 454.625,678.875 465.0,691.25 477.875,705.0 494.0,720.0 513.75,736.25 538.125,753.5 567.25,771.5 601.5,789.125 640.625,804.75 683.25,816.5 726.75,821.375 767.75,816.875 801.75,801.0 825.25,773.875"/>
    <polyline points="836.375,737.625 836.0,695.875 826.625,652.875 811.5,612.0 793.75,575.5 775.875,544.5 759.0,519.125 744.0,499.0 731.25,483.5 720.375,472.125 711.25,464.0 703.5,458.625 696.75,455.5 690.875,454.25 685.5,454.375 680.375,455.5 675.5,457.5 665.625,463.0 644.875,475.5 634.125,480.75 628.875,482.875"/>
    <polyline points="623.625,484.875 613.625,487.75 604.125,489.625 595.25,490.5 591.125,490.625 579.75,490.0 566.875,487.625 558.625,485.25 551.5,482.625 541.625,478.25"/>
    <polyline points="539.875,477.5 525.5,469.625 518.25,464.875 515.5,462.75"/>
    <polyline points="515.0,462.375 513.25,461.0 510.125,457.625 508.75,454.875"/>
    <polyline points="508.625,454.625 508.25,451.875 509.0,446.75"/>
    <polyline points="509.125,446.375 511.25,439.25 513.625,432.75"/>
    <polyline points="513.875,432.0 518.75,418.125 522.875,404.875"/>
    <polyline points="523.25,403.375 525.125,396.75 527.5,385.375 529.0,371.625 529.0,363.75 528.0,355.0 525.5,345.625"/>
    <polyline points="524.125,342.375 520.625,335.5 518.25,332.0 515.5,328.375 508.25,321.125 498.375,314.125 492.125,310.875 485.0,307.75 476.75,305.0 467.5,302.625 457.125,300.875 445.5,300.0 433.0,299.875 419.5,301.0 405.5,303.25 391.375,306.875 377.375,311.875 364.25,318.0 352.375,325.375 342.375,333.5 334.375,342.125 328.75,350.875 325.25,359.5"/>
    <polyline points="323.75,367.5 324.125,375.0 325.875,381.75 328.875,387.75 332.625,393.0 336.875,397.625 341.5,401.75 351.25,408.75 360.875,414.5 382.5,426.5 389.875,430.875 396.5,435.25 405.25,441.625 412.625,448.0"/>
    <polyline points="414.75,450.125 418.625,454.25 423.5,460.5 427.375,466.625 430.375,472.75 432.5,479.0 434.125,487.25 434.5,495.875 434.0,502.5"/>
    <polyline points="433.75,504.875 432.0,514.25 430.0,521.75 424.375,538.25 418.125,553.625 407.25,578.625"/>
    <polyline points="405.5,582.75 398.625,600.25 395.375,610.0 392.5,620.75 390.125,632.625 389.5,639.125 389.125,646.125 389.375,653.75 390.25,661.875 392.0,671.0 395.0,681.0 399.5,692.125 406.0,704.875 415.25,719.375 428.0,736.0 445.5,755.375 469.0,777.75 500.375,803.625 541.625,832.5 594.625,863.625"/>
    <polyline points="660.0,893.75 735.75,917.625 815.5,926.75 887.25,912.5 937.5,870.25 958.25,804.375 951.5,726.75 926.875,650.25 895.25,583.875 864.625,531.375 838.75,492.75 818.875,466.625 804.375,451.0 794.0,444.0 786.25,444.0 779.625,449.625 772.625,459.375 764.625,472.25 754.75,486.75 743.125,501.875 729.875,516.75 715.75,530.5 701.375,542.625 687.375,553.125 674.125,561.875 662.125,568.875"/>
    <polyline points="651.375,574.5 642.125,578.875 634.125,582.0 627.375,584.375 621.625,585.875 616.875,586.625 612.75,586.875 609.375,586.625 606.5,586.0 604.0,585.0 601.75,583.625 597.75,580.25 594.25,576.0 579.75,556.0 573.75,548.625"/>
    <polyline points="571.625,546.25 567.625,541.875 559.5,534.0 548.0,524.875 542.875,521.5 536.5,518.125 532.125,516.25 528.125,515.0"/>
    <polyline points="526.875,514.75 522.25,514.125 520.125,514.125 515.375,515.0 512.875,516.125 509.875,518.25 506.75,521.875 505.75,523.75"/>
    <polyline points="505.25,524.625 504.25,526.75 502.75,531.5 501.75,537.0 501.375,543.375 501.625,548.75 502.5,554.75 504.75,563.625 505.625,565.875"/>
    <polyline points="506.5,568.375 508.75,573.375 511.625,578.75 515.0,584.25 519.25,590.0 527.0,598.75 530.0,601.625 540.5,610.25 548.625,615.5 553.0,617.875 557.5,620.125 566.875,623.75 576.5,626.0 581.375,626.625 586.0,626.75"/>
    <polyline points="590.5,626.375 594.75,625.5 598.625,624.0 602.25,622.125 605.375,619.625 608.0,616.75 610.25,613.375 611.875,609.5 612.875,605.25 613.5,600.75 613.5,595.875 613.0,591.0 612.125,585.875 610.75,580.625 609.0,575.5 607.0,570.375 602.125,560.375 593.5,546.5 584.375,534.5 578.25,527.5"/>
    <polyline points="575.25,524.375 569.375,518.5 561.125,511.125 547.0,500.125 535.75,492.875 524.25,487.125"/>
    <polyline points="523.125,486.625 516.0,484.375 512.0,483.75 509.125,483.875 506.625,484.375 504.0,485.5"/>
  </g>
</svg>
