<?xml version="1.0" encoding="utf-8" ?>
<svg xmlns="http://www.w3.org/2000/svg" xmlns:cc="http://creativecommons.org/ns" xmlns:dc="http://purl.org/dc/elements/1.1/" xmlns:ev="http://www.w3.org/2001/xml-events" xmlns:inkscape="http://www.inkscape.org/namespaces/inkscape" xmlns:rdf="http://www.w3.org/1999/02/22-rdf-syntax-ns" xmlns:sodipodi="http://sodipodi.sourceforge.net/DTD/sodipodi-0.dtd" xmlns:xlink="http://www.w3.org/1999/xlink" baseProfile="tiny" height="27.09333333cm" version="1.2" viewBox="0 0 1024.0 1024.0" width="27.09333333cm">
  <metadata>
    <rdf:RDF>
      <cc:Work>
        <dc:format>image/svg+xml</dc:format>
        <dc:source>vpype read './original_svgs/Strange Attractors #527.svg' linemerge linesimplify write './Strange Attractors #527.svg'
</dc:source>
        <dc:date>2024-08-05T01:36:08.097315</dc:date>
      </cc:Work>
    </rdf:RDF>
  </metadata>
  <defs/>
  <g fill="none" id="layer1" inkscape:groupmode="layer" inkscape:label="1" stroke="black" stroke-width="0.7mm" style="display:inline">
    <polyline points="833.0,586.5 815.875,564.25 802.625,541.5 793.875,519.125 789.5,497.375 788.5,476.375 789.875,455.875 795.75,417.75 798.0,400.75 798.5,386.125 796.5,374.25 791.625,365.875 783.875,361.25 773.5,360.375 761.125,362.875 747.375,368.125 733.0,375.625 718.5,384.625 704.5,394.375 691.25,404.25 667.5,423.375 639.125,447.125"/>
    <polyline points="631.375,453.5 617.875,463.875 606.625,471.875 596.875,477.625 588.375,481.875 584.625,483.375 574.125,486.75 562.125,488.625 551.75,488.75 547.0,488.375 540.375,487.375"/>
    <polyline points="538.25,486.875 532.125,485.375 524.625,482.875 517.75,479.75 511.25,476.125 505.125,472.0 496.875,464.75"/>
    <polyline points="495.5,463.5 489.875,456.625 488.125,453.875 486.375,449.625 486.0,446.875 486.125,445.5 486.625,444.375 487.375,443.25 490.375,441.375 492.625,440.75 495.625,440.375 499.375,440.375 510.25,441.625 517.625,443.125 537.875,448.75"/>
    <polyline points="551.375,453.25 567.375,459.125 586.25,466.5 608.25,475.75 632.875,486.875 659.875,499.625 688.125,513.75 716.0,528.25 741.25,542.0 784.25,566.75 785.375,567.0 763.75,549.0 753.25,539.75 743.125,530.125 733.75,520.625 725.5,511.625 712.5,495.625 703.375,482.5 697.0,472.125"/>
    <polyline points="694.375,467.875 689.875,461.0 687.75,458.375 683.25,454.5 680.875,453.25 678.375,452.375 675.75,451.875 670.0,452.0 666.875,452.5 660.375,454.375 650.0,458.625 632.75,467.75 620.0,475.375"/>
    <polyline points="617.0,477.25 599.125,488.625 589.625,495.375 582.5,501.0 579.375,504.0 575.875,508.5"/>
    <polyline points="575.5,509.375 574.5,511.75 574.25,514.0 574.75,516.0 576.375,518.5 578.5,520.125 582.375,522.0 586.25,523.0 589.375,523.375"/>
    <polyline points="591.125,523.5 594.875,523.625 601.5,523.0 612.5,520.75 622.5,517.375 626.375,515.75 639.0,509.625 653.625,500.625 664.375,492.875 675.875,483.375 687.5,472.5"/>
    <polyline points="693.125,466.5 703.875,453.875 708.5,447.5 712.5,441.25 715.875,435.25 718.25,429.75 719.625,424.75 720.0,420.5 719.125,417.25 717.25,414.875 714.25,413.5 710.25,413.25 705.375,414.0 699.75,415.625 687.0,421.125 673.25,428.75 666.25,433.125 652.5,441.875 627.5,458.5"/>
    <polyline points="621.875,462.25 597.5,477.25 589.375,481.75 578.5,487.25 566.375,492.625 558.625,495.625 542.5,500.625"/>
    <polyline points="540.875,501.0 527.75,503.75 520.25,504.5 515.25,504.5"/>
    <polyline points="514.625,504.375 509.875,503.75 507.75,503.125 504.125,501.75 501.125,500.125"/>
    <polyline points="500.625,499.875 492.625,494.625 484.625,488.5"/>
    <polyline points="483.75,487.875 467.625,475.5 451.125,463.875"/>
    <polyline points="449.125,462.625 434.875,453.625 422.75,447.0 408.0,439.75 394.875,434.25 385.125,430.75 374.625,427.625 363.75,425.0 353.0,423.5"/>
    <polyline points="347.75,423.25 342.75,423.375 338.25,424.125 334.375,425.375 331.0,427.25 328.625,429.875 327.125,433.0 326.625,437.0 327.25,441.5 328.875,446.625 331.625,452.25 335.375,458.25 340.0,464.5 345.375,470.75 351.375,477.125 364.375,489.375 371.125,495.0 378.0,500.25 391.375,509.625 403.875,517.125 409.75,520.25 420.75,525.25"/>
    <polyline points="425.75,527.25 435.125,530.25 443.375,532.25 450.875,533.5 457.5,534.125 471.5,534.125 482.5,533.125 494.5,531.5"/>
    <polyline points="496.0,531.375 503.875,530.5 511.625,530.375 519.375,531.25 523.0,532.125"/>
    <polyline points="524.0,532.25 532.375,535.0 551.0,542.375"/>
    <polyline points="552.5,542.875 560.625,545.375 573.0,547.75 583.625,548.375 589.875,548.125 597.0,547.375 609.75,544.625 619.75,541.5 625.5,539.25"/>
    <polyline points="631.5,536.625 645.25,529.75 653.0,525.25 661.375,520.0 680.0,506.625 690.375,498.25 701.25,488.75 712.625,478.125 724.25,466.125 735.875,453.125 747.125,439.25 757.5,424.75 766.5,410.25 773.375,396.375 777.625,383.875 778.75,373.625 776.625,366.0 771.375,361.625 763.125,360.625 752.5,362.75 740.25,367.5 727.0,374.5 713.5,383.0 700.125,392.25"/>
    <polyline points="687.125,401.875 675.0,411.5 620.25,456.75 607.625,466.125 597.0,473.25 587.875,478.375 579.75,482.125 572.625,484.75 563.125,487.0 554.75,487.875 549.625,487.875"/>
    <polyline points="598.625,495.875 596.75,496.125 588.875,496.0 576.125,494.375 561.125,491.5 547.125,487.875 540.25,487.125 530.0,484.875 522.5,482.25 513.875,478.25 507.5,474.375 501.375,470.0"/>
    <polyline points="500.0,468.75 494.375,463.75 489.25,458.25 485.0,452.25 482.375,446.25 482.125,444.875 482.375,442.125 482.875,440.875 483.875,439.625 485.25,438.625 487.25,437.875 489.875,437.25 493.25,437.0"/>
    <polyline points="497.75,437.125 503.25,437.75 510.25,439.0 519.0,441.125 529.75,444.125 542.875,448.25 558.875,453.875 577.875,461.25 600.25,470.5 626.0,482.0 654.625,495.375 685.125,510.5 716.0,526.5 744.625,542.0 768.625,555.75 795.25,571.5 797.0,572.25 774.0,552.375 762.875,542.0 752.125,531.125 742.5,520.5 734.25,510.25 727.25,500.875"/>
    <polyline points="721.625,492.125 717.0,484.25 713.375,477.125 703.5,455.625 701.375,452.0 699.125,448.875 696.75,446.375 694.125,444.625 691.25,443.25 688.125,442.5 681.0,442.625 677.125,443.375 668.75,445.875 660.0,449.5 651.0,454.0 633.625,463.75"/>
    <polyline points="629.5,466.125 581.125,495.5 570.875,502.25 567.0,505.125"/>
    <polyline points="566.0,506.125 562.25,509.375 560.875,511.0 559.375,513.25 558.25,516.0 558.0,518.0 558.375,520.0 560.5,523.75"/>
    <polyline points="561.125,524.375 564.875,527.25 567.875,528.75 574.5,531.125 577.75,531.75 583.375,532.5 590.125,532.625 598.125,532.0 601.125,531.5"/>
    <polyline points="604.25,530.875 615.25,528.0 623.75,524.875 633.375,520.625 650.25,511.25 656.5,507.125 670.125,497.375 684.875,485.125 692.625,478.0 700.25,470.375 715.25,453.625 722.125,444.75 728.25,435.875 733.5,427.125 737.375,419.0 740.0,411.5 740.875,405.25"/>
    <polyline points="740.0,400.375 737.5,396.875 733.25,395.25 727.625,395.125 720.75,396.5 712.875,399.375 704.375,403.375 695.5,408.125 677.25,419.5 659.75,431.5 622.625,457.875 610.5,465.875 595.0,475.375 585.875,480.125 577.875,483.875"/>
    <polyline points="574.125,485.5 567.125,488.125 560.75,490.125 552.25,492.25 544.75,493.5 533.875,494.375 530.0,494.375 522.875,493.875 516.5,492.875"/>
    <polyline points="514.875,492.5 510.5,491.375 504.75,489.375 497.875,486.375 489.5,481.75 479.0,475.0"/>
    <polyline points="477.375,473.875 453.5,457.375 436.25,446.25 421.125,437.5 407.125,430.25"/>
    <polyline points="401.75,427.625 389.875,422.25 383.25,419.625 376.25,416.875 361.125,411.625 352.875,409.125 344.375,407.0 335.75,405.25 327.0,403.875 318.5,403.25 310.375,403.375 303.125,404.5 297.0,406.875 292.375,410.625 289.625,415.75 289.0,422.375 290.625,430.25 294.5,439.5 300.5,449.5 308.125,460.25 317.25,471.125 327.375,482.0 337.875,492.5 348.625,502.375"/>
    <polyline points="359.25,511.5 379.125,527.0 388.125,533.375 396.625,538.875 404.375,543.625 411.625,547.5 418.125,550.75 429.75,555.5 434.875,557.125 444.0,559.25 448.125,559.875 455.5,560.375 462.0,560.25 467.875,559.75 473.25,559.0 482.625,557.125"/>
    <polyline points="484.875,556.75 494.625,554.875 503.375,553.75 506.75,553.625 516.0,553.875 523.5,555.0 526.5,555.75"/>
    <polyline points="528.125,556.125 539.125,559.375 549.75,563.125 560.25,566.375 567.625,568.125 579.375,569.875"/>
    <polyline points="582.75,570.125 594.5,569.875 603.875,568.625 609.25,567.5 621.375,564.125 636.25,558.25 644.875,554.125 654.5,549.0 665.25,542.5 677.125,534.625 690.375,525.125 705.0,513.375 721.125,499.375 738.625,482.875 757.0,463.625 776.0,441.625 794.625,417.5 811.375,392.125 824.875,366.875 833.375,343.75 835.5,325.0"/>
    <polyline points="830.5,312.625 818.875,307.5 801.75,309.625 781.25,318.0 759.25,330.875 737.5,346.625 717.125,363.5 698.875,380.25 682.875,396.125 669.25,410.625 648.25,435.0 640.25,444.875 611.375,483.0 607.125,487.625 603.375,490.625 599.75,492.75"/>
    <polyline points="598.0,493.375 592.625,494.5 589.0,494.75 583.25,494.5 567.375,492.125 556.0,489.5 550.5,487.875"/>
    <polyline points="548.75,487.375 543.75,485.75 537.625,483.25 529.75,479.0 525.5,476.0 523.875,474.375 522.0,472.0 521.0,469.625"/>
    <polyline points="521.0,468.875 521.375,467.625 522.5,466.375 524.75,465.625 528.125,465.125 533.125,465.25 544.25,467.125 561.0,471.625 576.0,476.625 604.375,487.625 637.375,502.0 648.25,507.25"/>
    <polyline points="658.75,512.25 676.375,521.125 691.75,529.5 671.25,519.375 659.75,514.125 648.375,509.25 643.0,507.25 632.625,503.75 623.25,501.375 615.0,499.875 607.5,499.125"/>
    <polyline points="604.125,499.0 592.5,499.75 587.75,500.625 580.0,503.0 576.75,504.375 572.875,506.5 569.875,508.75 567.125,511.625 566.0,513.75"/>
    <polyline points="565.625,514.5 565.375,515.875 565.625,518.5 566.875,521.0 568.625,522.875 571.875,525.0 575.125,526.5 582.25,528.25"/>
    <polyline points="584.0,528.5 589.875,528.875 594.5,528.75 605.375,527.125 612.0,525.5 619.375,523.125 623.375,521.625 632.25,517.625 637.125,515.25 647.75,509.25 659.375,501.5 672.125,491.875 685.75,480.125"/>
    <polyline points="692.625,473.5 706.0,459.0 712.25,451.375 718.0,443.5 723.0,435.875 727.125,428.5 730.0,421.625 731.625,415.5 731.875,410.5 730.625,406.625 728.0,404.125 724.0,402.875 718.75,403.125 712.5,404.5 705.5,407.0 697.875,410.5 681.75,419.5 665.5,429.875 629.25,454.875"/>
    <polyline points="623.0,459.125 606.125,470.0 596.375,475.75 587.625,480.5 576.0,486.0 566.0,490.0 560.125,492.0 547.375,495.375 537.0,497.0"/>
    <polyline points="535.25,497.25 523.875,497.625 517.0,497.0 509.75,495.5 502.0,492.875"/>
    <polyline points="500.875,492.375 495.5,489.75 488.75,485.875 480.125,480.25 470.125,473.125"/>
    <polyline points="468.5,472.0 451.25,460.125 441.125,453.625 428.875,446.375 413.625,438.25 394.5,429.625"/>
    <polyline points="389.0,427.375 370.875,421.0 364.25,419.125 350.75,416.0 337.125,414.375 330.75,414.375 324.875,414.875 319.625,416.25 315.25,418.5 312.125,421.75 310.25,425.875 309.75,431.0 310.875,437.0 313.625,443.875 317.75,451.375 323.125,459.375 329.75,467.5 337.125,475.75 345.125,483.875 353.375,491.75 370.25,505.875"/>
    <polyline points="378.5,512.125 394.0,522.625 408.0,530.625 414.375,533.875 420.375,536.5 425.875,538.75 436.0,542.125 448.875,544.75 459.625,545.75 471.5,545.375 485.625,543.75"/>
    <polyline points="487.625,543.375 500.25,541.75 507.875,541.25 517.375,541.625 525.125,542.875"/>
    <polyline points="526.375,543.25 534.25,545.25 556.125,552.25 566.625,554.625"/>
    <polyline points="569.0,555.0 576.875,556.0 583.0,556.25 589.75,556.0 597.625,555.125 606.625,553.375 617.125,550.5 623.125,548.375 636.625,542.5 644.25,538.625 652.625,534.0 661.875,528.375 671.875,521.625 682.75,513.625 694.5,504.25 707.125,493.375 720.5,480.875 734.375,466.625"/>
    <polyline points="748.375,450.875 762.125,433.875 774.75,415.875 785.625,397.875 793.625,380.75 798.125,365.75 798.375,353.75 794.125,345.75 785.75,342.25 774.0,343.25 759.625,348.125 743.875,356.125 727.625,366.375 711.5,377.875 696.375,389.875 682.25,401.625 658.0,423.375 623.25,455.375 611.125,465.875 601.125,473.625"/>
    <polyline points="596.75,476.5 589.125,481.125 582.375,484.25 576.375,486.25 568.375,487.75 559.0,488.125 552.75,487.5 545.125,486.0 536.625,483.25"/>
    <polyline points="535.125,482.625 529.25,479.875 524.375,476.75 520.25,473.375 518.0,470.75 517.0,469.125 516.5,467.375 516.625,465.875 517.5,464.375 519.25,463.375"/>
    <polyline points="520.625,462.875 524.375,462.375 529.75,462.625 537.5,463.75 547.875,466.125 561.5,470.125 578.875,476.125 589.0,480.0 611.875,489.25 649.75,506.375 673.375,518.0 691.375,527.375 702.625,533.625"/>
    <polyline points="702.25,533.375 673.875,518.0 661.5,511.875 649.875,506.75 639.25,502.75 630.0,500.0 625.75,499.0 618.0,497.75 611.375,497.375 605.5,497.5 596.125,499.0"/>
    <polyline points="594.125,499.625 589.125,501.5 585.25,503.625 582.25,505.875 580.25,508.125 578.875,511.0 578.625,513.125 579.5,515.625 580.5,516.75"/>
    <polyline points="581.125,517.25 583.375,518.75 585.375,519.625 590.5,520.75 595.375,521.125 603.625,520.5 614.125,518.125 623.75,514.75 631.125,511.5"/>
    <polyline points="635.125,509.5 643.75,504.75 653.125,498.75 663.25,491.375 673.875,482.625 689.75,467.125 694.75,461.5 703.625,450.0 710.375,438.875 712.625,433.875 713.875,429.25 714.375,425.375 713.75,422.25 712.25,420.0 709.75,418.625 706.25,418.125 702.0,418.5 697.125,419.75"/>
    <polyline points="691.625,421.75 685.75,424.25 679.625,427.375 660.25,438.5 624.625,461.75 605.125,474.0 585.375,485.125 570.0,492.625"/>
    <polyline points="567.375,493.75 560.125,496.875 546.75,501.875 529.375,507.5"/>
    <polyline points="528.625,507.75 518.75,510.875 515.5,512.375 515.0,513.0 515.125,513.875 516.625,515.5 518.75,517.125"/>
    <line x1="518.875" x2="525.375" y1="517.375" y2="522.25"/>
    <polyline points="525.75,522.5 534.0,528.0 539.75,531.375"/>
    <polyline points="540.5,531.875 548.125,535.75 552.875,537.875 558.375,539.875 568.75,542.625 575.0,543.5"/>
    <polyline points="577.375,543.75 579.875,544.0 591.375,543.75 601.875,542.25 610.25,540.25 614.875,538.875 625.25,535.125 631.0,532.625 643.875,526.125 658.75,517.125 667.0,511.5 685.125,497.625 695.0,489.25 705.125,479.75 715.625,469.25 726.125,457.875"/>
    <polyline points="736.25,445.75 745.75,433.0 754.125,420.125 761.0,407.75 765.75,396.25 768.0,386.25 767.5,378.5 764.25,373.125 758.375,370.625 750.25,370.75 740.25,373.5 728.875,378.375 717.0,384.875 704.75,392.5 692.625,400.75 681.0,409.25 618.25,458.375 605.875,467.125 600.375,470.625"/>
    <polyline points="595.25,473.75 590.375,476.5 581.75,480.75 573.875,483.875 566.875,486.0 557.5,488.0 549.25,488.75 539.375,488.5 528.625,486.875 522.625,485.25"/>
    <polyline points="520.75,484.625 511.625,481.125 506.375,478.5 497.875,473.375 485.75,464.5 476.75,456.75"/>
    <polyline points="474.875,455.125 464.875,445.875 443.125,424.875 426.625,409.875 413.25,399.0 395.25,385.875"/>
    <polyline points="387.5,380.875 378.5,375.25 368.125,369.25 355.75,362.5 341.125,355.0 323.625,346.625 302.625,337.5 277.625,327.5 248.0,317.125 214.25,307.0 177.375,299.0 140.875,295.625 110.5,301.0 94.125,318.75 98.0,351.125 123.375,396.125 164.25,448.375 211.125,501.125 255.625,549.75 292.375,592.0 319.5,627.25 337.0,656.125 346.375,679.5 349.0,697.75 346.625,711.5 340.625,720.75"/>
    <polyline points="332.75,725.625 324.375,725.75 316.625,721.5 310.625,713.0 306.625,700.875 305.25,685.75 306.125,668.5 309.125,650.25 313.75,631.875 319.375,613.875 325.75,596.875 332.25,581.25 338.875,567.125 345.25,554.75 351.375,543.75 357.0,534.375 362.375,526.25 371.75,513.75 376.0,509.0 383.5,501.875 390.25,497.25 396.25,494.375"/>
    <polyline points="399.0,493.5 404.375,492.375 409.25,491.875 420.5,492.25 438.125,493.625 445.75,493.25"/>
    <polyline points="446.75,493.125 448.625,492.875 453.125,491.375 455.375,489.5 456.25,487.375 456.25,485.875 455.625,483.625"/>
    <polyline points="455.25,483.125 453.25,479.875 448.25,474.75 440.75,468.875 431.875,463.25"/>
    <polyline points="430.25,462.25 424.75,459.25 414.25,454.25 402.25,449.75 394.625,447.625 389.5,446.625 382.25,446.0 377.875,446.25 374.25,447.25"/>
    <polyline points="372.75,448.0 370.625,450.25 370.0,451.625 369.625,453.125 370.0,456.875 371.75,461.125 373.125,463.5 379.0,471.0 387.0,478.625 396.375,485.75 406.125,491.875 412.625,495.25 419.0,498.125"/>
    <polyline points="422.0,499.375 427.875,501.5 433.5,503.125 441.0,504.75 447.75,505.75 455.375,506.125 458.75,506.0 465.625,505.25 470.0,504.25"/>
    <polyline points="470.875,504.0 474.0,502.75 477.5,500.125 478.75,497.75 478.875,496.375 478.375,494.0"/>
    <polyline points="478.125,493.5 475.75,489.5 472.375,485.625 467.75,481.125 461.5,475.875"/>
    <polyline points="460.25,475.0 448.625,466.375 434.5,457.5 418.375,448.875 405.0,442.875"/>
    <polyline points="401.25,441.375 385.375,436.0 381.125,434.875 368.5,432.5 360.375,432.0 356.625,432.25 353.125,432.75 347.5,435.0 345.5,436.875 344.0,439.125 343.25,441.75 343.25,444.875 343.875,448.5 345.375,452.375 347.5,456.625 350.375,461.0 353.75,465.625 362.125,475.125"/>
    <polyline points="367.0,479.75 377.25,488.625 387.875,496.625 398.5,503.5 408.625,509.125 413.5,511.5 427.0,517.0 438.75,520.5 445.625,521.875 452.0,522.75 460.375,523.375 467.5,523.25"/>
    <polyline points="469.75,523.25 485.375,521.5 501.5,518.625"/>
    <polyline points="502.125,518.5 508.375,517.75 511.375,517.75 513.875,518.125"/>
    <polyline points="514.25,518.125 518.5,519.5 522.625,521.625"/>
    <line x1="523.0" x2="536.0" y1="521.875" y2="529.75"/>
    <polyline points="536.75,530.125 541.5,532.875 552.125,537.875 557.5,539.875 565.75,542.25"/>
    <polyline points="567.625,542.625 578.625,544.125 586.75,544.25 593.0,543.875 600.125,542.875 604.125,542.0 617.625,538.25 622.75,536.375 634.375,531.25 647.75,524.125 655.375,519.625 663.375,514.25 672.0,508.25 681.125,501.125"/>
    <polyline points="690.875,493.125 700.875,484.125 711.375,474.0 721.875,462.875 732.375,450.875 742.25,438.375 751.25,425.375 758.875,412.625 764.625,400.5 768.0,389.75 768.75,381.0 766.625,374.5 761.75,370.75 754.375,369.75 745.0,371.5 734.125,375.625 722.25,381.5 710.0,388.875 697.75,397.0 685.875,405.5 663.75,422.5 628.25,450.75"/>
    <polyline points="621.0,456.25 608.25,465.5 592.375,475.375 583.375,480.0 571.875,484.625 565.0,486.5 558.875,487.75 550.375,488.625 545.25,488.75 540.5,488.5 531.625,487.375"/>
    <polyline points="529.5,486.875 525.5,486.0 517.875,483.5 512.5,481.25 505.5,477.75 495.25,471.25 485.0,463.375"/>
    <polyline points="483.25,461.875 468.25,448.375 440.375,420.5 424.25,405.125"/>
    <polyline points="420.375,401.625 406.375,389.875 394.125,380.625 386.75,375.5 368.0,363.625 341.5,349.0 323.875,340.25 302.375,330.375 276.25,319.375 244.625,307.5 207.375,295.5 165.375,285.0 122.375,279.25 85.5,283.25 65.0,302.5 69.75,340.0 101.375,393.25 151.25,454.75 255.75,570.75 293.875,617.375"/>
    <polyline points="319.25,656.0 332.875,687.375 336.75,712.375 333.125,731.625 324.125,745.125 312.125,752.5 299.5,753.5 288.0,748.0 279.25,736.25 274.125,719.125 272.75,697.875 274.875,674.125 279.75,649.5 286.375,625.25 294.125,602.5 302.125,581.75 310.0,563.25 317.375,547.375 324.125,533.75 330.25,522.375 335.875,513.0 340.875,505.5 345.375,499.5 349.5,494.75 353.5,491.25 357.125,488.75"/>
    <polyline points="360.75,487.0 364.25,486.0 367.75,485.5 371.125,485.5 378.125,486.5 388.625,489.625 406.125,496.0 416.0,499.25 430.75,503.125 440.875,504.75"/>
    <polyline points="443.125,505.0 449.5,505.5 454.875,505.5 461.125,505.0 468.125,503.625 471.5,502.375 474.5,500.625"/>
    <polyline points="475.0,500.25 476.125,499.0 477.0,497.375 477.125,494.625 475.875,491.375 473.375,487.875"/>
    <polyline points="472.875,487.25 468.125,482.25 461.25,476.25 455.0,471.375 445.25,464.625"/>
    <polyline points="443.375,463.375 432.75,456.875 422.375,451.25 413.25,446.875 403.0,442.5 391.625,438.5 379.375,435.125 371.125,433.5 363.125,432.875"/>
    <polyline points="359.375,433.0 355.875,433.375 352.75,434.125 350.0,435.25 347.875,436.875 346.125,438.75 345.125,441.25 344.75,444.125 345.125,447.375 346.125,451.0 347.875,454.875 353.375,463.5 361.0,472.625 365.5,477.125 370.25,481.625 380.5,490.0 390.875,497.5 401.125,504.0 411.0,509.25 415.625,511.375"/>
    <polyline points="420.125,513.375 428.625,516.5 436.375,518.875 449.875,521.5 460.875,522.25 467.875,522.25 479.25,521.25 485.125,520.375"/>
    <line x1="486.5" x2="506.0" y1="520.125" y2="516.375"/>
    <polyline points="506.5,516.375 512.125,516.125 514.125,516.5"/>
    <polyline points="514.375,516.625 517.0,517.5 520.5,519.5"/>
    <line x1="520.875" x2="530.625" y1="519.75" y2="526.125"/>
    <polyline points="531.25,526.5 540.875,532.25 545.375,534.625 552.125,537.625"/>
    <polyline points="553.5,538.125 560.625,540.75 567.625,542.5 571.75,543.25 581.125,544.125 589.75,544.0 600.0,542.75 608.125,541.0 617.375,538.125"/>
    <polyline points="622.5,536.25 628.125,534.0 640.5,528.0 654.875,519.75 662.875,514.5 671.375,508.375 680.5,501.5 690.125,493.5 700.25,484.625 710.625,474.5 721.125,463.625 731.5,451.75 741.5,439.125 750.5,426.25 758.125,413.625 764.0,401.5 767.5,390.75 768.375,381.75 766.5,375.125 761.75,371.25 754.625,370.125 745.375,371.625 734.625,375.5 722.875,381.375"/>
    <polyline points="710.75,388.5 698.5,396.625 675.125,413.625 628.75,450.375 614.875,460.875 603.0,469.0 597.625,472.375 588.0,477.75 583.75,479.875 575.75,483.25 565.25,486.5 559.0,487.75 553.25,488.5"/>
    <polyline points="550.5,488.625 543.0,488.75 536.0,488.125 529.625,487.0 523.625,485.5 518.0,483.625 510.75,480.625 500.375,474.875"/>
    <polyline points="498.75,473.75 490.25,467.75 477.75,457.5 468.125,448.625 450.375,431.25"/>
    <polyline points="447.75,428.75 433.125,414.75 417.75,401.25 401.875,389.0 387.625,379.125 368.625,367.5 356.625,360.75 342.125,353.25 324.75,344.75 303.75,335.375 278.5,325.0 248.375,314.0 213.375,303.25 174.75,294.125 135.875,289.625"/>
    <polyline points="102.75,294.0 83.875,311.625 86.875,345.0 113.375,392.375 156.75,447.625 206.625,503.5 253.375,554.875 291.25,599.0 318.5,635.875 335.25,666.0 343.25,690.25 344.0,709.125 339.5,723.125 331.5,732.125 321.875,736.125 312.125,734.875 303.625,728.5 297.5,717.375 294.0,702.25 293.5,684.25 295.625,664.375 299.875,643.75 305.625,623.375 312.25,604.0 319.25,586.125 326.375,570.0"/>
    <polyline points="333.25,555.75 339.75,543.375 345.75,532.75 351.25,523.75 356.375,516.25 361.0,510.125 365.375,505.0 369.375,500.875 373.125,497.625 376.625,495.125 380.0,493.25 386.25,490.875 392.125,489.875 395.0,489.75 403.25,490.375 420.75,493.75"/>
    <polyline points="423.0,494.25 435.375,496.25 443.75,496.875 452.625,496.25 456.375,495.375 458.5,494.375"/>
    <polyline points="459.0,494.125 460.125,493.375 461.75,491.375 462.25,490.0 462.25,488.375 461.375,485.625 459.875,483.0 458.25,481.0"/>
    <polyline points="457.625,480.25 453.75,476.375 447.375,471.125 443.375,468.25 433.625,462.0 423.5,456.5"/>
    <polyline points="421.25,455.375 408.5,449.625 397.0,445.625 385.0,442.75 379.125,442.0 371.125,442.25 366.875,443.5 365.125,444.5 363.75,445.75 362.75,447.25 362.125,449.0 361.875,451.0"/>
    <polyline points="362.125,453.25 363.875,458.375 365.5,461.25 367.375,464.25 372.375,470.375 378.625,476.625 389.25,485.5 400.75,493.25 408.5,497.625 415.875,501.25 429.5,506.5 438.625,508.875"/>
    <polyline points="441.375,509.5 451.5,510.875 455.875,511.125 463.375,511.0 471.0,510.125 477.75,508.625 481.125,507.5"/>
    <polyline points="481.75,507.125 485.5,505.0 487.0,503.25 487.75,501.25 487.25,498.5"/>
    <polyline points="487.125,498.0 484.0,493.375 481.5,490.625 474.375,484.0"/>
    <polyline points="473.5,483.25 463.75,475.25 456.625,470.0 443.875,461.375 434.625,455.75"/>
    <polyline points="432.0,454.25 417.125,446.375 410.125,443.125 398.375,438.25 385.25,433.625 375.875,431.0 371.0,430.0 366.25,429.125 357.0,428.125 352.625,428.125 348.5,428.5 344.75,429.375 341.625,430.75 339.0,432.625 337.125,435.0"/>
    <polyline points="336.0,437.875 335.75,441.375 336.5,445.25 338.0,449.75 340.375,454.5 343.5,459.625 352.0,470.375 362.5,481.125 368.25,486.25 386.125,500.125 397.875,507.75 408.875,513.875 419.125,518.625 428.5,522.125 436.875,524.625 444.5,526.375"/>
    <polyline points="448.0,527.0 457.5,528.0 465.75,528.25 479.0,527.375 498.125,524.75"/>
    <polyline points="499.125,524.625 506.75,523.875 510.75,523.875 514.25,524.125 518.875,525.0"/>
    <polyline points="519.5,525.125 526.5,527.625 536.875,532.625"/>
    <polyline points="537.75,533.0 548.0,537.75 554.5,540.375 564.125,543.25 572.25,544.75"/>
    <polyline points="574.5,545.0 579.375,545.5 587.875,545.5 594.5,545.0 606.0,542.875 610.5,541.75 620.25,538.5 625.75,536.375 638.125,530.75 652.375,522.75 660.375,517.625 669.0,511.75 678.125,505.0 687.875,497.125 698.125,488.25 708.75,478.25 719.625,467.25"/>
    <polyline points="730.5,455.125 741.0,442.25 750.75,429.0 759.125,415.625 765.875,402.75 770.25,391.0 771.875,381.0 770.625,373.5 766.5,368.75 759.5,366.875 750.375,368.0 739.375,371.625 727.375,377.375 714.75,384.625 702.125,393.0 689.75,401.75 666.75,419.5 622.75,454.875 609.625,464.5 603.875,468.375"/>
    <polyline points="598.5,471.875 588.875,477.375 576.625,483.0 569.5,485.375 560.0,487.5 551.5,488.375 541.625,488.125 534.875,487.375 524.625,484.875"/>
    <polyline points="522.75,484.25 515.375,481.5 508.5,478.0 501.75,474.0 495.125,469.375 490.25,465.5 480.25,456.5"/>
    <polyline points="478.625,454.875 470.25,446.0 462.25,436.125 456.5,427.625 453.5,421.125 452.75,417.0 452.875,415.0 453.5,413.25 454.875,411.625 457.0,410.375 460.25,409.5 464.875,409.125"/>
    <polyline points="471.125,409.625 479.75,410.875 491.375,413.625 506.625,418.0 526.75,424.875 552.75,434.75 586.0,448.625 627.375,467.25 676.75,491.25 732.125,520.0 788.625,551.375 838.625,581.125 873.875,603.625 890.25,614.875 875.625,602.0 857.5,583.5 839.625,561.25 824.875,537.625 814.5,514.0 808.25,490.875 805.5,468.375 805.25,447.0 806.875,408.25 806.5,392.0"/>
    <polyline points="804.125,378.625 799.25,368.75 791.5,362.75 781.25,360.625 768.875,362.0 755.0,366.625 740.375,373.625 725.625,382.25 711.25,391.875 697.5,401.875 673.0,421.375 635.875,452.25 616.0,467.5 605.25,474.625 596.125,479.75 591.875,481.75 584.125,484.75"/>
    <polyline points="580.625,485.875 574.0,487.625 567.875,488.625 559.5,489.25 549.375,488.875 542.625,488.0 532.25,485.625 526.625,483.75 521.25,481.5"/>
    <polyline points="519.5,480.75 514.5,478.25 509.625,475.375 500.75,468.75 492.75,461.125 488.375,455.5 486.0,451.125"/>
    <polyline points="485.375,449.625 484.75,446.875 485.0,444.125 485.5,443.0 487.875,440.875 492.25,439.5 495.5,439.25 499.75,439.375 505.0,439.875 511.625,441.0 519.875,442.875 542.125,449.375 556.875,454.5 574.5,461.25 595.125,469.625 618.75,479.875 645.375,492.125 673.875,506.0 703.0,520.75 730.75,535.625 754.875,549.125"/>
    <polyline points="773.375,559.75 789.375,569.125 787.5,567.25 771.875,554.25 761.375,545.0 750.75,535.125 740.875,525.125 732.0,515.5 724.375,506.5 718.0,498.125 712.75,490.625 704.75,477.625 694.625,459.625 690.25,454.125 688.0,452.125 683.0,449.5 680.125,448.875 677.125,448.75"/>
    <polyline points="674.0,448.875 667.25,450.375 659.875,452.875 656.125,454.375 644.75,459.875 623.0,472.25 604.875,483.5 592.875,491.375"/>
    <polyline points="590.875,492.75 580.625,500.0 575.75,504.125 573.0,506.875 571.0,509.5 569.75,511.875 569.0,514.875 569.125,516.375"/>
    <polyline points="569.25,517.0 570.5,519.625 571.625,520.875 574.625,523.0 578.875,524.875 584.625,526.25 588.125,526.5 594.25,526.625 599.0,526.25"/>
    <polyline points="601.625,525.875 613.75,523.125 621.0,520.625 629.25,517.25 638.375,512.625 648.5,506.75 659.75,499.25 665.75,494.75 678.25,484.5 691.125,472.375 697.5,465.75 709.375,451.75 719.125,437.5 722.75,430.75"/>
    <polyline points="725.25,424.5 726.75,418.875 726.875,414.25 725.75,410.75 723.25,408.375 719.625,407.25 714.875,407.375 709.125,408.5 702.625,410.75 695.625,413.875 688.25,417.75 672.875,426.625 657.75,436.5 618.5,463.0 602.875,472.75 593.75,478.0"/>
    <polyline points="589.5,480.375 578.0,486.0 568.125,490.25 559.5,493.375 549.75,496.25 543.5,497.75 534.5,499.25 528.375,499.75"/>
    <polyline points="527.0,499.875 521.875,500.0 517.25,499.75 512.125,499.0 506.5,497.5 501.25,495.375"/>
    <polyline points="500.375,495.0 491.375,490.125 475.25,478.875"/>
    <polyline points="473.875,478.0 461.875,469.25 448.0,459.875 435.125,451.875 418.5,442.875"/>
    <polyline points="414.625,440.875 401.75,434.875 386.625,428.875 375.5,425.125 363.625,422.0 357.5,420.625 345.375,419.0 339.5,418.875 334.125,419.25 329.25,420.25 325.0,421.875 321.75,424.375 319.5,427.625 318.375,431.75 318.625,436.625 320.125,442.25 323.0,448.5 326.875,455.25 332.0,462.25"/>
    <polyline points="338.0,469.5 344.625,476.75 351.75,483.875 359.25,490.75 374.375,503.125 389.125,513.625 396.125,518.0 409.125,525.375 415.125,528.25 426.0,532.875 431.125,534.625 440.25,537.125 448.375,538.75 455.5,539.5 462.0,539.875 470.625,539.625"/>
    <polyline points="473.125,539.5 501.5,536.125 505.75,535.875 514.5,536.0"/>
    <polyline points="515.625,536.125 520.25,536.625 528.0,538.375 535.0,540.5 545.25,544.25"/>
    <polyline points="546.75,544.75 556.25,547.75 566.125,550.125 573.125,551.25 581.25,551.75 591.0,551.5 594.625,551.125 602.75,549.75 612.25,547.375"/>
    <polyline points="617.5,545.75 629.375,541.25 636.0,538.125 651.25,530.0 669.125,518.5 679.125,511.25 689.875,502.75 701.375,492.875 713.5,481.75 726.0,469.125 738.75,455.125 751.125,440.125 762.75,424.25 772.875,408.25 780.875,392.75 785.875,378.75 787.5,367.125 785.25,358.625 779.5,353.75 770.375,352.75 758.625,355.25 745.125,360.875 730.625,368.75"/>
    <polyline points="716.0,378.25 701.5,388.625 687.875,399.25 675.125,409.75 634.625,444.875 619.75,457.375 607.5,467.0 602.25,470.75 588.625,479.125 577.5,484.0 568.125,486.5 562.5,487.375 557.25,487.75"/>
    <polyline points="554.75,487.75 545.625,487.0 539.5,485.875 535.625,484.875 528.375,482.375 521.875,479.375 517.25,476.75 510.5,471.875"/>
    <polyline points="509.25,470.875 504.875,466.5 501.625,462.0 501.125,460.75 500.25,457.5 500.625,455.375 502.125,453.625 503.25,452.875 506.875,451.75 509.5,451.5 516.625,451.75 527.25,453.5 534.125,455.125"/>
    <polyline points="542.375,457.375 563.25,464.125 576.25,468.875 607.5,481.625 625.625,489.5 645.0,498.375 684.625,517.875 718.875,535.875 739.875,547.625 744.25,550.0 744.75,550.0 713.625,527.625 678.125,501.375"/>
    <polyline points="672.75,497.625 663.625,491.5 656.25,487.25 650.25,484.25 645.25,482.5 643.0,482.0 637.25,481.375 632.375,481.875 629.625,482.625 624.875,484.625 621.0,487.0"/>
    <polyline points="620.25,487.625 617.0,490.625 615.375,493.125 615.125,494.125 615.375,495.5 616.25,496.25 617.125,496.625 619.625,496.75"/>
    <polyline points="620.5,496.625 624.375,495.875 629.25,494.125 636.5,490.5 641.375,487.5 648.0,482.625 655.625,475.625"/>
    <polyline points="657.0,474.125 660.375,469.875 662.875,465.0 662.875,462.375 662.5,461.75 661.125,460.875 657.875,460.75 653.25,462.0 647.625,464.25 641.375,467.375"/>
    <polyline points="639.25,468.5 632.625,472.25 624.25,477.5 613.125,485.25 605.75,491.0 602.25,494.125 598.75,498.0"/>
    <polyline points="598.125,498.75 596.125,502.0 595.625,504.125 595.75,506.0 596.625,507.5 599.0,509.125 601.75,509.875 605.375,510.125 608.25,509.875"/>
    <polyline points="609.875,509.75 617.375,508.125 626.875,504.75 638.125,499.125 647.75,493.125 658.125,485.5 668.625,476.375 675.125,469.625 681.125,462.625"/>
    <polyline points="683.625,459.25 685.875,455.875 689.125,449.625 690.5,444.375 690.375,442.375 689.75,440.625 688.625,439.5 687.0,438.625 684.875,438.375 679.25,439.0 675.875,440.0 672.25,441.25 664.25,444.875 647.0,454.25 626.0,467.125"/>
    <polyline points="622.125,469.625 577.25,497.625 569.25,503.0 564.625,506.75"/>
    <polyline points="563.625,507.625 559.25,512.25 557.75,515.125 557.25,517.125 557.25,518.5 557.875,521.0 559.0,522.875 560.625,524.75"/>
    <polyline points="561.25,525.25 564.375,527.625 568.625,529.625 571.25,530.625 577.375,532.125 583.0,532.875 589.75,533.0 594.875,532.75 604.0,531.375"/>
    <polyline points="607.375,530.625 614.875,528.5 623.5,525.375 628.125,523.375 638.5,518.375 650.125,511.625 663.25,502.875 670.25,497.625 685.125,485.375 692.875,478.25 708.375,462.25 715.75,453.5 722.75,444.5 729.0,435.5 734.25,426.75 738.25,418.375 740.875,410.875 741.75,404.5 740.875,399.5"/>
    <polyline points="738.25,396.125 734.0,394.375 728.25,394.25 721.25,395.875 713.25,398.75 704.625,402.75 695.625,407.75 677.25,419.125 622.375,457.875 604.75,469.5 590.0,477.875 581.5,482.125 573.75,485.5"/>
    <polyline points="570.25,486.875 563.625,489.125 554.625,491.5 549.375,492.625 542.125,493.625 533.5,494.125 527.75,494.0 519.125,493.0 514.5,492.0"/>
    <polyline points="513.0,491.625 504.25,488.75 497.125,485.5 487.125,479.875 476.125,472.5"/>
    <polyline points="474.375,471.375 445.75,451.75 432.875,443.75 416.75,434.625 406.875,429.5 395.625,424.125"/>
    <polyline points="389.375,421.375 368.0,413.125 351.5,408.0 342.75,405.75 333.875,403.875 324.875,402.5 316.125,401.875 307.875,402.0 300.375,403.25 294.125,405.75 289.625,409.625 286.875,415.125 286.5,422.0 288.5,430.375 292.75,440.0 299.125,450.5 307.375,461.625 316.875,472.875 327.375,484.0 338.25,494.75 349.25,504.75 360.125,514.0 370.5,522.25"/>
    <polyline points="380.25,529.625 397.75,541.5 412.625,550.0 425.25,555.75 435.75,559.375 440.375,560.5 448.75,561.875 459.25,562.25 470.75,561.0 486.875,557.75"/>
    <polyline points="488.875,557.375 500.0,555.5 506.625,555.0 511.375,555.0 520.5,555.875 529.625,558.0"/>
    <polyline points="531.25,558.5 536.0,559.875 554.125,566.25 565.5,569.5 573.75,571.125 580.125,571.875 587.375,572.25"/>
    <polyline points="591.25,572.125 600.25,571.375 610.75,569.375 623.5,565.625 630.875,562.875 639.0,559.375 648.0,554.875 658.125,549.25 669.5,542.375 682.125,533.75 696.125,523.25 711.75,510.5 728.875,495.125 747.375,477.0 766.875,456.0 786.625,432.25 805.5,406.375 822.0,379.5 834.375,353.625 840.625,331.0 839.75,313.875 831.25,304.125 816.25,302.375"/>
    <polyline points="796.375,307.875 773.875,319.25 750.875,334.625 729.0,351.875 709.0,369.625 691.5,386.75 676.5,402.625 664.0,416.875 653.625,429.5 638.125,449.875 624.0,470.375 616.0,482.75 612.125,487.875 608.75,491.5 607.125,492.75 603.875,494.5 600.375,495.625"/>
    <polyline points="545.375,487.375 536.625,484.375 526.0,479.25 518.625,474.125 514.875,470.375 513.0,467.625"/>
    <polyline points="512.5,466.625 512.125,464.0 512.625,462.375 514.125,461.0 516.875,460.0 521.125,459.625 527.5,460.0 531.625,460.5 542.0,462.75 564.625,469.5 585.25,477.0 597.25,481.625 610.25,487.125 638.5,499.625"/>
    <polyline points="653.0,506.5 680.25,520.0 713.875,538.0 687.625,522.25 667.875,511.25 661.625,508.125 650.5,503.0 640.625,499.125 632.25,496.625 625.0,495.25"/>
    <polyline points="621.75,494.875 616.0,494.625 611.125,495.0 605.0,496.25 600.25,498.0 595.625,500.75 593.375,502.875 592.25,504.25 591.375,506.25 591.375,508.125"/>
    <polyline points="591.5,508.75 593.0,510.75 595.875,512.25 598.0,512.75 603.25,513.125 608.25,512.625 614.375,511.375 619.125,510.0 627.25,506.875"/>
    <polyline points="630.25,505.5 640.0,500.375 647.125,496.0 654.75,490.75 666.625,481.125 674.375,473.75 681.75,465.875 688.25,457.75 690.875,453.875 695.0,446.5 696.75,440.25 696.75,437.75 696.125,435.75 694.875,434.25 693.0,433.375"/>
    <polyline points="690.5,433.0 684.125,433.875 680.25,435.125 671.5,438.75 662.0,443.5 637.75,457.875 615.875,471.75 588.75,488.25"/>
    <polyline points="586.0,489.75 560.75,504.625 553.5,510.0 551.375,512.0 550.375,513.375"/>
    <polyline points="549.875,514.0 549.125,515.125 548.25,517.5 548.125,519.875 548.375,521.0 550.125,524.375 551.625,526.125 554.25,528.375"/>
    <polyline points="555.0,528.875 557.625,530.625 564.5,533.75 568.875,535.125 574.0,536.25 582.125,537.25 589.625,537.25 598.625,536.375"/>
    <polyline points="602.0,535.75 613.5,532.875 627.625,527.625 638.625,522.25 651.25,515.0 658.125,510.625 673.25,499.75 689.875,485.875 698.625,477.75 707.375,469.0 716.0,459.5 724.5,449.5 732.25,439.125 739.25,428.75 744.875,418.625 749.125,409.25 751.375,401.0 751.625,394.125"/>
    <polyline points="749.875,389.125 745.875,386.125 740.125,385.125 732.75,386.125 724.0,389.0 714.5,393.25 704.375,398.75 694.125,405.0 683.875,411.75 664.25,425.625 623.75,455.625 605.25,468.125 599.875,471.5 585.5,479.375 573.375,484.625"/>
    <polyline points="569.75,485.875 563.0,488.0 556.75,489.5 548.375,490.875 538.625,491.5 530.0,491.125 524.0,490.375 516.75,488.75 511.625,487.125"/>
    <polyline points="509.875,486.5 500.125,482.25 491.875,477.75 481.625,471.125 465.75,459.75"/>
    <polyline points="463.375,458.0 450.5,448.75 437.5,440.0 425.375,432.375 410.375,423.75 398.125,417.375 375.25,406.75 356.5,399.375 334.5,392.0 322.5,388.75"/>
    <polyline points="310.0,386.0 297.375,384.0 285.0,383.0 273.625,383.75 263.75,386.25 256.5,391.125 252.375,398.625 252.0,408.625 255.75,421.25 263.375,435.75 274.25,451.75 287.625,468.375 302.5,484.875 318.0,500.625 333.25,515.375 347.75,528.5 361.125,540.25 373.375,550.25 393.75,566.0 409.625,576.625 416.0,580.25 421.75,583.125 431.125,586.75"/>
    <polyline points="435.125,587.75 438.75,588.25 445.0,588.25 447.875,587.875 453.0,586.5 457.625,584.75 462.0,582.625 474.0,576.125 481.375,572.5 490.125,569.25"/>
    <polyline points="491.875,568.75 496.75,567.5 501.625,566.75 510.75,566.625 519.75,568.125 530.375,571.75"/>
    <polyline points="531.875,572.5 536.625,574.625 560.625,587.625 567.75,591.0 576.0,594.25 585.75,597.125"/>
    <polyline points="589.5,597.75 598.0,598.75 608.125,598.5 614.0,597.875 620.625,596.625 628.125,594.75 636.5,592.0 646.25,588.125 657.25,582.875 670.125,575.875 685.125,566.5 702.5,554.375 722.75,538.625 746.125,518.375 773.0,492.75 802.75,461.125 834.625,423.0 866.0,379.5 893.125,333.25 910.875,289.25 914.75,254.25 902.5,234.0 876.125,231.125 840.75,244.125"/>
    <polyline points="802.75,268.0 767.125,297.375 736.625,328.0 712.5,357.0 694.75,383.25 682.5,406.125 674.875,425.875 671.125,442.75 670.125,457.25 671.25,469.625 673.75,480.125 676.875,489.125 686.875,511.75 687.125,514.5 686.5,516.25 684.625,517.125 681.875,517.125 678.375,516.625 669.375,514.25 653.5,509.25"/>
    <polyline points="648.125,507.5 637.5,504.5 622.625,501.25 613.625,499.875 601.75,499.0 591.5,499.125 580.125,500.5 573.125,502.0 563.875,504.875"/>
    <polyline points="562.375,505.5 556.0,508.625 551.625,511.625 549.875,513.375 547.875,516.25 547.375,518.0 547.375,520.25"/>
    <polyline points="547.5,520.75 548.0,522.375 549.0,524.125 552.875,528.0 559.0,531.875 565.125,534.375"/>
    <polyline points="566.625,534.875 573.125,536.5 579.125,537.375 583.625,537.625 594.5,537.25 604.5,535.625 616.625,532.125 626.125,528.5 631.375,526.25 643.125,520.25 649.5,516.5"/>
    <polyline points="656.375,512.125 671.375,501.5 688.0,488.0 705.5,471.25 714.375,461.875 723.0,451.875 731.0,441.5 738.25,431.0 744.375,420.625 749.0,411.0 751.875,402.25 752.625,394.875 751.25,389.375 747.75,385.875 742.375,384.375 735.25,385.0 726.625,387.5 717.125,391.5 707.125,396.875 696.75,403.0 686.375,409.75 666.375,423.875"/>
    <polyline points="657.125,430.75 632.375,449.25 618.5,459.25 600.875,470.75 595.75,473.875 586.375,478.875 578.0,482.75 570.5,485.625 563.625,487.75 554.375,489.875 541.375,491.25"/>
    <polyline points="539.0,491.25 532.375,491.125 524.375,490.125 515.25,488.0 510.0,486.25 503.375,483.5 493.625,478.25"/>
    <polyline points="492.0,477.375 481.5,470.625 444.0,443.625 433.125,436.625"/>
    <polyline points="429.125,434.0 414.875,425.5 389.625,412.375 373.25,405.0 363.875,401.125 353.75,397.25 342.75,393.5 330.875,389.75 318.375,386.5 305.5,383.625 292.375,381.75 279.75,381.125 268.125,382.0 258.5,385.125 251.625,390.75 248.25,399.125 249.0,410.25 254.0,423.875 262.875,439.5 275.125,456.25"/>
    <polyline points="289.5,473.625 305.25,490.5 321.25,506.5 336.75,521.25 351.25,534.375 376.5,555.75 396.25,570.875 404.375,576.375 417.375,584.375 422.75,587.0 427.5,588.875 435.375,591.0 441.75,591.25 444.625,591.0 447.25,590.375 454.375,587.75 460.75,584.25"/>
    <polyline points="462.75,583.125 472.5,577.25 485.25,570.875 492.0,568.5 498.625,567.0 506.375,566.375"/>
    <polyline points="508.0,566.375 512.5,566.625 518.5,567.625 527.5,570.375 536.875,574.5 547.0,579.875"/>
    <polyline points="548.875,580.875 565.75,589.625 576.625,594.0 586.5,596.625 594.5,597.75 599.0,598.0 609.375,597.625 615.5,596.875 622.25,595.5 629.875,593.375 638.625,590.375 648.5,586.25"/>
    <polyline points="660.0,580.625 673.25,573.125 688.625,563.25 706.5,550.375 727.375,533.75 751.375,512.5 778.625,485.875 808.75,453.125 840.25,414.125 870.75,370.25 896.0,324.5 911.0,282.5 911.625,250.5 896.375,234.0 868.125,234.5 832.25,249.75 794.75,274.75 760.25,304.25 731.25,334.375 708.375,362.625 691.625,387.875 680.25,410.0 673.25,429.0 669.75,445.25 669.0,459.125 670.125,471.0"/>
    <polyline points="672.5,481.125 675.5,489.875 683.375,507.875 684.625,511.5 684.875,514.0 684.0,515.625 682.125,516.5 679.375,516.5 675.875,516.0 671.75,515.0 641.0,505.875 625.75,502.25 612.125,500.0 604.0,499.375"/>
    <polyline points="600.25,499.125 593.25,499.125 586.875,499.5 576.125,501.0 571.5,502.0 562.125,504.75 557.75,506.5 554.0,508.25 550.25,510.625"/>
    <polyline points="549.5,511.125 546.375,513.875 545.25,515.5 544.25,518.125 544.5,521.375 546.25,524.5"/>
    <polyline points="546.625,525.0 549.375,527.75 551.5,529.375 557.0,532.625 566.0,536.125 572.75,537.75"/>
    <polyline points="574.625,538.0 578.875,538.625 583.5,538.875 591.625,538.625 597.875,538.0 604.875,536.625 613.0,534.5 627.25,529.25 632.75,526.75 644.875,520.375 658.75,511.875 674.375,500.5 691.625,486.125"/>
    <polyline points="700.625,477.75 709.75,468.5 718.875,458.5 727.625,448.0 735.75,437.125 743.0,426.25 748.875,415.625 753.125,405.875 755.25,397.25 755.25,390.25 753.0,385.25 748.625,382.375 742.25,381.75 734.125,383.25 724.875,386.625 714.625,391.5 704.125,397.375 682.75,411.375 622.0,456.375"/>
    <polyline points="615.5,461.0 603.625,468.875 588.625,477.625 580.0,481.75 568.625,486.0 558.875,488.625 550.125,490.125 540.125,490.75 533.25,490.5 529.125,490.0"/>
    <polyline points="527.0,489.75 521.25,488.625 515.75,487.125 505.375,483.125 497.0,478.875 483.125,470.125"/>
    <polyline points="481.375,468.75 452.0,447.125 435.375,435.625 417.375,424.25 399.375,414.25"/>
    <polyline points="392.25,410.625 375.75,402.75 355.625,394.375 344.125,390.0 331.625,385.75 318.125,381.75 303.875,378.125 289.25,375.375 274.625,373.75 260.875,373.875 248.875,376.25 239.875,381.5 234.875,390.0 234.625,402.0 239.625,417.0 249.375,434.5 263.125,453.625 279.5,473.375 297.375,492.75 315.375,511.0 332.5,527.5 348.375,542.25 375.0,565.75"/>
    <polyline points="385.75,574.625 402.75,588.0 409.375,592.625 415.0,596.125 419.75,598.75 423.875,600.625 427.5,601.75 430.625,602.25 433.375,602.375 435.875,602.0 440.5,600.375 442.5,599.125 448.5,594.75 458.0,586.125 465.75,579.625"/>
    <polyline points="467.625,578.25 477.125,571.75 484.375,567.875 488.0,566.375 493.125,564.625 498.125,563.375 503.0,562.625 510.875,562.375"/>
    <polyline points="512.375,562.5 515.5,562.75 523.0,564.125 530.75,566.5 537.25,569.0 553.625,576.25"/>
    <polyline points="555.75,577.125 565.0,580.625 573.25,583.125 582.875,585.0 590.625,585.625 594.875,585.75 604.75,585.125 610.375,584.25 623.5,581.0 631.25,578.375 639.875,575.0 649.75,570.375 660.875,564.375 673.625,556.75 688.125,547.0 704.625,534.75"/>
    <polyline points="723.375,519.375 744.5,500.25 767.75,477.125 792.75,449.5 818.375,417.625 842.5,382.625 862.625,346.75 875.375,313.5 878.125,286.875 869.5,270.5 850.625,266.25 824.375,273.5 794.625,289.375 765.0,310.75 737.875,334.375 714.5,357.875 695.375,379.875 680.25,399.75 668.625,417.125 660.25,432.25 654.25,445.125 650.25,456.125 647.875,465.375 646.5,473.375 645.875,485.75"/>
    <polyline points="646.0,490.5 646.375,497.75 646.25,500.375 645.75,502.5 644.875,504.0 643.625,505.25 642.0,506.0 640.0,506.375 637.625,506.5 632.0,506.125 595.875,500.25 581.875,498.625"/>
    <polyline points="578.5,498.375 569.125,497.625 536.875,496.0 529.25,495.25 520.625,493.875"/>
    <polyline points="519.0,493.5 510.0,491.125 504.25,489.0 498.75,486.5 491.625,482.75 482.75,477.25"/>
    <polyline points="481.25,476.125 446.375,452.25 433.75,444.375 417.75,435.375"/>
    <polyline points="413.125,432.875 397.125,425.0 377.375,416.75 362.125,411.375 345.25,406.625 336.5,404.625 327.625,403.125 318.75,402.25 310.375,402.25 302.75,403.25 296.25,405.375 291.25,408.875 288.125,413.875 287.125,420.375 288.375,428.375 292.125,437.5 297.875,447.75 305.5,458.625 314.75,469.75 324.875,480.875"/>
    <polyline points="335.625,491.625 346.5,501.875 357.375,511.25 367.75,519.75 377.75,527.25 395.5,539.625 410.75,548.5 417.5,551.75 423.625,554.5 434.375,558.375 439.125,559.625 447.625,561.125 455.0,561.75 464.625,561.375 472.75,560.25 477.625,559.25"/>
    <polyline points="480.0,558.875 496.0,555.625 506.25,554.625 512.625,554.625 517.25,555.0 523.25,556.0"/>
    <polyline points="524.75,556.375 527.75,557.0 537.25,559.875 557.75,566.875 567.375,569.375 573.0,570.5"/>
    <polyline points="576.0,570.875 582.625,571.5 590.125,571.625 594.375,571.375 603.75,570.125 609.125,569.125 621.375,565.75 636.375,559.875 645.125,555.75 654.875,550.5 665.75,544.0 677.875,536.0 691.375,526.25 706.375,514.25 722.875,499.875 740.75,482.875 759.75,463.0 779.25,440.25 798.375,415.25 815.625,389.0 829.375,362.875"/>
    <polyline points="837.75,339.25 839.25,320.375 833.375,308.125 820.625,303.625 802.5,306.625 781.0,316.125 758.25,330.0 736.0,346.5 715.5,364.0 697.25,381.25 681.375,397.375 668.0,412.125 656.875,425.125 647.625,436.625 633.875,454.875 615.75,481.25 609.75,488.75 606.25,491.875"/>
    <polyline points="604.625,493.0 601.25,494.5 596.0,495.625 590.25,495.75 586.25,495.5 569.5,493.0 555.25,489.875"/>
    <polyline points="553.375,489.375 545.875,487.25 540.625,485.375 531.25,481.375 527.125,479.125 522.25,475.875 520.125,474.125 517.5,471.375"/>
    <polyline points="516.875,470.5 515.0,467.0 515.0,465.375 515.625,463.875 516.25,463.25 518.375,462.125 521.875,461.5 524.25,461.375 530.375,461.875 539.0,463.375 544.375,464.625 557.75,468.375 575.0,474.25 596.25,482.375"/>
  </g>
</svg>
