<?xml version="1.0" encoding="utf-8" ?>
<svg xmlns="http://www.w3.org/2000/svg" xmlns:cc="http://creativecommons.org/ns" xmlns:dc="http://purl.org/dc/elements/1.1/" xmlns:ev="http://www.w3.org/2001/xml-events" xmlns:inkscape="http://www.inkscape.org/namespaces/inkscape" xmlns:rdf="http://www.w3.org/1999/02/22-rdf-syntax-ns" xmlns:sodipodi="http://sodipodi.sourceforge.net/DTD/sodipodi-0.dtd" xmlns:xlink="http://www.w3.org/1999/xlink" baseProfile="tiny" height="27.09333333cm" version="1.2" viewBox="0 0 1024.0 1024.0" width="27.09333333cm">
  <metadata>
    <rdf:RDF>
      <cc:Work>
        <dc:format>image/svg+xml</dc:format>
        <dc:source>vpype read './original_svgs/Strange Attractors #63.svg' linemerge linesimplify write './Strange Attractors #63.svg'
</dc:source>
        <dc:date>2024-08-05T01:35:22.679183</dc:date>
      </cc:Work>
    </rdf:RDF>
  </metadata>
  <defs/>
  <g fill="none" id="layer1" inkscape:groupmode="layer" inkscape:label="1" stroke="black" stroke-width="0.7mm" style="display:inline">
    <polyline points="531.0,663.875 527.25,665.375 522.0,666.875 515.0,668.25 505.875,669.125 494.25,669.25 479.375,668.375 460.75,665.875 437.375,661.25 408.375,653.625 373.0,642.0 331.125,625.5 283.75,603.0 233.625,574.75 186.25,542.0 148.375,508.25 126.125,478.125 121.5,455.75 131.875,443.25 151.875,440.125 175.25,444.125 197.75,452.75 217.0,464.125 232.125,476.75 243.125,489.875 250.625,502.875"/>
    <polyline points="255.25,515.875 258.0,528.375 261.875,562.125 263.75,571.375 266.625,579.375 270.75,585.75 276.25,590.625 282.875,593.75 290.5,595.5 298.875,595.75 307.875,594.75 317.125,592.875 326.5,590.125 335.875,586.875 344.875,583.25 361.875,575.75 407.75,553.5"/>
    <polyline points="412.875,551.25 422.0,547.375 433.875,543.125 444.0,540.25 449.75,539.0 457.5,537.75 464.125,537.25 473.25,537.625 479.0,538.75"/>
    <polyline points="480.25,539.0 482.75,539.875 486.75,541.875 490.875,545.125 492.75,547.375 494.25,549.875 496.0,554.625 496.5,557.75"/>
    <polyline points="496.5,558.875 496.375,563.5 495.25,568.5 492.75,573.75 489.75,577.75 485.25,581.625 481.375,584.125 476.5,586.375 473.5,587.375 466.75,588.875"/>
    <polyline points="462.75,589.5 453.375,590.125 442.0,589.625 435.5,589.0 420.75,586.375 412.5,584.375 394.375,578.875 384.875,575.375 375.125,571.25 355.875,561.75 346.875,556.375 338.75,550.875 331.75,545.5 326.125,540.125 322.0,535.125 319.5,530.625 318.75,526.625 319.5,523.375 321.625,520.75 325.125,518.75 329.5,517.375"/>
    <polyline points="334.75,516.5 340.625,516.125 353.25,516.25 396.125,518.875 415.875,518.875 428.25,517.875 435.625,516.875 445.125,515.0 453.375,512.75"/>
    <polyline points="455.75,512.0 460.375,510.375 466.375,507.75 471.5,505.125 477.125,501.5 480.75,498.625 483.75,495.625 487.875,490.5 489.125,488.25"/>
    <polyline points="489.75,487.125 492.5,481.25 495.25,472.0 499.5,449.75"/>
    <polyline points="499.875,447.625 502.375,436.375 506.625,422.875 510.375,413.625 515.75,403.125 523.5,391.375 530.25,382.75 538.875,373.5 549.625,363.5"/>
    <polyline points="556.0,358.375 563.0,353.25 570.75,348.125 579.25,343.0 588.5,338.125 598.5,333.75 609.125,329.75 620.125,326.5 631.5,324.375 642.875,323.375 653.875,324.0 664.25,326.25 673.5,330.375 681.375,336.5 687.5,344.5 691.75,354.25 693.875,365.375 694.125,377.625 692.5,390.5 689.375,403.625 685.0,416.625 679.75,429.25 673.875,441.125 667.5,452.125 661.0,462.25 654.5,471.375"/>
    <polyline points="648.125,479.625 635.875,493.375 624.75,504.0 614.75,512.0 606.0,518.125 598.125,522.75 584.875,529.125 560.375,538.625"/>
    <polyline points="558.75,539.25 551.875,542.875 547.5,546.0 544.75,548.5 541.625,552.25 539.75,555.25 536.75,562.125"/>
    <polyline points="536.375,563.375 534.375,570.125 530.5,586.5 528.0,594.125 526.25,598.125 524.0,602.25 521.0,606.375"/>
    <polyline points="519.25,608.5 514.75,612.625 512.0,614.625 505.125,618.25 500.75,620.0 489.75,622.625 482.875,623.5 474.875,623.875 465.5,623.75 454.625,623.0 441.875,621.25 427.25,618.5 410.5,614.375 391.625,608.625 370.5,601.125 347.75,591.625 323.875,580.25 299.875,567.0 277.375,552.375 257.75,537.375 242.875,522.75 233.5,509.75 230.125,499.25"/>
    <polyline points="232.375,491.625 239.25,487.0 249.25,485.125 261.0,485.375 273.625,487.25 286.0,490.125 297.875,493.625 308.75,497.25 327.375,504.25 348.25,512.625 358.625,516.25 367.0,518.75 374.125,520.125 380.125,520.625 388.0,520.125 392.625,519.125"/>
    <polyline points="394.875,518.5 400.875,516.125 406.25,513.25 412.5,509.0 416.375,505.625 420.625,500.875 422.25,498.5 424.625,493.625 425.25,491.125"/>
    <polyline points="425.375,490.0 425.625,487.625 425.0,484.25 424.125,482.0 422.875,480.0 419.875,477.25 415.625,475.125 411.875,474.125 404.875,473.75 395.75,475.0 388.25,477.125"/>
    <polyline points="384.125,478.75 374.875,482.875 364.375,488.75 352.875,496.625 346.75,501.25 340.5,506.5 328.125,518.375 322.25,524.875 316.75,531.75 311.75,538.75 307.5,545.75 304.125,552.625 301.875,559.0 300.625,565.0 300.75,570.25 302.125,574.625 304.75,578.0 308.5,580.375 313.25,581.875 318.75,582.25 325.0,581.875 331.75,580.75"/>
    <polyline points="338.75,579.125 353.125,574.25 367.25,568.375 380.625,562.375 414.25,546.375 427.5,540.5 442.375,534.625 451.75,531.375 459.75,529.0"/>
    <polyline points="462.125,528.375 466.625,527.125 479.5,524.625 489.875,523.625 493.75,523.625 497.0,524.0"/>
    <polyline points="497.75,524.125 501.375,525.0 504.625,526.75 507.125,529.25 508.375,531.375"/>
    <polyline points="508.625,531.875 509.75,534.375 510.625,537.375 511.5,542.5 512.0,549.375"/>
    <polyline points="512.0,550.375 512.0,556.875 511.375,562.875 510.375,568.375 507.375,577.25 505.75,580.375 503.625,583.5"/>
    <polyline points="502.375,585.125 497.625,589.875 490.75,594.375 484.625,597.0 476.75,599.125 472.0,599.875 460.75,600.75 454.125,600.625 438.25,599.25 428.875,597.75 418.625,595.5 407.5,592.625 395.375,589.0 382.5,584.375 369.0,579.0 355.25,572.75 341.625,565.625 328.625,558.0"/>
    <polyline points="316.75,550.0 306.625,542.0 298.75,534.25 293.25,527.125 290.5,521.0 290.375,515.875 292.625,511.875 296.875,509.125 302.75,507.5 309.75,506.75 317.5,506.75 333.875,508.125 371.875,513.25 384.375,514.5 400.5,515.0 413.75,514.125"/>
    <polyline points="417.625,513.5 427.875,511.25 436.5,508.375 441.375,506.125 447.75,502.5 453.125,498.625 457.625,494.5 462.375,488.625 465.875,482.5"/>
    <polyline points="466.625,480.875 469.125,474.25 470.75,467.0 471.5,461.125 472.0,452.625 472.0,440.875 471.5,427.25"/>
    <polyline points="471.5,424.375 471.25,411.5 472.0,396.5 473.0,387.875 474.875,378.5 476.25,373.25 480.125,362.0 482.875,355.625 486.25,348.875 490.5,341.5 495.875,333.5 502.5,324.625 510.75,315.0 520.875,304.25 533.5,292.625 549.125,279.75 568.125,265.75"/>
    <polyline points="591.25,251.125 618.875,236.0 651.0,221.75 687.125,209.875 725.625,202.875 763.75,203.625 797.25,214.75 822.25,237.75 835.625,271.75 837.25,313.625 829.0,358.875 814.375,403.375 797.125,443.875 779.75,479.0 764.125,508.0 740.25,549.5 725.75,573.0 721.0,579.625 717.25,583.625 714.125,585.25 711.375,585.0 708.5,583.125 705.25,580.0 701.625,575.875"/>
    <polyline points="697.5,570.875 682.0,553.625 675.875,547.625 663.125,536.25 650.0,526.0 643.5,521.5 631.125,513.625 619.5,507.5 609.125,502.75 604.25,500.875 595.25,498.0 583.625,495.125 570.75,493.5"/>
    <polyline points="568.0,493.25 558.25,493.0 539.5,493.875 529.125,493.625"/>
    <polyline points="528.375,493.5 525.5,493.0 522.0,491.625 519.0,489.25 517.375,487.0 516.625,485.375"/>
    <polyline points="516.375,484.875 515.0,481.0 513.875,474.5 513.5,468.5 513.625,462.625"/>
    <polyline points="513.625,461.375 514.25,454.375 515.25,447.875 516.375,442.5 518.75,434.625 523.375,423.125 529.125,412.75"/>
    <polyline points="531.0,409.875 537.625,401.0 546.375,391.5 553.625,385.0 562.0,378.375 571.875,372.125 577.25,369.125 582.875,366.25 595.0,361.5 607.75,358.375 614.25,357.75 620.625,357.625 626.625,358.25 632.375,359.75 637.625,362.125 642.25,365.25 646.125,369.25"/>
    <polyline points="649.125,374.125 651.375,379.625 652.625,385.875 653.0,392.5 652.5,399.625 651.25,406.875 649.375,414.375 646.75,421.75 643.625,429.0 640.125,436.0 632.25,449.0 628.0,455.0 619.5,465.625 615.125,470.375 606.75,478.625 598.75,485.5 591.375,491.125 578.125,499.5"/>
    <polyline points="575.125,501.125 559.875,508.25 536.25,517.375 532.375,519.125"/>
    <polyline points="531.5,519.625 527.875,521.625 524.5,524.125 522.0,526.875 519.75,530.875"/>
    <polyline points="519.5,531.375 517.875,537.625 516.625,550.25"/>
    <polyline points="516.5,551.25 515.0,564.125 513.0,572.625 510.75,578.75 507.0,585.375"/>
    <polyline points="505.75,587.0 501.0,592.0 499.0,593.625 494.125,596.75 488.0,599.5 480.0,601.75 469.75,603.375 463.625,603.625 448.875,603.25 440.125,602.25 430.25,600.625 419.5,598.375 407.5,595.375 394.5,591.375 380.625,586.5 366.0,580.5 351.125,573.625 336.25,566.0 322.125,557.5"/>
    <polyline points="309.375,548.75 298.5,540.0 290.25,531.5 284.75,523.875 282.375,517.375 282.875,512.125 285.875,508.25 291.125,505.75 297.875,504.375 305.75,504.0 314.25,504.25 331.75,506.375 370.5,512.5 382.875,513.875 388.5,514.25 398.625,514.375 403.125,514.25 411.375,513.375"/>
    <polyline points="415.125,512.875 421.875,511.375 427.75,509.5 433.125,507.375 439.875,503.75 445.5,499.875 450.25,495.625 455.125,489.75 458.0,485.125 460.125,480.25"/>
    <polyline points="460.75,478.625 462.25,473.375 463.125,467.875 463.5,462.125 463.25,453.875 462.5,447.25 460.625,437.875 459.375,432.875 456.875,425.125"/>
    <polyline points="455.875,422.375 451.0,411.25 446.0,402.75 444.0,399.875 439.25,394.375 433.25,389.125 429.75,386.75 421.0,382.875 415.5,381.625 409.25,380.75 401.875,380.75 393.125,381.75 382.625,384.0 370.125,388.0 355.125,394.25 337.0,403.5 315.25,416.5 289.125,434.5"/>
    <polyline points="258.5,458.625 223.5,490.0 185.5,529.625 147.5,576.5 115.0,627.875 94.25,678.125 90.75,719.75 105.875,746.375 135.5,755.75 172.375,750.5 209.5,735.125 241.875,714.75 267.125,692.875 284.875,671.625 295.625,651.75 300.375,633.625 300.375,616.875 296.875,601.375 291.0,586.875 271.75,549.0 268.0,538.75 266.375,529.875 267.375,522.75 270.625,517.125"/>
    <polyline points="276.0,513.25 283.0,510.75 291.125,509.375 300.0,509.125 309.25,509.5 327.5,511.375 352.25,515.0 366.5,516.75 379.0,517.75 389.875,518.125 399.375,517.625 407.875,516.625 418.75,514.25 427.75,511.25"/>
    <polyline points="430.5,510.0 437.75,506.375 443.75,502.5 448.875,498.375 453.125,494.0 456.625,489.5 459.375,484.75 462.125,478.25 463.625,473.0"/>
    <polyline points="464.0,471.25 464.75,465.625 465.0,457.625 464.5,449.0 463.875,444.375 461.0,429.375 458.75,421.125 455.875,412.25"/>
    <polyline points="454.875,409.25 451.0,399.875 447.875,393.5 442.0,383.625 437.0,377.25 434.0,374.25 430.625,371.25 426.75,368.625 422.25,366.125 417.125,364.125 411.0,362.75 403.625,362.0 395.0,362.25 384.375,363.875 371.5,367.375 355.75,373.375 336.25,382.75 312.0,396.75 282.375,416.75 246.375,444.625"/>
    <polyline points="204.125,482.375 157.125,531.375 109.875,590.75 70.625,656.125 49.5,718.0 53.75,764.875 82.375,788.625 126.25,789.375 173.375,773.25 215.0,748.25 246.375,720.5 266.5,693.125 276.375,667.625 277.5,644.0 272.0,621.875 262.0,600.75 249.625,580.75 237.25,561.75 227.0,544.25 220.375,529.0 218.125,516.375 220.5,506.875 227.0,500.625 236.375,497.125 247.75,496.125 260.0,496.875"/>
    <polyline points="272.5,499.0 284.5,501.75 295.75,505.0 306.125,508.25 338.625,519.375 350.75,522.875 360.875,525.125 369.75,526.125 373.75,526.25 377.625,526.25 384.75,525.5 388.125,525.0 394.375,523.5 400.25,521.625 408.125,518.25"/>
    <polyline points="410.625,517.0 415.25,514.5 423.375,509.125 428.5,505.0 434.25,499.25 437.625,494.875 441.0,488.875 442.625,484.25 443.25,481.125"/>
    <polyline points="443.5,479.625 443.75,476.5 443.375,471.625 441.5,465.25 439.875,462.125 437.75,459.0 433.5,454.75 427.5,451.0 422.25,449.125 419.25,448.375 415.875,448.0 408.0,447.75"/>
    <polyline points="403.375,448.25 398.25,449.0 386.25,452.25 379.375,454.75 371.625,458.125 363.0,462.5 353.625,467.75 343.375,474.25 332.375,482.125 320.5,491.375 308.125,502.0 295.25,514.25 282.625,527.875 270.5,542.625 259.5,558.0 250.625,573.625 244.25,588.5 241.125,601.875 241.625,613.25 245.5,621.75 252.75,627.375 262.5,629.875 274.125,629.75 286.75,627.25 300.0,623.125"/>
    <polyline points="313.0,617.75 325.375,611.75 337.125,605.375 347.75,599.125 357.625,593.125 398.5,566.125 411.0,558.625 420.5,553.875 428.0,551.125 434.125,549.75 439.25,549.375"/>
    <polyline points="440.875,549.375 447.25,550.25 449.375,550.875 452.75,552.625 455.0,554.625 456.25,556.875 456.375,558.75 455.875,560.5"/>
    <polyline points="455.5,561.125 453.875,562.875 449.125,565.375 443.25,566.625 437.625,567.0 433.25,566.875 425.75,566.0 417.5,564.25 411.75,562.625"/>
    <polyline points="408.875,561.625 400.5,558.125 393.25,554.0 389.5,551.25 388.0,549.75 386.75,548.375 385.25,545.875 385.0,544.625 385.5,542.5 386.25,541.5 388.5,539.875 393.625,538.25 398.125,537.5 403.0,537.125"/>
    <polyline points="405.625,537.0 421.875,537.0 439.75,538.125 452.625,539.75 463.125,542.125"/>
    <polyline points="464.625,542.5 468.75,544.0 472.375,545.75 476.25,548.375 477.875,549.875 479.25,551.375 481.25,554.75 482.375,558.5 482.375,561.625"/>
    <polyline points="482.25,562.625 481.875,564.75 481.0,566.875 479.75,569.125 477.0,572.375 471.25,576.375 467.25,578.125 462.25,579.625 459.375,580.125 449.125,581.25 440.625,581.0 430.75,580.0"/>
    <polyline points="425.25,579.125 413.25,576.5 400.125,572.5 393.375,570.125 386.5,567.25 379.75,564.25 373.125,560.875 366.875,557.375 355.875,550.125 351.5,546.375 348.0,542.875 345.5,539.5 343.875,536.375 343.375,533.625 343.875,531.25 345.125,529.25 347.375,527.5 350.375,526.25 357.875,524.5 372.0,523.75"/>
    <polyline points="377.0,523.75 411.125,524.5 431.5,524.25 451.0,522.875 468.0,520.625"/>
    <polyline points="470.0,520.375 490.125,516.625 498.875,514.625"/>
    <line x1="499.5" x2="508.0" y1="514.5" y2="512.375"/>
    <polyline points="508.25,512.375 510.25,511.625 511.25,510.75 511.5,509.875 511.25,503.75"/>
    <line x1="511.25" x2="510.625" y1="503.5" y2="495.375"/>
    <line x1="510.625" x2="510.0" y1="494.875" y2="478.5"/>
    <polyline points="510.0,477.625 510.125,469.25 510.875,458.875 512.0,451.0 513.5,443.75"/>
    <polyline points="514.0,441.875 516.375,433.5 521.375,421.375 525.75,413.125 534.125,401.0 542.875,391.0 550.25,384.0 558.875,376.875 569.125,369.875"/>
    <polyline points="574.75,366.5 580.75,363.25 587.125,360.375 593.875,357.75 600.75,355.5 607.875,353.75 615.0,352.625 622.125,352.25 629.0,352.625 635.5,354.0 641.5,356.25 646.75,359.5 651.25,363.75 654.875,369.0 657.375,375.0 659.0,381.75 659.5,389.25 659.0,397.0 657.625,405.125 655.375,413.375 652.5,421.5 649.0,429.375 645.125,437.125 641.0,444.375 632.0,457.75"/>
    <polyline points="627.375,463.625 618.125,474.125 609.25,482.75 600.875,489.875 593.125,495.625 582.625,502.25 573.5,507.125 561.0,512.875 549.375,517.5"/>
    <polyline points="547.75,518.125 538.5,522.0 533.5,524.625 528.5,528.25 525.375,531.75"/>
    <polyline points="524.875,532.25 522.375,536.75 521.125,540.5 520.125,544.5 518.875,552.25"/>
    <polyline points="518.75,553.25 516.625,566.875 514.25,575.75 511.5,582.25 509.5,585.625 507.0,589.0"/>
    <polyline points="505.625,590.625 499.875,595.75 494.75,598.875 491.75,600.25 484.125,602.875 474.5,604.75 462.0,605.5 446.125,604.625 436.5,603.375 425.875,601.375 414.125,598.75 401.25,595.125 387.25,590.5 372.25,584.875 356.75,578.125 341.125,570.375 325.875,561.875 311.625,552.75 299.25,543.375"/>
    <polyline points="289.25,534.375 282.125,525.875 278.375,518.5 277.625,512.375 280.0,507.875 284.625,504.75 291.25,503.0 299.125,502.375 307.875,502.625 316.875,503.5 334.875,506.125 366.125,511.625 378.875,513.375 384.625,513.875 394.875,514.25 399.5,514.125 407.75,513.5 415.0,512.25"/>
    <polyline points="418.25,511.5 427.0,508.625 434.125,505.25 438.25,502.75 443.5,498.75 449.125,493.0 451.375,490.0 454.875,483.75 456.75,478.75 457.125,477.0"/>
    <polyline points="457.625,475.375 458.25,471.75 458.625,462.5 458.0,456.5 456.25,448.25 454.125,441.625 451.0,434.875 446.875,428.125 443.25,423.625"/>
    <polyline points="441.125,421.5 438.875,419.375 433.375,415.5 426.5,412.375 422.375,411.125 417.625,410.125 412.375,409.75 406.25,409.75 399.25,410.5 391.125,412.0 381.75,414.625 370.875,418.625 358.25,424.25 343.75,432.0 326.875,442.25 307.5,455.625 285.75,472.75 261.625,493.875 236.125,519.375 210.375,549.0 186.75,581.75 168.0,615.25 156.875,646.875 155.5,673.0"/>
    <polyline points="164.25,691.0 181.625,700.0 204.5,700.25 229.75,693.875 254.5,683.0 276.875,669.75 295.875,655.875 311.25,642.125 323.125,629.375 331.75,617.625 337.75,607.125 341.625,597.625 343.75,589.0 344.5,581.375 344.5,574.375 343.875,568.0 341.5,552.25 341.25,548.0 341.625,544.125 342.5,540.75 344.0,537.875 346.125,535.375 348.75,533.375 352.0,531.75"/>
    <polyline points="355.625,530.375 363.875,528.5 373.125,527.5 387.625,527.0 419.25,526.875 441.125,526.125 455.625,525.125"/>
    <polyline points="458.25,524.875 479.875,523.0 488.875,522.5 495.5,522.625"/>
    <polyline points="496.25,522.75 500.375,523.375 503.0,524.25 505.5,525.75 507.875,528.375"/>
    <polyline points="508.125,528.75 509.75,531.875 510.75,535.125 512.125,543.5"/>
    <polyline points="512.125,544.25 512.5,549.75 512.25,558.375 511.875,562.0 510.625,568.75 509.25,573.125"/>
    <polyline points="508.75,574.625 507.5,577.75 504.75,582.5 502.375,585.625 497.5,590.375 495.375,592.0 490.375,594.875 487.375,596.25 480.25,598.625 471.125,600.25 465.625,600.75 459.5,601.0 452.625,600.875 444.875,600.25 436.25,599.125 426.625,597.5 416.125,595.125"/>
    <polyline points="404.625,592.0 392.25,588.125 379.0,583.375 365.375,577.625 351.5,571.125 337.875,563.875 325.0,556.0 313.5,548.0 303.75,539.875 296.375,532.25 291.625,525.25 289.5,519.25 290.0,514.5 292.875,510.875 297.625,508.375 303.875,507.0 311.25,506.5 319.125,506.625 335.75,508.125 366.5,512.5 379.75,514.0"/>
    <polyline points="385.75,514.5 396.625,514.875 406.125,514.75 418.25,513.25 428.375,511.0 436.875,508.0 441.625,505.75 446.0,503.25 453.125,498.125 458.75,492.5"/>
    <polyline points="460.0,491.125 463.125,486.625 464.875,483.5 467.0,478.625 469.125,471.75 470.5,464.25 470.875,460.25 471.25,453.875 471.25,444.75"/>
    <polyline points="471.125,442.375 470.0,416.875 469.875,403.0 470.25,395.125 471.75,382.0 473.875,372.0 477.375,360.625 483.125,347.5 487.25,340.125"/>
    <polyline points="492.375,332.0 498.75,323.125 506.75,313.375 516.75,302.625 529.25,290.625 544.75,277.5 563.875,263.125 587.25,247.75 615.5,231.875 648.875,216.5 686.625,203.375 727.5,195.125 768.125,194.875 804.25,206.0 831.0,229.875 845.375,266.0 846.625,310.625 837.375,358.875 821.625,405.875 803.125,448.5 785.0,484.875 769.0,514.75 745.625,556.5 732.25,579.375"/>
    <polyline points="728.0,585.375 724.875,588.5 722.25,589.25 719.625,587.875 716.75,584.875 699.25,562.375 693.25,555.5 686.625,548.5 679.75,541.625 665.25,528.75 650.75,517.625 643.75,512.875 630.625,504.75 618.625,498.5 613.125,496.0 603.125,492.125 594.25,489.375"/>
    <polyline points="590.125,488.375 582.75,487.0 573.125,485.75 565.0,485.375 545.625,485.875 536.625,485.75"/>
    <polyline points="535.625,485.625 531.75,485.125 527.25,483.625 525.375,482.5 523.25,480.75 520.125,476.0"/>
    <polyline points="519.875,475.25 518.375,470.375 517.5,462.25 517.625,455.875 518.875,447.0"/>
    <polyline points="519.125,445.375 521.5,436.25 523.75,430.125 528.0,421.0 534.25,410.875 540.625,402.625 545.875,396.875 552.125,391.0 559.375,385.0"/>
    <polyline points="563.5,382.125 572.375,376.5 582.25,371.375 593.125,367.375 598.75,365.75 604.375,364.625 615.5,364.0 620.875,364.625 625.875,365.875 630.625,367.75 634.75,370.5 638.25,373.875 641.125,377.875 643.25,382.5 644.625,387.75 645.25,393.5 645.125,399.5 644.375,405.875 642.875,412.375 640.875,418.875 635.5,431.625"/>
    <polyline points="632.25,437.75 625.125,449.125 617.375,459.25 609.625,468.0 598.25,478.625 591.0,484.375 581.125,491.125 567.0,498.875 560.0,502.125 553.75,504.625"/>
    <polyline points="551.875,505.25 545.125,507.75 530.125,512.625 524.625,514.875"/>
    <polyline points="524.125,515.125 522.125,516.0 519.25,518.0 517.5,519.75 516.5,521.375"/>
    <polyline points="516.375,521.75 515.25,525.0 514.75,531.5"/>
    <line x1="514.625" x2="514.5" y1="532.125" y2="550.75"/>
    <polyline points="514.5,551.875 513.75,561.0 512.625,567.625 511.5,571.875 509.875,576.5 507.625,581.25 504.25,586.125"/>
    <polyline points="502.875,587.75 499.5,591.0 492.75,595.625 482.875,599.5 473.875,601.375 468.5,602.0 455.75,602.25 448.0,601.875 430.0,599.375 419.375,597.125 407.75,594.25 395.25,590.375 381.875,585.625 367.75,580.0 353.375,573.375 339.125,566.0 325.5,558.0 313.125,549.625"/>
    <polyline points="302.5,541.125 294.25,533.0 288.75,525.625 286.125,519.125 286.25,514.0 288.875,510.0 293.5,507.375 299.875,505.75 307.25,505.25 315.5,505.375 324.0,506.0 340.875,508.25 364.0,511.875 377.375,513.5 389.125,514.5 404.0,514.5 416.25,513.125"/>
    <polyline points="419.75,512.5 429.25,509.875 434.625,507.75 441.625,504.25 447.5,500.375 452.25,496.375 457.5,490.5 460.5,486.0 463.5,479.5"/>
    <polyline points="464.125,477.875 465.25,474.375 466.875,465.25 467.25,459.25 467.25,452.875 465.875,436.25 463.625,422.5"/>
    <polyline points="463.125,419.5 456.625,384.875 454.75,372.125 453.75,362.75 453.375,346.875 454.5,334.75 455.75,328.0 457.625,320.625 460.25,312.625 464.125,303.625 469.5,293.625"/>
    <polyline points="476.75,282.375 486.75,269.375 500.25,254.375 518.5,236.875 542.875,216.5 575.25,193.0 617.625,166.75 671.625,139.625 736.875,115.625 809.25,102.0 878.75,109.25 930.625,145.5 953.625,210.5 947.0,293.5 921.125,378.75 889.0,454.625 860.0,516.0 838.875,562.625 826.125,596.125 820.625,618.25 820.5,631.0 823.125,635.375 826.0,632.25 826.875,622.75 824.125,607.75 816.75,588.5"/>
    <polyline points="805.0,566.75 789.5,543.875 772.0,521.25 753.625,500.25 735.875,481.125 704.875,450.25 673.5,421.125 661.25,410.875 656.875,407.875 653.5,406.125 650.625,405.375 648.25,405.5 646.125,406.5 644.25,408.125 640.25,413.125 631.125,427.25 625.5,435.0"/>
    <polyline points="622.625,438.875 613.125,450.0 606.625,456.625 600.125,462.625 590.625,470.25 584.625,474.625 576.125,479.875 566.125,485.125 553.5,490.25"/>
    <polyline points="551.75,490.875 546.75,492.375 538.375,494.25 531.125,495.0 527.0,494.875 524.375,494.375"/>
    <polyline points="523.875,494.125 520.75,492.875 518.375,490.875 516.25,487.875 515.0,484.5"/>
    <polyline points="514.75,483.875 513.75,478.875 513.0,472.625 512.875,466.125 513.25,459.75"/>
    <polyline points="513.375,458.375 514.25,450.75 515.625,443.875 517.75,436.0 519.25,431.75 522.125,424.75 526.0,417.125 533.25,405.875"/>
    <polyline points="535.625,402.75 540.875,396.5 547.125,390.0 550.75,386.75 558.875,380.125 568.375,373.5 579.125,367.375 585.0,364.625 591.125,362.125 597.5,360.0 604.0,358.375 610.625,357.25 617.125,356.625 623.5,356.875 629.625,357.75 635.25,359.625 640.375,362.25 644.75,365.875 648.5,370.25 651.25,375.5 653.125,381.375"/>
    <polyline points="654.0,388.0 654.125,395.0 653.25,402.25 651.625,409.75 649.375,417.25 646.5,424.75 643.125,432.0 635.375,445.75 631.25,452.0 626.875,457.875 618.25,468.25 609.625,477.125 601.5,484.375 593.75,490.375 583.375,497.375 571.25,504.0"/>
    <polyline points="568.625,505.25 557.0,510.375 536.0,518.5 530.625,521.25"/>
    <polyline points="529.875,521.625 526.625,523.75 523.625,526.5 521.125,530.0 519.5,534.0"/>
    <polyline points="519.25,534.625 517.75,542.5 516.375,556.125"/>
    <polyline points="516.25,557.25 514.625,567.625 513.125,573.375 509.875,581.375 506.75,586.25 504.0,589.625 500.375,593.0 498.25,594.5"/>
    <polyline points="495.875,596.125 493.125,597.625 486.625,600.375 478.125,602.5 473.0,603.25 460.75,604.0 445.125,603.125 435.875,601.875 425.5,600.0 414.0,597.375 401.5,593.875 388.0,589.375 373.625,584.0 358.75,577.625 343.75,570.25 329.0,562.125 315.375,553.375 303.375,544.5 293.625,535.75 286.5,527.625 282.5,520.375 281.5,514.375"/>
    <polyline points="283.375,509.75 287.625,506.625 293.625,504.625 301.125,503.75 309.375,503.875 326.875,505.5 373.375,512.875 390.875,514.25 400.625,514.375 412.875,513.125 419.875,511.75 428.75,508.875"/>
    <polyline points="431.375,507.875 438.375,504.375 444.25,500.5 449.0,496.375 451.75,493.5 455.125,489.0 458.625,482.625 460.5,477.625 462.125,470.625"/>
    <polyline points="462.375,468.75 462.75,463.0 462.5,454.875 460.375,441.5 458.5,434.25 455.875,426.625 452.375,418.625 449.625,413.25 447.875,410.5"/>
    <polyline points="446.125,407.75 444.125,405.125 439.375,399.875 433.625,395.0 430.125,392.75 426.125,390.75 421.5,389.125 416.25,387.875 410.125,387.25 403.0,387.25 394.625,388.125 384.75,390.25 373.0,393.875 359.0,399.5 342.25,407.75 322.25,419.375 298.5,435.375 270.75,456.625 239.0,484.25 204.375,518.875 169.0,560.25 137.0,606.625 113.625,653.75 104.25,695.5"/>
    <polyline points="111.25,725.875 133.25,741.5 164.75,742.625 199.5,732.75 232.25,716.125 259.875,696.625 281.125,676.75 295.875,657.75 304.875,640.25 308.875,624.25 309.25,609.625 306.625,596.125 302.25,583.5 287.5,551.125 284.375,542.125 283.0,534.5 283.625,528.0 286.0,522.75 290.25,518.875 295.875,516.125 302.625,514.375 310.125,513.5 318.125,513.25 326.25,513.5"/>
    <polyline points="334.5,514.0 378.25,517.875 390.0,518.25 405.25,517.875 418.0,516.25 425.25,514.75 431.875,513.0 437.75,511.0 443.0,508.75 449.75,505.25"/>
    <polyline points="451.875,504.125 455.625,501.625 460.5,497.75 465.75,492.375 469.0,488.125 471.625,483.625 474.5,477.375 476.125,472.25 477.375,467.0"/>
    <polyline points="477.75,465.125 479.625,450.625 482.375,421.125 484.125,410.875 488.375,395.0"/>
    <polyline points="490.0,390.5 494.25,380.75 496.875,375.375 500.125,369.75 508.5,357.125 513.875,350.25 520.25,342.75 527.875,334.875 536.875,326.25 547.5,317.25 560.0,307.625 574.5,297.75 591.375,287.625 610.75,277.75 632.25,268.625 655.75,261.0 680.625,256.125 705.5,255.0 728.75,258.875 748.875,268.625 764.0,284.625 773.125,306.125 776.0,332.125 773.125,360.625"/>
    <polyline points="765.875,389.625 755.75,417.75 744.125,443.625 732.125,466.625 720.5,486.625 709.625,503.5 700.0,517.5 691.375,528.875 683.875,538.0 677.375,545.25 671.625,550.75 666.625,555.0 662.125,558.0 658.0,560.0 654.25,561.25 650.75,561.875 644.125,561.75 637.875,560.125 631.625,557.875 619.5,552.625"/>
    <polyline points="616.5,551.375 607.625,547.75 599.125,545.0 591.125,543.0 586.25,542.125 579.375,541.5 573.125,541.375 565.875,542.125 559.625,543.75"/>
    <polyline points="558.25,544.25 554.5,545.875 551.125,548.0 548.25,550.25 545.875,552.875 544.375,554.75 541.875,559.0 539.875,563.625 538.625,567.5"/>
    <polyline points="538.25,568.875 533.375,590.125 530.875,598.0 528.0,604.375 525.375,608.75 521.875,613.0 519.625,615.25"/>
    <polyline points="517.125,617.375 510.625,621.375 506.625,623.25 496.375,626.375 489.75,627.5 482.125,628.125 473.0,628.375 462.375,627.875 450.0,626.625 435.375,624.125 418.625,620.375 399.25,615.0 377.5,607.75 353.5,598.25 327.75,586.5 301.5,572.625 276.125,557.0 253.5,540.375 235.625,524.125 224.0,509.25 219.125,497.125 220.875,488.25 227.75,482.875 238.375,480.75"/>
    <polyline points="251.125,481.125 264.625,483.5 277.875,486.875 290.375,491.0 301.75,495.375 320.625,503.625 346.125,516.25 354.875,520.25 358.5,521.75 365.125,523.875 370.875,525.125 376.125,525.5 383.375,524.875 390.25,523.125"/>
    <polyline points="392.375,522.375 398.75,519.75 406.5,515.625 411.75,512.125 416.375,508.5 419.125,506.0 423.75,500.875 426.5,497.0 428.375,493.0"/>
    <polyline points="428.875,491.75 429.875,487.75 429.875,482.625 429.25,480.125 428.25,477.75 425.75,474.375 423.5,472.375 420.5,470.625 416.875,469.25 409.75,468.125 403.875,468.375"/>
    <polyline points="400.5,468.75 392.75,470.375 388.375,471.75 378.5,475.625 367.0,481.375 354.125,489.5 339.875,500.25 332.375,506.625 324.875,513.625 317.5,521.25 310.5,529.375 304.0,537.875 298.25,546.5 293.5,555.0 290.125,563.125 288.125,570.625 287.75,577.375 289.0,582.875 291.875,587.25 296.25,590.375 301.75,592.0"/>
    <polyline points="308.5,592.5 315.875,591.875 323.875,590.375 332.125,588.0 348.75,581.875 372.125,571.25 404.25,555.25 423.875,546.25 439.375,540.375 446.0,538.25 451.875,536.75"/>
    <polyline points="454.625,536.125 466.375,534.125 474.0,533.75 477.25,533.875 482.875,534.5 486.5,535.375 490.5,536.875 493.125,538.375"/>
    <polyline points="493.875,538.875 496.0,540.625 497.75,542.625 499.25,544.75 500.5,547.25 502.0,551.75 502.375,553.875 502.75,558.125 502.625,560.5"/>
    <polyline points="502.625,561.75 501.875,566.75 501.125,569.5 499.5,573.625 495.875,579.375 491.75,583.625 490.0,585.125 485.75,587.75 480.5,590.125 473.875,592.25 465.625,593.625"/>
    <polyline points="460.75,594.0 455.375,594.25 449.25,594.125 435.25,592.75 418.375,589.625 398.75,584.125 388.125,580.5 377.0,576.125 365.75,571.125 354.625,565.625 343.875,559.5 333.875,553.25 325.125,546.75 317.875,540.5 312.5,534.5 309.0,529.0 307.5,524.25 308.0,520.375 310.25,517.25 314.125,515.0 319.125,513.625 325.0,512.75 331.5,512.5"/>
    <polyline points="338.5,512.625 345.625,513.0 379.875,516.125 391.75,516.875 402.5,517.125 412.125,516.875 420.75,516.25 432.0,514.5 441.5,512.25 449.5,509.5 454.125,507.5"/>
    <polyline points="456.375,506.5 465.5,501.125 471.125,496.5 474.75,492.75 479.375,486.375 482.25,480.875 484.5,474.875"/>
    <polyline points="485.0,473.25 487.5,463.0 492.875,431.625 495.0,422.875 497.0,416.375"/>
    <polyline points="498.125,412.875 502.625,401.625 509.375,388.75 515.75,379.0 524.25,368.25 529.375,362.5 542.125,350.0 549.875,343.375 558.75,336.5 568.75,329.5 580.0,322.5 592.5,315.625 606.375,309.25 621.25,303.5 637.125,298.875 653.375,296.0 669.75,295.125 685.25,297.0 699.375,302.0"/>
    <polyline points="711.25,310.25 720.125,321.75 725.75,336.125 728.0,352.875 727.125,371.125 723.375,390.0 717.625,408.875 710.375,427.0 702.25,443.875 693.75,459.25 685.125,472.875 676.75,485.0 668.875,495.5 661.375,504.5 654.5,512.125 642.125,524.0 636.75,528.5 631.625,532.25 627.0,535.375 618.75,540.0 611.375,543.125 605.0,545.125"/>
    <polyline points="602.125,545.875 594.125,547.625 579.25,550.125 574.125,551.375 568.25,553.375 565.75,554.625 562.375,556.75 559.5,559.125"/>
    <polyline points="558.625,559.875 556.25,562.75 555.0,564.75 553.25,568.125 551.875,571.875 550.5,577.375 549.75,582.0 548.75,594.375"/>
    <polyline points="548.625,596.25 548.25,604.75 547.375,614.0 545.5,624.125 543.875,629.5 542.75,632.125 541.375,634.875 537.5,640.375 535.0,643.0 531.875,645.625 528.0,648.25 523.375,650.5 517.625,652.625 510.625,654.375 502.0,655.625"/>
    <polyline points="491.5,656.25 478.375,655.875 462.375,654.25 442.875,651.0 419.0,645.375 390.375,636.875 356.75,624.75 318.5,608.375 277.0,587.25 235.25,562.0 197.75,534.375 169.25,506.875 153.625,483.125 151.5,465.75 160.75,455.75 177.375,452.875 197.125,455.375 216.875,461.625 234.625,470.0 249.625,479.5 261.5,489.375 270.625,499.125 277.375,508.5 282.25,517.625 285.875,526.125 288.5,534.25"/>
    <polyline points="290.75,541.625 292.875,548.375 295.25,554.5 297.875,559.75 301.125,564.125 305.0,567.625 309.375,570.25 314.375,571.875 320.0,572.875 325.875,573.0 332.25,572.5 338.75,571.375 345.375,569.875 358.75,565.75 378.0,558.25 419.875,539.75"/>
    <polyline points="424.125,537.875 435.625,533.0 454.375,525.75 484.375,515.625"/>
    <polyline points="485.625,515.125 496.625,511.0 501.625,508.375 503.125,507.125"/>
    <polyline points="503.5,506.875 505.0,505.5 506.625,503.25 508.25,498.5"/>
    <polyline points="508.375,498.125 509.0,491.625 509.125,483.375"/>
    <polyline points="509.125,482.625 509.75,465.0 511.125,453.375"/>
    <polyline points="511.375,451.625 513.25,442.625 515.625,434.25 519.25,424.75 523.125,416.875 530.5,405.0 538.25,395.25 544.75,388.25"/>
    <polyline points="548.5,384.75 552.625,381.125 561.875,373.875 572.75,366.875 585.125,360.5 591.875,357.625 598.75,355.25 606.0,353.25 613.25,352.0 620.5,351.25 627.625,351.375 634.375,352.5 640.625,354.5 646.25,357.5 651.125,361.5 655.0,366.5 658.0,372.375 659.875,379.125 660.625,386.5 660.375,394.375 659.25,402.625 657.125,411.0 654.375,419.25"/>
    <polyline points="651.0,427.5 647.125,435.375 643.0,442.875 638.5,450.0 633.875,456.625 629.25,462.75 619.875,473.625 610.875,482.5 602.375,489.875 598.25,493.0 590.75,498.25 583.75,502.625 571.75,509.0 559.5,514.375"/>
    <polyline points="557.5,515.25 540.125,522.25 533.125,526.0 528.25,529.875"/>
    <polyline points="527.75,530.5 525.25,533.5 522.75,538.125 521.25,542.875 520.0,549.125"/>
    <polyline points="519.75,550.125 518.125,561.5 516.125,571.125 514.75,575.75 511.125,583.875"/>
    <polyline points="510.125,585.625 506.25,590.75 502.75,594.125 500.625,595.75 495.625,599.0 492.625,600.5 485.125,603.125 475.625,605.0 469.875,605.625 463.375,605.875 455.875,605.75 447.5,605.125 438.125,604.0 427.625,602.125 415.875,599.5 403.0,596.0 389.0,591.5 374.0,585.875 358.5,579.25 342.625,571.625"/>
    <polyline points="327.125,563.125 312.5,553.875 299.75,544.5 289.25,535.125 281.75,526.5 277.5,518.875 276.625,512.625 278.625,507.875 283.125,504.625 289.625,502.75 297.5,502.0 306.25,502.125 324.5,504.25 357.875,510.25 377.875,513.25 393.875,514.25 402.875,513.875"/>
    <polyline points="406.875,513.5 414.125,512.375 423.375,509.75 433.375,505.375 437.375,502.875 444.25,497.375 448.25,493.125 451.5,488.5 454.625,482.25"/>
    <polyline points="455.25,480.5 456.25,477.25 457.25,472.0 457.625,466.5 457.125,458.75 455.5,450.625 453.375,444.25 450.375,437.75 446.25,431.25"/>
    <polyline points="444.5,429.125 440.625,424.875 435.75,421.0 429.75,417.625 426.125,416.25 417.375,414.25 412.125,413.875 406.25,413.875 399.375,414.625 391.5,416.25 382.5,418.75 372.125,422.5 360.0,427.875 346.125,435.25 330.25,444.875 312.0,457.25 291.625,473.0 269.125,492.5 245.25,516.0 221.125,543.125 198.5,573.25 179.875,604.625"/>
    <polyline points="167.75,634.625 164.125,660.5 169.875,679.5 183.875,690.375 203.875,693.25 227.125,689.25 250.75,680.5 273.0,669.0 292.5,656.125 308.875,643.25 322.0,631.0 332.25,619.5 339.75,609.25 345.125,600.0 348.75,591.625 350.875,584.25 352.0,577.625 352.375,571.5 351.75,552.625 351.875,549.0 352.375,545.75 353.25,542.875 354.75,540.375"/>
    <polyline points="356.5,538.125 361.5,534.75 364.625,533.5 371.75,531.625 375.625,531.0 388.0,530.0 400.75,529.625 447.25,529.375"/>
    <polyline points="450.0,529.25 474.125,529.375 483.125,530.125 492.0,532.25"/>
    <polyline points="492.875,532.625 497.5,535.125 500.375,537.75 501.875,539.625 503.875,543.125 505.5,548.125"/>
    <polyline points="505.75,549.0 506.375,553.0 506.625,557.25 506.375,562.125 505.5,567.25 503.125,574.375 499.75,580.25"/>
    <polyline points="498.5,581.75 497.25,583.375 494.125,586.25 492.25,587.75 487.75,590.5 482.0,593.0 474.875,595.125 465.875,596.5 460.5,596.875 447.875,596.625 440.5,595.875 423.375,593.125 403.0,587.875 391.75,584.25 379.875,579.875 367.75,574.625 355.5,568.875 343.5,562.5"/>
    <polyline points="332.25,555.625 322.125,548.5 313.625,541.5 307.0,534.75 302.625,528.625 300.5,523.25 300.625,518.75 302.75,515.25 306.625,512.75 311.875,511.125 318.125,510.375 325.125,510.125 340.125,510.875 369.5,514.125 388.375,515.75 404.375,516.125 413.5,515.625"/>
    <polyline points="417.75,515.25 425.375,514.125 435.375,511.75 443.75,508.875 450.875,505.75 458.625,501.125 463.375,497.375 467.375,493.5 471.75,488.0"/>
    <polyline points="472.625,486.625 476.5,479.125 478.25,474.25 480.125,467.375 482.375,453.5 484.0,439.5"/>
    <polyline points="484.25,436.875 487.0,419.125 489.625,408.5 492.0,400.75 495.375,392.0 497.5,387.375 500.0,382.375 506.5,371.625 510.5,365.75 515.25,359.5 520.875,352.75 527.375,345.625 535.0,338.125 544.0,330.125 554.375,321.75 566.5,313.0"/>
    <polyline points="580.375,304.125 596.25,295.25 614.0,286.75 633.5,279.25 654.375,273.25 676.125,269.75 697.5,269.75 717.5,273.875 734.625,282.75 747.625,296.75 755.75,315.375 758.875,337.5 757.125,362.0 751.625,387.25 743.375,412.0 733.375,435.25 722.75,456.25 712.0,474.875 701.875,491.0 692.375,504.625 683.75,516.0 676.0,525.375 669.0,533.125 662.875,539.25 657.25,544.125 652.25,547.875"/>
    <polyline points="647.75,550.75 643.625,552.875 636.125,555.5 632.75,556.125 626.5,556.375 617.875,555.5 593.0,550.625 588.75,550.125 580.875,549.875"/>
    <polyline points="579.0,549.875 574.0,550.375 569.375,551.375 566.625,552.25 560.75,555.25 558.75,556.75 555.375,560.25 553.875,562.125 551.5,566.5"/>
    <polyline points="551.0,567.75 549.25,572.75 547.75,580.125 547.0,585.0 545.125,604.625 544.0,611.5"/>
    <polyline points="543.5,613.875 543.0,616.375 540.5,623.875 539.25,626.5 536.0,631.75 531.5,636.875 528.375,639.375 524.75,641.75 520.25,644.0 514.875,646.0 508.25,647.75 500.25,649.0 490.625,649.75 478.75,649.625 464.375,648.5 447.0,645.875 426.0,641.375 400.875,634.625 371.5,624.625 338.0,611.25 301.0,593.75 262.875,572.5"/>
    <polyline points="226.625,548.375 196.375,523.25 175.625,499.875 166.625,480.625 169.0,467.5 180.0,460.625 196.375,459.5 214.75,462.625 232.75,468.5 248.875,476.0 262.75,484.125 274.0,492.5 283.0,500.625 290.0,508.5 295.375,515.875 302.875,529.25 310.75,545.25 313.375,549.375 316.25,552.875 319.5,555.75 323.125,558.0 327.0,559.75 331.375,560.75"/>
    <polyline points="336.0,561.25 340.875,561.25 351.25,559.875 362.0,557.125 372.875,553.625 383.375,549.625 402.875,541.25 446.125,520.875"/>
    <polyline points="448.875,519.625 462.625,512.5 473.0,506.25 477.125,503.25 481.75,499.375 487.125,493.375"/>
    <polyline points="487.875,492.25 490.0,489.125 491.75,485.75 494.5,478.625 496.875,469.0 498.625,459.375"/>
    <polyline points="499.0,457.5 501.125,445.875 503.25,436.75 505.5,429.0 508.5,420.5 512.75,411.0 516.5,404.125 521.25,396.5 527.125,388.375"/>
    <polyline points="530.75,384.0 539.125,375.0 549.5,365.25 562.5,355.25 570.0,350.25 578.125,345.375 587.0,340.625 596.625,336.25 606.875,332.375 617.5,329.125 628.5,326.875 639.5,325.75 650.25,326.125 660.375,328.0 669.5,331.625 677.5,337.25 683.75,344.625 688.25,353.625 690.75,364.125 691.5,375.75 690.375,388.125 687.75,400.75 683.75,413.375"/>
    <polyline points="678.875,425.625 673.25,437.375 667.25,448.375 661.0,458.5 654.625,467.75 642.125,483.375 630.5,495.75 619.875,505.375 615.0,509.25 610.375,512.625 601.875,518.125 598.125,520.375 587.75,525.75 569.25,533.25"/>
    <polyline points="567.125,534.0 556.5,538.375 552.375,540.5 547.625,543.5 543.0,547.625 540.0,551.375 538.25,554.375"/>
    <polyline points="537.625,555.5 535.25,561.125 532.625,570.5 530.0,581.625 527.875,588.875 526.375,592.625"/>
    <polyline points="525.625,594.625 523.625,598.625 521.0,602.625 517.625,606.75 515.5,608.75 510.375,612.75 507.25,614.625 499.25,618.0 494.25,619.5 488.5,620.625 481.75,621.5 473.875,621.875 464.75,621.75 454.125,621.0 441.875,619.375 427.75,616.75 411.625,612.875 393.5,607.5 373.375,600.375 351.625,591.5 328.75,580.625"/>
    <polyline points="305.75,568.25 283.875,554.375 264.625,540.0 249.625,526.0 239.75,513.25 235.5,502.75 236.625,494.75 242.25,489.75 251.25,487.25 262.25,487.0 274.375,488.375 286.5,490.875 298.25,493.875 309.125,497.25 355.625,513.625 365.5,516.5 373.5,518.125 380.375,518.875"/>
    <polyline points="383.5,518.875 389.0,518.5 394.0,517.625 400.5,515.625 406.25,512.875 411.25,509.875 416.75,505.375 421.0,500.625 424.0,495.75"/>
    <polyline points="424.5,494.5 425.875,489.75 426.0,487.25 425.75,485.0 424.625,481.625 423.25,479.5 421.375,477.625 417.625,475.25 412.25,473.625 407.75,473.125 402.375,473.375"/>
    <polyline points="399.25,473.75 392.375,475.375 384.25,478.125 379.75,480.0 369.75,485.0 358.5,492.0 352.5,496.25 340.0,506.25 333.625,512.0 321.375,525.0 315.75,532.0 310.625,539.125 306.25,546.25 302.875,553.25 300.5,559.875 299.375,565.875 299.5,571.25 301.0,575.625 303.75,579.125 307.5,581.5"/>
    <polyline points="312.375,582.875 318.125,583.375 324.5,582.875 331.375,581.625 338.5,579.875 353.125,574.875 367.375,568.875 380.875,562.75 419.25,544.5 439.25,536.25 449.125,532.875"/>
    <polyline points="452.0,531.875 462.375,528.875 476.375,526.0 484.0,525.125 493.75,525.125"/>
    <polyline points="494.625,525.25 498.5,526.0 502.0,527.375 504.375,529.0 505.5,530.125 507.375,532.875"/>
    <polyline points="507.75,533.375 509.375,537.375 510.25,540.875 511.0,545.625 511.375,552.25"/>
    <polyline points="511.375,553.375 511.25,557.875 510.625,564.0 508.625,572.375 506.0,578.5 503.125,583.25 498.875,588.0"/>
    <polyline points="497.125,589.5 495.125,591.0 490.25,593.875 484.125,596.5 480.375,597.625 471.625,599.375 466.375,600.0 460.375,600.25 453.75,600.125 438.0,598.75 428.875,597.25 418.75,595.125 407.625,592.25 395.625,588.625 383.0,584.125 369.625,578.75 356.125,572.625 342.75,565.75 329.875,558.25 318.125,550.375 308.125,542.5 300.125,534.75"/>
    <polyline points="294.625,527.75 291.875,521.625 291.5,516.5 293.625,512.5 297.75,509.75 303.375,508.0 310.25,507.25 317.875,507.125 326.0,507.5 350.125,510.375 372.0,513.375 384.5,514.5 395.625,515.125 405.375,515.0 414.0,514.25 425.0,512.25"/>
    <polyline points="428.25,511.5 434.25,509.625 444.125,505.25 452.125,500.25 455.375,497.625 459.625,493.5 463.125,489.125 466.0,484.625 468.875,478.125"/>
    <polyline points="469.5,476.5 471.375,469.5 472.875,459.75 473.5,449.0 473.5,419.125"/>
    <polyline points="473.625,415.875 474.25,405.25 475.125,397.375 477.625,384.125 480.625,374.0 485.25,362.375 492.375,349.125 497.25,341.625 503.125,333.5 510.5,324.625 519.375,314.875 530.375,304.25 543.875,292.75 560.125,280.25 579.75,266.875 603.25,253.25 630.625,239.75 661.75,227.625"/>
    <polyline points="695.875,218.625 731.0,215.0 764.375,219.0 792.625,232.625 812.375,256.5 822.0,289.375 821.5,328.25 813.0,369.375 799.25,409.375 783.375,445.75 767.5,477.375 752.875,503.875 740.25,525.375 729.875,542.25 714.625,565.0 709.375,571.75 705.0,576.125 701.375,578.625 698.125,579.375 695.125,578.75 691.875,577.0 685.0,571.0 676.75,562.875"/>
    <polyline points="672.125,558.375 662.0,549.125 656.625,544.625 645.625,536.25 634.75,528.875 624.125,522.625 619.0,520.0 614.125,517.625 600.5,512.125 588.5,508.625 578.25,506.625 572.125,505.875 564.0,505.375"/>
    <polyline points="561.625,505.25 547.625,505.875 536.375,507.375 527.25,509.125"/>
    <line x1="526.5" x2="516.5" y1="509.25" y2="511.625"/>
    <polyline points="516.25,511.625 513.5,512.625 512.625,513.5 512.375,514.5 512.625,520.125"/>
    <line x1="512.75" x2="513.25" y1="520.375" y2="528.25"/>
    <line x1="513.375" x2="514.0" y1="528.625" y2="544.125"/>
    <polyline points="514.125,545.0 514.0,552.625 513.375,560.625 511.625,570.125 510.125,574.5"/>
    <polyline points="509.625,576.125 507.375,580.875 504.125,585.625 499.375,590.5 495.25,593.625 489.875,596.5 486.625,597.875 483.0,599.125 474.25,601.0 463.0,602.0 448.875,601.625 440.5,600.75 431.125,599.25 420.75,597.125 409.375,594.375"/>
    <polyline points="397.0,590.625 383.875,586.125 370.0,580.625 355.75,574.25 341.5,567.0 327.875,559.125 315.375,550.875 304.625,542.5 296.125,534.375 290.25,526.875 287.125,520.375 286.875,515.0 289.125,510.875 293.5,508.0 299.5,506.25 306.75,505.625 314.75,505.625 323.125,506.125 340.0,508.25 370.25,512.75 382.875,514.125"/>
    <polyline points="388.625,514.5 399.0,514.75 412.125,513.875 423.0,511.875 432.0,509.125 439.5,505.75 447.625,500.75 452.625,496.625 457.875,490.875"/>
    <polyline points="459.0,489.5 461.875,484.875 464.125,480.0 466.75,471.375 467.875,463.875 468.25,457.75 468.125,449.0 467.625,441.875"/>
    <polyline points="467.375,439.5 466.25,428.875 463.125,407.25 461.375,392.75 460.5,380.25 460.375,371.125 460.875,360.875 461.5,355.375 464.0,343.125"/>
    <polyline points="466.125,336.25 469.0,328.75 472.75,320.625 477.875,311.5 484.5,301.375 493.25,290.0 504.875,277.0 519.875,262.25 539.375,245.375 564.5,226.375 596.75,205.375 637.0,183.375 685.75,162.25 741.5,146.0 800.125,140.25 853.375,151.875 891.875,185.125 909.0,238.625 904.875,304.875 885.875,373.625 860.5,436.75 835.5,490.0 814.625,532.25 799.5,564.25 789.75,587.375 784.5,602.875"/>
    <polyline points="782.375,611.875 782.125,615.375 781.25,608.625 778.75,599.75 774.0,588.125 766.75,574.5 757.375,559.75 746.0,544.5 733.625,529.625 720.625,515.625 707.625,502.625 695.125,491.0 683.5,480.75 672.75,471.875 654.375,458.125 640.0,448.875 628.75,443.125 624.125,441.25 616.25,439.125 609.75,438.75"/>
    <polyline points="606.875,439.0 604.25,439.375 599.375,440.875 594.875,442.875 572.125,456.375 565.625,459.625 559.625,462.0"/>
    <polyline points="558.25,462.5 551.875,464.0 545.5,464.375 542.0,463.75 539.75,462.75 537.25,461.125 535.75,459.375"/>
    <polyline points="535.375,458.75 534.5,457.5 533.125,453.375 532.625,448.5 533.375,441.25 534.875,435.75 536.625,431.125"/>
    <polyline points="537.375,429.5 541.0,422.75 543.375,419.125 547.75,413.5 553.125,407.75 559.5,402.125 567.125,396.75 572.75,393.5 582.0,389.625 588.375,388.0"/>
    <polyline points="591.5,387.5 594.625,387.125 597.75,387.125 600.75,387.5 606.125,389.0 608.625,390.25 612.75,393.75 614.375,395.875 615.625,398.375 617.125,404.125 617.375,410.75 616.875,414.25 616.125,417.75 613.875,425.125 608.625,435.875 604.25,442.625 599.5,448.875"/>
    <polyline points="597.0,451.875 591.875,457.25 584.25,464.125 579.25,468.0 572.125,472.75 567.75,475.375 559.5,479.375 552.375,482.125 544.75,484.125"/>
    <polyline points="543.375,484.375 537.375,485.125 534.375,485.125 530.875,484.625 526.5,483.125 523.75,481.125 522.875,480.125"/>
    <polyline points="522.375,479.625 520.125,475.875 518.25,469.5 517.5,462.125 517.625,457.25"/>
    <polyline points="517.75,455.875 518.875,446.875 520.0,441.75 523.0,432.125 526.875,423.25 529.5,418.5 534.375,410.75 538.5,405.375"/>
    <polyline points="540.75,402.5 549.125,393.75 555.875,387.875 563.75,382.0 572.625,376.375 577.5,373.75 587.875,369.125 593.375,367.25 604.625,364.625 610.25,364.125 615.875,364.125 621.125,364.75 626.125,366.0 630.75,368.0 634.875,370.625 638.375,374.0 641.125,378.125 643.25,382.875 644.625,388.125"/>
    <polyline points="645.25,393.875 645.125,399.875 644.25,406.25 642.75,412.625 640.75,419.125 638.25,425.625 635.375,431.875 632.125,438.0 628.625,443.875 621.125,454.625 613.25,464.0 609.375,468.125 598.0,478.75 590.875,484.375 584.125,489.125 578.0,493.0 569.5,497.625"/>
    <polyline points="566.875,498.875 555.625,503.875 529.375,513.0"/>
    <polyline points="528.5,513.25 522.125,516.0 519.5,517.625 517.75,519.375"/>
    <polyline points="517.5,519.625 516.5,521.25 515.5,523.75 514.875,528.0"/>
    <polyline points="514.875,528.5 514.625,531.375 514.625,544.0"/>
    <polyline points="514.625,544.875 514.25,555.75 513.625,561.75 512.375,568.5 510.625,574.375"/>
    <polyline points="510.125,576.0 507.875,580.75 505.875,583.875 503.375,587.25 500.125,590.5 496.0,593.625 490.75,596.5 487.625,597.875 480.0,600.25 470.375,601.875 464.5,602.25 458.0,602.375 450.625,602.0 442.375,601.25 433.125,599.875 422.875,597.875 411.625,595.25"/>
    <polyline points="399.375,591.75 386.25,587.25 372.375,581.875 358.0,575.625 343.75,568.5 329.75,560.625 316.875,552.375 305.75,543.875 296.625,535.625 290.25,527.875 286.625,521.125 285.875,515.5 287.75,511.125 291.875,508.125 297.75,506.25 304.875,505.375 312.75,505.25 321.25,505.75 338.25,507.875 368.75,512.5 381.625,513.875"/>
    <polyline points="387.375,514.375 397.875,514.625 411.125,513.875 418.625,512.625 425.25,511.125 428.25,510.125 433.875,508.125 438.75,505.875 445.0,502.125 451.875,496.75 457.125,491.0"/>
    <polyline points="458.25,489.5 460.25,486.5 463.375,480.0 465.5,473.25 466.25,469.625 467.0,463.875 467.375,457.875 467.25,451.375 466.5,442.0"/>
    <polyline points="466.25,439.625 464.375,426.25 457.625,390.0 455.0,373.5 454.0,364.25 453.5,348.625"/>
    <polyline points="453.875,342.875 455.5,330.0 457.25,322.875 459.75,315.0 463.25,306.375 468.25,296.625 475.0,285.75 484.25,273.25 496.75,258.75 513.625,242.0 536.25,222.375 566.25,199.75 605.875,174.25 656.5,147.25 718.875,122.0 789.75,105.0 860.875,105.75 918.5,133.875 949.5,191.75 950.0,271.0 928.125,356.5 896.75,435.375 843.0,550.875 828.0,587.625"/>
  </g>
</svg>
