<?xml version="1.0" encoding="utf-8" ?>
<svg xmlns="http://www.w3.org/2000/svg" xmlns:cc="http://creativecommons.org/ns" xmlns:dc="http://purl.org/dc/elements/1.1/" xmlns:ev="http://www.w3.org/2001/xml-events" xmlns:inkscape="http://www.inkscape.org/namespaces/inkscape" xmlns:rdf="http://www.w3.org/1999/02/22-rdf-syntax-ns" xmlns:sodipodi="http://sodipodi.sourceforge.net/DTD/sodipodi-0.dtd" xmlns:xlink="http://www.w3.org/1999/xlink" baseProfile="tiny" height="27.09333333cm" version="1.2" viewBox="0 0 1024.0 1024.0" width="27.09333333cm">
  <metadata>
    <rdf:RDF>
      <cc:Work>
        <dc:format>image/svg+xml</dc:format>
        <dc:source>vpype read './original_svgs/Strange Attractors #257.svg' linemerge linesimplify write './Strange Attractors #257.svg'
</dc:source>
        <dc:date>2024-08-05T01:35:42.905526</dc:date>
      </cc:Work>
    </rdf:RDF>
  </metadata>
  <defs/>
  <g fill="none" id="layer1" inkscape:groupmode="layer" inkscape:label="1" stroke="black" stroke-width="0.7mm" style="display:inline">
    <polyline points="690.375,629.0 683.625,622.0 670.75,610.0 658.75,600.125 647.5,592.0 636.75,584.875 626.625,578.75 573.0,548.875"/>
    <polyline points="570.25,547.25 552.125,536.625 530.375,522.875"/>
    <polyline points="529.625,522.375 521.125,516.5 518.25,514.125"/>
    <polyline points="518.0,514.0 515.75,511.375 515.375,509.375 516.5,506.375 519.75,501.125"/>
    <line x1="520.0" x2="526.875" y1="500.875" y2="489.75"/>
    <polyline points="527.25,489.125 532.875,479.25 535.875,473.25 539.0,465.875"/>
    <polyline points="539.5,464.5 542.5,455.375 544.25,448.0 545.375,439.375 545.625,434.5 545.5,426.5 544.75,420.5 543.625,413.875 541.75,406.75"/>
    <polyline points="540.5,402.875 537.25,394.75 530.125,381.25 523.5,371.5 515.25,361.375 510.375,356.25 499.375,346.25 493.125,341.625 486.5,337.25 479.5,333.375 472.25,330.125 464.875,327.625 457.5,326.0 450.125,325.375 443.125,325.875 436.5,327.625 430.375,330.625 425.0,334.75 420.5,340.0 416.75,346.25"/>
    <polyline points="413.875,353.375 411.875,361.125 410.875,369.375 410.5,377.875 410.875,386.5 411.875,395.125 413.375,403.625 415.25,411.75 420.0,426.875 425.375,440.25 428.25,446.25 436.875,461.625 442.375,469.875 450.125,479.875 461.125,491.875"/>
    <polyline points="463.0,493.75 480.625,510.0 486.25,516.375 488.0,519.25"/>
    <polyline points="488.375,519.875 489.875,524.375 490.0,528.375 488.875,533.875 487.75,536.875"/>
    <polyline points="487.375,537.625 485.125,542.75 476.875,558.75 474.5,564.25"/>
    <polyline points="473.875,565.625 471.875,571.75 471.125,575.0 470.625,580.125 470.875,583.75 472.625,589.5 475.125,593.375 476.875,595.25 479.0,597.125 481.75,599.0 489.125,602.5 499.5,605.375 506.25,606.625 514.0,607.375"/>
    <polyline points="523.125,607.875 533.5,607.875 545.25,607.375 558.25,606.25 572.625,604.375 588.0,601.75 604.0,598.5 620.125,594.5 635.625,589.875 650.0,585.0 662.5,580.0 672.5,575.125 680.0,570.75 684.625,567.0 686.75,563.875 686.5,561.625 684.5,559.875 681.0,558.625 671.625,557.5 650.0,556.5 640.0,555.5"/>
    <polyline points="635.375,554.875 627.0,553.125 616.375,549.5 610.5,546.625 603.25,541.875 597.5,536.75 594.375,533.25 591.75,529.75 589.625,526.25 588.0,522.875 585.875,516.0"/>
    <polyline points="585.625,514.375 585.375,507.75 586.0,502.75 586.875,499.5 588.75,494.5 591.375,489.5 596.0,482.875 602.0,476.125 605.625,472.875"/>
    <polyline points="607.625,471.125 611.875,467.875 616.625,464.75 621.875,461.875 627.875,459.125 638.375,456.125 646.75,455.0 651.375,455.0 656.375,455.25 661.875,456.125 667.875,457.5 674.5,459.625 681.75,462.5 689.75,466.625 698.625,472.125 708.5,479.125 719.625,488.25 731.875,499.875 745.5,514.375"/>
    <polyline points="760.375,532.5 776.375,554.625 793.125,581.125 809.875,612.25 825.125,647.25 837.125,684.875 843.625,722.375 842.625,756.125 832.625,782.375 813.875,797.875 788.375,801.75 759.125,794.75 729.25,779.875 701.375,760.25 676.75,738.5 656.375,717.0 640.25,696.875 628.0,678.875 619.125,663.125 613.125,649.625 609.5,638.0 607.875,628.125 607.75,619.75 608.75,612.5 610.5,606.25 612.75,600.75"/>
    <polyline points="615.25,595.875 622.125,584.25 623.75,581.125 624.75,578.25 625.375,575.75 625.25,573.375 624.75,571.25 623.625,569.375 620.125,566.125 612.375,562.125 577.75,549.75"/>
    <polyline points="574.875,548.75 557.125,541.625 534.875,531.75 528.875,529.375"/>
    <polyline points="527.875,529.0 521.5,527.0 517.75,526.25 512.875,526.125 510.25,526.625"/>
    <polyline points="509.75,526.75 506.375,528.25 504.625,529.375 501.75,531.625 498.0,535.5"/>
    <polyline points="497.375,536.125 494.25,539.875 488.375,547.875 482.75,557.375"/>
    <polyline points="482.125,558.5 479.125,565.0 477.625,569.25 476.875,572.375 476.375,578.875 477.125,584.0 478.75,587.625 481.25,591.25 485.375,594.75 491.375,598.125"/>
    <polyline points="495.25,599.625 505.25,602.25 511.625,603.375 518.875,604.125 527.25,604.5 536.625,604.5 547.25,604.0 559.0,603.0 571.75,601.5 585.25,599.25 599.25,596.375 613.25,593.0 627.0,589.125 639.625,585.0 650.875,580.625 660.25,576.5 667.5,572.5 672.375,569.0 675.0,566.0 675.625,563.5 674.625,561.625 672.125,560.125 668.625,559.0 659.625,557.625"/>
    <polyline points="593.25,523.25 594.5,526.625 596.25,530.125 601.125,537.0 604.375,540.375 608.25,543.625 615.375,548.25 618.125,549.75 624.25,552.25 631.5,554.375 635.5,555.25 644.375,556.5 654.625,557.125 639.5,555.5 630.0,554.0 617.625,550.875 607.25,546.875 601.375,543.75 596.25,540.5 589.875,535.5 583.5,528.625 579.875,523.375"/>
    <polyline points="578.875,521.75 576.0,515.0 574.75,510.0 574.25,505.125 574.375,500.125 574.875,496.75 576.5,490.0 578.375,484.625 580.875,479.125"/>
    <polyline points="581.75,477.25 588.375,465.125 600.0,445.625 606.375,433.75 611.25,423.25 612.75,419.25 616.625,406.0"/>
    <polyline points="617.5,400.875 618.25,395.25 618.5,382.5 617.875,375.0 616.5,366.75 614.375,357.5 611.125,347.0 606.375,335.125 599.875,321.5 591.125,306.0 579.625,288.375 564.625,268.375 545.5,246.0 521.25,221.625 491.625,196.25 456.5,171.5 416.625,150.5 374.25,137.125 332.875,135.5 296.75,148.625 269.5,176.625 252.875,216.5 246.375,263.125 247.375,311.25 253.25,356.375"/>
    <polyline points="261.25,396.25 269.75,429.75 277.875,457.0 285.0,478.25 291.125,494.5 296.375,506.375 301.125,514.625 305.625,519.875 310.125,522.75 314.75,523.625 319.75,522.875 325.25,521.0 331.25,518.125 359.375,502.5 382.125,491.0 389.5,487.75 403.375,482.25 409.875,480.0 421.75,476.625"/>
    <polyline points="427.125,475.375 436.875,473.75 445.5,473.125 452.875,473.125 459.375,473.625 467.75,475.0 472.625,476.25 480.75,478.75 493.0,483.5"/>
    <polyline points="494.25,484.0 500.875,486.25 507.125,487.625 511.625,487.75 515.5,486.875"/>
    <polyline points="516.125,486.625 519.125,485.25 523.625,481.625 527.0,477.875 530.25,473.0"/>
    <polyline points="530.875,472.125 534.75,464.625 538.375,455.0 540.0,448.25 541.0,442.5 541.625,433.625"/>
    <polyline points="541.5,431.125 541.0,423.125 539.375,414.125 537.5,407.5 534.75,400.25 531.25,392.5 523.75,379.875 517.0,371.0 513.125,366.5 504.125,357.5 499.125,353.25 493.625,349.125 488.0,345.375 481.875,342.0 475.625,339.125"/>
    <polyline points="469.25,336.75 462.875,335.25 456.5,334.5 450.375,334.75 444.5,335.875 439.0,338.0 434.125,341.0 429.75,345.125 426.125,350.0 423.125,355.75 421.0,362.125 419.5,369.0 418.75,376.25 418.625,383.625 419.0,391.25 419.875,398.75 421.25,406.125 425.0,420.125 427.125,426.625 429.625,432.75 434.625,444.0 437.25,449.125 442.5,458.125"/>
    <polyline points="445.125,462.125 452.625,472.5 461.5,482.875 472.5,493.625 487.0,506.125"/>
    <polyline points="487.75,506.875 493.0,512.0 495.375,515.125 496.625,517.5 497.375,520.25"/>
    <polyline points="497.5,520.75 497.5,523.5 496.875,526.375 493.625,533.625"/>
    <line x1="493.375" x2="480.625" y1="534.25" y2="556.25"/>
    <polyline points="480.0,557.375 477.0,563.875 474.5,571.25 473.625,576.125 473.5,581.25 474.125,584.875 474.75,586.75 476.75,590.5 480.0,594.125 482.25,596.0 485.0,597.75"/>
    <polyline points="488.25,599.5 496.875,602.625 509.0,605.0 525.375,606.25 535.25,606.25 546.5,605.75 559.0,604.625 572.5,602.875 587.0,600.5 601.875,597.375 617.0,593.625 631.625,589.5 645.125,584.875 656.875,580.25 666.625,575.75 673.875,571.625 678.625,567.875 681.0,564.875 681.25,562.5 679.625,560.625 676.625,559.375 672.625,558.375 668.0,557.75"/>
    <polyline points="662.875,557.375 642.0,555.625 632.625,554.25 624.125,552.375 613.375,548.75 604.5,544.25 599.625,541.0 595.5,537.625 591.875,534.125 588.875,530.625 585.25,525.375"/>
    <polyline points="584.25,523.75 582.0,518.625 580.625,513.5 579.875,506.75 580.25,501.75 581.25,496.75 582.875,491.625 585.125,486.5 588.125,481.125"/>
    <polyline points="589.25,479.25 593.0,473.625 599.0,465.875 606.25,457.625 614.875,448.875 625.25,439.75 631.0,435.125 640.875,428.375 644.625,426.125"/>
    <polyline points="648.375,424.0 652.5,422.0 661.625,418.5 672.125,416.125 678.125,415.625 684.75,415.75 692.125,416.5 700.375,418.5 709.75,421.75 720.5,426.875 733.0,434.5 747.5,445.25 764.5,460.25 784.625,480.875 808.0,508.625 834.75,545.5 864.25,593.25 894.25,652.75 920.375,722.25 935.5,795.375 932.0,860.625 905.75,904.375 859.625,918.25 803.75,904.0"/>
    <polyline points="749.0,871.0 703.0,830.375 669.0,789.75 647.125,753.375 636.125,722.375 634.25,696.5 639.875,674.875 651.0,656.375 665.875,640.125 682.375,625.625 713.25,600.875 724.5,590.875 731.75,582.75 734.875,576.5 734.5,572.125 731.375,569.5 726.25,568.25 719.875,568.0 712.875,568.375 674.0,573.875"/>
    <polyline points="668.875,574.125 659.5,574.125 651.375,573.125 647.75,572.375 640.875,570.25 634.75,567.5 626.625,562.625 617.625,555.375 610.5,547.75 606.25,542.125 604.0,538.5"/>
    <polyline points="603.0,536.625 602.0,534.875 599.25,527.875 598.0,521.375 598.0,516.625 599.25,510.625 601.25,506.25 602.875,503.5 607.625,498.375"/>
    <polyline points="609.0,497.25 614.125,493.875 618.0,492.125 620.25,491.25 627.875,489.5 633.75,489.125 640.625,489.625 648.375,491.125 652.75,492.5 662.375,496.5 667.875,499.375 673.625,502.875 679.75,507.125 686.5,512.375 693.5,518.5 701.125,525.875 709.125,534.5"/>
    <polyline points="717.5,544.5 726.0,556.0 734.75,569.0 743.25,583.625 751.375,599.5 758.5,616.5 764.25,634.125 768.0,651.625 769.375,668.125 767.75,682.875 763.0,694.75 755.25,703.25 744.75,707.875 732.125,708.5 718.0,705.75 703.25,699.875 688.5,691.75 674.125,682.25 660.625,671.875 648.25,661.25 637.125,650.875 627.0,640.875 618.125,631.625 597.125,608.375"/>
    <polyline points="591.75,602.25 582.625,591.875 572.25,580.75 566.75,575.375 560.0,569.75 554.375,566.125 548.0,563.25 542.625,562.0 537.875,561.75"/>
    <polyline points="536.875,561.75 533.0,562.375 530.5,563.25 528.5,564.375 526.875,565.75 525.5,567.875 525.25,569.125 525.25,570.375 526.375,572.875"/>
    <polyline points="527.0,573.5 530.25,576.0 534.0,577.625 541.125,579.25 548.0,579.875 553.125,579.875 561.5,579.375 572.875,577.625 578.125,576.25"/>
    <polyline points="580.5,575.5 586.375,573.125 589.0,571.375 589.875,570.5 590.875,568.75 590.75,567.0 590.25,566.25 587.5,563.875 583.125,561.75 577.75,559.75 567.625,556.75"/>
    <polyline points="565.5,556.125 553.375,553.25 540.5,551.125 534.0,550.625 529.625,550.625 522.875,551.375"/>
    <polyline points="521.625,551.625 515.875,553.5 512.875,555.0 509.125,557.5 506.0,560.625 503.5,564.25 502.25,567.25 501.75,569.5"/>
    <polyline points="501.625,570.625 501.875,574.125 503.125,577.75 506.125,581.375 509.125,583.75 511.125,584.875 515.875,586.875 522.125,588.75 534.625,590.5 545.125,590.875 557.25,590.375 570.875,588.875"/>
    <polyline points="577.875,587.75 585.0,586.5 598.875,583.125 605.25,581.25 616.25,577.25 620.625,575.125 626.75,571.25 628.5,569.375 629.375,567.625 629.375,566.125 628.75,564.75 627.375,563.375 625.5,562.125 620.375,560.0 614.25,558.0 593.625,552.0"/>
    <polyline points="590.25,550.875 580.75,547.625 564.625,540.75 550.375,533.375 537.875,525.75"/>
    <polyline points="536.75,525.0 531.25,521.25 526.625,517.625 522.0,513.0"/>
    <polyline points="521.75,512.75 520.5,510.875 519.75,509.0 519.75,505.625"/>
    <polyline points="519.75,505.375 521.0,501.625 523.625,496.5"/>
    <polyline points="523.875,496.0 527.375,490.125 533.125,479.375"/>
    <polyline points="533.625,478.5 538.75,467.25 541.75,458.625 544.125,449.875 545.375,441.5"/>
    <polyline points="545.625,439.25 545.875,434.375 545.75,426.25 544.5,417.0 543.0,410.125 539.125,398.5 537.375,394.25 532.875,385.375 527.0,375.875 519.375,365.75 515.0,360.625 504.75,350.375 498.875,345.5 492.5,340.75"/>
    <polyline points="485.875,336.375 478.75,332.5 471.5,329.25 464.0,326.875 456.5,325.25 449.125,324.75 442.0,325.5 435.375,327.25 429.375,330.375 424.0,334.75 419.5,340.125 415.875,346.5 413.125,353.875 411.25,361.75 410.25,370.125 410.0,378.75 410.5,387.5 411.5,396.125 415.0,412.75 419.875,427.875 425.375,441.25 431.125,452.75"/>
    <polyline points="434.0,457.75 436.875,462.5 442.5,470.625 447.625,477.5 452.5,483.375 463.0,494.25 480.375,510.5"/>
    <polyline points="481.25,511.375 484.875,515.375 488.0,520.375 489.0,523.0 489.5,525.625 489.5,529.0"/>
    <polyline points="489.375,529.625 488.5,533.875 487.125,537.75 480.75,550.75"/>
    <polyline points="480.125,551.875 474.75,563.0 472.125,570.375 470.875,575.25 470.375,580.5 470.5,582.375 471.125,586.0 472.5,589.875"/>
    <polyline points="473.625,591.75 476.875,595.625 482.0,599.375 489.5,602.875 494.375,604.375 500.25,605.75 507.125,606.875 524.375,608.125 535.0,608.0 547.125,607.375 560.5,606.125 575.0,604.125 590.625,601.5 606.75,598.0 622.875,593.875 638.25,589.125 652.5,584.25 664.625,579.25 674.375,574.375 681.375,570.125 685.625,566.375 687.25,563.375"/>
    <polyline points="686.75,561.125 684.375,559.625 680.75,558.5 676.25,557.875 671.125,557.375 654.625,556.75 644.25,556.0 634.875,554.75 626.625,553.0 616.25,549.375 610.375,546.5 603.125,541.625 599.25,538.25 595.875,534.75"/>
    <polyline points="594.5,533.125 591.875,529.625 589.0,524.375 587.625,521.0 586.0,514.25 585.75,509.25 586.25,504.25 588.125,497.625 591.125,491.125"/>
    <polyline points="592.125,489.5 595.5,484.5 598.25,481.125 604.875,474.5 608.75,471.25 613.125,468.125 620.625,463.625 629.625,459.875 636.625,458.0 640.625,457.25 644.75,456.875 649.25,456.625 654.125,456.875"/>
    <polyline points="659.375,457.625 665.25,458.75 671.5,460.625 678.5,463.375 686.125,467.0 694.625,472.0 704.0,478.375 714.5,486.75 726.125,497.25 739.0,510.5 753.125,526.875 768.375,547.0 784.5,571.375 800.875,600.0 816.375,632.625 829.5,668.375 838.125,705.0 840.125,739.5 834.0,768.25 819.375,787.875 797.25,796.5 770.25,794.25 741.25,783.125 713.0,765.875 687.375,745.5 665.5,724.5"/>
    <polyline points="647.5,704.125 633.5,685.625 622.875,669.125 615.375,654.75 610.375,642.5 607.375,632.0 606.125,623.0 606.125,615.375 607.0,608.75 608.625,603.0 610.5,598.0 616.75,586.125 619.625,580.0 620.75,575.0 620.625,572.875 618.875,569.125 615.375,566.0 613.25,564.625 608.125,562.125"/>
    <polyline points="605.375,560.875 572.375,549.375 541.625,537.625"/>
    <polyline points="540.0,537.0 532.625,534.375 523.25,531.875 517.625,531.25 512.875,531.5"/>
    <polyline points="512.125,531.625 507.25,533.125 503.5,535.25 500.375,537.625 496.0,541.875"/>
    <polyline points="495.375,542.625 490.75,548.125 486.125,555.0 481.75,563.375 479.75,568.875"/>
    <polyline points="479.375,570.375 478.75,573.375 478.625,579.875 479.375,583.375 481.0,586.875 483.625,590.375 487.625,593.75 493.5,597.0 497.25,598.5 501.75,599.875 507.0,601.0 520.125,602.75 537.25,603.25 547.375,602.875 558.5,601.875"/>
    <polyline points="570.5,600.5 583.25,598.375 596.625,595.75 609.875,592.625 622.875,589.125 635.125,585.125 646.0,581.125 655.125,577.125 662.375,573.375 667.375,569.875 670.375,566.875 671.5,564.375 670.75,562.375 668.75,560.75 661.75,558.625 633.0,554.75 624.0,552.875 615.875,550.75"/>
    <polyline points="612.125,549.5 605.375,546.75 599.25,543.75 591.625,538.875 587.375,535.5 583.75,532.125 577.875,525.25 574.75,520.25 571.875,513.75 570.625,508.875"/>
    <polyline points="570.375,507.25 570.0,504.0 570.0,499.125 570.625,494.125 571.75,489.125 572.75,485.625 576.25,476.5 583.0,461.875"/>
    <polyline points="584.125,459.5 588.875,449.5 592.5,440.875 594.875,434.5 597.0,427.375 599.625,415.0 600.5,405.25 600.5,399.875 600.25,393.875 598.375,380.375 596.5,372.625 593.875,364.0 590.25,354.5 585.5,343.875 579.25,332.0"/>
    <polyline points="571.375,318.875 561.25,304.375 548.75,288.375 533.375,271.125 514.625,252.75 492.5,234.125 466.875,216.25 438.375,200.625 407.875,189.375 377.375,184.75 348.75,188.625 324.5,201.875 306.125,224.125 294.5,253.25 289.125,286.75 288.75,321.5 292.125,355.25 297.625,386.25 304.25,413.75 311.125,437.125 317.875,456.75 324.0,472.75 329.75,485.625 335.0,495.875 339.75,503.75 344.125,509.625"/>
    <polyline points="348.25,514.0 352.25,517.125 356.125,519.125 360.0,520.25 363.75,520.75 367.75,520.625 371.625,520.125 379.625,518.5 399.875,512.75 415.125,509.25 422.125,508.125 428.625,507.5 440.125,507.5"/>
    <polyline points="442.625,507.75 449.625,508.75 453.625,509.75 462.125,512.75 466.125,514.875 470.375,517.875 473.625,521.0 476.0,524.25"/>
    <polyline points="476.375,525.0 477.25,526.625 478.25,530.0 478.625,534.25 478.125,538.75 476.5,544.625 475.25,547.875"/>
    <polyline points="474.875,548.875 466.875,567.25 464.75,573.75 463.25,580.875 463.25,586.75"/>
    <polyline points="463.5,588.75 464.0,590.75 465.75,594.875 467.125,597.0 471.25,601.125 477.625,605.125 482.0,607.0 487.25,608.625 493.5,610.25 501.0,611.375 510.0,612.25 520.5,612.75 532.625,612.625 546.5,611.75 562.125,610.125 579.25,607.625 597.625,604.125 616.75,599.75 635.625,594.5 653.5,588.75 669.5,582.75 682.625,576.75 692.5,571.375"/>
    <polyline points="698.875,566.75 701.875,563.0 702.0,560.25 699.75,558.5 695.875,557.5 690.875,557.125 685.125,557.0 656.25,558.125 646.5,557.75 638.125,556.625 631.0,555.0 624.875,552.75 617.375,548.625 611.5,544.0"/>
    <polyline points="609.875,542.375 605.75,537.5 602.625,532.5 600.625,527.625 599.5,522.75 599.25,518.125 600.25,512.25 602.0,508.0 604.625,504.0"/>
    <polyline points="605.75,502.625 609.5,499.0 612.625,496.875 618.25,494.125 622.75,492.625 630.625,491.5 633.75,491.375 640.375,491.875 644.0,492.5 652.25,494.75 661.625,498.75 666.875,501.5 672.5,505.0 678.5,509.125 684.875,514.125"/>
    <polyline points="691.75,520.125 699.0,527.125 706.625,535.375 714.625,544.875 722.75,555.75 731.0,568.125 739.125,581.75 746.875,596.75 753.75,612.75 759.25,629.25 763.125,645.875 764.75,661.625 763.625,675.75 759.75,687.625 753.0,696.25 743.625,701.5 732.125,703.0 719.125,701.25 705.25,696.5 691.125,689.5 677.25,680.875 664.125,671.25 651.875,661.25 640.625,651.25 621.375,632.375"/>
    <polyline points="613.25,623.875 580.0,587.875 572.875,580.625 564.25,572.75 557.25,567.5 553.25,565.0 546.25,562.0 541.75,560.75 539.0,560.375"/>
    <polyline points="537.75,560.25 531.875,560.625 528.0,561.625 526.375,562.375 524.25,563.75 522.0,566.0 520.875,568.625 520.875,570.75"/>
    <polyline points="521.0,571.5 522.75,574.5 524.375,576.0 526.5,577.375 531.0,579.25 534.875,580.375 542.0,581.5 550.75,581.875 560.75,581.375 571.375,580.0"/>
    <polyline points="574.875,579.25 584.5,576.875 592.0,573.875 595.5,571.75 596.625,570.75 597.375,569.625 597.875,567.625 597.0,565.75 593.625,563.125 588.375,560.75 577.375,557.0"/>
    <polyline points="575.125,556.375 561.25,552.375 548.5,549.25 534.25,546.75 526.75,546.375"/>
    <polyline points="525.375,546.375 520.125,546.875 516.625,547.625 512.125,549.125 509.125,550.625 505.375,553.125 501.875,556.125 499.625,558.75"/>
    <polyline points="498.875,559.75 495.875,564.875 495.0,567.25 494.25,570.875 494.25,574.875 495.375,579.0 497.0,581.75 501.25,585.875 505.625,588.5 511.5,590.875"/>
    <polyline points="515.125,591.875 519.125,592.75 529.0,594.125 541.25,594.625 548.25,594.5 555.875,594.0 572.375,592.25 581.125,590.875 598.75,587.125 615.125,582.375 622.375,579.75 628.625,577.25 637.75,572.25 640.5,570.0 642.0,567.875 642.5,566.0 642.0,564.375 640.5,562.875 638.375,561.625 635.625,560.5"/>
    <polyline points="632.5,559.375 605.875,552.5 598.5,550.25 585.25,545.25 576.75,541.25 569.375,537.125 565.125,534.5 557.875,529.375"/>
    <polyline points="556.375,528.125 549.75,522.25 544.25,515.75 541.75,511.75 540.375,508.875 539.125,505.125 538.625,502.375"/>
    <polyline points="538.5,501.375 538.5,495.75 539.25,490.75 540.625,485.5 544.375,474.375"/>
    <polyline points="544.875,473.0 549.0,460.375 550.5,454.75 552.625,443.75 553.375,436.0 553.5,427.25 552.5,417.125"/>
    <polyline points="551.875,413.375 550.125,405.375 547.25,396.375 543.125,386.625 537.375,375.75 529.625,364.0 524.875,357.75 519.625,351.5 513.625,345.125 507.0,338.625 499.75,332.375 491.75,326.375 483.25,320.875 474.125,315.875 464.75,311.875 455.125,309.0 445.5,307.375 436.125,307.375 427.25,309.0 419.125,312.25 412.0,317.375"/>
    <polyline points="406.0,324.125 401.25,332.375 397.75,341.75 395.5,352.0 394.5,362.75 394.5,373.875 395.375,384.875 396.875,395.75 399.125,406.25 401.75,416.125 407.875,434.0 411.25,442.0 418.0,455.875 424.625,467.25 430.875,476.625 439.5,487.625 449.125,498.0"/>
    <polyline points="451.25,500.125 464.5,512.5 470.75,519.125 472.25,521.0 475.125,525.625 476.375,529.25"/>
    <polyline points="476.625,530.125 477.125,532.75 477.125,536.5 476.75,539.25 474.375,547.5 470.875,555.75"/>
    <polyline points="470.25,557.125 466.625,565.5 463.75,573.5 462.125,580.625 461.875,584.5 461.875,586.375 462.5,590.5 464.0,594.625 466.875,598.875 469.0,601.0"/>
    <polyline points="471.625,603.0 474.875,605.0 479.0,607.0 483.875,608.75 489.875,610.375 497.0,611.75 505.5,612.875 515.625,613.5 527.375,613.5 540.875,612.875 556.25,611.625 573.375,609.25 591.875,606.0 611.25,601.875 630.75,596.75 649.625,590.875 666.75,584.75 681.25,578.5 692.375,572.75 699.875,567.75 703.875,563.625 704.75,560.625 703.0,558.625 699.375,557.5 694.5,557.0 688.75,557.0"/>
    <polyline points="682.75,557.25 659.375,558.5 654.25,558.5 649.5,558.375 641.0,557.5 633.75,556.0 624.875,552.75 617.75,548.625 615.75,547.125 612.25,544.0 609.375,540.75 606.875,537.5 605.0,534.25"/>
    <polyline points="604.125,532.625 602.375,527.875 601.625,524.625 601.375,518.625 602.25,514.25 603.875,510.125 607.5,505.125 611.375,501.625 616.125,498.75"/>
    <polyline points="618.0,497.875 622.125,496.5 629.625,495.25 635.375,495.25 642.0,496.125 645.75,497.0 653.875,499.625 663.125,504.125 673.75,510.75 679.625,515.125 685.875,520.25 692.375,526.375 699.375,533.5 706.625,541.75 714.0,551.125 721.625,561.75 729.125,573.625 736.375,586.5"/>
    <polyline points="743.0,600.5 748.75,615.25 753.25,630.125 756.125,644.875 756.875,658.75 755.125,670.875 751.0,680.875 744.5,688.125 735.625,692.25 725.0,693.375 713.125,691.5 700.5,687.125 687.625,680.75 674.875,673.0 662.75,664.375 651.25,655.25 640.625,646.125 631.0,637.25 622.125,628.75 580.5,586.0"/>
    <polyline points="576.5,582.0 563.5,570.5 553.5,563.625 549.25,561.375 543.5,559.125 540.125,558.125 535.5,557.25 530.0,557.125 526.25,557.625"/>
    <polyline points="525.125,558.0 521.0,559.375 518.375,560.875 516.125,562.75 514.375,564.875 512.875,568.125 512.625,569.875 512.875,572.625 514.25,575.5"/>
    <polyline points="515.0,576.375 516.875,578.25 519.5,580.0 523.0,581.75 527.375,583.25 536.0,584.875 547.125,585.5 555.75,585.375 560.375,585.0 575.0,583.125 589.125,580.0 597.375,577.375"/>
    <polyline points="600.875,575.875 606.5,573.125 609.875,570.25 610.75,569.0 610.875,566.5 610.25,565.375 609.125,564.25 603.875,561.25 599.125,559.375 569.0,549.875"/>
    <polyline points="566.5,549.0 537.5,539.625 528.625,537.5 522.5,536.75"/>
    <polyline points="521.375,536.625 517.125,536.625 514.125,537.0 509.625,538.125 504.75,540.375 499.375,544.25"/>
    <polyline points="498.625,544.875 493.375,550.375 488.5,557.25 485.375,563.125 483.375,568.375 482.75,571.25"/>
    <polyline points="482.5,572.75 482.375,577.375 482.75,580.5 483.25,582.125 484.875,585.5 487.5,588.875 491.5,592.125 494.125,593.625 497.125,595.125 505.125,597.875 510.125,599.0 522.375,600.625 538.25,601.125 557.75,600.0 568.625,598.75 580.375,597.0"/>
    <polyline points="592.375,594.75 604.5,592.0 616.5,588.75 627.75,585.375 637.875,581.75 646.75,578.125 653.75,574.5 659.0,571.25 662.5,568.375 664.125,565.875 664.125,563.75 662.75,562.0 660.25,560.625 657.0,559.5 621.25,553.0 613.125,550.75 605.75,548.25"/>
    <polyline points="602.25,546.875 593.25,542.375 585.625,537.625 581.375,534.25 576.0,529.375 571.75,524.5 567.5,518.125 565.25,513.5 564.125,510.5 563.375,507.375"/>
    <polyline points="563.125,505.875 562.5,501.375 562.5,496.75 563.25,490.5 566.375,478.625 572.25,462.75"/>
    <polyline points="573.0,460.5 575.625,453.375 578.125,445.25 581.125,432.75 582.125,425.375 582.625,417.125 582.5,407.875 582.0,402.625 581.125,397.125 578.25,384.625 576.0,377.5 573.125,369.875 564.875,352.5 559.125,342.75"/>
    <polyline points="552.125,332.125 543.75,320.75 533.625,308.625 521.625,295.875 507.75,282.875 491.875,269.875 473.875,257.625 454.375,246.875 433.625,238.625 412.5,233.875 392.0,233.75 373.25,238.75 357.375,249.25 344.875,264.625 336.25,284.25 331.375,306.625 329.875,330.375 330.875,354.125 334.0,377.0 338.25,398.25 343.25,417.5 348.625,434.5 354.125,449.25 364.5,472.75 369.375,481.75"/>
    <polyline points="373.875,489.375 382.0,501.0 385.75,505.25 389.25,508.875 392.625,511.75 398.75,516.125 404.25,519.0 409.375,521.125 428.0,526.0 435.5,528.625"/>
    <polyline points="436.75,529.125 439.125,530.375 442.875,533.125 445.0,535.5 446.625,538.125 447.875,541.75 448.25,544.75 447.875,549.125 447.375,551.375"/>
    <polyline points="447.125,552.5 444.75,558.875 441.125,565.875 424.0,593.0"/>
    <polyline points="422.625,595.25 417.5,604.625 415.25,609.875 413.75,615.25 413.125,621.0 413.375,624.0 414.125,627.0 415.5,630.125 417.625,633.125 420.875,636.25 425.5,639.25 431.875,642.125 440.375,644.875 451.75,647.0 466.625,648.625 485.875,649.125 510.625,648.125 541.5,645.0 579.0,639.125 622.5,629.875"/>
    <polyline points="669.875,616.875 717.0,601.0 758.5,583.625 789.375,567.375 807.125,554.625 812.75,546.75 809.375,544.0 800.875,545.5 790.375,550.375 779.875,557.375 770.5,565.875 762.75,575.125 756.5,584.75 751.375,594.375 739.625,621.625 735.75,629.375 731.25,636.0 726.25,641.375 720.5,645.5 714.0,648.0 707.0,649.125 699.25,648.875 691.25,647.375 683.0,644.625"/>
    <polyline points="674.625,641.0 666.25,636.625 658.125,631.75 650.25,626.375 635.375,615.375 622.0,604.375 590.75,576.625 575.5,563.5 566.125,555.875 553.375,546.625"/>
    <polyline points="551.125,545.125 541.625,539.375 531.125,534.25 524.125,531.875 517.625,530.75"/>
    <polyline points="516.875,530.75 513.75,530.75 509.5,531.625 506.375,532.875 502.625,535.125 500.25,537.125"/>
    <polyline points="499.625,537.625 495.375,541.875 491.5,546.5 488.25,551.125 483.75,558.625"/>
    <polyline points="483.125,559.875 480.75,565.0 478.625,572.25 478.125,577.0 478.625,582.125 479.125,583.75 482.0,589.125 485.5,592.625 490.625,595.875 493.875,597.5 497.875,599.0"/>
    <polyline points="502.5,600.375 514.25,602.375 521.5,603.125 529.875,603.5 549.625,602.875 561.0,601.875 573.375,600.25 586.375,598.0 599.75,595.25 613.25,592.0 626.25,588.25 638.25,584.25 648.875,580.25 657.625,576.25 664.375,572.5 669.0,569.125 671.5,566.125 672.125,563.75 671.125,561.875 668.75,560.375 665.375,559.25 661.25,558.375 651.875,557.125"/>
    <polyline points="646.875,556.5 632.25,554.5 623.375,552.75 611.625,549.25 601.875,544.875 593.875,540.125 587.375,535.125 583.875,531.75 579.375,526.625 576.0,521.5"/>
    <polyline points="575.125,519.875 573.5,516.625 571.875,511.625 571.125,508.375 570.625,501.875 570.75,498.625 572.25,490.25 573.875,485.0 576.625,477.75"/>
    <polyline points="577.5,475.75 590.625,448.625 596.875,433.375 599.125,426.25 601.875,413.625 602.75,403.75 602.875,398.125"/>
    <polyline points="602.625,392.125 601.875,385.5 600.625,378.25 598.625,370.25 595.875,361.375 592.125,351.5 587.125,340.375 580.5,328.125 572.0,314.375 561.25,299.125 547.875,282.25 531.25,264.125 511.25,244.875 487.5,225.5 460.0,207.125 429.625,191.625 397.625,181.25 366.0,178.5 337.125,185.125 313.375,201.875 296.5,227.75 286.5,260.125 283.0,296.0 284.25,332.125 288.875,366.5 295.125,397.375"/>
    <polyline points="302.125,424.125 309.25,446.75 315.875,465.25 321.875,480.25 327.375,492.125 332.375,501.25 337.0,508.25 341.25,513.25 345.375,516.875 349.375,519.125 353.375,520.375 357.375,520.875 361.375,520.75 365.5,520.125 374.125,517.875 391.75,512.125 404.75,508.25 416.875,505.375"/>
    <polyline points="420.625,504.75 434.375,503.375 440.375,503.375 445.875,503.75 453.0,504.875 457.25,505.875 464.375,508.375 470.0,511.125 474.5,514.125"/>
    <polyline points="475.5,514.875 478.0,517.0 480.0,519.25 482.0,522.25 483.0,524.375 484.0,528.125 484.125,532.0 483.875,533.625"/>
    <polyline points="483.875,534.375 482.25,540.375 480.375,545.125 473.375,560.125"/>
    <polyline points="472.75,561.5 470.375,567.25 468.375,573.625 467.625,577.125 467.25,580.625 467.375,584.375 467.625,586.375 468.75,590.25 471.0,594.25 474.75,598.25 477.25,600.125 480.5,602.0 484.375,603.875 489.0,605.5"/>
    <polyline points="494.625,607.0 501.25,608.375 509.125,609.375 528.875,610.125 541.0,609.625 554.75,608.625 569.875,606.75 586.125,604.0 603.25,600.5 620.75,596.25 637.625,591.375 653.375,586.0 667.125,580.625 678.25,575.375 686.375,570.5 691.375,566.5 693.5,563.25 693.25,560.75 691.0,559.125 687.25,558.125 682.375,557.5 677.0,557.25 660.0,557.125"/>
    <polyline points="592.75,521.625 591.75,515.0 592.0,510.25 593.0,505.5 594.75,500.75 597.375,496.25 600.875,491.75 603.625,488.875 610.5,483.5"/>
    <polyline points="612.5,482.25 619.375,478.875 627.75,476.25 634.375,475.375 638.0,475.125 641.875,475.25 650.5,476.375 655.375,477.5 660.625,479.125 666.375,481.375 672.625,484.25 679.25,488.125 686.625,492.875 694.625,498.875 703.375,506.125 712.75,515.125 722.875,525.875 733.625,538.75 745.0,554.0 756.625,571.625"/>
    <polyline points="768.25,591.875 779.125,614.25 788.5,638.25 795.5,663.125 799.0,687.375 798.125,709.25 792.375,727.0 781.625,739.25 766.625,745.125 748.625,744.75 728.75,738.875 708.5,728.875 689.125,716.125 671.125,701.875 655.125,687.375 641.25,673.125 629.375,660.0 619.5,647.875 611.25,637.125 598.875,619.25 594.375,612.0 587.875,600.375 583.75,591.625"/>
    <polyline points="582.125,588.25 576.875,575.0 575.5,572.25 573.25,569.25 570.625,566.875 567.5,565.0 564.0,563.5 557.75,561.75"/>
    <polyline points="556.375,561.375 546.125,560.0 539.0,560.125 532.75,561.25 528.625,563.0"/>
    <polyline points="528.0,563.375 526.625,564.25 524.375,567.0 523.75,568.875 524.0,571.5 525.25,573.5 527.375,575.5 530.75,577.375 533.75,578.375"/>
    <polyline points="535.5,578.875 541.625,580.0 546.5,580.5 551.875,580.625 560.75,580.125 570.125,578.875 578.875,576.875 586.125,574.375 589.75,572.625 592.125,570.75 593.25,568.875"/>
    <polyline points="593.375,568.0 592.625,566.25 591.0,564.625 588.5,563.0 583.375,560.75 577.5,558.75 564.625,555.0 550.125,551.625"/>
    <polyline points="548.25,551.25 539.25,549.75 532.75,549.25 525.5,549.375 516.875,551.125 512.625,553.0"/>
    <polyline points="511.5,553.5 507.75,556.0 505.25,558.25 502.375,561.75 500.25,565.75 499.0,570.25 499.125,573.875 500.25,577.625"/>
    <polyline points="500.875,579.0 504.125,582.75 507.625,585.25 512.25,587.5 518.375,589.5 522.125,590.375 530.875,591.625 536.0,592.0 547.75,592.125 561.375,591.25 576.25,589.375 584.0,588.0 591.625,586.375 606.125,582.5 618.625,578.0"/>
    <polyline points="623.625,575.875 630.75,571.5 632.75,569.625 633.875,567.75 634.0,566.125 633.375,564.625 632.0,563.25 630.0,562.0 624.625,559.75 596.5,551.75 583.375,547.125 574.625,543.5"/>
    <polyline points="572.0,542.25 562.5,537.5 552.875,531.875 546.75,527.75 539.75,522.375 534.75,517.75"/>
    <polyline points="534.125,517.0 531.25,513.75 528.5,509.0 527.625,506.125 527.375,502.25"/>
    <polyline points="527.375,501.75 528.0,497.625 528.75,495.25 533.0,484.75"/>
    <polyline points="533.5,483.875 540.625,467.375 543.625,458.25 545.5,451.125"/>
    <polyline points="545.875,449.125 547.25,440.375 547.625,432.875 547.5,427.25 546.875,421.25 545.75,414.5 542.75,403.25 539.625,394.875 537.625,390.5 532.5,381.0 525.875,370.75 517.375,360.125"/>
    <polyline points="512.375,354.75 500.875,344.0 487.375,334.25 480.0,330.0 472.25,326.375 464.375,323.625 456.5,321.75 448.625,321.0 441.0,321.5 433.875,323.25 427.375,326.375 421.625,330.75 416.75,336.375 412.875,343.125 409.875,350.75 407.875,359.125 406.875,368.0 406.625,377.125 407.125,386.375 408.25,395.5 409.875,404.375 412.0,413.0 414.375,421.125 417.125,428.75"/>
    <polyline points="419.875,436.0 425.875,448.75 431.875,459.625 437.625,468.75 445.75,479.625 455.25,490.375 461.25,496.375 474.5,508.75"/>
    <polyline points="475.625,509.875 481.625,516.25 484.25,520.125 486.125,524.5 486.75,529.625"/>
    <polyline points="486.625,530.25 486.125,534.125 484.625,539.0 482.375,544.375 478.25,552.875"/>
    <polyline points="477.625,554.0 474.625,560.25 471.75,567.375 470.25,572.0 469.0,578.875 468.875,582.375 469.375,586.25 470.75,590.0 473.125,594.0"/>
    <polyline points="474.875,595.875 477.0,597.875 479.75,599.75 483.0,601.625 487.0,603.375 491.875,605.0 497.625,606.375 504.375,607.625 512.375,608.5 521.625,609.0 532.25,609.0 544.375,608.5 557.875,607.25 572.75,605.375 588.625,602.625 605.25,599.125 622.0,595.0 638.25,590.125 653.125,585.0 666.0,579.75 676.375,574.75 683.875,570.25 688.5,566.375 690.375,563.25 689.875,561.0 687.5,559.375"/>
    <polyline points="683.875,558.25 679.125,557.625 646.625,556.375 637.25,555.25 625.25,552.625 615.5,548.75 607.75,544.125 601.75,539.25 598.375,535.75 595.75,532.25"/>
    <polyline points="594.5,530.625 592.5,527.125 590.375,522.0 589.375,518.625 588.625,512.0 589.375,505.5 590.75,500.625 593.75,494.25 597.0,489.5"/>
    <polyline points="598.25,488.0 604.25,481.75 609.75,477.375 614.125,474.625 621.625,470.875 627.5,468.875 637.875,467.0 641.875,466.75 646.125,466.875 650.75,467.25 655.75,468.125 667.0,471.375 673.5,474.0 680.5,477.625"/>
    <polyline points="688.25,482.25 696.75,488.125 706.0,495.5 716.25,504.75 727.375,516.125 739.5,529.875 752.375,546.625 765.875,566.375 779.625,589.375 792.75,615.5 804.25,644.125 813.0,673.875 817.375,703.125 816.125,729.375 808.625,750.25 794.625,763.625 775.625,768.625 753.0,765.75 729.125,756.375 705.625,742.375 683.875,725.875 664.5,708.625 648.125,691.625 634.5,675.75 623.5,661.25 614.75,648.5"/>
    <polyline points="608.0,637.375 603.0,627.75 599.375,619.375 596.75,612.25 595.125,606.125 594.125,600.875 593.5,592.375 594.875,576.75 594.625,573.375 594.125,571.875 592.75,569.125 590.625,566.875 586.25,563.875 582.75,562.125"/>
    <polyline points="580.75,561.375 572.625,558.375 555.875,553.75 546.25,551.75 537.625,550.625 532.875,550.375"/>
    <polyline points="531.375,550.375 527.125,550.5 523.125,551.0 520.625,551.5 516.0,553.0 512.875,554.5 509.25,557.0 506.75,559.25 504.625,561.75"/>
    <polyline points="504.0,562.75 502.375,565.625 501.625,567.75 501.125,569.875 501.125,573.375 502.25,577.0 504.75,580.75 507.5,583.125 513.75,586.5 523.0,589.25 527.0,589.875"/>
    <polyline points="531.375,590.5 541.375,591.125 553.25,590.875 573.75,588.75 580.875,587.5 595.25,584.375 602.0,582.5 614.0,578.5 623.0,574.375 626.25,572.25 628.5,570.375 629.875,568.625 630.375,567.0 630.125,565.375 629.125,564.0 625.375,561.625 619.875,559.5"/>
    <polyline points="616.75,558.5 596.0,552.5 579.875,547.0 568.875,542.375 559.625,537.875 548.5,531.625"/>
    <polyline points="546.875,530.75 542.625,528.125 533.125,521.5 527.75,517.0 525.5,514.625"/>
    <polyline points="525.0,514.25 522.375,510.5 521.375,507.375 521.375,505.375"/>
    <polyline points="521.375,505.0 522.375,501.0 525.375,494.625"/>
    <polyline points="525.625,494.125 531.875,482.625 535.625,475.0"/>
    <polyline points="536.125,473.875 540.25,463.875 543.75,452.625 545.25,444.625 545.75,440.25 546.125,435.375 546.125,430.25"/>
    <polyline points="546.0,427.375 545.0,418.25 542.625,407.875 540.0,400.125 536.375,391.625 534.125,387.125 528.5,377.625 525.125,372.625 517.0,362.5 512.25,357.25 501.25,347.0 495.125,342.25 488.5,337.625 481.5,333.5 474.25,330.0 466.75,327.25 459.25,325.25"/>
    <polyline points="451.75,324.375 444.5,324.5 437.625,326.0 431.25,328.625 425.625,332.5 420.625,337.5 416.625,343.625 413.5,350.625 411.375,358.375 410.0,366.75 409.5,375.375 409.75,384.125 410.625,392.875 412.0,401.5 413.875,409.875 418.5,425.375 424.0,439.125 429.75,451.0 438.375,465.5 443.875,473.25"/>
    <polyline points="446.5,476.625 453.75,485.25 460.125,492.0 475.75,506.5 481.625,512.25 483.75,514.75"/>
    <polyline points="484.375,515.5 486.5,518.375 488.625,523.25 489.125,525.875 489.125,529.25 488.5,532.75"/>
    <polyline points="488.25,533.5 487.625,535.75 485.625,540.625 477.375,557.125"/>
    <polyline points="476.75,558.375 473.125,566.625 470.875,574.5 470.25,579.625 470.625,585.125 471.125,587.0 472.875,590.875 475.75,594.75 480.25,598.5 483.375,600.375"/>
    <polyline points="487.125,602.125 491.625,603.75 497.0,605.125 503.25,606.375 510.75,607.375 519.375,608.0 529.375,608.25 540.75,607.875 553.375,607.0 567.5,605.375 582.625,603.0 598.625,599.875 614.875,596.125 630.875,591.625 645.875,586.75 659.125,581.75 670.125,576.75 678.625,572.125 684.25,568.125 687.125,564.75 687.625,562.125 686.125,560.25 683.125,558.875 678.875,558.125 668.625,557.25"/>
    <polyline points="663.125,557.125 647.0,556.25 637.375,555.25 625.0,552.5 618.0,550.125 609.375,545.75 604.5,542.5 600.5,539.25 597.0,535.75 594.125,532.25 591.625,528.75 589.75,525.375"/>
    <polyline points="589.0,523.625 587.625,520.25 586.25,513.5 586.125,508.5 586.75,503.5 587.625,500.25 590.25,493.75 593.125,488.75 598.125,482.25"/>
    <polyline points="599.625,480.625 602.75,477.25 606.375,474.0 612.75,469.375 620.125,465.0 625.875,462.375 632.5,460.25 639.875,458.625 644.0,458.25 648.5,458.125 658.5,459.0 664.25,460.25 670.375,462.0 677.25,464.75 684.75,468.25 693.125,473.125"/>
    <polyline points="702.375,479.375 712.625,487.375 724.0,497.625 736.5,510.375 750.25,526.25 765.125,545.625 780.875,569.0 796.75,596.5 812.0,627.875 825.125,662.375 834.125,698.0 837.0,732.125 832.25,761.0 819.25,781.625 798.875,791.75 773.25,791.375 745.125,782.0 717.25,766.125 691.625,746.75 669.375,726.25 650.875,706.25 636.125,687.625 624.75,671.0 616.5,656.5 610.75,644.0 607.0,633.375"/>
    <polyline points="605.125,624.25 604.375,616.375 604.75,609.75 605.875,603.875 607.375,598.875 609.125,594.375 615.5,580.875 616.875,575.875 616.875,573.75 615.625,570.0 614.375,568.375 612.75,566.875 608.75,564.125 598.25,559.5 589.375,556.375"/>
    <polyline points="586.5,555.375 566.875,548.75 541.25,539.625 531.875,536.875"/>
    <polyline points="530.5,536.5 523.125,535.125 516.875,534.875 511.5,535.625 509.0,536.375 506.0,537.75"/>
    <polyline points="505.25,538.125 501.5,540.5 495.75,545.75 492.25,549.75 487.5,556.75"/>
    <polyline points="486.875,557.75 483.75,563.875 481.5,570.75 480.875,575.375 481.25,580.125 483.0,585.125 485.375,588.625 489.0,591.875 494.25,595.125"/>
    <polyline points="497.75,596.625 506.5,599.25 518.25,601.125 533.625,601.875 542.75,601.75 552.875,601.125 575.625,598.5 600.625,593.625 613.125,590.5 625.125,587.0 636.125,583.375 645.75,579.5 653.875,575.75 660.0,572.25 664.125,569.125 666.375,566.375 666.875,564.125 665.875,562.25 663.75,560.875 660.5,559.625 656.625,558.75"/>
    <polyline points="652.375,557.875 633.375,555.125 624.375,553.375 616.0,551.25 604.875,547.375 595.75,543.0 585.875,536.5 578.375,529.875 574.125,524.875"/>
    <polyline points="573.0,523.25 570.875,520.0 568.375,515.25 566.25,508.875 565.625,505.75 565.25,501.125 565.375,496.375 566.0,491.5 568.125,483.125"/>
    <polyline points="568.75,481.375 571.375,473.875 580.25,451.625 584.0,440.125 585.625,433.625 587.0,426.375 587.625,422.375 588.25,413.75"/>
    <polyline points="588.25,409.0 588.125,403.75 587.5,398.25 586.625,392.25 585.25,385.75 583.375,378.625 580.75,370.875 577.375,362.5 573.0,353.125 567.625,343.0 560.75,332.0 552.5,319.875 542.25,306.875 530.0,293.0 515.5,278.5 498.5,263.875 479.25,249.625 457.625,236.625 434.5,226.25 410.625,219.75 387.125,218.375 365.5,223.125 347.125,234.375 332.875,251.875 323.375,274.125 318.125,299.625"/>
    <polyline points="316.875,326.625 318.5,353.5 322.25,379.0 327.375,402.25 333.0,422.875 338.875,440.875 344.75,456.25 350.25,469.25 355.5,480.0 360.375,489.0 364.875,496.25 369.125,502.125 373.0,506.875 376.75,510.625 380.25,513.625 383.625,515.875 386.875,517.625 393.0,520.0 401.625,521.625 412.0,522.25"/>
    <polyline points="414.5,522.375 427.625,523.125 436.375,524.875 440.75,526.375 445.375,528.875 448.25,531.125 451.0,534.375"/>
    <polyline points="451.5,535.25 453.375,539.875 453.75,542.875 453.5,547.25 452.5,551.875 451.25,555.625 447.5,564.0"/>
    <polyline points="446.75,565.5 434.375,588.75 430.875,597.75 429.375,605.125 429.375,610.375 429.875,613.0 430.875,615.75 432.375,618.5"/>
    <polyline points="434.5,621.25 437.5,624.0 441.625,626.75 447.0,629.375 454.0,631.75 463.0,633.875 474.5,635.5 489.125,636.5 507.125,636.5 529.375,635.25 556.125,632.125 587.25,627.0 622.0,619.375 658.75,609.375 694.75,597.5 726.625,584.625 751.5,572.375 767.625,562.125 775.125,554.75 775.25,550.75 770.375,549.625 762.75,551.0 753.875,554.125 745.0,558.375 736.75,563.25 729.375,568.5"/>
    <polyline points="723.0,573.75 712.75,583.75 701.125,596.25 697.625,599.5 694.125,602.25 690.625,604.5 686.875,606.125 683.125,607.25 679.125,607.875 675.0,607.875 670.75,607.375 666.375,606.375 657.5,603.25 653.0,601.125 644.0,596.0 635.25,590.25 619.25,577.75"/>
    <polyline points="615.625,574.625 608.75,568.5 599.625,559.75 589.375,549.125 583.125,542.125 576.25,533.625 571.0,526.0 568.0,520.75 566.5,517.375"/>
    <polyline points="565.75,515.75 563.375,507.75 562.75,503.125 562.625,498.5 563.5,490.5 565.125,483.875 568.0,475.0"/>
    <polyline points="568.625,473.125 576.875,450.75 579.375,442.375 580.875,436.125 582.125,429.125 583.0,421.375 583.0,407.75 581.75,397.0 580.5,391.0"/>
    <polyline points="578.875,384.5 576.625,377.375 573.75,369.75 570.0,361.375 565.375,352.375 559.75,342.5 552.75,331.875 544.25,320.375 534.125,308.125 522.0,295.25 508.0,282.125 491.875,269.0 473.875,256.625 454.0,245.625 433.0,237.375 411.625,232.5 391.0,232.375 372.125,237.625 356.0,248.25 343.5,264.0 334.875,284.0 330.125,306.625 328.625,330.625 329.875,354.75 333.0,377.875 337.375,399.25"/>
    <polyline points="342.5,418.5 348.0,435.5 353.375,450.25 358.75,462.875 363.875,473.625 368.625,482.625 373.125,490.25 377.375,496.5 381.375,501.625 388.625,509.375 391.875,512.25 398.0,516.5 403.625,519.25 408.75,521.25 413.5,522.625 425.75,525.375"/>
    <polyline points="427.5,525.875 435.25,528.25 440.0,530.75 442.875,532.75 444.375,534.25 446.75,537.625 448.125,541.25 448.5,544.25"/>
    <polyline points="448.5,545.25 448.25,548.5 447.5,552.0 444.0,561.0 439.125,569.875 432.625,580.125"/>
    <polyline points="431.375,582.0 426.25,589.875 421.0,598.75 416.375,608.625 414.875,614.125 414.125,619.75 414.25,622.625 415.0,625.625 416.25,628.75 418.25,631.75 421.25,634.875 425.625,637.875 431.5,640.875 439.5,643.5 450.125,645.75"/>
    <polyline points="464.0,647.5 482.125,648.25 505.25,647.75 534.375,645.25 569.75,640.125 611.375,631.75 657.5,619.875 704.375,604.875 747.125,588.0 780.5,571.5 801.375,557.875 809.875,548.75 808.625,544.75 801.375,545.125 791.25,548.875 780.75,555.25 771.0,563.0 762.875,571.875 756.125,581.125 750.625,590.5 746.125,599.75 738.5,617.125 734.625,624.75 730.5,631.5 725.875,637.125"/>
    <polyline points="720.5,641.5 714.5,644.5 707.875,646.125 700.75,646.5 693.125,645.5 685.125,643.375 677.125,640.25 669.0,636.375 653.25,626.875 645.75,621.625 631.625,610.875 619.0,600.375 581.375,567.125 571.25,558.625"/>
    <polyline points="568.25,556.25 560.125,549.875 545.25,539.625 534.375,533.5 525.125,529.625"/>
    <polyline points="524.25,529.25 520.625,528.25 516.875,527.625 512.375,527.75 509.5,528.375 507.375,529.25"/>
    <polyline points="506.75,529.5 504.25,531.0 500.625,533.875 496.375,538.25 493.625,541.625"/>
    <polyline points="493.0,542.375 487.5,550.125 483.0,557.625 480.0,564.0 478.0,569.625"/>
    <polyline points="477.625,571.25 477.0,574.25 476.75,577.625 477.0,581.0 477.875,584.5 479.5,588.0 482.375,591.625 484.25,593.375 486.75,595.125 493.0,598.375 501.875,601.25 507.625,602.375 521.625,604.0 530.25,604.25 540.0,604.125 550.875,603.5 562.75,602.375"/>
    <polyline points="575.625,600.625 589.125,598.25 603.125,595.25 616.875,591.75 630.25,587.875 642.375,583.625 653.0,579.5 661.625,575.375 668.125,571.5 672.375,568.125 674.5,565.375 674.625,563.0 673.125,561.25 670.375,559.875 666.625,558.875 657.5,557.5 642.375,555.875 632.75,554.5 623.875,552.625 616.0,550.375"/>
    <polyline points="612.375,549.125 605.75,546.25 600.0,543.25 595.0,540.0 590.625,536.625 585.25,531.5 579.875,524.625 577.0,519.5 575.0,514.5 574.125,511.25 573.625,507.875"/>
    <polyline points="573.375,506.25 573.25,503.0 573.625,498.0 575.5,489.5 578.125,482.375 580.625,476.75 589.625,460.0"/>
    <polyline points="591.0,457.625 601.125,438.875 605.625,429.0 608.375,421.5 610.875,413.125 611.875,408.375 613.25,397.875 613.5,392.0 613.375,385.5 612.625,378.25 611.375,370.375 609.25,361.5 606.125,351.5 601.625,340.25 595.625,327.5"/>
    <polyline points="587.625,313.0 577.0,296.625 563.5,278.25 546.25,257.75 524.75,235.5 498.375,212.125 467.125,189.125 431.5,168.75 393.0,154.125 354.25,148.75 318.875,155.75 290.375,176.125 270.75,208.375 260.375,248.75 258.0,292.75 261.25,336.0 267.75,375.75 275.625,410.375 283.625,439.25 291.0,462.625 297.75,481.125 303.5,495.25 308.75,505.875 313.375,513.25 317.875,518.25 322.125,521.125"/>
    <polyline points="326.625,522.375 331.25,522.25 336.125,521.125 341.375,519.25 347.0,516.75 371.875,504.5 384.75,498.625 397.375,493.625 409.0,489.625 414.5,488.0 424.75,485.625 433.875,484.125 445.75,483.375 455.625,483.875"/>
    <polyline points="458.5,484.25 466.375,485.625 476.75,488.75 486.25,492.5 497.875,498.0"/>
    <polyline points="498.625,498.375 506.625,501.625 509.625,502.25 511.375,502.25"/>
    <polyline points="511.75,502.25 513.625,502.0 515.625,501.125 517.625,499.75 519.0,498.375"/>
    <polyline points="519.25,498.125 523.75,492.75 527.875,486.5"/>
    <polyline points="528.375,485.75 530.625,482.125 535.0,473.75 539.25,464.0 540.75,459.5"/>
    <polyline points="541.25,458.0 543.5,449.25 545.0,438.625 545.125,428.5 544.625,422.75 543.625,416.5 540.875,405.875 538.125,398.125 534.125,389.625"/>
    <polyline points="531.75,385.125 525.875,375.625 518.25,365.75 509.0,355.75 497.875,345.875 491.625,341.375 485.0,337.25 478.125,333.5 470.875,330.5 463.625,328.125 456.375,326.75 449.125,326.5 442.25,327.25 435.875,329.125 430.0,332.25 424.875,336.5 420.5,341.875 417.0,348.25 414.375,355.375 412.625,363.125 411.625,371.25 411.375,379.75"/>
    <polyline points="411.875,388.25 413.0,396.75 414.5,405.0 416.375,413.0 418.625,420.625 423.75,434.625 429.375,446.75 432.25,452.25 437.875,461.75 440.625,466.0 448.5,476.75 453.375,482.5 461.875,491.625 469.0,498.25"/>
    <polyline points="470.5,499.75 480.375,508.625 484.5,512.875 487.875,517.25 489.875,521.125"/>
    <polyline points="490.125,521.75 490.875,526.125 490.625,529.375 490.0,532.125 487.375,538.75"/>
    <polyline points="487.0,539.625 477.0,559.125 474.625,564.5 473.625,567.5"/>
    <polyline points="473.0,569.0 471.75,573.75 471.25,577.125 471.0,580.625 471.75,586.125 473.25,589.875 476.0,593.75 477.875,595.625 483.125,599.375 486.5,601.125 495.75,604.25 508.625,606.625 516.75,607.375 526.125,607.75 536.875,607.625"/>
    <polyline points="548.875,606.875 562.25,605.625 576.875,603.5 592.25,600.75 608.125,597.25 624.0,593.125 639.25,588.5 653.0,583.625 664.75,578.625 674.125,574.0 680.75,569.75 684.625,566.25 686.125,563.375 685.375,561.125 683.0,559.625 679.375,558.5 669.625,557.375 643.125,555.875 629.5,553.625"/>
    <polyline points="625.5,552.625 618.375,550.25 612.125,547.5 604.375,542.875 598.125,537.875 592.0,530.875 588.75,525.625 587.125,522.25 585.5,517.125 584.75,512.0"/>
    <polyline points="584.625,510.375 585.0,503.75 585.75,500.5 587.375,495.5 589.75,490.5 594.0,483.75 599.625,476.875 604.75,471.75 608.75,468.375"/>
  </g>
</svg>
