<?xml version="1.0" encoding="utf-8" ?>
<svg xmlns="http://www.w3.org/2000/svg" xmlns:cc="http://creativecommons.org/ns" xmlns:dc="http://purl.org/dc/elements/1.1/" xmlns:ev="http://www.w3.org/2001/xml-events" xmlns:inkscape="http://www.inkscape.org/namespaces/inkscape" xmlns:rdf="http://www.w3.org/1999/02/22-rdf-syntax-ns" xmlns:sodipodi="http://sodipodi.sourceforge.net/DTD/sodipodi-0.dtd" xmlns:xlink="http://www.w3.org/1999/xlink" baseProfile="tiny" height="27.09333333cm" version="1.2" viewBox="0 0 1024.0 1024.0" width="27.09333333cm">
  <metadata>
    <rdf:RDF>
      <cc:Work>
        <dc:format>image/svg+xml</dc:format>
        <dc:source>vpype read './original_svgs/Strange Attractors #344.svg' linemerge linesimplify write './Strange Attractors #344.svg'
</dc:source>
        <dc:date>2024-08-05T01:35:50.603365</dc:date>
      </cc:Work>
    </rdf:RDF>
  </metadata>
  <defs/>
  <g fill="none" id="layer1" inkscape:groupmode="layer" inkscape:label="1" stroke="black" style="display:inline">
    <polyline points="327.0,574.375 327.5599,559.245 327.3956,543.6464 326.507,527.5656 324.8559,510.6099 322.4707,493.1355 319.375,475.125 315.331,455.2439 310.5049,434.4116 305.3148,414.1579 299.3601,392.7112 284.454,343.7689 267.0303,290.6593 234.9447,197.7047 232.7008,190.484 232.3945,188.0941 233.2104,188.9181 234.8852,191.8014 253.1914,226.8571 267.0729,252.4964 278.9721,273.3771 291.6158,294.5697 305.7239,317.1221 319.3132,337.7308 333.6448,358.2277 348.5204,378.3333 363.4797,397.4728 377.6657,414.6163 392.5259,431.4998 408.4235,448.5379 422.2509,462.6531 435.947,475.9406 489.2644,525.1465 503.5731,539.4256 513.485,550.4352 519.6338,558.0418 525.0669,565.4814 531.0525,574.7406 536.0683,583.2415 545.1165,601.1236 559.2477,633.164 569.623,654.6848 579.9765,673.3512 584.7085,680.7125 590.2869,688.619 596.552,696.6238 603.6387,704.5495 610.7004,711.5451 617.7094,717.4514 625.1894,722.7702 632.087,726.8288 639.3335,730.0935 646.541,732.3719 653.52,733.6891 660.1838,734.0878 667.0035,733.5767 673.5299,732.1554 679.737,729.8796 685.8428,726.6838 691.9256,722.4795 697.621,717.5125 703.1758,711.5603 708.5186,704.6514 713.5235,696.9897 718.2855,688.3907 722.399,679.638 726.179,670.1182 729.6542,659.6488 732.6702,648.7788 735.366,636.941 737.5898,624.5879 739.2484,612.2359 740.3976,599.4839 741.054,586.1391 741.1588,573.0825 740.7297,560.4696 739.7502,548.0578 738.1985,535.9962 736.0576,523.9211 733.4094,512.3503 730.3673,501.744 726.9802,492.1339 723.1513,483.2304 718.6217,474.5758 713.8023,466.8738 710.1049,461.8281 706.0083,456.987 702.0024,452.9258 697.595,449.1432 693.0945,445.9483 688.2285,443.1267 683.2824,440.8472 678.2739,439.0947 673.2211,437.8536 667.7784,437.0742 662.6905,436.8439 657.0974,437.1089 651.489,437.8494 645.5904,439.1259 639.787,440.8706 633.7346,443.1983 627.4673,446.1484 621.429,449.4968 615.6523,453.1844 609.8248,457.4174 603.9746,462.2195 598.2921,467.4387 592.8188,472.974 587.4586,478.9495 582.4834,485.0811 577.7529,491.5385 569.0707,505.2692 561.6123,519.7509 555.7366,534.5188 551.3865,548.754 548.1888,563.3865 546.419,576.7696 545.5623,591.9659 545.8547,606.0891 547.1956,619.7808 549.9133,635.4752 553.625,650.375 557.8461,662.9116 564.3743,678.7626 571.604,693.0227 578.9842,705.3295 587.3837,717.2922 596.5674,728.2739 606.6679,738.7322 616.5972,747.0926 623.2054,751.7776 629.3595,755.5463 635.4679,758.637 641.8516,761.2301 648.4817,763.2776 655.0609,764.6625 661.267,765.2768 667.2539,765.2166 673.3492,764.4824 679.1334,763.1343 684.7197,761.1958 690.4384,758.492 695.8745,755.2045 701.2968,751.1825 706.6739,746.3981 711.6827,741.1545 716.6088,735.1656 721.1619,728.7871 725.7684,721.4028 730.0264,713.6188 734.0907,705.1692 737.7741,696.4607 741.2214,687.1677 744.3349,677.5517 747.2943,667.0613 749.9728,656.0462 752.2684,644.9514 754.2438,633.492 757.0505,610.5342 758.4244,586.7805 758.4547,564.39 757.2384,542.6298 754.8748,522.6697 751.2439,503.4151 746.2964,484.6349 743.4082,475.8549 740.3917,467.867 736.9931,460.0114 733.5035,452.9756 729.6582,446.2319 725.5786,440.0053 721.3102,434.3183 716.6043,428.8817 712.0017,424.2966 706.9805,420.0202 701.8271,416.3355 696.562,413.2391 691.1558,410.7034 685.5923,408.6796 679.6196,407.1066 673.625,406.1119 667.6264,405.6685 661.2688,405.7713 654.9485,406.4338 648.6624,407.6217 642.0766,409.3637 635.26,411.6793 628.601,414.4353 622.119,417.5815 615.5082,421.2596 608.9885,425.3527 602.3595,429.9928 596.0355,434.8812 583.1915,446.229 571.6079,458.2895 560.6059,471.8207 550.8116,485.871 542.0045,500.9257 534.1771,516.9898 527.6092,533.5689 522.0026,551.9962 517.9707,570.1693 515.125,587.375 514.128,595.5457 511.8942,622.8984 510.3224,652.6607 509.1104,668.4035 508.0218,677.685 506.593,684.5408 505.092,689.025 503.709,691.486 501.8211,693.4978 499.7984,694.4382 497.313,694.5984 494.3011,693.693 491.2223,691.9391 487.136,688.8041 483.3832,685.2324 476.4565,677.7401 465.875,664.25 455.0894,648.8624 441.5556,628.0231 424.3605,599.2836 412.9416,579.0918 393.5839,542.8983 378.5231,513.4575 362.7981,481.5146 346.319,447.0981 331.8294,415.7294 314.6684,377.5767 281.6045,301.9882 221.6138,160.0497 213.4043,141.6479 209.8875,134.9474 210.4541,137.3191 213.0,144.375 219.324,159.9751 228.205,180.1439 238.3817,201.9927 248.75,223.25 258.0763,241.5278 268.4768,260.9986 279.1286,280.08 299.7126,314.735 309.9698,330.9498 320.08,346.2243 330.6683,361.4848 341.5171,376.4122 352.7923,391.2299 364.1874,405.5343 382.5865,427.2942 400.297,446.6372 418.7573,465.183 438.5155,483.4425 454.6388,497.2697 471.6364,510.815 492.0078,526.1018 521.9337,547.8344 535.3642,558.0688 545.4655,566.3204 555.0867,574.9646 563.9891,583.8869 574.0807,595.731 579.2825,602.4542 603.2257,635.3751 608.1093,641.3733 613.9618,647.7984 621.6094,655.0469 629.8033,661.2623 636.9756,665.2339 644.1096,667.8316 648.6019,668.7454 652.7936,669.0814 656.9865,668.9238 660.974,668.2781 665.1738,666.9568 669.0283,665.1666 672.8025,662.8542 676.3931,660.0654 679.8957,656.6634 683.2882,652.6673 686.5202,648.1373 689.4539,643.291 692.1536,638.0203 694.6503,632.2496 698.7537,619.8827 701.7701,605.8498 703.3799,591.6141 703.5291,576.1281 702.382,561.6062 701.3331,554.983 699.9084,548.522 698.0847,541.9525 695.9479,535.7484 693.7959,530.6312 691.3878,525.8969 688.3947,521.0419 685.281,516.812 680.4051,511.5629 675.4122,507.652 669.2292,504.3177 663.2112,502.3955 656.9809,501.7207 650.6369,502.2097 644.4576,503.7885 638.1144,506.5363 631.6224,510.5023 625.8996,515.1592 620.0368,521.2378 614.6188,528.1837 609.9002,535.6956 605.823,543.8522 602.4619,552.4439 599.9279,561.2491 597.9747,570.6496 596.9739,578.1875 596.509,587.2254 596.7583,595.6465 597.8537,605.3808 599.424,614.0473 601.9472,623.2471 604.989,631.8325 608.6401,639.7468 612.9231,647.4358 617.5648,653.9907 623.4615,660.9155 629.1438,666.1195 635.6264,670.7609 641.182,673.5676 647.0154,675.4736 651.4419,676.3533 655.8531,676.5866 660.3484,676.1645 664.8711,675.1154 668.9836,673.6037 672.8132,671.5952 676.9103,668.7726 680.5888,665.5982 684.3459,661.6373 687.8017,657.2556 691.1243,652.2666 694.0546,647.0775 696.7457,641.431 699.2971,635.0254 703.5042,621.3634 705.1751,614.0015 706.4739,606.541 708.1163,590.4038 708.2339,575.1463 706.8419,559.6261 704.217,545.3264 702.4952,538.9652 700.3567,532.67 697.7375,526.2491 695.0052,520.6623 692.0138,515.573 688.7633,511.0351 683.3052,505.1061 677.604,500.539 671.617,497.2655 664.8252,495.1116 658.1172,494.2645 651.375,494.6807 644.0211,496.4981 637.021,499.4608 630.044,503.7034 623.5314,508.9496 616.7796,515.8567 610.8695,523.3419 605.8245,531.3751 601.3098,540.3302 597.5468,549.893 594.5593,559.8548 592.7206,569.1506 591.4439,579.3129 591.1065,588.7824 591.4808,599.4798 592.6464,608.5252 594.7629,618.979 597.32,627.7394 600.8737,637.3728 604.8163,645.5992 610.1808,654.7943 615.1429,661.6859 621.1644,668.5626 627.2168,674.017 634.0921,678.8447 639.8616,681.9312 646.3997,684.1771 651.2502,685.115 656.028,685.4286 660.9009,685.0431 665.4563,684.0565 669.9988,682.453 674.6745,680.0931 679.1788,677.0618 683.2938,673.5595 687.2579,669.3978 690.8494,664.8196 694.5824,659.1718 697.9313,653.1818 700.866,646.9984 703.375,640.75 705.8718,633.3579 708.093,625.4616 709.8993,617.5465 711.3442,609.3514 712.3603,601.1573 713.1083,591.7651 713.432,582.992 713.364,574.1981 712.8945,565.8619 712.0139,557.7229 710.7266,549.4278 709.1599,541.7974 707.2548,534.5072 705.0055,527.6327 702.269,520.8957 699.0669,514.3293 695.7549,508.6669 692.17,503.5965 686.4585,497.3859 679.5787,491.9632 672.7318,488.3069 665.8625,486.214 658.2867,485.3823 654.5323,485.4907 650.4281,486.0077 642.7204,488.1002 634.4583,491.7768 626.6904,496.6943 619.0265,503.0816 612.1375,510.2985 605.8287,518.5324 600.0605,527.847 595.117,537.8105 591.3063,547.8422 588.041,559.2401 586.1109,569.2873 584.8286,580.6027 584.5916,590.5173 585.1266,601.9787 586.4929,611.863 588.8896,623.1017 591.7692,632.6238 595.837,643.418 600.3822,652.6395 606.0844,662.1224 611.9512,670.1081 618.534,677.546 625.4307,683.7008 632.9339,688.9436 639.7637,692.456 646.9434,694.8761 652.4257,695.8601 657.6494,696.0564 662.9789,695.5308 668.3448,694.2558 673.0045,692.4777 677.7175,689.9215 682.3875,686.6125 686.9408,682.5785 691.1496,678.0284 695.3235,672.5683 699.1332,666.6397 702.73,660.05 706.0534,652.8595 708.9817,645.3574 711.6204,637.4031 713.9562,628.963 715.9244,620.1217 717.4031,611.3671 718.5562,601.583 719.2932,591.7051 719.6001,582.0922 719.4819,572.485 718.9713,563.7517 717.9677,554.2787 716.6021,545.3523 714.842,536.73 712.784,528.8424 710.3545,521.3795 707.3459,513.8717 704.0073,506.9413 700.3587,500.6346 696.6336,495.2816 693.5663,491.5647 690.2549,488.1526 683.1266,482.365 679.5912,480.1742 675.6582,478.2143 671.6592,476.7068 667.8633,475.7062 663.6759,475.0222 659.4976,474.7412 655.3358,474.8479 650.8236,475.3887 646.3502,476.3529 642.0112,477.6851 633.0625,481.6094 624.2624,487.0995 615.9399,493.9142 608.0499,502.0792 600.4348,511.7678 594.0079,521.9986 588.3477,533.1797 583.8132,544.7843 580.3489,556.8225 578.1375,568.2752 576.8068,579.7557 576.5317,591.1939 577.1433,603.0683 578.7425,615.2254 580.7004,624.6355 585.1011,639.3197 588.9711,649.2539 594.4775,660.5924 600.0976,669.9867 606.9897,679.5378 614.2977,687.7924 622.1405,694.9846 629.8919,700.5288 638.5327,705.1003 646.4269,707.8427 652.4296,708.9738 658.1874,709.3057 663.6071,708.9171 669.257,707.7157 674.9524,705.6603 680.2809,702.9264 685.3904,699.4861 690.3481,695.2197 695.1787,690.0794 699.5849,684.4188 703.5484,678.3793 707.5942,671.1202 711.322,663.297 714.7754,654.7747 717.7581,646.0084 720.25,637.125 722.5661,626.9143 724.4754,616.2318 725.8882,605.5786 726.8091,595.089 727.2577,584.4867 727.2265,573.6033 726.716,562.7764 725.7643,552.494 724.3562,542.4678 722.4865,532.7981 720.0916,523.265 717.3403,514.4373 714.1998,506.1645 710.6864,498.5171 706.8162,491.5654 702.5932,485.3118 699.0439,480.8525 695.3475,476.8651 691.5127,473.3495 687.5477,470.3058 683.1649,467.5683 678.8146,465.4282 674.3995,463.7458 669.5894,462.4398 665.1346,461.701 660.3041,461.3948 655.8513,461.558 651.0137,462.1998 645.8556,463.3562 640.7886,464.951 635.8179,466.9471 630.6052,469.489 625.5908,472.3624 620.5563,475.7119 615.7635,479.3713 610.9114,483.5746 601.5507,493.2009 592.9079,504.2402 585.3423,516.232 579.0719,528.8155 574.1727,541.3528 570.3294,555.2056 567.8698,567.927 566.4752,581.3937 566.2685,593.359 567.0664,607.4188 568.8448,619.7701 571.5681,632.4095 576.25,647.25 580.4381,657.6865 586.8765,670.732 593.388,681.5223 601.4569,692.6952 609.9922,702.334 618.4162,710.1742 627.6916,716.8492 637.3124,722.117 641.9115,723.9452 646.6731,725.3702 653.4406,726.6424 660.0839,727.0443 666.2013,726.562 672.4476,725.1926 678.7262,722.8714 684.4979,719.8105 690.2826,715.7688 695.755,710.9755 701.108,705.2461 706.0082,698.9225 710.7896,691.5391 715.179,683.5922 719.3224,674.8227 723.0018,665.6596 726.3123,655.8231 729.0884,645.7969 731.7221,634.1461 733.8342,622.3155 735.4713,610.0749 736.5666,597.9329 737.1511,585.3595 737.1943,572.9599 736.7062,560.6226 735.717,548.8474 734.2101,537.3605 732.25,526.625 729.5421,515.2163 726.4603,504.8127 723.0608,495.4336 719.2425,486.7626 715.1803,479.1673 710.4734,471.9268 706.4401,466.6356 702.2442,461.8968 697.8937,457.7212 693.397,454.1198 688.7623,451.1036 684.0499,448.7 678.9408,446.6909 673.4193,445.137 668.2354,444.2318 662.6637,443.831 657.0893,444.0032 651.5093,444.7279 645.6256,446.0062 639.5197,447.8793 633.5638,450.2536 627.758,453.099 621.7796,456.5829 615.4242,460.8454 609.3882,465.4562 603.662,470.3957 598.2228,475.6576 592.9309,481.3812 587.8378,487.5386 582.9275,494.1514 578.0764,501.3827 573.8549,508.3831 569.931,515.6997 566.4615,523.036 563.1756,530.9778 560.3354,538.9458 557.9523,546.8491 555.8949,555.1241 553.1204,570.7796 551.8567,584.4718 551.7158,600.0003 553.071,615.8749 555.1232,628.4935 559.1594,645.0887 564.5064,660.9395 569.8067,673.3508 577.3987,688.1701 585.954,701.7808 595.0758,713.7952 605.5981,725.4133 610.5757,730.0818 615.8696,734.51 621.7233,738.8848 627.4386,742.6659 632.7552,745.639 637.9554,748.0628 643.3377,750.0948 648.5026,751.6036 656.1393,752.9852 663.6076,753.272 670.869,752.5403 678.2355,750.75 685.0575,748.0603 691.8759,744.2771 698.3635,739.5745 704.4368,734.0649 710.4754,727.3311 716.1924,719.6458 721.5302,711.1581 726.6165,701.6441 731.2159,691.5185 735.2237,681.1222 739.062,669.3291 742.4141,657.0526 745.4154,643.7174 747.9068,629.7926 749.7855,615.8123 751.0636,601.8547 751.8321,586.9773 752.0019,572.3631 751.574,557.8023 750.5585,543.8363 748.9802,530.5975 746.7134,517.1356 743.8612,504.126 740.5688,492.1558 736.7741,480.922 732.6342,470.8362 728.0728,461.659 722.7828,452.8281 718.0923,446.2379 712.9178,440.0733 707.7762,434.9241 702.1788,430.2781 696.404,426.4144 690.427,423.2787 684.2952,420.8494 677.7365,419.0526 671.1317,418.009 664.1352,417.6745 657.1184,418.0773 649.6339,419.2473 642.3059,421.0925 635.146,423.5449 627.4774,426.8629 620.0166,430.7572 612.4546,435.3758 604.9944,440.6335 597.658,446.52 590.1329,453.3237 582.6763,460.8345 575.8315,468.4941 569.3597,476.5554 563.2658,485.0361 557.6767,493.7237 552.3587,502.9664 547.7746,511.8889 543.583,521.2286 539.875,530.75 537.1002,539.0907 533.9823,550.3594 531.5327,560.8404 528.5775,580.0483 527.2504,598.5138 527.5179,618.3635 529.1571,635.685 532.0929,653.3611 536.6963,671.6284 543.2044,690.4291 550.6876,707.6234 561.1252,726.6904 566.1413,734.5716 572.7871,744.205 578.0499,751.1754 584.0993,758.4936 591.5935,766.9603 597.2548,772.7409 604.2292,779.1224 611.7034,785.3047 618.0172,790.0501 624.5942,794.3504 631.8985,798.4391 639.2088,801.8776 646.2757,804.6054 652.9777,806.5262 662.1713,808.0688 671.7321,808.3505 681.2692,807.2768 689.9615,804.9937 698.8082,801.2476 707.0597,796.3402 714.9676,790.2106 722.799,782.5799 730.2449,773.6797 737.3175,763.5418 743.9548,752.2827 750.2883,739.6247 756.0758,725.9928 761.2209,711.7176 765.9586,696.2212 770.2045,679.6811 773.9696,661.83 777.0301,643.5512 779.3659,625.0144 781.0052,605.9472 781.9335,586.4781 782.1252,566.8946 781.5635,547.3951 780.2657,528.551 778.3093,510.8896 775.6188,493.6306 772.1864,476.8404 768.0893,460.9446 763.3604,446.0487 758.1697,432.5803 752.2902,419.9692 745.9993,408.8581 740.6137,400.8478 734.7176,393.3506 728.5786,386.7331 721.945,380.7476 715.1112,375.6822 708.1101,371.5176 700.9747,368.2344 693.2764,365.6453 685.3892,363.8769 677.1061,362.901 668.4548,362.767 659.8439,363.4617 650.937,364.9858 641.6758,367.3707 632.5876,370.4357 623.0654,374.389 614.5296,378.5545 605.9488,383.3083 597.1585,388.7361 588.332,394.7538 580.0106,400.9774 571.8835,407.5948 563.7077,414.8064 555.4242,422.6881 545.9823,432.4241 536.5416,443.0355 527.916,453.582 519.674,464.6254 512.2226,475.4796 505.0551,486.7415 482.824,524.5106 479.1045,530.0791 475.8789,534.2283 473.1455,537.1631 470.5358,539.446 467.9531,541.0938 465.2639,542.2444 462.4532,542.963 459.593,543.1687 456.5864,542.8477 453.375,542.0 450.3557,540.7772 446.8656,538.8758 439.2784,533.352 431.6936,526.2047 422.851,516.4021 413.7477,504.8619 402.8295,489.7831 393.7493,475.984 382.1415,457.2147 370.3284,436.8972 353.6668,406.835 342.4724,385.6821 327.875,357.125 315.4866,332.1298 298.9273,297.6268 280.2917,257.5469 277.0417,249.6927 297.7539,285.5481 316.0158,315.2557 333.0016,341.014 352.4134,368.5757 369.2114,390.8069 390.5581,417.4316 405.2229,434.7494 439.928,474.6268 453.5121,490.9843 464.3918,505.5745 472.9168,518.8695 477.1755,526.8877 480.0605,533.0312 482.3101,538.946 484.541,545.991 485.875,551.625 486.9494,558.6058 487.375,564.375 487.3222,570.4115 486.75,575.125 485.2352,581.2238 483.4098,584.9935 481.3062,587.762 478.5433,589.8301 475.6846,590.7357 472.3432,590.7836 468.4675,589.6787 464.6075,587.8595 461.2306,585.8039 457.2051,582.7879 452.8995,579.0425 444.0577,569.9075 433.9796,557.8065 423.3197,543.2243 411.3036,525.4728 398.8316,505.3801 385.0,481.8652 371.5129,457.4223 355.099,426.5397 341.9168,400.5096 324.5831,365.1943 311.2421,337.0844 288.442,287.7833 254.4515,212.3729 266.5481,236.2283 277.0074,255.9091 289.1937,277.5797 302.2982,299.7545 313.3419,317.4706 325.3158,335.6683 338.3017,354.4636 351.7654,373.0658 372.4094,399.7314 395.0307,426.7457 418.9811,453.0671 461.2307,496.6172 477.458,514.0135 484.4632,522.0659 491.068,530.3132 496.7037,537.9398 501.4693,545.0987 506.5775,553.5825 510.4467,560.8355 515.4798,571.9613 518.8765,580.4043 524.8906,598.734 537.9766,644.4267 543.5964,661.0712 549.9426,677.3359 554.6025,687.5919 561.2279,700.5391 567.8083,711.7843 574.6002,722.3043 583.2809,733.9728 592.0223,744.4298 601.8779,754.4927 611.8631,763.3327 621.7221,770.426 632.7026,776.7944 641.9347,780.8622 651.4137,783.6935 660.1457,785.1251 668.7997,785.3787 677.3111,784.3769 685.6557,782.1285 693.7278,778.6709 701.4496,774.064 708.9239,768.262 716.3371,761.0509 723.1021,753.012 729.6579,743.6401 735.7064,733.3034 741.3336,721.9556 746.6403,709.4056 751.551,695.729 755.8801,681.4017 759.5968,666.5716 762.8726,650.3555 765.5592,633.2782 767.6034,615.5958 768.9411,597.8991 769.5769,580.3974 769.5192,563.2757 768.7512,546.0014 767.278,528.996 765.1697,512.8298 762.4101,497.251 759.0096,482.407 755.0818,468.7665 750.4254,455.6644 745.3078,443.7936 739.5169,432.6573 733.2573,422.7038 727.6467,415.2609 721.5429,408.4987 715.3049,402.8128 708.4645,397.7282 701.4494,393.5941 693.9527,390.2395 686.3467,387.8391 678.6735,386.3476 670.2913,385.6913 661.9195,385.9031 653.2778,386.9725 644.4071,388.9342 635.7138,391.6774 626.8494,395.285 617.1476,400.0396 607.5461,405.5482 599.6493,410.7115 592.1188,416.203 584.2333,422.5646 576.35,429.514 568.7467,436.8255 561.4207,444.4845 554.715,452.0845 548.119,460.2491 540.0652,471.1918 532.3085,482.7334 525.6651,493.802 519.6956,505.011 514.4191,516.1194 508.909,528.9269 493.5115,569.1746 490.894,574.8141 488.4375,579.1855 485.9185,582.6198 483.4823,585.2487 481.1795,587.0586 478.8823,588.2449 476.0046,589.0 472.93,589.107 469.9724,588.5809 466.7771,587.4191 462.7976,585.4178 459.3843,583.2159 455.433,580.1237 450.9021,576.038 442.6199,567.2102 431.3502,553.5118 421.1107,539.3003 408.2602,520.0323 396.4392,500.8861 383.1369,478.1173 370.0373,454.3048 353.8032,423.548 341.4983,399.2859 327.2144,370.1554 312.2076,338.7617 295.2733,302.3417 254.7964,212.9222 264.3253,231.7953 278.0196,257.6646 289.2837,277.6349 301.5005,298.2207 313.4462,317.4437 325.4241,335.6854 338.8605,355.1115 353.074,374.7024 364.226,389.3802 376.0469,404.1548 388.7471,419.3034 403.1188,435.7677 424.5973,458.9683 464.7129,500.3101 480.9688,518.1167 492.394,532.3124 501.6374,545.5676 506.5417,553.9259 510.5741,561.7125 515.815,573.5804 519.158,582.034 524.6454,599.2314 538.0659,646.5517 542.9687,661.4443 547.5801,673.3992 552.8668,685.6037 560.3883,700.6511 566.7382,711.6832 574.2003,723.2066 582.8659,734.8632 592.2268,746.001 601.8374,755.8147 611.8778,764.7082 621.6673,771.7796 632.2559,777.9296 641.4293,782.0284 651.177,784.9672 660.2354,786.4495 668.9973,786.7122 677.3818,785.7431 685.6147,783.5637 693.594,780.214 701.633,775.493 709.2111,769.6411 716.4763,762.5976 723.3591,754.457 729.8056,745.3186 736.0,734.875 741.6774,723.5417 747.0196,710.9875 751.9605,697.2876 756.3254,682.9084 760.0905,667.9971 763.4474,651.5693 766.2195,634.218 768.3009,616.6248 769.7065,598.6242 770.3737,581.1816 770.3422,564.0908 769.6003,546.973 768.1519,529.7582 766.0734,513.3781 763.3425,497.5794 759.9626,482.5131 756.0404,468.6564 751.3493,455.3253 746.1607,443.1805 740.4853,432.1477 734.153,421.9583 728.6797,414.6001 722.708,407.8537 716.5825,402.1351 709.6867,396.8757 702.6282,392.5856 695.093,389.0878 687.4491,386.5648 679.7321,384.9714 671.625,384.25 662.9048,384.4297 654.2887,385.4649 645.4395,387.3661 636.7661,390.0115 627.6054,393.6065 618.1821,398.112 608.8143,403.378 600.8437,408.499 592.9407,414.178 584.9492,420.5442 576.916,427.5396 569.1611,434.8925 561.7081,442.5747 554.4266,450.7202 547.412,459.2291 539.6194,469.6114 532.1941,480.6038 525.3418,491.9152 518.7858,503.9421 513.8563,514.186 507.6776,528.3103 493.2375,564.9693 490.4246,570.8855 487.2641,576.3572 485.0,579.5 482.7566,581.8982 480.3418,583.7104 477.6634,585.0445 475.1607,585.6749 472.0851,585.7151 469.1169,585.2467 465.8548,584.1467 461.9404,582.1667 457.8871,579.5615 453.7344,576.1719 448.9061,571.6352 440.247,562.393 427.8045,546.8357 417.6174,532.6124 405.494,514.116 394.2031,495.625 381.0281,472.8781 368.8572,450.8939 355.2514,425.1078 341.1871,397.4616 326.0381,366.6085 296.8385,304.982 275.8158,258.9702 256.4541,215.6282 266.8376,236.1387 277.6974,256.4449 288.73,276.075 300.5084,295.9711 312.9637,316.0351 325.3585,335.0772 337.4884,352.7143 350.4639,370.655 371.0025,397.4941 390.1873,420.6568 403.6447,435.981 418.1857,451.9494 462.294,497.9384 474.3235,511.0428 482.3271,520.2945 488.4309,527.8763 494.7857,536.5937 500.0271,544.5395 504.5701,552.5138 509.9456,563.1719 513.1885,570.7242 517.2212,581.4557 523.3138,601.8488 530.1188,628.4549 535.3643,647.4999 540.4278,663.3894 545.875,678.125 550.6039,689.0477 557.4342,703.0371 566.1853,718.3098 571.7945,726.993 581.4461,740.0721 589.371,749.4491 601.2905,761.7706 610.8443,770.1862 621.094,777.6603 631.5924,783.8851 642.0079,788.5631 652.3191,791.7133 661.0609,793.1865 669.8027,793.4228 678.4381,792.4132 687.2422,790.0579 695.2641,786.6561 703.245,781.917 710.9566,775.9408 718.3062,768.8201 725.2214,760.6557 731.923,751.1338 738.1531,740.6317 744.1293,728.8082 749.615,716.0913 754.5583,702.632 758.9196,688.5701 762.7629,673.7059 766.2852,657.1001 769.2122,639.6967 771.447,622.0547 773.0065,603.971 773.8184,586.4073 773.9428,567.8812 773.3762,549.8595 772.1167,532.0818 770.2008,515.1032 767.6609,499.0633 764.5302,484.0798 760.7335,469.7404 756.1936,455.7049 751.1013,442.7254 745.4804,430.8695 739.5363,420.4921 734.1059,412.5755 728.3583,405.5485 721.8662,398.8832 715.1611,393.1797 708.2703,388.4135 701.2208,384.5599 693.7107,381.4801 686.0877,379.3428 678.0006,378.0523 669.6038,377.617 660.8959,378.0629 652.2895,379.3377 643.4492,381.4505 634.051,384.5275 624.4682,388.475 615.241,393.035 607.0268,397.7283 598.8328,403.014 590.4657,409.039 582.0865,415.649 573.9414,422.6511 566.0787,430.0059 558.5405,437.6677 551.0118,445.9608 542.5429,456.1584 534.2716,467.1348 526.9083,477.9776 519.8761,489.4866 509.3462,508.8615 491.861,546.6351 486.9489,556.2908 483.5806,561.7337 481.1702,564.7016 478.375,567.375 476.0619,569.0224 473.6246,570.1624 470.625,570.875 467.8929,570.9408 464.975,570.4603 461.4161,569.2942 458.0771,567.7262 454.3555,565.4414 446.4886,559.1599 437.9716,550.4897 428.5224,539.3317 418.3877,525.7676 407.5822,510.0419 395.5506,491.053 382.61,469.4693 370.068,447.1802 355.4123,419.9462 341.9473,393.8016 325.7635,361.3651 311.9877,332.8485 293.903,294.361 263.3835,227.3201 285.2395,267.5623 296.0394,286.1659 308.2062,306.3208 317.8334,321.5563 328.1584,337.1553 351.2596,369.9888 372.2249,397.3137 396.3531,426.4423 418.5002,451.2721 454.4303,490.0082 470.1888,508.0158 477.1714,516.7432 484.0159,525.9434 488.6721,532.8797 493.1535,540.4896 498.3127,550.5884 503.2656,562.6562 505.9186,570.5319 509.3802,583.7505 512.9605,602.3786 517.8111,639.6602 521.1925,662.0263 524.3247,677.8396 527.7072,690.7879 532.7273,705.976 539.2145,721.377 546.9294,736.7117 554.4712,749.3548 563.8125,763.2812 575.2148,778.1624 586.5,790.8574 598.6947,802.9052 610.5874,812.9268 622.8584,821.6444 634.2868,828.0837 640.1871,830.7838 646.3014,833.1559 656.1298,836.0819 665.3768,837.7218 674.6454,838.1966 683.8362,837.4554 692.8649,835.4855 701.3395,832.4247 709.5604,828.2073 717.8365,822.6282 725.8073,815.8718 733.4177,808.0096 740.625,799.125 747.5534,789.049 754.1353,777.8757 760.4822,765.3924 766.3802,751.9902 771.9366,737.3856 777.0932,721.5989 781.6537,705.1949 785.806,687.4655 789.3668,669.1647 792.375,650.1094 794.7437,630.8383 796.4656,611.5221 797.5536,591.9121 797.9698,572.2627 797.7284,552.7848 796.8426,533.4722 795.3163,514.4705 793.1533,495.9251 790.421,478.3406 787.085,461.4703 783.1388,445.4123 778.8951,431.1778 774.0273,417.4554 768.69,404.722 762.7405,392.6808 756.3656,381.7563 749.6017,371.9831 742.4855,363.396 735.0389,355.9968 726.9878,349.4735 718.3854,343.9388 709.5983,339.6099 700.3314,336.317 690.6276,334.1146 680.8902,333.0616 670.3619,333.0922 659.8003,334.2034 649.7563,336.1792 639.5279,339.0356 628.8295,342.858 617.6143,347.6971 606.7285,353.1585 595.6636,359.4715 584.5259,366.5872 573.141,374.6243 559.8658,384.8989 547.212,395.592 534.4969,407.2909 523.0537,418.7544 514.0964,428.4501 504.2566,439.7541 493.5193,452.824 473.2092,478.6222 466.5729,486.3384 461.2961,491.6787 455.2261,496.3273 452.3929,497.836 449.3127,498.9872 446.3843,499.5684 443.3792,499.6872 439.9178,499.3181 437.2501,498.6286 431.3581,495.9108 424.7315,491.5691 418.4894,486.1419 411.384,478.8375 403.8886,469.9665 395.4203,458.8668 387.0781,447.0469 377.7859,433.0371 369.2529,419.3307 358.1539,400.3458 348.7476,383.6864 338.0454,363.8479 327.1111,342.9587 311.478,311.949 301.551,291.1068 299.5153,285.7041 302.7154,290.1442 331.952,335.6629 355.2044,368.9242 382.7258,405.5731 416.8552,448.3955 427.3937,462.0586 435.3135,472.9091 443.0463,484.8867 446.8533,491.5837 450.9722,500.6157 453.0175,507.5057 453.8833,513.0332 453.375,517.4688 452.6935,519.1606 451.6122,520.5368 450.0625,521.4531 448.1301,521.8433 446.0515,521.7766 444.0846,521.2669 438.0363,518.1785 431.8814,513.4241 424.7863,506.66 416.5768,497.3109 408.7526,487.4535 399.8257,474.9549 390.393,460.9165 379.6308,443.8061 370.4243,428.5883 361.3821,412.6959 346.61,385.6646 334.1619,361.9925 320.6618,335.5313 302.9251,299.1026 291.8937,275.6007 290.369,271.344 291.875,273.25 311.6086,305.4694 327.7093,330.5997 339.0094,347.3141 353.4633,367.6079 366.6112,385.4529 381.7338,404.8802 434.0885,469.217 446.3979,485.5752 454.6928,498.3829 459.1091,506.5731 463.9516,518.037 466.1428,526.6419 466.5832,530.2584 466.5833,533.404 466.1642,536.9171 465.375,539.625 464.2192,541.8135 462.668,543.4219 460.707,544.562 458.5798,545.0365 455.6905,544.819 452.6712,543.9793 446.5232,540.6606 440.3956,535.9268 431.0301,526.7353 423.3674,517.9499 414.208,506.1962 405.6072,494.0788 392.8595,474.8388 383.3029,459.3265 361.1881,420.8206 334.6232,370.3996 306.4698,313.2091 286.1956,270.0678 277.6991,250.8342 302.25,292.875 311.9708,308.7148 334.3067,342.767 349.7949,364.8603 369.5,391.125 385.6168,411.3402 406.1329,435.7817 439.5488,474.3323 451.4544,488.679 464.367,505.7119 473.4044,520.2607 476.6177,526.3719 479.4708,532.7698 481.7992,538.9046 483.456,544.5579 485.0376,551.4763 485.8423,556.8955 486.307,564.414 485.9832,570.0396 485.106,575.5237 483.757,579.577 481.7559,583.2383 479.4523,585.7215 476.5101,587.3283 473.3453,587.9421 470.0556,587.5278 465.9717,586.1615 462.6077,584.3513 458.918,581.8215 454.9312,578.6949 450.8907,575.0022 440.5632,563.9639 431.0793,552.1974 420.7372,537.9731 409.8731,521.5403 395.8674,499.0943 382.9106,476.8268 369.477,452.6071 358.3501,431.6559 342.4777,400.5536 327.7965,370.898 297.3642,306.3535 255.859,214.7008 266.4682,235.6661 275.95,253.3964 288.8077,276.2972 300.4638,296.0894 312.6822,315.7556 325.3909,335.2433 337.7737,353.3536 350.2382,370.6235 370.667,397.17 391.5793,422.4614 405.3245,438.0062 421.6386,455.7001 462.79,498.4146 475.0439,511.6003 483.1923,521.1304 490.143,529.8286 495.375,537.0 500.5904,544.9558 505.7699,553.9193 510.6553,563.7495 514.1986,572.0383 518.124,582.86 520.8686,591.1905 524.2704,602.9796 532.1114,632.9208 537.1161,650.141 541.1928,662.3495 546.5029,676.5324 552.3926,690.1089 559.0573,703.3824 565.7201,715.0022 573.9015,727.6337 582.4119,739.0341 592.4639,750.7636 602.0573,760.3981 612.3649,769.3232 621.81,776.115 631.7121,781.8348 641.7264,786.3496 651.3321,789.3105 660.3171,790.8297 669.6306,791.1331 678.0077,790.2223 686.208,788.0878 694.5324,784.6059 702.5324,779.9106 710.1285,774.0851 717.2422,767.2401 724.2734,759.0024 731.1292,749.3613 737.302,739.062 743.1643,727.5159 748.6264,714.7901 753.543,701.2979 758.0365,686.7351 761.9488,671.5934 765.4099,655.216 768.1404,638.8269 770.3378,621.2299 771.8757,603.164 772.7094,585.2111 772.8456,567.1856 772.2723,549.6525 771.0169,532.8764 768.9865,515.6654 766.3409,499.4335 763.0534,483.8989 759.1374,469.1957 754.7239,455.7803 749.8154,443.5833 744.2089,432.0851 737.9267,421.3951 732.3506,413.4355 726.4938,406.3497 720.3838,400.1483 713.7904,394.6483 706.8188,390.0196 699.7297,386.3273 692.1934,383.3844 684.2248,381.2704 676.2111,380.0878 668.1829,379.7757 659.724,380.3212 650.702,381.7725 641.8652,384.0037 632.8789,387.0644 623.7942,390.9417 614.2709,395.82 605.852,400.7591 597.8111,406.0219 589.8494,411.7901 582.0142,418.0445 573.5895,425.4375 565.6375,433.0208 558.0602,440.875 551.0958,448.7292 542.4078,459.4866 534.3655,470.498 526.3158,482.7039 518.9408,495.0392 513.5467,505.1105 507.7486,517.0469 491.7324,553.6514 487.5,561.7969 484.5,566.625 482.2244,569.5423 479.8711,571.8842 477.1957,573.7937 474.8182,574.8929 471.9574,575.5237 468.9904,575.5838 466.1919,575.0902 462.8202,573.9256 458.918,572.0521 455.5303,569.8973 446.3328,562.2856 438.6304,554.1997 427.9347,541.2881 418.1446,527.9585 406.2402,510.2696 394.5402,491.5735 381.8125,470.0823 369.2129,447.5169 354.1381,419.2403 342.5627,396.7069 329.1282,369.6266 313.9459,338.2467 297.8763,304.0792 261.1848,223.6396 283.7698,265.7475 293.2915,282.2929 304.2314,300.4918 316.2878,319.8435 326.3428,335.2231 338.0475,352.2489 350.3898,369.377 361.7168,384.449 373.2853,399.1632 385.7777,414.3854 399.1554,430.0734 417.2235,450.1763 459.4952,495.3893 473.738,511.5175 479.426,518.5178 485.1525,526.2337 490.2287,533.5278 494.2572,539.9762 500.1334,550.7852 503.8431,558.7904 508.6386,571.7496 512.0723,583.3083 514.2453,591.6996 517.0457,605.0691 525.1377,648.8118 528.5833,663.7495 533.9397,681.9771 538.9811,695.9295 545.8048,711.6977 553.6731,726.6846 560.9507,738.6791 570.2089,752.216 580.2942,765.1262 589.4686,775.5405 599.8724,785.7348 610.5709,794.9415 620.9512,802.4063 632.2846,809.0561 642.8622,813.8678 653.3142,817.1234 663.5663,818.8781 673.6363,819.197 678.7994,818.7808 683.6961,817.9999 688.6543,816.8106 693.302,815.315 702.3184,811.2931 711.0129,805.8854 719.693,798.8016 728.206,790.0333 736.1106,780.0607 743.5696,768.7538 750.5231,756.2071 756.9463,742.4692 763.0088,727.1253 768.4801,710.7211 773.311,693.4525 777.6318,674.6789 781.1809,655.3063 784.1072,634.2812 786.2076,612.9803 787.4864,591.6219 787.9398,570.474 787.5531,549.3968 786.3405,529.3293 784.2638,509.4211 781.3145,489.7882 777.6425,471.4029 773.225,454.0251 768.2051,438.1472 762.5256,423.5539 756.1125,410.1156 748.8865,397.6895 743.2339,389.5326 737.3208,382.2078 731.1713,375.7165 724.8097,370.0601 717.9944,365.0646 711.0202,360.9735 703.7779,357.6423 696.0967,355.0139 687.993,353.152 679.8604,352.1352 671.3592,351.9017 662.8925,352.4393 653.959,353.7678 644.6378,355.913 635.1602,358.8527 625.5741,362.5714 616.951,366.5301 608.2617,371.0816 599.4128,376.2629 590.5471,381.9883 581.8193,388.1583 572.9729,394.9581 564.3086,402.1465 555.4904,409.99 545.4674,419.6069 535.9279,429.5447 526.6324,440.0442 517.4694,451.2219 509.6031,461.4947 502.6116,471.2564 478.9245,506.9399 474.736,512.601 470.9799,517.0547 465.6097,521.9308 462.8371,523.7505 460.0755,525.0346 457.2457,525.8066 454.25,526.125 451.5089,525.9785 448.6792,525.3711 442.1526,522.6968 436.2728,518.8794 428.5712,512.2541 420.711,504.06 412.2612,493.9817 404.6606,483.872 391.9274,465.4705 382.9963,451.6161 371.9325,433.3369 361.5909,415.4387 350.1621,394.6172 337.4432,370.5679 309.4761,314.9568 292.6457,279.5992 285.752,263.7317 287.8907,266.7905 307.3512,299.4485 317.6698,315.8137 336.5793,344.3978 351.2922,365.3174 368.346,388.322 380.9962,404.4819 401.0588,429.0519 442.3004,478.6228 453.241,493.4248 460.8725,505.4796 466.299,515.5795 470.7593,526.7454 472.0,531.125 473.1296,536.7737 473.5741,540.853 473.5857,544.8064 473.202,548.6545 472.3518,551.7859 470.9531,554.6719 469.3107,556.648 467.1836,558.1175 464.7364,558.8167 461.6686,558.792 458.6307,558.0764 455.2585,556.6337 451.477,554.415 447.4473,551.4291 442.9904,547.6162 435.2672,539.9084 425.0629,527.87 415.4268,515.0816 403.2939,497.5318 393.6911,482.412 381.375,461.875 369.674,441.3196 354.3028,412.9121 343.357,392.013 330.438,366.4026 313.6498,332.2423 293.2111,289.1221 270.3273,238.8218 291.3613,276.3872 310.6608,308.2635 330.1436,338.2862 352.4514,369.936 370.9883,394.3703 394.8989,423.4506 410.5143,441.4783 448.174,483.566 462.4893,500.6026 468.7817,508.5999 474.5488,516.6622 479.6051,524.2949 483.3394,530.6987 487.8655,539.5297 490.8681,546.3491 494.0457,555.5817 496.1323,563.1772 498.0533,572.8228 499.1163,581.1553 499.6088,589.8811 499.4428,599.3186 498.5724,607.7841 497.0887,614.8492 495.3153,620.1836 492.5557,624.9878 489.6905,627.594 486.4495,628.873 482.837,628.9262 478.096,627.513 474.2808,625.4889 469.9636,622.4097 465.844,618.955 461.2017,614.3621 450.0602,601.6944 437.1423,584.4777 425.5655,567.3171 410.9639,543.9664 398.3872,522.3497 382.3672,493.4661 368.3172,466.8373 351.5721,433.7861 338.324,406.823 323.5986,375.78 296.791,317.381 244.4501,198.8744 236.8679,182.4315 245.9127,202.6074 259.7107,230.4472 273.7011,256.9422 288.4564,283.0974 303.2379,307.7411 318.2575,331.3046 333.187,353.2351 349.1962,375.303 363.743,394.2281 378.0796,411.8929 392.3185,428.3825 407.4805,444.9277 422.8674,460.8766 435.4372,473.2585 483.1664,517.472 496.4788,530.3104 510.0728,544.3912 520.8684,557.4386 529.4341,569.4479 535.5106,579.4046 540.2709,587.9711 548.0066,603.6196 564.2537,639.813 570.1351,651.9002 574.7951,660.6095 581.1444,671.5342 585.6292,678.5433 591.6484,687.0203 597.8041,694.8568 603.648,701.42 610.186,707.9682 615.6258,712.7896 621.3813,717.1991 627.7317,721.3638 634.0131,724.8087 639.9373,727.3142 646.1118,729.2135 653.2302,730.5717 659.7704,731.0004 666.3747,730.5047 672.6952,729.1412 679.023,726.8553 685.1788,723.6515 691.2366,719.453 696.96,714.4595 702.5524,708.4874 707.6171,701.9694 712.3271,694.7214 716.8056,686.5593 721.0058,677.5359 724.8808,667.7041 728.3033,657.3824 731.2296,646.7736 733.9064,634.8532 736.0376,622.7854 737.6789,610.3253 738.798,597.5806 739.3801,584.4864 739.405,571.3865 738.8847,558.7426 737.813,546.3002 736.2328,534.551 734.1197,523.2387 731.5399,512.5108 728.383,501.9854 724.7604,492.1543 720.8494,483.411 716.4899,475.3631 711.6302,467.9279 707.7057,462.8405 703.3478,457.9962 698.8171,453.7433 694.1351,450.0951 689.3236,447.0652 684.0713,444.4684 678.6222,442.4171 673.1294,440.9713 667.6035,440.1133 661.685,439.8255 656.125,440.125 650.1083,441.0177 644.2024,442.4265 638.0593,444.4419 632.0629,446.9421 625.8863,450.0619 619.6075,453.7951 613.3229,458.1146 607.0545,463.0302 601.0935,468.2834 595.2937,473.9632 590.0939,479.6601 585.0584,485.811 580.1841,492.4277 575.224,499.8825 570.8586,507.1694 566.9671,514.453 563.4329,521.9426 560.004,530.213 556.9604,538.7052 554.4591,546.8998 552.4238,555.1591 549.681,571.0678 548.418,585.8711 548.3711,600.4286 549.6911,617.535 550.9012,625.3415 552.9097,635.3741 556.7802,650.1678 561.2529,663.5113 568.0887,679.2129 575.5078,693.2402 584.0505,706.678 594.5586,720.3778 604.5038,731.0877 615.3137,740.8006 620.1349,744.4396 625.5203,747.9826 631.489,751.3518 637.3414,754.1502 642.918,756.3338 648.6928,758.0572 656.5277,759.5083 664.2079,759.9064 671.5262,759.2568 678.5163,757.6175 685.9601,754.7543 693.0776,750.8778 699.8734,746.0306 706.3305,740.199 712.4284,733.4589 718.3464,725.5964 723.793,716.9815 728.8409,707.5414 733.6773,696.9513 738.1946,685.3571 742.2031,673.2144 745.6715,660.668 748.6648,647.4244 751.2804,632.7564 753.2795,617.9604 754.7071,602.772 755.5106,587.7385 755.699,573.0195 755.2782,558.5148 754.2433,543.7594 752.6142,529.3227 750.4627,515.7091 747.7563,502.6464 744.5967,490.5916 740.7533,478.7977 736.4157,467.8681 731.6162,457.8284 726.3899,448.7327 721.3911,441.4535 716.3212,435.25 710.7712,429.617 705.0758,424.821 698.906,420.5861 692.5993,417.1729 686.1814,414.5523 679.3337,412.6183 672.2089,411.471 664.9772,411.092 657.422,411.4775 649.9502,412.6081 642.2221,414.531 634.6396,417.1399 626.5192,420.664 618.7227,424.7341 610.6155,429.7037 602.59,435.3903 594.438,441.961 586.7565,448.9014 579.1179,456.6051 571.9368,464.6629 565.3025,472.9619 558.93,481.8474 552.5184,491.7567 547.1778,500.9359 542.2206,510.5354 537.7221,520.4612 533.8954,530.2109 530.5,540.375 527.5009,551.04 524.7909,562.6457 523.2744,571.1114 521.4443,584.4932 520.0067,602.2344 519.6571,621.7164 520.5481,640.3461 522.8354,659.9997 526.4095,679.0366 531.1418,695.8321 535.2579,707.3335 538.4715,714.892 543.0055,724.6727 546.9265,732.221 552.8028,742.596 558.5826,751.772 564.9697,761.1038 570.6548,768.6841 579.2875,779.2548 586.1876,787.0642 593.3673,794.3645 601.4602,801.876 608.6366,807.9846 615.8004,813.4206 623.47,818.5478 631.2836,823.082 638.7095,826.7552 645.946,829.6739 656.8208,832.8157 667.4695,834.4147 672.7086,834.6484 677.7824,834.4929 682.9599,833.9297 687.8727,833.0086 692.8506,831.6796 697.8816,829.9173 702.9534,827.6964 707.6888,825.201 716.8965,819.1014 725.9234,811.33 734.6538,801.9215 742.7525,791.2887 750.376,779.292 757.4592,766.0271 764.1966,751.0612 770.4477,734.6976 776.116,717.1936 781.1361,698.7497 785.619,678.7278 789.2263,658.4728 792.1782,636.6014 794.3182,614.1346 795.6251,591.2295 796.0614,568.5302 795.6351,546.2864 794.357,524.7227 792.2373,503.9112 789.2361,483.4325 785.4173,463.8612 780.9104,445.7206 775.6754,428.7651 769.8683,413.4543 763.4295,399.5908 756.0102,386.5005 750.4476,378.2293 744.3966,370.4568 738.1107,363.5363 731.3538,357.2333 724.6739,352.0236 717.5667,347.481 710.2096,343.7644 702.4904,340.7969 694.326,338.578 686.1155,337.2071 677.5191,336.611 668.948,336.7987 660.0729,337.7515 650.8662,339.4947 641.2102,342.0512 631.4216,345.3553 622.5884,348.9309 613.9893,352.9332 604.9795,357.6567 595.7115,363.0534 586.6095,368.8442 577.3465,375.245 568.297,382.0105 559.21,389.3254 548.3217,398.7684 537.6487,408.7197 527.0266,419.3585 516.847,430.2952 507.9657,440.5311 498.6827,451.8989 473.425,484.8422 463.9919,495.4438 458.3679,500.122 455.3401,501.9843 452.6511,503.2104 449.8609,504.0471 446.8881,504.4732 444.2671,504.4387 441.1929,503.9441 435.8934,502.1221 430.0602,498.7454 423.4909,493.7151 416.7339,487.2233 408.9473,478.6252 402.2526,470.2965 391.3367,455.3928 383.5081,443.7919 364.1466,412.3661 341.4807,371.7519 316.75,323.8438 302.6439,294.7967 297.7132,284.1039 296.9281,281.7268 298.6017,283.7547 318.2136,314.8641 334.125,339.125 352.2846,365.1416 364.3078,381.6078 374.6719,395.1719 427.7429,461.9926 438.6976,477.0009 445.1983,486.9339 450.3469,495.9876 454.0109,504.0495 456.0794,510.3296 457.3357,517.6345 457.3259,519.992 456.8099,522.7895 455.9596,524.9356 454.875,526.375 453.7122,527.2711 452.022,527.878 449.5,528.0 447.6641,527.7012 442.3564,525.3391 436.8018,521.5037 428.0339,513.4514 420.4967,505.1518 411.8341,494.4923 403.664,483.322 392.7384,467.2022 382.2346,450.5817 371.9501,433.4568 363.2815,418.2519 347.0823,388.6295 337.1997,369.8422 321.6336,339.1543 311.0622,317.5894 295.7226,285.5901 288.0175,268.7867 286.9997,265.8964 288.6582,268.1752 307.811,300.1074 320.9561,320.8261 336.0308,343.5758 352.1436,366.3958 366.3688,385.6612 381.7831,405.2896 397.9762,425.3317 438.5124,474.0844 450.6648,490.3472 459.4331,504.0499 464.3712,513.282 468.848,523.98 471.1564,533.6872 471.6356,541.1849 471.2817,544.9349 470.4859,548.0604 469.3281,550.5469 467.7733,552.523 465.7157,554.0186 463.5907,554.7271 460.8112,554.8548 457.8336,554.263 454.4694,552.9329 451.0442,551.1082 443.709,545.4941 435.1641,537.3163 425.3255,525.9583 415.7687,513.4426 403.7137,496.0913 393.737,480.5907 382.0638,461.3416 369.9322,440.1663 352.625,408.25 331.0962,366.3896 316.013,335.9216 300.8637,304.2113 282.6154,265.0653 274.449,247.0912 272.5136,242.2341 293.4436,279.3419 311.3579,308.8303 329.7229,337.2657 350.74,367.1506 369.8513,392.5253 391.8393,419.6154 408.9076,439.5145 446.203,481.4502 460.4219,498.4531 466.2238,505.9121 471.2299,513.0275 476.563,521.148 480.7118,528.1998 484.7485,535.9781 487.4959,542.1284 490.1438,549.7063 492.2386,556.9587 494.0415,565.5949 495.0444,572.2509 495.5625,581.125 495.5,587.125 494.8348,594.4399 493.5546,600.4328 491.625,606.0 489.3654,609.8572 486.377,612.7402 483.2154,614.122 479.5701,614.4525 475.2568,613.3524 472.0508,611.875 468.2495,609.4844 463.7644,606.0574 459.8843,602.5741 448.9182,590.8394 439.3457,578.6831 426.9679,561.4762 413.4634,540.6344 400.2518,518.9534 385.1049,492.2013 372.3999,468.8271 359.146,443.313 341.6361,408.371 328.2768,380.7181 294.6446,308.1453 243.4052,193.683 253.0506,214.2622 264.9149,237.5605 279.3661,264.3443 292.3165,286.9134 307.0801,311.1605 322.6746,335.3784 336.1143,355.0601 350.527,374.8412 363.2875,391.431 376.6859,408.0905 387.664,421.1198 399.231,434.1644 414.2909,450.3159 431.5586,468.0356 479.1903,514.1351 490.1825,525.2422 498.4324,534.1378 504.949,541.706 511.5364,550.2628 517.571,558.714 521.3429,564.5768 525.3454,571.5812 532.875,586.5 539.4514,601.6532 553.2043,636.6663 559.6466,651.8005 565.002,663.22 569.5114,672.0632 574.7724,681.3189 580.449,690.4753 586.0752,698.5877 594.0709,708.9908 599.9637,715.7612 607.4833,723.2806 615.5004,730.2317 623.4996,735.9521 632.0164,740.9268 639.5037,744.3932 647.4025,746.9372 654.8795,748.3347 662.3934,748.7492 669.4784,748.1437 676.3468,746.5802 683.29,743.9747 689.8842,740.4752 696.324,735.9525 702.3395,730.5983 708.2381,724.1744 713.9613,716.6677 719.2382,708.4275 724.1611,699.3631 728.813,689.3125 732.9913,678.7077 736.7876,667.2978 740.0349,655.5575 743.0398,642.1659 745.5046,628.3452 747.3858,614.4025 748.7016,600.1169 749.3781,586.4098 749.4628,572.6053 748.948,558.0207 747.8626,544.0259 746.1962,530.3648 744.0148,517.536 741.3619,505.6242 738.1383,494.1716 734.374,483.2751 730.1437,473.1734 725.3022,463.6157 720.2135,455.3257 715.9491,449.4999 710.9984,443.7559 705.7744,438.6451 700.3747,434.2526 694.8222,430.5695 689.14,427.5875 683.3511,425.2977 676.9625,423.5644 670.5303,422.5315 663.7398,422.1667 656.983,422.5074 650.2736,423.5085 643.2542,425.2328 635.9816,427.6776 628.6261,430.8058 621.5362,434.4653 614.0497,439.0306 606.7756,444.1556 599.5315,449.9232 592.4656,456.238 585.6227,463.0676 579.1718,470.2322 573.3184,477.4773 567.5682,485.3963 562.057,493.8302 556.92,502.6397 552.0752,511.9958 547.6645,521.5575 544.2551,530.2157 541.0752,539.7376 538.5442,548.599 536.3443,558.1985 533.5638,574.3262 532.0581,592.9929 532.1513,611.819 533.7044,630.1115 537.2223,649.7081 541.8124,666.9705 548.4409,685.6724 556.0328,702.3266 559.9646,709.8605 565.0045,718.5273 569.6342,725.9849 574.7344,733.3438 587.1544,749.3343 593.189,756.0352 599.9906,762.8989 605.8559,768.3527 611.9142,773.3893 618.372,778.1519 625.1826,782.5819 631.4667,786.168 637.8522,789.2514 644.1792,791.7344 650.3797,793.6139 659.8509,795.4114 668.7081,795.8621 677.7794,795.0052 686.3191,792.9098 694.6009,789.5947 702.8776,784.8982 710.9538,778.8334 718.4412,771.7565 725.5268,763.5765 732.397,754.0079 738.7564,743.4064 744.7384,731.6375 750.3888,718.5723 755.4963,704.6577 760.0185,690.0438 763.9237,674.8696 767.524,657.6998 770.5468,639.5214 772.8552,621.054 774.4306,602.5166 775.2603,584.1053 775.3441,566.3366 774.6905,547.9225 773.3051,529.7896 771.2485,512.49 768.5049,495.7886 765.0811,479.8483 761.1129,465.2556 756.4736,451.4701 751.1073,438.401 745.1937,426.5277 738.586,415.6018 733.161,408.1028 727.2624,401.2077 721.1232,395.2203 714.409,389.7881 707.5276,385.2742 700.1671,381.492 692.6807,378.6391 685.0978,376.6753 677.0989,375.5295 668.7267,375.2241 660.0275,375.759 651.4442,377.0943 642.6378,379.2576 633.6567,382.2539 624.4461,386.111 614.7465,390.9282 606.4467,395.6607 598.1692,400.9506 589.9489,406.7728 581.9486,412.9992 574.199,419.6162 566.4279,426.8452 558.4299,434.8839 550.5622,443.3651 542.225,453.2416 534.001,464.0017 525.7561,475.8281 518.118,487.889 512.9937,496.7483 507.7566,506.7254 488.6055,546.3334 485.4647,552.0216 482.5882,556.3643 480.086,559.373 477.5398,561.8227 474.8731,563.7552 472.1846,565.0992 469.6861,565.7552 466.5841,565.923 463.7261,565.5776 460.6031,564.6187 456.8643,562.8804 453.0895,560.6703 445.1689,554.3134 436.7618,545.9773 426.4477,533.7405 416.7207,520.9309 404.4667,502.9662 395.343,488.6663 383.7295,469.2044 372.5297,449.778 361.9655,430.4344 344.4284,397.015 331.7234,371.8478 304.6262,315.9199 281.3384,265.7298 265.8438,231.4062 287.8495,271.4951 303.5308,298.0913 326.2888,333.7746 346.0935,362.1971 369.8024,393.6769 391.6741,420.492 412.9764,444.9518 455.4891,491.4467 471.4623,510.2874 478.0125,518.8178 484.751,528.784 489.5577,536.7976 493.856,545.2713 498.1232,554.8384 501.7466,565.3524 504.1659,574.0167 506.4817,585.2337 508.4027,598.597 509.7134,613.0273 510.4428,627.9947 510.7434,641.6281 510.6729,661.6353 510.1618,678.3692 509.1368,689.9188 507.7511,697.9734 506.8235,700.9794 505.5413,703.7738 504.6655,705.0811 503.2961,706.3782 501.8928,706.9514 499.9511,707.1335 495.6686,705.5901 492.7077,703.5273 488.4369,699.9276 481.8744,692.9395 478.3864,688.7757 466.7901,673.3682 449.7213,647.8136 432.4298,619.3144 419.6514,596.8799 400.4245,561.3092 383.0373,527.3944 364.646,490.1282 350.6551,460.8225 333.604,423.8968 314.4839,381.3391 279.0292,299.3819 220.7064,160.3976 209.393,134.5452 206.4158,128.2639 205.1411,126.2531 205.6357,128.6496 207.6519,134.4816 215.0307,153.0366 224.6074,175.2258 235.2497,198.5101 244.8851,218.4204 255.2015,238.7314 266.146,259.3322 277.3396,279.4952 287.983,297.8565 298.4144,315.0813 309.3432,332.3108 320.4233,348.9967 332.023,365.6802 343.6318,381.6105 355.171,396.703 366.7888,411.1472 383.0001,430.027 399.7526,448.0974 417.0222,465.359 435.2264,482.2324 453.8444,498.0631 474.139,513.872 494.5864,528.7398 537.5497,558.4027 547.3437,565.6965 558.1432,574.3833 567.3798,582.6436 578.7041,594.2966 589.3456,607.2124 606.9838,629.6981 612.5532,636.0056 618.8727,642.4782 625.2524,648.0548 631.7288,652.6109 637.9726,655.8994 644.7333,658.3308 648.4741,659.032 652.2887,659.2276 656.1088,658.9721 660.1175,658.2435 663.6141,657.1125 667.0901,655.4907 670.5019,653.3781 673.7941,650.7879 676.8515,647.8475 679.8038,644.4539 682.6048,640.6255 685.167,636.4547 689.7911,626.6867 693.3671,615.8517 696.1097,602.9587 697.5577,590.2889 697.7223,577.1105 696.6904,564.5422 694.3977,552.9116 690.7203,541.4856 688.6972,536.8292 686.3092,532.2966 683.5156,527.8509 680.744,524.1659 676.5005,519.7321 672.0293,516.3843 666.875,513.7031 661.5464,512.1115 655.8928,511.601 650.22,512.1107 644.9969,513.5422 639.4133,516.0614 633.9465,519.5028 628.8086,523.7739 623.8045,528.9984 619.11,535.1049 615.2547,541.327 611.9231,548.1607 608.82,556.0017 606.6172,563.6296 604.9228,571.8956 604.0477,578.6874 603.6376,586.9685 603.8324,595.0197 604.665,602.8872 606.0712,610.7985 608.0468,618.2004 610.8442,626.1649 614.159,633.4862 618.0682,640.4694 622.1034,646.1502 626.8534,651.5818 631.445,655.8829 636.7113,659.6741 641.6779,662.3917 647.0492,664.2525 650.7543,664.9688 654.8509,665.281 658.5652,665.027 662.3123,664.241 666.4161,662.7898 670.0904,660.9479 673.6065,658.6078 677.0629,655.7071 680.3872,652.2767 683.3467,648.5717 686.284,644.2034 689.0874,639.2983 693.6958,628.9386 697.3665,616.9752 700.0193,603.6327 701.3693,589.7738 701.4891,575.5868 700.2839,562.4927 697.9716,550.2747 694.6339,539.4735 692.2725,533.9135 689.5781,528.5668 686.6365,523.7125 683.668,519.6858 678.9381,514.7261 673.6625,510.6902 668.1025,507.8259 662.314,506.131 656.261,505.4937 650.6252,505.9767 644.4925,507.6482 638.3168,510.383 632.4445,514.0979 626.5969,518.949 621.2492,524.5498 616.3312,530.9922 611.7686,538.4135 607.6819,546.6233 604.7399,554.4079 602.2541,563.2478 600.5511,571.807 599.53,580.3751 599.2343,588.0106 599.5761,596.3636 600.5895,605.4547 602.2312,614.0653 604.3576,621.8284 607.3148,629.6991 610.9153,637.6825 614.5028,644.0334 619.4696,651.2539 624.214,656.8104 629.7173,661.9296 635.2943,666.011 641.3186,669.1837 647.2897,671.2445 651.3559,671.9756 655.5139,672.1713 659.7234,671.8183 663.973,670.8838 668.1101,669.3639 671.8698,667.4175 675.5586,664.9222 679.1259,661.8652 682.5454,658.2481 686.0712,653.7551 689.2042,649.0332 692.2538,643.6496 694.856,638.1763 697.2362,632.2316 701.1066,619.6083 704.04,604.88 705.5446,590.2596 705.6231,575.0889 704.3719,560.6165 703.2165,553.6554 701.6868,546.9471 699.6972,539.9655 697.5209,533.7336 695.2022,528.2577 692.7844,523.5236 689.696,518.5341 686.5849,514.2748 681.7185,508.9356 676.4533,504.7449 670.1872,501.37 663.6713,499.2824 657.375,498.625 650.2562,499.2275 643.7372,500.9345 637.4442,503.7321 630.9982,507.7151 624.7075,512.8524 618.0808,519.8014 612.48,527.0485 607.7505,534.6463 603.6806,542.8657 600.2384,551.7783 597.5255,561.2237 595.6711,570.1439 594.6687,578.0624 594.2537,587.8561 594.5544,596.6917 595.6646,606.4996 597.0903,614.4007 599.832,624.3251 602.9926,633.3713 606.8338,641.5891 611.4354,649.8601 616.4395,656.9668 622.078,663.6222 627.931,669.0483 634.6473,673.9583 640.5251,677.0183 646.6765,679.115 651.418,680.0344 655.8933,680.2513 660.4463,679.8557 664.997,678.8477 669.2918,677.2913 673.4531,675.164 677.5824,672.4083 681.5906,669.024 685.3882,665.0364 688.9216,660.603 692.3265,655.5672 695.5204,649.9703 698.25,644.25 700.9832,637.4453 705.3706,623.4231 707.058,616.0653 708.3974,608.3135 709.4861,599.7314 710.2025,590.9675 710.3945,575.1901 709.0755,559.5538 707.8947,551.9346 706.3704,544.5749 704.5024,537.5384 702.2661,530.7698 699.7395,524.4308 696.9227,518.5584 693.8158,513.1994 690.4187,508.4006 684.6612,502.0153 678.7466,497.1452 672.5297,493.6537 665.6791,491.421 658.5338,490.5202 651.3755,490.9961 643.6687,492.9127 636.3222,496.0341 628.7512,500.7051 621.6828,506.4197 615.2565,513.0333 608.9474,521.1458 603.5224,529.7879 598.9209,538.9938 594.8287,549.4989 591.782,559.8443 589.9513,569.2024 588.767,579.5134 588.4091,589.6974 588.837,599.6484 590.1477,609.8715 592.2072,620.3225 595.1013,630.1639 598.786,639.9072 603.1431,648.8609 608.1973,657.4283 613.8446,665.0819 620.4547,672.5473 627.115,678.4552 633.9609,683.2351 640.5218,686.4786 647.4141,688.7072 652.535,689.6306 657.4072,689.7692 662.3706,689.2204 667.7424,687.8755 672.2118,686.0872 676.9223,683.4258 681.2668,680.2423 685.5149,676.4022 689.4281,672.1407 693.3024,667.0894 696.9966,661.3503 700.2607,655.3283 703.0828,649.1519 706.1317,641.2352 708.6492,633.531 710.7746,625.7658 712.6491,617.2614 714.0171,609.0578 715.1142,599.7967 715.7733,590.7124 716.0179,581.9283 715.8598,573.1626 715.3017,564.7353 714.303,555.686 712.9794,547.2538 711.3627,539.4779 709.3846,532.0339 707.1914,525.4179 704.2671,518.0849 701.0352,511.3322 697.6896,505.5232 694.0679,500.3369 687.7487,493.3951 681.0787,488.0194 674.3923,484.3112 670.7871,482.9526 667.0753,481.9691 663.2659,481.3224 659.0829,481.022 651.1348,481.5955 647.0125,482.4669 642.3694,483.8732 634.1194,487.4842 625.9402,492.5982 618.0766,499.0505 610.7375,506.6501 603.8472,515.4676 597.8139,525.1063 592.3968,535.7903 588.1439,546.7832 584.869,558.2166 582.7932,569.0096 581.5755,579.3186 581.2716,590.0449 581.796,601.1691 583.356,612.953 585.4842,623.5075 588.8731,634.8167 592.8783,645.1757 598.25,656.25 603.2467,664.7396 609.6532,673.6565 616.2354,681.1378 623.7859,688.0632 630.6479,693.0514 638.8013,697.3244 646.9883,700.207 652.6246,701.1927 658.0315,701.4101 663.486,700.9357 668.648,699.7673 673.7977,697.8068 678.9326,695.0356 683.6648,691.7083 688.4317,687.522 692.788,682.8701 697.0132,677.4868 700.8166,671.7443 704.375,665.375 707.9234,657.8818 711.2206,649.713 714.0747,641.3066 716.4621,632.7865 718.48,623.7322 720.3025,613.1901 721.5951,603.0267 722.4198,593.0378 722.779,583.3483 722.6857,574.0198 722.1387,563.8477 721.1507,553.8148 719.779,544.4045 717.9881,535.3281 715.9065,527.1487 713.286,518.8466 710.2962,511.0754 706.9487,503.8877 703.2552,497.336 699.3621,491.6498 695.8811,487.3436 692.2812,483.4999 688.5625,480.125 685.0244,477.4315 681.385,475.148 677.6444,473.2797 673.375,471.6624 668.875,470.4177 664.75,469.6811 660.25,469.3148 655.75,469.401 651.25,469.9354 646.4756,470.9508 641.7954,472.351 637.2145,474.1217 632.4036,476.4255 627.7318,479.1227 622.9687,482.344 613.8612,489.808 605.3363,498.573 597.5592,508.5047 590.4655,519.7387 584.7688,531.0327 579.8609,543.704 576.213,556.5324 573.887,568.86 572.6387,581.3184 572.3522,593.1306 573.2442,605.882 575.0145,618.3033 578.1677,632.1022 581.3153,641.7701 586.7181,655.1255 592.0139,665.5741 598.7431,676.5579 605.8014,686.0017 613.4094,694.4837 621.6736,701.8093 630.32,707.9578 638.4792,712.0856 647.1384,714.9454 653.327,716.079 659.3125,716.3594 665.3979,715.8156 671.4401,714.4036 677.1459,712.1835 682.5549,709.2241 687.9299,705.4001 693.2186,700.6851 698.239,695.1953 702.9092,689.0345 707.3806,682.0289 711.4112,674.5861 715.1595,666.4368 718.4786,657.9132 721.5418,648.6024 724.2561,638.7077 726.5755,628.321 728.4541,617.5341 729.8775,606.295 730.8166,594.9752 731.2779,583.4927 731.2436,572.3739 730.712,561.3681 729.7027,550.8175 728.1399,539.766 726.1719,529.4531 723.7565,519.5877 721.0125,510.6116 717.7428,501.9481 714.105,493.9834 710.1253,486.7035 705.6169,479.8447 701.9137,475.1047 698.2668,471.1054 694.1049,467.2411 689.9277,463.9844 685.6562,461.2307 680.9603,458.8149 676.5196,457.0703 671.6607,455.7154 666.5795,454.8674 661.6157,454.5175 656.3178,454.6438 651.0696,455.2744 645.871,456.3912 640.7219,457.9762 635.0668,460.2332 629.642,462.8678 624.0891,466.0678 618.7388,469.6585 613.2714,473.8666 607.7517,478.6624 602.8594,483.4219 598.0196,488.6843 589.0641,500.1608 581.1591,512.5802 577.577,519.1841 574.3826,525.8667 568.8215,540.2581 566.6306,547.2973 564.711,554.7782 562.1492,568.5668 560.7661,582.2424 560.5416,595.9128 561.5358,609.9707 563.4487,622.7828 566.827,637.5423 571.2323,650.9781 576.646,664.3825 583.4633,677.936 590.2504,688.9354 599.1649,700.9952 608.3992,711.2094 617.6947,719.6794 627.3114,726.4741 637.3161,731.8276 642.23,733.7396 646.9353,735.126 654.0254,736.4561 661.1093,736.9166 667.5331,736.4424 674.0606,735.0213 680.64,732.591 686.9387,729.2618 692.9242,725.1078 698.8751,719.9222 704.4379,713.9814 709.5537,707.3988 714.4314,699.8816 719.1592,691.2537 723.4656,682.0194 727.4566,671.9529 730.9499,661.5094 734.022,650.4654 736.8171,638.1956 739.1451,625.3379 740.9061,612.4123 742.122,599.1821 742.7223,586.5626 742.784,572.5079 742.3054,559.3058 741.2814,546.295 739.7426,533.9794 737.7166,522.4506 735.0732,511.1005 731.9778,500.3943 728.3014,489.965 724.3199,480.6432 719.9234,472.1271 715.3097,464.7657 710.9647,458.9552 706.3629,453.6961 701.588,449.0826 696.6543,445.1092 691.5759,441.7701 686.3672,439.0596 680.9023,436.9134 674.9329,435.2538 668.9476,434.2561 662.9663,433.8925 657.0087,434.1354 651.0945,434.9573 644.47,436.5121 637.9641,438.6039 631.2693,441.349 624.7786,444.6054 618.1968,448.5404 611.2306,453.3727 604.6432,458.545 598.1414,464.2897 592.0087,470.3544 586.4576,476.489 581.1406,483.0625 575.8358,490.35 570.6214,498.2243 566.0826,505.9066 561.9193,513.8798 557.8915,522.6066 554.669,530.6093 551.7197,539.1757 549.1033,548.1776 547.0365,556.8831 544.2853,573.2228 543.1101,589.1244 543.0787,603.6433 544.5112,620.2119 547.4871,637.808 552.2091,655.4608 557.326,669.9876 563.808,684.8704 572.5876,701.2854 582.3611,716.2799 587.0436,722.6051 592.0603,728.7434 603.6182,741.1005 609.1807,746.1837 615.1034,751.0197 621.3205,755.543 627.3849,759.4275 633.0433,762.5023 638.9527,765.1783 645.0757,767.4033 651.0002,769.0386 658.8832,770.3179 667.0798,770.4747 675.114,769.4752 683.25,767.25 690.4414,764.1466 697.6896,759.8179 704.612,754.4567 711.4366,747.8474 717.9083,740.1702 724.1471,731.2891 729.994,721.4449 735.3807,710.7822 740.2546,699.4361 744.5774,687.5329 748.5749,674.4079 752.051,660.7691 755.2054,645.6497 757.733,630.2572 759.6209,614.7624 760.8724,599.1801 761.5108,583.0171 761.4961,566.7876 760.8203,550.6603 759.5153,535.1771 757.565,520.1092 755.0339,505.9249 751.7596,491.6902 748.0124,478.6394 743.7295,466.4454 738.9334,455.1979 733.8088,445.2713 728.1211,436.1978 722.0444,428.1763 715.374,420.9571 708.4056,414.8852 701.1894,409.948 693.7756,406.133 685.4754,403.1526 677.2854,401.3347 668.6999,400.5263 659.7543,400.7899 650.8623,402.0968 640.8968,404.6511 631.2603,408.1084 621.6286,412.5455 612.0414,417.9469 602.2686,424.4438 592.8365,431.6711 584.8975,438.5393 577.0288,446.0929 569.7164,453.8542 562.569,462.2327 555.3904,471.5052 548.9871,480.5959 543.1183,489.8465 537.5527,499.6142 531.5343,511.6104 525.6526,525.1565 521.83,535.5071 517.8014,548.3539 511.775,572.582 509.129,585.668 505.4016,607.163 503.0526,618.4205 501.4907,624.4676 499.7762,629.4634 497.8221,633.8232 496.125,636.625 494.0156,639.0 491.625,640.625 488.8594,641.4219 485.625,641.375 483.0803,640.767 480.3187,639.5277 476.5732,637.3335 473.2553,634.8443 467.2272,629.456 463.2176,625.426 451.5239,611.5245 441.1839,597.4887 427.8689,577.6546 413.2461,553.9113 399.1154,529.6692 383.3698,500.8607 369.917,475.2228 356.4874,448.5581 337.9807,410.5368 323.9124,380.7326 287.401,300.0653 236.6941,184.1453 231.3777,172.8711 234.2436,180.0599 241.1966,195.5981 254.2365,222.5397 270.1304,252.9851 286.1925,281.746 302.2668,308.4803 319.2375,334.8918 336.4184,359.9678 353.1861,382.7473 367.8821,401.4126 383.1788,419.7081 398.1225,436.5546 413.4999,452.7524 428.7559,467.8652 447.3068,485.3892 502.3683,534.6843 513.0403,545.1779 522.035,554.8397 527.7685,561.7136 534.7031,570.7812 539.5973,577.8428 544.4485,585.6377 551.9334,598.9058 567.1491,629.4456 577.1696,648.7587 587.0566,665.2097 597.212,679.4787 602.5743,685.9572 608.6276,692.3878 614.7255,698.1667 620.6475,702.9601 627.2214,707.4523 633.763,711.1948 639.6716,713.8069 645.8199,715.7486 652.1268,716.955 657.9742,717.3211 664.2938,716.8123 670.3318,715.4684 676.3734,713.2617 681.8552,710.4229 687.3798,706.6313 692.8382,701.8965 697.8747,696.5408 702.4763,690.6646 706.9827,683.7897 711.0783,676.3951 714.9055,668.2613 718.4152,659.4377 721.5116,650.1379 724.2827,640.1525 726.6849,629.5895 728.6654,618.5664 730.1278,607.5971 731.116,596.2199 731.6281,584.3985 731.6375,572.912 731.1466,561.4954 730.1336,550.2627 728.6051,539.4859 726.5133,528.6658 724.0582,518.7104 721.176,509.2952 717.872,500.504 714.3021,492.7174 710.2508,485.4241 705.7649,478.7186 702.1985,474.2101 698.221,469.9017 694.3441,466.3392 690.0669,463.0557 685.4104,460.1458 680.8244,457.85 676.1919,456.0665 671.1581,454.701 666.4488,453.932 661.3467,453.623 656.0881,453.8253 650.4722,454.5602 645.3055,455.7054 639.865,457.3993 634.5386,459.5502 629.039,462.284 623.435,465.5484 617.7406,469.3847 612.5963,473.3433 607.4055,477.8644 602.1326,483.0457 597.2312,488.4409 592.4441,494.3189 588.0,500.375 583.9043,506.5704 580.0031,513.1725 573.1232,527.0055 567.974,540.5387 563.7981,555.5276 561.3731,568.8158 560.0755,581.3781 559.909,596.9225 560.8275,609.8637 563.0631,624.5554 566.625,639.5 570.5816,651.7273 576.0726,665.124 582.8974,678.3985 589.9753,690.091 599.3607,702.6658 607.7445,711.9481 617.7121,720.983 626.7381,727.4291 632.0477,730.4853 637.5172,733.136 642.3748,735.0621 647.3935,736.5556 654.4621,737.8344 661.3674,738.1739 668.315,737.5872 674.9452,736.0696 681.6376,733.5294 687.9687,730.1136 693.993,725.8393 699.6919,720.7307 705.2957,714.5816 710.4973,707.7323 715.4769,699.9433 719.9967,691.5733 724.4513,681.8485 728.4467,671.5604 731.956,660.8693 735.0624,649.5156 737.7253,637.5005 740.0338,624.2017 741.7672,610.7751 742.9255,597.4039 743.5141,584.2462 743.5441,571.4368 743.0092,558.3983 741.922,545.4876 740.2887,532.8833 738.1879,521.0714 735.5821,509.7786 732.4559,499.0474 728.7558,488.7176 724.608,479.1695 720.0409,470.4548 715.0825,462.6253 710.8113,456.983 706.2065,451.8497 701.4043,447.3457 696.4557,443.4852 691.3797,440.249 685.8683,437.4734 680.2577,435.358 674.3547,433.8347 668.2953,432.9381 662.2567,432.6704 655.881,433.0307 649.5654,434.0089 643.3289,435.5578 636.4943,437.8782 629.8607,440.7133 623.4426,444.0212 616.9342,447.9706 610.3767,452.5928 603.4452,458.1293 596.6677,464.2051 590.596,470.301 584.8283,476.7662 579.2,483.8017 574.0894,490.9134 569.0656,498.6929 564.4162,506.7222 560.3654,514.5873 556.6592,522.7596 553.2827,531.3237 550.3326,540.0115 547.7913,548.882 545.663,557.8821 543.0862,573.5121 541.9722,588.9259 542.1099,605.0603 543.7072,623.3897 547.0481,641.4782 551.625,658.125 556.5011,671.5824 563.7038,687.9055 572.4112,704.011 577.2709,711.6279 583.2978,720.2776 592.1859,731.447 603.8253,743.6736 609.3241,748.6944 614.8832,753.2364 621.0637,757.7413 627.1792,761.6859 632.8203,764.7801 638.3508,767.3082 644.0774,769.4331 649.9821,771.125 658.3283,772.6319 666.3491,772.9297 674.2269,772.1093 682.2673,770.1136 689.8731,767.0809 696.9799,763.0689 704.0768,757.8273 710.8055,751.5997 717.4025,744.1448 723.619,735.6882 729.5234,726.1262 734.9836,715.7054 739.9651,704.5591 744.5867,692.4044 748.7268,679.4903 752.3548,665.9026 755.6513,650.7995 758.32,635.3742 760.4037,619.4191 761.8328,603.4788 762.6437,586.9847 762.8076,570.3195 762.3241,554.0866 761.1848,538.0658 759.4726,523.1574 757.1977,509.0897 754.236,495.2016 750.5909,481.5684 746.3932,468.8052 741.8158,457.3282 736.6071,446.5236 731.0985,437.1052 725.2549,428.8622 718.7931,421.3148 712.0256,414.8652 704.9947,409.5016 697.743,405.2126 690.3128,401.9865 682.0948,399.6183 673.7777,398.322 665.093,398.0311 656.0982,398.7693 646.8655,400.5352 637.3374,403.3433 627.7528,407.1328 618.1855,411.864 608.3928,417.6762 598.7905,424.3351 590.6556,430.759 582.7551,437.7167 574.8049,445.4547 567.2366,453.545 560.1309,461.8995 553.4384,470.5578 547.1012,479.5685 541.1043,489.0076 534.4191,500.84 528.6709,512.4366 523.315,524.8975 518.702,537.4 514.715,550.0182 511.1865,563.0152 501.2782,606.2237 499.059,613.7892 496.9967,618.8273 495.0144,622.5239 492.9363,625.3112 490.6916,627.389 488.4527,628.6922 485.9183,629.2832 482.625,629.125 479.7268,628.3801 476.5254,626.9629 472.7846,624.7771 469.4532,622.2653 459.9557,613.275 448.6238,599.9691 438.2808,586.2052 425.3128,567.2757 414.3711,549.8759 398.7063,523.2732 384.6197,497.7864 367.3983,465.2672 355.963,442.8148 340.2912,410.805 321.4813,371.2999 287.1481,296.0894 253.1075,218.4975 236.6702,181.9239 239.3601,188.5425 245.0891,201.1081 258.2997,228.0108 273.2577,256.2072 289.1539,284.37 303.4721,308.203 318.7646,332.131 334.3144,355.0256 349.7973,376.4095 363.3146,393.8914 377.7982,411.5628 393.8673,430.097 408.6959,446.2648 423.7009,461.6393 441.0253,478.5064 477.7995,512.4862 497.129,530.8324 510.4613,544.8449 520.1043,556.161 531.4801,572.2697 535.3342,578.5544 539.7424,586.5742 550.5392,608.7452 565.9769,642.919 576.5512,663.175 581.4192,671.2721 588.191,681.5731 592.6696,687.7111 598.1992,694.5547 604.2826,701.4952 609.6359,706.8671 615.6379,712.137 622.2948,717.244 628.3556,721.1648 634.3634,724.3589 640.9689,727.1299 647.0492,728.9884 653.7121,730.1674 660.5544,730.4674 667.1026,729.878 673.5025,728.3934 679.883,725.927 685.9432,722.6198 691.9462,718.3228 697.5287,713.2875 702.8257,707.4503 707.9579,700.6622 712.6558,693.2795 717.0925,685.0267 721.2611,675.8431 725.1122,665.8707 728.4987,655.5029 731.4944,644.4909 734.0397,632.9051 736.0935,620.7692 737.6558,608.1225 738.6636,595.57 739.1445,582.8729 739.0835,570.5435 738.4952,558.4849 737.357,546.1705 735.6959,534.153 733.5952,522.923 731.014,512.2 728.0663,502.4225 724.468,492.7207 720.4712,483.7942 715.8968,475.3203 711.1407,468.0317 707.1415,462.8852 703.0221,458.3882 698.4211,454.1399 693.6898,450.4861 688.8425,447.4183 683.5604,444.7821 678.5188,442.898 673.062,441.5049 667.3961,440.6878 661.2993,440.4269 655.6229,440.7402 649.6192,441.6376 643.6776,443.0832 637.4825,445.1657 631.165,447.8747 625.0723,451.0465 618.5661,455.0407 612.3374,459.4504 606.3017,464.2773 600.3174,469.6562 594.4469,475.5702 588.9588,481.7313 583.6118,488.3959 578.6875,495.2344 574.217,502.1579 569.9146,509.6199 566.1995,516.9153 562.6415,524.8603 559.2337,533.5053 556.8197,540.6183 554.5503,548.6673 552.416,557.7618 550.169,571.3766 548.8909,586.8602 549.0617,604.424 550.2708,617.7421 552.6435,631.9293 556.9082,648.8778 562.9708,666.1508 568.0559,677.8417 576.4916,693.6101 586.75,709.375 595.1246,720.0873 605.1856,730.7996 610.4032,735.6509 615.9174,740.243 621.415,744.3082 627.1464,748.03 632.3894,750.9477 637.8634,753.505 643.5403,755.6529 649.0219,757.2512 656.652,758.6659 663.99,758.9977 671.5216,758.2886 679.1679,756.4595 686.195,753.7254 693.0787,749.9259 699.653,745.1699 706.1473,739.2681 712.2085,732.5214 718.1408,724.5619 723.6275,715.8283 728.8688,706.015 733.632,695.5328 737.8839,684.5102 741.7167,672.7096 745.2541,659.7197 748.3318,645.9878 750.8942,631.6299 752.8408,617.1588 754.1664,602.7165 754.9371,587.3433 755.0961,571.9332 754.6313,556.5781 753.5603,541.8212 751.9143,527.7969 749.7575,514.7698 746.8463,501.3289 743.4787,488.9753 739.5943,477.3775 735.3568,466.9435 730.6703,457.3765 725.3865,448.4831 720.4647,441.5278 715.0385,435.0501 709.6494,429.6614 703.7845,424.8172 697.7349,420.8007 691.3886,417.5437 684.7308,415.0125 677.6602,413.1906 670.5704,412.1962 663.4866,411.983 656.0641,412.5519 648.6424,413.8808 640.5633,416.0657 632.6889,418.9175 624.7055,422.5447 616.6799,426.9577 608.256,432.4004 599.976,438.5217 591.9076,445.2837 584.2964,452.4478 576.6168,460.5027 569.6653,468.6257 562.9321,477.4043 556.6895,486.4971 550.7029,496.289 545.2526,506.353 540.686,515.9709 536.4161,526.2657 533.0129,535.5168 530.0211,545.3544 526.822,557.854 524.6316,568.7915 523.0417,579.3458 521.843,590.6695 521.2054,599.8997 520.8541,611.9238 521.3693,632.5198 523.5859,653.8926 524.8379,661.8073 527.5437,674.9269 531.7495,690.2371 537.9801,707.3997 546.2217,725.2446 556.7115,743.6474 562.9727,753.1191 570.006,763.0167 576.7998,771.5682 585.3249,781.4381 591.6155,788.046 598.4758,794.5905 607.0744,802.1027 613.7517,807.394 621.155,812.5255 628.7016,817.0632 636.6276,821.1453 644.5021,824.5084 652.2823,827.0582 659.6564,828.7395 664.9736,829.4947 670.4079,829.8595 675.5508,829.8157 680.6797,829.3823 685.6736,828.5699 690.7431,827.3379 695.8723,825.6567 700.6991,823.6562 710.067,818.5307 719.088,811.8824 727.8397,803.6132 736.3636,793.643 744.4916,782.1182 751.9347,769.5089 758.8453,755.6337 765.2459,740.4048 771.1558,723.7108 776.5398,705.5876 781.1432,686.9513 785.109,667.2616 788.4206,646.2294 790.8832,624.8325 792.5786,602.6004 793.4423,580.029 793.451,558.1548 792.6133,536.4608 790.9328,515.5595 788.4369,495.6818 785.0785,476.1597 780.8539,457.2268 775.8578,439.4549 770.249,423.3199 764.102,408.8755 757.3321,395.8908 749.7023,383.922 741.3431,373.2367 735.5245,367.0293 729.2548,361.3087 722.8156,356.3614 716.2283,352.1742 709.5145,348.7339 702.3904,345.9163 694.9027,343.7413 687.3923,342.2922 679.5024,341.5012 671.6296,341.4055 663.4237,341.9922 655.285,343.221 646.875,345.125 637.3001,347.977 627.9602,351.3909 618.8736,355.3004 610.7269,359.2917 602.8262,363.5967 586.4971,373.809 569.9646,385.8289 553.7976,399.3152 543.9701,408.3548 534.3199,417.8604 524.8951,427.8149 515.8184,438.0848 499.3198,458.6313 474.4342,492.3689 466.6253,501.4694 460.8304,506.533 455.5656,509.4999 452.5,510.5 449.9768,510.9204 447.434,510.9355 444.4229,510.497 438.5354,508.5645 432.7321,505.2718 425.7833,499.9802 418.7428,493.2211 410.9099,484.4911 403.0096,474.5291 393.6842,461.6393 384.8087,448.3194 373.942,430.9509 365.188,416.233 351.3351,391.8009 342.0843,374.7616 324.7329,341.3634 312.3739,316.6911 299.3155,289.6092 294.7351,279.5504 293.6039,276.3093 294.7019,277.6481 314.7071,310.0039 327.672,329.9665 338.86,346.5684 352.7732,366.147 367.044,385.5914 382.8591,406.1016 429.9844,464.3397 442.4987,481.2068 450.005,492.7404 455.054,501.7239 458.9171,510.3902 461.1396,517.8982 462.1324,524.6486 461.5595,530.5291 460.8309,532.52 459.5396,534.4235 457.8056,535.7269 455.6962,536.4434 453.7162,536.5784 451.4662,536.2409 448.2262,535.1333 445.3611,533.6296 437.7616,528.0538 430.9518,521.6216 422.45,512.1725 414.1956,501.7044 402.8174,486.0508 393.8543,472.5487 382.7149,454.7267 371.1593,435.1491 357.2916,410.5703 346.8315,391.1104 334.172,366.6576 303.9048,305.4584 286.0458,267.191 282.2142,258.2508 301.7344,290.9219 319.1547,318.8548 335.1227,342.8478 352.7972,367.9849 368.906,389.4858 386.9902,412.4445 412.1343,442.5665 433.1712,467.1525 447.7953,484.9603 458.2731,499.2315 465.2894,510.0257 471.552,522.0836 475.6608,532.7209 477.1324,537.8693 478.0886,542.6352 478.736,547.7863 478.8858,552.5242 478.5642,557.3844 477.9404,560.6557 476.4722,564.3889 474.8138,566.9403 472.4874,568.9359 469.6814,570.0993 466.6331,570.3734 463.4545,569.7895 459.8665,568.4067 456.5339,566.6367 452.6883,563.945 448.427,560.4263 440.3934,552.5903 429.6418,540.256 420.6603,528.319 407.7657,509.7006 396.9772,492.7945 384.3041,471.7917 371.6092,449.3274 354.7979,418.2365 342.5477,394.4504 326.2346,361.7065 312.5293,333.3884 293.0508,292.0267 264.5851,229.164 284.8425,266.6677 295.6675,285.2999 307.6082,305.0265 317.3527,320.4712 327.8548,336.3634 350.9299,369.1766 372.1249,396.9338 395.6891,425.5354 416.4366,448.9092 452.3394,487.7558 469.2054,507.0849 475.1421,514.5533 483.2173,525.4723 487.44,531.8484 491.447,538.7819 496.9385,549.4743 501.6829,561.0994 504.3093,569.1725 507.7939,583.2026 510.3643,597.0454 511.7248,607.4168 516.5527,658.8223 519.4363,680.0113 522.9844,697.3281 525.4507,706.2066 528.9899,716.6909 533.2626,727.3512 537.696,736.848 544.6462,749.9314 552.25,762.375 559.26,772.6722 567.57,783.7483 574.9886,792.7099 584.1887,802.9415 590.3598,809.3704 597.0916,815.7666 604.3809,822.111 611.875,828.125 618.0527,832.642 624.2888,836.7168 630.5169,840.3332 637.0272,843.655 643.8058,846.6365 650.4288,849.0708 656.7719,850.8923 662.9707,852.1801 669.3538,852.9896 675.5142,853.2631 681.808,853.0146 687.8166,852.2649 693.5814,851.0446 699.5506,849.218 705.2722,846.9076 710.7199,844.1753 716.1958,840.8786 721.6858,836.9879 726.853,832.757 732.0083,827.9493 737.0782,822.6087 741.8835,816.9336 746.6515,810.6655 751.3626,803.8011 760.176,788.9394 768.3974,772.2264 773.373,760.4311 777.9431,748.1882 782.1774,735.3442 786.1381,721.7504 789.8155,707.4332 793.1816,692.4615 796.2085,676.9046 798.8096,661.2197 800.9854,645.5048 802.7796,629.4428 804.1385,613.5049 805.0705,597.791 805.628,581.4138 805.7714,564.9876 805.497,548.5942 804.8013,532.3153 803.7122,516.6126 802.2562,501.5459 800.4083,486.8003 798.2263,472.7998 795.666,459.2372 792.6345,445.7564 789.2815,432.9681 785.5972,420.7779 781.5948,409.2107 777.1388,397.9389 772.372,387.3865 767.3091,377.5812 761.9645,368.5506 756.5381,360.5747 750.875,353.375 744.6399,346.559 738.5347,340.8182 732.2844,335.785 725.907,331.4351 719.0933,327.5767 712.1797,324.4168 705.1867,321.9274 697.798,320.0078 690.3686,318.7609 682.2536,318.1122 674.2468,318.1101 665.92,318.7362 657.6715,319.9496 648.7807,321.8766 640.0219,324.362 631.0607,327.4655 621.8101,331.2177 604.8506,339.375 588.0182,349.0513 570.625,360.625 553.2531,373.6999 543.0973,382.0707 532.6659,391.2161 521.5949,401.4654 511.0791,411.7442 495.5016,428.1889 467.2345,460.1606 456.2432,471.3029 450.3513,475.9912 445.2339,478.8182 439.3783,480.6039 434.1544,480.8015 428.8089,479.6487 423.648,477.3442 417.1012,473.0443 411.3721,468.2597 405.0687,461.8865 398.3024,454.1832 391.6465,445.5875 382.3489,432.729 374.0664,420.3374 364.1178,404.5823 344.0944,369.7171 324.8982,333.7063 313.3922,310.5519 310.0648,303.1569 309.7515,301.7812 311.4891,303.6757 329.5121,330.9667 356.2906,369.5855 370.9836,389.5959 415.5994,447.9529 428.4355,466.6016 435.9969,479.8923 438.5358,485.9791 439.999,490.688 440.346,494.95 439.6651,497.6167 438.7695,498.6738 437.875,499.2031 435.2159,499.4729 433.3774,498.9767 431.2655,497.9676 425.8064,494.4062 419.7496,488.865 413.0325,481.7925 405.5776,472.8009 398.4224,463.3353 389.2186,450.1793 381.2323,438.0172 363.8577,409.5012 341.0332,368.4702 325.5939,338.8893 312.75,313.125 305.1547,297.0293 303.5555,293.2426 303.3309,291.9048 304.9701,293.7466 322.1004,320.3829 338.3599,344.717 352.4724,364.7817 375.3976,395.7917 421.5807,455.0179 430.7171,467.6104 435.7469,475.0764 440.8292,483.7089 444.1021,490.1403 446.8417,496.9669 448.2972,502.5404 448.6168,507.2136 448.25,509.125 447.4307,511.0657 446.5233,512.1451 445.25,512.875 444.0374,513.155 442.3167,513.0825 439.4568,512.2949 436.7341,511.0225 429.625,505.875 423.8668,500.5874 415.7033,491.7896 408.7195,483.1133 398.0103,468.6014 380.4448,441.8123 370.3011,425.1094 357.9466,403.693 334.7164,360.6416 310.7099,312.8786 298.5006,287.1012 295.375,279.375 298.4091,283.574 311.1327,304.044 326.9522,328.6114 353.4888,367.1423 380.9305,403.5562 419.4449,451.3556 431.9774,467.3683 438.875,476.75 447.2172,489.3466 452.1766,498.1983 455.6622,505.6049 458.273,513.2682 459.375,519.125 459.2456,525.078 458.5933,527.415 457.61,529.198 456.2933,530.5143 454.3712,531.4788 452.6762,531.7489 450.3231,531.5473 447.6305,530.8563 444.8294,529.6249 438.2692,525.2512 431.5429,519.1822 422.5558,509.7081 414.4764,499.7217 404.6864,486.6095 395.6652,473.2265 383.6918,454.5089 373.3009,437.0556 360.0488,413.835 334.9429,366.8156 307.443,311.4457 290.9219,276.4577 284.8524,262.4676 287.3389,266.143 305.6815,297.0335 318.325,317.2675 334.9342,342.3012 350.1656,363.9956 367.3933,387.0655 383.1772,407.3422 443.1915,479.7063 453.6662,493.6732 460.4082,503.9186 467.0013,515.974 471.1641,526.0852 473.7112,534.9229 474.5796,540.0798 474.8923,544.3858 474.6808,548.6684 474.0367,552.3608 472.8623,555.5637 471.2875,558.1751 469.5,559.875 467.1849,561.0464 464.4584,561.5071 461.2616,561.2214 457.8783,559.9948 453.2,557.5409 446.3347,552.4225 437.5722,544.0255 426.9047,531.6604 417.9155,519.9041 404.0283,499.6859 394.6554,485.0509 383.3189,466.2746 372.4777,447.513 359.7152,424.1722 345.9473,398.1172 332.0836,370.7217 306.0674,317.1466 281.7118,264.862 269.0632,236.6481 291.3231,276.5331 309.2633,306.4422 329.06,337.0146 350.9742,368.1788 370.2911,393.7274 392.8094,421.201 410.0378,441.1133 450.549,486.115 464.0843,502.1093 470.6219,510.4195 476.3768,518.4507 481.5018,526.2409 485.625,533.375 489.912,541.799 492.8783,548.5511 496.2871,558.2942 498.303,565.4458 500.2066,574.6898 501.25,581.75 502.1496,592.8078 502.3803,604.2193 501.7387,614.1993 500.5979,622.2355 499.1123,628.0602 496.8302,633.6422 494.2686,637.53 491.3155,639.7714 489.592,640.404 487.25,640.75 483.5471,640.1319 479.4579,638.3569 475.7407,636.0889 471.1955,632.5448 466.7947,628.4933 454.9705,615.1985 442.8914,599.3148 430.7626,581.7187 414.5426,555.6815 401.671,533.6172 386.5429,506.1845 372.4104,479.3475 355.8307,446.5543 340.8618,416.1114 325.5559,383.7475 295.146,317.1262 240.4155,192.3224 231.79,173.6803 241.0222,194.9945 254.9717,223.7226 270.088,252.7316 285.6285,280.4426 302.495,308.6081 319.7229,335.6378 335.4948,358.6439 352.3296,381.4835 367.1987,400.4125 382.2885,418.5415 397.1118,435.2366 413.0438,452.101 428.7549,467.8563 442.3703,480.8014 499.5,532.125 515.5109,547.9129 526.5443,560.5266 536.006,573.0186 546.1582,589.3008 555.8213,607.5207 571.8222,639.9938 582.7926,659.6083 592.6287,674.6057 602.3927,686.8132 608.0648,693.0039 613.0223,697.7662 618.8906,702.6868 625.0702,707.2203 629.9892,710.283 635.4594,713.05 640.7733,715.1754 646.5912,716.9348 652.8107,718.041 658.8251,718.3044 665.3021,717.7296 671.4267,716.3421 677.2624,714.102 682.7928,711.0887 688.2703,707.1855 693.3147,702.6834 698.5135,697.0084 703.2903,690.764 707.8774,683.6703 712.0072,676.1327 715.7863,667.9655 719.1919,659.2569 722.2859,649.8883 725.0233,639.9328 727.3592,629.4635 729.234,618.6528 730.7377,606.8789 731.758,594.7997 732.2359,583.3335 732.2132,571.8585 731.7081,561.2512 730.6215,549.7259 729.0885,538.7836 727.0866,528.2109 724.6158,518.1135 721.7891,508.926 718.3902,499.99 714.6111,491.7642 710.4681,484.2721 705.9775,477.5516 702.2795,472.9108 698.625,469.0 694.2838,465.0564 689.8355,461.6698 685.2894,458.8339 680.6549,456.5425 675.9413,454.7893 671.1581,453.5681 665.9024,452.8044 660.5564,452.5578 655.25,452.8281 649.992,453.5938 644.4218,454.9392 638.9761,456.7754 633.0595,459.2497 627.3308,462.1304 621.8045,465.4175 616.801,468.8825 611.3901,473.2067 606.2704,477.8056 601.1858,482.8982 596.1431,488.5121 591.2919,494.4884 586.9568,500.4614 578.8668,513.6034 572.5707,526.3214 566.7522,541.7486 562.8325,556.2109 560.4173,569.6356 559.1548,583.6239 559.0122,597.342 560.0815,611.7741 562.2398,624.8069 565.8155,640.001 570.6418,654.567 575.6607,666.4182 582.9782,680.6839 592.2776,695.1778 599.8639,705.0358 609.2708,715.1447 613.752,719.3047 618.4926,723.1741 628.9645,730.2367 633.6142,732.7909 638.4425,735.0048 643.4289,736.8517 648.1731,738.2108 655.1921,739.5164 661.7339,739.8242 668.8347,739.1163 675.6647,737.4319 682.2432,734.853 688.6536,731.3064 694.7789,726.8545 700.5381,721.6168 706.1487,715.3782 711.483,708.2065 716.5688,700.101 721.4183,691.0021 725.8005,681.3225 729.6838,671.1929 733.0564,660.7204 736.1063,649.3687 738.8132,637.0319 741.0325,624.1614 742.6763,611.2712 743.75,598.5 744.3316,584.7019 744.3482,570.8365 743.8031,557.4343 742.6853,544.2487 741.0897,532.139 738.8957,520.1196 736.0882,508.1989 732.8832,497.2893 729.2131,487.0718 725.2448,477.9455 720.875,469.625 715.8041,461.6353 711.6573,456.1074 707.0685,450.8707 702.2945,446.2708 697.3537,442.3102 692.2649,438.9916 686.6421,436.1204 681.1795,434.0029 675.3033,432.401 669.397,431.449 663.4822,431.1182 657.2125,431.4153 650.8951,432.3294 644.263,433.8403 637.4037,436.0049 630.7208,438.7296 624.2462,441.9888 617.325,446.1662 610.7192,450.7552 604.1429,455.9244 597.3466,461.9144 590.9763,468.1536 585.2018,474.4538 579.656,481.1977 574.3429,488.4065 569.1533,496.2286 564.2726,504.4035 559.9396,512.5565 556.1853,520.5612 552.5965,529.4357 549.0848,539.5792 546.6569,547.827 544.6621,556.2717 541.8346,572.776 540.5073,589.3325 540.4144,598.1 540.7302,607.5 542.254,623.0673 544.924,638.9201 549.4861,656.5452 555.2114,673.0576 562.5,689.5 570.4026,704.0187 575.6736,712.609 580.252,719.354 591.535,733.8078 596.7483,739.6185 602.3588,745.2943 614.1094,755.7228 619.839,759.981 625.5483,763.6956 631.8526,767.2504 638.3305,770.3404 644.2725,772.5747 650.081,774.2068 658.7427,775.6655 667.1467,775.9784 675.1061,775.1334 682.875,773.1406 690.7227,769.9071 698.5769,765.3516 705.6997,759.9358 712.6192,753.3354 719.1891,745.7104 725.573,736.8309 731.466,727.0789 736.9134,716.3928 741.9972,704.6125 746.7049,691.7434 750.868,678.2637 754.5648,663.923 757.7832,648.5793 760.4391,632.4267 762.4793,615.6848 763.8366,598.9235 764.5139,582.3371 764.5187,566.0965 763.8431,549.9182 762.5092,533.9049 760.5343,518.2945 757.9259,503.2276 754.6913,488.8446 750.9418,475.6138 746.679,463.4501 741.6794,451.743 736.1821,441.1122 730.2361,431.5845 724.3251,423.7103 718.106,416.8414 711.5871,410.9622 704.6804,405.9522 697.2645,401.7745 689.7062,398.6428 682.0486,396.5063 673.9831,395.2818 665.4092,395.0149 656.3616,395.7362 647.4434,397.3961 638.3332,400.0186 629.0996,403.5967 619.3616,408.2923 609.7493,413.8081 600.3321,420.0958 592.3252,426.1628 584.214,433.0006 576.6148,440.0638 569.0491,447.7865 561.9331,455.7377 555.4174,463.7181 549.1151,472.2006 542.8272,481.4819 535.9903,492.6478 529.6428,504.4232 523.8658,516.6579 518.5067,529.7207 514.6542,540.3324 511.2257,551.1584 499.4277,594.4097 496.8431,601.8606 494.3727,607.3827 492.4034,610.6688 490.3333,613.1817 487.9531,615.2344 485.3508,616.6203 482.9042,617.2066 480.207,617.1407 477.0068,616.4508 473.8105,615.1687 469.563,612.6891 465.4561,609.6898 461.1291,605.8231 456.0199,600.6759 446.8232,590.1064 435.0316,574.6672 423.7392,558.185 410.5003,537.3815 396.887,514.3688 381.6334,487.354 368.234,462.1972 351.4354,429.4135 339.5201,405.2075 325.0121,374.7643 298.3139,317.2362 241.9695,191.2428 251.1922,211.0263 265.2227,238.7791 276.9314,260.5965 290.0658,283.675 303.837,306.5963 317.7115,328.4523 332.0179,349.707 346.7572,370.3683 360.1629,388.1203 373.416,404.699 387.6436,421.5125 402.5129,438.1513 416.3755,452.9415 429.8393,466.6053 476.8625,511.6867 490.6294,525.5128 503.2991,539.1486 515.0363,553.8252 519.8518,560.7129 525.0833,569.1806 529.7188,577.4238 533.7708,585.5048 540.6674,600.732 551.3698,627.2884 558.6686,644.5625 569.452,666.9999 574.6571,676.3287 581.6482,687.7837 587.4043,696.1062 593.9546,704.6283 600.1022,711.7738 606.4671,718.3184 613.2599,724.4896 619.8612,729.6389 626.8764,734.2517 633.9281,738.0847 640.5621,740.9158 647.4925,743.0448 655.0291,744.4169 662.0406,744.7824 668.7951,744.1847 675.6775,742.587 682.6253,739.9267 689.1,736.436 695.3094,732.0336 701.4627,726.5387 707.2274,720.2468 712.8074,712.9288 717.9287,704.9276 722.6267,696.2623 727.2019,686.3353 731.2914,675.8664 734.9967,664.5961 738.1351,653.0989 741.0227,640.1735 743.424,626.6152 745.2373,612.9585 746.4799,598.9833 747.0804,585.6167 747.1016,571.1413 746.5537,557.1488 745.4669,543.7422 743.8713,531.0272 741.7273,518.7344 739.033,507.0184 735.7725,495.6935 731.9024,484.7169 727.7159,474.9201 723.1132,465.9838 718.1198,457.9803 713.7221,452.0997 708.7919,446.4925 703.9512,441.8449 698.656,437.6073 693.2122,434.0697 687.6463,431.2292 681.7636,429.0106 675.7872,427.4636 669.4029,426.5108 663.0111,426.2304 656.6399,426.5819 649.9479,427.598 642.9524,429.3307 635.7698,431.7529 628.8151,434.7304 622.0882,438.2228 614.9518,442.6103 607.69,447.7705 600.5214,453.5231 593.7928,459.5982 587.5042,465.9583 580.7603,473.5656 574.8165,481.0034 569.1802,488.8415 563.9855,496.9086 559.4021,504.93 555.0473,513.5344 550.8164,522.9472 547.4304,531.5961 544.3638,540.7803 541.8588,549.7255 539.7639,558.9444 538.1828,567.6811 537.1005,575.8022 535.8966,594.0852 536.1495,611.849 537.9782,629.3878 539.4421,637.9897 541.7964,648.7353 546.4131,665.2591 551.165,678.4509 558.6067,695.0303 568.0893,712.4535 572.9091,720.0709 578.6735,728.4026 583.5877,734.9369 589.1141,741.6216 596.1404,749.4307 601.9519,755.3616 607.84,760.7207 614.1196,765.8266 620.75,770.625 626.7142,774.4022 633.0113,777.8043 639.246,780.6129 645.7063,782.953 651.8413,784.6391 660.8378,786.078 669.4479,786.2519 677.902,785.2147 686.1718,782.9536 694.1125,779.5161 702.1043,774.6938 709.4645,768.9161 716.7499,761.7743 723.6411,753.5147 730.109,744.1831 736.1519,733.859 741.8981,722.3102 747.1258,709.9636 751.8994,696.6762 756.171,682.5493 759.9753,667.4593 763.324,651.1665 766.0057,634.5532 768.045,617.3971 769.3646,600.2757 770.057,582.1963 770.0485,564.0501 769.338,546.4121 767.9102,529.0781 765.9065,513.3106 763.2097,497.9479 759.8575,483.1898 755.7922,468.8836 751.2672,455.8901 746.0662,443.5781 740.5038,432.7005 734.417,422.8957 728.7982,415.3484 722.6415,408.4082 716.2312,402.4193 709.6028,397.3612 702.7921,393.2135 695.5294,389.8342 687.6579,387.2379 679.7916,385.589 671.5449,384.7894 663.3277,384.8684 654.8073,385.8125 646.3819,387.5605 637.2295,390.2945 627.9886,393.8828 618.7068,398.3007 609.4364,403.5007 601.3043,408.6905 593.6583,414.1321 585.8537,420.2775 577.9486,427.1207 569.9138,434.6984 562.3777,442.4109 555.2439,450.3535 548.2658,458.8007 540.1217,469.607 532.8062,480.4453 525.7535,492.1683 519.0731,504.5171 513.4513,516.1366 507.8854,528.7872 494.1947,564.3399 490.344,572.5629 487.3485,577.8098 485.2723,580.6105 482.783,583.1675 480.2385,585.056 477.815,586.1511 474.7812,586.7923 471.9917,586.8027 469.0147,586.2298 465.5404,585.0093 462.2491,583.2832 458.7361,580.9074 450.3117,573.909 440.4156,563.3018 431.5573,552.4449 419.5705,535.9583 409.2846,520.5673 395.3309,498.0946 383.7292,478.1777 370.2757,453.8498 357.2109,429.3027 343.3058,402.0353 327.1493,369.3651 291.8699,294.2976 255.8311,214.6636 267.5595,237.6648 277.3222,255.904 289.4776,277.5618 301.5317,298.0602 312.6674,315.9499 324.6345,334.2269 337.8482,353.4957 350.2943,370.8018 361.4172,385.4622 373.3326,400.483 387.924,418.1531 398.997,430.9725 420.9732,454.9511 458.625,494.0 479.2313,516.4302 491.7976,532.0803 496.4075,538.5921 501.1915,546.0413 506.1978,554.6054 510.1688,562.6384 514.6922,573.196 518.524,583.8472 522.2257,595.4095 535.1046,643.429 539.3611,656.9769 545.9723,675.2653 552.367,689.9709 557.9532,701.0956 565.4349,714.4823 573.5633,727.0474 582.5082,739.0641 593.6239,751.8966 602.0751,760.3504 611.7436,768.618 621.6066,775.8646 631.6804,781.7842 642.1067,786.4554 652.0633,789.5275 660.9531,790.9531 669.7988,791.1453 678.816,790.0648 687.1343,787.7912 695.2587,784.2509 703.0926,779.5139 710.8822,773.3808 718.0916,766.2726 725.1512,757.8029 731.8562,748.1856 738.1221,737.5459 744.0614,725.6125 749.25,713.25 754.1834,699.3389 758.5902,684.6555 762.4311,669.3881 765.8199,652.9248 768.5891,635.7356 770.5891,618.7779 771.9958,600.6899 772.7094,582.3447 772.7143,564.3201 772.0112,546.4186 770.6167,529.193 768.5176,512.514 765.7351,496.4113 762.3118,481.0565 758.271,466.5598 753.6363,453.0315 748.5713,440.8868 743.0927,430.0572 736.7059,419.6177 731.1415,411.9796 725.0598,404.9105 718.7266,398.7617 712.1718,393.5333 705.4254,389.2252 698.5564,385.8436 690.8077,383.0186 683.0145,381.1159 674.8299,380.0497 666.6533,379.8678 658.145,380.5521 649.6384,382.0667 640.4477,384.5255 631.4917,387.7026 622.4508,391.6705 613.0554,396.5836 604.4611,401.7546 596.0411,407.3764 588.0677,413.2464 580.2521,419.5804 572.9013,426.1318 564.5888,434.2181 556.8858,442.3183 549.5706,450.6377 541.4242,460.7533 533.8766,471.1787 525.7797,483.6041 518.9171,495.2386 513.2795,505.8268 507.3125,518.1094 490.416,556.5009 487.6966,561.7522 484.8437,566.2574 482.3108,569.5538 480.1406,571.7656 477.5457,573.7102 474.8967,575.0205 471.9849,575.638 468.7981,575.6559 466.0814,575.2491 462.9835,574.2049 458.8171,572.1021 455.0315,569.6593 450.7727,566.2565 445.4275,561.3926 437.8515,553.4091 427.3554,540.4976 417.4384,526.9534 404.514,507.6538 394.4281,491.4912 382.7555,471.6575 370.6627,450.1307 356.8259,424.3022 342.3259,396.3038 328.002,367.5523 299.3886,307.5293 261.2039,223.5068 271.2142,242.7119 284.8202,267.5757 303.2882,299.1201 314.8082,317.5733 326.3032,335.2028 337.6991,351.7925 349.7341,368.5037 371.4906,396.9964 393.9448,423.9174 418.164,451.1337 459.8162,495.6982 474.0121,512.0085 484.375,525.125 490.361,533.7483 494.8866,540.983 500.2445,551.0311 504.2555,559.6358 508.1626,569.9932 511.0153,578.9566 515.4728,596.8757 522.5694,635.1806 526.1966,653.067 529.5541,666.7198 535.25,685.2812 540.5811,699.5047 548.125,715.8711 556.5405,731.1681 564.9467,744.3138 570.749,752.6174 575.8719,759.3411 589.1929,774.8527 595.0977,780.9192 601.2058,786.6502 614.3313,797.4509 620.7594,801.9238 627.5687,806.075 634.3844,809.6744 641.1374,812.7252 647.353,815.0403 653.4224,816.7819 659.3125,817.9844 665.3562,818.7165 675.0632,818.8092 684.0897,817.6257 693.3024,814.9768 702.017,811.0553 710.4642,805.841 718.9049,799.102 726.9079,791.1038 734.5402,781.7934 741.5732,771.5521 748.3591,759.8836 754.6375,747.1747 760.4365,733.3617 765.8321,718.2506 770.7912,701.893 775.1519,684.7928 778.8776,667.1359 782.0004,648.683 784.4088,629.9702 786.2336,609.6247 787.3069,589.3988 787.6522,569.024 787.2567,549.088 786.1371,529.7771 784.312,511.2556 781.8223,493.7471 778.5526,476.4098 774.6117,459.9333 770.0365,444.4234 764.8639,429.9857 759.1311,416.726 753.0298,405.0194 746.1892,394.153 740.6532,386.7171 734.6262,379.7691 728.3802,373.6539 721.6571,368.1484 715.044,363.6992 707.9945,359.907 700.7609,356.9451 693.2772,354.7096 685.3883,353.1586 677.1144,352.3522 668.4828,352.3403 659.8997,353.1098 651.028,354.6714 641.7887,357.064 632.3192,360.2329 623.1282,363.9814 614.899,367.8887 606.268,372.533 597.9409,377.5294 588.9461,383.4565 580.3428,389.6226 571.9125,396.1589 563.4114,403.266 555.0966,410.732 544.9742,420.5011 535.6108,430.2862 526.4986,440.614 517.3672,451.7815 503.8497,470.1204 478.127,508.6907 471.375,517.25 465.7957,522.3863 463.1507,524.1319 460.4436,525.4404 457.8739,526.1929 454.8109,526.5486 451.7144,526.4408 448.6944,525.8426 442.6487,523.3166 436.3981,519.2963 428.6846,512.613 421.2026,504.9105 412.7143,494.735 403.7881,482.9627 393.5239,468.1443 383.1851,452.2229 372.9306,435.1852 359.6401,412.0834 349.0001,392.5551 335.24,366.3651 321.5139,339.3935 308.2053,312.3933 291.4416,277.1862 285.4188,263.3426 287.6789,266.5915 300.5568,288.4324 318.5783,317.46 334.9355,342.1268 350.0948,363.8287 365.9642,385.0657 383.8471,407.9769 403.5218,431.9518 426.302,459.005 442.5437,478.9928 453.8563,494.3068 461.036,505.3675 466.9464,516.4901 471.1601,527.2717 472.452,531.8469 473.3051,536.3733 473.8929,541.0379 474.0,545.0 473.6498,548.7997 472.8716,552.0517 471.4443,555.2823 469.8507,557.3712 467.7445,558.8472 465.0271,559.6806 462.2015,559.6806 458.9306,558.9537 455.8611,557.6713 451.8501,555.4271 445.458,550.4804 436.3607,541.6525 426.9566,530.7152 417.4613,518.4261 405.6646,501.3605 395.8919,486.3357 384.2578,467.0469 372.6285,447.0072 361.336,426.4859 346.2194,397.8475 332.7656,371.3594 304.5804,313.3877 283.0547,267.3518 269.9673,238.1128 292.2685,277.9997 307.8946,304.009 328.783,336.4874 349.4353,365.898 369.4476,392.5511 389.8225,417.6 409.0889,440.0573 450.4325,486.0894 463.3699,501.4986 469.6546,509.4786 474.4687,516.168 480.3976,525.1292 484.8117,532.6923 488.9783,541.1295 492.0286,548.3405 495.2084,557.7456 497.2514,565.3366 498.9844,574.5625 499.875,581.625 500.4773,592.4281 500.3178,602.1617 499.3906,611.4844 498.0807,617.9125 496.3084,623.4427 493.6389,628.2454 490.7315,631.1713 487.6435,632.5433 485.8769,632.781 483.6423,632.6499 479.361,631.3984 475.6266,629.3895 470.525,625.7585 466.5423,622.2801 461.854,617.5699 452.2336,606.691 438.9238,589.1188 427.2551,571.8815 413.1678,549.5549 399.9178,526.7979 383.6694,497.4783 368.694,469.0939 352.9181,437.9454 337.5535,406.4229 320.0897,369.4705 292.8281,309.75 245.8476,202.7027 235.3023,179.5937 244.8489,201.0512 259.4794,230.7448 273.4908,257.2046 288.7407,284.196 303.9638,309.5357 318.6806,332.5134 334.6367,355.8307 351.3847,378.7955 366.0135,397.7059 380.3369,415.1049 395.73,432.652 412.0608,450.1738 425.3878,463.7418 439.852,477.7151 485.864,519.8061 496.8302,530.1651 508.2554,541.6448 517.9257,552.5061 523.7861,559.6692 528.5535,566.1165 534.2198,574.7727 539.2612,583.2037 548.398,600.716 563.2297,632.7351 572.8473,652.1151 583.0378,669.9219 590.9547,681.5118 597.5288,689.998 603.5625,696.9062 611.4087,704.8315 617.6975,710.3334 624.7527,715.4329 632.5904,720.0555 639.2475,723.0607 645.8265,725.1386 652.5852,726.4341 659.1947,726.8784 665.4052,726.4202 671.7364,725.0712 678.1211,722.7866 684.2562,719.6456 689.9386,715.7625 695.5461,710.9128 700.7387,705.3958 705.7376,698.9784 710.5468,691.6024 715.1807,683.2215 719.2119,674.6507 722.9248,665.3404 726.1276,655.7433 729.1071,644.9687 731.7255,633.4826 733.8965,621.4767 735.4679,609.8537 736.5358,597.9743 737.0921,585.1788 737.1061,572.4845 736.5764,559.8598 735.5277,547.816 733.9367,536.0961 731.8427,525.012 729.1507,513.9287 726.0871,503.8186 722.5741,494.3704 718.7757,485.9854 714.5736,478.3733 709.8906,471.3179 705.9408,466.251 701.5642,461.439 697.2914,457.4558 692.6057,453.8122 687.7872,450.7838 682.8196,448.3286 677.7174,446.4127 672.5669,445.0556 667.3843,444.238 661.8142,443.9384 656.2457,444.212 650.2316,445.0876 644.3222,446.4793 638.5317,448.355 632.5153,450.8435 626.6452,453.8058 620.3774,457.5407 614.4358,461.6243 608.4953,466.2773 602.8479,471.2649 597.0864,476.9579 591.8916,482.6988 586.853,488.9046 581.9755,495.5872 577.4766,502.4286 573.3781,509.4187 569.4036,517.0714 565.7914,524.9293 562.7348,532.4817 559.9951,540.3037 557.5635,548.5152 555.647,556.3838 553.0755,571.5184 551.8843,586.4861 551.938,601.299 553.3923,617.1427 555.8677,631.4428 559.6254,646.2486 564.9336,661.6783 571.0005,675.6947 578.2726,689.3981 587.3437,703.5013 596.338,715.1343 606.1898,725.7451 611.4861,730.5975 616.7959,734.9567 622.6827,739.2808 627.8079,742.5884 633.1587,745.5319 638.3629,747.9282 643.7288,749.9397 649.1809,751.5173 656.4042,752.756 663.8909,752.9932 671.5624,752.1502 678.8792,750.2947 685.8209,747.4444 692.4726,743.6208 698.7724,738.9266 704.9826,733.1571 711.0424,726.2717 716.6944,718.5602 722.1395,709.7642 727.128,700.2773 731.6289,690.229 735.7101,679.4907 739.4613,667.7484 742.7024,655.5819 745.654,641.9974 748.0033,628.21 749.75,614.375 750.9957,599.7241 751.6758,584.8512 751.7631,570.2975 751.2521,555.8307 750.1508,541.9679 748.4324,528.4441 746.103,515.1112 743.219,502.3595 739.9048,490.6498 736.0929,479.6837 731.9364,469.8608 727.0273,460.3079 721.8083,451.8288 717.1974,445.4848 712.1222,439.5438 706.8293,434.3541 701.3407,429.9295 695.3123,426.065 689.2593,423.0461 683.121,420.762 676.5536,419.1057 669.9421,418.1925 662.9446,417.9887 655.8565,418.5199 648.4377,419.7883 641.1719,421.7188 633.7135,424.3964 626.4365,427.6762 618.6248,431.902 610.8401,436.8007 603.4813,442.109 596.2353,448.0292 588.8713,454.7904 581.7954,462.0224 575.0416,469.7021 568.6316,477.8253 563.1293,485.6257 557.431,494.6759 551.6124,504.9683 547.5245,513.1178 543.5765,522.1252 539.6492,532.2694 536.6472,541.4298 533.4037,553.519 531.4434,562.7363 528.8269,580.3267 527.5478,599.998 527.8102,618.3968 529.718,637.3411 532.6629,654.4061 537.5736,673.182 543.7674,690.8133 548.875,702.625 552.4027,709.9066 562.6521,728.2216 568.2356,736.8495 574.6378,745.9902 580.3132,753.3004 586.842,760.951 593.3729,767.9981 599.9896,774.4545 607.4347,780.9986 615.0933,787.0735 621.5225,791.5916 627.9776,795.5334 635.0951,799.2383 642.5509,802.4423 649.5735,804.8128 656.4111,806.4265 666.1586,807.5509 675.4775,807.3183 684.4449,805.825 693.1655,802.9881 701.6724,798.8065 709.8917,793.3419 718.0908,786.3634 725.7601,778.2599 733.0912,768.8083 740.0101,758.1377 746.4636,746.3733 752.5851,733.2305 758.1323,719.1908 763.1966,704.0585 767.6919,688.1359 771.6645,671.2355 775.1149,653.0841 777.8292,634.5778 779.7774,616.0154 781.0839,596.3257 781.6592,576.3871 781.4858,556.809 780.5807,537.8002 778.9226,519.1778 776.6068,501.8992 773.5467,485.0581 769.8235,469.0418 765.3555,453.581 760.2647,439.1901 754.7338,426.2795 748.6804,414.5805 741.9423,403.8654 736.3726,396.4299 730.2977,389.5211 723.994,383.4792 717.491,378.2868 710.8182,373.9267 703.706,370.2454 696.5167,367.4394 688.6506,365.2745 680.7557,363.9591 672.4834,363.4274 664.2407,363.6944 655.689,364.7534 646.875,366.625 637.6374,369.356 628.3216,372.85 618.9621,377.086 610.5816,381.4716 601.8392,386.6114 592.9717,392.382 584.4167,398.4974 576.042,405.0324 567.6035,412.189 559.3362,419.7736 551.3519,427.662 542.554,437.0814 533.9691,447.1075 525.4839,457.8999 517.4273,469.0459 510.63,479.172 504.0658,489.6981 483.4179,525.5106 476.8693,534.8546 472.1173,539.8072 469.9132,541.4677 467.3414,542.8857 464.6084,543.8968 462.0789,544.4291 459.4844,544.5 456.3486,544.0502 453.0286,543.0915 449.5859,541.5238 445.598,539.0888 441.2544,535.9246 433.9833,529.3297 424.597,519.1891 415.7105,508.2162 405.6504,494.3805 395.6225,479.3241 383.5069,459.9679 371.7344,439.9219 356.8377,413.2363 346.0284,393.0198 333.3823,368.4289 319.6367,340.8344 298.9012,297.7856 280.0254,257.3541 276.4241,248.6514 296.4397,283.4956 314.5,313.0"/>
  </g>
</svg>
