<?xml version="1.0" encoding="utf-8" ?>
<svg xmlns="http://www.w3.org/2000/svg" xmlns:cc="http://creativecommons.org/ns" xmlns:dc="http://purl.org/dc/elements/1.1/" xmlns:ev="http://www.w3.org/2001/xml-events" xmlns:inkscape="http://www.inkscape.org/namespaces/inkscape" xmlns:rdf="http://www.w3.org/1999/02/22-rdf-syntax-ns" xmlns:sodipodi="http://sodipodi.sourceforge.net/DTD/sodipodi-0.dtd" xmlns:xlink="http://www.w3.org/1999/xlink" baseProfile="tiny" height="27.09333333cm" version="1.2" viewBox="0 0 1024.0 1024.0" width="27.09333333cm">
  <metadata>
    <rdf:RDF>
      <cc:Work>
        <dc:format>image/svg+xml</dc:format>
        <dc:source>vpype read './original_svgs/Strange Attractors #57.svg' linemerge linesimplify write './Strange Attractors #57.svg'
</dc:source>
        <dc:date>2024-08-05T01:35:22.456633</dc:date>
      </cc:Work>
    </rdf:RDF>
  </metadata>
  <defs/>
  <g fill="none" id="layer1" inkscape:groupmode="layer" inkscape:label="1" stroke="black" stroke-width="0.7mm" style="display:inline">
    <polyline points="729.375,622.125 631.25,514.875 598.875,476.75 576.25,445.75 561.875,420.0 554.625,397.75 553.25,377.375 557.25,357.875 566.375,338.5 580.5,318.375 599.875,297.25 624.75,275.0 655.125,252.0 690.5,229.625 729.625,209.875 770.0,195.875 807.5,191.5 837.625,199.875 856.375,222.125 862.5,256.75 857.125,299.5 843.75,345.625 826.25,390.5 807.75,431.625 790.5,467.375"/>
    <polyline points="775.5,497.625 753.5,542.625 732.625,587.125 729.875,591.625 727.25,594.25 724.625,595.25 721.875,594.875 718.625,593.25 715.0,590.75 710.75,587.375 689.75,569.0 671.125,554.25 658.625,545.375 652.5,541.375 640.75,534.375"/>
    <polyline points="635.125,531.375 624.5,526.25 614.75,522.25 601.5,518.0 590.125,515.5 583.375,514.5 574.25,513.75 569.0,513.625 559.625,513.875 552.0,514.625"/>
    <polyline points="550.25,514.875 542.875,516.125 536.125,517.875 531.875,519.375 529.125,520.625 526.5,522.25"/>
    <polyline points="526.0,522.625 524.125,524.375 522.25,527.0 521.5,528.625 520.5,532.875"/>
    <polyline points="520.375,533.375 519.0,542.625 517.375,547.125 516.5,548.375"/>
    <polyline points="516.125,549.0 512.875,551.625 509.75,552.875 507.125,553.5 503.75,553.75 494.5,552.875 488.125,551.5 480.375,549.375 471.0,546.25 453.625,539.375"/>
    <polyline points="447.0,536.375 432.25,529.625 416.375,521.75 400.25,513.25 385.125,504.875 372.75,497.625 361.75,490.625 360.375,489.25 363.375,490.25 387.625,501.125 397.375,505.0"/>
    <polyline points="402.125,506.75 415.75,511.0 424.125,513.0 435.375,514.75 442.0,515.25 448.0,515.375 458.25,514.75 466.75,513.375 475.125,511.0"/>
    <polyline points="476.5,510.5 482.75,507.875 487.5,505.125 489.75,503.375 492.25,500.875 494.25,498.375 495.875,495.625"/>
    <polyline points="496.125,494.875 497.875,490.25 498.875,485.75 501.375,468.5"/>
    <polyline points="501.625,466.875 504.125,455.5 508.375,443.0 514.375,430.125 518.875,422.25 528.375,408.375 537.125,397.125 542.5,390.875 555.75,377.0"/>
    <polyline points="563.75,369.25 583.25,352.25 594.875,343.125 607.875,333.75 622.125,324.375 637.625,315.25 654.0,306.75 671.0,299.625 688.0,294.375 704.25,291.625 719.125,292.0 731.5,296.0 741.0,303.75 746.875,315.0 749.25,329.5 748.375,346.25 744.5,364.625 738.375,383.375 730.625,402.0 722.0,419.75 712.75,436.375 703.5,451.5 694.5,465.0 685.75,477.0 677.625,487.5"/>
    <polyline points="669.875,496.625 662.75,504.375 650.0,516.875 639.125,525.875 634.25,529.375 625.5,534.875 618.0,538.875 608.5,543.0 589.125,550.125 584.875,552.25"/>
    <polyline points="583.75,552.875 579.75,555.875 577.75,558.5 576.5,561.25 575.875,564.5 575.875,566.75 577.0,572.0 578.0,574.875 581.375,581.25"/>
    <polyline points="582.5,583.125 588.375,591.0 592.375,595.5 603.25,606.125 610.75,612.375 619.875,619.375 638.25,632.0 664.25,647.375 687.25,659.125 700.625,665.5 715.375,671.75 731.125,677.875"/>
    <polyline points="747.625,683.375 764.375,687.75 780.5,690.5 794.875,690.625 806.25,687.5 813.5,680.375 815.625,669.0 812.125,653.625 803.5,634.875 790.625,613.75 774.75,591.5 757.375,569.25 739.875,548.0 707.5,510.625 643.625,438.75 635.625,430.375 630.125,425.125"/>
    <polyline points="627.875,423.5 626.0,422.25 622.75,421.125 621.375,421.125 618.625,421.75 616.0,423.125 613.375,425.125 600.125,435.875 595.25,439.25 590.625,442.0"/>
    <polyline points="589.0,442.875 584.5,445.0 580.25,446.5 574.0,447.875 570.75,447.875 568.0,447.5 565.75,446.5 564.0,445.0 563.125,443.75"/>
    <polyline points="562.875,443.0 562.25,440.5 562.375,437.5 562.875,435.125 564.875,429.875 567.5,425.125 574.25,416.25 579.875,410.375 584.25,406.375"/>
    <polyline points="586.75,404.375 591.875,400.375 597.5,396.625 606.625,391.625 612.75,389.125 618.75,387.5 621.625,387.0 626.875,387.0 629.25,387.5 631.375,388.375 633.125,389.5 634.625,390.875 635.75,392.625 636.625,394.75 637.125,397.0 637.25,399.625 637.0,402.5 635.5,408.5"/>
    <polyline points="634.375,411.75 629.25,421.75 624.75,428.25 617.125,437.375 608.875,445.5 600.5,452.25 592.25,457.75 582.0,463.25 572.875,467.0"/>
    <polyline points="570.75,467.75 564.75,469.375 557.75,470.5 554.625,470.75 550.5,470.625 545.75,469.75 543.75,469.0 541.125,467.5 538.375,464.875"/>
    <polyline points="537.875,464.125 536.125,460.375 535.375,455.875 535.75,450.125 536.5,446.875 537.5,443.125 540.0,436.875 543.75,429.625 549.125,421.25"/>
    <polyline points="551.375,418.125 559.625,408.0 566.75,400.375 575.25,392.25 580.125,388.0 591.0,379.375 597.0,375.0 610.25,366.5 624.5,359.0 632.0,355.875 639.375,353.375 646.625,351.5 653.5,350.625 660.0,350.5 665.875,351.625 670.875,353.625 675.0,356.875 678.0,361.25 680.0,366.5"/>
    <polyline points="680.75,372.625 680.625,379.625 679.375,387.0 677.125,394.875 674.25,402.75 670.625,410.875 666.5,418.75 662.0,426.375 652.125,440.625 641.75,453.125 636.625,458.625 626.5,468.375 616.875,476.5 607.875,483.0 599.5,488.375 591.75,492.75 581.5,497.75"/>
    <polyline points="578.25,499.125 567.0,503.375 557.75,506.375 533.125,512.875"/>
    <polyline points="532.25,513.125 524.75,515.625 522.125,516.875 519.625,518.625"/>
    <polyline points="519.5,518.875 518.625,519.75 517.5,521.75 516.875,525.875"/>
    <line x1="516.75" x2="516.875" y1="526.125" y2="537.625"/>
    <polyline points="516.875,538.25 516.125,543.0 514.125,547.25 511.125,549.875 509.5,550.75 506.0,551.75"/>
    <polyline points="504.625,551.875 501.375,552.125 494.875,551.625 486.125,549.875 474.5,546.375 459.375,540.875 440.75,532.75 419.25,522.375 404.5,514.625 384.5,503.5"/>
    <polyline points="379.0,500.25 370.875,495.25 366.375,491.875 368.375,492.25 394.125,503.125 407.75,508.0 416.5,510.625 424.625,512.625 432.25,514.0 439.125,514.875"/>
    <polyline points="442.375,515.125 451.25,515.5 458.875,515.125 467.5,514.125 478.875,511.375 483.875,509.625 487.875,507.75"/>
    <polyline points="488.75,507.25 491.875,505.375 495.875,501.875 498.625,497.875 500.25,493.375"/>
    <polyline points="500.5,492.75 501.875,484.5 502.875,474.5 504.125,465.625"/>
    <polyline points="504.5,464.0 506.75,454.25 509.125,447.125 512.5,438.75 517.625,428.625 525.125,416.375 532.125,406.75 541.25,395.5 553.125,382.625 568.375,367.875"/>
    <polyline points="577.625,359.875 588.0,351.375 599.5,342.625 612.375,333.75 626.25,324.875 641.25,316.5 656.875,308.875 673.0,302.75 688.875,298.375 703.875,296.625 717.25,297.875 728.375,302.375 736.625,310.5 741.625,321.75 743.375,335.75 742.0,351.75 738.125,369.0 732.25,386.625 724.75,404.125 716.5,420.875 707.75,436.5 698.875,450.75 690.125,463.5 681.75,474.875 673.75,484.875 666.25,493.625"/>
    <polyline points="659.125,501.125 652.625,507.625 640.875,518.0 630.75,525.625 622.0,531.125 614.375,535.125 607.625,538.25 588.125,545.625 579.0,549.875"/>
    <polyline points="577.875,550.625 574.875,552.875 572.625,555.375 571.125,558.125 570.25,561.25 570.0,565.75 570.625,569.625 571.375,572.375 574.0,578.625"/>
    <polyline points="574.875,580.25 578.0,585.75 580.75,589.75 588.125,599.0 599.125,610.25 611.125,620.625 616.25,624.625 628.5,633.625 635.875,638.625 654.0,650.125 677.875,663.75 692.5,671.375"/>
    <polyline points="709.0,679.5 727.625,687.875 748.125,696.25 770.0,704.125 792.5,710.5 814.25,714.25 833.125,714.125 846.875,708.5 853.25,696.375 851.25,677.75 840.75,653.25 823.375,624.75 801.75,594.375 778.5,564.125 716.75,487.0 701.75,467.25 689.75,450.375 680.5,436.25 673.5,424.375 668.5,414.75 665.125,406.875 663.0,400.625 661.75,395.875 661.25,392.5"/>
    <polyline points="661.0,390.25 661.25,389.0 660.625,393.375 659.75,396.25 658.625,399.5 655.125,407.25 647.25,420.5 640.75,429.375 633.625,437.875 622.375,449.25 614.75,455.875 607.375,461.5 600.25,466.375"/>
    <polyline points="596.75,468.5 584.0,475.375 570.25,481.125 560.875,483.875 553.0,485.625 547.875,486.375 540.625,486.75"/>
    <polyline points="539.375,486.625 534.75,486.25 530.125,485.0 527.75,483.875 524.0,480.875 522.125,478.25 521.0,475.875"/>
    <polyline points="520.75,475.0 519.875,472.25 519.25,465.25 520.0,457.875 521.125,452.5 523.125,446.25 526.125,438.875 528.875,433.25"/>
    <polyline points="530.5,430.25 536.875,420.0 542.625,412.125 549.875,403.25 559.0,393.375 564.375,388.0 577.0,376.5 592.25,364.25 600.875,358.0 610.25,351.75 620.375,345.625 630.875,340.0 641.75,334.875 652.875,330.625 663.75,327.5 674.25,325.875 684.0,325.875 692.5,327.75 699.625,331.625"/>
    <polyline points="704.875,337.375 708.25,345.0 709.75,354.25 709.5,364.75 707.375,376.25 703.875,388.125 699.25,400.25 693.75,412.125 687.5,423.625 681.0,434.375 667.375,453.875 660.625,462.25 647.625,476.75 635.5,488.25 624.625,497.125 614.625,504.125 605.875,509.625 594.25,515.5"/>
    <polyline points="590.75,517.125 584.5,519.875 556.625,530.25 549.25,533.875 545.625,536.375"/>
    <polyline points="544.875,537.0 541.125,541.0 538.625,545.5 537.125,549.5 535.125,556.625"/>
    <polyline points="534.875,557.5 533.75,560.25 532.125,562.875 528.75,566.0 526.25,567.125 522.875,568.0 515.75,568.375 508.875,567.5 499.875,565.5 480.875,559.25 472.75,556.0"/>
    <polyline points="463.5,552.125 441.5,542.125 428.75,535.875 414.875,528.75 384.875,512.625 340.5,486.75 318.625,473.0 307.0,465.25 356.0,496.625 363.125,501.0 376.375,508.25"/>
    <polyline points="382.375,511.25 393.0,515.875 402.25,518.875 410.25,520.625 420.375,521.375 426.25,521.0 431.625,520.25 438.5,518.375 444.625,516.0 451.375,512.5 454.25,510.625"/>
    <polyline points="455.625,509.75 461.5,505.0 464.375,502.0 466.75,498.875 470.25,492.5 471.5,489.0 472.875,482.75"/>
    <polyline points="473.125,481.375 473.875,472.5 474.5,457.375 476.0,444.625 478.125,435.125 482.125,423.25"/>
    <polyline points="484.125,418.5 489.375,407.875 497.25,394.875 509.0,378.5 516.875,368.75 526.5,357.875 538.25,345.375 552.625,331.375 570.125,315.5 591.125,298.0 616.25,278.75 645.625,258.625 679.25,238.5 716.125,220.25 754.0,206.75 790.0,201.25 819.875,206.5 840.375,224.25 849.5,253.5 847.625,291.25 837.5,333.5 822.25,375.875 805.0,415.625"/>
    <polyline points="788.125,451.125 772.75,481.625 727.75,568.875 720.0,582.625 717.0,586.5 714.25,589.0 711.5,590.0 708.75,589.875 705.75,588.875 702.5,587.0 694.875,581.625 686.0,574.5 665.75,559.125 650.0,548.625"/>
    <polyline points="644.75,545.625 634.75,540.125 620.75,533.75 612.25,530.625 600.625,527.25 587.25,524.875 581.375,524.375 571.125,524.125 560.875,525.0"/>
    <polyline points="559.0,525.375 552.75,526.625 544.375,529.625 540.875,531.625 538.75,533.25 536.375,535.5 535.0,537.375"/>
    <polyline points="534.5,538.0 531.875,543.375 528.5,553.5 526.625,556.625"/>
    <polyline points="526.125,557.375 522.875,560.125 519.125,561.625 515.75,562.25 511.5,562.375 505.875,561.875 498.625,560.625 494.25,559.5 483.875,556.375 463.125,548.375 445.125,540.5 424.0,530.25"/>
    <polyline points="412.375,524.25 388.125,511.25 364.5,497.75 337.75,481.5 328.5,475.25 332.375,477.125 353.875,489.625 373.375,500.25 391.375,508.5 396.75,510.625 406.625,513.75"/>
    <polyline points="411.125,515.0 419.375,516.5 426.625,517.25 433.125,517.375 441.625,516.5 448.75,515.0 456.75,512.25 464.5,508.25 469.5,504.75"/>
    <polyline points="470.625,503.875 474.375,500.25 476.625,497.375 479.125,493.375 480.625,490.125 482.25,485.5 484.25,476.0"/>
    <polyline points="484.5,474.5 485.75,466.0 488.875,450.625 492.625,438.75 495.5,431.625 499.5,423.25 504.875,413.5 508.375,408.0 517.25,395.375"/>
    <polyline points="523.0,388.125 529.625,380.125 546.875,361.5 570.875,339.125 586.0,326.375 603.5,312.875 623.5,298.75 645.875,284.5 670.5,271.0 696.5,259.375 722.875,250.875 747.625,247.375 769.25,250.125 785.625,259.875 795.625,276.75 798.875,299.5 796.125,326.5 788.625,355.625 778.0,384.875 765.625,412.875 752.75,438.375 740.25,461.125 728.625,480.875 718.0,497.75"/>
    <polyline points="708.625,512.0 693.125,533.625 681.125,548.0 671.875,557.25 664.25,562.875 657.875,566.0 655.0,566.875 649.625,567.625 644.625,567.5 639.875,567.0 623.0,563.375"/>
    <polyline points="621.125,563.125 617.5,562.5 612.625,562.125 608.25,562.125 603.5,563.0 600.0,564.75 598.25,566.625 597.0,569.75 597.0,571.625"/>
    <polyline points="597.125,572.625 597.25,573.75 598.5,577.25 601.875,582.625 604.25,585.75 607.375,589.125 613.25,594.75 621.125,601.125 631.25,608.25 639.625,613.5 649.375,618.875"/>
    <polyline points="654.75,621.75 660.5,624.625 673.0,630.125 686.75,635.25 700.875,639.25 707.75,640.5 714.375,641.125 720.5,641.125 725.75,640.0 730.0,638.0 733.0,634.875 734.75,630.625 734.75,625.25 733.375,618.75 730.375,611.375 726.0,603.25 720.375,594.75 713.75,585.75 706.375,576.75 698.5,568.0 682.125,551.375 673.875,543.875"/>
    <polyline points="665.875,536.875 650.625,524.875 636.625,515.375 624.25,508.125 613.25,502.625 599.0,497.25 594.75,495.875 586.875,494.0 576.75,492.25 570.75,491.625 556.25,491.0"/>
    <polyline points="554.125,491.0 545.25,490.875 535.75,490.25 528.875,488.75 524.5,486.625"/>
    <polyline points="523.875,486.25 520.25,482.5 518.125,478.125 517.375,475.5 516.75,471.375 516.75,465.125"/>
    <polyline points="516.875,463.625 518.125,455.5 520.5,447.25 524.75,437.125 531.75,424.5 536.875,417.0 543.25,408.5 551.375,399.0 561.625,388.25"/>
    <polyline points="567.625,382.375 581.875,370.0 590.0,363.5 608.75,350.125 630.25,337.5 641.75,332.0 653.5,327.25 665.25,323.75 676.5,321.625 687.0,321.375 696.125,323.25 703.875,327.125 709.625,333.25 713.25,341.375 714.875,351.125 714.375,362.375 712.25,374.625 708.375,387.375 703.375,400.25 697.5,412.875 690.875,425.0 684.0,436.375 676.875,446.875"/>
    <polyline points="669.75,456.625 656.0,473.125 643.125,486.375 631.5,496.625 621.0,504.625 611.625,510.75 595.875,519.125 580.625,525.5 567.125,530.375"/>
    <polyline points="565.375,531.0 555.125,535.625 550.125,538.875 545.875,543.125 544.375,545.375 542.875,548.75"/>
    <polyline points="542.5,549.5 539.5,561.875 537.5,566.875 536.25,568.75 534.5,570.5 532.25,572.0 530.75,572.625"/>
    <polyline points="529.0,573.125 527.0,573.5 522.0,573.75 518.75,573.5 510.75,572.25 499.75,569.375 485.125,564.25 465.5,556.25 440.125,544.375 408.625,528.375 372.5,508.375 336.125,487.0 306.5,468.375 288.0,456.125"/>
    <polyline points="289.375,457.0 351.375,501.0 365.25,510.125 377.0,517.0 386.875,521.75 395.25,524.75 399.0,525.75 405.75,526.75 411.875,527.0 417.375,526.5 422.5,525.5"/>
    <polyline points="424.875,524.875 431.5,522.625 437.5,520.0 447.375,514.25 452.875,510.25 456.25,507.25 459.25,504.25 461.625,501.25"/>
    <polyline points="462.375,500.125 464.375,497.0 465.875,493.75 467.875,486.875 468.625,480.375 468.375,468.125"/>
    <polyline points="468.25,466.375 467.5,452.25 468.0,438.75 469.0,432.125 470.625,424.5 473.5,415.5 478.125,404.625 485.625,391.125 490.75,383.125 497.25,374.0 505.375,363.5"/>
    <polyline points="515.5,351.375 528.25,337.5 544.25,321.375 564.25,303.0 589.0,281.875 619.25,258.5 655.75,233.25 698.0,208.0 744.625,185.625 792.25,170.5 835.25,167.875 867.625,181.875 884.75,213.25 886.0,258.375 874.625,311.0 855.875,364.75 834.75,414.875 783.625,526.125 773.5,550.375 766.25,569.25 761.375,583.75 756.0,601.75 754.25,606.125"/>
    <polyline points="752.375,608.0 750.125,607.75 747.0,605.375 743.0,601.5 725.125,582.625 717.5,575.125 709.5,567.375 692.625,552.0 675.625,538.125 659.75,526.25 652.25,521.125 645.0,516.625 638.25,512.625 625.875,506.125 620.125,503.5 609.75,499.375 596.125,495.375"/>
    <polyline points="592.125,494.5 581.25,492.75 569.125,491.75 542.75,491.625 536.25,491.25"/>
    <polyline points="535.125,491.125 530.0,490.25 526.75,489.25 524.625,488.125 522.75,487.0 520.75,485.0 518.25,481.25"/>
    <polyline points="518.0,480.5 516.25,474.375 515.875,469.875 516.0,464.625 517.25,456.625 518.75,450.75 520.25,446.375"/>
    <polyline points="521.125,443.875 526.25,432.875 530.0,426.375 534.75,419.0 540.875,410.75 548.5,401.375 558.25,390.875 570.375,379.125 577.5,372.875 594.125,359.625 603.625,352.875 613.875,346.125 624.875,339.625 636.375,333.625 648.25,328.375 660.125,324.125"/>
    <polyline points="671.875,321.25 683.0,320.0 693.125,320.75 701.625,323.75 708.5,328.875 713.25,336.25 715.875,345.5 716.375,356.375 714.875,368.375 711.625,381.125 707.125,394.25 701.375,407.25 695.0,419.75 688.125,431.75 681.0,442.75 673.75,453.0 666.625,462.25 659.625,470.625 646.5,484.625 640.375,490.5 629.0,500.125 614.125,510.5"/>
    <polyline points="609.75,513.125 594.5,521.0 582.375,526.0 568.625,531.0 560.375,534.375 553.25,538.375"/>
    <polyline points="552.25,539.0 549.0,541.75 545.625,546.375 543.5,551.375 541.625,560.125"/>
    <polyline points="541.375,561.125 539.625,567.375 538.5,569.375 536.25,572.125 532.375,574.375 526.25,575.5 520.125,575.25 516.375,574.75 506.5,572.625 493.125,568.375 484.75,565.25"/>
    <polyline points="475.125,561.375 463.875,556.625 436.75,543.75 402.875,526.25 384.0,515.875 344.75,493.125 326.25,481.875 296.625,463.125 281.875,453.125 290.625,459.25 351.125,503.875 364.625,513.125"/>
    <polyline points="370.5,516.75 380.625,522.375 389.25,526.125 396.625,528.25 400.0,528.875 406.25,529.375 414.625,528.75 422.125,527.0 428.875,524.625 433.0,522.75 442.125,517.875"/>
    <polyline points="443.75,516.875 451.125,511.875 459.0,504.875 463.0,499.75 464.875,496.625 467.125,491.0"/>
    <polyline points="467.5,489.875 468.5,485.0 469.0,479.75 469.0,472.375 468.25,457.75 468.125,448.5"/>
    <polyline points="468.25,445.875 469.125,437.0 470.25,430.125 473.875,417.5 478.25,407.0 481.375,400.875 485.125,394.0 490.0,386.375 496.0,377.625 503.5,367.625 512.875,356.25 524.625,343.125 539.375,328.0 557.75,310.625 580.375,290.75 608.25,268.5 642.0,244.25 681.5,219.25 726.0,195.875 772.75,178.0"/>
    <polyline points="817.25,170.5 853.5,177.75 876.375,202.0 883.625,241.375 877.0,290.75 861.0,343.625 840.75,394.625 820.25,440.5 786.75,512.25 775.0,538.5 766.375,559.375 760.375,575.625 753.625,596.5 751.5,602.25 749.625,605.5 747.625,606.375 744.875,605.25 741.5,602.375 719.0,579.625 703.75,565.0"/>
    <polyline points="695.625,557.625 687.5,550.625 671.25,537.75 656.0,526.75 648.875,522.0 635.5,514.125 623.5,508.125 612.75,503.625 603.125,500.5 594.5,498.25 590.625,497.375 579.875,495.75 570.75,495.0 565.375,494.875"/>
    <polyline points="562.875,494.75 540.5,495.125 533.25,494.875 526.875,493.875"/>
    <polyline points="526.0,493.625 522.625,492.375 519.0,489.75 516.625,486.75 514.625,482.0"/>
    <polyline points="514.5,481.25 514.0,479.5 513.25,472.5 513.625,464.625 514.0,461.5 516.125,452.125 518.5,445.375"/>
    <polyline points="519.5,442.875 521.875,437.375 525.0,431.25 529.0,424.375 534.25,416.625 540.875,407.75 549.375,397.75 560.0,386.5 573.5,373.875 581.375,367.125 590.125,360.125 599.75,353.0 610.25,345.875 621.5,338.875 633.5,332.25 646.0,326.375 658.625,321.375 671.25,317.75"/>
    <polyline points="683.375,315.75 694.375,315.875 704.0,318.375 711.75,323.25 717.375,330.5 720.625,340.0 721.5,351.25 720.25,363.875 717.125,377.375 712.5,391.375 706.625,405.125 699.875,418.5 692.625,431.25 685.25,443.0 677.75,453.75 670.25,463.625 663.125,472.375 656.125,480.125 643.25,493.125 637.25,498.375 626.375,507.0 621.375,510.625 612.25,516.375"/>
    <polyline points="608.0,518.625 600.375,522.625 593.625,525.625 566.375,536.25 559.625,539.625 555.625,542.5"/>
    <polyline points="554.75,543.25 550.875,547.875 548.875,552.25 547.5,558.125 546.75,567.0"/>
    <polyline points="546.625,568.25 545.75,572.875 544.5,576.375 543.125,578.5 541.0,580.375 539.625,581.25 536.0,582.5 530.875,582.875 527.375,582.75 518.5,581.375 505.75,577.875 487.75,571.375 462.75,560.5"/>
    <polyline points="447.125,553.125 429.125,544.125 408.75,533.375 386.25,521.125 362.25,507.375 313.625,478.125 274.625,453.0 256.0,440.25 278.625,457.875 301.0,476.375 350.75,520.625 360.875,529.125 365.25,532.375"/>
    <polyline points="369.125,535.0 376.25,538.75 382.875,540.875 389.125,541.625 395.25,541.375 404.125,539.5 415.75,535.5 426.625,530.75 440.875,523.375"/>
    <polyline points="443.0,522.125 450.875,517.625 463.125,509.25 466.75,506.25 470.75,502.375 475.375,496.375"/>
    <polyline points="476.0,495.25 478.125,491.0 480.75,482.5 484.375,459.0"/>
    <polyline points="484.75,456.75 486.375,449.25 490.125,437.0 495.0,425.375 499.875,416.0 503.0,410.625 511.125,398.375 516.375,391.375 530.0,374.875 538.75,365.375 549.125,354.75 561.375,343.125 575.875,330.25 592.875,316.375 612.625,301.625 635.25,286.25"/>
    <polyline points="660.375,271.25 687.625,257.375 716.0,246.375 743.75,239.875 768.625,239.625 788.75,247.0 802.125,262.5 808.0,285.0 806.875,313.0 800.0,344.0 789.25,375.75 776.375,406.125 762.75,434.125 749.375,459.125 737.125,480.75 726.0,499.125 707.875,527.375 700.625,537.75 694.25,546.25 688.875,553.0 684.125,558.375 676.125,565.75 669.5,569.625"/>
    <polyline points="666.5,570.75 661.0,571.5 658.25,571.375 653.0,570.5 642.75,567.25 625.625,561.125 614.75,558.375 607.125,557.5"/>
    <polyline points="605.5,557.5 600.875,557.625 596.875,558.5 593.625,559.75 590.5,562.125 588.875,564.5 588.125,567.125 588.25,570.375 589.125,574.0"/>
    <polyline points="589.75,575.375 592.875,581.25 598.375,588.25 606.625,596.625 618.875,606.625 627.0,612.5 642.5,622.25 655.25,629.5 670.5,637.125"/>
    <polyline points="679.0,641.125 697.625,648.625 707.5,652.0 717.625,654.875 727.5,657.0 737.125,658.25 745.75,658.25 753.25,656.75 758.875,653.5 762.25,648.375 763.25,641.25 761.625,632.375 757.5,621.75 751.125,610.0 742.75,597.25 733.125,584.25 722.5,571.25 711.375,558.75 700.25,546.875 679.0,525.875 660.0,508.875 643.75,495.875"/>
    <polyline points="636.5,490.75 623.875,482.5 618.25,479.375 608.5,474.5 600.0,471.125 589.5,468.125 583.5,467.0 571.375,465.5 563.75,464.875 557.75,463.875"/>
    <polyline points="556.375,463.625 552.875,462.5 549.875,461.0 547.625,459.125 545.375,455.875 544.25,451.75 544.25,447.875 544.625,445.0 546.0,440.125"/>
    <polyline points="546.625,438.25 549.25,432.25 551.75,427.875 556.75,420.25 558.875,417.5 563.625,411.75 569.375,405.5 580.125,395.375 588.625,388.375 593.375,384.875 603.625,378.125 609.0,374.875 614.625,372.0 620.375,369.25 626.125,367.0"/>
    <polyline points="632.0,365.125 637.625,363.75 643.0,363.0 648.0,363.0 652.625,363.625 656.625,365.125 660.0,367.375 662.75,370.375 664.625,374.125 665.75,378.5 666.0,383.5 665.625,389.0 664.375,394.875 662.625,400.875 660.25,407.125 654.0,419.5 650.25,425.625 642.25,437.0 633.625,447.25 624.875,456.25 616.25,463.875"/>
    <polyline points="612.125,467.25 604.0,473.25 596.375,478.125 589.25,482.125 579.5,486.875 568.25,491.375 561.0,493.75 550.75,496.375 544.0,497.625"/>
    <polyline points="542.5,497.875 534.75,498.75 528.875,498.875 524.875,498.5 520.125,497.125"/>
    <polyline points="519.625,496.875 516.75,494.875 515.0,492.875 513.375,490.0 512.0,485.625"/>
    <polyline points="511.75,484.875 510.875,479.0 510.75,470.0 512.25,459.125 513.75,453.375"/>
    <polyline points="514.375,451.25 516.875,444.125 520.625,435.625 524.125,429.125 528.5,421.875 534.25,413.5 541.625,404.0 551.0,393.25 556.625,387.375 570.125,374.5 578.0,367.5 586.875,360.25 607.375,345.25 619.0,337.875 631.5,330.625"/>
    <polyline points="644.5,324.125 657.875,318.5 671.375,314.25 684.25,311.75 696.25,311.375 706.75,313.5 715.375,318.125 721.625,325.5 725.375,335.25 726.625,347.125 725.375,360.375 722.25,374.75 717.375,389.5 711.125,404.125 704.125,418.25 696.625,431.625 688.75,444.125 681.0,455.375 673.375,465.625 665.875,474.75 658.75,482.75 645.625,496.125 639.625,501.5 628.5,510.375"/>
    <polyline points="623.5,513.875 614.5,519.625 602.75,525.875 596.125,528.875 569.25,539.375 566.375,540.75 561.75,543.625"/>
    <polyline points="560.75,544.375 556.875,548.25 554.75,551.75 554.0,553.625 552.75,559.625 552.75,569.125"/>
    <polyline points="552.875,570.375 553.25,579.875 553.0,582.75 552.0,586.75 550.625,589.25 549.5,590.25 548.25,591.25 544.625,592.875 538.875,593.375 535.0,593.125 530.25,592.375 524.375,591.125 517.125,589.125 508.25,586.25"/>
    <polyline points="497.625,582.125 484.5,576.75 468.75,569.625 450.0,560.625 427.75,549.25 401.875,535.375 372.75,519.0 341.125,500.5 308.625,480.75 277.625,461.0 251.0,443.5 219.125,421.125 235.5,434.5 248.875,446.125 263.0,459.25 276.5,472.625 288.75,485.5 299.125,497.5 308.0,508.375 321.25,526.875 330.625,541.0"/>
    <polyline points="334.375,546.625 341.25,555.125 344.625,558.25 348.125,560.625 351.75,562.25 355.625,563.375 359.625,563.75 363.875,563.75 368.25,563.125 377.375,560.875 386.875,557.5 400.875,551.375 437.0,533.375"/>
    <polyline points="440.375,531.75 457.25,523.875 487.875,511.0"/>
    <polyline points="488.75,510.5 493.625,508.0 496.125,506.375 499.75,503.0 501.75,499.75"/>
    <polyline points="502.0,499.25 502.625,497.75 503.75,492.5 504.5,481.875"/>
    <polyline points="504.5,480.875 505.25,471.375 507.125,460.25 508.625,454.25 510.875,447.25 515.75,435.875"/>
    <polyline points="517.375,432.625 521.375,425.375 529.75,412.625 533.375,407.75 542.125,397.0 547.5,391.0 560.375,377.625 577.0,362.625 586.75,354.625 597.75,346.25 609.75,337.75 623.0,329.375 637.125,321.25 652.0,313.875 667.25,307.625 682.5,303.25 697.0,301.0 710.125,301.375 721.375,304.875 730.0,311.625"/>
    <polyline points="735.75,321.5 738.375,334.0 738.125,348.625 735.125,364.625 730.125,381.375 723.625,398.25 715.875,414.5 707.625,429.875 699.125,444.0 690.5,456.875 682.25,468.375 674.25,478.625 666.625,487.625 652.875,502.125 646.625,508.0 640.75,513.0 630.25,521.125 617.0,529.375 603.0,536.125"/>
    <polyline points="600.125,537.25 583.875,543.375 578.875,545.5 573.625,548.375 569.0,552.375 567.125,555.0 565.875,557.875"/>
    <polyline points="565.625,558.875 565.125,562.125 565.375,567.0 565.875,569.625 567.625,575.375 569.625,580.25 573.375,587.5 580.375,598.25"/>
    <polyline points="582.25,600.625 588.875,608.75 597.75,618.125 610.375,629.625 615.875,634.125 629.375,644.25 637.75,650.25 647.625,656.75 672.875,672.25 688.875,681.375 707.875,691.375 730.0,702.5 755.625,714.125 784.375,725.875 815.375,736.625 846.625,744.5 874.75,746.875 895.375,740.875"/>
    <polyline points="904.0,724.25 898.375,696.625 879.375,659.875 851.0,618.0 818.625,574.875 786.875,533.875 759.125,497.0 736.625,464.75 719.875,437.25 708.375,414.125 701.5,395.0 698.375,379.25 698.25,366.75 700.25,357.25 703.625,350.5 707.625,346.5 711.625,345.125 715.0,346.375 717.5,350.0 718.75,355.75 718.625,363.25 717.0,372.375 714.0,382.5 709.875,393.25 704.75,404.25 698.75,415.25"/>
    <polyline points="692.375,425.875 685.625,436.0 678.625,445.625 671.625,454.375 664.75,462.375 651.5,476.25 639.125,487.25 633.375,491.875 622.625,499.5 613.0,505.5 608.625,507.875 600.375,512.0 589.5,516.75 572.5,522.75"/>
    <polyline points="570.25,523.5 557.0,528.0 550.25,530.875 544.25,534.375 539.625,538.75"/>
    <polyline points="539.125,539.5 537.75,541.5 536.25,544.5 532.5,556.0 530.75,559.5"/>
    <polyline points="530.125,560.25 528.875,561.875 526.0,564.0 523.375,565.125 520.0,565.875 515.5,566.125 509.625,565.625 497.25,563.0 485.875,559.5 471.125,554.0 452.625,546.0 441.875,541.0 417.25,528.75"/>
    <polyline points="403.75,521.625 375.625,506.125 348.875,490.5 328.125,477.75 315.375,469.125 351.0,491.125 365.25,499.5 372.0,503.125 390.0,511.75 400.125,515.5 404.625,516.75"/>
    <polyline points="409.0,517.875 416.75,519.125 423.5,519.5 432.375,519.0 437.5,518.125 444.375,516.125 450.125,513.875 459.375,508.625 464.125,504.875"/>
    <polyline points="465.25,503.875 470.375,498.0 473.875,491.5 476.125,484.375 477.625,474.375"/>
    <polyline points="477.75,472.75 479.375,457.5 480.5,450.25 483.375,438.375 485.875,431.125 491.625,418.0 497.625,407.125 501.5,400.75 512.0,386.125"/>
    <polyline points="518.875,377.5 527.0,368.0 537.0,357.25 548.875,345.125 563.25,331.75 580.375,316.875 600.625,300.75 624.25,283.5 651.5,265.75 681.75,248.75 714.125,234.125 746.875,223.875 777.25,220.625 802.5,226.375 819.75,242.25 828.0,267.375 827.25,299.5 819.375,335.5 806.75,372.25 791.875,407.5 776.625,439.375 762.0,467.375 749.0,491.375 737.75,511.375 720.125,541.375"/>
    <polyline points="713.5,552.125 708.0,560.625 703.375,567.125 699.5,572.125 696.0,575.625 692.875,578.125 689.875,579.625 687.0,580.25 684.125,580.25 678.25,578.625 675.25,577.25 647.25,560.75 636.25,555.0 625.625,550.375"/>
    <polyline points="622.25,549.0 615.75,546.75 603.875,543.75 596.0,542.625 591.25,542.375 585.0,542.375 577.875,543.375 573.375,544.625 568.625,546.75"/>
    <polyline points="567.625,547.375 565.75,548.75 563.5,551.0 562.375,552.625 561.0,555.375 560.0,559.375 559.875,565.125 561.25,573.125"/>
    <polyline points="561.625,574.625 563.0,579.25 566.125,587.75 576.25,612.625 577.875,617.25 579.5,624.25"/>
    <polyline points="579.75,626.5 579.25,630.625 578.25,632.375 576.75,633.875 574.375,635.0 570.875,635.5 565.875,635.375 558.875,634.125 549.25,631.375 536.125,626.75 518.25,619.375 494.125,608.25 461.875,592.0 419.375,569.125 365.0,538.125 298.875,498.0 225.0,450.75 153.625,402.0 99.5,362.25 74.5,341.625 79.125,343.75 103.25,364.625 133.75,396.375 161.375,432.25 181.5,468.5"/>
    <polyline points="193.625,503.5 198.625,536.75 198.75,568.0 194.375,622.875 194.5,644.375 198.625,660.25 207.5,669.75 220.75,672.5 237.375,669.25 256.0,661.0 275.0,649.5 293.25,636.0 309.875,621.75 324.5,607.625 336.75,594.25 347.0,582.0 355.125,570.875 361.75,561.0 366.875,552.375 370.875,544.875 380.5,524.125 382.25,520.875"/>
    <polyline points="384.0,518.125 385.75,516.0 389.75,513.125 394.5,511.75 400.0,511.25 412.25,512.375 440.625,516.75 454.25,518.125"/>
    <polyline points="456.625,518.25 465.625,518.875 494.625,519.5"/>
    <polyline points="495.5,519.625 498.5,519.875 503.625,521.0 506.5,522.25 508.25,523.5"/>
    <polyline points="508.5,523.75 509.625,524.75 511.375,527.375 512.25,529.25 513.25,532.75"/>
    <polyline points="513.375,533.25 513.875,536.75 513.75,540.125 513.125,543.0 512.0,545.25 510.75,546.875"/>
    <polyline points="510.25,547.375 506.375,549.5 501.25,550.375 493.625,550.0 485.625,548.5 478.875,546.75 466.375,542.5 450.625,536.25 444.75,533.625"/>
    <polyline points="438.5,530.75 418.625,521.125 399.0,510.75 379.125,499.25 373.875,495.75 372.5,494.375 374.5,494.75 394.125,502.625 406.75,507.125"/>
    <polyline points="411.0,508.5 419.25,510.875 430.75,513.5 437.75,514.625 447.25,515.5 455.5,515.75 464.875,515.25 474.25,514.0 479.0,513.0"/>
    <polyline points="480.375,512.625 486.375,510.875 491.125,509.0 496.0,506.375 498.0,504.875 499.625,503.125"/>
    <polyline points="500.0,502.75 501.0,501.5 502.625,498.125 503.875,492.25 504.125,488.625"/>
    <polyline points="504.25,487.875 504.75,477.375 505.5,469.625 506.5,463.25 508.25,455.75"/>
    <polyline points="508.875,453.625 513.375,441.0 517.875,431.625 524.625,420.25 530.75,411.25 534.5,406.375 538.75,401.0 549.125,389.25 562.625,375.625 570.625,368.25 589.75,352.25 601.0,343.875 613.375,335.375 626.875,327.0"/>
    <polyline points="641.25,319.125 656.25,312.125 671.5,306.375 686.625,302.375 700.75,300.875 713.5,302.125 724.0,306.625 731.75,314.25 736.625,324.75 738.375,338.0 737.375,353.0 733.875,369.375 728.375,386.125 721.375,402.75 713.5,418.875 705.125,433.875 696.625,447.75 688.125,460.25 679.875,471.375 672.0,481.25 664.625,489.875 651.0,503.75 644.875,509.375 633.875,518.375"/>
    <polyline points="628.875,521.875 619.875,527.625 612.125,531.875 602.125,536.375 583.25,543.5 578.375,545.625 574.375,547.875 570.25,550.875"/>
    <polyline points="569.5,551.75 566.875,555.125 565.25,560.125 565.0,563.5 565.125,566.0 566.125,571.25 567.625,575.75 570.5,582.375"/>
    <polyline points="571.375,584.125 574.625,589.875 580.5,598.75 589.0,609.25 598.0,618.75 610.875,630.375 616.375,634.875 630.125,645.125 648.625,657.875 674.375,673.5 690.875,682.875"/>
    <polyline points="710.25,693.125 733.0,704.375 759.125,716.25 788.5,728.125 819.875,738.75 851.375,746.25 879.25,747.875 898.875,740.625 906.0,722.5 898.375,693.25 877.625,655.125 848.0,612.25 815.125,568.875 783.5,527.875 756.125,491.25 734.375,459.375 718.375,432.25 707.75,409.625 701.625,390.75 699.25,375.5 699.75,363.25 702.25,354.125 706.0,347.875 710.25,344.375 714.25,343.625 717.75,345.375"/>
    <polyline points="720.0,349.625 721.0,356.125 720.5,364.25 718.5,373.875 715.125,384.5 710.625,395.625 705.125,407.0 698.875,418.125 692.25,429.0 685.25,439.125 678.125,448.75 671.125,457.5 657.375,472.625 644.5,484.75 638.5,489.75 627.25,498.25 617.25,504.75 612.625,507.5 604.0,512.0 596.25,515.5"/>
    <polyline points="592.75,517.0 583.25,520.625 556.0,530.0 552.0,531.75 545.875,535.375"/>
    <polyline points="545.125,536.0 542.875,537.875 539.625,542.0 536.875,548.125 534.875,555.0"/>
    <polyline points="534.625,555.875 533.625,558.625 532.25,561.25 531.0,563.0 529.375,564.5 525.875,566.5 520.625,567.625 515.75,567.75 512.75,567.5 505.25,566.25 495.375,563.625 482.5,559.375"/>
    <polyline points="474.75,556.375 456.0,548.5 432.875,537.5 419.625,530.875 390.625,515.375 375.5,507.0 346.625,490.125 323.75,476.0 309.25,466.375 313.25,468.625 354.375,495.0 368.625,503.25"/>
    <polyline points="375.125,506.75 386.875,512.5 397.125,516.5 409.875,519.875 417.125,520.75 426.5,520.625 434.375,519.375 439.0,518.125 445.125,515.875 453.5,511.5"/>
    <polyline points="454.875,510.625 457.625,508.75 462.25,504.875 467.5,498.875 469.5,495.75 471.5,491.375 472.375,489.0 473.5,484.0"/>
    <polyline points="473.75,482.75 474.625,475.625 475.625,459.375 477.125,447.25 479.0,438.125 482.625,427.0"/>
    <polyline points="484.25,422.625 486.375,417.875 492.0,407.0 500.25,393.75 512.5,377.25 520.75,367.375 530.625,356.375 542.75,343.875 557.375,329.75 575.125,314.0 596.375,296.625 621.625,277.875 650.875,258.25 684.0,239.125 719.75,222.375 756.25,210.5 790.0,206.75 817.75,213.5 836.125,232.0 843.75,261.125 841.25,298.0 831.0,338.5 816.125,379.25"/>
    <polyline points="799.5,417.375 783.125,451.375 755.25,505.125 723.0,565.25 714.75,578.875 711.5,583.0 708.625,585.625 705.875,587.0 703.0,587.25 700.125,586.75 697.0,585.375 690.0,581.0 668.5,565.125 654.125,555.375"/>
    <polyline points="649.375,552.375 639.875,547.0 626.375,540.375 614.0,535.625 602.875,532.375 593.125,530.5 584.375,529.5 576.875,529.25 566.375,530.125"/>
    <polyline points="564.5,530.375 561.125,531.0 555.375,532.625 549.75,535.125 547.0,536.875 544.75,538.75 542.375,541.375 540.625,544.25"/>
    <polyline points="540.125,545.125 539.125,547.375 536.375,557.125 534.625,561.75 532.875,564.375 530.375,566.75"/>
    <polyline points="529.25,567.5 524.75,569.125 520.5,569.5 514.75,569.375 507.25,568.125 497.125,565.5 490.875,563.5 475.75,558.0 466.5,554.125 444.375,544.125 431.5,537.875 402.25,522.75 386.375,514.0 354.5,495.75 326.625,478.75"/>
    <polyline points="316.0,472.125 302.75,463.25 308.5,466.75 337.125,486.0 353.0,496.25 367.375,504.875 379.875,511.625 390.5,516.5 399.75,519.75 411.375,522.125 417.875,522.5 421.0,522.375"/>
    <polyline points="423.75,522.125 429.125,521.375 436.0,519.5 442.125,517.125 445.75,515.375 449.0,513.625 454.75,509.875 460.5,505.0 464.0,501.0"/>
    <polyline points="464.75,499.875 467.375,495.75 470.125,489.0 471.5,481.375 472.0,475.625 472.125,467.375"/>
    <polyline points="472.125,465.5 472.5,452.875 474.25,439.0 475.875,432.125 478.375,424.125 482.25,414.75 484.875,409.25 488.0,403.25 492.0,396.625 502.75,380.75 510.125,371.25 519.25,360.5 530.375,348.25"/>
    <polyline points="544.0,334.375 560.75,318.625 581.25,300.75 606.125,281.0 635.625,259.75 669.875,238.0 708.25,217.375 748.875,200.875 788.5,191.875 822.75,194.125 847.375,210.0 859.625,239.0 859.375,278.375 849.5,323.375 833.625,369.125 815.375,412.125 797.375,450.5 756.625,532.875 732.875,583.625 729.875,589.375 727.25,593.0"/>
    <polyline points="724.75,594.875 722.125,595.25 719.25,594.375 716.0,592.375 707.875,585.875 692.5,572.5 680.625,562.625 668.375,553.125 650.125,540.75 638.5,534.0 622.625,526.25 613.125,522.5 600.25,518.625"/>
    <polyline points="596.375,517.625 589.125,516.25 579.375,515.0 565.875,514.625 553.5,515.5 545.5,516.75 540.375,518.0"/>
    <polyline points="539.25,518.25 533.625,520.125 530.125,521.75 526.875,523.875 524.0,527.0"/>
    <polyline points="523.75,527.375 522.0,531.375 520.25,540.25"/>
    <polyline points="520.125,540.875 519.25,544.75 518.5,546.625 517.0,549.25 515.25,551.0 512.875,552.5 510.75,553.375 504.75,554.25"/>
    <polyline points="502.875,554.25 495.625,553.5 489.375,552.25 481.625,550.125 466.875,545.0 448.0,537.125 425.125,526.375 400.25,513.5 377.625,500.875 362.625,491.625"/>
    <polyline points="360.0,489.875 358.5,488.375 361.5,489.5 386.125,500.75 396.125,504.75 405.75,508.25 410.375,509.625 419.125,512.0 427.25,513.75 434.625,514.75 447.25,515.375"/>
    <polyline points="450.125,515.25 460.0,514.375 468.0,512.75 473.0,511.25 476.0,510.25 482.125,507.5 485.125,505.75 488.375,503.25"/>
    <polyline points="489.125,502.625 492.125,499.5 494.875,495.25 495.875,493.0 497.125,488.75 498.375,482.875"/>
    <polyline points="498.5,481.75 500.5,468.5 503.375,455.375 506.5,445.625 511.875,433.375"/>
    <polyline points="513.75,429.875 521.0,417.5 527.875,407.75 536.75,396.375 542.25,390.125 555.75,375.875 573.375,359.5 584.0,350.625 596.0,341.375 609.25,331.75 623.875,322.125 639.75,312.875 656.625,304.375 674.0,297.25 691.25,292.0 707.75,289.5 722.625,290.375 735.0,295.0 744.125,303.375 749.625,315.5"/>
    <polyline points="751.5,330.75 750.0,348.25 745.625,367.125 739.0,386.375 730.875,405.25 722.0,423.125 712.625,439.875 703.25,454.875 694.125,468.375 685.375,480.25 677.25,490.5 669.625,499.5 656.0,513.625 650.0,519.25 644.375,524.0 639.25,528.0 630.125,534.25 622.25,538.75 618.625,540.5 606.75,545.5"/>
    <polyline points="604.125,546.375 593.75,550.0 589.0,552.0 583.125,555.5 580.625,557.875 579.0,560.625 578.125,563.625 578.0,566.875"/>
    <polyline points="578.125,568.125 579.375,573.375 580.625,576.375 583.375,581.25 585.75,584.875 592.5,593.125 599.625,600.375 609.25,608.875 617.625,615.5 628.125,622.875"/>
    <polyline points="634.25,627.0 648.75,636.0 657.25,640.875 677.5,651.625 689.125,657.25 702.0,663.125 715.875,668.75 730.625,674.125 745.875,678.875 761.0,682.375 775.375,684.25 788.0,683.625 797.75,680.0 803.625,673.0 805.0,662.125 801.625,647.875 793.625,630.75 781.875,611.5 767.5,591.375 751.75,571.125 735.625,551.75 719.875,533.625 691.75,502.5"/>
    <polyline points="679.875,489.75 660.375,469.25 645.875,454.625 630.875,440.75 624.0,435.375 621.25,433.625 616.5,431.25 614.5,430.5 610.875,430.0 607.75,430.125 604.875,430.75 596.875,434.25"/>
    <polyline points="595.625,434.875 587.25,438.75 581.0,440.5 579.125,440.75 576.0,440.625 574.0,440.0 572.625,438.875"/>
    <polyline points="572.25,438.5 571.375,436.875 571.125,434.0 571.875,430.375 572.75,428.375 574.625,424.875 577.25,421.125 580.625,417.125 584.875,413.0"/>
    <polyline points="586.375,411.625 591.625,407.5 597.375,403.75 601.375,401.625 605.375,399.875 609.375,398.625 613.125,398.0 618.0,398.375 620.5,399.5 621.5,400.375 623.0,402.625 623.5,404.0 623.75,407.25"/>
    <polyline points="623.5,409.125 621.75,415.125 619.75,419.5 615.5,426.0 608.375,434.375 604.5,438.125 596.25,444.625 590.125,448.625 582.375,452.625"/>
    <polyline points="580.5,453.375 577.0,454.75 570.5,456.5 563.5,457.125 559.0,456.5 556.25,455.375 553.5,453.125 552.125,450.75"/>
    <polyline points="551.75,449.875 551.125,446.875 551.5,441.875 552.75,437.25 555.875,430.125 561.25,421.625 564.875,416.875 569.25,411.75 577.375,403.5"/>
    <polyline points="580.5,400.75 587.5,394.875 595.25,389.25 603.875,383.75 613.0,379.0 622.25,375.25 626.875,373.875 631.25,372.875 639.625,372.5 643.25,373.125 646.5,374.25 649.25,376.0 651.5,378.25 653.125,381.125 654.125,384.5 654.625,388.25 654.5,392.375 653.875,396.875 651.0,406.625"/>
    <polyline points="648.875,411.625 643.5,421.625 640.375,426.5 633.625,435.75 626.25,444.125 618.75,451.75 615.0,455.125 604.0,463.875 593.625,470.625 584.125,475.875 575.5,479.75 567.75,482.625"/>
    <polyline points="565.375,483.375 556.75,485.75 544.625,487.625 539.25,487.75 534.625,487.375 529.125,485.875"/>
    <polyline points="528.25,485.625 524.25,483.0 522.625,481.375 520.875,478.625 519.875,476.25 518.875,472.5 518.375,466.75"/>
    <polyline points="518.375,465.5 519.125,458.0 521.625,448.375 525.375,438.75 528.25,433.125 531.875,426.75 539.125,415.75 549.625,402.625 554.0,397.75"/>
    <polyline points="559.0,392.625 564.375,387.125 577.25,375.375 592.875,362.875 611.5,350.125 621.75,344.0 632.5,338.25 643.75,333.125 655.0,328.875 666.125,325.875 676.75,324.25 686.5,324.5 695.125,326.75 702.0,330.875 707.25,337.125 710.375,345.25 711.625,355.0 710.875,365.875 708.5,377.75 704.75,390.0 699.75,402.25 694.0,414.375 687.625,426.0"/>
    <polyline points="680.875,436.875 673.875,447.0 667.0,456.25 660.25,464.625 647.125,479.0 641.0,485.0 629.5,495.0 619.125,502.75 609.875,508.75 601.625,513.375 587.5,520.0 569.375,526.875"/>
    <polyline points="567.375,527.5 555.75,532.125 549.0,535.875 545.0,539.125 542.625,541.875 541.25,544.125"/>
    <polyline points="540.875,544.875 539.125,549.0 536.375,558.875 535.25,561.625 533.75,564.375 531.375,566.875"/>
    <polyline points="530.25,567.625 526.125,569.375 519.625,570.125 513.375,569.625 505.125,568.0 494.125,565.0 487.375,562.625 470.75,556.25 460.75,552.0 436.875,540.75 408.125,526.125 375.875,508.375 359.5,499.0 329.875,481.125"/>
    <polyline points="318.0,473.75 301.0,462.375 349.25,494.5 364.0,503.625 376.875,510.875 382.625,513.75 392.75,518.125 401.5,520.875 409.125,522.375 412.625,522.75 418.875,522.875"/>
    <polyline points="421.875,522.75 429.625,521.5 436.5,519.5 445.875,515.25 450.625,512.5 457.125,507.75 463.0,501.75"/>
    <polyline points="463.75,500.75 467.0,495.5 468.5,492.125 469.625,488.625 471.125,479.625 471.375,468.75"/>
    <polyline points="471.375,467.0 471.75,450.0 472.25,444.625 473.25,438.625 474.75,431.75 477.125,423.75 480.875,414.25 486.75,402.75 490.625,396.0 495.5,388.5 501.5,380.0 508.875,370.5 518.0,359.5"/>
    <polyline points="529.375,347.125 543.25,332.875 560.375,316.75 581.375,298.5 606.875,278.25 637.25,256.375 672.625,234.0 712.125,212.875 754.0,196.125 794.625,187.5 829.25,190.75 853.5,208.375 864.625,239.5 863.125,281.0 851.875,327.625 835.0,374.5 816.125,418.125 798.0,456.625 758.25,538.5 750.125,556.0 736.25,587.625 733.5,592.875"/>
    <polyline points="731.125,596.0 728.75,597.375 726.125,597.25 723.0,595.75 715.375,589.625 693.75,570.125 681.0,559.5 667.875,549.375 661.375,544.75 648.625,536.5 636.75,529.625 625.75,524.125 615.625,519.875 602.125,515.375"/>
    <polyline points="598.0,514.375 583.375,511.625 577.125,511.0 568.75,510.625 553.25,511.25 539.5,513.25"/>
    <polyline points="538.375,513.5 534.125,514.375 528.5,516.0 522.875,518.625 521.875,519.375"/>
    <polyline points="521.5,519.625 519.25,522.375 518.25,525.0 517.875,527.5"/>
    <polyline points="517.875,527.875 517.5,537.5 517.125,540.5"/>
    <polyline points="517.125,541.125 516.125,544.75 515.125,546.625 513.375,548.875 511.25,550.375 508.375,551.625 505.75,552.125 502.625,552.375 498.75,552.25"/>
    <polyline points="496.5,552.0 493.875,551.75 488.0,550.5 480.875,548.625 472.25,545.875 456.375,539.75 443.625,534.25 422.125,524.0 399.625,512.25 386.0,504.625 371.0,495.625 366.0,492.25"/>
    <polyline points="365.125,491.5 365.375,491.25 368.5,492.375 396.375,504.125 405.5,507.375 414.375,510.125 426.625,513.125 434.125,514.375 440.875,515.125 452.625,515.375"/>
    <polyline points="455.25,515.25 466.5,514.125 473.625,512.625 483.125,509.5 487.25,507.5 491.25,505.0"/>
    <polyline points="492.0,504.5 495.375,501.375 498.125,497.25 499.875,492.5 500.75,488.625"/>
    <polyline points="500.875,487.75 503.25,468.125 505.0,459.375 506.75,453.125"/>
    <polyline points="507.375,450.75 510.25,443.0 514.375,433.875 520.625,422.625 526.375,413.875 533.875,403.75 538.5,398.125 549.75,385.5 556.5,378.625 564.25,371.125 583.0,354.875 594.125,346.125 606.375,337.125 620.0,328.125 634.625,319.375 650.25,311.375"/>
    <polyline points="666.375,304.375 682.625,299.0 698.25,296.0 712.625,295.875 725.0,299.0 734.625,305.75 741.0,315.75 744.125,328.875 744.125,344.25 741.125,361.375 735.875,379.125 728.875,397.0 720.875,414.25 712.125,430.5 703.125,445.5 694.25,459.0 685.75,471.125 677.5,481.75 669.75,491.0 662.5,499.0 649.5,511.875 638.25,521.25 628.5,528.125"/>
    <polyline points="624.25,530.875 616.375,535.125 606.5,539.75 583.0,548.75 577.0,552.375 573.875,555.625"/>
    <polyline points="573.25,556.625 571.875,559.375 571.125,563.625 571.25,567.25 572.125,571.25 573.75,575.625 577.125,582.375 584.0,592.25"/>
    <polyline points="585.875,594.5 595.25,604.875 609.75,617.75 619.75,625.625 640.5,639.875 659.625,651.5 684.375,665.125 699.375,672.625 716.125,680.5 734.75,688.375 754.875,696.0 775.875,702.75 796.75,707.5 816.125,709.375 831.875,707.0"/>
    <polyline points="842.125,699.125 845.0,685.125 840.0,665.5 827.875,641.0 810.125,613.5 789.125,584.875 767.125,557.0 709.875,486.375 695.875,468.5 684.5,453.125 675.5,440.25 663.375,420.75 657.0,407.75 652.875,396.625 652.5,396.25 652.125,396.5 650.25,401.0"/>
    <polyline points="649.25,403.5 644.375,412.75 637.25,423.5 628.625,434.25 619.0,444.0 612.5,449.75 599.625,459.375 590.5,464.875 584.75,467.875 579.375,470.25"/>
    <polyline points="576.75,471.375 571.875,473.25 565.25,475.25 553.875,477.5 547.75,477.875 543.75,477.625 540.25,477.0 536.375,475.5"/>
    <polyline points="535.5,475.125 532.5,472.875 530.25,470.0 529.0,467.375 528.0,463.125 527.875,458.0 528.125,455.0 529.625,448.0"/>
    <polyline points="530.25,446.0 532.75,439.375 536.5,431.75 540.0,425.875 544.375,419.375 549.75,412.125 556.625,404.125 569.75,390.625 581.0,380.75 594.25,370.375 609.5,360.125 617.875,355.25 626.625,350.625"/>
    <polyline points="635.5,346.625 644.5,343.25 653.5,340.75 662.0,339.375 670.0,339.125 677.125,340.375 683.25,343.0 688.125,347.125 691.625,352.625 693.625,359.5 694.25,367.375 693.375,376.125 691.375,385.5 688.25,395.125 684.25,405.0 679.625,414.625 674.375,424.0 663.0,441.375 657.125,449.125 651.125,456.375 639.5,468.875 634.0,474.25 623.375,483.5"/>
    <polyline points="618.375,487.375 608.875,493.875 600.375,499.125 585.625,506.625 576.25,510.5 565.875,514.25 547.5,520.25"/>
    <polyline points="546.125,520.75 539.25,523.5 533.625,526.625 529.875,529.875 528.0,532.5"/>
    <polyline points="527.625,533.0 525.875,537.0 523.375,546.125 522.25,548.875"/>
  </g>
</svg>
