<?xml version="1.0" encoding="utf-8" ?>
<svg xmlns="http://www.w3.org/2000/svg" xmlns:cc="http://creativecommons.org/ns" xmlns:dc="http://purl.org/dc/elements/1.1/" xmlns:ev="http://www.w3.org/2001/xml-events" xmlns:inkscape="http://www.inkscape.org/namespaces/inkscape" xmlns:rdf="http://www.w3.org/1999/02/22-rdf-syntax-ns" xmlns:sodipodi="http://sodipodi.sourceforge.net/DTD/sodipodi-0.dtd" xmlns:xlink="http://www.w3.org/1999/xlink" baseProfile="tiny" height="27.09333333cm" version="1.2" viewBox="0 0 1024.0 1024.0" width="27.09333333cm">
  <metadata>
    <rdf:RDF>
      <cc:Work>
        <dc:format>image/svg+xml</dc:format>
        <dc:source>vpype read './original_svgs/Strange Attractors #309.svg' linemerge linesimplify write './Strange Attractors #309.svg'
</dc:source>
        <dc:date>2024-08-05T01:35:47.532386</dc:date>
      </cc:Work>
    </rdf:RDF>
  </metadata>
  <defs/>
  <g fill="none" id="layer1" inkscape:groupmode="layer" inkscape:label="1" stroke="black" stroke-width="0.7mm" style="display:inline">
    <polyline points="294.5,554.25 374.625,452.5 396.5,423.25 410.375,402.5 418.875,387.25 423.375,375.625 425.125,366.25 424.875,358.375 423.125,351.25 420.0,344.5 415.625,337.5 409.75,330.125 401.875,321.875 391.5,312.375 377.375,300.75 357.875,286.25 330.375,267.5 290.875,242.75 233.625,209.5 151.875,166.25 40.625,114.875 0.0,100.921"/>
    <polyline points="25.125,476.75 126.125,621.5 171.875,736.25 166.0,828.0 120.875,899.25 54.875,942.875 0.0,944.7827"/>
    <polyline points="0.0,709.5439 1.75,703.875 39.75,603.625 69.375,519.0 85.625,452.625 89.375,403.375 84.875,370.25 78.0,352.625 74.875,350.375 80.0,362.875 95.375,387.5 119.375,420.5 148.75,457.5 231.75,558.75 251.375,584.0 266.5,604.625"/>
    <polyline points="277.75,620.875 291.625,641.875 295.75,647.375 299.0,650.0 301.75,650.25 304.5,648.25 307.625,644.375 325.0,617.75 336.625,601.625 349.0,586.125 355.375,578.875 367.875,565.75 379.875,554.625 391.125,545.5 401.5,538.0 406.375,534.875"/>
    <polyline points="411.0,532.125 423.625,525.25 437.875,519.125 443.875,516.875 454.375,513.5 475.375,507.75"/>
    <polyline points="476.625,507.375 483.25,505.0 486.375,503.375 489.125,500.875 489.875,499.5 490.0,498.625"/>
    <polyline points="490.0,498.25 490.0,496.5 488.75,493.0 484.625,486.5 482.0,483.375"/>
    <polyline points="481.375,482.5 475.125,475.5 467.625,468.0 461.0,461.875 450.25,452.625 441.875,446.0"/>
    <polyline points="438.625,443.625 427.5,435.5 413.375,426.125 395.375,415.25 380.75,407.25 363.75,398.75 354.375,394.5 334.125,386.125 323.375,382.375 312.5,379.125 301.75,376.625 291.5,375.125 282.0,374.875 273.875,376.125 267.5,379.0 263.375,383.875 261.625,390.5"/>
    <polyline points="262.5,399.0 265.75,409.0 271.375,420.25 279.0,432.125 288.0,444.5 298.125,456.625 308.75,468.5 319.625,479.625 330.375,489.875 340.75,499.125 350.75,507.5 360.125,514.75 369.0,521.125 385.0,531.375 398.875,538.625 411.0,543.75 421.5,547.125 430.875,549.25 442.875,551.125"/>
    <polyline points="446.5,551.375 450.0,551.75 483.625,553.125 491.25,554.125 502.875,557.0"/>
    <polyline points="504.375,557.625 510.375,560.0 517.5,563.75 534.25,574.375 543.375,579.625"/>
    <polyline points="545.5,580.75 550.0,582.75 555.125,584.5 564.125,586.375 571.625,586.75 580.625,586.125 591.75,583.75 598.375,581.75 605.875,579.0 614.375,575.25 624.125,570.5 635.125,564.25 647.75,556.5 662.125,546.75 678.375,534.625 696.625,520.0 716.875,502.5 738.5,481.875 761.0,458.625"/>
    <polyline points="783.0,433.375 802.75,407.5 818.0,382.875 826.75,362.125 827.5,347.25 820.125,339.875 805.875,340.25 786.75,347.375 765.25,359.5 743.5,374.75 723.0,391.125 704.75,407.625 689.25,423.125 676.25,437.375 665.875,450.125 657.5,461.25 651.0,470.875 642.0,486.5 631.125,508.75 627.875,513.0"/>
    <polyline points="626.0,514.5 624.125,515.625 622.0,516.375 619.75,516.75 617.375,517.0 612.125,516.75 606.375,516.0 570.75,508.25 558.125,505.875"/>
    <polyline points="555.875,505.5 531.625,501.375 522.125,499.125 516.25,497.125"/>
    <polyline points="515.25,496.75 508.0,493.375 504.0,491.0 497.125,486.125 489.625,479.875"/>
    <polyline points="488.375,478.75 468.875,461.125 460.0,453.5 445.125,441.5 433.125,432.75"/>
    <polyline points="428.375,429.375 411.5,418.125 397.375,409.5 380.25,399.75 359.875,389.25 348.25,383.625 322.5,372.625 308.5,367.625 294.25,363.125 280.125,359.75 266.625,357.875 254.5,357.875 244.625,360.25 237.75,365.5 234.375,373.5 234.75,384.375 239.125,397.75 246.875,412.875 257.25,429.25 269.625,445.875"/>
    <polyline points="283.125,462.25 297.0,477.75 310.75,492.125 323.875,505.0 336.25,516.5 358.0,535.0 367.5,542.25 383.875,553.5 397.375,561.125 403.375,563.875 408.75,566.0 418.375,569.125 426.625,570.875 434.0,571.875 451.875,572.5"/>
    <polyline points="454.375,572.5 461.375,572.5 467.625,572.875 476.75,574.375 481.5,575.875 487.125,578.75 489.625,580.5 491.875,582.5 494.875,586.125"/>
    <polyline points="495.75,587.375 497.375,590.375 499.125,595.375 500.0,599.25 500.25,603.625 500.125,608.5 499.75,611.125 498.375,617.125 496.0,623.875 494.375,627.625 489.75,636.125 483.125,646.0 473.75,657.5 467.75,664.125 460.75,671.125"/>
    <polyline points="452.625,678.75 443.0,687.0 432.125,695.75 419.5,704.875 405.375,714.375 389.625,723.875 372.25,733.0 353.875,741.25 334.75,747.875 315.875,752.0 298.125,752.875 282.5,749.75 270.25,742.125 261.875,730.125 257.875,714.0 258.125,694.625 262.0,673.125 268.75,650.75 277.375,628.5 287.125,607.25 297.125,587.5 307.0,569.625 316.5,553.625 325.25,539.625 340.375,517.125"/>
    <polyline points="346.875,508.25 352.625,500.75 362.25,489.125 373.25,478.0 378.875,473.625 383.75,470.625 389.625,468.125 394.625,467.0 405.625,466.25"/>
    <polyline points="406.625,466.25 410.5,465.625 411.625,465.125 412.5,464.625 413.625,463.125 413.75,461.75 413.0,459.5 410.625,456.25"/>
    <polyline points="409.875,455.5 408.375,453.875 404.375,450.625 397.875,446.375 393.25,443.75 383.0,439.25 379.5,438.125 374.375,437.0"/>
    <polyline points="372.875,436.875 368.75,436.875 366.5,437.375 365.625,437.875 364.125,440.0 364.0,442.125 364.25,443.25 366.125,447.25 369.625,451.875 376.375,458.125 382.375,462.625"/>
    <polyline points="384.5,464.0 395.375,470.0 399.75,471.875 407.875,474.625 415.125,476.25 419.875,476.75 423.875,476.75 428.25,476.0"/>
    <polyline points="429.125,475.75 431.375,474.625 432.75,473.125 433.375,471.875 433.625,469.125 432.875,466.625 431.375,463.875 429.0,460.75 424.375,456.0"/>
    <polyline points="423.0,454.75 416.25,449.125 404.875,441.375 396.375,436.375 386.625,431.375 375.875,426.625 368.25,423.875 360.75,421.625 353.5,420.25 350.0,419.875"/>
    <polyline points="346.875,419.75 341.375,420.5 339.25,421.5 337.5,422.75 336.25,424.375 335.5,426.375 335.25,428.75 335.625,431.375 336.5,434.375 339.875,441.0 342.375,444.625 345.125,448.25 351.875,455.75 363.75,466.5 376.625,475.875 385.25,481.125 393.625,485.5"/>
    <polyline points="397.625,487.375 405.375,490.625 412.75,493.125 419.5,495.125 428.75,497.0 439.25,498.25 448.0,498.375 453.375,498.0 460.625,496.75"/>
    <polyline points="461.75,496.375 467.375,494.0 470.5,491.0 471.25,489.25 471.5,486.0 470.25,482.125"/>
    <polyline points="469.875,481.25 468.375,478.5 464.625,473.375 461.5,469.75 454.625,462.75 442.75,452.375 434.625,446.125"/>
    <polyline points="431.5,443.75 424.625,438.875 407.5,427.75 397.0,421.5 378.0,411.375 355.375,401.0 347.125,397.75 329.875,392.0 321.25,389.75 312.875,388.125 305.0,387.25 297.75,387.5 291.625,388.75 286.75,391.125 283.5,395.0 281.875,400.0"/>
    <polyline points="282.0,406.375 284.125,413.875 287.875,422.25 293.125,431.25 299.625,440.625 307.125,450.125 315.375,459.5 324.0,468.625 341.625,485.125 350.375,492.375 358.75,498.875 374.625,510.0 382.0,514.5 395.5,521.75 407.625,527.125 418.375,530.875 432.5,534.375 440.625,535.75"/>
    <polyline points="444.5,536.25 454.75,537.125 463.75,537.5 484.75,537.75 492.125,538.125 501.5,539.25"/>
    <polyline points="502.875,539.5 508.375,540.625 516.0,542.875 535.125,550.75"/>
    <polyline points="536.5,551.375 544.375,554.25 553.875,556.625 558.375,557.25 563.375,557.5 569.125,557.375 579.125,556.125 587.125,554.25 596.5,551.25 607.375,546.625"/>
    <polyline points="613.625,543.625 627.5,535.875 635.25,531.0 652.5,518.875 661.875,511.625 671.75,503.5 681.875,494.5 702.125,474.5 711.625,463.875 720.125,453.125 727.375,442.875 732.75,433.375 736.125,425.25 737.0,418.875 735.5,414.375 731.5,412.125 725.5,411.875 717.75,413.625 708.625,417.125 698.75,421.75 688.5,427.5 668.125,440.0"/>
    <polyline points="658.375,446.375 632.625,463.875 612.25,477.125 601.125,483.625 591.625,488.5 579.625,493.375 572.75,495.5 566.625,496.75 558.5,497.75 553.75,497.875 547.125,497.5"/>
    <polyline points="545.0,497.25 535.625,495.625 526.0,492.625 518.625,489.375 511.875,485.625 506.5,482.0"/>
    <polyline points="505.25,481.0 498.375,475.75 467.25,447.375 458.25,439.625"/>
    <polyline points="454.75,436.75 437.375,423.0 411.0,404.625 381.5,386.375 354.625,371.5 338.625,363.375 320.75,354.75 301.0,346.0 279.5,337.625 257.0,330.0 234.5,324.25 213.25,321.5 195.375,322.875 182.75,329.625 177.125,342.375 179.5,360.875 189.375,384.25"/>
    <polyline points="205.25,410.75 225.0,438.375 246.375,465.5 267.625,490.75 305.375,533.5 320.875,550.5 354.25,586.375 368.0,600.375 377.375,609.0 381.0,611.625 386.625,614.75 389.125,615.25 391.25,615.375 393.375,615.0 395.25,614.25 399.25,612.0 405.25,607.25"/>
    <polyline points="407.375,605.5 418.375,596.625 425.5,591.625 430.125,588.75 439.375,584.0 443.875,582.125 450.375,580.125 456.625,578.75 462.25,578.125"/>
    <polyline points="464.125,578.125 469.25,578.375 475.5,579.75 479.5,581.5 483.125,583.875 486.25,586.875 488.0,589.25 489.5,592.0 491.125,596.75 491.625,600.375"/>
    <polyline points="491.75,602.375 491.625,606.875 491.25,609.25 490.125,614.5 489.125,617.375 488.0,620.5 484.75,627.375 480.125,635.25 473.5,644.25 469.375,649.25 459.0,660.375 452.5,666.625 445.25,673.125 436.875,680.0 427.375,687.125 416.875,694.5 405.125,702.0 392.375,709.25 378.625,716.25 364.125,722.25"/>
    <polyline points="349.375,727.125 334.75,730.25 320.875,731.0 308.375,729.125 298.0,724.25 290.25,716.125 285.5,705.125 283.75,691.5 284.75,676.0 288.375,659.25 293.875,641.875 300.75,624.625 308.625,608.0 316.875,592.375 325.375,578.0 333.5,564.875 341.5,553.25 349.0,542.875 362.5,525.875 374.0,513.125 383.75,503.75 392.125,496.75"/>
    <polyline points="395.75,494.0 402.25,489.625 407.75,486.375 414.625,482.875 424.5,478.5 428.75,476.125 431.375,473.625 432.125,472.375 432.5,470.875"/>
    <polyline points="432.625,470.25 432.125,466.875 430.75,464.125 426.625,458.75 424.25,456.375 419.875,452.5 412.375,446.75 402.75,440.5"/>
    <polyline points="400.0,438.875 384.375,430.75 377.25,427.625 370.0,424.875 359.0,421.75 352.125,420.625 348.875,420.5 343.375,421.0 341.125,421.75 339.25,422.875 337.875,424.375 336.875,426.25 336.5,428.375 336.625,430.875 338.5,436.625"/>
    <polyline points="340.25,439.875 342.375,443.375 347.875,450.5 354.75,457.75 366.625,468.0 379.25,476.75 387.625,481.75 391.75,483.875 403.5,489.125 414.25,492.875 420.875,494.625 429.75,496.375"/>
    <polyline points="432.375,496.75 442.125,497.5 446.25,497.5 454.875,496.75 462.375,494.875 465.125,493.625 468.125,491.125"/>
    <polyline points="468.625,490.625 469.875,487.625 469.875,485.625 469.25,482.625 468.125,480.0 465.0,475.125 460.25,469.375"/>
    <polyline points="459.0,468.125 449.875,459.125 441.375,451.875 436.125,447.75 423.125,438.375 410.625,430.25 400.75,424.25 383.0,414.5 376.25,411.125"/>
    <polyline points="369.125,407.75 353.75,401.0 337.25,395.0 328.75,392.5 320.375,390.5 312.375,389.125 304.75,388.5 298.0,388.875 292.25,390.375 287.875,393.125 285.0,397.125 283.875,402.375 284.375,408.75 286.625,416.125 290.625,424.375 296.0,433.25 302.5,442.375 309.875,451.625 318.0,460.75 326.5,469.5 335.125,477.75 343.75,485.375 360.5,498.75"/>
    <polyline points="368.375,504.375 383.125,513.75 396.5,520.75 408.375,525.875 419.0,529.5 428.625,532.0 444.875,534.75 455.0,535.625 476.375,536.125"/>
    <polyline points="478.625,536.125 492.0,536.5 499.75,537.25 509.25,539.0 516.5,541.25"/>
    <polyline points="517.75,541.625 542.125,551.625 552.75,554.5"/>
    <polyline points="554.75,554.875 561.625,555.625 569.75,555.5 576.125,554.75 583.375,553.375 596.625,549.25 601.625,547.25 613.125,541.875 619.5,538.5 633.875,529.875 650.25,518.375 659.125,511.625 668.375,504.0 677.875,495.625 687.5,486.5"/>
    <polyline points="696.875,477.0 705.875,467.125 714.0,457.125 721.0,447.5 726.375,438.5 729.875,430.625 731.25,424.25 730.375,419.625 727.375,416.875 722.25,416.125 715.5,417.125 707.375,419.75 698.375,423.75 688.75,428.625 679.0,434.125 669.375,440.0 613.75,475.875 602.375,482.5 597.25,485.125"/>
    <polyline points="592.5,487.5 584.0,491.25 576.5,493.875 566.75,496.375 558.375,497.625 551.0,497.875 542.5,497.375 535.0,496.125 528.375,494.375"/>
    <polyline points="526.875,493.875 518.125,490.375 508.75,485.125 502.125,480.5 492.5,472.5"/>
    <polyline points="491.0,471.125 465.25,448.0 448.75,434.375 429.25,419.75 408.5,405.75"/>
    <polyline points="399.875,400.375 390.25,394.375 367.0,381.25 337.875,366.25 320.875,358.375 302.375,350.375 282.5,342.75 261.75,336.125 241.25,331.25 222.125,329.125 206.0,330.75 194.625,337.125 189.375,348.625 191.0,365.25 199.25,386.125 213.0,409.875 230.5,434.875 249.875,459.75 269.625,483.125 288.5,504.5 305.75,523.375 321.125,539.625 346.0,565.125"/>
    <polyline points="355.875,574.625 371.125,588.75 382.25,597.75 390.5,602.875 397.0,605.375 402.375,606.0 404.75,605.875 409.25,604.75 415.625,602.125 427.75,595.625 433.75,592.75"/>
    <polyline points="435.75,591.875 441.5,589.625 447.0,588.0 453.75,586.875 458.5,586.75 462.75,587.375 466.625,588.5 470.0,590.375 472.625,592.875"/>
    <polyline points="473.5,593.875 474.75,596.125 476.125,600.125 476.5,605.0 475.75,610.75 474.375,615.25 472.25,620.25 467.25,629.0 465.0,632.25 459.375,639.25 447.875,651.25 443.0,655.5"/>
    <polyline points="437.625,660.0 425.25,669.375 410.5,678.625 402.375,683.0 393.875,687.125 385.0,690.625 376.0,693.625 367.125,695.75 358.375,696.75 350.25,696.5 343.0,694.875 336.625,691.875 331.625,687.25 328.125,681.125 326.0,673.625 325.5,665.0 326.375,655.5 328.625,645.25 331.875,634.75 336.125,624.125 341.125,613.75 346.625,603.625 352.375,594.0 358.375,584.875"/>
    <polyline points="364.5,576.5 376.5,561.75 387.875,549.625 398.5,539.875 412.5,529.0 424.625,521.25 435.0,515.875 448.875,510.0 459.375,506.375"/>
    <polyline points="461.125,505.75 470.875,502.25 475.5,500.0 478.125,498.25 479.5,496.75 480.625,494.875 480.875,493.75"/>
    <polyline points="481.0,493.25 481.0,491.625 480.5,489.125 478.875,485.5 474.75,479.5 469.375,473.125"/>
    <polyline points="468.25,472.0 461.5,465.125 452.375,456.875 436.5,444.25 417.0,430.75 395.125,417.375"/>
    <polyline points="388.5,413.75 373.75,406.0 356.875,398.125 347.75,394.25 328.5,387.25 318.625,384.25 308.75,382.0 299.375,380.5 290.75,380.125 283.125,381.0 277.0,383.375 272.75,387.375 270.5,393.0 270.5,400.125 272.625,408.625 277.0,418.375 283.125,428.875 290.625,439.75 299.375,450.875 308.875,461.75 318.75,472.125 328.75,481.875 338.5,490.75"/>
    <polyline points="348.125,498.875 357.25,506.125 374.25,518.125 382.0,522.875 396.0,530.625 408.375,536.0 419.25,539.75 424.25,541.125 437.5,543.875 455.5,545.625 472.25,546.125"/>
    <polyline points="474.625,546.125 487.5,546.75 496.5,547.875 505.875,550.0 517.375,554.25"/>
    <polyline points="518.75,554.875 536.875,563.625 542.25,566.0 546.25,567.375 553.0,569.25 558.25,570.25 567.375,570.75"/>
    <polyline points="570.875,570.625 578.875,569.75 583.375,568.875 593.875,566.0 606.5,561.125 613.875,557.625 622.125,553.375 631.125,548.25 641.125,542.0 652.25,534.5 664.375,525.625 677.5,515.25 691.625,503.375 706.375,489.875 721.5,474.875 736.375,458.75 750.25,442.125 762.25,425.625 771.375,410.375 776.75,397.375 777.625,387.625 774.25,381.625 766.625,379.875"/>
    <polyline points="755.625,381.875 742.375,387.25 727.875,395.0 712.875,404.375 698.375,414.625 684.625,425.0 660.75,444.375 621.25,478.625 611.25,486.875 607.0,490.0 596.375,496.75 590.625,499.375 585.375,501.0 578.25,502.125"/>
    <polyline points="576.0,502.25 571.625,502.25 565.25,501.625 553.75,499.375 541.5,495.75 530.75,491.375"/>
    <polyline points="529.25,490.75 522.375,487.125 512.0,480.125 504.25,473.625 496.25,465.75"/>
    <polyline points="494.875,464.25 468.75,436.625 452.125,420.875 442.75,412.875 430.75,403.375 415.125,392.0"/>
    <polyline points="405.375,385.25 380.75,369.25 346.5,349.25 324.5,337.375 298.875,324.5 269.375,310.75 236.125,297.125 200.5,284.875 164.875,276.5 133.625,275.125 112.0,283.875 104.625,305.0 113.375,337.875 136.125,379.25 167.5,424.5 201.75,469.0 234.125,509.75 261.875,545.25 284.125,575.375 300.625,600.25 312.25,620.5 319.625,636.875 323.625,649.625 325.25,659.375"/>
    <polyline points="325.0,666.25 323.75,670.625 322.0,672.625 320.25,672.375 318.875,670.125 318.25,666.0 318.625,660.375 319.875,653.375 322.125,645.375 325.375,636.625 329.5,627.5 334.25,618.125 339.625,608.75 345.375,599.75 351.25,591.125 357.375,582.875 363.5,575.25 375.625,561.625 381.375,555.75 392.5,545.625 402.625,537.5 412.0,531.0"/>
    <polyline points="416.25,528.375 428.125,521.75 438.125,517.125 451.875,512.0 475.125,504.625"/>
    <polyline points="476.125,504.25 481.125,502.0 482.375,501.25 484.5,499.25 485.375,497.875 485.875,496.125 485.75,493.625"/>
    <polyline points="485.625,493.125 484.25,489.5 481.0,484.375 476.75,479.0 470.625,472.375"/>
    <polyline points="469.375,471.125 460.5,462.5 454.625,457.375 444.875,449.375 432.0,439.625 419.375,431.0 409.25,424.5 390.75,413.625"/>
    <polyline points="383.5,409.75 358.625,397.375 339.25,389.375 329.0,385.625 318.625,382.25 308.125,379.625 298.0,377.75 288.625,377.0 280.25,377.625 273.375,379.75 268.5,383.625 265.75,389.25 265.375,396.625 267.375,405.5 271.75,415.75 278.125,426.75 286.125,438.5 295.25,450.25 305.25,461.75 315.625,472.875 336.375,492.625 346.375,501.125"/>
    <polyline points="355.875,508.75 364.875,515.5 373.25,521.25 388.625,530.625 402.0,537.25 413.625,541.875 423.875,544.875 437.25,547.625 451.875,549.125 474.125,549.875"/>
    <polyline points="476.5,550.0 488.875,550.875 496.0,552.0 501.0,553.125 508.625,555.625 518.75,560.25"/>
    <polyline points="520.125,561.0 539.25,571.5 549.5,575.75 554.5,577.25 560.125,578.375 570.25,579.0 574.25,578.75"/>
    <polyline points="578.625,578.25 583.5,577.375 594.75,574.5 608.75,569.125 626.5,560.25 637.0,554.125 648.875,546.5 662.125,537.25 676.875,526.125 693.0,512.875 710.5,497.375 729.0,479.75 747.75,460.25 765.75,439.375 781.75,418.25 794.125,398.375 801.75,381.125 803.375,368.375 798.875,361.0 788.75,359.375 774.25,363.125 757.125,371.25 738.875,382.25"/>
    <polyline points="720.875,395.0 704.0,408.375 688.75,421.5 675.375,433.75 663.875,445.0 645.875,464.0 620.875,493.0 612.5,501.625 607.875,505.125 605.625,506.375 601.375,508.0 597.0,508.75 592.5,509.0 587.875,508.75"/>
    <polyline points="585.625,508.5 574.0,506.5 556.25,502.5 540.875,498.375 534.0,496.125"/>
    <polyline points="532.375,495.625 523.25,492.0 515.0,487.75 507.0,482.625 501.625,478.625 497.5,475.125"/>
    <polyline points="496.125,474.0 465.625,446.25 456.25,438.25 444.375,428.75 428.5,416.875"/>
    <polyline points="422.0,412.375 406.5,402.125 386.875,390.0 375.125,383.125 346.75,367.875 329.875,359.5 311.125,350.875 290.625,342.375 268.875,334.375 246.375,327.75 224.625,323.375 205.0,322.625 189.75,326.5 180.625,336.125 178.875,351.625 185.0,372.5 197.875,397.375 215.625,424.25 236.125,451.5 257.5,477.5 278.0,501.375 313.5,540.875"/>
    <polyline points="327.875,556.5 350.125,580.25 365.5,596.0 371.25,601.5 380.0,609.0 386.375,612.875 389.0,613.75 391.375,614.125 393.5,614.0 397.625,612.75 403.625,609.125 411.875,602.5 420.75,595.875"/>
    <polyline points="423.0,594.25 429.875,589.875 438.875,585.25 449.625,581.375 455.75,580.125 461.25,579.5 466.5,579.625 472.75,580.75"/>
    <polyline points="474.125,581.25 479.375,583.75 481.625,585.375 483.625,587.375 486.25,590.875 488.5,596.875 489.25,602.375 488.75,608.875 487.625,614.0 485.5,619.75"/>
    <polyline points="484.125,623.0 480.375,630.0 475.125,638.0 471.75,642.5 463.25,652.375 452.0,663.5 445.25,669.625 437.5,676.0 428.75,682.75 419.125,689.5 408.375,696.5 396.625,703.25 384.0,709.75 370.75,715.5 357.125,720.25 343.5,723.5 330.5,724.875 318.5,723.875 308.25,720.375 300.125,714.0 294.5,704.875 291.625,693.375"/>
    <polyline points="291.375,679.75 293.5,664.75 297.75,649.0 303.5,632.875 310.375,617.125 318.0,602.125 325.875,588.0 333.875,575.0 341.625,563.25 349.125,552.75 356.25,543.375 363.0,535.125 375.0,521.75 380.375,516.25 390.125,507.5 402.0,498.375 408.625,494.125 419.25,488.5"/>
    <polyline points="421.5,487.375 431.75,482.75 435.25,480.75 438.375,478.25 439.875,476.125 440.5,473.875 440.375,471.375 439.375,468.625"/>
    <polyline points="439.0,467.625 435.125,462.125 431.625,458.375 425.25,452.625 419.125,447.875 411.625,442.625 402.75,437.0 388.375,429.125"/>
    <polyline points="384.25,427.125 371.375,421.5 362.25,418.125 353.0,415.5 348.5,414.625 340.25,413.625 336.5,413.75 333.125,414.25 330.25,415.25 328.0,416.625 326.375,418.625 325.375,421.125 325.125,424.0 325.5,427.375 328.5,435.125 334.125,444.0 337.75,448.625 346.25,457.875"/>
    <polyline points="351.0,462.375 355.875,466.75 366.0,474.875 376.25,481.875 386.125,487.875 391.0,490.5 400.25,494.75 413.0,499.625 424.375,502.75 431.125,504.125 440.25,505.375 450.625,505.875"/>
    <polyline points="452.875,505.875 460.875,505.625 470.125,504.375 476.75,502.625 479.875,501.25 482.625,499.375"/>
    <polyline points="483.0,499.0 484.25,497.375 484.75,496.0 484.875,494.0 484.375,491.75 483.375,489.25 480.75,485.0"/>
    <polyline points="480.25,484.25 476.875,479.75 472.25,474.5 464.625,466.75 453.875,457.0 446.625,451.125"/>
    <polyline points="444.0,448.875 430.875,439.125 422.75,433.5 408.0,424.0 396.0,416.875 382.0,409.25 365.875,401.125 357.0,397.0 337.625,389.0 317.125,382.25 306.875,379.875 297.0,378.25 287.875,377.75 279.875,378.5 273.375,381.0"/>
    <polyline points="268.875,385.125 266.5,391.0 266.625,398.5 269.0,407.5 273.625,417.75 280.125,428.875 288.25,440.375 297.5,452.0 307.5,463.375 317.75,474.125 328.125,484.25 338.25,493.5 348.125,501.75 357.375,509.25 366.25,515.75 374.625,521.375 389.75,530.375 396.625,533.875 408.875,539.25 414.5,541.25 424.625,544.25 433.75,546.25"/>
    <polyline points="437.875,546.875 452.375,548.375 483.375,549.5 494.75,550.875 499.75,551.875"/>
    <polyline points="501.25,552.375 505.875,553.625 510.375,555.25 516.125,557.75 539.5,570.0"/>
    <polyline points="541.375,570.875 547.5,573.375 554.75,575.5 563.5,576.875 570.5,577.0 578.875,576.25 583.625,575.375 594.75,572.375 601.25,570.0 616.75,563.25 625.875,558.375 647.5,545.125 660.25,536.25 674.375,525.625 689.875,513.0"/>
    <polyline points="706.5,498.375 724.125,481.75 741.875,463.25 759.125,443.625 774.625,423.625 787.0,404.5 794.875,387.75 797.375,374.875 794.25,366.875 785.625,364.125 772.75,366.625 756.875,373.375 739.625,383.125 722.25,394.75 705.75,407.25 690.5,419.75 676.875,431.75 665.0,442.75 646.125,461.5 622.75,486.5 615.25,494.125"/>
    <polyline points="612.25,497.0 606.75,501.375 602.0,504.25 597.5,506.0 590.875,507.125 586.5,507.125 579.75,506.625 566.625,504.25 556.25,501.75"/>
    <polyline points="554.25,501.25 543.0,498.125 534.5,495.25 522.5,490.125 516.875,487.125 514.25,485.375"/>
    <polyline points="512.875,484.625 504.875,478.875 498.0,473.125 473.25,449.875"/>
    <polyline points="470.875,447.625 455.75,434.125 443.0,423.875 425.75,411.0 410.375,400.375 390.5,387.75 378.5,380.625 348.875,364.125 331.0,355.0 310.875,345.375 288.375,335.5 264.0,326.125 238.5,317.875 213.375,312.125 190.375,310.375"/>
    <polyline points="172.375,314.25 161.875,325.125 160.5,343.125 168.375,367.625 184.375,396.75 205.875,428.0 229.75,459.25 253.875,488.5 276.125,514.875 326.625,573.875 337.875,587.375 366.75,623.375 369.25,626.125 371.375,627.75 373.125,628.625 374.625,628.625 376.125,628.0 377.625,626.875 380.875,623.125"/>
    <polyline points="382.625,620.625 391.5,609.125 399.75,599.75 408.875,591.0 415.125,585.625 424.625,578.75 433.875,573.125 442.625,568.75 453.625,564.625"/>
    <polyline points="456.25,563.875 466.0,561.625 472.625,560.875 478.75,560.625 486.25,561.25 493.0,562.625 497.75,564.125 503.75,566.75"/>
    <polyline points="505.125,567.625 512.0,572.125 517.25,576.5 521.125,580.25 528.875,589.125 538.125,602.0"/>
    <polyline points="539.5,604.125 548.0,618.125 555.25,632.0 560.75,645.25 563.125,653.0 564.0,657.125 565.25,666.375 565.375,671.75 564.875,677.5 563.75,684.125 561.625,691.5 558.125,700.25"/>
    <polyline points="552.625,710.5 544.625,723.0 532.75,738.375 515.75,757.625 491.25,782.125 456.5,813.5 407.375,853.0 339.875,901.0 251.625,954.125 146.75,1001.125 43.875,1020.0 -0.0,999.0774"/>
    <polyline points="0.0,744.1244 36.375,651.25 78.125,546.0 102.75,462.625 108.625,399.0 99.5,352.375 81.5,321.375 62.75,306.875 51.875,310.5 55.5,332.25 75.125,369.25 107.25,415.75 144.875,465.0"/>
    <polyline points="181.625,511.875 213.25,553.5 237.875,588.75 255.625,617.75 267.0,640.625 273.5,658.25 276.25,670.875 276.75,679.0 276.125,682.875 275.25,683.0 275.0,679.5 275.75,673.125 278.0,664.125 281.75,653.125 286.75,641.0 293.0,628.0 300.125,614.875 307.75,602.0 315.75,589.75 323.875,578.125 331.875,567.5 339.625,557.875 347.0,549.125 354.125,541.375 367.25,528.625"/>
    <polyline points="373.25,523.375 384.125,514.875 389.0,511.5 398.0,505.875 405.875,501.75 419.0,496.25 424.375,494.25 440.375,489.125 445.625,486.875"/>
    <polyline points="446.625,486.375 449.25,484.625 451.0,482.75 451.875,481.375 452.375,479.875 452.5,477.625 452.0,475.0 450.75,472.125 448.75,468.875 445.875,465.25"/>
    <polyline points="444.75,464.0 437.5,456.75 431.5,451.75 421.5,444.125 412.0,437.75 404.5,433.125 391.5,425.75 381.5,420.625 370.625,415.625 364.75,413.25"/>
    <polyline points="358.875,411.0 346.75,407.0 334.75,404.125 323.75,403.25 319.125,403.625 315.0,404.75 311.75,406.625 309.5,409.125 308.125,412.5 307.875,416.5 308.75,421.25 310.625,426.625 313.625,432.375 317.375,438.5 322.0,444.875 327.25,451.25 333.0,457.625 345.5,469.75 352.0,475.375 358.5,480.5 371.375,489.875"/>
    <polyline points="377.5,493.875 395.125,503.5 405.625,508.125 415.375,511.5 424.125,514.0 432.125,515.875 442.875,517.5 454.875,518.375 464.875,518.5 471.25,518.25"/>
    <line x1="473.25" x2="501.5" y1="518.125" y2="516.125"/>
    <polyline points="502.125,516.125 508.375,516.125 512.125,516.875"/>
    <polyline points="512.5,517.0 516.25,518.625 518.75,520.375"/>
    <line x1="519.0" x2="527.5" y1="520.5" y2="527.375"/>
    <polyline points="528.0,527.75 535.25,533.0 540.625,536.125 545.5,538.375"/>
    <polyline points="546.5,538.875 552.625,540.875 558.5,542.125 567.625,542.75 572.125,542.5 579.625,541.5 585.5,540.125 592.0,538.125 599.375,535.375"/>
    <polyline points="603.375,533.625 616.75,526.875 621.75,523.875 637.875,513.125 643.625,508.75 649.5,504.125 661.375,493.75 667.0,488.25 677.625,476.875 682.25,471.25 686.125,465.875 689.125,460.75 691.375,456.25 692.5,452.375 692.625,449.125 691.625,446.875 689.5,445.375 686.5,444.75 682.625,445.0 677.875,446.0"/>
    <polyline points="672.625,447.75 666.875,450.0 654.625,455.625 612.75,477.75 593.5,487.25 577.75,493.875 567.875,497.125 556.875,500.0"/>
    <polyline points="554.375,500.5 543.75,502.125 536.75,502.625 528.125,502.5 522.25,501.875 517.25,500.875"/>
    <polyline points="516.25,500.625 510.375,498.5 507.25,497.0 502.0,493.75 496.625,489.5"/>
    <line x1="495.75" x2="465.75" y1="488.875" y2="461.25"/>
    <polyline points="463.75,459.5 448.75,447.0 434.625,436.375 415.125,423.125 395.5,411.125 369.875,397.125 349.0,387.125 325.25,377.25 312.5,372.875"/>
    <polyline points="299.625,369.0 286.875,366.125 274.875,364.625 264.125,364.75 255.125,366.875 248.75,371.5 245.375,378.5 245.25,387.875 248.5,399.375 254.75,412.625 263.5,427.0 274.125,441.875 286.125,456.5 298.625,470.75 311.25,484.0 323.5,496.25 346.375,516.75 356.625,525.125 366.125,532.25 374.875,538.375 390.25,547.875 397.0,551.375 409.0,556.625"/>
    <polyline points="414.375,558.5 423.875,561.25 436.125,563.375 449.5,564.375 463.125,564.625 474.375,565.25 478.375,565.75 485.625,567.25"/>
    <polyline points="487.25,567.75 493.5,570.125 497.875,572.375 503.125,576.125 505.5,578.375 510.0,583.5 513.0,588.0 514.75,591.5 517.0,597.25"/>
    <polyline points="517.625,599.375 519.0,606.5 519.375,612.0 519.25,615.0 518.5,621.75 517.75,625.375 515.125,633.75 510.625,643.75 507.5,649.5 503.5,655.875 492.375,670.75 484.75,679.5 475.5,689.375 464.125,700.375 450.25,712.75 433.5,726.375 413.5,741.375 390.0,757.25 362.75,773.625"/>
    <polyline points="332.25,789.125 299.625,802.25 266.75,810.75 236.375,812.0 211.75,803.875 195.375,785.625 188.625,758.0 190.875,723.375 200.25,685.125 214.0,646.375 229.375,609.75 244.625,576.625 270.125,522.875 287.125,485.25 292.75,471.375 296.875,460.375 303.625,440.625 305.0,437.625 306.375,436.0 308.0,435.625 309.875,436.25 312.125,438.0"/>
    <polyline points="315.0,440.375 326.25,451.0 341.25,463.875 358.0,476.375 369.25,483.75 374.875,487.0 390.75,495.25 405.25,501.125 414.0,503.875 422.0,506.0 432.875,508.0"/>
    <polyline points="436.125,508.5 445.125,509.25 457.5,509.5 472.0,508.25 482.25,506.0"/>
    <polyline points="483.125,505.75 486.625,504.375 489.0,502.875 490.0,501.875 491.125,499.375 491.125,497.375"/>
    <polyline points="491.0,496.875 490.25,494.5 487.625,490.0 480.125,480.625"/>
    <polyline points="479.25,479.625 469.25,469.25 457.25,458.25 441.875,445.75 431.375,438.0"/>
    <polyline points="427.25,435.25 418.125,429.0 407.5,422.25 394.875,414.875 371.875,402.5 353.5,393.75 332.875,385.375 322.0,381.625 311.125,378.5 300.25,376.0 289.875,374.5 280.5,374.375 272.375,375.75 266.25,378.875 262.25,384.0 260.75,390.875 261.875,399.625 265.5,409.875 271.5,421.375"/>
    <polyline points="279.25,433.5 288.625,445.875 298.875,458.25 309.625,470.0 320.5,481.125 331.375,491.375 341.75,500.625 351.75,508.875 361.125,516.125 370.0,522.5 385.875,532.5 393.0,536.375 399.625,539.625 411.625,544.625 417.0,546.5 426.875,549.125 431.25,550.0 439.5,551.375 453.5,552.5"/>
    <polyline points="456.625,552.625 481.625,553.625 489.5,554.625 498.125,556.375 507.375,559.625"/>
    <polyline points="508.875,560.25 516.125,564.0 521.875,567.5 539.375,579.125 543.25,581.375 549.875,584.5"/>
    <polyline points="552.25,585.5 557.625,587.125 563.875,588.5 571.375,589.0 575.625,588.875 580.375,588.5 591.625,586.25 598.25,584.25 605.875,581.5 614.5,577.75 624.375,572.875 635.75,566.625 648.75,558.5 663.5,548.5 680.5,535.875 699.5,520.5 720.625,502.125 743.5,480.5 767.125,455.875 790.25,429.0 810.75,401.625 826.25,376.0"/>
    <polyline points="834.375,354.5 834.0,339.875 824.875,333.5 808.625,335.375 787.75,344.25 764.75,358.125 742.125,374.75 721.375,392.25 703.25,409.5 688.125,425.625 675.75,440.25 666.0,453.125 658.5,464.5 652.75,474.25 648.375,482.625 645.25,489.875 642.75,496.0 638.0,509.25 636.625,512.125 635.125,514.5 633.5,516.375 631.75,517.75 627.5,519.25"/>
    <polyline points="625.125,519.5 619.625,519.25 613.5,518.375 575.125,509.625 564.125,507.625 552.5,506.0"/>
    <polyline points="550.375,505.625 528.875,503.0 521.75,501.625 515.75,500.0"/>
    <polyline points="514.875,499.75 508.875,497.25 504.875,495.0 499.375,491.25 494.375,487.125"/>
    <polyline points="493.5,486.375 469.125,463.875 458.75,454.875"/>
    <polyline points="456.25,452.75 444.5,443.375 433.125,435.0 412.875,421.375 392.375,409.0 365.625,394.625 343.875,384.5 331.875,379.5 319.25,374.625 306.25,370.375 293.25,366.875 280.625,364.5 268.875,363.5"/>
    <polyline points="258.625,364.625 250.75,367.875 245.5,373.5 243.625,381.75 245.0,392.375 249.75,404.875 257.375,419.0 267.25,433.75 278.75,448.875 291.25,463.625 304.0,477.625 316.625,490.5 328.875,502.25 340.375,512.625 351.125,521.75 361.125,529.625 378.625,542.0 393.375,550.625 399.875,553.875 411.375,558.625 421.25,561.75 425.75,562.75"/>
    <polyline points="429.875,563.5 444.375,565.125 472.75,566.125 478.625,566.875 484.125,568.0 490.5,570.125"/>
    <polyline points="492.0,570.875 495.0,572.25 497.75,574.0 502.75,577.875 507.25,582.875 510.25,587.25 512.0,590.5 514.25,596.125 515.375,600.375 516.375,607.75"/>
    <polyline points="516.375,610.5 516.0,616.5 514.75,623.5 512.25,631.625 507.875,641.125 504.875,646.625 501.125,652.625 496.5,659.25 490.75,666.625 483.75,674.875 475.125,684.0 464.75,694.25 452.25,705.625 437.125,718.125 419.25,731.75 398.25,746.375 374.0,761.375 346.625,775.875 317.125,788.875 286.625,798.375 257.5,802.25 232.125,798.625"/>
    <polyline points="213.25,786.0 202.625,764.625 200.375,735.875 205.5,702.25 216.0,666.625 229.5,631.375 243.875,598.625 257.875,569.125 290.375,503.25 303.125,475.625 315.5,447.25 317.375,444.25 319.0,442.375 320.625,441.5 322.5,441.5 324.625,442.375 327.0,443.875 336.0,451.125"/>
    <polyline points="339.75,454.125 347.875,460.75 361.375,470.625 375.375,479.375 389.125,486.625 401.875,492.0 413.5,495.875 420.5,497.625 427.0,498.875 435.625,500.125 438.375,500.25"/>
    <polyline points="440.875,500.5 451.75,500.5 461.5,499.25 468.375,497.25 472.0,495.125 473.5,493.625"/>
    <polyline points="473.875,493.125 475.125,490.375 475.125,487.875 474.625,485.75 472.25,480.875 470.375,478.0 467.0,473.875"/>
    <polyline points="466.0,472.625 462.625,468.875 453.375,460.0 444.875,452.75 436.75,446.375 430.375,441.625 418.875,433.75 398.875,421.375"/>
    <polyline points="392.875,418.0 379.625,410.875 372.25,407.25 356.25,400.0 338.75,393.125 329.625,390.125 320.5,387.625 311.5,385.75 303.0,384.625 295.125,384.5 288.375,385.5 283.0,388.0 279.25,391.75 277.375,397.0 277.375,403.625 279.375,411.5 283.25,420.25 288.875,429.875 295.75,439.875 303.625,450.0 312.375,460.0 330.75,478.625"/>
    <polyline points="340.0,487.0 349.0,494.625 357.75,501.5 366.125,507.625 374.125,513.0 388.75,521.625 395.5,525.125 407.75,530.5 413.375,532.625 423.625,535.75 437.0,538.5 444.75,539.625 455.125,540.5 469.5,540.875"/>
    <polyline points="472.0,541.0 487.125,541.375 497.625,542.375 506.625,544.125 514.875,546.625"/>
    <polyline points="516.125,547.125 522.75,549.75 533.875,554.75 541.875,557.875 549.5,560.25 556.125,561.5"/>
    <polyline points="558.625,561.875 567.0,562.125 573.625,561.75 585.625,559.375 595.375,556.375 607.0,551.625 613.625,548.5 620.75,544.75 637.25,534.875 646.5,528.625 656.5,521.375 667.125,513.0 678.375,503.625 690.0,493.25 701.875,481.875 713.5,469.625 724.5,457.125 734.25,444.5"/>
    <polyline points="742.375,432.5 748.0,421.75 750.875,412.75 750.75,406.125 747.625,402.0 741.625,400.75 733.375,402.0 723.25,405.625 712.0,411.0 700.25,417.5 688.5,424.875 666.0,440.125 630.0,466.5 610.375,480.0 595.625,488.75 587.5,492.625 583.875,494.0"/>
    <polyline points="580.5,495.25 574.25,496.875 568.625,497.875 563.5,498.375 556.5,498.375 552.25,498.0 542.625,496.25 537.375,494.875 527.875,491.375"/>
    <polyline points="526.5,490.75 518.0,486.375 508.625,480.0 502.0,474.625 491.875,465.25"/>
    <polyline points="490.25,463.625 475.25,448.75 461.75,436.125 450.625,426.5 441.125,418.875 429.375,410.0 414.375,399.25 382.75,379.0"/>
    <polyline points="368.75,370.875 352.75,361.75 334.125,352.0 313.0,341.5 289.0,330.5 262.5,319.625 234.25,309.75 205.625,302.25 179.125,299.0 157.75,302.125 144.875,313.375 142.875,333.25 152.125,361.0 170.75,394.125 195.5,429.625 222.625,464.75 293.625,551.125 310.375,572.0 323.625,589.375 333.75,603.625 341.375,615.0 346.875,624.0 353.25,636.0"/>
    <polyline points="355.0,639.5 356.125,641.625 357.0,642.5 357.625,642.25 358.375,641.125 363.75,629.125 371.375,615.75 377.875,606.25 389.125,592.375 397.25,584.0 405.375,576.5 413.375,570.0 425.0,561.875"/>
    <polyline points="428.75,559.625 439.25,554.0 442.625,552.5 452.0,548.625 460.5,545.875 465.75,544.5 475.25,542.75 485.5,541.75 492.625,541.75"/>
    <polyline points="494.375,541.875 503.625,542.875 511.875,545.0 521.0,548.25 529.0,551.75"/>
    <polyline points="530.375,552.375 541.0,556.75 548.375,559.125 554.75,560.5 562.25,561.25 568.125,561.25 578.625,560.125 591.75,556.75"/>
    <polyline points="596.875,555.0 608.625,550.0 622.5,542.875 639.0,532.75 648.25,526.375 668.75,510.625 679.75,501.25 691.25,490.875 702.75,479.625 714.0,467.75 724.375,455.5 733.625,443.375 741.0,431.875 746.125,421.75 748.375,413.375 747.875,407.25 744.25,403.75 738.125,402.875 729.75,404.375 719.875,408.125 708.875,413.375 697.375,419.875"/>
    <polyline points="685.875,427.0 664.0,441.75 621.625,472.125 604.0,483.625 599.0,486.375 590.375,490.875 579.375,495.125 573.125,496.75 567.5,497.75 559.875,498.25 555.375,498.125"/>
    <polyline points="553.125,498.0 543.25,496.5 532.875,493.625 528.25,491.875 522.375,489.125 516.875,486.125 512.875,483.5"/>
    <polyline points="511.5,482.625 506.125,478.75 495.0,469.125 470.625,445.5"/>
    <polyline points="467.875,443.0 462.0,437.625 446.75,424.625 430.5,412.125 407.25,396.0 385.75,382.5 357.5,366.125 340.125,356.875 320.25,346.875 297.75,336.375 273.0,325.875 246.25,316.125 218.75,308.25 192.5,303.875 170.25,304.875 155.0,312.875"/>
    <polyline points="149.25,329.0 154.125,352.875 168.625,382.75 190.25,416.125 215.5,450.0 241.5,482.25 287.25,537.0 320.125,577.125 331.875,592.125 340.875,604.375 347.75,614.125 359.125,631.875 362.5,636.375 363.625,637.0 364.75,636.75 365.75,635.625 373.875,621.5"/>
    <polyline points="376.375,617.75 381.875,609.625 391.625,597.5 402.5,586.375 413.5,576.875 424.375,569.125 434.75,563.0 447.5,557.0 459.0,553.125"/>
    <polyline points="461.625,552.375 473.75,550.0 482.25,549.25 488.0,549.25 493.375,549.625 500.0,550.625 509.0,553.125"/>
    <polyline points="510.5,553.625 520.5,558.0 537.5,566.75 545.125,570.0 551.75,572.125"/>
    <polyline points="554.25,572.625 559.75,573.625 566.0,574.125 573.375,573.875 582.0,572.625 587.0,571.5 592.5,570.0 598.625,567.875 605.375,565.25 621.25,557.625 630.625,552.375 641.125,545.875 652.625,538.125 665.5,528.875 679.5,517.875 694.625,505.125 710.625,490.5 727.125,474.25 743.5,456.5 758.875,438.125 772.0,420.0"/>
    <polyline points="781.875,403.125 787.375,389.0 787.875,378.625 783.25,372.75 774.125,371.625 761.375,374.875 746.375,381.75 730.25,391.125 714.125,402.0 698.75,413.375 684.5,424.875 660.375,445.75 623.0,481.25 610.25,492.75 603.75,497.625 598.25,500.875 595.75,502.0"/>
    <polyline points="593.25,502.875 588.625,504.125 581.875,504.75 577.625,504.625 571.25,503.875 561.0,502.0 542.625,496.875"/>
    <polyline points="540.875,496.25 529.875,492.0 522.75,488.5 513.375,482.625 505.5,476.5"/>
    <polyline points="504.25,475.375 495.875,467.875 472.25,444.0 460.875,433.25 453.625,426.875"/>
    <polyline points="449.375,423.25 433.625,410.75 419.5,400.375 401.0,387.875 389.5,380.5 376.25,372.5 360.75,363.5 342.875,353.625 322.0,342.75 298.125,331.25 271.25,319.375 241.75,308.0 210.875,298.375 180.875,292.375 155.0,292.375 137.125,300.625 130.5,318.625 136.75,346.0 154.375,380.5 179.75,418.5 208.75,456.75 237.5,492.625"/>
    <polyline points="263.625,524.75 285.75,552.25 303.625,575.5 317.5,594.625 327.75,610.375 335.125,622.875 340.0,632.75 343.125,640.25 344.75,645.75 346.0,651.875 347.0,646.125 349.625,637.625 354.375,626.875 357.5,621.0 364.875,608.875 369.0,602.875 373.375,597.0 382.5,586.0"/>
    <polyline points="387.25,580.875 391.875,576.125 405.75,563.75 414.5,557.125 426.875,549.125 438.0,543.25 444.75,540.125 451.125,537.625 456.875,535.625 464.875,533.375 474.125,531.375"/>
    <polyline points="476.25,531.0 485.5,529.625 491.875,529.25 501.125,529.375 506.75,530.0 510.75,530.875"/>
    <polyline points="511.75,531.0 518.125,533.0 525.25,536.0 534.875,540.625"/>
    <polyline points="536.0,541.125 541.75,543.625 547.125,545.5 555.125,547.375 560.875,548.125 570.125,548.125 575.625,547.5 581.75,546.375"/>
    <polyline points="585.25,545.5 592.625,543.25 601.25,540.0 611.0,535.5 622.0,529.375 634.375,521.5 648.125,511.625 662.625,499.75 670.0,493.0 684.25,478.75 690.875,471.375 696.625,464.125 701.625,457.125 705.5,450.625 708.0,444.875 709.0,440.125 708.625,436.5 706.75,434.0"/>
    <polyline points="703.375,432.875 698.75,433.0 693.125,434.125 686.625,436.25 679.625,439.25 664.375,446.875 649.125,455.375 615.25,475.125 594.125,486.125 585.25,490.0 577.5,493.0 573.875,494.25 564.125,496.875"/>
    <polyline points="561.25,497.625 548.5,499.375 538.25,499.5 533.0,499.125 525.375,497.875 520.0,496.5 516.25,495.125"/>
    <polyline points="515.125,494.75 509.375,492.125 501.75,487.5 495.125,482.5 486.5,475.125"/>
    <polyline points="485.125,473.875 466.0,456.875 446.0,440.5 428.875,428.0 411.375,416.375"/>
    <polyline points="404.375,411.875 388.0,402.25 368.375,391.5 344.625,379.875 331.25,374.0 317.125,368.25 302.125,362.875 286.875,358.25 271.875,354.75 257.625,353.0 245.125,353.625 235.375,356.875 229.0,363.375 226.75,373.0 228.75,385.75 234.875,400.875 244.5,417.75 256.75,435.625 270.625,453.375 285.375,470.625 300.0,486.75 314.25,501.375 327.5,514.375"/>
    <polyline points="339.875,525.75 351.125,535.5 361.25,543.75 378.5,556.625 392.625,565.25 404.125,570.875 413.75,574.375 422.125,576.375 429.25,577.375 435.625,577.75 458.125,577.625"/>
    <polyline points="460.125,577.625 465.875,578.0 471.0,579.0 475.5,580.375 479.625,582.25 483.125,584.875 487.0,589.25 489.125,593.375 490.5,598.25"/>
    <polyline points="490.75,600.125 490.75,606.375 490.0,611.25 487.25,619.875 484.125,626.625 479.625,634.25 473.375,643.0 464.75,653.125 459.375,658.75 453.25,664.75 438.125,677.625 429.125,684.625 419.0,691.875 407.75,699.125 395.5,706.25 382.25,713.0"/>
    <polyline points="368.375,719.125 354.0,724.125 339.75,727.5 326.0,728.75 313.5,727.625 302.875,723.625 294.625,716.5 289.25,706.625 286.625,694.0 286.875,679.375 289.625,663.375 294.5,646.625 300.875,629.75 308.25,613.375 316.25,597.875 324.5,583.375 332.625,570.125 340.625,558.25 348.125,547.625 355.25,538.375 361.875,530.25 373.75,516.875 383.875,507.0 388.375,503.125"/>
    <polyline points="392.5,499.75 399.875,494.375 408.875,488.75 416.125,485.0 425.125,481.0 431.875,477.25 434.375,474.625 435.0,473.25"/>
    <polyline points="435.25,472.5 435.5,471.0 434.75,467.625 433.875,465.75 431.0,461.5 427.75,458.0 421.875,452.625 409.375,443.375"/>
    <polyline points="406.75,441.75 398.125,436.5 391.625,433.0 376.875,426.125 365.0,421.75 357.0,419.625 349.5,418.25 342.75,418.125 337.375,419.375 335.375,420.625 333.875,422.25 332.875,424.25 332.5,426.625 332.625,429.375"/>
    <polyline points="333.375,432.5 336.75,439.5 339.25,443.25 345.375,451.125 353.0,459.0 357.25,462.875 366.0,470.125 370.5,473.375 375.125,476.625 384.125,482.125 388.5,484.625 397.125,488.875 409.125,493.75 419.875,497.0 426.375,498.375"/>
    <polyline points="429.5,499.0 437.875,500.125 445.125,500.5 456.75,500.0 465.0,498.375 469.875,496.5 471.25,495.625"/>
    <polyline points="472.0,495.25 473.5,493.75 474.5,492.25 475.0,491.125 475.25,488.625 474.125,484.375 471.875,480.25 470.5,478.375"/>
    <polyline points="469.875,477.375 463.0,469.25 450.0,457.0 437.625,447.0 420.0,434.5"/>
    <polyline points="415.625,431.625 400.5,422.375 381.5,411.875 366.625,404.625 350.0,397.375 332.125,390.875 323.0,388.25 313.875,386.125 305.25,384.75 297.25,384.375 290.125,385.125 284.25,387.125 280.0,390.5 277.625,395.375 277.125,401.625 278.625,409.125 282.0,417.75 287.125,427.125 293.625,437.125"/>
    <polyline points="301.375,447.25 309.875,457.25 318.875,467.0 328.125,476.25 337.5,484.75 355.375,499.75 372.0,511.625 379.625,516.5 386.875,520.625 400.125,527.375 411.875,532.125 417.25,533.875 427.125,536.625 435.875,538.375 450.875,540.25 457.375,540.625"/>
    <polyline points="460.375,540.75 488.5,541.5 500.375,542.875 509.125,544.875"/>
    <polyline points="510.5,545.25 522.375,549.625 536.5,555.875 547.0,559.625"/>
    <polyline points="549.0,560.125 558.0,561.875 563.375,562.25 572.75,561.875 580.375,560.75 589.125,558.5 594.125,556.875 599.625,554.875 612.0,549.375 626.75,541.375 635.125,536.25 654.125,523.125 664.625,515.125 675.75,506.0 687.375,495.75"/>
    <polyline points="699.125,484.625 710.875,472.5 722.125,460.0 732.25,447.375 740.75,435.125 747.125,424.0 750.625,414.5 751.25,407.25 748.75,402.625 743.375,400.625 735.625,401.375 725.875,404.5 714.75,409.5 703.125,415.875 691.25,423.0 679.625,430.625 658.125,445.75 617.75,475.125 601.25,485.625"/>
    <polyline points="596.625,488.25 588.5,492.25 581.375,495.0 572.125,497.375 564.125,498.375 557.125,498.375 548.75,497.5 539.625,495.5 534.5,493.875"/>
    <polyline points="533.0,493.375 525.375,490.25 515.625,484.875 506.375,478.25 498.25,471.125"/>
    <polyline points="496.75,469.875 471.125,444.75 455.75,430.75 442.625,419.875 431.25,411.125 424.375,406.25"/>
    <polyline points="416.75,400.75 397.75,388.25 372.75,373.0 357.25,364.25 339.375,354.625 318.875,344.25 295.625,333.25 269.75,322.25 241.75,312.0 213.0,303.625 185.5,299.125 162.375,300.25 146.875,309.25 141.875,326.875 148.25,352.75 164.75,384.875 188.375,420.25 215.25,455.75 242.125,489.125 288.5,545.25 306.25,567.25 320.375,585.5 331.25,600.5"/>
    <polyline points="339.5,612.625 349.625,629.625 355.5,641.625 356.375,642.75 357.0,642.75 357.75,641.875 362.875,630.375 367.375,621.75 376.625,607.375 384.0,597.875 391.875,589.0 400.0,580.875 408.25,573.625"/>
    <polyline points="412.25,570.375 424.0,562.125 434.875,555.75 445.0,551.0 451.25,548.5 457.0,546.5 465.125,544.25 474.625,542.375 485.0,541.375"/>
    <polyline points="486.875,541.25 497.125,541.5 506.0,542.875 515.375,545.5 523.0,548.625"/>
    <polyline points="524.375,549.125 540.125,555.875 545.375,557.625 553.375,559.625 563.375,560.625 572.625,560.25"/>
    <polyline points="576.125,559.875 588.5,557.125 593.25,555.625 604.25,551.375 617.125,545.0 624.5,541.0 632.5,536.125 650.5,524.0 660.375,516.5 671.0,508.0 682.0,498.5 693.25,488.125 704.5,476.875 715.25,465.125 725.25,453.125 733.875,441.375 740.625,430.5 745.0,420.875 746.625,413.125 745.375,407.75 741.375,404.875"/>
    <polyline points="734.875,404.5 726.375,406.375 716.375,410.375 705.375,415.75 694.125,422.125 671.875,436.5 620.0,473.0 607.875,480.875 597.75,486.75 589.125,491.0 581.625,494.0 572.0,496.75 566.375,497.625"/>
    <polyline points="563.75,497.875 558.75,498.125 552.0,497.875 542.125,496.375 531.875,493.5 525.75,491.0 518.625,487.5"/>
    <polyline points="517.25,486.75 509.25,481.5 501.125,475.125 489.25,464.25 480.25,455.5"/>
    <polyline points="478.25,453.5 463.0,439.375 456.25,433.5 443.625,423.125 432.75,414.875 410.875,399.5 401.5,393.375 378.625,379.375 364.625,371.25 348.5,362.5 330.25,353.125 309.375,343.125 286.25,332.875 261.0,323.0"/>
    <polyline points="234.625,314.5 208.375,308.5 184.75,306.75 166.25,311.125 155.875,322.75 155.125,342.125 164.375,368.125 181.875,398.875 204.75,431.5 229.75,463.875 254.5,493.875 296.875,544.0 326.875,580.125 345.875,604.5 363.5,628.875 365.5,631.25 367.125,632.625 368.5,633.125 369.75,632.75 371.0,631.75"/>
    <polyline points="372.375,630.0 381.875,615.625 387.125,608.5 396.25,597.75 402.875,591.0 409.75,584.75 416.625,579.25 423.5,574.375 433.375,568.25 439.75,565.0 445.75,562.375"/>
    <polyline points="448.75,561.125 457.0,558.375 464.75,556.375 476.125,554.75 484.25,554.625 489.75,555.0 495.0,555.75 501.375,557.375"/>
    <polyline points="502.875,557.875 510.375,560.875 516.125,563.875 521.875,567.375 535.875,576.75 541.375,580.0"/>
    <polyline points="543.25,581.125 552.25,585.25 557.625,587.0 563.875,588.25 571.375,588.75 580.375,588.25 591.625,586.0 598.25,584.0 605.875,581.25 614.375,577.5 624.25,572.625 635.5,566.375 648.5,558.375 663.25,548.375 680.125,535.875 699.125,520.625 720.125,502.25 742.75,480.75"/>
    <polyline points="766.25,456.375 789.25,429.75 809.75,402.5 825.25,376.875 833.5,355.5 833.375,340.75 824.5,334.25 808.5,335.875 787.75,344.5 765.0,358.125 742.5,374.625 721.75,392.0 703.625,409.125 688.25,425.25 675.875,439.75 666.0,452.75 658.375,464.0 652.5,473.75 648.125,482.25 642.375,495.625 637.375,508.75 636.0,511.75 634.5,514.125"/>
    <polyline points="632.875,516.0 631.125,517.375 626.875,518.875 624.5,519.25 619.125,519.0 609.875,517.5 580.875,510.75 561.625,507.125"/>
    <polyline points="559.125,506.75 532.875,503.375 519.375,500.75"/>
    <polyline points="518.375,500.5 511.875,498.25 506.75,495.75 502.0,492.75 497.0,489.0"/>
    <line x1="496.125" x2="464.5" y1="488.25" y2="459.625"/>
    <polyline points="462.375,457.75 446.375,444.625 426.5,430.125 416.0,423.125 403.375,415.25 388.375,406.5 370.5,396.875 360.375,391.875 337.75,381.625 325.375,376.625 312.5,372.0 299.25,368.0"/>
    <polyline points="286.25,365.0 273.875,363.25 262.75,363.25 253.5,365.375 246.75,369.875 243.25,377.0 243.0,386.5 246.25,398.25 252.625,411.875 261.625,426.5 272.5,441.75 284.75,456.75 297.5,471.25 310.375,484.875 322.875,497.25 334.75,508.375 346.0,518.125 356.375,526.625 374.75,540.125 390.125,549.625 396.75,553.125 403.0,556.125 414.0,560.375"/>
  </g>
</svg>
