<?xml version="1.0" encoding="utf-8" ?>
<svg xmlns="http://www.w3.org/2000/svg" xmlns:cc="http://creativecommons.org/ns" xmlns:dc="http://purl.org/dc/elements/1.1/" xmlns:ev="http://www.w3.org/2001/xml-events" xmlns:inkscape="http://www.inkscape.org/namespaces/inkscape" xmlns:rdf="http://www.w3.org/1999/02/22-rdf-syntax-ns" xmlns:sodipodi="http://sodipodi.sourceforge.net/DTD/sodipodi-0.dtd" xmlns:xlink="http://www.w3.org/1999/xlink" baseProfile="tiny" height="27.09333333cm" version="1.2" viewBox="0 0 1024.0 1024.0" width="27.09333333cm">
  <metadata>
    <rdf:RDF>
      <cc:Work>
        <dc:format>image/svg+xml</dc:format>
        <dc:source>vpype read './original_svgs/Strange Attractors #74.svg' linemerge linesimplify write './Strange Attractors #74.svg'
</dc:source>
        <dc:date>2024-08-05T01:35:23.245880</dc:date>
      </cc:Work>
    </rdf:RDF>
  </metadata>
  <defs/>
  <g fill="none" id="layer1" inkscape:groupmode="layer" inkscape:label="1" stroke="black" stroke-width="0.7mm" style="display:inline">
    <polyline points="788.75,533.875 772.25,507.125 759.5,484.125 750.0,464.75 743.25,449.0 732.875,420.125 730.875,415.75 728.75,413.75 726.25,413.625 723.125,415.25 719.5,418.25 692.375,445.625 679.125,457.875 672.375,463.75 659.25,474.375 652.75,479.125 640.5,487.375"/>
    <polyline points="634.625,490.875 623.75,496.875 618.625,499.375 604.5,505.25 596.125,508.0 588.625,510.125 578.5,512.5 567.125,514.375 550.0,516.125"/>
    <polyline points="548.25,516.25 532.0,517.375 523.625,518.25"/>
    <polyline points="523.125,518.375 519.25,519.125 514.375,520.625"/>
    <polyline points="514.0,520.75 510.5,521.125 506.5,520.5 498.375,517.5"/>
    <polyline points="496.875,516.75 487.125,512.0 467.5,501.0 404.125,463.125 387.75,453.75 372.125,445.375"/>
    <polyline points="365.125,442.0 358.875,439.25 353.75,437.375 349.625,436.5 346.875,436.625 345.5,437.75 345.375,439.75 346.5,442.75 348.75,446.5 351.875,450.75 355.875,455.375 365.625,465.5 376.625,475.375 393.25,488.5 403.875,495.5 413.625,501.25 422.625,505.625 430.75,508.875"/>
    <polyline points="434.5,510.125 441.5,512.125 447.875,513.5 453.5,514.375 461.0,515.0 467.5,515.0 474.875,514.5 486.875,512.375"/>
    <polyline points="488.0,512.125 493.375,510.375 496.875,508.75 500.75,506.25 503.875,503.125"/>
    <polyline points="504.375,502.75 507.75,498.125 513.375,489.375 520.875,479.5"/>
    <polyline points="522.375,477.625 530.5,468.625 543.375,455.875 564.375,437.375 579.5,425.125 598.625,410.375 622.75,393.125 652.0,374.0 668.25,364.125 685.125,354.75 702.25,346.25 718.875,339.25 734.25,334.625"/>
    <polyline points="747.375,332.875 757.5,334.5 764.125,339.75 766.875,348.625 765.875,360.5 761.625,374.875 754.625,390.625 745.875,407.25 735.875,423.625 725.25,439.5 714.625,454.25 704.25,467.75 685.0,490.625 668.25,507.875 654.125,520.625 647.875,525.5 642.125,529.5 632.0,535.75 627.5,538.0 615.75,542.625"/>
    <polyline points="612.25,543.5 606.125,544.875 595.75,546.125 581.25,546.625 575.25,547.25 572.0,548.125 570.875,548.75"/>
    <polyline points="570.5,549.125 569.75,549.875 569.375,550.875 569.375,552.0 570.0,554.125 574.25,559.875 578.25,563.875 586.5,571.125 595.875,578.5"/>
    <polyline points="599.75,581.5 628.375,602.25 655.75,621.0 679.625,636.875 693.375,645.875 708.25,655.125 723.75,664.625 739.75,673.875 755.5,682.375 770.125,689.375 782.625,693.875 792.0,695.375 797.5,692.875 798.375,686.375 794.75,675.75 787.125,661.75 776.125,645.0 763.125,626.75 748.875,608.0"/>
    <polyline points="734.375,589.5 707.25,555.5 684.5,527.75 659.125,497.75 642.25,479.25 638.0,475.0 630.875,468.625 625.25,464.5 622.75,463.0 618.5,461.0 614.75,460.0 611.375,459.625 606.875,459.875"/>
    <polyline points="605.5,460.125 593.875,462.875 589.5,463.625 586.25,463.625 584.375,462.625"/>
    <polyline points="584.125,462.375 583.875,460.875 584.375,459.25 586.0,456.625 588.0,454.25 592.875,449.625 601.375,443.25"/>
    <polyline points="603.0,442.125 610.0,437.75 617.5,434.0 622.875,431.875 627.625,430.75 631.125,430.875 632.75,431.625 633.375,432.25 633.75,433.0 633.875,434.875 633.25,437.25"/>
    <polyline points="632.625,438.625 629.75,443.125 627.125,446.375 620.5,452.875 616.75,456.0 608.75,461.75 604.625,464.25 594.875,469.375 589.375,471.625"/>
    <polyline points="587.625,472.25 578.5,474.875 571.5,475.625 568.125,475.25 566.375,474.5 565.125,473.375 564.625,471.75"/>
    <polyline points="564.625,471.125 565.875,467.25 567.75,464.25 570.625,460.625 576.375,454.75 586.875,445.5 602.0,434.375"/>
    <polyline points="605.5,432.0 621.25,422.5 633.75,416.125 641.875,413.0 649.375,410.875 652.625,410.375 655.625,410.375 658.125,410.75 660.125,411.5 661.625,412.75 662.625,414.5 663.125,416.625 662.5,421.875 661.375,425.0 657.75,432.0 652.625,439.375"/>
    <polyline points="649.625,443.125 642.875,450.5 631.875,460.75 628.125,463.875 620.5,469.5 609.5,476.625 602.5,480.5 595.875,483.75 586.625,487.625 578.375,490.5 568.75,493.125"/>
    <polyline points="566.5,493.625 560.5,494.875 553.625,495.875 546.75,496.375 540.375,496.25 535.25,495.125"/>
    <polyline points="534.75,494.875 533.75,494.375 532.0,492.625 531.375,490.875 531.375,488.5 533.0,483.875 535.5,479.625"/>
    <polyline points="536.25,478.5 542.125,471.0 549.75,462.875 561.25,452.0 578.5,437.5 596.625,423.75 611.5,413.25 628.75,402.0 638.125,396.25"/>
    <polyline points="648.0,390.625 658.0,385.25 668.125,380.375 678.125,376.25 687.5,373.0 696.125,370.875 703.75,370.125 709.875,371.0 714.375,373.5 717.25,377.625 718.125,383.25 717.375,390.25 715.0,398.25 711.125,407.125 706.25,416.375 700.375,425.875 693.875,435.25 679.875,453.0 665.5,468.5 651.75,481.5 645.25,487.0 633.0,496.25"/>
    <polyline points="627.25,500.0 621.75,503.375 611.75,508.75 602.75,512.75 590.875,517.0 580.75,519.625 572.0,521.25 560.25,522.75 549.5,523.5"/>
    <polyline points="548.0,523.625 533.875,524.75 526.125,526.0"/>
    <polyline points="525.625,526.125 522.0,526.625 519.75,526.625 516.125,526.125 512.125,525.0 504.5,521.75"/>
    <polyline points="502.5,520.75 491.625,515.125 479.625,508.25 448.25,489.125 385.375,450.0 348.625,428.5 337.625,422.75 328.0,418.375 320.25,415.5 314.75,414.625"/>
    <polyline points="311.625,415.625 311.0,418.625 312.5,423.25 316.0,429.5 321.125,436.625 327.5,444.5 342.125,460.875 349.875,468.75 365.125,483.0 372.375,489.25 385.625,499.875 391.75,504.125 402.75,511.0 407.625,513.625 416.625,517.625 424.5,520.125 431.5,521.75 437.75,522.5"/>
    <polyline points="440.625,522.625 448.375,522.375 452.875,521.875 460.75,520.375 471.5,517.0 476.25,515.0 481.125,512.375"/>
    <polyline points="482.0,511.875 487.125,508.0 489.5,505.5 493.375,500.25 497.75,493.25"/>
    <polyline points="498.5,492.0 505.0,482.5 510.375,475.75 518.375,466.75 525.875,459.0 536.0,449.25 549.875,436.75 568.75,420.75 594.75,400.0 629.75,374.0 651.25,359.125"/>
    <polyline points="675.25,343.25 701.5,327.125 729.0,311.875 756.375,299.0 781.625,290.125 802.5,287.125 817.125,291.5 824.0,303.375 823.375,322.125 816.125,345.875 804.25,372.625 789.625,400.125 773.875,426.875 758.5,451.5 744.125,473.75 719.875,509.75 710.125,523.75 694.625,545.25 683.375,559.5 678.875,564.625 674.875,568.625 671.375,571.625 668.125,573.875"/>
    <polyline points="665.125,575.5 662.375,576.5 657.0,577.125 654.375,577.0 651.875,576.5 646.75,575.0 636.625,570.5 616.875,560.875 603.875,555.75"/>
    <polyline points="601.875,555.125 593.25,552.75 589.0,552.0 583.25,551.625 580.75,552.0 578.5,553.0 577.75,554.25 577.625,555.375"/>
    <polyline points="577.75,556.0 578.25,557.375 579.875,560.0 582.625,563.25 592.875,572.625 604.875,582.0 618.0,591.625 643.25,609.125"/>
    <polyline points="651.375,614.375 669.625,626.375 690.625,639.5 713.5,652.75 725.0,658.875 735.875,664.25 745.875,668.25 754.25,670.75 760.625,671.125 764.5,669.125 765.5,664.625 763.75,657.625 759.25,648.375 752.5,637.25 743.75,624.875 733.875,611.75 712.25,585.25 701.375,572.75 680.875,550.125 662.75,531.625"/>
    <polyline points="654.75,523.875 640.625,511.25 628.75,501.875 618.75,495.125 610.25,490.25 606.5,488.375 599.75,485.625 591.125,483.0 584.125,481.625 570.5,480.125"/>
    <polyline points="569.25,479.875 567.0,479.625 563.375,478.625 561.5,477.625 560.5,476.75 560.0,475.75 559.625,473.875 560.375,470.75 563.5,465.625"/>
    <polyline points="564.5,464.375 569.625,458.5 575.125,453.125 579.75,449.125 591.375,439.875 602.375,431.875 615.375,423.5 624.875,418.0 634.75,412.875 644.5,408.625"/>
    <polyline points="649.125,407.0 653.5,405.75 661.25,404.625 664.5,404.875 667.0,405.625 669.0,407.0 670.375,408.875 671.0,411.25 671.0,414.25 670.375,417.5 669.125,421.25 667.25,425.25 662.125,433.875 655.375,442.75 651.625,447.125 643.5,455.5 635.0,463.125 626.5,469.875 618.125,475.625"/>
    <polyline points="614.125,478.25 602.5,484.75 595.375,488.125 588.75,491.0 579.625,494.25 574.125,495.875 560.125,499.125 547.875,500.75"/>
    <polyline points="546.375,500.875 541.25,501.25 533.5,501.125 529.5,500.5 526.375,499.125"/>
    <polyline points="526.0,498.875 524.5,497.125 524.125,495.5 524.125,493.625 525.5,489.0 527.375,485.5"/>
    <polyline points="528.0,484.375 532.25,478.25 539.625,469.5 546.375,462.625 559.25,450.625 579.125,434.0 592.5,423.75 608.75,412.0"/>
    <polyline points="617.875,405.75 638.5,392.5 649.625,385.875 661.25,379.5 673.0,373.5 684.625,368.375 695.75,364.375 705.875,361.625 714.75,360.75 721.875,361.75 727.0,364.875 729.875,369.875 730.625,376.875 729.125,385.5 725.875,395.25 720.875,405.875 714.75,416.875 707.625,428.0 700.0,438.75 692.125,449.125 684.125,458.75 668.375,475.75 653.75,489.5"/>
    <polyline points="646.875,495.125 634.375,504.5 623.125,511.5 613.125,516.625 604.25,520.375 596.375,523.125 586.0,525.75 574.75,527.625 558.125,529.0"/>
    <polyline points="556.5,529.125 541.375,530.375 533.625,532.125"/>
    <polyline points="533.0,532.25 529.875,532.875 527.375,533.0 521.875,531.875 515.625,529.375 501.75,522.125"/>
    <polyline points="497.625,519.75 465.75,500.125 368.0,436.875 329.625,412.875 311.25,402.25 294.75,393.375 281.5,387.5 272.125,385.125 267.25,386.625 266.875,391.875 270.625,400.5 277.5,411.625 286.625,424.25 297.0,437.625 308.0,451.0"/>
    <polyline points="318.875,463.875 338.875,486.375 355.75,504.0 369.375,517.125 375.25,522.125 385.25,529.625 393.625,534.375 397.375,536.0 400.875,537.25 407.25,538.5 413.125,538.75 421.0,537.875 426.0,536.75 432.75,534.625"/>
    <polyline points="435.0,533.75 443.0,530.625 453.375,526.0 463.0,521.25 471.125,516.375"/>
    <polyline points="471.875,515.875 476.75,511.875 479.75,508.25 481.25,505.625 483.75,499.25"/>
    <polyline points="484.125,498.25 485.125,495.125 488.0,488.375 492.375,480.625 498.25,472.5 508.125,460.75 518.75,449.75 534.5,434.875 545.0,425.375 573.875,400.75"/>
    <polyline points="593.375,385.0 617.125,366.625 645.75,345.25 679.875,321.125 719.125,295.125 762.25,269.25 806.25,246.5 846.625,231.625 877.5,229.25 894.25,242.125 895.375,269.875 883.375,308.625 862.875,352.875 839.25,397.625 795.875,476.375 779.375,508.125 766.75,534.875 757.625,556.875 751.375,574.75 747.25,589.125 741.875,615.0 740.5,618.75 738.875,620.375"/>
    <polyline points="736.5,620.25 733.375,618.375 729.25,615.125 698.125,585.375 675.5,565.0 660.875,552.75 647.125,542.375 634.5,533.75 617.75,523.875 608.0,519.125 599.125,515.5 591.25,512.875"/>
    <polyline points="587.5,511.75 580.75,510.0 566.375,507.5 549.625,506.125 536.125,505.75"/>
    <polyline points="535.125,505.75 524.375,504.875 521.625,504.0 520.875,503.5"/>
    <polyline points="520.625,503.25 519.5,502.25 518.75,500.375 518.75,497.75 519.5,494.75"/>
    <polyline points="519.75,494.125 520.5,492.125 523.25,487.0 529.5,478.25 533.875,473.0 539.875,466.5 548.25,458.375"/>
    <polyline points="551.625,455.125 564.5,443.75 582.5,429.25 607.0,411.0 627.5,397.0 639.0,389.625 664.0,375.125 676.875,368.5 689.75,362.625 702.125,358.0 713.375,355.0 723.125,354.0 730.875,355.25 736.25,358.875 739.125,364.875 739.375,373.0 737.25,382.875 733.0,394.125"/>
    <polyline points="727.125,406.125 720.0,418.5 712.0,430.625 703.625,442.5 695.0,453.625 686.375,463.875 678.0,473.25 669.875,481.625 654.875,495.75 648.0,501.5 635.375,510.75 629.625,514.375 619.25,520.125 610.0,524.25 601.875,527.25 591.375,530.0 582.625,531.5"/>
    <polyline points="580.0,531.875 572.875,532.625 556.0,533.625 547.875,534.625 545.0,535.375"/>
    <polyline points="544.375,535.5 541.25,536.875 537.125,539.375 535.125,539.875 532.125,539.5"/>
    <polyline points="531.0,539.25 526.625,537.625 516.375,532.5 502.5,524.25 479.125,509.375 439.375,483.0 348.875,422.125 320.0,403.125 290.75,384.375 263.125,367.625 239.75,355.125 223.0,348.75"/>
    <polyline points="214.375,349.625 214.25,358.0 221.25,372.5 233.25,391.375 304.75,490.375 323.25,517.75 340.625,544.875 348.25,555.625 351.5,559.375 354.625,562.125 357.625,564.0 360.75,565.25 363.875,565.75 367.125,565.625 370.5,565.0 377.875,562.75 381.625,561.0"/>
    <polyline points="385.625,559.25 421.125,539.75 431.75,534.25 447.125,527.0 455.125,523.75 466.25,519.75"/>
    <polyline points="468.25,519.125 486.125,513.625 492.875,511.375 497.25,509.5"/>
    <polyline points="497.875,509.25 500.125,508.0 503.0,505.875 505.625,503.125 508.625,499.0"/>
    <polyline points="509.0,498.375 514.75,489.25 519.375,482.875 528.875,471.625 536.625,463.75"/>
    <polyline points="539.75,460.625 547.375,453.375 557.125,444.75 569.5,434.25 585.25,421.625 605.25,406.75 629.875,389.5 659.125,371.0 675.125,361.75 691.375,353.25 707.625,345.875 723.0,340.25 736.75,337.0 748.0,336.875 756.25,340.0 761.0,346.5 762.125,356.25 759.875,368.625 754.75,382.875"/>
    <polyline points="747.375,398.25 738.5,414.0 728.625,429.625 718.375,444.375 708.125,458.25 698.125,470.75 688.625,481.875 671.375,500.375 663.625,507.75 656.5,514.125 643.75,524.125 638.125,527.875 628.125,533.625 619.375,537.625 608.5,541.125 602.25,542.375 594.25,543.375"/>
    <polyline points="591.875,543.625 575.875,544.375 570.25,545.125 567.875,545.75 565.625,547.0 564.625,548.75"/>
    <polyline points="564.5,549.375 565.0,551.875 567.75,556.125 570.75,559.5 577.125,565.625 595.125,580.125 610.625,591.625"/>
    <polyline points="617.25,596.5 654.75,622.75 682.0,641.25 698.0,651.75 734.375,674.875 754.0,686.625 773.375,697.375 791.375,706.25 806.375,711.875 817.125,713.0 822.25,708.875 821.125,699.0 814.125,683.75 802.25,664.375 787.0,642.375 770.0,619.125 720.75,553.625 695.5,519.5"/>
    <polyline points="685.625,505.5 664.625,475.0 650.5,453.375 644.75,446.25 643.25,445.125 640.375,444.0 639.0,444.0 636.125,444.75 633.125,446.375 620.125,455.375"/>
    <polyline points="618.125,456.75 607.625,463.375 599.375,467.75 593.5,470.375 583.125,474.0 577.25,475.375 573.625,475.75"/>
    <polyline points="572.5,475.875 568.0,475.625 566.125,474.875 564.5,473.375 564.125,471.625 564.5,469.625 565.625,467.0 568.625,462.625"/>
    <polyline points="569.75,461.375 575.125,455.625 585.375,446.5 596.875,437.75 603.75,433.0 611.25,428.125 623.5,421.0 636.375,414.75 644.5,411.75"/>
    <polyline points="648.25,410.75 654.875,409.75 657.625,410.0 660.0,410.625 661.75,411.625 663.0,413.125 663.75,415.125 663.875,417.5 663.5,420.25 662.625,423.25 661.125,426.625 657.0,433.875 654.375,437.625 651.5,441.5 644.875,449.0 637.5,456.125 630.0,462.75 622.25,468.625 614.75,473.75"/>
    <polyline points="611.125,476.0 604.0,480.125 594.0,485.0 582.0,489.625 574.125,492.125 565.125,494.375 559.25,495.5 549.625,496.625"/>
    <polyline points="548.25,496.75 542.375,496.875 535.75,496.0 534.0,495.375 532.25,494.25 530.875,492.25"/>
    <polyline points="530.75,491.875 530.625,489.75 531.75,485.375 535.25,479.25 539.5,473.625 548.25,464.125"/>
    <polyline points="550.625,461.75 559.25,453.5 571.0,443.375 593.25,425.875 616.0,409.875 624.75,404.25 634.125,398.375 654.0,387.0 664.25,381.75 674.5,377.125 684.375,373.375 693.5,370.75 701.75,369.375 708.625,369.5 713.875,371.375 717.5,374.875"/>
    <polyline points="719.25,380.0 719.125,386.5 717.25,394.375 714.0,403.0 709.375,412.25 703.75,421.875 697.375,431.5 690.5,440.875 683.375,449.875 668.875,466.125 661.75,473.25 648.125,485.5 635.625,495.25 629.75,499.25 618.875,505.875 609.125,510.75 600.375,514.5 588.875,518.25"/>
    <polyline points="585.5,519.125 579.125,520.625 565.875,522.75 538.125,525.0"/>
    <polyline points="537.125,525.125 530.25,525.875 524.25,527.0 521.5,527.125"/>
    <polyline points="520.875,527.125 519.5,527.125 514.5,526.0 507.75,523.5 504.0,521.75 486.0,512.0 465.0,499.5"/>
    <polyline points="458.125,495.25 386.375,450.5 373.5,442.625 348.0,427.75 336.375,421.625 326.125,416.75 317.875,413.5 311.875,412.25 308.375,413.125 307.375,416.125 308.875,420.875 312.375,427.25 317.625,434.75 324.125,442.875 339.375,460.0 355.25,476.0 363.0,483.125"/>
    <polyline points="370.375,489.625 383.875,500.5 395.75,508.75 406.0,514.625 415.125,518.75 426.5,522.125 429.875,522.875 436.125,523.5 441.75,523.625 446.75,523.375 453.375,522.5 460.875,520.75"/>
    <polyline points="462.5,520.25 469.875,517.75 475.75,515.125 481.25,511.875 484.25,509.625 487.375,506.625"/>
    <polyline points="487.875,505.875 491.125,501.625 497.375,491.25 502.875,483.125 510.375,473.75"/>
    <polyline points="512.875,470.875 519.25,463.875 533.25,450.0 539.625,444.125 555.875,429.75 578.375,411.125 609.375,387.0 628.875,372.75 651.25,357.125 676.375,340.375 704.0,323.25 733.125,306.875 762.125,293.125 788.875,283.625 810.75,280.75 825.75,285.875 832.375,299.125 830.75,319.75 822.125,345.625 808.875,374.25"/>
    <polyline points="793.125,403.5 776.5,431.5 760.625,457.25 746.125,480.0 704.875,542.5 692.75,560.0 684.0,571.125 677.25,577.625 674.25,579.625 671.5,580.875 668.75,581.625 666.125,581.75 663.5,581.5 658.25,580.0 652.75,577.625 644.125,573.0"/>
    <polyline points="641.25,571.375 620.875,560.25 610.125,555.25 600.5,551.5 592.0,548.875 581.625,546.75"/>
    <polyline points="580.25,546.625 574.125,546.25 570.625,546.75 568.125,547.75 566.875,549.375 566.75,551.0 568.25,554.625"/>
    <polyline points="568.875,555.5 573.75,561.125 578.625,565.75 592.125,576.75 610.625,590.625 623.875,600.25 651.375,619.375 690.5,645.5"/>
    <polyline points="706.25,655.625 740.875,676.875 758.625,686.875 775.5,695.5 790.25,701.625 801.875,704.375 808.875,702.875 810.75,696.375 807.375,685.125 799.125,669.75 787.0,651.125 772.375,630.625 740.875,588.875 657.625,481.375 644.75,465.375"/>
    <polyline points="641.5,461.75 636.5,456.625 632.375,453.625 628.875,452.125 625.75,451.625 621.375,452.375 616.875,454.125 600.5,462.375"/>
    <polyline points="599.125,463.0 591.125,466.125 583.75,467.75 581.375,467.875 578.875,467.375 577.25,465.75"/>
    <polyline points="577.25,465.375 577.25,463.75 578.0,461.75 580.25,458.375 584.0,454.25 587.875,450.625 594.5,445.125 602.875,439.25"/>
    <polyline points="605.25,437.625 615.25,431.75 625.625,426.75 632.875,424.5 637.0,423.75 638.75,423.75 641.5,424.375 643.375,426.0 643.75,427.125 644.0,428.5 643.375,431.625 642.75,433.5 640.5,437.625"/>
    <polyline points="639.125,439.75 635.5,444.375 631.375,449.0 626.625,453.5 621.625,457.75 613.75,463.625 603.25,470.125 598.125,472.75 588.75,477.0 580.25,479.875"/>
    <polyline points="578.375,480.5 574.75,481.5 568.25,482.75 560.75,483.25 557.875,483.0 555.5,482.375 553.375,481.0 552.5,479.5"/>
    <polyline points="552.375,479.0 552.5,476.25 553.375,473.625 556.0,469.25 558.0,466.625 563.75,460.25 569.75,454.375 577.75,447.375 584.375,442.125"/>
    <polyline points="588.0,439.25 600.875,429.875 616.25,419.625 633.875,409.5 646.0,403.5 652.0,401.0 657.75,398.875 668.125,396.375 672.625,396.125 676.25,396.625 679.25,397.875 681.375,399.875 682.625,402.625 682.875,406.125 682.375,410.125 681.0,414.75 678.875,419.75 676.0,425.0"/>
    <polyline points="672.625,430.5 664.5,441.5 660.0,446.875 650.375,457.125 640.375,466.25 630.625,474.125 625.75,477.625 612.125,486.25 603.75,490.875 599.75,492.75 592.25,496.0 585.25,498.625 570.375,503.0"/>
    <polyline points="567.75,503.5 562.875,504.625 548.875,506.75 540.0,507.625 529.75,508.0"/>
    <polyline points="529.0,508.0 521.25,507.75 518.0,506.875"/>
    <polyline points="517.75,506.75 516.0,505.0 515.625,503.875 515.625,502.0"/>
    <polyline points="515.625,501.625 515.875,499.875 517.25,495.5 519.25,491.375 522.0,486.75"/>
    <polyline points="522.75,485.75 527.625,479.0 535.75,469.625 549.625,455.875 557.75,448.5 574.0,434.875 588.125,423.75 615.75,403.75"/>
    <polyline points="626.875,396.375 638.75,388.625 651.375,380.875 664.625,373.375 678.25,366.25 691.75,360.0 704.75,355.0 716.625,351.75 726.875,350.625 735.0,352.0 740.625,355.75 743.5,362.25 743.625,370.875 741.25,381.375 736.625,393.25 730.375,405.875 722.75,418.875 714.375,431.75 705.5,444.0 696.625,455.5 687.75,466.125 679.125,475.75 663.125,492.0 655.75,498.625 648.75,504.375"/>
    <polyline points="642.25,509.375 636.25,513.625 625.25,520.375 615.5,525.125 607.0,528.5 599.5,530.875 589.75,533.0 576.875,534.625 562.375,535.5"/>
    <polyline points="561.0,535.625 555.125,536.125 550.0,537.125 546.125,538.875 544.0,541.0"/>
    <polyline points="543.75,541.375 542.375,544.125 541.375,545.25 540.5,545.625 538.5,545.625 535.0,544.5 531.0,542.75 521.25,537.25"/>
    <polyline points="516.375,534.375 493.875,520.0 468.75,503.25 341.25,415.5 302.75,389.25 262.625,362.625 224.375,338.5 192.875,321.125 172.375,314.0 165.375,319.0 171.125,335.375 186.0,360.125 226.75,419.875 246.0,449.0 262.5,475.5 275.5,498.875 285.375,519.125 292.5,536.375"/>
    <polyline points="297.5,551.0 301.0,563.125 305.5,580.875 307.625,586.875 310.0,591.0 312.875,593.5 316.5,594.375 320.75,593.75 325.875,592.0 331.625,589.125 344.625,581.0 358.625,571.25 379.375,556.0 398.25,542.625 409.25,535.375 423.625,526.875"/>
    <polyline points="427.875,524.625 431.875,522.625 442.5,518.125 451.5,515.25 456.75,514.0 467.5,512.25 472.75,511.875 483.625,512.0"/>
    <polyline points="484.625,512.125 494.125,513.375 499.25,515.0"/>
    <polyline points="499.5,515.125 500.5,515.625 500.625,516.125 499.375,516.25 497.5,515.75"/>
    <polyline points="497.0,515.625 491.625,513.625 482.0,509.0 461.625,497.875 450.375,491.375"/>
    <polyline points="446.125,488.875 410.5,468.5 389.625,457.75 385.25,455.75 378.0,453.0 373.25,452.375 372.0,452.875 371.5,453.875 371.75,455.375 374.375,459.625 379.25,465.25 385.75,471.5"/>
    <polyline points="389.5,474.625 393.375,477.875 405.625,486.75 417.875,494.25 429.375,500.125 439.75,504.375 449.0,507.375 459.625,510.0 470.625,511.625"/>
    <polyline points="472.5,511.75 477.625,512.25 484.875,512.5 493.375,512.375 499.875,511.875"/>
    <polyline points="500.375,511.875 505.5,511.25 508.5,510.375"/>
    <polyline points="508.75,510.25 510.375,509.375 511.375,507.875"/>
    <line x1="511.5" x2="513.375" y1="507.625" y2="502.125"/>
    <polyline points="513.5,501.75 516.125,495.125 518.5,490.625 521.75,485.5"/>
    <polyline points="522.625,484.375 525.75,480.125 531.625,473.125 540.625,463.625 554.75,450.375 570.375,437.0 576.875,431.75 601.375,413.25 622.25,398.5 634.125,390.625"/>
    <polyline points="646.875,382.625 660.375,374.75 674.375,367.125 688.5,360.125 702.125,354.375 715.0,350.25 726.25,348.25 735.5,348.625 742.25,351.75 746.125,357.5 747.125,365.875 745.375,376.25 741.25,388.25 735.125,401.25 727.625,414.625 719.125,428.0 710.125,441.0 701.0,453.125 683.0,474.5 666.5,491.625 658.875,498.625 651.875,504.75 639.0,514.5"/>
    <polyline points="633.125,518.25 622.75,524.25 618.0,526.5 613.5,528.5 605.5,531.375 601.875,532.375 592.125,534.625 586.5,535.5 579.125,536.25 562.0,537.25"/>
    <polyline points="560.75,537.375 554.875,538.25 550.375,539.875 549.5,540.5 548.125,542.25 547.625,544.375"/>
    <polyline points="547.625,544.875 547.875,547.375 549.625,552.625 550.125,555.25 549.75,555.875 548.875,556.25 546.875,555.75"/>
    <polyline points="545.25,555.125 536.375,550.375 531.375,547.25 504.875,529.75 490.0,519.5 411.75,464.25 317.375,396.75 256.375,353.625 191.25,308.75 131.625,270.25 90.0,249.0 75.375,252.625 86.875,280.375 115.125,324.625 148.625,375.375 178.875,425.5 201.75,471.25 216.375,511.5 223.625,546.5"/>
    <polyline points="225.375,576.5 223.625,601.875 217.75,638.625 217.375,649.25 220.5,654.125 227.25,653.5 237.5,647.75 250.5,638.0 265.125,625.125 280.375,610.625 295.375,595.5 309.5,580.5 322.25,566.25 333.5,553.0 351.5,530.75 377.25,497.125 383.375,490.5 386.0,488.125 388.5,486.5"/>
    <polyline points="391.0,485.25 393.375,484.5 398.125,484.25 403.125,484.875 408.375,486.375 440.5,499.125 454.5,503.75"/>
    <polyline points="456.625,504.375 469.375,507.875 489.75,512.375 494.25,513.125 499.875,514.625 501.625,515.5"/>
    <polyline points="490.25,512.375 496.75,514.25 498.0,514.75 498.75,515.5 497.25,515.5 494.375,514.625 485.875,510.875"/>
    <polyline points="484.5,510.125 473.0,504.25 408.625,467.75 394.0,460.25"/>
    <polyline points="389.625,458.25 382.375,455.375 379.5,454.625 375.875,454.5 375.0,455.25 374.875,456.375 376.625,460.0 380.625,464.875 386.5,470.5 393.375,476.5 405.0,485.125 412.875,490.25 424.375,496.75 431.625,500.125"/>
    <polyline points="435.125,501.625 441.625,504.25 447.625,506.25 458.375,509.125 473.25,511.5 479.875,512.125 487.75,512.375"/>
    <polyline points="488.75,512.375 494.5,512.5 504.75,512.125"/>
    <polyline points="505.125,512.125 508.75,511.875 511.25,511.25 512.0,510.25 512.5,507.5"/>
    <line x1="512.5" x2="513.875" y1="507.25" y2="501.625"/>
    <polyline points="514.0,501.25 515.0,498.25 518.0,491.875 523.125,483.75"/>
    <polyline points="524.125,482.5 532.5,472.375 544.875,459.625 552.125,452.875 566.625,440.25 579.5,429.875 604.625,410.875 614.875,403.75 638.25,388.25 651.25,380.25"/>
    <polyline points="664.875,372.375 678.75,365.0 692.75,358.5 706.125,353.25 718.375,349.875 729.125,348.625 737.5,349.875 743.25,353.75 746.25,360.375 746.25,369.25 743.75,380.25 739.0,392.5 732.5,405.625 724.625,419.0 716.0,432.125 707.0,444.75 697.75,456.625 688.75,467.375 680.125,477.125 663.875,493.625 649.5,506.125 643.0,511.125 631.25,519.0"/>
    <polyline points="626.0,522.125 616.375,526.875 612.0,528.625 604.125,531.375 597.125,533.25 585.375,535.25 578.125,536.0 560.0,537.125"/>
    <polyline points="558.875,537.25 554.125,538.0 549.75,539.625 548.25,540.875 547.25,542.375 546.875,544.5"/>
    <polyline points="546.75,544.875 547.625,551.875 547.375,552.5 546.625,553.0 545.25,553.0 542.75,552.25 535.5,548.5"/>
    <polyline points="531.5,546.125 519.625,538.75 500.0,525.75 467.5,503.375 278.5,370.125 221.625,331.0 167.625,295.875 125.875,272.75 104.625,268.5 106.0,285.125 125.0,318.25 152.875,360.375 181.75,404.75 206.625,446.875 225.25,484.75 237.5,517.875 244.375,546.375 247.0,570.75 247.125,591.25"/>
    <polyline points="246.0,608.0 245.0,620.875 245.375,629.875 247.875,634.75 252.75,635.5 260.25,632.75 269.75,626.75 281.0,618.25 293.125,608.0 317.75,585.375 340.25,563.125 380.375,522.5 390.75,512.5 395.125,508.625 402.625,502.75 405.875,500.625 411.75,497.5"/>
    <polyline points="414.375,496.5 419.375,495.25 421.625,495.0 426.125,494.875 430.375,495.25 436.5,496.375 444.125,498.375 461.875,503.75"/>
    <line x1="463.125" x2="483.75" y1="504.125" y2="510.125"/>
    <polyline points="484.0,510.125 485.375,510.5 478.75,507.375"/>
    <polyline points="477.75,506.875 465.25,500.375 437.625,485.125 421.75,476.75"/>
    <polyline points="418.625,475.125 410.0,471.0 403.25,468.375 399.125,467.75 398.125,468.5 398.625,470.125 400.375,472.5 407.25,478.875 414.375,484.125 422.375,489.125"/>
    <polyline points="425.125,490.75 436.0,496.5 441.25,498.875 451.125,502.75 461.75,506.125 470.75,508.5 478.125,510.0"/>
    <polyline points="479.5,510.25 493.375,513.0 498.25,514.375"/>
    <polyline points="498.625,514.5 500.75,515.375 501.375,515.875 501.5,516.375 500.875,516.625 499.625,516.5 491.75,513.75 483.375,509.75 475.0,505.25"/>
    <polyline points="472.5,503.875 412.25,469.375 395.625,460.5 385.75,455.75 377.875,452.625 372.5,451.375 370.875,451.75 370.125,452.5"/>
    <polyline points="370.125,453.875 372.25,458.125 374.25,460.75 383.375,470.0 391.125,476.625 403.5,485.875 416.0,493.75 424.0,498.0 431.5,501.5 441.75,505.5 453.625,508.875"/>
    <polyline points="456.25,509.5 465.75,511.25 475.375,512.25 488.0,512.5 494.75,512.125"/>
    <polyline points="495.625,512.125 502.75,511.375 507.125,510.375 509.5,509.125 511.0,507.375"/>
    <line x1="511.125" x2="513.625" y1="507.125" y2="500.625"/>
    <polyline points="513.75,500.25 516.0,495.0 518.5,490.375 521.0,486.375 525.875,479.75"/>
    <polyline points="527.25,478.125 534.0,470.375 538.625,465.625 544.375,459.875 555.875,449.25 578.875,430.125 604.25,411.0 625.75,396.125 651.0,380.0 664.75,372.125 678.875,364.625 693.0,358.0"/>
    <polyline points="706.5,352.625 719.0,349.125 729.75,347.75 738.375,349.0 744.25,353.0 747.25,359.625 747.375,368.625 744.75,379.625 739.875,392.125 733.25,405.375 725.375,418.875 716.625,432.25 707.5,445.0 698.375,456.875 680.5,477.625 664.25,494.125 649.875,506.75 643.375,511.75 631.625,519.625 626.25,522.75 616.75,527.5"/>
    <polyline points="612.375,529.25 600.875,533.0 591.375,535.0 578.625,536.5 561.875,537.5 557.5,538.125"/>
    <polyline points="556.625,538.25 552.125,539.5 550.625,540.25 549.5,541.25 548.25,543.625 548.5,547.0"/>
    <polyline points="548.625,547.625 550.25,551.875 552.625,556.625 553.375,559.5 553.25,559.875 552.25,560.125 548.0,558.5"/>
    <polyline points="545.25,557.125 536.5,551.875 520.5,541.375 491.625,521.375 439.625,484.375 285.375,373.25 211.625,320.75 136.375,269.25 75.125,231.875 43.75,222.25 47.5,245.0 76.75,292.5 115.75,351.5 151.625,411.25 178.0,466.0 193.5,514.375 199.25,556.5 197.875,592.875 192.5,623.75 186.25,648.625"/>
    <polyline points="182.25,666.625 182.625,676.75 188.875,678.5 200.625,672.5 216.75,659.875 235.5,642.625 254.875,622.875 273.375,602.125 290.0,582.0 304.375,563.125 316.125,546.0 325.625,530.875 333.0,517.75 338.75,506.5 343.0,497.125 351.0,478.0 352.875,474.25 354.875,471.625 356.875,469.875 359.125,469.125 361.625,469.0 364.5,469.625 371.125,472.375"/>
    <polyline points="374.875,474.25 404.375,490.75 412.875,495.0 424.875,500.25 435.625,504.25 445.375,507.125 451.25,508.625 463.75,510.875"/>
    <polyline points="466.0,511.125 473.75,512.0 480.25,512.375 497.75,512.375"/>
    <line x1="498.375" x2="507.75" y1="512.25" y2="511.625"/>
    <polyline points="508.0,511.625 509.875,511.25 511.25,510.5 512.125,508.75 512.75,505.625"/>
    <polyline points="512.875,505.375 513.5,502.625 515.625,496.625"/>
    <polyline points="516.0,496.0 519.5,489.25 525.25,481.0 534.625,470.0 542.0,462.375"/>
    <polyline points="545.125,459.375 561.625,444.5 579.875,429.5 596.0,417.25 615.625,403.125 639.125,387.625 652.125,379.625 665.875,371.875 679.875,364.5 693.75,358.0 707.125,352.875 719.375,349.625 729.875,348.5 738.125,350.0 743.625,354.125 746.375,360.875 746.25,370.0 743.625,381.0"/>
    <polyline points="738.625,393.375 732.0,406.5 724.125,420.0 715.375,433.125 706.375,445.625 697.125,457.375 679.5,477.875 663.375,494.125 656.0,500.75 642.5,511.5 636.5,515.75 625.625,522.375 616.0,527.0 607.625,530.25 600.25,532.5 587.875,535.0"/>
    <polyline points="585.25,535.25 580.25,535.875 565.375,536.75 557.75,537.5 553.375,538.25 550.75,539.25"/>
    <polyline points="550.25,539.5 548.25,541.0 547.5,542.125 547.0,543.75 546.875,545.5 547.75,550.125"/>
    <polyline points="547.75,550.625 547.875,552.5 547.0,553.375 544.75,553.125 541.625,551.875 536.375,549.125 527.5,543.875 512.75,534.375 447.125,489.125 335.625,410.125"/>
    <polyline points="282.625,372.75 225.0,333.125 169.5,296.75 125.625,271.875 102.25,265.875 102.25,281.25 120.75,314.125 148.875,356.625 178.25,401.75 203.625,444.75 222.625,483.5 235.125,517.375 242.0,546.5 244.625,571.5 244.375,592.5 242.0,622.875 242.25,632.0 244.75,636.875 249.875,637.625 257.625,634.5 267.5,628.0 279.125,619.125 291.625,608.5 316.75,585.0"/>
    <polyline points="328.625,573.25 384.75,515.5 393.875,507.0 401.125,501.125 404.25,499.0 410.0,496.125 412.5,495.125 417.375,494.0 419.75,493.75 426.375,494.0 434.75,495.625"/>
    <polyline points="436.75,496.125 462.5,504.125 474.375,507.5"/>
    <polyline points="475.25,507.75 486.625,511.0 482.0,509.0 467.5,501.5"/>
    <polyline points="465.625,500.5 420.125,475.625 407.875,469.75 400.875,467.125 397.875,466.625"/>
    <polyline points="396.875,466.625 396.125,467.625 396.25,468.5 397.75,470.75 400.5,473.75 409.0,480.875 414.125,484.5 422.5,489.75 431.125,494.5 447.125,501.625"/>
    <polyline points="449.5,502.5 464.75,507.25 476.375,509.875 488.875,512.125"/>
    <polyline points="501.875,515.625 502.625,516.25 502.5,516.875 499.875,516.75"/>
    <polyline points="499.375,516.625 491.625,513.75 484.375,510.25 470.625,502.875 457.125,495.125"/>
    <polyline points="453.125,492.875 423.375,475.625 394.625,459.75 384.375,454.75 376.125,451.375 372.875,450.5 370.5,450.25 368.875,450.5 368.0,451.375 368.0,452.75 368.875,454.75 372.5,460.0 378.375,466.25"/>
    <polyline points="382.0,469.625 389.875,476.5 402.75,486.125 415.5,494.125 423.625,498.375 431.25,502.0 444.75,507.0 453.5,509.375 463.5,511.25 467.875,511.75"/>
    <polyline points="469.875,512.0 477.125,512.5 484.5,512.625 495.625,512.0 499.0,511.5"/>
    <polyline points="499.625,511.5 505.125,510.375 507.375,509.5 508.375,508.75"/>
    <polyline points="508.625,508.625 510.25,507.125 512.0,503.625"/>
    <polyline points="512.125,503.375 515.25,496.0 518.5,489.875"/>
    <polyline points="519.125,489.0 523.0,483.25 529.375,475.375 537.5,466.5 546.375,457.75 558.75,446.5 569.875,437.25 591.875,420.0"/>
    <polyline points="600.875,413.25 621.875,398.375 646.75,382.375 660.375,374.25 674.5,366.625 688.875,359.5 702.75,353.625 715.75,349.5 727.25,347.375 736.625,347.75 743.5,350.875 747.375,356.75 748.375,365.125 746.625,375.75 742.375,387.875 736.125,401.125 728.5,414.75 719.875,428.25 710.75,441.25 701.5,453.5 692.375,464.875 683.375,475.125 666.875,492.375"/>
    <polyline points="659.25,499.375 645.5,510.75 633.5,519.125 623.125,525.0 614.0,529.25 602.25,533.125 592.625,535.25 579.75,536.875 568.375,537.5"/>
    <polyline points="566.875,537.625 560.375,538.125 554.875,539.125 551.375,540.625 550.0,542.0 549.375,543.625"/>
    <polyline points="549.25,544.125 549.125,545.0 549.5,547.125 550.375,549.625 551.875,552.375 555.375,557.5 559.625,562.625"/>
    <polyline points="560.75,563.875 567.875,571.25 581.375,583.375 606.5,603.5 632.0,623.0 676.125,656.125 709.875,681.0 754.75,713.875 813.25,756.125 886.0,807.375 967.75,862.375 1024.0,895.5965"/>
    <polyline points="1024.0,807.5749 1015.375,795.0 942.5,693.625 879.5,594.625 838.625,507.375 821.75,433.375 826.0,371.0 846.0,319.25 875.25,279.125 905.625,253.75 928.75,246.5 938.625,259.125 933.375,289.25 916.125,331.25 892.25,378.375 844.25,467.75 825.25,505.0 810.625,536.25 800.0,561.875 792.5,582.125 783.0,609.25 779.375,616.75 775.5,620.875 770.875,621.75"/>
    <polyline points="765.375,620.0 758.75,615.875 751.125,610.0 733.25,594.375 704.125,567.625 685.25,551.0 668.0,536.75 652.625,525.25 645.75,520.375 633.0,512.5 622.0,506.625 607.75,500.625 599.625,498.125 592.375,496.375"/>
    <polyline points="589.0,495.75 582.875,494.75 574.75,493.875 551.375,492.875 544.125,491.875"/>
    <polyline points="543.375,491.625 540.75,490.625 539.75,489.875 538.625,488.75 537.875,486.125 538.125,484.0 539.375,480.625 541.875,476.375"/>
    <polyline points="542.75,475.125 544.875,472.25 550.75,465.5 559.75,456.5 573.125,444.75 582.0,437.625 598.5,425.25 611.875,416.0 627.25,406.125 644.0,396.375"/>
    <polyline points="652.625,391.875 669.875,384.125 678.125,381.25 685.625,379.375 692.375,378.625 697.875,379.0 702.25,380.75 705.125,383.875 706.625,388.125 706.625,393.625 705.25,400.0 702.625,407.125 698.875,414.875 694.25,422.875 689.0,431.0 683.125,439.0 677.0,446.75 670.625,454.125 657.75,467.375 651.375,473.375 645.125,478.75 633.375,487.875 627.75,491.75"/>
    <polyline points="622.375,495.25 612.375,501.0 603.25,505.375 595.0,508.75 587.5,511.25 577.5,514.0 569.0,515.75 561.625,516.875 546.375,518.5"/>
    <polyline points="544.875,518.625 532.25,519.5 523.0,520.75"/>
    <polyline points="522.5,520.875 515.375,522.375 512.125,522.375"/>
    <polyline points="511.625,522.25 509.625,522.0 505.375,520.75 495.125,516.25 479.0,507.625 461.75,497.5"/>
    <polyline points="456.25,494.25 404.25,462.75 377.125,447.125 368.5,442.5 353.25,435.125 347.25,432.875 342.625,431.625 339.375,431.625 337.625,432.875 337.5,435.125 338.75,438.5 341.25,442.75 345.0,447.625 354.625,458.625 366.25,470.0"/>
    <polyline points="372.25,475.5 384.375,485.375 395.875,493.75 401.375,497.375 411.5,503.25 420.75,507.75 432.875,512.25 436.5,513.375 443.125,514.875 449.125,515.75 457.125,516.375 467.875,516.0"/>
    <polyline points="469.75,515.75 477.75,514.5 486.25,512.25 492.5,509.625 496.5,507.125"/>
    <polyline points="497.125,506.75 500.375,503.875 503.25,500.375 511.25,488.75"/>
    <polyline points="512.125,487.5 519.75,477.625 531.25,465.125 542.375,454.375 552.375,445.25 565.5,434.125 582.375,420.5 604.125,404.0 631.625,384.5 647.5,374.0"/>
    <polyline points="664.875,363.125 683.125,352.5 701.875,342.625 720.5,334.25 737.875,328.0 753.125,325.0 765.25,325.875 773.25,330.875 776.875,340.0 776.25,352.75 771.875,368.375 764.375,385.875 754.75,404.125 743.75,422.25 732.375,439.75 721.0,455.875 709.875,470.5 699.5,483.625 689.875,495.0 681.0,504.875 672.875,513.375 658.75,526.625 652.625,531.625 642.0,539.25"/>
    <polyline points="637.25,542.0 633.0,544.25 625.25,547.5 615.5,550.125 607.5,551.25 602.875,551.5 587.75,551.5 582.625,552.125"/>
    <polyline points="581.875,552.375 579.625,553.625 578.875,554.875 579.0,556.75 580.0,559.0 582.125,561.875 585.5,565.5 592.625,571.875 597.625,575.875"/>
    <polyline points="600.625,578.25 611.5,586.5 632.75,601.375 655.0,616.375 673.25,628.125 694.0,640.875 705.0,647.25 726.875,658.875 737.0,663.5 746.0,666.75 753.25,668.25 758.5,667.75 761.125,664.875 761.25,659.75 758.625,652.25 753.625,642.875"/>
    <polyline points="746.5,631.875 737.875,619.875 728.0,607.25 707.125,582.0 696.625,570.125 676.875,548.875 659.5,531.5 651.625,524.25 644.5,518.0 631.75,507.625 626.25,503.625 616.25,497.125 611.875,494.625 600.5,489.375 594.125,487.125 585.875,485.125"/>
    <polyline points="583.5,484.625 562.5,482.0 559.125,481.0 557.75,480.25 556.0,478.5 555.625,477.375"/>
    <polyline points="555.5,476.75 555.5,475.375 556.125,473.0 558.375,468.875 561.25,465.0 565.375,460.5 575.5,450.75 591.125,438.25"/>
    <polyline points="595.0,435.375 613.125,423.0 623.5,416.75 634.625,410.75 640.125,408.0 651.125,403.375 661.125,400.5 665.5,399.875 669.25,399.875 672.5,400.5 675.0,401.875 676.75,403.875 677.625,406.5 677.75,409.75 677.125,413.5 675.75,417.75 673.75,422.25 671.125,427.125 668.0,432.0"/>
    <polyline points="664.375,437.125 656.25,447.125 647.25,456.5 638.0,464.875 628.75,472.375 619.75,478.625 607.0,486.125 595.5,491.75 582.0,497.0 568.125,500.875"/>
    <polyline points="565.625,501.375 558.875,502.75 546.375,504.5 537.25,505.125 530.0,505.125"/>
    <polyline points="529.25,505.125 526.125,504.875 522.125,503.875 520.5,502.875 519.5,501.75"/>
    <polyline points="519.375,501.5 518.875,499.625 519.0,497.25 520.375,492.75 522.375,488.875"/>
    <polyline points="522.875,488.0 526.375,482.5 532.375,474.875 540.0,466.5 548.25,458.375 559.75,448.0 569.875,439.375 589.75,423.75"/>
    <polyline points="597.875,417.75 606.75,411.25 627.25,397.25 650.875,382.625 663.5,375.5 676.375,368.875 689.25,363.0 701.5,358.375 712.875,355.25 722.625,354.25 730.375,355.5 735.75,359.0 738.625,364.875 739.0,372.875 737.0,382.75 732.875,393.875 727.0,405.75 720.0,418.0 712.125,430.25 703.625,442.0 695.125,453.125 686.5,463.375 678.125,472.75 670.0,481.25"/>
    <polyline points="662.25,488.75 648.125,501.125 635.5,510.375 624.375,517.25 614.5,522.125 602.0,527.0 591.375,529.75 582.5,531.375 577.375,532.0 564.875,532.875"/>
    <polyline points="563.25,533.0 554.625,533.625 546.125,534.75 543.5,535.5 540.625,536.875"/>
    <polyline points="540.125,537.125 536.75,539.0 534.625,539.5 532.5,539.375 529.25,538.5 526.125,537.25 515.75,531.875"/>
    <polyline points="511.875,529.75 495.375,519.75 467.625,501.75 439.25,483.0 350.25,423.125 293.375,386.25 266.25,369.875 243.125,357.5 226.375,350.875 217.5,351.375 216.875,359.125 223.25,373.0 234.75,391.125 249.125,411.625 293.375,471.625"/>
    <polyline points="305.375,488.375 324.25,515.625 346.375,548.75 350.125,553.625 353.5,557.375 356.625,560.125 359.625,562.125 362.75,563.375 365.875,564.0 369.0,564.125 372.375,563.625 379.375,561.625 390.75,556.5 414.0,544.0"/>
    <polyline points="417.625,542.0 431.625,534.625 449.5,526.375 461.5,521.625 479.0,515.625"/>
    <polyline points="480.375,515.25 493.0,510.875 497.875,508.5 501.0,506.25"/>
  </g>
</svg>
