<?xml version="1.0" encoding="utf-8" ?>
<svg xmlns="http://www.w3.org/2000/svg" xmlns:cc="http://creativecommons.org/ns" xmlns:dc="http://purl.org/dc/elements/1.1/" xmlns:ev="http://www.w3.org/2001/xml-events" xmlns:inkscape="http://www.inkscape.org/namespaces/inkscape" xmlns:rdf="http://www.w3.org/1999/02/22-rdf-syntax-ns" xmlns:sodipodi="http://sodipodi.sourceforge.net/DTD/sodipodi-0.dtd" xmlns:xlink="http://www.w3.org/1999/xlink" baseProfile="tiny" height="27.09333333cm" version="1.2" viewBox="0 0 1024.0 1024.0" width="27.09333333cm">
  <metadata>
    <rdf:RDF>
      <cc:Work>
        <dc:format>image/svg+xml</dc:format>
        <dc:source>vpype read './original_svgs/Strange Attractors #536.svg' linemerge linesimplify write './Strange Attractors #536.svg'
</dc:source>
        <dc:date>2024-08-05T01:36:08.425814</dc:date>
      </cc:Work>
    </rdf:RDF>
  </metadata>
  <defs/>
  <g fill="none" id="layer1" inkscape:groupmode="layer" inkscape:label="1" stroke="black" stroke-width="0.7mm" style="display:inline">
    <polyline points="399.75,848.25 380.5,795.0 368.75,744.125 361.75,699.25 357.5,661.625 352.25,607.375 349.875,589.125 347.25,575.5 344.25,566.0 340.875,559.625 337.25,556.125 333.5,555.125 329.5,556.125 325.625,559.0 322.0,563.75 319.0,570.125 316.625,578.125 315.375,587.5 315.75,598.25 317.875,610.125 322.5,622.625 329.625,635.375 339.5,647.875 352.125,659.25 367.125,669.125"/>
    <polyline points="383.625,677.0 401.0,682.5 418.375,685.75 434.875,686.875 450.125,686.375 463.75,684.625 475.5,681.875 485.625,678.625 494.0,674.875 501.125,671.125 507.0,667.25 511.75,663.375 519.125,656.0 522.0,652.5 524.375,649.0 528.25,642.5 538.75,620.5"/>
    <polyline points="539.875,618.125 542.25,613.75 546.0,608.0 551.5,601.5 555.875,597.625 560.625,594.5 565.75,592.25 573.0,590.5 578.75,590.25"/>
    <polyline points="580.75,590.375 584.875,590.875 591.25,592.5 595.625,594.25 600.125,596.625 604.625,599.625 609.125,603.5 611.375,605.75 615.75,611.0 619.875,617.625 621.75,621.375 625.25,630.25 628.0,641.25 629.5,654.5"/>
    <polyline points="629.75,662.25 629.375,670.625 628.5,679.875 626.875,690.0 624.5,700.75 621.125,712.25 616.625,724.5 611.0,737.125 604.125,749.875 595.75,762.375 586.125,774.125 575.25,784.625 563.125,793.125 550.375,799.25 537.125,802.25 523.875,802.0 511.125,798.25 499.25,791.25 488.5,781.5 479.25,769.375 471.375,755.75 465.0,741.25 460.0,726.375 456.25,711.625 453.5,697.375 451.5,683.875"/>
    <polyline points="450.375,671.375 449.625,659.75 449.375,649.125 449.5,630.75 450.875,609.125 454.75,571.75 455.0,562.25 454.75,558.375 453.875,553.5"/>
    <polyline points="453.5,552.0 452.0,548.125 450.625,545.875 449.125,544.0 445.5,540.75 442.125,538.875 435.5,536.75 432.5,536.25 425.875,536.0"/>
    <polyline points="424.0,536.125 420.375,536.375 414.375,537.5 405.875,540.25 399.375,543.5 392.75,548.0 386.625,554.0 384.75,556.375 381.375,561.75 378.875,567.875 377.875,571.25 377.375,574.75"/>
    <polyline points="377.125,578.5 377.25,582.25 377.875,586.25 379.0,590.125 380.5,594.125 382.5,598.0 385.125,601.75 388.125,605.25 391.75,608.625 395.625,611.625 399.875,614.25 404.5,616.375 409.375,618.125 414.25,619.375 424.25,620.5 429.25,620.375 434.0,619.875 438.5,618.875 442.875,617.625 450.75,614.25 457.625,609.875 463.5,604.875"/>
    <polyline points="466.0,602.375 470.5,596.875 474.25,591.375 478.75,583.25 482.25,575.375 484.875,568.125 487.5,559.25 489.625,549.875 490.375,545.0"/>
    <polyline points="490.625,543.5 491.125,537.0 490.625,529.875 490.0,527.375 488.875,524.625 486.5,521.25"/>
    <polyline points="486.0,520.75 482.0,517.875 478.375,516.25 473.125,514.75 465.5,513.375"/>
    <polyline points="464.25,513.25 454.5,512.375 442.5,512.0 425.125,512.75 417.5,513.625"/>
    <polyline points="414.875,514.0 403.125,516.25 396.75,518.0 390.0,520.25 383.0,523.125 375.625,526.875 368.0,531.75 360.375,538.0 356.625,541.75 353.0,546.0 349.625,550.75 346.5,556.125 343.75,562.125 341.625,568.625 340.0,575.875 339.375,583.75 339.75,592.125"/>
    <polyline points="341.5,600.875 344.5,610.0 349.125,619.0 355.5,627.875 363.25,636.125 372.625,643.5 383.125,649.875 394.375,654.875 406.125,658.375 418.0,660.625 429.375,661.625 440.25,661.375 450.375,660.125 459.375,658.125 467.625,655.5 474.75,652.375 481.125,649.0 486.625,645.375 491.375,641.625 499.25,634.125 507.875,622.875 512.25,615.75"/>
    <polyline points="514.25,612.25 525.5,591.25 529.875,583.875 535.625,575.5 543.125,567.125 546.25,564.25 552.875,559.5"/>
    <polyline points="554.5,558.5 559.875,555.75 565.5,553.5 571.375,551.625 577.75,550.125 592.0,547.875 611.25,546.0"/>
    <polyline points="614.375,545.75 634.5,543.375 645.875,541.25 654.0,539.125 662.75,536.125 672.0,532.125 681.75,526.25 686.875,522.5 692.25,518.0 697.625,512.625 703.25,506.25 709.0,498.625 714.75,489.375 720.5,478.5 726.25,465.375"/>
    <polyline points="731.875,449.75 736.875,431.375 741.25,409.625 744.375,384.5 745.625,355.875 744.25,324.25 739.25,290.5 729.875,256.5 715.25,224.875 695.375,198.875 670.75,181.375 642.875,174.25 613.875,177.75 585.75,190.25 560.125,209.125 538.25,231.5 520.125,254.875 505.875,277.375 494.875,297.875 486.875,316.0 481.25,331.625 477.625,344.75 475.5,355.625 474.625,364.75 474.875,372.375 475.75,378.625"/>
    <polyline points="477.25,384.0 479.25,388.5 481.5,392.5 484.0,396.125 498.75,413.5 502.5,418.875 505.5,424.25 508.5,432.125 509.625,437.25 510.125,442.25 510.125,447.0 509.5,453.75"/>
    <polyline points="509.125,455.875 506.75,465.75 504.875,470.875 502.125,476.875 497.625,484.375 493.625,489.25 491.875,490.875"/>
    <polyline points="491.125,491.625 486.625,495.0 481.875,497.625 473.0,500.5 463.875,502.125"/>
    <polyline points="462.375,502.25 428.375,504.75 409.375,506.875"/>
    <polyline points="406.25,507.375 396.5,509.25 381.75,513.5 373.75,516.625 365.375,520.75 356.5,526.25 352.0,529.75 347.5,533.625 343.125,538.125 338.875,543.25 334.75,549.125 331.0,555.875 327.875,563.375 325.5,571.875 324.0,581.25 323.875,591.5 325.375,602.5 328.75,614.125"/>
    <polyline points="334.375,625.75 342.25,637.25 352.5,648.0 364.875,657.5 378.875,665.375 393.875,671.5 409.375,675.5 424.5,677.625 438.875,678.125 452.0,677.125 463.75,675.125 474.125,672.375 483.0,669.125 490.5,665.5 497.0,661.75 502.375,657.875 507.0,654.0 514.125,646.375 519.5,639.125 525.5,629.0 528.625,622.75"/>
    <polyline points="530.125,619.75 538.5,604.5 542.75,598.125 547.25,592.75 551.875,588.25 558.625,583.5 562.125,581.625 569.625,578.875"/>
    <polyline points="571.625,578.375 577.875,577.375 586.75,577.25 596.375,578.5 601.375,579.75 606.625,581.5 609.375,582.5 617.625,586.625 623.25,590.25 629.0,594.75 634.75,600.5"/>
    <polyline points="637.5,603.875 640.375,607.625 643.0,611.875 645.625,616.625 648.0,622.0 650.25,628.0 652.25,634.875 653.875,642.625 655.125,651.375 655.875,661.25 655.875,672.5 655.0,685.125 653.125,699.25 650.0,715.0 645.25,732.375 638.5,751.25 629.625,771.25 618.25,791.75 604.25,811.875 587.625,830.5 568.5,846.0 547.625,856.75 525.875,861.5 504.5,859.5 484.375,850.75 466.5,836.0"/>
    <polyline points="451.5,816.75 439.375,794.75 430.25,771.625 423.5,748.75 418.875,727.0 415.75,707.125 414.0,689.375 413.0,673.625 412.875,648.5 414.0,630.125 415.75,617.0 416.75,611.875 418.875,604.0 421.125,598.25 423.375,593.875 425.5,590.5 428.75,586.5"/>
    <polyline points="429.75,585.375 434.875,579.0 437.375,574.875 438.25,572.875 439.0,570.875 439.75,567.0 439.75,564.125 439.0,560.75"/>
    <polyline points="438.75,560.0 437.625,557.75 436.0,555.75 434.0,554.125 430.75,552.5 425.875,551.5 422.625,551.5 417.875,552.25"/>
    <polyline points="416.75,552.625 414.25,553.5 410.5,555.375 408.125,557.0 404.75,560.0 401.125,565.125 399.375,569.75 398.625,574.875 399.375,580.25 400.75,583.75"/>
    <polyline points="401.75,585.5 405.625,590.125 410.875,593.75 415.0,595.375 417.125,595.875 421.625,596.5 423.875,596.5 430.5,595.625 436.625,593.25 442.125,589.75 445.25,587.0 447.875,584.0"/>
    <polyline points="449.125,582.375 451.25,579.125 453.75,574.125 455.5,569.125 456.625,562.75 456.75,556.875 456.375,554.125 455.0,549.25 453.375,546.0"/>
    <polyline points="452.625,545.0 451.25,543.25 447.625,540.0 444.5,538.125 440.75,536.625 436.625,535.5 430.25,534.75 425.0,534.75 419.375,535.375"/>
    <polyline points="417.25,535.625 411.0,537.125 406.625,538.625 399.875,541.75 395.25,544.5 390.75,547.875 386.375,552.0 384.375,554.375 382.5,556.875 379.125,562.625 376.625,569.25 375.375,576.625 375.75,584.5 376.625,588.75"/>
    <polyline points="377.875,592.875 379.875,597.0 382.25,601.0 385.25,604.875 388.75,608.5 392.625,611.875 397.0,614.75 401.75,617.25 406.75,619.25 411.875,620.875 417.25,621.875 422.5,622.375 427.625,622.5 437.625,621.25 446.625,618.5 450.625,616.625 454.5,614.625 458.0,612.25 464.125,607.25 469.375,601.875 473.625,596.25"/>
    <polyline points="475.625,593.375 480.375,585.0 484.0,576.875 486.875,569.375 489.125,562.5 491.875,552.5 493.0,547.375 494.125,540.125"/>
    <polyline points="494.375,538.75 494.75,530.25 494.25,526.25 493.0,522.5 491.125,519.625"/>
    <polyline points="490.75,519.25 488.0,517.125 483.875,515.25 481.75,514.5 474.0,512.875"/>
    <polyline points="473.0,512.75 462.5,511.625 453.875,511.125 441.5,511.0 435.375,511.25"/>
    <polyline points="433.25,511.25 418.75,512.5 410.375,513.75 398.125,516.5 391.375,518.625 384.375,521.25 376.875,524.75 369.25,529.375 361.5,535.25 357.625,538.75 353.875,542.75"/>
    <polyline points="350.125,547.25 346.75,552.375 343.75,558.125 341.125,564.5 339.125,571.5 337.875,579.25 337.625,587.5 338.5,596.375 340.875,605.5 344.75,614.875 350.25,624.125 357.5,633.0 366.375,641.25 376.625,648.375 388.0,654.25 400.0,658.625 412.125,661.625 424.25,663.25 435.75,663.5 446.5,662.75 456.25,661.0 465.125,658.625 472.875,655.625 479.625,652.375 485.625,648.75 490.75,645.0"/>
    <polyline points="495.25,641.25 502.625,633.625 508.25,626.125 512.875,618.875 516.75,612.125 529.25,589.125 533.625,582.25 539.625,574.5 542.625,571.25"/>
    <polyline points="544.125,569.75 547.375,566.875 554.0,562.125 561.125,558.375 566.875,556.125 577.375,553.375 586.5,551.875 594.0,551.125"/>
    <polyline points="596.625,550.875 637.5,548.625 653.25,546.875 666.375,544.25 675.75,541.375 685.875,537.125 691.125,534.25"/>
    <polyline points="696.625,530.75 702.375,526.625 708.25,521.5 714.25,515.25 720.5,507.75 726.875,498.5 733.375,487.25 739.875,473.5 746.25,456.75 752.25,436.625 757.5,412.375 761.5,383.625 763.5,350.25 762.25,312.5 756.5,271.75 745.0,230.5 726.5,192.5 701.125,162.5 669.75,144.625 635.125,140.875 600.125,150.5 567.625,170.5 539.625,196.625 516.75,224.75 499.0,252.0 486.0,276.625"/>
    <polyline points="476.875,298.0 471.125,315.75 467.875,330.25 466.875,342.0 467.5,351.25 469.375,358.75 472.375,364.875 476.125,369.75 480.5,374.0 485.125,377.875 504.25,391.125 508.5,394.375 515.875,401.125 519.0,404.625 523.875,411.5 525.875,415.0 527.375,418.375 529.625,425.125 530.875,431.5"/>
    <polyline points="531.125,434.625 531.375,440.625 531.125,446.125 530.25,453.875 527.75,467.0 523.375,485.75"/>
    <polyline points="523.125,486.875 521.125,496.875 520.75,500.625 520.875,504.25"/>
    <polyline points="521.0,504.625 522.25,507.75 524.125,509.375 525.625,510.0"/>
    <polyline points="525.875,510.125 530.875,511.375 537.625,512.0"/>
    <polyline points="538.25,512.0 551.5,512.125 561.875,511.5"/>
    <polyline points="563.125,511.375 570.125,510.625 578.0,509.375 588.625,506.75 598.75,503.25 607.625,498.875"/>
    <polyline points="610.0,497.625 617.125,492.75 622.0,488.75 629.5,481.125 634.5,474.75 637.0,471.125 641.625,462.875 646.0,453.125 648.0,447.625 651.25,435.5 652.5,428.75 653.5,421.75 654.0,414.25 653.625,398.75 652.625,390.875 651.0,383.0"/>
    <polyline points="648.75,375.375 645.75,368.125 642.125,361.5 637.75,355.5 632.75,350.625 627.125,346.75 621.125,344.125 614.625,342.625 608.0,342.625 601.125,343.75 594.25,346.0 587.625,349.25 581.125,353.375 574.875,358.25 563.625,369.5 558.5,375.5 549.625,387.875 542.25,399.875 536.125,411.25 529.0,426.375"/>
    <polyline points="527.0,430.875 509.625,474.625 506.625,481.125 502.375,488.5"/>
    <polyline points="501.75,489.625 498.375,494.0 495.625,496.75 492.75,499.0 488.125,501.5 483.0,503.25"/>
    <polyline points="482.0,503.5 476.125,504.75 467.875,505.625 449.875,506.375"/>
    <polyline points="448.125,506.5 427.0,507.625 410.875,509.5 401.625,511.25 391.375,513.75 380.25,517.625"/>
    <polyline points="376.375,519.375 372.375,521.25 364.125,526.0 355.625,532.25 351.5,536.125 347.25,540.375 343.25,545.375 339.5,551.0 336.125,557.375 333.25,564.375 331.0,572.375 329.75,581.125 329.75,590.5 331.0,600.625 334.125,611.125 339.0,621.875 346.125,632.375 355.125,642.25 366.0,651.125 378.5,658.75 392.0,664.625 406.0,668.75 420.0,671.125 433.375,672.0"/>
    <polyline points="445.875,671.5 457.125,670.0 467.25,667.5 476.125,664.5 483.75,661.125 490.25,657.5 495.875,653.625 500.625,649.75 508.375,642.125 514.125,634.625 518.75,627.5 530.375,605.875 537.625,593.75"/>
    <polyline points="539.125,591.625 545.125,584.25 548.375,581.125 555.0,575.875 560.375,572.75 568.0,569.625 572.125,568.5 580.75,567.0 585.375,566.625"/>
    <polyline points="587.75,566.625 597.875,566.875 611.75,568.875 620.875,571.0 627.25,573.0 633.875,575.5 644.375,580.375 651.5,584.75 658.875,590.125 666.25,597.125"/>
    <polyline points="669.875,601.25 673.375,606.0 676.875,611.5 680.25,617.75 683.25,625.125 686.125,633.625 688.5,643.5 690.25,655.0 691.25,668.5 691.125,684.375 689.625,703.0 686.25,724.625 680.375,749.625 671.375,778.0 658.375,809.375 640.625,842.625 617.5,876.0 588.875,906.0 555.75,928.75 520.0,940.25 484.375,937.75 451.875,921.375 424.5,893.5 403.25,858.75 388.125,821.5 377.875,785.375"/>
    <polyline points="371.5,752.75 367.875,724.75 366.125,701.625 365.625,683.125 366.25,668.75 367.5,658.0 369.375,650.125 372.0,644.625 375.0,641.125 378.75,638.875 382.875,637.75 387.625,637.25 404.0,637.375 416.0,637.0 422.0,636.375 427.875,635.375 433.625,634.0 439.125,632.375 449.125,628.125 457.75,623.0 461.5,620.125"/>
    <polyline points="465.0,617.125 468.25,614.125 473.75,607.75 478.375,601.375 482.25,595.125 486.875,586.0 491.75,574.75 500.125,550.75"/>
    <line x1="500.625" x2="508.125" y1="549.0" y2="523.625"/>
    <line x1="508.25" x2="510.25" y1="523.125" y2="515.5"/>
    <polyline points="510.25,515.25 510.375,513.375 509.625,512.375 507.0,511.875 500.375,511.5"/>
    <line x1="500.125" x2="488.75" y1="511.5" y2="510.875"/>
    <line x1="488.125" x2="464.875" y1="510.75" y2="509.75"/>
    <polyline points="463.625,509.625 438.625,509.625 427.5,510.25 414.5,511.75"/>
    <polyline points="411.75,512.125 402.625,513.875 392.75,516.5 382.0,520.5 374.375,524.125 370.375,526.375 362.375,531.875 358.375,535.125 350.625,543.25 346.875,548.0 343.5,553.5 340.375,559.625 337.875,566.375 336.0,573.875 335.0,582.125 335.125,591.0 336.625,600.375"/>
    <polyline points="339.625,610.125 344.25,619.875 350.75,629.5 359.125,638.5 369.0,646.625 380.375,653.5 392.625,659.0 405.375,663.0 418.125,665.375 430.5,666.375 442.125,666.0 452.875,664.75 462.5,662.625 471.0,659.75 478.5,656.625 485.0,653.0 490.5,649.375 495.375,645.5 499.625,641.75 503.25,637.875 506.5,634.0 511.75,626.625 518.0,616.125"/>
    <polyline points="519.875,612.875 532.125,590.5 536.625,584.0 541.125,578.25 545.75,573.5 549.0,570.625 555.875,565.875 559.375,564.0"/>
    <polyline points="561.25,563.125 567.0,560.75 573.125,559.0 586.75,556.75 602.25,556.0 623.625,556.625"/>
    <polyline points="627.0,556.875 657.25,558.875 675.125,559.5 689.875,559.25 700.625,558.375 706.25,557.5 712.0,556.375 718.0,554.75 724.25,552.625 730.75,549.875 737.625,546.25 744.625,541.625 752.0,535.5"/>
    <polyline points="759.75,527.5 767.875,517.375 776.25,504.125 784.875,487.0 793.625,465.0 802.125,436.75 809.625,401.0 815.125,356.125 816.75,301.5 811.625,238.375 796.25,170.875 767.5,107.75 724.5,60.625 670.75,39.75 613.25,48.125 560.0,79.5 516.0,122.75 483.125,168.0 460.75,208.625 447.25,242.0 440.875,267.625 440.375,286.25 444.5,299.25 452.5,308.125 463.5,314.375 476.75,319.0"/>
    <polyline points="491.5,323.0 506.75,327.125 521.75,331.75 535.875,337.0 548.5,342.875 559.5,349.0 568.5,355.5 575.75,361.75 581.375,367.75 585.5,373.375 588.5,378.625 590.375,383.25 591.5,387.375 592.0,391.125 592.0,394.5 591.0,400.25 589.125,405.125 585.375,411.625 579.875,419.625"/>
    <polyline points="578.5,421.625 574.625,427.5 570.125,435.5 565.0,446.875 562.75,453.875 561.625,458.625 560.75,465.75"/>
    <polyline points="560.75,467.0 561.25,473.75 562.125,476.5 563.75,479.625 564.75,481.0 567.25,483.25 569.5,484.5 572.0,485.375"/>
    <polyline points="572.875,485.625 575.75,486.125 580.0,486.125 583.5,485.75 587.25,484.875 591.25,483.5 596.875,480.75 601.375,477.875 604.375,475.5"/>
    <polyline points="605.875,474.125 608.875,471.25 611.875,467.75 614.75,463.875 617.5,459.5 621.125,451.875 624.125,443.0 625.5,436.5 626.25,429.625 626.25,422.5 625.375,415.5 624.625,412.125 622.375,405.625"/>
    <polyline points="621.0,402.75 619.25,400.0 615.125,395.5 612.75,393.75 607.5,391.375 604.625,390.75 601.625,390.625 598.625,390.875 592.375,392.625 589.25,394.0 583.25,397.75 574.75,405.25 567.25,414.125 561.0,423.5 557.5,429.625"/>
    <polyline points="555.875,432.625 551.75,441.375 549.5,446.875 546.75,454.375 544.125,463.125 541.875,474.0 541.375,478.375 541.25,483.5"/>
    <polyline points="541.375,484.625 542.0,489.625 543.125,492.875 544.25,494.875 545.625,496.75 547.875,498.75 552.0,501.0"/>
    <polyline points="552.75,501.25 554.375,501.875 559.125,502.875 565.625,503.375 574.875,502.875 582.5,501.5"/>
    <polyline points="584.125,501.125 592.875,498.5 600.5,495.25 606.625,491.75 615.125,485.5 621.625,479.125 626.0,474.0 630.25,467.875 634.25,460.75"/>
    <polyline points="636.125,456.75 639.625,447.875 642.375,437.875 643.5,432.5 644.25,426.75 645.0,414.75 644.125,402.125 643.125,395.875 641.625,389.75 639.5,383.75 637.0,378.25 633.875,373.125 630.25,368.75 626.25,365.0 621.75,362.0 617.0,359.875 611.875,358.75 606.625,358.5 601.125,359.25 595.625,360.75 590.25,363.125 584.875,366.125"/>
    <polyline points="579.75,369.75 574.875,373.75 570.125,378.25 565.75,383.0 561.625,388.0 554.25,398.125 548.0,408.125 542.75,417.75 534.625,434.875 526.5,455.125 522.0,467.75"/>
    <polyline points="521.25,470.0 515.625,486.25 512.375,494.375 510.0,499.25"/>
    <polyline points="509.625,499.875 506.375,504.625 504.25,506.5 501.875,507.875"/>
    <polyline points="501.5,508.0 496.875,509.25 491.75,509.75 489.875,509.625 497.25,508.875 501.625,507.375"/>
    <polyline points="466.75,509.375 489.375,509.75 467.0,509.375"/>
    <polyline points="465.75,509.375 454.375,509.125 437.875,509.375 424.125,510.25 419.0,510.875"/>
    <polyline points="416.25,511.25 410.625,512.0 401.5,513.875 394.875,515.625 387.875,517.875 380.5,520.75 372.875,524.625 368.875,527.0 360.875,532.625 356.75,536.125 349.0,544.5 345.375,549.625 342.0,555.25 339.0,561.625 336.625,568.75 335.125,576.5 334.375,585.0"/>
    <polyline points="335.0,594.125 336.875,603.625 340.5,613.5 345.875,623.375 353.0,632.875 362.0,641.75 372.5,649.5 384.25,656.0 396.875,661.0 409.75,664.5 422.625,666.375 434.875,666.875 446.25,666.25 456.625,664.5 465.875,662.125 474.125,659.125 481.25,655.75 487.375,652.25 492.75,648.5 497.375,644.625 501.375,640.75 507.875,633.125 515.25,622.25"/>
    <polyline points="517.25,618.75 530.125,595.0 533.0,590.25 537.5,583.75 542.0,578.25 546.75,573.5 551.625,569.5 556.875,566.125"/>
    <polyline points="558.75,565.125 564.25,562.625 570.25,560.625 576.625,559.125 583.375,558.0 598.5,557.0 619.0,557.625"/>
    <polyline points="622.25,557.875 636.125,559.0 677.625,563.25 692.5,564.25 703.125,564.5 708.75,564.5 720.375,563.875 733.0,562.0 739.625,560.25"/>
    <polyline points="746.5,558.0 753.75,554.875 761.25,550.5 769.25,544.75 777.5,537.125 786.25,526.875 795.5,513.25 805.125,495.25 814.875,471.375 824.625,439.875 833.5,398.625 839.875,345.75 841.375,280.125 834.0,203.0 812.5,121.25 772.75,48.375 715.0,1.875 699.6362,0.0"/>
    <polyline points="630.1846,0.0 578.5,20.75 521.0,70.0 478.0,125.125 449.375,175.25 433.0,215.625 426.5,245.375 427.875,265.75 435.75,278.875"/>
    <polyline points="449.0,287.0 466.5,292.25 508.75,300.5 530.5,305.625 550.875,312.125 568.875,319.5 583.75,327.625 595.625,335.625 604.5,343.125 610.875,349.875 615.125,355.625 617.75,360.25 619.0,364.0 619.25,366.875 618.625,369.125 617.5,370.75 615.875,372.0 611.5,374.0 602.875,377.0 593.25,381.875"/>
    <polyline points="590.0,384.0 580.375,391.875 574.375,398.125 568.875,404.875 561.625,415.25 555.625,425.625 548.125,441.625 544.875,450.0 541.625,459.875"/>
    <polyline points="541.0,462.125 538.25,473.625 537.125,481.125 537.125,490.125 538.375,495.0"/>
    <polyline points="538.625,495.625 540.375,498.75 543.25,501.5 548.5,504.125 553.5,505.25"/>
    <polyline points="554.5,505.5 560.625,506.0 566.625,506.0 575.0,505.25 581.25,504.125 588.125,502.375"/>
    <polyline points="590.0,501.75 597.625,499.0 603.75,496.0 608.0,493.5 616.875,487.0 621.5,482.75 628.375,474.875 632.75,468.375 637.0,460.75 639.0,456.5 642.625,447.0"/>
    <polyline points="644.125,441.75 646.625,430.25 647.875,417.625 648.0,411.0 647.625,404.25 646.75,397.375 645.5,390.625 643.625,384.0 641.25,377.75 638.25,372.0 634.625,366.75 630.5,362.125 626.0,358.5 620.875,355.75 615.5,354.0 609.875,353.25 604.125,353.625 598.125,354.875 592.25,357.125 586.5,360.125 581.0,363.875 575.625,368.125 570.5,372.875 565.75,377.875"/>
    <polyline points="561.25,383.125 557.125,388.5 549.75,399.375 543.625,409.875 538.5,419.75 534.25,428.75 527.625,444.375 516.125,475.25"/>
    <polyline points="515.5,477.0 509.875,490.375 507.0,495.625 504.75,498.875 502.875,501.0"/>
    <polyline points="502.375,501.5 500.125,503.5 496.125,505.75 492.75,506.875 488.875,507.625"/>
    <polyline points="488.25,507.75 477.5,508.5 463.75,508.5"/>
    <polyline points="462.375,508.5 450.0,508.5 429.875,509.25 422.5,509.875 411.625,511.375"/>
    <polyline points="408.625,511.875 405.625,512.375 392.5,515.625 385.375,518.125 377.75,521.25 369.875,525.5 361.875,530.875 357.75,534.25 349.75,542.25 346.0,547.125 342.375,552.5 339.25,558.75 336.625,565.625 334.625,573.25 333.5,581.5 333.5,590.5 334.875,600.125 337.875,610.0"/>
    <polyline points="342.5,620.125 349.125,630.0 357.625,639.25 367.75,647.625 379.375,654.875 392.0,660.5 405.0,664.5 418.125,667.0 430.875,668.0 442.75,667.75 453.75,666.375 463.5,664.125 472.125,661.25 479.75,658.0 486.25,654.5 491.875,650.75 496.75,646.875 501.0,643.0 507.875,635.375 513.125,628.0 521.125,614.25"/>
    <polyline points="522.75,611.125 531.875,594.5 537.75,585.625 542.375,580.0 547.0,575.25 552.0,571.25 559.0,566.875 562.75,565.125"/>
    <polyline points="564.625,564.375 570.625,562.375 577.0,560.875 583.875,559.875 593.75,559.25 601.75,559.25 613.25,559.875 629.5,561.75"/>
    <polyline points="633.0,562.25 647.75,564.75 668.375,569.375 682.0,573.25 691.625,576.375 701.625,580.25 706.75,582.625 717.25,588.125 722.625,591.5 728.125,595.5 733.5,600.0 738.875,605.5 744.125,612.0 749.125,619.875"/>
    <polyline points="753.875,629.5 758.125,641.375 761.625,656.25 763.875,675.0 764.5,698.625 762.375,728.625 756.25,766.75 744.25,814.25 723.75,872.25 691.25,939.0 643.75,1008.875 627.8389,1024.0"/>
    <polyline points="354.6564,1024.0 323.625,974.125 296.0,897.0 281.125,829.0 274.125,776.125 272.0,739.125 273.25,716.5 277.75,705.5 285.875,703.625 298.25,707.75 315.25,715.5 336.5,724.25"/>
    <polyline points="361.25,732.125 387.625,737.5 413.875,740.125 438.375,740.25 459.875,738.25 478.0,735.125 492.75,731.25 504.25,727.375 512.875,723.5 519.375,720.0 523.875,716.75 527.0,713.625 528.875,710.75 529.875,708.0 530.25,705.25 529.5,699.375 523.75,678.125 521.625,665.5"/>
    <polyline points="521.125,661.25 520.5,648.375 520.75,640.0 522.0,628.0 524.875,613.75 527.875,604.375 530.0,598.75 535.0,588.875 537.625,584.625 540.5,580.75"/>
    <polyline points="542.0,579.0 546.5,574.125 553.0,568.875 558.25,565.75 563.75,563.125 573.875,560.0 580.5,558.75 590.0,557.75"/>
    <polyline points="592.5,557.625 606.0,557.5 628.0,558.875 646.25,560.875 680.875,565.25"/>
    <polyline points="685.75,565.75 701.25,567.375 712.25,568.125 730.25,568.25 743.25,567.0 750.125,565.75 757.375,563.875 764.875,561.25 772.625,557.5 780.875,552.25 789.5,545.125 798.75,535.5 808.375,522.25 818.625,504.5 829.25,480.375 839.875,447.875 849.875,404.5 857.625,347.375 860.125,274.75 852.5,187.75"/>
    <polyline points="828.25,94.5 781.875,12.25 764.8629,0.0"/>
    <polyline points="560.3413,0.0 559.375,0.5 498.5,60.5 455.875,122.375 429.875,174.875 417.5,214.375 416.0,241.375 423.5,258.125 438.375,267.875 459.375,273.25 512.125,281.375 539.75,287.125 565.25,294.875 587.125,303.875 604.75,313.375 618.0,322.625 627.375,330.625 633.625,337.25 637.375,342.125 639.125,345.5 639.375,347.375 638.375,348.25"/>
    <polyline points="636.5,348.375 626.75,346.5 622.375,346.125 617.625,346.125 612.625,346.625 607.375,347.75 602.0,349.5 596.5,351.875 591.125,355.0 585.875,358.625 580.625,362.75 571.0,372.125 566.625,377.25 558.625,387.75 555.0,393.125 548.625,403.625 541.0,418.25 536.875,427.25"/>
    <polyline points="535.0,431.375 526.75,452.5 516.875,480.75 513.875,488.5"/>
    <polyline points="513.5,489.625 510.0,497.375 508.25,500.375 506.25,503.125 504.5,504.875"/>
    <polyline points="504.25,505.125 501.75,506.875 499.875,507.75 496.875,508.625 493.875,509.0"/>
    <polyline points="493.375,509.125 488.625,509.5 474.5,509.375"/>
    <polyline points="473.5,509.375 443.125,509.125 434.875,509.5"/>
    <polyline points="432.625,509.625 417.875,510.875 409.375,512.125 393.5,515.875 386.375,518.25 375.125,523.25 367.125,527.875 359.125,533.875 351.125,541.75"/>
    <polyline points="347.375,546.375 343.875,551.75 340.625,557.75 337.875,564.375 335.75,571.75 334.5,579.875 334.25,588.625 335.375,598.0 338.0,607.75 342.25,617.625 348.375,627.375 356.375,636.75 366.0,645.25 377.125,652.5 389.25,658.5 402.125,662.875 415.125,665.625 427.75,666.875 439.625,666.875 450.75,665.75 460.625,663.75 469.5,661.125 477.25,658.0 484.0,654.5 489.875,650.875 494.875,647.0"/>
    <polyline points="499.25,643.125 503.0,639.375 509.25,631.75 516.25,620.875 527.875,599.375 533.75,589.5 539.75,581.25 546.0,574.5"/>
    <polyline points="547.5,573.125 554.25,568.0 559.625,565.0 565.25,562.625 571.25,560.625 582.25,558.5 589.5,557.75 599.875,557.375"/>
    <polyline points="602.625,557.375 614.25,557.75 634.25,559.375 684.625,565.375 700.125,566.75"/>
    <polyline points="705.5,567.125 722.875,567.5 735.375,566.75 742.0,565.875 748.875,564.375 756.0,562.375 763.5,559.5 771.375,555.375 779.5,549.875 788.25,542.25 797.375,532.125 807.0,518.25 817.125,499.625 827.625,474.5 838.0,440.875 847.625,396.25 854.625,338.125 855.875,264.875 846.375,178.625 820.125,88.125 772.0,11.0 754.5351,0.0"/>
    <polyline points="554.375,11.625 496.5,70.75 456.0,130.625 431.375,181.25 419.625,219.25 418.25,245.375 425.5,261.75 439.625,271.5 459.5,277.0 509.75,285.125 536.125,290.625 560.625,297.875 581.875,306.5 599.25,315.75 612.5,324.75 622.0,332.75 628.5,339.5 632.5,344.75 634.5,348.625 635.125,351.125 634.5,352.5 633.0,353.125 630.75,353.25 624.625,352.625"/>
    <polyline points="620.75,352.5 616.5,352.5 607.375,354.0 602.5,355.625 597.625,357.75 592.625,360.375 587.75,363.5 583.0,367.125 574.0,375.375 565.875,384.75 558.75,394.5 552.5,404.25 547.25,413.625 542.75,422.625 534.375,442.0"/>
    <polyline points="533.0,445.375 524.625,469.25 517.5,492.25"/>
    <line x1="517.25" x2="513.0" y1="493.125" y2="506.25"/>
    <polyline points="512.875,506.5 511.125,510.5 509.875,511.375 508.875,511.625 501.875,511.5"/>
    <line x1="501.625" x2="491.75" y1="511.5" y2="511.0"/>
    <line x1="491.25" x2="471.125" y1="510.875" y2="510.0"/>
    <polyline points="470.0,509.875 458.25,509.5 443.0,509.5 428.0,510.25"/>
    <polyline points="425.625,510.375 412.25,512.0 403.25,513.75 396.75,515.375 390.0,517.375 382.75,520.125 371.25,525.875 367.25,528.375 359.25,534.5 355.25,538.125 351.375,542.25 347.625,547.0 344.125,552.375 341.0,558.25"/>
    <polyline points="338.25,565.0 336.25,572.375 335.125,580.375 335.0,589.125 336.125,598.375 338.875,608.125 343.125,617.875 349.375,627.625 357.25,636.75 366.875,645.125 378.0,652.25 390.125,658.0 402.75,662.375 415.5,665.0 428.0,666.25 439.875,666.25 450.75,665.125 460.625,663.125 469.375,660.375 477.0,657.25 483.75,653.75 489.5,650.125 494.5,646.375 498.875,642.5 505.875,634.75"/>
    <polyline points="508.75,631.0 515.75,620.25 530.375,593.5 534.75,586.5 540.75,578.625 547.0,572.25 550.375,569.625"/>
    <polyline points="552.0,568.375 555.5,566.125 560.875,563.25 568.625,560.25 574.875,558.625 581.5,557.375 591.125,556.375 601.75,556.0 607.5,556.125"/>
    <polyline points="610.375,556.125 629.75,557.0 656.5,558.875 679.0,559.625 694.125,559.125 705.125,557.75 710.875,556.75 716.875,555.25"/>
    <polyline points="723.0,553.375 729.5,550.75 736.125,547.375 743.125,542.875 750.5,537.125 758.125,529.75 766.125,520.125 774.5,507.625 783.125,491.5 791.875,470.75 800.5,444.125 808.375,410.0 814.5,367.25 817.25,314.875 813.875,253.25 801.125,186.0 775.625,120.75 735.625,68.75 683.625,41.25 626.125,43.375 571.25,70.375 524.75,112.125 489.375,157.75 464.625,199.875 449.25,235.0 441.5,262.25"/>
    <polyline points="439.875,282.375 443.125,296.5 450.375,306.25 460.875,312.875 473.75,317.75 503.625,325.875 518.875,330.375 533.25,335.5 546.375,341.25 557.75,347.5 567.125,353.875 574.875,360.25 580.75,366.375 585.125,372.125 588.375,377.375 590.375,382.125 591.75,386.375 592.375,390.125 592.125,396.625 590.625,402.0 587.25,408.75"/>
    <polyline points="585.875,410.75 575.0,426.75 568.375,438.625 565.125,446.25 563.25,451.625 561.625,458.125"/>
    <polyline points="561.25,459.75 560.5,466.625 560.5,469.125 561.25,474.5 562.125,477.25 563.875,480.25 565.5,482.125 567.5,483.625"/>
    <polyline points="568.25,484.125 571.5,485.5 574.125,486.125 579.375,486.375 585.375,485.5 589.25,484.375 592.0,483.375 596.25,481.25"/>
    <polyline points="597.625,480.375 602.125,477.5 608.25,472.125 611.25,468.875 614.125,465.0 617.0,460.75 618.25,458.375 621.875,450.5 623.875,444.5 625.875,434.75 626.5,427.75 626.5,424.25"/>
    <polyline points="626.25,420.625 625.25,413.625 624.375,410.25 621.875,403.875 620.25,401.0 616.375,396.125 614.0,394.25 611.5,392.625 608.875,391.5 606.125,390.75 600.125,390.375 597.0,390.875 593.875,391.75 587.625,394.625 584.625,396.5 578.75,401.125 573.25,406.5 568.25,412.5"/>
    <polyline points="566.0,415.625 561.75,421.875 556.375,431.125 549.75,445.625 547.75,450.75 544.125,462.25 542.375,469.875 541.375,476.375"/>
    <polyline points="541.25,477.875 541.0,480.5 541.125,486.375 542.375,491.875 544.125,495.375 545.5,497.125 547.75,499.0"/>
    <polyline points="548.375,499.5 553.5,501.875 557.125,502.75 563.375,503.5 569.375,503.5 573.5,503.125"/>
    <polyline points="574.875,503.0 582.5,501.75 589.375,499.875 596.75,497.125 602.625,494.25 608.875,490.5 613.125,487.375 617.5,483.625 621.875,479.125"/>
    <polyline points="624.0,476.625 628.375,471.0 634.5,460.625 638.25,452.25 641.375,442.75 643.75,432.125 644.5,426.375 645.25,414.125 645.0,407.875 644.375,401.5 643.25,395.25 641.625,389.0 639.5,383.125 636.875,377.625 633.75,372.5 630.125,368.125 626.0,364.375 621.5,361.5 616.625,359.375"/>
    <polyline points="611.5,358.375 606.125,358.25 600.75,359.0 595.25,360.625 589.75,363.0 584.375,366.0 579.25,369.75 574.375,373.875 565.25,383.25 561.125,388.25 553.875,398.375 544.875,413.375 540.0,422.625 536.0,431.125 531.125,442.625 527.375,452.5"/>
    <polyline points="526.25,455.375 516.25,483.75 511.625,495.25"/>
    <polyline points="511.25,496.0 508.625,501.0 506.75,503.625 503.25,506.75"/>
    <polyline points="502.875,506.875 500.75,508.0 498.375,508.75 492.125,509.5"/>
    <line x1="491.5" x2="471.125" y1="509.625" y2="509.5"/>
    <polyline points="470.0,509.375 446.625,509.125 436.875,509.375 427.875,510.0"/>
    <polyline points="425.375,510.125 409.125,512.25 396.5,515.125 386.0,518.5 378.625,521.625 370.75,525.75 362.75,531.125 354.75,538.0 350.875,542.25 347.125,547.0 343.5,552.375 340.375,558.375"/>
    <polyline points="337.75,565.125 335.75,572.625 334.5,580.75 334.5,589.5 335.75,598.875 338.5,608.625 342.875,618.625 349.25,628.25 357.25,637.5 367.125,645.875 378.375,653.125 390.625,658.875 403.375,663.0 416.375,665.75 428.875,666.875 440.75,666.75 451.625,665.5 461.5,663.5 470.25,660.75 477.875,657.5 484.5,654.0 490.25,650.375 495.25,646.5 499.5,642.75 506.5,635.0"/>
    <polyline points="509.375,631.25 514.25,624.0 530.875,593.875 536.75,584.875 542.875,577.375 546.0,574.25 550.875,570.125"/>
    <polyline points="552.625,569.0 554.375,567.75 561.5,563.875 567.375,561.625 575.625,559.375 582.375,558.25 589.5,557.5 600.0,557.125 608.375,557.25"/>
    <polyline points="611.375,557.375 620.75,557.875 638.0,559.375 670.75,563.0 690.0,564.625 700.5,565.25 717.5,565.25"/>
    <polyline points="723.5,564.875 736.25,563.0 743.0,561.375 750.0,559.125 757.25,555.875 765.0,551.5 773.0,545.75 781.5,537.875 790.375,527.375 799.75,513.375 809.5,494.625 819.625,469.75 829.5,436.875 838.375,393.75 844.625,338.125 845.5,269.0 836.375,188.5 812.0,104.375 768.125,31.875 721.2555,0.0"/>
    <polyline points="609.8458,0.0 565.875,21.625 509.375,74.875 468.375,131.375 442.0,181.0"/>
    <polyline points="427.875,219.875 423.625,247.625 427.25,266.25 437.5,277.75 453.125,284.75 472.75,289.375 495.0,293.25 518.375,297.875 541.0,303.625 561.625,310.875 579.25,318.875 593.625,327.375 604.625,335.5 612.5,342.875 618.0,349.125 621.5,354.375 623.375,358.375 624.0,361.5 623.625,363.625 622.625,365.125 620.875,366.25 618.75,367.0 606.875,369.75"/>
    <polyline points="603.25,371.0 599.625,372.375 592.25,376.375 584.875,381.625 577.75,388.0 574.375,391.5 568.125,398.875 560.0,410.5 551.375,425.625 546.375,436.125 540.375,451.375"/>
    <polyline points="539.375,454.125 535.125,468.0 533.0,477.0 531.5,486.5 531.375,493.5"/>
    <polyline points="531.5,494.25 532.125,497.875 533.875,501.625 535.75,503.75 539.75,506.125"/>
    <polyline points="540.375,506.375 544.25,507.625 550.875,508.625 554.75,508.875 562.75,508.75"/>
    <polyline points="564.0,508.75 572.25,508.0 578.375,507.0 587.125,505.0 596.75,501.75 603.0,498.875 607.375,496.5"/>
    <polyline points="609.625,495.125 614.25,492.0 621.25,486.25 626.0,481.375 630.875,475.5 635.5,468.625 637.75,464.75 642.0,456.0 644.0,451.0 647.375,440.125 648.75,434.0 650.625,421.0 651.0,414.0 650.375,399.5 649.375,392.125 647.75,384.875"/>
    <polyline points="645.5,377.875 642.625,371.25 639.125,365.125 635.0,359.75 630.25,355.25 625.125,351.75 619.5,349.375 613.5,348.125 607.25,348.0 600.875,349.0 594.625,351.0 588.375,354.0 582.25,357.75 576.375,362.25 570.875,367.25 560.875,378.25 556.375,383.875 552.25,389.75 545.125,401.125 539.125,412.0 532.0,426.625"/>
    <polyline points="530.125,431.0 523.75,446.5 513.0,474.625 508.875,484.0 506.375,488.75"/>
    <polyline points="505.875,489.875 502.375,495.125 497.75,500.0 493.375,502.875 490.625,504.0"/>
    <polyline points="489.875,504.25 484.5,505.75 479.25,506.5 474.125,507.0 465.875,507.25"/>
    <polyline points="464.5,507.375 437.375,508.0 426.0,508.75 415.5,509.875"/>
    <polyline points="412.625,510.375 400.375,512.625 393.625,514.375 386.5,516.625 379.0,519.625 371.125,523.5 362.875,528.625 358.75,531.75 350.5,539.375 346.625,544.0 342.75,549.25 339.375,555.125 336.375,561.75 333.875,569.125 332.25,577.375 331.75,586.25 332.375,595.75"/>
    <polyline points="334.625,605.875 338.625,616.125 344.5,626.375 352.25,636.25 362.0,645.375 373.375,653.375 385.875,659.875 399.25,664.75 412.75,667.875 426.0,669.5 438.625,669.75 450.25,668.75 460.75,666.75 470.0,664.125 478.125,661.0 485.125,657.5 491.125,653.75 496.375,649.875 504.625,642.25 508.0,638.375 513.5,630.875 515.875,627.375 519.875,620.375"/>
    <polyline points="521.625,617.125 532.5,597.25 535.375,592.5 541.375,584.375 547.625,577.75 550.875,575.0 554.375,572.5 561.5,568.5"/>
    <polyline points="563.375,567.75 571.375,565.0 577.75,563.625 582.25,563.0 589.5,562.5 597.125,562.5 608.125,563.25 614.125,564.0 626.875,566.25"/>
    <polyline points="630.25,567.0 644.375,570.875 655.875,575.125 668.125,580.875 676.5,586.0 685.0,592.625 689.25,596.625 693.5,601.25 697.75,606.625 701.75,612.875 705.625,620.125 709.25,628.875 712.375,639.125 714.875,651.375 716.625,666.25 717.125,684.0 715.875,705.5"/>
    <polyline points="712.5,731.25 705.75,762.0 694.875,798.0 678.25,839.0 654.5,883.5 622.5,928.0 582.375,966.625 536.0,992.25 487.5,998.125 441.875,981.875 403.875,946.875 375.25,900.375 355.875,850.625 343.625,803.875 336.75,763.5 333.375,731.0 332.25,706.25 332.875,688.375 334.875,676.25 338.125,669.0 342.75,665.375 348.875,664.5 356.375,665.375 386.125,671.625"/>
    <polyline points="397.625,673.25 409.375,674.125 420.875,674.0 432.0,673.125 442.5,671.375 452.0,668.875 460.625,666.0 468.25,662.5 475.0,658.875 486.125,650.875 494.5,642.625 501.0,634.375 508.25,622.625 513.875,611.75 521.625,595.75"/>
    <polyline points="523.0,593.0 527.25,585.125 531.375,578.375 535.625,572.375 540.0,567.25 544.625,562.875 551.0,558.0 556.0,555.0 561.375,552.5"/>
    <polyline points="563.25,551.75 567.0,550.375 575.125,548.125 581.75,546.75 591.25,545.25 616.625,542.125 626.375,540.625"/>
    <polyline points="629.875,540.0 640.875,537.5 652.75,533.625 665.875,527.625 675.25,521.625 680.125,517.75 685.125,513.25 690.25,508.0 695.5,501.75 700.875,494.25 706.25,485.5 711.625,475.125 716.875,462.875 721.875,448.5 726.5,431.625 730.5,412.125 733.25,389.75 734.5,364.5 733.625,336.625"/>
    <polyline points="729.75,307.125 722.125,277.25 710.375,248.875 694.125,224.5 673.875,206.375 650.25,196.625 625.0,195.625 599.75,202.75 575.75,216.5 554.375,234.625 536.125,254.875 520.875,275.375 508.75,295.125 499.375,313.125 492.25,329.125 487.0,343.125 483.375,355.0 481.0,365.25 479.625,373.875 479.0,381.25 479.0,387.5 480.5,397.5 482.875,405.25 484.375,408.5"/>
    <polyline points="485.75,411.5 493.75,426.75 496.25,433.625 497.625,440.125 498.0,444.375 498.0,448.375 497.625,452.25 496.5,457.75 494.125,464.5"/>
    <polyline points="493.5,466.0 491.25,470.375 487.75,475.5 481.875,481.875 477.375,485.25 473.75,487.375 467.125,490.25"/>
    <polyline points="465.625,490.75 456.375,493.125 445.625,494.75 414.625,497.375"/>
    <polyline points="411.75,497.75 399.0,499.125 388.25,500.875 376.375,503.625 367.625,506.25 358.375,509.875 353.375,512.25 348.375,514.875 337.875,521.75 332.5,526.125 327.125,531.25 321.875,537.25 316.75,544.375 312.0,552.5 308.0,562.0 304.875,572.75"/>
    <polyline points="303.25,585.0 303.5,598.625 306.125,613.375 311.875,628.75 321.0,644.375 333.75,659.25 349.875,672.5 368.625,683.5 389.125,691.625 410.0,696.875 430.25,699.25 448.875,699.5 465.375,697.875 479.625,695.25 491.375,692.0 501.125,688.25 509.0,684.5 515.25,680.875 520.375,677.25 524.375,673.875 527.5,670.625 530.0,667.625 532.0,664.625 533.625,661.75 536.0,656.375"/>
    <polyline points="536.875,653.75 541.5,637.25 542.875,633.0 546.0,625.125 548.625,620.0 551.75,615.5 555.25,611.75 559.125,608.75"/>
    <polyline points="560.5,607.875 566.25,605.375 570.875,604.5 575.75,604.5 582.5,606.125 587.625,608.75 592.875,612.625 597.75,618.125 600.875,622.875"/>
    <polyline points="602.375,625.625 603.75,628.625 606.125,635.625 607.875,643.75 608.75,653.375 608.875,658.75 608.0,670.625 605.375,684.0 603.375,691.25 600.875,698.75 597.625,706.375 593.875,714.125 589.375,721.75 584.125,729.125 578.375,736.0 571.875,742.125 564.875,747.375 557.5,751.5 549.75,754.125 541.875,755.25 534.0,754.75"/>
    <polyline points="526.375,752.625 519.125,748.875 512.375,743.625 506.125,737.0 500.75,729.375 496.0,721.0 492.0,711.875 488.75,702.5 486.125,693.0 484.0,683.5 481.375,665.25 480.75,656.5 480.25,640.5 480.625,626.125 481.5,613.625 483.375,597.625 486.125,580.625"/>
    <polyline points="486.75,577.0 491.75,550.875 493.0,542.25 493.5,536.75 493.5,530.375"/>
    <polyline points="493.375,529.5 492.625,525.625 491.375,522.5 489.5,520.0 487.75,518.375 484.375,516.5"/>
    <polyline points="483.75,516.125 477.75,514.25 472.125,513.125 458.625,511.75"/>
    <polyline points="457.125,511.625 443.875,511.25 429.125,511.75 421.875,512.375 413.875,513.5 402.0,515.875"/>
    <polyline points="398.875,516.625 392.125,518.625 385.125,521.25 374.0,526.75 366.375,531.75 358.625,538.25 351.25,546.625 347.75,551.625 344.625,557.25 342.0,563.375 339.875,570.25 338.5,577.75 338.125,585.875 338.75,594.625 340.875,603.625 344.375,613.0 349.625,622.125 356.5,631.125 364.875,639.375"/>
    <polyline points="374.875,646.625 385.875,652.625 397.625,657.375 409.75,660.625 421.75,662.5 433.25,663.0 444.125,662.375 454.125,660.875 463.0,658.625 471.0,655.75 477.875,652.5 484.0,649.0 489.375,645.375 493.875,641.625 497.875,637.75 501.5,634.0 509.75,622.75 516.0,612.375 522.625,599.875"/>
    <polyline points="524.125,597.0 532.875,582.25 538.75,574.375 541.875,571.0 546.5,566.625 551.375,562.875 556.625,559.75 564.0,556.375"/>
    <polyline points="565.875,555.625 576.125,552.75 590.125,550.5 597.875,549.75 631.875,547.5"/>
    <polyline points="635.5,547.25 651.0,545.125 663.875,542.25 668.5,540.875 678.125,537.125 688.375,531.75 693.75,528.125 699.25,523.875 705.0,518.625 711.0,512.25 717.0,504.625 723.25,495.375 729.5,484.125 735.75,470.5 741.875,454.0 747.625,434.25 752.5,410.625 756.25,383.0 757.875,351.0"/>
    <polyline points="756.375,315.125 750.875,276.5 739.75,237.75 722.5,202.0 698.625,173.5 669.5,155.875 636.875,151.25 603.875,159.125 572.75,176.875 545.5,200.75 523.0,227.25 505.25,253.375 491.75,277.375 482.125,298.5 475.625,316.375 471.625,331.25 469.75,343.375 469.5,353.25 470.5,361.25 472.5,367.75 475.375,373.125 478.75,377.625 482.5,381.625 494.625,391.625"/>
    <polyline points="498.625,394.75 505.875,400.875 509.0,404.0 514.5,410.375 516.625,413.625 520.125,420.0 522.5,426.25 523.875,432.375 524.25,435.375 524.625,443.75 523.375,456.375 521.5,465.0"/>
    <polyline points="521.0,467.0 519.625,472.5 516.75,481.75 513.0,491.875 510.5,497.375"/>
    <polyline points="510.125,498.0 506.625,503.5 504.75,505.375 502.0,507.25"/>
    <polyline points="465.5,509.25 445.375,509.125 437.375,509.375 428.5,509.875 418.375,510.875"/>
    <polyline points="415.625,511.25 407.0,512.625 400.75,514.0 394.125,515.75 383.375,519.5 375.875,523.0 367.875,527.5 363.875,530.25 355.875,536.875 351.875,541.0 348.125,545.625 344.5,550.75 341.25,556.625 338.375,563.125 336.125,570.375 334.75,578.375 334.375,587.0"/>
    <polyline points="335.125,596.25 337.5,605.875 341.375,615.75 347.25,625.625 354.75,635.0 364.125,643.625 375.0,651.25 387.0,657.375 399.75,662.0 412.75,665.125 425.375,666.75 437.5,666.875 448.75,666.0 458.875,664.125 467.875,661.625 475.875,658.5 482.75,655.125 488.75,651.5 494.0,647.625 498.375,643.875 502.25,640.0 508.625,632.375 515.75,621.5"/>
    <polyline points="517.75,618.125 529.0,597.125 533.5,589.75 537.875,583.375 540.875,579.625 547.125,573.25 550.5,570.5 557.375,566.0"/>
    <polyline points="559.125,565.125 561.0,564.125 568.75,561.25 577.25,559.125 581.75,558.375 588.875,557.625 596.5,557.25 610.625,557.375 619.875,557.875"/>
    <polyline points="623.125,558.125 637.0,559.375 683.625,564.5 699.0,565.625 710.0,565.875 721.75,565.625 734.375,564.25 741.0,562.875"/>
    <polyline points="747.875,561.0 755.125,558.375 762.625,554.75 770.5,549.75 778.75,543.0 787.5,533.875 796.75,521.875 806.375,505.625 816.5,484.0 826.625,455.125 836.25,417.0 844.25,367.25 848.375,304.0 844.75,227.375 828.25,142.125 793.5,60.375 738.625,0.625 736.6055,0.0"/>
    <polyline points="593.9398,0.0 532.25,45.875 483.5,103.625 450.5,158.0 431.25,202.25 423.0,235.125 423.625,257.5 431.625,271.625"/>
    <polyline points="445.625,280.25 464.5,285.375 510.5,293.625 534.25,299.125 556.375,306.0 575.625,314.0 591.5,322.5 603.875,331.0 612.875,338.75 619.25,345.5 623.25,351.0 625.5,355.25 626.5,358.375 626.375,360.625 625.375,362.125 623.75,363.125 621.5,363.75 609.0,365.75 601.5,368.25 593.5,372.125"/>
    <polyline points="589.5,374.625 581.75,380.625 574.5,387.75 567.75,395.5 561.75,403.75 559.125,407.875 552.0,419.875 546.375,431.25 540.625,444.75 534.875,461.125"/>
    <polyline points="534.125,463.375 530.875,475.25 529.0,484.25 528.125,491.0 528.125,496.75"/>
    <polyline points="528.25,497.5 529.0,501.0 530.375,503.75 532.375,505.75 535.5,507.5"/>
    <polyline points="536.0,507.75 541.375,509.25 545.0,509.75 555.25,510.25"/>
    <polyline points="556.375,510.125 562.25,510.0 574.875,508.625 585.0,506.5 594.5,503.5"/>
    <polyline points="596.5,502.75 602.875,500.0 609.625,496.375 616.625,491.5 623.875,485.125 628.75,479.875 633.625,473.625 636.0,470.0 640.5,461.875 644.75,452.25 646.625,447.0 648.25,441.25 649.75,435.125 650.875,428.625"/>
    <polyline points="651.75,421.75 652.25,414.625 651.875,399.75 650.875,392.125 649.25,384.625 647.125,377.25 644.25,370.375 640.75,364.0 636.5,358.375 631.75,353.625 626.375,349.875 620.625,347.25 614.5,345.875 608.0,345.625 601.5,346.625 595.0,348.625 588.5,351.75 582.25,355.625 576.25,360.125 570.5,365.25 565.25,370.75 555.625,382.5 547.625,394.375"/>
    <polyline points="544.125,400.125 535.5,416.375 528.875,430.625 523.875,442.75 511.625,474.5 508.625,481.125"/>
    <polyline points="508.0,482.5 504.75,488.625 501.625,493.375 496.625,498.75 491.875,501.875"/>
    <polyline points="491.125,502.25 486.625,504.0 481.375,505.25 473.375,506.25 467.375,506.625"/>
    <polyline points="466.125,506.625 441.75,507.375 428.625,508.125 418.5,509.125"/>
    <polyline points="415.75,509.5 410.0,510.25 397.375,512.875 386.875,516.0 379.25,518.875 371.375,522.75 367.25,525.125 359.0,530.75 354.75,534.25 350.625,538.25 346.625,542.75 342.75,548.0 339.25,553.75 336.0,560.375 333.5,567.625 331.625,575.75 330.875,584.625"/>
    <polyline points="331.25,594.25 333.25,604.25 337.0,614.75 342.625,625.125 350.25,635.25 359.75,644.625 371.0,652.875 383.625,659.75 397.125,665.0 410.875,668.375 424.375,670.25 437.25,670.625 449.125,669.75 459.875,668.0 469.375,665.375 477.75,662.25 485.0,658.75 491.125,655.0 496.5,651.25 501.0,647.375 508.375,639.625 513.875,632.25 518.375,625.125"/>
    <polyline points="520.25,621.75 532.875,598.5 537.25,591.625 540.25,587.5 544.875,582.125 549.625,577.625 553.0,575.0 558.25,571.625 560.125,570.75"/>
    <polyline points="562.0,569.875 565.75,568.25 573.875,565.875 582.75,564.5 590.0,564.125 600.25,564.375 608.625,565.25 624.0,568.125"/>
    <polyline points="627.25,569.0 641.125,573.375 652.125,578.125 659.875,582.25 667.75,587.5 671.75,590.625 675.75,594.125 679.75,598.25 683.625,602.875 687.5,608.25 691.25,614.5 694.75,621.75 698.0,630.25 700.75,640.25 703.0,652.125 704.375,666.125 704.75,682.875 703.5,702.75 700.25,726.25"/>
    <polyline points="694.25,754.0 684.5,785.875 670.125,822.0 649.75,860.75 622.875,899.875 589.0,935.0 549.625,960.5 507.375,971.125 466.125,963.75 429.75,939.375 400.75,902.625 379.5,859.875 365.25,816.75 356.375,777.25 351.25,743.5 348.875,716.0 348.125,694.625 348.75,678.625 350.5,667.25 353.125,659.75 356.625,655.25 361.125,653.0 366.5,652.25 372.875,652.625 388.0,654.75"/>
    <polyline points="396.375,655.75 405.0,656.375 413.875,656.5 422.625,656.0 431.0,655.0 439.0,653.375 446.5,651.25 453.375,648.625 459.625,645.75 465.375,642.5 475.0,635.5 479.125,631.75 482.75,628.0 489.0,620.5 494.0,613.0 498.25,605.75 501.875,598.875 507.875,586.25"/>
    <polyline points="509.25,583.375 515.375,570.5 523.25,556.375 529.875,547.5 533.25,543.875 537.875,539.875"/>
    <polyline points="539.0,539.0 545.25,535.0 553.25,531.375 564.0,528.0 576.375,525.125"/>
  </g>
</svg>
