<?xml version="1.0" encoding="utf-8" ?>
<svg xmlns="http://www.w3.org/2000/svg" xmlns:cc="http://creativecommons.org/ns" xmlns:dc="http://purl.org/dc/elements/1.1/" xmlns:ev="http://www.w3.org/2001/xml-events" xmlns:inkscape="http://www.inkscape.org/namespaces/inkscape" xmlns:rdf="http://www.w3.org/1999/02/22-rdf-syntax-ns" xmlns:sodipodi="http://sodipodi.sourceforge.net/DTD/sodipodi-0.dtd" xmlns:xlink="http://www.w3.org/1999/xlink" baseProfile="tiny" height="27.09333333cm" version="1.2" viewBox="0 0 1024.0 1024.0" width="27.09333333cm">
  <metadata>
    <rdf:RDF>
      <cc:Work>
        <dc:format>image/svg+xml</dc:format>
        <dc:source>vpype read './original_svgs/Strange Attractors #473.svg' linemerge linesimplify write './Strange Attractors #473.svg'
</dc:source>
        <dc:date>2024-08-05T01:36:02.607480</dc:date>
      </cc:Work>
    </rdf:RDF>
  </metadata>
  <defs/>
  <g fill="none" id="layer1" inkscape:groupmode="layer" inkscape:label="1" stroke="black" style="display:inline">
    <polyline points="636.125,752.875 652.3731,757.2574 666.8902,760.4189 680.0728,762.4861 691.6889,763.3768 703.4643,763.216 714.9241,761.9134 725.2886,759.5984 734.84,756.229 744.2525,751.5763 753.4194,745.558 761.6995,738.5976 769.4479,730.4129 776.5702,721.0911 783.1835,710.4298 788.8289,699.2099 793.827,686.8375 798.4563,672.0446 802.1311,656.2364 804.8525,639.3666 806.5177,622.0097 807.1244,604.379 806.6932,586.2489 805.2526,567.7096 802.8033,549.09 799.5062,531.4008 795.2809,514.1157 790.2021,497.6422 784.0994,481.3832 777.2075,466.051 769.5951,451.7923 761.3307,438.7544 752.6414,427.2725 745.3007,418.9877 737.4573,411.3128 729.4275,404.5842 721.25,398.8018 712.9631,393.9656 704.6056,390.0756 695.7251,386.9618 686.9198,384.7844 677.8205,383.4353 668.4699,382.9654 659.2829,383.3799 649.9379,384.6728 640.1375,386.9253 630.276,390.0733 620.5003,394.0852 610.8598,398.9295 601.1593,404.7078 591.4587,411.3688 582.1958,418.6161 573.3867,426.398 564.123,435.5872 555.4856,445.1287 547.5473,454.9168 540.098,465.202 533.9395,474.617 527.9676,484.6113 523.2408,493.2406 518.7208,502.4652 513.6514,513.6801 509.6812,523.384 497.0626,558.4631 493.9174,566.3417 489.8983,575.0187 485.9475,581.2513 483.274,584.1813 480.59,586.4009 477.9076,587.9095 474.7747,589.026 471.3922,589.5683 468.0926,589.5527 464.5625,588.9844 460.6991,587.8744 456.2099,586.1142 451.0496,583.4695 443.861,579.079 438.686,575.4197 423.4547,562.6394 409.7197,549.3845 393.3443,531.9205 374.9745,510.3936 358.0191,489.2907 338.9119,463.7962 318.6201,435.3538 296.8351,402.9603 276.3969,371.1613 255.9669,337.5201 236.1316,303.1451 219.5996,272.1575 213.2137,259.2444 209.2182,250.2797 206.9639,243.926 206.4928,241.682 206.5412,240.2779 206.9237,239.7964 207.4718,239.781 209.6721,241.1861 213.0905,244.4964 217.6748,249.607 228.1978,262.4384 275.1218,321.9924 298.5074,350.5743 313.7302,368.3202 328.7918,385.2385 343.2142,400.8261 357.0384,415.0863 382.1759,439.433 407.7657,462.4003 422.3262,474.5593 439.3507,488.1506 470.8253,512.0567 490.1748,527.1501 502.4826,538.126 511.7269,547.694 517.0734,554.2626 521.4891,560.3283 525.4514,566.6301 529.9348,574.5627 537.2416,589.6289 549.0777,616.7151 556.2854,631.9582 560.2848,639.5948 567.0441,651.3126 573.4856,661.3711 581.8767,673.1833 589.2486,682.3832 597.6883,691.82 607.8197,701.89 618.4942,711.2989 628.9552,719.2398 641.2449,727.3861 651.2875,733.0284 661.6861,737.8194 672.922,741.9682 682.9732,744.6857 693.0483,746.3683 702.9834,746.9808 712.2671,746.5408 721.2543,745.0251 729.9153,742.4531 738.503,738.6986 746.6847,733.8306 754.1307,728.0906 761.0516,721.4078 767.623,713.5681 773.5331,704.8981 778.75,695.5 783.5654,684.8306 787.8456,673.0986 791.4072,660.773 794.2243,648.0163 796.3364,634.5571 797.698,620.2593 798.3189,604.8724 798.1418,589.4141 797.1977,574.0779 795.4669,558.647 793.0715,544.0422 789.8777,529.3542 785.9613,514.9419 781.2445,500.625 776.0116,487.2683 770.1916,474.6262 764.0,463.125 757.0536,452.0483 749.6998,441.9587 741.7318,432.6126 733.6965,424.6268 725.1264,417.5199 716.5248,411.7111 707.2374,406.696 697.5786,402.7353 687.9384,399.9844 677.997,398.3432 668.2725,397.8643 657.7769,398.4745 647.6137,400.135 637.46,402.8533 627.0577,406.759 616.2267,412.0135 605.981,418.0717 595.849,425.1979 585.8809,433.4169 577.8406,440.9758 570.2693,448.9531 562.947,457.5681 555.9741,466.7117 549.5549,476.1171 543.5428,485.9846 538.2129,495.8788 533.3836,506.0745 528.0078,519.1683 523.0008,533.8953 520.0521,544.5659 516.8645,558.9586 514.5008,572.5958 512.4762,587.5861 509.4404,621.2479 507.6388,637.895 506.2327,645.9882 504.7188,651.6406 503.0896,655.6562 501.4537,658.6523 499.3906,660.9844 497.1557,662.4164 494.698,663.2086 491.6128,663.3247 488.3472,662.6528 484.3765,661.3012 479.3228,658.6426 472.7555,654.3841 464.0,647.5 457.4462,641.7454 440.2311,624.8486 418.4825,600.6008 396.499,574.0297 374.8019,546.1073 347.9329,509.2298 326.3416,477.9016 298.3506,435.1356 275.1186,397.9766 249.0401,354.1342 224.0307,310.0885 199.3851,264.0732 187.938,241.6312 179.0712,223.4853 171.9351,207.892 166.9886,195.8465 164.5297,188.1162 164.2453,185.939 164.5963,184.8712 165.2479,184.77 166.2286,185.2292 169.1613,187.7998 173.3615,192.5242 179.1767,199.838 229.7824,269.7293 251.625,299.375 272.6239,326.8209 294.3022,353.8728 316.6391,380.4283 338.079,404.5658 357.9939,425.4914 378.305,445.341 396.8766,462.2311 415.4844,477.9567 433.5985,492.0335 452.076,505.1887 466.7652,514.8636 481.3573,523.8352 501.2938,535.2199 538.5852,555.5506 551.7656,563.5156 560.9335,569.7643 571.2536,577.932 579.1108,585.2406 588.0965,594.7413 606.8545,616.5325 615.9042,626.4373 623.6529,634.2278 633.3796,642.8693 642.6281,649.7318 652.8816,655.8439 662.3767,659.9066 672.5281,662.8787 678.1529,663.773 683.842,664.0908 689.1117,663.84 694.1866,663.023 699.233,661.5967 704.1807,659.5609 708.9178,656.9418 712.9655,654.0582 717.1463,650.3394 720.8362,646.3227 724.2569,641.8193 727.3691,636.8345 730.294,631.1017 732.7507,625.1805 734.8519,618.8401 736.5398,612.1527 737.8842,604.6978 738.7935,596.9415 739.2212,589.3025 739.1912,581.8914 738.6744,574.1009 737.7043,566.1417 736.3114,558.2336 734.4883,550.4427 732.2278,542.8357 729.5529,535.5053 726.4346,528.288 723.1367,521.8051 719.7108,516.0559 715.9914,510.7416 711.7065,505.5459 707.0547,500.7195 700.4603,495.1592 693.5566,490.7869 685.2587,487.1239 677.2965,484.9974 669.3563,484.2452 661.2434,484.8207 653.451,486.6202 645.6441,489.7169 638.0469,494.0625 630.5202,499.8531 623.6461,506.6496 617.7031,514.1357 612.4175,522.6693 608.1691,531.6347 604.6834,541.4115 602.3109,551.398 601.0766,560.4942 600.6763,570.0294 601.0728,579.1628 602.3727,588.1615 604.7169,598.2356 607.6144,606.9476 611.8232,616.7783 616.5556,625.3219 622.6405,634.5467 628.0948,641.3784 635.5644,649.1593 642.7254,655.3058 651.428,661.4206 658.442,665.34 667.2899,668.9943 676.042,671.4542 682.1053,672.3122 687.8756,672.5001 693.6125,672.0797 699.0405,671.025 704.4185,669.2672 709.3516,666.9922 714.5,663.875 718.9335,660.4769 723.19,656.4491 727.2037,651.7917 730.6875,646.8535 733.7607,641.5374 736.7886,635.1572 739.3278,628.5706 741.4898,621.5277 743.2267,614.0831 744.5058,606.2657 745.3332,598.1478 745.6967,589.7635 745.5696,581.2066 744.9658,572.9641 743.8117,564.1857 742.2036,555.5173 740.2359,547.3425 737.8481,539.3611 735.1771,531.9945 731.8837,524.3657 728.1601,516.9988 724.2913,510.4292 720.132,504.3683 715.9335,499.1474 710.9815,493.9275 703.2344,487.2969 695.4638,482.3064 687.0062,478.5824 678.4534,476.2478 669.9815,475.3266 661.3899,475.8505 652.4006,477.7743 643.5803,481.1376 634.9386,486.0041 626.7378,492.1135 619.3435,499.2822 612.588,507.6235 606.3819,517.3438 601.6096,527.0686 597.3994,538.5 594.8754,549.0 593.3327,559.9169 592.9125,569.3659 593.4439,580.2829 594.9928,590.7824 597.4032,601.2195 600.4704,610.236 605.2348,621.1879 610.797,631.141 616.6835,640.0534 623.1514,647.9741 631.8313,657.0721 640.2043,664.2338 648.994,670.3571 658.0063,675.3134 667.8296,679.3712 676.5777,681.7187 683.3768,682.7107 689.8627,683.0074 695.7413,682.6493 701.6069,681.5781 707.4204,679.7817 713.1069,677.2493 718.3447,674.1443 723.5589,670.212 728.2809,665.7832 732.4644,660.9804 736.3552,655.5093 740.0253,649.217 743.3664,642.2373 746.175,635.0049 748.5547,627.2536 750.3983,619.2764 751.8535,610.3298 752.7569,601.3527 753.1581,592.0948 753.0386,582.6547 752.3739,572.9883 751.1796,563.1753 749.5312,553.7812 747.381,544.5348 744.8337,535.8951 741.6835,527.2469 737.9116,518.5121 733.9037,510.5735 729.5353,503.143 725.0416,496.5886 720.3626,490.7539 715.0842,485.1051 706.6473,477.7791 702.4379,474.8197 697.8482,472.0775 693.2681,469.8186 688.4433,467.8925 683.6157,466.4002 678.4289,465.2666 673.6382,464.6429 668.5221,464.4216 663.2976,464.6636 658.3552,465.2903 653.5431,466.2789 648.497,467.7338 643.5815,469.578 638.7721,471.8025 633.6397,474.6269 628.7936,477.7456 624.2117,481.1436 619.5907,485.0597 615.4416,489.0398 611.2778,493.5781 603.7045,503.504 596.9537,514.6129 591.5669,526.2043 587.5472,538.2719 584.75,551.125 583.5577,561.8569 583.4122,574.4492 584.275,585.547 586.175,596.4888 589.2245,607.4947 593.4481,618.9574 598.7639,630.0174 604.7208,640.2288 612.4301,650.8509 619.9587,659.739 629.5445,669.0813 638.3358,676.2707 648.5435,683.0552 658.2772,688.2782 668.6423,692.3336 679.3127,695.1215 686.4466,696.0675 693.3435,696.2428 700.6834,695.624 707.2126,694.3076 713.5099,692.2048 719.7044,689.2663 725.3827,685.7151 730.7672,681.4479 735.9534,676.3242 740.648,670.6475 745.0212,664.2207 748.8038,657.4452 752.2182,649.9064 755.2565,641.6172 757.8594,632.6719 759.8858,623.5526 761.3888,613.9951 762.3021,604.2939 762.6949,593.6041 762.5098,583.0248 761.7593,572.3148 760.4895,561.977 758.668,551.7053 756.2861,541.4728 753.3871,531.4622 750.126,522.1187 746.2719,512.8135 742.1294,504.3214 737.3161,495.8726 732.2832,488.2371 726.7087,480.9611 721.084,474.6935 716.506,470.2971 711.728,466.3191 706.7434,462.733 701.7019,459.6381 696.6145,457.0259 691.1499,454.7623 686.0029,453.1214 680.5,451.875 674.6467,451.0703 668.8717,450.7631 663.1833,450.9366 657.5897,451.5746 652.0991,452.6604 646.2684,454.3183 640.494,456.4241 634.6295,459.0606 629.0306,462.0947 623.6833,465.5127 618.4516,469.3892 613.1478,473.8683 607.9467,478.8601 603.1204,484.0898 598.5317,489.6581 594.1783,495.5874 590.4534,501.3009 586.9165,507.4336 583.7998,513.5899 580.8438,520.3398 578.1924,527.4066 575.6705,535.273 574.0073,541.7097 572.6653,548.4615 571.0648,561.2503 570.8305,574.4983 571.7665,587.069 574.1602,600.6109 577.4412,612.5738 582.0749,624.9966 588.0119,637.2113 594.7607,648.6848 603.8019,661.2474 612.4084,671.2913 622.8115,681.6487 633.3779,690.304 645.1591,698.4014 656.2139,704.4006 668.7044,709.4942 674.4652,711.2485 680.409,712.6224 688.7776,713.8215 696.8558,714.1399 704.4916,713.593 711.8116,712.2085 719.1106,709.9208 725.9183,706.8574 732.3775,702.9614 738.5332,698.1882 744.4548,692.457 749.8149,686.0925 754.8184,678.8552 759.0941,671.3131 763.0983,662.6394 766.4906,653.5313 769.3864,643.7337 771.6645,633.7104 773.5062,622.4521 774.7217,610.8012 775.3085,598.738 775.2474,586.773 774.5378,574.6451 773.2235,562.9641 771.2225,550.8298 768.6037,538.8103 765.3861,527.0385 761.7159,515.9962 757.6623,505.764 752.9577,495.6837 747.614,485.8328 741.8533,476.702 735.7104,468.3561 729.4576,461.1119 724.1985,455.8806 718.5733,450.9916 712.8476,446.6673 706.7155,442.7212 700.8419,439.5743 694.5952,436.883 688.6525,434.936 682.3368,433.4797 675.7938,432.5342 668.9574,432.1461 662.2283,432.3585 655.6194,433.1406 648.7435,434.5617 642.073,436.5218 635.3004,439.0996 628.8035,442.1451 621.9437,445.9884 615.2987,450.3434 608.7436,455.2545 602.3345,460.7234 596.6541,466.2209 591.0656,472.3447 585.3285,479.3943 580.1694,486.5059 575.3639,493.9927 571.1612,501.4556 567.2389,509.4446 563.4296,518.3733 560.8907,525.2252 558.6742,532.5831 556.4882,541.6325 554.797,550.3223 553.8417,557.4959 553.2066,565.2753 552.9247,573.0169 553.0313,580.7001 554.34,595.0554 557.2726,610.362 561.7121,624.945 564.0666,631.3415 566.8916,637.8586 574.431,652.6728 583.5229,666.9183 593.1487,679.6732 604.4985,692.4609 617.1392,704.2642 623.6274,709.683 630.1589,714.6409 643.9901,723.7228 650.5676,727.4513 656.9487,730.6261 663.9489,733.6374 670.8239,736.1398 677.875,738.25 684.3706,739.7583 694.0508,741.168 703.2032,741.5438 712.4645,740.9069 720.9254,739.3185 729.2659,736.678 737.1791,733.0726 744.6034,728.5751 751.8516,722.9567 758.3657,716.6001 764.5748,709.1401 770.3966,700.5986 775.5596,691.3719 780.1255,681.3959 784.0028,670.9422 787.4553,659.2761 790.2256,647.1713 792.3707,634.3823 793.838,620.9944 794.5749,607.1711 794.582,593.0986 793.8447,578.3879 792.4008,563.9316 790.241,549.4906 787.4499,535.5731 783.8586,521.4563 779.628,507.8011 774.7798,494.6546 769.5073,482.4756 763.7163,471.0021 757.6247,460.6371 750.8561,450.7546 743.4564,441.4431 736.8231,434.226 729.7107,427.5368 722.6993,421.9094 715.2626,416.9137 707.8347,412.8544 699.7654,409.3373 691.7064,406.6857 683.3156,404.7954 674.9849,403.7617 666.3828,403.5469 657.6272,404.1765 648.9191,405.6004 640.1413,407.8438 631.6791,410.778 622.8679,414.6386 614.2216,419.2292 605.3964,424.7777 596.8696,431.0214 588.3962,438.1321 580.3502,445.7871 572.5188,454.2168 565.2279,463.0507 558.495,472.1896 552.1862,481.8771 546.0,492.625 541.1045,502.271 536.5859,512.5902 532.4458,523.6794 528.932,534.7978 526.0715,545.8271 523.179,560.5312 521.8912,569.9299 520.9366,580.5041 520.51,589.2298 520.3255,599.8645 520.6007,611.6493 521.891,625.859 523.4314,636.7604 526.3902,650.3698 530.9599,665.3008 537.451,680.5828 545.8181,695.8292 551.7658,704.9514 556.8283,711.9925 564.7753,722.1857 570.1007,728.4427 580.5033,739.5944 588.1975,747.2619 597.5062,755.7473 608.156,764.7997 617.1386,771.7644 626.9141,778.6973 636.8749,785.1927 645.9407,790.5313 655.598,795.5919 665.8011,800.2946 676.0157,804.3779 685.0694,807.3945 694.5229,809.8707 703.5416,811.5832 716.2943,812.8798 728.618,812.7898 740.3506,811.309 751.8659,808.3757 762.6555,804.1163 772.9661,798.4603 782.7032,791.4218 791.8354,783.0024 800.3614,773.2229 808.2065,762.1694 815.3126,749.9321 821.6367,736.6045 827.2151,722.1138 832.1132,706.2532 836.17,689.5162 839.4205,671.6944 841.7904,652.8962 843.1859,633.6569 843.607,613.7129 843.0503,592.9131 841.5107,571.745 838.991,550.4363 835.565,529.5915 831.2866,509.416 826.2086,490.0923 820.3047,471.4641 813.6074,453.5443 806.0412,436.1878 797.8064,419.9038 788.9687,404.8115 779.5939,391.0297 769.9424,378.8978 762.3276,370.5697 754.2547,362.7753 746.0417,355.8344 737.7175,349.7303 728.9983,344.266 720.2223,339.6649 711.4218,335.9082 702.3152,332.8877 692.7093,330.5918 683.3484,329.1531 673.3392,328.451 663.4924,328.5726 653.4664,329.497 643.3141,331.2331 633.4434,333.6758 622.5703,337.1626 613.4849,340.6717 604.7267,344.577 595.9651,349.0055 586.9253,354.13 577.9952,359.7535 568.7465,366.14 559.8376,372.7976 550.9012,379.9984 540.9505,388.6537 530.8588,398.13 521.5759,407.5794 512.0296,418.0613 501.9873,429.7864 492.9455,440.9447 463.9665,478.9184 459.1442,484.6382 454.6843,489.3037 447.7409,495.2211 444.4304,497.3304 440.9444,499.0409 437.3364,500.2764 433.9559,500.9429 430.2248,501.1653 426.6374,500.891 419.4542,499.1583 412.25,496.2068 403.6925,491.3143 395.4498,485.4581 385.2489,476.9262 375.4638,467.862 363.8695,455.8524 352.2894,442.9371 338.6364,426.3403 325.5262,409.5383 309.5719,387.6139 297.3393,369.8517 283.1852,347.9307 273.1065,330.8935 266.1994,317.6294 264.688,313.479 264.6767,311.5558 265.8146,311.6693 267.7341,312.8963 273.9033,318.6012 286.6258,332.437 310.1953,358.9845 343.136,394.8192 370.5096,422.863 419.3939,470.8047 428.0859,479.8948 436.5138,489.5199 441.2383,495.9699 445.6373,503.2137 448.0695,509.3223 448.8708,513.9225 448.7389,516.3293 448.1792,518.5088 447.3379,520.0843 445.8009,521.7639 444.1991,522.7361 441.7995,523.4378 439.7619,523.5986 437.1261,523.3632 433.0212,522.4653 429.8726,521.3824 420.3752,516.6117 411.9924,511.011 401.5297,502.7402 390.3731,492.4959 378.2333,480.3223 362.7962,463.2784 350.9464,449.2957 334.4973,428.3791 320.5695,409.6741 302.7608,384.3811 289.4078,364.2839 273.5986,338.9947 261.4566,317.8887 257.0659,309.5294 254.4437,303.8046 253.037,299.5787 252.9093,298.3219 253.1689,297.6723 254.3755,297.865 256.5694,299.4084 263.6786,306.3797 311.1638,360.4018 333.1749,384.662 350.1092,402.5547 378.526,431.1012 435.0347,484.7575 444.1628,494.2901 451.6338,503.0334 457.8676,511.8675 461.4222,518.6633 463.0441,522.9763 464.1038,526.9256 464.5682,530.6826 464.5387,534.0801 464.0,536.875 462.8601,539.8188 461.4306,541.9242 459.4818,543.6801 456.8841,545.0259 453.7944,545.8058 451.0714,545.9615 447.7107,545.5625 443.8278,544.6122 439.926,543.1824 429.5277,537.8389 419.0907,530.5865 407.576,521.1505 392.2953,506.553 381.3014,495.0117 363.3582,474.6302 348.8218,456.7545 330.7459,433.2299 315.7137,412.361 295.728,383.1406 278.5164,356.3563 260.7684,327.2309 246.3005,301.2389 241.2931,291.4803 238.1083,284.3801 236.4831,279.3627 236.3816,277.9378 236.6929,277.3247 237.9942,277.5848 240.278,279.2902 248.0217,287.2308 306.2169,355.8385 329.9529,382.5082 348.1799,401.8697 371.2757,425.1406 387.369,440.5281 411.0152,462.1119 436.6419,484.4978 455.263,501.4708 467.5531,514.0206 471.7299,518.8856 475.357,523.6807 479.1159,529.1302 482.0276,534.0794 485.3971,541.2209 487.4533,546.8411 488.9583,552.8943 489.7885,558.411 490.1911,566.4554 489.746,572.1727 488.6883,577.3866 486.6424,582.812 484.3861,586.7054 481.7441,589.5101 478.6046,591.6029 475.074,592.771 470.406,593.1238 465.7475,592.3829 460.4168,590.6861 455.6754,588.56 449.2897,584.9644 443.1347,580.9228 436.4684,575.8772 428.6577,569.3583 413.9799,555.5203 396.5276,537.0929 376.4139,513.7466 359.6462,492.7724 339.5,466.0 318.6692,436.6577 294.3382,400.4005 275.2588,370.4363 255.2171,337.3234 234.5494,301.2643 216.785,267.9661 211.403,256.9127 207.5625,248.0938 205.2812,241.5625 204.8515,238.2095 205.1852,237.7123 205.8481,237.7054 207.9251,239.0249 211.0782,242.0375 215.6459,247.1227 227.2441,261.4113 273.9353,320.8806 296.5419,348.487 312.7313,367.4401 328.9133,385.7206 342.1505,400.0038 355.9865,414.2481 384.6953,442.0496 407.6464,462.5792 421.9566,474.5298 437.37,486.8177 491.7227,528.0682 504.7483,539.5793 514.8551,550.2433 519.591,555.9001 523.3614,560.985 532.131,575.2857 538.8848,588.8826 555.3886,624.5112 561.78,637.01 568.6912,649.0625 575.415,659.429 583.4874,670.6183 591.2917,680.2599 599.9467,689.9209 609.8456,699.6098 620.8763,709.1704 631.1292,716.8154 642.2359,724.0131 652.3404,729.6346 663.0878,734.5093 674.0044,738.3869 684.1073,740.9306 693.8498,742.341 703.4301,742.7205 712.4578,742.1096 721.3246,740.4681 729.5129,737.9222 737.6173,734.2864 745.189,729.7017 752.305,724.1302 759.0758,717.4985 765.2839,710.035 771.0936,701.5144 776.2195,692.3246 780.76,682.3196 784.837,671.2463 788.2527,659.6248 791.0706,647.2157 793.2266,634.0913 794.625,620.75 795.33,606.6077 795.3138,592.0683 794.5845,577.6535 793.1318,563.1244 791.0041,548.9913 788.134,534.8941 784.4819,520.654 780.1835,506.8304 775.2665,493.5452 769.7583,480.9202 763.8577,469.3861 757.4941,458.7609 750.6092,448.8598 743.1093,439.585 736.0815,432.1095 728.8373,425.4878 721.4218,419.7471 713.9743,414.9632 705.6975,410.6298 697.3925,407.2265 688.73,404.6378 680.1058,403.0014 671.5553,402.2867 662.4711,402.4764 653.2556,403.5487 644.3296,405.4287 635.3463,408.1643 626.691,411.6086 617.612,416.0682 608.6737,421.3201 599.7169,427.5099 590.8035,434.6486 581.7612,442.9046 573.2972,451.6679 565.707,460.5696 558.8657,469.6423 552.3066,479.4956 545.7655,490.591 540.3448,501.1874 535.0378,513.3076 531.139,523.5977 527.5562,534.9817 524.8378,545.4754 521.9343,559.8679 520.6111,568.9587 519.1993,582.6075 518.4688,598.9999 518.5741,611.0185 519.1698,622.4095 520.5447,635.4918 522.1854,646.1508 525.8091,661.2071 528.8546,670.6363 531.7282,678.0146 535.2834,685.881 540.087,695.1174 544.2454,702.0446 550.0833,710.7461 561.5592,725.7848 569.1454,734.5798 579.8002,746.0007 587.0938,753.0658 597.0421,761.9841 605.854,769.501 614.8501,776.4916 625.3361,783.9741 636.1335,791.0856 645.6274,796.6934 655.7407,802.0376 666.0711,806.8834 675.867,810.9007 684.9843,813.9932 694.1004,816.4584 703.1407,818.2891 712.0403,819.4915 725.1435,820.131 731.6253,819.8678 737.809,819.2273 744.0347,818.1779 749.9167,816.7916 755.8053,814.9952 761.6857,812.7654 767.1779,810.2606 772.6375,807.3354 778.0913,803.9378 783.1434,800.3244 788.1374,796.274 793.0544,791.7757 797.8752,786.8189 802.3363,781.6902 810.6542,770.4773 818.1892,757.9628 824.8767,744.2542 830.9508,728.8279 836.1749,712.2318 840.5041,694.6664 843.9033,676.3165 846.3898,656.9298 847.8924,636.4019 848.3505,614.9496 847.759,592.8814 846.1459,570.822 843.556,549.0145 839.9624,527.2996 835.4467,506.2673 830.0487,486.0474 823.6653,466.1831 816.3147,446.8473 808.1859,428.5796 799.3514,411.5224 790.0711,396.1061 780.25,382.125 769.6783,369.3209 758.4572,357.8385 750.8056,351.0995 742.7437,344.8634 734.5891,339.3923 726.0621,334.5137 717.7984,330.5638 709.2138,327.2372 700.3296,324.5799 691.3965,322.6403 682.1735,321.374 673.0684,320.8282 663.7283,320.9672 654.1919,321.8127 644.5037,323.3744 634.9792,325.5774 625.1347,328.5164 614.9034,332.2661 606.4444,335.898 598.2765,339.8577 589.761,344.4533 581.2901,349.4894 572.6382,355.0953 563.7689,361.3054 546.658,374.6633 536.6094,383.368 526.644,392.6192 517.1069,402.121 507.7929,412.0491 489.2546,433.5212 460.4954,469.5066 454.8556,476.0224 450.2425,480.771 443.4759,486.2699 436.4281,490.1596 433.2041,491.3147 429.9446,492.037 426.5522,492.3544 423.241,492.2835 416.6912,491.0051 408.4453,487.925 400.9164,483.8145 392.1862,477.8391 383.1315,470.3926 372.0115,460.1651 362.7463,450.6571 350.8706,437.6048 339.872,424.4811 324.6944,405.2166 313.5623,390.0998 300.621,371.6227 284.6148,346.7112 278.0531,335.675 271.7442,323.441 270.7915,320.5437 270.711,319.6068 271.0042,318.9176 272.0,319.0 274.1321,320.4253 280.6423,326.517 342.99,394.5022 369.5866,421.9346 408.5983,460.6694 420.4805,473.1261 426.918,480.4982 432.6279,487.813 436.727,494.195 439.3291,499.6265 440.617,504.5797 440.7029,506.7001 440.3852,508.4172 439.7673,509.873 438.6177,511.2744 437.083,512.2729 435.4566,512.8179 431.2496,512.9347 428.5176,512.4336 425.3841,511.4216 417.4529,507.7215 406.875,500.75 398.9501,494.5096 387.1472,483.8987 376.2261,473.0079 363.7655,459.6334 351.6745,445.446 336.8435,427.149 322.716,408.3009 306.9464,386.1702 289.1654,359.6709 278.3677,342.3822 267.373,323.2418 262.1108,312.1025 261.181,309.0039 261.4426,307.6678 262.8402,307.8912 265.3434,309.7196 273.7807,318.2077 322.7054,373.0134 354.6044,406.9423 383.2183,435.4334 423.5795,474.5106 433.44,484.8047 439.452,491.6817 445.7159,500.108 449.125,505.75 452.2409,513.0113 452.875,515.625 453.2766,519.3295 453.099,521.817 452.4507,523.8984 451.3125,525.9375 449.7524,527.5547 447.8829,528.6574 445.7239,529.2963 443.1854,529.5185 440.6606,529.3613 436.785,528.551 431.875,526.875 427.9505,525.0787 423.7489,522.7075 412.8168,515.2815 399.875,504.625 389.3218,494.6655 373.8558,478.6292 362.6605,465.9639 348.5092,448.9305 333.0602,429.1236 315.9997,405.9165 301.3195,384.5976 283.8156,357.9296 268.616,333.256 256.826,312.5814 252.5589,304.2587 249.625,297.75 248.4433,294.0089 248.408,292.774 248.6894,292.2906 250.049,292.49 252.3045,294.1339 260.9109,302.8245 315.114,365.1628 332.5474,384.3654 349.9818,402.8755 365.5363,418.5806 387.5981,440.1215 429.815,478.9798 440.0158,488.8026 449.9703,498.9832 458.7506,509.5851 461.8789,513.9098 464.4193,518.0828 466.8275,522.618 468.6621,526.9077 470.0787,531.5046 470.8525,535.2781 471.1496,538.9681 470.9543,542.9242 470.2405,546.1575 468.8588,549.4013 467.1587,551.8267 464.9346,553.7826 462.3117,555.1628 459.0382,556.0628 455.9193,556.2117 452.3689,555.8201 448.4036,554.9377 444.3683,553.4275 437.875,550.25 432.897,547.3727 427.2072,543.5417 421.0,538.875 409.7739,529.2323 394.7266,514.7617 380.0675,499.0798 364.3988,480.9519 347.195,459.4444 328.4881,434.5439 306.2609,402.8069 288.5952,376.2906 268.967,345.1923 253.2671,318.763 238.6042,291.9595 234.1042,282.938 230.8311,275.5457 229.1805,270.5996 229.0,269.25 229.2216,268.4487 230.3696,268.4451 232.7563,270.091 240.3521,277.8417 253.7926,293.6535 286.167,333.0518 304.9245,355.103 327.929,381.1317 349.8862,404.4551 371.9949,426.6661 392.3727,445.8063 413.1536,464.3613 452.4522,497.9655 465.3259,509.5233 472.3449,516.3716 477.8612,522.2574 483.1109,528.663 487.7216,534.9471 492.0076,541.8953 495.8469,549.5174 498.6528,557.0175 500.822,564.5958 502.7143,574.4809 503.6382,582.8772 503.9992,591.1254 503.7194,602.6682 502.6844,611.625 501.0735,619.6587 499.0671,625.5633 496.4076,630.2602 493.2905,633.5738 491.692,634.606 489.5,635.5 485.1852,636.1759 480.2719,635.5141 474.6487,633.438 469.1907,630.7164 462.755,626.5799 455.5884,621.2178 447.5264,614.3921 439.1046,606.6737 419.569,586.7361 402.8476,567.726 380.8126,540.8246 358.9766,512.1494 338.0257,483.1749 312.8119,446.0771 287.8105,407.6892 263.6179,368.3837 239.1635,326.7503 215.7264,284.4134 195.7893,245.9381 188.4877,230.6007 183.0292,218.042 179.8562,209.2994 179.2082,206.5583 179.2197,205.0329 179.6104,204.5158 180.3248,204.5321 182.9665,206.3813 187.0763,210.6835 192.1426,216.8019 258.9609,305.9263 279.8491,332.5611 300.7186,358.1096 319.25,379.875 334.669,397.1334 351.4723,414.9454 368.869,432.3787 386.055,448.6553 401.9462,462.8279 418.1241,476.2968 435.17,489.5332 450.3743,500.6245 465.4251,510.9073 513.4382,541.3263 523.4476,547.9665 535.6131,556.7144 544.9637,564.5513 554.351,573.7058 565.1436,586.5064 593.2203,626.0537 602.8769,638.262 608.8306,645.2497 614.0138,650.7721 621.2381,657.7695 628.0616,663.8265 634.042,668.5471 640.0237,672.7893 645.849,676.4934 651.5126,679.6376 658.0875,682.7738 664.5238,685.3612 670.3259,687.246 675.8785,688.5753 683.0301,689.641 690.25,690.0 696.4949,689.624 702.4167,688.5832 709.039,686.616 715.1663,683.9841 720.6549,680.825 725.8814,676.9379 730.8946,672.2857 735.6389,666.8843 739.9347,660.9353 743.8331,654.3407 747.3534,647.0378 750.3039,639.463 752.7992,631.3534 754.7986,622.7427 756.4089,613.1249 757.4531,603.4219 757.9558,593.3939 757.8875,583.5447 757.2374,573.4851 756.0192,563.2764 754.248,553.0939 752.0253,543.4226 749.1858,533.6326 745.9579,524.5713 742.0625,515.3666 737.9175,507.0179 733.3981,499.2037 728.5266,491.9796 723.2593,485.3201 717.7136,479.335 713.4086,475.3087 708.6973,471.4632 703.8802,468.093 699.2842,465.3758 694.5,463.0406 689.2526,460.9719 684.0171,459.3745 678.8039,458.2413 673.6234,457.5654 668.4862,457.34 663.3476,457.5619 657.6117,458.288 652.4083,459.3698 646.9941,460.9416 641.7463,462.9194 636.6649,465.2821 631.2852,468.2724 626.166,471.593 621.0181,475.4346 615.8659,479.8162 611.1679,484.3121 606.9725,488.8493 602.8917,493.837 598.9266,499.3056 594.9822,505.4205 591.6781,511.2212 585.9405,523.5779 581.7716,535.9514 578.6029,550.2999 577.2834,561.8108 577.0448,573.9679 577.9646,585.7852 579.9553,597.9043 583.4192,610.4268 587.4106,621.3861 593.5218,634.1182 599.7181,644.4679 607.5155,655.4226 615.8392,665.1383 625.7997,675.1073 636.1785,683.6076 646.7082,690.6924 657.4782,696.3869 669.219,701.1236 679.7855,703.9105 687.2922,704.9701 694.861,705.2442 702.1585,704.6663 709.1527,703.281 716.1008,701.0488 722.546,698.1247 728.4716,694.5587 734.4206,689.9576 739.8656,684.7035 745.017,678.6058 749.5844,672.0129 753.8078,664.5669 757.6246,656.3153 760.849,647.6985 763.5877,638.4613 765.6913,629.1592 767.3883,618.6248 768.5004,607.5729 768.9924,596.5111 768.8848,585.1882 768.1877,574.1105 766.8531,562.6242 764.9425,551.2646 762.4538,540.0549 759.5032,529.4653 756.0215,519.2194 751.9322,509.2043 747.2331,499.376 742.1064,490.1662 736.7956,481.9577 731.147,474.4697 725.2487,467.8334 720.1972,462.927 715.0148,458.5166 709.7226,454.613 704.0227,451.0435 698.5704,448.216 693.0724,445.9272 687.2603,444.0831 681.1057,442.6662 675.003,441.7902 668.9704,441.4403 663.0267,441.6017 656.8294,442.3169 650.4561,443.6224 644.2276,445.4185 638.2132,447.6593 632.0723,450.4805 625.8369,453.9172 619.6641,457.9047 613.8362,462.2373 608.0879,467.1012 602.435,472.4996 597.1824,478.1127 592.2655,484.0365 587.5986,490.3937 583.382,496.877 579.3116,503.9432 575.7068,511.1017 572.5872,518.2648 569.7923,525.7748 567.4913,533.1701 565.4801,541.1626 563.865,549.3968 562.2658,563.12 562.0103,576.3986 563.2726,591.0366 565.7406,604.545 569.4867,617.7875 575.0849,632.0984 581.1389,644.1574 588.9659,657.1413 598.6229,670.1293 608.5416,681.4288 620.2226,692.7145 631.9655,702.1602 644.4194,710.4899 656.8274,717.0746 663.5493,719.9755 670.0268,722.3536 676.1167,724.1597 682.0176,725.4998 691.1011,726.791 699.9741,727.1388 707.9844,726.5908 716.0134,725.0996 724.0207,722.5943 731.5527,719.193 738.3218,715.1187 744.9375,709.9907 751.2931,703.8066 757.064,696.8829 762.2236,689.3412 766.9928,680.8429 771.3372,671.3256 775.0439,661.2731 778.2115,650.4472 780.7076,639.3207 782.6579,627.1675 783.9271,614.5751 784.5293,601.4928 784.4409,588.0705 783.6717,574.8484 782.2604,561.9741 780.1432,548.9331 777.2882,535.6853 773.8827,523.0736 769.8832,510.844 765.4606,499.46 760.4419,488.4897 754.7911,477.901 748.4901,467.731 741.7731,458.4289 734.9294,450.3288 729.036,444.3351 723.1096,439.1391 716.8173,434.3843 710.1081,430.0836 703.3318,426.4934 696.5093,423.6019 689.6615,421.3968 682.4673,419.8074 675.0654,418.8751 667.3694,418.5857 659.8337,418.9746 652.4629,420.0 644.9062,421.7162 637.2978,424.1254 629.7771,427.1774 622.2626,430.9144 614.797,435.3314 607.125,440.625 599.6791,446.5122 592.5451,452.9297 585.99,459.6102 579.5655,466.9982 573.2674,475.0844 567.6502,483.1535 562.418,491.6045 557.8678,499.9995 553.7016,508.8887 549.6251,518.8971 546.4646,528.1283 543.5646,538.488 541.6861,546.8612 540.2397,555.9022 538.8192,571.427 538.625,582.25 538.8447,589.1475 540.6066,605.3688 544.3067,622.545 546.5304,630.1872 549.3763,638.5076 555.3845,652.3145 559.2683,660.0517 563.5478,667.6719 568.4132,675.5686 573.0168,682.2308 585.7892,698.4518 592.3625,705.7568 600.3769,713.9998 606.6909,719.9641 613.8131,726.1118 621.7684,732.4349 629.306,737.9588 637.1118,743.117 645.0593,747.8512 653.7833,752.5149 661.5192,756.1533 669.1598,759.2118 677.0798,761.8424 684.887,763.914 692.8118,765.4974 703.4547,766.6892 713.6304,766.7234 723.5587,765.6213 733.4461,763.2776 742.447,759.9077 751.382,755.2413 759.8148,749.4401 767.6562,742.5793 774.8051,734.787 781.6562,725.5839 787.7233,715.6556 793.3079,704.5484 798.1685,692.6846 802.2696,680.1952 805.69,666.7944 808.4135,652.6454 810.4861,637.3464 811.7816,621.3718 812.2472,605.2601 811.875,588.7684 810.6555,572.2912 808.5583,555.1744 805.6357,538.1119 801.9971,521.6532 797.7114,505.9455 792.7201,490.7682 787.0957,476.3908 780.7517,462.5045 773.8585,449.4895 766.2585,437.115 758.4014,426.1152 750.1426,416.2325 742.87,408.7944 735.2594,402.062 727.5288,396.177 719.3759,390.9295 711.149,386.564 702.5452,382.939 693.9245,380.2257 685.4644,378.4193 676.0894,377.2946 666.8885,377.0422 657.5089,377.6328 648.3583,379.0175 638.7565,381.3153 629.2907,384.4042 619.9504,388.2159 610.3612,392.9347 600.943,398.3839 591.4175,404.7362 582.1534,411.7402 573.0251,419.4941 564.1243,427.9413 555.5638,436.9532 547.5808,446.2561 539.573,456.555 533.3356,465.2649 527.8772,473.6147 522.5238,482.6022 516.6021,493.3789 506.153,514.8102 493.8896,544.2555 490.5222,551.708 485.9497,560.2608 481.4788,566.6332 478.7751,569.4811 476.0725,571.737 473.4562,573.2995 470.3185,574.4774 467.0334,575.0481 463.0448,575.1112 459.6481,574.7083 455.6435,573.7083 450.6575,571.8789 446.0546,569.6116 440.737,566.4134 433.7791,561.702 421.4067,551.819 407.8577,539.3743 392.054,522.9091 378.1361,507.2114 356.703,480.9708 341.4807,461.1752 321.3885,433.3973 302.5741,405.9813 281.8269,374.1201 263.3741,344.3149 243.3919,310.1212 228.5472,282.9275 222.3983,270.6529 218.0208,261.0246 215.8062,254.9937 215.3797,251.6695 215.7199,251.1413 216.3521,251.0795 218.4921,252.3782 226.2763,260.5159 238.9813,275.7382 275.7027,321.6575 304.0323,355.6985 330.6161,385.7313 357.9527,414.59 381.392,437.3884 407.0416,460.4664 427.8848,477.9232 467.8483,509.9957 483.3448,523.0851 492.8127,532.0872 501.3185,541.516 506.5828,548.6059 511.5463,556.2778 515.0846,562.7698 519.356,571.7629 524.8382,585.9491 533.3744,612.2553 538.9211,627.9349 545.2461,643.4093 552.1635,657.677 559.6449,670.5705 567.4646,682.6131 577.1961,695.5437 587.008,706.9155 599.4537,719.6296 613.686,732.2051 625.4044,741.2439 638.9069,750.1159 652.3788,757.7383 665.7796,763.8283 679.7438,768.6567 686.2432,770.3671 692.8523,771.7113 703.7752,773.0302 714.178,773.1859 724.4188,772.209 734.3918,770.0034 743.7175,766.6873 752.9525,762.0598 761.6415,756.2788 769.6623,749.4573 777.2582,741.4054 784.2615,732.2912 790.6106,722.2171 796.2606,711.2852 801.1821,699.5971 805.5324,686.7161 809.2523,672.7018 812.1994,658.1107 814.4674,642.3314 815.9192,625.8377 816.4927,609.5955 816.2299,592.466 815.1221,575.1339 813.1772,557.6609 810.4018,540.2231 806.8894,523.3679 802.6988,507.2414 797.715,491.4337 792.0649,476.328 785.6239,461.6327 778.5799,447.8377 771.179,435.3456 763.3073,423.9048 754.9116,413.4696 747.525,405.5237 739.9504,398.4218 732.2188,392.1562 724.0563,386.5266 715.792,381.7819 707.4603,377.9136 698.8444,374.8247 689.9544,372.5006 680.7817,370.9744 671.7356,370.3068 662.4702,370.4595 653.3889,371.4103 643.9374,373.2224 634.1915,375.89 624.4653,379.3471 614.8033,383.5824 605.252,388.5679 595.5574,394.448 586.1365,400.923 576.7975,408.1368 567.8773,415.8391 558.956,424.3974 550.5381,433.3233 542.2811,442.9808 535.2462,451.961 528.5648,461.1667 522.2368,470.5989 516.1311,480.4487 505.3882,499.8738 486.5074,538.5133 481.4213,547.11 476.2176,553.729 473.3382,556.4529 470.5716,558.461 467.5436,560.0012 464.2701,561.0679 461.3836,561.5766 458.0761,561.5973 450.1073,560.1879 445.6719,558.6094 440.88,556.3575 435.5849,553.3882 430.243,549.8727 417.4817,540.0613 404.6532,528.3986 390.6033,514.2859 376.2098,498.2597 360.0553,478.9708 342.7833,456.8182 324.9171,432.695 306.2971,405.9342 287.2493,377.2969 268.7213,347.7447 250.9072,317.7844 235.6919,290.0312 230.0898,279.0321 226.6718,271.5805 224.4078,265.4605 223.9713,262.1982 224.2947,261.7758 224.9249,261.8137 227.0667,263.2154 230.3552,266.3107 235.0731,271.4209 286.0616,333.3062 303.6112,354.0365 330.8996,384.8011 354.0013,409.2513 377.2716,432.34 396.456,450.114 423.2947,473.4534 451.1281,496.5415 470.2374,513.0484 484.3043,527.0024 488.3022,531.5423 492.3879,536.8292 497.9095,545.0718 502.5629,553.8835 505.9961,561.9024 509.5362,572.5964 513.3049,588.7499 519.8704,630.0415 522.2521,642.6672 525.6443,656.2044 530.1745,669.6092 535.9884,683.0355 540.4627,691.7577 543.2457,696.4953 553.5551,711.9538 562.1369,723.0527 567.6611,729.6114 584.0615,747.0427 592.2824,754.7778 601.8173,763.1193 610.7466,770.3541 619.9007,777.2008 629.8123,784.0453 639.3145,790.0625 648.7031,795.4375 657.9708,800.1909 667.384,804.4673 676.6999,808.1453 685.498,811.0674 694.2491,813.4159 702.8898,815.1646 711.3649,816.3055 724.3552,816.8838 730.8436,816.5956 737.0324,815.9346 743.2616,814.865 749.1444,813.4582 755.031,811.6376 760.5393,809.5327 766.0246,807.0213 771.5606,804.0321 776.6778,800.82 781.7522,797.1706 791.4401,788.7709 800.5098,778.8991 808.8675,767.6289 816.4394,755.0414 823.1149,741.3488 829.0066,726.3912 834.1697,710.0088 838.52,692.305 841.8487,674.1945 844.2799,655.0563 845.745,634.8774 846.1807,613.7515 845.5692,592.0215 843.9451,570.3166 841.3041,548.5006 837.7162,527.1858 833.2317,506.582 827.6966,486.0831 821.3249,466.4264 813.9964,447.2819 805.8887,429.204 797.2392,412.6654 788.1444,397.7443 778.5566,384.3164 767.79,371.46 756.6623,360.2189 749.0805,353.6149 741.0969,347.5048 733.0257,342.1519 724.59,337.395 716.4181,333.5688 708.1877,330.4674 699.2409,327.8633 690.3677,326.0068 681.2046,324.8164 671.7831,324.3311 662.5077,324.5568 653.0383,325.4816 643.4202,327.1155 633.4881,329.5117 623.7417,332.5343 613.9776,336.2227 605.6064,339.9065 597.5271,343.9124 589.1066,348.5495 580.7304,353.6166 571.9533,359.3916 563.5705,365.3564 547.0407,378.4686 537.1496,387.1857 527.395,396.4007 518.1206,405.7776 509.0504,415.6019 491.1022,436.8497 462.6622,473.2338 457.2009,479.5934 452.4316,484.5529 445.8282,490.0932 442.2375,492.3998 438.8141,494.1546 435.6406,495.3125 432.3883,496.0499 429.02,496.3928 425.43,496.3062 418.6769,495.0099 411.1166,492.1997 403.0742,487.7899 394.3571,481.8573 385.2223,474.3938 375.0808,465.1087 364.5817,454.3853 352.8559,441.522 340.9742,427.2956 326.138,408.5632 312.8596,390.4688 299.4478,371.2045 285.2612,349.3218 275.7717,333.3004 269.377,321.1406 268.0601,317.3856 267.9121,316.1094 268.1647,315.455 269.3226,315.6547 271.3537,317.0382 277.412,322.7163 318.1827,367.8795 339.8888,391.3379 366.421,418.807 415.7968,467.66 424.2084,476.4961 432.0184,485.5227 436.5184,491.4644 441.3659,499.3852 443.4652,504.6488 444.3665,509.1726 444.2977,511.3733 443.8479,513.3233 442.987,514.94 441.9863,515.9771 440.4856,516.8992 438.6645,517.4825 434.2044,517.668 430.8519,517.0 426.7797,515.6496 418.6343,511.5192 408.8351,505.1446 397.75,496.25 387.0696,486.3897 374.176,473.2852 363.6453,461.5661 348.9781,444.2998 336.0561,427.9831 319.516,405.9947 306.3527,387.2843 290.6208,363.9298 273.375,336.125 266.3602,323.9075 258.651,308.3858 257.4504,304.7908 257.3594,303.8281 257.6296,303.1019 258.8673,303.2418 261.3081,305.0305 269.9463,313.5535 314.3474,363.9188 349.2429,401.4586 378.4279,430.8507 428.3165,478.6493 437.7399,488.4721 445.6987,497.8782 451.125,505.375 455.375,513.125 457.7915,520.2241 458.2992,523.1331 458.3495,525.9329 457.9011,528.7257 456.9485,531.1655 455.4271,533.3464 453.729,534.8105 451.6406,535.8624 449.3178,536.4514 446.4023,536.5851 443.0,536.25 439.8146,535.5269 435.9724,534.145 430.6818,531.7189 426.5777,529.4404 414.5764,521.2241 404.8816,513.2116 391.7487,501.0349 379.4133,488.2317 365.046,472.2196 349.9537,453.8636 332.1706,430.9582 314.0836,406.0614 297.1045,381.2707 277.5581,351.1612 264.432,329.4803 250.4664,304.5081 246.7493,296.9864 244.2957,291.2058 243.125,287.25 243.1008,286.2651 243.4004,285.7461 244.6904,285.9498 247.332,287.8984 255.4897,296.3001 268.2942,310.8866 296.485,344.1751 315.5573,366.0118 332.0139,384.1865 350.2423,403.4174 368.2518,421.6553 387.8832,440.574 445.3715,493.1502 457.8069,505.9128 465.8458,515.6593 469.3959,520.6258 471.9617,524.8267 474.8342,530.563 476.8546,535.7059 478.1921,540.5856 478.9202,545.0955 479.1532,550.0617 478.838,554.287 477.8948,558.3372 476.402,562.0122 474.2777,565.1605 471.8509,567.4726 468.8458,569.1634 465.7031,570.0312 461.6893,570.2639 457.8935,569.838 453.4502,568.6126 448.0144,566.4633 443.2656,563.9844 437.6667,560.5228 432.1353,556.7252 426.1489,552.1152 411.5813,539.4838 397.6429,525.6237 382.5899,509.3179 364.0257,487.2581 348.0253,467.0438 327.1425,438.7199 308.8077,412.6098 287.9027,381.1186 269.4875,351.9073 248.6909,316.8501 233.895,290.1028 227.4559,277.4948 222.6035,267.1672 220.1404,260.7067 219.547,257.0403 219.9032,256.3562 220.4725,256.2706 222.375,257.375 225.9066,260.7191 231.0786,266.3587 242.3482,279.7583 279.9305,326.3902 302.2698,353.0821 329.5587,383.9804 355.4182,411.4362 378.4932,434.0392 403.7138,457.1446 428.1447,477.8632 461.0095,504.5351 477.4943,518.7159 488.1356,529.1033 496.2923,538.3874 501.7352,545.8761 505.9286,552.5707 510.0324,560.7176 513.3451,568.4891 518.6845,584.131 527.2031,616.6866 532.0443,633.4635 537.175,648.0665 542.8029,661.1308 551.2055,677.0359 559.8459,690.6866 568.9196,703.002 580.711,716.9448 594.8755,731.4914 608.0199,743.1965 624.1982,755.8296 631.8014,761.0469 639.5589,765.8918 655.9548,774.799 663.6863,778.3631 671.3842,781.4648 678.9978,784.0831 686.481,786.2121 694.0558,787.9101 701.6871,789.1389 713.26,790.0097 724.3234,789.6168 735.1287,787.9413 745.4564,784.9913 755.4769,780.6989 764.7472,775.2999 773.4835,768.7315 781.8963,760.7491 789.5181,751.741 796.6968,741.2935 803.2086,729.7199 808.9999,717.1668 814.0311,703.772 818.2751,689.6653 821.7806,674.6525 824.541,658.6636 826.5923,641.0767 827.7415,623.1208 828.002,604.5949 827.3595,586.0615 825.8172,567.4782 823.3692,548.7383 820.0472,530.0943 815.9709,512.0989 811.1061,494.5412 805.6024,477.9377 799.5291,462.4068 792.5045,447.0567 784.8206,432.5983 776.6003,419.2386 767.9064,407.0436 758.5697,395.8211 751.2652,388.2373 743.674,381.3709 735.6601,375.0894 727.2246,369.4265 718.7258,364.636 710.1902,360.6913 701.6443,357.566 692.7739,355.1564 683.9507,353.5747 674.5217,352.7387 665.1887,352.7004 655.681,353.4464 646.0339,354.9922 636.6422,357.2391 626.825,360.345 617.1919,364.1177 608.9619,367.9045 601.0758,372.0286 592.8797,376.8333 584.7546,382.1162 576.1502,388.2619 567.9559,394.6351 560.1611,401.2146 552.3572,408.3525 542.6424,418.0674 533.1283,428.5012 524.0148,439.3825 514.8665,451.2218 508.174,460.6137 500.7665,471.8187 477.6885,508.814 472.3113,516.5122 468.0523,521.7797 464.7489,525.0683 461.3629,527.7835 457.9281,529.9016 454.6016,531.4076 451.4336,532.3069 447.7063,532.772 443.7892,532.7277 440.3846,532.2308 436.4722,531.1559 431.4774,529.2686 423.5294,525.2552 411.9425,517.3427 401.723,508.9635 388.9662,497.2118 377.6268,485.5475 362.2058,468.332 348.0227,451.1924 331.456,429.8323 315.5527,407.9748 298.3316,383.0446 282.0482,357.9843 265.1236,330.6033 252.1836,307.8433 247.5901,298.9655 244.5592,292.2905 242.8962,287.4208 242.6998,285.8842 242.9374,285.1839 244.1324,285.3119 246.5943,287.0706 253.8891,294.415 311.3889,361.2881 330.663,382.7823 348.1923,401.3177 369.1668,422.5297 385.693,438.4984 446.7114,494.3308 458.343,506.3784 465.3012,514.609 469.7868,520.8477 472.7052,525.5117 475.1765,530.5434 477.391,536.0599 478.8067,541.0497 479.711,546.4337 479.886,550.4008 479.4397,555.4997 478.3668,559.9088 476.7878,563.6045 474.6163,566.6659 472.0468,568.8708 468.5333,570.6317 465.3297,571.4105 461.2773,571.4617 456.7464,570.6832 451.9902,569.1074 446.7048,566.7819 441.7405,564.0203 435.583,560.0306 429.9728,556.0096 424.114,551.3245 409.9001,538.6097 395.3826,523.8613 378.9966,505.8007 362.8105,486.3632 345.8869,464.7068 326.4211,438.1851 307.0638,410.5346 287.2474,380.5584 268.3934,350.6381 249.2703,318.1717 232.5867,287.9958 226.281,275.5639 221.6198,265.509 219.3125,259.5002 218.7989,257.3526 218.7832,255.9576 219.1266,255.3909 219.7844,255.3186 221.6862,256.3988 224.7762,259.2812 229.6112,264.5625 241.734,279.0249 277.3893,323.31 304.5438,355.7516 330.9033,385.5152 357.0636,413.1942 379.656,435.2438 405.8024,459.0118 426.4524,476.4878 463.6154,506.625 479.4209,520.2368 488.1607,528.7214 497.6666,539.5579 502.6819,546.4823 507.3249,553.9589 511.1378,561.3453 514.6728,569.4677 519.8261,584.6101 529.5137,619.6994 534.2207,634.6909 540.3469,650.7304 546.6584,664.2049 552.9006,675.4556 561.5652,689.1306 571.5899,702.6117 582.6408,715.3865 594.7659,728.0065 609.7085,741.4191 623.6326,752.0849 639.7875,762.8149 654.2269,770.7466 669.6325,777.5342 676.7074,780.0986 683.4864,782.1578 690.4512,783.8644 697.2031,785.1203 709.1321,786.3606 720.2975,786.3256 731.1005,784.9973 741.2705,782.4628 751.402,778.5478 760.6705,773.5651 769.5916,767.2559 778.0975,759.5866 785.7629,751.0091 793.0174,741.065 799.5583,730.1067 805.4569,717.9942 810.6755,704.7558 815.1354,690.6529 818.896,675.4743 821.8221,659.7146 823.947,643.0987 825.2062,625.7646 825.5941,607.4368 825.0897,589.0107 823.6968,570.3172 821.4589,551.9305 818.4186,534.0296 814.5771,516.5985 809.7983,499.0222 804.1354,481.6472 797.7332,465.0179 790.8001,449.6139 783.4233,435.5125 775.4969,422.4913 766.8755,410.3715 757.609,399.2218 750.2243,391.5306 742.6667,384.6318 734.6782,378.3145 726.5687,372.8495 718.3713,368.2368 710.0761,364.4481 701.361,361.3097 692.3076,358.9003 683.3241,357.3222 674.0719,356.5048 664.5985,356.485 655.3134,357.2449 645.8987,358.776 636.0859,361.1441 626.6157,364.1731 616.8,368.0782 607.0527,372.717 597.5243,377.9679 588.1047,383.868 578.6734,390.5222 569.0198,398.1312 559.5216,406.3993 550.4344,415.0447 541.5681,424.2607 527.1248,441.0417 514.3893,458.0451 501.6975,477.3086 477.6618,517.3394 472.4663,524.6069 467.3675,530.2444 464.3533,532.9023 461.4167,534.9106 458.3705,536.4058 455.125,537.5 452.285,538.0787 448.9661,538.2842 441.757,537.4256 438.0594,536.3654 433.7675,534.6792 424.3967,529.7478 412.9466,521.6465 402.0869,512.6342 387.875,499.0 376.5046,487.0316 359.7074,467.8387 346.6823,451.85 327.9786,427.3843 313.3921,407.1757 294.875,380.0 278.9929,355.3623 261.6249,326.8721 249.3545,304.9702 243.8499,294.2221 240.8344,287.6258 239.2718,282.9249 239.1347,281.4166 239.4061,280.751 240.598,280.8542 242.9129,282.551 251.0324,290.8624 309.6611,359.5856 331.9236,384.42 349.2221,402.8112 368.2797,421.9683 387.9652,440.9105 413.4887,464.2053 437.427,485.3487 452.1083,498.9991 463.5945,510.7849 471.1431,519.8697 475.7758,526.7163 478.7664,531.879 481.5305,538.1284 483.5534,543.7885 484.7836,548.8577 485.4861,554.2046 485.5846,560.7084 485.129,565.571 483.8177,570.5591 482.1296,574.3533 479.6588,577.9317 476.75,580.5 473.0471,582.2432 468.8319,583.0711 464.9375,582.9375 460.0688,581.877 455.4963,580.2832 450.2484,577.7879 444.4631,574.4632 438.6891,570.5204 424.0745,558.8241 408.9206,544.564 394.0319,528.8057 373.5635,505.1331 357.5702,485.2962 339.2214,461.1898 319.1089,433.0754 296.6734,399.9105 277.6255,370.1145 256.1972,334.9838 238.8839,304.7742 221.8904,272.9352 217.0932,263.0731 213.5186,254.8611 211.526,249.1094 211.2014,246.1691 211.51,245.7706 212.1884,245.7674 214.2865,247.0834 217.46,250.071 222.1063,255.1827 235.0991,271.0326 276.0693,322.6731 299.773,351.284 314.8179,368.715 329.1729,384.7842 343.4775,400.1719 358.0369,415.2122 380.2598,436.9788 401.4823,456.2348 429.5279,479.7894 482.3676,521.3466 496.287,533.958 506.3312,544.7356 510.8588,550.4249 514.8082,556.0778 519.8602,564.2886 523.5531,571.2061 529.893,585.6064 545.536,625.645 552.786,641.5535 560.4764,655.8836 566.6543,666.0719 574.602,677.703 582.8478,688.1491 592.6071,699.372 604.0515,710.8506 614.9315,720.6082 626.732,729.757 639.033,738.0109 651.6324,745.0588 664.4278,750.903 676.3249,755.1268 688.1019,758.0509 698.7934,759.5686 708.7869,759.9144 718.4224,759.131 728.1301,757.163 737.4406,754.0613 746.2975,749.8504 754.4471,744.6252 762.3668,738.0978 769.6842,730.5402 776.3419,722.063 782.34,712.7136 787.8487,702.2219 792.8303,690.5786 797.0831,678.2256 800.5824,665.3092 803.3896,651.5338 805.5035,636.4952 806.8082,620.8504 807.2978,604.637 806.9437,588.0212 805.7945,571.9559 803.8315,555.8436 800.9827,539.3155 797.435,523.3732 793.1562,507.7949 788.298,493.095 782.9319,479.3836 776.9326,466.3643 770.1213,453.726 762.5994,441.7184 754.6208,430.7847 746.2471,420.9827 738.8018,413.5255 731.408,407.1815 723.5161,401.448 715.1986,396.3998 706.8213,392.2701 698.421,389.0335 689.6861,386.5841 681.008,385.0471 671.7325,384.356 662.3847,384.5345 652.8729,385.5835 643.6207,387.4294 634.306,390.1035 624.8108,393.6722 615.2542,398.1133 605.8842,403.3164 596.426,409.4469 586.9271,416.5047 578.0102,423.9908 569.3442,432.162 560.708,441.2442 552.6298,450.6445 545.269,460.2523 537.7861,471.1343 532.3916,479.7205 527.2867,488.7172 521.875,499.25 517.0856,509.464 512.7837,519.6491 508.0233,532.0789 495.1346,569.4161 491.148,578.278 487.2217,584.5095 484.5,587.625 482.0438,589.7478 479.4217,591.3419 476.2408,592.5793 473.3255,593.0955 469.6464,593.0836 466.0898,592.5762 462.2264,591.5127 456.8371,589.3708 452.028,586.8942 446.0851,583.2119 439.1615,578.362 425.9899,567.2424 411.1758,553.08 393.8719,534.5563 378.801,516.9546 358.4534,491.5468 339.7979,466.6771 318.1477,436.1947 297.982,406.2082 275.6516,371.2989 255.3453,337.8395 234.1343,301.055 219.6039,273.8763 212.5432,259.6033 207.1382,247.7798 204.7176,241.1574 204.2383,238.9654 204.2501,237.5506 204.6374,236.9824 205.3695,236.9839 207.875,238.75 212.2384,243.2896 218.2629,250.306 229.3268,264.0285 273.8656,320.8188 292.9911,344.3833 306.8221,360.7889 332.8247,389.9405 359.9058,418.3388 384.4915,441.9661 411.6236,465.9899 436.366,486.046 475.8368,515.778 493.6289,529.7701 505.1164,539.7997 515.0464,549.9599 520.4539,556.6367 525.4645,563.4459 528.6908,568.429 533.0731,576.1028 538.6562,587.0001 556.6328,625.4974 563.303,638.0724 568.9643,647.7836 575.9819,658.8041 582.5756,667.9656 591.1353,678.8212 599.153,687.705 609.5143,698.0357 618.8362,706.2288 630.0469,714.8385 640.6079,721.8295 651.6648,728.0309 662.7549,733.1962 673.3965,736.942 684.1497,739.5851 693.9058,741.0347 702.7486,741.4249 711.764,740.8325 720.8418,739.1582 729.2672,736.5327 736.8443,733.1056 744.3052,728.5958 751.5503,722.9834 758.1987,716.5518 764.45,709.097 770.1367,700.7788 775.4094,691.3701 780.0293,681.2827 783.9687,670.6579 787.2139,659.6252 789.9775,647.3556 792.1991,633.7917 793.6709,619.9335 794.4009,605.949 794.3928,591.583 793.626,577.2301 792.0898,562.4507 789.8837,548.0547 786.9852,533.8092 783.4021,519.8591 779.2627,506.6979 774.5007,494.0958 769.043,481.7933 763.073,470.2174 756.4344,459.131 749.5647,449.2644 742.3212,440.3552 735.4902,433.1705 728.4784,426.8072 721.0015,421.0221 713.3956,416.1005 705.6958,412.0329 697.6134,408.6934 689.6345,406.2855 681.1392,404.6042 672.7632,403.789 664.1528,403.7883 655.3483,404.6319 646.3654,406.3403 637.345,408.896 628.7231,412.14 619.8241,416.331 611.0591,421.3137 602.0624,427.3261 593.4773,433.969 585.0176,441.4703 576.9396,449.5953 569.2778,458.2572 561.9914,467.5422 555.2967,477.1921 549.0409,487.3674 543.5268,497.5669 538.6522,507.9238 534.3559,518.5666 530.507,529.8708 527.5014,540.7094 524.935,552.2258 522.5,567.5 521.4834,576.5499 520.6083,592.9565 520.6919,605.2254 521.2882,617.3553 523.643,635.5455 525.8241,646.307 528.105,655.114 533.8423,671.1953 541.1469,686.5748 545.7821,694.6113 550.5397,702.1097 556.6365,710.7811 562.3964,718.3155 570.0505,727.4573 577.5625,735.7476 586.144,744.3496 596.7636,754.291 605.7526,762.0327 615.066,769.4118 624.2799,776.1232 633.7783,782.4178 643.9779,788.545 654.5,794.25 663.3325,798.5003 672.2987,802.2303 682.0431,805.6294 691.4196,808.2595 700.8764,810.2695 709.8929,811.5392 722.1213,812.1483 733.8614,811.4086 745.3723,809.2821 756.2682,805.8302 766.912,800.89 776.8028,794.7067 786.1495,787.2 794.8687,778.4265 803.0161,768.2899 810.4394,756.9652 817.1894,744.4423 823.3487,730.5024 828.5689,715.9579 833.0794,700.1898 836.6875,683.796 839.5244,666.1315 841.5835,646.7639 842.6888,626.9313 842.856,606.8631 842.0801,586.3703 840.4123,566.4311 837.7949,546.2981 834.2457,526.196 829.7217,506.0064 824.4333,486.6697 818.3423,467.977 811.6267,450.4389 804.2136,433.8549 796.1855,418.426 787.2715,403.6152 777.859,390.1124 767.7726,377.6766 760.0827,369.4283 752.2181,361.989 744.2087,355.3752 736.155,349.6494 727.4897,344.4133 718.4315,339.8557 709.3656,336.1719 700.3174,333.3204 690.9533,331.1928 681.664,329.8734 672.1271,329.3086 662.3221,329.5353 652.173,330.5712 642.3015,332.334 632.3498,334.8493 622.0071,338.2283 613.384,341.6225 604.3814,345.7037 595.5768,350.2013 586.6407,355.2777 578.1343,360.6067 569.4419,366.5703 560.9368,372.9266 552.7062,379.5774 541.9576,388.935 531.64,398.6676 521.8099,408.7094 512.0163,419.4956 502.7167,430.411 493.0728,442.3941 464.068,480.5425 459.3438,486.1699 454.8267,490.9004 447.9996,496.596 444.7598,498.6048 441.1522,500.2891 437.7074,501.3999 434.0941,502.0442 430.3357,502.1962 426.375,501.875 422.6829,501.1334 418.8475,499.9178 409.8955,495.8558 401.9264,490.8576 392.0553,483.3687 381.9284,474.5012 370.3226,463.1679 360.3677,452.4478 347.7878,437.9565 334.7499,421.9344 319.7492,402.2156 307.3864,384.8609 291.9839,362.1697 280.4099,343.9108 271.1436,328.0794 264.7466,314.9887 263.7342,311.7768 263.9935,310.5317 265.2643,310.6944 267.0,311.875 274.3984,318.9364 319.0179,368.6909 347.5257,399.4463 375.7045,428.0703 417.9415,469.2387 429.9087,481.7414 436.4635,489.2809 442.6334,497.4248 446.5728,504.2847 448.9896,509.9393 449.9203,515.392 449.8078,517.518 449.263,519.715 448.3604,521.4733 447.0356,522.8983 445.0917,524.0669 442.9255,524.7369 440.3526,524.9948 437.6309,524.8071 434.0235,523.9355 428.9888,522.1528 421.2507,518.1443 411.1697,511.3539 399.8355,502.0527 388.1978,491.1804 373.9297,476.5217 362.7858,463.96 347.9085,446.1093 332.9473,426.9875 316.2747,404.4314 301.6678,383.386 286.1925,359.9279 271.532,336.1695 260.5074,316.9018 256.0003,308.0623 252.8594,301.0977 251.9188,298.0256 251.9098,296.8069 252.2252,296.3456 253.3599,296.4693 255.5547,298.0058 263.7671,306.2325 314.9875,364.7516 333.4742,385.0545 350.456,403.0599 383.1285,435.7679 434.4659,483.9251 445.4758,495.2221 453.6788,504.9438 458.5819,511.9665 461.5577,517.2719 463.5722,521.6169 465.7379,529.3544 466.114,532.9303 465.99,536.1697 465.2812,539.5312 464.0926,542.3241 462.5682,544.4642 460.5776,546.1632 458.342,547.3076 455.413,548.0261 451.8973,548.2602 448.4164,547.8708 444.098,546.7216 439.3564,544.9014 434.4785,542.4636 428.6412,538.9981 418.8758,531.9722 406.1183,521.1834 393.1809,508.6868 378.8601,493.6905 364.2856,476.8149 348.3706,457.2032 330.6858,433.9262 313.9391,410.7343 294.2895,381.8543 278.4829,357.3905 257.8901,323.173 245.8593,301.6522 240.2558,290.7159 236.5077,282.6053 234.8546,277.6855 234.6939,276.1997 234.977,275.3896 236.1192,275.428 238.4396,277.1189 246.5169,285.4117 307.9636,358.0538 329.9056,382.5091 351.5919,405.5331 371.5276,425.5418 391.8746,444.9304 412.5507,463.5227 442.6793,489.7623 460.018,505.625 469.8451,515.8871 477.7208,525.6439 482.2827,532.4653 485.5631,538.2575 488.5058,545.0114 490.5666,551.1267 492.1177,557.9352 492.9469,564.2726 493.1603,571.207 492.6221,577.6878 491.436,583.7905 489.6112,589.0352 487.2129,593.3955 484.4819,596.4807 481.0521,598.778 476.9732,600.115 472.5772,600.3372 467.766,599.4869 462.7777,597.8244 457.1232,595.1299 451.2845,591.7662 444.9696,587.386 437.3834,581.4778 431.2639,576.2454 413.5856,559.3399 398.1124,542.771 380.1074,521.9579 361.7263,498.8071 341.189,471.604 319.7048,441.1586 296.3791,406.4436 274.6087,372.2749 253.9723,338.2049 232.7763,301.1172 215.1369,268.1464 208.5115,254.606 203.598,243.5636 200.8476,236.0948 200.3587,233.906 200.3816,232.5117 200.7886,231.9606 201.5457,231.9684 203.7834,233.4005 207.5741,237.1499 212.2157,242.5586 225.7054,259.4733 271.6876,318.6904 290.1097,341.4233 308.1159,362.8659 333.9891,391.9644 360.919,420.0313 373.7901,432.6793 386.5353,444.6443 399.6122,456.3568 413.0699,467.8706 426.7407,479.0673 440.0966,489.4705 485.7793,523.0566 496.776,531.541 510.02,542.7657 520.992,553.9372 525.2644,558.9932 529.3087,564.3876 537.1934,576.2832 544.0328,588.6855 556.9149,614.5772 565.1433,630.0921 576.7299,649.2901 582.8739,658.187 590.6426,668.3069 597.2075,675.9945 605.1993,684.5322 613.7539,692.8333 623.659,701.1773 633.7401,708.6778 643.7049,715.0257 653.9701,720.5661 663.5583,724.8076 673.2319,728.0979 683.314,730.5264 692.2465,731.8072 701.2167,732.1288 709.9194,731.4617 718.2422,729.8428 726.135,727.295 733.5913,723.8152 740.9183,719.2608 747.7139,713.8706 754.213,707.4423 759.9738,700.4337 765.3345,692.5116 770.2823,683.6236 774.5779,674.1766 778.2036,664.2931 781.3116,653.5338 783.9394,641.7092 785.9539,629.2008 787.3039,616.1203 787.9302,602.9832 787.852,590.0069 787.0344,575.7699 785.5353,561.7933 783.3337,547.8508 780.5091,534.4563 777.1096,521.7241 773.1329,509.5765 768.3066,497.1387 762.9315,485.322 757.2319,474.5508 751.0884,464.548 744.747,455.6762 737.6699,447.2209 731.4441,440.776 725.054,435.0187 718.5232,429.9569 711.5706,425.4172 704.8253,421.8025 697.9533,418.881 690.2987,416.4001 682.7067,414.6833 675.1922,413.6931 667.4019,413.3943 659.7309,413.8119 651.8825,414.9566 643.9834,416.8086 636.3562,419.2601 628.3279,422.5484 620.6535,426.3759 612.683,431.0715 605.0068,436.3342 597.5357,442.213 590.0152,448.937 582.8872,456.1092 576.2437,463.6309 569.815,471.8354 563.8059,480.4729 558.431,489.1818 553.6084,498.0424 549.0724,507.5474 545.2348,516.8909 541.6899,527.0029 539.0185,536.0926 536.5353,546.8045 534.6549,557.3461 533.0167,575.1094 533.1362,593.367 535.0094,610.2916 538.4791,627.0601 540.6288,634.6892 543.6086,643.7041 550.3549,659.427 554.0349,666.6315 559.25,675.75 567.2578,687.9128 573.2888,696.0709 578.784,702.8841 586.1505,711.2834 593.0891,718.6352 600.9402,726.1569 610.1865,734.3245 616.9867,739.8971 624.4396,745.4526 633.0364,751.331 642.5149,757.3116 650.1968,761.6259 657.9541,765.4712 666.7877,769.2739 675.625,772.5 683.4275,774.831 691.4811,776.6692 702.808,778.2616 714.0632,778.654 724.7127,777.8408 735.0462,775.746 745.0279,772.3643 754.5584,767.7244 763.3864,762.0018 771.6978,755.0758 779.4583,746.9667 786.8234,737.4709 793.4867,726.9352 799.4067,715.4741 804.5432,703.2275 809.0421,689.8647 812.8784,675.4059 815.9205,660.3505 818.2569,644.0551 819.7124,627.4204 820.3,610.2436 820.0116,592.402 818.8341,574.2499 816.8161,556.3521 813.9392,538.5052 810.2002,520.8817 805.6049,503.6344 800.2972,487.0932 794.1467,470.8941 787.4745,455.901 780.1896,441.8625 772.5215,429.192 764.2442,417.5242 755.3568,406.8102 748.1249,399.2511 740.4343,392.2208 732.5916,386.0217 724.3321,380.4672 716.279,375.9504 707.8378,372.1183 699.0309,369.0132 690.2907,366.7674 681.2591,365.2826 672.3362,364.615 663.1769,364.7236 653.8198,365.6341 644.0571,367.4053 634.3049,369.9679 624.9147,373.1897 615.2174,377.3035 605.6394,382.1628 595.7831,387.9917 585.964,394.5796 576.5094,401.7027 567.4539,409.3026 558.3514,417.762 549.4437,426.83 540.6617,436.6143 533.625,445.125 527.3781,453.2987 520.9722,462.4095 514.125,472.875 503.3848,490.9629 483.514,528.174 477.608,537.3064 472.5757,543.4146 469.6809,546.0564 466.9599,547.9775 463.9767,549.5404 461.1013,550.5451 457.68,551.1963 454.2484,551.3848 451.1283,551.1391 447.4318,550.3955 442.625,548.875 438.0178,546.9048 432.7289,544.0767 426.999,540.4985 416.5144,532.6729 402.9543,520.8948 390.4182,508.4926 375.283,492.174 361.2598,475.6667 344.5151,454.8003 327.9559,432.5718 307.2612,403.3674 289.4866,376.6987 270.6777,347.1517 253.8743,318.8669 240.537,294.6991 235.6366,284.7972 232.1159,276.756 230.6431,272.2068 230.5533,270.6991 230.8903,270.1082 232.0768,270.2644 234.0807,271.6937 241.5227,279.4422 253.0476,292.8891 285.7741,332.4338 310.0497,360.8872 330.4462,383.5619 353.8324,408.226 374.7842,429.1653 396.3221,449.419 410.8497,462.3164 450.218,496.1463 465.2916,509.8644 476.0302,520.8203 480.6334,526.3162 484.7741,531.9061 489.4826,539.3489 492.985,546.0242 495.968,553.6301 498.0798,560.8969 500.0318,570.298 500.8498,578.4047 501.0113,585.25 500.4036,596.9611 499.2297,603.9259 496.9678,611.8656 494.4357,616.8097 491.4922,620.4707 487.9943,622.9565 484.0902,624.1204 479.4093,624.1334 473.8822,622.7751 469.0167,620.8748 463.5,617.8983 456.9299,613.6263 450.2317,608.5339 441.6353,601.2915 435.1811,595.3995 416.5718,576.5494 399.006,556.7871 378.9004,532.5055 357.4917,504.6774 337.4425,477.1429 313.6853,442.4315 289.4344,405.4031 265.8492,367.4609 243.5117,329.7576 221.2437,289.8528 201.8249,252.6404 194.5905,237.6355 189.495,226.0744 186.5577,218.0295 185.9835,215.5028 186.0026,214.0881 186.4236,213.5329 187.2153,213.5824 189.8999,215.4869 194.0346,219.7855 199.08,225.815 261.5541,308.0888 282.1242,334.0522 302.196,358.4221 318.4346,377.3814 333.3998,394.0926 348.9704,410.6765 364.9394,426.8811 381.0442,442.4185 395.7057,455.7847 411.1353,468.9744 427.5491,482.1445 443.2536,494.0786 458.2741,504.8321 512.719,541.3723 525.8735,551.2806 535.5714,559.7656 544.9173,569.5145 555.7122,583.1467 567.0774,600.1149 582.881,625.1016 596.2339,643.5708 602.248,650.8264 610.5128,659.9843 616.3509,665.8631 622.8783,671.8309 629.6418,677.5064 635.6944,681.9675 643.0787,686.7496 651.3803,691.5115 658.1235,694.7919 664.8065,697.4728 671.6921,699.6756 678.3149,701.2566 685.819,702.3121 693.0879,702.5793 700.4155,702.0782 707.7268,700.7444 714.3993,698.6806 720.9709,695.7538 727.0246,692.1411 732.7802,687.7194 738.2525,682.4577 743.4482,676.3064 748.0786,669.6048 752.1268,662.4687 755.7742,654.5858 759.0054,645.9665 761.7645,636.6845 763.9177,627.2002 765.5282,617.231 766.5616,606.6606 767.0153,595.226 766.8441,583.8882 766.092,572.7867 764.7475,561.6547 762.8689,550.9521 760.3233,539.8933 757.2218,529.0759 753.7195,518.9653 749.7379,509.2843 745.4624,500.4498 740.5071,491.6988 735.0084,483.3431 729.161,475.7274 723.2609,469.1696 718.4174,464.5378 713.5058,460.4763 708.153,456.6662 702.7287,453.3843 697.25,450.625 691.3889,448.2593 685.8531,446.5593 679.9706,445.3061 673.7278,444.5446 667.5395,444.316 661.465,444.6112 655.513,445.4127 649.6924,446.703 643.5512,448.6167 637.4701,450.9918 631.2928,453.913 625.3845,457.2382 619.7453,460.9531 613.8911,465.419 608.3341,470.2415 603.1768,475.3015 598.1357,480.8733 593.2838,486.899 588.74,493.2456 584.6774,499.6692 581.0516,506.1846 577.6419,513.197 574.6767,520.2313 571.8874,527.8999 569.511,535.5443 567.7667,542.6592 566.3905,550.0708 564.8986,563.3742 564.7792,577.2758 565.9919,590.6152 568.5462,604.435 572.9811,619.4389 577.2002,629.8608 584.1541,643.6845 592.7347,657.1965 601.4693,668.9093 612.1461,680.9004 622.6511,690.6211 634.7443,700.0813 646.9268,707.9158 659.1792,714.2287 671.1241,718.7475 683.3566,721.7912 691.9171,722.9377 700.2187,723.1123 708.2241,722.3739 716.231,720.6849 723.6844,718.152 730.8859,714.686 737.6145,710.4238 744.1066,705.2011 749.999,699.2914 755.5207,692.4656 760.7054,684.6383 765.2947,676.2066 769.265,667.3122 772.7418,657.6676 775.7761,646.9632 778.1578,635.9941 780.0235,624.0522 781.2097,611.9771 781.7324,599.9037 781.6018,587.4424 780.7863,574.3003 779.3362,561.4466 777.2375,548.6417 774.4905,536.0189 771.2041,524.0676 767.1165,511.8665 762.4364,500.0659 757.3998,489.2144 751.8989,479.03 746.162,469.8986 740.0424,461.5551 733.3246,453.7085 727.4633,447.8005 721.4336,442.5276 715.2646,437.9004 708.9854,433.9293 702.625,430.625 695.5126,427.6892 688.8044,425.5749 681.7656,424.0156 674.4148,423.0849 667.1367,422.8451 659.8067,423.2711 652.4988,424.3293 645.0594,426.0536 637.8794,428.3484 630.6198,431.3101 623.5861,434.8055 616.2111,439.1528 609.2592,443.9301 602.4338,449.3058 595.516,455.4963 588.8139,462.2487 582.7086,469.1567 576.9452,476.5069 571.5029,484.3536 566.383,492.6504 561.8952,500.8623 557.6387,509.7253 554.2259,518.0564 551.0607,527.2493 548.2978,536.849 546.3074,545.7216 544.6452,555.5729 543.8337,562.8687 543.3564,571.0699 543.2387,578.663 543.5373,586.3426 545.0846,601.5196 546.694,610.136 548.665,618.6342 554.0041,635.3153 560.1258,649.3302 563.5457,656.0525 567.6787,663.2702 572.9805,671.7736 577.6118,678.4953 583.473,686.2278 589.7721,693.8844 596.1141,700.8376 603.3055,708.1191 609.5967,714.0787 616.0946,719.6726 631.6076,731.4179 638.6966,736.0692 646.203,740.4635 654.0926,744.5781 662.2304,748.3433 669.1625,751.1003 676.3358,753.4769 683.352,755.344 690.5437,756.7939 700.7674,758.0331 710.3678,758.1384 720.1174,757.1031 729.5258,754.9346 738.6619,751.6095 747.1442,747.2762 755.1898,741.8728 762.7043,735.4723 769.6166,728.1562 775.9871,719.8552 781.9352,710.3649 787.4245,699.68 792.2241,688.2205 796.2986,676.1337 799.6262,663.5547 802.2285,650.462 804.3392,635.3161 805.6345,619.8094 806.1252,604.1453 805.8096,588.1097 804.7229,572.6465 802.7853,556.6552 800.0593,540.5768 796.5819,524.7072 792.4763,509.5703 787.807,495.2841 782.4949,481.6132 776.6517,468.8534 769.8782,456.0878 762.6127,444.2705 754.9033,433.4712 746.7976,423.7599 739.5707,416.3549 731.9026,409.6597 723.9016,403.7225 715.4754,398.502 706.986,394.238 698.4643,390.9026 689.6006,388.389 680.9335,386.8386 671.8811,386.1046 662.6117,386.2339 653.1807,387.2564 643.6525,389.1857 634.1018,392.017 624.3487,395.797 614.5914,400.4257 605.3551,405.6349 596.0474,411.7598 586.864,418.7154 577.6271,426.5822 568.655,435.1728 560.4515,443.997 551.9702,454.162 544.4949,464.1421 537.6841,474.3165 532.3398,483.1106 527.2994,492.1909 522.7477,501.2091 518.7589,510.0792 513.5952,522.7102 510.1706,531.9949 498.67,567.7933 495.8131,575.8567 492.2638,583.8494 488.375,590.125 486.0853,592.8509 483.613,595.029 480.688,596.8044 477.9004,597.7734 474.4156,598.2747 471.2947,598.2255 467.5194,597.6218 463.1151,596.393 457.9611,594.1879 451.7675,590.7384 446.0602,586.9907 439.6308,582.1726 432.4169,576.2697 426.0702,570.6021 409.5209,554.2246 393.2378,536.3824 374.1616,513.8008 355.6366,490.292 336.71,464.8567 315.8735,435.0738 292.7288,400.3259 272.0183,367.5159 250.9706,332.5416 231.3123,297.8241 213.5826,264.3268 207.9306,252.6475 203.7731,243.0822 201.5513,236.6837 201.137,234.6251 201.2172,233.3706 201.6429,232.9599 202.3858,233.0587 204.8125,234.7656 208.4754,238.4533 213.8133,244.6393 272.0246,319.0059 289.4833,340.5142 306.5356,360.8086 332.9662,390.6952 346.2327,404.8267 359.7792,418.6941 385.6202,443.6887 397.3155,454.2414 409.6441,464.8426 439.7723,489.1657 484.2926,522.0037 494.3467,529.7151 509.386,542.4924 519.7974,553.2165 527.7129,563.0396 536.405,576.589 545.113,592.6786 559.8474,622.6592 567.2427,636.0688 574.1991,647.498 580.8489,657.4882 588.155,667.2796 594.8732,675.3768 603.1654,684.3397 612.0671,693.1446 621.191,700.9894 632.2044,709.3822 642.2716,715.9627 652.7829,721.7639 662.8677,726.3841 672.9219,729.8594 683.3937,732.3855 692.7895,733.7431 701.3677,734.0493 710.0934,733.3892 718.4626,731.7908 726.4205,729.3053 734.0879,725.832 741.3307,721.4335 748.3633,715.9519 754.7959,709.6628 760.6964,702.5322 766.2796,694.2873 771.2646,685.3304 775.6157,675.8009 779.4439,665.428 782.5513,654.737 785.206,642.8232 787.2487,630.2048 788.6286,616.9927 789.2862,603.6947 789.2239,590.0423 788.4067,576.0895 786.88,562.0712 784.655,548.072 781.7403,534.2356 778.2502,521.0658 774.246,508.6654 769.4213,496.1448 764.0007,484.1622 758.0671,472.9313 751.8563,462.8324 745.2272,453.5846 738.2772,445.326 731.8352,438.7346 725.222,432.8709 718.4703,427.7351 711.299,423.144 704.366,419.4969 697.0769,416.4622 689.2152,414.0404 681.5808,412.446 673.6406,411.5469 665.8073,411.396 658.1105,411.9469 650.0813,413.255 641.8283,415.3532 633.8884,418.0863 625.9291,421.5354 617.6817,425.8652 609.557,430.8885 601.3618,436.7499 593.7438,442.9931 586.4301,449.7983 579.201,457.403 572.4375,465.4062 565.9226,474.0764 559.7804,483.2887 554.3555,492.6196 549.2008,502.7374 545.0219,512.0133 541.3583,521.641 538.0736,531.9427 535.3851,542.3765 533.0609,553.7717 531.6921,563.7347 530.8852,573.1124 530.5781,580.875 530.6549,591.0701 531.1377,599.5921 532.0097,608.2722 533.0572,615.0489 535.2369,625.8623 537.3763,633.9501 539.8011,642.0571 542.1137,648.4877 545.9774,657.8058 549.5152,665.1369 554.2777,673.9432 558.2533,680.5339 565.7284,691.754 570.7212,698.5257 578.1235,707.6162 585.039,715.5102 592.398,723.0952 601.2849,731.5857 608.911,738.3046 617.2052,744.9968 626.1676,751.639 634.2951,757.1466 642.9059,762.4129 651.6943,767.2326 660.8724,771.7091 669.0575,775.153 677.2263,778.0287 685.6865,780.4294 694.0276,782.2273 702.414,783.4637 714.0877,784.0732 725.2834,783.3203 736.2117,781.2069 746.375,777.875 756.0765,773.2601 765.3612,767.3088 773.8204,760.3483 781.9433,751.9717 789.3596,742.4769 796.088,731.8627 802.2487,719.966 807.8108,706.7502 812.5667,692.6524 816.4866,677.8123 819.5386,662.4398 821.8127,646.0947 823.3154,628.2104 823.8928,610.0348 823.55,591.3881 822.2891,572.8437 820.1395,554.597 816.9515,535.6042 812.9544,517.251 808.125,499.3281 802.6211,482.3682 796.3812,466.1615 789.7454,451.5058 782.1918,437.2511 773.9588,423.8932 765.2409,411.7304 755.8636,400.5408 746.1264,390.7128 738.9564,384.5256 731.4013,378.8997 723.661,373.9794 715.513,369.6349 707.3347,366.0775 699.1534,363.2766 690.6426,361.1271 682.1891,359.7332 673.4777,359.0469 664.6173,359.0855 655.3105,359.8518 646.2415,361.3085 637.0541,363.495 628.1382,366.2972 619.161,369.7914 609.6357,374.2138 600.6577,379.0179 591.4961,384.5821 582.542,390.6936 573.8297,397.3012 564.728,404.903 556.1009,412.7897 547.6786,421.2074 539.5,430.125 526.0419,446.4095 513.8821,463.1841 499.6171,485.8399 480.3093,519.2878 474.396,527.9758 469.5555,533.6229 466.8797,536.0774 463.8451,538.312 460.9283,539.9848 458.1087,541.1344 454.7746,541.9233 451.125,542.25 448.0039,542.1296 444.7694,541.6012 440.1702,540.328 435.0757,538.3984 430.2396,535.9869 425.0506,532.9083 414.3001,525.276 400.8924,513.8133 388.6758,501.9095 372.5749,484.7336 360.5299,470.6397 343.9134,450.0261 328.155,429.164 307.8158,400.5855 291.3501,376.196 274.8975,350.5517 259.8088,325.3552 245.7807,300.2358 241.25,291.2031 238.0337,283.9534 236.5375,279.5708 236.3828,278.3412 236.6905,277.5159 238.0412,277.6946 240.4439,279.4367 248.0594,287.2764 259.751,300.8012 291.0299,338.2213 310.6719,360.9884 331.467,384.1042 353.363,407.2813 372.9245,426.8528 397.0799,449.634 452.2656,498.6498 466.2104,512.548 471.5549,518.8266 476.3374,525.0261 480.0908,530.7396 483.6977,537.4881 486.1303,543.2892 488.2856,550.1372 489.3263,555.2617 489.9872,562.5815 489.8832,569.0655 489.268,574.321 487.9892,579.2174 486.2379,583.3489 483.6128,587.3527 480.8091,589.9817 477.5058,591.7753 473.3367,592.783 468.9197,592.7996 464.1844,591.8807 458.8299,589.9264 452.75,586.875 447.3125,583.547 440.6164,578.8203 434.3442,574.0317 428.5381,569.1001 411.6215,553.0381 396.2541,536.6898 378.6502,516.4449 360.8426,494.2015 341.6425,468.8438 320.1491,438.6649 299.1986,407.8353 278.2961,375.0852 255.5545,337.8307 235.5391,303.0273 219.2168,272.6638 212.8717,259.7425 208.1502,249.1768 205.4232,241.8101 204.9944,239.9017 205.0107,238.4273 205.4633,237.8832 206.1103,237.899 208.4839,239.412 212.1134,242.9904 217.011,248.6556 228.633,263.093 274.2889,321.3191 292.1826,343.2384 309.1759,363.3458 334.1263,391.2788 360.0434,418.3181 383.6202,441.1157 409.2698,463.8517 422.4677,474.897 434.6657,484.6293 479.618,518.5927 490.887,527.49 503.6978,538.6455 514.5493,549.9317 519.2245,555.6512 524.3175,562.7905 528.6303,569.4163 532.3542,575.9387 537.6924,586.4857 555.395,625.2065 567.5654,647.7691 576.2055,661.0546 582.0906,669.2409 591.5677,681.0775 599.0196,689.3047 610.9334,700.9919 619.9629,708.7805 632.4422,718.0972 643.7613,725.3171 655.6337,731.5592 667.6442,736.6267 678.8684,740.0687 690.1839,742.266 700.0306,743.1168 709.2094,742.8465 718.5195,741.44 727.4719,738.9447 735.7041,735.5576 743.4655,731.1762 751.0416,725.5774 758.0568,719.0257 764.4579,711.6403 770.5167,703.058 775.8906,693.6836 780.6304,683.5505 784.8351,672.4492 788.4293,660.4455 791.1722,648.4579 793.3443,635.3129 794.863,621.1525 795.6263,606.4343 795.604,591.6974 794.8188,577.1038 793.2173,562.1563 790.7975,546.8511 787.6273,531.7198 783.8225,517.2828 779.4452,503.6548 774.4142,490.5947 768.8287,478.3705 762.4822,466.4525 755.6588,455.4465 748.4002,445.4071 740.7485,436.3886 732.9927,428.67 724.4307,421.5599 715.4806,415.4542 706.0846,410.3708 696.6333,406.5307 687.1886,403.9057 677.0643,402.3531 667.0431,401.9488 656.8744,402.6528 646.6454,404.4806 636.2672,407.4897 625.8277,411.6426 615.3059,416.9795 605.12,423.2845 594.836,430.8318 585.1733,439.1445 575.9289,448.3348 567.24,458.161 559.4267,468.2523 552.4469,478.6041 545.3028,490.74 539.4104,502.2489 534.329,513.9117 529.7441,526.5483 526.0051,539.1644 522.494,554.2265 519.9528,570.4466 518.817,581.5693 518.0055,596.3547 517.9169,608.5178 518.9854,629.4521 520.5191,641.9181 522.5247,652.5197 525.7453,665.2336 528.0273,672.1641 532.5634,683.5299 537.2547,693.0991 543.9003,704.4763 551.898,716.0536 558.5768,724.6448 568.9091,736.8853 578.5886,747.1111 589.1345,757.3244 600.6461,767.3598 613.2937,777.5135 625.0436,785.9896 637.6964,794.1938 649.3416,800.9618 660.6716,806.6852 671.6511,811.4345 682.483,815.3736 692.7573,818.3884 702.6208,820.5417 712.7888,821.9702 722.4302,822.5466 731.8518,822.3382 741.1201,821.3236 750.0997,819.4626 758.7789,816.7667 767.0988,813.2698 775.0134,809.019 782.8252,803.8269 790.1889,797.8987 796.9834,791.3778 803.5736,783.9273 810.1192,775.2411 816.3454,765.5405 822.0182,755.1766 827.128,744.236 831.8276,732.3796 835.9291,720.0755 839.5815,706.8642 842.6655,693.2067 845.3072,678.4882 847.3506,663.4927 848.8399,647.9339 849.7332,632.2836 850.0499,616.219 849.7804,600.2251 848.9242,583.9455 847.4602,567.2377 845.4601,550.8525 842.9058,534.5035 839.8057,518.2829 836.1686,502.2825 832.1058,486.9549 827.5466,472.011 822.625,457.875 817.1108,443.8803 811.012,430.1166 804.5117,417.0326 797.6419,404.6692 790.4342,393.067 782.9207,382.2665 774.9133,372.0443 766.8773,362.9945 758.6298,354.8655 750.7922,348.0887 742.8686,342.0713 734.5445,336.5866 726.1709,331.8762 717.7699,327.9147 709.028,324.562 700.3058,321.9633 691.296,320.0322 682.2129,318.8345 672.7567,318.3142 663.0795,318.5097 653.5912,319.3957 643.9374,320.9824 634.158,323.2732 624.2977,326.2576 614.6209,329.8225 605.779,333.6007 597.2728,337.698 588.7644,342.255 580.2917,347.2511 563.3182,358.6242 545.7139,372.2595 535.8262,380.7593 526.2088,389.6586 516.5988,399.1969 506.6425,409.6999 488.5238,430.3973 460.7901,464.7591 454.4389,471.8961 448.9909,477.416 442.3006,483.0332 435.9907,486.7315 432.5789,488.0346 428.8876,488.9663 425.5156,489.375 422.0648,489.3633 415.8501,488.3506 408.7583,485.8232 401.2534,482.0696 393.2964,476.8545 384.2402,469.9081 376.2979,462.8952 364.6553,451.5136 355.4274,441.5539 341.392,425.2483 331.0356,412.3361 316.5292,393.1518 303.722,375.0009 291.4753,356.6936 280.065,337.7832 274.2963,326.5797 273.0,323.125 272.9907,321.4259 274.0888,321.4506 276.1578,322.8191 284.7475,331.0977 323.5452,373.7065 349.2526,401.0573 374.682,427.0713 410.1547,462.5046 424.8657,478.7433 429.9989,485.3735 433.6085,490.7671 436.5305,496.7724 437.7902,500.8744 437.8104,504.8236 437.2356,506.5108 436.422,507.7227 435.3433,508.66 433.9759,509.2824 431.9408,509.6545 429.9763,509.6399 426.6016,509.0285 422.7924,507.8168 414.6195,503.7601 406.5631,498.5856 395.8669,490.1157 386.5751,481.6751 373.6545,468.8148 363.6818,457.8711 350.2199,442.2112 337.2091,426.0874 323.5926,408.2375 309.385,388.3777 295.485,368.005 279.6135,342.8893 271.4028,328.7662 264.836,315.715 263.8691,312.5577 263.8245,311.4452 264.134,310.855 265.2542,310.9897 267.3844,312.4603 274.1141,318.8486 319.698,369.525 342.4827,394.1643 372.3524,424.7945 421.8545,473.2515 430.1159,481.878 436.7087,489.5376 442.0883,496.6949 446.1736,503.4891 448.675,509.5456 449.6807,514.8375 449.0501,519.2897 448.0718,521.2524 446.8357,522.6528 445.2727,523.684 443.3848,524.3398 440.992,524.6719 438.2776,524.5559 434.7964,523.8706 430.5005,522.505 426.5461,520.7427 421.8171,518.168 412.3847,511.8982 400.7161,502.6209 390.1299,492.8888 377.1301,479.8309 364.7909,466.106 349.9316,448.6182 336.0259,430.9646 321.2711,411.2226 303.2555,385.527 289.7462,365.3225 271.2735,335.5758 261.9342,319.3069 253.7183,303.1787 252.2573,298.988 252.0739,297.5178 252.3392,296.7002 253.4937,296.7241 255.6479,298.1971 263.4963,305.9885 312.2713,361.7434 334.8455,386.5885 348.0172,400.5135 378.9442,431.5306 422.377,472.2822 436.7004,486.2102 444.2809,494.0091 452.3582,503.4225 458.5764,512.366 462.7431,520.2488 464.3241,524.4722 465.3367,528.1795 465.7831,531.4431 465.8115,535.1511 465.3302,538.0911 464.2049,540.9911 462.5717,543.5355 460.6846,545.3281 458.4842,546.5992 455.4729,547.4898 452.6566,547.7648 449.4189,547.5251 445.3188,546.6265 441.076,545.1685 436.2342,542.9219 430.797,539.8832 420.345,532.6748 408.2954,522.802 394.2947,509.5356 381.7991,496.5365 364.4334,476.7303 350.5632,459.6956 331.1552,434.3288 315.6881,412.9375 295.4133,383.3994 279.5245,358.7569 260.4185,327.4526 246.3914,302.419 240.5507,291.098 237.1295,283.5838 235.3224,278.1991 235.1519,276.5419 235.4588,275.8252 236.7636,276.0643 239.2931,277.9619 247.2579,286.1375 305.6817,355.3684 330.4382,383.1431 348.5072,402.3233 372.8775,426.7614 389.9253,443.0066 412.9502,463.8705 438.7773,486.3155 457.0614,502.8776 469.5035,515.6698 477.1173,525.0252 481.0919,530.8877 484.3135,536.5106 487.4648,543.3018 489.4558,548.9398 491.2938,556.4438 492.1637,562.2888 492.4165,568.9829 491.9593,575.9426 491.044,581.0491 489.0957,586.971 486.765,591.2462 484.1716,594.5028 481.0561,596.7419 477.0628,598.2043 473.1716,598.6277 468.5339,598.0486 464.0517,596.754 458.3391,594.2635 452.6111,591.2152 446.939,587.5188 439.2345,581.78 432.9306,576.6163 417.1683,561.9244 401.0938,545.0801 382.8705,524.3243 363.9124,500.8801 344.6382,475.6126 323.4719,445.8179 300.1627,411.513 278.5155,377.785 257.158,342.8998 236.1006,306.259 217.5935,272.0056 210.5588,257.843 205.132,245.9485 202.1221,238.2205 201.4701,235.7182 201.3896,234.1003 201.7578,233.4348 202.5207,233.3961 204.8855,234.9244 208.5203,238.5361 213.5087,244.3172 224.4689,257.9919 270.2676,316.7619 290.1082,341.1462 309.1789,363.8074 335.292,393.0629 362.0408,420.9215 374.3568,433.0082 387.001,444.8298 400.2035,456.6092 414.4722,468.8037 427.0177,479.1117 440.4489,489.6087 484.1527,521.9178 495.749,530.9022 508.2889,541.622 519.132,552.6548 523.3971,557.7132 528.0099,563.8187 535.1906,574.8019 542.5362,588.3207 554.752,613.2656 562.8145,628.917 573.6754,647.6217 579.9489,656.899 588.1583,667.9086 595.4085,676.6399 603.2593,685.2036 612.7666,694.3139 624.3167,704.1158 633.5879,710.9469 643.296,717.1145 653.3114,722.5598 663.318,726.96 674.2371,730.6764 684.562,733.1824 693.4613,734.3619 702.5371,734.5951 711.3263,733.8564 719.8109,732.1389 727.7323,729.4679 735.5724,725.7128 742.8954,721.0679 749.5886,715.6808 755.9908,709.2294 761.8524,701.9575 767.3331,693.6737 772.1672,684.7798 776.5,675.0 780.1513,664.7719 783.3807,653.3654 785.9354,641.5641 787.8659,629.1248 789.1163,616.1375 789.6396,602.7846 789.4672,588.6319 788.6073,574.6002 787.0517,560.478 784.8583,546.7992 781.9828,533.3265 778.3671,519.9452 774.1942,507.1766 769.4456,494.9136 764.1525,483.2619 758.5242,472.6376 752.4411,462.7855 745.587,453.2607 738.3433,444.6101 732.1719,438.2344 725.55,432.303 718.7718,427.1275 711.8673,422.7268 704.6269,418.9736 696.9129,415.8013 689.2058,413.4333 681.1709,411.7793 673.2091,410.9343 665.354,410.8606 656.8201,411.5719 648.5099,413.0064 640.4648,415.1155 632.3375,417.9913 624.8347,421.335 616.5397,425.777 608.4223,430.8779 600.517,436.6277 592.5493,443.2606 585.3299,450.0718 578.213,457.663 571.3108,465.9435 564.8997,474.5211 559.1057,483.3315 553.6998,492.704 548.4344,503.0596 543.9108,513.231 540.0808,523.2922 537.069,533.04 534.162,544.895 532.3248,554.4862 530.9162,564.7635 530.1106,574.1185 529.7333,585.0672 530.6465,603.3214 533.0899,620.6589 537.0582,636.9209 543.1082,653.7771 550.7017,669.9483 560.2894,686.0262 571.0067,700.8315 576.4971,707.6833 583.217,715.2758 591.6987,724.2773 598.7954,731.1186 606.883,738.2501 616.0896,745.7905 624.3295,751.9481 633.1808,757.9886 642.2777,763.6678 649.5547,767.7744 657.5311,771.7481 665.9035,775.3906 674.6318,778.6618 683.4197,781.4347 691.3512,783.3801 699.5078,784.7934 710.9142,785.7486 722.1567,785.469 732.7696,783.958 742.8692,781.1997 752.607,777.195 761.864,771.99 770.875,765.375 778.8875,757.9109 786.5856,749.0235 793.6508,739.0319 800.0219,728.0546 805.8264,715.8044 810.7574,702.9124 815.1127,688.6317 818.6948,673.5854 821.4902,657.9659 823.5708,641.1483 824.7992,623.6151 825.1188,606.0755 824.5734,588.1872 823.1389,569.6398 820.8769,551.3777 817.7699,533.2087 813.8207,515.3172 809.1407,498.2443 803.6382,481.5958 797.3432,465.3872 790.3998,450.0432 782.8559,435.6746 774.9539,422.688 766.5694,410.8411 757.7097,400.1754 750.4091,392.5598 742.6443,385.469 734.7361,379.2111 726.4066,373.5802 717.9937,368.8191 709.5339,364.913 701.0635,361.8476 692.1725,359.4769 682.9016,357.8535 673.745,357.0658 664.3552,357.0697 655.1444,357.8482 645.7852,359.4072 636.296,361.7573 626.266,365.0077 616.6464,368.8628 607.104,373.4132 597.3698,378.8119 587.8697,384.8255 578.1236,391.7552 568.7761,399.1581 559.5523,407.2166 550.1619,416.1862 541.253,425.4828 527.1478,442.0289 514.0523,459.605 501.8826,478.2529 483.4942,509.6968 478.7639,517.3102 473.302,525.0858 467.7459,531.3564 465.001,533.7738 462.2456,535.712 459.2196,537.3 456.0167,538.452 452.6916,539.1816 449.8182,539.3899 446.4502,539.1794 442.4615,538.4521 438.0895,537.1882 433.6527,535.41 423.6859,530.0706 413.7867,523.0454 401.8563,513.1138 389.12,500.844 375.7107,486.7622 361.1013,469.9174 345.6765,451.0066 329.0553,429.2331 313.5366,407.8038 294.8863,380.3336 278.431,354.9219 258.8798,322.5335 248.3373,303.656 243.4269,293.9818 239.9934,286.4205 238.5218,281.8312 238.4291,280.6099 238.7957,279.8153 239.939,279.9646 242.1053,281.5708 250.1816,289.8857 308.5141,358.4076 329.9807,382.1992 352.5849,406.2633 370.8769,424.6666 389.907,442.8592 406.7639,458.1852 440.8208,488.3423 453.3443,499.9432 463.6986,510.6001 472.8675,521.5959 476.8496,527.6211 480.2259,533.6345 482.6143,539.0347 484.6309,544.9796 486.055,551.2638 486.8143,557.1125 486.7582,562.9224 486.143,568.084 484.8266,572.9614 482.9908,577.005 480.5338,580.4991 477.625,583.0 473.9221,584.7432 469.709,585.5711 465.875,585.4375 461.0683,584.377 456.1644,582.644 450.5002,579.8879 444.5788,576.399 438.3194,572.0149 430.0,565.5 424.1636,560.5037 407.1478,544.1475 392.7014,528.7235 373.8463,506.8594 358.6468,487.8165 339.1027,462.0184 319.0068,433.8782 295.9724,399.864 277.1533,370.391 255.4658,334.8037 237.8274,304.0288 221.4514,273.2704 216.193,262.5257 212.2407,253.6193 209.987,247.3894 209.5606,244.2031 209.8715,243.784 210.5702,243.7757 212.754,245.1447 216.0741,248.2778 220.4928,253.1427 231.8161,266.9622 274.5515,320.9612 301.1748,353.2183 315.9641,370.3895 329.6667,385.719 343.67,400.7654 358.1948,415.7485 380.8064,437.8489 402.5431,457.4617 417.3269,469.9949 433.3326,483.0476 484.2434,522.6751 498.3108,535.216 503.0147,539.9995 507.8287,545.468 512.8641,551.6656 516.875,557.25 521.3844,564.4261 525.3359,571.6612 531.8135,585.4598 548.3848,626.0322 556.018,641.9531 561.2546,651.6065 568.8241,664.0093 578.3838,677.6103 585.9742,687.1106 595.948,698.3409 606.3252,708.5974 618.8287,719.5152 629.2785,727.2913 642.0348,735.543 652.4553,741.3225 663.6164,746.3501 675.375,750.5 685.8585,753.1601 696.3754,754.7406 706.3752,755.1977 716.1732,754.583 725.3716,752.8749 734.2623,750.0725 743.0667,746.0505 751.3169,740.9667 759.0825,734.774 766.4543,727.3793 773.2321,718.9796 779.3496,709.6914 784.7603,699.6291 789.5479,688.6289 793.6707,676.8293 797.1913,664.0793 800.0531,650.4764 802.1991,636.118 803.5725,621.1016 804.1318,605.6873 803.8823,589.6066 802.8363,573.6352 800.9898,557.5642 798.4078,541.9334 795.0231,526.4055 790.8922,511.2666 785.9335,496.2484 780.2941,481.8844 774.1884,468.6432 767.5307,456.2871 760.5716,445.2384 752.8971,434.7573 744.6001,425.0569 737.3426,417.7774 729.6046,411.1231 721.6867,405.3992 713.625,400.625 704.7465,396.4418 695.5104,393.131 686.3232,390.8398 677.2218,389.519 667.887,389.1221 658.7482,389.6569 649.1751,391.1014 639.5517,393.4381 630.2863,396.5301 620.731,400.5941 611.2638,405.5008 601.6615,411.3396 592.3709,417.8664 583.1534,425.2612 574.548,433.0717 566.3972,441.4255 558.0956,450.9765 549.646,461.8003 542.5747,472.0058 535.89,482.8435 531.0512,491.5109 526.5817,500.3841 521.8241,510.7896 518.0922,520.0133 511.5116,539.0378 498.0171,586.0874 494.6761,594.3445 491.4557,599.875 489.1065,602.8704 486.6177,605.1215 484.001,606.7753 481.0344,607.8972 478.1794,608.3693 474.7969,608.2997 470.9156,607.6763 467.1986,606.5627 461.4962,604.1129 456.4963,601.4018 450.86,597.6438 442.8265,591.6761 436.6571,586.5484 429.0048,579.624 414.1813,564.9832 394.7102,543.5539 378.036,523.6204 357.3441,497.2855 336.944,469.473 314.9398,438.0344 295.0009,407.9088 270.3199,368.8074 250.4062,335.4688 226.5705,293.3224 210.1174,262.0971 203.0239,247.5466 198.0519,236.4264 195.5499,229.3508 195.0931,226.9288 195.2031,225.6602 195.6511,225.1892 196.4251,225.2645 198.9593,227.1047 203.0721,231.4694 208.952,238.4552 220.6264,253.2222 267.1994,313.7195 287.1346,338.628 304.1586,359.1644 318.4668,375.696 333.0076,391.8509 347.6123,407.4436 361.8547,422.0225 375.3784,435.1953 389.5289,448.3092 404.3196,461.3616 419.189,473.8764 431.8223,483.9144 445.5851,494.2946 488.3776,524.8389 505.5666,537.5943 517.1047,547.2743 527.444,557.424 537.0312,569.0267 543.8088,578.8904 550.8864,590.6866 568.3559,622.3612 574.8339,633.1889 581.5688,643.448 587.2579,651.6092 593.3072,659.4307 600.574,668.0325 607.4452,675.3775 616.9146,684.4674 624.5648,691.0 634.0844,698.0928 644.3401,704.7999 653.25,709.625 662.6725,713.7666 671.6491,716.8754 680.8059,719.1274 689.4593,720.3803 697.866,720.7536 705.8558,720.2341 713.5521,718.824 721.2207,716.4605 728.3902,713.2691 735.089,709.2596 741.5594,704.2563 747.7898,698.2231 753.4312,691.5019 758.4433,684.2312 763.0191,676.132 767.1702,667.1281 770.8374,657.2857 773.8547,647.0716 776.3036,636.216 778.1529,624.6433 779.3854,612.3094 779.947,599.5072 779.8258,586.7625 779.0587,574.2224 777.641,561.6928 775.5556,549.0837 772.8383,536.6238 769.5113,524.4363 765.7234,512.9948 761.4028,502.0374 756.4335,491.3662 750.834,481.0315 744.8032,471.4594 738.3796,462.7222 731.841,455.1463 726.2474,449.6016 720.2941,444.5044 714.1674,439.9827 707.624,435.9015 701.3384,432.6601 694.6706,429.9082 687.9724,427.8237 681.3205,426.394 674.3545,425.5211 667.4949,425.2707 660.3822,425.6398 653.4141,426.6158 646.25,428.25 638.8421,430.5765 631.7587,433.4022 624.6493,436.8715 617.5385,441.0184 610.6203,445.7379 603.5891,451.2389 597.0908,457.0223 590.5635,463.5877 584.5233,470.4126 578.9925,477.4673 573.8101,484.9023 568.3318,493.7081 564.11,501.3986 560.0237,509.9747 556.1829,519.2642 553.4859,527.0841 551.1576,535.4259 548.8752,545.3885 547.3796,554.1237 545.9042,569.6509 546.0924,586.6904 546.7178,593.5816 547.8669,601.4991 549.1702,608.6598 550.9245,616.0776 555.1454,629.9284 562.0819,646.4025 570.7996,662.5677 578.8646,674.818 584.4995,682.3897 589.595,688.6336 603.6487,703.8068 616.1191,715.0631 624.6995,721.9459 631.2196,726.7456 638.4279,731.5406 645.6978,735.8906 653.2761,739.9562 660.2949,743.2665 667.6153,746.2288 674.8256,748.671 682.2285,750.6897 689.277,752.1419 699.2005,753.2988 709.0249,753.3816 718.9784,752.3304 728.1753,750.2433 736.744,747.1571 745.2538,742.8475 753.2599,737.4787 760.6746,731.1313 767.4573,723.8722 773.8216,715.4814 779.7573,705.9083 785.0109,695.5424 789.5551,684.5143 793.344,673.0562 796.6158,660.4636 799.2667,647.0206 801.2843,632.463 802.5091,617.6574 802.9461,602.7652 802.5889,587.5082 801.3908,571.2946 799.432,555.3826 796.6978,539.5521 793.2844,524.3253 789.2492,509.8248 784.5557,495.8938 779.0906,482.219 773.0405,469.2926 766.4589,457.1969 759.3993,446.014 751.9153,435.8259 743.8983,426.5307 736.2011,418.9081 728.3093,412.2455 720.2594,406.5336 711.7715,401.5984 703.5123,397.7962 694.7934,394.7934 685.5214,392.5946 676.3594,391.3549 666.9649,391.0184 657.7565,391.589 648.4138,393.0713 638.6373,395.553 628.8008,398.955 619.4272,403.0762 609.8654,408.2019 600.5059,414.1493 591.0615,421.0691 582.0648,428.5788 573.0138,437.1043 564.312,446.3053 556.1843,455.9743 548.3302,466.46 541.6928,476.4341 535.4249,487.0792 530.543,496.1929 526.6321,504.3781 521.6495,516.1918 517.8787,526.1432 514.0828,537.7012 510.2681,550.7718 502.4,582.318 499.6481,592.1944 496.5192,600.5684 493.1172,607.0392 491.0987,609.7083 488.6533,612.0717 486.0979,613.7049 483.23,614.8302 480.0386,615.3353 476.0512,615.2206 473.0669,614.6552 469.8609,613.6115 464.125,611.2021 459.1822,608.4472 451.875,603.5 445.2528,598.3793 428.7061,583.7813 410.9188,565.4785 394.2732,546.7256 371.8007,519.2735 353.9662,495.8929 332.117,465.7459 309.5024,432.7318 284.4764,394.2216 262.3136,358.3143 240.25,320.75 219.9137,283.9337 202.313,249.4825 196.924,237.9036 193.2259,228.9438 191.2763,222.6748 191.0782,220.9159 191.3689,219.9983 191.99,219.8972 192.8937,220.3255 196.0086,223.0226 206.2449,234.8638 265.2773,311.9596 281.6071,332.6032 297.9706,352.5219 314.087,371.4245 329.9208,389.3119 344.0991,404.6983 357.9777,419.011 373.6901,434.3815 390.0572,449.5645 406.3064,463.8896 421.9993,476.8985 436.8135,488.4631 453.06,500.474 507.5673,538.3196 519.9519,548.1577 528.937,556.2751 540.1353,568.6234 549.2072,581.0142 554.9839,589.9765 577.4258,627.6473 583.015,636.1524 589.9243,645.9075 596.588,654.4688 604.6033,663.8504 610.7832,670.3522 618.0216,677.2293 625.2347,683.4968 632.396,688.9805 640.6603,694.5554 648.8127,699.4026 656.5438,703.2947 664.2611,706.5259 672.1968,709.1955 679.5111,710.9605 687.8125,712.1138 695.8709,712.3866 703.7396,711.8172 711.2858,710.399 718.443,708.1531 725.143,705.129 731.5496,701.2498 737.5203,696.6208 743.2869,691.0774 748.7528,684.6266 753.601,677.6287 757.9141,669.9965 761.9354,661.2635 765.3764,652.0397 768.3164,642.1001 770.6073,631.9188 772.3392,620.9192 773.4754,608.9997 773.9531,597.0337 773.7894,584.7856 772.9936,572.7628 771.6033,561.0827 769.5457,549.1712 766.8935,537.4167 763.6626,525.9175 760.0024,515.1522 755.835,504.8606 751.3065,495.3959 745.9476,485.7611 740.1851,476.8303 734.0592,468.6741 727.6105,461.3632 722.3974,456.3066 716.7339,451.5799 711.1359,447.5504 705.1224,443.8712 699.0469,440.793 692.9367,438.3129 686.8191,436.4277 680.3884,435.0732 673.7503,434.2615 666.8212,434.0246 660.388,434.3678 653.712,435.3084 647.1945,436.8194 640.5897,438.9409 633.836,441.6871 627.3701,444.8824 620.8749,448.6731 614.3571,453.0888 608.1852,457.8973 602.1719,463.25 596.327,469.1447 590.3477,475.9256 584.9954,482.7215 580.004,489.8662 575.5575,497.0881 571.3396,504.902 567.7402,512.55 564.3784,520.8162 561.61,528.7824 559.4068,536.5535 557.4698,545.2432 556.0905,553.5193 555.2356,561.4568 554.75,570.0 555.0649,583.7054 556.7269,597.8981 560.5827,614.9093 562.8724,622.1332 565.9647,630.4028 571.6575,643.0369 579.435,656.8725 589.0876,671.1684 598.7759,683.0903 610.9171,695.7545 623.6332,706.8169 630.3516,712.0186 636.4815,716.287 650.0225,724.3174 656.9073,727.802 663.4001,730.6458 670.1648,733.1353 676.7794,735.1286 683.5517,736.7298 690.3039,737.8774 699.5881,738.5906 708.6638,738.2655 717.801,736.853 726.4205,734.4189 734.5119,730.9668 742.1635,726.514 749.2899,721.1571 756.1196,714.6931 762.4916,707.1903 768.4263,698.6179 773.7359,689.2532 778.3748,679.2322 782.3142,668.6814 785.6503,657.3085 788.3455,645.2471 790.4096,632.4721 791.8338,618.7091 792.5079,604.4387 792.4043,590.1973 791.5527,575.8438 789.937,561.0713 787.5719,546.3355 784.5508,532.1643 780.8264,518.3259 776.5083,505.2431 771.3262,492.0558 765.5545,479.5682 759.4214,468.2047 752.8069,457.6928 745.9615,448.3937 738.5265,439.8168 730.6153,432.065 722.7928,425.6108 714.5049,419.9491 706.0979,415.3389 697.4817,411.7211 688.2857,408.9747 679.1622,407.2922 669.7784,406.6032 660.5617,406.9294 651.0767,408.2927 641.2668,410.7263 631.5385,414.1412 621.9329,418.5046 612.102,423.9947 602.9859,430.063 594.0134,437.0762 585.2297,445.0409 576.6043,453.9732 568.6692,463.2852 561.2223,473.2354 554.3205,483.7823 548.1648,494.6273 542.696,505.7758 538.2987,516.4799 533.8757,529.2046 530.8187,540.2974 527.9457,553.6637 525.9627,566.6533 525.0047,577.5178 524.5215,590.4703 525.004,604.1375 526.2986,617.5185 528.0792,628.5138 530.2821,638.5697 533.3475,649.5713 538.0265,662.3609 541.5422,670.1789 547.2314,681.2809 553.875,692.25 560.5712,701.9082 569.2766,713.1873 578.1136,723.3301 588.5614,734.3064 598.6714,743.8521 609.7913,753.4523 620.6494,761.7396 633.2705,770.362 644.0058,776.9937 654.8795,782.8226 665.4114,787.6615 675.9344,791.7373 685.8128,794.8092 695.3465,797.0331 705.1844,798.5426 714.891,799.2214 724.2059,799.0727 733.4711,798.0369 742.0966,796.2006 750.7368,793.4359 758.9808,789.8404 766.7885,785.4679 774.1507,780.3547 780.9977,774.5773 787.6573,767.8762 794.0739,760.2358 799.9714,751.9761 805.3348,743.1862 810.3524,733.5525 814.8699,723.338 818.9563,712.4278 822.6433,700.7316 825.8933,688.3041 828.5964,675.5833 830.8173,662.2742 832.4793,648.8414 833.5964,635.3748 834.2005,621.5018 834.2843,606.84 833.8419,592.2716 832.8821,577.5194 831.4048,562.6685 829.41,547.804 826.9686,533.3888 824.036,519.1202 820.7085,505.4429 816.8205,491.7003 812.4165,478.1118 807.5813,464.9593 802.3395,452.2982 796.7158,440.1839 790.9108,428.9919 784.6069,418.1179 778.1879,408.2354 771.4163,398.9652 764.2483,390.2455 756.8861,382.2917 749.0646,374.8377 741.6893,368.6629 733.9103,362.9782 726.0477,358.0403 717.8241,353.6975 709.8771,350.2668 701.6742,347.4749 693.1583,345.2958 684.336,343.7733 675.615,342.9737 666.6434,342.8558 657.4607,343.4503 648.4682,344.7131 639.4291,346.643 630.0077,349.3178 620.5524,352.6697 611.1035,356.683 603.3519,360.4646 595.555,364.7046 579.6257,374.6879 564.6593,385.7684 549.7006,398.6284 540.1137,407.8247 530.6094,417.6875 521.5974,427.8055 512.8742,438.3656 497.5603,458.8166 472.2718,495.8106 466.7762,503.0116 462.2746,508.1852 458.9321,511.4063 455.7731,513.9259 452.5912,515.9405 449.3028,517.4917 446.1269,518.5101 442.7969,519.0781 438.9222,519.1881 435.1795,518.82 431.4463,518.0156 427.5146,516.7575 419.153,512.9914 409.947,507.142 398.9855,498.8878 388.4007,489.4137 376.0432,477.2467 363.9012,463.9998 350.4975,448.3089 335.7487,429.7759 320.8516,410.0427 304.0973,386.2396 288.8289,363.4983 271.3854,335.6302 261.7597,318.9585 253.7297,303.0475 252.1594,298.6387 251.9409,297.1292 252.194,296.335 253.3655,296.4979 255.9584,298.4122 264.1371,306.5171 312.1789,361.5247 334.9322,386.629 348.3747,400.8618 381.2551,433.8087 424.3369,474.2116 436.3902,485.8637 445.0,494.75 453.3064,504.4951 459.4676,513.5278 461.8178,517.7911 463.5391,521.6646 464.8971,525.6097 465.7407,529.269 466.0969,533.0424 465.973,536.522 465.3647,539.2988 463.9023,542.5063 462.3247,544.5932 460.036,546.4316 457.6725,547.5007 454.5438,548.1664 451.415,548.223 447.8974,547.7353 444.0133,546.7684 440.1185,545.2437 429.2038,539.3304 417.7438,531.0772 406.5572,521.7091 391.6966,507.3169 379.7832,494.6409 362.9362,475.2373 347.766,456.4322 329.733,432.7383 313.5962,410.1991 293.8544,381.2463 277.2028,355.2886 259.196,325.5204 244.4336,299.0021 239.5696,289.5054 236.434,282.5017 234.8051,277.4674 234.6785,276.0759 234.9658,275.337 236.2531,275.5095 238.5107,277.1555 246.1859,285.0095 307.0053,356.9233 330.3479,383.104 349.2023,403.1069 373.3031,427.2975 391.6953,444.7822 411.4038,462.5806 440.25,487.625 457.1847,502.8776 470.2023,516.2982 474.4165,521.2429 478.0955,526.1483 482.0146,531.9637 484.8452,536.943 488.1188,544.0185 490.1571,549.9054 492.0054,557.8708 492.8452,564.6931 493.0882,571.2479 492.4734,578.316 491.202,584.3499 489.3961,589.429 487.0766,593.4549 483.9529,596.7524 480.4533,598.9806 476.8831,600.0818 472.9473,600.239 467.6391,599.3934 462.7632,597.7375 456.5127,594.8015 451.2161,591.664 444.6367,587.1097 438.288,582.2562 431.7255,576.6875 415.6884,561.5394 397.355,541.8874 379.7776,521.4702 359.7681,496.4103 340.8841,471.149 317.5243,438.164 297.9976,409.0134 273.1804,369.929 252.9233,336.2969 230.0588,296.1747 214.6889,267.0489 207.6782,252.6013 202.6122,241.1389 200.4768,234.6475 200.3061,232.9256 200.6561,232.0328 201.3488,231.9348 202.1672,232.2866 204.8747,234.5047 214.3796,245.2999 268.6853,314.8558 288.3445,339.232 305.159,359.4247 318.7365,375.0579 332.561,390.3901 346.7194,405.5133 360.5199,419.6902 373.4586,432.3834 386.52,444.6203 400.3424,456.9982 414.4232,469.0653 426.7966,479.1394 440.3666,489.6582 483.5237,521.4233 498.3823,532.8049 509.6054,542.3874 520.4087,553.3116 529.8245,565.0824 533.4315,570.352 537.1171,576.46 544.1048,588.9901 563.7944,627.8119 575.4194,647.3124 581.9938,656.9907 589.1927,666.7247 596.0026,674.8016 604.3878,683.8497 614.381,693.387 625.5782,702.8104 635.2987,709.7766 646.4549,716.6028 656.8336,721.9792 667.4313,726.313 678.5002,729.6578 688.3896,731.5345 697.4518,732.2389 706.6799,731.9358 715.2935,730.6621 723.582,728.3432 731.4563,725.0154 739.1823,720.5515 746.3602,715.1698 752.7985,709.0902 759.0121,701.7976 764.615,693.7259 769.7732,684.6428 774.248,674.9716 778.1518,664.5031 781.4947,653.157 784.2175,641.0209 786.2085,628.5836 787.5047,615.5711 788.063,601.9392 787.8853,587.7937 786.9571,573.4126 785.3184,559.3311 783.015,545.693 780.0935,532.6196 776.3013,519.085 771.8657,505.991 766.9808,493.8271 761.5617,482.3205 755.642,471.5795 749.1216,461.5067 741.9191,451.9851 734.6261,443.7523 726.7704,436.2592 719.2236,430.2632 711.7826,425.4137 703.6608,421.1962 695.2142,417.8272 686.7877,415.4326 678.0598,413.9186 669.4432,413.3537 660.7608,413.6839 651.5855,414.9448 642.7138,417.0607 633.8039,420.0876 625.1837,423.8925 616.281,428.7071 607.6502,434.278 599.3181,440.5843 591.0314,447.8395 583.0169,455.8499 575.5613,464.3344 568.4287,473.5521 562.0386,483.0208 556.1744,492.9924 550.7632,503.5253 546.2147,514.0759 541.8089,526.0784 538.7618,536.4931 535.962,548.6733 534.3531,558.5241 533.2089,569.8493 532.7721,581.3697 532.9489,592.4959 534.0532,604.9331 535.7151,615.1462 538.0278,625.9676 541.5897,638.1992 544.9177,647.3985 549.4536,657.9196 554.4464,667.7601 559.7554,676.9165 568.0136,689.1649 574.3727,697.6423 583.6084,708.6934 590.2298,715.8852 600.7561,726.162 610.8277,735.1677 621.1877,743.2804 633.5782,752.0315 643.2361,758.0292 653.2593,763.4306 663.5449,768.2208 672.9636,771.9341 682.3019,774.8581 691.6079,777.0207 701.1823,778.4515 710.1982,779.031 718.963,778.7813 727.4917,777.7178 735.6971,775.8752 743.8822,773.1586 751.8257,769.5818 758.9874,765.4263 766.0422,760.3427 772.927,754.3026 779.3181,747.5781 785.19,740.259 790.2929,732.8096 795.1286,724.5754 799.5871,715.688 803.7079,706.0566 807.4549,695.7136 810.6878,685.0695 813.5052,673.8202 815.8007,662.4118 817.6491,650.4929 819.0544,637.8873 819.9849,624.8685 820.4235,611.8672 820.3883,598.6002 819.8653,585.1405 818.8768,571.9501 817.4018,558.7137 815.4929,545.886 813.0118,532.6283 810.0619,519.4657 806.7759,506.903 802.9679,494.2444 798.8744,482.2973 794.4017,470.7465 789.5622,459.6534 784.5307,449.3914 779.2824,439.8517 773.4381,430.3377 767.1006,421.1036 760.7664,412.8488 753.977,404.9549 747.0012,397.7686 739.8684,391.307 732.6081,385.5868 725.25,380.625 717.2816,376.1017 709.293,372.3522 701.3032,369.3469 692.9699,366.9686 684.6783,365.3373 676.4503,364.4191 667.9563,364.1846 659.1888,364.6646 650.3237,365.8226 641.3364,367.6834 632.2642,370.2631 623.4911,373.4265 614.6884,377.2589 605.6472,381.8608 596.8545,386.9591 587.9083,392.8093 579.1997,399.1816 570.5,406.25 561.7933,414.042 553.5253,422.1391 545.22,431.01 537.1807,440.3353 525.0555,456.081 513.2229,473.691 503.0417,490.8742 482.7682,528.4714 477.8568,536.2248 473.0231,542.1296 470.2685,544.787 467.375,547.0 464.3194,548.75 461.4661,549.8858 458.0257,550.6914 454.8535,550.9414 451.5798,550.7377 447.69,550.0301 443.4468,548.8185 439.2092,547.1099 433.9229,544.4444 428.2898,541.1478 418.2778,533.9167 405.832,523.3516 392.4564,510.2513 377.9051,494.766 361.2727,475.441 346.6642,457.3002 327.745,432.0563 310.8839,408.3874 290.1697,377.5137 273.2786,351.0439 254.75,320.125 242.2229,297.4698 236.7282,286.6347 232.7757,278.0779 231.008,272.923 230.821,271.3759 231.1015,270.5477 232.2838,270.6419 234.6229,272.4435 243.7939,282.0786 305.445,355.5309 324.4484,376.9708 345.0796,399.2474 363.3896,417.981 382.8562,436.8188 400.0885,452.6672 423.125,472.875"/>
  </g>
</svg>
