<?xml version="1.0" encoding="utf-8" ?>
<svg xmlns="http://www.w3.org/2000/svg" xmlns:cc="http://creativecommons.org/ns" xmlns:dc="http://purl.org/dc/elements/1.1/" xmlns:ev="http://www.w3.org/2001/xml-events" xmlns:inkscape="http://www.inkscape.org/namespaces/inkscape" xmlns:rdf="http://www.w3.org/1999/02/22-rdf-syntax-ns" xmlns:sodipodi="http://sodipodi.sourceforge.net/DTD/sodipodi-0.dtd" xmlns:xlink="http://www.w3.org/1999/xlink" baseProfile="tiny" height="27.09333333cm" version="1.2" viewBox="0 0 1024.0 1024.0" width="27.09333333cm">
  <metadata>
    <rdf:RDF>
      <cc:Work>
        <dc:format>image/svg+xml</dc:format>
        <dc:source>vpype read './original_svgs/Strange Attractors #311.svg' linemerge linesimplify write './Strange Attractors #311.svg'
</dc:source>
        <dc:date>2024-08-05T01:35:48.048960</dc:date>
      </cc:Work>
    </rdf:RDF>
  </metadata>
  <defs/>
  <g fill="none" id="layer1" inkscape:groupmode="layer" inkscape:label="1" stroke="black" stroke-width="0.7mm" style="display:inline">
    <polyline points="880.75,459.125 890.0,407.0 910.5,366.625 937.0,336.5 961.875,318.0 974.625,315.125 966.0,331.875 932.625,368.5 822.75,477.25 769.625,533.375 727.5,584.0 698.125,627.625 680.875,664.5 673.625,695.125 674.5,720.0 681.25,739.375 691.75,752.875 704.0,760.125 716.25,761.0 726.75,755.5 734.625,744.0 739.125,727.5 740.25,707.625 738.5,685.5 734.5,662.75"/>
    <polyline points="729.0,640.375 722.5,619.25 715.625,599.875 708.75,582.5 702.0,567.125 695.625,553.875 689.75,542.5 684.25,532.75 674.625,517.75 670.25,512.125 662.625,503.625 655.875,498.125 652.75,496.125 646.875,493.5 641.625,492.0 634.25,491.0 627.625,490.875"/>
    <polyline points="625.625,491.0 610.875,491.25 606.375,490.75 603.875,490.125 602.625,489.5 601.125,488.0 600.75,486.625"/>
    <polyline points="600.875,486.125 601.75,483.75 602.75,482.5 607.625,478.125 615.625,472.875 629.25,465.625"/>
    <polyline points="631.5,464.5 647.25,457.625 655.875,454.375 664.625,451.625 672.75,449.75 675.125,449.375 679.25,449.25 682.25,449.875 683.25,450.625 683.875,451.625 684.0,452.875 683.125,456.125"/>
    <polyline points="681.875,458.0 680.375,460.25 676.0,465.125 667.0,473.25 655.875,481.5 644.0,489.0 632.375,495.125 621.25,499.875 614.5,502.25 608.25,504.0 599.75,505.625"/>
    <polyline points="597.125,506.0 586.125,506.5 577.75,505.625 575.125,505.0 570.125,503.125 567.625,501.375 566.375,499.375"/>
    <polyline points="566.125,498.875 566.125,497.25 566.625,495.5 569.375,491.75 575.625,486.625 584.0,481.25"/>
    <polyline points="585.625,480.25 605.625,469.25 629.25,457.625 652.5,447.0 675.375,437.625"/>
    <polyline points="681.5,435.25 700.375,429.0 712.125,426.125 717.375,425.375 721.875,425.25 725.5,425.75 728.0,427.125 729.375,429.375 729.25,432.5 727.75,436.625 724.75,441.625 720.5,447.25 714.875,453.625 700.875,467.625 684.375,482.0 675.875,489.0 667.25,495.5 650.75,507.25 635.5,516.75"/>
    <polyline points="628.5,520.75 615.5,527.125 609.625,529.625 598.75,533.375 589.25,535.875 584.875,536.625 576.75,537.75 562.875,538.125 551.5,537.25 535.375,534.875"/>
    <polyline points="533.375,534.5 519.625,532.375 512.25,531.625 506.875,531.375 496.625,531.625"/>
    <polyline points="495.375,531.625 469.0,534.875 458.5,535.75"/>
    <polyline points="456.625,535.875 445.875,535.875 435.875,534.875 430.25,533.875 424.125,532.375 413.75,529.0 405.875,525.625 392.625,518.5 382.625,511.875 371.75,503.375"/>
    <polyline points="365.875,498.375 353.625,486.625 347.25,479.875 340.875,472.375 334.625,464.5 328.5,456.125 322.875,447.25 317.75,438.375 313.375,429.375 310.125,420.875 308.0,412.875 307.375,405.75 308.375,399.875 310.875,395.625 315.0,392.875 320.625,392.0 327.5,392.75 335.5,395.125 344.125,399.0 353.25,403.875 362.625,409.625 371.875,415.875 381.0,422.5 398.0,435.75"/>
    <polyline points="405.75,442.125 437.5,468.0 451.5,478.375 462.875,485.625 469.375,489.25 480.5,494.0 489.75,496.625 497.625,497.875"/>
    <polyline points="499.5,498.0 506.5,498.375 518.875,497.375 527.625,495.625 537.875,492.5"/>
    <polyline points="539.375,492.0 554.125,486.125 572.625,477.375 592.125,467.625"/>
    <polyline points="595.5,465.875 631.125,448.125 666.625,431.25 707.0,413.25 731.5,403.25 757.375,394.125 769.75,390.625 780.75,388.5 789.625,388.125 795.375,390.375"/>
    <polyline points="797.25,395.375 794.625,403.625 787.375,415.0 775.875,429.0 761.0,444.875 744.0,462.0 708.0,496.125 690.875,511.75 660.5,538.625 647.75,549.625 626.625,566.875 610.625,578.75 604.0,583.125 593.125,589.125 584.5,592.625 580.875,593.625 574.25,594.625 568.625,594.5"/>
    <polyline points="566.0,594.25 556.5,592.375 542.375,588.5 533.25,587.0 528.25,586.875 525.0,587.125 521.875,587.625 518.875,588.5"/>
    <polyline points="517.5,589.0 514.75,590.25 511.0,592.75 506.75,597.5 504.5,602.25 503.875,604.125 503.125,608.25 503.125,615.625 503.5,618.5 505.125,624.875 506.25,628.375 507.875,632.125 512.0,640.625"/>
    <polyline points="514.875,645.25 518.125,650.25 526.375,661.125 531.5,667.0 537.375,673.125 543.875,679.375 551.25,685.75 559.25,692.125 568.0,698.25 577.375,704.125 587.25,709.375 597.5,713.625 607.75,716.875 617.875,718.75 627.5,718.875 636.375,717.25 644.125,713.625 650.625,708.125 655.625,700.875 659.125,692.0 661.125,681.875 661.625,670.75 660.875,659.125 659.125,647.375 656.5,635.625"/>
    <polyline points="653.125,624.125 649.25,613.25 645.125,602.875 640.75,593.375 636.25,584.5 627.25,569.125 618.75,556.625 610.75,546.5 607.0,542.25 597.0,532.0 585.875,522.75 572.0,513.25"/>
    <polyline points="570.5,512.375 562.625,507.0 560.625,505.25 558.875,503.0 558.25,501.375 558.25,499.75 558.5,498.625 559.375,497.0"/>
    <polyline points="559.75,496.375 562.5,493.375 569.875,487.75 576.75,483.5 589.75,476.125"/>
    <polyline points="592.0,475.0 605.25,468.0 622.75,459.375 645.75,448.625 662.75,441.125 689.375,430.625 703.5,425.75 710.375,423.75"/>
    <polyline points="717.125,422.0 723.25,420.875 728.625,420.375 733.125,420.625 736.375,421.875 738.125,424.125 738.375,427.5 736.75,432.125 733.5,437.625 728.5,444.25 722.125,451.625 714.5,459.5 706.0,467.75 687.25,484.25 668.125,499.5 650.0,512.625 633.625,523.0 619.125,531.0 606.5,536.625 600.75,538.75"/>
    <polyline points="595.375,540.5 585.625,542.875 577.0,544.25 569.25,544.875 562.25,544.875 544.75,543.375 520.875,540.0"/>
    <polyline points="519.0,539.75 508.625,538.875 499.0,538.875 487.875,539.625 478.0,540.75"/>
    <polyline points="476.25,541.0 463.125,542.625 456.75,543.125 449.875,543.375 439.375,543.125 433.5,542.5 423.5,540.625 412.0,537.25"/>
    <polyline points="407.75,535.75 398.5,531.625 393.375,529.0 388.0,525.875 376.125,518.125 362.75,507.875 355.5,501.5 348.0,494.375 340.0,486.25 331.875,477.25 323.625,467.25 315.375,456.5 307.375,444.875 300.125,432.625 293.625,420.25 288.625,408.125 285.25,396.75 284.125,386.625 285.25,378.375 288.875,372.5 295.0,369.375 303.25,369.0 313.375,371.25"/>
    <polyline points="324.625,376.0 336.75,382.5 349.0,390.5 361.125,399.25 372.875,408.5 394.125,426.625 438.875,467.625 448.75,476.125 453.125,479.5 460.75,485.0 467.375,489.125 475.75,493.125 483.125,495.5"/>
    <polyline points="485.375,496.0 491.75,497.0 495.75,497.25 504.875,497.125 511.75,496.375 516.75,495.5 529.875,492.25"/>
    <polyline points="531.5,491.75 539.875,488.875 550.625,484.5 562.875,478.875 583.125,468.75"/>
    <polyline points="586.125,467.25 617.375,451.0 665.5,426.875 698.75,410.875 727.375,397.875 761.5,383.125 780.0,375.875 798.625,369.25 816.125,364.25"/>
    <polyline points="830.875,361.875 840.625,363.5 843.625,370.25 838.375,382.875 824.875,401.25 804.5,424.0 779.5,449.75 702.25,525.875 681.125,547.25 663.375,565.75 648.75,581.5 627.875,605.75 615.375,622.0 604.5,637.625 602.5,639.5 601.875,639.375 601.25,638.75 600.625,637.5"/>
    <polyline points="600.0,635.875 596.25,626.25 593.375,620.25 588.125,611.0 581.75,602.0 574.75,593.875 567.5,586.75 557.625,579.125 550.25,574.625"/>
    <polyline points="547.875,573.375 543.25,571.0 538.625,569.125 532.0,567.0 523.5,565.125 519.375,564.625 511.375,564.25 505.625,564.625 496.125,566.125"/>
    <polyline points="494.25,566.625 490.5,567.625 484.875,569.625 477.375,573.0 473.5,575.0 465.875,579.875 462.125,582.75 454.625,589.625 451.125,593.875 447.875,598.75"/>
    <polyline points="446.375,601.375 443.75,607.5 442.75,611.0 441.5,619.25 441.375,624.0 441.75,629.25 442.625,635.25 444.375,642.125 447.0,649.875 450.75,658.75 455.875,669.0 462.875,680.875 472.0,694.625 484.0,710.375 499.375,728.625 518.75,749.375 543.0,772.375 572.375,797.0 606.875,822.0 645.875,844.75 687.125,861.625 727.25,868.75 762.0,862.625 787.75,841.875"/>
    <polyline points="802.625,808.25 807.25,765.875 804.0,719.625 796.125,674.0 786.375,631.875 776.5,594.75 760.5,536.875 750.75,498.375 745.25,474.625 743.25,467.125 741.125,462.0 738.625,459.125 735.625,458.0 731.75,458.5 727.125,460.5 715.5,467.625 676.875,494.0 668.75,499.25"/>
    <polyline points="660.75,504.25 645.5,513.0 631.5,520.125 619.0,525.5 613.25,527.625 602.625,530.875 593.125,533.0 588.75,533.625 580.75,534.5 573.5,534.75 566.875,534.625 561.0,534.125 555.5,533.625 548.25,532.5"/>
    <polyline points="546.0,532.125 522.0,527.75 511.125,526.5 509.0,526.5"/>
    <polyline points="507.875,526.375 496.75,526.75 482.0,528.875"/>
    <polyline points="480.875,529.125 467.75,531.125 458.25,532.0 448.75,532.125 439.875,531.5"/>
    <polyline points="437.5,531.125 432.25,530.25 423.75,528.125 414.0,524.75 406.75,521.5 394.5,514.75 390.0,511.875 380.5,505.0 370.25,496.5 364.875,491.5 354.0,480.25 348.375,473.875 343.0,467.125 337.75,460.0 332.875,452.625"/>
    <polyline points="328.5,445.125 324.625,437.625 321.625,430.375 319.625,423.5 318.625,417.375 318.875,412.0 320.375,407.75 323.25,404.875 327.25,403.25 332.5,402.875 338.625,404.0 345.5,406.25 353.0,409.5 368.875,418.5 377.0,423.75 392.5,434.875 441.0,472.125"/>
    <polyline points="445.5,475.375 453.625,480.875 464.125,487.25 475.75,492.875 483.0,495.625 489.375,497.5 498.5,499.25 506.375,499.875"/>
    <polyline points="507.875,499.875 514.75,499.75 522.375,498.75 531.0,496.75 539.875,493.75"/>
    <polyline points="541.25,493.25 552.875,488.375 563.375,483.5 589.375,470.5"/>
    <polyline points="592.5,469.0 614.875,457.75 647.75,441.875 688.375,423.5 708.75,415.0 730.875,406.625 742.125,402.875 753.0,399.75 762.875,397.625 771.375,396.75"/>
    <polyline points="777.625,397.75 781.0,400.875 781.125,406.375 777.5,414.375 770.375,424.75 759.875,437.125 747.0,450.75 732.375,465.25 717.0,479.875 701.5,494.0 672.25,519.375 659.25,530.25 636.75,547.875 618.625,560.625 611.0,565.5 604.125,569.375 598.0,572.5 592.5,574.875 582.875,578.125 574.625,579.875 571.0,580.25"/>
    <polyline points="567.5,580.375 558.25,580.0 550.0,578.875 538.125,576.75 527.5,575.5 521.5,575.375 515.875,575.75 510.5,576.625"/>
    <polyline points="508.75,577.0 502.0,579.375 495.625,582.875 489.875,587.75 486.125,592.5 484.0,596.375 482.25,600.75 481.0,606.0 480.625,615.5 481.125,619.25"/>
    <polyline points="481.75,623.25 482.875,627.75 486.5,638.0 492.625,650.375 496.875,657.5 502.125,665.25 508.375,673.75 515.875,683.0 524.875,692.875 535.375,703.5 547.5,714.625 561.25,726.0 576.75,737.25 593.75,747.875 611.875,757.125 630.625,764.25 649.0,768.375 666.375,768.75 681.75,764.75 694.375,756.125 703.625,743.25 709.375,726.75 711.875,707.625 711.5,687.0"/>
    <polyline points="708.875,665.75 704.5,645.0 699.25,625.25 693.25,607.0 687.25,590.375 681.25,575.625 675.5,562.625 670.0,551.25 665.0,541.375 656.0,525.625 652.125,519.375 642.375,505.875 637.125,500.0 632.75,495.875 627.375,491.75 621.875,488.5"/>
    <polyline points="620.75,488.0 615.25,485.125 613.625,483.25 613.5,482.0 614.25,480.125 616.125,477.875 617.5,476.75"/>
    <polyline points="618.25,476.125 626.875,470.625 634.25,466.875 644.75,462.5 655.375,459.125"/>
    <polyline points="657.0,458.75 661.375,458.125 663.75,458.25 665.375,458.75 666.375,459.75 666.5,461.25 666.25,462.125 664.125,465.625 658.375,471.25 656.5,472.875 645.375,480.5"/>
    <polyline points="642.875,481.875 638.0,484.625 630.625,488.125 623.5,490.875 619.0,492.25 613.0,493.75 606.0,494.75 600.375,494.75 596.125,494.0"/>
    <polyline points="595.25,493.75 592.375,492.0 591.75,491.125 591.5,489.0 592.25,487.125 593.75,485.125 596.75,482.125 601.25,478.75"/>
    <polyline points="602.625,477.875 614.875,470.5 629.75,462.875 642.125,457.25 652.625,452.875 671.375,446.25"/>
    <polyline points="675.125,445.125 685.375,442.875 688.375,442.625 693.125,442.875 694.875,443.625 696.125,444.625 696.625,446.0 696.625,447.875 694.625,452.625 692.625,455.5 686.875,462.125 679.125,469.625 670.0,477.25 660.0,484.625 649.75,491.5 639.625,497.5"/>
    <polyline points="634.625,500.125 625.25,504.625 616.5,508.125 604.625,511.875 594.25,514.0 588.125,514.75 580.125,515.125 575.375,515.0 565.625,513.875 561.0,512.875"/>
    <polyline points="559.625,512.5 552.125,509.875 548.375,507.5 546.75,505.5 546.375,504.25 546.5,502.625"/>
    <polyline points="546.625,502.25 548.25,499.625 552.0,496.25 557.875,492.125 563.625,488.75"/>
    <polyline points="564.875,488.0 577.625,480.75 596.125,471.0 628.875,454.875"/>
    <polyline points="633.625,452.625 656.0,442.375 676.375,433.625 699.625,424.5 715.75,419.125 723.5,417.0 730.875,415.375 737.375,414.375 742.875,414.375 746.875,415.625 749.25,418.0 749.5,421.75 747.75,427.0 743.75,433.625 737.75,441.375 730.0,450.125 720.875,459.5 710.625,469.25"/>
    <polyline points="699.875,479.0 677.875,497.625 657.125,513.625 638.375,526.625 630.0,531.875 615.0,540.25 608.375,543.375 596.375,548.125 591.0,549.75 581.375,552.0 577.0,552.75 568.875,553.5 555.0,553.25 546.125,552.375"/>
    <polyline points="543.375,552.0 522.125,549.125 510.125,548.25 499.0,548.375 491.75,549.0"/>
    <polyline points="489.875,549.25 482.375,550.25 461.875,553.875 452.25,555.25 441.25,556.25 431.875,556.25"/>
    <polyline points="428.375,556.125 421.0,555.25 412.625,553.75 398.0,549.25 386.25,544.0 372.625,536.25 364.875,531.25 356.5,525.125 347.375,517.75 337.375,509.125 326.75,498.875 315.375,486.875 303.25,473.0 290.75,457.125 278.25,439.5 266.125,420.375 255.375,400.125 246.75,379.875 241.25,360.875 240.0,344.5"/>
    <polyline points="243.5,332.25 252.0,325.125 264.75,323.875 281.0,328.0 299.375,336.875 318.5,349.125 337.375,363.625 355.0,378.875 371.0,394.25 385.125,408.75 407.75,434.375 416.5,445.125 430.0,462.625 443.0,480.5 451.125,491.125 457.0,497.125 460.25,499.5"/>
    <polyline points="461.875,500.25 466.625,501.75 469.75,502.125 476.375,502.0 488.375,500.625 503.625,498.125"/>
    <polyline points="505.25,497.875 523.125,493.75 534.5,490.125 546.625,485.375"/>
    <polyline points="548.5,484.625 569.25,474.75 620.375,448.0"/>
    <polyline points="625.75,445.25 661.625,426.875 682.125,416.75 723.5,397.0 759.625,380.75 780.125,372.125 801.625,363.625 823.0,356.25 842.25,351.125 857.0,350.125 864.25,354.875 861.75,366.875 848.625,386.25 826.125,411.875 797.375,441.625 735.375,503.5 707.75,531.625"/>
    <polyline points="684.125,556.625 665.0,578.25 650.0,596.625 638.75,612.0 630.5,624.625 624.75,635.0 621.125,643.25 619.0,649.625 618.0,654.375 617.875,657.75 618.375,659.75 619.125,660.625 619.875,660.25 620.75,659.0 621.625,653.875 621.25,646.125 619.375,636.625 616.125,626.25 614.0,620.875 611.625,615.625 606.25,605.375"/>
    <polyline points="603.25,600.5 594.0,587.25 587.5,579.625 578.0,570.0 571.875,564.75 563.0,558.125 554.875,553.0 547.25,549.0 542.5,546.875 533.625,543.625"/>
    <polyline points="531.625,543.0 527.625,541.75 520.25,540.125 511.625,538.875 500.5,538.375 489.625,539.0"/>
    <polyline points="488.0,539.125 459.5,542.375 452.875,542.75 445.5,542.75 437.375,542.25"/>
    <polyline points="434.375,541.875 424.75,540.25 413.5,537.0 404.875,533.75 395.25,529.125 390.0,526.25 378.5,518.875 372.25,514.375 358.625,503.25 351.25,496.5 343.625,488.875 335.625,480.25 327.5,470.875 319.5,460.5 311.625,449.375 304.125,437.625 297.5,425.625 292.125,413.625"/>
    <polyline points="288.125,402.125 286.25,391.75 286.5,383.0 289.125,376.375 294.125,372.25 301.375,370.75 310.5,372.0 321.125,375.625 332.625,381.25 344.625,388.375 356.625,396.625 368.375,405.5 379.5,414.5 389.875,423.375 441.625,470.125 451.125,477.875 462.625,486.125"/>
    <polyline points="466.0,488.125 472.0,491.25 477.375,493.5 482.25,495.125 489.0,496.5 497.0,497.25 502.625,497.25 511.375,496.5 518.0,495.375"/>
    <polyline points="519.625,495.0 526.125,493.5 541.125,488.625 552.0,484.125 564.375,478.375"/>
    <polyline points="566.625,477.25 639.0,440.375 662.5,428.75 694.375,413.5"/>
    <polyline points="707.375,407.5 737.25,394.125 771.875,379.875 790.0,373.25 807.375,368.0 822.5,364.875 833.625,365.125 838.875,370.0 836.625,380.25 826.375,396.0 809.0,416.625 786.375,440.5 761.0,465.875 689.0,536.625 670.125,555.625 654.375,572.0 631.25,597.375 623.0,606.875 607.875,625.625"/>
    <polyline points="605.0,629.25 601.125,633.625 599.75,634.625 598.625,634.875 597.75,634.625 596.875,633.875 595.125,631.25 590.75,622.5 586.25,614.625 580.75,606.625 572.375,596.75 565.625,590.375"/>
    <polyline points="563.25,588.375 556.375,583.25 551.75,580.375 545.0,576.75 538.375,574.125 531.875,572.125 525.75,570.875 517.75,570.125 513.875,570.125 510.125,570.5"/>
    <polyline points="508.25,570.625 501.0,572.125 493.875,574.625 487.0,578.125 482.0,581.625 478.875,584.25 474.375,589.125 470.375,595.125 468.25,600.0"/>
    <polyline points="467.375,602.75 466.0,608.875 465.625,616.125 465.875,620.375 467.625,630.125 469.375,635.875 474.875,649.25 479.0,657.125 484.125,665.875 490.75,675.75 499.0,686.75 509.0,699.0 521.25,712.375 536.0,726.875 553.25,742.25 573.25,758.125 595.875,773.5 620.625,787.375 646.625,798.375 672.375,804.625 696.25,804.75 716.75,797.625"/>
    <polyline points="732.25,783.25 742.25,762.25 746.875,736.5 746.875,708.0 743.375,678.625 737.5,650.125 730.625,623.375 723.25,599.375 716.0,578.125 709.375,559.625 703.25,544.0 693.25,519.5 689.125,510.375 682.375,496.625 679.5,491.75 674.5,484.75 672.25,482.5 667.875,479.75 663.5,478.75 659.0,479.0"/>
    <polyline points="656.75,479.5 647.125,482.5 630.0,488.875 621.125,491.5 615.125,492.875 609.75,493.625 603.875,493.875"/>
    <polyline points="602.625,493.75 600.375,493.625 596.875,492.625 595.125,491.625 593.875,489.75 593.75,488.75 594.25,487.0 596.625,483.75 598.25,482.25"/>
    <polyline points="599.125,481.5 607.875,475.25 621.625,467.5 634.75,461.125 654.125,453.0"/>
    <polyline points="657.75,451.625 671.875,446.875 681.75,444.625 687.125,444.25 689.375,444.375 691.25,444.875 692.5,445.75 693.375,446.875 693.625,448.375 692.375,452.5 690.75,455.0 688.75,457.875 682.875,464.25 671.125,474.75 662.0,481.75"/>
    <polyline points="657.125,485.125 647.5,491.375 633.375,499.25 620.25,505.125 612.25,507.875 604.875,510.0 592.125,512.375 581.625,513.0 571.25,512.25"/>
    <polyline points="569.5,512.0 562.25,510.375 556.25,508.0 554.25,506.75 552.125,504.625 551.375,502.375 551.5,502.0"/>
    <polyline points="551.5,501.5 552.5,499.125 555.25,496.0 560.625,491.875 568.75,486.75"/>
    <polyline points="570.125,485.875 586.25,476.875 604.75,467.25 623.0,458.25 641.875,449.375"/>
    <polyline points="647.375,446.875 679.375,433.125 694.25,427.375 709.625,422.125 724.25,418.25 730.75,417.125 736.375,416.75 740.875,417.375 743.875,419.0 745.125,422.0 744.5,426.25 741.875,431.75 737.375,438.5 731.0,446.125 723.125,454.625 714.125,463.625 694.0,482.0 683.5,490.75"/>
    <polyline points="673.125,499.125 653.5,513.875 635.875,525.625 627.875,530.375 613.5,538.0 601.125,543.25 595.5,545.125 585.5,547.875 580.875,548.75 572.5,549.75 568.625,550.0 555.0,549.75 541.0,548.125"/>
    <polyline points="538.375,547.75 518.75,545.125 509.25,544.5 496.875,544.625 489.875,545.25"/>
    <polyline points="488.125,545.375 465.125,548.625 451.375,550.125 440.5,550.5 431.125,549.875"/>
    <polyline points="427.75,549.5 416.375,547.375 412.125,546.25 402.75,543.0 392.125,538.375 386.25,535.25 373.25,527.25 365.875,522.125 349.625,508.875 340.625,500.75 331.125,491.125 321.125,480.25 310.75,468.0 300.375,454.375 290.0,439.375 280.375,423.5 272.0,407.125 265.375,391.0 261.375,375.875 260.5,362.875"/>
    <polyline points="263.25,353.0 269.5,346.75 279.25,344.75 291.75,346.875 306.25,352.625 321.75,361.375 337.625,372.125 352.875,384.0 367.375,396.375 380.625,408.5 403.125,430.875 448.25,479.0 455.375,485.75 461.25,490.5 468.625,495.0"/>
    <polyline points="470.875,496.0 475.0,497.5 478.875,498.375 486.25,499.0 489.75,499.0 498.25,498.25 505.0,497.25 514.625,495.25"/>
    <polyline points="516.25,494.875 522.625,493.25 535.625,489.0 547.625,484.125 559.125,478.75"/>
    <polyline points="561.125,477.75 582.375,466.75 622.75,444.75 655.5,427.5"/>
    <polyline points="664.375,422.875 713.625,398.125 750.25,380.625 772.25,370.5 796.875,359.625 823.125,348.75 849.75,338.875 874.0,332.0 891.75,330.75 898.625,337.875 891.125,355.375 868.875,383.25 835.375,418.75 757.125,497.5 722.125,534.125 693.375,566.625 671.25,594.75 655.25,618.375 644.625,638.25 638.375,654.5 635.625,667.875"/>
    <polyline points="635.625,678.375 637.5,686.25 640.625,691.75 644.625,694.75 648.75,695.625 652.625,694.125 656.0,690.75 658.5,685.5 660.125,678.75 660.75,670.75 660.25,661.75 659.0,652.125 656.75,642.25 654.0,632.25 650.625,622.375 646.75,612.875 642.625,603.75 638.375,595.25 633.875,587.25 625.125,573.25 616.5,561.5 608.375,551.875 604.625,547.875"/>
    <polyline points="600.875,544.125 590.875,535.125 585.0,530.5 579.625,526.75 572.625,522.25 551.75,510.375"/>
    <polyline points="551.0,509.875 548.125,507.5 546.5,504.875 546.625,502.375 547.25,501.0 549.125,498.75"/>
    <polyline points="549.625,498.25 553.5,495.125 557.875,492.125 570.625,484.625 577.625,480.875"/>
    <polyline points="579.5,479.75 602.0,468.0 628.75,454.875 649.75,445.125 683.75,430.625"/>
    <polyline points="691.5,427.625 707.5,421.75 723.375,417.0 730.75,415.375 737.25,414.375 742.75,414.375 746.75,415.5 749.125,417.875 749.5,421.75 747.75,426.875 743.875,433.5 737.875,441.25 730.125,449.875 721.0,459.375 710.875,469.0 700.125,478.875 689.125,488.375 667.5,505.875 657.25,513.5 638.625,526.5 630.25,531.75 622.375,536.25"/>
    <polyline points="615.125,540.125 602.25,545.875 591.125,549.75 581.5,552.0 572.875,553.125 565.25,553.5 555.125,553.25 546.25,552.375 524.375,549.375"/>
    <polyline points="522.25,549.125 510.25,548.25 500.875,548.25 488.0,549.375 474.625,551.5"/>
    <polyline points="472.625,551.875 452.25,555.25 444.25,556.0 432.0,556.25 424.875,555.75 412.75,553.75 403.375,551.125 392.5,546.875"/>
    <polyline points="386.5,544.125 379.875,540.625 365.125,531.375 356.75,525.25 347.625,518.0 337.75,509.375 327.125,499.125 315.75,487.25 303.625,473.375 291.25,457.75 278.625,440.125 266.625,421.0 255.75,400.875 247.125,380.625 241.5,361.625 240.125,345.125 243.5,332.75 251.75,325.5 264.375,323.875 280.5,327.875 298.875,336.625 317.875,348.75 336.75,363.125 354.5,378.5 370.5,393.75"/>
    <polyline points="384.625,408.375 396.875,421.875 416.25,444.75 429.75,462.375 448.75,488.0 453.25,493.375 458.625,498.375 461.875,500.25 465.125,501.375 468.25,501.875 474.75,502.0"/>
    <polyline points="476.375,501.875 490.125,500.375 500.25,498.75 518.25,495.0"/>
    <polyline points="519.875,494.625 531.25,491.25 543.125,486.875 556.25,481.125 564.625,477.0"/>
    <polyline points="567.0,475.875 631.625,442.125 661.625,426.875 694.375,410.75"/>
    <polyline points="708.125,404.25 740.75,389.125 780.25,371.875 801.875,363.375 823.25,356.0 842.625,350.875 857.375,349.875 864.625,354.625 862.125,366.625 849.0,386.0 826.375,411.875 797.5,441.75 735.25,503.75 707.625,532.0 684.125,557.0 665.0,578.75 650.0,597.125 638.75,612.5 630.5,625.125 624.875,635.5 621.25,643.75 619.25,650.125 618.25,655.0"/>
    <polyline points="618.25,658.25 618.75,660.25 619.5,661.0 620.375,660.75 621.125,659.375 621.75,657.125 622.125,654.125 621.75,646.25 619.875,636.625 618.375,631.5 614.375,620.75 612.0,615.5 609.375,610.25 603.625,600.25 594.25,586.875 584.5,575.75 578.125,569.625"/>
    <polyline points="575.0,566.875 569.0,561.875 560.375,555.875 549.875,549.75 540.375,545.5 533.875,543.125 524.0,540.375 516.875,539.0"/>
    <polyline points="515.25,538.75 507.125,538.0 499.25,537.875 490.125,538.375 475.5,540.125"/>
    <polyline points="473.75,540.25 464.5,541.375 454.0,542.125 446.875,542.25 436.125,541.5 430.0,540.625 423.25,539.25 415.875,537.125 407.625,534.125"/>
    <polyline points="403.125,532.25 393.375,527.375 388.125,524.25 382.5,520.75 370.125,511.875 356.375,500.25 341.25,485.375 333.5,476.625 325.5,467.0 317.625,456.5 310.0,445.375 303.0,433.75 297.0,422.0 292.125,410.5 289.0,399.625 287.875,390.0 288.875,382.125 292.25,376.5 298.0,373.25 305.75,372.75 315.125,374.625 325.875,378.75"/>
    <polyline points="337.375,384.75 349.125,392.125 360.875,400.5 372.125,409.125 383.0,418.0 402.25,434.75 437.75,466.75 452.25,478.625 460.125,484.25 470.0,490.125 478.25,493.625 485.375,495.75"/>
    <polyline points="487.625,496.25 491.875,496.875 497.875,497.25 503.375,497.25 508.625,496.875 518.75,495.375 526.75,493.5 531.625,492.0"/>
    <polyline points="533.25,491.5 543.5,487.875 556.625,482.25 586.125,467.75"/>
    <polyline points="589.375,466.125 634.5,443.0 675.25,423.0 698.0,412.25 741.375,393.0 758.25,386.0 775.625,379.25 793.0,373.25 809.25,368.875 822.875,366.875"/>
    <polyline points="831.875,368.5 834.875,374.875 830.375,386.5 818.5,403.125 800.125,424.0 777.25,447.625 752.5,472.25 704.5,519.0 666.0,557.125 628.875,596.125 605.875,622.25 600.375,628.0 596.875,630.5 595.5,630.75 594.375,630.625 592.25,628.875"/>
    <polyline points="591.125,627.5 581.875,613.0 574.625,603.75 568.625,597.375 562.25,591.75 558.0,588.5 553.625,585.625 545.0,581.0"/>
    <polyline points="542.875,580.125 536.625,577.75 528.625,575.875 522.75,575.25 517.125,575.25 510.0,576.125 504.75,577.5 496.625,581.25"/>
    <polyline points="495.125,582.25 490.625,585.75 487.875,588.5 484.125,593.5 483.125,595.5 481.25,599.875 479.875,604.875 479.25,610.875 479.25,614.25 479.5,618.0 481.125,626.375 482.5,631.125 484.5,636.5 490.125,648.625 499.125,663.375"/>
    <polyline points="505.25,671.75 512.5,681.0 521.125,691.0 531.375,701.625 543.375,712.875 557.125,724.625 572.5,736.25 589.625,747.5 608.0,757.625 627.25,765.625 646.375,770.875 664.75,772.25 681.125,769.125 694.75,761.25 705.0,748.875 711.625,732.5 714.75,713.125 714.75,692.0 712.375,670.125 708.125,648.625 702.875,628.125 696.875,609.125 690.625,591.875 684.5,576.5 678.625,562.875 673.125,551.125"/>
    <polyline points="668.0,540.875 659.125,524.625 655.125,518.25 648.375,508.375 642.75,501.25 635.875,494.375 630.5,490.375 626.125,488.0 617.875,484.625"/>
    <polyline points="617.25,484.25 616.375,483.75 615.25,482.375 615.125,481.625 615.625,480.0 618.375,476.875 624.5,472.625"/>
    <polyline points="625.625,472.0 629.25,469.875 636.5,466.375 646.25,462.5 654.375,460.125 658.625,459.375 661.875,459.5"/>
    <polyline points="662.625,459.75 663.25,460.0 664.125,461.0 663.875,463.25 660.75,467.625 658.0,470.25 651.0,475.75 644.625,479.875 640.125,482.5 631.0,486.875"/>
    <polyline points="628.75,487.75 620.25,490.75 609.625,493.0 604.0,493.25 599.75,492.75 597.375,492.0 595.5,490.5"/>
    <polyline points="595.25,490.0 594.875,489.125 595.25,486.875 596.375,485.0 599.0,482.125 604.25,478.0 615.625,471.125"/>
    <polyline points="617.625,470.0 626.75,465.25 640.75,458.75 660.625,450.875 667.5,448.625 677.5,446.0 685.75,445.0 687.875,445.125 689.625,445.625"/>
    <polyline points="691.0,446.375 691.75,447.5 692.125,449.0 691.75,450.75 691.0,452.875 687.625,458.0 678.75,467.375 666.5,477.625 652.75,487.375 643.375,493.125 638.75,495.625 625.5,502.125 617.25,505.375 609.75,507.875"/>
    <polyline points="606.125,508.875 593.5,511.25 585.5,511.875 578.625,511.875 568.0,510.5 561.75,508.625 558.125,507.0"/>
    <polyline points="557.5,506.625 554.875,504.5 553.75,501.75 554.125,499.875 555.25,497.75 558.5,494.5"/>
    <polyline points="559.25,493.875 564.625,489.875 575.25,483.375 598.875,470.625"/>
    <polyline points="601.75,469.25 622.625,458.75 646.375,447.625 677.625,434.25 692.125,428.625 707.0,423.5 721.375,419.625 727.75,418.375 733.375,418.0 738.0,418.375"/>
    <polyline points="741.125,419.875 742.75,422.5 742.5,426.375 740.375,431.375 736.375,437.625 730.75,444.875 723.375,453.0 715.0,461.5 705.625,470.375 685.5,487.875 665.5,503.875 656.0,510.875 638.375,522.75 630.25,527.625 615.875,535.375 609.375,538.375 597.625,542.875 587.375,545.75 578.375,547.375"/>
    <polyline points="574.25,547.875 563.125,548.25 553.375,547.75 544.875,546.875 522.125,543.625 510.75,542.75"/>
    <polyline points="509.0,542.625 502.0,542.5 491.875,543.0 464.25,546.5"/>
    <polyline points="506.875,542.75 498.375,542.625 490.0,543.125 459.875,547.0 450.5,547.75 442.5,547.875 436.625,547.625 430.25,547.0 423.25,545.875 415.5,544.0 411.25,542.625 402.0,539.25 397.0,537.0 385.75,531.125 372.875,522.875 365.875,517.625"/>
    <polyline points="358.25,511.625 350.125,504.625 341.625,496.5 332.5,487.375 323.125,476.875 313.625,465.25 304.0,452.375 294.75,438.5 286.125,424.0 278.75,409.125 273.125,394.75 269.875,381.375 269.375,369.875 272.125,361.125 278.0,355.75 286.75,353.875 298.0,355.5 311.0,360.5 325.125,368.0 339.5,377.375 353.75,388.0 367.25,399.0 379.875,410.125 391.375,420.875 411.0,440.0"/>
    <polyline points="419.125,448.25 438.5,467.875 448.125,477.125 456.0,483.875 465.375,490.625 473.125,494.625 479.75,496.75 485.875,497.75 491.5,498.125 496.875,497.875"/>
    <polyline points="426.875,456.125 443.875,473.125 452.5,480.875 459.625,486.625 462.75,488.875 470.875,493.5 475.625,495.5 480.0,496.75 484.125,497.5 489.875,498.0 498.875,497.75 507.25,496.75 513.75,495.625 523.5,493.25 530.0,491.25 540.0,487.625"/>
    <polyline points="541.75,487.0 558.5,479.5 571.875,472.875 601.625,457.0"/>
    <polyline points="605.625,454.875 650.375,431.25 704.0,404.5 756.25,379.875 801.375,360.5 825.375,351.25 848.5,343.875 867.625,340.25 879.5,342.625 880.5,353.0 868.875,372.375 845.5,399.875"/>
    <polyline points="813.75,432.875 744.0,502.875 713.125,535.0 687.375,563.375 667.125,587.75 651.875,608.5 641.0,625.75 633.75,640.0 629.625,651.625 627.625,660.875 627.375,667.875 628.5,673.0 630.25,676.25 632.5,677.75 634.75,677.625 637.0,676.125 638.75,673.125 640.0,669.0 640.75,663.875 640.75,657.875 640.125,651.25 639.0,644.125 634.875,629.375 632.125,621.875"/>
    <polyline points="629.125,614.625 622.25,600.75 618.5,594.375 611.0,582.75 603.375,572.75 592.375,560.375 582.125,551.0 572.875,543.875 562.125,536.875 555.125,533.0 550.875,531.0"/>
    <polyline points="548.875,530.0 535.625,524.75 525.0,521.5 518.0,520.0"/>
    <polyline points="517.25,519.875 510.125,519.125 505.125,519.25 502.375,519.625"/>
    <polyline points="501.875,519.75 496.875,520.625 486.125,523.375"/>
    <polyline points="485.375,523.625 470.75,527.0 464.375,528.0 457.0,528.625"/>
    <polyline points="455.375,528.75 448.25,528.75 440.125,528.125 433.0,527.0 425.125,525.0 419.375,523.125 413.0,520.625 402.375,515.375 394.625,510.625 386.25,504.875"/>
    <polyline points="381.75,501.375 372.5,493.5 362.875,484.125 358.0,478.875 348.625,467.375 340.0,454.875 336.25,448.375 333.125,442.125 330.625,435.875 329.0,430.125 328.125,425.0 328.375,420.5 329.625,416.875 331.875,414.125 335.125,412.5 339.375,412.0 344.375,412.5 350.125,414.125 356.375,416.5 363.125,419.625 377.0,427.625"/>
    <polyline points="384.0,432.25 410.375,451.0 436.75,470.75 453.0,481.75 465.875,489.375 471.375,492.125 476.375,494.375 485.0,497.625"/>
    <polyline points="486.875,498.125 495.5,500.375 502.625,501.5 508.875,502.0 513.375,502.0 519.5,501.375"/>
    <polyline points="520.5,501.25 526.375,500.125 531.375,498.75 540.875,495.25 546.875,492.625"/>
    <polyline points="548.125,492.0 563.25,484.875 599.625,466.5"/>
    <polyline points="603.125,464.75 640.125,446.75 675.5,430.625 702.75,419.25 722.875,411.625 733.0,408.25 742.875,405.375 752.0,403.375 760.0,402.375 766.25,402.875 770.125,405.125 771.375,409.375"/>
    <polyline points="769.5,415.625 764.5,424.0 756.625,434.25 746.25,445.875 734.0,458.375 720.5,471.375 692.625,496.625 679.125,508.125 666.375,518.625 643.625,536.25 624.875,549.375 616.75,554.375 602.75,561.875 596.625,564.625 586.0,568.375 577.0,570.5 569.125,571.375 562.0,571.5"/>
    <polyline points="558.75,571.375 552.625,570.875 529.875,567.625 519.125,566.875 509.125,567.25 501.625,568.375"/>
    <polyline points="499.75,568.875 494.125,570.375 486.875,573.25 479.75,577.125 472.75,582.125 466.125,588.625 463.125,592.625 460.25,597.25 458.0,602.625"/>
    <polyline points="457.0,605.75 456.25,609.0 455.5,616.625 456.125,625.875 457.125,631.375 458.75,637.5 461.125,644.25 464.375,652.0 468.75,660.75 474.5,670.625 481.875,681.875 491.25,694.625 503.0,708.875 517.625,724.875 535.375,742.375 556.625,761.25 581.5,780.625 609.875,799.25 640.75,815.5 672.75,827.125 703.5,831.375 730.5,826.625 751.375,811.875 765.125,787.875"/>
    <polyline points="771.375,756.875 771.5,722.0 767.0,686.125 760.0,651.5 751.75,619.625 743.5,591.375 735.75,567.0 723.125,529.0 714.25,503.125 710.75,493.875 705.375,480.875 703.0,476.75 700.625,473.75 698.125,472.0 695.5,471.0 692.75,470.875 689.625,471.375 686.375,472.375 679.0,475.75 666.375,482.625"/>
    <polyline points="661.875,485.0 648.125,492.25 634.875,498.5 626.375,501.875 614.875,505.75 601.5,508.75 595.625,509.5 590.375,510.0 583.375,510.0 577.5,509.5"/>
    <polyline points="575.75,509.375 571.125,508.5 567.25,507.375 562.625,505.375 560.75,504.0 559.5,502.625 558.75,500.75 559.0,498.625"/>
    <polyline points="559.125,498.125 560.875,495.375 564.875,491.625 572.375,486.375 583.25,479.875"/>
    <polyline points="585.25,478.75 604.625,468.5 629.875,456.0 667.125,439.5 687.0,431.625"/>
    <polyline points="694.0,429.0 701.125,426.625 714.75,422.75 721.0,421.5 726.625,420.75 731.25,420.875 734.875,421.75 737.125,423.75 737.75,426.75 736.75,430.875 734.0,436.125 729.625,442.375 723.75,449.375 716.5,457.0 708.375,465.125 699.375,473.375 680.5,489.5 661.75,503.875 652.75,510.25 636.25,521.125 621.5,529.375"/>
    <polyline points="614.75,532.625 608.625,535.375 597.25,539.5 587.375,542.0 574.5,544.0 567.0,544.375 557.125,544.125 545.875,543.0 527.5,540.25"/>
    <polyline points="525.625,540.0 516.375,538.875 506.25,538.25 496.875,538.375 484.25,539.5"/>
    <polyline points="482.625,539.625 466.875,541.625 452.0,542.75 442.0,542.625 433.375,541.75 427.0,540.625"/>
    <polyline points="423.5,539.875 416.125,537.875 407.875,535.0 398.625,530.875 388.25,525.125 376.5,517.5 370.125,512.75 356.25,501.125 341.0,486.125 333.0,477.25 324.875,467.5 316.875,456.875 309.125,445.625 301.875,433.75 295.625,421.625 290.625,409.875 287.375,398.625 286.125,388.75 287.125,380.625"/>
    <polyline points="290.5,374.875 296.375,371.5 304.25,371.0 313.875,373.0 324.875,377.25 336.625,383.5 348.625,391.0 360.5,399.5 372.125,408.5 383.0,417.5 411.125,442.375 432.25,461.875 448.125,475.5 460.25,484.5 467.0,488.625 472.875,491.625"/>
    <polyline points="475.625,492.875 485.375,495.875 495.75,497.25 503.25,497.25 510.25,496.625 516.875,495.625 523.375,494.125"/>
    <polyline points="525.0,493.75 533.25,491.375 547.0,486.25 558.625,481.125 572.25,474.5"/>
    <polyline points="574.75,473.25 634.5,442.625 665.5,427.25 698.5,411.625 742.625,391.875"/>
    <polyline points="759.875,384.625 777.75,377.75 795.75,371.5 812.5,366.75 826.5,364.625 835.875,366.25 838.75,372.875 834.0,384.875 821.25,402.375 802.0,424.125 778.25,448.75 703.375,522.25 664.75,561.125 650.0,576.625 628.375,600.5 620.75,609.375 604.125,630.0 600.5,633.875"/>
    <polyline points="599.25,634.625 598.25,634.75 597.375,634.25 595.625,632.125 587.25,616.375 581.875,608.375 578.0,603.25 573.75,598.375 567.0,591.75 557.875,584.375"/>
    <polyline points="555.5,582.875 546.375,577.625 542.0,575.625 535.5,573.25 529.125,571.625 521.0,570.5 513.25,570.375 507.75,571.0 504.0,571.75"/>
    <polyline points="502.25,572.125 496.875,573.75 489.875,576.875 483.25,581.125 477.0,586.75 472.75,592.25 469.25,598.875 467.5,604.375 466.5,610.75"/>
    <polyline points="466.25,614.5 466.875,622.875 469.25,633.25 471.25,639.25 477.75,653.375 482.375,661.75 488.375,671.0 495.75,681.5 504.875,693.0 516.0,705.75 529.5,719.625 545.375,734.5 564.0,750.0 585.25,765.5 608.75,780.0 633.875,792.25 659.625,800.75 684.25,803.875 706.25,800.25 724.0,789.5 736.625,771.75 743.625,748.5 745.75,721.5"/>
    <polyline points="743.875,692.625 739.125,663.875 732.75,636.5 725.625,611.375 711.375,569.25 699.25,538.0 689.75,515.75 682.5,500.625 676.75,490.625 674.25,487.125 669.625,482.5 667.5,481.0 665.375,480.0 661.0,479.25 656.625,479.5 649.875,481.25"/>
    <polyline points="647.5,482.0 631.25,487.875 618.625,491.375 613.25,492.375 608.5,492.875 604.5,492.875 601.375,492.5"/>
    <polyline points="600.375,492.25 598.25,491.5 596.375,490.0 595.875,488.625 596.125,487.0 596.625,485.75 598.125,483.75 600.25,481.625 604.5,478.375"/>
    <polyline points="605.75,477.5 613.375,472.625 631.125,463.375 648.875,455.625 662.125,450.625 668.875,448.625"/>
    <polyline points="672.125,447.625 678.25,446.25 685.875,445.75 687.75,446.125 689.125,446.75 690.125,447.625 690.625,448.875 690.625,450.5 690.125,452.375 687.375,457.125 682.5,462.75 676.0,469.125 668.0,475.75 659.375,482.25 650.25,488.375 641.125,493.75"/>
    <polyline points="636.625,496.125 628.0,500.375 619.75,503.75 608.625,507.5 598.875,509.625 590.375,510.75 580.875,511.0 575.0,510.5 567.25,509.125"/>
    <polyline points="566.0,508.75 560.125,506.375 556.875,503.75 556.125,502.375 555.875,500.5 557.25,497.375"/>
    <polyline points="557.625,496.875 559.75,494.5 566.625,489.25 577.5,482.5 587.0,477.25"/>
    <polyline points="589.125,476.125 618.625,461.0 646.0,448.125 669.875,437.75 690.75,429.625 705.25,424.625"/>
    <polyline points="712.375,422.5 719.25,420.75 725.5,419.625 731.125,419.125 735.625,419.5 738.875,420.75 740.625,423.25 740.625,426.875 738.75,431.625 735.125,437.5 729.75,444.5 723.0,452.125 706.0,469.0 686.5,486.0 676.625,494.125 657.5,508.625 640.0,520.5 624.5,529.625 617.5,533.25 604.875,538.75"/>
    <polyline points="599.125,540.875 588.875,543.875 584.125,544.875 575.5,546.125 567.875,546.625 561.0,546.625 551.625,546.0 521.375,541.875"/>
    <polyline points="519.375,541.625 507.0,540.75 500.25,540.75 488.75,541.5 476.75,543.0"/>
    <polyline points="474.875,543.25 456.75,545.25 449.625,545.625 438.875,545.375 432.75,544.875 422.625,543.125 414.875,541.0 406.25,538.0"/>
    <polyline points="401.5,536.0 391.125,530.875 379.375,523.875 372.875,519.375 366.0,514.125 358.625,508.125 350.875,501.25 334.125,484.5 325.375,474.5 316.375,463.5 307.5,451.375 299.0,438.5 291.25,425.125 284.75,411.5 279.875,398.375 277.125,386.25 276.875,376.0 279.375,368.125 284.75,363.125 292.75,361.375 303.0,362.625 314.875,366.875 327.75,373.375"/>
    <polyline points="341.125,381.75 354.375,391.25 367.125,401.25 379.125,411.5 400.375,430.75 437.5,466.5 447.5,475.625 451.875,479.25 459.375,485.125 468.75,491.0 476.625,494.5 481.25,495.875 485.625,496.75"/>
    <polyline points="487.625,497.125 495.375,497.625 507.875,496.75 514.5,495.625 522.625,493.75 530.875,491.375"/>
    <polyline points="532.5,490.75 544.5,486.375 553.875,482.25 564.25,477.375 584.625,466.875"/>
    <polyline points="587.75,465.375 637.0,439.5 669.75,423.0 720.75,398.5 737.625,390.875 776.25,374.0 797.375,365.625 818.5,358.125 837.875,352.875"/>
    <polyline points="853.125,351.25 861.625,355.0 860.75,365.625 849.5,383.625 828.75,408.0 801.125,436.75 740.0,497.75 712.125,526.0 688.0,551.25 668.125,573.125 652.5,591.875 640.5,607.5 631.5,620.5 625.25,631.0 621.0,639.625 618.375,646.25 617.0,651.25 616.5,654.875 616.625,657.25 617.125,658.25 617.75,658.25 618.5,657.375 619.0,655.5 619.375,649.75"/>
    <polyline points="619.0,645.875 617.375,637.125 614.375,627.375 612.375,622.25 607.75,612.25 602.25,602.625 596.375,593.75 587.0,582.125 577.625,572.5 574.625,569.75 565.625,562.625 554.625,555.375"/>
    <polyline points="552.0,554.0 544.5,550.25 539.75,548.25 529.0,544.625 523.125,543.125 514.0,541.625 507.125,541.0 502.125,540.875"/>
    <polyline points="500.5,540.875 489.0,541.5 461.5,544.875 454.875,545.375"/>
    <polyline points="452.5,545.5 439.375,545.5 430.125,544.5 423.25,543.25 415.5,541.25 407.0,538.375 392.125,531.5 386.5,528.25 374.0,520.25 359.875,509.25 344.125,494.875 335.625,486.125"/>
    <polyline points="326.875,476.375 317.875,465.5 309.0,453.5 300.375,440.75 292.5,427.375 285.75,413.75 280.5,400.5 277.375,388.25 276.625,377.625 278.75,369.25 283.625,363.75 291.25,361.375 301.125,362.125 312.75,365.875 325.5,372.125 338.75,380.25 352.125,389.5 365.0,399.5 377.125,409.75 398.75,429.25 436.5,465.625"/>
    <polyline points="441.875,470.625 451.125,478.75 458.875,484.75 465.375,489.125 473.75,493.375 476.25,494.375 483.125,496.375 491.25,497.5 497.0,497.625 505.875,497.0"/>
    <polyline points="507.5,496.75 515.875,495.375 527.25,492.5 540.625,487.875 549.625,484.125"/>
    <polyline points="551.5,483.25 557.5,480.625 573.25,472.875 629.625,443.375"/>
    <polyline points="635.875,440.125 678.375,418.75 703.25,406.75 734.375,392.25 772.5,375.5 793.5,367.125 814.75,359.375 834.75,353.5 851.0,351.125 860.875,353.75 861.75,363.125 852.375,379.75 833.125,403.125 806.625,431.375 716.875,521.125 692.0,547.0 671.375,569.5"/>
    <polyline points="655.0,588.75 642.375,605.0 633.0,618.375 626.25,629.375 621.75,638.25 618.875,645.25 617.25,650.625 616.625,654.5 616.75,657.0 617.125,658.25 617.75,658.5 618.5,657.75 619.0,656.0 619.5,650.375 618.625,642.5 617.75,638.0 616.375,633.125 612.875,623.125 608.25,613.125 605.625,608.125 600.0,598.875"/>
    <polyline points="597.0,594.5 590.75,586.375 584.5,579.125 578.25,572.875 572.125,567.5 566.25,562.875 560.5,558.875 555.125,555.625 547.375,551.5 542.625,549.25 533.625,545.875 529.5,544.625"/>
    <polyline points="527.5,544.125 518.0,542.0 507.5,540.875 496.0,540.875 484.5,541.875"/>
    <polyline points="482.75,542.125 460.0,544.875 448.25,545.5 443.0,545.5 434.375,544.875 424.375,543.25"/>
    <polyline points="420.75,542.5 412.75,540.125 403.875,536.875 393.875,532.125 382.5,525.625 369.5,516.625 354.875,504.625 347.0,497.375 338.625,489.0 330.0,479.5 321.125,469.125 312.25,457.5 303.625,445.125 295.5,432.0 288.25,418.5 282.5,405.125 278.75,392.625 277.125,381.375 278.25,372.25 282.25,365.75"/>
    <polyline points="288.875,362.375 298.0,362.125 309.0,364.875 321.375,370.25 334.5,377.75 347.75,386.625 360.75,396.375 373.125,406.5 384.625,416.5 404.875,435.125 434.5,463.625 449.625,477.375 457.625,483.75 464.375,488.375 470.25,491.625 475.375,494.0"/>
    <polyline points="477.875,494.875 482.375,496.125 486.75,496.875 492.75,497.5 498.25,497.5 501.875,497.375 510.5,496.375 517.125,495.125 523.625,493.5"/>
    <polyline points="525.25,493.125 535.125,490.0 545.5,486.0 557.0,480.875 572.625,473.125"/>
    <polyline points="575.25,471.875 622.75,447.0 666.0,425.0 714.625,401.5 748.5,386.125"/>
    <polyline points="767.875,377.75 788.5,369.25 809.625,361.5 829.75,355.25 846.625,352.125 858.0,353.625 860.875,361.375 853.75,376.375 836.75,398.125 811.75,425.25 782.25,455.125 722.75,514.375 697.125,540.625 675.75,563.75 658.375,583.5 644.875,600.25 634.75,614.125 627.375,625.625 622.25,634.875 618.875,642.25 616.875,647.875 615.875,652.0 615.625,654.875 615.875,656.5 616.25,657.0"/>
    <polyline points="616.875,656.5 617.75,653.0 617.625,646.75 617.125,642.875 615.125,634.125 611.875,624.5 605.0,609.875 596.625,596.375 590.625,588.375 581.375,578.0 575.25,572.125 566.375,564.875"/>
    <polyline points="563.5,562.75 557.875,559.125 547.5,553.25 535.75,548.375 525.25,545.25 517.625,543.75 508.625,542.75"/>
    <polyline points="459.625,546.875 447.75,547.75 436.375,547.5 430.0,546.875 423.0,545.625 415.25,543.75 406.5,540.875 396.625,536.625 391.125,533.875 379.125,526.875 365.375,517.125 357.75,511.0"/>
    <polyline points="349.625,504.0 341.0,495.875 332.0,486.5 322.625,476.0 313.125,464.375 303.5,451.5 294.375,437.625 285.875,423.125 278.625,408.375 273.25,394.0 270.125,380.75 269.875,369.5 272.75,361.0 278.75,355.875 287.75,354.25 299.0,356.125 312.125,361.125 326.25,368.75 340.625,378.25 354.75,388.875 368.125,399.875 380.625,410.875 392.0,421.5 419.625,448.75"/>
    <polyline points="500.625,497.625 509.125,496.5 522.125,493.625 531.875,490.625 542.0,486.875"/>
    <polyline points="543.75,486.125 554.875,481.25 565.25,476.25 606.375,454.5"/>
    <polyline points="610.5,452.25 637.25,438.125 670.0,421.375 722.5,395.75 760.125,378.25 782.125,368.625 805.625,359.0 829.5,350.125 851.875,343.375 869.875,340.75 879.75,344.5 878.375,356.625 864.5,377.5 839.375,406.0 806.75,439.5"/>
    <polyline points="771.625,474.75 737.75,508.875 707.875,540.125 683.25,567.625 664.0,591.25 649.5,611.125 639.375,627.75 632.625,641.5 628.75,652.5 627.125,661.25 627.0,668.0 628.125,672.75 629.875,675.625 632.125,676.875 634.25,676.625 636.375,674.875 638.0,671.875 639.125,667.625 639.75,662.5 639.625,656.5 639.0,649.875 637.75,642.875 635.875,635.625 630.875,621.0 627.75,613.875"/>
    <polyline points="624.5,606.875 617.25,594.0 609.75,582.625 602.25,572.75 591.25,560.625 581.125,551.375 569.125,542.375 561.25,537.5 554.125,533.625 548.0,530.75"/>
    <polyline points="546.0,529.875 537.5,526.5 527.0,523.125 521.75,521.875 515.75,520.875"/>
    <polyline points="514.875,520.75 510.0,520.25 506.75,520.25 498.75,521.125"/>
    <line x1="498.125" x2="478.75" y1="521.25" y2="525.75"/>
    <polyline points="477.75,526.0 466.125,528.125 457.25,529.0 448.375,529.125 440.25,528.5"/>
    <polyline points="437.875,528.125 428.0,526.125 422.375,524.5 416.25,522.25 409.5,519.375 402.25,515.625 390.25,508.125 381.375,501.625 376.75,497.75 372.0,493.625 362.25,484.125 352.5,473.0 343.25,460.75"/>
    <polyline points="339.125,454.25 335.375,447.75 332.125,441.375 329.625,435.125 328.0,429.25 327.25,424.0 327.5,419.5 328.75,415.75 331.125,413.125 334.5,411.625 338.875,411.125 344.0,411.75 349.875,413.375 356.375,415.875 370.125,423.125 377.25,427.5 391.375,436.875 432.75,467.625"/>
    <polyline points="437.375,471.0 453.625,482.0 463.5,487.875 472.0,492.25 479.25,495.375 485.5,497.625 492.75,499.625 500.5,501.0"/>
    <polyline points="501.875,501.25 508.375,501.75 515.125,501.625 522.375,500.75 529.5,499.0"/>
    <polyline points="530.5,498.75 543.75,493.875 562.5,485.125"/>
    <polyline points="564.25,484.25 613.375,459.5 650.75,441.75"/>
  </g>
</svg>
