<?xml version="1.0" encoding="utf-8" ?>
<svg xmlns="http://www.w3.org/2000/svg" xmlns:cc="http://creativecommons.org/ns" xmlns:dc="http://purl.org/dc/elements/1.1/" xmlns:ev="http://www.w3.org/2001/xml-events" xmlns:inkscape="http://www.inkscape.org/namespaces/inkscape" xmlns:rdf="http://www.w3.org/1999/02/22-rdf-syntax-ns" xmlns:sodipodi="http://sodipodi.sourceforge.net/DTD/sodipodi-0.dtd" xmlns:xlink="http://www.w3.org/1999/xlink" baseProfile="tiny" height="27.09333333cm" version="1.2" viewBox="0 0 1024.0 1024.0" width="27.09333333cm">
  <metadata>
    <rdf:RDF>
      <cc:Work>
        <dc:format>image/svg+xml</dc:format>
        <dc:source>vpype read './original_svgs/Strange Attractors #39.svg' linemerge linesimplify write './Strange Attractors #39.svg'
</dc:source>
        <dc:date>2024-08-05T01:35:20.558643</dc:date>
      </cc:Work>
    </rdf:RDF>
  </metadata>
  <defs/>
  <g fill="none" id="layer1" inkscape:groupmode="layer" inkscape:label="1" stroke="black" stroke-width="0.7mm" style="display:inline">
    <polyline points="676.5,864.5 662.875,828.875 681.375,798.875 728.5,768.5 799.875,730.875 885.375,680.625 965.75,617.625 1017.0,550.75 1024.0,510.9652"/>
    <polyline points="1024.0,490.3048 1003.5,459.5 966.75,446.0 932.375,449.5 908.25,464.625 895.875,487.875 893.0,517.125 896.125,550.75 900.875,586.75 903.0,622.25 899.0,654.25 887.25,679.5 868.125,696.25 843.75,703.875 817.25,704.0 791.125,698.375 767.5,689.25 747.5,678.375"/>
    <polyline points="731.25,666.875 718.75,655.5 709.5,644.75 703.0,634.75 698.625,625.5 695.875,617.0 694.125,609.125 691.75,588.75 690.75,582.875 689.25,577.5 687.375,572.625 684.875,568.25 681.875,564.25 678.25,560.625 674.25,557.5 665.25,552.25 660.25,550.0 655.25,548.125 644.875,544.875 629.5,541.25"/>
    <polyline points="624.625,540.125 580.375,530.875 561.375,526.0 547.625,522.0"/>
    <polyline points="546.0,521.5 531.5,516.625 522.875,513.0"/>
    <polyline points="522.375,512.75 519.0,511.0 516.25,508.625 515.125,506.75 514.75,505.5 514.5,502.125"/>
    <line x1="514.5" x2="515.375" y1="501.875" y2="491.75"/>
    <line x1="515.375" x2="517.375" y1="491.125" y2="471.125"/>
    <polyline points="517.375,470.0 517.75,462.75 517.625,450.75 517.125,443.75 516.125,435.75 514.75,429.125"/>
    <polyline points="514.25,426.875 512.125,419.375 510.25,414.125 507.875,408.375 504.875,402.375 501.125,396.125 496.5,389.375 487.625,378.875 484.0,375.25 475.75,368.0 465.875,361.0 454.5,354.375 441.5,348.875"/>
    <polyline points="434.625,346.75 427.5,345.125 420.25,344.0 413.0,343.75 405.875,344.25 399.125,345.75 392.75,348.125 387.0,351.5 382.0,355.875 377.875,361.125 374.625,367.375 372.5,374.25 371.375,381.75 371.25,389.75 372.0,397.875 373.625,406.25 376.0,414.375 379.0,422.5 382.375,430.25 386.25,437.625 390.25,444.625 394.5,451.125 403.125,462.75 411.75,472.5"/>
    <polyline points="416.0,476.75 424.0,484.125 427.875,487.25 441.75,497.375 453.25,504.375 475.625,515.875 479.75,518.25"/>
    <polyline points="481.125,518.875 485.625,521.625 490.75,525.5 495.0,530.125 496.75,532.875 498.125,535.875"/>
    <polyline points="498.375,536.625 499.75,541.5 500.625,548.125 501.25,562.375"/>
    <polyline points="501.25,563.75 502.125,577.875 504.125,589.375 506.0,595.625 508.875,602.375 511.625,607.0 515.25,611.75"/>
    <polyline points="517.5,614.25 522.875,619.0 526.25,621.375 534.375,625.875 539.375,628.0 545.125,629.875 551.625,631.5 559.125,632.875 567.5,633.875 577.0,634.375 587.75,634.375 599.625,633.625 612.75,632.0 626.875,629.375 642.0,625.625 657.75,620.625 673.625,614.375 689.125,607.0 703.5,598.625 716.0,589.5 726.0,580.0 733.125,570.625 737.125,561.625 738.0,553.375"/>
    <polyline points="736.0,546.25 731.625,540.375 725.5,535.625 718.125,531.875 710.0,529.125 701.5,527.0 693.0,525.5 676.75,523.75 649.0,521.625 632.75,519.75 619.625,517.125 612.25,514.875 603.0,511.25 597.75,508.5"/>
    <polyline points="595.375,507.125 589.0,502.625 585.5,499.625 581.0,494.75 578.5,491.5 576.375,488.125 573.875,482.875 572.125,477.5 570.75,469.875 570.5,463.875"/>
    <polyline points="570.625,461.875 571.125,455.5 573.5,444.25 576.875,434.625 581.875,424.625 587.0,417.0 591.25,412.0 596.375,407.25 602.625,402.875"/>
    <polyline points="606.25,400.875 610.375,399.125 615.0,397.75 620.25,396.625 626.125,396.0 632.75,395.875 640.375,396.625 649.125,398.25 659.125,401.0 670.75,405.25 684.125,411.375 699.375,419.75 716.875,431.0 736.625,445.625 758.5,464.25 782.0,487.25 806.125,515.0 829.125,546.75 848.5,581.25 861.625,616.25 866.125,648.5 860.625,674.75 845.875,692.875 824.25,702.25 799.0,703.625 773.0,699.25"/>
    <polyline points="748.75,690.875 727.5,680.625 709.875,669.75 695.875,659.0 685.25,648.875 677.75,639.625 672.625,631.25 669.5,623.625 668.0,616.625 667.625,610.25 668.0,604.25 671.0,588.5 672.125,579.25 672.0,575.125 671.375,571.25 670.125,567.625 668.25,564.25 665.875,561.25 663.0,558.5 659.75,556.0 656.0,553.875 652.125,551.875 647.875,550.125"/>
    <polyline points="643.625,548.5 625.625,543.625 556.5,530.625"/>
    <polyline points="554.375,530.25 545.375,528.75 535.625,527.625 528.5,527.5 523.875,528.125"/>
    <polyline points="523.25,528.375 520.25,529.375 518.25,530.625 516.125,532.5 513.75,535.875 512.625,538.25"/>
    <polyline points="512.375,538.875 510.625,544.0 509.25,550.25 507.875,563.0"/>
    <polyline points="507.75,564.375 507.75,571.75 508.5,580.125 509.125,583.75 511.25,591.5 513.875,597.75 516.375,602.125 519.75,606.625 524.0,611.0"/>
    <polyline points="526.625,613.25 529.5,615.5 536.75,619.75 546.125,623.5 551.625,625.125 558.0,626.5 565.125,627.625 573.125,628.375 582.125,628.75 592.0,628.5 602.875,627.625 614.75,625.875 627.5,623.375 640.75,620.0 654.5,615.5 668.25,610.0 681.5,603.625 693.875,596.375 704.625,588.625 713.25,580.5 719.625,572.375 723.375,564.5 724.625,557.25 723.5,550.875"/>
    <polyline points="720.25,545.25 715.375,540.625 709.125,536.875 702.25,534.0 694.75,531.625 687.0,529.875 671.875,527.375 633.25,522.875 618.625,520.25 610.375,518.25 603.0,515.875 593.625,512.125 588.25,509.375"/>
    <polyline points="585.875,508.0 579.375,503.625 572.375,497.625 568.25,492.875 564.875,488.0 562.25,482.875 559.625,475.75 557.75,466.25"/>
    <polyline points="557.5,464.25 557.0,458.0 557.0,448.875 557.5,439.0 560.375,405.375 560.75,394.0"/>
    <polyline points="560.75,389.875 560.0,376.375 558.5,366.25 557.375,360.75 553.75,348.75 551.25,342.0 547.875,334.875 543.75,327.25 538.5,318.875 531.875,309.875 523.75,300.0 513.625,289.25 501.0,277.625 485.5,265.125 466.5,251.875 443.625,238.25 416.375,225.0 384.875,213.0 349.875,204.25 312.875,200.875 276.625,205.5 244.875,220.0"/>
    <polyline points="221.125,245.0 207.625,279.25 204.875,319.5 210.75,361.875 222.5,402.625 237.125,439.375 252.125,470.875 266.0,496.75 278.125,517.25 288.25,533.125 296.375,544.875 302.875,553.25 308.0,558.75 312.25,561.75 316.0,563.0 319.375,562.5 322.625,560.75 326.125,558.0 343.375,541.375 348.625,536.75 354.125,532.125 365.875,523.375"/>
    <polyline points="371.875,519.5 383.875,512.5 395.375,507.0 411.375,501.0 421.0,498.5 433.625,496.125 447.75,495.125 459.25,495.5 470.625,496.875"/>
    <polyline points="472.625,497.125 494.75,501.375 500.5,502.125"/>
    <polyline points="501.0,502.125 503.125,502.25 506.0,501.875 508.5,500.875 509.875,499.625"/>
    <polyline points="510.125,499.5 511.625,497.25 512.25,495.75 514.0,489.875"/>
    <polyline points="514.125,489.25 516.0,477.75 516.875,468.5"/>
    <polyline points="516.875,467.375 517.25,453.75 516.625,443.5 514.75,431.25 513.125,424.25"/>
    <polyline points="512.375,421.75 509.625,414.0 507.25,408.375 504.25,402.375 500.5,396.125 495.875,389.5 490.25,382.625 483.375,375.5 479.375,371.875 475.125,368.375 465.375,361.375 454.0,355.0 447.75,352.125 441.25,349.625 434.5,347.5 427.375,346.0"/>
    <polyline points="420.375,345.0 413.25,344.75 406.25,345.375 399.625,346.75 393.375,349.25 387.75,352.625 382.875,356.875 378.875,362.125 375.75,368.25 373.625,375.0 372.5,382.375 372.375,390.125 373.25,398.25 374.75,406.375 377.125,414.5 380.0,422.375 383.375,430.0 387.125,437.25 395.25,450.625 399.5,456.5 408.125,467.125 416.5,476.0 420.5,479.75"/>
    <polyline points="424.5,483.25 435.375,491.875 442.0,496.5 448.0,500.25 458.5,506.25 482.625,518.625"/>
    <polyline points="483.75,519.375 488.75,522.625 493.75,527.0 496.75,530.875 499.0,535.75"/>
    <polyline points="499.25,536.5 500.0,538.875 501.0,545.0 501.5,553.25 501.625,562.0"/>
    <polyline points="501.75,563.375 501.875,569.25 502.5,577.375 503.25,582.875 505.0,590.75 506.25,595.0 509.125,601.625 511.75,606.25 515.25,611.0"/>
    <polyline points="517.375,613.5 519.875,615.875 525.875,620.625 533.875,625.125 538.75,627.125 544.25,629.125 550.625,630.875 557.75,632.25 566.0,633.375 575.25,634.0 585.625,634.0 597.125,633.375 609.875,632.0 623.75,629.625 638.5,626.125 654.0,621.5 669.75,615.625 685.25,608.5 699.75,600.5 712.625,591.5 723.125,582.25 730.875,572.75 735.5,563.75 737.0,555.5"/>
    <polyline points="735.75,548.125 732.0,542.0 726.25,536.875 719.25,533.0 711.375,530.0 703.0,527.75 694.5,526.125 686.25,525.0 644.125,521.375 628.75,519.25 620.125,517.375 612.625,515.25 603.125,511.625 597.75,509.0"/>
    <polyline points="595.25,507.5 588.875,503.125 583.625,498.5 579.25,493.625 575.875,488.625 572.625,481.625 571.375,478.0 570.0,470.5 569.625,464.5"/>
    <polyline points="569.625,462.375 570.25,453.875 571.5,447.125 574.25,437.625 577.125,430.125 581.0,422.375 586.0,414.5 592.5,406.625 598.125,401.75"/>
    <polyline points="601.25,399.5 608.875,395.375 613.375,393.75 618.375,392.375 624.125,391.5 630.625,391.125 638.125,391.5 646.75,392.75 656.625,395.125 668.125,399.0 681.375,404.75 696.75,412.75 714.375,423.625 734.5,438.0 757.125,456.5 781.75,479.875 807.375,508.25 832.375,541.375 854.125,578.125 869.5,615.75 875.625,650.875 870.75,679.875 855.625,699.875 832.625,710.25 805.625,711.875"/>
    <polyline points="778.0,706.875 752.375,697.875 730.25,686.75 712.25,675.0 698.25,663.5 688.125,652.75 681.25,643.0 677.125,634.0 675.0,625.875 674.625,618.375 675.25,611.375 676.625,604.875 681.625,587.125 682.625,581.75 683.0,576.75 682.75,572.125 681.625,567.75 679.75,563.875 677.25,560.25 674.125,557.125 670.375,554.25 666.125,551.75 661.625,549.5 656.875,547.625"/>
    <polyline points="652.0,545.875 641.875,543.0 631.75,540.625 585.25,531.375 572.875,528.5 558.0,524.5"/>
    <polyline points="556.0,523.875 538.375,518.25 526.0,513.25"/>
    <polyline points="525.5,512.875 523.75,512.125 520.75,510.25 518.75,508.625 517.125,506.625"/>
    <polyline points="517.0,506.375 516.25,505.125 515.625,502.875 515.375,498.75"/>
    <polyline points="515.375,498.375 515.5,493.875 516.375,484.625"/>
    <polyline points="516.5,483.875 517.625,469.75 517.875,456.625"/>
    <polyline points="517.875,455.125 517.75,450.25 516.75,439.125 515.75,432.875 513.5,423.625 512.0,418.5 510.0,413.125 507.5,407.375 502.5,398.125"/>
    <polyline points="500.5,394.875 495.75,388.125 489.875,381.125 486.5,377.625 478.625,370.375 469.375,363.125 464.125,359.625 458.375,356.375 452.375,353.25 445.875,350.375 439.125,347.875 432.125,345.875 425.0,344.375 417.625,343.625 410.375,343.625 403.375,344.5 396.625,346.25 390.5,349.0 384.875,352.75 380.125,357.375 376.375,363.125 373.5,369.5"/>
    <polyline points="371.75,376.75 371.0,384.375 371.125,392.5 372.25,400.75 374.125,409.125 376.75,417.25 379.875,425.25 383.5,433.0 387.375,440.25 395.875,453.375 400.25,459.25 408.875,469.625 417.375,478.25 421.375,482.0 429.125,488.5 436.25,493.875 442.75,498.25 451.5,503.5"/>
    <polyline points="454.125,505.0 480.25,518.625 484.875,521.375 491.0,526.0"/>
    <polyline points="491.625,526.625 494.625,530.0 497.875,535.75 499.125,539.75 500.25,546.0"/>
    <polyline points="500.375,547.0 501.375,569.375 502.5,581.25"/>
    <polyline points="502.75,583.125 503.5,587.0 505.75,595.25 507.5,599.75 509.875,604.375 512.875,609.0 517.0,613.875 519.375,616.25 525.5,621.0 529.25,623.375 538.375,627.625 544.0,629.625 550.375,631.375 557.625,632.75 565.875,633.875 575.25,634.5"/>
    <polyline points="585.75,634.5 597.375,633.875 610.25,632.375 624.375,630.0 639.375,626.375 655.0,621.625 671.0,615.625 686.625,608.5 701.25,600.25 714.125,591.25 724.75,581.75 732.375,572.125 736.875,563.0 738.25,554.75 736.75,547.375 732.75,541.25 726.875,536.25 719.625,532.375 711.625,529.375 703.125,527.25 686.25,524.625 678.25,523.75 656.5,522.125"/>
    <polyline points="650.125,521.625 638.875,520.5 624.5,518.125 613.0,515.125 603.625,511.5 595.875,507.375 587.625,501.375 582.75,496.625 577.75,490.125"/>
    <polyline points="576.75,488.375 573.5,481.375 572.375,477.75 571.25,472.125 570.75,466.25 570.875,460.125 571.625,453.625 573.75,444.625 576.125,437.5"/>
    <polyline points="577.125,435.125 580.625,427.75 583.625,422.625 587.125,417.625 593.875,410.25 599.625,405.75 606.625,401.625 615.375,398.5 620.5,397.5 626.5,396.875 633.125,396.875 640.75,397.625 649.625,399.375 659.625,402.25 671.25,406.5 684.5,412.75 699.75,421.125"/>
    <polyline points="717.25,432.375 736.875,447.125 758.5,465.625 781.75,488.625 805.5,516.0 828.125,547.5 847.125,581.625 859.875,616.0 864.125,647.625 858.625,673.5 844.0,691.25 822.75,700.5 797.75,702.0 772.125,697.625 748.125,689.5 727.0,679.375 709.5,668.625 695.5,658.125 684.75,648.125 677.0,639.0 671.75,630.75 668.5,623.125 666.75,616.25 666.125,610.0 666.25,604.125 667.0,598.75"/>
    <polyline points="667.875,593.625 669.5,584.125 669.875,579.75 669.75,575.75 669.125,571.875 668.0,568.375 666.25,565.125 664.0,562.125 661.375,559.375 654.75,554.75 651.0,552.75 647.0,551.0 638.5,548.0 621.0,543.625 596.75,539.0"/>
    <polyline points="593.125,538.375 554.625,531.75 545.5,530.5 537.0,529.875"/>
    <polyline points="535.75,529.75 529.375,530.0 524.5,531.0 520.625,532.75 519.0,533.875 517.125,535.75"/>
    <polyline points="516.75,536.25 514.75,539.0 512.5,544.0 510.75,550.0 509.625,556.375"/>
    <polyline points="509.5,557.5 508.875,563.875 508.75,571.125 509.25,577.625 510.0,582.875 512.0,590.625 515.75,598.875"/>
    <polyline points="517.0,601.0 520.125,605.375 524.25,609.875 529.625,614.25 536.5,618.375 545.5,622.25 556.875,625.375 563.75,626.5 571.375,627.375 580.0,627.75 589.375,627.75 599.875,627.0 611.25,625.625 623.375,623.375 636.375,620.25 649.625,616.25 663.125,611.125 676.25,605.25 688.625,598.375 699.625,590.875"/>
    <polyline points="708.75,583.125 715.75,575.125 720.375,567.375 722.375,560.0 722.0,553.5 719.625,547.75 715.375,542.875 709.75,538.875 703.125,535.625 696.0,533.125 688.5,531.125 673.375,528.375 646.0,525.125 629.125,522.75 615.0,520.0 603.375,516.75"/>
    <polyline points="599.875,515.5 590.875,511.75 585.625,509.0 578.875,504.75 573.375,500.25 570.125,497.25 567.375,494.125 563.875,489.375 561.0,484.375 558.25,477.375"/>
    <polyline points="557.625,475.625 556.0,468.125 555.0,460.0 554.75,453.5 554.75,446.5 556.25,415.5"/>
    <polyline points="556.375,412.125 556.375,397.375 555.375,384.75 553.875,375.25 551.25,364.625 549.375,358.875 544.125,346.375 540.5,339.375 536.0,331.875 530.5,323.875 523.625,315.125 515.375,305.75 505.125,295.625 492.75,284.875 477.75,273.375 459.75,261.5 438.5,249.5 413.75,238.125"/>
    <polyline points="385.625,228.25 354.875,221.375 322.75,219.25 291.625,223.75 264.125,236.25 243.0,257.25 230.0,285.875 225.75,319.75 229.0,356.25 237.75,392.125 249.75,425.5 263.0,454.875 276.125,479.875 288.125,500.5 298.625,516.875 307.625,529.75 315.125,539.5 321.375,546.75 326.75,551.625 331.25,554.875 335.25,556.5 339.0,557.0 342.5,556.5 345.875,555.25 353.0,551.0"/>
    <polyline points="356.875,548.375 369.125,539.625 378.0,533.875 382.625,531.25 391.75,526.375 396.375,524.25 400.875,522.25 409.625,519.0 421.75,515.625 432.75,513.625 442.5,512.875 453.75,513.125"/>
    <polyline points="456.125,513.375 460.75,513.875 467.0,515.0 477.0,517.875 484.375,521.125 489.125,524.0 491.375,525.875"/>
    <polyline points="492.0,526.5 493.875,528.25 495.875,530.875 497.5,533.625 499.625,539.75 500.5,545.125"/>
    <polyline points="500.625,546.125 501.125,553.5 501.5,568.0 502.5,579.5"/>
    <polyline points="502.75,581.375 503.75,587.125 505.375,593.25 506.875,597.625 510.25,604.5 513.375,609.125 517.375,614.0 522.75,618.75 529.875,623.375 534.25,625.625 544.75,629.625 558.625,632.75 567.0,633.75"/>
    <polyline points="576.375,634.25 586.875,634.25 598.75,633.5 611.625,632.0 625.75,629.5 640.75,625.75 656.375,621.0 672.25,614.875 687.75,607.625 702.125,599.375 714.875,590.25 725.125,580.75 732.375,571.375 736.625,562.375 737.75,554.125 736.0,546.875 731.75,540.875 725.875,536.0 718.625,532.25 710.5,529.375 702.125,527.25 685.25,524.625 662.5,522.75"/>
    <polyline points="655.75,522.25 638.125,520.5 628.375,519.0 616.0,516.125 609.125,513.875 603.0,511.375 597.75,508.625 591.0,504.375 585.375,499.75 582.25,496.625 578.375,491.625"/>
    <polyline points="577.25,490.0 574.5,484.875 571.875,477.625 570.75,472.0 570.25,466.125 570.25,462.0 570.75,455.75 572.5,446.75 574.625,439.75"/>
    <polyline points="575.375,437.25 577.375,432.375 581.25,424.75 586.125,417.125 590.25,412.0 595.125,407.125 601.25,402.5 608.625,398.625 613.125,397.0 618.0,395.75 623.625,394.875 630.0,394.5 637.375,394.875 645.625,396.125 655.25,398.375 666.375,402.0 679.125,407.375"/>
    <polyline points="693.75,415.0 710.625,425.125 729.75,438.625 751.25,456.0 774.625,477.75 799.125,504.125 823.25,535.125 844.625,569.625 860.625,605.5 868.375,639.75 866.125,668.875 854.0,690.25 833.875,702.5 808.875,706.25 782.25,703.25 756.875,695.75 734.375,685.625 715.5,674.625 700.375,663.5 688.875,653.0 680.625,643.375 675.125,634.5 671.75,626.5 670.0,619.25 669.625,612.5 670.125,606.25"/>
    <polyline points="671.25,600.5 674.625,584.75 675.125,580.0 675.125,575.625 674.625,571.5 673.375,567.625 671.5,564.25 669.125,561.0 666.125,558.125 659.0,553.25 650.5,549.375 646.0,547.75 632.125,543.875 618.375,540.875 601.5,537.75"/>
    <line x1="597.625" x2="538.375" y1="537.0" y2="525.25"/>
    <polyline points="537.125,525.0 529.75,524.0 523.625,523.875 520.75,524.375 518.5,525.125"/>
    <polyline points="518.0,525.25 514.875,527.5 512.375,531.375 511.125,534.375"/>
    <polyline points="511.0,535.0 508.875,543.25 507.125,555.875"/>
    <polyline points="507.0,557.125 506.625,569.125 507.125,577.25 507.875,582.625 508.625,586.375 510.375,592.375 513.125,598.625"/>
    <polyline points="514.375,600.875 519.0,607.625 526.125,614.375 529.125,616.625 532.625,618.75 541.125,622.875 552.0,626.25 558.625,627.75 574.25,629.5 583.625,629.75 593.875,629.375 605.125,628.25 617.5,626.375 630.625,623.625 644.375,619.875 658.5,615.125 672.5,609.25 685.875,602.5 698.25,594.875"/>
    <polyline points="708.75,586.75 717.25,578.375 723.0,570.125 726.25,562.25 726.75,555.0 725.0,548.625 721.125,543.25 715.625,538.875 709.125,535.375 701.75,532.5 694.125,530.375 678.5,527.5 632.75,522.25 618.375,519.625 606.625,516.375"/>
    <polyline points="603.125,515.125 594.0,511.375 588.75,508.625 584.125,505.75 576.5,499.75 573.375,496.625 568.25,490.125 564.5,483.375 563.0,479.875 561.875,476.25"/>
    <polyline points="561.375,474.375 560.125,468.625 559.625,464.625 559.25,458.375 559.375,449.375 560.75,434.125 563.75,413.25"/>
    <polyline points="564.125,410.0 565.625,399.25 566.75,387.5 567.25,378.75 567.25,369.375 566.5,358.875 565.75,353.25 563.0,340.875 560.75,334.0 557.875,326.5 554.125,318.5 549.25,309.75 542.875,300.125 534.75,289.625 524.375,277.875 511.125,265.0 494.5,250.875 473.625,235.5"/>
    <polyline points="447.625,219.375 416.125,203.125 378.625,188.25 336.125,177.125 290.75,173.0 246.75,179.625 209.375,200.0 184.0,234.375 173.0,280.0 175.5,331.375 187.625,382.625 204.625,429.375 222.625,469.125 239.125,501.375 252.875,526.375 263.625,545.0 271.625,558.125 277.25,566.625 281.375,571.375 284.5,572.875 287.125,571.75 290.0,568.5 297.25,557.25 308.125,542.375"/>
    <polyline points="314.875,534.5 322.5,526.625 330.5,519.0 339.0,511.75 347.625,505.125 356.125,499.0 364.625,493.625 372.75,488.875 380.5,484.75 387.875,481.25 401.375,475.875 407.375,473.875 413.0,472.25 423.125,470.0 431.875,468.75 439.5,468.25 449.25,468.375 457.375,469.0"/>
    <polyline points="459.75,469.25 473.625,471.25 482.375,472.0 488.0,471.75 491.875,470.875 494.25,469.875"/>
    <polyline points="495.0,469.5 498.375,467.125 499.5,465.875 502.25,461.375 503.625,457.625 504.375,454.5 505.0,448.375"/>
    <polyline points="505.125,447.0 505.125,442.75 504.25,434.625 502.625,427.25 501.375,423.25 498.875,416.875 495.5,410.0 491.0,402.75 487.25,397.75"/>
    <polyline points="485.125,395.125 480.25,390.0 474.625,384.875 468.125,379.875 460.875,375.375 452.75,371.25 444.0,368.125 439.5,367.0 430.25,365.875 425.75,365.875 421.25,366.375 417.0,367.375 413.0,368.875 409.375,370.875 406.125,373.5 403.25,376.625 401.0,380.25 399.125,384.25 397.875,388.625"/>
    <polyline points="397.125,393.375 397.0,398.25 397.375,403.5 398.25,408.75 401.125,419.25 403.125,424.5 405.5,429.625 408.125,434.5 413.75,443.625 416.75,447.875 423.0,455.625 432.375,465.375 438.5,470.875 444.375,475.5 457.5,484.25"/>
    <polyline points="459.875,485.625 470.375,491.0 480.5,495.125 489.375,498.0 496.0,499.375"/>
    <polyline points="496.75,499.5 499.625,499.875 504.0,499.75 506.0,499.25 508.625,497.75"/>
    <polyline points="508.875,497.5 510.875,495.125 511.625,493.625 512.875,490.375 513.75,487.0"/>
    <polyline points="513.875,486.375 514.875,481.5 516.125,472.5 516.75,463.25"/>
    <polyline points="516.875,461.875 516.625,446.625 515.25,435.0 512.625,423.75 509.125,413.375"/>
    <polyline points="508.0,410.625 503.5,401.75 499.75,395.5 495.0,388.875 486.0,378.5 473.875,367.875 464.125,361.125 458.5,357.875 452.625,354.75 446.5,352.0 439.875,349.625 433.125,347.625 426.125,346.25 419.125,345.5 412.125,345.375 405.25,346.125 398.75,347.75"/>
    <polyline points="392.625,350.375 387.25,353.875 382.625,358.375 378.75,363.75 375.875,369.875 374.0,376.75 373.125,384.125 373.125,391.875 374.125,399.875 375.75,407.875 378.125,415.875 381.125,423.625 384.5,431.25 388.25,438.375 392.25,445.125 400.625,457.25 409.25,467.625 417.5,476.25 425.375,483.375 436.25,491.875"/>
    <polyline points="439.625,494.25 445.75,498.375 454.125,503.25 477.75,515.375 487.25,520.875"/>
    <polyline points="488.125,521.5 492.125,524.5 496.625,529.5 498.5,532.875 500.25,538.0"/>
    <polyline points="500.375,538.875 501.125,543.0 501.625,548.75 502.0,566.0"/>
    <polyline points="502.125,567.5 502.75,577.125 503.75,584.5 505.125,590.5 507.25,596.875 510.375,603.625 513.375,608.25 517.375,613.0 522.625,617.75"/>
    <polyline points="525.75,620.125 533.625,624.625 538.375,626.75 543.75,628.75 550.0,630.375 557.125,631.875 565.125,633.0 574.25,633.625 584.375,633.875 595.75,633.25 608.375,632.0 622.0,629.625 636.625,626.375 652.0,621.875 667.625,616.125 683.125,609.375 697.625,601.375 710.625,592.625 721.5,583.375 729.5,574.0 734.625,564.875 736.5,556.5 735.5,549.125 732.125,542.875 726.625,537.625"/>
    <polyline points="719.75,533.625 712.0,530.5 703.75,528.125 695.375,526.5 678.875,524.375 650.625,522.125 639.125,520.875 629.125,519.375 620.375,517.625 609.375,514.375 603.25,511.875 595.25,507.75 590.75,504.875"/>
    <polyline points="588.75,503.375 583.375,498.75 579.125,493.875 575.625,488.875 573.75,485.5 571.625,480.125 569.75,472.625 569.0,464.75 569.25,458.625"/>
    <polyline points="569.375,456.375 570.375,449.75 573.375,437.875 577.25,427.75 579.75,422.5 582.75,417.125 588.375,409.125 593.125,403.875 598.75,398.875 602.0,396.5 605.75,394.375"/>
    <polyline points="609.875,392.5 614.5,390.75 619.75,389.5 625.75,388.625 632.5,388.375 640.375,389.0 649.375,390.5 659.875,393.25 672.0,397.625 686.125,403.875 702.5,412.875 721.25,424.875 742.75,440.875 766.75,461.375 792.75,487.125 819.375,518.125 844.625,554.0 865.5,592.875 878.375,631.625 880.625,666.25 871.25,693.125 851.875,710.0 825.875,716.75 797.125,715.125 769.125,707.75 744.125,697.0"/>
    <polyline points="723.375,685.0 707.125,672.75 695.125,661.125 686.75,650.5 681.625,640.75 679.0,631.75 678.375,623.625 679.125,616.0 680.875,608.875 687.125,589.375 688.625,583.5 689.375,578.0 689.25,572.75 688.375,568.0 686.625,563.75 684.0,559.75 680.625,556.25 676.625,553.25 672.25,550.5 662.25,546.125 651.5,542.75 646.125,541.375"/>
    <polyline points="640.75,540.125 590.625,530.0 574.375,525.875 561.625,521.875 553.5,518.875"/>
    <polyline points="551.625,518.25 545.25,515.5 536.625,511.125 531.375,507.625 528.0,504.75 526.5,503.0"/>
    <polyline points="526.0,502.5 523.625,499.0 522.0,495.25 521.25,492.625 520.25,485.875"/>
    <polyline points="520.25,485.0 520.0,481.5 519.875,456.0"/>
    <polyline points="519.875,454.375 519.125,443.75 518.375,437.75 517.25,431.125 515.5,423.875 513.125,416.0 509.625,407.375 504.75,397.875 502.625,394.5"/>
    <polyline points="500.375,391.125 492.0,380.25 480.625,368.875 471.0,361.375 459.625,354.0 453.25,350.625 439.375,344.875 432.0,342.625 424.25,340.875 416.5,339.875 408.75,339.75 401.125,340.5 393.875,342.375 387.25,345.25 381.25,349.125 376.125,354.25 372.125,360.25 369.125,367.25 367.25,375.0"/>
    <polyline points="366.5,383.25 366.75,391.875 368.125,400.75 370.25,409.625 373.125,418.375 376.625,426.875 380.5,434.875 384.625,442.5 393.625,456.25 402.75,467.875 407.25,472.875 420.125,485.5 424.125,488.875 435.25,497.25 444.875,503.5 453.25,508.25"/>
    <polyline points="455.75,509.625 475.125,519.75 481.625,523.625 486.625,527.25 490.375,531.0"/>
    <polyline points="491.0,531.625 493.75,535.5 495.75,539.625 497.75,547.125 498.625,554.875"/>
    <polyline points="498.75,556.125 500.125,576.625 501.125,583.875 502.875,592.0 505.0,598.5"/>
    <polyline points="505.875,600.75 509.625,607.875 515.375,615.25 520.75,620.125 524.0,622.5 532.125,627.125 537.125,629.375 542.875,631.375 549.5,633.125 557.0,634.625 565.5,635.625 575.125,636.25 586.0,636.25 598.125,635.625 611.625,634.0 626.25,631.375 642.0,627.5 658.375,622.375 675.0,616.0 691.25,608.375"/>
    <polyline points="706.25,599.625 719.5,590.0 730.0,580.0 737.5,570.125 741.5,560.75 742.25,552.25 740.0,544.875 735.375,538.75 728.875,534.0 721.125,530.25 712.625,527.5 703.875,525.625 686.625,523.25 644.875,520.375 630.0,518.375 618.0,515.625"/>
    <polyline points="614.5,514.5 605.375,510.875 600.25,508.25 593.75,503.875 586.875,497.75 582.875,492.875 578.875,486.125 576.875,480.875 575.5,475.375"/>
    <polyline points="575.25,473.5 574.875,469.625 574.875,463.75 575.625,457.625 577.125,451.375 579.5,444.75 582.75,438.125 587.125,431.375 593.0,424.875 597.875,420.875"/>
    <polyline points="600.75,419.0 607.375,415.625 611.25,414.25 615.625,413.125 620.5,412.375 625.875,412.0 632.0,412.125 638.875,413.0 646.625,414.5 655.375,417.0 665.375,420.625 676.625,425.75 689.25,432.5 703.375,441.375 719.125,452.625 736.375,466.75 754.625,483.875 773.625,504.125 792.125,527.375 809.0,553.125 822.625,580.125 831.125,606.625 833.25,630.75 828.625,650.625 817.5,664.875"/>
    <polyline points="801.375,673.0 782.0,675.625 761.5,673.75 741.375,668.625 722.625,661.5 706.0,653.375 691.75,645.0 679.75,636.875 670.0,629.25 662.125,622.25 655.875,615.875 651.0,610.125 647.25,605.125 642.375,596.375 639.5,589.25 635.375,575.875 633.5,571.875 630.875,568.25"/>
    <polyline points="629.375,566.625 627.75,565.125 624.0,562.5 621.875,561.375 612.5,557.625 605.0,555.625 597.25,554.125 587.375,552.875 582.625,552.5 571.75,552.375"/>
    <polyline points="569.875,552.5 560.875,553.375 556.25,554.375 550.875,556.25 546.5,558.75 543.75,561.0 541.5,563.5 539.875,566.375"/>
    <polyline points="539.375,567.5 538.375,570.75 538.0,574.375 538.125,576.875 539.0,580.875 540.75,585.125 543.75,589.5 548.0,593.75 554.125,597.875 559.375,600.375"/>
    <polyline points="562.5,601.375 569.375,603.375 577.75,604.625 587.375,605.125 598.25,604.75 604.125,604.125 616.625,601.75 629.5,598.125 635.75,595.75 641.875,593.0 647.625,590.0 652.875,586.75 657.5,583.375 661.375,579.75 664.5,576.125 666.75,572.625 668.0,569.0 668.5,565.625 668.0,562.5 666.75,559.5"/>
    <polyline points="664.875,556.75 662.25,554.25 655.375,550.125 647.25,546.75 638.375,544.125 620.125,540.125 569.75,530.875"/>
    <polyline points="567.125,530.25 540.375,524.5 528.5,522.5"/>
    <polyline points="527.625,522.5 525.375,522.25 520.75,522.375 518.125,523.0 515.375,524.5"/>
    <polyline points="515.125,524.75 513.125,527.0 512.125,528.875 510.125,534.625"/>
    <polyline points="510.0,535.25 508.25,543.625 506.75,556.625"/>
    <polyline points="506.625,557.875 506.375,571.75 507.75,583.75 509.875,591.625 512.375,598.0 513.5,600.125"/>
    <polyline points="514.875,602.375 518.0,606.875 524.75,613.75 531.0,618.125 534.75,620.25 543.875,624.25 549.375,626.0 555.75,627.5 562.75,628.625 570.75,629.5 579.75,630.0 589.625,629.875 600.625,629.0 612.625,627.5 625.5,625.125 639.125,621.75 653.25,617.25 667.5,611.875 681.375,605.375 694.25,598.0 705.625,590.0"/>
    <polyline points="715.0,581.625 721.875,573.125 726.0,565.0 727.5,557.5 726.5,550.75 723.375,545.0 718.375,540.125 712.125,536.25 705.0,533.25 697.375,530.875 689.5,529.125 674.0,526.75 640.5,523.125 629.75,521.625 616.0,518.875 604.75,515.5"/>
    <polyline points="601.375,514.25 592.625,510.375 585.375,506.125 577.5,500.125 574.375,497.0 570.25,492.125 567.0,487.25 563.75,480.25 562.0,474.75"/>
    <polyline points="561.625,472.875 560.875,469.125 560.0,461.0 560.25,447.5 560.625,442.625 562.75,426.375 565.25,410.875"/>
    <polyline points="565.875,407.5 567.5,396.625 569.375,380.375 569.875,371.25 569.875,361.25 569.5,355.75 567.875,344.0 566.5,337.5 564.5,330.625 561.75,323.125 558.125,314.875 553.375,306.0 547.25,296.25 539.125,285.375 528.75,273.375 515.375,260.0 498.375,245.25 476.75,229.125"/>
    <polyline points="449.625,211.875 416.25,194.5 376.25,178.25 330.5,166.125 281.625,161.625 234.125,169.375 194.625,192.375 169.0,231.125 159.5,281.875 164.625,337.75 179.25,392.5 198.25,441.125 217.25,481.75 233.875,513.875 247.0,538.125 263.625,567.25 268.125,574.0 271.125,576.875 273.5,576.375 275.875,573.125 282.625,560.625 287.625,552.25 293.875,543.125 301.375,533.625"/>
    <polyline points="309.875,524.125 319.0,515.0 328.625,506.375 338.5,498.5 348.125,491.375 357.625,485.125 366.75,479.625 375.25,475.0 383.375,471.0 397.625,465.0 404.0,462.875 409.75,461.125 415.125,459.875 424.625,458.125 436.25,457.375 442.75,457.625 455.75,459.375"/>
    <polyline points="457.875,459.75 470.625,462.375 478.875,463.375 482.25,463.375 486.25,462.875 490.375,461.25"/>
    <polyline points="491.125,460.875 493.125,459.375 494.75,457.5 496.25,455.25 497.75,451.875 498.75,447.75 499.125,444.375 499.0,437.75"/>
    <polyline points="498.875,436.25 497.375,428.375 495.75,423.125 493.375,417.5 489.0,409.375 484.5,403.0 478.75,396.625 474.25,392.375 469.0,388.25"/>
    <polyline points="466.25,386.25 457.0,380.875 453.625,379.5 446.625,377.0 439.375,375.625 432.25,375.375 428.75,375.75 425.375,376.5 422.25,377.625 419.375,379.125 416.75,381.0 414.375,383.25 412.375,385.875 410.75,388.875 409.5,392.125 408.625,395.625 408.125,399.375 408.125,403.25 408.375,407.375 410.125,415.625"/>
    <polyline points="411.375,419.875 414.875,428.125 421.375,439.625 426.375,446.5 434.25,455.5 442.125,463.0 452.125,470.75 463.375,477.625 469.25,480.5"/>
    <polyline points="471.0,481.375 476.125,483.375 486.0,486.25 491.5,487.0 495.25,487.0 499.75,486.125"/>
    <polyline points="500.5,485.875 502.25,485.125 504.875,483.25 507.125,480.75 509.875,475.5 510.875,472.125"/>
    <polyline points="511.125,471.25 512.75,463.0 513.375,453.875 513.25,447.75 512.25,437.125"/>
    <polyline points="511.875,435.125 509.5,424.5 506.125,414.75 503.75,409.375 500.75,403.875 495.0,394.875 490.25,388.75 484.375,382.25 473.375,372.625 464.625,366.5"/>
    <polyline points="459.625,363.5 448.875,358.25 437.125,354.25 431.0,352.875 424.75,352.0 418.5,351.75 412.375,352.125 406.625,353.375 401.0,355.25 396.0,358.0 391.5,361.5 387.75,365.75 384.75,370.875 382.5,376.5 381.125,382.75 380.625,389.375 380.875,396.25 381.75,403.375 383.375,410.5 388.25,424.5 391.375,431.125 398.375,443.625"/>
    <polyline points="402.125,449.25 406.0,454.625 413.75,464.125 421.5,472.125 432.375,481.875 439.125,487.0 451.125,495.0 463.5,501.875 475.0,507.375"/>
    <polyline points="476.625,508.25 486.0,512.625 493.375,516.625 495.5,518.0 499.25,521.125"/>
    <polyline points="499.625,521.625 502.125,524.75 502.875,526.25 504.25,530.375 504.75,534.625"/>
    <polyline points="504.875,535.25 505.0,543.625 504.375,558.25"/>
    <polyline points="504.375,559.5 504.625,574.125 506.5,586.75 507.5,590.75 509.0,594.875 510.875,599.25 513.25,603.75"/>
    <polyline points="514.875,606.0 518.5,610.625 520.875,613.0 526.375,617.625 529.875,619.875 538.125,624.125 549.0,627.75 555.5,629.375 571.375,631.375 580.75,631.75 591.125,631.5 602.75,630.5 615.375,628.75 628.875,626.125 643.25,622.375 658.125,617.5 672.875,611.5 687.25,604.5 700.375,596.625 711.75,588.0 720.875,579.125"/>
    <polyline points="727.375,570.375 730.875,562.0 731.5,554.375 729.625,547.75 725.625,542.125 720.0,537.5 713.0,533.875 705.375,531.125 697.375,529.0 689.25,527.375 673.5,525.375 640.375,522.125 625.125,519.75 616.5,517.875 609.0,515.625 602.375,513.25"/>
    <polyline points="599.375,511.875 591.5,507.875 587.0,504.875 581.25,500.375 575.125,494.0 571.625,489.0 568.875,483.875 566.75,478.5 565.0,471.0"/>
    <polyline points="564.75,469.0 564.125,463.0 564.125,456.625 564.875,447.5 566.0,440.125 567.625,432.25 569.75,424.0 572.375,415.125 575.625,405.625"/>
    <polyline points="576.875,402.375 581.0,392.125 584.25,385.0 588.0,377.75 594.75,366.5 600.375,359.0 603.625,355.375 611.5,348.5 616.125,345.5 621.625,342.75 627.875,340.5 635.25,339.0 644.0,338.375 654.5,339.125 667.375,341.5 683.0,346.375 702.125,354.625 725.875,367.375"/>
    <polyline points="755.0,386.125 790.375,413.25 831.875,450.875 878.125,500.75 924.375,563.375 962.375,634.5 981.125,705.0 973.125,762.0 939.5,795.75 890.625,805.0 839.375,796.0 795.25,776.875 762.75,754.25 742.75,731.625 734.0,710.25 734.5,690.25 742.375,671.125 754.875,652.375 784.125,614.375 796.0,595.75 803.625,578.25 806.125,562.5 803.75,549.375 797.0,539.0 787.375,531.375"/>
    <polyline points="775.875,526.375 763.75,523.375 751.625,521.875 740.125,521.625 729.5,522.125 719.75,523.0 703.125,525.5 678.5,529.875 669.0,531.0 660.5,531.375 652.75,531.0 645.625,530.125 639.0,528.625 626.75,524.375"/>
    <polyline points="624.0,523.125 618.625,520.5 611.25,516.25 602.75,510.25 597.375,505.5 592.75,500.75 590.125,497.5 585.0,489.125 583.0,484.0"/>
    <polyline points="582.375,482.25 581.125,475.125 581.0,469.5 582.0,462.0 583.875,456.125 586.5,450.375 590.375,444.5 595.625,439.0 600.125,435.625"/>
    <polyline points="602.625,434.125 605.5,432.625 612.0,430.25 620.125,428.875 624.75,428.625 630.0,428.75 635.75,429.375 642.125,430.625 649.375,432.5 657.25,435.25 666.125,439.0 675.875,443.875 686.625,450.125 698.375,458.0 711.125,467.5 724.625,479.0 738.75,492.5 752.875,508.125 766.625,525.5 779.125,544.5 789.25,564.125 796.375,583.75 799.5,602.0 798.25,618.0"/>
    <polyline points="792.625,630.75 783.0,639.75 770.375,645.0 755.75,646.75 740.25,645.5 724.625,642.125 709.625,637.25 695.625,631.625 683.0,625.5 671.75,619.375 653.125,608.0 645.625,602.875 628.5,590.5 609.25,576.0 601.5,571.125"/>
    <polyline points="599.875,570.25 596.875,568.875 592.75,567.5 585.5,566.375 583.375,566.375 578.5,567.0 576.0,567.75 573.25,569.125"/>
    <polyline points="572.625,569.5 570.5,571.75 570.0,572.875 569.625,574.5 569.875,576.25 570.75,578.0 572.25,579.75 573.625,580.875 577.375,582.75"/>
    <polyline points="578.625,583.25 583.875,584.5 588.75,585.0 595.875,584.75 601.375,583.75 605.0,582.75 610.0,580.75 615.25,577.25 617.0,575.25"/>
    <polyline points="617.625,574.25 618.375,571.25 618.25,570.25 617.375,568.25 614.875,565.625 611.25,563.375 606.5,561.5 601.25,560.125 597.5,559.375 588.0,558.25"/>
    <polyline points="586.125,558.25 579.0,558.125 574.0,558.5 568.0,559.5 565.25,560.25 561.625,561.5 558.5,563.125 555.875,565.0 553.75,567.25"/>
    <polyline points="553.25,568.0 551.875,570.625 551.125,574.375 551.625,578.5 553.0,581.75 554.5,584.0 557.625,587.25 562.125,590.375 568.0,593.0"/>
    <polyline points="570.375,593.875 575.625,595.125 585.0,596.375 596.125,596.25 604.25,595.25 612.75,593.5 621.125,590.875 629.125,587.5 632.75,585.5 636.125,583.5 641.625,579.0 645.25,574.375 646.375,572.0 647.0,567.5"/>
    <polyline points="646.5,565.375 645.5,563.25 644.125,561.375 640.25,558.0 635.0,555.0 625.75,551.5 612.125,548.125 601.875,546.25 583.0,543.625 574.75,542.875"/>
    <polyline points="572.125,542.625 558.5,541.875 554.625,541.875 546.125,542.5 539.125,543.875 535.625,545.125 531.625,547.25"/>
    <polyline points="530.75,547.875 528.25,549.875 525.5,553.0 522.75,557.75 521.5,561.0 520.125,567.125 519.875,574.125"/>
    <polyline points="519.875,575.75 520.875,582.25 522.5,587.5 524.125,591.125 526.25,594.875 529.0,598.75 534.875,604.5 537.375,606.375 543.25,610.0 550.75,613.25 555.125,614.75 560.125,616.0 565.625,617.125 571.625,617.875"/>
    <polyline points="578.375,618.5 593.625,618.375 602.375,617.75 611.5,616.5 621.25,614.625 631.5,612.125 641.75,608.875 652.125,605.0 662.125,600.5 671.625,595.5 680.25,589.875 687.5,584.0 693.375,578.0 697.625,572.125 700.125,566.25 700.875,560.875 700.0,556.0 697.75,551.5 694.25,547.75 689.625,544.375 684.375,541.625 672.5,537.375 659.875,534.5"/>
    <polyline points="653.5,533.25 624.75,528.625 610.25,526.0 594.25,522.0 584.25,518.875 573.125,514.375 564.25,509.75 560.5,507.375"/>
    <polyline points="558.75,506.25 552.75,501.5 549.125,497.875 546.0,494.125 543.375,490.375 540.0,483.75 538.5,479.625 537.0,473.625"/>
    <polyline points="536.625,472.125 534.625,458.375 532.375,434.5 531.25,426.5 529.5,417.75"/>
    <polyline points="528.75,414.5 524.5,400.75 521.375,393.125 514.625,380.25 508.25,370.875 500.125,360.75 495.125,355.5 489.5,350.0 483.125,344.375 476.0,338.75 468.0,333.125 459.125,327.5 449.25,322.125 438.5,317.125 426.875,312.875 414.5,309.375 401.75,307.0 388.75,306.125"/>
    <polyline points="375.875,307.0 363.75,309.875 352.625,315.0 343.25,322.5 335.75,332.125 330.5,343.625 327.625,356.75 327.0,370.875 328.375,385.625 331.5,400.375 336.0,414.75 341.5,428.375 347.625,441.125 354.125,452.75 360.75,463.25 367.25,472.625 373.75,481.0 379.875,488.25 385.75,494.625 391.375,500.125 401.5,509.25 410.5,516.0 418.5,521.125"/>
    <polyline points="422.125,523.25 431.75,528.375 450.75,537.125 457.625,540.75 464.375,545.375 469.375,550.5"/>
    <polyline points="470.25,551.5 471.875,553.75 474.375,558.625 476.625,565.25 478.25,572.875 479.75,589.375"/>
    <polyline points="480.0,591.5 481.0,602.875 482.125,610.375 484.125,618.625 487.375,627.375 490.75,633.5 493.0,636.625 498.75,643.0 502.5,646.25 507.0,649.375 512.25,652.375 518.625,655.375 526.25,658.0 535.375,660.5"/>
    <polyline points="546.125,662.375 559.0,663.625 574.125,664.125 591.875,663.25 612.5,661.0 636.0,656.75 662.0,650.0 690.0,640.625 718.75,628.25 746.25,613.25 770.5,596.125 789.25,578.0 800.875,560.375 805.125,544.5 802.5,531.375 794.75,521.375 783.625,514.5 770.875,510.375 757.625,508.375 745.0,508.0 733.375,508.75 723.0,510.125 713.875,511.875 706.0,513.875 693.25,517.875"/>
    <polyline points="688.125,519.875 672.75,525.875 666.75,527.75 661.25,529.0 653.25,529.5 645.5,528.625 635.25,525.75 628.0,522.75 618.875,517.75"/>
    <polyline points="616.75,516.5 612.75,513.75 605.5,508.0 602.375,505.0 598.25,500.375 596.0,497.25 592.25,490.875 590.375,486.0 589.25,481.125 589.0,477.75"/>
    <polyline points="589.0,476.0 589.75,469.25 592.25,462.5 596.625,456.0 601.5,451.625 603.5,450.25 608.125,447.875 613.625,446.0 616.875,445.25 624.25,444.625 633.125,445.25"/>
    <polyline points="638.125,446.125 649.875,449.375 663.75,455.25 671.625,459.375 680.125,464.5 689.125,470.75 698.75,478.125 708.75,486.625 719.0,496.5 729.125,507.5 739.0,519.625 748.0,532.75 755.875,546.375 761.875,560.125 765.625,573.5 767.0,585.75 765.5,596.625 761.375,605.5 754.75,612.0 746.125,616.375 735.875,618.5 724.75,618.625 713.25,617.25 701.625,614.625"/>
    <polyline points="690.25,611.25 679.375,607.25 659.75,598.5 643.125,590.125 607.75,571.25 595.75,565.75 589.0,563.125 580.625,560.5 573.5,559.125 567.5,558.625"/>
    <polyline points="565.75,558.75 562.375,559.0 556.75,560.25 553.375,561.75 551.375,563.0 548.25,566.0 546.625,568.625 545.375,572.625 545.25,575.875"/>
    <polyline points="545.375,577.125 546.75,581.875 548.125,584.375 550.0,586.875 555.5,591.875 561.625,595.25 569.5,598.0 579.75,599.875 587.75,600.375 596.75,600.0"/>
    <polyline points="601.625,599.5 611.75,597.875 616.875,596.625 627.125,593.25 632.125,591.25 641.25,586.5 645.125,583.875 648.625,581.125 651.5,578.25 653.75,575.375 655.375,572.5 656.375,569.625 656.625,567.0 656.25,564.375 655.25,561.875 653.625,559.625 649.0,555.5 646.125,553.75 639.375,550.75 631.875,548.25"/>
    <polyline points="628.0,547.25 612.25,543.75 593.75,540.625 569.625,537.125 551.75,535.25"/>
    <polyline points="550.0,535.125 539.125,535.0 533.0,535.75 527.25,537.5 525.625,538.25 522.125,540.75"/>
    <polyline points="521.5,541.25 519.25,543.75 517.75,546.0 515.0,552.0 512.875,560.75 512.5,564.625"/>
    <polyline points="512.375,566.0 512.25,573.375 513.125,581.75 514.5,587.25 516.625,593.125 520.0,599.25 523.125,603.5 527.125,607.75 532.375,611.875"/>
    <polyline points="535.5,614.0 543.125,617.75 547.625,619.5 552.75,621.125 558.5,622.5 572.25,624.5 580.25,624.875 589.125,624.75 598.875,624.25 609.375,623.0 620.75,621.0 632.625,618.25 644.875,614.625 657.375,610.125 669.625,604.75 681.125,598.75 691.625,592.0 700.5,584.875 707.625,577.5 712.5,570.25 715.125,563.375 715.625,557.0 714.0,551.375 710.75,546.5"/>
    <polyline points="706.0,542.375 700.25,539.0 693.875,536.25 686.875,534.0 672.625,530.875 628.5,524.625 614.0,521.875 605.75,519.75 595.0,516.375 588.75,513.875 580.875,510.0"/>
    <polyline points="578.5,508.625 570.25,503.125 566.875,500.25 562.5,495.875 560.0,492.875 555.875,486.625 553.5,481.75 551.625,476.75 549.875,469.625"/>
    <polyline points="549.5,467.75 548.375,459.875 547.875,453.5 546.75,419.125 545.375,405.25 544.75,401.5"/>
    <polyline points="544.0,397.5 542.125,389.0 539.25,379.75 535.125,369.5 532.375,364.0 529.25,358.125 525.375,351.875 515.375,338.375 509.0,331.0 501.375,323.125 492.375,315.0 481.875,306.375 469.625,297.625 455.5,288.75 439.25,280.125 421.0,272.125 400.875,265.375 379.125,260.5 356.75,258.5 334.625,260.25 314.0,266.5 296.375,277.75"/>
    <polyline points="283.0,294.0 274.625,314.5 271.25,338.125 272.625,363.375 277.75,388.875 285.5,413.25 294.75,435.75 304.625,455.875 314.5,473.375 324.0,488.25 332.75,500.75 340.75,511.125 348.0,519.5 354.5,526.375 360.25,531.75 365.5,536.0 370.25,539.25 378.625,543.5 382.375,544.75 389.125,546.0 392.375,546.25 401.25,546.0"/>
    <polyline points="404.125,545.625 419.75,543.625 426.875,543.125 433.375,543.125 439.375,543.625 444.625,544.625 449.5,546.125 455.0,548.75"/>
    <polyline points="456.25,549.5 460.5,552.875 463.25,555.875 465.5,559.125 467.375,562.75 468.375,565.375 469.875,571.0 471.25,580.75"/>
    <polyline points="471.375,582.5 471.75,613.375 472.375,621.75 473.125,627.625 474.375,633.875 476.5,640.375 477.875,643.875 479.625,647.25"/>
    <polyline points="481.75,650.75 484.375,654.375 487.625,658.0 491.625,661.625 496.5,665.125 502.5,668.625 509.875,672.0 518.75,675.0 529.75,677.625 543.125,679.625 559.5,680.75 579.25,680.625 602.875,678.625 630.75,674.25 662.75,666.75 698.25,655.375 735.625,639.75 771.875,620.0 803.625,597.125 827.0,573.0 839.875,550.0 841.875,530.25 834.875,515.25 822.0,505.125 806.125,499.5 789.875,497.375"/>
    <polyline points="774.5,498.0 761.125,500.25 749.875,503.75 740.625,508.0 733.25,512.625 727.375,517.375 722.625,522.125 715.375,531.5 709.625,540.0 706.75,543.75 703.75,547.0 700.625,549.875 697.125,552.375 693.375,554.25 689.375,555.75 685.0,556.75 680.5,557.25 670.875,557.125 660.875,555.625 655.75,554.5 645.75,551.625"/>
    <polyline points="640.875,549.875 622.5,542.5 614.125,538.625 599.25,531.125 589.625,525.875 578.625,519.375 567.5,512.0 562.0,507.75"/>
    <polyline points="560.375,506.375 553.375,499.75 549.875,495.75 547.0,491.75 544.625,487.625 542.125,481.875 539.75,474.375 539.125,471.125"/>
    <polyline points="538.75,469.5 537.25,458.75 534.75,431.625 533.0,420.125 530.875,410.5"/>
    <polyline points="530.0,407.125 527.625,399.75 524.625,391.75 520.5,383.125 515.0,373.75 507.75,363.625 498.125,352.625 492.375,346.75 485.75,340.875 478.25,334.75 469.75,328.625 460.25,322.5 449.75,316.625 438.125,311.25 425.5,306.375 412.125,302.375 398.0,299.75 383.75,298.75 369.625,299.75 356.25,303.125"/>
    <polyline points="344.25,309.0 334.125,317.5 326.375,328.5 321.125,341.625 318.625,356.5 318.625,372.25 320.875,388.5 324.875,404.625 330.25,420.125 336.625,434.625 343.375,448.0 350.5,460.0 357.5,470.75 371.125,488.5 377.375,495.625 383.375,501.875 394.125,511.75 399.0,515.625 407.875,521.875 415.625,526.625 422.375,530.125"/>
    <polyline points="425.5,531.625 445.125,539.75 452.25,543.125 458.0,546.625 461.625,549.375 464.625,552.375 467.125,555.625"/>
    <polyline points="467.875,556.75 469.875,560.375 471.875,565.75 473.25,571.625 474.375,579.875 475.25,597.875"/>
    <polyline points="475.375,600.125 475.875,610.0 476.875,618.125 478.0,623.875 479.625,629.875 482.125,636.25 483.875,639.5 488.25,646.25 491.25,649.625 494.875,653.0 499.25,656.5 504.5,659.75 510.75,663.0 518.5,666.0 527.875,668.75 539.125,671.0 552.625,672.5"/>
    <polyline points="568.875,673.125 588.25,672.5 611.125,670.0 637.5,665.25 667.25,657.625 699.625,646.625 732.875,632.125 764.625,614.125 791.875,593.75 811.875,572.5 823.0,552.25 824.875,534.75 819.125,521.0 808.125,511.5 794.125,505.625 779.25,502.875 764.875,502.375 751.875,503.625 740.5,505.875 730.75,508.625 722.625,511.875 715.875,515.25 710.25,518.625 705.5,522.0 697.875,528.25"/>
    <polyline points="694.625,531.0 691.625,533.625 685.875,537.875 679.875,541.0 673.5,543.0 670.125,543.5 663.125,543.75 659.375,543.5 652.0,542.375 644.5,540.5 637.0,538.0 626.25,533.75 616.25,528.875 610.125,525.5"/>
    <polyline points="607.125,523.875 601.625,520.5 591.75,513.75 587.375,510.375 579.875,503.75 575.25,498.75 571.375,493.75 569.125,490.375 564.875,481.625"/>
    <polyline points="564.25,479.75 562.625,474.25 561.875,470.375 561.125,464.5 560.875,455.875 561.875,441.75 564.875,422.625"/>
    <polyline points="565.5,419.625 570.875,392.125 573.5,375.5 574.5,366.25 575.0,356.125 574.75,344.875 573.25,332.25 569.5,317.75 566.5,309.625 562.25,300.625 556.75,290.75"/>
    <polyline points="549.25,279.75 539.5,267.375 526.625,253.5 509.75,238.0 488.0,220.625 460.125,201.75 424.875,181.875 381.5,162.75 330.625,147.125 274.625,139.75 219.375,146.375 173.25,171.625 143.75,216.375 134.375,275.375 142.375,340.125 160.875,402.0 182.875,455.625 203.5,498.875 232.625,555.625 245.25,581.125 247.75,585.125 249.125,584.625 252.875,572.75"/>
    <polyline points="256.875,562.875 262.75,551.25 270.5,538.75 280.125,525.875 291.25,513.25 303.125,501.25 315.5,490.25 327.75,480.375 339.625,471.75 350.75,464.25 361.125,458.0 370.625,452.75 386.75,445.0 399.625,440.375 410.0,437.875 418.25,437.0 421.875,437.0 428.125,437.625 433.5,438.875 436.0,439.75"/>
    <polyline points="438.25,440.625 442.625,442.5 458.625,450.625 466.0,454.0 472.5,456.0 477.0,456.75"/>
    <polyline points="478.125,456.75 482.75,456.5 486.625,455.125 488.0,454.25 490.25,452.125 491.25,450.75 492.75,447.625 493.5,445.0"/>
    <polyline points="493.75,444.0 494.125,440.75 493.75,433.375 492.0,426.125 489.625,419.75 487.0,414.625 482.125,407.375"/>
    <polyline points="480.75,405.625 475.75,400.125 469.625,394.875 465.0,391.625 457.375,387.375 449.0,384.375 443.125,383.25 440.25,383.0 437.5,383.0 432.0,383.875 427.125,385.875 425.0,387.25 421.375,390.875"/>
    <polyline points="419.875,393.125 417.875,398.25 417.0,404.125 417.0,407.25 417.875,413.875 418.75,417.25 419.75,420.625 422.5,427.25 427.875,436.75 434.125,445.25 438.5,450.25 443.0,454.75 451.875,462.125"/>
    <polyline points="454.0,463.625 464.0,469.875 474.375,474.5 480.25,476.25 484.125,477.0 487.5,477.375 491.625,477.25"/>
    <polyline points="492.5,477.125 496.625,476.0 499.375,474.5 501.125,473.0 504.125,469.25 506.625,463.375"/>
    <polyline points="506.875,462.375 507.875,458.125 508.5,453.25 508.625,444.625 507.5,434.375 506.75,430.5 505.0,424.375"/>
    <polyline points="504.375,422.125 501.75,415.25 499.375,410.375 493.125,399.875 488.875,394.375 484.0,388.75 478.125,383.0 471.25,377.375 467.5,374.75 459.125,369.625 454.5,367.25 444.75,363.375 434.5,360.75"/>
    <polyline points="429.125,360.0 418.75,360.125 413.875,361.125 409.125,362.625 404.75,364.75 400.875,367.625 397.5,371.0 394.75,375.0 392.625,379.625 391.125,384.625 390.25,390.0 390.125,395.75 390.5,401.625 391.5,407.625 393.0,413.625 395.0,419.625 397.375,425.5 400.0,431.25 403.0,436.75 409.375,446.875 416.25,455.875 423.25,463.625"/>
    <polyline points="426.625,467.125 436.5,476.0 442.75,480.875 451.25,486.625 456.5,489.875 467.75,495.875 476.875,500.0 484.125,502.875"/>
    <line x1="485.375" x2="503.625" y1="503.375" y2="509.875"/>
    <polyline points="504.0,510.0 508.125,511.5 510.25,512.625 511.0,513.5"/>
  </g>
</svg>
