<?xml version="1.0" encoding="utf-8" ?>
<svg xmlns="http://www.w3.org/2000/svg" xmlns:cc="http://creativecommons.org/ns" xmlns:dc="http://purl.org/dc/elements/1.1/" xmlns:ev="http://www.w3.org/2001/xml-events" xmlns:inkscape="http://www.inkscape.org/namespaces/inkscape" xmlns:rdf="http://www.w3.org/1999/02/22-rdf-syntax-ns" xmlns:sodipodi="http://sodipodi.sourceforge.net/DTD/sodipodi-0.dtd" xmlns:xlink="http://www.w3.org/1999/xlink" baseProfile="tiny" height="27.09333333cm" version="1.2" viewBox="0 0 1024.0 1024.0" width="27.09333333cm">
  <metadata>
    <rdf:RDF>
      <cc:Work>
        <dc:format>image/svg+xml</dc:format>
        <dc:source>vpype read './original_svgs/Strange Attractors #298.svg' linemerge linesimplify write './Strange Attractors #298.svg'
</dc:source>
        <dc:date>2024-08-05T01:35:46.462967</dc:date>
      </cc:Work>
    </rdf:RDF>
  </metadata>
  <defs/>
  <g fill="none" id="layer1" inkscape:groupmode="layer" inkscape:label="1" stroke="black" stroke-width="0.7mm" style="display:inline">
    <polyline points="166.75,569.25 171.875,579.375 172.875,583.375 169.625,582.25 162.625,576.125 152.125,564.125 138.5,544.625 121.625,514.25 101.375,468.25 78.375,399.625 55.25,299.25 39.5,159.375 47.7733,0.0"/>
    <polyline points="561.0637,0.0 568.875,12.375 607.625,111.875 614.125,178.75 594.0,219.125 551.0,242.0 490.0,256.5 420.375,269.5 354.75,283.75 303.875,297.375"/>
    <polyline points="271.0,306.625 253.375,308.625 246.0,302.25 244.625,288.125 247.25,267.75 253.25,243.25 262.75,217.125 276.25,192.625 294.0,172.75 315.75,160.375 340.25,157.125 366.0,163.125 391.25,177.0 414.5,196.625 435.0,219.375 452.125,243.25 466.125,266.5 477.125,288.125 485.5,307.625 491.75,324.875 496.375,339.875 499.5,352.75 501.5,363.875 502.75,373.375 503.625,388.625"/>
    <polyline points="503.5,394.75 501.625,422.875 501.875,428.375 502.625,433.375 504.5,440.125 507.375,446.25 510.75,451.75 517.5,460.125"/>
    <polyline points="518.875,461.5 523.25,465.75 529.375,470.5 539.125,476.125 544.25,478.25 549.5,479.875 556.875,481.5 560.875,482.0"/>
    <polyline points="562.875,482.25 573.375,482.875 587.625,482.375 604.0,480.875 630.125,477.625"/>
    <polyline points="633.75,477.125 645.5,475.875 663.125,474.5 678.125,474.25 689.125,474.75 701.0,476.25 707.25,477.5 713.75,479.125 720.5,481.375 727.5,484.25 734.375,488.0 741.375,492.75 748.0,498.75 753.875,506.25 758.625,515.375 761.25,526.5 761.0,539.5"/>
    <polyline points="756.625,554.5 747.0,571.0 731.5,588.375 710.0,605.5 683.75,621.5 654.375,635.375 624.5,646.875 596.125,655.875 570.875,662.625 508.75,677.625 501.5,679.875 496.625,681.75 493.625,683.25 492.125,684.375 491.875,685.125 492.5,685.375 494.0,685.125 495.875,684.375 500.75,681.125 506.0,675.625 508.5,672.25"/>
    <polyline points="511.0,668.25 513.375,664.0 515.375,659.25 518.875,649.375 521.375,638.875 523.0,628.375 523.5,623.25 523.875,608.625 522.625,591.5 520.125,577.375 516.25,563.5"/>
    <polyline points="515.375,561.25 513.75,556.875 510.5,549.625 506.375,542.5 502.375,537.125 500.75,535.375 497.5,532.25 495.0,530.375"/>
    <polyline points="494.25,529.75 490.0,527.375 484.375,525.25 477.25,523.5 468.875,522.375"/>
    <polyline points="467.5,522.125 446.75,520.125 438.625,519.0 427.0,516.75 419.125,514.625"/>
    <polyline points="416.25,513.75 407.25,510.5 397.125,505.75 386.0,498.875 377.875,492.625 373.625,488.875 364.625,479.75 355.25,468.0 350.375,460.875 345.375,452.875 340.5,443.875 335.625,433.625 330.875,422.125 326.375,409.375 322.375,395.25 318.875,379.75 316.375,363.125"/>
    <polyline points="314.875,345.5 315.0,327.375 316.75,309.375 320.625,292.125 326.75,276.5 335.125,263.625 345.5,254.25 357.75,248.875 371.25,247.875 385.5,251.125 399.875,258.0 413.75,268.0 426.875,280.0 438.875,293.375 449.625,307.5 459.25,321.5 467.5,335.125 474.75,348.125 481.0,360.125 491.25,381.375 507.625,419.0"/>
    <polyline points="510.125,424.375 516.375,437.5 520.125,444.25 525.375,452.125 530.5,458.25 537.25,464.125 542.5,467.375 549.75,470.625 555.375,472.25"/>
    <polyline points="557.375,472.625 563.375,473.625 569.75,474.0 578.75,473.875 588.375,473.0 598.75,471.375 607.125,469.5 618.875,466.25"/>
    <polyline points="621.875,465.25 634.375,460.625 643.875,456.0 653.0,450.25 658.375,445.5 660.75,442.75 662.75,439.75 664.375,436.375 665.375,432.625 665.625,428.625 665.0,424.0 663.0,419.0 659.5,413.5 654.0,407.375 645.875,400.75 634.75,393.75 619.875,386.625 600.75,379.5"/>
    <polyline points="577.375,373.0 549.875,367.75 519.375,364.25 487.5,363.0 456.75,363.875 429.125,366.625 406.375,370.5 389.125,374.5 376.875,378.0 364.375,382.125 362.125,382.25 361.375,381.5 361.625,379.75 363.875,374.375 369.625,364.25 374.875,358.0 377.75,355.5 381.0,353.375 384.5,351.75 388.25,350.875 392.25,350.625"/>
    <polyline points="396.375,351.125 400.5,352.25 404.875,354.0 413.5,359.25 421.75,366.375 429.625,374.875 433.25,379.5 436.75,384.125 443.125,393.625 451.25,407.625 457.75,420.625 461.375,428.625 468.125,445.75"/>
    <polyline points="469.25,448.75 473.375,461.625 475.375,470.0 476.25,475.375 476.625,484.0 476.25,487.5 475.125,491.375"/>
    <polyline points="474.75,492.25 473.375,494.75 471.625,496.875 468.75,499.25 467.0,500.25 461.0,502.625 452.0,504.125"/>
    <polyline points="450.5,504.125 444.0,504.25 434.5,503.25 428.0,502.0 420.75,500.0 415.625,498.125 404.125,492.625 397.875,488.75 391.125,483.875"/>
    <polyline points="387.75,481.0 380.375,474.125 376.625,470.0 369.0,460.5 365.0,454.75 357.125,441.625 353.25,433.875 349.5,425.375 346.0,416.125 342.75,406.0 339.875,395.125 337.625,383.5 335.875,371.125 335.0,358.5 335.25,345.625 336.5,333.0 339.125,320.875 343.0,309.875 348.375,300.375 355.125,292.75 363.0,287.5 371.875,284.875 381.625,284.875"/>
    <polyline points="391.625,287.375 401.875,292.125 411.875,298.875 421.5,307.125 430.625,316.375 439.125,326.375 446.75,336.625 453.75,346.875 460.125,357.0 470.875,376.0 479.5,392.875 499.625,435.125 505.625,447.0 511.0,456.25"/>
    <polyline points="512.625,458.875 517.5,465.75 522.125,471.25 526.625,475.625 531.125,479.25 534.125,481.25 538.75,483.75 545.0,486.25 551.5,488.0"/>
    <polyline points="553.25,488.375 560.375,489.375 567.875,489.875 578.375,489.875 608.875,488.25"/>
    <polyline points="611.875,488.125 628.25,487.5 635.375,487.5 647.0,488.0 655.25,488.75 664.0,490.125 668.5,491.125 677.75,493.875 687.125,497.875 691.75,500.625 696.25,503.75 700.375,507.625 704.25,512.0 707.375,517.125 709.75,523.125"/>
    <polyline points="710.875,529.875 710.625,537.5 708.625,545.875 704.375,555.0 697.875,564.375 688.75,574.0 677.375,583.5 663.875,592.5 648.875,600.625 633.0,607.75 616.875,613.75 601.25,618.5 586.625,622.25 573.25,624.875 561.25,626.625 550.875,627.625 541.875,628.125 534.25,628.0 527.875,627.5 518.0,625.625 511.125,622.75 506.25,619.25 504.375,617.25"/>
    <polyline points="502.625,615.375 498.875,609.0 491.5,592.125 487.875,584.625 483.875,578.125 479.375,572.5 477.0,570.125"/>
    <polyline points="475.75,569.0 471.75,565.875 467.625,563.25 463.125,561.125 456.625,558.75 447.625,556.75 432.875,555.25"/>
    <polyline points="430.625,555.125 396.875,554.125 382.375,553.0 374.375,551.875 361.125,548.875 356.25,547.375 345.875,543.375 340.25,540.625"/>
    <polyline points="334.375,537.25 328.125,533.25 321.5,528.25 314.5,522.125 307.0,514.625 299.125,505.5 290.625,494.125 281.75,480.25 272.375,463.0 262.75,442.0 253.0,416.125 243.625,384.875 235.5,347.625 229.875,304.125 228.375,255.625 233.125,204.75 246.5,156.375 269.5,117.125 301.625,93.25 340.0,88.625 380.25,102.375 418.375,130.125 451.25,165.25 477.75,202.5 498.0,237.75 512.75,269.0"/>
    <polyline points="522.625,295.5 528.875,317.375 531.875,334.875 532.625,348.875 531.375,359.875 528.625,368.625 524.75,375.5 520.0,381.0 514.625,385.625 509.125,389.5 488.0,401.625 483.75,404.375 477.0,409.625 474.625,412.25 472.75,414.875 471.5,417.5 470.125,422.625 470.375,427.75 470.75,430.375 471.5,432.875"/>
    <polyline points="472.25,435.375 476.5,445.125 490.25,472.0 495.75,484.0"/>
    <polyline points="496.375,485.25 499.375,492.625 501.25,498.125 502.5,504.0"/>
    <polyline points="502.5,504.375 502.25,507.375 501.375,509.125 499.5,510.75"/>
    <polyline points="499.25,510.875 495.0,512.5 489.0,513.625"/>
    <polyline points="488.375,513.75 480.375,514.625 465.875,515.375"/>
    <polyline points="464.5,515.375 452.875,515.125 445.75,514.625 437.875,513.625 423.875,510.75 415.875,508.25"/>
    <polyline points="413.0,507.125 403.75,503.125 393.625,497.375 386.25,492.125 378.375,485.625 370.0,477.125 361.125,466.5 352.125,452.875 347.5,444.75 343.0,435.625 338.625,425.5 334.375,414.375 330.5,402.0 327.25,388.5 324.5,374.0 322.75,358.625 322.125,342.625"/>
    <polyline points="322.875,326.5 325.375,310.75 329.5,296.125 335.625,283.25 343.625,272.875 353.375,265.5 364.5,261.75 376.75,261.625 389.375,265.0 402.125,271.5 414.5,280.375 426.125,291.125 437.0,303.125 446.75,315.625 455.625,328.25 463.375,340.625 470.25,352.5 476.25,363.75 486.125,383.625 505.375,425.625"/>
    <polyline points="507.625,430.625 515.75,446.125 521.25,454.5 526.375,461.0 531.5,466.0 538.375,471.125 545.5,474.75 552.875,477.25"/>
    <polyline points="554.75,477.625 558.625,478.5 566.875,479.5 573.375,479.75 580.375,479.625 595.625,478.375 616.375,475.375"/>
    <polyline points="619.625,474.75 671.25,465.125 697.25,461.25 709.25,460.25 722.25,459.75 736.75,460.25 744.5,461.125"/>
    <polyline points="752.875,462.625 761.625,464.875 771.0,468.125 780.75,472.625 790.625,478.875 800.5,487.375 809.5,498.625 816.375,513.375 819.0,532.125 814.625,555.125 800.0,581.75 772.5,610.375 732.5,638.125 683.75,662.625 632.625,682.0 585.375,696.75 546.125,708.0 516.25,717.5 495.25,726.125 482.0,734.875 475.125,743.75 473.5,752.75 476.0,761.375 481.75,769.0 490.125,775.125 500.375,779.0"/>
    <polyline points="511.75,780.25 523.5,778.5 535.25,773.5 546.375,765.5 556.375,754.75 565.125,742.0 572.375,727.75 578.25,712.75 582.75,697.5 586.125,682.5 588.375,668.125 589.875,654.75 590.625,642.25 590.875,631.0 590.75,620.75 590.25,611.625 588.625,596.25 586.5,584.125 584.125,574.625 583.0,570.75 579.5,561.25"/>
    <polyline points="578.375,558.75 575.375,552.375 570.0,542.25 567.75,537.0 566.625,531.75 566.875,528.875"/>
    <polyline points="567.0,528.125 567.375,526.875 569.125,523.875 572.5,520.875 578.0,518.125 583.0,516.625"/>
    <polyline points="584.125,516.375 592.625,515.125 601.0,515.0 610.0,516.0 614.625,517.125 619.0,518.625"/>
    <polyline points="620.5,519.375 623.125,520.75 625.625,522.625 627.625,524.625 629.375,527.0 630.75,531.125 630.875,532.625 630.5,535.875 628.375,540.875 625.75,544.25 620.25,549.125 613.125,553.25"/>
    <polyline points="610.375,554.5 604.875,556.5 596.125,558.375 590.5,559.0 585.0,559.0 579.875,558.5 570.875,556.25 567.125,554.625 562.125,551.75 555.875,546.375"/>
    <polyline points="554.875,545.25 551.0,539.75 548.625,534.625 547.625,530.875 547.375,528.375 547.5,525.25 548.375,522.625"/>
    <polyline points="548.625,522.0 549.625,520.125 550.875,518.625 554.375,515.75 559.0,513.375 565.875,511.125"/>
    <polyline points="567.0,510.875 575.75,509.0 584.875,507.75 595.25,507.0 607.25,507.125"/>
    <polyline points="609.375,507.25 620.375,508.625 627.125,510.25 631.625,511.75 636.0,513.75 640.125,516.125 642.125,517.625 645.5,520.875 648.125,524.875 649.125,527.125 649.75,529.5 650.0,534.625 648.625,540.375"/>
    <polyline points="647.125,543.5 642.875,549.625 640.0,552.625 632.875,558.625 628.75,561.375 619.375,566.25 609.375,570.125 604.125,571.625 594.0,573.75 589.125,574.375 579.875,574.75 575.5,574.625 571.5,574.25 564.125,572.875 557.75,570.875 549.75,567.0"/>
    <polyline points="547.5,565.625 543.375,562.625 539.875,559.5 535.5,554.875 528.875,546.0 524.25,538.5 520.875,532.375"/>
    <line x1="520.5" x2="513.375" y1="531.5" y2="518.375"/>
    <polyline points="513.25,518.125 511.625,515.75 510.25,514.375 508.875,513.625 506.75,513.25 500.875,513.5"/>
    <line x1="500.625" x2="489.625" y1="513.625" y2="514.625"/>
    <polyline points="489.0,514.625 476.5,515.5 466.625,515.75"/>
    <polyline points="465.375,515.75 455.375,515.625 445.0,514.875 439.0,514.125 427.75,512.0 417.375,509.0"/>
    <polyline points="414.5,508.0 408.625,505.75 398.875,500.875 391.875,496.625 388.125,494.0 380.375,487.875 372.125,480.0 363.5,470.0 359.0,464.0 354.375,457.125 349.75,449.5 345.25,441.0 340.75,431.5 336.375,420.75 332.25,409.0 328.625,396.125 325.5,382.0 323.25,367.0 321.875,351.25"/>
    <polyline points="321.875,335.0 323.375,318.875 326.625,303.375 331.75,289.375 338.75,277.375 347.625,268.375 358.125,262.625 369.875,260.5 382.5,262.0 395.25,267.0 408.0,274.75 420.125,284.625 431.5,296.125 441.875,308.5 451.25,321.25 459.625,333.875 467.0,346.125 479.125,368.625 488.5,387.875 504.375,422.875"/>
    <polyline points="506.75,428.0 513.125,440.75 518.75,450.375 522.375,455.5 527.5,461.75 532.625,466.5 536.0,469.125 539.5,471.375 544.75,474.0 552.125,476.625"/>
    <polyline points="554.125,477.125 560.0,478.375 568.25,479.25 582.0,479.25 594.75,478.125 615.25,475.125"/>
    <polyline points="618.5,474.5 678.875,462.5 694.5,459.75 706.0,458.125 718.375,456.875 725.0,456.375 739.375,456.125"/>
    <polyline points="747.125,456.5 755.375,457.375 764.25,458.875 773.625,461.25 783.5,464.75 794.0,469.75 804.875,476.75 815.5,486.375 825.0,499.375 831.75,516.625 832.875,538.625 824.75,565.5 803.375,596.25 766.625,628.0 716.375,657.5 659.25,681.75 603.75,700.25 556.25,714.125 519.5,725.5 493.875,735.875 477.75,746.5 469.625,757.625 468.0,769.0 471.625,780.25 479.375,790.375 490.5,798.625"/>
    <polyline points="503.75,804.0 518.375,805.625 533.5,803.0 548.125,796.0 561.625,785.0 573.5,770.625 583.375,753.75 591.25,735.5 597.25,716.875 601.625,698.5 604.5,681.0 606.25,664.75 607.25,650.0 607.375,636.875 607.0,625.25 606.25,615.0 605.25,606.25 602.625,591.875 601.125,586.25 597.875,577.125 594.5,570.25 591.0,565.0"/>
    <polyline points="589.375,562.875 584.625,557.625 575.125,549.0 570.125,544.0 567.25,540.25 564.625,535.0"/>
    <polyline points="564.375,534.125 563.875,529.625 564.25,527.5 565.25,525.0 566.0,523.75 568.0,521.625 569.875,520.125 572.125,518.875"/>
    <polyline points="572.875,518.5 578.375,516.25 584.0,514.875 594.625,513.625 603.75,513.75"/>
    <polyline points="605.375,513.875 613.625,515.125 618.5,516.5 624.625,519.25 628.625,522.125 631.875,525.75 633.25,528.625 633.875,531.75 633.75,535.25 633.25,537.125"/>
    <polyline points="632.625,539.0 629.0,544.625 625.25,548.375 623.0,550.125 617.875,553.5 615.125,554.875 605.875,558.625 599.5,560.25 593.0,561.25 583.875,561.5 575.75,560.5 570.875,559.25 568.625,558.375"/>
    <polyline points="566.5,557.5 562.625,555.625 559.25,553.5 555.0,550.125 551.5,546.5 549.625,544.125 546.125,538.5 544.0,533.25 543.375,530.5"/>
    <polyline points="543.125,529.625 543.0,524.875 544.0,521.0 546.125,517.875 548.125,516.0 550.0,514.875"/>
    <polyline points="550.625,514.5 554.375,512.625 559.875,510.75 567.625,508.875 577.25,507.25"/>
    <polyline points="578.75,507.125 583.625,506.5 594.375,505.75 606.625,505.75 617.875,506.75 622.625,507.5 629.875,509.25"/>
    <polyline points="632.25,510.0 639.25,513.0 643.625,515.625 647.5,519.0 650.625,522.875 652.75,527.625 653.25,530.25 653.5,533.125 653.25,536.125 652.5,539.125 651.25,542.375 647.125,549.125 640.75,555.75 632.375,562.125 622.375,567.625 617.0,569.875"/>
    <polyline points="611.5,572.0 605.875,573.75 594.875,576.25 584.375,577.5 574.75,577.5 570.5,577.125 562.5,575.75 555.75,573.75 552.75,572.5 545.0,568.25 540.75,565.125 537.125,561.875 529.875,553.75"/>
    <polyline points="528.75,552.25 525.5,547.75 515.0,531.125 511.625,526.25"/>
    <polyline points="511.25,525.75 508.75,522.75 506.0,520.25 503.75,518.75 501.375,517.75"/>
    <polyline points="501.0,517.625 498.0,516.75 494.0,516.25 487.875,516.125"/>
    <line x1="487.125" x2="462.125" y1="516.125" y2="516.375"/>
    <polyline points="460.75,516.375 446.0,515.5 433.625,513.75 421.5,510.875 416.0,509.125 407.0,505.5"/>
    <polyline points="403.875,504.0 393.625,498.375 390.0,496.0 382.375,490.125 374.125,482.75 369.875,478.375 361.0,467.75 356.5,461.375 351.875,454.125 347.25,446.0 342.625,437.0 338.125,426.875 333.875,415.625 329.875,403.125 326.5,389.625 323.625,375.0 321.75,359.375 321.0,343.125 321.75,326.75 324.0,310.625 328.125,295.625"/>
    <polyline points="334.25,282.25 342.375,271.5 352.125,263.875 363.5,259.875 375.75,259.625 388.625,262.875 401.625,269.375 414.25,278.5 426.125,289.375 437.125,301.5 447.125,314.25 456.0,327.125 463.875,339.75 470.875,351.75 482.25,373.5 491.0,392.125 506.0,425.5 512.625,438.875"/>
    <polyline points="514.625,442.5 520.125,451.625 523.625,456.5 528.75,462.375 533.875,467.0 539.125,470.5 542.625,472.5 546.25,474.125 551.75,476.0 559.5,477.75"/>
    <polyline points="561.5,478.0 572.125,478.875 586.375,478.375 602.5,476.5 614.625,474.5 627.875,471.875"/>
    <polyline points="631.375,471.125 650.5,467.0 702.625,454.75 726.375,449.875 746.75,446.75 762.0,445.375"/>
    <polyline points="770.25,445.125 779.125,445.25 788.625,446.0 799.0,447.625 810.125,450.375 822.125,454.75 835.125,461.25 848.625,470.875 861.75,484.875 872.5,504.375 877.25,531.0 869.5,565.375 842.125,606.0 790.375,648.5 718.5,686.5 639.75,715.875 514.375,753.75 477.875,769.5 457.25,786.625 449.625,806.0 452.625,826.75 464.25,847.625 482.875,866.125 506.625,879.375 533.125,885.0"/>
    <polyline points="560.375,881.0 585.75,867.25 607.75,844.875 625.375,816.5 638.375,785.25 647.375,753.75 653.125,724.125 656.25,697.375 657.5,674.375 657.25,655.125 656.0,639.375 653.875,626.75 651.25,616.75 647.875,609.125 644.125,603.375 639.875,599.25 635.25,596.125 630.25,593.875 625.0,592.375 619.5,591.25 586.875,587.375"/>
    <polyline points="582.0,586.5 572.875,584.5 564.875,582.0 558.0,579.0 549.5,574.0 542.625,568.625 538.875,565.0 532.75,557.875 525.0,546.75"/>
    <polyline points="524.125,545.375 515.625,531.125 510.375,523.625"/>
    <polyline points="510.0,523.125 506.75,519.875 503.875,518.0 500.875,516.875"/>
    <polyline points="500.375,516.75 495.5,516.0 487.25,515.875"/>
    <polyline points="486.625,515.875 474.5,516.25 461.125,516.25"/>
    <polyline points="459.75,516.25 444.625,515.25 438.625,514.5 429.75,512.875 422.25,511.0 416.875,509.25 404.875,504.5"/>
    <polyline points="401.625,502.875 391.125,496.625 387.375,494.0 379.625,487.75 371.25,479.625 366.875,474.875 357.875,463.25 353.375,456.375 348.75,448.5 344.125,439.75 339.625,430.0 335.25,419.125 331.25,407.125 327.625,393.875 324.625,379.5 322.375,364.25 321.25,348.25 321.5,331.875 323.25,315.625 326.75,300.25 332.25,286.25"/>
    <polyline points="339.75,274.75 349.0,266.125 359.875,260.875 371.875,259.5 384.625,261.75 397.625,267.25 410.375,275.625 422.5,286.0 433.75,297.875 444.125,310.375 453.25,323.25 461.5,335.875 475.0,359.625 480.5,370.375 489.625,389.375 509.75,433.5 513.875,441.375"/>
    <polyline points="515.875,444.875 517.625,448.0 521.25,453.375 524.75,458.0 528.25,461.875 533.25,466.625 538.5,470.25 545.5,473.875 553.0,476.5 560.75,478.0"/>
    <polyline points="562.875,478.25 569.125,478.875 575.875,479.0 590.625,478.125 607.375,475.875 630.125,471.625"/>
    <polyline points="633.75,470.875 690.25,458.125 718.5,452.5 731.375,450.5 745.5,448.875 753.0,448.375 769.625,448.375"/>
    <polyline points="778.75,449.125 788.5,450.625 799.125,453.25 810.5,457.25 822.75,463.25 835.5,471.875 847.875,484.125 858.625,501.375 864.625,524.625 861.0,554.75 841.5,591.0 801.125,630.375 740.625,667.625 669.0,698.25 599.25,720.875 541.5,737.75 499.375,752.125 472.5,766.625 458.5,782.5 454.875,799.875 459.875,818.0 471.625,835.25 488.875,849.75 510.0,859.5 533.125,862.5 556.5,857.5"/>
    <polyline points="578.25,844.75 597.25,825.0 612.625,800.5 624.375,773.375 632.75,745.75 638.25,719.375 641.625,695.125 643.125,673.625 643.375,655.25 642.75,639.625 641.375,626.875 639.375,616.375 637.0,607.875 634.125,601.25 631.0,595.875 627.625,591.75 624.0,588.625 620.25,586.125 616.25,584.125 608.0,581.375 587.75,576.75"/>
    <polyline points="584.0,575.875 576.875,573.875 567.625,570.25 562.25,567.625 555.5,563.375 551.625,560.25 545.5,554.25 541.875,549.75 536.625,541.625"/>
    <polyline points="535.875,540.375 533.25,534.625 531.0,528.25 530.125,523.25 530.375,520.0"/>
    <polyline points="530.5,519.5 531.25,517.375 533.125,514.875 536.375,512.75 539.125,511.625"/>
    <polyline points="539.625,511.375 544.375,509.875 552.125,508.125 562.125,506.5"/>
    <polyline points="563.375,506.25 576.375,504.625 586.75,503.75 598.875,503.125 607.875,503.25"/>
    <polyline points="610.25,503.375 620.125,504.125 625.25,504.875 633.25,506.625 638.5,508.375 643.75,510.625 651.0,515.125 655.125,519.125 656.875,521.5 659.375,526.875 660.0,529.875 660.25,533.125 659.875,536.625 659.0,540.25"/>
    <polyline points="657.5,544.0 655.25,547.875 652.375,551.875 648.75,555.875 644.5,559.75 634.125,567.0 622.125,573.25 609.125,578.0 602.5,579.875 596.125,581.25 583.875,583.0 578.25,583.25 568.0,583.0 559.125,581.5 551.5,579.375 545.25,576.625 539.875,573.375"/>
    <polyline points="537.5,571.75 529.75,564.75 523.75,557.875 507.75,535.75"/>
    <polyline points="507.0,534.875 500.625,528.5 497.125,526.0 493.5,524.125 488.875,522.5"/>
    <polyline points="488.0,522.25 483.75,521.25 474.75,520.125 460.625,519.25"/>
    <polyline points="459.125,519.125 450.875,518.5 439.375,517.125 428.0,515.0 420.25,513.0 411.75,510.125 402.25,506.0"/>
    <polyline points="398.875,504.25 388.0,497.625 380.0,491.625 375.875,488.0 371.625,483.875 362.625,474.0 358.0,468.125 353.25,461.375 348.5,453.75 343.75,445.125 339.0,435.5 334.25,424.75 329.875,412.625 325.875,399.375 322.375,384.875 319.75,369.125 318.0,352.5 317.625,335.25 318.875,317.875 321.875,301.125 327.0,285.75 334.25,272.5"/>
    <polyline points="343.5,262.25 354.625,255.625 367.125,253.0 380.5,254.5 394.125,259.625 407.75,267.875 420.625,278.625 432.75,290.875 443.75,304.125 453.5,317.625 462.125,331.0 469.75,343.875 476.375,356.0 487.125,377.625 507.125,422.375 513.75,436.25 517.625,443.5"/>
    <polyline points="519.5,446.625 523.125,452.0 528.25,458.5 531.625,461.875 536.75,466.125 542.0,469.375 549.25,472.5 555.0,474.25 565.0,475.875"/>
    <polyline points="567.125,476.0 573.75,476.25 583.125,475.875 598.625,474.0 619.375,469.625 636.0,464.875"/>
    <polyline points="639.5,463.75 643.125,462.625 657.75,456.875 668.875,451.25 672.5,449.125 679.375,444.125 682.5,441.25 685.25,438.125 687.625,434.625 689.5,430.625 690.5,426.125 690.5,421.125 689.0,415.375 685.625,408.875 679.625,401.625 670.375,393.5 656.75,384.75 637.875,375.5 612.5,366.375 580.25,358.0"/>
    <polyline points="541.75,351.75 498.875,348.5 455.5,348.75 415.75,352.25 383.125,357.5 359.0,363.125 333.375,369.625 328.375,369.375 326.25,366.625 326.0,361.875 326.75,355.375 328.375,347.625 330.75,338.875 333.75,329.875 337.5,320.875 342.125,312.375 347.75,305.0 354.375,298.875 361.75,294.5 370.0,292.125 378.75,291.875 387.875,293.75 397.125,297.5 406.375,303.0 415.25,309.875"/>
    <polyline points="423.75,317.875 431.75,326.5 439.125,335.75 446.0,345.0 457.875,363.375 467.5,380.625 475.5,396.0 498.375,443.75 503.625,453.875 509.875,464.25"/>
    <polyline points="511.375,466.375 517.0,473.875 521.0,478.25 527.625,484.0 534.125,488.125 538.25,490.0 545.125,492.25"/>
    <polyline points="546.625,492.625 554.125,493.875 565.875,494.625 577.375,494.5 592.875,493.75"/>
    <polyline points="595.25,493.625 614.25,493.0 626.625,493.125 636.875,493.875 647.75,495.375 655.375,497.0 663.125,499.5 670.875,502.875 678.25,507.625"/>
    <polyline points="681.625,510.625 684.75,514.0 687.5,517.875 689.625,522.25 691.0,527.25 691.5,532.625 690.875,538.625 689.125,545.125 685.75,552.0 680.875,559.125 674.375,566.25 666.375,573.375 656.875,580.125 646.25,586.5 634.875,592.125 623.0,597.125 611.125,601.25 599.5,604.5 588.5,607.0 578.125,608.75 568.75,609.875 560.25,610.375 552.75,610.375 546.0,609.875 540.125,609.125 535.0,608.0"/>
    <polyline points="530.5,606.625 526.625,605.125 520.125,601.625 512.75,595.625 505.75,587.25 495.25,571.75 490.5,565.375 486.75,561.25"/>
    <polyline points="485.625,560.0 481.75,556.5 477.875,553.5 475.125,551.75 469.25,548.75 464.625,546.875 458.0,544.875 446.75,542.5"/>
    <polyline points="444.625,542.25 417.75,538.25 402.125,535.0 395.125,533.0 387.5,530.375 379.25,526.875 374.875,524.75 365.375,519.375"/>
    <polyline points="360.375,516.0 355.125,512.0 349.75,507.375 344.0,501.875 338.0,495.5 331.625,488.0 325.125,479.125 318.375,468.75 311.5,456.625 304.375,442.25 297.375,425.5 290.625,406.0 284.5,383.625 279.375,358.125 276.0,330.0 274.875,299.75 277.125,268.5 283.5,238.25 294.625,211.375 310.5,190.5 330.75,177.875 353.875,174.625 378.5,180.75 402.75,194.5 425.375,213.75 445.375,236.125"/>
    <polyline points="462.5,259.375 476.625,282.125 488.125,303.375 497.25,322.5 504.375,339.375 510.0,354.125 517.375,377.5 519.75,386.625 522.625,401.0 523.5,406.625 524.375,415.5 524.625,435.0 525.625,440.75"/>
    <polyline points="526.0,442.0 529.125,447.75 531.875,450.75 535.0,453.5 539.875,456.625 544.0,458.625 550.0,460.75 554.75,461.75"/>
    <polyline points="556.375,462.125 563.25,462.75 566.875,462.75 572.375,462.375 579.875,461.125 587.5,458.875 593.0,456.375 598.125,453.25 601.125,450.625"/>
    <polyline points="602.375,449.125 603.625,447.625 605.375,444.125 606.125,440.125 606.0,437.875 605.5,435.5 604.5,433.125 600.75,427.75 598.0,424.875 594.375,422.0 589.875,419.0 584.5,416.0 570.875,410.25 562.625,407.625 553.5,405.375 543.625,403.375 533.25,401.875 522.625,400.875 512.0,400.375 501.75,400.5 492.0,401.0 483.125,402.125"/>
    <polyline points="475.25,403.5 468.625,405.25 463.0,407.25 458.625,409.375 455.375,411.625 452.875,413.875 451.25,416.25 450.375,418.625 450.0,420.875 450.0,423.25 451.0,427.875 452.75,432.5 460.0,448.25 463.75,458.5"/>
    <polyline points="464.25,460.375 466.0,469.125 466.25,476.375 465.875,478.875 465.0,482.375 463.0,486.25 461.75,487.875 458.5,490.75"/>
    <polyline points="457.625,491.375 453.5,493.375 451.0,494.125 447.0,494.875 439.25,495.25 429.875,494.125 423.375,492.5 416.25,489.875"/>
    <polyline points="413.75,488.75 408.375,486.125 399.875,480.75 393.75,476.0 387.25,470.125 380.625,462.75 373.75,453.875 366.875,443.0 363.5,436.625 360.125,429.875 354.0,414.25 351.375,405.625 349.0,396.25 347.125,386.5 345.875,376.375 345.125,365.875 345.375,355.375"/>
    <polyline points="346.375,345.125 348.375,335.25 351.375,326.125 355.5,318.25 360.625,311.75 366.75,306.875 373.75,303.875 381.375,302.875 389.375,303.75 397.75,306.625 406.125,311.0 414.25,316.875 422.25,323.75 429.75,331.5 436.875,339.875 443.375,348.375 449.375,357.0 454.875,365.625 464.5,382.0 472.375,396.875 484.375,421.75"/>
    <polyline points="486.875,427.0 496.875,448.0 506.25,465.25 514.0,476.75 518.75,482.25 523.375,486.625"/>
    <polyline points="524.5,487.5 530.125,491.375 535.875,494.125 542.0,496.0 547.0,497.0 555.375,497.75"/>
    <polyline points="556.875,497.875 569.75,497.875 591.875,496.75 606.5,496.375"/>
    <polyline points="609.25,496.25 623.625,496.625 633.0,497.5 639.625,498.5 649.875,500.875 660.125,504.875 666.75,508.75 669.875,511.125 675.375,516.875 677.5,520.375 679.25,524.125 680.375,528.5 680.75,533.125"/>
    <polyline points="680.125,538.25 678.625,543.625 676.0,549.375 672.125,555.25 667.0,561.25 660.75,567.125 653.25,572.875 644.875,578.25 635.75,583.25 626.125,587.625 616.25,591.375 606.375,594.5 596.75,597.0 587.625,598.75 579.0,600.0 563.875,600.875 551.375,600.125 541.25,598.0 533.25,595.125 526.875,591.5 524.25,589.625"/>
    <polyline points="521.75,587.625 517.375,583.625 513.75,579.625 509.0,573.625 498.75,559.625 495.25,555.375 491.75,551.625 487.0,547.375"/>
    <polyline points="485.75,546.375 479.5,542.25 475.625,540.25 471.5,538.625 464.0,536.25 455.5,534.375 448.0,533.125"/>
    <polyline points="446.0,532.75 425.25,529.25 413.875,526.625 404.375,523.75 393.75,519.625 385.875,515.75 377.5,510.875 368.375,504.25"/>
    <polyline points="363.5,500.25 353.25,490.25 347.875,484.0 342.25,476.875 336.5,468.625 330.5,459.125 324.625,448.125 318.625,435.375 312.75,421.0 307.25,404.5 302.25,385.875 298.125,365.375 295.375,342.875 294.375,319.125 295.75,294.625 300.0,270.875 307.5,249.0 318.375,230.875 332.625,218.0 349.375,211.375 368.0,211.375 387.25,217.625 406.125,229.0 423.875,244.25 440.0,261.625"/>
    <polyline points="454.125,280.125 466.25,298.5 476.625,316.0 485.125,332.25 492.25,347.125 503.0,372.125 510.375,391.625 521.125,422.5 525.25,433.375 527.625,438.75 530.0,443.125 532.375,446.625 536.0,450.875"/>
    <polyline points="537.25,452.0 539.875,454.125 545.375,457.375 551.375,459.625 556.125,460.75 566.125,461.5 571.5,461.125 576.875,460.25"/>
    <polyline points="578.625,459.75 580.5,459.375 585.875,457.5 590.875,455.125 594.125,453.0 596.875,450.625 599.25,447.875 601.0,444.625 601.5,442.875 601.75,439.0 600.5,434.5 599.25,432.125 597.375,429.625 595.0,427.125 592.0,424.5 588.125,421.75"/>
    <polyline points="583.625,419.0 572.0,413.75 565.0,411.25 557.125,409.0 548.625,407.0 539.625,405.5 530.25,404.25 520.625,403.5 511.25,403.25 502.125,403.5 493.625,404.125 485.875,405.125 479.125,406.5 473.25,408.25 468.375,410.125 464.5,412.125 461.5,414.25 459.375,416.5 458.0,418.75 457.125,421.125 456.75,423.375 457.125,428.125 458.625,432.75"/>
    <polyline points="459.5,435.125 467.75,453.25 471.0,461.5 473.375,468.875 474.5,473.875 475.125,478.25 475.25,482.25"/>
    <polyline points="475.25,483.5 474.375,489.0 472.875,492.5 471.25,494.875 469.375,496.875 467.875,498.0 464.375,500.0 460.125,501.5"/>
    <polyline points="459.0,501.875 453.875,502.875 449.5,503.25 443.0,503.25 435.375,502.5 429.125,501.375 422.125,499.5 417.0,497.75 411.625,495.5"/>
    <polyline points="408.75,494.125 402.875,490.875 393.125,484.375 386.25,478.5 379.0,471.375 371.375,462.25 363.625,451.125 355.875,437.375 352.25,429.375 348.625,420.625 345.25,411.0 342.25,400.75 339.75,389.625 337.75,377.875 336.5,365.625 336.125,353.125 336.75,340.5 338.625,328.375"/>
    <polyline points="341.875,317.0 346.375,306.875 352.25,298.375 359.375,292.0 367.625,288.0 376.625,286.625 386.375,287.625 396.25,291.125 406.25,296.625 415.875,303.875 425.25,312.375 433.875,321.875 441.875,331.75 449.25,341.875 461.875,361.75 472.0,380.125 480.25,396.375 497.375,432.5"/>
    <polyline points="499.5,437.0 509.0,454.75 515.5,464.75 518.625,468.75 523.125,473.75 529.0,479.0 533.375,482.0 539.375,485.125"/>
    <polyline points="540.875,485.875 547.125,488.0 552.0,489.125 560.75,490.375 568.25,490.75 578.625,490.75 587.75,490.375"/>
    <polyline points="590.125,490.25 624.625,488.625 631.625,488.625 646.625,489.375 654.75,490.25 663.25,491.875 667.75,492.875 676.625,495.875"/>
    <polyline points="681.25,497.875 690.125,502.875 694.25,506.25 698.125,510.125 701.5,514.625 704.25,519.75 706.125,525.75 706.875,532.5 706.0,539.875 703.5,548.125 699.0,556.75 692.125,565.75 683.125,574.75 671.875,583.625 658.875,591.875 644.625,599.5 629.625,606.0 614.5,611.5 599.875,615.875 586.0,619.125 573.5,621.5 562.125,623.125 552.25,624.0 543.75,624.25 536.375,624.0"/>
    <polyline points="530.125,623.375 524.75,622.5 516.5,619.875 510.5,616.5 506.125,612.625 501.375,606.5 489.75,584.0 485.625,577.375"/>
    <polyline points="484.5,575.75 481.125,571.5 478.625,569.0 474.875,565.625 470.75,562.75 466.5,560.375 460.125,557.75 453.25,555.75 447.75,554.625"/>
    <polyline points="445.75,554.375 430.5,552.75 399.5,551.0 389.0,549.875 381.375,548.625 373.125,546.75"/>
    <polyline points="368.625,545.625 359.25,542.5 354.25,540.375 343.375,534.875 337.5,531.125 331.375,526.625 324.75,521.25 317.875,514.75 310.5,506.75 302.75,497.125 294.5,485.25 285.875,470.875 276.875,453.375 267.75,432.0 258.75,406.25 250.375,375.625 243.5,339.5 239.125,298.375 239.0,253.375 244.875,207.25 258.5,164.5 280.625,130.625 310.5,110.875 345.5,107.75"/>
    <polyline points="382.0,120.625 416.625,145.5 447.0,177.25 471.875,211.125 491.375,243.75 505.875,273.125 516.25,298.5 523.25,319.875 527.375,337.25 529.375,351.5 529.625,362.875 528.625,372.0 526.375,379.25 523.5,385.25 520.0,390.125 516.125,394.125 512.125,397.625 493.625,411.0 488.75,415.75 485.375,420.375"/>
    <polyline points="484.375,422.75 483.625,425.125 483.125,429.75 483.75,434.375 485.875,441.25 492.625,454.25 500.125,465.875 506.0,474.0"/>
    <polyline points="507.125,475.5 514.625,484.375 521.5,490.75 525.375,493.5 532.25,497.0"/>
    <polyline points="533.25,497.375 539.375,499.125 547.375,500.25 552.375,500.5 563.625,500.375"/>
    <polyline points="565.125,500.25 595.625,498.625 610.375,498.375 618.625,498.75"/>
    <polyline points="621.5,498.875 627.375,499.375 639.75,501.5 646.125,503.25 652.5,505.625 658.625,508.75 661.625,510.75 667.0,515.5 669.25,518.25 671.25,521.375 672.75,524.875 673.75,528.75 674.0,532.875 673.625,537.375 672.375,542.25 670.125,547.25 667.0,552.5 662.75,557.75"/>
    <polyline points="657.5,563.0 651.25,568.125 644.125,573.0 636.375,577.5 628.0,581.5 619.375,585.125 610.625,588.125 602.0,590.625 593.625,592.5 585.625,593.875 578.125,594.75 571.125,595.125 558.75,594.625 553.5,594.0 544.25,591.75 536.875,588.75 533.625,587.125 530.75,585.25 525.75,581.5 519.625,575.625"/>
    <polyline points="517.875,573.625 513.25,568.0 502.125,553.125 497.75,548.0 492.375,542.75 488.0,539.375"/>
    <polyline points="486.875,538.625 478.75,534.25 472.25,532.0 462.125,529.625 451.875,528.0"/>
    <polyline points="450.0,527.75 435.375,525.5 425.625,523.625 414.5,520.75 408.25,518.75 398.125,514.625 390.75,511.0 382.875,506.25 378.625,503.25"/>
    <polyline points="374.25,500.0 365.0,492.0 355.125,481.375 349.875,474.875 344.625,467.5 339.125,459.0 333.625,449.25 328.25,438.25 322.75,425.625 317.625,411.5 313.0,395.625 308.875,378.0 305.875,358.75 304.125,338.375 304.125,317.0 306.375,295.75 311.125,275.5 318.75,257.375 329.125,242.875 342.125,232.875 357.125,228.25 373.5,229.125 390.375,235.0 407.0,245.125"/>
    <polyline points="422.75,258.375 437.125,273.75 449.875,289.875 461.125,306.25 470.75,322.0 478.875,337.0 485.875,350.75 491.75,363.25 501.0,384.5 513.0,414.625 520.875,433.25 524.125,439.75 527.25,445.0 530.25,449.25 533.375,452.75"/>
    <polyline points="534.875,454.375 539.5,458.25 542.625,460.25 547.625,462.75 554.5,465.0 558.125,465.75 565.75,466.5 571.75,466.5 580.0,465.75"/>
    <polyline points="582.25,465.375 593.25,462.75 602.125,459.25 608.5,455.875 614.375,451.5 616.125,449.75 619.0,445.875 620.875,441.375 621.25,438.875 621.25,436.125 620.75,433.25 619.5,430.125 617.625,426.75"/>
    <polyline points="614.875,423.25 611.0,419.5 606.0,415.75 599.75,411.75 592.0,407.875 582.75,404.0 572.0,400.375 559.625,397.0 546.125,394.25 531.5,392.125 516.5,390.875 501.5,390.375 487.0,390.75 473.75,391.75 462.0,393.5 452.125,395.5 444.0,397.875 437.875,400.375 433.25,402.875 430.125,405.25 428.125,407.625 427.0,409.875 426.625,411.875 426.75,414.0 428.125,417.75"/>
    <polyline points="429.0,419.625 433.375,426.75 436.25,432.125 437.75,435.5 440.0,442.125 440.625,445.125 440.875,450.75 440.625,453.25 439.375,457.5"/>
    <polyline points="438.875,458.375 437.0,460.75 433.75,463.0 430.75,463.875 427.25,464.125 423.125,463.625 417.125,461.5 412.0,458.75 408.5,456.25"/>
    <polyline points="406.625,454.875 399.0,447.5 395.125,442.75 389.5,434.125 384.25,423.625 382.75,419.875 380.125,411.625 378.125,402.75 377.0,393.75 376.875,389.25 377.125,384.75 378.375,376.375 381.125,369.25"/>
    <polyline points="383.0,366.25 385.25,363.625 387.75,361.75 390.625,360.25 393.625,359.5 397.0,359.25 400.375,359.75 404.0,360.75 407.625,362.375 411.375,364.5 415.125,367.125 422.25,373.375 425.75,377.0 429.125,380.875 435.375,389.125 441.0,397.625 446.0,406.0 450.375,414.25 455.75,425.75"/>
    <polyline points="457.375,429.375 460.125,436.125 463.375,445.375 465.875,453.375 467.625,460.5 468.75,466.625 469.375,472.0 469.375,476.625 469.0,480.625 468.375,483.0"/>
    <polyline points="468.125,484.125 466.25,488.125 464.375,490.625 462.125,492.75 459.375,494.5 456.25,495.875 451.375,497.25 444.0,498.0"/>
    <polyline points="442.375,498.0 433.25,497.25 427.0,496.0 417.625,493.0 409.75,489.5 401.125,484.375 395.0,480.0 388.375,474.375 385.0,471.125 378.125,463.375"/>
    <polyline points="374.5,458.875 370.875,453.875 363.75,442.125 356.75,428.125 353.5,420.0 350.5,411.375 347.75,402.0 345.5,392.0 343.625,381.5 342.5,370.5 342.125,359.375 342.625,348.25 344.125,337.375 346.75,327.25 350.5,318.0 355.375,310.125 361.375,304.0 368.375,299.75 376.125,297.625 384.5,297.75 393.25,299.875 402.125,303.875 411.0,309.5 419.5,316.5"/>
    <polyline points="427.625,324.5 435.25,333.125 442.375,342.125 448.875,351.25 460.125,369.125 465.0,377.625 473.375,393.375 499.125,446.75 505.75,459.125 510.25,466.375"/>
    <polyline points="511.75,468.5 514.5,472.375 519.75,478.625 527.375,485.375 529.875,487.125 535.0,490.0 540.25,492.125 544.25,493.25"/>
    <polyline points="545.75,493.625 553.0,494.875 560.875,495.5 573.375,495.5 590.25,494.75"/>
    <polyline points="592.625,494.625 605.25,494.125 619.625,494.0 632.375,494.625 642.75,495.875 650.125,497.375 657.5,499.375 661.25,500.75 668.75,504.125 672.375,506.375"/>
    <polyline points="675.75,508.875 679.0,511.75 682.0,515.0 684.5,518.75 686.5,523.0 687.75,527.75 688.125,533.0 687.5,538.75 685.75,544.875 682.625,551.375 678.0,558.125 671.875,564.875 664.375,571.625 655.5,578.125 645.625,584.125 634.875,589.5 623.75,594.25 612.5,598.25 601.375,601.5 580.875,605.75 571.75,606.75 563.375,607.375 556.0,607.375 549.25,607.0 543.375,606.25"/>
    <polyline points="538.25,605.25 533.625,603.875 526.0,600.75 520.125,597.0 515.375,593.0 509.625,586.75 496.0,567.625 489.875,560.125"/>
    <polyline points="488.75,558.875 483.75,554.125 479.875,551.125 471.5,546.375 467.0,544.5 460.625,542.5 451.625,540.375"/>
    <polyline points="449.75,540.0 416.375,534.625 403.75,531.625 389.25,526.75 381.125,523.125 376.875,520.875"/>
    <polyline points="372.25,518.25 362.625,511.75 352.125,502.875 340.75,491.0 334.625,483.375 328.375,474.625 321.875,464.375 315.25,452.375 308.5,438.375 302.0,422.125 295.625,403.375 290.0,382.0 285.375,358.0 282.375,331.625 281.625,303.5 283.875,274.625 289.75,246.875 300.0,222.125 314.5,202.75 332.875,190.625 354.0,186.75 376.625,191.25 399.125,203.0"/>
    <polyline points="420.5,219.875 439.625,240.125 456.25,261.625 470.375,283.0 481.875,303.25 491.375,321.875 498.875,338.5 504.875,353.25 513.375,377.0 516.375,386.5 520.375,401.625 522.875,412.75 527.5,436.375 529.125,441.125"/>
    <polyline points="529.75,442.5 531.125,445.0 533.5,448.25 536.375,451.0 541.875,454.75 544.375,456.0 548.5,457.5 555.75,459.25 558.75,459.5"/>
    <polyline points="560.375,459.625 565.25,459.75 571.75,459.125 580.125,457.0 584.875,455.0 589.25,452.25 591.75,450.125 594.625,446.125 595.75,443.125"/>
    <polyline points="595.875,441.375 595.5,437.625 593.625,433.5 590.0,429.125 587.375,426.75 584.125,424.375 575.875,419.625 570.75,417.375 564.875,415.25 551.375,411.375 536.0,408.625 519.875,407.375 512.0,407.25 497.375,408.25 490.875,409.25 485.25,410.5 480.375,412.125 476.25,413.875"/>
    <polyline points="472.875,415.75 470.375,417.75 468.5,419.875 467.125,422.0 466.0,426.5 466.375,431.125 467.625,435.75 469.5,440.375 477.125,456.0 483.375,469.75"/>
    <polyline points="484.125,471.5 487.875,482.25 489.375,488.375 490.0,493.375 490.0,496.625 489.5,499.5"/>
    <polyline points="489.25,500.125 488.375,502.375 486.125,505.25 483.625,507.125 481.75,508.125 476.625,509.875"/>
    <polyline points="475.75,510.125 471.0,511.125 461.625,512.125 453.0,512.25 442.375,511.5"/>
    <polyline points="440.5,511.25 429.625,509.5 422.375,507.625 417.0,505.875 411.375,503.75 405.25,501.0 398.75,497.5 388.125,490.375 380.5,484.0 372.5,475.875 368.25,471.125 364.0,465.625"/>
    <polyline points="359.625,459.625 355.25,452.75 350.875,445.125 346.5,436.5 342.25,427.0 338.25,416.5 334.5,405.0 331.25,392.375 328.5,378.875 326.625,364.5 325.75,349.5 326.125,334.375 328.0,319.375 331.375,305.25 336.625,292.5 343.5,282.0 352.125,274.0 362.125,269.25 373.25,267.75 385.0,269.625 397.0,274.375 408.875,281.75 420.25,291.125 431.0,302.0 440.75,313.5 449.625,325.5"/>
    <polyline points="457.625,337.375 464.75,349.0 471.0,360.0 476.5,370.5 489.5,397.25 506.25,433.375 512.375,445.125 517.875,454.125 521.375,459.0 526.5,464.875 529.875,468.125"/>
    <polyline points="531.5,469.5 534.875,472.125 540.0,475.25 548.75,479.0 554.375,480.5 562.125,481.875 570.5,482.5 579.5,482.5"/>
    <polyline points="581.875,482.375 589.375,482.0 600.125,481.0 640.25,476.0 666.375,473.75"/>
    <polyline points="671.25,473.625 687.125,473.75 698.875,474.875 711.625,477.25 718.25,479.125 725.25,481.625 732.375,484.875 739.5,489.0 746.375,494.25 753.0,501.0 758.625,509.25 762.75,519.375 764.375,531.5 762.5,545.875 755.875,562.0 743.375,579.375 724.5,597.25 699.875,614.5 671.0,630.0 640.25,643.125 610.0,653.625 582.25,661.625"/>
    <polyline points="558.375,667.75 523.25,676.25 511.5,679.25 503.0,681.875 497.25,684.125 493.5,686.0 491.625,687.625 491.125,688.75 491.75,689.375 493.125,689.5 495.25,689.125 500.5,686.375 506.375,681.125 509.375,677.625 512.125,673.625 514.75,669.25 517.125,664.375 521.125,653.875 522.75,648.375 524.0,642.75 525.875,631.5"/>
    <polyline points="526.5,626.125 527.125,615.5 527.0,605.625 526.0,592.25 524.875,584.5 522.875,574.25 519.75,563.0 516.625,554.125 512.75,545.5"/>
    <polyline points="512.0,544.125 506.875,535.875 503.375,531.625 499.25,527.875 494.25,524.75"/>
    <polyline points="493.5,524.375 488.875,522.625 485.5,521.75 477.875,520.625 469.875,519.875"/>
    <polyline points="468.625,519.875 445.125,518.0 432.5,516.0 422.625,513.75"/>
    <polyline points="419.875,512.875 411.25,510.0 401.75,505.875 391.25,499.875 383.5,494.5 375.375,487.625 371.0,483.375 362.0,473.375 357.375,467.375 352.625,460.5 343.0,444.125 338.25,434.25 333.625,423.375 329.25,411.125 325.375,397.625 321.875,382.875"/>
    <polyline points="319.375,367.0 317.75,350.25 317.625,333.0 319.0,315.625 322.375,299.0 327.625,283.75 335.125,270.75 344.75,261.0 356.0,254.875 368.75,252.75 382.125,254.75 396.0,260.375 409.5,269.0 422.375,279.875 434.25,292.375 445.125,305.75 454.75,319.375 463.25,332.625 470.75,345.375 482.875,368.625 492.125,388.25 502.25,411.25"/>
    <polyline points="505.0,417.5 512.0,432.625 518.0,443.875 521.625,449.75 526.875,456.75 533.625,463.625 537.125,466.25 544.125,470.375 551.5,473.125"/>
    <polyline points="553.375,473.75 563.375,475.625 576.375,476.125 591.125,475.0 604.75,472.75 613.625,470.875"/>
    <polyline points="616.75,470.125 636.5,464.625 647.25,460.875 654.5,458.0 661.875,454.5 669.125,450.625 672.75,448.375 679.375,443.25 682.375,440.25 685.0,437.0 687.125,433.25 688.625,429.125 689.25,424.5 688.625,419.25 686.5,413.25"/>
    <polyline points="682.25,406.625 675.25,399.125 664.625,390.875 649.375,381.875 628.375,372.75 601.0,363.875 566.875,356.25 527.125,351.0 484.375,349.0 442.375,350.375 405.25,354.5 375.875,360.0 341.25,368.875 333.375,370.375 329.375,369.5 328.0,366.375 328.0,361.25 329.125,354.625 330.875,346.875 333.375,338.375 336.5,329.75 340.375,321.125 345.125,313.25 350.75,306.375 357.25,300.875"/>
    <polyline points="364.625,297.125 372.625,295.25 381.25,295.375 390.0,297.5 399.0,301.375 407.875,306.875 416.5,313.75 424.625,321.5 432.375,330.0 439.5,338.875 446.0,348.0 457.5,365.75 471.0,390.25 478.0,404.25 497.125,444.375"/>
    <polyline points="499.0,448.0 505.5,459.875 509.875,467.0 516.625,476.0 523.0,482.625 526.75,485.625 533.0,489.625"/>
    <polyline points="534.25,490.25 540.625,492.75 546.125,494.25 550.375,495.0 557.875,495.75 571.75,495.875"/>
    <polyline points="573.625,495.875 610.875,494.375 625.875,494.625 639.25,495.875"/>
    <polyline points="642.75,496.5 650.0,497.875 653.625,498.875 657.375,500.0 664.75,503.0 668.375,504.875 671.875,507.125 675.25,509.625 678.375,512.5 681.25,515.875 683.625,519.625 685.5,523.875 686.625,528.625 686.875,533.75 686.125,539.5 684.25,545.5 681.0,551.875 676.25,558.5 670.125,565.125 662.625,571.75 653.875,578.0 644.125,583.875 633.625,589.125 622.625,593.75"/>
    <polyline points="611.625,597.5 600.875,600.625 590.5,603.0 580.75,604.75 571.75,605.75 563.625,606.25 556.375,606.25 549.75,605.875 544.0,605.125 538.875,604.0 530.375,601.125 526.75,599.5 520.875,595.75 516.0,591.75 512.125,587.625 508.625,583.5 501.625,573.625"/>
    <polyline points="500.25,571.75 493.0,561.875 489.375,557.875 484.375,553.125 479.25,549.25 476.5,547.625 473.75,546.125 467.875,543.625"/>
    <polyline points="466.375,543.0 458.125,540.625 450.875,539.125 423.625,534.75 412.0,532.375"/>
    <polyline points="408.875,531.625 395.25,527.375 387.5,524.375 383.5,522.5 379.25,520.375 370.25,515.0 360.375,507.75 355.125,503.25 349.75,498.125 344.0,492.0 338.125,484.875 332.0,476.625 325.625,467.0 319.125,455.75 312.625,442.75 306.125,427.5 299.75,410.125 294.0,390.125 289.125,367.625 285.5,342.75"/>
    <polyline points="283.875,315.875 284.875,287.875 289.25,260.25 297.5,234.875 309.875,213.75 326.25,198.875 345.75,191.75 367.25,192.625 389.375,201.0 410.75,215.375 430.5,233.75 447.875,254.25 462.875,275.25 475.375,295.625 485.75,314.625 494.125,332.0 500.75,347.375 506.125,360.875 513.875,382.75 518.75,399.125 521.875,411.125 523.875,420.125"/>
    <polyline points="524.75,423.875 526.75,432.375 528.625,438.5 530.625,443.125 533.0,446.75 535.75,449.875 538.875,452.375 542.375,454.5 547.5,456.75"/>
    <polyline points="548.875,457.25 553.125,458.375 557.625,459.125 560.75,459.375 568.75,459.125 572.0,458.625 578.5,457.0 583.25,455.125 587.625,452.625"/>
    <polyline points="588.875,451.625 591.25,449.375 593.875,445.375 594.375,443.875 594.75,440.5 594.0,436.75 591.75,432.625 589.875,430.5 587.625,428.25 581.375,423.625 572.75,419.125 561.5,414.875 555.0,413.0 548.0,411.375 540.5,410.125 525.0,408.375"/>
    <polyline points="517.25,408.125 509.75,408.125 502.625,408.625 496.0,409.375 490.125,410.5 480.375,413.375 473.75,417.125 471.5,419.125 469.875,421.25 468.75,423.375 468.125,425.625 467.875,427.875 468.375,432.375 469.75,437.0 472.75,444.0 478.25,455.125"/>
    <polyline points="479.375,457.25 485.0,469.0 489.125,478.75 491.875,486.75 493.5,493.875"/>
    <polyline points="493.625,494.625 493.875,498.5 493.375,502.125 492.125,505.0 489.25,507.875"/>
    <polyline points="488.875,508.125 485.75,509.75 481.875,511.125 473.375,512.75 470.25,513.0"/>
    <polyline points="469.125,513.125 460.375,513.625 445.875,513.125 435.875,511.875 426.75,510.0"/>
    <polyline points="424.25,509.375 416.375,506.875 410.5,504.625 397.75,498.25 390.75,493.625 383.25,487.875 379.25,484.375 371.0,476.125 362.375,465.625 353.5,452.25 349.0,444.375 344.625,435.5 340.375,425.625 336.25,414.75 332.5,402.75"/>
    <polyline points="329.25,389.75 326.625,375.625 324.875,360.75 324.125,345.375 324.75,329.75 327.0,314.5 330.875,300.25 336.625,287.625 344.125,277.25 353.375,269.875 364.0,265.75 375.625,265.125 387.75,267.75 400.125,273.5 412.125,281.75 423.625,291.875 434.375,303.25 444.125,315.25 452.875,327.625 460.75,339.75 473.75,362.375 479.125,372.75 491.75,399.25"/>
    <polyline points="495.125,406.625 508.0,434.5 514.125,445.875 519.5,454.5 524.75,461.25 529.875,466.5 534.875,470.625 541.75,474.75 543.5,475.5"/>
    <polyline points="545.375,476.375 554.5,479.25 560.375,480.375 568.625,481.125 582.375,481.125 600.75,479.5"/>
    <polyline points="603.625,479.125 653.25,472.0 671.75,470.0 687.5,469.125 693.125,469.125 699.125,469.25 711.75,470.25"/>
    <polyline points="718.625,471.375 725.75,472.875 733.125,474.875 740.875,477.75 748.75,481.5 756.75,486.5 764.625,492.875 771.75,501.125 777.625,511.5 781.25,524.375 781.125,539.875 775.625,558.0 763.25,578.0 742.75,599.125 714.375,619.625 680.375,638.125 643.625,653.625 607.875,665.875 575.75,675.25 527.375,688.25 511.25,693.125 499.875,697.625 492.375,701.75 488.125,705.5 486.375,709.0"/>
    <polyline points="486.625,712.0 488.625,714.375 491.75,716.0 495.875,716.75 500.5,716.375 505.625,714.875 510.875,712.25 516.0,708.5 521.0,703.75 525.625,698.0 529.875,691.5 533.625,684.25 537.0,676.625 539.75,668.75 542.0,660.625 543.75,652.625 546.125,636.875 546.875,629.375 547.375,615.375 547.0,602.875 546.25,592.0 545.625,587.0"/>
    <polyline points="545.0,582.375 543.0,570.375 541.5,563.75 537.0,546.625 533.75,535.625 532.25,529.0"/>
    <polyline points="532.125,528.125 531.625,524.875 531.875,520.5 532.375,518.5 533.875,516.125 535.25,514.75"/>
    <polyline points="535.625,514.5 537.375,513.25 541.875,511.25 552.375,508.5"/>
    <polyline points="553.375,508.375 561.0,506.875 568.875,505.75 588.625,503.75"/>
    <polyline points="590.5,503.75 596.625,503.375 607.625,503.375 617.25,504.0 622.375,504.625 630.125,506.125 638.125,508.5 645.75,512.0 650.5,515.25"/>
    <polyline points="652.625,517.125 656.25,521.5 658.75,526.75 659.5,529.75 659.75,533.0 659.375,536.375 658.5,540.0 657.125,543.75 654.875,547.5 652.125,551.5 648.625,555.375 644.5,559.125 639.625,562.875 634.375,566.375 628.625,569.625 622.5,572.625 616.125,575.25 603.125,579.25 596.875,580.75 584.625,582.5 573.75,582.875"/>
    <polyline points="568.75,582.5 559.875,581.25 552.375,579.125 546.0,576.375 540.625,573.25 536.0,569.875 528.75,562.875 520.75,552.875 515.75,545.625"/>
  </g>
</svg>
