<?xml version="1.0" encoding="utf-8" ?>
<svg xmlns="http://www.w3.org/2000/svg" xmlns:cc="http://creativecommons.org/ns" xmlns:dc="http://purl.org/dc/elements/1.1/" xmlns:ev="http://www.w3.org/2001/xml-events" xmlns:inkscape="http://www.inkscape.org/namespaces/inkscape" xmlns:rdf="http://www.w3.org/1999/02/22-rdf-syntax-ns" xmlns:sodipodi="http://sodipodi.sourceforge.net/DTD/sodipodi-0.dtd" xmlns:xlink="http://www.w3.org/1999/xlink" baseProfile="tiny" height="27.09333333cm" version="1.2" viewBox="0 0 1024.0 1024.0" width="27.09333333cm">
  <metadata>
    <rdf:RDF>
      <cc:Work>
        <dc:format>image/svg+xml</dc:format>
        <dc:source>vpype read './original_svgs/Strange Attractors #397.svg' linemerge linesimplify write './Strange Attractors #397.svg'
</dc:source>
        <dc:date>2024-08-05T01:35:55.892519</dc:date>
      </cc:Work>
    </rdf:RDF>
  </metadata>
  <defs/>
  <g fill="none" id="layer1" inkscape:groupmode="layer" inkscape:label="1" stroke="black" stroke-width="0.7mm" style="display:inline">
    <polyline points="260.25,408.75 265.125,385.625 264.25,367.875 258.875,354.875 250.625,346.25 241.0,342.25 231.25,342.5 223.125,347.375 217.875,356.5 216.125,369.625 218.5,385.75 224.625,404.125 234.125,423.625 246.0,443.125 259.25,462.0 273.125,479.375 287.0,495.125 300.25,509.125 312.75,521.125 324.25,531.5 334.75,540.125 344.25,547.25 352.875,553.25 360.625,558.125 374.125,565.25"/>
    <polyline points="379.875,567.625 390.25,571.125 399.125,573.125 410.375,574.625 437.75,575.875 445.75,577.25 449.375,578.25 452.5,579.5"/>
    <polyline points="454.125,580.125 456.875,581.75 460.625,584.625 463.625,588.0 465.375,590.625 467.375,595.125 468.625,600.125 469.125,604.0 469.125,608.125 468.375,615.0 467.125,620.0"/>
    <polyline points="466.25,622.75 464.0,628.625 460.75,634.875 458.75,638.375 453.75,645.625 447.0,653.625 438.375,662.375 427.0,671.875 420.25,677.0 403.875,687.375 394.25,692.75 383.5,697.875 371.75,702.875 359.0,707.375 345.375,711.125 331.25,713.875 316.875,715.25 302.75,714.75 289.625,711.875"/>
    <polyline points="278.25,706.5 269.125,698.375 262.875,687.375 260.0,674.0 260.375,658.5 263.75,641.625 269.875,624.0 277.875,606.375 287.25,589.375 297.5,573.25 307.875,558.5 318.125,545.125 328.0,533.25 337.375,522.75 354.0,505.875 361.25,499.125 374.0,488.5 379.5,484.25 389.125,477.875 397.125,473.25 404.0,470.0"/>
    <polyline points="407.0,468.625 414.75,465.75 424.625,462.625 431.5,459.875 435.25,457.375 436.625,456.0 438.375,452.75 438.75,451.0"/>
    <polyline points="438.75,450.0 438.25,445.75 436.875,442.125 434.625,438.125 431.5,433.875 428.75,430.75 422.0,424.375 415.5,419.375 407.875,414.5"/>
    <polyline points="405.0,412.875 399.0,409.875 392.625,407.25 385.875,405.125 379.125,403.5 375.75,403.0 369.125,402.875 366.125,403.125 360.625,404.625 358.25,405.75 356.25,407.25 354.625,409.125 353.375,411.25 352.5,413.625 352.125,416.375 352.125,419.25 352.625,422.375 353.5,425.625 356.5,432.5"/>
    <polyline points="358.625,436.0 363.625,442.875 369.625,449.5 373.0,452.75 383.375,461.25 390.625,466.0 401.25,471.875 408.125,474.875 414.625,477.25 420.875,479.125 429.375,481.125 437.0,482.125"/>
    <polyline points="439.25,482.25 443.625,482.5 449.5,482.25 453.0,481.875 458.875,480.5 463.5,478.5 466.125,476.625 468.25,474.375 470.125,471.0"/>
    <polyline points="470.5,470.125 471.125,466.0 471.125,463.625 470.25,458.625 468.875,454.25 466.875,449.5 462.875,442.25 458.75,436.125 455.25,431.625"/>
    <polyline points="453.375,429.25 446.375,421.75 437.625,413.5 430.375,407.625 421.875,401.375 417.125,398.125 406.5,391.75 394.375,385.375 387.625,382.375 380.625,379.5 365.5,374.5 357.625,372.625 349.625,371.25 341.625,370.5 334.0,370.5 326.625,371.375 320.0,373.25"/>
    <polyline points="314.125,376.125 309.375,380.125 305.875,385.125 303.625,391.125 302.875,398.125 303.5,405.75 305.625,414.0 308.875,422.5 313.25,431.25 318.5,439.875 324.5,448.375 331.0,456.375 337.875,464.0 344.875,471.125 352.0,477.625 359.0,483.5 366.0,488.75 379.25,497.75 391.625,504.75 402.875,510.125 418.0,515.75"/>
    <polyline points="422.5,517.25 434.875,520.375 448.875,523.0 487.375,528.25"/>
    <polyline points="488.75,528.625 497.0,530.875 500.875,532.5 508.0,536.875 511.25,539.875"/>
    <polyline points="512.0,540.5 517.625,547.0 525.125,556.875 529.375,561.875"/>
    <polyline points="530.375,562.875 535.875,568.125 541.5,572.125 546.75,574.75 551.0,576.25 555.75,577.5 558.375,578.0 564.375,578.5 571.375,578.25 579.625,577.25 589.125,575.125"/>
    <polyline points="594.5,573.5 606.375,569.125 619.875,562.75 634.75,554.375 650.625,543.875 666.25,531.375 673.75,524.5 680.5,517.625 686.375,510.625 691.375,503.875 695.0,497.5 697.25,491.75 698.125,486.625 697.5,482.375 695.5,479.0 692.25,476.625 688.0,475.0 682.75,474.375 676.875,474.375 670.5,474.875 663.875,476.0"/>
    <polyline points="657.125,477.375 643.75,480.75 613.75,489.375 598.875,493.25 590.375,495.125 579.125,497.0 569.5,498.0 561.375,498.25 552.0,497.75"/>
    <polyline points="550.0,497.5 540.875,495.875 532.25,493.125 525.25,489.5 521.25,486.625 517.75,483.375"/>
    <polyline points="516.875,482.5 513.5,478.75 508.75,472.125 495.0,448.875"/>
    <polyline points="493.75,446.875 484.75,433.0 478.75,424.75 473.875,418.625 464.75,408.25 457.0,400.375 452.5,396.25 442.0,387.25 435.75,382.375 421.25,372.0 403.125,360.75 392.5,355.0"/>
    <polyline points="380.75,349.125 367.75,343.5 353.625,338.0 338.375,333.125 322.375,329.125 305.875,326.5 289.375,325.5 273.625,327.0 259.625,331.125 248.25,338.375 240.125,348.875 236.125,362.5 236.25,378.5 240.375,396.5 247.875,415.375 258.0,434.375 269.75,452.75 282.5,469.875 295.375,485.5 308.0,499.5 320.125,511.625 331.375,522.25 341.75,531.125 351.25,538.75 359.875,545.125 367.75,550.375"/>
    <polyline points="375.0,554.75 381.5,558.375 392.875,563.75 402.5,567.25 410.875,569.625 418.125,571.125 435.375,573.875 444.25,575.625 450.0,577.375 454.875,579.5"/>
    <polyline points="456.25,580.25 460.25,583.0 464.625,587.625 467.125,591.625 469.375,598.0 470.25,603.625 470.0,612.25 469.125,617.125 467.625,622.5"/>
    <polyline points="466.625,625.375 462.375,634.625 460.375,638.125 455.5,645.375 449.0,653.5 440.5,662.25 429.375,672.0 422.625,677.125 415.0,682.375 406.375,687.875 396.75,693.25 385.875,698.75 374.0,704.0 361.0,708.875 347.125,713.0 332.5,716.125 317.5,718.0 302.75,717.875 288.75,715.5 276.5,710.375"/>
    <polyline points="266.5,702.375 259.625,691.375 256.125,677.625 256.125,661.75 259.375,644.25 265.5,626.0 273.75,607.625 283.375,589.875 293.875,573.125 304.625,557.75 315.25,543.75 325.375,531.5 334.875,520.625 343.75,511.25 351.75,503.125 359.125,496.25 371.75,485.375 386.75,474.625 398.0,468.375 404.125,465.625"/>
    <polyline points="406.875,464.625 413.75,462.125 425.375,458.625 428.75,457.125 430.625,456.0 433.25,453.5 434.5,451.25 435.0,448.625"/>
    <polyline points="435.0,447.625 434.5,444.625 432.625,440.125 429.25,435.0 424.25,429.375 415.5,422.0 408.75,417.625 403.75,414.875"/>
    <polyline points="401.125,413.5 389.75,409.0 383.75,407.5 377.875,406.625 375.0,406.5 369.75,406.875 365.0,408.25 363.0,409.375 359.875,412.25 358.875,414.125 358.125,416.125 357.75,418.5 357.75,421.0 358.875,426.375 361.375,432.25 363.125,435.25"/>
    <polyline points="365.125,438.25 372.5,447.125 378.375,452.625 384.5,457.5 394.125,463.875 403.75,468.75 415.75,473.5 421.25,475.0 429.0,476.625 435.875,477.375"/>
    <polyline points="438.0,477.5 443.75,477.375 448.75,476.75 453.0,475.625 457.5,473.625 460.125,471.625 462.125,469.25 463.75,465.625 464.125,463.5"/>
    <polyline points="464.25,462.5 464.0,457.625 463.0,453.5 460.5,447.375 456.5,440.25 452.25,434.25 448.625,429.875 442.125,422.875 436.75,417.875"/>
    <polyline points="433.75,415.25 427.0,409.75 414.75,401.25 405.125,395.625 394.125,390.0 381.875,384.875 375.375,382.75 361.875,379.125 355.0,378.0 348.125,377.5 341.5,377.5 335.25,378.25 329.5,379.75 324.375,382.125 320.125,385.25 316.875,389.375 314.625,394.25 313.5,399.875 313.625,406.25"/>
    <polyline points="314.75,413.0 317.125,420.125 320.375,427.5 324.5,435.0 329.25,442.375 334.625,449.5 346.5,462.75 359.0,474.25 365.375,479.375 377.625,488.125 389.375,495.125 400.25,500.625 410.25,504.875 423.75,509.375 439.125,513.0"/>
    <polyline points="442.625,513.625 451.875,515.0 462.5,516.125 491.875,518.125"/>
    <polyline points="492.875,518.25 498.25,518.875 502.375,519.75 506.125,521.0 508.75,522.375"/>
    <polyline points="509.125,522.625 512.5,525.375 514.0,527.125 516.75,531.375"/>
    <line x1="517.0" x2="526.25" y1="531.875" y2="548.25"/>
    <polyline points="526.75,549.0 532.625,557.125 539.25,563.75 543.0,566.375 547.625,569.0 553.0,571.125"/>
    <polyline points="555.125,571.625 559.75,572.625 565.125,573.125 571.25,573.125 578.375,572.375 591.125,569.5 595.875,568.0 606.5,563.875 612.25,561.25 624.625,554.875 631.125,551.0 644.5,542.125 651.125,537.125 663.625,526.125 669.25,520.5 674.25,514.75"/>
    <polyline points="678.375,509.25 681.75,503.875 683.875,499.0 685.0,494.5 685.0,490.75 683.875,487.5 681.75,485.0 678.625,483.25 674.75,482.125 670.125,481.5 665.125,481.5 659.625,482.0 648.125,483.75 625.125,489.125 609.625,493.25 587.875,498.25"/>
    <polyline points="584.125,498.875 577.125,500.125 567.875,501.25 557.5,501.875 551.0,501.875 543.5,501.375 535.75,500.25 530.75,499.0"/>
    <polyline points="529.625,498.625 523.625,496.25 518.625,493.25 513.875,489.125 510.25,484.75"/>
    <polyline points="509.625,483.875 506.125,478.5 492.125,452.875"/>
    <polyline points="491.0,451.0 486.125,442.875 475.875,428.125 468.625,419.25 459.25,409.125 446.875,397.5 436.375,388.875 423.5,379.5 407.625,369.5"/>
    <polyline points="398.5,364.375 388.375,359.125 377.25,353.875 365.125,349.0 352.25,344.375 338.5,340.375 324.125,337.375 309.625,335.5 295.375,335.25 282.0,337.125 270.125,341.25 260.5,348.0 253.875,357.375 250.375,369.25 250.375,383.125 253.625,398.625 259.875,415.0 268.25,431.5 278.375,447.625 289.5,462.875 301.0,477.0 312.5,489.75 323.625,501.0 334.25,511.0 344.25,519.5 353.625,526.875"/>
    <polyline points="362.25,533.125 377.625,542.875 384.375,546.5 390.625,549.625 401.75,554.25 415.75,558.75 430.625,562.125 447.625,565.25 454.5,567.0 460.375,568.875"/>
    <polyline points="462.125,569.625 467.125,572.0 471.375,574.875 474.0,577.0 476.25,579.375 479.375,583.375 482.0,587.875 484.125,592.875 485.875,598.5 487.0,604.875"/>
    <polyline points="487.375,607.125 487.75,614.5 487.5,619.875 486.375,628.75 485.0,635.375 482.625,642.625 479.375,650.75 477.125,655.125 471.5,664.625 467.75,669.875 458.25,681.375 452.0,687.875 444.75,694.75 436.0,702.125 425.625,710.125 413.375,718.625"/>
    <polyline points="398.875,727.625 381.875,737.0 362.25,746.5 339.625,755.625 314.375,763.875 287.0,770.0 258.875,772.75 231.625,770.625 207.875,762.0 190.25,746.0 180.75,722.5 180.125,692.875 187.5,659.375 201.125,624.5 218.125,590.625 236.375,559.375 254.0,531.5 303.875,456.875 316.125,437.0 324.625,421.75"/>
    <polyline points="326.125,419.5 327.25,418.5 328.25,418.5 329.375,419.25 338.625,432.5 344.875,440.125 356.25,451.875 364.875,459.25 378.375,469.125 387.375,474.5 400.375,481.0 408.5,484.25"/>
    <polyline points="412.375,485.625 423.25,488.875 429.75,490.375 444.125,492.375 455.5,492.625 461.25,492.25 467.5,491.25 471.5,490.25"/>
    <polyline points="472.625,489.75 474.75,489.0 477.5,487.5 479.75,485.75 482.0,483.25 483.125,481.0 484.125,477.75 484.375,475.0 484.25,472.0"/>
    <polyline points="484.125,471.0 483.25,466.25 481.625,460.875 476.5,449.625 471.875,441.875 468.875,437.5 461.375,427.75"/>
    <polyline points="459.125,425.125 454.0,419.5 447.75,413.375 436.375,403.375 426.875,396.125 415.625,388.5 402.25,380.75 394.75,376.75 378.0,369.25 368.875,365.875 359.125,362.75 349.125,360.25 339.0,358.375 328.75,357.375 318.875,357.375 309.5,358.75 301.125,361.375 294.0,365.625"/>
    <polyline points="288.5,371.375 284.75,378.625 283.125,387.375 283.5,397.125 285.875,407.75 290.125,419.0 295.75,430.25 302.625,441.5 310.25,452.375 318.5,462.625 327.125,472.25 335.75,481.0 344.375,488.875 360.75,502.125 368.5,507.5 382.75,516.5 395.625,523.0 412.25,529.875 426.375,534.125"/>
    <polyline points="430.5,535.125 438.25,536.875 467.125,542.0 473.5,543.375 482.5,546.0 490.0,549.125"/>
    <polyline points="491.375,549.875 497.5,553.75 501.875,557.375 505.875,561.375 510.875,567.0 518.25,576.0"/>
    <polyline points="519.375,577.375 527.375,585.875 532.5,590.0 536.5,592.625 541.25,595.0 546.875,597.0 553.625,598.375 557.5,598.875 561.75,599.0 571.875,598.5 584.125,596.25 599.5,591.625"/>
    <polyline points="608.375,588.25 618.25,584.0 629.0,578.625 640.75,572.25 653.375,564.625 666.625,555.75 680.5,545.5 694.5,534.25 708.0,522.0 720.625,509.25 731.5,496.25 740.0,483.875 745.75,472.5 748.125,462.75 747.25,455.0 743.25,449.5 736.625,446.375 728.0,445.375 718.125,446.0 707.5,448.0 696.625,451.125 686.0,454.75 666.125,462.625 649.0,470.25"/>
    <polyline points="641.5,473.625 628.375,479.5 612.625,485.75 604.0,488.5 593.25,491.0 587.0,491.75 581.5,492.0 574.0,491.625 565.25,490.125 557.625,487.75"/>
    <polyline points="555.875,487.125 551.0,485.0 546.5,482.5 541.125,478.875 537.375,475.75 532.875,471.25 529.75,467.5 525.0,460.375"/>
    <polyline points="524.0,458.875 518.375,448.625 503.5,417.625 496.125,404.375 491.25,396.75"/>
    <polyline points="488.375,392.625 485.125,388.125 477.375,378.5 467.125,367.375 453.5,354.5 444.875,347.25 434.75,339.375 422.75,330.75 408.625,321.5 391.875,311.5 372.125,300.875 348.875,289.875 322.0,278.875 291.5,268.75 257.875,260.75 222.875,256.75 189.25,259.0 160.75,269.75 141.375,290.25 134.375,320.5 139.875,358.125 156.125,399.5 178.875,440.875"/>
    <polyline points="204.25,479.25 229.0,513.125 296.375,599.75 311.25,620.5 318.5,631.5 320.5,634.125 321.875,635.125 323.0,634.75 324.0,633.125 331.5,618.125 334.5,612.875 341.875,601.75 350.875,590.5 355.75,585.0 366.0,574.75"/>
    <polyline points="371.125,570.0 381.625,561.625 391.875,554.375 406.25,546.0 415.25,541.75 423.5,538.375 431.25,535.75 438.375,533.75 451.0,531.125 456.625,530.375 466.375,529.625"/>
    <polyline points="468.625,529.5 474.75,529.5 483.375,530.125 490.5,531.375 497.375,533.5 503.0,536.25"/>
    <polyline points="503.875,536.75 507.125,539.0 512.125,543.5 514.875,546.5 521.875,555.25"/>
    <polyline points="522.625,556.25 528.625,563.375 532.875,567.625 539.75,572.875 543.0,574.75 548.875,577.25 556.25,579.25 559.125,579.625"/>
    <polyline points="562.125,579.875 569.0,580.0 581.625,578.375 591.875,575.75 603.75,571.625 617.375,565.625 624.875,561.75 640.75,552.25 649.125,546.625 657.5,540.5 665.75,533.875 673.75,526.875 681.125,519.625 687.75,512.25 693.25,505.0 697.625,498.125 700.5,491.75 701.875,486.125 701.625,481.375"/>
    <polyline points="699.875,477.625 696.75,474.875 692.375,473.125 687.125,472.25 681.125,472.125 674.5,472.75 667.625,473.875 653.5,477.0 615.5,488.125 600.375,492.25 583.875,495.625 570.5,497.125"/>
    <polyline points="567.625,497.25 555.0,497.0 543.25,495.125 538.375,493.75 534.125,492.125 527.875,489.0 524.625,486.75"/>
    <polyline points="523.5,486.0 518.75,481.875 512.625,474.75 509.25,470.0 501.25,456.625"/>
    <polyline points="500.125,454.875 493.125,443.0 485.125,430.875 478.75,422.25 470.625,412.375 459.875,401.0 450.625,392.375 439.25,382.875 432.625,377.875"/>
    <polyline points="425.125,372.5 416.75,366.875 396.75,355.125 385.125,349.125 372.125,343.0 358.0,337.25 342.5,331.875 326.125,327.25 309.0,323.875 291.625,322.25 274.875,322.75 259.5,326.125 246.625,332.75 237.125,342.875 231.75,356.25 230.75,372.5 234.25,391.0 241.5,410.75 251.625,430.625 263.625,450.0 276.875,468.25 290.25,484.875 303.375,499.625 316.0,512.625 327.625,523.75"/>
    <polyline points="338.375,533.25 348.125,541.25 364.875,553.5 378.625,561.75 390.0,567.25 395.0,569.25 407.75,573.125 421.125,575.625 436.375,577.625 444.25,579.375"/>
    <polyline points="446.0,580.0 450.875,581.875 456.125,585.25 460.25,589.625 462.625,593.625 464.25,598.25 465.125,603.5 465.0,609.5 464.375,614.0"/>
    <polyline points="463.875,616.25 462.375,621.375 460.125,626.875 457.0,632.875 452.75,639.5 447.125,646.625 439.875,654.375 430.625,662.75 418.75,671.875 411.75,676.5 404.0,681.25 395.25,685.875 385.75,690.5 375.375,694.875 364.125,698.75 352.25,702.125 339.875,704.625 327.375,705.875"/>
    <polyline points="315.125,705.625 303.5,703.625 293.0,699.5 284.375,693.25 277.875,684.625 274.125,673.875 273.0,661.25 274.5,647.125 278.5,632.125 284.375,616.75 291.875,601.5 300.5,586.875 309.625,573.0 319.0,560.25 328.25,548.625 337.25,538.25 354.0,521.0 368.625,507.875 381.25,498.125 386.875,494.25 392.0,490.875 401.125,485.625"/>
    <polyline points="405.25,483.5 418.875,477.625 440.375,470.0 444.375,468.0 446.625,466.5 449.125,464.25 451.0,461.625"/>
    <polyline points="451.5,460.625 452.125,458.625 452.5,455.375 452.25,453.0 451.375,449.125 449.625,444.75 446.875,439.875 443.25,434.625 438.375,428.875 432.0,422.625"/>
    <polyline points="429.625,420.5 424.125,416.0 414.5,409.125 402.875,402.375 394.0,398.125 384.375,394.375 374.25,391.5 369.125,390.375 358.875,389.25 354.0,389.375 349.375,389.875 345.125,391.0 341.25,392.625 337.875,394.875 335.25,397.625 333.25,400.875 332.0,404.75"/>
    <polyline points="331.5,409.0 331.75,413.75 332.75,418.75 334.5,424.0 337.0,429.375 340.0,434.75 343.5,440.25 347.5,445.5 356.5,455.625 361.25,460.25 371.125,468.75 376.25,472.5 386.125,479.0 395.75,484.5 404.75,488.75 413.375,492.125 421.25,494.75 428.625,496.75"/>
    <polyline points="432.125,497.5 438.5,498.75 447.25,499.875 457.125,500.5 465.375,500.5 472.125,500.0 476.375,499.375 482.125,498.0"/>
    <polyline points="483.125,497.75 487.25,496.0 491.125,493.0 492.25,491.5 493.375,489.25 494.125,485.25"/>
    <polyline points="494.125,484.5 493.5,477.875 492.25,472.875 490.25,466.875 485.75,456.75"/>
    <polyline points="484.875,455.0 479.875,445.875 472.5,434.75 466.5,427.0 458.875,418.375 449.0,408.5 440.75,401.25 430.75,393.5 418.875,385.125"/>
    <polyline points="412.0,380.875 396.375,372.125 387.5,367.75 378.0,363.5 367.75,359.5 356.875,355.875 345.5,352.75 333.75,350.375 322.0,349.0 310.5,348.875 299.625,350.375 289.875,353.375 281.75,358.375 275.5,365.375 271.75,374.125 270.375,384.5 271.5,396.25 275.125,409.0 280.625,422.125 287.875,435.375 296.25,448.25 305.375,460.5 315.0,471.875 324.75,482.25 334.375,491.625"/>
    <polyline points="343.625,499.875 352.625,507.25 361.0,513.625 369.0,519.125 383.625,527.875 396.375,534.25 407.625,538.75 422.125,543.375 437.75,547.0 456.0,550.375 463.25,552.0"/>
    <polyline points="465.5,552.5 469.625,553.625 478.625,556.875 483.25,559.25 487.375,561.875 493.5,567.0 499.0,573.125 501.0,575.875"/>
    <polyline points="502.0,577.25 513.375,595.125 517.125,600.75 521.5,606.5 525.0,610.25 529.125,614.0 534.0,617.375 536.875,619.0 540.125,620.375"/>
    <polyline points="543.75,621.75 552.375,623.5 557.625,623.875 563.625,623.875 570.5,623.25 578.375,621.875 587.5,619.75 598.0,616.5 610.0,612.0 624.0,605.875 639.75,598.0 657.75,587.875 677.75,575.25 699.5,560.0 722.5,542.125 745.625,521.75 767.5,499.625 786.25,477.125 800.0,455.625 807.25,436.875 807.375,422.375 801.0,413.125 789.125,408.875 773.875,409.25 757.0,413.0"/>
    <polyline points="740.0,419.125 723.875,426.625 709.375,434.625 696.625,442.625 685.75,450.375 668.875,464.0 657.125,475.25 642.25,491.0 636.75,496.25 631.5,500.125 629.0,501.625 621.0,504.625 615.375,505.625 606.625,506.0"/>
    <polyline points="603.75,505.875 589.25,504.375 573.25,501.25 557.375,497.125 544.625,492.5"/>
    <polyline points="543.125,491.875 533.125,486.625 527.125,482.25 521.875,477.25 517.875,472.75 514.125,467.625"/>
    <polyline points="513.125,466.25 491.875,431.375 486.0,422.75 475.625,409.375"/>
    <polyline points="472.375,405.625 460.375,393.125 449.875,383.5 443.625,378.25 428.625,366.875 409.5,354.25 398.0,347.5 385.0,340.625 370.5,333.75 354.375,327.0 336.625,320.625 317.5,315.125 297.375,311.125 277.0,309.25 257.375,310.25 239.625,314.75 225.375,323.625 215.75,336.875 211.5,354.25 213.125,374.875 219.75,397.75"/>
    <polyline points="230.5,421.5 244.125,444.75 259.25,466.75 274.75,486.75 289.75,504.5 303.875,519.875 316.75,532.875 328.375,544.0 338.75,553.125 355.875,566.75 369.25,575.75 374.875,578.875 379.875,581.25 388.5,584.625 395.75,586.375 402.0,587.125 407.5,587.375 414.875,587.25"/>
    <polyline points="417.125,587.125 421.375,586.875 430.625,587.0 437.0,588.0 439.75,589.0 443.375,590.75 446.375,593.125 448.75,596.125 450.375,599.75"/>
    <polyline points="450.75,601.125 451.125,602.5 451.375,607.125 450.25,614.5 446.75,623.0 443.875,627.875 440.25,633.0 432.625,641.5 426.125,647.5 418.0,653.625 408.375,660.0"/>
    <polyline points="402.875,663.0 390.5,668.875 376.75,673.875 361.75,677.25 354.125,678.0 346.625,678.0 339.375,677.25 332.625,675.375 326.5,672.5 321.375,668.5 317.375,663.375 314.625,657.25 313.25,650.0 313.125,642.0 314.375,633.375 316.875,624.25 320.5,615.0 325.125,605.625 330.375,596.5 336.25,587.625 342.375,579.25 355.375,564.0"/>
    <polyline points="362.0,557.375 368.5,551.25 380.875,540.75 392.5,532.375 398.0,528.875 408.25,523.125 417.5,518.625 433.375,512.5 446.375,508.75 463.625,505.125"/>
    <polyline points="465.625,504.75 482.125,501.25 487.75,499.375 491.125,497.625 492.625,496.375"/>
    <polyline points="493.125,496.0 494.625,494.25 495.875,491.75 496.5,488.875 496.5,485.5 495.875,480.75"/>
    <polyline points="495.625,479.875 493.75,472.875 491.0,465.625 485.125,453.25 480.875,445.75"/>
    <polyline points="479.625,443.625 469.625,429.5 459.75,418.0 453.375,411.5 445.75,404.5 441.5,400.75 431.5,392.875 419.375,384.375 404.875,375.5 387.5,366.5 377.75,362.25 367.25,358.125"/>
    <polyline points="356.125,354.375 344.5,351.125 332.375,348.75 320.25,347.25 308.5,347.25 297.25,348.625 287.25,351.875 279.0,357.125 272.75,364.375 269.0,373.5 267.75,384.375 269.25,396.625 273.125,409.75 279.0,423.25 286.625,436.875 295.375,450.125 304.875,462.5 314.75,474.125 324.625,484.625 334.375,494.125 343.75,502.5 361.375,516.125 369.375,521.625 383.875,530.25"/>
    <polyline points="390.5,533.625 402.375,539.0 417.625,544.25 430.25,547.5 462.75,554.0 469.0,555.75 474.5,557.75"/>
    <polyline points="476.25,558.5 482.5,561.625 485.25,563.5 489.125,566.5 492.625,569.875 496.875,574.875 499.875,579.125 505.625,588.75"/>
    <polyline points="506.625,590.5 514.125,603.75 519.625,612.0 524.75,618.125 526.875,620.25 531.625,624.125 534.375,625.875 541.125,629.0 545.125,630.25 549.75,631.25 555.125,631.75 561.125,631.875 568.25,631.375"/>
    <polyline points="576.5,630.125 586.0,628.0 597.25,624.625 610.25,619.875 625.5,613.25 643.0,604.375 663.125,593.0 685.75,578.5 710.625,560.875 737.125,539.875 763.625,515.875 788.25,490.0 808.625,463.875 822.25,439.625 827.375,419.625 824.0,405.625 813.0,398.0 796.875,396.5 778.0,399.875 758.5,406.5 740.0,415.25 723.625,424.75 709.5,434.5 697.75,443.875 688.125,452.625 680.5,460.625"/>
    <polyline points="674.5,468.0 669.625,474.625 665.75,480.5 657.5,494.75 652.875,501.75 648.0,506.875 645.375,508.875 642.5,510.5 639.5,511.75 633.0,513.5 626.0,514.25 618.625,514.25 611.25,513.75 593.25,511.25"/>
    <polyline points="589.875,510.75 569.0,507.0 550.875,503.375 540.5,500.875 534.75,499.125"/>
    <polyline points="533.5,498.75 527.625,496.375 521.875,493.25 519.375,491.5 515.625,488.25 511.5,483.625"/>
    <polyline points="510.875,482.75 507.625,478.125 505.0,473.75 491.75,450.0"/>
    <polyline points="490.5,448.125 481.875,434.625 473.625,423.625 462.25,410.625 450.5,399.25 434.625,386.125 421.0,376.375 404.125,366.0 394.375,360.75"/>
    <polyline points="383.625,355.375 371.875,350.125 359.0,345.125 345.375,340.625 330.875,336.875 316.0,334.125 301.0,332.875 286.625,333.625 273.375,336.5 262.25,342.125 253.625,350.375 248.375,361.375 246.625,374.875 248.5,390.125 253.5,406.75 261.25,423.875 271.125,440.75 282.125,457.0 293.875,472.125 305.75,485.875 317.375,498.125 328.375,508.875 338.875,518.125 348.625,526.125 357.625,533.0 366.0,538.75"/>
    <polyline points="373.625,543.5 380.625,547.625 393.0,553.75 408.25,559.5 420.75,562.75 449.5,568.375 455.75,570.125 461.125,572.25"/>
    <polyline points="462.75,573.125 467.25,575.75 472.375,580.125 475.5,583.875 478.125,588.25 479.625,591.5 481.875,598.75 482.875,605.0 483.125,612.0"/>
    <polyline points="483.0,614.5 482.625,619.875 480.875,628.875 477.375,639.125 473.875,646.875 468.875,655.375 462.0,665.125 457.625,670.375 446.375,682.0 439.25,688.375 431.0,695.125 421.25,702.375 409.875,709.875 396.625,717.875 381.5,726.0 364.125,734.0 344.5,741.625"/>
    <polyline points="323.0,748.375 299.875,753.375 276.25,755.625 253.375,754.0 232.875,747.625 216.75,735.5 206.625,717.625 203.125,694.625 206.375,667.75 215.125,638.875 228.0,609.875 242.875,582.0 258.5,556.5 273.625,533.75 299.875,497.125 319.375,471.125 337.75,447.375 345.0,438.75 350.0,434.0 352.0,432.875"/>
    <polyline points="353.75,432.25 357.0,432.625 360.375,434.5 375.125,446.875 380.375,450.875 391.375,458.0 402.5,463.625 413.125,467.5"/>
    <polyline points="415.625,468.25 420.5,469.5 427.125,470.625 433.125,471.0 439.875,470.625 445.375,469.375 448.75,467.875 452.0,465.25 453.25,463.625"/>
    <polyline points="453.75,462.75 454.75,459.875 455.125,456.75 454.75,453.125 453.625,449.0 452.375,446.0 448.75,439.5 446.25,435.875 443.25,432.0 437.5,425.875"/>
    <polyline points="435.375,423.75 427.625,416.875 421.5,412.125 414.375,407.375 406.375,402.625 392.5,395.75 376.875,390.125 371.5,388.75 360.375,387.0 355.0,386.75 349.875,387.0 345.0,387.75 340.5,389.0 336.625,391.0 333.25,393.5 330.625,396.75"/>
    <polyline points="328.75,400.5 327.75,404.875 327.625,409.625 328.25,414.875 329.75,420.375 332.0,426.125 335.0,432.0 338.5,437.875 342.625,443.625 351.875,454.5 362.125,464.5 367.375,468.875 372.625,473.0 383.125,480.25 393.125,486.125 402.75,490.75 411.75,494.5 424.0,498.5"/>
    <polyline points="427.75,499.5 444.25,502.625 457.5,503.875 471.375,503.875 482.5,502.625"/>
    <polyline points="483.625,502.375 489.125,501.0 493.0,499.25 496.0,496.625 497.5,494.0"/>
    <polyline points="497.625,493.5 498.25,490.375 498.125,486.5 497.125,481.125 495.5,475.375"/>
    <polyline points="495.125,474.375 490.125,461.75 486.125,453.75 480.625,444.25 472.75,432.75"/>
    <polyline points="470.75,430.25 463.875,421.75 458.25,415.625 451.375,408.875 438.625,397.75 427.875,389.5 414.875,380.875 399.25,371.75 390.375,367.25 380.75,362.75 370.25,358.5 359.125,354.5 347.5,351.0 335.25,348.25 323.0,346.5 310.75,346.0 299.125,347.0"/>
    <polyline points="288.625,349.75 279.625,354.5 272.625,361.25 268.125,370.125 266.25,380.75 267.0,392.875 270.375,406.0 275.875,419.875 283.25,433.75 292.0,447.25 301.5,460.125 311.375,472.125 321.5,483.125 331.5,492.875 341.125,501.625 350.25,509.25 367.125,521.625 382.0,530.625 388.75,534.25 400.75,539.75 406.25,541.875 416.25,545.125"/>
    <polyline points="420.75,546.5 432.75,549.375 454.375,553.5 466.0,556.25 475.25,559.625 480.0,562.0 482.875,563.875"/>
    <polyline points="484.25,564.75 486.875,566.75 491.625,571.25 496.875,577.875 503.5,588.875 510.25,602.125"/>
    <polyline points="511.375,604.125 514.75,610.5 520.5,619.375 526.125,625.875 531.0,630.0 537.125,633.75 540.875,635.25 545.125,636.625 555.625,638.125 562.25,638.125 569.875,637.5 578.875,635.875 589.5,633.25 602.0,629.125 616.75,623.375 634.0,615.25"/>
    <polyline points="654.125,604.625 677.25,590.75 703.25,573.375 731.625,552.0 761.125,526.75 789.75,498.75 814.75,469.375 832.875,441.25 841.75,417.25 840.375,399.5 830.0,389.5 812.875,386.75 792.125,390.0 770.75,397.5 750.5,407.25 732.75,418.25 717.75,429.25 705.625,440.0 696.25,450.0 689.0,459.25 683.5,467.75 679.375,475.5 676.25,482.375 669.875,499.375"/>
    <polyline points="668.0,503.75 666.0,507.625 663.625,510.875 661.0,513.75 658.0,516.0 654.75,517.75 651.25,519.125 643.375,520.625 639.125,521.0 626.0,520.625 604.625,517.75 576.25,513.0"/>
    <polyline points="573.375,512.5 550.0,509.5 529.75,507.375"/>
    <polyline points="528.75,507.25 520.25,505.375 516.75,504.0 514.5,502.5"/>
    <polyline points="514.125,502.25 512.125,500.5 510.125,498.0 507.0,492.5"/>
    <line x1="506.625" x2="497.5" y1="492.0" y2="471.25"/>
    <polyline points="497.0,470.0 489.875,455.5 483.25,444.125 475.375,432.5 466.375,421.375"/>
    <polyline points="463.75,418.25 453.875,408.125 441.0,396.625 423.75,383.75 409.125,374.375 391.375,364.75 381.25,360.0 370.375,355.375 358.625,351.125 346.25,347.25 333.25,344.25 320.125,342.125 307.0,341.5 294.375,342.375 283.0,345.25 273.375,350.375 265.875,357.75 261.125,367.375"/>
    <polyline points="259.375,379.0 260.625,392.25 264.625,406.5 271.0,421.5 279.125,436.375 288.625,450.75 299.0,464.5 309.625,477.0 320.25,488.375 330.625,498.625 340.5,507.5 350.0,515.25 358.875,521.875 367.125,527.625 374.75,532.5 388.5,540.125 400.5,545.5 410.75,549.25 419.875,551.875 431.625,554.625"/>
    <polyline points="435.125,555.375 457.25,559.75 467.5,562.875 471.0,564.375 477.25,567.875 481.25,570.875 484.875,574.375"/>
    <polyline points="486.0,575.625 491.0,582.5 494.5,589.0 496.875,594.5 500.375,604.75 503.5,616.625 505.25,624.625"/>
    <polyline points="505.75,627.375 508.625,642.75 514.75,679.875 518.625,697.25 521.25,706.125 523.0,710.625 525.125,715.0 527.75,719.25 530.875,723.375"/>
    <polyline points="535.0,727.125 540.125,730.25 546.875,732.75 555.75,734.0 567.5,733.5 583.5,730.5 605.125,723.875 634.625,711.625 674.75,691.25 728.75,658.875 799.125,610.0 884.5,540.375 974.25,451.0 1024.0,382.8469"/>
    <polyline points="1024.0,237.3548 977.0,239.25 912.5,268.375 864.125,309.0 837.5,352.875 831.25,397.125 840.5,441.75 859.25,486.75 880.625,530.875 897.25,571.125 903.625,603.75"/>
    <polyline points="897.75,625.75 881.5,636.0 859.125,636.125 835.25,628.375 813.375,615.875 795.5,600.75 782.125,584.5 773.25,568.0 767.875,551.875 765.125,536.375 762.125,496.125 760.0,485.625 756.625,477.0 751.5,470.375 745.0,465.75 737.125,462.875 728.125,461.625 718.5,461.875 708.625,463.125 698.625,465.125 688.875,467.625 679.375,470.375 662.0,476.375"/>
    <polyline points="654.0,479.125 639.75,484.25 621.75,490.125 607.125,493.875 594.75,496.0 581.125,496.875 572.5,496.625 564.75,495.75 555.875,494.0"/>
    <polyline points="553.875,493.5 546.5,491.25 540.125,488.5 534.5,485.375 529.5,481.875 526.125,479.0 519.875,472.25"/>
    <polyline points="518.875,471.125 514.0,464.375 498.375,438.125 487.875,422.0"/>
    <polyline points="485.625,418.875 474.375,404.625 462.375,391.875 451.875,382.125 445.625,376.75 430.5,365.125 421.375,358.75 411.0,352.125 399.25,345.125 385.875,337.875 370.875,330.625 354.125,323.5 335.5,316.75 315.375,310.75 294.125,306.375 272.5,304.25 251.625,305.125 232.875,310.0 217.875,319.625"/>
    <polyline points="207.875,333.875 204.0,352.75 206.25,375.125 214.125,399.625 226.25,424.875 241.0,449.5 257.125,472.375 273.375,493.125 289.0,511.375 303.25,526.875 316.25,540.125 327.75,551.125 337.875,560.25 346.625,567.625 354.375,573.625 361.125,578.375 367.0,582.125 376.75,587.25 384.75,590.125 388.125,590.875 394.375,591.625 399.75,591.625"/>
    <polyline points="402.25,591.375 423.375,588.25 430.25,588.125 434.875,588.625 438.875,589.75 442.5,591.5 444.5,593.0"/>
    <polyline points="445.375,593.875 447.0,595.75 448.25,597.875 449.625,601.625 450.125,607.625 449.25,613.0 448.125,616.875 446.375,621.125 443.875,625.625 440.5,630.625 433.75,638.625"/>
    <polyline points="431.0,641.375 424.375,647.25 420.5,650.25 411.75,656.25 401.375,662.25 389.375,667.75 375.875,672.25 368.75,674.0 361.5,675.125 354.25,675.75 347.25,675.625 340.375,674.625 334.125,672.625 328.5,669.75 323.875,665.75 320.125,660.625 317.75,654.625 316.5,647.75 316.625,640.0 317.875,631.75 320.375,623.125"/>
    <polyline points="323.875,614.25 328.25,605.375 333.375,596.625 339.0,588.25 345.0,580.125 351.125,572.625 357.5,565.625 363.875,559.125 370.125,553.25 376.25,548.0 382.25,543.125 393.625,535.0 404.125,528.625 413.75,523.625 422.5,519.75 430.5,516.875 441.0,513.5 447.25,512.0"/>
    <polyline points="450.125,511.25 457.875,509.625 484.75,505.125 490.25,503.75"/>
    <polyline points="491.0,503.5 494.375,502.25 496.375,501.125 497.875,499.875 499.5,497.75 500.375,495.25"/>
    <polyline points="500.375,494.75 500.625,492.75 500.375,489.375 499.25,483.875 497.375,477.75"/>
    <polyline points="497.0,476.75 494.125,468.875 488.875,457.5 481.625,444.625 477.375,438.125"/>
    <polyline points="475.625,435.75 472.0,430.625 462.5,419.25 456.375,412.875 445.0,402.125 435.375,394.25 429.75,390.125 423.625,385.75 409.625,376.75 392.625,367.5 383.0,363.0 372.625,358.5 361.5,354.375 349.75,350.75 337.5,347.75 324.875,345.625"/>
    <polyline points="312.375,344.75 300.375,345.375 289.25,347.75 279.75,352.125 272.125,358.625 267.0,367.25 264.5,377.75 264.75,389.875 267.75,403.125 273.125,417.125 280.375,431.375 289.0,445.25 298.625,458.5 308.625,470.875 318.875,482.25 329.0,492.375 338.875,501.375 348.25,509.375 365.375,522.125 380.5,531.5 387.25,535.125 393.625,538.25 405.0,543.0"/>
    <polyline points="410.125,544.875 419.625,547.75 427.875,549.875 458.375,555.875 462.875,557.0 472.5,560.25 479.0,563.5"/>
    <polyline points="480.5,564.375 484.5,567.25 488.25,570.625 492.625,575.5 494.625,578.25 500.25,587.625 506.5,600.75"/>
    <polyline points="507.375,602.75 514.75,618.5 519.0,625.75 522.375,630.5 526.5,635.25 529.0,637.5 531.75,639.625 538.625,643.5 542.75,645.0 547.625,646.25 553.375,647.0 560.125,647.25 568.0,646.625 577.375,645.125 588.625,642.375"/>
    <polyline points="602.0,638.125 618.0,631.75 637.125,622.875 659.5,610.75 685.75,594.875 715.5,574.5 748.25,549.375 782.125,519.625 814.5,486.5 841.25,452.5 858.625,421.125 863.875,396.125 856.875,379.875 840.125,373.125 817.5,374.625 793.0,382.125 769.625,393.25 749.125,406.125 732.375,419.5 719.25,432.375 709.5,444.625 702.625,456.0 698.0,466.5 695.0,476.125 693.0,484.875 691.75,493.0"/>
    <polyline points="690.75,500.25 688.125,512.375 686.125,517.125 683.625,521.25 680.5,524.5 676.75,527.0 672.5,528.875 667.875,530.125 662.75,530.75 657.375,531.0 646.375,530.375 630.0,527.875 597.375,521.5 586.25,519.75"/>
    <polyline points="583.0,519.25 571.375,518.125 557.875,517.75 546.5,518.625 537.75,520.5"/>
    <polyline points="536.875,520.875 532.75,522.625 529.75,524.75 527.875,527.125 526.75,530.375"/>
    <polyline points="526.75,530.875 526.625,534.125 527.375,538.375 528.75,542.5 530.875,547.125"/>
    <polyline points="531.375,547.875 532.25,549.625 535.875,554.75 541.0,560.125 546.875,564.25 551.5,566.5 557.0,568.25"/>
    <polyline points="559.0,568.75 566.25,569.625 569.0,569.625 575.0,569.375 582.0,568.25 589.875,566.5 594.25,565.125 608.75,559.5 619.625,554.0 631.125,547.25 642.875,539.125 654.0,529.875 659.25,525.0 668.0,515.125"/>
    <polyline points="671.375,510.375 674.0,505.875 675.625,501.625 676.375,497.875 676.25,494.625 675.125,491.875 673.25,489.625 670.5,488.0 667.125,487.0 663.125,486.375 653.875,486.5 643.625,487.75 633.125,489.75 595.375,498.75 587.5,500.375"/>
    <polyline points="583.875,501.125 568.125,503.625 555.75,504.75 542.5,504.875 531.75,503.875"/>
    <polyline points="530.625,503.625 525.75,502.625 521.125,501.0 517.875,499.375 515.125,497.5 513.25,495.75"/>
    <polyline points="512.75,495.25 509.75,491.625 506.875,487.125 502.125,477.875"/>
    <polyline points="501.625,476.875 491.125,455.625 485.75,446.25 480.0,437.5"/>
    <polyline points="478.375,435.125 474.625,429.875 465.0,418.25 451.375,404.375 442.375,396.5 431.5,388.0 418.125,378.75 410.375,374.0 401.875,369.0 392.625,364.125 382.375,359.125 371.375,354.375 359.375,350.0 346.75,346.0 333.5,342.75 319.875,340.5"/>
    <polyline points="306.375,339.5 293.375,340.375 281.5,343.125 271.375,348.125 263.5,355.625 258.5,365.375 256.5,377.25 257.75,390.875 261.75,405.625 268.25,421.0 276.75,436.375 286.5,451.25 297.125,465.375 308.0,478.25 318.875,489.875 329.5,500.25 339.625,509.375 349.125,517.25 366.375,529.875 374.125,534.75 387.875,542.375 399.75,547.75 405.125,549.75"/>
    <polyline points="410.125,551.5 419.125,554.125 427.0,556.0 456.125,561.875 466.125,565.125 469.625,566.625 475.75,570.25"/>
    <polyline points="477.0,571.25 480.875,574.5 484.25,578.25 487.25,582.375 489.875,587.125 492.875,594.125 494.75,600.0 496.5,606.625 497.75,613.75"/>
    <polyline points="498.125,616.375 499.0,624.625 499.25,637.0 498.875,644.0 497.375,655.5 496.5,659.75 494.0,668.875 490.0,679.0 487.25,684.625 479.625,697.25 474.375,704.375 467.75,712.125 459.625,720.75 449.5,730.25 436.875,740.875"/>
    <polyline points="421.0,752.625 401.25,765.625 376.75,779.875 346.5,795.125 310.25,810.375 267.75,824.125 221.0,833.5 173.5,834.5 131.875,822.5 103.375,794.375 93.625,750.5 102.625,695.25 125.625,636.0 155.0,579.0 209.25,485.875 228.125,451.25 240.75,423.75 247.625,402.375 249.75,386.5 248.5,375.5 245.125,368.875 240.75,366.5 236.75,368.0 234.125,373.125 233.5,381.625"/>
    <polyline points="235.5,392.75 240.0,405.875 247.0,420.375 256.0,435.5 266.5,450.5 277.875,465.0 289.625,478.375 301.375,490.75 312.75,501.625 323.75,511.25 334.0,519.625 343.75,526.75 352.625,532.75 368.625,542.125 382.25,548.5 394.125,552.875 404.375,555.75 409.125,556.75 425.25,559.375"/>
    <polyline points="428.75,559.75 451.5,562.625 460.125,564.625 465.75,566.5 470.625,568.875 476.375,572.625 480.0,576.0"/>
    <polyline points="481.125,577.25 484.25,581.125 487.875,587.25 490.875,594.25 492.125,598.0 494.125,606.625 495.25,613.875 495.875,627.875"/>
    <polyline points="495.75,631.0 495.25,637.5 494.25,644.75 491.25,656.75 489.625,661.25 485.5,671.0 482.625,676.375 479.25,682.125 475.0,688.25 469.875,694.875 463.625,702.125 455.875,710.125 446.5,718.75 434.875,728.375 420.75,738.875 403.375,750.25 382.25,762.625 356.75,775.625 326.375,788.625 291.375,800.625 252.625,809.625"/>
    <polyline points="212.375,812.875 174.625,807.375 144.75,790.25 127.375,760.25 125.125,719.0 136.5,671.0 157.375,621.125 182.375,573.875 207.125,531.875 228.875,496.0 246.25,466.375 259.0,442.5 267.375,423.625 272.125,409.125 274.0,398.375 273.875,391.0 272.5,386.75 270.625,385.25 269.0,386.375 268.0,389.875 268.25,395.375 269.75,402.625 272.875,411.25 277.5,420.875 283.5,431.0 290.625,441.5"/>
    <polyline points="298.5,451.75 307.125,461.625 316.0,471.0 324.875,479.75 333.875,487.625 342.625,494.75 351.0,501.0 359.125,506.625 374.25,515.75 387.75,522.5 394.0,525.125 399.875,527.5 410.625,531.0 415.625,532.5 429.0,535.625 450.25,539.125"/>
    <polyline points="453.25,539.5 468.375,541.875 480.125,544.625 486.5,546.875 490.75,548.875 495.75,551.75 498.0,553.375"/>
    <polyline points="499.125,554.25 502.375,557.0 508.375,563.125 521.0,578.25 526.375,583.75"/>
    <polyline points="527.875,585.25 531.125,588.0 534.875,590.625 539.25,593.125 544.375,595.25 550.5,596.875 558.0,598.0 567.0,598.0 578.0,596.625 584.5,595.25 599.625,590.75 608.375,587.375 618.0,583.125 628.625,577.875 640.25,571.625 652.625,564.125 665.625,555.375"/>
    <polyline points="679.25,545.5 692.875,534.5 706.125,522.5 718.5,510.0 729.125,497.375 737.625,485.25 743.25,474.0 745.875,464.375 745.125,456.75 741.5,451.25 735.25,447.875 727.0,446.625 717.375,447.125 707.0,449.0 696.375,451.875 685.75,455.25 675.625,459.0 628.25,479.5 612.25,485.75"/>
    <polyline points="607.75,487.25 599.75,489.5 589.375,491.375 583.5,491.875 575.5,491.75 566.375,490.5 560.375,489.0 555.0,487.125 547.125,483.25"/>
    <polyline points="545.625,482.5 541.5,479.75 537.75,476.75 533.125,472.375 531.0,469.875 525.0,461.75 518.375,450.25"/>
    <polyline points="517.5,448.375 503.5,420.0 494.0,403.375 485.625,391.25 478.25,381.875 473.75,376.75 462.625,365.375"/>
    <polyline points="455.75,358.875 447.75,352.0 438.375,344.5 427.25,336.375 414.25,327.5 399.0,318.125 380.875,308.0 359.75,297.375 335.125,286.625 307.0,276.375 275.625,267.625 242.25,261.875 208.75,261.0 178.5,267.25 155.125,282.5 142.125,307.125 141.25,340.125 151.75,378.5 170.625,418.75 194.125,457.5 218.75,492.875 241.875,523.5 303.125,600.75"/>
    <polyline points="311.0,611.125 323.875,628.5 326.0,630.625 327.625,631.375 329.0,631.0 331.75,627.0 338.125,615.75 344.375,606.25 352.0,596.125 360.875,586.25 370.25,577.0 380.0,568.75 389.625,561.625 399.125,555.75"/>
    <polyline points="403.625,553.125 412.375,548.625 420.625,545.125 432.0,541.125 442.25,538.625 448.375,537.375 459.375,536.125 468.625,535.875 478.5,536.625"/>
    <polyline points="480.25,536.875 483.5,537.375 489.375,538.875 496.75,541.875 502.0,545.0 504.875,547.125 509.375,551.125"/>
    <polyline points="510.125,552.0 525.875,569.875 530.75,574.625 536.875,579.25"/>
    <polyline points="538.625,580.375 542.625,582.5 549.75,585.125 555.5,586.375 562.25,587.0 570.375,586.75 580.0,585.375 585.5,584.25 598.125,580.5 613.0,574.5 621.375,570.5 630.25,565.875 639.625,560.375 649.5,554.125 659.75,547.0 670.0,539.25 680.125,530.75"/>
    <polyline points="689.75,521.875 698.625,512.625 706.25,503.5 712.25,494.625 716.5,486.375 718.625,479.25 718.625,473.125 716.75,468.5 712.875,465.125 707.5,463.25 700.875,462.5 693.25,462.75 685.25,464.0 676.875,465.75 668.625,468.0 652.5,473.0 613.125,486.375 598.5,490.375"/>
    <polyline points="594.25,491.375 579.5,493.625 573.25,494.0 565.0,493.875 557.875,493.125 553.625,492.375 548.0,490.875 541.25,488.375 535.5,485.375"/>
    <polyline points="534.125,484.625 529.125,481.125 524.625,477.125 521.5,473.75 518.5,470.125 514.625,464.625 507.5,453.25"/>
    <polyline points="506.5,451.375 497.625,436.25 488.75,422.625 481.625,412.875 475.625,405.625 464.0,393.0 453.875,383.25 441.0,372.5 433.125,366.5"/>
    <polyline points="424.375,360.25 414.375,353.625 402.875,346.625 390.0,339.5 375.375,332.125 359.0,324.875 340.75,317.875 320.875,311.625 299.75,306.625 277.875,303.625 256.375,303.625 236.625,307.375 220.25,315.625 208.75,328.875 203.125,346.75 203.875,368.5 210.375,392.875 221.625,418.375 236.125,443.5 252.125,467.25 268.625,488.75 284.5,507.625 299.25,524.0 312.625,538.0 324.5,549.5 335.0,559.125"/>
    <polyline points="344.125,567.0 358.875,578.375 365.0,582.375 375.0,587.75 383.0,590.75 389.625,592.125 395.5,592.5 398.125,592.375 409.875,590.625 418.125,589.0 425.5,588.125"/>
    <polyline points="427.25,588.125 429.0,588.0 433.625,588.375 437.875,589.375 441.625,590.875 444.625,593.0 447.125,595.75 449.0,599.125 450.0,603.125 450.25,607.875"/>
    <polyline points="450.0,609.5 448.875,615.125 447.375,619.125 446.375,621.375 442.25,628.375 438.375,633.5 433.625,638.875 424.125,647.625 411.375,656.75 400.75,662.625 394.875,665.5 388.625,668.125 382.0,670.625 375.125,672.625"/>
    <polyline points="368.0,674.375 360.75,675.5 353.375,676.0 346.25,675.75 339.5,674.625 333.25,672.625 327.75,669.5 323.125,665.375 319.5,660.25 317.25,654.125 316.125,647.0 316.375,639.25 317.875,630.875 320.5,622.125 324.125,613.25 328.5,604.375 333.75,595.625 339.375,587.125 345.5,579.125 351.75,571.625 358.0,564.625 364.375,558.25 376.875,547.125 388.625,538.125"/>
    <polyline points="394.25,534.375 399.625,531.0 414.25,523.125 430.875,516.375 447.5,511.5 458.125,509.25 474.0,506.625"/>
    <polyline points="475.625,506.375 488.625,503.75 493.0,502.25 497.0,499.875"/>
    <polyline points="497.375,499.5 499.25,497.0 500.0,494.375 500.125,490.0 499.75,487.5"/>
    <polyline points="499.625,486.875 499.25,484.625 497.25,477.75 493.5,467.75 490.375,460.875"/>
    <polyline points="489.625,459.25 485.125,450.75 478.875,440.625 474.0,433.5 467.75,425.5 459.75,416.5 449.375,406.25 435.75,394.75"/>
    <polyline points="430.25,390.625 417.625,381.875 402.25,372.75 393.5,368.125 384.0,363.5 373.75,359.125 362.75,354.875 351.0,351.25 338.75,348.125 326.25,346.0 313.75,345.0 301.75,345.375 290.625,347.625 280.875,351.75 273.125,358.0 267.625,366.375 264.875,376.625 264.875,388.625 267.625,401.75 272.75,415.75 279.75,429.875 288.25,443.75 297.75,457.0 307.75,469.5"/>
    <polyline points="318.0,480.875 328.125,491.125 337.875,500.25 347.25,508.375 364.625,521.25 372.375,526.375 386.625,534.5 393.0,537.625 404.5,542.5 419.125,547.375 431.375,550.375 455.75,555.125"/>
    <polyline points="458.125,555.625 462.75,556.75 470.625,559.25 479.0,563.125 483.25,565.875 488.25,570.125 491.625,573.75 495.75,579.25"/>
    <polyline points="496.625,580.75 501.25,588.75 510.5,608.5 516.375,620.0 519.25,624.75 524.75,631.75"/>
    <polyline points="527.0,634.125 532.375,638.375 535.5,640.375 539.25,642.125 543.5,643.625 548.375,644.75 554.125,645.5 560.875,645.625 568.875,645.0 578.25,643.375 589.5,640.625 602.875,636.25 618.75,629.875 637.75,620.875 660.0,608.875 685.75,593.125 715.125,573.0 747.125,548.375 780.25,519.25 811.75,486.875 837.875,453.75 854.875,423.125 860.125,398.625 853.625,382.625 837.5,375.625"/>
    <polyline points="815.625,376.75 791.625,383.875 768.625,394.5 748.25,406.875 731.5,419.75 718.125,432.375 708.125,444.25 700.875,455.375 695.875,465.625 692.5,475.0 690.25,483.5 686.125,504.625 684.75,510.125 682.75,514.875 680.375,518.875 677.5,522.125 674.0,524.75 670.0,526.625 665.5,528.0 660.75,528.75 655.75,529.125 645.125,528.875 639.75,528.25"/>
    <polyline points="634.5,527.625 597.0,520.75 579.5,518.0 563.5,516.625 551.625,516.625"/>
    <polyline points="550.0,516.75 541.75,517.5 537.5,518.25 532.5,519.625 527.625,522.125"/>
    <polyline points="527.25,522.5 526.25,523.375 524.5,526.25 523.875,529.25 524.125,532.75"/>
    <polyline points="524.125,533.25 525.125,537.375 526.875,542.125 530.0,548.375 531.625,550.875"/>
    <polyline points="532.125,551.75 534.75,555.25 538.0,558.875 541.0,561.5 545.875,565.0 554.0,568.625 558.125,569.625 565.375,570.625"/>
    <polyline points="568.125,570.625 571.125,570.625 577.625,570.0 585.125,568.625 589.375,567.625 598.375,564.625 603.375,562.75 614.125,557.875 619.75,555.0 631.75,548.0 643.875,539.5 649.875,534.875 661.0,524.875 665.875,519.625 673.75,509.625 676.375,504.875 678.125,500.5 678.875,496.625"/>
    <polyline points="678.75,493.25 677.5,490.375 675.5,488.125 672.625,486.5 669.0,485.5 664.75,485.0 660.125,484.875 655.125,485.25 644.5,486.625 633.625,488.875 599.25,497.25 583.625,500.5 573.625,502.125"/>
    <polyline points="570.625,502.5 560.0,503.625 547.25,504.0 536.25,503.25 530.25,502.25 527.125,501.375"/>
    <polyline points="526.25,501.125 522.0,499.625 516.625,496.5 513.25,493.625 510.375,490.125"/>
    <polyline points="509.875,489.5 504.25,480.25 496.875,465.5"/>
    <polyline points="496.125,464.125 492.125,456.375 485.625,445.0 476.0,430.875 471.75,425.375 463.875,416.25 453.5,405.75"/>
    <polyline points="449.375,402.0 444.875,398.0 434.375,389.5 428.25,385.0 414.125,375.5 405.875,370.625 386.875,360.5 376.0,355.625 364.375,351.0 351.75,346.625 338.5,343.0 324.875,340.25 311.0,338.625 297.5,338.625 284.875,340.625 273.75,344.75 264.75,351.375 258.5,360.375 255.25,371.75 255.25,384.875 258.375,399.625 264.125,415.125 272.0,430.75"/>
    <polyline points="281.625,446.125 292.125,460.75 303.125,474.375 314.25,486.625 325.0,497.625 335.375,507.25 345.25,515.625 363.0,529.125 378.375,538.75 385.125,542.5 402.75,550.375 412.625,553.625 421.25,556.0 444.5,560.75"/>
    <polyline points="447.25,561.25 460.875,564.625 466.5,566.75 472.875,570.125 478.25,574.25 480.625,576.625 483.75,580.5 486.625,584.875"/>
    <polyline points="487.5,586.5 490.5,593.375 492.375,599.25 493.875,605.625 495.5,618.0 495.75,623.625 495.625,632.75 494.375,643.125 492.75,650.875"/>
    <polyline points="491.625,655.0 490.25,659.375 486.375,668.875 480.5,679.625 476.625,685.625 471.875,692.0 466.125,699.0 459.0,706.75 450.375,715.0 439.75,724.25 426.625,734.375 410.625,745.375 391.125,757.375 367.5,770.125 339.125,783.125 306.125,795.625 268.75,806.125 228.875,812.0 189.625,810.5 156.125,798.25 133.25,773.5 124.75,736.625 131.0,691.0 148.5,641.375"/>
    <polyline points="172.375,592.875 197.625,548.5 240.0,478.25 254.625,452.125 264.75,431.25 271.0,415.125 274.0,402.875 274.625,394.125 273.75,388.625 272.125,386.0 270.25,386.0 269.0,388.375 268.625,393.0 269.625,399.5 272.0,407.5 276.0,416.625 281.375,426.5 287.875,436.875 295.5,447.125 303.75,457.125 312.375,466.75 321.25,475.625 330.25,483.875 339.0,491.25 347.5,497.875"/>
    <polyline points="355.75,503.75 363.625,508.875 378.25,517.375 391.375,523.5 403.125,528.125 413.5,531.375 427.25,534.75 442.375,537.5 467.5,541.25"/>
    <polyline points="469.75,541.625 479.375,543.875 484.375,545.5 490.25,548.0 497.625,552.375 501.0,555.0 505.0,558.75"/>
    <polyline points="506.0,559.75 511.0,565.25 520.375,576.625 525.5,582.125 530.125,586.25 533.625,588.875 537.75,591.375"/>
    <polyline points="540.125,592.5 545.25,594.625 555.0,596.875 563.25,597.25 568.0,597.125 579.25,595.625 592.875,592.125 600.875,589.375 609.75,586.0 630.0,576.375 641.5,570.0 653.75,562.5 666.625,553.75 680.0,543.875 693.375,532.875 706.25,521.125 718.25,508.875 728.5,496.5 736.5,484.75"/>
    <polyline points="741.75,473.875 743.875,464.625 743.0,457.25 739.125,452.0 732.875,449.0 724.75,447.875 715.25,448.375 705.0,450.25 694.5,453.0 684.125,456.375 664.75,463.75 633.5,477.25 616.125,484.25 602.625,488.625 595.125,490.375 588.375,491.5"/>
    <polyline points="585.375,491.75 579.625,492.0 574.5,491.75 567.5,490.875 561.25,489.5 555.75,487.75 549.125,484.875 543.25,481.5 538.0,477.625"/>
    <polyline points="536.875,476.625 531.125,471.0 523.125,460.0 517.375,449.75 511.25,437.375"/>
    <polyline points="510.125,435.125 500.25,416.0 494.25,405.875 489.125,398.25 479.0,385.0 469.75,374.75 464.125,369.0 450.125,356.25 441.375,349.0 431.125,341.25 419.125,332.875 405.0,323.875 388.375,314.25"/>
    <polyline points="368.875,304.0 346.25,293.625 320.125,283.5 291.0,274.25 259.25,267.25 226.625,264.25 195.5,267.125 169.5,277.75 151.875,297.375 145.375,325.75 150.375,360.625 164.875,399.0 185.75,437.625 209.375,473.75 232.875,505.875 254.25,533.375 300.25,590.0 326.125,622.625 329.0,625.75 331.25,627.5 333.0,628.0"/>
    <polyline points="334.5,627.5 336.125,626.0 337.75,623.75 347.125,609.25 353.875,600.375 365.75,587.0 374.625,578.75 379.125,574.875 388.125,567.875 392.625,564.75 401.5,559.375 414.125,552.875 425.625,548.25"/>
    <polyline points="429.375,547.0 442.625,543.625 451.375,542.25 459.25,541.625 468.5,541.75 476.375,542.625 481.5,543.625 487.625,545.625"/>
    <polyline points="489.0,546.125 494.25,548.625 500.0,552.375 503.125,555.0 509.0,560.875 515.75,568.875"/>
    <polyline points="516.75,570.125 522.375,576.625 529.25,583.375 534.375,587.25 540.75,590.875 548.75,593.75 555.375,595.0 563.375,595.375 573.25,594.75"/>
    <polyline points="578.875,593.875 585.125,592.5 599.75,588.0 608.25,584.75 617.5,580.75 627.5,575.75 638.5,569.75 650.125,562.75 662.5,554.625 675.125,545.375 687.875,535.125 700.375,524.0 712.0,512.5 722.25,500.75 730.375,489.25 736.125,478.625 739.0,469.375 739.0,461.75 736.25,456.125 731.0,452.5 723.75,450.75 715.125,450.625 705.5,451.875 695.5,454.125 685.5,457.125"/>
  </g>
</svg>
