<?xml version="1.0" encoding="utf-8" ?>
<svg xmlns="http://www.w3.org/2000/svg" xmlns:cc="http://creativecommons.org/ns" xmlns:dc="http://purl.org/dc/elements/1.1/" xmlns:ev="http://www.w3.org/2001/xml-events" xmlns:inkscape="http://www.inkscape.org/namespaces/inkscape" xmlns:rdf="http://www.w3.org/1999/02/22-rdf-syntax-ns" xmlns:sodipodi="http://sodipodi.sourceforge.net/DTD/sodipodi-0.dtd" xmlns:xlink="http://www.w3.org/1999/xlink" baseProfile="tiny" height="27.09333333cm" version="1.2" viewBox="0 0 1024.0 1024.0" width="27.09333333cm">
  <metadata>
    <rdf:RDF>
      <cc:Work>
        <dc:format>image/svg+xml</dc:format>
        <dc:source>vpype read './original_svgs/Strange Attractors #43.svg' linemerge linesimplify write './Strange Attractors #43.svg'
</dc:source>
        <dc:date>2024-08-05T01:35:20.632068</dc:date>
      </cc:Work>
    </rdf:RDF>
  </metadata>
  <defs/>
  <g fill="none" id="layer1" inkscape:groupmode="layer" inkscape:label="1" stroke="black" stroke-width="0.7mm" style="display:inline">
    <polyline points="764.5,739.875 760.375,668.75 755.25,613.375 751.75,571.875 750.875,542.125 752.75,521.625 757.25,508.625 764.0,501.75 772.5,500.25 782.25,503.375 792.25,511.125 801.625,523.375 808.75,539.875 811.625,560.625 808.125,584.5 796.5,610.25 776.125,635.625 748.0,658.75 714.75,677.875 680.125,692.5 647.25,702.75 618.25,709.75 594.25,714.5 550.0,722.625"/>
    <polyline points="542.625,724.5 538.0,726.125 535.375,727.625 534.5,728.625 534.875,729.375 536.25,729.5 538.25,729.0 540.75,727.875 543.5,726.0 546.375,723.375 549.125,719.875 551.75,715.75 554.125,711.0 556.25,705.75 559.25,693.75 560.125,687.25 560.75,680.625 560.875,673.875 560.375,660.5 559.625,654.0 557.5,641.375 554.75,629.75"/>
    <polyline points="553.125,624.375 549.75,614.25 546.125,605.25 542.375,597.125 536.875,586.625 531.5,577.875 524.625,568.25 518.25,560.75 510.75,553.5"/>
    <polyline points="509.25,552.25 502.25,547.25 498.25,545.0 494.125,543.125 488.75,541.25 484.5,540.25 474.375,538.875"/>
    <polyline points="472.875,538.75 437.25,538.75 430.0,538.375 422.25,537.5"/>
    <polyline points="419.5,537.125 410.625,535.25 401.125,532.25 394.25,529.375 386.875,525.375 379.125,520.125 370.875,513.25 366.625,509.125 362.375,504.375 353.625,492.875 349.125,486.0 344.875,478.375 340.625,469.875 336.625,460.5 332.875,450.375 329.75,439.25 327.125,427.5"/>
    <polyline points="325.25,415.0 324.375,402.375 324.625,389.5 326.125,377.125 329.25,365.375 333.75,355.0 339.875,346.125 347.25,339.375 356.0,334.75 365.625,332.5 375.875,332.625 386.5,334.75 397.25,338.625 407.625,344.125 417.5,350.5 426.875,357.75 435.5,365.375 443.5,373.0 457.25,388.125 473.125,408.375 484.875,424.875"/>
    <polyline points="488.0,429.5 502.75,450.625 508.375,457.875 513.375,463.5 518.0,468.125 523.875,472.75 529.625,476.125 532.5,477.375"/>
    <polyline points="533.875,478.0 541.125,480.125 545.625,480.875 550.25,481.25 556.875,481.25 564.0,480.75 575.875,479.125"/>
    <polyline points="578.125,478.75 606.875,473.5 628.125,470.625 636.5,469.875 645.75,469.625 661.5,470.0 667.25,470.625"/>
    <polyline points="673.5,471.5 680.0,472.625 694.0,476.25 701.625,479.0 709.5,482.375 717.75,486.75 726.125,492.0 734.375,498.625 742.5,506.5 749.75,516.125 755.875,527.25 760.125,540.25 761.625,554.75 759.75,570.5 753.625,586.875 743.25,603.25 728.625,618.75 710.625,632.5 690.375,644.125 669.25,653.375 648.375,660.25 629.0,664.875 611.5,668.0 596.125,669.625 583.0,670.25"/>
    <polyline points="572.0,670.25 562.75,669.75 548.875,667.625 539.375,664.625 535.75,663.0 532.75,661.25 528.0,657.5 524.375,653.625 520.125,647.75 511.75,634.5 506.75,628.125"/>
    <polyline points="505.375,626.75 502.75,624.125 497.125,619.875 494.25,618.25 491.25,617.0 488.125,616.125 483.625,615.5 478.875,615.75 474.25,617.0 471.125,618.375 468.125,620.125"/>
    <polyline points="466.625,621.25 462.375,625.375 459.75,628.875 457.375,633.125 455.25,638.0 454.375,640.875 452.625,650.5 452.375,658.25 453.125,667.25 454.0,672.125 456.625,682.75 458.625,688.625 464.0,701.0 467.5,707.5 471.625,714.0"/>
    <polyline points="476.375,720.625 481.75,727.25 487.625,733.5 494.125,739.375 501.25,744.625 508.75,749.0 516.5,752.5 524.5,754.625 532.5,755.5 540.25,754.75 547.75,752.5 554.625,748.625 560.875,743.25 566.25,736.625 570.875,728.75 574.625,720.125 577.5,710.75 579.5,701.0 580.75,691.0 581.375,681.125 581.375,671.25 581.0,661.75 579.0,644.0 575.875,628.125"/>
    <polyline points="574.125,620.875 570.5,607.875 566.625,596.625 562.875,586.875 557.625,574.625 552.875,564.625 538.875,537.5"/>
    <polyline points="538.125,536.125 535.375,530.125 533.125,523.625 532.5,519.375 533.0,515.375"/>
    <polyline points="533.125,514.875 534.625,512.125 537.375,509.375 541.375,506.75 544.875,505.0"/>
    <polyline points="545.625,504.625 552.0,502.0 561.375,498.75 577.0,494.25"/>
    <polyline points="578.875,493.75 589.25,491.375 601.5,489.125 613.125,487.625 619.625,487.125 634.375,486.875 642.625,487.375 656.375,489.375"/>
    <polyline points="661.25,490.5 671.75,493.5 682.625,498.125 688.25,501.125 693.875,504.75 699.375,509.0 704.625,513.875 709.5,519.5 713.75,525.875 717.25,533.125 719.625,541.125 720.625,549.875 720.0,559.125 717.5,568.625 713.0,578.375 706.375,587.875 698.0,596.75 687.875,604.875 676.625,612.125 664.625,618.0 652.25,622.875 640.0,626.375 628.125,628.875 617.0,630.25"/>
    <polyline points="606.625,630.875 597.125,630.75 588.625,630.0 581.0,628.875 574.0,627.25 567.875,625.375 562.375,623.375 557.375,621.125 552.75,618.75 541.375,611.25 535.125,606.375 515.5,588.875 507.25,582.25"/>
    <polyline points="505.25,580.75 495.5,574.75 489.625,572.125 481.875,569.625 473.875,568.25 465.5,567.625 454.375,568.125"/>
    <polyline points="452.0,568.375 439.625,570.125 406.75,576.75 392.125,579.125 379.875,580.375 370.875,580.5"/>
    <polyline points="366.125,580.375 355.875,579.25 344.75,576.625 338.625,574.375 332.125,571.5 325.375,567.75 318.0,562.875 310.25,556.75 301.875,548.875 293.0,538.875 283.375,526.25 273.25,510.625 262.625,491.25 251.875,467.375 241.25,438.625 231.75,404.375 224.375,365.0 221.0,321.75 223.5,277.25 233.75,235.375 252.75,201.25 280.0,179.125 313.125,171.375 348.625,177.25"/>
    <polyline points="383.125,193.375 414.0,215.75 439.875,240.5 460.375,264.75 475.875,287.0 486.875,306.25 494.25,322.625 498.375,336.375 500.125,347.625 499.875,357.0 498.125,364.75 495.25,371.5 491.75,377.25 487.625,382.5 471.375,400.25 465.25,408.375 461.125,416.125 459.875,419.75 458.5,426.875 458.5,430.25"/>
    <polyline points="458.75,433.5 459.875,439.625 460.875,442.625 463.0,448.0 465.5,453.125 469.375,460.0 485.25,485.5"/>
    <polyline points="485.875,486.75 487.875,490.25 491.0,497.0 492.25,500.75 492.875,504.0 492.875,506.625"/>
    <polyline points="492.75,507.0 492.0,509.625 490.75,511.5 488.25,513.75 484.75,515.75"/>
    <polyline points="484.125,516.0 477.125,518.75 472.75,520.0 461.75,522.25"/>
    <polyline points="460.5,522.375 456.375,523.0 447.25,523.75 434.5,523.5 426.125,522.375 421.5,521.375 414.25,519.25"/>
    <polyline points="411.75,518.25 406.375,515.875 400.875,513.0 395.0,509.25 389.0,504.5 382.875,498.625 376.625,491.5 370.375,482.75 367.375,477.75 361.75,466.625 359.125,460.375 356.75,453.75 354.75,446.75 353.125,439.375 351.875,431.875 351.25,424.125 351.125,416.5 351.625,409.0"/>
    <polyline points="352.875,401.75 355.0,394.875 357.75,388.75 361.375,383.5 365.625,379.125 370.5,375.75 376.125,373.5 382.0,372.5 388.375,372.5 394.875,373.625 401.5,375.625 408.125,378.375 414.625,382.0 421.0,386.0 427.125,390.5 438.375,400.125 452.75,414.875 460.75,424.25 473.75,440.875"/>
    <polyline points="476.375,444.5 498.75,474.625 506.0,483.125 512.875,489.875"/>
    <polyline points="513.875,490.625 519.75,494.625 523.75,496.5 528.625,497.875 534.375,498.5"/>
    <polyline points="535.25,498.5 539.0,498.375 546.0,497.5 553.125,496.25 564.25,493.75"/>
    <polyline points="565.875,493.375 584.625,489.125 601.875,486.0 617.25,484.125 628.0,483.625"/>
    <polyline points="631.875,483.5 636.0,483.5 649.25,484.375 659.125,485.875 664.375,487.0 675.5,490.25 681.25,492.375 687.25,495.125 693.25,498.25 699.375,502.125 705.375,506.75 711.125,512.0 716.5,518.25 721.125,525.375 724.875,533.5 727.375,542.5 728.125,552.25 727.0,562.625 723.625,573.375 717.875,584.125 709.875,594.625 699.625,604.375"/>
    <polyline points="687.75,613.0 674.625,620.5 661.0,626.5 647.125,631.125 633.75,634.5 621.125,636.625 609.5,637.75 598.875,638.125 589.25,637.625 580.875,636.625 573.25,635.25 566.625,633.5 560.625,631.5 550.625,627.125 546.375,624.75 539.0,619.875 535.75,617.375 527.25,610.25 517.625,601.625"/>
    <polyline points="515.5,599.625 509.125,594.25 503.0,589.75 495.0,585.0 489.125,582.375 485.125,581.0 477.0,579.25 468.75,578.625 464.375,578.75"/>
    <polyline points="462.125,579.0 453.0,580.25 445.875,582.0 438.25,584.375 427.625,588.625 419.125,592.75 413.25,596.0 404.125,601.875 394.75,609.125"/>
    <polyline points="391.625,612.0 388.5,615.0 382.25,622.0 376.25,630.5 370.875,641.0 368.5,647.25 366.5,654.25 364.875,662.25 363.75,671.375 363.5,682.0 364.25,694.25 366.25,708.5 369.875,725.125 375.75,744.5 384.375,767.0 396.625,792.875 413.375,822.0 435.5,853.875 463.75,887.0 498.375,918.375 538.375,943.875 581.5,958.5 623.875,957.5"/>
    <polyline points="661.375,939.375 690.75,905.875 710.75,862.375 722.5,814.75 727.875,768.625 729.0,727.125 728.0,692.0 725.875,663.5 723.375,641.375 720.75,624.875 718.125,613.125 715.375,605.25 712.25,600.625 708.625,598.5 704.375,598.25 699.25,599.375 679.0,607.0 670.75,609.75 662.125,612.25 653.25,614.25 644.25,615.875 635.5,616.875 626.875,617.375 618.75,617.25"/>
    <polyline points="611.0,616.75 603.75,615.875 597.125,614.5 590.875,612.875 585.125,611.0 575.0,606.625 566.25,601.75 562.375,599.25 555.5,594.125 549.5,589.0 544.125,584.0 523.375,563.0"/>
    <polyline points="521.625,561.25 513.75,554.0 508.0,549.5 502.5,545.875 493.125,541.375 486.5,539.5"/>
    <polyline points="485.125,539.125 479.5,538.25 472.125,537.625 443.5,537.75"/>
    <polyline points="441.375,537.75 429.75,537.25 421.875,536.375 416.375,535.375 410.375,534.0 404.125,532.125 397.5,529.5 394.0,527.875 386.75,523.75 379.125,518.375 371.0,511.375 362.625,502.375"/>
    <polyline points="358.25,497.0 354.0,490.875 349.75,484.0 345.5,476.375 341.375,468.0 334.0,448.625 331.0,437.75 328.625,426.125 327.0,414.125 326.25,401.75 326.75,389.375 328.5,377.5 331.625,366.25 336.125,356.375 342.25,348.0 349.5,341.625 358.0,337.5 367.5,335.5 377.5,335.625 387.75,337.75 398.0,341.625 408.125,346.875 417.75,353.125 426.875,360.125 435.25,367.5"/>
    <polyline points="443.125,375.0 456.5,389.75 467.625,403.375 480.375,420.75 499.75,448.5 507.5,458.625 512.5,464.375 518.75,470.25"/>
    <polyline points="520.125,471.375 525.875,475.5 530.125,477.75 535.75,480.0 540.0,481.125 547.375,482.25 557.0,482.25"/>
    <polyline points="558.75,482.25 571.875,480.75 600.875,475.625 620.5,472.625"/>
    <polyline points="624.25,472.25 641.0,471.0 655.875,471.25 667.25,472.25 673.375,473.125 686.625,476.0 701.25,481.0 709.0,484.5 717.0,488.875 725.125,494.375 733.125,501.0 740.875,509.0 747.75,518.375 753.375,529.5 757.125,542.25 758.125,556.375 755.875,571.625 749.625,587.5"/>
    <polyline points="739.25,603.25 724.875,618.0 707.375,631.125 687.875,642.125 667.625,650.875 647.625,657.5 628.875,662.0 612.0,664.875 597.125,666.375 584.25,667.0 573.375,666.875 564.25,666.125 556.625,665.125 544.875,662.25 540.5,660.625 533.5,657.0 530.75,655.125 526.25,651.125 522.625,647.125 518.125,641.125"/>
    <polyline points="516.75,639.25 510.0,630.375 505.875,625.75 501.625,621.875 498.75,619.75 492.75,616.375 488.125,614.875 485.0,614.375 480.25,614.25"/>
    <polyline points="478.625,614.5 475.375,615.125 470.625,616.875 466.0,619.75 463.0,622.375 460.125,625.5 456.25,631.5 453.125,639.125 451.625,645.375 450.75,652.625 450.625,656.625 451.125,665.625"/>
    <polyline points="451.75,670.5 454.25,681.375 456.125,687.375 461.375,700.0 468.875,713.625 473.625,720.625 479.0,727.625 485.0,734.25 491.625,740.625 499.0,746.5 506.75,751.5 514.875,755.375 523.25,758.125 531.75,759.375 540.0,759.0 548.0,757.0 555.375,753.25 562.125,747.875 568.0,741.125 573.0,733.125 577.0,724.0 580.125,714.25 582.375,704.0"/>
    <polyline points="583.75,693.625 584.375,683.125 584.5,672.875 584.125,663.0 583.25,653.5 582.0,644.375 579.0,628.0 575.375,613.625 571.5,601.125 567.625,590.5 562.25,577.125 549.625,550.375"/>
    <polyline points="548.5,548.25 544.125,539.125 541.25,532.0 539.75,527.375 538.875,522.625 538.75,520.25 539.0,518.0"/>
    <polyline points="539.125,517.375 540.625,513.625 543.75,509.875 547.625,507.0 552.75,504.25"/>
    <polyline points="553.625,503.875 559.0,501.5 569.75,497.75 580.0,494.875 592.625,491.875"/>
    <polyline points="595.0,491.5 608.25,489.375 620.875,488.25 635.5,488.25 648.25,489.375 652.875,490.125 662.5,492.375 672.75,495.75 678.125,497.875 683.5,500.625 688.875,503.75 694.25,507.5"/>
    <polyline points="699.5,511.875 704.375,517.0 708.875,522.75 712.75,529.25 715.625,536.5 717.375,544.5 717.75,553.0 716.5,562.125 713.375,571.375 708.375,580.5 701.5,589.5 693.0,597.875 683.0,605.375 671.875,611.875 660.25,617.25 648.375,621.5 636.625,624.625 625.375,626.75 614.75,627.875 605.0,628.25 596.0,628.0 587.875,627.125 580.5,625.875 573.875,624.25 562.625,620.125"/>
    <polyline points="557.75,617.875 549.25,613.0 542.125,608.0 536.0,603.125 516.5,585.625 510.25,580.5 502.375,574.875 494.75,570.5"/>
    <polyline points="492.875,569.625 485.25,566.625 477.5,564.75 471.5,564.0 465.25,563.625 458.75,563.625 449.5,564.25 439.625,565.375"/>
    <polyline points="437.0,565.75 416.625,568.625 399.5,570.125 387.75,570.25 379.125,569.625 374.625,569.0 364.875,566.875 354.25,563.125 348.5,560.5 342.5,557.125 336.125,552.875"/>
    <polyline points="329.375,547.625 322.25,541.25 314.625,533.25 306.75,523.625 298.375,511.75 289.75,497.5 280.875,480.25 272.0,459.75 263.625,435.75 256.375,408.0 250.875,377.0 248.375,343.5 250.0,309.25 256.875,276.625 269.75,248.5 288.5,228.0 312.0,216.625 338.625,215.125 366.125,222.25 392.5,235.75 416.375,253.25 436.875,272.375 454.0,291.375 467.625,309.25 478.25,325.5 486.25,339.625"/>
    <polyline points="492.125,351.875 496.125,362.375 498.625,371.375 500.0,379.0 500.5,385.625 500.375,391.375 499.75,396.25 498.75,400.75 496.25,408.375 491.375,420.875 489.75,426.375 488.875,431.5 488.625,434.0 488.875,438.75 489.625,443.25 491.75,449.625"/>
    <polyline points="492.625,451.625 494.625,455.5 499.125,462.375 502.75,467.0 506.5,471.125 508.875,473.625 513.75,477.875 517.375,480.625 522.125,483.625"/>
    <polyline points="523.25,484.25 529.125,486.875 536.25,488.875 542.375,489.625 546.375,489.75 554.875,489.25"/>
    <polyline points="556.375,489.125 569.875,487.125 599.625,481.625 611.75,479.875"/>
    <polyline points="615.0,479.5 625.875,478.5 638.125,478.125 652.25,478.75 662.75,480.125 674.375,482.625 680.5,484.375 687.0,486.625 693.625,489.375 700.375,492.875 707.25,497.0 714.125,502.0 720.875,508.0 727.125,515.0 732.625,523.25 737.0,532.625 739.875,543.125 740.625,554.625"/>
    <polyline points="738.875,567.0 734.25,579.75 726.625,592.5 716.0,604.625 703.0,615.75 688.0,625.375 671.875,633.375 655.5,639.625 639.625,644.25 624.625,647.25 610.75,649.125 598.5,649.875 587.5,649.875 578.0,649.125 569.75,648.0 562.5,646.5 556.25,644.75 546.125,640.625 541.875,638.375 534.875,633.875 529.0,629.25 523.875,624.75"/>
    <polyline points="521.625,622.625 509.375,611.125 501.75,605.125 496.25,601.75 488.75,598.375 484.875,597.25 481.125,596.5 473.25,596.125"/>
    <polyline points="471.375,596.375 465.25,597.25 459.125,599.125 452.875,602.0 446.625,606.0 440.375,611.25 436.25,615.625 432.375,620.75 430.5,623.75 427.125,630.5 424.25,638.5 423.0,643.125"/>
    <polyline points="422.0,648.125 421.0,659.75 421.125,666.5 421.625,673.875 422.75,681.875 424.5,690.75 427.125,700.5 430.625,711.0 435.375,722.5 441.25,734.75 448.625,747.875 457.625,761.375 468.375,775.125 480.75,788.75 495.0,801.375 510.625,812.375 527.5,820.75 544.875,825.75 562.25,826.625 578.625,822.875 593.5,814.5 606.25,802.0 616.5,786.0 624.25,767.625 629.625,748.0"/>
    <polyline points="633.0,727.875 634.625,708.375 634.875,689.75 634.125,672.5 632.75,656.75 631.0,642.625 629.0,630.125 624.625,609.25 618.25,586.75 613.0,571.625 601.875,545.0"/>
    <polyline points="601.5,543.625 600.5,539.875 600.25,537.625 600.625,533.875 601.5,531.375 603.0,529.125 605.0,527.25 608.5,525.125 611.75,523.875"/>
    <polyline points="612.875,523.5 618.0,522.625 622.375,522.5 628.5,523.25 633.375,524.5 638.125,526.5 642.625,529.25 646.5,533.0 648.5,535.875"/>
    <polyline points="649.375,537.375 650.5,540.75 650.875,544.375 650.375,548.0 649.75,549.875 649.0,551.625 646.625,555.25 641.625,559.875 637.375,562.375 635.0,563.375 630.125,565.0 627.5,565.5 622.25,566.125 619.75,566.125 612.0,565.375"/>
    <polyline points="609.625,564.875 602.75,562.625 598.75,560.625 593.25,557.125 588.75,553.25 584.125,547.75 580.875,542.25 579.0,537.0 578.625,534.375"/>
    <polyline points="578.375,533.25 578.5,529.625 579.125,526.375 581.0,522.375 583.125,519.5 585.875,517.0 589.125,514.625 594.5,511.875 597.625,510.75"/>
    <polyline points="599.25,510.125 606.75,508.25 615.375,507.125 622.75,506.875 633.75,507.75 639.75,508.75 649.0,511.5 658.5,515.875 664.5,520.0"/>
    <polyline points="667.375,522.375 672.625,528.0 676.625,534.75 678.0,538.5 678.875,542.5 679.25,546.75 679.0,551.0 678.125,555.5 676.625,560.0 674.25,564.375 671.375,568.625 667.75,572.75 663.5,576.5 658.75,580.0 653.5,583.125 648.0,585.75 642.25,588.0 636.375,589.75 630.5,591.0 619.0,592.25 613.5,592.25 608.125,591.875 603.125,591.125"/>
    <polyline points="598.375,590.25 589.625,587.625 581.875,584.25 575.0,580.375 566.375,574.25 561.5,570.0 555.25,563.75 546.875,554.0 539.625,544.0"/>
    <polyline points="538.625,542.5 535.125,537.25 531.25,530.625 528.375,524.625 526.75,519.625"/>
    <polyline points="526.625,519.125 526.375,516.375 526.75,514.375 527.875,512.125 529.875,510.125"/>
    <polyline points="530.125,509.875 535.5,506.75 544.625,503.125"/>
    <polyline points="545.5,502.875 560.75,497.875 578.375,493.125"/>
    <polyline points="580.375,492.625 591.125,490.25 601.125,488.5 612.75,487.0 622.75,486.25 638.0,486.25 651.375,487.625 661.125,489.5"/>
    <polyline points="666.25,490.875 677.125,494.5 682.75,497.0 694.125,503.5 699.75,507.625 705.125,512.5 710.25,518.125 714.75,524.625 718.375,531.875 721.0,540.0 722.25,548.75 721.75,558.125 719.5,568.0 715.125,577.875 708.625,587.625 700.125,596.875 689.875,605.375 678.375,612.75 666.0,619.0 653.375,624.0 640.75,627.75 628.625,630.25 617.25,631.875 606.625,632.5"/>
    <polyline points="597.0,632.375 588.25,631.75 580.5,630.5 573.5,629.0 567.25,627.125 561.625,625.0 552.125,620.5 544.125,615.5 534.375,608.125 517.0,592.625 510.625,587.25 504.5,582.625"/>
    <polyline points="502.5,581.375 496.625,577.75 490.75,575.0 484.875,572.875 478.875,571.375 472.75,570.5 466.5,570.125 459.875,570.25 450.625,571.25"/>
    <polyline points="448.25,571.625 443.25,572.375 429.875,575.25 390.5,585.375 378.375,588.0 364.875,589.875"/>
    <polyline points="360.0,590.25 349.75,590.5 344.25,590.125 338.375,589.375 332.25,588.125 325.75,586.375 318.875,583.75 311.5,580.125 303.5,575.25 295.0,568.75 285.75,560.375 275.625,549.375 264.75,535.125 253.0,516.875 240.5,493.625 227.625,464.25 214.875,428.0 203.625,384.25 195.875,333.5 194.25,278.0 201.875,222.75 221.25,174.875 252.625,141.875 293.25,128.625 337.875,134.875"/>
    <polyline points="381.0,155.625 418.625,184.5 448.875,215.625 471.375,245.0 487.0,270.75 496.625,292.25 501.375,309.75 502.125,323.75 499.625,335.0 494.875,344.25 488.375,352.0 480.75,358.75 456.5,376.75 449.375,382.375 443.25,388.0 438.0,393.625 433.875,399.0 430.875,404.125 428.875,409.125 427.625,413.75 427.125,418.125 427.125,422.125 428.625,429.5"/>
    <polyline points="429.75,432.875 432.625,438.875 435.875,444.125 447.875,461.375 453.375,470.125 456.625,476.375 458.875,481.75"/>
    <polyline points="459.25,483.0 460.625,489.875 460.625,492.75 460.25,495.375 458.75,499.25 456.75,501.75 454.125,503.875"/>
    <polyline points="453.375,504.375 450.875,505.75 448.0,506.75 443.625,507.75 438.5,508.25 435.75,508.25 429.625,507.625 421.125,505.5"/>
    <polyline points="419.375,504.875 411.625,501.375 405.625,497.5 401.375,494.25 395.125,488.125 388.875,480.375 383.125,470.875 381.375,467.375 378.375,459.75 376.0,451.625 374.5,443.0"/>
    <polyline points="374.125,438.75 374.375,430.25 375.125,426.25 376.0,422.5 377.375,418.875 379.125,415.75 381.25,412.875 383.625,410.5 386.375,408.625 389.375,407.125 392.625,406.25 396.125,405.75 403.5,406.375 407.375,407.375 411.25,408.75 419.0,412.625 422.875,415.0 430.125,420.375 437.0,426.25 443.25,432.375"/>
    <polyline points="446.25,435.5 454.125,444.5 466.25,460.625 475.75,475.375 482.875,488.875"/>
    <polyline points="483.375,490.125 485.75,496.375 486.625,500.625 486.625,505.25 485.75,508.0 485.125,509.0"/>
    <polyline points="484.875,509.5 482.625,512.125 478.125,515.125 472.875,517.375 469.25,518.5"/>
    <polyline points="468.25,518.875 459.25,520.875 447.875,522.125 439.375,522.25 431.625,521.625"/>
    <polyline points="429.625,521.375 420.875,519.625 413.625,517.25 408.5,515.125 403.125,512.375 397.625,509.0 388.875,502.125 382.875,496.125 376.875,488.875 373.875,484.75 370.875,480.25 368.125,475.25 362.75,464.25"/>
    <polyline points="360.375,458.125 358.25,451.625 356.5,444.875 355.0,437.875 354.0,430.625 353.5,423.375 353.625,416.125 354.375,409.0 355.875,402.25 358.0,396.0 360.75,390.375 364.375,385.625 368.5,381.625 373.375,378.75 378.625,376.875 384.375,376.0 390.5,376.25 396.75,377.375 403.0,379.375 409.25,382.125 415.5,385.5 421.5,389.375 427.375,393.625 432.875,398.125 443.0,407.5"/>
    <polyline points="447.625,412.25 456.0,421.5 466.5,434.375 477.5,448.875 495.5,473.625 502.75,482.625"/>
    <polyline points="503.75,483.875 506.75,487.25 512.75,493.0 518.75,497.125 523.625,499.125"/>
    <polyline points="524.375,499.375 530.0,500.375 534.625,500.375 539.75,499.875 544.5,499.0"/>
    <line x1="545.5" x2="582.25" y1="498.875" y2="490.375"/>
    <polyline points="584.375,489.875 598.75,487.125 610.125,485.5 623.5,484.375 635.0,484.25 643.625,484.625 657.875,486.5 668.375,489.0 673.875,490.625"/>
    <polyline points="679.625,492.75 685.5,495.375 697.375,502.125 703.25,506.5 709.0,511.75 714.25,517.625 719.0,524.5 722.75,532.25 725.375,541.0 726.5,550.375 725.75,560.5 722.875,571.0 717.75,581.5 710.375,591.75 700.75,601.5 689.5,610.25 676.875,617.75 663.625,624.0 650.125,628.875 636.875,632.375 624.25,634.75 612.5,636.125 601.875,636.5 592.125,636.25 583.5,635.375"/>
    <polyline points="575.875,634.125 569.0,632.5 562.875,630.5 557.5,628.375 548.25,623.75 540.75,618.875 534.25,613.875 508.125,591.25 502.0,586.875 498.0,584.5"/>
    <polyline points="496.125,583.375 490.125,580.625 486.25,579.125 482.25,578.0 476.125,576.875 469.875,576.375 465.5,576.375 456.625,577.125 447.125,578.875 442.125,580.25"/>
    <polyline points="439.5,580.875 428.875,584.5 414.25,590.625 401.625,597.125 391.5,603.25 381.125,610.625 374.0,616.625 366.875,623.75 360.0,632.375"/>
    <polyline points="356.625,637.375 353.5,643.0 350.625,649.5 348.125,656.75 346.125,665.25 344.625,675.0 344.0,686.5 344.625,700.0 346.625,716.0 350.75,735.0 357.625,757.75 368.0,784.75 383.375,816.375 404.75,852.75 433.875,892.875 471.625,934.25 518.125,971.75 570.875,998.125 625.375,1005.375 674.75,988.875 713.625,949.625 739.5,895.375 753.625,835.5 759.375,778.5 760.125,729.0 758.5,689.0"/>
    <polyline points="756.125,658.375 753.5,636.5 750.875,621.75 747.875,613.25 744.25,609.375 739.375,609.375 732.875,612.0 714.625,622.0 703.0,627.75 690.0,633.25 676.125,638.0 662.125,642.0 648.125,644.875 634.875,646.75 622.375,647.625 611.0,647.75 600.625,647.25 591.375,646.125 583.25,644.5 576.0,642.625 569.5,640.375 558.75,635.375 550.125,629.875"/>
    <polyline points="546.375,627.125 539.75,621.625 531.375,613.5 517.625,599.375 509.375,591.875 505.375,588.625 499.5,584.625 495.625,582.375 489.75,579.625"/>
    <polyline points="487.75,578.875 479.75,576.625 473.625,575.75 469.375,575.5 460.75,575.75 451.5,577.0 444.125,578.5 431.0,582.375"/>
    <polyline points="428.25,583.375 419.625,586.625 410.375,590.625 397.25,597.125 383.125,605.25 372.0,613.0 364.375,619.125 356.75,626.375 353.0,630.625 345.875,640.5 342.5,646.5"/>
    <polyline points="339.375,653.25 336.625,661.0 334.5,670.0 333.0,680.5 332.5,693.0 333.375,708.0 336.0,725.875 341.125,747.5 349.625,773.625 362.75,804.875 382.0,842.0 409.125,884.625 445.875,931.0 493.375,976.625 550.125,1013.75 584.3378,1024.0"/>
    <polyline points="668.3098,1024.0 670.875,1023.625 719.0,986.375 751.75,928.0 769.75,860.625 777.25,795.375 778.375,739.0 776.875,694.125 774.375,660.625 771.875,637.625 769.125,623.25"/>
    <polyline points="765.875,616.125 761.375,614.5 755.0,617.125 734.75,629.875 720.75,637.75 704.875,645.25 687.625,652.0 669.875,657.375 652.625,661.5 636.25,664.125 621.25,665.625 607.875,666.125 596.125,665.875 585.875,665.0 577.125,663.5 569.625,661.75 563.125,659.625 557.625,657.375 552.875,654.875 548.75,652.25 545.0,649.625 541.75,646.875 533.75,638.625"/>
    <polyline points="531.5,635.875 516.0,616.25 507.0,606.875 501.5,602.5 496.0,598.875 492.25,597.0 484.75,594.375"/>
    <polyline points="482.75,593.875 475.0,593.0 468.875,593.25 460.625,594.875 454.125,597.125 447.625,600.375 441.0,604.75 434.375,610.5 430.125,615.25"/>
    <polyline points="428.0,617.875 424.0,624.0 422.125,627.5 418.75,635.5 417.375,640.125 415.125,650.625 414.5,656.75 414.25,663.5 414.5,671.0 415.375,679.25 416.875,688.375 419.125,698.5 422.5,709.625 427.0,721.75 432.875,735.0 440.375,749.25 449.625,764.25 460.875,779.75 474.25,795.375 489.625,810.125 507.0,823.375 526.0,833.875 545.75,840.375"/>
    <polyline points="565.5,842.125 584.375,838.375 601.375,829.0 615.75,814.625 627.125,796.25 635.625,775.125 641.25,752.75 644.5,730.125 645.875,708.375 645.875,688.125 644.875,669.5 643.25,653.0 641.25,638.375 639.125,625.625 636.875,614.5 632.375,596.75 628.375,583.625 624.75,574.0 620.125,564.0 617.5,559.25"/>
    <polyline points="616.25,557.25 609.25,546.875 606.5,541.625 605.75,538.625 605.75,536.625 606.5,534.0"/>
    <polyline points="606.875,533.375 608.0,531.75 609.625,530.25 611.75,529.0 616.0,527.625 619.0,527.125 623.5,527.125 628.25,528.0"/>
    <polyline points="629.375,528.375 634.125,530.25 637.25,532.375 640.0,535.125 642.0,538.25 642.75,540.625 643.0,543.125 642.75,545.625 641.25,549.375 638.375,552.875"/>
    <polyline points="637.25,553.875 634.5,555.75 627.875,558.25 624.25,558.875 620.5,559.125 616.875,558.875 613.25,558.25 606.5,556.0 602.125,553.5 597.375,549.625"/>
    <polyline points="596.375,548.625 594.5,546.5 591.875,542.0 590.625,538.75 590.125,535.5 590.375,531.375 591.25,528.5 593.375,525.0 594.875,523.5"/>
    <polyline points="595.75,522.625 599.75,519.875 604.75,517.625 610.875,516.0 616.25,515.25 626.25,515.25 630.625,515.75 637.375,517.375"/>
    <polyline points="639.75,518.0 644.375,519.875 649.0,522.25 655.375,527.0 658.875,531.0 660.5,533.25 661.75,535.625 662.875,538.125 664.0,543.625 664.125,546.5 663.125,552.375 662.0,555.375 660.5,558.25 658.5,561.125 653.5,566.375 650.5,568.75 647.25,570.875 643.625,572.75"/>
    <polyline points="639.875,574.375 636.0,575.75 632.0,576.75 628.0,577.5 620.0,578.25 612.25,577.875 608.5,577.375 598.25,574.75 589.375,570.75 584.25,567.625 579.75,564.25 575.75,560.75 570.75,555.5 567.875,552.0"/>
    <polyline points="566.625,550.25 564.375,546.875 561.75,542.125 559.75,537.625 558.0,532.125 557.375,528.375 557.375,525.0 558.0,520.875 559.125,518.125"/>
    <polyline points="559.5,517.25 561.25,514.625 564.125,511.5 570.125,507.25 573.75,505.25 578.0,503.375 588.25,499.875"/>
    <polyline points="590.125,499.375 598.75,497.375 608.75,495.75 617.25,495.0 623.5,494.75 630.25,494.875 637.5,495.375 649.375,497.25 662.25,500.875 671.25,504.75"/>
    <polyline points="675.75,507.25 684.75,513.375 692.875,521.5 696.375,526.375 699.375,531.75 701.625,537.625 703.0,544.0 703.375,550.75 702.625,557.875 700.5,565.125 697.0,572.375 692.125,579.5 686.0,586.375 678.75,592.625 670.625,598.125 661.75,603.0 652.5,606.875 643.125,610.0 633.75,612.25 624.75,613.75 616.125,614.625 608.0,614.75 600.375,614.375 593.375,613.5"/>
    <polyline points="586.875,612.125 580.875,610.625 570.5,606.75 561.75,602.25 554.25,597.375 547.75,592.5 542.0,587.625 522.0,568.625 513.125,560.75"/>
    <polyline points="511.375,559.5 506.625,555.875 501.875,552.75 498.875,551.0 491.25,547.625 483.625,545.375 475.625,544.0 472.375,543.75"/>
    <polyline points="470.625,543.625 461.75,543.25 431.5,543.375 423.5,542.875 414.75,541.75"/>
    <polyline points="411.625,541.25 401.875,538.75 391.0,534.75 383.125,530.75 374.875,525.25 366.0,518.0 361.25,513.5 356.625,508.375 351.75,502.5 346.875,495.75 341.875,488.125 337.0,479.625 332.25,469.875 327.75,459.125 323.625,447.25 320.0,434.375 317.125,420.625 315.125,406.0 314.5,391.125"/>
    <polyline points="315.25,376.125 317.625,361.75 321.875,348.625 328.125,337.125 336.125,328.0 345.75,321.625 356.75,318.0 368.5,317.5 380.875,319.5 393.25,323.875 405.25,330.125 416.75,337.625 427.375,346.0 437.125,354.875 446.0,363.75 453.875,372.5 467.125,388.875 472.75,396.25 482.0,409.5 497.875,434.0"/>
    <polyline points="500.25,437.625 506.5,446.875 511.75,453.875 516.625,459.5 521.125,463.875 524.125,466.25 529.875,470.0 535.75,472.75 540.25,474.25"/>
    <polyline points="541.875,474.625 549.75,475.875 560.0,476.0 571.625,474.875 589.875,471.625"/>
    <polyline points="592.5,471.0 613.25,466.875 627.875,464.375 645.25,462.375 655.25,461.875 666.5,462.0 672.625,462.375 686.125,464.0 693.5,465.375 701.375,467.25 709.75,469.875"/>
    <polyline points="718.625,473.375 728.0,477.75 737.625,483.375 747.5,490.5 757.125,499.375 766.25,510.25 773.875,523.5 779.25,538.875 781.25,556.5 778.5,575.875 770.25,596.25 755.875,616.25 736.125,634.75 712.375,650.75 686.375,663.625 660.375,673.375 636.0,680.125 614.125,684.75 595.5,687.5 580.0,689.25 557.375,690.375 543.5,690.125 538.875,689.625 535.375,688.875"/>
    <polyline points="532.875,688.125 531.125,687.125 529.875,685.875 528.625,682.875 528.25,679.25 528.375,669.875 528.0,661.625 526.25,650.0 523.875,641.25 521.875,635.75 518.375,628.0"/>
    <polyline points="517.0,625.625 514.25,621.0 508.25,613.125 503.375,608.375 498.25,604.375 493.0,601.375 487.5,599.125 482.0,597.875 478.125,597.375 474.375,597.375"/>
    <polyline points="472.375,597.5 470.375,597.625 464.5,598.875 460.375,600.125 456.375,601.875 450.125,605.375 446.0,608.375 442.0,612.0 438.0,616.375 432.375,624.375 427.625,634.875 425.125,643.625"/>
    <polyline points="424.25,648.625 423.625,654.0 423.375,660.0 424.0,673.75 425.125,681.625 427.0,690.25 429.5,699.75 433.0,710.0 437.625,721.0 443.375,732.875 450.5,745.375 459.125,758.375 469.375,771.5 481.25,784.375 494.75,796.5 509.625,807.0 525.625,815.125 542.125,820.125 558.625,821.25 574.5,818.125 588.875,810.75 601.25,799.375 611.5,784.625 619.375,767.375 625.0,748.875"/>
    <polyline points="628.5,729.625 630.375,710.75 630.875,692.625 630.5,675.625 629.25,660.125 627.625,646.0 625.625,633.375 621.375,612.25 615.0,589.0 609.625,573.125 601.0,551.625 598.375,544.375"/>
    <polyline points="598.0,542.875 597.125,538.75 597.125,534.125 597.875,531.25 599.25,528.625 602.75,525.0 605.625,523.25 610.25,521.5"/>
    <polyline points="611.625,521.125 617.375,520.125 623.875,520.0 631.125,521.0 634.75,522.0 640.375,524.25 645.625,527.375 648.75,530.125 651.5,533.25 652.625,535.0"/>
    <polyline points="653.625,536.875 654.375,538.75 655.25,542.875 655.375,545.0 654.75,549.375 653.0,553.75 651.625,555.875 648.25,559.875 646.125,561.75 641.25,565.0 635.75,567.5 626.75,569.75 620.625,570.25 614.625,570.0 608.75,569.0"/>
    <polyline points="606.0,568.375 596.125,564.375 589.875,560.375 584.75,556.125 581.75,553.125 577.125,547.0 575.375,544.0 573.375,539.625 571.875,534.25"/>
    <polyline points="571.625,533.0 571.5,528.125 571.875,525.75 572.875,522.625 574.5,519.625 578.375,515.125 581.5,512.75 588.0,509.125"/>
    <polyline points="589.5,508.5 594.5,506.625 602.125,504.625 611.125,503.125 621.625,502.5 630.375,502.75 640.125,504.0 647.0,505.625 654.125,507.875"/>
    <polyline points="657.75,509.375 661.375,511.125 668.625,515.375 675.375,520.875 678.5,524.125 681.25,527.75 683.625,531.75 685.625,536.125 687.0,540.75 687.75,545.625 687.75,550.75 686.875,556.125 685.125,561.5 682.5,566.875 679.0,572.125 674.625,577.125 669.5,581.75 663.75,586.0 657.375,589.75 650.625,592.875 643.625,595.5 636.625,597.5 629.625,598.875 622.75,599.75"/>
    <polyline points="616.125,600.125 609.75,600.0 603.75,599.5 592.75,597.5 583.25,594.375 574.875,590.625 567.625,586.375 558.5,579.625 546.625,568.5 534.375,554.875"/>
    <polyline points="533.0,553.25 519.25,537.75 513.25,532.0 508.75,528.625"/>
    <polyline points="508.125,528.125 505.375,526.5 500.0,524.375 496.625,523.625 491.0,523.25"/>
    <polyline points="490.25,523.25 483.625,523.5 465.5,525.75"/>
    <polyline points="464.25,525.875 450.875,527.0 440.0,527.125 427.375,526.0 417.75,523.875"/>
    <polyline points="415.125,523.125 407.0,520.125 401.25,517.375 392.0,511.625 385.5,506.5 378.875,500.0 375.5,496.25 372.125,492.125 365.375,482.375 362.125,476.875 359.0,470.75 353.375,457.125 350.875,449.625 348.75,441.625 347.125,433.375 346.0,424.875 345.625,416.125"/>
    <polyline points="345.875,407.625 346.875,399.25 348.875,391.375 351.625,384.25 355.375,377.875 360.0,372.625 365.375,368.625 371.375,365.875 378.0,364.5 385.125,364.375 392.375,365.5 399.75,367.75 407.125,370.875 414.25,374.875 421.25,379.5 434.25,389.75 440.125,395.25 450.75,406.125 464.0,421.625 474.375,435.125"/>
    <polyline points="477.375,439.125 495.125,463.375 503.0,473.25 510.75,481.5 517.5,487.125"/>
    <polyline points="518.5,487.75 524.625,491.25 530.5,493.375 536.75,494.375 544.375,494.375"/>
    <polyline points="545.625,494.375 553.25,493.5 561.875,492.0 586.5,487.0"/>
    <polyline points="588.875,486.5 607.75,483.375 620.875,482.0 628.375,481.625 645.25,482.0 660.125,483.75 671.125,486.25 683.0,490.125 689.125,492.875"/>
    <polyline points="695.5,496.125 701.875,500.0 708.125,504.75 714.25,510.25 720.0,516.625 725.0,524.125 729.0,532.625 731.75,542.125 732.625,552.375 731.5,563.5 727.875,574.875 721.625,586.375 712.875,597.5 701.75,607.75 688.875,617.0 674.75,624.75 660.125,630.875 645.5,635.625 631.5,639.0 618.25,641.125 606.25,642.125 595.375,642.375 585.75,641.875 577.25,640.875 569.75,639.375 563.125,637.625"/>
    <polyline points="557.25,635.625 547.625,631.25 539.75,626.5 530.375,619.25 513.625,604.25 507.5,599.125 499.5,593.5 495.625,591.25 491.625,589.375"/>
    <polyline points="489.625,588.625 485.75,587.25 481.75,586.25 475.625,585.375 469.375,585.125 460.875,586.0 454.125,587.5 449.5,589.0 442.375,591.75 435.0,595.5"/>
    <polyline points="432.375,597.0 424.75,602.25 417.0,608.875 411.875,614.25 407.0,620.75 402.25,628.5 398.25,637.875 396.5,643.375 395.0,649.5 393.875,656.375 393.125,664.0 393.0,672.625 393.625,682.25 395.125,693.25 397.625,705.625 401.5,719.625 407.0,735.25 414.625,752.75"/>
    <polyline points="424.5,772.0 437.375,792.875 453.5,814.75 473.0,836.875 496.125,857.625 522.125,875.125 550.25,887.125 578.875,891.375 606.125,886.5 630.0,872.125 649.5,849.75 663.75,821.5 673.25,790.125 678.625,758.25 680.875,727.875 681.0,700.125 679.875,675.875 677.875,655.0 675.625,637.5 673.125,623.0 670.75,611.25 668.375,601.875 666.0,594.5 663.75,588.75 661.5,584.25 659.125,581.0"/>
    <polyline points="656.875,578.625 654.375,576.875 651.875,575.625 649.25,574.875 643.75,574.125 625.25,573.375 619.0,572.625 610.25,570.625 604.75,568.75 599.75,566.5 595.125,563.875 589.25,559.75"/>
    <polyline points="587.5,558.25 585.75,556.75 580.25,550.625 576.25,544.5 574.25,540.125 572.875,536.0 572.25,532.125 572.375,527.25 573.25,524.0"/>
    <polyline points="573.625,523.0 575.75,519.0 577.25,517.25 580.0,514.625 584.5,511.5 591.75,508.125 598.75,505.875 604.875,504.5"/>
    <polyline points="607.125,504.125 614.25,503.25 622.125,502.875 631.0,503.25 637.375,504.0 644.0,505.375 647.5,506.25 654.5,508.625 661.75,511.875 668.75,516.25 672.125,518.875 678.375,525.125 681.0,528.75 683.375,532.75"/>
    <polyline points="685.125,537.125 686.375,541.75 686.875,546.625 686.75,551.75 685.75,557.0 683.875,562.25 681.125,567.5 677.5,572.625 673.125,577.5 668.0,582.0 662.125,586.125 655.875,589.625 649.25,592.625 642.375,595.125 635.5,597.0 621.875,599.125 615.375,599.375 609.125,599.25 603.25,598.625 597.75,597.75 592.5,596.5 587.625,595.125 583.125,593.375 574.875,589.625"/>
    <polyline points="571.25,587.5 561.625,580.875 551.375,571.875 543.25,563.5 524.125,541.25"/>
    <polyline points="523.125,540.125 519.5,536.0 514.0,530.625 508.0,526.0 505.0,524.375"/>
    <polyline points="504.375,524.125 501.375,523.0 497.75,522.25 495.25,522.0 488.375,522.125"/>
    <line x1="487.625" x2="462.0" y1="522.25" y2="525.5"/>
    <polyline points="460.625,525.625 448.25,526.625 435.0,526.375 428.625,525.625 421.625,524.375 414.0,522.25 411.375,521.25"/>
    <polyline points="408.625,520.25 400.0,516.125 394.0,512.25 387.625,507.5 381.125,501.5 377.75,498.0 371.125,489.75 367.75,485.0 361.375,474.0 355.5,461.125 352.875,453.875 350.625,446.25 348.75,438.25 347.375,430.0 346.625,421.625 346.5,413.125 347.0,404.75 348.5,396.75"/>
    <polyline points="350.75,389.25 353.875,382.5 357.875,376.75 362.75,372.0 368.25,368.5 374.5,366.375 381.125,365.5 388.125,365.875 395.375,367.375 402.625,370.0 409.875,373.375 416.875,377.625 423.625,382.25 430.125,387.25 441.875,398.0 447.25,403.375 461.0,418.875 471.875,432.75 480.5,444.375"/>
    <polyline points="483.0,447.875 496.875,466.625 504.25,475.625 511.625,483.25 519.125,489.125"/>
    <polyline points="520.125,489.75 525.875,492.625 530.75,494.125 538.875,495.125 545.5,494.875"/>
    <polyline points="546.75,494.75 560.125,492.75 588.25,486.875"/>
    <polyline points="590.625,486.5 609.875,483.375 623.5,482.25 635.25,481.875 648.5,482.625 658.5,483.875 669.375,486.125 681.0,489.875 687.125,492.375 693.375,495.5"/>
    <polyline points="699.625,499.25 706.0,503.625 712.125,508.875 717.875,515.125 723.0,522.25 727.375,530.375 730.375,539.5 731.875,549.5 731.25,560.25 728.375,571.5 723.0,582.875 715.0,594.0 704.625,604.5 692.375,613.875 678.75,622.0 664.375,628.625 649.75,633.75 635.625,637.375 622.375,639.875 610.0,641.25 598.875,641.625 588.875,641.375 580.125,640.375 572.375,639.125 559.375,635.5"/>
    <polyline points="554.125,633.375 545.125,628.75 537.75,624.0 531.5,619.125 512.375,602.125 506.25,597.125 498.25,591.75 494.375,589.625 490.375,587.875"/>
    <polyline points="488.5,587.125 482.5,585.375 476.375,584.375 470.125,584.0 461.625,584.75 452.5,586.625 447.875,588.125 440.625,591.0 433.125,594.75"/>
    <polyline points="430.5,596.25 420.0,603.5 414.75,608.125 412.125,610.625 406.875,616.5 401.875,623.5 397.25,632.0 395.125,637.0 393.25,642.375 391.625,648.5 390.375,655.25 389.5,662.875 389.25,671.5 389.625,681.25 390.875,692.375 393.25,704.875 397.0,719.0 402.375,735.0 409.875,753.0"/>
    <polyline points="420.0,773.0 433.0,794.75 449.5,817.875 469.75,841.25 493.875,863.5 521.25,882.375 551.0,895.5 581.375,900.25 610.25,895.0 635.5,879.625 655.75,855.5 670.5,825.125 680.0,791.75 685.25,758.25 687.25,726.5 687.125,698.0 685.75,673.125 683.75,652.125 678.875,620.625 676.375,609.25 674.0,600.375 671.625,593.625 669.25,588.5 666.875,584.75 664.375,582.0"/>
    <polyline points="661.75,580.25 659.0,579.125 653.0,578.25 631.625,579.0 627.875,578.875 620.375,578.25 609.875,576.375 600.375,573.125 594.75,570.5 589.625,567.5 583.0,562.5"/>
    <polyline points="581.125,560.875 576.0,555.75 570.75,549.0 567.0,542.5 565.625,539.5 563.875,533.875 563.125,528.75 563.375,524.25"/>
    <polyline points="563.625,523.125 564.625,520.125 566.125,517.25 568.25,514.625 570.75,512.25 572.75,510.625 577.375,507.75 581.5,505.75 588.0,503.25"/>
    <polyline points="589.75,502.75 599.875,500.125 612.125,498.25 620.75,497.75 630.25,497.875 640.875,499.0 648.375,500.375 656.375,502.625 664.75,505.875"/>
    <polyline points="668.875,508.0 673.125,510.375 677.25,513.125 681.25,516.25 685.0,519.875 688.5,524.0 691.5,528.5 694.125,533.375 696.0,538.875 697.125,544.625 697.375,550.75 696.5,557.25 694.625,563.75 691.5,570.25 687.125,576.625 681.75,582.625 675.375,588.25 668.25,593.375 660.375,597.75 652.125,601.375 643.75,604.375 635.25,606.5 627.0,608.0 619.0,608.875 611.375,609.125 604.25,608.875"/>
    <polyline points="597.5,608.125 591.375,607.0 580.25,603.875 570.875,599.875 562.875,595.375 559.25,593.0 552.75,588.25 544.5,581.125 520.875,557.75"/>
    <polyline points="519.25,556.25 510.625,548.75 504.0,544.125 495.125,539.625 488.875,537.625 486.25,537.125"/>
    <polyline points="485.0,536.875 482.375,536.375 472.625,535.625 445.125,536.0"/>
    <polyline points="443.125,536.0 431.875,535.5 424.375,534.75 419.125,533.875 410.5,531.875 397.75,527.125 390.875,523.5 387.25,521.25 379.75,515.875 371.875,508.75 367.875,504.625"/>
    <polyline points="363.75,499.75 355.5,488.375 351.375,481.75 347.375,474.25 343.625,466.125 340.0,457.125 336.75,447.375 334.0,437.0 331.75,426.0 330.375,414.625 329.875,403.0 330.375,391.375 332.125,380.25 335.125,369.875 339.625,360.625 345.25,352.875 352.25,346.875 360.125,342.875 369.0,340.875 378.375,341.0 388.125,342.75 397.875,346.25 407.375,351.0 416.625,356.75 425.375,363.25"/>
    <polyline points="433.5,370.125 441.0,377.25 447.875,384.375 454.25,391.25 460.0,398.0 469.875,410.5 478.0,421.5 501.75,454.875 509.0,463.625 515.25,470.125"/>
    <polyline points="516.75,471.5 521.0,475.0 525.125,477.75 533.25,481.625 538.75,483.25 543.0,484.0 552.0,484.5"/>
    <polyline points="553.5,484.5 558.5,484.25 569.25,483.0 608.875,476.125"/>
    <polyline points="612.125,475.75 626.5,474.0 643.75,473.25 653.625,473.625 664.625,474.625 676.75,476.75 683.25,478.375 690.125,480.5 704.75,486.5 712.375,490.75 720.0,495.75 727.625,502.0 735.0,509.375 741.625,518.125 747.125,528.375 750.875,540.125"/>
    <polyline points="752.375,553.125 750.875,567.25 746.0,582.0 737.25,596.75 725.0,610.75 709.5,623.625 691.875,634.625 673.125,643.625 654.25,650.375 636.125,655.375 619.375,658.5 604.5,660.375 591.375,661.25 580.0,661.25 570.375,660.625 562.25,659.5 549.375,656.625 540.125,652.875 533.25,648.875 528.0,644.75 523.625,640.5"/>
    <polyline points="521.625,638.5 510.0,625.375 503.75,619.375 500.5,616.875 495.75,613.875 490.875,611.625 484.25,610.0 480.875,609.75"/>
    <polyline points="479.125,609.875 474.0,610.5 472.25,611.0 465.5,613.875 463.75,614.875 458.875,618.75 454.125,624.0 450.0,630.875 448.75,633.625 446.625,639.75 445.125,647.0 444.375,655.375"/>
    <polyline points="444.375,660.0 445.25,670.625 447.75,682.75 449.75,689.375 455.5,704.0 459.375,711.75 464.0,719.875 469.375,728.0 475.625,736.25 482.75,744.375 490.625,752.0 499.25,758.875 508.625,764.875 518.375,769.5 528.5,772.5 538.5,773.625 548.375,772.625 557.75,769.5 566.25,764.25 573.75,757.0 580.125,748.0 585.375,737.625 589.375,726.375"/>
    <polyline points="592.25,714.375 594.125,702.125 595.125,690.0 595.375,678.0 595.0,666.5 594.0,655.625 591.25,635.875 587.625,618.75 583.625,604.375 579.75,592.125 571.0,569.125 562.25,548.5"/>
    <polyline points="561.375,546.25 559.125,540.25 557.625,535.125 556.375,528.0 556.375,524.375 557.125,520.125 558.25,517.375 560.5,514.0"/>
    <polyline points="561.25,513.125 564.375,510.125 567.375,508.0 570.75,506.0 576.125,503.5 580.75,501.625 587.875,499.375 596.25,497.375"/>
    <polyline points="598.5,496.875 608.5,495.25 623.375,494.25 633.75,494.5 641.25,495.25 649.375,496.625 658.0,498.75 667.0,502.0 671.5,504.125 676.125,506.5 680.75,509.375 685.25,512.75 689.5,516.5"/>
    <polyline points="693.625,520.875 697.25,525.75 700.25,531.125 702.625,537.125 704.125,543.625 704.625,550.5 703.75,557.75 701.75,565.125 698.25,572.625 693.25,579.875 687.125,586.875 679.625,593.25 671.375,598.875 662.25,603.875 652.875,607.875 643.25,611.0 633.75,613.375 624.5,614.875 615.75,615.625 607.5,615.75 599.75,615.375 592.75,614.5 586.125,613.25 580.25,611.625 569.75,607.75"/>
    <polyline points="565.125,605.5 553.375,598.375 543.875,591.0 519.125,567.875 512.0,561.75 505.375,556.875"/>
    <polyline points="503.75,555.75 495.875,551.375 491.25,549.375 485.0,547.375 475.25,545.625 468.375,545.0 462.875,544.875"/>
    <polyline points="461.0,544.875 437.5,545.125 424.5,544.625 418.75,544.125 409.5,542.75 402.875,541.125 395.75,538.875"/>
    <polyline points="392.0,537.5 388.125,535.875 380.0,531.5 371.375,525.625 366.75,522.0 357.25,512.875 347.25,500.875 342.25,493.5 337.125,485.125 332.125,475.625 327.25,465.0 322.625,453.25 318.5,440.25 315.125,426.25 312.5,411.25 311.125,395.625 311.125,379.875 313.0,364.375 316.625,349.875 322.375,336.875 330.0,326.25 339.625,318.375"/>
    <polyline points="350.75,313.625 363.0,312.0 375.875,313.375 388.875,317.375 401.625,323.5 413.75,331.125 425.125,339.875 435.5,349.0 444.875,358.375 453.25,367.625 467.25,384.75 482.5,406.375 505.125,442.0 510.625,449.75"/>
    <polyline points="512.25,452.0 517.0,457.625 521.5,462.0 527.25,466.5 530.125,468.25 536.0,471.0 540.5,472.5 543.5,473.25 549.875,474.125"/>
    <polyline points="551.625,474.25 562.125,474.25 574.0,472.875 587.75,470.375 607.125,466.125"/>
    <polyline points="610.25,465.5 624.125,462.75 636.25,460.875 645.25,459.75 655.25,459.0 666.375,458.75 679.0,459.375 693.375,461.25 701.25,462.875 709.625,465.125 718.625,468.25 728.25,472.25 738.25,477.5 748.625,484.125 759.0,492.625 769.125,503.125"/>
    <polyline points="778.125,516.125 785.125,531.625 788.875,549.75 788.0,570.0 781.125,591.75 767.625,613.625 747.625,634.25 722.625,652.25 694.75,667.0 666.5,678.0 639.75,685.875 616.0,691.25 595.75,694.625 579.125,696.75 555.375,698.875 541.625,699.5 534.375,699.25 532.5,698.875 531.375,698.25 530.875,697.25 530.875,696.125 531.625,692.875"/>
    <polyline points="532.25,690.75 533.0,688.5 534.875,679.875 535.75,669.625 535.375,658.375 533.625,647.0 531.75,639.625 528.25,629.25 525.5,623.0 522.5,617.125 517.625,609.25"/>
    <polyline points="516.0,606.875 512.5,602.5 507.25,596.875 499.875,590.875 494.25,587.375 488.5,584.75 482.625,582.875 476.625,581.75 468.25,581.375"/>
    <polyline points="466.125,581.5 459.625,582.125 450.375,584.0 440.625,587.25 433.0,590.5 425.0,594.625 416.625,599.875 413.75,601.875 408.125,606.5 402.375,611.75"/>
    <polyline points="399.5,614.875 396.75,618.125 391.25,625.625 386.25,634.875 384.0,640.25 382.0,646.25 380.375,653.0 379.125,660.625 378.375,669.375 378.375,679.25 379.125,690.5 381.125,703.375 384.5,718.25 389.625,735.25 397.125,754.625 407.5,776.625 421.25,801.0 439.0,827.25 461.5,854.625 488.75,881.125 520.5,904.125 555.25,920.125 590.75,925.75 624.375,918.875"/>
    <polyline points="653.125,899.125 675.375,868.875 690.75,832.0 699.875,792.625 704.125,754.375 705.25,719.375 704.375,689.0 702.5,663.625 700.0,642.875 697.5,626.5 695.0,613.875 692.5,604.5 689.875,597.625 687.25,593.0 684.375,590.0 681.125,588.5 677.625,587.875 669.375,588.75 648.625,593.125 637.25,594.5 631.5,594.875"/>
    <polyline points="625.875,594.875 615.0,594.125 604.875,592.375 600.25,591.125 591.625,588.0 584.125,584.375 577.375,580.375 566.375,571.875 559.75,565.375 556.0,561.25 548.25,551.625"/>
    <polyline points="547.0,549.875 540.75,540.5 536.5,532.875 533.5,525.875 532.375,521.375"/>
    <polyline points="532.25,520.625 532.25,516.5 533.0,514.0 534.375,511.875 537.75,508.875"/>
    <polyline points="538.25,508.5 540.5,507.0 545.5,504.5 559.875,499.125"/>
    <polyline points="561.125,498.75 571.5,495.625 588.875,491.375 601.125,489.125 612.75,487.625"/>
    <polyline points="615.875,487.375 630.0,486.75 637.875,487.0 646.5,487.75 655.75,489.125 665.75,491.625 676.5,495.25 682.0,497.75 687.625,500.75 693.25,504.25 698.75,508.375 704.0,513.125 709.0,518.75 713.375,525.0 717.0,532.125 719.5,540.125 720.75,548.75 720.25,557.875"/>
    <polyline points="718.0,567.5 713.75,577.25 707.5,586.75 699.25,595.75 689.375,604.125 678.125,611.375 666.125,617.5 653.75,622.375 641.375,626.125 629.5,628.75 618.25,630.25 607.75,631.0 598.25,631.0 589.5,630.25 581.75,629.125 574.75,627.625 562.875,623.75 553.25,619.125 549.125,616.75 541.75,611.75 532.625,604.375"/>
    <polyline points="529.875,602.0 515.75,589.25 507.375,582.5 501.5,578.5 497.5,576.125 491.75,573.25 485.875,571.0 478.0,569.0"/>
    <polyline points="476.0,568.75 469.875,568.0 461.25,567.875 449.75,568.875 431.625,571.875 413.625,575.625"/>
    <polyline points="410.375,576.375 396.25,579.0 388.5,580.125 380.25,580.875 371.25,581.25 361.625,580.75 351.0,579.25 345.25,577.75 339.25,575.75 332.875,573.125 326.0,569.625 318.875,565.0 311.125,559.125 302.875,551.625 294.0,542.125 284.5,530.125 274.375,515.0 263.75,496.375"/>
    <polyline points="252.75,473.25 242.0,445.25 232.0,411.75 223.875,372.875 219.5,329.5 220.625,284.25 229.375,240.75 247.0,204.125 273.375,179.25 306.125,168.875 342.125,172.625 377.625,187.75 409.625,209.75 436.625,234.75 458.25,259.625 474.5,282.375 486.125,302.375 493.875,319.375 498.25,333.5 500.125,345.125 499.875,354.75 498.125,362.75 495.125,369.625 491.375,375.625 482.75,385.75"/>
    <polyline points="478.25,390.375 470.0,399.0 463.625,407.25 461.125,411.25 457.875,419.0 456.5,426.25 456.625,433.0 457.125,436.125 458.75,442.125 461.0,447.75 463.5,452.875 472.625,468.125"/>
    <polyline points="473.875,470.0 483.25,485.5 486.75,492.5 488.625,497.125 489.5,500.375"/>
    <polyline points="489.625,501.0 489.875,505.375 489.5,507.5 487.875,510.625 485.125,513.25"/>
    <polyline points="484.75,513.625 479.5,516.5 474.875,518.25 468.25,520.125 465.0,520.75"/>
    <polyline points="463.875,521.0 453.375,522.625 445.5,523.125 440.25,523.125 430.5,522.375 421.75,520.75"/>
    <polyline points="419.375,520.125 414.5,518.625 406.75,515.375 401.25,512.375 395.5,508.625 392.625,506.5 386.625,501.25 383.5,498.25 377.375,491.25 374.25,487.125 368.375,477.875 362.75,466.875 357.875,454.25 355.875,447.5 354.25,440.375 353.0,433.0"/>
    <polyline points="352.25,425.5 352.125,418.0 352.625,410.5 353.875,403.5 355.75,396.75 358.375,390.75 361.75,385.375 365.875,381.0 370.625,377.625 376.0,375.375 381.75,374.125 387.875,374.0 394.25,374.875 400.75,376.75 407.25,379.375 413.625,382.625 419.875,386.5 431.625,395.375 442.25,405.125 451.5,414.75 463.125,428.5"/>
    <polyline points="466.5,432.75 472.5,440.5 494.75,470.875 501.375,479.25 508.875,487.5"/>
    <polyline points="509.75,488.375 513.375,491.625 519.0,495.5 525.0,498.125 529.625,499.0"/>
    <polyline points="530.375,499.125 536.25,499.25 539.75,499.0 548.0,497.75 555.125,496.25"/>
    <polyline points="556.5,495.875 588.0,488.75 595.125,487.375 606.125,485.75"/>
    <polyline points="609.125,485.25 622.375,484.125 629.75,483.875 637.875,483.875 651.375,485.0 656.25,485.75 666.75,488.0 678.0,491.625 683.75,494.0 689.75,496.875 695.75,500.375 701.75,504.5 707.625,509.5 713.125,515.25 718.125,521.75 722.375,529.375 725.5,537.75"/>
  </g>
</svg>
