<?xml version="1.0" encoding="utf-8" ?>
<svg xmlns="http://www.w3.org/2000/svg" xmlns:cc="http://creativecommons.org/ns" xmlns:dc="http://purl.org/dc/elements/1.1/" xmlns:ev="http://www.w3.org/2001/xml-events" xmlns:inkscape="http://www.inkscape.org/namespaces/inkscape" xmlns:rdf="http://www.w3.org/1999/02/22-rdf-syntax-ns" xmlns:sodipodi="http://sodipodi.sourceforge.net/DTD/sodipodi-0.dtd" xmlns:xlink="http://www.w3.org/1999/xlink" baseProfile="tiny" height="27.09333333cm" version="1.2" viewBox="0 0 1024.0 1024.0" width="27.09333333cm">
  <metadata>
    <rdf:RDF>
      <cc:Work>
        <dc:format>image/svg+xml</dc:format>
        <dc:source>vpype read './original_svgs/Strange Attractors #46.svg' linemerge linesimplify write './Strange Attractors #46.svg'
</dc:source>
        <dc:date>2024-08-05T01:35:21.095157</dc:date>
      </cc:Work>
    </rdf:RDF>
  </metadata>
  <defs/>
  <g fill="none" id="layer1" inkscape:groupmode="layer" inkscape:label="1" stroke="black" stroke-width="0.7mm" style="display:inline">
    <polyline points="766.25,524.625 771.75,499.875 781.625,475.375 795.25,449.25 831.5,386.625 851.875,348.0 870.75,305.125 884.25,260.5 887.5,220.0 875.375,191.5 846.375,182.875 803.5,197.25 753.875,231.375 705.25,277.625 663.0,328.0 629.875,376.625 605.875,420.125 590.0,457.75 581.125,489.5 577.875,515.75 579.125,537.375 583.75,555.0 590.75,569.0 599.375,579.625 608.625,587.0"/>
    <polyline points="617.875,591.5 626.5,593.125 633.875,592.125 639.75,588.875 644.0,583.75 646.625,577.25 647.75,569.75 647.625,561.75 646.375,553.625 644.375,545.5 641.75,537.75 638.75,530.625 632.0,518.0 625.25,508.125 618.75,500.75 612.75,495.5 607.5,491.875 602.75,489.625 598.625,488.25"/>
    <polyline points="596.875,487.875 590.875,487.625 586.75,488.5 584.25,489.75 583.25,491.0 583.25,491.625 583.625,492.125 585.75,492.875"/>
    <polyline points="586.375,492.875 588.875,493.0 593.125,492.5 598.75,491.375 605.625,489.375 611.75,487.125 621.25,482.875 629.375,478.375"/>
    <polyline points="632.375,476.625 645.125,468.0 652.125,462.5 659.375,456.125 666.625,449.0 673.75,441.0 677.25,436.75 683.375,428.0 686.125,423.5 690.25,415.0 691.5,411.125 692.125,407.5 692.125,404.5 691.375,402.0 690.0,400.25 687.75,399.25 684.75,399.0"/>
    <polyline points="681.125,399.625 676.75,401.125 672.0,403.375 666.75,406.5 661.125,410.125 649.375,418.875 631.625,434.0 592.75,469.75 578.875,481.625 567.75,489.875"/>
    <polyline points="565.25,491.625 555.0,497.875 547.25,501.875 533.5,507.625"/>
    <polyline points="532.875,507.875 529.125,509.75 528.5,510.5 528.625,511.125 531.25,512.125 538.375,512.875"/>
    <polyline points="539.0,512.875 551.5,513.25 564.0,512.625"/>
    <polyline points="565.5,512.5 573.625,511.75 581.375,510.625 590.25,508.875 597.875,507.0 609.625,503.375 616.375,500.875 627.625,495.875"/>
    <polyline points="631.75,493.875 645.5,486.125 661.375,475.25 673.25,465.625 686.125,453.75 692.875,446.75 706.75,430.875 713.5,421.875 720.125,412.25 726.125,402.25 731.375,392.0 735.625,381.875 738.375,372.375 739.375,363.75 738.375,356.875 735.125,351.875 729.5,349.5 721.75,349.75 712.125,352.875"/>
    <polyline points="701.0,358.75 688.875,366.75 676.25,376.5 663.625,387.5 651.375,399.125 639.75,411.0 618.75,433.625 580.75,476.625 570.0,487.875 565.25,492.375 556.875,499.625 549.625,505.0 540.125,510.25 531.875,513.375"/>
    <polyline points="529.375,514.0 526.875,514.625 517.5,515.875 506.625,516.125 490.25,515.125 475.875,513.5"/>
    <polyline points="473.75,513.25 440.75,508.5 420.5,504.875 407.0,502.125"/>
    <polyline points="403.375,501.25 387.625,497.5 373.875,493.5 363.625,490.125 345.5,483.0 338.625,480.0 323.0,472.125 314.0,467.125 293.25,454.125 281.25,445.625 267.875,435.5 253.125,423.375 237.375,409.125 220.75,392.75 204.5,374.375 190.125,355.0"/>
    <polyline points="180.25,336.625 178.375,322.25 187.375,315.625 208.875,319.875 241.5,336.5 281.125,363.875 322.625,398.375 361.0,435.5 393.625,471.875 419.375,505.25 438.375,534.75 451.125,560.125 458.75,581.5 462.25,599.25 462.25,613.75 459.875,625.375 455.5,634.125 450.0,640.25 443.875,644.0 437.625,645.25 431.5,644.375 426.125,641.5 421.375,636.75 417.625,630.625 414.875,623.375 413.125,615.375"/>
    <polyline points="412.125,606.875 412.0,598.25 412.625,589.625 413.625,581.25 415.125,573.25 419.0,558.875 423.5,546.75 428.125,537.0 432.75,529.25 437.0,523.25 441.0,518.75 444.625,515.25 449.375,511.625 454.625,508.75"/>
    <polyline points="455.625,508.25 464.0,505.125 464.375,504.625 463.25,503.75"/>
    <line x1="462.875" x2="440.875" y1="503.625" y2="496.875"/>
    <polyline points="439.5,496.375 434.75,494.875 420.0,489.375 409.0,484.625 394.0,477.125 386.125,472.625"/>
    <polyline points="383.5,471.0 375.75,465.875 366.875,459.125 362.375,454.75 361.0,452.625 360.875,451.875 361.25,451.5 362.125,451.375 363.375,451.625 370.125,454.5 380.5,460.375 393.25,468.5"/>
    <polyline points="397.75,471.5 424.125,489.0 435.625,496.125 445.625,501.75 451.375,504.625 459.125,508.0 469.25,511.25 474.25,512.25"/>
    <polyline points="475.625,512.5 481.875,513.125 486.5,513.125 492.375,512.5 494.0,512.0"/>
    <polyline points="494.25,512.0 495.125,511.625 495.375,511.125 493.375,510.25"/>
    <line x1="493.125" x2="480.5" y1="510.125" y2="507.625"/>
    <polyline points="479.75,507.5 462.625,504.0 451.125,501.125"/>
    <polyline points="449.5,500.75 434.75,496.375 415.75,489.625 401.375,483.375 388.375,476.875"/>
    <polyline points="384.875,475.0 370.375,466.25 359.5,458.625 352.75,453.25 347.0,448.0 342.875,443.375 341.0,439.875 341.0,438.75 342.0,438.25 343.75,438.25 349.875,440.375 354.125,442.5 364.625,448.625 377.125,456.875"/>
    <polyline points="383.75,461.5 428.125,493.75 438.5,500.875 447.625,506.625 459.125,513.0 468.75,517.25 476.625,519.625 481.25,520.625 487.25,521.375"/>
    <polyline points="489.125,521.375 495.625,521.375 503.75,520.625 519.125,518.25"/>
    <polyline points="520.0,518.125 527.875,517.25 543.125,516.375"/>
    <polyline points="544.125,516.25 555.125,515.75 565.75,514.875 574.625,513.875 583.0,512.5"/>
    <polyline points="585.25,512.125 592.625,510.625 600.875,508.5 613.625,504.375 621.0,501.5 629.0,497.875 642.625,490.75 658.5,480.5 670.625,471.25 677.125,465.875 691.0,452.875"/>
    <polyline points="698.25,445.25 705.75,436.875 713.25,427.625 720.625,417.625 727.625,407.0 734.125,395.875 739.625,384.5 743.875,373.375 746.375,363.0 746.625,354.0 744.5,347.0 739.75,342.625 732.375,341.25 722.625,343.125 711.0,348.25 698.0,356.125 684.375,366.375 670.375,378.25 656.875,391.0 643.875,404.125 620.875,429.5 586.625,469.75"/>
    <polyline points="580.125,477.25 569.0,489.5 559.75,498.625 552.0,505.25 545.25,510.0 542.125,511.75 536.375,514.5 531.0,516.25 526.0,517.375 516.75,518.5 510.125,518.625 503.875,518.375"/>
    <polyline points="501.75,518.25 483.125,516.75 447.625,513.25"/>
    <polyline points="445.25,513.0 435.375,512.25 419.875,511.75 409.75,512.5 407.375,512.875 403.0,514.25 401.0,515.125 399.25,516.375 397.875,517.875 396.875,519.625 396.375,522.0 396.5,524.875 397.375,528.375 399.375,532.75"/>
    <polyline points="402.75,538.125 407.75,544.625 414.875,552.75 424.75,562.625 438.0,574.5 455.25,588.75 477.375,605.25 505.0,623.625 538.0,643.25 575.875,662.375 616.5,678.375 656.625,688.375 692.5,689.75 720.75,681.375 739.75,663.875 749.875,639.625 753.25,611.75 752.0,582.875 748.375,555.0 743.75,529.125 728.25,451.625 722.625,426.75"/>
    <polyline points="719.75,417.125 716.5,409.5 712.625,403.5 708.25,399.375 703.0,396.875 697.125,396.125 690.625,396.875 683.625,398.875 676.125,402.25 668.375,406.625 660.625,411.75 652.75,417.375 645.0,423.5 623.5,442.125 589.75,472.875 577.25,483.375 573.5,486.125"/>
    <polyline points="570.0,488.75 563.625,493.125 555.25,498.0 545.75,502.5 539.625,504.75 532.625,506.75 520.0,509.125"/>
    <polyline points="518.875,509.25 508.125,510.0 502.5,510.0 494.25,509.5"/>
    <polyline points="493.25,509.375 479.25,507.625 465.375,505.0"/>
    <polyline points="464.0,504.75 452.875,502.25 441.625,499.25 425.75,494.25 412.125,489.125"/>
    <polyline points="409.125,487.875 392.625,480.375 377.375,472.125 365.125,464.625 352.75,455.75 348.75,452.625 341.5,446.25 335.625,440.25 333.625,437.625 332.375,435.375 331.875,433.5 332.375,432.375 333.875,432.0"/>
    <polyline points="336.375,432.375 340.125,433.625 344.75,435.75 350.375,438.875 363.875,447.25 371.375,452.375 394.875,469.625 435.875,500.625 446.5,507.875 455.625,513.625 463.5,517.875 470.25,521.0 476.25,523.125"/>
    <polyline points="479.0,523.875 486.25,525.25 494.375,525.75 502.875,525.125 520.375,522.25"/>
    <polyline points="521.625,522.0 529.75,520.75 552.625,518.625"/>
    <polyline points="554.125,518.5 569.25,517.0 581.625,515.25 591.5,513.375 599.875,511.375 609.375,508.5"/>
    <polyline points="612.75,507.375 620.25,504.625 632.75,499.125 642.25,494.125 658.625,484.0 671.125,474.75 678.0,469.25 685.125,463.0 700.375,448.0 708.375,439.125 716.5,429.375 724.625,418.625 732.5,407.0 739.875,394.75 746.25,382.0 751.25,369.5 754.375,357.625 755.125,347.125"/>
    <polyline points="753.0,338.875 747.875,333.625 739.75,332.0 728.875,334.125 715.75,340.125 701.125,349.25 685.75,361.0 670.375,374.625 655.625,389.125 641.625,403.75 628.875,418.0 617.375,431.625 576.125,482.125 570.5,488.875 560.875,499.5 552.875,507.125 549.375,510.0 543.0,514.5 540.0,516.125"/>
    <polyline points="537.25,517.5 532.125,519.5 527.25,520.625 522.625,521.375 516.125,521.75 505.625,521.5 483.625,519.75"/>
    <polyline points="481.625,519.625 463.375,518.625 455.125,518.625 449.25,519.0 445.375,519.5 440.125,520.75 437.0,522.125 434.625,524.125"/>
    <polyline points="433.75,525.375 433.125,526.875 432.875,528.625 433.5,533.125 436.625,539.375 439.25,543.25 443.0,547.875 454.25,559.25 462.25,566.25 472.125,574.125 484.125,582.875 498.375,592.5 515.0,602.625 533.875,613.0 554.75,622.875 576.875,631.375 599.375,637.875 620.875,641.25 640.375,640.875 656.75,636.5 669.25,628.375 678.0,617.125 683.0,603.5"/>
    <polyline points="685.0,588.5 684.625,573.125 682.625,558.125 679.625,543.875 676.125,530.75 672.375,519.0 668.625,508.625 661.625,491.625 658.5,484.875 652.875,474.25 648.0,467.0 643.875,462.125 640.25,459.125 636.75,457.5 633.625,456.875 632.125,456.875 627.875,457.75"/>
    <polyline points="626.5,458.25 621.5,460.75 614.5,466.125 610.125,470.75 609.125,472.25 608.625,473.875"/>
    <polyline points="608.75,474.125 609.125,474.875 609.75,475.125 611.75,475.125 614.625,474.5 620.75,472.0 628.75,467.5"/>
    <polyline points="630.125,466.625 639.625,459.625 642.875,456.75 649.0,450.625 651.75,447.375 655.125,442.625 657.375,438.375 658.0,435.875 657.875,434.125 657.375,433.5"/>
    <polyline points="656.875,433.0 655.0,432.625 653.75,432.75 650.75,433.625 642.875,437.75 638.375,440.75 621.625,453.75 607.0,466.5"/>
    <polyline points="605.25,468.125 596.375,476.25 590.875,482.125 589.125,484.375 588.25,486.125 588.0,487.625 588.75,488.875"/>
    <polyline points="589.125,489.125 592.125,489.75 594.875,489.625 599.5,488.875 603.875,487.75 614.75,483.75 623.875,479.25"/>
    <polyline points="626.375,477.875 631.625,474.875 640.25,469.125 652.75,459.25 662.5,450.0 671.75,439.375 677.375,431.75 679.75,428.0 683.5,420.625 684.75,417.25 685.5,414.125 685.75,411.375 685.375,409.0 684.5,407.25"/>
    <polyline points="682.875,406.125 680.625,405.625 677.875,405.75 674.5,406.5 670.625,408.0 661.75,412.875 651.75,419.75 641.375,427.875 631.0,436.625 596.0,468.25 580.25,481.5"/>
    <polyline points="577.625,483.625 564.625,493.0 544.875,505.125"/>
    <polyline points="544.5,505.5 542.875,507.25 542.75,507.75 543.125,508.5 544.375,509.25 547.625,510.0"/>
    <polyline points="548.25,510.125 553.375,510.625 561.75,510.625 567.0,510.375 576.5,509.375"/>
    <polyline points="578.25,509.125 588.375,507.375 600.625,504.25 609.375,501.5 622.875,496.0 630.625,492.25 639.25,487.5 648.625,481.625 658.875,474.375"/>
    <polyline points="664.375,470.125 676.125,460.125 688.625,447.875 695.0,440.875 701.5,433.25 707.875,425.0 714.0,416.25 719.625,407.125 724.625,397.75 728.75,388.5 731.75,379.75 733.125,371.625 732.75,364.875 730.5,359.75 726.125,356.75 719.875,356.0 711.75,357.75 702.125,362.0 691.5,368.25 680.125,376.375 668.5,385.875 645.75,406.875 635.25,417.625"/>
    <polyline points="625.25,428.125 600.0,456.0 580.625,476.875 570.375,487.0 561.625,494.875 554.0,500.75 547.25,505.0 541.125,508.125 535.625,510.375 528.0,512.5 518.75,513.875"/>
    <polyline points="516.5,514.0 504.125,514.25 496.25,513.875 486.375,513.0 466.0,510.25"/>
    <polyline points="463.75,510.0 444.875,506.625 421.875,501.5 404.25,496.5 387.375,490.75"/>
    <polyline points="382.625,488.875 372.375,484.625 360.75,479.25 340.375,468.25 324.25,458.125 315.375,452.0 296.0,437.25 285.75,428.375 275.25,418.75 265.125,408.375 255.875,397.625 248.25,387.125 243.5,377.625 242.5,370.375 246.5,366.5 256.125,367.25 271.125,373.25 290.75,384.375 313.375,400.0 337.25,418.875"/>
    <polyline points="360.875,439.375 382.75,460.25 402.25,480.125 418.875,498.5 432.75,515.0 444.125,529.375 453.125,541.625 460.25,552.0 469.75,567.625 472.75,573.25 478.5,586.25 480.0,577.75 481.125,573.625"/>
    <polyline points="481.875,571.5 483.625,567.125 485.75,562.875 488.25,558.75 493.625,551.5 496.5,548.375 504.0,541.875 511.625,537.125 516.125,534.875"/>
    <polyline points="517.625,534.25 525.125,531.5 532.625,529.5 545.0,527.25 557.125,525.75"/>
    <polyline points="558.875,525.625 580.0,523.125 599.0,519.875 612.5,516.5 628.625,511.0"/>
    <polyline points="633.25,509.125 643.25,504.5 654.5,498.5 660.75,494.75 674.5,485.375 682.125,479.625 690.25,473.0 699.0,465.25 708.25,456.375 718.125,446.125 728.375,434.5 739.0,421.25 749.625,406.375 759.875,390.125 769.375,372.75 777.125,354.75 782.375,337.375 784.125,321.75 781.5,309.375 774.0,301.75 761.75,300.0 745.25,304.625 725.75,315.125"/>
    <polyline points="704.75,330.5 683.625,349.125 663.375,369.5 644.875,390.25 628.5,410.25 614.25,428.875 602.125,445.75 591.875,460.625 576.125,484.75 557.375,514.5 551.625,522.75 547.125,528.125 545.25,530.0 541.875,532.625 538.75,534.0 535.75,534.625 534.375,534.625"/>
    <polyline points="533.0,534.625 528.625,534.125 513.625,530.875 505.875,529.625 499.75,529.0 495.125,528.875"/>
    <polyline points="493.75,528.75 486.625,529.125 482.875,529.75 478.5,531.25 476.125,533.125 475.0,535.875 475.125,538.125 477.0,542.75 479.75,546.625"/>
    <polyline points="481.75,548.75 490.5,556.625 498.875,562.75 503.875,566.125 509.625,569.5 522.625,576.375 537.5,582.75 545.5,585.5 553.5,587.625 561.5,589.25 569.375,590.25 576.625,590.25 583.375,589.5 589.375,587.875 594.5,585.375 598.75,582.125 601.875,578.25 604.25,573.75 605.5,569.0 606.125,563.875 605.875,558.75"/>
    <polyline points="605.0,553.5 603.75,548.5 602.0,543.625 597.625,534.875 592.5,527.375 587.125,521.375 584.375,518.75 579.125,514.625 574.0,511.5 569.25,509.25 560.875,506.625 557.125,506.0 550.875,505.625"/>
    <polyline points="549.5,505.625 542.625,506.25 537.875,507.25 533.75,508.75 532.5,509.75 532.5,510.375 533.75,511.25 537.5,512.0"/>
    <polyline points="538.0,512.0 542.125,512.5 548.375,512.75 559.25,512.5"/>
    <polyline points="560.5,512.5 572.625,511.5 588.625,508.875 604.375,504.75 613.75,501.5"/>
    <polyline points="617.25,500.125 628.625,495.0 641.75,488.0 651.625,481.75 662.5,473.875 674.375,464.125 680.75,458.375 694.0,445.0 700.75,437.25 707.625,428.875 714.25,419.875 720.625,410.25 726.5,400.375 731.5,390.25 735.25,380.5 737.625,371.25 738.25,363.125 736.75,356.75"/>
    <polyline points="733.0,352.375 727.0,350.625 719.0,351.5 709.125,355.125 698.0,361.25 686.0,369.5 673.625,379.375 661.125,390.25 649.125,401.75 637.75,413.375 617.375,435.5 592.875,463.25 574.625,483.125 564.875,492.625 556.625,499.625 549.375,504.875 543.0,508.5"/>
    <polyline points="540.0,510.0 534.5,512.125 526.75,514.25 517.5,515.5 513.0,515.75 502.5,515.625 484.25,514.125"/>
    <polyline points="482.25,513.875 469.625,512.375 446.25,508.875 420.625,504.0"/>
    <polyline points="417.375,503.375 399.5,499.25 377.75,492.875 367.5,489.25 356.0,484.625 349.625,481.875 335.375,475.0 318.5,465.625 298.375,452.625 286.875,444.375 274.25,434.625 260.625,423.25 246.25,410.0"/>
    <polyline points="231.5,395.125 217.5,379.0 205.5,362.375 197.875,347.125 196.875,335.375 205.0,330.25 223.25,334.0 250.75,347.625 284.5,370.125 320.375,399.0 354.875,430.75 385.375,462.5 410.5,492.375 430.25,519.125 444.75,542.375 454.75,562.125 461.0,578.75 464.25,592.5 465.125,603.625 464.125,612.375 461.875,619.0 458.625,623.625 454.875,626.5 451.0,627.625 447.125,627.25 443.5,625.5"/>
    <polyline points="440.25,622.5 437.625,618.5 435.5,613.625 434.0,608.125 433.125,602.25 433.0,589.875 433.625,583.625 435.875,571.625 437.375,566.0 440.875,555.875 444.875,547.25 448.875,540.0 454.75,531.625 460.25,525.5 465.125,521.25"/>
    <polyline points="466.625,520.125 469.375,518.125 474.125,515.375 479.375,512.875 483.625,511.25 485.375,510.0 484.75,509.125 479.375,507.625"/>
    <line x1="478.75" x2="454.625" y1="507.375" y2="501.75"/>
    <polyline points="453.125,501.375 440.0,497.75 423.25,492.125 415.875,489.25 399.0,481.75"/>
    <polyline points="395.875,480.25 382.75,473.125 375.875,469.0 365.5,462.125 359.0,457.25 353.0,452.25 348.375,447.625 345.375,443.875 344.75,442.375 344.875,441.375 345.625,440.875 347.125,440.75 349.5,441.375 356.25,444.375 360.75,446.875"/>
    <polyline points="365.75,449.875 377.125,457.125 389.625,465.75 425.375,491.375 435.5,498.25 448.5,506.375 459.375,512.125 465.5,514.75 471.0,516.625 478.0,518.5"/>
    <polyline points="480.125,518.875 487.625,519.75 493.75,519.75 501.375,519.125 511.875,517.5"/>
    <polyline points="512.75,517.375 521.75,516.25 531.125,515.625"/>
    <line x1="532.0" x2="557.375" y1="515.625" y2="514.75"/>
    <polyline points="558.75,514.625 571.5,513.5 585.75,511.25 593.0,509.75 601.25,507.625 613.875,503.375"/>
    <polyline points="617.375,502.0 629.125,496.875 642.625,489.75 652.875,483.25 664.25,475.125 676.75,465.0 690.25,452.125 697.375,444.75 704.625,436.5 712.0,427.5 719.125,417.75 726.0,407.375 732.125,396.5 737.5,385.625 741.5,374.875 743.75,365.0 744.125,356.25 742.0,349.625"/>
    <polyline points="737.375,345.375 730.375,344.0 721.0,345.75 709.875,350.625 697.375,358.125 684.125,367.875 670.625,379.125 657.375,391.5 633.0,416.625 612.25,440.0 581.5,475.75 565.375,492.875 561.0,497.125 553.125,503.75 546.125,508.5 540.0,511.875"/>
    <polyline points="537.125,513.125 531.75,515.125 524.25,516.75 515.125,517.625 502.25,517.5 481.625,515.75"/>
    <line x1="479.5" x2="418.375" y1="515.5" y2="508.625"/>
    <polyline points="415.5,508.375 400.375,507.5 391.125,507.5 382.5,508.5 379.75,509.25 377.375,510.125 375.125,511.375 373.375,513.0 372.125,515.125 371.5,517.75 371.75,521.25 373.125,525.75 376.0,531.5 380.875,538.75 388.5,548.125 399.625,559.875 415.375,574.75 436.875,593.25"/>
    <polyline points="465.75,615.5 503.125,641.25 549.375,669.125 602.875,695.875 659.5,716.375 712.5,725.125 755.0,718.375 782.75,696.125 796.375,662.5 799.5,623.25 796.625,582.75 791.375,544.375 781.625,477.875 773.125,404.5 770.0,386.625 765.75,372.0 759.75,361.125 751.625,354.25 741.5,351.375 729.5,352.5 716.0,357.375 701.5,365.25 686.75,375.625"/>
    <polyline points="672.25,387.5 658.25,400.25 645.125,413.25 633.125,425.875 622.25,437.875 582.75,483.25 577.25,489.25 567.5,499.0 559.5,506.0 552.5,510.875 549.25,512.75 543.375,515.5 540.5,516.5 535.25,518.0 528.0,519.125"/>
    <polyline points="525.625,519.25 518.875,519.5 504.0,518.75 472.875,515.625"/>
    <polyline points="470.75,515.375 435.625,512.125 425.375,511.625 417.5,511.625 409.875,512.25"/>
    <polyline points="407.375,512.625 402.875,513.75 400.75,514.625 399.0,515.625 397.375,517.0 396.25,518.75 395.5,520.875 395.375,523.5 396.0,526.875 397.625,530.875 400.5,535.875 404.875,542.125 411.25,549.75 420.25,559.0 432.25,570.375 448.375,583.875 469.0,599.75 495.0,617.875 526.75,637.625 563.625,657.375 604.125,675.0 645.375,687.375 683.5,691.625 714.625,686.125 736.75,670.875"/>
    <polyline points="749.5,648.125 754.625,620.625 754.375,591.375 751.25,562.625 746.75,535.75 727.875,440.125 725.125,428.0 722.25,417.875 719.0,409.5 715.25,403.125 710.875,398.5 705.625,395.625 699.75,394.5 693.125,395.0 686.0,397.0 678.375,400.25 670.5,404.625 662.375,409.75 646.375,421.875 631.25,434.75"/>
    <polyline points="624.25,441.125 589.625,472.875 580.875,480.375 573.125,486.5 563.0,493.5 551.875,499.875 544.875,503.0 534.875,506.25"/>
    <polyline points="533.125,506.75 522.375,508.875 515.875,509.625 508.875,510.0 501.625,509.875"/>
    <polyline points="500.5,509.875 493.5,509.5 482.75,508.25 473.125,506.625"/>
    <polyline points="471.875,506.375 460.25,504.125 451.875,502.125 435.75,497.625 426.125,494.5"/>
    <polyline points="423.5,493.625 412.25,489.5 396.0,482.375 384.875,476.75 368.625,467.375 360.0,461.625 351.5,455.5 339.625,445.5 333.5,439.25"/>
    <polyline points="331.375,436.375 329.875,434.0 329.375,432.0 329.875,430.75 331.375,430.25 334.0,430.625 337.875,432.0 342.75,434.25 348.625,437.375 355.375,441.5 370.625,451.75 387.0,463.625 437.25,502.0 452.625,512.5 461.125,517.5"/>
    <polyline points="465.0,519.5 471.75,522.5 477.75,524.625 480.5,525.375 487.75,526.625 495.875,526.875 502.875,526.375 516.0,524.125"/>
    <polyline points="517.375,523.875 531.125,521.625 549.5,519.75"/>
    <polyline points="550.875,519.625 567.375,518.0 579.75,516.375 594.75,513.5 603.625,511.125"/>
    <polyline points="606.75,510.25 617.375,506.625 629.5,501.625 638.75,497.125 654.625,487.875 666.75,479.375 673.375,474.25 687.75,462.0 695.5,454.625 703.5,446.25 711.75,437.0 720.125,426.625 728.5,415.375 736.5,403.25 744.0,390.375 750.25,377.25 755.125,364.25"/>
    <polyline points="757.75,352.25 757.75,341.875 754.625,334.125 748.375,329.625 739.0,329.125 726.875,332.625 712.75,340.0 697.25,350.5 681.25,363.5 665.5,378.0 650.625,393.25 636.625,408.375 624.125,422.875 612.75,436.5 579.25,478.625 567.75,492.5 562.875,498.0 554.625,506.5 551.0,509.75 544.5,514.75"/>
    <polyline points="541.5,516.625 536.125,519.375 533.625,520.25 526.5,522.125 522.0,522.625 517.75,522.875 509.5,522.75 487.75,521.125"/>
    <polyline points="485.75,521.0 472.0,520.25 462.375,520.25 456.75,520.625 451.375,521.375 446.5,522.875 443.875,524.375 441.875,526.375"/>
    <polyline points="441.125,527.625 440.625,530.875 440.875,532.875 441.625,535.25 442.875,538.0 444.875,541.25 447.625,544.875 451.125,549.125 461.75,559.5 469.0,565.75 477.875,572.75 488.625,580.375 501.125,588.625 515.5,597.25 531.875,606.0 549.625,614.375 568.5,621.75 587.75,627.5 606.625,630.875 623.875,631.5 639.0,628.875 651.25,623.25 660.375,614.75 666.375,604.125"/>
    <polyline points="669.5,591.875 670.5,579.0 669.625,566.0 667.625,553.375 664.75,541.5 661.375,530.625 657.875,520.75 654.25,512.125 650.75,504.5 644.25,492.25 638.625,483.5 636.125,480.125 631.625,475.125 629.625,473.25 626.125,470.75 621.75,468.875 617.25,468.625"/>
    <polyline points="616.375,468.875 613.0,470.25 611.875,471.25 611.125,472.5 611.25,473.125 611.875,473.5 613.5,473.5 615.375,473.0"/>
    <polyline points="616.125,472.875 621.625,470.625 626.25,468.125 634.25,462.75 640.0,458.125 646.75,451.5"/>
    <polyline points="648.0,450.0 651.375,445.875 654.25,440.75 654.875,437.75 654.75,437.0 654.0,436.0 651.5,435.625 649.0,436.25 642.375,439.5 636.5,443.375"/>
    <polyline points="634.375,444.875 625.875,451.375 613.875,461.5 602.875,471.5 598.375,476.0 595.25,479.625"/>
    <polyline points="594.625,480.375 593.25,482.375 592.625,484.0 592.875,485.5 593.875,486.25 595.5,486.625 597.875,486.625 604.5,485.375"/>
    <polyline points="605.875,485.0 612.25,482.75 617.875,480.375 626.5,475.875 633.875,471.375 644.625,463.625 650.25,458.875 658.875,450.75 664.5,444.625"/>
    <polyline points="667.125,441.5 671.875,435.0 675.875,428.5 677.375,425.375 679.375,419.75 679.5,415.25 678.875,413.625 677.75,412.5 676.125,411.75 674.0,411.625 671.25,412.0 668.25,413.0 664.75,414.5 656.875,418.875 643.75,428.25 625.75,443.25"/>
    <polyline points="621.375,447.0 598.875,467.125 584.5,479.375 575.625,486.5 561.125,497.0"/>
    <polyline points="560.125,497.75 556.0,501.0 554.25,503.0 553.875,504.0 554.0,504.75 554.625,505.5 556.625,506.375"/>
    <polyline points="557.125,506.5 563.25,507.25 572.5,507.0 580.375,506.125 587.75,504.75"/>
    <polyline points="589.875,504.375 599.125,502.0 610.0,498.5 623.0,493.0 638.5,484.75 652.125,475.875 662.125,468.125 673.0,458.875 684.375,447.5"/>
    <polyline points="690.25,441.125 701.75,427.0 707.25,419.25 712.25,411.125 716.75,403.0 720.5,394.875 723.125,387.125 724.5,380.125 724.5,374.0 722.875,369.25 719.5,366.25 714.5,365.0 708.0,365.875 700.0,368.75 691.0,373.5 681.25,379.875 671.0,387.625 660.75,396.25 640.625,414.875 631.25,424.25 599.625,457.625"/>
    <polyline points="593.25,464.375 581.75,476.0 572.0,485.25 563.625,492.375 552.875,500.125 543.75,505.125 535.75,508.25 526.25,510.625 522.0,511.375 513.875,512.125"/>
    <polyline points="512.0,512.125 501.0,512.125 488.625,511.25 477.75,510.0 466.375,508.125"/>
    <polyline points="464.375,507.875 444.25,503.75 422.125,497.875 405.0,492.125 392.875,487.375"/>
    <polyline points="388.5,485.5 379.0,481.125 368.625,475.875 351.0,465.75 330.875,452.125 323.75,446.625 309.375,434.5 302.5,428.0 296.125,421.375 290.75,414.875 286.5,408.75 284.125,403.5 284.0,399.625 286.375,397.625 291.75,398.0 300.0,400.75 310.875,406.25 323.875,414.25 338.375,424.375"/>
    <polyline points="353.625,436.0 369.0,448.375 383.875,461.125 397.875,473.75 422.125,496.625 461.75,535.0 471.375,543.375 475.25,546.375 481.75,550.625 487.125,553.0 489.375,553.625 493.5,554.125 497.25,553.75 502.375,552.375"/>
    <polyline points="503.875,551.75 517.75,545.5 525.375,542.5 531.625,540.5 543.0,538.0"/>
    <polyline points="544.625,537.75 551.625,536.75 560.875,535.875 598.625,533.875"/>
    <polyline points="601.625,533.625 611.125,532.75 625.875,530.5 638.875,527.5 648.875,524.5 654.375,522.5 666.625,517.375 673.5,514.0 689.0,505.0 698.0,499.0 707.75,491.75 718.625,483.0 730.625,472.25 744.0,459.125 758.625,443.25 774.5,424.125"/>
    <polyline points="791.5,401.25 808.875,374.5 825.625,344.0 839.625,311.25 848.5,278.5 849.0,250.0 838.75,230.625 816.875,224.75 785.375,234.25 748.25,257.625 710.125,290.75 674.875,328.375 644.875,366.5 620.625,402.25 602.25,434.125 589.0,461.75 580.0,485.125 574.5,504.75 572.0,520.875 571.5,534.25 572.875,545.0 575.375,553.5 578.625,560.125 582.375,564.875 586.375,568.125 590.25,570.0"/>
    <polyline points="593.75,570.625 596.75,570.125 599.25,568.75 601.125,566.375 602.25,563.5 602.875,560.125 602.75,556.5 602.125,552.625 601.0,548.625 597.75,540.75 595.625,537.125 590.75,530.375 588.25,527.375 582.875,522.125 577.5,518.0 569.75,513.5 567.25,512.375 560.25,510.0"/>
    <polyline points="558.125,509.375 550.25,508.0 543.5,507.625 533.125,508.125 525.125,509.25"/>
    <line x1="524.375" x2="513.125" y1="509.25" y2="511.0"/>
    <line x1="512.875" x2="507.0" y1="511.0" y2="511.25"/>
    <line x1="506.75" x2="499.75" y1="511.25" y2="510.625"/>
    <line x1="499.375" x2="487.125" y1="510.5" y2="508.75"/>
    <polyline points="486.375,508.625 476.75,507.0 462.25,504.0"/>
    <polyline points="460.875,503.625 441.5,498.625 431.125,495.375 421.625,492.0 411.0,487.75"/>
    <polyline points="408.125,486.625 395.625,480.875 385.25,475.5 374.25,469.0 363.0,461.625 352.25,453.375 343.625,445.375 340.125,440.875 339.25,439.125 339.25,437.875 340.0,437.125 341.625,437.0"/>
    <polyline points="344.125,437.625 347.5,438.875 351.75,441.0 362.5,447.125 368.75,451.125 389.125,465.25 427.875,493.75 443.375,504.375 459.625,513.75 466.375,516.875 472.125,519.0"/>
    <polyline points="474.875,519.875 482.0,521.5 490.0,522.25 495.125,522.25 502.375,521.625 514.0,519.875"/>
    <polyline points="515.0,519.625 528.5,517.875 539.25,517.125"/>
    <polyline points="540.375,517.0 563.875,515.5 576.625,514.0"/>
    <polyline points="578.625,513.625 592.625,511.0 604.0,508.0 613.875,504.75 629.25,498.25 638.25,493.75 648.125,488.0 659.125,480.625 671.375,471.375"/>
    <polyline points="677.875,465.875 684.75,459.625 699.375,445.0 706.875,436.375 714.5,427.0 722.0,416.75 729.125,405.875 735.625,394.5 741.25,383.0 745.375,371.625 747.75,361.125 748.0,352.125 745.625,345.125 740.5,340.875 732.75,339.75 722.625,342.0 710.625,347.5 697.25,356.0 683.25,366.625 669.125,378.875 655.375,392.0 642.375,405.375 630.25,418.5 609.375,442.625"/>
    <polyline points="600.375,453.25 578.875,478.75 567.875,490.875 558.875,499.875 554.875,503.375 547.75,508.75 541.375,512.625 535.75,515.25 530.5,517.0 523.125,518.375 518.5,518.875 509.75,519.0"/>
    <polyline points="507.625,519.0 493.125,518.125 454.625,514.5"/>
    <polyline points="452.25,514.375 435.625,513.375 425.875,513.375 418.75,514.0 412.25,515.5 408.625,517.375 407.125,518.625 406.0,520.125 405.25,522.125 405.0,524.375 405.375,527.25 406.5,530.75"/>
    <polyline points="408.625,535.0 412.0,540.25 417.0,546.5 423.875,554.125 433.25,563.25 445.5,574.125 461.375,586.875 481.375,601.5 505.875,617.75 534.875,634.875 568.0,651.5 603.625,665.875 639.25,675.625 672.125,678.5 699.125,673.375 718.75,660.375 730.875,641.125 736.25,617.75 737.0,592.625 734.625,567.5 730.75,543.875 726.25,522.25 718.0,485.875 711.25,458.25"/>
    <polyline points="708.375,447.25 705.75,437.875 703.0,430.125 700.125,423.875 697.0,418.875 693.5,415.125 689.75,412.75 685.375,411.375 680.75,411.125 675.625,411.875 670.25,413.625 664.625,416.0 653.0,422.625 647.125,426.625 629.875,439.875 592.75,471.625"/>
    <polyline points="589.125,474.75 576.5,484.625 564.25,493.0 553.375,499.25 541.75,504.875"/>
    <polyline points="541.0,505.25 535.125,508.125 533.875,509.375 533.75,510.125 534.375,510.75 535.625,511.25 538.0,511.75 545.375,512.375"/>
    <polyline points="546.125,512.375 557.0,512.5 562.0,512.25 578.25,510.625"/>
    <polyline points="580.125,510.25 593.625,507.625 607.5,503.625 624.75,496.75 637.25,490.375 646.625,484.75 657.0,477.75 668.375,469.0"/>
    <polyline points="674.5,463.75 687.25,451.625 694.0,444.625 700.75,437.0 707.5,428.625 714.25,419.625 720.5,410.125 726.25,400.25 731.125,390.25 734.875,380.5 737.25,371.375 737.75,363.375 736.125,357.0 732.375,352.875 726.375,351.125 718.375,352.0 708.625,355.625 697.5,361.75 685.625,370.0 673.25,379.75 661.0,390.75 649.0,402.125 637.625,413.625 617.375,435.625"/>
    <polyline points="608.375,445.625 593.0,463.125 574.75,483.0 565.0,492.375 556.75,499.5 549.625,504.625 543.125,508.375 537.375,511.0 531.875,512.875 524.5,514.5 517.625,515.375 513.125,515.5"/>
    <polyline points="511.0,515.625 502.625,515.5 486.5,514.25 476.25,513.125 458.625,510.625"/>
    <polyline points="456.25,510.25 430.125,505.75 410.875,501.625 395.75,497.75 372.875,490.5"/>
    <polyline points="367.5,488.5 355.875,483.75 342.5,477.375 335.0,473.625 318.0,463.875 308.25,457.625 286.125,442.0 273.625,432.0 260.25,420.5 246.125,407.375 232.125,392.75 219.125,377.125 208.75,361.5 202.875,347.75 204.0,338.0 213.875,335.0 233.25,340.625 260.75,355.375 293.375,378.0 327.625,406.0 360.125,436.375 388.75,466.375"/>
    <polyline points="412.5,494.5 431.125,519.625 445.0,541.375 454.875,560.0 461.25,575.625 464.75,588.375 466.125,598.875 465.75,607.125 464.25,613.375 461.75,617.75 458.75,620.5 455.5,621.875 452.25,621.75 449.25,620.375 446.5,618.0 444.125,614.625 442.25,610.625 440.875,605.875 440.0,600.75 439.625,595.375 440.125,584.25 442.0,573.375 444.875,563.375"/>
    <polyline points="446.625,558.875 448.375,554.5 454.0,543.625 457.875,537.75 461.625,533.0 466.875,527.375 471.625,523.25 477.125,519.5 484.5,515.75"/>
    <polyline points="485.375,515.375 492.75,512.625 494.875,511.375 494.5,510.75 493.0,510.125 489.5,509.375"/>
    <line x1="489.0" x2="471.0" y1="509.25" y2="505.75"/>
    <polyline points="470.0,505.625 453.375,501.75 443.25,499.0 431.25,495.25"/>
    <polyline points="429.125,494.5 414.25,489.0 405.75,485.375 393.125,479.375 386.375,475.75 379.25,471.75 368.375,464.875 357.625,457.125 351.125,451.75"/>
    <polyline points="348.25,449.125 343.625,444.375 342.125,442.25 341.25,440.5 341.0,439.25 341.625,438.5 343.0,438.25 345.25,438.625 348.375,439.75 356.875,444.125 368.125,450.875 387.625,464.25 431.125,495.875 441.125,502.5"/>
    <polyline points="445.625,505.375 457.625,512.25 467.375,516.625 473.0,518.625 480.125,520.375 488.25,521.375 494.875,521.375 503.125,520.625"/>
    <polyline points="504.25,520.375 520.25,518.0 528.125,517.25"/>
    <line x1="529.0" x2="555.5" y1="517.125" y2="515.625"/>
    <polyline points="556.875,515.5 571.375,514.25 585.875,512.0 601.625,508.25 611.0,505.25"/>
    <polyline points="614.5,504.0 621.875,501.125 634.375,495.25 648.875,486.875 659.875,479.5 665.875,475.0 678.625,464.5 692.625,451.125 700.0,443.375 707.375,434.75 714.875,425.375 722.25,415.25 729.125,404.5 735.375,393.25 740.625,382.0 744.5,371.0 746.5,360.875 746.25,352.25"/>
    <polyline points="743.5,345.875 738.25,342.125 730.25,341.5 720.125,344.125 708.125,349.875 694.875,358.5 681.125,369.125 667.25,381.125 653.75,394.125 629.25,420.0 578.75,478.875 567.875,490.75 558.875,499.5 551.25,505.875 544.5,510.375 541.5,512.0"/>
    <polyline points="538.5,513.5 530.375,516.375 525.5,517.5 520.75,518.125 514.0,518.5 503.375,518.375 482.625,516.625"/>
    <polyline points="480.625,516.375 442.25,512.625 421.75,511.625"/>
    <polyline points="419.125,511.625 409.0,512.375 404.375,513.375 400.25,515.125 398.5,516.25 397.125,517.75 396.125,519.625 395.625,522.0 395.875,524.875 396.875,528.5 398.875,532.875 402.375,538.375 407.5,545.125 414.875,553.375 425.0,563.5 438.625,575.625 456.5,590.125 479.25,607.0 507.5,625.75 541.25,645.625 579.875,664.75"/>
    <polyline points="621.0,680.5 661.25,689.875 696.875,690.375 724.375,680.75 742.5,662.125 751.875,637.125 754.625,608.75 752.875,579.625 749.0,551.625 744.375,525.875 726.375,435.5 723.625,424.125 720.625,414.75 717.25,407.25 713.25,401.5 708.5,397.625 703.125,395.375 697.0,394.875 690.25,396.0 682.875,398.375 675.25,402.125 667.25,406.75"/>
    <polyline points="659.25,412.125 643.5,424.375 636.0,430.75 621.75,443.375 592.875,470.0 579.625,481.375 568.5,489.75 559.25,495.875 551.25,500.125 544.375,503.125"/>
    <polyline points="542.25,503.875 532.875,506.75 522.25,508.875 513.625,509.75 507.0,510.0"/>
    <polyline points="506.0,510.0 497.0,509.75 480.375,507.875"/>
    <polyline points="479.125,507.625 463.375,504.75 450.125,501.625 440.25,498.875"/>
    <polyline points="438.125,498.25 423.875,493.75 409.75,488.375 400.0,484.125 389.375,479.0 381.625,474.875 369.375,467.75 356.625,459.125"/>
    <polyline points="352.5,456.0 344.375,449.5 337.375,443.0 334.5,439.875 332.25,437.125 330.75,434.625 330.125,432.75 330.375,431.375 331.75,430.75 334.25,431.0 337.875,432.125 342.5,434.25 354.75,441.125 377.625,456.75 430.0,496.5"/>
    <polyline points="436.0,500.875 446.75,508.5 456.0,514.375 467.5,520.5 474.0,523.125 479.625,524.75 487.0,526.25 495.25,526.625 500.625,526.25 506.875,525.375"/>
    <polyline points="508.375,525.125 529.0,521.625 540.125,520.375"/>
    <polyline points="541.5,520.25 565.625,518.0 584.375,515.375"/>
    <polyline points="586.875,514.875 600.5,511.75 613.625,507.75 629.5,501.375 643.75,494.125 660.375,483.625 673.25,474.0 680.25,468.25 687.5,461.75 695.25,454.375 703.125,446.125"/>
    <polyline points="711.375,436.875 719.75,426.625 728.0,415.5 736.0,403.375 743.25,390.75 749.625,377.625 754.25,364.875 756.875,353.0 756.875,342.75 753.875,335.0 747.75,330.625 738.5,330.0 726.5,333.375 712.5,340.5 697.25,351.0 681.5,363.75 665.875,378.0 651.0,393.125 637.125,408.125 613.25,436.0 573.5,485.5"/>
    <polyline points="568.125,491.875 558.875,502.0 551.25,509.25 547.875,512.0 541.75,516.125 536.25,518.875 528.875,521.25 519.875,522.5 507.375,522.375 501.375,521.875"/>
    <polyline points="499.375,521.75 481.625,520.375 467.75,519.75 461.875,519.75 450.5,520.75"/>
    <polyline points="448.75,521.125 444.0,522.625 441.375,524.25 440.375,525.25 438.875,527.875 438.5,529.5 439.125,533.625 440.125,536.25 441.75,539.25 444.0,542.75 447.25,546.75 451.5,551.5 463.625,562.875 472.0,569.75 482.125,577.375 494.25,585.75 508.375,594.625 524.375,603.75 542.375,612.75 561.625,621.0"/>
    <polyline points="581.625,627.75 601.625,632.375 620.375,634.25 637.0,632.75 650.875,628.0 661.375,620.0 668.625,609.5 672.75,597.25 674.375,583.875 673.875,570.25 672.0,556.875 669.25,544.25 665.875,532.625 662.375,522.0 658.75,512.625 655.125,504.5 648.625,491.25 645.625,486.125 642.875,481.75 638.0,475.125 633.75,470.75 630.125,468.0"/>
    <polyline points="628.625,467.0 625.625,465.875 623.125,465.5 620.875,465.625 618.125,466.375 615.25,467.875 613.75,469.125 612.75,470.25 612.25,471.75 612.875,472.375 614.375,472.5 618.25,471.5 626.125,467.625 632.375,463.625"/>
    <polyline points="633.625,462.625 641.625,456.0 646.5,450.875 650.5,445.75 651.875,443.375 653.125,440.25 652.875,438.125 652.0,437.375 651.25,437.25"/>
    <polyline points="650.375,437.25 648.25,437.625 644.0,439.5 640.625,441.375 635.0,445.125 621.25,455.75 607.875,467.5"/>
    <polyline points="606.5,468.875 599.875,475.375 595.75,480.75 595.125,482.375 595.25,483.625 596.375,484.625 597.375,484.875"/>
    <polyline points="598.0,485.0 602.125,484.625 605.625,483.875 612.75,481.5 619.875,478.25 626.125,475.0 637.875,467.375"/>
    <polyline points="640.5,465.5 648.375,459.125 659.0,449.0 666.375,440.25 670.5,434.375 673.75,428.5 675.0,425.875 676.25,421.0 676.25,419.0 675.875,417.375 675.125,416.125 673.75,415.25 672.0,415.0 667.25,415.625 664.25,416.75"/>
    <polyline points="661.0,418.25 657.375,420.25 649.625,425.25 637.125,434.75 624.75,445.125 591.375,474.5 578.125,485.375"/>
    <polyline points="576.375,486.75 563.25,497.0 560.25,500.125 559.5,501.625 559.875,502.875"/>
    <polyline points="560.0,503.125 562.375,504.375 567.75,505.0 574.5,504.875 583.5,503.75"/>
    <polyline points="585.25,503.5 595.25,501.375 604.875,498.5 616.375,494.125 626.375,489.5 637.875,483.125 646.375,477.625 655.625,471.0 665.625,462.875"/>
    <polyline points="670.75,458.25 676.125,453.125 687.0,441.75 697.75,428.5 707.5,414.0 711.625,406.5 715.125,399.125 717.625,392.0 719.125,385.5 719.25,379.875 718.0,375.375 715.25,372.25 711.0,370.875 705.375,371.125 698.5,373.25 690.5,377.125 681.75,382.5 672.375,389.0 662.875,396.625 653.375,404.875 644.125,413.375 626.625,430.5"/>
    <polyline points="618.625,438.75 591.875,466.5 581.25,476.875 567.875,488.75 560.375,494.5 553.75,498.875 547.75,502.25 539.75,505.875 530.375,508.75 524.125,510.0"/>
    <polyline points="522.125,510.25 512.875,511.125 504.5,511.25 486.875,510.125 480.375,509.25"/>
    <polyline points="478.75,509.0 466.5,507.125 450.5,503.875 438.875,501.0 425.5,497.125"/>
    <polyline points="422.5,496.125 406.0,490.375 386.125,481.75 372.0,474.5 356.125,465.125 344.5,457.375 326.625,443.5 315.375,433.25 306.375,423.125"/>
    <polyline points="303.375,418.625 301.75,414.75 301.75,412.0 303.625,410.625 307.75,410.875 313.75,412.875 321.875,416.75 331.625,422.375 342.625,429.625 354.5,438.0 366.875,447.375 379.125,457.25 402.375,476.75 439.125,509.125 458.25,525.125 468.0,532.125 472.125,534.75 479.25,538.625"/>
    <polyline points="482.375,539.875 490.5,542.125 495.25,542.5 499.375,542.25 503.375,541.75 508.75,540.5 530.125,534.5"/>
    <polyline points="531.625,534.125 539.75,532.5 553.625,530.5 578.5,528.0"/>
    <polyline points="580.875,527.75 594.25,526.0 610.375,523.0 625.875,518.75 640.0,513.625 650.875,508.75 663.375,502.0 670.25,497.875 685.75,487.125 694.5,480.25"/>
    <polyline points="703.875,472.25 714.125,462.875 725.0,451.875 736.75,439.0 749.0,424.0 761.625,406.875 774.25,387.625 786.125,366.5 796.125,344.25 803.125,322.125 805.75,302.125 802.375,286.25 792.375,277.125 775.875,276.125 754.125,283.875 729.0,299.5 702.75,320.875 677.375,345.625 654.125,371.5 633.875,396.875 616.75,420.5 602.625,441.75 591.25,460.375 582.125,476.5 575.0,490.125 569.625,501.625"/>
    <polyline points="565.375,511.125 559.875,525.5 557.0,535.0 554.75,544.125 554.0,545.5 552.75,545.25 545.25,538.625 539.375,534.75"/>
    <polyline points="537.75,533.75 532.625,531.25 527.25,529.125 517.875,526.25 506.375,523.875 491.0,521.75"/>
    <polyline points="489.0,521.625 479.25,520.75 469.625,520.375 463.75,520.375 456.375,520.875 452.75,521.375 447.875,522.75 445.125,524.125 444.0,525.0"/>
    <polyline points="443.0,526.0 442.125,527.125 441.625,528.5 441.375,532.0 441.875,534.25 442.875,536.75 444.5,539.75 446.75,543.125 449.875,547.0 454.0,551.5 459.125,556.625 465.625,562.375 473.625,568.875 483.25,576.125 494.625,584.0 507.875,592.375 523.0,600.875 539.875,609.375 558.0,617.25 576.875,623.875 595.75,628.5 613.75,630.625 630.0,629.875 643.625,625.875 654.375,619.125"/>
    <polyline points="662.0,609.75 666.75,598.5 668.875,586.125 669.0,573.375 667.625,560.625 665.25,548.375 662.125,537.125 658.75,526.75 651.625,509.375 644.875,496.25 639.0,486.625 636.375,482.875 631.625,477.25 627.625,473.625 622.625,470.625 621.25,470.125 617.75,469.625"/>
    <polyline points="616.75,469.625 613.5,470.375 611.5,471.625 610.5,472.75 610.5,473.5 611.375,474.0 614.375,473.75"/>
    <polyline points="615.0,473.5 617.5,472.75 622.625,470.375 631.75,464.875 640.5,458.0 646.25,452.375"/>
    <polyline points="647.625,451.0 653.25,443.75 655.25,439.875 655.75,437.75 655.625,436.125 655.25,435.5 653.125,434.75 649.375,435.625 644.25,438.0 638.125,441.875"/>
    <polyline points="636.0,443.375 625.0,451.75 610.875,463.75 599.125,474.75 594.5,479.625"/>
    <polyline points="593.875,480.5 591.625,483.875 591.25,485.25 591.375,486.0 591.875,486.625 592.625,487.125 594.25,487.5 597.5,487.5 602.0,486.625"/>
    <polyline points="603.375,486.375 612.875,483.125 618.875,480.5 625.5,477.0 633.0,472.5 646.875,462.5 655.75,454.625 661.625,448.625"/>
    <polyline points="664.625,445.5 670.0,438.875 674.875,432.0 676.875,428.625 679.875,422.125 680.875,419.25 681.375,416.625 681.375,414.375 680.875,412.5 679.875,411.0 678.25,410.125 676.125,409.875 673.5,410.125 670.375,411.0 666.875,412.5 658.75,416.875 649.75,423.0 645.0,426.625 630.875,438.25"/>
    <polyline points="626.25,442.25 589.0,475.25 572.375,488.5 560.25,497.0"/>
    <polyline points="559.125,497.625 553.0,502.125 551.5,503.625 550.875,504.875 550.875,505.625 551.375,506.375 552.25,506.875"/>
    <polyline points="552.625,507.125 556.5,508.0 562.75,508.375 569.875,508.125 577.5,507.375"/>
    <polyline points="579.125,507.125 586.75,505.875 603.25,501.625 615.25,497.25 622.0,494.375 629.375,490.75 637.5,486.25 646.5,480.75 656.25,473.875"/>
    <polyline points="661.5,469.875 672.5,460.625 684.125,449.25 690.125,442.875 702.125,428.375 707.875,420.375 713.25,412.125 718.125,403.625 722.125,395.125 725.25,386.875 727.0,379.375 727.25,372.75 725.875,367.5 722.75,363.875 717.875,362.25 711.25,362.875 703.125,365.5 693.875,370.25 683.75,376.75 673.125,384.75 662.375,393.625 641.625,413.0"/>
    <polyline points="631.875,422.875 581.125,476.625 571.25,486.0 562.75,493.375 551.875,501.125 542.625,506.125 532.125,509.875 522.875,511.875"/>
    <polyline points="520.625,512.125 508.5,512.875 499.125,512.625 484.375,511.375 473.0,509.875"/>
    <polyline points="471.0,509.5 454.125,506.625 436.75,502.75 418.75,497.875 404.625,493.25"/>
    <polyline points="400.625,491.75 387.75,486.75 378.125,482.375 367.375,477.125 355.5,470.625 342.25,462.5 327.625,452.5 312.0,440.375 304.0,433.625 296.125,426.25 288.75,418.75 282.25,411.125 277.125,403.875 273.875,397.625 273.125,392.75 275.5,390.0 281.375,389.875 290.625,393.0"/>
    <polyline points="303.0,399.25 318.0,408.5 334.625,420.375 352.0,433.875 369.25,448.25 385.75,462.875 414.5,490.375 436.875,513.25 470.125,548.25 477.625,555.0 483.125,559.125 485.375,560.375 487.5,561.125 491.0,561.75 494.125,561.375 495.625,560.875"/>
  </g>
</svg>
