<?xml version="1.0" encoding="utf-8" ?>
<svg xmlns="http://www.w3.org/2000/svg" xmlns:cc="http://creativecommons.org/ns" xmlns:dc="http://purl.org/dc/elements/1.1/" xmlns:ev="http://www.w3.org/2001/xml-events" xmlns:inkscape="http://www.inkscape.org/namespaces/inkscape" xmlns:rdf="http://www.w3.org/1999/02/22-rdf-syntax-ns" xmlns:sodipodi="http://sodipodi.sourceforge.net/DTD/sodipodi-0.dtd" xmlns:xlink="http://www.w3.org/1999/xlink" baseProfile="tiny" height="27.09333333cm" version="1.2" viewBox="0 0 1024.0 1024.0" width="27.09333333cm">
  <metadata>
    <rdf:RDF>
      <cc:Work>
        <dc:format>image/svg+xml</dc:format>
        <dc:source>vpype read './original_svgs/Strange Attractors #200.svg' linemerge linesimplify write './Strange Attractors #200.svg'
</dc:source>
        <dc:date>2024-08-05T01:35:36.224380</dc:date>
      </cc:Work>
    </rdf:RDF>
  </metadata>
  <defs/>
  <g fill="none" id="layer1" inkscape:groupmode="layer" inkscape:label="1" stroke="black" stroke-width="0.7mm" style="display:inline">
    <polyline points="174.375,667.75 174.5,590.625 170.375,537.375 162.0,500.75 150.5,475.75 138.25,458.875 129.625,449.0 131.5,446.5 153.0,453.875 200.625,473.625 271.625,506.125 352.5,547.75 426.5,593.0 483.625,637.375 521.875,679.25 543.5,718.5 551.625,755.375 548.875,790.0 537.0,821.375 518.25,847.875 494.125,867.125 467.375,876.75 440.25,874.875 415.25,861.5 394.25,838.25 378.125,807.875"/>
    <polyline points="366.75,773.75 359.625,739.125 355.625,706.0 354.0,676.0 354.0,649.625 355.125,627.0 357.0,608.125 359.375,592.5 362.25,580.0 365.25,569.875 368.625,562.0 372.25,555.875 376.125,551.25 380.125,547.875 384.375,545.5 388.875,543.875 393.375,543.0 402.625,542.5 411.75,543.125 432.5,545.5"/>
    <polyline points="436.0,545.75 439.375,546.0 448.25,545.875 453.25,545.25 459.625,543.625 464.625,541.375 469.75,537.875 473.5,534.125 476.625,529.625"/>
    <polyline points="477.0,528.75 478.25,525.5 478.625,523.25 478.625,521.25 478.25,519.375 476.75,516.625 475.0,514.75 473.25,513.5"/>
    <polyline points="472.5,513.125 468.75,511.125 460.5,508.25 442.5,504.0"/>
    <polyline points="440.625,503.625 409.75,497.875 386.75,494.125 367.125,491.375"/>
    <polyline points="362.875,490.875 346.25,489.25 335.25,489.25 330.375,490.375 329.125,491.5 328.75,493.0 329.75,495.0 332.0,497.625 335.75,500.75 341.125,504.625 347.875,509.0 385.75,530.875 407.0,542.5 435.5,557.375"/>
    <polyline points="443.5,561.375 457.5,567.625 468.625,571.75 477.625,573.875 481.5,574.375 488.25,574.375 491.125,574.0 496.375,572.625 503.125,569.625 510.875,564.625 521.125,557.25"/>
    <polyline points="522.75,556.125 534.0,549.25 543.875,545.0 552.625,542.25 565.875,539.625"/>
    <polyline points="567.875,539.25 596.0,535.875 610.375,533.625 616.75,532.375 626.875,529.625 634.25,527.25 638.0,525.625"/>
    <polyline points="642.0,524.0 650.25,519.625 659.125,514.0 668.5,506.375 673.5,501.625 683.75,489.875 689.0,482.625 694.375,474.125 699.75,464.5 705.0,453.375 710.125,440.75 714.75,426.5 718.875,410.625 722.125,393.0 724.0,374.125 724.25,354.25 722.375,334.125 717.875,314.75 710.5,297.375 700.0,283.25 686.5,273.75 670.625,269.5"/>
    <polyline points="653.0,270.875 634.5,277.5 616.25,288.5 598.75,302.875 582.75,319.125 568.5,336.25 556.125,353.375 545.5,369.625 536.625,384.875 523.25,410.875 518.375,421.625 511.125,439.375 504.75,457.75 499.875,474.625 497.5,481.5"/>
    <polyline points="496.875,482.625 495.75,484.75 493.75,487.0 492.25,488.25 488.75,490.125 481.5,492.5 472.625,493.875"/>
    <polyline points="471.25,494.0 465.375,494.5 453.75,494.5 442.125,493.75 423.625,491.5"/>
    <polyline points="421.125,491.25 390.5,486.25 315.625,472.125"/>
    <polyline points="308.125,470.625 272.5,463.875 240.375,458.375 230.0,457.0 221.125,456.25 215.375,456.875 215.125,459.625 223.0,465.5 241.125,475.75 308.625,510.625 351.625,533.75 394.125,558.625 432.0,583.125 463.0,606.375 487.0,627.625 504.25,646.75 516.0,663.75 523.125,678.875 526.625,692.125 527.125,703.75"/>
    <polyline points="525.25,713.625 521.625,721.625 516.625,727.875 510.625,732.125 504.0,734.25 497.125,734.375 490.25,732.375 483.625,728.375 477.5,722.625 472.125,715.25 467.375,706.625 463.5,697.0 460.5,686.875 458.125,676.375 456.625,665.75 455.625,655.375 455.125,645.25 455.375,626.375 456.875,609.75 459.125,595.5 462.875,578.25"/>
    <polyline points="464.25,573.375 466.75,565.0 471.375,551.875 479.5,531.375 481.0,526.0 481.375,523.5"/>
    <polyline points="481.375,522.75 480.875,518.75 479.0,515.625 477.0,513.875 474.5,512.375 470.5,510.625"/>
    <polyline points="469.625,510.25 464.625,508.625 455.875,506.375 432.75,501.75"/>
    <polyline points="430.5,501.25 400.5,496.0 378.875,492.625 358.0,489.875 345.125,488.75"/>
    <polyline points="341.0,488.5 333.625,488.625 330.75,489.0 328.375,489.625 327.0,490.75 326.625,492.25 327.5,494.25 329.75,496.875 333.5,500.125 346.0,508.5 364.0,519.25 407.375,543.375 436.75,558.875 459.125,569.5 470.5,573.625"/>
    <polyline points="475.25,575.0 479.5,575.875 486.875,576.625 493.0,576.0 500.5,573.75 507.0,570.375 524.75,558.0 531.375,553.875"/>
    <polyline points="533.0,553.0 543.125,548.25 552.0,545.375 563.5,542.875 580.875,540.75"/>
    <polyline points="583.25,540.5 598.875,539.0 617.0,536.5 627.25,534.375 634.75,532.375 646.75,528.0 655.5,523.75 660.0,521.125 669.75,514.375"/>
    <polyline points="674.75,510.25 680.0,505.375 685.5,499.625 691.0,492.875 696.75,485.0 702.625,475.875 708.5,465.375 714.25,453.0 719.875,438.875 725.125,422.75 729.625,404.5 733.0,384.25 735.0,362.375 734.75,339.375 731.875,316.25 725.75,294.5 715.875,275.625 702.25,261.25 685.25,253.125 665.75,251.75 644.875,257.125 623.75,268.375 603.5,284.0 584.875,302.5 568.375,322.125 554.25,341.75"/>
    <polyline points="542.375,360.5 532.625,377.875 524.75,393.375 518.5,407.125 513.625,419.125 509.875,429.5 504.75,445.875 502.125,457.625 500.5,469.375 500.25,481.0 499.875,483.875 498.625,486.5"/>
    <polyline points="498.25,487.0 496.5,488.5 494.375,489.75 488.875,491.875 479.625,494.0 472.875,494.875"/>
    <polyline points="471.375,495.0 463.75,495.5 451.5,495.25 441.375,494.5 422.125,492.125"/>
    <polyline points="419.375,491.75 386.5,486.5 301.0,471.125"/>
    <polyline points="292.5,469.625 274.375,466.75 256.625,464.5 249.125,464.125 243.625,464.625 241.625,466.375 244.625,470.25 254.25,476.875 271.375,486.625 326.375,516.125 359.625,534.375 392.625,553.625 423.0,572.75 448.875,590.75 470.0,607.25 486.625,621.875 499.0,634.75 508.0,646.0 514.25,655.75 518.125,663.875 520.25,670.875 521.0,676.625 520.625,681.125"/>
    <polyline points="519.375,684.625 517.375,687.125 515.125,688.625 512.5,689.0 509.625,688.625 506.875,687.25 504.125,685.125 501.375,682.25 499.0,678.625 496.75,674.5 493.25,664.875 491.0,654.25 490.25,648.625 489.625,637.375 489.75,631.875 490.5,621.25 491.875,611.375 493.875,602.375 496.125,594.25"/>
    <polyline points="497.375,590.5 501.5,580.5 505.625,572.125 510.0,565.125 512.875,561.25 520.125,553.125 525.875,548.25 533.125,543.5"/>
    <polyline points="534.625,542.75 542.125,539.375 551.75,536.375 560.375,534.5 578.25,531.75"/>
    <polyline points="580.5,531.5 594.875,529.25 605.625,527.0 617.75,523.625 627.75,519.875 638.625,514.375 646.375,509.375 654.5,503.0 658.75,499.125"/>
    <polyline points="663.125,494.75 667.625,489.75 672.125,484.0 676.625,477.5 681.125,470.25 685.625,462.0 690.0,452.75 694.25,442.375 698.0,430.75 701.375,418.125 704.0,404.375 705.75,389.75 706.375,374.5 705.375,359.0 702.75,343.875 698.125,329.875 691.375,317.625 682.375,308.0 671.5,301.75 659.125,299.125 645.375,300.375 631.125,305.125 616.875,313.125 603.0,323.375 589.875,335.5 577.875,348.375"/>
    <polyline points="567.125,361.75 557.625,374.75 549.25,387.25 542.0,399.0 525.875,428.25 507.25,466.875 502.75,475.375 500.25,479.375 496.75,484.0 492.25,488.0"/>
    <polyline points="491.125,488.875 487.625,490.75 484.0,492.25 477.5,494.0 467.375,495.25 455.625,495.375"/>
    <polyline points="453.75,495.375 439.75,494.375 427.875,493.0 411.375,490.625 387.5,486.625"/>
    <polyline points="383.5,486.0 310.875,472.875 276.5,467.125 258.625,464.875 250.875,464.25 245.0,464.5 242.25,466.125 244.125,469.5 252.375,475.5 268.0,484.625"/>
    <polyline points="291.125,497.125 353.125,530.625 386.25,549.75 417.125,568.875 443.875,587.0 465.875,603.75 483.25,618.625 496.5,631.875 506.125,643.375 512.875,653.25 517.25,661.75 519.75,668.875 520.75,674.75 520.625,679.5 519.625,683.25 518.0,685.875 515.75,687.5 513.25,688.125 510.5,687.875 507.75,686.75 505.0,684.875 502.5,682.125 500.0,678.75 497.75,674.875 495.875,670.5"/>
    <polyline points="494.25,665.625 491.75,655.125 490.5,644.125 490.375,633.125 490.625,627.875 491.0,622.625 492.375,612.75 494.25,603.625 496.5,595.5 499.0,588.125 504.5,575.875 507.375,570.75 511.75,564.125"/>
    <polyline points="513.25,562.25 516.125,558.625 520.5,554.0 523.375,551.375 529.25,547.0 538.25,542.0 546.0,539.0 551.0,537.625"/>
    <polyline points="552.625,537.125 565.25,534.625 596.625,530.0 607.75,527.625"/>
    <polyline points="610.75,526.875 620.125,524.125 630.375,520.125 634.0,518.5 645.5,511.875 653.625,505.875 662.375,498.0 666.875,493.25 676.0,481.625 680.625,474.625 685.25,466.625 689.875,457.75 694.25,447.625 698.375,436.375 702.125,423.875 705.25,410.125 707.5,395.375"/>
    <polyline points="708.75,379.875 708.5,363.75 706.625,347.875 702.75,332.625 696.625,319.0 688.25,307.75 677.75,299.75 665.375,295.5 651.5,295.375 636.875,299.125 622.0,306.375 607.375,316.375 593.625,328.5 580.875,341.75 569.375,355.5 559.25,369.25 550.375,382.375 542.625,394.625 536.125,406.0 525.75,425.625 510.375,458.0"/>
    <polyline points="508.5,462.375 503.75,472.25 501.125,477.0 498.75,480.625 495.5,484.75 492.25,487.625 489.0,489.75 484.25,491.875 478.0,493.625"/>
    <polyline points="476.625,493.875 464.875,495.125 454.75,495.125 447.125,494.75 431.75,493.25"/>
    <polyline points="429.375,492.875 416.125,491.125 393.75,487.5 331.25,476.125"/>
    <polyline points="324.5,474.875 274.75,466.125 255.75,463.375 247.25,462.625 240.25,462.5 236.125,463.5 236.625,466.5 243.5,472.0 258.375,480.75 346.375,527.875 381.875,548.125 415.0,568.5 443.75,588.125 467.25,606.125 485.5,622.375 499.25,636.625 509.125,649.25 515.75,660.125"/>
    <polyline points="519.75,669.5 521.75,677.375 522.125,684.0 521.125,689.375 519.25,693.625 516.625,696.5 513.5,698.25 510.125,698.875 506.5,698.375 502.875,696.75 499.375,694.125 496.125,690.625 493.125,686.375 490.375,681.25 488.125,675.75 486.125,669.75 484.625,663.5 483.5,657.0 482.75,650.375 482.25,643.875 482.125,631.0 483.125,619.0 484.75,608.0"/>
    <polyline points="485.75,602.875 486.75,598.125 490.5,585.375 494.5,574.75 498.625,566.125 501.375,561.25 508.0,551.5 513.0,545.625 517.875,541.0"/>
    <polyline points="519.0,540.0 524.875,535.625 531.875,531.875 537.75,529.5 542.75,528.0 549.375,526.5"/>
    <polyline points="550.75,526.25 579.0,522.0 587.375,520.5 596.625,518.375"/>
    <polyline points="599.125,517.75 606.875,515.25 615.25,512.0 621.125,509.125 627.375,505.5 633.875,501.125 637.125,498.5 640.625,495.625 647.625,488.875 654.75,480.5 658.25,475.625 665.375,464.125 668.75,457.5 672.0,450.25 675.0,442.375 677.75,433.75"/>
    <polyline points="680.125,424.625 682.0,414.875 683.125,404.75 683.625,394.25 683.125,383.75 681.625,373.5 679.0,363.75 675.0,354.875 669.875,347.375 663.5,341.5 655.875,337.625 647.375,335.75 638.125,336.125 628.5,338.625 618.5,343.125 608.625,349.125 599.125,356.375 589.875,364.625 581.375,373.5 573.375,382.5 566.125,391.625 559.625,400.5 548.375,417.0 539.375,431.5"/>
    <polyline points="535.625,437.875 519.375,465.625 510.625,478.875 507.75,482.5 502.375,488.125 498.625,491.125 492.5,494.625"/>
    <polyline points="491.25,495.25 485.125,497.375 477.25,498.875 468.75,499.5 455.5,499.125"/>
    <polyline points="453.625,499.0 429.875,496.375 384.5,489.25"/>
    <polyline points="380.25,488.5 326.75,480.25 308.0,478.25 297.125,477.875 293.0,478.375 290.25,479.375 289.625,481.375 291.625,484.375 296.625,488.625 305.125,494.375 317.125,501.625 368.875,530.875"/>
    <polyline points="388.25,541.875 407.0,552.875 439.875,572.875 465.0,589.125 489.625,605.625 495.25,609.25 503.75,614.125 509.875,616.5 514.25,617.125 516.125,616.875 519.25,615.625 522.0,613.75 528.25,607.625"/>
    <polyline points="529.5,606.375 533.25,602.5 538.625,598.125 543.0,595.375 549.0,592.75 552.25,591.875 558.75,591.125 562.125,591.25 567.375,592.125"/>
    <polyline points="569.125,592.625 574.5,594.75 578.0,596.75 583.125,600.875 586.375,604.375 589.5,608.75 592.25,613.875 593.5,616.875 595.5,623.75 596.25,627.625 596.75,631.875 597.0,641.5 595.875,652.75 594.75,659.0 593.0,665.75"/>
    <polyline points="590.875,672.875 588.0,680.375 584.5,688.25 580.125,696.375 575.125,704.625 569.25,712.75 562.625,720.625 555.125,728.0 547.0,734.5 538.25,740.0 529.0,744.0 519.625,746.125 510.25,746.5 501.0,744.75 492.375,740.875 484.375,735.125 477.25,727.5 471.0,718.375 465.875,708.125 461.75,697.125 458.5,685.625 456.125,674.0 454.5,662.5 453.5,651.375 453.125,630.5"/>
    <polyline points="453.625,621.125 454.25,612.25 456.125,596.75 459.75,578.125 462.125,568.25 464.5,560.125 473.5,533.875 474.875,528.625"/>
    <polyline points="475.125,527.5 475.5,522.75 475.125,520.375 474.375,518.375 471.75,515.0 469.125,513.125 465.875,511.375"/>
    <polyline points="465.0,511.0 453.375,507.125 436.5,503.25 425.625,501.125"/>
    <polyline points="423.25,500.75 404.0,497.25 372.125,492.375 355.875,490.5 344.125,489.875 337.375,490.0"/>
    <polyline points="334.75,490.5 332.75,491.25 331.5,492.25 331.25,493.75 332.25,495.75 334.375,498.25 338.0,501.25 349.375,509.125 375.25,524.375 405.625,541.0 424.625,551.0 441.25,559.25 455.0,565.375 460.875,567.625 470.875,570.625 475.25,571.625 479.125,572.125"/>
    <polyline points="482.625,572.25 485.875,572.125 491.5,571.25 498.75,568.625 504.875,565.125 521.875,553.0 531.125,547.25"/>
    <polyline points="532.625,546.375 540.5,542.75 550.375,539.5 561.0,537.125 577.25,534.75"/>
    <polyline points="579.5,534.375 596.625,532.0 604.875,530.5 613.875,528.5 623.75,525.625 630.75,523.0 642.0,517.5 650.125,512.5 658.75,505.875"/>
    <polyline points="663.25,501.875 672.625,492.0 677.375,486.0 682.25,479.0 687.25,471.125 692.0,462.25 696.75,452.125 701.25,440.625 705.5,427.875 709.125,413.75 711.875,398.375 713.625,381.875 714.0,364.75 712.5,347.375 709.0,330.5 703.125,315.25 694.625,302.375 683.75,292.875 670.75,287.5 656.0,286.625 640.25,290.25 624.25,297.875 608.5,308.625 593.625,321.625 580.0,336.0"/>
    <polyline points="567.75,350.875 557.125,365.5 547.875,379.625 539.875,392.75 533.125,404.75 527.5,415.5 518.75,433.75 501.0,475.0 497.0,482.125 495.125,484.5 492.25,487.25"/>
    <polyline points="491.25,488.0 486.0,490.875 480.125,492.75 472.125,494.125 466.25,494.625 458.25,494.75"/>
    <polyline points="456.5,494.75 443.125,494.0 432.125,492.875 414.0,490.375 395.0,487.25"/>
    <polyline points="391.5,486.625 262.0,462.75 241.625,459.75 232.5,458.875 225.75,458.875"/>
    <polyline points="222.875,460.625 226.375,464.75 238.125,472.25 259.875,484.0 328.75,520.125 368.875,542.5 407.125,565.5 440.5,588.0 467.75,608.875 488.625,627.875 503.75,644.75 514.125,659.75 520.75,672.875 524.125,684.375 525.0,694.125 524.0,702.5 521.375,709.25 517.5,714.5 513.0,718.0 507.75,720.0 502.25,720.125 496.75,718.75 491.5,715.75 486.375,711.375 481.875,705.625"/>
    <polyline points="477.75,698.875 474.375,691.25 471.625,683.0 469.375,674.375 467.75,665.5 466.625,656.625 466.0,647.875 465.875,631.25 467.0,616.0 467.875,609.125 471.125,591.0 475.0,576.5 477.625,568.625 480.125,561.875 484.875,551.125"/>
    <polyline points="485.875,548.875 489.75,541.375 500.875,521.75"/>
    <polyline points="501.125,521.25 503.0,516.375 503.0,515.125 502.625,514.125"/>
    <polyline points="502.5,513.875 500.25,512.125 497.0,511.125"/>
    <line x1="496.625" x2="482.875" y1="511.0" y2="508.5"/>
    <line x1="482.0" x2="452.75" y1="508.375" y2="503.625"/>
    <line x1="451.0" x2="385.25" y1="503.375" y2="492.5"/>
    <polyline points="381.25,491.875 350.0,487.5 331.375,486.0 323.75,486.25 320.875,486.875 318.875,487.75 318.125,489.25 318.75,491.375 321.125,494.125 325.25,497.625 331.375,502.0 349.25,513.0 385.375,533.5"/>
    <polyline points="398.125,540.5 433.0,559.875 451.625,569.875 472.375,579.625 482.5,583.125 486.75,584.125 493.875,584.75 497.0,584.625 502.375,583.625 507.125,581.75 511.375,579.625 520.875,573.25"/>
    <polyline points="522.625,572.0 529.75,567.125 536.75,563.0 547.75,558.25 553.5,556.5 557.5,555.625 563.625,554.5 570.125,553.75"/>
    <polyline points="572.375,553.5 581.75,553.125 597.5,553.375 648.125,556.875"/>
    <polyline points="652.375,557.125 661.0,557.375 675.125,557.125 690.75,555.375 696.375,554.375 702.25,552.875 708.375,550.875 714.875,548.375 721.625,545.125 728.75,540.875 736.375,535.375 744.375,528.5 753.0,519.5 762.125,508.0 771.875,493.375 782.25,474.75 792.875,451.0 803.75,421.0 813.75,383.75 822.0,338.625 826.0,285.875"/>
    <polyline points="823.0,228.25 809.5,171.75 782.625,125.5 742.5,99.375 693.125,99.375 641.125,124.0 593.0,165.5 553.25,214.5 523.0,263.0 501.875,306.875 488.875,344.125 482.25,374.625 481.125,399.0 484.25,418.25 490.625,433.375 499.75,445.0 510.5,454.0 522.5,460.625 534.625,465.375 546.625,468.5 557.625,470.25 567.5,470.875 575.875,470.5 582.625,469.5 588.0,468.0 592.0,466.125"/>
    <polyline points="594.75,464.125 596.5,462.0 597.5,460.0 597.625,456.5 596.25,454.0 595.25,453.125 592.75,452.125 590.125,452.0 586.0,453.125 582.25,455.5 578.75,458.625 574.125,464.375"/>
    <polyline points="573.375,465.625 569.875,472.375 568.375,477.375 568.125,479.125 568.25,483.125 569.125,485.625 570.25,487.25"/>
    <polyline points="570.75,487.625 572.875,489.25 576.375,490.5 578.875,490.875 582.75,490.875 586.0,490.5 589.5,489.75 593.375,488.5"/>
    <polyline points="594.625,488.0 600.25,485.5 606.25,481.75 610.75,478.25 617.0,472.125 621.375,466.375 624.125,462.125 626.625,457.375 629.75,449.625"/>
    <polyline points="630.625,446.875 631.75,441.25 632.375,435.625 632.375,432.75 631.75,427.5 630.25,422.625 629.125,420.5 626.25,417.0 624.5,415.625 620.375,413.875 618.0,413.5 612.875,413.75 610.25,414.375 607.375,415.375 601.75,418.125 596.0,421.75 593.125,424.0"/>
    <polyline points="590.375,426.25 580.125,436.5 573.5,444.5 567.75,452.25 559.125,465.75 554.25,474.875 551.625,480.75"/>
    <polyline points="551.125,482.125 549.125,488.875 548.75,494.0 549.75,497.75 551.125,499.875 552.625,501.125"/>
    <polyline points="553.125,501.5 556.25,503.125 558.5,503.875 562.875,504.75 567.125,505.125 573.125,505.125 577.125,504.75"/>
    <polyline points="578.625,504.625 586.375,503.25 591.5,501.875 597.0,500.0 605.0,496.5 609.125,494.25 615.75,489.875 620.25,486.375 627.125,479.75"/>
    <polyline points="629.5,477.125 634.0,471.375 638.5,464.75 642.625,457.125 646.25,448.625 649.125,439.125 651.125,429.125 651.75,418.75 651.5,413.625 650.875,408.625 649.75,403.75 648.0,399.375 645.875,395.375 643.25,392.0 640.25,389.125 636.625,387.0 632.625,385.625 628.375,385.0 623.75,385.125"/>
    <polyline points="618.875,386.125 613.875,387.875 608.75,390.25 598.625,396.625 589.0,404.75 580.0,413.75 568.25,427.625 555.75,444.75 542.75,464.75 536.75,474.625"/>
    <polyline points="535.375,476.625 528.375,488.0 518.75,502.375"/>
    <polyline points="518.375,502.75 513.375,509.75 511.625,511.5 511.125,511.75 509.0,511.75 503.375,511.0"/>
    <line x1="503.125" x2="494.625" y1="511.0" y2="510.0"/>
    <line x1="494.25" x2="477.0" y1="509.875" y2="507.375"/>
    <line x1="476.125" x2="440.0" y1="507.25" y2="501.5"/>
    <polyline points="438.0,501.125 393.25,493.625 355.25,488.125"/>
    <polyline points="350.5,487.5 336.25,486.125 327.625,485.875 320.875,486.625 318.75,487.5 317.75,489.0 318.25,490.875 320.375,493.625 324.25,497.0 338.0,506.375 358.875,518.625 420.875,553.375 441.875,564.875 458.75,573.625"/>
    <polyline points="465.75,577.0 477.5,581.75 486.5,584.375 493.75,585.125 499.625,584.625 504.75,583.25 509.25,581.25 513.375,578.875 528.0,568.75 533.25,565.5"/>
    <polyline points="535.0,564.5 540.375,561.75 545.875,559.375 551.625,557.5 557.5,556.0 565.75,554.625 572.375,554.0 586.875,553.625"/>
    <polyline points="589.375,553.75 609.25,554.75 652.25,558.625 670.0,559.5 679.75,559.375"/>
    <polyline points="684.875,559.25 690.25,558.875 701.5,557.375 707.5,556.125 713.75,554.375 720.25,552.0 727.25,549.0 734.5,545.0 742.25,539.875 750.5,533.125 759.25,524.25 768.75,513.0 778.875,498.25 789.625,479.375 801.0,455.0 812.5,423.75 823.375,384.5 832.375,336.25 837.125,279.25 834.125,216.375 819.125,154.625 789.0,104.875 744.0,78.75 689.125,82.5 632.625,113.375"/>
    <polyline points="582.0,161.375 541.25,215.375 511.625,267.375 492.125,312.875 481.125,350.75 477.25,381.125 479.0,405.125 485.25,423.875 495.0,438.375 507.375,449.375 521.5,457.625 536.125,463.5 550.625,467.25 564.125,469.375 576.0,470.0 586.125,469.375 594.25,467.875 600.375,465.625 604.875,462.875 607.875,460.0 609.75,457.125 610.625,454.25 610.75,451.625 610.375,449.25 609.5,447.125 608.375,445.375"/>
    <polyline points="607.125,443.875 605.625,442.75 602.375,441.375 598.875,441.125 595.375,441.75 593.75,442.375 588.625,445.125 585.5,447.5 579.875,453.125 575.125,459.0 571.375,464.875"/>
    <polyline points="570.625,466.25 567.125,473.875 565.875,478.25 565.375,481.875 565.875,485.75 566.625,487.625 567.75,489.25"/>
    <polyline points="568.25,489.75 569.875,491.0 572.5,492.25 575.75,493.0 578.5,493.25 585.125,492.75 591.5,491.25"/>
    <polyline points="592.875,490.75 600.25,487.625 606.5,483.875 611.5,480.125 616.5,475.5 621.375,469.75 624.5,465.375 628.75,458.0 631.25,452.375"/>
    <polyline points="632.25,449.5 633.25,446.5 634.625,440.25 635.25,434.0 635.125,427.75 634.0,422.0 633.0,419.375 631.875,417.0 628.625,413.0 626.625,411.5 624.5,410.375 622.0,409.625 619.375,409.25 613.75,409.625 610.625,410.375 604.375,413.0 601.25,414.75 594.875,419.125"/>
    <polyline points="591.875,421.625 585.875,427.0 580.375,432.75 572.875,441.625 568.5,447.375 562.875,455.375 555.625,467.0 552.375,472.875 548.5,480.875"/>
    <polyline points="547.875,482.375 545.625,488.375 544.5,493.875 544.5,496.75 544.875,498.625 546.125,501.25 546.875,502.125"/>
    <polyline points="547.375,502.5 550.375,504.625 554.5,506.125 562.875,507.375 567.5,507.5"/>
    <polyline points="568.75,507.5 581.5,506.25 586.5,505.25 593.75,503.25 601.75,500.25 606.0,498.25 612.625,494.5"/>
    <polyline points="614.875,493.0 624.5,485.5 629.375,480.625 634.25,475.0 639.0,468.375 643.5,460.625 645.625,456.375 649.5,447.125 652.625,436.875 653.75,431.5 654.625,425.875 655.125,414.5 653.75,403.5 652.375,398.5 650.375,393.75"/>
    <polyline points="647.875,389.625 644.75,386.0 641.125,383.25 637.125,381.25 632.5,380.125 627.625,380.0 622.5,380.625 617.125,382.125 611.625,384.5 606.125,387.5 600.625,391.125 590.0,399.75 585.0,404.625 580.25,409.5 571.5,419.625 563.75,429.5 557.125,438.625 544.375,458.0"/>
    <polyline points="542.25,461.25 527.0,485.375 520.375,494.625 516.75,499.0"/>
    <polyline points="516.125,499.625 511.625,504.25 508.25,506.625 506.125,507.625"/>
    <polyline points="505.75,507.75 501.375,508.875 495.75,509.0"/>
    <polyline points="495.25,509.0 487.625,508.5 478.0,507.25"/>
    <line x1="477.0" x2="441.625" y1="507.125" y2="501.625"/>
    <polyline points="439.5,501.25 395.75,494.0 358.5,488.375"/>
    <polyline points="353.75,487.875 339.375,486.25 326.125,485.75 322.625,486.0 319.75,486.625 317.875,487.625 317.25,489.25 318.125,491.375 320.625,494.25 325.125,497.875 340.125,507.75 374.25,527.5 424.25,555.375 453.5,571.125"/>
    <polyline points="461.25,575.125 474.0,580.75 479.25,582.75 483.875,584.125 491.75,585.5 498.0,585.5 503.375,584.375 510.125,581.5 519.875,575.25 528.75,569.0 532.375,566.875"/>
    <polyline points="534.125,565.75 539.5,562.875 545.0,560.5 548.75,559.125 556.5,557.0 566.875,555.25 578.25,554.5 585.5,554.5"/>
    <polyline points="588.125,554.625 601.75,555.25 613.875,556.375 658.25,561.875 676.5,563.75"/>
    <polyline points="681.375,564.125 697.0,564.875 708.375,564.75 720.625,563.5 727.25,562.375 734.0,560.75 741.25,558.375 748.875,555.125 756.875,550.625 765.625,544.625 774.875,536.625 784.875,525.875 795.75,511.625 807.5,492.625 820.25,467.375 833.5,434.0 846.75,390.625 858.25,335.25 865.25,267.625 862.875,190.75 844.875,114.125 806.375,53.875"/>
    <polyline points="748.375,27.125 679.125,41.375 611.375,89.0 554.75,153.25 512.875,219.375 485.75,278.5 471.0,327.5 466.625,366.25 470.625,396.25 481.25,419.375 497.25,436.75 516.875,449.75 538.5,459.0 560.375,465.0 581.0,468.0 599.125,468.5 613.875,466.875 625.25,463.5 633.25,458.875 638.625,453.5 641.875,447.625 643.375,441.75 643.625,436.125 643.0,430.625 641.625,425.625 639.75,421.25"/>
    <polyline points="637.5,417.25 635.0,413.875 632.125,411.125 629.125,409.0 625.875,407.5 622.375,406.625 618.875,406.25 611.5,407.125 603.875,410.0 596.5,414.375 592.875,417.0 589.375,419.75 582.75,425.875 576.5,432.375 571.0,438.875 559.75,454.125"/>
    <polyline points="557.875,456.875 547.75,473.0 543.125,481.5 539.5,489.25 537.375,495.75"/>
    <polyline points="537.125,496.5 536.875,500.875 537.5,503.375 539.125,505.625 540.625,506.875 542.125,507.625"/>
    <polyline points="542.625,507.875 547.625,509.5 553.5,510.375 564.25,510.75"/>
    <polyline points="565.5,510.75 575.375,510.0 587.125,507.875 592.875,506.375 601.125,503.5 610.125,499.25"/>
    <polyline points="612.5,497.875 617.375,494.875 622.5,491.125 627.625,486.75 632.875,481.5 640.75,471.75 645.75,463.75 650.5,454.625 652.625,449.5 656.25,438.375 657.75,432.5 658.875,426.375 659.625,420.0 659.875,413.625 659.625,407.25 658.875,401.125 657.625,395.125"/>
    <polyline points="655.625,389.625 653.0,384.625 649.75,380.375 645.75,377.0 641.375,374.5 636.375,373.125 630.875,372.625 625.125,373.375 619.125,375.0 612.875,377.625 606.75,381.125 600.625,385.25 594.625,389.875 588.875,395.0 578.25,406.0 568.75,417.25 560.5,428.125 550.375,442.75 542.5,455.0"/>
    <polyline points="540.25,458.625 529.625,475.375 524.375,483.125 517.375,492.25 514.125,495.875 511.125,498.625"/>
    <polyline points="510.5,499.25 506.625,502.125 503.0,504.125 498.75,505.625 494.875,506.375"/>
    <polyline points="494.25,506.5 484.625,506.75 472.875,505.75"/>
    <polyline points="471.75,505.625 459.875,504.125 429.5,499.375"/>
    <polyline points="427.0,498.875 369.375,489.625 345.625,486.5 331.125,485.25"/>
    <polyline points="326.75,485.125 319.375,485.625 316.875,486.5 315.375,487.75 315.375,489.5 317.125,492.125 320.75,495.375 326.375,499.625 334.125,504.625 343.75,510.5 367.625,524.25 441.625,565.625 466.5,578.625 478.5,583.875 487.75,586.625"/>
    <polyline points="491.625,587.375 498.125,587.625 501.0,587.25 503.625,586.75 508.375,585.0 512.625,582.875 532.75,569.375 538.125,566.375 543.5,563.875"/>
    <polyline points="545.375,563.125 551.125,561.125 557.0,559.625 567.5,558.0 576.5,557.5 583.75,557.625 594.125,558.25 602.5,559.25"/>
    <polyline points="605.375,559.625 620.875,562.375 638.25,566.625 653.375,571.625 665.5,576.75 673.75,581.125 682.25,586.75 690.625,594.0 694.625,598.5 698.5,603.75"/>
    <polyline points="702.25,609.875 705.625,617.125 708.5,625.875 710.75,636.375 712.125,649.25 712.125,664.75 710.375,683.875 706.25,707.375 698.75,736.0 686.5,770.625 668.0,811.875 641.5,858.75 605.25,909.0 558.75,956.5 503.625,992.25 445.0,1006.0 390.25,991.0 345.875,948.875 314.875,888.375 296.25,821.25 286.625,756.875 282.5,700.25 281.625,653.5 282.375,616.375 284.25,587.875 287.25,566.875"/>
    <polyline points="291.625,552.125 297.75,542.375 305.875,537.125 316.375,535.375 329.125,536.625 343.625,540.125 359.375,545.5 375.75,552.125 392.125,559.25 407.625,566.625 422.0,573.875 465.0,596.375 472.25,600.0 483.75,605.125 488.375,606.625 492.25,607.5 495.625,608.0 498.625,608.0 503.625,607.0 507.75,604.875"/>
    <polyline points="509.625,603.625 514.875,599.0 527.625,586.25 535.875,579.75 541.0,576.625 544.625,574.875 548.25,573.375 552.0,572.25"/>
    <polyline points="553.875,571.625 559.75,570.5 566.0,569.875 572.375,569.875 581.5,570.875 588.75,572.375 596.25,574.75 604.0,578.0 609.375,580.875 612.0,582.625"/>
    <polyline points="614.625,584.5 620.0,588.875 625.25,594.25 630.25,601.0 632.5,605.0 634.75,609.5 638.375,620.25 639.75,626.75 640.75,634.0 641.25,642.25 641.125,651.625 640.125,662.375 638.25,674.375 635.0,688.0 630.375,703.25 624.0,720.0 615.375,738.5 604.375,758.125 590.75,778.5 574.125,798.5 554.75,816.875 533.0,832.0"/>
    <polyline points="509.75,842.0 486.0,845.375 463.25,841.0 442.5,829.125 425.0,810.375 411.0,786.75 400.5,760.0 393.375,732.375 388.75,705.125 386.125,679.5 385.0,656.25 385.0,635.5 385.5,617.5 386.625,601.875 387.875,588.625 389.25,577.375 390.75,568.0 394.0,553.625 395.5,548.25 397.125,543.875 400.375,537.375 402.0,535.0 405.25,531.75"/>
    <polyline points="406.875,530.5 411.625,528.375 413.25,528.0 430.25,526.125 434.125,524.75 435.5,523.625"/>
    <polyline points="435.875,523.25 436.625,521.5 436.625,520.5 435.875,518.625 435.125,517.625 433.625,516.125 431.5,514.625 424.75,511.375"/>
    <polyline points="423.5,511.0 419.75,509.625 413.875,508.0 404.0,505.875 393.25,504.375 386.5,504.0 383.625,504.125"/>
    <polyline points="382.25,504.25 380.0,504.75 378.5,505.5 377.875,506.75 378.0,507.375 378.25,508.25 379.75,510.25 384.25,514.0 388.625,516.875 396.875,521.5 409.625,527.5 419.25,531.25"/>
    <polyline points="422.375,532.25 428.25,534.0 436.125,535.625 442.75,536.125 446.5,535.875 449.75,535.375 454.875,533.375 457.75,531.5 459.125,530.125 461.0,527.125"/>
    <polyline points="461.375,526.375 461.875,524.125 461.75,522.0 460.875,519.375 459.625,517.5 456.375,514.5 452.875,512.375 449.625,510.875"/>
    <polyline points="448.375,510.375 440.125,507.5 425.375,503.75 411.375,500.875 397.5,498.5"/>
    <polyline points="394.5,498.0 375.125,495.25 358.5,494.0 350.375,494.375 346.75,495.625 345.875,496.5 345.5,497.75 346.0,499.25 347.375,501.125 349.75,503.375 357.125,509.125 368.25,516.125"/>
    <polyline points="374.875,520.0 397.25,532.25 419.875,543.625 439.5,552.375 450.25,556.25 455.0,557.625 463.375,559.375 467.0,559.75 473.5,559.875 478.875,559.0 483.625,557.625 491.5,553.75"/>
    <polyline points="493.25,552.625 502.125,545.75 511.5,537.625 517.75,532.875 522.5,529.875"/>
    <polyline points="523.5,529.25 529.25,526.5 535.125,524.5 542.5,522.75 549.5,521.625"/>
    <polyline points="550.75,521.5 574.625,518.625 586.125,516.625 592.5,515.125"/>
    <polyline points="594.75,514.5 604.375,511.5 612.125,508.25 617.625,505.5 623.375,502.125 629.375,498.0 632.5,495.625 638.75,490.0 642.0,486.75 648.5,479.125 654.875,470.0 658.125,464.75 661.125,459.0 664.125,452.625 666.875,445.875"/>
    <polyline points="669.25,438.625 671.5,430.75 673.25,422.625 674.5,414.0 675.25,405.125 675.25,396.125 674.375,387.25 672.625,378.75 670.0,370.75 666.25,363.625 661.625,357.75 655.875,353.125 649.25,350.125 642.0,348.875 634.0,349.25 625.75,351.375 617.25,355.0 608.75,359.875 600.5,365.875 592.375,372.75 584.875,380.125 571.125,395.625 565.0,403.375 554.5,418.0"/>
    <polyline points="549.875,424.875 542.0,437.125 525.625,464.125 518.25,475.5 513.75,481.625 509.75,486.375 503.75,492.0 501.5,493.625"/>
    <polyline points="500.375,494.375 497.125,496.375 493.875,497.875 488.375,499.75 481.5,501.0 476.5,501.5 471.25,501.625"/>
    <polyline points="469.875,501.625 462.375,501.375 452.125,500.5 438.0,498.75 420.375,496.125"/>
    <polyline points="417.5,495.625 373.875,488.625 338.0,483.375 315.75,481.25 310.875,481.125 306.625,481.375"/>
    <polyline points="303.5,482.125 301.625,483.375 301.5,485.375 303.625,488.25 308.25,492.25 315.625,497.375 325.875,503.75 402.125,547.125 480.125,593.25 486.125,596.375 495.625,600.625 502.75,602.5 508.375,602.875"/>
    <polyline points="510.75,602.5 516.875,600.25 522.125,596.875 531.875,589.375 536.75,586.0 541.875,583.125 547.0,580.875 550.625,579.625 554.375,578.75"/>
    <polyline points="556.25,578.375 564.0,577.625 570.0,577.875 574.25,578.375 580.75,579.875 585.125,581.375 592.0,584.5 598.75,589.0 605.5,595.0 609.75,600.125"/>
    <polyline points="611.75,603.125 613.75,606.5 617.25,614.375 619.875,624.125 620.875,629.75 621.625,643.125 621.25,651.0 620.25,659.625 618.5,669.25 615.875,679.875 612.25,691.375 607.375,703.875 601.125,717.25 593.25,731.25 583.875,745.625 572.625,759.75 559.625,773.0 545.125,784.75 529.375,793.875 512.875,799.5 496.25,801.125 480.25,798.0 465.375,790.375"/>
    <polyline points="452.25,778.375 441.25,763.125 432.375,745.25 425.625,726.0 420.875,706.25 417.625,686.75 415.75,668.25 414.875,650.875 414.75,635.125 416.0,608.125 417.125,596.75 419.5,578.25 422.125,564.125 426.625,545.375 431.125,530.875"/>
    <polyline points="431.625,529.375 432.625,525.625 433.0,522.75 432.875,521.125 432.25,519.125 430.5,516.75 428.625,515.125 422.375,511.875"/>
    <polyline points="421.25,511.5 412.5,508.75 405.125,507.125 394.25,505.625 388.625,505.5 386.25,505.75"/>
    <polyline points="385.25,505.875 383.0,506.875 382.375,507.875 382.625,509.125 384.625,511.75 390.625,516.25 394.875,518.75 405.0,523.875 410.5,526.25 418.75,529.25"/>
    <polyline points="421.375,530.125 426.375,531.5 433.125,532.75 437.125,533.125 442.25,533.0 447.625,531.75 451.375,529.75 453.25,527.875 454.625,525.125"/>
    <polyline points="454.75,524.5 454.875,522.5 454.625,521.125 453.75,519.125 452.375,517.25 450.5,515.5 447.125,513.25 438.875,509.625"/>
    <polyline points="437.5,509.125 429.5,506.625 415.5,503.25 398.0,500.0 380.75,497.625"/>
    <polyline points="377.75,497.25 366.375,496.5 359.125,496.875 355.625,497.75 354.625,498.5 354.0,499.5 354.0,500.625 354.625,502.125 358.0,505.75 360.875,508.125 368.625,513.5 391.0,526.375 410.125,536.125"/>
    <polyline points="416.375,539.0 433.5,546.375 443.375,549.75 447.75,551.0 455.5,552.625 462.25,553.25 465.125,553.25 470.5,552.625 477.0,550.75 480.75,549.0 484.0,547.0 488.25,543.875 490.625,541.75"/>
    <polyline points="491.875,540.625 498.5,533.875 509.0,522.25"/>
    <polyline points="509.375,521.875 514.0,517.875 517.75,516.0"/>
    <polyline points="518.125,515.875 522.0,514.875 527.125,514.625"/>
    <line x1="527.5" x2="543.125" y1="514.625" y2="514.75"/>
    <polyline points="543.875,514.75 557.0,514.75 573.625,513.5"/>
    <polyline points="575.25,513.25 580.25,512.5 591.75,510.0 600.375,507.25 607.375,504.375 617.375,499.0 622.75,495.375 631.0,488.625"/>
    <polyline points="633.875,485.875 639.625,479.625 645.25,472.125 648.0,467.875 653.375,458.25 658.25,447.125 660.375,441.0 663.625,427.75 664.75,420.75 665.375,413.5 665.5,406.25 665.0,399.0 663.875,392.0 662.0,385.375 659.25,379.375 655.875,374.125 651.625,369.875 646.75,366.625 641.25,364.75 635.125,364.0 628.625,364.5"/>
    <polyline points="621.75,366.375 614.75,369.25 607.75,373.125 600.875,377.875 587.75,389.25 581.625,395.375 575.875,401.75 561.0,420.5 549.375,437.375 523.125,478.375"/>
    <polyline points="521.75,480.375 516.875,486.875 512.625,491.625 508.75,495.25 505.25,498.0 501.0,500.5 497.75,501.875"/>
    <polyline points="496.875,502.25 492.75,503.5 485.625,504.5 476.375,504.625 472.875,504.375"/>
    <polyline points="471.625,504.25 454.25,502.5 427.375,498.375"/>
    <polyline points="424.875,498.0 359.75,487.75 344.625,485.75 324.75,484.125"/>
    <polyline points="320.375,484.125 316.625,484.375 313.625,485.0 311.75,486.125 311.375,487.875 312.75,490.375 316.125,493.625 321.625,497.875 329.5,503.0 364.5,523.5 452.625,573.25 468.75,581.75 480.875,587.375 485.875,589.25 494.0,591.25"/>
    <polyline points="497.5,591.75 503.375,591.5 508.25,590.25 512.625,588.25 516.625,586.0 529.25,577.125 534.625,573.75 538.125,571.75 547.25,567.625"/>
    <polyline points="549.25,567.0 559.0,564.5 567.375,563.5 576.375,563.375 583.625,563.875 591.125,564.875 601.875,567.125 607.5,568.75"/>
    <polyline points="610.375,569.625 613.375,570.625 622.5,574.5 631.875,579.625 635.125,581.75 641.5,586.75 647.75,592.875 653.75,600.875 656.5,605.75 659.125,611.125 661.375,617.5 663.375,624.75 664.75,633.125 665.625,642.875 665.625,654.25 664.625,667.5 662.25,682.875 658.125,700.625 651.75,721.25"/>
    <polyline points="642.625,744.625 630.0,770.75 613.375,799.0 592.125,828.25 566.0,856.125 535.75,879.875 502.375,895.75 468.375,900.375 436.125,892.0 408.25,871.0 386.125,839.875 370.125,802.625 359.5,763.125 353.125,724.75 349.875,689.5 348.75,658.375 348.875,631.625 349.75,609.375 351.25,591.0 353.0,576.125 355.0,564.375 357.375,555.125 360.0,548.0 362.875,542.75 366.125,539.0 369.875,536.375"/>
    <polyline points="373.875,534.875 378.125,534.125 382.75,534.125 387.625,534.5 392.625,535.375 403.0,537.75 418.25,542.0 431.875,545.375 439.875,547.0 446.875,547.875 453.0,548.0 458.25,547.625 462.875,546.625 468.5,544.625"/>
    <polyline points="470.125,543.75 473.125,542.0 476.75,539.125 481.375,534.25 482.875,532.375 485.5,528.0 487.5,522.375"/>
    <polyline points="487.5,521.75 487.5,519.0 486.5,516.25 485.25,514.75 483.5,513.375 480.125,511.625"/>
    <polyline points="479.5,511.375 475.0,509.75 464.75,507.125 452.25,504.625"/>
    <polyline points="450.625,504.25 418.625,498.5 386.375,493.25"/>
    <polyline points="382.5,492.625 361.5,489.625 348.0,488.125 339.125,487.5 331.25,487.375 325.25,488.25 323.5,489.25 322.75,490.75 323.375,492.625 325.5,495.25 329.25,498.625 334.875,502.625 361.125,518.625 384.0,531.5"/>
    <polyline points="395.875,538.0 428.875,556.125 447.0,565.625 461.625,572.5 467.75,575.0 478.0,578.5 482.375,579.5 489.75,580.25 492.875,580.125 498.5,579.125 501.0,578.375 507.75,575.25 517.25,568.875"/>
    <polyline points="519.125,567.625 531.25,559.5 539.875,555.0 545.25,552.75 552.625,550.375 558.5,549.0 564.5,548.0"/>
    <polyline points="566.625,547.625 580.125,546.25 619.875,544.125 630.5,543.0 638.125,541.75"/>
    <polyline points="642.125,541.0 650.5,539.0 659.5,536.125 669.25,532.0 674.375,529.25 679.75,526.0 691.125,517.5 697.125,512.0 703.375,505.375 710.0,497.5 716.75,488.0 723.75,476.625 730.875,463.25 737.875,447.25 744.625,428.375 750.875,406.375 756.0,381.25 759.25,353.125 759.875,322.875 756.75,291.75 748.875,262.0 735.5,236.625"/>
    <polyline points="716.5,218.5 692.625,210.0 665.5,212.125 637.25,224.125 609.875,243.75 585.0,268.25 563.5,294.625 545.75,320.875 531.5,345.5 520.5,367.625 512.25,387.0 506.375,403.625 502.5,417.625 500.0,429.375 498.875,439.125 498.625,447.25 499.125,453.875 500.25,459.375 503.375,467.5 507.375,472.875 511.125,476.375 514.625,478.75"/>
    <polyline points="516.125,479.625 520.625,482.375 521.125,483.125 521.0,484.0 520.0,485.25 517.5,487.25 509.5,492.25"/>
    <polyline points="508.625,492.875 503.75,495.5 495.875,498.875 489.75,500.625 483.125,501.75"/>
    <polyline points="482.0,501.875 476.0,502.25 465.125,502.0 444.25,499.875"/>
    <polyline points="442.125,499.625 425.625,497.25 359.625,486.75"/>
    <polyline points="354.5,486.0 332.875,483.125 316.875,481.875 312.25,481.875 308.25,482.25 305.375,483.0 303.75,484.375 304.0,486.5 306.375,489.5 311.25,493.5 318.75,498.625 341.5,512.25 403.0,547.125 454.5,577.25"/>
    <polyline points="463.875,582.75 478.875,591.125 489.875,596.5 498.125,599.25 504.5,600.125 507.25,600.125 511.875,599.125 516.0,597.25 519.625,595.125 531.5,586.375 536.5,583.125"/>
    <polyline points="538.25,582.125 543.5,579.375 550.75,576.625 556.375,575.25 562.25,574.5 568.375,574.375 577.0,575.25 588.5,578.25"/>
    <polyline points="590.875,579.25 598.0,582.625 602.875,585.75 607.75,589.375 612.5,594.0 614.75,596.75 619.25,603.0 623.125,610.875 624.875,615.375 627.625,626.375 628.5,632.75 629.0,640.0 628.875,648.125 628.125,657.125 626.625,667.25 624.25,678.5 620.625,691.0 615.75,704.625"/>
    <polyline points="609.375,719.5 601.125,735.25 590.875,751.625 578.625,768.0 564.125,783.75 547.75,797.625 529.875,808.75 510.875,815.75 491.75,817.625 473.25,814.0 456.375,804.625 441.75,790.25 429.625,771.875 420.125,750.75 413.25,728.375 408.5,705.875 405.5,684.125 404.0,663.625 403.5,645.0 403.625,628.25 404.375,613.375 406.5,589.0 407.875,579.125 410.625,563.5"/>
    <polyline points="411.875,557.375 414.375,547.625 417.75,537.75 421.25,530.0 425.625,522.875 426.5,520.375 426.375,519.125"/>
    <polyline points="426.375,518.625 424.625,516.375 422.0,514.5 415.625,511.875 409.625,510.25"/>
    <polyline points="408.625,510.0 401.0,508.75 394.5,508.75 391.875,509.875 391.625,511.0 392.625,512.625"/>
    <polyline points="393.25,513.25 396.875,516.125 402.375,519.25 411.0,523.0 416.375,524.875 423.125,526.625 430.375,527.375"/>
    <polyline points="431.625,527.375 434.875,527.0 437.5,526.25 439.375,525.125 440.25,524.25 441.0,522.875 441.125,520.75 440.5,519.125 438.75,517.0"/>
    <polyline points="438.25,516.5 436.125,514.875 433.5,513.375 425.375,509.875 414.375,506.75 405.125,504.75"/>
    <polyline points="403.125,504.5 394.875,503.125 384.625,502.125 375.875,502.375 373.5,503.125 372.625,503.625 371.75,504.875 372.25,506.75 374.125,509.125 377.625,512.0"/>
    <polyline points="380.0,513.75 388.875,519.25 403.875,527.0 415.75,532.25 427.0,536.375 436.875,539.0 445.125,540.125 451.875,540.0 457.375,538.875"/>
    <polyline points="458.875,538.375 464.0,535.75 466.875,533.375 469.0,530.875 471.375,526.0 471.75,522.25 471.125,519.625"/>
    <polyline points="470.875,519.0 468.25,515.625 464.0,512.625 458.25,510.0 449.25,507.125"/>
    <polyline points="447.75,506.75 437.5,504.25 424.875,501.625 406.5,498.25 387.125,495.125"/>
    <polyline points="383.625,494.625 364.625,492.125 356.875,491.375 345.875,490.875 339.875,491.25 337.5,491.875 335.875,492.625 335.0,493.875 335.125,495.375 336.375,497.375 338.75,499.875 342.375,503.0 347.375,506.5 360.875,515.0 387.5,530.125"/>
    <polyline points="397.0,535.25 415.625,545.125 439.875,557.125 453.0,562.75 463.875,566.375 468.5,567.625 476.5,568.875 479.875,569.0 488.75,567.875 493.625,566.25 497.875,564.125 501.875,561.875 507.125,558.125"/>
    <polyline points="508.875,556.875 519.625,548.875 528.375,543.25 534.0,540.25 538.375,538.375 545.875,535.875"/>
    <polyline points="547.5,535.375 553.875,533.75 562.5,532.125 580.375,529.5 597.125,526.625"/>
    <polyline points="599.75,526.0 608.125,524.0 617.125,521.125 623.5,518.625 630.375,515.5 637.5,511.5 645.0,506.375 649.0,503.25 657.125,495.875 665.625,486.375 669.875,480.75 674.25,474.25 682.75,459.0 686.875,449.875 690.625,439.875"/>
    <polyline points="694.125,428.875 697.125,416.75 699.375,403.875 700.75,390.125 701.0,376.0 699.875,361.75 697.25,348.0 692.625,335.25 686.25,324.25 677.875,315.625 667.875,310.0 656.25,307.625 643.75,308.625 630.625,312.875 617.375,319.875 604.375,329.125 592.125,340.0 580.875,351.875 570.5,364.0 561.25,376.25 553.125,387.875 546.0,399.0 534.375,418.75 525.75,434.875"/>
    <polyline points="522.25,441.75 510.0,466.0 502.25,479.0 497.125,485.125 493.5,488.25 487.375,491.75 483.5,493.125"/>
    <polyline points="482.25,493.625 475.5,495.125 463.125,496.125 450.625,495.875 440.25,495.0"/>
    <polyline points="438.0,494.75 428.375,493.625 402.0,489.75 349.25,480.625"/>
    <polyline points="343.375,479.5 308.875,473.625 276.25,468.875 268.5,468.125 261.875,468.0 257.0,468.625 255.125,470.375 257.375,473.875 264.875,479.5 278.625,487.75 351.875,527.875 381.0,544.5 408.75,561.25 433.625,577.25 454.75,592.125 472.0,605.5 485.625,617.375"/>
    <polyline points="496.25,627.5 504.125,636.25 510.0,643.625 514.0,649.875 516.625,654.875 518.25,659.0 519.0,662.125 519.125,664.5 518.75,666.125 518.0,667.0 517.0,667.25 515.75,666.875 513.25,664.625 510.75,660.5 508.75,655.0 507.25,648.625 506.375,641.5 506.25,634.125 506.625,626.75"/>
    <polyline points="507.125,623.125 509.125,612.75 512.0,603.375 514.375,597.625 518.25,590.125 521.125,585.625 527.125,578.125 532.0,573.5 540.5,567.625"/>
    <polyline points="542.375,566.625 549.625,563.5 555.5,561.75 561.5,560.5 567.875,559.75 579.375,559.375 586.75,559.75 597.25,560.875"/>
  </g>
</svg>
