<?xml version="1.0" encoding="utf-8" ?>
<svg xmlns="http://www.w3.org/2000/svg" xmlns:cc="http://creativecommons.org/ns" xmlns:dc="http://purl.org/dc/elements/1.1/" xmlns:ev="http://www.w3.org/2001/xml-events" xmlns:inkscape="http://www.inkscape.org/namespaces/inkscape" xmlns:rdf="http://www.w3.org/1999/02/22-rdf-syntax-ns" xmlns:sodipodi="http://sodipodi.sourceforge.net/DTD/sodipodi-0.dtd" xmlns:xlink="http://www.w3.org/1999/xlink" baseProfile="tiny" height="27.09333333cm" version="1.2" viewBox="0 0 1024.0 1024.0" width="27.09333333cm">
  <metadata>
    <rdf:RDF>
      <cc:Work>
        <dc:format>image/svg+xml</dc:format>
        <dc:source>vpype read './original_svgs/Strange Attractors #108.svg' linemerge linesimplify write './Strange Attractors #108.svg'
</dc:source>
        <dc:date>2024-08-05T01:35:27.100168</dc:date>
      </cc:Work>
    </rdf:RDF>
  </metadata>
  <defs/>
  <g fill="none" id="layer1" inkscape:groupmode="layer" inkscape:label="1" stroke="black" style="display:inline">
    <polyline points="611.875,542.25 614.736,525.1935 618.9035,505.7834 624.5386,483.3806 631.6283,458.0208 640.4541,428.7943 651.0604,395.5833 662.8374,360.288 676.15,321.7772 687.4975,289.9631 698.5585,260.2522 709.3552,232.6417 718.1073,211.6906 726.0995,194.4178 733.0744,181.3724 735.9144,176.9398 738.3587,173.8684 740.196,172.3263 741.8353,171.9856 742.7259,172.7136 743.2362,173.9573 743.5951,178.1614 742.9979,184.8116 741.4501,193.4333 738.9738,203.8841 735.7111,215.5171 731.7639,227.9725 727.3955,240.4767 717.0606,266.8713 705.3194,293.4359 693.0486,318.2899 679.1512,343.6302 666.5133,364.8043 653.4872,385.0306 639.9302,404.5327 625.4449,423.8938 611.9738,440.7555 596.9888,458.4965 551.8576,508.9792 540.4063,522.1693 528.357,537.088 519.3804,549.684 513.4651,559.2077 507.6894,569.6481 503.1408,578.9803 498.5798,589.5983 490.516,612.1936 479.8054,646.9814 471.8112,670.9119 463.3346,692.4873 458.1663,703.5146 453.0795,713.3228 447.3115,723.1856 441.1913,732.261 434.5508,740.7272 428.0779,747.7387 421.6097,753.4803 415.0092,758.1116 408.6685,761.4316 401.9574,763.7382 395.5044,764.8274 389.4397,764.7903 383.5819,763.7241 377.5684,761.5434 371.8827,758.4377 366.1014,754.1233 360.5594,748.8553 355.0018,742.435 349.4356,734.8341 344.5223,727.0254 339.6334,717.9542 334.9138,707.8553 330.232,696.3978 325.6262,683.5441 321.7183,671.0955 318.2259,658.1513 314.9291,643.8442 312.0478,629.0131 309.6033,613.8177 307.6395,598.5335 306.301,584.1063 305.4718,569.7323 305.1562,555.5656 305.3585,541.7605 306.083,528.471 307.273,516.4159 309.0476,504.471 311.3314,493.2796 314.0905,482.9179 317.4091,473.1527 321.0235,464.7312 325.1707,457.1059 329.2642,451.0866 333.9034,445.596 338.8165,440.9881 343.9492,437.2589 349.4666,434.302 355.2407,432.1809 361.5337,430.8188 367.926,430.3117 374.7303,430.6345 381.4194,431.7456 388.9528,433.8045 396.4149,436.6016 403.7164,440.0388 411.0962,444.2194 419.1035,449.5371 426.7364,455.3396 433.6704,461.2961 440.532,467.9185 447.773,475.6346 454.1611,483.1862 459.5305,490.2989 465.6613,499.3978 470.8019,507.8442 475.1446,515.9086 480.0151,526.1562 483.9675,535.5155 487.4158,545.1575 490.4642,555.1148 492.625,563.75 494.9789,575.6229 496.4252,585.2712 497.6158,596.4716 498.1836,606.3346 498.3813,617.906 497.908,632.4061 497.3256,641.0006 495.8036,655.1543 494.0458,666.0946 491.9199,676.9856 488.3955,691.7728 485.0831,703.2169 481.5653,713.851 476.9668,726.1502 472.585,736.5141 467.3428,747.5796 462.3256,757.1094 455.61,768.4743 449.5575,777.7106 443.5434,785.8214 437.245,793.348 431.2308,799.6266 424.9827,805.2484 419.1388,809.6632 412.9533,813.4403 406.7674,816.3347 400.2858,818.464 394.4021,819.5415 388.2983,819.73 382.3523,819.0088 376.6007,817.4682 370.6777,815.0229 365.0414,811.8342 359.3788,807.6744 353.9198,802.7378 348.1578,796.5143 342.3655,789.1733 336.5568,780.6733 331.2964,771.8967 326.0725,762.0068 321.1022,751.4285 316.2573,739.915 311.5646,727.4955 307.0507,714.199 302.8397,700.391 299.0661,686.5627 295.4627,671.7371 292.1514,656.3527 289.1592,640.5198 286.5132,624.3485 284.2899,608.3413 282.4876,592.6128 281.0851,576.9616 280.1143,561.7568 279.5338,546.346 279.3782,531.2241 279.6386,516.8564 280.3322,502.5776 281.4269,489.2079 282.8685,476.9766 284.725,465.3683 286.9862,454.4397 289.6288,444.2098 292.7514,434.3465 296.2338,425.2785 300.0495,417.0272 304.1725,409.6139 308.5706,403.0672 313.1863,397.407 318.0518,392.5078 323.441,388.1221 329.0381,384.5319 335.1304,381.5723 341.3692,379.4308 347.741,378.0677 354.7529,377.3788 362.2222,377.4298 369.7336,378.2088 377.6114,379.7343 385.4235,381.9054 393.4632,384.78 402.6334,388.7235 411.5717,393.1787 419.5628,397.6794 427.5676,402.6979 435.3094,408.0693 443.8948,414.5318 452.0167,421.1185 459.6444,427.7886 474.7134,442.5712 482.5475,451.0526 489.5622,459.3143 498.4194,470.7659 505.4099,480.4932 516.6847,498.3223 533.3276,527.7906 539.5,537.2496 543.75,541.6999 545.615,543.118 547.3634,544.007 549.5234,544.6035 551.7025,544.7436 553.7271,544.4409 555.8537,543.6944 559.8626,541.3296 564.1406,537.6256 568.5783,532.7044 573.4589,526.2783 578.3171,518.9842 583.333,510.5875 590.2558,498.1675 596.4943,486.1713 610.074,457.4689 627.1365,418.8092 675.1432,303.689 691.2959,266.6149 700.3125,247.5469 707.221,234.5049 709.686,230.5408 712.105,227.3855 713.7427,225.9559 714.5851,225.6684 715.0755,225.807 715.7107,227.328 715.5976,230.542 714.7763,235.4693 713.2312,241.8977 708.8048,256.1184 702.2955,273.43 694.7436,291.3415 686.25,309.625 677.3102,327.2204 667.1907,345.6478 658.1906,361.0365 649.2726,375.492 639.7709,390.0856 629.3414,405.3264 609.0347,433.2938 574.5906,478.3565 559.8048,498.9486 550.2826,514.1307 542.0477,529.9269 536.8443,542.6574 533.6386,553.7415 532.332,560.117 531.4023,566.6539 530.827,573.1233 530.782,578.8946 531.0374,583.8663 531.7908,588.0123 532.9102,592.0375 534.5699,595.0697 536.5163,597.1849 538.5799,598.0236 540.9709,597.9954 543.713,596.9583 547.6278,594.1734 552.082,589.5059 557.1757,582.7866 562.6916,574.4676 568.2378,565.1707 574.0543,554.4996 587.1077,527.8732 602.2868,493.8534 619.1617,453.328 639.0723,402.9126 683.0414,289.3019 694.1447,261.6928 704.3563,237.4598 716.05,211.6984 720.8888,202.0858 725.4476,193.896 729.3657,187.8483 732.4028,184.2591 733.6376,183.3124 734.765,182.9339 735.5936,183.1593 736.2309,183.9161 736.9112,186.9843 736.8105,191.561 735.9854,197.7617 734.3194,205.897 729.0428,225.1114 721.4928,247.3709 713.0039,269.0131 703.1177,291.469 692.1042,314.1338 680.4155,336.0806 668.3091,356.9726 655.641,377.3168 642.92,396.2912 629.6663,414.616 615.7181,432.7828 600.9681,450.9775 557.9675,500.9041 545.9892,515.2654 534.0958,530.7813 524.4744,545.0361 519.0016,554.502 513.2011,565.9867 509.2433,574.8578 505.6201,584.2568 502.314,594.048 498.9551,605.2773 484.8042,658.9146 479.0308,677.8563 475.0998,689.1027 469.6685,703.2261 464.7648,714.435 460.0996,724.0806 453.1788,736.5188 446.289,747.3751 439.2012,756.9042 431.954,765.123 423.9518,772.6278 416.8584,777.9164 409.2754,782.0795 401.5309,784.8422 394.8553,785.9879 388.2902,785.9168 381.4907,784.5892 374.9835,782.1262 368.8051,778.6331 362.546,773.8571 356.5042,768.0266 350.4287,760.9023 344.6404,752.8715 339.0933,743.817 333.6716,733.5249 328.5679,722.4061 323.4981,709.8107 318.8028,696.5452 314.4953,682.6771 310.5154,667.9714 306.7336,651.8029 303.463,635.4015 300.6543,618.5595 298.4269,602.0263 296.8226,586.0559 295.7372,569.7435 295.2223,554.0221 295.253,538.2861 295.8484,523.0869 296.9557,509.1949 298.6072,496.0953 300.8658,483.381 303.658,471.5681 306.9542,460.7379 310.7247,450.9717 315.0082,442.2312 319.7133,434.6778 324.8216,428.1958 330.5408,422.5257 336.5683,417.9729 343.125,414.375 349.9362,411.8732 357.298,410.333 364.7883,409.8283 372.7148,410.3171 380.9856,411.8365 390.2977,414.5885 399.4232,418.2341 407.9369,422.4759 416.4318,427.5433 426.6645,434.5957 436.037,441.8843 443.1146,448.0561 449.6732,454.4186 457.2193,462.3622 464.1404,470.3196 469.9537,477.6853 476.9029,487.3456 482.3586,495.627 486.7852,503.1308 492.4584,513.9534 497.2194,524.0905 502.0443,535.8835 505.637,546.0058 511.1196,564.9157 514.7175,580.0851 521.0351,610.2737 524.2382,620.2958 527.1286,625.594 528.5312,627.1094 530.3286,628.3566 532.0217,628.8675 534.0338,628.7612 536.0087,628.1415 537.9758,627.0411 542.1599,623.4775 547.0933,617.7276 551.7889,611.1257 557.7922,601.4363 562.9745,592.1139 570.7275,576.913 583.7721,548.8976 599.1156,513.1738 617.705,466.654 636.4768,417.4185 683.2029,292.6044 698.7474,252.359 710.3029,223.8231 722.932,194.959 728.3703,183.6318 733.128,174.5895 737.6099,167.1204 741.454,161.8758 744.5752,158.9506 745.8382,158.3875 746.8886,158.4399 747.7642,159.189 748.4313,160.8087 748.8825,166.4341 748.1739,174.5948 746.4128,184.7064 743.71,196.2597 740.026,209.4103 735.411,224.0343 730.2309,238.9504 719.2472,267.121 706.828,294.9483 692.5518,323.4111 676.9502,351.355 664.1752,372.1848 650.3699,392.9046 635.8263,413.0706 620.1653,433.2255 605.6984,450.6716 589.9642,468.5877 574.0216,485.9172 544.5663,517.1421 532.9098,529.986 521.8984,543.041 513.2169,554.647 507.0,564.0 501.4979,573.1321 496.5188,582.3431 491.8802,591.9835 484.372,610.3538 470.3686,649.4811 462.5731,669.4143 454.9837,686.3263 446.3857,702.4544 441.3267,710.5452 435.9284,718.0457 430.34,724.7585 424.7947,730.4239 419.4308,735.0104 413.7639,738.8935 408.0696,741.83 402.3535,743.8262 396.8294,744.802 391.5019,744.8603 385.758,743.9844 380.7833,742.3492 375.4287,739.605 370.3324,736.0581 364.8664,731.2471 359.8914,725.8994 355.1302,719.7033 350.4653,712.5392 345.9162,704.433 341.5024,695.4107 337.6034,686.3116 333.863,676.2942 330.3615,665.5607 327.1249,654.2 324.0865,641.8961 321.5281,629.7593 319.3505,617.1674 317.5903,604.3373 316.2577,591.4056 315.3431,578.1313 314.9117,565.3925 314.9653,553.2319 315.489,541.4049 316.4737,530.0286 317.9098,519.2198 319.7882,509.0953 322.0337,500.0144 324.6746,491.7023 327.8494,483.7637 331.4043,476.6497 334.3878,471.7413 337.75,467.125 341.4384,462.9628 345.3188,459.3962 349.3624,456.4138 353.8663,453.8419 358.1567,452.0358 362.8595,450.704 367.9275,449.9388 373.1614,449.7538 378.4387,450.1322 384.09,451.1272 389.6841,452.694 395.0226,454.7162 400.7995,457.367 406.7977,460.6134 412.6117,464.2733 418.1781,468.3069 424.6454,473.653 430.548,479.0778 440.3201,489.5651 450.1427,502.5116 457.9443,514.9286 462.9741,524.2312 466.7808,532.097 469.3574,538.2529 472.3356,546.5859 476.7145,561.7101 479.9836,577.9015 481.5888,591.5763 482.3679,607.2258 481.9193,624.0366 479.9801,642.1875 477.1211,658.3263 473.5926,672.8634 468.14,690.1509 461.5781,706.8125 454.487,721.6744 446.4752,735.3911 437.8146,747.6289 433.6503,752.6232 429.202,757.3639 424.6689,761.6117 420.161,765.2504 415.4509,768.4473 410.848,771.008 406.028,773.1348 401.4384,774.5946 395.217,775.6215 388.7469,775.5424 382.4301,774.3544 376.3164,772.1184 370.3289,768.7929 364.2629,764.2444 358.4421,758.7253 352.607,752.0037 347.1484,744.4414 341.7763,735.6841 336.513,725.7656 331.3814,714.7198 326.529,702.8983 322.4752,691.6104 318.4807,678.8464 314.7026,664.9572 311.0957,649.6074 307.884,633.6405 305.3413,618.633 303.2468,603.0415 301.6714,587.3269 300.6237,571.6612 300.1124,556.2168 300.1508,540.957 300.7186,527.424 301.8515,514.0306 303.5211,501.3066 305.7085,489.3508 308.3947,478.2623 311.503,468.3015 315.0876,459.2294 319.2804,450.7895 323.682,443.7119 328.4322,437.6037 333.4974,432.4613 338.9452,428.2081 344.7559,424.834 351.1315,422.2536 358.0406,420.5672 365.0596,419.8721 372.4696,420.1254 380.1874,421.3213 388.2217,423.4642 396.1263,426.4057 404.5092,430.3918 413.4326,435.5232 421.9829,441.2037 430.4054,447.6229 438.146,454.3673 446.5702,462.5496 454.0313,470.6108 460.6261,478.57 468.2257,488.6644 474.3067,497.6705 479.3675,506.3436 485.1289,517.3773 489.5753,527.0602 494.0257,538.3593 497.3859,548.2935 500.6822,559.9358 502.8232,569.081 504.968,580.9852 507.9866,605.041 508.9938,619.077 509.4436,632.4901 509.3421,660.3319 508.3637,680.6325 507.3938,691.6878 505.7341,704.9501 503.9014,715.4462 501.08,727.8705 498.0884,738.9012 494.1246,750.7417 490.2168,761.1941 485.353,772.635 478.0985,787.9637 472.9967,797.7988 467.0,808.2344 459.6037,819.9065 452.4277,830.1775 445.3359,839.2496 437.8222,847.7396 430.553,854.9696 423.2693,861.1618 416.0252,866.2412 408.4988,870.3998 401.2737,873.2896 394.0075,875.0678 387.1342,875.6989 379.8676,875.2612 372.9954,873.7498 366.2481,871.1581 359.6521,867.528 352.9078,862.6632 345.6867,856.1298 338.5784,848.3268 331.8029,839.4887 325.0139,829.1656 318.4226,817.6683 311.8814,804.7264 305.5944,790.7305 299.4128,775.3331 293.6585,759.3454 288.249,742.5431 283.0844,724.6588 278.2045,705.8128 273.6494,686.1251 269.5362,666.1145 265.8117,645.5231 262.5598,624.7788 259.8422,604.2586 257.6443,584.0103 255.9003,563.4045 254.6943,543.3644 254.007,523.6436 253.8542,504.7505 254.2346,486.4374 255.1532,469.0146 256.5984,452.6019 258.5636,437.0657 261.0326,422.4462 264.0784,408.4178 267.52,395.78 271.5316,383.873 276.0067,373.106 280.8412,363.6739 284.9406,357.0377 289.5322,350.7461 294.36,345.1847 299.6875,340.077 305.2267,335.7221 310.9514,332.0888 316.8349,329.1461 323.1707,326.7602 329.6225,325.0687 336.7317,323.9554 344.1308,323.4963 351.9756,323.6961 359.8582,324.5305 368.1124,326.014 376.688,328.1517 385.1563,330.8048 393.857,334.0373 402.8057,337.8049 411.9259,342.0737 421.1453,346.8128 439.2205,357.3088 459.3154,370.6635 470.4501,378.7115 481.0107,386.8277 492.282,396.0459 503.2098,405.4728 519.812,420.819 548.8881,449.7206 557.667,457.7737 563.875,462.25 568.2963,464.5426 573.2016,465.8079 577.4311,465.6962 581.0786,464.6295 584.7215,462.7042 588.7188,459.6719 592.5358,455.99 596.7657,451.0544 601.0553,445.3142 610.5134,430.4635 618.0287,417.2449 630.3484,393.3805 662.8275,325.4232 671.1474,308.6649 677.5362,296.8909 679.8066,293.5916 680.8734,292.9364 681.0773,293.7896 680.8949,295.1303 679.6916,299.1456 676.7864,306.7828 672.875,315.875 664.3487,333.4511 653.2805,354.1167 644.1575,370.0455 634.3292,386.3719 598.7921,441.5384 591.735,453.0813 586.2999,462.6614 581.9841,471.652 579.8448,477.8966 579.411,479.861 579.427,481.567 579.875,482.625 580.8791,482.8877 582.875,481.75 585.622,479.0368 592.9115,469.2971 599.5727,458.5543 609.0477,441.1896 618.1293,423.3447 627.6795,403.5106 657.9128,337.4287 671.6012,308.2578 680.7851,290.5027 683.9082,285.6119 684.8565,284.536 685.4664,284.2663 685.7234,284.8325 685.6244,286.1955 684.2352,291.2499 680.6567,300.7404 676.6934,310.1521 666.8406,330.7333 655.5672,351.8579 646.0526,368.3971 636.014,384.9495 593.0398,450.5966 586.82,460.7104 580.974,471.128 576.1843,481.4523 574.2306,487.5821 573.72,490.4605 573.7665,492.5529 574.481,493.8383 575.8061,493.9919 577.8326,492.9824 580.5055,490.5961 583.5,487.125 587.2672,482.0307 596.1579,467.9884 604.4288,453.1005 615.288,431.7936 627.5988,405.943 668.6852,314.7153 675.6415,299.8091 681.5487,287.9479 686.0114,279.7842 689.2233,274.9546 690.273,273.9324 690.9004,273.8538 691.1883,274.6767 691.0447,276.4287 689.5438,282.1285 686.1796,291.5607 681.8786,301.9925 670.2783,326.4862 657.2772,350.9778 646.8092,369.0192 635.3943,387.54 623.8686,405.2261 586.9209,460.0849 581.287,469.3169 574.4001,481.6226 569.3644,492.6103 567.9188,497.0644 566.8377,501.7186 566.6245,504.5579 567.0226,506.8013 568.0144,507.8993 569.9713,508.0394 572.3572,506.8663 575.0699,504.5537 578.6054,500.5702 582.478,495.3946 592.375,479.8227 602.7515,460.7381 613.8221,438.498 624.6496,415.3756 666.9102,319.3379 680.5897,289.5463 686.8263,276.8827 692.2093,266.9972 695.4185,262.1641 696.5995,260.9818 697.5741,260.7454 697.9251,261.8979 697.7061,263.9434 695.6183,272.3143 692.3453,281.9254 687.5415,293.8836 681.7548,306.8685 675.1009,320.6818 667.6164,335.2522 659.7608,349.6317 647.9621,369.6707 634.4171,391.1962 619.9764,412.7554 583.7222,464.8102 573.1895,481.3206 566.873,492.7387 563.1825,500.5116 560.2079,508.0454 558.5794,513.4955 557.625,519.0 557.5858,522.8861 558.4558,525.799 559.268,526.771 560.3097,527.3245 562.587,527.3164 565.6907,525.6382 569.4572,522.2434 573.5487,517.4916 578.0939,511.1928 586.2922,498.2994 599.1692,474.533 611.7538,448.4743 625.3445,418.4476 640.5502,383.4671 669.9774,314.1309 685.6481,278.9155 693.6859,262.1833 699.7482,250.8408 704.049,244.581 705.491,243.344 706.447,243.313 706.8857,244.6516 706.7266,247.3391 704.6811,256.4638 700.8309,268.297 695.239,282.6931 688.5175,298.1998 680.7734,314.6367 672.7462,330.3577 663.7487,346.7806 649.8978,370.2579 635.9215,392.2067 616.3582,420.5038 586.8851,460.9413 571.5745,482.5002 562.6066,496.6688 554.7785,511.1891 550.7729,520.0754 547.797,528.4093 545.625,537.5 544.7602,544.4891 545.0278,550.2963 545.662,552.9232 546.6467,555.2469 547.694,556.4008 549.3104,557.2901 550.8948,557.5948 552.5938,557.2656 556.4434,555.1411 560.6818,551.3895 564.9369,546.4455 570.1126,539.334 575.4793,530.9628 581.5195,520.5496 593.7331,496.8327 606.3497,470.1224 622.5588,433.0699 641.1038,388.3893 674.8613,305.5435 694.4384,259.8533 704.1048,239.1793 710.9331,226.319 713.9939,221.4841 716.5097,218.2827 718.2947,216.8583 719.0254,216.7353 719.5704,217.0415 720.1888,218.8616 720.1532,222.2322 719.4336,227.0811 718.0,233.3365 713.1026,249.4266 706.1706,268.2743 698.2411,287.2356 689.1943,306.7997 679.4904,326.0224 669.1672,344.8233 659.6532,360.99 649.8206,376.7833 639.3745,392.6777 628.5171,408.3404 609.6141,433.8832 568.8555,486.1574 555.168,505.025 549.176,514.065 544.1719,522.3248 539.6053,530.7734 535.6489,539.0869 532.6825,546.1534 529.9769,553.787 527.478,562.0949 525.5926,569.9491 524.2964,577.0071 523.417,584.3246 522.7642,592.8116 522.625,601.5 522.8902,607.424 523.7709,615.0835 524.875,620.625 526.1273,624.1937 528.0203,627.511 530.1191,629.4043 532.4935,630.1272 535.6946,629.4408 539.4148,627.0816 543.6435,622.8874 548.7149,616.4342 554.0338,608.4285 559.6628,598.8728 565.6929,587.5913 572.8196,573.3361 579.7531,558.5303 596.8317,519.0661 615.4628,472.7123 634.0596,423.9942 686.7345,283.383 700.6338,247.5819 711.9152,220.0144 725.5192,189.4694 731.1792,178.0649 735.9751,169.4718 740.4367,162.7779 744.1131,158.7458 745.6219,157.7629 746.8923,157.4874 747.9105,157.9335 748.6098,158.9869 749.3622,163.3494 749.0574,170.3499 747.7562,179.3124 745.4508,190.2661 742.4551,201.8274 738.2622,215.8957 733.4528,230.4564 728.1824,245.1022 717.2603,272.3365 705.1208,298.9182 691.1232,326.372 675.9178,353.3073 663.0629,374.1045 649.1245,394.9205 634.7233,414.8164 619.599,434.2025 605.3823,451.2594 590.1299,468.5434 544.4411,517.2666 533.3276,529.4822 521.4616,543.4726 512.9249,554.8046 506.8724,563.8501 501.5202,572.6725 496.3457,582.2061 491.399,592.3622 484.0585,610.1814 470.4682,647.858 462.695,667.85 454.2161,686.7052 446.386,701.2594 441.3303,709.3166 435.928,716.8285 430.5587,723.3776 425.0405,729.0991 419.4648,733.866 413.8244,737.7243 407.8782,740.7874 402.3063,742.7484 396.8692,743.6874 391.2454,743.6806 385.4484,742.6869 380.3047,740.9406 375.1942,738.2478 370.0373,734.5649 364.8507,729.8837 359.8743,724.4551 355.1172,718.2285 350.6483,711.3345 346.1048,703.2058 341.8894,694.55 337.8638,685.143 334.3315,675.6811 330.9121,665.1961 327.6506,653.7177 324.5971,641.2934 321.9117,628.53 319.8383,616.6778 318.096,604.2155 316.7365,591.261 315.8344,578.335 315.4112,565.9551 315.4575,553.9208 315.9961,542.1945 317.0056,530.9033 318.4626,520.1514 320.4155,509.7067 322.6919,500.4523 325.3112,492.2158 328.4807,484.3435 332.0324,477.2994 335.1544,472.2267 338.4698,467.7368 341.9534,463.8465 345.8896,460.2941 350.0211,457.3384 354.3077,454.9639 359.0511,453.039 363.8772,451.7509 368.8323,451.0686 374.0144,450.952 379.2405,451.3878 384.8428,452.4315 390.0313,453.9107 395.5,456.0 401.62,458.8861 407.6084,462.2003 413.4074,465.9259 418.9595,470.0466 424.8038,475.0343 430.9503,480.8028 436.231,486.2677 440.9131,491.6437 450.5842,504.6394 458.2999,517.1984 466.5332,533.8539 469.233,540.4409 471.9106,548.0778 476.1977,562.9974 479.2788,578.781 480.7809,591.5889 481.5213,608.0689 480.9564,624.8851 479.0344,641.9782 476.288,657.4584 472.4676,673.2697 467.2805,689.4379 460.9992,705.4262 454.1762,719.6464 446.1446,733.4368 437.5317,745.6111 429.0405,755.2735 424.3841,759.6619 419.908,763.3247 415.4452,766.4001 411.1297,768.837 406.6426,770.832 401.9775,772.3474 395.9464,773.4554 389.7812,773.524 383.4072,772.4629 377.2068,770.3376 371.6068,767.4482 365.9536,763.4323 360.2679,758.2563 354.5499,751.8863 348.7994,744.2888 343.6414,736.3321 338.6412,727.3589 333.7913,717.3566 328.9633,705.9757 324.4937,693.9854 320.3217,681.264 316.5817,668.1461 312.9949,653.6099 309.796,638.4715 306.9504,622.4834 304.642,606.6759 302.9969,591.9458 301.8528,577.1918 301.2059,562.5604 301.055,547.8253 301.4198,533.5326 302.2797,520.1303 303.6333,507.8746 305.4939,496.2682 307.9203,485.02 310.8235,474.6202 314.2891,464.8479 318.0845,456.3605 321.645,449.9035 325.7072,443.8496 330.0425,438.5843 334.8839,433.8636 339.9654,429.983 345.17,426.9639 350.8582,424.5831 356.7022,422.9753 363.0242,422.0643 369.4016,421.9227 375.7721,422.4971 382.7077,423.8699 389.889,425.9631 397.3418,428.8162 404.6224,432.273 411.9739,436.4673 419.9787,441.7707 427.9622,447.7117 435.5131,454.0288 442.3561,460.4723 450.2691,468.713 457.2509,476.7719 462.8998,484.0717 469.8804,494.1051 475.01,502.148 479.3717,509.7959 484.8756,520.7237 489.019,530.014 492.9242,540.401 496.4172,550.9821 498.9262,560.135 501.2088,570.3261 504.536,590.3225 506.2411,610.4233 506.8106,624.0764 506.9062,636.5961 506.2092,656.7499 503.7989,681.318 500.9949,697.695 498.493,709.2678 495.2509,721.4214 489.2165,740.1718 485.2566,750.4598 480.9169,760.5841 474.7484,773.573 469.5455,783.6348 464.0833,793.1911 458.2563,802.5073 452.194,811.3534 446.1241,819.434 440.2474,826.4553 434.3622,832.6909 428.1719,838.4609 421.9888,843.4644 416.0616,847.5158 410.124,850.8386 403.9459,853.5273 398.0843,855.3019 393.805,856.0988 389.7791,856.4611 385.6546,856.4412 381.4315,856.0099 377.1097,855.1381 373.0952,853.9388 365.25,850.4597 357.3644,845.3471 349.5806,838.6575 341.9492,830.4448 334.5131,820.7842 327.4192,809.9057 320.3274,797.1838 313.495,783.0569 306.8088,767.2877 300.4591,750.3155 294.3344,731.8245 288.9244,713.3391 283.8362,693.5205 278.9362,671.6077 274.6284,649.2297 270.8813,626.25 267.7494,602.8889 265.3935,580.4581 263.7188,558.0468 262.7523,535.9458 262.5062,514.7502 262.9551,494.631 264.1011,475.391 265.9345,457.3987 268.4293,440.8737 271.6838,425.1725 275.5981,410.8091 280.1319,397.8214 285.3907,385.9543 289.4744,378.4509 293.8288,371.7356 298.5893,365.6306 303.4974,360.4089 308.9321,355.6599 314.5809,351.6789 320.7414,348.2717 327.0691,345.6408 333.5275,343.7452 340.4266,342.4994 347.5651,341.9628 355.3591,342.0988 363.575,342.9565 371.7949,344.4728 380.3398,346.6813 389.1437,349.5746 397.4153,352.8233 406.6522,356.9815 415.9909,361.6828 425.027,366.7017 442.6536,377.8237 462.3914,392.172 472.39,400.1349 481.591,407.9832 492.5799,418.0187 502.3351,427.5039 521.4969,448.0241 544.7271,475.0627 552.769,483.3025 557.4343,486.908 562.4064,489.3175 566.2893,490.0933 570.751,489.517 574.3536,488.0591 578.2475,485.4201 582.3072,481.7018 586.6188,476.8943 590.9237,471.3522 595.2538,465.0306 605.5508,447.7146 615.529,428.9503 624.7805,410.0856 639.2046,379.1696 665.5413,320.9028 677.6315,295.2766 682.9494,284.8624 687.3596,277.0374 690.2451,272.8728 691.0709,272.0813 691.8245,271.8398 692.1425,272.5413 691.9206,274.645 689.8681,282.2067 686.875,290.5 681.7833,302.8681 672.023,323.697 657.8162,350.4714 648.0098,367.3223 636.9844,385.1266 617.9722,414.2037 589.1313,456.6879 579.5712,471.9821 573.1339,483.5027 568.2745,494.4466 566.5373,499.444 565.6573,503.3003 565.3628,506.9288 565.8472,509.3194 567.022,510.769 568.8651,510.7302 571.6427,509.2128 575.0339,506.0635 579.4284,500.7446 584.1067,494.279 593.2015,479.5177 604.2186,458.884 612.5045,442.1573 627.458,409.964 658.4455,339.0552 681.235,288.1181 687.5178,275.2228 692.5856,265.8448 696.5119,259.836 697.8422,258.451 698.689,258.2024 699.1603,259.2399 699.0779,261.1825 697.4269,268.2804 693.8003,279.0584 688.8828,291.4675 682.769,305.3108 675.8898,319.727 668.5752,334.039 660.8709,348.1581 649.2118,368.0961 636.4589,388.4223 618.6825,414.8538 582.3809,466.7354 572.1642,482.815 564.9902,495.8635 561.1898,503.9172 559.0198,509.381 556.8795,516.3249 556.026,521.2354 555.9574,526.4903 556.8506,529.4542 557.6288,530.5352 558.5534,531.1362 560.0835,531.3642 561.6122,531.0451 564.7788,529.1367 568.685,525.54 572.7971,520.6745 577.1726,514.6217 582.3887,506.5485 587.591,497.7379 599.4392,475.3872 610.8923,451.5623 626.6945,416.2786 640.238,384.9359 672.2853,308.9508 688.4453,272.7203 695.4019,258.2748 701.3801,247.2971 705.6887,241.1047 707.1292,239.9196 708.1323,239.8812 708.6987,241.3565 708.5894,243.8598 706.5497,253.0035 702.3988,265.9215 696.7565,280.6357 689.9682,296.4881 682.3712,312.7211 674.4901,328.2415 665.5017,344.6421 650.7877,369.4695 635.5782,393.1861 614.5886,423.4623 582.6752,466.8199 571.1496,483.1755 560.4575,499.6633 552.4703,514.5138 548.2812,523.875 545.2528,532.4631 543.0972,541.516 542.1652,549.2406 542.4694,556.4136 543.1088,559.0675 544.2106,561.6406 545.4942,563.2061 547.4062,564.2773 548.9648,564.4531 551.0874,563.8818 554.9597,561.6121 559.127,557.719 563.9795,551.9175 569.2537,544.4889 574.4308,536.289 579.9126,526.6645 592.9657,501.0926 606.1064,472.8494 622.9811,434.0192 640.136,392.2582 677.0137,300.7828 695.8871,256.3646 705.5233,235.695 713.3931,220.9028 716.5921,215.8445 719.2141,212.5 721.0513,211.041 721.8289,210.9111 722.4305,211.2573 723.0888,213.3373 722.9923,217.1994 722.1071,222.7625 720.6606,228.9607 715.3792,246.6274 708.2652,266.2392 700.4425,285.0144 691.176,305.0326 681.0599,325.0024 670.1037,344.8965 660.2296,361.6707 650.0332,378.0073 640.0017,393.1607 628.9611,408.9072 605.834,439.7305 566.2242,489.8139 551.1175,510.3694 544.6895,520.0977 539.1095,529.4118 534.4907,538.2048 529.989,547.973 526.9544,555.8569 524.1566,564.6685 521.809,573.643 519.7699,583.2313 517.4245,601.0349 516.5411,612.9382 516.2185,624.2559 516.4288,636.7555 517.1411,646.0279 518.1949,654.3917 519.7289,661.1378 521.5,665.5 523.4548,667.7382 524.6859,668.5404 525.731,668.789 527.303,668.627 528.8976,668.0299 530.9942,666.6352 533.5762,664.2967 538.895,657.78 545.0,648.4531 552.0336,635.9429 559.6239,621.0764 567.2638,604.8682 575.8003,585.3995 586.1207,560.6841 603.1247,517.816 623.7066,463.1171 682.2441,300.1558 698.3939,256.1221 714.3439,214.594 727.2252,183.4225 733.6574,169.0101 739.6822,156.4049 745.0634,146.1089 749.875,138.0 753.9913,132.3648 757.4284,129.1469 758.8741,128.4434 760.1283,128.3428 761.1837,128.8447 762.0331,129.9487 762.8326,132.3564 763.2076,135.3397 763.0132,143.6774 761.4765,155.5586 758.6842,169.8078 754.8602,185.411 750.1944,201.7316 744.7653,218.5409 738.4559,236.2538 731.8448,253.3673 724.6509,270.6873 717.0982,287.662 709.1038,304.4563 700.9799,320.4044 692.1062,336.7727 682.848,352.8775 673.2548,368.6288 658.3387,391.4144 643.0217,412.831 626.7334,433.7024 609.3961,454.0862 593.4456,471.4448 575.9577,489.2964 560.8876,503.8932 527.2202,535.5907 514.6983,547.8446 504.5789,558.4733 496.0841,568.3687 490.3959,575.7298 485.1019,583.2288 479.8775,591.2858 475.0723,599.3956 468.3319,612.0216 453.4318,643.105 446.3322,657.2132 440.3434,667.9464 434.2022,677.5529 426.483,687.598 422.6198,691.7279 418.5,695.5 414.4344,698.6218 410.5845,701.0249 406.261,703.1099 402.0337,704.5589 397.6123,705.3399 393.4896,705.3697 388.8592,704.6538 384.3641,703.2442 380.3052,701.2466 376.2564,698.5316 372.1989,695.0804 368.2914,691.0627 364.6735,686.589 360.9607,681.1456 357.3773,675.0158 353.9316,668.2409 350.8206,661.2565 347.9761,653.9022 342.9108,637.7574 338.7965,619.8366 335.9703,600.959 334.4839,581.4737 334.4919,563.2808 335.0454,554.5287 335.9176,546.4936 337.125,538.875 338.6586,531.781 340.6353,524.7636 342.9384,518.3029 345.5307,512.4485 348.375,507.25 353.2848,500.4611 355.9643,497.6171 359.0531,494.9306 361.9678,492.9025 364.9635,491.2806 368.4266,489.9184 371.7682,489.0166 375.1623,488.4775 378.9739,488.2954 386.25,489.125 394.3465,491.6527 402.1848,495.5733 410.3134,501.255 418.0155,508.1357 425.1936,516.185 432.2274,525.7266 437.4867,534.5532 443.3318,546.6478 446.9987,556.2371 450.737,568.721 452.7512,578.3873 454.6317,592.3701 455.2228,603.3517 455.1269,614.8222 454.1602,625.9936 452.4099,637.7454 449.9083,648.9312 446.7493,659.7948 442.7189,670.6424 438.089,680.7167 432.9907,689.7963 427.3678,697.8505 420.9849,705.1229 414.7248,710.6394 408.0359,714.903 401.6718,717.3492 397.2145,718.1842 392.363,718.3365 387.8438,717.6764 383.6343,716.3336 379.0021,714.0739 374.2408,710.9463 369.9626,707.3186 365.7303,702.869 361.5522,697.6138 357.4363,691.5689 353.7128,685.272 350.0926,678.125 346.6549,670.2695 343.413,661.7657 340.2534,652.2658 337.5954,643.0479 335.1237,632.9601 332.9732,622.4904 331.1054,611.3768 329.6694,600.5138 328.7042,590.4525 328.0971,580.0166 328.0541,559.9525 328.606,550.1479 329.5038,541.2213 330.7872,532.758 332.5196,524.3939 334.6163,516.6088 337.0441,509.4693 339.7462,503.105 342.9065,497.174 348.2225,489.6297 351.0957,486.4824 354.3391,483.5547 357.5549,481.2235 361.0062,479.2639 364.561,477.749 368.1973,476.6629 372.265,475.9449 376.3755,475.7059 380.4325,475.9111 384.8048,476.5596 389.1665,477.6266 393.4927,479.0925 397.7587,480.9373 402.2246,483.3032 411.4175,489.3649 419.6729,496.3311 428.8131,506.0666 436.4725,515.9386 443.4181,526.9701 448.9871,537.7966 454.4471,551.371 458.1967,563.6488 461.0292,576.4375 462.5874,586.9941 463.567,601.8075 463.4582,616.2581 462.5543,628.3271 460.4862,641.5537 457.625,654.625 454.105,666.7355 449.3426,679.6667 443.9964,691.3967 437.7841,702.3773 431.0932,712.0403 424.0053,720.2077 417.2016,726.2673 413.5125,728.8501 409.7902,730.9948 405.9226,732.7386 402.3083,733.9302 397.0803,734.9271 391.9329,735.0888 386.6974,734.3276 381.7234,732.7096 376.6649,730.164 371.5322,726.6439 366.6265,722.3137 361.9716,717.2778 357.3516,711.3359 352.7957,704.4807 348.6676,697.277 344.8295,689.4875 341.0239,680.6091 337.414,671.0033 333.7522,659.9208 330.7114,649.4013 327.9069,637.9277 325.4724,626.0027 323.4137,613.7524 321.6909,600.912 320.543,589.5575 319.8224,578.2226 319.5231,567.0085 319.6426,555.644 320.1838,544.6323 321.1542,533.9143 322.505,524.3104 324.2774,515.238 326.5435,506.3989 329.2011,498.2642 332.2154,490.8984 335.5973,484.2982 338.4624,479.7227 341.7559,475.3253 345.2338,471.4832 348.8638,468.2022 352.614,465.4882 356.6845,463.2229 360.9858,461.4536 365.4112,460.2083 369.917,459.48 374.46,459.2613 378.9967,459.545 384.1027,460.4226 389.1447,461.7413 394.5082,463.6215 399.7887,465.9606 404.9427,468.7336 410.4438,472.2271 416.0106,476.2378 425.8731,484.7173 435.7883,495.4347 444.9701,507.4721 453.0695,520.407 459.5082,533.0608 465.702,548.6805 467.9569,555.769 469.909,563.1709 472.8614,577.6947 474.7183,593.2296 475.2494,604.6189 474.8341,621.6929 473.2679,637.1767 471.1748,649.8686 467.4481,665.6712 462.6373,681.3121 457.1378,695.4762 450.3877,709.7958 443.0866,722.3881 435.6647,732.959 427.3091,742.4612 423.2003,746.3653 419.1561,749.6997 414.8183,752.7281 410.8136,755.0165 406.6729,756.8748 402.3843,758.2731 396.4151,759.3702 390.4129,759.4911 384.8526,758.6202 379.1798,756.7179 373.3557,753.6964 367.8035,749.806 362.3909,744.9423 356.9886,738.9718 351.625,731.873 346.5674,724.025 341.9668,715.7752 337.4548,706.4403 332.9814,695.8278 328.8617,684.6855 324.8486,672.337 321.3352,660.0011 318.12,646.8605 315.2823,633.1939 312.7866,618.7545 310.7891,604.4424 309.277,590.3728 308.327,577.316 307.8214,563.5924 307.8199,550.1288 308.3095,537.0598 309.3116,524.1706 310.6902,512.8576 312.5913,501.9718 314.9686,491.8113 317.9072,482.0874 321.1565,473.5781 324.9318,465.6893 328.3252,459.9516 331.9667,454.8646 336.0995,450.1291 340.4539,446.0948 344.9941,442.7499 349.6843,440.0823 354.8936,437.939 360.0208,436.5504 365.6156,435.7397 371.275,435.581 377.3364,436.0747 383.3744,437.1941 389.8275,439.0266 396.1577,441.4153 402.7088,444.4867 409.4202,448.2592 415.9006,452.5067 423.026,457.7788 429.4995,463.1358 435.897,469.0521 441.9936,475.368 448.4084,482.6779 454.0665,489.7807 459.2349,496.9848 464.7124,505.4941 469.5022,513.7149 473.5659,521.5459 477.2656,529.6426 480.4272,537.4717 483.1177,545.1889 486.3894,556.2859 488.7096,565.4658 491.7112,582.6328 493.381,600.323 493.7054,618.6327 492.8472,635.4309 491.1159,650.6109 487.586,670.4931 482.4857,690.4934 476.485,708.7769 469.3255,726.4672 461.0796,743.2888 451.4906,759.7078 446.8265,766.6221 441.9982,773.0548 436.9963,779.0384 431.794,784.6204 426.8601,789.2988 421.6318,793.5939 416.375,797.25 411.0862,800.2684 405.9176,802.5487 400.8981,804.1209 393.7648,805.2704 386.6931,805.1633 379.7519,803.7826 372.9649,801.1663 366.014,797.155 359.1949,791.8768 352.9346,785.7407 346.653,778.23 340.3826,769.3177 334.3696,759.3572 328.4266,748.0404 322.8458,735.8534 317.7094,722.9768 312.6939,708.6537 307.9673,693.2934 303.6697,677.4059 299.5308,659.8804 296.0211,642.5495 292.9151,624.3126 290.3816,606.1082 288.3931,587.7595 287.014,569.8366 286.2431,552.4037 286.0914,535.3536 286.5575,518.82 287.6315,502.9402 289.3032,487.8513 291.5627,473.6907 294.3215,460.9118 297.5288,449.5526 301.3877,438.8446 305.9112,428.9209 310.1743,421.3798 314.7605,414.7365 319.6387,408.9977 324.8671,404.0851 330.6907,399.8097 336.7471,396.4535 343.3401,393.8553 350.0834,392.1721 357.2825,391.3273 364.5534,391.3614 372.6525,392.2523 381.1288,394.0283 389.5315,396.5731 397.7767,399.7907 406.4717,403.9305 415.5711,408.9302 424.0143,414.1679 432.0828,419.7593 439.4311,425.4126 448.215,432.8334 456.1863,440.1283 463.8387,447.7374 471.2146,455.7533 478.6435,464.4439 485.5267,473.2073 491.5186,481.6456 498.2165,491.884 503.7574,501.2931 513.636,520.4138 529.675,557.011 534.1258,565.2628 537.5046,569.412 539.375,571.0 541.1172,571.9893 542.9968,572.5436 545.353,572.6613 547.2693,572.2886 549.2219,571.4496 553.5,568.5 557.7757,564.4004 562.2678,558.9952 567.0421,552.213 572.5847,543.4395 578.1381,533.7718 590.6656,509.3211 606.1589,475.8627 621.3601,440.4221 636.6927,402.947 677.7947,300.0267 690.0045,270.5066 699.8373,247.681 709.7242,226.4824 717.5223,211.9631 720.7867,207.0407 723.4464,203.9982 725.4372,202.8613 726.2305,203.0625 726.6948,203.6556 727.159,206.5156 726.8128,211.2284 725.685,217.6735 723.8775,225.2692 718.4894,243.0204 710.9078,263.6449 702.3746,284.0692 692.7499,304.8121 681.623,326.6778 669.7921,348.0349 660.1848,364.1154 649.0628,381.5587 637.6633,398.4571 626.0371,414.7559 607.0033,439.7562 562.5629,494.7067 548.3947,513.465 541.8416,523.0264 536.0681,532.2035 530.8594,541.3473 527.1943,548.7806 522.375,560.375 519.3396,568.8056 516.1702,579.514 513.8206,589.5455 511.7188,600.3555 509.4524,614.5791 501.9375,670.4453 498.8503,686.8407 494.864,703.2912 490.3531,718.9821 484.9514,734.4199 477.9199,751.3097 470.6462,766.5593 462.4004,781.4605 453.4832,795.5751 444.9982,807.0964 436.0143,817.4202 426.8974,826.0374 417.4058,833.1288 412.8424,835.8736 408.0994,838.2428 403.5211,840.0509 399.1358,841.3399 390.9427,842.6014 383.2593,842.3673 375.6448,840.6966 367.7711,837.419 360.0134,832.6176 352.6114,826.5281 345.3993,819.0324 338.139,809.8526 331.0865,799.2751 324.055,786.9814 317.534,773.8797 311.3082,759.5394 305.2933,743.7453 299.539,726.6002 294.2049,708.6023 289.2148,689.5042 284.6006,669.3216 280.5546,648.6814 277.0445,627.4377 274.1053,605.8136 271.7721,584.0319 270.08,562.3156 269.0683,541.0192 268.8068,521.4078 269.2485,502.4345 270.4042,483.8552 272.2034,466.6047 274.7023,450.0815 277.7732,435.1331 281.3486,421.862 285.6448,409.5616 290.7015,398.2351 294.7674,390.8243 299.3096,383.8797 304.1201,377.7494 309.1688,372.427 314.4256,367.906 320.0971,364.0259 325.9209,360.9417 332.2707,358.4525 339.1355,356.6342 346.1218,355.586 353.5562,355.2464 361.0206,355.6192 368.7768,356.6814 377.1908,358.5077 385.8982,361.0679 394.4823,364.2053 402.8928,367.8273 411.415,372.0154 420.6581,377.0903 429.7059,382.529 438.7073,388.4149 447.2708,394.4802 464.7558,408.3301 474.9502,417.1781 483.949,425.5966 493.7192,435.5338 503.1891,445.8037 510.323,454.1072 520.5689,466.807 541.6339,494.9481 548.8194,502.9398 553.2702,506.4393 557.7202,508.4855 561.7828,508.9126 565.9161,508.0239 569.5311,506.16 573.3708,503.154 577.5771,498.9353 581.7948,493.9031 586.2438,487.7575 591.9241,478.9543 601.7791,461.7864 613.4753,438.9048 625.506,413.2441 669.5551,313.5371 682.646,284.9184 689.0626,271.8993 694.1481,262.5762 697.8341,257.1109 699.2053,255.7896 699.9964,255.617 700.4519,256.679 700.3184,259.0625 698.4177,266.9577 694.6439,278.0102 689.3512,291.3184 683.5175,304.5396 676.6469,318.8695 668.9996,333.7546 660.9543,348.473 648.8585,369.1047 635.375,390.5 620.3524,412.8471 592.4335,452.4278 577.7027,473.8555 570.2899,485.6343 562.7927,499.4153 559.4386,506.6606 556.6973,513.7598 554.8936,520.298 554.0371,525.8013 554.1936,531.0039 555.2092,533.7472 556.375,535.0 557.3086,535.4531 558.4062,535.5312 560.0845,535.1331 563.3533,533.2581 567.4429,529.4816 571.4024,524.83 576.0834,518.3238 581.2104,510.344 586.8051,500.8106 599.5834,476.5981 610.7432,453.1686 624.467,422.6062 643.0202,379.3036 673.9592,305.4851 687.2876,275.2535 695.605,257.73 701.9809,245.7002 707.0269,237.9495 708.7482,236.2738 709.8472,236.1065 710.4823,237.5653 710.4308,240.2059 708.5112,249.3796 704.4209,262.5091 698.7477,277.5235 691.1502,295.2063 682.8974,312.8057 674.7545,328.7865 664.7408,347.0229 648.4724,374.2196 628.3547,404.5952 613.8129,425.1958 581.8241,468.1513 566.6065,489.5648 556.9675,504.867 550.0245,517.8853 545.3049,528.8103 542.035,538.7106 540.083,548.068 539.3098,557.0047 539.7427,563.9104 540.7218,567.157 541.9639,569.6337 543.5284,571.2081 545.3697,572.0723 547.0823,572.1221 549.4136,571.4094 553.0877,569.0733 557.6682,564.732 562.0109,559.5426 566.7497,552.833 572.255,543.9888 578.3789,533.2324 590.8572,508.8454 604.3706,479.5972 618.446,446.9407 640.6445,392.8104 679.6298,295.3837 690.2381,269.8527 699.4973,248.4906 709.0602,228.0112 717.1696,213.1042 720.2024,208.5566 722.7585,205.616 724.667,204.507 725.517,204.728 726.0,205.4062 726.4215,208.0872 726.087,212.5142 724.9087,218.9376 723.0192,226.6842 717.5013,244.7636 710.1064,264.8408 701.3618,285.6282 691.6159,306.5275 681.193,326.9205 669.2527,348.4311 659.3137,365.1303 649.0145,381.378 637.7915,397.9913 626.073,414.42 614.7624,429.5078 601.3847,446.6111 562.1466,495.042 549.0066,512.6232 542.4689,522.2723 536.6922,531.6159 531.7548,540.5559 527.4089,549.5456 523.3519,559.4491 519.5346,570.4519 516.6945,580.6214 514.4081,591.0919 512.2278,603.3674 510.2351,618.2075 505.8597,658.4552 504.538,668.3127 501.9041,685.1983 498.3452,702.8659 493.3627,720.8975 488.79,734.8459 481.8297,752.6059 473.1718,771.0959 464.2948,787.3676 455.5744,801.2576 446.0674,814.2983 436.4432,825.4819 427.1562,834.4375 418.0532,841.3353 413.1407,844.3046 408.459,846.6691 403.6224,848.6171 398.9814,849.9964 394.9337,850.8012 390.7687,851.2403 382.5767,850.9636 374.6887,849.2109 366.8675,845.9294 359.1478,841.1348 351.2278,834.5655 343.6323,826.6506 336.3312,817.3645 329.2241,806.6145 322.1669,794.1589 315.3837,780.368 308.7274,764.9122 302.6436,748.874 296.7674,731.2706 291.3031,712.7209 286.1927,693.0589 281.3207,671.6369 276.9468,649.3404 273.3251,627.5663 270.3131,605.4097 267.9048,582.6846 266.2089,560.4074 265.2058,538.4366 264.9206,517.3783 265.3352,497.5926 266.4138,479.3724 268.2061,461.689 270.7384,444.7118 273.8699,429.3277 277.7259,414.9042 282.1043,402.2091 287.1702,390.7653 291.2535,383.3124 295.622,376.6234 300.2496,370.6783 305.3717,365.2022 310.7213,360.5052 316.5498,356.3865 322.56,353.0742 328.8387,350.4993 335.7089,348.5633 342.7156,347.3932 350.1981,346.9244 357.7484,347.1705 365.7022,348.1234 373.634,349.7099 382.2069,352.0697 391.2367,355.1597 399.7566,358.5859 408.0957,362.4026 416.5525,366.7298 425.0573,371.54 434.5458,377.4336 444.0734,383.8061 462.199,397.2475 471.7273,405.1127 483.2465,415.21 492.2698,423.6246 500.1692,431.5577 516.2539,449.1224 541.0519,479.2404 547.9297,487.0869 550.9613,490.1389 555.905,494.0525 559.912,496.1343 564.3756,496.9259 566.5457,496.8009 568.9491,496.25 572.4926,494.6759 576.3401,491.9759 580.4445,488.0787 585.1198,482.6844 589.6008,476.6992 594.4474,469.4235 604.9702,451.4137 614.8611,432.4011 627.3879,406.4691 666.4391,319.6785 679.7705,291.0163 685.4364,279.6679 689.491,272.362 692.883,267.286 694.0,266.125 694.7528,265.923 695.1136,266.7099 695.0486,268.4651 693.5184,274.7643 689.7923,285.6803 685.1657,297.2195 679.6869,309.3691 673.1041,322.9344 658.4048,350.6068 647.2725,369.654 633.8619,390.9782 621.4242,409.8262 584.5117,463.6113 576.7715,475.9873 570.0053,487.9804 564.2514,500.8873 562.4926,506.193 561.5684,510.4258 561.32,514.613 561.7473,517.6842 562.3085,518.6072 563.375,519.375 564.2476,519.5629 565.6579,519.3324 568.3359,517.8426 571.7858,514.6881 575.7454,510.1701 579.7846,504.7626 589.4216,489.4406 599.39,471.1357 612.8204,443.7003 627.0436,412.754 665.8668,322.9193 682.9278,284.5588 690.1955,269.5565 696.0759,258.5228 700.2427,252.168 701.6949,250.6905 702.7065,250.4357 703.1966,251.4775 703.1323,253.7693 701.2497,261.9508 697.2593,273.8194 691.746,287.8693 685.5449,302.1023 678.447,317.0678 670.5613,332.5096 662.2803,347.667 649.7982,368.8428 635.9328,390.6145 617.8895,417.2259 587.873,459.0394 575.63,476.7537 567.3681,489.7685 560.0824,503.1121 556.0411,511.9007 553.1873,519.394 551.1518,526.8188 550.2304,533.1189 550.2777,538.3632 550.8084,540.5889 551.625,542.375 552.4246,543.3893 553.751,544.1526 555.6504,544.3646 557.1574,544.0093 560.7179,541.8839 564.5183,538.3738 568.8263,533.3641 573.4391,527.0096 578.5083,519.1635 584.0166,509.7954 596.0306,486.9495 609.6117,458.4352 624.4758,424.9529 636.6508,396.2637 670.4797,314.5444 690.7438,267.8458 699.1847,250.0801 706.1313,237.0714 710.894,230.0794 712.6908,228.4375 713.8954,228.3144 714.4606,229.8413 714.3372,233.1291 713.5,238.0156 712.0604,243.9123 707.662,257.9322 701.3407,274.7 693.8242,292.397 685.533,310.1551 676.4388,328.0228 666.4911,346.1237 651.1011,371.8392 634.4975,397.2853 613.2393,427.2232 577.2428,474.5917 567.615,487.8493 553.893,508.5364 548.7737,517.3649 544.8875,524.9984 539.3059,538.421 536.0694,548.7119 533.8708,559.1703 532.8888,570.6895 533.0987,576.1513 533.603,580.2376 534.75,584.75 536.0196,587.5044 537.875,589.75 539.5179,590.7152 541.8949,590.9948 544.5624,590.2709 548.7541,587.5236 553.1708,583.1343 557.6617,577.5365 563.5309,568.9639 568.8398,560.282 574.3826,550.1936 587.6234,523.5976 603.0842,489.4482 620.7129,447.3355 639.6753,399.7914 681.8571,291.7597 693.7666,262.2641 702.9901,240.4958 714.308,215.7949 719.2192,206.0993 723.108,199.1772 726.7641,193.5801 729.7617,190.0466 732.019,188.6647 732.8992,188.8427 733.488,189.5908 734.0644,192.9624 733.7613,198.251 732.6068,205.4257 730.7123,213.7995 724.6285,234.4321 716.2908,257.7394 707.104,280.0828 696.6768,302.6355 684.7105,326.1482 671.9668,349.0124 662.4073,364.8846 652.133,380.9469 641.2596,396.998 629.9215,412.8376 616.9154,430.0386 602.9742,447.5258 557.4401,501.3959 544.6772,517.2119 537.2099,527.3477 530.5022,537.3181 524.2551,547.5661 519.4244,556.5683 515.6519,564.6751 511.9985,573.6288 508.664,582.9415 505.5239,592.8794 499.9592,614.2774 489.3902,659.2896 484.7614,676.3862 480.1733,690.8632 475.9941,702.7654 470.4324,716.3618 464.9826,728.1986 458.8412,740.1357 452.3657,751.1072 445.1252,761.8181 438.005,770.9076 430.7007,778.8035 423.2793,785.4061 415.5047,790.9049 408.1343,794.7513 401.052,797.1414 393.9395,798.278 387.0452,798.1817 380.2643,796.8362 373.6459,794.2843 366.8639,790.3634 360.2732,785.2441 354.009,779.0521 347.7256,771.4776 341.4529,762.4965 335.4424,752.4816 329.7061,741.5273 324.3641,729.7439 319.2472,716.78 314.2598,702.3517 309.5641,686.8737 305.2931,670.8648 301.5178,654.6272 298.2218,637.8505 295.3517,620.2319 293.0085,602.3197 291.2165,584.304 290.0,566.375 289.4305,549.8677 289.4465,533.3544 290.0625,517.3906 291.235,502.4784 293.0155,488.008 295.3106,474.8169 298.0835,462.9894 301.4379,451.9975 305.447,441.666 309.9411,432.4559 314.3184,425.2083 318.9986,418.9071 323.992,413.5123 329.5285,408.7816 335.6443,404.7849 341.9915,401.7608 348.5214,399.6572 355.539,398.38 362.8049,397.9962 370.5925,398.4884 378.75,399.8906 386.8475,402.0879 395.5422,405.2576 404.2802,409.2081 413.3902,414.0614 422.1484,419.4448 429.8711,424.8107 437.3594,430.6165 445.4342,437.4771 453.0102,444.4903 460.311,451.8378 467.5749,459.7893 474.415,467.8949 480.6014,475.8989 487.9485,486.5057 494.7641,497.2352 499.5845,505.6899 505.3094,516.9553 509.06,525.2401 515.6335,541.2916 523.3231,563.1068 527.6966,574.5713 530.9984,581.1505 534.1483,585.6285 536.047,587.3032 537.8965,588.4164 539.7344,588.9219 541.6822,588.9513 543.7312,588.4975 545.8995,587.4804 550.017,584.4461 554.7344,579.6318 559.1669,574.0338 564.0474,566.7983 569.5137,557.8398 574.8024,548.2798 581.6818,535.0143 588.3692,521.2848 604.2034,486.2078 620.8953,446.4294 635.0265,411.1201 679.4178,297.417 691.8447,266.7537 702.2568,242.173 713.791,217.0579 718.6888,207.3719 722.8947,199.8141 726.4153,194.4411 729.3324,191.0685 731.5678,189.7384 732.4056,189.8523 733.0437,190.4926 733.6893,193.4961 733.4375,198.5938 732.3143,205.6209 730.3197,214.4002 724.3968,234.4675 715.8502,258.2375 706.6775,280.5144 696.4519,302.6727 684.2218,326.6618 671.261,349.9025 661.8895,365.4843 652.0761,380.8204 641.5138,396.4247 630.4434,411.8988 617.2652,429.2937 601.7654,448.7778 559.656,498.6575 545.7391,515.94 538.0919,526.2864 530.7992,537.0466 525.2583,546.1294 520.4498,555.1271 516.4576,563.7006 512.448,573.4107 509.2484,582.3314 505.9852,592.7336 501.1069,611.4936 493.7698,644.5096 489.7695,661.0938 485.242,677.898 481.0143,691.3176 476.6491,703.8218 470.9568,717.7203 465.8399,728.956 459.2162,741.9646 452.9548,752.6435 445.6018,763.5456 438.5105,772.6081 430.987,780.7994 423.6739,787.3584 416.2649,792.6243 408.8501,796.5762 401.387,799.1746 394.228,800.3731 387.2562,800.3451 380.5136,799.0904 373.5928,796.4838 366.8442,792.6181 360.1243,787.4408 353.634,781.0782 347.3415,773.5521 341.07,764.6324 335.0853,754.6792 329.3949,743.7571 324.1026,732.0814 318.8701,718.8966 313.8792,704.5826 309.1736,689.2358 304.9023,673.3705 301.0104,656.7608 297.6086,639.6726 294.6248,621.7089 292.2148,603.8149 290.3085,585.4319 289.0168,567.5227 288.3636,550.7801 288.313,534.1436 288.8747,518.032 290.0417,502.5842 291.8071,487.9391 294.0995,474.5574 296.9594,462.1783 300.3091,451.0422 304.3008,440.5805 308.7695,431.2456 313.1207,423.8798 317.7749,417.4432 322.8555,411.7926 328.069,407.2138 333.8579,403.2812 340.2119,400.0989 346.7561,397.8549 353.7835,396.4433 360.9636,395.9356 368.7597,396.2713 376.9572,397.4956 385.1164,399.5265 393.5296,402.4171 401.7093,405.9704 411.2482,410.8674 420.4278,416.312 427.958,421.3543 435.4212,426.9179 443.9199,433.9102 452.1863,441.3366 459.076,448.092 465.5717,455.0363 473.6516,464.3196 480.4764,472.822 486.5931,481.3137 494.5802,493.6082 500.1182,503.0377 505.5927,513.4634 509.9211,522.562 514.5506,533.243 526.4128,564.2419 529.6146,571.673 531.7401,575.633 535.2426,580.4162 537.0219,581.9208 539.1875,583.1203 540.8826,583.6166 542.7562,583.6374 544.7557,583.208 547.0802,582.2241 551.25,579.1574 555.8886,574.451 560.5763,568.4661 565.8324,560.715 571.42,551.5704 576.9973,541.5669 590.1599,515.2051 604.6392,483.3131 618.1838,451.492 636.8819,405.0666 679.7015,296.2279 691.2706,267.9389 701.663,243.614 712.4918,220.0337 721.12,203.7301 724.609,198.3689 727.4191,195.1316 729.4049,193.9617 730.1652,194.0255 730.889,194.7075 731.5325,197.6035 731.3601,201.9549 730.2991,208.7801 728.4245,217.1481 722.793,236.5031 715.0054,258.2418 705.7046,280.7885 695.0853,303.8475 684.0143,325.5883 671.4891,348.0563 662.12,363.7239 652.4406,379.0228 642.5277,393.8397 631.9189,408.863 619.3515,425.7085 605.5452,443.2488 560.4953,497.4393 547.5525,513.7404 539.7084,524.5372 532.7361,535.0077 527.1898,544.3808 522.1475,554.0978 517.8652,563.6907 513.7213,574.4976 507.8644,594.2464 503.1698,614.6751 493.6857,660.8415 489.6116,677.4858 485.8241,690.7315 480.8906,705.7481 475.812,719.177 469.3155,734.1083 463.1287,746.5469 455.9248,759.2372 448.9766,769.9277 440.8348,780.7236 432.9725,789.5436 425.3451,796.6354 417.4337,802.4631 409.2037,806.9693 401.2341,809.8916 394.0368,811.1747 386.8981,811.144 379.4314,809.7349 372.328,807.054 365.3086,803.0069 358.4559,797.6663 351.8052,791.1162 345.1074,783.0944 338.7064,773.9117 332.5542,763.5456 326.5105,751.7805 320.7794,739.0301 315.2216,724.9949 310.14,710.4371 305.4949,695.2367 301.0882,678.7639 296.898,660.7149 293.166,641.9414 289.9344,622.5992 287.4282,604.0971 285.4716,585.1523 284.1252,566.2628 283.4036,547.6259 283.3166,529.8045 283.8392,512.9514 284.923,497.7402 286.6797,482.7325 289.0436,468.6532 291.9809,455.5762 295.5619,443.2579 299.6762,432.1562 304.2985,422.3488 308.4493,415.2815 313.1504,408.7191 318.1509,403.0353 323.4086,398.2092 328.8818,394.2198 334.8146,390.9085 341.24,388.3406 347.8004,386.6277 354.8589,385.665 362.006,385.5024 369.5708,386.1196 377.4974,387.551 385.8713,389.8359 394.4193,392.8743 403.1377,396.6681 411.9463,401.1862 419.7912,405.7774 428.3256,411.3463 436.5276,417.2349 444.6019,423.5787 452.4562,430.3193 460.4541,437.7823 468.2297,445.5504 475.3496,453.2307 483.4521,462.8696 492.0858,474.0142 498.1642,482.6342 504.6138,492.7919 512.6782,506.7674 519.7472,520.4354 530.6576,542.9377 536.826,553.4023 540.6163,557.5625 542.3008,558.8385 544.0644,559.6934 545.9213,560.1528 548.25,560.25 550.1808,559.9036 552.2381,559.0868 556.25,556.5 560.5933,552.5059 565.2294,547.1201 569.9634,540.5704 575.5475,531.8124 581.3369,521.8365 593.8913,497.5399 608.5401,466.2088 625.0011,428.063 637.3587,398.3378 676.621,301.4887 695.2288,257.8248 704.9081,237.1888 712.7372,222.4416 715.6725,217.7837 718.2965,214.4718 720.2968,212.9681 721.4749,213.1742 722.0982,215.1927 721.8842,219.4582 720.8892,225.3575 719.2037,232.4599 714.4823,247.8884 706.8679,268.4047 699.0177,287.1996 690.4252,305.7503 679.8483,326.5207 668.4676,347.1806 659.1268,363.0231 649.4553,378.4712 639.1344,394.035 628.1111,409.7812 607.1826,437.7856 566.4544,489.4863 552.616,508.4308 546.7433,517.2133 541.51,525.8935 536.2384,535.5891 532.4062,543.7344 528.8753,552.5415 526.5733,559.2503 523.9792,568.5929 522.1031,576.8943 520.4474,586.9847 519.262,597.01 518.7369,604.3797 518.466,615.432 518.8245,626.1394 519.4956,633.2925 520.4428,639.2132 522.0056,645.2769 524.0215,649.502 525.3565,650.9954 526.8158,652.0611 527.858,652.4077 529.4053,652.4174 532.5798,651.1594 536.8637,647.6578 541.3566,642.5298 545.9072,635.9909 551.4707,626.8867 557.2577,616.4037 563.6644,603.7872 578.0222,572.8013 595.2396,531.759 612.5772,487.6579 635.0056,427.6727 689.1257,279.457 704.5283,239.0077 717.7178,206.0841 724.7024,189.7002 731.3053,175.2639 737.5952,162.6437 743.0694,152.8475 747.7755,145.7617 751.4102,141.799 752.8767,140.8531 754.3502,140.521 755.4016,140.891 756.3712,142.0785 757.0529,144.0715 757.4355,146.8608 757.3132,154.1231 755.9935,164.3916 753.5289,176.9056 750.0533,191.0317 745.8048,205.901 740.8122,221.4604 735.1242,237.4995 729.0294,253.2914 722.3889,269.3052 715.2641,285.3946 707.716,301.4137 699.9813,316.8761 692.1057,331.7229 683.9294,346.2638 675.2031,360.9266 661.0195,383.1361 646.2068,404.4798 630.6822,425.0795 614.4618,444.9321 598.826,462.7171 581.7451,480.9792 567.1806,495.7801 537.0467,525.5334 522.1993,540.7915 511.9542,552.3381 501.6306,565.2145 496.1704,572.7995 491.131,580.5407 486.2948,588.7023 481.5896,597.4921 473.4405,614.5937 460.3298,645.5772 453.8175,660.0391 446.6254,674.3675 439.9563,685.8017 435.4301,692.588 431.1395,698.3159 427.0,703.125 422.2525,707.8665 417.2922,712.0207 412.3824,715.3706 407.9097,717.7284 403.2188,719.4062 398.3628,720.369 393.1011,720.6049 388.6356,720.0476 384.1161,718.7117 379.5325,716.5775 374.6266,713.4455 370.1597,709.7541 365.9654,705.4659 361.5747,700.0765 357.4981,694.1846 353.5835,687.6243 349.9563,680.5512 346.5,672.7969 343.0889,664.039 339.7628,654.2595 336.9681,644.8153 334.4539,634.7886 332.1922,623.9868 330.2921,612.8819 328.7674,601.5962 327.7181,591.0845 327.06,580.6097 326.7924,570.2512 326.9274,559.7356 327.4554,549.9137 328.3343,540.8912 329.6542,531.956 331.3631,523.5137 333.5315,515.2888 336.0547,507.7551 338.77,501.2758 341.9438,495.2759 344.5469,491.2523 347.554,487.3635 350.479,484.2157 353.7833,481.2928 357.241,478.8575 360.7279,476.9376 364.3029,475.4501 368.3158,474.2956 372.3897,473.6263 376.5006,473.4223 380.5713,473.655 384.9623,474.3406 389.3509,475.4462 394.0587,477.0851 402.7568,481.3673 412.3803,487.8048 421.0959,495.2391 429.9803,504.7664 437.8693,515.0495 444.9104,526.3964 450.692,537.7749 456.2816,551.9 460.1609,564.8914 462.8145,577.6614 464.5208,590.8466 465.2433,603.6915 465.0084,617.0513 463.8685,630.3457 461.7923,643.5461 458.8046,656.5804 454.8205,669.9841 450.069,682.5555 444.9398,693.6134 437.9182,705.9265 431.456,715.2391 424.2625,723.3398 416.9203,729.7037 413.1529,732.3047 409.4377,734.404 405.5931,736.0962 401.986,737.2529 396.7565,738.2125 391.4905,738.3048 386.1037,737.4518 380.9649,735.7408 376.124,733.3073 371.1761,729.9318 366.3186,725.6562 361.4672,720.4148 356.6454,714.2076 352.0348,707.2849 347.9214,700.0744 343.962,692.0496 340.0192,682.8928 336.1266,672.5672 332.5168,661.6639 329.5513,651.2929 326.7155,639.6792 324.1627,627.242 322.0651,614.8688 320.3139,601.9538 319.1534,590.3142 318.3864,578.2909 318.0537,566.393 318.1608,554.3721 318.6959,543.105 319.5996,532.999 320.9505,523.2294 322.7926,513.6064 325.0416,504.6266 327.7723,496.0548 330.7694,488.5625 334.2531,481.6679 337.2231,476.8846 340.6272,472.3281 343.9853,468.6113 347.7485,465.2089 351.7964,462.3216 355.9189,460.0592 360.1779,458.3181 364.9051,457.0091 369.3354,456.3233 374.1654,456.1349 378.9705,456.5058 384.4545,457.4769 389.9181,458.9592 395.3192,460.9287 400.616,463.3614 405.7172,466.2 416.731,473.6661 421.8022,477.7591 426.6105,482.1269 437.6228,493.9601 442.4067,499.8874 446.8292,506.0026 455.3689,519.7962 458.8446,526.4204 461.8394,532.9271 465.4627,541.5475 468.2255,549.0349 472.5677,564.5446 475.0842,577.1428 476.8741,592.3902 477.5199,607.6598 477.1457,621.6248 475.4055,638.6623 472.8977,653.3388 468.9022,669.673 464.002,685.2249 457.8281,700.7344 451.2174,714.4513 443.8679,726.8337 435.3664,738.7374 427.3409,747.7826 423.2032,751.6341 418.9613,755.0479 414.8611,757.8349 410.5844,760.2177 406.1103,762.1617 401.8393,763.5189 395.7372,764.5462 389.8179,764.501 383.7037,763.4026 377.6905,761.3065 372.0339,758.2536 366.6119,754.2754 361.1569,749.2189 355.6825,743.0569 350.4484,736.0872 345.3909,728.1751 340.4441,719.2057 335.6416,709.2016 331.179,698.5958 326.9254,687.0908 323.1417,675.3616 319.5379,662.5658 316.0812,648.3864 313.0888,634.0494 310.4445,618.999 308.5279,605.3599 307.0362,591.1939 306.0043,576.6383 305.4747,562.23 305.4431,548.1246 305.871,535.2886 306.812,522.7703 308.255,510.8413 310.249,499.2238 312.6417,488.7541 315.5677,478.8251 318.7882,470.2311 322.6006,462.1534 326.1946,455.9699 330.0532,450.4809 334.1418,445.697 338.6687,441.4243 343.1185,438.1233 347.9215,435.3992 353.2601,433.2067 358.7416,431.7231 364.6813,430.8737 370.6485,430.7296 376.8838,431.2707 383.4384,432.502 389.9615,434.3563 396.7485,436.9319 403.3674,440.0819 410.0104,443.8652 417.3433,448.6343 424.674,454.0532 431.3447,459.6115 438.1139,465.92 445.1383,473.1383 451.3769,480.2425 456.8667,487.1978 462.8498,495.5852 468.0406,503.6242 472.483,511.2954 476.9913,520.0469 481.1035,529.0705 484.6816,538.1207 488.2188,548.375 490.5929,556.5778 492.7841,565.9346 495.6812,581.5207 497.5358,599.7519 498.0408,617.3735 497.2808,638.3673 495.3055,656.3595 492.3361,673.3487 488.0445,691.5948 483.8886,705.7527 480.8663,714.6468 473.2896,733.8755 469.0942,742.9459 464.2577,752.4436 459.6361,760.8229 454.7302,768.8958 449.3245,776.9688 443.8552,784.4044 438.5925,790.8241 433.4336,796.416 427.8373,801.7575 422.2408,806.4105 416.9912,810.1185 411.804,813.1328 406.3433,815.6105 401.085,817.3398 393.6334,818.6625 386.2394,818.619 378.544,817.1089 371.2625,814.2903 364.0282,810.061 356.9314,804.4507 350.0129,797.5226 343.307,789.3589 336.9134,780.1506 330.7422,769.6934 324.6914,757.8084 318.7957,744.5432 313.0896,729.9453 307.6076,714.0622 302.6698,697.8373 298.1327,680.7936 293.8209,662.1513 289.983,642.7771 286.7344,623.2574 284.0476,603.3994 282.082,584.4447 280.6961,565.1469 279.9468,546.0918 279.8399,527.8511 280.3632,510.2181 281.4955,493.7199 283.169,478.8374 285.5215,464.3942 288.5648,450.602 292.1983,437.9666 296.3811,426.5541 301.2134,416.1609 305.2703,409.1357 309.7701,402.7254 314.5655,397.1223 319.9065,392.0573 325.4911,387.837 331.5843,384.2765 337.8473,381.5883 344.4436,379.69 351.4447,378.5646 358.5534,378.2239 366.1016,378.6397 374.0411,379.8473 381.9329,381.756 390.388,384.5166 399.2491,388.0664 408.2354,392.3039 416.605,396.8268 424.6589,401.7145 432.8899,407.2665 441.4102,413.5329 449.4772,419.9676 457.333,426.756 473.0611,442.0372 480.8081,450.3877 487.7604,458.5517 497.7513,471.3214 505.0201,481.4118 514.9724,497.1605 533.0821,529.6271 536.4839,535.2617 538.9322,538.6491 543.3948,543.4793 546.791,545.593 549.2688,546.314 551.2995,546.4578 553.4375,546.1094 555.6871,545.2868 559.9846,542.6192 564.2298,538.7745 568.7945,533.4614 574.1165,526.2734 579.0188,518.784 584.6186,509.2681 596.6858,486.3959 609.6699,459.1567 626.6333,420.6116 675.4475,303.0161 691.7791,265.3716 700.5249,246.8795 707.4996,233.7989 710.2201,229.44 712.7551,226.055 714.6768,224.3494 715.8223,224.3027 716.4231,225.8699 716.338,229.2524 715.5005,234.2766 714.0258,240.3548 709.113,255.9683 702.195,274.4782 695.0733,291.32 686.8578,308.8139 677.092,328.0269 667.0054,346.4223 658.3776,361.1044 648.7165,376.6351 638.4378,392.3247 627.4933,408.2658 610.2891,431.8236 572.6671,480.9595 559.9159,498.7254 549.4082,515.2566 545.0291,523.1189 541.6629,529.9523 535.9378,544.0415 532.1118,557.6086 530.8718,563.7991 529.9532,570.4218 529.5024,582.3076 529.8353,587.1596 530.7639,592.8077 531.8331,596.1758 533.3258,599.1334 535.2021,601.1276 537.4151,602.2216 539.6421,602.3134 542.368,601.3752 546.292,598.62 550.6804,594.1705 555.7462,587.6479 561.0991,579.6161 566.4548,570.7113 571.7413,561.0872 579.1522,546.5162 586.0598,532.1104 602.3152,495.2279 622.3216,446.6131 635.3856,413.5459 682.331,291.8122 695.677,258.412 706.5585,232.3468 718.055,207.141 722.9875,197.4198 727.3709,189.648 730.9728,184.2369 734.0702,180.7639 735.3423,179.8709 736.4189,179.5433 737.2918,179.7832 737.9528,180.593 738.6059,183.9312 738.3919,189.0634 737.3695,196.2183 735.6137,204.6851 730.2441,224.1987 722.6695,246.2363 713.3752,269.799 703.1562,292.927 691.7456,316.1414 679.1171,339.6294 667.3187,359.8654 655.446,378.7015 641.5151,399.1765 626.9823,419.0878 614.2575,435.4599 600.5463,452.1563 555.8147,503.646 543.6382,518.0372 532.5325,532.3842 523.2211,546.0934 517.7113,555.2922 512.7965,564.4547 508.1516,574.3869 503.9951,584.5289 496.9135,605.7306 483.9233,652.7107 476.8188,675.7001 467.9509,699.4074 463.6208,709.1426 458.7423,718.9778 452.2711,730.7526 445.8223,741.0087 438.7864,750.6057 431.7778,758.7064 424.6218,765.5163 417.2323,771.0922 409.9707,775.1662 402.6002,777.926 395.9358,779.213 389.4062,779.2812 383.0117,778.2095 376.396,775.9245 370.5852,772.8467 364.5767,768.4707 358.8033,763.0989 353.0057,756.5216 347.2321,748.7514 341.7478,740.0955 336.3679,730.2403 331.136,719.224 326.0959,707.085 321.4376,694.2909 317.247,681.1237 313.3829,667.1336 309.7086,651.6909 306.5381,636.0227 303.8164,619.9189 301.6188,603.8075 299.988,587.9168 298.8904,572.0535 298.3384,556.3834 298.3444,541.0718 298.8999,526.6376 299.9899,513.1165 301.6408,500.2147 303.8219,488.068 306.5041,476.7638 309.7676,466.0714 313.5019,456.4663 317.6878,447.9899 322.7763,439.9126 328.3179,433.0918 334.5095,427.291 341.0418,422.8112 347.9444,419.5605 355.5897,417.3594 363.7976,416.3592 372.0966,416.5915 381.0559,418.1045 390.4438,420.8329 400.0003,424.6908 409.5789,429.6536 420.305,436.492 430.738,444.2033 440.1442,452.2175 449.2312,461.138 456.5321,469.1225 463.194,477.1742 469.8206,486.0715 475.9106,495.0926 481.2656,503.9783 486.5211,513.8391 491.2949,523.7289 494.9699,532.5184 498.9223,543.1899 501.685,552.0496 505.4764,567.027 508.4088,581.5438 511.6813,603.8333 515.7845,645.9795 517.0723,654.7148 518.5551,661.6607 520.6562,667.5781 523.244,670.811 524.6713,671.3981 526.4776,671.4477 528.1814,670.8867 530.5,669.5 534.8406,665.1903 540.0705,658.1906 546.9243,646.9532 553.8566,634.2441 561.8228,618.0053 569.5999,601.1013 587.1962,559.4513 603.3084,518.49 619.5209,475.3211 641.9828,413.3462 678.9414,309.6878 697.843,258.0142 713.8372,216.2301 727.7905,182.1923 734.3598,167.3121 740.1477,155.0977 745.5601,144.7158 750.4383,136.4854 754.7001,130.5521 758.1107,127.1702 759.5563,126.3494 760.8169,126.1296 761.8843,126.5234 762.8329,127.6465 763.5946,129.6672 764.0926,132.7593 764.0716,141.208 762.7259,152.7218 760.1468,166.4073 756.408,181.9238 751.6231,198.8669 745.951,216.6959 739.5176,235.013 733.0574,251.9119 726.1667,268.6112 718.7571,285.31 710.783,302.1175 702.2724,318.9486 693.4579,335.3427 684.2236,351.5089 674.8215,366.9935 659.4905,390.3876 643.2127,413.1059 626.4168,434.5686 608.4606,455.6142 592.1775,473.2842 574.4117,491.2812 558.2893,506.7441 526.6498,536.0895 513.9719,548.3813 502.9119,559.9614 493.7422,570.6013 483.3726,584.5348 473.7401,600.0295 464.2201,618.045 447.2339,652.6106 440.0086,665.7159 434.1397,675.0115 426.6458,684.6785 422.5651,689.0704 418.5651,692.8202 414.7117,695.8851 410.7082,698.4995 407.0237,700.3866 403.113,701.7927 398.7231,702.6776 394.1567,702.9009 390.2747,702.5341 386.133,701.4417 381.972,699.6103 377.7807,697.029 373.8904,693.9557 369.9748,690.0892 366.3636,685.7916 362.5663,680.4808 358.9153,674.5735 355.6801,668.4778 352.6163,661.7988 349.5909,654.2175 344.2141,637.6722 341.9436,628.7001 339.992,619.3767 336.9551,599.3652 335.6613,581.9939 335.7156,564.5855 337.0523,548.3591 338.2596,540.7693 339.8939,533.2346 341.8622,526.2435 344.125,519.875 346.5592,514.3737 349.4648,509.088 354.2249,502.5325 356.803,499.8129 359.6438,497.3667 362.609,495.322 365.6705,493.6669 368.8088,492.3915 372.3616,491.4078 375.597,490.9018 379.2123,490.7462 382.8724,490.9723 386.9289,491.6367 394.233,493.922 401.6259,497.7189 409.1076,502.7799 415.8221,508.5783 423.7954,517.1837 430.205,525.6593 436.0863,535.3943 440.9325,545.212 445.723,557.3851 449.0151,568.2782 451.254,578.75 452.7116,588.875 453.557,600.7134 453.5979,611.4288 452.8175,622.9037 451.3808,633.7517 449.0,645.7812 446.125,656.125 442.0288,667.6658 437.8518,677.0568 432.478,686.7529 426.4233,695.5672 420.5651,702.3119 414.625,707.5 407.9913,711.7122 404.5442,713.2628 401.3333,714.3074 396.6265,715.1573 392.3121,715.1994 387.5365,714.4266 383.0347,712.9224 378.5065,710.6435 374.2844,707.7338 370.0635,704.0474 365.8689,699.593 361.8127,694.4965 358.3125,689.317 354.7499,683.1541 351.1437,675.9533 347.5135,667.671 344.1624,659.0223 338.9583,642.245 334.3501,621.9907 332.5129,611.5122 331.1717,601.6793 329.5577,581.463 329.3132,571.2847 329.4614,561.3258 330.0164,551.9122 330.9698,542.8564 332.2994,534.2362 334.0639,525.7898 336.136,518.1676 338.3903,511.6781 341.1226,505.3991 344.1585,499.7825 349.4938,492.2919 352.5015,489.0842 355.5391,486.4219 358.7048,484.1624 362.3078,482.1422 366.0078,480.6094 369.7743,479.564 373.6898,478.9864 377.7608,478.8493 381.8751,479.1416 386.3712,479.9244 390.462,481.0434 394.8054,482.6558 403.8549,487.2004 412.4286,493.1107 421.1736,501.0351 429.0519,509.7258 435.7788,518.9891 442.7028,530.3393 448.4008,541.9812 453.0268,553.6973 456.6421,566.1845 459.221,578.3112 460.9707,591.4874 461.6029,602.091 461.3993,615.4211 460.5,626.75 458.285,642.0521 455.582,653.9433 452.1482,665.5531 447.2939,678.4687 442.0291,689.8625 436.287,699.8147 429.5,709.375 422.8272,716.9297 416.0158,722.7935 408.8102,727.2731 405.3683,728.7991 401.8213,729.9468 396.625,730.875 391.7012,730.916 386.6719,730.0781 381.8971,728.4824 376.6313,725.8502 372.3045,722.9311 367.8641,719.0817 363.1984,714.0983 358.5698,708.1977 354.2235,701.773 350.3769,695.1432 346.5171,687.438 342.6703,678.6143 338.8647,668.639 335.4507,658.4695 332.5494,648.4268 329.8583,637.5161 327.4269,625.8174 325.3697,613.8261 323.7698,602.1679 322.6543,590.9785 321.947,579.7697 321.6431,568.6618 321.7481,557.4055 322.2795,546.4451 323.1651,536.7676 324.5022,527.1383 326.323,517.6839 328.4617,509.2258 331.0755,501.1277 333.9483,494.0954 337.1901,487.7913 340.1002,483.1636 343.2011,479.0423 346.4682,475.4247 350.1251,472.1045 353.695,469.5041 357.4591,467.3687 361.3422,465.7185 365.6799,464.4478 370.0869,463.7038 374.5253,463.4601 379.2942,463.7163 384.4063,464.5141 389.4934,465.8207 394.5209,467.6075 399.4543,469.8456 404.4616,472.6034 414.7821,479.5136 423.7958,487.1954 434.0515,498.0656 442.5779,509.1311 450.579,521.9016 456.8582,534.3232 462.7954,549.1826 467.1459,564.1767 469.977,577.9163 471.672,591.8586 472.2833,606.2041 471.9087,621.0566 470.1932,637.3125 467.9171,650.4929 464.5238,664.4946 459.6454,679.7566 454.9091,692.0124 448.0392,706.4007 440.8062,718.6633 433.7911,728.5299 426.0465,737.0898 418.2113,743.8234 414.1779,746.5879 410.2203,748.8569 406.0787,750.717 402.1719,751.9844 396.2683,753.0262 390.5863,753.0848 385.2293,752.2124 379.7812,750.3405 373.8822,747.2252 368.2164,743.2035 363.1184,738.6397 358.0855,733.0557 353.1086,726.4376 348.2008,718.7919 343.2279,709.842 338.8921,700.8639 334.5932,690.6485 330.6455,679.9338 326.9432,668.482 323.5223,656.3699 320.5225,644.0249 317.9254,631.2881 315.6569,617.8184 313.7563,603.7257 312.3315,589.9107 311.3473,576.1749 310.9069,563.3988 310.9553,550.4922 311.4809,538.3478 312.4696,526.6778 313.913,515.5897 315.8066,505.1752 318.1451,495.4449 321.028,486.0956 324.3396,477.6132 327.896,470.3462 331.1115,465.0062 334.9167,459.823 338.6944,455.6065 342.9487,451.7423 347.3798,448.5419 351.95,445.9927 356.9356,443.9772 362.0064,442.6464 367.2407,441.9213 372.5498,441.7862 378.2725,442.2611 383.9797,443.3395 390.217,445.1775 396.4981,447.592 402.6562,450.4844 408.9774,454.018 415.067,458.0053 421.5104,462.8535 427.9803,468.2839 434.1181,474.0201 439.8736,480.012 445.7412,486.7769 451.2177,493.6877 456.0018,500.3837 464.8637,515.0848 468.6977,522.4687 472.0893,529.8311 475.9265,539.2386 478.8731,547.4378 480.9043,554.1474 483.4935,564.3943 486.3371,579.6911 488.1447,597.3775 488.5815,614.2853 487.6346,632.178 485.4441,650.2077 482.3225,666.3424 478.696,680.8537 472.6597,699.7859 465.4353,717.6787 457.9074,733.1573 449.3909,747.7573 444.9397,754.3599 440.4354,760.3817 435.5974,766.1974 430.6314,771.5561 425.9052,776.0593 421.2299,779.9089 416.2887,783.3359 411.375,786.125 406.5033,788.2879 401.8358,789.7771 395.1352,790.9275 388.1461,790.9107 381.7037,789.7899 375.3414,787.5261 368.8347,783.9881 362.542,779.357 356.0977,773.3347 350.2695,766.6194 344.2705,758.3165 338.3313,748.6461 332.6746,738.0093 327.1278,726.1162 322.2418,714.1901 317.5894,701.2192 313.2128,687.3172 309.2483,672.9717 305.3414,656.7157 301.975,640.3634 299.1707,624.0485 296.8507,607.4239 294.9596,589.8862 293.6546,572.7469 292.9051,555.797 292.7401,539.4772 293.1802,524.5217 294.2281,509.7617 295.8071,496.1027 297.984,482.8974 300.6209,470.9672 303.7503,460.0487 307.3696,450.1374 311.624,440.8759 315.934,433.3254 320.7944,426.4508 325.9836,420.6146 331.6262,415.6943 337.9433,411.5458 344.5151,408.4531 351.281,406.3599 358.5463,405.1746 366.2571,404.9834 374.3702,405.7984 382.8446,407.5826 391.2284,410.2062 399.7889,413.7147 408.7187,418.2317 417.9667,423.721 427.135,429.9654 434.9153,435.9263 442.8411,442.6651 450.567,449.847 457.7329,457.152 464.0748,464.2736 471.7644,473.7486 478.1298,482.2477 483.6177,490.3131 490.1737,501.0332 495.5296,510.8274 501.2749,523.0237 505.978,534.1194 513.0895,554.6375 522.8261,589.3925 525.5598,597.3681 527.3495,601.5531 530.1415,606.1589 531.8224,607.8162 533.8755,609.2286 535.6259,609.716 537.554,609.659 539.5951,609.0702 541.752,607.9686 545.5179,605.0847 549.9285,600.3427 554.5755,594.1728 560.0087,585.8805 565.3275,576.9158 571.1668,566.1251 583.2467,541.4508 600.1585,503.3536 618.1251,459.4275 636.614,412.2075 683.035,290.6566 696.3118,257.1762 707.0411,231.3836 719.4547,203.8175 724.7391,193.2221 729.2657,185.0327 733.3429,178.7037 736.6938,174.7222 738.0734,173.643 739.2432,173.1883 740.1939,173.3706 740.8272,174.0434 741.6289,177.3352 741.528,182.8656 740.5809,190.0698 738.7882,199.0207 736.2882,209.0133 733.0755,220.0824 724.6892,244.7158 714.9212,269.424 703.9735,293.9997 691.6926,318.7967 678.1971,343.5509 666.0745,363.9482 652.982,384.2934 638.9934,404.4597 624.2554,424.2616 611.5904,440.2576 597.9836,456.4914 552.1399,508.0972 541.3626,520.612 529.6234,535.4122 519.6312,549.6386 514.1132,558.599 509.0938,567.7656 504.4428,577.3898 500.3975,586.9717 493.1678,607.1058 480.0193,650.5927 471.989,674.6559 463.5789,695.9153 459.7184,704.298 455.3805,712.746 449.0908,723.6647 442.3877,733.9669 436.1597,742.2247 429.9502,749.1714 423.1562,755.4688 416.1526,760.614 409.1275,764.4937 402.3438,766.9375 395.9769,768.0546 389.8479,768.0793 383.9089,767.0842 378.184,765.1174 372.3465,762.0672 366.3964,757.8498 360.6101,752.6167 355.0524,746.3965 349.5402,739.0009 344.3158,730.783 339.1812,721.4581 334.4983,711.694 330.0707,701.0813 325.7369,689.2138 321.7756,676.8701 317.9714,663.386 314.549,649.4899 311.6855,635.7383 309.1753,621.2037 307.1122,606.3912 305.4747,591.0677 304.3139,575.3912 303.7503,561.2016 303.7057,547.2111 304.1818,533.6274 305.1744,520.5672 306.6295,508.4919 308.5979,496.9603 310.9532,486.6615 313.8707,476.7586 317.2276,467.7316 321.1478,459.31 324.778,452.982 328.6632,447.42 332.85,442.554 337.2752,438.413 342.2159,434.7649 347.3394,431.8785 352.9322,429.6098 358.625,428.125 364.5543,427.3506 370.9536,427.2765 377.3956,427.9141 383.8198,429.2029 390.535,431.2097 397.5629,433.9839 404.7181,437.4255 412.0152,441.5789 419.0354,446.2197 426.0832,451.5657 433.4928,457.8333 440.7237,464.6403 447.173,471.4164 453.9923,479.378 460.4128,487.5384 465.7996,495.1371 471.0911,503.5775 476.2283,512.6429 480.3783,520.8677 484.4179,529.99 487.7,538.2665 490.24,545.6643 493.771,557.8974 495.9848,566.968 498.9938,584.3434 500.9597,604.7022 501.2817,624.7497 500.4717,642.6031 498.1092,664.3038 496.6465,673.7633 494.9346,682.4517 489.5266,704.2091 483.0955,723.6191 479.0685,734.0683 474.675,744.4033 465.1553,763.6138 460.4262,771.9864 455.3031,780.1757 449.625,788.5938 444.348,795.6952 438.8792,802.2644 433.4143,808.1246 427.8621,813.3707 422.5448,817.7307 416.8992,821.673 411.2915,824.9004 405.7655,827.3776 400.3493,829.1104 392.7459,830.3791 384.843,830.2659 377.4829,828.7841 369.8961,825.7996 362.4426,821.3776 355.1408,815.5738 348.1035,808.4799 341.028,799.7586 334.1667,789.6902 327.553,778.371 321.0041,765.4607 315.1051,752.1214 309.4052,737.3589 303.8497,720.9691 298.7115,703.7589 293.9054,685.5007 289.2985,665.5193 285.4121,645.9455 281.9803,625.4198 279.1719,604.9062 276.9632,584.2504 275.4205,564.0456 274.5386,544.1127 274.3556,525.1377 274.8613,506.5657 276.0504,488.7832 277.9107,471.9333 280.3668,456.497 283.4415,442.2232 287.0409,429.4934 291.2891,417.8021 296.2595,407.0375 300.3849,399.7779 304.9973,393.0199 309.6715,387.3467 314.8066,382.2382 320.4019,377.7993 326.1504,374.2259 332.4317,371.266 338.8752,369.1073 345.4422,367.703 352.4652,366.9872 359.5372,367.0046 366.958,367.7469 375.4005,369.3246 383.8151,371.5714 392.4999,374.5457 401.3692,378.2348 409.6419,382.2529 418.1489,386.9281 427.0947,392.3389 435.9857,398.229 444.1496,404.1107 452.1951,410.3841 461.1514,417.8901 469.4679,425.3535 478.1359,433.742 486.7544,442.8111 495.6091,452.7741 503.1566,461.978 516.4695,479.9998 535.8242,509.4641 540.7715,516.4964 543.4802,519.832 547.9909,524.0533 552.0781,526.3906 554.2117,526.9715 556.3294,527.1191 560.4857,526.1546 564.625,523.875 568.4933,520.7235 572.666,516.3326 577.322,510.443 582.1261,503.4755 587.2883,495.1579 599.7306,472.5925 612.3281,446.7969 626.4512,415.8081 640.7683,382.864 673.311,306.2634 687.4377,274.5981 694.8199,259.3751 700.8995,248.2031 705.3318,241.7978 706.7604,240.596 707.7431,240.5358 708.2736,241.9927 708.125,244.5 705.8182,254.6535 701.8388,266.97 696.1114,281.7587 689.2072,297.834 681.8475,313.5197 673.5498,329.7856 664.4316,346.4268 650.8519,369.3107 634.2856,395.082 617.4806,419.4178 585.2289,463.2594 572.8008,480.6613 560.8927,499.1245 556.3998,506.9202 552.797,513.8829 548.9531,522.6875 545.374,532.916 543.3585,542.332 542.6963,549.2075 543.0324,555.7963 543.7091,558.4232 544.813,560.7469 546.1648,562.1244 548.125,563.0 549.6991,563.0624 551.9425,562.3961 555.6723,560.0162 559.8104,556.135 563.7884,551.4512 568.415,544.924 574.7534,534.817 581.2079,523.6805 593.0278,500.537 604.9639,474.9512 623.0952,433.2802 678.6259,297.0086 695.1694,258.2355 705.7743,235.4379 712.5863,222.5838 715.7625,217.5057 718.5524,213.8496 720.625,212.125 721.3497,212.0094 721.9134,212.345 722.5388,214.3314 722.463,218.0078 721.6477,223.2978 720.1816,229.6395 714.9878,246.959 707.9799,266.2107 699.9987,285.2185 690.2689,306.1946 680.2019,326.1054 669.6855,345.2373 659.9763,361.7022 649.9259,377.7731 639.2528,393.9049 628.1862,409.7346 605.4593,440.1044 565.427,490.8997 551.2604,510.2325 545.4228,519.0546 540.3181,527.6306 535.4186,536.8391 531.4609,545.3819 528.2574,553.5166 525.2303,562.6548 523.0251,570.5897 521.2629,578.6428 518.5255,597.6986 517.7925,610.0347 517.6276,618.1351 518.298,635.778 519.3949,643.7666 521.1065,651.0972 523.069,655.4509 525.3185,657.6951 526.6215,658.2494 528.1317,658.3411 531.1677,657.3381 535.4568,653.9276 539.3309,649.4502 544.8372,641.6546 550.5936,632.1953 556.4795,621.3189 562.9773,608.3216 578.3326,574.8439 596.1519,531.7305 614.2869,485.0103 634.4029,430.8667 689.3756,279.3468 704.3201,239.9283 717.7317,206.3096 725.4374,188.0798 732.4724,172.4431 738.7902,159.4813 744.4658,149.081 749.1386,141.8945 752.9275,137.6308 754.4784,136.5306 756.0512,136.0193 757.3572,136.3329 758.3839,137.4644 759.1187,139.4067 759.5491,142.1529 759.4465,150.0282 758.0952,160.5148 755.5934,173.3808 752.0706,187.9031 747.632,203.6115 742.377,220.0878 736.5433,236.582 730.3,252.7673 723.4874,269.1693 716.1761,285.6298 708.4366,301.9907 700.5151,317.7552 692.2456,333.2559 683.7054,348.3387 674.817,363.165 660.3079,385.7133 645.2065,407.2794 629.332,428.1152 612.5734,448.3667 597.1428,465.6621 580.0427,483.6421 564.5424,499.1476 532.5738,530.2432 520.4839,542.489 508.9068,555.1014 499.6152,566.3694 494.0739,573.8393 488.9222,581.4686 484.1767,589.2236 479.5412,597.5867 471.8769,612.8332 458.9428,642.1008 451.0511,658.9648 443.395,673.4512 437.4137,683.4454 433.23,689.4456 429.0282,694.812 424.8038,699.5426 420.5585,703.6437 416.3111,707.0596 411.8813,709.9545 407.1937,712.3563 402.9036,713.8576 398.5001,714.6901 393.5872,714.8516 388.9019,714.3061 384.5975,713.0748 379.9167,710.904 375.5282,708.0837 371.1824,704.5401 366.9884,700.2874 362.8785,695.23 359.0816,689.7221 355.1589,683.1234 351.4644,675.9612 347.9845,668.176 344.8323,660.0965 341.7684,651.0895 339.0809,641.9711 336.7234,632.6057 334.641,622.6813 332.891,612.4716 331.4405,601.703 329.7877,581.3427 329.5503,571.135 329.7159,561.1467 330.2721,551.4761 331.2067,542.2213 332.3988,534.3171 333.9712,526.7365 335.9912,519.2616 338.4746,512.0449 341.2867,505.5545 344.318,499.9531 349.6778,492.4089 352.4503,489.3905 355.6016,486.5526 358.8635,484.2048 361.9839,482.4632 365.5332,480.9746 369.1711,479.9183 372.8732,479.277 376.9907,479.03 381.1242,479.241 385.4698,479.9242 389.7639,481.0185 394.0308,482.5029 402.6969,486.7346 411.7301,492.8731 420.0355,500.1206 428.4684,509.4581 436.0038,519.4463 442.1606,529.5407 447.7657,540.8164 452.8176,553.625 456.4458,565.5863 459.0398,578.3049 460.6727,590.2533 461.41,602.5184 461.2864,614.3623 460.2572,628.1325 458.539,639.8699 455.7153,652.8551 451.9468,665.6943 447.4219,677.7975 441.9968,689.5195 436.2029,699.6819 429.8042,708.7581 422.8876,716.6113 416.4461,722.2297 409.1383,726.7433 405.4179,728.411 401.8433,729.5925 396.7039,730.5178 391.754,730.5666 386.6827,729.8039 381.9193,728.2827 377.1363,725.8834 372.3152,722.5691 367.4376,718.3031 362.9045,713.4734 358.4635,707.7701 353.91,700.8578 349.6728,693.3872 345.4714,684.9011 342.0983,677.0635 338.8075,668.2658 335.7432,658.8746 332.8064,648.5655 329.9369,636.945 327.7142,626.3524 325.7907,615.1922 324.1826,603.453 322.9333,591.2568 322.1072,579.1292 321.756,567.9976 321.8604,557.2907 322.3921,546.8756 323.3744,536.4793 324.7747,526.5944 326.5293,517.5493 328.6382,509.3436 331.2547,501.4003 334.2472,494.187 337.5792,487.7456 340.5,483.125 343.6354,478.9964 346.9484,475.3751 350.4164,472.258 354.0166,469.6425 358.0397,467.3717 361.8425,465.792 366.0229,464.6204 370.4575,463.9105 375.3399,463.6925 379.8766,463.9788 384.7767,464.7936 389.5736,466.0947 395.1477,468.1304 400.31,470.4731 405.3578,473.2163 410.2391,476.3404 415.1674,480.0239 420.7222,484.6898 426.0364,489.6766 434.7371,499.2707 443.9545,511.5514 450.818,522.837 457.8102,536.912 462.9243,550.3781 467.0137,564.1489 469.7664,577.9289 471.4049,590.6258 472.1613,605.0537 471.7961,618.3478 470.5206,633.0799 467.9075,649.3126 464.7971,662.795 460.5663,676.5482 454.8137,691.5167 448.9796,704.0161 442.0457,716.2371 434.5593,726.8993 426.5757,736.0389 422.5028,739.8964 418.3002,743.3465 414.1777,746.1946 410.2197,748.4238 406.0879,750.2351 402.125,751.5 396.4388,752.5401 390.5842,752.6192 384.9307,751.7003 379.5,749.875 374.118,747.0989 368.7068,743.2691 363.5612,738.6309 358.4041,732.9739 353.4219,726.5013 348.7221,719.3239 343.9519,710.8585 339.4995,701.7666 335.2194,691.7867 331.2282,681.1775 327.6184,670.1268 324.2914,658.3943 321.0929,645.3285 318.2567,631.7506 315.7595,617.4981 313.9553,604.6034 312.5499,591.191 311.6075,577.7844 311.1259,564.1563 311.1367,551.2151 311.6244,538.8645 312.6075,527.0216 314.0727,515.7276 316.0023,505.079 318.3788,495.1722 321.1746,486.1326 324.2423,478.3194 327.8724,470.935 331.2458,465.3422 334.8523,460.3834 338.6624,456.0641 342.6463,452.3896 347.0561,449.166 351.4778,446.664 356.3907,444.6108 361.4179,443.2015 366.5164,442.4148 372.009,442.2379 377.8938,442.7183 383.8117,443.782 389.7091,445.3963 395.8925,447.6788 401.578,450.3272 407.8807,453.839 414.2722,457.9079 420.7235,462.5783 426.8568,467.6149 432.7496,473.0729 438.9102,479.3921 444.6538,485.9223 449.9649,492.617 455.2184,499.9308 460.046,507.3432 464.1906,514.4681 472.8015,532.1105 475.7617,539.3991 478.252,546.6494 480.9407,555.4946 482.9866,563.4734 486.1781,580.5197 487.7033,596.1467 488.2458,611.8255 487.5391,629.0645 485.6226,647.0561 482.3237,664.5461 477.4053,684.0032 472.0234,700.2975 466.0377,715.2623 461.2901,725.4708 456.9291,733.9884 448.5484,748.0564 439.3984,760.7256 434.7396,766.2702 430.0702,771.2176 425.3867,775.5724 420.6853,779.3612 415.881,782.6745 410.8964,785.5004 406.053,787.6272 401.3669,789.1021 394.5703,790.2367 387.9304,790.1564 381.4175,788.9146 374.7077,786.412 368.2669,782.8133 362.0533,778.1089 355.7998,772.0761 349.7778,764.9907 343.7558,756.5954 338.0286,747.3157 332.6458,737.1734 327.5778,726.19 322.5579,713.778 317.77,700.304 313.2466,685.8279 309.185,670.9809 305.3874,654.9142 302.0161,638.1989 299.175,621.3957 296.8262,604.303 295.0769,587.8027 293.882,571.4582 293.2381,554.9038 293.1794,539.0823 293.6875,523.7478 294.7328,509.4015 296.3016,495.9658 298.4841,482.963 301.2172,470.8726 304.4693,459.751 308.2085,449.6548 312.5503,440.3591 316.9655,432.8464 321.8186,426.252 327.0065,420.6456 332.7761,415.776 338.8069,411.928 345.3591,408.9462 352.0371,407.0091 359.4072,405.9449 367.2747,405.8584 375.1893,406.7245 383.437,408.5393 392.1656,411.3848 401.2663,415.2143 410.4314,419.9345 419.2341,425.3049 428.0533,431.5275 436.5911,438.1929 444.3434,444.8423 451.5828,451.6823 458.5787,458.9731 465.5234,466.8595 472.0619,475.004 478.2487,483.5141 484.3575,492.7121 490.6261,503.242 497.3838,516.0788 501.6338,525.1938 505.9312,536.0093 509.4876,545.8834 514.0972,560.5602 523.477,595.4588 527.1172,604.8242 530.2984,609.8617 531.5575,611.0573 533.238,612.0474 535.2571,612.5999 537.0135,612.5002 538.9668,611.9199 541.365,610.6846 545.4846,607.3527 549.6563,602.7339 554.6201,596.0711 559.8696,587.9259 565.6517,577.9516 571.3431,567.275 585.3633,538.2728 602.2776,499.395 617.9335,461.0199 635.6558,415.431 683.004,290.9367 696.4757,256.8241 707.8268,229.4021 720.2446,201.8756 725.6717,191.0385 730.4896,182.3316 734.2395,176.4824 737.5178,172.6045 738.8913,171.5482 740.0746,171.0786 741.0578,171.1941 741.8309,171.8934 742.7074,175.0376 742.6786,179.8498 741.6952,187.5237 739.7693,197.2221 737.1148,207.914 733.9022,219.0953 725.634,243.5561 715.6772,268.8097 704.3721,294.2324 692.4563,318.2651 678.6852,343.4043 666.0087,364.658 652.7466,385.2573 638.878,405.2286 624.2345,424.8402 610.6111,441.9159 595.6725,459.5986 551.3611,509.1157 539.8397,522.3517 528.711,536.2184 519.326,549.3412 513.687,558.4085 507.6865,569.1422 503.3249,578.0842 498.9328,588.3343 491.0119,610.2028 477.4891,653.7246 471.1138,672.5268 467.0603,683.0015 462.4163,693.9105 458.1013,703.1199 453.7042,711.5728 447.5753,722.1082 441.5399,731.2347 435.0063,739.7049 428.637,746.75 422.2521,752.5506 415.366,757.4974 408.689,761.07 402.3303,763.3135 396.3022,764.3941 390.2105,764.421 384.3012,763.405 378.1996,761.2811 372.469,758.2737 366.7726,754.1888 361.3262,749.2131 355.8659,743.1304 350.3984,735.893 345.6522,728.5395 340.9523,720.0884 336.2324,710.3361 331.5305,699.2276 327.1819,687.5528 323.2278,675.5002 319.6776,663.015 316.3715,649.5414 313.3623,635.1504 310.7701,620.3262 308.6476,605.3839 307.1076,591.0899 306.0534,576.8087 305.4935,562.6754 305.4363,548.8251 305.8902,535.3928 306.8315,522.8759 308.2821,510.8821 310.2198,499.5639 312.7159,488.6498 315.5837,478.9484 318.879,470.1608 322.6336,462.2179 326.1994,456.0863 330.0324,450.6397 334.1038,445.8833 338.3846,441.8224 342.8462,438.4623 347.7882,435.6274 352.7832,433.502 358.2657,431.9034 363.8436,430.9817 369.8524,430.7151 375.4978,431.1096 381.7306,432.2022 388.6158,434.0428 395.4335,436.4919 402.1221,439.5019 408.6204,443.025 415.785,447.5743 422.9329,452.7357 430.0187,458.5063 436.7105,464.6042 443.3148,471.2818 449.7254,478.4495 455.6072,485.731 461.4205,493.714 467.045,502.1501 471.6897,509.8977 475.7039,517.5231 480.0379,526.704 483.6289,535.3366 486.8019,544.2822 489.7975,553.8648 492.0,562.5 495.4241,580.5997 497.3255,598.3233 497.9774,617.9956 497.2062,637.3238 495.1656,656.4108 491.7044,675.8515 487.0594,694.6045 480.6547,714.8783 473.3066,733.23 463.8126,752.9982 453.6096,770.4273 448.9229,777.4446 444.0604,784.0145 438.8128,790.412 433.445,796.2558 427.9504,801.512 422.3206,806.1764 417.0002,809.9225 411.7657,812.9487 406.2754,815.4121 400.8647,817.1418 393.514,818.4029 386.0101,818.3338 378.5826,816.8703 371.2631,814.0482 364.2747,810.0291 357.2315,804.4954 350.3681,797.622 343.7209,789.5201 337.0633,779.9088 330.8921,769.541 324.8808,757.813 319.0231,744.6961 313.218,729.8806 307.7875,714.1579 302.5001,696.813 298.1203,680.3708 293.932,662.113 290.1509,642.7468 286.8957,622.8366 284.1982,602.5976 282.1178,582.5411 280.7809,563.9929 280.051,545.2984 279.9671,527.0383 280.5139,509.7567 281.6857,493.2248 283.4399,477.9364 285.8163,463.5977 288.8193,450.2239 292.5167,437.5806 296.7794,426.1544 301.5621,415.9969 305.6671,408.9212 310.0988,402.6196 314.8205,397.1269 320.0988,392.1593 325.6239,388.0279 331.6786,384.5333 337.9146,381.8858 344.622,379.9661 351.5922,378.8659 359.0355,378.5369 366.5284,378.9761 374.4049,380.1861 382.6158,382.1882 390.7319,384.8487 399.3385,388.3413 408.3752,392.644 416.8035,397.2277 424.9312,402.1726 433.0179,407.6173 441.249,413.6825 449.5515,420.2787 457.625,427.2271 464.8494,433.9882 472.1923,441.4455 480.9405,450.8918 488.7837,460.0695 497.0737,470.7525 504.3134,480.883 516.2901,499.8779 532.5675,529.2965 539.0648,539.4676 543.5,544.125 546.9062,546.2188 549.064,546.833 551.1306,547.0045 553.1387,546.6925 555.28,545.9234 559.3364,543.4865 563.4808,539.8481 567.746,535.1003 572.5172,528.7413 577.8993,520.6369 583.7505,510.897 589.9563,499.709 596.0843,487.8415 609.3009,460.0185 624.529,425.6522 673.2652,308.2137 692.3074,264.2441 700.9653,246.0028 708.1175,232.6426 710.8374,228.3523 713.1113,225.4489 714.8571,224.019 716.033,224.0804 716.625,226.0 716.4539,229.3317 715.5642,234.4245 713.9451,240.9783 709.3969,255.4209 702.369,274.1302 694.9129,291.7621 686.9472,308.8049 677.3531,327.6529 666.902,346.6835 658.5111,360.9867 649.1018,376.1637 639.4583,390.9492 629.6964,405.1756 611.3439,430.3782 573.8294,479.3538 560.306,498.0481 549.912,514.3696 544.774,523.5311 541.4136,530.2516 535.5279,544.9515 532.1534,556.6252 530.8102,563.1898 529.7925,570.6658 529.2846,576.1805 529.2008,582.1091 529.5133,587.5645 530.458,593.6801 531.5071,597.1766 533.1123,600.3928 535.0889,602.5207 537.3697,603.5289 539.828,603.384 542.7671,602.2385 546.453,599.512 550.7906,594.8949 555.8967,588.2791 561.1081,580.3909 566.7416,570.8418 572.661,559.9114 586.315,531.952 601.8864,496.8012 619.3856,454.4031 635.3058,413.9646 681.5564,293.6782 694.9202,260.2541 706.7106,232.0204 718.409,206.3721 723.4899,196.3784 727.8537,188.6665 731.596,183.0854 734.4486,179.9107 735.7672,178.9683 736.8835,178.6165 737.788,178.8585 738.4712,179.6975 739.1125,182.7224 738.9401,187.8848 737.9474,194.9283 736.1443,203.647 730.8284,223.0644 723.2909,245.1907 714.0608,268.766 703.734,292.3016 692.7346,314.8272 680.3654,337.8118 668.07,358.8412 654.9608,379.6422 641.7049,399.1776 627.6906,418.3851 613.9276,436.075 598.9585,454.2904 556.2608,503.2427 543.5606,518.185 531.8021,533.2924 522.4696,546.82 517.1235,555.773 512.3362,564.8121 507.574,575.1189 502.9951,586.2598 496.2416,606.4576 481.9361,656.9974 475.6124,676.8152 466.7488,699.9381 457.9745,718.5596 451.9056,729.3728 444.7677,740.5052 438.1322,749.4278 430.8745,757.7649 424.0758,764.2028 417.0401,769.5057 410.0316,773.4642 402.9627,776.1205 396.3704,777.4327 390.0475,777.5899 383.537,776.5727 377.2161,774.428 370.9999,771.1982 365.2324,767.0757 359.44,761.7399 353.6293,755.171 347.807,747.3488 342.0504,738.3581 336.9851,729.1409 332.0766,718.8539 327.0591,706.8144 322.4101,694.0982 317.875,680.0 314.0724,666.3934 310.4817,651.3554 307.3265,635.7139 304.6309,619.6373 302.4189,603.2941 300.8251,587.9472 299.7572,572.5552 299.2288,557.3265 299.2432,542.0344 299.8167,527.2345 300.9102,513.4334 302.4297,501.2571 304.5045,489.5995 307.1763,478.35 310.4531,467.6658 314.2024,458.0244 318.375,449.5 323.7576,440.981 329.6754,433.8844 336.3157,427.9607 339.7799,425.5549 343.6201,423.3598 347.5337,421.5866 351.6162,420.1842 360.0625,418.4554 369.0795,418.1082 378.1423,419.133 388.0576,421.7113 398.618,425.795 409.2021,431.1471 419.5868,437.6571 430.4155,445.7102 440.4261,454.3802 450.0129,464.068 459.9355,475.3597 466.3026,483.5164 472.4886,492.4203 478.4438,501.8908 483.6307,511.1725 488.6711,521.3899 492.6957,530.6818 496.8665,542.1165 500.1761,552.5185 503.4012,565.1071 505.7435,576.1533 508.0256,589.7958 509.8108,604.5746 511.9594,634.1415 513.59,671.5337 514.3462,681.2421 515.8141,692.4262 517.3001,697.7893 519.6224,701.0434 520.6327,701.5485 521.9537,701.588 525.029,700.1 527.0463,698.2917 529.3582,695.5824 535.3566,686.9833 541.471,676.35 548.8645,661.8606 554.9352,648.9213 566.7736,622.1651 585.2032,576.7778 603.2319,529.1353 621.1383,479.9945 644.5528,413.4648 681.804,306.1062 701.388,251.0488 717.2441,208.3496 731.8831,171.6322 739.429,154.0198 746.3819,138.8588 752.2365,127.2001 757.5905,117.8302 762.5907,110.582 766.8271,106.1613 768.7173,105.0095 770.203,104.684 771.474,105.045 772.5199,106.1048 773.4945,108.416 774.1227,111.9964 774.3404,116.6889 774.1656,122.1025 772.6938,135.5341 769.7102,152.0756 765.631,169.5987 760.2844,188.9605 753.8969,209.3021 746.6309,230.1427 739.2152,249.6043 731.2897,268.8073 723.125,287.125 713.9479,306.2584 704.2252,325.1882 694.2026,343.4505 683.7651,361.2634 672.983,378.4767 658.9177,399.2386 643.7376,419.865 628.2056,439.2927 612.264,457.6314 592.271,478.6339 571.143,498.8955 549.1236,518.3327 505.305,555.095 492.9824,566.2929 483.1537,576.0413 472.1704,588.3981 462.7691,600.8612 453.4366,615.2053 434.9239,645.8663 430.4799,652.4754 425.7313,658.7534 419.9574,665.3013 413.8757,670.7986 408.3613,674.4376 402.4025,676.9104 398.7597,677.688 395.4039,677.9166 392.0987,677.6925 388.9013,676.9495 385.7039,675.6906 382.1513,673.7109 378.8225,671.3009 375.752,668.4717 369.7817,661.2189 364.2488,652.1941 359.3434,641.3982 355.0022,628.8329 351.7118,614.9277 349.2669,599.1923 348.2635,585.4157 348.3577,571.2371 349.6111,558.7919 352.0863,547.0893 355.4437,537.2049 357.4802,532.9262 359.7213,529.0918 363.375,524.25 367.53,520.38 372.0604,517.5954 377.125,515.875 382.728,515.3367 388.0336,515.9158 393.46,517.6612 399.5,520.6875 404.9809,524.4677 410.2838,529.3289 415.6771,535.3744 420.2205,541.683 424.3194,548.4862 427.6761,555.3201 431.309,564.5804 433.9127,573.0071 435.8824,581.9673 437.1357,590.2025 437.869,599.8196 437.9967,608.2753 437.351,617.8924 436.2595,626.6192 434.6389,634.5315 432.2948,643.3403 429.6744,650.8632 426.3397,658.3085 422.625,664.875 418.0875,671.3655 413.8302,676.1159 409.3624,679.87 404.8618,682.5966 400.0197,684.4664 396.3287,685.162 392.9413,685.2278 389.09,684.6635 385.5802,683.5697 382.2033,681.8898 378.8395,679.5963 375.4682,676.7099 372.1137,673.2892 368.8654,669.2811 365.7285,664.6629 359.603,653.4456 355.2708,642.9246 351.2534,629.9514 347.9635,615.9348 345.7569,601.13 344.4409,584.564 344.5025,570.1169 345.8134,556.0946 348.2142,543.8157 349.8399,538.2151 351.8458,532.7251 353.9538,528.0801 356.3741,523.7935 360.4219,518.3594 365.1499,513.8628 370.0473,510.7754 375.4375,508.8281 381.002,508.1447 387.2245,508.771 393.3379,510.5516 399.3131,513.4589 405.8561,517.9591 411.6507,523.0771 417.7918,530.0195 423.2521,537.4527 427.9741,545.4261 432.3354,554.3256 435.2496,561.8681 438.3675,572.193 440.2469,580.7505 441.7304,591.3732 442.3361,600.0987 442.3514,610.9036 441.7872,620.0961 440.5164,629.5456 438.7642,638.0568 436.3507,646.6126 433.192,655.532 429.4637,663.9067 425.4395,671.1465 420.8445,677.8222 416.2539,683.0541 411.0961,687.4911 405.8039,690.7688 400.5829,692.7579 396.5461,693.5073 392.8708,693.5884 388.7658,692.9863 384.9391,691.7852 381.3451,690.0948 377.9098,687.8397 374.5096,684.9811 370.8367,681.2222 367.1949,676.8498 364.248,672.6797 361.2253,667.6847 358.1424,661.7897 352.4833,648.6016 348.042,634.5195 344.0,616.875 341.6529,601.5876 340.3014,584.12 340.2866,567.6731 341.6756,552.2301 342.9072,544.7002 344.3506,538.1066 346.1025,532.1014 348.1688,526.545 350.4955,521.4793 353.2034,516.6643 357.5066,510.8068 362.6935,505.9552 368.2724,502.5588 374.1521,500.555 380.5443,499.893 386.9952,500.6304 394.3985,502.9989 401.2274,506.4124 408.1748,511.3789 415.4855,518.0447 421.1332,524.4427 427.1028,532.7201 431.9159,540.8729 436.7911,551.1982 440.4539,560.7424 443.3287,570.5972 445.4771,580.5252 446.925,591.0863 447.6664,601.3094 447.6613,611.6538 446.9826,621.8717 445.5403,632.0512 443.5007,642.0868 440.8008,651.686 437.3102,661.3417 433.046,670.7856 428.6564,678.6804 423.634,685.9834 418.3018,692.0322 412.2947,697.2185 406.7382,700.647 400.8273,702.9006 396.5084,703.6893 392.5336,703.7184 388.1035,702.9781 383.906,701.5793 379.9211,699.6056 376.1617,697.037 372.4239,693.8062 368.4134,689.6046 364.7454,685.0926 361.2883,680.0364 357.9559,674.3332 354.5657,667.6586 348.4944,653.254 343.6453,637.7042 339.4502,619.1487 336.8384,601.831 335.3542,582.7658 335.1199,572.9312 335.2772,564.4283 335.835,555.7646 336.7637,547.438 338.0315,539.5374 339.6838,531.8429 341.4271,525.6701 343.6181,519.5564 346.1024,513.9775 349.0071,508.6921 353.864,502.0023 359.3256,496.8093 362.3935,494.6744 365.554,492.9609 368.7761,491.6759 371.934,490.8241 375.6367,490.2351 379.389,490.0576 386.5353,490.8542 394.3227,493.3847 402.0618,497.2662 409.7045,502.5874 417.7969,509.875 424.6722,517.5482 431.4666,526.82 436.9773,536.0166 442.2587,547.1322 446.2016,557.3666 449.3922,568.3625 451.8309,579.7938 453.4657,591.862 454.1013,602.0899 453.9491,613.9663 453.133,624.9812 451.4242,636.6579 449.0325,647.7433 445.7788,659.0242 441.8978,669.3146 436.7641,680.4372 431.98,688.7972 426.5775,696.4097 420.2768,703.4818 414.0625,708.8438 407.9487,712.5886 401.183,715.1402 396.7364,715.9489 392.1523,716.0231 387.7087,715.3548 383.16,713.8782 378.566,711.5586 374.2597,708.6304 369.7953,704.8253 365.7585,700.5501 361.8169,695.4812 357.7513,689.3023 353.7748,682.3065 350.0713,674.883 346.8298,667.4034 343.6451,658.9766 338.2011,641.2901 335.8147,631.594 333.8036,621.7393 330.7488,600.9945 329.1423,580.1191 328.9215,569.8801 329.1007,559.8498 329.6557,550.5025 330.5914,541.5439 331.8401,533.4707 333.4816,525.6857 335.469,518.3985 337.9028,511.3241 340.6538,504.9225 343.6365,499.338 346.1884,495.3771 349.1506,491.5081 352.0152,488.3844 355.2866,485.4479 358.6941,483.0132 361.976,481.2051 365.5461,479.7462 369.2044,478.7125 372.9211,478.0876 377.0417,477.8525 381.1574,478.0701 385.1972,478.71 389.4933,479.8122 394.1332,481.4527 402.8724,485.7701 411.7787,491.8389 420.433,499.4096 428.9835,508.8135 436.5411,518.8067 443.2003,529.8608 449.0851,541.7352 453.5723,553.4999 457.108,565.5001 459.773,578.1804 461.3707,589.3867 462.1911,602.7428 462.1298,614.2117 461.0582,627.8602 459.5,638.75 456.3363,653.5221 452.384,666.7107 447.8564,678.9019 442.0112,691.405 436.7475,700.5446 429.6331,710.6183 423.1613,717.9709 416.3842,723.8547 409.3902,728.2014 405.6462,729.8921 402.0626,731.0813 396.9058,732.0139 391.9713,732.0805 386.5,731.25 381.7767,729.7294 376.6729,727.1711 371.8453,723.8576 366.9942,719.6225 362.4272,714.7259 358.0683,709.053 353.5957,702.1623 349.43,694.7153 345.1895,686.04 341.5298,677.487 338.1162,668.3689 334.809,658.2746 331.8723,648.003 329.1176,636.8746 326.886,626.2005 324.9875,615.035 323.4136,603.2754 322.2024,591.0488 321.3932,578.5101 321.0651,567.4069 321.1741,556.2188 321.701,545.7309 322.6746,535.2721 324.0159,525.6898 325.7725,516.5818 327.9082,508.2874 330.4354,500.618 333.466,493.2823 336.8365,486.7273 339.7818,482.0249 342.8825,477.8997 346.2298,474.2103 349.746,471.0259 353.4027,468.3437 357.4898,466.0015 361.6724,464.2417 365.8233,463.0756 370.2892,462.3843 374.8212,462.2069 379.3877,462.5079 384.337,463.3325 389.2498,464.6317 394.5018,466.5079 399.6625,468.8094 405.0525,471.7064 410.2795,475.0228 415.2756,478.6992 421.143,483.5399 426.7241,488.6923 434.8876,497.5843 444.5312,510.3849 451.1899,521.2227 458.9352,536.7824 463.788,549.536 467.8481,563.4103 470.704,577.5545 472.3713,590.2515 473.1903,605.1972 472.9038,619.3673 471.6054,633.333 468.8865,649.9379 465.4598,664.493 461.4202,677.8676 455.3608,693.5179 449.6004,705.744 442.3624,718.3298 434.6574,729.2974 426.9333,738.1245 422.8258,742.0159 418.8567,745.2695 414.7332,748.1244 410.4474,750.5485 406.3403,752.3761 402.1146,753.7702 396.3412,754.8293 390.735,754.897 384.9412,753.9616 379.3432,752.0752 373.7619,749.1604 368.4104,745.3642 363.028,740.5221 357.645,734.5958 352.7823,728.1923 347.9608,720.6908 343.2509,712.1826 338.6648,702.6918 334.2143,692.2424 330.4118,682.1394 326.7382,670.9318 323.3526,659.0565 320.1854,646.2272 317.2869,632.5034 314.8744,618.9034 313.0043,605.6586 311.5412,591.8948 310.5497,578.1381 310.0269,564.1655 310.007,550.8258 310.4647,538.7162 311.4401,526.6454 312.9046,515.1376 314.8362,504.2929 317.1272,494.534 319.8714,485.4203 322.9694,477.3346 326.6376,469.7021 329.8859,464.1757 333.5659,458.9688 337.4632,454.4332 341.5702,450.5575 345.7854,447.3872 350.5112,444.6332 355.3878,442.5412 360.3716,441.0875 365.7809,440.2117 371.2246,440.0114 377.1249,440.4474 383.0514,441.4811 388.9576,443.0658 395.1583,445.3011 401.2114,448.0419 407.5067,451.4583 414.2326,455.7274 420.6853,460.4353 427.1188,465.7491 433.6643,471.7851 439.8697,478.0949 445.6371,484.5979 450.49,490.6923 456.2407,498.6296 461.0789,505.9541 465.2645,512.9981 469.7759,521.5756 473.5214,529.5568 476.62,537.1282 479.6855,545.8848 482.3992,554.676 484.4591,562.6488 487.7177,579.4971 489.5125,596.8921 490.0436,612.7835 489.3845,629.1775 487.6482,645.9676 484.4787,664.4426 479.7051,683.7188 473.9606,701.4404 466.6431,719.7083 459.6767,734.1999 450.4319,750.2811 445.6897,757.3906 440.9088,763.8325 436.2731,769.4138 431.2835,774.7455 426.1713,779.561 421.0981,783.7211 416.0955,787.1974 411.1724,790.0128 406.3878,792.1861 401.4961,793.7832 394.5647,794.9527 387.7099,794.8753 380.7111,793.545 374.2824,791.1393 367.7253,787.4272 361.361,782.5698 354.908,776.337 348.6389,768.9625 342.51,760.3407 336.6342,750.6452 331.0505,740.0042 325.6173,728.1394 320.5273,715.4542 315.9123,702.3148 311.4703,687.8694 307.3499,672.5558 303.4134,655.7236 299.903,638.2313 296.9855,620.9897 294.6706,603.885 292.8705,586.2608 291.6549,568.6848 291.036,551.348 291.0196,534.8028 291.5869,519.277 292.7404,504.6577 294.4671,490.7854 296.8203,477.3943 299.7372,464.9934 303.0928,453.9826 307.0045,443.9384 311.3648,435.0777 315.7201,427.9361 320.6223,421.4141 325.8279,415.8622 331.5462,411.0825 337.345,407.4174 343.6504,404.5614 350.5264,402.5444 357.5545,401.4735 365.0336,401.2807 372.8815,402.0097 381.579,403.777 390.2128,406.3771 399.0683,409.8648 407.6875,414.0346 416.3748,419.0081 425.3779,424.9242 433.6122,431.0314 441.3956,437.4507 449.6835,444.9927 457.7464,452.964 464.4053,460.1359 470.3,467.0685 477.9427,476.8565 484.3434,485.7901 490.12,494.8035 496.6619,506.119 501.2084,514.9433 506.0943,525.6889 509.881,534.9659 514.3596,547.2932 526.1506,582.792 529.3405,590.0202 531.9595,594.1087 533.8137,595.9664 535.642,597.271 537.1069,597.816 539.053,598.009 542.7327,597.0586 545.1644,595.6866 547.375,594.0 552.0503,589.1856 558.0638,581.382 564.2633,571.9287 570.5446,560.9602 578.0894,546.5567 593.275,514.3867 604.8296,487.9058 625.5641,437.4842 673.7468,313.1692 692.625,265.5"/>
  </g>
</svg>
