<?xml version="1.0" encoding="utf-8" ?>
<svg xmlns="http://www.w3.org/2000/svg" xmlns:cc="http://creativecommons.org/ns" xmlns:dc="http://purl.org/dc/elements/1.1/" xmlns:ev="http://www.w3.org/2001/xml-events" xmlns:inkscape="http://www.inkscape.org/namespaces/inkscape" xmlns:rdf="http://www.w3.org/1999/02/22-rdf-syntax-ns" xmlns:sodipodi="http://sodipodi.sourceforge.net/DTD/sodipodi-0.dtd" xmlns:xlink="http://www.w3.org/1999/xlink" baseProfile="tiny" height="27.09333333cm" version="1.2" viewBox="0 0 1024.0 1024.0" width="27.09333333cm">
  <metadata>
    <rdf:RDF>
      <cc:Work>
        <dc:format>image/svg+xml</dc:format>
        <dc:source>vpype read './original_svgs/Strange Attractors #272.svg' linemerge linesimplify write './Strange Attractors #272.svg'
</dc:source>
        <dc:date>2024-08-05T01:35:44.438679</dc:date>
      </cc:Work>
    </rdf:RDF>
  </metadata>
  <defs/>
  <g fill="none" id="layer1" inkscape:groupmode="layer" inkscape:label="1" stroke="black" style="display:inline">
    <polyline points="740.0,281.375 1021.4465,-0.0 863.6646,157.2107 584.6764,436.8516 457.142,565.3913 429.4104,593.9284 426.6658,596.9175 426.375,597.375 426.75,597.25 426.5625,597.5469 421.4076,602.9649 160.5572,865.011 107.7123,918.5209 212.2547,814.2938 439.25,586.5 485.3212,539.5821 478.068,546.44 422.9355,601.4432 155.4873,870.0134 70.0055,956.3656 270.1408,756.5195 490.0186,535.5397 520.372,504.316 513.6183,510.5767 438.8553,585.3413 2.1143,1024.0 479.2933,544.8335 506.1776,517.9583 517.875,506.5 519.535,505.176 472.0338,553.697 393.172,633.052 130.4157,896.264 71.0201,955.3421 192.4401,832.7985 438.0531,586.3076 449.8438,574.2109 450.125,573.7656 448.875,574.625 461.3277,561.636 575.6311,446.0355 804.6937,216.4365 1013.5325,7.9994 923.8644,98.5119 545.0473,478.8311 542.5,481.5 547.5545,476.9871 541.2978,483.7456 515.048,510.5089 436.3963,589.8285 133.0896,893.7142 40.5341,985.8716 73.5144,952.3785 400.9181,623.4652 472.5152,551.738 500.1759,524.5139 491.9585,533.2153 457.2424,568.3188 248.0684,778.5187 91.7519,934.4613 136.6537,889.0038 353.9989,670.6493 472.3644,552.4133 429.851,595.8253 232.1204,794.3052 131.4266,894.9452 121.3335,904.7325 173.4986,852.0148 393.1821,631.4466 441.5627,583.0641 452.5333,572.4668 430.76,594.6852 278.6768,747.6695 142.3113,883.7478 220.071,805.2307 382.657,641.959 400.089,624.2773 401.6631,622.4347 401.8878,621.7409 405.1602,618.0859 438.6448,583.8013 584.8714,436.4393 771.8244,249.0772 1020.9971,-0.0 760.4034,260.5156 556.7076,464.7513 421.7878,600.8956 400.125,623.375 397.0742,627.2793 381.3247,643.2775 147.0723,879.0195 322.2903,703.8147 443.2182,582.0849 447.9548,577.0568 439.526,585.1082 391.3517,633.2402 239.6134,785.5726 127.666,898.4557 201.9938,824.502 425.3678,600.2581 466.3594,558.4688 404.7556,619.7444 289.6612,735.2519 132.2864,893.4424 101.0416,925.2093 204.9345,821.6522 428.7461,597.0971 491.6065,533.2111 472.958,551.4184 413.1884,611.1908 58.3457,967.8998 140.0979,886.6521 424.8022,601.4413 502.4019,523.128 528.6513,496.3123 531.168,493.428 516.625,507.375 521.75,502.125 1022.0276,-0.0 557.8194,466.0544 509.3718,514.5016 498.9372,524.517 516.0506,506.6707 611.9382,409.9173 869.1073,152.0893 958.8128,62.8455 848.6749,173.9749 586.1779,437.4639 572.8674,450.9144 570.1898,453.838 571.6991,452.8611 568.5646,456.2381 547.4848,477.9217 420.1626,606.1997 165.455,861.4737 13.9869,1012.5201 62.7527,963.1246 335.7241,688.8571 500.625,523.625 510.916,513.753 473.7904,551.7607 332.5315,693.9372 156.3516,870.2712 80.1514,946.1479 125.5648,900.1454 381.125,643.375 75.5157,950.6727 159.0376,867.5873 414.2297,611.9088 494.4217,530.9241 515.166,509.484 493.1607,530.9298 423.766,600.4885 114.9393,910.5719 2.3518,1024.0 164.5448,860.7115 431.1993,593.0611 498.2803,525.8456 516.173,508.4556 504.8824,520.272 464.3083,561.4667 276.1861,750.4128 115.5353,911.0817 74.5164,951.7471 239.4503,785.6337 430.137,594.2274 446.445,577.636 447.75,576.25 447.875,576.0 447.0,576.75 447.791,575.5898 451.8157,571.2907 483.5994,538.7986 606.4837,415.047 926.0819,94.9877 1015.8422,5.7357 843.8427,178.8531 547.3477,476.4727 541.5,482.5 546.776,477.651 545.4269,479.2329 534.4086,490.7588 384.2568,642.1324 174.6985,852.1453 41.3073,985.0825 92.9237,932.7895 459.3155,564.931 466.5,557.5 464.0046,559.463 464.6306,558.6433 477.1381,545.7483 592.3114,429.392 808.2098,212.9248 996.875,24.625 963.7365,58.3052 588.3162,435.4319 539.7918,483.9562 517.8236,505.3924 565.8293,456.4189 793.6664,227.7166 938.3788,83.3208 906.9559,115.2705 614.2667,409.2413 583.4531,440.4375 582.75,441.25 583.25,441.25 583.037,441.5168 577.0118,447.9532 547.0978,478.4906 390.2165,636.4073 128.8394,898.1605 2.6532,1024.0 255.9189,770.9419 434.161,592.2506 560.6494,464.7502 582.9204,441.796 586.012,438.4523 586.375,437.875 585.6944,438.2454 587.0026,436.808 597.0589,426.5721 851.0305,171.5062 933.4775,88.2956 730.199,291.3149 569.89,452.4008 522.49,500.723 561.8582,461.8897 617.2061,406.4126 910.8519,111.5289 986.0233,35.5324 888.7249,132.4358 579.0406,442.8306 489.8887,532.7935 473.875,549.5 478.375,545.5 478.0602,545.9074 464.1945,560.045 232.3818,792.6089 17.0943,1009.3676 80.9829,945.8921 378.3295,648.1729 521.1414,504.5266 563.5156,461.4219 568.8299,455.6076 567.25,456.75 567.7354,456.1629 578.902,444.7348 835.9768,186.7298 964.2816,57.426 871.7892,149.4611 647.974,373.6678 523.75,498.75 493.9531,529.4219 511.25,512.75 502.125,522.0 1.7825,1024.0"/>
    <polyline points="1020.5093,0.0 684.2198,336.6187 466.8419,554.8598 365.8006,657.0034 350.3008,673.0625 348.9755,674.7407 350.125,674.125 350.0938,674.3281 344.5384,680.2046 205.671,820.2075 329.6651,696.2075 388.3703,636.9974 391.261,633.8281 333.3623,691.6413 198.4024,827.5084 310.2837,715.7693 383.7086,641.8661 398.687,626.511 295.5736,729.5583 189.7472,836.1273 309.2043,716.791 396.3182,629.1659 407.0751,618.0534 321.3547,703.6119 179.8588,846.0416 301.6888,724.4214 404.8657,620.5986 416.5469,608.4688 337.0866,687.7966 168.23,857.733 263.0938,763.1406 405.1974,620.339 427.7185,597.2815 254.51,770.6943 154.2969,871.7031 292.9928,733.2532 417.4803,608.0534 441.0935,583.9062 423.9045,600.7234 349.4688,675.2969 136.8652,889.1267 158.9246,867.4956 249.3272,777.0946 438.2264,587.1972 457.6562,567.2344 365.4239,659.2097 113.8735,912.2572 252.0492,774.4817 444.5689,581.0885 479.4062,545.5156 462.4832,561.9623 381.125,643.375 433.2518,591.1556 447.0231,576.9444 447.375,576.5 446.3843,577.2407 448.091,575.1898 469.8563,552.7532 603.751,417.7786 921.5666,99.4334 1016.4095,5.1032 837.2444,185.548 596.3333,427.4124 528.3515,495.5227 510.6713,512.5885 529.2936,493.3882 581.7015,440.4359 726.2999,295.0786 917.5719,103.8071 946.088,75.6069 886.8778,135.5142 712.1435,311.0694 564.5,459.0556 543.0912,480.1588 549.8068,473.0021 585.5328,436.8243 710.3762,311.2652 911.4265,110.3391 852.2261,170.2048 605.8301,417.7428 601.1581,422.6672 600.4062,423.5938 600.4343,423.9604 598.1564,426.4751 573.904,451.4893 473.7365,552.6354 116.0495,911.0698 2.7678,1024.0 242.295,784.6861 413.8651,612.638 557.836,467.7304 592.7759,432.0802 596.5046,428.0602 597.375,426.875 597.0,427.0 597.1875,426.7031 613.2995,410.1688 833.2007,189.3501 916.3205,105.4513 771.9103,249.6178 560.906,461.6412 538.4514,484.7617 600.4335,423.1877 866.8997,155.6007 954.1913,67.4495 803.4514,217.9342 616.0288,405.8453 549.4179,472.9165 503.204,520.108 528.6979,495.2325 584.3044,439.4803 1021.8661,0.0 707.1801,316.2176 551.6989,472.0546 534.6334,489.2485 532.625,491.375 540.1777,484.373 519.7389,505.5944 401.4849,624.8747 169.5,857.25 48.4552,977.9062 237.4045,787.6352 447.6877,576.674 462.875,561.125 460.625,562.875 476.4659,546.3403 529.0951,492.941 620.2979,401.207 864.0804,157.0461 973.4858,47.7872 1000.6731,20.9736 792.0149,230.9398 562.0489,461.7051 549.2344,474.7031 548.5,475.5 552.284,472.23 547.1702,477.7817 508.2309,517.4477 383.3462,643.1442 103.7213,923.028 35.3297,991.047 375.8762,648.5921 486.375,537.875 502.4871,522.1708 497.9685,527.1106 466.2627,559.2702 253.9186,772.6757 89.3021,936.9837 237.0315,788.0548 410.0202,614.4803 465.6052,558.8955 473.9221,550.9167 448.9103,576.6239 280.3128,746.0915 119.7807,906.3746 223.8788,801.3171 381.6727,642.9576 440.2387,584.393 453.625,571.3704 436.3877,589.0562 314.8668,711.3555 141.1654,884.9074 262.3628,762.7152 437.8796,587.0832 416.883,608.6414 297.7693,728.4763 157.6982,868.3104 349.2744,675.5494 425.0522,600.0315 411.6992,613.7612 242.6629,783.5846 170.978,854.905 316.8023,708.1644 387.7541,637.0662 414.2176,610.963 306.5916,719.5017 182.3066,843.6538 321.2248,703.7426 405.0373,620.0906 396.08,629.2598 282.4727,743.6324 191.6223,834.2531 350.8863,673.8908 363.1152,661.332 363.6562,660.5938 362.6852,661.0972 365.8097,657.6054 392.6686,629.8505 505.4707,516.0049 722.5849,298.1657 1020.7969,0.0 801.8207,218.8295 548.9941,472.3506 390.6155,632.1567 372.3127,651.0913 370.9062,653.0156 371.5625,652.6719 365.1589,659.5193 181.7411,844.1573 218.4053,807.8443 377.917,647.8505 414.575,610.4624 235.7489,789.5791 170.7086,855.2743 308.7377,717.4364 410.2565,615.2102 425.463,599.6296 277.2515,747.7697 157.261,868.7012 216.3622,810.0109 401.3671,624.3456 438.2812,586.7344 368.0117,656.7384 248.5379,776.6153 140.6639,885.3711 259.6597,766.6977 380.4937,645.478 443.7391,581.6126 454.149,570.788 392.9257,631.7037 146.7611,878.9102 118.9584,907.1732 265.7352,760.7542 435.465,590.1919 474.6203,550.2413 462.0167,562.4849 405.7738,618.6744 171.9726,853.5009 88.1128,938.1316 256.3032,770.2397 464.3788,561.2431 503.536,521.197 484.179,540.0715 365.7208,658.7322 32.9388,993.4829 272.2884,754.4616 412.5489,613.8693 530.8832,494.571 553.5696,471.1349 554.4815,470.0231 550.875,473.125 555.2567,468.6204 893.5384,128.9448 995.0937,26.4407 820.1117,201.0378 554.6228,467.3366 480.0362,542.6923 465.588,557.8796 468.5,555.5 468.392,555.656 456.3851,567.8606 251.0436,773.9197 37.6549,988.6628 88.4206,938.3644 186.7743,840.0999 428.342,597.8647 532.5003,492.8533 549.6869,474.9161 550.125,474.375 545.625,478.375 553.0878,470.6691 860.983,161.6755 970.185,51.8744 1006.2448,15.2369 796.1156,225.0148 564.2701,457.4815 483.2041,539.3976 458.8419,564.4113 455.451,568.16 457.1719,566.7656 456.6724,567.4221 447.8042,576.4979 206.0274,819.2085 58.8544,967.4431 100.0829,926.5976 403.5808,622.6675 484.7204,540.9841 519.884,505.3268 530.6719,494.0 515.375,508.625 526.7055,497.1713 1022.1188,0.0 523.0,501.0 498.29,525.102 529.709,492.6919 629.7983,391.9699 765.8556,255.5205 959.4146,62.2377 787.289,235.615 602.8027,420.7287 569.875,454.125 571.375,453.125 553.697,471.5198 445.4915,580.8066 172.4438,854.5535 14.3587,1012.1339 87.065,938.6634 441.6939,582.5229 498.6769,525.5739 510.7506,513.9468 467.8204,557.7923 260.1465,766.4413 80.3313,945.9173 175.6142,849.801 440.7121,583.6088 479.2963,545.5714 446.3909,579.2438 305.7572,720.6049 114.0463,912.1343 203.588,821.7425 415.4667,608.8957 421.5469,602.5273 422.375,601.125 424.4626,598.8254 444.0735,578.5502 542.36,479.2994 759.71,261.3004 1021.1871,0.0"/>
    <polyline points="3.3882,1024.0 255.4525,771.9923 570.8785,455.4336 671.2035,354.0486 687.776,336.76 688.8398,335.3819 685.9213,337.5463 689.5592,333.5721 800.1277,221.9985 655.2611,367.1923 650.203,372.4683 716.1171,306.6851 805.3561,216.7689 756.7232,265.2879 644.8507,377.9086 717.7833,305.0893 811.3981,210.7269 644.0255,378.4809 638.893,383.865 689.4912,333.507 818.1944,203.9306 709.9067,312.0966 633.375,389.25 632.2731,390.4815 701.3833,321.6136 825.7525,196.2487 755.7302,266.1527 639.5133,382.9606 624.8644,397.8856 697.8519,325.1345 834.3911,187.6279 680.1693,341.9721 624.688,397.8977 616.4676,406.3472 624.0183,399.1061 696.7798,326.2127 844.3511,177.6449 728.9416,292.9007 624.4887,397.9613 606.8649,416.0101 742.4868,280.3671 856.0501,165.9733 730.6311,291.1444 603.543,419.1069 595.6931,427.3039 695.2556,327.8586 833.6997,188.7888 870.1347,151.8479 730.0783,291.7013 590.3877,432.2643 582.1961,440.7464 608.7141,414.6595 677.3497,345.8921 887.7003,134.2105 744.5933,277.094 630.6665,391.4673 565.4664,457.5379 597.6546,425.8374 633.4804,389.9464 852.0015,170.4319 910.9213,110.8822 714.2135,307.4354 593.7533,428.524 543.5077,479.6588 554.81,468.7436 605.2119,418.4113 945.2961,76.4131 835.9343,185.4428 695.3075,326.2601 549.8231,472.5998 514.8237,508.1906 511.4661,511.9158 544.125,479.75 700.25,323.125"/>
  </g>
</svg>
