<?xml version="1.0" encoding="utf-8" ?>
<svg xmlns="http://www.w3.org/2000/svg" xmlns:cc="http://creativecommons.org/ns" xmlns:dc="http://purl.org/dc/elements/1.1/" xmlns:ev="http://www.w3.org/2001/xml-events" xmlns:inkscape="http://www.inkscape.org/namespaces/inkscape" xmlns:rdf="http://www.w3.org/1999/02/22-rdf-syntax-ns" xmlns:sodipodi="http://sodipodi.sourceforge.net/DTD/sodipodi-0.dtd" xmlns:xlink="http://www.w3.org/1999/xlink" baseProfile="tiny" height="27.09333333cm" version="1.2" viewBox="0 0 1024.0 1024.0" width="27.09333333cm">
  <metadata>
    <rdf:RDF>
      <cc:Work>
        <dc:format>image/svg+xml</dc:format>
        <dc:source>vpype read './original_svgs/Strange Attractors #296.svg' linemerge linesimplify write './Strange Attractors #296.svg'
</dc:source>
        <dc:date>2024-08-05T01:35:46.157559</dc:date>
      </cc:Work>
    </rdf:RDF>
  </metadata>
  <defs/>
  <g fill="none" id="layer1" inkscape:groupmode="layer" inkscape:label="1" stroke="black" stroke-width="0.7mm" style="display:inline">
    <polyline points="504.0,563.375 508.25,554.375 513.5,544.75 516.625,540.25 520.875,535.5 524.625,532.5 528.25,530.625 531.75,529.625 538.75,529.25"/>
    <polyline points="539.875,529.25 545.75,530.0 551.875,531.25 570.625,536.5"/>
    <polyline points="571.75,536.875 577.25,538.625 540.375,529.75 524.0,526.5 504.75,523.375"/>
    <polyline points="494.5,522.0 474.125,520.5 464.5,520.5 455.75,521.0 447.875,522.0 441.25,523.5 435.875,525.5 431.75,527.75 428.75,530.25 426.875,533.0 426.0,535.625 425.875,538.125 426.375,540.5 427.5,542.625 430.625,546.125 434.75,548.375 436.875,549.0 441.125,549.625 445.25,549.25 449.125,548.25"/>
    <polyline points="450.875,547.5 452.625,546.75 455.625,544.875 458.375,542.75 462.625,538.125 464.875,534.625 466.0,532.25 467.375,527.75 467.625,522.625 467.25,520.625"/>
    <polyline points="467.125,519.625 465.25,514.875 463.5,512.0 460.625,508.25 455.0,502.375 446.625,494.625"/>
    <polyline points="445.25,493.5 436.625,485.0 432.0,479.875 427.375,473.75 424.375,469.125 420.25,460.75 417.875,454.0 416.125,446.25 415.125,437.0 415.0,431.75 415.375,426.0"/>
    <polyline points="416.0,419.75 419.0,405.375 421.375,397.25 424.625,388.375 428.75,378.875 434.0,368.75 440.25,358.0 447.75,346.75 456.75,335.25 467.0,323.875 478.625,313.0 491.5,303.125 505.375,295.0 519.875,289.0 534.5,285.75 548.875,285.875 562.375,289.375 574.625,296.375 585.25,306.375 593.875,318.875 600.75,333.25 605.75,348.75 609.0,364.5 611.0,380.125 611.75,395.25"/>
    <polyline points="611.75,409.375 611.0,422.375 609.75,434.125 608.125,444.75 604.25,462.375 600.25,476.0 596.125,486.375 590.625,497.25 584.375,506.25 575.5,516.125"/>
    <polyline points="574.875,516.75 573.625,518.75 572.875,521.0 573.375,523.75 576.0,527.0 581.5,530.875"/>
    <polyline points="582.625,531.5 589.75,535.125 597.25,538.375 606.125,541.875 624.625,548.375"/>
    <polyline points="626.75,549.0 637.75,552.25 640.125,552.5 638.625,551.5 632.875,549.0 620.375,544.125 597.125,536.0 580.0,530.5 558.625,524.0 532.75,516.75 502.875,509.375 470.125,502.625 436.625,497.625 405.125,495.5 378.0,497.0"/>
    <polyline points="356.875,502.125 342.375,510.375 333.75,521.0 329.875,532.875 329.25,545.125 330.75,557.0 333.375,568.125 336.75,578.25 343.75,595.5 347.125,602.5 350.5,608.5 353.75,613.625 356.875,617.75 360.125,621.25 363.375,623.875 366.625,625.875 369.875,627.125 373.25,627.75 376.75,627.875 380.125,627.375 383.75,626.375 390.75,623.125 397.75,618.375"/>
    <polyline points="401.125,615.625 407.75,609.625 416.75,599.875 422.0,593.25 429.0,583.625 434.75,574.625 439.375,566.625 444.75,555.125 447.25,547.375"/>
    <polyline points="447.625,545.625 448.5,539.25 448.25,534.875 447.375,531.0 445.875,527.25 443.75,523.75 441.0,520.375 437.625,517.125 433.625,514.0"/>
    <polyline points="432.25,512.875 425.75,508.5 418.25,504.0 391.875,489.375 383.25,484.125 374.125,477.75"/>
    <polyline points="371.125,475.375 368.0,472.75 361.875,466.75 356.0,459.375 353.25,455.125 350.625,450.125 348.25,444.5 346.25,438.125 344.75,430.625 344.0,421.875 343.875,411.75 345.0,399.625 347.5,385.375 352.0,368.375 359.0,348.25 369.25,324.625 383.75,297.0 403.375,265.625 429.125,231.375 461.75,196.25 500.875,164.0 544.875,139.75 590.375,129.25 633.0,136.375"/>
    <polyline points="668.375,161.625 694.25,201.125 710.625,248.625 719.125,297.875 722.125,344.25 721.875,385.375 719.5,420.0 716.375,448.25 712.5,470.75 708.375,488.25 703.875,501.5 698.875,511.125 693.375,517.875 687.125,522.0 680.25,524.125 672.625,524.5 664.5,523.5 655.875,521.375 646.875,518.5 637.75,515.0 611.125,502.75 588.125,491.25"/>
    <polyline points="581.5,487.875 570.0,482.375 556.125,476.75 552.375,475.5 542.875,473.375 537.875,473.0 533.5,473.25 529.75,473.875 523.5,476.0 516.0,479.625"/>
    <polyline points="515.0,480.25 508.875,483.375 504.375,485.25 500.0,486.5 497.5,486.875 492.5,486.875"/>
    <polyline points="491.625,486.875 484.75,485.25 479.375,482.875 473.75,479.375 468.875,475.375"/>
    <polyline points="468.0,474.5 465.0,471.375 460.375,465.0 457.875,460.375 455.125,452.875 453.75,446.125 453.25,438.125 453.625,432.125 454.75,425.5"/>
    <polyline points="455.5,422.0 457.875,414.5 461.375,406.5 465.875,398.25 471.875,389.75 475.25,385.625 483.125,377.875 487.5,374.375 492.125,371.25 497.0,368.5 502.0,366.375 507.125,364.875 512.25,364.0 517.25,363.875 522.125,364.5 526.875,366.0 531.25,368.125 535.375,371.125 539.0,374.625 542.375,378.875 545.125,383.5"/>
    <polyline points="547.5,388.625 549.5,393.875 551.0,399.5 553.0,410.875 553.5,422.0 553.125,432.5 551.875,442.125 551.0,446.625 548.0,458.375 543.5,470.625 538.875,479.875 535.625,485.125"/>
    <polyline points="534.625,486.625 532.75,489.375 527.0,496.5 518.625,504.875"/>
    <polyline points="518.25,505.125 513.625,508.875 512.0,509.75 510.875,510.125 509.0,510.125 506.375,509.25"/>
    <line x1="506.125" x2="500.5" y1="509.25" y2="506.75"/>
    <line x1="500.25" x2="489.375" y1="506.625" y2="501.125"/>
    <polyline points="488.875,500.75 476.5,493.375 469.125,487.875"/>
    <polyline points="468.125,487.125 465.0,484.5 458.5,478.125 455.25,474.25 452.0,469.625 448.0,462.375 446.25,458.0 444.75,453.125 443.625,447.625"/>
    <polyline points="443.25,444.625 442.875,434.5 443.75,426.625 445.5,417.875 448.625,408.125 453.25,397.375 459.75,386.0 463.75,380.125 468.25,374.375 473.25,368.625 478.875,363.125 484.875,358.0 491.375,353.375 498.25,349.375 505.25,346.25 512.5,344.125 519.75,343.125 526.875,343.375 533.625,344.875"/>
    <polyline points="540.0,347.5 545.875,351.5 551.125,356.375 555.75,362.375 559.625,369.125 562.75,376.375 565.25,384.0 567.0,391.875 568.25,399.875 569.0,407.75 569.25,415.375 569.125,422.625 568.625,429.625 568.0,436.25 566.0,448.125 564.875,453.375 560.875,466.875 558.125,474.125 552.875,485.25"/>
    <polyline points="551.625,487.375 547.375,494.625 539.5,506.25 538.0,508.875 536.875,512.125"/>
    <polyline points="536.875,512.625 536.875,514.5 537.375,516.125 538.625,518.0 541.0,520.125 544.375,522.375"/>
    <polyline points="545.0,522.625 548.5,524.625 553.75,527.0 569.875,533.375"/>
    <polyline points="571.25,533.75 594.625,542.0 589.125,540.25"/>
    <polyline points="586.25,539.375 564.0,533.0 533.0,525.375 505.5,519.875 490.375,517.5 475.0,515.625 459.875,514.625 445.75,514.5 433.0,515.375 422.25,517.375 413.75,520.25 407.25,524.0 402.875,528.125 400.375,532.625 399.25,537.25 399.375,541.625 400.375,545.625 402.0,549.375 404.125,552.625 406.5,555.25"/>
    <polyline points="409.0,557.5 414.0,560.625 418.875,562.0 421.125,562.125 425.125,561.75 428.75,560.375 431.625,558.5 434.125,556.125 436.75,552.25 438.0,549.625 439.0,545.625 439.25,542.875 439.0,540.375"/>
    <polyline points="438.75,539.125 438.125,536.625 435.75,532.0 433.125,528.875 429.75,525.75 425.625,522.875 417.375,518.5 406.75,514.625"/>
    <polyline points="404.375,514.0 396.625,512.125 390.875,511.125 381.375,510.125 374.375,510.0 362.5,510.75 353.75,512.5 343.875,515.375 338.625,517.5 333.0,520.25 327.0,523.625 320.75,527.875 314.0,533.0 306.75,539.375 299.0,547.25 290.75,556.875"/>
    <polyline points="282.0,568.625 272.75,582.875 263.125,600.125 253.375,620.75 243.75,645.125 235.125,673.5 228.125,705.25 224.375,739.5 225.375,774.0 232.75,805.625 247.5,830.25 269.75,844.125 297.875,845.125 329.5,833.375 361.5,811.25 391.375,782.5 417.5,750.75 439.125,719.125 456.375,689.375 469.375,662.875 478.875,639.75 485.375,620.0 489.375,603.375 491.25,589.5 491.5,578.0 490.375,568.625"/>
    <polyline points="488.25,560.875 485.375,554.75 482.0,549.625 478.25,545.75 474.375,542.625 470.625,540.375 467.0,538.75 460.875,537.0 456.5,536.875 454.0,537.625 453.375,538.25 453.5,539.5 455.0,540.75 458.75,541.875 463.75,542.0 467.25,541.625"/>
    <polyline points="469.0,541.25 477.625,538.75 483.875,536.0 493.0,531.125 501.875,525.875"/>
    <polyline points="502.625,525.5 506.375,523.375 511.375,521.125 514.625,520.125 517.625,519.625"/>
    <polyline points="518.125,519.625 521.0,519.5 524.625,519.875 531.375,521.375"/>
    <line x1="532.0" x2="552.875" y1="521.625" y2="528.5"/>
    <polyline points="554.0,528.875 571.5,535.0 585.75,539.625 553.875,528.5"/>
    <polyline points="586.625,540.0 588.75,540.75 570.375,535.5 549.0,530.0 528.625,525.375 503.75,520.875 490.375,518.875 476.75,517.5 463.5,516.625 451.125,516.625 439.875,517.5"/>
    <polyline points="430.375,519.125 422.5,521.625 416.5,524.625 412.375,528.125 409.75,532.0 408.375,535.75 408.25,539.5 408.875,543.125 410.25,546.25 412.0,549.0 414.125,551.5 418.75,554.875 423.625,556.875 425.875,557.25 430.25,557.25 434.125,556.25 439.0,553.625 440.375,552.625 442.75,550.125"/>
    <polyline points="443.75,548.875 446.125,545.0 447.5,541.0 448.125,537.0 447.875,533.25 447.0,529.625 444.75,525.0 441.375,520.625 439.25,518.5"/>
    <polyline points="438.125,517.375 432.875,513.125 424.75,507.75 417.0,503.125 392.875,489.75 387.375,486.375"/>
    <polyline points="384.375,484.5 378.5,480.5 369.375,473.375 363.25,467.5 360.25,464.125 354.625,456.0 352.0,451.25 349.625,445.75 347.625,439.5 346.0,432.375 345.0,423.875 344.75,414.125 345.625,402.5 347.875,388.75 351.875,372.5 358.25,353.25 367.625,330.5 381.0,304.125 399.125,273.875 423.25,240.5 454.0,205.75"/>
    <polyline points="491.25,172.75 534.0,146.375 579.0,132.375 622.25,135.0 659.25,155.75 687.25,191.75 705.75,237.25 716.0,286.0 720.25,333.0 720.75,375.125 718.875,411.25 715.875,440.875 712.25,464.75 708.25,483.5 703.875,497.75 699.0,508.25 693.75,515.75 687.875,520.625 681.25,523.375 674.0,524.25 666.25,523.75 657.875,522.125 649.25,519.5 640.375,516.375 622.625,508.75"/>
    <polyline points="614.125,504.625 572.5,484.375 562.625,480.125 554.375,477.125 544.625,474.875 541.875,474.5 537.125,474.375 533.0,474.625 529.375,475.375 521.875,478.125"/>
    <polyline points="520.625,478.75 510.875,483.875 505.375,486.25 501.125,487.5 497.0,488.125"/>
    <polyline points="496.125,488.125 492.0,488.0 485.25,486.5 479.0,483.75 474.25,480.75"/>
    <polyline points="473.375,480.125 469.375,477.0 464.5,472.125 460.75,467.125 459.0,464.25 457.25,461.0 455.0,455.5 453.375,449.0 452.625,444.0"/>
    <polyline points="452.5,441.375 452.5,435.625 453.125,429.25 454.5,422.25 456.875,414.625 460.375,406.375 465.0,397.875 467.75,393.5 474.5,384.875 482.625,376.75 487.0,373.125 491.875,369.875 496.875,367.0 502.0,364.75 507.25,363.125 512.5,362.25 517.75,362.125 522.75,362.75"/>
    <polyline points="527.625,364.25 532.125,366.5 536.375,369.625 540.25,373.25 543.5,377.625 546.5,382.5 548.875,387.75 550.875,393.25 552.5,399.0 553.625,404.875 554.375,410.75 554.875,422.125 554.375,433.0 553.75,438.0 552.25,447.25 550.25,455.5 548.0,462.625 544.5,471.625 543.25,474.125"/>
    <polyline points="542.125,476.5 539.875,480.75 534.625,489.0 529.5,495.75 522.375,503.5"/>
    <polyline points="522.0,503.875 517.125,508.75 515.25,511.5 515.25,512.5 515.875,513.25 521.875,516.25"/>
    <polyline points="508.5,515.375 511.5,512.875 513.0,512.625 531.875,520.25"/>
    <polyline points="522.5,516.5 537.125,522.375 551.375,527.625"/>
    <line x1="552.5" x2="584.25" y1="528.0" y2="539.125"/>
    <polyline points="585.375,539.5 590.0,541.0 572.75,536.0 551.75,530.5 531.375,525.75 519.375,523.375 492.625,518.875 478.625,517.25 464.875,516.25"/>
    <polyline points="451.875,516.125 440.25,516.875 430.125,518.375 421.75,520.875 415.375,524.0 410.875,527.5 408.0,531.5 406.625,535.5 406.25,539.375 406.875,543.0 408.25,546.375 410.0,549.375 412.125,551.875 414.375,554.0 419.25,556.875 424.0,558.125 426.25,558.375 428.375,558.25 432.375,557.375 435.75,555.75 438.625,553.75 435.75,555.75 432.5,557.5 428.625,558.5 426.5,558.625 422.0,558.125 419.625,557.375 417.125,556.25 414.75,554.75 412.375,552.75 410.125,550.375 408.25,547.5 406.75,544.25 405.875,540.625 405.75,536.75 406.875,532.75 409.25,528.75 413.25,525.0 419.125,521.625 426.875,519.0 436.5,517.125 447.875,516.125"/>
    <polyline points="437.875,521.625 440.75,524.875 443.0,528.25 444.125,530.625 444.875,533.0 445.625,538.0 444.875,543.25 443.875,546.0 442.625,548.625 439.875,552.5 442.875,548.75 444.25,546.125 445.625,542.125 446.125,536.875 445.625,533.125 444.375,529.5 442.5,526.125 438.875,521.75"/>
    <polyline points="437.875,520.625 431.5,515.375 419.625,508.0 404.125,500.25 387.75,492.75"/>
    <polyline points="384.75,491.375 375.125,487.0 361.375,480.0 354.0,475.875 342.75,468.25 339.0,465.25 331.625,458.0 328.0,453.625 324.625,448.75 321.5,442.875 318.875,436.125 316.625,428.125 315.25,418.625 314.875,407.0 315.875,393.0 318.75,375.75 324.375,354.5"/>
    <polyline points="333.75,328.5 348.0,296.625 368.875,258.5 398.25,214.25 438.0,166.0 488.5,118.75 548.0,81.125 610.875,64.125 668.875,75.5 714.5,115.625 744.5,175.75 760.25,243.875 766.25,309.875 766.5,367.75 763.875,415.375 760.125,453.0 755.625,481.75 750.375,502.875 744.125,517.625 736.375,527.125 726.75,532.0 715.25,533.25 701.75,531.125 686.75,526.5 670.625,519.75 654.125,511.75"/>
    <polyline points="637.75,502.875 622.25,493.625 607.75,484.5 583.25,467.875 564.875,454.125 539.0,434.0 534.0,430.625 532.125,429.75 529.375,429.0 527.375,429.75 526.0,431.25 524.75,433.5 523.125,437.75"/>
    <polyline points="522.625,439.25 517.625,451.625 513.875,458.25 511.5,461.625 509.0,464.5 506.5,467.0 503.875,469.0"/>
    <polyline points="503.0,469.5 498.75,471.75 493.625,473.0 490.25,473.0 486.75,472.5 481.625,470.5"/>
    <polyline points="480.75,470.125 477.375,467.875 474.125,464.875 471.125,461.125 469.0,457.75 467.75,455.125 466.25,450.75 465.125,445.625 464.75,441.875"/>
    <polyline points="464.75,439.875 464.875,435.625 465.5,431.0 466.625,426.125 469.25,418.25 473.5,410.0 475.25,407.25 479.375,401.875 484.125,396.875 486.75,394.625 492.5,390.625 498.625,387.625 501.75,386.625 508.125,385.75"/>
    <polyline points="511.25,385.875 514.25,386.375 520.0,388.625 522.625,390.375 525.0,392.5 529.25,397.625 530.875,400.625 533.75,407.25 534.75,410.75 536.125,418.0 536.75,425.25 536.625,432.375 536.0,439.25 534.875,445.5 531.75,456.5"/>
    <polyline points="530.875,459.0 527.125,467.375 522.25,475.375 519.375,479.125 513.875,484.625 509.625,487.75 508.0,488.625"/>
    <polyline points="507.125,489.125 501.75,491.125 497.25,491.75 493.375,491.625 487.875,490.375"/>
    <polyline points="487.0,490.125 482.875,488.625 476.5,485.25 468.75,479.625 463.75,474.75"/>
    <polyline points="462.75,473.625 458.75,468.5 454.25,460.375 452.75,456.375 450.875,449.75 450.125,444.625 449.875,435.75 450.5,429.0 452.0,421.5 454.5,413.375"/>
    <polyline points="456.125,409.125 458.125,404.625 463.125,395.375 469.625,385.875 473.5,381.25 482.375,372.375 492.625,364.875 498.0,361.875 503.75,359.5 509.5,357.875 515.25,357.125 520.875,357.25 526.375,358.125 531.625,360.125 536.5,362.875 540.875,366.5 544.875,370.875 548.25,375.875 551.25,381.375 553.625,387.375 555.5,393.5 556.875,399.875"/>
    <polyline points="557.875,406.25 558.75,418.75 558.25,430.625 557.0,441.375 554.125,455.125 551.75,462.875 546.875,475.125 544.5,480.0 541.125,485.875 536.125,493.25"/>
    <polyline points="535.25,494.5 527.625,504.0 523.875,509.5"/>
    <polyline points="523.75,509.75 523.125,511.625 523.125,512.625 524.0,514.5 524.875,515.375"/>
    <polyline points="525.0,515.625 527.75,517.5 534.375,520.75"/>
    <line x1="535.0" x2="555.375" y1="521.0" y2="528.875"/>
    <line x1="556.5" x2="588.375" y1="529.375" y2="540.375"/>
    <polyline points="589.125,540.625 590.5,541.125 564.75,533.75 538.25,527.25 514.125,522.25 486.625,518.0 472.5,516.625 458.875,515.875 446.25,516.125 435.0,517.25 425.625,519.25"/>
    <polyline points="418.0,522.0 412.375,525.375 408.625,529.25 406.375,533.25 405.5,537.25 405.625,541.125 406.625,544.75 408.125,548.0 410.125,550.75 414.75,555.125 417.25,556.5 422.0,558.375 426.625,558.75 430.625,558.125 434.125,556.75 438.5,553.625 441.625,549.875"/>
    <polyline points="442.5,548.625 444.25,544.625 445.0,541.875 445.25,536.75 444.625,533.0 442.625,528.25 441.125,526.0 437.375,521.625 433.75,518.5"/>
    <polyline points="432.5,517.5 424.75,512.375 415.125,507.125 398.5,499.625 374.25,489.875"/>
    <polyline points="370.75,488.5 352.0,481.125 330.875,471.75 321.875,467.0 312.75,461.375 303.625,454.25 299.25,449.875 295.0,444.875 291.0,438.875 287.5,431.75 284.625,423.0 282.625,412.375 282.0,399.0 283.25,382.0 287.25,360.5"/>
    <polyline points="295.125,333.0 308.75,297.75 330.375,253.125 363.25,198.25 410.75,134.5 475.25,68.25 554.875,13.5 603.6171,0.0"/>
    <polyline points="676.5879,0.0 717.375,11.625 772.25,76.75 802.875,166.25 814.875,258.75 816.5,340.625 813.75,406.875 809.5,457.375 804.375,494.25 797.625,519.875 788.375,536.0 775.125,543.875 757.25,544.75 734.875,539.375 709.0,529.0 681.375,514.875 653.875,498.625 628.25,481.375 605.625,464.25"/>
    <polyline points="586.625,448.0 571.375,433.125 559.625,419.875 551.0,408.25 545.0,398.25 541.375,389.875 539.5,383.0 539.0,377.625 539.75,373.75 541.25,371.125 543.375,369.875 545.75,369.875 548.375,370.875 550.875,373.0 553.25,376.125 555.5,380.0 557.375,384.5 559.0,389.5 560.25,394.875 561.125,400.5 561.875,412.25 561.875,418.0 561.5,423.625 560.25,434.5"/>
    <polyline points="559.375,439.5 557.25,448.875 554.75,457.0 550.875,467.375 548.25,473.0 543.25,482.125 538.75,489.0 531.75,498.0"/>
    <polyline points="531.0,498.75 524.25,506.75 522.125,510.25"/>
    <polyline points="522.0,510.5 521.75,511.375 521.875,513.25 523.5,515.25"/>
    <polyline points="523.75,515.375 526.0,517.0 532.5,520.125"/>
    <line x1="533.0" x2="552.0" y1="520.25" y2="527.75"/>
    <polyline points="533.125,520.75 547.875,526.375 584.875,539.25"/>
    <polyline points="586.0,539.625 590.375,541.125 558.0,532.0 528.125,525.0 502.25,520.25 488.375,518.25 474.25,516.75 460.625,516.0"/>
    <polyline points="436.75,520.625 431.625,516.375 425.375,512.25 418.0,508.125 402.0,500.5 385.125,493.375"/>
    <polyline points="382.0,492.125 357.625,481.75 349.875,478.125 333.5,469.375 325.125,463.75 320.875,460.375 316.75,456.75 312.625,452.5 308.75,447.5 305.125,441.875 301.875,435.0 299.25,426.875 297.375,417.0 296.625,404.875 297.375,389.75"/>
    <polyline points="300.5,370.875 306.625,347.25 317.375,317.375 334.125,280.25 359.5,234.75 396.0,181.375 446.0,123.25 509.875,68.5 583.5,30.875 657.25,25.0 719.25,57.875 761.625,122.75 784.625,203.0 793.5,283.125 794.375,353.625 791.625,411.125 787.5,455.625 782.625,488.75 776.625,512.25 768.875,527.875 758.5,536.625 744.875,539.625 728.0,537.625 708.25,531.5 686.625,522.0 664.25,510.375"/>
    <polyline points="642.25,497.375 621.75,484.0 603.5,470.875 587.625,458.5 574.375,447.125 563.625,437.0 555.125,428.25 548.5,420.625 543.625,414.25 537.75,404.75 536.25,401.5 535.625,399.25 535.375,397.75 535.625,397.0 536.125,397.125 537.625,398.875 539.875,405.25 541.375,414.375 541.625,421.25"/>
    <polyline points="541.5,424.75 540.5,435.125 539.875,438.5 537.75,447.875 536.0,453.625 533.0,461.125 530.0,467.5 524.75,475.875 519.875,481.875"/>
    <polyline points="519.0,483.0 514.5,487.125 509.625,490.5 506.625,492.0 503.625,493.0 499.375,493.75"/>
    <polyline points="498.625,493.875 493.625,493.625 489.875,492.875 485.125,491.25 479.125,488.375"/>
    <polyline points="478.25,487.875 473.5,484.875 469.625,482.0 463.5,476.375 458.375,470.125 455.5,465.625 453.75,462.25"/>
    <polyline points="452.875,460.375 451.25,456.375 450.0,451.875 449.0,446.75 448.5,441.125 448.5,434.875 449.25,427.75 450.875,420.0 452.125,415.875 453.625,411.5 457.625,402.25 463.0,392.5 470.125,382.625 474.25,377.75 483.75,368.75"/>
    <polyline points="489.125,364.75 494.75,361.25 500.5,358.25 506.5,356.125 512.625,354.75 518.625,354.25 524.5,354.75 530.125,356.25 535.375,358.75 540.25,362.125 544.625,366.25 548.5,371.25 551.75,376.75 554.5,382.875 556.75,389.25 558.375,395.75 559.625,402.5 560.375,409.125 560.75,422.0 560.0,434.0 558.5,444.75 556.375,454.125"/>
    <polyline points="555.25,458.375 551.5,469.25 546.625,480.125 544.25,484.5 539.125,492.625 531.25,503.125"/>
    <polyline points="530.75,503.75 527.125,509.25 526.375,511.375 526.5,513.625"/>
    <polyline points="526.625,513.875 527.625,515.625 528.875,516.75 533.875,519.875"/>
    <polyline points="534.375,520.125 539.75,522.625 553.375,528.0"/>
    <polyline points="554.375,528.375 574.5,535.625 586.5,539.625"/>
    <polyline points="587.625,540.0 591.125,541.25 559.875,532.375 541.375,527.875 530.125,525.375 504.25,520.375 490.125,518.375 475.75,516.75 461.875,515.875 448.75,515.75"/>
    <polyline points="437.0,516.625 427.0,518.5 418.875,521.125 412.75,524.5 408.5,528.25 406.0,532.25 404.75,536.375 404.75,540.375 405.5,544.125 407.0,547.5 408.875,550.5 411.125,553.0 413.5,555.0 418.375,557.75 420.875,558.625 425.375,559.25 429.5,558.625 431.375,558.125 434.625,556.5 437.5,554.375 438.625,553.125"/>
    <polyline points="439.75,551.875 442.25,548.0 444.125,542.625 444.5,540.0 444.125,534.875 442.875,531.25 441.125,527.875 438.625,524.5 435.375,521.25"/>
    <polyline points="434.25,520.25 430.25,517.125 423.875,513.125 412.0,507.125 402.5,503.0 394.375,499.875 379.125,494.5"/>
    <polyline points="375.75,493.5 365.0,490.125 348.875,485.75 335.375,482.75 325.5,481.0 314.875,479.625 303.25,479.0 290.375,479.625 283.5,480.75 276.0,482.5 268.0,485.125 259.375,489.0 249.875,494.375 239.375,502.125 227.625,512.75"/>
    <polyline points="214.5,527.375 199.5,547.375 182.5,574.75 163.5,611.75 143.125,661.25 123.125,725.625 107.75,805.0 104.5,894.125 123.125,977.375 164.1116,1024.0"/>
    <polyline points="265.0875,1024.0 323.625,992.75 397.0,920.0 453.0,839.75 489.5,765.875 508.625,703.75 512.875,653.75 504.875,614.0 486.75,582.625 460.875,558.125 430.125,539.75 398.125,527.625 368.5,521.75 344.125,521.875 326.625,527.375 315.75,536.75"/>
    <polyline points="310.625,548.625 309.5,561.75 311.125,575.125 314.375,587.875 318.5,599.625 323.0,610.25 327.75,619.625 332.625,627.625 337.625,634.375 342.75,639.75 348.0,643.75 353.5,646.625 359.0,648.125 364.75,648.625 370.5,648.0 376.375,646.375 382.25,644.0 388.0,640.875 393.75,637.125 399.25,632.875 409.875,623.5 414.75,618.5 428.0,603.5"/>
    <polyline points="431.875,598.625 442.25,585.0 457.375,563.375 470.0,544.125 477.0,531.75"/>
    <polyline points="477.625,530.5 479.75,525.125 480.75,518.875 480.25,515.0 478.875,511.5 477.625,509.375"/>
    <polyline points="477.125,508.75 474.375,505.25 470.0,500.875 456.0,488.125"/>
    <polyline points="454.75,487.0 448.625,480.5 443.625,474.125 438.75,466.125 435.5,458.75 433.0,449.875 432.0,442.875 431.625,434.75 432.375,425.375"/>
    <polyline points="433.25,420.25 434.375,414.625 438.125,402.375 444.125,388.625 448.0,381.25 452.625,373.625 458.125,365.75 464.375,357.875 471.375,350.125 479.125,342.75 487.625,336.0 496.875,330.0 506.375,325.25 516.25,322.0 526.25,320.375 535.875,320.75 545.125,323.0 553.625,327.125 561.25,333.125 567.875,340.75 573.5,349.625 577.875,359.5 581.25,369.875 583.75,380.625"/>
    <polyline points="585.25,391.375 586.0,401.875 586.25,412.0 585.875,421.5 585.25,430.375 584.125,438.625 581.5,453.0 580.0,459.25 576.75,470.0 572.0,482.25 566.25,493.625 558.0,506.25"/>
    <polyline points="557.375,507.375 555.125,511.0 554.125,513.25 553.625,515.25 553.625,517.125 554.0,518.75 555.125,520.875 557.625,523.5"/>
    <polyline points="558.125,524.0 561.75,526.5 569.625,530.625 581.375,535.625 586.0,537.25"/>
    <polyline points="587.5,537.875 597.0,541.375 607.5,544.75 595.5,540.5 574.25,534.0"/>
    <polyline points="563.625,531.0 536.0,523.75 519.0,519.875 500.5,516.25 480.875,513.0 461.125,510.625 442.125,509.5 424.875,509.875 410.125,511.875 398.375,515.375 389.75,520.125 384.0,525.875 380.75,532.0 379.5,538.25 379.875,544.375 381.125,550.125 383.25,555.375 385.75,559.875 388.5,563.75 394.125,569.625 396.875,571.75 399.5,573.25 404.25,574.875"/>
    <polyline points="406.375,575.125 410.25,574.875 415.0,572.75 417.375,570.625 420.125,567.0 421.375,564.5 422.25,561.875 422.75,556.875 422.125,553.375 420.75,550.25 420.0,549.375"/>
    <polyline points="419.375,548.375 415.625,545.125 411.875,543.375 407.25,542.0 399.875,541.25 393.375,541.75 385.75,543.5 380.125,545.375 370.75,550.0"/>
    <polyline points="367.25,552.125 360.125,557.375 356.25,560.625 348.375,568.5 340.0,578.75 331.375,591.5 323.125,607.375 319.25,616.5 315.625,626.375 312.625,636.875 310.25,647.875 308.75,659.25 308.25,670.5 309.125,681.375 311.375,691.5 315.25,700.125 320.75,707.0 327.875,711.5 336.375,713.625 346.125,713.0 356.625,709.75"/>
    <polyline points="367.75,704.125 379.0,696.5 390.0,687.375 400.625,677.125 410.75,666.375 420.0,655.25 428.5,644.375 443.375,623.625 482.25,563.625 492.0,550.875 499.75,542.875"/>
    <polyline points="501.5,541.5 506.5,537.875 509.5,536.125 516.75,533.125 523.375,531.625 531.0,531.0 536.0,531.125 514.5,527.625 501.875,526.25 489.125,525.375 482.875,525.25 471.625,525.75 466.75,526.375 458.875,528.25 453.625,530.75 452.0,532.125 450.875,533.5 450.375,534.875 450.375,536.25 450.75,537.375 452.5,539.375 453.75,540.25 455.25,540.75"/>
    <polyline points="537.25,531.25 547.125,532.5 557.625,534.75 564.125,536.5"/>
    <polyline points="564.625,536.625 564.875,536.75 542.75,531.875 526.75,528.875 513.625,526.875 499.375,525.125 492.0,524.625 477.875,524.125 471.375,524.375"/>
    <polyline points="465.5,524.875 460.25,525.75 455.75,526.875 452.0,528.125 449.125,529.625 446.875,531.25 445.5,532.875 444.625,534.5 444.5,536.125 444.75,537.625 445.375,539.0 446.375,540.125 449.25,542.0 450.875,542.625 454.5,543.25 460.125,543.125 463.875,542.375 470.625,539.75"/>
    <polyline points="472.125,539.0 477.75,535.625 483.25,531.25 488.75,525.625 490.375,523.625 492.75,519.875"/>
    <polyline points="493.0,519.375 494.125,515.75 494.25,514.0 493.625,511.25 492.0,508.625"/>
    <polyline points="491.625,508.25 489.5,505.875 486.625,503.5 478.125,497.375"/>
    <polyline points="477.375,496.75 470.375,491.625 463.25,485.75 456.625,479.125 452.125,473.5"/>
    <polyline points="451.0,472.0 447.75,466.75 445.75,462.75 443.875,458.25 442.375,453.25 441.125,447.5 440.5,441.125 440.375,437.5 440.75,429.75 441.375,425.5 443.375,416.125 446.75,405.75 451.875,394.25 455.125,388.25 459.0,382.0"/>
    <polyline points="463.375,375.75 468.375,369.5 474.0,363.5 480.125,357.625 486.75,352.25 493.875,347.5 501.25,343.5 509.0,340.5 516.75,338.75 524.5,338.125 532.0,339.0 539.125,341.25 545.75,344.875 551.625,349.625 556.875,355.625 561.375,362.5 565.0,370.125 567.875,378.375 570.125,386.75 571.625,395.25 572.5,403.625 572.875,411.875 572.875,419.875 572.5,427.375 570.875,441.0"/>
    <polyline points="569.75,447.25 567.25,458.125 564.5,467.25 558.875,481.125 553.75,490.75 543.375,507.0"/>
    <polyline points="542.875,507.75 541.125,511.625 540.875,515.25 541.75,517.5 544.25,520.375"/>
    <polyline points="544.75,520.75 546.875,522.375 551.875,525.25 566.25,531.5"/>
    <polyline points="567.5,532.0 579.875,536.625 596.625,542.375"/>
    <polyline points="596.125,542.125 579.25,537.0 556.125,530.625 545.375,527.875 519.125,522.0 504.125,519.25 488.25,516.75 472.125,514.75 456.375,513.75 441.75,513.75 428.875,514.875 418.0,517.125 409.375,520.25 403.125,524.375 399.0,528.875 396.625,533.625 395.875,538.375 396.25,543.0"/>
    <polyline points="397.5,547.25 399.25,551.125 401.5,554.375 404.0,557.25 406.5,559.5 411.625,562.5 414.125,563.375 418.75,564.125 420.875,564.0 424.5,563.0 427.75,561.375 430.375,559.25 432.375,556.75 434.0,554.125 435.125,551.5 436.0,547.375"/>
    <polyline points="436.125,546.125 436.0,543.5 434.75,538.625 432.125,534.125 429.25,531.125 427.0,529.125 422.875,526.375 418.125,524.0 410.375,521.125"/>
    <polyline points="408.25,520.5 401.25,518.875 396.0,518.125 390.25,517.625 380.75,517.75 373.625,518.5 365.875,520.0 357.25,522.5 352.625,524.375 342.625,529.375 337.25,532.75 331.5,536.75 325.375,541.625 319.0,547.625 312.25,554.75 305.125,563.25"/>
    <polyline points="297.625,573.375 289.75,585.5 281.75,599.75 273.75,616.375 265.875,635.625 258.75,657.625 252.875,682.0 249.125,708.25 248.375,735.0 251.625,760.625 259.75,782.75 273.25,799.0 291.625,807.25 313.875,806.5 338.5,797.0 363.5,780.375 387.375,758.75 409.125,734.375 427.875,709.5 443.625,685.5 456.5,663.25 466.75,643.25 474.75,625.625 480.875,610.5 485.25,597.5 488.375,586.5"/>
    <polyline points="490.5,577.25 491.75,569.5 492.25,563.125 492.25,557.75 491.875,553.25 490.25,546.625 488.0,542.25 485.875,539.375 484.0,537.75 481.625,536.25 485.75,536.375"/>
    <polyline points="486.75,536.25 493.875,535.625 507.375,533.375 519.375,531.75"/>
    <polyline points="520.625,531.75 525.75,531.375 535.75,531.625 544.25,532.625 551.25,533.875"/>
    <polyline points="552.25,534.125 561.0,536.25 540.375,531.875"/>
    <polyline points="456.75,541.25 460.25,541.75 463.75,541.625 467.375,541.125 472.625,539.625 477.375,537.625 483.125,534.625 492.875,528.0"/>
    <polyline points="493.75,527.375 498.125,523.875 506.0,516.875"/>
    <polyline points="506.25,516.625 509.375,513.5 510.0,512.0 509.75,511.5 508.5,510.625 505.75,509.375"/>
    <line x1="505.5" x2="499.625" y1="509.25" y2="506.375"/>
    <line x1="499.375" x2="487.875" y1="506.25" y2="500.25"/>
    <polyline points="487.25,500.0 475.25,492.5 466.625,485.875"/>
    <polyline points="465.625,485.0 461.25,481.0 455.875,475.0 451.5,468.875 448.5,463.375 446.625,459.125 444.375,451.875 443.375,446.25 442.875,439.875"/>
    <polyline points="442.875,436.5 443.0,432.75 444.0,424.625 446.125,415.625 449.5,405.625 454.625,394.75 461.5,383.25 465.75,377.375 470.625,371.5 475.875,365.875 481.625,360.625 487.875,355.625 494.625,351.375 501.5,347.75 508.75,345.125 516.0,343.5 523.125,343.0 530.125,343.875 536.75,345.875 542.875,349.25 548.5,353.625"/>
    <polyline points="553.5,359.125 557.625,365.5 561.25,372.5 564.0,380.0 566.125,387.75 567.75,395.75 568.75,403.625 569.25,411.375 569.25,418.875 569.0,426.0 567.625,439.25 565.5,450.75 563.0,460.5 560.25,468.75 557.5,475.75 553.625,484.0 550.0,490.375"/>
    <polyline points="548.875,492.125 545.125,498.125 539.75,505.875 537.25,510.875 536.875,513.375"/>
    <polyline points="536.875,513.75 537.375,515.875 538.875,518.125 542.375,521.125 546.0,523.25"/>
    <polyline points="546.75,523.625 550.625,525.625 557.375,528.5 573.375,534.625"/>
    <polyline points="574.75,535.125 594.625,542.0 579.625,537.375"/>
    <polyline points="574.125,535.75 549.375,529.25 525.625,523.75 511.75,521.0 496.875,518.5 481.5,516.375 466.125,515.0 451.5,514.375 438.125,514.875 426.625,516.375 417.0,519.0 409.75,522.375 404.5,526.375 401.25,530.75 399.5,535.25 399.125,539.75 399.875,544.0 401.25,547.875 403.125,551.25 405.375,554.25 410.375,558.625 412.875,560.125"/>
    <polyline points="415.375,561.125 417.875,561.875 420.125,562.125 424.375,561.875 428.0,560.75 429.625,559.875 433.625,556.75 435.625,554.25 437.125,551.5 438.625,547.5 439.125,544.875 439.125,542.25 438.875,539.625 438.25,537.25"/>
    <polyline points="437.75,536.0 436.0,532.5 433.5,529.25 429.0,525.25 424.75,522.375 419.875,519.75 414.25,517.25 407.75,515.0 400.375,513.0"/>
    <polyline points="397.75,512.375 386.0,510.625 375.75,510.0 368.25,510.375 360.0,511.25 350.875,513.375 340.75,516.75 335.25,519.25 329.5,522.375 323.25,526.25 316.75,531.0 309.625,537.0 302.125,544.25 294.125,553.125 285.625,564.0 276.5,577.25 267.0,593.25"/>
    <polyline points="257.25,612.5 247.625,635.375 238.5,662.125 230.75,692.625 225.75,726.0 224.625,760.625 229.375,793.75 241.25,821.375 260.625,839.75 286.625,845.875 317.125,838.875 349.25,820.375 380.0,793.875 407.75,763.0 431.125,731.125 450.0,700.625 464.625,672.75 475.5,648.375 483.0,627.25 488.0,609.5 490.625,594.625 491.5,582.375 491.0,572.125 489.25,563.875 486.625,557.125 483.5,551.625"/>
    <polyline points="480.0,547.25 476.25,543.875 472.375,541.25 465.375,538.0 462.375,537.25 457.625,536.875 454.75,537.375 453.625,538.625 454.125,539.875 454.875,540.375 457.125,541.375 460.0,541.875 465.0,541.875 472.125,540.5"/>
    <polyline points="473.875,540.0 480.5,537.625 483.5,536.25 490.375,532.75 504.25,524.875"/>
    <polyline points="505.0,524.375 512.875,521.0 516.625,520.125 519.75,519.875"/>
    <polyline points="520.25,519.875 525.5,520.25 534.625,522.5"/>
    <line x1="535.25" x2="558.875" y1="522.75" y2="530.625"/>
    <polyline points="560.0,531.0 588.625,540.75 568.5,535.0 536.0,527.0 512.625,522.375 499.625,520.25 486.125,518.375 472.625,517.125 459.625,516.625 447.625,516.875 436.875,518.0 427.875,519.875 420.75,522.5 415.25,525.75 411.625,529.375 409.375,533.125"/>
    <polyline points="408.5,537.0 408.625,540.625 409.5,544.0 411.0,547.125 412.875,549.75 415.0,552.0 419.75,555.25 424.5,556.875 429.0,557.25 431.125,557.0 434.875,555.875 438.25,554.25 441.0,552.125 444.25,548.375 445.875,545.75 447.0,543.125"/>
    <polyline points="447.5,541.75 448.125,539.125 448.375,535.25 447.875,531.625 446.125,526.875 443.25,522.375 441.375,520.125 436.875,515.875 432.75,512.625"/>
    <polyline points="431.25,511.625 419.0,503.875 395.5,490.5 387.25,485.375 378.5,479.375 372.5,474.5"/>
    <polyline points="369.5,471.75 366.5,468.875 360.75,462.0 355.375,453.375 352.875,448.25 350.75,442.375 349.125,435.625 347.875,427.75 347.375,418.625 347.75,408.0 349.375,395.375 352.5,380.5 357.625,363.0 365.5,342.25 376.75,318.125 392.25,290.25 413.0,259.125 439.875,225.75 473.0,192.5 512.125,163.375 555.125,143.25 598.375,137.125 637.875,148.25 670.0,175.625"/>
    <polyline points="693.0,215.375 707.25,261.625 714.5,308.625 716.875,352.5 716.125,391.0 713.875,423.625 710.625,450.25 706.875,471.5 702.75,488.125 698.375,500.75 693.625,510.0 688.375,516.5 682.5,520.75 676.125,523.0 669.125,523.625 661.625,523.0 653.75,521.375 645.5,519.0 637.125,515.875 628.75,512.5 612.5,505.25 584.5,491.875"/>
    <polyline points="578.625,489.125 563.75,482.875 555.75,480.25 549.125,478.625 543.5,477.875 536.625,477.875 531.0,478.75 523.625,481.375 517.625,484.25"/>
    <polyline points="516.625,484.875 509.125,488.625 503.375,490.625 498.625,491.5 495.625,491.5"/>
    <polyline points="494.875,491.5 490.125,490.875 485.25,489.375 480.875,487.5 473.5,483.125"/>
    <polyline points="472.5,482.375 467.625,478.375 463.5,474.25 460.5,470.625 457.625,466.5 454.125,459.75 452.625,455.75 450.5,446.375"/>
    <polyline points="450.25,443.75 450.0,437.875 450.375,431.375 451.5,424.25 453.625,416.375 456.875,407.875 458.875,403.375 461.375,398.75 464.125,394.125 470.875,384.625 479.125,375.625 488.875,367.625 494.125,364.25 499.625,361.5 505.375,359.375 511.125,357.875 516.75,357.375 522.375,357.75"/>
    <polyline points="527.75,359.0 532.875,361.125 537.625,364.125 541.875,367.875 545.625,372.5 548.875,377.625 551.625,383.25 553.875,389.125 555.625,395.375 557.0,401.75 557.875,408.125 558.5,420.5 558.375,426.375 557.375,437.5 555.625,447.5 553.5,456.125 551.25,463.625 546.375,475.625"/>
    <polyline points="545.125,478.125 540.625,486.25 536.625,492.25 526.125,505.625"/>
    <polyline points="525.75,506.0 524.25,508.0 523.0,510.5 522.75,511.5 523.0,513.25"/>
    <polyline points="523.0,513.5 524.875,515.75 528.75,518.125"/>
    <polyline points="529.125,518.375 538.75,522.625 544.0,524.625"/>
    <line x1="544.875" x2="573.25" y1="525.0" y2="535.25"/>
    <polyline points="574.625,535.75 590.5,541.125 563.625,533.5"/>
    <polyline points="555.875,531.5 536.5,526.875 512.125,521.875 498.5,519.625 484.375,517.75 470.375,516.5 456.875,515.875 444.375,516.25 433.5,517.5 424.375,519.625 417.125,522.5 411.75,526.0 408.25,529.875 406.25,533.875 405.5,537.875 405.875,541.75 406.875,545.25 408.5,548.375 410.5,551.125 412.875,553.5 415.25,555.25 417.625,556.75 422.5,558.375"/>
    <polyline points="424.75,558.625 427.0,558.75 429.0,558.5 432.75,557.375 434.5,556.5 438.75,553.375 441.875,549.625 443.375,547.0 445.125,541.625 445.375,537.75 445.125,535.25 444.25,531.5"/>
    <polyline points="443.75,530.375 441.875,526.875 439.375,523.625 433.75,518.25 427.875,514.125 422.875,511.125 408.25,503.75"/>
    <polyline points="405.875,502.625 395.5,498.125 359.625,483.625 339.5,474.875 326.5,468.125 317.625,462.5"/>
    <polyline points="313.125,459.125 308.75,455.5 304.375,451.25 300.25,446.25 296.375,440.5 293.0,433.625 290.125,425.25 288.125,415.0 287.25,402.25 288.125,386.375 291.5,366.25 298.5,340.75 310.375,308.125 329.5,267.25 358.5,216.625 400.5,157.375 458.125,93.75 530.875,37.0 612.375,4.125 689.75,11.25 750.0,61.375 786.875,141.25 804.0,230.5 808.75,313.5 807.25,383.0 803.5,437.5"/>
    <polyline points="798.875,478.25 793.125,507.5 785.5,527.125 775.0,538.625 760.5,543.0 742.0,541.375 719.75,534.5 694.875,523.5 669.125,509.75 644.0,494.5 620.875,478.625 600.625,463.125 583.5,448.625 569.625,435.5 558.875,423.625 550.75,413.5 545.0,404.625 541.25,397.375 539.0,391.375 538.0,386.75 538.125,383.375 538.875,381.0 540.125,379.875 541.75,379.75 543.625,380.5 545.5,382.125"/>
    <polyline points="547.25,384.5 549.0,387.625 550.5,391.25 552.75,399.75 554.0,409.125 554.25,414.125 554.125,423.875 552.375,437.75 549.625,450.0 547.375,457.125 545.0,463.375 542.625,468.875 537.875,477.75"/>
    <polyline points="536.75,479.625 530.5,488.5 525.375,494.5 520.0,499.625 517.25,501.75"/>
    <polyline points="516.875,502.125 512.0,505.125 508.0,506.375"/>
    <polyline points="507.625,506.375 503.875,506.25 499.75,505.125"/>
    <polyline points="499.375,505.0 494.75,503.125 487.0,499.125"/>
    <polyline points="486.25,498.75 479.75,495.0 474.625,491.625 468.875,487.375 464.75,483.875"/>
    <polyline points="463.75,482.875 461.5,480.875 457.125,476.125 453.875,471.875 450.75,467.0 447.875,461.25 446.125,456.75 444.75,451.875 443.75,446.25 443.25,439.875 443.375,432.75"/>
    <polyline points="443.75,428.875 445.25,420.375 448.0,410.875 449.875,405.875 452.125,400.5 454.875,395.0 461.75,383.625 466.0,377.875 475.875,366.5 481.625,361.25 487.875,356.375 494.375,352.125 501.25,348.5 508.375,345.875 515.5,344.25 522.625,343.75 529.5,344.5 536.125,346.5 542.25,349.75 547.75,354.0 552.75,359.375 557.0,365.625"/>
    <polyline points="560.5,372.5 563.375,379.875 565.5,387.625 568.125,403.25 568.75,418.375 568.5,425.5 567.875,432.375 567.125,438.625 565.0,450.125 563.875,455.25 561.25,464.25 558.5,471.875 554.5,481.0 552.0,485.875 547.5,493.375"/>
    <polyline points="546.5,495.0 540.375,503.875 537.375,508.875 536.25,512.625 536.25,513.875"/>
    <polyline points="536.25,514.375 536.75,516.0 537.75,517.5 539.875,519.625 543.5,522.125 546.25,523.5"/>
    <polyline points="546.875,523.875 557.75,528.75 574.0,534.875"/>
    <polyline points="575.375,535.375 594.375,541.875 576.25,536.5"/>
    <polyline points="570.0,534.625 553.375,530.25 517.5,522.125 503.125,519.5 488.0,517.25 472.625,515.5 457.75,514.625 443.875,514.625 431.625,515.75 421.25,517.875 413.0,520.875 406.875,524.625 402.875,528.875 400.5,533.375 399.625,537.875 399.875,542.125 401.0,546.125 402.75,549.75 404.875,552.875 407.25,555.5 409.75,557.625 414.75,560.5"/>
    <polyline points="417.25,561.375 421.75,561.875 425.875,561.375 430.875,559.125 434.625,555.75 437.25,551.875 438.5,549.125 439.25,546.5 439.625,541.125 439.25,538.625 438.5,536.25"/>
    <polyline points="438.0,535.0 435.25,530.5 433.375,528.375 430.125,525.375 424.5,521.5 415.75,517.125 411.625,515.5 399.75,512.0"/>
    <polyline points="397.0,511.375 391.375,510.25 385.125,509.5 374.875,508.75 363.125,509.25 354.375,510.625 344.75,513.25 339.5,515.125 334.0,517.5 321.875,524.375 315.25,529.125 308.125,535.0 300.5,542.25 292.25,551.125 283.625,562.0 274.375,575.375 264.625,591.75"/>
    <polyline points="254.625,611.375 244.5,634.875 235.0,662.375 227.0,693.875 221.5,728.625 220.375,764.75 225.375,799.25 237.875,828.125 258.25,846.875 285.75,852.5 317.75,844.375 351.25,824.25 383.0,795.875 411.25,763.375 434.875,730.25 453.625,698.875 467.875,670.5 478.25,645.75 485.25,624.625 489.5,606.875 491.5,592.0 491.5,579.75 490.125,569.75 487.625,561.625 484.375,555.0 480.375,549.75"/>
    <polyline points="476.125,545.5 471.75,542.375 467.5,540.0 463.5,538.375 459.75,537.375 456.5,536.75 451.75,537.0 450.125,537.375 449.125,538.125 448.5,539.625 448.875,540.375 450.625,541.875 453.25,542.875 456.5,543.375 460.125,543.375 463.875,542.875 469.25,541.5"/>
    <polyline points="471.125,540.875 477.625,538.0 483.375,534.875 493.125,528.125 499.0,523.375"/>
    <line x1="499.625" x2="508.25" y1="522.875" y2="515.5"/>
    <polyline points="586.875,540.0 590.0,541.0 557.25,531.875 538.5,527.375 514.875,522.5 487.625,518.25 473.75,516.875 460.25,516.125 447.625,516.25"/>
    <polyline points="436.5,517.25 427.0,519.25 419.375,521.875 413.625,525.125 409.75,528.875 407.375,532.875 406.375,536.875 406.5,540.625 407.375,544.25 408.875,547.5 410.75,550.25 415.25,554.625 420.125,557.125 424.875,558.25 427.125,558.375 431.125,557.75 434.75,556.375 437.75,554.375 440.25,552.125"/>
    <polyline points="441.375,550.875 443.875,547.0 445.0,544.25 446.0,540.25 446.0,535.125 444.75,530.25 443.0,526.75 439.625,522.375 437.5,520.25"/>
    <polyline points="436.375,519.125 432.5,516.0 427.875,512.875 419.0,507.625 410.5,503.25 383.75,490.875"/>
    <polyline points="380.625,489.375 370.75,484.75 356.625,477.125 345.375,469.875 337.875,463.75 334.25,460.25 327.125,451.625 323.875,446.25 321.0,440.125 318.5,432.875 316.625,424.125 315.625,413.75 315.75,401.25 317.625,385.875 321.625,367.0 328.75,343.875 340.0,315.5"/>
    <polyline points="356.875,281.25 381.125,240.625 414.625,194.5 458.75,146.25 513.125,102.25 574.5,72.375 636.0,66.875 689.125,90.75 727.875,140.25 751.375,204.75 762.625,272.5 765.75,335.125 764.5,388.5 761.375,431.75 757.25,465.375 752.5,490.75 746.875,509.125 740.25,521.625 731.875,529.25 721.625,532.625 709.5,532.5 695.625,529.5 680.25,524.125 664.125,517.0 647.875,508.75 632.0,499.875"/>
    <polyline points="617.0,490.75 603.125,482.0 590.75,473.625 570.5,459.125 538.25,434.5 533.375,431.5 530.125,430.375 527.75,430.625 526.875,431.125 525.375,432.75 524.125,435.0 521.875,440.625"/>
  </g>
</svg>
