<?xml version="1.0" encoding="utf-8" ?>
<svg xmlns="http://www.w3.org/2000/svg" xmlns:cc="http://creativecommons.org/ns" xmlns:dc="http://purl.org/dc/elements/1.1/" xmlns:ev="http://www.w3.org/2001/xml-events" xmlns:inkscape="http://www.inkscape.org/namespaces/inkscape" xmlns:rdf="http://www.w3.org/1999/02/22-rdf-syntax-ns" xmlns:sodipodi="http://sodipodi.sourceforge.net/DTD/sodipodi-0.dtd" xmlns:xlink="http://www.w3.org/1999/xlink" baseProfile="tiny" height="27.09333333cm" version="1.2" viewBox="0 0 1024.0 1024.0" width="27.09333333cm">
  <metadata>
    <rdf:RDF>
      <cc:Work>
        <dc:format>image/svg+xml</dc:format>
        <dc:source>vpype read './original_svgs/Strange Attractors #339.svg' linemerge linesimplify write './Strange Attractors #339.svg'
</dc:source>
        <dc:date>2024-08-05T01:35:49.763775</dc:date>
      </cc:Work>
    </rdf:RDF>
  </metadata>
  <defs/>
  <g fill="none" id="layer1" inkscape:groupmode="layer" inkscape:label="1" stroke="black" stroke-width="0.7mm" style="display:inline">
    <polyline points="386.625,818.0 441.25,791.0 486.875,770.0 524.875,754.625 557.0,744.0 584.75,736.875 609.375,732.25 652.25,726.5 671.125,723.5 688.125,719.375 702.75,713.5 714.875,705.25 723.75,694.5 729.125,681.25 731.0,665.875 729.625,648.75 725.5,630.625 719.125,612.375 711.125,594.375 702.25,577.25 693.125,561.25 684.0,546.75 667.0,522.375 659.375,512.5"/>
    <polyline points="652.5,503.875 640.75,490.375 631.375,480.875 627.5,477.375 620.75,472.0 615.125,468.625 608.375,466.0 602.75,465.25 594.875,465.875 588.125,467.375"/>
    <polyline points="586.875,467.625 580.125,469.0 573.875,469.25 570.5,468.625 568.5,467.625 567.5,466.625"/>
    <polyline points="567.125,466.125 566.5,464.875 566.25,463.375 566.375,461.625 567.125,458.875 569.625,454.375 573.875,449.125"/>
    <polyline points="574.75,448.25 577.625,445.375 583.625,440.625 586.375,438.75 592.625,435.25 599.375,432.25 602.875,431.125 606.375,430.25 611.375,429.625"/>
    <polyline points="613.0,429.625 617.375,430.25 620.625,432.0 621.5,432.875 622.25,433.875 623.125,436.125 623.125,440.375 622.25,443.5 620.75,447.0 618.625,450.5 612.875,457.5 609.375,460.875"/>
    <polyline points="607.625,462.5 602.0,466.875 598.125,469.375 594.25,471.75 588.5,474.625 583.125,476.875 578.125,478.5 572.0,479.875 565.625,480.5"/>
    <polyline points="564.5,480.375 560.5,480.125 558.125,479.5 554.875,477.875 553.875,477.0 552.25,474.5 551.75,472.625 551.625,470.625"/>
    <polyline points="551.75,469.875 552.875,464.875 556.375,457.875 560.5,452.0 565.0,446.875 569.25,442.625"/>
    <polyline points="570.75,441.25 576.0,436.75 586.75,429.25 594.5,424.75 600.125,422.0 606.125,419.5 615.625,416.625 622.0,415.375 628.0,415.0 630.875,415.125 636.125,416.25"/>
    <polyline points="638.5,417.25 640.5,418.5 642.125,420.0 643.5,421.875 644.5,424.0 645.125,426.375 645.125,431.875 644.5,434.875 642.25,441.25 640.5,444.625 636.25,451.375 631.125,458.125 622.125,467.375 615.75,472.75 609.375,477.625 599.75,483.625"/>
    <polyline points="596.75,485.375 588.0,489.5 582.5,491.75 572.75,494.75 566.25,496.25 560.5,497.125 554.0,497.625 546.375,497.375"/>
    <polyline points="545.25,497.25 540.625,496.375 536.125,494.5 533.625,492.25 532.75,491.0 532.125,489.0"/>
    <polyline points="532.0,488.5 531.875,485.0 532.625,480.875 534.625,474.875 537.5,468.875"/>
    <polyline points="538.125,467.75 541.625,461.625 545.375,456.125 552.875,446.625 559.75,439.25 568.5,431.25 573.75,426.875"/>
    <polyline points="576.75,424.75 583.125,420.125 594.25,413.25 602.875,408.75 612.25,404.5 622.5,400.875 633.125,398.0 643.875,396.5 649.125,396.375 654.0,396.75 658.625,397.625 662.75,399.25 666.375,401.375 669.25,404.125 671.5,407.5 672.875,411.5 673.5,416.0 673.25,421.125"/>
    <polyline points="672.125,426.5 670.25,432.25 667.625,438.125 664.5,444.25 660.75,450.25 652.0,461.875 647.25,467.25 642.375,472.5 632.25,481.875 627.25,486.0 617.5,493.25 612.875,496.375 603.875,501.625 599.625,503.875 591.625,507.5 584.375,510.375 571.5,514.125"/>
    <polyline points="568.75,514.75 560.875,516.25 552.125,517.375 527.5,519.125"/>
    <polyline points="526.625,519.25 518.0,520.75 515.5,521.625 512.75,523.125"/>
    <polyline points="512.375,523.375 508.375,527.0 504.125,532.625"/>
    <polyline points="503.875,533.125 496.875,543.25 490.75,550.5"/>
    <polyline points="489.875,551.375 488.125,553.25 485.0,555.875 479.75,559.625 473.125,563.0 466.625,565.125 458.375,566.5 451.5,566.875 443.375,566.375 433.5,565.0"/>
    <polyline points="427.875,563.75 421.625,562.125 407.25,557.375 390.0,550.0 380.125,545.25 369.375,539.5 357.875,532.875 345.625,525.25 332.875,516.625 319.75,507.125 306.75,496.75 294.125,485.75 282.625,474.75 272.625,463.875 264.875,453.75 259.75,444.875 257.5,437.75 258.25,432.75 261.875,429.875 268.0,429.25 276.125,430.375 285.75,433.25 296.125,437.375 307.0,442.25"/>
    <polyline points="317.875,447.5 373.75,477.125 394.25,486.5 405.5,490.625 415.375,493.5 428.125,495.875 438.75,496.5 441.875,496.375 447.75,495.875 455.625,494.5"/>
    <polyline points="458.0,494.0 462.5,492.625 470.375,489.375 475.375,486.5 480.0,483.25 482.75,481.0 487.75,476.0 491.0,471.875 495.0,465.875"/>
    <polyline points="495.875,464.25 501.0,453.625 505.375,441.375 510.5,421.625 513.25,407.125"/>
    <polyline points="513.75,404.0 515.75,387.375 516.125,376.625 515.75,369.25 515.25,365.625 513.25,358.375 511.625,355.0 509.25,351.875 506.125,349.0 501.75,346.75 495.75,345.25 487.75,344.75 476.875,345.875 462.0,349.25 441.75,355.875 414.0,367.375 376.375,385.75 325.75,413.875"/>
    <polyline points="259.625,455.5 178.375,513.375 89.125,587.0 10.5,666.75 0.0,682.9109"/>
    <polyline points="0.0,764.3609 14.875,763.125 69.0,733.125 115.0,690.375 144.0,643.75 154.625,596.625 149.875,549.625 134.125,502.75 113.625,456.875 95.125,414.375 85.0,379.25 87.125,355.375 101.75,344.75 125.625,346.625 154.125,357.875 182.5,375.25 208.125,395.25 229.25,415.75 245.75,435.375 258.125,453.5 266.875,469.75"/>
    <polyline points="272.875,484.375 277.0,497.25 282.375,517.875 284.75,525.875 287.5,532.375 290.875,537.375 295.0,541.0 299.75,543.375 305.375,544.75 311.625,545.0 318.25,544.625 325.25,543.5 339.875,540.0 386.75,525.375 397.875,522.25 408.0,519.875"/>
    <polyline points="412.625,518.875 425.125,516.75 435.875,515.625 445.125,515.25 453.0,515.375 463.625,516.375 468.875,517.25 475.875,518.875 479.25,520.0 483.625,522.125 486.75,524.375 488.125,525.875 489.375,528.0 490.125,530.875"/>
    <polyline points="476.875,519.5 481.875,521.5 485.875,524.25 487.375,525.75 488.75,527.875 489.375,529.625 489.75,532.0"/>
    <polyline points="489.75,532.75 489.0,537.5 487.0,542.0 482.875,547.75 478.25,552.125"/>
    <polyline points="477.125,552.875 474.625,554.625 468.5,557.75 462.375,559.625 457.5,560.5 451.625,561.125 440.875,560.75 436.5,560.25 426.75,558.375 415.125,555.125 401.25,550.0 384.75,542.625"/>
    <polyline points="375.625,538.0 355.5,526.25 344.625,519.25 333.625,511.625 322.375,503.125 311.5,494.25 301.125,485.0 291.875,475.875 284.0,467.0 278.0,458.875 274.125,451.75 272.625,446.0 273.5,442.0 276.625,439.625 281.75,438.875 288.5,439.625 296.5,441.75 305.25,444.75 324.125,452.875 368.375,474.5"/>
    <polyline points="376.0,478.125 389.875,484.25 402.125,489.0 417.75,493.875 426.75,495.875 434.875,497.0 442.0,497.625 451.625,497.625 462.375,496.375 471.375,494.25 473.375,493.5"/>
    <polyline points="475.25,492.875 479.0,491.375 484.0,488.875 488.5,486.125 492.625,483.0 497.625,478.5 502.25,473.375 508.75,464.375"/>
    <polyline points="509.875,462.75 526.625,435.875 536.75,421.625 539.25,418.375 548.5,407.75 556.5,399.625 561.25,395.25"/>
    <polyline points="566.5,390.625 579.25,380.625 595.625,369.25 605.375,363.25 616.5,356.875 629.125,350.25 643.25,343.625 658.875,337.125 676.0,331.125 694.25,325.875 713.375,322.125 732.375,320.375 750.5,321.625 766.125,326.5 778.125,335.5 785.375,348.875 787.25,366.25 783.75,386.875 775.625,409.5 763.875,432.75 750.0,455.625 735.125,477.0 720.375,496.5 706.25,513.625"/>
    <polyline points="693.375,528.5 681.75,541.125 671.5,551.5 662.625,560.125 654.75,567.0 648.125,572.5 642.25,576.75 637.125,580.0 628.5,583.875 621.5,585.25 618.375,585.25 612.625,584.25 604.75,581.25 585.5,571.0"/>
    <polyline points="583.25,569.75 576.625,566.625 568.125,563.375 562.25,561.75 556.75,560.625 548.5,560.0 542.625,560.5 538.5,561.375"/>
    <polyline points="537.25,561.75 531.125,564.25 525.625,567.75 521.5,571.25 518.5,574.25 510.0,583.875"/>
    <polyline points="508.875,585.25 501.0,594.0 495.875,598.5 491.75,601.5 486.875,604.25 480.875,606.75 473.5,608.625 463.875,609.5 458.125,609.375 443.75,607.625 434.75,605.625 424.25,602.5 412.125,598.25"/>
    <polyline points="397.75,592.375 381.0,584.625 361.375,574.25 338.625,561.0 312.75,544.25 283.75,523.625 252.5,499.125 220.5,471.125 190.625,441.0 166.0,411.375 150.0,385.25 145.125,365.875 151.5,355.5 167.25,354.125 188.875,360.5 213.0,372.375 236.75,387.375 258.25,403.5 276.875,419.375 292.125,434.375 304.25,448.0 313.75,460.25 320.875,471.0 326.125,480.375 330.125,488.625 333.0,495.875"/>
    <polyline points="335.125,502.125 339.75,516.25 341.25,519.5 343.125,522.25 345.125,524.375 347.5,526.0 350.125,527.125 353.125,527.875 356.5,528.25 360.125,528.25 368.0,527.375 376.5,525.75 385.25,523.625 419.0,514.125"/>
    <polyline points="422.875,513.0 464.875,501.625 479.0,496.75 485.625,493.75"/>
    <polyline points="487.25,493.0 495.5,488.0 502.5,482.125 507.875,476.5 512.0,471.375 516.125,465.5"/>
    <polyline points="517.25,464.0 531.5,443.25 536.875,436.125 543.5,428.125 551.875,419.125 558.75,412.375 571.875,401.25"/>
    <polyline points="577.25,397.125 583.125,392.875 596.75,384.0 604.75,379.375 623.0,369.75 633.5,365.125 644.875,360.625 657.0,356.375 669.75,352.875 682.875,350.125 696.0,348.625 708.75,348.75 720.5,350.625 730.5,354.875 738.375,361.5 743.5,370.5 745.625,381.875 744.5,395.125 740.5,409.875 734.125,425.375 725.75,441.0 716.0,456.375 705.5,471.0 694.875,484.375"/>
    <polyline points="684.25,496.625 674.125,507.5 664.5,517.0 647.25,532.125 632.75,543.0 626.375,547.0 620.5,550.25 615.25,553.0 605.75,556.75 597.625,559.0 593.875,559.75 587.25,560.5 581.25,560.75 564.125,559.875"/>
    <polyline points="562.0,559.75 556.125,559.5 549.25,559.625 541.625,560.625 533.875,563.125 530.375,564.875 526.0,567.75"/>
    <polyline points="524.875,568.625 518.75,574.25 502.875,592.5 496.375,598.625 494.375,600.125"/>
    <polyline points="492.375,601.5 487.5,604.375 481.75,606.875 478.25,608.0 470.125,609.5 465.125,609.875 459.5,609.875 453.0,609.375 445.5,608.375 436.75,606.5 426.5,603.75 414.625,599.625 400.625,594.125 384.25,586.625 365.125,576.75 342.875,564.125 317.375,547.875 288.75,527.875 257.625,503.875 225.375,476.125 194.625,446.0 168.625,415.75 150.75,388.625"/>
    <polyline points="144.0,367.75 148.625,355.75 163.125,352.875 184.25,358.25 208.375,369.625 232.5,384.375 254.625,400.5 273.625,416.75 289.5,432.0 302.0,446.0 311.875,458.5 319.25,469.5 324.75,479.25 328.75,487.75 331.625,495.25 338.375,516.25 339.875,519.75 341.625,522.5 343.625,524.75 345.875,526.5 348.625,527.75 351.625,528.5 355.0,528.875"/>
    <polyline points="358.625,528.875 366.625,528.0 379.75,525.25 422.375,513.375 454.75,504.875"/>
    <polyline points="457.375,504.125 473.375,499.5 484.125,495.375 494.25,490.0 500.25,485.5"/>
    <polyline points="501.375,484.5 505.75,480.375 512.875,472.0 529.0,448.875"/>
    <polyline points="530.5,446.75 537.25,437.625 541.375,432.625 548.875,424.25 555.0,418.0 562.125,411.375 570.875,404.0 581.375,396.125 594.25,387.625 609.75,378.625 628.5,369.625 639.0,365.25 650.25,361.125"/>
    <polyline points="662.125,357.5 674.375,354.625 686.875,352.75 699.125,352.25 710.75,353.25 721.125,356.25 729.625,361.375 735.75,368.75 739.25,378.25 740.0,389.875 737.75,403.0 733.0,417.25 726.25,432.0 717.75,446.75 708.25,461.0 698.25,474.375 688.0,486.875 678.0,498.0 668.375,507.875 659.25,516.625 650.75,524.125 642.875,530.5 635.5,536.0 628.875,540.5 617.0,547.375"/>
    <polyline points="611.75,549.875 607.0,551.875 598.25,554.625 590.75,556.375 587.25,556.875 575.25,557.625 555.0,557.125 544.75,557.75"/>
    <polyline points="543.25,558.0 540.25,558.5 534.875,560.0 531.25,561.5 527.75,563.375 522.25,567.25 518.125,570.875 514.0,575.25"/>
    <polyline points="512.875,576.375 504.75,585.25 498.875,590.875 495.5,593.75 491.5,596.5 486.75,599.125 481.0,601.5 474.0,603.375 465.25,604.375 459.875,604.5 453.875,604.125"/>
    <polyline points="446.875,603.25 438.875,601.75 429.75,599.375 419.0,596.0 406.5,591.375 392.125,585.125 375.25,577.0 355.875,566.5 333.625,553.125 308.625,536.5 281.125,516.5 252.0,493.125 222.875,466.875 196.25,439.375 174.875,412.75 161.75,389.875 158.375,373.125 164.875,364.25 179.375,363.25 199.25,369.0 221.375,379.625 243.375,393.0 263.875,407.5 281.75,422.0 296.875,435.625 309.25,448.125"/>
    <polyline points="319.375,459.375 327.25,469.25 333.5,477.875 342.25,491.875 351.875,510.0 355.625,515.5 357.625,517.5 362.125,520.25 364.625,521.0 367.375,521.625 373.25,521.875 379.75,521.25 386.75,520.0 401.25,516.5"/>
    <polyline points="404.875,515.5 431.875,507.5 451.5,501.0 463.0,496.5 472.75,491.75"/>
    <polyline points="474.5,490.875 483.875,484.625 489.25,479.875 492.875,476.125 499.5,467.5 505.5,457.25"/>
    <polyline points="506.5,455.375 521.5,425.0 524.75,418.875 530.875,408.75 536.0,401.25 542.375,392.75 550.75,383.25 556.0,377.875"/>
    <polyline points="561.875,372.25 577.0,359.375 586.5,352.25 597.75,344.375 611.125,335.875 626.75,326.75 645.25,317.0 666.75,306.875 691.375,296.875 719.0,287.625 749.0,280.25 779.5,276.625 808.375,278.375 832.0,287.625 847.25,305.625 851.875,332.25 845.75,365.625 830.625,402.875 809.75,440.625 786.625,476.375 764.125,508.375 701.75,592.5"/>
    <polyline points="693.625,604.125 680.5,623.125 678.25,625.25 676.625,625.875 675.25,625.0 673.75,623.0 672.0,619.875 664.875,606.125 661.625,600.625 654.0,589.0 645.25,577.375 635.875,566.375 626.5,556.625 617.125,548.125 604.125,537.875"/>
    <polyline points="600.0,535.0 588.625,528.125 581.875,524.75 572.75,520.75 564.875,518.0 555.875,515.5 539.625,512.5"/>
    <line x1="538.375" x2="521.0" y1="512.375" y2="510.125"/>
    <polyline points="520.625,510.0 517.625,509.125 516.25,507.875 515.875,505.875 516.375,503.5"/>
    <line x1="516.5" x2="519.75" y1="503.25" y2="494.875"/>
    <polyline points="520.0,494.375 523.25,487.0 528.125,477.375"/>
    <polyline points="528.625,476.375 532.75,468.875 540.625,456.75 545.5,450.25 553.5,441.0"/>
    <polyline points="555.375,439.0 567.125,427.875 573.0,423.125 583.625,415.5 591.875,410.25 601.25,405.0 611.875,400.0 623.5,395.375 629.75,393.375 636.0,391.625 642.375,390.375 648.75,389.375 655.0,389.0 661.0,389.25 666.625,390.125"/>
    <polyline points="671.75,391.75 676.25,394.125 679.75,397.375 682.5,401.5 684.125,406.25 684.625,411.875 684.125,418.0 682.625,424.625 680.125,431.625 676.75,438.75 672.625,446.0 668.0,453.25 657.375,466.875 651.625,473.125 640.125,484.5 628.75,494.0 617.875,501.625 607.875,507.75 594.5,514.375"/>
    <polyline points="590.375,516.0 579.25,519.75 569.75,522.125 556.625,524.25 532.5,526.625"/>
    <polyline points="531.25,526.875 526.875,527.5 520.375,529.125 515.25,531.375 510.875,534.25"/>
    <polyline points="510.375,534.75 504.5,540.25 494.375,551.625"/>
    <polyline points="493.5,552.5 487.375,558.125 482.0,561.875 475.125,565.375 468.5,567.625 463.125,568.75 453.125,569.5 444.625,569.125 439.875,568.5"/>
    <polyline points="434.5,567.625 428.625,566.375 415.0,562.375 407.125,559.625 398.375,556.125 388.75,551.75 378.25,546.625 366.75,540.5 354.5,533.25 341.375,525.0 327.625,515.5 313.625,505.125 299.625,493.75 286.25,481.875 274.125,469.875 264.0,458.25 256.25,447.625 251.625,438.5 250.375,431.5 252.375,427.0 257.375,424.75 264.875,425.0 274.375,427.125 285.0,431.0 296.375,435.875"/>
    <polyline points="308.0,441.625 330.375,453.5 367.75,474.375 389.125,484.875 400.875,489.625 406.0,491.375 415.5,494.0 419.75,494.875 427.5,495.875 437.625,496.25 446.25,495.375 451.25,494.375"/>
    <polyline points="453.625,493.75 460.125,491.625 465.875,489.0 470.875,486.125 473.875,484.0 480.375,478.125 482.625,475.5 485.625,471.375 489.0,465.375"/>
    <polyline points="489.75,463.875 492.25,457.25 493.25,453.625 494.25,448.125 494.5,440.375 493.625,434.5 492.25,430.625 491.25,428.75 488.5,425.125 484.375,422.0 481.625,420.625 478.375,419.625"/>
    <polyline points="474.375,418.875 469.5,418.625 463.75,418.75 456.75,419.625 448.375,421.375 438.25,424.125 426.0,428.25 411.5,434.125 394.0,441.875 373.5,452.25 349.5,465.625 322.125,482.375 291.875,502.625 259.875,526.25 228.25,552.125 200.125,578.5 178.75,602.875 166.875,622.25 165.375,634.75 173.5,639.25 188.5,636.625 207.375,628.5 227.0,616.75 245.5,603.125 261.625,589.0 274.875,575.125"/>
    <polyline points="285.375,562.0 293.25,549.875 298.75,538.875 302.5,528.75 304.875,519.625 306.25,511.25 308.125,491.375 308.875,486.25 310.0,482.0 311.625,478.5 313.875,475.875 316.875,473.875 320.375,472.75 324.375,472.125 334.0,472.75 345.0,475.125 356.625,478.5 379.75,486.5"/>
    <polyline points="385.25,488.5 410.375,497.0 423.25,500.875 434.5,503.875 450.25,507.375 470.75,511.125"/>
    <polyline points="472.5,511.375 488.375,514.0 494.625,515.5 497.375,516.5"/>
    <polyline points="497.875,516.75 500.125,517.875 501.75,519.25 502.75,521.125 503.0,522.875"/>
    <polyline points="503.0,523.25 502.75,526.0 501.75,529.5 499.75,534.125"/>
    <polyline points="499.375,534.75 497.0,539.25 494.125,543.625 489.5,549.375 485.0,553.75"/>
    <polyline points="483.875,554.75 477.5,559.125 474.125,560.875 468.375,563.125 463.625,564.375 458.0,565.125 447.625,565.5 434.0,563.875 422.625,561.25 416.0,559.25 400.875,553.625"/>
    <polyline points="392.25,550.0 382.875,545.5 372.625,540.125 361.625,534.0 350.0,526.875 337.75,518.75 325.125,509.75 312.5,500.0 300.25,489.625 288.75,479.0 278.625,468.375 270.375,458.375 264.5,449.5 261.375,442.0 261.125,436.5 263.625,432.875 268.625,431.5 275.75,431.875 284.5,434.0 294.25,437.375 304.625,441.75 315.25,446.75 354.75,467.25"/>
    <polyline points="363.375,471.75 371.375,475.875 385.875,482.75 398.375,487.875 409.375,491.625 423.25,495.0 427.375,495.75 434.875,496.5 444.75,496.5 450.625,496.0 458.375,494.625 467.125,491.875"/>
    <polyline points="469.125,491.125 477.875,486.625 482.5,483.375 487.875,478.75 490.25,476.25 494.75,470.625 499.75,462.875 501.625,459.375"/>
    <polyline points="502.625,457.625 508.125,445.625 514.875,428.75 522.625,410.875 528.125,400.125 535.625,387.75"/>
    <polyline points="538.875,383.125 542.625,378.125 552.125,367.125 565.25,354.25 573.75,346.75 584.125,338.625 596.5,329.625 611.625,319.625 630.0,308.625 652.125,296.625 678.75,283.875 710.125,270.875 746.0,259.0 785.0,249.875 824.625,246.5 859.75,252.375 885.0,270.5 895.375,301.625 889.25,343.875 869.625,392.5 842.0,441.875 812.0,488.0 760.75,561.875"/>
    <polyline points="742.625,589.125 729.75,610.625 721.375,627.125 716.625,639.375 714.625,647.625 714.25,652.625 714.875,654.5 715.75,653.75 716.375,650.375 716.125,644.75 714.75,637.375 712.25,628.5 708.5,618.625 703.625,608.0 697.875,597.0 691.5,586.125 684.625,575.5 677.375,565.375 670.25,555.875 663.125,547.125 649.5,532.125 643.125,525.75 637.125,520.125 626.125,511.0"/>
    <polyline points="621.125,507.25 608.125,499.0 600.75,495.25 591.25,491.5 578.75,488.25 559.625,485.0"/>
    <polyline points="558.5,484.75 555.5,483.875 552.375,482.375 549.625,480.25 548.5,478.75 547.5,476.375 547.25,474.375 547.375,472.125"/>
    <polyline points="547.5,471.375 548.0,468.875 549.375,465.125 553.625,457.5 556.125,453.75 559.375,449.75 566.25,442.375"/>
    <polyline points="567.875,440.875 577.625,432.625 587.625,425.875 596.5,420.875 606.375,416.375 617.125,412.875 624.5,411.25 628.125,410.75 635.0,410.625 641.25,411.75"/>
    <polyline points="643.875,412.875 646.375,414.25 648.375,416.0 649.875,418.125 651.125,420.625 651.75,423.375 652.0,426.5 650.875,433.375 648.0,441.0 646.0,444.875 643.625,448.875 637.875,456.75 634.75,460.5 627.875,467.625 617.125,477.0 609.875,482.25 599.375,488.625"/>
    <polyline points="596.0,490.375 589.625,493.375 580.75,496.875 570.375,499.875 557.75,502.125 551.0,502.625 543.0,502.5"/>
    <polyline points="541.875,502.5 537.125,501.875 532.25,500.5 529.125,498.625 527.375,496.625"/>
    <polyline points="527.25,496.25 526.625,494.75 526.375,491.5 527.0,487.5 528.5,482.75"/>
    <polyline points="528.75,482.0 530.875,476.875 535.75,467.5 540.625,459.75 544.875,453.875"/>
    <polyline points="546.0,452.25 550.125,447.125 558.875,437.625 568.25,429.125 577.125,422.125 584.0,417.25 596.25,409.875 610.625,402.75 621.5,398.5"/>
    <polyline points="627.25,396.75 633.0,395.125 638.875,393.875 644.75,393.0 650.625,392.625 656.125,392.75 661.375,393.5 666.125,394.875 670.375,396.875 673.875,399.75 676.5,403.25 678.375,407.5 679.125,412.375 679.0,417.875 678.0,423.75 676.125,430.0 673.25,436.5 669.875,443.125 665.75,449.75 661.25,456.25 651.125,468.625 640.375,479.5 629.625,488.875"/>
    <polyline points="624.375,492.875 614.25,499.875 604.75,505.375 596.125,509.625 584.5,514.25 574.375,517.25 563.0,519.75 549.5,521.5 544.0,521.875"/>
    <polyline points="542.375,522.0 526.25,523.625 520.5,524.875 517.125,526.125"/>
    <polyline points="516.5,526.375 514.25,527.5 510.75,529.875 507.0,533.375 504.25,536.625"/>
    <polyline points="503.75,537.25 496.625,546.25 493.0,550.375 486.25,556.625"/>
    <polyline points="485.0,557.625 482.5,559.5 478.0,562.125 474.375,563.875 470.25,565.375 465.375,566.625 459.75,567.625 449.125,568.0 435.125,566.375 423.25,563.625 408.875,558.875 400.5,555.75 391.375,551.75"/>
    <polyline points="381.5,547.0 370.625,541.25 359.0,534.625 346.5,526.875 333.375,518.125 320.0,508.375 306.5,497.75 293.375,486.5 281.25,475.0 270.875,463.75 262.5,453.125 257.0,443.875 254.5,436.375 255.125,431.0 258.75,428.0 265.0,427.25 273.375,428.5 283.125,431.375 293.875,435.625 316.125,446.25 365.0,472.75"/>
    <polyline points="373.0,476.875 387.125,483.625 399.25,488.625 404.75,490.625 414.625,493.5 423.125,495.25 430.875,496.125 437.625,496.375 446.625,495.75 451.875,494.875 459.0,493.0 467.0,489.75"/>
    <polyline points="468.875,488.875 473.875,486.0 478.375,482.75 482.25,479.25 485.875,475.375 491.875,466.75 494.375,461.875 497.25,454.875"/>
    <polyline points="497.875,453.0 500.625,443.0 502.25,432.0 502.375,425.0 501.625,417.75 500.25,413.0 499.125,410.625 497.875,408.375 496.125,406.25 494.0,404.25 491.375,402.5 488.125,400.875 484.0,399.75"/>
    <polyline points="479.0,399.125 472.75,399.0 464.875,399.75 455.125,401.625 443.125,405.0 428.125,410.125 409.375,417.75 386.5,428.625 358.375,443.375 324.625,463.125 285.5,488.625 241.875,519.875 197.125,555.875 156.375,594.0 126.0,629.25 111.25,656.25 113.75,671.0 130.375,672.75 155.125,663.75 182.0,647.5 206.625,627.5 226.75,606.5 241.5,585.625 251.0,565.75 256.125,547.0 257.75,529.5"/>
    <polyline points="256.75,513.125 254.5,498.0 249.125,471.875 247.875,461.25 248.25,452.625 250.75,446.125 255.125,441.875 261.5,439.75 269.5,439.625 278.75,441.125 288.75,443.875 299.25,447.625 309.875,451.875 320.25,456.625 366.125,478.5 373.75,481.875 387.5,487.5 399.5,491.75 405.0,493.375"/>
    <polyline points="410.125,494.75 415.0,495.875 427.875,497.875 438.875,498.375 448.375,497.875 454.0,497.125 461.5,495.625 468.125,493.625 475.875,490.375 480.875,487.625"/>
    <polyline points="482.375,486.625 486.875,483.5 490.875,480.125 495.75,475.125 498.0,472.375 503.375,464.75 511.75,450.125"/>
    <polyline points="512.875,448.0 523.5,428.375 529.0,419.375 536.0,409.125 545.75,397.125 559.625,382.875 572.5,371.625 589.875,358.625 600.75,351.375"/>
    <polyline points="613.25,343.625 627.875,335.5 644.75,326.875 664.0,318.25 685.75,309.75 709.625,302.125 735.125,296.25 761.125,293.375 785.5,294.75 806.125,302.0 820.625,316.0 827.0,336.75 824.875,363.25 815.0,393.625 799.5,425.5 780.625,456.75 760.875,485.75 741.875,511.5 724.625,533.75 697.25,567.625 678.75,589.625 667.125,602.5 663.0,606.25"/>
    <polyline points="659.625,608.75 656.875,609.875 654.375,610.0 652.125,609.25 649.875,607.875 645.375,603.125 628.0,582.25 617.625,571.5 610.5,564.875 599.875,556.375 593.0,551.625 583.25,545.75"/>
    <polyline points="580.25,544.125 566.375,538.0 561.5,536.375 552.625,534.125 541.75,532.5 534.375,532.375 530.5,532.625"/>
    <polyline points="529.25,532.75 522.0,534.375 517.5,536.125 512.125,539.375 507.875,542.875"/>
    <polyline points="507.125,543.5 497.0,553.625 490.875,559.25 485.75,563.125 482.625,565.0"/>
    <polyline points="481.0,565.875 475.125,568.625 470.5,570.125 465.125,571.375 458.625,572.125 454.875,572.25 446.375,571.875 435.875,570.5 423.125,567.375 415.75,565.125 398.375,558.5 388.25,554.0 365.125,542.0 352.0,534.25 338.0,525.25 323.375,515.125"/>
    <polyline points="308.25,503.75 293.375,491.5 279.125,478.625 266.25,465.625 255.75,453.125 248.0,441.875 243.875,432.625 243.375,425.625 246.5,421.375 252.75,419.875 261.625,421.0 272.25,424.125 284.0,428.75 296.25,434.5 308.5,440.875 320.25,447.375 368.75,475.375 376.25,479.375 383.125,482.875 400.625,490.375"/>
    <polyline points="405.625,492.125 414.625,494.5 426.0,496.125 432.5,496.375 441.125,495.625 450.75,493.375 456.875,491.125 463.875,487.5 469.75,483.25"/>
    <polyline points="471.125,482.125 474.625,478.625 478.5,473.5 481.5,468.0 483.0,463.5 483.75,460.5 484.125,455.75 483.625,451.0 481.875,446.375"/>
    <polyline points="480.875,444.875 478.375,442.125 476.625,440.875 472.25,438.75 469.5,438.0 462.25,437.25 457.625,437.25 446.0,438.875 438.625,440.625 430.125,443.125 420.125,446.625 408.625,451.25 395.375,457.125 380.25,464.625 363.125,474.0 344.125,485.125 323.625,498.375 302.0,513.375 280.25,529.875 259.75,547.125 241.875,564.25 228.125,579.75"/>
    <polyline points="219.875,592.5 217.5,601.5 220.75,606.375 228.875,607.0 240.25,604.0 253.625,598.375 267.625,590.875 281.25,582.5 294.125,573.625 305.75,565.0 315.875,556.875 324.75,549.375 338.625,536.375 348.625,526.25 361.0,512.625 365.25,508.375 369.0,505.375 372.5,503.375"/>
    <polyline points="374.25,502.625 377.875,501.75 381.5,501.5 387.375,502.0 391.375,502.75 395.5,503.75 405.5,506.875 416.625,511.25 421.5,513.5"/>
    <polyline points="423.0,514.25 428.375,517.125 431.625,519.25 436.375,523.25 438.0,525.75 438.375,527.5 438.25,528.625 437.375,530.125"/>
    <polyline points="437.0,530.625 434.25,532.125 429.75,533.0 426.875,533.125 421.625,532.75 417.5,532.0 410.25,530.25 401.75,527.375 388.75,521.5"/>
    <polyline points="385.25,519.625 374.625,513.5 367.75,508.75 361.375,503.875 356.0,499.0 351.75,494.5 349.25,490.5 348.375,487.375 348.75,486.25 349.5,485.375 350.75,484.75 354.375,484.25 362.5,485.375 369.0,487.125"/>
    <polyline points="372.625,488.125 398.625,497.125 438.25,511.5 448.875,515.625"/>
    <polyline points="450.625,516.375 459.875,520.75 463.375,522.875 467.75,526.375 470.875,530.75 471.625,533.0 471.75,534.5"/>
    <polyline points="471.75,535.25 471.25,538.375 469.125,542.25 467.75,543.75 464.0,546.75 458.625,549.375 455.125,550.375 448.75,551.5 446.25,551.625"/>
    <polyline points="443.625,551.75 437.5,551.5 426.375,549.875 417.25,547.625 406.75,544.125 394.625,539.25 387.875,536.125 373.25,528.625 365.5,524.0 357.375,519.0 340.875,507.625 332.75,501.375 325.0,494.875 311.375,482.0 306.0,475.75 301.875,470.125 299.125,465.125"/>
    <polyline points="297.875,461.0 298.125,457.875 300.0,455.75 303.125,454.625 307.5,454.5 312.875,455.375 319.125,456.875 333.0,461.625 355.25,470.875 383.0,482.875 401.0,489.875 421.375,496.375 434.0,499.375"/>
    <polyline points="437.875,500.125 445.0,501.25 454.5,502.25 460.0,502.5 472.0,502.375 483.25,501.0 487.875,500.0 493.25,498.375"/>
    <polyline points="494.5,497.875 498.0,496.5 501.125,494.875 505.75,491.875 509.875,488.375 516.75,480.625"/>
    <polyline points="517.5,479.625 536.125,452.75 543.75,443.0"/>
    <polyline points="545.625,440.875 551.75,434.0 559.375,426.5 565.5,421.0 572.625,415.25 581.0,409.0 590.875,402.625 596.375,399.25 608.625,392.625 622.75,386.25 638.375,380.625 646.75,378.25 655.25,376.5 663.75,375.25 672.125,374.875"/>
    <polyline points="680.125,375.375 687.375,376.875 693.875,379.625 699.125,383.625 703.0,388.875 705.375,395.25 706.0,402.875 705.125,411.375 702.75,420.625 698.875,430.25 693.875,440.125 687.875,449.875 681.375,459.375 674.25,468.5 667.0,477.0 659.625,484.875 652.25,492.125 638.25,504.25 631.625,509.375 625.375,513.75 613.75,521.0 603.5,526.375 598.75,528.375"/>
    <polyline points="594.25,530.25 582.25,534.0 572.125,536.125 563.5,537.375 540.375,539.5 532.875,540.625"/>
    <polyline points="531.5,541.0 526.5,542.25 523.125,543.5 518.0,546.0 512.375,549.75 506.0,555.125"/>
    <polyline points="505.0,556.0 496.625,563.625 492.75,566.75 488.375,569.875 483.0,572.875 478.875,574.75 471.125,577.25 461.25,578.75"/>
    <polyline points="457.25,578.875 447.875,578.5 442.5,577.75 429.625,575.25 422.0,573.125 413.625,570.375 404.125,566.75 393.5,562.25 381.75,556.75 368.625,549.875 354.25,541.625 338.625,531.875 322.0,520.625 304.5,507.75 286.875,493.5 269.75,478.375 254.125,462.75 241.125,447.75 231.625,434.0 226.375,422.625 225.875,414.375 230.0,409.625 237.875,408.5 248.875,410.375"/>
    <polyline points="261.75,414.875 275.625,421.125 289.625,428.5 303.25,436.375 328.125,451.75 357.75,471.0 372.875,480.375 390.5,489.75 395.375,491.875 404.0,495.0 414.75,497.375 423.75,497.75 431.375,497.0"/>
    <polyline points="433.625,496.625 440.0,494.875 443.75,493.375 447.125,491.875 453.125,488.375 456.875,485.375 459.875,482.375 463.5,477.0 464.625,473.625"/>
    <polyline points="464.875,472.5 465.0,470.375 464.125,467.125 463.0,465.25 461.0,463.375 458.375,461.875 454.625,460.875 452.25,460.5 446.625,460.375 439.375,461.125 430.0,463.125 424.5,464.75 411.375,469.375 395.375,476.375"/>
    <polyline points="386.25,481.0 376.375,486.25 355.0,499.0 343.75,506.375 332.5,514.375 321.625,522.625 311.375,531.125 302.5,539.25 295.125,547.0 289.75,553.75 286.625,559.375 285.75,563.625 287.125,566.375 290.625,567.5 295.75,567.375 302.25,565.875 309.75,563.5 317.875,560.5 334.625,553.125 372.625,535.125"/>
    <polyline points="379.0,532.375 390.5,527.75 405.125,522.875 413.375,520.875 423.75,519.375 432.375,519.0 437.25,519.25 441.5,519.875 448.625,521.625 451.5,522.625 453.875,523.875"/>
    <polyline points="455.0,524.5 457.0,525.75 459.25,527.75 460.875,529.875 462.0,532.75 461.875,535.75 460.625,538.625 459.5,540.0 457.0,542.0"/>
    <polyline points="456.0,542.625 453.75,543.75 449.375,545.25 441.5,546.25 436.5,546.25 430.625,545.75 420.0,543.625 407.0,539.75 396.625,535.625 385.125,530.375 372.625,523.5"/>
    <polyline points="366.0,519.625 359.25,515.375 345.875,505.875 333.375,495.625 327.75,490.5 322.875,485.5 318.75,480.625 315.625,476.25 313.5,472.375 312.5,469.125 312.75,466.625 314.0,464.75 316.375,463.75 319.75,463.375 323.875,463.625 328.75,464.625 334.125,466.0 346.125,470.0 377.25,482.375"/>
    <polyline points="383.25,484.75 399.875,491.125 414.75,496.25 435.375,502.0 448.75,504.75 457.25,506.125 473.0,507.75"/>
    <polyline points="474.875,507.75 481.5,508.125 490.625,508.125 498.875,507.5 502.25,506.875"/>
    <polyline points="502.875,506.75 508.625,504.875 512.875,501.75"/>
    <polyline points="513.125,501.375 515.125,499.125 517.0,496.375 520.125,490.875"/>
    <polyline points="520.5,490.25 528.375,475.375 532.25,468.75"/>
    <polyline points="533.0,467.5 536.25,462.25 541.375,454.875 551.5,442.375 562.0,431.75 573.375,422.25"/>
    <polyline points="576.75,419.625 588.25,411.75 597.375,406.375 607.625,401.125 613.25,398.625 625.25,394.0 631.625,392.0 644.625,389.0 651.125,388.125 657.5,387.875 663.625,388.25 669.25,389.375 674.375,391.125 678.75,393.875 682.125,397.375 684.625,401.75 686.0,407.0 686.25,412.875 685.5,419.375 683.625,426.25"/>
    <polyline points="680.75,433.5 677.0,440.875 672.625,448.375 667.625,455.625 662.25,462.625 650.75,475.75 638.875,487.0 633.125,491.875 621.875,500.25 616.625,503.75 606.625,509.75 597.5,514.25 585.375,519.0 574.875,522.0 565.875,524.0"/>
    <polyline points="563.125,524.375 549.375,526.125 534.5,527.5 528.375,528.375 523.375,529.5"/>
    <polyline points="522.375,529.75 518.25,531.25 513.25,533.875 508.875,537.25 505.25,540.75"/>
    <polyline points="504.625,541.5 493.875,553.125 486.375,559.625 482.125,562.375"/>
    <polyline points="480.625,563.375 475.25,566.0 468.5,568.25 463.0,569.375 456.5,570.0 448.625,570.0 439.25,569.0 433.75,568.0 421.125,564.875 413.75,562.5 396.625,555.875 376.0,546.0 351.75,532.0 338.25,523.375"/>
    <polyline points="324.25,513.625 310.0,502.875 296.0,491.25 282.625,479.125 270.625,466.875 260.75,455.25 253.625,444.75 249.625,436.0 249.125,429.375 251.875,425.25 257.625,423.75 265.75,424.5 275.75,427.125 286.875,431.375 298.5,436.625 310.125,442.5 332.5,454.625 369.375,475.25 383.875,482.625 396.25,488.0"/>
    <polyline points="401.75,490.125 416.125,494.25 424.25,495.625 431.375,496.25 440.75,496.0 448.75,494.75 457.875,492.125 463.75,489.625 467.25,487.75 471.875,484.625"/>
    <polyline points="473.375,483.5 477.375,480.125 480.875,476.375 483.875,472.25 486.5,468.0 488.0,465.0 490.875,456.75 492.125,449.625 492.25,446.0"/>
    <polyline points="492.25,444.125 491.75,440.375 490.75,436.625 489.125,433.0 487.875,431.25 486.375,429.625 482.5,426.625 479.875,425.375 476.75,424.375 473.125,423.625 468.625,423.25 463.25,423.375 456.875,424.125 449.25,425.5 440.0,427.75 429.125,431.25 416.125,436.125 400.75,442.75 382.75,451.5 361.625,462.75 337.625,476.875 310.75,494.0"/>
    <polyline points="282.0,514.25 252.625,536.875 225.0,560.875 201.75,584.25 185.5,604.75 178.25,620.125 180.0,629.0 189.5,631.125 204.5,627.375 222.125,619.125 240.125,608.125 257.125,595.75 272.125,583.0 284.625,570.75 294.75,559.125 302.625,548.5 308.625,538.75 313.0,530.0 316.0,522.125 318.25,515.0 323.0,493.625 324.125,490.0 325.625,486.875"/>
    <polyline points="327.5,484.375 329.75,482.375 332.375,481.0 335.5,480.125 338.875,479.75 346.875,480.125 355.75,481.75 370.125,485.75 406.875,498.125 429.375,505.25"/>
    <polyline points="432.625,506.25 465.5,515.875 475.125,519.5 479.125,521.625"/>
    <polyline points="479.875,522.125 484.0,525.25 485.75,527.5 486.625,529.25 487.375,532.5 487.375,534.5 486.875,537.25"/>
    <polyline points="486.625,538.0 485.75,540.375 483.5,544.375 481.625,546.875 477.25,551.125 472.375,554.375 467.625,556.625 463.75,558.0"/>
    <polyline points="461.625,558.5 456.75,559.5 447.875,560.0 436.375,559.125 426.875,557.375 415.5,554.25 409.0,552.0 402.0,549.375 386.25,542.375 367.875,532.75 347.5,520.125 336.75,512.75 326.0,504.75 315.375,496.25 305.25,487.375 296.0,478.5"/>
    <polyline points="288.125,469.875 282.0,461.875 277.75,454.75 275.75,449.0 276.0,444.625 278.5,441.875 282.875,440.75 289.0,441.125 296.375,442.75 304.75,445.375 323.0,452.875 374.375,477.5 388.375,483.75 400.75,488.625 411.75,492.25 421.5,494.875"/>
    <polyline points="426.0,495.75 434.125,497.125 441.5,497.875 448.125,498.125 457.0,497.75 462.25,497.125 469.25,495.75 477.25,493.25 484.25,490.25 488.75,487.625"/>
    <polyline points="490.25,486.75 498.0,480.5 504.875,473.125 512.5,462.625 519.5,451.625"/>
    <polyline points="520.75,449.625 528.25,438.25 538.25,424.625 549.875,411.25 562.125,399.5 579.125,385.75 594.25,375.375 603.25,369.875 624.625,358.125"/>
    <polyline points="637.125,352.25 651.0,346.375 666.125,340.875 682.25,336.125 699.0,332.375 716.0,330.25 732.375,330.5 747.25,333.5 759.5,339.75 768.125,349.625 772.5,363.125 772.375,379.625 767.875,398.5 759.625,418.75 748.75,439.25 736.25,459.25 722.875,477.875 709.625,494.875 696.875,510.0 685.0,523.125 674.125,534.25 655.75,551.5 641.25,563.0 635.25,567.0"/>
    <polyline points="629.75,570.125 625.0,572.625 616.625,575.5 609.5,576.625 603.25,576.5 595.0,575.0 570.25,567.0 562.75,565.25"/>
    <polyline points="561.0,564.875 554.25,564.125 549.625,564.125 542.625,565.125 538.875,566.25 535.25,567.75 533.0,569.0 527.875,572.875"/>
    <polyline points="526.875,573.75 521.125,580.0 517.375,585.0 507.0,600.375 503.0,605.625 499.875,609.125"/>
    <polyline points="498.125,611.0 491.875,616.25 489.25,617.875 483.25,620.875 479.625,622.125 475.375,623.125 470.625,623.875 465.0,624.25 458.5,624.125 451.0,623.25 442.0,621.625 431.25,619.0 418.5,614.875 403.25,608.875 384.875,600.625 362.875,589.25 336.75,574.125 306.0,554.5 270.75,529.375 231.875,498.5 191.5,462.625 154.0,423.625 124.5,385.75"/>
    <polyline points="108.5,354.125 108.625,333.625 123.625,326.375 149.125,331.375 179.125,345.375 208.75,364.5 235.0,385.625 256.5,406.5 272.875,426.25 284.625,444.125 292.5,460.25 297.125,474.625 299.5,487.5 300.375,499.0 300.125,509.125 299.125,525.75 299.25,532.375 300.0,537.625 301.75,541.75 304.5,544.75 308.125,546.625 312.75,547.625 318.125,547.625 324.125,546.875 330.5,545.625"/>
    <polyline points="337.25,543.875 351.0,539.625 383.5,528.375 400.25,523.125 410.125,520.5 423.25,517.75 434.5,516.125 441.0,515.5 454.75,515.25"/>
    <polyline points="457.0,515.375 463.375,515.75 476.125,517.875 483.5,520.375 486.5,522.0 488.25,523.375"/>
    <polyline points="488.75,523.75 491.0,526.625 492.125,530.375 492.0,533.5 491.5,536.125 490.75,538.125"/>
    <polyline points="490.5,538.875 487.5,544.375 485.625,546.875 482.5,550.25 479.5,552.875 475.75,555.5 472.875,557.125 467.625,559.375"/>
    <polyline points="465.625,560.0 458.5,561.5 449.25,562.25 441.75,561.875 432.625,560.5 427.5,559.5 415.625,556.125 408.875,553.875 393.5,547.625 375.5,538.75 365.375,533.25 343.625,519.625 332.25,511.625 320.75,502.875 309.375,493.75 298.75,484.125"/>
    <polyline points="289.25,474.625 281.125,465.5 275.0,457.0 271.25,449.75 269.75,444.0 270.875,440.0 274.25,437.625 279.75,437.125 286.875,438.125 295.25,440.375 304.5,443.75 314.125,447.875 333.625,457.0 368.75,474.625 383.5,481.5 402.375,489.125 407.875,491.0 418.0,493.875"/>
    <polyline points="422.5,494.875 434.75,496.875 442.0,497.375 448.375,497.375 456.875,496.625 464.375,495.25 472.875,492.75 480.125,489.5 486.375,485.875"/>
    <polyline points="487.875,484.75 494.5,479.25 499.25,474.125 502.5,470.0 504.75,467.0 510.125,458.625 517.125,446.625"/>
    <polyline points="518.375,444.5 522.5,437.25 529.375,426.375 538.75,413.625 545.0,406.125 552.625,398.0 557.125,393.5 568.125,383.625 582.375,372.5 591.125,366.375 601.125,359.875 625.5,345.875 640.25,338.5"/>
    <polyline points="657.0,331.125 675.5,324.0 695.625,317.625 717.0,312.625 738.875,309.875 759.75,310.25 778.125,314.875 792.5,324.375 801.125,339.25 803.25,359.0 798.875,382.625 789.0,408.5 775.25,435.125 759.125,460.875 742.375,484.875 726.125,506.25 711.0,524.75 697.5,540.625 685.75,553.75 675.625,564.5 667.125,573.25 660.0,580.0 648.75,589.25 644.375,592.0 640.5,593.75"/>
    <polyline points="637.125,594.75 634.125,595.0 631.25,594.75 628.5,594.0 623.375,591.5 618.25,588.0 599.875,573.5 591.75,567.75 581.375,561.5 571.625,556.875"/>
    <polyline points="569.25,556.0 564.75,554.375 556.5,552.125 547.25,550.875 540.875,550.875 536.5,551.375 533.75,551.875 527.5,553.875"/>
    <polyline points="526.375,554.375 521.875,556.75 515.5,561.25 498.25,576.875"/>
    <polyline points="496.75,578.0 489.875,582.875 485.75,585.125 480.875,587.25 475.0,589.125 468.0,590.375 459.25,590.875 448.375,590.25 441.75,589.25 426.0,585.375 416.375,582.375 405.5,578.25 393.125,573.0 379.0,566.25 363.125,557.875 345.25,547.375"/>
    <polyline points="325.5,534.75 304.125,519.75 281.625,502.5 258.875,483.25 237.25,462.75 218.375,442.125 204.0,422.875 195.75,406.75 194.25,395.0 199.375,388.625 210.125,387.375 224.875,390.875 241.875,397.875 259.5,407.125 276.75,417.625 292.75,428.5 307.125,439.0 331.0,457.625 361.75,483.75 371.5,491.875 375.625,494.875"/>
    <polyline points="379.25,497.5 385.5,501.375 388.375,502.75 395.875,505.25 400.5,505.875 407.125,505.75 415.625,504.25 425.375,501.25 434.25,497.5"/>
    <polyline points="435.875,496.625 443.375,492.5 448.25,488.875 451.25,486.125 452.875,484.25 454.75,481.375 455.875,478.625 456.125,475.875 455.75,474.125"/>
    <polyline points="455.25,473.25 453.25,471.0 451.0,469.75 448.0,468.875 444.0,468.5 438.875,468.75 432.5,469.625 419.875,473.0 414.75,474.75 403.125,479.5 389.625,486.0 382.125,489.875 374.375,494.375 358.0,504.5"/>
    <polyline points="349.875,510.125 334.375,521.875 327.5,527.75 316.875,538.625 313.375,543.25 311.375,547.125 310.875,550.125 311.875,552.25 314.25,553.375 317.75,553.625 322.25,553.125 333.625,550.125 346.625,545.5 379.375,532.625 396.75,526.25 402.0,524.625"/>
    <polyline points="407.0,523.125 416.25,520.625 428.375,518.0 432.0,517.375 444.875,516.125 452.875,515.875 461.75,516.375 467.25,517.0 474.625,518.625"/>
    <polyline points="490.25,531.5 490.25,533.375 489.625,536.75 488.875,539.0 487.375,542.0 484.0,547.0 480.75,550.375"/>
    <polyline points="479.75,551.25 477.625,553.0 473.75,555.5 470.625,557.125 467.125,558.5 462.875,559.75 458.0,560.75 449.0,561.375 437.375,560.5 427.625,558.75 416.125,555.625 402.25,550.625"/>
    <polyline points="394.5,547.375 376.875,538.75 367.125,533.375 356.75,527.25 345.875,520.375 334.75,512.625 323.5,504.25 312.5,495.375 302.0,486.125 292.5,476.875 284.375,467.75 278.0,459.5 273.875,452.25 272.125,446.25 272.625,442.0 275.5,439.375 280.5,438.5 287.125,439.125 295.0,441.0 303.875,444.125 313.25,447.875 322.75,452.125 350.625,465.75"/>
    <polyline points="359.25,470.0 375.125,477.75 395.375,486.5 412.25,492.375 426.25,495.75 438.0,497.25 448.125,497.625 456.75,497.0 462.0,496.25 468.875,494.75"/>
    <polyline points="471.0,494.125 480.375,490.5 485.25,487.875 491.0,483.875 494.875,480.625 498.5,477.0 503.0,471.75 506.25,467.25"/>
    <polyline points="507.375,465.75 524.625,437.875 534.0,424.125 538.875,417.75 544.75,410.75 552.0,403.0"/>
    <polyline points="556.25,398.875 566.25,389.75 579.125,379.5 595.75,368.0 605.75,361.75 617.125,355.25 630.0,348.625 644.375,341.75 660.5,335.125 678.0,329.0 696.875,323.625 716.5,319.75 736.125,318.25 754.5,319.625 770.25,325.0 782.25,334.625 789.125,348.875 790.375,367.125 786.125,388.625 777.125,412.0 764.625,436.0 750.125,459.25 734.875,481.0"/>
    <polyline points="719.875,500.625 705.625,517.75 692.75,532.5 681.25,545.0 671.25,555.25 655.0,570.375 642.875,579.75 637.875,582.75 633.625,584.875 629.75,586.25 626.25,587.0 623.0,587.25 617.125,586.5 611.75,584.75 606.625,582.25 591.875,573.625"/>
    <polyline points="589.5,572.125 580.125,567.125 573.5,564.125 563.25,560.625 557.5,559.375 552.25,558.625 545.875,558.5 541.375,559.0"/>
    <polyline points="540.0,559.25 534.75,560.625 531.125,562.125 525.5,565.375 520.25,569.625 511.875,578.25"/>
    <polyline points="510.75,579.5 503.5,587.5 495.5,594.625 491.5,597.5 486.75,600.125 481.0,602.5 474.0,604.375 465.0,605.375 453.375,605.0 446.375,604.125 438.125,602.5"/>
    <polyline points="428.75,600.0 417.75,596.5 405.0,591.625 390.125,585.125 372.75,576.625 352.75,565.625 329.875,551.625 304.125,534.375 275.875,513.5 246.125,489.125 216.75,462.25 190.25,434.125 169.75,407.5 158.0,385.0 156.375,369.25 164.625,361.75 180.75,362.125 201.5,369.25 224.25,380.75 246.375,394.75 266.5,409.625 284.0,424.25 298.625,438.0 310.5,450.5 320.0,461.5 327.375,471.375"/>
    <polyline points="333.25,479.875 341.125,493.75 350.0,511.75 353.75,517.125 357.875,520.625 363.0,522.5 365.75,522.875 372.0,523.0 378.875,522.25 390.0,520.0 408.75,515.0"/>
    <polyline points="412.375,513.875 432.75,507.875 455.125,500.625 468.375,495.375 477.625,490.75"/>
    <polyline points="479.25,489.75 483.875,486.75 489.5,482.375 496.875,474.875 504.5,464.5 509.75,455.625"/>
    <polyline points="510.875,453.75 520.625,435.875 527.125,424.875 533.5,415.375 542.0,404.25 549.375,395.875 558.75,386.5 571.0,375.75 578.625,369.75"/>
    <polyline points="587.25,363.375 609.0,349.25 622.375,341.625 637.875,333.5 655.5,325.25 675.375,317.125 697.375,309.625 721.125,303.5 745.625,299.5 769.375,299.25 790.625,303.625 807.125,314.0 816.875,330.625 818.875,353.125 813.25,380.0 801.25,409.625 785.0,439.625 766.625,468.25 748.0,494.5 730.375,517.5 714.625,537.25 701.0,553.75 689.5,567.25 672.125,586.75"/>
    <polyline points="665.875,593.25 660.75,598.125 656.5,601.5 653.0,603.625 650.0,604.625 647.25,604.875 644.75,604.25 642.375,603.125 637.625,599.25 618.0,578.625 611.625,572.625 605.125,567.0 598.625,562.0 589.25,555.5"/>
    <polyline points="586.25,553.75 580.375,550.375 569.5,545.375 562.125,542.75 557.625,541.5 551.5,540.125 544.125,539.125 536.25,539.0 533.5,539.25"/>
    <polyline points="532.125,539.375 526.0,540.625 520.75,542.5 514.125,546.125 507.125,551.75"/>
    <polyline points="506.25,552.5 498.625,559.625 492.75,564.625 487.0,568.625 479.625,572.625 475.0,574.375 469.625,575.75"/>
    <polyline points="466.625,576.375 463.25,576.875 455.625,577.25 446.25,576.75 440.75,576.0 427.875,573.25 420.25,571.125 411.875,568.25 402.375,564.625 391.875,560.125 380.25,554.5 367.375,547.75 353.25,539.5 338.0,530.0 321.75,518.875 305.0,506.375 288.0,492.625 271.625,478.0 256.75,463.125 244.5,448.75 235.5,435.625 230.75,424.875 230.25,417.125"/>
    <polyline points="234.125,412.5 241.75,411.375 252.25,413.125 264.625,417.25 277.875,423.125 291.5,430.125 304.875,437.5 329.25,452.375 366.75,475.875 374.0,480.125 386.625,486.75 397.0,491.5 405.875,494.5 417.0,496.75 420.25,497.125 426.25,497.25"/>
    <polyline points="429.0,497.125 434.125,496.5 443.0,494.25 448.625,492.0 452.0,490.25 456.375,487.5 460.25,484.5 464.375,480.125 467.25,475.625"/>
    <polyline points="467.75,474.375 468.625,472.0 469.125,468.5 469.125,467.25 468.25,463.75 467.0,461.625 465.0,459.625 460.25,457.25 455.75,456.25 449.625,456.125 445.875,456.375 436.875,457.75 425.375,460.875"/>
    <polyline points="418.375,463.25 402.0,469.875 392.5,474.25 370.625,485.875 358.5,493.0 345.875,501.0 332.75,509.875 319.875,519.25 307.5,529.125 296.25,538.875 286.75,548.25 279.5,556.75 274.75,563.875 272.875,569.375 273.75,573.0 277.25,574.75 282.875,574.625 290.125,573.0 298.5,570.25 307.625,566.5 316.875,562.25 343.875,548.5"/>
    <polyline points="352.0,544.25 366.625,536.625 384.625,528.25 398.875,522.875 406.625,520.75 416.25,519.125 424.125,518.875 428.5,519.125 432.25,519.75 439.75,522.125"/>
    <polyline points="440.875,522.75 443.0,523.875 446.0,526.375 447.375,528.375 448.0,530.25 447.875,532.25 447.375,533.375 445.875,535.125 444.375,536.125 441.375,537.375"/>
    <polyline points="440.125,537.625 433.875,538.5 427.625,538.25 417.0,536.375 410.625,534.625 403.375,532.125 395.375,528.875 382.125,522.375 368.0,513.875 358.625,507.375"/>
    <polyline points="354.125,504.0 346.0,497.125 342.5,493.75 339.5,490.5 337.125,487.375 335.375,484.625 334.25,482.125 333.75,480.125 334.0,478.375 335.0,477.125 336.625,476.375 338.875,475.875 341.625,475.875 344.875,476.25 352.625,478.0 361.5,480.625 370.875,483.875 394.375,492.625"/>
    <polyline points="398.875,494.25 429.875,504.875 460.875,513.875 469.25,516.625"/>
    <polyline points="470.75,517.125 478.0,520.0 483.0,523.0 486.25,526.125 487.625,528.375 488.25,530.25"/>
    <polyline points="488.375,530.75 488.625,534.0 488.125,536.75 487.125,539.75 483.875,545.375 480.0,549.625"/>
    <polyline points="479.125,550.5 473.25,554.75 466.75,557.75 460.375,559.5 455.25,560.25 449.125,560.625 441.875,560.375 428.375,558.25 417.125,555.25 403.875,550.625"/>
    <polyline points="396.25,547.5 379.25,539.375 359.75,528.5 349.25,521.875 338.375,514.5 327.375,506.5 316.5,497.875 306.125,488.875 296.5,479.875 288.25,471.0 281.5,462.625 276.875,455.25 274.375,449.0 274.25,444.375 276.375,441.25 280.625,439.875 286.625,440.0 294.0,441.5 302.375,444.125 311.375,447.5 330.125,455.875 348.375,464.875"/>
    <polyline points="357.0,469.125 380.25,480.125 393.625,485.875 410.75,491.875 420.625,494.625 429.375,496.375 437.125,497.375 444.25,497.875 450.5,497.875 456.25,497.5 464.0,496.375 468.625,495.375"/>
    <polyline points="470.75,494.875 476.625,492.875 482.0,490.625 488.25,487.125 493.75,483.125 498.625,478.625 502.125,474.875 506.5,469.25"/>
    <polyline points="507.625,467.75 514.25,457.875 526.125,438.875 531.5,431.0 540.75,419.0 550.25,408.5"/>
    <polyline points="554.0,404.625 563.0,396.125 574.375,386.75 588.75,376.375 597.375,370.75 607.125,364.75 618.125,358.75 630.375,352.375 644.125,346.125 659.25,340.125 675.625,334.5 693.125,329.75 711.25,326.375 729.125,325.125 745.875,326.625 760.5,331.5 771.625,340.25 778.375,352.875 780.25,369.25 777.125,388.5 769.625,409.75 758.875,431.625 746.0,453.125"/>
    <polyline points="732.0,473.5 717.875,492.125 704.25,508.75 691.625,523.125 680.125,535.5 670.0,545.75 653.0,561.25 639.875,571.125 634.375,574.5 625.375,578.875 617.875,580.75 614.5,581.0 608.5,580.625 603.0,579.375 595.375,576.625 588.25,573.5"/>
    <polyline points="586.0,572.375 571.0,566.375 563.25,564.125 559.625,563.375 552.875,562.625 548.25,562.625 541.25,563.75"/>
    <polyline points="540.0,564.0 533.875,566.375 527.375,570.625 520.375,577.5 513.5,586.25"/>
  </g>
</svg>
