<?xml version="1.0" encoding="utf-8" ?>
<svg xmlns="http://www.w3.org/2000/svg" xmlns:cc="http://creativecommons.org/ns" xmlns:dc="http://purl.org/dc/elements/1.1/" xmlns:ev="http://www.w3.org/2001/xml-events" xmlns:inkscape="http://www.inkscape.org/namespaces/inkscape" xmlns:rdf="http://www.w3.org/1999/02/22-rdf-syntax-ns" xmlns:sodipodi="http://sodipodi.sourceforge.net/DTD/sodipodi-0.dtd" xmlns:xlink="http://www.w3.org/1999/xlink" baseProfile="tiny" height="27.09333333cm" version="1.2" viewBox="0 0 1024.0 1024.0" width="27.09333333cm">
  <metadata>
    <rdf:RDF>
      <cc:Work>
        <dc:format>image/svg+xml</dc:format>
        <dc:source>vpype read './original_svgs/Strange Attractors #21.svg' linemerge linesimplify write './Strange Attractors #21.svg'
</dc:source>
        <dc:date>2024-08-05T01:35:17.757725</dc:date>
      </cc:Work>
    </rdf:RDF>
  </metadata>
  <defs/>
  <g fill="none" id="layer1" inkscape:groupmode="layer" inkscape:label="1" stroke="black" stroke-width="0.7mm" style="display:inline">
    <polyline points="369.75,464.125 346.125,434.125 331.375,405.625 323.375,376.25 320.875,344.25 323.875,307.75 333.25,265.25 350.5,215.875 377.375,160.625 415.75,103.125 466.0,51.0 525.125,16.0 586.625,9.625 641.75,36.375 683.875,90.625 711.625,159.75 727.0,230.875 734.0,295.625 735.875,350.125 735.0,394.0 732.25,427.75 728.125,453.125 722.625,471.375 715.625,484.0 706.875,491.75 696.125,495.625"/>
    <polyline points="683.625,496.25 669.5,494.375 654.375,490.5 638.875,485.125 623.375,478.75 608.5,472.0 594.75,465.0 571.125,451.875 561.375,446.125 534.875,429.5 526.875,424.875 523.75,423.375 518.75,421.75 515.0,421.5 512.0,422.125 508.375,424.375"/>
    <polyline points="507.25,425.375 497.375,435.625 494.375,438.125 490.25,440.625 488.125,441.5 484.875,442.25 481.625,442.375"/>
    <polyline points="480.625,442.375 476.25,441.25 472.0,438.875 468.875,436.125 465.875,432.5 464.0,429.625 460.875,422.5 459.25,415.875 458.5,410.75"/>
    <polyline points="458.375,408.0 458.375,402.125 459.5,392.375 462.25,381.875 463.5,378.25 466.875,371.125 471.0,364.375 473.5,361.125 478.875,355.625 481.875,353.25 485.0,351.375 488.25,349.875 491.5,348.875 494.875,348.375 498.125,348.5 501.375,349.125 504.5,350.25 507.5,352.0"/>
    <polyline points="510.25,354.25 515.375,360.125 517.5,363.625 521.0,371.625 523.5,380.375 524.375,384.875 525.5,394.0 525.75,403.0 525.375,411.5 523.75,423.125 522.375,430.125 520.625,436.375 516.625,447.0"/>
    <polyline points="515.625,449.25 513.5,453.375 509.125,460.25 504.625,465.5 502.375,467.625 498.0,470.875 494.625,472.75 491.125,474.0 487.75,474.75"/>
    <polyline points="486.5,474.875 484.125,475.125 479.25,474.875 474.125,473.75 470.125,472.375 463.125,468.875 457.25,464.75 452.75,460.625"/>
    <polyline points="451.25,459.125 446.75,453.75 443.75,449.375 440.875,444.375 438.125,438.625 435.75,431.875 433.75,424.125 432.875,419.75 431.875,410.0 431.75,404.5 432.25,392.5 433.0,385.875 434.25,378.75 436.0,371.25 438.25,363.5 441.125,355.375 444.5,347.0"/>
    <polyline points="448.75,338.5 453.625,330.125 459.25,322.0 465.625,314.25 472.625,307.25 480.25,301.375 488.375,296.75 496.75,293.625 505.25,292.25 513.625,292.875 521.625,295.375 529.25,299.75 536.125,305.875 542.125,313.5 547.375,322.25 551.75,332.0 555.25,342.25 558.0,352.875 559.875,363.5 561.25,373.875 562.0,384.0 562.25,402.625 561.25,419.125 560.375,426.375"/>
    <polyline points="559.5,433.125 558.5,439.25 555.25,454.875 550.125,473.375 544.375,491.0 543.125,495.5 542.125,501.375"/>
    <polyline points="542.0,502.375 542.0,505.25 542.375,507.625 543.375,510.5 544.875,513.0 546.375,514.75 548.875,516.875 551.875,518.875"/>
    <polyline points="552.625,519.375 560.25,523.125 563.75,524.5 583.125,531.125"/>
    <polyline points="584.75,531.625 605.5,538.125 610.0,540.0 611.625,541.125 611.625,541.375 610.5,541.875 607.5,542.0"/>
    <polyline points="605.125,542.0 567.25,540.125 549.25,539.625 529.5,539.625 509.875,540.375 492.375,542.25 478.25,544.875 472.75,546.375 468.25,547.875 461.875,550.875 458.5,553.25 457.25,554.875"/>
    <polyline points="457.125,555.375 457.375,555.625 458.375,555.5 461.625,553.25 464.125,550.25 466.375,546.75 468.25,543.0 469.625,539.125 470.5,535.375 470.875,531.875"/>
    <polyline points="470.875,530.625 470.75,527.375 469.875,523.25 467.75,518.5 466.625,516.625 463.0,512.25 457.25,507.0"/>
    <polyline points="456.125,506.0 434.25,489.375 428.75,484.625 420.625,476.875 414.25,469.5"/>
    <polyline points="412.125,466.75 407.875,460.25 403.625,452.625 399.625,443.375 397.875,438.0 396.25,432.125 393.625,418.25 392.875,410.125 392.5,401.0 392.75,390.875 393.75,379.625 395.5,367.0 398.375,353.0 402.5,337.75 408.25,321.125 415.75,303.375 425.25,284.75 437.125,266.0 451.25,247.875 467.5,231.625 485.75,218.5 505.125,209.875"/>
    <polyline points="525.0,206.875 544.125,210.25 561.75,219.875 577.0,235.125 589.5,254.5 599.25,276.75 606.25,300.125 611.0,323.625 613.875,346.125 615.25,367.0 615.625,385.875 615.25,402.875 614.375,417.75 613.125,430.75 611.75,442.0 608.625,460.0 605.625,473.25 602.875,482.875 597.75,497.625"/>
    <polyline points="597.0,499.625 595.375,504.25 594.625,507.625 594.625,509.625 595.25,512.25 596.0,513.75 599.5,517.5 602.5,519.625 607.5,522.375"/>
    <polyline points="609.0,523.125 613.875,525.25 623.5,528.75 638.0,533.0 652.25,536.5 671.5,540.375"/>
    <polyline points="674.75,541.0 683.75,542.25 688.625,542.5 690.5,542.375 691.75,542.0 692.375,541.375 692.125,540.375 690.75,539.0 684.75,534.875 679.875,532.0 618.125,498.625 574.0,474.0"/>
    <polyline points="567.25,470.375 555.75,464.375 546.625,460.375 542.75,459.0 536.25,457.25 530.875,456.75 526.375,457.0 522.5,458.0 519.125,459.375 514.625,461.875 505.625,468.0"/>
    <polyline points="504.5,468.75 497.5,472.75 490.625,475.125 485.875,475.75 482.375,475.75 478.625,475.375 474.75,474.5"/>
    <polyline points="473.5,474.125 470.75,473.25 466.625,471.375 462.375,469.0 456.5,464.75 450.375,459.0 447.375,455.375 442.875,449.0 440.0,443.875 437.375,437.875"/>
    <polyline points="436.125,434.5 433.875,427.125 431.625,413.625 431.25,402.75 431.375,396.75 432.875,383.5 434.25,376.25 436.125,368.625 438.625,360.625 441.75,352.25 445.375,343.75 449.875,335.25 455.125,326.75 461.0,318.625 467.75,311.0 475.0,304.25 483.0,298.625 491.25,294.375 499.75,291.875 508.375,291.25 516.75,292.5"/>
    <polyline points="524.75,295.75 532.25,300.75 538.875,307.625 544.75,315.75 549.75,325.125 553.75,335.25 557.0,345.75 559.5,356.5 561.125,367.25 562.25,377.625 562.875,387.625 563.0,397.125 562.75,406.125 561.625,422.125 559.75,435.875 557.625,447.375 554.375,461.25 550.375,474.875"/>
    <polyline points="549.5,477.625 545.375,490.375 543.125,500.0 542.875,505.0 543.25,507.5 544.375,510.5"/>
    <polyline points="544.625,511.125 546.875,514.25 550.625,517.5 557.5,521.5 564.0,524.25"/>
    <polyline points="565.25,524.75 577.375,529.125 603.25,537.25"/>
    <polyline points="604.75,537.75 610.875,540.0 612.625,541.125 612.625,541.5 610.5,542.0 606.375,542.125 568.125,540.125 549.625,539.625 529.5,539.5"/>
    <polyline points="519.25,539.75 500.0,541.125 483.625,543.5 477.0,545.0 471.375,546.5 463.125,549.75 458.375,552.5 456.125,554.625 455.75,555.875 456.5,556.25 457.125,556.125 459.5,554.625 463.75,549.75"/>
    <polyline points="464.5,548.5 466.5,544.75 468.0,540.875 469.25,535.75 469.625,532.125 469.625,529.875 469.0,525.5 466.75,519.625"/>
    <polyline points="466.125,518.625 462.875,514.125 457.5,508.625 450.5,503.0 438.5,494.125"/>
    <polyline points="436.875,492.75 425.625,483.5 417.375,475.25 410.875,467.375 406.5,460.875 402.25,453.25 398.25,444.0 396.375,438.625 393.25,426.0 391.25,410.375 390.875,401.125"/>
    <polyline points="391.125,390.875 392.0,379.375 393.875,366.625 396.75,352.375 401.0,336.75 406.875,319.625 414.5,301.375 424.375,282.375 436.5,263.125 451.125,244.5 468.0,227.875 486.875,214.5 506.875,205.875 527.25,203.375 546.875,207.375 564.75,217.75 580.125,233.875 592.625,254.375 602.25,277.375 609.125,301.625 613.75,325.5 616.375,348.375 617.625,369.5 617.875,388.5 617.375,405.5 616.375,420.375"/>
    <polyline points="615.0,433.25 613.625,444.375 612.0,453.875 608.875,469.0 604.5,484.375 601.125,494.0 597.25,503.375 596.5,505.875 595.875,509.75 596.625,513.0"/>
    <polyline points="597.0,513.75 598.75,515.875 601.125,518.0 603.0,519.375 609.25,522.75 619.25,526.875 632.125,531.0"/>
    <polyline points="634.625,531.625 650.875,535.75 666.0,538.875 680.5,541.0 685.0,541.25 687.75,540.625 688.25,540.0 686.75,537.75 681.25,533.875"/>
    <polyline points="676.75,531.25 671.25,528.0 630.125,506.0 586.125,482.0 572.25,474.625 560.875,469.0 551.625,465.0 547.75,463.625 541.125,461.875 538.25,461.5 533.25,461.375 529.0,462.125"/>
    <polyline points="527.125,462.625 523.625,464.0 519.125,466.5 503.75,477.5 496.5,481.125"/>
    <polyline points="495.5,481.5 489.125,482.875 484.75,483.0 481.375,482.75 474.25,481.125 470.375,479.75 466.375,477.875"/>
    <polyline points="464.875,477.25 457.625,472.75 451.5,467.875 446.75,463.25 440.25,455.25 437.125,450.375 432.625,441.375 430.0,434.125 427.75,425.75"/>
    <polyline points="426.875,421.0 426.125,415.875 425.5,404.25 425.625,397.75 427.0,383.25 430.375,366.75 433.125,357.75 436.5,348.375 440.625,338.625 445.625,328.75 451.625,319.0 458.375,309.5 466.125,300.75 474.75,292.875 483.875,286.5 493.625,281.875 503.625,279.25 513.5,279.0 523.125,281.125 532.25,285.75 540.5,292.5 547.75,301.25 554.0,311.5"/>
    <polyline points="559.125,322.75 563.125,334.875 566.25,347.125 568.375,359.375 569.875,371.375 570.625,382.875 570.875,393.75 570.625,403.875 569.5,422.0 566.375,443.625 563.0,459.875 554.75,490.375"/>
    <polyline points="554.25,492.25 552.75,501.25 552.75,503.625 553.25,506.875 554.5,510.5 556.0,512.875 557.875,515.125 561.0,517.875"/>
    <polyline points="561.875,518.5 565.875,521.0 574.625,525.125 587.0,529.75 598.0,533.25"/>
    <polyline points="599.875,533.875 622.625,540.875 626.625,542.375 628.25,543.5 627.125,543.875 623.625,544.0 611.25,543.125"/>
    <polyline points="604.75,542.5 587.625,541.0 564.875,539.5 537.75,538.375 509.125,538.75 495.375,539.5 482.75,540.875 471.5,542.75 461.875,545.0 454.0,547.5 447.75,550.25 443.0,553.0 439.625,555.625 437.375,558.0 435.875,560.25 435.25,562.125 435.125,563.625 435.5,564.875 436.125,565.75 437.0,566.25 439.0,566.5"/>
    <polyline points="440.25,566.25 443.625,564.25 445.875,562.125 449.5,556.875 451.5,552.5 452.5,549.625 453.5,545.25 453.75,538.375 453.125,534.625"/>
    <polyline points="452.875,533.375 452.125,531.0 449.875,526.5 446.75,522.125 444.875,520.125 441.625,517.0 436.5,512.875 427.0,506.375"/>
    <polyline points="425.25,505.125 408.75,494.25 401.5,488.875 391.125,479.875 385.625,474.25 380.125,467.375 374.625,459.0 369.375,448.5 366.875,442.25 364.625,435.125"/>
    <polyline points="362.75,426.875 361.125,417.625 360.125,406.875 359.75,394.5 360.25,380.25 362.0,363.75 365.375,344.75 370.75,322.875 378.625,298.25 389.875,270.75 405.0,241.25 424.5,210.875 448.625,181.625 477.125,156.875 508.75,140.0 541.375,134.25 572.625,141.5 599.875,161.375 621.875,191.125 638.0,227.125 648.875,265.25 655.375,302.625 658.75,337.125 659.875,367.75 659.5,394.0 658.25,416.125"/>
    <polyline points="656.5,434.5 654.375,449.625 651.875,461.75 649.375,471.5 646.625,479.25 643.875,485.25 641.0,489.875 637.875,493.375 634.75,496.0 631.625,497.75 628.375,499.0 621.625,500.125 615.0,500.125 594.125,497.25 585.25,496.5"/>
    <polyline points="583.375,496.5 578.5,497.0 576.0,497.75 573.125,499.25 571.625,500.5 570.625,501.875 570.0,503.375 569.625,505.75 570.25,509.0 572.0,512.25"/>
    <polyline points="572.625,513.125 575.625,516.25 578.625,518.5 586.25,523.0 594.375,526.625 608.625,531.625"/>
    <polyline points="611.0,532.375 626.5,537.0 641.5,541.0 690.375,552.875"/>
    <polyline points="693.5,553.625 701.75,555.5 682.5,551.5 650.75,545.625 626.0,541.5 594.5,536.875 556.5,532.25 514.375,528.875 471.125,527.625 431.25,529.625 398.0,535.125 372.875,543.875 355.875,555.0 345.5,567.5 340.0,580.625 337.75,593.625 337.875,606.25 339.5,618.25"/>
    <polyline points="342.125,629.375 345.75,639.625 350.125,648.875 355.25,656.875 361.125,663.5 367.625,668.625 374.875,672.125 382.5,674.0 390.625,674.125 399.125,672.75 407.5,669.75 416.0,665.5 424.125,660.125 432.0,654.0 439.5,647.125 446.5,639.875 453.0,632.5 459.0,625.125 469.375,610.75 481.5,591.625 490.375,576.25"/>
    <polyline points="492.75,571.875 500.375,557.75 508.375,544.25 513.25,537.375 515.0,535.375 517.5,532.875 521.375,529.875"/>
    <polyline points="522.125,529.375 527.25,527.0 530.25,526.25 535.625,525.625 541.5,525.875"/>
    <polyline points="542.375,525.875 556.125,528.125 569.0,531.25"/>
    <polyline points="570.25,531.5 581.25,534.625 587.25,536.75 590.125,538.375 590.25,538.875 588.875,539.625"/>
    <polyline points="587.875,539.75 580.875,540.125 538.25,540.125 522.125,540.875 503.875,542.75 492.0,544.875"/>
    <polyline points="490.125,545.25 487.5,546.0 485.5,546.125 485.625,545.625 489.875,540.75 495.625,533.125"/>
    <polyline points="496.125,532.25 500.5,525.0 503.5,517.875"/>
    <polyline points="503.625,517.5 503.875,514.25 503.5,513.0 502.5,511.5"/>
    <polyline points="502.375,511.25 499.75,509.25 495.25,506.875"/>
    <polyline points="479.5,499.625 495.0,506.625 479.25,499.625"/>
    <polyline points="478.375,499.125 470.375,495.25 462.0,490.5 455.0,486.125 447.25,480.375"/>
    <polyline points="445.625,479.0 438.75,472.75 433.375,466.75 429.75,462.125 426.125,456.75 420.875,446.75 419.25,442.875 416.25,434.0 413.875,423.5 412.375,410.875 412.125,403.625 412.25,395.75 412.75,387.125 414.0,377.625"/>
    <polyline points="415.875,367.5 418.625,356.5 422.25,344.625 426.875,332.25 432.875,319.25 440.0,306.125 448.625,293.125 458.625,280.75 469.875,269.625 482.25,260.25 495.375,253.625 509.0,250.125 522.5,250.125 535.5,254.0 547.375,261.375 557.875,272.0 566.75,285.25 574.0,300.25 579.5,316.375 583.625,332.875 586.5,349.25 588.125,364.875 589.0,379.75 589.125,393.375 588.875,405.875 588.125,417.25"/>
    <polyline points="587.125,427.5 584.75,444.75 582.25,458.375 579.875,469.125 574.5,490.0 573.125,496.5 572.5,503.125 573.25,508.25 574.125,510.375"/>
    <polyline points="574.625,511.375 575.875,513.375 578.375,516.125 581.375,518.625 585.0,521.0 595.875,526.25 610.375,531.5"/>
    <polyline points="612.625,532.25 625.625,536.125 647.5,541.875 682.375,550.25 700.375,554.25"/>
    <polyline points="705.0,555.25 737.25,562.125 744.375,563.5 747.875,563.875 747.25,563.375 744.125,562.375 725.375,557.375 706.25,552.875 677.125,546.625 635.875,538.75 581.5,529.875 516.25,522.0 447.375,518.0 385.0,520.625 337.0,530.875 305.5,547.5 287.75,568.5"/>
    <polyline points="279.5,592.0 277.125,616.625 278.125,641.5 281.75,666.375 287.5,690.5 295.5,713.125 306.25,733.25 319.625,749.375 335.75,760.625 354.0,766.125 373.625,765.25 393.875,758.625 413.625,747.125 432.125,732.125 448.875,714.75 463.5,696.625 475.875,678.625 486.125,661.375 494.5,645.5 501.0,631.125 506.125,618.5 510.0,607.375 512.875,597.75 514.75,589.5 516.75,576.5"/>
    <polyline points="517.0,571.375 516.5,563.375 515.375,557.75 514.0,553.625 510.375,546.625 509.625,543.875 509.875,542.125 510.75,540.5 512.0,539.0"/>
    <polyline points="512.5,538.375 516.0,535.375 520.125,532.625 525.25,530.125 529.875,528.75"/>
    <polyline points="530.625,528.5 536.25,527.625 540.5,527.5 548.0,528.0 553.0,528.75"/>
    <polyline points="554.0,528.875 568.5,532.0 581.5,535.875"/>
    <polyline points="582.375,536.125 585.5,537.625 586.0,538.25 585.875,538.75 583.125,539.5 576.25,539.875 547.625,540.0"/>
    <polyline points="543.0,540.125 520.125,541.125 502.5,543.125 492.5,544.875 491.125,544.75 491.125,544.25 492.5,542.5"/>
    <line x1="493.125" x2="507.375" y1="541.875" y2="524.875"/>
    <polyline points="507.75,524.375 512.0,520.0 514.25,518.25 515.625,517.625"/>
    <polyline points="515.875,517.5 518.5,516.75 523.0,517.0"/>
    <polyline points="523.375,517.0 526.875,517.625 534.875,519.75"/>
    <line x1="535.5" x2="556.5" y1="519.875" y2="525.875"/>
    <polyline points="557.625,526.25 572.5,530.375 590.125,535.75"/>
    <polyline points="591.375,536.125 597.25,538.5 598.375,539.75 597.5,540.25 595.375,540.625 591.75,540.75 550.375,540.0"/>
    <polyline points="543.625,540.0 529.5,540.25 515.875,541.0 503.625,542.25 489.125,544.625 478.25,547.75 474.75,549.25 477.875,546.125"/>
    <polyline points="478.625,545.25 483.375,538.5 486.0,533.375 488.0,527.625 488.75,523.5 488.75,522.0"/>
    <polyline points="488.75,521.375 488.25,517.375 486.75,513.875 483.875,510.125 480.5,507.125"/>
    <polyline points="479.875,506.625 475.375,503.375 459.375,493.375 453.875,489.625"/>
    <polyline points="452.375,488.625 444.5,482.75 437.625,476.625 430.25,468.875 424.625,461.375 419.0,452.125 415.5,444.375 412.375,435.25 409.75,424.375"/>
    <polyline points="408.75,418.125 408.125,411.125 407.875,395.25 408.625,386.125 409.875,376.0 411.875,365.125 414.75,353.25 418.75,340.625 423.875,327.125 430.5,313.125 438.5,298.75 448.0,284.625 459.125,271.25 471.625,259.375 485.375,249.75 499.875,243.25 514.75,240.5 529.375,241.75 543.125,247.375 555.5,256.875 566.25,269.75 575.125,285.25 582.125,302.25 587.25,320.125 590.875,338.0"/>
    <polyline points="593.25,355.375 594.5,371.75 595.0,387.0 594.75,400.875 593.25,424.625 592.125,434.625 588.25,458.125 583.5,478.5 579.0,495.75 578.375,499.5 578.125,505.5"/>
    <polyline points="578.375,506.75 578.875,509.125 581.0,513.25 584.375,516.875 586.5,518.625 594.625,523.375 607.625,528.75"/>
    <polyline points="609.75,529.5 627.375,535.0 646.25,540.0 665.5,544.625 699.625,552.25"/>
    <polyline points="705.5,553.5 760.375,565.125 772.625,567.375 776.375,567.75 777.125,567.125 773.5,565.0 724.25,542.75 694.75,528.875 661.75,512.125 628.125,493.375 596.5,473.875 569.0,454.625 546.25,436.25 528.375,419.25 514.875,403.625 505.125,389.5"/>
    <polyline points="498.625,376.75 494.625,365.375 492.875,355.375 492.75,346.5 494.125,339.0 496.625,332.625 499.875,327.75 503.875,324.125 508.375,321.875 513.125,321.0 517.875,321.625 522.625,323.5 527.125,326.75 531.25,331.0 535.125,336.375 538.375,342.5 541.25,349.25 543.5,356.5 545.375,363.875 547.75,379.25 548.5,394.0 548.5,401.125 547.625,414.25"/>
    <polyline points="547.0,420.25 545.375,431.25 543.375,440.875 541.25,449.25 539.0,456.5 532.875,472.75 528.5,482.0 524.25,489.875"/>
    <polyline points="523.625,491.0 519.25,498.375 514.5,505.25"/>
    <polyline points="514.25,505.625 511.75,508.375 509.5,509.625 507.625,509.75 506.0,509.5 501.25,508.0"/>
    <line x1="500.875" x2="490.25" y1="507.875" y2="503.875"/>
    <polyline points="489.625,503.625 481.125,500.125 468.5,493.75"/>
    <polyline points="467.25,493.125 462.25,490.375 455.375,486.0 446.0,479.0 437.375,470.875 433.75,466.875 428.375,459.625"/>
    <polyline points="426.5,456.875 421.25,447.0 419.625,443.125 416.625,434.375 414.25,424.0 413.375,418.0 412.375,404.375 413.0,388.0 414.125,378.625 416.0,368.625 418.5,357.75 422.125,346.125 426.625,333.75 432.375,321.0 439.5,307.875 447.875,294.875 457.625,282.5 468.625,271.25 480.875,261.875 493.875,254.875"/>
    <polyline points="507.375,251.0 520.875,250.625 533.75,254.0 545.75,261.0 556.375,271.125 565.375,284.0 572.75,298.75 578.5,314.625 582.75,331.125 585.75,347.375 587.625,363.0 588.5,377.875 588.75,391.625 588.5,404.25 587.875,415.75 586.875,426.125 584.625,443.5 580.875,463.125 575.625,483.875"/>
    <polyline points="574.875,486.875 573.125,494.125 572.25,499.75 572.125,504.25 572.75,507.875 574.625,512.125 576.0,514.125 578.625,516.75 583.0,520.0"/>
    <polyline points="584.25,520.75 593.25,525.375 604.75,529.75 624.375,535.875 639.25,539.875"/>
    <polyline points="642.5,540.625 688.375,551.75 726.375,560.0 732.0,561.125 733.75,561.125"/>
    <polyline points="732.0,560.5 719.375,557.25 685.375,549.625 655.875,543.75 615.625,536.75 564.75,529.375 506.0,523.375 446.0,521.125 392.375,524.5 350.875,533.875 322.875,548.5 306.625,566.5 298.5,586.375 295.625,607.0 296.125,627.75 298.75,648.125 303.125,667.75 309.25,686.25 317.25,702.875 327.125,717.0 338.875,728.0 352.5,735.0 367.375,737.625 383.125,736.0"/>
    <polyline points="399.125,730.375 414.875,721.375 429.875,709.75 443.625,696.5 455.875,682.375 466.75,668.0 476.125,654.0 484.125,640.875 490.75,628.625 496.375,617.5 504.625,598.75 512.0,578.125 514.75,568.375 517.0,558.125 518.75,546.875"/>
    <polyline points="519.0,545.75 520.625,540.75 522.625,538.0 526.5,535.25 531.125,533.25"/>
    <polyline points="531.75,533.0 534.0,532.375 542.0,531.25 548.0,531.25 552.625,531.625"/>
    <polyline points="553.5,531.75 559.125,532.5 567.25,534.25 571.75,535.625 573.75,536.625"/>
    <polyline points="574.125,536.75 574.625,537.5 574.125,538.0 573.125,538.375 569.25,538.875 539.0,540.0"/>
    <polyline points="536.0,540.125 508.125,541.875 506.625,541.625 506.25,541.125 506.25,540.625 507.375,539.125"/>
    <polyline points="507.875,538.625 515.875,532.25 520.75,529.375 524.375,527.875"/>
    <polyline points="525.0,527.625 528.625,526.5 533.875,525.75 539.625,525.75 544.875,526.25"/>
    <polyline points="545.875,526.375 556.0,528.125 573.625,532.5"/>
    <polyline points="574.875,532.875 586.125,536.375 588.5,537.375 590.0,538.625 589.875,539.125 587.75,539.75 583.125,540.0"/>
    <polyline points="580.875,540.125 544.5,540.0 528.25,540.5 513.125,541.625 504.625,542.625 495.0,544.25 487.0,546.0"/>
    <polyline points="486.375,546.125 485.75,546.125 485.875,545.625 492.75,537.5 497.875,530.0"/>
    <polyline points="498.375,529.25 502.875,520.875 504.25,516.625"/>
    <polyline points="504.25,516.375 504.375,513.875 503.375,511.75 500.75,509.5 495.5,506.875"/>
    <polyline points="478.625,499.25 470.75,495.375 461.125,489.875 455.5,486.375 447.75,480.625"/>
    <polyline points="446.125,479.375 442.75,476.5 435.75,469.5 428.5,460.25 426.625,457.5 423.125,451.25 421.375,447.75 418.125,439.875 415.375,430.5 414.25,425.125 412.5,412.75 412.125,405.75 412.125,398.0 412.625,389.625 413.625,380.5"/>
    <polyline points="415.25,370.5 417.75,359.625 421.125,348.125 425.5,335.875 431.0,323.125 437.875,310.0 446.0,296.875 455.625,284.25 466.5,272.75 478.625,262.875 491.625,255.375 505.125,250.875 518.625,249.875 531.75,252.625 544.0,259.0 554.875,268.75 564.25,281.25 572.0,295.875 578.0,311.75 582.5,328.125 585.625,344.625 587.75,360.5 588.75,375.5 589.125,389.5 588.875,402.375 588.25,414.125"/>
    <polyline points="587.375,424.625 585.125,442.5 582.625,456.625 573.125,496.0 572.5,501.125 572.5,504.125 573.125,507.875 573.875,510.125"/>
    <polyline points="574.375,511.125 577.125,514.875 579.875,517.5 583.25,520.0 587.25,522.25 595.25,526.0 609.5,531.25"/>
    <polyline points="611.875,532.0 624.75,535.875 646.25,541.625 698.625,553.875"/>
    <polyline points="703.25,554.875 735.0,561.75 745.25,563.375 744.625,562.875 741.5,561.875 723.0,557.125 675.75,546.625 635.625,538.875 582.75,530.375 519.25,522.75 452.0,518.625 390.5,520.875 342.5,530.375 310.5,546.25 292.25,566.5"/>
    <polyline points="283.375,589.125 280.625,612.875 281.375,637.125 284.5,661.125 289.875,684.375 297.375,706.375 307.25,726.0 319.75,742.25 334.75,753.875 352.0,760.125 370.625,760.625 390.0,755.5 409.125,745.5 427.375,731.875 444.0,715.75 458.625,698.5 471.25,681.0 481.875,664.25 490.625,648.5 497.625,634.25 503.25,621.375 507.625,610.125 510.875,600.25 513.25,591.75 516.0,578.25"/>
    <polyline points="516.625,572.875 516.875,564.5 516.25,558.375 514.875,552.25 512.625,546.375 512.125,544.125 512.375,541.75 513.125,540.125 514.375,538.625"/>
    <polyline points="514.875,538.125 519.0,534.875 523.125,532.5 526.875,530.875 532.25,529.375"/>
    <polyline points="533.125,529.25 538.875,528.5 544.25,528.5 549.125,528.875 556.25,530.0"/>
    <polyline points="557.25,530.125 572.625,533.625 579.5,535.75 582.25,537.0"/>
    <polyline points="582.75,537.25 583.5,538.0 583.0,538.75 581.75,539.125 576.375,539.625 548.375,539.875 531.375,540.5"/>
    <polyline points="527.125,540.75 512.25,541.875 496.125,544.125 494.5,544.0 494.375,543.625 495.0,542.5 497.5,539.625"/>
    <polyline points="498.125,539.0 507.5,528.875 512.625,524.125"/>
    <polyline points="513.125,523.75 514.875,522.375 518.75,520.375 520.75,519.75 523.75,519.375"/>
    <polyline points="524.25,519.375 530.125,519.75 538.25,521.375"/>
    <line x1="538.875" x2="562.75" y1="521.5" y2="527.875"/>
    <polyline points="564.0,528.25 586.5,534.75 595.375,538.0"/>
    <polyline points="596.125,538.375 597.125,539.0 597.375,539.625 596.625,540.125 594.75,540.5 582.75,540.625 558.25,540.0 538.75,540.0 525.125,540.5 512.25,541.375"/>
    <polyline points="506.25,542.0 496.0,543.375 488.0,545.0 480.25,547.25 476.0,548.875 478.875,546.0 483.0,540.625"/>
    <polyline points="483.625,539.625 485.5,536.5 488.625,529.75 490.25,523.125 490.375,520.375 490.125,518.375"/>
    <polyline points="490.0,517.875 488.625,513.875 486.875,511.375 484.0,508.5 479.625,505.125"/>
    <polyline points="478.875,504.75 459.625,492.75 451.125,487.0"/>
    <polyline points="449.625,485.875 441.375,479.25 434.25,472.375 430.5,468.25 424.875,460.75 419.375,451.25 415.875,443.625 414.25,439.125 411.5,429.125 409.375,417.0 408.75,410.125"/>
    <polyline points="408.5,402.5 408.75,394.125 409.5,384.875 410.75,374.875 412.875,363.875 415.875,352.125 420.0,339.5 425.25,326.125 431.875,312.125 440.0,298.125 449.5,284.25 460.625,271.125 473.125,259.625 486.75,250.5 501.125,244.375 515.875,242.0 530.125,243.75 543.625,249.5 555.75,259.25 566.125,272.125 574.75,287.375 581.5,304.25 586.625,321.875 590.125,339.5 592.375,356.625 593.5,372.75"/>
    <polyline points="594.0,387.75 593.75,401.375 593.125,413.75 591.0,434.75 587.25,458.0 584.75,469.375 579.125,490.875 577.75,497.5 577.125,502.5 577.625,507.875"/>
    <polyline points="578.0,509.0 579.375,512.125 580.75,514.125 584.375,517.625 587.875,520.125 592.0,522.5 596.75,524.75 610.625,530.125"/>
    <polyline points="612.875,530.875 628.625,535.625 655.25,542.5 707.75,554.25"/>
    <polyline points="713.875,555.625 772.625,568.25 784.875,570.625 787.5,570.75 786.0,569.375 778.5,565.875 740.125,549.25 709.125,535.125 673.125,517.375 635.625,497.125 600.125,475.625 569.0,454.0 543.625,433.375 524.0,414.0 509.5,396.25 499.5,380.0 493.125,365.375"/>
    <polyline points="489.875,352.125 489.0,340.375 490.25,330.0 493.125,321.0 497.375,313.75 502.5,308.125 508.375,304.375 514.75,302.5 521.25,302.625 527.625,304.625 533.75,308.5 539.375,314.0 544.375,320.875 548.75,328.875 552.375,337.625 555.25,347.0 557.5,356.75 559.125,366.5 560.125,376.125 560.875,394.375 560.625,402.875 559.5,418.25 557.625,431.625"/>
    <polyline points="556.625,437.625 554.375,448.125 549.875,464.5 539.875,493.125 538.125,500.125"/>
    <polyline points="537.875,501.125 537.625,503.875 537.75,506.875 538.875,510.75 541.125,514.0 544.25,516.75"/>
    <polyline points="544.875,517.125 549.25,519.75 555.5,522.625 569.5,527.625"/>
    <polyline points="570.875,528.0 600.625,537.375 606.0,539.625"/>
    <polyline points="606.625,540.0 607.25,540.625 607.125,540.875 604.625,541.5 597.875,541.5 550.0,539.75 523.5,540.0 506.375,541.125 498.625,542.0 485.375,544.125"/>
    <polyline points="480.0,545.375 471.75,547.875 468.875,549.125 465.0,551.25 463.0,553.25 463.375,553.375 465.75,551.875 468.125,549.375 471.125,545.125 473.5,540.375"/>
    <polyline points="474.0,539.125 475.25,535.5 476.25,531.0 476.375,525.875 476.0,523.0 475.25,520.25 474.125,517.75 472.125,514.5"/>
    <polyline points="471.5,513.625 465.5,507.375 459.375,502.5 444.375,491.5"/>
    <polyline points="442.75,490.375 434.0,483.25 428.25,477.875 424.375,473.75 420.25,468.875 416.25,463.375 414.125,460.25 410.125,453.125 406.375,444.75 404.625,439.875 401.5,428.625 400.25,422.125 399.375,414.875 398.875,406.875"/>
    <polyline points="398.75,397.875 399.125,388.0 400.25,377.125 402.25,365.125 405.25,351.875 409.5,337.5 415.125,322.0 422.375,305.75 431.5,288.875 442.5,272.0 455.5,256.0 470.375,241.75 486.875,230.375 504.25,223.0 522.0,220.375 539.25,223.25 555.125,231.5 569.125,244.5 580.75,261.5 590.0,281.0 597.0,301.875 601.875,323.125 604.875,343.75 606.625,363.125 607.375,381.125 607.25,397.375"/>
    <polyline points="606.5,411.875 605.5,424.625 604.25,435.875 602.875,445.625 600.0,461.5 596.0,478.375 589.5,500.625 588.75,506.375 589.125,509.75 589.875,511.75"/>
    <polyline points="590.375,512.625 591.625,514.5 594.0,517.0 597.125,519.375 602.375,522.375 614.75,527.625 628.75,532.125"/>
    <polyline points="631.5,533.0 649.625,537.75 667.875,541.875 697.0,547.5 710.875,549.0 712.75,548.75 713.75,548.125 713.25,547.0"/>
    <polyline points="711.25,545.125 701.125,539.125 692.75,534.625 669.875,522.875 641.375,507.75 611.875,491.0 598.0,482.875 573.75,467.625 526.125,435.75 522.625,433.75 517.0,431.125 514.75,430.25 510.875,429.625"/>
    <polyline points="509.125,429.625 507.625,429.75 503.625,431.0 492.875,437.5 490.75,438.5 486.625,439.875 483.5,440.25 481.375,440.125"/>
    <polyline points="480.25,440.0 477.125,439.125 473.0,436.875 469.0,433.25 466.375,429.625 464.625,426.625 462.5,421.375 461.375,417.25 460.125,407.625"/>
    <polyline points="460.125,404.875 460.375,399.125 461.25,393.0 463.875,383.25 466.5,376.625 468.125,373.375 472.0,367.125 476.625,361.5 479.125,359.125 484.75,355.125 487.625,353.75 490.625,352.75 493.625,352.25 499.625,352.625 502.5,353.625 505.375,355.125 508.0,357.0"/>
    <polyline points="510.375,359.375 512.75,362.125 516.625,368.625 519.5,376.25 521.625,384.5 522.75,392.875 523.0,397.125 523.125,405.375 522.625,413.25 521.0,423.875 519.5,430.375 517.75,436.125 513.875,446.0"/>
    <polyline points="512.875,448.125 509.625,453.75 506.25,458.375 502.875,462.125 500.625,464.125 496.125,467.375 492.625,469.125 489.125,470.25 484.25,471.0"/>
    <polyline points="483.0,471.0 479.25,470.875 475.375,470.125 470.0,468.375 465.875,466.375 460.125,462.625 457.25,460.25 451.375,454.25 448.5,450.5"/>
    <polyline points="447.0,448.375 442.875,441.125 440.375,435.375 438.25,428.75 436.5,421.0 435.375,412.0 435.125,401.75 435.875,390.0 436.875,383.625 440.0,369.875 442.375,362.5 445.25,354.875 448.75,347.125 452.75,339.375 457.5,331.75 463.0,324.375 469.0,317.625"/>
    <polyline points="475.625,311.5 482.625,306.5 490.125,302.625 497.75,300.125 505.5,299.375 513.125,300.25 520.375,302.75 527.25,307.0 533.375,312.625 539.0,319.625 543.75,327.75 547.75,336.625 551.0,346.0 553.5,355.625 555.375,365.375 556.625,375.0 557.375,384.375 557.75,401.875 556.875,417.375 555.25,430.875 552.125,447.375"/>
    <polyline points="551.125,452.0 545.875,470.375 538.0,492.625 536.5,497.5 535.5,502.375"/>
    <polyline points="535.5,503.25 535.375,506.25 536.0,509.375 536.75,511.125 537.625,512.625 539.25,514.5 542.375,517.0"/>
    <polyline points="543.0,517.375 546.375,519.375 552.25,522.0 566.625,527.125"/>
    <polyline points="567.875,527.5 591.125,534.625 602.875,538.75"/>
    <polyline points="603.75,539.125 605.0,539.875 605.375,540.5 604.5,541.0 600.375,541.375 555.5,539.875 539.125,539.75 513.875,540.625 498.75,542.125"/>
    <polyline points="492.25,543.125 481.375,545.375 473.75,547.75 467.375,550.625 465.75,551.875 465.5,552.375 466.75,551.875 469.625,549.25 472.625,545.25 474.625,541.75"/>
    <polyline points="475.25,540.625 477.875,533.75 478.875,527.375 478.75,523.625 478.375,521.75 477.375,518.5 476.125,516.125"/>
    <polyline points="475.75,515.375 470.875,509.375 462.625,502.625 452.75,495.625"/>
    <polyline points="451.375,494.625 440.375,486.375 435.125,481.875 425.5,472.25 421.5,467.375 417.5,461.875 411.625,451.5 408.0,443.0 406.25,438.0"/>
    <polyline points="404.75,432.625 403.375,426.75 402.25,420.125 401.5,412.875 401.0,404.875 401.0,396.0 401.625,386.125 402.875,375.25 405.0,363.375 408.125,350.375 412.5,336.25 418.125,321.125 425.5,305.25 434.5,289.125 445.5,273.0 458.25,257.875 472.75,244.5 488.625,234.0 505.5,227.375 522.375,225.375 538.875,228.625 554.0,236.75 567.375,249.375 578.5,265.75 587.375,284.375 594.0,304.5"/>
    <polyline points="598.75,324.875 601.75,344.75 603.5,363.5 604.25,380.875 604.125,396.75 603.5,410.875 601.375,434.5 598.625,452.625 595.875,466.5 591.125,484.875 587.375,498.0 586.625,501.5 586.25,505.875"/>
    <polyline points="586.375,507.125 586.75,509.375 588.625,513.375 590.75,516.0 593.75,518.5 597.375,520.875 601.75,523.125 606.875,525.5 614.75,528.5"/>
    <polyline points="617.0,529.25 635.125,534.75 654.875,539.75 688.25,547.0 707.125,550.375"/>
    <polyline points="711.625,551.125 715.75,551.75 722.25,552.125 724.0,551.75 724.375,550.875 722.875,549.375 719.125,546.875 712.75,543.375 661.25,516.875 643.875,507.5 626.375,497.75 609.25,487.75 593.375,478.0 578.875,468.625 566.125,460.0 555.125,452.125 531.375,433.625 517.625,422.125"/>
    <polyline points="514.625,419.625 509.875,416.125 506.5,414.125 503.125,413.375 501.375,413.875 499.875,414.875 493.625,422.0 491.0,424.5"/>
    <polyline points="490.25,425.0 488.125,426.25 484.375,427.25 482.125,427.125 479.875,426.375 478.375,425.625 475.625,423.25 473.75,420.625 472.75,418.625"/>
    <polyline points="472.25,417.5 471.0,413.75 470.0,406.0 470.25,400.625 470.875,396.875 472.5,391.0 475.0,385.375 477.125,381.875 479.625,378.625 482.5,376.0"/>
    <polyline points="484.0,375.0 485.625,374.0 488.875,372.875 490.5,372.5 493.875,372.625 497.0,373.75 498.5,374.625 500.0,375.75 502.625,378.625 503.875,380.375 505.875,384.25 506.75,386.375 508.0,391.0 508.875,395.875 509.375,401.0 509.25,408.375"/>
    <polyline points="509.0,410.875 507.875,417.875 506.75,422.125 504.75,428.0 502.25,433.0 499.625,437.25 497.625,439.75 494.625,442.75 491.5,445.0 488.25,446.625"/>
    <polyline points="487.125,447.0 482.5,447.75 479.125,447.5 475.5,446.625 472.0,445.0 468.5,442.625 465.125,439.375 462.0,435.125 459.0,429.875"/>
    <polyline points="458.125,427.875 455.875,421.0 454.375,412.75 454.0,406.375 454.25,399.5 455.125,391.875 455.875,387.875 458.125,379.625 459.625,375.375 463.375,366.875 468.375,358.625 474.375,351.25 477.75,348.0 481.375,345.25 485.125,342.875"/>
    <polyline points="489.0,341.125 493.0,340.0 497.0,339.5 501.0,339.75 504.875,340.625 508.625,342.25 512.125,344.625 515.375,347.5 518.5,351.125 521.125,355.125 523.5,359.625 525.625,364.5 527.375,369.5 529.875,380.125 530.75,385.625 531.5,396.25 531.5,406.5 530.875,416.0 529.625,424.75 528.0,432.625"/>
    <polyline points="527.125,436.25 525.25,442.75 522.125,451.25 520.0,456.125 516.75,462.25 514.625,465.75 510.375,471.5 506.25,475.875 501.25,479.75"/>
    <polyline points="500.25,480.375 497.25,482.0 494.25,483.125 491.25,483.875 488.125,484.25 483.75,484.25 480.375,483.875 473.25,482.0"/>
    <polyline points="472.0,481.5 468.0,480.0 462.5,477.125 458.125,474.375 450.375,468.25 445.625,463.5 442.25,459.625 437.5,452.75 434.375,447.375"/>
    <polyline points="432.875,444.25 430.0,437.375 427.5,429.375 425.625,419.875 424.625,408.875 424.625,395.875 426.25,380.875 427.875,372.5 430.125,363.625 433.0,354.375 436.625,344.625 441.125,334.625 446.625,324.625 453.0,314.625 460.25,305.125 468.375,296.25 477.375,288.625 487.125,282.625 497.125,278.5 507.375,276.625"/>
    <polyline points="517.5,277.25 527.25,280.375 536.25,285.875 544.375,293.625 551.375,303.25 557.375,314.25 562.125,326.25 565.875,338.75 568.625,351.375 570.5,363.875 571.625,375.875 572.25,387.375 572.25,398.125 571.25,417.375 569.5,433.5 567.25,446.875 565.0,457.875 559.875,477.5"/>
    <polyline points="559.125,480.375 555.5,493.75 554.875,497.0 554.5,501.25 554.75,505.875 555.5,508.875 557.25,512.375 559.125,514.625"/>
    <polyline points="559.875,515.375 562.25,517.5 565.125,519.5 571.875,523.25 585.125,528.625 592.125,531.0"/>
    <polyline points="594.0,531.625 625.625,541.25 630.875,543.25 631.75,544.0 631.625,544.25 629.5,544.5"/>
    <polyline points="627.25,544.375 578.25,540.25 551.25,538.625 536.25,538.125 520.75,538.0 505.5,538.375 491.0,539.375 477.625,541.0 466.0,543.0 456.125,545.625 448.125,548.5 442.0,551.5 437.375,554.5 434.125,557.375 432.125,560.0 430.875,562.5 430.5,564.5 430.625,566.125 431.125,567.5"/>
    <polyline points="431.875,568.5 432.875,569.125 434.0,569.375 435.25,569.375 437.75,568.625 439.0,568.0 441.375,566.125 444.5,562.5 447.125,558.25 449.625,552.25 450.875,546.375 451.125,542.125"/>
    <polyline points="451.125,540.875 450.625,536.875 449.625,533.25 448.125,529.75 445.25,525.375 443.5,523.25 438.125,518.125 431.25,513.0"/>
    <polyline points="429.75,512.0 403.75,495.875 393.625,488.75 388.125,484.5 379.5,476.5 373.625,469.875 370.75,466.0"/>
    <polyline points="367.75,461.75 362.0,451.5 359.375,445.25 356.875,438.25 354.625,430.125 352.75,420.75 351.375,409.875 350.75,397.25 351.0,382.625 352.625,365.5 355.75,345.5 361.125,322.25 369.25,295.75 381.125,265.75 397.375,233.125 418.75,199.0 445.625,166.125 477.625,138.125 513.25,119.625 549.875,114.5 584.375,124.875 613.875,149.625 636.875,185.25 653.0,226.875 663.25,269.625"/>
    <polyline points="668.875,310.375 671.5,346.875 671.875,378.5 671.0,405.125 669.25,427.0 667.0,444.875 664.375,459.0 661.5,470.25 658.25,478.875 654.875,485.5 651.25,490.5 647.375,494.0 643.375,496.375 639.0,497.75 634.5,498.5 625.25,498.375 620.625,497.75 606.75,494.875 587.0,489.875"/>
    <polyline points="583.625,489.25 577.75,488.25 570.25,487.875 566.25,488.25 561.5,489.5 557.75,491.5 554.375,494.75 552.625,497.5 551.875,499.25 551.25,502.0"/>
    <polyline points="551.125,502.875 551.375,507.0 552.125,509.375 553.75,512.375 557.5,516.375 560.875,518.875 563.875,520.625"/>
    <polyline points="564.875,521.25 569.5,523.5 577.75,526.875 589.125,530.875 604.0,535.5"/>
    <polyline points="606.0,536.125 620.375,540.625 624.125,542.125 625.5,543.125 624.375,543.625 617.875,543.5 576.5,540.375"/>
    <polyline points="565.125,539.625 539.5,538.625 512.375,538.875 499.25,539.625 487.125,540.875 476.25,542.5 466.75,544.5 458.875,546.75 452.5,549.25 447.625,551.75 444.0,554.125 441.5,556.5 439.875,558.5 439.0,560.25 438.875,562.875 439.375,563.75 440.125,564.25 442.0,564.5 444.125,563.75 446.375,562.125"/>
    <polyline points="447.375,561.25 450.375,557.625 452.0,555.0 453.375,552.125 455.25,546.375 456.0,542.125 456.125,538.125 455.5,533.125 454.875,530.625 453.875,528.375"/>
    <polyline points="453.375,527.25 451.5,524.0 449.125,520.75 446.25,517.625 442.875,514.625 437.625,510.375 422.5,499.875"/>
    <polyline points="420.5,498.5 407.375,488.875 400.0,482.625 395.0,477.625 389.75,471.75 384.375,464.625 381.75,460.5 376.625,450.75 374.25,445.125 372.0,438.625 370.0,431.375 368.375,423.0 367.0,413.5 366.25,402.625 366.25,390.25"/>
    <polyline points="367.25,376.0 369.375,359.625 373.0,340.875 378.75,319.75 387.0,296.0 398.25,270.125 413.25,242.5 432.125,214.75 455.125,188.625 481.875,167.0 511.0,152.75 540.875,148.75 569.25,156.125 594.125,174.5 614.375,201.75 629.5,234.375 639.875,269.375 646.25,303.875 649.75,336.125 651.125,365.0 651.0,390.25 650.0,411.75 648.5,429.75 646.5,444.75 644.375,457.125 642.125,467.125"/>
    <polyline points="639.75,475.25 637.375,481.75 634.875,486.875 632.375,490.875 629.875,494.125 627.375,496.5 624.875,498.375 619.75,500.625 614.625,501.625 609.875,502.0 592.125,501.75 587.125,502.5"/>
    <polyline points="586.125,502.875 584.5,503.625 582.375,505.625 581.75,507.5 582.0,509.625 582.875,511.75 585.125,514.75 587.625,517.0 590.875,519.25"/>
    <polyline points="592.125,520.0 600.875,524.5 612.625,529.125 627.5,533.75 649.75,539.625"/>
    <polyline points="653.375,540.5 678.5,546.25 721.125,555.0 741.0,558.125 743.75,558.0 744.625,557.375 743.0,555.75 738.125,552.875 699.75,534.0"/>
    <polyline points="679.5,524.0 657.125,512.375 634.0,499.625 611.5,486.375 590.625,473.25 572.125,460.5 556.375,448.625 543.25,437.875 532.625,428.125 524.0,419.5 517.375,412.0 512.25,405.5 505.5,395.125 503.5,391.125 502.25,387.75 501.125,383.0 501.375,380.375 501.875,379.625 503.25,379.625 504.75,380.875 505.5,382.0"/>
    <polyline points="506.375,383.25 507.75,386.625 509.25,392.75 510.0,402.125 509.875,407.0 509.0,414.125 507.5,420.75 506.25,424.75 504.0,430.25 501.375,435.0"/>
    <polyline points="500.5,436.375 498.625,439.0 494.5,443.125 491.375,445.375 487.0,447.25 482.375,448.0 478.875,447.75 476.5,447.25 473.0,445.75"/>
    <polyline points="471.875,445.125 467.25,441.75 462.75,436.75 459.75,431.75 456.375,423.375 454.625,415.5 454.0,409.5 454.0,399.25 455.0,391.625"/>
    <polyline points="455.75,387.625 458.0,379.25 461.375,370.625 465.75,362.125 471.375,354.25 474.5,350.625 478.0,347.375 481.625,344.625 485.375,342.375 489.375,340.625 493.375,339.5 497.375,339.125 501.375,339.375 505.375,340.375 509.125,342.125 512.625,344.5 515.875,347.5 518.875,351.125 521.625,355.25 524.0,359.875 527.75,369.875"/>
    <polyline points="529.125,375.25 530.25,380.625 531.0,386.125 531.875,396.875 531.5,412.0 530.5,421.125 529.0,429.375 527.25,436.75 524.375,446.375 520.125,456.625 514.75,466.125"/>
    <polyline points="513.625,467.75 508.5,474.25 502.5,479.5 499.5,481.375 494.5,483.5 491.5,484.25 488.375,484.625"/>
    <polyline points="487.375,484.625 485.25,484.75 479.625,484.125 472.375,482.125 463.0,477.75 455.625,472.875"/>
    <polyline points="454.125,471.75 449.375,467.75 446.125,464.5 442.875,460.875 439.625,456.625 436.375,451.625 433.25,446.0 430.375,439.375 429.125,435.625 427.875,431.625 425.75,422.5 424.5,411.75 424.125,405.75 424.25,399.25 425.375,384.75"/>
    <polyline points="426.75,376.625 428.625,368.0 431.25,358.875 434.5,349.25 438.625,339.25 443.625,329.125 449.5,319.0 456.375,309.125 464.25,299.875 472.875,291.625 482.375,284.75 492.375,279.5 502.625,276.5 512.875,276.0 522.875,277.875 532.375,282.375 541.0,289.125 548.625,298.0 555.125,308.5 560.5,320.125 564.75,332.625 567.875,345.25 570.125,358.0 571.625,370.375 572.5,382.125 572.75,393.375"/>
    <polyline points="572.5,403.75 571.25,422.25 569.375,437.625 568.25,444.25 564.75,460.75 556.125,493.125 555.25,498.0 555.0,502.125"/>
    <polyline points="555.0,503.375 555.375,506.625 556.25,509.5 557.625,512.125 559.5,514.5 564.375,518.75 572.25,523.125"/>
    <polyline points="573.5,523.75 583.875,528.0 590.75,530.375 618.875,539.0"/>
    <polyline points="620.875,539.625 629.5,542.5 632.875,544.125 632.75,544.375 630.625,544.625 625.375,544.375 590.625,541.125 551.5,538.5 536.25,538.0 520.375,537.875 504.875,538.375"/>
    <polyline points="490.0,539.375 476.5,540.875 464.625,543.125 454.625,545.75 446.5,548.625 440.375,551.75 435.75,554.875 432.5,557.875 430.5,560.625 429.375,563.125 429.0,565.25 429.125,567.0 430.5,569.25 431.625,570.0 432.75,570.25 435.25,570.125 439.125,568.125 442.5,564.75 444.5,562.0"/>
    <polyline points="445.375,560.625 448.25,554.625 449.625,550.125 450.5,543.0 450.25,539.0 449.0,534.0 448.125,531.625 445.5,527.25"/>
    <polyline points="444.75,526.125 440.0,520.875 430.875,513.75 405.875,498.5"/>
    <polyline points="403.5,497.0 393.25,490.25 384.875,483.75 376.125,475.625 370.125,468.75 364.125,460.125 361.125,455.0 355.625,442.625 353.25,435.125 351.125,426.375 349.375,416.25 348.25,404.5 348.0,390.75 348.75,374.75 351.0,355.875 355.25,334.0"/>
    <polyline points="362.0,308.5 372.0,279.5 386.25,247.125 405.625,212.375 430.625,177.375 461.25,145.375 496.625,120.875 534.5,108.75 571.625,112.25 604.625,131.875 631.25,164.75 650.75,205.875 663.5,250.125 671.0,293.375 674.625,332.875 675.625,367.25 675.125,396.375 673.5,420.5 671.375,440.0 668.75,455.5 665.875,467.875 662.625,477.25 659.0,484.5 655.25,489.75 651.125,493.625 646.75,496.125"/>
    <polyline points="642.125,497.625 637.25,498.25 632.25,498.25 627.125,497.875 621.875,497.0 611.625,494.75 588.875,488.375 581.375,486.625 572.125,485.125 567.0,484.875 560.875,485.5 557.5,486.5 554.75,487.875"/>
    <polyline points="553.5,488.625 551.375,490.25 548.875,492.875 547.0,495.625 545.75,498.5 544.75,502.875 544.875,506.875 545.75,509.75"/>
    <polyline points="546.125,510.375 547.25,512.375 549.25,514.75 553.375,518.125 557.75,520.625 565.25,524.125"/>
  </g>
</svg>
