<?xml version="1.0" encoding="utf-8" ?>
<svg xmlns="http://www.w3.org/2000/svg" xmlns:cc="http://creativecommons.org/ns" xmlns:dc="http://purl.org/dc/elements/1.1/" xmlns:ev="http://www.w3.org/2001/xml-events" xmlns:inkscape="http://www.inkscape.org/namespaces/inkscape" xmlns:rdf="http://www.w3.org/1999/02/22-rdf-syntax-ns" xmlns:sodipodi="http://sodipodi.sourceforge.net/DTD/sodipodi-0.dtd" xmlns:xlink="http://www.w3.org/1999/xlink" baseProfile="tiny" height="27.09333333cm" version="1.2" viewBox="0 0 1024.0 1024.0" width="27.09333333cm">
  <metadata>
    <rdf:RDF>
      <cc:Work>
        <dc:format>image/svg+xml</dc:format>
        <dc:source>vpype read './original_svgs/Strange Attractors #69.svg' linemerge linesimplify write './Strange Attractors #69.svg'
</dc:source>
        <dc:date>2024-08-05T01:35:23.205872</dc:date>
      </cc:Work>
    </rdf:RDF>
  </metadata>
  <defs/>
  <g fill="none" id="layer1" inkscape:groupmode="layer" inkscape:label="1" stroke="black" stroke-width="0.7mm" style="display:inline">
    <polyline points="470.125,623.75 465.375,605.5 453.0,554.25 448.5,538.5 444.5,526.875 442.5,522.375 438.625,515.125 434.625,509.625 430.75,505.375 426.625,501.75 412.5,490.875"/>
    <polyline points="410.5,489.25 406.875,485.5 403.625,481.375 402.25,479.125 400.125,474.125 399.375,471.375 399.0,468.5 399.5,462.25 400.5,459.0 402.0,455.75 404.125,452.5 406.875,449.375 410.375,446.5 414.5,443.875 419.375,441.75 425.0,440.125 431.125,439.125 437.75,438.875 444.75,439.5 452.0,441.0 459.25,443.375 466.375,446.5"/>
    <polyline points="473.25,450.375 479.75,454.875 485.875,459.75 491.375,464.875 500.625,475.5 504.375,480.75 510.5,490.5 516.375,502.5 519.625,511.25 523.0,522.625 523.75,522.625 526.0,520.0 527.625,518.625 529.625,517.5"/>
    <polyline points="530.125,517.25 532.5,516.125 536.625,514.75 546.625,512.5"/>
    <polyline points="547.5,512.25 567.375,508.125 579.75,504.75"/>
    <polyline points="581.5,504.25 588.625,501.875 598.25,497.75 606.5,493.125 612.75,488.75 618.875,483.125 622.75,478.5 626.375,473.125 629.5,466.75"/>
    <polyline points="630.875,463.25 632.875,455.25 633.5,450.75 633.875,446.125 633.75,441.0 632.125,430.25 630.5,424.625 628.25,418.875 625.375,413.125 621.75,407.5 617.25,402.25 612.125,397.375 606.25,393.125 599.75,389.875 592.625,387.5 585.0,386.375 577.125,386.5 569.125,387.875 561.125,390.625 553.375,394.5 545.875,399.375 538.875,405.25 532.375,411.625 526.5,418.5"/>
    <polyline points="521.25,425.625 516.625,432.75 509.125,446.625 503.625,459.25 501.5,465.0 498.25,475.0 496.0,483.25 493.375,495.25 491.625,505.25 490.375,509.25"/>
    <polyline points="490.125,509.875 489.25,511.125 487.0,512.625 482.125,513.625 477.0,513.875"/>
    <polyline points="476.125,513.875 458.5,513.375 444.25,512.125"/>
    <polyline points="442.375,512.0 430.25,510.375 423.5,509.125 413.5,506.875 405.375,504.5 396.875,501.25 390.875,498.375 384.875,494.875 379.0,490.375"/>
    <polyline points="376.125,487.75 370.75,481.375 368.5,477.75 366.5,473.5 364.875,468.875 363.75,463.625 363.375,457.875 364.0,451.75 365.625,445.0 368.5,437.875 373.125,430.625 379.375,423.5 387.625,416.875 397.875,411.125 410.125,406.875 424.125,404.625 439.25,404.875 455.0,407.75 470.75,413.375 485.875,421.375 499.75,431.375 512.0,442.625 522.375,454.75 531.125,466.875 538.25,478.75"/>
    <polyline points="543.875,489.875 548.375,500.125 551.75,509.25 554.25,517.375 557.625,530.375 561.0,549.75 561.875,552.5 562.5,553.0 563.375,552.875 568.0,549.625"/>
    <polyline points="568.875,549.125 570.875,548.0 576.875,545.5 586.125,543.375 593.5,542.5 599.625,542.25 611.375,542.75"/>
    <polyline points="613.875,543.0 622.0,544.125 627.75,545.375 633.75,546.875 643.25,550.25 650.0,553.375 657.0,557.5 664.125,562.75 667.625,566.0 671.25,569.75 674.75,574.0 681.5,584.375 684.5,590.875 687.375,598.125 689.75,606.375 691.5,615.875"/>
    <polyline points="692.625,626.5 692.625,638.375 691.5,651.375 688.625,665.375 683.875,680.125 676.75,695.0 667.125,709.25 654.625,721.75 639.5,731.375 622.0,736.875 602.875,737.375 583.0,732.625 563.5,722.5 545.0,708.125 528.375,690.5 514.0,671.0 501.875,650.625 491.875,630.75 484.0,611.75 477.75,594.25 472.875,578.5 469.25,564.5 464.375,541.75 461.875,524.875"/>
    <polyline points="461.125,518.25 460.5,508.125 460.75,498.5 461.5,493.25 462.5,490.75 463.625,489.75 464.25,490.25 463.875,491.375"/>
    <polyline points="463.75,491.625 463.0,492.25 460.5,493.0 457.625,493.125 452.625,492.375 449.375,491.5"/>
    <polyline points="448.5,491.125 441.875,488.0 437.625,484.5 435.5,481.625 434.875,480.125 434.5,478.625 434.75,476.25"/>
    <polyline points="435.0,475.5 435.875,474.0 437.125,472.75 440.0,471.25 443.75,470.5 446.75,470.5 451.625,471.375 455.0,472.5 458.25,474.0 463.0,476.875 467.125,480.25"/>
    <polyline points="468.375,481.375 471.5,485.0 473.75,488.25 475.5,492.125 475.875,493.75 475.875,495.875 475.0,498.0 473.25,499.375 472.125,499.875"/>
    <polyline points="471.5,500.0 468.5,500.5 464.125,500.5 457.75,499.875 452.875,499.0 444.875,496.875"/>
    <polyline points="443.5,496.375 442.0,496.0 434.75,493.0 430.375,490.625 427.625,488.75 422.5,484.25 420.375,481.5 418.125,477.0 417.375,473.625 417.5,470.0 418.0,468.25"/>
    <polyline points="418.625,466.5 419.625,464.625 421.0,463.0 424.625,459.875 426.875,458.5 429.5,457.375 432.375,456.625 435.625,456.0 442.75,455.75 450.5,457.0 454.5,458.125 462.5,461.5 470.0,466.0 473.5,468.5 479.75,474.0 485.125,479.75 491.125,487.875"/>
    <polyline points="492.625,490.375 496.0,497.0 497.375,500.5 498.25,503.375 498.75,506.75 498.625,509.0 497.75,510.75 496.0,511.625 494.5,511.75"/>
    <line x1="494.0" x2="475.25" y1="511.875" y2="510.375"/>
    <polyline points="474.25,510.25 464.75,509.5 451.625,508.0 437.25,505.5"/>
    <polyline points="435.25,505.0 424.5,502.25 417.625,499.875 413.0,497.875 405.75,494.0 401.0,490.875 398.75,489.0 396.5,487.0 392.25,482.375 388.875,476.75 387.5,473.625 386.5,470.125 385.875,466.375 385.75,462.375"/>
    <polyline points="386.125,458.25 387.375,453.75 389.25,449.25 392.125,444.75 396.0,440.25 400.875,436.125 407.0,432.375 414.125,429.375 422.125,427.25 431.125,426.25 440.75,426.625 450.875,428.375 461.0,431.375 470.875,435.875 480.375,441.375 489.125,447.875 497.125,455.0 504.125,462.5 510.375,470.125 515.5,477.5 520.0,484.75 523.625,491.375 526.625,497.625 531.0,508.25 532.5,512.625"/>
    <polyline points="533.75,516.375 537.625,529.625 539.0,532.25 540.5,532.375 547.25,528.25"/>
    <polyline points="548.0,527.875 552.625,525.625 562.0,522.375 580.875,517.625"/>
    <polyline points="582.75,517.125 593.0,514.75 602.0,512.25 614.625,508.25 620.0,506.125 625.625,503.625 634.375,498.875 640.375,494.875 646.25,490.0"/>
    <polyline points="649.25,487.0 655.0,480.125 657.75,476.125 662.625,466.375 664.75,460.625 666.5,454.25 667.75,447.125 668.5,439.125 668.5,430.25 667.625,420.5 665.75,410.0 662.5,398.875 657.75,387.25 651.25,375.5 642.875,364.0 632.5,353.625 620.25,344.875 606.375,338.5 591.125,335.375 575.0,335.75 558.875,339.75 543.125,347.25 528.375,357.75 515.25,370.625"/>
    <polyline points="503.625,384.75 493.875,399.625 485.75,414.375 479.125,428.625 474.0,442.0 470.0,454.125 466.875,465.0 464.625,474.75 462.875,483.125 461.0,496.75 460.25,506.5 460.25,513.375 460.875,519.75 462.125,524.875 460.125,524.0 455.625,522.875 445.0,521.75"/>
    <polyline points="443.625,521.625 404.25,519.625 390.0,518.375"/>
    <polyline points="386.75,518.125 373.25,516.375 362.0,514.375 349.75,511.25 341.0,508.25 331.875,504.125 327.25,501.5 322.5,498.375 317.75,494.75 313.125,490.25 308.625,484.875 304.5,478.5 300.75,470.75 298.0,461.5 296.375,450.375 296.625,437.25 299.625,421.875"/>
    <polyline points="306.5,404.375 318.5,385.375 336.875,366.375 362.625,349.75 395.5,338.375 433.875,335.625 474.25,343.5 512.625,361.875 545.875,388.25 572.375,419.25 592.0,451.5 605.75,482.375 614.75,510.75 620.25,535.75 623.0,557.5 623.75,576.0 623.0,591.75 621.125,604.875 618.125,615.75 614.25,624.375 609.625,631.125 604.5,636.125 598.875,639.375 592.875,641.0 586.75,641.125 580.5,639.875"/>
    <polyline points="574.375,637.375 568.25,633.875 562.5,629.5 557.125,624.25 552.125,618.625 547.5,612.625 543.375,606.5 536.25,594.125 530.875,582.375 525.125,567.0 522.5,558.375 519.875,548.0 517.0,532.5"/>
    <polyline points="516.875,531.0 516.0,523.0 516.0,518.25 516.375,516.375"/>
    <polyline points="516.5,516.125 517.0,515.0 518.25,513.75 519.625,513.125"/>
    <polyline points="519.875,513.125 522.375,512.375 527.125,511.75"/>
    <line x1="527.5" x2="541.75" y1="511.625" y2="510.0"/>
    <polyline points="542.625,509.875 554.75,508.125 569.875,505.0"/>
    <polyline points="571.375,504.625 585.75,500.125 593.0,497.125 598.625,494.25 604.375,490.625 608.25,487.75 614.0,482.625 615.75,480.5"/>
    <polyline points="617.625,478.375 622.5,470.75 625.125,464.75 627.25,457.625 628.25,449.75 628.375,445.375 628.0,440.75 627.375,436.0 626.125,431.125 624.5,426.125 622.375,421.125 619.5,416.125 616.125,411.375 612.125,407.0 607.5,403.0 602.25,399.5 596.375,396.875 590.125,395.0 583.5,394.125 576.625,394.375 569.75,395.625"/>
    <polyline points="562.75,397.875 555.875,401.125 549.375,405.25 543.125,410.0 537.25,415.5 527.125,427.375 519.0,439.75 512.75,451.625 508.125,462.375 506.375,467.25 503.5,475.875 501.5,483.125 497.875,500.625"/>
    <polyline points="497.625,502.0 496.5,507.25 495.125,509.875 493.375,511.375 490.625,512.25"/>
    <polyline points="490.125,512.375 483.875,513.0 471.875,513.0"/>
    <polyline points="470.875,513.0 450.75,511.75 431.875,509.25"/>
    <polyline points="429.75,508.875 415.5,505.625 404.875,502.125 396.5,498.5 390.75,495.25 385.125,491.25 379.75,486.25 374.75,480.0 372.75,476.375 371.0,472.25 369.625,467.75 368.875,462.75"/>
    <polyline points="368.75,457.375 369.5,451.5 371.375,445.25 374.375,438.875 378.875,432.25 385.0,425.875 392.875,420.0 402.5,415.125 413.875,411.5 426.625,409.75 440.375,410.125 454.75,412.875 469.0,417.875 482.75,425.125 495.5,434.0 506.875,444.125 516.75,454.875 525.125,465.875 532.0,476.75 537.5,486.875 541.875,496.375 545.375,505.0 548.0,512.625 550.125,519.25 552.875,529.875"/>
    <polyline points="553.75,534.0 556.375,546.375 557.5,547.625 558.875,547.375 565.0,543.625 570.75,541.0"/>
    <polyline points="572.0,540.5 576.25,539.125 582.75,537.625 594.25,536.0 608.25,535.25 624.875,535.625"/>
    <polyline points="627.875,535.875 641.0,537.25 648.0,538.5 659.375,541.125 667.5,543.75 676.0,547.25 680.25,549.5 689.25,555.125 693.875,558.75 698.375,562.875 703.0,567.875 707.625,573.75 712.0,580.75 716.25,589.0 720.125,598.875 723.375,610.5 725.875,624.125"/>
    <polyline points="727.25,640.25 726.875,658.75 724.25,679.75 718.375,703.0 708.5,727.375 693.75,751.375 673.5,772.375 648.0,787.625 618.375,794.0 586.375,789.625 554.75,774.625 525.625,750.625 500.5,720.75 480.125,688.125 464.25,655.5 452.5,624.875 444.0,597.125 438.25,572.625 434.5,551.625 432.5,533.625 431.875,518.625 432.25,506.125 433.625,495.75 435.625,487.375 438.375,480.625 441.625,475.5"/>
    <polyline points="445.25,471.5 449.25,468.875 453.5,467.125 457.875,466.375 462.25,466.5 466.625,467.25 470.875,468.625 478.875,472.875 485.75,478.125 488.75,481.0 495.875,489.75 499.25,495.0 502.625,501.625 504.375,506.625 505.25,510.125"/>
    <polyline points="505.375,511.0 505.375,513.0 505.125,513.75 504.25,514.625 502.875,514.75 498.875,513.75"/>
    <polyline points="498.5,513.75 492.5,512.625 483.625,512.0"/>
    <polyline points="482.75,511.875 470.125,511.25 453.75,509.875"/>
    <polyline points="452.25,509.625 435.75,507.25 420.25,503.5 413.0,501.0 407.875,498.875 397.5,493.125"/>
    <polyline points="395.0,491.375 390.0,487.125 387.75,484.625 385.5,481.875 381.75,475.625 380.375,472.0 379.375,468.0 378.75,463.625 378.875,459.0 379.625,454.125 381.375,448.875 384.0,443.625 387.75,438.25 392.875,433.125 399.25,428.5 407.0,424.5 416.0,421.5 426.125,419.75 437.25,419.625 448.875,421.25 460.625,424.625 472.125,429.625 483.125,436.0 493.375,443.625"/>
    <polyline points="502.5,452.0 510.375,460.875 517.25,469.75 523.0,478.375 527.75,486.75 531.625,494.375 534.625,501.375 539.125,513.25 545.875,536.875 546.625,537.875 547.5,538.25 549.5,537.625"/>
    <polyline points="550.125,537.25 556.5,533.5 562.0,531.0 573.25,527.5 580.125,526.0"/>
    <polyline points="582.0,525.625 614.125,519.625 628.875,516.5 635.375,514.875 649.125,510.5"/>
    <polyline points="652.75,509.125 660.25,505.875 668.0,501.625 675.75,496.25 679.75,492.875 687.5,484.625 691.25,479.375 694.875,473.375 698.125,466.375 701.0,458.25 703.375,448.75 705.0,437.625 705.625,424.75 704.875,410.0 702.25,393.375 697.375,374.75 689.5,354.75 678.125,334.125 662.625,314.25 642.875,296.875 619.25,284.25 592.625,278.375"/>
    <polyline points="564.75,280.625 537.25,291.125 511.875,308.75 489.75,331.625 471.625,357.25 457.375,383.625 446.625,408.875 438.75,432.25 433.375,453.0 430.0,471.0 428.0,486.375 427.25,499.375 427.375,510.125 428.25,518.875 429.625,526.0 431.5,531.625 433.75,536.0 436.25,539.375 438.875,541.75 441.75,543.375 444.625,544.375 447.5,544.875 453.25,544.5 458.625,542.75"/>
    <polyline points="461.125,541.625 465.875,539.0 469.875,536.125 476.125,530.375 479.375,526.625 482.0,522.625 483.5,518.875 483.125,517.375"/>
    <polyline points="483.0,517.125 481.375,516.125 479.0,515.625 466.625,515.0"/>
    <polyline points="465.5,515.0 447.625,514.0 438.75,513.125 423.75,511.125"/>
    <polyline points="421.375,510.625 411.25,508.625 402.875,506.375 390.875,502.0 384.625,499.0 378.25,495.25 372.0,490.375 368.875,487.5 363.25,480.5 360.875,476.25 358.75,471.5 357.25,466.125 356.375,460.25 356.25,453.625"/>
    <polyline points="357.375,446.375 359.875,438.625 363.875,430.5 370.0,422.25 378.25,414.375 389.0,407.25 402.0,401.5 417.25,398.0 434.125,397.25 451.875,399.75 469.75,405.5 487.0,414.25 502.75,425.375 516.625,438.25 528.375,452.0 538.0,465.875 545.75,479.375 551.75,491.875 556.25,503.375 559.75,513.625 564.125,530.25 566.25,542.375 567.25,550.625"/>
    <polyline points="567.5,553.5 568.0,559.875 568.125,560.5 568.75,560.875 572.0,557.75 575.25,555.375 582.0,552.5"/>
    <polyline points="583.375,552.125 589.25,551.0 594.375,550.625 602.0,550.875 610.5,552.125 617.5,553.875 625.0,556.5 630.125,559.0 635.5,562.125"/>
    <polyline points="638.25,564.0 643.75,568.375 649.125,573.875 654.25,580.875 656.75,584.875 659.0,589.5 662.875,600.125 664.25,606.25 665.25,613.0 665.75,620.375 665.5,628.25 664.625,636.625 662.625,645.5 659.625,654.5 655.375,663.375 649.875,672.0 642.875,679.875 634.5,686.5 624.75,691.375 614.0,694.125 602.25,694.375 590.125,692.125"/>
    <polyline points="577.875,687.125 566.0,679.875 554.625,670.5 544.25,659.75 534.875,647.875 526.625,635.5 519.5,623.0 513.375,610.875 508.25,599.375 503.875,588.5 500.375,578.5 497.375,569.5 493.0,554.0 484.625,520.125 482.0,513.125"/>
    <polyline points="481.375,512.0 479.5,509.375 478.125,508.125 475.0,506.5 470.375,505.25 457.75,503.125"/>
    <polyline points="456.375,502.875 443.0,499.875 434.5,497.125 429.25,494.875 424.0,492.125 420.5,489.875 415.625,485.875"/>
    <polyline points="414.125,484.375 410.375,479.125 408.625,475.0 408.0,472.875 407.75,470.5 408.125,465.625 410.0,460.625 411.625,458.125 413.625,455.75 416.125,453.5 419.25,451.5 422.75,449.75 426.875,448.375 431.375,447.5 436.25,447.0 441.5,447.125 446.875,447.75 452.5,449.125 458.125,451.0 463.625,453.375 469.0,456.25"/>
    <polyline points="474.25,459.625 479.0,463.25 487.625,471.125 494.5,479.25 499.875,486.875 505.5,496.875 507.875,502.25 510.75,511.375 511.375,515.125 511.25,516.75"/>
    <polyline points="511.25,517.0 510.5,517.25 507.5,514.75"/>
    <polyline points="507.25,514.625 505.375,513.625 501.5,512.875"/>
    <line x1="501.25" x2="490.5" y1="512.875" y2="512.5"/>
    <line x1="489.875" x2="468.5" y1="512.5" y2="511.875"/>
    <polyline points="467.25,511.75 454.875,510.875 443.0,509.5 433.125,507.875 424.25,505.875"/>
    <polyline points="421.875,505.25 414.5,503.125 406.75,500.25 401.375,497.75 396.0,494.75 390.75,491.0 385.625,486.375 383.125,483.75 379.0,477.5 377.25,473.75 375.875,469.75 375.0,465.375 374.75,460.625 375.125,455.5 376.375,450.0 378.75,444.25 382.25,438.5"/>
    <polyline points="387.0,432.75 393.375,427.375 401.125,422.625 410.375,418.75 421.0,416.375 432.75,415.625 445.25,416.625 458.0,419.75 470.75,424.75 482.75,431.5 494.0,439.625 504.0,448.625 512.75,458.25 520.25,468.0 526.375,477.5 531.5,486.5 535.625,494.875 541.5,509.375 546.25,525.125 549.0,536.625"/>
    <polyline points="549.375,538.25 551.0,541.625 552.25,541.875 561.625,536.75 569.0,533.75"/>
    <polyline points="570.375,533.375 578.25,531.25 591.625,528.75 605.625,526.875 625.25,524.75"/>
    <polyline points="628.375,524.5 660.5,520.75 673.125,518.625 686.625,515.75 696.125,513.0 701.125,511.25 706.125,509.25 711.25,506.75 716.375,504.0 721.625,500.5 726.875,496.375 732.125,491.5 737.375,485.375"/>
    <polyline points="742.375,478.0 747.0,468.875 751.25,457.75 754.625,443.875 756.875,426.875 757.25,406.0 755.0,380.625 748.75,350.5 736.875,316.125 717.5,279.0 689.125,242.75 651.125,213.25 605.25,197.25 555.5,199.875 507.5,222.0 466.125,259.375 433.5,305.25 410.125,352.875 394.5,397.75 385.0,437.375 380.25,471.125 379.0,499.125 380.625,522.0 384.625,540.375 390.625,554.875 398.375,565.875"/>
    <polyline points="407.625,573.625 417.875,578.625 429.0,580.875 440.5,580.875 452.125,578.625 463.375,574.625 474.125,569.25 484.0,562.875 493.0,555.875 500.875,548.5 507.875,541.125 513.875,533.875 518.875,527.125 526.625,515.0 532.0,505.375 535.5,497.875 540.625,485.625"/>
    <polyline points="540.875,485.125 541.5,484.375 542.125,484.75 543.125,486.5 545.5,489.25 546.875,490.375 549.0,491.5"/>
    <polyline points="549.625,491.75 551.5,492.5 555.125,493.125 560.25,493.25 566.125,492.5 571.5,491.25"/>
    <polyline points="572.625,490.875 579.75,488.125 583.375,486.25 585.875,484.75 590.75,481.125 594.375,477.75 596.5,475.125 599.5,470.625 601.125,467.25"/>
    <polyline points="601.875,465.5 602.875,461.625 603.5,457.5 603.625,453.125 603.0,448.625 600.5,441.75 599.375,439.625 596.25,435.625 592.25,432.125 589.875,430.75 587.375,429.5 581.875,428.0 578.875,427.75 572.75,428.25 566.375,430.0"/>
    <polyline points="563.25,431.375 557.25,434.875 551.625,439.375 549.0,441.875 544.25,447.25 540.25,452.75 535.375,461.0 531.875,468.5 529.5,475.25 527.75,482.5 527.125,486.875"/>
    <polyline points="527.125,488.125 527.125,492.5 527.5,495.0 528.375,497.625 529.625,499.625 531.5,501.5 533.875,502.75"/>
    <polyline points="534.375,502.875 536.5,503.625 541.625,504.375 545.5,504.5 552.625,504.0"/>
    <polyline points="553.625,504.0 560.125,503.125 568.875,501.375 580.375,497.875 586.75,495.25"/>
    <polyline points="588.375,494.5 595.125,491.0 600.375,487.5 603.75,484.75 608.75,479.875 613.25,473.875 616.0,469.125 617.125,466.375 619.75,457.5 620.375,450.625 620.125,443.25"/>
    <polyline points="619.375,439.375 617.0,431.25 615.125,427.25 612.875,423.375 610.125,419.625 606.875,416.0 603.125,412.875 599.0,410.125 594.5,407.875 589.625,406.25 584.375,405.375 579.0,405.125 573.375,405.75 567.75,407.0 562.25,409.125 556.75,411.875 551.5,415.25 546.5,419.125 541.75,423.5 537.375,428.125 533.375,433.0 529.75,437.875 526.5,442.875 521.0,452.5"/>
    <polyline points="518.75,457.125 515.125,465.625 511.375,476.5 509.75,482.375 507.625,491.5 505.75,505.875"/>
    <polyline points="505.625,506.25 504.75,509.375 503.875,510.5 502.375,511.25"/>
    <polyline points="502.125,511.375 497.25,512.25 493.875,512.375"/>
    <line x1="493.375" x2="476.0" y1="512.375" y2="512.375"/>
    <polyline points="475.0,512.375 451.875,510.875 439.375,509.25"/>
    <polyline points="437.375,508.875 431.125,507.875 424.375,506.375 414.625,503.75 404.125,499.75 398.75,497.125 390.5,492.0 385.25,487.5 380.5,481.875 376.5,475.125"/>
    <polyline points="375.0,471.125 373.875,466.75 373.375,462.0 373.5,456.875 374.5,451.375 376.5,445.625 379.625,439.625 384.125,433.625 390.125,428.0 397.625,422.875 406.75,418.625 417.375,415.625 429.125,414.25 441.75,414.875 454.875,417.5 468.0,422.125 480.5,428.625 492.25,436.625 502.875,445.875 512.125,455.625 520.0,465.625 526.625,475.5 532.0,484.875 536.375,493.75 542.5,508.875"/>
    <polyline points="544.625,515.125 547.5,525.375 550.375,537.5 552.0,542.375 552.75,543.125 554.125,543.0 562.0,538.5"/>
    <polyline points="563.0,538.0 570.625,535.0 581.75,532.125 591.5,530.5 607.875,528.625"/>
    <polyline points="610.5,528.375 648.5,526.0 706.5,523.5"/>
    <polyline points="711.875,523.25 734.75,521.75 747.125,520.5 760.125,518.75 773.75,516.0 780.875,514.125 788.0,511.75 795.375,508.625 802.75,504.625 810.25,499.375 817.75,492.25 825.125,483.0 832.125,470.375 838.375,453.25 843.25,430.0 845.5,398.5 843.125,356.0 832.625,300.125 808.375,230.75 763.25,153.5"/>
    <polyline points="691.875,85.25 597.625,52.625 497.25,75.25 411.75,147.125 351.875,242.75 316.25,338.0 298.625,421.0 293.875,489.375 298.875,544.375 312.75,588.125 335.125,621.375 365.625,643.875 402.375,654.375 442.25,652.375 481.75,638.75 517.25,616.0 546.5,587.875 569.125,557.5 585.375,527.625 596.0,499.75 602.125,474.625 604.375,452.625 603.625,433.75 600.375,418.0 595.125,405.25 588.125,395.625"/>
    <polyline points="579.875,389.0 570.75,385.25 561.125,384.25 551.375,385.75 541.875,389.625 532.75,395.375 524.5,402.5 517.0,410.625 510.375,419.375 504.625,428.375 499.75,437.25 492.375,454.0 487.625,468.625 484.625,480.5 482.375,493.75 481.5,502.5 481.25,508.125"/>
    <polyline points="481.25,509.5 480.875,513.625 480.5,514.75 479.75,515.5 476.875,516.125 472.25,516.125"/>
    <polyline points="471.5,516.125 452.25,515.375 438.75,514.25"/>
    <polyline points="436.875,514.125 426.375,512.875 416.875,511.375 406.125,509.125 397.375,506.75 391.25,504.75 381.5,500.5 374.875,496.75 368.25,492.0"/>
    <polyline points="365.0,489.125 361.875,485.875 358.875,482.125 356.25,477.75 353.875,473.0 352.0,467.5 350.75,461.25 350.5,454.375 351.25,446.75 353.5,438.375 357.375,429.625 363.5,420.5 372.125,411.5 383.375,403.375 397.375,396.75 413.875,392.625 432.375,391.5 451.875,394.0 471.625,400.25 490.375,410.0 507.5,422.5 522.375,436.75 534.75,452.0 544.75,467.375 552.625,482.0 558.75,495.625"/>
    <polyline points="563.25,508.0 566.5,518.875 568.875,528.375 571.625,543.375 573.0,560.5 572.5,567.625 574.0,564.5 575.625,562.5"/>
    <polyline points="576.375,561.875 578.625,560.0 582.625,558.0 586.25,556.875 589.0,556.375 593.375,556.0 600.125,556.25 607.625,557.5 611.625,558.625"/>
    <polyline points="613.75,559.375 622.5,563.25 627.0,566.0 633.875,571.5 638.375,576.25 642.625,582.0 646.5,589.0 648.125,593.0 650.875,602.125 651.75,607.25 652.25,612.875 652.25,618.75 651.75,624.875 650.75,631.375 648.875,637.875 646.25,644.5"/>
    <polyline points="642.75,651.0 638.375,657.0 633.125,662.5 626.875,667.125 619.75,670.625 611.875,672.75 603.5,673.375 594.625,672.25 585.5,669.5 576.5,665.0 567.75,659.125 559.375,652.0 551.625,644.0 544.5,635.25 538.125,626.125 532.5,616.875 523.25,598.875 516.375,582.625 509.5,562.375 505.375,547.125"/>
    <polyline points="504.25,543.125 500.125,526.75 497.625,519.75 496.125,517.25 493.625,514.5 490.0,512.75"/>
    <polyline points="489.375,512.5 482.625,511.125 466.0,509.625"/>
    <polyline points="464.625,509.5 451.5,508.0 437.0,505.5 424.25,502.25 419.75,500.625"/>
    <polyline points="417.375,499.75 410.25,496.625 405.5,494.0 398.375,488.875 394.0,484.625 390.25,479.5 388.625,476.5 387.25,473.25 386.25,469.875 385.625,466.125 385.625,462.0 386.125,457.75 387.375,453.375 389.375,448.875 392.375,444.25 396.25,439.75 401.25,435.625 407.375,432.0 414.625,429.0"/>
    <polyline points="422.875,427.0 432.0,426.125 441.625,426.625 451.75,428.375 461.875,431.625 471.875,436.25 481.25,441.875 490.0,448.5 497.875,455.625 504.875,463.125 511.0,470.75 516.125,478.25 520.5,485.375 527.0,498.25 529.375,503.75 532.875,513.125 537.375,528.625 538.25,530.75"/>
    <polyline points="538.5,531.5 539.25,532.375 539.875,532.625 541.25,532.25 548.375,527.875 555.125,524.875"/>
    <polyline points="556.25,524.5 565.125,521.625 598.125,513.5"/>
    <polyline points="600.375,512.875 615.5,508.125 623.75,504.75 629.5,502.0 635.375,498.625 644.375,492.125 650.25,486.5 653.25,483.125 658.75,475.25 663.625,465.25 665.625,459.25 667.375,452.625"/>
    <polyline points="668.5,445.25 669.125,437.0 668.875,427.875 667.875,418.0 665.625,407.25 662.0,395.875 656.75,384.0 649.75,372.125 640.875,360.875 630.0,350.625 617.25,342.375 602.75,336.75 587.125,334.375 570.75,335.625 554.5,340.625 538.875,349.125 524.5,360.375 511.625,373.75 500.375,388.375 491.0,403.375 483.25,418.25 477.125,432.375 472.25,445.5 468.5,457.375 465.625,468.0 463.5,477.375"/>
    <polyline points="462.0,485.625 460.375,498.625 459.75,508.0 460.125,517.0 460.875,521.75 462.0,525.125 460.375,524.375"/>
    <polyline points="459.875,524.125 456.25,523.125 448.5,522.125 432.375,521.125"/>
    <polyline points="430.625,521.125 406.5,519.875 386.375,518.25 372.75,516.5 361.5,514.5"/>
    <polyline points="357.5,513.625 349.125,511.5 344.875,510.125 335.875,506.625 331.25,504.5 326.5,501.875 321.75,498.75 317.0,495.125 312.375,490.625 307.75,485.375 303.625,479.0 299.875,471.25 296.875,462.0 295.25,450.875 295.375,437.75 298.25,422.25 305.0,404.625 316.75,385.5 335.125,366.25 361.0,349.125 394.125,337.375 432.875,334.375 473.75,342.125 512.625,360.5"/>
    <polyline points="546.375,387.125 573.25,418.5 593.125,451.25 607.0,482.625 616.0,511.25 621.5,536.625 624.25,558.625 624.875,577.375 624.125,593.25 622.0,606.5 618.875,617.5 614.875,626.25 610.0,633.125 604.625,638.125 598.875,641.25 592.625,642.875 586.25,642.75 579.75,641.375 573.375,638.625 567.125,634.875 561.25,630.125 555.75,624.75 550.625,618.875 545.875,612.625 541.625,606.25 537.875,599.75"/>
    <polyline points="534.625,593.5 531.625,587.375 526.875,575.875 520.75,557.125 518.125,546.75 516.5,538.875 514.0,522.875"/>
    <polyline points="513.875,522.125 512.75,513.875 512.875,512.75 513.375,512.25 525.125,511.25"/>
    <line x1="525.5" x2="538.0" y1="511.25" y2="510.125"/>
    <polyline points="538.75,510.125 549.375,508.75 562.75,506.375"/>
    <polyline points="564.0,506.125 577.0,502.875 585.25,500.125 594.25,496.25 601.75,492.0 605.625,489.375"/>
    <polyline points="607.5,488.0 611.375,484.75 616.875,478.75 620.25,474.0 623.25,468.5 625.625,462.125 627.375,454.75 627.75,450.75 627.75,442.0 626.125,432.5 624.5,427.5 622.5,422.625 619.875,417.625 616.625,412.875 612.75,408.375 608.375,404.375 603.25,400.875"/>
    <polyline points="597.75,398.0 591.625,396.0 585.125,394.875 578.375,394.75 571.5,395.75 564.625,397.75 557.875,400.625 551.25,404.5 545.0,409.125 539.125,414.375 533.75,420.0 528.75,426.0 524.375,432.125 517.0,444.25 514.0,450.125 509.125,461.0 505.625,470.5 501.375,485.25 500.25,490.625"/>
    <polyline points="499.75,493.0 497.625,504.625 496.875,507.375 495.5,510.0 493.375,511.5"/>
    <polyline points="493.0,511.625 491.0,512.25 487.375,512.75 478.125,513.0"/>
    <polyline points="477.25,513.0 463.25,512.625 444.875,511.0"/>
    <polyline points="443.0,510.75 435.25,509.75 421.875,507.125 416.875,505.875 406.5,502.625 398.125,499.125 392.375,496.0 386.75,492.25 381.25,487.5"/>
    <polyline points="378.625,484.75 374.0,478.125 372.125,474.375 370.5,470.0 369.5,465.375 369.0,460.125 369.375,454.5 370.625,448.5 373.0,442.25 376.75,435.75 382.0,429.25 389.0,423.125 397.625,417.75 408.125,413.375 420.125,410.75 433.375,410.0 447.375,411.5 461.75,415.375 475.75,421.5 489.0,429.5 501.0,439.0 511.625,449.375 520.625,460.25 528.25,471.125 534.375,481.625"/>
    <polyline points="539.375,491.5 543.375,500.5 548.75,515.625 551.875,527.125 554.75,540.875 556.25,546.375 557.0,547.25 558.375,547.125 563.25,544.125"/>
    <polyline points="564.25,543.625 568.5,541.5 573.75,539.5 583.25,537.125 592.75,535.75 606.5,534.875"/>
    <polyline points="609.0,534.875 617.0,534.75 635.25,535.875 649.25,537.875 660.75,540.375 673.125,544.5 681.875,548.5 686.5,551.125 691.0,554.125 695.625,557.625 700.375,561.75"/>
    <polyline points="705.0,566.625 709.75,572.5 714.25,579.5 718.625,587.75 722.625,597.5 726.125,609.25 728.875,623.0 730.375,639.25 730.25,658.25 727.75,679.75 722.0,703.625 712.0,729.0 697.0,754.125 676.25,776.25 649.875,792.375 619.125,799.125 585.875,794.75 553.0,778.875 522.875,753.625 497.125,722.375 476.375,688.375 460.375,654.625 448.5,623.0 440.25,594.5 434.625,569.5 431.25,548.125"/>
    <polyline points="429.5,530.0 429.125,514.75 430.0,502.125 431.75,491.75 434.25,483.375 437.5,476.875 441.375,471.75 445.625,468.125 450.125,465.625 455.0,464.375 459.875,464.0 464.75,464.5 469.625,465.875 474.25,467.75 478.75,470.125 482.875,472.875 486.625,476.0 490.125,479.25 495.875,485.75 502.125,495.0 506.0,502.5"/>
    <polyline points="506.875,504.625 508.625,509.625 509.375,513.0 509.5,515.375 509.125,516.5 508.25,516.625 504.125,514.375 499.625,513.25"/>
    <polyline points="499.25,513.125 494.0,512.625 486.25,512.375"/>
    <polyline points="485.5,512.375 474.25,512.0 459.75,511.0"/>
    <polyline points="458.25,510.875 448.75,510.0 439.625,508.75 431.5,507.25 420.0,504.5 415.125,503.0 407.5,500.125"/>
    <polyline points="404.75,498.875 396.75,494.625 391.5,491.0 386.5,486.375 384.125,483.75 379.875,477.5 378.25,474.0 376.875,470.0 376.0,465.625 375.625,461.0 376.0,456.0 377.25,450.625 379.5,445.0 382.875,439.25 387.5,433.625 393.625,428.375 401.125,423.625 410.25,419.875 420.5,417.375 432.0,416.5 444.125,417.375"/>
    <polyline points="456.75,420.25 469.125,425.0 481.125,431.375 492.25,439.25 502.125,448.0 511.0,457.375 518.5,466.875 524.75,476.25 529.875,485.25 534.125,493.5 537.5,501.125 540.125,508.0 543.75,519.25 548.75,538.5 549.875,540.625 550.75,541.0"/>
    <polyline points="551.25,541.0 558.25,537.0 564.875,534.0 573.375,531.25 578.25,530.125"/>
    <polyline points="580.0,529.75 596.125,526.875 631.75,522.25 645.375,520.125"/>
    <polyline points="649.125,519.5 664.625,516.375 677.375,512.875 686.375,509.5 690.875,507.5 700.375,502.375 705.125,499.125 709.875,495.25 714.625,490.75 719.375,485.25 723.875,478.625 728.25,470.75 732.125,461.125 735.375,449.625 737.75,435.625 738.875,418.875 737.875,398.75 734.25,375.125 726.875,348.125"/>
    <polyline points="714.375,318.375 695.625,287.625 669.625,259.0 636.5,237.0 597.75,226.125 556.5,229.75 516.75,247.875 481.625,277.875 453.125,315.0 431.5,354.25 416.25,392.25 406.125,426.625 400.125,456.625 397.125,482.125 396.5,503.125 397.875,520.5 400.875,534.375 405.0,545.375 410.375,553.75 416.5,559.875 423.375,564.125 430.75,566.5 438.375,567.25 446.25,566.75 454.0,565.0 461.5,562.375"/>
    <polyline points="468.625,558.875 475.375,554.875 481.625,550.5 492.375,541.25 496.875,536.625 500.875,532.25 507.5,524.125 523.125,501.25 524.625,499.625 525.875,499.125"/>
    <polyline points="526.25,499.0 527.75,499.25 532.5,501.75 537.25,503.125"/>
    <polyline points="537.75,503.25 541.0,503.75 546.375,504.0 551.625,503.75 558.875,502.875"/>
    <polyline points="560.0,502.75 568.625,501.0 578.625,498.125 584.875,495.75 589.75,493.5 596.375,489.625"/>
    <polyline points="598.125,488.5 603.25,484.625 606.5,481.5 609.625,477.875 612.625,473.75 615.25,469.125 616.375,466.5 618.25,460.75 618.875,457.75 619.375,454.5 619.625,447.5 618.75,439.875 616.375,432.0 614.625,428.125 612.375,424.25 609.75,420.625"/>
    <polyline points="606.625,417.125 603.0,414.0 599.0,411.25 594.625,409.0 589.875,407.375 584.75,406.375 579.5,406.125 574.0,406.625 568.5,407.875 563.125,409.75 557.75,412.375 552.5,415.625 542.875,423.5 538.625,428.0 531.0,437.5 524.75,447.125 520.0,456.375 516.25,464.875 512.375,475.625"/>
    <polyline points="511.5,478.75 510.0,484.25 508.25,492.625 506.375,507.75"/>
    <polyline points="506.25,508.0 505.75,509.625 503.875,511.25 499.75,512.125 494.875,512.375"/>
    <line x1="494.5" x2="478.0" y1="512.375" y2="512.375"/>
    <polyline points="477.125,512.375 459.75,511.5 443.5,509.75"/>
    <polyline points="441.625,509.5 431.5,507.875 422.5,505.875 415.125,503.75 404.625,499.875 396.5,495.75 391.125,492.125 385.875,487.75 381.0,482.25"/>
    <polyline points="378.875,479.125 377.0,475.625 375.375,471.75 374.25,467.375 373.625,462.75 373.75,457.625 374.625,452.25 376.375,446.5 379.375,440.625 383.75,434.625 389.375,428.875 396.75,423.75 405.5,419.375 415.875,416.125 427.375,414.625 439.875,414.875 452.875,417.125 466.0,421.5 478.625,427.75 490.375,435.5 501.125,444.5 510.5,454.125 518.625,464.125 525.375,474.0 531.0,483.375 535.5,492.25"/>
    <polyline points="539.0,500.375 544.125,514.125 547.125,524.5 550.0,537.0 551.625,542.0 552.375,542.75 553.75,542.75 555.0,542.25 559.625,539.375"/>
    <polyline points="560.5,538.875 568.625,535.375 576.0,533.125 584.875,531.25 602.0,528.875"/>
    <polyline points="604.5,528.625 630.0,526.5 675.625,523.75 694.5,522.25"/>
    <polyline points="699.5,521.75 709.875,520.625 726.5,518.125 738.375,515.5 750.625,511.625 757.0,509.0 763.5,505.625 770.0,501.5 776.5,496.375 783.0,489.625 789.375,481.0 795.375,469.875 800.75,455.5 805.0,436.625 807.375,412.0 806.75,380.25 800.75,339.75 786.75,290.125 760.375,233.375 717.875,176.0 657.375,131.125"/>
    <polyline points="583.5,114.5 507.375,135.25 441.375,188.875 392.125,260.0 359.75,333.625 341.125,400.625 332.375,457.5 331.125,504.25 335.875,541.875 345.75,571.75 360.625,594.625 379.875,610.625 402.625,619.625 427.625,621.75 453.375,617.375 478.25,607.25 500.875,592.875 520.5,575.75 536.625,557.375 549.375,539.0 559.125,521.5 566.25,505.375 571.0,491.0 574.0,478.375 575.5,467.5 575.75,458.25"/>
    <polyline points="575.0,450.625 573.5,444.375 571.375,439.625 568.75,436.0 565.625,433.5 562.375,432.0 558.875,431.5 555.375,431.75 551.875,432.75 548.375,434.25 545.0,436.375 538.875,441.75 533.375,448.0 531.0,451.375 527.0,458.125 523.75,464.5 521.25,470.5 517.875,480.75"/>
    <polyline points="517.375,482.875 516.5,486.75 515.375,495.25 515.5,501.125 516.625,505.625"/>
    <polyline points="516.75,505.875 518.25,507.875 520.125,509.0 521.875,509.5"/>
    <polyline points="522.125,509.5 525.5,510.0 531.625,510.0"/>
    <polyline points="532.125,509.875 540.125,509.375 550.375,508.125"/>
    <polyline points="551.375,508.0 568.0,504.875 576.875,502.5 585.0,499.75"/>
    <polyline points="586.75,499.0 594.0,495.875 599.5,492.875 605.25,489.125 610.875,484.375 616.375,478.5 621.125,471.125 623.875,465.25 625.875,458.375 627.0,450.75"/>
    <polyline points="627.125,446.5 626.25,437.5 625.25,432.75 623.75,428.0 621.75,423.125 619.125,418.25 616.0,413.625 612.125,409.25 607.75,405.25 602.875,401.875 597.375,399.125 591.5,397.125 585.125,396.0 578.5,395.875 571.75,396.75 565.0,398.75 558.375,401.5 551.875,405.25 545.75,409.75 540.0,414.75 534.625,420.25 529.75,426.125 525.375,432.125 518.0,444.0"/>
    <polyline points="515.0,449.75 510.25,460.5 504.125,477.875 501.125,490.0 498.375,505.0 497.375,508.125"/>
    <polyline points="497.25,508.5 496.625,509.625 494.625,511.25 491.5,512.25 488.0,512.625"/>
    <polyline points="487.375,512.75 478.875,513.0 465.5,512.625"/>
    <polyline points="464.25,512.5 452.875,511.75 438.75,510.125 430.375,508.75 418.75,506.125"/>
    <polyline points="416.25,505.5 408.5,503.125 400.25,499.75 391.75,495.25 386.125,491.375 380.75,486.375 375.875,480.375 373.75,476.75 372.0,472.75 370.625,468.375 369.875,463.5 369.625,458.25 370.375,452.5 372.0,446.375 374.875,440.125 379.125,433.625 384.875,427.375"/>
    <polyline points="392.375,421.5 401.625,416.5 412.5,412.875 424.875,410.875 438.25,410.875 452.25,413.125 466.375,417.75 480.0,424.5 492.75,432.875 504.25,442.625 514.25,453.125 522.75,464.0 529.75,474.625 535.5,484.75 540.125,494.25 543.75,502.875 546.5,510.625 551.625,528.125 555.0,544.125"/>
    <polyline points="555.375,545.25 556.5,546.625 557.875,546.5 566.0,541.75 572.125,539.25 578.0,537.5"/>
    <polyline points="579.625,537.125 588.625,535.5 594.75,534.75 608.875,533.875 628.875,534.125 642.125,535.25"/>
    <polyline points="645.75,535.625 653.125,536.75 665.0,539.25 673.5,541.75 677.875,543.375 686.875,547.375 696.375,553.0 701.125,556.625 706.0,560.875 710.875,566.0 715.75,572.0 720.5,579.25 725.125,588.0 729.25,598.375 732.875,610.875 735.75,625.75 737.125,643.375 736.75,664.0 733.625,687.625 726.75,713.75"/>
    <polyline points="715.125,741.25 697.5,768.125 673.625,791.0 643.5,806.125 609.125,810.0 573.0,800.875 538.25,779.5 507.625,749.0 482.25,713.375 462.5,676.375 447.75,640.875 437.375,608.375 430.375,579.75 426.125,555.0 423.875,534.125 423.375,516.5 424.375,502.0 426.5,490.0 429.5,480.375 433.5,472.75 438.25,467.0 443.5,462.875 449.25,460.375 455.25,459.125 461.25,459.125 467.375,460.125"/>
    <polyline points="473.25,462.125 478.875,464.75 484.25,468.125 489.125,471.75 493.5,475.75 500.875,484.125 506.5,492.0 512.125,502.25 516.0,511.875 518.375,520.875 519.25,518.125 521.375,515.625 524.25,514.125 527.875,513.0"/>
    <polyline points="528.375,513.0 533.875,511.875 543.5,510.5"/>
    <polyline points="544.375,510.375 558.375,508.0 573.25,504.625"/>
    <polyline points="574.75,504.25 586.375,500.5 595.5,496.5 601.375,493.375 607.25,489.5 611.125,486.25 616.875,480.625 620.375,476.0"/>
    <polyline points="622.125,473.375 625.125,467.625 627.5,460.875 628.375,457.125 629.375,448.875 629.125,439.75 627.0,429.75 625.25,424.625 622.875,419.5 620.0,414.375 616.375,409.5 612.125,405.0 607.25,400.875 601.75,397.5 595.625,394.875 589.125,393.25 582.25,392.5 575.125,393.0 568.0,394.5 560.75,397.0 553.875,400.625"/>
    <polyline points="547.125,405.125 540.875,410.25 535.0,416.0 529.75,422.125 524.875,428.5 520.625,434.875 513.625,447.375 508.375,458.875 503.125,473.375 500.0,484.625 496.125,504.0"/>
    <polyline points="495.875,505.0 495.125,507.875 494.25,509.75 493.375,510.625 491.625,511.75 487.625,512.75"/>
    <polyline points="487.0,512.75 478.75,513.25 465.625,512.875"/>
    <polyline points="464.375,512.875 451.5,512.0 439.0,510.625 426.25,508.5 419.125,506.875"/>
    <polyline points="416.625,506.25 408.875,504.0 400.625,500.875 394.875,498.125 389.125,494.75 383.375,490.625 378.0,485.375 373.125,478.875 371.125,475.0 369.5,470.75 368.375,466.0 367.75,460.75 368.0,455.125 369.125,449.0 371.375,442.625 375.0,436.0 380.125,429.375"/>
    <polyline points="387.0,423.0 395.625,417.25 406.125,412.75 418.25,409.75 431.625,408.75 446.0,410.0 460.625,413.75 475.0,419.75 488.625,427.875 501.0,437.5 512.0,448.25 521.375,459.375 529.125,470.5 535.5,481.25 540.5,491.375 544.625,500.625 547.625,508.875 550.0,516.25 553.25,528.0 556.875,545.625"/>
    <polyline points="557.125,546.75 558.25,548.5 559.5,548.375 566.375,544.25 570.875,542.125 579.5,539.5"/>
    <polyline points="581.125,539.125 590.125,537.625 598.5,536.875 613.125,536.625 627.5,537.5 633.75,538.25 643.875,540.0"/>
    <polyline points="647.375,540.875 658.625,544.0 666.5,547.125 674.75,551.25 683.375,556.875 687.625,560.375 692.0,564.5 696.375,569.375 700.625,575.0 704.875,581.75 708.75,589.625 712.375,598.875 715.5,609.625 717.875,622.375 719.125,637.125 718.875,653.875 716.625,672.875 711.5,693.75 703.125,715.625 690.5,737.375 673.25,756.875"/>
    <polyline points="651.25,771.875 625.375,779.875 597.0,779.125 568.125,768.875 540.625,750.125 516.125,725.25 495.5,696.625 478.875,667.0 466.0,638.25 456.375,611.375 449.375,587.375 444.625,566.375 441.5,548.125 439.625,532.75 438.875,519.75 439.0,508.875 439.75,499.875 441.125,492.5 443.0,486.5 445.25,481.875 447.75,478.25 450.625,475.625 453.625,473.75 456.75,472.75 459.875,472.25 463.0,472.375"/>
    <polyline points="466.25,473.0 469.25,474.0 472.125,475.375 477.5,478.75 480.0,480.625 486.0,486.875 489.0,490.875 491.25,494.5 493.375,499.25 494.25,501.875 494.75,504.875 494.125,508.0"/>
    <polyline points="493.875,508.375 492.375,509.5 489.25,510.125 477.625,509.5"/>
    <polyline points="476.625,509.375 457.25,507.5 442.25,505.0"/>
    <polyline points="440.5,504.625 428.5,501.625 419.75,498.5 413.0,495.25 406.375,491.125 402.0,487.75 398.0,483.625 396.25,481.25 393.25,475.875 392.0,472.875 391.25,469.625"/>
    <polyline points="390.875,466.25 390.875,462.625 391.5,458.75 392.75,454.75 394.75,450.75 397.5,446.75 401.125,442.875 405.625,439.25 411.125,436.125 417.625,433.625 424.875,431.875 432.875,431.125 441.375,431.5 450.25,433.0 459.25,435.625 468.0,439.5 476.5,444.25 484.5,449.75 491.875,456.0 498.375,462.5 504.125,469.125 509.125,475.75 513.5,482.125 517.0,488.25 522.5,499.125"/>
    <polyline points="524.5,503.875 528.625,515.0 531.875,526.0 532.75,528.0 533.375,528.5 534.0,528.5 537.75,526.125"/>
    <polyline points="538.25,525.75 541.375,523.875 547.875,520.875 555.125,518.5 561.25,516.875"/>
    <polyline points="562.625,516.5 589.375,509.625 600.0,506.125 609.25,502.375"/>
    <polyline points="611.75,501.25 619.125,497.25 626.75,492.0 631.875,487.625 636.875,482.375 639.25,479.375 643.75,472.375 647.625,463.75 649.125,458.875 650.375,453.375 651.25,447.5 651.625,441.0 651.5,434.0 650.625,426.5 649.0,418.5 646.5,410.25 642.875,401.625 638.25,393.125"/>
    <polyline points="632.25,384.875 625.0,377.125 616.5,370.5 606.875,365.25 596.125,361.75 584.75,360.375 573.0,361.25 561.125,364.5 549.5,369.875 538.5,377.25 528.375,386.0 519.25,396.0 511.25,406.5 504.375,417.25 498.5,427.875 493.625,438.125 489.5,447.75 483.625,464.875 481.5,472.125 478.625,484.5 475.75,501.125"/>
    <polyline points="475.5,504.0 474.125,514.875 473.125,517.0 471.125,518.125 465.125,518.25"/>
    <polyline points="464.25,518.25 449.0,517.5 427.5,515.75"/>
    <polyline points="425.375,515.625 408.125,513.375 396.625,511.125 390.375,509.625 376.75,505.25 366.0,500.125 358.5,495.375 354.875,492.5 347.75,485.375"/>
    <polyline points="344.5,480.875 341.625,475.75 339.125,469.875 337.25,463.125 336.25,455.375 336.5,446.5 338.5,436.75 342.375,426.125 349.0,414.875 358.75,403.5 372.0,392.875 388.875,384.125 409.25,378.5 432.25,377.0 456.625,380.625 480.75,389.375 503.375,402.625 523.25,419.25 540.0,437.75 553.25,457.0 563.625,475.75 571.25,493.375 576.75,509.25 580.625,523.25 583.125,535.375 584.75,545.75"/>
    <polyline points="585.625,554.5 586.0,561.875 585.625,572.625 584.375,579.5 582.625,583.375 580.875,585.25 579.125,585.5 578.25,585.125 576.625,584.0 575.375,582.125 573.625,577.625 573.125,574.0 573.25,571.625"/>
    <polyline points="573.375,570.375 574.125,567.125 575.625,564.25 578.5,561.125 580.375,559.75 584.75,557.75 587.25,557.125 594.625,556.25 597.875,556.375"/>
    <polyline points="599.625,556.5 607.0,557.625 613.125,559.375 619.5,562.125 624.0,564.5 630.75,569.25 637.5,575.875 641.75,581.5 643.75,584.75 647.375,592.125 650.125,601.0"/>
    <polyline points="651.0,606.0 651.625,611.375 651.75,617.125 651.375,623.125 650.375,629.5 648.75,636.0 646.375,642.5 643.125,648.875 639.125,655.0 634.0,660.5 628.125,665.375 621.375,669.0 613.75,671.5 605.5,672.5 596.875,671.75 588.0,669.5 579.125,665.5 570.375,660.125 562.0,653.375 554.125,645.75 547.0,637.25 540.5,628.375 534.625,619.25 529.5,610.25 521.25,593.0"/>
    <polyline points="518.0,585.0 512.875,570.625 509.125,558.625 506.375,548.875 501.125,527.75 499.625,522.875 497.75,518.625 495.25,515.5"/>
    <polyline points="494.75,515.0 493.125,513.875 491.375,513.125 488.0,512.125 476.25,510.625"/>
    <polyline points="475.25,510.625 451.625,508.25 439.125,506.125"/>
    <polyline points="437.125,505.75 424.375,502.625 417.5,500.25 407.875,495.875 400.625,491.375 396.0,487.5 391.75,482.875 389.875,480.25 388.125,477.25 386.75,474.125 385.625,470.625 384.875,466.875"/>
    <polyline points="384.625,462.875 385.0,458.625 386.125,454.125 387.875,449.5 390.75,444.875 394.5,440.25 399.375,435.875 405.375,432.0 412.5,428.75 420.625,426.5 429.75,425.375 439.625,425.5 449.75,427.125 460.125,430.125 470.375,434.625 480.125,440.125 489.125,446.75 497.375,454.0 504.625,461.625 510.875,469.5 516.25,477.125 520.875,484.5 527.625,497.75 532.125,508.625"/>
    <polyline points="533.625,513.125 538.75,530.5 539.875,532.75 540.625,533.25 541.75,533.125 548.0,529.375"/>
    <polyline points="548.75,529.0 552.375,527.125 561.5,523.75 570.0,521.375 582.125,518.5"/>
    <polyline points="584.0,518.125 603.625,513.25 616.5,509.25 624.875,506.0 627.875,504.75 636.875,500.0 646.125,493.75 649.125,491.125"/>
    <polyline points="652.25,488.125 658.25,481.25 661.125,477.125 666.375,467.25 668.5,461.25 670.375,454.625 671.875,447.25 672.625,438.875 672.75,429.5 671.875,419.375 669.875,408.25 666.5,396.25 661.375,383.75 654.5,371.125 645.5,358.875 634.25,347.75 621.0,338.375 605.875,331.875 589.375,328.875 572.125,329.875 554.75,334.875 538.125,343.75 522.75,355.75 509.125,370.0"/>
    <polyline points="497.375,385.5 487.5,401.625 479.5,417.375 473.125,432.25 468.25,446.125 464.5,458.625 461.625,469.75 459.625,479.375 458.25,487.875 456.875,501.125 456.625,510.625 457.0,517.125 458.5,524.125 459.25,525.75 460.25,526.75 460.625,526.875 460.75,526.625 459.875,525.5 457.0,524.125 453.25,523.25 445.75,522.375"/>
    <line x1="444.5" x2="393.125" y1="522.375" y2="519.75"/>
    <polyline points="390.125,519.5 383.75,519.0 366.25,516.875 354.5,514.875 346.0,512.875 341.625,511.625 332.5,508.375 322.875,504.0 318.0,501.125 313.0,497.625 308.125,493.5 303.375,488.5 298.75,482.375 294.5,475.0 291.0,466.125 288.625,455.25"/>
    <polyline points="287.875,442.125 289.625,426.625 295.0,408.625 305.5,388.5 322.75,367.375 348.0,347.625 381.625,332.75 422.125,326.625 466.125,332.125 508.875,349.875 546.375,377.5 576.125,411.0 598.125,446.25 613.25,480.375 623.0,511.625 628.625,539.25 631.25,563.125 631.75,583.625 630.375,601.0 627.5,615.625 623.5,627.5 618.5,637.125 612.5,644.375 605.75,649.5 598.5,652.5 590.875,653.5"/>
  </g>
</svg>
