<?xml version="1.0" encoding="utf-8" ?>
<svg xmlns="http://www.w3.org/2000/svg" xmlns:cc="http://creativecommons.org/ns" xmlns:dc="http://purl.org/dc/elements/1.1/" xmlns:ev="http://www.w3.org/2001/xml-events" xmlns:inkscape="http://www.inkscape.org/namespaces/inkscape" xmlns:rdf="http://www.w3.org/1999/02/22-rdf-syntax-ns" xmlns:sodipodi="http://sodipodi.sourceforge.net/DTD/sodipodi-0.dtd" xmlns:xlink="http://www.w3.org/1999/xlink" baseProfile="tiny" height="27.09333333cm" version="1.2" viewBox="0 0 1024.0 1024.0" width="27.09333333cm">
  <metadata>
    <rdf:RDF>
      <cc:Work>
        <dc:format>image/svg+xml</dc:format>
        <dc:source>vpype read './original_svgs/Strange Attractors #76.svg' linemerge linesimplify write './Strange Attractors #76.svg'
</dc:source>
        <dc:date>2024-08-05T01:35:23.733537</dc:date>
      </cc:Work>
    </rdf:RDF>
  </metadata>
  <defs/>
  <g fill="none" id="layer1" inkscape:groupmode="layer" inkscape:label="1" stroke="black" stroke-width="0.7mm" style="display:inline">
    <polyline points="767.125,708.0 731.75,651.875 703.125,614.75 679.875,592.0 659.875,580.125 640.875,576.875 620.75,580.625 597.625,590.75 569.5,606.625 492.0,653.625 441.625,681.625 385.75,708.25 329.5,727.875 279.875,734.875 243.125,725.75 222.0,701.625 214.5,666.75 216.125,627.0 222.25,586.75 235.625,514.875 240.25,484.625 243.5,458.0 248.125,415.125"/>
    <polyline points="251.125,399.0 255.625,386.5 262.375,377.875 271.5,373.625 282.875,373.375 296.25,377.125 311.125,384.25 326.625,394.0 342.25,405.5 357.375,418.0 371.625,430.625 396.375,454.875 431.25,491.75 447.625,508.375 451.875,512.25 459.125,518.125 467.75,523.125"/>
    <polyline points="470.25,524.0 474.875,525.125 477.125,525.375 483.25,525.375 490.75,524.25 516.5,518.25"/>
    <line x1="518.125" x2="561.625" y1="517.875" y2="509.25"/>
    <polyline points="563.625,508.75 588.25,502.5 608.0,496.125 630.0,487.375 641.0,482.375 653.75,475.875"/>
    <polyline points="660.875,472.125 677.375,462.625 686.75,456.875 708.25,442.625 733.875,423.875 748.25,412.5 763.375,399.875 778.875,386.125 794.0,371.75 807.625,357.375 818.25,344.25 824.25,334.125 824.0,328.75 816.5,329.625 801.625,337.875 780.625,353.0 755.625,373.875 729.25,398.125 703.375,424.0 679.625,449.5 658.875,473.375 641.25,495.0 626.625,514.0"/>
    <polyline points="614.875,530.5 598.25,556.0 592.625,565.75 585.125,580.0 578.875,594.0 577.5,596.125 577.0,596.375 576.5,596.125 569.5,584.375 563.375,576.375"/>
    <polyline points="561.625,574.375 556.0,568.875 549.875,563.875 545.75,561.0 537.25,556.25 531.0,553.375 524.75,551.125 518.625,549.375 510.5,547.75"/>
    <polyline points="508.5,547.5 496.875,546.5 485.25,546.875 479.5,547.625 470.125,549.75 466.5,551.0 461.25,553.375"/>
    <polyline points="459.5,554.375 456.25,556.75 453.375,559.625 451.0,563.125 449.375,567.625 448.875,570.25 448.625,573.125 448.75,576.5 450.5,584.625 452.25,589.5 454.75,595.0 458.125,601.375 462.625,608.625 468.375,616.75 475.75,626.0 484.75,636.5 495.875,648.125 509.25,660.875 525.125,674.75 543.625,689.125 564.5,703.5"/>
    <polyline points="587.5,717.0 611.75,728.25 636.125,736.125 659.25,739.125 679.5,736.375 695.75,727.5 707.375,713.125 714.25,694.25 717.0,672.5 716.375,649.375 713.5,626.25 709.125,604.25 703.875,583.75 698.5,565.375 693.25,549.0 683.625,522.625 675.75,503.375 672.5,496.0 669.375,489.875 664.125,480.75 659.625,474.75 657.5,472.625"/>
    <polyline points="655.5,471.125 653.5,469.875 651.5,469.125 647.625,468.5 643.75,468.75 639.875,469.625 630.5,473.25 612.125,482.125"/>
    <polyline points="611.0,482.625 606.5,484.625 602.875,485.75 606.75,483.5"/>
    <polyline points="607.5,483.125 623.25,475.25 635.25,468.75 651.875,458.75"/>
    <polyline points="654.375,457.125 666.125,449.375 673.125,444.125 675.25,442.375 676.0,441.375 669.875,445.125 652.75,457.5"/>
    <polyline points="649.375,460.0 628.125,474.75 612.0,484.75 603.75,489.25 594.375,493.625 590.5,495.25 582.375,497.875"/>
    <polyline points="581.125,498.25 573.875,499.75 571.875,499.5 573.375,498.375 575.125,497.75"/>
    <polyline points="575.75,497.375 597.0,489.375 619.875,479.375"/>
    <polyline points="623.0,477.75 637.375,470.375 650.0,463.25 664.125,454.625 679.375,444.375 689.75,436.875 699.625,429.25 708.0,422.125 714.0,416.375 715.625,414.5 716.25,413.25 715.75,412.875 714.125,413.375"/>
    <polyline points="711.25,415.0 702.25,421.375 689.5,431.125 636.375,474.625 616.5,490.0 599.75,501.375 590.125,506.875 577.75,512.875 567.25,516.5"/>
    <polyline points="564.125,517.375 558.375,518.625 553.0,519.375 543.75,520.125 534.125,520.125 516.625,518.875"/>
    <polyline points="515.375,518.75 501.375,517.5 489.25,516.875"/>
    <polyline points="488.125,516.75 474.375,516.0 454.875,513.875"/>
    <polyline points="453.0,513.5 443.25,511.75 431.75,508.75 421.0,505.125 415.0,502.625 401.625,496.25 390.0,489.5 381.625,483.75"/>
    <polyline points="377.125,480.5 367.875,473.125 358.25,464.5 348.5,454.625 339.25,443.875 331.375,432.625 328.125,427.0 325.625,421.875 324.0,417.125 323.375,413.0 323.875,409.75 325.625,407.5 328.5,406.375 332.5,406.375 337.75,407.75 343.875,410.25 350.75,413.875 366.125,423.75 382.25,435.875"/>
    <polyline points="390.25,442.25 436.75,481.0 446.625,488.625 455.25,494.75 466.0,501.5 475.125,505.875 485.0,509.5 493.375,511.25"/>
    <polyline points="495.25,511.5 500.5,512.125 508.25,512.375 519.125,511.875 530.375,510.625"/>
    <polyline points="531.625,510.5 550.375,507.25 561.75,504.75 569.25,502.75"/>
    <polyline points="571.25,502.25 580.125,499.75 593.25,495.5 606.0,490.75 617.375,486.0 630.75,479.875 646.875,471.625 666.375,460.375"/>
    <polyline points="673.75,455.875 698.75,439.125 717.5,425.125 736.875,409.25 746.25,401.0 762.125,385.375 767.375,378.875 770.25,374.125 770.125,371.75 766.625,372.25 759.625,375.875 749.625,382.625 736.875,392.25 722.375,404.25 706.875,417.875 675.875,447.0 648.0,474.375 625.0,497.625"/>
    <polyline points="615.25,507.25 599.0,522.875 586.0,534.25 575.625,542.0 571.125,544.875 563.125,548.875 556.25,551.375 553.125,552.125 547.25,552.875 542.0,553.125 534.625,552.75 521.25,551.0"/>
    <polyline points="519.125,550.75 513.0,550.0 503.25,549.375 492.0,549.625 484.625,550.625 479.375,551.875 472.625,554.5"/>
    <polyline points="471.0,555.25 466.5,558.375 462.75,562.5 460.875,566.125 459.625,570.5 459.5,576.0 459.875,579.25 460.75,582.875 464.0,591.625 466.5,596.75 469.875,602.625 474.25,609.125 479.625,616.375 486.25,624.5 494.25,633.5 504.0,643.25 515.375,653.875 528.625,665.0"/>
    <polyline points="543.875,676.625 560.75,688.0 579.125,698.625 598.5,707.625 618.125,714.375 637.0,717.75 654.125,717.125 668.875,712.125 680.25,702.875 688.25,690.0 692.875,674.125 694.5,656.375 693.75,637.875 691.25,619.5 687.5,601.75 683.0,585.125 678.125,570.0 668.625,544.5 659.875,525.0 655.875,517.25 649.0,505.0 643.125,496.25"/>
    <polyline points="640.625,493.0 634.125,486.125 632.375,484.625 627.625,481.75 623.75,480.375 621.625,480.0 614.625,479.875 616.125,478.625 631.875,470.0"/>
    <polyline points="633.125,469.25 642.0,464.125 653.5,456.875 660.0,452.125 659.75,452.25"/>
    <polyline points="659.375,452.5 629.5,472.375 615.625,480.5"/>
    <polyline points="613.875,481.5 601.75,487.375 597.75,488.875 595.75,489.25 596.25,488.75"/>
    <polyline points="596.5,488.625 616.375,479.125 631.75,471.125"/>
    <polyline points="634.375,469.75 648.5,461.5 666.875,449.75 680.0,440.125 685.75,434.875 684.875,435.0 681.875,436.875"/>
    <polyline points="679.625,438.375 670.25,445.0 635.875,470.625 619.0,482.0 607.875,488.875 601.125,492.5 595.125,495.5 587.125,499.0"/>
    <polyline points="584.75,499.875 578.25,502.0 568.375,504.375 560.375,505.25 557.0,504.875"/>
    <polyline points="556.75,504.875 556.875,504.25 558.375,503.5 570.75,499.625"/>
    <polyline points="572.0,499.25 586.75,494.375 603.25,488.125 618.875,481.25 634.5,473.5"/>
    <polyline points="638.875,471.25 653.625,463.0 670.5,452.5 689.25,439.75 702.125,430.125 714.5,420.125 724.875,410.75 728.75,406.875 731.5,403.625 732.875,401.375 732.625,400.5 730.75,400.875 727.125,402.75 721.75,406.25 715.0,411.125 698.0,424.625"/>
    <polyline points="688.375,432.625 623.625,488.5 609.25,499.875 596.75,508.875 586.125,515.625 581.25,518.25 576.75,520.5 568.5,523.875 557.75,527.0 548.5,528.5 543.0,528.875"/>
    <polyline points="540.375,529.0 533.0,529.0 526.375,528.625 491.75,525.25"/>
    <polyline points="490.0,525.125 458.5,522.375 447.125,520.875 439.5,519.5"/>
    <polyline points="436.75,518.875 433.875,518.375 421.5,515.125 410.75,511.375 402.75,508.125 389.125,501.5 373.125,491.75 360.875,483.0 354.25,477.75 347.25,471.875 340.0,465.25 332.5,458.0 324.75,449.875 317.0,441.125 309.25,431.625"/>
    <polyline points="302.0,421.625 295.25,411.375 289.625,401.25 285.5,391.5 283.25,382.875 283.25,375.875 285.875,371.125 291.125,368.875 299.0,369.625 309.25,373.375 321.125,379.75 334.25,388.375 347.875,398.625 361.625,410.0 374.875,421.75 387.375,433.5 409.5,455.5 447.75,494.75 453.0,499.875 462.0,507.875"/>
    <polyline points="465.875,511.0 475.5,517.375 480.875,519.75 487.875,521.75 492.0,522.25 499.75,522.125 506.75,521.25 518.5,519.125"/>
    <line x1="520.125" x2="564.625" y1="518.75" y2="510.0"/>
    <polyline points="566.875,509.5 576.0,507.5 592.25,503.375 616.875,495.5 630.625,490.125 641.5,485.375 661.375,475.5"/>
    <polyline points="669.25,471.25 687.625,460.5 710.0,446.0 723.0,436.875 737.375,426.25 753.25,413.875 770.375,399.875 788.375,384.0 806.5,366.875 823.5,349.125 837.625,332.375 846.25,318.625 847.125,310.75 838.375,311.0 820.0,320.875 793.875,339.875 763.125,366.0 731.25,396.25 701.125,427.75 674.625,458.25 652.375,486.125 634.5,510.875 620.75,532.25 610.375,550.375"/>
    <polyline points="603.0,565.625 597.875,578.25 594.75,588.625 593.0,596.875 592.375,603.5 592.625,608.5 593.25,612.125 594.375,614.5 595.5,615.75 596.625,616.0 597.75,615.5 598.5,614.125 599.125,612.125 599.375,609.5 598.75,603.125 596.875,595.625 593.75,587.75 589.75,580.0 585.0,572.625 579.875,565.875"/>
    <polyline points="577.25,562.75 571.875,557.125 563.625,550.0 555.625,544.375 550.625,541.375 540.875,536.625 534.125,534.0 525.75,531.375 518.0,529.5"/>
    <polyline points="516.125,529.0 507.125,527.375 498.5,526.25 472.375,523.875"/>
    <polyline points="470.5,523.625 454.0,522.0 436.5,519.125 421.25,515.25 410.5,511.5 402.375,508.25"/>
    <polyline points="398.125,506.25 388.75,501.5 378.25,495.375 372.5,491.75 360.125,482.875 346.375,471.5 339.125,464.875 331.5,457.5 323.625,449.25 315.75,440.375 308.0,430.75 300.625,420.625 294.0,410.25 288.375,399.875 284.25,390.125 282.125,381.5 282.375,374.5 285.25,369.875 290.875,367.875 299.0,368.875 309.5,372.875 321.75,379.625"/>
    <polyline points="335.125,388.625 349.0,399.25 362.75,410.75 376.125,422.75 400.25,446.0 442.625,489.875 458.375,505.125 466.375,511.75 475.875,518.0 481.125,520.375 483.5,521.125 488.0,522.125 492.125,522.625"/>
    <polyline points="494.125,522.625 499.75,522.375 505.0,521.75 536.625,515.75"/>
    <polyline points="538.25,515.375 564.5,510.25 575.875,507.75 592.0,503.625"/>
    <polyline points="595.0,502.75 612.375,497.375 620.625,494.375 635.25,488.5 646.75,483.25 660.375,476.5 676.75,467.5 696.625,455.375 721.125,438.75 735.5,428.25 751.25,416.125 768.375,402.25 786.5,386.375 805.125,369.125"/>
    <polyline points="822.875,351.0 837.875,333.5 847.875,318.75 850.25,309.375 843.0,308.125 825.625,316.625 799.875,334.75 768.875,360.75 736.25,391.25 705.25,423.5 677.75,454.75 654.75,483.625 636.25,509.25 622.0,531.5 611.375,550.25 603.75,566.125 598.75,579.25 595.625,590.0 594.0,598.625 593.625,605.5 594.125,610.625 595.0,614.375 596.375,616.875 597.75,618.125 599.125,618.375 600.375,617.625"/>
    <polyline points="601.375,616.125 602.0,614.0 602.375,611.125 602.25,607.875 601.875,604.25 599.875,596.25 596.625,587.75 594.625,583.625 590.0,575.5 582.125,564.625 573.875,555.5 565.5,548.25 557.375,542.625 552.25,539.5"/>
    <polyline points="549.75,538.125 542.5,534.75 535.875,532.125 529.625,530.125 516.5,526.875 501.5,524.5"/>
    <polyline points="499.875,524.375 468.625,521.5 456.875,520.125"/>
    <polyline points="454.75,519.875 445.75,518.5 432.75,515.75 420.5,512.25 409.875,508.25 402.0,504.875 388.75,497.875 378.625,491.75 367.5,484.0"/>
    <polyline points="361.5,479.375 355.25,474.375 348.75,468.625 335.125,455.5 321.375,440.0 314.625,431.5 308.375,422.625 302.875,413.75 298.375,405.0 295.25,397.0 293.75,389.875 294.25,384.25 296.875,380.5 301.75,378.875 308.75,379.75 317.625,383.0 328.0,388.375 339.375,395.625 351.375,404.375 363.375,414.0 375.25,424.125 386.625,434.375 407.25,453.75"/>
    <polyline points="416.25,462.625 444.75,490.0 455.125,499.25 467.5,508.625 474.25,512.625 480.0,515.375 487.625,517.75 496.375,518.875 505.875,518.625"/>
    <polyline points="507.75,518.5 522.875,516.375 550.0,511.375"/>
    <polyline points="551.75,511.0 568.0,507.5 585.375,503.0 604.375,497.0 620.5,490.875"/>
    <polyline points="625.125,489.0 635.375,484.5 653.875,475.375 677.375,462.0 697.0,449.5 708.125,442.0 720.375,433.25 733.5,423.375 747.625,412.25 762.5,399.875 777.5,386.375 792.125,372.375 805.25,358.5 815.375,346.0 820.875,336.375 820.375,331.375 812.875,332.625 798.375,340.75 778.125,355.375 753.875,375.5"/>
    <polyline points="728.25,399.0 703.125,424.0 679.875,448.75 659.375,472.0 642.0,493.125 627.5,511.75 615.625,527.75 606.125,541.5 592.625,562.5 584.5,576.625 577.0,590.75 576.0,592.125 574.375,593.375 573.625,593.25 571.375,591.0 568.5,586.75"/>
    <polyline points="567.25,585.125 560.125,576.25 554.875,571.125 549.25,566.5 543.375,562.5 537.375,559.125 531.25,556.375 521.25,553.0"/>
    <polyline points="519.375,552.5 507.75,550.5 500.125,550.0 494.625,550.125 487.375,550.875 482.0,552.0 478.625,553.0 473.75,555.125"/>
    <polyline points="472.125,555.875 467.75,559.0 464.125,563.125 463.125,564.875 461.75,568.875 461.125,573.875 461.75,580.125 462.75,583.75 464.125,587.875 468.75,597.625 472.125,603.375 476.5,609.875 482.0,617.125 488.625,625.125 496.75,633.875 506.25,643.5 517.625,653.75 530.625,664.625"/>
    <polyline points="545.5,675.75 562.0,686.625 579.875,696.75 598.5,705.25 617.375,711.5 635.5,714.5 652.0,713.625 666.0,708.75 677.0,699.875 684.75,687.375 689.25,672.125 690.875,655.25 690.25,637.375 687.875,619.625 684.25,602.5 680.0,586.375 675.25,571.625 670.5,558.375 665.75,546.625 661.25,536.375 653.0,519.75 646.0,507.625 640.125,498.875"/>
    <polyline points="637.5,495.625 635.125,492.75 630.875,488.625 625.75,484.875 622.875,483.375 619.5,482.125 613.125,481.25 612.875,481.0 613.5,480.25 617.0,478.125 634.5,468.5"/>
    <polyline points="636.125,467.625 653.875,456.75 662.5,450.5 661.0,451.375"/>
    <polyline points="660.125,451.875 630.5,471.875 619.375,478.75 609.625,484.0"/>
    <polyline points="608.0,484.875 598.625,489.125 593.875,490.75 592.125,491.0 592.25,490.625 593.25,490.125"/>
    <polyline points="593.625,489.875 618.25,478.375 633.125,470.625"/>
    <polyline points="635.875,469.125 645.0,464.0 658.125,455.875 668.375,449.125 683.375,438.125 687.625,434.625 690.0,432.25 690.5,431.625 690.375,431.375 688.5,432.25 684.125,435.125"/>
    <polyline points="681.125,437.25 673.625,442.625 640.25,468.0 625.875,478.25 617.0,484.125 605.125,491.375 598.0,495.25 591.625,498.375 580.625,502.75"/>
    <polyline points="578.25,503.5 569.875,505.75 563.375,507.0 554.25,507.75 549.375,507.375"/>
    <polyline points="549.125,507.25 548.625,507.0 548.625,506.625 550.0,505.875 557.375,503.75"/>
    <polyline points="558.375,503.5 578.25,497.75 590.5,493.625 600.75,489.75"/>
    <polyline points="603.625,488.625 620.25,481.375 641.75,470.5 657.625,461.5 669.5,454.125 682.625,445.5 696.5,435.625 703.5,430.25 717.375,419.25 723.75,413.75 734.25,403.75"/>
    <polyline points="737.75,399.75 739.875,396.75 740.125,395.125 738.5,395.125 734.875,396.875 729.25,400.375 722.0,405.5 703.25,420.375 681.75,438.75 630.875,484.0 614.625,497.875 607.375,503.625 600.75,508.75 588.875,516.875 578.75,522.875 569.875,527.0"/>
    <polyline points="565.875,528.625 562.125,529.875 555.125,531.625 548.75,532.625 543.0,533.125 537.5,533.25 527.75,532.875 503.0,530.375"/>
    <line x1="501.125" x2="450.125" y1="530.125" y2="526.25"/>
    <polyline points="447.625,525.875 436.75,524.5 421.0,521.375 413.625,519.375 405.625,516.75 391.875,511.375 375.5,502.875 362.625,494.875 347.875,484.125 339.625,477.5 330.875,469.875"/>
    <polyline points="321.625,461.25 311.875,451.25 301.75,440.125 291.5,427.75 281.375,414.375 272.0,400.125 263.75,385.625 257.625,371.625 254.25,359.125 254.5,349.125 258.875,342.75 267.625,340.875 280.25,343.875 296.125,351.625 313.875,363.25 332.625,377.75 351.125,394.0 368.75,410.875 384.75,427.375 399.0,443.125 422.125,470.25 438.875,491.375 450.625,506.75"/>
    <polyline points="455.125,512.75 462.125,521.625 467.375,527.375 471.375,530.875 474.75,532.75 477.875,533.5 480.75,533.375 483.5,532.875 499.75,526.5"/>
    <polyline points="501.25,526.0 510.625,522.75 517.0,521.0 531.375,517.625 541.375,515.625"/>
    <polyline points="543.125,515.25 559.875,512.125 580.0,507.875 599.75,502.875"/>
    <polyline points="603.0,501.875 613.875,498.625 631.25,492.375 647.875,485.25 661.375,478.75 669.125,474.75 687.125,464.5 709.5,450.375 722.75,441.25 737.625,430.5 754.25,417.875 772.625,403.125 792.5,386.0 813.25,366.875 833.625,346.25 851.5,325.75"/>
    <polyline points="864.0,308.0 867.625,296.125 859.75,293.75 839.75,303.375 809.75,324.625 773.875,355.0 736.875,390.5 702.625,427.375 673.375,462.625 649.625,494.5 631.5,522.5 618.375,546.5 609.5,566.75 604.0,583.625 601.25,597.5 600.625,608.75 601.625,617.625 603.625,624.5 606.5,629.25 609.625,632.375 612.75,633.75 615.625,633.625 618.25,632.125 620.25,629.375 621.625,625.625 622.375,621.0"/>
    <polyline points="622.5,615.75 622.0,610.125 620.875,604.0 619.25,597.875 614.75,585.625 609.125,574.25 606.0,568.875 599.5,559.375 596.25,555.125 589.75,547.625 580.375,538.75 574.5,534.25 569.0,530.5 561.5,526.25 556.875,524.125"/>
    <polyline points="554.75,523.25 550.75,521.625 542.125,518.875 531.5,516.375 522.375,514.875"/>
    <polyline points="521.625,514.875 513.5,513.875 508.875,513.625"/>
    <line x1="508.5" x2="498.75" y1="513.625" y2="513.625"/>
    <line x1="498.375" x2="483.5" y1="513.625" y2="513.75"/>
    <polyline points="482.75,513.75 477.5,513.75 466.625,513.125 454.0,511.625"/>
    <polyline points="452.375,511.25 448.875,510.75 439.375,508.625 428.0,505.25 420.25,502.375 411.625,498.625 405.375,495.5 398.5,491.75 387.5,484.75"/>
    <polyline points="383.625,481.875 375.375,475.75 362.75,464.5 354.25,456.0 346.375,446.625 339.75,437.25 337.0,432.625 335.0,428.25 333.625,424.375 333.0,420.875 333.375,418.125 334.625,416.125 336.875,415.0 340.0,414.875 344.125,415.625 349.0,417.375 354.625,420.0 360.75,423.375 374.125,432.125"/>
    <polyline points="381.125,437.125 394.875,447.625 431.125,476.625 449.25,490.125 460.125,497.125 466.375,500.625 474.625,504.5 485.625,508.25"/>
    <polyline points="487.625,508.75 492.875,509.875 500.5,510.875 508.125,511.25 519.875,510.875"/>
    <polyline points="520.75,510.875 533.375,509.5 546.5,507.25"/>
    <polyline points="547.625,507.0 557.25,505.0 568.75,502.125 576.75,499.875 593.875,494.25"/>
    <polyline points="596.75,493.25 617.375,484.875 630.25,478.875 645.75,470.875 664.25,460.25 671.125,456.0 694.375,440.5 711.5,427.875 729.125,413.625 745.375,399.125"/>
    <polyline points="752.0,392.375 757.125,386.625 760.125,382.125 760.625,379.625 758.375,379.375 753.125,381.875 745.25,386.875 734.875,394.5 722.625,404.25 695.125,428.125 681.125,441.0 622.0,497.5 597.75,519.5 591.25,524.75 579.875,533.0 575.0,536.125 566.25,540.625"/>
    <polyline points="562.375,542.25 555.25,544.5 551.875,545.25 545.875,546.0 540.25,546.25 532.375,546.0 509.875,543.5 499.625,542.75"/>
    <polyline points="497.625,542.625 489.625,542.375 481.625,542.625 471.375,543.5 461.0,545.25 456.875,546.25 452.625,547.5 446.5,549.875"/>
    <polyline points="444.375,550.875 440.5,553.0 436.75,555.875 433.5,559.25 432.125,561.375 429.875,566.375 429.25,569.375 429.0,572.875 429.25,577.0 430.0,581.625 431.625,587.0 434.0,593.375 437.625,600.625 442.625,609.25 449.375,619.375 458.125,631.0 469.625,644.625 484.125,660.375 502.375,678.0 524.5,697.625 551.0,718.375 581.625,739.0"/>
    <polyline points="615.25,757.75 650.125,771.875 683.75,778.75 713.0,776.125 735.625,763.25 750.25,741.125 757.5,712.375 758.5,679.875 755.375,646.625 749.875,614.625 743.5,585.375 726.125,517.75 715.125,476.75 712.375,467.625 709.75,460.25 707.125,454.625 704.5,450.375 701.5,447.5 698.25,445.625 694.625,445.0 690.625,445.125 686.25,446.125"/>
    <polyline points="681.5,447.875 671.25,452.875 660.375,459.25 623.25,483.25 605.625,493.5 591.125,500.5 582.125,504.0 574.375,506.25"/>
    <polyline points="572.125,506.875 564.0,508.5 556.25,509.375 550.5,509.625 543.5,509.125"/>
    <polyline points="543.125,509.0 542.25,508.75 542.0,508.375 543.125,507.625 547.625,506.375"/>
    <polyline points="548.25,506.125 562.5,502.625 578.25,498.125"/>
    <polyline points="580.125,497.5 593.75,492.875 605.0,488.5 615.0,484.25 626.625,478.75 640.25,471.875 650.625,466.125 662.25,459.25 675.125,451.125"/>
    <polyline points="682.0,446.625 703.875,430.875 718.625,419.125 725.5,413.25 731.875,407.5 741.5,397.625 744.125,394.0 745.0,391.875 743.625,391.375 740.125,392.875 734.625,396.25 727.0,401.5 717.75,408.5 707.25,417.0 684.375,436.75 622.125,492.875"/>
    <polyline points="614.0,499.75 599.875,511.25 587.875,519.75 577.625,525.875 568.75,530.125 557.25,533.875 553.875,534.625 544.625,535.875 533.75,536.0 519.625,534.875"/>
    <polyline points="517.5,534.625 495.25,532.375 466.875,530.75"/>
    <polyline points="464.75,530.625 450.625,530.0 434.125,528.625 417.75,526.0 406.125,523.25 397.25,520.5 387.375,516.75 382.0,514.375"/>
    <polyline points="376.125,511.625 363.125,504.5 355.875,500.0 348.0,494.625 339.375,488.25 330.0,480.75 319.875,472.0 308.875,461.75 297.125,449.75 284.625,435.875 271.75,420.25 259.0,402.875 247.0,384.25 236.75,365.125 229.5,346.875 226.75,331.125 229.625,319.75 238.75,314.5 253.875,316.375 273.875,325.375 297.0,340.375 321.125,359.875 344.625,381.625 366.375,403.875 385.375,425.5"/>
    <polyline points="401.625,445.5 415.0,463.375 425.75,479.0 434.375,492.5 441.0,504.0 446.125,513.5 449.875,521.375 454.625,533.125 458.875,546.125 459.25,546.25 460.75,544.875 462.375,542.75 468.375,536.25"/>
    <polyline points="469.875,534.875 478.125,528.625 487.0,523.75 492.25,521.5 499.125,519.125 512.0,515.875"/>
    <line x1="513.625" x2="551.875" y1="515.625" y2="508.5"/>
    <polyline points="553.625,508.125 569.125,504.5 591.875,497.875 608.625,491.75 621.0,486.625"/>
    <polyline points="625.625,484.625 635.75,479.875 653.75,470.5 668.125,462.25 676.0,457.375 693.875,445.75 703.75,438.875 725.25,422.875 748.375,403.875 759.625,393.75 770.125,383.625 779.125,374.0 785.75,365.75 789.125,359.75 788.375,357.0 783.0,358.125 773.25,363.625 759.375,373.25 742.625,386.625"/>
    <polyline points="724.125,402.75 705.125,420.375 686.375,438.5 669.0,456.25 638.875,488.125 598.625,532.75 591.75,540.125 580.625,551.25 572.125,558.5 565.375,563.125 562.375,564.625 557.125,566.375 554.75,566.875 550.375,567.125 544.25,566.5"/>
    <polyline points="542.25,566.125 529.5,562.875 520.875,561.125 517.625,560.75 512.75,560.375 508.0,560.5 500.75,561.75"/>
    <polyline points="499.375,562.25 496.875,563.25 493.375,565.5 491.375,567.375 489.875,569.75 488.625,572.5 488.25,574.125 488.125,577.75 488.625,582.125 489.25,584.625 491.5,590.375 495.125,597.0 500.5,604.875 508.0,613.75"/>
    <polyline points="512.75,618.75 524.125,629.25 538.25,640.125 546.25,645.625 554.875,650.75 564.0,655.375 573.375,659.375 582.75,662.625 592.125,664.625 601.0,665.375 609.25,664.75 616.625,662.5 622.875,658.875 627.875,653.75 631.75,647.375 634.25,640.0 635.625,631.875 635.75,623.25 635.125,614.25 633.5,605.375 631.375,596.5 628.625,588.0 625.625,580.0 622.375,572.5"/>
    <polyline points="618.875,565.5 611.75,553.375 604.625,543.375 598.0,535.5 591.75,529.125 586.0,524.25 578.375,518.875 572.0,515.25 568.25,513.5 558.5,510.0"/>
    <polyline points="557.5,509.625 551.0,507.625 550.125,507.0 550.0,506.625 550.375,506.25 551.875,505.5"/>
    <line x1="552.25" x2="578.625" y1="505.25" y2="497.5"/>
    <polyline points="580.5,496.875 590.875,493.375 604.0,488.375 620.5,481.125 642.0,470.25 657.75,461.25 669.625,453.875"/>
    <polyline points="676.0,449.75 696.25,435.5 716.875,419.375 723.125,414.0 733.375,404.25 736.75,400.375 738.75,397.5 739.0,396.0 737.25,396.0 733.625,397.75 728.125,401.25 720.875,406.375 702.5,420.875 681.25,439.0 631.125,483.5"/>
    <polyline points="622.75,490.75 607.75,503.0 595.0,512.375 584.125,519.375 579.125,522.125 570.375,526.25 562.5,529.125 555.5,530.875 546.25,532.25 535.375,532.5 523.625,531.875"/>
    <polyline points="521.5,531.625 496.125,529.0 473.5,527.25"/>
    <polyline points="471.375,527.125 458.625,526.25 446.625,525.0 432.75,522.875 423.125,520.75 412.25,517.75 399.75,513.25"/>
    <polyline points="395.125,511.25 379.5,503.5 367.25,496.125 360.5,491.5 345.625,480.25 328.75,465.5 319.625,456.5 310.0,446.5 300.25,435.25 290.5,423.0 281.125,409.875 272.75,396.25 265.75,382.75 261.0,370.125 259.25,359.125 261.0,351.0 266.75,346.625 276.375,346.625 289.375,351.0 305.0,359.375 322.25,371.25"/>
    <polyline points="340.0,385.5 357.375,401.0 373.875,416.875 388.875,432.375 413.875,460.125 432.625,482.5 451.625,506.0 460.125,516.0 466.375,522.75 471.375,527.125 475.375,529.625 477.25,530.375 478.875,530.875 482.125,531.25 486.75,530.75"/>
    <polyline points="488.25,530.375 492.875,529.125 502.0,525.875 512.875,522.5 527.125,519.0"/>
    <line x1="528.75" x2="575.625" y1="518.625" y2="509.375"/>
    <polyline points="578.0,508.875 591.0,506.0 603.25,502.875 617.75,498.5 630.75,494.0 646.75,487.5 659.75,481.5 675.375,473.375 694.75,462.25"/>
    <polyline points="706.125,455.0 719.0,446.5 733.625,436.25 750.0,424.125 768.5,409.625 788.875,392.625 810.75,373.0 833.25,351.25 854.25,328.5 871.0,307.125 879.5,290.625 876.125,283.375 858.875,288.75 829.0,308.0 791.0,338.75 750.5,376.625 712.5,416.875 679.75,456.0 653.625,491.5 634.0,522.75 620.25,549.5 611.25,572.125 606.375,590.875 604.75,606.375 605.5,618.875 608.0,628.75"/>
    <polyline points="611.625,636.125 616.0,641.125 620.625,644.0 625.125,644.875 629.0,643.75 632.375,641.0 634.875,636.75 636.375,631.25 637.0,624.75 636.75,617.625 635.75,610.125 634.0,602.375 631.75,594.625 629.0,587.125 625.875,579.75 619.125,566.5 611.875,555.125 604.625,545.625 597.75,537.875 588.25,529.125"/>
    <polyline points="585.25,526.875 577.25,521.5 570.375,517.75 564.375,515.25 556.625,512.5 546.375,509.875"/>
    <polyline points="545.75,509.75 543.5,509.0 542.875,508.25 544.25,507.375 546.375,506.75"/>
    <line x1="546.875" x2="573.0" y1="506.625" y2="499.625"/>
    <polyline points="574.75,499.125 593.875,492.75 605.125,488.375 618.75,482.5 631.0,476.625 645.375,469.0 656.25,462.75"/>
    <polyline points="662.25,459.25 681.875,446.625 696.25,436.5 711.0,425.25 725.125,413.375 736.875,402.5 741.0,397.875 743.625,394.375 744.375,392.25 743.125,391.875 739.625,393.25 734.125,396.625 717.5,408.75 707.125,417.125 684.375,436.625 650.75,467.0"/>
    <polyline points="640.625,476.25 622.375,492.5 606.875,505.5 593.875,515.375 588.125,519.25 577.875,525.5 564.875,531.25 561.125,532.5 554.125,534.25 547.75,535.25 539.125,535.75 526.625,535.25"/>
    <polyline points="524.25,535.0 493.5,531.875 473.625,530.75"/>
    <polyline points="471.5,530.625 443.25,529.0 428.625,527.25 418.5,525.5 410.875,523.75 398.125,519.875"/>
    <polyline points="393.375,518.25 383.0,513.875 371.0,507.875 357.25,499.5 349.375,494.25 341.0,488.0 331.75,480.75 321.875,472.125 311.125,462.125 299.75,450.625 287.625,437.25 275.125,422.125 262.75,405.5 251.0,387.5 241.0,369.125 233.75,351.25 230.5,335.75 232.625,324.25 240.625,318.375 254.5,319.25 273.125,327.0 295.125,340.625 318.375,358.625"/>
    <polyline points="341.5,379.375 362.875,400.875 382.0,422.0 398.5,441.625 412.25,459.375 423.5,475.125 432.625,488.625 445.375,509.875 452.875,524.625 460.125,542.0 461.25,544.0 462.375,544.375 463.75,543.5 467.5,539.75"/>
    <polyline points="468.75,538.5 472.75,534.875 477.375,531.25 487.5,525.25 491.0,523.625 499.625,520.375 509.375,517.625"/>
    <polyline points="511.0,517.25 522.0,514.875 550.625,509.5"/>
    <polyline points="552.5,509.125 572.625,504.375 591.0,499.0 607.75,493.125 620.0,488.125"/>
    <polyline points="624.625,486.125 634.75,481.5 652.75,472.375 675.25,459.25 693.5,447.625 703.625,440.625 714.625,432.75 726.125,424.0 750.75,404.0 763.125,393.0 774.875,381.75 785.25,371.0 793.125,361.375 797.5,354.125 797.5,350.25 792.25,350.75 782.0,356.25 767.125,366.5 748.75,381.125"/>
    <polyline points="728.5,398.75 707.75,418.125 687.625,438.0 669.0,457.375 637.5,492.0 585.125,553.375 576.375,562.75 569.75,568.625 564.5,572.0 562.25,573.0 560.125,573.625 556.25,574.0 552.75,573.625 549.375,572.75"/>
    <polyline points="547.625,572.25 533.0,566.5 523.375,563.75 515.625,562.75 508.375,563.0"/>
    <polyline points="507.0,563.25 503.0,564.25 500.625,565.25 496.5,568.25 494.875,570.25 493.625,572.75 492.75,577.25 493.0,581.125 495.0,588.125 497.75,593.75 502.0,600.375"/>
    <polyline points="504.75,604.0 511.5,612.0 515.75,616.375 525.75,625.5 531.625,630.25 538.125,635.0 545.125,639.625 552.5,644.0 560.25,648.0 568.25,651.5 576.5,654.25 584.5,656.25 592.25,657.125 599.625,657.0 606.25,655.625 612.0,653.0 617.0,649.125 620.875,644.25 623.625,638.375 625.375,631.75 626.25,624.625 626.125,617.0 625.375,609.375 623.75,601.625"/>
    <polyline points="621.75,594.0 619.25,586.625 616.5,579.75 610.125,567.0 603.5,556.125 596.75,547.125 587.125,536.75 578.5,529.25 570.75,524.0 566.125,521.375 560.0,518.5 554.625,516.5"/>
    <polyline points="553.125,515.875 546.375,513.875 533.625,510.875"/>
    <polyline points="533.375,510.75 532.75,510.375 532.75,510.0 534.5,509.25 553.625,505.0"/>
    <line x1="537.25" x2="557.375" y1="508.625" y2="504.125"/>
    <polyline points="558.625,503.875 568.75,501.25 586.375,495.875 596.5,492.25 612.125,485.875"/>
    <polyline points="615.75,484.375 632.375,476.5 653.0,465.375 671.75,454.0 693.375,439.375 709.0,427.75 716.875,421.5 724.5,415.125 738.125,402.875 743.5,397.375 747.375,392.875 749.375,389.5 749.375,387.875 746.875,388.25"/>
    <polyline points="742.125,390.625 735.125,395.25 726.0,401.875 703.75,420.0 667.125,452.75 625.0,491.625 601.375,511.875 588.875,521.25 583.25,524.875 573.5,530.5 565.0,534.25 561.125,535.625 550.875,538.0"/>
    <polyline points="547.75,538.5 539.0,539.0 531.25,538.75 498.5,535.5 490.5,535.0"/>
    <polyline points="488.5,534.875 472.0,534.25 448.875,534.25 429.375,533.75"/>
    <polyline points="426.25,533.625 416.25,532.875 400.875,530.625 387.0,527.375 376.375,523.875 364.0,518.625 357.0,515.125 349.25,510.875 340.875,505.75 331.5,499.5 321.125,491.875 309.625,482.5 296.75,471.0 282.5,457.25 266.875,440.625 249.875,420.75 232.25,397.75"/>
    <polyline points="214.75,371.875 199.125,344.125 187.625,316.625 183.0,292.625 187.875,276.0 203.375,270.25 228.625,277.125 260.5,295.625 295.0,322.75 328.5,354.5 358.125,387.375 382.875,418.75 402.375,447.125 416.75,471.875 426.875,493.125 433.375,511.0 436.875,525.875 438.125,538.125 437.625,547.875 435.875,555.625 433.375,561.5 430.375,565.75 427.25,568.375 424.375,569.75 421.75,570.0 419.625,569.125"/>
    <polyline points="418.125,567.375 417.125,564.875 416.75,561.875 417.625,554.625 420.375,546.875 422.25,543.0 426.625,535.75 429.125,532.375 434.125,526.375 439.25,521.5 441.75,519.375 446.75,515.875 451.375,513.25 455.625,511.25 461.375,509.25 463.25,508.875"/>
    <polyline points="464.875,508.5 472.125,507.625 476.625,507.625 481.625,508.25 486.125,509.375"/>
    <polyline points="486.375,509.5 487.125,510.125 486.75,510.875 483.0,511.625"/>
    <polyline points="482.5,511.75 473.125,512.0 461.625,511.25"/>
    <polyline points="460.375,511.125 450.375,509.75 435.75,506.375 424.375,502.625 410.875,496.75"/>
    <polyline points="407.875,495.25 394.875,487.875 387.75,483.125 376.375,474.5 364.625,464.0 353.375,451.875 346.875,443.375 341.75,435.0 340.0,431.25 339.0,427.875 338.625,424.875 339.0,422.5 340.25,420.75 342.25,419.875"/>
    <polyline points="345.125,419.75 348.875,420.375 353.25,421.875 358.25,424.25 363.75,427.125 375.75,434.75 394.875,448.625 438.125,482.25 453.75,493.0 466.125,500.125"/>
    <polyline points="468.875,501.375 473.75,503.625 480.25,506.125 487.625,508.25 497.875,510.125 507.875,510.875"/>
    <polyline points="508.75,510.875 516.5,510.875 528.625,509.875"/>
    <polyline points="529.375,509.75 540.625,508.125 554.125,505.375"/>
    <polyline points="555.5,505.125 566.0,502.5 581.625,498.0 597.0,492.75 609.75,487.625"/>
    <polyline points="613.375,486.125 625.375,480.75 639.625,473.625 656.625,464.25 676.75,451.75 700.25,435.625 717.125,422.75 725.5,415.875 733.625,408.875 741.0,402.0 747.5,395.625 752.5,390.0 755.75,385.75 756.625,383.0 755.0,382.5"/>
    <polyline points="750.625,384.25 743.625,388.625 734.25,395.25 723.0,404.0 710.375,414.5 697.125,426.125 670.5,450.375 616.375,501.5 600.75,515.125 594.0,520.625 588.0,525.25 582.375,529.125 572.5,535.0 568.25,537.125 560.375,540.25 556.75,541.375 550.125,542.75"/>
    <polyline points="547.0,543.125 538.5,543.5 528.375,543.0 504.125,540.375 489.875,539.625"/>
    <polyline points="487.875,539.5 475.5,539.625 467.0,540.125 456.0,541.25 444.25,543.125 436.875,544.625 431.875,546.0"/>
    <polyline points="429.375,546.75 424.375,548.375 419.375,550.5 414.625,553.25 410.125,556.5 406.25,561.0 404.625,563.75 403.5,566.875 402.625,570.625 402.375,575.0 402.875,580.25 404.375,586.5 407.0,594.0 411.25,603.125 417.5,614.125 426.375,627.5 438.75,643.75 455.5,663.5 477.625,686.875 506.25,714.125 542.375,744.625"/>
    <polyline points="586.125,776.5 636.0,806.125 688.375,827.75 737.375,835.625 776.75,825.25 802.375,796.875 814.125,754.875 815.0,705.875 809.5,656.125 801.25,609.5 786.25,532.5 781.125,502.5 777.625,477.5 773.0,440.375 770.75,427.5 767.75,418.125 763.375,412.125 757.375,409.375 749.625,409.625 740.25,412.625 729.375,418.125 717.5,425.625 705.0,434.375 692.25,444.125"/>
    <polyline points="679.625,454.375 626.375,499.625 610.5,512.375 603.5,517.5 591.375,525.625 586.0,528.75 576.375,533.5 568.0,536.5 564.25,537.5 557.125,538.875 550.75,539.5 542.0,539.5 536.75,539.125"/>
    <polyline points="534.125,538.875 501.25,534.875 491.375,534.0 481.25,533.5"/>
    <polyline points="479.25,533.375 439.5,532.375 424.25,531.25 413.875,529.875"/>
    <polyline points="410.0,529.25 401.875,527.5 392.875,525.125 382.625,521.625 377.0,519.375 364.375,513.5 357.25,509.625 349.5,505.0 341.0,499.375 331.625,492.625 321.25,484.5 309.875,474.625 297.25,463.0 283.625,449.0 268.875,432.625 253.375,413.625 237.75,392.125 223.0,368.75 210.625,344.5 202.75,321.75 201.25,303.0 208.0,291.125"/>
    <polyline points="223.375,288.75 246.25,296.5 274.375,313.375 304.375,337.0 333.625,364.375 360.125,392.625 382.625,419.875 401.125,444.875 415.5,466.875 426.25,485.875 434.0,502.125 439.25,515.625 442.5,526.75 444.125,535.875 444.625,543.25 444.125,549.0 443.25,553.25 441.875,556.375 440.5,558.5 439.125,559.625 437.875,559.875 436.875,559.5 436.25,558.5 435.875,557.0 436.125,552.875"/>
    <polyline points="436.875,550.5 439.0,545.25 444.0,537.375 448.0,532.625 452.25,528.375 456.625,524.75 461.0,521.75 469.375,517.25 475.125,515.0 483.625,512.875"/>
    <polyline points="485.125,512.5 493.25,511.5 510.125,511.0"/>
    <polyline points="510.75,511.0 517.875,510.875 525.0,510.25"/>
    <polyline points="525.5,510.25 532.25,509.375 543.5,507.375"/>
    <polyline points="544.375,507.25 550.75,506.0 565.875,502.375 581.0,498.0"/>
    <polyline points="583.25,497.25 595.875,492.875 615.5,485.0 637.125,474.625 653.5,465.625 666.0,458.25 680.0,449.25 695.375,438.75"/>
    <polyline points="703.375,432.75 719.875,420.0 728.0,413.25 742.375,400.125 748.0,394.25 752.0,389.375 754.0,386.0 753.75,384.375 750.875,384.875 745.5,387.75 737.625,393.0 727.625,400.375 716.125,409.625 690.625,431.75 665.0,455.25 622.0,495.5 613.5,503.25 598.625,515.875"/>
    <polyline points="592.125,521.0 580.875,528.75 571.25,534.25 563.0,537.75 555.75,540.0 549.25,541.25 537.625,541.875 527.5,541.375 511.75,539.625"/>
    <polyline points="509.625,539.375 497.25,538.25 487.125,537.75 472.625,537.75 457.125,538.5"/>
    <polyline points="454.75,538.75 437.25,540.25 417.375,542.75 398.0,545.875 380.375,549.75"/>
    <polyline points="376.75,550.75 369.5,553.125 365.875,554.625 358.875,558.25 355.75,560.5 352.75,563.25 350.25,566.625 348.25,570.75 347.125,576.0 347.0,582.5 348.625,591.0 352.375,601.875 359.375,616.125 370.875,634.875 388.875,659.875 416.0,692.625 455.75,735.375 512.125,788.875 588.5,850.75 682.875,911.625 783.625,952.875 869.25,952.875 920.375,903.625 935.375,819.0"/>
    <polyline points="927.875,722.5 913.375,631.375 901.5,552.625 895.75,487.0 895.5,432.75 897.875,388.875 898.75,355.25 893.875,333.375 879.75,325.0 855.375,331.0 823.0,350.125 786.25,379.0 749.75,413.25 716.75,448.875 689.25,482.875 667.5,513.625 651.375,540.5 640.25,563.25 633.125,582.125 629.125,597.375 627.625,609.375 627.75,618.5 629.0,624.875 630.75,628.75 632.75,630.5 634.625,630.25"/>
    <polyline points="636.125,628.25 637.0,624.875 637.125,620.25 636.75,614.75 634.0,602.125 629.125,588.75 626.125,582.125 619.5,569.75 616.0,564.0 608.75,553.875 605.125,549.5 598.0,541.75 591.375,535.5 585.125,530.5 579.25,526.5 571.5,522.0"/>
    <polyline points="569.125,520.875 564.75,518.875 555.5,515.5 546.125,513.0 537.75,511.25"/>
    <polyline points="537.25,511.125 534.5,510.125 534.75,509.5 536.375,509.0"/>
    <polyline points="554.75,504.75 568.125,501.375 583.125,496.875 601.0,490.5"/>
    <polyline points="604.0,489.25 621.625,481.625 644.75,469.875 662.0,460.0 682.25,447.0 704.875,430.75 720.375,418.5 734.5,406.125 745.0,395.375"/>
    <polyline points="748.0,391.5 749.0,389.0 747.75,388.375 744.125,389.75 738.25,393.25 730.25,398.75 709.375,415.25 685.25,436.25 620.875,495.125 598.25,514.0 592.0,518.625 581.0,526.0 571.5,531.0 563.25,534.5"/>
    <polyline points="559.625,535.625 556.0,536.625 546.375,538.125 535.25,538.5 525.375,537.875 497.75,535.0"/>
    <polyline points="495.75,534.875 483.625,534.125 471.25,533.75 439.875,533.25"/>
    <polyline points="437.125,533.25 418.25,531.875 407.0,530.25 398.75,528.625 389.375,526.125 378.875,522.625 366.75,517.5 359.875,514.125 352.375,510.0 344.25,505.0 335.25,498.875 325.25,491.5 314.25,482.625 302.0,471.875 288.375,458.875"/>
    <polyline points="273.625,443.375 257.625,425.0 241.0,403.625 224.375,379.75 209.25,353.875 197.625,328.0 191.75,304.75 194.125,287.375 206.0,279.25 227.125,282.25 255.375,296.375 287.25,319.25 319.375,347.75 348.875,378.375 374.375,408.375 395.125,436.25 411.25,461.0 423.125,482.375 431.5,500.625 436.875,515.875 439.875,528.5 441.0,538.75 440.75,547.0 439.5,553.375 437.625,558.25 435.5,561.75"/>
    <polyline points="433.25,563.875 431.125,565.0 429.25,565.125 427.75,564.375 426.625,562.875 426.125,560.75 425.875,558.25 427.0,552.375 428.125,549.125 431.125,542.625 435.125,536.375 437.375,533.5 439.625,530.75 444.375,526.0 451.5,520.25 458.25,516.125 462.5,514.125"/>
    <polyline points="464.5,513.375 470.125,511.625 477.875,510.125 485.25,509.625 494.125,510.125"/>
    <polyline points="494.625,510.25 498.25,510.75 501.125,511.75 500.25,512.375 497.75,512.75"/>
    <line x1="497.5" x2="486.0" y1="512.75" y2="513.375"/>
    <polyline points="485.375,513.375 473.875,513.25 460.875,512.25"/>
    <polyline points="459.5,512.0 451.875,511.0 444.875,509.625 432.5,506.375 420.0,502.0 405.125,495.0"/>
    <polyline points="401.875,493.25 394.875,489.125 387.5,484.25 375.5,475.375 371.375,471.875 363.0,464.375 354.75,455.875 343.625,442.125 338.0,433.0 336.0,428.875 334.75,425.0 334.25,421.75 334.625,419.0 335.875,417.125 338.125,416.125 341.25,415.875 345.25,416.75"/>
    <polyline points="350.0,418.375 361.5,424.25 374.625,432.75 381.375,437.625 401.625,453.125 435.625,480.25 448.75,489.75 459.625,496.75 465.875,500.25 474.0,504.0"/>
    <polyline points="476.375,505.0 483.0,507.375 492.125,509.625 502.375,510.875 513.75,511.125"/>
    <polyline points="514.75,511.125 526.875,510.25 538.375,508.625"/>
    <polyline points="539.5,508.5 559.625,504.375 575.625,500.0"/>
    <polyline points="577.75,499.375 587.125,496.5 598.125,492.625 611.375,487.375 623.25,482.125 637.25,475.25 648.0,469.5 666.875,458.5 681.375,449.25"/>
    <polyline points="689.25,443.875 697.5,438.125 714.625,425.25 732.0,411.0 740.125,403.75 747.375,396.875 753.375,390.5 757.625,385.375 759.625,381.625 759.125,380.0 755.75,380.875 749.5,384.25 740.625,390.25 729.625,398.625 717.0,408.875 689.5,433.125 675.75,445.875 610.25,508.125"/>
    <polyline points="602.5,515.0 589.25,525.875 578.25,533.5 569.0,538.75 564.875,540.625 557.5,543.25 547.75,545.125 542.0,545.5 531.5,545.25 515.5,543.5"/>
    <polyline points="513.25,543.25 496.75,541.875 484.75,541.75 472.5,542.5 462.0,543.875"/>
    <polyline points="459.875,544.375 453.375,545.75 449.125,547.0 444.75,548.5 438.375,551.375 434.375,553.875 430.75,556.875 429.0,558.75 426.25,563.25 425.125,566.0 424.5,569.125 424.125,572.625 424.25,576.75 425.125,581.625 426.625,587.25 429.25,593.875 433.0,601.625"/>
    <polyline points="438.375,610.75 445.625,621.5 455.25,634.125 467.75,648.875 483.75,666.0 503.75,685.375 528.5,706.75 558.0,729.375 591.875,751.75 628.875,771.25 666.625,784.75 701.875,789.25 731.25,782.625 752.375,764.5 764.625,737.125 769.0,703.625 767.625,667.625 762.75,632.125 756.25,599.0 749.5,569.25 723.75,463.625"/>
    <polyline points="721.25,455.25 718.625,448.75 715.75,444.0 712.5,440.875 708.75,439.125 704.5,438.625 699.625,439.25 694.25,441.0 688.5,443.5 682.375,446.625 675.875,450.5 662.625,459.0 619.375,488.375 609.125,494.625 599.875,499.75 591.625,503.75"/>
    <polyline points="587.875,505.5 580.75,508.25 571.625,511.125 563.625,512.875 554.875,514.0 547.625,514.5 535.625,514.25"/>
    <polyline points="534.625,514.125 526.5,513.5 520.0,512.625"/>
    <polyline points="519.75,512.625 517.25,512.25 516.5,511.875 522.625,510.75"/>
    <line x1="523.0" x2="533.375" y1="510.75" y2="509.125"/>
    <polyline points="533.875,509.125 544.25,507.25 556.0,504.625"/>
    <polyline points="557.25,504.375 565.875,502.25 585.25,496.5 598.25,491.875 611.0,486.75"/>
    <polyline points="614.625,485.125 626.75,479.625 651.875,466.375 664.125,459.125 677.75,450.5 685.125,445.625 700.625,434.625 708.75,428.5 724.75,415.5 732.375,409.0 739.25,402.625 749.5,391.75 752.0,388.0 752.375,385.875 750.375,385.75"/>
    <polyline points="745.75,388.0 738.75,392.375 729.625,399.0 718.75,407.5 706.75,417.5 694.125,428.5 668.75,451.5 616.625,500.0 608.5,507.0 594.625,518.25 588.625,522.75 583.0,526.5 573.25,532.25 564.75,536.125 560.875,537.5 553.75,539.375 550.5,539.875"/>
  </g>
</svg>
