<?xml version="1.0" encoding="utf-8" ?>
<svg xmlns="http://www.w3.org/2000/svg" xmlns:cc="http://creativecommons.org/ns" xmlns:dc="http://purl.org/dc/elements/1.1/" xmlns:ev="http://www.w3.org/2001/xml-events" xmlns:inkscape="http://www.inkscape.org/namespaces/inkscape" xmlns:rdf="http://www.w3.org/1999/02/22-rdf-syntax-ns" xmlns:sodipodi="http://sodipodi.sourceforge.net/DTD/sodipodi-0.dtd" xmlns:xlink="http://www.w3.org/1999/xlink" baseProfile="tiny" height="27.09333333cm" version="1.2" viewBox="0 0 1024.0 1024.0" width="27.09333333cm">
  <metadata>
    <rdf:RDF>
      <cc:Work>
        <dc:format>image/svg+xml</dc:format>
        <dc:source>vpype read './original_svgs/Strange Attractors #529.svg' linemerge linesimplify write './Strange Attractors #529.svg'
</dc:source>
        <dc:date>2024-08-05T01:36:07.744443</dc:date>
      </cc:Work>
    </rdf:RDF>
  </metadata>
  <defs/>
  <g fill="none" id="layer1" inkscape:groupmode="layer" inkscape:label="1" stroke="black" stroke-width="0.7mm" style="display:inline">
    <polyline points="653.5,762.375 623.125,723.875 598.625,688.0 580.0,656.0 566.5,628.5 557.5,605.125 552.25,585.375 550.125,569.0 550.875,555.125 553.75,543.375 558.5,533.5 564.75,525.0 572.125,517.75 580.25,511.75 588.875,506.75 597.5,502.75 605.625,500.0 613.25,498.125 619.75,497.375 625.25,497.625 629.375,498.75 632.125,500.625 633.75,503.125 634.125,506.0 633.5,509.25 632.125,512.625"/>
    <polyline points="630.0,515.875 627.375,519.125 624.375,522.0 617.625,527.25 610.5,531.125 607.0,532.625 600.25,534.625 597.0,535.25 590.875,535.875 582.75,535.5 573.75,533.375 568.375,531.125 564.0,528.625"/>
    <polyline points="562.625,527.75 557.625,523.375 555.125,520.0 553.75,517.5 552.875,513.375 552.875,511.0 553.875,506.875"/>
    <polyline points="554.25,506.125 557.0,500.875 567.75,485.75 572.25,478.125"/>
    <polyline points="573.125,476.375 575.75,470.625 577.125,466.125 578.375,461.0 579.125,455.25 579.25,452.0 579.0,444.875 578.5,440.875 576.5,431.875 575.0,426.75 570.5,415.25 567.375,408.875 563.625,402.0 559.0,394.5 553.625,386.625 547.25,378.25 539.75,369.375 531.25,360.375"/>
    <polyline points="521.625,351.25 510.875,342.25 499.125,333.75 486.5,326.125 473.375,319.75 459.875,315.25 446.625,313.0 433.875,313.25 422.375,316.375 412.125,322.125 403.75,330.5 397.25,341.0 392.625,353.25 389.75,366.625 388.375,380.5 388.375,394.375 389.5,407.875 391.375,420.875 393.75,432.875 396.625,443.875 399.75,453.875 403.0,462.875 406.25,470.75 409.5,477.875 415.75,489.375"/>
    <polyline points="418.75,494.0 424.25,501.625 431.625,509.625 433.875,511.625 439.625,516.125 452.25,523.625 455.875,526.375"/>
    <polyline points="456.25,526.75 457.0,528.5 457.0,529.75 456.25,531.5 453.625,534.5 447.5,538.75"/>
    <polyline points="446.625,539.375 435.375,545.375 428.5,548.5 424.75,549.75 426.625,548.25"/>
    <polyline points="428.375,547.25 445.0,538.5 462.625,529.75 508.625,508.5 555.375,489.0 583.0,478.625 612.125,469.0 640.875,461.0 667.375,456.0 689.5,454.875 706.0,457.75 716.5,464.5 721.5,474.25 722.125,485.875 719.625,498.5 715.0,511.125 709.5,523.125 703.625,534.25 697.875,544.25"/>
    <polyline points="692.375,553.0 687.25,560.625 682.5,567.0 678.25,572.5 674.375,576.875 670.75,580.625 667.375,583.5 661.25,587.5 658.5,588.625 655.75,589.375 650.5,589.625 645.375,588.625 640.5,586.75 635.875,584.125 631.375,581.125 627.125,577.75 621.375,572.375"/>
    <polyline points="619.625,570.625 613.375,563.625 609.5,558.625 607.375,555.5 605.0,551.125 603.75,548.375 602.625,544.625 602.375,542.375 602.625,539.25 603.625,536.375"/>
    <polyline points="604.125,535.5 605.375,533.875 608.0,531.75 612.875,529.625 619.5,528.375 625.625,528.25 630.375,528.75 638.625,530.5 644.875,532.625 652.0,535.75"/>
    <polyline points="655.875,537.75 660.0,540.0 669.0,546.0 679.0,554.0 684.375,558.875 690.125,564.5 696.0,570.875 702.125,578.125 708.375,586.25 714.75,595.25 721.0,605.125 727.125,616.0 732.75,627.5 737.75,639.5 741.75,651.75 744.375,663.75 745.375,675.0 744.375,684.875 741.125,692.75 735.625,698.125 728.0,700.625 718.375,700.0 707.375,696.5 695.25,690.125"/>
    <polyline points="682.5,681.75 669.75,671.5 657.375,660.375 645.5,648.625 634.5,636.875 624.25,625.5 615.0,614.625 571.5,560.625 563.75,551.875 557.125,545.125 551.5,540.0 544.25,534.625 538.0,531.25"/>
    <polyline points="536.125,530.375 527.625,527.75 520.375,526.75 512.75,526.625 503.375,527.5"/>
    <polyline points="502.5,527.625 497.125,528.375 495.875,528.25 498.375,526.75 507.75,523.0"/>
    <polyline points="539.5,525.5 522.875,522.875 517.625,522.25 510.25,522.0 527.5,516.0 546.375,510.25 567.0,505.625 576.5,504.5 580.75,504.25 587.75,504.625 590.5,505.25 592.625,506.125 594.25,507.125 595.25,508.375 595.75,509.75 595.25,512.875"/>
    <polyline points="594.375,514.375 593.125,515.875 589.75,518.875 585.625,521.375 581.0,523.375 573.625,525.625 568.625,526.5 561.5,527.125 550.5,526.875 541.125,525.75"/>
    <polyline points="509.5,522.0 503.875,522.5 499.25,523.375 490.0,526.25"/>
    <line x1="489.125" x2="467.875" y1="526.5" y2="535.125"/>
    <polyline points="467.25,535.375 465.25,536.125 480.625,528.875 511.125,516.125 530.25,508.75 553.25,500.625"/>
    <polyline points="565.875,496.75 578.625,493.125 591.375,490.0 603.625,487.625 614.875,486.125 624.875,485.875 633.0,486.625 639.375,488.5 643.875,491.375 646.5,495.125 647.625,499.375 647.25,504.0 645.75,508.625 643.375,513.375 636.875,521.875 633.125,525.625 629.25,528.875 625.375,531.75 621.5,534.125 614.0,537.625 610.5,538.75 607.125,539.625 601.0,540.375"/>
    <polyline points="598.125,540.5 593.0,540.0 586.5,538.25 582.875,536.625 578.5,533.75 575.125,530.75 572.125,526.625 570.5,522.5 570.125,518.375"/>
    <polyline points="570.25,517.375 570.875,514.375 571.625,512.375 572.625,510.375 576.125,505.125 582.0,498.375 591.0,489.0"/>
    <polyline points="592.5,487.5 596.875,482.5 601.375,476.625 605.75,469.5 608.375,463.875 609.5,460.75 611.375,453.5 612.25,444.75 612.25,439.625 611.75,434.0 610.75,427.75 609.125,420.625 606.625,412.625 603.125,403.625 598.5,393.375 592.5,382.0 584.625,369.125"/>
    <polyline points="574.75,354.75 562.5,338.875 547.5,321.75 529.5,303.625 508.5,285.375 484.625,268.0 458.5,253.125 431.25,242.5 404.5,237.875 379.875,240.75 358.875,251.5 342.875,269.375 332.0,293.125 326.0,320.25 324.0,348.625 325.0,376.625 327.875,402.875 332.0,426.5 336.625,447.25 341.5,465.0 346.25,480.125 350.75,492.625 355.125,503.0 359.25,511.375 363.125,518.0 366.875,523.375"/>
    <polyline points="370.5,527.375 374.125,530.5 377.5,532.75 380.875,534.375 384.25,535.375 387.625,535.875 394.25,535.875 397.5,535.5 407.0,533.5 433.625,525.625 441.625,524.0"/>
    <polyline points="443.375,523.625 451.875,523.0 457.625,523.75 460.75,525.375 461.5,526.375 461.75,527.875"/>
    <polyline points="461.625,528.375 460.625,530.5 457.25,533.75 451.875,537.5 445.875,540.75"/>
    <polyline points="444.875,541.375 435.25,546.0 432.375,547.125 432.0,547.0 444.875,539.875 465.375,529.875"/>
    <polyline points="475.875,524.875 504.125,512.125 543.25,495.75 566.625,486.875 591.75,478.0 617.5,470.25 642.25,464.375 664.375,461.25 682.5,461.25 695.75,464.75 704.125,471.125 708.0,479.875 708.125,490.125 705.75,500.875 701.625,511.75 696.625,522.0 691.125,531.5 685.625,540.0 680.375,547.5 675.375,553.875 670.625,559.25 662.375,567.5 658.75,570.375"/>
    <polyline points="655.375,572.75 652.375,574.5 649.5,575.625 644.25,577.0 641.875,577.125 637.5,576.625 633.5,575.25 628.25,572.375 622.5,567.625 618.0,562.5 614.25,556.5"/>
    <polyline points="613.75,555.25 612.75,552.125 612.375,549.125 612.625,547.375 613.625,545.125 615.375,543.25 617.0,542.25 621.375,541.0 624.25,540.75 629.25,541.125"/>
    <polyline points="631.125,541.5 639.875,544.0 645.0,546.25 653.75,551.25 660.25,555.875 667.375,561.625 679.0,573.25 687.125,583.0 691.25,588.5 699.0,600.75 706.0,614.375 708.875,621.375 711.125,628.5"/>
    <polyline points="712.75,635.375 713.5,641.75 713.25,647.625 712.125,652.75 709.75,656.625 706.375,659.5 701.875,660.875 696.375,660.875 690.125,659.375 683.125,656.625 675.625,652.625 667.875,647.625 660.0,641.75 644.25,628.5 629.5,614.375 622.625,607.375 581.0,563.125"/>
    <polyline points="577.125,559.25 570.25,552.5 561.375,544.5 549.375,535.375 541.75,530.5 536.75,527.875 532.5,525.875 526.25,523.5"/>
    <polyline points="525.125,523.125 520.125,521.75 514.25,520.75 509.25,520.5 505.375,520.875"/>
    <polyline points="504.75,521.0 501.0,521.625 496.625,522.875 488.375,526.0"/>
    <line x1="487.625" x2="466.625" y1="526.375" y2="535.375"/>
    <polyline points="465.875,535.75 463.0,536.75 478.25,529.5 501.25,519.625 529.5,508.5 541.125,504.25"/>
    <polyline points="553.625,500.0 566.75,495.75 580.375,491.875 593.75,488.625 606.625,486.125 618.5,484.625 628.75,484.375 637.25,485.375 643.75,487.5 648.25,490.625 650.75,494.625 651.5,499.25 650.875,504.25 649.125,509.25 646.5,514.25 643.25,518.875 639.625,523.25 635.75,527.0 631.75,530.5 627.75,533.375 619.875,537.75 616.25,539.25 609.375,541.25 606.25,541.75"/>
    <polyline points="603.25,542.0 597.875,541.75 593.125,540.875 587.375,538.75 582.75,535.875 579.25,532.875 577.5,530.75 575.625,527.5 574.375,523.25 574.25,520.125"/>
    <polyline points="574.375,519.125 576.0,514.0 578.5,509.875 581.0,506.75 586.375,501.25 597.875,491.125"/>
    <polyline points="599.5,489.625 606.375,483.25 613.75,475.375 617.375,470.625 620.875,465.125 623.875,458.625 625.25,454.875 627.125,446.125 627.625,441.0 627.625,435.25 627.125,428.75 625.875,421.25 623.625,412.75 620.375,402.875 615.75,391.625 609.375,378.625"/>
    <polyline points="600.875,363.625 589.625,346.625 575.25,327.25 557.125,305.75 534.75,282.625 507.875,258.875 476.875,236.125 442.75,217.0 407.25,204.625 373.25,201.875 343.5,210.5 320.25,230.625 304.75,259.75 296.375,294.875 293.75,332.0 295.25,368.25 299.25,401.75 304.375,431.125 309.875,456.375 315.25,477.375 320.5,494.625 325.25,508.5 329.875,519.375 334.25,527.75 338.5,534.125 342.75,538.75"/>
    <polyline points="347.125,541.75 351.5,543.5 356.25,544.375 361.0,544.25 366.125,543.5 371.25,542.125 381.875,538.25 392.625,533.5 422.375,519.25 430.875,515.5 442.0,511.25 448.5,509.25 456.875,507.25"/>
    <polyline points="459.375,506.875 466.0,506.125 471.5,506.125 477.625,506.625 485.375,508.5 491.125,510.875"/>
    <polyline points="491.625,511.25 493.0,512.0 495.25,514.125 496.0,515.875 495.625,517.5"/>
    <polyline points="495.5,517.75 494.75,518.875 492.875,520.625 487.25,524.25"/>
    <polyline points="486.75,524.625 475.625,530.5 467.75,534.25"/>
    <polyline points="466.875,534.625 458.75,538.125 465.25,534.75 485.5,525.625"/>
    <polyline points="492.375,522.625 520.0,511.25 544.875,502.0 558.875,497.125 573.625,492.5 588.5,488.25 603.125,484.875 617.0,482.5 629.25,481.375 639.75,481.75 647.875,483.5 653.75,486.625 657.375,490.75 659.0,495.75 658.75,501.25 657.25,506.875 654.625,512.5 651.25,517.875 647.5,522.875 643.375,527.375 639.125,531.25 635.0,534.625 630.875,537.5"/>
    <polyline points="626.875,539.875 619.375,543.125 612.75,544.75 606.875,545.25 604.25,545.125 599.625,544.375 593.75,542.125 592.125,541.25 588.125,538.25 586.125,536.125 583.75,532.75 582.25,528.375"/>
    <polyline points="582.0,527.25 582.0,524.125 583.125,520.0 585.5,516.0 587.125,514.0 592.5,509.0 603.125,502.0"/>
    <polyline points="604.875,501.0 613.0,496.875 625.125,491.625 639.875,486.5 650.375,483.75 662.25,481.625 671.25,480.875 681.5,481.0 687.125,481.625"/>
    <polyline points="693.125,482.625 699.75,484.25 707.0,486.625 714.875,490.0 723.75,494.625 733.625,500.875 744.875,509.125 757.75,520.25 772.5,534.875 789.375,554.125 808.875,579.375 830.75,611.875 854.375,652.875 878.375,703.25 899.25,761.375 911.625,822.25 908.625,876.25 885.25,910.875 842.375,916.75 787.375,893.0 730.75,848.125 680.875,793.5 642.125,738.5 615.375,688.375 599.625,644.875 593.375,608.375"/>
    <polyline points="594.875,578.0 602.75,552.75 615.125,532.0 630.625,515.25 647.5,502.375 664.0,493.375 678.625,488.25 690.375,487.0 698.5,488.875 703.125,493.625 704.5,500.25 703.25,508.25 700.125,516.625 695.75,525.125 690.625,533.125 685.25,540.5 679.75,547.125 674.25,552.875 664.125,561.75 655.0,567.375 650.75,569.25 646.875,570.625 639.75,571.75"/>
    <polyline points="636.5,571.75 630.625,571.0 625.375,569.25 618.5,565.625 612.875,561.375 606.875,555.375 603.625,551.125 600.625,545.75 599.25,540.875"/>
    <polyline points="599.125,539.75 599.25,536.5 599.75,534.5 602.0,531.0 605.5,528.0 609.25,526.125 615.625,524.375 617.5,524.0 626.25,523.625"/>
    <polyline points="628.75,523.875 637.25,525.125 647.375,528.125 659.5,533.625 668.875,539.25 679.5,547.125 685.25,552.0 697.875,564.25 704.625,571.75 711.75,580.375 719.0,590.125 726.375,601.125 733.625,613.25 740.625,626.375 747.0,640.5 752.375,655.125 756.25,669.75"/>
    <polyline points="758.125,683.75 757.625,696.25 754.375,706.375 748.25,713.5 739.375,716.875 728.0,716.25 714.75,711.75 700.25,703.875 685.25,693.25 670.375,680.75 656.0,667.125 642.75,653.0 630.625,639.25 619.625,626.0 609.875,613.625 601.25,602.25 567.5,556.125 560.75,547.5 555.125,541.125"/>
    <polyline points="552.625,538.5 548.375,534.5 544.5,531.625 538.0,528.125 532.375,526.375 528.625,525.75 523.0,525.375 518.125,525.5"/>
    <polyline points="517.25,525.5 512.25,525.75 509.625,525.5 510.5,524.625 514.125,523.0"/>
    <polyline points="515.25,522.625 525.25,519.125 534.875,516.25 552.0,512.25 562.75,510.875 568.875,511.0 571.75,511.625"/>
    <polyline points="572.75,512.125 573.5,512.625 574.25,514.0 573.875,515.5 573.375,516.25 570.625,518.5 566.625,520.5 563.375,521.75 556.25,523.5 548.875,524.5 543.375,524.875"/>
    <polyline points="541.625,525.0 515.5,525.75 505.625,526.75"/>
    <polyline points="504.5,526.875 497.125,528.125 486.375,530.625 486.0,530.5 486.875,529.875 494.5,526.5 514.625,518.625 525.125,514.875 544.25,508.625 558.5,504.625 573.0,501.25 586.5,499.25"/>
    <polyline points="592.5,498.875 597.875,498.875 602.375,499.5 606.0,500.5 608.75,501.875 610.625,503.5 611.75,505.5 612.0,507.75 611.625,510.0 609.0,514.75 607.125,517.0 602.375,521.0 599.625,522.75 594.0,525.625 588.125,527.75 582.375,529.125 576.75,529.875 569.0,529.875"/>
    <polyline points="566.625,529.75 558.0,528.5 549.25,526.125 542.375,523.5 537.125,521.0 532.375,518.25"/>
    <polyline points="531.75,517.875 527.25,514.375 526.0,512.875 525.125,510.125"/>
    <polyline points="525.125,509.875 526.0,507.25 529.875,502.875"/>
    <polyline points="530.25,502.5 537.875,495.625 543.5,490.0"/>
    <polyline points="544.25,489.25 547.125,486.0 550.75,481.125 553.625,476.375 555.625,472.25 556.875,469.125 558.375,463.75 559.125,459.75 559.5,455.125"/>
    <polyline points="559.5,452.75 558.875,444.375 557.5,438.0 555.25,430.875 551.875,422.75 547.125,413.875 540.75,404.125 536.875,399.0 527.625,388.375 522.25,383.0 516.25,377.75 509.875,372.75 503.125,368.0 495.875,363.75 488.375,360.0 480.75,357.125 473.125,355.125 465.625,354.25"/>
    <polyline points="458.375,354.5 451.625,356.0 445.5,358.75 440.125,362.75 435.5,367.75 431.75,373.625 428.875,380.375 426.75,387.75 425.5,395.5 425.0,403.375 425.125,411.375 425.75,419.25 426.875,426.875 430.125,441.125 432.125,447.5 436.625,459.125 441.25,469.0 448.25,480.625 454.75,489.375"/>
    <polyline points="456.75,491.75 462.375,497.625 465.75,500.625 473.875,507.125 482.875,513.75 484.125,515.125"/>
    <polyline points="484.5,515.5 486.0,517.75 486.25,519.125 485.5,521.5 483.0,524.25"/>
    <polyline points="482.625,524.5 479.625,526.75 475.0,529.625 465.0,534.75"/>
    <polyline points="464.125,535.25 455.0,539.25 479.0,527.75"/>
    <polyline points="485.625,524.875 513.0,513.25 538.5,503.375 553.25,498.0 568.875,492.75 585.125,487.875 601.25,483.75 616.75,480.625 630.75,478.875 642.75,478.75 652.25,480.25 659.25,483.375 663.625,487.75 665.625,493.125 665.75,499.125 664.25,505.375 661.5,511.625 658.0,517.625 654.0,523.25 649.75,528.25 645.375,532.625 636.75,539.625"/>
    <polyline points="632.625,542.25 625.0,546.0 618.25,547.875 612.5,548.5 607.375,548.125 605.125,547.625 601.25,546.375 597.875,544.625 594.0,541.5 591.25,538.25 590.0,536.0 589.125,533.875 588.625,531.625"/>
    <polyline points="588.625,530.625 588.625,528.5 589.875,524.375 591.75,521.5 595.25,517.875 598.875,515.25 603.125,512.875 610.25,509.875 614.375,508.625"/>
    <polyline points="616.625,508.0 626.75,506.125 636.0,505.625 643.0,506.0 650.875,507.0 659.75,509.125 670.0,512.75 681.875,518.625 688.5,522.625 695.75,527.625 703.625,533.75 712.25,541.125 721.625,550.25 731.875,561.25 742.875,574.375 754.625,590.125"/>
    <polyline points="767.0,608.75 779.625,630.5 792.0,655.0 802.875,682.0 811.375,710.375 815.625,738.0 814.25,762.5 806.0,780.75 790.625,790.25 769.125,789.625 743.5,779.25 716.125,761.0 689.25,737.5 664.625,711.5 643.25,685.125 625.25,660.125 610.75,637.125 599.5,616.75 591.0,599.125 584.875,583.875 580.625,570.875 578.125,560.0 576.75,550.75 576.375,543.125 576.875,536.75 577.875,531.625"/>
    <polyline points="579.25,527.25 580.75,523.875 582.375,521.125 584.0,519.125 586.75,516.5 587.75,515.875 588.875,515.625 589.0,515.875 588.25,517.0 586.25,518.5 583.5,520.125 578.0,522.375 571.625,524.25 562.625,525.75"/>
    <polyline points="560.375,525.875 556.0,526.25 545.625,526.25 517.375,524.5"/>
    <polyline points="516.125,524.5 510.25,524.625 502.75,525.375 496.625,526.5 489.875,528.375"/>
    <polyline points="488.875,528.625 473.125,533.875 473.875,533.375"/>
    <polyline points="474.5,533.125 485.125,528.25 497.0,523.25 515.25,516.0 531.375,510.0 550.375,503.625 571.125,497.625 581.625,495.0 591.875,493.0 601.375,491.625 609.875,491.125 617.375,491.25 623.5,492.375 628.125,494.125"/>
    <polyline points="631.25,496.625 633.125,499.625 633.75,503.125 633.25,506.625 631.875,510.375 629.875,514.0 627.25,517.5 624.25,520.75 621.0,523.625 614.0,528.5 607.0,532.0 603.625,533.25 600.25,534.25 594.0,535.375 588.25,535.625 583.0,535.25 578.375,534.375 572.375,532.5"/>
    <polyline points="570.625,531.75 567.5,530.125 563.625,527.5 558.875,523.125 556.5,519.625 555.5,517.125 554.875,514.5 555.125,510.375"/>
    <polyline points="555.25,509.5 556.375,506.125 558.75,501.75 571.625,483.25"/>
    <polyline points="572.625,481.75 575.5,476.625 578.125,470.75 580.375,463.625 581.375,458.125 581.875,448.125 581.625,444.25 580.25,435.625 577.375,425.375 572.625,413.25 565.125,399.125 560.25,391.25 554.375,382.75"/>
    <polyline points="547.375,373.75 539.25,364.375 530.0,354.75 519.5,345.0 507.75,335.5 494.875,326.625 481.25,318.875 467.0,312.625 452.625,308.5 438.625,307.0 425.5,308.5 413.75,313.0 403.75,320.375 395.75,330.5 389.875,342.75 385.875,356.5 383.75,371.125 383.25,386.125 384.0,400.75 385.625,414.75 388.0,428.0 390.875,440.0 394.0,451.0 400.75,469.5 404.125,477.125"/>
    <polyline points="407.5,483.75 410.625,489.625 416.75,499.0 419.5,502.75 424.75,508.75 429.375,513.125 437.25,518.875 451.5,526.625"/>
    <polyline points="452.0,527.0 453.25,528.25 453.875,529.5 453.5,532.0 452.125,533.875 450.0,536.0 446.25,538.625"/>
    <polyline points="445.25,539.25 439.125,542.875 426.5,549.125 420.75,551.5 418.75,551.875"/>
    <polyline points="419.0,551.625 425.625,547.5 434.875,542.5 476.75,521.75 516.375,503.75 541.875,492.875 571.0,481.25 602.5,469.875 634.75,459.875 665.375,452.75 691.75,449.625 712.0,451.375 725.375,457.75 732.25,467.875 733.625,480.625 731.375,494.625 726.75,508.875 720.875,522.625"/>
    <polyline points="714.625,535.375 708.625,546.75 702.875,556.875 693.0,573.25 688.625,579.625 684.75,585.0 677.75,593.0 674.5,595.875 671.25,598.0 668.25,599.5 662.0,600.875 655.75,600.375 652.625,599.5 646.375,597.0 640.25,593.5 631.125,587.0 625.5,582.25"/>
    <polyline points="622.75,579.75 615.125,572.625 608.5,565.625 601.125,557.125 598.125,553.25 594.375,548.0 591.5,543.125 589.5,538.75 588.0,533.625"/>
    <polyline points="587.875,532.375 588.125,527.75 588.75,525.625 591.0,521.625 593.5,518.75 596.75,516.125 600.75,513.5 603.75,511.875 611.125,509.0"/>
    <polyline points="613.125,508.25 617.625,507.0 628.125,505.25 634.125,504.75 644.625,505.125 652.75,506.25 661.875,508.5 672.5,512.5 678.375,515.25 684.75,518.75 699.25,528.375 707.375,535.0 716.375,543.0 726.25,552.75 736.875,564.625"/>
    <polyline points="748.375,578.875 760.625,596.0 773.5,616.0 786.375,639.375 798.75,665.5 809.25,694.0 816.625,723.25 819.0,750.875 815.0,774.125 803.625,789.625 785.125,795.375 760.875,790.375 733.375,776.0 705.25,754.5 678.5,728.75 654.625,701.5 634.375,674.875 617.875,650.0 604.75,627.75 594.875,608.125 587.625,591.25 582.75,576.875 579.625,564.625 578.0,554.375 577.5,545.875 578.0,538.75"/>
    <polyline points="579.125,532.875 580.625,528.125 582.5,524.25 584.5,521.25 588.125,517.125 591.0,515.25 592.5,514.875 592.75,515.25 592.125,516.5 590.25,518.125 585.5,520.875 579.25,523.375 574.75,524.625 567.625,526.0"/>
    <polyline points="565.25,526.25 558.375,526.75 551.875,526.75 540.125,526.0 520.75,524.0"/>
    <polyline points="519.5,524.0 514.75,523.75 507.375,524.0 500.625,524.875 494.125,526.375"/>
    <polyline points="493.25,526.625 484.875,529.25 471.625,534.25"/>
    <polyline points="471.125,534.375 469.875,534.875 473.0,533.125 488.875,526.125 521.0,513.125 539.875,506.375 561.625,499.25"/>
    <polyline points="573.125,496.0 584.5,493.25 595.625,491.0 606.0,489.5 615.25,488.875 623.125,489.25 629.5,490.5 634.25,492.625 637.5,495.625 639.125,499.0 639.5,502.875 638.75,507.0 637.0,511.0 634.625,515.0 631.625,518.875 628.375,522.25 621.25,528.125 613.875,532.5 610.25,534.125 606.75,535.375 600.125,537.0 594.125,537.5"/>
    <polyline points="591.375,537.5 586.25,537.0 579.75,535.25 576.125,533.75 571.5,531.125 568.0,528.375 564.5,524.5 562.375,520.75 561.5,517.0"/>
    <polyline points="561.375,516.0 561.875,511.375 562.75,508.625 564.125,505.75 568.125,499.625 575.5,490.125"/>
    <polyline points="576.625,488.75 583.25,479.125 587.5,470.75 590.125,463.125 590.875,460.125 591.875,453.5 592.0,445.625 591.75,441.25 590.0,431.125 588.5,425.25 586.375,418.875 583.625,411.75 580.0,404.125"/>
    <polyline points="575.5,395.625 570.0,386.25 563.125,376.25 555.0,365.375 545.25,353.75 533.875,341.75 520.875,329.5 506.0,317.375 489.75,306.125 472.25,296.375 454.125,289.125 436.125,285.0 418.75,284.625 403.125,288.625 389.75,297.0 379.125,309.25 371.375,324.5 366.375,342.125 364.0,360.75 363.625,379.625 364.75,398.0 367.125,415.375 370.25,431.25 373.75,445.625 377.625,458.25 381.5,469.375"/>
    <polyline points="385.25,479.0 392.625,494.375 396.125,500.25 399.375,505.375 402.5,509.5 408.375,516.0 413.5,520.375 420.375,524.5 427.875,527.25 439.375,529.75"/>
    <polyline points="440.25,529.875 444.0,531.375 445.25,532.875 445.125,534.5 444.125,536.25 440.875,539.25"/>
    <polyline points="440.125,539.75 434.625,543.375 428.5,546.75 416.25,552.75 405.625,557.375"/>
    <polyline points="403.875,558.125 397.375,560.625 395.0,561.375 393.625,561.375 395.625,559.375 401.625,555.625 425.0,542.625 439.0,535.25 481.25,514.25 511.5,500.0 548.375,483.5 591.25,465.75 637.875,448.625 684.125,435.0 724.625,427.75"/>
    <polyline points="755.125,428.875 773.75,438.375 781.375,454.5 781.125,474.75 776.0,496.75 768.75,518.5 754.125,558.125 733.875,616.125 729.875,626.375 725.625,634.875 721.125,641.875 716.0,647.0 710.375,650.625 704.125,652.375 697.125,652.5 689.75,651.25 682.0,648.5 674.0,644.5 665.875,639.625 657.75,634.0 649.75,627.875 642.125,621.375"/>
    <polyline points="634.625,614.75 620.875,601.625 580.625,560.625 570.125,550.875 561.375,543.375 554.0,537.75 549.625,534.75 542.0,530.25"/>
    <polyline points="540.375,529.25 535.75,526.875 528.0,523.625 520.0,521.25 513.75,520.25"/>
    <polyline points="513.0,520.125 506.125,520.25 497.875,522.125"/>
    <polyline points="497.25,522.375 488.125,525.875 479.375,529.75"/>
    <polyline points="478.5,530.125 462.5,537.0 463.25,536.5"/>
    <polyline points="463.875,536.125 473.125,531.75 498.625,520.625 515.75,513.75 537.5,505.5 563.125,496.75 590.375,489.125 603.625,486.375 616.0,484.625 626.875,484.0 635.875,484.625 643.0,486.5 648.125,489.5 651.125,493.375"/>
    <polyline points="652.375,497.875 652.0,502.875 650.5,507.875 648.0,513.0 644.875,517.75 641.25,522.25 637.375,526.25 633.375,529.875 625.375,535.5 621.5,537.625 614.25,540.5 607.625,542.0 601.75,542.375 596.625,541.875 592.25,540.75 588.375,539.25 583.75,536.5"/>
    <polyline points="582.5,535.5 580.25,533.375 577.75,530.25 576.125,527.0 575.25,523.75 575.25,520.625 576.125,516.5 577.5,513.5 580.25,509.375"/>
    <polyline points="581.125,508.375 586.25,502.875 611.875,480.625 615.75,476.625 619.625,472.0"/>
    <polyline points="621.5,469.5 623.375,466.875 626.875,460.75 629.75,453.25 630.875,449.0 631.75,444.125 632.125,438.75 632.0,432.625 631.375,425.5 629.875,417.5 627.375,408.25 623.5,397.625 618.125,385.25 610.625,370.875 600.625,354.25 587.625,335.25 570.75,313.75 549.625,290.0 523.625,264.625 492.75,239.375 457.625,216.375 419.875,199.125 382.25,191.0 348.125,195.0"/>
    <polyline points="320.25,212.0 300.75,240.25 289.5,276.375 285.125,316.0 285.75,355.5 289.5,392.25 294.75,424.75 300.5,452.5 306.125,475.75 311.5,494.625 316.375,509.75 321.0,521.5 325.5,530.625 329.875,537.375 334.375,542.0 339.125,545.0 344.0,546.625 349.125,547.125 354.5,546.625 360.25,545.25 372.25,540.875 384.625,535.125 396.875,528.75"/>
    <polyline points="402.875,525.625 414.125,519.75 429.25,512.375 438.0,508.5 449.25,504.375 458.625,501.875 466.5,500.625 476.75,500.375 483.125,501.125"/>
    <polyline points="484.5,501.375 492.5,503.375 504.125,507.625"/>
    <polyline points="504.5,507.875 509.875,509.875 513.375,510.25 517.625,508.5 522.25,505.625"/>
    <polyline points="522.5,505.375 528.0,501.75 532.0,498.625"/>
    <polyline points="532.5,498.25 537.625,494.125 541.5,490.5 548.625,482.375"/>
    <polyline points="549.25,481.25 552.875,475.5 555.5,469.875 557.5,462.875 558.125,458.875 558.375,451.875 558.0,446.5 556.125,437.125 553.75,430.0"/>
    <polyline points="552.125,426.125 545.5,413.25 539.0,403.75 530.75,393.625 525.875,388.375 520.5,383.25 514.75,378.25 508.5,373.375 501.75,368.875 494.75,364.875 487.5,361.5 480.125,358.875 472.75,357.125 465.625,356.5 458.625,356.875 452.25,358.5 446.375,361.375 441.25,365.25 436.875,370.125 433.375,376.0 430.625,382.5 428.75,389.625"/>
    <polyline points="427.5,397.125 427.0,404.75 427.125,412.375 428.875,427.375 432.125,441.125 434.0,447.375 438.25,458.75 445.125,472.5 451.875,483.0 460.125,492.875 463.75,496.625 470.125,502.125"/>
    <polyline points="471.5,503.25 484.875,513.25 487.125,515.625 487.875,517.0"/>
    <polyline points="488.0,517.375 488.0,519.625 486.875,521.625 485.375,523.25 482.125,525.625"/>
    <polyline points="481.625,526.0 471.875,531.625 462.125,536.375"/>
    <polyline points="461.375,536.75 456.0,539.0 461.375,536.125 480.625,527.25 514.75,512.75"/>
    <polyline points="526.75,508.0 554.625,497.75 570.0,492.75 586.0,488.0 601.75,484.0 616.75,481.125 630.375,479.5 641.875,479.5 651.125,481.125 657.875,484.125 662.0,488.5 663.875,493.75 663.875,499.625 662.375,505.75 659.75,511.875 656.25,517.625 652.375,523.0 648.125,528.0 639.5,536.0 631.125,541.625 623.625,545.25 620.125,546.375"/>
    <polyline points="616.875,547.125 611.0,547.625 606.0,547.25 599.75,545.375 598.0,544.625 595.0,542.75 590.5,538.5 588.375,535.125 587.0,530.75 587.125,526.5"/>
    <polyline points="587.375,525.5 589.125,521.5 590.5,519.625 593.25,516.75 596.625,514.125 602.375,510.625 609.5,507.375 615.875,505.25 620.75,504.0"/>
    <polyline points="623.375,503.375 635.125,501.875 642.0,501.75 649.625,502.125 658.375,503.5 668.25,506.25 673.75,508.25 679.75,510.875 686.125,514.125 693.25,518.375 700.875,523.5 709.375,530.0 718.5,537.875 728.75,547.75 739.75,559.75 751.875,574.375 765.0,592.125 778.75,613.25 792.875,638.125"/>
    <polyline points="806.5,666.5 818.5,697.625 827.0,730.0 830.125,760.875 825.875,786.875 813.0,804.0 792.0,809.75 764.75,803.125 734.125,785.75 703.25,760.875 674.625,731.75 649.75,701.625 629.125,672.75 612.875,646.25 600.625,622.875 591.75,602.5 586.0,585.125 582.5,570.5 581.125,558.125 581.125,547.875 582.375,539.375 584.5,532.375 587.25,526.625 590.25,522.125 593.375,518.5 596.375,515.875"/>
    <polyline points="599.125,514.0 601.5,512.875 604.75,512.25 605.5,512.75 605.875,513.5 604.875,515.75 600.375,519.875 596.0,522.5 590.875,524.75 585.5,526.5 577.375,528.125 569.5,528.875 562.125,528.75"/>
    <polyline points="559.875,528.5 551.375,527.5 544.125,526.0 523.375,520.625"/>
    <polyline points="522.625,520.375 514.25,518.75 507.5,518.75"/>
    <polyline points="507.0,518.75 501.0,520.125 494.875,522.5"/>
    <line x1="494.375" x2="476.5" y1="522.75" y2="530.75"/>
    <polyline points="475.625,531.125 468.625,534.375 461.5,537.25 464.125,535.875"/>
    <polyline points="465.625,535.125 481.125,528.0 500.0,519.875 518.125,512.5 541.0,504.0 567.625,495.125 581.75,491.0 595.625,487.625 609.0,485.0 621.125,483.5 631.75,483.375 640.375,484.375 646.875,486.75 651.25,490.125 653.625,494.5 654.25,499.375 653.375,504.5"/>
    <polyline points="651.5,509.75 648.625,514.875 645.25,519.75 641.375,524.25 637.375,528.125 633.375,531.625 629.25,534.5 621.5,539.0 617.75,540.5 610.875,542.5 607.75,542.875 602.125,543.125 597.125,542.5 592.875,541.25 589.25,539.625 586.125,537.75 582.5,534.75"/>
    <polyline points="581.5,533.625 579.125,530.375 577.75,527.125 577.125,524.0 577.375,519.75 578.375,516.75 580.0,513.625 583.125,509.5 585.125,507.5"/>
    <polyline points="586.125,506.375 592.375,500.875 611.5,486.5 620.0,479.75 626.625,473.625 631.125,468.875"/>
    <polyline points="633.25,466.125 635.375,463.25 639.375,456.5 642.5,448.25 643.625,443.25 644.375,437.75 644.625,431.375 644.125,424.0 642.75,415.5 640.25,405.5 636.25,393.75 630.375,380.0 622.0,363.75 610.5,344.625 595.125,322.25 575.0,296.625 549.125,268.0 516.875,237.375 478.375,207.25 434.75,181.25 389.0,164.5 345.375,161.75 308.625,176.0 282.25,206.25"/>
    <polyline points="266.75,248.125 260.75,295.625 261.25,343.375 265.75,387.5 271.75,426.0 278.125,458.375 284.125,484.75 289.625,505.875 294.625,522.25 299.375,534.625 304.125,543.625 309.125,549.75 314.625,553.5 320.625,555.0 327.375,554.875 334.75,553.25 342.625,550.375 351.125,546.5 359.875,542.0 386.25,526.5 417.5,507.25"/>
    <polyline points="424.25,503.25 436.125,496.5 450.75,489.5 458.625,486.375 468.375,483.75 473.875,483.0 478.625,482.75 484.75,483.125 488.375,483.625 497.375,485.75"/>
    <polyline points="498.625,486.125 508.75,488.75 512.5,489.375 518.5,489.625 522.5,489.125"/>
    <polyline points="523.25,489.0 528.625,487.25 534.5,483.75 538.125,480.625 541.75,476.625"/>
    <polyline points="542.375,475.625 545.0,471.5 547.625,465.0 548.75,460.25 549.375,454.75 549.125,448.375 547.875,441.0 545.125,432.5 543.75,429.375"/>
    <polyline points="542.25,426.125 538.5,419.25 530.625,408.125 523.875,400.375 515.875,392.875 511.375,389.25 501.625,382.75 496.5,380.0 491.25,377.75 485.875,376.0 480.5,374.75 475.25,374.25 470.25,374.5 465.5,375.375 461.0,377.0 457.0,379.5 453.5,382.5 450.5,386.25 448.0,390.625 446.0,395.375"/>
    <polyline points="444.5,400.5 443.625,405.875 443.125,411.375 443.5,422.625 444.125,428.125 446.25,438.75 449.25,448.375 452.75,457.125 454.625,461.0 458.375,468.0 462.25,474.0 467.75,481.5 471.25,485.5 477.75,491.75"/>
    <polyline points="479.25,493.0 483.25,496.375 488.0,499.75 501.25,507.5"/>
    <polyline points="501.75,507.625 507.5,510.625 509.5,512.125 509.625,512.875 507.375,514.625 500.625,518.375"/>
    <line x1="500.375" x2="489.5" y1="518.5" y2="524.125"/>
    <polyline points="632.125,534.375 636.25,531.25 640.375,527.5 644.375,523.25 648.125,518.5 651.5,513.5 654.125,508.125 655.875,502.625 656.375,497.375 655.125,492.5 652.125,488.25 646.875,485.125 639.5,483.125 629.875,482.375 618.375,483.125 605.5,485.125 591.5,488.125 577.0,491.875 562.75,496.25 536.0,505.5 513.5,514.125 488.875,524.375 480.75,528.5 469.625,533.625"/>
    <polyline points="468.75,534.0 460.25,537.625 467.625,533.875 483.0,527.0"/>
    <polyline points="628.0,537.0 624.125,539.25 620.375,540.875 616.75,542.25 613.375,543.125 607.25,544.0 601.75,543.875 599.375,543.5 593.125,541.625 589.75,539.875 586.875,537.875 584.5,535.875 581.875,532.625 580.625,530.375 579.875,528.25"/>
    <polyline points="579.5,527.125 579.25,522.875 579.625,520.75 580.625,517.75 582.375,514.625 585.625,510.625 588.875,507.5 597.0,501.125"/>
    <polyline points="598.625,500.0 609.625,492.875 628.125,481.625 641.75,472.5 650.25,465.625 658.625,456.875"/>
    <polyline points="661.125,453.25 663.625,449.375 665.75,444.875 667.625,439.75 669.0,433.875 669.75,427.0 669.625,418.875 668.5,409.125 665.75,397.5 661.0,383.375 653.625,366.25 642.625,345.25 626.875,319.625 604.875,288.75 574.875,252.375 535.25,211.25 485.375,168.5 426.5,129.875 363.0,104.5 303.25,102.0 255.75,127.25 225.75,176.75 212.75,240.5 211.625,307.625 217.125,369.875 224.75,423.25"/>
    <polyline points="232.25,466.875 238.625,501.25 244.125,527.5 249.0,546.875 254.25,560.375 260.375,568.875 268.125,572.75 277.875,572.75 289.75,569.25 303.375,562.875 318.375,554.25 334.25,544.125 350.125,533.125 365.625,521.75 393.5,500.0 416.125,481.375 445.75,456.0 454.75,448.625 461.25,444.125"/>
    <polyline points="463.75,442.75 466.0,441.75 469.5,441.125 472.375,441.625 474.875,443.0 478.25,446.125 486.625,456.625 494.25,464.625"/>
    <polyline points="495.375,465.5 501.625,470.375 506.625,473.0 513.25,475.125 519.25,475.375"/>
    <polyline points="520.125,475.25 522.5,474.75 526.25,473.25 530.375,470.25 533.375,466.625 535.375,463.0 536.125,460.875"/>
    <polyline points="536.5,459.75 537.5,453.125 537.375,448.375 536.5,443.125 534.625,437.125 532.875,432.875 529.125,426.0 525.75,421.125 521.875,416.25 517.25,411.5"/>
    <polyline points="514.75,409.25 506.25,402.875 500.0,399.625 496.875,398.25 493.625,397.25 490.5,396.5 484.25,396.0 478.375,397.0 475.75,398.125 473.375,399.5 471.125,401.25 469.25,403.375 467.5,405.75 466.125,408.375 465.0,411.375 464.125,414.375 463.125,421.0 463.125,427.875 463.5,431.25"/>
    <polyline points="464.0,434.75 465.5,441.375 467.5,447.75 471.25,456.25 475.375,463.625 479.75,469.75 484.0,474.875 488.125,479.0 492.125,482.375 495.875,485.0"/>
    <polyline points="497.0,485.875 500.375,487.875 507.375,491.0 511.0,492.0 515.125,492.625 519.75,492.625"/>
    <polyline points="520.5,492.5 525.5,491.5 529.0,490.125 534.0,487.25 538.375,483.75"/>
    <polyline points="539.125,483.0 542.75,479.125 545.5,475.25 548.0,470.625 549.125,467.875 550.875,461.625 551.375,458.0 551.625,456.0 551.5,449.5"/>
    <polyline points="551.25,447.125 550.375,441.875 548.875,436.125 547.75,433.0 546.5,429.75 541.125,419.125 538.75,415.25 533.0,407.25 526.0,399.0 521.875,394.875 512.625,386.75 507.625,383.0 496.625,376.5 490.875,373.875 485.0,371.875 479.25,370.5 473.5,369.875 468.0,370.0"/>
    <polyline points="462.75,371.0 458.0,372.75 453.625,375.5 449.75,378.875 446.5,383.0 443.875,387.75 441.875,393.0 440.375,398.625 439.0,410.625 439.125,416.75 440.375,428.75 442.875,440.125 444.5,445.375 448.0,455.0 452.0,463.375 458.0,473.875 463.875,482.0"/>
    <polyline points="465.75,484.25 472.625,491.625 478.625,496.875 486.875,502.875 494.625,507.75"/>
    <polyline points="495.25,508.125 500.5,511.875 501.75,513.875"/>
    <polyline points="501.875,514.125 501.875,514.875 501.125,516.375 499.0,518.25"/>
    <polyline points="498.75,518.375 494.75,521.0 488.375,524.375"/>
    <line x1="487.75" x2="468.375" y1="524.75" y2="534.125"/>
    <polyline points="467.5,534.5 459.875,537.75 470.25,532.625 489.125,524.25"/>
    <polyline points="496.25,521.125 525.0,509.5 550.125,500.375 564.125,495.75 578.625,491.375 593.25,487.5 607.25,484.5 620.25,482.75 631.625,482.125 641.125,483.0 648.375,485.125 653.375,488.5 656.125,492.875 657.125,497.875 656.5,503.25 654.625,508.75 651.875,514.125 648.375,519.25 644.5,524.0 636.375,531.875 628.125,537.625"/>
    <polyline points="624.25,539.75 616.875,542.625 610.375,544.125 604.625,544.375 597.5,543.25 595.375,542.625 591.75,541.0 590.125,540.125 586.125,537.125 582.5,532.75 580.875,529.5 580.25,527.25"/>
    <polyline points="580.125,526.25 580.0,524.125 580.75,519.875 582.125,516.875 584.125,513.875 588.875,508.75 594.0,504.625 600.125,500.375"/>
    <polyline points="601.875,499.25 613.75,492.25 648.875,473.0 658.625,467.0 668.75,459.875"/>
    <polyline points="672.125,457.0 678.625,450.5 681.75,446.625 684.625,442.25 687.125,437.25 689.25,431.375 690.75,424.5 691.25,416.25 690.625,406.125 688.375,393.75 683.625,378.375 675.75,359.125 663.375,334.875 644.75,304.25 617.75,266.25 579.625,220.25 527.75,167.375 461.25,112.875 383.25,67.75 303.25,47.25 235.375,64.5 191.0,119.625 171.625,199.125 170.0,284.875 177.125,363.75"/>
    <polyline points="186.375,429.875 200.5,522.25 205.25,551.625 210.125,572.125 216.75,584.5 226.5,589.75 240.125,588.5 258.0,581.375 279.25,569.375 302.5,553.875 326.375,536.25 349.25,517.875 370.125,499.75 388.375,482.75 403.625,467.125 416.125,453.375 425.875,441.375 433.375,431.125 438.875,422.625 442.625,415.625 445.125,410.125 446.625,406.0 447.25,403.125 447.375,401.25 447.125,400.5"/>
    <polyline points="446.625,400.625 445.625,403.25 444.875,408.5 444.75,411.75 445.25,419.125 446.625,427.375 450.125,439.75 453.125,447.5 456.5,454.75 460.125,461.25 465.625,469.625 472.75,478.375"/>
    <polyline points="474.5,480.25 480.875,486.375 489.125,492.875 495.875,497.0 503.625,500.625"/>
    <polyline points="504.375,500.875 508.25,502.25 512.125,503.0 517.75,503.0"/>
    <polyline points="518.125,502.875 523.5,501.375 529.75,498.0"/>
    <polyline points="530.375,497.625 533.75,495.375 538.75,491.25 542.875,487.25 546.5,483.125"/>
    <polyline points="547.125,482.25 551.5,475.625 554.0,470.25 555.625,465.375 556.75,459.625 557.125,455.25 556.875,447.875 556.0,442.125 554.375,435.75"/>
    <polyline points="553.25,432.25 550.125,424.75 545.875,416.375 540.0,407.375 532.625,397.625 523.25,387.75 512.125,378.125 506.0,373.625 499.375,369.375 492.625,365.75 485.5,362.875 478.5,360.625 471.5,359.375 464.625,359.0 458.125,359.75 452.125,361.625 446.75,364.625 442.0,368.625 438.0,373.625 434.75,379.375"/>
    <polyline points="432.375,385.75 430.625,392.625 429.625,399.875 429.25,407.25 429.5,414.625 431.25,428.875 434.375,442.125 438.375,453.75 440.5,458.875 447.25,472.25 453.875,482.375 458.0,487.625 463.75,494.0 468.75,498.625"/>
    <polyline points="470.25,500.0 474.375,503.375 486.625,512.25 489.5,515.25"/>
    <polyline points="489.75,515.625 490.375,517.125 490.0,519.625 488.875,521.125 486.5,523.25"/>
    <polyline points="486.125,523.625 478.125,528.625 469.125,533.125"/>
    <polyline points="468.25,533.625 457.0,538.625 468.125,533.125"/>
    <polyline points="471.875,531.375 496.5,520.5 516.125,512.375 541.125,502.875 570.625,492.75 586.25,488.25 601.625,484.5 616.25,481.625 629.5,480.25 640.75,480.25 649.625,481.875 656.125,484.875 660.25,489.125 662.125,494.25 662.125,499.875 660.625,505.875 658.125,511.75 654.75,517.5 650.875,522.75 646.625,527.5"/>
    <polyline points="642.375,531.75 638.125,535.375 633.875,538.375 626.0,542.875 618.875,545.5 615.625,546.25 609.75,546.75 607.125,546.75 602.375,545.875 598.375,544.625 595.0,542.875 592.25,540.875 590.0,538.75 588.125,536.5 586.25,533.25"/>
    <polyline points="585.875,532.125 585.125,527.75 585.5,524.625 586.25,522.625 588.5,518.625 591.125,515.75 595.625,512.0 603.0,507.5"/>
    <polyline points="604.75,506.625 612.625,503.25 619.625,500.875 627.625,498.875 633.625,497.75 640.25,497.0 651.625,496.875 655.875,497.125 665.25,498.625 676.0,501.5 682.0,503.75 688.5,506.75 695.625,510.5"/>
    <polyline points="703.5,515.375 712.125,521.5 721.625,529.125 732.125,538.75 743.875,550.875 756.875,565.75 771.0,584.25 786.375,606.75 802.375,633.75 818.375,665.25 832.875,700.875 843.75,738.75 848.5,775.625 844.25,807.0 829.375,827.5 804.375,833.625 771.875,824.375 735.75,802.125 700.5,771.375 668.75,736.625 642.25,701.75 621.5,669.25 606.0,640.125 595.5,614.875 588.875,593.25 585.75,575.125"/>
    <polyline points="585.375,559.875 587.125,547.25 590.5,536.875 595.0,528.25 600.125,521.5 605.5,516.125 610.75,512.25 615.625,509.5 619.75,508.0 623.25,507.375 625.625,507.75 627.25,508.75 627.75,510.375 627.5,512.25 626.5,514.5 622.75,519.375 617.25,523.875 610.875,527.75 607.5,529.375 600.875,531.75 594.25,533.25"/>
    <polyline points="591.125,533.75 582.25,534.125 574.5,533.25 567.875,531.625 562.125,529.75 557.375,527.5 551.125,523.875 546.75,520.25"/>
    <polyline points="546.0,519.5 542.75,515.0 541.625,511.25 542.0,507.625 543.375,504.0"/>
    <polyline points="543.75,503.375 546.25,499.25 554.0,489.375 559.375,481.375"/>
    <polyline points="560.125,480.0 561.75,477.25 564.0,472.375 566.375,464.75 567.25,460.125 567.75,455.0 567.75,449.25 567.0,442.625 565.375,435.125 564.125,430.875 562.5,426.5 558.125,416.625 555.375,411.25 552.0,405.625"/>
    <polyline points="548.0,399.625 543.5,393.25 538.25,386.75 532.25,380.0 525.625,373.25 518.125,366.5 510.125,359.875 501.375,353.75 492.0,348.25 482.375,343.625 472.5,340.0 462.75,337.875 453.125,337.25 444.125,338.375 436.0,341.25 428.75,346.0 422.625,352.25 417.75,359.875 414.125,368.625 411.625,378.125 410.25,388.25 409.875,398.5 410.25,408.625 411.25,418.5 412.875,428.0 414.875,436.875"/>
    <polyline points="417.25,445.125 419.75,452.875 425.125,466.125 427.875,471.75 433.25,481.5 438.375,489.25 443.125,495.375 449.5,502.25 456.625,508.5 466.375,515.625"/>
    <polyline points="467.25,516.25 471.0,519.5 472.75,522.125 473.0,523.875 472.625,525.125 471.0,527.625"/>
    <polyline points="470.5,528.125 468.0,530.375 462.25,534.125 451.125,540.0"/>
    <polyline points="450.25,540.375 445.375,542.5 447.0,541.375 455.875,536.875 488.25,521.875 512.125,511.625 543.75,499.0"/>
    <polyline points="562.125,492.25 581.625,485.75 601.625,479.875 621.0,475.125 639.0,472.25 654.375,471.375 666.75,472.875 675.625,476.375 681.125,481.875 683.5,488.75 683.375,496.375 681.25,504.375 677.875,512.375 673.75,520.0 669.0,527.0 664.125,533.25 659.375,538.625 654.625,543.375 645.875,550.5 642.0,553.125 638.25,555.125 634.875,556.5 631.75,557.625 626.125,558.5"/>
    <polyline points="623.625,558.5 619.25,558.0 615.5,556.75 611.0,554.0 607.75,550.875 605.0,546.625 604.25,544.5 603.875,541.5 604.125,539.625 605.125,537.0 605.75,536.25"/>
    <polyline points="606.375,535.375 609.75,532.75 613.375,531.25 616.25,530.5 619.625,530.0 627.75,530.125 635.25,531.5 644.25,534.25 651.125,537.25 658.875,541.5"/>
    <polyline points="663.0,544.125 672.125,550.75 677.0,554.875 687.625,564.75 693.25,570.875 705.0,585.25 711.0,593.625 716.875,602.875 722.625,613.0 728.125,623.625 732.875,634.875 736.75,646.25 739.5,657.625 740.75,668.25 740.25,677.75 737.875,685.625 733.25,691.375 726.75,694.5 718.375,694.875 708.375,692.5 697.375,687.625 685.625,680.5 673.625,671.625"/>
    <polyline points="661.75,661.5 650.25,650.75 629.25,628.75 611.375,608.25 574.75,563.875 566.5,554.625 559.625,547.5 550.875,539.75 545.875,536.125 541.25,533.375 535.25,530.5"/>
    <polyline points="533.375,529.875 526.5,527.875 517.625,526.75 508.75,526.875 500.25,527.875"/>
    <polyline points="499.25,528.125 493.125,529.25 490.875,529.375 493.75,527.75 499.875,525.25"/>
    <polyline points="502.125,524.25 523.375,516.375 545.125,509.5 551.125,507.75 563.625,504.75 575.75,502.5 581.25,501.875 590.875,501.625 594.875,502.0 598.125,502.75 600.625,503.875 602.375,505.25 603.5,506.75 604.0,508.625 603.75,510.375"/>
    <polyline points="603.125,512.375 600.375,516.125 598.5,518.0 594.0,521.25 589.0,523.875 580.875,526.625 575.5,527.75 565.375,528.5 556.25,527.875 546.75,526.25"/>
    <polyline points="545.0,525.875 537.5,524.0 519.0,518.625"/>
    <polyline points="518.375,518.5 515.125,517.75 511.5,517.375 507.25,517.75"/>
    <polyline points="506.875,517.75 501.5,519.25 496.75,521.125"/>
    <line x1="496.375" x2="480.625" y1="521.375" y2="528.75"/>
    <polyline points="479.75,529.125 465.25,535.75 460.875,537.375 478.125,529.25 503.625,518.25 534.75,506.125 560.875,497.0 575.0,492.75 589.25,488.875 603.0,485.75 616.0,483.75 627.5,482.875 637.25,483.375"/>
    <polyline points="644.875,485.125 650.375,488.125 653.75,492.125 655.125,496.75 654.875,502.0 653.375,507.25 650.875,512.625 647.75,517.625 644.0,522.375 640.125,526.625 636.0,530.375 627.875,536.25 620.125,540.25 613.125,542.5 606.875,543.5 601.375,543.375 596.625,542.625 590.75,540.5"/>
    <polyline points="589.125,539.625 584.875,536.625 582.75,534.5 581.0,532.375 579.25,529.125 578.5,526.875 578.125,524.75 578.125,521.625 579.25,517.5 581.625,513.375"/>
    <polyline points="582.375,512.375 586.0,508.25 590.625,504.0 601.25,496.0 621.875,481.75"/>
    <polyline points="624.125,480.0 631.375,474.25 636.375,469.625 643.5,461.375 647.875,454.5 649.75,450.375 651.375,445.875 652.75,440.75 653.5,434.75 653.75,427.875 653.25,420.0 651.625,410.625 648.625,399.5 643.875,386.375 636.75,370.625 626.625,351.875 612.5,329.625 593.5,303.375 568.375,273.0 536.125,239.5"/>
    <polyline points="496.125,204.625 449.125,172.125 397.75,148.0 346.875,138.75 302.625,149.25 270.0,179.75 250.625,225.5 243.0,279.125 243.375,333.5 248.25,383.5 254.875,426.75 261.75,462.75 267.875,491.625 273.375,514.25 278.375,531.625 283.25,544.375 288.375,553.125 294.125,558.625 300.75,561.125 308.5,561.25 317.125,559.125 326.875,555.375 337.25,550.25 348.25,544.125 370.5,530.125"/>
    <polyline points="381.375,522.875 418.75,497.25 433.25,487.75 450.0,477.625 458.625,473.375 462.375,471.875 468.75,469.875 476.625,468.625 480.875,468.625 484.75,469.125 491.25,470.875"/>
  </g>
</svg>
