<?xml version="1.0" encoding="utf-8" ?>
<svg xmlns="http://www.w3.org/2000/svg" xmlns:cc="http://creativecommons.org/ns" xmlns:dc="http://purl.org/dc/elements/1.1/" xmlns:ev="http://www.w3.org/2001/xml-events" xmlns:inkscape="http://www.inkscape.org/namespaces/inkscape" xmlns:rdf="http://www.w3.org/1999/02/22-rdf-syntax-ns" xmlns:sodipodi="http://sodipodi.sourceforge.net/DTD/sodipodi-0.dtd" xmlns:xlink="http://www.w3.org/1999/xlink" baseProfile="tiny" height="27.09333333cm" version="1.2" viewBox="0 0 1024.0 1024.0" width="27.09333333cm">
  <metadata>
    <rdf:RDF>
      <cc:Work>
        <dc:format>image/svg+xml</dc:format>
        <dc:source>vpype read './original_svgs/Strange Attractors #316.svg' linemerge linesimplify write './Strange Attractors #316.svg'
</dc:source>
        <dc:date>2024-08-05T01:35:48.534356</dc:date>
      </cc:Work>
    </rdf:RDF>
  </metadata>
  <defs/>
  <g fill="none" id="layer1" inkscape:groupmode="layer" inkscape:label="1" stroke="black" stroke-width="0.7mm" style="display:inline">
    <polyline points="598.625,557.875 639.375,552.875 670.25,554.75 694.375,562.125 713.625,573.875 729.375,589.375 742.0,608.125 752.0,629.375 759.0,652.5 762.625,676.125 762.125,699.0 757.125,719.25 747.625,735.125 733.625,745.25 716.25,749.0 696.375,746.5 675.625,738.5 655.0,726.625 635.75,712.125 618.375,696.375 603.25,680.625 590.375,665.625 579.625,651.625 571.0,639.125 564.125,627.875 558.75,618.125"/>
    <polyline points="554.75,609.75 551.75,602.375 549.75,596.125 548.375,590.75 547.625,586.125 547.25,582.125 547.5,575.625 548.375,570.75 550.375,563.75 551.0,560.0 550.75,557.875 550.0,556.0 548.25,553.5 546.5,552.0"/>
    <polyline points="545.5,551.25 540.125,547.875 531.625,543.75 521.25,539.875 517.0,538.75"/>
    <polyline points="516.0,538.5 510.125,537.625 504.75,537.625 499.0,538.625 494.125,540.375"/>
    <polyline points="493.25,540.75 490.125,542.25 484.0,546.375 479.0,550.875 475.5,555.25"/>
    <polyline points="475.0,556.125 473.75,559.25 473.625,562.5 474.125,564.125 475.25,565.625 478.125,567.75 482.875,569.625 487.25,570.5 492.625,571.125 502.875,571.375"/>
    <polyline points="506.875,571.25 515.5,570.75 534.25,568.375 547.875,565.75 559.125,562.75 564.75,560.875 566.875,559.875 568.5,559.0 570.625,557.25 571.0,556.375 570.75,554.75 569.5,553.25 567.375,551.625"/>
    <polyline points="566.0,550.75 551.5,543.0 540.875,536.875 530.25,530.25"/>
    <polyline points="529.25,529.625 519.375,523.625 515.75,521.875 513.5,521.125"/>
    <polyline points="513.125,521.0 509.375,520.375 506.75,520.75 504.5,521.5"/>
    <polyline points="504.25,521.625 500.375,523.75 494.375,528.125"/>
    <polyline points="493.875,528.5 485.25,535.5 478.125,541.875"/>
    <polyline points="477.375,542.625 471.875,548.0 466.5,554.25 463.0,560.25 462.0,563.25 461.875,565.375"/>
    <polyline points="462.0,566.375 462.75,568.375 464.25,570.375 466.625,572.125 470.25,573.75 475.25,575.125 478.5,575.625 486.0,576.375 490.625,576.5 507.0,576.0 527.125,573.875 541.625,571.625 562.25,567.375"/>
    <polyline points="568.375,566.0 578.5,563.125 585.625,560.625 589.625,558.375 590.5,557.5 590.875,556.625 590.625,555.75 589.0,554.125 586.0,552.5 573.875,547.125 565.75,542.75 562.0,540.375"/>
    <polyline points="560.25,539.25 556.875,537.0 551.125,532.375 544.5,526.0 539.375,519.5 536.75,514.625"/>
    <polyline points="536.5,513.875 535.375,509.5 535.375,505.5 536.375,501.375 538.625,496.375"/>
    <polyline points="539.0,495.625 542.5,490.0 554.75,472.125 556.5,469.0"/>
    <polyline points="557.5,467.375 559.5,464.0 563.375,456.0 567.25,446.25 569.75,437.25 571.0,430.375 572.0,422.375 572.25,413.125 571.625,402.5 569.875,390.0 568.375,383.0 566.25,375.375"/>
    <polyline points="563.625,367.125 560.375,358.25 556.25,348.625 551.25,338.25 545.125,327.25 537.875,315.5 529.375,303.375 519.5,290.875 508.125,278.375 495.375,266.375 481.375,255.25 466.5,245.875 450.875,238.75 435.125,234.625 420.0,234.25 406.125,237.75 394.0,245.375 384.0,256.75 376.5,271.125 371.375,287.875 368.5,306.125 367.625,324.875 368.25,343.375 370.25,361.375 373.0,378.125 376.5,393.625"/>
    <polyline points="380.25,407.75 384.125,420.5 388.125,431.875 395.875,450.75 403.125,465.625 409.5,477.125 415.0,486.125 431.5,510.125 434.5,515.25 436.375,519.75"/>
    <polyline points="436.875,521.125 437.625,526.5 437.375,529.0 436.5,532.875 434.875,536.625 432.5,540.375 429.375,544.375 425.625,548.375 419.375,554.0"/>
    <polyline points="417.625,555.375 411.75,559.875 397.125,569.625 388.125,574.875 373.875,582.375 361.0,588.375 350.875,592.5 339.25,596.75 325.625,601.0"/>
    <polyline points="317.875,603.125 300.25,607.0 290.0,608.75 266.875,611.25 253.875,611.625 240.125,611.125 226.25,609.25 212.875,605.5 201.625,599.375 194.125,589.875 192.75,576.75 199.375,559.375 215.25,538.375 239.375,514.625 269.75,489.5 302.75,464.75 364.5,420.125 389.375,401.25 409.375,384.625 424.75,370.125 435.875,357.5 443.375,346.375 447.875,336.875"/>
    <polyline points="450.0,328.625 450.125,321.75 448.625,316.125 446.125,312.0 442.75,309.25 438.875,308.0 434.875,308.25 430.875,309.875 427.25,312.875 424.0,317.125 421.25,322.625 419.125,329.125 417.625,336.375 416.875,344.25 416.75,352.375 417.125,360.875 418.125,369.375 419.5,377.75 421.25,385.875 425.625,401.375 428.125,408.5 433.5,421.625 439.0,433.0"/>
    <polyline points="441.75,438.125 449.75,451.375 461.75,467.75 475.0,482.75 487.875,495.5"/>
    <polyline points="488.875,496.375 497.75,505.25 501.625,510.25"/>
    <polyline points="501.75,510.625 502.75,512.625 503.0,514.0 502.875,515.75 502.375,517.25"/>
    <polyline points="502.25,517.5 499.875,520.875 496.25,524.625"/>
    <line x1="495.875" x2="482.875" y1="524.875" y2="536.75"/>
    <polyline points="482.125,537.375 477.0,542.125 469.875,549.375 463.375,557.875"/>
    <polyline points="462.875,559.0 461.875,561.0 461.25,563.125 461.0,565.25 461.625,568.375 464.0,571.25 468.625,573.875 476.5,575.875 480.0,576.375 488.375,576.875 498.875,576.75 511.125,576.0"/>
    <polyline points="518.0,575.25 540.0,572.25 554.625,569.5 567.875,566.5 582.875,562.25 589.0,559.75 592.0,557.75 592.375,556.75 592.25,556.0 590.625,554.375 587.625,552.75 577.625,548.375"/>
    <polyline points="575.5,547.375 565.25,541.875 556.625,536.0 548.75,529.125 545.75,526.0 541.25,520.125"/>
    <polyline points="540.625,519.25 538.125,514.125 537.375,511.875 536.875,508.875 536.875,506.0 537.5,502.375 538.25,500.125"/>
    <polyline points="538.5,499.375 539.875,496.375 542.75,491.375 553.5,475.25"/>
    <polyline points="554.375,473.875 557.25,469.375 562.125,460.375 567.0,449.125 569.625,440.625 571.75,430.375 572.625,422.375 573.0,413.125 572.375,402.375"/>
    <polyline points="571.625,396.375 569.0,382.625 567.0,375.0 564.25,366.625 560.875,357.625 556.75,347.875 551.625,337.375 545.5,326.25 538.125,314.375 529.375,302.0 519.25,289.375 507.75,276.75 494.75,264.5 480.5,253.25 465.25,243.75 449.375,236.75 433.5,232.875 418.125,232.75 404.125,236.625 392.0,244.75 382.0,256.5 374.625,271.5 369.75,288.625 367.0,307.25 366.375,326.25"/>
    <polyline points="367.25,345.125 369.25,363.125 372.25,380.0 375.75,395.625 379.625,409.75 383.625,422.375 387.625,433.625 391.5,443.625 395.375,452.375 399.0,460.125 405.75,473.0 414.375,487.25 426.625,504.875 432.625,514.25"/>
    <polyline points="433.5,515.875 435.75,521.625 436.375,525.625 436.125,529.5 435.125,533.375 433.375,537.125 430.0,542.25 423.75,548.875"/>
    <polyline points="422.25,550.25 415.5,556.0 404.75,563.625 397.0,568.5 384.625,575.5 373.625,581.0 365.125,584.875 355.375,588.875 344.375,592.875"/>
    <polyline points="338.25,594.875 324.375,598.875 307.875,602.625 288.375,605.625 277.375,606.75 265.5,607.25 253.0,607.0 240.25,605.625 227.875,602.875 216.625,598.125 208.125,590.875 204.0,580.375 206.125,566.5 215.75,549.125 233.125,528.875 257.25,506.625 285.75,483.875 315.75,461.625 370.75,422.25 392.875,405.75 411.0,391.25 425.125,378.625"/>
    <polyline points="435.75,367.625 443.375,358.25 448.375,350.0 451.375,343.125 452.625,337.25 452.625,332.625 451.625,329.0 449.75,326.5 447.5,325.125 444.875,324.75 442.25,325.5 439.625,327.25 437.125,329.875 435.0,333.5 433.25,337.875 431.875,342.875 431.0,348.5 430.5,354.5 430.5,360.875 431.625,373.875 434.125,387.0 435.75,393.25 439.625,405.25"/>
    <polyline points="441.875,410.875 446.5,421.375 451.25,430.625 456.0,438.75 463.0,449.0 469.625,457.5 477.625,466.25 486.25,474.375 492.25,479.0"/>
    <polyline points="493.625,480.0 501.0,484.75 507.125,487.5 511.625,488.875 515.75,489.375 518.125,489.25"/>
    <polyline points="518.875,489.25 521.125,488.875 525.625,487.375 527.875,486.25 532.5,483.25 538.25,478.25"/>
    <polyline points="539.0,477.5 543.5,472.625 547.25,467.75 551.125,462.0 554.0,456.875 558.625,446.25 561.75,435.375"/>
    <polyline points="562.375,432.25 563.0,428.875 563.75,421.5 563.75,408.25 562.625,397.875 560.375,385.75 556.25,371.75 553.5,364.0 550.0,355.625 545.75,346.75 540.75,337.375 534.875,327.625 527.875,317.375 520.0,306.875 510.875,296.375 500.75,286.125 489.625,276.375 477.625,267.75 464.875,260.625 452.0,255.625"/>
    <polyline points="439.0,253.0 426.75,253.375 415.375,256.75 405.375,263.125 397.125,272.5 390.625,284.25 386.0,297.75 383.25,312.625 382.125,328.25 382.375,343.875 383.625,359.125 385.75,373.875 388.5,387.625 391.75,400.375 395.25,412.125 398.75,422.75 402.375,432.375 409.625,448.75 419.375,467.5 430.125,484.75"/>
    <polyline points="432.5,488.0 444.5,505.125 449.375,513.5 450.625,516.375 452.0,521.75 452.25,525.5 451.5,530.25"/>
    <polyline points="451.125,531.5 448.5,537.5 446.25,541.125 441.25,547.375 433.5,555.375 424.125,564.25"/>
    <polyline points="422.5,565.875 412.25,575.875 407.5,581.375 404.875,585.25 403.75,587.125 402.375,591.0 402.25,593.0 402.5,594.875 403.25,596.875 404.75,598.625 407.125,600.375 410.625,602.0 415.25,603.5 421.625,604.625 429.875,605.375 440.375,605.625 453.625,605.375"/>
    <polyline points="470.0,604.125 489.625,602.0 512.625,598.75 538.625,594.375 567.0,588.75 596.125,582.125 624.25,575.25 649.5,568.625 685.125,558.75 694.75,556.375 699.5,555.75 700.375,556.625 698.875,558.625 691.5,564.75 673.75,578.5 669.625,581.375 665.75,584.0 658.25,588.125 650.875,590.625"/>
    <polyline points="647.25,591.25 640.0,591.5 632.625,590.25 625.375,587.875 614.75,582.5 604.75,575.75 595.75,568.5 585.375,558.75 573.25,545.375"/>
    <polyline points="571.625,543.375 566.0,535.875 561.75,529.25 558.0,521.875 555.625,514.125 555.125,510.5 555.125,506.875"/>
    <polyline points="555.25,505.75 556.0,501.125 558.375,493.875 563.75,483.125 570.25,471.75"/>
    <polyline points="571.25,469.875 576.75,459.125 581.125,448.5 583.125,442.125 585.75,430.875 587.25,416.75 587.125,405.375 586.625,398.75 585.75,391.625 584.375,383.875 582.375,375.25 579.625,365.75 576.125,355.375"/>
    <polyline points="571.625,343.875 565.875,331.375 558.625,317.75 549.875,303.0 539.125,287.25 526.5,270.875 511.625,254.25 494.5,238.0 475.5,223.125 454.875,210.75 433.625,202.25 412.5,198.75 392.75,201.25 375.375,210.0 361.375,224.75 351.125,244.375 344.625,267.375 341.5,292.25 341.0,317.5 342.625,342.0 345.625,364.875 349.625,385.75 354.0,404.375 358.625,420.75 363.25,435.0 367.625,447.25"/>
    <polyline points="371.875,457.875 375.875,466.875 383.0,481.125 389.25,491.5 396.75,502.25 400.875,507.25 410.875,518.25 414.0,522.75 415.5,526.875"/>
    <polyline points="415.625,528.0 415.625,530.0 415.0,533.125 413.5,536.25 410.25,540.625 406.75,544.0 400.75,548.625 397.125,551.0 388.375,555.625"/>
    <polyline points="385.875,556.75 380.5,559.125 371.125,562.5 364.25,564.5 352.5,567.125 339.375,568.75 330.125,568.875 325.375,568.625 316.375,567.0 312.25,565.625 308.625,563.75 305.5,561.375 303.125,558.375 301.75,554.75 301.5,550.5 302.625,545.5"/>
    <polyline points="305.0,540.0 309.0,533.875 314.25,527.375 320.875,520.625 328.625,513.625 337.25,506.75 346.375,500.0 365.625,487.375 384.25,476.875 401.25,468.75 416.125,462.75 422.75,460.625 434.375,457.625 439.625,456.75 448.75,455.875 456.5,456.0 466.375,457.5"/>
    <polyline points="469.375,458.125 479.5,461.375 494.875,467.875 502.5,470.75 508.0,472.25 513.0,473.0"/>
    <polyline points="514.125,473.125 516.5,473.125 522.0,472.375 525.125,471.375 529.375,469.375 533.5,466.5 536.5,463.875 540.5,459.375"/>
    <polyline points="541.5,458.125 546.375,450.5 549.125,444.75 550.75,440.375 552.875,432.625 554.25,423.5 554.625,420.0 554.75,412.375 554.125,403.75 552.75,393.875 550.0,382.625"/>
    <polyline points="548.125,376.375 543.0,362.875 535.5,347.75 530.875,339.75 525.5,331.375 519.25,322.875 512.375,314.375 504.625,306.0 496.0,297.875 486.875,290.5 477.0,284.0 466.875,278.75 456.625,275.125 446.375,273.25 436.625,273.625 427.5,276.125 419.375,280.875 412.5,287.75 406.875,296.625 402.625,306.875 399.875,318.25 398.25,330.5 397.75,343.0 398.25,355.625"/>
    <polyline points="399.625,367.875 401.5,379.75 404.0,391.0 406.75,401.5 409.75,411.25 413.0,420.25 416.125,428.625 419.375,436.125 425.75,449.25 431.75,460.125 437.375,469.125 446.875,482.875 460.125,500.5"/>
    <polyline points="461.375,502.25 466.625,510.75 468.25,514.375 469.25,517.625 469.75,520.75 469.75,523.875 469.5,525.75 468.125,530.625"/>
    <polyline points="467.625,531.5 466.25,534.375 461.5,541.375 447.125,558.5"/>
    <polyline points="446.125,559.75 444.125,562.375 440.75,567.875 439.625,570.625 439.0,573.5 439.0,575.0 439.75,577.75 441.625,580.5 443.25,581.75 448.0,584.0 451.375,585.0 455.5,585.875 460.5,586.5 466.375,587.0 473.25,587.125 481.375,587.125 490.625,586.625"/>
    <polyline points="501.0,585.75 525.125,582.875 538.375,580.75 565.875,575.625 579.25,572.75 612.125,564.5 625.375,560.5 629.125,559.125 631.25,558.125 631.875,557.5 631.5,557.0 630.125,556.75 616.875,555.875 610.75,554.875 605.0,553.375"/>
    <polyline points="602.25,552.5 597.125,550.375 590.5,546.625 584.875,542.375 580.25,537.875 575.5,531.875 572.875,527.5 570.0,520.375 569.375,517.625"/>
    <polyline points="569.125,516.25 568.75,512.125 569.125,506.875 570.75,500.125 573.0,494.5 575.25,490.125 580.875,480.5"/>
    <polyline points="582.0,478.75 590.625,464.625 596.125,454.25 598.875,448.125 601.5,441.125 603.875,433.0 605.75,423.625 606.875,412.375 606.875,398.75 606.125,390.75 604.875,381.875"/>
    <polyline points="602.875,372.0 600.0,360.875 596.0,348.25 590.625,334.25 583.5,318.375 574.375,300.75 562.75,281.25 548.125,259.875 530.25,237.25 508.875,214.125 483.875,191.75 455.875,172.25 425.875,157.875 395.625,151.125 367.5,154.125 343.5,167.625 325.25,190.625 313.125,220.875 306.75,255.125 305.125,290.75 306.875,325.0 310.75,356.625 315.625,384.625 321.125,408.75 326.5,429.25 331.625,446.375"/>
    <polyline points="336.5,460.375 340.875,471.875 345.0,481.25 348.75,488.75 352.25,494.625 355.5,499.25 358.5,502.875 361.5,505.625 364.375,507.75 370.0,510.375 372.75,511.125 378.125,511.875 400.5,511.625 406.875,512.125"/>
    <polyline points="408.75,512.375 413.875,513.5 418.25,515.25 422.625,518.125 424.25,519.875 426.0,522.625 427.0,525.625 427.0,529.875 426.0,533.25"/>
    <polyline points="425.625,534.5 422.875,539.125 419.875,542.875 414.5,548.0 409.5,552.0 398.875,559.0 391.0,563.375 381.625,567.75"/>
    <polyline points="378.125,569.375 361.875,575.375 347.0,579.625 341.375,581.0 329.0,583.25 315.375,584.75 308.0,585.125 300.5,585.125 292.75,584.625 285.25,583.5 278.0,581.625 271.375,578.75 266.0,574.75 262.25,569.5 260.75,562.75 262.125,554.625 266.5,544.875 274.375,534.0 285.25,522.0"/>
    <polyline points="298.875,509.5 314.375,496.875 330.875,484.5 347.625,472.875 379.0,452.375 405.25,436.5 425.625,424.875 440.875,416.75 452.125,411.5 460.625,408.375 466.875,406.875 471.875,406.375 477.5,407.125 482.0,408.75"/>
    <polyline points="483.25,409.375 491.25,414.0 494.25,415.5 498.0,416.875 500.75,417.375 503.125,417.25 506.75,415.75"/>
    <polyline points="507.5,415.25 509.625,412.5 511.25,408.75 511.875,405.125 512.0,401.0 511.125,394.5 510.125,390.875 508.0,385.125 506.125,381.25"/>
    <polyline points="505.0,379.25 502.5,375.375 499.625,371.625 494.625,366.5 491.0,363.75 487.125,361.625 485.25,360.75 481.375,359.875 477.625,359.875 476.0,360.25 472.75,361.75 471.375,362.875 469.0,365.875 467.25,369.625 466.625,371.75"/>
    <polyline points="466.25,374.125 465.875,381.75 466.375,387.25 469.0,398.25 471.0,403.5 475.75,413.25 479.75,419.5 484.0,424.875 489.75,430.625"/>
    <polyline points="491.25,431.875 494.0,434.0 500.875,437.75 503.5,438.625 508.625,439.375 512.125,439.125 516.625,437.75 520.625,435.0 521.5,434.0"/>
    <polyline points="522.5,433.125 525.625,428.25 527.625,423.5 529.0,417.875 529.75,408.625 529.125,400.25 527.125,390.5 523.5,379.625 520.0,371.625"/>
    <polyline points="517.75,367.5 515.375,363.375 509.75,354.875 506.375,350.75 499.125,342.625 490.75,335.625 486.375,332.5 481.75,329.875 477.125,327.875 472.5,326.375 467.875,325.625 463.375,325.625 459.125,326.25 455.125,327.75 451.5,329.875 448.375,332.875 445.5,336.5 443.25,340.75 441.375,345.5 440.0,350.75 439.125,356.375 438.75,362.125 438.75,368.125"/>
    <polyline points="439.125,374.25 440.875,386.25 442.125,392.125 445.375,403.25 449.25,413.5 455.625,427.0 460.0,434.75 468.75,447.625 478.875,459.375 486.125,466.25"/>
    <polyline points="487.75,467.625 492.5,471.375 498.25,475.125 504.75,478.375 510.375,480.25 514.625,480.875 518.5,480.875"/>
    <polyline points="519.5,480.75 524.25,479.75 530.75,476.75 535.375,473.375 538.25,470.75 543.0,465.5"/>
    <polyline points="544.0,464.25 549.875,455.25 553.5,447.5 556.0,440.375 558.125,431.875 559.125,425.375 559.75,413.75 559.25,404.625 557.75,394.25"/>
    <polyline points="556.625,388.375 555.0,382.25 550.625,368.5 543.875,352.875 539.5,344.375 534.375,335.5 528.375,326.25 521.5,316.75 513.75,307.125 505.0,297.75 495.375,288.625 484.875,280.375 473.625,273.125 462.125,267.5 450.375,263.75 438.875,262.25 428.0,263.375 418.125,267.25 409.375,273.625 402.25,282.5 396.625,293.375 392.75,305.875 390.375,319.375 389.375,333.375"/>
    <polyline points="389.625,347.625 390.875,361.5 392.75,374.875 395.375,387.625 401.5,410.375 404.875,420.375 408.375,429.5 418.5,451.875 424.75,463.375 430.5,472.875 435.625,480.625 451.75,503.125"/>
    <polyline points="452.875,504.875 455.875,509.75 458.0,514.0 459.375,517.875 459.875,520.375 460.125,522.75 459.875,527.25 458.75,531.75 456.625,536.125"/>
    <polyline points="456.0,537.25 453.875,540.625 447.25,548.875 433.625,563.625 428.625,569.75"/>
    <polyline points="427.5,571.25 424.625,576.125 423.125,581.125 423.125,582.75 424.125,586.0 425.375,587.625 427.125,589.125 429.5,590.5 432.75,591.875 437.0,593.0 442.25,594.0 456.875,595.0 478.25,594.375 491.75,593.25 507.25,591.375 524.375,589.0 543.125,585.75 582.25,577.875"/>
    <polyline points="601.125,573.5 632.75,565.375 661.25,557.375 655.0,559.625 644.125,562.375 636.875,563.625 630.125,564.0 624.0,563.625 618.375,562.5 613.25,560.75 608.625,558.5"/>
    <polyline points="606.5,557.375 602.5,554.625 597.25,550.25 594.125,547.125 589.0,540.875 585.875,536.125 583.5,531.625 581.75,527.125 580.625,522.875 580.25,520.0"/>
    <polyline points="580.125,518.625 580.0,515.875 580.375,511.875 580.875,509.125 582.625,503.75 586.125,496.875 588.875,492.625 596.0,483.375"/>
    <polyline points="597.375,481.75 610.25,466.75 617.875,457.375 623.875,448.875 629.875,438.625 633.75,430.375 637.125,420.5 639.75,408.375 640.5,401.25"/>
    <polyline points="640.875,393.125 640.5,383.75 639.5,373.125 637.375,360.875 633.875,346.5 628.625,329.875 621.125,310.25 610.5,287.375 596.0,260.625 576.75,230.125 551.375,195.75 519.0,159.0 479.375,122.625 433.375,91.0 383.875,70.75 336.0,68.0 295.25,86.375 266.0,124.625 249.25,176.375 243.375,233.875 244.625,290.0 250.0,340.5 256.875,383.25 263.75,418.125 269.875,445.75 275.375,466.875"/>
    <polyline points="280.0,482.625 284.375,493.875 288.5,501.375 292.875,505.875 297.75,508.0 303.25,508.125 309.625,506.625 316.625,504.0 369.0,479.125 377.75,475.25 394.25,468.75 409.0,464.0 421.75,460.875 432.625,459.25 442.125,458.75 446.25,458.875"/>
    <polyline points="450.25,459.25 460.5,461.0 469.125,463.625 482.75,469.5 496.25,476.25 503.0,479.125"/>
    <polyline points="504.25,479.5 511.0,481.375 517.125,481.875 520.0,481.625 524.625,480.5 529.125,478.375"/>
    <polyline points="530.125,477.875 535.625,474.0 543.25,466.125 548.125,459.25 551.0,454.125 553.75,448.25"/>
    <polyline points="554.625,446.0 556.25,441.25 558.375,432.875 559.5,426.375 560.125,419.0 560.125,410.625 559.25,401.0 558.5,395.625 556.0,383.875 554.125,377.25 548.875,362.75 541.125,346.25 536.125,337.375 530.375,328.125 523.625,318.625 516.0,309.0"/>
    <polyline points="507.375,299.375 497.75,290.0 487.375,281.375 476.25,273.75 464.625,267.625 452.75,263.375 441.0,261.375 429.875,261.875 419.625,265.125 410.5,271.125 402.875,279.5 397.0,290.125 392.625,302.5 390.0,316.0 388.75,330.125 388.75,344.5 389.75,358.625 391.625,372.25 394.125,385.25 397.0,397.375 400.25,408.5 407.0,428.125 410.5,436.5 417.25,451.125"/>
    <polyline points="420.5,457.25 432.0,476.625 453.125,506.75 457.125,514.25 458.75,519.375"/>
    <polyline points="459.0,520.625 459.25,523.0 459.0,527.625 457.75,532.0 456.25,535.375 455.0,537.625 451.0,543.375 445.875,549.375"/>
    <polyline points="444.75,550.625 432.0,564.375 426.875,570.625 423.625,575.5 422.125,578.75 421.25,582.125 421.25,583.875 421.625,585.5 422.375,587.125 423.625,588.75"/>
    <polyline points="425.5,590.25 428.125,591.75 431.625,593.0 436.125,594.125 441.75,595.125 457.5,596.0 467.875,595.75 480.25,595.0 494.75,593.625 511.125,591.625 529.375,588.875 549.125,585.375 589.75,576.875 626.0,568.0 664.75,557.375 656.75,560.5"/>
    <polyline points="653.125,561.625 645.625,563.75 638.375,565.125 631.625,565.625 628.5,565.5 619.875,564.25 612.375,561.5 608.0,559.125 603.875,556.375 596.75,550.375 591.0,544.0"/>
    <polyline points="589.75,542.375 586.5,537.625 583.25,531.5 581.5,527.0 580.375,522.75 579.75,517.125 579.875,514.375 580.375,510.375 581.5,506.375"/>
    <polyline points="582.0,505.0 585.125,498.125 589.75,491.0 597.125,481.5 611.875,464.125"/>
    <polyline points="613.75,461.875 621.625,451.375 627.625,441.625 631.5,433.875 633.25,429.5 635.0,424.75 636.5,419.375 639.0,407.0 639.625,399.625 639.875,391.25 639.375,381.75 638.125,370.75 635.75,358.125 631.875,343.375 626.125,326.125 618.125,306.0 606.75,282.5 591.5,255.25 571.125,224.125"/>
    <polyline points="544.625,189.625 511.25,153.125 470.625,117.625 424.25,88.25 375.25,71.125 328.875,72.25 290.5,94.375 263.875,135.0 249.375,187.625 245.0,244.625 247.125,299.375 252.75,348.0 259.625,389.125 266.375,422.5 272.5,448.875 277.875,469.0 282.5,484.0 286.75,494.625 290.875,501.75 295.25,506.0 300.125,508.0 305.625,508.0 311.75,506.625 318.75,504.0 334.5,496.75"/>
    <polyline points="343.125,492.625 369.75,480.125 386.625,473.125 401.875,467.625 415.25,463.875 421.375,462.625 427.0,461.625 437.0,460.75 441.5,460.625 449.5,461.125 456.625,462.25 462.75,463.75 475.625,468.5"/>
    <polyline points="477.75,469.5 495.25,478.375 503.0,481.875 507.5,483.375 512.625,484.5"/>
    <polyline points="513.625,484.625 519.0,484.625 523.375,483.75 525.125,483.125 530.25,480.625 535.5,476.75"/>
    <polyline points="536.375,476.0 539.125,473.5 542.875,469.375 545.75,465.75 549.625,460.0 552.5,454.75 555.25,448.75 557.875,441.625 559.25,436.125"/>
    <polyline points="560.0,433.125 561.375,422.875 561.75,414.875 561.375,405.625 560.0,395.0 558.875,389.125 555.375,376.125 549.875,361.125 546.125,352.75 541.75,344.0 536.5,334.875 530.5,325.25 523.375,315.375 515.375,305.375 506.25,295.375 496.25,285.875 485.25,277.0 473.625,269.375 461.375,263.375"/>
    <polyline points="449.125,259.375 437.0,257.75 425.5,259.0 415.125,263.125 406.125,270.0 398.625,279.375 393.0,291.0 389.0,304.25 386.75,318.5 385.875,333.375 386.25,348.125 387.625,362.625 389.875,376.625 392.625,389.625 395.75,401.75 399.125,412.875 402.625,423.0 409.625,440.5 416.375,454.75 419.625,460.75 425.625,471.125 431.0,479.5"/>
    <polyline points="433.375,483.125 446.5,501.5 452.125,510.25 454.25,514.75 455.625,518.75 456.375,523.75 456.125,527.25"/>
    <polyline points="456.0,528.375 454.125,534.125 450.0,541.125 444.125,548.5 433.875,559.25"/>
    <polyline points="432.375,560.625 422.25,571.5 417.25,578.25 416.25,580.0 414.875,583.625 414.5,585.375 414.75,589.0 417.0,592.375 419.125,594.0 422.0,595.5 426.0,596.75 431.125,597.875 437.75,598.75 446.0,599.25"/>
    <polyline points="456.25,599.375 468.75,598.875 483.625,597.625 500.875,595.75 520.625,592.875 542.375,589.125 565.375,584.625 611.25,574.25 675.375,557.125 677.5,557.0 677.125,557.625 672.0,560.625 664.375,564.375 656.25,567.875 648.625,570.5 641.625,572.25"/>
    <polyline points="638.375,572.625 635.125,572.875 629.125,572.5 623.625,571.375 618.25,569.5 610.875,565.75 604.125,561.125 598.125,556.0 591.25,549.0 584.5,540.25"/>
    <polyline points="583.375,538.625 580.5,533.625 578.375,529.0 576.75,524.375 575.5,518.625 575.25,515.875 575.5,510.375 576.25,506.25 577.625,502.125"/>
    <polyline points="578.125,500.75 581.625,493.75 586.375,486.0 601.25,465.125 607.625,454.875"/>
    <polyline points="609.375,451.875 612.625,445.5 615.75,438.125 618.625,429.375 621.0,419.125 621.875,413.125 622.375,406.5 622.5,399.125 622.25,390.875 621.25,381.5 619.5,370.875 616.75,358.75 612.625,345.0 606.875,329.125 599.125,311.0 588.75,290.375 575.125,267.125 557.625,241.125 535.5,213.0 508.375,184.0 476.375,156.0 440.125,132.125"/>
    <polyline points="401.625,116.5 364.0,113.0 330.875,123.875 305.0,149.125 287.75,185.75 279.0,228.875 276.75,273.75 279.0,316.875 283.875,355.625 289.75,389.0 295.875,417.125 301.75,440.0 307.0,458.375 311.75,472.875 316.125,484.125 320.125,492.625 323.875,498.75 327.625,503.125 331.375,506.0 335.25,507.75 339.25,508.375 343.5,508.375 348.0,507.75 352.625,506.625 362.375,503.625"/>
    <polyline points="367.375,502.0 387.625,495.625 397.125,493.25 410.25,491.0 421.625,490.375 431.375,491.125 439.625,492.875 446.375,495.375 453.75,499.375"/>
    <polyline points="455.25,500.375 458.125,502.5 461.625,505.75 464.375,509.0 466.5,512.25 468.0,515.25 469.125,519.25 469.375,523.25 469.0,526.0"/>
    <polyline points="468.75,527.0 467.125,531.75 464.5,536.625 460.875,541.625 451.5,552.75"/>
    <polyline points="450.5,553.875 444.25,561.5 441.5,565.625 440.0,568.375 438.875,571.25 438.25,574.125 438.375,575.5 439.125,578.375 440.0,579.75 443.0,582.25 445.125,583.5 448.0,584.625 451.625,585.625 455.875,586.375"/>
    <polyline points="461.125,587.0 474.625,587.5 483.125,587.375 492.75,586.75 515.625,584.375 528.625,582.625 542.25,580.375 556.25,577.75 583.625,572.0 606.75,566.25 628.0,560.0 633.0,557.875 633.25,557.25 620.0,556.25"/>
    <polyline points="616.875,556.0 610.875,555.0 605.125,553.5 597.375,550.375 590.75,546.5 585.25,542.25 580.75,537.75 578.25,534.75 575.125,530.25 572.25,524.5"/>
    <polyline points="571.625,523.0 570.375,518.875 569.875,516.125 569.625,510.75 570.0,506.625 571.375,501.25 572.875,497.125 577.25,488.375"/>
    <polyline points="578.125,486.875 590.875,466.375 595.0,459.125 600.5,447.375 603.25,440.25 605.625,432.0 607.5,422.375 608.125,416.875"/>
    <polyline points="608.625,410.875 608.75,404.125 607.625,388.5 606.25,379.25 604.0,369.0 600.875,357.375 596.5,344.25 590.625,329.5 582.875,313.0 573.0,294.5 560.375,274.0 544.625,251.75 525.375,228.375 502.25,204.625 475.625,182.25 446.125,163.375 415.0,150.75 384.5,146.875 356.75,153.5 333.875,170.875 317.375,197.375 307.125,230.375 302.625,266.5 302.375,302.75 305.125,336.875"/>
    <polyline points="309.625,367.875 315.0,394.875 320.5,418.0 325.875,437.375 331.0,453.375 335.625,466.5 339.875,477.125 343.875,485.625 347.5,492.25 350.875,497.625 354.125,501.625 357.125,504.75 360.125,507.0 363.125,508.75 366.0,509.875 368.875,510.625 374.75,511.25 383.25,511.0 396.75,510.0"/>
    <polyline points="399.25,509.875 408.5,510.125 412.5,510.75 417.75,512.125 422.125,514.0 425.625,516.375 428.25,519.125 430.0,522.0 431.0,526.25"/>
    <polyline points="431.125,527.375 430.75,530.75 429.0,535.375 426.875,539.0 424.0,542.75 418.875,548.0 415.75,550.625 410.25,554.875 403.875,559.25"/>
    <polyline points="401.5,560.75 384.25,570.125 369.125,576.75 360.0,580.125 349.75,583.375 338.0,586.625 331.5,588.0 317.0,590.625 309.125,591.625 300.625,592.375 291.75,592.625 282.625,592.375 273.375,591.5 264.375,589.75"/>
    <polyline points="256.0,586.75 248.875,582.375 243.875,576.25 241.75,568.25 243.375,558.25 249.5,546.125 260.0,532.375 274.875,517.25 292.875,501.625 313.0,485.875 333.75,470.875 353.875,456.875 427.5,407.625 443.375,396.5 460.625,383.875 466.25,380.25"/>
    <polyline points="467.375,379.875 468.25,379.75 469.0,380.0 469.625,380.5 470.5,382.0 474.125,393.625 477.0,400.625 480.625,407.375 484.75,413.25"/>
    <polyline points="485.875,414.625 489.25,418.125 493.75,421.875 498.25,424.375 500.375,425.125 503.625,425.75 507.5,425.5 510.25,424.5 511.875,423.5"/>
    <polyline points="512.75,422.875 515.5,419.5 517.625,414.75 518.75,408.625 518.875,405.0 518.375,398.875 517.0,391.875 515.5,386.875 512.125,378.875"/>
    <polyline points="510.625,376.125 505.5,367.75 501.25,362.375 496.375,357.375 491.125,353.125 485.5,349.75 482.625,348.375 476.875,346.875 471.375,346.875 468.875,347.5 464.25,350.0 462.25,351.875 459.0,356.625 456.75,362.625 456.125,366.125"/>
    <polyline points="455.625,369.625 455.5,377.25 457.0,389.0 460.125,400.5 464.375,411.125 469.125,420.5 474.375,428.625 481.375,437.375 488.25,444.125"/>
    <polyline points="489.875,445.5 494.75,449.125 497.875,451.0 503.75,453.75 508.0,455.0 512.0,455.5 517.0,455.25 520.625,454.375 524.0,452.875"/>
    <polyline points="525.125,452.25 529.5,448.875 533.5,444.25 537.0,438.25 539.25,432.5 540.5,428.125 541.875,420.375 542.25,414.5 541.875,404.125"/>
    <polyline points="541.375,400.375 539.875,391.875 538.625,387.375 537.25,382.625 533.5,372.25 528.25,361.0 521.375,349.0 512.5,336.625 507.375,330.5 501.75,324.5 495.625,318.875 489.125,313.625 482.25,309.0 475.25,305.125 468.0,302.25 460.875,300.375 453.875,299.875 447.125,300.625 441.0,302.75 435.375,306.25 430.5,311.0"/>
    <polyline points="426.5,317.0 423.25,324.0 420.875,331.75 419.375,340.125 418.625,348.875 418.625,357.875 419.125,366.875 420.25,375.875 423.75,392.875 425.875,400.75 430.875,415.375 438.875,433.75 444.375,444.0 449.625,452.625 454.5,460.125 463.5,472.0"/>
    <polyline points="465.5,474.375 472.75,482.75 489.375,500.0 493.875,505.125"/>
    <polyline points="494.5,505.75 496.875,509.0 498.375,511.75 499.125,514.0 499.125,516.5"/>
    <polyline points="499.125,516.875 497.625,520.625 495.875,523.125 493.375,525.875"/>
    <polyline points="493.0,526.25 491.375,528.125 478.75,540.0"/>
    <polyline points="478.125,540.625 469.375,549.375 466.25,553.125 462.875,558.0 461.75,560.125 460.625,563.25"/>
    <polyline points="460.5,564.375 460.5,566.5 461.0,568.5 462.375,570.5 464.625,572.5 468.125,574.125 473.0,575.625 479.625,576.625 493.25,577.125 511.5,576.25 525.75,574.625 548.375,570.875"/>
    <polyline points="555.75,569.5 562.75,568.0 580.0,563.5 584.25,562.125 590.25,559.625 593.125,557.625 593.5,556.75 593.25,555.875 591.5,554.25 573.75,546.25 567.625,542.875"/>
    <polyline points="565.75,541.75 562.0,539.375 555.625,534.625 548.25,527.75 543.125,521.625 541.875,519.75 539.625,515.25"/>
    <polyline points="539.25,514.5 538.0,509.75 537.875,505.875 539.25,499.875 541.5,495.125"/>
    <polyline points="541.875,494.375 544.5,489.875 556.875,470.875 560.625,464.125"/>
    <polyline points="561.625,462.25 566.625,451.375 570.25,440.25 571.75,433.625 572.875,426.0 573.5,417.25 573.5,412.375 572.875,401.5 570.875,388.625 569.25,381.5 567.125,373.625 564.375,365.125 560.875,355.875 556.5,346.0"/>
    <polyline points="551.125,335.25 544.75,323.875 537.125,311.875 528.125,299.375 517.625,286.5 505.75,273.75 492.375,261.5 477.75,250.5 462.125,241.25 446.125,234.625 430.0,231.25 414.75,231.875 400.875,236.75 389.0,245.625 379.5,258.375 372.5,274.0 368.0,291.75 365.875,310.75 365.5,330.0 366.625,348.875 369.0,366.875 372.125,383.625 375.75,399.0 379.625,412.875 387.75,436.25"/>
    <polyline points="391.625,446.0 399.125,462.25 402.5,468.875 408.75,479.875 416.625,492.125 427.625,507.75 431.125,513.25 434.125,519.5 435.0,522.25 435.375,524.875"/>
    <polyline points="435.5,526.25 435.375,528.75 434.125,533.875 433.0,536.375 429.625,541.5 423.75,548.125 415.625,555.125 409.625,559.5"/>
    <polyline points="407.375,561.0 397.375,567.5 381.625,576.125 365.625,583.5 350.625,589.375 338.875,593.25 317.25,598.875 299.625,602.0 289.625,603.25 278.875,604.125"/>
    <polyline points="267.5,604.5 255.625,604.0 243.625,602.5 232.0,599.5 221.875,594.5 214.375,587.25 211.125,577.0 213.75,563.5 223.25,547.0 239.875,527.875 262.5,507.0 289.0,485.625 317.125,464.75 369.25,427.75 390.625,412.125 408.375,398.5 422.625,386.625 433.625,376.25 441.75,367.5 447.625,359.875 451.375,353.375 453.625,348.0 454.625,343.625 454.625,340.25 453.875,337.75"/>
    <polyline points="452.5,336.125 450.875,335.375 449.0,335.5 447.125,336.5 445.25,338.25 443.5,340.75 442.0,343.875 440.75,347.625 439.25,356.625 439.0,361.625 439.5,372.25 440.25,377.75 442.375,388.75 447.25,404.25 451.125,413.75 455.25,422.375 461.75,433.625"/>
    <polyline points="464.0,437.0 468.25,443.0 474.5,450.75 484.0,460.5 489.25,465.0 495.5,469.5 501.25,472.75 506.375,474.875"/>
    <polyline points="507.625,475.375 514.5,476.75 517.75,476.75 520.875,476.375 526.875,474.5 529.875,473.0 533.875,470.25"/>
    <polyline points="534.875,469.5 538.75,465.875 543.75,459.875 547.625,453.75 549.5,450.125 552.125,444.0 554.5,436.625 555.75,430.875 556.625,424.5"/>
    <polyline points="557.0,421.0 557.0,408.875 556.125,399.375 555.25,394.125 552.5,382.5 548.25,369.25 541.75,354.375 537.625,346.25 532.625,337.75 527.0,329.0 520.5,320.0 513.125,311.0 504.875,302.0 495.875,293.5 486.0,285.625 475.625,278.75 464.75,273.25 453.75,269.5 442.875,267.875 432.625,268.5"/>
    <polyline points="423.0,271.625 414.625,277.125 407.625,284.875 402.0,294.625 397.875,306.0 395.125,318.375 393.875,331.5 393.75,344.875 394.5,358.125 396.125,371.0 398.375,383.375 401.125,394.875 407.25,415.625 410.625,424.625 417.25,440.5 423.75,453.5 429.75,464.125 435.25,473.0 442.5,483.375"/>
    <polyline points="444.625,486.375 456.0,501.875 461.0,509.75 462.375,512.5 464.5,518.5 465.0,523.0 464.875,525.125"/>
    <polyline points="464.75,526.25 464.0,529.375 462.875,532.375 460.75,536.625 455.375,544.125 447.125,553.625"/>
    <polyline points="446.0,554.875 438.125,564.25 434.25,570.125 432.375,574.625 431.875,577.75 432.0,579.25 433.25,582.25 434.375,583.75 436.125,585.125 441.375,587.625 449.875,589.5"/>
    <polyline points="455.625,590.125 462.5,590.625 470.625,590.625 480.25,590.375 491.375,589.625 517.875,586.625 533.125,584.25 549.0,581.5 565.375,578.25 596.5,571.375 610.125,568.0 630.875,562.25 637.625,560.25 645.125,557.5 627.375,558.625"/>
    <polyline points="624.0,558.5 617.75,557.875 611.875,556.625 606.625,554.875 599.625,551.375 593.75,547.25 587.5,541.25 582.875,535.25 578.75,527.75"/>
    <polyline points="578.25,526.25 576.875,522.0 576.125,517.75 576.0,513.625 576.375,509.5 578.75,501.375 580.625,497.125 584.0,491.375"/>
    <polyline points="584.875,489.875 603.5,463.875 610.125,453.375 613.5,447.125 616.875,440.0 619.875,431.625 621.25,426.875"/>
    <polyline points="622.5,421.75 624.25,409.75 624.625,402.75 624.625,394.875 624.0,386.0 622.75,376.0 620.5,364.5 617.125,351.375 612.25,336.375 605.375,319.125 596.125,299.375 584.0,276.875 568.0,251.5 547.625,223.625 522.25,194.0 491.625,164.25 456.0,137.25 417.0,116.875 377.375,107.375 340.75,112.375 310.75,132.75 289.625,166.375 277.375,209.0 272.875,255.25 273.875,300.625"/>
    <polyline points="278.125,342.25 284.0,378.5 290.125,409.0 296.25,434.0 301.75,454.125 306.625,470.0 311.125,482.125 315.25,491.375 319.125,498.125 322.875,502.875 326.75,505.875 330.75,507.625 334.875,508.25 339.375,508.125 344.125,507.25 354.25,504.25 370.5,498.5 386.875,493.125 402.125,489.25"/>
    <polyline points="406.75,488.375 415.5,487.25 423.375,486.875 433.625,487.625 442.25,489.375 449.5,491.875 459.0,496.875 463.375,500.125 468.0,504.375"/>
    <polyline points="468.875,505.5 472.75,510.5 474.25,513.375 475.25,516.125 476.0,521.5 475.625,524.875 474.625,528.25"/>
    <polyline points="474.25,529.0 473.0,531.625 469.125,537.75 456.5,552.625"/>
    <polyline points="455.625,553.75 450.25,560.875 447.5,566.0 446.375,569.875 446.25,571.25 446.75,573.75 447.25,575.0 449.375,577.5 453.0,579.75 458.5,581.625 466.625,583.0"/>
    <polyline points="471.75,583.5 484.625,583.625 492.5,583.375 510.75,581.875 532.0,579.0 554.75,575.125 576.75,570.375 595.375,565.875 608.75,562.0 613.25,560.375 616.25,559.125 618.0,558.125 618.625,557.375 618.25,556.625 617.25,556.125 608.5,554.25"/>
    <polyline points="605.875,553.625 600.375,552.25 592.375,549.375 587.625,547.125 581.125,543.25 574.125,537.625 569.875,533.25 566.5,529.0 563.875,524.875 562.5,522.125"/>
    <polyline points="561.875,520.875 559.75,513.125 559.375,509.375 559.75,504.5 561.625,497.0 565.125,489.125"/>
    <polyline points="565.875,487.625 576.125,469.25 583.0,455.375 587.5,443.25 589.5,436.0 591.125,427.5"/>
    <polyline points="591.75,422.75 592.375,412.125 591.875,399.375 589.75,384.0 587.75,375.0 585.0,365.25 581.5,354.375 576.75,342.25 570.75,329.0 563.25,314.5 553.875,298.625 542.375,281.625 528.625,263.875 512.375,245.625 493.625,227.875 472.75,211.625 450.0,198.25 426.5,189.5 403.5,186.625 382.125,190.75 364.0,202.125 349.75,220.0 339.875,243.0"/>
    <polyline points="334.125,269.25 331.875,296.875 332.375,324.25 335.0,350.25 338.75,374.125 343.25,395.375 348.0,414.125 352.875,430.375 357.5,444.25 362.0,456.125 366.125,466.125 373.625,481.625 380.0,492.625 385.5,500.5 392.375,508.25 397.875,513.25 402.375,516.75"/>
    <polyline points="403.625,517.75 406.875,520.5 409.25,523.0 411.25,526.375 411.75,529.0 411.375,532.625 410.625,534.5 408.875,537.5 406.25,540.5"/>
    <polyline points="405.25,541.5 401.5,544.75 395.25,549.0 387.125,553.25 377.25,557.25 368.375,560.125 358.375,562.375 351.125,563.5 343.375,564.125"/>
    <polyline points="339.5,564.125 335.625,564.0 331.875,563.5 328.125,562.875 324.625,561.875 321.375,560.625 318.5,558.875 316.125,556.75 314.375,554.125 313.375,551.0 313.375,547.5 314.25,543.5 316.125,539.0 319.125,534.125 323.125,528.875 334.125,517.875 348.125,506.875 355.75,501.5 363.625,496.5 379.375,487.625 394.25,480.375 401.25,477.5"/>
    <polyline points="407.875,475.125 414.125,473.0 419.875,471.5 430.375,469.375 439.5,468.375 451.0,468.75 460.5,470.5 470.75,473.875 477.25,476.75 487.625,482.25"/>
    <polyline points="489.125,483.0 495.625,486.75 504.0,491.0 508.25,492.625 513.5,493.75"/>
    <polyline points="514.125,493.75 517.375,493.875 522.375,492.75 526.875,490.625 530.125,488.5"/>
    <polyline points="530.75,488.0 536.625,483.125 541.5,478.125 545.875,472.875 551.5,464.75"/>
    <polyline points="552.375,463.25 555.375,458.125 557.25,454.125 559.125,449.875 561.75,442.375 563.25,436.625 564.5,430.125 565.375,422.625 565.625,418.625 565.5,409.5 564.625,399.0 562.375,386.75 558.5,372.625"/>
    <polyline points="555.625,364.75 552.25,356.375 548.125,347.375 543.125,337.75 537.125,327.625 530.125,317.125 522.125,306.375 512.875,295.375 502.5,284.625 491.0,274.5 478.625,265.375 465.5,257.75 452.0,252.125 438.5,249.25 425.625,249.375 413.75,252.625 403.25,259.25 394.625,268.875 387.875,281.125 383.125,295.25 380.25,310.75 379.125,327.0 379.375,343.25 380.75,359.125 383.0,374.25 385.875,388.375"/>
    <polyline points="389.25,401.5 392.75,413.5 400.125,434.0 407.375,450.625 410.875,457.625 417.25,469.375 423.0,478.875 432.375,492.875 439.375,502.625 444.25,510.125 446.625,514.875"/>
    <polyline points="447.25,516.375 448.25,519.25 449.0,523.125 449.125,525.75 448.875,528.25 447.625,533.125 444.5,539.125 441.875,542.875 437.5,548.0"/>
    <polyline points="436.25,549.375 429.25,556.375 403.25,579.375 395.625,587.25 392.375,591.375"/>
    <polyline points="391.125,593.375 390.0,595.5 388.875,599.75 389.125,601.875 390.0,604.0 391.75,606.0 394.625,607.875 398.875,609.5 404.875,611.0 413.0,612.0 423.875,612.625 437.875,612.375 455.75,611.25 477.875,609.0 504.75,605.125 536.0,599.75 570.625,592.625 606.75,584.375 641.75,575.5 712.875,555.75 722.0,553.875 725.25,554.5 724.5,557.125"/>
    <polyline points="721.25,561.25 706.625,578.0 688.5,600.125 684.125,604.625 679.875,608.625 675.375,611.875 670.625,614.375 665.75,616.125 660.625,617.25 655.375,617.5 649.875,617.125 644.375,616.125 633.125,612.25 622.125,606.5 616.75,603.25 606.625,596.0 597.25,588.5"/>
    <polyline points="592.875,584.75 584.875,577.5 568.5,561.5 537.5,529.0"/>
    <polyline points="536.625,528.0 531.875,522.75 527.375,517.0 525.875,514.5 525.0,512.25"/>
    <polyline points="524.875,511.875 524.5,510.25 524.5,508.0 525.5,504.75 526.75,502.5"/>
    <polyline points="527.0,502.0 531.125,496.625 538.0,488.5"/>
    <polyline points="538.75,487.75 544.5,480.75 551.375,471.375 555.125,465.375 560.0,456.125"/>
    <polyline points="560.875,454.0 563.75,446.875 566.25,438.375 567.625,431.875 568.625,424.375 569.0,415.75 568.75,405.875 566.125,388.0 562.25,373.5 556.125,356.625 551.875,347.25 546.75,337.25 540.75,326.625 533.5,315.5"/>
    <polyline points="525.125,303.875 515.5,292.25 504.5,280.625 492.25,269.5 479.0,259.5 464.875,251.125 450.375,245.0 435.75,241.75 421.875,241.75 409.0,245.5 397.875,252.875 388.625,263.5 381.625,277.0 376.875,292.625 374.125,309.5 373.25,327.0 373.875,344.375 375.5,361.25 378.125,377.25 381.375,392.0 384.875,405.5 388.625,417.75 392.5,428.875 400.125,447.5 403.75,455.25"/>
    <polyline points="407.125,462.125 413.5,473.75 416.5,478.625 424.125,490.375 436.25,507.75 439.375,513.0 442.0,519.125 443.0,523.25 443.125,525.875"/>
    <polyline points="443.125,527.125 442.5,530.875 441.25,534.625 438.5,539.625 436.625,542.25 433.375,546.125 428.125,551.625 417.875,560.375"/>
    <polyline points="416.0,561.875 405.0,570.125 392.0,579.25 366.25,596.125 338.125,613.75"/>
    <polyline points="333.625,616.5 275.75,652.0 264.0,659.5 252.25,667.5 241.375,675.625 236.875,679.875 233.375,684.0 231.5,688.125 232.375,692.0 237.625,695.5 249.75,698.125 272.875,699.0 314.0,696.5"/>
    <polyline points="383.375,687.375 493.25,666.375 648.25,628.0 822.375,574.625 955.375,526.125 1010.375,506.5 1010.5,521.5 995.375,564.125 985.5,627.875 983.375,709.625 981.5,803.875 967.125,897.75 928.875,969.375 865.375,998.75 788.875,982.0 716.5,933.25 660.375,872.375 625.125,813.25 609.75,762.125 611.5,720.125 626.375,685.875 650.125,657.875 678.25,634.875 705.75,616.375 728.875,602.5 745.0,593.375"/>
    <polyline points="754.0,588.875 756.875,588.25 755.375,590.875 731.75,616.75 724.75,623.875 717.5,630.375 710.25,636.125 702.625,640.75 694.75,644.125 686.5,646.125 678.125,646.75 669.5,646.25 660.75,644.375 652.125,641.625 643.625,637.875 635.375,633.375 627.375,628.5 619.75,623.25 612.5,617.75 599.5,606.875 588.25,596.375"/>
    <polyline points="583.125,591.5 559.875,567.75 549.125,557.0 542.625,551.0 535.375,544.875 529.375,540.5 524.25,537.375"/>
    <polyline points="523.125,536.75 518.875,534.625 511.5,532.375 508.25,532.0 504.5,532.0 501.625,532.5"/>
    <polyline points="500.875,532.625 496.0,534.25 491.625,536.375 485.75,540.125 482.75,542.5"/>
    <polyline points="481.875,543.125 477.25,547.125 472.125,552.625 469.125,557.0 468.25,558.75 467.375,561.625 467.25,563.5"/>
    <polyline points="467.375,564.375 468.5,567.125 470.125,568.875 474.25,571.125 480.875,573.0 490.75,574.0 503.875,574.0 514.375,573.25 532.0,571.125 549.75,568.0"/>
    <polyline points="555.25,566.75 565.0,564.375 575.625,560.875 579.625,558.75 580.875,557.875 581.5,556.875 581.625,556.0 580.625,554.375 577.125,551.875 558.875,542.5"/>
    <polyline points="557.125,541.375 549.0,536.25 540.125,529.625 533.0,523.25 530.0,519.875"/>
    <polyline points="529.5,519.375 525.875,514.25 524.75,511.25 524.625,508.25"/>
    <polyline points="524.625,507.875 526.0,503.875 527.75,501.0 530.25,497.875"/>
    <line x1="530.625" x2="545.75" y1="497.375" y2="479.125"/>
    <polyline points="546.625,478.0 554.75,466.0 558.625,459.0 561.5,452.75 565.125,442.625 567.375,433.25 568.375,426.0"/>
    <polyline points="568.75,422.0 569.0,417.75 568.875,408.125 567.75,397.0 565.25,384.0 560.75,368.875 557.625,360.375 553.75,351.25 549.0,341.5 543.375,331.125 536.625,320.125 528.75,308.75 519.625,297.125 509.25,285.375 497.5,274.0 484.625,263.5 470.875,254.375 456.5,247.25 441.875,242.625 427.5,241.25 414.125,243.5 402.25,249.375"/>
    <polyline points="392.25,258.625 384.25,271.125 378.625,285.875 375.0,302.375 373.375,319.625 373.375,337.125 374.75,354.375 377.0,370.625 379.875,386.0 383.375,400.0 387.125,412.875 390.875,424.375 398.5,443.875 405.75,459.375 412.25,471.5 420.625,485.25 431.25,500.5"/>
    <polyline points="432.875,502.75 438.0,510.625 439.875,514.0 441.25,517.0 442.875,522.625 443.125,526.625 442.625,530.375 440.875,535.375 438.75,539.125"/>
    <polyline points="437.875,540.375 433.875,545.625 430.125,549.625 420.5,558.25 408.25,567.75 393.0,578.5"/>
    <polyline points="390.25,580.375 364.0,597.5 339.75,612.625 282.25,647.0"/>
    <polyline points="276.0,650.625 255.625,662.125 240.375,670.25 231.875,674.625 212.625,683.625 201.25,688.375 188.0,693.25 172.125,698.5 152.5,703.75 127.5,709.25 94.75,714.5 52.125,718.375 0.0,718.375"/>
    <polyline points="-0.0,547.5256 57.0,499.625 226.125,387.25 365.0,286.5 443.125,195.625 462.75,106.125 432.625,15.0"/>
    <polyline points="100.3666,0.0 80.625,87.375 80.0,211.375 90.0,315.75 101.0,393.25 110.0,445.0 119.0,474.875 131.375,486.625 150.75,484.125 178.75,470.75 214.25,450.125 253.75,425.75 292.625,400.625 327.25,376.625 355.625,354.625 377.125,335.125 392.0,318.0 401.25,303.5 405.625,291.5 406.25,282.125 404.25,275.625 400.5,272.125 395.625,271.625"/>
    <polyline points="390.625,274.125 385.875,279.5 381.75,287.375 378.75,297.375 376.875,309.0 376.125,321.75 376.5,335.125 377.75,348.625 379.875,362.0 382.625,374.875 385.875,387.0 389.375,398.375 393.125,408.875 397.0,418.5 404.75,435.25 412.25,449.0 419.25,460.25 428.5,473.375 436.375,483.375"/>
    <polyline points="438.75,486.125 452.625,503.0 455.0,506.125 457.75,510.5 460.25,515.625 461.0,518.125 461.5,520.375 461.75,524.875"/>
    <polyline points="461.625,526.0 461.0,529.25 459.875,532.5 457.0,537.875 452.125,544.625 443.5,554.375"/>
    <polyline points="442.375,555.75 434.875,564.125 429.25,571.625 426.875,576.5 426.125,579.625 426.125,581.25 427.125,584.5 429.875,587.5 432.125,588.875 435.125,590.125 439.0,591.375 443.875,592.25"/>
    <polyline points="450.0,593.0 466.375,593.5 476.875,593.125 489.25,592.25 503.375,590.75 519.125,588.625 536.375,585.875 573.125,578.75 591.125,574.75 622.625,566.875 644.0,561.0 655.625,557.5 644.875,560.0 634.25,561.625"/>
    <polyline points="630.75,561.75 624.25,561.625 615.625,560.0 608.25,557.125 603.875,554.625 598.125,550.5 590.5,543.0 587.0,538.375 583.5,532.25"/>
    <polyline points="582.75,530.75 580.25,523.5 579.5,517.875 579.5,515.125 580.125,509.75 581.25,505.75 582.875,501.625 585.875,496.125"/>
    <polyline points="586.75,494.625 594.5,484.0 613.875,460.5 619.625,452.625 625.5,443.125"/>
    <polyline points="627.5,439.5 629.375,435.5 632.875,426.625 635.875,415.875 637.0,409.625 637.75,402.5 638.125,394.625 637.875,385.5 636.875,375.125 634.875,363.25 631.625,349.375 626.625,333.375 619.5,314.5 609.625,292.625 596.125,267.25 578.125,238.0 554.5,205.375 524.375,170.125 487.25,134.5 443.875,102.75 396.5,80.5 349.5,73.75 308.125,86.625 276.875,119.125"/>
    <polyline points="257.625,166.375 249.25,221.0 248.75,276.125 253.0,326.875 259.375,370.75 266.25,407.125 272.625,436.25 278.375,459.0 283.25,476.25 287.75,489.0 291.875,497.875 296.125,503.625 300.5,506.875 305.5,508.125 311.0,507.75 317.25,506.0 324.125,503.375 331.625,500.125 364.75,484.625 381.25,477.625 396.5,472.0"/>
    <polyline points="403.5,469.75 416.25,466.5 427.375,464.625 437.0,463.875 441.375,463.875 449.125,464.5 456.0,465.75 464.875,468.25 472.25,471.125 487.625,478.875"/>
    <polyline points="489.125,479.75 496.125,483.625 504.125,487.375 511.5,489.625 515.625,490.0"/>
    <polyline points="516.375,490.0 521.5,489.375 525.125,488.125 528.875,486.25 533.5,483.0 535.0,481.625"/>
    <polyline points="535.875,481.0 542.75,474.0 549.25,465.375 554.125,457.25 558.75,446.75"/>
    <polyline points="559.625,444.25 561.25,438.875 562.625,432.75 563.625,425.875 564.125,418.0 564.125,409.0 563.125,398.625 560.875,386.625 556.875,372.625 554.125,365.0 550.75,356.625 546.625,347.875 541.75,338.5 535.875,328.625 529.125,318.375 521.25,307.875 512.25,297.375 502.25,287.0"/>
    <polyline points="491.125,277.125 479.125,268.25 466.375,260.875 453.375,255.5 440.375,252.625 427.875,252.5 416.25,255.5 406.0,261.75 397.5,270.75 390.75,282.375 386.0,295.875 383.0,310.75 381.75,326.25 381.75,342.0 383.0,357.5 385.125,372.375 387.75,386.25 391.0,399.25 394.375,411.125 398.0,421.875 405.25,440.375 412.25,455.25 418.75,467.25"/>
  </g>
</svg>
