<?xml version="1.0" encoding="utf-8" ?>
<svg xmlns="http://www.w3.org/2000/svg" xmlns:cc="http://creativecommons.org/ns" xmlns:dc="http://purl.org/dc/elements/1.1/" xmlns:ev="http://www.w3.org/2001/xml-events" xmlns:inkscape="http://www.inkscape.org/namespaces/inkscape" xmlns:rdf="http://www.w3.org/1999/02/22-rdf-syntax-ns" xmlns:sodipodi="http://sodipodi.sourceforge.net/DTD/sodipodi-0.dtd" xmlns:xlink="http://www.w3.org/1999/xlink" baseProfile="tiny" height="27.09333333cm" version="1.2" viewBox="0 0 1024.0 1024.0" width="27.09333333cm">
  <metadata>
    <rdf:RDF>
      <cc:Work>
        <dc:format>image/svg+xml</dc:format>
        <dc:source>vpype read './original_svgs/Strange Attractors #111.svg' linemerge linesimplify write './Strange Attractors #111.svg'
</dc:source>
        <dc:date>2024-08-05T01:35:27.143237</dc:date>
      </cc:Work>
    </rdf:RDF>
  </metadata>
  <defs/>
  <g fill="none" id="layer1" inkscape:groupmode="layer" inkscape:label="1" stroke="black" stroke-width="0.7mm" style="display:inline">
    <polyline points="268.875,320.375 223.375,345.75 197.0,354.75 180.875,347.875 171.625,325.25 168.375,285.0 173.25,223.125 191.0,134.0 230.5,14.25 237.9015,0.0"/>
    <polyline points="807.2235,0.0 824.5,59.125 840.75,168.75 842.75,235.375 834.75,264.875 815.0,266.75 780.25,251.375 729.0,229.375 665.5,210.5 599.25,199.75 540.25,196.25 494.5,195.5 463.375,193.375"/>
    <polyline points="445.125,187.25 437.625,176.75 438.875,162.875 447.25,147.375 461.375,133.0 480.0,122.375 501.25,118.0 523.5,121.25 545.0,132.625 564.0,151.125 580.0,174.625 592.5,201.0 601.625,228.125 607.75,254.375 611.625,278.625 613.625,300.5 614.25,319.5 613.75,336.0 612.625,350.125 610.875,362.125 608.875,372.375 606.625,381.0 604.125,388.375 601.5,394.625 599.0,400.125 596.375,405.0"/>
    <polyline points="593.75,409.25 588.875,416.75 580.25,428.75 576.75,434.125 571.375,444.0 569.375,448.75 567.875,453.25 566.875,457.75 565.875,466.25 566.125,472.125"/>
    <polyline points="566.375,474.0 567.375,479.5 569.75,486.125 572.25,490.75 575.375,495.125 577.625,497.75 581.625,501.625 587.875,506.375 593.125,509.625"/>
    <polyline points="669.625,535.5 646.5,529.75 624.125,523.0 608.25,517.125 603.625,515.125 595.125,510.75 599.125,512.875 608.0,516.875 615.5,519.875 623.75,522.75 642.625,528.5 653.375,531.375 669.25,535.125"/>
    <polyline points="673.5,536.125 691.75,540.0 712.375,543.5 723.75,545.125 742.125,546.875 748.625,547.125 762.625,546.875 770.0,546.25 777.75,545.125 785.875,543.25 794.375,540.5 803.375,536.5 812.75,530.75 822.5,522.75 832.375,511.625 842.0,496.375"/>
    <polyline points="850.125,475.5 854.875,447.625 852.75,411.375 838.25,367.0 804.625,317.625 748.0,270.875 672.5,236.0 591.5,217.75 519.75,212.875 465.5,213.125 429.375,211.25 408.875,203.25 400.5,188.125 402.25,166.875 412.625,141.5 430.625,115.5 455.25,93.0 484.625,78.625 516.25,75.75 547.0,86.0 574.5,108.0 596.875,138.625 613.75,173.625 625.625,209.125 633.125,242.625 637.375,272.5"/>
    <polyline points="639.125,298.125 639.125,319.375 638.0,336.75 635.75,350.75 633.0,361.875 629.625,370.625 625.75,377.5 621.625,383.0 617.25,387.5 612.75,391.125 603.5,396.875 581.75,408.375 574.375,413.25 571.125,415.75 565.25,420.875 562.75,423.5 560.375,426.25 556.375,431.75"/>
    <polyline points="554.625,434.5 550.375,442.625 546.625,453.25 544.875,460.625 543.5,469.625 543.125,475.875 543.5,484.875 544.25,489.75"/>
    <polyline points="544.625,491.25 545.75,495.5 547.875,500.625 549.125,503.0 552.125,507.375 557.625,513.25 564.375,518.625"/>
    <polyline points="565.625,519.5 578.75,527.625 595.0,536.75 609.5,546.0"/>
    <polyline points="611.625,547.625 618.0,552.875 624.0,559.125 627.625,564.125 630.75,569.75 632.0,572.875 633.75,579.875 634.0,583.75 633.875,587.875 633.25,592.375 632.0,597.125 630.0,602.125 627.25,607.375 623.5,613.0 618.75,618.625 612.875,624.25 605.875,630.0 597.625,635.375 588.375,640.375"/>
    <polyline points="578.0,644.75 566.875,648.375 555.125,651.0 543.25,652.625 531.5,653.125 520.125,652.5 509.625,650.875 500.25,648.5 491.875,645.375 484.75,641.625 478.75,637.625 474.0,633.5 470.125,629.25 467.125,624.875 464.875,620.75 462.25,612.625 461.25,605.0 461.125,597.875 462.875,582.125"/>
    <polyline points="463.375,579.25 465.375,563.75 465.75,550.875 465.5,547.0 464.375,540.0 463.0,535.25 460.5,529.375"/>
    <polyline points="459.75,528.0 455.375,521.375 448.5,514.0 436.5,504.0 425.125,495.625"/>
    <polyline points="423.0,494.0 413.875,487.0 409.0,482.875 398.5,473.0 390.0,463.375 387.125,459.5 381.25,450.75 378.375,445.625 372.625,433.625 370.0,426.625 365.125,409.75 363.125,399.625 361.625,388.125 360.625,375.25"/>
    <polyline points="360.375,360.5 361.0,343.875 363.0,325.25 366.625,304.375 372.25,281.5 380.375,256.875 391.375,231.25 405.625,205.625 423.25,181.625 443.875,161.375 467.0,147.125 491.5,140.625 515.625,143.0 538.25,154.0 558.0,172.25 574.25,195.75 587.0,222.0 596.375,249.0 602.875,275.0 607.25,299.125 609.875,320.75 611.25,339.75 611.625,356.25 611.5,370.25 610.0,392.375"/>
    <polyline points="608.875,400.875 607.75,408.125 605.125,419.375 603.75,423.875 602.5,427.625 599.875,433.875 591.75,449.625 589.875,454.125 588.5,459.75 588.25,463.875"/>
    <polyline points="588.375,465.25 589.0,469.125 590.875,474.0 594.875,479.625 598.0,482.625 601.75,485.25 607.75,488.25 612.875,490.0"/>
    <polyline points="614.75,490.5 618.5,491.25 624.75,491.875 633.875,491.375 638.75,490.5 643.625,489.0 651.125,485.375 653.625,483.75 658.25,479.75 662.5,474.625 664.25,471.625 665.75,468.25 667.0,464.5 667.875,460.375"/>
    <polyline points="668.25,455.875 668.0,451.0 667.125,445.875 665.625,440.5 663.25,435.0 660.0,429.375 655.875,423.625 650.875,418.125 644.875,413.0 638.25,408.125 630.875,403.875 623.0,400.375 614.75,397.375 606.375,395.25 598.125,393.875 590.125,393.25 582.375,393.25 575.125,393.875 568.5,395.0 562.375,396.625 556.875,398.625 551.875,400.875 547.375,403.25 543.5,406.0 536.875,411.625"/>
    <polyline points="534.125,414.5 529.375,420.375 524.0,429.125 520.0,437.375 509.125,463.625 505.5,471.125"/>
    <polyline points="504.75,472.5 500.625,478.875 499.25,480.625 496.375,483.375 493.375,485.375 491.0,486.5 488.625,487.25 486.125,487.625"/>
    <polyline points="485.25,487.75 481.5,487.75 478.5,487.375 470.75,485.375 461.75,481.5 455.875,478.375"/>
    <polyline points="454.25,477.375 447.625,473.125 438.625,465.875 430.875,458.125 424.75,450.625 420.625,444.75 414.625,433.75 410.75,425.0 407.25,414.5"/>
    <polyline points="405.75,408.5 403.25,395.0 402.375,387.25 401.875,378.875 401.875,369.875 402.25,360.125 403.25,349.625 405.0,338.375 407.5,326.5 411.0,314.125 415.5,301.5 421.125,288.75 427.875,276.125 435.875,264.375 445.0,253.875 455.125,245.0 466.0,238.5 477.5,234.625 489.0,233.75 500.25,236.125 511.0,241.375 520.875,249.375 529.5,259.5 537.125,271.375 543.375,284.375"/>
    <polyline points="548.5,297.875 552.5,311.5 555.5,325.0 557.75,338.0 559.375,350.25 561.0,372.625 561.25,382.5 560.75,407.75 557.375,454.625 557.125,461.375 557.125,470.125 557.375,472.75"/>
    <polyline points="557.5,475.125 558.5,481.875 560.0,487.625 561.25,491.125 564.5,497.375 567.5,501.625 572.25,506.75 576.25,510.25 580.875,513.625"/>
    <polyline points="582.5,514.75 593.5,521.25 624.75,536.625 633.375,541.125 642.25,546.375"/>
    <polyline points="645.375,548.375 651.375,552.625 657.375,557.75 663.125,563.75 668.125,571.0 670.125,575.25 671.875,580.0 673.125,585.25 673.625,591.125 673.375,597.625 672.0,604.875 669.375,612.875 665.0,621.75 658.625,631.25 649.875,641.5 638.25,652.0 623.625,662.375 606.0,672.125 585.5,680.625 562.75,687.0 539.0,690.875 515.5,692.0"/>
    <polyline points="493.25,690.375 473.625,686.5 457.125,681.125 444.0,674.875 433.875,668.375 426.5,662.25 421.5,656.5 418.25,651.5 416.25,647.125 415.5,643.5 415.375,640.25 416.0,637.5 416.875,635.25 419.75,631.125 433.5,617.875 437.5,613.5 441.25,608.75"/>
    <polyline points="443.0,606.25 446.25,601.25 450.625,593.375 453.0,588.125 456.625,577.875 458.875,568.25 459.75,561.5 460.0,553.375 459.5,547.875"/>
    <polyline points="459.25,546.0 457.0,537.875 455.75,534.875 452.625,529.125 448.625,523.875 445.125,520.125 439.625,515.125 434.875,511.375"/>
    <polyline points="433.25,510.0 405.75,490.625 392.0,479.5 386.125,473.875 379.875,467.125 376.75,463.375 370.375,454.375"/>
    <polyline points="367.125,449.25 360.875,436.875 357.875,429.375 355.0,421.0 352.375,411.5 350.0,400.5 348.25,387.875 347.125,373.5 346.75,356.875 347.75,337.75 350.125,316.0 354.625,291.5 361.75,264.125 372.125,234.625 386.25,203.625 404.75,173.125 427.625,145.625 454.25,124.25 483.375,112.0 513.0,111.0 541.0,121.5 565.625,142.25 585.625,170.0 601.0,201.5 612.0,233.75"/>
    <polyline points="619.375,264.375 624.0,292.125 626.5,316.375 627.625,337.0 627.75,354.375 627.125,368.75 626.0,380.375 624.5,389.875 622.75,397.625 620.875,403.875 618.75,408.875 616.5,412.875 614.25,416.125 611.875,418.875 606.875,423.125 604.5,424.875 590.625,433.5 584.875,438.0"/>
    <polyline points="583.25,439.625 578.875,444.75 576.625,448.25 574.125,453.75 572.625,459.375 571.875,466.75 572.375,472.125 573.375,477.125 575.875,483.5"/>
    <polyline points="576.75,485.0 579.5,489.375 582.875,493.375 586.875,497.125 591.5,500.625 596.75,503.875 602.75,506.875 611.625,510.5 619.25,512.875"/>
    <polyline points="621.875,513.625 633.625,516.375 643.375,517.875 654.25,518.875 666.0,519.0 670.25,518.75 683.75,516.875 693.375,514.125 698.375,512.25 703.5,509.875 708.625,506.875 713.875,503.25 719.125,498.75 724.125,493.25"/>
    <polyline points="728.875,486.625 733.125,478.625 736.625,469.0 738.875,457.75 739.25,444.5 737.25,429.5 731.75,412.875 722.25,395.125 708.0,377.25 688.75,360.125 665.375,345.25 639.0,333.5 611.375,325.25 584.625,320.5 560.0,318.625 538.875,318.625 521.25,319.875 507.125,321.375 481.75,324.625 474.75,324.75 473.125,324.375 472.5,323.75 472.75,323.125"/>
    <polyline points="473.5,322.5 474.75,322.0 478.5,321.75 483.125,323.125 485.625,324.5 490.5,328.375 492.875,331.125 495.125,334.125 499.25,341.375 502.625,349.625 504.0,354.0 505.25,358.5 507.125,367.75 508.25,377.0 508.75,386.125 508.5,398.75"/>
    <polyline points="508.25,402.75 508.0,406.625 505.875,420.5 503.25,432.0 500.875,439.25 498.25,445.375 495.625,450.5 491.875,456.0 488.875,459.25"/>
    <polyline points="487.875,460.125 484.75,462.5 481.375,464.125 478.0,465.25 474.375,465.625 470.5,465.5 466.5,464.875 462.25,463.5 456.25,460.75"/>
    <polyline points="454.75,459.75 451.5,457.75 448.25,455.25 441.375,449.0 437.875,445.0 432.625,437.875 427.5,428.875 424.25,421.625 422.75,417.5 420.125,408.5 417.875,398.0 416.5,385.875"/>
    <polyline points="416.25,379.125 416.625,364.375 418.75,347.75 420.625,339.0 423.125,329.875 426.375,320.75 430.125,311.5 434.75,302.5 440.125,293.875 446.25,286.0 452.875,279.0 460.25,273.375 468.0,269.125 476.0,266.625 484.125,266.125 492.0,267.375 499.75,270.625 506.875,275.5 513.5,282.0 519.5,289.875 524.625,298.625 529.0,308.125 532.75,318.0 535.75,328.0"/>
    <polyline points="538.125,338.125 541.25,357.5 542.125,366.625 542.75,375.375 543.125,391.375 542.875,405.5 541.75,423.5 537.875,460.125 536.75,473.375"/>
    <polyline points="536.625,475.625 536.625,485.375 537.125,491.75 537.875,495.875 540.125,502.875 542.25,506.75 544.125,509.375"/>
    <polyline points="544.75,510.25 548.5,514.25 554.0,518.75 561.625,523.75 571.0,529.0"/>
    <polyline points="572.375,529.75 588.75,538.875 599.875,546.0 609.25,553.625 616.125,561.5"/>
    <polyline points="617.625,563.75 619.125,566.125 621.5,571.375 623.0,577.375 623.375,580.75 623.375,584.25 623.125,587.875 622.25,591.875 620.875,596.0 619.0,600.25 616.375,604.75 613.125,609.25 609.0,613.875 604.125,618.625 598.375,623.125 591.75,627.375 584.25,631.375 576.125,635.0 567.375,637.875 558.125,640.25 548.75,641.75 539.375,642.375 530.25,642.25 521.625,641.375"/>
    <polyline points="513.625,639.75 506.25,637.625 499.75,634.875 494.25,631.75 489.375,628.25 485.5,624.625 482.25,620.875 479.625,617.125 477.625,613.375 475.0,605.875 474.25,602.25 473.5,595.25 473.625,585.375 476.125,560.75"/>
    <polyline points="476.25,558.5 476.75,551.875 476.75,544.25 476.375,539.0 475.625,534.25 474.125,528.625 473.125,526.0 472.0,523.5 469.25,518.875"/>
    <polyline points="468.5,517.75 466.0,514.5 462.0,510.25 457.5,506.125 453.625,502.875 435.875,489.375"/>
    <polyline points="433.875,487.875 427.875,483.0 419.0,475.125 409.5,465.0 404.5,458.75 399.375,451.375 394.25,442.5 391.75,437.5 387.0,425.75 382.75,411.375 381.0,403.0 379.5,393.625 378.5,383.25"/>
    <polyline points="377.875,371.625 378.125,358.875 379.0,344.625 381.125,329.0 384.375,311.875 389.125,293.625 395.75,274.25 404.5,254.5 415.375,235.0 428.5,216.75 443.75,200.875 460.75,188.75 478.875,181.625 497.25,180.125 515.125,184.625 531.75,194.75 546.25,209.5 558.375,227.5 568.25,247.625 575.75,268.375 581.375,288.875 585.25,308.375 587.875,326.5 589.375,343.0 590.25,357.75 590.5,371.0"/>
    <polyline points="590.375,382.625 589.5,401.875 588.125,416.875 583.75,451.875 583.375,459.75 583.5,464.125 584.0,468.125 585.375,473.375 587.25,477.875"/>
    <polyline points="588.125,479.375 591.0,483.375 595.75,488.0 600.125,491.0 605.125,493.625 610.75,495.875 619.25,498.125 623.875,498.875 631.5,499.375"/>
    <polyline points="634.25,499.375 639.875,499.125 648.75,497.625 658.0,494.5 664.25,491.125 670.5,486.625 676.25,480.375 678.75,476.625 681.0,472.375 682.875,467.625 684.25,462.125 685.0,456.25 684.875,449.625 683.875,442.5 681.75,435.0 678.25,427.0 673.375,419.0 667.0,411.0"/>
    <polyline points="659.125,403.25 649.875,396.125 639.375,389.75 628.125,384.375 616.25,380.25 604.375,377.25 592.625,375.375 581.375,374.625 571.0,374.875 561.5,375.75 553.0,377.375 545.5,379.375 539.0,381.75 533.25,384.375 524.125,390.125 517.25,395.875 512.125,401.75 508.125,407.375 502.125,417.75"/>
    <polyline points="501.0,420.125 494.375,432.625 491.25,437.5 488.125,441.75 486.0,444.125 481.625,447.75 480.5,448.375 478.125,449.625 474.5,450.75 473.25,450.875"/>
    <polyline points="472.0,451.0 468.125,451.0 462.75,449.75 457.0,447.125 452.5,444.0 446.375,438.375 444.875,436.625 440.375,430.375 436.0,422.625"/>
    <polyline points="434.625,419.625 432.0,413.0 429.75,405.375 428.875,401.25 427.375,392.0 426.625,381.5 426.875,369.875 427.5,363.5 429.625,350.375 431.375,343.375 433.5,336.5 436.25,329.5 439.375,322.625 443.0,316.0 447.125,309.75 451.75,304.125 456.75,299.125 462.125,295.125 467.75,292.0 473.625,290.125"/>
    <polyline points="479.625,289.375 485.5,290.0 491.25,291.75 496.75,294.875 502.0,299.0 506.75,304.125 511.0,310.125 514.875,316.875 518.125,324.0 521.0,331.5 523.375,339.25 526.75,354.75 528.75,369.75 529.375,377.0 529.75,390.375 529.625,402.625 529.0,413.625 527.0,432.25"/>
    <polyline points="526.5,436.25 524.25,450.125 520.625,468.125 515.5,489.25"/>
    <polyline points="515.25,490.25 512.75,498.625 511.375,502.375 510.375,504.25"/>
    <polyline points="510.25,504.5 508.75,506.5 506.5,507.625 503.875,507.625 499.625,506.5"/>
    <line x1="499.25" x2="486.875" y1="506.375" y2="501.625"/>
    <polyline points="486.25,501.25 476.375,496.875 461.625,489.125"/>
    <polyline points="460.25,488.25 451.25,482.75 444.5,478.0 437.125,472.125 433.25,468.625 429.125,464.625 420.625,454.75 416.25,448.625 414.125,445.125"/>
    <polyline points="411.875,441.5 407.625,433.0 405.625,428.25 401.75,417.25 400.125,411.0 397.25,396.625 396.25,388.5 395.5,369.625 396.0,359.0 397.0,347.5 398.875,335.0 401.625,321.875 405.5,308.0 410.625,293.625 417.0,279.125 424.875,264.875 434.125,251.625 444.75,239.75 456.5,230.125 469.25,223.375 482.375,219.875 495.5,220.25"/>
    <polyline points="508.25,224.25 520.0,231.75 530.625,242.125 539.75,254.875 547.5,269.25 553.625,284.375 558.625,299.75 562.25,315.0 564.875,329.5 566.75,343.375 568.0,356.125 568.625,368.0 569.0,378.875 568.75,397.75 568.0,413.375 564.875,457.5"/>
    <polyline points="564.875,460.75 565.125,469.25 566.375,478.75 568.125,484.625 569.625,488.25 572.25,493.125 575.5,497.5 578.0,500.25 585.25,506.375"/>
    <polyline points="586.875,507.625 598.125,514.25 609.5,519.375 622.625,524.5 651.75,534.125"/>
    <polyline points="655.5,535.25 684.125,544.5 693.25,547.75 707.375,553.625 717.125,558.5 722.125,561.375 726.875,564.5 736.25,572.375 740.5,577.375 744.375,583.125 747.625,590.0 749.75,598.25 750.625,608.125 749.375,620.125 745.0,634.5"/>
    <polyline points="736.5,651.75 722.0,671.875 699.375,694.375 666.625,717.875 622.875,739.625 569.5,756.0 511.25,763.5 455.375,761.125 408.375,750.875 373.5,737.25 350.25,724.5 336.375,715.375 329.125,711.0 326.5,711.375 327.25,715.75 330.625,723.375 336.375,733.125 344.125,743.625 354.125,753.875 365.875,762.625 379.25,768.875 394.0,772.0 409.25,771.625 424.75,767.625 439.75,760.5 453.75,750.75"/>
    <polyline points="466.75,739.25 478.25,726.75 488.25,713.75 496.75,701.0 504.0,688.625 510.0,677.0 515.0,666.375 522.25,647.875 524.75,640.0 528.375,626.625 530.5,616.0 531.625,607.5 532.375,594.875 532.375,581.875"/>
    <polyline points="532.375,580.125 533.0,572.5 534.0,567.375 534.75,565.125 535.875,562.125 537.875,558.625 539.5,556.375 542.0,554.0"/>
    <polyline points="542.625,553.5 544.75,552.125 547.0,551.125 549.375,550.375 551.875,550.0 555.375,549.875 559.125,550.375 564.0,551.625"/>
    <polyline points="565.0,552.0 571.125,554.75 576.125,558.125 578.875,560.625 581.5,563.625 583.625,566.875 585.25,570.625 585.875,573.375"/>
    <polyline points="586.125,574.875 586.0,579.5 585.25,582.625 583.875,586.0 581.75,589.25 579.0,592.5 573.5,597.0 569.125,599.5 561.375,602.5 555.875,603.625 553.0,603.875 550.25,604.0 544.75,603.625"/>
    <polyline points="542.125,603.25 539.5,602.625 534.875,600.875 530.75,598.5 529.0,597.25 525.875,594.25 523.375,590.875 521.5,587.375 519.375,580.125 518.875,574.625 518.875,571.125 519.625,564.5"/>
    <polyline points="520.0,562.875 522.25,554.5 524.75,548.875 528.75,542.875 530.625,540.875 533.25,538.875"/>
    <polyline points="534.0,538.375 537.5,536.75 542.25,535.75 547.625,535.75 555.625,537.125"/>
    <polyline points="556.625,537.5 564.875,540.125 571.25,542.875 578.0,546.5 582.125,549.125 589.125,554.375"/>
    <polyline points="590.5,555.625 595.5,561.125 597.75,564.375 599.625,567.875 601.0,571.875 601.875,576.125 602.0,580.75 601.75,583.25 601.25,585.75 599.25,591.125 597.875,593.875 596.0,596.625 591.375,602.25 585.125,607.5 581.375,610.0"/>
    <polyline points="577.375,612.375 568.25,616.375 558.25,619.125 553.125,620.0 542.75,620.5 537.75,620.25 528.5,618.5 524.25,617.125 520.375,615.5 513.75,611.375 511.0,609.125 506.5,604.125 504.75,601.5 502.125,596.125 499.875,587.875 499.25,582.5"/>
    <polyline points="499.125,579.875 499.375,570.0 500.125,563.25 502.875,546.625 505.25,534.875"/>
    <polyline points="505.375,533.75 507.25,523.5 507.75,518.0"/>
    <polyline points="507.75,517.75 507.5,514.625 506.75,512.75 505.25,511.0 501.5,508.625"/>
    <line x1="501.25" x2="491.25" y1="508.5" y2="503.875"/>
    <polyline points="490.625,503.625 479.25,498.5 470.375,494.0"/>
    <polyline points="469.25,493.5 457.625,487.0 446.625,479.75 439.375,474.25 429.5,465.125"/>
    <polyline points="427.5,463.0 421.0,455.5 416.625,449.5 410.125,438.5 406.0,429.375 402.125,418.625 398.75,405.875 397.375,398.5 395.625,381.625 395.375,372.0 395.625,361.5 396.5,350.125 398.25,337.875 400.75,324.75 404.375,311.0 409.25,296.75 415.375,282.125"/>
    <polyline points="422.875,267.875 431.875,254.125 442.25,241.875 453.75,231.75 466.375,224.25 479.5,220.0 492.75,219.5 505.625,222.75 517.625,229.5 528.5,239.375 538.125,251.75 546.125,265.75 552.625,280.875 557.875,296.25 561.75,311.625 564.625,326.375 566.625,340.375 568.0,353.5 568.75,365.625 569.125,376.625 569.0,396.0 567.375,425.125"/>
    <polyline points="566.875,430.875 565.75,445.375 565.0,460.0 565.25,468.75 565.75,473.75 567.0,480.25 568.875,486.0 571.375,491.125 575.5,497.125"/>
    <polyline points="576.75,498.5 582.125,503.75 585.25,506.125 590.375,509.625 596.0,512.875 600.125,515.0 611.75,520.125 628.375,526.125"/>
    <polyline points="631.375,527.25 679.625,542.25 702.625,550.25 712.5,554.25 722.625,559.125 732.625,565.25 737.5,569.0"/>
    <polyline points="742.25,573.25 746.625,578.25 750.625,584.25 753.875,591.375 756.125,599.875 756.75,610.375 755.25,623.0 750.375,638.25 740.75,656.625 724.5,678.125 699.125,702.0 662.625,726.75 614.0,749.0 555.75,764.375 494.0,769.5 436.75,764.125 390.75,751.625 358.125,737.125 337.375,724.875 325.75,717.375 320.375,715.25 319.25,718.25 321.5,725.375 326.375,735.625 333.75,747.5 343.5,759.75"/>
    <polyline points="355.625,770.75 369.875,779.375 385.625,784.625 402.5,785.625 419.625,782.5 436.375,775.5 452.25,765.375 466.75,753.0 479.625,739.25 490.75,725.0 500.125,710.875 507.875,697.375 514.25,684.75 519.375,673.25 523.5,662.875 526.625,653.625 530.75,638.25 532.875,626.125 533.375,621.125 533.75,612.625 533.125,602.875"/>
    <polyline points="532.875,600.125 530.375,583.25 530.0,576.75 530.375,571.0 531.375,565.75 533.375,560.25"/>
    <polyline points="533.75,559.25 535.875,555.75 537.625,553.5 541.625,550.125 544.625,548.5 547.875,547.5 551.375,547.0"/>
    <polyline points="552.25,547.0 557.0,547.25 564.25,549.0 571.875,552.375 575.25,554.375 578.5,556.75"/>
    <polyline points="579.5,557.625 583.5,561.625 586.875,566.375 589.125,572.125 589.75,577.0 589.125,582.25 586.875,587.875 584.375,591.625 581.125,595.25"/>
    <polyline points="579.125,597.125 571.875,601.875 566.25,604.5 563.125,605.5 560.0,606.375 553.375,607.375 550.125,607.625 543.75,607.375 537.625,606.25 534.875,605.375 529.75,603.125 527.5,601.75 523.625,598.5 522.0,596.75 519.25,593.0 517.25,589.125"/>
    <polyline points="516.5,587.0 515.375,583.0 514.5,576.875 514.625,569.125 515.0,565.5 516.625,557.375 518.375,551.75 520.75,545.875"/>
    <polyline points="521.25,544.75 524.375,539.625 527.75,535.875 531.375,533.375 533.375,532.5 536.125,531.875"/>
    <polyline points="536.75,531.75 540.625,531.375 547.375,532.125 553.375,533.5 560.0,535.75"/>
    <polyline points="561.25,536.125 572.875,541.125 580.0,545.0 588.875,551.0 596.0,557.5"/>
    <polyline points="597.375,559.0 602.125,565.75 604.625,571.875 605.5,576.5 605.75,579.0 605.375,584.25 603.875,589.875 602.625,592.875 598.875,599.0 596.375,602.125 590.125,608.125 582.0,613.75 572.25,618.625 566.875,620.5"/>
    <polyline points="561.25,622.125 555.5,623.25 543.875,624.375 532.75,623.625 527.5,622.625 522.75,621.25 518.25,619.5 514.25,617.5 510.75,615.25 504.875,610.125 502.625,607.375 500.625,604.5 497.75,598.625 496.0,592.875 495.0,587.0 494.625,581.5 494.75,573.5"/>
    <polyline points="495.0,571.0 496.5,557.375 499.25,538.875 500.0,529.5"/>
    <polyline points="500.125,528.625 500.0,522.75 499.625,520.0 498.25,515.625 496.625,512.875"/>
    <polyline points="496.375,512.5 492.125,508.25 487.875,505.25 483.875,502.875"/>
    <polyline points="483.125,502.5 465.875,493.0 456.5,487.375"/>
    <polyline points="455.0,486.5 445.25,479.875 437.875,474.125 432.0,468.875 425.75,462.5 419.25,454.625 414.875,448.375 410.5,441.0 406.125,432.375"/>
    <polyline points="404.125,427.375 400.25,416.125 398.625,409.625 395.875,394.75 395.0,386.25 394.375,376.875 394.375,366.75 395.0,355.625 396.25,343.625 398.375,330.75 401.5,317.125 405.75,302.75 411.375,288.0 418.375,273.25 426.875,258.875 436.75,245.625 448.0,234.125 460.375,225.0 473.625,219.25 487.125,217.0 500.5,218.625 513.25,224.0 524.875,232.875 535.25,244.5"/>
    <polyline points="544.0,258.25 551.25,273.25 557.125,288.875 561.625,304.625 564.875,319.875 567.25,334.5 568.875,348.125 570.25,372.25 570.375,392.5 569.25,416.375 566.5,451.75 566.25,458.75 566.375,467.625"/>
    <polyline points="566.625,470.25 567.625,477.25 569.25,483.25 571.625,488.625 574.375,493.375 576.625,496.25 581.75,501.625 588.0,506.5 593.375,509.875"/>
    <polyline points="673.875,536.5 707.375,543.5 724.0,546.25 736.0,547.75 748.875,549.0 762.625,549.625 777.5,549.0 785.375,548.0 793.75,546.375 802.5,543.75 811.75,540.0 821.375,534.375 831.5,526.5 842.0,515.375"/>
    <polyline points="852.125,499.875 861.0,478.375 866.5,449.125 864.75,410.625 849.25,362.875 812.5,309.625 749.875,259.5 666.625,223.5 579.125,206.25 504.125,202.75 449.375,203.25 414.875,199.625 396.875,188.125 391.875,168.375 397.875,141.875 413.625,111.75 437.875,82.75 469.0,60.625 504.375,50.5 540.375,55.75 573.375,76.25 600.875,108.625 621.5,147.5 635.875,187.875 645.0,226.0 649.875,259.625"/>
    <polyline points="651.875,288.0 651.625,311.0 649.875,329.375 647.0,343.625 643.25,354.5 638.75,362.625 633.625,368.75 628.0,373.5 622.0,377.0 615.75,379.875 609.375,382.25 584.75,390.875 573.875,395.75 564.625,401.125 560.625,403.875 553.5,409.875 547.75,416.125 543.125,422.375"/>
    <polyline points="541.125,425.375 537.75,431.625 533.75,440.375 529.875,451.375 526.0,465.375 523.125,478.375 522.375,483.0"/>
    <polyline points="522.125,484.375 521.25,489.375 520.375,498.0 520.625,505.625"/>
    <polyline points="520.75,506.0 521.75,509.375 522.5,510.75 523.875,512.625 525.875,514.5"/>
    <polyline points="526.25,514.75 532.625,518.625 538.625,521.375"/>
    <line x1="539.375" x2="563.375" y1="521.625" y2="532.125"/>
    <polyline points="564.625,532.75 575.75,538.125 588.375,545.5 594.875,550.25 599.75,554.5 602.75,557.625"/>
    <polyline points="604.25,559.375 608.25,565.125 610.375,569.5 611.875,574.5 612.625,580.0 612.125,586.0 611.5,589.25 610.375,592.625 606.75,599.625 604.25,603.25 601.125,606.875 597.375,610.5 593.125,614.125 588.25,617.5 582.875,620.75 576.875,623.625 570.5,626.125 563.75,628.25 556.75,629.875"/>
    <polyline points="549.625,630.875 542.5,631.375 535.625,631.25 529.0,630.625 522.75,629.375 516.875,627.75 511.625,625.75 502.875,620.625 499.375,617.75 493.875,611.5 491.875,608.25 490.25,604.875 488.0,598.375 486.875,592.0 486.375,585.75 486.5,577.0 487.125,569.0"/>
    <polyline points="487.375,566.5 489.0,553.0 490.0,540.5 489.75,530.75 488.75,525.125"/>
    <polyline points="488.5,524.125 488.0,522.125 486.5,518.5 483.75,513.75 479.25,508.75 474.5,504.625"/>
    <polyline points="473.5,503.875 448.5,486.875 439.75,480.375"/>
    <polyline points="437.875,478.875 429.875,472.0 423.5,465.625 414.5,454.75 407.625,444.125 403.125,435.375 401.0,430.5 396.875,419.0 395.0,412.5 393.375,405.25 390.875,388.625 390.25,379.0 390.0,368.5"/>
    <polyline points="390.5,357.0 391.625,344.375 393.75,330.875 396.875,316.375 401.25,301.0 407.0,285.125 414.375,269.0 423.25,253.375 434.0,238.75 446.125,226.0 459.625,216.0 474.0,209.625 488.75,207.25 503.25,209.25 517.125,215.5 529.625,225.5 540.625,238.625 549.75,253.875 557.25,270.375 563.25,287.375 567.625,304.125 570.875,320.375 573.125,335.625 574.5,349.75 575.375,362.75 575.75,374.5"/>
    <polyline points="575.75,385.25 575.125,403.5 571.875,444.75 571.25,455.875 571.25,462.125 571.75,470.0 572.5,474.5 574.75,482.375 576.375,485.875"/>
    <polyline points="577.25,487.5 580.375,492.0 584.125,496.125 590.125,501.125 595.25,504.5 601.0,507.625 607.5,510.5 622.75,515.625"/>
    <polyline points="625.5,516.375 641.125,519.625 651.75,521.125 659.5,521.75 667.625,522.0 676.375,521.625 681.0,521.25 690.5,519.75 695.625,518.625 706.125,515.0 711.5,512.5 717.125,509.375 722.625,505.375 728.25,500.5 733.75,494.375"/>
    <polyline points="738.75,487.0 743.375,478.0 746.875,467.125 749.0,454.125 748.75,439.0 745.375,421.75 737.875,402.625 725.125,382.625 706.625,362.75 682.625,344.75 654.125,329.875 623.375,319.0 592.625,312.375 564.25,309.375 539.5,308.875 519.0,309.75 481.375,312.75 474.875,312.75 470.75,312.0 468.25,310.75 467.25,309.125 467.5,307.375 468.625,305.5 470.625,303.875"/>
    <polyline points="473.125,302.625 476.25,301.75 479.625,301.5 483.25,301.875 487.125,303.0 490.875,305.0 494.625,307.625 498.25,311.125 501.75,315.125 504.875,319.875 507.75,325.0 510.375,330.625 514.625,342.75 516.25,349.0 517.625,355.25 519.5,367.875 520.625,385.75 520.625,396.625 519.75,411.375"/>
    <polyline points="519.25,415.875 516.375,435.0 512.25,452.25 510.875,456.875 507.375,466.375 504.625,472.25 502.5,475.875"/>
    <polyline points="501.875,477.0 499.125,480.625 497.0,482.75 492.5,485.875 486.875,487.625 482.375,487.75"/>
    <polyline points="481.375,487.75 478.375,487.375 474.125,486.375 465.625,483.375 458.625,480.0 449.25,474.125"/>
    <polyline points="447.5,473.0 440.375,467.375 436.5,463.875 430.625,457.875 424.5,450.375 422.5,447.5 420.375,444.375 416.375,437.375 412.375,429.125 410.5,424.5 407.125,413.875 405.5,407.875 404.25,401.25 403.125,394.125 402.375,386.375"/>
    <polyline points="401.875,378.0 401.875,368.875 402.375,359.0 403.375,348.5 405.25,337.125 407.875,325.25 411.375,312.875 416.0,300.125 421.75,287.375 428.75,274.875 436.75,263.25 446.0,252.75 456.25,244.125 467.25,237.875 478.625,234.375 490.25,233.875 501.5,236.5 512.125,242.125 521.75,250.25 530.375,260.625 537.75,272.625 544.0,285.75 549.0,299.25 552.875,313.0 555.875,326.375 558.0,339.25"/>
    <polyline points="559.5,351.5 560.5,363.0 561.25,383.5 560.625,408.5 559.875,422.0 557.875,447.25 557.125,461.75 557.5,475.375 558.5,482.0"/>
    <polyline points="559.0,484.125 562.125,493.0 563.75,496.125 567.625,501.75 569.875,504.375 575.0,509.25 582.75,514.875 588.0,518.125"/>
    <polyline points="589.875,519.125 597.875,523.5 625.125,536.75 633.625,541.25 645.75,548.5 654.75,555.375"/>
    <polyline points="657.75,558.0 663.375,564.125 666.0,567.625 668.375,571.5 670.375,575.75 672.125,580.5 673.25,585.875 673.75,591.75 673.375,598.375 671.875,605.75 669.0,613.875 664.5,622.75 657.875,632.375 648.75,642.625 636.875,653.125 621.875,663.5 603.875,673.125 583.125,681.5 560.25,687.625 536.375,691.25 512.875,692.0 491.0,690.0 471.625,686.0 455.5,680.5 442.625,674.125"/>
    <polyline points="432.875,667.75 425.875,661.625 421.0,656.0 417.875,651.0 416.125,646.75 415.375,643.125 415.375,640.0 416.0,637.375 417.0,635.0 418.375,632.875 421.625,629.125 433.625,617.75 439.625,611.0 443.25,606.125 448.0,598.375"/>
    <polyline points="449.375,595.75 453.125,587.875 456.0,580.125 458.0,572.75 459.375,565.75 459.875,561.375 460.125,555.125 459.25,545.875 458.0,540.875"/>
    <polyline points="457.5,539.25 455.75,534.625 454.25,531.75 451.625,527.625 448.625,523.75 441.0,516.125 433.25,509.875 427.75,506.0"/>
    <polyline points="425.875,504.625 415.25,497.375 400.375,486.375 391.875,479.25 382.875,470.25 379.75,466.75 373.375,458.625 367.0,448.75 360.75,436.25 357.75,428.75"/>
    <polyline points="354.875,420.25 352.25,410.5 350.0,399.5 348.25,386.75 347.125,372.125 347.0,355.375 348.0,336.125 350.625,314.125 355.25,289.375 362.625,262.0 373.25,232.25 387.75,201.375 406.625,171.125 429.75,144.0 456.5,123.25 485.75,111.875 515.25,111.75 543.0,123.125 567.25,144.5 586.875,172.625 601.75,204.25 612.5,236.25 619.625,266.625 624.0,294.125 626.5,318.0 627.5,338.5"/>
    <polyline points="627.5,355.625 626.875,369.625 625.75,381.25 624.25,390.625 622.5,398.25 620.5,404.25 618.375,409.25 616.25,413.25 613.875,416.5 609.125,421.5 601.875,426.75 592.625,432.375 588.5,435.25 583.25,439.875 579.0,445.0"/>
    <polyline points="577.875,446.75 575.0,452.125 573.25,457.75 572.5,461.5 572.25,468.75 572.875,474.0 574.25,478.875 576.25,483.625 579.875,489.375"/>
    <polyline points="581.0,490.75 584.625,494.75 588.875,498.375 593.75,501.75 601.25,505.875 607.625,508.625 614.75,511.25 625.5,514.25 631.375,515.5"/>
    <polyline points="634.375,516.125 647.75,517.875 659.0,518.5 667.125,518.25 675.75,517.375 680.25,516.625 689.625,514.375 699.5,510.5 704.625,507.875 709.75,504.625 714.875,500.625 720.0,495.75 724.875,489.75 729.25,482.625 733.125,474.0 736.0,463.75 737.375,451.75"/>
    <polyline points="736.75,438.0 733.375,422.625 726.25,405.75 715.0,388.25 698.875,370.875 678.25,355.0 654.0,341.5 627.5,331.375 600.625,324.75 575.25,321.375 552.375,320.375 532.875,320.875 516.875,322.25 486.875,326.5 477.75,327.5 475.375,327.375 474.0,327.125 473.5,326.75 473.75,326.25 475.75,325.5 479.125,325.75"/>
    <polyline points="481.125,326.375 485.5,328.75 487.75,330.5 492.125,335.25 494.25,338.25 496.125,341.5 499.5,348.75 502.25,356.875 505.0,369.75 506.25,382.625 506.5,391.0 506.25,398.875 504.75,413.125"/>
    <polyline points="504.125,416.25 503.0,422.375 500.875,430.375 497.625,439.25 495.875,443.125 493.125,448.0 488.125,454.25 485.0,457.0 481.75,459.0"/>
    <polyline points="480.625,459.5 477.125,460.75 473.375,461.25 469.5,461.125 464.125,460.0 458.25,457.625 455.125,455.875 448.75,451.375 445.5,448.375"/>
    <polyline points="443.875,446.75 438.75,441.0 435.375,436.25 428.875,424.5 425.875,417.125 423.25,408.625 421.125,398.875 420.375,393.375 419.375,381.375 419.625,367.75 420.25,360.25 422.875,344.375 425.0,336.125 427.75,327.625"/>
    <polyline points="431.0,319.125 435.0,310.625 439.625,302.625 444.875,295.0 450.875,288.25 457.25,282.5 464.125,277.875 471.375,274.75 478.75,273.25 486.125,273.375 493.375,275.25 500.375,278.875 506.75,283.875 512.625,290.125 517.875,297.625 522.5,305.875 526.5,314.75 529.75,323.875 532.375,333.25 536.25,351.75 538.25,369.25 538.75,377.375 539.125,392.5"/>
    <polyline points="539.0,399.5 538.125,417.75 536.75,433.0 532.75,464.625 531.375,478.25 531.0,485.375"/>
    <polyline points="531.0,487.0 531.75,497.5 533.25,503.375 536.0,509.0 538.125,511.625"/>
    <polyline points="538.625,512.375 541.75,515.375 546.25,518.875 551.625,522.25 560.375,527.0"/>
    <polyline points="561.5,527.625 575.25,534.625 586.5,540.875 591.625,544.125 600.375,550.625"/>
    <polyline points="602.125,552.125 607.25,557.0 610.375,560.875 613.125,565.0 615.5,569.875 617.125,575.125 617.75,581.125 617.25,587.875 616.375,591.5 615.0,595.25 613.125,599.125 610.625,603.125 607.625,607.25 603.875,611.375 599.375,615.5 594.25,619.5 588.375,623.25 581.875,626.75"/>
    <polyline points="574.75,629.75 567.125,632.375 559.25,634.5 551.0,635.875 542.875,636.625 534.875,636.625 527.25,636.0 520.0,634.75 513.375,633.0 507.375,630.75 502.125,628.0 497.5,625.0 493.625,621.875 490.375,618.5 487.625,615.0 485.5,611.5 483.875,608.0 482.5,604.375 480.875,597.5 480.125,587.75 480.5,578.625"/>
    <polyline points="480.625,575.75 482.75,555.75 483.375,545.75 483.375,538.875 483.0,534.375 481.75,527.75"/>
    <polyline points="481.375,526.5 479.25,520.875 474.875,514.0 470.0,508.625 462.75,502.5"/>
    <polyline points="461.5,501.5 436.875,483.375 426.75,474.75 417.875,465.75"/>
    <polyline points="415.625,463.125 410.875,457.125 406.0,450.25 401.25,442.0 396.625,432.25 392.25,420.375 388.5,406.0 385.875,388.5 385.125,378.25 385.0,367.125 385.5,354.75 386.75,341.125 389.125,326.375 392.625,310.625 397.5,293.875 404.0,276.375 412.375,258.875 422.5,241.75 434.625,226.125"/>
    <polyline points="448.375,212.75 463.625,202.75 479.625,197.0 495.875,196.125 511.625,200.25 526.25,209.0 539.125,221.625 550.25,237.375 559.375,254.875 566.5,273.375 571.875,291.75 575.875,309.625 578.5,326.5 580.25,342.0 581.375,356.25 581.875,380.625 581.75,390.875 580.25,415.625 577.625,442.625"/>
    <polyline points="577.25,446.625 576.625,459.625 576.75,462.375 577.0,467.25 578.625,475.625 580.625,481.0 584.375,487.125 589.25,492.5 593.625,496.0"/>
    <polyline points="595.25,497.125 600.5,500.25 608.5,503.875 617.875,506.875 623.0,508.125 631.375,509.625 637.5,510.25 647.25,510.625 654.375,510.25 661.75,509.25"/>
    <polyline points="665.625,508.5 673.75,506.25 682.0,502.875 690.5,497.75 694.75,494.375 698.75,490.375 702.625,485.625 706.25,480.0 709.375,473.5 711.75,465.875 713.25,457.25 713.5,447.375 712.125,436.5 708.5,424.625 702.5,412.0 693.75,399.125 682.0,386.5 667.375,374.75 650.25,364.625 631.625,356.375 612.25,350.375 593.125,346.625 575.125,344.75"/>
    <polyline points="558.75,344.5 544.375,345.375 532.25,347.125 522.0,349.125 513.625,351.375 506.875,353.625 501.375,355.875 497.125,358.0 493.625,360.0 488.875,363.5 487.25,365.125 485.125,368.125 484.0,371.0 483.375,373.875 483.0,378.0 482.875,385.125"/>
    <polyline points="482.75,386.625 481.75,394.875 481.25,397.375 479.75,402.0 477.75,405.875 476.0,408.125 474.125,409.875 472.0,411.0"/>
    <polyline points="471.375,411.25 468.375,411.5 465.375,410.625 463.875,409.625 460.875,406.875 457.625,401.5 455.625,395.625 454.875,392.25"/>
    <polyline points="454.625,390.5 454.25,386.75 454.25,380.5 454.75,376.25 456.125,369.75 458.5,363.5 460.5,359.75 463.0,356.5 465.75,353.875 468.75,352.0 470.375,351.375 472.0,351.0 475.25,351.125"/>
    <polyline points="476.875,351.5 480.0,353.0 481.5,354.125 484.25,357.125 486.75,360.75 488.75,365.125 490.5,370.0 492.125,377.75 492.875,383.125 493.125,388.5 492.75,398.75 491.625,405.875"/>
    <polyline points="491.25,408.0 488.25,417.875 485.125,424.125 481.625,428.875 478.75,431.625 475.625,433.5 472.375,434.625 468.875,434.875"/>
    <polyline points="467.75,434.875 464.125,434.125 459.125,431.75 456.625,430.0 454.125,427.75 450.375,423.5 448.0,420.0 444.625,413.625 441.75,405.875 439.5,396.5"/>
    <polyline points="438.875,393.0 438.25,385.5 438.125,377.25 438.875,368.375 440.5,359.0 441.75,354.25 445.0,344.75 447.0,340.125 449.375,335.625 452.125,331.5 455.0,327.625 458.125,324.125 461.625,321.125 465.125,318.625 468.875,316.75 472.75,315.625 476.625,315.125 480.5,315.375 484.375,316.5 488.125,318.25 491.625,320.625"/>
    <polyline points="495.0,323.625 498.125,327.375 503.5,336.0 507.75,346.0 509.5,351.375 510.875,356.875 513.0,367.75 513.75,373.25 514.75,388.875 514.625,398.625 514.125,407.5 512.75,419.625 511.625,426.75 509.5,436.125"/>
    <polyline points="508.875,439.0 506.625,446.625 504.25,453.0 499.375,463.125 497.625,465.75 494.125,470.0 490.625,473.25 487.75,475.0"/>
    <polyline points="486.75,475.5 483.875,476.625 480.75,477.25 473.875,477.25 468.875,476.25 464.875,475.0 459.125,472.5 456.125,470.875"/>
    <polyline points="454.5,470.0 448.0,465.625 442.625,461.375 439.0,458.0 435.25,454.125 431.5,449.625 425.625,441.5 420.0,431.25 416.5,423.0 413.25,413.375 410.625,402.0"/>
    <polyline points="409.5,395.5 408.25,381.125 408.125,373.0 408.375,364.375 409.25,355.125 410.5,345.25 412.625,334.875 415.375,324.125 419.0,313.125 423.625,301.875 429.125,290.875 435.5,280.375 443.0,270.625 451.375,262.125 460.375,255.375 470.0,250.625 479.875,248.125 489.875,248.25 499.5,250.875 508.625,255.875 517.125,263.0 524.625,272.0 531.125,282.375 536.625,293.625 541.25,305.5"/>
    <polyline points="544.875,317.5 547.625,329.5 549.75,341.125 551.25,352.25 552.375,362.875 553.25,382.125 553.375,390.75 553.0,406.25 552.25,419.5 549.0,459.75 548.625,468.75 548.75,473.875"/>
    <polyline points="548.875,476.25 549.125,480.75 550.375,488.5 553.0,496.5 555.875,501.875 558.5,505.625 560.5,508.0 566.125,513.375"/>
    <polyline points="567.375,514.375 572.75,518.375 578.875,522.375 604.0,536.375 613.0,541.875"/>
    <polyline points="615.375,543.375 625.0,550.25 632.0,556.625 636.375,561.625 640.25,567.5 643.375,574.25 644.375,578.125 645.125,582.375 645.375,586.875 645.125,591.75 644.125,597.125 642.375,602.875 639.625,608.875 635.625,615.375 630.5,622.125 623.875,629.125 615.625,636.0 605.875,642.75"/>
    <polyline points="594.5,649.0 581.75,654.625 567.75,659.125 553.0,662.375 538.125,664.125 523.5,664.375 509.625,663.25 497.0,660.875 486.0,657.5 476.625,653.375 468.875,648.75 462.625,644.0 457.875,639.125 454.25,634.375 451.625,629.75 449.875,625.375 448.75,621.25 447.875,613.5 448.625,603.25 451.125,591.25"/>
    <polyline points="451.875,588.375 455.125,573.25 456.0,566.375 456.375,560.0 456.25,554.125 455.25,547.0 453.875,542.125 452.0,537.5"/>
    <polyline points="451.25,536.0 446.875,529.125 442.375,524.0 438.375,520.25 433.875,516.5 427.125,511.625 414.875,503.625"/>
    <polyline points="412.625,502.25 394.75,490.5 382.875,481.5 376.5,475.875 369.875,469.125 363.0,460.875 359.5,456.125 352.625,444.625 349.25,437.75 345.875,429.875 342.875,420.75 340.0,410.375 337.5,398.25"/>
    <polyline points="335.625,384.25 334.5,367.875 334.5,348.875 335.875,326.75 339.375,301.25 345.5,272.125 355.0,239.625 368.75,204.5 387.75,168.375 412.125,134.125 441.75,105.625 475.125,87.125 510.0,82.25 543.5,92.125 572.875,115.125 596.625,147.375 614.375,184.125 626.75,221.5 634.75,256.375 639.375,287.25 641.75,313.625 642.5,335.375 642.125,353.125 641.0,367.125 639.25,378.125 636.875,386.5"/>
    <polyline points="634.25,393.0 631.25,397.875 628.0,401.5 624.5,404.25 620.75,406.375 612.75,409.25 592.375,414.875 581.5,419.375 575.25,423.0 569.875,427.125 565.375,431.625 561.5,436.375 557.25,443.625"/>
    <polyline points="556.0,446.125 552.625,455.875 551.125,462.75 550.25,473.5 550.5,479.375 551.25,484.75 553.0,491.25 554.75,495.625"/>
    <polyline points="555.375,497.0 556.875,499.75 560.375,504.75 567.0,511.5 573.75,516.75 586.875,524.875"/>
    <polyline points="588.75,525.875 612.375,538.875 624.75,546.75 629.75,550.5 637.125,557.25 641.75,562.5 645.75,568.625"/>
    <polyline points="647.5,572.25 650.0,580.125 650.625,584.75 650.625,589.625 650.125,595.125 648.625,601.0 646.375,607.25 642.75,614.0 637.875,621.125 631.5,628.625 623.375,636.25 613.5,643.625 601.75,650.75 588.25,657.25 573.25,662.5 557.25,666.5 540.875,669.0 524.625,669.625 509.125,668.75 495.125,666.25 482.75,662.75 472.25,658.375 463.75,653.5 457.0,648.375 451.875,643.375"/>
    <polyline points="448.0,638.375 445.375,633.625 443.5,629.25 441.875,621.125 441.75,617.375 442.0,613.875 443.0,607.5 444.5,601.5 451.125,578.5 452.5,571.625 453.25,565.25"/>
    <polyline points="453.375,563.25 453.375,557.375 452.875,552.0 451.75,546.875 450.125,542.125 448.125,537.75 446.5,535.0 442.5,529.625 437.625,524.625"/>
    <polyline points="436.25,523.5 430.25,518.625 423.25,513.875 395.625,497.75 380.75,488.5"/>
    <polyline points="377.625,486.25 370.875,481.25 360.375,472.0 356.625,468.25 349.25,459.375 341.625,448.0 338.0,441.125 334.375,433.125 330.875,424.0 327.625,413.25 324.875,400.625 322.625,385.875 321.25,368.5 321.0,347.875 322.375,323.625 326.125,295.125 333.0,262.125 344.0,224.75 360.25,183.875 383.0,141.875 412.625,102.5"/>
    <polyline points="448.5,71.25 488.625,54.0 529.375,54.625 566.75,73.5 597.875,106.625 621.375,148.125 637.875,191.75 648.375,233.125 654.5,269.75 657.5,300.375 658.375,325.25 657.875,344.625 656.25,359.5 653.75,370.625 650.625,378.5 646.75,384.125 642.375,387.875 637.375,390.25 632.0,391.75 626.125,392.625 600.75,394.75 588.5,396.75"/>
    <polyline points="582.625,398.125 572.125,401.75 563.125,406.25 555.625,411.5 552.375,414.25 546.875,420.0 542.375,425.875 537.25,434.625 535.875,437.5 531.5,448.5 527.25,463.0"/>
    <polyline points="526.625,465.125 524.125,476.5 522.5,485.625 521.5,493.625 521.25,499.0"/>
    <polyline points="521.25,499.75 521.5,504.25 522.25,507.375 523.0,509.5 524.625,512.0"/>
    <polyline points="524.875,512.25 526.375,513.875 530.25,516.75 535.5,519.5"/>
    <line x1="536.125" x2="557.375" y1="519.875" y2="529.25"/>
    <polyline points="558.5,529.75 568.625,534.375 577.25,538.75 585.125,543.25 594.875,550.125"/>
    <polyline points="596.5,551.375 599.75,554.25 604.375,559.25 607.125,562.875 609.5,567.125 611.375,571.75 612.0,574.25 612.5,576.875 612.75,582.625 611.75,589.0 610.625,592.375 609.125,595.875 604.625,603.125 597.875,610.375 593.625,614.0 588.75,617.5"/>
    <polyline points="583.375,620.625 577.375,623.625 571.0,626.25 564.25,628.375 557.125,630.0 550.0,631.0 542.875,631.5 535.875,631.5 529.25,630.875 522.875,629.75 517.0,628.125 511.75,626.0 507.0,623.625 502.875,620.875 499.375,618.0 493.75,611.75 490.125,605.25 488.75,601.875 487.875,598.625 487.125,595.375 486.25,589.125 486.125,583.0"/>
    <polyline points="486.125,580.125 486.625,571.75 488.75,553.125 489.625,542.125 489.75,536.0 489.375,530.75"/>
    <polyline points="489.25,529.5 488.0,523.125 485.75,517.625 482.75,513.0 480.25,510.0 478.0,508.0"/>
    <polyline points="477.25,507.25 469.0,500.875 447.5,486.25"/>
    <polyline points="445.875,485.125 434.75,476.5 424.375,466.75 417.75,459.125 410.875,449.75 406.25,442.0 401.75,432.875 397.625,421.875 394.0,408.75"/>
    <polyline points="392.375,401.125 390.25,383.625 389.875,373.5 390.0,362.375 390.875,350.25 392.5,337.125 395.125,323.0 398.875,307.875 404.0,292.125 410.625,276.125 418.875,260.125 428.875,244.875 440.375,231.125 453.375,219.75 467.375,211.625 482.125,207.375 496.875,207.375 511.125,211.875 524.25,220.25 536.0,232.125 546.125,246.625 554.375,262.625 561.0,279.625 566.0,296.625 569.75,313.125"/>
    <polyline points="572.375,328.875 574.125,343.625 575.25,357.125 576.0,380.625 575.875,390.75 575.125,408.0 572.25,442.875 571.375,457.75 571.875,468.875 573.375,477.625"/>
    <polyline points="574.0,479.625 575.375,483.25 579.0,489.75 581.25,492.75 586.5,498.0 592.875,502.75 598.375,506.0 604.625,509.0 611.5,511.75"/>
    <polyline points="613.875,512.625 630.5,517.25 640.0,519.125 650.5,520.625 658.125,521.25 666.25,521.5 679.375,520.875 688.875,519.375 698.875,516.75 704.125,514.875 709.5,512.375"/>
    <polyline points="715.0,509.375 720.5,505.5 726.125,500.75 731.5,495.0 736.625,487.875 741.125,479.25 744.875,468.75 747.125,456.375 747.375,441.75 744.625,425.125 738.0,406.625 726.5,387.125 709.375,367.5 686.75,349.25 659.625,334.0 629.75,322.375 599.375,315.125 570.875,311.375 545.625,310.5 524.5,311.125 484.625,314.5 477.625,314.75 472.875,314.375 469.875,313.5"/>
    <polyline points="468.5,312.125 468.25,310.625 468.875,309.0 470.5,307.5 472.625,306.125 475.375,305.25 478.375,304.875 481.75,305.125 485.25,306.0 488.875,307.625 492.375,309.875 495.875,312.875 499.125,316.5 502.25,320.75 505.125,325.5 507.75,330.625 510.0,336.125 513.75,347.875 515.125,353.875 517.125,365.875 518.25,377.625 518.625,388.625"/>
    <polyline points="518.625,394.0 518.25,403.875 517.5,413.0 516.5,421.25 514.0,435.5 509.75,451.875 506.0,462.0 503.125,468.25"/>
    <polyline points="502.375,469.625 500.125,473.25 497.75,476.25 495.5,478.625 492.25,481.125 488.0,483.125 486.25,483.625 481.375,484.125"/>
    <polyline points="480.375,484.125 476.125,483.75 471.625,482.75 465.25,480.5 456.625,476.375 451.875,473.5 446.875,470.0"/>
    <polyline points="445.0,468.625 439.625,464.125 433.875,458.5 429.875,454.125 425.875,449.0 421.875,443.0 417.875,436.125 414.125,428.0 412.25,423.375 408.875,413.0 406.125,400.625 404.375,386.125 403.875,377.875 403.875,369.0"/>
    <polyline points="404.375,359.5 405.5,349.25 407.25,338.375 409.75,327.0 413.25,315.0 417.625,302.875 423.125,290.625 429.625,278.75 437.375,267.5 446.125,257.5 455.75,249.125 466.25,242.875 477.125,239.25 488.125,238.375 498.875,240.5 509.125,245.375 518.625,252.875 527.0,262.5 534.375,273.625 540.5,286.0 545.625,298.875 549.625,312.0 552.625,325.0 555.0,337.625 556.625,349.625 557.625,360.875"/>
    <polyline points="558.25,371.5 558.625,381.375 558.25,406.5 556.625,431.625 555.375,445.875 554.375,463.75 554.625,474.625 555.125,479.25 556.25,485.375"/>
    <polyline points="556.75,487.25 558.5,492.5 560.75,497.125 562.5,500.0 565.5,504.0 568.875,507.625 574.125,512.25 578.625,515.5 585.375,519.75"/>
    <polyline points="587.125,520.75 597.0,526.25 618.25,537.125 629.0,543.25 637.25,548.75 642.875,553.0 648.25,558.0"/>
    <polyline points="650.875,560.75 653.375,563.75 657.75,570.625 659.625,574.625 661.125,579.0 662.125,583.875 662.625,589.125 662.375,595.0 661.25,601.5 659.0,608.625 655.375,616.25 650.125,624.5 643.0,633.25 633.625,642.25 622.0,651.25 607.875,659.875 591.5,667.625 573.0,674.0 553.375,678.5 533.25,681.0 513.625,681.125 495.375,679.25 479.25,675.625 465.5,670.875 454.5,665.375"/>
    <polyline points="445.75,659.625 439.375,653.875 434.625,648.5 431.5,643.5 429.5,639.0 428.5,634.875 428.0,631.125 428.125,627.75 429.5,621.875 430.5,619.125 434.125,611.75 443.125,595.625 445.25,591.0 447.875,584.125"/>
    <polyline points="448.625,581.875 450.0,577.375 451.375,571.0 452.25,562.875 452.25,557.125 451.625,551.875 450.5,546.875 448.125,540.75 445.75,536.5"/>
    <polyline points="444.875,535.125 443.0,532.5 438.5,527.5 435.875,525.0 429.875,520.25 419.125,513.25 403.5,504.5"/>
    <polyline points="401.0,503.125 387.125,495.5 377.75,489.875 371.125,485.5 364.125,480.375 353.125,470.625 349.25,466.625 341.5,457.125 333.625,444.875 329.875,437.25 326.125,428.5 322.75,418.125 319.625,406.125 317.0,391.75"/>
    <polyline points="315.125,374.75 314.375,354.625 315.125,330.625 318.125,302.125 324.125,268.75 334.375,230.375 350.0,187.625 372.375,142.5 402.375,99.0 439.75,63.0 482.25,41.25 526.25,38.75 567.125,56.75 601.25,91.375 627.0,135.625 644.75,182.5 656.0,226.875 662.375,265.5 665.375,297.625 666.25,323.25 665.375,342.875 663.375,357.5 660.375,368.0 656.5,375.25 651.875,379.875 646.5,382.75"/>
    <polyline points="640.5,384.375 633.75,385.0 603.75,385.75 596.125,386.375 581.875,388.625 575.25,390.375 569.125,392.375 563.625,394.625 553.875,399.75 549.75,402.625 546.125,405.625 539.875,411.625 537.25,414.75 532.875,421.0 529.25,427.125 525.0,435.875"/>
    <polyline points="523.875,438.75 519.75,449.125 514.5,464.25 510.75,474.0 506.25,483.375"/>
    <polyline points="505.75,484.375 502.5,488.875 499.75,491.5 497.5,493.0 494.5,494.25 491.125,494.75"/>
    <polyline points="490.5,494.75 489.125,494.875 484.375,494.375 478.125,492.75 467.125,488.375"/>
    <polyline points="465.875,487.75 454.625,481.625 443.0,473.5 439.25,470.5 433.375,465.125 429.375,461.0 423.125,453.625"/>
    <polyline points="421.0,450.75 414.625,440.75 412.5,436.875 408.5,428.0 404.75,417.5 401.625,405.0 399.375,390.125 398.625,381.625 398.5,372.375 398.75,362.25 399.625,351.5 401.125,339.75 403.625,327.375 407.0,314.375 411.5,300.875 417.25,287.25 424.125,273.625 432.5,260.75 442.125,249.125 452.875,239.25"/>
    <polyline points="464.5,231.875 476.75,227.375 489.125,226.25 501.25,228.5 512.875,234.0 523.375,242.625 532.75,253.625 540.75,266.375 547.375,280.375 552.75,294.875 556.875,309.375 560.0,323.625 562.125,337.25 563.75,350.125 565.25,373.125 565.375,392.625 564.375,416.0 562.25,443.5"/>
    <polyline points="561.875,447.75 561.25,465.0 562.0,475.5 563.25,482.0 564.375,485.875 567.375,492.75 571.375,498.75 575.0,502.75"/>
    <polyline points="576.25,504.0 580.5,507.75 583.625,510.0 590.625,514.5 594.5,516.625 610.25,524.25 629.375,532.25"/>
    <polyline points="632.375,533.5 648.625,540.5 659.125,545.625 666.375,549.625 673.625,554.25 680.875,559.75 684.375,563.0 690.875,570.625 693.625,575.25 696.125,580.375 698.0,586.25 699.125,592.875 699.25,600.625 698.0,609.375 694.875,619.375 689.5,630.75"/>
    <polyline points="681.125,643.375 668.875,657.0 652.375,671.25 630.75,685.375 604.25,698.125 573.375,708.25 540.125,714.625 506.625,716.375 475.5,713.75 448.75,707.875 427.375,700.0 411.5,691.625 400.25,683.875 392.875,677.25 388.5,672.25 386.375,668.625 385.75,666.5 386.5,665.375 388.0,665.0 396.75,666.5 404.875,667.375 409.375,667.25 414.125,666.625"/>
    <polyline points="418.875,665.625 423.875,663.875 428.75,661.75 433.625,659.0 438.375,655.75 443.125,652.0 447.5,648.0 455.75,639.125 459.5,634.375 466.125,624.75 469.125,619.875 476.625,605.875 484.0,589.0 489.0,574.875 490.75,568.625"/>
  </g>
</svg>
