<?xml version="1.0" encoding="utf-8" ?>
<svg xmlns="http://www.w3.org/2000/svg" xmlns:cc="http://creativecommons.org/ns" xmlns:dc="http://purl.org/dc/elements/1.1/" xmlns:ev="http://www.w3.org/2001/xml-events" xmlns:inkscape="http://www.inkscape.org/namespaces/inkscape" xmlns:rdf="http://www.w3.org/1999/02/22-rdf-syntax-ns" xmlns:sodipodi="http://sodipodi.sourceforge.net/DTD/sodipodi-0.dtd" xmlns:xlink="http://www.w3.org/1999/xlink" baseProfile="tiny" height="27.09333333cm" version="1.2" viewBox="0 0 1024.0 1024.0" width="27.09333333cm">
  <metadata>
    <rdf:RDF>
      <cc:Work>
        <dc:format>image/svg+xml</dc:format>
        <dc:source>vpype read './original_svgs/Strange Attractors #478.svg' linemerge linesimplify write './Strange Attractors #478.svg'
</dc:source>
        <dc:date>2024-08-05T01:36:03.384213</dc:date>
      </cc:Work>
    </rdf:RDF>
  </metadata>
  <defs/>
  <g fill="none" id="layer1" inkscape:groupmode="layer" inkscape:label="1" stroke="black" stroke-width="0.7mm" style="display:inline">
    <polyline points="519.625,425.0 521.625,420.875 524.5,416.625 526.375,414.5 531.0,410.125 537.0,405.75 544.625,401.5 549.0,399.625 559.0,396.0 564.625,394.625 577.25,392.375 584.0,391.875 598.25,392.0 605.5,392.75 612.75,394.125 619.75,396.0 626.375,398.375 632.375,401.375"/>
    <polyline points="637.75,404.75 642.375,408.625 646.125,412.875 648.875,417.375 650.625,422.125 651.5,426.875 651.375,431.625 650.5,436.375 648.875,441.0 646.625,445.375 643.875,449.625 640.625,453.625 637.125,457.25 633.375,460.75 625.25,466.875 617.0,472.125 608.875,476.625 597.25,482.25 586.625,486.625"/>
    <polyline points="583.375,488.0 561.375,496.0 534.375,505.125"/>
    <line x1="533.375" x2="518.875" y1="505.5" y2="510.625"/>
    <polyline points="518.625,510.75 515.125,512.5 514.0,514.0 514.0,515.125 514.5,516.75 518.0,524.375"/>
    <line x1="518.125" x2="523.5" y1="524.625" y2="536.375"/>
    <polyline points="523.875,537.0 530.25,553.0 532.375,559.875"/>
    <polyline points="532.75,561.125 534.625,569.375 535.25,573.875 535.625,578.875 535.375,586.0 534.75,589.75 533.0,595.75 531.25,599.875 528.75,604.125"/>
    <polyline points="527.125,606.25 523.125,610.625 518.125,615.0 511.625,619.125 507.75,621.125 498.75,624.75 487.875,627.625 481.875,628.75 475.25,629.625 468.25,630.0 461.0,630.0 453.375,629.625 445.625,628.625 437.875,627.125 430.25,625.0 422.875,622.375 415.875,619.125 409.625,615.375 404.0,611.0 399.25,606.375 395.5,601.375"/>
    <polyline points="392.75,596.125 390.875,590.75 390.0,585.375 390.125,580.125 390.875,574.875 392.375,570.0 394.5,565.25 397.0,560.875 400.0,556.75 403.125,553.0 410.125,546.25 413.625,543.25 420.75,538.125 434.375,530.0 453.875,520.5"/>
    <polyline points="456.25,519.5 468.0,514.125 477.875,509.0 482.875,505.75 485.875,503.25 487.625,501.375"/>
    <polyline points="488.125,500.75 490.75,496.25 491.75,492.25 491.875,488.5 491.125,482.625"/>
    <polyline points="491.0,481.75 489.375,474.625 485.125,458.875 483.0,448.625"/>
    <polyline points="482.75,446.625 482.25,442.625 481.875,433.75 482.375,426.25 483.375,420.875 484.125,418.0 486.375,411.875 489.625,405.375 491.875,401.875 494.5,398.375 497.75,394.75 505.875,387.125 511.125,383.25 517.25,379.375 524.25,375.5 532.5,371.75"/>
    <polyline points="541.875,368.125 552.625,364.875 564.75,362.0 578.25,359.875 593.125,358.5 609.0,358.125 625.625,359.125 642.625,361.75 659.25,366.0 674.75,371.875 688.5,379.5 699.875,388.625 708.375,398.75 713.75,409.5 716.125,420.5 715.875,431.25 713.375,441.375 709.125,450.75 703.5,459.25 697.25,466.875 690.5,473.5 683.625,479.375 676.75,484.375 670.0,488.875 657.625,496.0"/>
    <polyline points="651.875,499.0 617.625,514.875 609.125,519.125 604.375,521.875 598.375,526.0 595.25,528.625 590.25,534.125 587.75,538.375"/>
    <polyline points="587.125,539.75 585.75,544.25 585.25,548.875 585.25,552.0 586.375,558.75 588.125,564.125 590.5,569.75 593.625,575.75 599.25,584.25"/>
    <polyline points="600.875,586.375 604.375,591.0 610.75,598.125 618.5,605.5 624.625,610.625 631.625,615.625 639.875,620.625 644.625,623.125 655.5,627.625 661.75,629.625 668.625,631.375 676.375,632.875 685.125,634.0 694.875,634.625 705.875,634.5 718.375,633.5 732.375,631.25"/>
    <polyline points="748.125,627.5 765.5,621.875 784.625,613.875 804.875,602.875 825.375,588.375 844.75,570.0 860.75,547.875 870.75,522.5 872.375,495.375 864.25,468.5 846.5,444.125 821.25,423.75 791.75,408.25 761.5,397.375 732.875,390.625 707.875,386.75 687.0,385.0 670.5,384.5 657.875,384.875 648.875,385.75 642.875,387.0 639.25,388.5 637.5,390.25 637.375,392.25 638.25,394.625 640.0,397.25"/>
    <polyline points="642.0,400.25 644.25,403.5 648.125,410.875 649.5,415.0 650.375,419.25 650.625,423.5 650.25,427.875 649.375,432.25 647.75,436.5 645.75,440.625 643.25,444.625 637.125,452.0 629.875,458.625 626.125,461.5 618.25,466.875 614.25,469.25 602.5,475.25 591.625,480.125"/>
    <polyline points="588.125,481.625 575.375,486.375 564.5,490.0 545.625,495.375 534.0,497.875"/>
    <polyline points="532.75,498.125 527.375,498.875 522.25,499.125 516.25,498.375 513.625,497.375"/>
    <polyline points="513.125,497.25 509.875,495.25 507.0,492.5 502.625,486.5"/>
    <polyline points="502.25,485.875 499.75,481.5 495.375,472.125 491.375,460.875"/>
    <polyline points="490.875,459.375 489.25,453.125 487.75,444.0 487.375,435.5 487.625,430.875 488.375,425.875 490.625,417.625 493.25,411.75 497.125,405.375 499.625,402.125"/>
    <polyline points="502.5,398.75 510.0,391.75 514.75,388.125 526.625,381.0 533.875,377.625 542.125,374.25 551.625,371.25 562.125,368.5 573.875,366.375 586.625,364.875 600.375,364.25 614.875,364.625 629.75,366.375 644.625,369.375 658.875,373.75 671.875,379.625 683.125,386.875 692.25,395.25 698.875,404.25 702.875,413.875 704.5,423.5 703.875,433.0 701.375,441.875 697.375,450.25"/>
    <polyline points="692.375,457.875 686.625,464.75 680.5,470.75 674.125,476.25 667.75,481.0 661.5,485.125 655.375,488.875 644.0,495.125 629.125,502.375 609.75,511.25 600.875,515.75 595.875,518.625 587.875,524.0"/>
    <polyline points="586.25,525.375 583.25,528.0 580.75,530.75 577.0,536.25 575.125,540.5 573.875,546.375 573.625,552.625 574.5,559.375 575.375,563.0"/>
    <polyline points="575.875,564.75 577.625,570.625 579.875,576.75 595.5,612.375 599.25,622.0 601.5,629.0"/>
    <polyline points="602.5,632.625 603.375,636.5 604.5,644.5 604.5,653.25 602.625,662.75 600.625,667.875 597.75,673.25 593.75,679.0 588.125,685.0 580.875,691.25 571.125,697.75 558.5,704.375 542.375,711.125 521.875,717.5 496.125,723.25 464.75,727.375 427.5,729.0 385.125,726.5 339.75,718.375 295.125,703.5 256.25,681.625 227.25,654.25 210.625,623.875"/>
    <polyline points="205.75,593.875 209.75,566.75 219.25,544.0 231.0,526.125 242.75,512.75 253.5,503.5 262.5,497.625 270.0,494.5 276.125,493.625 281.125,494.5 285.625,496.875 289.875,500.125 304.25,513.625 310.125,518.5 316.625,523.25 323.75,527.625 331.25,531.75 339.25,535.375 347.5,538.5 355.75,541.125 364.0,543.25 372.125,544.875 387.625,547.0"/>
    <polyline points="394.75,547.625 408.0,548.0 414.125,547.875 425.0,547.25 434.625,546.25 453.625,543.125 483.5,537.125"/>
    <polyline points="485.125,536.875 492.125,536.0 500.0,536.0 505.5,537.0 508.5,538.0 510.625,539.125"/>
    <polyline points="511.375,539.5 515.75,542.875 519.625,547.375 522.625,552.25 524.875,556.875"/>
    <polyline points="525.375,558.0 528.625,568.625 529.625,577.125 529.625,580.25 528.875,586.875 526.5,594.0"/>
    <polyline points="525.625,595.875 523.5,599.625 518.75,605.375 514.5,609.125 509.125,612.75 506.0,614.5 498.75,617.75 494.625,619.125 485.25,621.5 474.5,622.875 462.75,623.125 456.625,622.75 450.25,621.875 444.0,620.625 437.875,619.0 431.875,616.875 426.25,614.25"/>
    <polyline points="421.0,611.375 416.25,608.0 412.25,604.25 408.875,600.375 406.125,596.125 404.25,591.875 403.125,587.5 402.625,583.125 402.75,578.75 403.625,574.5 404.875,570.5 406.625,566.5 408.75,562.875 411.25,559.375 413.875,556.125 419.75,550.125 425.875,545.125 432.125,540.75 438.25,537.0 446.875,532.375"/>
    <polyline points="449.625,531.125 457.125,527.625 483.25,516.75 490.375,513.5"/>
    <polyline points="491.125,513.125 495.25,510.875 498.125,508.875 499.875,507.25 501.625,504.625"/>
    <polyline points="501.75,504.25 502.25,502.625 502.375,500.0 501.125,494.125"/>
    <line x1="501.0" x2="493.875" y1="493.625" y2="474.75"/>
    <polyline points="493.5,473.625 489.375,461.125 487.375,453.375 485.875,444.125 485.5,440.0 485.5,433.375"/>
    <polyline points="485.625,430.875 486.25,425.875 487.5,420.5 489.5,414.75 492.5,408.5 497.0,401.875 499.875,398.375 507.25,391.25 511.875,387.625 517.375,383.875 523.625,380.25 530.875,376.625 539.25,373.25 548.75,370.0 559.5,367.125 571.375,364.75 584.5,363.0 598.75,362.125 613.75,362.375 629.25,363.875"/>
    <polyline points="644.875,366.875 659.875,371.375 673.625,377.375 685.625,384.75 695.375,393.375 702.5,402.875 706.875,412.875 708.625,423.0 708.0,432.875 705.375,442.125 701.25,450.875 696.0,458.75 690.0,465.75 683.625,472.0 677.125,477.5 670.625,482.375 658.0,490.375 646.5,496.625 631.5,503.875 619.25,509.375"/>
    <polyline points="615.625,511.125 601.0,518.5 594.5,522.625 587.75,528.125 584.0,532.125 580.5,537.75 578.75,542.125 577.875,546.625"/>
    <polyline points="577.75,548.125 577.75,553.0 578.125,556.25 579.25,561.5 580.875,567.125 583.125,573.0 586.0,579.25 590.625,588.375 596.375,598.375"/>
    <polyline points="598.0,601.125 608.875,618.5 627.25,646.25 640.5,667.0 645.875,676.25 651.125,686.125 655.75,696.75"/>
    <polyline points="657.625,702.5 659.125,708.375 660.0,714.75 660.0,721.375 658.75,728.625 656.0,736.375 650.75,744.75 642.375,754.0 629.25,764.25 609.75,775.375 581.125,787.375 540.0,799.625 482.625,810.125 405.625,815.625 310.0,809.5 206.0,784.375 115.125,735.5 59.625,668.75 45.875,599.0 60.75,540.125 85.625,498.25 107.75,473.125 122.0,462.0 128.25,462.5 129.125,472.25 128.125,489.75"/>
    <polyline points="129.75,512.875 137.5,539.375 153.5,566.125 177.625,590.75 207.625,611.0 240.125,626.375 271.5,636.75 299.375,643.25 322.5,646.625 340.375,647.875 353.25,647.625 361.75,646.125 366.625,643.875 368.5,640.625 368.5,636.75 367.0,632.25 362.25,621.125 360.0,614.875 358.25,608.25 357.375,601.375 357.375,594.5 358.25,587.625 360.0,581.0 362.625,574.625 365.75,568.625"/>
    <polyline points="369.5,563.125 373.625,558.0 382.5,549.0 391.875,541.75 401.0,535.75 413.75,528.75 425.125,523.375 457.125,509.625"/>
    <polyline points="458.875,508.75 468.0,503.625 471.5,501.125 475.25,497.875 477.375,495.375 479.5,492.0 481.125,487.5"/>
    <polyline points="481.375,486.5 482.0,481.625 481.375,472.5 478.0,455.0"/>
    <polyline points="477.625,453.25 476.0,443.625 475.25,434.75 475.5,424.5 477.0,415.875 480.5,406.0 484.5,398.875 490.25,391.25 494.125,387.125 498.75,383.0"/>
    <polyline points="504.125,378.75 510.625,374.5 518.25,370.125 527.125,366.0 537.5,361.875 549.375,358.125 563.0,354.875 578.375,352.25 595.375,350.625 613.75,350.375 633.125,351.75 652.75,354.875 672.0,360.25 689.75,367.625 705.0,377.125 717.125,388.125 725.5,400.375 730.125,413.0 731.25,425.625 729.375,437.75 725.125,448.875 719.25,458.875 712.375,467.625 705.0,475.375 697.375,481.875 689.875,487.5"/>
    <polyline points="682.625,492.25 675.875,496.375 663.5,502.875 652.75,507.875 629.125,517.875 618.5,523.0 614.25,525.5 609.0,529.25 606.25,531.75 603.0,535.625"/>
    <polyline points="602.125,537.0 600.75,539.625 599.75,542.375 599.125,545.25 599.0,549.625 599.75,554.25 601.375,559.0 603.875,564.0 606.125,567.5 610.375,572.75 613.875,576.25"/>
    <polyline points="615.875,578.0 620.25,581.625 625.5,585.25 631.5,588.625 638.5,591.875 646.625,594.75 656.25,597.125 667.625,598.625 674.0,599.0 680.875,599.0 688.375,598.5 696.5,597.5 705.25,595.875 714.5,593.5 724.375,590.125 734.625,585.875 745.125,580.375 755.625,573.625 765.75,565.5"/>
    <polyline points="775.0,556.0 782.625,545.125 788.25,533.125 791.0,520.375 790.5,507.25 786.5,494.375 779.0,482.25 768.5,471.25 755.625,461.875 741.125,454.125 725.875,448.125 710.375,443.625 695.5,440.625 681.5,438.625 668.5,437.625 656.875,437.25 646.25,437.375 636.875,437.875 628.625,438.5 614.75,440.25 603.875,442.125 591.5,444.875"/>
    <polyline points="588.125,445.625 575.0,448.75 568.875,449.875 562.25,450.625 557.875,450.625 553.0,450.0 549.75,449.0 547.125,447.625"/>
    <polyline points="546.25,447.125 544.125,445.25 542.125,442.375 541.5,440.625 541.125,436.875 541.375,434.75 542.5,431.5 543.75,429.25 546.5,425.875 549.0,423.625"/>
    <polyline points="550.375,422.5 551.875,421.375 557.375,418.375 564.125,415.875 569.25,414.625 574.625,413.875 583.25,413.75 586.125,414.0 591.75,415.125 597.0,416.75 599.375,417.875 601.5,419.125 605.125,422.125 606.625,423.75 607.75,425.625"/>
    <polyline points="608.5,427.375 609.125,429.375 609.375,433.375 608.375,437.375 607.625,439.25 605.25,443.125 600.25,448.5 594.25,453.125 587.5,457.0 582.875,459.25 578.125,461.125 569.0,463.875"/>
    <polyline points="566.875,464.5 556.5,466.25 550.875,466.625 542.5,466.25 539.375,465.75 533.875,464.125 530.25,462.5 527.0,460.375"/>
    <polyline points="526.0,459.625 522.375,456.0 520.125,452.875 517.875,447.875 516.625,442.25 516.625,435.625 518.5,428.25 520.25,424.375"/>
    <polyline points="521.375,422.25 524.375,418.125 528.25,413.75 530.625,411.625 536.375,407.375 543.5,403.125 552.125,399.375 557.125,397.625 562.375,396.125 574.25,393.75 587.5,392.75 594.375,392.875 601.5,393.375 608.5,394.375 615.375,396.0 621.875,398.0 628.0,400.625 633.625,403.75 638.375,407.25"/>
    <polyline points="642.375,411.25 645.625,415.375 647.875,419.875 649.125,424.5 649.625,429.125 649.125,433.75 648.0,438.25 646.125,442.75 643.75,446.875 640.875,450.875 637.625,454.625 630.25,461.5 626.375,464.5 618.25,469.875 606.25,476.625 602.375,478.5 587.875,484.875 581.25,487.375"/>
    <polyline points="578.25,488.5 557.625,495.75 532.0,503.5"/>
    <polyline points="531.0,503.75 522.125,506.0 516.5,506.625"/>
    <polyline points="516.125,506.625 513.125,506.25 510.375,504.625 508.125,502.0 505.75,498.125"/>
    <line x1="505.5" x2="498.875" y1="497.75" y2="484.125"/>
    <polyline points="498.5,483.25 495.875,477.25 492.125,467.375 488.375,454.375"/>
    <polyline points="488.0,452.75 486.5,443.5 486.125,435.0 486.75,427.75 487.75,422.5 489.5,416.875 492.25,410.75 494.0,407.625 498.75,401.0 501.75,397.5 505.375,394.0 509.5,390.375 514.5,386.75"/>
    <polyline points="520.125,383.125 526.75,379.5 534.25,376.0 543.0,372.625 552.75,369.625 563.75,366.875 575.875,364.75 589.25,363.375 603.5,362.875 618.5,363.625 633.875,365.5 649.0,368.875 663.5,373.75 676.5,380.125 687.625,387.875 696.375,396.625 702.625,406.25 706.125,416.125 707.125,426.0 705.875,435.5 702.875,444.625 698.375,452.875 693.0,460.5 687.0,467.25 680.625,473.25 674.125,478.5"/>
    <polyline points="667.625,483.125 661.375,487.25 644.0,496.875 613.75,511.0 601.75,517.0 591.0,523.875 587.625,526.625 583.625,530.625"/>
    <polyline points="582.5,532.0 579.625,536.25 577.75,540.5 576.875,543.375 576.125,549.5 576.5,556.125 577.125,559.5 578.5,564.875 581.25,572.75"/>
    <polyline points="582.125,574.75 588.25,588.125 609.75,628.375 615.0,639.375 618.125,647.25"/>
    <polyline points="619.625,651.5 622.0,660.25 622.75,665.0 623.25,670.0 623.125,675.125 622.5,680.625 620.875,686.375 618.25,692.5 614.25,699.0 608.25,706.0 599.875,713.375 588.375,721.25 572.75,729.5 551.75,737.875 524.0,746.0 488.125,753.0 443.125,757.375 388.875,757.0 327.875,749.0 265.875,730.875 211.5,701.5 173.125,663.25 154.375,621.25 153.25,581.25 163.5,547.375"/>
    <polyline points="178.625,521.375 193.875,503.0 206.75,491.5 216.625,485.5 223.625,484.125 228.5,486.5 232.125,491.75 240.0,508.25 245.875,518.25 253.5,528.625 263.125,538.75 274.75,548.125 287.75,556.5 301.75,563.625 316.125,569.25 330.5,573.75 344.125,577.0 357.0,579.25 368.875,580.75 379.625,581.5 389.25,581.75 397.75,581.625 405.25,581.125 417.75,579.625"/>
    <polyline points="422.875,578.625 431.375,576.5 441.0,573.125 450.5,568.75 466.25,560.75 470.75,558.875 476.375,557.0"/>
    <polyline points="477.625,556.625 482.75,555.5 488.625,555.0 491.875,555.125 494.75,555.5 498.375,556.5 503.125,558.875"/>
    <polyline points="503.875,559.375 507.625,562.875 510.75,568.25 511.875,571.875 512.375,575.875 512.0,580.25"/>
    <polyline points="511.875,581.375 510.25,586.125 507.375,590.875 504.125,594.375 499.75,597.75 494.25,600.75 487.375,603.125 482.25,604.25 473.625,605.0"/>
    <polyline points="470.625,605.0 467.625,604.875 461.5,604.0 452.625,601.375 447.25,598.75 444.875,597.125 442.75,595.5 439.25,591.75 436.75,587.5 436.0,585.375 435.5,583.125 435.25,578.625 436.125,574.125 436.875,572.0 439.0,567.875 441.875,564.0"/>
    <polyline points="443.375,562.25 448.625,557.375 452.5,554.5 462.25,548.75 471.5,544.75 476.625,543.0 483.0,541.375 487.25,540.625"/>
    <polyline points="488.625,540.5 491.125,540.125 497.0,540.0 502.0,540.625 506.375,541.875 509.5,543.375 512.375,545.25"/>
    <polyline points="513.0,545.75 516.75,549.5 519.5,553.25 523.375,560.75 525.5,567.625"/>
    <polyline points="525.875,568.875 526.5,572.875 526.875,578.5 526.25,584.75 524.375,591.375 521.75,596.625 519.25,600.25 514.0,605.5 509.375,609.0"/>
    <polyline points="506.75,610.625 500.5,613.75 493.125,616.5 484.5,618.5 474.75,619.75 464.0,620.0 458.5,619.625 447.125,617.875 441.625,616.375 436.125,614.5 431.0,612.25 426.25,609.625 422.0,606.625 418.125,603.375 414.875,599.875 412.375,596.25 410.375,592.375 409.125,588.375 408.375,584.375 408.25,580.5"/>
    <polyline points="408.75,576.5 409.75,572.75 411.125,569.125 412.875,565.625 415.0,562.25 417.25,559.125 422.5,553.375 425.375,550.875 434.0,544.125 445.375,537.25 455.75,532.125 468.875,526.5"/>
    <polyline points="470.875,525.875 484.625,520.625 498.875,515.625"/>
    <line x1="499.375" x2="507.5" y1="515.5" y2="512.125"/>
    <polyline points="507.75,512.0 509.5,510.5 509.75,509.25 509.125,506.875 507.125,502.375"/>
    <line x1="507.0" x2="502.5" y1="502.125" y2="492.625"/>
    <polyline points="502.25,492.125 498.375,483.625 493.875,472.5"/>
    <polyline points="493.5,471.375 490.0,461.125 488.75,456.625 487.0,448.125 486.25,442.25 486.0,435.75 486.5,428.625"/>
    <polyline points="486.875,426.125 489.0,417.875 491.5,411.875 493.125,408.75 497.5,402.25 500.375,398.875 507.75,391.75 512.375,388.125 524.0,380.75 531.125,377.25 539.375,373.75 548.75,370.625 559.375,367.75 571.125,365.375 584.0,363.75 598.0,362.875 612.875,363.0 628.125,364.5 643.5,367.25 658.25,371.625"/>
    <polyline points="672.0,377.5 684.0,384.75 693.625,393.25 700.875,402.5 705.375,412.375 707.25,422.25 706.875,432.0 704.375,441.375 700.5,450.0 695.375,457.875 689.5,464.875 683.25,471.125 676.75,476.75 670.25,481.625 663.875,485.875 651.75,493.0 640.875,498.625 611.75,512.125"/>
    <polyline points="608.625,513.625 595.75,520.75 590.0,524.875 584.25,530.25 581.0,534.375 578.75,538.625 577.25,543.0 576.5,547.5 576.5,549.125"/>
    <polyline points="576.375,550.625 576.75,555.625 578.125,562.5 582.125,574.125 587.125,585.125 596.5,602.75"/>
    <polyline points="598.125,605.5 612.0,630.75 619.25,645.875 622.5,654.125 623.875,658.625 626.0,668.0 626.5,673.0 626.625,678.25 626.0,683.75 624.5,689.625 622.0,695.875 618.0,702.5 612.0,709.625 603.5,717.25"/>
    <polyline points="591.75,725.375 575.5,733.875 553.75,742.625 524.625,751.0 486.75,758.25 439.0,762.75 381.375,761.875 316.75,752.625 251.75,732.125 196.375,699.75 159.125,658.375 143.25,614.0 145.25,573.0 157.75,539.125 174.0,514.0 189.375,496.875 201.75,486.875 210.625,482.625 216.625,483.0 220.75,487.0 224.0,494.125 227.625,503.375 232.625,514.125 239.625,525.5 248.875,537.0 260.5,547.875"/>
    <polyline points="274.125,557.625 289.125,566.0 304.75,572.875 320.375,578.125 335.5,582.125 349.75,584.875 362.625,586.625 374.25,587.5 384.625,587.875 401.375,587.125 414.0,585.5 419.125,584.375 423.5,583.25 430.625,580.625 436.25,578.0 443.0,574.0 450.25,568.875"/>
    <polyline points="451.875,567.75 459.875,562.5 464.625,559.875 470.625,557.125 474.875,555.5 480.375,554.0 487.875,553.0"/>
    <polyline points="489.0,553.0 492.375,553.0 495.375,553.375 500.125,554.625 504.875,557.125 507.625,559.375 509.875,562.125"/>
    <polyline points="510.5,562.875 512.75,567.0 513.75,569.75 514.75,576.0 514.625,579.375 513.875,583.125 513.125,585.625 511.25,589.375"/>
    <polyline points="510.375,590.75 507.25,594.5 504.625,597.0 499.5,600.625 493.0,603.625 487.875,605.375 485.0,606.0 475.875,607.25 469.25,607.375 465.75,607.125 458.875,606.125 452.25,604.25 449.125,603.0"/>
    <polyline points="446.125,601.5 443.25,600.0 440.75,598.125 436.375,594.125 434.625,591.875 433.25,589.5 431.5,584.625 431.125,582.125 431.375,577.25 431.875,574.75 433.625,570.0 436.25,565.625 439.5,561.5 447.25,554.5 453.5,550.25"/>
    <polyline points="455.625,549.125 463.875,544.875 475.125,540.5 484.625,538.0 491.375,536.875 496.125,536.625"/>
    <polyline points="497.125,536.625 502.125,537.0 506.375,538.0 509.375,539.25 512.125,540.875 516.375,544.5"/>
    <polyline points="517.0,545.125 520.75,550.125 524.125,556.375 527.0,564.0 528.25,569.125"/>
    <polyline points="528.5,570.375 529.125,576.125 528.875,584.0 527.25,590.875 524.875,596.375 521.125,602.0 517.625,605.75 513.125,609.5 507.625,613.0"/>
    <polyline points="504.5,614.75 497.0,617.75 488.25,620.25 478.125,622.0 472.625,622.5 466.875,622.625 454.75,622.0 448.625,621.0 442.5,619.625 436.5,617.875 430.625,615.625 425.25,613.0 420.25,610.0 415.875,606.625 412.0,602.875 408.875,598.875 406.5,594.75 404.875,590.5 403.875,586.125 403.625,581.875 403.875,577.625 404.875,573.5"/>
    <polyline points="406.25,569.5 408.0,565.75 410.25,562.125 415.375,555.5 421.25,549.875 427.375,544.875 436.5,538.75 448.0,532.5 455.75,528.875 470.625,522.625"/>
    <polyline points="472.375,521.875 489.25,515.0 497.5,510.625"/>
    <polyline points="498.0,510.375 500.0,508.875 501.875,506.875 503.0,504.5 503.25,502.875"/>
    <polyline points="503.375,502.625 502.875,498.125 500.75,491.75"/>
    <line x1="500.625" x2="492.5" y1="491.25" y2="470.25"/>
    <polyline points="492.125,469.0 488.75,458.125 486.875,449.75 486.0,444.125 485.625,433.25 485.75,430.875 487.0,423.125"/>
    <polyline points="487.75,420.375 489.75,414.625 492.75,408.375 497.25,401.75 503.5,394.875 507.625,391.25 512.25,387.625 517.75,383.875 524.125,380.25 531.375,376.625 539.75,373.125 549.25,370.0 560.0,367.125 571.875,364.75 585.125,363.125 599.25,362.375 614.25,362.625 629.75,364.125 645.25,367.125 660.125,371.625 673.875,377.75 685.75,385.125"/>
    <polyline points="695.375,393.75 702.375,403.25 706.625,413.25 708.25,423.25 707.625,433.125 705.0,442.375 700.75,451.0 695.5,458.875 689.625,465.875 683.25,472.125 676.625,477.625 663.75,486.625 657.625,490.375 646.125,496.625 606.0,515.625"/>
    <polyline points="603.25,517.125 594.125,522.625 588.875,526.625 582.625,533.5 580.125,537.75 578.5,542.0 577.625,546.5 577.5,552.875"/>
    <polyline points="577.625,554.5 578.125,557.875 579.875,565.125 584.5,577.0 592.75,593.125 602.375,609.375"/>
    <polyline points="604.125,612.25 620.625,638.75 629.875,654.5 638.75,672.25 642.375,682.25 643.75,687.625 644.75,693.125 645.125,699.125 644.75,705.375 643.25,712.0 640.375,719.125 635.375,726.875"/>
    <polyline points="627.75,735.25 616.375,744.25 599.875,754.125 576.625,764.5 544.125,775.125 499.625,784.75 441.0,791.25 367.375,790.875 283.125,778.5 199.375,749.375 132.75,703.0 96.0,646.125 89.5,589.5 102.75,542.0 123.25,507.375 142.5,485.25 156.625,473.75 164.875,471.0 168.75,475.375 170.375,485.375 172.125,500.0 176.375,517.625 184.875,536.75 198.5,555.875 217.0,573.375 239.125,588.25"/>
    <polyline points="263.0,600.125 286.875,608.75 309.375,614.75 329.375,618.5 346.5,620.5 360.5,621.125 371.75,620.875 380.375,620.0 386.75,618.5 391.375,616.625 394.625,614.375 396.75,611.75 398.0,608.875 398.875,605.875 400.5,592.0 402.25,584.5 403.5,580.875 406.75,573.75 411.125,567.125 413.625,564.0"/>
    <polyline points="416.25,561.125 421.75,555.75 427.625,551.0 436.5,545.0 442.375,541.625 453.125,536.125 462.625,532.0 478.0,526.375"/>
    <polyline points="479.5,525.875 488.875,522.875 495.875,521.0 503.375,519.625"/>
    <polyline points="503.875,519.625 505.75,519.375 508.5,519.5 511.0,520.125 512.625,521.0"/>
    <polyline points="512.875,521.125 516.0,524.125 518.375,527.875"/>
    <polyline points="518.625,528.25 521.75,533.875 525.75,542.5"/>
    <polyline points="526.125,543.375 529.0,550.5 531.875,559.25 533.625,565.75 534.625,571.5"/>
    <polyline points="534.875,573.0 535.375,581.25 534.625,588.625 533.75,592.5 532.375,596.5 529.125,602.75 527.75,604.875 524.125,609.25 519.375,613.5 513.375,617.75 505.75,621.625"/>
    <polyline points="501.25,623.5 491.125,626.625 479.0,628.875 472.375,629.5 465.25,629.75 457.875,629.5 450.25,628.875 442.625,627.75 435.0,626.0 427.5,623.625 420.375,620.75 413.75,617.375 407.75,613.375 402.5,609.0 398.25,604.125 394.875,599.125 392.5,593.875 391.125,588.5 390.625,583.25 391.0,578.0 392.0,573.0 393.75,568.25 396.0,563.625 398.75,559.375"/>
    <polyline points="401.75,555.5 405.0,551.75 411.875,545.25 422.5,537.375 429.375,533.25 442.0,526.5 470.625,513.375"/>
    <polyline points="472.125,512.625 478.625,509.125 483.5,505.875 486.375,503.5 489.125,500.375 491.125,496.625"/>
    <polyline points="491.375,496.0 492.125,493.375 492.375,489.0 492.0,485.0 489.875,475.5"/>
    <polyline points="489.5,474.375 485.375,458.5 483.5,450.0 482.25,440.125 482.125,433.375"/>
    <polyline points="482.25,430.875 482.375,428.375 483.75,420.25 485.625,414.375 488.5,408.125 492.625,401.25 495.375,397.75 498.75,394.125 507.125,386.5 512.5,382.625 518.875,378.75 526.125,375.0 534.5,371.25 544.125,367.625 555.125,364.5 567.5,361.75 581.25,359.75 596.25,358.5 612.25,358.5 628.875,359.875"/>
    <polyline points="645.75,362.625 662.125,367.25 677.25,373.5 690.5,381.375 701.25,390.625 709.125,400.875 713.875,411.625 715.75,422.625 715.0,433.125 712.125,443.125 707.625,452.375 702.0,460.625 695.625,468.0 688.75,474.5 681.875,480.25 675.125,485.125 662.125,493.125 650.5,499.375 623.5,511.75"/>
    <polyline points="620.0,513.375 610.875,517.875 603.5,522.0 599.5,524.75 593.125,530.125 588.75,535.625 587.25,538.5 586.0,541.375 585.25,544.375 584.75,549.0"/>
    <polyline points="584.75,550.625 585.5,557.25 586.375,560.625 590.0,570.0 593.125,576.0 600.25,586.75 607.875,596.125 612.375,601.0"/>
    <polyline points="615.0,603.5 620.5,608.625 626.875,613.75 630.5,616.375 638.625,621.375 648.125,626.375 653.625,628.625 659.75,630.875 666.5,632.75 674.0,634.5 682.5,635.75 691.875,636.625 702.625,636.75 714.75,636.125 728.375,634.375 743.875,631.25 761.125,626.25 780.25,619.0 800.75,608.75 822.0,595.125 842.625,577.5 860.625,555.75"/>
    <polyline points="873.375,530.5 877.875,502.75 872.375,474.5 856.5,448.25 831.875,426.0 802.125,408.625 770.5,396.5 740.5,388.75 713.875,384.25 691.625,382.0 674.125,381.375 660.75,381.625 651.375,382.5 645.125,383.75 641.5,385.25 640.125,387.0 640.25,389.125 641.625,391.625 649.0,401.25 651.5,405.125 653.625,409.375 655.125,413.875 656.125,418.5 656.5,423.25"/>
    <polyline points="656.0,428.0 654.875,432.75 653.125,437.375 650.875,441.875 648.0,446.125 644.75,450.25 641.25,454.0 637.375,457.625 629.25,464.0 625.125,466.875 616.625,472.0 604.5,478.25 589.625,484.75 571.0,491.625"/>
    <polyline points="568.25,492.625 548.875,499.125 529.0,505.25"/>
    <polyline points="528.25,505.5 521.25,507.375 516.125,508.25"/>
    <polyline points="515.875,508.25 513.625,508.25 511.75,507.625 510.0,506.125 508.25,503.375"/>
    <line x1="508.125" x2="503.75" y1="503.125" y2="494.875"/>
    <polyline points="503.5,494.375 500.875,489.0 495.875,477.25"/>
    <polyline points="495.375,476.25 491.625,466.125 489.5,459.25 487.25,449.25 486.125,439.5"/>
    <polyline points="486.125,437.25 486.375,430.25 487.75,422.5 489.375,416.875 492.125,410.875 496.0,404.5 498.5,401.125 501.625,397.625 509.25,390.5 514.125,386.875 519.875,383.25 526.375,379.625 534.0,376.125 542.5,372.75 552.375,369.625 563.25,366.875 575.5,364.75 588.75,363.375"/>
    <polyline points="603.0,362.875 618.0,363.5 633.375,365.375 648.625,368.75 663.125,373.5 676.25,379.875 687.5,387.625 696.375,396.375 702.625,405.875 706.125,415.75 707.25,425.625 706.125,435.25 703.125,444.375 698.75,452.75 693.375,460.25 687.25,467.125 680.875,473.125 674.375,478.375 668.0,483.0 655.625,490.75 649.75,494.0 629.5,503.875"/>
    <polyline points="625.25,505.875 613.875,511.0 602.0,517.0 595.0,521.25 589.375,525.25 585.0,529.375 580.625,534.875 578.5,539.0 577.5,542.0"/>
    <polyline points="577.125,543.375 576.375,548.0 576.375,552.75 577.75,561.375 580.0,568.75 582.25,574.75 589.75,590.625"/>
    <polyline points="591.125,593.0 612.125,631.875 615.75,639.375 619.125,647.25 622.125,655.625 624.25,664.875 624.875,669.75 625.125,674.875 624.75,680.25 623.625,686.0"/>
    <polyline points="621.5,692.0 618.125,698.375 612.875,705.25 605.5,712.625 595.125,720.375 581.0,728.625 561.75,737.25 536.125,745.75 502.625,753.5 459.75,759.125 407.125,760.75 346.25,755.5 281.875,740.5 222.375,713.75 177.25,676.625 152.25,633.875 146.75,591.5 155.0,554.75 169.75,526.0 185.625,505.375 199.5,492.25 210.125,485.125 217.625,483.125 222.625,485.0 226.375,490.25 229.75,498.0"/>
    <polyline points="233.875,507.5 239.5,518.0 247.25,529.125 257.125,539.875 269.125,549.875 282.875,558.75 297.5,566.375 312.625,572.375 327.625,577.0 342.0,580.5 355.375,582.75 367.625,584.25 378.625,585.0 388.375,585.125 397.0,585.0 404.5,584.375 416.625,582.75 429.75,579.375 436.25,576.875 443.625,573.125"/>
    <polyline points="445.875,572.0 459.875,563.375 466.125,560.125 474.75,556.625 480.125,555.125 484.0,554.5"/>
    <polyline points="485.125,554.375 487.5,554.125 493.0,554.25 498.625,555.5 502.75,557.375 505.625,559.375 507.5,561.125"/>
    <polyline points="508.0,561.875 510.625,565.5 512.125,569.0 513.125,572.75 513.375,574.875 513.125,580.375 511.375,586.375"/>
    <polyline points="510.75,587.625 508.375,591.375 505.0,595.0 502.125,597.375 496.875,600.625 490.25,603.375 482.25,605.25 473.25,606.125 470.125,606.125 463.625,605.5 457.25,604.25"/>
    <polyline points="454.125,603.25 448.25,600.875 443.125,597.75 440.875,595.875 438.875,593.875 435.875,589.75 434.75,587.5 433.5,582.75 433.5,578.125 433.875,575.75 435.375,571.25 436.5,569.125 439.125,565.0 442.375,561.125 449.875,554.625"/>
    <polyline points="451.875,553.25 458.0,549.5 463.875,546.5 473.25,542.75 483.0,540.0 488.625,539.0 493.625,538.5"/>
    <polyline points="494.875,538.5 498.125,538.5 501.125,538.875 506.375,540.125 509.5,541.5 512.25,543.25 515.5,546.0"/>
    <polyline points="516.0,546.625 520.0,551.625 522.5,556.0 525.875,564.5 527.25,570.75"/>
    <polyline points="527.5,572.125 527.875,576.375 527.875,581.0 527.25,585.875 525.125,592.75 523.375,596.25 519.5,601.75 517.875,603.625 513.875,607.25 508.875,610.75 502.75,614.0"/>
    <polyline points="499.25,615.5 491.375,618.125 482.125,620.125 477.0,620.75 466.125,621.25 454.5,620.5 448.5,619.5 437.0,616.375 431.5,614.125 426.375,611.5 421.75,608.625 417.5,605.375 414.0,601.75 411.0,598.0 408.75,594.0 407.25,589.875 406.375,585.75 406.125,581.625 406.375,577.625 407.25,573.625 408.625,569.75"/>
    <polyline points="410.375,566.125 414.875,559.375 420.125,553.375 426.0,548.25 432.0,543.75 437.875,539.875 449.125,533.75 461.375,528.125 473.25,523.375"/>
    <polyline points="474.875,522.625 488.25,517.625 499.25,512.875"/>
    <polyline points="499.75,512.625 503.875,510.125 505.75,507.75 506.25,506.125 506.25,504.5 505.5,501.25"/>
    <line x1="505.375" x2="500.75" y1="500.875" y2="489.625"/>
    <polyline points="500.5,489.0 495.875,478.25 491.5,466.125"/>
    <polyline points="491.0,464.75 488.875,457.625 487.375,451.0 486.25,443.5 485.875,437.125 486.5,427.625 487.5,422.375 488.25,419.625 490.5,413.75"/>
    <polyline points="492.0,410.625 495.875,404.25 498.5,400.875 501.5,397.375 509.375,390.25 514.25,386.625 520.0,382.875 526.625,379.25 534.125,375.75 542.875,372.375 552.75,369.25 563.75,366.625 576.0,364.5 589.5,363.125 603.875,362.625 619.0,363.25 634.375,365.25 649.625,368.75 664.125,373.625 677.25,380.125 688.375,387.875 697.125,396.75 703.25,406.375 706.75,416.375"/>
    <polyline points="707.625,426.25 706.375,435.875 703.25,445.0 698.75,453.25 693.25,460.875 687.25,467.625 680.875,473.625 667.875,483.5 655.5,491.125 639.0,499.75 610.625,512.875 602.125,517.25 597.25,520.125"/>
    <polyline points="595.125,521.5 591.25,524.125 586.5,528.25 582.875,532.25 579.375,537.875 577.75,542.25 576.875,546.75 576.75,551.375 577.5,558.125"/>
    <polyline points="577.875,559.875 580.5,569.125 585.875,581.625 596.25,601.375 606.375,618.875"/>
    <polyline points="608.25,622.125 617.875,639.75 623.5,651.625 628.375,664.875 630.375,674.75 630.875,680.0 630.625,685.5 629.75,691.375 627.75,697.625 624.5,704.25 619.375,711.375 611.875,719.0 601.25,727.25 586.375,735.875 566.0,745.0 538.625,754.0 502.125,762.25"/>
    <polyline points="455.125,768.25 397.0,769.5 329.875,762.625 259.875,744.25 197.375,712.5 153.0,670.0 132.25,622.625 132.125,578.0 144.625,541.0 161.625,513.375 178.0,494.875 190.875,484.25 199.875,480.0 205.625,480.875 209.25,486.0 215.75,505.25 221.125,517.75 229.0,530.875 239.875,543.75 253.375,555.875 269.0,566.375 286.125,575.25 303.5,582.125 320.625,587.375 336.75,591.125"/>
    <polyline points="351.625,593.5 364.75,594.875 376.375,595.375 386.25,595.375 402.0,594.125 413.125,591.75 421.0,588.875 424.0,587.375 429.0,584.125 433.0,580.75 442.75,570.75 450.875,563.625"/>
    <polyline points="452.625,562.25 459.5,557.75 462.875,555.875 467.875,553.5 474.375,551.0 483.25,548.75 491.0,548.0"/>
    <polyline points="492.125,548.0 495.5,548.125 498.625,548.625 501.5,549.375 505.0,550.75 508.125,552.625 510.25,554.375 513.375,557.75"/>
    <polyline points="514.0,558.5 517.0,563.625 518.5,567.625 519.5,572.125 519.875,578.375 519.5,582.375 518.375,586.625"/>
    <polyline points="517.875,588.125 514.625,594.0 512.25,597.0 509.25,600.0 503.5,604.125 496.0,608.0 486.5,610.875 483.0,611.625 475.25,612.5 467.0,612.625 462.75,612.375 454.125,611.0"/>
    <polyline points="449.875,610.0 445.75,608.625 438.125,605.125 434.75,603.0 428.875,598.125 426.625,595.375 424.75,592.5 423.25,589.5 422.25,586.5 421.75,583.375 421.875,577.25 422.5,574.25 423.5,571.375 426.375,565.875 430.0,560.75 434.375,556.25 436.625,554.125 443.875,548.625"/>
    <polyline points="446.25,547.125 453.5,542.875 466.75,536.75 481.125,531.875 492.0,529.375"/>
    <polyline points="493.125,529.25 500.0,528.5 504.625,528.75 508.625,529.625 511.875,531.125"/>
    <polyline points="512.375,531.375 516.25,534.375 518.875,537.375 523.5,544.625"/>
    <polyline points="523.875,545.375 527.25,552.5 530.0,560.0 532.0,567.75 532.875,573.5"/>
    <polyline points="533.0,575.125 533.25,581.625 532.375,588.75 531.375,592.5 529.875,596.375 526.5,602.5 523.25,606.625 519.0,610.75 513.5,614.75 506.75,618.625 498.375,622.0"/>
    <polyline points="493.625,623.5 482.875,625.875 470.5,627.125 456.875,627.0 449.75,626.25 442.625,625.0 435.5,623.25 428.625,621.0 422.0,618.125 416.0,614.875 410.5,611.125 405.875,606.875 402.0,602.5 399.0,597.75 396.75,592.875 395.5,587.875 395.125,582.875 395.375,578.0 396.375,573.375 398.0,568.75 400.125,564.5 405.375,556.75"/>
    <polyline points="408.5,553.25 411.625,550.0 418.375,544.25 425.125,539.25 431.75,535.125 446.875,527.25 473.875,515.0"/>
    <polyline points="475.375,514.375 481.625,511.25 487.125,507.875 491.0,504.75 493.625,501.625 494.125,500.5"/>
    <polyline points="494.5,500.0 495.625,496.125 495.75,491.875 494.25,483.625"/>
    <polyline points="494.0,482.875 488.75,465.625 486.375,456.75 485.375,451.75"/>
    <polyline points="485.0,450.0 484.125,444.25 483.625,438.0 484.0,428.5 484.875,423.25 486.375,417.5 487.375,414.625 490.375,408.25 494.625,401.625 497.375,398.125 500.75,394.5 504.625,390.875 509.25,387.125 514.625,383.25 521.0,379.5"/>
    <polyline points="528.25,375.75 536.625,372.125 546.25,368.75 557.0,365.75 569.25,363.125 582.625,361.25 597.25,360.25 612.75,360.25 629.0,361.625 645.25,364.625 660.875,369.125 675.5,375.25 688.125,382.875 698.5,391.875 706.0,401.75 710.625,412.125 712.5,422.625 711.75,432.875 709.125,442.625 704.75,451.625 699.25,459.75 693.125,466.875 686.5,473.375 673.125,483.875 666.625,488.125"/>
    <polyline points="660.25,491.875 648.75,498.125 614.625,513.875 603.625,519.75 599.125,522.5 593.625,526.5 590.625,529.25 588.125,532.0 586.125,534.75"/>
    <polyline points="585.25,536.125 583.125,540.5 582.25,543.375 581.5,549.625 581.75,554.5 582.75,559.625 585.0,566.875 587.5,572.75 590.75,579.0"/>
    <polyline points="592.0,581.125 599.25,592.75 606.875,602.875 613.75,611.0 625.125,622.5 636.0,631.375 644.625,637.375 655.125,643.125 661.125,645.875 667.875,648.375"/>
    <polyline points="675.5,650.75 684.125,652.75 693.875,654.25 705.0,655.25 718.0,655.25 732.875,654.125 750.25,651.5 770.125,646.75 792.875,639.125 818.375,627.875 845.625,611.875 873.25,590.25 897.75,562.5 915.0,529.0 920.0,491.875 909.5,454.625 883.75,421.25 846.875,394.875 805.375,376.375 765.125,364.875 730.25,358.5 702.625,355.625 682.375,354.75 669.0,355.125 661.625,356.25 659.25,358.0"/>
    <polyline points="660.625,360.375 678.5,372.625 686.125,378.625 693.125,385.625 698.875,393.5 703.25,402.0 705.75,410.875 706.375,419.75 705.375,428.5 702.75,437.0 698.875,444.875 694.0,452.125 688.5,458.875 682.5,464.75 676.25,470.125 669.875,474.875 657.5,482.875 651.625,486.25 640.375,492.0 625.625,498.75"/>
    <polyline points="621.125,500.625 596.625,511.75 586.75,517.125 582.625,519.75 577.5,523.5 572.25,528.625 568.5,533.75 567.875,535.125"/>
    <polyline points="567.125,536.5 565.625,540.5 564.75,544.75 564.375,549.125 564.5,553.75 565.375,560.375 566.5,565.75 569.75,577.5"/>
    <polyline points="570.375,579.625 575.375,599.0 576.75,607.5 577.25,616.75 577.125,620.125 576.125,627.125 575.25,630.75 572.125,638.5 569.75,642.5 566.75,646.75 563.0,651.125 558.125,655.5 552.25,660.125"/>
    <polyline points="545.125,664.75 536.25,669.25 525.625,673.75 512.875,678.0 497.875,681.75 480.25,684.75 460.125,686.75 437.5,687.0 413.0,685.375 387.25,681.125 361.75,673.875 337.75,663.5 317.125,650.25 301.0,634.75 290.25,617.875 284.75,600.625 283.875,584.0 286.875,568.625 292.375,555.0 299.375,543.375 307.125,533.75 315.0,525.875 322.625,519.5 329.75,514.625 336.375,510.75 342.375,507.875"/>
    <polyline points="347.875,505.75 352.875,504.25 357.5,503.25 365.75,502.125 373.25,502.0 389.75,503.0 404.625,503.5 417.75,502.625 427.0,501.0"/>
    <polyline points="429.125,500.375 433.125,499.25 438.5,497.25 443.125,495.0 448.125,491.625 451.25,488.875 454.5,484.875 456.625,480.5 457.375,478.125"/>
    <polyline points="457.75,477.0 458.5,470.625 457.875,461.875 455.875,451.75 451.625,435.25"/>
    <polyline points="451.125,432.875 448.875,422.5 447.625,410.5 447.625,403.625 448.5,396.25 450.625,388.0 452.25,383.625 454.5,379.0 457.375,374.125 461.125,369.0 465.875,363.625 471.875,357.875 479.375,351.875 488.75,345.75 500.5,339.375 514.75,333.125 532.25,327.0"/>
    <polyline points="553.25,321.5 578.25,317.0 607.25,314.375 639.625,314.375 674.375,318.0 709.25,326.125 741.75,339.125 768.625,356.75 787.75,377.75 798.25,400.5 800.5,422.875 796.5,443.625 788.25,461.625 777.75,476.75 766.625,488.75 755.875,498.125 746.0,505.375 737.25,510.625 729.625,514.375 723.0,516.875 717.375,518.5 712.5,519.25 708.125,519.5 704.125,519.25 697.125,518.0"/>
    <polyline points="693.75,517.0 676.875,511.75 669.625,510.125 662.25,509.0 651.125,508.25 640.25,508.625 630.0,509.875 617.875,512.75 610.0,515.625"/>
    <polyline points="607.5,516.625 601.0,519.75 595.375,523.25 590.875,526.875 587.125,530.75 583.375,536.125 582.125,538.875 580.75,543.25 580.25,546.25 580.125,549.375"/>
    <polyline points="580.125,551.0 580.875,557.625 582.75,564.75 586.75,574.5 591.25,583.125 595.375,590.0 600.25,597.5 604.0,602.625"/>
    <polyline points="606.0,605.375 612.625,613.875 623.375,625.875 629.75,632.25 641.0,642.0 650.25,648.5 655.5,651.625 661.375,654.75 667.875,657.75 675.125,660.625 683.375,663.125 692.875,665.25 703.75,666.875 716.375,667.75 731.25,667.5 748.75,665.75 769.25,661.875"/>
    <polyline points="793.25,655.25 820.75,644.625 851.625,628.875 884.125,606.625 914.875,576.625 938.625,539.0 948.375,495.75 938.875,451.375 909.5,411.375 865.625,380.125 816.375,359.0 769.875,346.5 731.125,340.25 702.125,337.75 683.0,337.25 672.5,338.0 669.5,339.625 672.25,342.125 689.625,350.875 701.125,357.5 712.75,365.875 723.25,375.75 731.5,387.0 737.125,399.125 739.5,411.5"/>
    <polyline points="739.125,423.625 736.25,435.25 731.375,445.875 725.125,455.5 718.0,464.0 710.375,471.375 702.625,477.625 695.0,483.125 687.625,487.625 680.5,491.625 667.625,498.0 646.375,506.625 623.625,515.25 612.75,520.25"/>
    <polyline points="610.375,521.5 604.375,525.25 599.625,529.0 595.875,533.0 593.125,537.0 591.25,541.25 590.25,545.75 590.0,550.375 591.0,556.75"/>
    <polyline points="591.5,558.5 594.125,565.5 598.375,573.125 602.625,579.125 606.0,583.25 612.125,589.625 617.0,594.0 625.75,600.5 632.75,604.875 641.0,609.0"/>
    <polyline points="645.75,610.875 656.375,614.375 669.375,617.125 676.875,618.0 685.125,618.375 694.25,618.375 704.5,617.625 715.625,616.0 728.0,613.25 741.5,609.375 756.0,603.75 771.25,596.375 786.875,586.625 802.25,574.625 816.125,560.0 827.25,542.875 834.25,523.875 835.625,503.75 830.625,483.625 819.25,464.875 802.375,448.5 781.625,435.0 759.0,424.75 736.25,417.5"/>
    <polyline points="714.625,412.75 695.0,410.0 678.0,408.625 663.5,408.125 641.75,409.125 634.0,410.0 627.75,411.125 619.375,413.625 616.625,415.0 614.625,416.375 613.125,417.875 611.375,420.875 608.625,431.0 607.875,432.875 606.25,436.375 603.875,439.875"/>
    <polyline points="602.625,441.5 597.875,446.25 592.25,450.5 584.0,455.125 577.625,457.75 569.25,460.375 561.25,462.0 553.875,462.625"/>
    <polyline points="552.125,462.625 545.75,462.25 542.75,461.75 538.625,460.625 535.0,459.125 532.75,457.875 529.75,455.625 528.0,453.875 525.75,451.0 524.0,447.625"/>
    <polyline points="523.625,446.375 523.125,445.125 522.375,441.125 522.375,436.625 522.875,433.375 524.625,428.25 527.625,422.75 532.5,417.0 536.75,413.25 545.375,407.625 552.75,404.25"/>
    <polyline points="556.875,402.75 566.125,400.25 576.5,398.5 582.125,398.0 593.75,398.125 599.625,398.625 605.5,399.625 611.125,401.125 616.5,402.875 621.5,405.125 626.125,407.75 630.0,410.75 633.375,414.0 636.0,417.5 638.0,421.25 639.125,425.125 639.625,429.0 639.5,433.0 638.625,436.875 637.25,440.625 635.375,444.25 633.0,447.875 630.25,451.125"/>
    <polyline points="627.25,454.375 620.625,460.125 613.625,465.125 599.125,473.125 592.125,476.375 579.125,481.5 562.625,486.875 551.375,489.75"/>
    <polyline points="549.375,490.25 536.0,492.625 529.5,493.125 524.125,493.0 518.0,491.75"/>
    <polyline points="517.25,491.5 512.875,489.625 508.5,486.375 505.625,483.375 501.875,478.125"/>
    <polyline points="501.375,477.25 500.25,475.5 496.625,468.125 493.75,460.5 491.25,451.125 490.125,443.75"/>
    <polyline points="489.875,441.75 489.75,435.375 490.125,430.875 491.5,423.25 493.375,417.75 496.125,412.0 500.0,405.75 505.625,399.25 509.125,395.875 518.0,389.0 523.5,385.5 529.75,382.125 537.0,378.875 545.25,375.75 554.5,372.875 564.75,370.5"/>
    <polyline points="576.125,368.5 588.5,367.25 601.75,366.75 615.5,367.375 629.625,369.125 643.625,372.125 656.875,376.5 669.125,382.125 679.625,389.0 688.125,397.0 694.25,405.625 698.125,414.625 699.625,423.75 699.0,432.75 696.75,441.25 693.125,449.25 688.375,456.5 682.875,463.125 677.0,469.125 670.875,474.375 664.75,479.125 658.625,483.25 646.875,490.25 636.25,495.875"/>
    <polyline points="631.25,498.25 603.875,511.0 590.625,518.125 584.625,522.125 579.75,526.125 574.875,531.375 572.375,535.375"/>
    <polyline points="571.625,536.75 570.0,541.0 569.0,545.375 568.75,548.375 568.875,554.625 570.75,565.0 575.0,579.0"/>
    <polyline points="575.875,581.25 582.5,601.125 584.875,609.75 586.125,616.0 586.875,622.75 587.0,629.875 586.75,633.75 585.0,641.75 583.5,646.0 581.375,650.5 578.5,655.125 574.75,659.875 570.0,664.875"/>
    <polyline points="563.875,670.0 556.125,675.25 546.375,680.625 534.5,685.875 519.875,690.875 502.125,695.5 481.0,699.125 456.25,701.5 428.25,701.75 397.5,699.125 365.375,693.0 333.875,682.75 305.5,668.25 282.5,650.125 266.625,629.5 258.0,608.0 256.25,587.0 259.5,568.0 266.25,551.375 274.875,537.625 284.0,526.625 293.0,518.0 301.375,511.625 309.0,506.875 315.75,503.75 321.625,501.625"/>
    <polyline points="327.0,500.625 331.75,500.25 336.25,500.5 340.375,501.25 348.375,503.5 368.625,510.5 385.625,514.625 394.125,515.875 406.375,516.75 417.625,516.625 427.75,515.75"/>
    <polyline points="430.875,515.25 433.875,514.875 444.625,512.5 451.5,510.5 457.375,508.375 462.375,506.125 467.875,503.125 472.25,500.0 474.875,497.5"/>
    <polyline points="475.625,496.75 478.625,492.625 479.875,490.0 480.75,487.25 481.5,482.375 481.5,478.0 480.875,472.125"/>
    <polyline points="480.625,470.875 476.75,450.75 475.375,440.75 474.75,431.375 475.25,423.5"/>
    <polyline points="475.625,420.625 476.875,414.625 477.875,411.5 480.625,404.75 482.5,401.125 487.625,393.625 491.0,389.625 500.0,381.375 505.75,377.125 512.625,372.75 520.625,368.5 530.0,364.25 541.0,360.25 553.5,356.625 567.75,353.5 583.75,351.125 601.375,350.0 620.375,350.125 640.125,352.125 659.875,356.0 678.875,362.125 696.0,370.375"/>
    <polyline points="710.375,380.5 721.375,392.125 728.5,404.625 731.75,417.5 731.75,430.125 728.875,441.875 724.0,452.75 717.625,462.375 710.375,470.875 702.875,478.125 695.25,484.375 687.875,489.625 680.75,494.125 667.75,501.375 651.625,508.875 631.75,517.125 623.125,521.125"/>
    <polyline points="620.625,522.375 612.375,527.25 610.75,528.5 606.5,532.25 603.375,536.125 601.25,540.125 600.0,544.375 599.75,547.25 600.0,551.625 601.125,556.25"/>
    <polyline points="601.75,557.875 605.125,564.5 607.5,567.875 611.875,573.125 617.625,578.375 622.25,581.875 627.625,585.375 637.375,590.25 645.25,593.125 654.5,595.5 659.75,596.5 665.375,597.125"/>
    <polyline points="671.5,597.625 685.25,597.375 693.0,596.5 701.375,595.125 710.25,593.0 719.625,590.125 729.5,586.25 739.625,581.375 749.875,575.25 759.875,567.75 769.125,559.125 777.125,549.0 783.375,537.875 787.125,525.75 788.0,513.25 785.625,500.625 779.75,488.5 770.875,477.25 759.375,467.5 746.0,459.25 731.375,452.625 716.5,447.5 701.625,444.0 687.5,441.5 674.25,440.125"/>
    <polyline points="662.25,439.375 651.25,439.25 641.375,439.625 624.75,440.875 606.125,443.625 577.25,449.875 568.25,451.5 561.125,452.25 557.875,452.25"/>
    <polyline points="556.5,452.25 552.375,451.75 548.875,450.875 546.75,450.0 543.25,447.875 541.125,445.75 539.25,442.5 538.625,440.625 538.375,436.375"/>
    <polyline points="538.5,435.25 540.125,430.5 543.5,425.625 547.5,421.875 552.875,418.25 559.625,415.125 567.75,412.75 573.875,411.75 583.5,411.375"/>
    <polyline points="586.75,411.625 596.25,413.5 599.25,414.5 604.5,417.125 608.75,420.5 610.375,422.375 612.75,426.375 613.375,428.625 613.75,430.875 613.375,435.375 611.75,439.75 610.5,442.0 605.5,448.125 601.375,451.75 596.75,455.0"/>
  </g>
</svg>
