<?xml version="1.0" encoding="utf-8" ?>
<svg xmlns="http://www.w3.org/2000/svg" xmlns:cc="http://creativecommons.org/ns" xmlns:dc="http://purl.org/dc/elements/1.1/" xmlns:ev="http://www.w3.org/2001/xml-events" xmlns:inkscape="http://www.inkscape.org/namespaces/inkscape" xmlns:rdf="http://www.w3.org/1999/02/22-rdf-syntax-ns" xmlns:sodipodi="http://sodipodi.sourceforge.net/DTD/sodipodi-0.dtd" xmlns:xlink="http://www.w3.org/1999/xlink" baseProfile="tiny" height="27.09333333cm" version="1.2" viewBox="0 0 1024.0 1024.0" width="27.09333333cm">
  <metadata>
    <rdf:RDF>
      <cc:Work>
        <dc:format>image/svg+xml</dc:format>
        <dc:source>vpype read './original_svgs/Strange Attractors #225.svg' linemerge linesimplify write './Strange Attractors #225.svg'
</dc:source>
        <dc:date>2024-08-05T01:35:39.867275</dc:date>
      </cc:Work>
    </rdf:RDF>
  </metadata>
  <defs/>
  <g fill="none" id="layer1" inkscape:groupmode="layer" inkscape:label="1" stroke="black" style="display:inline">
    <polyline points="569.625,746.125 558.7824,753.3414 544.5433,763.6408 542.1273,764.847 541.25,764.875 540.7787,764.5133 540.4591,763.2418 540.652,760.598 542.4985,752.3335 554.4311,713.9429 575.2725,651.9283 621.2816,518.4995 630.1057,491.6203 636.2739,471.2087 639.3717,459.6019 641.5431,449.9063 642.9833,441.3312 643.5472,434.7232 643.3219,429.5553 642.375,426.0 640.4754,423.3623 637.8363,422.1197 635.6955,422.0071 633.2704,422.426 627.4128,424.823 619.9246,429.42 611.767,435.7001 601.9432,444.5377 592.3262,454.194 583.4743,464.0607 574.5312,475.0625 566.9004,485.4034 559.5417,496.362 553.0305,507.0674 547.2662,517.6225 541.8594,528.7031 537.1839,539.5843 532.9781,550.8269 529.0499,562.9659 526.2065,572.978 523.8106,582.9625 521.5603,594.1628 519.5553,606.2133 517.9501,617.9943 516.4637,632.7715 515.0308,655.6761 513.7431,692.5311 512.5314,804.3935 512.6639,814.8099 513.0688,821.645 513.8801,827.0745 514.9208,829.2971 515.6481,829.4815 516.5455,828.9358 518.8239,825.5443 521.9051,818.7967 525.8478,808.5501 534.9192,782.5791 563.6008,697.9306 585.7251,634.5724 609.3899,569.101 647.666,465.5713 659.0985,433.4567 667.4764,407.6467 672.5024,388.8024 673.9129,381.3769 674.5521,375.5014 674.5,371.0 673.6846,367.0775 672.3492,364.6142 670.2009,362.9056 667.7523,362.256 664.4323,362.4145 660.0941,363.5809 655.1371,365.6568 649.3569,368.7015 643.1725,372.4741 627.109,383.8288 609.4758,398.0154 590.1183,415.2276 572.9487,432.0135 560.7692,445.1312 549.5884,458.3423 539.571,471.5 530.8525,484.3367 523.6358,496.5163 517.1925,508.9558 512.0811,520.574 503.9356,541.6906 502.8109,543.6633 501.9384,544.0765 501.125,543.25 500.6165,541.8696 499.1496,533.6011 490.2632,458.667 485.9531,429.0 482.0569,405.9077 476.6799,378.6252 471.2737,354.5808 465.2484,331.429 459.1478,310.9854 452.4271,291.8157 444.8792,273.9188 437.3058,259.0678 433.7234,253.2013 430.1124,248.0917 426.0592,243.2698 422.1563,239.4849 418.4063,236.742 415.1242,235.1724 412.0103,234.5341 408.9648,234.8862 406.2762,236.1958 403.672,238.669 401.8203,241.4498 400.2228,244.8709 398.8824,248.894 397.8121,253.4733 396.6836,263.5336 396.6973,275.8995 397.8697,290.1807 399.9639,303.8735 403.4259,319.8843 408.158,337.608 411.9339,349.7499 416.5963,363.09 422.3759,378.1837 428.4421,392.9444 443.3322,426.2138 469.325,481.034 481.1253,508.653 487.9544,526.97 492.6443,541.6989 496.625,556.1562 500.6211,573.2227 501.648,576.24 501.972,575.34 501.9727,571.225 501.1822,552.4358 498.8669,518.9888 494.6912,475.1535 489.0039,430.2527 483.079,393.7602 476.6614,360.5322 469.8483,331.264 462.1644,303.5777 458.034,290.6001 453.7788,278.4884 449.3273,267.0733 444.5428,255.964 439.8173,246.0998 435.0102,237.186 430.33,229.6091 425.625,223.125 420.8889,217.743 415.9393,213.3467 411.1657,210.3992 406.9115,208.9834 402.8915,208.8835 399.1104,210.1309 395.7113,212.6555 392.5661,216.6846 390.7604,220.0928 389.1914,224.0508 387.8627,228.5347 386.7041,233.929 385.4553,244.9141 385.3133,257.9182 386.3104,272.4621 388.4189,288.2582 391.4544,303.6751 395.7324,320.6973 400.8685,337.9999 405.9041,352.7676 412.2269,369.1774 420.5507,388.9285 434.0135,417.9838 460.1341,470.1056 472.5706,495.722 482.489,518.4293 489.0078,535.5649 492.9685,547.1318 495.5573,555.9724 499.2977,570.5961 502.125,584.1406 505.551,606.2117 508.3359,636.9609 508.4155,621.3692 507.9107,599.5358 506.7365,565.9162 505.1451,536.5735 501.8192,492.2341 499.2105,464.5816 496.6501,441.3235 494.0516,421.1435 490.3137,395.6433 486.8006,374.1572 483.1361,354.0713 479.308,335.2741 475.2172,317.2294 470.5783,298.576 465.7633,280.9581 460.5858,263.8132 455.1631,247.6852 449.6431,233.0379 443.924,219.5513 437.7803,206.7197 431.647,195.4865 425.395,185.5891 419.0781,177.1708 412.9474,170.5614 406.7397,165.4786 400.5139,162.0185 397.6634,161.0061 394.5314,160.335 391.823,160.1521 388.8719,160.4092 386.0337,161.1535 383.6152,162.2219 381.0225,163.8789 378.784,165.8094 374.5956,170.9763 372.1979,175.1383 369.9392,180.2158 368.1085,185.5329 366.469,191.7537 365.1604,198.4953 364.1902,205.7105 363.3011,221.0186 363.7521,237.7788 365.5479,256.1141 368.6234,275.2974 372.9048,294.8889 378.5804,315.2485 385.6812,336.4697 394.5213,359.3905 403.9108,380.866 414.099,401.8438 426.3623,425.2077 437.449,445.0921 466.5281,495.7097 478.9707,519.0552 485.2979,531.9978 490.7318,544.46 495.9716,557.6358 499.9905,569.3114 504.3593,584.4139 507.9806,600.2318 510.3796,613.1825 512.9021,631.4824 515.4806,661.6251 519.0788,750.1344 520.0718,759.3157 521.065,764.9757 522.406,768.769 523.125,769.875 524.0119,770.5162 525.3796,770.4123 527.0097,769.2259 528.875,766.875 531.0101,763.2636 536.3873,751.8913 543.1257,735.2409 567.4208,669.0424 620.9024,519.4651 635.0211,477.7555 639.5,463.25 643.1358,450.1459 645.722,439.0292 647.1687,430.244 647.5473,423.6102 646.896,418.4787 646.2069,416.5448 645.0705,414.7849 643.603,413.6103 641.8116,412.9928 639.7032,412.9042 637.3226,413.3053 631.7496,415.4156 624.7584,419.4703 616.579,425.4286 607.7204,432.9144 598.1962,441.9381 588.9509,451.5393 580.3337,461.3022 571.9472,471.6677 564.0793,482.2961 556.8964,492.966 550.2771,503.8471 544.2984,514.7883 538.7783,526.1344 534.8804,535.0703 531.3947,544.0069 525.293,562.8628 520.5905,581.949 516.8451,603.4199 514.5353,622.7485 513.3003,638.972 512.6399,653.0172 512.0004,668.2808 511.5714,700.4204 511.7685,711.3767 512.0391,713.0488 513.0397,694.8308 513.8064,653.8334 513.8879,630.364 513.4282,592.2379 512.5745,563.3537 511.1313,531.3258 509.3658,502.573 507.1158,473.8699 504.3102,443.7315 501.2353,415.6988 497.8133,389.0847 494.0069,363.5718 489.3477,336.265 484.3764,310.5049 478.9998,285.8325 473.3601,262.8932 467.3278,241.1479 460.8741,220.5691 453.9314,200.948 446.6958,182.8464 439.244,166.4212 431.6456,151.8026 423.9638,139.0956 416.0899,128.1704 407.881,118.944 403.9357,115.2595 399.6758,111.8197 395.7688,109.1584 391.5772,106.8374 387.4423,105.1065 383.3786,103.9713 379.4005,103.4374 375.817,103.4832 372.0443,104.1215 368.6751,105.2589 365.4028,106.9314 362.0903,109.2468 358.954,112.0933 356.0002,115.4474 351.7424,121.6874 347.9748,129.0321 344.7219,137.3906 342.0078,146.6719 339.8568,156.7849 338.2671,167.8611 337.3055,179.4048 336.9292,191.7819 337.1646,204.9317 338.0021,218.3887 339.46,232.4361 341.4906,246.5753 344.059,260.6758 347.1149,274.5207 350.7324,288.5135 355.0048,302.9606 363.7725,328.3185 374.0875,353.6481 385.6902,378.4321 399.049,403.6808 412.125,426.125 424.8615,446.3285 438.6193,466.8001 471.8669,514.96 483.8934,533.3108 494.3094,550.764 504.4629,570.5345 508.3683,579.4264 512.5818,590.3786 515.7867,599.8956 518.7402,610.1738 521.502,621.3027 523.7902,632.9565 529.7524,670.3579 531.9258,681.5089 533.1703,685.9955 534.5993,689.4816 535.9526,691.5067 537.503,692.565 538.8886,692.7517 540.5175,692.2611 541.962,691.216 543.8188,689.2395 547.8484,683.3107 552.3955,674.6997 558.0335,662.1607 565.4767,644.2015 582.0614,600.3523 598.0596,554.0766 603.7251,536.1145 608.1878,520.5243 611.1917,508.131 612.9097,498.2424 613.4019,490.651 612.6712,485.4412 611.3164,482.9586 610.3887,482.2178 609.0,481.75 606.0926,482.0602 602.287,483.8719 597.7372,487.1958 593.0957,491.4859 587.7099,497.3298 582.0986,504.1826 576.9795,511.2663 571.7732,519.2035 563.4535,533.9401 555.5204,550.5079 548.2886,569.3493 542.6337,587.7799 537.7237,609.0119 534.0907,631.4331 532.0537,651.9174 531.0097,674.4722 531.4428,690.1899 532.1371,696.3467 533.1328,701.1297 534.5883,704.4924 536.2338,705.9815 537.5417,705.9676 539.081,705.0663 541.2338,702.8588 543.1572,700.2405 547.6709,692.2657 553.4679,679.8096 560.2991,663.6445 567.2284,645.983 589.0752,586.2053 604.7023,540.0492 610.0777,522.733 613.9649,508.8147 616.8391,496.7142 618.4856,487.1376 618.9417,479.851 618.2363,474.3113 617.5601,472.6561 616.6595,471.4408 615.6008,470.688 614.1562,470.2207 611.074,470.4708 606.9222,472.3165 601.9612,475.7752 596.5548,480.582 590.0727,487.3401 584.1406,494.4531 578.0314,502.6379 572.3971,510.8898 567.2176,519.2824 562.3313,528.0125 557.6764,537.1447 553.2694,546.7172 549.0255,557.0196 545.3384,567.0594 539.5834,586.0718 534.9896,606.1386 531.3662,627.3223 528.8458,650.6028 527.7365,668.9257 527.25,686.0 527.7965,704.2664 528.4487,711.1514 529.6282,717.5593 530.9383,720.8472 531.9632,722.0955 532.875,722.625 534.2861,722.5579 535.9595,721.4763 537.9129,719.3451 540.2762,715.9297 545.3126,706.5042 551.3111,693.0169 559.859,671.8324 571.2848,641.474 596.1652,572.5958 611.7536,526.5947 616.959,509.8398 620.7649,496.1944 623.9529,483.028 625.7595,473.0117 626.246,465.8978 625.571,459.9901 624.9436,458.2333 623.9175,456.6591 622.8321,455.7845 621.25,455.25 619.5682,455.1982 617.4012,455.5946 612.4417,457.7912 606.6923,461.7491 600.2243,467.3655 592.6098,475.1053 585.3076,483.4775 578.5336,492.2089 571.6049,502.0025 565.6779,511.2608 560.0061,521.0642 555.21,530.2611 550.3983,540.6241 545.6861,551.892 541.8831,562.3068 535.7444,582.6653 530.8471,604.0499 527.0886,628.0178 524.4441,653.4332 523.2575,672.068 522.6888,691.2245 522.7998,717.5166 523.6607,730.8431 524.8798,739.6672 526.1897,744.1523 527.1995,745.7037 528.3706,746.5198 529.6384,746.5226 531.1723,745.5614 532.9583,743.5602 534.9964,740.4668 540.7326,729.2808 546.9186,714.952 563.8848,670.3683 585.3826,611.2942 604.8486,556.5907 621.5654,507.5705 627.1808,489.8205 631.2218,475.7956 634.278,463.2752 636.0751,453.4002 636.7508,445.6256 636.2699,439.8783 635.5726,437.7108 634.3705,435.7843 633.0781,434.7188 631.1965,434.0593 628.9735,434.0442 626.6106,434.5814 623.5424,435.7882 620.2082,437.5405 612.5431,442.8005 604.0981,450.0156 594.9236,459.0224 585.6418,469.2991 577.5625,479.3438 569.3255,490.6902 562.0825,501.6539 555.3091,513.0524 549.8965,523.1683 544.86,533.9138 539.2221,547.4552 535.0336,559.1015 531.8295,569.5321 528.7627,581.0532 526.1237,592.6837 524.2005,602.9899 520.5501,629.406 519.0858,644.4877 517.8491,663.6984 516.5843,706.1731 516.5046,745.4602 516.9048,764.2728 517.4027,774.1011 518.2795,782.2445 519.5231,787.1429 520.375,788.75 521.127,789.357 522.2962,789.2411 523.742,788.0658 527.2413,782.7371 531.6151,773.4436 537.048,759.7894 550.1931,723.7981 584.0563,628.2751 619.193,530.9418 635.6329,484.5768 646.1978,452.8384 652.6738,429.7402 654.7072,420.3573 655.825,412.9265 656.1154,406.7339 655.5409,402.348 654.0859,399.1406 651.8465,397.2512 650.2917,396.7332 648.5317,396.5727 644.4493,397.2536 639.0382,399.4502 632.6901,403.0153 625.473,407.9069 617.875,413.75 609.1643,421.1298 600.1661,429.4123 590.7718,438.7208 582.3029,447.7266 573.8304,457.4139 565.874,467.1945 558.9598,476.3809 552.4899,485.7421 542.7155,501.6321 534.3535,517.5452 528.2489,531.445 522.0651,548.6635 517.332,565.8335 513.3598,584.9461 510.4847,605.3665 508.8125,622.5469 508.2656,624.6875 506.2856,573.6589 503.8939,530.604 499.7807,480.5643 495.0288,437.8109 489.3267,397.5526 482.3177,358.1005 474.473,321.1528 470.3666,304.4147 466.0868,288.648 461.1279,272.1866 455.984,256.7416 450.6817,242.3846 445.2622,229.2281 439.9145,217.6678 434.375,207.125 428.6929,197.7152 422.7026,189.2056 416.7188,182.125 410.7992,176.546 405.002,172.541 399.625,170.25 394.3977,169.4888 391.7428,169.7107 389.1894,170.3569 386.7449,171.4176 384.4163,172.8833 380.1354,176.9908 377.5075,180.6915 375.3594,184.6512 373.2569,189.6997 371.5648,195.0732 370.1836,200.9316 369.0578,207.595 367.8232,221.8013 367.8359,237.7627 369.1387,255.0029 371.7241,273.1016 375.5119,291.8244 380.9217,312.6934 387.5322,333.5487 395.7093,355.4474 405.5077,378.5336 414.2152,397.1409 424.6573,417.5862 438.0049,442.3035 463.6628,488.3694 477.8079,515.3704 484.5806,529.6684 490.2086,542.7714 495.5708,556.8611 499.6128,569.2586 504.1231,585.9726 506.7698,598.023 509.7101,615.3304 512.2726,636.9935 513.8588,658.4977 514.6985,678.5623 516.1957,749.4655 516.923,768.5497 517.6734,777.6843 518.4912,783.6804 519.7273,787.3853 520.5249,788.4741 521.2171,788.9114 522.3952,788.781 523.8169,787.6485 525.503,785.41 527.4341,782.04 532.3174,771.4238 538.2941,756.3187 551.0145,721.3796 633.9156,489.376 645.3762,455.1797 649.2665,442.3475 652.138,431.6729 654.2855,422.0707 655.5476,414.0927 655.9181,407.7132 655.3905,402.9066 654.0435,399.7288 652.96,398.492 651.6636,397.6293 648.473,396.952 644.1252,397.6728 638.9575,399.7612 632.3404,403.464 625.1541,408.3259 617.5807,414.1651 608.5648,421.8781 599.4389,430.329 590.2158,439.5078 581.6693,448.6309 573.5951,457.9543 565.5994,467.9025 558.385,477.5341 551.6791,487.2758 542.3053,502.5981 534.3482,517.9082 527.7951,533.1382 521.6088,550.6339 516.4187,570.1589 513.2278,586.5882 510.9072,602.5803 508.4785,625.9062 507.8056,614.8509 506.1938,569.8957 503.6038,525.1484 499.7583,479.627 494.8467,435.6807 489.2267,395.8689 482.4996,358.0635 474.5096,320.4059 470.4111,303.682 466.1393,287.9531 461.2308,271.7734 455.966,256.0729 450.5532,241.4828 445.0338,228.1215 439.5991,216.3935 433.9809,205.7144 428.2085,196.2225 422.4428,188.112 416.3973,181.0276 410.411,175.46 404.5493,171.4819 399.1303,169.2341 396.5326,168.7014 393.8469,168.5457 391.2592,168.798 388.7747,169.4489 386.3984,170.4891 384.1354,171.9095 381.9909,173.7008 379.7261,176.1479 377.1809,179.7411 374.8933,183.9744 372.8763,188.8237 371.1137,194.3877 369.6942,200.4371 368.604,206.9464 367.3809,221.1707 367.4162,237.5603 368.7238,254.8418 371.3027,272.8717 375.0933,291.4793 380.5083,312.2405 387.2222,333.4155 395.1939,354.7904 404.6418,377.0587 413.8931,396.8598 424.341,417.3392 439.6171,445.5832 460.337,482.4504 471.3713,502.9324 478.3957,516.6431 485.0766,530.8058 490.5743,543.7146 495.922,557.9976 500.1647,571.07 504.4715,587.3003 507.4122,601.1688 510.0508,617.3354 512.3272,637.0519 514.0645,660.1451 514.879,679.136 516.5579,751.175 517.3913,769.8007 518.052,777.0219 519.0141,782.5595 520.1719,785.625 521.4786,786.8148 522.6978,786.7409 524.2619,785.4864 526.1783,782.8564 528.2001,779.2624 533.0591,768.5795 539.8906,751.2063 549.2307,725.7177 577.39,646.2623 632.0151,494.0769 644.0585,458.1096 651.1195,433.6897 653.2396,424.185 654.5729,415.6082 654.9147,409.2431 654.3776,404.444 652.9616,401.1569 652.0,400.125 650.6035,399.2653 648.9816,398.791 647.1478,398.6824 642.8984,399.4844 637.5237,401.7347 631.3611,405.2953 624.0897,410.2902 616.1834,416.46 607.75,423.75 598.1409,432.7647 589.2859,441.69 580.7168,450.9732 572.5429,460.5047 564.7753,470.2763 557.7038,479.8991 551.3501,489.3593 541.279,506.3263 533.569,521.629 527.1202,537.0905 521.1516,555.215 516.9594,571.5251 513.5338,589.6068 510.9256,608.9789 508.75,631.8125 507.155,583.8147 504.6235,534.5671 500.7936,484.9882 495.8129,438.4838 490.2556,397.9828 483.3321,358.1762 475.5722,321.214 471.4899,304.4441 467.2285,288.6149 462.0582,271.2465 456.7848,255.2013 451.2082,239.9048 445.6312,226.2072 439.9583,213.8298 434.2817,202.9509 428.3374,193.0394 422.3221,184.4438 416.0416,176.9756 410.057,171.315 404.1736,167.2135 398.518,164.7702 395.6257,164.1365 392.8253,163.9491 390.1228,164.1973 387.5244,164.8707 385.0365,165.9588 382.6652,167.451 378.2973,171.606 375.605,175.3324 373.1846,179.7361 371.0404,184.833 369.2108,190.5907 367.724,196.8943 366.5747,203.6946 365.7576,210.9424 365.2506,219.0009 365.28,235.7673 366.6408,253.3705 369.4005,272.0024 373.5943,291.9609 379.5996,314.3863 386.2953,334.9184 394.7684,357.053 405.25,381.25 414.6242,400.8416 426.2651,423.1704 438.131,444.8648 464.1077,490.586 477.5655,515.7575 484.6523,530.3632 490.0321,542.5443 495.9355,557.8502 500.2431,570.5659 504.3495,585.3261 507.2289,598.0648 510.5976,617.319 512.8926,636.2937 514.7059,659.4864 515.751,681.5218 517.2398,735.1519 518.245,756.5712 519.1805,766.8796 519.9231,771.4144 521.2766,775.7161 521.9433,776.9177 522.8322,777.6742 524.2037,777.6109 525.8646,776.3067 527.5845,774.0047 529.7176,770.2917 535.0654,758.7318 541.8591,741.6501 554.771,706.6002 626.6606,505.8547 639.1463,468.5746 643.5999,453.8562 646.8853,441.7433 649.133,431.8196 650.4345,423.6196 650.75,417.375 650.0951,412.2669 649.4144,410.3684 648.5045,408.8832 647.37,407.7938 645.719,406.9839 644.1072,406.7028 641.8971,406.8115 636.9488,408.2254 631.1657,411.0846 624.0475,415.6824 615.7057,422.031 607.251,429.2937 598.4709,437.6131 589.212,447.168 580.2858,457.1136 572.1147,466.9574 564.7837,476.5428 557.7773,486.5394 550.9497,497.1923 545.1925,507.084 536.6155,524.1055 529.4543,541.4429 523.937,558.1273 519.0655,577.5605 515.9773,593.7787 513.3751,613.4195 511.35,639.3124 510.4824,665.3887 510.6117,640.5633 510.2691,611.8142 508.5507,558.3496 505.2429,503.7157 501.4009,459.8561 495.3281,408.8125 492.0606,386.1199 488.5034,364.3296 484.2129,341.078 479.6852,319.0278 474.9045,298.0941 469.9233,278.5138 464.6906,260.0918 459.2512,242.9921 453.3428,226.3399 447.1035,210.5999 440.7345,196.311 434.2911,183.5702 427.8232,172.45 421.375,163.0 414.55,154.7008 407.4203,147.7899 400.7108,142.9322 397.259,141.0778 393.8642,139.7044 390.5368,138.8171 387.5795,138.4367 384.4106,138.4917 381.6149,138.9763 378.6694,139.9775 375.8745,141.4351 373.2173,143.3357 370.7029,145.663 367.1104,150.0614 363.8912,155.3804 361.0648,161.5602 358.6507,168.5407 356.6684,176.2621 355.1053,184.8778 354.0356,194.0226 353.44,203.6394 353.306,214.0342 353.6469,224.7795 354.4449,235.7953 355.7344,247.4043 357.4082,258.7235 359.5776,270.5342 362.202,282.5272 365.2996,294.7938 372.2657,318.109 380.6019,341.5184 389.8873,364.0103 400.7456,387.1635 412.1064,409.1272 423.6422,429.7782 436.146,450.7791 466.54,500.5078 478.8177,521.8164 485.1927,533.7647 491.0041,545.6333 496.2217,557.2202 500.385,567.6329 504.8791,580.5327 508.2101,591.6975 511.6271,605.9471 514.249,619.2617 516.9934,636.9734 519.0755,656.6448 522.6324,705.1791 524.1734,719.5659 525.2003,726.6039 526.403,731.5172 527.8254,734.9797 529.4844,736.5156 530.8027,736.6387 532.571,735.763 534.5321,733.7249 536.6239,730.7268 541.5925,721.5502 547.8223,707.6485 555.4697,688.5864 566.9737,658.3426 594.8117,581.5574 614.3008,525.0586 621.0492,504.1063 626.0685,487.1441 629.4953,473.6921 631.57,462.7276 632.3802,454.1946 632.2856,450.6752 631.8818,448.0733 631.1684,446.0017 630.0934,444.3845 628.8122,443.3276 626.9796,442.6669 624.842,442.6304 622.4174,443.1777 616.7803,445.8474 609.9448,450.5468 602.5684,456.8747 593.7754,465.7025 585.0414,475.5868 577.7682,484.7746 570.896,494.403 563.6331,505.6202 557.6176,515.9142 551.8215,526.9302 546.7335,537.6722 542.1199,548.8307 537.695,560.9679 534.5513,571.195 531.0804,584.282 526.1489,607.8034 522.6638,633.0961 520.6059,657.2493 519.5957,677.4038 519.015,699.635 518.8438,721.4844 519.1986,739.1252 520.0351,754.2248 520.8439,761.0987 522.3516,767.4167 523.1953,768.9788 524.2266,769.7966 525.7793,769.6833 527.3225,768.4923 529.2954,765.9161 531.6463,761.8691 537.1964,749.8079 544.6787,731.2318 559.9906,689.5865 621.8761,516.6626 635.004,477.4964 639.6586,462.2491 643.2043,449.3163 645.5089,439.2398 646.8563,430.8131 647.2274,424.1776 646.5814,418.9272 645.8068,416.8797 644.7395,415.3361 643.2751,414.2198 641.7077,413.6486 639.6202,413.4719 637.2704,413.7918 631.8533,415.7926 624.2363,420.28 615.5,426.6719 606.6505,434.2062 597.3761,443.148 587.9761,453.0693 578.3642,464.0764 570.9035,473.4664 563.1629,484.1523 555.9581,494.9032 549.6438,505.4148 543.193,517.4845 537.8435,528.7444 533.9549,537.9932 530.3492,547.6435 527.0762,557.5098 524.0609,567.9088 521.6753,577.6794 519.2243,589.6651 516.1969,609.6475 515.0127,620.4486 513.6209,637.6868 512.3798,662.8154 511.6951,699.7129 511.7669,714.7862 512.1898,721.4769 512.7191,716.2131 513.7938,691.2766 514.3465,665.8823 514.5113,630.2863 514.2562,602.3875 513.3507,567.7805 512.0738,537.0567 510.1437,504.6315 507.6724,471.6417 504.9869,442.418 501.8392,413.8559 498.1085,385.0775 493.9405,357.1632 489.4507,330.8603 484.5937,305.8171 479.3482,281.9276 473.6688,259.028 467.2289,235.9911 460.3195,214.0909 453.1329,193.9437 445.7493,175.7118 438.0936,159.2066 430.2733,144.673 422.1427,131.7848 413.8569,120.7826 405.2405,111.5265 400.8038,107.6246 396.6445,104.5096 392.5122,101.9488 388.4176,99.9559 384.3714,98.5442 380.371,97.7252 376.4242,97.5065 372.5953,97.8835 368.8936,98.838 365.0381,100.5027 361.6318,102.6022 358.1184,105.4649 355.0484,108.6309 351.9213,112.6065 347.7471,119.391 344.0767,127.268 340.9244,136.2449 338.3828,146.0877 336.3903,157.047 335.0228,168.7032 334.2502,181.3306 334.1075,194.4486 334.5771,207.9298 335.6412,221.6471 337.2749,235.3794 339.4566,249.0412 342.3049,263.3708 345.7504,277.9196 349.7677,292.6096 354.3226,307.352 363.359,332.7222 373.792,357.5733 386.0171,382.8223 400.3547,409.1195 412.2374,428.9308 426.0286,450.1728 441.8902,473.3256 466.745,508.4424 484.8622,535.1026 496.1143,553.6151 504.2033,568.6573 508.9269,579.0905 513.1655,589.4167 516.012,597.2873 519.6961,608.8647 522.1276,617.8601 524.7619,629.9156 530.589,662.3575 533.261,675.134 534.5429,679.4031 536.0,682.75 537.3333,684.7037 538.8333,685.7963 540.1533,686.0317 541.7096,685.5888 543.3266,684.4405 545.099,682.5775 549.0497,676.7446 553.8274,667.9443 558.902,656.9632 564.78,642.9933 580.5892,601.777 595.2603,559.5778 601.0038,541.2834 605.1622,526.6571 608.2782,513.638 610.0527,503.7153 610.4834,496.5906 609.7766,491.4919 608.373,488.9789 606.4128,488.0106 603.5642,488.1996 600.1829,489.7494 596.2296,492.6552 591.9808,496.6123 587.203,501.8244 582.0771,508.1384 572.7934,521.5204 564.294,536.5172 557.1675,551.4336 550.3612,568.9774 544.4163,587.9093 539.7087,608.0601 536.4807,626.8877 534.3735,645.1674 533.5756,654.7997 533.1582,664.832 533.0998,673.8537 533.4315,682.6633 534.0625,688.0312 535.27,693.5244 536.5312,696.3438 537.9551,697.5083 539.18,697.578 540.7434,696.8608 542.5343,695.269 544.1625,693.2364 548.5039,685.981 553.625,675.5 560.0179,660.6567 567.2281,642.5453 576.6612,617.5528 586.0625,591.4902 600.4563,549.1792 606.1764,530.7898 610.2477,516.2787 613.2189,503.7553 614.8567,494.2245 615.2752,486.8285 614.5713,481.6686 613.1381,479.0195 612.125,478.25 610.7155,477.7951 607.7248,478.1166 603.7176,480.0195 599.2324,483.2129 594.3171,487.6975 588.6582,493.7811 583.1097,500.5317 577.6278,507.9789 572.4474,515.7185 567.562,523.7963 562.5569,532.9038 554.7503,549.3829 547.4693,568.2413 541.9516,586.0778 536.895,607.609 533.4224,628.7551 530.9428,650.4435 529.8623,671.9833 529.9679,692.2239 530.8118,701.0046 531.7154,705.8424 533.25,709.875 534.0396,710.9344 534.9523,711.5313 536.3349,711.5824 537.875,710.75 539.6293,709.0236 541.7245,706.291 545.625,699.625 551.2499,687.6376 558.2085,671.0693 567.2132,648.1526 588.1402,591.1321 605.9415,539.1997 611.5886,521.0341 616.1744,504.9854 619.1029,492.9746 620.8072,483.1652 621.37,475.044 620.7105,469.6426 619.9647,467.8114 619.0706,466.5643 617.9777,465.6982 616.3448,465.1429 614.8349,465.114 612.7065,465.588 608.3064,467.6869 602.9973,471.4377 597.25,476.5894 590.7365,483.4346 583.9074,491.5596 578.0786,499.2087 572.4406,507.3788 566.8504,516.2905 562.122,524.6298 557.1036,534.4428 552.0628,545.2655 547.9966,555.0961 544.2425,565.3567 540.6656,576.6656 536.9837,590.1456 532.1048,613.2738 528.6192,638.7135 526.7771,659.2024 525.7543,683.9157 525.7619,700.2829 526.0706,707.7845 526.884,717.9796 527.8645,723.8361 529.395,728.342 530.395,729.7069 531.25,730.2639 532.875,730.25 534.3262,729.3301 536.2803,727.1868 538.5589,723.8218 543.6991,714.0463 550.0012,699.8015 557.8662,680.0758 566.9899,655.9678 598.4561,568.9163 613.5714,524.5992 619.9115,504.3616 624.3484,488.7816 627.2158,476.8551 629.0611,466.4568 629.6412,458.7558 629.0592,453.4621 628.1991,451.2303 627.1314,449.7513 625.8032,448.7877 624.2206,448.3144 622.3901,448.3063 619.875,448.875 614.1231,451.6171 607.6544,456.2111 600.3843,462.6434 592.5249,470.7193 584.1561,480.3681 577.4265,489.0205 570.6435,498.6987 564.2292,508.737 558.3276,518.9758 553.125,529.0 548.5374,538.8765 543.476,551.1315 539.389,562.2446 536.231,572.3341 533.0405,584.0243 530.5294,594.7183 528.3438,605.7918 524.67,630.572 522.2586,657.4957 521.2507,675.874 520.6465,698.5471 520.639,718.0626 520.9627,730.3012 521.603,741.7674 522.7517,751.1648 524.213,756.4398 525.2201,758.1941 526.213,758.925 527.7812,758.6719 529.3477,757.4082 531.243,754.9468 533.6425,750.9062 539.1182,739.5893 546.0713,722.5878 555.0845,699.0029 566.6728,667.319 611.8863,541.0393 627.9435,494.0016 633.0522,477.7335 636.9649,463.965 639.8923,451.9964 641.6863,442.1324 642.265,434.6786 641.7058,429.0762 640.9338,426.7407 639.6311,424.7661 638.1786,423.6875 636.1028,423.1099 633.5776,423.2342 630.7266,423.9985 627.5979,425.3364 623.8664,427.4043 614.5431,433.9597 604.9014,442.173 594.5506,452.3558 583.7224,464.3391 575.0491,475.0039 567.0593,485.9103 559.1144,497.9809 551.58,510.6685 545.2976,522.5885 539.6033,534.8503 535.0974,546.0717 530.75,558.75 527.876,568.494 525.2868,578.7501 522.7454,590.4444 520.7089,601.5694 519.0948,612.637 517.3762,627.6639 515.5712,651.2104 514.711,669.1167 514.1767,690.9893 513.0725,784.1042 513.1949,802.4447 513.6297,813.6895 514.6426,820.502 515.3944,822.5261 516.0966,823.2049 516.9983,823.1298 518.0994,822.2026 520.2991,818.6576 523.753,810.8763 528.1862,799.3065 564.5388,693.371 585.7339,632.9436 604.0562,582.0919 642.4753,477.6521 655.1506,442.0656 663.7067,416.1144 668.9151,397.3567 670.5398,389.6252 671.4304,383.4674 671.701,378.0913 671.2784,373.8942 670.25,371.0 668.2702,368.7365 665.8834,367.6949 662.6142,367.5456 658.7531,368.3542 653.8936,370.2226 648.1741,373.1418 641.6356,377.0795 634.099,382.1938 625.6109,388.511 606.2236,404.4618 588.0514,420.9803 571.3381,437.9025 558.7746,451.9469 548.4073,464.7872 538.5682,478.4841 529.8234,492.2966 523.1655,504.4673 517.3481,516.7529 511.2761,532.1397 504.8978,551.2193 503.6626,553.6563 502.9074,554.125 502.2742,553.3217 501.8472,552.0787 500.4448,543.7398 496.679,506.3709 492.5703,470.4588 488.172,437.6904 484.0722,411.9123 478.4807,381.8263 472.951,356.1068 466.3844,330.0262 459.7053,307.2291 452.4373,286.406 444.1637,266.7699 440.127,258.536 436.0334,251.0796 432.0805,244.7531 428.06,239.2153 424.0521,234.5678 419.8424,230.6711 416.0626,228.1077 412.4364,226.5853 408.9272,226.1298 405.8562,226.7035 402.8159,228.4065 400.1437,231.1855 398.2413,234.2255 396.603,237.9266 395.2963,242.0395 394.2726,246.6248 393.0557,257.4323 393.0003,270.2081 394.0834,284.3154 396.2232,298.8796 399.5822,315.0271 404.0477,332.1123 408.1412,345.3493 413.1803,359.7302 419.7861,376.8507 426.552,393.155 440.2801,423.372 468.3568,481.5459 478.0972,503.5676 482.5059,514.2751 489.4486,533.3382 494.9802,551.5439 498.9972,568.1615 503.3637,591.2289 503.9322,592.9599 504.1759,591.3704 503.9967,581.2675 503.2782,564.5192 499.9618,514.8123 496.0783,473.8218 490.8004,430.9266 485.0437,393.8699 478.0824,356.9271 471.109,326.3789 462.9385,296.662 458.4104,282.2733 453.7361,268.8197 449.0781,256.7448 444.2141,245.4719 438.9642,234.5891 433.6125,224.786 428.3981,216.4905 423.1583,209.438 418.1276,203.9394 412.8881,199.5786 408.0446,196.7799 403.0777,195.2697 400.709,195.098 398.4265,195.3143 394.4414,196.7436 390.6419,199.6913 387.2611,204.1516 385.419,207.6503 383.8067,211.6408 381.1972,221.4017 379.619,232.8928 379.1319,245.3014 379.6886,258.8323 381.3154,273.8794 383.9774,289.8546 387.5392,305.9411 392.2887,323.2199 398.3558,342.0136 405.2157,360.8376 412.8776,379.5284 421.2719,398.1952 430.787,417.9669 464.7339,483.2838 474.5787,503.3848 481.0567,517.765 487.3759,532.9426 491.1199,542.9994 495.018,555.0495 499.0273,568.9858 502.8882,585.884 505.7983,603.4718 507.8897,620.0429 509.5556,640.0741 510.2515,652.9995 511.6875,703.5312 512.086,700.619 512.4703,690.033 513.2486,652.4201 512.6751,592.3623 511.5508,558.2331 510.1377,528.4195 508.1703,497.7799 505.7606,467.8654 503.0545,440.1765 499.8964,412.8696 496.2872,386.0057 492.2824,359.9596 487.8914,334.83 483.1771,310.9514 478.123,288.1886 472.7022,266.4232 466.6171,244.6425 460.1225,223.9471 453.4035,204.914 446.3956,187.3465 439.2901,171.7044 431.9602,157.692 424.3691,145.2461 416.6204,134.521 408.5422,125.3674 400.7226,118.4663 396.716,115.697 392.991,113.6079 389.3055,112.0219 385.4792,110.9079 381.7092,110.358 378.0463,110.3702 374.4994,110.9306 371.0773,112.0251 367.7885,113.6397 364.3632,115.9776 361.3817,118.634 358.3124,122.0751 354.0912,128.2602 350.5569,135.1803 347.5107,143.0517 344.8923,152.1575 342.8528,162.0449 341.3422,172.9895 340.4305,184.5532 340.1072,196.6254 340.344,208.6748 341.1472,221.4248 342.523,234.4849 344.436,247.6296 346.9129,261.1351 349.9448,274.9317 353.5154,288.9383 357.7101,303.4196 366.0298,328.1046 375.6327,352.0849 387.0395,376.7761 400.7779,403.2376 412.108,423.0144 425.3459,444.341 439.8105,466.4514 464.0237,502.3295 483.0549,531.5755 493.8145,550.3494 502.4641,567.8615 506.9806,578.4489 510.8113,588.6379 514.5043,600.2059 517.5798,611.2029 520.3019,623.4135 522.7059,636.0223 527.1471,667.9722 530.1492,686.5873 531.611,693.0836 532.7354,696.3991 534.3943,699.3304 536.1779,700.7054 537.5004,700.7907 538.9577,700.2344 540.6399,698.889 542.5204,696.6707 546.9934,689.5633 552.1906,679.2792 558.402,665.2023 565.6738,647.2908 583.6224,599.4151 600.0781,551.8438 606.5037,531.6325 610.9494,516.2545 614.2425,502.9004 616.1927,492.2151 616.8145,484.3747 616.654,481.3213 616.1661,478.8589 615.3516,476.9894 614.416,475.7773 613.2981,474.9715 612.0014,474.565 608.8853,474.922 605.0042,476.782 600.1787,480.2129 594.7582,485.1074 589.0481,491.2026 583.0189,498.5297 577.9111,505.4117 572.6548,513.3011 566.8073,522.956 562.0173,531.6258 557.7845,540.1061 553.7154,549.1515 546.2469,568.6589 541.3098,585.0323 536.2735,606.1427 533.0195,624.5633 530.4436,646.6914 529.2909,663.0831 528.8792,673.54 528.7309,685.1881 529.1717,697.6661 529.8257,705.0275 530.878,710.8094 532.3576,714.4221 533.3595,715.5923 534.2223,716.0841 535.768,715.9532 537.3217,714.9641 539.1023,713.1166 541.1869,710.2182 546.03,701.4501 551.838,688.6342 559.5027,669.9509 568.6576,645.8931 593.2824,578.3555 609.4957,530.2333 614.3854,514.4621 618.0061,501.4074 621.1662,488.3803 622.9103,478.78 623.4306,471.1145 622.7619,465.6999 622.1589,464.0633 621.1917,462.5722 619.9652,461.5903 618.434,461.0811 616.6484,461.0216 614.6498,461.4086 610.0633,463.4726 604.5764,467.3171 598.5401,472.6637 591.9207,479.5472 584.1844,488.5572 578.0864,496.4536 572.3664,504.7231 566.5123,514.058 560.625,524.375 555.8525,533.6233 551.4026,543.2296 547.2562,553.1214 543.6913,562.8691 537.4857,583.2878 532.6101,604.5011 528.7641,627.1136 526.2425,650.8943 524.6851,677.445 524.4494,695.1904 524.7724,712.2642 525.5198,722.7244 526.501,729.4485 528.1962,734.9261 529.142,736.2314 530.0,736.7656 531.3047,736.8379 533.0556,735.8803 534.9377,733.8178 536.9439,730.8625 542.0799,721.1361 548.5085,706.5027 555.6129,688.5224 568.6342,653.975 598.5983,570.9568 616.1925,519.6357 622.42,499.9934 626.9243,484.4299 630.0432,471.8116 631.831,461.9611 632.5223,453.7628 631.9533,447.8909 631.1891,445.7994 629.9558,444.0985 628.6644,443.1667 626.8359,442.6169 624.719,442.6483 622.33,443.2196 616.8385,445.7983 610.1562,450.3906 602.2707,457.1879 593.9567,465.5354 585.3657,475.2967 577.8342,484.7338 570.916,494.3337 563.625,505.5 557.5561,515.7915 551.9371,526.4649 546.7354,537.5771 542.2292,548.5426 537.9811,560.3605 534.5495,571.3464 531.3053,583.2605 528.8526,593.7326 526.7624,604.4124 525.0193,615.3989 522.7502,633.0812 520.6306,657.6186 519.5957,678.1538 518.9575,702.6675 518.8906,721.3294 519.2116,740.1551 520.0351,754.8495 520.8439,761.6412 522.3569,767.7554 523.2349,769.2856 524.312,770.0776 525.9029,769.8509 527.3882,768.5518 529.4467,765.7273 531.7164,761.7469 537.3384,749.5675 544.7094,731.2512 562.2338,683.5511 622.5519,514.8277 635.4884,476.1318 640.0465,461.1478 643.4121,448.7976 645.6429,438.9045 646.8987,430.7676 647.2489,423.9121 646.617,418.8201 645.8228,416.6792 644.7182,415.0832 643.2627,413.9977 641.4416,413.4086 639.3519,413.3245 637.01,413.713 631.2181,415.9853 623.6104,420.5582 615.2704,426.7968 605.9776,434.8564 595.9372,444.5785 586.7819,454.2606 578.0025,464.4008 569.8803,474.7007 562.19,485.388 555.5118,495.5378 549.2583,506.1137 542.8156,518.2394 537.399,529.5971 533.4692,538.9083 530.1277,547.8958 527.0793,557.4152 523.7229,569.3323 521.4275,578.7944 519.0993,590.1646 516.0719,610.0223 513.8891,632.9301 512.9592,647.7888 512.2163,666.8744 511.6948,699.5505 511.7695,713.9824 512.1641,719.5293 513.3076,700.887 514.2756,658.8301 514.3923,640.0487 514.0048,598.9944 513.0902,565.4844 511.7595,533.0017 510.13,504.9462 507.917,475.8333 505.2086,445.7463 502.1851,417.5222 498.8001,390.7557 494.9271,364.4754 490.3555,337.2302 485.3757,311.0623 480.0516,286.3407 474.4561,263.3266 468.3551,241.1095 461.6736,219.5463 454.5972,199.2454 447.3603,180.8352 439.8926,164.0902 432.2508,149.1571 424.4869,136.1567 416.5595,125.0387 408.1365,115.4063 404.0742,111.5311 399.7116,107.9221 395.6836,105.1018 391.3834,102.644 387.1358,100.7949 383.2506,99.6301 379.1431,98.9779 375.4117,98.9384 371.7714,99.4507 368.2373,100.5162 364.8406,102.1057 361.3472,104.3787 358.0325,107.2109 354.9045,110.5789 350.3858,116.8973 346.3797,124.3896 342.9174,132.9649 340.0304,142.532 337.75,153.0 336.12,164.0825 335.0812,176.1005 334.6679,188.6222 334.8696,201.9263 335.7126,215.9281 337.1708,230.1272 339.2796,244.7937 341.86,258.8255 345.0997,273.3064 348.9373,287.9256 353.3397,302.6156 362.3448,328.4664 372.9699,354.5338 384.4443,378.8609 397.8768,403.939 411.3612,426.7962 425.3534,448.6948 440.7152,471.2467 471.2974,514.859 485.6805,536.396 495.3709,552.3436 504.6667,569.9815 508.2181,577.7901 512.961,589.4242 515.8963,597.5005 518.1821,604.9273 521.8967,618.6686 524.6129,631.0357 526.7093,641.8641 530.7088,665.8826 532.8379,675.8459 534.1286,680.4312 535.4966,683.8872 536.9008,686.2264 538.4136,687.389 539.7838,687.6324 541.25,687.25 542.748,686.2441 544.4219,684.5469 548.3928,678.8902 552.9843,670.4055 558.5067,658.5078 565.6395,641.6136 580.2924,603.1638 588.0705,581.4157 595.1015,560.6552 601.5204,540.4173 606.0705,524.6767 608.8392,513.2494 610.7381,502.6093 611.2495,495.5037 610.5605,490.4199 609.2044,487.7721 607.4319,486.6467 604.4716,486.7319 601.1608,488.1376 597.4195,490.7241 592.5806,495.0803 587.5522,500.4556 582.4533,506.6478 577.8438,513.0312 572.9054,520.5816 564.6944,534.8061 556.8806,551.2315 549.9579,569.009 544.206,587.3996 540.7952,601.1472 537.1477,619.8942 534.2412,641.4316 532.8594,661.2812 532.5932,672.6627 532.8076,680.8205 533.4531,688.5645 534.4719,694.1907 535.8418,697.8856 537.449,699.3746 538.75,699.5 540.0625,698.959 541.8307,697.4235 543.5495,695.3188 547.8244,688.3855 552.5599,678.851 558.7165,664.4777 566.3545,645.3972 584.0971,597.8837 599.16,554.2777 606.0482,532.3914 610.5229,516.8228 613.6186,503.9213 615.5656,493.1173 616.1319,485.7617 615.4706,480.222 614.2124,477.623 613.3444,476.792 612.0399,476.1881 608.8504,476.2613 605.0899,477.8234 600.6091,480.9028 595.3237,485.5554 589.8075,491.3117 584.2619,497.9042 578.8688,505.1317 573.3452,513.2862 568.5286,521.022 563.8627,529.2688 559.4708,537.8322 555.1083,547.2164 550.5463,558.0679 547.4352,566.3942 541.1411,587.2254 536.3539,607.93 532.5358,630.9814 530.5,650.375 529.2482,674.7072 529.461,693.7575 530.375,703.5 531.2422,708.3429 532.7412,712.394 533.622,713.552 534.501,714.071 535.8472,714.0972 537.3534,713.3234 539.1105,711.5932 541.2812,708.6562 545.4945,701.258 551.7797,687.8158 557.6447,673.7701 567.9431,647.2343 588.3708,591.4912 606.4982,538.5423 611.9348,521.3038 616.532,505.3532 619.856,492.023 621.8055,481.5413 622.5013,473.2343 621.9152,467.6327 621.25,465.875 620.1492,464.2926 619.0833,463.4398 617.5195,462.8742 616.0833,462.8102 614.0566,463.1997 609.4995,465.2876 604.1213,468.9959 597.9604,474.4238 591.131,481.522 584.3631,489.5191 577.8301,498.1819 571.6204,507.2043 566.125,516.0 561.0251,525.0527 555.8328,535.235 551.149,545.325 547.4493,554.5179 543.2418,566.2325 537.4864,585.2586 533.1194,604.7129 529.0154,629.6174 526.5037,653.9789 525.0432,683.3004 525.2438,709.3602 525.9532,719.518 527.0185,726.2222 528.6035,731.6074 529.4844,733.0156 530.5293,733.791 531.9333,733.8282 533.5599,732.8608 535.4719,730.7952 537.379,728.0375 542.6794,718.1211 548.8845,704.2017 557.4685,682.4782 567.9366,654.7219 583.8207,611.4495 598.2667,570.7887 614.2826,524.0641 620.7781,503.5257 625.3855,487.5659 628.572,474.593 630.5767,463.8048 631.228,456.1333 631.0963,453.093 630.6277,450.5188 629.8631,448.4366 628.8457,446.8797 627.5781,445.8281 625.731,445.2049 623.9235,445.1944 621.6069,445.7068 616.0748,448.1887 609.4894,452.6215 602.6389,458.488 594.739,466.3848 586.5156,475.6828 578.9185,485.157 571.7139,495.0209 564.881,505.3443 558.844,515.4636 553.375,525.75 547.7283,537.6889 543.0717,548.8316 539.1386,559.6615 535.7426,570.4306 532.4577,582.1587 527.3046,606.3602 523.751,631.1538 521.3196,658.531 520.4487,673.9855 519.765,696.183 519.5938,717.9648 519.9438,735.1417 520.9113,750.3525 521.6367,756.3842 523.192,762.3699 524.055,763.9175 525.088,764.721 526.6538,764.5718 528.2567,763.3264 530.1142,760.936 532.305,757.2616 537.7757,745.7108 545.0928,727.7575 567.8753,666.0632 618.5152,524.3754 631.8389,484.8944 636.9087,468.4961 640.5944,455.3124 643.019,445.0006 644.421,436.6382 644.9259,429.5001 644.4544,424.1257 643.6455,421.5776 642.4474,419.7226 640.7652,418.4961 638.5936,417.931 636.0709,418.0454 633.2246,418.7842 629.6703,420.2928 625.7809,422.443 616.4112,428.9826 606.1769,437.6922 595.0073,448.6454 583.7209,461.018 574.572,472.0325 566.3223,483.0465 558.3508,494.8879 550.9063,507.2407 544.5674,519.1064 538.9795,531.0264 533.1319,545.4808 529.1231,557.1845 523.3438,578.3523 519.0431,600.437 516.1356,623.1879 514.0532,653.0467 513.1694,675.4473 512.1496,757.8216 510.3395,836.5881 510.6415,848.0593 511.1803,851.0825 511.9654,852.4274 512.508,852.371 513.2089,851.7354 515.1274,848.4629 520.4092,834.8708 561.6381,709.6883 576.1562,667.3811 592.3709,621.5212 616.0538,556.5972 660.0577,439.1322 672.6221,404.0528 679.5776,382.5085 683.6797,366.8152 684.7793,360.7214 685.32,355.2098 685.2501,351.1711 684.5781,347.6562 683.4592,345.3232 681.873,343.7344 679.5857,342.7918 676.8888,342.6505 673.4548,343.224 669.2667,344.5755 664.2835,346.7739 658.861,349.6469 644.3194,358.7944 626.3047,371.6268 609.125,385.0 589.0711,401.799 574.8846,414.5093 561.8886,426.9734 549.0182,440.2508 538.949,451.5664 528.1074,465.0994 521.0242,474.9994 512.7633,487.9056 501.875,506.625 499.6612,509.2449 498.6253,509.8254 497.8941,509.8247 496.8058,508.7645 495.4058,505.5145 492.9563,494.5092 482.5498,428.4822 478.9887,408.9707 474.1182,385.1557 470.4295,369.2281 466.184,353.066 461.6353,337.1911 457.3018,323.6453 451.4952,307.9058 445.6488,294.3458 440.2652,283.9673 434.269,274.7064 431.2854,270.9483 428.621,268.1431 426.0396,265.9928 423.595,264.555 420.883,263.6715 418.736,263.588 416.449,264.282 414.6841,265.5595 413.1074,267.4712 411.8602,269.7413 410.7874,272.6124 409.8851,276.2965 408.8844,285.1629 408.8912,295.8287 410.0393,307.5102 412.3518,321.3435 415.2079,334.4016 419.0065,348.2578 426.7898,371.968 438.209,401.2276 451.7466,432.5114 471.7471,476.8792 480.1217,496.9174 490.5873,524.2705 492.9983,528.772 493.4531,528.7188 493.783,527.9155 494.0192,523.1764 493.0184,504.4447 490.311,478.0228 484.9416,437.0479 479.633,405.3518 474.2726,378.7113 468.1203,352.317 461.71,329.3927 455.0419,308.92 448.4735,291.9081 441.1215,276.3182 437.4885,269.7669 433.859,264.0171 430.4434,259.3785 426.9281,255.4403 423.7363,252.6051 420.3447,250.4402 417.1451,249.3242 414.4544,249.2264 411.7503,250.1079 409.248,252.0832 407.489,254.45 405.9895,257.4649 404.7496,261.102 403.7691,265.3356 402.7537,274.3915 402.844,285.5392 404.0969,299.2025 406.1872,312.485 409.4672,327.287 414.1845,344.6101 421.5971,366.8088 432.8497,395.7528 446.4374,426.6752 467.8949,473.2609 479.217,499.6143 486.6929,519.2875 495.7285,547.051 497.348,550.816 497.746,550.662 498.0,549.5 497.9873,543.2495 497.1278,527.0528 495.2917,504.5407 490.9471,463.812 486.2272,429.9262 481.1109,399.3677 474.7014,366.9826 468.9911,342.8764 461.682,316.794 454.3452,294.5007 446.7221,275.3376 442.4966,266.154 438.3771,258.1376 434.3909,251.2848 430.3775,245.3203 426.2539,240.201 421.8313,235.7271 417.9166,232.7216 414.1832,230.8309 410.6508,230.0897 407.3151,230.5394 404.4384,232.036 401.6958,234.7701 399.9129,237.5381 398.2108,241.2994 396.9325,245.2727 395.8253,250.1605 394.6676,260.4842 394.642,272.6544 395.7518,286.4478 397.9323,301.0214 401.3157,316.8944 405.8994,334.1233 410.1106,347.8427 414.9688,361.9375 420.5634,376.6761 426.9815,392.2709 440.0895,421.2611 469.5079,482.9801 477.1871,500.365 482.2518,512.664 488.8996,531.026 494.3339,548.5063 498.651,565.7152 502.5,584.125 502.9062,584.9219 503.088,580.4213 502.4516,562.7251 501.2585,540.7969 499.6358,519.5921 495.1532,472.4696 490.6178,435.8167 484.5461,396.1844 478.7044,364.8279 470.5627,329.0725 466.3009,312.8241 462.0055,298.0035 457.6516,284.4498 453.0385,271.4556 448.2023,259.1538 443.3335,248.0357 438.4797,238.1645 433.5209,229.3114 428.4588,221.5222 423.5046,215.0556 418.3351,209.5482 413.5377,205.6318 408.8794,203.0315 404.2066,201.7707 399.8436,201.9863 395.8805,203.6268 392.346,206.6346 389.0521,211.3367 387.2315,215.128 385.7331,219.2593 383.4651,229.1513 382.2593,241.0277 382.1686,254.715 383.1332,268.8259 385.1199,283.4143 388.2482,299.4723 392.5115,316.8427 397.0611,332.5396 402.4625,348.5672 409.1475,366.187 416.8871,384.7936 425.1529,402.9062 437.0481,427.3625 455.7514,463.8923 472.4421,497.3237 483.6549,522.4683 491.6616,543.9432 494.4275,552.6893 499.2656,570.1973 502.154,583.328 503.9841,593.3182 506.2344,609.0 507.6872,623.5258 508.7772,638.6179 510.0324,663.3333 510.4279,648.7984 510.1821,618.1909 509.4233,584.6605 507.9668,549.826 506.6452,525.4712 504.9902,502.5213 502.6057,474.5199 499.9955,448.5468 497.125,424.125 493.7213,398.8973 490.0892,375.1972 486.205,352.7756 481.9919,331.1762 477.4322,310.3321 472.4404,289.7101 467.1939,270.1406 461.507,251.1074 455.7372,233.8871 449.8212,218.2193 443.4136,203.2538 436.6808,189.3884 429.7426,176.9375 422.8576,166.3479 415.8798,157.3899 409.0659,150.3941 402.0386,145.0325 398.6653,143.1182 394.9879,141.536 391.751,140.5982 388.246,140.0919 385.183,140.1146 381.892,140.6666 378.7302,141.7685 376.0047,143.2262 373.1204,145.3591 370.6633,147.7367 366.1898,153.7601 363.3899,159.037 360.9486,165.0319 358.8695,171.6856 357.0763,179.3359 355.7521,187.156 354.7616,195.9026 354.189,205.1095 354.0417,214.4264 354.3095,224.208 354.9784,234.2058 357.4895,255.033 361.5508,276.8955 367.1235,299.4124 373.7436,321.0242 381.7569,343.205 391.2977,366.1966 401.5491,388.0434 412.6444,409.3572 426.7767,434.5164 468.2166,503.0647 478.463,520.8689 485.1016,533.3786 490.8773,545.1853 496.4691,557.811 500.9296,569.069 504.935,581.0308 508.8022,594.6665 511.8751,607.8525 514.3541,620.9709 516.4822,635.7693 517.8954,648.2494 519.8654,671.1248 522.1869,705.8832 523.4831,719.7178 524.8382,728.7503 525.8844,733.2186 527.4477,737.0803 528.3417,738.2938 529.1338,738.8209 530.6788,738.869 532.4719,737.7798 534.4304,735.5534 536.6644,732.231 541.6887,722.7669 548.378,707.5036 555.9775,688.4883 567.7521,657.1547 597.8427,573.9555 617.3206,517.2495 622.6855,500.3743 627.3435,484.2974 630.748,470.7163 632.7623,459.9667 633.406,452.0574 633.2756,448.9015 632.7713,445.9476 632.0302,443.9203 630.8541,442.2237 629.5064,441.2468 627.6261,440.6997 625.4515,440.7412 623.0,441.3365 617.3356,444.05 610.274,448.9636 602.1511,455.9695 593.6914,464.4499 585.4585,473.8563 577.0188,484.5557 570.1275,494.1448 563.3465,504.5941 556.9612,515.5299 550.9447,527.0445 545.3093,539.1004 540.993,549.723 536.4986,562.374 533.1813,573.428 529.5072,588.0426 524.9917,611.2738 521.8288,636.3288 520.1,658.3211 518.9466,681.6121 518.5543,696.078 518.5611,742.344 519.4087,757.9717 520.2379,765.5306 521.6016,771.4634 522.4453,773.1128 523.4766,774.0005 525.0293,773.9318 526.4119,772.9065 528.3505,770.449 530.4407,766.9291 535.3359,756.4425 542.2643,739.1534 564.1354,679.5717 624.6748,510.2921 637.4923,472.0008 641.9429,457.3776 645.3238,444.9906 647.5699,435.0723 648.8378,426.8957 649.1459,420.6718 648.5365,415.6373 647.8824,413.7385 646.861,412.0524 645.7354,410.9863 644.1503,410.196 642.4857,409.8763 640.2922,409.9548 635.1775,411.4521 628.787,414.8066 621.0836,420.0409 612.7423,426.6332 604.1217,434.2919 594.9159,443.2912 586.052,452.7055 577.48,462.555 569.787,472.1904 562.2967,482.4713 554.8886,493.6246 548.4933,504.1836 542.8306,514.6006 534.6516,532.2149 527.6614,550.7988 522.4639,568.2664 518.2418,588.0056 515.024,609.3001 513.1443,627.9267 511.6,656.2708 511.0952,675.0702 511.1574,684.8426 511.7109,668.6484 511.9034,643.1947 511.498,606.0534 510.5725,571.2284 509.4432,545.2302 507.4643,511.7905 505.5217,485.232 503.2936,460.5117 500.239,432.269 496.9277,405.6068 493.3475,380.4557 489.3914,356.1107 484.9448,332.0327 480.1137,308.7288 474.9841,286.6112 469.5171,265.5494 463.6397,245.3827 457.6001,226.9813 451.066,209.3203 444.1843,192.829 437.1591,177.9984 429.8795,164.6216 422.5792,153.1628 415.3167,143.6823 407.9092,135.9492 404.0048,132.616 400.1343,129.8182 396.3095,127.5577 392.5422,125.8362 388.8439,124.6554 385.2265,124.0171 381.7017,123.9229 378.2811,124.3747 374.9766,125.3741 372.083,126.7594 369.0209,128.8169 366.2607,131.2596 363.4703,134.3859 360.8733,138.0013 357.6668,143.6443 354.6989,150.4359 352.1625,158.0274 350.0714,166.3439 348.4396,175.3107 347.2773,184.8923 346.6168,194.9632 346.4538,205.4147 346.7815,216.5537 347.5863,227.9497 348.8893,239.9143 350.6406,251.9873 352.886,264.474 355.5294,276.8347 358.6281,289.3319 362.0849,301.6413 369.6454,324.859 378.6143,348.361 388.3843,370.7642 399.5076,393.2499 411.6288,415.425 425.998,439.8945 439.741,461.9026 469.2578,507.7637 480.7314,526.7649 491.6255,546.6972 497.2959,558.6433 501.854,569.1104 506.3292,580.8943 510.5492,593.6782 512.9925,602.5633 516.1883,616.6055 518.1314,626.8981 520.5576,643.1068 525.907,692.2815 527.75,705.25 528.725,709.7807 530.0629,713.6495 531.4011,716.0191 532.9263,717.2069 534.3331,717.3571 536.0434,716.6403 537.9113,714.9354 539.8599,712.4462 544.2539,705.0305 549.8471,693.355 555.8176,679.2053 567.0669,650.4863 587.3933,595.3375 606.0416,541.6141 612.6024,521.0555 617.7228,503.5964 621.1508,489.9839 623.2381,478.6143 623.9951,470.044 623.8687,466.896 623.407,464.3499 622.7807,462.7154 621.7227,461.1484 620.3896,460.1316 618.79,459.6477 615.2665,460.0652 610.1495,462.4729 604.5311,466.4406 598.4987,471.8405 591.1719,479.4844 583.7727,488.2142 577.3237,496.6895 571.3003,505.4871 565.4363,515.0105 559.6906,525.2579 554.566,535.3057 550.5612,544.0533 546.6053,553.8918 542.3408,565.6725 538.9033,576.5174 535.7396,588.1439 533.4433,598.2272 530.7866,611.9096 527.2502,637.3312 525.286,659.6219 524.5505,673.7456 524.0386,692.6085 524.0599,704.7338 524.5661,718.4431 525.2628,726.0921 526.469,733.0758 527.9193,737.0563 528.8014,738.2762 529.8063,738.9519 531.325,738.8 533.1813,737.4331 534.9859,735.2929 537.1579,731.9389 542.3198,721.765 548.8306,706.6166 558.0358,683.1077 574.7171,638.1635 601.4913,563.5553 617.9558,515.2561 623.6542,497.1214 627.9673,482.0331 631.0472,469.4855 632.9179,459.2135 633.5,451.75 632.9165,446.05 632.1236,443.8344 631.0118,442.217 629.5941,441.172 627.8832,440.6739 625.6157,440.7209 623.2298,441.2851 617.4427,444.0216 610.2991,449.0275 602.4156,455.8732 593.7084,464.6521 585.0503,474.4329 577.4453,483.9902 570.2168,494.0834 563.1212,505.0365 556.625,516.125 551.0169,526.7868 546.0558,537.4256 541.3794,548.8207 537.2828,560.254 533.7401,571.5246 530.8524,582.2083 528.1726,593.9182 525.9606,605.6552 523.7829,619.2051 522.4157,630.1526 521.0466,644.1852 519.7981,662.4125 518.8487,683.7754 518.3512,705.8274 518.6898,747.0216 519.2754,757.4551 520.2407,765.8009 521.704,771.6484 522.4043,773.1235 523.3887,774.0229 524.9487,773.936 526.4604,772.8117 528.1797,770.6714 530.2904,767.1016 535.6906,755.494 542.7368,737.9009 562.6172,683.6614 625.1398,508.8378 637.6904,471.5057 641.9409,457.519 645.2537,445.3087 647.5128,435.246 648.7666,427.2013 649.0904,420.4253 648.4968,415.4165 647.7969,413.375 646.8333,411.8022 645.6074,410.6836 644.1208,410.0044 642.375,409.75 639.9508,409.9488 634.6852,411.6304 628.2664,415.0532 620.7129,420.216 612.5178,426.7768 603.5777,434.8323 594.0474,444.2531 584.9968,453.9543 576.6045,463.726 568.674,473.7785 561.0502,484.2852 554.125,494.75 547.862,505.2107 541.989,516.122 537.8113,524.6791 534.234,532.9356 526.8079,553.3258 521.7375,571.1966 517.552,591.2716 514.7283,611.3434 512.8373,630.9997 511.4402,659.9741 511.151,684.308 511.7093,663.5016 511.9067,634.9154 511.5295,604.9772 510.8068,579.5814 509.6124,549.0202 508.1865,522.5084 506.031,491.8248 503.5758,463.4975 500.8933,437.7769 497.7402,411.9731 494.1644,386.2885 490.3314,361.9951 486.1895,338.7266 481.7951,316.7408 477.0464,295.4994 471.9888,275.1903 466.356,254.8841 460.3682,235.575 454.1873,217.799 447.8713,201.6635 441.101,186.4166 434.2081,172.7874 427.1059,160.5641 419.8558,149.893 412.7356,141.1586 405.5902,134.1579 398.7108,129.1591 395.3045,127.3223 391.5866,125.8058 388.3083,124.9064 384.7502,124.4169 381.2903,124.4563 377.9383,125.0166 375.0219,125.9595 371.9018,127.4872 368.918,129.5125 366.0801,132.0273 362.1182,136.6996 358.4262,142.6476 355.2567,149.5221 352.4779,157.6208 350.2344,166.5775 348.5279,176.2916 347.3601,186.6625 346.7191,198.037 346.6535,209.2777 347.1072,220.5452 348.1276,232.7571 349.6629,245.1226 351.7412,257.947 354.3612,271.1553 357.5152,284.6582 361.0951,298.0257 368.3878,321.1455 377.3184,344.9199 387.8822,369.2619 399.7054,393.3901 411.603,415.2299 425.9431,439.5139 437.8852,458.7407 470.167,509.3092 479.3083,524.3086 486.662,537.3657 492.4579,548.3681 496.7335,557.3104 501.7359,568.926 506.0081,580.0456 509.6678,591.153 512.8895,602.523 515.4043,613.4526 518.3208,628.7704 520.7277,645.3124 526.0,694.625 527.0299,701.9851 528.4912,709.3903 529.5595,713.0314 531.1703,716.2735 532.1241,717.3494 532.9445,717.8017 534.5287,717.8003 535.9582,717.0975 537.648,715.5914 539.6088,713.1075 544.2106,705.3507 549.3134,694.6242 556.6515,677.2258 566.2626,652.68 587.2132,595.9511 607.6209,536.7894 613.2108,519.3923 617.6644,504.1253 621.2426,490.0796 623.3566,479.1866 624.1956,469.9429 624.0806,466.6387 623.6343,463.963 622.9653,462.1339 622.0306,460.7798 620.6201,459.7488 619.16,459.2893 617.5041,459.2338 615.272,459.6829 610.7355,461.7797 604.9086,465.8775 598.6532,471.4456 591.3215,479.1015 584.1891,487.4514 578.1523,495.3042 571.9157,504.2615 566.0464,513.5427 560.6663,522.8978 555.6525,532.687 550.1144,544.6845 546.3025,553.9687 542.6888,563.9526 537.6428,580.4729 532.5937,601.5863 528.6305,624.834 525.8595,649.7022 524.668,667.9863 523.9604,685.2078 524.0248,711.2465 524.8067,723.759 525.8577,731.612 527.316,736.9572 528.3056,738.6718 529.4688,739.5955 530.8193,739.6615 532.6011,738.542 534.463,736.4722 536.5937,733.3438 541.3301,724.3528 547.3651,710.483 556.477,687.3781 565.6851,662.9324 583.4214,614.3702 601.8142,562.6623 618.034,515.1801 623.9121,496.6093 628.1566,481.9134 631.1785,469.6131 633.0505,459.5333 633.7548,451.6093 633.2676,445.9993 632.5762,443.8109 631.4099,441.8588 630.1607,440.7723 628.3326,440.0894 626.1499,440.0542 623.9671,440.5246 618.1227,443.1507 611.1536,447.9127 603.0025,454.9302 594.1179,463.7425 585.6633,473.2704 577.5556,483.3866 570.3466,493.3305 563.5816,503.7393 557.0248,514.9213 551.2699,525.7246 546.5208,535.856 541.2122,548.7387 536.875,560.7812 533.724,570.8622 530.9992,580.8958 526.0339,604.1765 522.6785,626.6373 520.0615,655.7999 519.0835,675.2015 518.4151,696.5072 518.2526,730.461 518.6565,749.7728 519.2427,759.6011 520.2553,768.2064 521.7425,773.3128 522.5683,774.7718 523.4599,775.4423 524.8501,775.2562 526.5619,773.7969 530.3454,767.8806 535.3513,757.2164 541.8077,741.0558 555.6094,703.5502 625.4186,508.5901 638.0166,471.1441 642.3556,456.9079 645.6617,444.8163 648.0278,434.4965 649.376,426.2768 649.7765,419.7581 649.2332,414.8196 647.7478,411.2393 646.669,410.0396 645.0894,409.0957 643.5426,408.7069 641.4186,408.6984 636.3011,410.0715 630.27,413.0658 622.8692,417.9223 614.5966,424.3183 605.6072,432.1746 596.5809,440.8673 587.4459,450.4154 578.8719,460.1581 570.8095,470.1148 563.1382,480.4216 556.122,490.7201 549.6094,501.2573 543.5998,512.0411 535.4355,528.9055 528.6961,546.1877 523.3704,563.1037 518.8883,582.0407 515.8238,599.8208 513.5292,618.8341 512.3728,633.207 511.1775,656.5285 510.9074,676.963 511.3612,659.4796 511.386,633.5907 510.8851,602.4514 509.6997,564.433 508.5731,540.2222 506.5384,507.8514 504.6955,483.0916 502.6401,460.368 499.8345,434.6833 496.5905,408.6996 493.2176,384.9637 489.5269,362.0836 485.5599,340.3428 480.9337,317.7107 476.068,296.2464 471.0061,276.1013 465.4917,256.367 459.8573,238.3067 453.9087,221.2923 447.5983,205.231 440.9736,190.2836 434.2624,176.9567 427.5275,165.3085 420.6367,155.1201 413.8216,146.7495 406.7391,139.812 399.6097,134.58 396.11,132.6694 392.6664,131.2302 389.2888,130.2629 385.987,129.7685 382.7706,129.7476 379.6495,130.201 376.6334,131.1294 373.732,132.5336 370.8491,134.4968 368.127,136.9373 364.259,141.5662 360.7937,147.1878 357.7478,153.7261 355.0193,161.4947 352.8854,169.6744 351.1515,178.9986 349.9691,188.8391 349.3306,199.2526 349.2317,210.0801 349.6637,221.6217 350.605,233.4384 352.075,245.8349 354.082,258.7325 356.5471,271.6441 359.3087,283.9023 362.6468,296.6854 369.7895,319.7522 378.4358,343.2289 388.3756,366.7051 399.54,389.8766 411.3692,412.057 425.4949,436.7004 436.8362,455.2322 467.5045,503.8997 479.5146,524.1064 485.8219,535.5022 491.2183,546.0095 496.8466,558.0045 501.2554,568.411 505.4195,579.941 509.8542,593.9449 512.3995,603.6572 515.1759,616.4835 517.5443,630.2124 519.6407,645.1959 521.7514,665.2192 524.406,695.3481 526.1836,710.1357 527.3411,716.0913 528.8733,721.2903 530.2179,723.6392 531.8483,724.7791 533.3805,724.7509 535.0395,723.8076 536.9493,721.89 538.775,719.4153 543.2696,711.4196 548.9388,699.173 556.4969,680.8144 565.6961,657.0397 590.5908,589.071 609.6321,533.8343 616.0694,513.7362 620.8,497.6252 624.3001,483.7721 626.5156,472.2344 627.2611,464.0389 626.6865,458.2203 625.9781,456.1917 625.0027,454.6577 623.7637,453.6121 622.2641,453.0486 620.507,452.961 618.4723,453.3316 613.5705,455.4383 607.6344,459.4451 600.6197,465.4356 593.6157,472.4722 586.1899,480.9696 579.1716,489.8556 572.451,499.2216 566.3819,508.5677 560.4481,518.6885 555.1114,528.7466 550.4804,538.5274 544.903,551.8014 541.3096,561.5286 534.7323,583.6569 532.1351,594.3912 529.8327,605.5856 526.1183,629.7199 523.602,656.5528 522.262,685.5769 522.0041,706.5735 522.1911,721.2883 522.9962,733.9822 524.1951,742.9772 525.5263,747.8157 526.4879,749.4153 527.6245,750.2659 529.0929,750.1961 530.673,749.0794 532.5276,746.8928 534.6697,743.571 539.7107,733.6363 546.0386,718.7855 556.9868,690.3102 574.4262,642.9508 604.8321,558.0453 622.0806,507.914 627.862,489.7841 632.2518,474.751 635.6085,461.4094 637.6837,450.7274 638.4867,442.693 638.0484,436.8304 637.2748,434.4712 636.0562,432.5459 634.4756,431.3076 632.5517,430.7224 630.3036,430.7562 627.75,431.375 621.3881,434.3822 613.487,439.8405 604.587,447.446 594.8915,457.0158 585.1286,467.8435 576.7122,478.1691 568.8045,488.8762 561.7209,499.5168 554.9453,510.8811 549.1968,521.5696 544.137,532.3191 538.3471,546.2086 534.0397,558.2649 530.6408,569.3805 527.9887,579.4828 524.8418,593.7738 522.9058,604.4523 519.7114,627.4061 517.0734,661.5854 515.7339,705.7109 515.465,743.7433 515.7267,769.4761 516.19,781.5129 517.1351,790.8369 518.2631,795.8911 519.1261,797.4884 519.943,798.1024 521.0183,797.968 522.4213,796.7037 525.7718,791.2174 530.3239,780.9781 536.414,765.2781 581.1755,638.8724 638.8973,478.6373 649.8503,445.7783 656.6238,422.2013 658.6255,413.2244 659.6989,406.3131 660.0543,400.2211 659.6041,395.5216 658.3833,392.1543 657.4191,390.8719 656.2472,389.949 653.3627,389.0846 649.3997,389.4327 644.7344,391.004 639.0315,393.8802 632.1329,398.1894 624.54,403.6 616.0533,410.302 607.4329,417.724 597.6057,426.8195 588.4126,435.9119 580.1305,444.6705 571.8289,454.0752 564.3445,463.166 557.2233,472.4681 547.1503,487.012 538.3116,501.7019 530.8624,516.329 523.7408,532.8721 518.5142,548.0925 514.0812,564.4113 510.3191,583.2712 507.8054,599.589 507.2821,602.1563 506.921,602.7413 506.1456,596.5123 502.7487,537.6263 500.0125,503.6473 495.7752,461.7661 491.2856,425.8122 485.4676,388.7429 478.887,354.0364 471.7765,322.9115 463.6621,293.0896 459.1164,278.4935 454.4074,264.8056 449.6908,252.4611 444.566,240.4333 439.1806,229.0906 433.8692,219.1752 428.6697,210.6975 423.4188,203.3982 418.337,197.5887 412.8772,192.7055 407.7927,189.3836 402.5807,187.3318 399.9185,186.8781 397.6644,186.848 393.3896,187.819 389.3636,190.2504 385.6372,194.2447 383.2366,198.0547 381.0009,202.8965 379.2376,208.0775 377.705,214.2862 376.5522,221.1217 375.8067,228.3174 375.4539,235.8543 375.4818,244.1039 376.7074,261.9076 379.4854,281.3941 383.4835,300.6435 388.9451,320.8465 394.6227,338.5174 401.1465,356.4857 408.2242,373.8656 416.5043,392.395 424.3904,408.9845 431.6146,423.3292 467.0938,490.1912 477.0198,510.3041 483.7915,525.3902 490.8699,542.9688 496.1539,558.8037 500.2014,573.1337 504.2974,591.5412 507.2504,609.3215 509.5855,629.3946 510.8395,647.6436 511.6866,666.6448 512.4815,702.7581 512.5539,732.4705 511.2247,828.2495 511.9087,839.6963 512.4785,842.1664 513.332,843.2266 513.9995,843.0717 514.604,842.5018 516.5,839.431 518.975,833.9658 521.666,826.9163 560.9163,709.4908 583.6673,643.7946 608.6856,574.3815 651.7826,458.7305 665.8804,419.4714 673.6386,395.8347 678.4981,378.3043 679.9384,371.5151 680.7787,365.7646 681.0068,361.2427 680.6602,357.3283 679.7395,354.3531 678.0565,352.0553 676.0202,350.8801 673.1621,350.4572 669.7467,350.9055 665.4847,352.2571 660.2706,354.5395 654.5767,357.548 640.2867,366.6161 621.6919,380.3237 603.2847,395.1888 584.2708,411.8959 570.6268,424.8667 556.7568,439.1758 546.0346,451.1881 536.2174,463.4086 527.7964,474.9925 520.8495,485.6069 513.1921,498.983 502.6951,519.9142 500.8889,522.4491 499.5453,523.0015 498.5366,521.8712 497.5208,519.1326 495.4514,508.7203 485.1744,437.0189 481.9505,417.9159 476.9178,391.4092 472.901,372.7346 468.2375,353.6437 463.4852,336.2679 458.7019,320.8442 452.387,303.2179 445.8593,287.6933 439.533,275.2696 432.8098,264.7214 429.5169,260.5664 426.5276,257.4422 423.6235,255.0711 420.7292,253.4221 417.6776,252.4812 415.2031,252.4531 412.6149,253.3354 410.5735,254.9119 408.9477,256.9421 407.4448,259.7328 406.2128,263.1033 405.2516,267.0155 404.1418,276.3121 404.1334,287.424 405.3049,300.2418 407.6057,314.467 410.622,328.2831 414.8141,343.6356 421.8784,365.6394 430.1572,387.3633 442.0361,415.479 461.7628,458.4786 473.5696,485.1834 482.0283,505.6726 488.0894,522.191 494.1381,540.4316 495.6765,544.5231 496.6047,545.8102 496.9861,545.0509 497.1543,542.9727 496.8178,531.8316 494.5771,502.5827 490.6847,466.8758 485.5894,429.5575 480.5423,399.5096 475.2312,372.7686 468.5605,344.3817 461.7666,319.8164 454.2836,297.2574 446.5452,277.6294 442.9444,269.7886 439.2497,262.6223 435.1281,255.5928 431.1558,249.6351 427.2359,244.5862 423.3964,240.5114 419.6655,237.4761 416.0536,235.5234 412.6767,234.6173 409.2105,234.7894 406.0821,236.1964 403.5871,238.5131 401.875,241.0 400.2333,244.4049 398.9715,248.0806 397.882,252.6005 396.5805,263.1543 396.4546,274.9109 397.4803,287.8261 399.6567,302.3411 403.0446,318.827 407.1044,334.2634 411.4096,348.1095 416.7688,363.6242 421.7544,376.8423 427.5262,390.9505 439.2299,417.3761 471.3378,485.7835 476.8159,498.2965 482.8347,513.3332 486.6364,523.5472 492.4835,541.1671 495.633,552.4472 500.3114,572.0446 501.665,576.52 501.9529,575.676 502.0484,572.4617 501.4614,558.0163 500.275,538.0813 497.8019,506.2767 493.4116,463.861 489.5095,433.8283 483.6599,396.6747 477.4742,364.3312 470.0833,332.0583 462.2456,303.5906 457.9384,290.0615 453.5291,277.4677 449.0528,265.8807 444.3983,255.0459 439.7377,245.3947 435.1306,237.0 430.1265,229.0514 425.3805,222.6136 420.4354,217.0796 415.8251,213.0685 411.3385,210.3357 407.0623,208.8971 402.8075,208.7244 398.9268,209.9464 395.446,212.5372 392.391,216.4708 390.5046,220.0482 388.9611,224.0235 387.6879,228.4791 386.6181,233.7469 385.3682,245.6499 385.2606,258.9697 386.2438,272.8297 388.3723,288.1005 391.6354,304.5898 395.8012,321.3004 400.1788,335.9991 405.4302,351.4897 412.0224,368.9998 418.3859,384.3364 425.5748,400.2777 435.472,421.0839 464.1954,478.399 471.72,493.9815 481.0182,514.921 489.856,537.6841 492.9666,547.2204 496.9476,560.9691 501.8112,582.4334 505.3504,605.0341 507.2798,623.6079 508.388,637.73 508.383,614.4649 507.7904,591.1178 505.4123,538.8696 501.4213,486.6935 496.4655,439.6311 490.5576,396.0072 487.3033,376.1258 483.5766,355.8304 479.4336,335.3573 475.0843,315.9122 470.4844,297.3457 465.7683,280.1901 460.3432,262.4854 454.7551,246.0888 448.984,230.9021 443.077,217.0601 437.2337,204.9731 431.1851,194.0849 425.0734,184.6657 418.6271,176.3018 412.2089,169.5551 405.8818,164.4887 399.7088,161.1657 396.5704,160.145 393.753,159.649 390.8681,159.5797 388.0174,159.9757 385.2893,160.833 382.69,162.1391 380.2257,163.8819 377.9025,166.0488 375.7267,168.6276 373.4895,171.9608 371.067,176.5879 369.1094,181.4066 367.3116,187.1281 365.8229,193.4171 364.6622,200.1622 363.8248,207.3197 363.0991,223.098 363.6717,240.0505 365.4734,257.5795 368.5516,276.102 372.8837,295.4073 378.7385,316.3269 385.8037,337.4512 394.2495,359.1451 404.1351,381.5977 413.6129,401.2344 424.3426,421.6501 440.3058,450.2374 463.6867,490.8069 477.8912,517.1462 485.171,532.0823 491.1779,545.5418 496.067,558.014 500.4537,570.7467 504.2046,583.7337 507.6002,597.9658 510.474,613.2617 512.5346,627.4046 514.3926,645.6193 516.0105,668.6944 517.002,691.1227 518.0145,725.0917 519.2083,747.7182 520.1921,757.8375 521.2103,763.9035 522.4894,767.7007 523.4641,769.0574 524.3054,769.5776 525.5647,769.5142 527.261,768.1933 529.1527,765.6942 531.4266,761.8356 536.4991,751.1616 543.0848,734.819 563.9377,678.3284 622.2652,515.3796 635.1022,477.0743 639.6863,462.0687 642.9965,450.0086 645.2855,439.9841 646.5905,431.7918 647.0429,424.7872 646.5241,419.5898 645.7915,417.3966 644.7418,415.7473 643.375,414.625 641.5939,413.9466 639.5443,413.7554 636.8971,414.1036 631.1504,416.2686 623.9227,420.619 615.0231,427.2861 605.9836,435.1064 596.224,444.5595 586.872,454.5106 577.8683,464.9642 569.4475,475.643 561.7226,486.3868 555.0178,496.6592 548.8335,507.2243 542.2247,519.7923 536.9844,531.0 533.1702,540.2285 529.8711,549.2457 523.656,570.1927 519.0775,591.2022 516.043,611.5845 514.041,633.0195 512.3663,664.249 511.715,709.493 511.8836,722.1857 512.1875,726.2344 512.8616,720.1768 513.6877,704.9163 514.353,681.2432 514.8811,643.1912 514.7474,613.258 514.2583,583.6375 513.3384,555.7557 511.8404,524.4076 509.9351,494.4305 507.6035,465.1977 504.7743,435.5747 501.7077,408.2604 498.245,381.7225 494.4366,356.3491 490.1559,331.3236 485.4542,306.9404 480.4164,283.6369 474.9151,260.9121 469.1674,239.7093 463.1256,219.8066 456.79,201.2049 449.9603,183.312 442.7678,166.5534 435.4358,151.4608 427.8433,137.8071 420.4089,126.3027 412.8131,116.4155 405.0987,108.2944 397.5119,102.1014 390.0242,97.6976 386.1657,96.1035 382.3643,94.9986 378.6305,94.3824 374.9745,94.2544 371.4066,94.614 367.9372,95.4606 364.5765,96.7936 361.6244,98.4271 358.5,100.6873 355.7229,103.2186 353.0351,106.2014 350.3288,109.8176 345.4632,118.2691 341.3406,128.2011 337.9773,139.4397 335.3172,152.2408 333.5036,166.0593 332.583,180.0319 332.488,194.5726 333.205,209.8751 334.7305,225.8262 337.1157,242.6759 340.2317,259.5002 344.1881,276.8773 348.6876,293.479 352.8945,307.0209 357.5706,320.5531 362.6861,334.0265 368.3471,347.7245 374.5192,361.5498 381.309,375.7137 388.1156,388.9617 395.5494,402.5186 409.584,426.114 426.0042,451.4463 441.4517,473.7602 474.3827,519.7329 485.1719,535.6927 496.8062,554.4282 506.1641,571.9352 512.6736,586.6348 516.6703,597.293 519.6872,606.3899 522.8308,617.6006 525.2951,627.8616 533.6195,670.4908 535.1641,675.5302 536.5116,678.7194 538.219,681.0969 539.9246,682.2416 541.1336,682.3247 542.4648,681.8827 543.8887,680.9254 545.6768,679.12 549.6295,673.5364 553.6718,666.1698 559.2152,654.2998 565.5635,639.2966 572.6153,621.5046 579.4111,603.2385 594.097,561.2767 599.3412,544.787 603.1739,531.3006 606.3719,518.3584 608.25,508.375 608.9148,500.6724 608.7629,497.3541 608.31,495.0278 607.007,492.539 605.2812,491.4219 602.6735,491.4395 599.7881,492.6488 596.0472,495.1968 591.5558,499.2016 587.5362,503.4647 583.0105,509.0299 574.1212,521.7014 565.2679,537.0403 557.4328,553.5381 551.1742,569.527 545.8587,586.3712 541.6686,603.0506 537.9788,622.864 535.6208,641.7866 534.3104,662.1114 534.5352,677.6387 535.1329,683.428 536.0959,688.3894 537.338,691.4306 538.9919,693.0073 540.4173,693.0162 541.7465,692.3465 543.625,690.625 545.4655,688.2791 549.6239,681.3496 554.5851,671.0546 560.9818,656.264 569.9062,633.6719 585.4328,591.3919 600.2226,547.7698 604.6298,533.4325 608.5297,519.2356 611.2407,507.9722 612.75,499.5 613.3845,491.6805 612.8573,486.1649 611.535,483.4958 609.5578,482.1152 608.1769,481.8934 606.6079,482.0784 603.31,483.4144 599.0491,486.3082 594.0391,490.7415 589.0,495.9531 583.9375,502.0088 578.4472,509.3467 573.636,516.4267 569.0247,523.9065 564.485,532.0191 556.1596,549.1448 549.1746,567.0172 543.7374,584.2637 538.8124,603.9267 535.1914,623.7427 532.6847,644.145 531.267,666.4065 531.1257,679.6812 531.3487,686.9516 531.9723,694.963 532.7322,699.2333 534.4719,704.0591 535.2267,705.098 536.1094,705.7188 537.4725,705.8448 538.8022,705.2637 540.5331,703.7267 542.2859,701.5336 546.6745,694.2858 551.6356,684.0905 557.5925,670.1206 567.0715,646.2789 584.8044,598.1685 602.4648,547.0424 608.3399,528.5886 612.9413,512.7875 616.1814,499.8227 618.2377,488.7156 618.9342,480.8114 618.8112,477.5761 618.3734,475.1138 616.8971,471.9886 615.8598,471.0443 614.6312,470.4917 613.2176,470.3154 611.3543,470.5616 607.2608,472.2316 602.2736,475.6104 596.7525,480.4552 590.629,486.7501 584.3962,494.0924 578.7604,501.5504 573.1854,509.6815 567.8612,518.1653 562.9883,526.8074 553.7065,545.7363 549.8148,555.162 545.563,566.5672 542.4089,576.4542 538.8859,589.2456 534.125,611.0 530.425,635.4232 528.4326,656.6785 527.3732,681.6938 527.8594,703.5 528.6172,711.5807 529.5628,716.5891 531.2316,720.9016 532.0043,721.8243 532.889,722.319 534.2324,722.3024 535.9092,721.3766 537.647,719.5912 539.4455,717.1032 544.1189,708.7699 549.6168,696.7877 556.9494,678.8571 568.1465,649.9046 591.2744,586.4013 609.1777,534.3594 615.3864,514.7218 620.2656,497.9844 623.4365,485.3767 625.3276,475.2074 626.1478,466.6942 626.0692,463.1796 625.679,460.5954 625.0678,458.7639 624.0142,457.1034 622.7034,456.0006 621.1389,455.4206 619.3283,455.3441 617.2795,455.752 612.5424,457.8956 606.6789,461.8864 599.9251,467.7332 592.6154,475.1463 585.0125,483.9131 578.345,492.497 572.0172,501.5496 565.4253,511.955 559.7277,521.8727 554.5308,531.8895 549.8572,541.9095 545.8598,551.6932 541.4752,563.7441 538.0035,574.7701 534.3646,588.2703 529.4821,611.7734 526.0002,637.5873 524.0966,659.2154 522.8782,686.8974 522.7222,705.5818 523.1013,722.0718 523.8426,731.2887 524.9028,739.1435 526.3844,743.9367 527.0946,745.2045 528.138,746.0682 529.7717,746.0713 531.2996,745.1553 533.1144,743.2001 535.193,740.061 540.1136,730.3991 547.2499,713.7296 554.473,695.4595 563.1064,672.3525 599.3413,572.0892 619.5761,513.5291 625.4045,495.4341 630.2143,479.161 633.7324,465.5042 635.8224,454.9165 636.6331,446.6543 636.588,443.3194 636.1719,440.1719 635.4915,437.9906 634.3556,436.1431 632.8408,434.974 631.02,434.4286 628.8943,434.3903 626.1562,434.9531 623.1189,436.1282 619.8134,437.8792 612.1235,443.2303 603.7099,450.4544 594.5556,459.5465 585.2886,469.9075 577.1101,480.068 569.8862,489.9972 562.2031,501.7012 555.0916,513.6435 549.2202,524.7944 543.7724,536.4639 539.1443,547.8536 534.7503,560.2462 531.5228,570.9029 528.25,583.5 524.4685,602.1448 522.4342,615.2711 520.4492,631.4215 518.4815,655.9837 517.4539,676.8529 516.8061,701.5689 516.5006,731.4357 516.776,755.8674 517.3983,772.847 517.9656,778.9244 519.4185,785.7917 520.4058,787.834 521.3911,788.5801 522.9057,788.2493 524.2847,786.9454 526.1382,784.2233 528.1738,780.4316 533.2658,768.834 540.7988,749.5319 633.7553,489.6641 645.2912,455.1385 649.3368,441.7813 652.2916,430.8351 654.3065,421.7723 655.3973,414.6007 655.735,408.4613 655.2108,403.3779 653.7837,399.8854 652.7409,398.7058 651.4834,397.8879 650.015,397.4199 648.2067,397.2753 643.7875,398.035 638.2813,400.2827 632.0764,403.8153 624.8145,408.7777 616.7397,415.0263 607.8839,422.6106 598.8375,431.0414 589.8754,440.0288 581.0667,449.5226 573.0514,458.8028 565.503,468.2206 558.3454,477.8929 551.6623,487.697 542.579,502.4421 535.1551,516.5925 527.0704,535.5226 522.0699,549.8959 517.4773,566.4028 513.9804,583.0693 511.5694,599.2903 508.5,626.875 508.0909,622.371 506.2803,570.1591 503.3874,521.6633 499.5392,476.7593 495.0916,436.5088 489.1838,394.901 482.4043,356.3743 474.6267,320.3566 470.3142,302.9891 465.8512,286.609 460.9449,270.2822 455.9336,255.259 450.806,241.473 445.3715,228.3872 439.7186,216.2421 433.894,205.1772 427.9443,195.3323 422.105,187.0903 416.2974,180.3143 410.1857,174.6954 404.5701,170.9146 398.8135,168.5102 395.8763,167.9138 393.3404,167.7786 390.8824,168.0163 388.5094,168.6281 386.2286,169.6153 383.7745,171.1764 379.6053,175.2207 377.0025,178.8837 374.6712,183.1889 372.6213,188.0988 370.8629,193.5757 369.4061,199.582 368.2607,206.0803 366.9469,220.5078 366.9774,236.5115 368.3056,253.8611 371.0104,273.0296 374.7751,291.7132 380.038,311.6931 386.7544,332.6846 394.9932,354.9243 404.1766,376.6574 414.0054,397.5987 425.3409,419.92 435.7034,438.9455 465.5317,492.1242 479.1334,518.2208 484.7355,530.1829 492.2442,547.9305 495.9233,557.8962 500.5083,572.349 504.0,585.25 507.6146,602.0912 510.255,618.625 512.1459,634.83 513.5245,650.3737 514.8177,673.8518 516.5067,743.0634 517.4184,764.8736 518.1795,774.0175 518.9956,779.4443 520.2646,783.5467 520.8939,784.5907 521.8009,785.2824 523.1797,785.1121 524.8608,783.6269 528.5846,777.5664 533.5286,766.7293 540.1467,749.8399 550.6157,721.2407 580.662,636.4881 633.3325,489.6121 643.729,458.4144 650.7515,433.5932 652.8187,424.2376 653.9702,416.7726 654.2706,411.0231 653.7356,406.3222 652.244,402.733 651.1635,401.5206 649.8709,400.6771 648.3744,400.1882 646.321,400.0491 642.1072,400.8944 636.7656,403.1499 630.1286,407.0229 622.5127,412.3603 614.2538,418.8909 605.7905,426.3267 596.7755,434.9629 587.5146,444.5064 578.5279,454.4584 570.5567,463.9659 563.3275,473.2835 556.4679,482.8957 549.7795,493.1007 541.1282,508.0392 532.909,524.6935 526.4742,540.6369 521.4789,556.0769 517.2247,572.9762 513.6047,592.5753 511.7371,606.2777 509.0718,636.7193 507.4921,582.4361 505.0709,534.8924 501.4393,486.6387 497.0767,445.3488 491.3589,402.0808 485.0568,364.2599 480.7164,342.101 476.2835,321.5654 471.7481,302.5885 467.0762,284.9941 462.3166,268.9056 456.9173,252.5283 451.3918,237.4286 445.7411,223.5645 440.0138,211.0365 434.2536,199.9205 428.4995,190.2697 422.4087,181.5605 416.2111,174.162 409.7681,168.0212 403.7345,163.755 397.882,161.1042 394.9108,160.3793 392.2767,160.1251 389.639,160.2688 386.9428,160.8571 384.3654,161.8808 381.9121,163.3264 379.588,165.181 377.3984,167.4312 374.697,171.024 372.0649,175.647 369.7544,180.9913 367.7809,187.0169 366.2123,193.4499 365.0031,200.3753 364.1128,208.1018 363.5976,216.2532 363.668,234.006 365.1746,252.7963 368.0153,271.8874 372.3732,292.3419 378.1839,313.7244 385.3586,335.7083 393.3609,356.61 402.9917,378.6965 413.2684,400.0753 424.0927,420.7933 440.6189,450.451 461.4988,486.765 478.909,518.8605 485.9486,533.5277 491.5891,546.3218 495.839,557.2964 500.242,570.2061 503.7256,582.2609 507.7844,599.1905 510.5332,614.6028 512.576,628.8764 514.424,647.0172 515.7875,667.4897 516.8741,691.9184 517.8895,725.9667 519.1916,751.2388 519.9852,758.8172 521.275,765.4912 522.5195,769.1602 523.2364,770.1198 524.062,770.6411 525.6529,770.4553 527.1675,769.1913 529.0934,766.5771 531.4027,762.5605 536.9677,750.6504 544.146,732.8371 564.6361,677.0835 622.1401,516.2383 635.2239,477.4394 639.7406,462.6791 643.2959,449.7542 645.7603,439.0884 647.1842,430.4229 647.5956,423.6006 647.031,418.511 646.2812,416.3549 645.2274,414.7304 643.875,413.625 642.1257,412.9625 640.1053,412.7788 637.8335,413.0477 632.2099,415.0262 625.527,418.8265 617.5639,424.5829 608.5958,432.1395 598.6923,441.4106 589.7559,450.6834 580.6199,461.0509 572.505,471.0333 564.5933,481.6792 556.9556,492.8316 551.0305,502.3949 544.8847,513.4779 539.2248,524.922 531.8786,542.6558 526.0343,560.1669 521.3025,578.2944 517.6267,597.8489 514.5975,622.1932 512.8307,646.9731 512.1807,664.2755 511.5782,695.983 512.0,712.0312 512.694,702.0582 513.737,660.3263 513.8593,628.4346 513.5375,600.2391 512.4711,563.5772 511.2282,534.471 509.5709,507.0081 507.0657,474.0602 504.453,445.7631 501.4547,418.5212 497.9561,391.4382 493.9275,364.1705 489.6059,338.425 485.0175,314.2506 479.9945,290.7937 474.691,268.809 468.704,246.6982 462.29,225.5735 455.6327,206.0379 448.6687,187.9022 441.5889,171.6519 434.4563,157.3475 426.9279,144.3289 419.1653,132.9087 411.0307,122.9673 402.8735,115.0198 398.6852,111.7323 394.7873,109.1709 390.9279,107.1254 387.1176,105.6077 383.367,104.6298 379.6275,104.1928 376.052,104.2941 372.2717,104.9872 368.926,106.1419 365.417,107.9514 362.0659,110.3172 358.884,113.2214 354.2195,118.8772 350.0519,125.7667 346.4258,133.819 343.4522,142.7232 341.0304,152.7011 339.1722,163.8095 337.9515,175.6183 337.3453,188.4002 337.386,201.6624 338.058,215.2708 339.3355,229.0057 341.2282,242.9965 343.7505,257.3393 346.8921,271.9593 350.6345,286.7699 354.9511,301.6727 363.5558,327.0416 373.6594,352.1303 385.5964,377.7228 399.3797,403.8412 411.4618,424.5995 425.7096,447.1335 442.6021,472.507 469.4156,511.3329 483.463,532.6046 494.6857,551.6608 503.4419,568.6278 508.3839,579.9158 512.2204,589.7182 518.5958,610.3837 520.8434,619.4103 523.6554,633.2065 529.5262,670.0813 531.7082,681.7392 532.99,686.6047 534.287,690.006 535.6065,692.0816 537.3565,693.4051 538.7155,693.6117 540.2442,693.1477 541.9315,691.962 543.3771,690.4571 547.3697,684.5746 551.8445,676.1185 557.9728,662.7443 563.7524,649.0006 581.9323,601.2823 597.9822,554.912 603.5405,537.4188 607.7478,522.7922 611.1739,508.916 613.0937,498.5843 613.7321,490.3195 613.5615,487.2757 613.0773,484.8457 611.6681,482.2814 610.4271,481.4167 609.2083,481.0417 606.3333,481.2917 602.875,482.875 598.5978,485.9126 593.6992,490.3633 588.2721,496.2568 582.3827,503.4413 577.4492,510.1224 572.8348,517.043 563.0521,534.0146 555.4022,550.4218 548.4185,568.2699 542.7783,586.5761 538.1019,605.9248 534.72,625.7488 532.1924,647.5196 530.9359,668.7878 531.078,688.4203 531.9394,697.1341 532.7868,701.5332 534.375,705.5 535.1511,706.4803 536.0379,707.0055 537.4052,706.9851 539.0,706.125 540.6152,704.5586 542.4531,702.125 546.8771,694.5053 551.9844,683.7344 558.0679,669.3247 568.611,642.6731 587.7585,590.3878 604.5865,541.1954 609.9253,523.9937 614.263,508.7291 617.1166,496.9607 618.8479,487.016 619.4595,479.1583 619.2942,475.9563 618.8417,473.6467 618.0712,471.808 617.1548,470.5669 616.0433,469.7183 614.746,469.256 611.6306,469.4657 607.1227,471.5009 602.1222,474.9754 596.3883,480.0739 590.1146,486.6355 583.7687,494.2112 578.0043,501.9438 572.2456,510.4659 566.5184,519.784 561.3363,529.0679 556.7485,538.1716 552.7793,546.9088 548.9699,556.3794 544.8551,567.7195 539.0894,586.727 534.348,607.643 530.9583,628.7388 528.4152,652.8707 527.6594,664.434 527.0397,681.941 527.3054,702.3494 528.2125,712.6705 529.0275,717.5005 530.7458,722.2642 531.622,723.488 532.501,724.044 534.2104,723.9781 535.75,723.0 537.5415,721.0246 539.4614,718.245 543.7539,710.3825 550.2231,696.1013 556.4721,680.8475 568.9028,648.5738 592.0404,584.9218 610.742,530.4074 616.345,512.5772 621.2858,495.5048 624.3905,483.0464 626.163,473.228 626.8564,464.806 626.7245,461.5156 626.2637,458.8438 625.5721,456.9911 624.4429,455.4394 623.1121,454.4781 621.548,453.9891 619.761,453.955 617.7615,454.3584 612.7699,456.6335 606.7561,460.8055 599.8767,466.8074 592.4034,474.4178 584.8886,483.118 578.1122,491.8273 571.8134,500.7837 565.4902,510.7285 559.5201,521.0902 554.2933,531.187 549.5168,541.513 545.192,552.0704 541.25,563.0 537.7261,574.074 534.7217,584.9676 531.9317,596.8853 529.5193,609.0509 527.6118,620.8128 525.921,633.9999 523.5118,661.3398 522.5863,681.432 522.237,701.9315 522.6686,725.1582 523.625,736.625 524.5138,741.981 526.25,747.0 527.207,748.2539 528.0645,748.7214 529.3753,748.6577 530.856,747.7443 532.7252,745.6221 534.8092,742.4371 539.7601,732.8161 545.6666,718.9847 555.2358,694.3331 566.3141,664.6041 602.1175,565.1775 621.1366,510.2289 626.7641,492.5487 631.7408,475.5572 635.1344,462.2311 637.0697,452.1695 637.8183,443.757 637.2954,437.7314 636.5127,435.4323 635.3869,433.7433 633.881,432.6222 632.0094,432.0636 629.8621,432.0656 627.0881,432.7051 623.9927,433.9699 620.5968,435.8028 612.8706,441.1473 604.3845,448.4404 594.461,458.2746 584.8263,469.0341 576.5736,479.2718 569.1311,489.4812 561.2101,501.4646 554.6841,512.396 548.7152,523.7795 543.0637,535.9266 538.4872,547.2759 534.1344,559.7312 530.6701,571.0621 527.7185,582.2832 523.1146,605.5238 519.7294,631.877 517.9106,654.2735 516.8924,674.8923 516.1992,697.0246 515.8223,736.166 515.9576,758.2804 516.4467,775.0983 517.5139,786.8624 518.8318,792.4721 519.8391,794.1076 520.8789,794.537 522.1914,793.9171 523.5,792.5093 526.6029,787.1728 531.5238,776.0978 537.4187,760.9665 594.6782,600.1835 629.5566,503.7696 641.2851,470.1432 651.4176,438.3353 654.5584,426.8498 656.8188,416.8222 658.0819,408.5973 658.3582,402.4151 657.6768,397.5847 656.0168,394.3847 653.809,392.7441 650.6336,392.1832 646.754,392.8251 642.2277,394.5398 636.417,397.596 629.701,401.8874 622.2796,407.3151 614.625,413.5 606.176,420.877 597.5498,428.9517 581.1492,445.9018 565.8901,463.6952 559.3316,472.1783 553.0174,481.0306 543.0255,496.6647 535.1938,510.9612 527.9883,526.3027 521.625,543.125 518.075,554.7186 513.904,571.6324 511.519,584.3108 508.1628,608.4023 507.5234,611.3027 507.1898,609.9213 506.782,603.7577 504.9292,565.4537 502.25,523.5"/>
  </g>
</svg>
