<?xml version="1.0" encoding="utf-8" ?>
<svg xmlns="http://www.w3.org/2000/svg" xmlns:cc="http://creativecommons.org/ns" xmlns:dc="http://purl.org/dc/elements/1.1/" xmlns:ev="http://www.w3.org/2001/xml-events" xmlns:inkscape="http://www.inkscape.org/namespaces/inkscape" xmlns:rdf="http://www.w3.org/1999/02/22-rdf-syntax-ns" xmlns:sodipodi="http://sodipodi.sourceforge.net/DTD/sodipodi-0.dtd" xmlns:xlink="http://www.w3.org/1999/xlink" baseProfile="tiny" height="27.09333333cm" version="1.2" viewBox="0 0 1024.0 1024.0" width="27.09333333cm">
  <metadata>
    <rdf:RDF>
      <cc:Work>
        <dc:format>image/svg+xml</dc:format>
        <dc:source>vpype read './original_svgs/Strange Attractors #381.svg' linemerge linesimplify write './Strange Attractors #381.svg'
</dc:source>
        <dc:date>2024-08-05T01:35:53.869136</dc:date>
      </cc:Work>
    </rdf:RDF>
  </metadata>
  <defs/>
  <g fill="none" id="layer1" inkscape:groupmode="layer" inkscape:label="1" stroke="black" stroke-width="0.7mm" style="display:inline">
    <polyline points="751.375,706.5 686.125,621.0 667.5,595.875 651.75,573.375 638.625,553.625 628.125,536.5 619.875,521.75 613.625,509.0 609.125,498.125 606.0,488.75 604.25,480.625 603.5,473.5 603.625,467.375 604.5,462.0 606.0,457.25 608.0,453.125 610.25,449.375 612.875,446.25 615.75,443.5 621.5,439.125 624.375,437.625 629.625,435.75"/>
    <polyline points="631.75,435.375 633.75,435.5 635.25,436.0 636.375,437.0 637.125,438.25 637.375,439.875 637.25,441.75 636.75,443.875 634.5,448.875 628.75,457.125 620.875,465.5 612.0,473.125 602.625,479.75 590.5,486.75"/>
    <polyline points="587.5,488.125 576.5,492.875 562.25,497.375 550.625,500.0 537.625,501.75"/>
    <polyline points="536.375,501.875 533.125,502.125 525.5,501.875 522.625,501.125 521.75,500.625 520.75,499.75 520.125,498.625"/>
    <polyline points="520.125,498.125 520.25,495.75 521.75,492.5 523.125,490.375 529.25,483.125 538.125,474.625 544.5,469.125 562.25,455.125"/>
    <polyline points="568.0,450.875 588.5,436.75 604.875,426.5 623.0,416.25 632.375,411.625 641.75,407.375 650.75,403.875 659.25,401.125 667.0,399.625 673.625,399.25 679.125,400.125 683.125,402.25 685.75,405.75 686.75,410.375 686.5,416.0 684.875,422.25 682.25,429.125 678.625,436.375 674.25,443.625 664.125,457.75 658.625,464.375"/>
    <polyline points="653.0,470.5 641.75,481.5 630.875,490.5 620.75,497.625 615.875,500.625 606.875,505.375 602.75,507.375 594.875,510.5 584.625,513.625 578.5,515.0 570.5,516.25 559.75,517.0"/>
    <polyline points="557.875,517.125 551.5,517.125 545.25,516.75 538.375,515.875 534.375,514.75"/>
    <polyline points="534.0,514.625 532.75,514.0 531.75,512.875 531.125,511.125 530.75,508.375"/>
    <polyline points="530.625,507.875 529.875,505.125 527.875,501.0 522.375,493.5 512.625,483.5 506.625,478.0 498.875,471.5"/>
    <polyline points="494.375,467.875 477.125,454.875 454.125,439.25 445.125,433.625 425.5,422.5 415.25,417.25 404.875,412.5 394.75,408.375 385.125,405.375 376.25,403.375 368.5,402.875 362.0,403.75 357.125,406.125 353.875,409.875 352.25,415.0 352.125,421.25 353.5,428.25 356.0,435.75 359.375,443.625 363.625,451.5 368.375,459.125"/>
    <polyline points="373.375,466.5 383.875,479.75 389.125,485.625 394.375,490.875 404.125,499.75 408.75,503.375 417.375,509.25 428.875,515.25 438.5,518.75 444.125,520.125 449.25,521.0 457.875,521.625 461.5,521.5"/>
    <polyline points="463.125,521.5 471.375,520.75 476.5,519.875 480.75,518.75 484.125,517.25"/>
    <polyline points="484.375,517.0 485.5,516.0 485.875,515.25 487.25,509.875 488.5,506.875"/>
    <polyline points="489.0,505.875 492.125,501.0 498.375,493.375 510.375,481.125 533.25,461.0 562.625,437.875 590.375,417.75 607.125,406.25 625.625,394.25 645.625,382.0 666.625,370.125"/>
    <polyline points="688.0,359.375 708.5,351.0 726.875,345.625 742.125,344.375 753.125,347.625 759.5,355.25 761.25,366.875 758.875,381.625 753.375,398.125 745.5,415.5 736.25,432.875 726.5,449.375 716.625,464.625 707.125,478.375 698.125,490.625 682.125,510.375 675.125,518.125 663.0,530.0 657.75,534.5 648.625,541.125 644.625,543.5 637.5,546.75"/>
    <polyline points="634.375,547.75 628.625,549.0 619.375,549.375 612.125,548.375 607.875,547.375 599.25,544.625 603.75,546.625 614.25,552.0 627.25,559.375 638.0,566.0"/>
    <polyline points="642.25,568.75 657.0,578.5 668.625,586.625 688.75,601.375 717.5,623.625 741.75,643.625 704.0,607.5"/>
    <polyline points="695.125,598.875 659.75,565.625 644.0,551.75 630.0,540.25 612.25,527.125 597.625,518.25 585.5,512.5 572.25,508.125 561.5,505.875"/>
    <polyline points="559.125,505.625 550.75,504.75 524.75,504.375"/>
    <polyline points="524.0,504.375 519.125,503.5 517.75,502.875 516.5,501.875 515.75,499.75 516.5,496.75"/>
    <polyline points="516.75,495.875 520.125,490.75 527.375,482.5 537.875,472.75 549.875,462.875 560.375,454.625 580.875,439.875 597.875,428.75 607.25,423.0"/>
    <polyline points="617.125,417.25 627.375,411.625 637.875,406.375 648.125,401.75 658.125,397.875 667.5,395.125 675.75,393.75 682.75,393.625 688.375,395.25 692.125,398.25 694.375,402.75 694.75,408.5 693.75,415.25 691.25,422.75 687.625,430.625 683.25,438.75 678.0,446.875 672.375,454.75 666.5,462.25 660.5,469.25 654.375,475.75 642.5,486.875 636.875,491.625 626.125,499.625"/>
    <polyline points="621.0,502.75 616.25,505.625 607.25,510.125 599.25,513.375 588.625,516.625 579.625,518.375 569.75,519.5 560.25,519.625 553.0,519.125"/>
    <polyline points="551.75,519.0 545.25,518.0 542.625,517.25 540.0,516.125 538.5,514.75 538.25,514.125"/>
    <polyline points="538.125,513.875 536.75,507.875 535.125,504.0 533.125,500.625 530.0,496.375"/>
    <polyline points="528.625,494.625 520.375,485.75 514.0,479.75 505.75,472.5 488.375,458.5 472.625,447.0 453.25,433.75 430.125,419.375 417.5,412.25 404.5,405.375 391.375,399.25 378.5,394.25 366.5,390.625 355.75,388.75 346.75,389.0 339.875,391.25"/>
    <polyline points="335.125,395.75 332.75,402.125 332.625,410.0 334.25,419.125 337.5,429.0 342.0,439.125 347.375,449.25 353.25,459.0 359.5,468.25 365.75,476.75 371.875,484.5 383.75,497.625 389.25,502.875 399.5,511.5 408.5,517.75 416.5,522.0 420.125,523.625 426.75,525.875 435.375,527.625"/>
    <polyline points="438.0,527.875 446.875,528.0 455.625,527.0 465.375,524.75 471.125,522.625"/>
    <polyline points="471.625,522.375 473.375,521.5 474.875,519.75 475.25,518.875 475.625,514.125"/>
    <polyline points="475.75,513.5 477.375,509.0 479.75,504.875 486.375,496.375 495.875,486.25 512.5,470.75 530.0,455.75 555.0,435.625 589.875,409.5 611.75,394.25"/>
    <polyline points="636.375,377.75 663.5,360.75 692.25,344.5 721.0,330.375 747.875,320.25 770.5,315.875 786.875,318.5 796.125,328.375 798.125,344.5 794.0,365.375 785.5,388.75 774.25,412.875 762.0,436.375 749.625,458.125 738.0,477.75 709.875,522.25 696.5,541.5 686.375,554.625 678.5,563.0 671.875,567.875"/>
    <polyline points="668.875,569.375 666.0,570.375 660.5,571.0 655.125,570.5 649.875,569.0 642.125,565.875 609.125,548.75"/>
    <polyline points="607.375,547.875 591.5,540.25 593.0,540.625"/>
    <polyline points="593.625,540.875 599.75,543.25 608.75,547.5 626.75,557.375 651.25,572.75 671.875,587.0"/>
    <polyline points="679.875,592.75 697.625,606.0 727.0,629.125 753.875,651.75 767.25,663.625 749.625,646.875 728.75,626.125 671.25,567.375 643.75,540.0"/>
    <polyline points="636.125,532.75 622.75,520.875 611.625,511.875 602.25,505.375 594.375,500.75 587.625,497.5 576.375,493.875 567.5,492.375 555.875,491.75"/>
    <polyline points="554.5,491.75 547.0,491.25 544.75,490.75 543.0,490.0 542.25,489.375 541.5,488.0 541.75,485.625 542.875,483.25"/>
    <polyline points="543.5,482.25 547.125,477.75 551.5,473.375 555.375,470.0 562.625,464.0 575.875,454.375 588.25,446.25 597.625,440.75 607.625,435.5 617.75,430.75"/>
    <polyline points="622.75,428.875 631.875,426.0 636.0,425.25 639.75,424.875 642.875,425.125 645.5,425.875 647.5,427.25 648.875,429.0 649.625,431.25 649.625,434.0 649.125,437.0 648.0,440.375 644.25,447.625 639.0,455.25 632.5,462.75 625.375,469.75 621.625,473.0 614.125,478.875 606.625,484.0"/>
    <polyline points="603.0,486.25 592.5,492.0 582.75,496.25 574.0,499.375 559.125,503.375 549.125,505.25 540.875,506.25"/>
    <polyline points="539.5,506.5 526.0,507.625 517.0,507.625"/>
    <polyline points="516.375,507.625 513.125,507.125 511.0,506.25 509.625,504.75 509.25,503.625 509.25,502.25"/>
    <polyline points="509.25,501.75 509.875,499.75 511.125,497.25 515.375,491.25 522.125,484.0 530.125,476.25 542.0,466.0 566.375,447.25"/>
    <polyline points="574.375,441.5 592.75,428.75 614.5,415.25 626.25,408.375 638.375,401.875 650.625,395.875 662.625,390.875 674.0,387.0 684.25,384.75 692.875,384.25 699.75,385.625 704.5,389.0 707.25,394.25 707.75,401.125 706.375,409.25 703.375,418.25 699.0,427.75 693.625,437.375 687.625,447.0 681.125,456.125 674.375,464.75 667.625,472.75 661.0,480.0 654.5,486.5"/>
    <polyline points="648.125,492.375 642.125,497.5 636.375,501.875 625.75,509.125 616.25,514.375 607.75,518.125 596.75,521.625 584.875,523.75 577.625,524.25 571.625,524.25 565.125,523.75"/>
    <polyline points="563.75,523.5 558.125,522.625 554.875,521.75 552.125,520.625 550.375,519.125 549.875,517.625"/>
    <polyline points="549.875,517.25 550.125,514.5 550.0,510.75 548.875,506.875 547.625,504.25 544.375,499.125 538.5,491.875"/>
    <polyline points="535.625,488.875 528.25,481.375 517.625,471.625 502.875,459.125 482.5,443.125 455.25,423.375 438.875,412.25 420.625,400.375 400.75,388.5 379.875,377.0 358.75,366.875 338.375,359.0 320.125,354.25 305.0,353.625 293.875,357.375 287.5,365.375 285.375,377.25 287.25,391.875 292.125,408.25 299.25,425.25 307.5,442.0"/>
    <polyline points="316.25,458.0 333.5,485.75 348.75,507.125 361.5,522.75 372.125,533.5 376.75,537.5 381.0,540.625 388.625,544.875 392.0,546.25 395.375,547.125 401.375,548.0 407.125,547.75 412.375,547.0 417.25,545.75 424.125,543.375"/>
    <polyline points="426.375,542.625 441.25,536.5 459.625,528.25"/>
    <polyline points="460.25,528.0 462.875,526.375 464.0,524.75 463.5,523.375 462.125,521.875"/>
    <polyline points="461.875,521.5 460.25,518.875 459.875,516.75 460.25,513.75 463.375,507.25 467.0,502.125 473.0,495.0 482.625,484.875 497.875,470.375 508.625,460.875"/>
    <polyline points="522.0,449.375 538.75,435.5 559.375,419.0 584.875,399.5 615.75,377.0 652.0,351.75 693.125,325.375 737.125,300.0 780.375,279.625 817.75,268.375 844.5,269.875 857.75,285.0 858.0,311.875 848.25,346.375 832.75,383.875 815.375,420.875 783.875,485.25 771.75,511.375 762.25,533.5 755.0,552.0 749.625,567.375 742.5,590.0 739.75,597.75 737.125,603.625"/>
    <polyline points="734.375,607.625 731.125,610.0 727.25,610.75 722.875,610.0 717.75,608.125 712.125,605.25 705.875,601.375 692.25,591.875 650.0,559.625 631.25,546.375 620.125,539.25 610.0,533.25 601.0,528.5 592.75,524.75"/>
    <polyline points="589.0,523.25 578.625,519.5 572.625,517.75 559.75,514.875 548.0,513.25 535.5,512.375"/>
    <line x1="534.375" x2="518.5" y1="512.375" y2="512.0"/>
    <polyline points="518.25,512.0 510.0,512.125 506.125,511.5 504.125,510.5 503.25,509.625 502.375,508.0 502.25,507.0"/>
    <polyline points="502.25,506.625 502.5,504.25 504.125,500.5 506.125,497.25 509.375,493.125 514.5,487.375 519.375,482.5 525.75,476.5 534.25,469.125"/>
    <polyline points="539.375,464.875 552.0,454.75 568.0,442.625 588.25,428.375 599.875,420.5 612.625,412.5 626.25,404.25 640.375,396.25 654.875,388.875 669.25,382.375 682.875,377.375 695.25,374.375 705.625,373.5 713.75,375.125 719.25,379.375 722.0,385.875 722.125,394.375 720.0,404.5 715.875,415.5 710.375,427.0 703.875,438.5 696.625,449.75 689.25,460.25"/>
    <polyline points="681.625,470.125 667.0,486.875 653.5,500.125 641.375,510.0 630.75,517.125 621.5,522.25 617.25,524.125 606.125,527.875 597.0,529.625 591.75,530.125 583.25,530.125 579.75,529.75"/>
    <polyline points="578.25,529.625 570.0,528.125 566.125,526.75 564.625,525.625 564.5,525.125 565.125,524.375"/>
    <polyline points="565.375,524.125 568.5,522.875 579.375,519.5 582.25,518.0 583.875,516.625"/>
    <polyline points="584.75,515.875 586.25,512.5 586.0,509.0 585.375,506.75 582.25,500.75 575.625,491.75 562.875,477.875 539.75,456.0 522.375,440.75 499.5,421.75 469.875,398.125 432.25,369.75 385.875,336.75 331.375,301.125 272.0,267.125 214.625,241.625 168.375,232.375 140.875,244.5 134.375,276.625"/>
    <polyline points="144.5,322.375 163.5,373.375 203.625,468.375 218.25,507.375 228.375,540.375 234.625,567.875 238.125,590.375 241.5,622.125 243.75,631.625 247.5,637.0 253.375,638.25 261.5,635.875 271.75,630.0 283.625,621.375 296.625,610.75 310.125,598.875 336.5,574.0 359.75,550.75 393.75,515.75"/>
    <polyline points="400.0,509.625 410.125,499.875 418.125,493.125 424.625,488.625 430.0,486.0 432.5,485.125 436.875,484.25 442.875,484.25 451.875,486.375 461.5,489.875"/>
    <polyline points="463.125,490.375 470.25,493.0 478.875,495.625 486.0,497.25 490.875,497.875"/>
    <polyline points="491.5,497.875 495.125,497.875 498.0,497.0 499.0,496.0 499.375,495.125 499.125,493.0"/>
    <polyline points="498.875,492.5 497.625,490.125 495.25,487.0 489.125,481.0 484.625,477.25 476.875,471.5 467.125,465.125"/>
    <polyline points="464.5,463.5 452.625,457.125 443.375,453.0 434.625,450.125 427.25,449.125 425.25,449.25 422.0,450.375 420.0,452.375 419.5,453.75 419.375,455.25 419.875,458.75 421.5,462.75 422.75,464.875"/>
    <polyline points="424.125,467.125 427.375,471.5 431.25,475.75 437.625,481.625 444.5,486.75 449.0,489.75 455.5,493.5 463.75,497.375 474.5,501.25"/>
    <polyline points="476.125,501.75 483.375,503.625 490.5,505.0 498.0,506.0 502.25,506.25"/>
    <polyline points="502.875,506.25 506.25,506.25 509.75,505.75 512.25,504.625 512.875,503.875"/>
    <polyline points="513.0,503.625 513.5,502.875 513.625,500.5 511.875,496.25 508.75,491.75 504.25,486.875"/>
    <polyline points="502.875,485.5 499.5,482.25 492.875,476.625 477.25,464.75 464.5,456.25 449.375,447.375 438.5,441.625 432.875,439.0 421.875,434.625 416.625,433.0 411.75,431.875 407.125,431.125 403.125,431.0"/>
    <polyline points="399.625,431.5 396.75,432.5 394.625,434.25 393.125,436.375 392.375,439.0 392.25,442.125 393.875,449.375 397.625,457.25 400.125,461.375 402.875,465.375 409.125,473.125 415.75,480.125 422.625,486.25 432.75,493.875 442.25,499.5 448.125,502.375"/>
    <polyline points="450.875,503.625 458.5,506.5 469.375,509.5 479.625,511.25 492.25,512.25"/>
    <line x1="493.125" x2="505.125" y1="512.25" y2="512.375"/>
    <polyline points="505.375,512.375 507.5,512.375 507.875,512.125 505.125,511.375 503.375,510.125 511.125,510.25 512.875,510.0"/>
    <polyline points="503.25,510.0 502.125,508.0 502.0,505.75 503.125,502.125 505.375,498.375"/>
    <polyline points="506.125,497.125 514.75,487.0 522.75,479.125 535.0,468.375 553.25,453.625 569.75,441.25 579.625,434.25 602.375,418.75 629.125,402.375 643.5,394.5 658.125,387.125 672.375,381.0"/>
    <polyline points="685.875,376.25 697.875,373.625 708.0,373.25 715.625,375.5 720.5,380.25 722.75,387.25 722.25,396.25 719.625,406.625 715.25,417.875 709.375,429.5 702.625,441.0 695.375,452.125 687.875,462.625 680.25,472.25 672.875,480.875 665.625,488.75 658.75,495.625 652.25,501.5 646.125,506.75 640.375,511.125 635.0,514.875 625.125,520.75 620.75,522.875 612.625,526.125"/>
    <polyline points="609.0,527.375 602.375,529.0 596.625,529.875 585.0,530.375 575.375,529.375 570.125,528.25 566.875,527.125"/>
    <polyline points="566.375,526.875 565.375,526.25 565.0,525.625 565.625,524.5 568.125,523.5 573.125,522.25"/>
    <polyline points="574.0,522.0 581.0,520.25 585.375,518.5 589.25,515.625 590.375,513.25 590.625,511.75 590.25,507.875 589.25,505.25 587.5,502.0 585.0,498.0 575.75,486.625"/>
    <polyline points="568.375,478.75 558.125,468.625 544.375,455.875 526.0,439.625 501.5,419.0 469.25,393.25 427.75,361.75 376.125,325.0 315.375,285.375 249.625,248.5 187.875,222.875 141.25,217.875 118.0,238.0 117.875,279.5 134.0,333.25 156.75,390.0 179.125,443.125 197.125,489.875 209.75,529.75 217.125,563.125 220.75,590.75 222.125,613.0 222.75,630.125 224.125,642.25 227.5,649.375 233.75,651.25"/>
    <polyline points="243.0,648.125 255.125,640.75 269.25,629.875 284.75,616.5 300.625,601.75 316.0,586.375 330.625,571.375 355.75,543.875 375.0,521.625 399.125,492.5 406.5,484.25 409.5,481.375 414.5,477.5 416.75,476.25 418.875,475.5 422.75,475.125 426.5,475.75"/>
    <polyline points="428.375,476.375 436.25,480.0 446.125,485.5 459.625,492.125 466.625,495.0 474.625,497.75"/>
    <polyline points="476.0,498.25 488.25,501.25 495.5,502.25 500.25,502.375"/>
    <polyline points="500.875,502.25 504.5,501.625 506.375,500.375 507.0,499.25 507.0,497.125 506.625,496.125"/>
    <polyline points="506.375,495.625 505.0,492.875 502.375,489.5 498.125,485.0 493.625,480.875 483.0,472.25 467.625,461.625"/>
    <polyline points="464.0,459.375 452.0,452.5 443.5,448.25 434.875,444.5 426.625,441.625 422.75,440.75 419.125,440.125 413.0,440.0 410.5,440.5 408.5,441.5 407.0,442.875 405.875,444.5 405.375,446.625 405.375,448.875 406.5,454.25 407.75,457.25 411.125,463.375 413.25,466.375"/>
    <polyline points="415.625,469.5 420.75,475.375 429.125,483.25 434.875,487.75 446.0,495.0 453.75,499.0 460.875,502.0 469.25,504.75 476.5,506.625"/>
    <polyline points="478.125,507.0 489.0,508.875 502.875,510.125"/>
    <polyline points="513.125,510.0 516.125,509.25 518.375,507.625"/>
    <polyline points="518.5,507.375 519.25,506.0 519.5,504.75 519.125,502.0 517.25,498.0 515.375,495.25"/>
    <polyline points="514.5,494.125 511.5,490.5 507.0,485.875 495.375,475.5 485.0,467.375 471.375,457.625 460.375,450.5 441.5,439.375 427.75,432.5 420.875,429.5"/>
    <polyline points="414.125,426.875 407.625,424.875 401.5,423.375 396.0,422.625 391.125,422.625 387.0,423.5 383.875,425.125 381.625,427.5 380.25,430.625 379.875,434.375 380.375,438.625 381.625,443.25 383.5,448.25 388.875,458.375 392.25,463.375 399.625,472.875 407.625,481.375 415.5,488.75 423.25,494.75 430.625,499.625"/>
    <polyline points="434.0,501.75 440.625,505.125 449.5,508.875 459.625,511.875 471.75,513.875 479.25,514.5 485.25,514.5"/>
    <polyline points="486.25,514.5 491.875,514.375 498.5,513.625 500.25,512.875 500.375,512.25 499.75,510.75 510.5,510.875"/>
    <polyline points="499.75,510.625 499.25,508.875 499.25,507.75 499.875,504.75 501.875,500.75 505.375,495.75"/>
    <polyline points="506.625,494.25 511.625,488.5 523.125,477.375 537.0,465.25 550.0,454.75 566.875,442.0 588.125,426.875 600.625,418.5 628.625,401.0 643.875,392.5 659.375,384.5 674.75,377.625 689.25,372.375 702.25,369.375 713.0,368.875"/>
    <polyline points="721.25,371.125 726.5,376.25 728.75,383.875 728.125,393.5 725.125,404.75 720.25,416.875 714.0,429.25 706.75,441.625 699.0,453.375 691.125,464.375 683.25,474.5 675.625,483.625 668.25,491.625 654.75,504.75 648.5,510.0 642.75,514.5 637.375,518.25 627.75,524.0 623.375,526.125 615.5,529.25 605.5,531.875"/>
    <polyline points="602.625,532.375 595.0,533.0 585.25,532.625 575.5,530.875 571.375,529.25 571.0,528.5 571.625,528.125 573.375,527.875 578.125,528.0 586.0,529.125 591.5,530.375"/>
    <polyline points="593.625,531.0 598.375,532.375 607.5,535.75 619.75,541.25 630.625,547.0 644.75,555.25 653.375,560.625 675.125,575.125 704.625,596.625 723.0,610.75 744.25,627.625 768.5,647.625 795.125,670.375 823.25,695.5 850.875,721.25 874.625,744.75 890.5,762.125"/>
    <polyline points="894.875,769.25 885.75,763.375 864.625,744.25 835.125,714.5 802.375,678.375 770.75,640.25 743.0,603.25 720.5,569.25 703.375,539.0 691.5,512.75 684.125,490.25 680.375,471.125 679.625,455.125 681.0,441.875 683.875,431.125 687.625,422.75 691.5,416.75 695.25,413.0 698.375,411.25 700.375,411.5 701.375,413.5 701.0,417.125 699.5,422.0 696.75,427.875 693.0,434.375 688.5,441.375"/>
    <polyline points="683.25,448.5 671.75,462.5 659.5,475.125 653.375,480.75 641.625,490.5 630.5,498.25 625.25,501.5 615.5,506.75 606.5,510.625 598.5,513.5 591.25,515.5 584.75,516.875 576.125,518.125 571.125,518.5"/>
    <polyline points="568.875,518.625 557.375,518.75 552.875,518.5 546.0,517.75 542.0,517.0 539.125,516.125"/>
    <polyline points="538.625,516.0 537.125,515.25 535.5,513.75 534.875,512.125 534.25,509.0"/>
    <polyline points="534.125,508.5 532.375,503.625 529.875,499.375 526.625,495.125 521.625,489.5 510.75,479.125 492.5,463.875"/>
    <polyline points="486.375,459.125 463.375,442.75 444.0,430.125 421.875,417.25 410.125,411.125 398.25,405.625 386.75,401.0 375.75,397.5 365.75,395.625 357.25,395.25 350.375,396.75 345.375,400.125 342.5,405.125 341.375,411.625 342.125,419.25 344.375,427.75 347.875,436.75 352.375,445.75 357.5,454.75 363.0,463.25 368.75,471.375 374.625,478.75"/>
    <polyline points="380.375,485.625 391.375,497.0 396.5,501.75 401.5,505.875 410.625,512.375 418.75,517.125 426.125,520.375 429.375,521.5 438.375,523.875 443.5,524.625 450.25,525.0 460.75,524.25"/>
    <polyline points="462.25,524.0 470.25,522.5 474.75,521.125 477.375,520.0 479.375,518.375"/>
    <polyline points="479.625,518.125 480.375,516.375 481.5,510.875 482.625,508.25 486.75,501.625"/>
    <polyline points="488.125,499.875 494.25,492.75 500.5,486.25 509.25,477.875 521.75,466.75 539.25,452.125 550.5,443.25 563.5,433.125 578.875,421.75 596.375,409.125 616.375,395.5 638.5,381.125 662.5,366.75 687.5,353.125 712.125,341.625 735.0,333.5 754.25,330.125 768.625,332.375 777.125,340.375 779.75,353.625"/>
    <polyline points="777.25,370.75 770.75,390.375 761.5,411.0 750.875,431.5 739.75,450.75 728.875,468.375 709.125,498.0 700.625,509.75 686.125,528.375 680.125,535.375 669.875,545.875 661.5,552.625 654.625,556.75 651.5,558.125 648.625,559.0 645.875,559.625 640.75,560.0 634.0,559.25"/>
    <polyline points="632.0,558.75 624.5,556.5 615.375,552.75 604.625,547.875 620.875,556.5 644.75,571.25"/>
    <polyline points="648.75,574.0 662.625,583.5 684.5,599.25 701.75,612.375 725.625,631.125 691.125,598.875"/>
    <polyline points="683.75,592.125 661.375,572.125 640.625,554.75 628.125,545.25 611.75,534.0 597.75,526.0 585.875,520.5 575.75,516.75 561.875,513.25"/>
    <polyline points="559.5,512.875 549.125,511.375 540.875,510.75 533.25,510.5 524.875,510.625"/>
    <line x1="524.125" x2="512.0" y1="510.625" y2="510.625"/>
    <polyline points="511.625,510.625 507.5,510.0 505.25,508.75"/>
    <polyline points="505.125,508.5 504.375,507.375 504.0,506.0 504.375,503.0 506.875,498.0 510.75,492.875"/>
    <polyline points="512.25,491.125 517.875,485.125 526.5,476.875 539.375,465.75 558.375,450.75 585.375,431.25 608.25,416.125 621.125,408.375 634.625,400.625 648.375,393.375 662.25,386.875 675.625,381.625 687.875,378.0 698.625,376.375 707.25,377.0"/>
    <polyline points="713.625,380.125 717.25,385.375 718.5,392.75 717.375,401.75 714.25,412.0 709.625,422.75 703.75,433.875 697.125,444.75 690.0,455.25 682.625,465.0 668.125,482.125 661.125,489.375 654.5,495.75 642.25,506.125 631.375,513.75 621.625,519.25 617.25,521.375 609.375,524.375 599.25,527.125"/>
    <polyline points="596.25,527.625 586.0,528.5 581.75,528.5 574.875,528.0 567.5,526.75 563.125,525.375 561.75,524.625"/>
    <polyline points="561.5,524.375 560.625,523.375 561.0,522.125 565.375,518.5 566.75,517.0"/>
    <polyline points="567.25,516.375 568.0,515.0 568.625,512.375 568.625,511.125 568.0,508.375 566.5,504.625 563.375,499.5 561.0,496.25 554.0,488.0 542.5,476.25 524.125,459.5 511.375,448.625 495.625,435.75 476.125,420.5 452.625,402.875 424.625,382.875 392.125,361.125"/>
    <polyline points="355.875,339.0 317.75,318.25 280.75,302.25 248.625,293.875 224.875,295.875 211.75,308.75 209.125,331.0 215.125,359.75 226.375,391.5 240.25,423.25 287.75,522.375 310.25,572.375 313.875,579.125 317.375,584.125 320.875,587.5 324.75,589.5 328.875,590.125 333.375,589.625 338.375,588.0 343.75,585.75"/>
    <polyline points="349.375,582.625 361.625,575.0 367.875,570.75 403.875,545.375 424.0,532.5 432.5,527.625 443.75,522.0 456.25,517.0 463.875,514.625"/>
    <polyline points="466.25,514.125 474.375,512.375 479.625,511.625 489.125,510.875 499.125,510.75"/>
    <polyline points="510.875,510.75 515.5,510.25 517.5,509.375 519.25,507.75 520.0,505.625"/>
    <polyline points="520.0,505.375 519.75,502.25 517.375,497.375 514.375,493.25 512.125,490.75 503.75,482.375"/>
    <polyline points="501.375,480.25 496.0,475.625 485.5,467.375 476.75,461.0 460.625,450.25 448.125,442.75 434.375,435.25 420.25,428.75 406.75,423.875 400.5,422.375 394.75,421.625 389.875,421.625 385.75,422.5 382.5,424.25 380.125,426.75 378.875,429.875"/>
    <polyline points="378.5,433.75 379.0,438.25 380.25,443.0 382.25,448.0 387.875,458.5 395.0,468.5 398.875,473.25 407.0,481.875 411.0,485.75 419.0,492.5 426.625,498.0 433.75,502.375 440.375,505.75 446.5,508.375 457.125,511.75"/>
    <polyline points="459.5,512.25 469.625,514.125 477.625,514.75 483.75,514.875 492.125,514.5"/>
    <polyline points="492.75,514.375 497.125,513.875 498.875,513.375 499.5,512.875 499.625,512.125 498.875,509.625 498.875,507.5"/>
    <polyline points="498.875,507.125 499.75,504.125 503.0,498.5 506.25,494.25 511.5,488.5 516.375,483.375 527.125,473.5 543.375,459.875"/>
    <polyline points="550.5,454.25 558.5,448.0 577.875,433.75 602.125,417.25 615.875,408.5 630.625,399.625 646.125,391.0 661.75,383.0 677.25,376.25 691.75,371.125 704.625,368.375 715.25,368.25 723.125,370.875 728.0,376.375 729.875,384.5 728.875,394.5 725.5,406.0 720.375,418.375 713.875,431.0 706.375,443.375 698.625,455.25 690.625,466.25 682.75,476.25 675.0,485.25"/>
    <polyline points="667.75,493.125 654.25,506.125 642.5,515.625 632.125,522.375 623.25,527.0 615.5,530.0 612.0,531.0 605.625,532.5 600.125,533.25 591.0,533.5 581.375,532.375"/>
    <polyline points="580.125,532.125 574.125,530.625 572.0,529.375 572.625,528.75 575.5,528.625"/>
    <polyline points="576.25,528.625 585.375,529.875 592.625,531.625 599.875,534.0 609.375,537.75 617.5,541.5 627.625,546.875 640.75,554.25 648.625,559.25"/>
    <polyline points="657.75,565.0 668.25,572.125 694.5,590.75 710.75,603.0 729.5,617.625 750.75,634.75 774.375,654.5 799.75,676.5 825.75,699.875 849.875,722.75 869.375,742.375 880.5,755.125 880.625,757.875 869.0,748.75 847.375,728.5 819.5,699.75 789.375,666.125 760.5,631.375 735.25,597.75 714.375,566.875 698.25,539.5 686.5,515.625 678.625,495.25 674.0,477.875 671.875,463.25"/>
    <polyline points="671.875,451.125 673.125,441.125 675.375,433.375 678.0,427.375 680.75,423.375 683.125,420.875 684.875,420.125 686.0,420.875 686.125,422.75 685.375,425.875 683.625,430.0 681.125,434.75 677.875,440.0 673.875,445.625 664.75,457.0 654.375,468.0 643.625,477.75 638.25,482.125 628.0,489.75 623.0,493.0 613.5,498.5"/>
    <polyline points="609.0,500.75 596.625,506.125 589.25,508.625 582.5,510.5 573.625,512.375 561.25,514.0 550.125,514.625 544.25,514.625"/>
    <polyline points="543.0,514.625 531.375,514.0 526.375,513.25 524.375,512.625 523.375,511.625 524.0,508.125 524.0,505.75 523.125,502.625"/>
    <polyline points="526.0,513.0 525.0,512.625 524.25,511.875 524.125,510.5 524.625,507.625 524.5,505.75 523.25,501.75 520.75,497.5"/>
    <polyline points="520.0,496.5 515.75,491.25 506.25,481.875 493.75,471.25 480.25,461.0 462.5,448.75 448.25,440.0 432.5,431.125 416.0,423.125"/>
    <polyline points="407.75,419.875 399.875,417.125 392.5,415.375 385.875,414.375 380.125,414.5 375.375,415.625 371.875,417.75 369.5,421.0 368.25,425.125 368.25,430.0 369.25,435.5 371.125,441.375 377.125,453.625 380.875,459.75 385.0,465.625 393.875,476.625 402.875,486.125 407.375,490.25 416.0,497.25 424.0,502.75 427.875,505.0"/>
    <polyline points="431.5,507.0 438.25,510.25 444.375,512.625 455.0,515.5 463.625,516.75 469.125,517.125 477.625,517.125 482.0,516.75"/>
    <polyline points="482.875,516.75 489.75,515.75 492.125,515.0 493.875,514.0 494.5,512.625 494.75,509.0 496.125,504.875"/>
    <polyline points="496.625,504.0 501.25,496.875 506.0,491.375 513.375,483.75 530.125,468.625 542.875,458.0 559.75,444.875 581.625,428.875 609.0,410.375 624.625,400.5"/>
    <polyline points="641.25,390.75 658.5,381.375 675.75,373.0 692.375,366.375 707.5,362.125 720.375,360.625 730.125,362.5 736.5,367.75 739.375,376.0 739.0,386.75 735.75,399.25 730.375,413.0 723.375,427.0 715.375,440.75 706.875,453.875 698.375,466.125 690.0,477.25 681.875,487.125 674.25,495.75 667.0,503.375 660.375,509.875 648.375,520.0 643.125,523.875 633.5,529.75"/>
    <polyline points="629.375,531.875 625.375,533.625 618.375,536.0 612.125,537.375 606.875,538.0 600.125,538.125 593.0,537.5 587.875,536.5 582.625,535.0"/>
    <polyline points="582.125,534.875 581.375,534.375 582.75,534.375 587.5,535.5 592.875,537.25 603.0,541.375"/>
    <polyline points="605.75,542.625 615.375,547.375 628.375,554.5 646.0,565.375 670.5,581.875 680.5,589.0 703.875,606.5 717.25,616.75 731.5,628.25 761.875,653.5 776.75,666.375 801.375,688.875 811.625,699.375 809.125,697.75"/>
    <polyline points="801.625,691.0 774.375,664.0 757.125,646.0 721.875,607.0 705.625,588.125 677.75,554.5 648.625,516.75 623.75,482.375 616.375,472.75 611.375,468.0 608.625,466.625 607.375,466.375"/>
    <polyline points="606.125,466.25 602.5,466.875 600.0,467.875 580.75,477.25 573.0,480.0"/>
    <polyline points="571.875,480.375 565.625,481.875 560.375,482.0 558.875,481.5 557.75,480.25 557.625,479.5 558.0,477.875"/>
    <polyline points="558.375,477.25 559.125,475.875 561.125,473.5 565.125,469.5 569.375,465.875 574.75,461.875 585.875,454.625 591.0,451.625 599.125,447.5"/>
    <polyline points="601.875,446.375 609.625,443.375 616.375,442.0 619.75,442.125 621.25,442.5 623.125,443.875 624.0,446.125 623.625,449.125 623.0,450.75 619.75,456.375 614.625,462.375 608.375,468.375"/>
    <polyline points="606.0,470.25 598.875,475.5 594.0,478.5 582.0,484.875 573.125,488.5 565.125,491.125 553.375,494.0"/>
    <polyline points="551.875,494.25 544.375,495.125 538.0,494.875 534.625,493.5 533.625,491.875 533.625,490.75"/>
    <polyline points="533.625,490.125 535.375,486.125 537.875,482.75 545.125,475.25 549.5,471.25 561.5,461.5 573.75,452.5 589.25,442.375"/>
    <polyline points="595.0,438.75 607.25,431.75 620.125,425.25 626.625,422.375 638.875,418.0 644.375,416.75 649.375,416.0 653.625,416.0 657.25,416.875 660.0,418.375 661.75,420.625 662.75,423.625 662.75,427.125 662.0,431.25 660.5,435.625 658.375,440.375 652.25,450.125 648.625,455.0 640.625,464.375 631.875,472.875"/>
    <polyline points="627.5,476.75 618.625,483.625 610.125,489.375 602.0,494.0 590.75,499.375 580.75,503.125 569.125,506.5 555.0,509.125 549.25,509.75"/>
    <polyline points="547.5,510.0 534.875,511.0 521.875,511.375"/>
    <line x1="521.25" x2="512.5" y1="511.5" y2="511.625"/>
    <polyline points="512.25,511.625 508.625,511.5 505.75,510.75 504.125,509.75 503.0,508.0"/>
    <polyline points="502.875,507.75 502.75,505.0 503.0,503.875 504.25,501.0 506.75,497.0 508.75,494.25 513.25,489.125 520.25,482.0"/>
    <polyline points="523.25,479.125 540.5,464.125 560.75,448.25 589.625,427.625 614.0,411.875 627.5,403.75 641.625,396.0 656.0,388.75 670.125,382.5 683.375,377.75 695.5,374.875 705.5,374.375 713.375,376.25 718.5,380.625 721.0,387.25 721.0,395.75 718.75,405.75 714.5,416.75"/>
    <polyline points="709.0,428.125 702.5,439.5 695.375,450.5 687.875,460.875 680.375,470.5 673.0,479.25 665.875,487.125 659.0,494.0 652.5,500.0 646.25,505.25 640.5,509.75 629.875,516.875 625.125,519.625 616.375,523.625 608.75,526.375 602.125,528.125 596.125,529.125 586.5,529.75"/>
    <polyline points="584.375,529.75 575.875,529.0 571.0,528.125 566.125,526.75 564.375,525.875 563.625,525.25 563.5,524.625"/>
    <polyline points="563.5,524.375 564.375,523.375 565.5,522.75 573.875,519.125 576.75,517.0"/>
    <polyline points="577.5,516.25 578.5,514.625 579.125,512.375 579.0,509.25 577.5,505.0 573.875,499.0 566.875,490.125 561.5,484.25 554.375,476.875 545.125,468.0 533.0,457.0 517.375,443.5 497.375,427.0 472.125,406.875 440.5,383.125 402.0,355.75 357.125,326.125 307.5,296.875 257.625,272.5 213.5,258.625"/>
    <polyline points="181.75,260.0 166.0,278.0 165.875,310.0 177.0,350.375 193.875,393.375 228.375,471.875 241.75,504.25 251.875,531.75 259.0,554.625 263.875,573.375 269.875,600.375 272.625,609.0 275.75,614.875 280.0,617.75 285.375,618.125 292.125,616.125 300.0,612.0 309.0,606.25 318.625,599.125 328.75,591.125 349.25,573.875 368.375,557.0"/>
    <polyline points="377.25,549.25 400.0,529.75 412.125,520.0 422.375,512.5 434.875,504.875 441.75,501.625 447.625,499.5 452.875,498.125 459.625,497.125 463.625,496.875 470.5,497.0"/>
    <polyline points="472.125,497.125 490.5,499.375 496.75,499.375"/>
    <polyline points="497.25,499.375 500.0,498.75 501.25,497.875 501.75,497.125 502.0,495.25 501.625,493.75 500.25,491.375"/>
    <polyline points="499.875,490.625 495.375,485.375 493.125,483.25 488.875,479.375 481.375,473.5 476.75,470.125 465.625,462.875 452.5,455.625"/>
    <polyline points="449.125,453.875 442.125,450.75 435.375,448.25 429.0,446.625 423.625,446.0 421.25,446.125 419.25,446.625 417.625,447.375 416.375,448.375 415.375,449.625 414.625,452.875 414.75,454.875 416.125,459.25 418.625,464.0 422.0,469.0 428.375,476.125"/>
    <polyline points="430.625,478.375 437.875,484.625 445.25,489.75 452.5,494.0 461.375,498.25 467.375,500.625 477.875,503.875 482.25,504.875"/>
    <polyline points="483.625,505.125 496.625,507.25 505.5,507.75"/>
    <polyline points="506.0,507.75 511.25,507.375 513.75,506.5 514.875,505.625"/>
    <polyline points="515.0,505.375 515.75,504.375 516.0,503.5 516.0,501.875 515.5,499.875 513.75,496.375 510.0,491.5"/>
    <polyline points="509.0,490.25 503.25,484.375 491.875,474.5 477.875,464.0 464.25,454.875 447.875,445.125 435.875,438.875 423.75,433.375 412.125,429.5"/>
    <polyline points="406.75,428.25 401.875,427.625 397.625,427.75 394.125,428.375 391.25,429.75 389.125,431.875 387.875,434.5 387.25,437.625 387.5,441.25 388.375,445.25 389.875,449.5 392.0,453.875 397.375,462.75 403.875,471.25 411.0,479.125 421.875,489.0 429.0,494.25 439.0,500.375"/>
    <polyline points="442.125,502.0 448.0,504.75 453.5,506.875 463.125,509.875 476.25,512.25 488.875,513.125"/>
    <line x1="489.75" x2="502.5" y1="513.125" y2="512.875"/>
    <polyline points="502.75,512.875 504.25,512.625 504.5,512.25 503.125,511.25 501.625,509.125"/>
    <polyline points="501.5,508.875 501.25,506.125 501.625,504.5 503.25,500.75 508.625,493.25 513.875,487.5"/>
    <polyline points="516.125,485.125 529.375,472.75 552.25,454.0 568.875,441.5 589.625,426.875 614.875,410.5 628.875,402.125 643.375,394.0 658.25,386.5 672.875,380.125 686.625,375.25 699.0,372.5 709.25,372.0 717.0,374.25 722.125,379.0 724.375,386.25 724.0,395.375"/>
    <polyline points="721.25,405.875 716.75,417.375 710.75,429.25 703.875,441.0 696.5,452.25 688.875,462.875 681.25,472.75 673.75,481.5 666.5,489.375 659.5,496.25 653.0,502.375 641.125,512.0 635.75,515.75 625.875,521.625 617.375,525.5 609.875,528.125 600.375,530.25 592.5,531.0"/>
    <polyline points="590.25,531.125 580.75,530.625 576.5,530.0 572.25,529.125 568.75,528.0 567.125,527.125 566.625,526.5 566.75,526.0 567.625,525.375 572.0,524.375 585.25,523.5"/>
    <polyline points="586.75,523.5 591.75,523.5 604.5,524.5 616.375,526.75 620.125,527.75 628.75,530.75 640.0,535.5 647.125,539.0 665.625,549.625 678.0,557.5 693.375,567.875 712.625,581.875 737.125,600.375"/>
    <polyline points="768.125,625.0 807.125,657.5 855.0,699.375 910.5,750.5 968.125,807.125 1015.0,858.625 1024.0,872.3932"/>
    <polyline points="1024.0,883.1176 1012.75,878.125 957.375,829.125 887.875,755.0 824.375,673.875 777.625,597.25 750.625,529.75 741.75,471.625 748.125,421.75 766.0,379.625 790.625,345.75 817.125,321.625 840.25,309.375 855.875,310.25 861.75,323.5 858.375,346.625 848.0,375.875 833.625,407.75 817.875,439.125 802.625,468.375"/>
    <polyline points="788.875,494.375 758.75,551.5 751.625,564.25 745.5,574.375 740.0,582.125 734.875,587.875 729.625,591.625 724.375,593.75 719.0,594.5 713.25,594.0 707.25,592.5 701.0,590.0 694.625,587.0 688.0,583.375 674.75,575.25 642.875,554.5 626.125,544.25"/>
    <polyline points="621.0,541.25 607.0,533.875 598.625,530.0 587.625,525.5 581.0,523.25 569.75,520.0 562.625,518.375 547.875,515.875"/>
    <line x1="546.5" x2="526.75" y1="515.75" y2="513.25"/>
    <polyline points="522.875,502.0 521.125,498.75 518.125,494.5 512.875,488.625 504.5,480.625 495.25,472.75 482.5,463.0 465.625,451.25"/>
    <polyline points="459.125,447.0 444.75,438.25 429.0,429.75 420.875,425.75 412.75,422.25 404.875,419.375 397.375,417.125 390.375,415.625 384.25,415.25 379.125,415.75 374.875,417.375 371.875,419.875 370.125,423.5 369.375,427.75 369.875,432.875 371.25,438.375 373.375,444.25 376.25,450.25 383.625,462.25 387.75,468.0 392.125,473.375 396.5,478.5 401.0,483.125"/>
    <polyline points="405.5,487.5 414.125,494.875 422.25,500.75 429.875,505.375 436.75,508.875 446.0,512.5 454.0,514.75 462.875,516.25 468.5,516.75 474.75,516.875"/>
    <polyline points="476.0,516.875 486.875,516.125 492.125,515.125 493.25,514.625"/>
    <polyline points="493.5,514.5 494.375,514.0 495.0,513.125 495.25,509.25"/>
    <polyline points="495.375,508.875 496.375,505.375 498.125,502.0 501.75,496.875 506.375,491.375 513.625,483.875 520.625,477.25 535.875,464.125"/>
    <polyline points="542.625,458.625 550.25,452.5 569.125,438.25 593.125,421.25 607.125,411.875 622.375,402.25 638.75,392.5 655.75,383.25 672.875,374.875 689.375,368.125 704.5,363.5 717.5,361.75 727.625,363.125 734.375,367.75 737.75,375.375 737.875,385.625 735.125,397.75 730.125,411.125 723.375,424.875 715.625,438.625 707.375,451.75 698.875,463.875 690.5,475.125 682.375,485.0"/>
    <polyline points="674.75,493.875 660.75,508.125 648.625,518.5 638.125,525.875 629.25,530.75 621.5,534.0 618.0,535.125 609.0,537.0 601.625,537.5 597.5,537.375 592.25,536.875 588.125,536.125"/>
    <polyline points="587.0,535.875 582.0,534.625 580.125,533.625 581.25,533.5 586.5,534.75"/>
    <polyline points="587.75,535.125 595.625,537.75 602.375,540.5 611.25,544.625 628.0,553.625 639.375,560.5 653.625,569.5 671.375,581.625 693.375,597.75 720.375,618.375"/>
    <polyline points="735.5,630.625 751.5,643.75 783.5,671.375 809.25,695.25 816.625,702.625 818.75,705.375 815.125,702.75 806.0,694.375 792.25,681.0 775.25,663.625 756.625,643.75 737.75,622.875 719.625,602.125 703.125,582.375 688.375,564.125 675.625,547.625 664.875,533.125 655.75,520.5 642.0,500.375 626.75,475.875"/>
    <polyline points="624.5,472.125 622.625,469.125 618.375,463.625 616.125,462.125 615.0,461.875 612.75,462.0 607.75,464.375 595.125,472.375 588.25,476.25"/>
    <polyline points="586.5,477.125 576.375,481.625 564.75,485.25 557.875,486.375 553.625,486.25"/>
    <polyline points="553.0,486.25 550.875,485.375 550.25,484.75 549.875,483.875 549.875,482.875 550.375,481.0 553.25,476.75 557.75,472.125 562.625,467.875"/>
    <polyline points="564.625,466.25 576.875,457.125 586.375,451.0 597.0,444.875 604.5,441.125 612.0,437.875 619.125,435.5 625.375,434.125 628.0,434.0 630.375,434.125 632.375,434.625 634.0,435.5 635.125,436.625 635.875,438.125"/>
    <polyline points="636.125,439.875 635.5,444.25 634.5,446.75 631.5,452.125 629.625,454.875 624.875,460.5 616.75,468.625 607.625,475.875 598.5,481.875 586.625,488.25 575.75,492.75"/>
    <polyline points="573.25,493.75 561.75,497.25 553.875,499.125 542.625,501.0 532.0,501.75"/>
    <polyline points="531.125,501.875 526.25,501.5 523.875,501.0 522.0,500.125 521.125,499.125 520.625,497.875 521.125,494.875"/>
    <polyline points="521.5,494.0 523.0,491.25 525.625,487.625 531.625,481.125 541.625,471.875 552.875,462.625 574.5,446.5 588.625,437.0 604.75,426.875"/>
    <polyline points="613.625,421.75 622.625,416.875 641.0,408.0 649.875,404.625 658.25,402.0 665.875,400.375 672.5,400.0 677.875,400.875 681.875,403.0 684.5,406.375 685.625,410.75 685.5,416.25 684.0,422.5 681.375,429.125 677.875,436.25 673.625,443.375 668.875,450.375 658.25,463.875 647.125,475.625 636.125,485.625 625.625,493.625"/>
    <polyline points="620.625,497.0 611.25,502.5 602.625,506.75 598.625,508.5 587.75,512.25 578.375,514.5 567.875,516.125 559.5,516.75 549.75,516.75"/>
    <polyline points="548.375,516.625 538.5,515.75 533.625,514.625 531.875,513.75"/>
    <polyline points="531.625,513.5 530.375,511.625 529.375,505.875"/>
    <polyline points="529.125,505.375 527.5,501.625 524.75,497.375 521.375,493.125 514.125,485.5 505.625,477.75 498.0,471.375 488.375,463.75 476.5,455.0"/>
    <polyline points="469.625,450.25 454.0,439.75 435.875,428.875 426.125,423.5 416.25,418.5 406.125,413.875 396.25,410.0 386.875,407.0 378.25,405.125 370.75,404.5 364.5,405.25 359.625,407.5 356.375,411.125 354.625,416.0 354.375,421.875 355.5,428.625 357.875,435.875 361.125,443.375 365.125,451.0 369.625,458.5 374.5,465.625 379.625,472.375 384.75,478.75 390.0,484.5"/>
    <polyline points="395.0,489.625 400.0,494.375 409.375,502.125 418.0,508.0 422.0,510.375 429.375,514.125 439.125,517.75 447.375,519.75 458.5,520.875 468.5,520.625"/>
    <polyline points="469.75,520.5 475.5,519.75 481.75,518.375 484.125,517.5 486.25,516.125"/>
    <polyline points="486.5,515.875 487.375,514.25 488.25,510.125 489.25,507.5 491.375,503.5"/>
    <polyline points="492.25,502.25 499.125,493.625 510.5,481.875 532.125,462.875 549.0,449.25 571.625,432.0 585.375,422.0 601.0,411.25 618.375,399.75 637.375,387.875 657.5,376.125 678.125,365.375 698.375,356.25 717.125,349.875"/>
    <polyline points="733.25,347.125 745.75,348.375 753.875,354.0 757.5,363.75 756.875,376.625 752.875,391.875 746.125,408.5 737.75,425.375 728.375,441.75 718.75,457.125 709.25,471.25 700.125,483.875 691.5,495.0 676.25,512.875 663.5,525.625 658.0,530.5 648.375,537.75 644.125,540.25 636.625,544.0 630.125,546.125 627.25,546.75"/>
    <polyline points="624.625,547.125 617.5,547.5 610.0,546.75 604.375,545.5 596.875,543.125 606.125,547.375 621.375,555.5 631.375,561.375 649.25,572.75"/>
    <polyline points="654.625,576.375 673.375,589.5 703.75,612.25 727.25,631.0 749.375,649.625 679.875,582.125"/>
    <polyline points="670.375,573.0 644.875,549.375 630.375,537.0 617.875,527.25 602.25,516.75 589.5,510.0 578.875,505.875 567.375,502.875 556.0,501.5"/>
    <polyline points="554.0,501.25 533.25,500.875 528.25,500.25 525.875,499.625"/>
    <polyline points="525.375,499.375 523.875,498.25 523.125,496.5 523.125,495.375 523.75,493.25 525.125,490.625 527.625,487.125 530.125,484.25 537.5,476.875"/>
  </g>
</svg>
