<?xml version="1.0" encoding="utf-8" ?>
<svg xmlns="http://www.w3.org/2000/svg" xmlns:cc="http://creativecommons.org/ns" xmlns:dc="http://purl.org/dc/elements/1.1/" xmlns:ev="http://www.w3.org/2001/xml-events" xmlns:inkscape="http://www.inkscape.org/namespaces/inkscape" xmlns:rdf="http://www.w3.org/1999/02/22-rdf-syntax-ns" xmlns:sodipodi="http://sodipodi.sourceforge.net/DTD/sodipodi-0.dtd" xmlns:xlink="http://www.w3.org/1999/xlink" baseProfile="tiny" height="27.09333333cm" version="1.2" viewBox="0 0 1024.0 1024.0" width="27.09333333cm">
  <metadata>
    <rdf:RDF>
      <cc:Work>
        <dc:format>image/svg+xml</dc:format>
        <dc:source>vpype read './original_svgs/Strange Attractors #370.svg' linemerge linesimplify write './Strange Attractors #370.svg'
</dc:source>
        <dc:date>2024-08-05T01:35:52.932194</dc:date>
      </cc:Work>
    </rdf:RDF>
  </metadata>
  <defs/>
  <g fill="none" id="layer1" inkscape:groupmode="layer" inkscape:label="1" stroke="black" stroke-width="0.7mm" style="display:inline">
    <polyline points="492.375,830.25 553.125,746.375 588.75,685.0 605.25,639.75 606.25,604.125 592.875,572.625 563.75,540.375 516.125,503.375 446.875,458.75 355.625,407.125 251.0,355.75 154.125,319.875 89.75,314.625 67.0,342.25 74.375,392.0 93.5,450.5 111.625,509.375 123.375,565.5 128.5,618.5 129.625,668.25 130.25,713.5 134.625,751.75 146.25,779.375 166.5,793.125 194.625,791.75 227.875,776.625"/>
    <polyline points="262.125,751.5 294.25,720.75 322.125,688.125 344.5,656.625 361.5,627.625 373.5,602.125 381.25,580.0 385.5,561.25 387.0,545.5 386.5,532.5 384.625,521.875 381.875,513.5 378.875,507.125 376.0,502.5 373.5,499.5 371.75,497.75 370.75,497.25 370.625,497.75 371.375,499.125 372.875,501.0 377.875,506.0 384.875,511.5 392.875,516.625"/>
    <polyline points="397.0,518.875 405.375,522.625 413.625,525.5 421.375,527.375 432.0,528.75 441.25,528.75 451.625,527.5 458.125,526.0 463.625,524.25 468.125,522.375"/>
    <polyline points="469.5,521.75 476.0,518.125 480.25,514.625 482.625,511.25 483.5,508.5 483.5,507.375"/>
    <polyline points="483.5,506.75 483.25,504.375 481.625,500.0 475.375,488.75"/>
    <polyline points="474.75,487.75 471.5,480.75 470.0,476.375 468.5,469.625 468.0,463.625 468.5,456.25 469.5,450.625 471.25,444.125 474.125,436.75"/>
    <polyline points="476.0,432.75 480.875,423.75 484.0,418.875 491.875,408.125 496.625,402.25 502.125,396.25 515.125,383.5 522.75,377.125 531.0,370.75 539.875,364.75 549.375,359.125 559.25,354.375 569.25,350.375 579.25,347.75 589.0,346.5 598.125,346.75 606.5,348.875 613.75,352.625 619.875,358.125 624.625,365.0 628.0,373.125 630.125,382.25 631.0,392.0"/>
    <polyline points="630.875,402.125 629.75,412.125 628.0,422.125 625.625,431.625 622.875,440.625 619.875,449.0 616.5,456.75 609.75,470.375 606.375,476.125 599.75,486.0 593.5,493.625 587.75,499.75 582.5,504.5 577.75,508.125 571.5,512.25 566.25,515.125"/>
    <polyline points="564.75,515.875 552.0,522.25 550.0,524.0 549.125,525.75 549.125,526.5"/>
    <polyline points="549.125,526.875 549.625,528.375 551.75,531.125 554.75,533.625 559.75,537.0"/>
    <polyline points="560.375,537.375 565.0,540.0 551.625,532.5 519.125,515.5"/>
    <polyline points="508.375,510.125 481.375,496.875 446.75,481.0 427.25,472.75 406.875,464.75 386.625,457.75 367.5,452.375 350.5,449.125 336.5,448.375 326.25,450.5 319.875,455.125 317.0,461.875 317.25,470.0 319.875,479.25 324.25,488.625 329.625,497.875 335.5,506.75 347.875,522.0 353.75,528.25 359.375,533.625 364.625,538.25 374.125,545.125"/>
    <polyline points="378.25,547.5 385.75,550.75 392.0,552.375 397.375,552.625 402.0,552.125 406.0,551.0 409.25,549.5 413.25,546.875 415.25,545.0 417.625,542.125 418.625,540.25 419.375,537.625"/>
    <polyline points="419.375,536.75 419.25,535.125 418.75,533.625 416.5,531.125 413.875,529.625 408.75,528.375 403.75,528.125 397.5,528.75 392.5,529.75 386.875,531.5"/>
    <polyline points="383.875,532.625 373.25,537.5 365.0,542.25 355.625,548.75 345.125,557.125 333.5,567.875 320.875,581.5 314.25,589.375 301.25,607.25 295.125,617.0 289.625,627.125 284.75,637.375 281.125,647.25 278.875,656.5 278.375,664.5 279.75,671.0 283.125,675.375 288.5,677.5"/>
    <polyline points="295.75,677.125 304.625,674.375 314.625,669.375 325.5,662.5 336.75,654.25 348.0,644.875 359.125,635.0 379.625,614.875 389.0,605.25 419.25,573.0 435.875,555.875 444.875,547.375 452.5,540.875 459.25,535.875 467.75,530.625"/>
    <polyline points="470.375,529.375 475.125,527.25 481.5,525.125 492.125,523.125 502.125,522.875 510.25,523.625"/>
    <polyline points="511.375,523.75 523.75,526.0 523.75,525.75 522.25,524.75"/>
    <polyline points="521.375,524.375 512.0,519.5 490.25,509.625 467.125,500.0 453.375,494.875 438.875,490.125 425.0,486.5 418.625,485.125 412.75,484.375 407.625,484.125"/>
    <polyline points="403.25,484.375 399.875,485.125 397.375,486.5 395.75,488.25 395.0,490.375 395.125,492.75 395.875,495.375 397.375,498.125 401.75,503.625 404.5,506.25 410.875,511.125 414.125,513.25 424.5,518.375 431.375,520.75 437.875,522.375 446.875,523.75 452.375,524.0"/>
    <polyline points="455.0,524.125 462.125,523.75 473.75,522.125 482.5,520.0 492.25,516.625"/>
    <polyline points="493.0,516.375 498.5,513.875 501.375,511.875 502.125,511.0"/>
    <polyline points="502.25,510.75 502.5,508.625 501.0,506.125"/>
    <line x1="500.875" x2="493.375" y1="505.875" y2="498.125"/>
    <polyline points="493.0,497.625 489.25,493.625 485.625,489.0 481.875,483.0 480.375,479.875"/>
    <polyline points="479.875,478.75 477.5,470.625 476.875,465.5 477.125,457.5 478.5,450.125 480.25,444.5 484.5,434.625 488.75,427.25 494.375,419.0"/>
    <polyline points="497.75,414.5 505.875,405.25 515.875,395.5 527.75,385.75 534.375,381.125 541.375,376.875 548.75,372.875 556.25,369.625 563.75,367.0 571.25,365.375 578.5,364.625 585.375,364.875 591.625,366.375 597.25,369.0 602.125,372.75 606.125,377.5 609.125,383.25 611.375,389.625 612.625,396.625 613.125,404.0 612.875,411.5 612.0,419.125 610.625,426.625"/>
    <polyline points="608.875,433.875 604.25,447.5 598.875,459.375 593.125,469.625 584.625,481.75 579.25,488.125 574.25,493.25 569.5,497.375 563.25,502.25 559.5,504.75 551.625,509.25"/>
    <polyline points="550.375,509.875 539.375,515.5 536.0,518.0 535.125,519.5"/>
    <polyline points="535.0,519.75 534.875,521.125 535.625,522.875 538.25,525.75 540.375,527.375"/>
    <polyline points="540.875,527.75 544.125,530.0 554.625,536.125 538.125,527.25 506.0,511.0 484.75,500.875 458.0,488.75 426.875,476.0 410.625,470.125 394.75,465.0"/>
    <polyline points="379.75,461.25 366.5,459.0 355.375,458.625 347.0,460.125 341.375,463.375 338.375,468.25 337.875,474.25 339.375,481.125 342.25,488.25 346.375,495.5 351.25,502.375 356.5,508.875 361.875,514.875 367.25,520.125 372.625,524.75 377.75,528.625 382.625,532.0 387.25,534.75 391.625,536.875 399.5,539.875 406.375,541.25 412.25,541.625 414.875,541.5"/>
    <polyline points="417.375,541.125 421.75,540.0 425.5,538.625 430.0,536.0 434.125,532.125 435.625,530.25 436.625,528.25 437.5,525.375 437.375,521.625 436.375,519.0"/>
    <polyline points="435.875,518.125 434.0,515.5 430.25,512.125 426.625,509.75 420.375,506.75 414.75,504.75 405.5,502.75 400.0,502.125 393.875,502.0"/>
    <polyline points="390.5,502.0 383.0,502.75 374.375,504.5 369.5,505.875 358.5,510.0 345.5,516.625 338.0,521.25 329.625,527.0 320.375,534.0 310.125,542.625 298.875,553.125 286.375,565.875 272.625,581.25 257.875,599.625 242.25,621.125 226.5,645.625 211.5,672.875 198.75,701.5 190.125,729.5 187.625,754.125 192.75,772.25 206.25,780.875"/>
    <polyline points="227.125,778.875 253.0,766.75 281.25,746.75 309.25,721.625 334.875,694.375 357.0,667.125 375.5,641.625 390.125,618.5 401.25,598.0 409.5,580.375 415.125,565.125 418.75,552.25 420.625,541.375 421.125,532.375 420.75,524.75 419.625,518.5 418.0,513.375 416.25,509.25 414.25,506.125 412.5,503.75 409.625,501.0 408.25,500.5 408.125,501.0 408.5,501.75"/>
    <polyline points="409.375,502.75 414.0,506.75 421.125,511.125 429.375,515.0 435.25,517.125 444.0,519.5 455.0,521.25 465.0,522.0 471.625,522.0"/>
    <polyline points="473.75,522.0 497.625,520.75 508.125,520.75"/>
    <polyline points="509.125,520.875 513.375,521.25 518.125,522.125 524.0,523.75 528.25,525.375"/>
    <polyline points="529.0,525.625 544.25,532.375 526.625,523.125 505.125,512.625 489.25,505.125 469.375,496.25 446.125,486.625 433.625,481.875 421.0,477.5"/>
    <polyline points="408.5,473.625 396.75,470.625 386.0,468.75 376.75,468.0 369.25,468.5 363.75,470.375 360.125,473.25 358.375,477.25 358.25,481.875 359.625,487.0 362.125,492.375 365.5,497.75 369.5,502.875 373.875,507.75 383.25,516.375 392.625,523.0 397.125,525.625 405.625,529.5 413.375,532.0 417.0,532.75 423.5,533.375"/>
    <polyline points="426.5,533.5 431.875,533.125 436.625,532.25 442.625,530.375 447.375,528.0 451.125,525.375 455.375,521.0 457.25,517.375 457.875,514.625"/>
    <polyline points="458.0,513.75 457.75,510.125 457.0,507.375 454.625,502.375 443.875,486.375"/>
    <polyline points="442.875,484.875 438.875,477.75 436.125,471.25 434.125,463.125 433.75,460.125 433.5,453.0 433.875,449.0 435.5,439.625 437.0,434.125 439.125,428.125 442.0,421.25 445.625,413.75 450.375,405.25 456.375,395.875 463.875,385.375 473.0,373.625 484.125,360.875"/>
    <polyline points="497.5,346.875 513.25,332.125 531.5,316.875 552.125,301.75 574.875,287.875 598.875,276.375 623.25,268.75 646.5,266.375 667.125,270.0 684.0,280.125 696.25,296.0 703.875,316.625 707.125,340.125 707.0,364.875 704.25,389.5 699.75,412.75 694.375,434.125 688.625,453.0 682.75,469.625 677.125,483.75 671.875,495.625 666.875,505.625 662.125,513.875 657.875,520.5 650.0,530.25"/>
    <polyline points="646.375,533.5 643.0,536.125 636.5,539.375 630.375,540.875 624.5,541.0 616.375,540.125 611.125,539.0 591.625,533.75 585.125,532.375"/>
    <polyline points="583.625,532.125 577.5,531.5 573.875,531.625 571.875,532.0 570.875,532.375 569.375,533.625 569.25,535.375 569.5,535.75"/>
    <polyline points="569.625,536.125 570.875,537.875 572.75,539.75 576.125,542.375 587.25,549.125"/>
    <polyline points="588.25,549.625 593.125,551.875 592.5,551.125 584.875,546.25 559.75,531.75 534.375,517.75 495.5,497.125 470.0,484.125 440.375,469.75 407.25,454.5"/>
    <polyline points="372.25,439.875 337.75,427.625 306.875,419.625 282.375,417.25 265.875,421.25 257.5,431.0 256.25,445.0 260.0,461.75 266.75,479.25 275.0,496.625 283.5,513.0 291.625,527.75 316.125,570.875 320.5,578.0 328.125,589.0 331.625,593.0 335.0,596.125 338.375,598.375 341.75,599.875 345.25,600.75 348.875,601.0 352.5,600.75"/>
    <polyline points="356.25,600.0 364.0,597.125 371.875,593.0 379.875,588.0 387.5,582.5 402.0,571.125 411.5,563.125 424.875,551.375 435.125,541.875"/>
    <polyline points="436.75,540.125 441.25,535.625 444.875,531.5 446.875,529.0 450.25,523.25 451.5,519.125 451.75,517.125 451.375,513.25 450.75,511.25"/>
    <polyline points="450.375,510.25 447.75,505.375 443.625,500.0 430.5,485.75 424.875,478.75"/>
    <polyline points="423.5,476.75 420.75,472.5 418.25,467.375 417.125,464.625 415.25,458.125 414.375,450.375 414.375,445.75 414.875,440.625 415.875,434.875 417.5,428.375 420.0,421.0 423.5,412.5 428.375,402.75 434.875,391.5 443.375,378.5 454.25,363.75 468.125,346.875 485.375,327.875 506.75,307.125 532.25,285.0 562.0,262.875 595.375,242.75"/>
    <polyline points="630.625,227.0 665.5,218.875 697.0,220.875 722.25,234.0 739.75,257.5 749.125,288.75 751.625,324.375 749.125,360.75 743.5,395.5 736.5,427.0 729.125,454.375 722.0,477.75 715.5,497.0 709.625,512.75 704.375,525.375 699.625,535.25 695.125,542.75 690.875,548.375 686.75,552.25 682.5,554.875 678.125,556.125 673.625,556.5 668.875,555.875 664.0,554.75 658.875,553.0 653.625,550.75"/>
    <polyline points="648.375,548.375 607.25,526.5 590.625,518.75 583.375,515.875 571.125,512.0 561.25,510.125 555.25,509.625"/>
    <polyline points="553.375,509.5 547.0,509.625 538.75,510.75 533.875,512.0 529.625,513.75"/>
    <polyline points="529.25,514.0 528.0,514.75 526.5,516.625 526.5,518.0 527.0,519.0"/>
    <polyline points="527.25,519.25 529.125,521.375 535.5,525.875"/>
    <line x1="536.0" x2="550.5" y1="526.125" y2="534.5"/>
    <polyline points="550.875,534.625 551.5,534.875 524.5,520.75 502.625,510.0 470.125,494.875 442.625,483.25"/>
    <polyline points="427.75,477.375 412.75,472.0 397.875,467.5 384.125,464.0 371.75,462.0 361.375,461.5 353.375,462.875 348.0,465.75 345.0,470.0 344.125,475.5 345.25,481.625 347.75,488.125 351.375,494.75 355.875,501.125 360.75,507.25 365.875,512.875 371.125,517.875 376.25,522.25 386.125,529.25 390.75,531.875 399.25,535.625 403.125,537.0 410.125,538.5"/>
    <polyline points="413.25,538.75 419.0,538.75 426.125,537.5 430.0,536.125 434.75,533.625 439.375,529.875 442.25,526.0 443.625,522.125 443.75,519.25"/>
    <polyline points="443.625,518.25 442.875,515.5 440.75,511.75 436.625,507.125 432.0,503.25 426.25,499.25 417.25,494.25"/>
    <polyline points="415.25,493.125 408.625,490.0 398.375,485.875 389.375,482.875 382.625,481.125 371.125,479.25 362.125,478.75 357.125,478.875 351.75,479.25 345.875,480.25 339.375,481.75 332.25,484.0 324.25,487.25 315.125,491.625 304.75,497.75"/>
    <polyline points="292.875,506.0 279.0,516.875 262.625,531.5 243.625,550.75 221.25,576.0 195.5,608.625 166.875,650.0 137.0,700.5 109.75,758.125 91.5,817.125 90.125,867.0 111.0,895.25 153.125,893.875 208.0,864.25 264.125,816.0 313.0,760.5 350.25,706.125 375.125,657.125 388.75,614.625 392.75,578.75 388.875,548.5 378.875,523.0 364.625,502.0 348.25,485.25 331.5,472.625 316.125,464.625"/>
    <polyline points="303.875,461.125 295.375,461.875 291.0,466.25 290.375,473.5 292.75,482.625 297.375,492.75 303.375,503.25 310.125,513.25 317.125,522.75 324.125,531.25 330.875,538.75 337.375,545.25 343.375,550.625 348.875,555.125 354.125,558.75 359.0,561.625 363.5,563.75 371.75,566.375 379.0,567.125 385.5,566.5 388.5,565.875 394.125,564.0"/>
    <polyline points="396.625,562.875 401.5,560.375 407.75,556.25 413.0,552.125 417.25,548.0 421.625,542.875 423.875,539.375 425.25,536.125 425.875,532.125"/>
    <polyline points="425.75,531.25 425.375,529.5 424.625,527.875 422.75,525.75 421.0,524.375 418.875,523.25 415.0,521.875 410.125,520.875 404.0,520.625 396.625,521.25 390.75,522.5"/>
    <polyline points="387.5,523.25 380.375,525.625 376.5,527.25 367.625,531.5 362.875,534.25 357.625,537.5 346.0,545.75 332.625,557.0 325.25,563.875 309.25,580.875 300.875,591.125 292.25,602.375 283.625,614.75 275.5,628.125 268.0,642.0 261.75,656.125 257.25,669.625 255.125,682.0 255.75,692.25 259.375,699.625 266.125,703.375"/>
    <polyline points="275.75,703.375 287.75,699.5 301.5,692.25 316.125,682.125 331.125,670.125 345.625,656.875 359.5,643.125 372.375,629.5 384.0,616.5 403.75,593.125 436.375,552.875 444.75,543.125 451.5,535.875 457.125,530.625 461.875,526.875 466.125,524.25"/>
    <polyline points="468.0,523.25 474.625,520.75 479.0,519.875 484.0,519.375 496.5,519.75"/>
    <polyline points="497.125,519.75 499.125,519.625 499.5,519.125 498.625,518.25 495.125,516.375 484.75,511.875"/>
    <polyline points="482.75,511.0 470.625,506.5 459.375,503.0 453.75,501.5 443.75,499.75 438.25,499.75 436.0,500.5 435.25,501.0 434.5,502.25 435.0,504.0"/>
    <polyline points="435.5,504.875 438.5,507.75 441.375,509.625 446.5,512.25 452.375,514.5 464.5,517.75 479.875,520.0"/>
    <polyline points="481.625,520.125 503.5,522.375 514.125,524.125"/>
    <polyline points="515.0,524.25 521.25,525.625 523.0,525.625 516.0,521.625"/>
    <polyline points="514.125,520.75 495.875,512.25 475.375,503.5 449.0,493.625 435.0,489.25 421.875,486.125 410.625,484.75 406.125,484.75 402.375,485.375 399.625,486.375 397.75,488.0 396.625,489.875"/>
    <polyline points="396.375,492.125 396.875,494.5 398.0,497.125 399.75,499.875 404.5,505.125 410.5,510.0 413.75,512.125 423.875,517.5 434.0,521.0 443.375,523.0 454.5,523.875 464.0,523.5"/>
    <polyline points="466.125,523.25 471.875,522.5 480.0,520.875 488.5,518.625 496.5,515.875"/>
    <polyline points="497.125,515.625 503.125,513.0 504.375,512.125 505.5,510.625 505.5,509.625 505.0,508.625 500.125,503.75"/>
    <polyline points="499.75,503.5 495.375,499.5 490.125,494.0"/>
    <polyline points="489.625,493.375 485.375,488.0 483.25,484.75 481.125,480.75 479.25,476.125 478.125,472.0 477.625,468.875"/>
    <polyline points="477.375,467.25 477.125,463.625 477.25,459.5 478.25,452.625 479.625,447.375 480.625,444.375 484.875,434.75 489.125,427.25 491.75,423.25 494.625,419.125 501.875,410.125 510.75,400.75 521.625,391.0 527.75,386.25 534.375,381.625"/>
    <polyline points="541.25,377.375 548.5,373.625 555.875,370.25 563.25,367.75 570.75,366.0 577.875,365.25 584.625,365.5 590.875,367.0 596.5,369.5 601.375,373.25 605.375,377.875 608.375,383.5 610.625,389.75 611.875,396.625 612.5,403.875 612.25,411.25 611.5,418.875 610.125,426.25 608.375,433.5 603.875,447.0 598.5,458.875 595.75,464.125 590.0,473.5"/>
    <polyline points="587.125,477.5 584.375,481.25 579.0,487.625 571.625,495.0 567.125,498.75 561.125,503.125 555.875,506.375 550.125,509.625 542.625,513.25"/>
    <polyline points="541.875,513.75 538.5,515.5 535.875,517.375 534.875,518.5 534.375,519.625 534.375,521.375"/>
    <polyline points="534.5,521.625 536.75,524.625 541.0,528.0 543.75,529.75"/>
    <polyline points="544.25,530.125 554.375,536.0 552.25,534.75"/>
    <polyline points="551.125,534.125 516.875,516.375 476.125,496.875 447.75,484.5 432.125,478.125 416.0,472.125 400.0,466.75 384.75,462.5 371.0,459.75 359.25,458.75 350.0,459.625 343.5,462.375 339.75,466.75 338.375,472.375"/>
    <polyline points="339.25,478.875 341.75,485.875 345.375,493.125 350.0,500.125 355.125,506.75 360.5,512.875 365.875,518.25 371.25,523.125 376.375,527.25 381.375,530.75 390.5,536.0 398.625,539.25 405.625,540.875 411.75,541.375 417.0,541.0 423.5,539.375 428.5,537.0"/>
    <polyline points="430.0,536.125 432.375,534.25 435.875,530.375 437.0,528.375 438.125,524.5 438.0,521.75 437.125,519.0 434.875,515.5 432.375,512.875"/>
    <polyline points="431.375,512.125 425.0,508.0 416.375,504.375 410.0,502.625 402.25,501.25 396.375,500.75 389.75,500.75 382.25,501.5 378.0,502.25 368.5,504.625"/>
    <polyline points="363.25,506.375 351.125,511.75 344.125,515.5 336.5,520.125 328.0,526.0 318.5,533.125 308.0,542.0 296.375,552.875 283.5,566.125 269.25,582.125 254.0,601.25 237.75,623.75 221.5,649.5 206.0,678.0 193.125,708.0 184.75,737.0 183.125,762.0 189.75,779.625 205.25,786.875 228.0,782.75 255.75,768.25 285.375,746.0 313.875,719.0 339.625,690.5 361.5,662.5"/>
    <polyline points="379.375,636.5 393.125,613.25 403.5,592.875 410.75,575.25 415.375,560.25 418.0,547.625 419.0,537.0 418.75,528.0 417.5,520.625 415.625,514.625 413.375,509.75 411.0,505.875 408.75,503.0 405.0,499.625 402.75,498.875 402.5,499.25 403.375,501.25 406.125,504.25 410.375,507.625 415.625,510.875"/>
    <polyline points="418.625,512.5 424.625,515.375 430.875,517.75 440.25,520.25 446.125,521.375 454.5,522.375 464.5,522.75 475.0,522.25 482.125,521.5"/>
    <polyline points="483.75,521.375 500.0,519.5 506.25,519.125 509.875,519.25"/>
    <polyline points="510.625,519.25 514.375,519.625 519.125,520.625 525.25,522.75"/>
    <line x1="525.875" x2="541.75" y1="523.0" y2="530.625"/>
    <polyline points="542.375,531.0 547.5,533.5 527.0,522.75"/>
    <polyline points="522.125,520.25 493.5,506.5 472.875,497.0 448.25,486.625 421.125,476.375 407.5,472.0 394.5,468.5 382.75,466.125 372.5,465.125 364.125,465.5 358.0,467.5 354.0,470.625 352.125,475.0 352.125,480.125 353.625,485.75 356.375,491.625 360.0,497.5 364.25,503.125 368.875,508.5 373.875,513.375"/>
    <polyline points="378.75,517.75 388.5,524.875 397.5,529.875 401.75,531.75 409.5,534.25 416.5,535.5 419.625,535.75 425.25,535.625 430.25,534.875 434.5,533.625 438.125,532.25 441.25,530.625 445.125,527.875 447.0,526.0"/>
    <polyline points="447.875,525.125 450.375,521.375 451.0,519.5 451.5,517.625 451.25,512.875 449.875,509.0 448.25,506.125 444.375,500.875"/>
    <polyline points="443.375,499.75 427.375,482.125 421.75,474.25 419.125,469.5 415.875,460.875 414.5,453.625 414.25,449.5"/>
    <polyline points="414.375,444.75 414.875,439.5 416.0,433.625 417.875,426.875 420.5,419.25 424.375,410.5 429.5,400.5 436.375,388.875 445.375,375.625 456.875,360.375 471.375,343.0 489.5,323.625 511.625,302.5 538.125,280.25 568.75,258.375 602.625,238.875 638.125,224.5 672.625,218.25 703.0,222.5 726.75,238.0 742.5,263.5 750.25,296.0 751.5,332.0 748.25,368.25 742.25,402.5 735.125,433.125"/>
    <polyline points="727.75,459.75 720.75,482.125 714.375,500.625 708.625,515.75 703.5,527.75 698.75,537.125 694.375,544.25 690.125,549.375 685.875,553.0 681.625,555.25 677.25,556.375 672.625,556.5 667.875,555.75 657.875,552.625 641.875,545.0 615.75,530.875 601.875,523.75"/>
    <polyline points="597.625,521.75 589.75,518.25 579.375,514.375 573.25,512.5 565.375,510.75 558.625,509.75 551.25,509.375 540.5,510.375"/>
    <polyline points="539.5,510.5 531.75,512.625 528.125,514.5 526.875,515.75"/>
    <polyline points="526.625,516.0 526.25,517.125 526.5,518.375 527.5,519.875 529.0,521.25"/>
    <polyline points="529.25,521.5 532.875,524.25 540.875,529.125"/>
    <polyline points="541.5,529.5 551.375,534.875 549.0,533.5"/>
    <polyline points="547.875,532.875 520.625,518.875 496.75,507.125 461.875,491.25 433.375,479.5 418.25,474.0 403.375,469.0 389.125,465.125 376.125,462.5 365.0,461.5 356.125,462.125 349.75,464.5 345.875,468.375 344.25,473.375"/>
    <polyline points="344.75,479.25 346.75,485.75 350.0,492.25 354.25,498.875 359.0,505.0 364.0,510.875 369.25,516.0 379.5,524.625 384.5,528.125 393.625,533.25 397.875,535.125 401.75,536.5 409.0,538.25 415.25,538.75 420.625,538.5 427.5,537.0 432.75,534.75"/>
    <polyline points="434.25,533.875 436.875,532.125 440.0,529.25 442.625,525.375 443.625,522.375 443.75,518.625 443.375,516.75 442.25,514.0 439.625,510.25"/>
    <polyline points="438.875,509.25 436.0,506.375 432.5,503.5 425.375,498.625 420.125,495.5 414.125,492.375 404.875,488.125 393.875,484.0"/>
    <polyline points="390.875,483.0 384.25,481.125 373.125,478.875 369.0,478.375 359.75,478.0 349.125,478.75 343.0,479.875 336.25,481.625 328.875,484.125 320.5,487.75 311.0,492.625 300.0,499.375 287.375,508.5 272.625,520.625 255.25,536.875 234.875,558.25 211.0,586.25 183.875,622.375 154.0,667.625 124.0,722.0 98.75,782.125"/>
    <polyline points="85.5,840.375 92.25,884.375 122.5,902.125 171.875,888.625 229.625,849.375 284.625,796.0 329.625,739.125 362.0,685.75 382.125,638.625 391.125,598.375 391.125,564.375 383.75,535.75 371.0,511.875 354.875,492.375 337.375,477.25 320.5,466.625 306.125,460.875 295.375,459.625 288.875,462.625 286.5,468.875 287.75,477.75 291.625,487.875 297.25,498.75 303.875,509.5 311.0,519.625 318.25,528.875"/>
    <polyline points="325.125,537.125 331.75,544.25 338.0,550.375 343.75,555.375 349.125,559.5 354.25,562.75 358.875,565.25 363.25,567.125 371.25,569.25 374.875,569.5 381.625,569.25 384.75,568.625 390.625,566.75 396.0,564.5 400.875,561.75 405.25,558.875 412.75,552.875"/>
    <polyline points="414.25,551.5 417.25,548.625 421.75,543.375 424.25,539.75 425.75,536.375 426.625,533.25 426.375,529.625 425.75,527.875 423.375,524.875"/>
    <polyline points="422.5,524.25 419.5,522.375 416.875,521.375 412.25,520.25 408.625,519.75 399.625,519.875 394.125,520.625 384.375,523.125 376.625,526.0 367.75,530.25 357.625,536.125"/>
    <polyline points="351.875,540.0 345.75,544.375 332.25,555.75 316.75,570.75 308.375,580.0 299.625,590.375 290.75,602.0 281.875,614.75 273.25,628.625 265.5,643.0 258.875,657.75 254.125,672.0 251.875,684.875 252.375,695.625 256.25,703.25 263.375,707.25 273.5,707.0 286.0,702.75 300.375,695.0 315.75,684.25 331.125,671.5 346.25,657.625 360.375,643.375 373.375,629.25"/>
    <polyline points="385.25,615.875 395.75,603.375 413.25,581.625 437.0,551.375 448.375,537.75 459.0,527.375 465.0,523.125 470.0,520.75 477.0,519.0"/>
    <polyline points="478.25,518.875 486.0,518.625 495.625,519.0 496.625,518.5 494.875,517.0 487.0,513.25 478.125,509.75 466.75,505.875"/>
    <polyline points="464.375,505.125 457.0,503.125 448.25,501.5 441.875,501.375 440.0,502.0 439.375,502.5 439.0,504.25 440.625,506.625 442.625,508.25 446.625,510.625"/>
    <polyline points="448.125,511.375 451.375,512.875 456.75,514.75 464.25,516.75 471.625,518.25 491.25,520.75"/>
    <polyline points="492.75,521.0 501.75,522.0 516.75,524.375"/>
    <polyline points="517.125,524.375 517.875,524.375 517.75,523.875 509.375,519.375 492.875,511.875 475.125,504.5"/>
    <polyline points="469.875,502.375 446.625,494.25 440.75,492.5 429.375,489.75 424.25,488.875 415.375,488.25 411.875,488.5 409.125,489.125 407.0,490.125 405.625,491.5 405.0,493.25 405.0,495.125 405.5,497.125 406.625,499.375 410.25,503.75 412.5,505.875 417.875,510.0 423.75,513.5"/>
    <polyline points="426.875,515.0 430.0,516.375 439.25,519.5 445.25,520.875 453.625,522.125 465.875,522.625 477.875,521.875 486.0,520.875"/>
    <polyline points="487.375,520.625 503.25,518.625 510.25,518.5"/>
    <polyline points="510.75,518.5 517.25,519.375 523.625,521.625"/>
    <line x1="524.125" x2="538.75" y1="521.75" y2="528.875"/>
    <polyline points="539.375,529.25 548.375,533.75 544.0,531.375"/>
    <polyline points="542.25,530.5 515.5,516.875 500.5,509.625 469.875,495.5 444.25,484.75 430.5,479.5 416.5,474.5 402.75,470.25 389.75,467.0 378.125,464.875 368.25,464.375 360.375,465.25 354.875,467.625 351.5,471.375 350.25,476.0 350.75,481.5"/>
    <polyline points="352.875,487.375 356.0,493.5 359.875,499.5 369.25,510.5 379.25,519.5 384.25,523.25 393.625,529.0 398.0,531.125 406.0,534.25 413.25,535.875 416.5,536.25 422.375,536.375 427.5,535.75 434.0,534.0 439.125,531.625"/>
    <polyline points="440.5,530.75 444.125,528.125 446.0,526.25 447.5,524.25 449.0,521.5 449.75,518.625 449.875,515.75 449.375,512.875 448.25,510.125 446.5,507.125"/>
    <polyline points="445.875,506.125 439.5,498.75 421.375,480.625 416.625,474.75 413.5,470.25"/>
    <polyline points="412.125,467.625 410.75,464.875 408.375,458.625 406.875,450.875 406.5,446.375 406.625,441.375 408.625,429.0 410.875,421.5 414.25,412.875 418.875,402.75 425.25,391.125 433.875,377.5 445.125,361.625 459.75,343.375 478.375,322.5 501.625,299.125 530.0,274.0 563.625,248.625 601.625,225.125 642.125,207.25 681.875,198.75 716.875,202.75 744.0,220.5"/>
    <polyline points="761.125,250.375 768.875,288.375 769.0,330.0 764.25,371.25 757.0,409.375 749.0,442.875 741.125,471.25 734.0,494.75 727.75,513.875 722.25,529.0 717.375,540.75 712.875,549.5 708.5,555.875 704.0,560.125 699.25,562.625 694.25,563.5 688.75,563.125 682.875,561.625 676.625,559.25 670.125,556.125 663.25,552.5 649.375,544.375 628.75,531.625"/>
    <polyline points="622.375,527.75 610.25,520.5 594.375,511.875 585.375,507.5 577.375,504.25 567.125,501.0 561.25,499.625 556.125,498.875 549.375,498.375 543.625,498.375 538.75,498.875"/>
    <polyline points="537.25,499.0 519.5,502.0 514.25,502.5"/>
    <polyline points="513.625,502.5 508.5,502.25 504.375,501.125 501.625,499.875"/>
    <polyline points="501.25,499.625 497.0,497.0 493.5,494.125 488.75,489.0"/>
    <polyline points="488.25,488.375 484.375,482.75 481.875,477.5 480.625,473.875 479.375,468.0 479.125,464.625 479.5,456.625"/>
    <polyline points="479.875,454.375 481.75,446.75 485.375,437.875 489.0,431.0 493.75,423.5 499.875,415.375 503.625,411.0 507.625,406.625 517.125,397.5 528.25,388.5 534.5,384.25 547.75,376.75 554.625,373.75 561.625,371.375 568.5,369.875 575.25,369.125"/>
    <polyline points="581.625,369.375 587.5,370.625 592.75,372.875 597.375,376.25 601.25,380.375 604.25,385.5 606.5,391.25 607.875,397.5 608.625,404.25 608.625,411.125 608.0,418.125 606.875,425.125 605.25,432.0 603.375,438.625 601.125,444.875 596.25,456.375 590.875,466.375 585.375,474.875 580.0,481.875 572.5,490.125"/>
    <polyline points="570.125,492.375 563.5,497.875 556.0,503.125 547.125,508.25 536.25,513.625"/>
    <polyline points="535.625,514.0 533.75,515.125 531.375,517.25 530.875,518.5 531.25,520.5"/>
    <polyline points="531.375,520.75 533.125,523.0 534.875,524.5 540.625,528.375"/>
    <polyline points="541.25,528.75 546.75,532.125 552.875,535.375 552.5,535.125"/>
    <polyline points="552.0,534.875 527.125,521.875 505.625,511.125 473.0,495.875 445.125,483.75 414.25,472.0 398.875,467.125 384.375,463.25 371.375,460.875 360.375,460.125 351.75,461.25"/>
    <polyline points="345.75,464.125 342.375,468.375 341.375,473.875 342.25,480.25 344.875,487.0 348.5,493.875 353.0,500.625 358.0,507.0 363.25,512.75 368.625,518.0 373.875,522.625 379.0,526.625 383.875,529.875 388.5,532.75 397.0,536.625 404.625,539.0 411.125,539.875 414.125,540.0 419.375,539.625 421.75,539.25 425.875,538.0"/>
    <polyline points="427.75,537.25 432.5,534.75 436.0,532.0 438.5,529.0 440.125,526.125 441.0,522.25 440.75,519.5 439.875,516.625 438.25,514.0"/>
    <polyline points="437.5,513.0 435.0,510.375 431.75,507.625 427.875,505.0 421.5,501.5 415.75,499.0 406.5,496.0 398.375,494.125 392.125,493.25"/>
    <polyline points="388.625,493.0 381.125,492.875 377.0,493.125 367.75,494.375 356.875,497.25 350.625,499.5 343.75,502.375 336.125,506.25 327.75,511.25 318.125,517.625 307.5,525.75 295.375,536.0 281.625,548.875 266.125,565.0 248.75,585.0 229.75,609.625 209.375,639.0 188.875,673.25 170.25,711.125 156.125,750.0 150.25,785.5 155.625,812.125 173.75,824.5"/>
    <polyline points="202.875,820.5 238.875,801.125 276.75,771.0 312.125,735.125 342.375,698.25 366.375,663.25 384.25,631.625 396.375,604.0 403.625,580.25 406.875,560.25 406.875,543.25 404.375,529.125 400.0,517.375 394.5,507.75 388.5,500.125 382.375,494.375 376.625,490.375 371.75,487.875 367.875,487.0 365.25,487.25 364.0,488.75 363.875,491.125 364.875,494.125 366.875,497.625 373.125,505.125"/>
    <polyline points="377.0,508.75 381.125,512.375 385.625,515.625 390.0,518.625 394.5,521.25 403.375,525.5 407.625,527.125 415.625,529.5 426.375,531.125 432.75,531.25 438.5,530.75 443.5,530.0 448.0,528.875 452.0,527.625 457.125,525.375"/>
    <polyline points="458.625,524.625 465.5,520.125 469.125,516.25 470.75,513.25 471.5,511.0 471.75,508.0 471.375,505.625"/>
    <polyline points="471.25,504.875 469.875,500.625 461.5,484.375 458.5,476.375"/>
    <polyline points="457.875,474.625 456.625,468.375 456.125,463.625 456.5,455.125 457.5,448.375 459.75,440.5 463.375,431.25 465.875,426.0 472.625,414.25 482.375,400.5 488.5,392.875 495.625,384.75 503.875,376.25 513.25,367.5 523.75,358.5 535.375,349.625"/>
    <polyline points="548.0,341.25 561.5,333.625 575.625,327.25 589.75,322.625 603.625,320.25 616.5,320.5 628.125,323.625 638.0,329.5 645.875,338.125 651.5,348.875 655.0,361.5 656.5,375.25 656.375,389.5 654.875,403.75 652.375,417.5 649.125,430.625 645.375,442.75 641.25,453.875 637.125,463.875 632.875,472.75 628.75,480.625 620.875,493.375 617.125,498.5 610.125,506.75"/>
    <polyline points="607.0,510.0 598.5,517.125 591.25,521.625 585.375,524.375 572.125,528.75 568.125,530.625"/>
    <polyline points="567.75,530.875 566.375,532.5 566.25,533.625 566.625,534.875 568.625,537.5 573.5,541.5"/>
    <polyline points="574.25,542.0 579.375,545.25 587.375,549.375 584.625,547.375 576.75,542.625"/>
    <polyline points="572.25,540.0 538.0,520.875 505.875,503.875 484.75,493.125 460.0,480.875 431.875,467.5 401.125,454.0 369.5,441.5 338.875,431.375 312.0,425.25 291.0,424.125 277.0,428.5 270.0,437.625 269.0,450.375 272.375,465.25 278.625,480.875 286.125,496.375 294.125,510.875 302.0,524.125 309.125,535.875 321.5,555.0"/>
    <polyline points="326.75,562.5 335.375,574.125 342.625,581.875 346.0,584.625 349.125,586.625 352.125,588.0 355.25,589.0 358.25,589.375 364.125,589.0 367.125,588.25 376.25,584.625 382.125,581.125 390.75,575.375 403.75,564.875"/>
    <polyline points="406.125,562.875 418.125,551.625 426.5,542.25 430.25,536.875 431.5,534.5 432.5,532.125 433.25,529.0 433.25,527.0"/>
    <polyline points="433.25,526.0 432.0,522.375 430.25,519.875 427.75,517.5 424.375,515.375 418.5,512.875 413.0,511.375 406.5,510.5 401.25,510.25"/>
    <polyline points="398.5,510.375 392.25,510.875 385.125,512.125 377.0,514.375 372.375,516.0 362.125,520.5 350.125,527.25 343.25,531.75 335.75,537.25 327.625,543.75 318.75,551.5 309.0,560.625 298.625,571.5 287.375,584.25 275.625,598.875 263.5,615.625 251.375,634.375 240.0,654.75 230.125,675.875 222.875,696.75 219.375,715.75"/>
    <polyline points="220.625,731.25 227.375,741.25 239.375,744.75 255.875,741.25 275.625,731.5 297.0,716.5 318.375,698.125 338.625,678.125 357.0,657.625 373.125,638.0 387.0,619.75 398.5,603.125 408.125,588.375 415.75,575.625 422.0,564.5 426.875,554.875 430.75,546.75 436.0,534.125 439.0,525.25 442.0,513.625"/>
    <polyline points="442.375,512.5 443.625,510.625 444.25,510.375 446.5,510.5 460.375,514.625 471.375,517.0"/>
    <polyline points="472.875,517.375 484.625,519.25 503.375,521.625"/>
    <polyline points="504.125,521.75 508.25,522.0 508.75,521.625 508.375,521.125 505.375,519.375 496.375,515.125"/>
    <polyline points="494.125,514.125 483.0,509.375 468.25,503.75 451.375,498.25 443.0,496.125 435.375,494.75 429.0,494.125 426.375,494.25 422.375,495.125 421.125,496.0 420.375,496.875 420.0,498.125 420.125,499.375"/>
    <polyline points="420.5,500.75 421.375,502.25 424.125,505.25 429.875,509.625 437.0,513.375 442.125,515.375 449.875,517.75 457.375,519.375 466.875,520.625 475.375,521.125"/>
    <polyline points="477.375,521.25 499.875,521.625 512.375,522.75"/>
    <polyline points="513.375,522.875 520.0,524.25 524.375,525.5 534.0,528.875"/>
    <polyline points="534.625,529.125 537.75,530.25 537.25,529.75 528.625,525.25 505.625,514.125"/>
    <polyline points="499.625,511.25 485.125,504.625 457.875,493.125 447.625,489.0 426.25,481.5 415.625,478.375 405.625,475.875 396.5,474.125 388.375,473.375 381.625,473.625 376.5,474.875 372.875,477.0 370.75,479.875 370.125,483.5 370.625,487.5 372.375,491.875 374.875,496.375 378.0,500.75 381.75,504.875 385.75,508.875 394.25,515.75"/>
    <polyline points="398.625,518.625 407.0,523.25 415.0,526.5 422.375,528.5 432.25,529.75 437.875,529.625 443.0,529.125 449.5,527.75 455.0,525.875 459.375,523.75 462.875,521.5"/>
    <polyline points="463.875,520.75 466.5,518.375 468.375,516.125 470.25,512.375 470.625,510.875 470.75,507.75 470.375,505.375 469.0,501.125"/>
    <polyline points="468.625,500.25 461.25,486.125 458.625,480.25 455.875,471.0 455.0,464.0"/>
    <polyline points="454.875,461.375 455.125,455.5 455.625,452.125 457.125,444.875 458.375,440.75 462.0,431.375 464.5,426.125 467.5,420.375 471.25,414.125 481.0,400.125 487.25,392.375 494.5,384.125 502.875,375.375 512.5,366.25 523.25,357.125 535.25,347.875 548.25,339.125 562.125,331.25 576.625,324.625 591.25,319.875 605.5,317.5 618.875,317.75"/>
    <polyline points="630.875,321.125 640.875,327.375 648.75,336.5 654.375,347.875 657.875,361.0 659.25,375.25 658.875,390.0 657.25,404.75 654.5,418.875 651.125,432.25 647.125,444.625 643.0,455.875 638.75,465.875 634.375,474.875 630.25,482.625 626.125,489.5 622.25,495.375 614.875,504.875 611.625,508.625 605.375,514.5 599.875,518.75 595.0,521.75"/>
    <polyline points="592.75,522.875 583.375,526.75 571.375,530.375 569.625,531.25 568.25,532.5 567.875,533.25"/>
    <polyline points="567.875,533.5 567.875,534.625 568.375,535.875 571.25,539.125 577.0,543.375 580.5,545.5"/>
    <polyline points="581.5,546.125 586.125,548.75 590.25,550.625 586.25,547.75 570.375,538.375 527.625,514.75"/>
    <polyline points="509.75,505.25 462.75,481.375 433.5,467.375 401.375,453.0 368.0,439.625 335.75,428.75 307.375,422.0 285.125,420.875 270.625,425.5 263.5,435.25 262.875,448.875 266.75,464.75 273.375,481.375 281.375,497.75 289.625,513.0 311.125,550.0 321.875,567.125 330.375,579.25 337.5,587.5 340.875,590.375"/>
    <polyline points="344.0,592.375 347.25,593.875 350.5,594.75 353.75,595.125 357.0,594.875 360.375,594.375 363.75,593.375 367.125,592.125 374.0,588.75 384.25,582.375 397.125,572.75 411.25,560.875 420.375,552.5"/>
    <polyline points="422.5,550.625 431.0,542.0 434.875,537.5 437.875,533.5 439.375,531.0 440.625,528.625 442.0,524.25 442.125,521.25 441.625,518.25"/>
    <polyline points="441.375,517.375 440.0,514.5 438.0,511.75 433.125,507.125 429.375,504.375 424.875,501.625 417.625,498.0 408.875,494.625"/>
    <polyline points="406.5,493.75 395.375,490.875 385.25,489.5 381.5,489.25 373.25,489.375 363.625,490.625 358.125,491.75 345.625,495.75 338.375,498.875 330.375,503.0 321.375,508.375 311.125,515.375 299.5,524.375 286.25,535.875 271.125,550.5 253.875,569.0 234.5,592.125 213.125,620.75"/>
    <polyline points="190.5,655.125 168.25,695.0 149.0,738.25 136.875,780.875 136.25,816.75 150.0,838.75 177.875,842.0 216.125,826.375 258.25,795.875 298.625,757.0 333.375,715.625 360.75,676.0 380.625,640.125 393.625,608.75 400.75,582.0 402.875,559.375 401.125,540.25 396.5,524.375 389.75,511.125 381.75,500.5 373.375,492.25 365.25,486.375 358.125,482.625 352.375,481.0 348.375,481.125 346.0,483.0"/>
    <polyline points="345.5,486.125 346.5,490.125 348.875,494.875 352.125,499.875 356.25,505.0 360.875,510.0 370.875,518.875 376.125,522.75 386.125,528.875 390.875,531.25 399.875,534.75 408.0,536.75 411.625,537.25 418.5,537.625 421.625,537.5 429.75,536.25 436.5,534.125"/>
    <polyline points="438.375,533.25 441.875,531.5 446.125,528.75 449.375,525.875 451.875,523.0 453.875,519.25 454.625,516.375 454.75,513.625 454.0,509.875"/>
    <polyline points="453.625,508.875 450.5,502.875 448.25,499.625 435.75,483.625 431.125,476.0"/>
    <polyline points="430.0,473.875 428.0,469.0 426.25,463.5 425.625,460.25 425.0,453.125 425.5,444.25 426.375,439.125 427.875,433.375 430.0,427.0 432.875,419.625 436.75,411.5 441.75,402.125 448.375,391.625 456.625,379.75 467.0,366.375 479.875,351.5 495.5,335.125 514.25,317.625 536.25,299.375 561.25,281.625 588.75,265.5 617.625,253.0"/>
    <polyline points="646.25,246.125 672.625,246.5 694.625,255.25 711.125,271.875 721.625,295.125 726.375,322.75 726.5,352.25 723.375,381.625 718.25,409.375 712.0,434.5 705.5,456.5 699.25,475.375 693.125,491.375 687.625,504.625 682.5,515.375 677.75,524.125 673.375,531.0 669.375,536.375 665.375,540.375 661.625,543.375 657.875,545.375 654.25,546.625 650.625,547.375 647.0,547.5 639.625,546.5"/>
    <polyline points="636.0,545.625 628.75,543.375 604.875,533.625 588.0,527.5 579.0,525.0 573.25,523.875 568.5,523.375"/>
    <polyline points="567.0,523.25 561.125,523.25 556.875,524.0 553.5,525.75 552.75,526.625 552.5,528.375"/>
    <polyline points="552.625,528.625 553.25,530.125 555.375,532.625 559.75,536.125 564.375,539.125"/>
    <polyline points="565.0,539.5 568.5,541.5 560.625,536.875 536.375,523.75 491.5,501.0"/>
    <polyline points="475.25,493.125 456.875,484.5 436.75,475.625 415.25,466.625 393.25,458.375 371.875,451.5 352.25,446.75 335.75,444.75 323.125,445.75 314.625,449.75 310.25,456.25 309.625,464.75 311.625,474.5 315.875,484.75 321.375,495.0 327.5,504.75 333.875,513.75 346.5,528.875 352.25,535.0 362.75,544.5 367.375,548.0 375.5,553.0 379.125,554.625"/>
    <polyline points="382.375,555.875 388.25,557.125 393.25,557.25 395.5,557.0 399.5,556.0 402.875,554.5 408.25,551.0 411.875,547.125 414.0,543.375 414.625,540.125"/>
    <polyline points="414.5,539.375 414.125,538.0 412.75,536.125 410.5,534.75 406.125,533.625 401.625,533.5 396.0,534.25 389.125,536.125 383.75,538.125 377.75,540.875"/>
    <polyline points="374.375,542.75 363.125,549.75 354.625,556.25 350.0,560.0 345.25,564.375 335.125,574.5 329.75,580.25 319.125,593.5 309.0,608.375 304.5,616.25 300.5,624.25 297.25,632.0 295.0,639.375 293.875,646.125 294.125,651.75 295.75,656.25 298.875,659.125 303.375,660.375 309.25,659.875 316.25,657.75"/>
    <polyline points="324.25,654.0 332.75,648.875 341.75,642.625 350.875,635.5 360.0,627.875 377.625,612.0 419.625,570.5 435.0,556.125 443.5,548.75 454.375,540.25 460.625,536.125 468.875,531.375"/>
    <polyline points="471.375,530.125 480.125,526.5 490.875,523.5 500.875,522.25 506.75,522.125 510.0,522.375"/>
    <polyline points="511.0,522.5 514.0,522.75 520.375,524.0 528.5,526.5 532.25,528.0"/>
    <polyline points="533.0,528.25 539.625,530.875 536.125,528.75 528.5,524.875"/>
    <polyline points="525.625,523.5 508.25,515.0 479.0,501.5 448.75,489.0 426.375,480.875 415.25,477.5 404.625,474.75 394.875,472.875 386.25,471.875 379.125,472.0 373.5,473.25 369.625,475.5 367.375,478.625 366.625,482.375 367.25,486.625 369.0,491.25 371.625,495.875"/>
    <polyline points="375.0,500.5 378.875,505.0 383.0,509.125 387.375,513.0 391.75,516.375 400.625,522.0 409.0,526.0 413.0,527.5 416.75,528.625 423.875,530.125 430.25,530.75 433.125,530.75 438.5,530.375 443.25,529.625 449.25,527.875 454.25,525.75"/>
    <polyline points="455.625,525.0 460.375,521.875 462.125,520.25 464.25,517.875 465.75,515.375 466.875,512.125 467.125,509.75 466.25,504.625"/>
    <polyline points="465.875,503.75 465.25,501.875 462.875,497.0 455.375,483.25 452.625,476.5 450.875,470.25"/>
    <polyline points="450.5,467.875 449.875,462.75 449.875,456.875 450.75,449.875 452.5,441.75 454.0,437.25 458.375,426.625 461.375,420.625 469.75,406.875 475.25,399.125 481.75,390.75 489.5,381.625 498.5,371.875 508.875,361.75 520.75,351.375 534.0,340.875 548.75,330.75 564.5,321.625 581.0,313.875 597.625,308.375"/>
    <polyline points="613.875,305.75 628.875,306.375 642.125,310.75 653.125,318.625 661.375,329.75 666.875,343.625 669.75,359.125 670.5,375.875 669.25,392.75 666.75,409.25 663.25,424.875 659.125,439.375 654.625,452.5 650.0,464.125 645.375,474.5 636.5,491.375 628.25,503.625 621.0,512.625 617.625,516.0 611.5,521.25 606.125,524.75"/>
    <polyline points="603.625,526.125 595.0,529.5 589.625,530.75 577.875,532.75 575.875,533.375 573.75,534.75"/>
    <polyline points="573.625,535.0 573.25,535.625 573.25,536.75 574.75,539.25 578.625,542.75 584.75,546.875"/>
    <polyline points="585.75,547.5 597.125,553.75 601.125,555.625 602.5,556.125 603.0,556.0 602.125,555.125 596.125,551.125 586.875,545.5"/>
    <polyline points="579.75,541.375 543.0,520.375 499.125,496.625 469.5,481.25 434.625,464.0 395.375,445.75 354.0,428.375 314.0,414.5 279.5,406.5 254.125,406.375 239.25,414.25 234.125,428.75 236.375,447.625 243.375,468.5 252.375,489.75 278.5,544.875 303.625,600.75"/>
    <polyline points="307.375,607.25 311.0,612.625 314.875,616.625 319.125,619.5 323.625,621.25 328.375,621.875 333.625,621.5 339.0,620.25 344.75,618.25 350.625,615.5 362.75,608.375 374.75,599.875 391.75,586.5 431.25,553.0"/>
    <polyline points="434.625,550.25 451.5,537.375 472.25,522.875 479.0,517.625"/>
    <polyline points="479.75,517.0 483.125,513.5 484.875,510.125 485.375,506.375 484.625,503.125"/>
    <polyline points="484.375,502.5 483.0,499.375 475.5,486.375 473.375,481.75"/>
    <polyline points="472.875,480.5 471.375,476.375 469.875,469.75 469.375,463.75 469.75,456.625 471.5,448.125 473.625,441.375 479.0,429.625 484.5,420.5 492.0,410.25"/>
    <polyline points="496.5,404.625 507.375,392.875 521.0,380.5 528.75,374.5 537.125,368.625 546.125,363.125 555.5,358.25 565.0,354.25 574.625,351.25 584.125,349.625 593.0,349.375 601.375,350.75 608.75,353.75 615.0,358.375 620.125,364.5 623.875,371.875 626.5,380.25 627.875,389.25 628.25,398.75 627.625,408.5 626.25,418.125 624.125,427.5 621.75,436.375 618.875,444.75"/>
    <polyline points="615.75,452.625 609.25,466.375 602.625,477.625 599.375,482.5 590.125,494.0 582.0,502.0 574.875,507.5 567.125,512.5 557.25,517.5"/>
    <polyline points="556.125,518.0 551.75,520.25 548.125,522.75 547.25,524.125 546.875,525.5 547.375,527.375"/>
    <polyline points="547.625,527.75 549.0,529.625 552.75,532.875 560.125,537.625"/>
    <polyline points="560.75,538.0 563.0,539.25 537.5,525.375 513.125,512.875 474.125,494.0"/>
    <polyline points="457.625,486.375 439.625,478.5 420.375,470.625 400.875,463.375 381.75,457.25 364.0,452.75 348.625,450.5 336.5,450.75 327.75,453.625 322.75,458.625 320.875,465.5 321.75,473.625 324.75,482.5 329.25,491.5 334.625,500.25 340.5,508.5 346.625,516.0 352.5,522.625 363.75,533.375 369.0,537.625 373.75,541.0 378.25,543.75 382.375,546.0 389.625,548.875"/>
    <polyline points="392.875,549.625 398.75,550.25 403.625,550.0 407.875,549.0 413.0,546.875 417.875,543.25 421.0,539.375 422.375,535.625 422.25,532.375"/>
    <polyline points="422.0,531.5 420.625,529.375 419.25,528.125 415.25,526.0 409.625,524.75 406.0,524.5 397.25,525.125 391.875,526.25 382.375,529.25 378.75,530.75"/>
    <polyline points="374.875,532.5 361.625,540.0 351.125,547.25 345.5,551.75 332.875,562.875 319.0,577.25 311.625,585.75 304.125,595.125 296.625,605.375 289.375,616.5 282.5,628.125 276.5,640.125 271.75,651.875 268.5,663.125 267.25,673.125 268.375,681.25 271.875,686.875 278.0,689.75 286.25,689.5 296.625,686.25 308.25,680.25"/>
    <polyline points="320.875,672.0 333.75,662.0 346.625,650.875 359.0,639.25 370.75,627.5 391.5,605.25 428.625,563.25 438.875,552.125 447.25,543.625 457.625,534.75 463.25,530.75 470.625,526.625 474.875,524.875"/>
    <polyline points="476.875,524.25 484.0,522.5 488.625,521.875 497.875,521.75 508.125,522.625"/>
    <polyline points="508.75,522.75 511.5,522.875 511.875,522.375 506.875,519.375 492.5,512.875"/>
    <polyline points="489.5,511.5 470.25,503.875 451.375,497.375 437.375,493.75 429.125,492.5 425.5,492.125 419.875,492.5 417.75,493.125 416.25,494.0 415.25,495.125 414.875,497.875 415.375,499.5 417.625,503.0"/>
    <polyline points="419.375,504.75 423.375,508.125 428.25,511.125 433.5,513.875 441.75,517.0 450.0,519.125 457.75,520.5 469.625,521.5 479.75,521.625"/>
    <polyline points="481.5,521.5 504.0,521.125 513.0,521.875"/>
    <polyline points="513.875,522.0 522.25,523.875 533.625,528.0"/>
    <polyline points="534.25,528.25 542.125,531.625 535.125,527.875"/>
    <polyline points="533.0,526.75 514.25,517.375 486.0,504.125 455.625,491.0 432.125,482.0 420.0,478.0 408.375,474.5 397.25,471.875 387.375,470.25 378.875,469.75 372.0,470.375 366.875,472.25 363.625,475.125 362.125,478.875 362.25,483.375 363.5,488.125"/>
    <polyline points="366.0,493.25 369.25,498.25 373.125,503.125 377.25,507.75 381.75,512.0 386.375,515.75 395.5,522.125 400.0,524.625 408.375,528.375 412.25,529.625 419.5,531.375 429.0,532.25 434.5,531.875 439.25,531.0 445.375,529.25 448.75,527.75"/>
    <polyline points="450.25,527.0 454.125,524.625 456.25,522.875 459.375,519.5 460.875,516.875 461.75,514.25 462.0,512.5 461.75,508.125 460.875,505.375"/>
    <polyline points="460.5,504.375 457.5,498.375 451.5,488.75 447.25,481.0 444.125,473.125 442.875,468.5"/>
    <polyline points="442.375,465.875 441.75,460.125 441.875,453.375 443.0,445.25 444.125,440.75 447.625,430.125 450.25,424.0 453.625,417.25 457.875,409.75 463.125,401.5 469.625,392.375 477.375,382.375 486.625,371.5 497.625,359.875 510.5,347.5 525.375,334.75 542.0,322.125 560.375,310.125 580.125,299.625 600.375,291.625 620.375,287.0 639.125,286.75"/>
    <polyline points="655.75,291.125 669.125,300.5 679.125,314.125 685.375,331.25 688.375,350.75 688.5,371.25 686.5,391.75 683.0,411.5 678.5,429.75 673.5,446.375 668.375,461.125 663.125,474.125 658.125,485.25 648.75,502.625 640.375,515.0 636.625,519.5 633.0,523.25 626.5,528.75 620.625,532.125 612.875,534.75"/>
    <polyline points="610.5,535.25 600.0,535.75 582.5,534.75 580.125,535.0 578.0,535.625"/>
    <polyline points="577.625,535.875 576.75,536.625 576.5,537.875 576.875,539.0 578.125,540.75 582.375,544.375 585.875,546.75"/>
    <polyline points="586.875,547.375 593.75,551.5 608.875,559.25 612.5,560.75 614.5,561.25 614.25,560.625"/>
  </g>
</svg>
