<?xml version="1.0" encoding="utf-8" ?>
<svg xmlns="http://www.w3.org/2000/svg" xmlns:cc="http://creativecommons.org/ns" xmlns:dc="http://purl.org/dc/elements/1.1/" xmlns:ev="http://www.w3.org/2001/xml-events" xmlns:inkscape="http://www.inkscape.org/namespaces/inkscape" xmlns:rdf="http://www.w3.org/1999/02/22-rdf-syntax-ns" xmlns:sodipodi="http://sodipodi.sourceforge.net/DTD/sodipodi-0.dtd" xmlns:xlink="http://www.w3.org/1999/xlink" baseProfile="tiny" height="27.09333333cm" version="1.2" viewBox="0 0 1024.0 1024.0" width="27.09333333cm">
  <metadata>
    <rdf:RDF>
      <cc:Work>
        <dc:format>image/svg+xml</dc:format>
        <dc:source>vpype read './original_svgs/Strange Attractors #184.svg' linemerge linesimplify write './Strange Attractors #184.svg'
</dc:source>
        <dc:date>2024-08-05T01:35:35.694536</dc:date>
      </cc:Work>
    </rdf:RDF>
  </metadata>
  <defs/>
  <g fill="none" id="layer1" inkscape:groupmode="layer" inkscape:label="1" stroke="black" stroke-width="0.7mm" style="display:inline">
    <polyline points="445.25,620.5 435.75,602.0 417.5,582.625 390.0,560.0 352.125,532.25 303.0,497.25 243.125,454.0 175.75,403.375 109.625,350.875 58.25,306.5 34.25,281.75 41.0,282.625 70.25,306.125 108.625,343.5 145.0,386.125 173.75,428.25 192.875,467.625 203.0,503.25 206.0,535.625 204.0,564.75 199.375,590.625 194.125,612.875 190.625,630.875 190.25,643.875 194.125,651.375 202.125,653.25"/>
    <polyline points="213.75,650.0 228.0,642.5 243.75,632.125 259.875,619.75 275.375,606.625 289.875,593.5 303.0,580.875 314.625,569.125 333.5,549.0 362.125,517.5 365.875,513.75 372.375,508.125 378.0,504.5 383.25,502.25 388.125,501.125 393.0,500.875"/>
    <polyline points="395.375,501.0 402.5,501.875 409.625,503.375 425.0,507.75 445.375,514.5"/>
    <polyline points="446.625,515.0 453.625,518.125 456.625,520.125 457.5,521.125 457.75,522.0 456.875,522.875 455.25,523.125"/>
    <polyline points="454.375,523.25 448.875,522.625 441.875,520.875 434.875,518.625 426.25,515.375 412.125,509.125 399.75,503.0 386.5,496.0"/>
    <polyline points="382.125,493.625 366.375,484.5 358.25,479.375 354.75,476.75 358.125,478.125 376.0,487.125 387.75,492.625 395.75,496.0"/>
    <polyline points="399.75,497.625 411.375,502.125 429.0,507.75 449.0,512.875 469.25,517.25"/>
    <polyline points="470.875,517.625 478.75,519.625 484.625,521.875 488.625,524.125 490.125,525.375 491.5,527.125"/>
    <polyline points="491.75,527.625 492.5,530.875 491.75,533.375 490.25,535.25 486.75,537.25 482.375,538.25"/>
    <polyline points="480.875,538.375 473.5,538.25 468.625,537.5 459.0,535.25 446.125,530.875 428.875,523.875 414.5,517.125 388.375,503.375 368.25,491.875 347.125,479.25 336.875,472.75"/>
    <polyline points="327.125,466.5 304.875,451.375 298.0,446.25 342.125,475.375 364.625,488.625 378.375,495.75 390.875,501.5 407.375,507.375 412.375,508.625"/>
    <polyline points="417.0,509.75 421.375,510.75 433.25,512.25 440.125,512.625 449.25,512.375 459.375,511.125 467.75,509.125 473.0,507.5 480.125,504.25"/>
    <polyline points="481.375,503.5 484.875,501.375 487.875,499.125 493.0,494.0 497.125,488.25 501.5,480.0"/>
    <polyline points="502.125,478.75 506.375,469.75 511.25,460.5 515.125,453.875 520.375,446.125 530.375,433.5 537.375,425.875 546.25,417.25"/>
    <polyline points="551.375,412.5 557.25,407.375 571.25,396.0 588.75,383.375 599.0,376.75 610.125,369.875 622.25,363.0 635.25,356.375 649.0,350.125 663.0,344.75 677.0,340.625 690.375,338.25 702.625,338.0 713.0,340.25 721.125,345.25 726.375,353.0 728.75,363.375 728.25,375.75 725.125,389.875 719.75,404.875 712.875,420.125 704.875,435.125 696.125,449.5 687.25,462.875"/>
    <polyline points="678.375,475.125 669.875,486.125 661.75,495.75 654.0,504.25 640.25,517.75 628.5,527.5 623.25,531.25 618.375,534.25 609.625,538.875 602.0,541.875 598.5,542.875 589.25,544.875 581.375,545.625 570.375,545.875"/>
    <polyline points="568.5,545.875 558.5,546.125 551.875,546.875 547.5,548.0 543.75,549.5 539.125,552.375"/>
    <polyline points="538.5,553.0 534.75,556.875 528.875,565.0 526.625,567.625 523.75,570.25 520.0,572.5"/>
    <polyline points="518.375,573.125 514.5,574.125 509.25,574.625 502.375,574.125 498.125,573.5 487.125,570.75 480.0,568.375 461.75,561.25 450.0,555.875 436.0,549.0 419.375,540.375 399.75,529.5 376.625,516.125 350.125,499.875 320.125,480.625 287.625,458.875 254.0,435.375 221.875,411.875 194.5,390.75 175.125,375.0 166.0,366.625"/>
    <polyline points="167.375,366.75 177.625,374.625 193.75,388.5 212.875,406.0 232.375,425.0 250.625,444.0 266.75,462.0 280.375,478.375 291.5,492.875 300.5,505.625 307.75,516.625 313.375,526.125 327.0,551.5 329.375,555.375 331.75,558.375 334.125,560.625 336.625,562.25 339.375,563.25 342.375,563.75 349.0,563.125 356.375,561.0"/>
    <polyline points="360.375,559.5 373.0,554.0 406.375,537.375 424.5,528.75 449.875,517.375"/>
    <polyline points="452.25,516.25 464.125,510.625 473.375,505.25 477.125,502.625 480.375,499.875 482.375,498.0 486.625,493.0"/>
    <polyline points="487.375,491.875 489.5,488.625 492.625,482.5 501.75,460.875 506.5,451.5"/>
    <polyline points="508.0,448.875 516.125,436.25 525.75,424.375 540.0,409.25 553.5,396.75 561.875,389.75 582.5,373.75 595.125,364.875 609.375,355.5 625.25,345.75 642.875,336.0 661.875,326.5 681.875,318.125 702.0,311.5 721.5,307.625 738.875,307.5 753.0,311.625"/>
    <polyline points="762.75,320.75 767.625,334.375 767.5,352.125 762.875,372.625 754.875,394.625 744.5,417.0 732.875,438.625 720.75,458.75 709.0,476.875 698.0,492.875 687.75,506.75 678.625,518.625 670.375,528.5 663.125,536.75 656.625,543.5 650.875,548.875 645.75,553.125 641.125,556.5 633.0,560.875 629.375,562.25 622.75,563.5 619.75,563.625 614.0,563.125"/>
    <polyline points="611.25,562.625 601.0,559.75 580.875,552.875 569.75,550.25 560.625,549.25"/>
    <polyline points="559.25,549.25 553.25,549.75 547.375,551.5 544.875,552.875 541.375,555.5 538.0,559.625"/>
    <polyline points="537.5,560.375 531.25,571.25 529.875,573.25 526.125,577.125 523.375,578.75 519.875,580.125 517.75,580.625 512.25,581.0"/>
    <polyline points="508.75,580.875 499.875,579.5 487.125,575.875 478.875,573.0 468.875,569.0 456.75,563.625 424.625,547.375 403.5,535.75 378.25,521.0 348.625,502.75 314.625,480.875 277.125,455.5 238.125,427.75 200.75,400.0 169.75,375.5 149.125,358.0 141.625,350.5 146.875,353.5 161.875,365.75 182.625,384.375 205.125,406.375 226.5,429.125 245.375,451.125"/>
    <polyline points="260.875,471.375 273.125,489.5 282.5,505.5 289.25,519.5 294.25,531.625 297.75,542.125 303.875,564.875 305.625,569.875 307.625,573.75 310.125,576.5 313.0,578.25 316.5,579.0 320.5,578.875 325.125,578.0 330.0,576.5 335.375,574.375 346.875,569.0 382.375,549.75"/>
    <polyline points="387.875,546.75 408.25,536.375 421.5,530.375 429.5,527.125 446.5,521.125 460.0,517.125 472.625,514.0"/>
    <polyline points="474.5,513.5 490.75,509.25 496.875,507.0 500.75,504.875"/>
    <polyline points="501.375,504.625 504.75,502.0 506.75,499.875 509.625,495.375 510.75,493.0"/>
    <polyline points="511.0,492.375 515.875,480.25 521.5,468.375"/>
    <polyline points="522.375,466.875 526.125,460.375 531.375,452.75 536.625,446.125 543.5,438.5 549.125,432.875 555.875,426.625 568.5,416.25 578.75,408.75 590.625,401.0"/>
    <polyline points="597.125,397.125 611.25,389.5 626.5,383.0 634.25,380.25 641.875,378.25 649.25,376.875 656.125,376.375 662.5,376.875 667.875,378.5 672.375,381.25 675.625,385.0 677.75,390.0 678.625,395.875 678.25,402.625 676.625,410.0 674.125,417.75 670.625,425.875 666.5,434.0 661.75,442.0 656.625,449.875 645.75,464.25 640.125,470.875 634.5,476.875"/>
    <polyline points="629.125,482.375 618.625,491.75 608.875,499.25 600.0,505.25 591.875,509.75 581.125,514.75 569.125,518.875 557.0,521.75 547.625,523.375"/>
    <polyline points="546.0,523.75 538.875,524.875 530.375,526.875 525.0,528.75 522.0,530.5"/>
    <polyline points="521.5,530.875 517.5,534.0 509.5,542.875"/>
    <polyline points="508.875,543.5 505.875,545.75 500.75,548.25 494.625,549.5 488.125,549.625 482.375,549.0 475.375,547.625 466.5,545.25 448.5,538.75"/>
    <polyline points="440.875,535.5 422.875,527.125 400.375,515.5 387.375,508.375 358.0,491.125 325.625,470.75 294.25,449.875 269.75,432.375 257.125,422.625 265.75,428.75 314.875,466.5 334.875,481.375"/>
    <polyline points="344.0,487.875 360.5,498.625 374.375,506.625 380.5,509.75 386.25,512.25 396.375,515.875 400.875,517.0 405.125,518.0 412.75,519.0 422.375,519.0 433.0,517.25 437.375,516.0 444.875,512.875"/>
    <polyline points="446.375,512.0 452.0,508.5 456.25,504.875 458.625,502.0 459.875,500.0 461.125,497.125 461.875,493.25 461.75,491.25 460.875,488.375"/>
    <polyline points="460.375,487.5 458.375,484.875 456.25,483.375 451.75,481.75 447.625,481.125 442.375,481.25 435.5,482.375 431.375,483.375 421.375,486.75 408.125,492.5 391.0,501.625 380.625,507.75 368.75,515.25 355.375,524.25 340.5,534.875"/>
    <polyline points="324.0,547.375 306.125,561.625 287.125,577.5 268.0,594.75 249.375,612.625 232.875,630.0 219.625,645.75 211.0,658.25 208.0,666.375 210.75,669.375 218.875,667.125 231.0,660.25 245.875,649.75 262.0,636.875 278.125,622.75 293.5,608.375 307.5,594.375 330.875,569.375 348.0,549.25 354.625,541.0 360.25,533.875 372.0,518.0"/>
    <polyline points="374.875,514.25 379.375,508.375 383.0,504.375 386.125,501.75 387.625,500.875 390.75,499.75 395.375,499.375 400.375,500.0 407.5,501.75 418.375,505.25"/>
    <polyline points="420.125,505.875 431.5,509.875 441.75,513.875 444.625,515.125 449.0,517.75"/>
    <polyline points="449.375,518.0 450.0,519.25 449.0,519.875 443.75,519.5 436.5,517.625 428.375,514.75"/>
    <polyline points="426.0,513.875 408.75,506.375 388.75,496.125 374.25,487.875 366.625,482.75 367.375,482.875"/>
    <polyline points="368.25,483.25 386.375,491.5 402.5,498.375 418.5,504.375 438.125,510.5"/>
    <polyline points="440.625,511.25 462.125,517.375 467.625,519.25 472.875,521.5 476.75,523.75"/>
    <polyline points="477.25,524.25 478.75,525.5 479.625,526.875 480.0,528.625 479.375,530.25 478.125,531.375 476.875,532.0 474.125,532.625 470.375,532.875"/>
    <polyline points="468.875,532.75 465.25,532.5 460.875,531.75 449.25,528.625 432.5,522.5 415.875,515.0 402.625,508.5 387.875,500.625 372.125,491.75 356.125,482.25 341.375,473.0"/>
    <polyline points="334.875,468.875 324.75,462.25 318.875,457.875 350.0,476.625 368.75,487.0 380.875,493.125 392.375,498.25 403.125,502.375 417.5,506.875"/>
    <polyline points="421.875,508.0 437.625,511.0 447.5,512.0 456.0,512.375 469.875,511.875 475.5,511.25 484.5,509.75"/>
    <polyline points="485.75,509.5 492.375,507.625 497.375,505.625 500.625,503.75 504.625,500.25"/>
    <polyline points="505.125,499.875 508.125,495.75 509.5,493.25 513.875,483.375"/>
    <polyline points="514.25,482.375 519.375,471.0 525.5,460.25 532.5,450.25 538.375,443.25"/>
    <polyline points="540.75,440.625 549.125,432.0 556.0,425.625 569.0,415.0 579.625,407.375 592.0,399.25 598.75,395.25 613.5,387.5 621.25,384.0 629.25,380.875 637.125,378.25 645.0,376.25 652.5,375.0 659.5,374.75 665.875,375.5 671.25,377.5 675.5,380.5 678.625,384.875"/>
    <polyline points="680.375,390.25 680.875,396.625 680.0,403.75 678.125,411.625 675.125,419.75 671.25,428.125 666.75,436.625 661.75,444.75 656.375,452.75 650.75,460.25 639.375,473.75 633.75,479.75 628.125,485.125 617.625,494.375 607.875,501.75 603.375,504.75 594.875,509.75 587.25,513.625 577.125,517.625"/>
    <polyline points="574.125,518.625 568.5,520.375 556.625,523.125 541.375,525.625 531.375,527.875"/>
    <polyline points="530.375,528.125 525.75,529.875 522.0,532.0 519.375,534.0 515.625,537.875"/>
    <polyline points="515.125,538.375 510.5,543.375 508.5,545.125 505.125,547.25 501.875,548.75 499.125,549.5 495.75,550.125 491.75,550.375"/>
    <polyline points="489.375,550.25 483.875,549.75 477.0,548.5 468.25,546.25 457.125,542.5 434.5,533.0 425.125,528.625 402.625,517.125 375.25,501.75 359.875,492.625 327.0,472.0 310.375,461.125 280.5,440.5 268.75,432.125 255.5,422.0"/>
    <polyline points="254.5,421.0 270.75,433.0 312.625,465.5 333.0,480.875 350.875,493.5 366.125,503.125 379.0,510.0 390.0,514.75 394.875,516.375 403.5,518.625 407.5,519.25 414.5,519.75 420.75,519.625"/>
    <polyline points="423.625,519.375 428.875,518.5 435.625,516.625 441.25,514.375 447.5,511.0 451.125,508.375 454.125,505.625 457.125,501.875 458.5,499.0"/>
    <polyline points="458.75,498.125 459.25,494.375 458.75,491.625 457.875,489.875 454.625,486.875 450.625,485.25 446.875,484.625 442.125,484.625 439.25,485.0 432.25,486.375 423.375,489.125"/>
    <polyline points="418.0,491.25 411.75,493.875 397.0,501.375 388.0,506.375 366.5,519.75 339.75,538.5 324.375,550.25 308.0,563.375 290.875,578.0 273.625,593.5 257.25,609.375 242.625,624.625 231.0,638.375 223.375,649.5 220.625,656.75 222.75,659.625 229.5,658.125 239.875,652.625 252.875,643.875 267.25,632.75 282.0,620.5 296.5,607.625 309.875,595.0"/>
    <polyline points="322.25,583.125 342.875,562.0 379.125,523.25 388.5,514.0 395.375,508.75 400.75,506.0 404.0,505.125 407.0,504.75 412.625,505.125"/>
    <polyline points="414.0,505.375 419.125,506.5 427.375,509.125 434.375,512.0 437.5,513.75"/>
    <polyline points="429.5,513.625 436.125,515.5 438.25,515.875 440.25,515.75 440.125,515.25 439.25,514.5 437.75,513.875 438.5,514.5 438.5,515.0 436.75,515.125 434.0,514.625 423.0,511.0"/>
    <polyline points="421.375,510.25 412.125,506.375 397.875,499.375 387.875,493.875 384.375,491.625 383.875,491.0"/>
    <polyline points="384.125,491.0 414.5,503.125 429.25,508.5"/>
    <polyline points="431.25,509.125 448.75,515.5 456.375,519.125 458.125,520.375 459.125,521.5"/>
    <polyline points="459.375,521.75 459.5,522.875 458.625,523.625 457.625,523.875 455.25,524.0 451.75,523.625 443.25,521.75 430.375,517.25"/>
    <polyline points="427.125,516.0 408.125,507.5 385.375,495.75 364.0,483.375 353.625,476.75 351.875,475.25 355.75,477.0"/>
    <polyline points="358.0,478.125 379.0,488.75 391.5,494.375 403.875,499.5 415.625,503.75 426.5,507.125 439.25,510.5 447.625,512.375"/>
    <polyline points="450.25,512.875 477.875,518.5 483.5,520.125 487.75,521.875"/>
    <polyline points="488.5,522.125 491.5,524.0 494.125,526.875 495.125,529.625 495.125,531.625 494.625,533.0"/>
    <polyline points="494.5,533.5 492.625,536.0 489.375,538.125 485.0,539.375 480.5,539.75 476.625,539.625 471.875,539.0 466.0,537.875 458.875,536.0"/>
    <polyline points="454.75,534.625 445.0,531.25 439.5,529.0 419.0,519.875 402.125,511.375 382.625,500.75 361.125,488.25 328.375,467.875 302.875,450.75 293.375,443.75 307.5,453.125"/>
    <polyline points="314.25,457.75 337.375,473.25 360.75,487.5 375.0,495.25 388.0,501.25 393.875,503.625 399.5,505.75 409.875,509.0 423.375,511.75 434.75,512.875 441.375,512.875 450.0,512.25"/>
    <polyline points="452.625,512.0 463.875,509.625 469.375,507.75 474.125,505.75 478.25,503.625 483.0,500.5 486.0,497.875 489.375,494.25"/>
    <polyline points="490.125,493.375 493.125,489.25 495.75,484.75 504.875,465.25 509.25,456.875"/>
    <polyline points="510.5,454.625 517.375,443.875 525.0,433.875 535.875,421.75 545.75,412.0 558.375,400.75 566.125,394.5 584.5,380.625 595.5,373.125 607.625,365.25 621.125,357.25 635.75,349.375 651.375,341.875 667.625,335.125 684.0,329.75 699.875,326.375"/>
    <polyline points="714.5,325.5 726.875,327.75 736.375,333.5 742.375,342.75 744.75,355.25 743.5,370.375 739.125,387.25 732.25,405.0 723.625,423.0 714.0,440.375 703.875,456.625 693.875,471.625 684.125,485.0 675.0,496.75 666.5,507.0 658.625,515.75 651.375,523.125 644.875,529.375 633.5,538.75 628.5,542.125 619.625,547.125 615.625,548.875 608.5,551.125"/>
    <polyline points="605.25,551.75 599.25,552.5 591.25,552.625 565.875,550.25 560.125,550.25 556.375,550.625"/>
    <polyline points="555.25,550.75 549.25,552.5 544.625,555.25 540.5,559.75 537.75,564.75"/>
    <polyline points="537.25,565.625 533.625,573.625 531.0,577.875 528.25,581.0 524.0,583.625 519.875,584.75 514.25,585.25 510.625,585.125 501.125,583.5"/>
    <polyline points="494.875,581.875 478.25,576.0 467.125,571.375 453.5,565.0 437.0,556.75 416.75,546.0 392.375,532.0 363.125,514.375 328.75,492.625 289.5,466.5 247.125,437.0 204.75,405.75 167.125,376.625 139.75,353.75 126.75,341.5 128.875,341.5 143.375,352.75 165.375,372.375 189.875,396.375 213.25,421.625 233.625,446.25 250.0,469.0 262.5,489.5 271.625,507.625 277.875,523.5"/>
    <polyline points="282.0,537.25 284.5,549.25 288.25,575.375 289.75,581.0 291.875,585.125 294.625,587.875 298.25,589.25 302.75,589.375 308.0,588.375 314.0,586.375 327.25,580.25 341.5,572.375 382.625,548.125 394.5,541.625 405.25,536.25"/>
    <polyline points="410.25,533.875 423.875,528.125 431.875,525.25 448.625,520.5 456.875,518.875 466.125,517.5 480.125,516.625"/>
    <polyline points="481.5,516.625 488.625,516.75 493.125,517.25 497.25,518.0 501.0,519.5"/>
    <polyline points="501.375,519.625 502.75,520.5 504.375,522.375 505.375,524.875 505.5,527.0"/>
    <polyline points="505.5,527.375 505.25,530.375 504.375,533.25 502.0,537.375 500.0,539.375"/>
    <polyline points="499.375,539.875 496.25,541.875 490.375,543.625 483.125,544.0 475.375,543.125 468.75,541.75 455.625,537.75 437.375,530.625 430.0,527.25"/>
    <polyline points="421.75,523.375 402.625,513.75 380.125,501.375 341.5,478.25 304.125,453.75 286.25,441.125 280.75,437.125 278.0,435.0 278.0,434.75 325.75,468.875 334.75,475.125 352.0,486.25"/>
    <polyline points="360.0,491.125 374.625,499.25 387.5,505.25 398.75,509.625 408.625,512.375 413.125,513.25 417.375,514.0 425.125,514.75 432.0,514.875 438.125,514.375 443.625,513.625 450.75,512.0 458.75,509.125"/>
    <polyline points="460.5,508.375 465.25,505.875 469.25,503.25 473.75,499.5 475.625,497.5 478.125,494.375 480.875,489.875 484.0,482.375"/>
    <polyline points="484.375,481.0 486.0,475.125 490.25,456.5 493.25,446.625 498.625,434.0 503.0,426.25 505.875,421.875"/>
    <polyline points="509.125,417.125 513.125,411.75 523.75,399.375 539.25,383.625 549.5,374.25 562.0,363.625 577.0,351.5 595.125,338.0 616.75,322.875 642.25,306.5 671.625,289.5 704.5,272.875 739.5,258.375 774.125,248.75 805.125,246.75 828.5,255.0 841.375,274.375 842.875,303.75 834.25,340.25 818.75,379.875 799.75,419.125 780.125,455.375 746.375,514.75"/>
    <polyline points="733.625,537.5 715.75,570.5 705.75,590.375 702.375,596.5 699.75,600.375 697.375,602.5 695.0,602.875 692.375,602.0 689.5,599.875 686.125,596.75 668.5,578.0 657.625,567.125 646.375,556.5 629.625,542.5 619.125,534.625 614.125,531.25"/>
    <polyline points="609.375,528.25 596.25,520.75 584.875,515.625 575.125,512.125 566.75,509.875 557.375,508.125 551.375,507.375 541.875,506.75"/>
    <polyline points="540.625,506.625 528.75,506.25 521.75,505.375"/>
    <polyline points="521.375,505.25 518.25,503.75 517.0,502.25 516.5,500.75"/>
    <polyline points="516.375,500.375 516.125,496.375 517.0,489.75"/>
    <polyline points="517.25,489.125 518.625,483.375 520.875,477.0 522.75,472.625 526.875,464.625"/>
    <polyline points="527.75,463.125 532.125,456.375 538.125,448.5 546.5,439.25 551.875,433.875 558.25,428.25 565.625,422.0 579.125,412.125 595.625,401.75 601.75,398.5"/>
    <polyline points="608.125,395.25 614.625,392.25 621.375,389.625 628.125,387.25 634.75,385.5 641.125,384.25 647.25,383.75 652.75,384.0 657.75,385.125 661.875,387.125 665.125,390.125 667.375,393.875 668.625,398.625 668.875,404.0 668.125,410.0 666.5,416.5 664.0,423.375 660.875,430.375 657.125,437.375 652.875,444.25 643.5,457.375 633.5,469.25 623.5,479.375"/>
    <polyline points="618.75,483.75 609.375,491.375 600.625,497.625 596.625,500.25 585.375,506.375 572.5,511.75 562.0,515.0 555.25,516.625 544.5,518.625"/>
    <polyline points="543.0,518.875 528.5,521.625 523.5,523.125 520.75,524.375"/>
    <polyline points="520.25,524.625 517.75,526.375 515.5,528.5 511.5,533.875"/>
    <polyline points="511.125,534.375 506.75,540.25 502.875,543.5 500.25,545.0 498.0,545.875 493.875,546.75"/>
    <polyline points="492.125,547.0 488.25,547.25 480.625,546.625 470.125,544.5 465.75,543.25 449.25,537.5 442.375,534.625 434.625,531.25 416.5,522.625 394.25,510.875 367.875,495.875 323.625,468.375 295.875,449.625"/>
    <polyline points="284.375,441.625 266.125,428.125 269.625,430.25 275.25,434.375 311.375,461.5 331.0,475.75 349.125,488.125 365.0,498.0 378.75,505.25 390.625,510.5 400.875,513.875 405.375,515.0 413.75,516.5"/>
    <polyline points="417.5,516.875 424.375,517.0 430.5,516.625 438.5,515.25 443.125,514.0 450.875,511.0 455.625,508.5 459.75,505.75 462.0,503.875 465.875,499.875"/>
    <polyline points="466.625,498.875 469.25,494.75 470.625,491.375 471.75,485.625 471.625,480.75 470.375,475.75 468.625,472.0 466.875,469.625"/>
    <polyline points="465.875,468.5 463.25,466.25 459.875,464.375 455.5,463.0 452.75,462.625 446.0,462.625 441.75,463.125 436.875,464.125 431.125,465.75 424.375,468.125 416.5,471.375 407.125,475.75 396.0,481.625 382.75,489.125 367.125,499.0 348.625,511.375 327.0,527.0 302.0,546.125 273.875,569.125 243.25,596.0 211.75,625.75 182.125,656.375"/>
    <polyline points="158.0,685.0 143.125,707.625 140.0,720.75 148.75,722.625 167.0,713.625 191.0,696.25 216.625,673.75 241.125,649.0 262.375,624.375 279.75,601.125 293.0,580.0 302.5,561.125 308.875,544.5 312.5,529.875 314.0,517.125 314.125,506.125 313.375,496.625 312.125,488.5 309.75,476.25 309.375,472.125 309.625,469.125 310.875,467.25 313.125,466.5 316.125,466.75 320.125,467.75"/>
    <polyline points="324.75,469.5 341.625,477.375 367.0,489.75 385.25,497.625 396.375,501.75 411.625,506.5 424.875,509.625 440.0,511.875 449.5,512.5"/>
    <polyline points="452.5,512.625 462.75,512.625 478.25,511.375 489.0,509.375 493.875,507.875"/>
    <polyline points="494.75,507.625 499.875,505.5 502.625,503.75 505.75,501.0 507.875,498.25"/>
    <polyline points="508.25,497.75 510.625,493.375 516.125,480.0"/>
    <polyline points="516.5,479.0 522.625,466.375 526.5,459.875 530.375,454.125 539.5,442.875 547.125,434.875"/>
    <polyline points="550.25,431.875 557.125,425.625 570.0,415.125 586.5,403.625 599.375,395.875 606.375,392.0 621.375,385.0 629.0,382.0 636.75,379.5 644.375,377.75 651.5,376.625 658.25,376.5 664.375,377.375 669.5,379.25 673.5,382.375 676.5,386.625 678.125,391.875 678.5,398.0 677.75,405.0"/>
    <polyline points="675.875,412.5 673.0,420.375 669.375,428.5 665.0,436.625 660.125,444.625 654.875,452.375 643.875,466.5 638.25,472.875 627.375,484.0 617.0,493.125 607.375,500.375 594.5,508.375 580.0,515.125 573.75,517.375 568.125,519.0"/>
    <polyline points="565.625,519.75 556.375,521.875 536.125,525.375 528.5,527.375"/>
    <polyline points="527.625,527.75 523.5,529.5 521.25,530.875 517.375,534.125 514.375,537.5"/>
    <polyline points="513.875,538.125 509.25,543.125 506.5,545.375 502.75,547.375 499.0,548.75 494.0,549.5 489.875,549.625"/>
    <polyline points="487.375,549.5 478.125,548.25 469.875,546.25 459.625,542.875 446.5,537.875 429.875,530.5 420.125,525.75 396.875,513.625 369.125,497.75 353.625,488.5 321.25,467.875 290.375,447.125 267.375,430.625 257.25,422.75"/>
    <polyline points="257.625,422.875 267.75,430.25 307.125,460.625 327.875,476.25 346.5,489.5 354.75,495.125 362.5,499.875 376.125,507.5 382.125,510.375 392.875,514.75 397.625,516.25 402.125,517.375 410.125,518.75 417.125,519.125 423.25,518.875"/>
    <polyline points="426.125,518.625 435.875,516.5 443.625,513.5 448.375,510.875 452.375,508.25 455.625,505.5 458.875,501.75 460.875,497.875"/>
    <polyline points="461.25,496.875 461.75,494.875 461.875,492.0 460.875,488.125 459.75,486.375 458.125,484.625 454.625,482.625 453.125,482.0 449.375,481.25 444.625,481.125 438.375,481.75 430.375,483.625"/>
    <polyline points="425.5,485.25 413.625,490.0 398.125,497.625 377.875,509.375 365.625,517.25 351.875,526.625 336.5,537.75 319.625,550.625 301.375,565.375 282.375,581.75 263.125,599.25 244.875,617.125 228.875,634.25 216.75,649.375 209.5,660.875 207.875,667.875 212.125,669.5 221.375,666.0 234.375,658.125 249.625,646.875 265.875,633.5 282.0,619.125 297.0,604.75"/>
    <polyline points="310.75,591.0 333.25,566.5 349.75,547.0 361.375,532.125 375.25,513.25 379.625,507.625 383.125,503.875 386.25,501.375 389.25,500.0 390.875,499.625 393.875,499.25 400.625,500.0"/>
    <polyline points="402.375,500.375 415.125,504.125 432.0,510.0 442.125,514.0"/>
    <polyline points="443.125,514.5 445.0,515.25 448.875,517.5 450.25,519.0 450.125,519.625 449.25,520.0 445.0,519.75"/>
    <polyline points="443.875,519.625 434.75,517.125 425.875,513.875 417.75,510.5 408.5,506.25 395.0,499.5 378.875,490.625"/>
    <polyline points="376.125,489.0 368.25,484.125 366.25,482.5 368.0,483.0 389.625,493.0 409.375,501.0"/>
    <polyline points="412.625,502.25 424.875,506.5 441.0,511.375 459.375,516.5 468.0,519.375"/>
    <polyline points="469.25,519.75 475.0,522.375 478.75,525.125 480.125,526.875 480.5,528.25 480.375,529.5 479.625,530.75"/>
    <polyline points="479.125,531.125 475.875,532.625 471.25,533.125 464.25,532.5 456.875,531.0 447.125,528.125 439.0,525.125 429.25,521.25 418.0,516.125"/>
    <polyline points="411.625,513.0 390.25,502.0 366.25,488.375 342.875,474.125 325.25,462.625 318.125,457.5 326.375,462.25 341.75,471.875 360.375,482.625"/>
    <polyline points="366.625,486.0 384.875,495.125 390.625,497.625 406.625,503.75 416.25,506.625 429.0,509.625 436.5,510.875 443.375,511.625 452.5,512.25 467.25,512.0"/>
    <polyline points="469.25,511.75 479.875,510.375 486.625,509.0 493.0,507.0 499.125,504.0"/>
    <polyline points="499.75,503.625 502.625,501.5 505.0,499.125 507.375,495.875 510.5,490.0"/>
    <polyline points="510.875,489.25 517.125,474.75 520.5,468.0 525.375,459.875"/>
    <polyline points="526.5,458.125 530.75,452.0 536.25,445.125 546.25,434.375 552.75,428.125 560.625,421.375 575.0,410.125 586.875,402.0 600.375,393.875 615.375,386.125 623.375,382.5 631.5,379.375"/>
    <polyline points="639.5,376.875 647.5,375.0 655.125,373.875 662.125,373.875 668.25,374.875 673.5,377.125 677.625,380.625 680.375,385.25 681.875,391.0 682.0,397.75 680.875,405.25 678.625,413.25 675.375,421.75 671.25,430.25 666.5,438.875 661.25,447.125 650.0,462.625 638.375,476.0 627.125,487.125 616.625,496.25 607.0,503.375"/>
    <polyline points="602.5,506.25 594.125,511.125 586.5,514.75 579.75,517.5 573.5,519.625 560.625,523.0 539.875,526.625"/>
    <polyline points="538.625,526.875 532.125,528.375 527.875,529.75 523.75,531.75 519.375,535.0"/>
    <polyline points="518.875,535.5 512.5,542.25 509.375,545.125 507.0,546.875 502.875,548.875"/>
    <polyline points="501.625,549.375 495.25,550.625 491.0,550.75 485.75,550.375 479.125,549.25 465.875,545.75 454.0,541.625 446.875,538.75 429.75,531.125 419.625,526.125 395.625,513.5 381.75,505.75 366.75,496.875 333.875,476.625"/>
    <polyline points="316.875,465.625 285.25,444.125 262.125,427.375 253.0,420.25 254.25,420.875 266.0,429.625 307.5,462.0 328.5,478.0 338.0,485.125 355.125,496.875 362.75,501.75 376.0,509.25 387.375,514.375 396.875,517.625"/>
    <polyline points="401.25,518.625 408.875,519.875 415.625,520.25 424.375,519.5 431.625,518.0 439.625,515.125 444.375,512.625 449.625,509.125 453.5,505.5"/>
    <polyline points="454.25,504.5 456.625,500.875 457.75,497.125 457.5,493.625 456.75,491.875 454.0,488.875 451.75,487.75 447.0,486.625 444.875,486.375 442.625,486.5"/>
    <polyline points="440.0,486.625 437.0,487.0 429.875,488.625 420.75,491.75 409.125,496.75 394.125,504.5 385.125,509.625 363.75,523.25 351.25,531.875 337.5,541.875 322.625,553.25 306.875,566.125 290.625,580.0 274.5,594.75 259.375,609.625 246.125,623.75 235.75,636.25 229.25,646.0 227.25,652.375 229.75,654.625 236.375,652.875"/>
    <polyline points="246.375,647.5 258.625,639.25 272.25,628.875 286.375,617.375 300.125,605.375 325.0,582.25 353.875,553.875 373.375,534.25 386.625,521.75 393.125,516.375 398.375,512.75 404.875,509.375 410.125,507.875"/>
    <polyline points="411.625,507.625 417.375,507.5 423.5,508.5 430.25,510.625 435.625,513.125"/>
    <polyline points="436.0,513.25 436.75,514.25 435.125,514.375 432.625,513.875 426.5,512.0 422.375,510.375 430.375,511.75 441.0,512.5 450.125,512.25 457.875,511.5 462.5,510.75 472.125,508.25 478.375,505.875 482.25,504.0"/>
    <polyline points="420.875,509.875 412.5,506.25 399.625,500.0 389.375,494.375 386.75,492.625 386.625,492.25 389.5,493.125 415.875,503.75 427.75,508.0"/>
    <polyline points="429.5,508.75 442.375,513.375 448.375,515.875 452.75,518.0 455.375,519.875 455.875,520.625"/>
    <polyline points="456.0,520.875 455.875,521.875 454.75,522.375 452.0,522.5 447.375,521.875 438.375,519.5 425.375,514.625"/>
    <polyline points="422.125,513.375 403.875,504.875 391.5,498.5 368.375,485.375 360.625,480.5 357.25,478.0 362.375,480.25"/>
    <polyline points="364.75,481.375 377.25,487.625 388.375,492.75 396.125,496.125 411.125,502.0 428.375,507.625 448.125,512.75"/>
    <polyline points="450.5,513.375 473.875,518.875 480.5,521.25 485.25,523.625"/>
    <polyline points="485.875,524.0 488.25,526.125 489.25,527.5 490.0,530.375 489.75,531.75 489.0,533.125 488.25,534.125 486.625,535.25"/>
    <polyline points="485.875,535.75 481.0,537.125 478.125,537.375 472.625,537.125 467.875,536.5 455.25,533.375 446.75,530.5 430.625,524.0 417.125,517.75 401.375,509.875"/>
    <polyline points="392.625,505.25 363.875,488.875 344.0,476.75 318.0,459.875 302.125,448.625 347.25,477.75 361.875,486.25 375.625,493.5"/>
    <polyline points="382.125,496.625 388.25,499.5 394.25,501.875 410.25,507.375 419.5,509.625 428.0,511.125 435.5,512.0 442.25,512.375 454.0,512.0 463.5,510.75 471.375,508.875"/>
    <polyline points="473.0,508.375 480.625,505.625 487.625,501.75 490.5,499.625 494.625,495.875 498.625,490.625"/>
    <polyline points="499.25,489.625 501.75,485.625 513.25,462.875 519.875,452.25"/>
    <polyline points="521.625,449.75 525.5,444.375 536.375,431.75 548.0,420.0 552.875,415.625 564.375,406.0 578.375,395.25 586.625,389.5 605.375,377.625 616.0,371.5 627.25,365.625 639.125,360.125 651.375,355.25 663.625,351.375 675.625,348.75 686.75,347.625 696.75,348.625"/>
    <polyline points="704.875,351.625 711.0,357.0 714.875,364.625 716.125,374.125 715.125,385.375 712.125,397.75 707.25,410.75 701.0,424.0 693.875,437.125 686.125,449.625 678.125,461.375 670.25,472.125 654.875,490.625 640.875,505.0 634.5,510.875 628.5,515.875 617.75,523.75 608.375,529.375 604.125,531.5 596.375,534.75 592.875,535.875"/>
    <polyline points="589.5,536.875 580.625,538.875 570.75,540.125 552.75,541.625 548.625,542.25 543.0,543.625"/>
    <polyline points="542.0,544.0 537.5,545.875 534.375,547.875 531.625,550.125 523.75,558.375"/>
    <polyline points="523.0,559.25 518.125,562.875 515.625,564.125 510.75,565.75 506.25,566.25 503.625,566.375 497.25,565.875 493.25,565.25 483.5,563.0 470.25,558.625 452.375,551.25 441.125,546.125 428.0,539.625 412.75,531.625"/>
    <polyline points="395.125,521.875 374.875,510.25 352.125,496.375 327.125,480.5 300.5,462.875 273.25,444.25 247.375,425.625 224.75,408.875 207.75,395.5 198.0,387.375 196.0,385.0 201.125,388.625 211.875,397.25 226.125,409.5 242.125,423.75 258.375,438.75 273.75,453.625 300.125,480.125 340.125,522.875 349.25,532.125"/>
    <polyline points="353.0,535.625 359.5,540.625 365.0,543.5 370.25,545.0 375.25,545.25 380.25,544.625 385.25,543.375 390.375,541.625 402.75,536.25 416.5,529.375"/>
    <polyline points="418.625,528.125 428.25,522.75 436.125,517.625 440.0,514.75 445.75,509.25 448.0,505.875 448.625,504.25"/>
    <polyline points="448.75,503.375 448.625,500.375 447.375,498.5 445.875,497.375 442.625,496.25 439.5,496.0 435.5,496.125 427.5,497.75 420.375,500.0 411.5,503.625 400.625,508.875"/>
    <polyline points="394.125,512.25 379.25,521.0 361.5,532.75 351.375,539.875 329.5,556.625 306.375,576.0 295.25,586.25 284.875,596.375 275.875,605.75 268.75,614.25 264.0,621.0 261.875,625.75 262.5,628.25 265.875,628.375 271.5,626.125 279.25,621.875 288.375,616.0 308.875,601.125 339.625,576.75"/>
    <polyline points="348.875,569.25 365.75,555.75 386.375,540.375 397.5,533.0 407.0,527.625 418.75,522.125 428.25,519.125 438.25,517.5 444.25,517.375 449.375,517.75"/>
    <polyline points="450.75,518.0 456.875,519.375 460.875,521.125 462.375,522.25 463.25,523.5 463.25,524.125 462.875,524.625 461.0,525.375"/>
    <polyline points="460.375,525.5 456.375,525.5 448.25,524.0 435.5,520.0 425.375,516.0 408.375,508.25 388.375,497.875"/>
    <polyline points="383.125,495.0 363.375,483.625 352.125,476.625 345.875,472.25 347.125,472.625 373.125,486.25 382.125,490.625 391.25,494.625"/>
    <polyline points="395.75,496.625 408.75,501.625 416.875,504.375 424.5,506.75 434.875,509.5 449.75,512.625 471.5,516.0"/>
    <polyline points="473.125,516.25 481.625,517.625 487.125,518.875 492.75,520.625 496.5,522.75"/>
    <polyline points="496.875,523.125 498.375,524.5 499.375,526.0 500.25,528.5 500.25,531.375 499.5,533.75"/>
    <polyline points="499.25,534.25 498.0,536.375 496.0,538.375 493.0,540.125 488.5,541.5 483.875,542.0 479.875,541.875 475.0,541.375 469.0,540.25"/>
    <polyline points="465.5,539.375 457.25,537.0 447.125,533.375 441.25,531.125 427.5,525.125 410.875,517.0 391.125,506.5 368.5,493.75 344.25,479.0 320.5,463.75 300.75,450.375 285.25,439.0 291.125,443.0"/>
    <polyline points="296.75,446.875 328.25,468.875 345.25,480.125 361.125,489.75 375.625,497.625 382.25,500.875 388.5,503.625 399.875,507.875 405.125,509.5 414.625,511.875 423.0,513.125 430.5,513.75 437.25,513.75 443.25,513.375"/>
    <polyline points="446.0,513.0 453.375,511.625 461.75,509.125 470.0,505.375 474.125,502.875 477.625,500.25 480.625,497.5 484.0,493.5"/>
    <polyline points="484.875,492.375 488.25,486.75 490.125,482.875 498.375,461.375 502.625,452.125"/>
    <polyline points="504.0,449.5 509.125,440.5 513.875,433.375 524.0,420.625 533.625,410.125 539.625,404.125 546.625,397.5 554.875,390.25 575.375,373.625 588.125,364.25 602.875,354.0 619.5,343.25 638.375,332.125 659.0,321.125 681.25,310.875 704.25,302.25 726.75,296.5 747.375,294.75 764.5,298.125"/>
    <polyline points="776.625,307.25 782.875,322.125 783.0,342.0 777.875,365.375 768.625,390.625 756.75,416.125 743.5,440.625 730.125,463.125 717.375,483.25 705.5,500.875 695.0,515.75 677.625,538.75 670.5,547.25 664.375,554.0 659.0,559.375 654.375,563.5 650.125,566.5 646.25,568.75 642.75,570.125 639.5,571.0 633.25,571.125 630.25,570.625 624.5,568.875"/>
    <polyline points="621.75,567.75 613.25,563.75 599.625,556.75 586.875,550.875 577.75,547.5 573.5,546.25 567.625,544.75 562.25,543.875"/>
    <polyline points="560.625,543.625 551.75,543.375 546.875,543.875 541.75,545.25 539.125,546.375 533.875,549.875"/>
    <polyline points="533.25,550.375 530.625,552.875 525.5,558.75 520.375,563.375 515.25,566.0 509.75,567.375"/>
    <polyline points="507.5,567.625 501.875,567.625 489.75,565.75 478.25,562.5 462.625,556.625 441.25,547.125 427.75,540.375 412.0,532.125 393.625,521.875 372.75,509.75 349.125,495.25 323.0,478.625 295.25,460.125 267.125,440.625 240.5,421.375 217.75,404.25 201.0,391.0 192.125,383.375 191.5,382.125 198.0,387.0"/>
    <polyline points="210.125,396.875 225.5,410.25 242.125,425.375 258.75,441.0 274.25,456.25 300.125,483.25 319.25,504.375 342.5,531.25 349.875,538.875 353.0,541.625 358.625,545.5 363.875,547.5 366.375,548.0 371.5,548.0 374.125,547.75 379.5,546.5"/>
    <polyline points="382.125,545.75 395.875,540.25 406.5,535.125 425.5,525.125 435.125,519.625 440.0,516.5"/>
    <polyline points="441.5,515.375 446.625,511.5 450.75,507.625 452.875,504.875 454.5,502.125 455.375,499.375 455.5,496.75 454.75,494.25 453.75,492.75"/>
    <polyline points="453.0,492.125 450.125,490.375 445.625,489.25 441.5,489.125 436.25,489.625 429.5,491.125 421.0,493.875 403.75,501.625 388.375,510.0 369.125,521.875 345.625,538.25 332.25,548.25 318.0,559.5"/>
    <polyline points="303.25,571.75 288.375,584.875 274.0,598.375 261.0,611.625 250.0,623.875 242.0,634.125 237.625,641.875 237.25,646.25 240.75,647.125 247.75,644.625 257.5,639.0 269.125,631.125 281.75,621.5 294.875,610.875 319.75,589.375 372.75,540.625 383.75,531.0 392.625,524.0"/>
    <polyline points="396.375,521.375 402.875,517.25 408.25,514.5 412.875,512.625 418.75,511.25 425.125,511.0 430.125,511.5 437.125,513.5"/>
    <polyline points="428.125,513.125 419.625,509.875 404.875,503.125 390.0,495.375 382.25,490.625"/>
    <polyline points="381.625,490.25 381.25,489.75 383.375,490.375 408.375,500.75 422.5,506.0"/>
    <polyline points="424.75,506.75 447.125,514.5 455.75,518.0 460.5,520.625"/>
    <polyline points="461.0,521.125 462.5,522.625 462.75,523.875 461.625,524.875 459.75,525.25 458.0,525.375 454.5,525.0 445.5,523.125"/>
    <polyline points="443.125,522.375 431.75,518.5 420.875,514.0 398.375,503.125 373.0,489.25 355.875,478.875 347.25,473.125"/>
    <polyline points="346.875,472.75 348.125,473.125 373.75,486.5 382.625,490.75 396.0,496.625 404.75,500.125 420.75,505.625 434.875,509.375"/>
    <polyline points="438.125,510.25 452.25,513.125 476.0,516.875 485.75,518.875"/>
    <polyline points="486.75,519.125 493.625,521.625 496.125,523.25 497.875,525.125 499.125,527.5"/>
    <polyline points="499.25,528.0 499.5,531.25 498.875,533.625 497.75,535.75 494.625,538.625 492.25,539.875"/>
    <polyline points="491.25,540.25 489.0,541.0 484.75,541.625 476.5,541.25 464.25,538.875 451.0,534.625 439.625,530.25 417.625,520.25 399.25,510.875 378.0,499.0"/>
    <polyline points="366.375,492.25 342.375,477.625 319.25,462.75 300.25,449.875 286.5,439.875 293.125,444.125 321.75,464.25 347.0,480.875 362.75,490.375 370.125,494.5 383.625,501.125 389.75,503.75"/>
    <polyline points="395.625,506.125 406.25,509.5 415.625,511.75 424.0,513.125 431.375,513.625 438.125,513.625 446.75,512.875 454.25,511.5 462.5,509.0 470.75,505.375"/>
    <polyline points="472.125,504.5 474.875,502.875 478.375,500.25 484.0,494.625 487.125,490.375 489.125,486.875 493.375,477.5"/>
    <polyline points="493.875,476.0 499.5,461.875 503.875,452.625 508.5,444.25 515.25,434.125 521.5,426.125 529.625,416.625 534.75,411.25 547.5,399.125"/>
    <polyline points="555.5,392.125 564.625,384.375 587.5,367.0 601.5,357.375 617.375,347.125 635.125,336.5 654.75,326.125 675.75,316.25 697.5,308.0 719.0,302.125 738.875,299.875 755.75,302.375 768.25,310.0 775.375,323.0 776.875,340.75 773.25,362.125 765.5,385.75 754.75,409.875 742.5,433.5 729.75,455.5 717.125,475.5 705.375,493.0 685.125,521.0 676.625,531.75"/>
    <polyline points="669.125,540.625 662.625,547.75 656.875,553.5 651.875,558.0 647.25,561.5 639.375,565.875 632.625,567.75 626.5,567.875 618.0,566.0 612.5,564.0 587.5,553.25"/>
    <polyline points="585.125,552.375 576.625,549.5 570.875,548.0 563.875,546.75 557.875,546.25 553.875,546.375 550.25,546.75 546.125,547.875"/>
    <polyline points="545.125,548.125 540.875,550.125 537.25,552.875 533.0,557.5 528.125,564.0"/>
    <polyline points="527.375,564.875 525.0,567.5 523.0,569.125 519.125,571.375 515.625,572.5 511.25,573.25 505.25,573.25 501.625,572.875 492.375,571.125 486.5,569.5 471.5,564.25 450.375,555.125 436.75,548.625 420.75,540.25 401.875,529.875"/>
    <polyline points="379.625,517.125 354.125,501.625 325.375,483.375 294.125,462.5 261.5,440.0 230.0,417.125 202.625,396.25 182.375,380.0 171.625,370.5 171.0,369.125 179.25,375.25 193.875,387.5 212.0,403.75 231.125,422.0 249.375,440.375 265.75,458.0 279.875,474.25 291.625,488.75 301.25,501.5 309.0,512.5 315.25,522.0 330.5,547.625 333.125,551.5"/>
    <polyline points="335.5,554.625 338.0,557.0 340.5,558.75 343.0,559.875 345.875,560.625 351.875,560.5 358.75,559.0 366.125,556.375 373.875,553.0 385.875,547.375 422.375,529.375"/>
    <polyline points="425.5,527.875 444.75,518.875 459.25,511.625 464.25,508.75 468.5,505.875 474.625,501.125"/>
    <polyline points="475.625,500.125 478.5,497.125 481.75,492.875 485.625,485.75 488.25,479.0 491.75,467.625"/>
    <polyline points="492.375,465.75 495.125,457.375 498.0,450.125 500.625,444.375 504.0,438.0 508.625,430.625 514.75,422.0 528.75,405.75 542.75,391.875 551.75,383.75 562.5,374.625 575.0,364.625 589.875,353.5 607.25,341.375"/>
    <polyline points="627.375,328.25 650.375,314.75 675.875,301.25 703.25,289.0 731.375,279.25 758.25,273.875 781.5,274.625 798.875,283.0 808.5,299.25 810.0,322.5 804.125,351.0 792.75,382.125 778.0,413.5 762.125,443.25 746.375,470.375 731.875,494.125 708.25,531.25 691.5,556.375 680.0,572.125 675.625,577.25 671.875,580.875 668.5,583.25 665.375,584.625"/>
    <polyline points="662.375,585.0 659.375,584.625 656.375,583.5 650.25,580.125 621.375,558.375 613.75,553.125 602.875,546.25 589.375,539.125 583.125,536.375 577.375,534.25"/>
    <polyline points="574.75,533.25 564.75,530.375 552.625,528.25 543.125,527.75 532.75,528.875"/>
    <polyline points="531.875,529.125 526.25,530.875 523.0,532.625 519.25,535.5 516.375,538.5"/>
    <polyline points="515.875,539.0 510.375,544.625 505.5,548.0 502.0,549.5 499.25,550.25 495.75,550.75 491.625,550.875"/>
    <polyline points="489.125,550.875 480.0,549.625 471.75,547.625 461.375,544.375 448.25,539.375 440.25,536.0 421.375,527.125 397.625,514.625 383.875,507.0 352.875,488.625 319.0,467.125 286.75,445.25 262.625,427.875 252.5,420.0"/>
    <polyline points="253.125,420.25 273.375,435.5 326.875,477.125 345.625,490.75 353.875,496.375 368.625,505.5 380.875,511.875 386.375,514.25 396.0,517.625 404.375,519.5 411.625,520.375 420.875,520.125"/>
    <polyline points="423.625,519.75 433.125,517.625 438.875,515.375 443.75,512.875 449.0,509.375 452.875,505.75 455.0,503.0 456.625,499.375"/>
    <polyline points="456.875,498.5 457.0,494.875 456.5,493.25 454.875,490.875 454.125,490.125 450.875,488.375 449.5,487.875 446.0,487.375 441.625,487.25 438.875,487.5 432.5,488.75 424.25,491.125 413.875,495.25"/>
    <polyline points="407.5,498.125 392.375,506.125 383.375,511.375 362.125,525.0 336.0,543.75 321.25,555.125 305.875,567.75 290.0,581.5 274.375,595.875 259.875,610.25 247.25,623.75 237.625,635.625 231.75,644.75 230.25,650.5 233.0,652.375 239.75,650.375 249.625,645.0 261.75,636.75 275.125,626.625 288.875,615.375 315.0,592.375 326.75,581.375"/>
    <polyline points="337.375,571.25 369.25,540.125 380.0,530.0 388.5,522.5 395.125,517.25 400.625,513.625 405.25,511.25 409.25,509.75 411.125,509.25 417.375,508.5 422.75,509.0"/>
    <polyline points="423.875,509.125 429.125,510.375 434.375,512.375 436.5,513.5 437.125,514.25 436.75,514.5"/>
    <polyline points="436.5,514.625 433.375,514.125 429.75,513.125 423.375,510.875 413.5,506.75 406.0,503.25"/>
    <polyline points="404.125,502.25 392.0,496.0 386.0,492.125 386.875,492.125 395.125,495.375"/>
    <polyline points="396.75,496.125 412.625,502.5 443.375,513.75"/>
    <polyline points="444.75,514.25 450.375,516.625 455.375,519.5 456.5,520.625 456.875,521.75 456.25,522.375 454.875,522.75"/>
    <polyline points="454.125,522.75 450.375,522.625 444.5,521.375 440.75,520.375 431.0,517.0 414.875,510.25 390.375,498.0"/>
    <polyline points="386.125,495.625 366.75,484.5 359.125,479.75 356.125,477.5 358.0,478.125 377.375,487.75 392.75,494.75"/>
    <polyline points="396.75,496.375 408.25,501.0 415.625,503.625 429.25,507.875 446.5,512.375 467.375,517.0"/>
    <polyline points="469.0,517.375 476.0,519.25 484.0,522.25 487.875,524.625 489.625,526.375 490.125,527.25"/>
    <polyline points="490.5,527.75 491.0,529.125 491.0,531.5 490.375,533.0 489.0,534.75 487.875,535.625 485.5,536.75 479.5,537.875"/>
    <polyline points="478.0,537.875 474.25,537.75 467.0,536.75 453.375,533.125 439.0,527.75 426.875,522.625 420.0,519.375 404.375,511.75 376.75,496.625 346.25,478.375 327.125,466.125"/>
    <polyline points="318.75,460.625 306.125,452.0 300.375,447.625 344.25,476.25 366.25,489.125 379.875,496.0 392.125,501.5 408.5,507.25 418.0,509.625"/>
  </g>
</svg>
