<?xml version="1.0" encoding="utf-8" ?>
<svg xmlns="http://www.w3.org/2000/svg" xmlns:cc="http://creativecommons.org/ns" xmlns:dc="http://purl.org/dc/elements/1.1/" xmlns:ev="http://www.w3.org/2001/xml-events" xmlns:inkscape="http://www.inkscape.org/namespaces/inkscape" xmlns:rdf="http://www.w3.org/1999/02/22-rdf-syntax-ns" xmlns:sodipodi="http://sodipodi.sourceforge.net/DTD/sodipodi-0.dtd" xmlns:xlink="http://www.w3.org/1999/xlink" baseProfile="tiny" height="27.09333333cm" version="1.2" viewBox="0 0 1024.0 1024.0" width="27.09333333cm">
  <metadata>
    <rdf:RDF>
      <cc:Work>
        <dc:format>image/svg+xml</dc:format>
        <dc:source>vpype read './original_svgs/Strange Attractors #374.svg' linemerge linesimplify write './Strange Attractors #374.svg'
</dc:source>
        <dc:date>2024-08-05T01:35:53.690674</dc:date>
      </cc:Work>
    </rdf:RDF>
  </metadata>
  <defs/>
  <g fill="none" id="layer1" inkscape:groupmode="layer" inkscape:label="1" stroke="black" stroke-width="0.7mm" style="display:inline">
    <polyline points="531.625,706.0 590.375,649.25 633.0,609.75 664.75,583.625 689.25,567.75 709.5,559.625 727.25,557.625 744.0,561.0 760.875,569.25 778.5,582.75 797.75,601.625 818.5,626.625 840.375,658.125 862.0,695.875 880.25,737.75 890.125,779.125 886.25,812.375 864.375,828.75 825.25,822.375 775.125,794.0 722.875,750.25 676.125,699.875 638.875,649.625 612.625,603.375 596.625,562.875 589.625,528.125"/>
    <polyline points="590.25,498.625 596.875,474.0 607.875,453.75 621.875,437.875 637.125,426.375 652.125,419.625 665.625,417.5 676.5,419.75 684.25,425.875 688.875,434.875 690.625,446.0 690.125,458.25 687.625,470.75 684.0,483.0 679.625,494.5 674.75,504.875 669.75,514.125 664.625,522.125 659.75,528.875 655.0,534.625 650.375,539.375 646.0,543.125 641.75,546.125 637.75,548.5 633.875,550.125 630.125,551.25"/>
    <polyline points="626.5,551.875 619.75,552.125 613.375,551.25 607.5,549.625 602.125,547.625 597.125,545.375 588.375,540.625 578.25,534.0 572.25,529.375"/>
    <polyline points="571.375,528.5 568.875,526.25 566.5,523.5 565.0,520.375 564.75,518.75 565.0,517.125 566.0,515.0 567.25,513.375"/>
    <polyline points="567.75,512.75 580.0,502.0 583.125,498.75 587.25,493.125 589.875,487.5"/>
    <polyline points="590.625,485.25 591.625,480.0 591.875,473.5 590.875,465.375 587.875,454.875 582.125,441.375 577.625,433.25 572.0,423.75 564.75,413.125 555.5,401.0 544.125,387.25 530.125,372.0 513.25,355.375 493.125,337.625 469.875,319.75 444.0,302.625 416.125,288.0 387.875,277.75 361.0,273.625 337.5,276.875 319.0,287.875"/>
    <polyline points="306.375,305.625 299.375,328.625 297.25,354.5 299.0,381.25 303.125,407.375 308.75,431.625 314.875,453.5 321.25,472.75 327.375,489.375 333.0,503.375 338.25,515.25 343.125,525.125 347.375,533.25 351.375,539.75 355.0,545.125 358.375,549.375 364.375,555.25 367.25,557.125 369.875,558.5 375.0,559.875 379.75,560.0 384.375,559.25"/>
    <polyline points="386.5,558.75 390.75,557.375 396.5,555.0 417.375,544.75"/>
    <polyline points="417.625,544.625 404.5,549.75 390.125,556.125"/>
    <polyline points="387.5,557.5 371.75,565.5 355.5,575.0 335.75,588.25 324.75,596.5 308.0,610.375 298.125,619.875 291.0,628.25 289.0,631.375 288.5,633.5 289.625,634.375"/>
    <polyline points="292.5,633.875 297.125,631.75 303.375,627.875 311.125,622.5 320.125,615.75 340.5,598.875 361.75,580.0 414.875,530.5 421.5,524.5 433.375,514.5 443.25,507.0 451.625,501.375 459.0,497.5 465.375,494.75"/>
    <polyline points="468.25,493.75 473.5,492.25 480.625,491.0 488.75,490.5 500.375,490.75 512.5,490.5"/>
    <polyline points="513.625,490.375 517.125,490.0 521.5,489.0 525.5,487.5 528.375,486.0 531.75,483.375 533.375,481.625 535.375,478.75 536.5,476.375"/>
    <polyline points="537.0,475.0 538.0,468.625 537.5,462.5 536.375,457.5 534.375,451.75 531.25,445.125 529.25,441.5 524.0,433.375 520.625,428.875 512.625,419.25 502.375,408.875 489.75,398.0 475.125,387.625"/>
    <polyline points="467.125,383.0 458.75,378.875 450.375,375.5 442.0,373.125 433.875,371.75 426.25,371.625 419.375,372.75 413.25,375.25 408.0,379.0 404.0,384.0 401.0,389.875 399.0,396.625 398.125,403.875 398.0,411.625 398.875,419.5 400.375,427.25 402.375,434.875 404.875,442.25 407.625,449.125 413.875,461.75 420.625,472.375 427.25,481.125 430.5,484.75"/>
    <polyline points="433.75,488.125 436.75,491.125 442.625,496.125 453.0,503.125 461.5,507.5 465.25,509.0 472.75,511.625 480.0,513.625"/>
    <polyline points="480.75,513.75 486.875,515.625 487.25,516.125 486.75,516.5"/>
    <polyline points="486.5,516.625 483.875,517.25 481.125,517.5 475.25,517.5"/>
    <polyline points="474.625,517.5 469.75,516.875 467.125,516.0 464.5,514.0 463.625,512.125 463.5,510.5 463.875,508.5 464.875,506.0"/>
    <polyline points="465.75,504.625 468.125,501.25 471.875,497.0 477.125,492.0 488.625,482.75 499.25,475.5 512.25,467.5 519.75,463.375 536.25,455.5 545.0,451.875 554.0,448.75 562.875,446.125 571.625,444.375 580.0,443.375 587.625,443.25 594.375,444.125 600.25,446.0 605.0,448.75"/>
    <polyline points="608.625,452.25 611.125,456.5 612.75,461.125 613.25,466.125 613.125,471.25 612.25,476.375 610.75,481.375 608.875,486.25 604.25,495.0 598.875,502.25 596.0,505.375 590.5,510.375 585.125,514.25 582.625,515.75 575.5,518.75 571.25,519.875 565.625,520.625"/>
    <polyline points="563.875,520.75 558.125,520.375 552.625,519.125 548.875,517.5 547.375,516.5 546.25,515.5 545.375,513.75"/>
    <polyline points="545.25,513.375 545.5,511.625 546.625,509.875 549.5,507.0 554.5,502.875"/>
    <polyline points="555.25,502.25 559.125,498.625 563.25,493.875 566.375,488.75 568.25,483.75 569.125,479.625 569.5,474.75 569.125,469.0 567.75,461.75"/>
    <polyline points="566.5,457.625 562.75,448.0 560.0,442.25 556.5,436.0 546.875,421.25 540.375,412.75 532.625,403.5 523.5,393.375 512.75,382.5 500.375,371.125 486.25,359.5 470.5,348.125 453.375,337.5 435.25,328.25 417.0,321.375 399.125,317.5 382.75,317.375 368.5,321.25 357.0,329.125 348.625,340.625 343.5,354.75 341.125,370.875 341.125,388.0 343.125,405.125"/>
    <polyline points="346.375,421.75 350.625,437.375 355.375,451.625 360.375,464.5 365.375,476.0 370.375,485.875 375.125,494.625 379.625,502.0 387.875,513.625 391.625,518.125 398.25,525.125 404.0,529.875 408.875,533.0 416.375,536.5 422.625,538.125"/>
    <polyline points="423.5,538.25 425.375,538.5 426.5,539.125 424.125,540.375 412.625,544.375"/>
    <polyline points="411.0,545.0 395.5,550.875 383.25,556.125 371.875,561.625 358.0,569.0 347.125,575.375 334.625,583.375 320.5,593.125 304.875,605.125"/>
    <polyline points="296.5,611.875 279.875,626.875 272.0,634.625 265.0,642.375 259.375,649.375 255.625,655.375 254.5,659.625 256.5,661.5 261.75,660.375 270.375,656.0 281.875,648.5 295.875,638.0 311.5,625.0 327.75,610.5 344.0,595.25 374.0,564.75 398.75,537.625 443.5,486.125"/>
    <polyline points="448.0,481.25 455.25,473.75 460.875,468.75 465.5,465.5 469.25,463.5 474.125,462.125 476.875,461.875 490.25,463.375"/>
    <polyline points="491.25,463.5 494.75,463.5 497.0,463.125 499.125,462.375 500.75,461.25 502.375,459.125 503.125,457.0 503.25,454.5 502.875,452.5"/>
    <polyline points="502.625,451.5 500.875,446.75 497.5,441.375 493.875,437.0 487.625,431.25 482.0,427.375 477.875,425.125 471.75,422.75 467.75,422.0"/>
    <polyline points="465.75,421.875 462.25,422.125 460.625,422.625 457.875,424.125 456.75,425.125 455.75,426.375 454.5,429.25 454.0,430.875 453.75,434.5 453.875,436.375 454.75,440.375 457.0,446.375 460.25,452.25 465.75,459.25"/>
    <polyline points="467.25,460.875 475.125,467.625 478.25,469.75 486.125,473.875 492.0,476.0 496.25,477.125 501.375,477.875 503.875,477.875"/>
    <polyline points="505.0,477.875 508.5,477.625 513.5,476.125 515.25,475.25 518.375,472.75 520.625,469.25 521.375,467.0 521.875,464.5 521.75,460.125"/>
    <polyline points="521.5,458.375 520.0,452.625 518.125,448.125 513.875,440.5 509.875,434.875 504.75,428.625 494.875,418.875 486.875,412.375 482.5,409.25 473.0,403.625 468.125,401.25 458.125,397.625 453.25,396.5 448.625,396.0"/>
    <polyline points="444.125,396.125 440.0,396.75 436.25,398.125 433.0,400.0 430.25,402.625 428.125,405.625 426.375,409.25 425.25,413.125 424.75,417.375 424.625,421.875 425.0,426.5 426.875,435.875 428.375,440.5 432.125,449.25 436.5,457.375 443.875,467.75 449.0,473.5 456.625,480.5"/>
    <polyline points="459.0,482.5 463.75,485.875 470.5,490.0 474.625,492.25 478.625,494.0 489.0,497.875 496.125,499.75 502.375,500.875"/>
    <polyline points="503.5,501.125 511.75,501.875 517.125,501.875 521.375,501.5 526.25,500.625"/>
    <polyline points="527.0,500.375 531.125,499.25 537.75,496.25 542.75,492.75 547.5,487.625"/>
    <polyline points="548.25,486.5 550.75,481.5 551.25,479.875 552.25,474.5 552.375,470.125 551.75,465.0 550.375,459.0 549.25,455.5 546.0,447.625 537.625,432.875 533.625,427.25 523.375,414.375 517.125,407.25 509.75,399.875"/>
    <polyline points="501.5,392.125 492.25,384.25 482.125,376.5 471.0,368.875 459.25,362.0 447.0,356.0 434.75,351.375 422.5,348.5 411.125,347.625 400.625,349.0 391.625,352.625 384.375,358.5 378.75,366.25 375.125,375.75 373.125,386.25 372.625,397.5 373.5,409.0 375.5,420.5 378.25,431.625 381.5,442.125 385.25,451.875 389.25,460.75 397.375,476.125 401.5,482.625 405.5,488.25"/>
    <polyline points="409.25,493.25 413.0,497.625 419.875,504.75 428.75,512.125 433.875,515.5 442.25,519.75 447.125,521.625 456.25,524.25"/>
    <polyline points="456.625,524.375 457.5,524.75 457.625,525.25 453.125,526.25 447.125,526.625"/>
    <polyline points="446.125,526.75 440.625,526.75 433.5,525.75 431.25,525.125 429.125,524.125 427.5,522.625 426.25,520.625 425.875,517.875 426.125,516.125 427.875,511.625 429.625,508.75"/>
    <polyline points="431.875,505.5 435.0,501.625 444.25,491.75 459.0,478.75 469.0,470.75 481.0,461.75 495.25,451.875 511.875,441.25 530.875,430.125 551.75,419.125 574.25,409.0 597.125,400.5 619.625,394.875 640.125,392.625 657.625,394.375 671.25,400.25 680.75,409.625 686.25,421.75 688.375,435.625 687.875,450.125 685.375,464.625 681.625,478.5 677.25,491.125 672.5,502.625"/>
    <polyline points="667.75,512.625 663.0,521.25 658.5,528.625 654.25,534.875 650.25,540.0 646.5,544.125 642.875,547.5 636.125,552.0 633.0,553.375 627.125,555.0 621.625,555.125 616.375,554.25 609.25,551.875 604.875,549.875 595.25,544.25"/>
    <polyline points="593.5,543.125 586.25,537.75 579.375,531.375 576.0,526.875 575.25,525.0 575.0,522.5"/>
    <polyline points="575.125,522.0 576.0,519.75 577.25,518.125 579.625,515.875 583.75,513.0 594.125,506.625"/>
    <polyline points="595.5,505.625 601.125,501.5 606.75,495.875 609.5,492.125 611.75,487.5 612.75,484.875 614.0,478.375 613.875,469.875 613.0,464.625 611.625,458.625 609.25,451.5 605.875,443.25 601.0,433.625 594.5,422.125 585.75,408.75 574.25,393.0"/>
    <polyline points="559.25,374.75 540.25,353.625 516.375,330.0 487.125,304.5 452.625,278.625 414.0,254.875 373.25,236.875 333.875,228.375 300.125,232.375 274.875,249.625 259.5,278.0 253.25,313.625 254.0,352.25 259.0,390.375 266.125,425.625 273.875,456.875 281.375,483.875 294.0,525.375 303.625,553.25 307.75,563.25 311.625,571.0 315.375,576.75 319.25,581.0 323.25,583.75"/>
    <polyline points="327.5,585.125 332.125,585.5 337.125,584.875 342.25,583.375 347.75,581.25 353.375,578.5 364.875,571.75 376.5,564.25 408.0,542.75 416.75,537.125 424.625,532.375 431.75,528.5 443.875,523.0"/>
    <polyline points="446.375,522.0 453.375,519.75 462.625,517.625 471.75,516.75 478.875,517.0"/>
    <polyline points="479.25,517.125 480.625,517.375 481.0,517.875 480.125,518.25 477.25,518.625"/>
    <polyline points="476.75,518.75 470.125,518.75 465.125,518.0 462.375,517.0 460.625,515.875"/>
    <polyline points="460.125,515.375 459.125,513.5 458.875,511.75 459.625,508.375 461.125,505.375 463.875,501.625 467.875,497.0 477.625,488.125 487.0,480.75 492.875,476.625 506.625,467.75 514.625,463.0 532.875,453.625"/>
    <polyline points="542.75,449.25 552.875,445.375 563.25,442.0 573.375,439.5 583.125,437.875 592.125,437.5 600.125,438.25 607.125,440.25 612.625,443.25 616.875,447.375 619.875,452.25 621.625,457.625 622.25,463.5 621.875,469.5 620.75,475.5 619.0,481.25 616.875,486.75 614.25,492.0 608.625,501.0 605.625,504.75 599.5,511.125 596.625,513.625 591.0,517.5"/>
    <polyline points="588.25,519.0 583.25,521.25 576.625,523.0 569.25,523.375 566.25,523.125 561.25,522.0 556.875,520.125 554.0,518.0"/>
    <polyline points="553.625,517.625 552.375,515.125 552.625,513.0 555.125,509.375 558.5,506.25"/>
    <polyline points="525.0,513.625 533.125,513.375 542.375,512.125 547.0,511.0 552.0,509.25 559.25,505.625 563.75,501.5 568.0,496.875 569.75,494.625 573.0,489.0 574.375,485.5 575.375,481.25 575.875,476.25 575.625,470.125"/>
    <polyline points="575.125,466.625 573.0,458.25 569.0,447.875 566.0,441.625 557.375,427.125 551.5,418.5 544.25,409.0 535.5,398.5 525.0,387.0 512.625,374.625 498.125,361.625 481.625,348.375 463.25,335.5 443.375,323.625 422.625,314.0 401.875,307.375 382.125,304.875 364.625,307.25 350.25,314.375 339.5,326.125 332.625,341.625 329.25,359.75 328.75,379.125"/>
    <polyline points="330.75,398.75 334.25,417.75 338.875,435.625 344.0,452.0 349.375,466.5 354.75,479.25 360.0,490.375 364.875,499.875 369.5,508.0 377.875,520.5 381.625,525.25 388.25,532.375 393.875,537.125 398.625,540.25 402.75,542.125 406.125,543.25 411.5,544.0"/>
    <polyline points="412.5,544.125 416.0,544.125 417.0,544.375 414.5,545.75 405.75,549.25"/>
    <polyline points="404.25,550.0 394.625,554.125 381.5,560.5 367.875,567.875 355.5,575.25 346.125,581.25 330.625,592.25 314.125,605.375"/>
    <polyline points="308.75,610.125 303.625,614.875 295.125,623.625 290.375,630.5 290.0,632.5 291.125,633.375 293.875,632.75 298.375,630.625 304.625,626.875 312.25,621.625 330.625,607.125 340.875,598.5 361.75,580.125 414.25,531.5 420.875,525.5 432.625,515.625"/>
    <polyline points="437.875,511.625 447.0,505.125 454.875,500.5 461.625,497.125 470.5,494.0 475.5,492.875 482.375,491.875 486.375,491.625 501.5,491.875"/>
    <polyline points="503.0,491.875 512.125,491.75 517.875,491.125 525.25,489.125 529.125,487.25 530.875,486.0"/>
    <polyline points="531.75,485.375 534.125,483.125 536.375,480.25 538.0,476.75 538.875,473.875 539.375,470.625 539.25,464.75 537.75,457.375 535.625,451.375 532.25,444.5 527.625,436.625"/>
    <polyline points="524.625,432.25 517.125,422.625 507.5,412.125 495.375,401.0 488.375,395.25 480.875,389.75 472.75,384.625 464.375,379.875 455.625,375.75 446.875,372.375 438.125,370.125 429.875,369.125 422.125,369.375 415.125,371.125 409.0,374.25 404.0,378.625 400.25,384.125 397.5,390.75 395.875,398.0 395.375,405.875 395.75,414.0 396.875,422.25 398.625,430.25"/>
    <polyline points="401.0,438.125 403.75,445.625 406.75,452.625 413.375,465.125 416.75,470.625 420.25,475.625 427.0,484.125 436.5,493.75 442.375,498.5 447.625,502.25 454.75,506.375 458.875,508.375 467.375,511.75"/>
    <polyline points="468.875,512.125 481.25,515.625 483.625,516.5 483.875,516.875 483.375,517.375 480.5,518.0 475.25,518.25"/>
    <polyline points="474.625,518.25 470.5,518.0 467.0,517.375 463.75,516.0 462.25,514.625 461.5,513.5 461.125,512.0 461.25,510.125"/>
    <polyline points="461.5,509.0 462.625,506.375 464.625,503.125 467.875,499.125 472.625,494.25 483.375,485.125 493.625,477.625 499.75,473.625 506.5,469.375 522.125,460.5 540.125,452.125 549.625,448.375 559.25,445.125 568.875,442.625 578.0,441.0 586.625,440.25 594.5,440.75"/>
    <polyline points="601.25,442.125 606.875,444.75 611.375,448.125 614.625,452.375 616.625,457.25 617.625,462.5 617.75,468.125 617.0,473.625 615.625,479.125 613.75,484.375 611.5,489.375 609.0,494.0 606.25,498.25 603.375,502.125 597.625,508.5 591.875,513.25 584.0,518.125 579.125,520.125 572.75,521.625"/>
    <polyline points="570.875,521.875 565.625,522.0 562.75,521.75 555.875,520.125 551.125,517.5 550.0,516.375 549.125,514.875"/>
    <polyline points="549.0,514.5 548.875,513.75 549.25,512.125 550.5,510.125 553.125,507.375 558.25,502.875"/>
    <polyline points="559.0,502.25 564.75,496.375 568.125,491.625 571.0,485.375 572.0,481.375 572.5,476.625 572.375,470.875 572.0,467.5 570.25,459.75 568.75,455.125"/>
    <polyline points="566.75,450.125 560.75,438.125 556.625,431.125 551.5,423.375 545.125,414.75 537.5,405.125 528.375,394.75 517.625,383.5 505.0,371.625 490.5,359.25 474.25,347.0 456.375,335.25 437.25,325.0 417.75,317.0 398.5,312.25 380.75,311.375 365.25,315.0 352.625,323.0 343.5,334.875 337.875,350.0 335.25,367.125 335.375,385.375 337.375,403.75 340.875,421.375 345.375,438.0"/>
    <polyline points="350.375,453.0 355.5,466.625 360.75,478.5 365.75,488.875 370.625,497.75 375.25,505.375 383.5,517.375 387.125,521.875 390.625,525.625 396.625,531.375 399.375,533.5 404.125,536.5 410.0,539.25 415.625,540.75 419.375,541.25"/>
    <polyline points="420.0,541.25 421.5,541.5 421.625,541.875 418.5,543.375 403.875,549.0"/>
    <polyline points="401.875,549.75 389.75,555.0 373.25,563.125 356.0,572.75 340.125,582.875 328.125,591.25 315.0,601.25 301.5,612.5 288.625,624.5"/>
    <polyline points="283.125,630.375 278.625,635.75 275.375,640.375 273.875,643.875 274.5,645.75 277.375,645.75 282.75,643.625 290.25,639.25 299.875,632.625 323.375,614.0 336.125,602.75 361.75,579.0 385.0,556.125 420.75,520.0 433.75,507.375 444.25,498.0 452.875,491.25"/>
    <polyline points="456.625,488.625 466.25,483.25 471.5,481.25 476.25,479.875 484.375,478.75 500.125,478.625 505.25,478.25"/>
    <polyline points="506.375,478.125 510.75,477.125 513.625,476.0 515.5,475.0 518.5,472.375 520.25,469.75 521.625,465.25 521.75,460.875 521.25,457.5"/>
    <polyline points="520.875,455.75 518.625,449.5 516.25,444.625 513.0,439.375 508.625,433.5 503.375,427.375 496.875,420.875 485.0,411.125 480.5,408.125 471.0,402.75 461.125,398.625 456.125,397.25 451.375,396.5 446.75,396.125 442.5,396.5"/>
    <polyline points="438.625,397.5 435.125,399.125 432.0,401.25 429.5,404.0 427.5,407.25 426.125,411.0 425.25,415.0 424.875,419.375 425.5,428.5 426.5,433.125 429.25,442.375 431.125,446.75 435.375,455.0 440.125,462.375 447.625,471.75 452.75,476.875 460.125,483.125"/>
    <polyline points="462.5,484.875 471.5,490.375 481.375,495.0 492.75,498.75 504.125,501.0"/>
    <polyline points="505.25,501.125 510.375,501.625 516.0,501.75 521.125,501.375 527.625,500.125"/>
    <polyline points="528.5,499.875 535.875,497.0 540.125,494.5 544.25,491.125 546.625,488.5 548.75,485.25"/>
    <polyline points="549.375,484.0 550.625,481.375 551.5,478.125 552.0,474.375 552.125,470.0 551.0,462.0 550.125,458.75 547.5,451.5 543.375,442.875 540.625,438.0 533.25,427.0 528.625,420.75 523.125,414.125 516.75,407.125 509.375,399.75 501.125,392.0 491.875,384.125"/>
    <polyline points="481.75,376.375 470.75,368.875 459.0,362.0 446.75,356.125 434.5,351.625 422.375,348.75 411.0,348.0 400.625,349.375 391.75,353.125 384.5,358.875 379.0,366.75 375.375,376.125 373.375,386.625 373.0,397.875 373.875,409.375 375.875,420.75 378.625,431.75 381.875,442.125 385.625,451.875 393.625,468.875 401.75,482.5 405.75,488.125 413.25,497.5"/>
    <polyline points="416.75,501.25 420.125,504.625 426.25,509.875 431.75,513.75 436.5,516.625 440.625,518.75 445.875,520.875 457.25,524.375"/>
    <polyline points="457.625,524.5 458.0,524.875 457.875,525.125 455.875,525.75 445.75,526.625"/>
    <polyline points="444.625,526.625 437.75,526.25 434.25,525.625 432.0,524.875 429.0,523.25 427.625,521.625 427.125,520.5 426.75,519.25 427.0,516.0 428.625,511.625 432.5,505.625 435.5,501.75"/>
    <polyline points="439.5,497.375 451.0,486.25 458.875,479.5 468.625,471.625 480.25,462.875 494.0,453.25 510.25,442.875 528.625,432.0 549.0,421.125 571.0,411.0 593.5,402.5 615.75,396.5 636.25,393.875 653.875,395.125 667.875,400.25 677.875,409.0 684.0,420.5 686.5,433.875 686.375,448.125 684.25,462.375 680.75,476.125 676.5,488.875 671.875,500.25 667.125,510.375 662.5,519.125"/>
    <polyline points="658.0,526.625 649.625,538.25 645.75,542.5 642.125,545.875 638.75,548.625 635.5,550.625 629.25,553.125 623.625,554.125 621.0,554.125 618.375,553.875 613.375,552.75 608.75,551.25 602.5,548.25 596.875,545.0 591.875,541.625"/>
    <polyline points="590.375,540.625 584.125,535.625 580.5,532.125 577.875,529.0 576.125,525.625 575.875,522.625 576.25,521.5"/>
    <polyline points="576.375,520.875 577.875,518.75 580.875,516.0 598.75,504.875"/>
    <polyline points="600.125,503.875 603.125,501.625 607.625,497.625 610.5,494.125 613.125,490.0 614.25,487.625 616.0,481.75 616.5,478.25 616.625,474.25 616.375,469.625 615.5,464.25 614.0,458.0 611.625,450.75 608.0,442.25 603.0,432.125 596.0,420.25 586.75,406.125 574.5,389.625 558.5,370.375 538.125,348.125"/>
    <polyline points="512.625,323.25 481.375,296.5 444.625,269.75 403.75,245.875 361.5,228.875 321.625,222.75 288.375,230.375 264.875,251.625 251.75,283.625 247.75,322.0 250.125,362.375 256.25,401.25 263.875,436.625 271.875,467.5 279.125,493.75 291.25,534.0 300.375,560.625 304.375,569.875 308.125,577.0 312.125,582.25 316.125,585.875 320.625,587.875 325.375,588.625 330.5,588.25"/>
    <polyline points="336.125,586.75 341.875,584.5 348.0,581.625 360.625,574.25 379.625,561.5 407.75,541.625 425.75,530.125 433.375,525.875 440.125,522.625 446.25,520.0 454.125,517.25"/>
    <polyline points="456.375,516.625 460.75,515.5 466.375,514.5 472.625,513.875 479.625,513.75 486.75,514.375"/>
    <polyline points="487.125,514.5 488.625,514.75 489.875,515.375 489.75,515.875 488.375,516.375"/>
    <polyline points="488.125,516.375 482.25,517.125 475.5,517.0"/>
    <polyline points="474.875,517.0 471.5,516.5 468.25,515.375 466.625,514.25 465.75,513.25 465.25,512.125 465.0,509.75 466.125,506.375 467.75,503.625"/>
    <polyline points="468.875,501.875 474.25,495.875 479.75,490.875 487.125,485.0 496.625,478.25 502.25,474.625 508.375,470.75 522.5,463.0 538.5,455.625 547.0,452.375 555.5,449.5 564.0,447.25 572.25,445.75 580.0,445.0 587.125,445.25 593.375,446.25 598.75,448.25 603.0,451.0 606.25,454.5"/>
    <polyline points="608.625,458.5 609.875,463.0 610.375,467.75 610.125,472.625 609.25,477.5 607.75,482.25 605.875,486.875 603.75,491.125 598.875,498.75 593.5,504.875 590.75,507.5 588.125,509.75 582.875,513.5 577.875,516.125 573.375,517.875 567.25,519.375 562.0,519.875"/>
    <polyline points="560.375,519.875 556.125,519.625 549.75,518.25 545.25,516.125 543.75,514.875 542.875,513.375"/>
    <polyline points="542.875,513.0 543.0,511.375 544.375,509.375 546.75,507.125 551.5,503.375"/>
    <polyline points="552.125,502.875 555.125,500.375 559.125,496.375 562.375,492.25 564.625,488.25 566.5,483.375 567.375,479.375 567.625,477.0 567.375,468.75"/>
    <polyline points="566.75,465.5 566.0,461.75 564.75,457.75 561.125,448.25 558.375,442.75 550.875,430.0 539.625,414.25 532.25,405.375 523.5,395.625 513.375,385.25 501.5,374.375 488.125,363.25 473.125,352.125 456.875,341.75 439.625,332.625 422.0,325.625 404.625,321.25 388.5,320.375 374.25,323.25 362.625,330.0 353.75,340.25 348.0,353.25 345.0,368.25"/>
    <polyline points="344.375,384.5 345.75,401.0 348.625,417.25 352.5,432.625 356.875,446.875 361.75,459.75 366.625,471.25 371.625,481.5 380.875,497.875 385.25,504.5 389.25,510.0 396.625,518.75 403.0,524.75 408.5,529.0 413.125,531.875 417.0,533.75 423.0,535.75"/>
    <polyline points="424.125,536.0 428.625,537.0 429.5,537.375 429.5,537.625 426.875,538.875 419.75,541.25"/>
    <polyline points="418.375,541.625 398.25,548.625 382.625,555.0 370.75,560.5 350.5,571.25 331.125,583.375"/>
    <polyline points="323.625,588.375 307.0,600.375 298.0,607.375 288.5,615.125 278.875,623.5 269.25,632.5 260.125,641.75 251.875,651.0 245.375,659.5 241.25,666.5 240.5,671.25 243.625,673.0 251.125,670.75 262.625,664.375 277.625,653.875 295.125,640.0 314.0,623.625 333.0,605.625 351.25,587.375 368.125,569.375 383.25,552.375 396.5,536.75 408.0,522.75 425.875,499.625"/>
    <polyline points="432.75,490.25 457.25,455.625 461.625,451.0 463.75,449.625 466.375,449.25 469.625,450.75 474.75,454.625"/>
    <polyline points="475.625,455.375 482.25,459.625 487.125,461.75 492.5,463.0 495.75,463.0 497.875,462.5"/>
    <polyline points="498.5,462.25 500.75,460.875 502.0,459.375 502.75,457.375 503.0,454.125 501.625,448.75 499.75,445.125 497.0,441.0"/>
    <polyline points="495.875,439.625 491.875,435.25 485.25,429.75 481.375,427.25 477.375,425.125 471.25,422.875 465.5,422.125 462.125,422.5 460.5,423.0 457.875,424.625 455.875,426.875 455.25,428.25"/>
    <polyline points="454.625,429.875 454.125,435.125 454.75,438.875 456.625,444.875 459.625,450.75 463.5,456.25 467.875,461.125 474.0,466.5 480.375,470.625"/>
    <polyline points="481.875,471.5 488.0,474.375 492.375,475.875 497.875,477.125 504.125,477.625 506.375,477.5 509.625,477.0 513.5,475.625"/>
    <polyline points="514.375,475.125 516.875,473.5 518.875,471.25 520.0,469.5 521.125,466.25 521.5,462.25 521.25,459.0 520.5,455.5 519.125,451.375 515.875,444.5 512.5,439.125"/>
    <polyline points="510.5,436.375 505.75,430.375 499.875,424.0 492.75,417.5 484.625,411.25 480.125,408.25 470.75,403.0 465.875,400.75 456.125,397.625 451.375,396.875 446.875,396.625 442.625,397.0 438.75,398.0 435.375,399.5 432.375,401.75 429.875,404.5 428.0,407.75 426.5,411.375 425.625,415.375 425.375,419.75"/>
    <polyline points="425.375,424.125 426.875,433.375 429.75,442.375 433.625,451.0 435.75,455.0 443.0,465.625 450.5,474.25 458.0,481.0 467.375,487.625 477.75,493.125"/>
    <polyline points="479.75,494.0 489.875,497.625 498.375,499.75 507.625,501.125 512.625,501.375"/>
    <polyline points="513.625,501.375 517.25,501.375 523.25,500.75 529.875,499.125 534.875,497.125"/>
    <polyline points="535.625,496.75 538.25,495.375 543.25,491.625 545.625,489.125 547.875,486.125 550.375,480.875 551.25,477.625 551.75,473.875 551.75,469.5"/>
    <polyline points="551.5,467.0 550.5,461.25 549.625,458.125 546.875,450.75 544.875,446.625 539.75,437.125 536.25,431.75 527.375,419.75 521.75,413.0 507.75,398.5 499.375,390.875 490.125,383.125 479.875,375.5 468.75,368.125 457.0,361.5 444.875,355.875 432.75,351.625 420.875,349.125 409.75,348.625 399.625,350.375 391.0,354.375"/>
    <polyline points="384.125,360.5 379.0,368.5 375.625,378.0 373.875,388.625 373.75,399.75 374.75,411.125 376.75,422.375 379.625,433.25 383.0,443.5 386.75,453.0 390.625,461.75 394.75,469.625 398.75,476.75 406.75,488.625 414.25,497.75 421.0,504.625 429.875,511.875 439.375,517.5"/>
    <polyline points="441.375,518.5 449.5,521.625 458.0,524.125 458.75,524.625 458.125,525.125"/>
    <polyline points="457.875,525.125 453.75,525.875 448.75,526.25 441.25,526.125 436.625,525.5"/>
    <polyline points="435.5,525.25 431.375,523.5 429.0,521.25 428.25,518.875 428.5,515.75 430.125,511.375 434.0,505.5 436.875,501.75 445.625,492.5 459.5,480.125 468.75,472.625 479.875,464.25 493.25,455.0 508.625,444.875 526.25,434.375"/>
    <polyline points="545.875,423.875 567.0,414.0 588.875,405.625 610.375,399.375 630.625,396.25 648.375,396.75 662.625,401.125 673.125,408.875 679.875,419.5 683.125,432.0 683.5,445.625 681.875,459.5 678.75,473.0 674.75,485.5 670.25,497.0 665.625,507.125 661.0,516.0 656.5,523.5 652.25,530.0 648.125,535.25 644.25,539.75 640.625,543.25 637.125,546.125 633.875,548.25 630.75,549.875 627.75,551.0"/>
    <polyline points="624.875,551.75 619.5,552.25 614.5,551.75 607.625,549.75 603.5,548.0 596.125,544.0 591.5,540.875 586.375,537.0 581.625,532.625"/>
    <polyline points="580.875,531.75 578.25,528.125 577.375,526.125 577.0,524.25 577.25,522.5 578.0,520.875 580.25,518.25 582.375,516.625"/>
    <polyline points="583.125,516.125 586.75,513.75 596.375,508.5 603.75,504.0 606.875,501.75 613.125,496.0 616.0,492.125"/>
    <polyline points="617.375,490.0 619.625,484.625 620.375,481.375 621.125,473.5 620.75,468.625 619.75,462.875 618.0,456.25 615.25,448.375 611.125,439.125 605.375,428.125 597.5,415.125 586.875,399.625 572.875,381.25 554.5,359.75 531.0,335.125 501.625,307.75 466.0,278.875 424.75,251.125 380.0,228.25 335.5,215.125 296.125,215.75 266.0,231.75 247.25,261.5 239.375,300.375"/>
    <polyline points="239.75,343.125 245.125,385.625 252.875,424.625 261.125,459.125 268.875,488.625 281.5,533.625 286.5,550.125 290.875,563.5 294.875,573.875 298.75,581.875 302.875,587.625 307.25,591.5 312.125,593.625 317.5,594.125 323.5,593.25 329.875,591.25 336.625,588.25 351.125,580.0 366.0,570.0 393.75,549.5"/>
    <polyline points="400.0,544.875 416.75,532.875 426.375,526.625 434.875,521.625 442.375,517.75 452.125,513.75 462.75,510.5 473.375,508.875 480.125,508.5"/>
    <polyline points="481.625,508.5 491.25,508.875 503.25,510.25"/>
    <line x1="503.625" x2="510.625" y1="510.375" y2="511.125"/>
    <polyline points="510.875,511.125 513.25,511.25 515.25,511.0 524.375,508.5"/>
    <polyline points="524.75,508.375 531.0,506.125 536.625,503.5"/>
    <polyline points="537.25,503.25 542.875,500.125 548.375,496.0 553.125,491.0 556.0,486.25"/>
    <polyline points="556.625,484.875 558.25,480.0 558.875,473.75 558.75,468.625 556.75,459.0 553.75,451.0 551.625,446.375 545.875,435.75 541.875,429.625 537.25,423.0 525.0,408.0 517.375,399.75 508.5,391.0 498.5,381.875 487.25,372.75 474.75,363.75"/>
    <polyline points="461.375,355.25 447.25,347.625 432.75,341.625 418.375,337.625 404.75,336.125 392.375,337.375 381.75,341.5 373.125,348.375 366.875,357.75 362.875,369.0 360.875,381.625 360.75,395.0 362.125,408.5 364.625,421.75 368.0,434.5 371.875,446.375 376.125,457.125 380.625,467.0 389.5,483.5 393.75,490.25 401.875,501.25 405.5,505.625 412.375,512.625"/>
    <polyline points="415.5,515.25 421.125,519.625 425.875,522.625 432.0,525.625 436.625,527.375 444.625,529.625 445.125,530.25"/>
    <polyline points="444.875,530.375 442.5,531.25 438.625,532.125 418.75,535.375"/>
    <polyline points="416.875,535.625 406.375,537.0 391.75,538.375 381.125,538.75 373.5,538.125 368.75,536.875 366.75,536.0 365.0,534.75 363.75,533.0 363.0,530.75 363.0,527.875"/>
    <polyline points="364.0,524.0 366.375,519.125 370.375,512.75 376.875,504.5 386.5,493.875 400.25,480.25 419.5,463.0 445.75,441.375 480.625,415.0 525.375,384.625 579.75,352.125 641.0,322.125 702.625,301.125 756.0,295.875 793.75,309.25 813.625,338.875 818.75,378.5 814.625,421.625 806.625,463.375 790.25,535.0 774.0,610.25 768.875,627.625 762.75,641.25"/>
    <polyline points="754.875,650.875 745.125,656.375 733.375,657.875 720.0,655.375 705.375,649.5 690.0,640.75 674.625,630.125 659.75,618.125 645.875,605.625 633.0,593.125 621.5,581.125 611.25,569.875 594.625,550.25 563.875,511.5 559.5,506.625 554.375,502.375"/>
    <polyline points="553.0,501.5 549.125,500.25 544.375,500.375 540.875,501.125 528.625,504.875 524.375,505.875"/>
    <polyline points="523.375,506.125 518.375,507.25 511.875,508.25 506.875,508.75 501.625,508.875"/>
    <polyline points="500.875,508.875 497.625,508.625 493.375,507.5 492.25,506.75 491.25,505.375 491.25,502.875"/>
    <polyline points="491.5,502.25 492.125,500.875 493.875,498.5 496.625,495.625 500.625,492.25 508.0,487.25 515.125,483.125 520.625,480.5 526.5,478.0 535.75,475.0"/>
    <polyline points="538.75,474.25 544.625,473.25 550.125,473.0 552.625,473.25 556.875,474.125 558.625,474.875 561.5,476.875 562.5,478.125 563.25,479.5 563.875,482.5 563.875,484.0 563.25,487.25 561.0,492.0 557.625,496.375 554.875,498.875"/>
    <polyline points="553.5,500.0 550.625,502.125 546.125,504.75 540.25,507.25 532.0,509.75 520.5,511.625"/>
    <line x1="519.5" x2="499.25" y1="511.75" y2="513.375"/>
    <polyline points="498.5,513.5 487.375,513.625 481.625,512.625"/>
    <polyline points="481.125,512.375 479.0,511.375 477.5,509.75 477.0,508.125 477.25,505.875 478.625,503.0 481.25,499.375 485.875,494.625 490.25,490.875"/>
    <polyline points="492.875,488.875 506.5,479.625 515.375,474.625 525.375,469.625 536.375,465.125 542.0,463.25 547.625,461.5 558.625,459.25 563.75,458.875 568.625,458.875 573.0,459.25 576.75,460.25 580.125,461.75 582.875,463.5 585.0,465.75 586.625,468.25 587.625,471.125 588.125,474.0 588.125,477.125"/>
    <polyline points="587.75,480.125 585.75,486.25 582.875,492.0 577.125,499.25 570.875,504.875 564.625,508.875 556.75,512.25 549.75,514.0 543.875,514.75"/>
    <polyline points="542.5,514.875 532.875,514.75 526.125,513.875 523.5,513.25"/>
    <polyline points="523.125,513.25 520.25,512.375 519.5,511.875 519.375,511.375 520.75,510.375 531.0,506.375"/>
    <polyline points="531.5,506.25 540.375,501.875 544.75,499.125 547.875,496.75"/>
    <polyline points="548.625,496.0 551.875,492.875 554.25,489.875 556.375,486.125 558.5,479.75 559.125,475.75 558.875,468.25 557.75,462.125 555.5,454.625 551.625,445.75"/>
    <polyline points="548.875,440.5 541.5,428.75 536.625,422.0 530.875,414.625 524.125,406.75 516.25,398.375 507.25,389.5 497.0,380.375 485.5,371.125 472.75,362.125 459.125,353.625 444.875,346.25 430.25,340.5 416.0,336.875 402.375,335.75 390.25,337.375 379.875,342.0 371.625,349.375 365.625,359.125 362.0,370.75 360.375,383.625 360.5,397.125 362.125,410.75 364.75,424.0 368.25,436.625"/>
    <polyline points="372.25,448.375 381.0,468.75 385.5,477.375 394.125,491.5 402.125,502.25 409.375,510.25 412.625,513.375 418.5,518.25 423.625,521.75 428.125,524.25 433.625,526.625 440.875,528.875"/>
    <polyline points="441.625,529.125 444.75,530.25 444.25,530.75 441.875,531.5 434.625,533.0"/>
    <polyline points="433.375,533.125 421.25,535.25 404.75,537.625 394.75,538.875 381.125,540.0"/>
    <polyline points="378.25,540.125 366.875,540.0 364.25,539.625 359.25,538.25 357.25,537.125 355.625,535.5 354.375,533.5 354.0,530.75 354.625,527.125 356.5,522.375 360.125,516.0 366.25,507.75 375.75,497.0 389.5,483.0 409.25,464.75 436.75,441.625 474.125,413.0 522.75,379.375 582.875,342.875 651.125,309.125 719.625,286.25 777.375,282.125"/>
    <polyline points="816.125,300.125 834.25,336.125 836.5,382.125 830.0,430.375 820.625,476.125 811.75,517.125 804.5,553.125 794.125,610.875 789.375,633.25 783.25,651.125 775.125,664.125 764.375,672.0 750.875,674.375 734.875,671.625 717.25,664.25 698.875,653.125 680.5,639.5 663.0,624.25 647.0,608.75 632.625,593.375 620.125,578.875 609.5,565.5 600.625,553.5 593.125,542.875 587.125,533.625"/>
    <polyline points="582.125,525.75 578.125,519.0 567.375,499.0 565.25,495.625 563.5,494.0 561.875,493.5 559.25,494.25 547.5,501.125"/>
    <polyline points="546.125,501.875 540.75,504.25 531.5,507.375 523.25,509.25 515.875,510.375"/>
    <polyline points="514.875,510.5 502.0,511.75 494.5,511.875"/>
    <polyline points="493.75,511.875 487.25,511.0 484.75,509.875 483.875,509.25 483.0,508.0 482.625,506.5 482.75,505.25"/>
    <polyline points="483.0,504.5 484.875,500.875 487.75,497.375 494.25,491.625 504.375,484.375 514.625,478.5 526.875,472.625 535.75,469.25 544.75,466.625"/>
    <polyline points="549.25,465.75 557.625,464.75 561.375,464.75 564.875,465.125 568.0,465.875 570.75,467.0 573.125,468.375 575.0,470.0 576.375,471.875 577.375,474.0 578.25,478.5 577.625,483.375 576.875,485.75 574.625,490.5 571.75,494.75 568.5,498.5 566.75,500.25 561.125,504.5"/>
    <line x1="524.125" x2="509.5" y1="513.625" y2="513.75"/>
    <line x1="509.125" x2="498.875" y1="513.75" y2="514.625"/>
    <polyline points="498.375,514.625 489.75,515.5 484.875,515.625"/>
    <polyline points="484.25,515.625 477.625,515.125 473.875,514.0 471.875,512.625 471.125,511.75 470.5,509.875"/>
    <polyline points="470.5,509.125 470.75,507.375 472.25,504.125 475.375,499.75 478.75,496.125 486.25,489.5 497.375,481.375 512.5,472.0 524.875,465.625 531.5,462.5 538.5,459.75 545.5,457.125 552.75,454.875"/>
    <polyline points="559.75,453.25 566.625,452.0 573.0,451.5 578.875,451.625 584.25,452.5 588.75,454.0 592.625,456.125 595.625,458.875 597.75,462.0 599.25,465.5 599.875,469.375 600.0,473.25 599.5,477.25 598.5,481.25 597.125,485.125 595.5,488.75 593.5,492.25 589.125,498.5 586.75,501.25 581.875,505.875 579.5,507.75 572.375,512.125"/>
    <polyline points="570.125,513.25 565.875,514.875 560.125,516.5 553.5,517.25 544.75,516.875 541.875,516.375 537.75,515.125"/>
    <polyline points="537.25,514.875 534.5,513.5 533.625,512.5 533.375,511.375 534.375,509.75"/>
    <polyline points="534.625,509.5 536.0,508.25 546.875,501.125"/>
    <polyline points="547.5,500.625 552.25,496.75 556.25,492.375 558.5,489.0 559.875,486.25 561.5,481.375 562.25,477.375 562.375,472.625 561.875,466.875"/>
    <polyline points="561.25,463.625 559.125,456.25 555.375,447.125 549.5,436.125 545.5,429.75 540.625,422.75 534.75,415.125 527.875,406.875 519.75,398.0 510.375,388.625 499.625,378.875 487.5,368.875 474.125,359.125 459.5,349.875 444.25,341.75 428.5,335.375 413.0,331.25 398.375,329.875 385.25,331.75 374.25,336.75 365.5,344.875 359.375,355.625 355.625,368.375"/>
    <polyline points="354.25,382.375 354.625,397.0 356.625,411.625 359.625,425.875 363.5,439.125 367.75,451.5 372.375,462.625 377.0,472.625 381.625,481.5 390.5,495.875 394.625,501.625 402.125,510.875 408.875,517.5 417.25,524.0 423.875,527.75 430.5,530.375"/>
    <polyline points="431.75,530.75 438.75,532.875 437.625,533.75 431.875,535.375"/>
    <polyline points="430.75,535.625 401.5,542.875 386.375,547.375 370.875,552.875"/>
    <polyline points="366.375,554.75 356.25,559.0 337.875,568.0 330.5,572.0 313.5,582.25 303.5,588.75 280.125,605.375 266.625,616.0 251.625,628.375 235.625,642.75 218.875,658.875 202.5,676.5 187.875,694.375 177.25,710.75 173.5,723.125 179.0,728.375 194.875,723.75 220.5,708.625 252.875,683.875 287.75,652.625 321.5,618.125"/>
    <polyline points="351.5,583.5 376.375,550.875 395.875,521.25 410.375,495.125 420.25,472.5 426.375,453.125 429.375,436.625 429.875,422.75 428.25,411.375 425.375,402.25 421.375,395.25 416.75,390.25 412.0,387.25 407.375,386.0 403.125,386.625 399.5,388.875 396.625,392.5 394.625,397.25 393.5,403.0 393.25,409.5 393.875,416.5 395.125,423.625 396.875,430.875 399.25,438.0 405.0,451.5"/>
    <polyline points="408.25,457.625 415.125,468.75 422.0,478.0 432.125,488.75 438.375,494.125 444.125,498.375 454.25,504.375 464.5,508.875 472.25,511.375"/>
    <polyline points="473.5,511.75 485.375,514.875 487.625,515.875 487.375,516.375 486.0,516.875 480.5,517.5"/>
    <polyline points="480.0,517.5 475.0,517.5 470.875,517.0 468.875,516.5 466.375,515.375 464.5,513.625"/>
    <polyline points="464.125,513.0 463.75,511.625 464.0,508.875 464.875,506.5 466.625,503.5 469.375,500.0 473.5,495.625 482.875,487.375 491.75,480.625 503.125,473.125 509.625,469.25 524.625,461.125 532.75,457.125 541.375,453.5"/>
    <polyline points="550.25,450.125 559.25,447.375 568.0,445.25 576.375,443.875 584.25,443.5 591.375,444.0 597.5,445.375 602.75,447.75 606.75,451.0 609.75,454.875 611.75,459.375 612.75,464.125 612.875,469.25 612.25,474.375 611.0,479.375 609.375,484.25 607.25,488.875 604.875,493.125 602.375,497.125 599.625,500.75 596.875,504.0 591.375,509.375 583.375,515.0"/>
    <polyline points="580.875,516.25 576.125,518.25 569.75,520.0 562.75,520.625 557.125,520.125 552.75,519.125 550.25,518.25 547.25,516.5"/>
    <polyline points="546.875,516.25 545.125,514.25 544.875,512.5 545.875,510.375 548.875,507.25"/>
    <polyline points="549.375,506.875 555.125,502.125 560.625,496.75 564.625,491.25 567.5,485.25"/>
    <polyline points="568.0,483.5 568.875,479.375 569.25,474.375 568.25,465.0 566.0,457.125 562.125,447.25 555.75,435.25 551.25,428.125 545.875,420.375 539.25,411.75 531.5,402.375 522.125,392.25 511.25,381.5 498.75,370.125 484.5,358.625 468.625,347.25 451.5,336.75 433.5,327.875 415.375,321.25"/>
    <polyline points="397.75,317.875 381.625,318.125 367.625,322.375 356.625,330.625 348.625,342.25 343.625,356.625 341.625,372.75 341.75,389.75 343.875,406.75 347.25,423.25 351.5,438.625 356.25,452.75 361.25,465.375 366.25,476.625 371.25,486.5 376.0,495.0 384.625,508.5 388.625,513.75 395.75,521.875 399.0,525.0 404.625,529.625 409.5,532.75"/>
    <polyline points="411.625,534.0 418.5,536.75 425.875,538.25 427.0,538.875 426.125,539.5 423.75,540.375"/>
    <polyline points="423.0,540.75 409.5,545.375 393.125,551.625 376.375,559.125 363.5,565.75"/>
    <polyline points="358.5,568.5 341.625,578.5 321.0,592.5 305.125,604.5 288.0,618.75 279.5,626.5 271.375,634.5 264.125,642.5 258.0,649.875 254.0,656.25 252.5,660.75 254.0,663.0 259.0,662.25 267.5,658.25 279.25,650.75 293.375,640.125 309.25,627.125 325.875,612.25 342.5,596.625 358.375,580.75"/>
    <polyline points="373.125,565.25 398.5,537.375 443.625,484.5 455.0,472.0 460.5,466.875 464.875,463.625 468.5,461.625 473.125,460.25 477.0,460.125 479.375,460.375"/>
    <polyline points="480.5,460.5 488.5,462.125 492.875,462.5 496.625,462.0 498.5,461.25 500.5,459.625"/>
    <polyline points="500.875,459.125 501.875,456.5 502.0,454.125 501.25,450.375 499.875,447.0 496.75,441.875 494.625,439.25 492.125,436.5 487.625,432.5"/>
    <polyline points="486.0,431.25 478.75,426.75 473.0,424.5 469.25,423.625 467.5,423.5 464.125,423.625 462.625,424.0 461.25,424.5 458.875,426.125 457.875,427.125 456.5,429.625 456.0,431.125 455.625,434.375 456.25,439.75"/>
    <polyline points="456.75,441.625 458.125,445.375 460.0,449.125 462.25,452.75 467.5,459.25 473.375,464.625 479.5,468.875 484.0,471.375 489.875,473.75"/>
    <polyline points="491.25,474.25 498.0,475.75 501.625,476.125 506.25,476.0 509.375,475.375 513.0,473.875 515.375,472.125 517.25,470.0"/>
    <polyline points="517.875,469.125 519.375,465.0 519.625,462.375 519.5,459.5 519.0,456.125 517.875,452.375 515.0,446.0 510.375,438.5 503.75,430.125 494.625,421.0 491.125,418.0"/>
    <polyline points="487.375,415.125 479.125,409.5 474.75,407.0 470.25,404.625 461.125,401.125 456.625,400.0 452.25,399.375 448.125,399.25 444.25,399.75 440.625,400.75 437.5,402.25 434.75,404.375 432.5,407.0 430.75,410.0 429.375,413.375 428.625,417.125 428.25,421.125 428.875,429.625 429.75,433.875 432.375,442.375 436.0,450.375"/>
    <polyline points="438.125,454.25 444.875,464.375 449.75,470.125 454.625,475.0 461.875,481.125 466.375,484.375 475.0,489.375 484.5,493.625 491.125,495.75"/>
    <polyline points="492.625,496.25 501.0,498.125 509.375,499.125 516.5,499.25 521.25,498.875"/>
    <polyline points="522.125,498.625 529.375,497.0 534.625,494.75 538.875,492.125 541.5,490.0 543.875,487.5"/>
    <polyline points="544.625,486.5 547.25,481.875 548.25,479.0 549.0,475.625 549.375,471.75 549.125,467.125 548.25,461.75 546.375,455.375 545.0,451.75 541.125,443.625 535.375,434.0 527.25,422.875 522.25,416.625 516.375,410.0"/>
    <polyline points="509.625,403.125 493.625,388.625 484.25,381.375 474.125,374.375 463.375,367.75 452.125,362.0 440.625,357.375 429.25,354.25 418.375,352.75 408.25,353.375 399.375,355.875 391.875,360.5 386.0,367.0 381.875,375.0 379.25,384.25 378.125,394.375 378.25,405.0 379.5,415.75 381.75,426.25 384.5,436.375 387.875,445.875 391.5,454.75 399.25,470.125 403.25,476.75"/>
    <polyline points="407.125,482.625 414.625,492.375 418.25,496.375 424.875,503.0 430.875,507.875 438.625,513.125 445.125,516.5 453.25,519.625 460.125,521.625"/>
    <polyline points="460.875,521.75 463.5,522.875 463.25,523.25 461.375,523.75 457.25,524.125"/>
    <polyline points="456.5,524.125 450.375,524.125 445.5,523.5 440.75,521.875 439.25,520.75 438.0,519.125 437.375,517.125 437.5,514.375"/>
    <polyline points="438.0,512.625 438.875,510.625 441.75,505.75 444.125,502.75 450.75,495.375 455.375,490.875 468.0,480.0 485.875,466.5 497.25,458.75 510.25,450.5 524.875,442.0 540.875,433.5 558.125,425.5 576.0,418.5 593.875,413.0 611.0,409.75 626.5,409.0 639.75,411.0 650.25,415.75 657.75,422.875 662.5,432.0 664.75,442.375"/>
    <polyline points="664.875,453.375 663.5,464.5 660.875,475.25 657.375,485.375 653.5,494.625 649.5,502.875 645.25,510.25 641.125,516.625 637.125,522.0 629.625,530.25 626.125,533.375 622.875,535.875 616.75,539.25 614.0,540.25 608.75,541.5 604.125,541.625 600.0,541.25 593.0,539.0"/>
    <polyline points="591.5,538.375 585.25,534.625 581.625,531.75 580.25,530.25 578.375,527.625 577.625,525.75 577.5,523.375 578.0,521.75"/>
    <polyline points="578.375,521.25 578.625,520.625 581.125,518.0 584.125,515.875 602.375,505.625"/>
    <polyline points="603.875,504.625 608.625,501.375 615.125,495.375 619.375,489.125 621.5,483.5 622.25,480.125 622.625,476.125 622.625,471.625 622.0,466.375 620.75,460.25 618.625,453.125 615.25,444.5 610.5,434.5 603.75,422.5 594.625,408.125 582.375,391.125 566.25,371.0 545.25,347.625"/>
    <polyline points="518.625,321.125 485.625,292.125 446.25,262.75 402.0,236.125 355.75,217.0 312.25,210.125 276.375,218.875 251.625,243.0 238.625,279.125 235.625,321.75 239.125,365.75 246.25,407.5 254.625,444.875 262.75,477.25 270.0,504.375 281.5,545.5 286.0,560.375 290.125,572.125 294.125,581.125 298.125,587.875 302.5,592.5 307.375,595.125 312.875,596.125 318.875,595.5 325.5,593.625"/>
    <polyline points="332.5,590.625 340.0,586.75 347.625,582.125 363.25,571.625 405.25,540.125 416.5,532.0 426.5,525.375 435.375,520.0 446.625,514.375 453.125,511.75 464.125,508.5"/>
    <polyline points="466.5,508.0 473.0,507.0 482.0,506.5 490.375,506.75 501.25,507.75"/>
    <polyline points="502.0,507.75 509.5,508.5 515.5,508.5"/>
    <polyline points="516.0,508.5 522.625,507.625 526.625,506.5"/>
    <polyline points="527.125,506.375 532.0,504.75 536.375,502.875 542.75,499.25"/>
    <polyline points="543.5,498.75 548.375,495.0 550.75,492.5 553.125,489.625 555.875,484.625 557.375,479.75 558.0,475.75 558.125,471.125 557.5,465.625"/>
    <polyline points="556.875,462.5 554.625,455.25 551.0,446.5 545.25,436.125 536.75,423.625 531.25,416.5 524.875,408.875 517.375,400.75 508.75,392.125 498.875,383.25 487.875,374.25 475.75,365.375 462.625,357.0 448.875,349.5 434.625,343.5 420.5,339.375 407.125,337.625 394.75,338.5 384.125,342.25 375.5,348.75 369.0,357.625 364.75,368.375"/>
    <polyline points="362.625,380.625 362.25,393.625 363.375,407.0 365.625,420.0 368.875,432.625 372.625,444.375 376.875,455.25 381.125,465.0 385.625,473.875 394.25,488.5 398.375,494.5 406.125,504.125 413.0,511.25 419.0,516.375 424.375,520.125 428.875,522.75 436.125,526.0"/>
    <polyline points="437.625,526.5 445.625,528.75 446.75,529.375 445.875,530.0 442.5,530.875"/>
    <polyline points="441.625,531.0 435.625,532.125 418.625,534.375 402.375,535.375"/>
    <polyline points="400.125,535.375 395.75,535.25 389.5,534.25 385.875,532.875 384.25,531.875 383.0,530.625 382.125,529.0 381.625,526.875 381.75,524.25 382.75,520.875 384.75,516.75 388.125,511.5 393.125,504.875 400.375,496.625 410.5,486.375 424.375,473.75 442.625,458.125 466.625,439.5 497.0,417.75 534.5,393.5 578.25,368.75 626.25,346.375"/>
    <polyline points="674.375,330.5 717.125,325.25 749.875,332.75 770.125,352.125 779.0,380.0 779.375,412.375 774.625,445.375 767.75,476.5 760.375,504.625 747.375,550.75 737.25,584.25 732.5,596.875 727.5,607.0 722.0,614.625 715.875,620.125 708.75,623.25 700.875,624.25 692.25,623.25 683.0,620.375 673.375,616.125 663.375,610.625 653.5,604.375 634.5,590.125"/>
    <polyline points="625.625,582.75 617.25,575.625 579.125,540.75 562.875,527.0 553.75,520.5 546.375,516.375 538.375,513.125 531.875,511.625"/>
    <polyline points="530.375,511.375 520.25,510.75 504.125,511.5"/>
    <polyline points="503.375,511.625 492.25,511.625 487.75,510.875 486.125,510.25"/>
    <polyline points="485.625,510.0 484.0,508.875 483.25,507.625 483.0,506.5 483.25,504.625 484.5,502.125 486.75,499.0 489.0,496.5 492.125,493.625 498.375,488.75"/>
    <polyline points="500.875,487.0 510.0,481.25 517.375,477.25 529.75,471.75 543.0,467.375 551.625,465.625 555.75,465.25 559.625,465.125 563.25,465.375 569.25,466.875 571.625,468.125 573.625,469.625 575.25,471.5 576.375,473.375 577.5,477.875 577.5,480.25"/>
    <polyline points="577.125,482.625 576.5,485.0 574.625,489.625 571.875,493.875 566.875,499.5 561.5,503.875 556.0,507.125 550.625,509.5 544.125,511.5 538.25,512.625"/>
    <polyline points="537.0,512.75 533.25,513.25 525.875,513.625 515.0,513.625"/>
    <line x1="514.5" x2="503.0" y1="513.625" y2="514.125"/>
  </g>
</svg>
