<?xml version="1.0" encoding="utf-8" ?>
<svg xmlns="http://www.w3.org/2000/svg" xmlns:cc="http://creativecommons.org/ns" xmlns:dc="http://purl.org/dc/elements/1.1/" xmlns:ev="http://www.w3.org/2001/xml-events" xmlns:inkscape="http://www.inkscape.org/namespaces/inkscape" xmlns:rdf="http://www.w3.org/1999/02/22-rdf-syntax-ns" xmlns:sodipodi="http://sodipodi.sourceforge.net/DTD/sodipodi-0.dtd" xmlns:xlink="http://www.w3.org/1999/xlink" baseProfile="tiny" height="27.09333333cm" version="1.2" viewBox="0 0 1024.0 1024.0" width="27.09333333cm">
  <metadata>
    <rdf:RDF>
      <cc:Work>
        <dc:format>image/svg+xml</dc:format>
        <dc:source>vpype read './original_svgs/Strange Attractors #436.svg' linemerge linesimplify write './Strange Attractors #436.svg'
</dc:source>
        <dc:date>2024-08-05T01:35:58.908177</dc:date>
      </cc:Work>
    </rdf:RDF>
  </metadata>
  <defs/>
  <g fill="none" id="layer1" inkscape:groupmode="layer" inkscape:label="1" stroke="black" stroke-width="0.7mm" style="display:inline">
    <polyline points="657.375,490.75 666.375,479.375 674.5,468.0 683.5,452.875 688.25,443.75 693.0,433.5 697.625,422.0 702.0,409.375 705.875,395.375 709.125,380.375 711.5,364.5 712.5,348.0 712.125,331.375 710.0,315.375 705.875,300.5 699.625,287.5 691.375,277.375 681.375,270.5 669.75,267.25 657.25,267.625 644.25,271.5 631.125,278.25"/>
    <polyline points="618.5,287.25 606.5,297.875 595.5,309.5 585.5,321.625 576.5,333.625 568.625,345.25 561.5,356.5 555.375,366.875 540.625,393.625 527.125,419.5 517.25,436.875 508.875,448.875 503.125,455.375"/>
    <polyline points="501.25,457.25 495.75,461.875 492.0,464.375 484.625,468.125 479.0,470.125 473.125,471.5 465.0,472.5 456.375,472.625 451.875,472.375"/>
    <polyline points="449.5,472.125 442.375,471.375 434.625,470.125 417.75,466.5 398.375,461.25 372.125,453.0"/>
    <polyline points="368.0,451.625 336.125,440.375 304.25,428.0 287.0,420.375 275.25,414.5 263.5,407.75 257.875,403.875 252.625,399.5 247.75,394.625 243.75,388.875 240.875,382.125"/>
    <polyline points="240.0,374.125 241.75,364.375 248.0,352.25 261.0,337.375 284.375,319.25 323.5,298.125 384.875,276.0 473.25,258.125 584.0,252.75 696.875,265.75 784.75,292.75 835.625,319.625 857.125,334.125 863.25,331.125 863.875,310.5 862.5,274.125 858.375,225.375 848.75,169.625 829.375,114.875 798.25,71.625 756.125,49.125 707.625,51.0 659.375,74.0 616.625,110.25 582.625,151.25 557.625,190.75"/>
    <polyline points="541.125,225.75 531.75,254.875 528.0,278.375 528.875,297.0 533.125,311.75 539.75,323.5 548.125,333.25 557.125,341.5 582.875,361.875 589.5,367.75 594.75,373.375 598.75,378.625 601.5,383.5 603.125,388.125 603.875,392.5 603.875,396.5 603.25,400.25 602.25,403.75 599.375,410.25 592.25,421.875"/>
    <polyline points="590.5,424.625 584.25,434.875 580.5,442.0 576.125,452.75 575.0,456.625 573.75,463.625 573.625,468.125 574.375,473.5"/>
    <polyline points="574.75,474.625 576.25,477.75 578.375,480.5 581.0,482.625 584.125,484.25 587.875,485.375 592.25,485.875 597.25,485.75 600.875,485.25 604.75,484.25"/>
    <polyline points="606.75,483.625 611.125,482.0 618.125,478.625 628.625,471.5 637.0,463.625 642.75,457.125 645.75,453.25 651.625,444.625 654.5,439.75 659.875,428.75 662.375,422.75 666.75,409.5 669.75,395.25"/>
    <polyline points="670.625,387.875 671.0,380.5 670.875,373.25 670.0,366.25 668.5,359.625 666.375,353.625 663.5,348.375 660.0,344.125 655.875,340.75 651.125,338.625 645.875,337.625 640.375,337.875 634.625,339.125 628.625,341.5 622.625,344.75 616.625,348.75 610.875,353.5 605.25,358.75 594.75,370.25 590.0,376.25 577.25,394.125 570.25,405.375"/>
    <polyline points="567.125,410.75 558.875,425.375 552.25,438.0 529.75,483.625"/>
    <polyline points="529.0,485.0 523.25,497.875 521.125,504.375"/>
    <polyline points="521.0,504.875 520.875,508.125 521.125,509.125 521.5,510.0 522.625,511.25"/>
    <polyline points="522.875,511.375 526.25,513.25 531.25,514.625"/>
    <polyline points="531.75,514.75 538.25,516.125 550.25,517.875"/>
    <polyline points="551.375,518.0 561.0,518.875 570.0,519.25 576.875,519.25 591.375,518.125"/>
    <polyline points="593.75,517.75 598.625,517.0 606.75,515.125 612.625,513.375 622.25,509.625 633.0,504.0 636.875,501.625 645.0,495.75 653.625,488.25 658.25,483.625 663.0,478.5 667.875,472.5 672.75,465.875 677.75,458.375 682.875,449.875 687.875,440.375"/>
    <polyline points="692.75,429.625 697.375,417.875 701.625,404.875 705.375,390.75 708.375,375.75 710.25,359.875 710.875,343.625 710.0,327.5 707.25,312.125 702.625,298.125 695.875,286.375 687.25,277.5 677.0,271.75 665.375,269.75 653.0,271.125 640.125,275.625 627.5,282.875 615.25,292.125 603.75,302.875 593.25,314.375 583.625,326.25 575.125,337.875 567.5,349.25 554.75,370.125 549.5,379.5"/>
    <polyline points="544.75,388.125 524.625,426.125 519.75,434.625 513.25,444.75 507.25,452.375 499.75,460.0 494.25,464.25 486.875,468.375"/>
    <polyline points="485.0,469.25 479.375,471.25 475.5,472.25 467.5,473.5 461.25,473.875 450.125,473.5 443.0,472.75 430.0,470.625"/>
    <polyline points="427.125,470.125 409.125,466.125 354.0,452.0 333.125,447.625 327.375,446.75"/>
    <polyline points="321.375,445.875 308.375,444.625 301.375,444.375 293.875,444.375 285.875,444.875 277.375,445.875 268.25,447.625 258.375,450.5 247.875,454.625 236.625,460.375 224.875,468.5 213.125,479.625 202.25,494.5 193.875,513.75 190.625,538.125 196.0,567.375 213.5,600.125 245.25,633.5 289.625,663.875 341.0,688.625 392.25,706.875 437.5,719.875 473.75,729.625 500.125,737.75 517.75,745.625"/>
    <polyline points="527.875,753.5 531.875,761.75 530.875,769.75 526.0,777.125 518.0,783.0 507.875,787.0 496.375,788.25 484.125,786.375 472.125,781.25 460.75,772.875 450.625,761.625 441.875,748.125 434.75,733.0 429.125,717.0 425.125,700.875 422.25,685.0 420.5,669.875 419.625,655.875 419.5,642.875 420.5,620.625 422.75,602.875 424.125,595.625 427.125,583.5"/>
    <polyline points="428.625,578.5 431.75,570.25 436.125,561.0 442.5,550.625 449.875,540.25 452.25,536.25 453.375,533.5"/>
    <polyline points="453.75,532.625 454.5,528.625 454.5,527.125 454.125,525.0 453.375,523.125 452.25,521.25 450.25,519.125 446.0,516.125 440.375,513.875 432.375,512.0 422.75,511.25 416.75,511.5"/>
    <polyline points="446.0,516.25 444.375,515.375 439.5,513.625 431.25,511.875 425.875,511.375 420.0,511.375 415.375,511.75"/>
    <polyline points="413.75,511.875 407.5,513.25 401.25,515.5 397.0,518.0 393.375,521.25 390.625,525.125 389.5,528.25 389.25,529.875 389.25,533.375 390.125,537.0 390.875,538.75"/>
    <polyline points="391.875,540.625 394.5,544.25 396.25,546.125 400.25,549.375 404.875,552.375 410.125,554.75 418.625,557.375 427.25,558.5 435.5,558.375 443.0,557.125 447.5,555.75 451.5,554.125"/>
    <polyline points="453.375,553.125 458.375,550.125 464.875,544.5 469.375,538.875 471.25,535.625 473.0,531.625 474.125,527.0 474.25,523.75 473.875,521.625 472.875,519.0 471.75,517.125 469.75,515.0 467.25,513.0 465.0,511.75"/>
    <polyline points="474.125,526.25 474.125,523.875 473.625,521.0 472.5,518.375 469.75,515.125 467.25,513.125 464.25,511.25 457.625,508.5 451.75,506.625 442.0,504.5 432.125,503.125"/>
    <polyline points="463.375,510.875 461.625,510.0 454.25,507.375 445.125,505.125 439.0,504.0 430.375,503.0 422.625,502.5 409.75,502.875 405.125,503.375 398.125,504.75 390.875,506.875 384.0,510.125 381.75,511.5 379.625,513.0 375.75,516.625"/>
    <polyline points="428.5,502.875 416.375,502.5 409.875,502.875 402.875,503.75 398.25,504.75 391.0,506.875 384.125,510.125 379.75,513.0 375.875,516.5 374.0,518.625 371.25,523.25 370.25,525.875 369.625,528.625 369.5,534.75 370.0,537.875 371.0,541.25 372.5,544.625 377.125,551.375 380.125,554.625 383.625,557.875 387.625,560.875 396.5,566.25 401.25,568.5 406.25,570.375 411.375,572.125 416.5,573.375 426.5,575.125 436.0,575.625 440.5,575.375"/>
    <polyline points="372.625,520.75 370.375,525.75 369.375,531.5 369.5,534.625 370.0,537.75 371.0,541.125 372.5,544.5 374.5,547.875 377.125,551.25 383.5,557.75 387.5,560.75 396.25,566.125 401.125,568.375 411.125,572.0 421.375,574.25 431.125,575.375 435.75,575.5 444.625,575.0 452.375,573.625 459.25,571.625 462.375,570.375 467.875,567.625 472.75,564.625 478.75,559.875 483.75,555.125 487.875,550.5 495.0,540.875"/>
    <polyline points="448.5,574.375 452.25,573.625 459.0,571.5 462.125,570.375 467.75,567.625 474.75,563.125 482.125,556.75 487.75,550.5 495.875,539.625 500.5,532.375 507.125,521.0"/>
    <polyline points="496.5,538.5 502.875,528.25 510.0,515.875 512.25,512.75 514.0,512.5 521.375,513.875"/>
    <polyline points="507.5,520.125 511.875,512.375 513.125,512.25 519.25,513.5"/>
    <line x1="519.5" x2="526.625" y1="513.5" y2="514.75"/>
    <line x1="527.125" x2="541.625" y1="514.875" y2="517.125"/>
    <polyline points="542.5,517.25 560.625,519.125 572.875,519.5"/>
    <polyline points="574.625,519.5 582.125,519.25 593.125,518.125 603.25,516.25 611.75,513.875 621.375,510.25 628.25,506.875 635.875,502.5 643.875,496.875"/>
    <polyline points="648.125,493.5 657.125,485.125 661.75,480.125 666.625,474.5 676.625,460.625 681.625,452.5 686.625,443.125 691.625,432.75 696.375,421.25 700.75,408.625 704.75,394.75 707.875,379.875 710.125,364.125 711.125,347.875 710.75,331.625 708.5,315.875 704.375,301.375 698.125,288.875 690.0,279.0 680.0,272.375 668.75,269.375 656.375,269.875 643.625,273.625 630.75,280.375"/>
    <polyline points="618.375,289.125 606.625,299.625 595.75,311.0 585.875,322.875 577.0,334.75 569.125,346.25 556.0,367.5 541.375,394.0 522.625,429.375 517.875,437.25 511.5,446.75 503.75,455.875"/>
    <polyline points="501.875,457.75 496.375,462.5 490.875,466.125 485.25,468.875 479.625,470.875 469.875,473.0 461.625,473.625 452.75,473.375"/>
    <polyline points="450.5,473.25 435.75,471.375 421.875,468.75 396.0,462.375 372.875,456.0"/>
    <polyline points="368.625,454.875 340.0,447.625 323.25,444.25 310.75,442.375 296.875,441.25 281.25,441.375 272.625,442.25 263.25,443.875 253.125,446.5 242.25,450.375 230.625,456.0 218.25,464.0 205.75,475.125 193.875,490.25 184.375,510.25 180.125,535.875"/>
    <polyline points="185.125,567.0 203.5,602.125 237.875,638.125 286.25,670.75 342.25,696.875 397.375,715.875 482.125,739.625 508.25,748.625 524.75,757.75 533.125,767.25 535.0,777.0 531.375,786.625 523.625,795.125 512.75,801.625 499.75,805.375 485.5,805.375 471.0,801.375 457.25,793.375 444.75,781.5 434.0,766.5 425.375,749.375 418.625,731.0 413.625,712.375 410.375,694.25 408.375,677.0"/>
    <polyline points="407.5,661.125 407.25,646.625 407.75,633.75 409.875,612.5 413.0,596.375 416.5,584.375 420.25,575.375 423.875,568.75 425.75,566.0 429.375,561.5 434.5,556.25 444.5,547.5"/>
    <polyline points="445.75,546.5 451.625,540.5 455.25,535.0 456.875,530.75 457.25,528.375 456.875,524.75"/>
    <polyline points="456.625,524.0 455.875,522.125 454.625,520.25 453.125,518.625 450.5,516.625 446.375,514.375 439.0,511.875"/>
    <polyline points="437.875,511.625 432.75,510.625 427.0,510.0 417.625,510.0 412.625,510.5 407.5,511.5 402.5,513.0 399.125,514.375"/>
    <polyline points="397.5,515.25 393.125,518.125 390.5,520.625 388.375,523.5 386.875,526.625 386.375,528.375 386.125,532.125 386.625,536.125 388.25,540.25 392.625,546.375 399.25,551.875 404.75,555.125 407.625,556.375"/>
    <polyline points="410.75,557.625 417.0,559.5 426.625,561.0 435.625,561.0 443.875,559.75 451.125,557.5 457.25,554.5 462.25,551.125 466.5,547.5 468.875,545.0"/>
    <polyline points="469.875,543.875 474.125,538.0 475.875,534.75 477.5,530.625 478.25,527.875 478.625,524.625 478.125,520.375"/>
    <polyline points="477.875,519.75 476.375,516.75 473.0,513.25 467.25,509.875 462.625,508.0"/>
    <polyline points="461.5,507.75 454.625,505.625 444.875,503.5 436.75,502.25 423.375,501.125"/>
    <polyline points="421.25,501.125 407.75,501.5 400.375,502.5 392.875,504.25 385.375,507.0 378.125,511.125 373.75,514.625 370.125,519.0 368.625,521.5 367.375,524.25 366.5,527.125"/>
    <polyline points="366.0,530.25 366.375,536.875 367.25,540.5 368.75,544.125 370.75,547.875 373.25,551.5 376.375,555.125 384.25,562.0 388.875,565.125 399.0,570.5 410.0,574.5 415.5,576.0 421.0,577.125 431.5,578.375 441.375,578.375 445.875,578.0 454.0,576.5 461.25,574.375"/>
    <polyline points="464.5,573.125 470.25,570.25 472.875,568.625 481.625,562.125 486.75,557.125 492.25,550.75 502.625,536.75"/>
    <polyline points="503.25,535.75 511.375,524.75 515.375,520.875"/>
    <polyline points="515.75,520.5 517.5,519.25 520.75,517.875 525.25,517.125"/>
    <polyline points="525.625,517.0 532.875,517.125 540.625,517.875"/>
    <polyline points="541.375,518.0 559.25,519.5 571.25,519.875"/>
    <polyline points="572.875,519.875 582.25,519.625 593.25,518.5 606.25,515.875 615.125,513.125 621.75,510.5 628.75,507.125 636.25,502.75 640.25,500.0"/>
    <polyline points="644.375,497.0 653.125,489.625 657.625,485.125 662.375,480.125 672.25,467.75 677.25,460.375 682.375,452.0 687.5,442.625 692.375,432.125 697.125,420.375 701.625,407.5 705.5,393.5 708.625,378.375 710.875,362.5 711.75,346.0 711.125,329.625 708.75,313.875 704.375,299.375 697.875,287.0 689.5,277.375 679.375,271.0 667.75,268.375 655.25,269.25 642.375,273.375"/>
    <polyline points="629.375,280.375 617.0,289.5 605.25,300.125 594.375,311.75 584.625,323.75 575.875,335.625 568.0,347.125 555.0,368.375 544.875,386.75 527.25,420.25 519.625,433.875 511.0,446.875 505.125,454.0"/>
    <polyline points="503.25,455.875 499.5,459.375 494.0,463.625 488.5,466.875 482.875,469.375 477.125,471.125 469.25,472.625 463.125,473.125 454.375,473.0"/>
    <polyline points="452.125,472.875 442.5,472.0 437.5,471.25 423.875,468.625 398.625,462.25 376.0,455.75"/>
    <polyline points="371.875,454.5 329.0,442.125 317.625,439.25 305.375,436.625 291.75,434.25 284.5,433.375 276.75,432.75 268.375,432.5 259.375,432.875 249.75,433.75 239.125,435.75 227.625,439.0 215.0,444.0 201.25,451.625 186.75,462.5"/>
    <polyline points="172.25,478.0 159.5,499.375 152.0,528.0 155.0,564.125 175.0,606.25 216.375,649.875 276.625,689.0 345.875,719.125 411.75,740.125 465.625,755.0 504.375,767.375 528.875,779.75 541.25,793.25 543.75,807.875 538.125,822.875 526.0,836.75 509.125,847.75 489.0,854.0 467.5,854.0 446.25,846.875 426.75,832.75 410.25,812.75 397.125,788.75 387.375,762.75 380.75,736.5 376.75,711.375"/>
    <polyline points="374.625,688.375 374.0,668.125 374.375,650.5 375.625,635.625 377.375,623.25 379.5,613.125 382.0,604.875 384.875,598.25 387.75,593.0 391.0,588.875 394.375,585.625 397.75,583.125 401.375,581.125 405.125,579.5 412.625,577.125 434.625,571.625 441.0,569.625 447.0,567.25"/>
    <polyline points="449.75,566.125 454.875,563.5 459.375,560.75 466.875,555.0 472.625,549.25 477.0,543.75 481.0,537.5 483.125,533.0"/>
    <polyline points="483.625,532.0 485.375,526.5 485.75,524.25 485.75,520.75 485.0,517.875 483.25,515.0"/>
    <polyline points="482.875,514.5 481.625,513.25 478.375,511.0 474.875,509.25 464.875,505.875"/>
    <polyline points="463.75,505.625 456.5,503.75 448.0,502.125 434.125,500.125 424.0,499.375"/>
    <polyline points="421.875,499.25 412.625,499.25 402.75,500.0 392.125,502.0 384.0,504.625 376.0,508.625 371.125,512.25 368.875,514.375 365.125,519.375 363.625,522.25 362.5,525.25"/>
    <polyline points="361.625,528.625 361.375,532.125 361.625,535.875 362.375,539.75 363.75,543.75 365.75,547.875 368.5,552.0 371.875,556.125 375.75,560.0 380.375,563.875 385.375,567.375 396.625,573.375 402.625,575.875 408.75,578.0 415.0,579.75 421.0,581.0 432.625,582.375 438.125,582.5 448.125,582.0 456.875,580.375 464.5,578.0"/>
    <polyline points="467.875,576.625 471.0,575.125 476.5,571.875 481.375,568.375 487.375,563.125 495.25,554.75 507.75,538.75"/>
    <polyline points="508.5,537.75 513.625,531.625 517.5,527.875 521.25,525.125 524.875,523.25"/>
    <polyline points="525.5,523.0 529.375,521.75 533.5,521.0 544.375,520.625"/>
    <polyline points="545.375,520.625 562.0,521.25 580.625,521.0"/>
    <polyline points="582.75,520.875 596.25,519.25 607.0,517.0 616.125,514.125 626.25,509.875 637.5,503.5 645.75,497.625 654.75,490.0 664.25,480.125"/>
    <polyline points="669.125,474.125 674.25,467.375 679.375,459.625 684.625,450.875 689.75,441.125 694.875,430.125 699.625,418.0 704.125,404.5 708.0,389.875 711.0,374.125 713.0,357.625 713.625,340.75 712.625,323.875 709.625,307.875 704.625,293.375 697.375,281.25 688.25,272.25 677.25,266.75 665.0,265.0 652.0,267.0 638.625,272.25 625.5,280.25 612.875,290.25 601.125,301.625 590.375,313.75 580.75,326.0"/>
    <polyline points="572.125,338.125 564.625,349.75 552.0,370.875 542.125,389.0 528.0,416.25 517.75,434.625 513.375,441.375 507.375,449.5 501.625,455.75 497.875,459.125 494.25,461.875"/>
    <polyline points="492.375,463.125 488.75,465.25 483.125,467.75 477.375,469.5 471.5,470.75 465.375,471.5 456.75,471.625 447.5,471.0 440.25,470.0"/>
    <polyline points="437.625,469.5 424.125,466.75 402.625,460.75 381.5,453.5 370.0,449.0 353.75,441.625"/>
    <polyline points="349.625,439.625 337.125,432.375 329.25,426.5 322.0,419.5 319.0,415.375 316.5,410.75 314.75,405.5 314.25,399.5 315.25,392.625 318.375,384.75 324.375,375.625 334.5,365.125 350.25,353.375 373.375,340.5 405.875,327.375 449.0,315.5 502.625,307.125 563.125,304.75 623.5,309.625 675.75,320.75 714.125,334.5 738.25,347.0"/>
    <polyline points="750.75,355.125 756.0,357.75 757.25,354.625 756.5,346.5 754.75,334.0 752.125,318.25 748.375,300.5 743.0,281.875 735.5,263.75 725.5,248.0 712.875,235.75 698.0,228.125 681.375,225.875 663.75,228.875 646.0,236.5 628.875,247.875 612.875,261.625 598.625,276.875 585.875,292.625 574.875,308.25 565.5,323.0 557.625,336.75 550.875,349.375 536.25,380.25"/>
    <polyline points="532.75,388.375 518.625,421.75 513.625,431.875 508.875,439.5 504.25,445.375 499.5,450.0 494.625,453.75 487.875,457.625"/>
    <polyline points="486.125,458.375 480.75,460.25 473.375,461.875 465.5,462.5 461.5,462.5 453.125,461.75 446.5,460.625 435.125,457.375"/>
    <polyline points="432.75,456.5 421.0,451.0 414.25,446.5 410.0,443.0 406.25,438.75 403.25,434.0 401.25,428.375 400.875,425.25 401.0,421.875 401.75,418.25 403.25,414.25 405.75,410.125 409.125,405.625 414.0,400.875 420.25,395.875 428.125,390.75"/>
    <polyline points="438.0,385.75 449.875,380.75 463.875,376.25 479.875,372.375 497.625,369.375 516.375,367.5 535.625,367.125 554.375,368.0 571.75,370.25 587.0,373.625 599.625,377.625 609.625,382.125 616.875,386.5 621.875,390.75 625.0,394.625 626.5,398.125 626.875,401.25 626.5,403.875 625.625,406.125 624.375,408.125 621.375,411.375 615.125,416.625"/>
    <polyline points="613.75,417.75 610.0,421.25 606.875,424.75 602.5,431.875 601.5,434.25 600.25,438.625 599.875,441.625 600.0,445.125"/>
    <polyline points="600.25,445.875 601.0,447.875 602.25,449.5 605.25,451.0 606.75,451.125 609.25,450.875 612.125,450.0 615.125,448.375 618.5,446.0"/>
    <polyline points="619.625,445.0 623.0,441.625 626.375,437.375 629.5,432.375 633.0,424.625 635.25,416.25 635.75,412.0 635.5,406.125 634.0,401.125"/>
    <polyline points="633.25,399.75 631.25,397.5 630.125,396.75 628.75,396.125 625.875,395.75 624.25,395.75 620.875,396.625 615.375,399.5 611.75,402.375 608.125,405.75 604.75,409.5 598.375,418.0 594.375,424.625"/>
    <polyline points="593.25,426.875 590.125,433.375 587.75,439.5 586.125,445.25 584.875,452.0 584.875,459.25 586.125,463.75 587.75,466.625"/>
    <polyline points="588.375,467.375 591.5,470.0 594.625,471.25 598.25,471.75 603.875,471.375 607.0,470.625 614.0,467.75 619.875,464.25 624.0,461.125"/>
    <polyline points="626.0,459.25 630.375,455.125 634.75,450.125 639.0,444.25 643.25,437.5 647.25,429.875 650.75,421.375 652.25,416.875 654.625,407.375 655.5,402.5 656.25,392.75 656.125,388.0 655.625,383.375 653.375,375.125 651.625,371.625 649.625,368.5 647.125,366.0"/>
    <polyline points="644.25,364.125 641.125,362.875 637.625,362.375 634.0,362.5 630.125,363.25 626.25,364.5 622.125,366.5 618.125,369.0 610.125,375.125 606.25,378.75 602.5,382.625 595.375,390.875 586.0,403.875 580.625,412.25 576.0,420.375 566.625,438.625"/>
    <polyline points="565.125,441.875 559.25,456.125 555.0,469.5 554.125,473.25 553.125,479.875 553.125,486.5 553.75,490.0"/>
    <polyline points="554.125,491.0 554.75,492.875 556.75,496.375 560.375,499.875 564.0,502.0 568.5,503.875 572.375,504.875 576.625,505.5"/>
    <polyline points="578.25,505.75 585.125,506.0 595.25,505.125 602.125,503.75 609.875,501.5 618.5,497.875 628.0,492.75 638.5,485.25 642.125,482.0"/>
    <polyline points="646.0,478.5 653.875,470.0 657.875,465.0 666.125,453.25 674.375,438.75 678.25,430.375 682.0,421.25 685.5,411.375 688.5,400.75 691.0,389.5 692.875,377.75 693.875,365.625 693.875,353.625 692.75,341.75 690.375,330.625 686.75,320.625 681.75,312.125 675.375,305.5 668.0,301.0 659.5,298.875 650.5,299.0 641.0,301.375 631.375,305.75"/>
    <polyline points="621.875,311.75 612.625,319.0 603.875,327.25 595.75,336.0 588.125,345.125 581.125,354.25 574.875,363.25 563.875,380.25 554.875,395.625 528.5,442.875 520.5,455.375 516.875,460.375"/>
    <polyline points="515.125,462.625 511.875,466.625 505.5,473.125 502.375,475.75 496.375,480.0 491.875,482.5 487.375,484.375 482.875,485.875 476.625,487.25"/>
    <polyline points="475.0,487.375 470.0,488.0 457.375,488.125 442.75,487.125 423.0,485.125"/>
    <polyline points="420.25,484.875 405.125,483.75 398.5,483.5 387.75,483.625 380.0,484.125 371.875,485.125 367.625,485.875 358.75,488.125 349.75,491.375 340.5,496.125 336.125,499.25 331.75,502.875 327.75,507.125 324.125,512.125"/>
    <polyline points="321.25,517.75 319.0,524.125 318.0,531.25 318.25,539.0 320.0,547.5 323.625,556.375 329.25,565.375 336.875,574.5 346.5,583.25 357.625,591.5 370.0,598.875 383.25,605.25 396.75,610.5 410.0,614.625 422.75,617.75 434.5,619.875 445.375,621.125 455.125,621.75 463.75,621.75 471.375,621.25 478.0,620.25 483.75,619.125 488.75,617.625 496.875,614.125 500.25,612.125"/>
    <polyline points="503.125,610.125 505.75,608.0 510.125,603.625 513.75,599.25 525.125,583.0 531.5,574.625 536.75,569.125 540.75,565.75"/>
    <polyline points="542.125,564.625 546.375,561.875 550.875,559.625 555.5,557.75 560.5,556.25 567.625,554.75 575.375,553.75 586.25,553.125"/>
    <polyline points="588.625,553.0 610.25,552.125 619.875,551.375 630.625,550.0 642.625,547.375 651.625,544.625 656.5,542.75 666.875,537.875 672.5,534.625 678.375,530.75 684.625,526.125"/>
    <polyline points="691.375,520.5 698.375,513.625 705.875,505.5 713.75,495.75 722.125,483.875 730.875,469.625 739.875,452.5 749.0,432.125 757.875,407.875 766.125,379.75 772.875,347.375 777.125,311.625 777.75,273.5 773.125,235.625 762.25,201.125 744.75,174.0 721.0,157.375 693.0,153.125 663.0,160.625 633.75,177.5 607.125,200.375 584.0,226.0 565.0,251.875 549.75,276.125 538.0,298.0 529.125,317.125"/>
    <polyline points="522.625,333.375 518.125,347.125 515.125,358.625 513.375,368.125 512.5,376.125 512.375,382.75 512.875,388.25 513.75,393.0 514.875,397.0 517.75,403.625 524.125,415.875 526.125,422.125 526.5,424.125 526.5,428.0 525.875,431.875 524.625,435.625"/>
    <polyline points="523.75,437.5 521.875,441.0 518.25,446.25 514.125,451.0 509.625,455.375 506.375,458.125 499.875,462.875 493.0,466.75 485.875,469.75"/>
    <polyline points="484.125,470.375 474.75,472.75 468.75,473.5 462.625,473.875 451.625,473.625 442.0,472.625 428.875,470.375 447.0,473.0 456.25,473.625 460.625,473.625 466.875,473.25 474.875,472.125 478.75,471.125 484.375,469.125"/>
    <polyline points="426.125,469.875 407.875,465.75 357.0,452.5 336.75,448.0 325.375,446.0"/>
    <polyline points="319.25,445.125 306.125,443.875 299.0,443.625 283.25,444.25 274.625,445.5 265.25,447.375 255.25,450.375 244.5,454.75 233.0,461.0 221.125,469.625 209.25,481.5 198.5,497.125 190.75,517.625 188.75,543.375 196.25,573.875 216.875,607.5 252.0,641.0 299.125,670.875 352.0,694.5 403.25,711.75 481.5,733.375 506.0,741.5 521.75,749.625"/>
    <polyline points="530.25,758.0 532.625,766.375 530.25,774.625 524.125,782.0 515.125,787.75 504.0,791.125 491.75,791.5 479.125,788.625 466.875,782.25 455.5,772.5 445.5,760.125 437.0,745.5 430.25,729.5 425.125,713.0 421.5,696.375 419.0,680.375 417.625,665.25 417.125,651.375 417.125,638.625 417.75,627.125 419.75,607.875 422.5,593.0 425.625,581.5"/>
    <polyline points="427.25,576.75 428.75,572.625 431.875,565.75 434.875,560.375 440.375,552.375 449.375,540.75 451.375,537.75 453.125,534.0"/>
    <polyline points="453.5,533.25 454.5,529.125 454.125,524.875 452.25,521.125 450.75,519.5 447.5,517.0"/>
    <polyline points="415.125,511.75 407.25,513.25 402.625,514.875 398.125,517.25 395.5,519.125 393.125,521.375 390.5,525.375 389.125,530.125 389.25,533.5 390.125,537.25"/>
    <polyline points="391.0,539.0 392.0,540.875 394.75,544.625 396.375,546.375 400.5,549.625 405.25,552.5 410.5,555.0 416.125,556.75 419.0,557.5 424.75,558.375 433.25,558.625 441.0,557.625 449.875,554.875"/>
    <polyline points="451.875,554.0 457.125,551.0 460.125,548.875 466.125,543.25 468.75,539.875 471.375,535.5 473.125,531.5 474.0,527.875"/>
    <line x1="521.625" x2="530.875" y1="513.875" y2="515.5"/>
    <line x1="531.5" x2="550.375" y1="515.625" y2="518.25"/>
    <polyline points="551.5,518.25 557.375,518.875 570.25,519.5 579.125,519.375 591.875,518.25"/>
    <polyline points="594.25,517.875 599.125,517.125 610.25,514.375 619.625,511.0 626.375,507.875 630.0,506.0 637.625,501.375 645.875,495.375 650.25,491.75 659.25,482.875 664.0,477.625 668.875,471.5 679.0,457.0 684.0,448.25 689.0,438.5"/>
    <polyline points="693.875,427.5 698.5,415.5 702.75,402.25 706.375,387.875 709.125,372.5 710.75,356.5 711.125,340.25 709.875,324.125 706.75,308.875 701.625,295.25 694.5,283.875 685.5,275.5 674.875,270.5 663.0,269.125 650.375,271.25 637.5,276.5 624.875,284.25 612.75,293.875 601.375,304.875 591.0,316.5 581.625,328.375 573.25,340.125 565.75,351.5 553.375,372.125 548.25,381.375"/>
    <polyline points="543.625,389.875 523.875,427.0 519.125,435.375 512.625,445.25 508.625,450.5 501.0,458.625 493.625,464.375 486.25,468.375"/>
    <polyline points="426.25,469.625 408.0,465.5 347.875,449.5 332.0,445.875 326.375,444.875"/>
    <polyline points="320.375,443.75 307.625,442.125 293.375,441.125 277.25,441.75 268.25,442.875 258.625,444.875 248.125,448.125 236.875,452.75 224.875,459.375 212.375,468.75 200.0,481.625 189.0,498.875 181.5,521.5 181.0,549.75 191.75,583.125 217.5,619.125 259.0,654.0 312.0,683.875 368.5,706.625 420.875,722.75 463.75,734.375 495.625,743.875 517.125,752.875"/>
    <polyline points="529.625,762.125 534.75,771.875 533.875,781.625 528.25,790.75 518.875,798.5 506.875,803.75 493.125,805.875 478.75,804.125 464.5,798.125 451.125,788.25 439.5,774.875 429.625,758.75 421.875,740.875 416.0,722.375 411.875,703.875 409.25,686.0 407.75,669.375 407.25,654.125 407.375,640.375 408.125,628.25 410.5,608.25 413.75,593.25 417.375,582.0"/>
    <polyline points="419.25,577.5 422.875,570.375 424.75,567.375 428.375,562.625 431.875,558.75 436.75,554.125 447.375,545.0 451.125,541.0 453.375,538.125"/>
    <polyline points="454.0,537.25 456.25,532.875 457.125,529.625 457.25,526.5 456.625,523.75 455.75,521.75 453.375,518.875"/>
    <polyline points="452.875,518.375 449.375,515.875 443.0,513.0 439.625,512.0 433.5,510.75 426.375,510.0"/>
    <polyline points="424.875,509.875 420.25,509.875 411.875,510.625 406.75,511.625 401.75,513.25 395.25,516.5 392.5,518.625 388.875,522.625 387.25,525.75"/>
    <polyline points="386.625,527.375 386.25,529.25 386.125,533.0 386.875,537.0 387.75,539.125 388.75,541.125 391.625,545.25 393.5,547.25 397.875,551.0 406.0,555.75 415.25,559.125 421.625,560.5 424.875,560.875 431.0,561.25 437.0,560.875"/>
    <polyline points="439.75,560.5 445.125,559.5 452.125,557.0 456.125,555.125 461.5,551.75 464.5,549.375 469.375,544.5 473.75,538.625 476.125,534.25"/>
    <polyline points="476.5,533.25 478.125,528.375 478.625,523.5 478.25,520.75 477.0,517.625 474.875,515.0"/>
    <polyline points="474.375,514.5 470.75,511.75 465.125,509.0 456.625,506.125 451.5,504.875"/>
    <polyline points="450.125,504.625 437.75,502.375 422.5,501.125 409.125,501.375 401.875,502.25"/>
    <polyline points="399.375,502.75 389.375,505.375 384.25,507.5 379.5,510.125 375.0,513.5 371.125,517.625 369.5,520.0 367.0,525.375 366.25,528.375 365.875,531.5 366.0,534.875 366.625,538.375 367.75,542.0 369.5,545.625 371.75,549.375 374.5,553.0 377.875,556.625 381.75,560.0"/>
    <polyline points="386.125,563.25 395.875,569.0 406.75,573.5 412.25,575.25 423.25,577.5 433.625,578.5 438.625,578.5 443.25,578.25 451.75,577.0 459.25,575.125 462.625,573.875 468.625,571.125 473.875,568.0 480.5,563.125 484.125,559.75"/>
    <polyline points="485.75,558.125 488.875,554.875 496.125,545.875 508.375,528.625"/>
    <polyline points="508.875,528.0 514.0,522.0 516.25,520.125 518.875,518.625"/>
    <polyline points="519.125,518.5 523.375,517.25 529.875,517.0"/>
    <line x1="530.375" x2="549.375" y1="517.0" y2="518.75"/>
    <polyline points="550.5,518.75 558.75,519.5 567.375,519.875 579.5,519.75 590.0,518.875"/>
    <polyline points="592.375,518.625 599.75,517.375 605.125,516.125 617.125,512.375 623.75,509.625 634.75,503.75 642.75,498.25 646.875,495.0 655.875,487.0 660.5,482.25 665.25,476.75 670.25,470.5 675.25,463.375 680.375,455.5 685.375,446.5"/>
    <polyline points="690.5,436.375 695.25,425.25 699.875,412.75 704.0,399.25 707.5,384.5 710.125,368.875 711.5,352.625 711.625,336.125 709.875,320.0 706.375,304.875 700.75,291.625 693.125,280.875 683.625,273.125 672.5,269.0 660.375,268.375 647.5,271.375 634.5,277.25 621.875,285.625 609.75,295.75 598.625,307.125 588.375,318.875 579.25,330.875 571.0,342.625 563.75,353.875 551.75,374.25"/>
    <polyline points="546.625,383.375 523.0,428.0 513.875,442.875 505.875,453.125 500.25,458.75 494.75,463.125 487.375,467.375"/>
    <polyline points="485.5,468.25 479.875,470.375 476.0,471.375 470.125,472.5 461.75,473.125 455.25,473.125 448.375,472.625 443.5,472.125 430.625,470.0"/>
    <polyline points="427.875,469.375 419.125,467.5 400.0,462.625 377.625,456.25 351.5,448.375 331.25,442.75"/>
    <polyline points="325.75,441.25 307.875,437.0 287.5,433.625 279.875,432.875 271.875,432.5 263.125,432.5 253.75,433.125 243.625,434.625 232.5,437.25 220.25,441.5 207.0,447.875 192.75,457.25 178.0,470.625 164.25,489.375 154.0,514.75 151.75,547.75 163.75,587.75 195.75,631.5 249.0,673.375 316.125,707.75 385.0,732.5 444.75,749.5"/>
    <polyline points="490.0,762.625 520.375,774.75 537.625,787.75 543.875,802.125 541.375,817.125 531.75,831.75 516.625,844.25 497.5,852.75 476.25,855.5 454.5,851.25 434.125,839.875 416.25,822.0 401.625,799.375 390.5,773.75 382.75,747.375 377.625,721.5 374.875,697.5 373.625,676.0 373.75,657.375 374.625,641.375 376.25,628.0 378.25,617.0 380.625,608.0 383.375,600.875 386.25,595.125 389.375,590.625"/>
    <polyline points="392.625,587.0 396.125,584.25 399.75,582.0 407.25,578.875 436.625,571.375 443.0,569.25 448.875,566.875 454.125,564.25 460.875,560.125 464.75,557.25 468.125,554.25"/>
    <polyline points="469.625,552.875 474.875,547.125 477.0,544.375 481.125,538.0 484.625,530.5 485.5,527.875 486.125,524.625"/>
    <polyline points="486.25,523.875 486.0,519.375 484.875,516.625 482.5,513.5 479.375,511.25"/>
    <polyline points="478.75,510.875 474.625,508.875 469.375,507.0 460.875,504.625 454.375,503.25"/>
    <polyline points="453.0,503.0 442.125,501.125 431.0,499.75 420.5,499.125 413.5,499.125 403.625,499.875"/>
    <polyline points="401.0,500.125 390.25,502.375 384.875,504.125 379.5,506.5 374.25,509.625 369.5,513.5 367.375,515.75 363.875,521.0 361.625,527.25 361.125,530.75 361.125,534.5 361.75,538.375 362.875,542.375 367.125,550.625 370.25,554.75 374.0,558.75"/>
    <polyline points="378.375,562.625 383.375,566.25 388.75,569.625 394.375,572.625 400.375,575.25 406.5,577.5 412.75,579.375 418.875,580.75 430.625,582.5 436.25,582.75 441.5,582.75 451.125,581.75 459.625,579.875 463.375,578.625 470.0,575.875 475.75,572.625 480.75,569.25 487.0,564.0"/>
    <polyline points="488.75,562.25 497.625,552.25 508.5,538.125 514.5,531.375"/>
    <polyline points="515.125,530.625 520.25,526.25 524.0,524.0 527.75,522.5 531.125,521.625"/>
    <polyline points="531.75,521.5 541.25,520.75 555.0,521.125"/>
    <polyline points="556.25,521.125 574.625,521.375 584.375,520.875 598.375,519.0 603.625,517.875"/>
    <polyline points="606.5,517.25 618.75,513.25 629.125,508.5 636.75,504.125 645.0,498.375 653.875,491.0 658.5,486.5 668.25,475.5 673.25,468.875 678.375,461.375 683.625,452.875 688.75,443.25 693.875,432.5 698.75,420.625 703.375,407.375 707.375,392.875 710.625,377.375"/>
    <polyline points="712.875,361.0 713.75,344.0 713.125,327.125 710.5,310.75 705.875,295.875 699.125,283.25 690.375,273.5 679.625,267.25 667.625,264.75 654.625,266.125 641.25,270.75 628.0,278.25 615.25,288.0 603.375,299.125 592.375,311.25 582.5,323.5 573.75,335.75 565.875,347.5 559.0,358.5 547.625,378.5 528.5,415.125"/>
    <polyline points="525.625,420.5 520.5,429.875 513.75,440.75 505.75,451.375 501.875,455.375 498.25,458.75 489.0,465.0 481.5,468.25 475.75,469.875"/>
    <polyline points="473.75,470.25 463.625,471.5 457.125,471.5 445.5,470.625 438.125,469.5 427.375,467.375 412.75,463.625"/>
    <polyline points="409.625,462.625 393.0,457.375 374.75,450.5 366.875,447.25 358.875,443.5 346.625,437.125 338.5,432.0 334.5,429.125 327.25,422.625 324.0,418.75 321.125,414.5 319.0,409.75"/>
    <polyline points="317.75,404.375 317.625,398.25 319.25,391.125 323.25,383.0 330.375,373.625 341.875,363.0 359.25,351.125 384.25,338.375 418.75,325.75 463.625,315.0 517.875,308.25 577.125,307.625 634.25,313.875 682.0,325.5 716.125,338.875 736.875,350.25 747.5,357.25 751.625,358.875 752.375,355.375 751.5,347.125 747.0,320.125 743.125,303.25 737.875,285.875 730.625,269.125 721.0,254.375"/>
    <polyline points="709.125,243.125 695.125,236.0 679.5,233.75 662.875,236.375 646.125,243.25 629.875,253.625 614.75,266.5 600.875,280.75 588.5,295.625 577.75,310.375 568.375,324.625 560.5,338.0 547.75,361.625 538.5,380.875 519.5,423.0 513.875,433.5"/>
    <polyline points="512.125,436.25 507.125,443.5 502.125,449.125 497.125,453.5 492.0,457.0 488.5,458.875 483.125,461.125 479.375,462.25 473.75,463.5 467.875,464.125"/>
    <polyline points="465.75,464.25 461.75,464.375 450.875,463.5 446.375,462.75 437.0,460.5 429.625,458.125 422.125,455.125 412.125,449.875 407.125,446.625"/>
    <polyline points="404.75,444.75 402.5,442.875 398.25,438.5 394.75,433.375 393.5,430.5 392.5,427.375 392.0,424.0 392.0,420.375 392.625,416.375 394.25,412.0 396.875,407.375 400.625,402.375 406.0,397.0 413.25,391.375 422.5,385.625 434.0,379.875 448.25,374.25 465.0,369.125 484.25,365.0 505.5,362.0 527.875,360.5 550.25,360.875 571.625,362.875 590.625,366.25"/>
    <polyline points="606.625,370.75 619.25,375.75 628.375,380.75 634.625,385.5 638.375,389.625 640.375,393.125 640.875,396.0 640.5,398.25 639.5,400.0 638.25,401.25 635.0,403.0 623.75,405.625 620.75,406.625 617.875,408.0 613.75,410.75"/>
    <polyline points="612.5,411.75 608.75,415.375 606.375,418.125 603.25,422.5 599.75,428.625 596.625,436.125 595.0,443.0 594.75,446.625"/>
    <polyline points="594.75,447.75 595.375,451.75 596.5,454.125 598.125,456.0 600.125,457.375 602.625,458.0 605.625,458.125 609.0,457.5 612.75,456.0"/>
    <polyline points="614.0,455.375 619.625,451.625 625.5,446.0 630.0,440.5 632.875,436.125 635.5,431.375 639.0,423.375 640.75,417.625 642.375,408.75 642.625,402.875"/>
    <polyline points="642.375,400.125 641.5,395.0 640.625,392.75 639.625,390.625 636.875,387.375 633.5,385.375 631.5,384.75 627.125,384.75 624.75,385.25 619.875,387.25 617.375,388.75 612.25,392.375 609.875,394.5 602.625,402.0 598.25,407.5 594.25,413.25"/>
    <polyline points="592.375,416.125 587.25,424.75 583.125,433.0 580.875,438.125 578.25,445.375 575.375,456.0 574.625,461.375 574.625,467.75 575.125,470.375"/>
    <polyline points="575.375,471.75 577.125,476.125 579.25,478.875 581.75,481.125 584.875,482.75 587.375,483.625 592.875,484.375 597.75,484.25 603.25,483.25"/>
    <polyline points="605.25,482.75 609.375,481.375 616.125,478.375 621.0,475.5 626.0,472.0 628.75,469.875 637.0,462.125 645.5,451.75 648.375,447.625 653.875,438.25 656.625,433.125 659.125,427.5 663.625,415.375 665.625,408.75 667.125,401.875"/>
    <polyline points="668.375,394.875 669.125,387.875 669.5,380.75 669.25,373.75 668.375,367.125 666.875,360.875 664.625,355.125 661.875,350.25 658.375,346.25 654.375,343.125 649.75,341.125 644.75,340.25 639.5,340.5 633.875,341.75 628.125,344.0 622.375,347.125 616.625,351.125 611.0,355.625 605.625,360.625 595.375,371.75 586.375,383.375 574.75,400.5"/>
    <polyline points="571.5,405.875 565.5,416.125 555.875,434.0 545.5,454.75 537.375,471.75 532.75,482.25"/>
    <polyline points="532.125,483.625 529.5,489.875 526.75,498.125 525.875,502.5 525.875,504.5"/>
    <polyline points="525.875,505.0 526.625,507.75 527.375,509.0 528.875,510.625 531.875,512.375"/>
    <polyline points="532.375,512.625 537.125,514.375 540.5,515.25 550.0,516.875"/>
    <polyline points="551.0,517.125 563.25,518.375 569.25,518.625 581.625,518.5 590.125,517.75"/>
    <polyline points="592.375,517.5 599.75,516.25 608.0,514.25 613.875,512.375 620.25,509.875 630.75,504.625 638.5,499.875 642.5,497.0 651.0,490.0 660.125,480.875 664.875,475.375 669.75,469.125 674.625,462.125 679.625,454.25 684.625,445.25"/>
    <polyline points="689.625,435.375 694.375,424.25 698.75,412.0 702.75,398.625 706.125,384.25 708.625,369.0 710.0,353.0 710.0,337.0 708.25,321.375 704.75,306.625 699.25,293.75 691.75,283.25 682.5,275.875 671.75,271.75 659.875,271.125 647.375,273.875 634.75,279.625 622.375,287.625 610.5,297.5 599.5,308.375 589.5,320.0 580.375,331.625 572.25,343.125 565.0,354.25 553.0,374.375"/>
    <polyline points="548.0,383.5 529.5,418.25 521.625,432.375 514.875,443.125 510.75,448.875 506.875,453.625 503.125,457.625 495.75,463.875 488.375,468.25"/>
    <polyline points="486.5,469.125 481.0,471.375 475.25,472.875 467.25,474.125 461.0,474.5 449.875,474.125 442.75,473.375 432.375,471.75"/>
    <polyline points="429.625,471.25 415.0,468.375 375.375,458.875 357.375,455.0 342.125,452.25 330.875,450.875"/>
    <polyline points="324.75,450.375 311.75,449.875 304.625,450.125 297.0,450.75 289.0,451.875 280.5,453.75 271.25,456.5 261.625,460.5 251.375,466.0 240.875,473.375 230.375,483.125 220.625,496.125 213.0,512.625 209.375,533.25 212.125,557.875 224.125,585.625 247.375,614.75 281.5,642.5 323.5,666.5 368.375,685.25 411.0,699.0 447.625,708.875 476.75,716.375 498.375,722.75 513.125,728.625"/>
    <polyline points="522.125,734.25 526.5,740.0 527.0,745.375 524.5,750.125 519.75,754.0 513.125,756.5 505.375,757.375 497.0,756.25 488.375,753.0 480.0,747.625 472.125,740.375 465.0,731.25 458.875,720.875 453.75,709.5 449.625,697.5 446.375,685.25 444.125,673.125 442.625,661.25 441.625,650.0 441.375,629.375 442.375,611.875 443.25,604.25 445.375,590.875"/>
    <polyline points="446.5,585.125 448.75,575.25 451.125,567.125 454.25,557.5 461.625,537.875 462.75,534.0 463.625,528.625"/>
    <polyline points="463.625,527.75 463.375,524.25 462.375,521.375 460.75,518.75 457.875,515.875 454.0,513.375 451.25,512.125"/>
    <polyline points="450.25,511.75 445.875,510.125 442.125,509.125 432.25,507.375 424.0,506.75 413.0,507.125"/>
    <polyline points="411.125,507.375 405.25,508.25 401.25,509.25 395.375,511.375 389.75,514.375 388.0,515.625 383.375,520.125 381.125,523.625 380.25,525.625 379.25,530.0 379.125,532.375 379.875,537.25 382.0,542.375"/>
    <polyline points="383.5,545.0 387.625,550.0 390.25,552.375 393.125,554.75 399.75,558.875 407.125,562.25 411.0,563.625 414.875,564.75 422.75,566.375 426.625,566.875 434.125,567.125 444.375,566.0 450.375,564.625 453.125,563.625 458.25,561.625 462.75,559.125"/>
    <polyline points="464.75,557.875 468.5,555.25 471.75,552.5 474.625,549.75 478.125,545.625 483.375,538.125 486.25,532.625 488.0,528.0"/>
    <polyline points="488.25,527.125 489.0,524.125 489.0,519.125 488.75,518.0 487.375,515.25 485.625,513.375"/>
    <polyline points="485.25,513.0 482.25,510.875 477.75,508.75 467.0,505.375"/>
    <polyline points="466.0,505.125 448.875,501.5 440.5,500.25 427.0,498.875"/>
    <polyline points="424.875,498.75 410.875,498.625 400.625,499.5 392.5,501.0 384.125,503.5 376.0,507.375 370.875,510.875 366.25,515.375 362.625,520.75"/>
    <polyline points="361.25,523.75 360.25,527.125 359.75,530.75 359.75,534.5 360.375,538.5 361.5,542.625 363.375,546.875 366.0,551.125 369.25,555.375 373.125,559.5 377.625,563.5 382.75,567.25 388.375,570.75 394.25,573.75 400.5,576.5 406.75,578.75 419.5,582.125 425.625,583.125 437.25,584.0 442.625,583.875 452.5,582.875 461.0,580.875"/>
    <polyline points="464.75,579.625 468.25,578.25 474.5,575.125 477.25,573.5 484.375,568.25 488.375,564.625 493.5,559.375 500.25,551.375 508.5,540.875"/>
    <polyline points="509.375,539.75 513.375,535.0 517.75,530.625 523.25,526.5 527.375,524.5"/>
    <polyline points="528.125,524.25 533.25,522.75 536.5,522.25 540.75,521.875 549.875,521.75"/>
    <polyline points="551.0,521.75 572.5,522.0 586.125,521.25 593.0,520.375"/>
    <polyline points="595.375,520.0 600.5,519.125 612.0,516.25 625.125,511.125 632.375,507.375 640.375,502.5 648.875,496.125 653.375,492.25 662.75,482.75 667.75,477.0 672.875,470.5 678.0,463.125 683.25,454.75 688.5,445.25 693.625,434.625"/>
    <polyline points="698.625,422.75 703.375,409.625 707.5,395.25 710.875,379.625 713.375,363.25 714.5,346.125 714.125,328.875 711.875,312.25 707.5,296.875 701.0,283.625 692.25,273.375 681.75,266.5 669.625,263.5 656.625,264.375 643.125,268.625 629.625,276.0 616.625,285.625 604.5,296.875 593.375,308.875 583.25,321.375 574.25,333.75 566.25,345.625 559.25,356.875 542.875,386.125"/>
    <polyline points="538.625,394.25 531.5,408.25 520.25,429.125 511.5,443.25 507.5,448.5 501.75,454.75 494.375,461.0 488.75,464.375 483.125,466.875"/>
    <polyline points="481.25,467.625 475.5,469.25 471.5,470.0 465.375,470.75 456.875,470.875 445.25,469.875 440.375,469.125 429.875,467.125 424.375,465.75"/>
    <polyline points="421.5,465.0 403.125,459.5 389.625,454.625 382.5,451.75 367.75,444.875 356.5,438.5 349.25,433.375 342.375,427.375 339.375,423.875 336.75,420.0"/>
    <polyline points="334.625,415.75 333.125,410.875 332.625,405.5 333.375,399.375 335.875,392.5 340.625,384.5 348.5,375.625 360.5,365.75 378.0,354.875 402.0,343.625 434.0,332.875 474.125,324.0 521.25,318.625 571.875,318.25 620.625,323.25 661.875,332.625 692.625,343.75 712.5,354.0 728.75,364.875 730.25,364.5 729.875,360.5 723.625,333.125 720.125,321.125"/>
    <polyline points="715.625,308.875 709.875,297.125 702.75,286.75 694.125,278.5 684.0,272.875 672.875,270.25 660.875,270.75 648.5,274.25 636.25,280.25 624.125,288.375 612.75,298.125 602.125,308.75 592.375,320.0 583.625,331.25 575.875,342.375 562.625,363.25 552.125,381.625 528.5,426.25"/>
    <polyline points="526.125,430.625 517.375,444.75 513.375,450.25 507.75,457.0 502.25,462.375 495.125,467.75 491.625,469.875 486.25,472.5 478.875,475.0"/>
    <polyline points="477.0,475.375 473.25,476.25 467.375,477.0 459.0,477.375 454.75,477.25 440.625,476.125 418.625,472.625"/>
    <polyline points="415.5,472.125 391.5,467.75 370.75,464.75 361.375,463.875 351.25,463.375 340.125,463.5 328.0,464.5 314.625,467.125 307.5,469.125 300.0,472.0 292.25,475.625"/>
    <polyline points="284.5,480.375 276.625,486.5 269.125,494.125 262.25,503.625 257.0,515.25 253.875,529.25 254.375,545.375 259.625,563.5 270.5,582.875 287.75,602.625 310.875,621.125 338.375,637.625 367.875,651.125 397.25,661.75 424.25,669.5 447.875,675.125 504.375,685.875 515.0,688.25 518.5,689.375 517.75,688.875"/>
    <polyline points="516.25,687.875 512.25,684.375 509.875,681.75 507.5,678.75 503.0,671.25 499.125,662.125 497.5,657.25 495.0,646.875 494.125,641.625 493.0,631.0 492.75,625.75 492.875,615.75 494.0,601.875 496.125,589.75 497.75,582.625"/>
    <polyline points="498.625,579.375 500.5,573.25 505.375,560.75 510.25,551.25 514.0,545.5 517.625,540.75 522.0,536.25"/>
    <polyline points="522.875,535.375 528.125,531.625 533.5,529.0 539.25,527.25 546.75,526.125"/>
    <polyline points="547.875,526.0 556.75,525.375 578.25,524.625 588.875,523.625"/>
    <polyline points="591.25,523.375 598.75,522.25 607.0,520.5 616.25,517.75 619.5,516.5 630.125,511.875 638.0,507.5 646.5,501.75 655.625,494.25 665.375,484.375 670.5,478.5 675.75,471.625 681.125,463.875 686.625,455.0"/>
    <polyline points="692.125,445.0 697.5,433.75 702.75,421.125 707.5,407.125 711.875,391.75 715.375,375.125 717.75,357.5 718.625,339.25 717.875,321.0 714.875,303.375 709.75,287.5 702.125,274.125 692.25,264.125 680.375,258.125 667.125,256.25 653.0,258.625 638.625,264.625 624.5,273.5 611.0,284.5 598.625,297.0 587.375,310.0 577.375,323.125 568.625,336.0 560.875,348.25 548.25,370.125"/>
    <polyline points="543.0,379.75 519.5,425.625 514.875,433.625 508.625,443.0 504.75,447.875 499.25,453.75 491.875,459.375 488.25,461.5 484.5,463.25"/>
    <polyline points="482.625,464.0 476.875,465.75 471.0,467.0 462.75,467.625 458.5,467.625 454.0,467.375 442.375,465.875 437.375,464.875 427.0,462.125"/>
    <polyline points="424.375,461.25 413.125,457.375 404.5,453.625 395.5,449.0 384.0,441.125 378.75,436.25 376.375,433.375 374.25,430.375 372.5,427.125 371.125,423.5 370.375,419.5 370.25,415.125 371.0,410.375 373.0,405.0 376.375,399.25"/>
    <polyline points="381.625,392.875 389.125,385.875 399.375,378.625 413.0,371.0 430.5,363.375 452.25,356.375 478.125,350.375 507.375,346.25 538.625,344.625 570.0,345.75 599.0,349.5 623.75,355.25 643.125,362.0 657.0,368.75 666.0,374.625 671.125,379.25 673.5,382.5 674.0,384.25 673.5,384.75 672.25,384.125 670.5,382.625 662.25,372.25 659.75,369.5"/>
    <polyline points="657.125,366.875 651.0,362.5 647.625,361.125 644.0,360.25 640.25,359.875 636.25,360.125 628.0,362.5 619.625,367.125 615.375,370.125 611.375,373.375 603.5,381.0 596.125,389.375 592.75,393.75 583.625,406.75 576.125,419.25 571.875,427.125"/>
  </g>
</svg>
