<?xml version="1.0" encoding="utf-8" ?>
<svg xmlns="http://www.w3.org/2000/svg" xmlns:cc="http://creativecommons.org/ns" xmlns:dc="http://purl.org/dc/elements/1.1/" xmlns:ev="http://www.w3.org/2001/xml-events" xmlns:inkscape="http://www.inkscape.org/namespaces/inkscape" xmlns:rdf="http://www.w3.org/1999/02/22-rdf-syntax-ns" xmlns:sodipodi="http://sodipodi.sourceforge.net/DTD/sodipodi-0.dtd" xmlns:xlink="http://www.w3.org/1999/xlink" baseProfile="tiny" height="27.09333333cm" version="1.2" viewBox="0 0 1024.0 1024.0" width="27.09333333cm">
  <metadata>
    <rdf:RDF>
      <cc:Work>
        <dc:format>image/svg+xml</dc:format>
        <dc:source>vpype read './original_svgs/Strange Attractors #422.svg' linemerge linesimplify write './Strange Attractors #422.svg'
</dc:source>
        <dc:date>2024-08-05T01:35:57.906067</dc:date>
      </cc:Work>
    </rdf:RDF>
  </metadata>
  <defs/>
  <g fill="none" id="layer1" inkscape:groupmode="layer" inkscape:label="1" stroke="black" stroke-width="0.7mm" style="display:inline">
    <polyline points="619.375,569.375 621.125,555.875 623.25,535.5 623.625,528.0 623.5,521.875 623.0,516.75 622.125,512.75 620.75,509.375 618.875,506.875 616.5,504.875 613.625,503.375 610.25,502.5 606.5,502.0 602.25,502.0 597.75,502.5 592.875,503.25 587.75,504.5 582.625,505.875 567.375,511.875 558.125,516.5 550.0,521.125"/>
    <polyline points="546.5,523.25 531.75,532.875 528.875,534.5 525.875,535.625 524.5,535.75 523.125,535.0 522.25,533.625 521.625,530.125"/>
    <polyline points="521.625,529.5 521.875,525.875 522.625,522.75 523.875,520.25 525.75,518.125"/>
    <polyline points="526.125,517.875 527.125,517.125 530.375,515.75 535.25,514.75 538.5,514.5"/>
    <line x1="539.25" x2="565.625" y1="514.375" y2="513.5"/>
    <polyline points="567.0,513.375 578.625,513.0 594.875,512.0 609.5,510.625 620.375,509.125"/>
    <polyline points="623.25,508.625 638.125,505.375 646.75,502.5 652.125,500.0 654.375,498.625 658.0,495.375 659.125,493.625 659.625,491.75 659.25,489.875 658.0,488.0 655.625,486.25 651.875,484.625 646.875,483.375 640.25,482.625 632.25,482.5 622.75,483.125 612.0,484.75 600.375,487.5"/>
    <polyline points="588.125,491.25 575.875,495.875 563.875,501.375 552.5,507.5 542.125,513.875 532.875,520.375 524.625,526.75 517.625,532.875 511.75,538.5 506.75,543.5 492.25,559.75 489.25,562.5 487.0,563.625 485.25,563.625 484.375,563.25 481.25,560.375"/>
    <polyline points="480.5,559.375 474.125,552.0 468.625,547.0 462.0,542.625 457.5,540.375 449.125,537.125"/>
    <polyline points="447.25,536.5 441.5,534.75 425.875,531.25 391.25,525.25 380.75,523.125"/>
    <polyline points="377.125,522.25 369.375,520.375 361.375,518.0 352.875,515.0 348.5,513.125 343.875,511.0 334.625,505.875 324.875,498.75 320.0,494.25 315.0,488.875 310.0,482.625 305.0,475.125 300.125,466.125 295.5,455.25 291.25,442.375 287.625,426.875 284.875,408.375 283.5,386.375 284.125,360.75 287.625,331.25 294.875,298.625"/>
    <polyline points="307.25,264.125 325.75,230.5 350.75,201.625 382.0,182.0 417.375,175.5 454.25,183.875 489.25,205.75 520.125,237.5 545.5,274.375 565.0,312.125 579.25,347.875 589.125,379.875 595.5,407.5 599.0,430.625 600.375,449.75 599.875,465.25 598.0,477.625 595.0,487.375 591.0,495.0 586.375,500.625 581.125,504.75 575.5,507.625 569.625,509.375 563.75,510.25 557.875,510.375 552.25,509.875"/>
    <polyline points="546.75,508.875 536.875,506.125 528.5,502.625 521.875,499.25 506.625,489.875 505.625,489.75 505.0,490.0 504.125,491.875"/>
    <polyline points="504.0,492.25 503.125,499.0 502.0,502.625 501.375,503.625"/>
    <polyline points="501.25,503.875 499.625,505.625 498.0,506.625 496.25,507.25 493.375,507.75"/>
    <polyline points="493.0,507.75 487.625,508.0 476.375,507.0"/>
    <polyline points="475.5,506.875 467.25,505.625 460.0,504.125 453.125,502.375 443.875,499.375"/>
    <polyline points="442.25,498.75 435.25,495.875 429.625,493.125 421.75,488.375 415.625,483.875 409.5,478.125 403.5,471.0 399.625,465.125 396.125,458.5 394.5,454.75"/>
    <polyline points="393.0,450.75 390.625,441.75 389.75,436.875 388.75,426.25 389.375,414.75 390.25,408.625 391.625,402.5 393.625,396.375 396.125,390.5 399.25,384.75 402.875,379.5 407.25,374.75 412.125,370.75 417.625,367.625 423.5,365.625 429.75,364.625 436.25,364.875 442.875,366.125 449.5,368.625 456.125,372.25 462.375,376.625 468.375,381.875 474.125,387.75"/>
    <polyline points="479.375,394.0 484.25,400.625 488.625,407.25 496.0,420.5 501.875,433.0 506.375,444.25 511.25,458.5 515.5,473.0 520.75,493.25"/>
    <polyline points="521.125,494.5 522.875,499.5 524.75,503.0 527.625,506.375 531.625,508.875"/>
    <polyline points="532.125,509.125 537.75,510.875 544.875,512.0 551.75,512.5"/>
    <polyline points="552.875,512.625 575.25,512.875 592.875,512.25"/>
    <polyline points="595.125,512.125 612.75,510.625 624.25,509.125 639.75,506.125 649.25,503.25 655.25,500.875 660.5,497.875 662.75,496.125 664.5,494.25"/>
    <polyline points="665.625,492.25 666.0,490.125 665.5,488.0 664.0,485.75 661.0,483.75 656.625,481.875 650.5,480.5 642.5,479.625 632.875,479.625 621.5,480.75 608.875,483.0 595.375,486.5 581.375,491.25 567.625,497.125 554.5,503.75 542.5,511.0 531.625,518.5 522.25,525.875 514.125,533.0 507.375,539.625 497.25,550.875 486.0,565.0"/>
    <polyline points="484.375,567.0 483.0,568.5 480.875,570.125 479.875,570.375 478.375,570.0 475.25,567.25 470.125,561.0 467.0,557.875 463.375,554.75 459.375,552.125"/>
    <polyline points="458.0,551.25 453.375,548.875 446.625,546.25 436.875,543.75 430.375,542.625 420.75,541.625 412.875,541.25 404.25,541.25"/>
    <polyline points="401.25,541.25 384.875,542.5 374.0,544.125 366.375,545.875 354.125,549.625 349.875,551.375 341.125,555.75 336.75,558.5 332.125,561.75 323.0,570.125 318.375,575.625 313.875,582.0 309.625,589.75 305.5,599.0 301.625,610.125"/>
    <polyline points="298.5,623.5 296.125,639.625 295.0,658.75 295.5,681.625 298.5,708.25 304.875,739.0 315.75,772.875 332.125,808.5 355.0,842.875 384.5,871.375 419.625,889.25 457.875,892.125 495.875,878.625 530.375,850.75 559.375,813.0 581.875,770.75 598.5,728.375 610.0,688.875 617.75,654.0 622.375,624.0 624.75,598.875 625.25,578.25 624.375,561.625 622.25,548.25 619.0,537.75 614.75,529.75"/>
    <polyline points="609.625,523.75 603.75,519.5 597.375,516.875 590.5,515.5 583.25,515.25 576.125,515.875 569.0,517.375 562.125,519.375 555.5,521.75 549.5,524.375 538.875,530.0 534.375,532.75 517.125,544.25 512.875,546.25 510.75,546.5 509.25,546.125"/>
    <polyline points="508.5,545.625 506.375,543.125 500.625,532.0 496.625,526.375"/>
    <polyline points="496.125,525.75 493.25,523.0 489.375,520.25 484.875,517.875 477.875,515.25"/>
    <polyline points="476.875,514.875 453.125,508.125 443.25,504.875"/>
    <polyline points="441.5,504.25 433.875,501.375 423.625,496.5 414.75,491.125 407.875,485.875 400.875,479.25 396.25,473.75 391.875,467.25 387.625,459.625"/>
    <polyline points="385.75,455.25 384.0,450.5 381.125,439.875 380.125,434.0 379.5,427.75 379.125,421.0 379.375,413.875 380.0,406.5 381.375,398.875 383.375,391.125 386.0,383.5 389.625,376.0 393.875,368.875 399.125,362.5 405.125,357.0 411.875,352.625 419.25,349.75 427.125,348.375 435.375,348.625 443.75,350.5 452.125,353.875 460.25,358.875 468.125,364.875 475.375,372.0 482.25,379.75"/>
    <polyline points="488.375,388.0 493.875,396.375 498.75,404.875 503.125,413.125 510.125,428.625 515.375,442.375 520.75,459.125 528.875,490.25 531.375,497.375"/>
    <polyline points="531.875,498.5 533.375,501.25 535.0,503.375 538.125,506.125 540.125,507.375 543.25,508.75 549.375,510.375"/>
    <polyline points="550.375,510.625 555.875,511.5 565.0,512.25 579.625,512.625 587.375,512.5"/>
    <polyline points="657.5,498.125 652.5,501.0 649.75,502.125 640.625,505.25 634.5,506.75 625.375,508.625 614.0,510.25 603.5,511.375 589.5,512.375 608.625,511.5 619.875,510.5 632.25,508.875 642.25,507.0 649.125,505.375 656.125,503.25 662.75,500.625"/>
    <polyline points="665.875,499.0 671.25,495.375 673.25,493.25 674.625,490.875 675.25,488.375 674.75,485.75 672.875,483.125 669.5,480.5 664.25,478.25 656.75,476.5 647.125,475.5 635.25,475.625 621.375,477.0 606.125,480.125 589.875,484.75 573.5,491.0 557.625,498.375 543.0,506.75 529.875,515.625 518.5,524.625 508.875,533.25 500.875,541.375 494.375,548.75 485.125,561.125"/>
    <polyline points="481.875,565.875 473.375,579.125 471.75,580.625 471.0,580.75 469.125,579.75 463.25,572.0 460.375,568.875 457.0,565.875"/>
    <polyline points="455.75,565.0 450.25,561.75 445.5,559.875 440.375,558.375 432.75,557.25 426.375,557.0 419.625,557.375 414.75,558.0 407.0,559.75"/>
    <polyline points="404.375,560.625 398.75,562.625 390.125,566.875 381.25,573.25 375.25,579.125 369.375,586.5 366.5,591.0 363.75,596.125 361.25,601.875 358.875,608.375 356.875,615.75 355.25,624.125 354.125,633.375 353.5,643.875 353.875,655.5 355.125,668.25 357.625,682.0 361.5,696.75 367.125,712.0"/>
    <polyline points="374.625,727.375 384.125,742.125 395.75,755.25 409.375,765.875 424.625,773.0 441.0,775.875 457.875,773.875 474.5,767.0 490.25,755.875 504.5,741.125 517.0,724.0 527.75,705.375 536.5,686.375 543.75,667.75 549.375,650.0 553.75,633.625 557.125,618.625 559.75,605.25 563.125,582.875 564.125,573.75 565.375,559.0 566.0,543.625"/>
    <polyline points="566.125,539.875 566.5,525.0 567.25,521.375 567.875,520.0 569.0,518.625 571.0,517.125 574.375,515.75"/>
    <polyline points="575.125,515.5 580.125,513.875 593.0,510.5 598.5,508.625"/>
    <polyline points="599.25,508.375 602.125,506.875 602.625,506.375 602.5,505.625 599.5,505.25 594.375,506.0 583.375,509.0"/>
    <polyline points="581.375,509.75 569.375,514.625 557.0,520.875 552.625,522.625 553.25,521.875 555.25,520.625 557.75,519.5 562.625,517.75 569.0,516.125"/>
    <polyline points="570.25,515.75 594.125,511.25 604.875,509.0 610.125,507.5"/>
    <polyline points="611.875,507.0 618.125,504.75 621.5,502.75 622.375,502.125 623.25,500.75 623.25,500.0 622.875,499.375 621.25,498.375 617.75,497.625 615.375,497.5 609.375,497.875 597.25,500.125 587.875,502.75 582.875,504.5"/>
    <polyline points="578.0,506.5 568.25,510.75 555.375,517.625 548.125,522.0 531.0,533.125 528.875,534.125 527.25,534.5 525.625,534.25 524.75,533.125"/>
    <polyline points="524.5,532.75 524.125,528.75 524.75,525.375 526.25,521.875 527.75,520.0"/>
    <polyline points="528.125,519.625 530.5,517.875 534.5,516.25 542.0,514.875"/>
    <polyline points="542.875,514.875 554.5,514.0 572.5,513.25"/>
    <polyline points="574.25,513.25 591.5,512.25 605.5,511.0 618.75,509.25 633.25,506.375"/>
    <polyline points="636.125,505.625 641.875,503.875 647.375,501.75 650.0,500.5 654.375,497.625 656.0,496.125 657.25,494.375 657.875,492.625 657.75,490.875 656.875,489.0 654.875,487.25 651.75,485.625 647.25,484.375 641.375,483.5 634.0,483.125 625.25,483.5 615.25,484.875 604.25,487.125 592.625,490.375 580.625,494.5 568.875,499.5 557.625,505.25 547.125,511.25"/>
    <polyline points="537.625,517.625 529.25,523.75 521.875,529.75 515.625,535.375 506.0,545.125 494.75,557.5 490.25,561.375 488.125,562.125 487.25,562.125 485.625,561.375 484.0,560.0 479.25,554.125"/>
    <polyline points="478.25,553.125 472.25,546.875 464.75,541.5 459.0,538.5 454.125,536.375 443.25,532.75"/>
    <polyline points="441.25,532.25 428.0,529.0 403.75,524.0 394.25,521.75 380.5,518.0 369.25,514.0"/>
    <polyline points="365.25,512.375 357.125,508.5 352.875,506.125 344.25,500.25 339.75,496.625 335.25,492.5 330.75,487.625 326.25,482.0 321.75,475.375 317.375,467.625 313.125,458.5 309.125,447.75 305.75,435.0 302.875,420.125 301.0,402.75 300.625,382.75 302.0,359.75 306.0,334.125 313.375,306.625 324.75,278.25 341.0,251.375 362.125,228.625 387.875,213.0 416.875,207.25"/>
    <polyline points="447.125,212.625 476.5,228.375 503.125,252.375 526.0,281.375 544.375,312.25 558.75,342.625 569.375,371.0 577.0,396.25 582.0,418.125 585.125,436.625 586.625,452.125 587.0,465.0 586.25,475.375 584.75,483.75 582.625,490.5 580.125,495.75 577.125,499.875 574.0,502.875 570.625,505.125 567.125,506.625 563.625,507.625 556.875,508.25 553.625,508.125 547.625,507.25"/>
    <polyline points="545.0,506.625 538.125,504.375 527.75,500.0 526.5,499.875 526.25,500.625 527.0,502.125"/>
    <polyline points="527.375,502.5 529.75,505.0 532.625,507.0 536.75,508.875 540.375,510.0"/>
    <polyline points="541.125,510.25 550.0,511.75 558.0,512.375 569.125,512.75"/>
    <polyline points="541.75,511.125 548.0,512.0 560.625,512.75 583.125,512.625 605.625,511.5 619.375,510.125 628.375,508.75"/>
    <polyline points="631.5,508.25 644.5,505.5 651.125,503.5 654.375,502.375 660.375,499.625 663.0,498.0 665.5,496.25 667.375,494.25 668.75,492.25 669.5,490.0 669.25,487.625 667.875,485.25 665.0,483.0 660.625,480.875 654.5,479.25 646.375,478.25 636.375,478.0 624.5,479.0 611.125,481.25 596.75,484.75 581.875,489.75"/>
    <polyline points="567.25,496.0 553.25,503.125 540.5,510.875 529.125,518.875 519.25,526.75 510.875,534.375 503.875,541.5 498.125,547.875 489.75,558.375 480.875,570.5 478.375,573.125 476.625,574.125 475.125,573.875 473.625,572.75 470.625,569.125"/>
    <polyline points="469.875,568.125 467.125,564.75 461.625,559.625 454.875,555.125 448.5,552.25 445.125,551.125 439.5,549.625 433.25,548.625"/>
    <polyline points="431.125,548.25 421.875,547.625 408.75,548.0 397.0,549.625 387.5,551.875 384.125,552.875 373.625,557.0 366.375,560.875 359.0,566.125 355.125,569.25"/>
    <polyline points="351.375,573.0 347.625,577.25 343.875,582.25 340.25,588.0 336.75,594.75 333.5,602.5 330.625,611.625 328.125,622.25 326.25,634.5 325.25,648.75 325.5,665.0 327.125,683.625 330.75,704.375 337.0,727.125 346.125,751.0 358.875,775.125 375.625,797.5 396.0,816.0 419.75,828.375 445.625,832.25 471.875,827.0 497.125,812.75 519.75,791.125 539.125,764.5 554.75,735.5 567.0,706.25"/>
    <polyline points="576.25,678.375 583.125,652.75 587.875,630.0 591.125,610.125 593.125,593.0 594.25,578.625 594.625,566.5 594.5,556.375 593.875,548.125 592.875,541.375 591.5,535.75 590.0,531.375 588.125,527.875 586.25,525.125 584.125,523.0 579.625,520.375 577.375,519.625 575.0,519.25 570.5,519.125 566.25,519.625 560.625,521.125"/>
    <polyline points="559.0,521.625 550.125,524.625 548.125,524.875 547.875,524.375 548.25,523.75 550.375,521.875"/>
    <polyline points="550.875,521.625 556.5,518.875 561.25,517.375 565.75,516.25 576.625,514.25"/>
    <polyline points="578.25,514.0 597.625,510.875 607.625,508.875 615.75,506.875 621.375,505.0 624.625,503.5"/>
    <polyline points="626.125,502.75 628.5,501.125 629.25,500.25 630.0,498.625 629.75,497.75 629.125,497.0 628.0,496.25 626.25,495.625 617.875,494.875 609.375,495.625 604.375,496.5 593.125,499.25 587.125,501.125 575.0,505.875 569.125,508.5 558.0,514.25 548.375,520.125"/>
    <polyline points="544.125,522.875 525.25,536.375 520.25,538.875 518.0,538.875 516.5,537.875 515.125,535.5 514.25,532.75"/>
    <line x1="514.125" x2="511.125" y1="532.125" y2="519.0"/>
    <polyline points="511.0,518.625 510.5,516.75 509.375,514.625 507.5,513.0 505.125,512.25"/>
    <polyline points="504.875,512.25 501.125,511.5 498.125,511.25"/>
    <line x1="497.75" x2="484.625" y1="511.125" y2="509.5"/>
    <polyline points="483.875,509.375 473.625,507.875 458.5,504.625"/>
    <polyline points="457.125,504.375 443.375,500.125 436.5,497.375 430.875,494.75 420.875,489.0 416.75,486.0 412.625,482.5"/>
    <polyline points="410.5,480.625 404.25,473.875 400.25,468.375 396.5,462.0 393.125,454.625 390.25,446.0 388.25,436.25 387.625,430.875 387.375,419.25 387.875,413.125 388.875,406.875 390.375,400.5 392.5,394.125 395.25,388.0 398.5,382.125 402.5,376.625 407.125,371.875 412.25,367.875"/>
    <polyline points="418.0,364.75 424.25,362.875 430.75,362.125 437.625,362.5 444.5,364.25 451.375,367.125 458.125,371.125 464.625,376.0 470.75,381.625 476.5,387.875 481.75,394.5 486.625,401.375 491.0,408.25 494.875,415.125 501.5,428.375 506.5,440.5 510.375,451.125 514.5,464.25 517.25,474.5"/>
    <polyline points="518.0,477.375 520.75,488.375 523.25,496.5 525.625,501.75 526.875,503.625 529.125,506.0"/>
    <polyline points="529.625,506.375 533.375,508.75 537.125,510.125 540.875,511.0 546.875,511.875"/>
    <polyline points="547.75,512.0 554.125,512.5 565.875,512.875 582.75,512.625"/>
    <polyline points="584.75,512.625 602.625,511.625 621.625,509.625 630.75,508.125 640.375,506.125 646.75,504.375 653.0,502.125"/>
    <polyline points="656.0,500.875 661.375,497.875 663.625,496.125 665.5,494.25 666.625,492.125 667.125,490.0 666.75,487.75 665.125,485.5 662.25,483.375 657.75,481.5 651.5,480.0 643.5,479.125 633.625,479.125 622.125,480.25 609.25,482.5 595.375,486.125 581.125,491.0 567.125,496.875 553.75,503.75 541.5,511.125 530.5,518.875 521.0,526.375 512.875,533.625 506.125,540.375 500.5,546.5"/>
    <polyline points="495.875,551.875 483.25,568.25 480.75,570.625 478.875,571.5 477.25,571.25 475.75,570.125 470.0,563.25 464.75,558.0"/>
    <polyline points="463.5,557.0 459.75,554.125 455.375,551.625 452.25,550.125 445.375,547.625 437.625,545.625 433.375,544.875 426.625,544.0 416.625,543.375"/>
    <polyline points="414.0,543.375 405.5,543.5 396.375,544.125 390.0,544.875 383.125,546.125 376.0,547.625 368.5,549.875 356.625,554.625 348.375,559.375 344.25,562.25 335.625,569.75 331.375,574.375 327.25,580.0 323.125,586.5"/>
    <polyline points="319.125,594.25 315.5,603.5 312.125,614.375 309.5,627.375 307.625,642.75 306.875,660.75 307.875,681.875 311.125,706.25 317.25,733.625 327.375,763.5 342.125,794.375 362.125,823.875 387.75,848.5 417.875,864.5 450.875,868.75 484.125,859.625 515.125,838.25 542.0,807.75 563.75,771.875 580.5,734.75 592.75,698.875 601.375,666.125 607.125,637.375 610.75,612.75 612.625,591.875 613.125,574.75"/>
    <polyline points="612.625,560.625 611.25,549.25 609.0,540.125 606.25,533.0 602.75,527.5 598.875,523.375 594.5,520.5 589.875,518.625 585.0,517.5 580.0,517.25 575.0,517.5 565.25,519.375 556.375,522.375 548.5,525.75 528.375,536.25"/>
    <polyline points="527.25,536.625 524.125,536.75 523.125,536.125 522.125,534.75 521.25,530.375 521.625,524.875"/>
    <polyline points="521.75,524.375 522.25,522.375 523.625,519.625 525.875,517.375 528.125,516.125 525.875,517.25 523.875,519.25 522.75,521.25 521.625,525.25"/>
    <polyline points="528.5,516.125 531.25,515.25 535.125,514.625 543.875,514.0 534.5,514.625 530.25,515.375 528.5,516.0"/>
    <polyline points="544.75,514.0 576.375,513.0 544.625,514.0"/>
    <polyline points="640.25,504.75 628.375,507.75 611.375,510.375 601.25,511.5 578.125,513.0 596.625,511.875 611.5,510.375 625.5,508.25 634.5,506.375 640.5,504.75"/>
    <polyline points="526.75,524.875 535.375,518.375 545.0,511.875 555.75,505.5 567.375,499.5 579.625,494.25 592.0,489.75 604.125,486.375 615.625,484.0 626.125,482.625 635.25,482.25 642.875,482.625 649.0,483.625 653.625,485.0 656.875,486.625 658.875,488.5 659.75,490.5 659.875,492.375 659.125,494.125 657.875,495.875 656.125,497.5 651.5,500.375 646.125,502.875 643.25,503.875 651.625,500.375 654.0,499.0 657.875,495.75 659.125,494.0 659.75,492.25 659.625,490.375 658.625,488.375 656.5,486.625 653.25,484.875 648.5,483.5 642.25,482.625 634.5,482.25 625.375,482.75 614.875,484.25 603.25,486.625 591.125,490.125 578.75,494.625 566.625,499.875 555.125,505.875 544.375,512.25 534.75,518.875 526.375,525.25"/>
    <polyline points="519.0,531.5 507.625,542.5 492.375,559.5 488.125,563.25 487.0,563.75 485.125,563.875 483.5,563.0 482.0,561.625 475.125,553.5"/>
    <polyline points="474.125,552.5 472.125,550.375 467.375,546.5 463.5,543.875 457.625,540.75 445.5,536.25 435.25,533.625 449.125,537.625 454.375,539.5 459.125,541.625 467.375,546.625 474.125,552.625"/>
    <polyline points="352.875,516.75 365.5,520.625 380.875,524.125 423.5,531.375 433.0,533.25 421.0,530.75 394.75,526.375 377.25,523.0 361.5,519.0 353.0,516.25"/>
    <polyline points="348.625,514.5 344.125,512.625 334.75,507.75 329.875,504.75 325.0,501.25 320.0,497.0 315.0,492.125 309.875,486.25 304.75,479.25 299.75,470.875 295.0,460.875 290.375,448.75 286.375,434.25 283.125,416.75 281.0,395.875 280.625,371.25 282.75,342.625 288.5,310.25 298.875,275.25 315.25,239.625 338.375,207.25 368.375,182.75 403.625,170.75 441.5,173.875 478.625,192.125"/>
    <polyline points="512.125,222.125 540.125,259.0 561.875,298.125 578.125,335.875 589.375,370.125 596.625,399.75 600.875,424.75 602.625,445.5 602.375,462.25 600.5,475.625 597.375,486.125 593.25,494.25 588.375,500.375 582.75,504.875 576.75,508.0 570.5,509.75 564.125,510.75 557.75,510.75 551.5,510.125 545.625,509.125 535.0,505.875 530.25,504.0 519.0,498.125"/>
    <polyline points="516.125,496.375 504.625,488.5 502.625,487.75 501.75,487.75 500.625,489.375 499.75,493.75"/>
    <polyline points="499.625,494.25 498.625,497.875 497.375,500.375 496.0,502.125 493.5,503.875"/>
    <polyline points="493.125,504.0 491.875,504.625 486.625,505.625 478.0,505.625"/>
    <polyline points="477.125,505.625 469.5,504.75 459.0,502.75 447.5,499.5"/>
    <polyline points="446.0,499.0 435.875,495.0 428.5,491.25 424.625,489.0 416.75,483.25 408.75,475.5 404.875,470.625 399.375,461.875"/>
    <polyline points="397.75,458.5 396.125,454.875 393.375,446.875 391.5,437.75 390.5,427.625 390.875,416.5 393.0,404.875 394.75,399.0 397.125,393.375 400.0,387.875 403.5,382.75 407.5,378.125 412.125,374.125 417.125,371.0 422.75,368.875 428.625,367.625 434.75,367.5 441.125,368.5 447.5,370.625 453.75,373.625 459.875,377.625"/>
    <polyline points="465.75,382.375 471.375,387.75 476.5,393.625 481.375,399.875 485.75,406.125 489.625,412.625 493.25,418.875 496.375,425.125 501.75,436.875 505.875,447.375 509.0,456.5 514.125,474.125 517.875,489.25"/>
    <polyline points="518.25,490.75 520.625,498.625 522.625,502.875 524.5,505.375 527.25,507.875"/>
    <polyline points="527.625,508.125 530.5,509.625 535.125,511.0 543.125,512.125"/>
    <polyline points="544.0,512.25 560.125,513.0 575.25,512.875"/>
    <polyline points="577.0,512.875 600.0,511.75 615.625,510.25 630.375,508.0 639.75,505.875"/>
    <polyline points="642.875,505.0 649.125,503.0 654.875,500.625 660.0,497.625 662.0,495.875 663.625,494.0 664.625,492.0 664.875,489.875 664.125,487.75 662.375,485.625 659.125,483.75 654.5,482.0 648.125,480.75 640.0,480.125 630.25,480.25 618.875,481.625 606.375,484.0 593.0,487.625 579.375,492.5 566.0,498.375 553.25,505.0 541.5,512.125 531.125,519.375"/>
    <polyline points="522.0,526.625 514.25,533.5 507.75,539.875 497.875,550.75 485.375,566.125 482.875,568.375 480.875,569.125 479.25,568.75 478.5,568.25 477.0,566.875 471.0,559.625"/>
    <polyline points="470.0,558.625 466.75,555.375 461.75,551.625 457.5,549.0 452.75,546.75 444.0,543.75 435.875,541.75 429.25,540.625"/>
    <polyline points="426.875,540.375 419.5,539.5 405.625,538.75 396.375,538.75 379.25,539.625 367.875,540.875 359.75,542.25 346.875,545.25 342.375,546.75"/>
    <polyline points="337.75,548.375 328.25,552.625 323.375,555.5 318.5,558.75 313.5,562.75 308.5,567.5 303.375,573.25 298.5,580.125 293.625,588.5 289.125,598.75 285.0,611.375 281.5,626.625 279.0,645.5 278.0,668.25 279.375,695.875 283.875,728.75 293.125,766.625 308.5,808.5 331.625,851.25 363.375,889.875 403.25,917.25 448.5,926.75 494.625,915.0 536.75,883.625 571.5,838.625"/>
    <polyline points="598.0,787.875 616.75,737.375 629.25,691.125 637.0,651.0 641.125,617.5 642.375,589.875 641.5,567.875 638.5,550.375 633.875,536.875 627.5,526.625 619.75,519.375 610.75,514.625 600.75,512.125 590.25,511.625 579.25,512.625 568.5,515.0 558.125,518.5 548.375,522.625 539.5,527.25 531.625,532.125 518.75,541.375 509.5,549.375 503.0,555.5"/>
    <polyline points="500.5,557.75 496.875,561.0 494.25,562.5 492.25,562.75 490.625,562.125 489.125,560.75 480.875,548.875 477.0,544.625"/>
    <polyline points="476.0,543.625 469.0,538.125 460.75,533.625 454.375,531.0 437.25,525.75"/>
    <polyline points="435.125,525.125 410.125,518.5 391.875,512.25 381.75,507.625 374.625,503.75 370.875,501.375 363.375,495.875 359.625,492.5"/>
    <polyline points="355.75,488.75 351.875,484.5 348.0,479.625 344.25,474.125 340.5,467.625 337.0,460.375 333.625,452.0 330.625,442.25 328.0,431.25 326.125,418.625 325.0,404.375 325.0,388.375 326.5,370.625 329.875,351.375 335.5,331.125 343.875,310.625 355.25,291.0 369.875,273.875 387.5,260.75 407.5,253.25 429.125,252.375 451.25,258.375 472.5,270.75 492.125,288.0 509.375,308.625 523.875,330.875"/>
    <polyline points="535.875,353.25 545.375,374.75 552.625,394.5 558.25,412.375 562.25,428.0 565.125,441.625 567.0,453.25 568.125,463.25 568.75,478.5 568.5,484.25 567.125,492.875 565.25,498.625 564.25,500.75 562.125,503.75 559.0,506.25 555.25,507.625"/>
    <polyline points="554.625,507.75 553.0,508.0 555.75,509.0 562.75,510.5"/>
    <polyline points="563.75,510.625 577.875,512.375 588.125,513.0 605.125,513.375"/>
    <polyline points="607.5,513.375 620.875,513.25 636.5,512.625 647.0,511.875 662.75,510.25 675.875,508.25 685.25,506.25 695.0,503.5 699.875,501.75"/>
    <polyline points="704.75,499.75 709.625,497.375 714.125,494.5 718.25,491.125 721.625,487.25 724.0,482.75 724.625,477.625 723.0,472.0 718.0,466.0 708.75,460.125 694.25,455.25 673.875,452.25 647.75,452.375 617.0,456.625 584.25,465.625 551.875,479.0 522.5,495.75 497.75,514.25 477.875,533.375 462.875,551.75 451.875,568.875 444.25,584.375 439.125,598.0 436.125,609.875 434.625,620.125 434.25,628.75"/>
    <polyline points="434.875,636.125 436.125,642.125 438.0,646.875 440.375,650.625 443.125,653.375 446.125,655.125 449.25,656.0 452.5,656.0 455.875,655.25 459.125,653.75 462.375,651.625 468.5,645.75 471.25,642.25 476.25,634.125 480.375,625.375 483.625,616.5 486.0,607.75 487.625,599.375 488.625,591.5"/>
    <polyline points="488.875,587.875 489.125,578.0 488.5,569.5 487.25,562.375 486.0,558.25 484.75,554.5 480.75,546.875 476.875,542.125 473.5,539.0"/>
    <polyline points="472.375,538.0 467.375,534.625 458.75,530.375 444.875,525.5 430.0,521.375"/>
    <polyline points="427.75,520.625 412.375,516.125 397.75,510.75 384.875,504.5 378.0,500.375 367.375,492.125 360.125,484.75 352.875,475.25 349.375,469.625"/>
    <polyline points="346.0,463.125 342.75,455.75 339.875,447.375 337.25,437.875 335.125,427.0 333.625,414.875 333.0,401.25 333.5,386.125 335.5,369.75 339.125,352.25 344.875,334.125 353.0,316.125 363.875,299.125 377.375,284.625 393.25,273.75 411.25,267.75 430.5,267.375 450.125,272.625 469.125,283.375 486.75,298.25 502.375,316.125 516.0,335.625 527.25,355.5 536.375,374.875 543.75,393.0 549.375,409.5"/>
    <polyline points="553.75,424.375 557.0,437.375 560.875,458.375 562.0,466.75 562.875,479.75 562.625,488.875 561.875,495.25 559.875,502.625 557.25,507.25 557.0,508.25 558.375,509.25 561.125,510.0 567.0,511.125 576.625,512.25"/>
    <polyline points="578.0,512.375 591.25,513.375 605.875,513.875 633.0,513.75"/>
    <polyline points="636.25,513.625 646.375,513.375 661.5,512.5 678.75,510.875 688.25,509.625 698.375,507.75 703.625,506.625 714.5,503.625 720.125,501.75 725.75,499.375 731.25,496.5 736.625,493.0 741.375,488.875 745.25,483.875 747.625,478.0"/>
    <polyline points="747.75,471.125 744.375,463.5 735.875,455.375 720.75,447.75 697.625,442.125 665.875,440.125 627.0,444.0 584.5,454.625 542.875,471.875 506.0,493.875 476.0,518.375 453.375,543.375 437.25,567.25 426.5,589.25 419.875,609.125 416.5,626.75 415.375,642.25 416.375,655.75 418.875,667.375 422.625,677.125 427.375,685.0 433.125,691.0 439.5,695.125 446.375,697.25 453.5,697.5 460.625,696.0"/>
    <polyline points="467.875,692.75 474.75,688.0 481.125,681.875 487.125,674.875 492.625,667.0 497.5,658.625 501.75,650.0 505.5,641.375 508.75,632.75 513.625,616.375 515.5,608.875 518.25,595.0 520.125,583.0 521.25,572.875 522.125,560.625 522.625,546.25"/>
    <polyline points="522.75,544.0 523.0,534.0 523.75,526.75 525.0,522.75 526.625,520.0"/>
    <polyline points="526.875,519.625 527.875,518.625 529.875,517.375 532.75,516.125 539.625,514.875"/>
    <polyline points="540.375,514.75 551.25,514.0 567.75,513.5"/>
    <polyline points="569.25,513.375 581.375,512.875 600.625,511.5 608.0,510.75 624.5,508.25"/>
    <polyline points="627.375,507.75 636.25,505.75 642.125,504.0 650.25,500.625 652.625,499.25 656.5,496.25 657.875,494.5 658.5,492.75 658.5,490.875 657.75,489.0 655.875,487.25 652.75,485.625 648.375,484.125 642.5,483.25 635.25,482.875 626.5,483.125 616.5,484.375 605.375,486.5 593.625,489.75 581.5,494.0"/>
    <polyline points="569.5,499.0 558.125,504.75 547.375,510.875 537.75,517.25 529.125,523.625 521.75,529.625 510.0,540.625 490.875,561.125 488.5,562.5 486.5,562.75 484.125,561.5 481.0,558.0"/>
    <polyline points="480.25,557.0 473.625,549.625 466.625,543.875 462.5,541.375 458.0,539.125 447.875,535.25"/>
    <polyline points="446.0,534.625 433.625,531.375 401.875,525.125 388.875,522.25 378.25,519.5"/>
    <polyline points="374.5,518.375 366.75,515.875 358.625,512.625 350.0,508.5 345.625,505.875 336.5,499.625 331.875,495.625 327.25,491.0 322.5,485.625 317.75,479.25 313.125,471.75 308.625,462.875 304.375,452.25 300.5,439.75 297.25,425.0 294.875,407.5 293.875,387.125 294.75,363.5 298.125,336.75 304.875,307.5 316.0,276.875 332.375,247.125"/>
    <polyline points="354.25,221.125 381.375,202.75 412.375,195.0 445.125,199.75 477.0,216.25 505.875,242.0 530.375,273.5 550.0,307.125 565.0,339.875 575.875,370.125 583.5,396.875 588.375,419.875 591.125,439.25 592.125,455.25 591.75,468.25 590.375,478.75 588.125,487.25 585.25,493.75 581.75,498.875 578.0,502.625 573.875,505.375 569.5,507.25 565.25,508.375 556.625,509.0 552.5,508.625"/>
    <polyline points="548.625,508.0 541.5,506.25 535.5,504.125 519.375,496.5 518.25,496.375 517.75,496.625 517.5,498.125"/>
    <polyline points="517.625,498.5 517.875,499.75 519.375,503.125 520.875,505.375 523.375,507.75"/>
    <polyline points="523.625,508.0 527.875,510.25 535.375,511.875"/>
    <polyline points="536.0,512.0 544.375,512.75 559.5,513.125"/>
    <polyline points="560.75,513.125 585.5,512.625 608.625,510.875"/>
    <polyline points="611.25,510.625 619.625,509.625 628.5,508.125 640.875,505.375 650.0,502.375 652.875,501.125 658.0,498.25 661.875,494.875 663.125,493.0 663.625,491.0 663.25,488.875 661.875,486.75 659.375,484.875 655.375,483.0 649.75,481.625"/>
    <polyline points="642.5,480.75 633.625,480.625 623.125,481.5 611.25,483.375 598.5,486.5 585.25,490.75 572.0,496.0 559.25,502.25 547.375,509.0 536.5,516.0 527.0,523.125 518.75,530.0 511.875,536.375 501.125,547.625 489.25,562.0 485.875,565.625 483.625,567.375 482.625,567.75 480.875,567.625"/>
    <polyline points="480.125,567.125 477.0,564.125 471.75,557.75 465.0,551.625 458.125,547.25 451.75,544.375"/>
    <polyline points="450.0,543.75 444.5,541.875 438.625,540.375 427.5,538.25 417.375,537.0 406.25,536.125 387.0,535.5"/>
    <polyline points="383.5,535.5 364.375,535.875 347.25,537.125 338.0,538.25 328.25,539.875 318.0,542.25 312.75,543.75 301.75,547.75 296.125,550.5 290.375,553.75 284.5,557.875 278.625,562.875 272.75,569.125 266.875,576.875 261.125,586.625"/>
    <polyline points="255.75,599.0 250.875,614.625 246.875,634.5 244.375,659.625 244.25,691.375 247.875,731.125 257.375,779.25 275.25,835.25 304.75,894.875 347.875,949.75 403.875,986.875 467.375,993.875 529.375,966.625 582.0,911.75 621.375,843.0 648.0,773.125 664.5,709.75 673.5,656.125 676.875,612.5 676.0,578.125 671.125,551.5 662.625,531.375 650.625,517.0 635.25,507.75 617.25,503.0 597.5,502.5"/>
    <polyline points="577.0,505.625 557.125,511.75 538.625,520.25 522.25,530.0 508.5,540.375 497.125,550.75 488.25,560.625 481.25,569.625 476.0,577.625 469.5,590.375 467.625,595.25 465.625,602.0 465.25,604.125 465.25,606.375 465.5,606.75 465.875,606.625 466.875,604.25 467.75,598.25"/>
    <polyline points="467.875,596.5 467.625,591.0 466.75,585.5 464.5,578.75 462.25,574.375 459.375,570.375 456.0,567.125 452.0,564.25 447.625,562.0"/>
    <polyline points="446.125,561.375 441.125,559.75 433.625,558.5 425.25,558.25 418.375,558.875 411.0,560.25 403.125,562.625 394.875,566.375 389.125,569.875"/>
    <polyline points="386.25,572.0 383.25,574.25 377.5,580.0 371.75,587.375 369.0,591.75 366.375,596.625 364.0,602.25 361.75,608.625 359.75,615.75 358.125,623.75 357.0,632.625 356.5,642.625 356.75,653.75 358.0,665.875 360.25,679.0 363.875,692.875 369.0,707.375 376.0,721.875 384.75,735.875 395.625,748.625 408.25,759.0 422.5,766.375 437.75,769.75 453.75,768.75"/>
    <polyline points="469.625,763.375 484.75,753.75 498.75,740.625 511.25,724.875 522.0,707.625 531.0,689.625 538.25,671.75 544.25,654.5 548.875,638.375 552.5,623.5 555.375,610.125 559.125,587.5 561.125,570.0 562.625,551.375 563.375,533.75 563.875,528.0"/>
    <polyline points="564.125,526.5 565.25,522.375 566.0,520.875 568.0,518.75 572.125,516.5 580.5,513.875"/>
    <polyline points="581.625,513.625 598.625,509.125 604.125,507.0 606.125,505.5"/>
    <polyline points="606.375,505.25 606.25,504.625 605.625,504.25 602.0,504.0 597.25,504.5 591.125,505.875 579.0,509.875 564.875,516.125"/>
    <polyline points="562.875,517.25 550.75,523.625 548.5,524.5 547.625,524.5 547.875,523.75 549.125,522.625"/>
    <polyline points="549.5,522.375 552.25,520.625 557.75,518.375 562.875,516.875 573.0,514.875"/>
    <polyline points="574.5,514.625 594.875,511.375 606.875,509.125 615.0,507.125 620.875,505.25"/>
    <polyline points="622.625,504.625 625.875,503.125 629.375,500.625 630.375,498.875 630.375,498.0 629.875,497.25 627.625,495.75 623.0,494.875 616.125,494.875 607.0,495.875 595.875,498.375 583.875,502.25 571.625,507.25 560.125,513.0"/>
    <polyline points="554.875,516.0 541.5,524.5 527.25,534.875 523.75,537.25 521.125,538.625 518.375,539.375 516.625,538.75 515.375,537.375 514.125,534.75"/>
    <polyline points="513.875,534.0 511.5,524.25 510.125,519.875"/>
    <polyline points="510.0,519.5 508.375,516.0 506.75,514.25 504.5,513.0 500.625,512.0"/>
    <line x1="500.375" x2="489.375" y1="512.0" y2="510.375"/>
    <polyline points="488.75,510.25 476.625,508.5 467.5,506.75"/>
    <polyline points="466.375,506.5 458.75,504.875 447.0,501.5 436.75,497.625 427.25,493.0"/>
    <polyline points="425.375,491.875 417.125,486.375 410.875,481.125 406.625,476.75 402.5,471.875 400.5,469.0 396.75,462.75 393.25,455.375 391.75,451.25 389.125,442.25 387.5,431.875 387.25,420.375 387.625,414.25 388.5,408.0"/>
    <polyline points="390.0,401.625 391.875,395.25 394.5,389.0 397.75,383.0 401.625,377.5 406.125,372.5 411.125,368.375 416.875,365.125 423.0,362.875 429.5,361.875 436.25,362.125 443.25,363.625 450.125,366.25 456.875,370.125 463.5,374.75 469.75,380.375 475.625,386.5 481.0,393.125 485.875,400.0 494.375,413.875 503.875,433.5 508.375,445.0"/>
    <polyline points="510.125,450.25 515.5,467.375 521.75,491.375 523.75,497.5 526.125,502.25"/>
    <polyline points="526.625,502.875 527.875,504.625 531.25,507.5 536.625,509.875 541.0,511.0"/>
    <polyline points="572.375,512.875 587.25,512.5 605.75,511.375 622.375,509.5 631.5,508.0"/>
    <polyline points="634.75,507.375 641.125,506.0 650.75,503.125 659.5,499.125 664.25,495.75 665.875,493.75 667.0,491.75 667.25,489.5 666.625,487.25 664.75,485.0 661.5,483.0 656.625,481.125 650.125,479.75 641.625,479.0 631.375,479.25 619.5,480.5 606.25,483.125 592.25,487.0 578.0,492.125 564.125,498.375"/>
    <polyline points="550.875,505.375 538.875,512.875 528.25,520.5 519.0,528.0 511.125,535.25 499.25,547.75 494.875,553.0 486.25,564.375 482.75,568.625 480.375,571.0 478.5,571.625 477.0,571.25 475.5,570.125 471.5,565.375"/>
    <polyline points="470.625,564.25 467.75,561.0 463.25,556.875 456.5,552.375 448.5,548.75 439.125,546.125 432.875,545.0"/>
    <polyline points="430.625,544.625 418.5,543.625 407.625,543.625 398.75,544.125 385.75,545.875 375.0,548.25 367.5,550.625 359.625,553.875 355.625,555.75 351.5,558.125"/>
    <polyline points="347.375,560.75 343.125,563.875 339.0,567.5 334.75,571.875 330.5,576.875 326.375,582.875 322.25,589.875 318.5,598.125 315.0,608.0 311.875,619.625 309.5,633.375 308.125,649.625 308.125,668.75 309.875,691.0 314.125,716.25 321.75,744.5 333.375,774.625 350.0,804.875 372.0,832.5 399.125,854.0 430.25,865.625 463.25,864.875 495.625,851.125 524.875,826.25 549.625,793.75 569.375,757.5"/>
    <polyline points="584.25,721.0 595.125,686.5 602.625,655.375 607.5,628.375 610.5,605.25 611.875,585.875 612.125,570.0 611.375,556.875 609.75,546.375 607.5,538.0 604.5,531.375 601.125,526.375 597.125,522.625 592.875,520.125 588.375,518.375 583.625,517.625 578.75,517.375 569.25,518.5 564.625,519.625 556.0,522.5 542.375,528.875"/>
    <polyline points="539.75,530.25 530.5,535.125 527.375,536.125 525.875,536.125 524.375,535.375 523.25,533.375 522.875,531.0 522.875,528.5"/>
    <polyline points="523.0,527.875 523.75,524.0 524.5,522.0 526.375,519.375 528.875,517.5"/>
    <polyline points="529.375,517.25 531.625,516.25 537.375,515.0 545.125,514.375"/>
    <line x1="546.0" x2="579.125" y1="514.25" y2="513.0"/>
    <polyline points="580.875,512.875 597.75,511.75 618.25,509.375 632.75,506.625 638.625,505.125 644.375,503.125"/>
    <polyline points="647.125,502.125 652.25,499.625 654.5,498.125 656.375,496.625 657.75,494.875 658.625,493.125 658.75,491.25 658.125,489.375 656.5,487.625 653.75,485.875 649.75,484.375 644.25,483.375 637.25,482.75 628.875,482.875 619.0,483.875 608.125,485.875 596.5,488.875 584.375,492.75 572.25,497.625 560.625,503.25 549.75,509.375 539.75,515.75 530.875,522.125 523.125,528.375 516.5,534.25"/>
    <polyline points="511.0,539.625 506.25,544.375 494.375,557.625 491.0,561.0 487.5,563.0 486.625,563.0 484.875,562.375 483.375,561.125 474.75,551.0"/>
    <polyline points="473.625,550.0 470.375,547.0 465.375,543.375 456.5,538.75 449.75,536.125 444.125,534.375 433.75,531.75"/>
    <polyline points="431.5,531.25 395.75,524.25 382.125,521.125 370.875,518.0 362.875,515.25 358.75,513.625 350.25,509.625"/>
    <polyline points="345.875,507.25 336.75,501.25 332.0,497.5 322.5,488.0 317.75,481.875 313.125,474.75 308.5,466.25 304.0,456.25 300.0,444.25 296.375,430.125 293.75,413.25 292.125,393.5 292.25,370.625 294.875,344.25 300.625,315.125 310.5,284.125 325.5,253.0 346.25,225.0 372.5,203.625 403.375,192.375 436.5,193.75 469.625,207.75 500.0,232.125 526.125,263.375"/>
    <polyline points="547.375,297.5 563.625,331.375 575.5,363.0 583.875,391.125 589.25,415.25 592.375,435.75 593.5,452.625 593.375,466.375 592.0,477.5 589.75,486.375 586.625,493.25 583.0,498.625 579.0,502.625 574.75,505.5 570.125,507.375 565.5,508.625 561.0,509.125 556.375,509.125 552.125,508.75 547.875,508.125 540.375,506.125 534.0,503.75 528.875,501.375"/>
    <polyline points="526.75,500.375 519.375,496.375 516.625,495.25 515.375,495.5 515.0,496.375 515.125,498.375 515.625,500.125"/>
    <polyline points="515.75,500.625 517.0,504.0 518.0,505.75 519.75,507.875 520.875,508.75"/>
    <polyline points="521.125,509.0 522.5,509.875 525.5,511.0 530.375,512.0"/>
    <polyline points="530.875,512.125 540.375,512.875 549.125,513.125"/>
    <polyline points="550.25,513.125 571.125,513.125 587.625,512.5"/>
    <polyline points="659.625,496.5 661.25,494.75 662.25,492.75 662.625,490.875 662.25,488.75 660.625,486.75 657.875,484.875 653.75,483.125 648.125,481.875 640.75,481.125 631.75,481.125 621.25,482.125 609.625,484.125 597.0,487.25 583.875,491.625 570.875,496.875 558.5,503.0 546.75,509.625 536.25,516.625 527.0,523.5 512.125,536.5 501.75,547.375 494.75,555.625"/>
    <polyline points="492.125,558.75 488.25,563.375 485.5,565.875 483.5,566.75 481.75,566.625 478.625,564.0 471.5,555.625 465.875,550.625"/>
    <polyline points="464.5,549.625 460.5,547.0 456.0,544.625 445.625,540.75 433.375,537.75 416.125,535.25"/>
    <polyline points="413.5,534.875 395.375,533.375 370.375,532.125 314.875,530.5"/>
    <polyline points="309.375,530.375 279.625,528.75 273.25,528.125 259.75,526.5 245.625,523.875 238.25,521.875 230.625,519.375 222.875,516.0 214.875,511.625 206.75,505.75 198.375,497.875 189.875,487.125 181.375,472.625 173.125,452.75 165.625,425.25 159.625,387.625 157.125,336.125 161.25,267.375 177.75,180.125 214.875,80.375"/>
    <polyline points="531.5367,0.0 572.25,34.5 639.75,142.125 680.875,247.625 701.375,336.25 706.75,405.375 699.875,457.5 682.375,495.625 654.875,522.25 618.875,538.375 577.0,544.25 533.75,540.375 493.25,528.25 458.875,509.75 432.25,487.75 413.125,464.125 400.5,440.75 393.25,418.375 390.125,397.625 390.625,379.0 393.875,362.5 399.5,348.5 407.125,337.375 416.375,329.375"/>
    <polyline points="427.0,324.625 438.25,323.25 449.875,325.125 461.5,330.125 472.625,337.5 482.875,347.0 492.25,357.75 500.625,369.5 507.875,381.5 514.0,393.25 519.125,404.75 523.375,415.5 526.875,425.5 532.0,443.0 535.25,457.125 537.25,468.125 538.875,480.25 539.875,490.625"/>
    <polyline points="540.125,492.375 540.75,496.875 541.625,500.0 542.75,502.375 544.125,504.25 545.875,505.75 547.875,506.875 551.875,508.625 553.75,509.125"/>
    <polyline points="554.75,509.5 562.625,511.0 572.375,512.0 586.5,512.625 592.75,512.625"/>
    <polyline points="595.0,512.625 604.5,512.5 621.0,511.625 630.375,510.875 644.25,509.125 655.625,507.125 663.5,505.25 667.5,504.125 675.5,501.25"/>
    <polyline points="679.375,499.625 686.375,495.375 689.375,492.875 691.75,490.0 693.25,486.875 693.5,483.375 692.125,479.75 688.875,476.0 683.0,472.5 674.25,469.5 662.125,467.375 646.75,466.875 628.25,468.375 607.625,472.25 585.875,478.75 564.25,487.5 543.875,498.125 525.625,509.875 510.0,522.125 497.125,534.25 486.875,545.75 478.75,556.25 472.625,565.625 468.0,573.875 464.625,580.875"/>
    <polyline points="462.125,586.75 460.375,591.625 458.375,598.625 457.625,602.75 457.75,605.0 458.125,604.25 458.375,601.625 457.875,595.5 457.25,592.875 455.25,587.875"/>
    <polyline points="454.625,586.75 452.375,583.5 449.5,580.75 446.375,578.5 442.625,576.875 438.5,575.75 432.375,575.375 427.375,576.0 422.0,577.5"/>
    <polyline points="420.125,578.125 414.5,581.0 410.75,583.625 406.875,587.0 403.125,591.125 401.25,593.5 397.875,599.0 396.25,602.25 393.375,609.5 391.25,618.125 390.5,623.0 390.0,633.875 390.25,639.75 390.875,646.0 392.125,652.5 393.875,659.25 396.125,666.125"/>
    <polyline points="399.125,672.875 402.75,679.5 407.125,685.625 412.25,691.375 417.875,696.125 424.25,700.0 431.0,702.625 438.25,703.875 445.75,703.75 453.25,702.0 460.75,698.75 468.0,694.0 474.875,688.125 481.25,681.25 487.125,673.5 492.375,665.125 497.125,656.5 501.25,647.625 504.75,638.875 510.375,622.0 514.25,606.625 516.875,593.125 517.75,587.125"/>
    <polyline points="518.5,581.5 520.25,563.375 520.75,550.625 520.875,535.125 521.5,525.875"/>
    <polyline points="519.375,531.125 513.125,536.875 507.875,542.25 490.75,561.125 488.0,563.375 487.0,563.875 485.125,564.0 483.5,563.125 481.25,561.0 475.125,553.75"/>
    <polyline points="348.5,515.125 339.375,511.0 329.75,505.625 319.875,498.125 314.75,493.25 309.625,487.625 304.5,480.75 299.5,472.625 294.5,462.875 289.875,451.125 285.75,436.875 282.25,419.75 279.875,399.375 279.125,375.0 280.875,346.75 286.0,314.375 295.75,279.125 311.375,243.0 333.875,209.375 363.25,183.125 398.5,168.875 436.875,170.125 474.75,186.875"/>
    <polyline points="509.25,216.25 538.25,253.25 561.0,292.875 577.875,331.5 589.75,366.5 597.375,397.0 601.75,422.75 603.625,444.0 603.5,461.25 601.625,475.0 598.5,485.875 594.25,494.25 589.125,500.5 583.375,505.125 577.125,508.25 570.625,510.125 564.0,510.875 557.375,511.0 551.0,510.25 544.875,509.125 533.875,505.75 524.75,501.625 517.5,497.625"/>
    <polyline points="514.625,495.75 503.875,488.125 502.25,487.125 501.0,486.75 500.25,486.75 499.375,487.625 498.0,492.875"/>
    <polyline points="497.875,493.375 496.875,496.625 494.875,500.125 492.75,502.0 490.625,503.125"/>
    <polyline points="490.25,503.25 487.625,504.125 482.75,504.75 477.375,504.75 472.875,504.375"/>
    <polyline points="471.875,504.25 466.625,503.625 456.875,501.625 448.25,499.25 438.625,495.625"/>
    <polyline points="436.875,494.875 429.625,491.25 423.875,487.75 420.0,485.0 414.125,480.0 410.125,476.0 406.25,471.375 404.375,468.75 399.125,459.75 394.75,448.5 392.75,439.875"/>
    <polyline points="392.0,435.125 391.375,424.875 392.25,413.75 394.875,402.375 396.875,396.75 399.5,391.25 402.625,386.125 406.25,381.375 410.5,377.25 415.25,373.875 420.5,371.25 426.125,369.625 432.0,369.0 438.125,369.5 444.25,371.0 450.5,373.5 456.5,376.875 462.375,381.125 468.0,386.125 473.25,391.5 478.25,397.375 482.75,403.5 486.875,409.75"/>
    <polyline points="490.5,416.0 493.875,422.125 499.5,433.875 505.625,449.375 511.875,469.125 518.75,495.875"/>
    <polyline points="519.0,496.875 521.125,502.25 522.75,504.875 525.25,507.5 527.75,509.0"/>
    <polyline points="528.25,509.25 533.375,511.0 537.25,511.75 544.25,512.5"/>
    <polyline points="545.125,512.5 555.5,513.0 577.5,512.875"/>
    <polyline points="579.25,512.75 598.125,511.875 616.125,510.125 627.875,508.375 643.375,504.75"/>
    <polyline points="646.5,503.75 652.5,501.5 657.875,498.75 662.125,495.375 663.5,493.5 664.25,491.5 664.25,489.375 663.125,487.25 661.0,485.25 657.375,483.375 652.25,481.75 645.5,480.625 637.0,480.25 626.875,480.75 615.25,482.375 602.5,485.125 589.125,489.125 575.75,494.25 562.625,500.25 550.25,506.875 539.0,514.0 529.0,521.25 520.25,528.25"/>
    <polyline points="512.875,535.0 501.625,546.75 487.125,564.25 483.125,568.0 481.25,568.5 480.375,568.375 478.875,567.5 470.25,557.75"/>
    <polyline points="469.25,556.625 462.0,550.75 459.125,549.0 453.0,546.0 447.875,544.0 442.25,542.375 433.875,540.5 427.0,539.375"/>
    <polyline points="424.625,539.125 411.5,537.875 402.75,537.5 393.25,537.375 379.375,537.75 363.875,539.0 355.625,540.125 346.875,541.75 337.625,544.0"/>
    <polyline points="332.875,545.375 323.0,549.125 318.0,551.5 312.75,554.5 307.5,558.0 302.25,562.125 296.875,567.25 291.625,573.5 286.375,581.125 281.25,590.625 276.5,602.125 272.375,616.5 268.875,634.375 266.875,656.375 266.75,683.5 269.625,716.5 276.875,755.75 290.375,800.625 312.25,848.875 343.875,895.25 385.75,931.75 435.25,949.375 487.25,942.375 535.75,911.125 576.0,862.375"/>
    <polyline points="606.375,805.625 627.625,748.875 641.375,697.25 649.5,652.75 653.375,615.875 654.0,586.125 652.0,562.5 647.5,544.125 640.75,530.125 631.875,520.125 621.125,513.375 609.0,509.75 595.625,508.625 581.875,509.875 568.125,513.0 555.0,517.625 542.875,523.25 531.875,529.625 522.375,536.0 514.25,542.375 501.875,554.0 493.625,563.125 488.375,569.625"/>
  </g>
</svg>
