<?xml version="1.0" encoding="utf-8" ?>
<svg xmlns="http://www.w3.org/2000/svg" xmlns:cc="http://creativecommons.org/ns" xmlns:dc="http://purl.org/dc/elements/1.1/" xmlns:ev="http://www.w3.org/2001/xml-events" xmlns:inkscape="http://www.inkscape.org/namespaces/inkscape" xmlns:rdf="http://www.w3.org/1999/02/22-rdf-syntax-ns" xmlns:sodipodi="http://sodipodi.sourceforge.net/DTD/sodipodi-0.dtd" xmlns:xlink="http://www.w3.org/1999/xlink" baseProfile="tiny" height="27.09333333cm" version="1.2" viewBox="0 0 1024.0 1024.0" width="27.09333333cm">
  <metadata>
    <rdf:RDF>
      <cc:Work>
        <dc:format>image/svg+xml</dc:format>
        <dc:source>vpype read './original_svgs/Strange Attractors #172.svg' linemerge linesimplify write './Strange Attractors #172.svg'
</dc:source>
        <dc:date>2024-08-05T01:35:33.774553</dc:date>
      </cc:Work>
    </rdf:RDF>
  </metadata>
  <defs/>
  <g fill="none" id="layer1" inkscape:groupmode="layer" inkscape:label="1" stroke="black" stroke-width="0.7mm" style="display:inline">
    <polyline points="373.125,638.5 393.375,614.75 410.75,598.75 425.875,588.875 439.75,583.625 453.25,582.25 466.875,584.0 481.375,588.125 497.125,594.5 514.5,602.375 554.25,621.125 576.25,630.625 598.875,639.125 621.125,645.5 641.75,648.875 659.75,648.625 674.25,644.375 684.75,636.375 691.25,625.25 694.125,611.75 694.25,597.0 692.25,581.625 689.0,566.75 684.875,552.5 680.5,539.5"/>
    <polyline points="676.125,527.625 671.875,517.25 664.25,500.125 657.75,487.625 652.25,478.875 649.625,475.625 644.75,470.875 642.375,469.375 637.625,467.5 635.25,467.125 630.375,467.25 625.5,468.25 620.5,469.875 615.5,472.0 608.25,475.625"/>
    <polyline points="605.875,476.875 592.875,484.25 568.25,498.875"/>
    <polyline points="567.625,499.375 565.25,501.125 564.5,502.0 564.25,503.0 565.125,503.75 568.25,504.125"/>
    <polyline points="568.875,504.0 571.0,504.0 576.625,503.25 583.875,501.625 591.375,499.375 600.25,496.0"/>
    <polyline points="602.25,495.125 613.125,489.875 622.875,484.125 636.125,474.75 644.25,468.0 651.75,460.625 657.875,453.375 660.875,448.875"/>
    <polyline points="661.875,446.875 662.875,443.625 662.75,442.375 662.125,441.5 661.125,441.0 659.75,440.75 655.75,441.5 650.125,443.875 643.375,447.375 635.875,452.0 623.75,460.0 593.5,480.875"/>
    <polyline points="590.25,483.0 573.5,493.375 566.75,497.0 554.625,502.75 544.5,506.625"/>
    <polyline points="543.75,506.875 538.25,509.0 537.0,509.75 536.5,510.375 536.625,510.625 537.5,511.125 540.5,511.625 548.5,511.875"/>
    <polyline points="549.375,511.75 562.75,510.875 574.375,509.0 581.5,507.375"/>
    <polyline points="583.375,506.875 594.0,503.625 604.125,499.75 609.625,497.25 622.125,490.75 632.625,484.25 644.0,476.125 656.125,466.125 660.125,462.375"/>
    <polyline points="664.125,458.5 675.25,446.125 678.5,442.0 683.5,434.125 685.25,430.625 686.25,427.5 686.5,424.875 686.0,423.0 684.625,421.75 682.375,421.25 679.25,421.625 675.5,422.75 665.75,427.375 654.25,434.5 648.0,438.75 635.375,448.0 611.125,466.625"/>
    <polyline points="605.625,470.75 590.625,482.0 578.0,490.75 564.25,498.875 555.75,503.0 550.75,505.0 542.25,507.75 532.0,510.0"/>
    <polyline points="530.5,510.125 522.75,511.0 511.125,511.25 504.75,511.0 496.625,510.25 484.375,508.375"/>
    <polyline points="504.75,510.875 495.0,510.0 484.875,508.375"/>
    <polyline points="483.875,508.25 466.5,504.625 449.625,500.0"/>
    <polyline points="483.375,508.25 466.625,504.75 449.625,500.125 430.625,493.625 411.25,485.75 394.25,477.75 378.75,469.5 360.0,458.5 345.625,449.25"/>
    <polyline points="337.75,444.0 312.375,425.5 294.75,411.375 286.375,404.125 272.375,390.875 267.5,385.5 264.625,381.625 264.25,379.625 266.5,379.875 271.5,382.5 279.25,387.75 289.125,395.375 313.5,416.0 340.125,440.25 387.5,485.25 406.0,502.25"/>
    <polyline points="414.0,509.25 427.875,520.5 439.375,528.5 449.125,534.125 453.5,536.125 461.375,539.125 468.375,540.875 474.625,541.75 480.5,542.125 488.5,542.0 505.0,540.5"/>
    <polyline points="507.125,540.25 517.75,539.25 531.75,538.5 545.875,538.625 558.375,539.5"/>
    <polyline points="560.5,539.75 574.0,541.625 583.25,543.5 592.75,546.375 599.875,549.375 602.125,550.625 606.375,553.75 610.0,557.625 612.75,562.875 613.5,566.25"/>
    <polyline points="613.875,570.125 613.5,574.75 612.375,580.25 610.0,586.875 606.375,594.875 600.875,604.5 593.125,616.25 582.25,630.625 567.5,648.0 548.0,668.875 522.5,693.625 489.875,722.0 449.75,753.0 402.5,784.125 350.75,810.875 299.25,827.25 254.5,827.875 222.0,809.875 204.25,775.375 199.5,730.125 203.625,680.625 212.125,632.25 230.0,549.25 236.625,516.25 241.25,488.375"/>
    <polyline points="244.25,465.25 248.25,431.375 250.375,419.875 253.625,411.75 258.25,407.0 264.625,405.5 272.75,406.875 282.5,411.125 293.75,417.5 305.875,425.625 318.5,435.125 343.625,455.5 387.125,492.75 404.25,506.75 418.5,517.375 424.75,521.625 430.5,525.125 440.875,530.625"/>
    <polyline points="445.5,532.5 453.875,535.375 461.25,537.125 468.125,538.0 474.25,538.375 485.375,538.0 514.875,534.625"/>
    <polyline points="516.875,534.5 536.75,532.875 569.0,532.0"/>
    <polyline points="571.5,531.875 587.625,531.125 600.25,529.875 611.0,528.125 619.25,526.25 628.25,523.75 633.25,522.125 644.375,517.75 657.375,511.5 673.0,502.5 681.875,496.5"/>
    <polyline points="691.875,489.375 702.875,480.75 715.0,470.375 728.5,458.0 743.25,443.25 759.125,425.875 775.75,406.0 792.5,383.75 808.0,360.0 820.5,336.125 827.75,314.625 827.75,298.375 818.875,290.375 801.125,292.25 776.125,304.375 747.0,325.0 716.75,351.0 688.125,379.5 662.75,408.0 641.625,434.625 624.625,458.625 611.625,479.625 602.0,497.625 595.375,512.75 591.0,525.25 588.5,535.625"/>
    <polyline points="587.5,543.875 587.5,550.5 588.25,555.625 589.5,559.375 590.75,561.875 592.25,563.375 593.5,564.0 594.5,563.75 595.25,562.875 595.625,561.375 595.125,557.125 593.375,551.875 590.375,546.125 586.5,540.375 579.875,532.75 572.75,526.375 568.0,523.0"/>
    <polyline points="565.625,521.625 563.375,520.25 556.875,517.125 547.375,513.875 539.375,512.25 534.0,511.625 526.5,511.25"/>
    <line x1="525.625" x2="510.25" y1="511.25" y2="511.25"/>
    <line x1="509.75" x2="499.375" y1="511.25" y2="510.5"/>
    <line x1="498.875" x2="483.5" y1="510.375" y2="508.0"/>
    <polyline points="482.625,507.875 466.625,504.375 450.75,500.0"/>
    <polyline points="448.75,499.5 432.75,494.125 424.25,490.875 414.375,486.75 398.625,479.5 389.25,474.75 372.875,465.75 353.5,453.875"/>
    <polyline points="346.125,449.125 322.25,432.375 305.375,419.375 297.0,412.5 281.625,399.0 275.5,393.0 270.875,387.875 268.125,384.125 267.625,382.25 269.625,382.375 274.375,384.875 281.5,389.75 301.75,405.875 313.875,416.25 339.5,439.375 395.5,491.625"/>
    <polyline points="404.375,499.5 419.625,512.5 426.25,517.75 432.375,522.125 443.125,528.875 452.25,533.625 460.375,536.625 464.0,537.625 470.75,539.125 473.875,539.5 485.375,540.0 502.375,538.75"/>
    <polyline points="504.625,538.5 521.375,536.875 529.5,536.375 537.5,536.125 556.125,536.25"/>
    <polyline points="558.375,536.375 572.125,537.0 611.5,539.75 629.625,540.25"/>
    <polyline points="633.625,540.25 646.75,539.625 651.625,539.125 662.25,537.375 674.75,534.375 681.75,532.0 689.625,528.875 698.5,524.75 708.5,519.375 720.125,512.25 733.625,502.75 749.625,490.25 768.625,473.75 791.25,452.0 818.125,423.625 849.0,387.25 882.875,342.25 915.875,289.875 941.125,235.875 948.25,191.375 928.625,170.375 882.0,182.125"/>
    <polyline points="818.625,224.0 753.625,283.875 698.375,348.625 658.0,409.5 632.75,462.75 621.0,507.875 620.375,545.625 628.375,576.875 642.625,602.0 660.375,621.125 679.25,633.875 696.75,640.0 711.25,639.5 721.625,632.875 727.375,621.25 729.25,606.125 727.875,589.125 724.5,571.375 719.75,554.125 714.375,537.75 709.0,523.0 703.75,509.75 698.75,498.25 694.125,488.375 689.75,480.0 685.625,473.0"/>
    <polyline points="681.5,467.375 677.5,462.875 673.625,459.5 669.5,457.0 665.375,455.5 661.125,454.625 656.875,454.5 652.375,454.875 647.875,455.875 643.375,457.125 634.125,460.75 625.0,465.25 616.25,470.0 580.25,490.875"/>
    <polyline points="577.375,492.375 572.25,495.125 561.375,500.25 548.875,505.125 539.5,508.125"/>
    <polyline points="538.875,508.375 533.875,510.25 533.5,510.625 533.5,511.125 534.625,511.625 537.125,512.0 545.125,512.25"/>
    <polyline points="545.875,512.25 556.0,511.875 563.125,511.125 575.25,509.125"/>
    <polyline points="576.875,508.75 584.5,506.875 593.125,504.25 603.25,500.375 611.75,496.625 621.25,491.625 631.75,485.25 639.375,480.0 647.375,473.875"/>
    <polyline points="651.5,470.625 659.75,463.25 667.875,455.25 675.5,446.75 681.875,438.25 684.375,434.25 686.25,430.5 687.5,427.125 688.0,424.375 687.625,422.125 686.375,420.75 684.25,420.0 681.375,420.25 677.625,421.25 673.0,423.125 667.875,425.75 662.25,429.0 649.875,437.125 630.375,451.5"/>
    <polyline points="624.125,456.375 591.125,481.75 582.25,488.0 570.75,495.25 564.125,499.0 555.5,503.25 545.875,506.875 536.25,509.375"/>
    <polyline points="534.5,509.625 528.375,510.625 520.75,511.25 506.375,511.125"/>
    <polyline points="445.5,498.75 433.375,494.75 424.75,491.5 411.0,485.75 398.625,480.0 383.875,472.375 366.25,462.375 352.5,453.875 337.0,443.625"/>
    <polyline points="328.75,437.75 311.25,424.875 302.375,417.875 285.25,403.25 271.125,389.875 266.25,384.5 263.625,380.625 263.375,378.75 265.875,379.25 271.25,382.125 279.125,387.75 289.375,395.625 314.25,416.75 341.125,441.375 398.25,495.5 415.0,510.5"/>
    <polyline points="422.125,516.5 434.625,525.875 445.125,532.5 454.0,537.0 461.875,539.875 472.0,542.0 480.875,542.75 493.75,542.25 507.375,540.875"/>
    <polyline points="509.5,540.625 523.875,539.375 539.875,539.125 550.0,539.625 560.5,540.75"/>
    <polyline points="562.625,541.0 575.875,543.5 584.875,546.125 589.375,547.875 593.625,550.125 595.75,551.375 599.625,554.5 602.875,558.5 604.25,561.0 605.25,563.75 605.75,567.125 605.875,571.0 605.375,575.5 604.125,580.875"/>
    <polyline points="601.75,587.375 598.125,595.0 592.75,604.125 585.375,615.25 575.25,628.375 561.75,644.25 544.125,663.125 521.25,685.25 492.625,710.375 457.5,737.625 416.25,765.375 370.75,790.125 324.375,807.25 282.125,812.125 248.875,801.875 227.625,776.625 218.375,739.875 218.375,697.125 224.25,653.125 232.625,611.375 248.75,541.125 254.75,513.125 259.25,489.625 262.625,470.125 265.0,454.25"/>
    <polyline points="267.125,441.375 269.5,431.5 272.375,424.375 276.125,419.75 281.0,417.5 287.125,417.625 294.5,419.75 302.875,423.625 312.125,429.0 332.125,442.875 352.5,458.5 389.125,487.375 404.25,498.75 411.125,503.5 417.375,507.625 428.875,514.375 434.0,517.125 443.375,521.25"/>
    <polyline points="447.625,522.875 459.125,526.125 465.75,527.25 474.875,528.125 482.875,528.25 494.5,527.625 512.0,526.0"/>
    <line x1="513.75" x2="557.0" y1="525.75" y2="521.875"/>
    <polyline points="559.0,521.75 569.5,520.375 584.25,517.75 599.125,513.875 609.75,510.25 617.625,507.0 626.375,502.875 636.125,497.625"/>
    <polyline points="641.375,494.5 653.0,486.875 659.25,482.375 672.875,471.75 687.75,458.375 703.5,442.25 711.25,433.375 718.875,423.875 725.875,414.25 731.875,404.625 736.625,395.375 739.625,387.25 740.375,380.625 738.75,376.0 734.375,373.75 727.625,374.375 718.5,377.75 707.5,383.625 695.25,391.625 682.25,401.375 669.0,412.125 656.0,423.5"/>
    <polyline points="643.625,434.75 582.125,494.875 571.625,504.25 563.0,511.125 559.25,513.75 552.625,517.625 546.875,520.125 541.875,521.625 537.25,522.375 535.0,522.625 527.0,522.5"/>
    <polyline points="525.125,522.375 512.625,520.5 482.625,514.625"/>
    <polyline points="480.875,514.375 453.0,508.375 434.5,503.5 421.5,499.375"/>
    <polyline points="417.75,498.0 400.625,491.5 384.5,484.25 371.375,477.625 346.5,463.5 325.375,450.0 313.0,441.625 299.25,431.75 267.75,407.375 250.25,392.75 232.0,376.5 214.125,359.375 197.875,342.25 185.25,327.0 178.75,315.75 180.25,310.875"/>
    <polyline points="191.0,314.5 210.375,327.125 236.375,347.75 265.75,374.125 295.5,403.625 323.25,433.5 347.625,461.875 368.125,487.75 384.75,510.5 397.75,530.125 407.625,546.75 415.0,560.75 420.25,572.25 423.75,581.75 426.0,589.25 427.875,599.875 427.625,605.375 426.75,607.125 426.375,606.875 426.0,604.5 426.625,600.125"/>
    <polyline points="427.375,597.5 429.5,591.5 434.5,581.875 441.0,572.5 448.5,564.0 456.25,556.875 464.25,550.875 472.0,546.125 479.5,542.375 484.25,540.375"/>
    <polyline points="486.625,539.5 500.0,535.25 508.25,533.375 523.75,531.0 537.125,529.75"/>
    <polyline points="539.0,529.625 564.0,528.125 581.625,526.5 593.5,524.625 600.125,523.25"/>
    <polyline points="603.75,522.5 615.5,519.125 629.375,514.0 646.25,505.875 659.625,497.875 667.25,492.875 684.375,480.25 694.0,472.25 704.375,463.0 715.5,452.375 727.25,440.25 739.5,426.625 751.875,411.5 763.625,395.375 774.25,378.625 782.625,362.5 787.5,348.0 788.0,336.75"/>
    <polyline points="783.125,330.125 772.875,329.25 757.75,334.375 738.875,345.25 718.0,360.5 696.375,378.75 675.625,398.375 656.5,418.0 639.625,436.875 625.0,454.125 612.625,469.625 602.375,483.25 594.0,495.0 587.25,504.875 565.75,539.0 563.25,541.75 562.125,542.375 560.125,542.625"/>
    <polyline points="559.0,542.375 555.625,540.625 544.25,532.75 537.625,529.0 529.125,525.125 520.625,522.125"/>
    <polyline points="519.0,521.625 510.75,519.25 501.0,517.0 477.875,512.375"/>
    <polyline points="476.0,512.0 456.125,507.5 441.125,503.5 425.875,498.625 410.625,492.875"/>
    <polyline points="406.25,491.125 396.5,486.875 379.25,478.5 365.125,470.875 348.25,461.0 328.125,448.0 316.5,440.0 290.25,420.625 275.625,409.0 260.25,396.125 244.75,382.375 229.625,368.0 216.25,354.125 205.875,341.75 200.375,332.625 201.0,328.5 208.75,330.625 223.375,339.75 243.5,355.25"/>
    <polyline points="267.25,375.75 292.25,399.375 316.875,424.125 339.375,448.5 359.375,471.375 376.375,492.0 390.625,510.125 402.25,525.75 419.125,550.125 425.125,559.375 440.375,584.625 443.125,588.25 445.125,589.375 447.0,589.0 451.125,584.875"/>
    <polyline points="452.25,583.5 456.375,578.75 461.25,573.875 468.5,567.75 474.25,563.75 482.25,559.25 488.25,556.625 498.125,553.375"/>
    <polyline points="500.0,552.875 505.75,551.625 511.5,550.875 517.0,550.5 525.75,550.75 534.125,552.25 537.375,553.25 543.125,556.0"/>
    <polyline points="544.5,557.0 547.0,559.0 548.0,560.25 549.875,563.125 550.625,564.875 551.5,568.75 551.5,573.5 550.25,579.5 547.375,586.875 545.125,591.25 538.5,601.5 534.0,607.5 528.5,614.125 521.875,621.5 514.0,629.375 504.75,638.0 494.125,647.125 481.875,656.75 468.25,666.375"/>
    <polyline points="453.25,675.875 437.25,684.625 420.625,692.0 403.875,697.5 387.875,700.375 373.25,700.125 360.625,696.5 350.625,689.5 343.375,679.5 339.0,666.875 337.125,652.5 337.625,637.125 339.625,621.5 343.0,606.0 347.25,591.375 351.875,577.625 356.75,565.125 366.375,544.0 371.0,535.25 379.375,521.0 386.625,510.5 392.875,502.875"/>
    <polyline points="395.625,499.875 398.125,497.375 404.5,492.125 410.875,488.5 418.25,485.875 419.125,485.375 419.125,484.75 418.75,484.25"/>
    <polyline points="418.375,484.0 415.625,482.25 399.125,473.625 384.875,465.625"/>
    <polyline points="382.625,464.25 373.0,458.5 363.375,452.25 351.5,443.875 347.875,440.75 354.375,445.25"/>
    <polyline points="356.625,446.875 388.375,469.625 401.625,478.25 410.75,483.625 421.125,489.125 429.875,492.875"/>
    <polyline points="431.75,493.625 438.25,496.0 444.125,497.625 446.625,498.125 449.375,498.25 449.5,498.0 448.875,497.5"/>
    <polyline points="448.625,497.375 426.125,488.375 414.875,483.375"/>
    <polyline points="412.25,482.25 400.375,476.5 382.0,466.625 364.125,455.875 354.25,449.5 338.875,438.875 328.875,431.375 316.0,420.875 310.25,415.625"/>
    <polyline points="308.75,413.875 308.125,412.875 308.75,412.75 310.375,413.5 321.875,421.625 341.0,436.875 377.875,467.25 391.75,478.25 404.25,487.625 420.75,498.625 430.375,504.125 438.875,508.25"/>
    <polyline points="442.75,510.0 449.875,512.625 456.375,514.625 462.25,516.0 470.0,517.25 480.875,518.0 489.75,518.0 498.375,517.5"/>
    <line x1="499.625" x2="523.625" y1="517.375" y2="515.75"/>
    <line x1="524.375" x2="547.75" y1="515.75" y2="514.75"/>
    <polyline points="548.875,514.625 557.875,513.875 570.25,512.125 584.0,509.125 590.875,507.125"/>
    <polyline points="593.375,506.25 598.625,504.5 607.25,501.0 620.5,494.625 631.75,488.0 640.125,482.5 644.5,479.25 658.25,468.375 667.75,459.625 677.125,450.0 685.75,439.75 689.375,434.75"/>
    <polyline points="692.625,429.75 695.125,425.125 696.875,420.875 697.625,417.375 697.375,414.5 696.125,412.625 693.75,411.75 690.125,411.875 685.625,413.25 680.125,415.625 674.0,418.875 659.875,428.0 644.875,439.0 629.875,450.75 597.5,477.0 577.625,491.625"/>
    <polyline points="573.375,494.5 565.875,499.125 559.125,502.75 547.75,507.625 540.625,509.75 532.5,511.375 525.5,512.125 516.625,512.375"/>
    <polyline points="515.25,512.25 501.875,511.5 486.0,509.25"/>
    <polyline points="484.75,509.125 465.375,505.125 456.625,502.875 444.0,499.125"/>
    <polyline points="441.5,498.375 424.75,492.375 414.375,488.125 397.625,480.5 382.125,472.5 363.375,461.75 340.5,447.25 313.625,428.125"/>
    <polyline points="304.0,420.625 294.25,412.875 284.75,404.75 275.75,396.75 267.625,389.0 261.125,382.25 256.625,376.75 254.625,373.125 255.75,372.0 260.125,373.75 267.625,378.5 277.875,386.25 290.375,396.375 304.375,408.375 319.125,421.75 348.375,449.375 405.75,505.5 421.625,519.875 428.25,525.625 434.375,530.375"/>
    <polyline points="439.875,534.375 449.5,540.25 457.625,544.125 464.75,546.5 471.125,547.75 477.0,548.25 487.5,548.0 511.75,545.5"/>
    <polyline points="513.75,545.375 525.5,544.875 536.875,545.5 540.625,546.0 547.875,547.5 553.25,549.125 560.0,552.375"/>
    <polyline points="561.5,553.375 565.75,557.25 568.0,560.5 568.875,562.5 570.0,567.25 570.125,570.0 569.25,576.75 566.25,585.375 563.75,590.625 560.375,596.625 555.875,603.5 550.25,611.25 543.0,620.125 534.0,630.25 523.125,641.5 509.875,654.0 494.125,667.5 475.75,681.875 454.75,696.5 431.625,710.5"/>
    <polyline points="407.0,722.75 382.0,731.875 358.125,736.375 337.0,735.375 319.75,728.125 307.5,715.0 300.125,696.875 297.25,675.5 298.125,652.375 301.5,628.875 306.375,606.25 312.125,585.25 318.125,566.125 323.875,549.25 334.25,521.875 342.75,501.75 349.375,487.75 354.875,478.125 357.25,474.625 359.625,471.875 363.875,468.125"/>
    <polyline points="365.875,467.0 370.0,465.75 372.0,465.625 376.125,466.0 380.25,467.125 390.625,471.375 412.75,482.375"/>
    <polyline points="414.0,482.875 419.125,485.125 423.5,486.5 423.125,486.0 420.125,484.375"/>
    <polyline points="419.375,484.0 397.75,473.125 383.75,465.25 373.0,458.75"/>
    <polyline points="370.25,457.0 354.125,446.25 347.5,441.5 342.25,437.125 345.25,438.75 364.875,453.25"/>
    <polyline points="368.75,456.0 388.375,470.25 399.75,477.875 410.125,484.25 422.25,490.75 427.5,493.25 436.5,496.875 443.75,499.125"/>
    <polyline points="445.25,499.625 451.375,501.0 455.5,501.5 457.875,501.375 457.5,500.75 456.625,500.25"/>
    <polyline points="456.125,500.125 433.0,491.75 422.0,487.25 429.0,489.75 430.75,490.0 429.5,489.0 426.25,487.5"/>
    <polyline points="419.375,486.125 401.0,477.625 385.375,469.375 376.25,464.25 361.125,455.0 344.125,443.75 332.375,435.375 320.75,426.5 306.0,414.125"/>
    <polyline points="302.5,410.75 299.875,408.0 298.5,406.125 298.375,405.375 299.625,405.625 306.375,409.875 318.25,418.875 342.125,438.625 376.25,467.625 399.0,486.125 418.0,500.0 428.875,506.75 438.375,511.875"/>
    <polyline points="442.75,514.0 450.75,517.125 457.875,519.375 467.25,521.5 472.875,522.25 487.25,522.875 498.75,522.375 505.5,521.75"/>
    <line x1="507.0" x2="541.625" y1="521.625" y2="518.875"/>
    <polyline points="543.0,518.75 560.375,517.125 569.75,515.75 580.5,513.625 590.5,511.0"/>
    <polyline points="593.25,510.25 602.125,507.25 612.125,503.125 619.625,499.625 627.875,495.25 632.25,492.75 646.625,483.375 657.25,475.375 662.875,470.875 674.625,460.375 686.5,448.375 692.375,441.875 697.875,435.125 707.625,421.5"/>
    <polyline points="711.25,415.125 713.875,409.125 715.25,404.0 715.125,400.0 713.375,397.375 710.0,396.25 705.125,396.75 698.75,399.0 691.125,402.75 682.5,407.875 663.625,421.25 653.875,429.0 635.0,444.75 589.875,484.0 578.875,492.75 565.375,502.375"/>
    <polyline points="561.5,504.625 554.5,508.375 548.375,511.125 540.375,513.625 535.625,514.625 529.125,515.375 523.25,515.625 517.875,515.5 506.5,514.5"/>
    <polyline points="504.875,514.25 483.75,511.0 465.125,507.0"/>
    <polyline points="463.125,506.625 443.0,501.125 425.25,495.125 418.125,492.375 401.375,485.125 379.625,474.25"/>
    <polyline points="373.125,470.75 358.625,462.375 332.375,445.5 311.5,430.625 288.25,412.625 264.125,392.125 252.875,381.5 243.125,371.625 235.625,363.0 231.5,356.625 231.375,353.5 235.75,354.375 244.875,359.625 258.125,369.25 274.375,382.5 292.625,398.625 311.625,416.375 330.25,434.625 347.75,452.5 363.75,469.375"/>
    <polyline points="378.125,484.75 419.125,530.0 437.625,548.75 446.375,556.25 450.125,558.875 456.5,562.5 459.375,563.625 464.375,564.875 469.0,565.25 473.25,565.0 479.25,564.0 484.875,562.625"/>
    <polyline points="486.625,562.125 498.875,559.625 508.625,558.875 513.125,559.125 517.375,559.875 521.375,561.125 524.75,563.125"/>
    <polyline points="525.75,563.875 528.375,566.75 529.5,569.25 530.25,572.25 530.25,575.875 528.625,582.625 524.375,591.375 519.5,598.5 512.75,606.75 503.625,616.125 491.875,626.375 477.375,637.25"/>
    <polyline points="469.25,642.5 460.5,647.625 451.375,652.125 441.875,656.125 432.5,659.25 423.25,661.25 414.5,662.0 406.375,661.375 399.25,659.125 393.25,655.5 388.5,650.5 385.0,644.25 382.875,637.0 381.875,628.875 382.0,620.375 383.125,611.5 385.0,602.75 387.5,594.0 390.5,585.625 393.875,577.75 401.25,563.5 408.875,551.5 416.25,541.75"/>
    <polyline points="419.875,537.625 426.625,530.75 432.875,525.25 443.75,517.875 448.375,515.375 454.375,512.75 460.75,510.5 469.375,508.25"/>
    <polyline points="470.0,508.0 473.875,506.625 473.875,506.25 473.125,505.625 470.0,504.625"/>
    <polyline points="469.375,504.375 454.375,500.125 436.75,494.25"/>
    <polyline points="434.5,493.375 421.5,488.375 408.625,482.75 397.0,477.125 383.375,470.0 361.375,457.0 348.625,448.875 334.875,439.375 320.5,428.75"/>
    <polyline points="313.25,423.25 299.75,412.0 288.75,401.875 284.875,397.875 282.625,394.875 282.0,393.375 283.375,393.375 286.75,395.0 292.0,398.5 307.5,410.5 338.25,436.75 379.5,473.625 397.125,488.875 412.25,501.125 425.25,510.625"/>
    <polyline points="431.0,514.5 441.375,520.5 450.375,524.75 458.375,527.625 465.5,529.5 472.0,530.625 480.75,531.375 488.625,531.375 495.75,531.0 508.5,529.875"/>
    <polyline points="510.5,529.75 531.125,527.75 558.25,525.75"/>
    <polyline points="560.375,525.625 569.5,524.75 582.25,523.0 591.0,521.375 604.5,518.0 616.25,514.0 625.25,510.375 635.5,505.5 647.0,499.125"/>
    <polyline points="653.375,495.125 660.25,490.625 675.375,479.375 683.75,472.625 692.75,464.75 702.25,455.875 712.125,446.0 722.375,434.875 732.625,422.875 742.5,410.0 751.5,396.625 759.125,383.5 764.625,371.25 767.0,360.75 765.875,353.25 760.75,349.375 751.625,349.75 739.0,354.5 723.75,363.25 706.875,375.25 689.25,389.5 672.0,405.0 655.625,420.75 640.625,436.125 627.25,450.5"/>
    <polyline points="615.5,463.625 572.625,514.0 565.125,522.0 562.125,525.0 559.375,527.25 554.75,530.5 552.625,531.5 550.75,532.25 547.125,532.875 542.25,532.625 537.375,531.5 532.625,529.875"/>
    <polyline points="531.125,529.375 520.0,525.5 508.875,522.25 491.125,518.25"/>
    <polyline points="489.5,517.875 460.25,512.25 439.25,507.625"/>
    <polyline points="436.5,507.0 421.25,503.0 406.25,498.25 397.375,495.0 387.25,490.875 375.25,485.5 368.5,482.25 352.625,473.875 333.0,462.375 308.0,446.0 292.875,435.375 275.75,422.625 256.625,407.625"/>
    <polyline points="235.25,389.875 212.125,369.375 188.5,346.75 166.125,323.25 148.25,301.25 138.75,284.625 141.625,277.875 158.75,284.25 188.5,304.625 226.375,336.375 266.5,375.125 304.25,415.75 336.5,454.875 362.125,490.375 381.375,521.5 394.875,548.0 403.5,570.375 408.125,589.0 409.75,604.25 408.875,616.625 406.375,626.25 402.625,633.375 398.375,638.25 394.0,641.0 389.875,641.625 386.125,640.375"/>
    <polyline points="383.25,637.5 381.25,633.125 380.125,627.5 380.0,621.125 380.75,614.0 382.125,606.5 384.375,598.75 387.0,591.125 390.125,583.75 397.25,569.875 401.0,563.5 408.75,552.375 412.5,547.5 420.0,539.25 427.0,532.625 436.5,525.125 442.25,521.5 447.375,518.75"/>
    <polyline points="449.75,517.625 454.125,515.625 459.875,513.5 470.0,510.75 479.25,508.75"/>
    <polyline points="479.5,508.625 480.25,508.375 480.5,507.875 479.25,507.125 474.25,505.75"/>
    <polyline points="447.75,498.125 473.5,505.5 458.0,501.5 440.625,496.0"/>
    <polyline points="438.5,495.25 423.125,489.5 406.375,482.25 398.375,478.375 379.5,468.375 368.25,461.875 355.875,454.125 342.125,445.125 327.25,434.625"/>
    <polyline points="319.625,428.875 304.375,416.875 290.75,405.125 280.75,395.125 277.875,391.75 277.0,389.75 278.125,389.375 281.5,391.0 287.0,394.5 303.5,407.125 336.25,435.375 389.25,483.375 406.125,497.875 420.375,509.25"/>
    <polyline points="426.625,513.75 437.875,521.0 447.5,526.125 456.0,529.625 463.5,531.875 470.375,533.25 476.5,534.0 482.25,534.25 497.25,533.75 508.25,532.75"/>
    <polyline points="510.375,532.5 524.25,531.125 560.375,529.0"/>
    <polyline points="562.625,528.875 588.625,526.375 601.625,524.0 613.125,521.0 626.5,516.5 636.875,512.0 648.875,506.0 655.625,502.125"/>
    <polyline points="662.875,497.625 679.375,486.125 698.75,470.25 709.75,460.375 721.5,449.0 733.875,435.875 746.75,421.125 759.625,404.875 771.75,387.625 782.25,370.125 790.0,353.375 793.75,339.0 792.25,328.625 785.0,323.75 772.0,325.375 754.25,333.5 733.125,347.125 710.625,365.0 688.25,385.125 667.375,406.125 648.5,426.5 632.25,445.625 618.5,462.75 607.125,478.0"/>
    <polyline points="597.875,491.125 590.5,502.375 580.125,519.625 568.875,541.25 566.875,544.25 565.25,545.375 564.375,545.375 562.625,544.5 555.5,538.5 549.375,533.875"/>
    <polyline points="547.625,532.75 540.75,528.5 530.25,523.625 516.625,519.25 505.375,516.625"/>
    <polyline points="503.75,516.25 478.0,511.25 461.125,507.375"/>
    <polyline points="459.0,506.875 447.5,503.875 430.625,498.625 416.5,493.5 408.25,490.125 393.75,483.625 382.25,477.875 361.375,466.375"/>
    <polyline points="353.25,461.5 334.625,449.625 312.75,434.5 287.5,415.25 274.0,404.25 260.125,392.375 246.625,380.0 234.25,367.75 224.125,356.625 217.375,347.625 215.25,342.0 218.625,341.125 227.875,345.625 242.375,355.75 261.0,370.625 282.125,389.25 304.0,410.0 325.375,431.5 345.25,452.375 363.0,472.0 378.5,489.75 403.0,519.125"/>
    <polyline points="412.375,530.75 432.125,555.5 440.625,565.5 446.75,571.625 451.375,575.125 453.375,576.25 457.0,577.125 458.625,577.125 461.875,576.5 466.375,574.75 477.5,568.875"/>
    <polyline points="479.125,568.0 484.0,565.75 490.5,563.25 498.625,561.25 501.75,560.75 509.25,560.5 514.875,561.25 517.375,562.0"/>
    <polyline points="518.625,562.375 520.875,563.5 522.875,565.0 524.625,566.75 526.0,568.875 526.875,571.5 527.25,574.625 526.375,580.5 523.25,588.0 521.625,591.0 517.125,597.625 510.875,605.125 502.625,613.75"/>
    <polyline points="497.625,618.375 485.75,628.0 471.625,637.75 463.75,642.375 455.5,646.625 447.0,650.375 438.5,653.375 430.0,655.5 421.875,656.5 414.25,656.375 407.375,655.0 401.5,652.375 396.625,648.375 392.875,643.25 390.25,637.25 388.75,630.25 388.25,622.75 388.75,614.875 390.0,606.875 392.0,598.875 394.5,591.125 397.375,583.5 404.0,569.75"/>
    <polyline points="407.625,563.5 414.875,552.625 422.0,543.625 428.875,536.375 435.375,530.625 444.125,524.125 451.625,519.75 460.125,515.875 471.25,512.375"/>
    <polyline points="472.375,512.125 483.375,509.75 484.875,508.875 483.75,508.125 482.0,507.625 472.875,505.5"/>
    <polyline points="472.0,505.25 453.0,500.25 441.625,496.625 432.375,493.25"/>
    <polyline points="429.75,492.375 407.375,483.0 395.125,477.0 375.0,466.125 363.125,459.0 342.625,445.875 327.625,435.25 311.75,423.375 296.5,410.75"/>
    <polyline points="289.625,404.625 283.5,399.0 278.75,394.125 275.5,390.25 274.25,387.875 275.25,387.25 278.375,388.625 283.875,392.125 291.375,397.5 300.625,404.875 311.25,413.625 334.5,434.0 379.25,475.125 406.125,498.875 420.625,510.5 427.0,515.125 438.375,522.625 443.375,525.375"/>
    <polyline points="448.0,527.75 456.5,531.25 464.0,533.5 470.75,534.875 477.0,535.625 482.625,535.875 493.0,535.625 517.0,533.375"/>
    <polyline points="519.0,533.125 542.75,531.5 571.375,530.375"/>
    <polyline points="573.875,530.25 587.625,529.25 600.375,527.5 607.625,526.125 624.375,521.75 634.375,518.125 652.25,509.75 666.875,501.25 675.25,495.875 694.375,481.5"/>
    <polyline points="705.5,472.25 717.625,461.375 730.75,448.625 744.875,433.625 759.75,416.625 774.75,397.5 789.0,377.0 801.25,355.875 810.0,336.0 813.25,319.375 809.75,308.375 798.625,304.875 780.625,310.0 757.25,323.125 731.125,342.625 704.5,366.0 679.375,391.0 657.0,415.75 638.0,439.0 622.375,459.875 610.0,478.25 600.375,494.125 593.25,507.5 588.0,518.625 584.375,527.875 582.0,535.375"/>
    <polyline points="580.625,541.375 579.75,549.625 579.75,552.25 580.5,555.375 580.25,553.625 579.125,550.75 577.125,547.125 572.75,541.25 569.25,537.25 563.375,531.875 559.25,528.75 555.125,526.125"/>
    <polyline points="553.0,524.875 545.0,520.875 537.5,518.125 525.875,515.125 512.125,513.0"/>
    <polyline points="511.0,512.875 493.75,510.625 481.875,508.625"/>
    <polyline points="480.625,508.375 461.25,504.125 447.5,500.25 435.125,496.25"/>
    <polyline points="432.375,495.25 412.5,487.375 404.375,483.75 390.25,476.875 373.25,467.625 352.5,455.125 336.25,444.375 318.25,431.625 299.0,416.75 279.875,400.625"/>
    <polyline points="271.25,392.625 263.875,385.25 258.125,379.0 254.875,374.375 254.5,372.0 257.125,372.25 263.125,375.5 272.125,381.75 283.75,390.875 297.125,402.125 311.625,414.875 341.25,442.625 391.5,491.875 410.125,509.75 418.125,517.0 425.125,523.125 437.25,532.75 442.5,536.375 451.75,541.75"/>
    <polyline points="455.75,543.625 459.625,545.125 466.5,547.125 472.75,548.125 478.375,548.5 483.625,548.5 491.0,548.0 508.5,546.0 518.625,545.25"/>
    <polyline points="520.5,545.25 526.375,545.125 533.875,545.5 541.375,546.5 548.625,548.125 553.875,549.875 558.75,552.375 561.875,554.5 564.5,557.125"/>
    <polyline points="565.75,558.625 567.75,562.25 568.875,566.875 568.875,572.625 567.25,580.0 565.625,584.5 560.125,595.25 550.625,609.375 543.75,617.875 535.375,627.5 525.0,638.375 512.5,650.375 497.625,663.5 480.125,677.375 460.25,691.75 438.0,705.625 414.125,718.125 389.625,727.875 365.875,733.625 344.25,734.125"/>
    <polyline points="326.125,728.75 312.625,717.375 304.125,701.125 300.0,681.0 299.75,658.625 302.375,635.625 306.875,613.125 312.25,591.875 318.125,572.5 324.0,555.25 334.625,526.875 347.125,498.0 353.5,485.625 356.25,481.0 361.0,474.375 365.25,470.125 367.375,468.75 369.375,467.875 371.25,467.25 373.25,467.0"/>
    <polyline points="375.25,466.875 381.0,467.75 386.875,469.75 415.375,483.25"/>
    <polyline points="416.25,483.5 420.75,485.125 419.5,484.125 413.375,481.0"/>
    <polyline points="412.25,480.375 398.5,473.375 383.375,464.875 370.875,457.25 360.875,450.625"/>
    <polyline points="358.5,449.0 352.25,444.625 346.0,439.625 352.375,443.75 373.25,459.125 384.125,466.75"/>
    <polyline points="387.75,469.25 398.25,476.375 411.0,484.0 419.375,488.5 431.0,493.875 438.25,496.5 446.0,498.625"/>
    <polyline points="447.0,498.75 450.5,499.375 452.25,499.25 451.375,498.375 446.25,496.375"/>
    <polyline points="445.375,496.0 425.625,488.375 413.625,483.125 404.875,479.0 391.0,471.875"/>
    <polyline points="387.0,469.75 374.125,462.375 359.625,453.375 338.375,438.875 327.75,431.0 318.0,423.25 310.25,416.5 305.625,411.75 304.875,410.5 305.25,410.25 309.75,412.625 324.75,423.875"/>
    <polyline points="331.5,429.375 370.0,461.375 392.0,479.125 405.0,489.0 416.625,497.0 431.625,506.0 440.375,510.25 451.625,514.625 461.25,517.25 466.875,518.25"/>
    <polyline points="469.5,518.625 476.75,519.375 487.125,519.625 498.625,519.125 511.5,518.125"/>
    <line x1="512.625" x2="538.75" y1="518.0" y2="516.375"/>
    <polyline points="539.875,516.25 557.875,514.875 569.25,513.25 577.0,511.75"/>
    <polyline points="579.0,511.25 588.0,509.0 601.25,504.625 610.5,500.75 624.75,493.5 632.75,488.75 646.0,479.75 655.625,472.25 665.625,463.625"/>
    <polyline points="670.75,458.75 680.75,448.375 685.5,442.875 693.875,431.875 697.25,426.5 700.0,421.375 701.75,416.875 702.5,413.125 702.0,410.125 700.375,408.25 697.5,407.5 693.375,408.0 688.25,409.75 682.0,412.75 675.125,416.625 667.5,421.5 659.625,427.0 643.375,439.375 606.5,469.75"/>
    <polyline points="600.125,474.875 588.875,483.875 578.875,491.25 570.375,497.0 559.375,503.375 550.25,507.5 540.125,510.75 533.625,512.0 522.75,513.0"/>
    <polyline points="521.125,513.0 508.125,512.625 496.625,511.375 487.875,510.0"/>
    <polyline points="486.5,509.875 466.125,505.75 451.0,501.75 444.125,499.625"/>
    <polyline points="441.625,498.875 427.625,494.0 409.875,486.75 391.625,478.125 374.5,469.0 353.625,456.5 337.25,445.875 328.25,439.625 308.875,425.375"/>
    <polyline points="298.75,417.5 278.5,400.5 269.125,392.0 260.875,383.875 254.375,376.875 250.375,371.5 249.25,368.375 251.625,368.125 257.5,371.0 266.625,377.25 278.625,386.5 292.75,398.375 308.0,411.875 323.75,426.5 354.0,455.75 391.5,493.5 410.625,512.25 425.625,526.25 437.75,536.125"/>
    <polyline points="442.875,539.875 447.625,542.875 455.75,547.25 462.875,549.875 469.25,551.25 474.875,551.875 482.75,551.875 510.75,548.875"/>
    <polyline points="512.75,548.75 522.125,548.5 529.375,549.0 534.625,549.75 539.75,551.0 546.0,553.5 549.0,555.25 551.625,557.375 553.875,560.0"/>
    <polyline points="554.875,561.5 556.375,565.0 556.875,567.125 557.125,569.375 556.75,574.875 554.875,581.75 553.25,585.75 551.0,590.375 548.0,595.375 539.625,607.5 533.75,614.75 526.75,622.625 518.25,631.375 508.25,640.875 496.5,651.125 482.875,662.0 467.625,673.0 450.75,683.75 432.5,693.75 413.625,702.125 394.625,708.25 376.625,711.0"/>
    <polyline points="360.5,710.0 347.0,704.875 336.75,695.75 329.875,683.125 326.25,667.875 325.375,650.875 326.875,633.125 330.0,615.5 334.25,598.375 339.125,582.5 344.375,568.0 349.5,555.0 354.625,543.375 359.375,533.25 363.875,524.5 368.0,517.0 375.25,505.125 381.375,496.625 386.5,490.75 388.75,488.5 394.625,484.0"/>
    <polyline points="396.25,483.125 397.75,482.25 401.625,480.875 405.5,480.25 410.0,480.0 410.0,479.625 409.125,478.875"/>
    <line x1="408.75" x2="380.0" y1="478.625" y2="462.25"/>
    <polyline points="378.25,461.125 371.75,457.125 360.625,449.375 368.875,455.0"/>
    <polyline points="370.625,456.25 388.125,468.25 397.375,474.125 411.625,482.25 420.875,486.625"/>
    <polyline points="425.375,487.0 407.875,478.75 396.5,472.875 385.375,466.75 372.875,459.25"/>
    <polyline points="369.5,457.125 355.875,448.25 343.125,439.25 334.5,432.25 332.625,430.25 334.25,431.0 341.0,435.75 361.125,451.0"/>
    <polyline points="365.875,454.75 380.5,465.75 394.75,476.0 403.5,481.875 415.625,489.25 426.125,494.875 432.25,497.75 440.5,501.0 449.5,503.75 453.375,504.625"/>
    <polyline points="455.125,505.0 462.375,506.25 468.375,506.75 472.25,506.625 473.5,506.125 471.875,505.125 457.375,500.875"/>
    <polyline points="456.125,500.5 439.5,495.25 425.25,489.875 406.25,481.625 394.25,475.625"/>
    <polyline points="389.875,473.375 380.125,468.125 357.5,454.5 337.625,441.25 323.375,430.875 309.125,419.75 296.25,408.75 286.625,399.5 283.75,396.125 282.5,394.125 283.125,393.5 285.75,394.5 290.25,397.375 296.625,401.875 313.75,415.5"/>
    <polyline points="323.75,424.0 393.875,486.0 409.375,498.75 422.75,508.75 434.125,516.25 439.375,519.25 452.75,525.5 460.5,528.0 467.5,529.625 476.75,530.875 479.625,531.0"/>
    <polyline points="482.25,531.125 494.75,530.875 533.875,527.375"/>
    <polyline points="535.625,527.25 568.0,524.625 583.375,522.5 592.125,520.75"/>
    <polyline points="595.375,520.0 602.125,518.25 613.5,514.5 622.25,511.125 637.25,504.0 649.0,497.25 662.5,488.375 678.0,476.625 686.5,469.5 695.5,461.375 705.0,452.25 714.875,442.125 724.875,430.875 734.875,418.75 744.375,405.875 752.75,392.875 759.5,380.25"/>
    <polyline points="763.75,368.75 765.0,359.5 762.5,353.25 756.125,350.875 746.0,352.75 732.75,358.75 717.25,368.375 700.375,380.875 683.125,395.375 666.375,410.625 650.75,425.875 636.375,440.625 623.625,454.375 602.75,478.0 571.25,514.375 564.0,521.875 560.875,524.625 558.25,526.875 553.5,529.875"/>
    <polyline points="551.375,530.75 549.5,531.375 545.75,532.0 540.75,531.75 535.875,530.625 516.625,524.5 510.25,522.75"/>
    <polyline points="508.75,522.375 491.0,518.25 466.25,513.5"/>
    <polyline points="464.25,513.125 444.25,509.0 424.5,504.125 406.375,498.5 387.375,491.25"/>
    <polyline points="381.75,488.875 361.375,479.0 344.0,469.375 333.75,463.25 308.875,447.125 293.875,436.625 276.875,424.125 257.75,409.125 236.375,391.5 213.125,371.0 189.0,348.125 166.0,324.125 147.125,301.5 136.625,283.75 138.375,275.75 154.625,281.125 184.125,300.875 222.375,332.625 263.25,371.75 301.75,413.125 334.75,453.125 361.0,489.5"/>
    <polyline points="380.625,521.25 394.375,548.5 403.0,571.375 407.5,590.375 408.875,606.0 407.75,618.625 404.75,628.5 400.75,635.875 396.25,640.75 391.5,643.375 387.0,643.875 383.25,642.375 380.125,639.125 378.125,634.5 377.0,628.5 376.875,621.625 377.75,614.125 379.375,606.125 384.5,590.125 387.75,582.5 391.375,575.125 395.125,568.125 399.0,561.75 406.875,550.375"/>
    <polyline points="410.75,545.5 418.25,537.125 425.25,530.5 431.75,525.375 440.375,519.625 447.75,515.875 455.875,512.5 468.25,509.125"/>
    <polyline points="469.125,509.0 473.875,507.875 475.75,507.125 475.375,506.375 473.875,505.75"/>
    <polyline points="445.875,497.5 438.0,494.875 425.75,490.25 416.875,486.625 402.75,480.125 390.125,473.75 380.375,468.375 369.5,462.125 357.5,454.75"/>
    <polyline points="351.0,450.5 337.125,441.25 322.625,430.625 308.0,419.25 301.125,413.5 289.125,402.75 281.75,394.875 280.5,392.625 281.125,392.0 283.875,393.125 288.625,396.0 303.375,407.125 312.875,414.875 334.125,433.125 385.875,479.5"/>
    <polyline points="394.625,487.125 410.25,500.125 423.625,510.25 435.125,517.75 445.0,523.125 449.5,525.125 457.625,528.25 464.875,530.125 471.5,531.375 483.125,532.25 497.75,531.75"/>
    <polyline points="500.0,531.5 527.75,528.875 548.625,527.375"/>
    <polyline points="550.625,527.25 563.5,526.375 575.5,525.125 589.375,523.0 606.25,519.0 622.875,513.125"/>
    <polyline points="627.75,511.125 638.25,506.0 650.25,499.25 657.0,495.125 672.0,484.625 689.25,470.75 698.75,462.25 709.0,452.5 719.5,441.625 730.5,429.5 741.25,416.125 751.75,402.125 761.0,387.75 768.375,373.625 773.0,361.0 774.125,350.875 770.875,344.375 763.25,342.25 751.5,345.125 736.125,352.75 718.625,364.375 699.875,379.0"/>
    <polyline points="681.125,395.375 663.25,412.5 646.875,429.25 632.25,445.125 619.5,459.625 608.5,472.75 591.25,494.0 570.5,520.5 561.875,530.25 557.75,533.625 555.875,534.75 552.625,535.875 548.125,535.875 543.75,534.625"/>
    <polyline points="542.25,534.0 523.625,526.25 512.375,522.625 502.75,520.125"/>
    <line x1="501.125" x2="455.875" y1="519.75" y2="510.5"/>
    <polyline points="453.625,510.0 430.0,504.125 408.5,497.25 399.625,493.875 389.375,489.625 377.5,484.125 363.25,476.875 345.875,467.125"/>
    <polyline points="335.75,460.875 311.5,445.0 297.125,434.875 281.0,422.875 263.125,408.875 243.5,392.625 222.625,374.125 201.375,354.0 181.375,333.25 165.25,314.0 156.25,299.125 157.25,292.125 170.125,295.875 194.125,311.5 226.0,337.25 261.5,370.0 296.25,405.75 327.375,441.125 353.5,474.0 374.25,503.375 390.0,528.875 401.25,550.5 408.875,568.625 413.5,583.625 415.75,595.875"/>
    <polyline points="416.25,605.75 415.5,613.5 413.75,619.25 411.5,623.375 409.0,625.75 406.5,626.75 404.25,626.375 402.375,624.75 401.0,622.125 400.25,618.625 400.0,614.375 401.375,604.5 402.875,599.0 407.0,588.0 412.375,577.25 418.625,567.375 421.875,562.875 428.5,554.75 438.375,544.875"/>
    <polyline points="441.625,542.125 447.75,537.375 453.625,533.5 464.25,527.75 473.5,524.0 477.625,522.625 483.125,521.0 495.5,518.375"/>
    <polyline points="496.75,518.125 508.875,516.5 520.625,515.625"/>
    <line x1="521.375" x2="542.375" y1="515.625" y2="514.75"/>
    <polyline points="543.375,514.75 549.875,514.375 563.25,513.0 578.875,510.125"/>
    <polyline points="580.875,509.625 592.25,506.5 600.0,503.75 611.875,498.625 625.75,491.375 637.625,483.875 646.25,477.625 655.375,470.375 664.75,462.125"/>
    <polyline points="669.375,457.625 674.0,452.875 682.75,442.875 686.625,437.875 692.875,428.25 695.0,423.875 696.375,420.0 696.625,416.75 696.0,414.375 694.25,413.0 691.375,412.5 687.5,413.25 682.625,415.0 676.875,417.625 670.5,421.25 656.375,430.625 641.5,441.75 607.0,469.375"/>
    <polyline points="601.0,474.125 585.25,486.25 576.25,492.5 564.75,499.625 558.25,503.0 549.625,506.75 542.375,509.125 532.25,511.25 525.375,511.875"/>
    <polyline points="523.875,512.0 512.75,512.125 508.0,511.875 493.5,510.375"/>
    <polyline points="492.5,510.25 474.25,507.0 458.375,503.25"/>
    <polyline points="456.625,502.75 446.25,499.75 433.75,495.625 414.625,488.125 393.125,478.125 382.625,472.625 370.625,465.875"/>
    <polyline points="364.0,462.0 341.375,447.625 324.125,435.625 305.375,421.5 286.25,405.875 277.25,397.875 269.25,390.25 262.625,383.375 257.875,377.875 255.75,374.125 256.625,372.875 260.5,374.25 267.625,378.75 277.5,386.0 289.625,395.75 303.375,407.5 332.5,434.125 346.875,447.75 373.0,473.375"/>
    <polyline points="384.625,484.625 404.5,503.875 420.5,518.5 433.5,529.125 444.125,536.5 448.875,539.25 453.125,541.375 460.875,544.5 464.375,545.625 470.875,546.875 476.75,547.5 482.125,547.625 496.75,546.5"/>
    <polyline points="499.0,546.25 515.75,544.5 529.5,544.25 539.0,544.875 548.375,546.5"/>
    <polyline points="550.125,546.875 559.125,550.0 562.5,551.75 567.125,555.25 569.75,558.25 571.75,562.0 573.0,566.75 573.125,569.625 572.25,576.5 571.125,580.625 566.75,590.75 563.25,597.0 558.625,604.125 552.625,612.375"/>
    <polyline points="545.0,621.625 535.625,632.25 523.875,644.25 509.75,657.5 493.0,671.875 473.25,687.25 450.75,702.75 425.875,717.5 399.625,730.125 373.25,739.125 348.375,742.875 326.75,740.25 309.875,730.875 298.375,715.25 292.125,694.875 290.625,671.25 292.5,646.375 296.75,621.75 302.375,598.25 308.5,576.75 314.5,557.625 325.625,526.125 338.125,494.25"/>
    <polyline points="341.5,486.875 347.0,475.875 351.875,468.625 356.25,464.375 358.5,463.125 363.0,462.0 365.375,462.0 370.125,462.75 377.625,465.375 390.375,471.625 402.25,478.0"/>
  </g>
</svg>
