<?xml version="1.0" encoding="utf-8" ?>
<svg xmlns="http://www.w3.org/2000/svg" xmlns:cc="http://creativecommons.org/ns" xmlns:dc="http://purl.org/dc/elements/1.1/" xmlns:ev="http://www.w3.org/2001/xml-events" xmlns:inkscape="http://www.inkscape.org/namespaces/inkscape" xmlns:rdf="http://www.w3.org/1999/02/22-rdf-syntax-ns" xmlns:sodipodi="http://sodipodi.sourceforge.net/DTD/sodipodi-0.dtd" xmlns:xlink="http://www.w3.org/1999/xlink" baseProfile="tiny" height="27.09333333cm" version="1.2" viewBox="0 0 1024.0 1024.0" width="27.09333333cm">
  <metadata>
    <rdf:RDF>
      <cc:Work>
        <dc:format>image/svg+xml</dc:format>
        <dc:source>vpype read './original_svgs/Strange Attractors #518.svg' linemerge linesimplify write './Strange Attractors #518.svg'
</dc:source>
        <dc:date>2024-08-05T01:36:06.824745</dc:date>
      </cc:Work>
    </rdf:RDF>
  </metadata>
  <defs/>
  <g fill="none" id="layer1" inkscape:groupmode="layer" inkscape:label="1" stroke="black" stroke-width="0.7mm" style="display:inline">
    <polyline points="500.125,568.75 476.125,540.625 457.875,514.125 444.5,489.75 435.0,467.875 428.5,448.25 424.375,430.625 422.125,414.75 421.625,400.375 422.375,387.25 424.5,375.5 427.75,364.875 432.0,355.5 437.25,347.375 443.375,340.875 450.25,335.875 457.625,332.75 465.375,331.375 473.25,332.0 481.0,334.5 488.625,338.75 495.75,344.625 502.25,351.625 508.125,359.625 513.375,368.375 517.75,377.625"/>
    <polyline points="521.625,386.875 524.75,396.125 527.375,405.125 531.0,421.875 533.25,436.625 534.375,449.25 534.875,459.75 534.875,472.125 534.0,492.0 534.0,497.625"/>
    <polyline points="534.125,498.75 534.625,502.5 535.375,504.75 537.125,507.625 538.5,509.0 541.25,510.875 544.75,512.25"/>
    <polyline points="545.5,512.5 551.75,514.125 558.125,515.125 574.5,516.375"/>
    <polyline points="576.125,516.375 588.25,516.625 604.125,515.875 616.75,514.125 624.625,511.875"/>
    <polyline points="626.375,511.125 630.875,508.25 632.0,507.125 633.375,504.375 633.5,502.875 633.125,501.25 632.375,499.375 631.0,497.5 628.875,495.5 626.125,493.5 622.5,491.375 618.0,489.375 612.625,487.5 606.25,485.875 599.0,484.625 590.875,483.75 582.125,483.5 572.875,483.875 563.25,484.875 553.5,486.625 544.0,489.125 534.875,492.25 526.25,495.875"/>
    <polyline points="518.375,500.0 511.375,504.25 505.25,508.625 499.875,513.0 491.625,521.125 486.125,528.125 482.5,533.5 479.25,539.875 478.625,541.75 478.625,538.125"/>
    <polyline points="478.5,537.375 478.25,535.0 477.0,531.0 474.875,527.25 471.875,523.875 466.125,519.625"/>
    <polyline points="465.125,519.0 454.625,513.875 434.875,505.875 426.625,502.125"/>
    <polyline points="424.375,501.0 414.875,496.0 409.75,492.75 404.5,489.125 398.875,484.625 393.25,479.25 387.375,472.75 381.625,464.625 378.75,459.875 376.0,454.5 373.375,448.5 370.875,441.625 368.75,434.0 366.875,425.5 365.5,415.875 364.625,405.0 364.625,392.875"/>
    <polyline points="365.625,379.375 367.75,364.625 371.375,348.625 376.875,331.625 384.5,314.125 394.375,296.75 406.75,280.625 421.625,266.75 438.5,256.625 456.875,251.25 475.875,251.625 494.5,257.75 512.0,269.375 527.625,285.375 541.0,304.625 552.0,325.5 560.625,346.875 567.25,367.75 572.125,387.375 575.625,405.375 578.0,421.625 579.625,435.875 581.0,459.25 581.125,476.5"/>
    <polyline points="580.875,483.375 580.25,494.0 578.5,512.25 578.625,515.5 579.375,517.625 580.875,519.125 582.875,520.25 586.625,521.625"/>
    <polyline points="587.625,521.875 597.0,524.25 622.625,530.0 635.0,533.5"/>
    <polyline points="637.625,534.25 651.0,539.375 658.625,543.625 663.0,546.875 666.5,550.75 667.625,552.75 668.375,554.875 668.5,557.125 668.0,559.25 666.625,561.375 664.375,563.375 661.0,565.125 656.5,566.5 650.875,567.25 644.125,567.375 636.25,566.75 627.25,565.25 617.625,562.75"/>
    <polyline points="607.375,559.25 597.0,554.875 586.625,549.625 576.5,543.875 567.0,537.625 558.25,531.25 550.25,524.75 543.125,518.5 536.875,512.5 526.625,501.75 507.5,480.0 504.625,477.625 502.25,476.25 500.25,475.875 498.5,476.0"/>
    <polyline points="497.625,476.25 494.375,477.75 486.75,482.375 483.0,484.0 477.875,485.375 474.5,485.75"/>
    <polyline points="473.375,485.875 468.5,485.875 463.125,485.25 458.875,484.375 454.25,483.0 444.375,478.75 440.75,476.75 435.25,473.0"/>
    <polyline points="433.375,471.5 429.5,468.125 423.75,462.125 419.875,457.125 416.25,451.25 412.875,444.375 409.875,436.25 407.5,426.75 406.75,421.375 406.125,415.75 406.125,403.125 406.75,396.375 407.875,389.125 409.625,381.75 411.875,374.25 415.0,366.625 418.75,359.125"/>
    <polyline points="423.25,352.0 428.625,345.375 434.625,339.625 441.375,334.875 448.625,331.375 456.375,329.5 464.25,329.125 472.25,330.625 480.125,333.625 487.625,338.375 494.75,344.5 501.25,351.75 507.125,360.0 512.25,368.75 516.625,378.0 520.375,387.25 523.625,396.375 528.25,413.875 531.125,429.5 532.625,443.125 533.625,459.5"/>
    <polyline points="533.75,464.0 533.625,475.25 532.75,494.75 533.375,502.25 534.25,505.125 534.875,506.25"/>
    <polyline points="535.25,506.75 537.375,509.125 541.25,511.5 545.625,513.0 551.875,514.25"/>
    <polyline points="553.0,514.5 560.875,515.5 571.875,516.25 579.875,516.5 588.625,516.375"/>
    <polyline points="590.5,516.375 606.5,515.375 614.625,514.125 620.625,512.625 625.875,510.5 628.75,508.625 630.75,506.375 631.375,505.0 631.75,503.625 631.625,502.0"/>
    <polyline points="631.0,500.375 629.875,498.625 628.125,496.75 625.75,494.75 622.625,492.75 613.875,489.0 608.125,487.375 601.625,486.0 594.25,485.0 586.125,484.5 577.375,484.5 568.25,485.125 559.0,486.5 549.75,488.5 540.75,491.125 532.125,494.375 524.125,498.0 516.875,502.0 510.5,506.125 500.0,514.375 492.375,522.0 487.375,528.375"/>
    <polyline points="485.5,531.0 483.0,535.25 480.5,540.5 480.5,536.75 479.875,533.0 479.125,530.75"/>
    <polyline points="478.875,530.0 477.75,527.75 475.75,525.0 471.0,520.625 464.625,516.75 460.0,514.625"/>
    <polyline points="458.875,514.125 430.875,502.5 424.375,499.375 412.375,492.5"/>
    <polyline points="409.75,490.75 401.75,484.625 393.25,476.5 390.375,473.125 384.75,465.5 381.875,460.875 379.25,455.875 374.125,443.875 371.875,436.75 370.0,428.625 368.375,419.625 367.375,409.625 367.125,398.375 367.625,385.875 369.125,372.0 372.125,357.125 376.625,341.125 383.0,324.375 391.5,307.625 402.375,291.5"/>
    <polyline points="415.5,277.125 430.75,265.625 447.75,258.0 465.75,255.5 483.875,258.5 501.375,266.875 517.5,280.0 531.625,296.75 543.5,316.0 553.125,336.375 560.75,356.75 566.5,376.375 570.75,394.75 573.75,411.625 575.75,426.625 577.125,439.875 577.875,451.5 578.375,477.625 576.875,503.875"/>
    <polyline points="576.75,506.25 576.5,510.0 576.75,513.75 577.25,515.5 578.5,517.5 579.75,518.5 583.0,520.125 594.25,523.25"/>
    <polyline points="595.875,523.5 619.875,528.625 632.625,531.75 646.75,536.0 655.5,539.5"/>
    <polyline points="658.375,540.875 666.5,545.75 668.875,547.625 672.875,551.875 674.25,554.25 675.125,556.75 675.375,559.25 674.75,561.875 673.25,564.375 670.625,566.75 666.75,568.75 661.5,570.375 654.75,571.375 646.625,571.5 637.25,570.5 626.625,568.5 615.125,565.25 603.25,560.875 591.125,555.25 579.375,548.875 568.125,541.75 557.875,534.375 548.375,526.75"/>
    <polyline points="540.125,519.25 532.75,512.125 521.125,499.375 502.0,475.25 497.375,470.25 495.0,468.5 493.0,467.875 491.125,467.75 486.875,469.375 485.125,470.375"/>
    <polyline points="484.25,470.875 480.625,472.75 476.625,474.25 469.875,475.5 462.25,475.125 455.25,473.375"/>
    <polyline points="453.875,472.875 450.75,471.625 446.125,469.125 442.875,467.125 439.625,464.625 434.625,460.0 429.75,454.25 425.125,447.0 422.375,441.125 421.125,437.875 419.0,430.625 417.5,422.5"/>
    <polyline points="417.125,418.0 416.875,413.25 417.0,408.25 417.375,403.0 418.25,397.625 419.375,392.125 421.0,386.625 423.0,381.0 425.625,375.5 428.625,370.125 432.125,365.125 436.25,360.5 440.75,356.625 445.75,353.375 451.0,351.0 456.5,349.625 462.25,349.375 468.125,350.125 473.875,352.0 479.5,355.0 484.875,359.0 490.0,363.75 494.625,369.25 498.875,375.25 502.625,381.75 506.0,388.5"/>
    <polyline points="508.875,395.375 511.375,402.25 515.125,415.5 517.625,427.875 519.125,438.875 520.0,452.875 519.75,467.125 518.5,479.625 516.625,489.25"/>
    <polyline points="516.25,490.5 513.625,499.25 511.75,503.625 510.625,505.5"/>
    <polyline points="510.375,505.75 508.875,507.625 507.25,508.75 505.875,509.25"/>
    <polyline points="505.625,509.375 502.875,509.75 498.75,509.625"/>
    <polyline points="498.375,509.5 492.5,508.875 485.125,507.625"/>
    <polyline points="484.375,507.5 468.25,504.0 457.75,500.875"/>
    <polyline points="456.25,500.5 444.75,496.25 439.125,493.75 433.125,490.75 424.5,485.5 415.25,478.25 408.0,471.0 405.625,468.125"/>
    <polyline points="403.125,465.0 398.375,457.625 396.125,453.375 391.75,443.625 389.875,438.0 388.25,431.75 386.875,424.875 385.75,417.25 385.125,408.875 385.125,399.875 385.75,390.0 387.125,379.375 389.5,368.0 392.875,356.25 397.625,344.125 403.625,332.0 411.25,320.5 420.25,309.875 430.625,301.0 442.25,294.375 454.625,290.5 467.625,289.875 480.625,292.75 493.125,298.875"/>
    <polyline points="504.875,308.0 515.375,319.625 524.625,332.875 532.375,347.25 538.875,362.0 544.0,376.625 548.125,390.875 551.25,404.125 553.625,416.5 556.625,438.0 558.25,462.5 558.5,474.5 558.375,493.625 559.125,503.75"/>
    <polyline points="559.5,505.125 561.25,509.375 563.25,511.625 566.75,514.0 570.0,515.375 576.5,517.25 586.25,519.125"/>
    <polyline points="588.125,519.375 600.5,521.0 618.25,522.625 643.375,524.25 658.125,524.875"/>
    <polyline points="662.0,525.0 674.5,525.375 702.125,525.125 722.375,523.25 732.625,521.125 737.625,519.625 742.5,517.75 747.0,515.25 751.125,512.125 754.5,508.0 756.875,502.75 757.5,496.125 755.75,487.75 750.375,477.5 740.0,465.0"/>
    <polyline points="722.625,450.625 696.125,435.25 659.0,421.125 611.5,411.625 557.25,410.25 502.0,419.75 452.75,439.625 413.5,467.125 385.375,498.375 367.0,530.0 356.125,560.125 350.75,587.75 349.5,612.75 351.375,635.0 355.75,654.625 362.5,671.5 371.375,685.375 382.125,696.125 394.375,703.125 407.875,706.5 422.0,705.875 436.25,701.75 450.25,694.375 463.5,684.375 475.75,672.625 486.625,659.625"/>
    <polyline points="496.25,646.125 504.5,632.75 511.5,619.875 517.375,607.75 522.25,596.5 529.375,577.125 533.875,561.875 537.625,545.5 539.375,532.5 539.75,520.875"/>
    <polyline points="539.75,520.375 540.125,519.375 541.5,518.25 546.5,517.0 549.625,516.625"/>
    <line x1="550.375" x2="573.0" y1="516.5" y2="514.25"/>
    <polyline points="574.0,514.125 582.5,512.75 588.875,510.875 591.5,509.5 592.375,508.625 592.875,507.25 592.75,506.875"/>
    <polyline points="592.5,506.375 591.75,505.375 590.25,504.375 586.625,503.125 583.375,502.5 577.25,502.0 570.0,502.25 562.0,503.375 556.625,504.625 551.375,506.125 544.25,508.875"/>
    <polyline points="542.125,509.75 535.0,513.5 531.25,516.0 528.0,518.5 526.125,520.5 526.125,520.875 527.0,520.75"/>
    <polyline points="527.375,520.625 534.625,518.125 540.5,517.125"/>
    <polyline points="541.25,517.0 549.5,516.25 565.625,515.75"/>
    <polyline points="566.875,515.75 577.625,515.25 589.375,514.125 596.75,512.875 602.125,511.25"/>
    <polyline points="603.25,510.875 605.5,509.75 607.875,507.875 608.75,506.375 608.75,504.625 607.875,502.875 605.75,500.875 602.25,499.0 599.875,498.125 590.625,496.0 582.625,495.375 573.5,495.5 563.625,496.625"/>
    <polyline points="558.625,497.5 553.625,498.625 544.125,501.625 535.5,505.25 528.0,509.25 521.875,513.25 515.0,518.5 510.625,522.625 506.375,527.375 509.625,518.875"/>
    <polyline points="509.625,518.625 511.375,513.75 511.625,512.125 504.5,511.125"/>
    <line x1="504.25" x2="497.0" y1="511.0" y2="510.0"/>
    <line x1="496.625" x2="482.0" y1="509.875" y2="507.25"/>
    <polyline points="481.125,507.125 464.5,503.125 451.625,499.0"/>
    <polyline points="450.0,498.375 446.5,497.125 437.25,493.0 431.125,489.75 422.375,484.125 417.625,480.5 412.875,476.375 408.0,471.375 405.625,468.5 400.75,461.875 396.125,453.875"/>
    <polyline points="393.875,449.25 391.75,444.125 388.125,432.25 385.625,417.875 385.0,409.5 384.875,400.5 385.375,390.625 386.75,380.0 389.0,368.75 392.375,356.875 397.0,344.75 403.0,332.625 410.5,320.875 419.5,310.25 429.75,301.125 441.375,294.25 453.875,290.25 466.875,289.5 479.875,292.125 492.5,298.125 504.25,307.125 515.0,318.625 524.25,331.875 532.25,346.25"/>
    <polyline points="538.75,361.0 544.0,375.75 548.25,390.0 551.375,403.5 553.75,416.0 555.5,427.375 557.625,446.875 558.5,462.375 558.875,500.375 559.625,505.125 561.0,508.5"/>
    <polyline points="561.5,509.375 562.75,511.0 566.0,513.5 569.125,515.0 572.75,516.25 583.125,518.625 594.375,520.25"/>
    <polyline points="596.5,520.5 613.125,522.25 627.375,523.375 658.625,525.125 675.125,525.625"/>
    <polyline points="679.5,525.75 698.25,525.875 708.125,525.625 723.75,524.5 734.375,522.875 739.75,521.625 744.875,520.125 749.875,518.125 754.625,515.5 758.875,512.125 762.25,507.75 764.5,502.125 765.0,494.875 762.625,485.75 756.25,474.375 744.125,460.5 723.75,444.75 693.0,428.125 650.25,413.75"/>
    <polyline points="596.875,405.375 537.5,407.25 479.875,421.25 430.75,446.0 393.75,477.625 368.625,511.75 353.125,545.375 344.75,576.75 341.625,605.5 342.375,631.25 346.25,654.25 352.875,674.375 362.125,691.375 373.625,704.75 387.125,714.0 402.125,718.875 418.125,719.125 434.375,715.0 450.375,706.875 465.375,695.5 479.125,682.0 491.375,667.0 502.0,651.625 510.875,636.375 518.375,621.875 524.5,608.25"/>
    <polyline points="529.375,595.875 533.25,584.75 536.25,574.875 538.5,566.25 541.375,552.375 542.125,546.75 542.875,538.0 542.625,529.5 541.625,524.5 540.375,521.625 538.25,518.75 541.125,517.875 547.25,516.875"/>
    <line x1="547.875" x2="570.625" y1="516.875" y2="514.625"/>
    <polyline points="571.75,514.625 579.625,513.625 588.25,511.875 592.625,510.125 593.875,509.375 595.125,508.0"/>
    <polyline points="595.25,507.5 595.25,506.375 594.625,505.375 593.25,504.25 591.125,503.25 586.5,501.875 577.5,501.0 569.25,501.375 563.25,502.25 554.25,504.25 548.5,506.125"/>
    <polyline points="545.875,507.125 540.875,509.25 532.875,513.5 525.125,519.25 523.375,521.0 523.0,521.625 523.375,521.75"/>
    <polyline points="523.625,521.625 530.125,518.625 534.75,517.5"/>
    <polyline points="535.375,517.375 544.75,516.25 556.25,516.0 554.0,515.75 543.625,515.75 535.0,516.25"/>
    <polyline points="592.75,514.625 575.375,515.75 557.25,515.875 576.5,515.5 591.75,514.25"/>
    <polyline points="593.25,514.0 599.375,512.875 606.25,510.75 609.375,508.875 611.375,506.625 611.75,504.875 611.5,503.875 611.0,502.875 609.0,500.75 605.5,498.625 600.5,496.625"/>
    <polyline points="597.25,495.875 589.5,494.5 585.125,494.125 575.25,494.125 564.625,495.125 559.125,496.125 548.375,498.875 543.25,500.625 533.75,504.625 525.625,509.0 519.125,513.375 513.875,517.5 505.5,525.875"/>
    <polyline points="504.75,526.75 503.375,528.625 503.0,528.75 504.5,522.125"/>
    <polyline points="504.625,521.625 504.625,517.0 503.5,514.625 501.5,513.0 497.0,511.25"/>
    <line x1="496.625" x2="482.5" y1="511.125" y2="507.875"/>
    <polyline points="481.75,507.75 466.75,504.125 452.875,499.75"/>
    <polyline points="451.25,499.25 440.75,495.0 434.875,492.125 428.625,488.625 421.875,484.25 414.875,478.625 410.0,474.0 402.625,465.25 397.875,457.875"/>
    <polyline points="395.5,453.625 391.25,443.875 389.25,438.125 386.125,424.875 385.125,417.25 384.5,408.75 384.5,399.625 385.0,389.625 386.5,378.875 388.875,367.5 392.375,355.5 397.125,343.25 403.375,331.0 411.0,319.25 420.125,308.625 430.75,299.625 442.5,293.0 455.125,289.25 468.25,288.75 481.375,291.75 494.125,298.125 505.875,307.625 516.5,319.375 525.75,333.0"/>
    <polyline points="533.5,347.5 540.0,362.5 545.125,377.375 549.125,391.625 552.25,405.0 554.5,417.5 556.25,428.75 558.25,448.125 558.75,456.25 559.25,475.25 559.25,499.0 559.875,504.125 561.0,507.875"/>
    <polyline points="561.5,508.875 563.375,511.25 565.0,512.625 566.75,513.75 571.0,515.625 579.125,517.875 593.375,520.25"/>
    <polyline points="595.5,520.5 620.0,523.0 638.625,524.375 673.125,526.25"/>
    <polyline points="677.5,526.375 696.25,527.125 722.25,527.25 733.5,526.875 745.125,526.0 757.0,524.25 762.875,523.0 768.625,521.25 774.125,518.875 779.25,515.625 783.75,511.5 787.25,505.875 788.875,498.625 788.0,489.0 782.75,476.5 771.25,460.75"/>
    <polyline points="750.25,441.875 716.25,421.125 666.5,401.875 601.875,390.0 529.0,391.875 459.25,410.25 402.25,442.625 361.875,483.0 336.5,525.5 322.625,566.625 316.75,604.75 316.625,639.875 321.125,671.625 329.875,700.125 342.625,724.375 359.125,743.375 378.875,756.0 401.0,761.125 424.375,758.5 447.5,748.75 469.375,733.125 489.0,713.375 505.75,691.375 519.75,668.875 530.875,647.0 539.5,626.625"/>
    <polyline points="545.875,608.25 550.5,592.125 553.5,578.125 555.25,566.25 556.0,556.125 555.875,547.75 555.0,540.875 553.75,535.25 552.0,530.75 550.0,527.125 547.75,524.375 545.375,522.375 543.0,520.875 540.625,519.875 535.875,518.875 531.625,519.0 526.375,520.125 520.75,522.5"/>
    <polyline points="520.125,523.0 517.875,524.25 521.875,520.625"/>
    <polyline points="522.25,520.375 524.25,519.125 527.375,517.75 530.375,516.875 534.375,516.25"/>
    <polyline points="594.5,514.375 602.625,513.0 607.125,511.75 612.25,509.375 614.125,507.875 614.75,507.0 615.25,506.0 615.375,504.0 614.375,501.75 611.875,499.375 607.625,497.0 604.75,495.875"/>
    <polyline points="601.375,494.875 597.625,493.875 588.5,492.625 583.25,492.375 571.875,492.625 565.875,493.25 553.625,495.625 541.875,499.25 531.375,503.875 526.625,506.375 518.625,511.375 509.75,518.375 504.125,524.0 501.0,527.875"/>
    <polyline points="500.375,528.75 498.625,530.625 499.25,526.25 499.25,522.875"/>
    <polyline points="499.125,522.375 498.75,520.125 497.625,517.625 495.5,515.25 493.625,514.0"/>
    <polyline points="493.25,513.75 486.0,510.75 477.5,508.25"/>
    <polyline points="476.625,508.0 459.375,503.125 452.0,500.625 443.375,497.25"/>
    <polyline points="441.625,496.5 431.625,491.625 422.875,486.25 413.375,478.875 406.0,471.5 401.0,465.25 396.125,457.625 393.875,453.25 389.5,443.125 385.875,430.75"/>
    <polyline points="384.5,423.5 383.5,415.625 383.0,406.875 383.0,397.25 383.75,386.875 385.375,375.75 388.125,363.875 392.0,351.5 397.125,338.875 403.875,326.25 412.125,314.375 421.875,303.75 433.125,295.0 445.625,288.875 458.875,285.875 472.375,286.375 485.875,290.625 498.625,298.25 510.375,308.75 520.875,321.625 529.875,336.125 537.375,351.375 543.5,366.75 548.375,381.875 552.125,396.25 554.875,409.625"/>
    <polyline points="557.0,421.875 559.5,443.125 560.625,459.875 561.0,500.625 561.375,504.125 562.5,508.0 564.125,510.75 566.25,512.875"/>
    <polyline points="567.125,513.5 573.5,516.375 580.375,518.25 590.75,520.125 608.25,522.25"/>
    <polyline points="610.75,522.625 671.5,528.125 705.125,532.125"/>
    <polyline points="710.5,533.0 721.875,535.0 733.875,537.625 740.25,539.375 753.375,543.875 760.25,547.0 767.25,550.625 774.125,555.25 781.0,560.875 787.25,567.875 792.625,576.375 796.0,586.875 796.25,599.375 791.125,613.5 778.0,628.25 753.75,641.25 716.375,648.625 666.875,646.25 610.125,631.375 554.0,604.375 505.0,569.0 466.875,529.875 439.5,490.625"/>
    <polyline points="421.5,453.5 411.0,419.125 406.5,387.75 406.75,359.25 411.125,333.75 419.125,311.375 430.25,292.875 444.0,278.75 459.75,270.0 476.5,266.875 493.375,269.75 509.625,278.125 524.375,291.125 537.25,307.625 548.0,326.25 556.625,345.75 563.25,365.25 568.125,383.75 571.75,401.125 574.125,416.875 575.625,430.875 576.5,443.25 576.875,463.375 576.25,478.25"/>
    <polyline points="575.75,484.125 573.375,499.875 571.25,509.25 571.0,513.0 571.625,514.75 572.875,516.125 577.375,518.25"/>
    <polyline points="578.375,518.5 580.5,519.25 590.25,521.5 625.0,527.75"/>
    <polyline points="627.875,528.25 643.125,531.375 660.375,536.0 675.125,541.625 682.375,545.5 685.875,547.75 692.125,553.125 694.625,556.25 696.625,559.625 697.875,563.25 698.125,567.125 697.125,571.25 694.375,575.25"/>
    <polyline points="689.75,579.0 682.875,582.25 673.5,584.5 661.625,585.375 647.25,584.5 630.875,581.5 613.25,576.125 595.125,568.75 577.375,559.375 560.625,548.625 545.375,537.0 532.125,525.125 520.75,513.5 511.25,502.5 503.5,492.25 497.25,483.0 492.125,474.75 488.125,467.5 482.375,456.0 478.875,447.75 475.5,438.625"/>
    <polyline points="475.125,437.5 474.25,435.875 473.75,435.75 470.625,441.625 468.75,443.75 466.5,445.25"/>
    <polyline points="466.0,445.5 464.0,446.125 461.875,446.25 459.75,445.875 455.875,444.25 451.375,440.375 448.125,435.375"/>
    <polyline points="447.625,434.125 446.625,431.625 445.25,425.875 445.0,419.5 445.75,414.625 447.375,409.75 449.875,405.5 453.375,402.25 456.0,400.75 457.5,400.375"/>
    <polyline points="459.0,400.0 463.625,400.375 468.25,402.5 472.625,406.25 476.375,411.375 478.375,415.125 480.125,419.25 481.375,423.5 483.0,431.75 483.25,437.625"/>
    <polyline points="483.125,439.5 482.375,446.125 481.125,450.375 479.5,454.0 477.5,457.0 475.125,459.375 471.625,461.625 469.75,462.375 466.625,463.0"/>
    <polyline points="465.5,463.125 461.0,462.875 457.375,462.125 452.375,460.0 448.5,457.625 445.875,455.625 441.875,451.875 438.125,447.125 434.75,441.25"/>
    <polyline points="433.75,439.0 431.875,434.125 430.375,428.625 429.375,422.625 429.125,416.0 429.5,409.0 430.0,405.375 431.875,398.0 434.75,390.75 436.625,387.25 438.875,384.0 444.125,378.25 447.0,376.0 450.25,374.125 453.625,372.75 457.25,371.875 460.875,371.625 464.625,372.0"/>
    <polyline points="468.375,373.0 472.0,374.5 475.625,376.625 479.0,379.25 482.375,382.375 488.25,389.875 490.875,394.0 495.25,402.875 497.125,407.375 500.0,416.5 502.125,425.25 503.875,437.375 504.375,451.0 503.375,461.625"/>
    <polyline points="503.0,463.875 500.625,473.25 498.75,477.5 496.875,480.875 494.0,484.625 491.75,486.75 488.5,488.875 485.875,490.125"/>
    <polyline points="485.0,490.5 483.125,491.125 478.125,492.0 471.375,492.125 466.25,491.625 462.25,490.875 454.75,488.875"/>
    <polyline points="453.125,488.375 444.625,484.875 437.25,480.875 429.25,475.375 423.0,469.875 416.75,462.75 412.625,457.0 408.75,450.0 405.125,441.875"/>
    <polyline points="403.5,437.125 402.125,432.125 400.0,420.5 399.375,414.125 399.25,407.125 399.5,399.625 400.25,391.75 401.625,383.375 403.75,374.625 406.75,365.75 410.5,356.875 415.25,348.0 421.0,339.75 427.625,332.125 435.125,325.75 443.5,320.75 452.5,317.625 461.75,316.5 471.25,317.5 480.625,320.625 489.75,325.875 498.125,333.0 505.875,341.5 512.75,351.25 518.625,361.75"/>
    <polyline points="523.75,372.625 528.0,383.5 531.5,394.25 534.25,404.5 538.125,423.5 539.375,431.875 541.0,446.75 541.75,459.0 541.75,494.75 542.375,500.5"/>
    <polyline points="542.625,501.625 543.125,503.625 544.25,506.125 545.75,508.125 548.25,510.25 554.125,513.0 560.5,514.625"/>
    <polyline points="561.75,514.875 569.75,516.125 582.875,517.25 592.375,517.625 605.5,517.5"/>
    <polyline points="607.75,517.5 619.875,516.625 629.75,515.125 637.0,513.25 639.25,512.375 641.375,511.5 645.125,509.125 647.875,506.25 648.75,504.375 649.25,502.5 649.0,500.25 648.25,497.875 646.625,495.25 644.0,492.375 640.375,489.5"/>
    <polyline points="635.5,486.5 629.25,483.5 621.625,480.625 612.5,478.25 602.0,476.375 590.25,475.375 577.5,475.375 564.25,476.375 550.75,478.75 537.5,482.25 525.125,486.75 513.625,492.25 503.375,498.25 494.625,504.625 487.125,511.125 480.875,517.375 476.0,523.375 472.0,528.875 469.0,533.875 465.0,541.875 463.0,547.625 462.125,552.5"/>
    <polyline points="462.25,553.375 462.375,553.875 462.75,554.0 463.625,552.125 464.0,549.5 463.875,545.625 462.625,540.5 461.25,537.75 459.375,535.0"/>
    <polyline points="458.75,534.125 455.5,530.875 449.125,526.5 440.875,522.5 424.75,516.25"/>
    <polyline points="422.625,515.5 403.25,508.0 394.75,504.0 382.25,496.875 375.625,492.125 372.125,489.375 365.125,482.75 357.875,474.25 350.75,463.25 347.375,456.375"/>
    <polyline points="344.125,448.625 341.125,439.5 338.5,429.0 336.5,416.75 335.125,402.5 335.0,386.125 336.25,367.25 339.5,345.75 345.25,321.875 354.25,295.875 367.125,268.875 384.375,242.5 406.25,219.375 432.125,202.25 460.875,194.0 490.375,196.625 518.5,210.125 543.625,233.0 564.375,262.125 580.625,294.625 592.625,327.375 601.125,358.625 606.75,387.0 610.375,411.875 612.25,433.5 613.125,451.625"/>
    <polyline points="613.125,466.875 612.5,479.5 611.375,489.875 609.875,498.25 608.25,505.0 606.375,510.375 604.25,514.625 602.125,517.875 599.875,520.375 597.5,522.125 595.125,523.375 592.875,524.25 588.25,524.75 583.875,524.25 579.875,523.25 573.375,520.625 568.875,518.0"/>
    <polyline points="568.0,517.5 565.375,515.375 565.875,515.25 576.875,518.125"/>
    <polyline points="578.125,518.375 588.75,520.5 598.25,522.0 631.875,526.5"/>
    <polyline points="635.0,527.0 656.25,530.25 668.25,532.5 681.25,535.625 695.25,540.0 700.0,541.875 709.75,546.625 714.5,549.5 719.125,552.875 723.5,556.75 727.25,561.25 730.375,566.375 732.25,572.125 732.625,578.5"/>
    <polyline points="730.625,585.375 725.5,592.375 716.5,598.875 702.75,604.125 684.0,607.0 660.25,606.25 632.875,601.0 603.5,591.125 574.375,576.875 547.5,559.5 524.0,540.125 504.5,520.25 489.0,500.75 477.125,482.5 468.25,465.875 462.0,451.0 457.75,437.75 455.0,426.125 453.625,416.125 453.375,407.5 453.875,400.125 455.25,393.875 457.0,388.875 459.375,384.875 462.0,381.875 465.0,379.875"/>
    <polyline points="468.125,378.75 471.375,378.625 474.625,379.125 478.0,380.5 481.125,382.5 484.25,385.0 489.875,391.625 492.375,395.5 496.625,404.0 498.5,408.375 501.25,417.25 503.375,425.875 504.625,434.0 505.5,445.0 505.5,451.5 504.875,459.75"/>
    <polyline points="504.5,462.125 502.875,470.5 501.25,475.375 498.125,481.625 496.125,484.5 493.25,487.5 490.125,489.75 488.375,490.625"/>
    <polyline points="487.625,491.0 482.125,492.75 477.0,493.375 472.625,493.375 467.625,492.875 459.375,491.25"/>
    <polyline points="457.875,490.875 453.25,489.375 444.75,486.0 435.375,480.875 429.25,476.625 425.125,473.25 418.75,466.875 414.5,461.625 410.375,455.5"/>
    <polyline points="408.375,451.875 404.625,443.875 403.0,439.25 400.125,428.875 398.375,416.5 398.0,409.5 398.0,402.125 398.625,394.125 399.875,385.75 401.75,376.875 404.5,367.875 408.0,358.625 412.625,349.5 418.125,340.75 424.625,332.625 432.125,325.5 440.5,319.875 449.5,316.0 459.125,314.25 468.875,314.625 478.625,317.25 488.0,322.125 496.875,329.0"/>
    <polyline points="505.0,337.5 512.25,347.375 518.625,358.0 524.0,369.125 528.5,380.375 532.25,391.375 535.125,402.125 539.375,421.75 542.375,446.0 543.375,464.0 543.25,491.25 543.5,496.875"/>
    <polyline points="543.625,498.375 544.0,501.0 544.875,504.125 546.125,506.625 547.75,508.625 549.75,510.25 552.875,512.0 555.75,513.125 560.0,514.25"/>
    <polyline points="561.125,514.625 568.875,516.0 578.25,517.0 593.375,517.875 604.25,517.875"/>
    <polyline points="606.625,517.875 621.5,517.125 629.25,516.125 639.375,513.875 646.25,511.125 650.0,508.5 651.5,506.875 653.25,503.125 653.375,500.875 652.75,498.375 651.375,495.625 649.0,492.625"/>
    <polyline points="645.5,489.5 640.75,486.25 634.5,482.875 626.75,479.75 617.375,477.0 606.375,474.75 594.0,473.375 580.375,473.0 566.125,473.875 551.5,476.25 537.25,479.875 523.625,484.75 511.25,490.625 500.25,497.25 490.75,504.25 482.875,511.25 476.375,518.25 471.25,524.75 467.25,530.75 464.125,536.125 461.875,540.75 459.125,548.25 457.875,555.0"/>
    <polyline points="457.875,556.25 458.25,557.625 458.875,557.75 459.25,557.5 460.625,554.0 461.0,549.875 460.25,544.5 459.125,541.5 457.625,538.625"/>
    <polyline points="457.0,537.75 454.0,534.25 451.25,531.875 445.625,528.25 437.0,524.25 424.5,519.625"/>
    <polyline points="422.375,519.0 406.125,513.375 395.125,509.125 382.75,503.5 376.0,499.75 369.0,495.125 361.75,489.5 354.125,482.125 346.5,472.5"/>
    <polyline points="342.75,466.625 339.0,459.75 335.375,451.875 332.125,442.5 329.25,431.625 326.875,418.75 325.25,403.75 324.875,386.125 326.125,365.625 329.5,342.0 335.75,315.375 345.75,286.125 360.25,255.5 380.125,225.625 405.5,199.625 435.5,181.375 468.5,174.25 501.875,180.375 533.0,199.375 559.625,228.375 581.0,263.5 596.875,300.875 608.125,337.375 615.625,370.875 620.25,400.625 622.875,426.125"/>
    <polyline points="623.875,447.625 623.875,465.375 622.875,480.0 621.375,491.875 619.375,501.5 617.0,509.0 614.25,514.875 611.125,519.375 607.875,522.75 604.375,525.0 600.875,526.5 597.25,527.375 593.625,527.625 589.875,527.375 586.375,526.75 579.5,524.875 573.375,522.25 567.875,519.5 557.75,513.25"/>
    <polyline points="556.375,512.25 550.75,508.625 549.25,508.125 550.75,509.75 554.25,511.625"/>
    <polyline points="555.0,512.0 561.5,514.25 567.5,515.625 576.25,517.125 588.875,518.375"/>
    <polyline points="590.875,518.5 606.5,519.375 616.75,519.5 633.75,518.875 648.875,517.0 658.0,514.75"/>
    <polyline points="660.75,513.75 666.0,511.125 668.25,509.5 670.25,507.5 671.75,505.25 672.625,502.75 672.875,499.75 672.125,496.375 670.375,492.5 667.125,488.375 662.125,483.75 655.125,479.0 645.875,474.125 634.0,469.625 619.625,465.75 602.875,463.0 584.125,462.0 564.25,463.0 544.0,466.25 524.375,471.875 506.25,479.5 490.25,488.5 476.875,498.5 465.875,508.875 457.25,519.125"/>
    <polyline points="450.625,528.875 445.75,537.75 442.375,545.625 440.125,552.625 438.75,558.5 438.0,563.5 437.75,567.625 438.0,571.0 438.5,573.625 440.125,576.875 441.125,577.75 443.375,578.375 445.625,577.625 447.75,576.0 449.75,573.75 451.625,571.0 454.375,565.125"/>
    <polyline points="454.875,563.625 455.75,560.625 456.5,554.875 456.5,552.125 455.75,547.25 454.625,543.875 452.875,540.875 450.75,538.125 447.125,534.875"/>
    <polyline points="446.0,534.125 440.0,530.625 429.25,526.25 410.875,520.625 400.75,517.875"/>
    <polyline points="398.125,517.125 383.25,512.5 376.75,510.125 366.125,505.625 358.625,501.875 354.75,499.625 346.75,494.125 338.25,487.0 334.0,482.5 329.75,477.375 325.5,471.25 321.25,464.125 317.125,455.625 313.375,445.5 309.875,433.5 307.125,419.0"/>
    <polyline points="305.25,401.75 304.875,381.0 306.375,356.25 310.75,327.25 319.125,293.75 332.875,256.75 353.125,218.0 380.75,181.375 415.875,152.25 456.375,136.625 498.75,138.875 538.75,159.5 572.875,195.125 599.5,239.625 618.5,286.75 631.25,331.875 639.125,372.5 643.5,407.5 645.375,436.875 645.375,461.0 643.875,480.375 641.375,495.875 637.875,508.125 633.5,517.375 628.5,524.375 622.75,529.25"/>
    <polyline points="616.5,532.5 609.75,534.125 602.875,534.5 595.75,533.875 588.625,532.375 581.75,530.125 575.125,527.375 568.875,524.25 557.625,517.5 552.625,514.125 544.25,507.75 526.875,493.375 522.875,491.0 521.0,490.375 520.125,490.375"/>
    <polyline points="519.375,490.375 517.5,491.0 515.375,492.75 509.125,501.5"/>
    <polyline points="508.875,501.875 505.375,505.25 501.125,507.125"/>
    <polyline points="500.75,507.125 497.5,507.625 493.125,507.625 488.375,507.125"/>
    <polyline points="487.75,507.125 476.375,505.25 464.0,502.25"/>
    <polyline points="462.625,501.875 449.125,497.5 443.875,495.375 434.25,490.75 428.0,487.125 423.5,484.125 416.625,478.75"/>
    <polyline points="414.25,476.5 411.75,474.25 404.5,465.875 399.75,458.875 395.25,450.25 393.125,445.375 391.25,440.0 389.5,434.0 388.0,427.375 386.75,420.125 386.0,412.125 385.75,403.375 386.125,393.875 387.125,383.75 389.125,372.75 392.125,361.25 396.25,349.375 401.75,337.5 408.625,325.75 417.0,314.875 426.625,305.375 437.625,297.875"/>
    <polyline points="449.625,293.0 462.25,291.125 475.125,292.5 487.625,297.25 499.625,305.0 510.5,315.5 520.25,327.875 528.5,341.625 535.5,356.125 541.125,370.75 545.625,384.875 549.25,398.5 551.875,411.125 553.875,422.875 555.25,433.375 556.875,451.5 557.75,476.875 557.625,494.625"/>
    <polyline points="557.75,497.0 558.5,504.125 559.25,506.625 561.375,510.25 563.625,512.25 566.375,514.0 570.875,515.75 577.75,517.5"/>
    <polyline points="579.25,517.875 591.75,519.75 607.5,521.5 639.625,523.5"/>
    <polyline points="643.0,523.75 661.5,524.25 673.875,524.25 691.375,523.625 700.625,522.75 710.125,521.375 719.375,519.0 723.875,517.375 728.125,515.375 732.0,512.75 735.375,509.5 738.0,505.375 739.375,500.25 739.25,494.0"/>
    <polyline points="736.625,486.25 730.75,476.875 720.375,465.875 703.875,453.75 679.875,441.125 647.625,430.0 607.5,422.625 562.0,421.75 515.5,429.0 472.75,444.5 437.25,466.25 410.375,491.5 391.625,517.875 379.375,543.25 372.375,566.875 369.0,588.125 368.5,607.125 370.25,623.75 373.75,638.125 378.875,650.375 385.25,660.25 392.875,667.875 401.5,673.25 410.875,676.0 420.75,676.5 430.875,674.625"/>
    <polyline points="441.0,670.625 450.875,664.875 460.25,657.625 469.0,649.375 477.0,640.25 484.125,630.875 490.625,621.5 501.25,603.25 509.25,586.875 512.375,579.625 515.125,573.0 521.125,556.625 530.0,529.625"/>
    <polyline points="530.5,528.375 533.0,523.625 535.625,520.875 537.25,519.75 540.25,518.5 545.25,517.25"/>
    <polyline points="546.0,517.125 553.625,516.25 571.125,515.125"/>
    <polyline points="572.375,515.0 585.25,513.75 592.875,512.25 599.125,509.875 601.125,508.25"/>
    <polyline points="601.625,507.625 602.0,505.625 601.25,504.25 599.75,502.75 597.125,501.375 595.375,500.625 591.125,499.5 582.5,498.375 575.625,498.25 564.25,499.375 552.375,502.0 545.0,504.5"/>
    <polyline points="541.625,505.875 535.25,508.875 527.625,513.25 520.75,518.375 514.625,524.375 515.0,524.0"/>
    <polyline points="515.25,523.875 518.0,520.875 520.625,518.875 522.875,517.625"/>
    <polyline points="523.25,517.5 528.75,515.875 535.375,515.375"/>
    <line x1="536.125" x2="557.875" y1="515.375" y2="515.75"/>
    <polyline points="559.125,515.75 579.625,515.75 596.125,514.5"/>
    <polyline points="597.875,514.25 606.25,512.625 610.75,511.125 613.375,509.875 615.5,508.375 617.0,506.625 617.375,505.625 617.375,503.5 616.875,502.25 614.875,499.75 611.0,497.25 608.375,496.0 601.375,493.625"/>
    <polyline points="597.125,492.75 592.375,492.0 581.375,491.25 569.0,492.0 556.0,494.125 549.625,495.75 543.375,497.75 532.0,502.375 526.875,505.0 522.125,507.75 514.25,513.125 505.875,520.375 497.5,530.25"/>
    <polyline points="497.125,530.875 496.25,531.75 496.625,526.625 496.125,522.5"/>
    <polyline points="495.875,522.0 495.5,520.625 493.75,517.75 490.75,515.125 487.25,513.25"/>
    <polyline points="486.75,513.0 479.0,510.0 464.625,505.625"/>
    <polyline points="463.375,505.25 451.875,501.5 437.75,495.625 431.625,492.625 427.375,490.125 422.875,487.375 418.25,484.0"/>
    <polyline points="415.875,482.125 410.875,477.875 405.875,472.875 400.875,466.75 398.375,463.25 393.5,455.125 389.0,445.25 387.0,439.5 385.25,433.125 383.75,426.0 382.5,418.125 381.875,409.625 381.625,400.125 382.25,389.75 383.625,378.625 386.0,366.75 389.5,354.25 394.5,341.25 400.875,328.375 408.875,315.875 418.5,304.5"/>
    <polyline points="429.625,295.0 442.0,287.875 455.375,284.0 469.25,283.625 483.125,287.0 496.5,294.125 508.75,304.25 519.75,317.0 529.25,331.625 537.25,347.125 543.75,362.875 548.875,378.5 552.875,393.25 555.875,407.125 558.125,419.875 560.875,441.875 562.25,466.25 562.125,493.75"/>
    <polyline points="562.125,496.5 562.5,502.875 563.0,506.0 564.75,510.375 566.0,511.875 568.375,513.875 572.375,515.875 581.875,518.625"/>
    <polyline points="583.375,518.875 590.375,520.25 602.875,522.0 646.5,526.75"/>
    <polyline points="650.25,527.125 674.625,530.125 698.375,534.25 709.0,536.75 720.125,540.125 726.0,542.25 737.75,547.625 743.75,551.125 749.625,555.375 755.125,560.375 760.125,566.5 764.125,573.625 766.375,582.125 766.0,591.75"/>
    <polyline points="761.625,602.25 751.625,612.875 734.25,622.25 708.125,628.25 673.625,628.375 632.75,620.75 589.5,604.625 548.375,581.5 512.75,553.875 484.25,524.25 462.875,495.125 447.75,467.625 437.75,442.375 431.75,419.5 429.125,399.0 429.125,380.875 431.375,365.0 435.625,351.25 441.375,339.75 448.625,330.75 456.75,324.375 465.75,320.75 475.0,319.875 484.375,321.75 493.5,326.125 502.125,332.625"/>
    <polyline points="510.0,341.0 517.0,350.75 523.125,361.375 528.25,372.5 532.5,383.625 536.0,394.75 538.75,405.25 540.875,415.375 543.625,433.375 545.0,448.5 545.625,466.0 545.125,487.75 545.25,497.625"/>
    <polyline points="545.375,499.0 545.75,501.625 546.625,504.625 547.375,506.25 549.5,509.0 553.125,511.5 557.75,513.375 562.25,514.625"/>
    <polyline points="563.5,514.875 571.625,516.375 578.0,517.125 593.125,518.125 608.875,518.25"/>
    <polyline points="611.375,518.25 619.0,518.0 629.625,517.0 637.75,515.75 645.625,513.625 648.125,512.625 650.375,511.625 654.5,508.875 657.375,505.5 658.125,503.375 658.375,500.875 657.875,498.25 656.5,495.25 654.125,492.0 650.5,488.625"/>
    <polyline points="645.5,485.0 638.75,481.25 630.375,477.75 620.0,474.625 608.0,472.125 594.25,470.5 579.25,470.25 563.5,471.375 547.625,474.125 532.125,478.5 517.5,484.125 504.375,490.875 493.0,498.375 483.25,506.25 475.375,514.0 469.0,521.625 464.0,528.625 460.25,535.0 457.5,540.625 454.125,549.75 452.875,556.125 452.75,560.0 453.0,561.25"/>
    <polyline points="453.375,562.0 453.75,562.5 454.625,562.5 455.625,561.625 456.5,560.125 457.625,556.125 458.0,552.625 457.625,548.125 457.125,545.875 455.875,542.75 454.75,540.875"/>
    <polyline points="454.25,539.875 450.375,535.625 447.375,533.25 444.0,531.125 437.25,527.75 434.125,526.5 421.25,522.125"/>
    <polyline points="419.25,521.5 397.125,514.75 385.25,510.625 378.75,508.0 368.375,503.125 361.0,498.875 353.25,493.5 345.125,486.5 341.0,482.25"/>
    <polyline points="336.875,477.25 332.75,471.5 328.75,464.75 324.75,456.875 321.0,447.5 317.75,436.375 314.875,423.125 312.875,407.5 312.0,388.75 312.75,366.625 316.0,340.75 322.375,311.0 333.125,277.625 349.5,242.125 372.25,207.0 401.75,176.5 437.125,155.75 475.875,149.25 514.5,159.5 549.375,185.125 578.25,221.875 600.25,264.375 616.0,307.75 626.375,348.5 632.75,384.75 636.25,415.875"/>
    <polyline points="637.75,442.0 637.625,463.625 636.375,481.0 634.125,495.0 631.25,506.125 627.625,514.625 623.375,521.125 618.75,525.875 613.625,529.0 608.25,531.0 602.625,531.875 596.875,531.75 591.125,531.0 585.5,529.625 580.0,527.75 574.75,525.5 565.125,520.5 553.25,512.875 540.25,503.0"/>
    <polyline points="538.375,501.625 535.375,499.5 532.125,497.75 530.625,497.25 529.375,497.25 528.0,497.75 527.0,499.25 526.375,501.5 526.5,503.375"/>
    <polyline points="526.5,503.875 527.0,505.875 528.875,508.75 530.875,510.375 533.625,511.625"/>
    <polyline points="534.125,511.875 540.75,513.625 553.0,515.125"/>
    <polyline points="554.125,515.25 573.375,516.125 589.875,515.75"/>
    <polyline points="591.75,515.75 606.625,514.125 615.625,511.875 618.75,510.5 622.5,508.125 624.0,506.0 624.5,503.5 624.25,502.125 622.375,499.125"/>
    <polyline points="620.625,497.625 615.5,494.375 607.75,491.375 602.75,490.125 590.875,488.375 584.125,488.0 576.75,488.0 561.375,489.625 553.625,491.25 546.0,493.375 538.625,495.875 531.625,498.75 519.375,505.125 514.125,508.5 509.5,511.875 505.5,515.25 499.25,521.25 493.25,528.375"/>
    <polyline points="492.0,530.125 488.375,535.875 488.25,530.75 487.375,526.875"/>
    <polyline points="487.125,526.25 485.375,522.625 482.125,519.0 479.0,516.75 473.375,513.75"/>
    <polyline points="472.5,513.375 462.875,509.5 445.25,503.0 437.875,499.875"/>
    <polyline points="435.875,499.0 425.25,493.625 413.375,485.875 408.375,481.75 403.125,476.75 395.125,467.5 392.5,463.625 387.375,454.875 385.0,449.625 380.625,437.5 378.875,430.375 377.375,422.375"/>
    <polyline points="376.25,413.625 375.75,403.875 376.0,393.125 377.0,381.25 379.125,368.625 382.5,355.0 387.25,340.75 393.625,326.25 401.875,312.125 412.125,298.875 424.0,287.375 437.625,278.625 452.5,273.375 468.0,272.25 483.5,275.5 498.5,283.125 512.25,294.5 524.5,308.75 534.875,325.125 543.625,342.5 550.5,360.125 556.0,377.25 560.125,393.5 563.125,408.625 565.25,422.375 566.75,434.625"/>
    <polyline points="567.75,445.5 568.75,463.5 568.875,470.75 568.375,497.875 568.625,506.5 569.5,510.375 570.875,513.125 573.75,515.75 575.625,516.75"/>
    <polyline points="576.625,517.25 581.375,518.875 588.75,520.75 606.375,523.875 624.25,526.625"/>
    <polyline points="627.125,527.125 646.125,530.5 657.0,532.875 664.625,534.875 676.625,538.625 684.875,542.0 689.0,544.0 693.125,546.25 700.875,551.625 704.25,554.875 707.25,558.625 709.625,562.625 711.0,567.125 711.125,571.875"/>
    <polyline points="709.625,576.875 706.0,582.0 699.75,586.625 690.375,590.5 677.625,593.0 661.625,593.375 642.625,591.125 621.5,585.875 599.375,577.625 577.5,566.625 557.125,553.5 538.75,539.25 523.0,524.625 509.75,510.125 499.125,496.5 490.625,483.875 484.0,472.5 478.875,462.5 472.25,446.0 470.25,439.5 468.125,429.375 467.625,425.5 467.625,419.875"/>
    <polyline points="468.0,418.0 469.125,415.5 469.75,414.875 471.375,414.625 473.0,415.5 474.5,417.125 476.5,420.625 478.125,425.0 479.125,429.75 479.5,434.5 479.125,440.375"/>
    <polyline points="478.875,441.75 478.375,444.375 476.625,448.875 474.875,451.625 473.5,453.125 470.5,455.5 467.875,456.625 464.125,457.25 461.0,457.125"/>
    <polyline points="460.0,456.875 456.75,456.0 453.375,454.5 448.875,451.375 444.375,446.875 440.375,440.75 437.75,435.125 436.375,430.875 435.375,426.125"/>
    <polyline points="435.0,423.625 434.75,421.0 435.0,412.625 435.375,409.75 436.75,403.875 438.875,398.125 441.875,392.875 443.75,390.375 448.0,386.25 450.375,384.625 455.5,382.375 458.25,381.875 461.125,381.75 466.875,382.875 469.75,384.125 472.625,385.625 477.875,390.0"/>
    <polyline points="480.375,392.625 484.75,398.75 486.75,402.125 490.125,409.125 492.75,416.375 495.375,427.0 496.375,433.75 497.0,445.625 496.125,455.375 495.375,459.5 493.75,464.875"/>
    <polyline points="493.125,466.375 491.25,470.5 489.0,473.75 486.5,476.5 483.875,478.625 480.0,480.75 477.875,481.5 472.25,482.625 469.875,482.75"/>
    <polyline points="468.625,482.75 464.75,482.5 457.625,481.125 449.875,478.375 446.625,476.875 443.125,475.0 437.75,471.5 434.125,468.625 428.625,463.375"/>
    <polyline points="426.75,461.25 423.125,456.625 419.625,451.25 416.375,444.875 413.5,437.375 411.125,428.625 410.25,423.875 409.25,413.125 409.625,401.0 410.5,394.625 411.75,387.875 413.625,380.875 416.125,374.0 419.25,367.0 423.0,360.25 427.375,354.0 432.5,348.25 438.25,343.25 444.625,339.375"/>
    <polyline points="451.375,336.625 458.5,335.25 465.75,335.375 473.125,337.125 480.25,340.25 487.125,344.75 493.5,350.5 499.5,357.25 504.75,364.75 509.5,372.875 513.5,381.25 520.0,398.25 524.375,414.5 525.875,422.0 528.0,435.75 529.125,447.625 529.625,457.625 529.5,473.0"/>
    <polyline points="529.375,476.0 527.875,497.375 528.125,502.5 529.375,506.5"/>
    <polyline points="529.625,506.875 531.5,509.25 534.0,510.875 536.125,511.875 541.875,513.5"/>
    <polyline points="542.625,513.625 553.5,515.125 569.625,516.0"/>
    <polyline points="571.125,516.125 585.625,516.125 598.375,515.375 608.0,514.125 615.375,512.375"/>
    <polyline points="617.0,511.75 620.25,510.5 623.875,507.875 625.375,505.625 625.75,504.375 625.375,501.625 623.25,498.5 618.875,495.25 611.875,492.0 607.25,490.5 602.0,489.25 596.0,488.25 589.25,487.625 582.125,487.375 574.375,487.5 566.5,488.25 558.375,489.625 550.375,491.375"/>
    <polyline points="542.5,493.75 535.125,496.5 528.125,499.625 521.75,502.875 516.0,506.375 510.875,510.0 502.625,516.75 499.375,520.0 492.625,527.875 487.0,536.625 486.875,535.375"/>
    <polyline points="486.875,534.875 486.75,531.75 486.25,529.0 485.125,525.75 482.875,522.125 480.25,519.5"/>
    <polyline points="479.625,519.0 474.625,515.75 468.125,512.625 454.375,507.375"/>
    <polyline points="452.875,506.875 435.375,499.75 420.125,491.625 412.75,486.625 407.625,482.5 402.375,477.625 399.75,474.75"/>
    <polyline points="397.0,471.75 391.625,464.5 389.0,460.375 384.0,450.5 381.625,444.75 379.5,438.375 377.625,431.125 376.125,423.125 375.0,414.25 374.375,404.5 374.5,393.625 375.5,381.625 377.625,368.75 380.875,354.875 385.625,340.375 392.125,325.5 400.5,310.875 410.875,297.25 423.125,285.375 437.0,276.25 452.125,270.75 468.0,269.625 484.0,273.0 499.25,280.75"/>
    <polyline points="513.375,292.5 525.875,307.25 536.5,324.125 545.25,342.0 552.375,360.0 557.75,377.5 561.875,394.125 564.875,409.375 567.0,423.25 568.5,435.75 570.0,456.375 570.25,464.75 570.375,478.375 569.75,503.75 570.5,510.0"/>
    <polyline points="570.75,511.125 571.625,513.0 573.5,515.125 578.0,517.75 587.0,520.5 601.25,523.25"/>
    <polyline points="603.375,523.625 628.5,527.875 651.0,532.5 669.5,537.875 677.25,540.875 681.125,542.75"/>
    <polyline points="685.0,544.75 692.25,549.5 695.625,552.375 698.625,555.5 701.125,559.0 702.875,562.75 703.75,566.875 703.25,571.25 701.25,575.75 697.125,580.125 690.625,584.0 681.375,587.0 669.375,588.625 654.375,588.375 637.125,585.875 618.125,580.75 598.375,573.125 578.875,563.125 560.375,551.625 543.75,539.0 529.25,526.0 517.0,513.125 506.875,500.875 498.625,489.625 492.0,479.375"/>
  </g>
</svg>
