<?xml version="1.0" encoding="utf-8" ?>
<svg xmlns="http://www.w3.org/2000/svg" xmlns:cc="http://creativecommons.org/ns" xmlns:dc="http://purl.org/dc/elements/1.1/" xmlns:ev="http://www.w3.org/2001/xml-events" xmlns:inkscape="http://www.inkscape.org/namespaces/inkscape" xmlns:rdf="http://www.w3.org/1999/02/22-rdf-syntax-ns" xmlns:sodipodi="http://sodipodi.sourceforge.net/DTD/sodipodi-0.dtd" xmlns:xlink="http://www.w3.org/1999/xlink" baseProfile="tiny" height="27.09333333cm" version="1.2" viewBox="0 0 1024.0 1024.0" width="27.09333333cm">
  <metadata>
    <rdf:RDF>
      <cc:Work>
        <dc:format>image/svg+xml</dc:format>
        <dc:source>vpype read './original_svgs/Strange Attractors #127.svg' linemerge linesimplify write './Strange Attractors #127.svg'
</dc:source>
        <dc:date>2024-08-05T01:35:28.476908</dc:date>
      </cc:Work>
    </rdf:RDF>
  </metadata>
  <defs/>
  <g fill="none" id="layer1" inkscape:groupmode="layer" inkscape:label="1" stroke="black" stroke-width="0.7mm" style="display:inline">
    <polyline points="710.125,520.625 714.25,507.625 719.875,495.875 726.75,484.75 734.75,473.5 754.125,448.375 765.125,433.5 776.625,416.25 788.25,396.625 799.0,374.375 807.75,350.0 812.5,324.75 810.875,301.0 800.875,282.375 780.875,272.875 751.5,275.5 715.625,291.125 677.25,317.75 640.375,351.625 608.0,388.25 581.375,424.25 560.5,457.625 545.125,487.125 534.25,512.75 527.25,534.375"/>
    <polyline points="523.25,552.5 521.75,567.5 522.0,579.75 523.875,589.625 526.875,597.375 530.625,603.125 534.875,607.125 539.25,609.5 543.75,610.5 548.125,610.125 552.25,608.5 555.875,605.875 558.875,602.5 561.5,598.375 563.5,593.875 565.0,588.875 565.875,583.75 566.375,578.5 566.375,573.25 566.125,568.25 565.375,563.375 563.375,554.375 560.625,546.625 559.0,543.125"/>
    <polyline points="557.375,540.0 552.375,532.25 549.0,528.375 544.125,523.875 541.0,521.625 535.375,518.5 529.375,516.25 523.375,514.875"/>
    <polyline points="522.5,514.625 516.375,513.75 506.75,513.0"/>
    <line x1="506.25" x2="492.875" y1="513.0" y2="512.25"/>
    <line x1="492.25" x2="471.375" y1="512.25" y2="510.625"/>
    <polyline points="470.375,510.5 460.375,509.375 451.375,508.0 439.0,505.5 430.875,503.5"/>
    <polyline points="428.75,502.875 417.0,499.0 406.625,494.75 398.125,490.5 386.0,483.0 376.625,475.625 370.375,469.75 364.375,463.0 358.875,455.5"/>
    <polyline points="356.5,451.5 354.375,447.5 352.75,443.375 351.5,439.25 350.75,435.125 350.625,431.375 351.25,427.875 352.625,424.75 354.75,422.25 357.75,420.5 361.625,419.375 366.25,419.25 371.625,420.0 377.625,421.75 384.125,424.375 391.0,427.75 405.125,436.5 412.25,441.625 426.0,452.5 438.5,463.375 454.375,478.125"/>
    <polyline points="458.875,482.5 476.875,498.875 482.375,503.25 489.25,508.0 494.875,511.0 499.75,513.0 505.125,514.375 511.0,515.0"/>
    <polyline points="512.125,515.0 521.0,514.875 535.875,513.625"/>
    <polyline points="536.875,513.5 553.875,511.75 569.0,509.625"/>
    <polyline points="570.75,509.375 582.375,507.375 591.5,505.375 607.5,501.125 617.0,498.0 623.875,495.25 631.375,492.125 639.5,488.25"/>
    <polyline points="643.875,486.0 648.375,483.5 663.0,474.125 668.25,470.25 679.375,461.125 690.875,449.875 696.75,443.375 702.625,436.25 708.125,428.5 713.375,420.125 718.0,411.375 721.625,402.375 724.125,393.5 725.0,384.875 724.0,377.375 720.75,371.25 715.125,367.125 707.0,365.625 696.625,367.0 684.375,371.375 670.75,378.625 656.5,388.25"/>
    <polyline points="642.125,399.625 628.125,412.25 615.0,425.375 602.75,438.5 582.0,463.0 548.125,506.5 539.5,516.875 532.5,524.375 526.625,529.375 521.5,532.75 519.125,533.875 514.625,535.5 506.375,536.625"/>
    <polyline points="504.5,536.625 498.75,536.375 473.375,533.625 454.125,532.75"/>
    <polyline points="451.75,532.75 439.75,533.0 426.875,534.0 418.625,535.125 410.25,536.75 404.625,538.25 396.125,541.5 390.75,544.5 388.125,546.375 385.75,548.625"/>
    <polyline points="383.5,551.125 381.5,554.125 379.875,557.5 378.625,561.5 377.875,566.25 377.75,571.75 378.5,578.25 380.25,585.875 383.5,594.875 388.375,605.375 395.375,617.5 405.0,631.5 417.75,647.375 434.125,664.75 454.625,683.25 479.375,701.5 507.75,717.875 538.875,730.375 570.75,736.625 601.125,735.0 627.875,724.75 649.25,706.625 664.875,682.875 675.0,655.625 680.75,627.375 683.375,600.0"/>
    <polyline points="683.875,574.5 683.0,551.5 681.375,531.375 679.375,513.875 677.25,498.875 675.0,486.25 672.75,475.625 670.5,466.75 668.0,459.5 665.375,453.625 662.625,449.125 659.625,445.625 656.375,443.25 652.875,441.625 649.125,441.0 645.25,441.0 641.125,441.75 636.875,443.0 632.625,444.75 624.0,449.375 615.5,455.0 603.625,464.125"/>
    <polyline points="600.0,467.125 570.875,491.5 564.5,496.25 555.25,502.375"/>
    <polyline points="554.625,502.75 553.0,503.875 552.75,504.25 553.0,504.875 554.5,505.125 559.25,505.0"/>
    <polyline points="560.0,504.875 567.0,504.25 578.0,502.5 586.75,500.625 597.375,497.875"/>
    <polyline points="599.625,497.125 604.625,495.625 615.75,491.5 628.5,485.75 635.625,482.0 643.25,477.375 655.625,469.0 664.375,461.875 673.25,453.5 682.125,443.75 690.25,432.625"/>
    <polyline points="693.75,426.75 696.875,420.625 699.25,414.625 700.75,408.75 701.25,403.125 700.625,398.25 698.625,394.25 695.25,391.375 690.375,390.0 684.125,390.125 676.625,391.875 668.125,395.375 658.875,400.375 649.125,406.75 639.25,414.25 629.375,422.5 619.875,431.125 610.75,439.875 602.25,448.625 587.125,464.875 564.0,490.625 559.375,495.375"/>
    <polyline points="555.25,499.625 548.0,506.625 541.625,511.75 533.625,517.0 528.875,519.125 522.625,521.125 515.0,522.25 508.0,522.375 499.875,521.875"/>
    <line x1="498.25" x2="455.125" y1="521.75" y2="516.875"/>
    <polyline points="453.125,516.5 434.875,513.75 427.0,512.25 409.25,507.875 395.625,503.25 388.0,500.125 380.0,496.375"/>
    <polyline points="375.75,494.125 371.375,491.75 362.25,485.875 352.625,478.5 347.5,474.125 337.25,463.875 332.125,457.75 327.125,451.125 322.375,443.875 317.875,436.125 314.0,427.75 310.875,419.0 308.875,410.125 308.25,401.5 309.25,393.375 312.375,386.375 317.625,381.125 325.25,377.875 335.0,377.375 346.75,379.5 359.875,384.5 374.0,391.875 388.5,401.375"/>
    <polyline points="402.75,412.375 416.375,424.25 429.0,436.375 440.5,448.25 459.875,470.25 494.0,513.375 500.375,520.875 505.25,526.0 511.0,530.375 514.25,531.75 518.5,532.5 521.25,532.375"/>
    <polyline points="522.5,532.125 527.625,531.0 541.25,527.125 558.375,523.75"/>
    <polyline points="560.125,523.5 599.0,518.25 620.25,514.625"/>
    <polyline points="623.75,513.875 635.0,511.375 647.75,507.75 657.375,504.375 668.0,500.125 679.875,494.375 686.5,490.875 700.875,481.75 708.875,476.0 717.5,469.25 726.625,461.125 736.375,451.625 746.75,440.25 757.5,427.0 768.5,411.375 779.0,393.5 788.5,373.375 795.75,351.75"/>
    <polyline points="799.0,329.875 796.5,309.75 786.625,294.5 768.5,287.125 742.5,290.0 711.0,303.625 677.125,326.625 644.125,355.875 614.5,387.875 589.375,420.0 569.125,450.125 553.375,477.25 541.75,500.875 533.375,521.0 527.75,538.125 524.25,552.375 522.625,564.0 522.375,573.625 523.0,581.25 524.625,587.125 526.625,591.625 529.125,594.875 531.75,596.875 534.5,597.75 537.25,597.875 539.75,597.0"/>
    <polyline points="542.125,595.625 544.125,593.5 545.875,591.0 547.25,588.0 549.0,581.375 549.5,574.125 548.875,567.0 548.125,563.5 546.25,557.0 545.0,554.0 543.75,551.125 540.875,546.125 536.125,539.75 531.125,534.875 526.0,531.125"/>
    <polyline points="524.375,530.0 517.75,526.75 509.875,523.875 499.375,521.375 486.0,519.25"/>
    <polyline points="484.5,519.125 451.5,514.875 438.25,512.625"/>
    <polyline points="435.875,512.25 425.625,510.125 411.25,506.25 401.5,503.0 394.5,500.25 387.125,496.875 375.125,490.375 366.5,484.75 357.5,477.75 348.125,469.25"/>
    <polyline points="343.375,464.25 334.125,452.75 329.875,446.375 325.875,439.375 322.375,432.0 319.5,424.375 317.625,416.625 316.875,409.0 317.5,401.875 319.75,395.625 323.875,390.625 330.0,387.25 337.875,386.0 347.5,387.0 358.625,390.25 370.625,395.75 383.25,403.0 396.125,411.875 408.5,421.75 420.375,432.25 431.5,442.75 450.75,462.875 466.0,480.5"/>
    <polyline points="472.375,488.0 487.125,505.5 494.375,513.5 500.125,519.25 506.875,524.5 512.375,527.125 515.625,527.875 521.5,528.0 529.875,526.625"/>
    <polyline points="531.25,526.375 545.625,523.25 563.875,520.25 571.625,519.25"/>
    <polyline points="573.625,518.875 594.5,515.75 608.875,513.125 618.625,510.875 629.625,508.0 637.75,505.5 651.5,500.375"/>
    <polyline points="656.5,498.25 667.375,493.0 679.625,486.125 686.25,481.875 700.875,471.25 708.875,464.625 717.25,456.875 726.125,447.875 735.25,437.375 744.625,425.375 753.875,411.75 762.625,396.375 770.125,379.625 775.625,362.0 777.875,344.5 775.625,328.75 767.875,316.75 753.875,310.375 734.125,311.375 709.75,320.25 682.75,336.375 655.375,358.125 629.625,383.0"/>
    <polyline points="606.5,409.125 586.75,434.5 570.5,458.125 557.5,479.375 547.125,498.0 539.25,514.0 533.25,527.5 528.875,538.875 525.75,548.25 522.25,562.25 521.125,571.0 521.375,576.125 521.875,577.5 522.875,578.75 523.875,578.25 524.5,576.5 524.75,573.875 524.5,570.75"/>
    <polyline points="524.125,569.125 522.5,564.0 518.75,557.5 515.125,553.125 511.0,549.375 506.375,546.25 499.875,542.875 491.125,539.875"/>
    <polyline points="489.375,539.375 478.125,537.25 464.0,536.125 453.125,536.125 446.375,536.5 436.875,537.5"/>
    <polyline points="434.5,537.875 427.125,539.375 422.25,540.75 417.25,542.5 410.125,546.125 405.75,549.5 403.75,551.5 402.0,553.875 400.375,556.5 399.0,559.5 398.0,563.0 397.375,567.0 397.25,571.625 397.875,576.875 399.125,582.875 401.375,589.875 404.875,597.75 409.75,606.75 416.25,617.0"/>
    <polyline points="424.875,628.25 435.75,640.625 449.125,653.75 465.25,667.25 484.0,680.25 505.125,691.875 528.0,700.75 551.5,705.875 574.375,706.125 595.375,700.875 613.375,690.375 627.875,675.375 638.625,657.125 645.875,637.125 650.25,616.375 652.375,596.25 652.875,577.25 652.25,559.875 651.0,544.375 649.375,530.625 645.375,508.625 641.5,492.5 637.75,481.25"/>
    <polyline points="635.875,477.0 632.375,470.875 630.75,468.625 629.125,467.0 625.75,464.875 624.125,464.25 621.0,463.875 616.375,464.75 611.875,466.75 609.125,468.25 605.375,470.875 600.25,475.0"/>
    <polyline points="599.375,475.75 595.625,479.625 594.375,481.875 594.5,483.0 595.625,483.5 599.125,483.125"/>
    <polyline points="599.875,483.0 608.25,480.25 620.0,474.5 626.75,470.25 635.625,463.5"/>
    <polyline points="637.375,462.0 642.375,457.125 646.625,452.0 648.875,448.625 650.875,443.875 651.125,442.5 650.875,440.125 649.625,438.5 648.5,438.125 647.25,437.875 643.75,438.25 636.875,440.875 631.375,443.875"/>
    <polyline points="628.5,445.75 616.5,454.375 607.75,461.5 597.25,470.625 574.875,490.875"/>
    <polyline points="574.0,491.625 570.375,495.5 570.0,496.75 570.375,497.25 571.75,497.75 576.625,497.5"/>
    <polyline points="577.625,497.375 587.375,495.625 601.375,491.625 612.75,487.25 623.25,482.375"/>
    <polyline points="626.125,480.875 632.125,477.5 641.75,471.25 648.5,466.25 655.375,460.5 665.5,450.375 668.75,446.625 674.625,438.625 677.125,434.5 681.0,426.125 682.125,422.125 682.625,418.5 682.375,415.125 681.375,412.375 679.5,410.125 676.75,408.75 673.125,408.25"/>
    <polyline points="668.75,408.625 663.5,410.0 657.75,412.375 651.375,415.75 644.75,419.75 637.875,424.5 630.875,429.875 617.125,441.375 604.375,453.25 574.375,483.25 563.625,493.5 555.0,500.75 547.875,505.625"/>
    <polyline points="545.75,506.875 538.5,510.5 532.375,512.375 524.0,513.75 514.875,513.875"/>
    <line x1="514.125" x2="497.5" y1="513.875" y2="513.0"/>
    <line x1="496.875" x2="476.875" y1="513.0" y2="511.5"/>
    <polyline points="475.75,511.375 466.625,510.5 455.625,509.0 440.125,506.0"/>
    <polyline points="438.125,505.625 423.0,501.5 410.375,496.875 402.125,493.0 396.25,489.875 387.0,484.25 380.625,479.625 371.0,471.25"/>
    <polyline points="367.875,468.125 361.875,461.0 359.125,457.25 354.125,449.0 352.25,444.75 349.625,436.375 349.25,432.25 349.5,428.5 350.5,425.0 352.375,422.125 355.0,419.875 358.625,418.5 363.0,417.875 368.25,418.25 374.125,419.625 380.625,421.875 387.5,425.125 394.75,429.125 402.0,433.625 409.375,438.75 416.625,444.25 430.25,455.5"/>
    <polyline points="436.625,461.125 470.125,492.625 482.375,503.125 487.25,506.75 495.25,511.375 501.75,513.875 507.125,515.0"/>
    <polyline points="508.375,515.125 516.25,515.5 533.875,514.125"/>
    <polyline points="534.875,514.0 553.0,512.125 566.375,510.375"/>
    <polyline points="568.125,510.125 588.0,506.5 606.125,501.875 618.875,497.625 626.0,494.875 633.625,491.5"/>
    <polyline points="637.75,489.5 651.0,482.375 660.875,476.125 666.125,472.375 677.125,463.75 688.75,452.875 700.625,439.75 706.375,432.125 711.875,424.0 716.875,415.25 721.125,406.25 724.25,397.0 726.0,388.0 726.0,379.75 723.75,372.75 719.125,367.5 712.0,364.75 702.5,364.75 690.75,367.875 677.5,373.875"/>
    <polyline points="663.125,382.75 648.5,393.625 634.0,406.125 620.25,419.375 607.5,432.75 595.875,445.875 585.5,458.25 576.25,469.75 544.75,510.75 540.5,515.875 533.125,523.875 527.125,529.5 521.875,533.125 517.25,535.375 515.0,536.125 508.875,537.25"/>
    <polyline points="506.875,537.375 499.125,537.25 471.875,534.375 457.0,533.75"/>
    <polyline points="454.75,533.75 438.25,534.375 428.0,535.375 414.625,538.0 406.5,540.5 401.25,542.875 396.125,546.0 391.5,550.125"/>
    <polyline points="389.5,552.625 387.75,555.625 386.25,559.0 385.125,562.875 384.5,567.5 384.625,572.875 385.5,579.125 387.375,586.5 390.5,595.0 395.25,604.875 401.875,616.25 410.875,629.125 422.625,643.625 437.625,659.375 456.25,676.0 478.375,692.375 503.875,707.375 531.75,719.0 560.625,725.5 588.5,725.5 613.75,718.0 634.625,703.625 650.5,683.5 661.5,659.875 668.375,634.5 671.875,609.375"/>
    <polyline points="673.125,585.375 672.75,563.5 671.5,543.875 669.75,526.75 667.75,511.875 665.75,499.25 663.625,488.625 661.375,479.625 659.25,472.125 657.0,466.0 654.75,461.0 652.375,457.0 650.0,454.0 647.375,451.75 644.625,450.25 641.875,449.375 638.875,449.125 635.875,449.25 632.75,449.875 626.375,452.125 619.875,455.5 610.625,461.5"/>
    <polyline points="607.625,463.75 592.125,476.0 574.75,490.75 569.5,495.75"/>
    <polyline points="569.25,496.125 568.75,497.5 569.0,497.875 570.25,498.375 574.875,498.25 582.5,497.125"/>
    <polyline points="583.875,496.75 595.125,494.0 605.375,490.625 612.5,487.875 617.625,485.625 629.0,479.75 635.25,476.125 641.875,471.75"/>
    <polyline points="645.25,469.375 655.75,460.875 662.75,454.25 666.25,450.625 672.75,442.625 678.25,434.25 680.625,429.875 682.375,425.625 683.625,421.5 684.125,417.625 684.0,414.125 683.0,411.125 681.125,408.75 678.375,407.25 674.625,406.75 670.0,407.125 664.75,408.5 658.625,411.0 652.125,414.375 645.25,418.625 638.125,423.625"/>
    <polyline points="630.875,429.125 623.75,435.0 610.0,447.375 597.625,459.375 573.125,484.25 559.125,497.25 551.0,503.625 546.375,506.75 542.25,509.0 535.125,512.0"/>
    <polyline points="533.625,512.5 527.875,513.75 520.75,514.5 507.125,514.375 487.125,512.875"/>
    <line x1="506.5" x2="486.875" y1="514.125" y2="512.75"/>
    <polyline points="486.0,512.75 465.5,510.75 457.0,509.5 466.875,511.0 486.25,512.875"/>
    <polyline points="455.375,509.25 439.625,506.375 426.875,503.125 417.125,500.0 409.25,496.875 400.75,493.0 412.0,498.125 424.5,502.5 437.625,506.0 447.125,508.0 455.5,509.375"/>
    <polyline points="363.375,416.0 358.5,416.125 354.375,417.375 351.25,419.375 349.0,422.25 347.75,425.625 347.125,429.5 347.375,433.75 348.25,438.125 351.625,447.0 356.5,455.5 359.375,459.5 362.375,463.375 368.75,470.375 375.375,476.375 382.0,481.625 391.625,488.0 397.75,491.5 388.5,486.0 382.0,481.5 375.5,476.375 369.0,470.25 362.625,463.375 359.625,459.5 354.125,451.375 351.875,447.0 350.0,442.625 348.625,438.125 347.75,433.875 347.5,429.625 348.0,425.875 349.375,422.5 351.625,419.625 354.75,417.625 358.75,416.5 363.625,416.25"/>
    <polyline points="369.375,417.125 375.75,418.875 382.75,421.75 390.0,425.375 405.125,434.875 412.75,440.375 420.125,446.25 433.875,458.0 469.375,491.625 479.375,500.625 484.875,505.0 493.75,510.75"/>
    <polyline points="495.625,511.75 502.25,514.375 506.625,515.375 512.875,516.0 516.25,516.0 526.625,515.25"/>
    <line x1="527.625" x2="556.5" y1="515.25" y2="512.0"/>
    <polyline points="558.0,511.875 572.875,509.75 585.125,507.5 597.25,504.75 611.625,500.625"/>
    <polyline points="614.875,499.5 629.0,494.125 637.0,490.5 645.75,486.0 655.125,480.5 665.375,473.625 676.5,465.125 682.25,460.125 694.25,448.25 700.25,441.375 706.25,433.875 711.875,425.625 717.125,416.875 721.75,407.75 725.25,398.25 727.5,389.0 727.875,380.25"/>
    <polyline points="726.125,372.625 722.0,366.75 715.25,363.375 705.875,362.75 694.375,365.25 681.0,370.875 666.375,379.5 651.375,390.375 636.5,403.0 622.375,416.5 609.125,430.25 597.125,443.75 586.375,456.625 568.5,479.25 549.375,504.75 540.125,516.375 532.875,524.75 529.625,527.875 524.125,532.5 521.625,534.125"/>
    <polyline points="519.25,535.5 512.625,537.875 506.625,538.625 497.125,538.25 478.0,536.0 470.0,535.5"/>
    <polyline points="467.875,535.375 452.75,535.125 438.625,536.0 433.75,536.625 423.625,538.5 418.5,539.875 413.5,541.625 408.5,544.0"/>
    <polyline points="406.0,545.375 401.5,548.75 397.375,553.125 394.25,559.0 392.5,566.75 392.5,571.625 393.0,577.125 394.5,583.625 397.0,591.0 400.75,599.5 406.125,609.25 413.375,620.375 422.75,632.625 434.875,646.125 449.75,660.5 467.75,675.125 488.625,689.0 512.125,701.125 537.25,709.875 562.625,714.0 586.875,712.25 608.5,704.375"/>
    <polyline points="626.375,690.875 640.125,672.875 649.875,651.875 656.0,629.625 659.25,607.375 660.5,586.125 660.375,566.5 659.25,548.875 657.625,533.375 655.75,519.875 653.75,508.25 651.625,498.375 649.625,490.0 645.625,477.125 643.75,472.375 639.875,465.375 635.875,461.125 633.875,459.875 629.875,458.5 625.75,458.5 623.625,459.0"/>
    <polyline points="621.5,459.625 617.25,461.25 613.25,463.5 605.625,468.5 597.625,474.75 591.625,480.125 586.75,485.25"/>
    <polyline points="586.375,485.875 585.375,487.875 585.75,488.625 586.625,489.125 588.125,489.25 592.0,488.75 598.75,487.0"/>
    <polyline points="600.125,486.625 607.75,483.75 615.125,480.5 621.25,477.375 630.25,471.875 639.75,465.0 646.875,458.75 651.375,454.125"/>
    <polyline points="653.5,451.625 659.0,444.125 661.625,439.125 662.375,436.75 663.125,432.375 662.75,430.625 662.125,429.125 661.0,428.0 659.375,427.25 657.25,426.875 651.875,427.625 648.625,428.75 641.125,432.375 637.0,434.75 628.5,440.5 619.75,447.125 611.25,454.25"/>
    <polyline points="607.125,457.75 573.625,488.25 564.5,495.625 554.75,502.25"/>
    <polyline points="554.0,502.625 550.75,504.75 550.5,505.5 551.75,505.875 554.625,505.875"/>
    <polyline points="555.25,505.875 560.875,505.5 571.375,504.125 586.375,501.25"/>
    <polyline points="588.25,500.75 597.0,498.5 609.75,494.375 618.625,490.875 632.0,484.625 643.375,478.125 656.0,469.625 669.375,458.375"/>
    <polyline points="674.0,454.0 683.0,444.0 687.375,438.5 691.5,432.625 695.25,426.5 698.5,420.25 701.0,414.0 702.625,407.75 703.25,402.0 702.625,396.875 700.75,392.625 697.25,389.5 692.25,388.0 685.875,388.0 678.125,389.875 669.25,393.5 659.625,398.75 649.5,405.5 639.25,413.25 629.125,421.75 619.25,430.75 609.875,439.875 601.25,448.875 585.75,465.75"/>
    <polyline points="579.125,473.25 567.5,486.375 553.75,501.125 546.375,508.125 540.125,513.25 537.25,515.25 534.625,517.0 529.625,519.5 523.0,521.875 517.0,523.0 506.25,523.375"/>
    <polyline points="504.5,523.25 494.5,522.5 461.125,518.75"/>
    <polyline points="459.125,518.5 436.625,515.375 417.5,511.625 401.125,507.25 390.125,503.375"/>
    <polyline points="386.125,501.75 377.875,498.0 369.0,493.25 359.375,487.25 354.375,483.75 343.875,475.25 333.0,464.5 327.5,458.125 322.0,451.0 316.75,443.25 311.875,434.625 307.5,425.5 304.0,415.875 301.625,406.0 300.875,396.25 302.0,387.25 305.5,379.375 311.5,373.5 320.25,370.25 331.5,370.0 344.75,372.875"/>
    <polyline points="359.75,379.125 375.5,388.125 391.5,399.375 407.0,412.0 421.5,425.5 434.875,439.0 446.75,452.0 457.125,464.375 466.25,475.625 474.0,485.75 501.5,523.5 506.375,529.375 510.125,533.0 513.25,535.25 515.875,536.25 518.25,536.5"/>
    <polyline points="519.5,536.5 524.0,535.375 540.25,529.375 552.0,526.5"/>
    <polyline points="553.625,526.25 569.25,523.75 606.625,519.375"/>
    <polyline points="609.625,519.0 633.0,515.25 645.0,512.625 653.875,510.25 663.75,507.125 674.625,503.125 687.0,497.5 701.0,489.875 708.75,485.0 717.25,479.125 726.25,472.125 736.125,463.625 746.75,453.5"/>
    <polyline points="758.0,441.25 770.0,426.625 782.375,409.125 794.5,388.625 805.5,365.375 813.75,339.75 817.25,313.75 813.5,290.125 799.875,273.0 775.875,266.75 742.5,274.125 703.625,294.875 663.75,326.0 627.0,362.875 595.625,401.25 570.625,437.875 551.625,471.0 538.125,500.0 529.125,524.875 523.75,545.75 521.25,563.125 521.25,577.5 522.875,589.0 526.0,598.25 530.125,605.25 534.875,610.25"/>
    <polyline points="540.0,613.375 545.25,614.875 550.375,614.75 555.125,613.375 559.375,610.625 563.125,607.0 566.25,602.5 568.625,597.375 570.375,591.875 571.625,586.125 572.25,580.25 572.375,574.5 572.0,568.75 570.5,558.25 569.25,553.5 566.375,544.875 564.875,541.25 561.5,534.75 558.0,529.625 553.0,523.75"/>
    <polyline points="551.375,522.25 545.5,517.75 539.375,514.75 532.875,512.75 527.375,512.0"/>
    <polyline points="527.0,511.875 522.75,511.625 528.0,511.5"/>
    <line x1="528.375" x2="542.75" y1="511.5" y2="510.75"/>
    <polyline points="543.5,510.625 559.375,509.125 574.75,506.875"/>
    <polyline points="576.5,506.5 580.375,505.875 595.75,502.375 603.625,500.125 615.5,496.125 622.125,493.625 633.125,488.625 641.125,484.5 649.75,479.375"/>
    <polyline points="654.375,476.5 664.125,469.625 669.125,465.625 679.75,456.25 685.125,450.875 695.75,438.5 700.75,431.625 705.5,424.25 709.75,416.5 713.25,408.625 715.625,400.75 716.875,393.125 716.375,386.25 714.125,380.5 709.875,376.375 703.625,374.25 695.25,374.375 685.25,377.0 673.875,382.125 661.5,389.5 648.75,398.625 636.0,409.125 623.75,420.375"/>
    <polyline points="612.125,431.875 601.375,443.375 591.625,454.375 551.375,503.0 542.875,512.5 539.25,516.125 535.875,519.25 529.875,524.0 527.25,525.75 522.25,528.25 519.875,529.25 515.375,530.375 509.25,531.25 505.25,531.25"/>
    <polyline points="503.25,531.25 495.625,530.75 474.375,528.375 452.875,526.625"/>
    <polyline points="450.5,526.5 402.125,523.875 387.625,522.875 371.25,521.25"/>
    <polyline points="366.75,520.625 357.5,519.375 347.375,517.5 336.5,514.875 324.5,511.25 311.25,505.875 303.875,502.25 296.125,497.875 287.75,492.5 278.75,485.875 268.875,477.625 258.375,467.25 247.0,454.5 234.75,438.625 222.125,419.125 209.625,395.375 198.375,367.375 190.375,335.875 188.75,303.125 196.875,273.5 217.875,252.875"/>
    <polyline points="252.5,247.75 297.875,260.875 347.5,290.875 395.125,331.875 436.0,377.25 467.875,421.625 490.875,462.125 506.0,497.375 514.375,527.25 517.125,552.25 515.625,572.875 510.625,589.625 503.0,602.625 493.625,612.25 483.125,618.625 472.25,621.75 461.75,621.875 451.875,619.25 443.125,614.25 435.875,607.25 430.0,599.0 425.5,589.75 422.375,580.0 420.25,570.375 419.125,560.875 418.875,551.875"/>
    <polyline points="419.125,543.625 419.75,536.0 420.75,529.25 423.5,517.875 426.625,509.375 429.875,503.125 433.0,498.75 436.0,495.875 438.75,494.125 441.375,493.125 443.75,492.75 446.75,492.875 449.875,493.625"/>
    <polyline points="450.5,493.875 452.5,495.0 454.125,496.75 454.125,497.25 453.375,497.875 450.5,498.375"/>
    <polyline points="449.875,498.25 448.0,498.25 443.0,497.5 437.875,496.375 429.125,493.75 423.375,491.5"/>
    <polyline points="421.875,490.875 417.125,488.75 408.875,484.125 402.125,479.5 398.875,476.875 394.25,472.5 389.0,466.125 387.125,462.875 385.75,459.625"/>
    <polyline points="385.375,458.125 385.25,455.375 385.5,454.125 386.75,452.25 389.0,450.875 392.25,450.5 394.25,450.625 398.75,451.75 404.0,453.625 412.625,458.0 424.75,465.75 436.0,474.0"/>
    <line x1="438.625" x2="472.75" y1="476.125" y2="502.75"/>
    <polyline points="473.125,503.125 474.375,504.25 474.875,505.375 473.875,506.125 470.125,506.5"/>
    <polyline points="469.5,506.5 462.75,506.125 455.5,505.25 443.5,503.0"/>
    <polyline points="441.875,502.75 435.25,501.125 426.0,498.25 413.25,493.25 403.75,488.5 398.875,485.625 388.75,478.375"/>
    <polyline points="386.25,476.375 378.875,469.375 374.25,464.0 370.25,458.375 367.125,452.375 366.0,449.375 364.875,443.75 364.875,441.125 365.375,438.625 366.375,436.5 367.875,434.875 369.875,433.5 372.5,432.75 375.625,432.375 379.25,432.75 383.375,433.625 387.875,435.0 397.625,439.375 402.875,442.25"/>
    <polyline points="408.125,445.5 418.625,452.75 428.75,460.5 442.375,471.875 460.5,487.75 473.5,498.25 481.25,503.625 487.25,507.0"/>
    <polyline points="488.625,507.625 494.125,509.75 497.625,510.75 502.375,511.625 506.625,512.0"/>
    <line x1="507.0" x2="513.75" y1="512.0" y2="512.125"/>
    <line x1="514.0" x2="519.25" y1="512.125" y2="512.0"/>
    <line x1="519.5" x2="527.75" y1="512.0" y2="511.75"/>
    <line x1="528.125" x2="544.125" y1="511.75" y2="510.75"/>
    <polyline points="545.0,510.75 563.5,508.75 578.375,506.375"/>
    <polyline points="580.375,506.0 593.375,503.125 603.75,500.25 615.625,496.25 625.875,492.125 633.375,488.75 641.375,484.625 650.125,479.5 659.5,473.25"/>
    <polyline points="664.5,469.5 669.625,465.5 680.25,456.125 691.0,444.75 696.375,438.25 701.5,431.25 706.25,423.75 710.5,416.0 713.875,408.0 716.375,400.0 717.5,392.375 717.0,385.5 714.625,379.75 710.25,375.625 703.75,373.5 695.25,373.875 685.0,376.625 673.375,382.0 660.875,389.5 648.0,398.875 635.25,409.5 622.875,420.875 611.25,432.625 600.5,444.125"/>
    <polyline points="590.75,455.25 550.625,503.875 538.625,516.875 532.25,522.5 524.125,527.625 517.125,530.375 510.75,531.5 500.875,531.5"/>
    <polyline points="499.0,531.375 471.75,528.5 447.5,526.75"/>
    <polyline points="445.0,526.625 390.5,524.25 361.625,522.125"/>
    <polyline points="357.0,521.625 342.0,519.625 331.0,517.5 319.0,514.5 305.625,510.0 290.5,503.125 282.125,498.375 273.125,492.5 263.25,485.125 252.5,475.75 240.75,463.875 228.0,448.75 214.25,429.75 200.0,406.0 186.125,376.875 174.5,342.5 168.25,304.5 171.875,267.125 190.125,237.5 225.5,224.5"/>
    <polyline points="275.75,234.0 333.375,265.5 389.375,312.25 437.0,365.125 473.375,417.125 498.625,464.125 513.75,504.875 520.75,539.25 520.875,567.875 515.625,591.375 506.25,610.25 493.75,624.5 479.5,634.25 464.375,639.5 449.625,640.25 436.0,636.875 424.125,629.875 414.375,620.125 406.875,608.25 401.5,595.25 398.0,581.75 396.0,568.625 395.125,556.0 395.25,544.375 396.0,533.75 397.25,524.375"/>
    <polyline points="398.75,516.25 402.5,503.0 406.625,493.75 411.0,487.375 413.125,485.125 415.375,483.375 417.5,482.125 421.625,480.625 425.75,480.375 429.625,480.75 431.625,481.125 436.875,483.0 441.625,485.25 445.625,487.625"/>
    <polyline points="446.875,488.375 454.375,493.75 456.625,495.75 458.375,498.0 458.5,499.0 458.125,499.5"/>
    <polyline points="457.875,499.625 455.75,500.25 452.25,500.25 445.25,499.375 439.625,498.125"/>
    <polyline points="438.375,497.875 427.125,494.375 417.125,490.25 408.0,485.375 400.5,480.375 396.75,477.375"/>
    <polyline points="394.875,475.875 388.125,469.0 385.25,465.25 382.875,461.375 381.875,459.5 380.625,455.75 380.375,454.0 380.625,450.875 381.125,449.5 383.125,447.5 384.625,446.875 388.375,446.375 393.25,447.0 399.125,448.875 402.375,450.25"/>
    <polyline points="405.625,451.875 416.125,457.875 429.875,467.5 460.625,492.0 469.625,498.75"/>
    <polyline points="470.875,499.625 480.625,506.0 481.875,507.125 482.0,507.625 481.375,508.125 480.0,508.375 470.0,508.125"/>
    <polyline points="469.125,508.125 453.75,506.25 444.875,504.625 436.375,502.625"/>
    <polyline points="434.5,502.125 428.625,500.5 417.875,496.75 410.75,493.75 403.25,490.0 398.0,487.0 392.5,483.5 387.0,479.5 378.75,472.5 373.5,467.0"/>
    <polyline points="371.0,464.0 366.5,457.75 364.5,454.5 362.875,451.125 360.375,444.375 359.75,438.125 360.25,435.25 361.25,432.75 362.875,430.75 365.125,429.125 368.0,428.125 371.625,427.75 375.625,428.125 380.375,429.125 385.375,430.75 390.875,433.125 396.5,436.0 402.375,439.375 414.25,447.25 431.125,460.5"/>
    <polyline points="436.25,464.875 467.875,492.75 478.125,501.0 484.25,505.125 487.75,507.125 492.25,509.25 498.375,511.375"/>
    <polyline points="499.375,511.625 506.5,512.75 517.25,512.875"/>
    <line x1="517.875" x2="532.125" y1="512.75" y2="512.0"/>
    <polyline points="532.75,512.0 546.75,511.0 555.625,510.0"/>
    <polyline points="557.0,509.875 571.875,507.875 583.25,505.75 589.75,504.375 605.125,500.25"/>
    <polyline points="608.0,499.25 617.25,496.125 624.125,493.375 635.375,488.25 643.75,483.875 657.5,475.25 667.5,468.0 672.75,463.625 683.5,453.75 694.5,441.625 699.875,434.75 704.875,427.5 709.625,419.625 713.625,411.5 716.625,403.375"/>
    <polyline points="718.5,395.25 718.875,387.75 717.5,381.125 714.125,376.0 708.5,372.75 700.875,371.875 691.125,373.5 679.875,377.75 667.5,384.375 654.375,393.125 641.25,403.5 628.375,415.0 616.125,426.875 604.75,438.875 594.5,450.375 576.75,471.375 547.25,507.75 539.25,516.375 532.75,522.5"/>
    <polyline points="529.75,524.75 524.5,528.125 519.625,530.375 517.375,531.125 511.0,532.375 503.0,532.625 497.25,532.25 477.875,530.125"/>
    <polyline points="475.875,529.875 447.5,527.875 414.625,527.125"/>
    <polyline points="411.5,527.125 394.75,527.125 372.125,527.625 355.25,528.5 346.375,529.25 332.375,531.0 322.875,532.875 318.125,534.125 308.875,537.75"/>
    <polyline points="304.5,540.125 300.375,543.25 296.625,547.125 293.375,552.125 291.125,558.625 290.0,567.0 290.75,577.875 294.0,592.125 300.875,610.75 313.25,635.0 333.125,666.5 363.625,706.0 408.375,753.25 469.75,804.5 546.75,850.25 631.125,875.75 708.5,867.875 765.75,824.875 799.0,758.125 813.625,683.125 817.625,611.125 817.375,547.0 815.625,491.625 813.375,444.375 809.75,404.5 803.375,371.75"/>
    <polyline points="792.5,346.75 775.875,330.875 753.625,325.25 726.5,330.125 696.875,344.375 667.125,365.75 639.25,391.375 614.75,418.625 594.375,445.5 578.0,470.375 565.25,492.625 555.75,512.0 549.0,528.5 544.25,542.25 541.375,553.5 539.75,562.625 539.0,569.75 539.125,575.25 539.75,579.125 540.625,581.75 541.625,583.375 542.75,583.875 543.75,583.625 544.75,582.75 546.125,579.375"/>
    <polyline points="546.5,577.125 546.625,574.625 546.25,569.25 545.0,563.5 542.0,555.5 538.0,548.375 533.25,542.375 528.25,537.625 523.25,533.875 518.125,531.0 514.75,529.5"/>
    <polyline points="513.0,528.75 503.125,525.5 496.625,524.0 486.75,522.25 471.125,520.125"/>
    <polyline points="469.25,520.0 437.375,515.75 424.0,513.375 408.75,509.75"/>
    <polyline points="405.375,508.875 394.75,505.5 383.0,500.875 369.875,494.375 360.375,488.625 350.25,481.25 344.875,476.875 333.875,466.5 328.375,460.25 322.75,453.375 317.25,445.625 312.125,437.25 307.5,428.125 303.625,418.375 300.75,408.375 299.5,398.375 300.0,388.75"/>
    <polyline points="302.75,380.375 308.0,373.625 316.125,369.375 326.875,368.125 339.875,370.25 354.75,375.625 370.75,384.125 387.0,395.125 403.0,407.75 418.125,421.375 432.0,435.25 444.375,448.75 455.375,461.5 472.875,483.875 485.75,501.375 504.0,527.0 508.25,531.875 511.625,535.0"/>
    <polyline points="513.0,536.0 516.875,537.375 519.125,537.375 521.375,536.875 524.75,535.75 534.25,531.75 543.625,528.75"/>
    <polyline points="545.0,528.375 560.75,525.25 591.5,521.5"/>
    <polyline points="594.0,521.25 613.375,518.875 626.5,516.875 641.75,514.0 650.25,511.875 664.625,507.625 675.625,503.625 681.625,501.125 694.75,494.75"/>
    <polyline points="702.0,490.625 709.875,485.75 718.25,479.875 727.5,472.875 737.375,464.5 748.0,454.25 759.5,442.0 771.625,427.25 784.25,409.625 796.625,388.875 808.0,365.0 816.625,338.875 820.5,312.0 816.625,287.625 802.875,269.875 778.125,263.375 743.875,271.0 703.75,292.5 662.875,324.75 625.25,362.875 593.5,402.25 568.375,439.75 549.5,473.625 536.25,503.0 527.5,528.25 522.625,549.375"/>
    <polyline points="520.75,566.875 521.25,581.375 523.5,593.0 527.25,602.25 532.0,609.125 537.25,614.0 543.0,616.875 548.625,618.0 554.125,617.5 559.125,615.5 563.625,612.25 567.5,608.0 570.625,602.875 573.0,597.25 574.75,591.125 575.75,584.875 576.25,578.625 576.25,572.375 575.0,560.75 572.625,550.5 571.125,546.0 569.625,541.875 566.25,534.75"/>
    <polyline points="564.5,531.75 561.0,526.625 557.625,522.625 554.5,519.625 551.5,517.25 547.625,514.75 543.25,512.625 539.75,511.5 535.875,510.75"/>
    <polyline points="535.5,510.75 532.5,510.375 533.875,510.375"/>
    <line x1="534.25" x2="548.75" y1="510.375" y2="509.625"/>
    <polyline points="549.75,509.5 565.0,507.875 574.5,506.375 586.0,504.125"/>
    <polyline points="588.125,503.625 602.75,499.75 611.25,497.0 624.25,492.0 635.375,486.75 647.875,479.75 657.0,473.75 666.75,466.375 671.75,462.25 676.875,457.5"/>
    <polyline points="682.125,452.375 692.625,440.75 697.625,434.125 702.25,427.125 706.5,419.75 710.125,412.125 712.75,404.5 714.25,397.125 714.375,390.25 712.875,384.375 709.375,379.75 704.0,377.0 696.625,376.375 687.625,378.125 677.125,382.125 665.5,388.375 653.25,396.5 641.0,406.125 628.875,416.625 617.375,427.625 606.5,438.75 596.625,449.625 587.625,459.875 572.25,478.25"/>
    <polyline points="565.75,486.0 554.875,499.125 546.0,509.0 542.125,513.0 535.5,519.125 529.625,523.375 522.125,527.25 515.5,529.125 507.375,529.875 501.5,529.75 495.875,529.25"/>
    <polyline points="494.0,529.125 472.875,526.75 441.625,524.125"/>
    <polyline points="439.125,523.875 413.25,521.75 399.625,520.25 388.375,518.625 371.375,515.375 357.0,511.375 346.25,507.625"/>
    <polyline points="340.5,505.25 328.0,499.125 321.25,495.125 314.125,490.5 306.5,484.875 298.375,478.125 289.75,470.0 280.625,460.375 271.125,448.875 261.375,435.125 251.75,419.0 242.75,400.375 235.125,379.5 230.25,356.875 229.875,334.375 235.75,314.125 249.375,299.25 271.375,293.125 300.5,297.5 334.5,312.75 369.625,336.75 402.875,366.375 432.125,398.0 456.25,429.0 475.25,457.75"/>
    <polyline points="489.375,483.25 499.25,505.25 505.75,524.0 509.375,539.625 510.75,552.375 510.25,562.875 508.375,571.125 505.5,577.375 502.0,582.0 498.0,585.0 493.75,586.75 489.5,587.125 485.5,586.5 481.625,584.875 478.25,582.5 475.25,579.375 472.75,575.875 470.75,571.875 469.125,567.75 467.25,559.25 466.75,551.0 467.375,543.375 468.0,539.875"/>
    <polyline points="468.75,536.75 470.5,531.125 472.625,526.5 474.875,522.75 477.125,519.75 480.375,516.5 483.375,514.25 486.875,512.5 491.5,511.125"/>
    <polyline points="492.0,511.125 495.125,510.75 496.875,510.875 496.5,511.125 489.75,511.125"/>
    <polyline points="489.25,511.125 478.875,510.625 470.5,509.875"/>
    <polyline points="469.5,509.75 458.625,508.5 448.125,506.75 437.5,504.5 431.5,502.875"/>
    <polyline points="429.375,502.25 418.0,498.625 410.5,495.625 396.875,488.75 391.0,485.125 385.0,481.0 376.0,473.5 370.0,467.5 364.5,460.875 361.875,457.25"/>
    <polyline points="359.625,453.5 357.5,449.75 355.875,445.75 354.5,441.875 353.75,438.125 353.375,434.5 353.75,431.0 354.75,428.0 356.625,425.5 359.125,423.625 362.375,422.375 366.5,421.875 371.25,422.25 376.625,423.5 382.5,425.5 388.875,428.375 395.375,431.875 409.0,440.5 415.625,445.375 428.375,455.625 450.375,475.25"/>
    <polyline points="454.875,479.5 473.375,496.25 481.375,502.75 488.0,507.25 495.125,510.875 499.5,512.5 503.375,513.5 507.875,514.125"/>
    <polyline points="508.875,514.125 515.625,514.375 530.5,513.375"/>
    <line x1="531.375" x2="557.875" y1="513.25" y2="510.75"/>
    <polyline points="559.25,510.5 575.625,508.125 585.875,506.125 597.875,503.25 612.125,499.0"/>
    <polyline points="615.25,497.875 625.625,493.875 637.25,488.625 655.125,478.5 665.125,471.5 675.875,463.0 687.125,452.375 692.875,446.25 698.5,439.625 704.125,432.25 709.25,424.375 714.0,416.125 718.0,407.5 721.0,398.75 722.625,390.25 722.5,382.5"/>
    <polyline points="720.375,375.875 716.0,371.0 709.25,368.375 700.25,368.25 689.375,371.0 676.75,376.625 663.25,384.75 649.375,394.875 635.5,406.5 622.25,419.0 609.875,431.75 598.5,444.25 588.25,456.125 571.125,477.375 552.25,501.5 543.0,512.75 535.5,520.875 532.25,523.875 529.25,526.5 523.875,530.25"/>
    <polyline points="521.375,531.625 516.75,533.5 512.5,534.5 506.375,535.125 496.625,534.625 471.125,532.0"/>
    <polyline points="469.125,531.875 453.75,531.0 436.75,531.0 420.375,531.75 405.625,533.375"/>
    <polyline points="402.5,533.875 389.875,536.75 380.5,540.375 374.5,543.75 369.125,548.5 366.75,551.625 364.75,555.125 363.125,559.375 362.125,564.5 361.875,570.625 362.5,577.875 364.5,586.5 368.25,597.0 374.0,609.5 382.5,624.25 394.5,641.5 410.75,661.375 432.125,683.375 459.0,706.5"/>
    <polyline points="491.5,729.0 528.625,747.875 568.25,759.625 606.875,761.25 641.125,751.125 668.375,730.0 687.625,700.5 699.625,666.5 706.0,631.375 708.375,597.625 708.5,566.75 707.25,539.375 705.375,515.625 703.125,495.25 700.75,478.0 698.25,463.5 695.5,451.5 692.25,441.75 688.5,434.125 684.25,428.375 679.375,424.375 673.875,422.0 667.75,421.25 661.125,422.0 654.125,424.0 646.875,427.0"/>
    <polyline points="639.5,431.0 632.0,435.75 624.75,440.875 611.0,452.0 592.75,468.375 573.875,486.375 559.875,498.625 551.625,504.625 546.875,507.5 542.75,509.625 537.125,511.875"/>
    <polyline points="535.5,512.375 532.375,513.25 524.375,514.5 515.75,514.75 507.875,514.375"/>
    <polyline points="369.125,416.75 375.625,418.625 382.5,421.375 389.875,425.125 397.5,429.625 412.75,440.25 427.25,452.0 440.375,463.75 469.625,491.75 479.625,500.75 485.125,505.125 494.0,510.875"/>
    <polyline points="495.875,511.875 502.5,514.5 506.875,515.5 515.375,516.125 527.0,515.375"/>
    <line x1="528.0" x2="557.25" y1="515.25" y2="512.0"/>
    <polyline points="558.75,511.875 579.875,508.625 593.5,505.75 613.375,500.125"/>
    <polyline points="616.75,499.0 631.25,493.25 643.75,487.25 658.0,478.875 668.5,471.625 679.75,462.5 691.625,451.25 697.75,444.625 703.75,437.375 709.625,429.375 715.125,420.875 720.0,411.875 724.125,402.375 727.0,393.0 728.25,383.875 727.5,375.625"/>
    <polyline points="724.5,368.875 718.875,364.25 710.625,362.25 700.0,363.375 687.25,367.75 673.125,375.125 658.125,385.125 643.125,397.125 628.5,410.375 614.75,424.125 602.125,437.875 590.75,451.125 580.75,463.5 541.875,514.375 534.125,523.375 527.875,529.625 522.5,533.75 520.125,535.125"/>
    <polyline points="517.875,536.25 513.5,537.875 509.375,538.625 503.625,538.875 494.125,538.125 476.875,536.125 468.75,535.625"/>
    <polyline points="466.75,535.5 453.75,535.375 446.875,535.625 437.375,536.5 429.875,537.625 419.875,540.0 417.25,540.875 412.25,542.875 407.5,545.375"/>
    <polyline points="405.125,547.0 400.75,550.75 397.125,555.75 395.75,558.75 394.625,562.25 393.875,566.375 393.75,571.0 394.25,576.375 395.625,582.625 397.875,589.875 401.375,598.0 406.375,607.5 413.25,618.125 422.125,630.0 433.625,643.125 447.75,657.0 464.875,671.25 484.875,685.125 507.5,697.375 531.75,706.625 556.625,711.5 580.75,711.0 602.625,704.625 621.0,692.5"/>
    <polyline points="635.375,675.75 645.875,655.875 652.625,634.25 656.5,612.375 658.25,591.25 658.375,571.625 657.5,553.875 656.0,538.125 652.25,512.375 648.125,493.625 644.25,480.375 640.375,471.25 638.5,468.0 636.625,465.375 634.75,463.375 631.0,460.875 629.125,460.25 625.25,460.0 621.375,460.625"/>
    <polyline points="619.375,461.25 613.75,463.875 605.0,469.5 593.625,479.0 590.0,482.75 588.75,484.5"/>
    <polyline points="588.5,485.0 588.0,486.125 588.25,487.0 589.875,487.625 591.0,487.625 597.0,486.5 603.125,484.625"/>
    <polyline points="604.5,484.125 612.5,480.75 619.875,477.0 628.25,472.125 632.5,469.125 639.25,464.0 645.75,458.125 647.875,456.0 653.5,449.25"/>
    <polyline points="655.0,447.0 656.5,444.625 658.625,440.25 659.625,436.25 659.625,434.5 659.25,433.0 658.5,431.75 657.375,430.875 655.75,430.25 651.5,430.375 648.875,431.0 645.875,432.0 639.125,435.25 631.5,439.875 619.75,448.5 604.625,461.25"/>
    <polyline points="601.125,464.375 576.875,486.375 567.0,494.5 558.25,501.0"/>
    <polyline points="557.75,501.375 556.375,502.875 556.875,503.5 558.125,503.75 564.75,503.5"/>
    <polyline points="565.75,503.375 575.125,502.125 584.625,500.25 598.75,496.5 608.75,493.125"/>
    <polyline points="611.375,492.125 617.125,489.875 629.875,483.875 640.625,477.75 652.375,469.875 660.75,463.25 669.25,455.5 673.5,451.125 681.75,441.5 685.625,436.25 689.125,430.75 692.25,425.125 694.875,419.375 696.625,413.75 697.625,408.5"/>
    <polyline points="697.625,403.625 696.375,399.375 694.0,396.125 690.125,394.0 685.125,393.375 678.75,394.125 671.375,396.375 663.125,400.125 654.25,405.375 645.0,411.625 635.75,418.75 626.5,426.625 609.125,443.0 601.125,451.0 560.625,494.625 553.0,502.125 546.375,507.75"/>
    <polyline points="543.375,510.0 538.125,513.625 535.625,515.0 531.0,517.125 524.875,519.125 515.875,520.5 510.875,520.625 497.25,519.75"/>
    <polyline points="495.75,519.625 468.0,516.625 455.25,514.875"/>
    <polyline points="453.375,514.625 440.5,512.625 430.875,510.75 414.5,506.625 401.875,502.375 394.875,499.625 383.75,494.25"/>
    <polyline points="379.875,492.125 367.25,484.125 358.375,477.125 353.875,473.125 349.25,468.75 344.75,463.875 340.125,458.5 335.75,452.625 331.625,446.25 327.75,439.5 324.375,432.375 321.75,425.0 320.0,417.625 319.375,410.375 320.125,403.625 322.375,397.625 326.375,392.875 332.25,389.75 339.875,388.625 349.125,389.5 359.75,392.5 371.25,397.75 383.375,404.625"/>
    <polyline points="395.75,413.0 407.75,422.5 419.25,432.375 430.125,442.5 440.0,452.5 449.0,462.0 464.25,479.0 489.375,508.125 498.625,517.5 503.5,521.5 509.5,525.0 514.625,526.5 517.75,526.875"/>
    <polyline points="519.125,526.875 523.5,526.625 556.0,520.625"/>
    <polyline points="557.625,520.375 593.25,515.0 610.5,511.625 617.0,510.0"/>
    <polyline points="620.5,509.125 631.875,505.875 644.75,501.375 654.375,497.375 670.875,489.0 683.625,481.125 697.75,470.75 705.5,464.25 713.625,456.75 722.25,448.125 731.0,438.25 740.0,426.75 748.75,413.75 757.125,399.375 764.375,383.625 769.75,367.0 772.125,350.625"/>
    <polyline points="770.625,335.625 764.0,323.75 751.875,316.875 734.25,316.625 712.0,323.5 687.0,337.25 661.125,356.625 636.25,379.375 613.5,403.75 593.75,428.0 577.125,450.875 563.5,471.625 552.5,490.125 543.875,506.0 537.125,519.625 532.0,531.125 525.25,548.625 521.75,560.25 520.75,564.375 519.625,571.75 519.625,573.625"/>
    <polyline points="519.75,573.875 519.5,571.0 517.875,566.25 515.75,562.25 513.875,559.625 510.625,556.0 506.875,552.75 499.625,548.375"/>
    <polyline points="498.125,547.625 493.25,545.75 486.5,543.875 481.25,542.875 475.75,542.25 470.125,541.875 462.375,542.0 458.375,542.25 452.375,543.125"/>
    <polyline points="450.375,543.5 442.25,545.5 438.25,547.0 432.5,550.125 429.0,552.75 427.375,554.375 424.625,558.25 422.5,563.0 421.5,569.0 421.5,572.5 422.0,576.375 423.0,580.875 424.5,585.75 426.875,591.125 430.0,597.125 434.0,603.75"/>
    <polyline points="439.125,610.875 445.5,618.5 453.25,626.625 462.375,634.875 472.875,643.125 484.75,651.0 497.875,658.125 512.0,663.875 526.625,668.0 541.375,669.75 555.625,669.0 568.875,665.375 580.625,659.125 590.625,650.5 598.625,640.0 604.75,628.125 609.125,615.5 611.875,602.625 613.375,590.0 613.875,577.875 613.5,566.625 612.625,556.25 611.25,546.875 609.625,538.5 608.0,531.125 606.125,524.625"/>
    <polyline points="604.375,519.0 600.875,510.0 596.25,501.0 593.625,497.125 590.625,493.5 586.5,490.125 586.875,489.75 587.625,489.625"/>
    <polyline points="588.0,489.625 593.875,488.375 603.875,485.125 610.5,482.5 620.125,477.75"/>
    <polyline points="622.25,476.625 631.125,471.125 640.5,464.125 645.125,460.0 653.875,450.75 659.0,443.25 661.25,438.5 661.875,436.25 662.25,432.25 661.75,430.625 660.875,429.25 659.625,428.375"/>
    <polyline points="657.875,427.75 655.625,427.625 653.0,428.0 646.75,430.0 639.25,433.75 631.0,439.0 614.0,452.125 602.125,462.5 573.5,488.5"/>
    <polyline points="571.5,490.125 569.75,491.75 561.0,498.375 552.375,504.0 551.875,505.0 553.125,505.375 557.5,505.375 568.125,504.25"/>
    <polyline points="569.375,504.125 585.0,501.25 597.625,498.0 610.375,493.75 622.5,488.875"/>
    <polyline points="625.75,487.25 632.75,483.875 644.125,477.25 656.625,468.5 665.375,461.375 669.875,457.25 678.875,448.0 687.5,437.25 691.5,431.5 695.0,425.5 698.0,419.375 700.25,413.125 701.75,407.25 702.0,401.75 701.125,396.875 698.875,393.0 695.25,390.25 690.0,389.0"/>
    <polyline points="683.5,389.5 675.625,391.625 666.875,395.5 657.375,400.875 647.375,407.625 637.25,415.375 627.375,423.875 617.75,432.75 608.75,441.625 592.375,458.75 562.5,492.125 550.125,504.625 543.5,510.5 540.5,512.75 535.0,516.375 530.125,518.875"/>
    <polyline points="527.875,519.875 525.75,520.625 517.625,522.375 512.125,522.75 502.0,522.5 484.125,520.625"/>
  </g>
</svg>
