<?xml version="1.0" encoding="utf-8" ?>
<svg xmlns="http://www.w3.org/2000/svg" xmlns:cc="http://creativecommons.org/ns" xmlns:dc="http://purl.org/dc/elements/1.1/" xmlns:ev="http://www.w3.org/2001/xml-events" xmlns:inkscape="http://www.inkscape.org/namespaces/inkscape" xmlns:rdf="http://www.w3.org/1999/02/22-rdf-syntax-ns" xmlns:sodipodi="http://sodipodi.sourceforge.net/DTD/sodipodi-0.dtd" xmlns:xlink="http://www.w3.org/1999/xlink" baseProfile="tiny" height="27.09333333cm" version="1.2" viewBox="0 0 1024.0 1024.0" width="27.09333333cm">
  <metadata>
    <rdf:RDF>
      <cc:Work>
        <dc:format>image/svg+xml</dc:format>
        <dc:source>vpype read './original_svgs/Strange Attractors #332.svg' linemerge linesimplify write './Strange Attractors #332.svg'
</dc:source>
        <dc:date>2024-08-05T01:35:49.381693</dc:date>
      </cc:Work>
    </rdf:RDF>
  </metadata>
  <defs/>
  <g fill="none" id="layer1" inkscape:groupmode="layer" inkscape:label="1" stroke="black" style="display:inline">
    <polyline points="344.125,375.375 346.7215,352.7499 348.3453,329.5659 348.9671,305.9099 348.5839,282.2548 347.1794,257.9637 344.7953,233.8134 341.414,209.4106 337.14,185.6736 331.8512,162.3064 325.8525,140.9371 319.2615,121.9859 315.7594,113.4704 312.1756,105.7386 308.5322,98.8404 304.8514,92.8263 301.1553,87.7463 297.6825,83.8635 294.0198,80.7402 290.6176,78.7879 287.2779,77.8358 283.9691,77.9384 280.5655,79.2649 277.1469,82.0134 273.9475,86.1136 271.1537,91.1985 268.6064,97.4342 266.3304,104.7941 264.3504,113.2517 262.6912,122.7803 261.4414,132.7491 260.5257,143.7504 259.9895,155.1711 259.8036,167.6001 260.5342,193.773 262.7363,221.6172 266.0482,247.9469 270.5289,274.1734 276.2327,300.51 283.0023,326.343 290.843,351.7357 299.6763,376.3417 309.1084,399.1046 319.5756,421.0936 327.2817,435.5678 335.3765,449.4923 343.8159,462.8173 352.7466,475.7703 362.1076,488.2353 371.3576,499.5211 381.1342,510.3988 391.0803,520.4916 403.2606,531.6968 416.5798,542.7334 429.4145,552.3354 442.5277,561.0466 456.3706,569.2549 473.4445,578.4918 515.3544,598.7623 524.8078,603.5931 537.0149,610.9158 545.5829,617.1961 551.9213,622.9019 556.6999,627.7666 561.026,632.9581 565.7043,639.4071 573.6653,652.3088 594.5484,689.3016 599.9048,697.7803 605.3531,705.07 611.9757,712.5876 618.6197,718.0958 621.8346,720.0985 624.7762,721.4318 627.7298,722.2803 630.6741,722.6439 633.8752,722.4709 636.6281,721.7558 639.3397,720.5055 641.956,718.729 644.3348,716.53 646.6148,713.7866 650.8951,706.7216 654.6543,697.6375 657.4949,687.3187 659.234,676.9887 660.262,663.8539 660.2861,651.5894 659.3551,639.9917 657.4848,628.1118 654.7741,617.1864 651.1965,607.0533 647.0733,598.4308 641.7753,590.2445 636.3701,583.9647 631.9875,580.2336 627.2625,577.2244 622.5375,575.173 617.9221,574.1077 612.5631,573.8261 607.8147,574.4756 603.1678,576.0534 598.908,578.439 594.6976,581.7281 591.3951,585.262 588.125,590.0 585.701,594.688 583.4807,600.5481 581.6944,607.1481 580.5456,614.2299 579.993,621.4062 580.1222,628.927 580.7872,637.7356 582.1642,646.8199 583.9799,655.8977 589.5166,674.6305 593.253,684.2155 597.3078,693.3292 601.5815,701.3839 606.0778,708.6734 610.4919,714.6583 615.1741,719.9305 619.5254,723.7269 624.0403,726.5792 628.3502,728.359 632.484,729.0177 635.5252,728.8368 638.5298,728.0893 641.1215,726.9333 643.8834,725.047 646.2949,722.8045 648.8594,719.748 651.2689,716.1395 653.3671,712.2973 657.3521,702.6921 660.358,691.98 662.5689,679.309 663.6475,666.4732 663.6439,652.6235 662.7056,639.2616 660.9268,627.6173 658.0116,615.3972 654.2128,604.3002 649.3287,593.9954 644.1252,585.6504 638.5461,579.2141 633.7694,574.9238 628.9128,571.6266 623.8346,569.3575 618.246,567.8851 612.8196,567.4623 607.1251,568.1048 602.0637,569.6614 597.0049,572.3091 592.4468,575.8072 588.1428,580.3804 584.7459,585.3057 581.5979,591.462 579.4662,597.367 577.625,605.25 576.7379,611.5512 576.313,618.8615 576.3679,627.9257 577.4209,639.1177 578.7367,646.9182 581.4685,659.0695 584.0244,668.1359 587.9013,679.5363 591.5638,688.7482 595.7179,697.8326 600.2944,706.4118 605.6706,715.0677 610.1533,721.2518 614.698,726.4098 619.4157,730.6797 624.0617,733.6967 628.8165,735.6643 633.7001,736.561 636.6117,736.4036 639.8594,735.5651 643.0583,734.0357 645.9767,731.9974 648.8042,729.3423 651.5415,726.036 654.1418,722.1021 656.3652,717.9645 660.6748,707.1615 664.0177,694.8919 666.123,682.1116 667.33,667.5074 667.4442,653.1867 666.5,639.1435 664.5427,625.4573 661.6453,612.9309 657.6562,600.8594 652.9899,590.4778 647.2256,581.0031 644.1499,576.955 640.9592,573.3685 635.9525,568.8366 630.5386,565.1321 624.7647,562.3482 619.1699,560.7398 613.282,560.0605 607.2874,560.4451 601.3807,561.9789 595.8088,564.5428 590.7192,568.0682 586.3083,572.2763 582.2844,577.4413 579.0438,583.0173 576.1387,589.8664 574.0865,596.7236 572.5,605.5 571.8896,612.9294 571.9049,623.7272 572.5459,632.2507 574.1693,643.6596 576.525,654.7426 579.4962,666.3024 583.0231,677.1289 587.6094,689.2538 593.0116,701.4309 597.5648,710.3704 603.2469,719.8316 608.32,727.1838 613.5371,733.3303 619.3244,738.7702 623.9689,742.0144 629.4233,744.4472 634.575,745.4301 638.1269,745.2625 641.3524,744.4685 644.899,742.8545 647.997,740.7281 650.9873,737.9273 653.9952,734.2933 656.8668,729.9443 659.377,725.2864 661.7044,720.0511 664.0711,713.5949 667.8525,699.8734 670.25,686.125 671.6478,670.2533 671.8675,654.1876 670.9267,638.6377 668.8989,623.6138 665.7958,609.5189 661.6252,596.6095 656.3791,584.7757 653.6232,579.8346 650.556,575.1148 647.0965,570.4973 643.5225,566.3962 637.978,561.2286 632.177,557.1875 625.8401,554.0391 619.5509,552.151 612.7103,551.3974 605.8439,551.806 599.6094,553.3803 593.5781,556.0781 587.8529,559.8931 582.5276,564.7507 578.2214,570.0188 574.4611,576.1991 571.2863,583.4536 569.0431,590.5925 567.3382,599.9399 566.5355,608.5517 566.5181,619.7217 567.1509,628.2023 569.0828,641.8689 571.6314,654.0255 575.0871,666.8989 580.1174,682.3058 584.3286,693.2333 590.0947,706.3573 595.5125,717.0043 602.0598,728.2084 607.4894,735.9927 613.2845,742.9205 618.8734,748.3795 624.5697,752.4641 630.4033,755.1913 635.7615,756.2802 639.4863,756.1608 643.2004,755.317 646.8344,753.7259 650.2078,751.4652 653.6204,748.3472 656.9542,744.4193 660.1376,739.703 662.8966,734.6363 665.5985,728.5492 668.1877,721.5475 670.4297,714.2425 672.4014,706.3876 673.9777,698.4801 675.314,689.7498 676.9872,672.043 677.3269,655.3543 676.3773,637.8196 674.3014,621.4657 671.1635,606.6845 666.599,591.986 663.9516,585.2604 661.0815,578.9987 658.0039,573.2367 654.5593,567.6878 650.7948,562.4421 647.1261,558.0603 641.2518,552.3758 635.0353,547.8819 628.0708,544.2467 621.1539,541.9845 613.5586,540.8926 605.9132,541.0598 598.6093,542.5513 591.8627,545.2399 585.1757,549.2843 579.0016,554.372 573.9394,559.9684 569.5044,566.6476 565.3532,575.224 562.9399,582.3337 560.8807,592.0927 559.9714,601.3889 559.7838,613.156 560.7,625.2943 562.2382,636.0218 565.3702,651.4473 568.9088,664.7606 573.5577,679.5803 579.4088,695.4219 585.0154,708.6823 591.3286,721.9019 597.2143,732.6326 604.2277,743.7096 610.4245,751.9355 617.0604,759.0609 623.5235,764.4318 629.7212,767.9192 632.8732,769.0557 636.0461,769.758 639.8648,769.9937 643.5315,769.5228 647.2202,768.3399 650.8824,766.4342 654.4697,763.795 657.625,760.75 660.7635,756.9419 663.6308,752.7204 666.5762,747.5556 669.3706,741.7418 674.1141,729.1174 678.2745,713.709 681.3203,697.2725 683.1434,680.5317 683.9737,661.9305 683.6635,644.292 682.2601,627.9697 679.5925,610.9706 675.941,595.4266 671.625,582.25 665.63,568.4862 659.8568,558.2405 653.7317,549.8699 646.1064,541.9903 642.2034,538.723 637.9491,535.7083 633.9594,533.377 629.8628,531.4641 625.264,529.7753 620.3761,528.4461 615.9445,527.6745 611.5839,527.3339 607.1966,527.4233 602.5062,527.9508 597.6617,528.9525 593.042,530.3587 588.2591,532.29 583.7272,534.6102 579.5712,537.2444 575.7315,540.1777 571.7581,543.7759 568.2917,547.4668 565.1987,551.3451 562.212,555.7886 559.7784,560.1522 557.5575,564.9827 555.3682,570.7326 553.9207,575.5101 552.7398,580.7371 551.7807,586.8587 551.0344,598.7997 551.3542,611.3652 553.186,627.3416 556.5021,644.7847 559.8679,657.8479 565.5013,676.8384 572.6297,697.1037 579.6237,714.4329 586.9356,730.3938 595.3127,746.291 601.857,756.998 609.0018,766.8346 616.455,775.3902 623.5921,781.6167 627.27,784.0825 630.9978,786.0708 634.6374,787.4969 638.2246,788.3379 642.6022,788.6093 646.6413,788.1173 650.6628,786.8833 654.625,784.875 658.4612,782.0806 662.0227,778.6761 665.7472,774.2158 669.1351,769.2648 672.3894,763.5766 675.519,757.0663 678.5059,749.7179 681.1825,741.9982 685.8666,724.8172 689.3442,706.4596 691.7998,685.9065 692.9621,665.2394 692.8168,645.5367 691.3341,625.3122 688.5901,605.8801 684.7023,588.1096 682.2571,579.6132 679.5834,571.6817 676.6712,564.2186 673.3729,556.9024 666.832,545.072 663.2416,539.7673 659.5552,535.0038 655.4795,530.3999 651.298,526.3039 646.7496,522.4841 642.1401,519.2199 637.5,516.5 632.3375,514.0394 627.2131,512.1094 621.7771,510.6062 616.7655,509.7079 611.4745,509.2614 605.8913,509.3025 600.1212,509.8595 594.6188,510.908 589.0205,512.5201 583.1814,514.7718 577.6387,517.4368 572.5069,520.4491 567.5698,523.9403 563.1108,527.6888 558.8731,531.9195 555.2467,536.1961 551.8484,540.9433 548.5719,546.4128 545.6319,552.2296 543.3839,557.961 541.398,564.5 540.126,570.141 539.208,576.253 538.3544,588.8027 538.7506,601.6753 541.0106,619.4216 544.8851,638.823 550.3661,660.0418 557.4822,683.2656 566.5134,708.8875 575.054,730.0147 583.5207,748.8585 592.388,766.1825 600.8826,780.6169 609.3786,792.7848 617.9381,802.835 621.9979,806.7462 626.1634,810.1774 630.4185,813.0722 634.4358,815.2309 638.565,816.852 642.4136,817.76 647.4124,818.0463 652.112,817.3887 656.8241,815.7899 661.5061,813.1989 665.9082,809.7517 670.1305,805.423 674.2952,800.1151 678.3629,793.8481 682.2937,786.6417 685.8651,778.9435 689.2676,770.3664 692.475,760.898 695.4393,750.6555 698.046,740.0963 700.4462,728.5726 702.4524,716.9294 705.3813,693.0907 706.9434,668.0318 707.0216,643.5651 706.5006,631.4892 705.625,620.0 704.3126,608.0878 702.6328,596.5101 700.5907,585.3306 698.2799,574.974 695.6406,565.1052 692.7888,556.1043 689.6278,547.6285 685.8307,538.8613 681.7824,530.7546 677.3031,522.9889 672.8031,516.2422 667.8952,509.9045 662.8018,504.3015 657.4388,499.3042 651.7187,494.8004 645.6041,490.8109 639.1283,487.4088 632.6607,484.7704 625.9584,482.7642 618.9425,481.3787 611.7142,480.6749 604.6857,480.662 597.4638,481.3036 589.9219,482.5955 582.1384,484.5938 574.524,487.268 566.6666,490.8176 559.5921,494.7669 552.69,499.4513 546.1724,504.72 540.2812,510.33 534.4079,516.9061 529.8895,522.8963 526.1973,528.8678 522.0216,537.2689 519.4411,543.7502 517.5605,549.6539 515.7347,558.3846 514.552,566.485 513.8557,575.0154 513.6955,582.5965 513.9607,595.7876 515.0843,608.7271 516.8611,621.3724 521.9301,645.3494 529.7568,674.7422 534.941,692.7518 542.3981,716.7324 556.729,759.547 566.7408,786.7739 572.5368,801.6756 580.0779,819.6892 588.0007,837.2659 593.5202,848.5578 599.2431,859.3897 605.1207,869.6423 610.9041,878.9077 616.0347,886.4341 621.3126,893.3275 626.5661,899.3413 632.0211,904.7149 637.3722,909.1352 642.8708,912.8007 648.2007,915.4987 653.3137,917.2409 658.5764,918.1129 663.6095,918.0715 668.7188,917.1406 673.8847,915.263 680.1312,911.6798 686.0495,906.8793 691.895,900.6924 697.7947,892.9063 703.4955,883.8623 709.1145,873.3912 714.5999,861.5242 719.7475,848.701 724.528,835.0658 729.0572,820.2748 733.19,804.8048 737.0842,788.1249 740.6439,770.5871 743.7725,752.7088 746.5127,734.2707 748.8314,715.4033 750.6269,697.0399 751.9754,678.5168 752.8402,660.3009 753.2521,642.1317 753.2068,624.143 752.7008,606.429 751.7306,589.0836 750.2928,572.201 748.4786,556.5876 746.2313,541.5646 743.615,527.5396 740.5159,513.8846 736.9659,500.6954 732.9192,487.8924 728.5077,475.9175 723.6018,464.4395 719.6599,456.3353 715.3679,448.4497 711.0677,441.391 706.4277,434.5963 701.62,428.3468 696.1771,422.054 690.6208,416.3579 684.9668,411.2323 678.9268,406.4247 672.8141,402.1902 666.6469,398.4983 660.1325,395.1726 653.2879,392.2561 646.4173,389.8698 638.9513,387.7987 631.5789,386.2371 618.2794,384.5439 604.6798,384.1574 589.7396,385.0673 573.9654,387.2821 557.1268,390.9924 539.0602,396.3148 524.285,401.549 491.758,414.286 480.4958,417.9351 474.3765,419.1531 469.3072,419.3263 464.9191,418.6476 460.6481,416.9028 456.0104,413.7323 451.5473,409.0866 446.4407,402.364 440.9312,393.3502 436.8492,385.8726 429.661,371.4421 410.2676,330.9264 402.6933,315.9674 395.1537,301.9427 386.6977,288.1179 380.7056,279.8685 377.3294,276.112 374.0695,273.0786 371.5799,271.3125 369.25,270.25 366.9336,269.9043 364.875,270.3906 363.0977,271.7441 361.8483,273.5599 360.8074,276.1334 360.0392,279.7093 359.6435,284.0093 359.5851,289.5001 360.4921,300.3596 362.9975,313.5335 366.7147,327.621 371.5198,341.8082 377.1098,355.4454 383.2394,368.1057 390.2545,380.8864 397.6182,392.4944 406.1624,404.5928 416.5,417.0 423.0269,423.8518 431.6234,431.715 440.0383,437.6388 442.9385,438.9387 445.3338,439.5166 446.9306,439.1991 447.8875,438.2827 448.4139,436.384 448.4239,434.1352 446.8933,425.9602 442.2759,411.5493 432.0347,383.8816 419.2923,352.3982 409.5348,330.0495 402.7127,315.4366 393.3841,297.0859 387.0029,285.9898 380.3292,275.7354 375.1738,269.3182 369.5507,264.3079 367.3179,262.9824 365.2158,262.2383 363.25,262.125 361.4753,262.6246 359.4586,264.1742 358.0219,266.3677 356.7544,269.8432 355.937,274.1238 355.5588,279.2518 355.6088,285.1423 356.9154,298.7767 359.6883,312.7266 364.0905,328.7173 369.1705,343.0798 376.1531,359.7097 382.7904,372.9859 391.8153,388.4671 399.3261,399.8149 408.5507,412.1441 416.1727,421.0143 426.9534,432.1786 436.7848,440.7052 444.5673,445.8961 447.4375,447.2656 450.0,447.875 451.5892,447.6192 452.6022,446.6061 453.056,444.504 452.9176,441.5974 450.5297,431.7848 445.9941,417.9184 431.1335,378.6818 418.7845,348.2006 407.4604,322.2798 399.2603,304.8507 391.4221,289.466 384.3649,277.2644 377.5848,266.8548 372.2609,260.277 366.536,255.2093 364.2088,253.7941 362.0203,252.9636 359.9657,252.7599 358.0252,253.2233 355.817,254.7711 353.9949,257.3684 352.5807,261.0044 351.5875,265.7378 351.0888,271.2659 351.0492,277.6145 351.4584,284.6911 352.3495,292.7109 355.2926,308.5142 360.1305,326.4847 365.4987,342.0237 372.5514,358.8467 379.7065,373.5934 388.1063,388.3712 397.1074,402.2461 407.342,415.9422 416.9407,427.2093 429.1132,439.3869 440.6183,449.2134 449.375,455.25 452.2463,456.7389 455.1246,457.7006 456.79,457.7676 458.0752,456.9707 458.5917,455.1525 458.5548,452.627 456.4239,443.7025 451.9123,430.2141 435.2581,386.396 423.053,355.5179 407.0718,317.4626 398.0024,297.8059 390.807,283.408 382.7134,268.9347 375.7565,258.1813 368.9718,249.706 365.7314,246.4094 362.9132,244.0829 360.2113,242.4521 357.875,241.625 355.4417,241.4341 353.2501,241.9999 350.7873,243.8475 348.7238,246.9652 347.1475,251.1041 346.0533,256.3455 345.4745,262.5648 345.4017,269.6766 345.8277,277.618 346.7366,285.8778 350.0391,304.1519 354.9418,323.2553 361.0986,341.2229 369.4241,361.3025 377.6094,377.75 388.1907,395.9649 396.9204,408.9692 407.6003,422.8266 418.1325,434.9485 430.1855,447.0186 443.6614,458.5723 454.9829,466.6941 459.4051,469.1075 462.502,470.295 464.7688,470.1216 465.6074,468.5273 464.9536,463.2464 462.1553,454.5481 447.1627,414.0274 422.9954,351.2508 411.5037,323.0663 404.0454,305.7622 394.2243,284.5386 386.4686,269.0944 378.2609,254.6099 370.8744,243.3198 364.4073,235.346 360.9085,231.918 357.8942,229.5359 355.0159,227.8668 352.2818,226.9561 349.9793,226.82 347.5792,227.4455 344.7886,229.493 342.2912,233.2436 340.491,238.0907 339.1462,244.577 338.4722,251.9247 338.3996,260.2896 338.9011,269.5623 340.007,280.0876 341.4842,289.8707 343.4932,300.0854 346.0783,310.8858 349.1365,321.8143 352.4785,332.3247 356.1375,342.5459 360.4143,353.2722 364.9942,363.7001 374.1576,382.1705 383.9553,398.9895 395.369,415.8795 407.591,431.5323 420.0769,445.5052 432.6254,457.4619 441.7141,465.4163 452.4884,474.0369 464.6537,482.7011 472.5,487.125 474.0,487.5 474.918,486.879 474.9693,485.6475 474.3826,482.9944 471.6086,475.1588 462.2789,451.3663 423.047,346.789 408.1215,309.1694 396.3617,281.782 386.416,260.7251 378.4501,245.272 371.2361,232.9818 363.7049,222.0728 356.6456,213.891 353.3699,210.9365 350.4787,208.8762 347.3983,207.3311 344.4889,206.587 341.7656,206.6562 339.5476,207.3937 337.7772,208.5351 336.1341,210.1521 333.4002,214.5355 331.1772,220.847 329.6271,228.8174 328.7797,238.3177 328.6602,248.9305 329.2508,259.9948 330.5739,272.1826 332.517,284.5933 335.1676,297.8336 338.1853,310.2894 341.7354,322.7267 346.0066,335.7748 350.862,348.9306 356.1778,361.8686 361.6895,373.8728 366.7879,383.9374 372.428,394.1748 378.3775,404.1559 384.5315,413.7346 390.581,422.3943 396.8424,430.6879 411.5264,448.1887 423.1543,460.2575 437.1338,473.1191 455.3583,487.8706 480.9004,507.3566 483.9295,509.9427 488.75,514.75 484.9489,507.6638 480.0527,497.0742 473.6236,481.3828 467.156,464.3385 451.179,419.9844 427.9384,353.984 406.6089,296.3234 390.7894,257.6515 384.0389,242.4441 377.7298,229.2128 368.6033,211.8505 360.3274,198.1114 352.7189,187.5838 349.0123,183.3269 345.3854,179.751 341.8685,176.8899 338.4714,174.7765 335.2037,173.4435 332.075,172.9238 329.0949,173.25 326.5479,174.2939 324.0988,176.1244 321.83,178.7689 318.8004,184.317 316.2435,191.9826 314.3523,201.427 313.1802,212.2225 312.7802,223.7695 313.0962,236.3695 314.1017,249.8413 315.8272,264.4164 318.1295,278.9859 320.833,292.6548 324.2761,307.0995 328.2669,321.4689 332.9843,336.3674 338.2969,351.2707 343.5876,364.5495 349.5741,377.9471 355.3624,389.674 361.5289,401.1425 368.3709,412.8794 375.235,423.7692 382.0058,433.6027 389.0468,443.009 396.5114,452.2301 404.7371,461.664 412.3158,469.7639 420.3182,477.6671 428.8262,485.4637 438.5592,493.8227 451.4599,503.9613 479.8229,524.6218 491.327,533.9046 500.2141,542.8334 506.5879,551.7247 511.4683,561.7483 514.647,571.702 517.0702,581.9507 522.0675,607.3098 527.7901,632.8119 533.6039,654.7383 540.5233,678.7875 549.4244,706.3178 558.7628,733.1237 570.6456,763.9951 578.5351,782.6817 588.75,804.5 596.4624,819.1372 605.7762,834.4576 615.5556,848.2449 619.7732,853.3412 624.1381,858.021 628.3529,861.9767 632.6758,865.4638 637.0965,868.4329 641.3016,870.6928 645.4482,872.3634 649.5001,873.4049 655.7113,873.8616 661.6812,872.9808 667.7053,870.725 673.3839,867.2572 678.9522,862.4803 684.4459,856.3137 689.8926,848.7044 695.0573,840.0107 700.0814,830.0152 704.9173,818.739 709.3577,806.6724 713.5162,793.5306 717.4119,779.217 720.9767,763.9456 724.0983,748.2385 726.8237,731.8813 729.0641,715.4113 730.8141,698.9815 732.0716,682.7771 732.8921,666.0516 733.2341,649.331 733.0938,632.7344 732.4674,616.3808 731.3512,600.3893 729.8272,585.5879 727.839,571.2463 725.3442,557.1943 722.4097,543.8115 719.0587,531.1301 715.1953,518.8321 711.0704,507.6738 706.459,497.0133 702.8487,489.7363 698.9375,482.7297 694.7465,476.0302 690.167,469.5127 685.6967,463.8486 680.8558,458.3927 675.9067,453.4575 670.5996,448.8068 665.2129,444.6954 659.7672,441.1039 653.7305,437.7121 647.8708,434.9246 641.6589,432.4704 635.1158,430.4027 628.6276,428.8393 621.861,427.689 609.4212,426.7382 596.7143,427.1123 583.6619,428.8021 569.7998,431.92 554.1607,436.8791 539.0687,443.2155 524.1995,450.8594 500.0177,464.7631 493.1338,468.0 488.6404,469.2679 484.7174,469.4414 481.447,468.582 477.8417,466.4259 474.0231,462.5833 469.5779,456.4656 463.4278,445.405 458.9602,436.1608 452.757,422.0129 442.73,397.6846 419.1843,338.1864 405.618,305.8485 395.2138,282.5433 382.9714,258.2213 377.186,247.952 371.6585,239.2396 365.8759,231.2481 360.8093,225.3675 356.4259,221.386 352.1885,218.7836 348.0804,217.6346 346.0115,217.7001 344.3867,218.1379 341.4251,220.0844 339.1106,223.0909 337.1972,227.245 335.7193,232.5051 334.6449,239.1803 334.075,246.916 334.0129,255.7755 334.4667,264.5807 335.4756,274.3298 336.995,284.5778 338.9874,295.2056 341.474,306.3347 347.0979,326.3824 354.4601,347.181 362.1429,365.3934 370.8106,382.9074 381.028,400.7673 391.0644,416.0011 402.7109,431.2476 415.5025,445.9944 429.7921,460.2503 443.1521,471.8694 453.5619,480.1766 473.1523,494.565 478.9043,498.4395 480.3379,499.0527 481.0,499.0312 481.1719,498.2812 480.0783,495.0979 468.3946,466.5942 460.4484,445.982 425.716,351.1472 412.032,315.3102 399.2334,283.6708 384.8823,251.7509 377.2676,236.6367 370.0285,223.7996 362.8809,212.7077 356.2898,204.1531 350.1,197.9058 346.9668,195.5097 344.3276,193.9457 341.4373,192.7845 339.0257,192.3312 336.4128,192.474 334.2592,193.192 332.2363,194.4773 330.554,196.106 327.5114,200.8647 324.9915,207.7684 323.257,216.0801 322.1787,226.4748 321.8994,237.6221 322.3777,249.9451 323.6429,263.5629 325.5355,277.0848 328.0744,290.9918 331.0729,304.2381 334.6453,317.4945 339.0824,331.7456 344.1553,346.1078 349.6466,360.0197 355.3213,372.8209 365.561,392.9424 377.4572,413.1004 388.364,429.0195 401.1214,445.1173 409.3585,454.5605 416.7555,462.397 424.983,470.4289 434.5086,479.0677 447.8471,490.0761 481.654,515.8711 489.7908,523.2246 495.1974,529.6589 498.554,535.5964 499.5139,538.8611 499.5156,540.9844 498.8379,541.7949 497.4031,541.085 494.4253,537.2052 490.0785,528.8827 485.0026,517.0246 478.7243,500.6486 466.0643,464.4242 426.1513,344.3645 408.6273,294.1138 399.1084,268.2891 389.3649,243.4278 380.6612,222.5961 372.4133,204.4152 362.8547,185.6086 353.0063,168.7001 344.3752,156.3175 340.2257,151.3662 336.3382,147.4167 332.5,144.25 328.8501,141.9672 324.9746,140.3828 321.5932,139.8013 318.0469,140.125 314.9954,141.3116 312.1226,143.3638 309.4424,146.2966 307.2064,149.7018 305.293,153.5243 303.5872,157.9095 301.9966,163.1668 299.5575,175.0796 298.0136,189.0289 297.4028,204.7808 297.7405,221.5311 299.0088,239.0433 301.2342,257.6812 304.218,276.037 307.9958,294.5869 312.4368,312.7148 317.3916,329.858 323.203,347.2614 329.8491,364.7496 337.1347,381.7846 345.125,398.5 351.404,410.4041 358.263,422.3307 365.2575,433.5208 372.7454,444.5741 380.6647,455.3632 388.8203,465.6218 397.1048,475.1925 405.5341,484.1402 413.772,492.2266 422.5178,500.2209 431.6693,508.0513 440.6551,515.1762 456.2231,526.4662 484.3002,545.1324 501.7912,557.6878 507.7041,562.7974 512.368,567.311 516.0,571.375 520.5994,577.2528 523.5921,581.655 526.2137,586.2276 531.7047,597.6294 537.2376,612.1069 554.0907,663.267 563.9796,690.8555 570.5991,707.7433 576.0016,720.4567 583.2573,736.2616 589.2541,748.0995 596.3582,760.6938 602.831,770.9305 609.429,779.924 616.3937,787.9747 622.5351,793.7515 628.6094,798.0312 634.8771,801.0401 640.9259,802.6074 645.3555,802.7935 649.824,802.078 654.2976,800.4416 658.4026,798.0971 662.457,794.9364 666.5004,790.8564 670.4023,785.9048 674.2004,780.0369 677.8574,773.2826 681.1665,766.0724 684.2822,758.1149 687.103,749.6662 689.7604,740.3163 692.1608,730.3381 696.0297,709.2395 698.55,687.5073 699.7776,664.688 699.6265,642.49 698.1168,621.1594 695.1756,600.4379 693.174,590.3519 690.8535,580.6771 688.2279,571.4682 685.4283,563.1037 682.4537,555.4647 678.9,547.5633 675.3104,540.5993 671.5288,534.1718 667.571,528.2886 663.232,522.6926 658.9621,517.9516 654.2899,513.5102 649.203,509.347 644.0666,505.7882 638.8924,502.814 633.3668,500.2723 627.8261,498.3448 621.9653,496.8948 615.8,495.936 609.8053,495.5506 603.9813,495.6804 597.7696,496.3468 591.1682,497.5984 584.57,499.446 578.3744,501.7998 572.4693,504.6655 566.4267,508.2164 560.6839,512.2598 555.0952,516.9038 550.109,521.7905 545.7887,526.7827 541.6506,532.4157 538.3206,537.8589 535.6128,543.2986 533.1019,549.6835 530.8454,556.9198 529.5238,562.9386 528.4701,570.1704 527.8672,584.6816 529.1731,601.3035 530.9401,613.4783 533.5102,627.0668 538.4683,647.5426 546.0116,674.1446 554.5285,700.2512 565.2866,729.763 575.2408,754.0984 584.0326,773.58 593.92,792.723 602.8868,807.9562 611.8842,820.7948 616.5283,826.5067 621.0447,831.4803 625.239,835.5022 629.574,839.0332 634.0294,842.0091 638.2564,844.2193 642.5531,845.8441 646.9033,846.8321 652.35,847.0784 657.799,846.1591 663.3008,844.0242 668.4826,840.8484 673.6253,836.4884 678.374,831.279 683.0424,824.9075 687.5058,817.5488 691.999,808.7681 696.1599,799.2364 700.1117,788.7027 703.8144,777.2095 707.1917,764.9514 710.2309,752.063 712.9553,738.4731 715.3281,724.2969 717.2657,710.0402 718.7652,695.8415 719.8284,681.8217 720.4875,667.4505 720.7564,652.4992 720.599,637.6424 720.0015,622.9797 718.9842,608.984 717.6148,596.0841 715.8388,583.5931 713.6496,571.5946 711.0256,559.8222 708.057,548.629 704.6352,537.675 700.8771,527.4008 696.7997,517.8359 693.1958,510.4777 689.3945,503.6426 685.3638,497.2536 680.9139,490.9891 676.3328,485.2846 671.6358,480.1217 666.5689,475.2394 661.4078,470.9185 656.1705,467.1376 650.5069,463.6678 644.621,460.6595 638.7506,458.1998 632.5466,456.141 626.0344,454.5298 619.6009,453.4456 612.9184,452.8076 606.5358,452.6237 600.1727,452.8396 593.6546,453.4694 587.3767,454.4571 573.8541,457.7702 567.0027,460.0383 560.2799,462.6721 553.1018,465.9501 545.7793,469.8008 538.5658,474.1277 531.5181,478.8774 521.6449,486.5787 505.0312,501.5781 499.4235,505.9836 496.5,507.25 494.0781,507.5312 491.4644,506.7349 489.2,505.0717 485.3594,500.7227 481.0,493.375 476.7564,484.7759 471.0972,472.0093 460.677,445.2468 424.0969,343.5331 407.5952,299.7388 399.4899,279.3446 391.2751,259.8549 383.8284,243.2064 376.825,228.7317 368.9299,214.0898 360.9161,201.0447 353.49,190.8366 346.7161,183.5042 343.6048,180.907 340.2132,178.7017 337.309,177.3909 334.5188,176.7074 331.8526,176.6666 329.3201,177.2838 326.9311,178.5745 324.6953,180.5541 322.9857,182.6986 321.3987,185.3315 318.7002,191.9331 316.6514,200.2211 315.2285,210.5252 314.565,221.9036 314.6195,234.3556 315.4041,247.4502 316.9385,261.64 319.1131,275.9998 321.9309,290.7197 325.2086,304.948 329.0283,319.0176 333.587,333.6209 338.6251,347.9122 344.2099,362.1303 350.2039,375.9033 355.6515,387.1673 361.5075,398.2156 367.911,409.3051 374.6119,420.0166 381.603,430.3925 388.4844,439.8212 395.8257,449.0851 403.7928,458.3531 419.032,474.2624 435.0656,488.7191 450.4797,501.1439 480.9358,523.5659 490.8181,531.7817 495.5594,536.323 499.5287,540.6756 501.9295,543.8351 505.2889,549.0629 509.6075,558.4304 511.9864,566.3138 515.46,584.4501 517.265,597.101 520.6853,616.1802 523.5226,629.4882 527.4849,645.6691 537.1026,680.2732 547.3029,712.6431 557.2325,741.7192 566.3467,765.931 576.2392,790.4078 586.5762,813.1614 596.3881,832.6131 606.105,849.0917 616.0607,863.4233 620.4899,868.9591 625.1793,874.137 629.7442,878.5135 634.1471,882.1192 638.6601,885.1885 643.2743,887.6673 647.6641,889.4005 652.108,890.5117 658.2618,890.9004 664.5434,889.9068 670.91,887.4276 676.9811,883.6149 682.717,878.6254 688.5996,871.9861 694.276,863.962 699.6909,854.7224 704.9673,844.0936 710.0602,832.1159 714.9247,818.8294 719.381,804.7337 723.5363,789.4943 727.2736,773.5505 730.6454,756.733 733.6114,739.1931 736.0825,721.4723 738.0502,703.7435 739.5097,686.1609 740.4767,668.4659 740.9543,650.4322 740.9257,632.5409 740.3874,614.9061 739.3359,597.6419 737.8484,581.596 735.8861,566.0921 733.5081,551.5672 730.6142,537.4745 727.2032,523.8285 723.3757,511.0019 719.0199,498.643 714.2776,487.1767 710.6023,479.4043 706.5843,471.8206 702.3853,464.7644 698.0177,458.2405 693.3286,452.0219 688.333,446.1281 683.2241,440.7836 677.7266,435.7134 672.1407,431.2039 666.1867,427.0338 660.179,423.4251 654.1403,420.347 647.8405,417.6707 640.9061,415.2663 634.0246,413.3839 626.8408,411.9182 614.2651,410.4823 601.4712,410.3609 587.7938,411.544 573.5319,414.0799 556.6561,418.5841 539.8278,424.5258 526.1181,430.3639 497.8768,443.9539 489.4843,447.3906 483.9026,448.7038 479.4907,448.963 475.4873,448.1825 471.6737,446.3096 466.7788,441.8512 462.4398,436.5058 457.1355,427.8902 451.8717,417.8044 443.0959,398.9818 409.701,320.963 395.9043,291.5652 384.4341,270.0472 379.7857,262.3491 375.331,255.7873 370.3681,249.4566 365.9216,244.686 362.2353,241.6286 358.9921,239.8423 355.7329,239.0888 352.703,239.5813 350.0702,241.4279 348.0729,244.2441 346.4176,248.2577 345.3056,253.0012 344.5981,259.02 344.3759,265.9675 344.6413,273.8945 345.4081,282.2402 346.6072,290.7392 348.3184,300.0243 352.8012,318.4561 358.8615,337.1892 366.5618,356.7011 374.2481,372.932 383.9262,390.4337 392.5964,404.1685 402.7365,418.1036 413.3239,430.9955 426.2639,444.51 432.411,450.269 441.7292,458.3036 449.5362,464.3652 455.8349,468.6616 462.092,472.2425 465.3908,473.1194 466.305,472.9224 466.8101,472.3612 467.0865,469.8424 466.4365,466.1414 463.7344,457.8477 458.2887,443.1036 426.6762,359.8286 408.4351,315.0466 397.9006,291.1301 389.6243,273.8327 380.5998,257.0326 372.406,243.8246 364.7295,233.7997 361.1474,229.993 357.7002,227.0025 354.6683,225.0477 351.7673,223.9102 349.01,223.637 346.5609,224.198 343.588,226.2908 341.2974,229.5131 339.4152,233.9845 338.0213,239.6101 337.1702,246.3158 336.8429,254.4105 337.0791,263.4658 337.8231,272.9163 339.0536,282.4887 340.8538,292.8584 343.1515,303.5557 345.9101,314.4564 352.216,334.8596 360.305,355.8176 368.4327,373.5756 377.2828,390.0785 388.5532,408.2647 398.8283,422.6143 412.2113,438.7464 423.5718,450.7637 438.0508,464.212 453.6855,476.711 464.1456,484.3344 471.9466,489.4801 475.25,491.125 476.262,491.335 476.866,491.065 477.0278,490.2421 476.75,488.7037 474.5372,482.1268 457.7489,439.0274 429.7786,363.6345 417.7337,332.1357 402.6193,294.6863 394.9184,276.9636 387.9042,261.8129 380.3685,246.8952 372.6348,233.0289 365.9714,222.512 359.7904,214.2994 353.4169,207.6587 350.4057,205.2399 347.8186,203.6072 345.0185,202.3843 342.6363,201.8701 340.3626,201.9207 338.0382,202.634 336.2153,203.7474 334.3298,205.5457 331.43,210.1494 329.1409,216.5216 327.5,224.625 326.5937,234.0323 326.4189,245.0846 327.0183,257.2927 328.3354,270.0197 330.2069,282.392 332.8165,295.5279 336.0511,308.8559 339.9554,322.6043 344.375,336.25 348.8601,348.5094 354.0224,361.0683 359.8513,373.8074 370.6028,394.4523 381.8967,412.9808 388.0576,421.9923 394.6331,430.9209 401.4826,439.5593 408.347,447.5681 419.9848,459.9231 432.06,471.4389 450.5386,486.9555 474.5512,504.9345 481.4264,510.4823 488.9033,517.5186 491.468,520.894 492.2222,522.2824 491.9297,522.2832 490.2205,520.0722 486.9388,514.1046 481.9587,503.25 475.6499,488.0171 466.7252,464.0141 429.017,355.6864 411.2246,306.3105 401.2237,280.4593 391.4366,256.2974 383.4817,237.901 375.916,221.7916 366.9556,204.4483 358.5126,190.1806 350.8393,179.3892 347.052,174.9431 343.2793,171.1081 339.6082,168.01 336.0516,165.6871 332.622,164.1772 329.6252,163.5421 326.4734,163.69 323.75,164.625 321.3266,166.2266 318.9022,168.7317 317.0213,171.4622 315.3034,174.7393 312.3814,182.8838 310.2691,192.5603 308.8427,204.3382 308.3087,217.0531 308.5869,230.972 309.6864,246.2833 311.5793,262.4036 314.0122,277.7907 317.0035,292.6187 320.7118,307.8285 325.215,323.658 330.5039,339.9363 336.4909,356.3006 342.3611,370.578 348.9382,384.8968 354.9595,396.7963 361.3467,408.3923 368.0487,419.5991 375.0171,430.3188 382.0789,440.2873 389.6115,450.0858 397.533,459.6144 406.1783,469.2692 413.4323,476.8007 421.2256,484.2874 429.5612,491.7197 438.9967,499.5918 453.1485,510.5104 482.7441,531.7641 494.9194,541.3288 498.7928,544.9184 504.1662,550.6243 507.1296,554.2759 510.4438,559.0691 513.5708,564.3962 516.6742,571.0404 521.4306,584.7361 525.2617,598.6484 531.1747,622.5501 540.1308,655.1139 547.6061,679.615 551.7922,692.2545 559.5158,714.2364 569.1574,739.22 575.4806,754.2789 583.2184,771.1664 591.0968,786.9506 599.378,801.5894 607.5473,814.2483 615.3011,824.3554 623.3105,832.8534 627.3294,836.3974 631.5454,839.5967 635.2907,841.9252 639.1227,843.7799 643.0259,845.1274 646.6227,845.8845 652.078,846.1285 657.5698,845.2276 662.7668,843.2409 667.8403,840.1574 672.9221,835.8969 677.9614,830.4391 682.663,824.1268 687.2369,816.6982 691.5384,808.3521 695.7291,798.771 699.7349,788.0982 703.5083,776.4255 706.9007,764.2388 709.9868,751.2825 712.6435,738.0763 714.879,724.688 716.8114,710.3954 718.3114,696.1184 719.4396,681.2246 720.1204,666.5926 720.3698,652.3399 720.1952,638.1861 719.5652,623.83 718.5299,610.0249 717.0868,596.5677 715.238,583.5283 712.9855,570.9764 710.4152,559.3262 707.4684,548.2651 704.213,538.0293 700.4208,527.8399 696.1582,518.0103 692.496,510.6406 688.6529,503.7785 684.6431,497.4227 680.2786,491.306 675.7625,485.7421 670.8622,480.4653 665.9704,475.8423 660.6924,471.4918 655.3505,467.6931 649.6463,464.2424 643.915,461.3478 638.1796,458.9773 631.8599,456.9191 625.2578,455.2988 618.7641,454.2042 612.023,453.573 605.7989,453.4329 599.3762,453.7214 592.7263,454.4537 586.0662,455.5801 572.9925,458.9423 559.4151,464.019 552.4769,467.2593 545.5091,470.9893 538.8205,475.0389 532.4175,479.4341 520.2408,489.0536 504.5742,503.6797 499.8538,507.3815 497.3098,508.6031 494.508,509.0133 491.9718,508.3609 489.536,506.722 485.1483,501.2475 481.7026,495.4162 476.913,485.6722 470.508,470.8239 458.3981,439.1389 424.0008,343.1295 407.887,300.0676 399.4943,278.8308 391.6921,260.1701 384.0218,243.0428 376.6491,227.8118 368.2891,212.1853 360.4393,199.3523 352.946,189.0602 346.1881,181.7409 342.9144,178.9963 339.7279,176.9174 336.875,175.625 333.8601,174.9198 330.9893,174.9596 328.5722,175.6246 326.0193,177.0854 323.9111,179.0214 320.6224,183.8638 317.8331,190.7796 315.8051,199.1627 314.4167,209.4399 313.7629,221.1787 313.857,234.2063 314.6703,247.8061 316.185,261.7068 318.3922,276.1061 321.3245,291.2058 324.8818,306.4504 329.0174,321.6591 333.261,335.161 338.2238,349.0521 343.75,362.8556 349.937,376.7944 355.7692,388.8021 361.3163,399.3169 367.5219,410.1013 374.059,420.5379 381.2891,431.1616 388.7298,441.2474 396.2422,450.6544 404.1474,459.7626 411.8648,468.0038 420.0358,476.1692 427.8082,483.4873 435.4768,490.1692 453.9059,504.7448 482.078,525.406 490.7052,532.5131 497.6504,539.2466 501.9858,544.3436 504.6975,548.2004 508.6732,555.6563 512.4037,565.7513 514.75,575.125 520.6524,607.264 525.7888,631.5231 534.8932,665.8527 541.6294,688.2718 551.694,719.1983 559.7544,741.8319 569.3053,766.8757 579.6484,791.4623 588.7053,810.8083 598.1776,828.6715 607.3494,843.8066 616.4203,856.4024 620.9693,861.8118 625.4182,866.5144 630.0,870.75 634.2422,874.0916 638.6024,876.9171 643.0666,879.172 647.2675,880.7003 651.5341,881.6536 657.6693,881.9365 663.8827,880.8584 669.7564,878.4655 675.5756,874.701 681.4084,869.5005 686.9535,863.1547 692.42,855.4414 697.7634,846.3344 702.7765,836.1676 707.6973,824.4338 712.28,811.7256 716.6036,797.8637 720.523,783.34 724.1098,767.903 727.3212,751.6424 730.045,735.1368 732.3406,718.1976 734.204,700.8597 735.6101,683.2656 736.5193,665.9427 736.9395,649.0273 736.8741,632.2599 736.312,615.9726 735.2521,600.01 733.7161,584.4965 731.66,569.1103 729.1339,554.3368 726.1537,540.2468 722.7352,526.9109 718.8944,514.4 714.6047,502.6589 709.9553,491.8235 706.2973,484.3598 702.2765,477.0308 698.0866,470.2153 693.743,463.9067 689.261,458.098 684.434,452.5414 679.4899,447.518 674.1422,442.7586 668.546,438.3945 662.5561,434.3411 656.5209,430.8413 650.4617,427.8647 644.0636,425.2565 637.6878,423.1611 631.0282,421.4701 624.115,420.2011 611.9004,419.011 599.0786,419.1062 585.4572,420.5636 571.5453,423.3116 563.4781,425.4732 555.5671,427.9947 538.3906,434.6832 522.4168,442.2409 499.7344,454.3438 491.266,458.0964 486.4865,459.2806 482.217,459.4511 478.6088,458.575 474.7005,456.4516 470.6041,452.6013 466.2828,447.028 460.625,437.375 456.3513,428.8784 445.7237,404.9523 416.6885,334.5015 406.6396,311.0883 395.146,286.0871 384.011,264.5986 378.5231,255.1181 373.6251,247.5401 368.4739,240.5676 363.602,235.0136 359.4543,231.3349 355.5,229.0 351.7697,228.0543 348.4517,228.5461 345.8272,230.2627 343.5536,233.2275 341.629,237.5723 340.2787,242.851 339.4145,249.1483 339.0295,256.8432 339.1811,265.3102 339.8581,274.2141 341.0548,283.6993 342.7415,293.6392 344.8883,303.9073 347.4287,314.1872 353.5776,334.0707 361.4554,354.6092 369.2635,371.7901 378.1636,388.4755 387.7724,404.1466 398.422,419.1658 410.083,433.7661 420.3303,444.8801 434.5281,458.4897 449.9917,471.3927 459.6864,478.461 467.887,483.8017 472.0,485.75 473.0231,485.9259 474.0023,485.5301 474.183,484.2 473.929,482.55 471.7215,475.759 456.4477,436.2908 422.8484,346.6826 404.9865,302.0892 396.5791,282.8257 389.1498,266.768 381.9923,252.5743 374.4733,239.2097 367.8308,228.6936 361.7455,220.5185 356.0224,214.479 353.1289,212.082 350.3349,210.2437 347.6534,208.9947 345.4098,208.4092 342.9749,208.3476 340.9672,208.8482 337.8258,210.9275 335.1203,214.4472 332.8896,219.3765 331.2685,225.2293 330.0602,232.8208 329.5022,240.6596 329.4839,249.7458 330.0205,259.6147 331.0878,270.14 332.7322,281.63 334.7414,292.5757 337.1944,303.5454 340.2831,315.3453 343.8114,327.1395 347.8588,339.1797 352.0145,350.2528 360.6368,370.0939 370.7171,389.8222 380.8147,406.8666 392.3727,423.6501 404.8321,439.5425 417.8167,453.8498 431.5588,467.1691 449.2683,482.2113 479.065,504.7425 487.4444,511.963 479.1192,494.3678 474.0314,481.9987 466.7078,462.8146 454.8355,430.3377 429.6731,359.2252 408.4957,302.0288 392.1866,262.096 385.3013,246.5559 378.6664,232.6104 369.8524,215.7492 361.7608,202.198 354.1279,191.4714 347.0386,183.6612 343.468,180.6321 340.3145,178.5395 336.963,177.0 334.0365,176.3243 331.2377,176.3673 328.4726,177.2095 326.0771,178.7492 323.8798,181.0017 320.7307,186.1789 318.1639,193.1404 316.2114,201.8093 314.9043,212.3711 314.4083,223.5384 314.6155,236.1866 315.5337,249.7947 317.1445,264.1612 319.2159,277.7153 321.938,291.6668 325.2458,305.7206 329.1946,320.1151 333.6481,334.3421 338.524,348.1851 343.8273,361.5801 349.6523,374.7942 355.4374,386.7435 361.591,398.4404 368.3117,410.2384 374.4943,420.2058 381.2188,430.1439 388.431,439.9428 396.0485,449.4999 404.2944,459.0956 411.3588,466.6876 419.045,474.3436 436.561,490.0808 448.9258,499.9871 477.1159,520.928 489.5094,530.7491 498.4343,539.545 501.9954,544.0556 504.741,548.1633 508.8284,556.4671 511.8621,565.6308 514.9399,580.2137 518.6761,603.9798 523.0822,626.2535 526.3224,640.0329 530.7749,657.0397 536.8777,678.4349 546.1036,708.1212 556.2923,737.9977 567.8817,769.0364 576.7075,790.4781 587.3089,813.8307 595.9629,830.7742 605.7911,847.4659 615.7893,861.9412 620.373,867.6237 625.1177,872.8406 629.7395,877.2663 634.2078,880.9237 638.785,884.0297 643.5335,886.5573 647.8761,888.2059 652.3156,889.2189 658.5934,889.4926 664.9854,888.3526 671.0897,885.8757 677.2237,881.9411 683.0005,876.7963 688.5226,870.4211 694.1677,862.3548 699.5183,853.157 704.7239,842.6041 709.7444,830.7174 714.5397,817.5179 718.9427,803.4683 723.0852,788.1799 726.8142,772.2351 730.1759,755.4528 733.1234,737.9722 735.5094,720.7441 737.433,703.1268 738.8696,685.1328 739.815,667.1488 740.2741,649.1679 740.2347,631.32 739.7018,614.1133 738.6681,597.2795 737.2018,581.6541 735.3083,566.9294 732.8531,552.1966 729.9168,538.0003 726.5494,524.5512 722.6562,511.5156 718.4828,499.6664 713.8074,488.3355 710.0997,480.5049 706.203,473.188 701.8931,466.0117 697.5096,459.491 692.7378,453.1527 687.8341,447.3572 682.5485,441.8242 677.1554,436.854 671.6746,432.4267 665.847,428.3406 659.9674,424.8083 653.9067,421.7213 647.5894,419.0094 640.9262,416.6659 633.9396,414.7389 627.0203,413.3283 614.5163,411.9276 600.9953,411.8569 587.3737,413.0334 573.2648,415.5309 556.1363,420.1104 540.0546,425.8044 523.9359,432.9039 497.2959,445.9887 489.9888,448.873 484.3901,450.2919 480.0836,450.5231 475.4419,449.5209 471.8739,447.609 467.2292,443.436 462.97,437.94 458.239,430.4775 452.7742,419.8613 447.8436,409.5005 439.7898,391.3107 416.9962,337.1617 406.3611,313.1593 395.3512,289.9376 384.8688,270.1505 379.8634,261.8437 374.6366,254.1015 369.909,247.9148 365.8237,243.4383 362.1035,240.2849 358.2953,238.1273 354.6875,237.3125 351.795,237.9091 349.5225,239.5473 347.3519,242.6187 345.768,246.483 344.5113,251.7226 343.7297,258.0429 343.4469,264.9978 343.6912,272.4978 344.4302,280.6033 347.4573,299.5307 351.4516,316.1623 357.9686,336.5467 361.8596,347.0717 365.5835,356.0988 373.5836,372.9906 383.1951,390.5972 392.2524,404.7317 403.3117,419.8621 413.9558,432.6137 425.8447,445.1224 440.1846,458.0676 451.5,466.75 457.977,471.1358 462.915,473.983 466.2157,475.0623 467.0292,474.9377 467.8557,474.2259 468.1528,472.7917 467.9824,470.8516 465.931,463.5319 455.0866,433.944 421.6032,346.6401 403.3214,302.4678 395.4876,285.1411 384.6902,263.4608 377.1655,250.003 369.9076,238.9215 362.9748,230.2399 359.6407,226.8999 356.6481,224.479 353.7818,222.7577 350.7847,221.654 347.9904,221.4197 345.726,221.9528 342.8084,223.9528 340.4345,227.2108 338.5743,231.5361 337.1049,237.3118 336.1659,244.2559 335.7652,252.32 335.896,260.6667 336.5587,269.8503 337.738,279.605 339.4136,289.8296 341.6573,300.8362 344.1396,311.0635 347.1125,321.6482 350.5854,332.5614 354.4144,343.3487 358.7331,354.3601 366.6946,371.9254 376.0443,389.4996 386.424,406.5227 397.5231,422.2824 409.192,436.6916 422.0761,450.4923 434.3204,462.2654 450.2531,475.4989 462.45,484.5 471.3593,490.6189 476.4012,493.7278 477.6345,494.1345 478.2998,494.0023 478.5127,492.5394 477.0974,488.3643 465.0279,458.0637 456.3114,435.2577 434.4339,375.6126 418.4921,333.3461 400.2964,288.0605 394.1927,274.0688 386.6074,257.8114 379.0153,242.6549 372.0025,230.1002 364.6982,218.7798 358.125,210.1719 352.0298,203.8961 349.2004,201.6749 346.3524,199.9671 343.7309,198.8999 341.2418,198.4019 338.8898,198.4845 336.68,199.1593 334.6173,200.4376 332.97,202.0223 330.019,206.584 327.6414,213.0238 325.9849,221.1002 325.0168,231.122 324.8117,242.6496 325.3292,254.4665 326.6333,267.4129 328.6094,280.6177 331.2371,294.2528 334.4302,307.9735 338.0073,320.9012 342.2276,334.0516 347.1814,347.66 352.8381,361.5535 358.7521,374.6468 363.7349,384.6142 369.2656,394.7812 381.4015,414.6496 387.2443,423.264 393.2955,431.4964 406.6846,447.768 420.4239,462.452 435.6234,476.5098 449.731,488.1351 479.5137,510.8716 486.718,517.1192 489.2169,519.6355 492.7989,524.1988 494.5554,527.3425 494.7269,528.5324 494.026,528.393 492.1372,526.0426 488.593,519.894 484.2414,510.523 477.7664,494.773 470.1586,474.2983 460.1903,446.0722 432.6297,365.2482 410.6349,302.8795 399.9256,274.7095 391.146,252.679 383.28,234.2637 375.5231,217.5825 366.2292,199.3918 357.4423,184.3481 349.2881,172.6934 345.2785,167.8933 341.3413,163.8268 337.4932,160.5415 334.058,158.2572 330.4267,156.6031 327.2182,155.8945 324.1378,155.9964 321.3676,156.8654 318.6297,158.5994 316.0998,161.1542 314.1309,163.9426 312.3274,167.293 309.2468,175.6329 306.9184,186.0801 305.456,197.9568 304.8159,211.4171 305.023,226.5758 306.1038,242.8482 308.0003,259.5414 310.5459,275.7241 313.8243,292.0505 317.8785,308.7639 322.5695,325.3228 327.9473,341.9115 333.7394,357.7174 340.0629,372.9938 346.9641,387.8802 353.1415,399.9861 359.8476,412.0713 366.8481,423.6942 373.8175,434.3363 381.1204,444.5565 388.9078,454.5779 397.0968,464.3048 406.0249,474.136 413.7713,482.0346 421.9525,489.7234 430.9097,497.5276 441.6581,506.3271 454.7251,516.1389 485.3657,537.5259 497.4031,546.95 501.6361,550.7669 507.091,556.4495 510.4011,560.4454 513.431,564.801 516.7462,570.0282 518.875,574.125 522.7962,583.1023 526.1796,592.7816 528.2949,599.4521 539.5568,639.5438 545.0517,657.7939 553.3253,683.246 559.6671,701.4379 565.3818,716.645 572.4602,734.0937 578.1543,747.3444 584.1063,760.0156 592.0411,775.455 599.0,787.4943 606.766,799.2044 614.5337,809.2416 621.7081,816.8434 628.9337,822.791 632.5054,825.0866 636.1387,826.9766 639.543,828.3179 642.7414,829.1736 648.1696,829.7356 653.2995,829.218 658.4401,827.6206 663.1796,825.1071 667.9051,821.5005 672.4843,816.897 677.0083,811.2124 681.4333,804.4502 685.715,796.6138 689.6194,788.1549 693.278,778.8409 696.724,768.5893 699.9145,757.5101 702.8151,745.6917 705.3917,733.2226 707.5465,720.606 709.3048,707.7853 710.7544,694.0356 711.782,680.3927 712.4139,666.6053 712.6317,653.1716 712.4421,639.8162 711.8521,627.0179 710.8697,614.6931 709.4217,601.9596 707.5741,589.6238 705.3367,577.7493 702.8096,566.7569 699.9356,556.3139 696.7234,546.4778 693.049,536.967 689.0151,528.008 685.2864,520.7869 681.1696,513.7727 676.8658,507.3383 672.178,501.2174 667.3294,495.7284 662.4034,490.915 657.2843,486.5768 651.7933,482.591 646.2629,479.2115 640.3799,476.2528 634.158,473.7735 628.0513,471.9315 621.3419,470.4979 614.7816,469.6533 608.0096,469.3373 601.4289,469.549 594.5272,470.2942 587.4307,471.5666 580.3708,473.3476 573.7302,475.5209 566.9736,478.2525 559.7456,481.7272 553.211,485.401 546.8985,489.4925 540.4304,494.2995 534.8783,499.0861 529.16,504.8232 523.899,510.808 519.8208,516.0655 514.7627,523.6149 507.4918,536.4114 505.2171,540.0401 503.6836,541.877 502.1089,543.0134 500.6975,543.2019 498.875,542.5 497.6039,541.4673 494.5047,537.4721 490.2715,529.34 485.1295,517.6723 481.9874,509.6145 465.9559,464.4207 426.345,344.3525 409.3172,295.2128 399.1181,267.3676 389.9276,243.6891 380.2713,220.5027 371.5133,201.0595 362.1912,182.469 353.2689,167.1113 348.5831,160.0612 344.2087,154.1343 339.8864,148.9586 335.8965,144.844 331.9811,141.4962 328.1542,138.9666 324.4297,137.3069 321.0775,136.5899 317.9521,136.6846 314.719,137.6789 311.6843,139.5979 309.0892,142.1646 306.6845,145.4997 304.6731,149.1949 302.8368,153.5185 301.1842,158.4676 298.5134,170.0543 296.7647,183.7629 295.9577,199.6716 296.1423,216.7407 297.3003,235.0258 299.4002,253.8631 302.3589,272.7164 306.1604,291.7805 310.8439,311.1835 316.1701,329.932 321.8917,347.3752 328.4138,364.7323 335.7584,381.9791 343.7039,398.608 350.4395,411.4034 357.5,423.75 364.4602,434.9256 371.7546,445.6713 379.7881,456.5477 388.2562,467.1009 397.4966,477.7279 406.3723,487.1512 414.3283,494.8931 422.9164,502.6169 432.5013,510.6285 443.3855,519.185 458.852,530.184 491.3519,551.5546 503.2641,560.2726 507.9674,564.2166 513.2405,569.2355 517.3878,573.6086 520.5789,577.5446 524.4488,583.1863 527.7818,588.7296 534.6735,603.0764 540.6025,619.106 557.6797,669.6212 567.1847,695.3177 579.8417,725.0447 585.4183,736.6757 591.8107,748.9689 597.4833,758.7342 603.6131,767.9962 610.154,776.7307 616.0737,783.4278 622.0128,788.8929 628.1642,793.2954 633.8051,796.1636 639.63,797.7678 644.058,798.053 648.4906,797.4938 652.8866,796.0384 656.8615,793.8624 660.9932,790.6835 664.83,786.8595 668.838,781.8886 672.4744,776.3998 675.9178,770.1864 679.1724,763.2072 682.2487,755.4377 685.1162,746.9425 687.7441,737.7863 690.0096,728.4511 693.7069,708.3699 696.2789,686.4576 697.4798,664.5006 697.2902,642.9625 695.7519,621.7991 693.0169,602.3262 691.1882,593.056 689.0521,584.1665 686.3876,574.8755 683.5213,566.3022 680.2523,557.8758 676.8767,550.3592 673.4387,543.7071 669.9779,537.8701 665.964,532.0047 661.7991,526.6817 657.5203,521.9055 652.8627,517.4165 648.3868,513.7303 643.5467,510.3725 638.1295,507.3103 632.5568,504.7692 627.0471,502.8212 621.6056,501.4344 615.8826,500.5375 610.375,500.1988 604.0556,500.3118 598.0101,500.9253 591.864,502.1141 585.8446,503.8881 579.5856,506.3294 573.478,509.3192 567.8839,512.6628 562.7322,516.3464 557.73,520.603 552.9974,525.3362 548.9216,530.0825 545.3981,534.9491 541.8958,540.6877 539.1065,546.2203 536.7456,552.0855 534.7867,558.3072 533.3854,564.5286 532.3466,571.3314 531.7624,578.2315 531.5782,585.5042 532.3283,600.2925 535.0476,618.6764 539.405,639.0911 544.5188,658.8092 552.8067,685.6235 561.8611,711.9306 573.167,740.7678 582.0686,760.5923 591.5531,779.5597 600.6896,795.3301 609.7996,808.8587 618.3354,819.1694 622.8219,823.657 627.1673,827.4019 631.5279,830.5639 635.3576,832.7756 639.6296,834.5972 643.6137,835.691 649.1204,836.2361 654.3025,835.6954 659.5109,834.0652 664.3648,831.4611 669.498,827.5138 674.3429,822.6072 679.1039,816.563 683.4897,809.7782 687.649,802.0759 691.6827,793.2161 695.5262,783.3163 699.0287,772.8255 702.3869,761.1269 705.3487,749.0541 707.9922,736.3198 710.2302,723.3568 712.1731,709.4909 713.6882,695.607 714.807,681.4693 715.4917,667.5873 715.7538,654.0798 715.5969,640.6667 714.9941,627.0059 713.9948,613.7494 712.598,600.809 710.806,588.2576 708.6209,576.1684 706.1288,564.9561 703.2713,554.3137 699.8887,543.7745 696.1706,533.8851 692.1539,524.6896 688.5665,517.5068 684.6158,510.517 680.484,504.0797 676.1875,498.1995 671.6426,492.7642 666.6593,487.5547 661.5787,482.9398 656.1121,478.6709 650.5757,475.0047 644.9898,471.9083 639.0623,469.2217 632.9447,467.0251 626.3469,465.2179 619.8656,463.984 613.1444,463.25 606.5837,463.0497 600.0185,463.34 593.215,464.0915 586.3354,465.301 579.7891,466.8878 573.2407,468.9175 566.6214,471.4293 560.1632,474.3329 553.8915,477.6118 546.5695,482.0147 539.6781,486.7013 533.7068,491.3249 527.8492,496.4889 518.0898,506.5371 505.3433,522.6072 502.1584,525.8721 500.2296,527.1298 498.1756,527.6451 496.41,527.152 494.3102,525.7593 490.5481,520.9602 486.5,513.875 483.0036,506.2994 477.338,492.7454 469.2926,471.3213 459.7698,444.6317 430.3171,358.1729 409.4702,299.373 399.4019,272.901 390.581,250.8316 382.6986,232.395 375.1103,216.0642 365.7838,197.7495 357.3532,183.1891 349.4936,171.7937 342.0356,163.2859 338.2504,159.8731 334.5689,157.2237 331.0042,155.3767 327.8758,154.4268 324.5701,154.22 321.6986,154.8257 318.9132,156.2526 316.483,158.319 314.4076,160.8364 312.5003,163.9268 310.6312,167.9068 309.0952,172.1508 306.5952,182.2297 304.9022,194.347 304.0958,207.9526 304.1785,223.1655 305.161,239.542 306.9834,256.4018 309.506,273.0203 312.7402,289.6609 316.8074,306.8005 321.547,323.7799 327.0053,340.7941 333.1385,357.6426 339.5046,373.1524 346.5349,388.3586 352.8414,400.6853 359.525,412.67 366.533,424.252 374.0279,435.6893 381.2931,445.8561 388.7989,455.5189 396.955,465.1996 405.4143,474.4863 413.3803,482.6406 421.2189,490.0809 429.6563,497.5145 439.0391,505.2231 454.3835,516.8492 486.7789,539.3729 497.8807,548.1382 502.2667,552.0324 506.5147,556.3989 510.5622,561.0254 513.625,565.125 516.7109,570.0339 519.4062,575.0729 522.9918,583.0214 525.2424,588.8539 529.9105,603.3531 547.9227,664.5244 561.2805,703.3489 571.506,729.5888 579.9025,748.7129 584.8729,759.1789 592.6459,773.9467 600.6703,787.6781 607.6834,797.9712 615.1475,807.289 622.2483,814.6809 629.4444,820.4256 633.0057,822.6058 636.6258,824.3684 640.2912,825.6763 643.651,826.4397 648.5592,826.7575 653.4712,826.0757 658.4196,824.3558 663.3704,821.5509 667.963,817.9126 672.6824,813.0388 677.012,807.4105 681.0563,801.0328 685.1362,793.3851 689.0413,784.7582 692.7395,775.1873 696.0599,765.1619 699.0985,754.4529 701.9186,742.7596 704.356,730.7715 706.4689,718.2581 708.1802,705.7194 709.5326,692.8773 710.4925,679.9499 711.0675,666.8069 711.2498,653.6353 711.0371,640.5238 710.4268,627.5607 709.4522,615.2047 708.0986,603.1528 706.3905,591.64 704.2952,580.4164 701.8518,569.678 699.0757,559.4576 695.8616,549.4408 692.455,540.377 688.62,531.6302 684.731,524.0046 680.5896,516.9006 676.0431,510.0721 671.3243,503.895 666.4532,498.3542 661.4496,493.4348 656.0752,488.9219 650.5058,484.9814 644.5438,481.4439 638.5737,478.5474 632.2679,476.1422 626.004,474.379 619.8081,473.2185 612.6442,472.5021 605.5866,472.3542 598.4047,472.776 591.4979,473.7296 584.4231,475.2603 577.5797,477.2564 570.5128,479.877 563.6299,482.9961 556.9159,486.5846 550.6716,490.4776 544.4642,494.9675 538.5406,499.922 532.889,505.4298 527.0279,511.9886 522.0993,518.3913 519.0217,523.0605 516.1169,528.187 512.0833,536.1128 507.0427,547.3376 504.9676,550.7269 503.5278,552.088 502.0,552.375 500.7188,551.8281 498.8384,550.2153 495.0791,544.2316 490.9906,535.6588 481.4566,511.1878 474.8462,492.559 466.0517,466.1409 435.9823,372.2997 414.0669,306.6309 401.9353,272.5032 392.3951,246.7619 383.7404,224.834 375.3677,205.2259 365.8778,184.8316 356.8867,167.5957 348.3279,153.4325 340.2442,142.3754 336.1102,137.6463 332.0399,133.663 328.0485,130.4715 324.4475,128.2677 320.9388,126.8137 317.5345,126.1452 314.2465,126.2985 311.2683,127.2258 308.3819,128.9636 305.4922,131.6914 302.8252,135.2957 300.5487,139.4331 298.3498,144.6758 296.5332,150.3077 294.9551,156.6364 293.6263,163.6459 291.7858,179.4734 291.1151,197.2306 291.6014,217.0562 293.2473,238.1992 295.8439,258.9673 299.3429,279.5295 303.8287,300.1852 309.2943,320.9903 315.7923,342.0425 323.0195,362.3257 330.7291,381.2272 339.2156,399.4285 346.1468,412.7588 353.6482,425.9461 361.6686,438.8584 369.8826,450.995 377.9387,461.8801 386.4946,472.4592 395.4737,482.6394 405.2552,492.8317 414.238,501.5152 422.7862,509.1612 431.9288,516.6958 441.7722,524.1993 460.7336,537.4312 496.784,560.2585 507.2572,567.859 517.1488,576.2711 521.9049,581.2754 526.0787,586.2685 529.7988,591.5228 533.986,598.3953 537.2351,604.558 540.8736,612.4336 544.875,622.25 561.369,667.6333 571.7619,694.5445 582.896,719.4004 588.2229,729.967 593.9426,740.4661 599.3647,749.4605 604.9503,757.6314 610.914,765.2699 615.9019,770.6665 621.3893,775.5104 627.0378,779.3946 632.263,781.9815 637.4088,783.3524 641.5103,783.6121 645.6104,783.1229 649.6605,781.8581 653.3645,779.9428 657.2788,777.0542 660.888,773.5608 664.4161,769.3018 667.8255,764.2812 671.0523,758.5549 673.965,752.3999 676.721,745.5624 679.2925,738.1013 683.7708,721.5448 687.2017,703.2713 689.5387,683.8564 690.6053,664.4527 690.3495,645.167 688.8472,625.6713 686.2599,607.7424 682.5514,591.0415 677.6018,575.1109 674.6897,567.6184 671.5399,560.6215 665.3893,549.5011 661.7855,544.146 657.8086,538.9565 653.9688,534.5781 649.768,530.4235 645.7442,527.0087 641.375,523.875 636.7046,521.0927 632.043,518.8217 627.0429,516.9177 622.0742,515.543 617.1481,514.6645 611.6995,514.1996 606.2406,514.2066 600.9962,514.6961 595.5738,515.7354 590.4158,517.2363 584.9112,519.3268 579.8148,521.787 575.0464,524.6331 570.2586,528.0726 565.8813,531.7906 561.7023,535.9888 557.9788,540.4031 554.837,544.8021 551.9266,549.6443 549.3663,554.7761 547.1025,560.4632 544.9158,567.358 543.7096,572.5366 542.7814,578.557 541.95,590.6752 542.3802,605.971 544.2756,621.1616 547.7146,638.733 553.7318,662.0193 559.2193,679.8758 567.0744,702.3088 575.7485,724.2359 584.8271,744.1846 592.1612,758.4247 601.5,774.125 609.4866,785.4932 617.6087,794.8702 621.7276,798.7927 625.8301,802.1223 629.8275,804.7854 633.9062,806.9062 637.7035,808.3289 641.5447,809.2108 646.4345,809.4884 650.7978,808.8543 655.1911,807.3258 659.5784,804.8829 663.9236,801.5055 667.8889,797.5149 671.9067,792.4782 675.6301,786.7903 679.3974,779.9232 682.8485,772.5129 686.1192,764.3172 689.1785,755.3735 692.0125,745.6547 694.5007,735.5909 696.7225,724.9382 698.6522,713.794 701.4958,690.8183 702.8993,667.815 702.922,644.237 701.532,621.4359 698.86,600.7276 696.9166,590.3088 694.6579,580.2909 692.0979,570.7276 689.2467,561.6565 686.1144,553.1153 682.8523,545.4495 679.292,538.2323 675.2287,531.0997 670.9679,524.5868 666.5328,518.6847 661.9468,513.3848 656.9817,508.4468 651.9023,504.1563 646.7192,500.4717 641.1667,497.1892 635.6125,494.5366 629.7237,492.3566 623.5189,490.7048 616.9027,489.6 610.1706,489.0723 603.6836,489.138 597.4242,489.7535 590.5708,491.0621 582.9006,493.2065 576.1838,495.704 569.6298,498.8176 563.1185,502.6265 556.8462,506.995 551.25,511.625 545.2697,517.3954 540.6679,522.6373 536.7695,527.957 533.2503,533.7932 529.8863,540.5212 527.5164,546.5864 525.4306,553.5304 524.0536,560.1409 522.9844,567.8594 522.4409,574.7501 522.4726,581.1586 522.8462,589.1931 524.1578,602.2301 525.6809,612.1552 528.5969,626.6305 532.7267,644.0269 540.1428,670.9158 548.8693,698.6497 559.5587,729.4393 568.0339,751.6403 573.4746,764.9537 584.7265,790.1477 592.5683,805.7548 602.8617,823.5447 608.09,831.6413 612.7917,838.233 617.4601,844.0914 622.3054,849.4662 627.0415,854.0313 631.6296,857.8028 636.055,860.8202 640.5193,863.1865 645.1034,864.9048 649.4203,865.8646 655.2703,866.1268 660.8159,865.227 666.3831,863.1258 671.9639,859.703 677.5083,854.9191 682.7924,849.023 688.0042,841.8345 692.882,833.7414 697.6164,824.4504 702.1248,814.0693 706.453,802.4663 710.5449,789.7601 714.2554,776.4287 717.6501,762.2487 720.6069,747.73 723.1801,732.5899 725.3044,717.1817 727.0616,701.1114 728.3699,685.1394 729.2516,669.0223 729.6785,653.2696 729.655,637.616 729.1773,622.5517 728.2399,607.915 726.8124,593.1917 724.8925,578.5398 722.5263,564.4512 719.8093,551.3558 716.5976,538.5687 713.0808,526.8614 709.1862,515.9288 704.7647,505.4149 697.3232,490.7862 693.2503,484.031 688.8069,477.4743 684.4308,471.7341 679.7001,466.2297 674.8466,461.2539 669.7906,456.7191 664.4181,452.5073 658.6728,448.596 652.9029,445.235 646.782,442.2418 640.6652,439.7944 634.231,437.7625 627.8386,436.2547 620.8509,435.1197 608.3104,434.2153 595.6092,434.698 582.2657,436.6086 568.8716,439.8881 561.1623,442.393 553.4392,445.3261 545.0657,448.9183 537.2517,452.7025 523.5772,460.4345 501.223,474.7508 495.4498,477.7784 491.2635,479.1755 487.8934,479.3418 484.439,478.583 481.319,476.6086 477.1481,472.4213 472.1673,465.085 468.4929,458.284 462.2227,445.186 450.2887,416.3892 420.7195,340.0443 411.6524,317.4078 395.1095,278.6357 389.5376,266.7089 382.3351,252.3904 375.992,240.797 370.1871,231.2983 364.3523,223.0354 358.613,216.1568 353.3957,211.2178 348.7183,208.1782 344.5503,206.9306 342.2877,206.958 340.4616,207.4257 337.4004,209.3594 334.733,212.7031 332.4862,217.4768 330.8939,222.8907 329.7155,229.5748 329.0083,237.6181 328.8345,246.6355 329.1879,256.5345 329.9929,266.2713 331.2824,276.3035 333.0384,286.6864 335.3154,297.704 338.0239,308.8812 341.2014,320.3454 344.6797,331.416 348.5007,342.3087 356.5634,362.3197 365.4373,381.0527 375.3468,398.8471 386.7786,416.6488 398.1359,432.1525 410.6599,446.9882 424.2218,461.0868 439.125,474.625 451.0099,484.2804 477.7193,504.5532 484.6038,510.2716 488.4062,514.0781 483.5805,504.5039 479.3742,495.1774 470.0122,471.9161 451.4951,421.1453 423.1013,340.8475 405.6384,294.326 398.4816,276.4078 390.8087,258.2508 383.6576,242.1072 377.328,228.736 369.3382,213.4756 361.0222,199.6728 353.3809,188.9849 349.7419,184.6905 346.1611,181.0439 342.6497,178.0959 339.3346,175.9493 336.0308,174.4895 333.2216,173.8609 330.2188,173.9219 327.7012,174.6722 325.3377,176.0901 323.1387,178.1877 321.3581,180.5902 319.7967,183.3793 317.1145,190.4415 315.0957,199.2675 313.766,209.6963 313.151,221.5671 313.2657,234.1903 314.1162,247.5363 315.7308,261.9699 317.9933,276.5554 320.9031,291.463 324.3656,306.2457 328.3688,320.7675 333.0216,335.4346 338.1584,349.7591 343.8524,363.9673 350.0534,377.89 355.8034,389.6225 361.7441,400.7629 368.024,411.622 374.6073,422.1318 381.4495,432.2207 388.1892,441.3855 395.5017,450.5266 403.218,459.4236 419.4224,476.255 434.8565,490.1475 451.6747,503.6195 482.5116,526.1603 491.9412,534.0669 496.0435,538.0124 501.0559,543.6115 503.527,546.8492 506.8711,552.0868 508.8109,555.7212 511.419,562.132 514.5228,572.3445 523.8912,618.8179 527.5513,634.6617 532.4392,653.2432 539.5341,677.8003 548.1996,705.2669 557.9497,733.6782 568.7633,762.0382 577.5414,782.8768 587.8577,805.163 596.2842,821.3853 605.8022,837.3468 615.1728,850.7723 619.5319,856.0829 624.0511,860.9614 628.7145,865.343 633.2206,868.9551 637.536,871.8418 642.0878,874.2695 646.5145,875.9499 650.6938,876.9064 656.7349,877.2073 662.8745,876.1735 668.7009,873.8829 674.5338,870.2215 680.0104,865.4202 685.5829,859.087 690.8995,851.6136 696.1107,842.8119 701.1677,832.6946 705.846,821.7206 710.235,809.7202 714.3721,796.6174 718.3336,782.125 721.8906,767.0398 725.0948,751.1568 727.9025,734.5963 730.1678,718.3046 731.9851,701.7286 733.3602,684.806 734.2766,667.7628 734.7193,650.7193 734.6799,634.1781 734.1597,617.8636 733.1741,602.2548 731.744,587.4296 729.8258,572.9616 727.3922,558.6149 724.5279,544.9372 721.252,531.9633 717.5834,519.7279 713.5414,508.2658 709.0105,497.3108 705.414,489.7496 701.5144,482.4729 697.2425,475.3648 692.814,468.8024 688.2438,462.7707 683.5468,457.2548 678.482,451.9895 673.3105,447.2617 668.0498,443.0542 662.4491,439.1773 656.6826,435.7588 650.5362,432.6645 644.394,430.0928 637.9143,427.8992 631.123,426.1281 624.4052,424.8667 611.6797,423.6775 598.5987,423.8201 585.2076,425.2918 571.4528,428.1308 563.2806,430.3813 555.296,432.9854 547.5533,435.9125 539.4452,439.3979 523.2421,447.3608 499.7574,460.4052 491.8407,463.9939 487.236,465.1431 483.2249,465.1432 480.0106,464.2019 476.3429,461.9866 472.2307,457.9152 467.8163,451.8104 463.0422,443.4786 458.1835,433.6165 446.4872,406.8533 418.2393,336.7917 407.3958,310.9993 395.0973,283.8288 383.2191,260.5832 377.5925,250.7177 372.512,242.7773 366.9551,235.2738 361.6857,229.2661 357.2089,225.2901 353.2216,222.9119 351.0252,222.1912 349.2548,221.9636 345.9747,222.5615 343.0714,224.5707 340.8097,227.5929 338.8219,232.0304 337.3582,237.6493 336.4333,244.364 336.0319,252.1065 336.1586,261.2922 336.756,270.0506 337.9282,279.6874 339.6859,290.1381 341.9377,300.9456 344.8163,312.7342 350.7548,332.472 358.5063,353.1354 366.1976,370.4342 374.9015,387.0105 386.48,406.1067 396.4346,420.3712 409.1781,436.2083 420.838,448.9811 435.007,462.4847 449.5,474.5 463.3976,484.8434 472.103,490.716 476.4057,493.2616 477.2656,493.5 478.0,493.25 478.062,491.5353 476.9132,487.9937 462.3201,451.079 431.6311,368.2265 415.7942,326.5115 399.5785,286.7343 387.9476,260.7925 379.6518,244.2514 372.1825,230.7922 365.4375,220.224 358.6906,211.3935 352.3272,204.7958 349.2806,202.3916 346.5991,200.7705 344.0082,199.7192 341.5374,199.2671 339.0703,199.4161 336.7592,200.202 334.8752,201.4136 333.1292,203.1154 331.5302,205.3088 330.0869,207.995 327.783,214.5438 326.2177,222.5487 325.3317,232.3643 325.1962,243.5426 325.8114,255.9021 327.1304,268.7281 329.1212,281.8061 331.7662,295.2707 335.119,309.3223 338.9473,322.9985 343.0227,335.6031 347.8169,348.6418 353.1756,361.6384 359.0441,374.4779 369.1427,393.9534 380.6629,412.933 393.4337,431.0896 399.8222,439.1813 406.6231,447.1682 421.5262,463.0559 434.45,475.023 449.5068,487.4666 474.0936,506.177 483.6792,513.8485 489.2185,519.188 492.0824,522.7128 494.0856,526.3628 494.0,527.0312 493.3115,526.7471 490.6822,523.1388 486.6686,515.1407 481.9317,504.7401 475.3239,488.1138 465.2439,460.5791 427.7014,351.276 408.22,296.8855 399.936,275.118 391.2469,253.7057 382.9684,234.4283 375.2312,217.7198 366.5559,200.8604 357.7836,185.9834 349.5225,174.209 345.5687,169.4738 341.8937,165.6764 338.1205,162.4603 334.7575,160.2394 331.1449,158.602 328.0215,157.8949 325.0347,157.9321 322.1993,158.7311 319.5302,160.3096 317.0421,162.6851 314.9945,165.4798 313.3101,168.5292 310.3329,176.4179 308.0167,186.6261 306.4974,198.7285 305.7953,212.5355 305.9267,227.1071 306.9405,242.7353 308.8118,259.1479 311.4295,275.7127 314.7017,292.1748 318.5849,308.4437 323.1229,324.5396 328.3608,340.6441 334.2517,356.6221 340.7372,372.3227 347.7998,387.6748 353.7632,399.3794 360.116,410.8002 366.8132,421.8813 373.9991,432.86 381.6041,443.6125 389.0208,453.3107 396.8255,462.6897 405.0222,471.7658 421.2865,487.9582 436.4456,501.0682 455.3392,515.447 487.1294,537.9431 495.0762,544.2723 504.0812,552.5758 509.0461,558.3542 512.3958,562.8367 518.5248,573.7865 524.0146,587.7258 544.4264,659.1364 556.8114,696.4943 564.1401,716.3022 570.5847,732.6127 577.5483,749.0324 584.0225,762.994 592.2545,779.0655 599.2824,791.2546 606.9055,802.7349 614.9428,813.1001 622.2731,820.838 629.3784,826.6408 633.0326,828.9734 636.7441,830.8822 640.2133,832.2386 643.6313,833.131 648.8567,833.6082 654.1621,832.9924 659.5046,831.217 664.4867,828.4549 669.1889,824.7858 673.8467,819.9973 678.4374,814.066 682.7289,807.3477 687.0729,799.2573 691.0554,790.5225 694.8337,780.8374 698.4107,770.1065 701.6734,758.6579 704.6443,746.4315 707.2863,733.5328 709.5012,720.4701 711.2879,707.384 712.6965,693.8952 713.6998,680.2695 714.3041,666.4947 714.4998,652.6791 714.2777,638.9308 713.6522,625.7315 712.6143,612.7973 711.1102,599.8334 709.2407,587.5305 706.9987,575.7073 704.3956,564.4111 701.4426,553.689 698.1509,543.5884 694.5318,534.1565 690.515,525.2337 686.8016,518.0274 682.6959,510.9997 678.4065,504.5423 673.9517,498.6534 669.3502,493.3311 664.6204,488.5736 659.6652,484.2818 653.963,480.0296 648.2267,476.3953 642.474,473.3525 636.7222,470.875 630.6528,468.8385 624.625,467.375 617.4249,466.2346 610.7881,465.6873 603.9573,465.6333 597.7136,466.0457 591.3459,466.9375 583.8325,468.5375 576.7127,470.5364 570.0266,472.8735 563.3639,475.6757 556.7401,478.9311 550.3915,482.5304 543.8096,486.8512 537.6507,491.5329 531.4063,496.9734 525.0231,503.2303 517.0473,512.4278 506.0741,528.0926 502.7645,531.9664 500.834,533.1296 498.9219,533.4375 496.9839,532.7315 495.4062,531.4688 492.2656,527.5586 488.333,520.307 482.3682,507.1254 478.9735,498.6265 462.5355,453.0368 430.4355,357.6443 411.4624,303.5338 399.9733,272.6758 390.7703,249.2221 382.1514,228.8151 373.0216,208.9086 364.0442,191.2761 355.4714,176.6474 347.0019,164.6526 342.8009,159.6497 338.9677,155.7028 335.2134,152.4783 331.5509,150.0246 327.9936,148.3899 324.8146,147.6498 321.7378,147.6877 318.7697,148.5341 315.9896,150.1801 313.4071,152.6174 311.2218,155.5392 309.2182,159.1121 305.9254,167.7171 303.3241,178.9109 301.738,191.255 301.019,205.565 301.2218,221.6838 302.3244,238.5682 304.3471,256.6013 307.0511,273.8539 310.6076,291.6963 314.9086,309.5503 320.0057,327.5651 325.5078,344.4336 331.6638,360.9849 338.4249,377.0753 345.7635,392.6838 352.2241,405.1529 358.8645,416.9322 365.883,428.3872 373.0545,439.1631 380.721,449.7808 388.5976,459.8412 397.0734,469.8267 405.7876,479.2914 413.5293,487.0236 421.9327,494.778 430.8331,502.4085 441.4758,510.9835 457.0048,522.4339 487.87,543.5739 499.5382,552.4538 504.1361,556.4358 509.0741,561.3148 512.8722,565.5089 515.75,569.25 519.5464,574.9861 522.3596,579.8726 528.2843,593.0348 533.2101,606.9756 548.8762,657.6074 558.3517,685.7558 565.9221,706.2466 573.2082,724.2347 579.5893,738.873 586.7477,753.5047 593.8751,766.8268 600.6495,778.0605 607.9082,788.5822 614.8701,797.1747 621.836,804.0837 628.8091,809.42 635.3551,812.9746 638.5655,814.1069 641.8263,814.831 646.5964,815.1271 651.3987,814.4982 655.8227,813.0593 660.421,810.6189 664.7282,807.3539 669.0133,803.1125 673.2301,797.8948 677.1078,792.0705 680.8441,785.3753 684.38,777.8599 687.7864,769.3745 690.9918,760.0736 693.9594,750.0249 696.5612,739.6899 698.8744,728.7829 700.7985,717.7958 703.8548,693.3946 705.4667,668.597 705.5771,644.3704 704.1898,620.9488 702.9632,609.4426 701.3863,598.2607 699.4567,587.4663 697.2566,577.4711 694.7232,567.9529 691.8715,558.9863 688.4724,549.7793 684.8031,541.1793 681.0535,533.5395 677.0817,526.4903 672.9003,520.049 668.5215,514.2329 663.483,508.506 658.2079,503.3506 652.8349,498.8724 647.089,494.8524 641.2994,491.5298 635.5,488.875 628.9322,486.578 622.4507,484.9624 616.0803,483.9721 609.4841,483.5429 602.8965,483.6953 595.7622,484.436 588.644,485.7829 581.5642,487.783 574.0936,490.6425 566.7084,494.1375 560.0172,497.9767 553.6869,502.3205 547.8946,507.0322 542.6096,512.1042 537.2713,518.0446 533.1684,523.3929 529.1991,529.6435 525.8765,535.9642 522.8934,543.1511 520.4423,550.6695 518.5518,559.5288 517.7875,565.3961 517.0989,580.8337 517.4823,589.3012 518.4641,599.9758 521.8349,620.456 524.4907,633.1217 527.7894,646.8368 539.0064,686.6183 549.8206,720.2807 561.9224,754.4191 574.8169,787.1773 584.8323,809.711 595.992,831.8943 605.2274,847.8614 614.6935,861.6817 619.7052,867.9962 624.5036,873.3983 629.3031,878.1062 633.9542,881.9865 638.7391,885.2727 643.3144,887.7361 647.9847,889.5531 652.7397,890.6613 658.8924,890.9449 665.0227,889.851 671.2369,887.3073 677.1938,883.4703 683.1506,878.1894 688.7755,871.7777 694.3348,863.9521 699.8417,854.5572 705.0776,843.9442 710.1379,831.961 714.9739,818.6796 719.4176,804.5795 723.558,789.3846 727.25,773.625 730.5675,757.0157 733.485,739.679 735.9239,722.1452 737.9201,704.2027 739.444,685.9945 740.4503,668.0537 740.9434,650.5178 740.931,633.2416 740.4176,616.0247 739.4076,599.1716 737.9059,582.772 735.9173,566.916 733.4468,551.6933 730.5749,537.5299 727.253,524.1393 723.4524,511.4217 719.1218,499.1368 714.42,487.7444 710.5825,479.6125 706.5578,472.0016 702.3593,464.9102 698.0004,458.3366 693.4947,452.2792 688.651,446.5071 683.3898,440.9868 678.161,436.141 672.5385,431.5623 666.5278,427.3147 660.461,423.6359 654.3601,420.4927 647.9257,417.7263 641.5039,415.478 634.252,413.4928 627.1794,412.047 614.5156,410.5781 601.5792,410.4364 587.458,411.6598 573.0739,414.167 556.9481,418.437 539.0542,424.7512 526.0505,430.3594 497.301,444.2495 488.6966,447.611 483.3765,448.8163 479.0366,448.9213 475.3333,448.0556 471.279,445.9639 467.1737,442.3782 462.5258,436.7603 458.0933,429.6546 452.5705,419.3966 442.939,398.627 408.1636,317.5774 394.7948,289.3718 385.053,271.311 379.6787,262.337 375.1871,255.6119 371.125,250.375 366.2168,245.08 362.2403,241.6946 358.5341,239.6096 355.5488,238.9878 352.5003,239.593 349.8655,241.5365 347.877,244.4492 346.2776,248.482 345.1725,253.3438 344.5311,259.0845 344.3355,266.0301 344.6396,274.2328 345.3884,282.6108 346.6101,291.0935 348.3762,300.3288 353.4776,320.7376 359.1953,338.4346 366.331,356.4164 373.4011,371.6021 381.7328,386.8576 391.8107,403.0168 401.4727,416.4324 413.1313,430.6734 424.0749,442.3302 435.4559,453.0165 449.5146,464.368 457.1097,469.5382 462.7635,472.4869 465.602,472.99 466.3884,472.7466 466.9531,471.9688 467.0005,468.9995 465.9357,464.3143 456.9052,439.4173 424.8975,355.3329 407.1716,311.79 396.7639,288.7443 387.7609,270.3011 379.1493,254.5543 371.4734,242.3982 364.3898,233.3503 360.8648,229.7621 357.4899,226.9558 354.2802,224.9867 351.5452,223.9762 348.9674,223.7292 346.5676,224.278 343.7369,226.2179 341.3538,229.5174 339.4357,234.1589 338.0,240.125 337.1499,246.87 336.8307,254.916 337.0549,263.4647 337.8269,273.1886 339.0289,282.8246 340.6816,292.4609 342.8872,302.7417 345.5415,313.2053 352.0995,334.5202 355.8268,344.6828 360.1574,355.3241 368.9127,374.3208 377.6613,390.7136 388.0484,407.3816 399.4533,423.3918 411.152,437.4719 424.3759,451.5747 440.3745,466.1691 454.4581,477.3283 465.4306,485.1892 472.3457,489.6666 475.875,491.25 476.7656,491.125 477.0,490.25 476.623,488.3229 474.5312,482.1875 458.2023,440.2769 419.773,337.3809 403.1482,295.9149 394.8263,276.9522 387.1636,260.4468 379.6616,245.556 372.479,232.78 365.6714,222.1261 359.206,213.6112 353.1965,207.4392 350.134,205.045 347.5555,203.483 344.7326,202.3276 342.378,201.885 340.1376,201.9891 338.0176,202.6554 336.3009,203.6856 334.5107,205.3411 331.5674,209.8998 329.2536,216.2233 327.5881,224.2184 326.5849,233.867 326.3507,244.3709 326.8682,255.9328 328.1628,268.764 330.0589,281.4739 332.525,294.277 335.6596,307.4682 339.364,320.6983 343.9362,334.9234 349.0,348.875 353.9767,361.0795 359.6283,373.4646 370.1097,393.6025 376.1171,403.9464 381.6021,412.6554 387.6034,421.4425 394.0567,430.2023 401.5116,439.6326 408.6142,448.0162 421.2983,461.2791 436.7705,475.5283 452.659,488.4433 475.3155,505.631 484.3591,513.0363 489.7426,518.4985 491.7246,521.2324 492.1719,522.2812 491.6944,522.1366 489.3708,518.6812 485.8212,511.6783 480.9909,500.9896 474.6846,485.409 465.4531,460.6621 427.7833,352.2259 408.9973,300.3498 401.0384,279.6651 391.6042,256.5683 383.6356,238.193 376.0661,222.0 367.0964,204.6844 358.6442,190.3902 350.8753,179.3851 347.1313,174.948 343.625,171.375 339.8311,168.1719 336.5257,165.9797 332.9882,164.3429 329.9386,163.6167 326.7132,163.6716 323.9695,164.5243 321.3882,166.1641 319.0417,168.5413 317.2973,171.005 315.5711,174.2004 312.6453,182.1621 310.4509,192.0974 309.0222,203.8611 308.4054,216.8958 308.6188,230.6063 309.6591,245.6465 311.5013,261.4594 313.9705,277.0101 317.1452,292.9994 320.8404,308.3264 325.1309,323.4999 330.3128,339.4908 336.1367,355.3965 342.5809,371.1433 349.0661,385.3126 354.9627,396.957 361.2371,408.3122 367.8471,419.3206 374.9327,430.2071 381.8639,440.0559 389.3376,449.8418 397.2465,459.382 405.5052,468.584 420.805,483.943 437.1095,498.0813 453.1015,510.5626 484.4545,532.9461 494.5376,541.0243 498.834,544.9173 502.6735,548.964 506.6618,553.6146 509.375,557.375 512.9123,563.2516 515.5532,568.7018 518.6426,576.4375 521.952,586.567 536.6538,642.9386 544.6498,670.1032 552.5004,694.2066 560.1993,715.9713 567.0167,733.7735 574.5945,752.3569 581.9154,768.5187 590.7424,786.2097 598.6315,800.281 607.0194,813.3459 615.1136,824.0943 623.2151,832.7627 627.1507,836.2268 631.172,839.2632 634.9747,841.6631 638.7987,843.5979 642.6171,844.9958 646.5046,845.8657 651.893,846.1404 657.3509,845.2852 662.4774,843.3925 667.7602,840.2628 672.8493,836.0198 677.9032,830.5446 682.6605,824.1546 687.3002,816.6373 691.5813,808.4102 695.6812,799.1559 699.5996,788.793 703.2967,777.3998 706.7292,765.0915 709.7725,752.3587 712.4924,738.9589 714.8524,724.9891 716.7713,710.9206 718.2701,696.7706 719.4037,681.9926 720.1013,667.4568 720.3843,652.8968 720.2495,638.8016 719.6979,624.8893 718.7123,611.1996 717.2908,597.7924 715.4609,584.8167 713.2345,572.3252 710.6238,560.3704 707.641,549.0047 704.2981,538.2808 700.6073,528.251 696.4392,518.6001 692.8636,511.3558 688.9142,504.2508 684.7921,497.6755 680.2978,491.337 675.878,485.8346 671.1108,480.6135 666.2346,475.9577 661.0674,471.6721 655.7524,467.8545 650.0612,464.3708 644.3428,461.4453 638.2788,458.9204 632.2268,456.947 626.0636,455.4569 619.26,454.3203 612.2408,453.655 605.7903,453.4909 599.5176,453.7355 593.0745,454.3936 586.567,455.4594 579.9491,456.9259 573.3136,458.7898 560.3331,463.5857 552.8586,467.0451 545.7961,470.828 538.3949,475.345 531.6347,479.9717 521.6983,487.7864 504.875,503.375 499.4014,507.589 496.457,508.8413 493.9054,508.9618 491.5926,508.0977 489.0284,506.2284 485.545,501.9278 481.6983,495.5525 475.9206,483.5361 469.7595,468.9071 457.6681,437.02 424.0363,343.0673 411.0085,308.0836 400.44,281.3755 392.0721,261.2482 384.7193,244.7575 376.2747,227.2672 368.2063,212.1048 360.6388,199.6847 353.3796,189.7452 346.4037,182.1455 343.1811,179.3973 340.0445,177.2682 337.0029,175.7915 334.0656,175.0005 331.4502,174.9083 328.8023,175.5081 326.3309,176.8239 324.046,178.847 322.1577,181.2652 320.6191,183.8844 317.8115,190.8971 315.7292,199.5416 314.4055,209.4693 313.778,221.1288 313.893,234.0337 314.7441,247.9836 316.3197,262.706 318.432,276.5326 321.2539,290.9812 324.7773,305.9271 328.8771,320.8523 333.5033,335.6397 338.3026,349.1812 343.6589,362.6254 349.6868,376.2217 355.3589,387.8737 361.5513,399.5768 367.672,410.2342 374.1024,420.5284 381.0428,430.7721 388.4237,440.8357 396.3563,450.8436 404.0182,459.7567 411.1478,467.3829 418.6283,474.8252 436.2023,490.7161 447.9696,500.0893 479.9572,523.816 489.5152,531.4428 498.5015,540.0419 502.3011,544.8436 505.1744,549.1398 509.5572,557.7022 512.905,567.6256 514.7303,575.3409 521.2486,610.5143 526.1953,633.2741 530.7741,651.2564 538.9414,679.5109 547.2441,705.9867 557.6318,736.2059 568.3382,764.6915 578.2266,788.3828 587.6617,808.7933 597.0229,826.7238 606.821,843.0665 615.9328,855.8977 620.6427,861.5682 625.2569,866.4891 629.7434,870.6702 634.3479,874.3386 638.6852,877.1968 643.1362,879.4662 647.3305,880.9882 651.5957,881.9206 657.7379,882.1572 663.9691,881.0234 669.8869,878.6065 675.8419,874.7456 681.5891,869.5531 687.3141,862.8964 692.7498,855.1096 698.0708,845.9587 703.0285,835.8856 707.8644,824.375 712.4601,811.6349 716.8029,797.7018 720.7514,783.0609 724.3667,767.5021 727.5294,751.5416 730.2896,734.9109 732.537,718.2819 734.3715,700.9754 735.7405,683.4044 736.6148,666.0951 737.0148,648.8 736.9336,632.0297 736.372,615.5228 735.3165,599.4029 733.7872,584.0263 731.7549,568.9717 729.261,554.5234 726.3271,540.7314 722.9749,527.6456 719.1165,514.9848 714.8626,503.1769 710.2409,492.2851 706.4912,484.5849 702.5686,477.3838 698.4869,470.6728 694.0332,464.1285 689.434,458.1073 684.7052,452.5991 679.6178,447.3561 674.4232,442.6555 669.1399,438.4852 663.2142,434.4445 657.2293,430.9356 651.2333,427.9494 644.8876,425.3205 638.5605,423.2016 631.9198,421.475 624.992,420.1736 611.9604,418.9161 599.1434,418.964 585.9411,420.3157 572.4792,422.9831 563.635,425.2876 555.4174,427.8396 538.7864,434.2826 524.1348,441.0707 500.132,453.8707 490.3909,458.0777 485.865,459.128 481.6028,459.1885 478.0153,458.1427 474.3668,455.94 470.5382,452.2641 465.6575,445.7365 460.7129,437.2897 455.5123,427.1195 445.7993,405.2362 409.4714,317.6025 394.7741,285.4615 384.1474,265.0025 378.6011,255.4015 373.5069,247.4545 368.6746,240.9281 364.0236,235.6762 359.5771,231.7356 355.3846,229.2296 351.8259,228.2991 349.8974,228.3874 348.3988,228.8232 345.7016,230.6827 343.4121,233.8594 341.5391,238.3532 340.2076,243.7782 339.393,250.1921 339.0886,257.5261 339.2868,265.7124 339.9787,274.6404 341.1467,283.8014 342.8633,293.7201 347.6864,314.4367 353.576,333.7099 361.3415,353.9877 369.1748,371.3482 377.3897,386.8647 388.2887,404.6607 398.4214,419.0755 411.0218,434.5964 421.9091,446.4055 435.8626,459.6738 450.0645,471.2411 461.1481,479.2972 468.5883,484.0447 472.5,485.625 473.2778,485.6065 473.8056,485.1435 473.9946,484.1432 473.5926,481.7917 470.7356,473.196 455.9252,434.9715 421.4591,343.1802 403.2633,298.2845 396.7967,283.5235 388.6387,265.9561 381.6438,252.0429 375.375,240.875 367.9676,229.2593 361.2382,220.3185 355.6279,214.4615 350.3294,210.6211 347.7145,209.4177 345.2313,208.8005 342.886,208.788 340.9902,209.2727 338.0762,211.1298 335.3599,214.574 333.222,219.2569 331.5773,225.1969 330.3877,232.7705 329.799,241.0549 329.7489,249.8234 330.2498,259.6613 331.296,270.1543 332.8693,281.192 334.9511,292.6641 337.411,303.862 340.359,315.2025 343.735,326.5176 347.4952,337.7311 351.7336,349.1186 359.8138,368.0256 369.2916,386.7943 380.275,405.6211 391.4829,422.2168 403.8959,438.1831 416.0646,451.8484 431.9954,467.3715 446.5956,479.7434 456.167,487.2989 474.7385,501.1223 487.25,511.375 483.0547,502.9291 478.7465,493.3449 471.3664,475.0682 464.5579,457.1758 424.2625,344.4194 408.0206,301.1634 392.2405,262.6025 385.218,246.7774 378.4885,232.6361 369.8631,216.2129 361.9019,202.841 354.45,192.2848 350.8732,188.0378 347.5393,184.6329 344.034,181.6597 340.6721,179.4159 337.4432,177.9094 334.3589,177.1687 331.4306,177.2222 328.6695,178.0986 326.365,179.5915 324.0515,181.9739 320.949,187.1239 318.4506,193.9746 316.5045,202.868 315.2993,212.9474 314.7623,224.3265 314.9375,236.6603 315.8149,249.8774 317.3775,263.795 319.5374,277.8241 322.2417,291.8324 325.4384,305.5257 329.1619,319.1678 333.5978,333.3786 338.6276,347.6496 344.0763,361.4837 349.7587,374.439 355.4597,386.1977 361.5573,397.7108 368.1792,409.219 375.2577,420.586 381.9644,430.5508 388.8731,439.9914 396.2374,449.2702 403.9691,458.275 411.578,466.5142 418.9655,473.9227 426.9283,481.3143 436.0619,489.2277 448.0579,498.9684 478.6323,521.5445 489.9536,530.7588 498.9535,539.8629 501.6087,543.3109 504.8123,548.2034 508.7462,556.535 511.6923,566.0109 514.7114,582.0741 517.9547,604.2582 521.6073,623.3967 525.2634,639.4534 533.7601,671.4882 543.2834,702.6925 554.6582,736.8252 565.6632,766.9575 577.9627,796.8721 587.5106,817.7142 598.1148,838.1581 607.1291,853.4542 616.2757,866.44 620.9981,872.2085 625.8726,877.5191 630.7539,882.1895 635.2382,885.8384 639.8553,888.9111 644.2487,891.1926 648.7322,892.871 653.2941,893.8948 659.7183,894.1366 666.121,892.9257 672.324,890.268 678.3408,886.2351 684.3723,880.705 690.1242,873.9584 695.8079,865.755 701.3834,856.0549 706.6224,845.2392 711.7241,832.8909 716.5949,819.193 721.0808,804.6189 725.2555,788.9538 729.0742,772.2943 732.4137,755.1748 735.2903,737.5664 737.713,719.4797 739.6364,701.3721 741.0914,683.0204 742.0552,664.5657 742.5008,646.5314 742.4318,628.6659 741.8639,611.8412 740.769,595.1054 739.1281,578.5124 736.9798,562.5122 734.3438,547.1719 731.2396,532.559 727.6872,518.7407 723.7062,505.7846 719.322,493.7709 714.3576,482.2271 706.6538,467.4043 702.3518,460.3904 697.8918,453.8941 693.2888,447.9069 688.3293,442.171 683.2462,436.9745 678.0566,432.3073 672.2008,427.7164 666.3729,423.7386 660.1656,420.0876 653.9386,416.9775 647.3645,414.2411 640.8104,412.0238 633.9564,410.2032 626.8366,408.8045 614.0411,407.3819 600.9405,407.2473 587.4125,408.4142 573.3363,410.8769 556.8321,415.1177 540.339,420.7837 524.1516,427.5817 497.1234,440.3158 487.8957,443.7462 482.4853,445.0419 478.0621,445.1771 474.1039,444.353 470.092,442.2918 467.6276,440.475 465.4352,438.3565 459.8127,431.1124 455.9061,424.8328 450.3422,414.3483 439.0978,389.9791 418.1592,341.1954 404.4276,310.4895 394.6814,290.554 385.7357,274.1257 380.777,266.0628 375.7152,258.5932 371.5039,253.1346 367.6467,248.9616 363.8912,245.8487 360.1642,243.7398 356.7693,242.9691 354.0092,243.4986 351.6744,245.1306 349.6296,248.0333 348.1727,251.7165 347.0386,256.8209 346.4096,262.5912 346.2419,269.1356 346.536,276.3862 347.3236,284.6603 350.0063,301.2454 354.3283,318.7544 360.6486,338.4635 367.5094,355.6958 375.3713,372.3448 383.3964,387.113 392.6575,401.7626 403.1421,416.3714 413.5908,429.0547 424.2018,440.3578 437.2022,452.2912 449.5524,461.9705 456.6908,466.5211 459.8351,468.0397 462.7598,468.6777 463.8342,468.3064 464.5,467.5 464.6204,464.787 463.3688,459.1836 457.2597,441.4184 427.2867,362.8116 415.5559,333.4771 405.3597,309.3597 396.6055,289.9828 387.801,272.5101 379.6311,257.7913 372.4769,246.7508 365.468,237.8119 362.128,234.3745 359.1423,231.8912 356.25,230.125 353.522,229.1164 350.9898,228.8548 348.6655,229.3524 346.002,231.127 343.7276,234.2019 341.9019,238.503 340.5363,243.9981 339.6685,250.5893 339.3235,258.2011 339.5131,266.4511 340.2235,275.1957 341.4326,284.4739 343.1118,294.1856 345.3263,304.6386 347.8715,314.7871 354.0156,334.4323 361.9785,355.028 369.8346,372.1679 379.0161,389.3675 388.1956,404.3682 398.5515,418.8844 410.4132,433.5843 422.25,446.3465 435.3276,458.7175 445.5688,467.4559 450.887,471.5685 461.0417,478.8519 467.7366,483.0503 471.9057,484.8866 472.7656,484.875 473.5,484.25 473.428,481.438 471.2215,474.6849 456.0721,435.494 422.4941,346.1387 404.5116,301.5862 395.3794,280.817 387.9034,264.7474 381.0631,251.3048 374.0253,238.9681 367.3631,228.6855 361.2364,220.7395 355.1268,214.602 349.8205,210.9798 347.1673,209.9321 344.9514,209.5435 342.8373,209.664 340.8282,210.3091 338.9573,211.4748 337.4083,212.972 334.7511,217.1839 332.5719,223.3793 331.0562,231.2734 330.2328,240.624 330.1578,250.9631 330.7977,262.354 332.1433,274.6174 333.9937,286.4815 336.4159,298.4138 339.5064,310.8725 343.2403,323.7474 347.5807,336.9066 352.222,349.4576 357.1801,361.3904 362.7785,373.519 373.3318,393.6157 383.7245,410.4832 390.2095,419.8391 397.294,429.3355 404.0052,437.7584 410.6269,445.3835 425.9388,461.1832 438.1484,472.3269 449.6888,481.8279 479.2835,504.2394 486.17,510.062 486.5645,510.1387 486.4121,509.3535 483.07,502.76 478.0533,491.6177 464.0058,455.4882 453.0567,425.573 427.2666,353.0871 407.7715,300.6662 392.385,263.2807 385.5479,247.9105 379.3367,234.8743 370.3864,217.8264 362.3828,204.3575 354.8603,193.7049 348.0176,186.1589 344.3819,183.0666 341.212,180.952 337.8181,179.3788 334.8918,178.6907 331.7975,178.7684 329.1667,179.6256 326.746,181.2134 324.4525,183.6361 321.4033,188.8485 318.8451,196.1849 316.968,205.3431 315.807,216.0553 315.4175,227.5537 315.7584,240.1101 316.8521,253.9332 318.6195,268.0646 320.9525,282.0977 323.8494,296.0764 327.4227,310.475 331.5453,324.7925 336.2818,339.2515 341.6044,353.6837 346.9841,366.7168 353.0714,379.9708 358.7527,391.2423 364.7871,402.2843 371.3026,413.3123 377.7215,423.3504 384.2109,432.6619 391.1739,441.8733 398.7619,451.1598 406.9181,460.4482 413.8847,467.828 421.5134,475.3249 439.4234,491.2699 452.2165,501.3889 477.0725,519.6636 489.3657,529.5064 497.7695,537.8574 503.471,545.7361 507.6181,554.1934 510.3888,562.8819 512.4043,573.375 515.966,603.2355 518.9737,621.5505 523.6595,642.8668 533.451,679.1307 547.616,724.7182 561.4534,764.1746 573.8145,795.9352 580.1604,811.0463 585.8657,823.6178 597.7776,847.1387 603.5138,857.3809 608.7735,865.9238 614.104,873.7261 619.6837,881.0152 625.2409,887.4075 630.7273,892.8792 636.0959,897.387 641.3823,900.9116 646.487,903.4574 651.7193,905.1911 657.0631,906.0364 662.137,905.9565 667.2809,904.9741 672.2287,903.1359 678.1627,899.6752 683.8947,895.0041 689.6237,888.9865 695.3122,881.5976 700.6912,873.2066 705.9659,863.5114 710.9472,852.85 715.7091,841.0801 720.3962,827.7936 724.8476,813.3644 728.9247,798.275 732.6965,782.2901 736.0441,765.9236 739.0264,748.8844 741.5437,731.7495 743.7129,713.7974 745.3938,696.3009 746.6671,678.635 747.5148,660.9149 747.9151,643.6382 747.8801,626.9052 747.4077,610.4317 746.5083,594.68 745.1368,579.0138 743.2793,563.4847 740.9826,548.5322 738.2646,534.201 735.1435,520.5354 731.6372,507.5801 727.6542,495.0608 723.4226,483.6818 718.7768,472.9597 715.0153,465.3174 710.885,457.7904 706.5925,450.7824 701.9255,443.9694 697.1098,437.7015 692.161,431.9647 686.8504,426.5094 681.4283,421.6058 675.9125,417.238 669.9462,413.1423 663.5577,409.3625 657.1444,406.133 650.3693,403.2811 643.6111,400.9593 636.5405,399.041 629.5406,397.6131 616.5702,396.0717 602.6838,395.7778 588.7653,396.7586 573.964,399.0587 557.3878,402.9057 541.0558,407.9919 523.1127,414.9125 491.8151,428.1748 484.749,430.6024 478.572,431.9398 474.5413,432.1125 470.1487,431.3322 465.8362,429.4927 461.2259,426.0142 457.0351,421.576 451.3201,413.3462 447.0156,405.8906 438.0084,388.0567 415.7788,338.9636 405.795,317.7239 395.4151,297.1014 386.6983,281.9491 378.4215,269.6754 374.7631,265.2516 370.9616,261.3567 367.6821,258.7311 364.8711,257.2372 362.2867,256.6876 359.6831,257.133 357.4792,258.7095 355.8785,261.0369 354.4978,264.5562 353.588,268.8032 353.1042,273.8206 353.0369,280.008 353.4283,287.1673 354.1914,294.0996 356.8335,308.7433 360.9517,324.544 366.3484,340.3994 373.3672,357.5516 380.6587,372.475 389.8189,388.6636 397.4375,400.2973 407.3045,413.6168 415.8609,423.7589 426.271,434.6514 437.1792,444.1782 446.0373,450.6431 449.1338,452.2684 452.7731,453.5099 454.4954,453.4839 455.625,452.75 456.2399,451.3839 456.3773,449.2691 454.5403,440.886 450.3731,427.6803 435.6544,388.5245 422.2458,354.6386 409.1219,323.6253 399.7431,303.2687 392.3574,288.3791 384.3536,273.8764 377.4638,263.063 370.8701,254.7324 367.6604,251.464 364.8575,249.1414 362.1752,247.486 359.5919,246.5358 357.044,246.3527 355.0947,246.9012 352.8244,248.6535 350.9201,251.5826 349.4854,255.4398 348.504,260.296 347.9498,266.4779 347.8823,273.6065 348.2578,280.9948 349.1091,288.7277 352.1351,305.4611 356.7241,323.2363 362.7534,340.9111 370.3853,359.4649 378.2217,375.4788 387.0258,390.945 396.0146,404.6099 406.8067,419.0213 416.4695,430.3192 427.9721,442.152 440.6228,453.2039 451.1991,460.9404 456.0012,463.6059 459.6642,465.0018 461.5,464.875 462.1528,464.2593 462.5556,463.1991 462.554,460.9163 461.9927,457.3057 459.2319,448.3021 445.352,410.5675 421.7312,349.6454 404.199,308.3122 394.8402,288.17 387.074,272.7911 379.5925,259.8168 372.3827,248.9321 366.0509,241.1687 362.9343,238.1728 359.884,235.7819 357.0154,234.1256 354.6545,233.3133 352.1266,233.1519 350.0638,233.7143 347.4313,235.6583 345.1956,239.0133 343.5786,243.28 342.3011,249.1303 341.5734,255.6181 341.3941,262.6683 341.7381,270.8417 342.6444,280.1336 344.0573,289.9762 345.7789,299.2306 348.0175,309.0482 350.6854,319.0096 357.3134,339.417 365.2915,359.025 374.0018,377.08 382.4767,392.2847 393.0718,408.6346 404.3894,423.92 417.1347,438.65 428.9251,450.5467 442.2561,462.2707 457.4378,473.6029 462.6746,477.0597 466.9942,479.2673 469.562,479.8755 470.375,479.625 470.6973,479.207 470.928,478.104 470.75,476.5 468.9225,469.9685 438.6618,389.5655 414.7983,328.143 407.6766,310.71 400.8854,295.0397 391.9378,275.4834 384.1333,259.9494 375.3079,244.2972 367.5546,232.4599 360.6396,224.0502 357.2218,220.7443 353.9389,218.1985 351.1096,216.6041 348.4082,215.7127 345.8436,215.5656 343.4582,216.1818 341.7638,217.1497 340.2051,218.5391 337.679,222.2288 335.6467,227.3464 334.125,233.875 333.2365,241.224 332.9253,249.6035 333.1924,259.2846 334.0395,269.7892 335.3147,280.0382 337.0787,290.4447 339.4231,301.4731 342.3471,313.0365 345.7251,324.6516 349.5107,336.1897 353.5712,347.1291 358.1177,358.1342 367.4791,378.0641 377.1165,395.7115 388.5469,413.5538 401.0646,430.6021 413.2565,444.7481 427.3648,459.1368 442.9358,472.7822 460.9419,486.9678 478.9569,499.9644 481.4609,501.6074 482.375,501.625 482.2176,500.3287 480.3674,495.5816 473.6314,479.8163 465.5602,459.2963 446.216,407.0524 425.4036,349.6376 415.6435,323.7651 398.0191,279.8593 391.6548,265.2187 383.8733,248.405 376.2724,233.2432 369.2393,220.75 361.698,209.231 354.709,200.2455 348.7214,194.2579 345.8188,192.0731 343.2168,190.589 340.5759,189.581 337.8028,189.0927 335.1848,189.2693 333.0311,189.9804 331.014,191.221 329.1419,193.0006 326.0781,197.768 323.6354,204.3485 321.8057,212.8842 320.6742,223.4121 320.3386,235.0042 320.7577,247.7487 321.9551,261.1288 323.8595,274.8105 326.4441,288.9368 329.7564,303.699 333.6073,318.1975 337.833,331.8284 342.8096,345.9098 348.2327,359.587 354.315,373.4063 363.5727,391.9253 374.2444,410.2465 386.3537,428.3219 398.5475,444.1991 406.1934,453.1072 414.3446,461.8921 422.2841,469.8382 430.5504,477.4469 448.7638,492.6511 478.8787,515.4255 486.7945,521.9606 491.3613,526.3989 494.702,530.134 497.651,534.2278 499.3324,537.1181 501.2176,541.4982 502.2989,545.9697 502.2526,548.6706 501.5781,550.3438 500.5706,550.4595 499.6435,549.9074 497.8853,548.0731 494.2239,541.8617 489.5108,531.5037 483.4778,516.1254 477.0391,498.1426 467.3594,469.6612 427.6632,347.3132 412.7698,303.3388 402.3253,273.9927 393.1679,249.5509 384.153,226.987 375.3266,206.403 366.0532,186.66 357.237,169.9963 348.5226,155.8021 340.057,144.314 336.1546,139.9039 332.3085,136.1845 328.529,133.2051 325.0708,131.1359 321.6882,129.7948 318.4367,129.2208 315.3067,129.4032 312.3244,130.3424 309.2535,132.227 306.6185,134.7399 303.9548,138.3345 301.719,142.409 299.6926,147.2261 297.8873,152.7831 296.2988,159.1626 295.0273,165.9833 293.2545,181.7329 292.6007,200.0002 293.108,219.637 294.7736,240.6977 297.3833,260.8789 300.9981,281.39 305.6334,302.3368 311.1529,323.0666 317.3941,343.052 324.1719,361.8136 331.985,380.7282 340.4785,398.8846 347.3327,412.1092 354.7136,425.1709 362.0892,437.1313 369.692,448.3992 377.8087,459.4219 386.6027,470.3732 395.9681,481.0847 405.6902,491.3187 414.3657,499.6768 423.364,507.6664 433.0933,515.6701 444.0778,524.1221 460.3051,535.3751 493.7531,556.6834 505.9162,565.5073 511.3009,569.9015 516.0045,574.234 520.2712,578.6488 524.0429,583.1703 528.3518,589.2808 531.9102,595.0664 538.759,609.182 545.2353,625.7197 558.6766,663.7832 569.4344,692.3093 579.6719,716.1562 586.5445,730.3384 591.5413,739.745 597.7359,750.2299 604.0516,759.8853 609.5219,767.0921 615.2847,773.5135 621.1536,778.9214 626.8498,782.9749 632.7284,785.8567 638.3406,787.3533 642.4738,787.6195 646.4043,787.1397 650.3641,785.9071 654.3172,783.8946 658.2274,781.0752 661.7433,777.7588 665.2719,773.5758 668.7759,768.4493 672.1403,762.5073 675.1731,756.1628 678.0307,749.1579 680.6888,741.5272 685.3961,724.3096 689.0467,705.2689 691.3379,686.0679 692.4368,665.2955 692.3087,644.6165 690.9588,625.4433 688.28,606.726 684.3402,588.6848 679.5062,572.946 676.7778,565.908 673.6243,558.8972 670.4249,552.6458 666.8565,546.5133 663.3294,541.1894 659.4434,536.0566 655.4169,531.4517 651.2278,527.3384 646.773,523.5643 642.2852,520.3212 637.4486,517.4061 632.5919,515.0386 627.7241,513.1864 622.4102,511.6991 616.9849,510.6975 611.6824,510.2119 606.5162,510.2015 601.1003,510.677 595.2813,511.7295 589.7753,513.2494 584.2195,515.3166 578.4386,518.0469 573.3238,521.0423 568.3645,524.5694 563.875,528.375 559.356,532.8657 555.6401,537.2142 552.1582,542.0814 548.9971,547.3992 546.1835,553.141 544.0508,558.4383 542.4857,563.5214 540.8234,570.8754 539.9243,576.51 539.0463,589.8774 539.758,605.1802 541.9887,622.2089 544.6968,635.3183 549.8408,656.2355 556.1487,677.3766 564.5081,701.8758 575.0214,728.5359 584.0518,748.4586 591.6767,763.5103 600.5966,778.6088 609.5237,791.5091 613.7149,796.6797 618.0509,801.4306 622.2542,805.4585 626.4173,808.8851 630.4902,811.6222 634.3149,813.6172 638.2096,815.0861 642.1575,815.9954 646.869,816.3028 651.7387,815.695 656.3747,814.138 661.0268,811.5605 665.6486,807.9413 669.9127,803.5835 674.0714,798.2744 677.8793,792.3538 681.7893,785.0899 685.5506,776.8362 688.9817,768.031 692.1871,758.4367 695.0118,748.5409 697.5495,738.0352 699.8661,726.6302 701.8845,714.6778 704.8276,690.3573 705.7355,678.2323 706.2691,666.0083 706.18,641.9761 705.5747,629.9068 704.5961,618.0371 703.2468,606.4453 701.5902,595.5658 699.5908,585.0909 697.2986,575.2283 694.6367,565.5494 691.556,556.003 688.1792,547.0317 684.5244,538.6641 680.7714,531.2259 676.625,524.125 671.9941,517.2962 667.1776,511.1681 662.2035,505.7219 656.8284,500.705 651.3428,496.401 645.5,492.625 639.2709,489.3553 632.7034,486.6179 626.1943,484.5905 619.42,483.181 612.7159,482.4763 605.116,482.3847 597.8442,482.9346 590.5442,484.142 583.0454,486.0964 575.1581,488.8766 567.5855,492.2788 560.4251,496.2402 553.7797,500.6898 547.6707,505.5833 541.9761,510.9378 536.886,516.6546 532.2441,522.6651 528.4491,528.5584 524.6426,535.6855 521.7312,542.6399 519.4278,550.016 517.587,558.277 516.6152,565.0801 515.8818,574.7447 515.912,584.0278 516.3082,592.2144 517.9696,607.4979 519.7291,618.5518 521.9396,629.4968 525.882,646.0489 534.6856,678.2976 546.8452,717.3307 554.0911,738.7751 561.5769,759.5974 567.5671,775.4787 573.7102,790.6432 581.7732,809.3145 588.1713,823.1918 593.4834,833.7532 599.1608,844.19 604.78,853.7353 610.5066,862.69 615.7033,869.9993 620.8795,876.487 625.9919,882.1255 631.2701,887.1465 636.4266,891.2631 641.737,894.6726 646.8114,897.0665 651.6701,898.5527 656.6295,899.251 661.6723,899.0976 666.7813,898.0285 671.5694,896.16 677.5,892.625 682.9672,888.0769 688.642,881.9804 694.08,874.773 699.4463,866.2632 704.7031,856.453 709.6262,845.779 714.3789,833.9027 718.9018,820.9006 723.1022,807.0546 727.037,792.2236 730.67,776.5179 733.965,760.0474 736.8225,743.3274 739.2893,726.0856 741.2884,708.8493 742.818,691.8138 743.9221,674.7243 744.6013,657.6022 744.848,640.5522 744.6544,623.6791 744.0323,607.4607 742.975,591.6089 741.4753,576.2214 739.5813,561.74 737.2428,547.6124 734.5075,534.1012 731.2942,520.8526 727.7003,508.3142 723.7463,496.5142 719.453,485.481 714.7005,474.9541 710.8176,467.4285 706.7198,460.3451 702.4685,453.7531 697.8353,447.3222 693.068,441.4161 687.922,435.7468 682.6631,430.6196 677.3097,426.0142 671.6069,421.718 665.8413,417.9514 659.6617,414.4946 653.3745,411.5032 646.7284,408.864 640.1108,406.7307 633.1759,404.9854 626.3129,403.716 613.928,402.4729 600.5028,402.432 587.018,403.5748 573.3403,405.8932 555.8977,410.2969 539.6699,415.6516 523.0335,422.4371 494.6901,435.1176 486.8307,438.0294 481.2857,439.2785 476.9238,439.5437 472.4426,438.7405 468.484,436.9971 464.2703,433.647 459.9164,428.8226 454.125,420.125 449.9896,412.6929 441.1215,394.5731 412.7975,330.6762 404.8662,313.4777 394.6029,292.5835 385.5296,276.4053 381.0351,269.2322 376.7992,263.187 372.4691,257.8756 368.5353,253.8364 364.8354,250.9284 361.6397,249.345 358.7242,248.891 356.1649,249.5587 353.7073,251.6728 351.8974,254.7871 350.4749,259.0862 349.5689,264.4082 349.1604,271.0996 349.3209,279.2756 349.9506,286.699 351.097,294.6241 352.9399,304.1092 355.3602,314.3689 360.5082,331.8233 364.2383,342.2115 368.4709,352.8102 372.4036,361.7665 376.6728,370.4828 382.0348,380.4427 388.3644,391.313 393.1806,398.8701 398.7017,406.7912 411.5415,423.2997 418.241,430.7573 426.4497,439.1896 435.326,447.1675 444.3737,454.4245 452.2267,459.6824 456.25,461.625 458.154,462.137 459.288,462.0852 460.3385,461.5743 461.063,459.5852 460.541,455.2537 459.375,450.5"/>
  </g>
</svg>
