<?xml version="1.0" encoding="utf-8" ?>
<svg xmlns="http://www.w3.org/2000/svg" xmlns:cc="http://creativecommons.org/ns" xmlns:dc="http://purl.org/dc/elements/1.1/" xmlns:ev="http://www.w3.org/2001/xml-events" xmlns:inkscape="http://www.inkscape.org/namespaces/inkscape" xmlns:rdf="http://www.w3.org/1999/02/22-rdf-syntax-ns" xmlns:sodipodi="http://sodipodi.sourceforge.net/DTD/sodipodi-0.dtd" xmlns:xlink="http://www.w3.org/1999/xlink" baseProfile="tiny" height="27.09333333cm" version="1.2" viewBox="0 0 1024.0 1024.0" width="27.09333333cm">
  <metadata>
    <rdf:RDF>
      <cc:Work>
        <dc:format>image/svg+xml</dc:format>
        <dc:source>vpype read './original_svgs/Strange Attractors #515.svg' linemerge linesimplify write './Strange Attractors #515.svg'
</dc:source>
        <dc:date>2024-08-05T01:36:07.553282</dc:date>
      </cc:Work>
    </rdf:RDF>
  </metadata>
  <defs/>
  <g fill="none" id="layer1" inkscape:groupmode="layer" inkscape:label="1" stroke="black" style="display:inline">
    <polyline points="339.625,714.125 344.9343,710.5436 349.7607,706.6505 354.1225,702.4542 358.0385,697.963 361.5272,693.1852 364.7865,687.8042 367.6067,682.1191 370.0099,676.1401 372.125,669.5 373.862,662.4467 375.2332,655.0403 376.2919,646.9257 377.3279,629.5819 376.996,609.9449 375.6959,591.9325 373.5215,572.0126 370.4861,550.1957 366.541,526.1517 360.372,493.061 352.5585,454.6225 325.8002,332.5072 320.316,306.1117 317.7747,291.5058 316.5309,281.1389 316.4764,274.6001 316.861,272.5986 317.6709,271.0629 318.6293,270.4814 320.1107,270.5914 321.6143,271.3329 323.733,272.9724 328.7129,278.2502 335.7796,287.1 346.4161,301.5595 368.1574,332.188 411.6339,394.3621 434.5322,428.4121 451.4002,454.8067 466.2601,480.0054 477.995,502.3894 487.0551,521.944 495.4444,543.3379 500.6462,558.7801 506.9616,581.4312 511.5353,602.6239 515.176,623.5848 523.6295,682.4107 526.0704,697.2752 527.85,705.6418 530.8294,717.0802 535.2579,728.9936 537.6357,733.4075 540.4991,737.6768 542.9467,740.3378 545.6776,742.3698 548.6019,743.7407 551.3879,744.2181 555.2407,743.7963 559.0357,742.4393 562.8715,740.0824 566.7443,736.7976 570.9166,732.3878 575.5449,726.5721 579.978,720.1435 584.4825,712.7621 588.7691,704.9431 593.9937,694.5053 604.228,671.7595 614.5043,646.0266 625.5003,615.7182 639.2043,574.3945 656.2293,518.6661 671.5519,465.2133 687.4011,406.3544 698.7412,360.8841 707.029,323.3765 709.578,309.6238 711.2683,298.266 712.0863,289.4675 712.0959,282.3066 711.3399,277.6316 710.6191,275.822 709.6807,274.5231 708.7323,273.8242 707.3948,273.4377 705.8396,273.5357 704.0666,274.1089 699.7882,276.6561 694.6864,280.8906 688.3104,287.1931 680.8777,295.3453 667.3035,311.3327 651.0694,331.338 631.3434,356.4082 612.3056,381.2454 595.5463,403.6963 581.6383,422.9418 569.7711,440.1061 559.3999,455.9815 546.639,477.0955 535.1745,498.087 525.4108,518.2486 517.643,536.8771 511.1333,554.8094 505.5245,572.6695 500.7325,590.0739 489.8704,633.7292 486.4722,644.7547 483.8688,651.7261 480.1138,659.0125 476.4402,663.819 474.5639,665.4423 472.61,666.5863 470.5118,667.2775 468.355,667.5306 465.7151,667.1882 462.564,665.8978 459.125,663.625 456.0097,660.8607 452.7021,657.1826 449.4329,652.9107 442.0319,641.319 434.2426,626.5746 426.2736,609.306 417.8567,588.6942 407.9735,562.4398 396.3597,529.0611 383.8532,490.4845 368.3692,439.5419 353.9345,389.992 341.0669,342.9375 335.0192,318.4419 332.7288,307.4594 331.4049,299.2544 331.0928,294.3257 331.6738,290.9494 332.4117,290.0467 333.6787,289.8647 335.3531,290.6507 337.315,292.2624 343.0495,298.6145 350.8674,308.9251 374.0776,342.2372 399.0929,379.297 414.5155,402.7185 430.8749,428.4801 451.0803,462.9358 457.8114,475.2738 463.3492,486.2587 470.2049,500.671 475.5115,512.8152 481.2283,527.5326 485.7076,540.4 490.9209,558.3053 494.7884,573.6956 498.1562,591.0312 500.5403,607.0342 502.4185,623.6241 503.6273,642.6943 504.1494,664.4437 503.9524,680.4867 502.9134,699.5693 501.2361,715.162 499.0986,726.9665 496.777,735.5769 495.2026,739.9588 493.5905,743.4248 491.6875,746.5938 489.7916,748.8806 487.7156,750.5996 485.6653,751.5936 483.3829,752.0679 480.8526,752.0274 477.8906,751.0938 474.6141,749.1716 471.2377,746.5249 468.0059,743.1765 464.2379,738.4574 459.6765,731.9583 452.6566,719.8421 443.0005,700.0967 434.6867,680.7911 424.7118,654.9165 414.5126,625.9948 399.791,580.669 383.7989,528.3458 364.3201,461.1056 338.7788,370.5144 318.2828,296.7196 307.6605,256.4676 304.633,243.7407 303.0218,235.5072 302.4151,229.5663 302.5325,227.8439 302.9854,226.6314 303.5167,226.283 304.2207,226.36 306.375,228.0 310.0099,232.2762 314.994,239.0007 348.6402,288.8175 370.0262,319.7623 389.2937,346.783 452.801,433.9697 472.1975,461.7824 485.1587,481.9226 494.177,497.0609 501.5032,510.3488 510.0827,527.3815 516.4343,541.366 525.9996,565.8013 543.2988,618.8186 549.7203,634.8697 553.2083,641.4127 556.7382,646.3261 560.205,649.5562 564.2754,651.7449 567.0192,652.2653 570.3447,651.9726 573.875,650.75 577.0294,648.8973 580.6532,645.9282 584.2051,642.2833 588.0389,637.6465 591.6842,632.5149 599.4737,619.4392 608.1732,602.0237 616.9572,582.0045 625.6387,559.8155 636.8016,528.0704 649.0158,489.6745 658.9714,455.4485 668.5491,418.9031 674.4384,392.3461 676.6181,380.4275 678.0705,370.4825 678.7761,362.7806 678.8132,356.6635 678.2259,352.0684 677.0425,348.8515 675.7154,347.3079 674.298,346.6555 672.625,346.625 670.5235,347.2382 667.8788,348.6137 664.9298,350.6807 658.209,356.7269 650.105,365.558 640.6482,377.1301 629.0417,392.3955 618.2704,407.5419 608.6173,421.9719 599.846,435.9359 590.3041,452.1273 582.2788,466.6565 575.0873,480.8922 568.054,496.015 562.5349,509.2015 557.621,522.4042 553.3131,535.5122 549.528,548.8443 546.6684,560.8074 544.1954,573.7233 542.2435,586.61 540.9866,599.0129 540.2927,611.3162 540.2156,624.1904 540.6969,635.0006 542.2024,648.4648 543.8109,657.2408 546.0959,665.7064 548.7988,672.3789 552.0809,677.9049 555.769,681.6332 557.8195,682.9175 559.8274,683.6848 563.1158,684.0409 566.7084,683.3876 570.0973,681.8753 573.6016,679.448 577.3449,676.0017 581.0943,671.7394 585.1963,666.2966 589.3887,659.9852 597.9361,644.8717 607.0531,625.8131 616.5917,603.1517 626.1524,577.765 639.4324,538.8809 653.1253,495.1898 665.6966,451.477 676.7329,409.4969 684.4246,376.1043 687.0818,362.5904 689.0292,350.7758 690.1761,341.1238 690.5433,333.54 690.1493,327.653 689.1002,323.8741 687.9198,322.0855 686.1682,321.0288 683.9337,320.9746 681.3066,321.8691 678.3085,323.6333 674.6368,326.4647 665.311,335.4607 654.4944,347.7094 641.3327,364.1886 624.9816,385.9467 609.7164,407.4356 597.6119,425.5792 585.4608,444.9362 576.3631,460.3591 567.729,476.2375 559.609,492.4483 552.6748,507.8067 546.439,523.3939 540.9145,539.1174 536.2886,554.6054 532.4444,570.6528 528.9222,588.462 526.0462,608.088 524.7763,621.1903 523.7766,638.3095 523.4681,657.9976 523.925,674.96 525.392,693.9634 526.7507,704.5513 529.0668,717.3384 532.2027,728.805 536.1137,738.0092 538.0983,741.4207 540.0729,744.0695 542.3712,746.442 544.8528,748.2412 547.5648,749.4689 550.3641,750.078 554.0403,749.8192 558.1246,748.3481 562.2307,745.7918 566.3831,742.2256 570.682,737.617 575.3243,731.669 579.9626,724.7659 584.7956,716.6328 589.558,707.754 594.5865,697.5061 605.6668,672.2876 616.3109,645.0393 627.878,612.2955 644.0889,562.3444 661.6746,503.2986 678.8592,441.9247 695.1575,379.4359 705.3615,336.4444 709.0415,318.9158 711.7908,303.9278 713.4778,292.1848 714.2233,283.0647 714.0586,276.4368 712.9832,271.916 712.1862,270.5133 711.2061,269.5574 710.0441,269.0343 708.7014,268.9299 705.4781,269.9206 701.5453,272.417 696.5314,276.6553 690.3094,282.8095 674.591,300.5638 659.3656,319.0829 641.4779,341.4985 604.9066,388.9738 576.7102,427.3785 565.1543,444.1344 554.5344,460.3166 543.078,479.201 532.4004,498.6427 523.3266,517.1625 515.6011,535.163 510.3331,549.2409 505.1428,564.7969 498.7803,586.267 488.142,625.4652 485.1269,634.7382 481.9636,642.7475 478.6558,649.1871 475.2001,653.8631 473.1835,655.7136 471.357,656.904 469.4194,657.7384 467.3996,658.1389 464.557,657.913 461.8589,656.9854 458.8937,655.3186 456.0616,653.0729 452.4781,649.4506 448.6972,644.8967 442.45,635.5781 434.5577,621.1031 427.4174,606.0412 418.0427,583.7942 409.4061,561.3829 396.299,524.0341 384.906,489.406 369.2789,438.5676 356.8344,395.5404 345.055,353.1525 337.9324,324.2957 335.7287,313.6495 334.6967,306.7289 334.463,301.3575 335.1275,298.1972 336.1021,297.3045 337.4776,297.4323 339.2658,298.4605 341.7141,300.5916 347.9375,307.6975 356.9256,319.7025 370.5861,339.1711 395.4524,376.1608 426.0535,423.7556 445.2784,456.3906 452.2592,469.2304 460.0624,484.507 465.8958,496.7038 470.7221,507.76 475.8175,520.6604 480.331,533.3707 485.1625,548.7738 488.7322,561.9242 492.1283,577.7227 494.4885,591.1358 496.7534,609.0392 497.8559,622.573 498.583,637.4266 498.5973,655.1903 497.734,671.5877 496.6243,681.7033 494.7687,693.553 492.117,703.8136 488.75,712.0312 487.1409,714.8509 485.553,716.9372 483.5044,718.9231 481.6115,720.1221 479.1712,720.9472 476.8102,721.1111 473.8981,720.5139 470.3862,718.8607 467.7157,716.9402 464.6442,714.0131 461.01,709.8283 456.9747,704.5334 449.6232,692.4825 441.1116,675.8584 433.0265,657.674 422.3278,630.8713 413.2718,605.8987 397.6487,559.0926 386.2656,522.7969 366.2077,455.0699 348.5189,393.1512 329.613,325.4612 318.2048,282.0938 315.3214,269.9669 313.517,260.6966 312.7698,254.1408 313.064,250.2838 313.6812,249.2942 314.7233,249.1786 316.2208,250.0343 318.154,251.7924 323.752,258.449 331.6814,269.3871 374.7756,332.1205 440.5366,426.3755 463.6173,461.4655 471.8414,475.1108 480.3724,490.0713 489.1352,506.7503 497.7322,525.1888 504.6865,542.1362 511.3393,560.7552 516.3867,577.4004 520.6742,593.0932 534.3947,652.8026 537.4374,663.7501 540.4357,672.4071 544.2706,681.1792 546.6009,685.0375 549.1609,688.551 551.1574,690.6296 553.3219,692.2714 555.9679,693.6295 558.3213,694.3279 561.8614,694.3855 565.3165,693.4864 568.9686,691.6734 572.5739,689.0114 576.4508,685.2827 580.2797,680.8222 584.5171,675.0767 588.8419,668.4257 597.5926,652.6831 606.9426,632.8241 616.6098,609.6009 626.3729,583.4662 639.9482,543.3421 654.465,496.724 667.3946,451.8568 678.8633,408.3 687.1424,372.8503 690.4091,356.689 692.7037,343.4772 693.9676,333.7731 694.4587,326.1091 694.1395,319.8938 693.1336,315.7898 691.8957,313.7146 690.2591,312.5868 688.2239,312.3792 685.4099,313.2338 682.2332,315.0903 678.3774,318.0741 669.1722,327.0242 655.8777,342.2196 640.3391,361.6301 623.3965,384.2168 606.2107,408.4433 593.2816,427.6384 581.7655,445.7727 571.3399,463.3261 562.3577,479.7827 553.9867,496.674 546.7389,512.9663 540.5973,528.6325 535.1309,544.7775 530.0586,562.3971 526.3439,578.5482 522.9995,596.5659 519.9436,618.7634 518.0115,640.4229 516.8618,662.4435 516.5738,685.7561 516.9384,704.818 518.375,731.125 520.0115,746.8089 522.3771,760.8325 525.2008,771.7769 526.7588,776.1603 529.2398,781.6132 531.2078,784.9845 533.6498,788.205 535.8679,790.4236 538.1426,791.953 541.0016,793.1431 543.7272,793.6063 547.9023,793.1071 551.9787,791.5183 556.4837,788.6229 560.9285,784.6927 565.2717,779.8703 570.074,773.5138 574.9434,766.102 579.989,757.4678 585.1237,747.7418 590.3105,737.0367 600.9575,712.5281 612.0975,683.5269 624.391,648.4196 640.8219,597.2552 659.4123,534.581 678.4869,466.1087 700.4897,383.3509 714.3655,327.6649 723.7271,285.9293 726.5804,270.8764 728.3867,258.9512 729.2135,249.7002 729.0878,242.7388 728.3238,239.0535 726.9795,236.7646 725.0551,235.8218 722.268,236.2796 718.9451,238.1228 714.6579,241.5342 709.5373,246.4424 703.5563,252.8444 694.0872,263.7794 680.4047,280.3139 603.9309,374.6689 576.5584,408.8195 556.2886,434.9536 544.4491,450.9469 533.5499,466.4455 523.7944,481.1377 515.2463,494.9777 506.2009,511.02 497.9596,527.4534 490.7302,543.0782 477.0663,574.9939 471.7434,586.0132 468.2281,591.7899 464.7343,596.2251 461.5319,598.9882 457.9956,600.6409 455.7485,600.9629 453.0726,600.6845 450.9449,599.9458 448.4504,598.518 445.4867,596.1985 442.3297,593.1918 436.6985,586.0769 429.9606,575.4601 424.1907,564.6453 416.3301,547.7373 409.1951,530.5983 398.781,503.1613 388.8038,474.1792 378.6941,442.9428 367.5318,405.3304 361.445,382.3985 356.8486,361.8856 355.7522,355.2541 355.2335,350.012 355.317,346.2578 356.0243,344.0058 356.8751,343.2198 357.9991,343.0601 359.3766,343.5228 360.9879,344.6038 365.2812,348.9016 370.657,355.3914 377.6204,364.7924 386.3249,377.4202 404.895,406.457 420.0767,432.3908 432.0881,454.683 444.3687,480.142 453.817,503.3716 457.0211,512.4372 460.4811,523.5245 465.1485,540.8278 468.8628,561.1043 469.9876,570.6168 470.6167,579.3127 470.729,587.9327 470.363,596.0801 469.542,602.6829 468.2348,608.9491 466.625,613.5 464.3324,617.5353 462.0996,619.829 459.2792,621.1374 456.8091,621.2297 454.4656,620.6056 452.1024,619.4358 449.4439,617.4949 446.5925,614.7823 443.3181,611.0259 437.1896,602.2729 430.625,590.75 424.2029,577.6283 414.8722,556.194 408.1473,539.1523 395.337,503.6353 385.269,473.3664 373.2691,434.9006 360.8753,391.9317 354.2855,366.9747 349.5226,345.7032 348.4715,339.2804 347.9855,334.1693 348.0559,330.4307 348.75,328.0 349.5473,327.3123 350.8908,327.2847 352.6282,328.0992 354.7297,329.7262 359.4314,334.7131 366.5978,343.771 375.1859,355.7238 390.2235,377.9237 411.1046,410.9339 428.2933,440.2675 441.0564,464.1129 447.7871,477.9241 452.9097,489.2155 463.0589,514.9065 466.1519,523.9928 469.9107,536.6446 472.4736,546.1464 474.3305,554.4033 476.547,566.4374 478.0393,576.7069 479.2853,589.119 479.7409,598.6983 479.616,609.6082 479.0741,617.9337 477.7929,627.2672 476.1232,634.3633 473.909,640.43 471.3543,644.691 469.6808,646.4609 468.1583,647.5801 464.8088,648.8028 462.5159,648.7692 459.6795,647.8668 456.542,646.0428 453.6201,643.7007 450.5012,640.4847 447.1503,636.3482 440.4669,626.3554 433.1272,612.7375 425.2593,596.1744 417.3315,577.1616 407.5309,551.7364 397.0037,521.7384 384.2003,483.0 366.8166,426.1064 357.314,393.2499 346.7763,354.3963 340.7843,329.3108 338.9114,319.7414 337.9833,313.111 337.9123,308.4737 338.6417,305.713 339.5481,304.9101 341.0075,305.018 342.7726,306.0882 345.0475,308.0704 351.3779,315.1583 359.2109,325.4792 373.3947,345.7493 397.6423,381.8481 423.7351,423.0749 440.7061,452.0684 453.812,476.7374 460.9154,491.5861 466.2381,503.5738 470.9406,515.3846 475.821,528.8047 479.8487,541.3698 484.2175,557.4326 486.9012,569.2435 489.61,583.97 491.2166,595.3126 492.7741,611.5311 493.3389,622.7921 493.4971,635.7632 492.9793,648.8579 492.0,659.25 490.0656,671.6901 487.5625,681.5312 484.8069,688.427 481.6958,693.344 479.75,695.375 477.8039,696.789 476.1065,697.5249 473.8878,697.9073 471.0754,697.6968 467.998,696.5305 464.6587,694.3144 460.9061,690.9387 457.2636,686.8656 453.554,681.9652 449.5393,675.9016 445.6748,669.3487 437.7222,653.7269 428.657,633.3376 419.8712,611.1238 409.3102,582.2658 397.1094,546.1719 381.5914,496.9041 366.2177,445.5596 349.0706,386.0938 333.366,328.7011 325.4794,297.9932 322.8337,286.1437 321.226,277.275 320.6367,271.5613 321.0053,267.8529 321.662,266.8782 322.6353,266.6489 323.9207,267.1412 325.8682,268.6511 330.5515,273.8434 337.525,282.9067 349.074,299.1992 415.5676,396.1639 437.1154,428.6281 450.5149,449.9326 467.1605,478.2709 479.2342,501.4271 487.7568,519.9657 495.8344,540.593 501.7043,558.2083 507.4686,578.8951 511.3247,595.7788 513.8844,608.9379 517.6222,631.8271 522.549,666.2959 526.361,689.5432 528.5968,700.4348 531.9314,712.8974 533.949,718.7848 536.3967,724.6404 538.7099,728.808 541.4722,732.6873 543.761,735.2441 546.4945,737.2611 549.5356,738.5592 552.5192,739.0629 556.415,738.615 560.3067,737.0752 564.3359,734.457 568.3321,730.9317 572.6403,726.2063 577.0651,720.4457 581.7147,713.4746 586.324,705.7047 591.2263,696.5598 596.0934,686.6364 606.6888,662.6512 616.7512,637.0329 628.588,603.8432 643.4796,558.2916 660.764,500.6108 675.775,447.1977 691.5301,387.0655 701.0219,347.178 704.9567,328.545 707.7865,313.3782 709.4872,302.0427 710.3372,293.0652 710.3355,286.1657 709.4918,281.4003 708.7701,279.7315 707.8537,278.5211 706.7461,277.7557 705.1702,277.4061 701.9621,278.1434 697.625,280.75 692.3082,285.2202 686.0176,291.4748 678.1979,300.0758 668.736,311.147 655.3233,327.5645 638.2497,349.3038 618.4783,375.0136 600.5349,399.0413 587.4857,417.0452 575.752,433.9034 564.2635,451.1943 555.3717,465.3603 543.6157,485.7195 533.518,505.154 524.7709,524.4794 517.012,544.3648 511.7774,560.0004 506.9698,576.5101 501.5022,597.965 492.0238,638.8024 488.2922,651.9109 485.6538,659.5316 481.9879,667.1829 478.2471,672.2911 476.2211,674.139 474.3716,675.2941 472.3562,676.041 469.9835,676.3365 467.169,675.9191 464.1305,674.6824 461.0984,672.7903 458.197,670.2778 454.5903,666.3335 450.6692,661.279 443.9219,650.7512 435.7184,635.2141 428.3011,619.1458 419.0597,596.6139 409.482,571.264 397.1325,535.5046 384.3655,496.0801 364.9152,431.6236 351.2358,384.3021 339.6854,342.2635 332.0055,311.322 329.6426,300.2366 328.478,293.2872 328.0666,287.706 328.5513,284.3043 329.3139,283.2578 330.6074,283.1127 332.2155,283.9491 334.2518,285.6463 340.0104,292.0425 347.6197,302.0936 368.2891,331.6126 399.2431,377.2944 423.395,413.9749 434.9421,432.1295 455.1156,466.3242 462.5084,480.0515 469.5227,493.9874 475.8271,507.6614 482.2856,523.2587 487.2271,536.3273 491.0701,548.1067 496.0152,565.5104 499.7637,581.9123 503.0762,599.6705 505.848,619.2869 508.1348,642.709 509.4661,665.4394 510.2344,687.625 510.5547,716.3474 510.1907,746.1997 509.1281,771.6182 507.7341,786.4934 506.2108,796.8759 505.1685,801.5947 503.4776,807.0942 502.1243,810.2739 500.5334,812.9595 498.5343,815.184 496.3404,816.6901 493.8324,817.5155 491.7308,817.5256 488.125,816.5 485.145,814.8157 481.4555,811.6995 477.4141,807.4689 473.3666,802.3031 469.0729,795.952 464.9351,789.1151 460.875,781.5797 451.2607,761.2609 442.7961,740.9532 432.5672,713.3505 421.044,679.7751 410.8963,647.9608 399.2973,609.7248 388.0524,571.2806 375.2058,525.7453 323.4839,337.5365 288.938,213.4971 282.7077,189.0408 281.7172,183.1059 281.6915,181.4976 282.0077,180.4913 282.6985,180.3944 283.9485,181.3608 287.7448,186.2995 322.6065,241.0819 336.0368,261.5098 356.7454,291.4537 378.3964,321.1363 397.8897,346.487 421.1508,375.5254 491.4413,460.2691 501.5482,473.1118 515.3302,491.424 524.07,503.9101 537.4802,524.7573 547.7158,542.7114 557.6327,561.0248 563.7964,571.4396 567.3141,576.2991 570.7204,580.1888 573.7193,582.6991 576.7639,584.3863 579.2014,585.1177 581.4649,585.2878 584.171,584.9057 586.6595,584.0126 589.1768,582.5434 591.8364,580.459 597.3231,574.7001 602.9233,566.7688 609.1801,555.9711 615.3154,543.5172 621.7342,528.7804 629.236,509.5196 636.5395,487.9212 642.1307,469.4073 648.3464,445.8099 651.3956,430.9323 653.0952,418.1377 653.2584,413.8079 653.0098,409.5273 652.3457,406.2787 651.3844,404.3426 649.7343,403.1691 647.3503,403.2137 644.4316,404.6055 641.1762,407.0927 637.2866,410.8572 632.829,415.9214 627.8445,422.2408 622.9219,429.1406 612.0692,446.1633 602.4456,463.3432 593.1142,482.4563 585.7697,500.2716 580.1445,516.5996 576.0801,531.5732 573.0916,546.866 571.5243,560.9328 571.3655,573.8828 571.9178,579.3228 572.9211,584.8524 574.2317,588.7865 576.0706,592.227 577.9074,594.3796 579.8426,595.537 582.0,596.0 583.8774,595.8193 586.3014,594.9167 588.8764,593.2892 591.5247,590.9633 594.3499,587.933 600.0,580.375 606.0574,570.2523 612.178,558.2261 618.9874,542.9461 625.7714,525.9481 633.6469,503.8257 641.2538,479.6665 647.0935,459.2214 652.1818,438.3607 655.2693,423.0904 656.8025,410.7549 656.9688,405.8774 656.7495,402.173 656.1179,399.0837 655.0909,396.7418 653.3747,395.2876 652.1051,395.0899 650.7554,395.3155 647.5955,396.8113 643.6631,399.8489 638.985,404.4306 634.1619,409.9537 628.6164,417.0712 622.4393,425.6803 610.25,444.875 599.8879,463.4963 591.1006,481.5084 582.1573,502.9761 576.125,521.125 571.798,537.8498 568.9979,552.4956 567.2512,569.1971 567.1006,576.4798 567.389,583.6379 568.0946,589.1364 569.375,595.0 570.799,599.142 572.607,602.396 574.4987,604.6557 576.8347,606.0355 579.0771,606.4918 581.4384,606.3363 583.6726,605.5453 586.4342,603.8716 589.2081,601.5563 592.0307,598.6333 598.2302,590.4824 604.5796,579.9195 611.0334,567.2161 618.5249,550.3585 625.388,533.1761 633.9568,509.2279 641.0232,487.4935 649.1431,459.5466 655.0323,436.2838 658.9584,417.6251 660.8755,403.9064 661.182,398.2336 661.0197,393.6101 660.3887,390.071 659.3211,387.6393 658.3625,386.5664 657.2086,385.9518 654.7089,385.9792 651.0306,387.7402 646.647,391.1483 641.723,396.0476 636.0059,402.7014 629.5852,410.9823 622.7449,420.5325 610.1102,440.1864 598.0546,461.6116 586.8696,484.2887 582.3638,494.6261 578.3337,504.8602 571.4191,525.8507 567.4783,540.9527 564.0515,558.9367 563.0461,567.4755 562.3894,576.6245 562.3036,584.7407 562.6579,593.4104 563.43,599.6262 564.8424,606.3651 566.5133,610.9841 568.944,615.2387 571.0648,617.625 573.6494,619.1352 576.0412,619.6472 578.2243,619.4334 580.9881,618.4115 583.9758,616.5813 586.799,614.2449 589.9666,610.9607 596.25,602.625 603.0554,591.1864 610.2941,576.8659 618.0069,559.5438 625.375,541.0 634.9105,514.2451 643.8832,486.3988 652.1205,458.011 659.1914,430.4456 663.3997,410.8787 665.7315,394.6991 666.1835,388.3791 666.1373,383.2065 665.6371,379.6022 664.5313,376.66 663.6574,375.5364 662.3257,374.6942 661.0742,374.4648 659.2843,374.7265 655.548,376.5858 650.7374,380.3975 644.935,386.2447 638.3905,393.8677 631.2801,403.0225 623.7931,413.4474 615.8237,425.2696 607.9879,437.6267 601.8914,447.8876 595.8249,458.8657 588.8419,472.4288 582.8337,484.973 577.568,496.9993 573.2731,507.9676 566.2063,529.446 560.9584,550.1203 559.2864,558.5393 557.9152,567.627 556.8454,577.2537 556.3662,585.491 556.2537,596.9713 556.526,603.475 557.4681,611.6435 558.8759,618.6337 561.0051,625.2639 563.2616,629.9395 566.0943,633.4395 567.6857,634.7138 569.3478,635.5506 571.941,636.0713 574.7792,635.8326 577.572,634.89 580.5779,633.1114 583.8008,630.4757 587.0841,627.0991 590.3147,623.1011 593.949,617.9022 601.712,604.8097 609.8584,588.5875 617.5603,570.9452 625.9705,549.3923 636.3299,520.0771 646.4698,488.5593 655.4861,457.6447 662.9508,428.9037 668.8106,402.2188 671.9082,383.5753 672.5285,376.4896 672.5741,370.3333 671.979,365.6771 670.8508,362.7266 669.6694,361.3724 668.3098,360.6931 666.6827,360.549 664.8387,360.9556 660.4997,363.331 654.642,368.2559 647.8041,375.3812 639.7951,384.8994 631.0556,396.2685 621.8875,409.1397 612.3832,423.4067 603.6953,437.1638 596.1781,449.844 589.2555,462.4246 582.27,476.1381 576.0283,489.38 570.6447,502.1047 565.2622,516.1479 561.6305,526.8723 558.1198,538.7035 555.1925,549.958 552.8545,560.7607 551.0001,571.5781 549.5694,582.7017 548.6739,593.4701 548.3438,603.25 548.5163,613.9132 549.1227,622.2275 550.5135,632.4653 552.1843,639.8768 554.5816,646.8133 557.2198,651.8344 560.5345,655.9004 562.369,657.3004 564.0469,658.125 566.9601,658.7616 569.9622,658.524 573.4435,657.2261 576.8669,655.0718 580.4079,652.0324 584.143,648.0391 587.937,643.2511 591.6985,637.8148 599.6062,624.2189 608.0814,606.9012 616.987,586.2324 626.0199,562.856 637.6141,529.5938 648.3239,496.0624 660.7954,453.2435 669.7107,419.3547 676.2365,390.5398 678.4569,378.7818 679.9783,368.797 680.904,360.0739 681.1671,352.9713 680.7163,347.5511 679.5937,344.0419 678.2856,342.3997 676.778,341.627 674.9829,341.5304 672.9065,342.0833 670.5545,343.2591 667.47,345.3828 660.6527,351.4501 652.1926,360.5384 642.2955,372.5348 630.9122,387.456 619.4422,403.5043 608.5883,419.5606 598.645,435.1262 589.8505,449.8001 581.5471,464.7065 573.8603,479.631 566.7989,494.6239 560.3331,509.7429 555.2501,523.2737 550.878,536.6756 547.0587,550.0808 543.9797,562.853 541.4711,575.6664 539.508,588.692 538.1271,601.1978 537.3253,615.4394 537.1382,628.5295 537.6508,641.6935 538.8472,653.483 540.5007,663.7001 543.0415,673.4582 545.9339,681.2177 549.3513,687.338 551.1728,689.5885 553.1399,691.4357 555.2135,692.8796 557.4377,693.9115 560.6875,694.3906 564.2968,693.8363 567.7949,692.4039 571.6456,689.8179 575.8254,686.0027 579.9113,681.4037 584.1157,675.8194 588.4048,669.3026 592.7156,661.9823 597.3168,653.3647 606.9793,632.9404 615.9575,611.3034 626.9073,582.0346 639.6071,544.7182 654.5513,496.4954 668.0897,449.0463 680.092,403.3205 687.9038,369.4868 690.7546,355.0961 692.7231,343.2575 693.898,333.5324 694.2889,326.0197 693.9628,319.96 692.8944,315.7426 691.6469,313.7983 689.7658,312.7088 687.375,312.75 684.7672,313.7304 681.5563,315.7198 677.9601,318.5945 668.6317,327.7836 655.6012,342.6022 640.6592,361.2433 622.9986,384.7821 606.0234,408.7034 593.0056,428.0906 581.5012,446.2868 571.6033,463.0969 562.2575,480.2985 554.588,495.6283 547.6282,511.2268 540.9346,528.0538 535.4611,544.0147 530.5325,561.1715 526.3652,578.8042 523.0949,596.2185 520.5616,614.2603 518.3177,636.74 517.2072,658.9601 516.7198,678.4121 516.9651,700.3702 518.393,726.9071 520.1809,744.7393 522.2979,758.0769 525.1971,769.6832 526.8306,774.448 529.1148,779.6454 531.0828,783.2094 533.0592,786.0066 535.0875,788.2315 537.5032,790.052 540.5384,791.5075 543.2337,792.1899 547.2855,792.044 551.5037,790.6479 555.808,788.037 560.3076,784.1809 565.1423,778.9583 569.8639,772.8405 574.8044,765.4087 579.914,756.6914 585.2131,746.6335 590.6659,735.3604 601.5897,710.1311 613.182,679.7459 625.7959,643.3971 643.3815,588.0878 662.9513,521.6349 684.3474,444.0932 703.6742,370.0657 717.4674,313.0824 722.0943,292.1884 725.4573,275.2571 727.6438,261.8201 728.6789,251.7712 728.6649,244.2897 728.2608,241.5296 727.5938,239.4062 726.3517,237.5916 724.4675,236.7526 722.0561,237.1169 719.0341,238.703 715.3142,241.5402 710.8566,245.6584 699.5803,257.8361 672.733,290.0015 595.6676,385.2966 571.0805,416.1125 554.365,437.9971 542.5469,454.3125 531.3294,470.5787 522.9035,483.5036 514.8588,496.7959 505.9054,512.8833 497.5592,529.7332 490.8619,544.5531 477.9168,575.3067 472.3433,587.1101 468.822,592.9611 465.3192,597.5412 461.8467,600.6369 458.6953,602.1137 456.0877,602.4673 453.562,602.2175 451.0379,601.3575 448.4355,599.8575 445.3435,597.405 442.492,594.6069 436.557,587.1412 430.5244,577.5766 423.9365,565.0383 416.4459,548.9027 409.1202,531.2723 398.4318,502.934 385.2536,464.1355 377.1748,438.7422 367.9537,407.6325 361.3333,382.7963 356.3339,361.2309 355.1337,353.9278 354.6174,348.3112 354.7323,344.6908 355.5401,342.4952 356.2019,341.9466 357.3332,341.781 358.7308,342.2585 360.375,343.375 364.717,347.5923 370.0823,353.9903 377.5363,364.2021 387.1809,378.2191 404.1945,404.9954 420.6372,432.8804 431.4581,452.7954 444.2763,479.2639 450.1801,493.0868 454.6404,504.4264 462.1094,527.3125 466.2868,543.6837 469.605,561.6293 470.8031,572.4696 471.4123,581.3912 471.4981,589.1728 471.0669,597.0605 470.139,604.7239 468.8398,610.8389 467.2222,615.3909 465.0389,619.254 462.3052,621.9844 459.6348,623.1844 457.4219,623.2969 454.8494,622.6967 452.4028,621.4259 449.7888,619.4114 443.6942,612.9694 437.4973,603.93 430.6759,592.0073 423.9588,578.2007 415.6931,559.2328 407.874,539.2729 396.1917,507.0822 384.2463,471.0187 373.7384,437.5434 361.1716,394.3158 354.0158,367.4326 349.1298,346.0119 347.8629,338.6121 347.2511,332.8252 347.3055,328.7183 347.9964,326.3914 348.731,325.6848 349.9746,325.5292 351.5675,326.1663 353.4969,327.5789 358.858,333.2204 365.9949,342.1705 373.9608,353.2173 386.5922,371.8188 410.1095,408.6751 429.1241,441.0241 442.067,465.3905 453.1932,488.6156 458.9734,502.5331 463.3111,513.8671 466.375,522.875 470.9429,537.9167 473.5085,547.5857 475.5973,557.0064 477.5434,567.5326 478.9498,577.4919 480.158,589.054 480.625,598.125 480.7206,609.6457 480.3391,617.8021 479.1561,627.9944 477.3648,636.2276 475.2246,642.4082 472.4244,647.3799 469.3606,650.5277 467.5475,651.5139 465.863,651.9747 463.3511,651.9648 460.6218,651.1907 457.8939,649.7748 455.0574,647.5857 451.7215,644.2358 448.0202,639.7969 441.7344,630.4531 433.6828,615.91 427.0815,602.1301 417.6451,579.8971 409.4483,558.6866 395.875,520.0 383.4467,481.9802 369.7397,437.4775 356.1516,390.4945 346.3383,354.6107 339.1719,324.6762 337.6854,317.0522 336.8373,310.6315 336.7366,306.0157 337.3654,303.2313 338.2702,302.3702 339.638,302.4334 341.4377,303.3926 343.9324,305.4829 349.4376,311.6357 357.8611,322.8009 371.0258,341.4099 389.5007,368.7756 406.2433,394.4092 421.1369,417.9185 441.5966,452.4546 448.3261,464.6913 455.3063,478.2363 461.5055,490.9579 466.5824,502.266 472.0622,515.7459 476.7222,528.4834 481.3682,543.0257 484.9766,555.9036 487.666,567.6457 490.5344,582.4051 492.3836,595.0655 493.9316,609.4062 494.8946,624.3145 495.1441,635.5261 494.7952,651.7612 493.8989,662.9519 492.1475,675.4155 489.8743,685.4578 486.8964,694.0252 485.4684,696.9414 483.7584,699.5556 481.6599,701.977 479.636,703.5736 477.344,704.6468 475.2098,705.0487 472.5298,704.8233 469.2432,703.6515 466.3377,701.8311 462.8889,698.8426 458.75,694.375 455.6262,690.3815 451.9438,684.9089 448.0089,678.3199 440.36,663.7895 432.0582,645.3485 422.0581,620.8032 412.4094,594.6594 397.4852,550.5309 381.0785,498.1831 365.4706,445.919 342.9189,366.8573 331.2079,324.1229 321.9673,287.879 319.835,277.9883 318.6068,270.6755 318.1612,265.4133 318.5104,262.2498 319.1471,261.3445 320.1008,261.2019 321.372,261.7513 322.9468,262.9579 327.2792,267.5953 332.8053,274.7493 350.5553,299.8589 417.2898,396.8618 432.7351,419.7812 454.6055,453.6328 467.512,475.4662 478.2556,495.1788 487.4374,514.0883 494.5646,530.6476 502.3413,551.9217 507.6351,569.0859 512.4403,587.5798 516.8249,608.1435 527.1318,666.3404 529.8189,679.8085 531.9138,688.5414 535.3899,700.1348 537.5209,705.5773 540.0762,710.885 542.2201,714.4538 544.8307,717.7657 547.4874,720.2493 550.0703,721.8469 553.2306,722.8804 556.4608,723.109 559.9205,722.4332 563.7146,720.7118 567.75,717.875 571.6407,714.2148 575.8966,709.318 580.4677,703.1346 584.829,696.3933 589.3861,688.4956 599.0302,669.3286 608.9919,646.5324 619.5204,619.5053 630.6862,588.009 645.5283,542.4845 660.2622,493.3362 676.0639,437.0661 688.8089,387.6597 697.5845,349.6562 700.5867,334.623 702.7927,321.6004 704.1866,310.7583 704.7074,302.4854 704.3843,296.274 703.244,292.3048 702.3344,291.0016 701.1525,290.1245 699.7544,289.7504 698.1447,289.8609 696.3281,290.4375 693.9534,291.6748 688.8375,295.4894 682.4526,301.5058 674.5518,309.9527 665.4118,320.5434 654.2789,334.1523 638.2915,354.4534 622.0576,375.7771 607.028,396.1789 592.7787,416.2377 581.3844,432.8951 571.2892,448.4604 560.6481,465.8578 552.4054,480.2708 541.8321,500.7166 533.1856,519.7138 525.005,540.8101 518.5382,560.937 514.0685,577.5149 509.661,596.8903 505.4836,619.2995 497.7982,664.2601 494.7298,678.3874 491.8622,688.4866 488.0091,697.8731 486.256,700.9357 484.0348,703.9095 481.8233,706.0987 479.6983,707.4726 477.3819,708.2713 474.9032,708.4093 471.7388,707.7027 468.4924,706.1573 465.1276,703.6623 461.7862,700.4321 458.2129,696.3123 454.7861,691.6513 446.8193,678.5481 439.375,663.9729 430.6986,644.2138 421.6334,621.6071 412.0478,595.2692 397.7853,553.1132 383.3936,507.274 364.8778,445.3184 343.8917,372.0244 330.8451,324.4032 321.2154,286.6236 318.833,275.732 317.4672,267.7929 317.0129,262.2815 317.4528,259.3419 318.101,258.6565 319.1162,258.6397 322.1071,260.6607 326.6274,265.6122 332.375,273.125 422.23,403.1291 441.3134,431.5198 455.4613,453.5031 468.1166,474.8209 478.4938,493.7052 487.8422,512.7659 495.2524,529.5355 502.3185,548.1732 507.501,564.1324 512.5314,582.3082 515.6936,595.3517 520.16,616.7046 529.0868,665.2818 533.0015,681.858 536.0229,691.8096 538.0219,697.2402 540.0224,701.6549 542.7038,706.4933 544.9336,709.7422 547.336,712.3036 550.2628,714.5134 552.8644,715.7546 555.3616,716.2659 558.831,716.1085 562.7555,714.9155 566.5006,712.7321 570.234,709.6875 574.4341,705.3763 578.9593,699.8089 583.4261,693.435 587.9378,686.1263 597.366,668.2563 607.2118,646.6086 617.2793,621.4651 628.128,591.6734 641.9371,550.0805 656.8459,501.2779 672.5532,445.7508 685.3259,397.1837 694.5954,357.5505 697.8145,342.0134 700.1305,329.1143 701.567,318.7416 702.2082,310.4041 702.0981,303.5772 701.1631,298.7718 700.3107,297.0095 699.2098,295.8178 697.8574,295.1915 696.25,295.125 694.3675,295.5967 692.0279,296.699 686.6094,300.5938 679.9397,306.8541 671.9827,315.4538 661.7212,327.4691 649.7565,342.2278 634.3813,361.8774 619.5158,381.5654 604.7766,401.8051 592.3184,419.6963 579.5979,438.8628 569.162,455.4097 559.6031,471.651 550.818,487.7638 540.9251,508.1071 532.2679,528.7827 524.8769,549.7592 518.9487,570.4559 515.0444,586.7979 510.773,608.3901 507.566,628.7759 502.4985,666.1076 500.1951,680.5121 497.3525,695.4485 494.4177,706.6473 491.3119,714.8454 489.3906,718.4531 487.5228,721.1747 485.4532,723.4515 483.2404,725.1145 481.1437,726.0409 478.6335,726.4556 475.5682,726.0234 472.577,724.747 469.1038,722.498 465.9846,719.6757 462.1055,715.2601 457.7166,709.4602 450.5511,697.9121 442.1223,681.4838 434.3636,664.075 423.9962,638.0381 414.2706,611.4642 401.4097,572.9806 386.6969,526.2975 368.8511,466.1642 349.7654,399.7625 329.1088,326.0129 318.0674,284.2997 314.0439,267.7331 311.9563,257.8371 310.9415,250.4012 311.162,246.4167 311.7975,245.3917 312.8053,245.2599 314.2581,246.0566 316.0532,247.6647 321.4101,253.9795 328.9469,264.3061 376.5974,333.7808 441.7892,426.5523 465.3101,462.1639 472.3964,473.6562 480.4423,487.5165 490.3364,505.9125 499.1389,524.2405 505.8383,539.9713 512.7337,558.6782 516.9419,571.5962 522.2183,590.1538 536.0448,646.4682 539.2549,657.0595 542.0622,665.1323 546.25,674.125 549.8228,679.5538 552.0572,681.9824 554.5919,684.1037 556.9645,685.4093 559.128,686.0796 562.5978,686.2872 565.7363,685.6582 569.3477,684.0561 573.1926,681.4269 576.8598,678.0755 580.8222,673.6252 584.8381,668.332 589.0923,661.9251 597.6775,646.6622 607.0155,627.087 616.5571,604.4127 626.3266,578.552 640.2771,537.5988 652.8587,497.6595 665.7534,452.7687 676.7053,411.0601 684.897,376.0944 687.6494,362.5381 689.6327,350.9349 690.9414,340.4112 691.4409,331.9674 691.1368,325.8887 690.0363,321.6947 688.8132,319.941 687.097,318.9868 684.9957,318.9208 682.1876,319.8514 679.3111,321.5211 675.6642,324.2883 667.125,332.4492 655.876,345.2329 640.2833,364.6069 625.9145,383.7818 610.1401,406.0257 597.3873,424.9966 585.4856,443.6674 575.5525,460.4147 566.1015,477.6202 558.403,492.9836 551.5878,508.1345 545.239,524.0191 539.7468,539.7576 535.0519,555.6292 530.913,572.5151 528.0722,586.961 525.5895,603.3187 523.3379,624.7747 522.5258,636.874 521.9859,654.0814 522.1759,675.7759 523.3129,693.7176 525.1991,710.8796 527.5064,724.4269 530.8558,736.6888 532.5485,741.0764 535.25,746.625 536.9275,749.4604 539.0566,752.2567 541.625,754.875 543.8533,756.4504 546.3448,757.4701 549.4429,757.9791 552.9816,757.6754 557.042,756.1655 561.1069,753.597 565.6029,749.6555 570.1855,744.6093 574.6256,738.7941 579.2302,731.8394 583.9738,723.8042 589.0758,714.277 594.1378,703.9834 604.5423,680.3845 615.618,652.0012 626.8844,620.0308 643.758,567.8565 660.9885,510.1599 679.5485,443.6862 696.6739,378.1111 707.5262,332.8436 711.3441,315.0221 714.1841,299.9513 716.0616,287.5021 716.946,277.8869 716.8811,270.6328 715.8833,265.9381 715.2014,264.6581 714.203,263.5893 713.2194,263.0598 711.8605,262.8427 708.877,263.5732 704.921,265.9266 700.2653,269.7666 694.6453,275.2577 679.5438,292.1328 648.6939,330.0063 601.3238,390.6684 576.3271,424.4044 555.1275,455.1813 542.9535,474.3997 532.4335,492.6385 522.5466,511.817 513.799,530.883 508.6777,543.7169 502.302,561.6018 495.2561,584.0491 486.2028,614.4879 483.1862,623.0727 479.3913,632.3049 476.2878,637.9641 472.9681,642.2191 469.2521,645.1048 465.6906,646.2019 462.9591,646.1374 460.0497,645.3805 457.3122,643.9164 454.4125,641.673 451.0321,638.3777 447.7706,634.5771 440.8954,624.6643 433.7962,612.0779 426.0356,595.9267 418.275,577.9792 409.8506,556.2561 397.198,521.0798 383.4319,479.0895 371.8872,442.0224 357.0918,391.2667 348.1039,358.0646 341.3162,330.2188 339.7032,321.785 338.7838,314.8274 338.6739,309.9613 339.3611,307.3038 340.2554,306.5526 341.4844,306.5625 343.0338,307.3048 345.296,309.1221 351.2237,315.7214 359.3049,326.2191 370.8275,342.4871 385.7385,364.3656 417.6728,413.6945 437.7947,447.5276 453.4037,476.8619 459.2171,488.8294 464.6648,501.1522 469.8485,513.8592 474.125,525.5 478.4155,538.5741 481.7826,550.3598 485.3994,565.6936 487.8148,577.9149 490.2071,594.2181 491.3133,604.2008 492.2001,619.9519 492.3587,632.7984 491.9586,645.3477 490.7605,658.5306 489.0963,668.4277 486.9424,676.8885 483.8532,684.4972 480.7011,689.4382 478.9946,691.1794 477.1511,692.4591 474.7462,693.4093 472.718,693.696 469.962,693.2758 466.9264,691.9739 463.612,689.8683 460.448,687.0706 457.0716,683.3145 453.125,678.125 446.0413,666.8167 437.5864,650.5604 430.1581,634.1696 420.5973,610.5281 411.0105,584.7705 398.1369,546.9795 384.3667,503.9626 364.8266,438.9719 350.4181,388.9525 336.0183,337.1353 327.3871,303.2309 324.3104,289.6075 322.7363,281.2373 322.096,275.1248 322.4716,271.126 323.131,270.0921 324.1083,269.8353 325.4182,270.3567 327.1915,271.7038 332.0413,276.8784 338.8786,285.7114 366.7076,325.6811 419.2783,402.9424 437.2643,430.1941 455.5263,459.8245 468.1778,482.2717 479.2632,503.984 487.6907,523.1186 494.7198,541.5146 501.6503,563.1006 506.5072,581.7996 510.2191,599.4647 513.9442,620.9117 524.1394,696.3602 526.6664,710.1888 530.0415,723.4506 531.9959,729.3269 534.5021,735.5189 536.5636,739.4044 539.1076,743.123 541.6848,746.0771 544.455,748.228 547.5168,749.6402 550.4952,750.1809 554.5061,749.7547 558.5,748.25 562.5622,745.691 566.7453,742.0449 570.9403,737.4432 575.4343,731.5367 580.0613,724.555 584.8526,716.4557 594.7791,697.1325 605.2952,673.2811 616.1949,645.378 627.8419,612.45 643.6168,563.7081 662.4519,500.8262 678.8677,442.0968 694.2956,382.774 705.1406,337.111 708.9074,319.2917 711.6795,304.2741 713.4132,292.3649 714.2079,282.8847 714.0019,275.8632 712.8704,271.4505 712.0592,270.1516 711.0647,269.2803 709.8884,268.8264 708.5321,268.7799 705.2854,269.8682 701.4148,272.3964 696.3625,276.6972 690.1168,282.8953 674.4546,300.6119 644.6035,337.6737 600.8515,394.3319 576.0928,428.3042 564.562,445.0497 555.4654,458.9213 543.7413,478.2007 533.0365,497.4834 523.6651,516.4538 515.9615,534.2071 509.8693,550.4145 505.1148,564.666 499.5605,583.2347 488.566,623.9574 485.236,634.25 481.9228,642.5972 478.4265,649.342 474.9375,653.9375 471.25,656.75 469.2305,657.5645 467.0938,657.9219 464.4215,657.7143 461.3043,656.6681 458.5626,654.9862 455.6732,652.5443 451.9149,648.6302 448.6136,644.6122 441.2774,633.4407 434.2148,620.5501 426.8562,604.7959 417.5438,582.5394 408.587,559.092 395.7862,522.6219 381.9332,479.7617 368.1633,434.8306 352.385,380.0066 343.3804,346.657 337.2059,320.7884 335.6475,312.6506 334.7276,305.8524 334.5738,301.0339 335.1256,298.3476 336.0656,297.4621 337.4358,297.56 339.2272,298.5533 341.75,300.7269 346.8155,306.4537 356.6705,319.4706 367.8542,335.3059 392.1884,371.2705 411.7545,401.0759 423.4843,419.5348 443.6053,453.4683 460.0082,484.4752 465.6054,496.126 470.7724,508.0564 475.8483,520.7901 480.1368,532.7862 484.5463,546.7245 488.1019,559.6984 491.5967,575.05 493.9293,587.8397 496.4153,606.2799 497.6705,620.2765 498.4505,635.0339 498.53,651.9641 497.8147,669.1626 496.5633,681.6886 494.9167,691.9051 492.07,703.4026 489.0086,711.18 487.199,714.3289 485.4304,716.6569 483.4678,718.5041 481.2947,719.8335 478.8952,720.6296 476.7188,720.75 473.5459,720.0376 470.5073,718.5504 467.3247,716.1512 463.538,712.412 459.9281,708.1733 456.6036,703.5817 448.625,690.2696 440.6401,674.5944 431.8523,654.64 422.5904,631.3095 412.7398,604.0577 399.368,564.185 385.6405,520.2588 367.1467,458.3328 348.3225,392.5066 331.0743,330.5744 318.1456,281.4817 315.344,269.5859 313.5473,260.407 312.8076,254.2209 313.051,250.5566 313.7578,249.532 314.8136,249.4851 316.4444,250.4028 318.5192,252.2847 323.8952,258.679 331.9428,269.8672 372.2676,328.6701 427.5288,407.5106 444.2786,432.0318 462.8137,460.4447 472.8955,477.1369 480.6011,490.5903 489.2933,507.3853 498.0785,526.2281 504.9116,542.9903 510.9247,559.8227 515.7665,575.7983 520.0271,591.5991 524.468,609.8893 531.311,641.0912 534.1286,652.6296 537.3305,664.1397 540.6201,673.7079 544.2829,681.8056 548.7764,688.7966 551.0156,691.125 553.4079,692.9636 555.899,694.2848 558.3194,694.9444 561.7222,694.9722 565.375,694.0 569.0815,692.0405 572.854,689.167 576.8894,685.2044 580.9041,680.4011 585.2194,674.4005 589.6039,667.4785 598.855,650.3464 608.6481,629.2608 617.6438,607.1211 628.6455,577.416 640.7292,541.5761 655.7431,492.8437 669.1214,445.5339 680.6171,401.5316 688.2728,367.9049 691.0715,353.6758 693.0136,342.0066 694.1517,332.7304 694.5687,325.1559 694.2714,319.2265 693.25,315.0469 692.0442,313.094 690.2141,311.9795 687.875,312.0 685.024,313.0899 681.7577,315.1251 677.8035,318.29 668.3018,327.6685 655.9762,341.806 641.0342,360.6067 622.0754,385.8588 605.5955,409.0629 592.2053,429.119 579.3271,449.5659 570.1459,465.1959 561.2745,481.5823 553.6325,497.0196 546.6521,512.888 540.2897,529.0999 534.7051,545.6016 529.9334,562.0533 525.9605,579.2706 522.459,598.208 519.6929,617.8713 517.7377,639.1564 516.5362,663.4615 516.196,683.536 516.6453,712.9261 517.6958,731.422 519.2315,747.6389 521.4114,761.8848 524.3594,774.375 527.5423,783.0002 529.8764,787.4626 531.9922,790.7557 534.3383,793.2775 537.2259,795.5317 539.5309,796.6656 542.1018,797.3012 546.0438,797.2279 550.2504,795.908 554.5967,793.3957 559.38,789.4096 564.2112,784.2778 568.9822,778.1554 573.9731,770.6514 579.1167,761.9442 584.3385,752.1711 589.5464,741.5241 600.4401,716.4929 612.106,686.1019 624.5656,650.2502 633.5093,622.7881 642.5707,593.7 661.3229,529.7709 684.3119,446.6145 705.828,364.3968 718.8068,311.0416 723.3956,290.3074 726.951,272.4721 729.2344,258.6685 730.4028,248.0928 730.4989,240.5261 730.1312,237.6544 729.5172,235.6116 728.1359,233.6862 726.2181,232.9949 723.7851,233.4592 720.5392,235.2115 716.7241,238.1635 712.3683,242.211 700.7704,254.7362 683.1446,275.7555 586.7814,394.3389 567.2569,418.7778 551.5402,439.1422 538.5627,456.8124 526.9922,473.6005 517.4029,488.6122 507.109,506.0226 501.1315,517.0273 495.0984,529.1362 475.389,573.0316 469.6538,584.0754 466.5477,588.746 463.4395,592.3564 460.3773,594.8812 457.5147,596.2314 455.1633,596.6749 452.4148,596.3761 449.8993,595.462 446.767,593.6845 444.3149,591.7529 441.5108,588.9551 434.9754,580.7343 429.0347,571.0105 421.5115,556.4928 415.0804,542.3988 407.48,524.1505 399.203,502.19 388.6397,471.6744 377.6555,437.2414 369.7537,410.6299 362.4197,383.261 358.4071,365.429 357.2246,358.315 356.7649,353.3109 356.9236,349.8721 357.7403,347.4322 358.5615,346.7278 359.5461,346.6512 362.3541,348.1426 366.1415,351.6666 370.9647,357.3297 377.2961,365.7057 384.3154,375.7377 402.3961,403.7759 418.5961,431.3224 433.4756,459.1269 442.5534,478.319 451.1397,499.2235 458.2419,519.8962 462.8099,536.6796 466.3936,554.65 467.8205,564.4232 468.5386,572.0956 468.8356,581.6095 468.7068,588.7042 467.9398,596.4676 466.8712,602.2797 465.0346,607.8165 463.044,611.5675 460.5497,614.1785 457.8808,615.4761 455.5944,615.6165 453.0226,614.9959 450.6236,613.713 448.0573,611.7177 442.4086,605.6557 435.9491,596.3339 429.7785,585.6389 422.8862,571.507 415.7641,555.4244 408.175,536.2274 396.9176,505.3846 385.5951,471.8 375.4342,439.3912 364.2764,401.3438 357.0092,374.2735 352.2676,353.9409 350.9342,346.2695 350.2068,339.8703 350.1652,335.2154 350.8183,332.8509 351.6253,332.0602 352.708,331.88 354.048,332.295 356.0566,333.6274 360.6898,338.2452 366.8259,345.7743 375.6553,357.9616 385.9278,372.9729 407.9981,407.6033 425.6841,437.6639 438.2346,461.124 449.5288,484.854 455.002,497.7638 459.4857,509.3371 467.3998,533.5886 469.7602,542.4205 472.2287,553.4359 474.0865,563.1086 475.2529,571.2702 476.4823,582.797 477.0417,592.3794 477.0812,601.4914 476.625,609.875 475.6618,618.262 474.25,624.875 472.0113,631.4174 469.6185,635.743 466.6141,638.8709 465.0738,639.7348 463.375,640.25 461.1057,640.3199 458.326,639.557 455.3005,637.9185 452.4741,635.7513 449.6195,632.8718 446.3008,628.8308 439.619,618.9495 432.5191,605.9406 424.3361,588.9616 416.4196,570.2751 407.2316,546.6774 397.127,518.1212 384.8816,481.0981 368.8883,429.2157 360.2093,399.2536 349.2584,358.9942 343.7886,336.1632 341.9491,326.682 341.0168,319.7974 340.9737,315.2502 341.7198,312.5572 342.6396,311.7759 344.125,311.875 345.907,312.8963 348.0761,314.738 354.0713,321.3986 361.8991,331.6711 375.5636,351.0084 394.5796,379.4731 404.8105,395.2374 419.299,418.4902 433.4487,442.4224 442.8529,459.4387 449.7081,472.6041 462.3759,499.7213 466.3686,509.4597 471.0114,522.0138 475.261,534.853 478.91,547.6853 482.0542,560.3506 484.2507,571.3867 486.2596,583.5618 487.5,593.75 488.7427,609.4895 489.069,622.8136 488.8007,633.8303 487.6133,647.7465 486.2614,655.996 484.263,664.2387 481.6144,671.2066 478.7873,675.9606 476.9513,677.9564 475.1146,679.4111 473.146,680.3991 471.3719,680.8332 468.7833,680.7878 465.69,679.8189 462.2974,677.8345 459.309,675.3863 456.0371,671.9429 452.5126,667.512 448.5184,661.7705 445.0632,656.151 437.1769,641.2926 428.644,622.9759 420.2169,602.4532 410.2356,576.0204 398.862,542.923 383.4739,495.2112 368.0261,444.0683 351.7668,388.2632 338.5783,340.3796 331.3346,311.58 328.6799,299.4681 327.0162,290.2294 326.509,284.6757 326.8763,281.196 327.4494,280.1415 328.4779,279.6902 329.8716,280.1137 331.6095,281.379 336.9375,287.002 344.1583,296.2447 374.5731,339.8959 416.9854,403.0255 438.6294,436.74 456.0068,465.9907 462.654,478.1724 470.4184,493.4352 476.2695,505.6974 480.8663,516.2968 489.5868,539.0919 496.1274,560.137 500.3939,576.8064 505.4248,602.4659 508.407,623.647 510.6545,645.8943 512.5394,671.0271 515.9384,732.3077 518.1352,755.5577 520.6497,772.0968 522.4185,779.8098 523.7772,784.229 526.2463,791.0071 528.8556,796.0298 531.578,799.8165 534.7125,802.7271 537.8906,804.6009 541.1772,805.4637 545.1351,805.2894 549.4695,803.8026 553.959,801.089 558.5044,797.2606 563.1632,792.2686 567.7275,786.3963 572.6478,779.0393 577.642,770.5958 582.8703,760.8016 588.1026,750.1051 599.1229,724.8939 610.7861,694.6883 623.0591,659.6042 640.4607,605.1365 658.8829,542.5862 680.9564,463.2185 702.3465,382.0237 717.4641,321.7162 727.0516,279.1418 730.2091,262.7905 732.2431,249.7989 733.1779,239.9681 733.0484,233.095 732.3014,229.8101 730.8163,227.6484 728.905,227.0057 726.2084,227.6525 722.9134,229.6115 719.0452,232.7738 714.201,237.4675 708.4184,243.6715 687.516,268.2616 636.5661,330.9653 576.2498,404.1031 554.5518,431.1914 542.6045,446.7639 531.6086,461.7591 521.8739,475.7242 513.4441,488.5971 504.1475,503.9717 495.3892,519.8902 487.2769,536.0947 474.1674,563.6407 469.3668,572.8054 465.6655,578.616 462.442,582.696 459.356,585.4489 455.9866,587.1743 453.8582,587.6558 451.4225,587.6998 449.0949,587.119 446.6944,585.9444 443.7614,583.9254 441.0348,581.5509 435.4285,574.9533 429.8051,566.7193 424.0624,556.3875 416.8011,541.5633 410.0852,525.9551 400.6531,501.7743 390.5312,473.0227 381.6667,445.948 372.2737,414.8699 365.9092,391.2677 361.8536,373.3882 360.6815,366.241 360.1503,360.7146 360.2678,357.0752 361.0156,354.8438 361.612,354.251 362.6252,354.0031 363.875,354.375 365.2552,355.2355 368.9795,358.58 373.4964,363.774 387.409,382.9662 403.4178,408.1099 417.9219,433.125 430.2496,456.4449 439.2047,475.3075 448.2787,497.3544 454.4615,515.4513 458.75,530.875 462.514,548.891 464.5644,566.8511 464.5587,582.5539 464.1045,587.087 463.008,592.694 461.5752,597.1337 459.7188,600.5723 457.6543,602.8396 455.1777,604.0978 453.1898,604.2963 451.0591,603.8417 448.2994,602.5093 445.7704,600.6739 440.4456,594.8735 434.2764,586.1763 428.1281,575.3664 421.1939,561.3039 413.9725,544.835 406.5469,526.2686 396.7252,499.2345 387.3331,471.6526 375.4462,433.8398 367.3645,405.9834 360.1332,378.8851 355.8805,359.8462 354.7303,352.8429 354.3232,347.9661 354.4943,344.3894 355.3229,341.9925 356.125,341.375 357.0405,341.3192 358.4174,341.7996 360.0696,342.8555 364.0786,346.6034 368.864,352.3503 375.3647,360.9948 382.3717,371.0116 402.3303,401.803 418.6172,429.1512 433.1365,455.8856 438.6444,466.9237 445.1838,480.9988 453.2817,500.5085 460.7228,521.9318 465.9066,541.1257 467.8715,550.5013 469.7786,562.0406 470.8705,570.5054 471.4876,578.4758 471.7499,587.8281 471.4872,596.1623 470.7168,603.5579 469.3421,610.4536 467.707,615.707 465.6233,619.7594 463.1779,622.4802 461.6512,623.4457 459.9788,624.0467 457.7188,624.2207 455.373,623.6371 452.4404,622.0759 449.6694,619.9826 446.8099,617.1742 443.7348,613.5367 437.0166,603.8443 430.4162,591.9969 422.7764,576.1916 415.1163,558.3669 407.0642,537.8637 396.7308,509.0729 385.5458,475.6101 370.7937,427.7428 361.1207,394.3541 353.5729,366.331 349.1071,346.5226 347.6296,338.0426 346.9649,332.2476 346.9851,328.2482 347.7602,325.5644 348.5252,324.899 349.75,324.875 351.1691,325.5462 353.1251,327.0165 358.0432,332.0421 364.1415,339.6153 372.2594,350.6575 380.7672,362.9573 396.3488,386.6398 406.6724,402.9215 425.2845,433.9888 441.2443,463.3023 447.125,475.125 453.848,489.6717 458.6426,500.9816 462.7861,511.8905 466.8229,523.575 470.1891,534.4657 473.5173,546.7673 475.9596,557.325 478.0046,568.5593 479.6326,579.9858 480.5954,590.0893 481.095,600.21 481.0485,611.5154 480.4829,621.7831 479.3537,630.0922 477.6947,637.4509 475.4675,643.801 472.7095,648.6855 469.75,651.7454 468.0791,652.6961 466.2806,653.2398 463.5481,653.2897 460.6646,652.4483 457.877,650.8965 454.6188,648.3153 451.3352,644.9351 448.0443,640.8591 440.7756,629.9749 433.4561,616.3047 424.613,597.378 416.9043,578.7678 407.658,554.4871 396.936,523.8183 382.9924,480.8913 368.8176,434.6919 356.2588,391.69 345.2051,350.8078 339.4901,327.2347 337.5455,317.5258 336.441,310.0376 336.2341,305.6135 336.848,302.4335 337.6712,301.4811 338.8138,301.3029 340.5842,302.0854 342.4579,303.6096 348.7186,310.3876 356.4719,320.4133 375.3302,347.4582 393.8941,375.0983 408.8694,397.9584 423.445,421.1752 440.7596,450.3184 449.0312,465.2969 455.8502,478.4581 462.2805,491.9375 468.1254,505.1669 472.8715,516.9589 477.6735,530.2025 482.0846,544.0029 486.2046,559.1403 489.1119,571.8675 491.5534,585.4656 493.5458,599.2416 494.94,613.4588 495.625,625.375 495.8759,640.7687 495.296,656.4109 494.3015,667.7529 492.529,679.4425 490.0316,690.2237 486.9518,698.2273 483.75,703.5 482.0553,705.3223 480.2338,706.6983 478.2704,707.6281 475.9136,708.1256 472.822,707.8284 469.791,706.672 466.6159,704.7177 463.5017,702.0618 459.8663,698.1389 456.212,693.4419 449.1302,682.319 440.0907,665.0647 432.5285,648.5069 422.4698,623.6873 412.6988,597.3588 399.145,557.1357 384.2503,510.0841 363.9251,441.8542 346.7415,381.8334 331.9863,328.7753 322.2752,290.7704 319.2934,277.717 317.7073,269.234 317.1093,262.9367 317.5933,259.682 318.2714,258.9492 319.2432,258.9221 320.5568,259.6154 322.3213,261.0944 326.8749,266.1307 333.2148,274.4004 419.7859,399.7215 439.4191,428.8211 456.0022,454.6847 467.1845,473.4095 480.0971,496.9848 488.2686,513.717 496.3369,532.565 503.107,551.2018 508.9657,569.6828 513.2475,585.9366 516.3329,599.3299 520.633,620.394 529.9938,670.6622 533.2128,683.5687 535.8446,692.2421 540.013,702.8125 542.0672,706.613 544.5348,710.2252 546.9566,712.9033 549.6509,714.9774 552.5427,716.3848 555.1715,716.9803 558.8233,716.7908 562.8011,715.5157 566.6744,713.2866 570.5016,710.1587 574.6024,705.8887 578.5752,700.9176 583.1308,694.3709 587.6531,687.062 596.7334,669.9999 607.0132,647.4481 616.6459,623.5767 627.2687,594.4173 641.8108,550.7836 656.9743,501.2817 671.4221,450.4914 685.6658,396.5025 694.2218,360.2296 697.8778,342.563 700.4075,328.5048 701.9262,317.6776 702.5909,309.4065 702.4528,302.8884 701.5292,298.3161 700.781,296.711 699.6338,295.3661 698.2169,294.6394 696.5331,294.5141 694.585,294.9732 692.375,296.0 687.0469,299.793 680.6009,305.8081 672.7331,314.2781 662.1327,326.673 650.0408,341.5228 634.8196,361.0035 619.0151,382.0185 604.1646,402.5287 589.9635,422.9351 578.8134,439.6873 569.1728,455.031 559.234,471.8517 550.9548,486.9683 541.1077,507.0932 532.3358,527.8886 524.9911,548.4039 518.9109,569.2261 514.5871,586.959 511.8142,600.8439 508.5134,619.9578 499.9521,678.1522 497.8263,689.5252 494.5689,702.9841 491.1885,712.1487 487.4793,718.5626 485.4961,720.8711 483.2283,722.687 480.8739,723.7784 478.68,724.156 475.3992,723.8196 472.4364,722.6312 468.8672,720.2383 464.7918,716.5606 461.4622,712.7371 457.6772,707.5724 449.1481,693.732 441.0341,677.7927 432.2252,657.7985 423.155,634.6691 412.6538,605.5877 399.2843,565.5332 382.8985,512.7266 367.3545,460.0814 344.2788,379.5738 326.886,316.5228 317.0869,279.0609 314.1834,266.5821 312.3866,257.321 311.701,251.3481 312.02,247.974 312.6132,247.1051 313.7075,246.968 315.21,247.7792 317.1112,249.4969 322.4733,255.9865 331.2231,268.0614 367.4997,321.0886 420.0808,395.988 447.0668,434.9332 465.2543,463.0085 478.7631,485.6276 489.2124,505.1462 496.9378,520.9375 504.221,537.9856 510.5097,554.9132 515.1439,569.0213 518.8758,581.7398 524.0492,601.4774 535.1061,648.0529 538.1673,658.8728 541.4487,668.2975 545.3305,676.7915 549.2183,682.8993 551.6468,685.4943 554.2372,687.5537 556.4349,688.8118 558.871,689.5708 562.2353,689.6997 565.8057,688.8497 569.522,686.9787 573.2615,684.2123 577.2783,680.371 581.5779,675.3548 585.8081,669.5719 590.0448,662.9594 598.9227,646.5877 608.2344,626.5645 618.4421,601.5584 628.6606,574.2226 641.299,536.6268 655.255,491.5456 668.5549,444.461 679.2074,403.5292 686.9622,369.498 689.5356,356.3865 691.3052,345.57 692.3337,336.645 692.6724,328.8874 692.2547,322.9075 691.1717,319.084 689.912,317.2726 688.0549,316.3107 685.66,316.4206 682.8793,317.4958 679.7005,319.4681 675.8021,322.5726 666.8333,331.3821 654.664,345.4149 637.8654,366.618 623.3879,386.0453 606.6907,409.6031 594.7656,427.4922 582.6959,446.724 572.5774,463.8807 563.9004,479.7983 556.4979,494.7803 549.3785,510.8836 543.1676,526.4555 537.8516,541.9043 532.7639,559.5238 528.25,578.75 525.6281,592.9683 522.8421,612.5322 520.9627,633.9725 520.0618,654.6264 519.8903,675.784 520.534,693.2961 521.9789,712.2566 524.123,728.1501 526.9643,742.079 530.25,752.5 531.6883,755.906 533.5465,759.2912 535.9617,763.0506 538.018,765.465 540.3354,767.4186 543.1396,769.0629 545.5294,769.8656 548.1544,770.151 552.1478,769.5469 556.1772,767.7815 560.6431,764.6494 565.2658,760.3429 569.4898,755.4727 574.0667,749.2304 578.7675,741.8983 583.7844,733.1607 588.9026,723.3523 594.0476,712.6346 604.5685,688.2244 616.0302,658.28 628.0431,623.7982 644.9154,570.9559 661.9126,513.6859 682.4759,439.4599 699.25,375.125 711.3403,324.8404 715.4347,305.9435 718.3718,290.5706 720.2646,278.0905 721.1673,268.2414 721.0687,260.9447 720.6033,258.0953 719.9458,256.1425 718.3816,254.1173 716.1943,253.491 713.1409,254.3132 709.5048,256.5119 705.0175,260.2107 699.9296,265.16 685.8938,280.7762 658.6667,313.9398 602.3455,384.8649 575.8491,419.762 554.1114,449.9993 541.8547,468.4271 531.6024,485.1697 520.6104,504.9585 512.5039,521.1734 506.0116,535.801 499.9867,550.8226 494.9289,564.7163 482.5987,600.8674 479.2143,609.6508 476.4978,615.6447 473.3399,621.0834 470.031,625.243 466.5481,628.0836 463.0656,629.4376 460.4041,629.5418 457.5471,628.9057 454.9926,627.6862 451.9334,625.535 448.7058,622.6089 445.7048,619.2731 438.7527,609.5515 432.3964,598.579 424.9402,583.2725 417.1937,565.787 408.9531,545.0754 397.3672,513.2705 384.6097,475.0814 374.1876,441.652 360.3292,394.6146 352.2224,364.5783 346.9542,342.1921 345.4797,334.0588 344.713,327.709 344.6604,323.469 345.3757,320.7587 346.137,319.9887 347.4287,319.8061 348.7207,320.2734 350.6412,321.6099 356.0246,327.1876 362.8318,335.7208 372.1603,348.838 385.623,368.6055 412.0364,409.6358 431.5316,442.6361 445.4558,468.7043 451.2098,480.4966 456.106,491.4355 461.9574,505.4054 466.4176,517.1306 470.4645,529.2177 473.9739,541.1358 476.8987,552.8076 479.4554,564.8423 481.3637,576.2367 483.0938,589.6636 483.75,598.0 484.1221,609.7773 483.9136,620.7144 483.1705,631.1303 481.7764,640.2149 480.0094,647.5144 477.4894,654.0816 474.6623,658.8356 473.0871,660.5671 471.2088,662.0095 469.5278,662.7824 467.6767,663.1869 465.0034,663.1213 462.0508,662.121 459.1907,660.3831 455.7499,657.5316 452.6436,654.2029 449.1058,649.6605 441.7211,638.2697 434.1795,623.9371 425.5983,605.3989 417.6192,585.8249 407.3908,558.6961 396.2615,526.5952 382.5982,484.2987 366.411,430.7651 352.8767,384.1411 341.8347,343.4984 336.3346,320.7064 334.2233,310.1492 333.0,302.125 332.7589,297.2371 333.3833,294.3544 334.197,293.539 335.5889,293.5329 337.4198,294.5589 339.4563,296.3468 345.641,303.3655 354.3057,314.871 374.3505,343.5984 396.387,376.4471 412.6575,401.2298 429.1936,427.4082 446.9435,457.472 454.2564,470.8102 460.561,483.1105 467.699,498.062 473.4275,511.0552 478.369,523.6292 483.1011,537.0474 487.6629,551.9515 491.7634,567.6885 494.6621,581.6204 497.4365,598.1004 499.358,613.9562 500.4015,626.1819 501.3236,645.6807 501.2988,663.2813 500.5741,680.6702 499.1619,694.7729 497.3955,706.1259 495.1062,715.7711 491.9499,724.7115 490.1489,728.1228 488.3678,730.7259 486.3499,732.832 484.132,734.354 481.9844,735.1719 479.668,735.416 476.5786,734.8992 473.2143,733.3254 469.4693,730.5666 465.9597,727.1922 462.2941,722.799 458.5594,717.5331 450.0114,703.1842 441.6743,686.4565 433.0047,666.4607 423.6017,642.1238 412.6233,611.4166 399.0668,570.262 381.5244,513.4441 366.4354,461.9349 342.6977,378.5098 322.7861,306.5052 314.2014,273.6843 310.8432,259.4749 308.7026,248.8786 307.9376,242.8335 308.2933,239.4289 308.8919,238.726 309.9704,238.7237 312.9385,240.9885 317.0763,245.9084 323.6617,254.9013 355.1349,301.1648 374.8285,329.5553 450.1842,435.6608 468.4356,463.27 481.6637,484.7805 490.8897,501.3202 498.8211,516.8853 507.0013,534.7412 513.1488,549.8712 522.145,576.2096 527.5853,595.3511 537.4745,632.1719 541.6344,645.2755 544.4688,652.7656 548.4138,661.1319 552.073,666.6756 554.3992,669.2858 556.4431,671.0657 558.8046,672.468 560.9629,673.2418 564.3079,673.6209 567.5046,673.1065 570.931,671.6738 574.2282,669.5303 578.0437,666.2215 581.8214,662.1527 585.5665,657.3927 589.4834,651.6672 597.8457,637.3552 606.1651,620.5716 616.27,597.0903 625.8948,572.1538 638.2074,536.581 649.7127,500.4656 662.9438,455.2058 672.7866,417.9689 680.6017,384.2543 683.311,370.6148 685.2211,359.1084 686.3759,349.6771 686.8099,341.9586 686.4671,336.0275 685.375,332.125 684.0277,330.2405 682.298,329.2951 680.1973,329.2438 677.7366,330.0419 674.9271,331.6447 671.5998,334.1556 663.5105,341.7796 653.1203,353.3318 641.3345,367.836 627.5621,386.2121 612.6713,407.162 601.4745,423.9315 590.6512,441.187 580.8101,457.901 572.2389,473.6209 564.7188,488.6875 557.8461,503.8858 551.7502,518.9564 546.2465,534.351 541.8957,548.3974 537.9351,564.0554 534.7958,579.1013 532.1936,595.2723 530.7141,608.3427 529.6363,624.1011 529.2573,639.5861 529.4844,653.1094 530.373,668.4003 532.0,681.75 534.0828,692.4453 536.8915,702.7942 540.7898,712.1365 544.3426,717.6574 546.75,720.25 548.9621,722.0016 551.3765,723.2333 553.9602,723.8959 557.3449,723.8591 561.0686,722.8028 564.7781,720.8279 568.8557,717.6505 573.0155,713.4319 577.2684,708.2487 581.8205,701.8378 586.0598,695.0917 595.3361,677.8487 605.0093,656.7604 615.5112,630.9719 625.7824,602.9552 640.2108,559.8239 653.6679,516.2693 671.795,453.0869 685.7767,400.221 695.8719,358.4099 699.3965,342.0029 701.9685,328.3136 703.8834,315.8491 704.8985,305.7026 704.9659,298.2224 704.147,293.1832 703.3253,291.3334 702.268,290.0762 700.9789,289.3554 699.4646,289.1515 697.7321,289.4449 695.7881,290.2163 690.8832,293.4344 685.0381,298.6497 677.5873,306.3699 668.8296,316.2877 658.297,328.9305 643.2755,347.7516 626.9484,368.9957 610.0176,391.761 594.8277,412.9192 582.7725,430.4044 572.3115,446.379 562.3064,462.5849 553.3102,478.1629 542.5177,498.7207 533.8452,517.6394 524.9606,540.1484 518.3736,560.4503 514.0688,575.9298 509.8685,594.1903 504.71,620.9395 498.3926,658.0421 495.0703,673.8652 491.1172,687.9332 487.4041,696.7423 485.5734,699.8358 483.5838,702.4142 481.387,704.4597 479.2711,705.7292 476.9053,706.4901 474.4098,706.611 471.284,705.8923 468.2373,704.4421 465.3169,702.3046 461.8912,699.0217 458.1489,694.6897 454.6992,690.011 446.848,677.169 439.2994,662.6123 430.9886,643.9652 421.4381,620.412 412.4364,595.7742 397.6615,551.8604 383.6536,507.2294 365.3271,446.1933 346.4157,379.9403 331.7529,326.885 321.8324,288.1975 319.4348,277.3017 318.0781,269.4062 317.6366,263.6504 318.18,260.6555 318.9336,260.0119 319.911,260.0691 322.8931,262.1137 326.9898,266.57 332.4563,273.6943 423.7185,405.7746 440.8596,431.5244 456.3343,455.8357 469.2594,477.7554 479.1644,495.9169 488.209,514.7406 495.8316,532.5417 502.9173,551.8641 508.42,569.5434 513.1851,587.6841 517.4488,607.3474 529.3486,672.1667 532.4967,685.4305 535.8983,696.584 539.6336,705.5336 542.32,710.3608 544.4481,713.332 546.7656,715.7801 549.5695,717.9608 552.2803,719.2426 554.8658,719.7623 558.4584,719.5804 562.3029,718.339 566.048,716.152 570.0901,712.858 574.0978,708.7195 578.3365,703.4447 582.6473,697.2275 587.2483,689.7407 596.7198,671.9902 606.2997,651.0482 616.9015,624.5872 627.7854,594.6707 642.3335,550.6803 657.1954,502.0278 672.8642,446.5529 686.2318,395.6057 695.5335,356.2932 698.7837,340.7101 701.1379,327.6992 702.6932,316.6028 703.41,307.9033 703.324,300.7549 702.4194,296.0444 701.602,294.3179 700.5468,293.1368 699.25,292.5 697.6338,292.389 695.7902,292.8095 693.7273,293.7346 688.6508,297.2533 682.3178,303.044 674.4976,311.3072 665.1626,322.0308 653.877,335.7434 639.7136,353.6461 625.0389,372.9498 607.3677,396.9428 593.5522,416.4374 581.3831,434.4037 571.1335,450.3252 561.5685,466.139 552.7531,481.757 542.7439,501.6375 532.9007,523.7689 525.0,545.0 518.8223,565.0173 514.5906,581.6273 510.0237,603.1214 498.6617,673.0773 495.8251,686.4215 493.2269,696.0749 489.5249,705.8595 487.6763,709.1313 485.5625,712.0625 483.2378,714.3608 480.7304,715.9336 478.2959,716.655 475.6198,716.6929 472.6535,715.9863 469.6559,714.371 466.0427,711.5199 461.8973,707.4227 458.6337,703.354 455.162,698.3148 446.836,684.268 438.7876,667.9449 429.5992,646.7277 420.6953,623.8388 410.4988,595.4375 397.2198,555.4611 379.821,499.2768 365.5428,450.9312 344.8961,378.7841 326.8491,313.0095 319.321,284.1081 316.5284,271.8793 314.8128,262.7863 314.1061,256.3974 314.4738,253.3342 315.2389,252.4821 316.6326,252.628 318.5417,253.9398 320.9408,256.3526 327.7851,265.0688 338.9715,280.7663 369.5678,325.4762 422.4633,401.2873 444.8633,434.2218 463.2894,462.9388 471.529,476.7561 478.9322,489.9308 487.9252,507.2429 495.3079,523.019 503.2212,542.2842 508.7669,557.9094 514.1498,575.6911 518.1671,590.8929 521.5879,605.375 532.8322,657.7622 535.8376,669.1274 538.578,677.7249 543.309,688.5047 545.3112,691.9438 547.6784,695.2126 550.1396,697.8637 552.3835,699.5296 554.8157,700.7062 557.7506,701.4517 561.3474,701.3679 564.8901,700.2378 568.7076,698.064 572.4666,695.0714 576.3906,691.1406 580.5715,686.0969 584.6018,680.4104 588.9377,673.483 597.9307,656.8512 607.0716,636.9915 617.3269,611.8635 627.8597,583.3503 641.476,543.0374 654.6346,500.4213 668.7332,451.1688 680.6429,405.7221 689.3314,368.986 694.691,341.5366 696.1932,330.8911 696.9208,322.1261 696.8568,315.5795 695.9986,310.8523 695.0706,308.876 693.6247,307.4323 692.0797,306.9032 689.9277,307.075 687.4069,308.0563 684.525,309.8048 677.8201,315.342 669.4091,323.9301 658.8696,336.0749 645.3533,352.7992 631.1159,371.354 615.0313,393.2978 600.8653,413.4095 588.3758,432.1174 576.9452,450.2187 567.3523,466.4085 559.6059,480.6538 550.9022,498.2562 543.8791,513.8505 535.6164,535.3836 531.777,546.9868 528.3741,558.4864 522.513,582.456 520.2329,594.0318 518.3053,605.8605 515.8234,624.2489 513.5623,648.4399 511.2634,685.2643 509.6385,726.3732 508.544,744.6233 506.4585,766.4795 504.7758,776.8658 503.5083,782.4723 502.0004,787.5028 500.5113,791.1906 498.6331,794.4755 496.6667,796.9573 494.2668,798.8416 491.8992,799.8489 489.3178,800.0083 485.9269,799.227 483.0353,797.7266 479.5065,794.9987 475.5457,791.0738 471.6204,786.2184 467.4853,780.2819 463.4267,773.7831 459.4909,766.638 449.5873,746.057 441.2619,726.4896 431.3155,700.0659 420.1379,667.7921 409.0529,633.3478 396.0553,590.8288 385.2813,554.1473 371.9039,506.8938 295.6194,231.6074 288.4145,203.3545 287.2037,196.4954 287.2636,192.9437 287.5367,192.4914 288.0463,192.338 289.4334,193.1873 294.0221,199.0208 340.8426,270.6679 359.4508,297.5953 377.9475,323.1894 393.6221,343.9609 412.5367,368.2696 478.968,451.69 492.5037,469.5268 505.5846,487.7328 517.4372,505.4308 530.5654,527.5944 542.965,551.7446 555.5672,578.1773 559.9306,586.1204 563.2325,591.347 566.2621,595.1868 570.1206,598.8037 573.1435,600.588 575.7302,601.3157 578.3728,601.4452 580.982,600.971 583.6136,599.8827 586.3838,598.1793 589.4724,595.674 592.6773,592.4335 595.785,588.7117 602.0129,579.6297 608.757,567.6393 614.6646,555.3264 622.4373,537.0949 630.222,516.4847 639.1126,490.2125 646.3512,466.2729 652.1081,444.5095 656.6399,423.8835 658.9685,409.1717 659.474,402.8377 659.4803,397.4956 658.9753,393.7132 657.8516,390.9297 656.9141,389.8672 655.7891,389.2422 653.3691,389.2012 650.14,390.6432 645.9255,393.8618 640.9355,398.832 635.0386,405.6469 628.9321,413.5066 622.4266,422.6475 609.9266,442.1296 598.8664,461.8516 587.9766,484.1543 579.04,505.8711 573.3175,523.3908 568.446,542.3321 565.5437,558.8974 564.1282,575.4629 564.0482,583.2333 564.408,590.8105 565.0393,595.732 566.2582,601.1547 567.7148,605.8164 569.6705,609.679 572.0368,612.6656 574.6685,614.327 577.306,614.839 579.7093,614.5855 582.4281,613.514 585.0748,611.8338 587.8888,609.4688 590.7829,606.4329 597.1773,597.7839 604.0185,586.2575 611.0575,572.2293 618.7474,554.7739 626.3044,535.7049 634.827,511.7339 643.3235,485.341 651.2878,458.0233 657.2349,434.7978 661.5942,414.1831 663.9146,398.3039 664.3336,392.0642 664.2513,386.9838 663.6444,383.1212 662.6028,380.6781 661.6753,379.6012 660.5703,378.9421 659.2877,378.6954 657.4349,378.9587 653.6783,380.8147 648.8692,384.6247 643.4686,390.0647 637.3186,397.2823 630.1263,406.5771 622.9263,416.6566 615.7716,427.4267 608.3379,439.3633 601.4918,450.9534 595.4596,461.9815 589.0251,474.6697 584.071,485.203 579.1471,496.704 574.4394,508.7664 567.8417,529.0164 565.3607,538.0459 563.2153,547.3108 561.2941,557.4474 559.9144,566.7593 558.9143,576.3526 558.4552,584.6076 558.4735,593.325 558.8901,601.3881 559.8805,608.3273 561.5223,615.8249 563.3029,620.6846 565.7204,625.0996 568.135,627.7417 571.226,629.5316 573.447,630.021 576.2293,629.7208 579.2757,628.5389 582.5317,626.4684 585.8295,623.5651 589.0861,620.0134 595.7313,610.8725 603.0507,598.2451 610.8392,582.3839 618.972,563.608 627.0273,542.8516 636.9911,514.5614 646.8198,483.5457 654.9176,455.4375 662.3228,426.3768 667.0,404.625 669.7545,386.6069 670.2439,379.9884 670.1868,374.8641 669.6144,370.8634 668.4329,367.7366 667.3991,366.4868 666.1348,365.7754 664.6369,365.5996 662.9236,365.9443 658.4709,368.2868 653.2057,372.6485 646.5219,379.5741 638.9721,388.5008 630.5166,399.4944 621.9926,411.4536 613.5059,424.2114 605.3011,437.3686 597.4598,450.8415 589.0693,466.1453 583.4766,477.2205 577.9559,489.1706 572.8604,501.2136 568.2213,513.339 564.3766,524.5092 561.3147,534.6018 558.373,545.83 555.8717,557.0149 554.0327,567.6251 552.4518,579.5694 551.5971,589.5131 551.2376,599.0707 551.4155,608.4851 552.2168,618.335 553.4686,626.5895 555.2416,634.1056 557.4464,639.8306 560.3776,644.8679 563.166,647.8066 566.356,649.5518 568.976,650.1366 572.1706,649.8144 575.2529,648.6531 578.4029,646.6927 581.833,643.7396 585.5316,639.7656 589.4614,634.7708 593.0609,629.5069 600.7594,616.16 609.0559,599.1307 618.0747,578.21 626.9176,555.3578 637.9004,523.899 648.682,489.9237 659.2098,453.396 667.9676,419.5973 673.7101,393.5779 677.2072,372.237 677.8769,365.0009 677.9537,359.0706 677.3811,354.4438 676.2228,351.1304 675.2078,349.7634 673.6869,348.8303 672.162,348.637 670.0165,349.0997 665.2552,351.7946 659.0236,357.1588 650.7683,365.8586 641.8283,376.4944 631.7115,389.6774 621.3709,404.1481 610.95,419.6909 600.5953,435.9671 592.2082,450.0325 584.3711,464.1567 576.563,479.335 569.939,493.4027 564.2006,506.9725 559.008,520.8049 554.9104,533.0865 551.5207,544.9528 548.097,559.0845 545.5095,571.9524 543.75,583.25 542.6223,593.7502 541.694,608.5962 541.5202,619.2182 541.8688,631.3321 542.8167,641.0858 544.4729,651.6097 546.8779,660.6545 549.5723,668.0233 552.845,673.6976 556.0538,677.171 557.9136,678.4266 560.2219,679.4501 563.1752,680.0068 566.6511,679.5074 570.0433,678.0667 573.7548,675.6119 577.6118,672.2148 581.4856,667.9989 585.25,663.125 589.5849,656.6471 598.1602,641.6245 607.0861,623.1145 616.4651,600.7992 626.3874,574.4873 639.5319,536.3608 652.238,495.832 664.8556,452.0872 675.8835,409.9476 683.2884,377.8272 685.8132,364.915 687.5826,353.9927 688.669,344.6651 689.0393,337.0473 688.6705,331.3141 687.5547,327.2441 686.41,325.489 684.6693,324.3828 682.8299,324.2213 680.2788,324.9259 677.5403,326.4028 674.2963,328.754 666.3793,336.1457 655.2958,348.5646 641.7173,365.3115 626.9483,384.8168 612.5957,404.9135 601.0,422.125 589.7077,439.9003 579.5922,456.8878 570.7827,472.8239 562.7861,488.5992 555.6234,504.0997 549.67,518.6867 543.9515,534.5237 539.5833,548.8431 535.0501,566.2844 532.0222,580.8842 529.371,597.0491 527.51,613.0427 526.3798,628.7352 525.8698,644.3084 526.07,662.3814 527.1908,680.0452 528.603,691.8052 530.7125,703.9539 533.9937,716.4677 537.7441,725.9143 541.1218,731.389 543.75,734.375 545.8599,736.156 548.1884,737.4759 550.7193,738.2855 554.4699,738.4614 558.2831,737.5277 562.4398,735.4197 566.3102,732.4955 570.4207,728.4205 574.8741,723.04 579.4478,716.5925 584.1275,709.1482 588.8095,700.9021 593.5671,691.7122 603.3686,670.2556 614.2193,643.3708 625.1417,613.2975 640.8027,566.1725 656.1843,515.7779 673.7204,454.335 688.8989,396.9948 699.9165,351.5477 703.8274,333.5576 706.9318,317.4953 708.9721,304.7031 710.0482,294.6501 710.1938,287.1701 709.3872,281.8701 707.856,279.018 706.8209,278.2173 705.348,277.784 703.9321,277.8479 702.012,278.416 697.884,280.782 692.7945,284.9356 686.4708,291.1278 678.9938,299.2922 670.0528,309.7356 655.2195,327.8157 639.7906,347.3186 619.2803,373.9654 602.9158,395.8735 587.1462,417.6721 576.4312,433.0687 565.4766,449.625 555.3434,465.8415 543.5802,486.2057 533.6687,505.2963 524.964,524.704 517.0399,545.0407 511.5017,561.5298 507.5349,575.1082 502.8425,593.4961 491.6457,641.8236 488.6365,652.3266 485.7358,660.5349 482.1069,668.0048 478.2051,673.3197 476.3727,674.97 474.4226,676.1609 472.3416,676.8925 470.255,677.1574 467.3481,676.7678 464.5598,675.6564 461.125,673.5 457.9468,670.7754 454.5681,667.1 451.2239,662.7951 444.0284,651.6482 436.1818,636.8876 427.9747,619.2413 419.8186,599.3035 410.098,573.3866 397.7829,537.8195 383.8827,494.9674 369.7383,448.4833 354.2731,395.4001 339.5776,342.2119 332.6158,314.7523 329.9535,302.6599 328.2614,293.2446 327.7177,287.6001 328.1095,283.7226 328.8391,282.5797 330.1513,282.3455 331.666,283.0709 333.8638,284.9255 340.0631,291.9705 348.5777,303.344 374.3385,340.3567 403.4519,383.4276 422.9476,413.0962 439.2617,439.0565 449.9236,456.8611 457.8904,470.9331 464.3458,483.3014 472.379,499.7946 478.3742,513.1631 484.1122,527.4081 488.84,540.4872 492.889,553.3634 497.5249,570.2573 501.082,586.5593 503.8152,601.6197 506.5835,621.5839 508.754,643.9444 510.0134,664.6547 511.359,706.1725 511.6806,748.9537 511.299,795.997 510.7868,812.6192 509.5835,828.3355 507.7907,839.4021 506.5754,843.2541 505.1541,846.0718 503.6388,848.2241 501.494,849.922 499.3009,850.6557 496.5898,850.6582 493.4882,849.7191 489.7733,847.3976 485.9398,844.0561 481.8588,839.472 477.7276,834.0323 473.5146,827.6332 469.0086,819.9287 464.1703,810.803 455.168,791.224 444.3105,764.5528 435.1396,739.2247 424.1979,706.4341 415.4641,678.917 406.1658,648.0837 383.4524,568.4363 318.3384,328.596 276.4063,179.35 272.2776,163.0091 271.7957,159.8469 272.0717,158.4292 272.769,158.5848 273.8735,159.6834 277.2649,164.5079 307.3459,214.14 321.4088,236.1913 335.1494,256.9384 358.2686,289.719 384.1392,323.9019 405.5786,350.5821 429.955,379.0747 452.5315,404.4811 502.5113,459.0962 517.8645,476.3793 531.0726,492.0436 539.4016,502.4641 550.5833,517.3981 567.0088,540.6789 570.9185,545.8001 577.1977,552.659 579.9545,554.8021 582.983,556.546 586.6385,557.4672 588.8759,557.3979 590.985,556.9588 594.7743,555.0867 598.625,551.875 603.2058,546.6344 607.6768,540.2193 612.5845,531.7212 617.0411,522.6062 623.585,507.3143 628.8193,493.1626 633.1242,479.7785 638.2654,461.2544 640.7844,449.4033 642.0295,440.2093 641.9455,432.5329 641.449,430.291 640.6281,428.7961 639.1924,427.754 637.7536,427.6928 636.0,428.375 633.4458,430.1448 627.6964,436.0051 621.3314,444.526 614.2147,455.6427 607.0226,468.6131 600.7499,481.7141 595.1768,495.1688 591.1339,506.7956 587.213,520.7189 585.3102,529.8194 583.8584,540.1616 583.5194,549.4754 584.4142,557.0323 585.1443,559.7991 586.1706,561.9955 587.625,563.875 588.9099,564.7202 590.4133,564.992 592.0697,564.7557 593.9176,564.0085 595.7861,562.8197 599.5134,559.3124 603.7067,553.7143 608.8208,545.3145 613.6064,536.2251 618.076,526.26 623.2466,513.5148 628.7695,498.3221 633.4708,484.1502 637.6368,469.9238 640.5806,458.1058 643.1306,445.4221 644.25,437.0 644.3397,428.4449 643.8878,426.0802 642.963,424.206 641.5604,423.074 639.7356,422.9864 637.5744,423.8768 634.9891,425.7027 632.1138,428.4022 628.5292,432.4588 620.625,443.0 614.2498,453.0562 607.0582,465.98 599.1906,482.332 593.8054,495.2937 589.0938,508.6406 585.7641,520.2468 583.1677,532.5279 581.5733,544.1561 581.2454,553.8519 582.1261,562.34 582.9605,565.0746 584.2234,567.586 585.5892,569.3635 587.1611,570.4187 588.594,570.7496 590.556,570.554 594.2266,568.7285 598.2126,564.9467 602.8582,558.9196 607.8116,550.8553 612.6846,541.5833 618.0962,529.7582 623.0403,517.663 629.6852,499.4977 634.6608,484.4099 639.2566,468.4417 643.0566,452.9063 645.5729,440.1323 646.8075,429.5752 646.6959,423.4336 646.0816,420.8773 645.1708,418.9745 643.6662,417.7491 641.8531,417.7138 639.2176,418.8262 636.5019,420.7942 633.3603,423.7863 629.9397,427.6547 621.8656,438.4293 612.375,453.5 604.9583,466.8333 597.9326,481.45 591.512,496.9875 586.8079,510.7374 583.0105,524.222 580.2102,538.058 578.75,550.0 578.6206,559.8032 578.9767,564.1633 579.6798,567.8781 580.7726,571.311 582.0898,574.1172 583.6499,575.9277 585.5,577.0 587.1643,577.2627 589.0309,576.9606 591.0426,576.1127 593.1019,574.7622 597.7095,570.2546 602.5751,563.6702 607.9741,554.601 613.8552,543.0046 619.3985,530.7043 624.834,517.1342 630.6223,500.999 637.065,480.897 641.8092,464.2455 645.6376,448.6438 648.1684,435.4172 649.417,424.7598 649.2131,417.2809 648.6614,414.8711 647.8057,413.1352 646.101,411.9268 644.0472,411.8841 641.5965,412.8906 638.8922,414.8148 635.4994,417.9523 631.5867,422.2635 622.9657,433.6128 613.2608,448.7322 603.6437,466.1808 596.0824,481.8888 589.3834,497.9319 584.2693,512.6563 580.6274,525.8464 577.559,540.4979 575.8289,553.7565 575.6978,565.5088 576.1293,570.0106 576.9243,574.3297 578.0889,578.1993 579.463,580.9954 581.162,583.1665 583.1099,584.3723 584.9883,584.6855 586.8974,584.434 589.2319,583.4798 591.4611,582.0368 596.1819,577.5587 601.3784,570.5542 607.1482,560.8956 612.995,549.4871 618.9289,536.1138 625.0157,520.9517 631.6364,502.7049 637.1283,485.9299 643.5057,463.8081 647.8089,446.6571 650.7922,431.7778 652.2852,420.2126 652.5115,415.2727 652.3398,411.5653 651.838,408.9366 650.8865,406.8497 649.9065,405.7622 649.0469,405.2812 646.996,405.18 644.1409,406.417 640.5938,409.0312 636.5576,412.917 631.9789,418.1342 621.875,431.75 611.7294,447.6973 601.9905,465.3261 593.6456,482.71 585.8197,501.7491 580.8174,516.8468 576.2351,534.3378 573.6814,548.2317 572.3231,562.5912 572.2396,567.8259 572.5565,573.3897 573.2335,579.1054 574.1409,583.3423 575.372,586.9503 576.822,589.645 578.6479,591.6514 580.6762,592.8788 582.6769,593.259 584.9413,592.9661 587.375,592.0 589.6495,590.5428 594.731,585.6811 599.9028,578.6852 606.0885,568.3697 612.2131,556.3807 618.7567,541.7503 625.3685,525.1951 632.1126,506.3966 640.6577,480.1278 645.8512,461.8064 650.7268,442.25 654.0126,425.8689 655.6617,413.4354 655.875,408.625 655.6812,404.334 655.0714,401.0706 654.1631,399.0692 653.2834,398.1333 652.3691,397.6553 650.0348,397.5683 647.2034,398.7322 643.875,401.125 639.5852,405.1267 634.9217,410.2496 629.6765,416.7678 624.552,423.8391 612.5682,442.3581 602.0551,460.9101 591.6686,481.8124 587.635,490.975 583.9759,500.2668 577.9054,517.9531 573.5428,533.9107 570.2285,550.6035 569.2004,558.0803 568.6094,565.1094 568.378,572.7129 568.5405,579.1753 569.1869,585.6077 570.1736,590.9731 571.6249,595.4313 573.5863,599.254 575.6562,601.625 578.0863,603.036 580.0254,603.4444 582.4688,603.1094 585.1399,601.9771 587.9277,600.1509 590.6689,597.7266 593.3056,594.8704 599.1934,586.8401 605.5718,576.1223 611.6216,564.0419 618.7658,547.8457 625.8438,529.9384 633.8618,507.5337 641.5753,483.611 648.3298,460.3509 653.8197,438.6861 657.5,421.0 659.6889,405.7519 659.9943,400.5892 659.875,396.625 659.2571,392.9781 658.1724,390.416 657.1046,389.2646 656.0709,388.7579 653.3193,388.887 649.745,390.5862 645.5536,393.8269 641.1272,398.1923 635.9024,404.2721 628.5,413.875 622.506,422.2495 609.5879,442.4304 597.9237,463.2235 587.9307,483.9478 579.3918,504.8566 572.9715,523.969 568.0351,543.2753 565.3615,558.5059 563.9217,574.0619 563.75,583.5 563.9537,589.2609 564.6598,595.594 565.833,601.583 567.4507,606.4419 569.8107,610.995 572.1188,613.6667 574.8035,615.2658 577.0813,615.6835 579.5862,615.3515 582.2905,614.2946 585.1852,612.4704 587.9997,609.9889 590.99,606.7331 597.5899,597.7216 604.5036,585.9156 611.7731,571.2778 619.3148,554.059 626.9296,534.6456 635.6107,510.1037 644.5446,481.9202 651.4047,457.98 658.1622,431.2838 662.1034,412.168 664.3673,396.1298 664.6828,390.6392 664.5367,386.2029 663.8635,382.2715 662.8391,379.8405 661.8486,378.6907 660.6353,378.0368 659.2576,377.8809 657.7207,378.1599 653.9034,380.1239 649.4194,383.7887 643.5157,389.7841 637.0308,397.3388 630.125,406.25 622.5676,416.8139 615.2757,427.757 608.2806,438.9935 601.3678,450.8649 594.4464,463.5451 588.8239,474.6349 583.536,485.96 578.8492,496.8972 574.6679,507.7029 567.8079,528.2268 565.1469,538.0262 562.6904,548.6555 560.9071,558.1332 559.5026,567.9277 558.5775,577.2907 558.0825,586.5368 558.0124,594.2878 558.4841,601.946 559.4654,609.3875 560.9746,615.9517 562.8303,621.4727 564.8094,625.1905 567.8799,628.7798 570.6731,630.512 573.2244,630.9969 576.2741,630.6884 578.8615,629.7032 581.6552,627.954 584.9827,625.1327 588.2141,621.7435 591.6444,617.4628 595.2539,612.269 602.5625,599.8014 610.386,584.1101 618.2008,566.1144 626.3215,545.343 636.8916,515.3089 645.869,487.549 655.0503,455.5435 662.1904,427.8655 667.1461,405.0117 669.9742,386.9438 670.5337,380.0626 670.5499,374.2141 669.9622,369.7664 668.8633,366.9244 667.7243,365.6235 666.476,364.9711 665.0252,364.7972 663.0208,365.2016 658.6135,367.6089 652.7307,372.5709 646.1809,379.4159 638.5095,388.5845 630.6022,399.0293 621.3803,412.0965 613.6113,423.6634 605.7308,436.2418 597.3686,450.4269 590.531,462.9029 583.3892,476.9269 577.9269,488.4881 572.7287,500.6832 567.6015,513.9719 563.8575,524.8984 560.6501,535.5606 558.0195,545.674 555.6063,556.7566 553.6447,567.4383 552.3594,576.7656 551.1234,589.8765 550.737,598.8732 550.875,609.125 551.4369,617.093 552.8223,627.3089 554.1953,633.3773 556.6185,640.3094 558.8815,644.7365 562.1205,648.7019 563.8351,650.0877 565.5591,650.9682 568.5706,651.5948 571.6447,651.3171 574.8336,650.115 578.0327,648.1221 581.4451,645.2721 584.9514,641.6011 588.6165,636.9721 592.5072,631.3018 600.2899,617.9816 608.6724,600.9562 617.9758,579.3336 627.0702,555.9581 637.956,524.5771 649.3303,488.6248 659.7295,452.5006 668.1838,419.8593 674.193,392.9698 677.5776,372.9437 678.3573,364.7703 678.4981,358.1962 677.9788,353.161 676.8708,349.9159 675.6655,348.4455 674.017,347.629 672.3551,347.5297 670.1329,348.0932 667.6132,349.3652 664.8042,351.3218 658.2623,357.2219 649.8936,366.2625 640.3054,377.9187 629.3283,392.4152 617.75,408.75 608.1829,423.1254 598.922,437.9729 589.9475,453.3023 581.7485,468.3322 574.7864,482.1255 568.7769,495.184 563.0644,508.9092 557.7332,523.1134 553.7134,535.2325 550.3043,547.2138 547.4198,559.4493 544.8889,572.635 543.0009,585.1849 541.6977,597.3935 540.9985,609.055 540.7373,622.0696 541.14,632.1486 542.1328,643.616 543.9362,654.127 545.8417,661.8532 549.1767,670.5217 551.7513,675.0971 553.5581,677.4103 555.8024,679.639 557.7149,680.9683 559.4318,681.7372 562.396,682.311 565.852,681.9818 569.317,680.6266 573.0784,678.2005 577.0207,674.7846 580.8735,670.5951 584.9935,665.2518 589.1156,659.1029 593.5022,651.752 598.0528,643.3417 607.347,623.9685 617.0672,600.8669 627.0046,574.5629 639.9677,536.5872 651.9208,498.5612 666.1219,449.0856 676.3052,410.1131 684.2529,375.2037 686.8553,361.7336 688.6674,350.286 689.7176,340.4839 689.9219,333.125 689.3147,327.666 687.9614,324.3125 686.4665,322.9379 684.4995,322.3928 682.1535,322.7437 679.4357,323.9536 676.3536,325.9855 672.46,329.2079 663.2198,338.4958 650.9554,352.7451 635.7906,371.9759 621.3801,391.5076 606.3493,413.1448 594.7523,430.7948 584.1961,447.9122 574.3767,464.9688 565.5034,481.6031 557.9818,497.1308 551.0095,513.1104 545.7482,526.9353 540.625,542.375"/>
  </g>
</svg>
