<?xml version="1.0" encoding="utf-8" ?>
<svg xmlns="http://www.w3.org/2000/svg" xmlns:cc="http://creativecommons.org/ns" xmlns:dc="http://purl.org/dc/elements/1.1/" xmlns:ev="http://www.w3.org/2001/xml-events" xmlns:inkscape="http://www.inkscape.org/namespaces/inkscape" xmlns:rdf="http://www.w3.org/1999/02/22-rdf-syntax-ns" xmlns:sodipodi="http://sodipodi.sourceforge.net/DTD/sodipodi-0.dtd" xmlns:xlink="http://www.w3.org/1999/xlink" baseProfile="tiny" height="27.09333333cm" version="1.2" viewBox="0 0 1024.0 1024.0" width="27.09333333cm">
  <metadata>
    <rdf:RDF>
      <cc:Work>
        <dc:format>image/svg+xml</dc:format>
        <dc:source>vpype read './original_svgs/Strange Attractors #479.svg' linemerge linesimplify write './Strange Attractors #479.svg'
</dc:source>
        <dc:date>2024-08-05T01:36:03.908254</dc:date>
      </cc:Work>
    </rdf:RDF>
  </metadata>
  <defs/>
  <g fill="none" id="layer1" inkscape:groupmode="layer" inkscape:label="1" stroke="black" style="display:inline">
    <polyline points="454.625,654.25 430.7284,648.1156 418.8359,645.6289 407.2654,643.5924 395.6286,641.9425 384.3242,640.7399 373.346,639.967 362.3379,639.6013 351.3259,639.6649 340.6632,640.1558 330.0251,641.0869 319.6593,642.4343 309.5493,644.1847 299.4478,646.4041 290.1751,648.8999 280.9714,651.864 271.9063,655.3235 263.0552,659.3032 255.0892,663.4889 247.4117,668.1825 240.3393,673.2226 233.9887,678.515 228.3465,684.0568 223.4384,689.8182 219.2902,695.7692 215.9276,701.88 213.3763,708.1209 211.662,714.4619 210.8333,720.5345 210.8192,726.9161 211.6693,733.0243 213.3682,739.0691 215.7454,744.7083 218.8551,750.2351 222.683,755.6223 227.215,760.8431 232.4367,765.8703 238.3339,770.6771 244.8924,775.2363 251.8782,779.398 259.2788,783.1667 267.1882,786.611 275.5608,789.7211 284.7104,792.5908 294.2601,795.0777 304.1583,797.171 314.3537,798.8599 324.3892,800.0922 334.6061,800.9308 344.9587,801.3661 354.9703,801.3899 365.363,801.005 375.7496,800.2154 386.4739,798.9819 396.731,797.4049 407.2396,795.3808 417.2101,793.0663 427.34,790.303 437.2146,787.1834 446.7915,783.7206 456.1289,779.887 465.093,775.7504 473.6971,771.3275 482.2706,766.4409 496.6816,757.0089 510.2959,746.4255 522.3991,735.2653 533.4915,723.0703 543.4089,709.9961 552.1326,696.0892 559.7211,681.2222 566.0394,665.6055 570.6697,650.9527 574.2587,636.0007 576.9113,620.2942 578.6238,603.7255 579.3848,590.5474 579.6496,577.5119 578.0395,522.3454 578.2033,508.9719 578.8777,498.8362 580.2523,490.2335 582.2653,482.4713 585.0532,475.3136 588.7188,468.5287 594.3863,460.9103 601.2065,453.9234 609.6551,447.0783 620.4779,439.8176 633.5277,432.2595 646.9063,425.3036 668.2157,415.3441 700.8876,400.6123 712.322,394.9791 718.375,391.5156 722.5366,388.5383 724.585,386.207 725.1,384.831 725.0761,383.8518 724.18,382.373 721.8194,381.0315 717.7926,379.8235 712.566,378.8939 700.3836,378.0333 681.8207,377.9992 662.4175,378.9435 637.8903,381.0823 618.6612,383.5185 598.809,386.8757 583.5984,390.1063 570.2687,393.6255 556.6648,398.0398 545.2038,402.6276 535.8774,407.3223 527.9065,412.4798 521.5662,417.9303 516.768,423.6859 514.7103,427.2743 513.2412,431.1083 512.4389,435.1062 512.3743,438.621 513.1307,442.4249 514.7208,446.2594 516.7519,449.5481 519.3236,452.384 522.875,455.25 526.1758,457.191 530.1381,458.7815 534.5877,459.9423 539.1004,460.5296 544.5,460.625 549.2845,460.2419 554.959,459.3159 564.5989,456.8505 576.1323,452.7595 600.1507,442.7238 634.6644,427.7845 658.5906,417.9687 696.2852,403.2486 718.1342,394.311 728.9933,389.3025 736.639,385.0365 740.5502,381.7521 741.3883,380.256 741.4397,379.0966 740.3244,377.518 737.8166,376.1987 733.796,375.0892 728.157,374.2012 712.0742,373.0917 692.0087,373.0464 667.7446,374.1291 642.7828,376.1414 617.2817,379.1409 594.6256,382.6918 578.0842,386.023 561.6355,390.1451 547.587,394.4606 535.2125,399.1697 524.4478,404.328 515.2358,409.9446 507.8019,415.941 504.6823,419.1598 502.2101,422.222 499.4984,426.5466 497.6656,430.7756 496.4272,435.6716 496.1273,439.7305 496.6403,444.2495 497.9829,448.7602 499.9333,452.8819 502.551,456.617 506.125,460.375 509.5765,463.0857 513.8833,465.5443 518.8229,467.5854 523.3458,468.7129 528.6851,469.3666 533.782,469.2435 539.7784,468.4508 550.4095,465.5406 561.2519,461.1965 599.9008,442.4295 619.6424,433.4678 640.4946,424.6571 670.4821,413.0811 732.2172,390.6284 750.4051,383.5454 758.1866,380.0328 763.6249,377.0091 766.7419,374.4463 767.4867,373.2708 767.6195,372.1799 767.25,371.375 766.2672,370.4971 763.0692,369.0693 757.9042,367.8368 751.2596,366.9254 731.7589,365.8547 707.0237,365.8241 676.0217,366.9952 645.8018,369.0456 619.2959,371.7333 591.9088,375.5041 571.1593,379.1267 552.8801,383.0871 536.8861,387.4031 522.1003,392.3691 508.9951,397.8644 497.6694,403.8697 488.5317,410.1471 484.6386,413.4674 481.0509,417.0741 477.1089,422.0025 474.0832,427.057 471.9306,432.3657 470.7733,437.5086 470.4557,443.1545 471.0901,449.0555 472.6533,454.6347 475.0815,460.0801 478.5284,465.7505 482.7268,470.8426 487.9732,475.7283 493.112,479.2549 499.1885,482.2598 505.0224,483.9912 509.9829,484.5386 515.9528,484.0147 519.3325,483.1143 522.7792,481.6733 527.1491,479.0812 530.208,476.636 537.3974,469.0073 548.7727,454.318 553.2589,449.2074 556.0471,446.4091 561.8078,441.6079 566.3788,438.4661 577.0686,432.6168 587.1617,428.0427 595.5567,424.6965 617.0556,416.8383 638.9167,409.8194 662.6731,402.7358 691.1185,394.8057 739.0355,382.3671 819.1958,363.1075 847.2736,355.8785 855.8725,353.2235 861.5756,351.0052 864.6793,349.1096 865.2428,348.2569 865.1767,347.5676 864.4241,346.8126 862.9065,346.1114 857.9246,344.9549 849.9165,343.9929 838.3439,343.2119 803.9823,342.1977 760.6206,342.1555 709.6507,343.1257 662.1124,344.8336 619.162,347.2319 580.2405,350.3439 549.8909,353.5565 522.4394,357.2217 497.652,361.353 475.3517,365.9953 455.6456,371.1628 438.0978,376.9401 422.6351,383.3398 409.6136,390.1722 400.5846,396.1292 392.892,402.504 386.4216,409.4242 381.3027,416.7327 377.507,424.4403 375.0112,432.4982 373.714,441.1748 373.6609,450.3576 374.6225,458.3765 376.5195,466.8454 379.5142,476.3067 383.4326,486.169 388.5208,496.6288 395.4284,508.8997 413.4071,536.4592 416.7274,542.0533 418.7654,546.2643 419.7466,549.2155 420.0625,552.0139 419.7222,554.6749 418.8889,556.7953 417.7554,558.6264 414.1082,562.3736 408.186,566.8591 386.0587,581.7919 375.2153,589.9796 368.3943,595.7327 361.9211,601.7267 356.5512,607.2459 351.898,612.699 347.4247,618.7497 343.6229,624.7906 340.6786,630.5706 338.5866,636.0594 337.2026,641.8043 336.71,647.136 337.0159,652.308 338.1186,657.0417 339.4456,660.1623 341.416,663.4205 343.8627,666.4494 346.5626,669.0607 349.47,671.2042 353.0582,673.2239 356.9973,674.9057 361.228,676.2666 365.1432,677.1596 369.5822,677.7525 379.2978,677.8546 389.1327,676.5565 399.1176,673.8621 407.966,670.289 416.3651,665.568 425.2164,659.1084 432.3841,652.4749 438.767,644.9457 444.684,635.8803 448.7041,627.8651 451.8932,618.6384 453.3923,612.4105 454.2888,606.3906 454.634,600.5109 454.375,595.5 453.3281,589.5 451.8934,584.8864 449.4307,579.9781 446.642,576.3836 443.4142,573.6821 439.7271,571.5757 435.5278,570.1713 430.9949,569.4662 425.2915,569.4663 419.6548,570.1143 413.608,571.4859 406.8359,573.5633 398.813,576.7387 390.7101,580.5973 383.1179,584.8809 375.0022,590.1305 367.1896,595.8779 360.133,601.7619 353.7079,607.8546 347.9198,614.1452 343.1719,620.2031 339.2794,626.1652 336.2626,631.9052 334.0053,637.72 332.5605,643.543 331.9495,649.4407 332.2205,654.4542 333.3884,659.5744 334.7681,663.0439 336.5627,666.2867 338.7512,669.1675 341.3794,671.8005 344.7141,674.4035 348.7998,676.8835 352.7895,678.7517 356.8981,680.1667 361.2968,681.2517 366.2988,682.0547 371.4505,682.4704 376.6135,682.4808 381.8292,682.0861 387.4927,681.248 398.3404,678.5347 407.9587,674.7139 417.9891,669.2348 426.523,663.2611 434.5104,656.1147 441.2569,648.4106 447.3805,639.429 452.4206,629.6947 456.0953,619.91 457.7904,613.0002 458.9991,605.2205 459.3738,599.0913 459.0666,591.9405 458.148,586.51 456.3323,580.9089 454.248,576.5548 451.3603,572.5314 448.328,569.575 444.82,567.438 440.3258,565.6358 435.9017,564.7371 430.7381,564.4431 425.1821,564.8331 419.0781,565.9062 412.4488,567.7299 403.7086,570.8366 396.0179,574.1876 386.0812,579.4068 376.945,584.923 368.3125,590.8637 360.5251,596.9464 352.7292,603.8834 346.0826,610.668 340.4813,617.3254 335.462,624.3928 331.6751,630.9769 328.8742,637.406 327.0744,643.549 326.1983,649.6347 326.2817,655.5789 327.3882,661.422 328.8035,665.2438 330.7429,668.8436 333.1993,672.2284 336.382,675.6075 339.7062,678.2957 343.4704,680.6378 347.6145,682.646 352.4633,684.4585 357.3846,685.846 362.0504,686.7236 367.3073,687.2635 373.1271,687.4021 379.0541,687.1147 384.8492,686.4467 390.4291,685.4071 396.3625,683.8823 407.2115,679.9908 417.5799,674.8101 427.1091,668.5252 435.7462,661.2064 443.706,652.5957 450.751,642.8976 456.4184,632.5905 460.515,622.2139 462.6284,614.6545 464.0411,607.0871 464.7397,598.8995 464.6985,591.6944 463.8885,584.7702 462.4742,578.8311 460.1232,573.1636 457.3984,568.6484 454.0666,565.088 450.392,562.4252 445.9847,560.4086 441.1444,559.1933 435.4492,558.7832 429.3956,559.137 422.8477,560.2182 415.6783,562.0515 406.2044,565.3837 396.1476,569.7777 385.6047,575.3025 375.5289,581.3045 366.254,587.613 357.3296,594.5036 349.1811,601.6541 341.5567,609.2672 335.3628,616.4409 329.9426,623.9022 325.7713,630.9922 322.5262,638.2099 320.3709,645.299 319.3858,651.8219 319.4413,658.1939 320.5733,664.3432 322.0516,668.4911 324.1256,672.3919 326.7676,676.034 329.9459,679.411 333.629,682.5167 337.8526,685.3403 342.3591,687.6577 347.6221,689.7085 352.8789,691.2131 358.8137,692.3796 364.6989,693.0363 370.6675,693.2301 377.1455,692.9711 383.6961,692.2601 390.6205,691.0483 396.5244,689.5974 402.3516,687.7551 408.4067,685.4154 419.875,679.75 424.89,676.677 429.9778,673.0994 439.2452,665.2611 443.649,660.8341 447.8454,656.0714 455.102,646.1479 458.2842,640.8115 461.1035,635.317 465.9636,623.6276 468.4893,615.1261 470.1623,606.6005 470.9678,598.5706 471.0543,589.4109 470.4223,582.5068 468.5787,573.9753 466.75,568.875 463.8155,563.6305 460.75,559.875 456.3946,556.2109 452.625,554.25 447.0266,552.6586 441.5211,552.1155 434.9267,552.3835 427.7044,553.5083 420.0115,555.384 410.0016,558.7317 399.0653,563.365 386.9815,569.5444 375.4745,576.1785 363.854,583.9283 353.4517,591.6682 345.1147,598.7792 336.6304,607.0377 329.5779,614.9795 323.5763,623.0132 318.7634,630.9903 315.1403,638.7897 312.5998,646.5544 311.4169,653.4447 311.3573,660.5716 312.5012,667.4781 313.9776,671.9874 316.0904,676.2563 318.819,680.2745 322.1249,684.0091 325.9698,687.4271 330.5474,690.6291 335.2338,693.1682 340.7136,695.4634 346.6107,697.3206 352.8442,698.7285 359.4047,699.6785 366.059,700.1069 372.8703,700.042 379.7655,699.5005 386.6716,698.4994 393.8491,696.9731 400.4798,695.1107 406.9988,692.8505 413.3428,690.2239 419.4486,687.2627 425.2965,683.9719 430.8577,680.3562 436.1367,676.4431 441.3887,672.0417 446.262,667.4442 451.0516,662.3525 455.3592,657.1595 459.2567,651.8349 462.7284,646.4487 465.9232,640.7561 468.9266,634.5023 471.6242,627.9642 474.6631,618.7508 476.7969,609.4121 478.227,599.4388 478.7134,590.055 478.3449,580.7935 476.9812,572.1029 475.0127,564.6962 472.2861,558.7054 468.9602,553.677 464.9062,549.5312 461.0939,547.0375 455.5865,545.0265 449.8135,544.064 443.275,544.0077 435.473,544.9523 427.1769,546.7649 415.931,550.3361 403.4336,555.4153 389.25,562.2031 376.6935,569.1833 363.9511,577.3068 351.5701,586.2535 340.4305,595.3735 330.6628,604.5287 322.4811,613.387 315.6564,622.1703 310.0562,631.0064 305.6647,639.9526 302.8056,648.4895 301.37,656.6083 301.277,664.6247 301.8001,668.6975 302.6328,672.3146 304.3665,677.2199 306.7584,681.9126 309.8032,686.3623 313.5719,690.6076 317.8282,694.3121 322.6838,697.637 328.0731,700.5636 333.9311,703.0732 340.1923,705.1473 346.9125,706.7694 353.8275,707.8617 360.9871,708.4706 368.6972,708.5995 376.491,708.2137 384.1307,707.3324 391.6395,705.9332 398.7123,704.1474 406.0205,701.8329 413.1134,699.1192 419.9614,696.0311 426.2258,692.7346 432.5487,688.8987 438.5446,684.7508 444.47,680.1081 449.965,675.2446 454.9786,670.235 459.663,664.9458 464.14,659.2229 468.1296,653.4258 471.8215,647.2739 475.3165,640.5529 478.3438,633.8125 482.0131,623.7328 484.7718,613.2831 486.8301,601.9783 487.7956,591.476 487.7947,580.3175 486.7653,569.1382 485.051,560.3996 482.0972,551.4907 479.1024,545.9088 475.5967,541.3829 470.952,537.529 466.516,535.2542 460.5028,533.7839 453.836,533.3849 446.1186,534.0402 437.0342,535.8361 423.8564,539.6972 409.1753,545.3716 392.9543,552.9091 377.3897,561.2358 361.999,570.6013 347.9892,580.2347 334.4922,590.809 322.9395,601.1977 313.4039,611.2206 304.9084,621.7704 298.3093,631.8261 293.2659,641.8527 289.9284,651.5517 288.8539,656.4041 288.198,661.2389 287.9777,666.0418 288.1756,670.4342 288.7867,674.7972 289.8596,679.0769 291.8398,684.2538 294.7144,689.5358 298.3533,694.5383 302.7331,699.2285 307.4211,703.231 312.6843,706.8123 318.4984,709.9878 325.1621,712.8837 332.2924,715.2946 339.8136,717.2039 347.4217,718.5357 355.1935,719.3195 363.5469,719.5938 372.0301,719.325 380.5552,718.5301 389.388,717.1585 397.263,715.4254 405.011,713.2352 412.58,710.6228 420.2606,707.4708 427.6276,703.9335 434.5444,700.0948 441.2156,695.8367 447.5132,691.2627 453.7015,686.1821 459.6932,680.6246 465.1556,674.901 470.2676,668.8419 475.1825,662.2335 479.5575,655.5351 483.5617,648.507 486.9346,641.643 491.4775,630.2195 494.9804,618.3928 497.75,604.8692 499.3164,592.0689 499.7437,578.3552 499.2212,566.262 497.4023,552.3477 494.7146,541.6249 491.869,534.4601 488.5224,528.7233 483.9506,524.055 481.7009,522.5123 478.998,521.168 473.4036,519.5444 465.3472,518.999 458.0284,519.7106 448.4755,521.5538 440.1445,523.7988 431.6107,526.5213 411.9817,534.1618 392.435,543.203 372.8758,553.5235 353.784,565.035 337.1522,576.3852 321.1604,588.8547 307.2977,601.3112 295.8684,613.3595 286.4854,625.227 282.4743,631.2165 279.0722,637.0046 276.0988,642.8951 273.6498,648.7346 271.671,654.71 270.3088,660.3283 269.4482,665.94 269.1132,671.5233 269.328,677.0564 270.0456,682.1558 271.2635,687.1086 273.0794,692.1083 276.3696,698.5128 280.6324,704.5726 285.8453,710.2383 291.9856,715.4601 298.9194,720.1182 306.3782,724.0795 314.5068,727.4871 323.5864,730.4187 333.1876,732.6898 342.7982,734.2201 352.6363,735.0738 362.8005,735.2424 373.4645,734.7082 384.1299,733.4821 394.6709,731.5946 405.0134,729.0612 414.3578,726.1274 423.7658,722.513 432.7983,718.3833 441.3958,713.7981 449.4983,708.8171 457.118,703.4454 464.5739,697.4084 471.4328,691.0591 477.9425,684.1964 484.0253,676.8825 489.5424,669.2862 494.4396,661.5138 498.8854,653.3328 502.9715,644.4958 506.4525,635.4712 509.4225,626.0557 511.6742,617.2779 513.4547,608.4653 514.6659,600.4276 515.7647,589.9998 516.5157,573.6585 515.7758,551.1735 514.3464,536.938 512.8089,526.3612 511.2645,517.9234 509.4577,510.8896 507.3338,505.293 504.6288,501.0277 502.549,498.8431 498.5587,496.5078 493.6967,495.3381 489.2837,494.9808 482.012,495.468 474.7505,496.6905 465.709,498.7203 455.9531,501.5676 445.1459,505.0913 433.4524,509.3973 409.4535,519.1781 383.2047,531.5075 358.5782,544.5357 335.5435,558.3187 314.2976,572.6438 304.8638,579.6396 296.1303,586.575 287.8371,593.6547 279.8589,601.008 272.5072,608.3582 265.7918,615.7028 259.7483,623.005 254.3961,630.2305 249.5492,637.6615 245.5492,644.7598 242.1462,651.9332 239.4966,658.8159 237.4544,665.7453 236.0577,672.7022 235.345,679.6674 235.3354,686.2565 235.9966,692.742 237.4187,699.2869 239.6029,705.6904 242.3674,711.599 246.0113,717.64 250.1434,723.1505 254.93,728.428 260.3638,733.4466 266.4051,738.1521 272.9713,742.4478 280.1009,746.3785 288.0873,750.0749 296.2129,753.2135 305.1296,756.0509 316.0227,758.7742 326.9463,760.7774 338.0047,762.1121 349.6398,762.7823 361.4133,762.7587 373.6102,762.0355 385.7473,760.6324 398.0896,758.505 409.7808,755.8131 420.9343,752.5716 431.766,748.7343 442.5141,744.2075 452.7467,739.1672 462.7246,733.4766 472.0411,727.3544 480.7095,720.8096 489.8834,712.8402 498.7102,703.9578 506.5642,694.798 513.8621,684.8952 520.2674,674.6734 525.9203,663.9874 530.9126,652.6534 535.1553,640.8181 538.4148,629.3813 541.0495,617.5082 543.031,605.413 544.4178,592.5986 545.171,580.3486 545.5196,567.3224 545.1586,521.6015 545.5931,510.3313 546.3757,503.2859 548.4264,493.0121 551.2767,484.7754 555.493,477.093 561.3704,469.3241 565.5473,464.9899 570.6491,460.4459 575.3786,456.7484 581.1447,452.835 596.9826,443.396 617.1297,433.3772 639.9694,423.7165 666.7061,413.3279 697.7622,402.3945 753.0531,383.8646 768.6038,378.2262 776.6414,374.8612 782.1112,372.0344 785.321,369.6152 786.125,368.5 786.3336,367.4715 786.0489,366.6514 785.3299,365.8703 782.5229,364.4461 777.781,363.24 771.75,362.375 751.1839,361.0305 724.9846,360.7536 691.4207,361.6331 658.7665,363.3595 628.6703,365.8458 598.0623,369.3103 575.4357,372.5978 555.1186,376.2771 536.4862,380.4865 519.5864,385.1931 504.6354,390.3315 491.6799,395.8785 480.567,401.9155 471.2819,408.4317 465.5452,413.604 460.7685,419.0963 457.1033,424.6434 454.3347,430.6334 452.6552,436.8429 452.0212,443.5795 452.4211,450.2327 453.8987,456.7557 456.9311,464.4385 461.0414,471.9737 466.3031,478.8996 472.5139,485.2731 480.8634,491.6398 487.875,495.25 490.8172,496.1946 494.8496,496.8481 497.1397,496.5826 498.2731,495.8704 497.894,495.014 497.202,494.552 492.6385,493.8801 486.6582,494.1914 478.5662,495.4463 473.2062,496.6313 461.5885,499.831 442.6829,506.1291 421.5384,514.3543 398.4521,524.5742 376.2015,535.5952 354.1035,547.6503 336.3083,558.4243 319.5358,569.6394 303.6054,581.3856 289.7869,592.7779 277.375,604.375 266.719,615.8096 257.6424,627.2194 250.0279,638.8062 245.8446,646.5579 242.4552,654.1768 239.8749,661.5756 238.0113,669.0091 236.9098,676.4461 236.6106,683.4864 237.0789,690.4753 238.3536,697.3862 240.3513,703.8543 243.154,710.177 246.7407,716.2917 251.0919,722.1663 256.188,727.769 262.0094,733.0677 268.5366,738.0303 275.3733,742.4045 285.2231,747.5275 296.2451,751.9795 308.0808,755.623 320.5741,758.4398 333.9684,760.4582 347.6364,761.5554 360.9696,761.692 374.3545,760.923 388.0443,759.2385 401.5206,756.7002 415.0057,753.2575 427.953,749.0323 440.2601,744.0499 451.9009,738.3696 463.1418,731.8814 473.8552,724.6305 483.9008,716.678 493.1071,708.1522 501.7478,698.8256 509.8147,688.6318 516.9601,677.9849 523.0749,667.1426 528.5871,655.3607 533.2742,643.0143 536.7755,631.3567 539.459,619.6363 541.6652,606.5299 543.2213,592.696 544.0608,579.472 544.4747,564.887 544.021,519.6339 544.5315,509.0754 545.285,502.5923 547.3061,492.6218 550.5,484.0 554.5067,476.6439 559.8899,469.7112 564.3877,465.0103 569.5128,460.4899 575.5506,455.8125 582.0318,451.4375 597.1716,442.6278 618.6129,432.285 637.1037,424.4028 666.3476,413.1541 693.7239,403.6465 750.7436,384.6845 772.5546,376.8995 780.3094,373.6828 785.5039,370.989 788.5066,368.6668 789.2233,367.5814 789.3821,366.6248 789.0346,365.714 788.3738,365.0228 785.5665,363.6084 780.8015,362.4215 774.8607,361.5883 754.7557,360.2383 729.3753,359.9385 694.8991,360.7675 661.0506,362.4642 629.1357,364.9724 599.0714,368.2815 576.1258,371.555 555.1358,375.283 536.0598,379.4863 519.015,384.114 503.8708,389.1761 490.4331,394.7715 479.039,400.8026 469.4444,407.3522 463.403,412.6251 458.5548,417.9656 454.4698,423.8692 451.5942,429.7907 449.7694,435.9653 448.987,442.3473 449.191,448.9539 450.4298,455.5609 453.0281,463.0642 456.9788,471.0309 461.6043,477.7237 467.8763,484.898 476.125,491.875 481.9547,495.5512 485.5029,497.2632 488.6631,498.2886 491.9216,498.9873 494.0156,498.6094 493.6551,498.1163 492.0116,497.5816 487.7179,497.3688 481.278,498.056 474.0441,499.4004 466.6735,501.1459 456.3381,504.2043 438.9382,510.1034 420.0598,517.6538 395.5132,528.6337 373.3022,539.8928 353.7237,550.8201 336.9673,561.1761 321.0697,572.0216 306.0527,583.3747 292.5812,594.7286 280.9776,605.7856 270.7254,617.0204 261.9936,628.273 254.9628,639.2826 251.0463,646.781 247.9397,654.0403 245.497,661.3853 243.764,668.8025 242.842,675.7447 242.6722,682.4465 243.2369,689.073 244.5459,695.5945 246.6092,701.981 249.4368,708.2028 253.0387,714.2298 257.1209,719.6647 261.9426,724.8659 267.4488,729.7586 273.5962,734.3211 280.6769,738.7231 290.5591,743.728 300.9228,747.8757 311.7795,751.2384 323.4884,753.8558 335.697,755.6414 348.6379,756.6187 361.7825,756.7281 374.965,755.9776 387.7532,754.4124 400.4232,752.0087 412.793,748.8282 425.1222,744.8014 436.9259,740.0772 448.099,734.7204 458.7706,728.6588 468.7261,722.0376 478.7924,714.2362 488.1826,705.7494 496.7955,696.669 504.7984,686.7604 511.9255,676.3361 518.1382,665.5023 523.405,654.3877 527.974,642.4125 531.6825,630.2232 534.582,617.7584 536.5568,605.8305 538.2967,590.075 539.0609,578.1587 539.2902,566.6234 538.6658,518.6794 539.1716,507.7543 540.0768,499.935 541.9103,491.0969 545.18,482.466 550.2313,473.8816 556.0037,466.8807 560.9763,462.0336 566.8528,457.2931 574.367,452.0764 583.2411,446.6206 591.841,441.8461 602.9814,436.3606 623.8095,427.2318 651.732,416.5096 685.1718,404.978 717.8904,394.5516 763.2786,380.6393 786.2672,373.0468 795.6168,369.4702 801.7111,366.6072 804.9161,364.366 805.7652,363.174 805.895,362.2665 805.5,361.407 804.5466,360.6024 800.8305,359.1847 794.8959,358.0831 786.773,357.1932 763.2022,356.0532 731.9369,355.931 696.9158,356.7672 661.4613,358.5071 625.4887,361.1907 592.9014,364.5543 568.9161,367.8023 547.1146,371.5371 526.3924,375.9333 508.054,380.7277 492.0736,385.8814 478.1443,391.4799 466.2711,397.5114 455.9135,404.2673 449.4238,409.6598 444.1636,415.1471 439.8773,420.9303 436.5249,427.102 434.316,433.2073 433.0165,439.9248 432.7632,446.9146 433.4669,453.7261 435.2739,461.2061 438.2825,469.176 441.9027,476.3814 446.4522,483.464 451.3759,489.9789 456.5384,495.6514 463.7685,502.4722 473.0512,509.6872 474.312,510.964 474.25,511.5 470.8186,512.7877 452.9256,517.4166 434.4165,523.7986 415.3882,531.569 393.792,541.7653 374.3786,552.1741 354.911,564.002 337.3769,575.9957 321.6717,588.199 308.4118,600.0423 297.1496,611.8114 287.4972,623.869 283.2776,630.0708 279.7058,636.0466 276.7487,641.7718 274.23,647.5681 272.1828,653.428 270.681,659.1613 269.7057,664.8856 269.291,670.1981 269.395,675.8338 270.0199,681.0191 271.597,687.5461 274.0741,693.8749 277.319,699.6862 281.2995,705.0482 286.3206,710.3456 292.1423,715.2468 298.7124,719.7107 305.9783,723.696 313.5575,727.0047 321.8149,729.7934 330.5633,732.0087 339.7007,733.6403 349.5224,734.7082 359.1371,735.1164 368.6585,734.9106 378.4972,734.0699 387.9343,732.6917 397.6442,730.6992 407.1649,728.1709 416.4133,725.1416 425.194,721.6867 433.7817,717.6922 441.9545,713.2714 449.6804,708.4704 457.2186,703.1146 464.2011,697.4483 470.903,691.2572 477.4368,684.4188 483.3607,677.3829 488.8711,669.9258 493.6956,662.4229 498.0569,654.5508 503.1714,643.5088 507.5416,631.6104 511.0819,618.9059 513.7739,605.7986 515.3578,593.5869 516.2273,578.6382 516.2794,566.3783 515.4851,550.1091 513.8576,534.7079 511.4882,519.7356 509.0705,510.4814 506.4426,504.233 505.125,502.125 502.8302,499.494 500.9708,498.0697 498.6067,496.8794 495.9881,495.9679 493.2148,495.4858 486.1763,495.291 475.6778,496.6282 464.3454,499.3 448.6311,504.0863 433.396,509.4901 415.1755,516.8109 398.7208,524.1252 379.8466,533.3115 362.375,542.625 345.4966,552.3218 330.8982,561.3797 317.9595,570.1379 304.4049,580.1549 292.3259,589.951 281.4889,599.682 271.3712,609.8456 262.576,619.8553 255.3256,629.3452 249.3494,638.513 244.4413,647.6103 240.5658,656.7402 237.8261,665.7211 236.1861,674.7281 235.7038,683.3309 236.3427,691.8539 238.0532,699.8848 240.9117,707.798 244.754,715.058 249.8991,722.268 256.1607,729.0654 263.1754,735.1533 271.479,740.9871 280.3612,746.0511 290.5372,750.6882 301.8016,754.6748 313.7864,757.8741 326.3365,760.2591 339.2971,761.8029 352.5131,762.4784 365.6205,762.2705 379.0404,761.1808 392.3489,759.2514 405.7881,756.4414 418.8376,752.8459 431.3596,748.5172 443.2234,743.508 454.9074,737.6019 465.8438,731.0898 476.281,723.844 486.092,715.9216 495.2649,707.2734 503.6275,698.0607 511.216,688.2889 518.1763,677.7415 524.2216,666.8483 529.5934,655.157 534.1317,643.003 537.6496,631.1735 540.4272,619.1285 542.5809,606.4459 544.0789,593.1031 544.815,581.0612 545.2288,563.6472 544.8074,519.8237 545.2403,510.4145 546.0654,502.9133 548.304,492.3458 551.1982,484.3759 555.2083,476.9449 560.997,469.397 565.0201,465.1732 570.6821,460.1875 575.75,456.25 582.0909,451.9399 589.6226,447.3814 599.6411,441.8271 617.2889,433.2343 641.5533,422.8461 666.9536,413.2574 696.1191,402.986 751.1863,384.5648 768.2751,378.3786 777.3209,374.6221 782.999,371.7495 786.2907,369.3377 787.153,368.123 787.3023,367.1698 786.9063,366.2883 786.0787,365.5254 783.0419,364.1154 778.0667,362.9013 771.6107,361.9923 751.9587,360.8364 726.0452,360.5478 697.0303,361.2574 660.5958,363.1117 630.7716,365.4334 603.1399,368.4593 579.6923,371.7234 558.6119,375.3432 540.045,379.2826 523.5308,383.6362 507.9651,388.7173 494.4597,394.1853 482.7044,400.1382 472.7495,406.5872 466.4736,411.7695 461.2097,417.2953 457.01,423.1496 453.9578,429.1481 451.9832,435.4129 451.1479,441.8361 451.4145,448.6965 452.714,455.6568 455.4277,463.3347 459.75,471.375 464.8289,478.343 471.4289,485.4035 477.5424,490.3849 481.4044,492.997 484.0519,494.3985 491.2391,497.0208 494.5262,497.4067 496.75,497.0 497.0556,496.3148 495.9891,495.59 492.246,494.9446 489.1494,494.9539 480.5421,495.9501 472.4528,497.6644 465.4394,499.5186 443.29,506.689 423.5713,514.2846 400.0552,524.571 376.9794,535.9091 356.6508,546.9839 338.0036,558.2949 321.0519,569.5566 305.8173,580.7538 291.7926,592.2603 279.57,603.6102 268.7049,615.2068 259.2571,627.0495 251.7121,638.5274 247.5292,646.2707 244.178,653.7991 241.628,661.0761 239.7647,668.4224 238.6919,675.4959 238.3783,682.5862 238.851,689.6117 240.0398,696.1766 242.0929,702.9777 244.8095,709.2686 248.2917,715.3818 252.4174,721.0913 257.2148,726.427 262.7065,731.4581 268.8514,736.1641 275.945,740.7231 286.2428,746.1134 297.1148,750.6031 308.1929,754.1446 320.3004,756.9636 333.304,758.9707 346.6879,760.0739 360.2831,760.2769 373.9203,759.5836 387.073,758.0396 400.4256,755.5616 413.4676,752.2494 426.4287,748.0453 438.7971,743.1071 450.2312,737.6193 461.1681,731.3833 471.6598,724.357 481.8932,716.3546 491.4148,707.672 500.1049,698.4171 508.065,688.4401 515.2941,677.7095 521.582,666.5813 527.0539,654.9031 531.7103,642.6612 535.348,630.5945 538.1913,618.2352 540.2315,605.8317 541.8889,590.9538 542.6488,579.369 542.9069,567.9688 542.4028,518.9275 542.8426,510.6138 543.7903,501.788 545.9802,491.613 548.5344,484.6391 553.2363,476.017 558.3307,469.3991 563.256,464.3827 567.8,460.4406 574.873,455.0859 581.6568,450.5185 599.6634,440.4533 619.9554,430.9128 643.3057,421.3639 676.2146,409.2625 697.4524,402.0019 758.0,382.2693 775.7419,376.0816 784.1722,372.6477 789.8154,369.7804 792.9511,367.4142 793.6369,366.3842 793.7651,365.3988 793.3025,364.4643 792.4847,363.7575 789.5833,362.4668 784.8806,361.3615 777.7452,360.4009 757.6635,359.1417 731.3507,358.8564 698.309,359.5793 664.9014,361.1839 632.5947,363.6159 601.7849,366.8127 578.7372,369.9029 557.5209,373.4556 538.2306,377.4732 520.455,382.0036 504.61,386.9675 491.0306,392.2376 479.0604,398.0808 469.0591,404.2486 462.3927,409.3972 456.7281,414.8698 452.1149,420.6492 448.6535,426.6066 446.2743,432.8869 444.9873,439.407 444.7352,446.7813 445.5392,453.517 447.8958,461.6131 451.7639,470.1035 456.3428,477.4976 462.1993,484.9118 467.9784,490.5974 475.7235,496.6497 482.2153,500.3542 486.4676,501.9606 488.25,502.25 485.018,501.8404 480.1443,502.1891 467.1668,504.7819 450.5368,509.5756 430.6067,516.7162 411.2906,524.8265 391.1497,534.3163 371.9251,544.3462 353.3848,555.0351 337.4394,565.1818 322.1778,575.8772 308.5572,586.4348 296.5156,596.8921 285.5931,607.6553 275.9877,618.5547 267.8782,629.3969 261.367,639.9932 257.7377,647.2368 254.9267,654.1114 252.7207,661.2093 251.3074,667.9481 250.5821,674.6741 250.5734,681.3608 251.3104,687.9816 252.7172,694.1502 254.8629,700.2528 257.609,705.866 261.0324,711.2685 265.3592,716.7151 270.3959,721.87 275.8015,726.458 281.8041,730.7329 288.5193,734.7436 297.3043,739.0046 307.1572,742.7454 317.2884,745.688 328.3063,748.0215 339.7411,749.6071 351.3759,750.4194 362.7184,750.4558 374.5189,749.7388 386.2856,748.2885 398.2733,746.0584 409.9736,743.121 421.0174,739.5994 431.7986,735.3803 442.0762,730.5762 452.1348,725.0582 461.8684,718.8444 471.9893,711.2992 481.575,702.8823 490.1407,694.059 498.1531,684.3588 505.2535,674.1664 511.3248,663.7278 516.8807,652.2048 521.4578,640.5133 525.0836,628.788 528.0126,616.3428 530.2679,603.2826 531.7259,590.0371 532.4894,576.5945 532.7157,563.9644 531.337,512.248 531.788,502.5003 532.9447,493.7167 535.4385,483.4268 539.8248,473.1889 543.877,466.651 546.8548,462.5734 553.7344,455.0703 558.4362,450.9893 564.7229,446.272 572.6808,441.3483 580.7285,437.0586 590.332,432.4819 599.4757,428.5563 626.7142,418.1917 662.8115,406.3779 696.7423,396.3825 733.127,386.3632 806.7241,367.1026 825.3966,361.8953 834.8307,358.8706 840.9861,356.4358 844.5848,354.2997 845.4328,353.308 845.6052,352.5566 845.1424,351.6747 844.1957,351.0189 839.9457,349.6953 832.6134,348.5709 822.1406,347.6562 794.4272,346.6178 754.7343,346.502 711.1965,347.2773 668.1179,348.9146 626.6643,351.3786 588.8624,354.5484 560.9457,357.6308 535.5398,361.1771 512.0299,365.2927 490.3938,369.9855 471.0008,375.1954 454.2236,380.7969 440.0,386.75 427.4043,393.4662 419.0325,399.0779 411.7911,405.1076 405.725,411.5353 400.8539,418.3319 397.0864,425.6646 394.6111,433.1806 393.3397,440.9665 393.2331,449.3147 394.1308,457.1773 395.9775,465.3617 398.7877,473.8141 402.5661,482.7055 407.139,491.8255 412.7146,501.1447 419.0283,510.6086 429.884,525.535 433.646,531.25 435.091,534.1885 435.8361,536.4568 435.9712,538.4668 435.4707,540.4492 434.5822,541.9479 433.2039,543.4009 428.0725,547.1079 396.9967,563.8164 385.666,570.7044 374.0034,578.4185 365.5484,584.5339 357.951,590.5794 349.2881,598.1822 342.4249,604.8653 336.25,611.75 330.0473,619.8595 325.1377,627.5812 321.4597,634.875 318.8368,641.992 317.2555,649.0657 316.7982,656.0549 317.472,662.372 318.651,666.701 320.394,670.844 322.683,674.783 325.7278,678.7637 328.7175,681.7758 332.4531,684.7175 336.649,687.3197 341.2476,689.5773 346.5842,691.6171 351.8363,693.1144 357.2634,694.1843 363.3103,694.9004 369.5444,695.1775 376.2826,694.9909 382.3407,694.3939 388.6944,693.3241 400.8862,690.0834 406.964,687.89 412.9375,685.325 423.7696,679.4069 434.2082,671.9816 439.1555,667.7548 443.7103,663.3645 451.9727,653.8613 458.7702,643.8361 461.8001,638.3214 464.5713,632.4593 468.0455,623.4375 470.6856,614.2978 472.2796,605.9774 473.1833,596.6875 473.2895,588.5305 472.393,580.009 470.9139,573.0773 468.5146,566.4902 465.9036,561.6907 461.9502,556.8655 458.7034,554.2052 454.0204,551.8339 449.1507,550.447 442.6177,549.7526 436.5,550.0 429.0478,551.1954 418.8202,553.9645 407.198,558.1217 394.3508,563.9568 382.5416,570.1352 371.007,577.143 359.5394,585.0826 348.921,593.3496 339.5156,601.7257 331.6257,609.7658 324.9432,617.7914 318.9543,626.4879 314.1624,635.1336 310.9686,643.1253 309.0843,650.7767 308.3713,658.7608 308.9566,665.5533 310.1361,670.2646 311.9382,674.7943 314.3517,679.1259 317.4744,683.362 320.9473,686.9629 324.9609,690.2393 329.4638,693.1771 334.7727,695.9332 340.4554,698.2437 345.9274,699.9218 352.0801,701.2524 358.5147,702.1217 365.1627,702.5344 372.3583,702.4794 379.266,701.9532 386.0611,700.978 392.8281,699.5781 399.5066,697.7861 406.3932,695.5049 412.7922,692.9652 418.8029,690.1392 424.9269,686.7854 430.7625,683.1116 436.2674,679.1703 441.4288,674.9893 446.6985,670.1657 451.5757,665.1332 456.039,659.9487 460.067,654.6692 463.8107,649.0786 467.2299,643.2085 470.3756,636.9565 474.179,627.7405 477.3287,617.662 479.5169,607.9807 480.8105,598.3096 481.2935,587.9156 480.7917,578.5187 479.4107,569.5391 477.1487,561.8049 474.4618,555.7241 470.7985,550.1413 467.625,547.0 462.5203,543.792 457.1644,541.9172 451.2485,541.0529 443.9827,541.1857 436.3632,542.2433 423.5432,545.5643 413.0336,549.2496 398.4355,555.5859 384.1695,562.9068 369.7854,571.3648 356.2256,580.3653 344.2533,589.4447 333.1697,599.1016 323.9988,608.2604 316.0914,617.5232 309.2493,627.1726 304.0309,636.4532 300.418,645.2796 298.2456,653.9845 297.6925,658.5944 297.5659,662.7734 298.4221,670.9521 299.8628,676.3374 301.7841,680.9497 304.326,685.3396 307.7076,689.7743 311.7372,693.9076 316.3816,697.7158 321.3856,701.0236 326.7658,703.8291 332.9674,706.3531 339.6043,708.4086 346.5907,709.9869 354.25,711.125 361.2181,711.6438 368.7177,711.6778 376.3148,711.2117 383.937,710.2711 391.5115,708.8817 398.6204,707.1596 405.6553,705.0014 412.5381,702.4361 419.5649,699.3415 426.3117,695.8901 432.7217,692.13 439.1372,687.8301 445.0628,683.3242 450.8908,678.3196 456.2759,673.0984 461.1948,667.713 465.7345,662.0696 469.8477,656.237 473.7006,649.9966 477.0664,643.752 481.7612,633.2515 485.6186,622.123 488.41,611.0864 490.251,599.7578 491.0873,588.6336 490.8695,575.4309 490.0,566.875 487.6747,555.0541 484.9791,547.5739 482.131,542.0657 477.7462,536.5391 473.531,533.372 470.8583,531.9844 467.949,530.907 461.4359,529.7204 454.6709,529.6447 446.1194,530.7102 439.6741,532.0784 432.5921,533.9975 417.6424,539.24 400.922,546.3206 384.013,554.8406 367.0314,564.622 351.1616,574.9447 336.688,585.6872 323.3587,596.9776 312.7379,607.4128 303.6253,617.9973 296.0536,628.6345 290.2403,639.018 286.1466,649.1291 284.6689,654.3876 283.7188,659.2611 283.1926,664.1125 283.1072,668.929 283.4795,673.698 284.2441,678.0469 285.8835,683.6151 288.2441,688.9269 291.3166,693.9812 295.0863,698.7557 299.839,703.4974 305.0,707.625 310.533,711.2002 316.615,714.3637 323.1816,717.0996 330.5468,719.4997 338.3029,721.3894 346.375,722.75 354.4449,723.5303 362.7207,723.7735 371.1208,723.4966 379.9473,722.6694 387.9682,721.4502 396.2526,719.7148 404.1231,717.5959 412.2022,714.9282 420.0525,711.835 427.621,708.3483 434.8542,704.5 442.0,700.125 448.9055,695.2768 455.3597,690.1335 461.3537,684.7439 467.1297,678.8869 472.3806,672.8697 477.2934,666.4752 481.7361,659.8738 485.851,652.8738 491.5134,641.2748 496.1623,628.9723 499.8219,615.9762 502.4018,602.4101 503.8922,588.0754 504.0744,573.1701 503.4738,561.1649 501.4874,546.9461 498.7107,535.5079 496.1117,528.515 492.9153,522.8042 490.6944,520.1296 488.422,518.0481 485.8746,516.3972 482.8935,514.9897 479.9614,514.0656 477.0186,513.5521 469.3947,513.2515 460.2662,514.346 452.6809,515.9534 443.8506,518.3988 434.5801,521.456 423.8152,525.4399 402.5642,534.4588 381.2172,544.9689 360.4442,556.6369 340.848,569.1093 323.7237,581.5202 308.1123,594.5655 295.0834,607.203 289.4175,613.4116 284.0868,619.8197 279.3599,626.1225 275.2295,632.294 271.4933,638.6577 268.4618,644.7083 265.9315,650.8052 263.9291,656.9364 262.4812,663.0896 261.6489,668.8902 261.3536,674.6896 261.6406,680.5294 262.5043,685.9416 263.9434,691.241 266.7512,698.0982 270.3528,704.3534 274.8573,710.3163 280.449,716.1178 286.6007,721.137 293.5599,725.6789 301.242,729.7142 309.9375,733.3532 319.2317,736.3755 328.5762,738.6534 338.2826,740.2863 348.6885,741.3049 359.3288,741.6433 370.0904,741.3087 380.8603,740.3082 391.5744,738.6384 401.4865,736.452 411.1757,733.7041 420.9408,730.3077 430.3408,726.411 439.6352,721.8988 448.2735,717.0405 456.3663,711.8018 464.2437,705.9667 471.5455,699.8091 478.5159,693.1319 485.067,685.9795 490.9949,678.5721 496.6857,670.4151 501.6704,662.1749 506.1266,653.6161 509.9923,644.8504 512.8621,637.154 515.3897,629.2501 517.5676,621.1422 519.3631,612.9206 520.8701,603.8942 522.1163,593.9096 522.8781,584.8736 523.2395,576.0538 523.1347,560.124 522.292,542.451 518.7277,501.898 517.5713,494.1204 516.2206,489.6814 515.125,487.375 512.8398,484.7734 509.5368,483.0417 505.285,482.1118 500.9924,481.9175 494.3347,482.4979 489.3275,483.2836 479.5227,485.4448 460.7802,490.8467 437.7454,498.9374 412.6989,509.0424 390.3998,518.9556 367.4843,530.2762 353.2098,537.8929 338.8471,546.0105 325.8049,553.8144 313.4503,561.6913 301.9412,569.5529 291.3833,577.2976 280.7869,585.6644 271.2298,593.7902 262.2656,602.0469 253.962,610.4038 246.3694,618.8306 239.505,627.3206 233.6896,635.4563 228.5211,643.8005 224.2382,651.9779 220.8204,659.9423 218.1346,668.0068 216.2396,676.1471 215.1934,684.3563 215.0754,692.019 215.8325,699.6233 217.4711,707.1276 219.998,714.4905 223.2366,721.333 227.517,728.2996 232.4375,734.6892 237.9784,740.5977 244.4591,746.315 251.7233,751.6683 259.7131,756.6286 268.3702,761.1667 277.6366,765.2536 290.1839,769.7456 303.5004,773.4045 316.9839,776.0846 331.4444,777.9276 346.2326,778.8321 361.5703,778.8029 376.5248,777.8588 391.6917,775.9695 406.124,773.2518 420.0782,769.7054 433.9001,765.2553 447.4615,759.9143 460.2923,753.8742 472.6075,747.0346 484.0563,739.5697 494.7942,731.3952 504.5733,722.7712 513.6581,713.5194 521.9736,703.7194 529.6361,693.1834 536.3605,682.2836 542.4467,670.5781 547.5851,658.6368 552.0046,645.8937 555.2262,634.0584 557.9271,621.3244 559.9001,608.7604 561.2435,595.8104 561.9957,582.0202 562.3471,567.493 561.9184,520.2629 562.3145,510.9309 563.1046,502.7937 564.6645,493.8129 566.8964,486.1299 570.2324,478.6436 574.5347,471.6954 577.7971,467.5447 581.7245,463.2768 586.2583,459.0138 590.9779,455.1106 603.2644,446.5708 617.0853,438.5698 634.8302,429.7494 656.5471,420.015 679.74,410.4754 717.5625,395.6562 734.6834,388.4278 741.7665,384.8942 746.7895,381.7704 749.5898,379.1367 750.2198,377.9009 750.3007,377.0261 749.3667,375.4229 747.1955,374.1752 743.296,372.985 738.1507,372.037 725.1203,370.8919 705.8535,370.5662 683.5661,371.0464 660.1469,372.3858 635.6461,374.5479 612.3198,377.3802 593.7469,380.279 576.2944,383.604 560.7285,387.2168 546.8695,391.1503 534.1061,395.5909 522.6607,400.4825 512.6799,405.7996 504.512,411.3588 499.2279,415.986 495.0768,420.6284 491.7613,425.5127 489.3,430.6733 487.9649,435.6423 487.5805,441.1274 488.2246,446.6055 489.8519,451.7767 492.6191,457.0117 496.3837,461.902 501.105,466.248 506.144,469.6095 512.0396,472.1743 517.9101,473.7514 524.25,474.25 530.4225,473.7402 538.1877,471.8656 546.8284,468.5354 557.3793,463.2578 578.033,451.885 595.8719,442.7211 609.9925,436.0917 629.2994,427.7592 648.1997,420.2427 677.1922,409.584 750.0941,384.8363 763.9753,379.7975 773.8774,375.7394 780.1258,372.6874 783.7439,370.0032 784.5942,368.7542 784.7643,367.814 783.8809,366.3206 781.3628,365.0076 777.2132,363.8564 771.3435,362.878 756.7706,361.7031 733.7481,361.1806 707.7378,361.4163 680.7906,362.4343 650.9805,364.2915 622.9934,366.7691 601.258,369.301 579.1998,372.4947 559.723,375.9107 541.9182,379.6973 526.5701,383.6737 512.4088,388.1584 499.466,393.139 488.3067,398.4196 479.422,403.6359 471.9156,409.19 465.6214,415.1108 460.6195,421.3437 456.9566,427.8657 454.6893,434.4162 453.6137,441.4398 453.8687,448.83 454.5959,453.0444 455.7849,457.4786 457.452,461.9295 459.4378,466.0863 464.8495,474.7004 467.9209,478.473 471.573,482.3155 475.4363,485.9175 478.6664,488.4324 484.0,491.875 487.1003,493.467 491.875,495.125 494.8281,495.6719 498.1542,495.6669 499.43,495.3127 500.3223,494.6797 500.375,493.625 499.2731,492.8194 495.2253,492.0084 487.9431,492.3043 481.9532,493.1746 473.7038,495.0093 462.6087,498.0682 439.6421,505.9245 413.0494,516.571 386.9755,528.6005 364.3721,540.2569 339.8892,554.4347 321.3672,566.4232 303.8987,579.0457 288.6129,591.4736 274.8199,604.276 262.8716,617.16 252.985,629.8882 248.819,636.1575 245.0498,642.5545 241.8679,648.7454 239.0743,655.1199 236.4722,662.5968 234.6273,670.104 233.5695,677.6119 233.3205,684.7181 233.8339,691.7726 235.1353,698.75 237.25,705.625 240.1242,712.0998 243.6455,718.054 248.1355,724.0545 253.4065,729.7679 259.4265,735.1641 266.1641,740.2135 273.5874,744.8858 281.1818,748.9105 289.5343,752.5761 298.4139,755.7632 308.1152,758.558 317.8448,760.7455 328.2724,762.4852 338.9497,763.6744 349.7956,764.3041 360.2833,764.3635 371.0365,763.8523 381.7679,762.7857 392.7908,761.1223 403.6493,758.9174 414.2717,756.1988 424.5861,752.9941 434.7865,749.2242 444.4376,745.0402 453.6554,740.4331 466.9418,732.6209 479.3636,723.8511 490.4915,714.4816 501.0056,703.9139 510.5874,692.4231 518.9268,680.3696 525.9559,667.916 532.0603,654.3553 536.8377,641.0822 540.6239,627.5208 543.5134,613.3197 545.5618,598.3525 546.6272,584.8288 547.1048,569.5158 546.8192,519.2265 547.3818,508.996 548.266,501.4298 550.5931,491.356 553.0642,484.8301 557.0711,477.299 562.8986,469.4507 566.842,465.3802 572.1718,460.6509 577.6076,456.4402 584.1207,451.9431 591.2296,447.5326 599.6917,442.8346 616.0781,434.582 640.2048,424.0657 665.1643,414.3762 686.8584,406.5302 748.5398,385.3758 766.0417,378.867 774.6302,375.0044 779.7974,371.9269 781.304,370.519 782.048,369.166 781.9462,367.8921 781.1997,366.9464 778.8718,365.6791 775.2913,364.6822 762.8437,362.9702 745.4846,362.0291 722.9867,361.8484 697.0444,362.4283 670.2212,363.7163 642.575,365.7157 616.1932,368.2851 595.0667,370.905 575.7085,373.8617 557.3376,377.2734 540.6791,381.0044 525.765,385.0275 512.6124,389.3158 500.4993,394.1304 489.8198,399.3051 481.1116,404.497 473.637,410.0721 467.7083,415.7542 462.7604,422.0639 459.1993,428.6339 456.9915,435.4373 456.0814,442.4632 456.5284,449.3732 457.4278,453.7283 458.7753,458.2382 460.3216,462.2752 462.2333,466.1384 464.9899,470.6202 468.375,475.25 471.1265,478.4776 474.499,481.8067 481.9283,487.7874 485.9991,490.1214 490.7812,492.3789 494.854,493.504 498.7652,493.9866 501.7065,493.645 504.0,492.5 504.576,491.438 504.1574,490.2222 503.2095,489.4566 500.8094,488.6972 493.8835,488.5246 487.5931,489.2511 478.9532,490.9178 468.4633,493.627 456.0266,497.4394 443.8329,501.6904 414.4063,513.4517 399.2285,520.1053 385.5746,526.5206 372.3325,533.224 358.3496,540.7593 345.3621,548.1915 332.5579,555.9624 312.7908,569.017 294.9786,582.2464 278.5527,596.0696 264.7751,609.4593 258.6136,616.2323 253.0551,622.9247 247.8859,629.8082 243.3515,636.5654 239.3723,643.2877 235.933,650.0007 233.0054,656.7929 230.74,663.2834 228.6925,671.2659 227.5314,678.9111 227.1996,686.555 227.7433,694.0993 229.1821,701.3774 231.5268,708.5133 234.7678,715.4625 238.6788,721.8664 243.6416,728.3225 249.1748,734.1758 255.4866,739.7017 262.4814,744.7909 270.2236,749.4815 278.9662,753.8895 288.3493,757.7972 297.919,761.0602 308.3373,763.9012 318.7622,766.0831 329.5747,767.7038 340.3772,768.7149 351.7246,769.1729 363.5503,769.0288 375.0086,768.3026 386.7773,766.9567 398.0145,765.0885 409.0212,762.6743 420.0156,759.6401 430.6104,756.0997 440.8207,752.0803 450.9531,747.4531 460.5972,742.3959 470.0187,736.7571 481.6295,728.6755 492.4976,719.7225 502.754,709.7803 512.0193,699.186 520.2124,688.0747 527.1855,676.7358 533.58,664.1547 539.1465,650.6173 543.1318,638.4371 546.4023,625.545 548.9586,611.8192 550.7033,597.7693 551.6417,584.8151 552.1201,570.6418 551.9626,520.978 552.529,510.091 553.4271,501.7371 555.5,492.125 558.0083,485.148 561.9628,477.5718 567.1314,470.2704 570.8749,466.0762 575.371,461.815 580.6246,457.5044 586.227,453.4208 600.3331,444.7042 617.4373,435.7067 636.7305,426.8763 663.2632,416.0147 692.4759,405.1375 739.4969,388.1655 754.7293,382.1498 763.0,378.25 768.0564,375.0762 769.6593,373.4884 770.2706,372.2527 770.1563,371.1033 769.3866,370.1522 766.9878,368.8464 763.3786,367.7626 758.4019,366.8333 752.0216,366.0887 734.97,365.2124 712.8865,365.0732 688.3433,365.7304 660.844,367.2227 635.5492,369.2725 612.2837,371.8514 591.7762,374.7399 572.9068,377.9649 555.8783,381.4994 540.7664,385.3198 526.0293,389.8699 513.253,394.6771 501.9147,399.924 492.4655,405.3904 484.4643,411.2791 478.2637,417.2455 473.5021,423.5348 470.1589,430.1638 468.2439,437.1096 467.8298,444.0669 468.8957,451.4395 471.5031,458.8186 473.747,463.1383 476.2722,467.0708 479.0296,470.5336 482.4688,474.1055 486.1123,477.3179 489.419,479.703 494.2646,482.4968 498.219,484.274 501.9728,485.3279 506.4667,486.0981 510.0991,486.0882 513.8379,485.6016 517.2285,484.5436 520.0658,483.2007 523.1897,480.9975 526.1462,478.2812 528.875,474.625 530.9021,470.092 531.2332,468.5891 531.2315,466.537 530.3906,464.6562 528.2969,462.9688 525.582,462.1934 522.7535,461.967 516.1143,462.3699 504.5802,464.4202 491.6827,467.6791 481.3537,470.7475 454.2396,479.8312 427.6627,489.7846 402.6024,500.0927 375.7846,512.177 352.6065,523.4256 330.9109,534.899 309.9119,546.9648 290.2404,559.3305 271.7026,572.1314 255.2147,584.7272 242.9929,595.0399 231.5475,605.6868 221.249,616.3459 212.167,626.9078 204.5368,637.0839 197.8225,647.5806 192.4699,657.6748 188.1335,667.9786 185.0038,678.1054 183.0117,688.364 182.292,698.0539 182.7666,707.3654 184.4945,716.9352 187.3633,726.0007 191.6099,735.2032 196.9353,743.8074 201.6027,749.905 206.6347,755.513 212.1951,760.8683 218.2655,765.9275 224.882,770.7388 232.3193,775.4726 239.9485,779.7364 248.3691,783.8707 257.2362,787.6769 266.5125,791.1396 276.1607,794.2438 285.7384,796.8724 296.0076,799.23 306.2521,801.1352 316.6024,802.6209 327.1109,803.707 337.7359,804.3982 348.8187,804.7028 359.9354,804.594 371.0394,804.0771 382.0846,803.1573 393.0244,801.8397 403.8126,800.1297 414.0413,798.1111 424.1263,795.7157 434.4192,792.8368 444.4274,789.6005 454.1343,786.0291 463.5234,782.1444 472.9195,777.8026 481.9364,773.1717 490.5555,768.2763 505.4037,758.5966 518.8792,748.1114 525.411,742.3113 531.532,736.3758 537.5156,730.0343 543.0728,723.59 553.1639,710.1862 557.8746,702.9707 562.1393,695.7482 569.7098,680.7199 576.0908,664.6927 580.0862,651.9229 583.2984,638.8202 585.8203,624.9952 587.6832,610.3479 588.899,593.9005 589.2602,576.6635 588.786,554.8787 587.0894,517.9117 587.2263,500.4683 588.2443,490.2956 589.962,481.651 592.6535,473.5223 596.1862,466.1897 600.8506,459.1702 606.7708,452.3852 613.8733,445.9479 622.612,439.4069 630.5638,434.2832 645.0808,425.9886 688.1512,404.2879 697.5432,399.1518 702.5445,396.015 706.0625,393.25 707.9128,390.9488 708.2533,388.8869 707.4022,387.3534 705.8192,386.2336 703.3556,385.2899 699.119,384.3685 688.3837,383.3031 674.122,383.1453 657.2439,383.8737 638.8894,385.5247 621.4668,387.796 605.3363,390.6955 591.1109,393.858 578.6074,397.2509 566.924,401.1899 556.816,405.376 548.554,409.6708 541.4517,414.455 536.0014,419.405 531.9465,424.6566 530.3208,427.9415 529.4219,431.0762 529.116,434.167 529.4468,437.3045 530.4075,440.1409 532.0892,443.062 534.076,445.3478 536.7825,447.4947 539.7759,449.1981 542.9532,450.414 546.7828,451.3584 551.281,451.991 560.225,451.9112 570.3991,450.3052 576.9556,448.743 584.6293,446.3696 605.1646,438.8551 624.124,431.2677 687.2356,404.921 703.0725,397.6477 711.6542,393.0249 714.8083,390.9043 717.1363,388.8836 718.4119,387.1143 718.7034,385.4872 717.9014,384.0295 715.8605,382.7378 712.3962,381.5979 707.996,380.7738 695.3441,379.8563 678.7164,379.8186 657.4041,380.9201 637.2219,382.7106 619.5707,385.0834 600.1172,388.4836 585.6138,391.6504 572.5709,395.1663 560.6255,399.1431 549.8311,403.5917 540.2217,408.5352 532.4976,413.5781 526.8342,418.5309 522.3327,424.1968 520.4121,427.8089 519.2145,431.3131 518.6246,435.1433 518.7852,438.6233 519.6981,442.1733 521.1815,445.242 523.5473,448.3594 526.3933,451.0195 529.1914,452.9785 532.6705,454.7073 537.113,456.2258 540.8338,456.9665 545.0926,457.3243 550.0909,457.3124 561.1663,455.7998 574.3957,452.1823 586.7502,447.6977 640.5668,425.1067 705.7573,398.5584 718.468,392.8254 726.7165,388.327 731.3474,384.7768 732.4779,383.1538 732.7209,381.633 731.6922,379.9924 729.2007,378.6276 725.1502,377.4412 719.9687,376.5705 705.7922,375.6565 686.3018,375.6657 662.9253,376.7617 639.2742,378.7501 619.125,381.25 596.5627,384.9786 580.3652,388.3691 566.0591,392.1073 551.795,396.671 539.7867,401.4286 529.8574,406.4143 521.5842,411.7205 514.926,417.3462 512.0847,420.4313 509.7758,423.4855 507.4638,427.4762 505.9488,431.3264 505.0093,435.6952 504.8561,439.8554 505.4844,443.6719 506.8808,447.5335 508.9171,451.1878 511.6506,454.4824 515.397,457.7855 518.934,460.1377 523.126,462.0248 528.2605,463.6419 532.8537,464.4058 538.2288,464.6173 543.0767,464.2426 549.125,463.25 556.6746,461.2199 567.4844,457.375 577.4014,453.2091 619.0977,434.4377 639.4075,425.8139 668.2312,414.2827 713.1603,397.2225 732.1552,389.5599 741.6725,385.219 748.5548,381.4168 752.0195,378.5741 752.7593,377.3793 752.9284,376.2505 752.484,375.197 751.7221,374.4618 748.8969,373.0833 744.0834,371.8356 737.7663,370.9017 720.6734,369.9377 696.7273,369.9397 670.6322,371.0364 641.196,373.273 615.8617,376.0944 591.7426,379.7596 572.7934,383.4371 555.965,387.4986 540.8187,392.0561 527.1226,397.1737 515.4847,402.6428 505.854,408.4622 497.8764,414.8046 494.465,418.2613 491.6333,421.7273 488.6566,426.3973 486.5689,431.0702 485.3089,435.9433 484.9269,440.6332 485.3532,445.7466 486.5248,450.3255 488.6173,455.1651 491.531,459.9636 495.3654,464.3941 500.4528,468.7509 504.1767,471.1351 509.0396,473.3633 513.8546,474.8969 519.1703,475.6509 524.5411,475.7023 530.3738,474.9488 535.9044,473.3687 544.375,469.8906 553.5312,465.1406 575.6016,452.4285 590.7197,444.4403 605.2392,437.4956 619.7308,431.0653 646.1514,420.3576 666.8477,412.711 701.885,400.649 753.0562,383.9454 774.4506,376.3872 783.1857,372.6222 788.75,369.375 790.2874,367.8804 790.84,366.6885 790.6718,365.5604 789.728,364.5106 786.9989,363.1996 783.25,362.25 770.5284,360.692 751.546,359.7953 727.5481,359.6606 699.5684,360.2249 671.2719,361.4675 643.2632,363.3906 615.8788,365.9408 593.8306,368.5536 573.6288,371.501 555.4191,374.7461 537.9357,378.5052 521.9197,382.6494 507.7948,387.0507 495.2544,391.7878 484.0875,396.9843 474.9614,402.2383 467.3489,407.6743 460.7062,413.689 455.4913,419.9048 451.6318,426.3263 449.0584,433.0056 447.694,440.2228 447.5973,447.7147 448.1268,452.0132 449.1229,456.5016 450.6025,461.1132 452.4237,465.506 456.943,473.5101 463.4635,482.1416 470.1262,488.8812 474.2897,492.3142 477.9688,494.8438 482.5622,497.4837 485.3792,498.701 489.3203,499.9141 491.5,500.125 492.0156,499.9219 491.875,499.625 490.0116,499.1534 484.7766,499.1644 477.8385,499.9565 471.4681,501.2929 462.9134,503.4992 452.3145,506.7116 432.0303,514.015 413.8903,521.4624 391.9571,531.6198 370.8664,542.5524 351.8293,553.3903 335.3742,563.7364 319.9973,574.4208 305.5411,585.5883 292.6882,596.6893 281.5251,607.6218 271.7403,618.6609 263.33,629.8239 256.4777,640.9519 252.7113,648.5415 249.7821,655.8815 247.5592,663.2883 246.0975,670.7359 245.4753,677.6202 245.6453,684.6732 246.5868,691.2524 248.292,697.7034 250.7653,703.9986 254.0108,710.1102 258.0329,716.0103 262.8815,721.7095 268.3231,726.8782 274.4847,731.6938 281.3135,736.1269 288.7569,740.1485 297.1387,743.8809 305.6753,746.9693 314.7358,749.5741 323.9798,751.591 333.9088,753.125 344.0932,754.0939 354.4516,754.5041 364.9027,754.3619 375.3652,753.6734 385.7638,752.444 395.8047,750.7147 406.0572,748.3805 416.078,745.5302 426.1666,742.0645 435.5462,738.2645 444.8522,733.8844 457.6592,726.6937 469.8274,718.3819 481.3717,708.8952 491.8246,698.6139 501.1533,687.6126 509.1738,676.1403 516.1814,663.8712 522.2315,650.6895 526.9307,637.7167 530.6274,624.4359 533.4789,610.3452 535.5067,595.1209 536.5239,581.7131 536.9051,567.5303 536.1362,516.3517 536.6514,505.544 537.7644,497.533 539.8378,488.6317 541.3138,484.387 542.9909,480.7921 545.6147,476.0499 548.2535,472.1276 551.316,468.2377 554.8516,464.4 560.2578,459.4141 566.6175,454.3959 579.8091,445.9324 590.3614,440.2828 601.1933,435.0634 621.3263,426.4273 651.8405,414.9739 683.1537,404.4755 712.648,395.3372 781.3288,374.9484 797.4884,369.7116 807.2941,365.9728 813.0436,363.086 814.6296,361.8611 815.4971,360.6941 815.5756,359.5971 814.7949,358.582 811.5831,357.1585 805.0603,355.8643 795.8995,354.8445 784.2768,354.0947 754.9165,353.4543 717.0885,353.8779 678.781,355.2722 640.3785,357.602 604.9103,360.6785 573.1367,364.4229 548.7658,368.1719 526.4024,372.4973 506.1224,377.3804 488.0923,382.8018 472.75,388.625 459.3344,395.1257 453.5577,398.503 448.0633,402.1725 443.2026,405.9164 438.9458,409.7251 434.095,414.9649 430.1322,420.4279 427.1576,425.9042 424.9659,431.7017 423.588,437.7778 422.9971,444.4215 423.2334,451.1206 424.334,457.7172 426.2273,464.3461 429.1744,471.9331 432.1105,478.0785 435.8847,484.4327 441.9026,492.959 447.2778,499.6143 453.1159,506.0432 463.0454,515.8334 463.9224,517.6064 463.7945,518.6232 462.2269,519.9398 458.875,521.375 439.9404,527.7755 421.1335,535.2023 403.57,543.3002 387.028,551.8684 370.883,561.09 355.3975,571.0667 340.9463,581.5209 327.7759,592.2563 316.3491,602.9006 306.485,613.6051 298.1595,624.4228 291.6441,635.0189 286.7532,645.6616 284.9675,650.9262 283.7142,655.8419 282.8335,661.1117 282.4669,665.9715 282.5501,670.7883 283.0979,675.5513 284.4223,681.2883 286.2964,686.3621 288.8036,691.224 292.1559,696.1533 296.1871,700.7931 300.8754,705.1183 306.058,709.0072 311.6821,712.4145 317.8438,715.4101 324.8368,718.1086 331.8916,720.2306 339.6757,721.9892 347.3406,723.1989 355.0625,723.9113 363.2732,724.1267 371.5928,723.8278 379.5732,723.0836 387.9088,721.8451 396.1519,720.1594 404.0441,718.0875 411.8208,715.55 419.3745,712.5994 426.665,709.276 433.9765,705.4383 440.909,701.2817 447.2624,696.9647 453.5606,692.1362 459.7288,686.8016 465.4326,681.2441 470.663,675.5127 475.625,669.375 480.321,662.799 486.7888,652.1626 492.1333,641.2509 496.423,629.935 499.9236,617.6588 502.4397,604.9623 504.1411,590.6394 504.625,579.125 504.1588,563.7151 502.4027,548.8086 500.5099,539.6541 497.7473,530.7255 495.4785,525.6731 493.6144,522.4665 491.4606,519.7664 489.2222,517.5694 487.0,516.0 483.9882,514.5093 481.0397,513.5419 477.6436,512.9271 473.6663,512.5943 469.5867,512.6505 463.4071,513.3297 456.8745,514.5522 448.2529,516.7054 439.8562,519.2189 418.9722,526.8737 399.1937,535.5574 379.1246,545.6735 358.427,557.462 338.9763,569.9596 321.9405,582.3235 307.9449,593.9654 295.427,606.0048 284.8235,617.9302 275.9513,629.9529 272.3366,635.7348 269.2789,641.3359 266.6416,647.0011 264.4459,652.7149 262.7127,658.462 261.5268,663.8666 260.7501,669.6347 260.4979,675.0318 260.7257,680.1871 261.4583,685.2947 262.6947,690.3102 264.4336,695.2153 266.6735,699.9912 269.4131,704.6196 272.6508,709.0817 276.3853,713.3592 280.4338,717.2592 284.7271,720.7704 289.7165,724.2567 295.1183,727.4786 300.9034,730.4228 307.0431,733.0762 319.865,737.3474 333.6284,740.3433 348.4885,742.0058 363.8011,742.2729 379.222,741.1748 394.1626,738.7926 409.2314,735.0077 423.6871,730.0102 437.6444,723.7748 444.6953,720.0161 451.4327,715.9784 458.0473,711.5452 464.313,706.8709 470.218,701.9889 476.0172,696.676 481.3921,691.2098 486.553,685.3611 491.3767,679.2472 495.9919,672.7389 500.1604,666.177 504.0673,659.2728 507.5041,652.3991 510.4823,645.602 513.3998,637.9129 515.9799,630.0368 518.2991,621.6008 520.1135,613.4137 522.7692,595.1626 523.9428,578.2126 523.8565,556.1796 522.6882,535.257 519.8634,499.6747 518.9848,492.9143 517.6004,487.7813 515.9421,484.7767 514.0909,482.7815 511.0851,481.1019 505.9396,480.2128 500.388,480.209 494.25,480.875 485.7778,482.5324 474.8779,485.2937 465.5946,488.0273 438.469,497.5517 409.3202,509.3185 380.0953,522.6699 354.6199,535.7409 328.8037,550.5507 308.0899,563.7846 289.3666,577.0828 272.7558,590.3619 258.018,603.8103 251.2387,610.7166 244.898,617.7122 239.1713,624.6036 234.0649,631.359 229.3699,638.2667 225.316,644.9959 221.722,651.8506 218.7645,658.4897 215.7912,666.8428 213.7211,675.0453 212.5123,683.2745 212.204,691.4874 212.7854,699.2723 214.2567,706.9659 216.6517,714.5311 219.8226,721.5823 223.9496,728.5152 228.8558,735.0133 234.8598,741.4796 241.4437,747.3591 248.7941,752.8804 256.8746,758.0071 265.6489,762.7028 275.0807,766.9313 285.0379,770.6216 295.7398,773.8385 306.9037,776.491 318.8204,778.6264 331.0414,780.1386 343.0805,780.9986 355.2287,781.253 367.3992,780.8919 379.5541,779.9043 391.6086,778.3082 403.4908,776.1349 415.5087,773.3186 427.2066,769.9538 438.515,766.0744 449.3648,761.7142 460.0,756.75 474.7405,748.5651 488.828,739.1033 501.7752,728.6707 513.4661,717.4093 519.0548,711.2272 524.1231,705.0557 533.4868,691.9147 541.592,677.9898 548.3395,663.4798 553.3142,649.7926 557.4935,635.0601 560.6245,620.1868 562.7011,605.4382 563.936,591.0132 564.6299,576.5167 564.7533,563.5834 564.1241,523.2289 564.6549,509.9658 565.7085,500.0375 567.5377,491.0783 569.9806,483.7141 573.5635,476.29 578.2093,469.2104 581.6192,465.037 584.9347,461.5992 594.8853,453.173 605.1941,446.1299 618.8874,438.1257 639.8051,427.6788 656.9101,420.0471 672.6356,413.398 714.7826,396.4916 731.6198,389.1954 738.2268,385.8303 742.875,382.875 745.5278,380.1944 746.0625,378.9375 746.083,378.0483 745.0693,376.4458 742.2608,375.0131 737.8279,373.8488 731.6565,372.9148 714.7775,371.9187 692.1259,371.8665 669.199,372.8647 641.9784,375.0322 618.5144,377.7173 595.3078,381.2729 577.5184,384.6954 561.6573,388.4852 546.9208,392.8965 533.6207,397.7981 522.5586,402.8709 513.0923,408.4032 505.0223,414.5452 499.0525,420.7356 496.125,424.875 493.7676,429.4911 492.2682,434.3118 491.6955,438.9299 491.9155,443.5955 492.9544,448.1373 494.8195,452.6234 497.5375,457.0819 501.1335,461.2243 505.4525,464.9031 509.4565,467.4365 513.973,469.4233 519.0195,470.9609 524.3555,471.7266 530.0219,471.8378 535.6702,471.1257 542.9933,469.191 552.258,465.634 560.6447,461.6258 589.5041,446.8321 603.5543,440.0339 614.9782,434.8166 638.2358,424.9578 675.8117,410.689 741.8343,387.4361 762.1556,379.6054 769.6701,376.0576 774.3708,372.9956 775.5102,371.7792 776.0194,370.5805 775.8425,369.5227 775.0113,368.5182 772.8164,367.2861 769.2927,366.2072 759.3024,364.7393 742.6406,363.7031 721.9447,363.4092 697.4138,363.9046 671.672,365.0804 646.6611,366.846 621.9327,369.2361 600.9565,371.7941 581.7487,374.6545 564.1371,377.8295 548.1378,381.3126 533.2109,385.221 519.7385,389.4716 507.7388,394.0554 497.2,398.9773 487.8592,404.3655 480.2202,409.8913 473.8994,415.7591 468.7168,422.225 465.1127,428.8065 462.9443,435.5994 462.1306,442.8302 462.7539,450.2118 463.8476,454.6259 465.4935,459.1178 467.5744,463.4861 470.078,467.6612 473.2915,472.0184 477.1753,476.4437 480.504,479.6106 484.1304,482.4539 488.1228,485.0811 491.768,486.9316 497.1615,488.8766 500.7344,489.6406 504.7014,489.8694 508.3298,489.3921 511.101,488.3298 513.5715,486.583 514.8496,484.9766 515.4375,483.1875 515.375,482.0 514.5046,480.5741 512.608,479.372 510.7192,478.7108 505.0752,478.3396 497.3256,479.0412 486.3056,481.2222 474.026,484.5278 463.2338,487.8404 447.9529,493.1399 431.5517,499.3075 416.2423,505.4289 402.5747,511.3337 384.1611,519.8571 367.4691,528.0631 351.515,536.4339 336.6477,544.7871 314.2651,558.521 293.5271,572.6982 275.2923,586.8223 259.2085,601.0881 251.8054,608.4174 244.8133,615.922 238.7117,623.0777 233.0306,630.422 228.0361,637.6284 223.5355,644.9913 219.7412,652.1727 216.6282,659.1474 213.6672,667.4709 211.6082,675.6615 210.4212,683.8717 210.1382,692.064 210.791,700.2008 212.3165,707.8815 214.7516,715.4447 218.1241,722.8577 222.3102,729.8242 227.2224,736.2854 233.2181,742.7166 240.0695,748.8044 247.735,754.51 255.821,759.5921 264.9613,764.4366 274.3864,768.6208 284.5366,772.3498 295.2562,775.5367 306.4286,778.1601 318.3473,780.2696 330.5664,781.7638 342.9932,782.635 355.5352,782.8755 367.7077,782.5 379.8864,781.5111 391.9756,779.9131 403.8852,777.7381 415.9276,774.9205 427.6501,771.5553 439.3348,767.5477 450.2066,763.1755 460.875,758.2021 476.0401,749.7774 490.1749,740.2673 503.1672,729.7926 515.1438,718.2412 525.5603,706.1655 530.4775,699.5802 534.9712,692.9322 543.1087,678.8797 549.8935,664.2362 554.8997,650.5183 559.1823,635.3423 562.3506,620.05 564.5784,603.9263 565.6865,590.6888 566.2781,577.1449 566.3784,561.9584 565.7386,522.5306 566.2129,509.4885 567.188,499.8542 568.8685,491.5476 571.2886,484.0119 574.97,476.0896 578.9919,469.7707 585.8663,461.8222 593.847,454.7041 605.1605,446.5786 616.836,439.5792 633.0094,431.1877 649.1956,423.5264 673.1271,413.2674 710.8305,397.8952 728.8941,389.9171 735.2197,386.6382 739.965,383.57 742.5029,381.0698 743.0572,379.863 743.1128,378.9944 742.2222,377.3889 739.8785,376.0178 735.4763,374.7949 729.5332,373.8133 714.5868,372.7065 693.5115,372.6504 669.6826,373.5923 644.8519,375.5055 620.2212,378.2765 597.2239,381.7655 579.4274,385.2207 563.3113,389.1019 549.3151,393.2702 535.9892,398.18 524.888,403.2745 515.6514,408.6586 507.7949,414.6321 504.5625,417.6887 501.6179,421.009 498.7245,425.1461 496.4942,429.6087 495.1244,434.218 494.646,438.6257 494.9504,443.5335 495.9481,447.8236 497.7988,452.0639 500.8657,456.8271 504.0306,460.392 507.8594,463.561 511.7251,465.9919 516.426,467.988 521.883,469.51 526.9016,470.1844 532.633,470.1889 538.0396,469.4431 546.1443,467.3605 556.6991,463.3519 604.4489,440.0778 625.3653,430.7217 643.85,423.0575 674.6187,411.3463 735.7802,389.4325 755.2368,381.8867 763.5924,377.911 768.6071,374.66 769.965,373.2009 770.4744,372.0948 770.3147,370.8064 769.4939,369.8644 767.0,368.625 763.3476,367.6468 751.675,366.0224 736.5388,365.183 715.2498,364.9884 693.8519,365.4306 671.8328,366.486 644.2308,368.5003 619.8856,370.8755 601.0191,373.2453 583.3916,375.9957 565.7688,379.2822 549.7008,382.8709 535.9228,386.562 523.7184,390.4973 512.1288,394.9864 501.7086,399.8673 492.2821,405.322 484.6275,410.9331 478.1916,417.0695 475.4151,420.4265 473.1248,423.7739 471.277,427.1142 469.7146,430.7533 468.6464,434.1213 467.9084,437.7869 467.6062,441.3394 467.7057,445.1496 469.034,452.6596 470.3833,456.7903 472.3354,461.0219 474.8337,465.231 478.1632,469.8448 481.1182,473.1858 484.72,476.5387 488.5531,479.5081 492.4181,481.8352 496.7981,483.8631 500.5615,485.197 504.7374,486.0464 508.6505,486.3271 512.9403,485.8741 516.4304,484.9619 519.9489,483.3711 523.2318,480.9849 525.8103,478.3157 528.396,474.627 529.5959,472.0396 530.0652,469.609 530.125,468.125 529.5231,466.0909 527.8287,464.5018 525.61,463.691 523.0,463.25 519.4197,463.1926 510.0026,464.2713 499.1223,466.5932 484.3129,470.6604 464.3369,477.0863 443.7659,484.3723 423.5382,492.1838 402.5128,500.9527 381.9963,510.0842 361.944,519.651 342.3574,529.6503 324.3952,539.5101 310.9611,547.3954 297.677,555.6692 285.0376,563.9975 273.2932,572.2205 262.2467,580.4792 251.9746,588.7155 242.524,596.8696 233.6526,605.1486 225.4588,613.4975 217.9904,621.8654 211.2767,630.2068 205.3329,638.4802 199.9744,646.9659 195.4272,655.3259 191.6089,663.6933 188.6673,671.7533 186.289,680.6294 184.8254,689.5536 184.3257,698.4861 184.7968,707.0173 186.2414,715.4842 188.7028,723.8517 192.0145,731.6605 196.3036,739.259 201.5735,746.6182 208.0344,753.9546 215.1861,760.7032 223.2046,767.0916 232.0524,773.08 241.692,778.6285 252.0857,783.6974 263.2159,788.2522 274.6551,792.1221 286.9832,795.5153 299.7802,798.3006 312.9531,800.4688 326.7971,802.0453 340.4481,802.9334 354.1944,803.1765 367.9432,802.7657 381.4502,801.7089 394.8909,800.0046 408.0937,797.6907 421.3798,794.7055 434.2988,791.1427 447.1426,786.9121 459.473,782.145 471.2266,776.879 479.625,772.625 488.1162,767.8571 496.1962,762.846 504.1912,757.3828 511.743,751.706 519.1406,745.5938 526.0624,739.3077 532.511,732.8775 538.7183,726.0688 544.4195,719.1694 549.5945,712.2473 554.6687,704.7309 559.2612,697.1702 563.5732,689.2501 567.569,681.0034 571.2174,672.4722 576.0512,659.0525 580.0981,644.8019 583.3058,629.8272 585.5442,614.777 587.0092,597.4829 587.585,576.179 587.325,559.177 585.5927,517.1871 585.5636,508.0708 585.9243,499.4787 587.0555,489.4608 589.0938,480.486 591.7866,472.8801 595.6854,465.4487 600.3521,458.8099 606.0188,452.6239 613.6457,445.9431 622.1271,439.665 634.0602,432.1944 647.4241,424.7873 687.9392,404.7958 699.518,398.66 704.912,395.2486 708.5051,392.3948 710.2962,389.9545 710.5009,388.0264 709.625,386.625 707.5826,385.3394 704.3507,384.2339 700.3982,383.446 689.0072,382.523 674.3131,382.4289 656.624,383.28 639.0204,384.8608 619.8657,387.4548 602.4634,390.4965 589.7089,393.3543 576.2936,397.0733 565.3453,400.7793 555.6795,404.817 547.1472,409.2476 539.9539,413.986 534.3826,418.8485 530.2542,424.01 528.3505,427.5757 527.2331,430.8457 526.8173,434.0106 527.0312,436.959 527.8839,440.1131 529.273,442.841 531.4183,445.5267 534.0146,447.8314 536.9368,449.6372 540.5107,451.2112 543.7329,452.2577 547.441,452.8972 552.875,453.25 556.8991,453.1726 567.6316,451.6459 581.2607,448.0167 600.5633,441.0344 674.0955,410.8621 690.6286,403.8065 705.0537,397.2859 714.4763,392.2188 717.7649,390.0038 720.1543,387.9316 721.375,386.25 721.6404,384.5748 720.709,383.0567 718.4437,381.7415 715.1601,380.7665 710.5711,379.9349 697.8518,378.8821 681.2606,378.8251 661.511,379.778 638.9469,381.839 618.9052,384.3331 601.2987,387.3464 585.765,390.6811 571.7458,394.3671 559.1195,398.4896 547.7545,403.0467 538.502,407.7145 530.9616,412.6426 524.5078,418.207 519.7567,423.9716 517.746,427.4783 516.4736,430.8611 515.7999,434.4549 515.7807,438.2866 516.4632,441.8002 517.766,445.0025 519.9815,448.5681 522.0758,450.8883 525.1448,453.3047 529.1141,455.6444 532.6368,457.0601 537.1198,458.219 541.219,458.8229 545.8685,458.9438 551.7101,458.6274 556.5313,457.8691 567.2273,455.2061 584.7562,448.8773 639.8089,425.6015 709.3417,397.5286 723.1264,391.2882 731.0625,386.9907 733.8084,385.069 735.6654,383.2857 736.6023,381.6455 736.687,380.4178 735.5899,378.7595 733.4469,377.5841 729.2916,376.4163 723.4062,375.4688 709.2166,374.5251 687.931,374.5489 665.4364,375.543 640.9085,377.5802 618.087,380.2969 597.0802,383.6693 580.1094,387.1406 564.3553,391.1222 550.4156,395.4719 538.1519,400.1999 527.7376,405.2351 518.8731,410.7457 511.7256,416.5878 508.9261,419.5021 506.3926,422.6887 503.8432,426.8227 502.0648,431.088 501.1439,435.1645 500.9215,439.7575 501.41,443.887 502.5533,447.5443 504.7587,451.8437 507.425,455.5502 510.7227,458.7625 514.9516,461.8346 518.725,463.787 523.065,465.301 527.5415,466.3262 532.647,466.7696 537.9624,466.6679 543.5931,465.8874 552.061,463.8245 562.5254,460.041 575.2663,454.4229 616.6928,435.2473 643.5011,423.925 666.4782,414.8175 723.4558,393.5807 741.0287,386.6492 749.5594,382.7713 755.232,379.595 758.5753,376.7765 759.3532,375.4731 759.452,374.2635 758.261,372.6977 755.2141,371.2672 750.2455,370.0664 743.8354,369.1787 725.0504,368.0928 701.3397,368.1 671.8718,369.358 642.5635,371.5262 615.8562,374.4195 590.4529,378.1239 571.5585,381.6468 554.6586,385.5777 537.7339,390.4627 523.1793,395.6769 511.6534,400.879 501.7242,406.632 493.2641,413.0336 489.8538,416.2698 486.7485,419.7637 483.4017,424.5123 480.9177,429.3924 479.2785,434.5019 478.5477,439.4603 478.6136,444.896 479.5502,449.9304 481.3397,454.8817 484.1376,460.1997 487.9688,465.2969 493.0,470.25 497.2487,473.4447 502.2183,476.1631 507.3148,478.1271 513.2758,479.3318 518.0677,479.5389 523.7557,478.9446 530.0593,477.1443 536.932,473.9869 548.0532,466.9796 563.3939,456.6222 578.2083,447.8004 593.6053,439.7696 613.6112,430.6618 629.3709,424.2734 645.5674,418.1794 677.9003,407.0225 720.9011,393.3548 779.4667,375.4788 791.6599,371.3882 800.8149,367.7624 806.6334,364.7576 808.416,363.3418 809.1777,362.2207 809.2261,361.163 808.5093,360.1778 805.6417,358.7754 800.0154,357.5467 791.2799,356.5098 779.987,355.7252 752.414,355.0134 715.8035,355.3855 679.6413,356.6877 644.3638,358.8527 609.6809,361.8922 578.212,365.6058 554.1258,369.2793 531.899,373.5453 511.7661,378.3421 494.1972,383.5524 479.1769,389.1453 466.2024,395.3214 455.0907,402.1125 450.4206,405.6012 446.0452,409.3803 440.9847,414.6584 436.9449,420.0105 433.6901,425.7347 431.3612,431.6617 429.9243,437.8607 429.3728,444.273 429.6821,451.1553 430.8426,457.8241 432.9349,464.8248 435.8909,471.9649 439.0393,478.0091 443.304,484.581 448.8229,491.9253 452.8756,496.6258 460.1986,503.9993 469.6076,511.9154 470.619,513.394 470.537,514.072 468.0739,515.3699 448.2346,521.0605 432.6053,526.6134 415.2571,533.7949 397.3524,542.2309 379.6142,551.5863 363.5439,561.0892 347.1679,571.9085 332.1535,582.9805 319.4693,593.5419 307.8951,604.5277 298.1368,615.2764 289.979,626.0252 283.4583,636.7384 278.5724,647.41 276.7416,652.7989 275.4329,657.8471 274.533,662.904 274.0638,667.9604 274.0428,672.7649 274.4895,677.6007 275.412,682.338 276.6845,686.6117 278.5175,691.1213 280.8214,695.4928 283.5944,699.7125 286.5692,703.4611 289.9515,707.0486 293.8432,710.5145 297.845,713.5505 302.5004,716.5768 307.5067,719.3548 312.8341,721.8701 324.3319,726.0558 336.5448,728.9663 349.8636,730.6738 363.6799,731.1073 377.6491,730.2782 391.0374,728.2698 404.526,725.0031 417.8885,720.5111 430.5015,715.0141 436.9161,711.6771 443.3968,707.8705 449.587,703.7936 455.7694,699.2519 461.5893,694.4972 467.287,689.324 472.5378,684.0162 477.2438,678.7142 481.6773,673.1464 485.9419,667.1627 493.404,654.7307 499.8137,641.0203 504.912,626.726 507.1214,618.6131 508.8726,610.251 510.3777,600.7732 511.4041,591.4031 511.9571,581.9035 512.1376,570.7918 511.8983,562.4952 511.1804,552.7267 510.2281,543.9355 508.251,531.7836 504.8429,518.6516 502.7854,513.5945 500.75,510.125 497.8859,506.8785 494.4656,504.4961 491.309,503.1154 487.8364,502.3247 483.3892,501.9165 478.8522,502.0466 467.6738,503.7217 451.8553,507.695 433.9,513.8881 413.194,522.1804 394.25,530.75 374.6206,540.6364 357.4787,550.198 339.6458,561.0875 324.0214,571.577 309.9276,582.052 297.1233,592.6987 285.4312,603.673 274.9976,614.8448 266.1037,625.9159 260.6325,633.8972 256.0376,641.7391 252.1588,649.7452 249.1792,657.5609 247.073,665.1595 245.863,672.3386 245.4442,679.8563 245.8856,686.926 247.1706,693.8912 249.3252,700.7187 252.375,707.375 256.0907,713.4139 260.6156,719.1662 266.1842,724.8522 272.559,730.1561 279.6981,735.0435 287.5597,739.4798 296.0937,743.4257 305.058,746.7362 314.5588,749.4724 324.5021,751.6296 335.1803,753.2502 346.1283,754.2381 357.2412,754.5883 368.2435,754.3011 379.0113,753.3888 389.7092,751.8752 400.6399,749.7077 411.3405,746.965 421.7323,743.6829 432.0736,739.7577 441.7533,735.4108 455.0046,728.2593 467.5001,720.0609 479.3525,710.6978 489.8511,700.7306 499.6109,689.552 508.1093,677.7498 515.4773,665.2198 521.6856,652.0186 526.6294,638.7419 530.4985,625.1547 533.3796,610.9541 535.5218,595.3034 536.4962,582.6876 536.9086,566.6537 536.127,524.1094 536.1998,513.9112 536.6151,506.0699 537.8252,496.694 540.3513,487.0023 543.9063,478.9716 549.0038,471.0924 555.3287,463.8472 560.1512,459.3937 566.0158,454.9015 573.2112,450.046 581.3923,445.1467 588.6462,441.1743 599.0161,436.1431 617.3281,428.125 645.4168,417.3577 677.9615,406.2465 713.6778,395.0531 781.7663,374.8424 798.3293,369.4821 807.4089,366.0054 813.0279,363.1607 814.6436,361.9421 815.5469,360.791 815.6691,359.7132 814.9443,358.7158 811.7782,357.234 806.057,355.9696 798.1468,354.9931 787.721,354.2578 756.0739,353.4714 719.1067,353.796 680.091,355.2136 641.1007,357.5434 606.2607,360.5537 574.9125,364.2648 549.4888,368.1157 527.0639,372.3485 507.3257,377.0013 490.0454,382.1435 473.8294,388.2423 460.1611,394.7522 453.9511,398.3219 448.3973,401.9786 443.4828,405.7129 438.9791,409.7189 434.1672,414.9185 430.352,420.153 427.1321,426.0502 424.9168,431.9196 423.4681,438.3622 422.9387,444.6099 423.2577,451.2136 424.412,457.9271 426.5252,465.3528 429.1784,472.1101 432.7437,479.0476 437.875,487.375 442.7766,494.2041 449.5657,502.235 462.5514,515.3234 463.8281,517.3281 463.75,518.625 462.7031,519.7344 460.34,520.8616 441.8174,527.0877 421.4805,535.0899 404.308,542.8735 388.6006,550.8754 371.394,560.7522 355.5853,570.8664 341.0517,581.3369 327.9033,591.9946 316.367,602.7367 306.6079,613.3626 298.2677,624.2544 291.6448,635.0268 286.8397,645.4084 285.0926,650.5119 283.7656,655.6231 282.8803,660.7277 282.4582,665.8111 282.5219,670.8707 283.0185,675.281 284.2411,680.677 286.2721,686.255 289.0418,691.6112 292.2988,696.396 296.1848,700.9186 300.5015,704.9494 305.5892,708.769 311.2545,712.2194 317.4319,715.2787 324.4359,718.0596 331.8608,720.3549 339.1235,722.0279 346.7445,723.223 354.9954,723.957 363.0477,724.1693 371.5848,723.8867 379.752,723.1414 387.8053,721.9444 395.7307,720.2967 403.5401,718.2184 411.5403,715.614 419.2964,712.6084 426.7487,709.2382 434.0779,705.4044 440.8586,701.3276 447.6005,696.7148 453.9361,691.8119 459.8459,686.6699 465.559,681.0819 470.7011,675.4226 475.6898,669.2534 480.1969,662.974 486.594,652.51 491.8619,641.8035 496.2456,630.4643 499.7369,618.4357 502.4778,604.8681 504.1641,591.463 504.716,577.6398 504.2995,564.4267 502.8985,551.4161 500.4999,539.421 499.1924,534.8491 497.1233,529.3569 495.572,525.86 493.9285,523.0747 491.8125,520.2344 489.724,518.0737 487.0113,516.0769 484.3102,514.662 481.2927,513.6646 477.125,512.8594 469.488,512.721 463.9131,513.1951 458.9375,514.0307 449.9793,516.1746 441.3031,518.7355 421.3144,525.9251 399.1537,535.5323 378.7498,545.8631 358.2276,557.5587 339.7855,569.3512 323.0392,581.4704 308.9917,592.9998 296.559,604.6997 285.9038,616.4722 277.0713,628.2327 273.2641,634.1942 269.8678,640.2472 267.0731,646.0368 264.7136,651.8866 262.8223,657.7863 261.5,663.375 260.7045,668.7161 260.4013,674.0361 260.5932,679.314 261.2833,684.5287 262.4746,689.6591 264.0322,694.3292 266.1986,699.2376 268.875,704.0 271.7744,708.1655 275.1331,712.1526 278.9286,715.9499 283.4332,719.7787 288.3818,723.3652 293.7471,726.6957 299.5018,729.7566 305.6185,732.5342 311.598,734.8372 318.0553,736.8895 331.747,740.0158 346.5936,741.8681 361.8987,742.3465 377.4025,741.4327 392.9419,739.0863 408.1242,735.4062 422.6925,730.4995 436.6869,724.3258 443.6928,720.611 450.7209,716.4228 457.4014,711.9751 463.7222,707.3034 469.9454,702.2077 475.7473,696.9463 481.1803,691.4848 486.2672,685.7935 491.1752,679.6718 495.6363,673.4581 499.8519,666.8816 503.6007,660.3008 507.0712,653.3974 510.3302,646.0026 515.6315,631.1274 517.8817,623.0508 519.768,614.8044 522.4639,597.9369 523.816,579.8156 523.9842,559.9601 522.9079,538.6574 520.789,510.565 519.1205,493.5554 517.9948,488.6237 516.3352,485.0651 513.6372,482.2995 510.769,480.905 506.5902,480.1533 499.4054,480.1605 490.5889,481.5505 481.203,483.6257 471.7866,486.0918 460.8533,489.5438 433.9312,499.2112 410.0364,508.965 379.9776,522.6801 354.0142,535.9896 330.4369,549.4273 309.4282,562.7628 290.6328,575.9924 273.9143,589.2319 259.1578,602.523 246.1113,616.1152 240.4599,622.7826 235.1729,629.6228 230.4986,636.32 226.2389,643.1613 222.5667,649.8887 219.4039,656.6835 216.2796,665.0153 213.9793,673.4292 212.6016,681.5206 212.0776,689.6219 212.4563,697.7012 213.6976,705.3306 215.7633,712.5318 218.7134,719.57 222.7217,726.7153 227.419,733.3098 233.2106,739.9138 239.5721,745.9163 246.7171,751.5757 254.8151,756.972 263.0993,761.5971 272.3588,765.918 282.231,769.7449 293.0036,773.1665 304.2584,776.0235 315.9071,778.2977 327.8614,779.971 340.0045,781.0232 351.8299,781.4205 363.7256,781.2097 376.0032,780.3785 388.5801,778.8948 400.9862,776.8023 413.1353,774.1287 424.9412,770.9016 436.1884,767.195 447.2535,762.8673 457.8286,758.0422 472.8886,749.8852 487.2894,740.4508 500.4943,730.0622 512.3516,718.8601 517.8575,712.8832 523.206,706.4989 528.1248,700.0312 532.8316,693.1968 537.0973,686.3347 541.1019,679.1661 548.0302,664.4324 553.3071,650.1995 557.5566,635.2647 560.7193,619.936 563.0969,602.7656 564.1071,591.2707 564.6641,579.4045 564.7853,559.3541 564.3526,521.2928 564.7932,509.2493 565.8406,499.3868 567.6086,490.9537 570.3976,482.7922 573.6709,476.0132 577.9549,469.6247 581.2421,465.598 585.146,461.456 593.3701,454.328 603.1591,447.4669 617.7763,438.7659 636.1535,429.3954 654.7592,420.9514 716.3381,395.8141 730.2012,389.7321 737.9637,385.8108 742.4436,383.0347 745.3041,380.2856 745.8875,379.0198 745.9021,378.0734 744.7847,376.4811 742.4021,375.1902 738.6603,374.0889 733.5025,373.2149 715.8643,371.9703 695.5406,371.8269 669.3934,372.9457 643.8672,374.8812 619.3014,377.6291 596.3362,381.0685 578.8467,384.4323 562.4634,388.3811 547.3562,392.8198 534.0362,397.6514 523.08,402.6412 513.4186,408.2209 505.545,414.1749 499.4744,420.453 496.4424,424.693 494.1066,429.1645 492.5636,433.8512 491.8925,438.3781 492.0198,442.7663 493.0452,447.5674 495.1025,452.7415 497.574,456.846 501.022,460.948 505.0063,464.515 509.2532,467.2068 514.3437,469.5631 519.1874,470.9137 525.1708,471.7274 530.2759,471.7113 535.5928,471.0685 544.5125,468.6205 552.2014,465.574 563.8122,460.0557 590.9837,446.1551 607.7961,438.0759 623.6241,431.075 643.9521,422.7632 671.9833,412.0486 737.8562,388.9113 760.6859,380.2676 768.5967,376.5412 773.625,373.375 774.9774,372.0237 775.6111,370.7315 775.4531,369.5156 774.7077,368.6096 772.4705,367.3825 769.2963,366.4533 757.6297,364.7761 741.4085,363.8338 720.6951,363.615 696.512,364.0389 672.3449,365.1048 647.4249,366.8925 622.6267,369.2617 602.5447,371.6804 583.7266,374.4651 565.3176,377.7935 548.5664,381.4141 533.8838,385.2076 520.5379,389.3555 508.6709,393.8484 498.3022,398.6109 489.1266,403.7626 481.2323,409.2961 474.836,415.0497 469.5634,421.4254 465.8166,428.0587 463.4411,435.2426 462.7628,439.1524 462.511,442.768 463.0994,449.9635 464.2153,454.5718 465.8617,459.165 467.9588,463.4986 470.5649,467.7567 474.25,472.75 477.0001,475.8806 480.7061,479.3416 485.225,482.8801 489.1222,485.2591 494.1448,487.5117 498.0012,488.7843 502.0907,489.5464 505.2087,489.6755 509.1534,489.0237 511.7222,487.9861 513.8565,486.4352 515.375,484.75 516.063,483.3127 516.2286,481.8663 515.6568,480.3316 514.5928,479.3101 513.1123,478.5269 510.2171,477.8278 507.625,477.625 501.1631,477.9321 490.7149,479.6625 479.2849,482.5227 467.2106,486.1216 453.1352,490.7742 437.9858,496.3213 421.9136,502.6768 405.0231,509.8194 389.7071,516.7298 374.7437,523.927 359.5885,531.6478 344.9254,539.5759 322.1559,552.9305 301.3437,566.4964 282.6421,580.1773 265.4783,594.386 250.7327,608.3671 244.2167,615.3075 238.0574,622.4695 232.5307,629.5534 227.6346,636.5337 223.1754,643.7014 219.3924,650.6912 215.5433,659.2095 212.5105,667.8385 210.432,676.181 209.2232,684.5652 208.9431,692.9616 209.5927,700.936 211.1866,708.7547 213.6154,716.0872 217.0919,723.562 221.5186,730.8026 226.8871,737.7695 232.8959,744.141 240.0834,750.4583 247.7989,756.1202 256.1801,761.2436 265.2883,765.8896 275.3948,770.1763 286.114,773.9167 297.3617,777.0928 309.4503,779.7628 321.5132,781.736 333.8839,783.0905 346.3919,783.7721 358.9967,783.7908 371.6173,783.1678 384.5516,781.8768 397.3283,779.9497 409.859,777.4096 422.0551,774.2793 433.8636,770.5705 445.2505,766.3051 456.5136,761.3709 472.2138,753.1756 479.8934,748.5362 487.202,743.6795 500.6451,733.4136 506.8775,727.9395 513.1123,721.926 518.906,715.7811 524.5159,709.228 529.6693,702.5831 534.3803,695.8735 538.8477,688.8188 542.8632,681.7535 546.5463,674.4929 550.1054,666.5995 555.5616,652.1465 559.8562,637.3789 563.0668,622.21 565.5179,604.8491 566.6082,592.3225 567.1891,579.5726 567.3365,560.891 566.7671,520.2206 567.2354,508.5228 568.2908,498.8598 570.1597,490.0514 572.9284,481.9268 576.0139,475.588 580.4789,468.8836 583.464,465.1219 587.0442,461.2645 595.3398,453.9194 605.1424,446.8724 617.9586,439.188 636.0742,429.8116 653.9404,421.5429 669.1801,414.9659 710.4882,397.9467 727.1078,390.5976 734.041,386.939 738.5105,383.9758 740.9718,381.3577 741.4451,380.1428 741.4316,379.2871 740.375,377.75 737.5789,376.2779 733.4065,375.0936 728.1199,374.2225 712.0879,373.2205 691.9341,373.1519 667.9912,374.22 642.3622,376.2308 620.0583,378.7835 597.4471,382.2616 580.0385,385.6558 564.2048,389.4689 549.5925,393.8251 536.7453,398.5724 526.013,403.5192 516.8812,408.8831 509.21,414.8154 503.3091,421.0349 500.2843,425.3882 498.1752,429.6585 496.808,434.1543 496.2341,438.9129 496.5308,443.2572 497.5519,447.2641 499.75,452.25 502.0969,455.8395 505.4371,459.4456 509.8497,463.0697 514.1927,465.5585 519.3526,467.623 524.2048,468.7646 529.8884,469.261 534.5491,469.07 540.7379,468.1854 549.187,465.87 559.2208,462.0004 606.5,439.375 626.9455,430.362 641.7853,424.1875 673.6527,411.8112 731.6408,390.8027 749.9692,383.7187 758.2709,379.9334 763.7512,376.8635 766.5824,374.3951 767.2212,373.2332 767.287,372.1389 766.7383,371.1269 765.8985,370.4308 762.885,369.1423 757.658,367.9352 750.7595,367.0085 732.2599,365.9969 705.752,365.919 679.47,366.8493 647.006,369.058 619.8363,371.7197 595.0746,375.047 573.9997,378.6473 555.4384,382.5591 539.1253,386.815 524.4916,391.5795 511.2123,396.9557 499.7087,402.829 490.3367,408.9836 486.0904,412.4178 482.4619,415.852 478.2927,420.7171 474.9928,425.8684 472.6722,431.0787 471.2138,436.5697 470.7045,442.2111 471.1319,447.9354 472.421,453.545 474.6093,458.9348 478.2107,465.022 482.1548,470.0594 487.253,474.9346 492.315,478.6201 499.375,482.125 504.125,483.6094 510.146,484.343 516.25,483.875 519.7679,482.8652 524.0254,480.9258 527.2957,478.9214 531.2826,475.7696 538.1819,468.5805 545.5,459.5362 552.2392,451.9883 556.7554,447.7115 562.6713,443.0324 570.9667,437.9061 577.875,434.25 586.7198,430.129 597.8444,425.4637 614.6017,419.2494 636.3965,411.9941 664.3881,403.405 687.1565,396.9333 736.7671,383.675 823.8335,362.1539 841.9817,357.3021 850.0324,354.7566 855.678,352.5024 858.6854,350.5499 859.1963,349.7236 859.1228,348.9407 858.2136,348.064 856.7303,347.3901 851.637,346.2125 843.5197,345.2812 831.5481,344.4952 797.3553,343.5574 753.1191,343.6058 705.7798,344.5163 661.4131,346.1906 620.106,348.622 580.5634,351.8857 551.285,355.0505 524.7212,358.6698 501.0738,362.7169 479.9105,367.2712 460.3138,372.5007 442.7229,378.3337 427.2561,384.7718 420.5972,388.089 414.2788,391.6618 405.6302,397.4943 398.3982,403.5877 392.3191,410.1201 387.2543,417.375 383.5046,425.0217 381.0143,433.0107 379.7516,441.1121 379.6877,449.9555 380.6216,457.7887 382.5367,466.4199 385.1531,474.9257 388.6935,483.7559 393.4875,493.5391 399.8894,504.9457 405.9171,514.4672 418.27,532.844 422.1324,539.4421 423.7051,542.7031 424.4775,545.2069 424.7568,547.7184 424.4372,549.9551 423.5595,551.968 422.1757,553.9687 417.536,558.1515 385.2964,578.8308 377.9925,583.9845 370.5606,589.7157 358.3503,600.3932 352.9878,605.8152 347.8715,611.5491 343.1242,617.6602 339.0109,623.9992 335.5271,630.6103 333.05,636.8231 331.4494,642.9864 330.7658,648.7642 330.9297,653.8086 332.0247,659.0045 333.508,662.8614 335.5,666.5 337.6368,669.3859 340.201,672.0179 343.4749,674.6267 347.1797,676.9427 351.4698,679.0568 355.5486,680.5679 359.9044,681.7378 364.8694,682.6269 370.0198,683.1296 375.4476,683.2426 385.574,682.267 396.5222,679.7012 406.6262,676.0005 416.4537,671.0049 425.2927,665.0651 433.726,657.79 441.2548,649.523 447.5536,640.6657 452.25,632.0 456.4039,621.4302 458.3489,614.4287 459.6293,607.4155 460.2171,601.015 460.128,594.622 459.3833,588.081 458.0257,582.6689 455.9521,577.222 453.3938,573.1568 450.4859,569.9974 447.125,567.5 442.4764,565.19 438.29,564.0615 432.4543,563.5206 427.2859,563.7176 420.4011,564.8595 413.2522,566.7348 404.805,569.716 395.7662,573.6962 386.0992,578.6911 376.9915,584.1163 368.3586,590.012 360.2608,596.3024 352.6807,602.9944 345.9852,609.7616 340.0637,616.6773 335.1938,623.3579 331.3117,629.9226 328.2566,636.6584 326.2399,643.0029 325.1484,649.4369 325.0978,655.7276 326.0743,661.5792 327.4721,665.4472 329.4283,669.0891 332.1362,672.8041 335.375,676.25 338.6377,678.9665 342.3425,681.3579 346.4379,683.4187 350.8726,685.1431 356.0,686.625 360.9451,687.595 366.1186,688.1791 371.8525,688.389 377.7175,688.1822 383.9907,687.5241 389.564,686.5479 395.4938,685.1028 406.3171,681.3847 416.6394,676.3753 426.6978,669.8632 435.6587,662.4323 443.9009,653.6762 450.9312,644.1729 456.3592,634.6144 460.7717,624.0391 463.196,616.0485 464.8497,608.2587 465.733,600.2474 465.8722,592.8652 465.1437,585.7724 463.6709,578.8836 461.4988,573.225 458.812,568.4428 455.63,564.699 452.0401,561.8527 447.9016,559.8167 442.9354,558.3763 437.6164,557.8077 431.7216,557.9783 424.9758,558.9405 417.8862,560.6215 408.4863,563.7284 398.6369,567.8271 388.1931,573.0537 377.7983,579.0176 368.0575,585.4416 358.3324,592.6669 349.9649,599.7164 342.4553,606.9812 335.8397,614.4276 330.0732,622.0748 325.4893,629.4833 322.0126,636.6947 319.5204,644.0124 318.2198,650.934 318.0634,657.7026 319.0209,663.8818 320.3744,668.0734 322.3081,672.0536 324.7969,675.7969 327.8106,679.2851 331.3194,682.5004 335.2515,685.3724 339.6384,687.8221 344.4684,689.8831 349.6587,691.561 355.5257,692.9396 361.6025,693.8782 367.4791,694.3056 373.5215,694.3031 380.0391,693.8416 386.5689,692.9199 392.9322,691.574 399.1487,689.8309 405.2839,687.6992 411.2623,685.2139 417.0086,682.4096 422.5957,679.2337 427.7943,675.8431 437.6734,668.0949 446.4119,659.3945 450.4537,654.5694 454.3286,649.3222 460.6276,638.91 463.406,633.1585 465.7628,627.4209 468.6307,618.7171 470.7216,609.9294 471.9471,601.7013 472.3579,593.4552 472.0562,585.0462 470.8744,577.6135 469.0223,570.6003 466.3472,564.6677 463.3509,560.2176 459.2594,556.2811 455.4077,553.7618 450.5026,551.9463 445.059,550.9734 437.996,550.9012 431.6033,551.5655 424.291,553.1425 414.0623,556.3294 401.7292,561.2646 390.4,566.7009 378.7115,573.2092 367.2504,580.4858 356.538,588.1842 346.8382,596.1253 337.667,604.7054 329.9377,613.0456 323.4926,621.1774 318.4737,628.962 314.4606,636.971 311.5211,645.0797 309.9117,652.8024 309.6219,660.3415 310.6053,667.2974 312.0121,671.8457 314.0651,676.1682 316.7292,680.2524 320.2336,684.3544 324.033,687.8601 328.4737,691.1226 333.1598,693.7975 338.6472,696.2255 344.5714,698.2145 350.8631,699.7646 356.9916,700.7999 363.6089,701.3729 370.4023,701.4416 377.3034,701.0375 384.6291,700.133 391.8732,698.7786 398.2078,697.1693 404.8147,695.0537 411.2602,692.5537 417.4847,689.7086 423.4292,686.5582 429.0953,683.1051 434.8045,679.1284 440.1684,674.8823 445.1629,670.415 450.0077,665.5123 454.6832,660.1522 458.9551,654.618 462.576,649.3075 465.9556,643.645 469.053,637.5879 471.7582,631.4265 474.9426,622.5313 477.3959,613.211 479.199,603.2048 480.0154,593.8278 480.0122,583.3986 479.1852,574.983 477.2384,566.0532 474.4074,558.6111 471.3739,553.3516 467.3109,548.8366 463.6793,546.1114 458.4649,543.872 453.0,542.625 446.4681,542.2734 439.2257,542.8882 431.3462,544.3963 419.4531,547.8809 407.2336,552.5346 392.9048,559.1183 379.8778,566.1078 366.3518,574.4232 353.4758,583.4146 341.6871,592.7284 331.5065,601.9787 322.6694,611.287 315.2068,620.4666 309.1754,629.4949 304.4721,638.558 301.2077,647.5763 299.465,656.2235 299.1356,660.5184 299.192,664.6966 299.6527,668.8259 300.4255,672.5008 302.077,677.498 304.3975,682.2966 307.3919,686.8673 310.8497,690.9117 315.1065,694.7778 319.9636,698.2634 325.3604,701.3544 331.2363,704.037 337.477,706.2738 344.1387,708.0332 351.1445,709.2983 358.4168,710.0735 366.2742,710.3654 374.25,710.125 381.4077,709.4286 388.9626,708.1868 396.0886,706.559 403.46,704.4118 410.6208,701.8586 417.6347,698.8737 424.2814,695.5635 430.986,691.7145 437.3503,687.5374 443.3329,683.0788 448.9268,678.3545 454.4281,673.093 459.4777,667.6349 464.0627,662.0314 468.1705,656.3336 471.8688,650.4579 475.5039,643.846 478.6549,637.2489 482.6684,626.98 485.8209,616.1796 488.0787,605.3026 489.3185,594.4968 489.6927,582.4288 488.9857,570.9271 487.4749,561.3604 484.8012,552.0726 481.6777,545.3281 478.5718,540.562 473.9368,536.2691 469.375,533.625 463.7539,531.8759 457.5186,531.3382 449.2596,531.7616 440.3648,533.3202 427.4632,536.9246 410.99,543.0976 394.6875,550.5312 378.3228,559.1878 362.6241,568.5739 348.0596,578.4974 334.0046,589.3121 321.8169,600.0823 311.6264,610.5747 303.1982,620.8486 296.375,631.0 291.0739,641.1896 289.0654,646.1783 287.4491,651.1954 286.2498,656.2287 285.4922,661.2657 285.2058,666.0301 285.3616,670.5699 285.9496,675.0247 286.97,679.3831 289.0031,685.0247 291.6071,690.1157 295.1293,695.3091 299.0241,699.7499 303.8141,704.034 309.2656,707.9219 315.3125,711.3941 321.8887,714.4313 329.1287,717.0774 336.0454,718.976 343.6738,720.4477 351.5966,721.3989 360.1231,721.8525 368.7889,721.7668 377.3928,721.1665 386.0783,720.0119 394.3274,718.3998 402.4577,716.3165 410.4087,713.787 418.1201,710.836 425.3955,707.555 432.7359,703.7027 439.7235,699.4891 446.3308,694.9652 452.8149,689.9486 458.8199,684.706 464.3236,679.283 469.5972,673.3986 474.6058,667.0587 479.0907,660.6184 483.4232,653.5279 487.2324,646.353 492.2306,634.9272 496.2958,622.7752 499.2774,610.2898 501.2427,597.2113 502.2171,582.9863 502.1314,570.6798 500.6754,555.4611 498.3281,543.3594 495.7718,535.1435 492.671,528.1231 488.5624,522.662 484.1732,519.257 479.5531,517.0977 473.1289,515.9627 464.839,516.0739 456.2946,517.2341 448.2336,519.0905 439.8863,521.4555 421.6776,527.9282 399.9834,537.342 379.5339,547.6342 359.6893,558.9839 340.7467,571.2805 324.0176,583.6309 308.9325,596.4567 296.6712,608.4905 286.3428,620.5078 281.9219,626.514 278.0122,632.4952 274.5055,638.6405 271.6339,644.528 269.2246,650.4793 267.3116,656.4775 265.9287,662.5056 265.135,668.2701 264.8992,673.9628 265.1954,679.2119 266.0758,684.7458 267.4317,689.8072 269.947,696.1371 273.1347,701.8993 277.0773,707.352 281.9969,712.6589 287.4279,717.3447 293.8606,721.8501 300.9871,725.9022 308.7523,729.4716 316.8819,732.4574 325.1847,734.8031 333.8733,736.5969 343.2504,737.8874 352.874,738.597 363.0497,738.7285 373.2981,738.2517 382.9271,737.2272 392.0533,735.6998 401.4196,733.576 410.5847,730.9475 419.8394,727.7206 428.411,724.1843 436.9861,720.065 445.3572,715.4189 453.2833,710.3883 460.7296,705.0252 467.6615,699.3817 474.0442,693.5099 479.9783,687.3191 485.8962,680.3158 491.2246,673.1526 496.1668,665.587 500.6557,657.6964 505.6365,647.3004 509.9472,636.2831 513.4983,624.8338 516.2028,613.2557 518.3062,600.6565 519.5686,588.5059 520.1774,572.7834 520.0889,559.539 519.1095,542.8194 517.3153,524.9859 514.4943,506.2868 512.7846,499.6332 511.3123,496.252 509.6797,493.5046 508.375,492.125 505.977,490.3655 503.75,489.375 500.5938,488.5781 494.1872,488.2964 486.875,489.0 475.4739,491.2018 460.4335,495.4343 446.7095,499.9437 429.4312,506.4403 412.71,513.2951 395.8823,520.8333 378.8657,529.0458 363.3094,537.1075 348.2382,545.4696 333.9281,553.9665 320.5517,562.5043 307.6515,571.385 295.542,580.3968 284.3733,589.4124 274.1101,598.4796 265.3705,606.9815 257.6024,615.3396 250.5898,623.7601 244.292,632.328 238.8995,640.8019 234.4211,649.1313 230.7171,657.6145 227.964,665.8809 226.1594,673.7507 225.2105,681.6214 225.152,689.4499 226.0079,697.1949 227.8023,704.8147 230.4058,711.9173 233.903,718.8328 238.266,725.4562 242.0207,730.0936 246.257,734.5597 250.9538,738.839 256.3877,743.1364 262.2865,747.1903 268.281,750.7897 275.0138,754.3174 281.7539,757.3856 295.8017,762.5346 311.1333,766.5384 327.6853,769.3269 344.8328,770.7885 362.2876,770.9177 379.375,769.75 396.1883,767.2918 412.9125,763.5087 429.6975,758.3128 445.5795,751.9848 460.4824,744.5998 474.4509,736.113 485.603,728.0228 496.295,718.9308 506.09,709.1575 514.7673,698.9677 522.8734,687.6822 529.9263,675.941 536.0658,663.5499 541.1987,650.6962 545.2885,637.7861 548.5067,624.8736 550.9167,611.8069 552.5455,598.338 553.5668,584.7886 554.0735,570.8572 553.8262,520.3265 554.3268,510.4463 555.338,501.5324 557.0853,492.8859 559.7152,485.3231 563.5021,477.8626 568.3109,471.0073 572.322,466.4186 576.5759,462.2685 581.7266,457.9238 587.4158,453.6769 600.5676,445.2858 617.9058,436.1247 637.8068,426.8573 662.8779,416.5809 693.2315,404.9722 735.3295,389.5813 749.2925,384.0248 757.2256,380.3903 762.5564,377.3634 765.5472,374.8021 766.2247,373.6162 766.3242,372.7201 765.4721,371.274 763.2071,369.943 759.464,368.7879 754.6612,367.9035 740.1814,366.6556 720.3134,366.1337 697.9624,366.4553 669.2288,367.7913 643.6296,369.621 620.125,372.0 599.4649,374.7111 580.3477,377.7899 563.3231,381.1435 547.9672,384.8443 532.8895,389.241 519.5618,393.9587 507.9977,399.0108 498.2756,404.361 490.962,409.3615 485.0035,414.4197 480.0879,419.7715 476.211,425.5176 473.6514,431.1568 472.1157,437.3607 471.7943,443.6488 472.5997,449.716 475.0304,456.8833 479.0086,464.2087 483.6072,469.9676 489.4906,475.3584 496.2,479.6002 502.75,482.2969 509.4235,483.6147 516.4139,483.2762 519.8701,482.4579 524.0335,480.9132 527.4265,479.0935 530.6509,476.9113 536.5241,471.9392 553.3955,455.3364 560.3125,449.7303 567.125,445.125 574.137,440.9841 583.6036,436.0087 607.6796,425.6749 620.951,420.6011 636.1667,415.3117 661.0898,407.2142 681.6888,400.9628 733.9597,386.2528 805.9686,367.3853 824.9531,361.9844 834.2813,358.8709 840.3781,356.327 843.4126,354.3149 844.0054,353.3806 843.9219,352.5 843.1168,351.6775 841.5451,350.9175 836.64,349.7212 828.7018,348.7249 817.6174,347.8866 787.3323,346.8682 748.7757,346.8594 705.4321,347.7402 663.5665,349.434 623.5216,351.9499 585.786,355.2322 557.9334,358.3974 532.9947,361.9631 510.7999,365.9396 490.0901,370.5611 471.192,375.7773 454.2516,381.5869 439.6958,387.8504 427.5105,394.5396 419.1526,400.3278 412.2491,406.2754 406.4598,412.6258 401.8328,419.354 398.3871,426.4243 396.0647,433.9708 394.932,441.6639 394.92,449.9334 395.8589,457.5744 397.7873,466.0385 400.5168,474.2885 404.2381,482.975 409.1731,492.5314 414.2831,500.9405 421.9138,512.1316 430.4159,523.4953 435.2731,530.7315 436.3982,532.9845 437.27,535.796 437.3719,537.6101 437.0,539.0 436.1351,540.5208 434.8857,541.9089 430.213,545.2935 396.3432,563.4716 385.0959,570.1905 374.125,577.375 365.3944,583.6244 357.2658,590.0274 349.3603,596.9144 342.2576,603.7926 335.3141,611.4144 329.0485,619.4134 324.0238,627.1279 320.1277,634.7205 317.3182,642.3055 315.7105,649.4402 315.2224,656.4449 315.9481,663.3322 317.1322,667.6183 319.0452,672.0587 321.3697,675.9412 324.4671,679.8805 327.6382,683.0494 331.2695,685.8828 335.6843,688.5787 340.5465,690.906 346.1648,692.9904 351.8859,694.5927 357.259,695.6246 363.242,696.2954 369.7984,696.5388 376.4689,696.3171 383.1169,695.6539 389.4395,694.5727 395.7468,693.0515 401.9759,691.1374 414.2875,686.1597 424.8176,680.3716 435.0087,673.0631 444.539,664.4173 449.0471,659.522 453.1483,654.4809 459.9115,644.4303 463.1849,638.4914 466.0309,632.5517 469.3627,623.9958 471.9033,615.0407 473.758,605.6849 474.6653,597.0727 474.7671,587.8845 473.9016,579.3395 472.4479,571.8577 470.1061,565.4167 467.2726,560.0613 463.6317,555.6397 459.7302,552.4669 454.7356,549.9635 449.8232,548.6233 443.2525,548.0799 437.2318,548.3945 429.7748,549.6429 420.1731,552.2296 407.3109,556.8582 394.1927,562.8493 382.2987,569.0708 370.2883,576.3685 359.1822,584.0104 348.189,592.568 338.5411,601.1023 330.4713,609.3273 323.2467,617.9359 317.1831,626.626 312.456,635.0954 309.1445,643.181 307.0843,651.2862 306.3604,658.947 306.9595,666.3628 308.1363,671.06 310.0815,675.9208 312.5012,680.2294 315.75,684.625 319.1033,688.1487 323.2622,691.579 327.9583,694.6379 333.1422,697.3105 338.7644,699.582 344.8931,701.4571 350.9897,702.776 357.7389,703.7092 364.7103,704.1708 372.2198,704.152 379.251,703.6705 386.3771,702.6862 393.0869,701.3059 400.0732,699.4096 406.9069,697.0966 413.533,694.4017 419.8854,691.3579 426.012,687.9574 431.8602,684.2576 437.6934,680.082 443.1372,675.6861 448.0155,671.2392 452.671,666.4174 456.9454,661.4212 461.2718,655.7162 465.1224,649.9771 468.547,644.177 471.7451,637.9193 475.648,628.643 478.7469,619.0025 481.0881,608.8519 482.4998,598.7503 483.1199,588.4018 482.838,579.6962 481.4212,569.0027 479.1663,560.5813 476.4155,554.0844 472.8399,548.5562 469.4146,545.1003 464.0203,541.6124 459.0105,539.9145 452.3495,538.9255 445.1227,539.09 437.8632,540.1183 424.7237,543.6256 410.8516,548.6758 397.3878,554.5209 383.1341,561.9079 369.353,570.0229 354.4739,579.9837 342.4666,589.0903 331.4396,598.6954 321.7937,608.4055 313.3891,618.3171 306.6217,627.907 301.3051,637.4636 297.5025,647.0187 295.4725,655.8365 295.0171,660.3977 294.969,664.538 295.3242,668.9961 296.0277,673.0163 297.557,678.2923 299.7632,683.2326 302.661,687.9153 306.4792,692.5963 311.0113,696.9216 315.875,700.625 321.2067,703.8546 327.0907,706.6555 333.4486,709.0196 340.5875,711.0318 348.0752,712.5384 355.7452,713.5086 363.1478,713.873 371.083,713.706 379.097,713.011 387.4803,711.7553 395.378,710.09 402.4565,708.1684 409.7731,705.7157 417.2439,702.709 424.435,699.3055 431.2825,695.5507 437.6206,691.5597 444.0273,686.9453 449.7417,682.278 455.3345,677.1279 460.4627,671.7976 465.3807,665.9906 469.9267,659.87 474.2063,653.3047 478.1419,646.3734 481.5057,639.5065 486.2179,627.5668 489.6728,615.6263 492.0586,602.9336 493.3444,589.7742 493.4515,576.7521 492.5498,565.9508 490.032,553.277 488.3128,547.8416 486.4544,543.1796 482.8045,536.9975 478.9633,532.7142 473.632,529.334 470.7683,528.2219 467.6142,527.4354 460.8356,526.7333 452.4688,527.2656 443.5474,528.9302 432.1319,531.9937 414.7804,538.3487 396.5593,546.5393 378.0318,556.1183 360.3932,566.6289 343.5,578.125 328.6857,589.6175 315.5693,601.4302 309.5605,607.5494 304.1132,613.6374 299.2805,619.6127 295.05,625.4451 291.2084,631.4252 287.9609,637.223 285.2175,642.9697 282.9485,648.8055 281.3113,654.2838 280.1712,659.7634 279.5502,665.2388 279.4586,670.3404 279.8682,675.4656 280.8503,680.5454 282.405,685.4837 284.5227,690.2614 287.1939,694.8592 290.1615,698.9508 296.1161,705.3345 303.1844,710.9182 311.4088,715.7451 320.9966,719.9035 331.0678,723.0345 341.8603,725.2482 353.2971,726.4557 365.4806,726.6629 377.4223,725.9007 389.6589,724.1616 401.301,721.511 412.625,717.9531 423.8364,713.4281 434.4142,708.1388 444.545,701.9698 454.0042,695.0536 462.3047,687.8919 469.756,680.3917 476.7604,672.1409 482.9591,663.5319 488.4548,654.486 493.1749,645.1506 497.3861,634.9183 500.8648,624.3087 503.7259,612.7308 505.802,600.5661 507.0034,588.6024 507.3984,575.9263 507.1187,563.8507 505.7317,549.5966 503.6618,538.0297 501.625,530.25"/>
  </g>
</svg>
