<?xml version="1.0" encoding="utf-8" ?>
<svg xmlns="http://www.w3.org/2000/svg" xmlns:cc="http://creativecommons.org/ns" xmlns:dc="http://purl.org/dc/elements/1.1/" xmlns:ev="http://www.w3.org/2001/xml-events" xmlns:inkscape="http://www.inkscape.org/namespaces/inkscape" xmlns:rdf="http://www.w3.org/1999/02/22-rdf-syntax-ns" xmlns:sodipodi="http://sodipodi.sourceforge.net/DTD/sodipodi-0.dtd" xmlns:xlink="http://www.w3.org/1999/xlink" baseProfile="tiny" height="27.09333333cm" version="1.2" viewBox="0 0 1024.0 1024.0" width="27.09333333cm">
  <metadata>
    <rdf:RDF>
      <cc:Work>
        <dc:format>image/svg+xml</dc:format>
        <dc:source>vpype read './original_svgs/Strange Attractors #535.svg' linemerge linesimplify write './Strange Attractors #535.svg'
</dc:source>
        <dc:date>2024-08-05T01:36:08.666572</dc:date>
      </cc:Work>
    </rdf:RDF>
  </metadata>
  <defs/>
  <g fill="none" id="layer1" inkscape:groupmode="layer" inkscape:label="1" stroke="black" style="display:inline">
    <polyline points="302.125,836.375 311.1704,840.9779 318.6643,843.9432 324.7142,845.3524 327.2314,845.4989 329.6807,845.2359 331.5328,844.633 333.268,843.5527 334.5157,842.2464 335.5815,840.4522 336.3304,838.3481 336.8466,835.6241 337.0086,829.1354 335.6547,817.6991 332.4765,802.0409 304.6437,689.5229 296.6297,654.3056 289.216,619.0584 281.9699,581.3986 275.6995,545.1507 270.7587,512.5628 266.6997,480.822 263.3871,447.8998 261.3531,417.9493 260.5957,391.2692 261.1469,368.0801 261.9076,357.5175 263.0374,347.2696 264.4416,338.1727 266.2323,329.4864 268.3529,321.6238 270.6943,314.8676 273.4469,308.6722 276.4264,303.4847 279.9533,298.7858 283.805,294.9332 287.9581,291.8904 292.3893,289.6209 297.075,288.0881 302.3514,287.2219 307.8643,287.1146 313.9731,287.7859 320.657,289.3087 327.7582,291.6048 335.3707,294.7024 343.1251,298.4331 351.312,302.9139 360.2236,308.3405 369.1068,314.2489 378.9978,321.3132 399.9771,337.4796 421.0014,355.2293 445.9411,378.1139 468.0213,399.8825 480.955,413.4218 491.8899,425.3802 500.3201,435.1124 511.6775,448.9163 527.0281,468.9435 547.1134,497.4062 553.3227,505.9611 556.9917,510.5003 562.125,515.875 565.7462,518.7501 570.0754,520.867 573.9483,521.5887 576.2226,521.4236 578.5385,520.8489 583.0482,518.6144 587.9934,514.6423 593.2617,508.9548 598.9244,501.3928 604.5,492.6665 610.5458,481.8928 616.8915,469.4122 625.3723,451.3515 633.1817,433.5067 641.4219,413.2656 651.4968,387.2325 662.1949,358.3538 672.5656,328.8553 677.3506,313.4787 678.0805,310.0344 677.9158,308.5656 677.0554,308.969 675.5119,310.8913 669.5672,320.3048 613.4261,416.0054 604.4851,431.8954 594.6016,450.3468 589.4429,460.6273 584.1991,471.9576 579.0256,484.3489 574.9734,495.8909 571.8765,507.172 569.8734,517.3751 569.2317,526.5322 569.4359,529.8711 570.0226,533.0185 570.7135,535.1409 571.8515,536.8781 573.6081,538.1341 575.4218,538.5259 577.1094,538.2188 579.3976,537.1655 583.705,533.7716 588.9083,527.8841 594.5117,519.9929 600.5461,510.0478 607.1132,497.9006 613.3429,485.2774 621.1989,468.1864 629.6585,448.7006 638.8908,425.9905 646.8571,405.3898 657.5788,376.3894 669.2742,343.6453 678.4831,316.782 682.7384,302.7965 683.5,299.375 683.5348,297.4099 682.9576,297.5724 681.843,298.8902 677.0552,306.3064 649.1153,354.0718 605.8555,426.9473 589.5764,456.7193 583.0836,469.6207 577.777,481.049 572.188,494.801 567.4913,508.7463 564.415,520.7266 562.7804,531.2796 562.3658,536.6061 562.3673,541.0649 562.7814,545.6131 563.4836,548.9151 564.7151,551.7336 566.4189,553.9373 567.9967,554.9231 570.1962,555.2884 572.1713,554.891 574.245,553.925 579.0156,550.229 584.7391,543.795 590.6282,535.6146 596.3583,526.2503 602.4117,515.1222 610.7477,498.3239 617.952,482.6977 626.9313,461.5972 635.5372,440.34 655.144,388.3318 671.1861,343.4639 682.2509,311.4179 689.135,289.971 690.3485,285.3035 690.4352,283.3189 690.0123,283.3564 689.2171,284.192 686.3418,288.6394 654.8205,343.4516 606.8165,422.6812 595.4981,441.8333 587.3519,456.3476 580.4972,469.3493 574.2794,482.0608 568.3334,495.261 562.6771,509.922 557.7896,525.891 554.7573,540.1021 553.3266,552.9727 553.1915,557.8624 553.5228,562.9541 554.3945,568.4991 555.4761,572.1021 557.0721,575.2349 558.6388,577.0052 561.0191,578.2405 563.446,578.4717 565.6766,577.9333 568.1882,576.7273 570.875,574.875 573.3775,572.6768 579.37,565.9787 585.6636,557.1032 592.5789,545.61 600.1587,531.3011 607.9256,515.3156 615.7739,497.7284 623.9568,478.3555 631.4627,459.6035 643.5022,428.0356 653.7079,400.2373 668.7792,357.4256 688.6614,299.5405 698.0582,270.8571 699.4163,266.0327 699.5816,264.1314 698.7928,264.7442 696.8004,267.9766 673.841,309.6548 653.5392,344.5665 632.4362,379.1124 596.9435,435.6119 582.9842,458.8822 575.0115,472.9458 568.2785,485.6464 561.9482,498.6297 557.2638,509.3072 553.44,519.0923 549.9362,529.1361 547.1346,538.3609 544.6535,547.9021 543.0192,555.6895 541.6481,564.4676 540.7519,572.4964 540.3081,580.4653 540.3334,588.4719 540.9909,596.0029 542.0244,602.1079 543.7195,607.5356 545.6249,611.4526 548.416,614.519 550.8724,615.859 554.3163,616.0022 556.8908,615.3119 559.3943,614.0075 562.1689,611.967 565.1781,609.2086 571.6359,601.6973 578.5348,591.6198 585.999,578.9265 593.3659,564.8158 603.1588,544.0341 612.0286,523.6776 620.9241,501.6812 630.5032,476.8921 649.9088,423.6539 680.411,334.676 711.5363,242.1715 713.846,234.4089 711.979,237.4851 697.4242,266.373 685.1743,289.4673 672.7752,311.6429 659.503,334.1395 645.9118,356.2099 632.4762,377.2812 577.6728,460.0529 561.2163,486.9762 552.862,501.9173 545.455,516.6288 539.319,530.2072 534.0227,543.863 529.4488,557.5391 525.3185,572.61 522.7423,583.9392 520.0546,599.0888 518.5806,610.4587 516.8456,628.1249 515.9389,643.7015 515.5297,661.3745 515.6355,681.2936 516.4266,699.6951 517.6164,712.4265 519.5514,723.9392 521.6266,730.93 523.1475,733.9155 524.5187,735.858 525.9917,737.1561 527.9103,738.1191 530.1562,738.3188 532.25,737.875 535.0933,736.4146 538.4155,733.785 541.9491,730.1991 545.6528,725.7149 553.2077,714.5751 562.0644,699.0766 571.0729,681.2313 580.2328,661.091 590.5044,636.5704 600.8739,609.934 622.0087,551.3508 642.6638,489.5636 662.6219,426.866 712.6741,265.7907 728.8989,215.4956 738.1226,188.2415 745.6278,167.2363 751.5113,152.3665 753.4356,148.2651 754.4464,146.9225 753.9783,150.0789 751.5764,157.8945 743.1744,180.4613 733.125,204.25 721.5394,229.1937 709.2681,253.647 696.2019,277.9243 683.0807,300.6608 669.0473,323.4155 656.0946,343.2492 642.3295,363.2877 628.1382,382.9638 613.5744,402.1941 600.3257,418.9531 585.7775,436.7154 527.5267,505.6619 516.654,519.3475 504.4975,535.6888 498.291,544.6646 492.8053,553.2467 481.4985,573.0638 473.2622,589.5185 456.2344,626.4375 452.6416,633.4028 448.6481,640.2593 443.3618,648.0645 438.0158,654.289 432.3877,659.0325 429.7738,660.6395 426.9385,661.9036 423.2541,662.8883 419.0,663.25 415.2513,662.8813 411.3992,661.7753 407.0238,659.7278 402.9206,657.1338 399.23,654.1445 395.229,650.192 391.1795,645.4638 387.2928,640.247 383.5035,634.4386 379.5401,627.597 371.7074,611.7932 364.844,594.6367 358.0939,573.9631 353.0343,554.4374 348.3638,530.8202 345.9156,511.8497 345.2517,502.4424 344.9947,493.5483 345.145,485.5472 345.7175,478.3643 346.7478,471.4489 348.2607,465.0058 350.1373,459.5971 352.2952,455.3812 355.8548,450.8562 359.9787,447.7986 362.4211,446.7641 364.837,446.158 367.3509,445.8895 370.3331,445.9887 376.1959,447.3139 382.6514,450.1989 389.5777,454.5558 396.1452,459.8684 403.909,467.532 411.0162,475.672 418.2155,485.297 425.1421,495.7444 430.4296,504.9641 436.7068,517.6102 440.8273,527.3082 444.9812,538.9026 448.1174,549.0078 450.5201,558.5409 452.6733,569.0129 454.0841,578.6308 455.1359,589.8679 455.5139,599.2539 455.162,612.4025 454.2794,622.038 452.5651,632.3483 450.6554,640.3528 447.507,649.7025 444.1418,657.1683 440.0653,663.8138 435.7893,668.907 431.0117,672.8006 426.2248,675.144 422.1989,676.1035 418.0127,676.2105 413.588,675.3889 409.3038,673.7641 405.1653,671.4488 400.9288,668.2719 396.5911,664.2147 391.9267,659.0119 387.741,653.5589 383.3211,646.933 378.8776,639.3963 374.4744,631.0764 366.9618,614.4923 359.5924,594.8496 352.9654,573.3894 346.9697,548.7707 342.8317,526.8095 340.303,505.5776 339.6248,495.2181 339.3847,485.9142 339.5876,477.0966 340.2348,468.9585 341.3187,461.5913 342.75,455.375 344.6938,449.7076 347.0771,444.908 348.9565,442.1057 351.0033,439.7379 353.1996,437.8122 355.6354,436.2788 358.279,435.167 361.0724,434.4853 363.9971,434.2245 367.0348,434.3753 370.1669,434.9285 373.6869,435.986 381.3427,439.4816 389.1715,444.4952 396.8236,450.7746 404.8502,458.5752 412.2836,466.9811 421.1626,478.6038 428.4342,489.4087 435.6485,502.0799 441.9584,514.5969 447.1972,526.8338 451.6888,539.0503 454.9092,549.9136 458.4125,564.5361 460.125,574.125 461.779,587.4989 462.488,598.2558 462.6079,612.189 462.0913,621.8947 460.7387,633.7988 458.8628,643.7883 455.9033,654.9038 452.7251,663.7612 448.8911,671.7798 444.4351,678.8127 439.8149,684.135 434.5488,688.3395 429.1439,691.0317 424.7719,692.0703 420.2455,692.2046 415.4852,691.4077 410.89,689.7239 406.0395,687.027 401.6106,683.7704 397.0256,679.5216 392.0686,673.9975 386.9505,667.3926 382.6713,661.142 378.1549,653.6145 373.6621,645.2038 369.0049,635.5587 364.3477,624.9748 356.2026,603.3248 348.0937,577.1886 341.8222,552.1351 339.0392,538.6551 336.6742,525.2668 334.8529,512.7484 333.535,500.7293 332.6993,489.1756 332.3457,478.2275 332.4743,468.0252 333.0681,459.121 334.186,450.789 335.7959,443.3944 337.8767,436.9932 340.4459,431.5733 342.601,428.2856 344.9849,425.5216 347.5781,423.2812 350.3609,421.5647 352.9779,420.4784 356.0653,419.7511 359.4525,419.5226 363.2423,419.7846 366.8074,420.4624 370.8349,421.6806 378.7331,425.3385 388.2248,431.5378 397.7087,439.2838 407.8558,449.4442 418.3459,461.442 425.7239,471.194 435.1157,485.3461 442.1281,497.468 450.3648,514.0011 455.3486,525.6897 460.4474,540.1474 464.243,553.0111 467.5258,567.3095 469.7531,580.2991 471.3434,594.4345 471.9869,606.386 471.9265,623.2929 471.1113,634.9888 469.476,647.3922 466.97,660.0904 463.9645,670.9044 459.7315,682.0293 454.9097,691.815 449.8579,699.581 444.387,705.7149 438.6197,710.2167 435.3435,712.0034 432.2311,713.2568 427.309,714.3506 422.4618,714.3709 416.9051,713.2801 411.515,711.172 406.1454,707.963 400.8628,703.8014 395.1694,698.2827 390.1752,692.5063 384.8663,685.3424 379.6864,677.3642 374.2239,667.9069 369.3492,658.4939 364.5569,648.195 359.677,636.6365 354.8757,624.1956 350.07,610.6466 345.5123,596.4134 341.2412,581.5431 337.1886,565.8375 333.4051,549.4623 330.3841,534.7301 327.7931,519.9956 325.6856,505.511 324.1306,491.8232 323.0978,478.7172 322.6318,466.7395 322.7098,455.4298 323.3277,445.0035 324.4738,435.5544 326.1364,427.1764 328.2066,420.2605 330.9751,413.9416 333.1759,410.2636 335.8258,406.8731 338.7101,404.1341 341.8025,402.0492 345.1294,400.5878 348.8731,399.6684 352.8293,399.3551 356.9598,399.6226 361.2266,400.4453 365.9918,401.9463 370.7863,404.0051 375.8126,406.6147 381.2179,409.8846 386.6437,413.6259 397.2338,422.231 408.9369,433.4697 420.0369,445.7694 431.9647,460.9407 442.2133,475.8008 451.6864,491.7151 459.2986,506.4482 467.0969,524.4237 472.8672,540.5087 477.4635,556.4067 480.9049,571.7566 483.5803,587.5879 485.163,603.2042 485.875,619.0 485.6777,636.7426 484.3703,654.7162 482.3809,669.098 479.4571,683.536 475.483,697.5331 470.4524,711.1322 465.1813,722.0227 458.9412,731.8012 455.894,735.6399 452.5075,739.2435 449.0331,742.322 445.3345,744.9744 441.3586,747.1874 437.5539,748.7624 431.9227,750.0733 426.2724,750.2049 420.114,749.1515 414.3873,747.034 408.4081,743.6171 402.1013,738.781 396.0927,733.0978 390.0677,726.2181 384.1113,718.2506 378.0202,708.9373 371.898,698.4127 366.3022,687.6512 360.5272,675.3317 354.7579,661.8092 349.0282,647.1658 343.5145,631.8732 338.1793,615.5252 333.0009,597.9444 328.0311,579.2996 323.3261,559.7865 319.3707,541.6024 315.9707,523.7901 313.0766,506.1401 310.6768,488.5051 308.9394,472.2156 307.8067,457.0493 307.3287,443.3218 307.4593,430.5235 308.2188,418.3921 309.5987,407.4658 311.5848,397.8537 314.0908,389.8336 317.7029,382.0595 319.7699,378.791 322.2297,375.6705 324.625,373.2646 327.4233,371.0909 330.381,369.4115 333.2579,368.293 336.5237,367.5088 340.2946,367.1139 343.8638,367.1616 347.9215,367.6405 356.3491,369.8493 365.5422,373.8393 376.3865,380.1319 387.6359,388.0748 398.7175,397.1965 410.715,408.3785 422.0852,420.1414 432.7732,432.4008 445.3965,448.1983 455.3823,462.105 468.8979,483.8085 474.302,493.5221 479.2973,503.3903 484.1843,513.9242 488.3284,523.8176 492.7134,535.6281 496.3736,546.5384 499.6604,557.9135 503.5556,573.5324 508.8319,601.8408 511.0179,618.5687 513.1063,638.6939 516.8338,680.9795 518.527,694.376 520.2895,704.2187 522.923,713.549 524.9549,717.8917 526.6321,720.2046 528.9503,722.0742 531.0625,722.7031 534.1508,722.4427 536.8887,721.3688 540.0146,719.2908 543.0918,716.5111 546.4329,712.7384 550.4628,707.5165 557.6461,696.598 565.8884,681.8515 574.7284,664.1318 583.6236,644.4241 594.4556,618.6473 604.6061,592.71 624.0312,539.0928 643.6934,480.5126 666.3688,409.9898 711.5041,266.2123 726.0068,221.622 741.7822,176.1574 747.1985,162.2854 748.9718,158.4011 749.7393,157.3805 749.0378,160.6748 746.5392,168.2655 738.7955,188.4722 730.0331,208.894 719.5084,231.3802 708.2859,253.7991 696.5278,275.8627 684.9773,296.2234 671.9293,317.8605 659.093,338.0381 645.9993,357.6149 633.0,376.125 618.0886,396.4059 592.0885,429.829 536.7931,497.499 523.2023,515.1729 513.0781,529.3273 506.0389,540.0314 498.7263,551.9229 493.3573,561.4739 487.6173,572.6167 479.059,591.1681 461.146,634.0923 456.5328,643.7031 452.2122,651.7366 446.3827,660.7042 440.7293,667.3561 437.6467,670.1929 434.5225,672.5353 431.2888,674.4103 428.2512,675.6981 424.0513,676.7767 419.7162,676.98 415.1698,676.262 410.8292,674.7726 406.36,672.3906 402.0664,669.3141 397.3196,665.0881 393.0104,660.5196 388.7051,655.0799 384.383,648.7707 379.8148,641.2579 375.4208,633.2463 367.5533,616.3227 360.0178,596.7387 356.4586,585.9756 352.9417,574.0125 346.5406,548.1165 342.3942,525.8619 339.8006,504.3816 339.1347,494.3615 338.938,485.0702 339.2013,475.9792 339.9199,467.6367 341.0109,460.462 342.4851,454.2327 344.4771,448.5903 346.884,443.815 348.824,440.9557 350.9232,438.5717 353.162,436.674 355.4115,435.2977 358.1677,434.1627 361.0904,433.4856 364.147,433.2564 367.3047,433.4654 370.7578,434.1619 374.2983,435.3027 381.5953,438.7788 388.994,443.6877 397.6749,450.9155 405.3992,458.376 412.4707,466.3771 421.0451,477.5174 428.2446,488.24 435.5301,500.7699 441.7328,512.8636 447.2501,525.4983 451.8509,537.9635 455.5722,550.4236 458.5641,562.6808 460.7078,574.2297 462.224,585.9558 462.9937,597.6529 463.1785,610.6944 462.5368,622.8131 461.3694,633.7737 459.2275,645.074 456.5352,655.4368 453.2691,664.5591 449.561,672.3717 444.8813,679.8075 440.0337,685.5414 435.1111,689.621 429.6846,692.294 424.8838,693.4481 420.4226,693.593 415.7813,692.7494 410.8692,690.9238 406.0887,688.3382 401.4757,684.9282 396.7542,680.514 391.8856,675.0571 387.0492,668.7809 382.1899,661.541 377.491,653.6327 372.7884,644.7959 368.2526,635.3427 363.8762,625.2527 355.4578,602.8768 351.2666,590.0257 347.6097,577.5496 344.1484,564.3216 341.0258,550.8651 336.0453,524.5602 334.2639,511.9296 332.9502,499.6415 332.1117,487.8704 331.756,476.7906 331.8912,467.1474 332.5278,457.9978 333.6558,449.6931 335.2617,442.3203 337.2963,436.0573 339.9716,430.4209 341.948,427.355 344.3587,424.4661 346.9759,422.1276 349.7797,420.3454 352.75,419.125 355.7632,418.4499 358.9341,418.2126 362.6086,418.4411 366.4053,419.164 370.286,420.357 374.2126,421.9959 378.6275,424.2931 387.9023,430.313 397.4454,438.0917 407.661,448.1181 416.9911,458.6987 426.5265,471.251 435.221,484.1842 442.988,497.6309 450.3629,512.2382 455.8162,525.0673 461.0319,539.5384 464.8399,552.5625 468.2718,567.2102 470.4712,579.8736 472.0295,593.2881 472.8338,607.713 472.8699,621.0463 471.9848,634.3942 470.4322,646.7789 467.7664,660.7095 464.8017,671.6485 460.8158,682.8024 456.1241,692.4093 450.9094,700.6528 445.3641,707.0537 442.202,709.8286 439.1527,711.987 435.9101,713.7921 432.7883,715.063 427.6698,716.1804 422.567,716.2385 417.7285,715.4202 412.6143,713.5248 406.903,710.268 401.25,706.0 396.1837,701.2458 391.0213,695.3989 385.5105,688.0957 380.1197,679.9498 375.1163,671.4487 370.189,662.052 364.9414,650.9525 359.7285,638.8207 354.7711,626.2215 350.3175,613.703 345.5972,599.0284 341.128,583.687 336.641,566.69 333.1591,551.9645 330.0247,536.7867 327.3416,521.657 325.0893,506.4113 323.4012,491.9406 322.3456,478.7466 321.8532,466.2416 321.9118,454.5482 322.5373,443.4584 323.6605,433.9208 325.2856,425.7395 327.4367,418.5805 330.2315,412.1618 332.6069,408.1979 335.2282,404.8975 338.1076,402.2439 341.2639,400.1978 344.6487,398.7535 348.5985,397.8319 352.7453,397.5788 357.0474,397.9631 361.5094,398.9633 366.6629,400.7176 371.9601,403.08 377.3462,406.0055 382.4273,409.2195 387.8288,413.1077 399.844,423.155 411.9214,435.0148 423.8757,448.7087 434.7591,462.8851 444.483,477.5877 454.0317,493.9326 462.3298,510.6836 468.9774,526.2548 474.9043,543.3023 478.9943,557.738 483.0016,576.4703 485.1578,591.0215 486.7518,607.5643 487.3486,624.8238 486.9319,639.6506 485.752,655.8782 483.4289,672.643 480.0588,688.3452 476.1478,701.6979 471.189,714.8271 465.3295,726.5582 459.5293,735.5111 456.3631,739.4272 452.9803,742.9753 449.3361,746.1705 445.6767,748.82 442.0826,750.8366 438.2823,752.3732 431.9362,753.7595 426.0487,753.8459 420.0486,752.6644 414.0594,750.2869 407.6475,746.5189 401.5433,741.6943 395.1845,735.4067 388.816,727.9008 382.7207,719.6351 376.651,710.1438 370.5072,699.2451 364.4733,687.321 357.9974,673.2255 352.5652,660.2241 346.9648,645.4414 341.5025,629.6386 335.6122,610.9903 329.9623,591.409 325.2425,573.2976 320.9084,554.7516 316.7889,534.8922 313.2758,515.4845 310.3973,496.8073 308.2177,479.0074 306.748,462.321 305.9579,446.8928 305.8204,432.504 306.3498,419.3646 307.5226,407.9829 309.428,397.4777 311.995,388.3868 315.1872,380.7467 319.1309,374.3793 321.2416,371.8995 323.8256,369.4978 326.587,367.5339 329.5103,365.9955 332.5804,364.87 335.7819,364.145 339.0996,363.8082 342.518,363.8471 349.8989,365.0722 358.7246,368.0284 367.8776,372.3874 377.8694,378.4134 388.0876,385.7924 399.1492,394.9143 410.1567,405.0824 421.4913,416.6999 432.804,429.3829 442.7971,441.6404 452.3942,454.572 465.4426,474.1125 476.7665,493.8914 485.6915,512.1432 490.4724,523.3826 494.5481,533.9263 498.5961,545.9506 502.5127,559.2745 505.7932,572.3819 508.7072,585.7756 512.809,610.4075 518.1794,652.0632 520.3,666.4437 523.3196,681.4503 525.2704,687.5493 526.5878,690.6574 528.875,694.5 530.8128,696.7153 533.2984,698.3535 535.3154,698.8825 538.0453,698.5824 540.9095,697.5145 543.7997,695.7296 547.035,692.9949 550.3575,689.4533 554.0781,684.8281 561.6861,673.5871 570.0926,658.9769 578.3417,642.6761 587.5827,622.4646 597.6899,598.5683 607.8192,572.9854 623.0511,531.701 641.9375,476.9837 664.0798,409.6868 701.3372,292.73 717.855,241.933 733.5965,195.7921 739.5154,179.806 742.2369,173.7253 739.2648,182.7204 732.8108,198.6655 724.6951,217.0816 715.6136,236.4044 707.0813,253.5508 698.1526,270.5518 688.4299,288.1506 678.2674,305.7088 666.599,324.9544 654.5184,343.9373 641.6378,363.2335 628.0849,382.6533 600.5671,419.9157 559.105,473.1583 544.5434,492.2854 531.7082,510.0922 520.4827,527.1039 513.4075,538.7816 506.8946,550.467 500.7381,562.5668 495.5901,573.8587 487.137,594.8831 474.6274,631.1414 468.4622,648.0079 463.6241,659.7144 458.8908,669.6278 455.9155,675.0538 452.8081,679.9542 449.484,684.4471 445.7349,688.7698 442.325,692.0627 438.7548,694.8411 435.2815,696.9209 431.5378,698.5444 426.8867,699.6957 422.318,699.9123 417.2991,699.1828 412.4752,697.5259 407.4648,694.8487 402.2197,691.087 397.5361,686.8977 392.5787,681.5054 387.5319,675.0607 382.3725,667.5519 377.6506,659.8313 373.092,651.4326 368.2275,641.4534 363.4147,630.5473 358.982,619.5519 354.8094,608.0571 350.4871,594.8246 346.4107,581.0035 342.4064,566.0066 339.1189,552.2252 336.2081,538.294 333.7222,524.4213 331.757,511.1778 330.2961,498.465 329.3798,486.4636 328.9711,474.6699 329.0902,464.0103 329.7381,453.8963 330.8577,445.2444 332.4866,437.571 334.6047,430.885 337.3429,424.9484 339.4984,421.5765 341.867,418.7838 344.5458,416.4445 347.4343,414.6446 350.5086,413.3705 354.1132,412.5555 357.501,412.348 361.3234,412.6735 365.6127,413.6018 370.0352,415.064 374.5554,417.0334 379.1381,419.4838 388.7437,426.0003 399.0341,434.5882 409.2723,444.7442 420.0132,457.2246 429.6313,469.9981 438.9028,484.1296 446.6573,497.5114 453.3906,511.1328 459.5781,525.7578 465.0117,541.164 469.0514,554.9352 472.1698,569.0312 474.5656,583.2303 476.1554,598.0391 476.8549,611.5162 476.7282,626.094 475.7749,640.1405 474.0405,653.2251 471.3736,666.7109 468.1134,678.645 463.7893,690.6919 459.1117,700.3229 453.4004,709.3828 447.3861,716.354 444.2541,719.161 441.2207,721.3652 437.9646,723.2111 434.5065,724.6409 429.4231,725.8163 423.9929,725.9614 418.648,725.0971 413.1993,723.1019 407.4846,719.8622 401.487,715.3101 396.219,710.3292 390.7076,704.0643 385.0405,696.5479 379.4731,688.1406 374.2709,679.3176 369.1068,669.455 363.6434,657.8485 358.1957,645.1233 352.777,631.3674 348.002,618.0078 343.0874,602.7796 338.4381,586.839 333.8996,569.6008 330.0296,553.1939 326.737,537.2306 323.8389,520.9273 321.4473,504.8945 319.5535,489.0106 318.3669,475.1093 317.7586,461.8971 317.7246,449.5195 318.2594,438.1094 319.357,427.7998 320.9055,419.3278 323.0694,411.7176 325.9245,404.8767 328.3635,400.6261 331.0557,397.0511 334.1895,393.9757 337.3861,391.7662 341.01,390.1125 345.236,389.0562 349.3206,388.7465 353.9627,389.0965 358.7533,390.1327 363.8628,391.8778 369.371,394.3114 375.3125,397.5 380.9776,401.0396 386.9793,405.2931 399.4285,415.6165 412.5877,428.4286 425.4274,442.9121 437.6261,458.5722 448.2653,474.3295 458.5187,491.6696 467.367,509.288 474.5936,526.1578 480.7376,543.9407 484.9686,559.2602 489.3707,579.4722 491.945,597.5561 493.2916,613.3986 493.8992,630.8798 493.3115,652.8805 491.7837,670.8658 489.1452,688.6539 485.6995,704.34 481.0435,720.0615 475.8552,733.1923 469.8106,745.1012 466.6333,750.1946 463.0286,755.1933 459.6033,759.3063 455.8932,763.1069 452.1239,766.3419 448.0505,769.1768 444.0413,771.3311 440.125,772.8746 434.0949,774.2294 427.61,774.1977 421.0054,772.7654 413.9333,769.8711 407.549,765.9139 400.8374,760.415 393.7852,753.2673 387.1205,745.2395 380.4195,735.707 373.7557,724.8215 366.9398,712.3083 360.13,698.4666 354.0228,684.6908 347.951,669.6092 341.9431,653.313 336.0275,635.893 329.7751,615.9075 324.3543,596.8172 318.9937,575.9304 314.0541,554.5614 309.5121,532.61 305.5573,510.9622 302.5614,491.4621 300.2177,472.478 298.5412,454.2421 297.5465,436.9869 297.2487,420.9447 297.6681,407.1186 298.824,394.4744 300.7574,382.8836 303.4034,372.8594 306.7238,364.4542 310.2925,358.27 314.5214,353.2919 319.2785,349.6189 324.8392,347.0739 330.845,345.8512 337.2181,345.8729 344.2171,347.0968 351.9517,349.5374 360.6129,353.3752 369.4358,358.2893 379.0593,364.639 389.5544,372.4631 399.8695,380.9581 410.1764,390.2518 420.7104,400.6005 431.6508,412.105 447.5371,430.4143 462.9233,450.4345 475.5071,469.0135 482.3624,480.1684 488.1336,490.2485 493.8607,501.2259 500.4691,515.0631 504.8221,525.1898 509.2059,536.749 513.5875,549.4517 518.8181,566.2595 529.7314,605.0976 532.3597,613.0943 534.9002,619.247 538.1702,625.4045 540.3043,628.0464 542.9249,630.5187 544.9164,631.6206 547.0801,632.1758 549.6145,632.2011 552.2365,631.5923 555.0879,630.2898 557.7367,628.5468 560.632,626.0864 563.8159,622.7965 570.7979,613.9141 577.9771,602.7687 585.7676,588.8345 593.8157,572.6881 602.678,553.2091 611.8089,531.5868 620.6497,509.3953 630.1481,484.4408 650.7754,427.0008 668.8876,373.9967 719.7605,221.7913 706.1475,250.0263 692.4367,276.6541 678.7285,301.6094 663.4537,327.7523 647.8463,353.0596 630.5952,379.7229 613.6728,404.89 579.9707,453.9902 564.9586,476.7563 556.9387,489.6262 549.6789,501.9792 543.2553,513.7104 537.7788,524.5681 530.5293,540.6851 524.5873,556.0201 519.2872,572.656 514.6954,590.1203 511.725,603.8851 508.4275,622.8677 500.8291,676.874 497.8344,695.4989 494.8217,710.3749 492.5395,719.9761 490.0024,729.4966 487.2455,737.8927 483.0634,748.9912 478.4475,759.105 473.5809,767.7958 467.9309,776.0426 462.4217,782.4465 455.5834,788.6267 449.5414,792.617 443.0218,795.4467 436.1796,796.9319 432.7194,797.113 429.0931,796.913 422.2091,795.475 415.2267,792.5698 408.1061,788.1769 400.5747,782.0565 393.725,775.0544 386.8594,766.6094 379.5063,756.072 372.098,744.0005 365.3675,731.7192 358.6242,717.9334 351.6916,702.2318 344.7321,684.9223 337.6067,665.5957 331.3527,647.1231 324.5788,625.1618 317.9964,601.6722 311.8847,577.6562 306.2111,553.0196 301.5743,530.4947 297.4488,507.6394 293.9738,485.1352 291.2465,463.6475 289.3117,443.7689 288.1399,425.3971 287.7491,408.4966 288.1404,392.5807 289.3257,378.2232 291.2966,365.5358 293.9643,354.8867 297.4395,345.85 300.7478,339.8954 304.4929,335.0242 308.9125,330.9974 313.7458,328.1141 318.9519,326.3337 324.7269,325.5981 331.3408,325.9132 338.2753,327.2636 345.8296,329.6918 353.9622,333.2279 362.2322,337.6547 371.2366,343.2494 381.3437,350.2418 391.3686,357.8606 401.8052,366.4809 412.2929,375.8299 432.0095,394.9635 450.3792,414.8368 467.9063,435.9016 483.1383,456.6039 490.6995,467.7595 497.2161,478.1234 504.651,491.0782 511.1823,503.4015 521.3595,524.9167 536.4789,561.4903 540.6903,570.8289 543.3906,575.9219 547.5704,582.042 551.6082,585.8669 553.7,587.1102 555.6975,587.8078 557.889,588.0201 560.2115,587.7464 562.8941,586.8892 565.7118,585.3808 568.736,583.157 571.6053,580.5583 577.614,573.7215 584.2961,564.2308 590.9746,553.1462 598.5062,538.9558 607.0514,521.3201 615.4443,502.601 623.3949,483.5405 633.9505,456.8326 652.8955,405.6827 688.6186,302.7406 700.6538,266.7855 703.2289,258.3298 703.7532,255.5539 702.9613,256.2465 700.6763,260.0531 687.351,285.1822 673.814,309.7197 654.7536,342.2847 635.701,373.346 592.0937,441.8386 575.5079,469.328 567.9742,482.7169 561.7845,494.6353 555.8224,507.1749 550.7202,519.1352 546.7846,529.5385 543.1673,540.4366 540.4961,549.7617 538.2427,559.4792 536.2914,569.4382 535.1241,577.8373 534.119,589.552 533.8301,599.4417 534.1702,608.3486 535.3863,618.1187 536.6571,623.6626 538.786,629.7552 541.0046,633.4711 543.8616,636.2023 547.0578,637.3545 549.0,637.375 550.8128,636.9971 553.5121,635.8527 556.4664,633.931 559.8458,630.9913 563.2534,627.4352 569.8033,619.0339 577.4908,606.9497 585.1421,592.9085 594.8386,573.1285 602.2838,556.5435 612.9028,531.1926 628.1632,491.8528 650.5323,429.5402 669.0258,375.0025 705.1888,266.0745 721.4456,218.2808 707.0408,248.3903 693.4743,274.9188 679.0458,301.1875 662.9457,328.6869 647.2706,353.9735 629.9729,380.5191 576.5886,458.316 563.0487,478.6405 548.4561,502.5894 541.8083,514.5492 536.099,525.5958 529.6324,539.6018 523.8551,554.089 518.2553,570.4558 514.2637,584.4574 510.5127,600.1913 508.2091,611.7613 504.7803,631.1421 497.7034,675.4964 494.3526,693.044 489.4658,713.5442 483.7974,730.9784 479.8096,740.9986 475.3496,750.2984 470.187,759.1992 465.2017,766.2855 459.6251,772.5447 453.5926,777.8465 447.8603,781.5519 441.8135,784.1551 435.3179,785.5609 428.2071,785.591 421.4741,784.2313 414.8939,781.5292 407.9037,777.2356 400.968,771.6012 394.101,764.6195 387.1963,756.1966 380.2792,746.3907 373.1169,734.8339 366.5336,722.8273 360.015,709.5643 353.1263,694.0827 346.3686,677.4244 339.7752,659.7195 333.6546,641.731 327.1779,620.8434 321.0957,599.2722 315.2721,576.5011 310.0582,553.8785 305.5931,532.0259 301.6307,509.8291 298.3049,487.9802 295.6663,466.7896 293.8215,447.2584 292.8142,430.1264 292.5235,413.7419 292.9811,398.707 294.1826,385.1586 296.1237,373.2336 298.7876,363.1245 302.1418,354.8018 305.5234,348.9392 309.5855,343.9218 314.0937,340.1053 319.2809,337.3536 324.7365,335.887 331.1053,335.5012 337.8532,336.2613 345.278,338.184 352.9412,341.1378 361.3635,345.336 370.9329,351.0443 380.8545,357.8076 390.7068,365.2853 400.673,373.5629 411.9453,383.6865 423.0205,394.3277 439.5195,411.6826 457.0451,432.3217 472.0358,452.1327 485.6932,472.4551 491.75,482.625 499.9187,497.6173 505.6422,509.0767 511.2715,521.4996 515.8024,532.3265 519.8376,542.9498 533.82,582.8699 539.3329,595.6228 543.3662,602.0685 545.1307,604.1545 547.2068,605.9688 549.3886,607.2605 551.6633,608.0424 553.7744,608.2092 556.4253,607.7821 559.2181,606.7056 561.664,605.2731 564.6719,602.9219 567.5977,600.1032 574.3333,591.9937 581.6426,581.2707 588.5826,569.3853 596.2409,554.5857 604.2505,537.6475 612.6536,518.3438 622.0141,495.4673 631.5442,471.0634 651.0903,417.7595 665.8604,375.3496 686.2411,315.2553 707.9816,250.8852 710.6279,242.6814 711.2346,239.9629 709.3539,242.9748 695.4235,270.2756 683.679,292.1415 671.4399,313.9189 659.1724,334.7287 634.888,373.6658 582.7151,453.5755 564.5021,483.2829 556.8515,496.9612 550.2836,509.8595 543.7266,524.1902 538.2406,537.6349 534.1905,549.2629 530.6328,561.2969 527.8047,573.125 525.3417,585.9274 523.199,600.7788 522.0139,612.4418 521.1942,626.2659 521.0153,640.0563 521.6245,655.3051 522.9258,667.4229 524.7251,677.6732 526.3642,683.5521 528.9148,689.1678 530.6065,691.3611 532.7102,693.3501 534.3495,694.1982 536.1855,694.5977 538.3418,694.5602 540.2545,694.0108 543.0836,692.5131 546.2754,690.139 549.4196,687.1282 552.6179,683.4722 560.6969,672.2761 568.3496,659.5269 577.4065,642.0092 586.6212,622.3183 596.3272,599.6632 606.7488,573.5801 622.8883,530.3473 639.3753,483.0813 664.2325,407.8436 717.3883,242.3326 732.9603,196.7031 738.1626,182.6832 740.7946,176.778 736.5572,188.727 728.4042,208.3611 719.6114,227.7844 710.1005,247.3125 699.6173,267.5323 688.3894,288.0025 677.3083,307.1436 665.2136,326.957 646.302,356.1461 625.9834,385.4997 601.6446,418.5506 543.729,494.2831 528.9438,515.4326 517.0233,534.4664 510.9258,545.2606 505.3656,555.9034 500.4401,566.2463 495.7596,577.119 486.611,601.3736 472.2763,643.8746 465.9671,660.397 460.9995,671.2347 454.2795,683.0912 450.877,687.9212 447.5084,691.9746 443.6433,695.8795 439.9912,698.8955 436.1086,701.3298 432.3119,702.9908 427.283,704.2212 422.5594,704.4004 417.1908,703.5061 411.9913,701.6364 407.1017,698.9456 402.0764,695.2303 396.8885,690.4503 391.7242,684.7889 386.8287,678.4259 381.6702,670.6796 376.4406,661.8139 371.1269,651.8315 366.5163,642.1961 361.9787,631.7223 353.2399,608.5236 348.8723,595.173 344.7742,581.2323 340.8833,566.4713 337.3547,551.4437 334.4288,537.3367 332.0774,524.002 330.0678,510.0742 328.552,496.5307 327.5301,483.5629 327.0383,472.044 327.0883,461.3396 327.6764,451.4756 328.8453,442.1965 330.4919,434.3006 332.6358,427.5068 335.3389,421.6463 337.4071,418.3312 339.9039,415.2366 342.6106,412.7255 345.5042,410.8029 348.4839,409.4923 351.8522,408.6397 355.3973,408.3162 359.467,408.5405 363.2903,409.244 367.5965,410.5357 372.2277,412.45 376.9286,414.8424 386.8102,421.1669 396.625,429.125 407.9156,440.0204 418.1171,451.3864 429.3493,465.8902 438.9517,479.8985 447.282,494.0632 454.6274,508.5576 461.6432,524.8368 467.1509,540.1055 471.3463,554.4913 474.3624,567.2811 477.2303,583.9331 478.7224,597.0054 479.598,614.1986 479.4279,629.4026 478.4552,643.4007 476.2637,659.6139 473.4963,673.1005 469.9764,685.4739 465.4644,697.3541 460.321,707.6267 454.6743,716.4325 451.8664,719.9209 448.6202,723.3216 445.4028,726.1383 441.9809,728.563 438.663,730.3975 435.2497,731.7958 429.9013,733.0056 424.1576,733.0677 418.6936,732.0468 413.104,729.8655 407.2326,726.3863 401.3985,721.8337 395.6985,716.3787 389.8891,709.6881 384.168,701.9931 378.5696,693.4053 372.9998,683.7983 367.6723,673.501 362.1859,661.7546 356.7202,648.8986 350.9904,634.1612 346.162,620.5601 341.1149,604.8237 336.2443,587.9754 331.7058,570.5418 327.5642,552.8105 324.0932,535.9805 321.0254,518.8201 318.5373,502.3143 316.5952,486.2984 315.3273,472.1133 314.6616,458.7144 314.5984,446.1512 315.1222,434.5371 316.2621,423.6643 317.9449,414.2712 320.0779,406.5393 322.8934,399.55 325.4464,394.9621 328.2901,391.1136 331.3995,388.0021 334.75,385.625 338.5731,383.862 342.6727,382.8144 347.0076,382.4498 351.9211,382.7878 357.0096,383.848 362.2206,385.5891 368.282,388.29 374.3599,391.5669 380.49,395.4035 386.935,399.9884 392.9895,404.8079 399.8401,410.7904 414.0085,424.5525 426.7643,438.9136 440.4408,456.3822 451.8426,473.276 462.9659,492.0364 471.8256,509.7931 479.138,527.0706 485.9157,547.0637 490.4825,564.264 494.245,582.7606 497.2032,604.6373 498.705,624.6996 499.0685,645.5197 498.3557,665.3356 496.4457,686.1537 493.7946,703.5312 490.1914,719.946 485.1127,736.7901 479.9728,749.8775 473.8099,761.7748 470.1111,767.673 466.5559,772.6676 462.8949,777.0956 459.1064,780.975 455.0179,784.4504 450.9395,787.2522 446.5465,789.6154 442.1331,791.3698 435.4123,792.7722 428.8461,792.724 421.86,791.2618 415.0642,788.4051 407.8438,783.8732 400.4783,777.7991 393.7201,770.9222 386.8606,762.5184 379.7674,752.3899 372.4224,740.4453 365.6088,728.066 358.8181,714.2441 351.992,698.8214 345.3164,682.2335 338.6786,664.2093 332.3729,645.5618 325.7772,624.1741 319.3595,601.2913 313.403,577.9122 307.8823,553.9506 303.1985,531.25 299.1691,508.95 295.77,486.9657 293.0572,465.6026 291.1426,445.8644 289.986,427.591 289.6079,411.1159 289.9885,395.5657 291.1404,381.5189 293.0551,369.0782 295.7239,358.3465 299.1374,349.4244 302.5352,343.3385 306.401,338.4076 310.6934,334.5877 315.6752,331.6975 321.042,329.9595 326.9583,329.3149 333.5297,329.7675 340.4285,331.2506 348.3104,333.9468 356.4076,337.6234 365.0002,342.3635 374.5069,348.4257 384.5705,355.5827 394.8212,363.5959 405.1247,372.3576 415.7357,382.0904 434.4481,400.7427 451.2233,419.512 469.1716,441.6175 475.9713,450.8075 483.9541,462.3217 491.2078,473.4546 497.4535,483.8263 504.3912,496.414 510.5538,508.6336 520.0015,529.5947 534.4594,566.4659 538.9299,577.1213 542.2318,583.6625 546.2862,589.741 548.419,591.9072 550.601,593.5736 552.551,594.5984 554.7031,595.1562 556.9948,595.212 559.0,594.875 561.7077,593.8996 564.2738,592.4722 567.3398,590.2025 570.1996,587.5876 576.1933,580.6624 582.7542,571.1906 590.2257,558.7725 597.4198,545.2848 605.7659,527.8321 614.6725,507.6913 623.388,486.6838 632.5931,463.2505 653.7722,405.634 686.0626,312.2948 703.8452,259.1486 706.0637,252.0631 706.4676,249.7966 705.7094,250.5304 704.1079,253.2872 689.5472,281.0681 677.6083,302.9562 655.8933,340.2349 633.8231,376.025 589.7313,444.5482 571.9115,473.8364 564.4467,487.1007 557.6412,500.1653 551.6542,512.7818 546.9535,523.8855 543.0466,534.4476 539.1663,546.261 536.5212,555.8806 533.9543,567.1221 532.1661,577.1419 530.4937,589.456 529.8065,598.2869 529.4183,609.2877 529.9212,621.9526 530.6689,628.9439 532.3509,637.9858 534.7891,645.5477 537.2002,649.7794 540.4209,652.8592 541.8317,653.5308 543.7417,653.9604 545.6624,653.9784 547.4821,653.5798 550.136,652.371 553.3762,650.1702 556.4666,647.4644 559.998,643.7152 567.1169,634.3658 574.6778,622.3108 583.1628,606.5789 592.0956,588.2329 600.2601,569.8087 610.4044,545.2607 627.6099,500.3681 647.644,443.7848 667.2226,385.7599 711.8036,250.3358 727.2325,205.9193 713.6114,236.0002 698.5,266.375 681.5502,297.5174 663.3206,328.5282 645.8455,356.3025 626.9903,384.6478 608.4604,411.223 573.1373,460.6731 556.8919,484.3499 543.657,505.2948 531.4822,526.7606 524.7771,540.2838 518.7564,554.0323 513.6031,567.5081 508.7335,582.25 505.0489,594.9894 501.5513,608.6917 489.6933,661.3876 485.42,678.8196 480.9635,693.7851 475.8953,707.646 471.8356,716.8897 467.6826,725.0035 463.4945,731.9359 459.0623,737.975 454.2333,743.3414 449.3594,747.6094 444.0621,751.0777 438.6714,753.4939 432.8917,754.8472 426.6485,754.9835 420.4154,753.878 414.3782,751.5797 407.9898,747.8777 401.6135,742.9425 395.5423,737.0494 389.4626,729.9126 382.962,720.9883 376.4741,710.8422 370.4601,700.3148 364.4922,688.5955 358.3585,675.2294 352.2311,660.538 346.1601,644.6445 340.8339,629.3201 335.1687,611.3028 329.6967,592.0423 324.5785,572.1163 319.8489,551.6597 315.9663,532.5712 312.545,513.1459 309.7635,494.4175 307.5927,476.2712 306.1768,460.2359 305.4214,445.0231 305.3419,430.842 305.9283,417.8178 307.1707,406.0752 309.0862,395.6243 311.6014,386.9276 314.7457,379.6127 318.6782,373.385 320.8655,370.8306 323.4298,368.4473 325.8966,366.6653 328.75,365.125 331.622,364.0377 334.9713,363.2371 341.7285,362.8368 349.2793,363.8895 357.53,366.4707 366.0689,370.4407 376.121,376.3961 386.86,384.0207 397.6979,392.8698 409.545,403.6384 419.8287,413.9028 429.5159,424.5251 441.2243,438.5966 451.2796,451.7773 464.537,471.4676 475.5633,490.2058 481.0856,500.8851 486.058,511.3102 490.0231,520.4513 494.0828,530.8479 498.6494,543.7221 502.3602,555.8276 505.9577,569.4794 509.1744,583.9109 511.4692,595.8718 514.3009,613.6898 520.2593,656.5747 522.4858,668.8443 524.1019,675.1898 525.6539,680.261 527.1586,683.918 529.1802,687.7269 531.1377,690.1713 533.375,691.875 535.7188,692.7201 538.3917,692.7498 541.3291,691.8707 544.4357,689.9843 547.875,687.125 551.1228,683.7941 554.4679,679.7499 562.0846,668.6952 570.4107,654.4354 578.9843,637.6663 588.1854,617.7744 598.148,594.3521 608.3895,568.6714 623.8959,526.8615 641.3504,476.5635 665.0582,404.531 699.1808,297.887 716.9371,243.4516 731.9485,199.5316 737.5158,184.3777 740.2427,178.02 735.6921,190.5766 727.6011,209.9243 718.6689,229.595 709.2421,248.9341 699.0828,268.4318 688.131,288.3041 676.3629,308.5879 664.375,328.25 646.3146,356.1811 626.8128,384.4479 604.2277,415.2262 560.3861,472.4309 544.9933,493.0382 529.4815,515.2963 517.0094,535.332 511.072,545.9105 505.7617,556.2383 500.3984,567.6464 495.5906,578.9395 487.2999,601.511 472.0582,647.2642 466.268,662.3182 462.0942,671.5757 458.467,678.4702 455.0175,684.2377 451.5858,689.2097 447.8986,693.7473 444.2032,697.4967 440.4105,700.5938 436.4544,703.0333 432.6546,704.6688 427.508,705.9429 422.6539,706.1841 417.5821,705.3651 412.6343,703.6095 407.4854,700.8505 402.341,697.1029 397.0256,692.2078 391.7932,686.4335 386.718,679.9519 381.6706,672.5216 376.598,664.0467 371.5098,654.5174 366.6739,644.4752 362.0524,633.8314 357.5314,622.3687 353.0024,609.7976 348.377,595.7537 344.3934,582.4285 340.6866,568.5578 337.2269,554.0179 334.0746,538.9851 331.3661,524.0538 329.347,510.4566 327.8263,497.2062 326.811,484.4658 326.3007,472.0559 326.3357,461.0224 326.9,451.0971 328.0342,441.6932 329.7052,433.3431 331.8927,426.1285 334.5795,420.1213 336.7907,416.5555 339.2395,413.5478 341.9068,411.0936 345.0703,409.0273 348.1343,407.7196 351.6905,406.8977 355.4415,406.6508 359.7242,406.9901 363.7872,407.8319 368.327,409.2983 372.9348,411.3046 377.3447,413.6757 387.6358,420.5033 398.1959,429.1973 409.45,440.2365 420.3125,452.5391 430.7951,466.2511 440.5398,480.7081 448.9355,495.1353 456.5112,510.1609 462.7934,525.0862 468.425,540.8541 472.575,555.4573 475.9406,570.1721 478.4899,585.7424 479.9782,599.6549 480.7939,617.2302 480.5521,631.6852 479.5686,645.5593 477.303,661.7336 474.506,675.032 470.8679,687.798 466.0312,700.3906 461.161,710.1724 455.4756,718.9395 452.3902,722.7375 449.1795,726.1013 446.015,728.923 442.6712,731.3593 439.0934,733.3664 435.6822,734.7514 430.382,735.9651 424.7112,736.0671 418.9855,735.0136 413.5105,732.9453 407.7769,729.6751 401.7542,725.0813 395.8614,719.4825 390.2348,713.0164 384.4678,705.2757 378.5502,696.2209 372.7306,686.2656 367.3145,675.8761 361.9244,664.37 356.4293,651.4286 351.0063,637.4244 345.9754,623.2523 340.8339,607.292 335.8436,590.1704 331.175,572.4339 326.8847,554.2919 323.3314,537.343 320.2528,520.4303 317.6833,503.7596 315.6611,487.5527 314.25,472.375 313.5045,459.0583 313.3332,446.1109 313.7787,433.7426 314.8395,422.5217 316.4379,412.8741 318.5215,404.8162 321.3565,397.5324 323.9665,392.7483 326.8946,388.7297 330.1073,385.4712 333.5716,382.9679 337.3596,381.1736 341.395,380.1094 345.6582,379.7259 350.4926,380.031 355.5075,381.0349 361.0583,382.8377 366.9532,385.4274 373.2067,388.7452 379.5392,392.6392 386.2073,397.2941 392.8262,402.4727 399.3415,408.1077 413.5414,421.787 426.501,436.1744 440.7776,454.3022 447.0378,463.1133 453.0322,472.2347 464.2771,491.1256 473.0967,508.8418 480.9903,527.3132 487.5165,546.5815 492.4745,565.1483 496.1698,582.6053 499.2988,604.584 500.9275,624.7324 501.4266,647.4889 500.9731,666.1449 499.2534,688.9977 496.7967,706.6379 493.1102,724.8936 488.5958,741.1035 483.0839,756.0538 480.2063,762.3439 476.8572,768.7173 473.3511,774.5267 469.4289,780.1727 465.4054,785.2313 461.4911,789.3985 457.1505,793.2141 452.547,796.534 448.2668,798.9358 443.6338,800.7992 436.6933,802.2958 429.7639,802.3133 422.6062,800.8322 415.245,797.8038 408.3203,793.4974 401.0116,787.465 393.25,779.5 386.4161,771.1123 379.1424,760.6786 371.8388,748.7048 364.5393,735.2866 357.2656,720.4563 350.6546,705.4309 343.9201,688.5796 337.2241,670.2902 330.5934,650.6597 323.7219,628.6471 317.4555,606.5772 311.4418,583.2289 305.7721,558.8808 300.6951,534.6009 296.1846,510.2694 292.6211,487.8357 289.7075,465.5812 287.5807,444.5822 286.2325,425.062 285.6482,406.893 285.8649,390.8497 286.9132,376.3416 288.7614,363.448 291.3739,352.236 294.7153,342.7726 297.9423,336.4175 301.5148,331.3839 305.6885,327.2416 310.2838,324.16 315.5962,321.9855 321.2753,320.8997 327.2627,320.8415 333.8133,321.8186 341.1805,323.9045 349.1436,327.0433 357.6487,331.2362 366.6212,336.4588 375.9633,342.6584 386.2239,350.2058 396.9468,358.7146 407.6954,367.88 417.2354,376.5746 426.9628,385.9965 447.5324,407.3519 455.997,416.891 465.5314,428.2788 481.6157,448.8792 490.206,461.1913 498.6837,474.2252 505.1792,485.0261 512.607,498.421 518.071,508.973 523.2707,519.9388 540.049,557.733 545.8586,568.5094 549.5355,573.4607 553.8657,577.3444 555.5692,578.2688 557.6899,578.9441 559.8817,579.1712 562.2617,578.941 564.9424,578.105 567.4262,576.8503 570.002,575.0951 573.0295,572.4764 579.0943,565.8009 585.5135,556.8564 592.2096,545.9208 598.9237,533.4698 607.3934,516.1855 615.8836,497.444 624.3307,477.4657 633.062,455.6183 654.4388,398.4318 675.3418,339.0175 689.8105,296.9107 698.594,270.0136 700.1915,264.401 700.4431,262.2982 699.6017,262.998 697.5683,266.3304 673.8439,309.7529 656.4095,339.7244 635.7286,373.618 597.7577,433.9372 581.1117,461.5883 572.9249,476.1159 566.9674,487.4789 560.682,500.5756 555.1096,513.349 551.435,522.8968 548.2497,532.3133 545.3644,542.0742 543.0746,551.299 541.407,559.7817 540.1022,568.8216 539.1973,578.0248 538.8479,586.4282 539.1204,594.9259 540.0678,602.7108 541.3351,608.2292 543.5,613.875 545.7188,617.2969 548.5,619.5 551.2258,620.2842 554.3504,619.9068 556.9502,618.9301 559.511,617.3875 562.2832,615.1664 565.25,612.25 572.129,603.922 578.9692,593.6771 586.4139,580.5681 594.3984,564.8104 603.6415,544.9413 612.4984,524.3748 621.7049,501.4848 631.1586,476.9085 650.5994,423.1499 683.9956,325.2879 711.1681,244.6201 715.331,231.236 713.9073,233.581 699.3625,262.7868 688.4285,283.6534 677.6177,303.3063 665.356,324.4683 651.1337,347.9687 636.9619,370.3197 583.3065,450.8807 566.9164,476.4265 557.7915,491.6904 550.679,504.5124 543.767,518.2272 537.6023,531.7355 530.8144,549.1743 525.359,566.4839 520.8678,584.5041 517.2025,604.9537 514.5745,625.8278 513.0191,644.033 511.5223,670.3609 509.0274,727.5989 507.9422,741.7752 506.4503,755.6887 504.7871,766.6946 502.8946,776.4853 500.7037,785.3472 497.0102,796.8918 491.6778,809.6267 485.446,821.0727 479.1,830.4913 471.9605,838.8018 464.1295,845.8097 460.2208,848.5897 456.3711,850.8561 452.5898,852.6484 448.5233,854.1387 444.4671,855.1891 440.6852,855.7361 436.7051,855.8716 432.8981,855.5972 428.4844,854.8139 424.25,853.625 420.1578,852.0498 416.2129,850.0965 408.2336,844.8584 400.044,837.7551 391.5758,828.6752 383.4116,818.1853 375.2657,805.9923 367.0104,791.8974 358.9054,776.3583 350.794,759.0789 342.9261,740.5192 335.1211,720.3498 327.3061,698.37 319.6648,675.0757 311.4222,647.7963 303.7329,619.9605 296.3891,590.8439 289.5065,560.8695 283.2759,530.8418 277.7853,501.1765 273.1865,472.702 269.4881,445.5379 266.7389,420.2894 264.8706,396.4181 263.946,374.5547 263.966,355.2004 264.9108,338.291 266.8371,323.0062 269.6881,309.8209 273.4187,298.7448 276.23,292.7989 279.3676,287.7137 282.82,283.4914 286.7196,280.0172 291.202,277.2431 296.0153,275.3405 301.1276,274.2568 306.8743,273.9438 312.8861,274.4383 319.1243,275.676 325.9572,277.7339 333.0544,280.524 341.2136,284.3759 349.5222,288.8689 358.5743,294.318 367.9926,300.5086 378.6677,308.068 389.8055,316.4695 415.1269,337.0094 439.0425,358.069 465.113,382.7384 476.8906,394.5567 489.3732,407.6694 501.2944,420.5702 510.6475,431.2038 528.6662,453.2033 552.9191,485.5899 562.3994,497.1492 566.7062,501.3923 570.6112,504.359 574.3126,506.0709 578.0428,506.7413 582.1516,506.3397 586.6719,504.4121 591.0808,501.1314 596.0534,496.0935 600.8202,490.0915 605.9533,482.4098 611.7876,472.5054 617.4477,461.83 625.024,446.1328 633.127,428.0527 650.2142,386.1707 660.657,357.9527 668.2202,336.0893 671.567,325.0909 672.1074,322.137 671.914,321.1042 670.9819,321.5028 669.2871,323.4711 663.4438,332.4234 625.3401,397.2589 605.1444,433.4071 598.4852,446.3288 592.7443,458.3544 587.0748,471.5484 583.0101,482.1098 579.7547,492.5589 577.7422,501.2244 576.6997,509.5794 577.0832,516.1134 577.726,518.213 578.6854,519.7626 579.9023,520.7953 581.1864,521.1377 582.711,520.9509 584.4236,520.2525 588.2643,517.353 592.8704,512.2951 597.9788,505.2804 602.8168,497.4524 609.1555,485.935 614.75,474.875 621.4668,460.5975 628.55,444.5154 638.2114,421.2523 654.6925,378.6992 664.961,350.235 671.1495,332.1358 675.4725,317.8694 676.2936,314.2058 676.2788,312.4862 675.5273,312.7077 673.5599,315.0495 667.3886,324.622 623.2687,399.5387 601.8401,437.6154 593.7506,453.1372 587.6561,465.9273 582.1957,478.7744 577.8174,490.5471 574.5016,501.8796 572.4418,511.6206 571.5757,520.2936 571.7112,524.2544 572.226,527.7319 572.9314,529.834 574.1465,531.6797 575.4082,532.6601 577.051,533.026 578.5972,532.8241 580.75,532.0 584.4219,529.25 589.9252,523.2207 595.305,515.857 600.796,506.8927 607.8479,494.0754 613.798,482.205 620.6913,467.4396 627.2322,452.4146 639.0601,423.5784 655.5318,380.1967 667.2432,347.6053 675.8428,322.4905 680.4541,307.6392 681.33,303.8841 681.3359,302.0623 680.4649,302.471 679.0831,304.1511 673.7222,312.6242 609.0925,422.2037 593.4263,450.5184 586.6414,463.9488 581.0565,475.8737 575.1274,490.2598 571.0909,501.8917 567.4832,514.9425 565.6496,525.5362 565.1987,534.6258 565.5609,539.2488 566.226,542.336 567.2402,544.7617 568.6514,546.7217 570.189,547.7467 572.4203,548.0967 574.3536,547.7089 576.4749,546.7086 581.4218,542.8558 586.4688,537.1702 592.0539,529.355 598.0207,519.4961 604.972,506.599 612.0871,492.2641 619.2482,476.7289 627.7292,456.9066 638.0082,431.4128 655.5969,384.6699 669.8659,345.0507 680.4255,314.459 686.6004,294.8554 687.5963,290.8217 687.5594,289.1565 687.0472,289.2838 686.0372,290.397 682.7011,295.5552 651.1183,350.1747 601.4122,432.9416 585.0593,462.5556 578.763,475.2062 573.1234,487.591 567.2843,502.1026 562.4071,516.7041 559.0143,531.0103 557.4451,541.9712 557.1142,548.4596 557.207,553.154 557.7818,557.9566 558.7424,561.7976 560.0334,564.6548 561.8961,567.0031 563.7697,568.0482 566.3931,568.3066 568.435,567.9076 570.7683,566.8377 575.7654,562.9671 581.0047,557.1686 586.7255,549.18 593.7647,537.6565 600.8801,524.58 608.5195,509.0822 616.2134,492.1301 626.0418,468.8738 635.0677,446.4463 656.1161,390.2583 669.4051,352.6927 688.0267,298.2976 694.5974,277.7345 695.6223,273.9816 695.7381,272.3919 695.2693,272.5415 694.5262,273.4209 691.9566,277.5231 669.7418,317.151 649.8863,351.1415 603.5208,426.3624 589.2795,450.0507 581.1192,464.5623 573.3401,479.2047 567.5731,491.0054 562.2222,503.0364 555.7559,520.0801 550.7656,536.875 548.9747,544.7095 547.5308,552.7398 546.5519,560.2075 546.0105,567.2098 546.0111,574.2293 546.5511,581.5914 547.4487,586.6877 548.9225,591.4425 550.7656,594.7969 553.25,597.375 555.5532,598.4761 558.2912,598.6005 560.8306,597.9768 563.1961,596.8434 566.1035,594.8327 568.8893,592.3567 574.9375,585.4375 581.7014,575.7401 588.8722,563.5588 596.8915,548.2167 605.1058,531.0289 613.5236,511.9611 623.2873,488.2746 632.7197,464.2573 653.4998,407.5965 682.0792,324.9241 704.6297,257.8358 706.9169,250.605 707.4304,247.9867 706.7091,248.6853 704.8472,251.9099 689.9132,280.3923 678.2591,301.7574 655.2624,341.349 634.6134,374.5077 585.33,451.184 571.764,473.5081 563.6589,487.906 556.612,501.4166 550.4125,514.4842 545.3322,526.5007 541.4705,536.9048 538.1975,546.9695 535.3487,557.3008 532.5997,569.0582 530.855,578.8424 529.269,590.755 528.3729,601.119 528.0193,610.6776 528.3074,624.3022 528.8982,631.3258 530.2786,640.4985 532.5219,648.9859 534.7058,653.7505 536.5035,656.4711 537.8704,657.963 539.3916,659.069 541.3982,659.9097 543.07,660.166 544.8466,660.003 547.57,659.104 550.5124,657.469 553.4944,655.1474 556.7388,651.9771 564.1803,642.7505 571.9019,630.969 579.8306,616.6575 588.521,599.0228 598.3353,577.2705 607.8057,554.5987 627.0089,504.4073 645.0459,453.5048 666.1541,390.9342 710.0139,257.1389 721.6304,222.9686 729.3407,201.427 716.1805,231.3558 701.1174,261.7056 682.6617,295.8511 663.767,327.9896 645.7179,356.5047 626.1313,385.689 607.3867,412.366 569.6523,464.74 555.1956,485.6064 541.25,507.25 530.0929,526.6695 523.0975,540.3429 517.375,552.8281 512.0018,566.1624 507.413,579.3136 502.8152,594.2721 499.3638,606.8804 487.1395,657.626 483.7286,670.5014 478.1746,688.2055 473.2976,701.304 469.2969,710.1356 465.4555,717.4704 461.5743,723.7514 457.2058,729.5888 452.3393,734.9089 447.3368,739.279 442.5925,742.3584 437.449,744.6117 431.8428,745.8902 425.8285,745.9823 419.4593,744.7942 413.8397,742.6433 407.9985,739.2434 402.2081,734.7662 396.0598,728.9008 389.9648,721.9198 383.9068,713.8061 377.9315,704.6578 372.0786,694.5781 366.3936,683.6395 360.7073,671.4808 355.0413,658.1528 349.4233,643.7181 343.8397,628.1134 338.5065,611.7183 333.3304,594.1174 328.4828,575.8593 324.1086,557.5461 320.3136,539.7572 317.0588,522.285 314.2521,504.6194 312.0016,487.3802 310.3974,471.5024 309.3679,456.4943 309.0272,443.6049 309.2852,431.1858 310.1713,419.4277 311.7107,408.5438 313.8475,399.0451 316.4937,391.2491 319.1068,385.838 322.0918,381.2844 325.4196,377.575 329.3325,374.5225 333.5698,372.4077 338.0066,371.2071 342.7923,370.7789 348.1695,371.1528 353.7544,372.3298 359.8824,374.4032 365.7327,377.0508 372.8771,380.9961 380.024,385.5608 387.499,390.9455 394.9095,396.875 402.3494,403.4151 410.3963,411.039 418.179,418.9563 425.3801,426.8266 432.2582,434.9223 440.3327,445.0633 447.8787,455.1828 454.4331,464.6518 461.1037,475.0952 467.0334,485.0396 472.4122,494.8149 482.0615,514.9203 486.0817,524.5724 489.7111,534.3987 493.6965,546.1871 496.6459,556.1864 501.9473,578.8028 506.1647,604.1096 508.6102,627.158 510.4835,658.8224 511.2408,681.1564 511.5543,719.2271 511.4147,745.1308 510.7347,773.3837 509.5366,790.6071 507.9492,803.5642 506.6334,810.4376 504.5532,818.211 500.4587,829.9763 497.4264,836.4436 493.4398,843.8889 490.0269,849.5132 486.1481,855.1019 481.8904,860.5046 477.3098,865.6561 473.0338,869.7775 468.1896,873.7688 463.5965,876.9974 458.7928,879.7291 453.8808,881.8502 448.875,883.375 444.611,884.1946 440.0992,884.554 435.6956,884.3968 431.4424,883.7759 426.9682,882.6408 422.4551,881.0132 418.2201,879.0271 413.8138,876.4778 409.5236,873.5234 405.0756,869.9725 396.3385,861.579 387.4731,851.1888 378.5259,838.7346 369.7176,824.542 360.9565,808.5281 352.1105,790.4239 343.5252,770.93 335.0447,749.6766 326.4921,726.2363 318.0547,701.1018 309.792,674.4641 300.866,643.2596 292.7336,612.2026 284.8393,579.1899 277.5758,545.7872 270.9748,512.117 265.2797,479.4086 260.6585,448.7552 257.0165,419.3874 254.4522,392.3122 252.9107,367.3435 252.3928,344.7029 252.9122,324.2905 254.4399,306.947 257.0015,291.8784 258.7095,285.0304 260.6713,278.8055 262.8802,273.1967 265.3292,268.1966 268.3629,263.2901 271.6821,259.1346 275.2773,255.7197 279.1385,253.0353 283.3916,251.014 287.9884,249.6614 292.8258,248.9721 298.2269,248.9213 303.8514,249.528 310.0434,250.8369 316.4276,252.7712 323.362,255.434 330.4401,258.6591 337.9366,262.5451 355.2225,272.8567 374.1605,285.7772 395.8433,302.0708 423.0142,323.8919 449.1909,346.0849 484.8124,377.9092 510.8915,402.7 527.378,419.2068 556.5026,450.1309 569.6329,463.6245 574.3315,467.7245 578.7614,470.9706 582.5238,472.9757 586.125,474.125 589.913,474.3474 593.6684,473.5608 597.1908,471.9272 601.1898,468.9815 605.1169,465.0412 609.6669,459.4198 614.0558,453.0961 618.5124,445.7692 623.8124,435.9925 630.0251,423.3029 637.2002,407.4996 643.5823,392.5235 650.0833,376.1023 655.1082,361.9301 657.9598,352.2424 658.3587,349.9204 658.135,349.1138 657.3935,349.2735 656.12,350.6142 650.891,358.1476 635.1446,384.6989 625.7161,401.3333 616.4355,418.5136 606.0165,439.8548 599.0496,456.1746 595.6051,466.0646 594.1094,471.3594 592.9737,477.2731 592.8246,481.4269 593.4398,484.3426 594.1852,485.1574 595.125,485.5 597.1363,484.8711 600.2168,482.3049 603.8662,478.058 607.5511,472.7978 611.8774,465.5008 617.5734,454.985 626.7929,435.8895 632.2256,423.8083 639.7216,405.8167 651.5627,375.1739 659.0701,353.2917 660.7558,346.71 660.875,345.125 660.587,344.3296 659.921,344.432 658.8365,345.4524 655.256,350.4013 638.6697,377.8202 619.3952,412.0833 610.8016,428.4519 604.4686,441.3439 597.1843,458.5037 593.5496,468.7 591.7181,475.2425 590.3765,481.7697 590.1089,486.8188 590.8063,489.8619 591.6398,490.9389 592.4113,491.3573 594.5835,490.8958 597.7416,488.5533 601.3863,484.4202 605.7694,478.2856 609.4618,472.292 615.813,460.766 625.2188,441.5 638.5291,410.587 650.5027,380.0783 657.6004,360.4173 661.77,347.6283 663.3401,341.7192 663.5032,339.7562 663.186,339.025 662.0,339.625 660.5025,341.334 654.6629,350.1659 644.6567,366.7194 630.623,390.9632 615.4306,418.3892 607.5777,433.5294 601.7425,445.6817 597.0741,456.0185 593.4712,465.0186 590.7528,473.032 588.4129,481.6286 587.3858,487.5622 587.1293,492.8931 587.8453,496.2161 588.62,497.369 589.5312,497.8438 591.99,497.4339 595.2011,495.1943 598.8667,491.2359 603.1776,485.3882 607.5485,478.3526 612.6742,469.1771 624.1903,446.1294 630.6951,431.5066 638.5392,412.7943 653.0287,375.6294 659.0678,358.8755 663.496,345.466 666.0059,336.481 666.3866,334.0408 666.2088,333.0871 665.291,333.3535 663.759,335.052 657.9082,343.6829 634.2534,383.6351 614.2066,419.4 605.5616,435.8974 598.686,449.989 594.1205,460.4863 589.5863,472.0921 586.9132,480.1242 585.1022,487.2656 583.8229,494.9475 583.7797,500.142 584.1041,502.2606 584.7201,503.9035 585.6348,504.9492 586.7754,505.4401 588.0192,505.3998 589.4642,504.8916 593.0505,502.3055 597.1886,497.7108 601.5142,491.7323 606.2862,484.09 611.6958,474.2748 617.4135,463.1708 622.803,451.8513 630.1961,435.2169 639.7398,412.3473 654.9166,372.9195 662.2684,352.3507 666.848,338.5438 669.3648,329.428 669.6666,327.3594 669.4076,326.2434 668.4473,326.6621 666.6455,328.7898 660.3511,338.4039 625.9127,397.185 607.3925,430.6286 594.7402,456.1031 589.5226,468.2005 585.7286,478.0974 582.8357,487.2043 580.7635,495.7603 579.8885,502.7393 579.9077,508.6385 581.2003,512.758 582.2359,513.8474 583.584,514.291 584.9984,514.2032 586.6645,513.5442 590.2918,510.8109 594.8668,505.7113 599.7995,498.8626 604.5734,491.1879 609.5485,482.2111 622.4248,455.7818 630.8642,436.6442 640.2403,413.9346 647.6575,394.9989 658.8913,364.9792 663.6759,351.6191 670.8782,329.8628 673.2656,321.4062 673.5757,319.3162 673.375,318.5 672.5627,318.6946 670.9099,320.5696 664.655,330.1737 642.292,367.7894 622.2594,402.3895 604.6746,433.7354 596.188,450.2495 590.7343,461.7032 585.2842,474.3504 581.4677,484.6285 578.087,495.6752 575.9903,505.073 575.2136,512.4412 575.5144,519.1751 576.1768,521.4232 577.25,523.375 578.3679,524.3602 579.8026,524.7774 581.4448,524.6265 583.1674,523.9329 587.136,520.9655 591.5934,516.1318 596.7627,509.0388 602.1295,500.4178 608.0009,489.8382 614.5434,476.8677 621.1506,462.844 636.651,426.621 652.9472,384.4907 665.2734,350.6509 671.3475,332.9193 676.8574,315.2285 677.8594,311.0625 677.82,309.2766 677.0333,309.5524 675.4958,311.3266 670.1312,319.645 616.6576,410.4211 599.0729,441.7987 591.3466,456.9193 585.6062,469.0431 579.8733,482.5711 575.6389,494.3611 572.3546,505.7157 570.25,516.375 569.6011,524.1803 570.1909,531.3815 570.9671,533.9296 572.1237,535.9579 573.266,536.9834 575.0055,537.5765 576.625,537.5 578.6107,536.8415 580.8591,535.5366 582.9314,533.8876 588.0027,528.458 593.0815,521.6852 598.8776,512.4877 604.8053,501.8954 612.1779,487.2753 619.2275,472.2454 627.1,454.2124 634.7813,435.6161 654.6127,384.0896 666.8821,350.1844 677.4104,319.4776 682.2317,303.9573 683.2087,299.7866 683.1788,298.1708 682.5444,298.35 681.1711,300.0179 676.309,307.7325 606.3295,426.2987 590.8033,454.4645 584.1918,467.4649 578.9169,478.7682 573.2685,492.6019 567.9967,508.1077 565.2822,518.6244 563.2916,529.9541 562.7609,539.5615 563.0572,543.4096 563.7756,547.0395 564.7689,549.922 566.091,551.9718 567.9646,553.4835 569.7644,553.9923 571.9268,553.7681 573.9222,553.0461 576.2312,551.695 578.6956,549.7284 583.875,544.25 589.915,535.9583 596.2618,525.6518 603.2324,512.8473 609.8709,499.4264 618.7495,480.1349 626.5358,461.9815 638.3353,432.5258 659.5891,375.882 673.0833,337.7356 684.5881,303.7273 689.092,289.4379 689.9449,285.86 689.9436,284.1913 688.559,285.407 685.5574,290.0741 652.2011,348.0973 612.8715,413.0125 595.9706,441.4869 581.3725,468.0879 575.5124,479.8834 570.3747,491.1686 563.9849,507.1012 559.5156,520.9863 556.2489,534.3706 554.2179,548.1356 553.9468,553.8821 554.0612,560.5014 554.5408,564.6779 555.5626,568.9291 556.7638,571.963 558.5498,574.5474 560.7267,576.2085 563.1094,576.7344 565.4693,576.4161 567.7908,575.5385 570.0159,574.1789 572.7342,571.9804 578.4074,565.975 584.8369,557.0751 592.0292,545.3932 599.1797,532.2793 607.4525,515.3117 615.732,497.0542 624.36,476.4125 635.7802,447.6043 657.0625,390.2556 670.3438,352.5878 692.2017,288.5213 697.6655,271.4391 698.8294,267.2088 698.9876,265.5149 697.9077,266.4999 695.7127,270.0317 672.7361,311.7731 654.3209,343.2587 631.8983,380.0704 600.7012,429.8325 583.1783,458.9205 575.4913,472.5836 568.1718,486.4082 562.7465,497.7042 557.5194,509.7259 550.9785,527.2575 546.0935,544.4689 542.6979,561.8885 541.7333,570.2146 541.195,578.6466 541.2367,585.9761 541.7612,592.7856 542.8606,598.9028 544.4541,604.3448 546.3393,608.2046 548.603,610.989 551.2323,612.5536 554.4567,612.976 556.993,612.4 559.7904,611.056 562.5892,609.077 565.5737,606.3701 572.4755,598.4029 579.3679,588.4 586.8099,575.6727 594.5417,560.731 603.4954,541.688 612.5763,520.8632 621.344,499.4057 630.7204,475.2518 651.1924,418.9947 668.6708,368.4426 706.2843,257.0911 711.4237,241.5694 712.6282,236.922 710.9701,239.5245 696.3754,268.3264 684.6457,290.3537 671.5987,313.5658 657.7768,337.0047 632.7886,376.8687 581.3657,454.9098 563.0259,484.6253 554.8714,499.2749 547.2783,514.1355 541.5898,526.8025 535.8352,541.2684 531.8407,552.9376 528.1238,565.8374 525.201,578.1371 522.7562,591.0389 520.3251,608.5212 519.4338,617.4169 518.4863,632.9404 518.0749,649.5272 518.3453,664.4826 519.3241,680.2546 520.668,691.1934 522.6715,700.588 525.0553,707.5364 526.2749,709.7122 527.8991,711.746 529.5581,713.2818 531.3028,714.1458 533.2252,714.4904 535.2023,714.3159 538.0558,713.2311 541.0539,711.2271 544.625,708.0469 548.4009,703.9016 556.0845,693.2116 564.4214,679.2197 573.4199,661.9741 582.6809,642.0608 593.1318,617.6487 603.538,591.4414 620.2442,546.2323 637.8449,495.1142 659.247,429.7263 705.744,282.7497 721.8165,233.0048 738.1168,185.0516 744.1077,169.2801 746.1725,164.5018 747.1207,163.0074 746.2952,166.4282 743.7746,173.8438 736.5615,192.31 727.7489,212.5394 717.3726,234.6649 707.4244,254.5719 697.0984,274.0172 685.9346,293.7646 674.0681,313.6807 661.7535,333.3615 649.1386,352.5846 636.6168,370.7838 623.1397,389.4856 609.6675,407.4287 594.4172,427.0702 539.875,495.2782 525.7592,514.108 514.7539,529.9863 507.417,541.4896 501.575,551.4282 495.6885,562.4069 489.527,574.8888 480.8218,594.8735 464.713,636.2507 459.3472,648.2675 454.7018,657.3269 448.7445,666.9208 442.6707,674.3078 439.3181,677.4408 436.0637,679.8924 432.4925,681.9936 429.3548,683.328 425.0266,684.3632 420.4031,684.5265 416.0214,683.8643 411.572,682.3598 406.9468,679.9604 402.1535,676.6355 397.9484,672.9158 393.4208,668.0807 388.7929,662.3347 383.9337,655.5081 379.8139,648.8712 375.7294,641.4592 371.1546,632.2144 366.3571,621.4992 358.8758,601.988 350.7573,576.2264 344.7483,552.801 342.086,540.0377 339.8334,527.3347 338.0536,515.1864 336.7499,503.4132 335.9586,492.4972 335.6234,481.7912 335.7809,471.8303 336.3823,463.4747 337.4565,455.9212 339.0726,448.8186 341.1467,442.6621 343.7266,437.3581 345.6517,434.4799 347.7649,432.0515 350.0501,430.0636 352.8063,428.3423 355.4032,427.2599 358.4691,426.5339 361.854,426.3105 365.2694,426.5741 368.807,427.2836 372.439,428.418 380.2501,432.091 389.1301,437.9628 397.7664,445.0798 407.2288,454.5356 416.7463,465.4621 423.9358,474.9921 432.6012,488.1483 439.4395,499.9952 446.0735,513.4612 451.5458,526.2489 456.3241,539.5875 460.0095,551.9279 462.9062,564.4971 465.2758,577.5868 466.7726,590.0875 467.5554,603.3109 467.525,617.892 466.9365,628.4988 465.4857,639.9408 463.2525,651.6644 460.0562,663.7343 456.8118,672.6211 452.4983,681.659 447.8978,688.8794 442.5244,695.1374 439.7381,697.6242 436.7346,699.7968 433.7759,701.4555 431.0247,702.5856 426.263,703.683 421.4713,703.8159 416.7305,703.0001 411.7724,701.171 406.5269,698.2586 401.7425,694.7433 396.8901,690.2383 391.6611,684.3881 386.2947,677.3887 381.6435,670.4697 376.7939,662.2922 371.9217,653.121 366.8547,642.5991 362.0847,631.7357 357.7652,620.7768 353.4738,608.751 349.0047,594.9637 344.5721,579.9252 341.0998,566.8174 337.8623,553.0587 334.8449,538.4306 332.2662,523.8726 330.2601,510.2849 328.7413,496.9132 327.7788,484.4646 327.3255,472.6716 327.3884,461.6781 327.9753,451.7564 329.113,442.7692 330.778,434.7731 332.9442,427.827 335.5854,421.9899 337.6559,418.661 340.26,415.5124 342.8238,413.2184 345.8921,411.2529 349.1656,409.884 352.6173,409.0936 356.4242,408.8647 360.4384,409.2087 364.602,410.0926 368.8824,411.4873 373.2469,413.3639 377.663,415.6935 387.9576,422.5316 398.5624,431.2206 408.8422,441.3416 419.8631,453.9513 429.8305,467.0112 439.2969,481.1562 447.4714,495.1467 455.3238,510.6867 461.3544,524.7292 466.9493,540.3841 470.9094,554.0189 474.6936,570.6629 476.9315,584.5286 478.5632,599.7631 479.2778,615.1019 479.161,627.999 477.923,644.3701 476.0182,658.2354 473.3434,671.6081 469.363,685.5769 465.3487,696.1954 460.342,706.4404 454.5322,715.3725 448.6504,722.1876 445.625,724.875 442.1738,727.375 438.8848,729.2422 435.4241,730.6868 429.9476,731.9715 424.3439,732.0988 418.7622,731.069 412.8214,728.7825 407.2213,725.5274 401.4374,721.0143 395.7078,715.4622 389.5625,708.3928 384.0838,701.0051 378.3352,692.0449 372.6999,682.1276 366.7893,670.5879 361.6695,659.6207 356.5972,647.6111 351.4838,634.3204 346.4875,620.1603 341.1259,603.6193 336.7019,588.628 332.3818,572.2664 328.4411,555.5296 324.7599,537.8719 321.5151,520.026 319.0594,503.8935 317.1589,488.1664 315.8643,473.4266 315.1447,459.473 315.0196,446.8306 315.5075,435.4105 316.5997,425.0239 318.3383,415.3784 320.6517,406.9744 323.5,399.875 325.9067,395.563 328.8705,391.639 331.8716,388.7356 335.4264,386.3012 339.2441,384.6068 343.2934,383.6269 347.7024,383.3339 352.7443,383.7791 357.6255,384.8605 363.0004,386.678 368.4811,389.1205 374.0223,392.1305 380.6434,396.3356 387.2178,401.0195 393.7641,406.1716 400.5198,412.0074 414.3228,425.6006 427.6867,440.6841 440.4606,457.2788 451.7632,473.905 462.2539,491.9966 471.3532,510.062 478.7795,527.7999 484.9603,545.9255 489.8591,563.7307 493.4507,581.6522 496.0288,599.219 497.7787,618.7795 498.4066,638.3706 497.883,659.635 496.2585,679.4965 493.5245,698.4973 489.7724,716.3453 485.052,732.5131 479.7549,746.3364 473.933,757.9263 470.4101,763.7745 466.9784,768.728 463.1036,773.4726 459.148,777.64 455.1766,781.1617 450.8278,784.2923 446.5531,786.6855 442.404,788.3543 435.6426,789.798 428.8299,789.8588 422.1027,788.4747 415.2789,785.6514 407.9584,781.1958 401.2383,775.7632 394.2094,768.6631 386.8829,759.77 379.8882,749.894 373.1497,739.0037 366.2716,726.4377 359.4546,712.5632 352.5596,697.0937 345.8284,680.5641 339.487,663.4615 333.2494,645.0778 326.6105,623.6966 320.2409,601.2159 314.4219,578.6801 309.1475,555.9724 304.3856,532.9563 300.2118,509.9756 296.7537,487.7395 294.0554,466.5884 292.1901,447.0644 291.082,428.6026 290.7455,411.4007 291.1759,395.9887 292.3348,382.4504 294.2199,370.7019 296.8646,360.5171 300.3775,351.5741 303.8509,345.4294 307.7844,340.468 312.1443,336.6846 317.1045,333.9686 322.7346,332.3206 328.7534,331.8001 335.4784,332.3805 342.4913,334.0224 350.1219,336.7924 358.9291,341.0015 367.8164,346.0803 377.4063,352.3694 386.9405,359.3698 396.5095,367.0941 407.7832,376.8988 418.6757,387.0475 427.7539,396.0689 436.3226,405.1178 446.9268,416.8332 456.0818,427.5008 470.1411,445.5683 484.5207,466.2193 492.1937,478.4582 499.6396,491.2602 505.0984,501.5448 510.8251,513.4793 516.2517,525.7528 522.6823,541.7489 535.407,576.1397 540.9367,588.1727 545.0886,594.4813 547.0146,596.7109 548.9041,598.279 551.2602,599.5637 553.7051,600.321 555.7645,600.4522 557.9508,600.0951 560.6464,599.0926 563.4919,597.4709 569.1869,592.5684 575.6501,584.9952 582.4566,575.0559 590.0081,561.9983 598.4652,545.7497 605.682,530.4726 614.9412,509.3472 623.805,487.8018 633.5473,462.6918 643.9942,434.6401 654.8978,404.2277 671.99,355.227 703.0928,263.2736 707.196,250.7239 708.3132,245.8868 706.4205,248.8156 691.6303,277.0995 680.2748,298.0835 669.6222,316.8966 658.6755,335.4567 634.8246,374.2044 590.5054,442.4822 569.1579,477.1581 561.3545,491.0967 554.4189,504.5465 548.5029,517.2728 543.3505,529.7603 539.081,541.7131 535.0149,555.143 532.5239,565.1008 530.0,577.5 528.3928,587.6524 527.1014,599.6172 526.4565,609.748 526.2373,620.4005 526.8226,633.6147 527.6259,641.01 529.2344,650.4782 531.6052,658.1185 534.4341,663.2903 535.7948,665.0008 537.285,666.2636 538.9431,667.1256 541.0569,667.6709 543.0324,667.6296 545.212,667.0577 547.966,665.7432 550.8356,663.7548 554.0874,660.8137 557.293,657.3266 564.3984,647.8938 571.875,635.875 580.5334,619.7831 589.375,601.5 598.7269,580.3004 608.7954,555.712 626.7096,508.3835 646.2203,452.686 666.6881,391.8505 711.9275,253.0888 726.25,211.125 731.9716,195.9956 725.8711,210.6375 718.4527,227.1446 710.8387,243.0242 702.0378,260.4517 683.1668,295.3533 662.9853,329.4606 644.447,358.5723 624.94,387.2894 604.0411,416.6341 566.4815,467.9372 553.8101,485.9689 537.9021,510.2298 527.6645,527.6191 521.2515,539.8623 515.215,552.611 509.7063,565.6233 505.1343,577.8472 496.9732,603.8371 480.5445,665.2693 475.4279,680.9287 469.9033,694.8409 466.3452,702.3323 462.3559,709.5357 458.4389,715.545 454.2471,720.9546 450.0364,725.4393 445.4835,729.2805 440.7727,732.2569 436.2888,734.2094 430.7359,735.5147 425.0781,735.6903 419.7322,734.7658 414.1084,732.6947 408.1736,729.4105 402.3668,725.1522 396.6497,719.7981 390.7522,713.106 384.9208,705.388 379.1465,696.6873 373.4378,686.9103 367.8694,676.2418 362.1182,664.0399 356.4895,650.9022 351.3395,637.668 346.182,623.1214 340.9587,606.9781 335.8638,589.6968 331.3851,572.9781 327.4095,556.2921 323.7057,538.6375 320.4957,521.014 317.7646,503.3252 315.7531,487.1542 314.429,472.3574 313.6802,457.9076 313.5586,444.7611 314.0467,432.6879 315.0966,422.3156 316.8348,412.591 319.0654,404.4608 321.9582,397.1933 324.5556,392.481 327.4463,388.5789 330.7435,385.3783 334.1402,383.0791 338.1295,381.3333 342.3792,380.3469 346.8523,380.0833 351.5121,380.5054 356.6935,381.6727 362.2645,383.5828 368.3084,386.3038 374.4415,389.6682 380.6027,393.5995 387.117,398.3125 400.8891,409.8031 407.8674,416.3799 414.9114,423.554 429.6704,440.2974 441.8382,456.0721 454.6394,475.032 463.5805,490.3088 473.9201,511.006 481.5038,529.5285 487.6135,547.3909 492.4897,565.8767 496.0498,583.574 498.5868,601.1677 500.4829,622.4214 501.1477,643.3827 500.6659,666.625 499.256,685.3749 495.9685,708.6135 491.9501,727.349 487.3038,743.097 482.36,755.8203 478.7359,763.3202 475.1175,769.9571 471.6545,775.5164 468.0858,780.4446 464.1646,785.0855 459.8575,789.4568 455.828,792.839 451.7929,795.5697 447.4211,797.8785 443.0021,799.6018 439.5374,800.5075 435.9145,801.0386 428.937,800.9209 422.0928,799.4362 415.0314,796.3939 407.4974,791.5384 399.75,785.0 392.912,777.9026 385.8164,769.0909 378.7068,758.8154 371.62,747.1493 364.6781,734.3282 357.7101,719.9537 350.6748,703.908 343.7572,686.6198 336.847,667.8131 330.253,648.3188 323.57,626.6169 317.0756,603.4086 310.9533,579.3047 305.3635,554.9714 300.5118,531.4522 296.2454,507.9162 292.6405,484.7299 289.7964,462.5856 287.7604,442.1008 286.4995,423.3006 286.0522,406.8484 286.364,391.2603 287.4768,376.75 289.3689,363.8753 292.0158,352.7415 295.4409,343.3485 298.593,337.376 302.4249,332.145 306.7031,328.0476 311.6938,324.887 316.7686,322.989 322.517,322.0662 328.789,322.2144 335.4592,323.3417 342.7433,325.4802 350.6004,328.6602 358.6021,332.6864 367.0268,337.6729 377.278,344.553 387.6245,352.1739 398.1279,360.5706 408.6436,369.6389 427.6395,387.5811 445.3535,406.0551 465.3176,429.2042 473.4753,439.3796 480.2971,448.4687 489.5584,461.6739 497.1387,473.2766 504.7581,486.1157 512.471,499.9582 516.6788,508.1985 524.1667,524.1094 538.4716,557.3466 544.959,569.8789 548.9149,575.388 552.8137,579.0859 554.8366,580.2461 557.2855,581.0996 559.3483,581.3768 561.472,581.162 564.0909,580.3464 567.25,578.75 572.4567,574.6631 578.5,567.875 585.3974,558.2612 591.9482,547.5711 599.3338,533.8241 607.1801,517.7861 615.375,499.663 624.1369,478.8834 633.3502,455.6711 644.5888,426.1191 655.7356,395.6682 669.7215,355.9974 690.1015,296.3943 699.3624,268.3813 700.9805,262.8586 701.2733,260.7232 700.3431,261.6104 698.1838,265.2119 676.6518,304.7511 656.5246,339.4338 632.6809,378.4632 594.2123,439.3815 580.1622,462.7835 572.5403,476.2991 565.5439,489.6577 559.5154,502.1129 554.4371,513.8519 550.2314,524.7667 547.2462,533.4703 544.3937,543.129 542.0033,552.7378 540.1549,562.1197 538.8138,571.3346 538.0407,579.9059 537.7202,589.0023 537.939,596.8665 538.7057,604.4186 540.0946,611.2608 541.8191,616.4704 544.1555,620.3387 546.8148,622.9537 550.0752,624.1672 551.854,624.2264 553.7824,623.8657 556.5926,622.6759 559.2357,620.9304 562.3416,618.2398 565.6093,614.865 572.2946,606.4122 579.6225,595.0601 587.4363,580.9907 595.961,563.8955 603.5138,547.3278 613.5238,523.734 621.7656,503.1962 629.8931,481.8365 651.0072,423.2511 671.9085,362.3626 714.5027,235.8372 716.7485,228.231 700.6785,260.4834 690.2258,280.5778 678.3616,302.0932 665.001,325.0622 650.3157,349.1396 634.7297,373.5749 584.9079,447.8212 565.125,478.375 557.7637,490.5531 550.7577,502.997 544.1949,515.5323 538.6398,527.1732 531.3883,544.3921 525.8911,560.2782 521.2877,576.3792 517.0091,595.9872 513.6567,616.5084 511.5,634.125 506.9815,686.8741 505.2523,704.3749 503.4902,718.6337 501.5938,731.1838 499.432,742.4155 497.4486,750.8767 494.4264,761.4763 489.9156,774.4266 485.292,784.936 479.9727,794.6662 473.3594,804.375 467.375,811.375 460.1403,817.9191 453.0746,822.5102 445.9498,825.5339 442.3416,826.4719 438.5338,827.0423 434.4931,827.2068 430.5251,826.9543 426.7322,826.2837 423.134,825.2542 415.5332,821.8745 407.6916,816.8115 399.9601,810.2881 392.3818,802.2406 384.4653,792.1579 376.4657,780.3043 368.6369,767.1075 360.8333,752.25 353.1794,736.0147 345.4283,717.8581 337.9536,698.6375 330.6998,678.2418 323.6829,656.69 316.0968,631.2355 308.8124,604.4412 301.926,576.6028 295.8273,549.3359 290.4642,522.3985 285.7788,495.5756 281.9047,469.6535 278.8498,444.6459 276.7924,422.2371 275.673,402.0068 275.4281,383.2996 276.0783,365.8916 277.5909,350.7022 279.9667,337.4682 283.2118,326.2997 285.1655,321.4791 287.3281,317.1582 290.5967,312.0517 294.4646,307.5754 298.6976,304.0679 303.2665,301.4957 308.1418,299.825 313.2944,299.0221 319.3349,299.0651 325.6418,299.9754 332.5414,301.7852 339.6557,304.3812 347.2981,307.8562 355.427,312.2097 364.2085,317.5559 373.7332,323.9324 383.5145,331.0155 393.7795,338.98 414.9186,356.9179 437.9779,378.3444 457.771,398.4444 477.6285,420.4027 486.5444,431.0406 496.9879,444.226 505.2988,455.3098 512.4624,465.5439 524.999,484.8321 545.8984,520.7667 553.2337,532.1147 557.4723,537.1053 561.2993,540.4285 565.401,542.454 567.4584,542.9266 569.5238,542.9847 571.6875,542.625 574.3115,541.7018 579.2246,538.7207 584.5093,533.8323 590.2741,526.8709 596.25,517.9861 602.9877,506.5084 609.8401,493.4891 617.089,478.4689 625.0895,460.5864 633.5647,440.3871 643.8301,414.6091 653.3394,389.5659 666.506,353.2391 679.6268,315.6624 685.3226,297.6868 686.4754,293.0177 686.4769,291.1759 685.8711,291.4033 684.7906,292.6662 680.7675,298.9163 654.5182,344.4821 602.0152,432.3516 585.9157,461.4776 580.1,473.2639 573.8184,487.055 568.0961,501.4604 563.3566,516.0585 560.2047,529.2364 558.6574,540.7072 558.4064,546.1358 558.5573,550.8189 559.125,555.25 560.126,558.9613 561.5263,561.8453 563.0869,563.7424 565.0968,564.8047 567.875,565.0 569.8799,564.4693 572.1034,563.3084 574.8914,561.2308 577.5289,558.7719 583.306,551.9946 589.3572,543.1449 595.6944,532.7176 601.3575,522.1901 609.1313,506.2264 617.25,488.25 625.9734,467.7627 633.9506,448.0126 654.4952,393.3087 671.2315,346.2697 685.6869,304.0972 693.0076,281.3779 694.2869,276.6982 694.375,275.125 693.0568,276.3143 690.2091,280.8479 670.2841,316.414 650.9939,349.3842 604.7369,424.8828 590.2587,449.0944 582.5106,462.8458 575.5265,476.0268 569.2574,488.7641 563.9083,500.6423 557.4667,517.7257 552.5171,534.2042 549.4154,549.0027 547.9838,563.5423 547.9382,570.1638 548.3822,576.8299 549.1986,581.6211 550.625,586.25 552.3716,589.6111 554.5738,591.9774 557.1574,593.25 559.8757,593.3229 562.256,592.6493 564.7228,591.3836 567.4446,589.445 570.3662,586.7968 576.6812,579.404 583.2377,569.9367 590.4161,557.8227 597.7834,543.8427 605.7625,527.1061 614.2283,507.9216 624.1431,483.949 633.5829,460.0249 652.8938,407.3748 671.645,353.6446 697.313,278.2489 704.0012,257.7938 705.3172,252.2726 704.4707,253.0953 702.4969,256.4488 686.588,286.3918 674.3707,308.63 654.7656,342.3125 635.9338,372.7976 590.5995,443.5069 575.6868,467.9395 566.3766,484.4252 560.3057,495.8963 554.1556,508.7745 548.4853,521.9716 544.4757,532.6922 540.6566,544.3481 538.0953,553.6978 535.7686,564.0472 533.7782,574.9509 532.2845,586.0599 531.6586,594.2631 531.3507,605.416 531.6129,613.5919 532.4082,622.752 534.125,631.625 535.75,636.7188 538.2004,641.6357 540.8591,644.6277 542.6853,645.8369 544.313,646.4832 546.0945,646.6771 548.0319,646.4281 550.9115,645.4004 553.7157,643.7432 556.7832,641.2941 559.9448,638.1659 567.0159,629.408 574.293,618.2281 582.5258,603.3913 591.3551,585.5601 600.7425,564.8642 610.3604,541.9999 618.6112,521.0977 627.685,497.0033 647.5087,441.3926 668.9078,378.1823 705.9736,266.1476 724.655,211.3821 711.221,240.5897 696.8543,269.0613 680.5747,298.8853 662.6981,329.3346 646.6819,354.9536 628.1432,383.003 611.3159,407.5029 575.1234,459.0152 560.5625,480.5312 545.8519,504.0347 533.7369,525.8487 527.1982,539.3133 521.0924,553.8791 515.8945,567.9251 511.1483,583.2279 507.4531,597.0 504.1237,611.2794 493.0779,666.9629 489.4173,682.9999 483.8931,703.204 478.4395,718.7148 474.2153,728.5025 469.7852,737.0701 465.3196,744.2091 460.4005,750.6039 454.9821,756.4125 449.4976,760.9421 443.9414,764.242 438.3077,766.3347 431.75,767.375 425.4047,767.0563 419.008,765.3807 412.5294,762.4036 406.1851,758.3256 399.8533,752.9902 393.2763,746.1309 386.6991,737.9926 380.2518,728.8026 373.9613,718.5293 367.3984,706.4508 360.9258,693.2123 354.2479,678.2016 348.5628,664.1681 342.7206,648.3326 337.0153,631.4225 331.026,612.0101 325.2386,591.4395 320.4165,572.4691 315.9125,552.7119 311.6472,531.6449 307.9348,510.6673 304.8254,490.091 302.6361,471.8802 301.1403,454.443 300.3382,437.9706 300.2296,422.6542 300.8146,408.6849 302.0302,396.8772 303.9608,386.2834 306.5608,377.1046 309.943,369.0766 313.6282,363.0979 318.0215,358.3217 320.4145,356.4647 323.2573,354.7632 329.0192,352.6209 335.2235,351.8006 342.1821,352.2686 349.5682,354.04 357.5973,357.1046 366.5149,361.5904 376.22,367.5581 385.8846,374.4876 396.5199,383.0639 407.3788,392.6803 417.8294,402.7798 428.7476,414.2634 439.2682,426.1472 453.2282,443.5127 461.1714,454.3913 468.1122,464.5128 474.0572,473.834 479.6738,483.3657 490.5682,503.6325 495.7599,514.9516 501.0784,527.854 505.0,538.5 510.345,554.543 516.7367,577.9307 523.9766,609.2422 527.3175,622.3571 531.7289,635.7336 533.5116,639.6762 535.75,643.625 537.2536,645.6388 538.9322,647.2154 541.625,648.875 543.6624,649.5016 546.2995,649.5232 548.7135,648.9103 551.5853,647.4986 554.606,645.3717 557.5281,642.7583 560.8866,639.1303 568.1387,629.5977 575.7302,617.4201 583.7757,602.6454 591.8321,586.0315 601.2807,564.9072 610.5911,542.4939 619.8801,518.8716 628.85,495.0075 649.8592,435.6427 663.3622,395.8127 704.1495,272.196 725.775,208.8879 712.9037,237.1695 697.4029,268.0334 680.6418,298.8856 663.0726,328.8195 646.6052,355.1318 629.2929,381.3086 572.0268,463.0182 560.3144,480.2679 544.7992,504.7847 533.1053,525.6481 526.0665,539.9827 519.849,554.465 514.6389,568.4074 509.668,584.0843 506.2635,596.4062 502.469,612.1873 492.7392,659.2318 489.3379,674.1582 484.1743,693.9565 480.3743,705.6485 477.4769,713.4808 473.3133,722.9908 469.3302,730.7145 464.2772,738.8806 459.5778,745.2499 454.7072,750.6036 449.7922,754.7701 444.4028,758.135 439.011,760.439 432.9489,761.7447 426.7576,761.7698 420.536,760.5791 414.2374,758.0311 407.5854,753.9736 400.6606,748.435 394.5698,742.3942 388.3028,734.9123 381.8499,725.9209 375.2011,715.3517 369.1498,704.5551 362.9781,692.2289 356.789,678.533 350.6109,663.5098 344.3932,646.9825 338.7981,630.6837 332.9647,611.9855 327.3131,592.0108 322.017,571.3318 317.1841,550.3622 313.2119,530.7419 309.7932,511.2016 306.9635,492.0022 304.7584,473.4046 303.279,456.5237 302.5334,441.4613 302.4508,426.9862 303.076,413.3151 304.4061,401.01 306.3607,390.4825 308.9905,381.3615 312.2297,373.7869 316.0611,367.6478 320.447,362.9208 325.3497,359.5823 331.017,357.522 337.4887,356.7534 344.7449,357.3586 352.339,359.2897 360.5459,362.6057 369.8642,367.6082 379.9148,374.0886 389.956,381.5504 400.3582,390.2548 411.5767,400.6404 422.5579,411.7698 432.6465,422.9087 443.4883,435.8857 457.5348,454.5227 471.7554,476.1137 480.8358,491.9369 491.5792,513.7934 496.4163,525.3909 501.6506,539.5276 504.9192,549.5677 509.6745,565.9442 515.4319,590.5858 524.2169,635.0816 527.1173,646.2995 528.6411,651.0569 532.2594,659.1738 534.2236,662.0537 536.2262,664.1718 538.5625,665.5469 541.1257,666.1847 543.4259,666.1569 546.1989,665.3091 549.2206,663.6565 551.873,661.656 554.9375,658.7344 558.272,654.969 565.6926,644.8958 573.1643,632.7314 581.8336,616.3771 590.3483,598.6612 599.7268,577.241 609.5333,553.2398 626.5659,508.1848 644.5739,457.2363 665.5331,394.8213 712.8882,249.9981 725.0387,214.4196 731.5067,196.9273 726.6778,208.6604 718.6658,226.4438 710.4692,243.6181 702.0314,260.4055 683.5926,294.568 664.0328,327.7854 646.03,356.0761 626.0682,385.561 604.811,415.5449 566.7188,467.8274 552.8215,487.637 538.9866,508.9415 527.4655,528.6551 520.8063,541.4122 515.117,553.5229 509.9464,566.1698 504.6411,580.7644 496.489,607.1376 481.0713,666.1812 475.7051,682.5254 470.3825,696.059 466.6966,703.8271 462.808,710.9157 458.878,716.9767 454.7388,722.3085 450.4375,726.9015 445.8207,730.8257 441.095,733.8665 436.3406,735.9398 430.8836,737.154 425.0,737.25 419.4669,736.2646 413.6489,734.0772 407.8807,730.7918 401.9556,726.3103 396.273,720.8944 390.4104,714.1836 384.6233,706.4864 378.6767,697.4957 373.1866,688.0623 367.6719,677.4531 361.8043,664.9407 355.9261,651.157 350.7882,637.9844 345.7203,623.6882 340.3759,607.1096 335.287,589.7441 330.4388,571.5465 326.5596,555.1883 322.9625,537.8737 319.8534,520.575 317.2012,503.1632 315.0872,486.0982 313.7606,471.3152 313.0111,456.8875 312.8859,443.764 313.361,431.6767 314.4444,420.7523 316.086,411.4233 318.3011,403.2479 321.2024,395.9261 323.7818,391.2289 326.6588,387.3049 329.8695,384.1161 333.5569,381.5845 337.5478,379.835 341.8009,378.8351 346.275,378.5525 351.3234,379.0179 356.439,380.2179 362.5003,382.3728 368.7071,385.2314 375.0102,388.7389 381.026,392.6109 387.3756,397.2254 401.8079,409.3307 409.0252,416.1493 415.9977,423.2904 430.9729,440.4393 443.1406,456.2216 455.0811,474.1188 464.8244,490.7833 475.4982,512.1507 479.0297,520.2864 482.4864,529.2507 488.8591,547.9491 494.3561,569.3934 498.029,589.2101 500.4163,606.9005 501.9154,627.6776 502.4961,646.4998 502.1462,667.5 501.3305,681.3663 500.3921,691.292 499.0734,702.3689 497.1334,714.7876 493.1081,733.3679 488.5586,748.7013 482.707,763.3852 479.6755,769.5976 476.3111,775.5982 472.6821,781.3602 469.0899,786.2988 464.8528,791.2699 460.8072,795.3207 456.3901,799.0101 451.9813,801.9949 447.6619,804.2283 443.3883,805.7955 439.588,806.6954 436.0515,807.1523 429.0283,806.9663 421.8543,805.2365 414.4994,801.927 407.2293,797.2046 399.7436,790.7953 392.4061,783.0362 384.7135,773.3833 377.7045,763.1701 370.6719,751.3904 363.4875,737.834 356.1584,722.4806 348.7521,705.4554 342.1264,688.7892 335.4324,670.3768 328.8475,650.6466 321.8526,627.7772 315.1234,603.6729 309.2237,580.4313 303.6967,556.2976 298.5373,531.116 294.0609,506.3587 290.2584,481.9999 287.3452,459.3984 285.3403,438.7095 284.1193,419.1535 283.6947,400.9467 284.0795,384.3057 285.2443,369.8112 287.1856,357.4237 289.9204,346.7152 293.5442,337.3477 296.8324,331.3619 300.7179,326.2119 304.7998,322.3825 309.4628,319.4702 314.5992,317.5752 320.4489,316.6493 326.6448,316.7594 333.1275,317.8193 340.2383,319.8811 348.0524,323.0436 356.824,327.4355 366.0632,332.8189 375.3625,338.9208 385.2589,346.0881 394.9524,353.729 405.9096,362.9602 416.5162,372.439 426.6966,382.068 447.4475,403.3961 465.1362,423.4193 482.8409,445.8528 489.9098,455.4944 495.875,464.25 505.1282,478.8587 512.5331,491.4537 522.9297,511.0496 539.6308,546.7532 544.0849,555.5195 546.6401,559.8691 551.4118,566.3396 554.7627,569.3762 556.6982,570.5071 559.0,571.375 561.1094,571.7051 563.3125,571.5781 566.0013,570.868 568.779,569.5849 574.099,565.5921 580.1627,559.1244 586.6971,550.3323 592.9372,540.3374 600.7892,525.9792 607.6919,512.0371 616.0417,493.7349 624.7838,473.2825 634.3252,449.4077 645.4605,420.4211 656.1471,391.394 670.7559,350.0937 691.1184,290.477 696.4758,273.9221 697.4681,269.9747 697.5401,268.1959 696.71,268.8757 694.6449,272.1846 672.8871,311.4732 655.75,341.0 632.9969,378.5804 598.4629,433.8244 585.7026,455.1937 577.5661,469.6652 570.3827,483.3178 564.2928,495.7898 559.1985,507.3939 552.4422,525.5111 549.6094,534.8613 547.1573,544.3401 545.4777,552.6575 544.0311,562.152 543.3564,569.2477 543.0,577.625 543.2119,584.1614 544.272,592.2774 545.4482,597.1208 547.125,601.375 549.1466,604.3986 551.6543,606.4274 554.2052,607.3192 557.1972,607.0982 559.8764,606.1322 562.2627,604.7039 568.0334,599.5642 574.5079,591.8619 581.1731,581.9909 589.0258,568.319 596.2304,554.3741 605.4524,534.5833 614.1408,514.6129 623.7232,490.8631 634.1652,463.8549 653.613,410.1811 666.1361,374.0993 704.8625,259.8145 709.4719,245.6901 710.5602,241.25 708.957,243.6516 696.0357,269.006 681.6637,295.7135 669.8916,316.5661 656.6169,339.0329 632.7268,377.3214 582.7186,453.7119 567.774,478.1457 558.0725,495.335 551.8401,507.3383 545.353,521.3545 539.5964,535.4568 535.4857,547.0522 532.143,558.1249 529.0275,570.5791 526.701,582.1912 524.4029,597.3566 523.2595,608.1633 522.5135,620.7119 522.3857,635.2812 522.9203,649.7261 523.7016,658.4 525.183,667.4762 527.5175,676.3837 530.4302,682.4769 531.8669,684.3796 533.4796,685.8657 535.2628,686.9416 537.0149,687.4152 538.9464,687.4347 541.2757,686.909 544.2253,685.4827 547.5546,683.028 550.836,679.9109 554.4499,675.8084 561.5571,665.8826 570.4754,650.9981 578.5499,635.5431 587.5758,616.2744 597.7208,592.7552 608.0182,567.2072 623.2665,526.2928 643.4966,468.2069 666.3049,399.0605 716.551,243.4929 729.7054,204.9396 735.8295,188.0857 738.4245,181.775 734.5121,192.8514 727.0916,210.4625 718.0337,230.246 708.0794,250.5735 698.1793,269.5747 687.4649,289.0575 676.3397,308.3074 664.8135,327.306 643.67,359.9829 620.5822,393.2466 600.2455,420.8879 557.7534,476.7982 541.6241,498.9957 527.9788,519.3869 516.6041,538.5999 506.9479,557.2447 499.0524,575.3053 491.0243,597.1246 476.1397,643.6842 469.8054,661.6684 466.6,669.7075 463.084,677.3457 459.4359,684.4033 456.0,690.125"/>
  </g>
</svg>
