<?xml version="1.0" encoding="utf-8" ?>
<svg xmlns="http://www.w3.org/2000/svg" xmlns:cc="http://creativecommons.org/ns" xmlns:dc="http://purl.org/dc/elements/1.1/" xmlns:ev="http://www.w3.org/2001/xml-events" xmlns:inkscape="http://www.inkscape.org/namespaces/inkscape" xmlns:rdf="http://www.w3.org/1999/02/22-rdf-syntax-ns" xmlns:sodipodi="http://sodipodi.sourceforge.net/DTD/sodipodi-0.dtd" xmlns:xlink="http://www.w3.org/1999/xlink" baseProfile="tiny" height="27.09333333cm" version="1.2" viewBox="0 0 1024.0 1024.0" width="27.09333333cm">
  <metadata>
    <rdf:RDF>
      <cc:Work>
        <dc:format>image/svg+xml</dc:format>
        <dc:source>vpype read './original_svgs/Strange Attractors #275.svg' linemerge linesimplify write './Strange Attractors #275.svg'
</dc:source>
        <dc:date>2024-08-05T01:35:44.369189</dc:date>
      </cc:Work>
    </rdf:RDF>
  </metadata>
  <defs/>
  <g fill="none" id="layer1" inkscape:groupmode="layer" inkscape:label="1" stroke="black" stroke-width="0.7mm" style="display:inline">
    <line x1="0.0" x2="12.4659" y1="13.2702" y2="0.0"/>
    <polyline points="133.7431,0.0 164.5,21.0 236.0,100.25 311.5,215.625 378.375,354.25 426.0,497.375 450.25,629.25 453.25,742.25 439.375,834.75 413.625,908.875 379.375,967.5 339.625,1013.0 325.4472,1024.0"/>
    <polyline points="74.25,1020.875 61.625,982.75 58.375,939.0 63.5,892.0 75.5,844.125 92.625,797.25 113.125,752.75 135.5,711.625 158.375,674.375 181.0,641.25 202.5,612.125 222.75,586.75 241.375,565.0 258.25,546.25 273.5,530.25 287.125,516.625 310.125,495.375 328.125,480.25 335.625,474.25 348.0,465.0 361.625,455.5"/>
    <polyline points="365.125,453.125 373.25,447.25 378.625,442.5 382.0,438.125 383.75,433.75 384.25,430.625 384.25,427.25 383.375,421.875 382.25,418.0 378.875,409.625"/>
    <polyline points="377.875,407.5 375.5,402.75 369.75,392.875 362.875,382.125 346.625,358.75 331.625,338.375"/>
    <polyline points="329.625,335.75 321.375,324.625 317.625,320.375 318.625,323.25 331.875,350.25 347.75,384.75"/>
    <polyline points="351.125,392.375 370.125,435.875 378.375,453.125 385.75,466.375 392.375,475.5 398.375,481.125 402.0,483.125 405.375,484.125 407.0,484.25 409.875,483.75"/>
    <polyline points="411.25,483.375 414.875,481.0 416.75,478.875 418.375,476.375 420.0,472.0 420.875,467.125 420.75,461.75 419.875,455.875 418.75,451.75 415.375,443.125"/>
    <polyline points="414.25,440.75 411.875,436.0 405.875,425.875 396.25,411.875 384.375,396.0 376.125,385.5 357.0,362.0"/>
    <polyline points="353.5,357.75 331.0,329.875 315.0,309.5 299.375,288.625 286.25,269.5 280.375,259.375 279.5,256.625 280.25,257.0 282.0,258.75"/>
    <polyline points="284.625,262.125 293.0,274.625 298.625,283.875 312.375,308.75 320.125,324.0 328.25,341.0 336.375,359.125 352.125,397.5 366.125,435.625 377.625,470.625 394.875,524.75 401.625,543.125 404.875,550.5 408.0,556.625 411.125,561.75 414.25,565.875 417.375,569.25"/>
    <polyline points="420.5,571.875 427.0,575.5 430.375,576.5 437.125,577.625 443.875,577.75 450.625,577.125 460.5,575.625 482.375,571.5 491.0,570.25 499.25,569.5"/>
    <polyline points="501.875,569.375 509.75,569.125 517.25,569.5 524.5,570.375 531.625,571.75 541.125,574.25 548.375,576.75 563.125,583.0"/>
    <polyline points="565.75,584.125 582.0,592.375 617.125,611.625 632.625,619.625 649.875,628.0"/>
    <polyline points="654.5,630.0 664.375,634.25 680.375,640.375 692.0,644.125 704.625,647.625 718.25,650.625 733.125,652.875 741.0,653.75 757.875,654.5 776.375,653.875 786.25,652.875 796.625,651.25 807.5,649.125 818.875,646.25 830.75,642.625 843.125,638.125 856.125,632.625"/>
    <polyline points="869.5,626.0 883.375,618.25 897.625,609.125 912.25,598.625 927.0,586.625 941.625,573.0 956.0,557.75 969.875,541.0 982.625,522.75 994.0,503.25 1003.375,482.625 1010.25,461.375 1014.125,440.0 1014.5,419.0 1011.0,399.0 1003.375,380.5 991.625,364.25 975.75,350.625 956.5,340.0 934.0,332.375 909.375,327.875 883.0,326.125 855.875,327.0 828.5,330.125 801.5,334.875 775.5,341.0"/>
    <polyline points="750.75,348.0 727.375,355.625 705.75,363.375 667.375,379.0 650.625,386.5 621.75,400.25 598.125,412.0 563.0,430.125 538.75,441.75 533.875,443.875 521.25,448.625 514.0,450.75 507.5,452.125"/>
    <polyline points="504.5,452.625 496.0,453.25 488.25,452.875 483.25,452.125 473.75,449.5 466.75,446.75 457.5,442.0 450.25,437.625 442.875,432.625"/>
    <polyline points="440.375,430.75 421.625,415.75 400.125,396.25 386.25,382.75 358.5,354.25"/>
    <polyline points="354.125,349.625 335.375,329.25 303.625,292.75 286.125,271.375 267.875,247.875 249.75,222.375 238.75,205.125 233.875,196.625 229.75,188.625 226.5,181.25 224.5,175.0"/>
    <polyline points="224.0,170.375 225.375,168.0 229.125,168.625 235.625,173.25 244.875,182.5 257.25,197.5 272.25,218.75 289.625,246.375 308.25,280.0 327.125,318.5 345.25,360.125 361.5,403.25 375.25,446.0 386.375,486.75 394.75,524.25 400.625,558.0 404.75,587.5 407.25,612.875 408.875,634.375 411.0,678.75 411.75,688.25 412.625,695.875 413.75,701.625 415.25,706.0"/>
    <polyline points="417.0,709.25 419.125,711.5 421.625,713.0 424.25,714.0 427.125,714.375 433.625,714.25 456.375,711.25 464.375,710.5 476.625,710.25 484.875,710.875 492.875,712.125 501.0,714.0 508.875,716.75"/>
    <polyline points="512.75,718.375 520.5,722.125 528.125,726.625 535.625,732.0 542.875,738.125 553.375,749.0 563.125,761.875 571.875,777.125 574.5,782.875 579.125,795.0 582.75,808.625 585.0,823.75 585.5,832.0"/>
    <polyline points="585.5,840.625 585.0,849.75 583.625,859.5 581.625,869.75 578.75,880.625 574.75,892.0 569.5,904.25 563.0,917.0 554.875,930.625 544.875,944.875 533.0,959.875 518.75,975.375 502.0,991.625 482.375,1008.125 460.7707,1024.0"/>
    <line x1="116.5374" x2="115.5" y1="1024.0" y2="1022.5"/>
    <polyline points="103.25,988.375 98.375,949.875 100.375,908.5 108.375,865.875 121.25,823.625 137.5,782.875 156.0,744.5 175.5,709.125 195.375,676.875 214.875,648.0 233.5,622.375 251.0,599.75 267.25,579.875 282.0,562.5 307.625,534.25 328.125,512.875 366.875,474.375 374.375,466.5"/>
    <polyline points="377.375,463.125 382.25,457.0 385.75,451.5 387.0,449.0 389.5,441.875 390.125,437.25 390.125,435.0 389.75,430.375 388.875,425.75 386.5,418.5 383.125,410.875 377.125,400.125"/>
    <polyline points="375.375,397.25 363.25,378.875 351.125,362.125 315.5,314.25"/>
    <polyline points="313.625,311.5 307.75,303.625 322.25,331.25 334.0,355.625 351.5,395.25 367.875,435.0"/>
    <polyline points="371.5,444.0 381.5,467.5 387.5,479.875 393.0,489.625 398.125,497.0 400.625,499.875 405.375,504.25 407.75,505.75 410.0,506.875 414.375,508.125 418.5,508.375 422.375,507.875 426.0,506.625 430.875,503.875"/>
    <polyline points="432.375,502.75 435.0,500.5 439.375,495.125 441.0,492.375 443.125,486.375 443.875,480.125 443.75,476.875 442.5,470.25 440.625,465.0"/>
    <polyline points="439.875,463.25 438.25,459.5 435.125,453.75 429.875,445.5 425.125,438.875 413.625,424.125 396.5,403.75"/>
    <polyline points="393.75,400.5 340.75,339.25 318.5,312.25 304.375,294.5 295.0,282.125"/>
    <polyline points="290.25,275.75 277.25,257.25 269.875,245.75 264.5,236.0 262.25,229.875 262.5,228.625 264.125,229.125 267.0,231.75 271.375,236.75 277.125,244.5 284.375,255.125 293.0,269.0 302.75,285.875 313.25,305.75 324.25,328.125 335.25,352.375 345.875,377.875 355.75,403.875 364.75,429.5 372.75,454.375 379.75,477.75"/>
    <polyline points="385.625,499.375 402.125,564.875 405.25,576.125 411.125,593.625 414.0,600.0 417.0,605.375 420.125,609.5 423.375,612.75 426.75,615.25 430.25,617.125 433.75,618.5 437.5,619.375 441.25,619.875 449.0,620.25 460.875,619.625 477.0,618.25"/>
    <polyline points="481.0,617.875 492.875,617.375 504.625,617.625 512.375,618.125 520.0,619.0 531.375,621.125 546.5,625.25 558.125,629.25 566.0,632.375 578.0,637.875"/>
    <polyline points="582.125,639.75 599.375,648.5 649.125,675.375 673.25,687.5 693.75,696.75 701.125,699.75 725.375,708.125"/>
    <polyline points="734.25,710.625 753.25,714.875 763.625,716.625 774.5,718.0 786.125,718.875 798.5,719.125 811.625,718.75 825.625,717.5 840.75,715.25 856.875,711.875 874.25,707.125 892.75,700.75 912.75,692.5 934.25,681.875 957.125,668.625 981.375,652.5 1007.0,632.875 1024.0,617.8797"/>
    <polyline points="1024.0,212.8584 1019.75,211.875 968.0,209.25 914.625,213.5 861.75,223.125 811.5,236.5 765.0,252.125 723.0,268.75 685.75,285.5 653.125,301.75 625.0,317.0 600.875,331.0 580.375,343.75 563.0,355.25 548.375,365.375 525.75,382.25 517.125,389.125 490.375,412.0"/>
    <polyline points="487.125,414.875 479.5,421.0 475.5,423.5 470.125,425.5 465.0,425.875 459.625,425.125 454.0,423.25 447.75,420.5 436.5,414.25"/>
    <polyline points="434.0,412.625 426.25,407.625 420.875,403.75 412.25,397.25 399.875,387.25 382.75,372.5 367.625,358.625 350.875,342.625"/>
    <polyline points="346.5,338.25 322.5,314.25 306.625,297.75 277.0,266.0 257.0,243.875 235.125,218.75 211.25,190.125 185.25,156.625"/>
    <polyline points="176.25,144.125 167.0,131.0 157.75,117.0 148.5,102.125 139.625,86.625 131.375,70.375 124.125,53.75 118.875,37.5 116.5,22.375 118.625,10.5 127.125,4.625 144.375,8.75 172.25,28.25 211.5,68.5 260.125,132.75 313.0,219.875 362.75,323.125 402.5,432.0 428.75,536.625 441.125,630.375 441.625,710.125 433.25,776.0 418.625,829.5 399.75,872.25 378.125,905.875 355.0,931.875"/>
    <polyline points="331.125,951.125 307.25,964.125 284.125,971.375 262.375,973.375 242.625,970.125 225.625,962.125 211.75,949.75 201.5,933.5 194.875,913.875 192.0,891.75 192.75,867.75 196.5,842.625 203.125,817.125 211.875,791.875 222.375,767.25 234.125,743.625 246.625,721.375 259.5,700.625 272.375,681.5 285.125,663.875 297.5,647.75 309.375,633.25 320.75,620.125 341.375,597.5 350.75,588.0"/>
    <polyline points="359.5,579.375 375.0,564.5 424.0,521.375 432.125,513.75 436.5,509.25 441.5,503.25 445.25,497.75 447.0,494.375"/>
    <polyline points="447.75,492.625 448.75,489.375 449.625,484.625 449.625,479.875 448.375,473.5 446.625,468.5 444.25,463.375 440.125,456.125 436.25,450.375"/>
    <polyline points="434.75,448.375 430.125,442.0 416.625,425.5 407.25,414.5 374.5,377.5"/>
    <polyline points="371.0,373.5 339.25,336.875 311.5,303.375 297.0,284.75 282.625,265.25 269.875,246.375 263.25,235.125"/>
    <polyline points="260.875,230.5 259.25,226.625 258.625,224.0 259.125,222.875 260.875,223.5 264.125,226.375 269.0,231.875 275.375,240.375 283.375,252.125 292.75,267.25 303.25,285.625 314.625,307.125 326.25,331.25 337.875,357.25 348.875,384.375 359.0,411.875 368.125,438.875 376.125,464.625 382.875,488.75 388.625,510.75 404.125,576.375 409.875,596.75"/>
    <polyline points="412.75,604.375 415.625,610.625 418.5,615.625 421.625,619.5 424.875,622.625 428.25,624.875 431.75,626.625 435.375,627.75 442.875,629.0 450.875,629.125 483.75,627.0 491.875,626.75 508.125,627.375"/>
    <polyline points="512.125,627.75 524.0,629.5 536.0,632.25 543.875,634.5 560.125,640.375 572.5,645.75 589.875,654.375 618.0,670.0"/>
    <polyline points="623.0,672.875 650.25,688.625 681.875,705.625 696.25,712.5 711.75,719.25 720.0,722.625 737.75,728.75 747.375,731.625 757.5,734.125 768.25,736.375 779.625,738.25 791.625,739.625 804.625,740.375 818.5,740.5 833.375,739.625"/>
    <polyline points="849.375,737.75 866.625,734.5 885.375,729.875 905.75,723.25 927.75,714.375 951.625,702.875 977.5,688.25 1005.25,670.0 1024.0,655.6197"/>
    <polyline points="1024.0,170.2009 1007.375,168.875 943.25,173.375 880.0,185.25 820.0,202.0 765.25,221.5"/>
    <polyline points="716.625,242.125 674.125,262.625 637.875,282.25 607.25,300.375 581.625,317.0 560.375,331.875 543.125,345.125 529.0,356.875 517.5,367.125 508.375,376.25 501.125,384.125 495.5,391.125 491.0,397.125 484.875,407.0 481.25,414.5 477.125,427.375 475.625,430.25"/>
    <polyline points="475.0,430.875 473.5,431.625 470.625,431.875 466.875,431.125 460.625,428.875 453.125,425.375 444.375,420.625 432.125,412.875"/>
    <polyline points="429.5,411.0 418.375,403.0 412.5,398.375 403.0,390.75 389.5,379.125 374.625,365.625 362.625,354.25 340.375,332.25"/>
    <polyline points="335.5,327.375 303.875,294.375 273.125,260.5 245.0,227.875 229.75,209.25 205.25,177.5 188.25,153.5 179.75,140.625 171.375,127.125 163.375,113.0"/>
    <polyline points="156.0,98.625 149.875,84.25 145.375,70.375 143.375,58.125 145.25,48.75 152.375,44.75 166.125,48.875 188.0,64.875 218.625,96.5 256.625,146.25 298.875,214.0 340.875,295.75 377.375,385.0 405.0,474.375 422.375,557.625 430.25,631.25 430.25,694.0 424.375,746.0 414.625,788.375 402.25,822.375 388.5,849.375 373.875,870.375 359.125,886.125 344.5,897.375 330.5,904.625 317.375,908.25"/>
    <polyline points="305.375,908.625 294.625,906.125 285.625,900.875 278.25,893.25 272.625,883.625 269.0,872.125 267.25,859.25 267.25,845.25 269.0,830.375 272.25,815.125 276.75,799.625 282.5,784.125 289.25,768.875 296.625,754.125 304.625,739.875 313.125,726.375 321.75,713.5 330.5,701.5 339.25,690.25 347.875,679.75 356.375,670.125 364.75,661.125 380.625,645.375 395.375,632.125"/>
    <polyline points="402.375,626.375 415.375,616.375 427.375,608.0 432.875,604.5 448.25,595.5 461.875,589.0 474.0,584.25 481.375,581.875 488.375,580.125 498.125,578.375 504.25,577.625 510.125,577.375"/>
    <polyline points="513.0,577.375 518.625,577.625 526.875,578.5 532.25,579.375 540.25,581.25 548.125,583.75 561.75,589.0 582.125,598.625"/>
    <polyline points="585.25,600.25 623.875,620.625 640.875,629.125 654.875,635.625 676.0,644.25 693.875,650.25"/>
    <polyline points="700.375,652.125 707.0,653.875 721.25,657.0 736.75,659.375 753.625,660.625 762.75,660.875 782.125,660.0 792.625,658.75 803.625,657.0 815.125,654.5 827.25,651.375 839.875,647.25 853.125,642.125 867.0,635.875 881.375,628.375 896.25,619.625 911.625,609.25 927.25,597.375 943.0,583.75 958.75,568.375 973.875,551.25 988.375,532.375"/>
    <polyline points="1001.5,511.875 1012.75,490.125 1021.5,467.25 1024.0,457.1957"/>
    <polyline points="1024.0,388.8194 1020.5,378.125 1009.25,359.625 993.375,344.0 973.375,331.625 949.875,322.75 923.5,317.25 895.25,315.125 866.0,315.875 836.5,319.0 807.375,324.25 779.375,330.875 752.625,338.5 727.75,346.75 704.625,355.375 683.375,363.875 646.375,380.25 603.375,401.375"/>
    <polyline points="591.875,407.375 543.0,432.75 527.125,439.875 514.5,444.5 507.375,446.375 500.875,447.625 494.875,448.125 486.625,448.0 476.25,446.25"/>
    <polyline points="473.75,445.5 468.875,443.875 459.0,439.625 446.5,432.375 438.75,427.125 427.75,418.875 419.125,411.75 406.75,400.875"/>
    <polyline points="403.5,398.0 378.625,374.125 362.375,357.625 344.375,338.625 324.5,316.75 308.125,298.125 290.625,277.25"/>
    <polyline points="284.625,269.875 272.125,254.125 259.375,237.25 246.875,219.625 240.75,210.5 235.0,201.25 224.75,183.375 220.875,175.125 218.125,167.75 216.875,161.75 217.375,157.875 220.375,156.75 226.125,159.5 235.125,167.125 247.25,180.75 262.75,201.125 281.0,228.625 301.0,263.0 321.75,303.25 341.75,347.75 359.875,394.375 375.125,440.875"/>
    <polyline points="387.375,485.375 396.375,526.5 402.625,563.375 406.5,595.625 408.75,623.25 409.75,646.625 410.125,665.875 409.75,704.75 410.375,719.0 411.25,723.625 412.375,726.875 413.875,729.25 415.75,730.75 417.875,731.625 420.375,731.875 423.0,731.875 429.0,730.875 446.625,726.75"/>
    <polyline points="450.375,726.0 458.0,724.875 465.75,724.25 473.5,724.125 477.375,724.375 481.125,724.75 488.75,726.125 496.25,728.25 499.875,729.625 503.625,731.125 510.75,734.75 517.625,739.125 524.375,744.375 533.875,753.875 539.75,761.375"/>
    <polyline points="542.625,765.375 547.75,774.25 550.125,779.125 554.25,789.625 557.5,801.25 559.5,814.25 560.0,821.25 560.125,828.625 559.75,836.375 558.75,844.5 557.125,853.125 554.875,862.25 551.875,871.75 547.875,881.75 543.0,892.125 536.875,903.125 529.5,914.625 520.75,926.5 510.5,938.875 498.5,951.5 484.625,964.5 468.75,977.5"/>
    <polyline points="450.75,990.375 430.625,1003.0 408.375,1014.75 387.6163,1024.0"/>
    <polyline points="207.9548,1024.0 201.25,1020.0 183.0,1002.125 169.125,979.75 160.25,953.75 156.25,924.625 157.0,893.375 162.0,861.125 170.5,828.75 181.75,797.0 195.0,766.375 209.5,737.625 224.875,710.75 240.375,686.125 255.625,663.625 270.375,643.375 284.5,625.25"/>
    <polyline points="297.875,608.875 310.25,594.375 332.375,570.0 351.0,550.75 389.25,513.25 404.25,497.875 411.75,488.875 415.25,483.625 419.0,476.375 420.5,471.75"/>
    <polyline points="421.0,469.5 421.5,465.125 421.25,458.625 419.875,451.875 417.375,445.0 412.75,435.375 406.5,425.125 402.75,419.5 394.125,407.75"/>
    <polyline points="391.75,404.625 378.5,387.625 325.125,322.125 304.625,295.5"/>
    <polyline points="300.625,290.125 289.5,274.5 280.875,261.125 277.5,254.875 276.875,253.0 277.0,252.25 278.0,252.875 283.125,259.0 292.5,273.0 305.75,295.75 313.625,310.5 321.875,327.0 339.0,364.625 347.25,384.75 355.125,405.125 362.5,425.25 369.125,444.75"/>
    <polyline points="375.25,463.25 393.625,523.125 400.625,543.875 407.0,559.125 410.125,565.0 413.25,569.75 416.375,573.75 419.625,576.75 422.875,579.25 426.125,581.125 432.875,583.375 439.875,584.125 446.75,584.125 457.25,583.0 464.125,581.875"/>
    <polyline points="467.5,581.375 490.0,578.0 498.875,577.25 510.375,577.125 518.625,577.625 526.75,578.75 532.125,579.75 540.0,581.75"/>
    <polyline points="542.75,582.5 556.25,587.25 570.25,593.375 582.25,599.25 620.25,619.25"/>
    <polyline points="624.25,621.375 632.5,625.625 650.625,634.25 671.125,643.0 682.5,647.125 694.75,651.125 708.0,654.75 715.0,656.375 730.0,659.0 738.0,660.125 746.375,660.875 755.125,661.375 764.25,661.5 773.875,661.25 783.875,660.5"/>
    <polyline points="794.5,659.25 805.625,657.375 817.25,654.875 829.5,651.5 842.25,647.125 855.75,641.875 869.75,635.5 884.25,627.75 899.375,618.75 914.875,608.125 930.625,595.875 946.5,581.875 962.25,566.125 977.5,548.5 991.875,529.25 1004.75,508.375 1015.75,486.125 1024.0,463.8015"/>
    <polyline points="1024.0,383.4959 1020.375,373.75 1008.125,355.625 991.375,340.5 970.5,328.625 946.25,320.25"/>
    <polyline points="919.25,315.375 890.5,313.875 860.875,315.125 831.125,318.75 802.0,324.375 774.0,331.375 747.5,339.25 722.625,347.625 699.75,356.375 678.75,364.875 659.75,373.25 642.5,381.25 612.875,395.75 547.125,429.875 530.25,437.875 521.0,441.625"/>
    <polyline points="516.875,443.0 505.875,446.125 496.5,447.5 488.0,447.625 480.125,446.625 472.5,444.75 462.625,441.0 457.75,438.625 447.625,432.875"/>
    <polyline points="445.125,431.125 442.5,429.5 429.0,419.625 417.375,410.125 404.875,399.125 387.625,382.875 364.125,359.25"/>
    <polyline points="359.875,354.875 336.75,330.25 310.375,300.625 287.0,272.875 274.5,257.25 255.5,232.0 242.875,214.0 231.25,195.5 221.875,177.875"/>
    <polyline points="218.5,170.0 216.375,163.125 216.0,158.125 217.875,155.625 222.375,156.375 229.875,161.625 240.625,172.5 254.75,189.75 272.0,214.125 291.5,245.75 312.375,283.875 333.0,327.0 352.25,373.375 369.0,420.625 382.625,466.625 393.125,509.75 400.5,548.875 405.375,583.375 408.25,613.25 409.625,638.625 410.125,659.75 409.5,711.625 409.75,718.5"/>
    <polyline points="410.375,723.875 411.25,727.75 412.625,730.5 414.25,732.25 416.125,733.375 418.375,733.875 423.75,733.625 447.5,728.0 455.125,726.625 462.75,725.75 470.375,725.5 478.125,725.875 485.625,727.0 489.375,727.875"/>
    <polyline points="493.125,728.875 500.375,731.5 507.625,734.875 514.5,739.0 517.875,741.375 524.5,746.75 530.75,753.0 533.75,756.5 539.5,764.125 542.125,768.25 547.0,777.375 549.25,782.25 553.125,793.0 554.625,798.75 556.875,811.375 557.5,818.125 557.75,825.25"/>
    <polyline points="557.5,832.75 556.75,840.625 555.375,849.0 553.375,857.625 550.75,866.875 547.125,876.5 542.75,886.625 537.125,897.25 530.5,908.25 522.375,919.75 512.875,931.625 501.875,944.0 489.0,956.5 474.25,969.25 457.625,981.875 438.875,994.25 418.125,1006.125 395.375,1017.0 377.2303,1024.0"/>
    <polyline points="219.2679,1024.0 216.0,1022.5 196.25,1007.375"/>
    <polyline points="180.625,987.75 169.625,964.25 163.25,937.375 161.5,908.0 164.125,877.125 170.5,845.625 180.0,814.25 191.875,783.75 205.375,754.625 220.0,727.375 235.0,702.0 250.0,678.75 264.875,657.75 279.125,638.625 292.625,621.5 305.375,606.25 328.25,580.5 338.375,569.625 356.25,551.375 388.5,520.125"/>
    <polyline points="393.25,515.5 404.75,504.0 410.625,497.625 417.125,489.25 421.5,482.0 424.125,475.25 425.0,470.875 425.375,466.625 424.5,458.125 422.625,451.625"/>
    <polyline points="421.75,449.375 418.625,442.5 414.625,435.25 411.5,430.125 404.125,419.375 390.25,401.125 369.75,376.125"/>
    <polyline points="366.5,372.125 324.5,321.0 307.5,299.25 295.125,282.5 284.125,266.625 278.375,257.5 274.75,250.625"/>
    <polyline points="274.0,248.5 274.0,247.5 274.875,247.875 276.875,249.875 284.375,259.5 296.25,278.25 303.75,291.25 311.875,306.5 320.625,323.875 329.75,343.0 338.75,363.375 355.75,406.125 363.375,427.25 376.375,467.125 398.5,541.0 405.0,559.375 408.125,566.375"/>
    <polyline points="411.25,572.375 414.375,577.25 417.625,581.125 420.75,584.25 424.125,586.625 427.5,588.5 430.875,589.75 437.875,591.25 445.0,591.5 452.25,591.125 459.5,590.375 480.5,587.375 490.5,586.25 497.0,585.875"/>
    <polyline points="500.125,585.75 506.375,585.625 518.625,586.375 524.625,587.125 533.5,588.75 542.25,591.0 551.25,593.875 563.375,598.5 576.0,604.125"/>
    <polyline points="579.25,605.75 600.125,616.125 632.375,632.875 651.375,642.0 667.25,648.875 684.875,655.625 691.25,657.75"/>
    <polyline points="697.75,659.75 719.125,665.375 726.875,666.875 743.5,669.25 761.625,670.5 781.75,670.125 792.625,669.25 804.0,667.625 816.0,665.375 828.625,662.375 842.0,658.375 856.0,653.25 870.625,647.125 886.0,639.5 902.125,630.375 918.75,619.625 935.75,607.0 953.125,592.5 970.5,576.0 987.625,557.25 1004.0,536.5"/>
    <line x1="1019.0" x2="1024.0" y1="513.875" y2="504.5481"/>
    <polyline points="1024.0,338.9617 1010.125,326.125 986.875,313.0 959.625,304.0 929.5,299.0 897.375,297.875 864.375,299.875 831.5,304.75 799.625,311.5 769.125,319.75 740.5,329.0 714.0,338.625 689.875,348.25 667.875,357.875 648.125,367.0 630.375,375.625 614.5,383.625 587.75,397.75"/>
    <polyline points="576.5,403.875 535.75,425.75 519.5,433.375 506.875,438.125 496.375,440.625 490.125,441.25 484.25,441.375 481.5,441.25 473.5,440.0 465.625,437.75"/>
    <polyline points="463.125,436.75 457.875,434.625 444.875,427.625 431.125,418.375 419.375,409.375 410.0,401.625 389.5,383.125"/>
    <polyline points="385.875,379.625 366.125,360.25 348.375,342.0 338.75,331.875 312.5,303.0 301.0,289.875 276.25,260.375 256.375,235.0"/>
    <polyline points="249.625,225.875 242.875,216.5 229.625,197.0 223.375,187.0 217.625,177.0 212.5,167.125 208.25,157.875 205.25,149.5 204.125,142.75 205.125,138.25 208.875,137.125 216.125,140.5 227.125,149.875 242.25,166.5 261.125,191.375 283.125,225.0 306.75,266.625 330.5,314.875 352.625,367.125 371.625,420.5 386.875,472.625 398.0,521.25 405.375,565.125 409.625,603.5 411.375,636.375"/>
    <polyline points="411.5,664.125 410.625,687.0 409.125,705.625 407.375,720.625 402.25,754.25 401.875,758.0 402.0,760.625 402.5,762.0 403.375,762.75 404.625,762.75 406.125,762.25 427.375,750.0 434.125,746.75 441.0,744.0"/>
    <polyline points="444.625,742.875 455.375,740.25 462.5,739.5 469.625,739.375 476.625,740.0 480.125,740.625 486.875,742.5 490.25,743.75 493.5,745.125 499.875,748.5 503.0,750.5 508.875,755.125 511.75,757.75 517.125,763.625 522.125,770.375 524.375,774.125"/>
    <polyline points="526.5,778.125 530.25,786.75 533.125,796.375 535.125,807.125 535.625,812.875 535.75,819.0 534.875,832.125 533.75,839.125 532.125,846.5 529.875,854.125 527.0,862.125 523.5,870.5 519.0,879.125 513.75,888.125 507.5,897.5 500.25,907.0 491.75,916.75 482.125,926.75 471.25,936.75 458.875,946.625 445.25,956.375 430.125,965.75"/>
    <polyline points="413.75,974.5 396.0,982.5 377.25,989.25 357.625,994.5 337.5,997.875 317.125,999.0 297.25,997.625 278.25,993.5 260.625,986.25 245.125,975.875 232.0,962.5 221.875,946.25 214.75,927.375 210.75,906.5 210.0,884.0 212.125,860.5 216.75,836.5 223.75,812.375 232.375,788.875 242.5,766.0 253.5,744.375 265.0,723.875 277.0,704.75 288.875,687.125 300.75,670.875 312.125,656.0"/>
    <polyline points="323.25,642.5 333.875,630.125 353.375,609.0 370.5,591.75 378.375,584.375 398.625,566.25 409.875,556.75 427.875,542.125 446.75,527.375 455.25,520.125"/>
    <polyline points="457.0,518.5 465.125,510.25 469.125,504.375 471.25,499.0 471.625,496.875 471.625,491.75 471.125,489.625"/>
    <polyline points="470.875,488.625 468.375,482.125 465.75,477.5 459.375,468.625 449.375,456.625"/>
    <polyline points="447.875,455.0 438.0,444.0 391.75,394.375"/>
    <polyline points="388.5,391.0 359.625,359.125 338.25,334.75 324.25,318.25 309.375,300.25 293.875,280.75 278.5,260.0"/>
    <polyline points="273.625,253.125 264.5,239.375 256.875,226.625 251.875,216.375 250.875,212.75 251.0,210.625 252.5,210.375 255.75,212.5 260.75,217.5 267.5,225.875 276.25,237.875 286.625,253.875 298.375,273.75 311.0,297.375 324.25,324.0 337.25,353.125 349.5,383.5 360.75,414.25 370.75,444.375 379.125,473.125 386.125,499.75 391.875,524.0 396.5,545.625"/>
    <polyline points="400.25,564.625 408.875,606.375 411.375,616.125 413.875,624.0 416.5,630.375 419.25,635.375 422.25,639.375 425.375,642.375 428.625,644.625 432.125,646.25 435.75,647.375 443.375,648.375 455.5,648.375 472.5,647.25 489.75,646.875"/>
    <polyline points="494.0,647.0 506.875,647.875 515.375,649.0 528.125,651.75 536.5,654.125 545.125,657.0 558.0,662.25 571.125,668.625 584.75,676.125 603.625,687.875"/>
    <polyline points="608.625,691.125 634.625,709.0 683.375,743.75 705.0,758.375 720.625,768.375 737.75,778.5 756.5,788.375 777.375,797.75 788.75,802.125"/>
    <polyline points="801.0,806.125 814.0,809.625 828.0,812.625 843.25,814.875 859.875,816.125 878.0,816.125 898.125,814.625 920.375,811.125 945.125,805.125 972.875,796.0 1004.125,782.75 1024.0,772.4942"/>
    <line x1="1024.0" x2="999.125" y1="32.4419" y2="35.375"/>
    <polyline points="893.5,62.75 798.625,97.875 717.625,135.875 650.875,173.375 597.625,208.625 556.5,240.75 525.625,269.625 503.375,295.5 488.375,318.75 479.375,339.5 475.125,358.25 474.625,375.25 477.25,390.5 482.125,404.125 488.75,416.375 496.5,427.25 505.0,436.75 513.875,445.125 522.75,452.125 531.375,458.125 539.5,463.125 547.125,467.25 554.0,470.5 570.375,477.0"/>
    <polyline points="574.375,478.25 583.625,481.625 585.125,482.875 585.125,484.0 583.0,486.125 563.0,498.875"/>
    <polyline points="561.625,499.75 556.625,503.5 550.75,508.75 548.0,512.0 545.875,515.125 544.75,517.375 544.0,520.25"/>
    <polyline points="543.875,521.0 543.75,523.75 544.25,526.625 545.0,528.875 547.875,534.125 552.375,539.875"/>
    <polyline points="553.125,540.75 558.5,546.375 567.875,555.0 578.25,563.625 585.375,569.125"/>
    <polyline points="587.25,570.5 600.0,579.75 618.125,591.625 633.75,600.75 648.25,608.25 660.375,613.75"/>
    <polyline points="664.625,615.625 678.625,621.0 688.75,624.25 699.625,627.25 711.375,629.875 724.125,631.875 737.875,633.125 745.125,633.5 760.625,633.25 768.875,632.625 786.25,630.25 805.125,625.875 815.0,622.75 825.25,619.0 835.875,614.625 846.875,609.375"/>
    <polyline points="858.0,603.25 869.5,596.25 881.0,588.25 892.625,579.125 904.125,569.0 915.375,557.875 926.125,545.625 936.25,532.375 945.5,518.25 953.5,503.25 960.0,487.75 964.625,471.875 967.0,456.0 967.125,440.375 964.5,425.375 959.25,411.5 951.125,398.875 940.25,388.0 926.875,378.875 911.25,371.75 893.625,366.625 874.625,363.5 854.625,362.25 834.0,362.625 813.125,364.625 792.5,367.75"/>
    <polyline points="772.25,371.75 752.75,376.625 734.25,382.0 716.625,387.75 700.0,393.5 670.25,405.25 657.0,410.875 633.625,421.5 597.125,439.125 560.875,457.125 537.5,467.25"/>
    <polyline points="534.375,468.375 526.0,471.125 518.75,472.875 512.25,473.875 508.25,474.125 500.75,474.0 495.625,473.25 490.625,472.125 484.125,469.875"/>
    <polyline points="482.625,469.25 474.5,465.125 469.5,462.125 461.0,456.25 449.75,447.375 437.375,436.5"/>
    <polyline points="435.125,434.5 415.25,415.625 400.75,401.125 380.75,380.375 357.5,355.25"/>
    <polyline points="353.25,350.5 330.25,324.625 304.625,294.125 288.25,273.5 271.75,251.375 261.25,236.25 252.0,221.5 248.0,214.5 244.875,208.25 242.5,202.625 241.25,198.375 241.375,195.625"/>
    <polyline points="243.25,195.0 246.875,197.125 252.75,202.625 260.75,211.875 271.0,225.625 283.125,244.125 297.0,267.375 311.75,294.875 326.875,326.0 341.625,359.625 355.125,394.5 367.25,429.375 377.375,463.0 385.75,494.625 392.375,523.5 397.5,549.375 401.375,572.0 411.0,633.625 413.0,643.0 415.125,650.5 417.375,656.5 419.875,661.25 422.5,664.75"/>
    <polyline points="425.375,667.5 428.625,669.375 431.875,670.75 439.125,672.0 443.0,672.25 455.25,671.875 476.75,670.625 485.5,670.625 498.625,671.5 507.375,672.75 516.0,674.5 529.0,678.25"/>
    <polyline points="533.375,679.875 546.375,685.375 555.0,689.875 563.875,695.0 572.75,700.75 586.25,710.5 590.75,714.125 604.625,726.0 618.875,739.625 633.375,755.0 648.125,772.375"/>
    <polyline points="653.0,778.75 658.0,785.25 662.875,792.25 672.5,807.0 681.75,823.125 686.125,831.875 690.25,841.125 694.25,850.875 697.75,861.125 700.875,872.125 703.375,883.75 705.25,896.25 706.25,909.625 706.25,924.125 704.75,939.875 701.625,957.0 696.375,975.75 688.375,996.375 677.25,1019.125 674.2816,1024.0"/>
    <polyline points="-0.0,601.7103 6.125,592.5 52.625,530.125 93.75,480.125 129.625,441.0 160.5,411.125 187.0,389.375 210.0,374.375 230.125,365.375 247.875,361.375 263.875,361.875 278.5,366.0 291.875,373.25"/>
    <polyline points="304.125,383.0 315.5,394.625 325.875,407.75 335.5,421.75 344.125,436.0 352.0,450.375 359.0,464.25 389.5,529.0 397.0,542.0 400.625,547.125 404.0,551.375 407.5,554.75 410.875,557.625 414.25,559.75 417.5,561.375 424.25,563.375 430.875,564.0 434.125,563.875"/>
    <polyline points="437.375,563.625 443.875,562.75 450.125,561.375 459.125,559.125 485.0,551.875 495.625,549.625 501.5,548.875"/>
    <polyline points="503.375,548.625 512.25,548.25 522.125,549.125 530.0,550.875 536.25,552.875 544.125,556.25"/>
    <polyline points="545.75,557.0 550.75,559.375 559.5,564.125 579.5,576.25 596.25,586.875"/>
    <polyline points="599.0,588.5 623.0,602.625 645.125,614.25 653.5,618.125 667.125,623.875 677.0,627.625 682.25,629.5 699.0,634.375"/>
    <polyline points="705.125,635.875 717.875,638.5 731.75,640.375 739.125,641.0 754.75,641.5 771.75,640.625 780.875,639.625 790.375,638.125 800.25,636.125 810.5,633.5 821.125,630.25 832.25,626.125 843.75,621.25 855.625,615.5 867.875,608.75 880.375,601.0 893.0,592.0 905.75,581.875 918.375,570.5 930.75,557.875 942.625,544.0 953.75,529.0"/>
    <polyline points="963.75,512.875 972.25,495.875 979.0,478.25 983.5,460.375 985.25,442.625 984.25,425.25 980.0,409.0 972.5,394.0 961.75,380.875 947.875,369.75 931.25,361.0 912.375,354.625 891.5,350.5 869.375,348.75 846.375,349.0 823.25,351.0 800.125,354.5 777.75,359.125 756.125,364.625 735.5,370.75 716.125,377.125 681.25,390.25 665.625,396.75 638.375,408.875"/>
    <polyline points="626.5,414.5 556.0,449.25 538.0,457.125 521.125,462.75 512.75,464.5 503.125,465.375"/>
    <polyline points="500.875,465.25 494.375,464.875 488.25,463.75 480.375,461.375 474.5,459.0 464.75,453.75 458.75,450.0 450.375,444.0"/>
    <polyline points="448.25,442.375 439.25,435.25 419.125,417.375 398.375,397.25 377.625,375.875"/>
    <polyline points="373.75,372.0 348.875,345.125 330.125,324.0 298.375,286.5 281.375,264.875 270.0,249.5 259.0,233.75 248.875,218.125"/>
    <polyline points="244.625,210.625 240.875,203.5 238.0,197.25 236.25,192.0 235.75,188.25 237.0,186.5 240.25,187.375 245.625,191.75 253.5,200.0 263.75,213.0 276.375,231.0 290.875,254.25 306.625,282.5 322.875,315.0 338.75,350.5 353.625,387.75 366.625,425.125 377.75,461.5 386.625,495.625 393.5,526.75 398.75,554.625 402.625,579.125 411.125,645.0"/>
    <polyline points="412.625,655.0 414.375,663.0 416.375,669.25 418.5,674.125 420.875,677.875 423.5,680.625 426.375,682.625 429.625,684.0 432.875,684.875 436.5,685.375 440.25,685.5 452.125,685.0 469.0,683.75 477.625,683.5 490.625,684.0 503.625,685.75"/>
    <polyline points="507.875,686.625 516.5,688.875 525.0,691.75 529.375,693.375 537.875,697.25 542.125,699.375 550.5,704.25 563.25,712.875 571.75,719.5 580.25,726.875 593.0,739.5 605.625,754.0 613.75,765.0"/>
    <polyline points="617.875,770.875 625.75,783.375 633.125,797.375 639.75,812.75 642.75,821.0 645.375,829.875 647.75,839.125 649.625,849.0 650.875,859.5 651.5,870.625 651.375,882.625 650.25,895.375 647.875,909.125 644.25,923.875 638.875,939.875 631.5,957.125 621.625,975.75 608.875,996.0 592.5,1017.875 587.2176,1024.0"/>
    <polyline points="0.0,794.9827 9.25,773.625 43.5,709.25 78.375,652.5 111.875,603.5 142.875,562.0 171.0,527.375 195.875,498.75 217.625,475.5 236.625,456.625 253.125,441.75 267.375,430.125 279.75,421.375 290.5,414.875"/>
    <polyline points="299.875,410.375 308.25,407.5 315.625,406.0 322.125,405.625 328.0,406.25 333.375,407.625 338.25,409.625 342.75,412.125 346.875,414.875 354.25,421.125 360.625,427.625 377.75,447.0 383.25,452.125 387.875,455.25"/>
    <polyline points="389.25,455.875 391.75,456.5 392.875,456.5 395.625,455.625 397.125,454.25 397.625,453.375 399.125,448.75 399.0,442.5 398.0,437.0 394.25,426.5"/>
    <polyline points="393.25,424.25 391.0,419.375 386.75,411.75 378.0,397.625 367.0,381.75 339.625,345.25"/>
    <polyline points="336.75,341.375 316.375,314.375 301.75,293.625 310.875,309.375 322.375,331.5"/>
    <polyline points="327.0,341.0 336.875,362.25 347.125,385.625 357.0,409.625 381.625,472.125 391.25,493.625 397.0,504.125 402.5,511.75 405.25,514.75 410.375,519.0 415.5,521.625 418.0,522.375"/>
    <polyline points="420.375,522.75 425.125,522.875 431.75,521.75 437.875,519.375 441.625,517.375 448.0,512.875 452.0,509.25 455.25,505.625 457.75,501.875 459.0,499.375"/>
    <polyline points="459.5,498.125 460.375,495.625 461.125,490.75 461.125,486.875 460.125,481.75 457.5,475.0 453.5,467.75 451.5,464.75"/>
    <polyline points="450.375,463.125 444.125,454.625 431.0,438.875 403.375,408.125"/>
    <polyline points="400.625,405.125 364.0,364.625 343.5,341.25 320.5,314.125 300.75,289.5"/>
    <polyline points="295.625,283.0 275.875,256.125 263.125,236.5 259.75,230.625 255.0,220.875 254.0,217.5 254.125,215.625 255.75,215.5 258.75,217.75 263.5,222.75 270.0,230.75 278.25,242.25 288.0,257.5 299.125,276.5 311.25,298.875 323.75,324.25 336.25,351.875 348.125,380.875 359.0,410.25 368.75,439.25"/>
    <polyline points="377.125,466.875 384.125,492.75 390.0,516.375 408.0,597.625 410.625,607.25 413.25,615.25 416.0,621.75 418.75,626.875 421.75,630.875 424.875,634.0 428.25,636.375 431.75,638.125 435.375,639.25 443.0,640.5 446.875,640.625 455.125,640.5 471.875,639.375"/>
    <polyline points="476.125,639.125 493.125,638.75 505.625,639.375 518.125,641.0 526.5,642.625 538.875,646.0 547.25,648.75 555.75,652.0 568.625,657.75 581.875,664.5"/>
    <polyline points="586.375,666.875 595.625,672.125 620.25,687.125 665.875,716.375 685.875,728.625 700.5,737.0 716.25,745.375 733.5,753.625 742.875,757.625"/>
    <polyline points="752.625,761.375 762.875,765.0 773.875,768.375 785.5,771.375 798.0,773.875 811.25,775.875 825.625,777.25 841.125,777.625 858.0,776.875 876.5,774.875 896.625,771.125 918.75,765.25 943.125,756.875 970.125,745.375 999.75,730.0 1024.0,715.1908"/>
    <polyline points="1024.0,101.1117 989.125,103.375 905.375,120.25 827.25,144.125 757.625,171.75 697.625,200.25 647.125,228.0 605.75,253.875 572.375,277.5 545.875,298.75 525.5,317.75 510.0,334.5 498.625,349.5 490.75,362.625 485.5,374.375 482.5,384.875 481.375,394.125 481.5,402.375 482.75,409.75 484.625,416.25 487.25,422.125 490.125,427.125 493.125,431.75 496.25,435.625"/>
    <polyline points="499.375,439.125 505.0,444.75 516.0,454.25 517.5,456.5 517.5,457.125 516.875,458.0 514.5,458.75 509.375,459.125 502.75,458.75"/>
    <polyline points="501.0,458.5 495.25,457.75 485.375,455.375 472.75,450.75 468.375,448.75 459.5,444.0 447.875,436.5"/>
    <polyline points="445.5,434.875 435.5,427.375 416.125,411.125 390.375,386.875 367.5,363.75"/>
    <polyline points="363.375,359.375 350.25,345.5 320.875,312.875 298.75,287.0 281.0,265.0 262.75,240.875 250.75,223.875 239.625,206.5 234.75,198.125 230.5,190.0"/>
    <polyline points="227.125,182.625 225.0,176.25 224.25,171.375 225.5,168.75 228.875,169.0 235.0,173.0 243.875,181.625 255.75,195.875 270.5,216.25 287.375,243.0 305.875,275.75 324.75,313.5 342.875,354.75 359.375,397.625 373.5,440.25 384.875,481.125 393.625,519.0 399.875,553.125 404.125,583.125 406.875,609.0 408.625,630.875 411.0,676.5 412.625,694.0"/>
    <polyline points="413.75,700.0 415.25,704.625 417.0,708.0 419.125,710.375 421.5,712.0 424.125,713.0 427.0,713.5 433.5,713.5 456.25,710.5 468.375,709.5 476.625,709.5 484.75,710.125 492.875,711.25 501.0,713.25"/>
    <polyline points="504.875,714.375 512.875,717.375 520.625,721.125 528.25,725.625 532.0,728.25 539.375,733.875 543.125,737.125 550.125,744.0 557.0,751.875 563.5,760.625 566.625,765.5 572.5,775.75 575.125,781.375 577.625,787.25 582.0,800.125 583.75,807.0 585.125,814.375"/>
    <polyline points="586.25,822.0 586.875,830.125 587.125,838.75 586.625,847.875 585.625,857.5 583.75,867.625 581.125,878.375 577.375,889.75 572.5,901.875 566.25,914.625 558.5,928.125 549.0,942.375 537.5,957.375 523.625,973.0 507.375,989.125 488.25,1005.875 464.3421,1024.0"/>
    <polyline points="112.5855,1024.0 101.5,997.375 95.25,959.0 96.125,917.375 103.25,874.25 115.625,831.125 131.625,789.5 150.125,750.125 169.875,713.75 190.0,680.625 209.875,650.875 228.875,624.375 246.75,601.125 263.375,580.625 278.5,562.875 292.25,547.375 304.625,533.875 325.625,512.0 365.0,472.875"/>
    <polyline points="369.125,468.75 378.375,458.375 382.5,452.625 385.5,447.5 386.5,445.125 387.375,442.75 388.375,438.125 388.75,433.625 388.625,431.375 388.0,426.875 386.875,422.25 383.0,412.375 379.0,404.625"/>
    <polyline points="377.5,401.875 370.625,390.5 353.0,365.125 320.375,321.25"/>
    <polyline points="318.25,318.375 309.5,306.625 324.25,335.125 335.5,358.875 348.125,387.125 360.375,416.375"/>
    <polyline points="364.25,425.75 374.875,451.25 384.125,471.625 392.375,486.5 397.375,493.5 399.75,496.125 404.375,500.25 408.875,502.75 411.0,503.5 415.0,504.125 418.875,503.875 422.5,503.0 425.75,501.375"/>
    <polyline points="427.25,500.5 430.0,498.375 434.5,493.25 436.875,489.0 438.875,482.875 439.375,478.0 439.125,472.875 438.125,467.625 436.25,462.125"/>
    <polyline points="435.5,460.25 432.75,454.375 430.5,450.375 426.625,443.875 421.875,437.0 412.5,424.5 390.375,397.625"/>
    <polyline points="387.375,394.25 349.25,349.625 319.125,313.375 300.75,289.875 287.25,271.5"/>
    <polyline points="283.0,265.5 272.0,248.625 267.0,239.625 265.5,236.25 265.0,234.0 265.375,233.125 267.0,233.875 269.875,236.625 274.125,241.75 279.875,249.5 286.875,260.125 295.125,273.625 304.5,290.0 314.625,309.125 325.0,330.625 335.5,353.875 345.75,378.25 355.25,403.125 364.0,427.75 371.75,451.625 378.625,474.125 389.5,513.875"/>
    <polyline points="393.875,530.75 401.125,558.5 407.375,578.875 410.375,586.75 413.375,593.125 416.375,598.375 419.5,602.5 422.75,605.75 426.125,608.375 429.625,610.25 433.125,611.625 436.75,612.5 444.25,613.375 459.875,612.75 483.375,610.625"/>
    <polyline points="487.25,610.375 498.625,610.0 509.75,610.375 524.375,612.125 531.625,613.5 542.625,616.25 553.625,619.75 564.75,624.0 580.25,630.875"/>
    <polyline points="584.25,632.75 596.625,638.875 644.0,663.75 655.125,669.375 673.125,677.875 693.125,686.25 708.0,691.5 724.0,696.375"/>
    <polyline points="732.625,698.625 751.25,702.25 761.25,703.625 771.875,704.625 783.125,705.125 795.0,705.125 807.75,704.5 821.125,703.0 835.5,700.625 850.875,697.125 867.25,692.375 884.75,686.125 903.375,678.125 923.125,668.125 944.125,655.875 966.375,641.0 989.5,623.125 1013.25,602.125 1024.0,591.151"/>
    <polyline points="1024.0,243.2079 1019.75,241.75 976.125,235.625 929.75,235.625 882.625,241.0 836.625,250.5 793.0,262.5 752.625,276.25 715.875,290.75 683.125,305.25 654.25,319.25 629.0,332.375 607.0,344.625 571.75,365.75 545.75,382.625 501.75,413.0"/>
    <polyline points="497.25,415.875 489.75,420.5 480.875,424.625 475.75,426.125 471.0,426.75 468.75,426.75 462.125,426.0 453.125,423.375 448.375,421.375 441.125,417.625 433.5,413.0"/>
    <polyline points="430.875,411.25 422.5,405.625 413.75,399.125 401.25,389.0 391.0,380.25 380.125,370.625 364.375,355.875 342.5,334.375"/>
    <polyline points="337.75,329.625 317.5,308.875 295.0,284.875 282.75,271.375 262.875,249.125 233.625,214.5 209.5,183.875 192.5,160.625 175.25,134.875 166.875,121.0"/>
    <polyline points="158.75,106.75 151.5,92.0 145.5,77.375 141.25,63.5 140.0,51.25 142.875,42.5 151.375,39.625 167.25,45.875 191.625,65.375 224.875,101.75 265.375,157.0 309.375,230.375 351.5,316.875 386.875,409.25 412.375,499.625 427.125,582.5 432.375,654.875 430.125,715.75 422.25,765.875 410.875,806.5 397.125,839.0 382.0,864.5 366.25,884.125 350.375,898.75 335.0,908.75 320.125,914.75"/>
    <polyline points="306.375,917.0 293.875,916.0 283.0,912.0 273.875,905.125 266.75,895.875 261.625,884.375 258.5,871.25 257.5,856.75 258.5,841.125 261.125,824.875 265.375,808.25 271.0,791.625 277.75,775.125 285.375,759.125 293.625,743.625 302.375,728.875 311.5,714.875 329.875,689.625 348.0,667.75 356.75,658.0 365.25,649.125 381.25,633.5 388.875,626.75"/>
    <polyline points="396.0,620.5 415.625,605.0 427.25,596.875 437.75,590.125 451.75,582.125 464.125,576.25 471.375,573.125 478.25,570.625 484.625,568.625 490.625,567.125 501.5,565.25"/>
    <polyline points="504.125,565.0 509.125,564.625 518.625,564.75 525.375,565.5 532.0,566.75 543.0,569.875 551.875,573.25 561.125,577.375"/>
    <polyline points="563.5,578.5 586.5,590.75 617.75,608.25 640.75,620.125"/>
    <polyline points="645.125,622.25 654.0,626.375 668.5,632.375 679.125,636.375 690.5,640.125 702.625,643.5 709.125,645.0 730.25,648.75 745.875,650.125 754.125,650.375 772.0,650.0 781.5,649.125 791.375,647.75 801.875,645.875 812.75,643.25 824.0,640.0"/>
    <polyline points="835.875,635.875 848.25,630.875 861.0,624.875 874.25,617.75 887.875,609.5 901.75,599.875 915.875,589.0 929.875,576.5 943.75,562.625 957.25,547.25 969.75,530.5 981.25,512.375 991.0,493.25 998.625,473.375 1003.625,453.125 1005.625,433.0 1004.125,413.5 998.875,395.125 989.75,378.5 976.875,364.25 960.375,352.375 940.75,343.5 918.5,337.375 894.375,334.0 869.0,333.25 843.0,334.75"/>
    <polyline points="817.0,338.125 791.625,343.0 767.125,349.0 743.75,355.75 721.875,363.0 701.5,370.5 682.625,377.875 649.5,392.25 622.125,405.125 552.875,439.875 532.75,448.75 521.125,452.875"/>
    <polyline points="517.625,453.875 508.25,455.875 499.875,456.75 492.375,456.5 485.25,455.5 478.375,453.75 471.625,451.375 462.75,447.125 456.0,443.25"/>
    <polyline points="453.625,441.75 441.75,433.5 434.25,427.625 418.0,413.75 399.625,396.5 382.125,379.25"/>
    <polyline points="378.375,375.5 362.375,358.875 340.0,334.625 320.0,312.0 303.625,292.75 292.125,278.875 274.375,256.125 262.5,240.0 250.875,223.25"/>
    <polyline points="245.5,214.875 236.0,198.5 232.25,191.125 229.625,184.375 228.125,179.0 228.25,175.5 230.375,174.25 234.875,176.25 241.875,182.25 251.75,193.0 264.25,209.375 279.25,231.625 296.125,259.875 314.125,293.375 332.0,331.0 348.875,371.375 363.875,412.5 376.625,453.0 386.75,491.375 394.5,526.5 400.125,558.0 404.0,585.625 406.625,609.25 409.75,646.0"/>
    <polyline points="410.75,659.75 411.625,670.875 412.75,679.875 414.0,686.875 415.625,692.375 417.375,696.5 419.5,699.5 422.0,701.625 424.75,703.125 427.625,704.0 434.25,704.5 441.5,704.125 465.625,701.625 474.0,701.375 482.375,701.625 490.75,702.5"/>
    <polyline points="494.875,703.125 503.125,704.875 511.375,707.375 519.5,710.625 531.5,716.75 543.375,724.625 547.25,727.625 554.875,734.25 562.375,741.75 569.625,750.125 579.875,764.5 583.125,769.875 589.25,781.375"/>
    <polyline points="592.125,787.625 597.125,801.0 599.25,808.25 601.0,816.0 602.5,824.125 603.5,832.625 604.0,841.75 603.875,851.375 603.125,861.5 601.625,872.375 599.125,883.875 595.625,896.0 590.75,909.125 584.375,922.875 576.375,937.625 566.375,953.25 554.0,969.875 539.125,987.375 521.125,1005.75 500.7138,1024.0"/>
    <polyline points="64.8291,1024.0 57.875,998.625 55.625,950.875 61.875,900.375 75.0,849.625 93.25,800.25 114.75,753.75 137.875,711.0 161.375,672.375 184.375,638.125 206.25,608.0 226.5,581.875 245.125,559.25 261.875,539.875 276.875,523.25 290.125,509.125 312.375,486.75 329.375,470.5"/>
    <polyline points="336.375,464.125 362.75,440.625 369.375,433.875 373.375,428.5 375.375,423.625 376.0,420.375 376.0,417.125 375.5,413.75 373.375,406.625"/>
    <polyline points="372.625,404.625 367.75,394.5 356.625,376.25 346.75,361.875 337.0,348.5"/>
    <polyline points="335.5,346.5 330.5,339.875 328.0,337.0 327.125,336.375 327.0,336.875 327.625,338.875 330.25,344.875 347.75,382.375"/>
    <polyline points="350.25,387.75 364.875,419.375 371.625,432.875 377.75,443.875 383.375,452.125 386.625,456.0 388.25,457.5 392.5,460.5 395.0,461.375 397.125,461.375"/>
    <polyline points="398.125,461.0 399.875,460.0 401.25,458.375 402.25,456.25 402.875,453.75 403.125,450.75 402.875,445.75 401.75,440.125 399.75,433.875 396.875,427.0 393.125,419.5"/>
    <polyline points="391.625,416.875 383.0,402.875 374.5,390.5 359.125,369.625 328.5,329.625"/>
    <polyline points="325.25,325.5 307.625,301.625 297.375,286.375 304.875,298.25 312.125,311.25 321.5,329.375 337.75,364.125"/>
    <polyline points="343.5,377.125 354.5,403.75 385.125,484.0 391.75,499.5 397.875,511.5 403.625,520.375 406.5,523.75 412.0,528.75 414.75,530.5 420.125,532.75 425.375,533.625 430.5,533.5"/>
    <polyline points="433.0,533.25 437.875,532.125 444.625,529.75 450.75,526.875 456.25,523.75 465.125,517.375 470.5,512.375 472.875,509.5"/>
    <polyline points="473.5,508.625 475.75,505.0 476.5,503.25 477.375,499.75 477.5,498.0 477.125,493.625 476.0,490.0 474.25,486.25"/>
    <polyline points="473.75,485.375 470.625,480.25 465.5,473.5 456.5,463.0 447.875,453.625"/>
    <line x1="446.25" x2="386.875" y1="452.0" y2="388.75"/>
    <polyline points="383.5,385.125 369.125,369.5 344.625,342.0 316.375,308.75 306.25,296.375 290.625,276.5 280.25,262.5 270.375,248.5"/>
    <polyline points="265.75,241.5 257.5,228.25 251.75,217.0 250.125,212.625 249.625,209.75 250.5,208.375 252.875,209.25 257.0,212.875 263.0,219.5 270.875,229.75 280.625,244.0 292.0,262.25 304.5,284.375 317.75,310.125 331.125,338.625 344.0,369.0 356.0,400.25 366.625,431.25 375.875,461.125 383.5,489.25 389.875,515.0 395.0,538.125 402.5,576.25"/>
    <polyline points="405.375,591.375 410.5,614.625 412.875,623.375 415.375,630.5 418.0,636.125 420.875,640.5 423.875,644.0 427.0,646.5 430.375,648.375 434.0,649.75 437.625,650.625 445.375,651.375 453.625,651.25 483.5,649.75 496.5,650.0"/>
    <polyline points="500.75,650.25 513.625,651.75 526.375,654.375 534.875,656.75 552.125,663.125 560.75,667.0 574.125,673.75 592.5,684.625 612.0,697.5"/>
    <polyline points="617.0,701.125 638.375,716.5 680.75,748.375 701.75,763.75 716.875,774.5 733.375,785.375 751.125,796.375 770.875,807.125 792.75,817.25 804.875,822.0"/>
    <polyline points="817.75,826.25 831.75,830.0 846.875,833.125 863.25,835.25 881.375,836.25 901.375,835.75 923.625,833.375 948.5,828.375 976.625,820.25 1008.5,808.125 1024.0,800.67"/>
    <polyline points="1013.3523,0.0 992.375,3.25 876.0,37.625"/>
    <polyline points="774.0,79.5 689.125,123.125 621.125,165.25 568.75,204.125 529.75,239.375 502.125,271.0 483.875,299.5 473.5,325.25 469.375,348.625 470.25,369.75 475.25,389.0 483.25,406.25 493.375,421.75 505.0,435.375 517.375,447.125 530.125,457.0 542.625,465.375 554.5,472.0 565.75,477.375 576.0,481.5 585.125,484.5 593.25,486.75 600.125,488.25 606.125,489.375 614.875,490.5"/>
    <polyline points="618.0,490.75 623.0,491.5 623.625,492.125 621.75,494.0 615.125,498.75 608.875,503.75 604.5,507.875 598.375,515.125"/>
    <polyline points="597.375,516.625 594.875,521.0 593.125,525.375 592.0,531.125 592.0,534.0 592.75,539.875 593.625,542.75 595.5,547.25 599.125,553.25"/>
    <polyline points="600.25,554.75 605.25,561.0 611.625,567.375 621.5,575.75 630.875,582.625 639.0,587.875 654.75,596.625"/>
    <polyline points="658.25,598.375 665.625,601.75 677.75,606.625 686.625,609.625 696.125,612.375 711.75,615.875 729.125,618.125 741.875,618.75 748.625,618.75 755.625,618.375 770.25,616.875 786.0,614.0 794.375,611.875 802.875,609.25"/>
    <polyline points="811.625,606.125 820.625,602.5 829.875,598.25 839.25,593.375 848.75,587.75 858.25,581.375 867.875,574.25 877.375,566.375 886.625,557.625 895.5,548.25 904.0,538.0 911.75,527.125 918.75,515.625 924.625,503.625 929.375,491.25 932.625,478.75 934.25,466.25 934.0,454.0 931.875,442.25 927.75,431.25 921.5,421.125 913.375,412.125 903.25,404.375 891.5,398.125 878.125,393.25 863.625,389.75"/>
    <polyline points="848.0,387.75 831.875,387.0 815.25,387.375 798.5,388.875 781.875,391.375 765.5,394.375 749.625,398.125 734.25,402.25 719.625,406.625 692.75,416.0 669.0,425.375 648.25,434.25 615.125,450.0 576.625,469.875"/>
    <polyline points="572.625,472.0 543.75,486.625 528.5,493.125 521.25,495.375"/>
    <polyline points="520.25,495.625 515.375,496.625 509.0,496.875 504.75,496.25 500.75,495.0"/>
    <polyline points="500.125,494.625 496.75,493.125 490.375,489.125 481.375,482.0"/>
    <polyline points="480.5,481.25 462.5,465.0 448.875,451.75"/>
    <polyline points="447.125,450.125 420.125,423.0 385.375,386.5"/>
    <polyline points="381.875,382.75 350.875,348.75 318.25,310.875 292.25,278.625 281.625,264.625 266.5,243.0"/>
    <polyline points="261.75,235.875 257.5,229.0 250.625,216.625 248.375,211.375 247.125,207.375 247.125,204.875 248.625,204.25 251.875,206.125 256.875,211.0 264.0,219.25 273.0,231.5 283.875,248.0 296.375,268.625 309.75,293.375 323.625,321.375 337.375,352.0 350.375,384.125 362.125,416.5 372.25,448.125 380.875,478.25 387.875,506.125 393.625,531.25 398.125,553.625 404.75,589.875"/>
    <polyline points="407.25,604.125 409.625,615.875 412.0,625.625 414.375,633.625 416.75,640.0 419.375,645.0 422.25,649.0 425.25,651.875 428.5,654.125 431.875,655.625 435.5,656.75 443.125,657.75 455.375,657.625 468.125,656.75 481.125,656.25 489.875,656.25 498.5,656.75"/>
    <polyline points="502.875,657.125 511.5,658.25 528.75,662.125 537.375,664.875 546.0,668.125 554.75,672.0 568.0,678.625 586.25,689.5 595.625,695.75 615.25,710.0"/>
    <polyline points="620.25,714.0 641.625,731.125 664.625,750.75 748.625,825.125 774.875,847.125 794.125,862.25"/>
    <polyline points="804.375,869.875 826.625,885.125 838.75,892.625 851.625,899.75 865.5,906.625 880.625,913.0 897.0,918.625 915.0,923.375 935.25,926.625 958.0,928.0 983.875,926.875 1013.75,922.25 1024.0,919.5777"/>
    <polyline points="678.1066,0.0 590.625,59.5 516.625,125.5 469.25,185.75 443.625,241.125 436.25,292.75 443.5,341.125 462.5,386.0 490.375,426.5 524.125,461.75 560.875,490.5 598.25,512.5 634.125,527.5 667.375,536.375 697.0,539.875 722.75,539.375 744.625,535.75 763.0,530.0 777.875,523.125 789.875,515.5 799.125,507.625 806.125,499.875 810.875,492.375"/>
    <polyline points="813.875,485.375 815.125,479.0 815.0,473.125 813.5,468.0 810.875,463.5 807.125,459.625 802.625,456.375 797.25,453.75 791.25,451.875 784.75,450.5 777.875,449.625 770.625,449.25 755.5,449.875 740.25,452.0 732.625,453.5 717.75,457.25 703.75,461.5 690.625,466.25 673.0,473.75"/>
    <polyline points="667.75,476.25 653.375,483.625 645.125,488.375 634.625,495.25 626.0,501.75 619.25,507.75 615.5,511.625 612.375,515.375 608.75,520.75 607.0,524.125 605.75,527.5"/>
    <polyline points="605.375,529.125 604.5,535.625 604.75,538.875 605.75,543.625 607.625,548.5 611.25,554.875 614.875,559.75 619.375,564.75 624.625,569.75"/>
    <polyline points="626.5,571.375 630.625,574.875 637.625,580.0 645.5,585.125 654.375,590.25 664.25,595.25 671.5,598.5 687.75,604.375 701.625,608.25 711.75,610.25"/>
    <polyline points="717.0,611.125 728.25,612.375 740.375,612.875 753.25,612.625 767.125,611.25 782.0,608.5 789.75,606.625 797.625,604.25 805.875,601.375 814.25,598.0 822.75,594.125 831.5,589.75 840.25,584.625 849.125,578.875 857.875,572.5 866.625,565.5 875.25,557.75 883.5,549.25 891.25,540.125 898.625,530.5 905.125,520.25"/>
    <polyline points="910.875,509.5 915.5,498.375 919.0,487.125 921.0,475.75 921.625,464.625 920.5,453.75 917.625,443.5 912.875,433.875 906.5,425.125 898.375,417.375 888.625,410.875 877.375,405.5 864.875,401.5 851.375,398.625 837.125,397.0 822.25,396.5 807.125,397.0 791.875,398.375 776.625,400.625 761.75,403.375 747.25,406.75 733.125,410.5 707.0,418.625 683.375,427.25"/>
    <polyline points="672.75,431.5 644.5,443.75 615.25,458.0 589.0,471.875 570.5,482.125 551.25,493.25"/>
    <polyline points="549.5,494.375 536.125,502.375 528.625,507.5 526.25,509.5"/>
    <polyline points="525.875,509.75 523.25,512.5 522.625,513.625 522.125,515.375 522.25,516.5"/>
    <polyline points="522.25,516.75 523.125,519.125 527.0,523.875"/>
    <polyline points="527.25,524.25 532.75,529.625 540.25,536.125"/>
    <polyline points="541.0,536.875 557.375,550.5 568.25,559.0"/>
    <polyline points="569.75,560.125 587.75,573.5 601.25,582.75 611.75,589.5 626.75,598.5"/>
    <polyline points="630.0,600.375 648.0,609.75 660.375,615.5 678.875,622.625 694.625,627.625 712.25,631.625 725.125,633.75 732.0,634.5 746.5,635.25 762.25,635.0"/>
  </g>
</svg>
