<?xml version="1.0" encoding="utf-8" ?>
<svg xmlns="http://www.w3.org/2000/svg" xmlns:cc="http://creativecommons.org/ns" xmlns:dc="http://purl.org/dc/elements/1.1/" xmlns:ev="http://www.w3.org/2001/xml-events" xmlns:inkscape="http://www.inkscape.org/namespaces/inkscape" xmlns:rdf="http://www.w3.org/1999/02/22-rdf-syntax-ns" xmlns:sodipodi="http://sodipodi.sourceforge.net/DTD/sodipodi-0.dtd" xmlns:xlink="http://www.w3.org/1999/xlink" baseProfile="tiny" height="27.09333333cm" version="1.2" viewBox="0 0 1024.0 1024.0" width="27.09333333cm">
  <metadata>
    <rdf:RDF>
      <cc:Work>
        <dc:format>image/svg+xml</dc:format>
        <dc:source>vpype read './original_svgs/Strange Attractors #71.svg' linemerge linesimplify write './Strange Attractors #71.svg'
</dc:source>
        <dc:date>2024-08-05T01:35:23.391112</dc:date>
      </cc:Work>
    </rdf:RDF>
  </metadata>
  <defs/>
  <g fill="none" id="layer1" inkscape:groupmode="layer" inkscape:label="1" stroke="black" stroke-width="0.7mm" style="display:inline">
    <polyline points="373.5,527.25 379.0,509.125 382.0,494.125 382.625,481.625 381.25,470.875 378.125,461.375 373.25,452.625 366.875,444.5 359.0,436.5 349.5,428.5 338.5,420.125 325.875,411.375 295.875,392.25 260.375,371.375 241.625,361.0 223.375,351.625 207.0,344.125 194.25,340.0 186.875,340.375 186.375,346.5 193.25,358.625 206.875,376.125 225.875,398.0 248.0,422.375"/>
    <polyline points="271.125,447.375 314.375,494.125 332.625,514.375 361.75,547.25 400.375,592.5 404.375,597.0 410.5,603.0 412.875,604.75 415.0,605.875 416.875,606.5 420.125,606.375 423.375,604.875 426.5,602.5 431.625,597.875"/>
    <polyline points="433.375,596.25 441.0,589.625 447.125,585.0 455.5,579.5 459.75,577.25 468.0,573.625 472.0,572.25 477.75,570.75 483.25,569.875"/>
    <polyline points="485.125,569.625 490.25,569.5 496.625,570.125 501.0,571.25 505.0,573.0 508.625,575.375 511.625,578.5 513.25,581.0 514.5,584.0 515.25,587.5"/>
    <polyline points="515.5,589.5 515.5,591.625 514.875,596.375 513.375,602.0 512.125,605.25 508.625,612.5 503.375,621.0 495.625,631.25 485.125,643.125 478.5,649.875 462.25,664.375 452.5,672.25 441.75,680.25 429.875,688.25 417.0,696.0 403.5,703.0 389.625,709.0 375.75,713.5 362.5,715.875"/>
    <polyline points="350.25,716.0 339.625,713.375 331.125,707.875 324.875,699.625 321.125,689.0 319.875,676.375 320.625,662.5 323.25,647.75 327.375,632.875 332.375,618.125 338.125,604.125 344.125,591.0 356.5,567.75 362.5,557.875 373.75,541.375 383.75,528.5 388.25,523.375 396.375,515.0 403.5,508.75 409.5,504.0"/>
    <polyline points="412.25,502.125 419.25,497.875 430.25,492.5 434.625,490.0 436.25,488.125 436.5,486.625 436.0,485.0"/>
    <polyline points="435.625,484.375 433.5,481.75 430.875,479.5 424.625,475.0 408.875,465.25 394.625,457.25"/>
    <polyline points="391.375,455.5 376.75,447.625 360.0,439.125 342.625,431.25 334.625,428.25 328.0,426.25 323.125,425.875 321.625,426.5 320.875,427.5 320.75,429.0 322.875,433.75 327.875,440.25"/>
    <polyline points="331.375,444.125 344.625,456.875 355.125,465.75 371.5,478.125 387.5,488.5 402.125,496.375 406.75,498.625 415.25,502.125 423.0,504.875 430.125,507.0 442.5,509.5"/>
    <polyline points="445.25,509.75 454.75,510.625 466.0,510.5 475.0,509.5 481.375,507.875"/>
    <polyline points="482.0,507.75 484.375,506.5 485.25,505.25 485.25,504.375 484.75,503.25 483.0,501.5"/>
    <polyline points="482.625,501.25 480.25,499.375 476.25,496.875 460.875,488.25"/>
    <line x1="459.375" x2="377.375" y1="487.375" y2="442.0"/>
    <polyline points="370.5,438.25 330.0,416.375 311.375,406.875 293.0,398.25 277.125,392.25 271.0,390.875 266.75,391.0 264.625,392.875 264.875,396.625 267.5,402.125 272.5,409.375 279.625,418.25 288.5,428.25 309.5,450.0 320.875,461.0 343.375,481.75 354.125,491.0"/>
    <polyline points="364.25,499.5 373.75,507.125 382.625,513.75 398.5,524.625 412.0,532.5 423.75,538.0 429.0,540.0 438.625,542.875 447.0,544.75 451.0,545.25 461.5,546.125 470.75,546.125 484.0,545.375"/>
    <polyline points="486.375,545.25 499.5,544.5 511.0,544.375 521.875,545.0 534.25,546.625"/>
    <polyline points="536.0,546.875 560.25,550.875 573.0,552.0 585.5,551.625 592.875,550.75 601.375,549.0"/>
    <polyline points="606.125,547.75 616.875,544.0 623.0,541.375 637.25,534.125 654.875,523.375 665.25,516.125 676.75,507.375 689.625,496.75 704.0,484.25 719.75,469.25 736.625,452.0 754.5,432.25 772.5,410.5 789.625,387.25 804.25,364.125 814.625,343.0 819.0,326.0 816.25,315.25 806.125,312.25 789.625,317.125 768.625,329.0 745.375,346.0 722.125,365.875"/>
    <polyline points="700.25,386.75 680.75,407.375 664.0,426.5 650.125,443.875 638.875,459.125 629.875,472.375 622.875,483.625 617.5,493.125 610.375,507.75 605.0,521.125 602.75,526.0 601.75,527.5 599.625,529.125 598.375,529.375 597.0,529.25 595.5,529.0 592.125,527.75 586.0,525.0"/>
    <polyline points="583.75,524.0 571.75,518.875 557.5,514.0 544.375,510.75 529.5,508.0"/>
    <polyline points="527.875,507.75 514.375,505.375 506.375,503.625 493.625,499.875"/>
    <polyline points="492.375,499.375 484.375,496.375 473.875,491.75 456.625,483.25 449.375,479.375"/>
    <polyline points="446.625,478.0 423.125,465.25 341.0,419.0 305.375,399.375 279.0,385.625 266.125,379.25"/>
    <polyline points="254.0,373.875 243.5,370.0 235.5,368.375 230.75,369.25 229.875,373.5 233.125,380.875 240.5,391.5 251.375,404.875 264.875,420.0 280.125,436.375 296.125,452.875 312.125,469.125 341.625,498.25 377.125,531.125 395.0,546.0 409.125,556.375 415.125,560.125 425.5,565.625 434.25,568.875"/>
    <polyline points="438.0,569.875 445.0,571.125 454.125,571.5 462.0,571.0 481.625,568.75 489.0,568.625 495.75,569.25"/>
    <polyline points="497.25,569.625 501.75,570.75 504.5,571.875 508.25,574.125 510.5,575.875 512.5,578.125 514.875,582.0 515.5,583.625 516.5,589.0 516.375,593.5 515.375,598.75 513.375,604.875"/>
    <polyline points="511.875,608.375 507.5,616.25 501.125,625.75 492.0,636.875 486.25,643.25 479.625,650.0 471.875,657.25 463.125,664.875 453.25,672.875 442.25,681.125 430.125,689.375 417.0,697.375 403.125,704.625 388.875,710.875 374.625,715.625 360.875,718.25 348.25,718.25 337.25,715.5 328.5,709.875 322.25,701.375 318.5,690.375 317.25,677.25 318.25,662.875"/>
    <polyline points="321.0,647.625 325.25,632.25 330.5,617.25 336.375,602.875 342.625,589.5 348.875,577.125 355.125,566.0 367.0,547.125 372.5,539.25 382.375,526.5 386.875,521.25 394.875,513.0 401.875,506.75 410.375,500.375 417.25,496.25 422.625,493.5"/>
    <polyline points="424.125,492.75 429.875,490.0 432.5,488.125 433.5,486.625 433.625,485.125 432.625,482.875 430.875,480.875 428.375,478.75"/>
    <polyline points="427.375,477.875 415.625,469.875 399.125,460.25 383.375,451.625 364.25,441.875"/>
    <polyline points="360.25,439.875 344.125,432.75 333.75,429.125 330.875,428.5 326.75,428.375 325.375,429.0 324.75,430.0 324.75,431.5 325.5,433.5 326.875,435.875 328.875,438.75 334.625,445.375 342.5,453.125 351.75,461.25 366.875,473.125"/>
    <polyline points="372.0,476.75 382.125,483.5 396.5,491.75 405.375,496.125 417.5,501.125 428.0,504.375 434.25,505.875 447.5,507.875 457.625,508.25"/>
    <polyline points="459.375,508.25 466.75,507.75 472.0,506.875 476.75,505.25 477.875,504.5 478.875,503.25"/>
    <polyline points="479.0,503.0 478.875,502.0 478.0,500.375 475.625,498.125 467.25,492.625"/>
    <line x1="466.25" x2="412.0" y1="492.0" y2="461.625"/>
    <polyline points="407.875,459.375 346.875,425.875 330.0,417.0 312.25,408.125 295.0,400.25 287.25,397.125 280.5,395.0 275.0,394.0 271.25,394.375 269.5,396.375 269.875,400.0 272.625,405.375 277.375,412.25 284.125,420.625"/>
    <polyline points="292.5,430.0 312.25,450.375 333.875,470.75 344.5,480.25 364.5,497.125 382.375,510.75 390.375,516.375 397.875,521.25 411.375,528.875 423.125,534.375 428.375,536.375 438.0,539.375 446.5,541.125 454.125,542.25 464.25,542.75"/>
    <polyline points="467.375,542.875 481.125,542.375 503.0,541.0 510.375,540.875 521.0,541.25"/>
    <polyline points="522.75,541.375 556.0,545.125 565.375,545.625 573.25,545.625"/>
    <polyline points="576.125,545.5 582.375,544.875 589.375,543.75 601.625,540.625 611.5,537.125 623.0,532.0 629.5,528.625 644.5,519.625 662.5,507.0 672.875,499.0 684.125,489.5 696.375,478.625 709.5,466.0 723.25,451.875 737.375,436.125 751.375,419.125 764.5,401.5 775.625,384.0"/>
    <polyline points="783.875,367.875 788.125,354.5 787.5,345.125 781.875,340.75 771.5,341.625 757.25,347.625 740.375,357.875 722.25,371.25 704.125,386.375 686.625,402.125 670.75,417.625 656.5,432.25 633.25,457.75 592.0,506.25 583.75,514.0 579.375,516.75"/>
    <polyline points="577.375,517.625 573.625,518.625 569.875,519.0 562.5,518.125 555.125,516.375 531.5,509.875"/>
    <polyline points="529.75,509.375 510.25,503.875 502.5,501.375 489.875,496.625"/>
    <polyline points="488.25,496.0 472.25,488.75 461.625,483.5 428.0,465.125"/>
    <polyline points="423.5,462.625 378.0,436.25 251.625,361.625 202.625,334.375 179.625,322.75 160.75,315.125 149.5,313.875 148.375,321.0 158.5,337.5 178.75,362.25 206.0,393.0 236.375,426.5"/>
    <polyline points="266.375,459.875 293.75,491.25 317.125,519.375 336.25,543.875 351.25,564.75 362.5,582.125 370.875,596.625 376.625,608.5 380.375,617.875 382.625,625.375 383.75,631.0 384.0,635.0 383.875,637.625 383.5,639.0 383.125,639.125 382.75,638.25 383.0,633.875 384.625,626.75 386.125,622.5 390.125,613.25 395.5,603.375 398.5,598.5"/>
    <polyline points="401.75,593.75 412.25,580.375 419.625,572.5 426.875,565.75 434.0,559.75 440.875,554.75 447.5,550.625 459.625,544.0 470.5,539.5 480.0,536.375"/>
    <polyline points="482.25,535.875 492.375,533.5 503.0,532.0 512.375,531.375 523.875,531.5"/>
    <polyline points="525.375,531.5 551.0,533.375 562.5,533.5 566.75,533.25"/>
    <polyline points="569.125,533.125 579.25,531.75 585.125,530.5 591.625,528.75 598.875,526.375 611.375,521.125 621.125,516.125 626.5,513.0 632.25,509.5 644.875,501.0 659.125,490.0 666.875,483.625 674.875,476.375 691.625,460.125"/>
    <polyline points="700.0,451.0 708.125,441.5 715.75,431.875 722.5,422.375 728.0,413.25 732.0,405.0 734.125,398.125 734.0,393.0 731.75,389.75 727.25,388.875 720.875,390.125 712.625,393.5 703.25,398.625 692.875,405.25 682.125,412.75 660.625,429.375 608.625,472.875 590.625,486.625"/>
    <polyline points="585.625,490.125 581.0,493.125 568.875,499.75 562.125,502.625 556.0,504.625 550.625,505.875 545.5,506.625 536.625,507.125 530.625,506.875 519.75,505.5"/>
    <polyline points="518.125,505.25 508.5,503.125 496.125,499.375 486.75,495.875 478.125,492.125"/>
    <polyline points="476.375,491.375 466.5,486.75 446.375,476.375 424.5,464.375 390.0,444.75"/>
    <polyline points="382.125,440.25 297.875,391.625 262.875,372.125 244.625,362.375 226.875,353.5 211.125,346.625 198.875,342.75 191.75,343.25 191.125,349.125 197.375,360.625 210.25,377.375 228.125,398.25 249.25,421.5 332.0,510.625 361.125,542.875"/>
    <polyline points="372.5,555.625 401.375,587.875 409.5,595.875 415.375,600.375 417.75,601.75 421.875,602.75 423.75,602.625 427.25,601.625 432.25,598.625 446.875,587.75"/>
    <polyline points="448.75,586.375 460.375,579.75 466.125,577.25 471.75,575.375 477.125,574.125 483.875,573.375 487.125,573.375 493.0,574.125"/>
    <polyline points="494.375,574.5 497.0,575.375 500.625,577.25 503.625,579.875 505.25,582.0 506.5,584.625 507.625,589.25 507.75,593.125 506.5,600.0 502.875,608.75 498.875,615.75"/>
    <polyline points="496.25,619.625 489.5,628.5 485.25,633.375 474.875,644.25 461.375,656.125 453.5,662.5 444.875,668.875 435.375,675.375 425.25,681.5 414.5,687.25 403.5,692.25 392.375,696.25 381.5,698.875 371.125,699.875 361.875,699.125 353.75,696.375 347.25,691.5 342.5,684.75 339.625,676.25 338.375,666.25 338.875,655.25 340.75,643.625 343.875,631.625"/>
    <polyline points="347.875,619.75 352.5,608.25 357.5,597.25 362.875,586.875 368.375,577.375 373.875,568.625 384.375,553.5 389.5,547.125 394.25,541.5 403.25,532.0 411.25,524.75 418.5,519.0 427.625,512.875 432.875,509.875 443.375,504.875"/>
    <polyline points="445.0,504.25 453.75,500.375 457.625,497.875 458.5,496.625 458.75,495.25 458.375,493.875 457.375,492.375"/>
    <polyline points="456.875,491.75 453.625,488.75 447.25,484.25 433.75,476.0 418.5,467.25"/>
    <polyline points="415.375,465.5 387.625,450.125 360.0,435.25 333.625,421.875 320.125,415.625 307.75,410.625 302.375,409.0 297.875,408.0 294.5,407.875 292.25,408.75 291.375,410.625"/>
    <polyline points="292.0,413.625 294.0,417.75 297.5,422.875 302.375,428.75 308.25,435.5 322.75,450.125 339.0,465.125 347.375,472.25 363.75,485.625 371.625,491.5 379.125,496.875 393.125,505.875 399.625,509.75 411.625,515.875 422.125,520.375 427.0,522.125 436.0,524.75 444.125,526.5"/>
    <polyline points="447.875,527.125 458.0,528.25 469.5,528.625 481.5,528.125 504.125,526.625"/>
    <polyline points="505.5,526.625 517.0,526.375 527.625,526.875 535.875,527.625"/>
    <polyline points="537.125,527.75 552.25,529.0 562.5,529.0 572.875,528.125 580.125,526.875"/>
    <polyline points="582.75,526.25 588.375,524.875 598.125,521.625 609.375,516.875 613.625,514.75 627.75,506.75 644.375,495.375 656.875,485.5 670.25,473.625 677.125,467.0 690.625,452.625 697.0,445.125 707.875,430.125"/>
    <polyline points="712.0,423.25 714.875,417.0 716.375,411.75 716.375,407.75 714.75,405.25 711.5,404.125 706.75,404.75 700.625,406.75 693.5,410.125 685.5,414.625 668.25,426.125 650.75,439.125 606.0,473.625 589.375,485.25 575.875,493.25"/>
    <polyline points="571.875,495.375 558.25,501.125 547.25,504.125 540.125,505.25 533.875,505.75 526.375,505.75 518.125,505.125 515.125,504.625"/>
    <polyline points="513.625,504.5 502.375,502.125 495.625,500.125 484.375,496.0 478.25,493.375"/>
    <polyline points="476.625,492.625 450.125,479.5 427.625,467.375 404.0,454.125"/>
    <polyline points="398.0,450.75 314.375,403.625 287.25,388.875 259.375,374.875 246.625,369.125 235.625,365.25 227.625,363.75 223.25,365.375 223.375,370.5 228.0,379.25 237.0,391.5 249.625,406.5 264.875,423.25 298.5,458.75 315.25,475.75"/>
    <polyline points="331.0,491.5 358.5,518.375 370.125,529.375 389.375,546.75 397.375,553.375 404.5,558.75 416.375,566.875 425.875,572.0 430.0,573.625 433.875,574.875 440.625,576.375 446.625,576.875 452.0,576.75 466.0,574.875"/>
    <polyline points="468.0,574.5 481.25,572.875 486.375,572.875 492.5,573.625 496.5,574.875 500.25,576.75 502.375,578.25 505.125,581.25"/>
    <polyline points="505.875,582.5 507.125,585.125 508.125,590.0 507.75,596.125 506.5,601.125 502.5,610.125 500.5,613.75 495.25,621.625 488.0,630.75 483.375,635.875 472.25,647.0 465.5,653.125 458.0,659.375 449.625,665.875 440.5,672.375"/>
    <polyline points="430.625,678.75 420.125,684.75 409.125,690.25 397.875,694.875 386.75,698.375 376.0,700.375 366.0,700.5 357.125,698.75 349.625,695.0 344.0,689.125 340.0,681.375 338.0,672.0 337.625,661.375 338.875,649.875 341.375,637.875 345.0,625.75 349.375,614.0 354.25,602.5 359.625,591.75 365.0,581.75 370.5,572.5 381.375,556.5 391.375,543.75 396.125,538.375"/>
    <polyline points="400.625,533.625 408.875,525.75 416.25,519.75 422.75,515.125 433.5,508.75 441.75,504.75 451.5,500.625 454.875,498.75"/>
    <polyline points="455.5,498.375 456.875,497.125 457.625,495.875 457.5,494.0 456.75,492.5 454.125,489.625 447.375,484.625"/>
    <polyline points="446.125,483.75 425.375,471.25 399.125,456.5 369.625,440.625"/>
    <polyline points="363.875,437.5 338.25,424.375 324.875,418.0 312.25,412.625 301.75,409.25 297.625,408.625 294.75,408.875 293.0,410.125 292.75,412.375 293.875,415.75 296.375,420.125 300.25,425.375 311.5,438.25 326.125,452.75 334.125,460.125 350.5,474.375 358.625,480.875"/>
    <polyline points="366.5,487.125 381.5,497.75 395.25,506.5 401.5,510.0 413.125,515.875 423.5,520.125 437.0,524.25 448.625,526.5 455.375,527.25 464.5,527.75 477.125,527.5"/>
    <polyline points="479.375,527.5 503.75,525.75 510.25,525.5 517.375,525.625"/>
    <polyline points="518.5,525.625 529.625,526.25 548.125,528.0"/>
    <polyline points="549.625,528.125 555.75,528.375 564.5,528.25 577.375,526.75 588.0,524.25 594.125,522.375 608.5,516.5"/>
    <polyline points="612.5,514.5 621.375,509.75 631.375,503.625 642.375,496.0 654.375,486.5 660.75,481.125 673.875,469.0 680.5,462.375 693.25,448.125 704.125,433.625 708.375,426.875 711.625,420.625 713.5,415.375 713.875,411.125 712.875,408.125 710.25,406.625 706.125,406.625 700.75,408.0 694.25,410.75"/>
    <polyline points="686.875,414.75 678.875,419.625 661.875,431.125 615.125,466.75 591.75,483.5 577.875,491.875 570.0,496.0 559.875,500.25 548.625,503.625"/>
    <polyline points="546.125,504.125 537.125,505.375 527.5,505.75 514.75,504.75 503.75,502.625"/>
    <polyline points="502.5,502.25 494.625,500.0 485.125,496.5 471.0,490.25 465.5,487.5"/>
    <polyline points="463.5,486.5 444.25,476.625 427.5,467.5 350.875,424.375"/>
    <polyline points="340.375,418.5 304.0,398.375 277.0,384.125 263.75,377.625 251.25,372.125 240.5,368.125 232.375,366.375 227.625,367.5 226.875,371.875 230.625,379.75 238.5,391.0 250.0,404.875 264.25,420.75 296.5,454.75 312.75,471.25 342.75,500.875 367.625,524.5 378.125,534.0 395.75,548.875"/>
    <polyline points="403.125,554.5 409.625,559.125 420.75,565.875 430.0,570.0 434.0,571.375 441.125,573.125 447.5,573.75 455.875,573.625 481.875,570.625"/>
    <polyline points="483.625,570.5 492.125,570.875 496.625,571.75 499.5,572.625 504.625,575.25 507.75,577.875 510.375,581.375 512.125,585.875 512.625,589.5"/>
    <polyline points="512.625,591.5 511.625,598.625 509.75,604.375 506.5,611.25 501.625,619.25 494.625,628.75 485.0,639.75 479.0,645.875 472.25,652.375 455.625,666.5 446.0,673.875 435.25,681.25 423.75,688.5 411.5,695.25 398.75,701.125 385.875,705.875 373.375,709.0 361.5,710.25"/>
    <polyline points="350.875,709.0 341.875,705.375 334.875,699.25 330.0,690.875 327.25,680.375 326.75,668.25 328.0,655.125 330.875,641.5 334.875,627.75 339.875,614.25 345.375,601.375 351.125,589.25 357.125,578.125 363.0,568.0 368.75,558.875 374.25,550.75 379.625,543.5 389.375,531.5 393.875,526.625 402.0,518.625 409.125,512.5 415.375,508.0"/>
    <polyline points="418.125,506.125 425.375,501.875 441.75,493.75 444.125,491.375 444.375,490.375 444.25,488.875"/>
    <polyline points="444.0,488.375 443.375,487.125 440.25,483.875 433.625,478.875 423.375,472.375 408.5,463.75"/>
    <polyline points="405.5,462.0 379.25,447.625 360.25,437.75 344.75,430.125 329.5,423.5 320.75,420.5 317.125,419.625 314.0,419.25 311.75,419.5 310.375,420.5 310.0,422.125 310.5,424.375"/>
    <polyline points="312.0,427.375 314.375,431.0 321.875,440.0 338.125,455.875 344.25,461.375 357.25,472.0 363.625,477.0 376.375,486.125 388.375,493.875 394.125,497.25 409.875,505.25 419.125,509.0 427.625,511.875 438.875,514.75"/>
    <polyline points="442.25,515.375 454.25,516.875 466.25,517.25 480.5,516.375 490.125,515.25"/>
    <line x1="491.125" x2="505.0" y1="515.125" y2="512.875"/>
    <polyline points="505.25,512.75 508.75,512.0 509.25,511.75 509.25,511.25 502.625,508.125"/>
    <line x1="502.375" x2="493.0" y1="508.0" y2="503.75"/>
    <line x1="492.5" x2="472.125" y1="503.5" y2="493.25"/>
    <polyline points="471.0,492.625 447.25,480.125 412.625,461.0"/>
    <polyline points="408.125,458.5 358.125,430.75 331.375,416.25 311.375,405.875 291.25,396.0 281.75,391.875 273.125,388.625 266.0,386.5 260.625,386.0 257.5,387.375 257.125,390.875 259.375,396.375 264.375,404.0 271.875,413.5 281.25,424.25"/>
    <polyline points="292.25,436.0 316.375,460.25 340.625,483.0 352.125,493.125 362.75,502.375 382.0,517.75 398.375,529.25 405.5,533.75 418.25,540.75 429.25,545.375 434.125,547.0 438.625,548.375 447.0,550.125 458.0,551.25 467.5,551.375"/>
    <polyline points="470.375,551.25 499.0,549.625 506.875,549.625 512.5,550.0 523.25,551.25"/>
    <polyline points="525.0,551.625 533.875,553.5 542.875,556.125 574.75,567.25"/>
    <polyline points="577.25,568.0 588.625,571.125 595.125,572.375 602.375,573.25 606.5,573.5 615.5,573.125 620.75,572.5 626.5,571.25 633.0,569.625 640.25,567.125 648.625,563.625 658.25,558.75 669.5,552.25 682.75,543.625 698.5,532.25 717.25,517.125 739.625,497.5 766.125,472.125 796.875,439.875 831.25,400.25"/>
    <polyline points="867.0,353.875 899.75,303.875 922.375,256.75 927.75,221.875 911.625,207.875 876.375,217.875 830.125,248.125 782.625,290.0 740.875,335.625 708.25,379.375 685.5,418.5 672.0,452.5 666.0,481.5 666.125,505.875 670.75,526.375 678.0,543.25 686.75,556.75 695.5,566.875 703.25,573.5 709.0,577.0 712.5,577.375 713.5,575.0 712.25,570.375 709.125,564.125 704.5,556.875 699.0,549.0"/>
    <polyline points="692.875,541.0 680.5,525.75 663.5,507.375 654.0,498.5 645.75,492.0 642.0,489.625 638.5,487.625 632.125,484.875 623.5,483.125 618.375,483.0 611.125,484.0 602.5,486.5"/>
    <polyline points="600.5,487.25 591.375,491.125 582.625,495.625 575.125,500.125 570.625,503.75"/>
    <polyline points="570.125,504.125 568.5,506.5 568.375,507.375 568.875,508.5 570.5,509.5 574.875,510.125"/>
    <polyline points="575.625,510.125 581.625,509.625 586.625,508.625 594.375,506.25 605.75,501.375 614.625,496.5"/>
    <polyline points="617.0,495.0 624.375,490.125 631.875,484.375 641.625,475.625 648.0,469.0 652.625,462.75 654.375,459.25 654.75,457.875 654.75,455.625 654.125,454.875 652.0,454.25 650.375,454.375"/>
    <polyline points="648.5,454.875 641.375,457.5 629.25,463.75 591.75,486.0 577.125,494.125"/>
    <polyline points="575.0,495.25 554.5,505.75 550.5,508.0 547.375,510.25"/>
    <polyline points="547.0,510.625 545.625,512.5 545.875,514.375 546.5,515.125 548.25,516.25 550.25,517.0"/>
    <polyline points="550.875,517.25 555.125,518.25 563.0,519.0 574.125,518.375 579.25,517.5"/>
    <polyline points="581.25,517.125 589.625,514.875 599.5,511.25 611.375,505.625 621.5,499.75 629.0,494.875 640.875,486.0 649.25,479.0 661.5,467.25"/>
    <polyline points="665.25,463.125 672.125,454.875 677.5,447.125 679.375,443.625 681.125,438.0 681.0,436.0 680.0,434.625 678.375,433.75 676.125,433.75 673.0,434.25 669.5,435.375 665.25,437.125 655.875,442.125 645.375,448.375 634.5,455.375 608.875,472.5"/>
    <polyline points="604.25,475.5 587.5,485.75 580.25,489.875 570.625,494.75 557.5,500.375 551.125,502.625 545.5,504.375 537.75,506.25"/>
    <polyline points="536.375,506.625 524.0,508.75 515.875,509.375"/>
    <polyline points="515.375,509.375 510.0,509.125 505.875,508.25"/>
    <polyline points="505.5,508.25 501.5,507.0 495.375,504.5"/>
    <line x1="494.875" x2="475.875" y1="504.25" y2="495.125"/>
    <polyline points="474.875,494.625 453.875,483.625 424.75,467.625"/>
    <polyline points="421.0,465.625 350.0,426.25 321.75,411.125 301.375,400.75 281.625,391.625 272.875,388.25 265.625,386.125 260.125,385.625 256.875,386.875 256.375,390.25 258.625,395.875"/>
    <polyline points="263.625,403.5 271.0,412.875 280.5,423.75 291.5,435.5 315.875,460.0 340.25,483.0 351.75,493.25 372.625,510.75 381.875,518.0 390.375,524.25 398.25,529.625 405.5,534.125 412.125,538.0 423.875,543.75 429.125,545.875 438.625,548.75 450.75,551.125 457.875,551.75"/>
    <polyline points="461.25,551.875 475.75,551.5 496.75,550.125 506.75,550.125 517.75,551.0"/>
    <polyline points="519.5,551.25 530.125,553.25 540.875,556.25 550.25,559.5 566.75,566.125"/>
    <polyline points="569.0,567.0 581.25,571.875 589.625,574.75 595.875,576.625 602.625,578.125 614.625,579.625 619.25,579.625 630.0,578.625 636.375,577.25 643.625,575.125 651.875,572.125 661.5,567.625 672.875,561.5 686.375,553.0 702.75,541.375"/>
    <polyline points="722.625,525.75 746.75,504.75 776.125,476.875 810.875,440.5 850.75,394.625 892.875,339.625 931.375,279.75 956.375,224.125 958.0,186.125 931.625,176.875 883.5,198.25 826.5,241.625 773.0,295.125 730.25,349.0 700.75,398.125 684.0,440.875 677.875,477.375 680.375,508.375 688.875,534.375 701.25,555.875 715.125,572.75 728.125,584.75 738.875,591.875 745.875,594.0 749.0,591.5 748.375,585.375"/>
    <polyline points="744.625,576.25 738.75,565.5 724.125,542.0 702.625,510.375 691.125,494.125 686.125,487.625 677.5,477.25 673.5,473.375 669.75,470.25 666.125,467.875 662.5,466.125 659.0,464.875 655.375,464.125 651.75,463.875 648.125,464.0 640.625,465.25 636.875,466.25 625.75,470.375"/>
    <polyline points="622.125,472.0 604.75,480.375 577.375,494.5 559.875,502.875"/>
    <polyline points="558.5,503.5 551.25,507.125 546.875,509.875 544.625,512.125 544.25,513.25"/>
    <polyline points="544.25,513.5 545.0,515.0 547.375,516.625 550.0,517.625 555.25,518.75"/>
    <polyline points="556.125,518.875 564.75,519.375 576.875,518.25 584.625,516.625 596.25,512.875"/>
    <polyline points="598.875,511.75 604.625,509.375 614.125,504.5 624.75,498.125 632.5,492.75 640.625,486.625 649.125,479.5 657.5,471.75 665.625,463.375 672.75,454.875 675.75,450.75 680.25,443.375 681.625,440.125 682.25,437.5"/>
    <polyline points="682.125,435.25 681.375,433.75 679.75,432.875 677.375,432.75 674.375,433.25 670.75,434.375 661.875,438.5 651.75,444.25 640.75,451.125 609.125,472.25 595.5,480.875 587.5,485.75 576.75,491.625"/>
    <polyline points="573.5,493.25 562.125,498.5 552.75,502.0 543.375,504.875 535.875,506.625 527.75,508.0"/>
    <polyline points="526.75,508.125 518.875,508.875 510.875,508.75"/>
    <polyline points="510.375,508.75 505.5,507.875 500.125,506.125"/>
    <polyline points="499.625,506.0 492.25,503.0 484.5,499.375"/>
    <polyline points="483.75,499.0 464.25,489.125 449.625,481.25"/>
    <polyline points="447.375,480.0 339.875,420.75 310.25,405.125"/>
    <polyline points="300.0,400.0 280.375,391.0 271.75,387.75 264.5,385.75 259.25,385.375 256.375,386.875 256.125,390.625 258.75,396.375 264.0,404.25 271.75,414.0 281.5,425.0 292.75,437.0 317.25,461.5 341.625,484.375 363.75,503.75 373.75,511.875 391.375,525.25 399.25,530.5 412.875,538.625 419.0,541.75"/>
    <polyline points="424.5,544.25 429.75,546.25 439.125,549.25 447.5,550.875 454.875,551.75 461.625,552.125 470.625,552.0 497.0,550.375 501.0,550.375"/>
    <polyline points="503.0,550.375 514.375,550.875 523.25,552.125 530.25,553.625 537.375,555.625 548.375,559.375"/>
    <polyline points="550.25,560.125 560.25,564.125 583.375,574.25 597.625,579.875 607.875,582.875 615.625,584.375"/>
    <polyline points="620.0,584.875 624.625,585.125 629.875,585.0 635.625,584.5 642.0,583.375 649.5,581.375 658.0,578.375 668.125,573.75 680.125,567.25 694.75,558.125 712.625,545.25 734.75,527.5 762.125,503.25 795.875,470.25 836.625,426.75 883.125,371.125 931.125,305.0 971.25,235.625 989.625,177.625 975.125,148.75 928.5,158.5 864.25,201.0 800.125,260.875 748.0,324.0 712.375,382.375 693.125,433.25"/>
    <polyline points="687.75,476.75 693.5,513.625 707.0,544.75 725.0,570.375 744.0,589.875 760.875,603.0 773.375,609.0 780.125,608.125 781.125,601.25 777.5,589.875 770.625,575.625 762.125,560.0 736.375,514.375 717.875,479.75 708.875,463.75 704.625,457.75 700.625,452.875 696.375,449.25 692.0,446.625 687.375,445.0 682.5,444.375"/>
    <polyline points="677.25,444.5 671.875,445.375 666.375,446.875 654.75,451.25 643.125,456.875 637.375,460.0 606.125,477.875 585.375,489.125 572.125,495.375 563.75,498.75"/>
    <polyline points="561.25,499.75 550.25,503.375 544.75,504.875 532.375,507.625 524.75,508.75"/>
    <polyline points="524.0,508.875 517.125,509.5 511.25,509.375"/>
    <polyline points="510.875,509.375 508.0,509.0 502.75,507.5"/>
    <polyline points="502.375,507.375 496.25,505.0 490.875,502.5"/>
    <line x1="490.25" x2="466.125" y1="502.25" y2="490.125"/>
    <polyline points="464.75,489.375 445.75,479.25 388.5,447.625"/>
    <polyline points="382.25,444.125 352.25,427.5 324.375,412.5 293.875,397.25 284.125,392.75 275.125,389.125 267.5,386.625 261.5,385.625 257.625,386.375 256.375,389.25 257.875,394.25 262.125,401.375 269.0,410.375 278.0,420.875 288.625,432.375 300.375,444.5 325.0,468.75 337.125,480.0"/>
    <polyline points="348.75,490.5 370.0,508.625 388.25,522.625 403.625,533.0 410.375,537.0 422.375,543.0 427.75,545.25 437.375,548.375 441.75,549.5 449.75,550.875 460.375,551.75 466.625,551.75 480.25,551.125"/>
    <polyline points="482.75,550.875 498.375,550.0 506.25,550.0 519.125,551.125 526.125,552.25 531.5,553.5"/>
    <polyline points="533.25,554.0 540.375,556.0 551.75,559.875 575.75,569.25 586.375,573.0"/>
    <polyline points="589.25,573.875 598.875,576.375 606.25,577.625 610.25,578.0 619.375,578.0 630.5,576.625 637.0,575.0 644.5,572.625 653.0,569.125 663.0,564.25 674.875,557.5 688.875,548.375 705.75,536.0 726.25,519.5 751.125,497.375 780.875,468.375 815.875,431.125 855.125,384.75 895.5,330.375 930.5,273.0 950.875,222.0"/>
    <polyline points="947.625,190.0 918.5,186.0 870.375,210.125 815.5,253.5 764.875,305.125 724.875,356.5 697.125,403.125 681.125,443.75 675.125,478.375 676.875,507.625 684.375,532.25 695.375,552.5 707.875,568.625 719.875,580.25 729.875,587.25 736.75,589.875 740.125,588.25 740.0,583.125 737.0,575.375 731.875,565.75 725.375,555.25 710.875,533.875 691.0,506.625"/>
    <polyline points="685.5,499.375 675.75,487.625 667.375,479.25 660.125,473.625 656.625,471.75 653.25,470.375 649.875,469.5 646.5,469.0 639.875,469.0 633.25,470.125 629.875,471.0 623.375,473.125 616.875,475.75 599.125,484.125"/>
    <polyline points="596.5,485.5 565.375,501.5 556.5,506.625"/>
    <polyline points="555.75,507.125 552.75,509.5 551.5,511.5 551.75,513.25 553.875,515.0"/>
    <polyline points="554.375,515.125 557.125,516.125 564.875,517.125 572.25,516.875 580.0,515.75"/>
    <polyline points="581.75,515.375 591.75,512.625 601.375,508.875 609.75,504.875 619.0,499.625 629.375,492.75 636.625,487.375 644.125,481.25 655.25,470.875"/>
    <polyline points="658.875,467.25 668.125,456.375 672.5,449.625 674.0,446.75 675.25,442.0 675.0,440.25 674.125,439.125 672.5,438.5 670.375,438.5 667.625,439.0 664.375,440.0 656.625,443.375 647.625,448.375 638.0,454.25 613.875,469.75"/>
    <polyline points="609.375,472.75 589.25,485.125 570.25,495.25 556.125,501.375 542.625,505.875"/>
    <line x1="541.25" x2="522.5" y1="506.25" y2="511.0"/>
    <polyline points="522.125,511.125 518.375,512.375 517.875,512.875 517.875,513.375 519.625,514.625 525.375,516.875"/>
    <line x1="525.75" x2="538.5" y1="517.0" y2="520.5"/>
    <polyline points="539.25,520.625 548.875,522.375 554.5,522.875 567.25,522.875"/>
    <polyline points="569.0,522.625 578.625,521.375 587.875,519.125 599.0,515.25 605.375,512.5 616.125,507.0 628.5,499.5 642.375,489.5 647.25,485.5"/>
    <polyline points="652.375,481.25 662.625,472.0 672.625,461.75 681.75,451.125 685.75,445.875 691.75,436.125 693.625,431.875 694.625,428.375 694.625,425.625 693.625,423.625 691.5,422.625 688.5,422.625 684.5,423.5 679.75,425.25 674.375,427.875 662.125,434.875 655.625,439.0 629.375,457.125"/>
    <polyline points="623.25,461.5 600.875,477.0 591.375,483.125 578.875,490.375 568.25,495.625 556.5,500.375 546.875,503.25 537.125,505.25"/>
    <polyline points="535.375,505.5 527.625,506.375 517.75,506.5 513.5,506.25 506.0,505.125"/>
    <polyline points="505.125,505.0 496.5,502.75 490.125,500.5 482.0,497.0"/>
    <polyline points="480.875,496.5 467.625,490.125 434.875,472.75"/>
    <polyline points="431.625,471.0 335.25,417.5 303.25,400.625 292.25,395.125 271.25,385.625 262.375,382.375 255.375,380.75 250.625,381.0"/>
    <polyline points="248.625,383.625 249.75,388.625 254.0,396.0 261.25,405.625 271.0,417.125 282.5,429.75 295.25,443.125 322.0,469.625 347.375,493.375 359.0,503.625 379.375,520.75 388.375,527.625 403.875,538.5 410.75,542.625 416.875,546.125 427.875,551.125 432.75,552.875 441.625,555.375 449.375,556.625"/>
    <polyline points="453.0,557.0 462.75,557.375 496.625,555.5 502.5,555.625 511.625,556.5"/>
    <polyline points="513.375,556.75 523.625,559.25 531.75,562.5 538.0,566.0 542.5,569.25 546.75,573.25 549.25,576.375 551.625,580.0"/>
    <polyline points="552.625,582.125 553.5,584.375 554.75,589.375 555.0,592.25 554.75,599.125 552.875,607.625 551.125,612.625 548.625,618.375 545.125,624.875 540.625,632.375 534.75,641.0 527.25,650.875 517.625,662.25 505.625,675.375 490.625,690.375 472.25,707.375 449.875,726.25 423.375,746.625 392.625,767.5 358.5,787.375 322.5,803.625 287.375,813.5 256.375,813.875"/>
    <polyline points="232.625,803.125 218.125,781.25 213.125,750.25 215.875,713.625 224.0,675.0 235.0,637.25 246.625,602.5 275.125,522.25 286.25,487.875 295.0,457.375 297.0,451.5 298.875,447.375 301.0,444.75 303.5,443.5 306.5,443.5 309.875,444.5 314.0,446.375 318.5,449.125 334.75,460.25"/>
    <polyline points="340.875,464.5 353.375,473.25 372.125,485.5 384.0,492.375 395.0,498.25 405.25,502.875 414.625,506.625 427.0,510.5 441.0,513.375 455.125,514.75"/>
    <polyline points="457.5,514.75 462.0,514.875 473.125,514.375 483.5,513.125 490.875,511.625"/>
    <polyline points="491.5,511.5 493.5,511.0 496.375,509.75 497.125,508.875 497.125,508.125"/>
    <polyline points="497.125,507.875 494.5,505.5 490.125,503.0"/>
    <line x1="489.625" x2="468.25" y1="502.625" y2="491.5"/>
    <polyline points="466.875,490.75 442.875,477.875 399.625,454.0"/>
    <polyline points="394.25,451.0 335.0,418.375 305.5,403.125 295.625,398.375 277.375,390.5 269.75,388.125 263.75,387.0 260.0,387.75 258.5,390.375 259.75,395.125 263.75,401.875 270.125,410.375 278.75,420.5 289.0,431.75 312.25,455.375"/>
    <polyline points="324.375,467.125 347.875,488.625 358.75,498.0 378.375,514.0 395.25,526.125 409.5,535.0 415.75,538.375 427.0,543.375 432.125,545.25 441.25,547.75 449.375,549.25 456.625,550.0 463.25,550.25 474.875,550.0"/>
    <polyline points="477.625,549.75 496.25,548.625 508.125,548.5 517.375,549.125 528.0,550.75"/>
    <polyline points="529.875,551.125 537.0,552.625 572.75,562.5 584.125,564.5"/>
    <polyline points="587.375,564.875 598.125,565.25 606.75,564.625 611.625,563.875 622.75,561.0 629.25,558.875 636.625,555.875 645.0,551.875 654.375,546.75 665.375,540.0 678.0,531.5 692.625,520.5 709.625,506.5 729.375,489.0 752.0,467.125 777.375,440.375 805.0,408.5 833.125,372.375 858.875,333.875 878.0,297.125 886.0,267.625 879.625,251.0"/>
    <polyline points="858.625,250.625 826.875,265.875 790.0,292.875 753.375,326.125 721.0,361.125 694.625,394.5 674.75,424.625 660.875,451.0 652.25,473.5 647.875,492.625 646.75,508.625 647.875,522.0 650.75,532.875 654.375,541.5 658.125,548.25 661.625,553.0 664.5,555.875 666.375,557.25 667.125,557.125 666.875,555.625 663.125,550.0 656.375,542.25 647.75,533.75"/>
    <polyline points="643.25,529.625 634.0,522.0 625.25,515.75 613.25,508.75 606.125,505.625 599.875,503.5 594.125,502.125 589.125,501.375 584.625,501.125 578.75,501.375 571.0,502.75"/>
    <polyline points="569.75,503.125 565.5,504.625 562.25,506.25 560.125,507.75 558.375,509.75 558.25,511.0 558.625,511.75"/>
    <polyline points="558.75,512.0 560.125,513.0 562.0,513.75 566.25,514.5 574.75,514.375 578.75,513.75"/>
    <polyline points="580.25,513.5 585.125,512.5 594.75,509.5 601.5,506.75 609.0,503.125 620.375,496.5 629.75,490.125 636.25,485.125 642.75,479.625"/>
    <polyline points="646.0,476.625 655.25,467.5 660.375,461.375 664.5,455.625 667.0,450.625 667.5,448.625 667.625,447.0 667.25,445.75 666.25,444.875 664.875,444.5 662.875,444.5 660.5,445.0 654.5,447.125 643.375,452.75 626.375,462.875"/>
    <polyline points="622.125,465.625 598.25,480.5 584.75,488.375 568.625,496.75 560.125,500.625 551.625,504.0"/>
    <polyline points="550.125,504.625 537.625,509.25 534.0,510.75 531.375,512.25"/>
    <polyline points="531.125,512.5 530.125,513.625 530.125,514.625 531.125,515.875 532.375,516.625"/>
    <polyline points="532.625,516.875 539.0,519.25 547.125,521.0"/>
    <polyline points="548.0,521.125 556.375,522.125 566.0,522.125 574.625,521.25 585.25,519.0"/>
    <polyline points="587.625,518.375 598.375,514.625 607.875,510.5 611.25,508.75 626.75,499.625 640.125,490.25 654.5,478.25 664.375,469.0 673.75,459.125 682.0,449.0 685.375,444.125"/>
    <polyline points="688.125,439.5 690.25,435.375 691.5,431.75 691.875,428.875 691.25,426.625 689.75,425.375 687.25,424.875 683.875,425.375 679.75,426.625 674.875,428.625 669.375,431.375 651.125,442.5 609.0,471.625 598.875,478.375 585.5,486.625"/>
    <polyline points="581.5,488.875 574.125,492.75 564.5,497.25 551.375,502.125 539.125,505.125 532.625,506.125 525.625,506.75"/>
    <polyline points="524.5,506.75 516.75,506.875 511.25,506.5 505.5,505.625 501.625,504.625"/>
    <polyline points="500.875,504.5 497.0,503.375 488.625,500.25 478.5,495.625"/>
    <polyline points="477.375,495.125 449.5,480.875 426.75,468.375"/>
    <polyline points="423.125,466.375 360.375,431.5 322.625,411.0 301.25,399.875 280.125,389.875 270.5,385.875 262.25,383.125 256.0,382.0 252.0,382.875 250.875,386.0 252.75,391.5"/>
    <polyline points="257.625,399.25 265.25,409.125 275.125,420.625 286.625,433.125 312.375,459.25 338.125,483.75 350.125,494.625 361.375,504.5 381.25,520.875 390.0,527.5 398.0,533.125 405.25,537.75 412.0,541.75 423.75,547.625 433.75,551.5 442.625,553.875 450.375,555.125 457.25,555.625"/>
    <polyline points="460.5,555.75 469.5,555.625 495.625,554.0 505.5,554.125 516.25,555.375"/>
    <polyline points="518.0,555.75 523.25,556.875 528.25,558.375 535.0,561.0 539.875,563.375 544.75,566.25 551.125,571.0 554.25,573.875 558.375,578.875"/>
    <polyline points="559.625,580.875 560.875,583.0 562.75,587.75 563.5,590.5 563.875,593.5 564.125,596.875 563.875,600.625 563.25,604.875 562.125,609.625 560.25,615.125 557.625,621.375 553.875,628.5 548.75,636.875 542.0,646.625 533.25,658.0 521.875,671.375 507.375,687.0 489.0,705.0 466.0,725.75 437.875,749.0 404.125,773.875 365.25,798.875 322.75,821.0 279.75,836.375 240.875,840.625"/>
    <polyline points="210.625,830.5 192.25,805.625 186.125,768.625 190.25,724.375 200.625,678.0 213.75,633.375 238.75,557.875 248.125,528.0 255.125,503.125 260.125,482.875 263.375,466.5 266.875,443.75 268.25,436.75 269.875,432.125 272.125,429.875 275.25,429.625 279.5,431.25 284.875,434.5 291.375,439.0 333.5,472.25"/>
    <polyline points="342.625,479.125 360.125,492.0 376.375,502.75 390.875,511.375 397.625,515.0 409.875,520.75 420.875,524.875 430.5,527.75 439.25,529.625 447.125,530.75 454.25,531.375 463.75,531.625 472.0,531.375"/>
    <polyline points="474.625,531.25 499.0,529.375 509.875,528.875 518.125,528.875"/>
    <line x1="519.375" x2="554.75" y1="528.875" y2="531.25"/>
    <polyline points="556.5,531.25 566.25,531.0 575.375,530.0 586.375,527.75 596.125,524.75 607.625,520.125 616.375,515.875 626.375,510.125 637.625,503.0"/>
    <polyline points="643.75,498.625 657.0,488.375 671.5,475.875 686.625,461.0 701.375,444.5 708.125,436.0 714.125,427.5 719.125,419.5 722.75,412.25 724.75,406.125 725.0,401.25 723.25,398.25 719.75,396.875 714.5,397.5 707.625,399.875 699.625,403.875 690.625,409.125 681.125,415.375 661.625,429.75 643.0,444.5"/>
    <polyline points="634.25,451.5 618.5,464.25 598.875,479.375 588.125,487.0 574.625,495.125 567.0,498.875 560.375,501.5 554.25,503.5 548.875,504.75 543.875,505.5 533.0,506.25"/>
    <polyline points="531.0,506.25 523.625,505.75 513.75,504.375 501.75,501.5 491.5,498.125"/>
    <polyline points="490.0,497.625 482.25,494.5 469.875,488.875 449.125,478.375 436.625,471.625"/>
    <polyline points="433.0,469.625 405.125,454.125 310.125,400.0 279.875,383.375 248.375,367.125 234.0,360.5 221.75,356.0 213.0,354.5 208.875,356.75 210.125,363.375"/>
    <polyline points="216.875,374.5 228.625,389.625 244.375,407.625 262.625,427.5 281.75,447.875 335.375,503.75 363.0,532.0 383.875,552.75 399.375,567.125 405.625,572.5 411.0,576.75 419.875,582.75 427.0,586.125 432.875,587.625 435.5,588.0 442.625,587.625"/>
    <polyline points="444.875,587.125 449.0,586.125 464.125,581.125 470.875,579.375 475.75,578.625 480.25,578.375 483.125,578.5 487.0,579.25"/>
    <polyline points="488.25,579.625 490.5,580.5 492.625,581.75 495.25,584.125 497.125,587.25 497.875,589.875 498.25,592.875 497.625,598.375 495.375,605.25 492.625,610.625 486.25,620.125"/>
    <polyline points="483.375,623.75 476.375,631.625 467.375,640.375 462.125,645.0 450.125,654.375 436.0,663.75 428.375,668.125 420.375,672.0 412.25,675.5 404.125,678.25 396.125,680.0 388.625,680.75 381.625,680.375 375.375,678.75 370.125,675.75 366.0,671.5 363.0,666.0 361.125,659.5 360.5,652.0 361.0,644.0 362.5,635.375 364.75,626.625"/>
    <polyline points="367.75,617.75 371.375,609.125 375.375,600.75 379.625,592.75 384.125,585.125 393.375,571.5 402.5,560.0 407.0,555.0 415.5,546.5 419.625,542.875 427.25,536.625 434.25,531.625 440.75,527.625 446.5,524.5 451.875,521.875 458.875,519.0"/>
    <polyline points="461.0,518.125 470.0,515.0 483.0,511.25 488.5,509.25"/>
    <polyline points="488.875,509.0 490.375,508.125 491.125,506.875 490.625,505.25 489.125,503.875"/>
    <polyline points="488.75,503.625 484.75,500.875 471.875,493.75"/>
    <line x1="470.75" x2="416.5" y1="493.125" y2="463.5"/>
    <polyline points="412.375,461.125 333.625,417.875 304.75,403.125 286.0,394.5 277.625,391.375 270.625,389.25 265.125,388.5 261.875,389.625 261.0,392.5 262.625,397.5 266.875,404.375 273.375,413.0"/>
    <polyline points="282.0,422.875 292.125,433.875 303.25,445.375 326.75,468.25 338.5,479.0 360.25,498.125 379.5,513.5 388.125,519.75 403.25,529.75 410.0,533.625 416.25,537.0 427.5,541.875 437.25,545.0 445.75,547.0 457.0,548.375 463.625,548.625"/>
    <polyline points="466.75,548.625 504.75,546.75 510.375,546.875 521.25,547.75"/>
    <polyline points="523.125,547.875 532.0,549.25 541.125,551.125 559.5,555.375 569.125,557.125 574.5,557.75"/>
    <polyline points="577.375,558.125 587.0,558.5 590.5,558.375 598.375,557.625 602.75,556.875 612.75,554.5 624.625,550.25 631.625,547.25 639.5,543.375 648.25,538.5 658.25,532.375 669.5,524.625 682.25,515.125 696.875,503.25 713.5,488.75 732.125,471.25 752.625,450.125 774.75,425.625 797.375,397.875 818.875,368.125 836.75,338.375"/>
    <polyline points="848.375,311.875 850.75,292.25 842.625,282.75 824.625,284.75 799.125,297.5 770.0,318.25 740.625,343.875 713.5,371.0 690.25,397.625 671.25,422.0 656.375,443.875 645.375,462.75 637.625,479.0 632.5,492.625 629.375,504.125 627.875,513.625 627.5,521.5 628.5,532.75 630.625,541.875 630.25,542.0 628.125,540.5"/>
    <polyline points="626.375,539.125 616.0,531.125 609.625,526.875 599.5,520.875 592.875,517.625 583.375,513.75 574.75,511.125 569.5,509.875 562.375,508.75 556.125,508.25"/>
    <polyline points="554.25,508.125 543.25,508.375 535.375,509.25 527.5,510.625"/>
    <polyline points="527.0,510.75 522.5,512.25 521.375,513.375"/>
  </g>
</svg>
