<?xml version="1.0" encoding="utf-8" ?>
<svg xmlns="http://www.w3.org/2000/svg" xmlns:cc="http://creativecommons.org/ns" xmlns:dc="http://purl.org/dc/elements/1.1/" xmlns:ev="http://www.w3.org/2001/xml-events" xmlns:inkscape="http://www.inkscape.org/namespaces/inkscape" xmlns:rdf="http://www.w3.org/1999/02/22-rdf-syntax-ns" xmlns:sodipodi="http://sodipodi.sourceforge.net/DTD/sodipodi-0.dtd" xmlns:xlink="http://www.w3.org/1999/xlink" baseProfile="tiny" height="27.09333333cm" version="1.2" viewBox="0 0 1024.0 1024.0" width="27.09333333cm">
  <metadata>
    <rdf:RDF>
      <cc:Work>
        <dc:format>image/svg+xml</dc:format>
        <dc:source>vpype read './original_svgs/Strange Attractors #497.svg' linemerge linesimplify write './Strange Attractors #497.svg'
</dc:source>
        <dc:date>2024-08-05T01:36:05.084223</dc:date>
      </cc:Work>
    </rdf:RDF>
  </metadata>
  <defs/>
  <g fill="none" id="layer1" inkscape:groupmode="layer" inkscape:label="1" stroke="black" stroke-width="0.7mm" style="display:inline">
    <polyline points="347.75,580.625 351.875,572.75 354.5,566.0 355.625,560.125 355.25,555.0 353.625,550.125 351.0,545.5 347.25,540.875 342.5,535.75 323.25,516.625 315.125,508.0 306.25,497.625 296.625,485.375 286.125,470.5 274.875,452.625 263.125,431.375 251.25,406.375 239.75,377.125 229.5,344.125 221.875,308.125 218.625,271.0 221.25,235.875 231.375,206.5 249.375,186.875"/>
    <polyline points="274.25,179.875 303.75,185.75 334.875,202.75 365.0,227.5 392.0,256.125 415.125,285.75 434.125,314.125 449.0,339.875 460.5,362.5 469.0,381.875 475.0,398.375 479.125,412.125 481.625,423.625 483.0,433.0 483.375,440.875 483.0,447.25 482.125,452.625 481.0,456.875 478.125,463.5 475.25,467.875 471.375,472.75"/>
    <polyline points="471.125,473.5 471.0,474.125 471.5,475.125 474.875,476.625 506.75,485.125"/>
    <polyline points="508.625,485.625 523.5,488.625 534.625,489.625 544.125,489.625 556.125,488.625"/>
    <polyline points="558.25,488.375 571.5,486.125 581.25,484.0 600.625,479.125 628.125,471.5"/>
    <polyline points="632.125,470.375 654.875,464.25 677.375,458.75 697.625,454.5 713.0,451.875 721.25,450.75 738.125,449.25 746.25,449.25 753.75,449.875 760.0,451.5 764.25,454.5 765.625,459.125 763.0,465.75 755.875,474.5 743.625,485.5"/>
    <polyline points="726.75,498.5 706.125,513.0 683.25,528.25 616.0,571.75 581.875,594.5 558.25,611.25 538.25,626.75 529.875,633.625 528.5,634.375 527.625,634.5 527.125,634.25 526.875,632.125 527.25,621.5"/>
    <polyline points="527.125,618.75 526.875,613.125 526.125,607.125 525.0,601.25 523.625,595.5 519.875,584.875 516.625,577.875 511.625,570.0 509.125,566.5 503.75,560.75"/>
    <polyline points="502.375,559.5 499.625,557.125 494.0,553.25 485.25,549.125 475.875,546.375 463.875,544.625"/>
    <polyline points="462.0,544.5 433.375,543.25 422.125,542.375 412.625,541.25 405.625,540.0 393.875,537.125"/>
    <polyline points="389.625,535.75 380.375,532.25 370.125,527.25 358.625,520.375 352.375,515.875 338.625,504.5 331.0,497.125 323.0,488.375 314.5,478.125 305.5,466.0 296.125,451.75 286.5,435.125 276.75,416.0 267.375,394.0 258.875,369.5 251.875,342.875 247.5,315.0 246.5,287.5 250.0,262.125 258.625,241.5 272.625,227.75 291.125,222.25"/>
    <polyline points="313.0,225.5 336.5,236.375 359.875,253.25 382.0,273.875 401.875,296.125 419.125,318.5 433.75,339.875 446.0,359.375 455.875,376.875 464.0,392.25 470.375,405.5 479.75,426.625 487.75,447.75 493.75,465.75 496.0,471.125 497.5,473.5"/>
    <polyline points="498.25,474.375 500.875,476.625 505.0,478.5 507.375,479.125 516.75,480.75 522.75,481.25 530.625,481.375"/>
    <polyline points="532.25,481.375 540.5,481.0 547.125,480.25 553.625,479.125 564.0,476.375 569.625,473.875"/>
    <polyline points="570.375,473.375 571.0,473.0 571.625,472.0 571.25,471.125 570.625,470.75 568.25,470.125 557.5,469.875 536.25,471.5 475.125,478.25 457.625,479.5"/>
    <polyline points="450.125,479.875 437.875,479.625 433.5,479.125 430.25,478.375 428.0,477.5 426.625,476.5 426.125,475.5 426.375,474.5 427.125,473.625 429.875,472.0 433.75,471.125 438.0,470.875 444.5,471.625 448.625,472.875 452.375,474.375 457.5,477.25"/>
    <polyline points="459.0,478.375 464.125,482.625 467.125,485.875 470.0,490.0 471.875,493.625 472.625,496.25 472.875,499.25 472.5,501.25"/>
    <polyline points="472.25,501.875 471.375,503.75 470.0,505.375 466.25,508.125 462.75,509.625 458.5,510.875 452.125,512.0"/>
    <polyline points="450.75,512.125 446.0,512.5 436.875,512.375 425.875,511.0 418.25,509.25 409.625,506.5 403.25,504.0 396.375,500.625 388.875,496.375"/>
    <polyline points="385.0,493.75 376.625,487.625 372.125,483.875 367.5,479.75 357.875,469.75 347.75,457.375 337.375,442.125 332.25,433.25 327.375,423.625 322.75,413.25 318.5,402.25 314.875,390.75 312.0,378.875 310.25,367.0 309.625,355.375 310.5,344.625 312.875,335.0 316.875,327.125 322.5,321.375 329.625,317.875 338.0,317.0 347.5,318.625"/>
    <polyline points="357.625,322.625 368.0,328.5 378.5,336.125 388.75,344.875 398.625,354.375 407.875,364.25 424.5,384.0 431.75,393.375 444.625,410.75 464.125,438.0 475.25,452.75 487.125,466.5 492.125,471.5 496.875,475.625"/>
    <polyline points="499.125,477.375 503.375,480.5 509.375,484.125 515.125,486.75 520.625,488.75 525.875,490.125 532.875,491.25 538.25,491.625 545.375,491.625"/>
    <polyline points="547.25,491.5 552.875,491.125 560.625,490.125 571.25,488.25 580.625,486.25 605.25,480.125"/>
    <polyline points="608.375,479.25 633.75,472.75 656.5,467.375 672.625,464.0 690.75,461.125 703.625,459.625 716.375,459.25 722.25,459.625 727.625,460.5 731.875,462.125"/>
    <polyline points="734.625,464.625 735.5,468.25 734.0,473.125 729.75,479.25 722.5,486.625 712.25,495.375 699.375,505.125 684.375,515.5 668.125,526.25 635.0,547.0 605.0,565.125 580.75,579.25 555.25,593.0 543.875,598.0 539.5,599.5 532.375,600.875 529.625,601.0 527.25,600.75 525.125,600.125"/>
    <polyline points="523.125,599.375 519.875,597.25 515.625,593.125 506.875,582.25 500.625,575.375 495.25,570.625 489.75,566.875"/>
    <polyline points="488.25,566.0 480.75,562.625 471.125,560.125 465.875,559.375 458.5,558.875 444.0,559.25"/>
    <polyline points="441.75,559.375 412.5,562.0 395.5,562.75 387.75,562.625 379.375,562.0 370.0,560.625 359.625,558.375 354.0,556.625"/>
    <polyline points="348.0,554.375 334.5,548.0 327.0,543.5 318.875,537.875 310.0,530.75 300.25,521.875 289.625,510.75 277.875,496.875 265.125,479.625 251.25,458.0 236.375,431.25 221.125,398.75 206.25,359.75 193.375,314.5 184.875,264.875 183.75,214.5 193.125,169.75 214.625,138.0 247.375,125.125 287.625,132.75 330.0,157.625 369.5,193.25 403.375,233.25 430.375,272.625 450.5,308.375"/>
    <polyline points="464.75,339.5 473.875,365.75 479.0,387.25 480.75,404.875 479.875,419.25 477.125,430.75 472.75,440.125 467.5,447.625 461.75,453.625 455.75,458.375 449.875,462.125 444.5,465.0 439.625,467.125 432.375,469.5 428.5,470.25 427.625,470.125 428.0,469.625 430.375,469.125 433.875,468.875 438.125,469.0"/>
    <polyline points="440.375,469.25 444.875,470.125 451.375,472.25 457.25,475.125 462.375,478.25 468.125,482.75 470.5,485.0 475.125,490.125 477.125,493.0"/>
    <polyline points="477.625,493.875 479.0,496.375 479.875,498.75 480.375,500.875 480.375,503.375 480.0,505.0 479.25,506.5 477.75,508.375 476.75,509.125"/>
    <polyline points="476.25,509.5 472.25,511.75 466.0,513.75 461.5,514.75 456.25,515.5 450.125,515.875"/>
    <polyline points="448.5,516.0 439.25,515.875 430.625,515.0 423.25,513.75 411.875,510.75 402.125,507.0 391.125,501.5 378.75,493.375"/>
    <polyline points="374.25,489.875 369.5,486.0 359.625,476.625 349.125,464.625 343.625,457.625 338.125,449.75 332.625,441.0 327.125,431.25 321.875,420.75 316.875,409.375 312.5,397.25 308.75,384.5 305.875,371.375 304.25,358.375 304.125,345.875 305.625,334.375 308.875,324.5 314.125,316.625 321.0,311.375 329.5,308.875 339.375,309.375 350.125,312.5 361.5,318.25 372.875,325.875"/>
    <polyline points="384.25,335.125 395.0,345.25 405.25,356.0 414.75,366.875 423.375,377.625 431.375,387.875 445.125,406.75 461.25,429.875 473.625,447.0 483.5,459.5 489.25,465.875 496.875,473.125 501.5,476.75 506.0,479.75"/>
    <polyline points="508.125,481.0 514.25,484.125 518.125,485.625 525.875,487.875 531.5,488.875 539.0,489.5 546.75,489.5 556.875,488.625"/>
    <polyline points="558.875,488.375 569.875,486.5 590.0,482.0 629.375,471.375"/>
    <polyline points="633.5,470.25 651.5,465.375 679.375,458.625 700.0,454.5 715.5,452.0 731.875,450.375 740.0,450.0 747.75,450.375 754.625,451.375 759.875,453.625 762.75,457.25 762.5,462.625 758.0,470.0 748.875,479.5 735.0,491.125"/>
    <polyline points="716.875,504.5 695.75,519.0 592.0,586.375 565.5,604.5 555.875,611.375 533.875,627.875 529.375,631.0 528.0,631.5 527.125,631.5 526.5,631.0 526.125,630.0 525.5,618.25"/>
    <polyline points="525.375,615.625 524.375,607.5 522.625,599.125 520.25,591.25 517.25,584.0 513.875,577.375 509.0,570.0 503.75,564.0 501.0,561.375"/>
    <polyline points="499.625,560.25 496.875,558.0 492.5,555.25 488.125,553.0 483.625,551.125 478.875,549.625 470.625,547.875 459.75,546.75"/>
    <polyline points="457.875,546.625 424.625,545.375 415.375,544.625 401.25,542.375 393.25,540.5 384.5,537.75"/>
    <polyline points="379.75,536.0 369.5,531.375 357.875,524.75 351.5,520.5 344.75,515.375 337.625,509.375 329.875,502.125 321.625,493.625 312.875,483.375 303.625,471.25 293.875,456.875 283.75,440.0 273.5,420.375 263.5,397.625 254.125,372.0 246.25,343.75 241.0,313.875 239.25,283.875 242.5,256.125 251.375,233.125 266.125,217.75 286.0,211.5 309.5,215.0 334.875,227.0"/>
    <polyline points="360.0,245.5 383.5,268.0 404.375,292.125 422.375,316.125 437.25,338.75 449.5,359.25 459.25,377.375 467.0,393.125 477.75,418.25 484.0,436.125 486.0,443.0 489.375,457.625 491.125,469.75 492.125,473.5 493.125,475.125"/>
    <polyline points="493.75,475.75 496.125,477.375 498.0,478.125 505.5,480.125 517.75,481.875 528.125,482.5"/>
    <polyline points="529.875,482.5 537.0,482.5 551.875,481.125 561.25,479.375 566.875,478.0 575.75,475.25"/>
    <polyline points="577.375,474.625 580.5,473.375 584.25,471.375 586.375,469.375 586.625,468.875 586.5,468.25 584.875,467.25 581.25,466.625 574.75,466.5 564.5,467.0 540.5,469.5 492.0,476.0"/>
    <polyline points="478.0,477.75 464.125,479.375 438.625,481.5 427.75,481.875 418.75,481.75 411.625,480.875 406.375,479.625 402.875,478.0 400.75,476.0 400.0,473.875 400.375,471.75 401.375,469.625 404.875,466.0 407.125,464.5 411.875,462.375 414.25,461.625 418.75,461.0 422.875,461.25 428.125,462.75"/>
    <polyline points="429.625,463.5 432.25,465.25 435.375,468.25 437.5,471.375 438.75,474.375 439.125,478.125 438.625,480.5 436.875,483.25 434.75,484.75"/>
    <polyline points="433.875,485.25 429.875,486.375 424.625,486.625 419.875,486.0 414.5,484.75 408.5,482.5 401.625,479.125 396.75,476.125 388.75,470.25"/>
    <polyline points="386.0,467.875 377.25,459.375 374.375,456.0 368.5,448.5 362.75,439.875 357.375,430.125 352.625,419.625 349.125,408.625 347.875,403.125 346.75,392.375 347.0,387.5 347.75,383.0 349.125,379.125 351.125,375.75 353.625,373.25 356.75,371.5 360.5,370.625 364.5,370.625"/>
    <polyline points="369.0,371.375 373.75,373.0 378.75,375.375 389.125,382.125 394.25,386.125 399.375,390.625 409.25,400.25 414.0,405.25 422.625,415.125 437.625,433.625 462.25,466.875"/>
    <polyline points="464.0,469.375 473.5,482.625 478.625,490.625 481.0,494.75 482.5,498.25 483.25,501.125"/>
    <polyline points="483.375,501.875 483.375,504.75 482.75,506.75 481.875,508.125 479.375,510.5 474.875,512.75"/>
    <polyline points="474.125,513.125 468.75,514.75 459.5,516.375 448.875,517.125 441.5,517.0"/>
    <polyline points="439.5,516.875 428.375,515.75 420.625,514.25 414.875,512.75 405.5,509.5 398.5,506.5 394.875,504.625 382.75,497.5 373.875,491.0 364.125,482.5 359.0,477.5 353.75,471.75"/>
    <polyline points="348.375,465.375 342.75,458.25 337.125,450.125 331.5,441.25 325.875,431.375 320.5,420.625 315.375,408.875 310.75,396.5 307.0,383.375 304.125,369.875 302.5,356.5 302.375,343.625 303.875,331.875 307.375,321.625 312.75,313.75 320.125,308.5 329.0,306.125 339.25,306.875 350.375,310.375 362.0,316.5 373.75,324.625 385.375,334.25 396.375,344.875 406.75,356.0 416.25,367.125 425.0,378.125"/>
    <polyline points="433.0,388.5 440.25,398.375 471.25,442.75 478.5,452.375 484.875,460.125 493.125,468.875 500.5,475.25 509.25,481.0 517.5,484.75"/>
    <polyline points="519.5,485.375 523.375,486.625 529.125,487.875 536.875,488.75 540.75,488.875 548.625,488.75 554.75,488.25 570.0,485.875"/>
    <polyline points="572.375,485.375 584.875,482.625 598.875,479.0 657.0,462.875"/>
    <polyline points="662.25,461.5 686.5,455.5 708.625,451.0 725.5,448.25 734.5,447.125 743.625,446.375 752.625,446.0 761.0,446.5 768.25,447.875 773.25,450.75 775.25,455.5 772.75,462.375 765.125,471.875 751.625,484.0 732.75,498.375 709.625,514.375 611.25,578.875"/>
    <polyline points="592.125,592.0 576.125,603.5 563.25,613.25 553.0,621.5 545.25,628.25 539.5,633.75 532.5,641.5 529.75,645.375 529.5,646.25 530.625,644.5 532.875,638.25 534.625,629.0 535.125,618.25 534.75,610.625 534.25,607.0"/>
    <polyline points="533.75,603.25 532.375,596.125 529.625,586.25 525.125,574.875 522.625,570.0 518.75,563.625 514.75,558.25 509.5,552.375 504.125,547.875"/>
    <polyline points="502.875,546.875 496.375,542.75 488.375,539.375 481.5,537.5 474.125,536.25 467.75,535.625"/>
    <polyline points="466.125,535.5 438.125,534.0 427.75,533.0 412.5,530.375 405.625,528.5"/>
    <polyline points="401.875,527.375 393.875,524.625 385.25,520.75 380.5,518.375 370.375,512.25 359.125,504.125 346.625,493.125 339.875,486.25 332.875,478.25 325.5,469.125 317.75,458.5 309.875,446.25 302.0,432.375 294.125,416.625 286.625,399.0 279.875,379.75 274.25,359.25 270.5,337.875 269.125,316.625 270.625,296.75 275.75,279.5"/>
    <polyline points="284.5,266.5 296.625,258.625 311.75,256.75 328.875,260.625 347.125,269.5 365.25,282.5 382.75,298.125 398.875,315.125 413.375,332.625 426.125,349.5 437.25,365.5 454.875,393.5 467.875,415.75 487.75,450.75 495.375,462.125 497.5,465.0 501.5,469.5"/>
    <polyline points="302.875,268.0 317.0,266.625 332.75,270.375 349.5,278.625 366.375,290.375 382.625,304.625 397.75,320.375 411.375,336.375 423.625,352.125 434.375,367.125 451.875,393.75 479.0,438.875 486.0,450.0 494.375,461.75 501.25,469.375 507.0,474.125 510.5,476.25 515.75,478.625 519.125,479.625 526.0,481.0 532.875,481.5 538.125,481.5 546.875,480.875"/>
    <polyline points="548.625,480.625 560.875,478.375 565.875,477.0 573.125,474.375 577.125,472.125 578.0,471.0 578.0,470.0 576.625,469.125"/>
    <polyline points="575.25,468.875 567.75,468.375 553.75,469.125 522.125,472.5 478.5,477.875 467.375,479.0 446.875,480.5 438.25,480.75 431.0,480.5 425.125,480.0 420.625,479.125 417.5,478.0 415.625,476.625 414.75,475.25 414.75,473.75"/>
    <polyline points="415.5,472.375 416.75,471.0 418.375,469.875 420.375,468.875 424.625,467.625 429.25,467.125 435.625,467.875 441.375,469.875 447.5,473.75 451.875,478.125 454.75,482.5"/>
    <polyline points="455.25,483.625 456.25,486.625 456.625,489.375 456.375,492.0 455.5,494.25 454.0,496.25 451.25,498.5 448.5,499.875 445.125,500.875"/>
    <polyline points="443.875,501.125 438.375,501.875 429.75,501.625 421.375,500.25 414.25,498.25 406.125,495.125 400.25,492.25 393.875,488.625 387.0,484.0"/>
    <polyline points="383.375,481.25 375.875,474.875 367.875,466.875 363.875,462.25 359.625,457.25 355.5,451.625 351.25,445.625 347.125,439.0 339.25,424.25 335.75,416.125 332.5,407.75 329.75,399.0 327.625,390.125 326.25,381.25 325.625,372.625 326.0,364.5 327.5,357.25 330.0,351.0 333.625,346.0 338.25,342.5 344.0,340.625 350.5,340.5 357.625,342.0"/>
    <polyline points="365.25,344.875 373.125,349.25 381.125,354.75 389.125,361.125 396.875,368.125 404.375,375.5 418.125,390.75 424.375,398.125 440.75,419.0 467.375,454.25 475.625,464.375 484.75,474.375"/>
    <polyline points="486.875,476.5 495.875,484.625 506.25,491.875 511.5,494.625 516.25,496.625 522.0,498.25"/>
    <polyline points="523.125,498.5 530.75,499.625 538.75,499.625 547.25,498.75 552.625,497.875"/>
    <polyline points="554.0,497.625 569.625,494.25 601.75,486.25"/>
    <polyline points="604.375,485.625 618.75,482.125 635.5,478.625 650.375,476.0 662.25,474.625 670.25,474.125 677.625,474.25 684.125,475.375 686.625,476.25 688.625,477.625"/>
    <polyline points="690.0,479.25 690.5,481.5 690.0,484.125 688.375,487.25 685.625,490.75 681.75,494.875 676.75,499.375 663.625,509.375 655.875,514.625 647.625,520.0 630.25,530.25 613.125,539.375 605.0,543.375 590.25,550.0 583.625,552.625 577.5,554.75 566.625,557.875 557.5,559.5 549.875,560.0"/>
    <polyline points="546.5,560.0 540.5,559.25 537.75,558.625 532.875,557.125 528.5,555.375 522.75,552.5 508.75,544.125 500.75,539.875"/>
    <polyline points="499.5,539.25 493.125,536.625 485.375,534.5 477.375,533.125 465.25,532.25"/>
    <polyline points="463.625,532.125 442.25,531.25 424.625,529.375 412.25,526.875 401.625,523.625"/>
    <polyline points="397.75,522.25 385.125,516.625 375.5,511.125 370.375,507.75 365.0,503.875 353.375,494.0 347.125,488.0 340.5,481.0 333.625,473.0 326.5,463.75 319.25,453.25 311.75,441.125 304.25,427.5 297.0,412.375 290.25,395.5 284.25,377.25 279.375,358.0 276.375,338.25 275.625,319.0 277.75,301.125 282.875,286.0 291.375,274.625"/>
    <polyline points="505.5,472.875 511.375,476.75 515.25,478.5 520.75,480.375 526.375,481.5 530.125,482.0 539.5,482.375 545.125,482.125 552.875,481.25"/>
    <polyline points="554.75,481.0 568.5,478.125 577.875,475.25 583.0,473.25 588.375,470.5 590.125,469.125 590.75,467.75 590.625,467.125 590.0,466.625"/>
    <polyline points="588.875,466.25 584.625,465.625 577.25,465.5 557.75,467.125 537.875,469.5 467.5,479.0 438.5,481.875 426.0,482.5 415.5,482.5 407.0,481.75 400.75,480.5 396.375,478.625 393.875,476.375 392.875,473.875 393.0,471.375 394.0,468.875"/>
    <polyline points="395.5,466.5 399.875,462.5 402.25,460.875 407.0,458.625 411.625,457.375 417.625,457.375 420.875,458.25 423.75,459.5 427.0,462.0 428.75,463.875 429.875,465.75 431.25,469.5"/>
    <polyline points="431.375,470.375 431.375,472.875 430.125,475.625 428.375,477.125 426.125,478.25 422.0,478.875 418.25,478.625 415.375,478.125 410.5,476.625"/>
    <polyline points="408.875,476.0 401.125,472.125 394.75,467.875 390.25,464.25 383.25,457.5 376.125,449.125 369.125,439.0 365.0,431.375 361.375,423.25 357.75,410.625"/>
    <polyline points="357.125,406.625 356.875,399.0 357.375,395.5 358.25,392.5 359.625,389.875 361.25,387.75 363.5,386.125 366.0,385.0 368.75,384.625 372.0,384.75 375.375,385.375 379.0,386.625 386.875,390.75 390.875,393.375 398.875,399.75 402.875,403.25 410.5,410.875 417.75,418.625 427.375,430.125"/>
    <polyline points="430.25,433.875 440.5,447.375 453.125,466.0 460.75,479.25 462.75,483.625 464.5,488.625"/>
    <polyline points="464.75,489.75 465.125,494.625 464.625,497.125 463.75,499.25 461.125,502.375 458.875,503.875 453.0,506.25"/>
    <polyline points="451.875,506.5 446.5,507.5 440.25,507.875 434.875,507.75 426.5,506.75 416.75,504.5 414.125,503.625 405.375,500.375 399.0,497.25"/>
    <polyline points="395.625,495.5 388.375,491.125 384.625,488.5 380.625,485.5 372.375,478.5 363.5,469.625 354.25,458.75 349.5,452.5 340.125,437.875 335.625,429.625 331.25,420.625 327.25,411.125 323.625,401.125 320.625,390.875 318.375,380.375 317.125,369.875 316.875,359.875 318.0,350.625 320.375,342.625 324.125,336.0 329.25,331.125"/>
    <polyline points="335.625,328.25 343.0,327.625 351.375,329.0 360.25,332.375 369.5,337.375 378.875,343.875 388.0,351.375 397.0,359.75 405.5,368.375 413.5,377.25 427.875,394.625 440.125,410.625 470.25,451.375 479.375,462.375 484.625,468.125"/>
    <polyline points="487.0,470.625 491.625,475.125 497.875,480.375 507.25,486.625 510.625,488.375 518.75,491.75 525.0,493.375 531.0,494.375"/>
    <polyline points="532.5,494.5 541.75,494.875 549.75,494.375 562.0,492.625 576.0,489.75"/>
    <polyline points="578.125,489.25 622.5,478.375 641.5,474.125 659.25,470.625"/>
    <polyline points="664.125,469.875 674.0,468.5 684.125,467.5 694.0,467.375 698.5,467.625 702.625,468.25 706.25,469.375 708.875,471.0 710.625,473.25 710.875,476.25 709.625,480.0 706.75,484.5 701.875,489.875 695.125,495.875 686.75,502.625 676.875,509.875 654.125,524.875 642.125,532.25 618.625,546.0 597.5,557.25"/>
    <polyline points="588.25,561.875 572.25,569.125 559.5,573.875 554.125,575.375 545.125,577.125 537.875,577.375 534.625,577.125 529.125,576.0 522.25,573.125 514.625,568.625 504.875,561.625"/>
    <polyline points="503.375,560.625 498.75,557.625 492.75,554.25 485.25,551.0 474.0,548.0 463.5,546.625"/>
    <polyline points="461.625,546.5 451.625,545.875 427.25,545.125 418.375,544.375 408.375,543.125 393.0,539.875"/>
    <polyline points="388.75,538.5 379.5,535.125 374.375,533.0 369.125,530.375 357.5,523.75 351.125,519.375 337.125,508.0 329.375,500.625 321.25,491.875 312.5,481.5 303.25,469.25 293.5,454.75 283.375,437.625 273.25,417.875 263.375,395.0 254.25,369.375 246.75,341.25 241.75,311.625 240.625,282.125 244.25,255.0 253.625,233.0 268.625,218.625 288.625,213.25"/>
    <polyline points="312.125,217.5 337.25,229.875 362.0,248.625 385.0,271.0 405.5,294.75 423.125,318.375 437.75,340.625 449.75,360.75 459.375,378.625 467.0,394.125 473.0,407.5 477.75,418.875 481.375,428.5 486.125,443.375 487.625,449.0 489.75,457.75 491.625,468.25 493.25,473.5"/>
    <polyline points="493.75,474.375 494.25,475.25 496.5,477.0 501.625,479.0 511.125,480.875 525.75,482.25"/>
    <polyline points="527.5,482.25 536.25,482.25 543.5,481.75 554.5,480.375 561.75,478.875 572.25,475.875"/>
    <polyline points="573.875,475.25 576.875,474.125 580.625,472.25 582.875,470.375 583.25,469.75 583.0,468.75 582.25,468.25 579.375,467.5 574.0,467.25 559.75,467.875 536.125,470.375 502.625,474.75"/>
    <polyline points="490.0,476.375 452.125,480.375 441.0,481.125 423.0,481.25 416.5,480.5 411.625,479.375 408.375,477.875 406.5,476.125 405.75,474.25 406.0,472.5 407.0,470.625 408.5,469.0 412.375,466.25 414.75,465.25 419.375,464.0 423.875,463.625 428.0,464.125 431.75,465.25"/>
    <polyline points="433.5,465.875 437.75,468.5 441.125,471.625 442.75,473.75 444.5,477.0 445.625,481.0 445.375,484.625 444.375,486.875 442.75,488.875"/>
    <polyline points="442.125,489.375 440.5,490.5 435.5,492.25 430.125,492.75 425.25,492.5 419.75,491.5 413.5,489.75 408.875,488.0 401.25,484.25"/>
    <polyline points="398.5,482.75 392.875,479.125 386.75,474.5 380.375,469.0 373.75,462.25 366.875,454.25 360.125,444.875 353.5,434.0 350.5,428.0 347.625,421.875 345.0,415.375 340.875,401.875 339.5,395.125 338.75,388.625 338.625,382.25 339.125,376.375 340.5,371.125 342.625,366.75"/>
    <polyline points="345.375,363.125 349.0,360.625 353.25,359.25 358.125,359.0 363.5,359.75 369.25,361.75 375.25,364.625 381.5,368.375 387.75,372.875 393.875,377.875 405.875,389.125 411.5,395.0 422.0,406.875 439.5,428.75 461.375,457.5"/>
    <polyline points="463.75,460.75 478.875,479.5 496.0,498.5"/>
    <polyline points="496.625,499.125 502.875,506.0 504.625,508.625"/>
    <polyline points="504.75,508.875 505.25,509.875 505.0,511.75 503.125,513.125 499.25,514.375"/>
    <line x1="498.875" x2="486.875" y1="514.5" y2="517.125"/>
    <polyline points="486.25,517.25 478.25,518.625 460.75,520.5"/>
    <polyline points="459.375,520.5 449.5,520.875 443.875,520.75 433.0,519.875 425.5,518.75 414.125,516.125 400.875,511.375"/>
    <polyline points="397.125,509.75 385.0,503.25 376.125,497.25 371.25,493.5 366.25,489.375 361.125,484.625 350.0,473.25 344.25,466.375 338.375,458.5 332.25,449.875 326.25,440.125 320.25,429.25 314.375,417.375 309.0,404.5 304.125,390.625 300.25,376.25 297.375,361.375 296.0,346.75 296.5,332.75 299.0,320.25 303.625,309.875 310.5,302.25"/>
    <polyline points="319.375,297.875 329.875,297.0 341.75,299.375 354.375,305.0 367.25,313.125 380.0,323.125 392.125,334.5 403.625,346.625 414.125,358.875 423.75,370.875 432.5,382.375 440.25,393.25 468.75,435.125 480.375,451.25 489.625,462.625 497.625,470.5"/>
    <polyline points="500.125,472.625 504.75,476.125 511.375,480.125 517.625,482.875 523.75,484.75 529.75,486.0 539.625,486.875 552.0,486.5"/>
    <polyline points="554.125,486.25 565.25,484.75 582.25,481.125 601.75,475.875 621.125,469.875"/>
    <polyline points="624.625,468.75 682.5,449.75 715.375,439.75 752.375,430.0 764.125,427.25 791.25,421.875"/>
    <polyline points="806.75,419.5 823.0,417.75 839.125,417.125 852.875,418.75 860.875,424.125 858.875,435.0 842.125,452.875 808.875,478.25 761.75,509.75 708.25,544.375 656.25,578.875 611.75,611.125 577.5,640.125 553.375,665.75 538.375,688.25 531.125,708.125 530.125,725.375 534.125,740.0 541.875,751.625 552.25,759.75 564.25,764.125 577.0,764.25 589.375,760.25 600.75,752.0 610.5,740.25 618.5,725.625"/>
    <polyline points="624.5,709.0 628.625,691.375 631.125,673.5 632.25,656.0 632.375,639.5 631.625,624.25 630.375,610.25 628.625,597.75 626.625,586.75 624.5,577.125 622.25,568.75 620.0,561.5 617.625,555.25 613.25,545.375 608.875,538.25 604.75,533.0 599.0,527.75 595.5,525.375 592.25,523.625"/>
    <polyline points="590.625,522.875 580.625,518.75 575.625,516.25 573.125,514.125 572.25,512.875 571.75,511.5"/>
    <polyline points="571.75,511.125 571.75,510.25 572.375,508.5 575.125,505.5 578.375,503.375 584.625,500.375"/>
    <polyline points="585.75,500.0 594.125,497.0 606.125,493.75 614.625,492.0 623.5,490.625"/>
    <polyline points="625.25,490.5 633.75,490.125 638.0,490.625 641.25,491.75 642.625,493.0 643.0,493.75 643.125,494.625 642.75,496.5 640.25,500.25 637.25,503.125 631.0,507.75"/>
    <polyline points="628.5,509.375 620.25,514.0 611.25,518.25 605.125,520.75 596.25,523.625 588.125,525.5 578.625,526.625 570.75,526.375 566.0,525.625"/>
    <polyline points="564.625,525.25 560.875,524.0 557.75,522.5 555.25,521.0 553.375,519.375 552.375,518.375 551.0,516.25 550.375,514.25 550.375,512.875"/>
    <polyline points="550.5,512.375 550.875,511.125 552.0,509.375 555.375,506.5 558.75,504.5 564.125,502.125"/>
    <polyline points="565.125,501.75 573.25,498.75 583.375,495.5 604.25,489.875"/>
    <polyline points="606.375,489.375 618.25,486.75 628.75,484.875 639.625,483.375 647.625,482.875 652.75,482.875 657.25,483.375 659.25,483.875 661.0,484.5 662.375,485.375 663.5,486.25 664.25,487.5"/>
    <polyline points="664.375,488.875 664.25,490.5 662.125,494.5 660.25,496.875 654.75,502.0 651.25,504.875 642.75,510.75 627.875,519.75 617.25,525.25 606.875,530.0 597.0,533.875 583.625,538.0 575.875,539.625 569.0,540.375"/>
    <polyline points="565.875,540.625 560.125,540.5 555.125,540.0 550.625,539.125 543.25,536.625 534.75,532.375 526.125,526.375"/>
    <polyline points="525.375,525.875 516.875,519.125 513.875,517.125"/>
    <polyline points="513.625,516.875 511.0,515.375 508.125,514.625"/>
    <polyline points="507.875,514.625 504.5,514.5 502.0,514.875"/>
    <line x1="501.75" x2="491.375" y1="514.875" y2="516.625"/>
    <polyline points="490.875,516.75 481.0,518.375 469.875,519.75"/>
    <polyline points="468.75,519.875 456.25,520.875 443.875,520.875 433.0,520.0 422.75,518.375"/>
    <polyline points="420.0,517.75 410.875,515.25 400.75,511.5 389.125,505.75 380.5,500.5 375.875,497.25 366.125,489.375 355.375,479.25 349.75,473.125 344.0,466.25 338.0,458.375 332.0,449.625 325.875,439.875 319.875,429.0 314.125,417.0 308.625,404.125 303.875,390.25"/>
    <polyline points="299.875,375.625 297.125,360.75 295.875,346.125 296.375,332.125 298.875,319.625 303.625,309.375 310.5,301.75 319.5,297.5 330.125,296.625 342.125,299.25 354.75,305.0 367.75,313.25 380.375,323.375 392.625,334.875 404.125,346.875 414.625,359.25 424.25,371.25 432.875,382.75 447.625,403.625 477.125,446.75"/>
    <polyline points="480.625,451.5 487.0,459.375 492.625,465.75 500.25,472.75 504.875,476.25 511.5,480.125 517.75,482.875 523.875,484.75 527.875,485.625 537.875,486.75"/>
    <polyline points="539.875,486.75 548.0,486.75 556.5,486.0 567.75,484.25 582.5,481.0 599.0,476.5"/>
    <polyline points="602.0,475.625 628.5,467.375 693.875,445.75 714.25,439.5"/>
    <polyline points="722.0,437.25 739.75,432.375 761.0,427.0 773.5,424.125 787.375,421.375 802.625,418.625 819.25,416.125 836.375,414.625 852.625,414.625 865.25,417.625 869.75,425.375 861.0,440.0 834.875,462.625 791.375,493.0 680.0,565.375 629.125,600.625 588.625,632.875 559.5,661.5 540.875,686.875 531.375,709.25 529.125,729.0 532.75,745.875 540.875,759.625"/>
    <polyline points="552.375,769.75 565.875,775.5 580.25,776.5 594.25,772.625 607.25,763.875 618.375,750.875 627.25,734.625 633.875,716.0 638.25,696.375 640.875,676.5 642.0,657.375 641.875,639.25 641.0,622.75 639.375,608.0 637.5,594.875 633.0,573.5 628.0,557.875 625.625,551.75 620.75,542.375 615.875,535.875 613.625,533.375 611.25,531.375"/>
    <polyline points="609.0,529.625 604.625,527.125 600.375,525.375 594.5,523.625 578.0,519.875 574.0,518.375 571.75,517.125"/>
    <polyline points="571.0,516.75 568.375,514.125 567.875,513.25 567.5,511.0 568.625,508.25 571.375,505.625"/>
    <polyline points="572.0,505.25 577.25,502.125 581.25,500.375 588.375,497.75 600.25,494.25"/>
    <polyline points="602.0,493.75 620.5,489.875 628.5,488.875 634.25,488.5 639.625,488.625 642.75,489.125 646.25,490.5"/>
    <polyline points="647.0,491.25 647.875,492.875 647.875,493.875 647.625,495.125 646.125,497.75 643.375,500.875 641.5,502.5 637.0,506.125 631.5,509.875 621.875,515.375 611.375,520.375 601.0,524.375 591.25,527.25"/>
    <polyline points="588.25,527.875 579.875,529.25 575.0,529.625 568.5,529.375 563.0,528.625 558.5,527.375 554.75,525.875 550.75,523.625 547.75,521.375"/>
    <polyline points="547.125,520.75 544.875,518.0 543.875,516.0 543.5,514.25 544.0,511.75 545.625,509.375"/>
    <polyline points="546.125,509.0 548.375,507.25 553.0,504.75 561.125,501.5 565.75,500.0"/>
    <polyline points="566.875,499.5 592.25,492.0 612.375,487.125"/>
    <polyline points="614.875,486.5 634.25,482.875 643.125,481.75 654.75,481.125 660.0,481.5 664.375,482.375 666.25,483.125 667.75,484.0 668.75,485.25 669.375,486.625 669.375,488.25 668.75,490.25 667.625,492.375"/>
    <polyline points="665.75,494.875 663.25,497.625 656.375,503.625 642.0,513.75 624.875,523.625 607.375,532.125 601.875,534.5 591.375,538.375 577.75,542.25 569.875,543.5 563.0,544.125 554.375,543.75"/>
    <polyline points="551.75,543.375 543.0,541.125 536.125,538.25 528.0,533.625 517.625,526.75"/>
    <polyline points="516.875,526.25 509.625,522.0 505.125,520.25 502.0,519.5"/>
    <polyline points="501.375,519.375 497.0,518.875 492.0,518.875 485.5,519.375"/>
    <polyline points="484.625,519.5 467.125,521.125 455.5,521.75"/>
    <polyline points="453.875,521.75 442.75,521.625 436.25,521.125 426.5,519.875 418.25,518.125 408.875,515.375 402.0,512.875 394.5,509.5 386.375,505.125"/>
    <polyline points="382.0,502.375 377.5,499.375 367.75,491.875 362.5,487.375 351.5,476.375 339.75,462.125 333.625,453.625 327.5,444.125 321.25,433.5 315.25,421.875 309.625,409.0 304.375,395.25 300.0,380.625 296.625,365.5 294.75,350.375 294.5,335.75 296.25,322.375 300.375,310.875 306.625,302.125 315.125,296.5 325.375,294.5 337.25,296.0 350.0,300.875"/>
    <polyline points="363.125,308.5 376.25,318.375 388.875,329.75 400.75,341.875 411.75,354.5 430.875,378.75 446.125,400.375 472.625,439.625 483.5,454.5 489.625,461.875 495.125,467.625 500.125,472.125 507.0,477.125"/>
    <polyline points="509.25,478.5 515.625,481.625 521.75,483.75 529.75,485.5 535.75,486.25 546.0,486.375 552.25,486.0 561.0,484.875"/>
    <polyline points="563.25,484.5 577.375,481.75 596.0,476.875 620.875,469.125 635.0,464.25"/>
    <polyline points="638.75,463.0 671.625,451.0 699.25,440.125 716.875,432.25 720.75,430.25 724.0,428.375 726.5,426.5 728.0,424.875 727.75,423.625 725.25,422.75 719.5,422.5"/>
    <polyline points="708.875,423.5 691.375,426.0 663.75,431.0 622.375,439.625 563.25,453.0 392.0,492.875 299.875,511.875 227.375,521.125 184.5,516.25 167.375,497.875 165.0,469.625 171.0,395.375 175.375,307.25 179.875,262.125 189.375,220.5 206.125,187.25 230.75,166.875 262.0,162.0 296.875,172.375 331.875,194.875 364.0,224.625 391.5,257.375 413.625,289.75"/>
    <polyline points="430.625,319.625 442.875,346.0 451.375,368.75 456.625,387.75 459.375,403.625 460.25,416.75 459.625,427.5 458.125,436.25 456.0,443.375 453.5,449.125 451.0,453.75 443.5,464.375 442.25,466.875 442.75,468.25 443.625,468.875 453.5,471.75"/>
    <polyline points="455.625,472.25 462.0,474.375 474.25,479.75 481.375,483.625 497.875,493.875"/>
    <polyline points="499.0,494.625 506.5,499.125 511.25,501.5 515.375,503.125 518.625,504.0"/>
    <polyline points="519.25,504.25 524.375,504.875 528.875,504.875 536.125,504.0"/>
    <polyline points="536.875,503.875 544.875,502.375 563.625,497.75"/>
    <polyline points="565.0,497.375 598.5,488.5 616.75,484.25"/>
    <polyline points="619.625,483.625 642.0,479.375 655.875,477.75 666.0,477.5 674.625,478.625 678.625,480.625 679.75,482.0 680.375,483.75 680.25,485.875 679.25,488.375 677.375,491.25 674.75,494.5"/>
    <polyline points="671.125,498.0 661.25,506.0 648.75,514.625 641.75,519.0 634.625,523.25 620.0,531.125 612.875,534.75 599.25,541.0 581.625,547.625 576.375,549.125 567.25,551.125 563.125,551.75 555.75,552.25 549.375,552.0 541.375,550.5"/>
    <polyline points="539.125,549.875 529.125,545.75 522.75,542.25 511.25,535.25 503.75,531.375"/>
    <polyline points="502.75,531.0 498.75,529.375 491.75,527.5 482.125,526.25 476.25,526.0"/>
    <polyline points="475.0,526.0 444.5,525.75 430.625,524.5"/>
    <polyline points="428.0,524.125 419.625,522.625 413.5,521.125 403.375,517.875 395.75,514.75 387.5,510.625 378.5,505.375 368.625,498.25 363.25,493.875 357.75,489.0 351.875,483.25 345.875,476.75 339.625,469.375 333.125,461.0 326.5,451.5 319.875,440.75 313.25,428.75"/>
    <polyline points="306.75,415.375 300.75,400.75 295.375,385.125 291.0,368.625 288.0,351.625 286.875,335.0 287.875,319.25 291.375,305.375 297.5,294.375 306.25,286.875 317.25,283.5 330.125,284.25 344.125,289.0 358.625,297.125 373.125,307.875 387.125,320.5 400.25,334.125 412.25,348.0 423.0,361.625 432.75,374.75 448.875,398.25 471.5,433.125"/>
    <polyline points="475.625,439.625 483.0,450.375 492.125,462.0 497.375,467.625 504.5,473.625 511.125,477.875 515.25,479.875 519.375,481.375 525.375,483.0 529.375,483.75 535.5,484.375"/>
    <polyline points="537.5,484.375 543.5,484.5 551.875,484.0 562.625,482.5 574.0,480.125 583.625,477.625 593.5,474.5"/>
    <polyline points="596.0,473.75 606.125,470.125 618.0,465.0 622.0,462.875 625.125,460.75 626.75,458.75 626.875,457.875 626.25,457.125 624.75,456.5 622.125,456.0 618.125,455.75 612.625,455.875 595.0,457.5 565.75,461.75"/>
    <polyline points="545.875,465.0 466.375,478.75 436.625,483.625 408.125,487.375 382.875,489.625 362.625,489.875 347.75,487.875 338.125,483.875 333.0,478.25 331.25,471.5 331.625,464.125 333.375,456.5 338.625,441.875 349.25,417.75 354.125,408.875 356.5,405.25 359.0,402.125 361.625,399.625 364.375,397.625"/>
    <polyline points="367.125,396.25 370.125,395.5 373.375,395.125 376.625,395.375 380.0,396.125 383.5,397.375 387.0,398.875 394.125,403.125 401.125,408.5 411.25,417.875 423.125,430.875 432.875,443.25 440.625,454.25"/>
    <polyline points="442.375,456.75 447.875,465.625 451.0,471.375 453.375,476.375 455.0,480.75 455.875,484.5 456.25,487.75 455.875,490.625 455.0,493.125"/>
    <polyline points="454.625,494.0 453.625,495.375 450.875,497.75 449.125,498.75 443.75,500.5 441.0,501.0 435.0,501.375 427.75,500.875 423.625,500.125"/>
    <polyline points="421.375,499.75 414.25,497.75 406.25,494.625 403.375,493.375 394.125,488.25 383.75,480.875 372.375,470.875 364.375,462.25 360.25,457.25 352.0,445.75 344.0,432.25 340.125,424.875 336.625,416.875"/>
    <polyline points="333.5,408.5 330.75,400.0 328.625,391.25 327.125,382.5 326.5,374.0 326.75,366.0 328.125,358.75 330.5,352.5 334.0,347.5 338.5,343.875 344.0,342.0 350.25,341.625 357.25,342.875 364.75,345.625 372.5,349.75 380.375,355.0 388.25,361.125 395.875,368.0 410.375,382.625 417.0,390.125 429.125,404.75 444.375,424.5"/>
    <polyline points="448.625,430.25 466.375,453.625 474.625,463.875 479.5,469.375 485.875,476.125 491.5,481.5 498.0,486.875 505.125,491.75"/>
    <polyline points="506.5,492.625 512.625,495.75 519.375,498.25 524.75,499.5 530.0,500.125 534.25,500.25"/>
    <polyline points="535.375,500.125 539.875,500.0 549.5,498.75 559.25,496.875 568.75,494.625"/>
    <polyline points="570.5,494.25 608.0,484.875 632.75,479.375"/>
    <polyline points="636.25,478.75 643.625,477.375 655.0,475.75 666.75,474.75 674.25,474.625 677.75,474.875 683.75,476.125 686.0,477.25 687.75,478.625 688.75,480.5 688.875,482.75 688.125,485.375 686.25,488.625 683.25,492.25 679.125,496.375 667.625,505.75 652.875,515.875"/>
    <polyline points="644.75,521.0 627.75,531.0 603.25,543.5 582.625,552.125 571.25,555.75 566.125,557.0 557.375,558.5 549.875,558.875 546.5,558.75 538.0,557.375 535.5,556.625 528.875,554.125 525.0,552.25"/>
    <polyline points="523.125,551.25 505.375,540.75 499.0,537.625 492.875,535.25 489.125,534.25"/>
    <polyline points="487.875,533.875 480.125,532.375 474.625,531.75 449.25,530.625"/>
    <polyline points="447.25,530.625 433.5,529.625 422.625,528.125 410.0,525.25 399.125,521.75 391.0,518.375 377.375,511.0 367.125,504.0 361.5,499.625"/>
    <polyline points="355.75,494.625 349.625,488.875 343.25,482.25 336.5,474.625 329.625,465.875 322.375,455.875 315.125,444.375 307.75,431.5 300.5,417.0 293.75,401.0 287.625,383.625 282.5,365.0 279.0,345.875 277.5,326.75 278.625,308.75 282.625,293.0 289.875,280.625 300.125,272.5 313.0,269.375 327.875,271.25 344.0,277.75 360.5,288.0 376.625,301.125 391.875,316.0 406.0,331.625 418.5,347.25"/>
    <polyline points="429.75,362.25 439.5,376.375 455.375,401.0 480.625,442.5 487.375,452.625 493.0,460.375 495.5,463.5 500.25,468.5 506.625,473.875 512.625,477.5 520.375,480.375"/>
    <polyline points="522.25,480.875 527.875,482.0 531.75,482.375 541.25,482.625 549.0,482.125 555.0,481.375 565.0,479.5 571.0,478.0"/>
    <polyline points="573.125,477.375 582.75,474.25 586.375,472.875 591.0,470.625 594.25,468.375 595.25,467.0 595.125,466.25 593.625,465.25 592.0,464.75 586.25,464.375 576.625,464.75 561.75,466.125"/>
    <polyline points="552.0,467.25 463.625,479.5 431.875,482.75 418.5,483.375 407.25,483.125 398.5,482.25 392.125,480.5 388.0,478.25 385.75,475.5 385.125,472.625 385.5,469.625 386.875,466.625 388.75,463.875 391.0,461.375 395.875,457.375 400.75,454.5 405.25,453.0"/>
    <polyline points="407.25,452.625 411.0,452.375 414.125,453.0 418.0,454.75 420.75,457.0 422.75,459.625 424.125,463.0 424.25,466.125 423.25,468.5"/>
    <polyline points="422.75,469.0 420.5,470.5 418.0,471.0 413.875,470.75 410.25,469.875 406.0,468.125 401.25,465.625 394.375,460.75 392.625,459.125"/>
    <polyline points="390.75,457.5 383.375,449.625 379.75,444.875 376.25,439.625 373.125,434.0 369.25,425.0 367.625,419.0 366.625,413.25 366.75,408.0 367.125,405.625 367.875,403.5 370.125,400.25 371.625,399.125 373.5,398.375"/>
    <polyline points="375.5,398.0 377.75,398.0 382.75,399.125 388.375,401.75 394.25,405.5 403.25,412.75 411.875,421.25 422.125,433.125 430.625,444.375 437.375,454.375"/>
    <polyline points="438.875,456.75 443.625,465.0 446.875,471.875 449.125,479.0 449.5,481.5 449.125,486.625 447.625,489.875 447.0,490.5"/>
    <polyline points="446.375,491.25 443.375,493.375 439.25,495.0 433.875,495.75 429.25,495.75 423.875,495.125 417.75,493.75 408.25,490.5"/>
    <polyline points="405.75,489.25 400.25,486.5 394.375,483.0 388.125,478.625 381.5,473.25 374.5,466.625 367.25,458.5 359.875,449.0 356.25,443.625 349.25,431.625 346.0,425.125 340.25,411.0 338.0,403.75 336.125,396.25 334.875,388.875 334.375,381.75 334.625,375.0"/>
    <polyline points="335.625,368.75 337.5,363.375 340.25,359.0 343.875,355.75 348.25,353.625 353.375,352.875 359.125,353.375 365.25,355.125 371.875,358.0 378.5,362.0 385.375,366.75 392.125,372.25 398.625,378.125 411.125,390.75 422.5,403.75 437.125,421.75 458.75,450.375"/>
    <polyline points="461.625,454.125 471.5,466.625 482.875,479.75 492.625,489.5 500.875,496.625"/>
    <polyline points="501.75,497.25 504.125,499.125 509.625,502.625 514.125,504.75 517.25,505.75"/>
    <polyline points="517.75,505.75 523.125,506.5 530.75,505.875"/>
    <polyline points="531.375,505.75 538.25,504.5 552.0,501.125"/>
    <line x1="553.125" x2="592.625" y1="500.75" y2="490.25"/>
    <polyline points="594.75,489.75 617.5,484.25 636.0,480.625 646.0,479.125 656.25,478.125 662.875,477.875 669.0,478.25"/>
    <polyline points="671.75,478.75 676.25,480.25 677.75,481.5 678.75,483.0 679.125,484.875 678.625,487.0 677.5,489.5 675.375,492.5 672.5,495.75 664.125,503.125 658.75,507.125 652.75,511.375 639.5,519.75 625.25,527.75 611.25,535.0 598.125,540.875 592.0,543.25 580.875,547.0 575.875,548.375"/>
    <polyline points="571.25,549.5 562.875,550.875 555.75,551.25 549.625,550.875 544.125,550.0 539.5,548.75 533.25,546.375 523.375,541.25 515.625,536.5"/>
    <polyline points="514.375,535.75 507.875,532.0 502.0,529.375 497.25,527.625 489.5,526.0"/>
    <polyline points="488.5,525.875 483.375,525.375 475.25,525.125 456.5,525.375"/>
    <polyline points="454.875,525.375 438.875,524.75 426.625,523.25 418.125,521.625 408.625,519.0 401.5,516.5 393.875,513.125 385.5,508.75"/>
    <polyline points="381.0,506.0 376.25,503.0 366.125,495.375 355.125,485.5 349.25,479.375 343.125,472.5 336.75,464.625 330.375,455.75 323.75,445.75 317.125,434.375 310.625,421.875 304.5,408.125 298.875,393.125 294.0,377.25 290.375,360.625 288.375,344.125 288.25,328.0 290.5,313.5 295.25,301.125 302.5,292.0 312.25,286.5 324.0,285.125 337.25,287.75 351.375,294.125"/>
    <polyline points="365.75,303.375 379.875,314.875 393.25,327.75 405.625,341.375 417.0,355.0 427.25,368.25 436.25,380.75 451.5,403.125 472.875,436.125 480.75,447.625 487.25,456.5 493.0,463.375 500.625,470.875 505.25,474.5 509.625,477.25"/>
    <polyline points="511.875,478.375 513.875,479.5 520.125,481.875 528.125,483.75 534.25,484.5 544.375,484.75 550.625,484.375 563.625,482.625"/>
    <polyline points="565.875,482.25 582.375,478.375 595.125,474.625 613.5,468.0 621.0,464.75 627.625,461.375"/>
    <polyline points="629.5,460.25 632.125,458.0 632.875,457.0 633.0,456.125 632.375,455.25 628.125,454.125 617.875,454.125 598.375,456.125 565.875,461.0 454.625,480.75 422.0,485.875 391.75,489.75 366.0,491.5 346.25,490.75 332.75,487.5 324.875,482.0 321.375,474.875 320.875,466.75"/>
    <polyline points="322.25,458.125 324.625,449.375 330.25,432.625 338.25,411.0 340.875,404.875 343.375,399.5 348.875,390.625 352.0,387.375 355.25,384.75 358.875,383.0 362.75,382.0 366.75,381.75 371.0,382.25 375.5,383.375 380.0,385.25 384.625,387.625 393.875,393.75 402.875,401.25 411.375,409.375"/>
    <polyline points="415.5,413.625 426.5,426.125 443.875,448.25 459.0,469.625 464.0,477.375 467.625,483.75"/>
    <polyline points="468.375,485.125 471.375,492.25 472.25,496.875 472.25,498.5 471.875,500.75 470.75,503.25 468.25,506.0"/>
    <polyline points="467.625,506.375 466.25,507.375 462.875,509.0 458.875,510.25 452.625,511.5 445.0,512.125 435.75,511.875"/>
    <polyline points="433.625,511.75 422.125,509.875 411.0,506.625 404.75,504.25 398.125,501.125 386.875,494.75 382.875,492.0 374.375,485.375 365.25,477.0 360.375,472.125 355.5,466.5 345.375,453.5"/>
    <polyline points="340.25,445.875 335.125,437.375 330.125,428.25 325.375,418.375 320.875,407.75 317.0,396.5 313.875,384.875 311.5,373.125 310.375,361.375 310.5,350.375 312.0,340.25 315.25,331.5 320.0,324.75 326.375,320.125 334.125,318.0 343.0,318.375 352.75,321.125 362.875,326.125 373.375,332.75 383.625,340.875 393.625,350.0 403.125,359.625 412.0,369.5 420.25,379.375 434.875,398.0"/>
    <polyline points="441.25,406.625 461.625,435.0 473.125,450.5 485.375,465.0 493.0,472.625 499.75,478.25 508.0,483.625 515.5,487.25"/>
    <polyline points="517.375,487.875 522.75,489.625 528.0,490.75 538.375,491.875 545.5,491.875 551.0,491.5 562.75,490.0"/>
    <polyline points="564.875,489.625 578.125,487.0 590.75,484.0 637.625,472.0"/>
    <polyline points="641.875,471.0 656.0,467.75 677.75,463.5 689.75,461.75 702.375,460.375 708.75,460.0 714.875,460.0 720.625,460.375 725.625,461.375 729.75,463.0 732.375,465.625 733.125,469.125 731.625,473.875 727.375,479.875 720.375,487.125 710.375,495.625 698.0,505.0 683.5,515.125 667.75,525.5"/>
    <polyline points="651.625,535.75 635.5,545.75 606.25,563.25 582.25,577.125 556.625,590.625 545.125,595.5 536.625,598.0 530.375,598.625 527.875,598.375 523.5,597.0 520.0,595.0 518.375,593.75 511.5,586.5"/>
    <polyline points="510.25,585.0 505.125,579.125 499.875,573.875 495.75,570.375 491.625,567.375 484.375,563.5 479.75,561.75 474.875,560.375"/>
    <polyline points="473.25,560.0 464.625,558.75 459.0,558.375 451.125,558.375 440.125,558.875 419.25,560.625"/>
    <polyline points="416.25,560.875 399.875,561.625 388.375,561.375 380.0,560.625 370.625,559.125 360.25,556.625 354.5,554.75 342.0,549.5 335.0,545.75 327.5,541.0 319.25,535.25 310.375,527.875 300.625,518.75 290.0,507.5 278.25,493.25 265.5,475.625"/>
    <polyline points="251.75,453.875 237.25,427.0 222.375,394.375 208.0,355.625 195.875,311.125 188.25,262.625 188.0,214.25 198.125,171.75 219.875,142.25 252.125,131.125 291.375,139.375 332.25,163.875 370.625,198.625 403.375,237.375 429.75,275.5 449.5,310.375 463.625,340.75 473.0,366.25 478.375,387.5 480.625,404.875 480.375,419.0 478.125,430.375 474.625,439.625 470.0,447.125 464.875,453.125 459.5,457.875"/>
    <polyline points="454.125,461.75 444.625,466.875 435.25,470.25 432.375,470.625 436.125,470.125 439.75,470.125 446.125,471.0 450.5,472.0 454.875,473.5 462.75,477.125"/>
    <polyline points="464.5,478.25 467.875,480.25 476.125,486.625 480.25,490.625 484.125,495.0 486.375,498.125 487.875,500.875"/>
    <polyline points="488.125,501.375 489.125,504.75 489.0,507.375 487.875,509.625 485.375,511.875"/>
    <polyline points="484.875,512.125 482.25,513.5 477.375,515.25 471.0,516.75 464.125,517.75"/>
    <polyline points="462.875,517.875 452.75,518.75 443.75,518.75 435.5,518.25 428.5,517.375 423.25,516.375 411.75,513.375"/>
    <polyline points="408.5,512.25 405.25,511.125 394.375,506.25 386.375,501.75 377.625,495.875 368.125,488.375 357.875,478.625 352.5,472.875 346.875,466.25 341.125,458.875 335.375,450.625 329.5,441.375 323.75,431.125 318.125,420.0 312.875,407.75 308.125,394.75 304.125,381.125 301.25,367.125 299.625,353.125 299.625,339.625"/>
  </g>
</svg>
