<?xml version="1.0" encoding="utf-8" ?>
<svg xmlns="http://www.w3.org/2000/svg" xmlns:cc="http://creativecommons.org/ns" xmlns:dc="http://purl.org/dc/elements/1.1/" xmlns:ev="http://www.w3.org/2001/xml-events" xmlns:inkscape="http://www.inkscape.org/namespaces/inkscape" xmlns:rdf="http://www.w3.org/1999/02/22-rdf-syntax-ns" xmlns:sodipodi="http://sodipodi.sourceforge.net/DTD/sodipodi-0.dtd" xmlns:xlink="http://www.w3.org/1999/xlink" baseProfile="tiny" height="27.09333333cm" version="1.2" viewBox="0 0 1024.0 1024.0" width="27.09333333cm">
  <metadata>
    <rdf:RDF>
      <cc:Work>
        <dc:format>image/svg+xml</dc:format>
        <dc:source>vpype read './original_svgs/Strange Attractors #413.svg' linemerge linesimplify write './Strange Attractors #413.svg'
</dc:source>
        <dc:date>2024-08-05T01:35:57.623631</dc:date>
      </cc:Work>
    </rdf:RDF>
  </metadata>
  <defs/>
  <g fill="none" id="layer1" inkscape:groupmode="layer" inkscape:label="1" stroke="black" style="display:inline">
    <polyline points="623.75,771.375 623.0487,767.4883 622.7228,763.0889 623.1486,752.3268 625.0564,738.3103 628.5703,720.0726 636.0946,687.6563 664.0956,575.5936 677.2554,520.708 689.5805,465.7681 698.0577,422.7052 700.9952,405.2497 703.2398,389.6501 704.777,375.9493 705.6004,364.1704 705.7145,354.1784 705.1501,345.7678 703.9133,338.9679 701.8624,333.4624 699.2388,329.856 697.6749,328.6125 695.9429,327.7355 693.9461,327.193 691.732,326.9963 686.8596,327.6339 681.092,329.7014 674.7891,333.0547 667.6147,337.8409 659.6052,344.0146 649.8138,352.3636 639.4972,361.9102 628.0343,373.2342 616.7036,385.1176 604.2472,398.9281 591.1472,414.1625 580.6839,426.9827 570.791,439.807 557.9139,457.715 546.7597,474.834 536.6735,492.0332 527.9026,509.1224 518.7527,529.7425 511.2238,549.8969 504.8218,570.5445 495.3756,605.4251 491.25,618.125 488.577,623.849 486.0115,627.2894 483.2156,629.2513 481.4949,629.6146 479.9629,629.4668 477.2548,628.0259 473.5138,624.4369 470.654,620.5581 467.322,614.9218 464.0173,608.5284 460.6293,601.0086 451.3134,577.4028 443.7327,555.5418 434.6284,527.4971 393.9803,392.2676 382.5004,355.2578 373.5,327.625 361.2497,292.3197 351.6076,267.0116 346.7843,255.752 342.8852,247.6998 340.1597,243.4005 339.2649,242.711 338.7215,242.9827 338.752,245.8973 340.1056,251.7015 342.6821,259.9123 345.8997,268.7309 354.9219,290.2871 366.0309,313.9097 378.2896,337.5851 393.4736,365.1628 408.0448,390.2297 442.2133,447.6922 461.533,482.0608 470.7067,500.1718 477.9178,515.7691 484.8076,532.8334 490.1224,547.9683 494.0023,561.009 497.0208,572.6117 499.8762,585.8201 502.0605,598.0869 504.1775,613.8119 505.6807,629.4241 506.4875,640.3045 507.1875,657.1895 507.2962,675.293 506.9198,689.3377 506.0918,703.4468 504.8075,715.948 502.9402,725.0892 500.6427,731.0239 499.2992,732.94 498.1193,733.8919 496.4534,734.4115 494.8936,734.106 491.6102,731.7691 488.9383,728.4826 485.0773,721.9921 481.6107,714.7484 476.5611,702.6588 472.9175,692.9329 462.0073,659.6775 454.1668,632.7948 443.3838,593.9551 403.3454,441.4454 387.1307,381.9498 368.8535,318.6087 360.7709,292.4143 352.7642,267.8157 344.7134,244.4213 336.971,223.3381 329.8116,205.3393 323.4638,190.9623 317.3802,179.0225 312.1241,170.7657 309.8823,168.1906 308.0197,166.8183 306.5576,166.6491 305.5172,167.6828 304.8993,170.1781 304.8691,174.0286 305.4224,179.0989 306.6245,185.6758 310.5507,201.0396 316.3146,218.9049 323.2228,237.1567 331.4243,256.4767 340.8562,276.7148 350.995,296.7342 361.2351,315.5056 372.3981,334.7258 384.6889,354.7436 397.7484,374.9581 409.1206,391.6967 422.2945,410.3605 465.4894,469.4072 480.2805,490.2055 492.9274,508.9304 504.9645,528.4695 510.7379,538.7138 516.0662,549.1073 521.771,560.965 526.1109,570.9683 534.0958,592.2416 549.3919,638.2739 554.9753,651.9477 558.4415,658.6414 562.719,664.6092 566.0792,667.8804 570.0723,670.0156 573.1352,670.7029 576.1374,670.5739 579.3475,669.619 582.346,668.0323 585.5798,665.6009 588.9696,662.2963 592.5233,658.0793 595.9458,653.3345 603.6923,640.5517 611.0756,625.8805 619.3231,606.4528 627.5836,584.5039 636.2933,558.3948 644.3559,531.1003 651.4189,503.6561 656.8037,478.6898 660.2136,457.6818 661.6853,441.1173 661.6975,434.0834 661.2406,428.2565 660.3283,423.4515 658.9523,419.6849 657.7733,417.7589 656.212,416.1658 654.4678,415.1135 652.5307,414.5415 650.4038,414.4401 648.0903,414.7998 645.5935,415.611 642.555,417.0581 636.3267,421.1593 629.1014,427.3491 621.027,435.558 612.884,444.9868 605.375,454.75 597.365,466.3013 590.028,477.9599 583.1201,490.0536 576.7924,502.2679 570.972,514.7111 566.3031,526.1516 561.6238,539.2498 558.1363,550.695 554.9498,563.3561 552.4039,575.4412 550.2831,588.3372 548.9805,598.9978 548.19,610.2467 547.8994,621.3324 548.1746,632.7278 548.9781,643.8481 550.8191,656.4081 552.4541,663.8062 554.8872,671.5821 557.7482,678.3871 561.172,683.98 564.4408,687.397 568.285,689.5351 571.2473,690.1521 574.2452,689.8869 577.8372,688.5891 581.25,686.5 584.6533,683.6336 588.3135,679.753 592.1761,674.8309 595.8526,669.3741 603.8125,655.3968 611.8187,638.6429 621.3155,615.7066 630.0017,592.0347 639.864,561.6797 648.5112,532.0942 657.5125,497.1477 663.6095,469.4286 667.5061,445.916 668.6609,435.9304 669.275,427.339 669.375,420.125 668.9367,413.3733 667.9521,407.8313 666.5586,403.7961 665.208,401.4543 663.5956,399.7024 661.6116,398.4712 659.1668,397.7875 656.8107,397.7397 653.8814,398.2915 651.1209,399.286 647.7516,400.9845 640.0185,406.2963 631.5852,413.6548 622.2992,423.1522 612.5252,434.409 603.4528,446.0467 593.7443,459.7891 585.3442,472.8519 577.5805,486.2154 570.5358,499.6977 564.0475,513.5711 558.5462,527.0552 553.353,541.6495 549.3799,554.9203 545.685,569.6248 543.3962,581.4241 541.1472,596.3768 539.8691,608.8623 539.0094,622.8656 538.9261,636.0739 539.3575,650.2719 540.5583,663.8585 542.4359,676.1493 544.6995,686.7799 547.8782,696.9047 551.1693,704.5102 555.5142,711.3458 559.2263,715.0833 561.4118,716.5125 563.7034,717.5333 566.938,718.1449 570.4353,717.6925 574.2394,716.1695 578.0891,713.7149 581.986,710.302 585.8726,706.019 589.9491,700.6158 594.0021,694.365 602.957,678.2239 611.7561,659.306 622.2082,633.5218 632.1677,605.8449 643.7219,569.768 654.7916,531.5429 664.9294,492.6611 672.4183,459.4763 677.5666,430.687 679.182,418.6888 680.1578,408.3021 680.5032,399.5097 680.2436,392.0742 679.3546,385.6354 677.8415,380.5922 676.3822,377.8334 674.4159,375.601 672.2168,374.2539 669.3475,373.5243 666.4852,373.5576 663.0088,374.324 659.2363,375.8189 655.184,378.0018 650.7516,380.9131 645.8411,384.6324 635.0762,394.1997 622.1863,407.4743 609.4505,422.0381 598.4336,436.0005 586.9724,452.0017 576.125,468.625 566.6498,484.666 558.8654,499.4644 551.6848,515.0251 544.8809,531.9757 539.7483,546.9586 534.9707,563.8072 531.6357,578.5683 528.5737,596.0901 526.208,615.1429 525.0895,629.3245 524.3846,646.3967 524.4441,665.7226 525.2993,683.6342 527.255,703.8521 529.6332,719.5305 532.467,732.2678 535.7036,743.6794 540.2796,755.0938 542.641,759.5401 545.2126,763.5474 547.4348,766.3731 550.0,768.8438 552.8025,770.7805 555.7699,772.1019 559.5164,772.7384 563.6368,772.1928 567.9792,770.3749 572.3166,767.4023 576.7626,763.2375 581.2316,757.9848 585.824,751.5218 590.6736,743.709 595.7069,734.6479 600.6577,724.8137 610.7507,701.9721 622.2811,672.1878 633.9169,638.6535 649.6669,588.9251 663.2578,542.1243 677.9956,485.9695 684.1905,460.4406 689.3834,437.5126 693.4189,418.0679 696.6596,400.6028 699.1118,385.0894 700.766,371.5812 701.6209,360.1087 701.6855,350.5751 700.9982,342.5892 699.5777,336.3081 697.4335,331.6795 696.1879,330.0702 694.5752,328.6509 692.9997,327.7704 691.0123,327.17 686.7066,327.1312 681.5141,328.5046 675.393,331.3808 668.722,335.545 660.9438,341.3324 651.218,349.4915 640.6319,359.2119 628.7443,370.9329 617.1373,383.0845 604.8594,396.7586 591.935,411.9474 581.2484,425.1442 571.2933,438.1894 558.0611,456.8959 546.4352,475.0741 536.1572,492.9852 527.1983,510.9277 518.8452,530.2408 511.1773,551.6699 504.4727,574.3652 496.4093,605.761 491.9994,619.6762 489.3317,625.7802 486.5126,630.0868 485.0418,631.4421 483.8019,632.127 482.125,632.5 480.6152,632.3379 478.0534,631.0353 474.5334,627.8821 471.7328,624.2595 468.4978,618.9739 464.962,612.238 461.3069,604.2874 452.8041,582.933 444.574,559.13 435.4433,530.9686 391.1554,383.5888 380.0477,348.026 369.7825,316.7739 358.8373,285.3892 349.9889,262.8019 345.3681,252.2979 341.7237,245.0226 339.1672,241.1673 338.3046,240.5426 337.805,240.819 337.8835,243.9374 339.1912,249.6013 341.5817,257.4733 344.8704,266.6263 354.2242,289.1494 364.9782,312.1515 377.6274,336.6083 392.9327,364.4542 415.7947,403.3859 441.5732,446.3232 453.7936,467.3962 462.0379,482.3444 471.5562,501.1263 479.3484,518.1064 486.3431,535.4074 491.7242,551.2127 495.3561,563.5437 498.2095,574.6658 501.2404,588.6439 503.4966,601.4434 505.4646,615.8061 507.1782,633.9242 508.7042,660.1245 509.1218,678.1482 508.9644,703.1968 508.1474,721.386 507.0145,734.9868 505.3498,745.4615 503.1562,752.1406 501.875,754.25 500.5718,755.442 499.1535,755.8604 497.5534,755.5983 494.375,753.125 491.6094,749.5469 487.5736,742.4805 483.9666,734.7168 479.4965,723.6155 475.2069,711.7435 465.1468,680.2011 456.1195,648.6191 446.563,613.4588 406.085,455.4826 386.6532,382.4576 367.7937,316.0052 359.2316,287.8801 350.607,261.0506 341.5781,234.6406 333.1193,211.6359 325.2616,192.0976 318.1033,176.285 311.2089,163.3319 308.1194,158.5116 305.3995,155.0043 303.0786,152.824 301.1857,151.9846 299.75,152.5 298.7485,154.5295 298.3319,158.2067 298.572,163.3297 299.458,169.7748 300.9794,177.4182 305.8854,195.8057 312.4265,215.2826 320.8355,236.7623 330.6885,259.2141 341.7787,282.1645 353.2607,303.8161 364.1358,322.8207 376.2336,342.7057 389.4504,363.2864 402.256,382.1317 416.0617,401.4269 433.6429,425.0635 468.6911,470.5056 488.0052,496.0761 497.9987,510.0739 509.8884,528.0381 520.9797,546.8328 530.584,565.5688 539.3428,585.2978 551.8704,617.8519 559.0024,633.9793 562.7062,640.4438 565.9371,644.9611 569.5685,648.3985 573.393,650.561 575.9966,651.1534 579.117,651.074 581.9533,650.3472 584.8159,648.9228 587.8236,646.7315 590.9616,643.7731 594.2311,640.0328 597.5567,635.611 603.8471,625.557 610.7124,612.0277 617.8578,595.7452 625.0328,577.1408 632.684,554.5934 640.0129,529.7608 645.4261,508.5045 650.5006,484.5259 652.9516,468.6209 653.9871,453.6539 653.8998,448.087 653.4238,443.3219 652.6069,439.6341 651.2772,436.2863 649.0511,433.3862 647.7086,432.4715 645.9001,431.8447 644.041,431.7061 641.8079,431.9839 637.2787,433.669 632.2783,436.8232 626.6667,441.5231 620.745,447.4798 614.1354,455.0547 607.7592,463.23 601.5463,472.0718 595.7272,481.2078 589.9945,491.1555 584.471,501.674 579.6547,511.8142 574.6081,523.7027 570.8039,533.8622 567.5496,544.0665 564.0259,556.5434 561.8747,565.8495 559.8068,576.7684 558.4546,586.0325 557.4358,596.4521 556.9186,605.7357 556.8664,614.8654 557.2384,623.706 558.2346,632.577 559.613,640.9296 561.5501,648.1079 563.853,654.1146 566.6257,658.9096 569.729,662.4377 573.0312,664.3594 575.9595,664.9045 578.663,664.7019 581.4536,663.7219 584.7756,661.7045 587.8981,659.0864 591.16,655.643 594.7127,651.1424 598.2229,646.0167 605.5107,633.3959 612.8655,618.1521 620.1132,600.6499 627.8329,579.6179 636.4886,553.2379 643.9127,527.8546 650.368,501.9569 655.1802,479.0723 658.0807,459.9806 659.3095,444.2276 659.2473,438.0366 658.72,432.7268 657.7038,428.0946 656.3966,424.8273 655.1183,422.8766 653.8377,421.6159 652.125,420.625 650.3237,420.1346 648.3831,420.0387 645.9467,420.4075 640.5336,422.614 634.5269,426.5763 628.1741,432.0294 621.2939,439.0788 613.4906,448.1422 605.7622,458.0977 598.6404,468.2803 591.9654,478.94 584.5586,491.9023 578.8814,502.8159 573.6554,514.0549 569.1179,525.0336 564.969,536.5031 561.5423,547.2676 558.8781,556.9765 555.9493,569.7172 554.1076,579.5937 552.5741,591.2008 551.3366,603.9261 550.9092,614.5566 550.9826,625.7064 551.5839,636.228 552.5238,644.7294 554.5226,655.0474 556.5646,662.6293 559.5141,669.8744 562.5143,675.1155 566.022,678.9693 568.0184,680.4061 569.7024,681.1882 572.6099,681.7474 575.7604,681.4545 578.9095,680.3733 582.405,678.26 585.8143,675.3941 589.5603,671.4078 593.2067,666.7418 597.0653,661.0318 604.5166,647.848 613.136,629.5815 621.1184,610.1491 629.7438,586.4836 639.1688,557.7079 647.534,528.8753 654.9167,499.8294 660.8079,472.4217 664.3513,450.8372 665.3872,441.4286 665.9607,432.795 666.0232,425.626 665.6186,419.812 664.732,414.978 663.3175,411.029 662.0575,408.8236 660.595,407.1261 658.93,405.929 656.7316,405.1546 654.2575,405.0388 651.8145,405.4643 648.8433,406.4574 645.6841,407.9663 638.8704,412.4465 630.8764,419.2984 622.2075,428.0787 613.5308,438.0698 604.5864,449.5804 595.3452,462.6875 588.0573,473.9881 580.8535,486.4344 574.109,499.1787 568.4364,511.2833 562.005,526.8381 557.0551,540.5588 553.4503,552.2882 550.5323,563.5882 547.5998,577.4791 545.6914,588.8887 544.1149,602.7848 543.1768,615.4704 542.875,628.875 543.1876,640.9123 544.2498,654.0944 546.2881,667.3382 548.2589,676.5158 551.375,686.375 554.3152,693.111 558.0,698.875 561.3979,702.3139 563.6132,703.7439 565.6187,704.6118 568.9014,705.2449 572.3214,704.8879 576.0189,703.502 579.8567,701.0702 583.5681,697.755 587.273,693.613 591.452,688.0786 595.558,681.8414 603.9761,666.6802 612.3827,648.5739 622.0156,624.6719 631.6535,597.8651 642.5617,564.1633 652.2805,530.7508 661.5901,494.5131 668.5211,463.0792 673.0563,436.7695 674.4043,426.0201 675.1949,416.4045 675.3845,408.3019 674.989,401.2806 674.0301,395.4697 672.5217,390.9042 671.1625,388.4731 669.3561,386.4719 667.3276,385.2345 664.7193,384.5594 662.1433,384.5625 658.9768,385.2127 655.5484,386.514 651.8816,388.4314 643.2289,394.4576 633.5083,402.9435 623.0038,413.6789 611.8982,426.4421 601.096,440.1256 591.5943,453.3077 581.6322,468.5291 572.9456,483.1587 565.1655,497.9256 557.6816,513.9135 551.6472,528.6248 546.5098,543.3066 542.2324,557.7949 538.5816,572.4986 535.7612,587.3009 533.5198,602.7447 532.0377,618.445 531.4054,632.783 531.2631,647.9983 532.0134,665.3657 533.7947,684.0143 535.2874,693.8688 538.1683,707.701 542.0162,720.4087 545.5562,728.8218 549.906,736.0488 552.2105,738.7834 554.4018,740.8196 557.0,742.625 559.312,743.6762 562.9616,744.3455 566.951,743.8995 570.918,742.3374 575.0182,739.6252 579.4515,735.5811 583.875,730.5 588.4385,724.2369 593.125,716.8125 597.8787,708.3295 602.65,698.899 612.652,676.4422 623.5561,648.5137 634.757,616.5631 648.1787,574.2299 661.2734,528.4538 672.5557,484.7655 681.2788,445.9056 687.2079,414.1061 689.0746,401.086 690.2066,390.0714 690.707,379.7941 690.5029,371.076 689.5938,363.9376 688.082,358.6427 686.8467,356.1142 685.5186,354.2835 683.6503,352.6221 681.7183,351.6016 679.5862,351.0455 677.2612,350.9361 674.7504,351.2554 671.6626,352.1224 665.2812,355.1017 657.5407,360.1324 648.8901,366.9629 639.5291,375.39 627.7138,387.1128 615.8312,399.9037 603.9872,413.6336 592.4809,427.9469 582.039,441.9226 572.0978,456.3099 562.6956,471.0185 554.4987,485.0443 545.0119,503.3572 535.9915,523.4619 529.5963,540.6618 523.4385,560.629 518.2533,581.7947 513.788,606.0163 510.7864,627.8024 504.8069,683.414 502.5266,696.9954 500.2276,705.1722 497.5809,710.3664 496.1562,711.8724 494.5859,712.7012 493.1195,712.7072 491.4586,712.1092 489.8225,711.0861 488.3617,709.7002 484.1349,704.0747 480.9131,698.3093 476.4557,688.8317 469.7974,671.8083 459.6217,641.4741 448.987,605.9774 441.5,579.553 425.5373,521.0274 403.7432,439.1209 386.1678,376.1197 369.6878,320.3678 354.0391,271.8714 346.7123,250.8314 339.8249,232.2796 333.6946,217.0473 327.5672,203.2835 321.9867,192.2888 317.4588,185.0898 315.5616,182.8878 314.1079,181.811 312.9145,181.6787 312.0232,182.6314 311.5784,184.651 311.574,187.6748 312.9599,196.9654 316.0081,209.174 320.4728,223.3693 326.0129,238.4488 332.653,254.6853 340.2155,271.6579 348.4319,288.7444 357.765,306.7212 368.3261,325.7641 380.4941,346.5143 392.9897,366.807 405.0694,385.4725 419.2556,406.5664 456.8553,460.2966 475.8386,488.2213 487.7313,506.983 499.713,527.7838 505.8367,539.7119 512.4949,553.9315 517.352,565.426 522.1109,578.1301 525.7438,589.0941 531.9552,609.8281 542.9145,649.8007 546.377,660.9412 549.096,668.2225 553.3156,677.5362 557.4276,684.0469 559.9113,687.0692 562.0098,689.0715 564.259,690.6443 566.6377,691.756 569.7655,692.4479 573.098,692.2518 576.662,691.0602 580.085,689.0676 583.854,686.0186 587.486,682.2992 591.2914,677.6151 594.967,672.3295 603.2153,658.1556 611.3469,641.4025 620.4599,619.3891 629.4022,595.1084 639.9235,562.9426 649.2516,531.2111 657.9212,497.5933 664.3391,468.5209 668.4021,444.5804 669.6195,434.3645 670.2778,425.5721 670.4056,417.8744 670.0033,411.44 669.0918,406.074 667.5387,401.5066 666.1231,399.1078 664.4323,397.3367 662.5429,396.2159 660.1493,395.5641 657.5101,395.5336 654.6366,396.1024 651.5397,397.2481 648.2306,398.9486 640.5177,404.2733 631.6428,412.0281 622.2741,421.6305 612.4921,432.9518 602.679,445.5346 593.5469,458.3623 585.1184,471.412 577.188,485.0291 569.7776,499.1742 562.8565,513.9103 557.387,527.323 551.994,542.482 548.1863,555.2986 544.7244,569.4621 542.1217,582.7986 539.8972,597.3768 538.6191,609.8623 537.7594,623.8802 537.6715,636.8118 538.0894,650.5238 539.3607,665.8604 540.9522,676.817 543.4588,688.8922 547.0241,700.8018 550.2184,708.1686 554.3674,714.8952 556.2196,717.0614 558.5065,719.0986 560.6467,720.4876 562.9095,721.4972 566.3941,722.1362 569.7972,721.785 573.4532,720.4611 577.2734,718.0664 581.1747,714.6079 585.345,709.9636 589.8656,703.985 594.1509,697.4195 598.4894,689.928 603.0288,681.2528 612.4673,660.7025 622.4092,635.8465 632.2483,608.165 644.4706,570.2476 655.381,532.7365 665.7419,493.0227 673.4615,458.7502 678.9805,428.7238 680.6694,416.6836 681.7001,406.221 682.074,396.7369 681.801,388.8449 680.9127,382.3373 679.4091,377.2141 677.8776,374.2802 676.0,372.125 673.5758,370.6169 670.8148,369.9352 667.7344,370.0312 664.3519,370.8565 660.6846,372.3623 656.4847,374.66 651.5936,377.8932 646.5024,381.7562 635.2239,391.7265 622.5863,404.6593 609.5481,419.6028 597.5257,434.729 586.1402,450.4543 575.318,466.9139 565.7435,483.0778 557.1671,499.2647 550.1176,514.4424 543.0749,531.8583 537.519,548.2439 533.052,564.2227 529.1452,581.8806 526.4228,597.1045 524.1372,614.846 522.575,634.9125 522.1224,647.9496 522.0312,666.5781 522.8889,689.7685 524.4181,707.3517 526.336,721.8244 529.3466,738.1044 532.0748,749.1395 533.6434,754.3209 538.3113,766.0038 540.7473,770.5299 543.4035,774.593 545.7908,777.624 548.3276,780.0565 551.4275,782.1721 554.3787,783.4696 558.444,784.064 562.5747,783.3903 566.8473,781.4981 571.3253,778.3257 575.7227,774.1429 580.4622,768.5307 585.2169,761.801 590.1603,753.7395 595.2757,744.3654 600.5137,733.7498 611.178,709.2092 623.0986,678.1335 635.0197,643.5106 651.1482,591.834 666.4509,538.4751 681.5772,480.7964 687.8624,454.8926 693.1387,431.61 697.3549,411.3154 700.8675,392.5453 703.4661,376.3634 705.2248,362.3247 706.1216,350.7215 706.2147,341.1238 705.4757,332.8295 703.9204,326.4035 701.7574,322.0244 698.9314,319.1444 697.277,318.2473 695.4656,317.7017 691.4226,317.6101 686.2879,318.8507 680.5797,321.3587 674.0196,325.2354 666.6212,330.5132 657.2988,338.1244 646.6089,347.675 635.1303,358.6591 622.5236,371.395 611.3942,383.2214 599.6933,396.2703 586.8488,411.2515 576.7676,423.5936 562.6556,442.0558 550.0344,459.9948 538.2606,478.6325 527.9309,496.8353 518.3005,516.5156 509.6344,537.7176 503.5354,554.8091 491.9925,591.0449 488.3482,600.6802 485.6605,605.9149 482.8865,609.4768 480.159,611.1837 478.5003,611.5262 477.171,611.4508 474.3933,610.2712 471.2308,607.5175 468.1779,603.5847 464.2086,597.2518 461.0835,591.3295 457.593,583.7543 449.2743,563.3383 439.8126,536.459 431.1487,510.0819 420.8052,477.2135 391.5695,381.8553 381.9154,351.6084 372.6215,323.6884 363.1129,296.7312 354.8413,275.6121 348.3434,261.1857 346.1462,257.5708 345.4045,256.7656 344.8611,256.6667 344.926,258.935 346.2801,264.1937 351.1965,278.1361 360.875,301.0 369.3708,319.0309 381.2246,342.2503 392.7662,363.743 413.326,399.9745 435.4238,438.0113 454.8051,473.1099 463.1704,489.7048 469.4658,503.2111 477.0171,521.4915 481.8097,534.3377 488.3954,556.6367 493.0314,577.5173 494.5502,586.6929 496.498,601.5741 497.6169,619.5282 497.7348,630.5348 497.4208,640.364 496.5307,650.6212 495.3799,657.3684 493.646,663.313 491.492,667.6134 490.3105,668.9707 488.9265,669.9203 487.5779,670.257 486.1025,670.0427 483.3584,668.5424 480.9052,666.0823 477.9492,661.9636 474.6215,656.3201 470.9773,649.0696 467.0179,640.2054 460.3068,622.4786 450.5369,593.636 439.7831,558.621 429.9327,524.8624 391.97,390.956 377.7458,343.6331 365.9102,306.3811 351.9613,266.4106 345.4684,249.3615 339.7363,235.4688 334.839,224.9214 330.1919,216.6225 327.0987,212.8365 326.0141,212.4614 325.3513,213.2326 325.1217,215.1364 325.3899,218.3479 327.3369,227.0989 331.1674,239.4152 336.4868,253.9892 342.3799,268.4421 349.2405,283.8744 356.9027,299.9417 365.3012,316.4891 380.3322,343.8147 399.9364,376.871 413.1745,398.08 452.8385,459.9999 469.884,488.1107 481.246,508.514 488.4487,523.0507 493.9426,534.9836 500.101,550.0819 505.0731,563.6959 509.7258,579.03 513.4631,592.9632 519.1609,619.4693 528.0233,671.4777 531.3539,689.0622 533.5809,698.9711 536.9944,711.9714 542.0838,726.063 544.2656,730.7031 546.836,735.2136 549.469,739.0246 552.3554,742.2407 555.4917,744.7448 558.6355,746.3331 562.5781,747.0469 566.5108,746.5847 570.4721,745.0601 574.6433,742.3296 578.8658,738.507 583.3757,733.3594 588.0209,727.0063 592.9033,719.3032 597.6908,710.7827 602.4919,701.2927 612.6165,678.4614 623.4953,650.5696 634.7134,618.4641 648.4064,575.2146 661.426,529.5871 673.3661,483.7251 678.0266,463.9725 682.1167,445.0284 685.4944,427.8275 688.1693,412.3201 690.1103,398.6044 691.2747,387.0438 691.7388,376.9182 691.5064,368.2198 690.56,361.1454 688.8939,355.6833 687.7892,353.5532 686.348,351.654 684.6259,350.203 682.7481,349.2486 680.6924,348.7293 678.1318,348.6434 672.7496,349.8436 666.2214,352.8968 658.5153,357.8584 650.0293,364.4618 640.8948,372.574 629.7781,383.5163 617.6292,396.4549 606.0244,409.711 594.7088,423.5433 584.0061,437.5485 573.9022,451.7463 564.6146,465.8328 556.2637,479.6348 546.3128,498.0217 537.5624,516.7218 530.369,534.7232 523.7158,554.7012 520.6271,565.7429 517.5424,578.3559 512.9724,601.9472 509.0741,628.8102 504.036,669.4828 501.3679,684.0955 499.1271,692.3619 496.4177,697.9087 494.875,699.625 493.26,700.5277 491.8533,700.6619 489.9943,700.1407 486.7972,697.6904 483.0142,693.0076 479.7329,687.4146 475.5059,678.7428 471.889,670.2887 467.595,659.0218 458.0913,631.0181 448.5809,600.0653 442.1791,577.888 404.2119,438.8643 385.7582,373.4122 370.0819,321.0631 354.6775,273.7721 347.8093,254.2421 341.4924,237.3763 335.5428,222.7087 329.8902,209.9974 324.8385,199.9848 320.7354,193.3826 319.0729,191.405 317.6877,190.3333 316.5919,190.1705 315.7946,190.9991 315.3776,193.3551 315.5633,197.0892 317.6981,208.2676 321.7536,222.5048 327.4985,238.8882 334.4922,256.3666 342.7142,274.9438 351.4368,293.0004 361.4559,312.2451 377.0373,340.0737 392.9409,366.4921 417.2717,403.8622 454.1043,457.7999 471.8719,484.6986 480.0092,497.7001 488.4786,511.9882 494.7667,523.2593 499.9739,533.4374 506.0096,546.375 511.1489,558.4063 515.8867,570.8578 520.0428,583.1301 527.6309,609.7188 540.2974,660.9554 543.16,670.76 546.0676,679.3035 550.2698,688.9412 554.6995,696.6823 557.1346,699.7122 559.7091,702.223 562.1055,703.9795 564.5186,705.0993 567.8581,705.7765 571.5578,705.5221 575.0741,704.3148 578.8557,702.0464 582.5253,698.9749 586.5824,694.6435 590.6896,689.3528 594.8148,683.2102 599.1232,675.9568 603.5133,667.7294 612.6068,648.3748 621.2077,627.2008 631.2646,599.45 641.3875,568.3132 653.3051,527.3279 661.6735,494.8814 668.7154,462.9892 673.1451,437.5674 674.5056,426.693 675.3362,416.7297 675.5844,408.0008 675.2579,400.9008 674.3618,395.0818 672.8564,390.4599 671.4492,387.9307 669.508,385.7947 667.5235,384.5694 664.9356,383.8846 662.0134,383.9418 659.0961,384.6023 655.8425,385.8581 652.0926,387.8357 643.2702,394.0545 632.9109,403.1556 622.2594,414.0953 611.1033,426.9828 600.0812,441.0162 589.4238,455.9381 580.4832,469.828 571.4653,485.3329 564.0161,499.5358 556.9452,514.8662 551.1302,529.2283 545.8301,544.5315 541.4976,559.3386 537.875,574.6973 535.2726,588.7911 532.8621,605.9917 531.6462,619.9758 530.9033,637.534 530.9172,652.3723 531.6309,666.6172 532.7987,679.9914 535.3487,696.9499 538.25,710.25 541.5417,721.1236 545.3565,730.3204 549.678,737.3729 551.8449,740.0111 554.2028,742.2325 556.7523,743.9882 559.4549,745.201 563.0988,745.8183 567.0066,745.2779 571.2383,743.4993 575.2171,740.7829 579.447,736.8711 584.0227,731.5835 588.6093,725.2476 593.1001,718.0832 597.8469,709.6033 602.6802,700.0702 612.2088,678.6979 623.45,649.8345 634.5795,617.9713 648.3185,574.4093 661.1967,529.589 673.0614,483.7806 681.9823,444.447 685.2254,427.7611 687.8987,412.0417 689.7696,398.645 690.9476,386.7555 691.3686,377.0687 691.0882,369.0335 690.1341,362.3984 688.3921,356.8751 687.251,354.7253 685.7315,352.7546 683.9868,351.2914 682.0217,350.324 679.8637,349.8429 677.4013,349.8127 671.917,351.0712 665.4146,354.1252 657.9101,359.0045 649.1409,365.9269 639.4983,374.5794 628.2225,385.7593 616.2153,398.6757 604.261,412.5 592.8376,426.6561 582.6954,440.1675 572.9782,454.1332 563.5272,468.7253 555.2569,482.6488 545.291,501.3897 537.2269,518.9352 529.8332,538.0755 523.5987,557.5326 520.4399,569.2923 517.4275,582.3332 512.7425,608.0517 509.6231,630.5068 504.7459,673.4504 502.077,688.9642 499.7208,697.7603 497.284,703.0591 495.75,704.875 494.3611,705.8009 492.498,706.1055 490.7463,705.6949 487.7673,703.425 484.078,698.8952 480.8825,693.4683 476.6443,684.8201 472.7829,675.674 467.9734,662.9322 458.872,635.9585 450.2845,607.73 441.6061,577.3289 407.033,450.2129 384.8319,370.8734 369.2252,318.842 353.2445,269.6036 346.5848,250.6244 340.4171,234.197 334.0827,218.6911 328.3686,206.0015 323.2561,196.0564 318.968,189.374 317.2996,187.512 315.8655,186.5305 314.7116,186.5288 313.9661,187.5753 313.6064,190.2801 313.8796,194.4444 316.1315,206.0232 320.0184,219.5568 325.8091,235.9564 333.2945,254.5772 342.009,274.2566 351.0479,292.9045 361.5066,312.9 380.2097,345.9312 399.183,376.4487 421.0359,409.3784 461.6987,468.2593 477.3014,491.7993 492.237,516.7705 502.3588,536.0049 507.8784,547.5924 512.2859,557.7164 518.2594,573.1328 522.089,584.0055 528.7384,606.6289 542.1858,658.2045 544.655,666.1191 548.2208,676.0851 551.9927,684.3346 556.401,691.5701 558.4462,694.0163 560.8797,696.2945 563.125,697.875 565.4736,698.9688 568.733,699.5877 572.2416,699.2998 575.778,698.136 579.5046,695.9162 583.4817,692.5488 587.375,688.375 591.3061,683.3595 595.4767,677.2154 603.4754,663.1504 612.4846,644.0098 621.3242,622.3801 630.5773,596.9167 641.3183,564.0518 651.919,527.5 659.9775,496.2727 666.6683,465.6389 671.049,440.5353 672.2846,430.5361 673.0258,421.1886 673.2418,412.8539 672.8897,405.7373 672.0058,400.1786 670.5596,395.8223 669.0656,393.2145 667.2937,391.2694 665.25,389.9688 662.9406,389.2946 660.3714,389.2287 657.5486,389.753 654.0521,391.0235 650.5185,392.8241 642.2868,398.4832 632.6866,406.861 622.6468,417.1044 612.0279,429.3076 602.1102,441.8986 592.4159,455.4695 583.2119,469.6034 574.9547,483.6662 567.0128,498.7575 560.0253,513.6078 554.1946,527.813 548.9718,542.6417 544.9814,555.9256 541.9393,568.2871 538.6706,584.4859 536.655,598.0797 535.0265,613.8491 534.161,630.3917 534.0594,642.8093 534.6295,659.2757 536.2155,675.9174 537.7975,686.2989 540.617,699.832 544.0031,711.0321 547.4373,718.9745 552.083,726.6172 554.1611,729.0858 556.4075,731.1413 558.8108,732.7602 561.0444,733.7822 564.5176,734.4078 568.293,733.9531 572.2106,732.3869 576.2407,729.6993 580.3525,725.9749 584.7429,721.011 589.0502,715.1985 593.4439,708.3504 598.089,700.196 602.7567,691.12 612.2768,670.0684 622.6106,643.9563 633.2231,613.983 645.8011,574.8304 657.5076,534.5115 668.7326,491.8324 677.1622,455.1043 682.9652,424.1355 684.9017,410.8665 686.1537,399.3169 686.7297,389.3923 686.6484,380.6678 685.9545,373.8524 684.5613,368.0881 683.04,364.7032 680.9596,362.0461 678.5574,360.4347 675.6079,359.6342 672.28,359.713 668.603,360.6091 664.19,362.4647 659.3432,365.2047 653.8688,368.922 647.8582,373.585 634.9796,385.1749 620.7611,399.9456 605.756,417.345 592.0898,434.7226 579.5867,452.1619 567.8762,470.2085 557.6968,487.7165 549.4397,503.8165 541.8658,520.9326 535.1542,538.6278 529.2103,557.2264 526.6015,567.0428 523.8403,579.0897 520.2351,598.6462 517.0298,623.9373 514.7906,651.3123 513.8487,674.2981 513.502,704.9532 513.915,735.997 515.1102,761.6198 516.2704,775.5296 517.5741,786.5602 519.0067,795.6568 521.6281,807.9675 525.4531,820.7973 529.8821,831.1805 532.3566,835.5513 535.3859,840.093 538.1818,843.2918 541.3036,846.0155 544.0701,847.8036 546.8179,848.852 551.4582,849.315 556.098,848.4358 560.6631,846.1994 565.7376,842.2619 570.9078,836.8651 575.9211,830.3333 581.3881,821.8497 586.916,812.0061 592.8946,800.1074 598.719,787.36 604.9655,772.5138 611.3378,756.2613 624.875,718.5 639.236,674.3317 649.2677,641.4805 659.6268,606.0937 681.4846,527.1656 701.2218,450.7164 709.5794,416.1291 716.5126,385.6623 721.5871,361.5482 725.6035,340.3422 728.5505,322.0959 730.4511,306.645 731.308,294.1041 731.1829,283.383 730.1009,275.3772 729.1634,272.0261 727.9736,269.2398 726.2447,266.6603 723.9952,264.7269 721.5252,263.6899 718.3973,263.3439 714.9056,263.7658 710.7667,265.0139 706.2647,267.0159 701.4304,269.7011 689.6957,277.7238 675.0854,289.4392 658.2677,304.236 636.4563,324.5536 609.3817,350.6237 582.0004,377.9239 560.1414,400.6025 541.295,421.188 523.0068,442.5539 507.4916,462.2151 497.519,476.1073 477.9799,505.4534 472.8187,512.549 469.3828,516.541 466.4424,519.2708 463.7054,521.0027 461.3076,521.7598 458.5769,521.7351 455.6199,520.4524 451.9952,517.5741 448.8281,513.9688 445.4909,509.1157 442.4045,503.7785 434.318,486.7215 428.9067,473.6115 419.519,449.3014 409.4664,421.3416 389.7661,364.6798 376.5,329.125 381.2746,339.8876 391.5912,361.2667 427.4033,432.9173 437.8514,455.6772 446.722,476.8939 453.7617,497.2148 456.5337,507.6471 458.3274,515.8791 459.4857,523.9371 459.5715,529.0786 458.8716,533.4661 458.018,534.879 457.1562,535.3594 455.25,534.875 453.275,533.1365 450.4453,529.3613 447.8225,525.0262 440.743,510.382 432.5084,490.3217 419.2177,453.5263 397.1767,388.2624 385.7263,355.4582 376.8405,330.8073 372.5879,320.2969 379.7111,336.5637 390.6096,359.3235 417.643,412.3004 432.1592,441.5821 442.4237,463.6537 450.2814,482.8028 453.8899,492.6708 458.1786,506.2423 460.881,516.642 462.7714,525.8941 463.7812,534.625 463.7813,541.3553 462.7812,545.7488 461.831,547.165 460.9062,547.6094 458.6518,547.0135 456.7466,545.4771 454.0249,542.067 451.3867,537.916 444.3317,523.5782 436.6778,505.0608 430.2401,487.9055 421.4862,463.1172 396.63,388.4631 384.0853,351.9812 372.6913,320.8765 367.994,309.6824 375.568,328.0571 388.2095,354.4059 434.7512,445.0692 446.104,469.4148 455.4451,491.9406 459.8135,504.4845 463.674,517.5312 466.7064,530.391 468.417,540.785 469.1414,549.4395 468.6169,557.4999 468.0,560.0 467.1574,561.7269 466.0926,562.7315 464.75,563.125 462.8073,562.5887 460.2298,560.3302 457.3141,556.59 454.2489,551.5822 448.3472,539.6079 439.4469,518.0507 425.7694,479.8433 400.7037,403.2468 383.6263,352.1392 370.2614,315.0419 364.5068,300.8237 362.3054,296.6077 363.5064,300.6005 367.6374,311.1248 380.0993,338.2862 396.173,369.9588 428.0557,429.7655 438.8747,450.9943 450.598,475.6495 459.3765,496.4597 465.6674,514.1123 469.7272,528.1188 472.6132,540.1834 474.8426,554.0741 475.7212,566.704 475.6094,571.3146 475.1123,575.7781 474.3122,579.4022 473.1453,581.9687 471.7726,583.3967 470.1184,583.886 467.8396,583.1832 465.3109,581.0695 462.6451,577.9294 459.6718,573.168 452.429,558.7094 443.5051,536.7125 436.3161,516.8947 428.3707,493.4883 413.1603,446.3545 397.5854,396.8293 378.6594,339.5002 370.1001,315.2536 363.8824,298.7584 357.3798,283.581 355.6329,280.2279 355.0483,279.4698 354.7313,279.4468 354.8719,280.8712 355.9724,284.4591 360.8926,297.3584 367.4101,312.348 375.4882,329.7338 396.8086,370.9133 432.929,436.6011 446.7911,463.1662 452.9511,475.7386 460.815,493.108 465.2164,503.6374 469.839,515.9636 474.8433,530.8692 479.7789,549.8332 483.013,567.8592 484.3529,580.609 484.725,593.2789 484.3537,599.8377 483.625,604.75 482.375,609.3438 480.9182,612.3809 479.0445,614.3141 477.0241,614.8422 474.6804,614.1364 471.8165,611.75 468.6888,607.9056 465.6048,602.9 461.25,594.5 457.9253,587.2635 448.7527,564.2165 442.48,546.23 430.9106,510.9556 395.2417,394.125 383.7114,357.5692 374.4082,329.3113 363.5332,298.301 355.1015,276.2109 350.8618,266.3736 347.4344,259.2587 345.1036,255.417 344.4018,254.7498 343.9097,254.8664 343.9692,257.2027 345.3122,262.4576 351.2221,279.2077 359.0318,297.4453 369.8423,320.329 380.6715,341.4284 395.023,367.859 438.702,443.3477 456.3714,475.7486 464.1309,491.2304 472.2967,508.8909 477.0,520.25 483.0658,536.701 486.1654,546.4448 490.0612,560.7597 492.2153,569.8459 494.1662,580.0261 496.1146,591.6398 497.5275,603.0775 498.4131,612.8064 498.8655,623.0967 499.0276,632.821 498.6871,645.9149 497.7688,655.2053 496.625,662.375 494.898,669.1374 492.9339,673.3528 491.7991,674.8638 490.5269,675.9536 489.2648,676.5325 487.8594,676.5938 485.0,675.375 482.5478,673.1629 479.3699,668.8792 476.0735,663.4415 472.3643,656.0042 467.8011,645.7428 460.7057,626.9867 451.5496,599.5753 440.1517,562.0188 393.7325,397.8921 377.3893,343.1675 365.344,304.9431 358.7669,285.488 350.6769,262.8774 344.0644,245.4849 338.215,231.2958 333.2529,220.6354 328.4044,212.027 326.6354,209.5926 325.1996,208.156 324.111,207.7102 323.3095,208.4052 323.0,210.375 323.2258,213.5724 325.1995,222.7606 329.1907,235.8194 334.9256,251.7193 340.7576,266.0096 347.8532,281.8692 355.939,298.6722 364.6707,315.7418 380.398,344.2995 398.3918,374.544 412.9937,397.6714 455.105,462.5796 469.25,485.5694 482.8386,509.5689 489.751,523.0819 495.513,535.2938 501.477,549.512 506.661,563.3455 510.8746,576.5769 514.9961,591.2475 521.2844,618.8123 532.6112,678.4788 535.992,692.8504 540.1148,707.0425 544.3203,717.8105 546.7682,722.8843 549.0548,726.7005 551.8008,730.3047 554.5883,733.1672 557.4129,735.2326 560.1341,736.4996 563.7532,737.2283 567.543,736.8652 571.5328,735.331 575.4817,732.8153 579.5228,729.3039 583.7115,724.6729 588.179,718.7238 592.6698,711.7937 597.2074,703.8977 601.9924,694.6655 611.7766,673.2128 622.1474,647.0883 632.8597,617.1005 645.3803,577.9857 658.9329,531.451 669.169,492.2802 678.0646,453.6697 683.8191,423.3738 685.8518,409.5747 687.1953,397.5925 687.8607,387.4547 687.8821,379.0608 687.262,372.0498 685.9684,366.3902 684.8171,363.4784 683.207,360.8324 681.5455,359.0967 679.3632,357.7549 677.2105,357.1253 674.4778,357.0074 671.5373,357.4873 668.1179,358.5898 660.648,362.4148 651.7768,368.6735 641.6546,377.3053 630.4093,388.1297 618.5475,400.7447 606.2012,415.1038 593.4605,431.1557 581.3729,447.5683 571.5873,462.1161 562.4459,477.0572 553.5926,492.9698 546.125,508.0 537.8509,527.3846 530.7673,547.3616 524.0818,571.7646 519.4836,593.7842 515.778,619.4071 513.5155,644.1667 511.469,678.9044 509.8958,720.5104 508.6806,740.1389 507.8594,748.2344 506.2791,757.7536 504.52,763.8546 503.374,765.89 502.1478,767.2775 500.9121,767.8401 499.5156,767.7656 497.9391,767.0311 496.4218,765.864 492.7824,761.0638 489.5892,755.3573 485.0483,745.417 480.97,734.9865 475.0311,718.177 466.1811,689.6548 458.2045,661.6583 448.1874,623.7518 403.4547,447.2949 387.7966,387.4873 377.6839,350.9158 367.3516,315.0362 357.952,283.856 349.0799,255.9773 340.3207,230.2435 331.5362,206.4397 323.08,185.5292 315.344,168.4682 308.5408,155.7066 305.6111,151.1575 302.8484,147.6007 300.306,145.1827 298.24,144.2058 296.6606,144.6202 295.5782,146.3761 294.9449,150.2713 295.088,156.0051 295.9857,163.1904 297.5985,171.4698 299.9077,180.8477 302.9844,191.5469 310.7443,214.5024 319.7045,237.291 329.6571,259.569 341.587,283.5912 355.1055,308.4819 366.8503,328.5922 379.3239,348.5115 393.0832,369.135 408.8067,391.4713 421.0809,408.2123 434.4283,425.696 486.7249,491.7856 501.8197,511.9401 511.3832,525.6229 524.3781,546.4586 535.3281,566.8594 540.4696,577.7315 556.1396,614.4632 561.8094,626.0195 565.062,631.4503 568.0334,635.218 571.875,638.75 574.9731,640.4792 577.5509,641.1204 580.625,641.125 583.3692,640.4258 585.9538,639.1702 588.6263,637.3302 591.6323,634.6268 597.9103,627.1245 604.0089,617.5418 610.5628,604.9465 616.7972,590.9191 623.4842,573.7877 630.5231,553.3387 637.1672,531.3066 642.5607,510.2452 646.6289,491.0018 649.0314,474.7641 649.938,461.4808 649.8072,456.2851 649.2721,451.6887 648.3775,447.7232 647.1219,444.6237 645.0499,442.0742 643.49,441.2011 641.915,440.776 638.39,440.968 634.365,442.5267 629.9387,445.35 624.7461,449.7196 618.7703,455.7682 613.3362,462.0959 607.5172,469.7428 601.7214,478.1366 596.5092,486.5137 591.2311,495.8822 586.3567,505.4055 581.9175,515.0286 577.8172,524.8882 574.1307,534.9101 571.0481,544.4632 568.5401,553.4225 566.1974,563.4142 564.2114,573.5487 562.8849,582.6717 561.8666,592.7337 561.4625,608.8216 561.7824,617.0509 562.632,624.928 563.8469,631.8062 565.5802,638.0265 567.5547,643.2249 569.7469,647.0109 572.75,650.375 575.7453,652.1934 578.3563,652.7071 581.0327,652.437 583.7014,651.467 586.5702,649.748 589.606,647.2466 592.6075,644.1189 599.0556,635.4028 605.8648,623.694 612.8835,609.2839 619.553,593.2657 626.6796,573.9418 634.2154,550.8836 641.2102,526.7333 646.8456,504.1137 651.0197,483.7976 653.4833,466.8983 654.3854,453.1726 654.238,447.4859 653.7087,442.9363 652.7461,438.6956 651.4104,435.3626 650.2978,433.6549 648.9973,432.3654 647.5,431.5 646.0004,431.0696 642.3348,431.2003 637.784,432.92 632.1993,436.4849 626.0475,441.613 620.2271,447.4821 613.6009,455.2103 607.115,463.6303 600.8612,472.6495 594.6013,482.6264 588.3502,493.5892 583.361,503.2182 578.545,513.6067 573.657,525.257 569.8349,535.6634 566.5452,545.9583 563.8556,555.6673 561.4683,565.9872 559.4973,576.4178 558.1266,586.3243 557.0588,597.6829 556.5506,607.4257 556.5084,616.7875 557.06,625.8729 558.4264,637.0758 559.7949,643.7162 561.8917,650.7943 564.1066,656.1263 566.9575,660.7241 569.6804,663.5101 572.9193,665.2927 575.6871,665.908 578.3051,665.7509 581.4793,664.6653 584.4695,662.875 587.5876,660.2879 591.069,656.6173 594.5167,652.27 598.1135,647.0331 605.2901,634.5918 612.8261,618.985 620.4292,600.7421 628.131,579.8464 636.2775,555.0359 643.4652,530.313 650.4063,502.7904 655.3828,479.2275 658.4845,459.4328 659.744,444.0376 659.693,437.9075 659.1844,432.1509 658.2135,427.4105 656.9015,423.9972 655.6855,422.0957 654.3516,420.7778 652.6025,419.7324 650.6699,419.1709 648.5574,419.0793 646.2684,419.4437 641.0858,421.5325 635.2233,425.3621 628.6875,430.918 621.0286,438.62 613.6798,447.0999 606.4448,456.4803 599.0023,467.172 591.6598,478.7848 584.6911,490.8428 579.0726,501.6991 573.6839,513.3454 568.5384,525.7666 564.0762,538.0212 560.7174,548.7631 557.8196,559.7662 555.1993,571.6672 553.1296,583.3565 551.7226,593.8834 550.87,603.9282 550.3219,616.7774 550.4275,626.098 551.1322,637.3883 552.2192,646.3087 554.1502,656.7266 556.3047,664.3161 558.9758,670.969 562.0402,676.1365 565.8944,680.4401 567.5025,681.5704 569.5933,682.5372 572.5785,683.1348 575.9139,682.8305 579.1096,681.5947 582.5274,679.4125 585.9467,676.4328 589.6567,672.3669 593.4168,667.4706 597.371,661.5482 605.0243,647.8962 613.1779,630.5058 621.9904,608.9505 630.4894,585.6356 639.8227,556.6567 648.6518,525.8962 655.9446,496.6278 661.5781,469.9904 665.0974,447.8437 666.1132,438.4617 666.6082,430.4704 666.6143,424.1123 666.1622,418.6377 665.1064,413.3814 663.6465,409.4207 662.3619,407.2707 660.8611,405.6388 659.144,404.5301 656.9421,403.909 654.5784,403.864 651.6815,404.4044 648.9133,405.3884 645.6029,407.0368 638.4155,411.9585 630.0336,419.2405 621.634,427.8488 612.7255,438.2316 603.6643,449.9207 595.2193,461.9602 587.2593,474.4989 579.2966,488.2965 572.6898,501.0813 566.2599,515.0818 561.1237,527.6045 556.4584,540.7198 552.8539,552.3888 549.7421,564.8436 546.8068,578.9848 544.6582,592.959 543.2781,605.1701 542.5637,617.7951 542.2794,631.2636 542.7307,645.2562 543.6323,655.4 545.6038,668.5576 547.6487,677.6204 550.4185,686.7656 553.5918,694.1309 557.0897,700.122 560.7511,704.0663 563.0738,705.7021 565.0452,706.6346 568.2957,707.2593 571.8027,706.91 575.4975,705.5569 579.2195,703.1979 582.9419,699.9581 586.8776,695.6646 590.9596,690.3157 595.0706,684.0804 599.3979,676.6798 603.699,668.5182 612.7618,648.9378 622.4028,625.1015 631.9764,598.4912 642.8037,564.899 653.6155,527.2461 662.5912,492.5677 669.1503,462.7707 673.7203,436.3394 675.1075,425.274 675.9181,415.5001 676.1405,406.8705 675.7946,399.9218 674.8398,393.857 673.3822,389.3688 671.9622,386.8363 670.2106,384.8848 668.1826,383.573 665.5434,382.8229 662.9677,382.7926 659.7373,383.4378 656.0446,384.8492 652.1271,386.9081 643.4204,392.988 633.75,401.5 623.3036,412.1985 611.8995,425.3137 600.8643,439.2394 590.641,453.4205 581.2098,467.8517 572.3005,482.9624 563.951,498.6088 557.2402,512.8257 550.8694,528.3643 545.5349,543.6694 541.3564,557.6756 538.3143,570.0371 534.9771,586.6221 532.9847,600.1997 531.2857,616.7493 530.3992,632.5113 530.2668,648.7333 530.7719,665.121 532.238,681.7028 534.6327,698.3311 537.0637,709.9407 540.1909,721.0659 544.3993,731.5156 548.696,738.9762 551.375,742.375 553.6986,744.6371 556.209,746.3739 558.8935,747.5597 562.5838,748.2237 566.4921,747.7605 570.7861,746.0298 575.0376,743.1747 579.3499,739.1552 583.7594,733.9769 588.218,727.7635 592.9096,720.2672 597.6797,711.7332 602.5623,702.1115 612.4369,680.0125 623.935,650.4 635.2537,618.0014 648.8906,574.4743 662.1426,527.9674 674.1655,481.2421 683.2109,441.2026 686.3473,425.0052 688.881,409.8461 690.7172,396.3524 691.8287,384.7442 692.2389,374.9788 691.9773,366.9986 690.9311,359.8786 689.2917,354.6991 688.0463,352.3515 686.588,350.4865 684.9167,349.0926 683.0324,348.1586 680.9352,347.6732 678.625,347.625 675.8798,348.0379 672.9572,348.8933 666.2969,352.0156 659.0217,356.7366 650.8389,363.1568 641.2179,371.6925 629.9876,382.6593 618.2165,395.1324 607.141,407.7615 595.6437,421.7925 584.6522,436.0424 574.9427,449.5612 565.2595,464.1086 556.6639,478.1046 546.7801,496.0992 538.1629,514.1321 530.4462,533.0122 524.3565,550.9954 518.7581,570.7978 513.8288,593.4329 509.6891,618.7047 503.9284,662.9011 502.2568,673.3378 500.5394,681.269 498.2441,688.8438 495.8285,693.3596 494.3731,694.9636 493.0829,695.7779 491.25,696.125 489.4815,695.7454 486.5856,693.7089 483.3153,689.8849 479.4724,683.5003 475.3294,675.2768 471.2386,665.6896 466.2443,652.6558 456.2283,623.131 448.4146,597.5921 437.0549,557.7986 404.4493,439.1384 385.6745,372.6065 370.0083,320.5188 355.4511,275.9287 348.9376,257.4981 342.4956,240.4233 336.362,225.3026 330.842,212.867 326.0613,203.3599 322.0953,196.9521 320.3571,194.8543 318.9599,193.7394 317.9065,193.5772 317.1997,194.3373 316.801,196.7333 316.9667,200.0741 319.0142,210.9723 323.0076,224.6361 328.9517,241.377 336.2624,259.5757 343.4821,275.8216 352.5389,294.5116 362.8582,314.3725 379.6466,344.4061 399.4107,376.5456 416.9454,403.592 458.1667,464.466 472.7144,486.882 488.696,513.8666 494.2569,524.2402 500.311,536.418 506.0264,548.9974 511.3286,562.0838 515.9043,574.6148 519.7769,586.8235 525.4901,607.1886 538.3577,661.8075 541.9547,674.9572 544.685,683.1947 549.2248,694.1489 551.6788,698.5806 554.4712,702.8123 556.7431,705.6557 559.0678,707.8186 561.5457,709.4836 564.125,710.625 567.4645,711.2212 571.1245,710.824 574.6546,709.5226 578.489,707.1456 582.2944,703.8579 586.3404,699.4603 590.2975,694.3183 594.3996,688.1502 598.64,680.9641 603.0778,672.6346 612.133,653.2478 621.9078,629.2348 631.5339,602.6043 642.5998,568.502 652.8137,533.4883 662.9492,494.6715 670.3416,461.7964 675.1281,434.7622 676.6184,423.2832 677.492,413.3404 677.7708,404.8808 677.4756,397.3103 676.5858,391.0744 675.0947,386.1731 673.6152,383.4271 671.9841,381.5535 669.7189,380.0734 667.2908,379.3563 664.6077,379.2753 661.2987,379.9014 657.6979,381.2391 653.8219,383.2391 645.0971,389.2408 634.8021,398.1971 623.5817,409.5048 612.1803,422.5031 600.6165,437.0894 590.0517,451.654 579.6983,467.3102 571.1506,481.6586 562.3979,498.0928 555.7032,512.1846 549.0286,528.5456 543.4637,544.5002 538.8428,560.5231 535.3592,575.1654 532.4894,590.5878 530.2709,606.7971 528.8356,621.5018 528.0809,639.1962 528.2656,660.7894 528.7472,670.8141 530.1157,687.5139 532.2615,702.7483 535.5,718.5 538.6475,729.2383 542.6898,739.5417 545.0602,743.9167 547.8726,748.2236 550.2286,751.09 552.507,753.2094 555.2623,755.0813 557.8479,756.2433 561.7059,756.859 565.5572,756.3288 569.7077,754.6325 574.0726,751.6256 578.576,747.3506 583.123,741.9645 587.5784,735.7212 592.2967,728.1308 597.1438,719.3842 602.2639,709.1802 612.709,685.5391 623.9422,656.4849 635.3516,623.5941 649.2519,579.3883 662.4205,533.219 675.6244,482.3969 680.967,459.923 685.4837,439.3198 689.006,421.5832 691.796,405.6297 693.836,391.533 695.1174,379.3423 695.637,369.2639 695.4192,360.396 694.5266,353.611 692.8606,347.9635 690.4787,343.915 689.026,342.477 687.1875,341.3175 685.1871,340.6362 682.9434,340.3707 677.938,341.0819 671.922,343.4901 665.2614,347.3965 657.2267,353.2182 648.4015,360.5692 637.5609,370.6038 625.6252,382.5808 614.5458,394.5165 603.0881,407.6898 591.8803,421.3438 581.7192,434.5521 571.3043,449.0281 561.8788,463.045 550.831,481.1283 541.2161,498.7876 532.964,516.4011 525.4824,534.9741 518.446,555.7706 512.5805,578.023 507.6028,601.3585 500.1232,642.5482 496.61,656.6 494.3086,662.6094 491.6928,666.7775 490.2808,668.0765 488.9375,668.75 487.4718,668.9337 485.7278,668.5884 483.0308,666.8445 479.4536,662.9106 476.6382,658.7921 473.3976,652.9494 469.8795,645.7545 466.7724,638.5154 457.69,614.2878 449.802,590.5782 440.0894,559.0641 391.5451,389.8378 377.9385,344.3808 366.73,309.1682 352.7072,268.4649 346.5782,252.182 341.1825,238.9921 335.6176,226.7747 330.9648,218.1178 329.1305,215.3965 327.5448,213.6824 326.4276,213.2643 325.7923,213.9536 325.5667,215.8682 325.8387,218.9181 327.6969,227.5667 331.2003,239.2995 335.9194,252.406 341.9018,267.1397 348.922,283.0074 356.3555,298.6771 364.5514,314.8002 379.9147,342.8979 397.0077,372.0557 414.3454,399.9002 448.0541,452.5426 467.872,484.9522 474.2135,496.045 482.2544,511.0096 487.6731,521.7429 492.0,531.125 498.1012,545.6788 502.9375,558.5253 508.0856,574.3112 511.742,587.56 517.618,613.4073 521.3237,633.6979 530.1802,686.5037 533.842,703.2101 537.0181,714.5703 539.0254,720.8262 541.1608,726.278 544.4387,733.3837 546.8713,737.7052 549.5772,741.4666 552.5419,744.6497 555.3093,746.7851 558.3296,748.2496 562.3645,748.9946 566.1045,748.5758 570.0718,747.0533 574.3603,744.2788 578.8054,740.2644 583.1984,735.2205 587.6634,729.0985 592.4028,721.5986 597.2021,713.0388 602.3052,702.9837 612.6229,679.9242 623.5206,651.9058 634.9595,619.2517 648.6817,575.7611 662.2665,528.2908 673.9608,482.6952 683.45,440.873 686.6058,424.7821 689.0352,410.4678 690.9125,396.8152 692.0579,385.1137 692.5227,374.9214 692.3015,366.5996 691.3991,359.8074 689.7767,354.4551 688.6433,352.2214 687.0922,350.1362 685.572,348.7826 683.5825,347.694 681.6977,347.1687 679.2959,347.0162 674.1692,348.0228 667.6069,350.9198 660.4133,355.4039 652.0242,361.815 642.65,370.0322 631.3988,380.8633 620.0899,392.6868 608.3909,405.8849 596.9079,419.7322 585.6136,434.265 575.9474,447.5823 566.6837,461.3845 557.8143,475.7259 547.7619,493.6445 539.3108,510.8809 531.186,530.2397 524.5522,548.9433 518.3708,571.0511 513.1503,595.1488 509.4742,617.31 503.3938,661.9819 501.8238,671.3122 500.2202,678.6868 498.0053,685.8853 496.6435,688.8796 495.2727,691.061 493.7808,692.5208 492.4141,693.2556 490.6009,693.4164 488.8828,692.9308 486.0081,690.77 482.1797,686.1277 479.0938,681.0156 475.253,673.242 471.4045,664.3613 466.6927,652.1752 461.6084,638.0963 456.862,623.7796 447.4195,593.2454 441.1872,571.8277 403.6655,435.6528 384.9645,369.9134 370.489,322.0202 354.7638,274.1355 342.373,240.1045 336.9724,226.8793 331.5466,214.7635 326.6875,205.1719 322.6087,198.5959 321.0413,196.7085 319.6493,195.6116 318.6647,195.4771 317.9454,196.2962 317.6246,198.3485 317.8408,201.9088 320.0049,212.7373 323.8298,226.0269 329.2282,241.2543 336.3907,258.9752 344.9713,278.3137 353.327,295.731 362.7958,314.0169 379.9521,344.5739 398.7508,375.3775 422.5523,411.899 457.9608,464.6161 474.0503,489.6012 488.1434,513.7673 498.0794,532.8744 504.2598,546.4854 509.2252,558.5632 514.5847,573.3906 518.9927,587.015 525.434,610.9624 537.5164,663.6301 542.1147,680.0156 544.2116,686.4313 548.6648,697.1427 553.3993,705.3103 555.75,708.375 558.0543,710.7279 560.5577,712.5581 563.246,713.823 566.6374,714.5245 570.3112,714.2241 573.9082,712.9537 577.75,710.625 581.5873,707.3729 585.6999,702.9673 589.7843,697.7295 594.1194,691.2718 598.4624,683.9463 602.8765,675.7087 611.6473,657.0614 621.5162,632.7189 631.3559,605.478 642.9911,569.4949 653.5921,533.1803 663.8552,493.6345 671.2888,460.644 676.3227,432.1165 677.8731,420.4307 678.8002,410.3365 679.1035,401.8117 678.8026,394.7962 677.8612,388.4145 676.3125,383.4219 674.7166,380.5137 672.7758,378.4057 670.4963,377.0886 668.0178,376.5288 664.9305,376.6261 661.5418,377.443 657.8825,378.9334 653.9833,381.0511 644.7931,387.5922 634.1509,396.993 623.0003,408.4395 610.4062,422.8594 599.2369,436.9682 587.7391,452.941 578.0356,467.738 569.0077,483.0418 560.8844,498.3344 553.8943,513.1359 547.5183,528.838 541.7372,545.3322 537.6801,559.3767 534.2485,573.4598 530.6173,593.1573 528.7959,606.1046 527.1877,622.9495 526.3505,641.7875 526.3123,659.3022 526.8466,673.3272 528.2361,690.3565 530.5957,707.8203 533.9508,724.338 537.5267,736.6982 541.3184,746.2101 544.0721,751.4397 546.2605,754.8828 548.7517,757.9708 551.1798,760.3205 553.8327,762.2391 556.5291,763.4784 560.5945,764.1591 564.7786,763.618 568.9677,761.8384 573.2226,758.858 577.7939,754.5194 582.3358,749.1443 587.0596,742.4704 592.1199,734.228 597.2728,724.7745 602.3807,714.4164 613.1955,689.5904 623.6574,662.1754 636.4396,625.0447 650.5956,579.9385 665.6121,526.8756 678.1827,478.2134 688.1746,434.3112 691.741,416.4657 694.5131,400.707 696.4957,387.0514 697.7707,374.8747 698.3711,363.7861 698.2324,354.8606 697.3837,347.5653 695.8108,341.91 694.6929,339.6053 693.4385,337.8298 692.0167,336.4328 690.1523,335.2437 688.3861,334.5895 686.1392,334.2362 681.4711,334.693 675.7941,336.6921 669.5214,340.1155 662.054,345.2425 653.5597,352.0306 643.4548,361.0536 631.7959,372.3712 620.0168,384.6044 608.4933,397.3302 597.1559,410.6049 586.0934,424.317 575.138,438.7135 565.5672,452.0998 554.1406,469.4993 543.8124,486.9132 534.7833,504.1944 527.1565,520.9738 518.3545,544.2476 511.3123,567.1065 506.6809,585.5718 498.4528,623.0297 494.4808,637.9294 491.9459,644.2101 489.2919,648.255 487.9016,649.5368 486.3968,650.3263 484.8009,650.5926 483.154,650.3114 480.2781,648.6578 477.5146,645.9185 474.4946,641.7796 470.8138,635.6171 464.1903,621.3942 456.2398,601.1395 446.2049,571.5987 439.1048,549.0624 425.5655,503.8228 389.1119,378.8134 380.0778,349.428 368.4493,313.55 356.0714,278.0068 344.5273,248.7561 339.8045,238.2185 336.1343,231.2156 333.3079,227.4034 332.3964,226.8919 331.7365,227.4172 331.559,229.1396 331.7865,231.4549 333.4624,238.9919 336.3191,248.0677 340.6385,259.7629 346.444,274.0431 352.4638,287.854 366.4752,316.6605 379.861,341.9247 393.066,365.0319 411.8697,396.2301 449.0301,456.6049 462.6873,479.7479 471.7306,496.3202 478.6783,509.9462 485.7879,525.4357 491.55,539.0669 496.8493,553.5653 501.5196,568.4708 505.8353,585.4726 509.0515,600.5475 512.4141,619.6602 515.2042,639.9859 520.8334,691.5214 523.4942,711.6265 526.3995,728.9966 530.0377,745.4216 532.2183,753.1305 534.718,760.33 537.6044,766.9874 540.7445,773.0255 543.6012,777.212 547.0798,781.0263 550.4149,783.6435 553.9018,785.2801 558.0814,786.0025 562.0532,785.4922 566.5173,783.5583 571.0463,780.3431 575.6853,775.8743 580.4721,770.1137 585.4246,763.0175 590.4852,754.6442 595.6351,745.0216 601.0852,733.7767 606.7303,721.1152 612.5212,707.1465 624.5024,675.3709 637.1217,638.3427 644.947,613.7007 652.6887,588.0409 669.7036,527.9677 683.3058,475.3399 689.6722,448.6266 694.9644,424.8623 698.9758,405.2124 702.1401,387.7957 704.4514,372.6741 706.0282,359.0318 706.7991,347.2355 706.7615,337.657 705.9414,329.8608 704.3213,323.8814 702.2398,320.0918 700.8548,318.5454 699.3063,317.3651 695.7386,316.0537 691.2037,316.1157 686.021,317.5977 680.3126,320.3322 673.7316,324.3964 666.1423,329.919 656.9143,337.4914 646.3503,346.9671 634.8689,357.9623 623.1054,369.8706 610.7563,382.9856 598.7036,396.3654 587.4437,409.4996 576.2047,423.2413 562.3518,441.2042 549.6559,459.1892 538.1258,477.1477 528.363,494.1948 518.1679,514.572 509.8611,534.0093 502.9232,553.1535 492.5498,585.1052 487.9168,597.3182 485.1763,602.5572 482.4575,606.1373 479.8329,608.0023 478.4479,608.3499 476.9749,608.3042 474.0524,607.2346 471.3309,605.0278 467.587,600.5285 464.375,595.5088 460.7059,588.5588 456.4665,579.4433 447.4803,557.1694 440.2456,536.7581 428.4688,500.8607 392.157,383.3904 373.251,325.2545 363.9191,299.0248 355.465,277.1878 349.2921,263.6864 347.0753,259.9321 346.4437,259.2375 345.9637,259.2121 346.0346,261.8135 347.4168,266.9838 354.0391,284.9695 361.084,301.392 370.7741,321.7486 379.9323,339.8056 391.3686,360.9288 406.9745,388.8668 439.8144,446.0901 454.9933,474.1904 462.6918,489.5682 469.9099,505.5893 475.5199,519.0633 479.977,531.426 485.9757,550.3311 491.0378,571.6582 494.4988,593.7706 496.1622,614.6078 496.3209,625.0573 496.0499,633.0507 495.115,643.9094 493.6929,651.5827 492.2526,656.4443 489.9845,660.4995 487.6053,662.4778 486.6144,662.7295 485.1911,662.5702 482.4372,661.1756 480.0468,658.9697 476.8672,654.8104 473.8828,649.9336 470.2536,642.7576 465.7878,632.8579 459.0247,615.1275 449.8703,588.1705 439.3088,554.0565 429.4516,520.6242 392.3032,391.3202 377.788,343.4472 366.14,306.9581 353.0637,269.4502 347.1317,253.8502 341.746,240.7641 337.125,230.75 332.483,222.3126 329.5107,218.5099 328.4708,218.0435 327.8384,218.6691 327.6262,220.536 327.8823,223.3032 329.7926,231.8486 333.4646,243.6748 338.338,257.0267 343.8421,270.4891 350.4027,285.2275 357.9027,300.9709 366.0435,317.0904 380.6719,343.8906 400.1635,377.1999 412.3433,396.9467 451.3905,458.6473 466.7195,484.3184 479.2187,507.0663 486.726,522.3617 492.4737,535.1507 498.2419,549.6851 502.944,563.1336 507.8822,580.0121 511.4329,594.1874 515.2593,612.3194 517.7243,626.1376 527.5919,691.5339 531.2305,709.6211 535.0345,724.8117 537.125,731.0938 540.7522,740.2649 542.7759,744.5338 545.2086,748.7112 548.0334,752.621 551.0852,755.8385 554.123,758.0938 557.3962,759.5994 561.1752,760.1567 565.3168,759.495 569.6019,757.6229 573.6797,754.8032 578.1319,750.6572 582.6114,745.438 587.0544,739.2486 591.7451,731.7294 596.7506,722.7144 601.676,712.9059 612.072,689.3794 623.4054,660.192 634.5517,628.082 649.2762,581.5376 662.1564,536.9634 675.9578,484.1507 681.5785,460.6824 686.2866,439.4008 689.9322,421.1545 692.779,404.9551 694.9198,390.2673 696.2737,377.5752 696.8447,367.169 696.6839,358.1829 695.8098,350.9644 694.1024,345.0091 692.9504,342.6958 691.6007,340.8193 690.0539,339.3753 688.3107,338.3591 686.3602,337.7623 684.2001,337.5521 679.1034,338.3149 673.0276,340.7512 666.3434,344.6545 658.5352,350.2813 649.8814,357.4056 639.5109,366.8652 628.6631,377.6298 616.7228,390.3323 605.1012,403.4892 593.7221,417.1649 582.776,431.1156 572.4483,445.1092 562.8737,458.9699 552.1305,476.0681 542.1403,493.959 533.0959,512.2548 525.6685,529.6907 518.2535,550.9197 511.9389,573.2567 506.1603,598.9794 499.6018,632.097 496.2312,645.7922 493.5841,652.9979 490.8669,657.5984 489.2324,659.1954 487.75,660.0 486.0651,660.2525 484.6337,659.9646 481.875,658.375 479.1271,655.5932 475.8274,650.9302 472.3265,644.9614 468.8629,637.9052 465.0505,629.1249 457.1319,608.3281 448.37,582.319 438.1843,549.383 427.6176,513.7331 390.0934,383.3105 378.4626,345.1563 367.4293,310.769 355.0761,275.2605 347.9845,256.5707 342.0231,241.9518 337.1685,231.2806 333.2767,224.1709 330.2043,220.1698 329.3069,219.7181 328.6449,220.2671 328.448,222.3706 328.7756,225.3901 330.6909,233.753 334.3971,245.4472 339.6635,259.6952 345.0177,272.8606 350.9226,286.0941 358.1813,301.2278 366.928,318.4704 380.2837,343.2313 397.3492,372.3723 414.1745,399.9384 451.5024,459.1397 462.625,477.625 472.2696,494.6714 479.5701,508.3891 486.2526,522.1405 491.988,535.0963 497.9345,550.3876 503.2569,565.9572 507.6726,581.6006 511.4359,597.0108 516.6864,625.0121 526.8723,694.4808 530.2197,712.3491 534.1505,727.8162 536.3737,734.8784 539.3106,742.6393 541.6423,747.7133 544.2242,752.304 546.9764,756.3244 549.8777,759.5361 553.0745,762.0508 556.5551,763.7732 560.4524,764.454 564.736,763.8696 568.8018,762.1347 573.0912,759.205 577.4888,755.1491 582.178,749.6888 586.74,743.2734 591.5452,735.5135 596.6875,726.1941 601.7373,716.09 612.2406,692.2518 623.5439,662.9109 635.2295,629.0795 649.9511,582.3445 663.7635,534.2251 677.0616,483.4196 682.4713,460.8415 687.0702,440.0777 691.0295,420.5152 694.14,403.2928 696.4024,388.4059 697.8393,375.8027 698.5,365.125 698.4065,355.5099 697.5398,347.7344 695.9,341.7483 694.8607,339.536 693.4869,337.501 692.0838,336.0897 690.3007,334.9423 688.3204,334.2457 686.3724,333.9672 681.4077,334.5103 675.79,336.559 669.187,340.198 661.637,345.4294 653.1912,352.1892 643.0028,361.2779 631.7332,372.2304 620.2301,384.1886 608.487,397.1703 596.6782,410.9779 585.7761,424.4454 575.3872,438.0999 565.551,451.8851 553.7053,469.918 543.2516,487.665 534.4274,504.7238 526.1289,523.1742 518.4242,543.5064 511.4525,566.1571 504.4683,594.3306 498.2572,623.1239 494.4518,636.8466 491.6617,643.6765 489.25,647.5 487.6111,649.0046 486.244,649.687 484.7809,649.9214 483.1739,649.7024 480.5548,648.3096 477.25,645.125 474.5356,641.4704 471.4394,636.1894 467.5744,628.6052 463.8326,620.3121 455.2964,598.3661 447.5552,575.5799 438.066,545.7073 391.7801,387.8214 379.7518,348.319 369.9077,317.8198 356.7632,279.8711 346.2171,252.767 340.8205,240.6142 336.4111,232.0109 333.463,227.8521 332.427,227.3236 331.8673,227.8914 331.7386,229.4456 332.0312,231.9375 333.8413,239.5391 337.126,250.0061 341.3802,261.6134 346.5512,274.3457 352.6114,288.1496 358.8097,301.3743 365.8442,315.4561 379.9533,341.8714 395.5513,369.3317 419.4897,408.7863 445.3704,450.5535 463.7383,481.6866 471.5967,496.251 479.8569,512.553 485.0287,523.7403 490.2546,536.3611 496.2321,552.5559 501.7767,570.319 504.9615,582.5403 509.5902,603.9951 513.5646,629.1666 516.2596,651.4132 521.1698,697.3139 523.3115,714.0856 526.3787,731.9674 529.8703,747.279 531.9213,754.376 535.0839,763.5147 537.5471,769.1822 540.7109,775.1117 543.4366,779.1048 546.7698,782.7341 550.2424,785.4971 553.5632,787.0748 557.5923,787.7283 562.0159,787.1262 566.4133,785.2467 570.898,782.0937 575.3912,777.7684 580.4578,771.6263 585.5793,764.2303 590.6526,755.8229 595.8074,746.2401 601.075,735.4055 606.6031,723.0026 612.2734,709.3001 623.6963,678.9751 636.5693,641.1473 652.3946,590.167 669.3103,530.4979 683.6925,475.2914 689.6994,450.2686 694.9825,426.6781 699.1263,406.5123 702.4763,388.2766 704.9937,372.1444 706.6182,358.5683 707.4591,346.4239 707.4537,336.6274 706.6497,328.6379 705.0427,322.46 702.9891,318.564 700.1825,315.8863 698.5768,315.0648 696.5281,314.5026 692.2461,314.5253 687.3833,315.8276 681.5501,318.5153 674.8507,322.5825 667.1148,328.1494 658.1062,335.4726 648.1623,344.3133 636.633,355.2693 624.828,367.1171 612.7245,379.8732 600.1799,393.7034 588.5433,407.104 577.6639,420.2329 563.0649,439.0174 549.6876,457.6675 538.4195,474.8695 528.8178,491.3868 518.6299,511.4006 509.5578,532.0626 501.5638,553.7204 491.9247,582.8307 487.1676,595.0092 484.6248,599.8267 482.0784,603.0875 479.2916,605.029 477.9476,605.3954 476.5625,605.375 473.5371,604.2395 470.6019,601.9259 467.43,598.0466 463.5836,592.2195 460.3247,586.1373 456.2679,577.443 447.9471,557.087 440.4694,536.3156 432.4381,511.9806 421.6839,478.3291 389.8613,375.5847 374.2822,328.2697 365.1741,302.4914 356.6405,280.4463 350.2928,266.1387 348.17,262.452 347.3948,261.5397 346.9652,261.513 347.1428,264.0177 348.4259,268.8114 353.6497,283.1417 361.7229,302.2539 371.2249,322.3805 381.9664,343.5966 392.0535,362.3697 408.2757,391.2541 430.3731,429.6871 451.6394,468.3112 460.1528,485.2371 466.8499,499.5958 473.7594,515.9611 479.0521,530.0741 482.803,541.5381 485.6135,551.2608 490.4293,572.795 492.0601,582.3473 493.5596,593.576 494.8015,612.2557 494.8823,619.1484 494.4159,631.3047 493.4683,639.8316 492.3335,645.8085 490.6567,651.0375 488.8302,654.1097 487.629,655.248 486.3404,655.9184 483.6541,655.9835 480.99,654.496 477.892,651.3282 474.9275,647.1286 471.6676,641.3742 468.4462,634.9026 465.1648,627.3592 455.7848,602.9199 447.9983,579.7048 438.1204,548.0185 390.1552,383.3093 378.2989,344.2761 367.7048,311.4257 354.8471,274.2949 349.5088,260.2279 344.4004,247.8418 338.9732,235.8149 334.6755,227.6166 331.6384,223.4599 330.5752,222.9377 330.0054,223.4652 329.821,224.912 330.0743,227.6358 331.8524,235.6027 334.8534,245.5361 339.1246,257.3015 344.8611,271.3889 351.6304,286.7386 358.153,300.6003 365.59,315.4159 380.5059,343.2072 395.4511,369.2661 412.6429,397.4744 444.7427,448.8287 465.473,483.4305 473.231,497.635 480.4576,511.7867 486.0309,523.6346 491.5943,536.6002 497.5859,552.2516 503.0706,569.1083 506.5297,581.7039 510.9573,601.2047 515.4213,627.0778 525.1804,700.4636 528.4064,718.2473 532.2501,734.5318 534.5362,742.1869 537.1258,749.3975 539.8853,755.4697 543.3005,761.7188 545.8524,765.3409 548.9786,768.6303 552.1368,771.0447 555.1902,772.5145 559.319,773.2586 563.5187,772.7463 567.6574,771.0463 571.8917,768.1944 576.4528,763.9938 581.156,758.5171 586.053,751.659 590.8852,743.8336 595.9966,734.4829 601.1898,723.9251 607.0193,711.0735 612.7719,697.4338 623.5867,669.1986 635.6272,634.11 651.1475,584.4696 666.873,529.1371 680.0716,478.1903 690.977,430.5466 694.7752,411.8418 697.7583,395.3161 699.9202,380.9909 701.3146,368.4368 701.9881,357.1058 701.8724,347.5693 700.9622,339.8375 699.3476,334.15 697.1285,330.2788 695.6172,328.7608 694.0816,327.7265 692.399,327.0118 690.2582,326.568 685.4382,326.8771 679.963,328.6724 673.908,331.8221 666.516,336.736 658.5465,342.8851 649.0329,351.0904 638.3093,361.1972 625.2727,374.3228 612.7293,387.6671 601.3638,400.4261 590.2509,413.584 579.6316,426.839 569.3937,440.3262 556.9378,458.0513 545.266,476.4176 535.6049,493.4058 527.2229,510.2255 518.4239,530.5602 510.8049,551.6986 504.9944,570.9547 494.8413,609.1463 490.8663,620.9465 488.625,625.75 486.0228,629.1937 484.6533,630.2826 483.1678,630.9956 481.8068,631.2384 480.3799,631.0831 477.6653,629.7946 474.8887,627.322 471.6095,623.1074 468.0577,617.4922 464.8492,611.2322 460.8421,602.2947 453.1217,582.9377 443.5333,555.4603 434.2766,526.6275 424.1251,493.6785 389.7608,378.6238 380.2133,348.1753 370.3281,318.0469 359.5231,287.2141 350.134,263.2567 345.756,253.3549 342.2413,246.3662 339.4702,242.1361 338.7276,241.5337 338.1751,241.7574 338.2423,244.7902 339.4854,250.2282 345.014,266.3711 354.1677,288.7512 364.3573,310.457 378.5475,338.2141 390.1375,359.3444 410.4758,394.4405 446.3195,454.4536 455.2151,470.1096 464.1758,486.7834 472.8709,504.0716 480.1506,520.4978 486.3106,536.1931 492.3093,553.9689 495.7978,565.9981 499.0644,579.7048 501.438,591.7988 504.0629,608.1642 506.7144,634.2909 507.731,651.7067 508.1833,668.1006 508.2968,686.568 507.8793,701.18 507.0334,715.8863 505.3753,729.3441 503.9939,736.0818 502.8549,739.6594 501.6361,742.3057 500.3823,744.0675 499.2069,744.9732 497.8447,745.3414 496.392,745.0487 494.5373,743.9719 492.9932,742.5375 488.9781,737.0194 485.7426,731.0722 481.2592,721.2351 477.6831,712.2817 472.8686,698.7059 463.1462,668.5138 454.2537,638.0718 446.0803,608.1724 408.6958,463.6796 386.6563,381.4389 368.2685,317.4239 359.19,287.8512 350.6107,261.2894 342.4181,237.4048 334.8311,216.8623 327.2454,198.1117 320.064,182.1653 313.8149,170.2124 310.9458,165.5938 308.5283,162.3361 306.316,160.1103 304.5036,159.1453 303.1868,159.3283 302.1778,160.7185 301.6181,163.6094 301.6628,168.2832 302.3889,174.4251 303.6509,181.2412 307.6142,196.7904 313.545,214.8973 321.4718,235.646 331.0439,257.9868 340.5752,278.123 351.648,299.4773 362.7661,319.4081 375.1126,340.2499 386.2902,358.0668 398.8344,376.9499 412.1499,396.0694 428.1634,418.278 482.6399,491.1089 497.575,512.8029 507.4845,528.1631 514.0072,539.4682 520.4179,551.3807 524.7293,560.1481 529.6301,571.1372 535.6332,585.9165 552.0084,631.1963 557.75,644.25 561.035,650.0443 564.8001,654.9986 568.0231,657.9954 571.7032,659.9862 574.4392,660.67 577.4074,660.6157 580.6007,659.7065 583.5953,658.1478 586.6469,655.9014 589.8693,652.8516 593.2307,648.9906 596.4226,644.7066 603.2152,633.7177 610.1491,620.1532 618.5417,600.9386 625.947,581.7475 634.0341,557.6733 640.9761,534.4597 648.3588,505.997 653.2461,483.6603 656.3716,464.0083 657.7026,448.1302 657.6949,441.9952 657.2505,436.4384 656.353,431.8418 654.9931,428.2329 653.8251,426.3894 652.434,424.9767 650.9611,424.0405 648.9972,423.4073 647.2052,423.2771 644.8792,423.5835 640.1211,425.4189 634.3179,429.1424 628.109,434.3805 621.2264,441.2996 614.1723,449.4497 606.875,458.875 599.9826,468.6879 593.069,479.5506 586.6909,490.5764 580.9016,501.7449 575.129,514.1403 570.5781,525.1719 566.3471,536.8502 563.1624,546.8621 560.1689,557.7915 557.6408,568.4637 555.7554,578.6109 554.1521,590.0483 553.2614,599.3988 552.5998,612.9419 552.63,622.0034 553.2826,633.164 554.1862,641.1107 556.0484,651.4444 557.8476,657.9682 560.808,665.3961 563.4482,669.9768 567.2468,674.1662 569.133,675.484 570.874,676.257 573.8543,676.7799 576.9003,676.4353 580.1241,675.2052 583.3094,673.2272 586.6604,670.3845 589.9051,666.889 593.544,662.2304 597.3977,656.5408 605.2701,642.5936 613.6325,625.0644 620.9863,607.1825 629.3086,584.3919 638.0954,557.3031 647.3167,525.3778 653.8671,499.1853 659.474,472.739 662.6861,452.6649 663.5996,443.9023 664.0499,436.0313 664.0293,429.1273 663.5688,423.5472 662.6397,418.8199 661.212,414.9491 660.0052,412.945 658.5969,411.3992 656.9896,410.3094 654.8661,409.6111 652.4281,409.5164 649.985,409.9205 647.3874,410.7726 644.2843,412.2423 637.9165,416.3991 630.5417,422.6019 622.6962,430.4827 613.9995,440.4045 605.8388,450.8051 597.7559,462.1936 590.272,473.7646 583.0423,486.0982 576.4027,498.6173 570.3974,511.2978 564.6707,524.78 560.3555,536.6581 556.0257,550.5094 553.3042,560.6121 550.6364,572.6602 548.4316,585.1275 546.8548,597.1164 545.8563,608.5834 545.2835,623.4006 545.3617,633.8805 546.3253,647.431 547.5978,657.4454 549.6698,668.2119 552.1274,676.849 555.2195,684.7284 558.6744,690.6577 562.3937,694.8642 564.305,696.2245 566.6759,697.3327 570.1747,698.0175 573.3693,697.6804 576.8692,696.3721 580.5981,694.0352 584.2876,690.8083 588.1244,686.5687 591.9605,681.5418 595.9791,675.4975 604.1602,660.8604 612.6151,642.7673 622.212,619.0771 631.5545,593.2878 641.6445,561.9303 651.4024,528.0293 660.1369,493.8478 666.4763,464.7765 670.4984,440.506 671.6974,430.2527 672.3664,421.0749 672.4701,413.3622 672.0293,406.9074 671.0073,401.1294 669.591,396.9755 668.0868,394.3812 666.2683,392.5036 664.3853,391.431 661.8761,390.8521 659.0753,390.9332 656.0256,391.6485 652.7387,392.9631 649.2263,394.8419 641.233,400.442 632.414,408.2515 621.8788,419.1442 611.1582,431.4961 601.2486,444.1303 592.099,457.0505 583.2784,470.8119 574.6528,485.6431 567.3733,499.4838 561.0318,513.0648 554.8597,528.0632 549.8741,542.1514 545.9039,555.6051 542.0602,571.3237 539.4365,584.6741 537.2022,599.2453 536.0118,611.4492 535.0654,627.8096 534.972,642.528 535.4491,655.5641 536.7293,670.6822 538.7475,684.4293 541.1185,695.8141 544.3598,707.0758 548.1372,716.1453 551.8494,722.5979 554.046,725.253 556.6789,727.7257 559.1036,729.4456 561.482,730.533 565.1324,731.1845 568.7767,730.7488 572.7205,729.1591 576.7332,726.4985 580.677,722.9398 584.9541,718.0717 589.481,711.9444 593.8799,705.0942 598.2569,697.4076 602.9603,688.1987 613.2205,665.5607 622.4654,642.1802 633.4707,611.0957 645.8165,572.6569 657.5431,532.0477 668.1401,491.1483 676.6871,453.4328 682.1082,424.1074 683.7842,412.1919 684.9561,400.6851 685.491,390.7648 685.3962,382.6452 684.6775,375.8931 683.3026,370.5566 681.6803,367.2192 679.807,364.8601 677.618,363.2545 674.7846,362.3136 671.5656,362.25 667.9683,363.0232 664.0748,364.5525 659.5148,366.979 654.3984,370.3221 649.0463,374.3657 636.6461,385.3021 623.3288,398.8545 609.6319,414.4651 595.5314,432.0971 582.6679,449.6525 572.4084,465.1711 562.2109,482.3606 552.887,499.8807 544.9252,516.9988 538.1526,533.997 532.3444,551.4607 527.3939,570.2172 523.5061,588.2141 520.5512,606.9312 518.2679,627.7862 516.7653,649.6739 516.1043,672.5553 516.394,703.0499 517.516,725.7059 518.3224,736.716 519.9198,750.8209 522.0646,764.903 525.3561,780.3624 528.7509,791.7491 530.9745,797.5386 534.0,804.125 538.2192,811.112 541.5181,815.1743 543.8001,817.3378 546.648,819.2582 549.7752,820.5994 553.7828,821.2952 558.2892,820.5851 562.9232,818.4644 567.9518,814.814 572.7328,810.0531 577.6804,803.892 582.7367,796.3884 587.7817,787.7849 593.3457,777.1783 598.9911,765.3307 604.8238,752.0301 610.6873,737.6431 623.1639,704.0026 636.4861,664.2416 645.1048,636.6346 655.2846,602.5913 674.251,535.5114 691.5422,469.2499 698.9342,438.922 705.301,411.2077 710.2274,388.0867 714.1226,367.8985 717.0918,350.1557 719.1827,334.4807 720.3279,321.3021 720.5577,310.5314 719.8747,301.8528 718.2414,295.185 716.2984,291.2679 713.8183,288.5591 710.8234,286.9936 707.3359,286.5068 703.3782,287.0337 698.5505,288.6887 692.8867,291.5261 686.4079,295.5215 679.2031,300.6406 670.9797,307.1185 652.1954,323.5858 628.0812,346.5725 602.8301,372.2444 581.8089,394.7828 563.0819,416.0268 547.232,435.2437 532.6835,454.376 519.1223,473.8612 508.3342,491.3319 499.685,506.9824 483.8754,538.2993 478.856,547.3029 476.0697,551.2601 473.4148,554.1099 470.7828,555.8871 468.1816,556.5586 465.0214,555.8895 461.8227,553.9403 458.992,551.1009 455.458,546.369 452.4298,541.5632 449.0976,535.2177 440.1232,515.184 431.888,493.8667 425.8535,476.9679 391.5933,374.4489 377.5556,334.1417 368.2899,309.6538 365.5045,303.0951 363.9667,300.4376 365.9302,306.2268 369.1879,314.171 380.186,338.1616 393.6809,365.1248 425.6119,425.5176 438.7362,451.4053 451.6097,479.0084 459.0944,497.5478 463.9758,511.3936 468.5896,527.3022 471.0233,538.0567 472.9609,550.1701 473.7233,562.5656 473.1366,570.7197 472.3527,573.7622 471.1152,576.166 469.6898,577.412 468.25,577.625 466.0936,576.7451 463.2298,574.0767 460.5518,570.6833 457.5025,565.6672 451.1675,552.8881 442.1217,530.5976 425.8978,484.3487 398.4188,398.7516 379.8792,342.4741 365.6166,303.1352 359.5117,288.7043 357.8657,285.4295 357.0333,284.5253 357.1528,285.8009 358.2649,289.351 362.917,301.433 368.8523,314.9338 377.105,332.5732 396.5229,370.3299 431.7545,435.2319 445.1919,461.045 451.1555,473.2269 457.5935,487.4492 462.2881,498.563 466.2974,509.109 472.063,525.79 476.3796,541.4294 479.3136,555.3232 481.3386,569.6582 481.968,584.238 481.5908,591.3533 481.0332,595.8398 479.8954,599.9782 478.5093,602.8287 476.645,604.6629 474.6246,605.0532 472.0347,603.9853 469.5211,601.6913 466.117,597.1894 462.7773,591.6837 459.2464,584.676 455.0222,575.2819 446.5597,553.6898 439.1676,532.9426 426.9531,495.2539 393.0615,385.8933 373.6263,326.4543 365.0406,302.1755 356.6621,280.417 350.7573,267.2891 348.4919,263.3385 347.787,262.499 347.3704,262.4167 347.5,265.0 348.6762,269.4191 354.2725,284.6745 361.4757,301.6858 371.1713,322.1176 381.0312,341.5815 392.5758,363.036 406.1545,387.5364 438.1465,443.7229 451.323,468.0541 459.1862,483.5609 465.339,496.6119 472.4644,513.116 477.6349,526.669 484.389,547.9365 489.4051,568.7053 490.766,576.2853 492.7742,590.5681 494.1806,608.4318 494.3728,617.2552 494.1055,626.9795 493.201,635.9013 492.1188,642.1309 490.5,647.5625 488.75,650.875 486.3754,653.1855 485.0175,653.6104 483.6904,653.5499 481.1241,652.2636 477.7582,648.9618 474.9151,645.1361 471.5848,639.4936 468.3023,633.0486 464.9859,625.5669 456.137,602.625 448.0551,578.765 439.0643,550.3562 389.4231,380.5618 378.4923,344.6349 368.7536,314.4341 355.7909,277.1348 350.0386,261.936 344.7404,248.9648 339.5618,237.4498 335.418,229.5408 332.4628,225.453 331.3621,224.8633 330.7793,225.4192 330.6241,226.9955 330.8941,229.5453 332.6993,237.3768 335.7416,247.1727 339.9877,258.7982 345.6418,272.7556 352.3109,288.0044 358.1595,300.4913 365.0523,314.2562 380.1297,342.3592 394.8354,368.0882 417.3817,405.202 444.584,448.8624 464.2594,481.8558 472.3317,496.6635 479.6824,511.0446 485.1991,522.7907 490.907,536.1715 496.6986,551.4289 502.2718,568.7033 505.5787,580.9147 510.1274,600.9988 513.8889,623.0694 516.6073,642.5129 523.5724,700.1867 526.6668,719.5193 530.748,737.7083 533.4857,747.17 535.8187,753.8344 539.0979,761.4945 541.9165,766.7171 545.105,771.2667 548.5176,774.8691 552.2815,777.4553 556.0242,778.914 559.8424,779.245 564.0627,778.2799 568.6707,775.9371 572.8777,772.7118 577.4933,767.9731 582.2334,761.9673 587.0432,754.8322 592.0112,746.4378 597.0366,736.9353 602.3645,725.8588 613.1285,700.6402 625.2399,668.5381 637.2562,633.2278 653.1563,581.5935 668.5471,527.2721 681.988,475.2525 692.6866,428.6968 696.6369,409.1917 699.7214,392.0481 702.0026,377.013 703.5379,363.6564 704.2724,352.3967 704.2213,342.9121 703.3779,335.4263 701.7302,329.521 699.5421,325.5759 698.2172,324.1209 696.4833,322.8429 693.0554,321.661 688.7217,321.7426 683.4289,323.2537 677.5379,326.0603 670.8282,330.2339 662.9575,336.0506 653.3387,344.0917 642.7526,353.7401 631.7804,364.4412 620.038,376.5709 607.6113,390.071 595.5303,403.8346 584.1427,417.4673 573.8462,430.4871 559.9899,449.2917 547.5215,467.6955 537.2789,484.6245 527.8389,502.2444 518.4273,522.3902 511.0325,541.3423 503.7696,563.1712 492.9938,599.8413 489.7376,608.6649 486.8812,614.5478 484.3814,617.8894 481.522,619.7664 480.1008,620.0727 478.6429,619.9637 475.9153,618.7738 473.0648,616.3009 469.9275,612.2739 465.9755,606.1085 462.4755,599.4267 458.4521,590.6678 450.7436,571.4886 442.6232,548.4611 434.8673,524.6398 390.8853,380.815 371.283,320.5266 361.6226,293.0544 352.1369,268.7266 345.723,254.8051 343.1198,250.7721 342.3704,250.113 341.9118,250.1899 341.8748,252.4811 343.1335,257.8651 348.5495,273.2154 357.7259,295.1658 368.236,317.3764 380.1678,340.7008 391.5199,361.4995 409.2351,392.5273 443.0554,450.4866 456.9182,475.5438 465.4718,492.2783 472.25,506.75 479.9327,524.9141 485.4073,539.9346 488.9043,551.0665 491.8482,561.7719 494.9024,574.7032 497.1412,586.0972 499.0191,598.3935 500.2404,608.7981 501.4057,623.4998 501.94,635.7273 502.0213,646.6691 501.4802,661.6888 500.4583,671.9028 498.8906,681.2344 496.97,687.475 494.8157,691.4811 493.4354,692.8802 492.165,693.5728 490.7745,693.7355 489.4709,693.4785 486.634,691.681 482.973,687.5426 479.7128,682.3079 475.7525,674.6168 471.9634,666.1131 467.5567,654.9907 463.4652,643.8793 459.2349,631.1838 448.5688,596.9191 440.4713,569.1873 405.8271,443.7465 383.9092,366.2198 369.0704,317.5548 354.221,272.4368 342.0915,239.3224 336.2358,225.0616 330.9815,213.4218 326.1438,204.0173 322.2578,197.9525 320.7761,196.2829 319.4231,195.3491 318.4434,195.4097 317.8355,196.4223 317.5943,198.6906 317.8985,202.5834 320.1922,213.7653 323.9503,226.491 329.3977,241.7883 336.2311,258.802 344.1675,276.8169 352.4313,293.9568 361.9081,312.2245 380.1216,344.7725 399.21,376.0792 418.7284,406.2805 449.8112,452.3407 473.3989,488.5433 489.1964,515.6546 494.4338,525.5068 499.8867,536.627 504.9899,547.8009 509.1245,557.9188 514.6266,573.2122 518.8975,586.5292 525.029,608.6611 537.6274,663.4989 541.4754,677.6542 544.0446,685.5078 548.604,696.7945 552.9653,704.3754 555.4339,707.6127 557.9871,710.2182 560.73,712.2446 563.6625,713.6368 566.9955,714.2521 570.5954,713.8285 574.4208,712.3719 578.3285,709.9167 582.3132,706.4177 586.314,702.0088 590.5449,696.4548 594.6211,690.275 598.8176,683.1123 603.2018,674.8312 612.1908,655.4612 621.8473,631.448 631.8377,603.6384 643.3284,568.2192 653.7699,532.5056 663.4621,495.3079 670.8162,462.5644 676.0263,433.6283 677.687,421.491 678.6605,411.3115 679.0038,402.6694 678.7384,395.229 677.8859,389.0659 676.3345,383.8661 674.7858,380.9674 672.8958,378.836 670.7924,377.503 668.1584,376.7533 665.2335,376.7358 662.0315,377.4124 658.5665,378.7449 654.8522,380.695 650.1661,383.7226 645.1699,387.4435 634.7141,396.5647 623.4718,408.029 611.2926,421.9406 599.7033,436.4766 589.3237,450.7509 578.9854,466.4237 569.8375,481.8021 561.0632,498.2664 554.4152,512.2412 547.6444,528.8613 541.9637,545.1252 537.25,561.5 533.6622,576.6563 530.931,591.4753 528.8721,607.2971 527.3119,623.5932 526.5262,641.4485 526.5146,660.9144 527.2651,677.6752 528.722,693.5809 531.076,709.7518 534.019,723.7933 537.8882,736.7694 541.792,746.3463 544.037,750.5974 546.2341,754.0059 548.884,757.302 551.4668,759.8105 553.8838,761.5566 556.6048,762.8147 560.7144,763.5317 564.7891,763.0238 568.9483,761.2874 573.1431,758.428 577.6418,754.2537 582.3031,748.805 587.1406,742.0312 592.0753,734.0271 596.8078,725.3503 602.0638,714.6591 612.9949,689.5474 624.022,660.6731 636.4011,624.8718 650.0398,581.3734 665.3337,527.4315 677.876,478.8491 688.132,433.9721 691.6255,416.4363 694.3296,400.9386 696.25,387.5 697.5636,374.8474 698.1383,364.329 698.0189,355.4077 697.1816,348.1074 695.6025,342.4521 693.1905,338.3279 691.7221,336.8753 690.0851,335.8007 688.286,335.091 685.9909,334.707 681.2017,335.1949 675.7835,337.1325 669.156,340.7618 661.7222,345.8779 653.2439,352.6668 642.7915,362.0329 631.4155,373.1239 619.5381,385.5267 607.3872,399.0042 595.7578,412.6419 585.0592,425.9436 575.2685,438.908 565.234,453.072 553.5364,471.0318 542.9654,489.2247 533.9033,506.9285 525.6368,525.5472 518.4318,544.6886 511.6638,567.0073 506.0388,589.8333 498.958,623.1496 496.5294,633.0977 494.6902,639.2596 492.2979,645.3628 489.5302,649.7413 487.9916,651.1348 486.5636,651.8706 484.9286,652.1182 483.5272,651.8803 480.875,650.5 478.2646,648.0259 475.1343,643.8256 471.4772,637.8046 467.8629,630.5649 463.6832,621.077 456.3208,601.9659 447.5436,576.3648 438.4185,547.2498 426.9075,508.9471 391.3335,386.6306 378.5362,345.0539 367.1483,309.7518 355.0952,275.4028 348.8732,259.1252 343.3741,245.7497 339.0532,236.3025 335.4315,229.673 332.6913,226.1465 331.8006,225.7324 331.1673,226.3781 331.0212,228.2312 331.375,231.25 333.2027,238.8806 336.64,249.5534 341.4934,262.5509 346.7658,275.3757 352.653,288.5527 367.5436,318.9034 380.6445,343.37 397.1577,371.9264 412.1998,396.9332 448.7436,455.7753 461.3158,477.0643 470.875,494.2812 477.7606,507.5395 484.9978,522.9247 490.8985,536.7512 496.6197,552.0764 501.362,566.7481 505.8903,583.6812 509.1496,598.522 512.4143,616.525 515.4765,637.6029 521.8491,691.8912 524.0045,708.1035 527.0022,726.0456 530.4164,740.7725 532.7522,748.9645 535.5719,757.2737 538.0783,763.0365 541.4609,769.362 544.1866,773.3957 547.5198,777.0916 550.7077,779.6834 554.1117,781.3354 558.2555,781.9933 562.7659,781.371 566.857,779.6221 571.3154,776.5213 575.7844,772.2785 580.6677,766.4748 585.5404,759.5886 590.5436,751.4385 595.6281,742.0808 600.6559,731.8204 606.1449,719.6261 611.7847,706.1282 623.2144,676.0716 635.8836,639.1556 651.6421,588.7735 667.6267,532.6875 681.4693,479.4824 693.1175,429.2698 697.1982,409.5678 700.3816,392.4258 702.7877,377.1735 704.3678,364.0705 705.236,352.303 705.3224,342.345 704.6128,334.2012 703.0934,327.8763 700.9868,323.6939 698.1701,320.9193 696.5539,320.0424 694.4901,319.4147 690.1743,319.3239 685.2736,320.5409 679.3996,323.1927 672.8055,327.2057 665.3477,332.6098 656.0556,340.2531 645.4565,349.8269 633.1659,361.6752 620.6938,374.3783 609.0442,386.8772 597.7856,399.5784 586.7188,412.6835 575.698,426.3783 561.3007,445.3733 548.8828,463.3095 538.1263,480.563 528.3858,498.2157 518.6808,518.2452 510.6059,538.0965 502.8489,560.7175 492.7226,593.7236 488.9395,603.961 486.2477,609.3723 483.4825,613.0273 481.9216,614.2793 480.5639,614.9032 479.1475,615.1313 477.6432,614.9736 475.0695,613.8183 471.8456,610.9057 468.4636,606.7602 464.997,601.1105 460.5,592.375 457.4417,585.6942 447.8375,561.2305 441.177,542.1408 430.5597,509.4733 393.8711,389.9467 373.1157,325.468 362.7843,296.2436 354.3725,274.4257 351.0,266.625 346.9212,258.1931 344.6779,254.4911 343.9899,253.873 343.6374,253.9902 343.6594,256.5239 344.9979,261.8334 351.1676,279.1536 358.9219,297.2188 370.0,320.5 381.1749,342.2738 395.5051,368.5374 441.2401,447.868 457.9937,478.5898 464.9516,492.4946 473.01,510.2542 478.3725,523.3862 484.1368,539.2275 487.4559,549.823 490.8054,562.655 493.2954,573.6575 495.5368,585.8164 497.1296,596.5256 498.3515,608.3821 499.4724,629.7754 499.4812,638.3222 499.008,649.916 497.8369,660.7505 496.6388,667.1842 494.9172,672.7604 492.6406,677.0 490.3016,679.0453 488.9586,679.382 487.5108,679.1677 484.871,677.6539 482.1613,674.8532 478.7827,670.0718 475.5999,664.5382 472.0878,657.2981 468.3259,648.5731 460.6797,628.0979 451.421,600.1979 439.1101,559.5894 392.5934,394.5388 377.5906,344.0668 365.1284,304.5448 358.0421,283.5374 350.5368,262.4944 343.8326,244.8609 337.7486,230.1331 332.2758,218.4243 327.5795,210.1023 325.8642,207.7277 324.294,206.171 323.1554,205.8329 322.4646,206.6973 322.2383,208.7838 322.5312,212.1647 324.7031,222.1875 328.5792,234.9521 333.9096,249.703 340.0404,264.692 347.4959,281.3632 355.9779,299.0231 365.0073,316.6875 380.621,344.8613 399.4367,376.2838 414.7939,400.4477 455.861,463.3316 470.1068,486.3826 482.6063,508.2847 490.707,523.9449 496.3116,535.6503 501.9786,549.154 507.2052,563.0696 512.0317,577.8293 515.9407,591.3562 522.2738,618.6767 532.6764,672.6724 536.9045,690.5214 540.0905,701.2832 544.3613,712.8108 547.052,718.4487 549.371,722.506 551.9672,725.9735 555.0448,729.1246 557.9792,731.3831 560.7192,732.6847 564.4442,733.3501 568.0849,732.948 571.9176,731.5215 576.0591,728.9155 580.1092,725.3379 584.1096,720.8446 588.4866,715.0322 592.9309,708.2475 597.3563,700.6237 601.9626,691.7719 611.8451,670.2263 621.991,644.9435 632.0601,616.7604 644.9276,576.7482 658.0247,531.8465 668.1311,493.2748 676.8008,455.29 682.63,424.5217 684.4716,411.9647 685.7558,400.1191 686.3713,389.8587 686.3225,381.4427 685.622,374.4388 684.2423,368.8912 682.6318,365.4528 680.4966,362.7786 678.2516,361.2342 675.3456,360.3867 672.0475,360.4321 668.3683,361.3188 663.9283,363.1684 658.9836,365.9199 653.7643,369.4407 647.9823,373.9324 635.669,385.0781 621.4784,399.762 606.2535,417.208 593.2272,433.7475 580.1054,452.0069 569.0482,468.9726 558.8213,486.4221 550.5157,502.4685 542.9742,519.2137 536.2317,536.7979 530.3217,554.9322 525.3513,574.1711 521.7997,591.8727 519.2174,608.466 516.7095,632.026 515.036,659.8703 514.402,689.536 514.6669,718.673 515.7952,745.2893 517.812,767.0197 520.4336,785.2986 523.3195,798.1141 526.7562,809.244 531.4215,820.3512 533.6405,824.405 536.157,828.1612 539.0354,831.6774 541.8089,834.3054 544.8871,836.4022 547.8622,837.7151 551.8541,838.3574 556.3321,837.7081 560.8063,835.7575 565.4188,832.5185 570.0251,828.1487 574.7596,822.5296 579.6383,815.5917 584.8164,807.0836 589.903,797.6891 595.1505,786.986 605.7595,762.4233 618.2155,729.6513 631.0693,692.293 648.8054,635.6012 667.5819,570.8854 686.541,500.6564 702.8056,436.0979 714.0,387.0 718.4758,365.0175 721.9551,345.9546 724.4891,329.665 726.2038,315.3294 727.036,303.3323 727.0,293.625"/>
  </g>
</svg>
