<?xml version="1.0" encoding="utf-8" ?>
<svg xmlns="http://www.w3.org/2000/svg" xmlns:cc="http://creativecommons.org/ns" xmlns:dc="http://purl.org/dc/elements/1.1/" xmlns:ev="http://www.w3.org/2001/xml-events" xmlns:inkscape="http://www.inkscape.org/namespaces/inkscape" xmlns:rdf="http://www.w3.org/1999/02/22-rdf-syntax-ns" xmlns:sodipodi="http://sodipodi.sourceforge.net/DTD/sodipodi-0.dtd" xmlns:xlink="http://www.w3.org/1999/xlink" baseProfile="tiny" height="27.09333333cm" version="1.2" viewBox="0 0 1024.0 1024.0" width="27.09333333cm">
  <metadata>
    <rdf:RDF>
      <cc:Work>
        <dc:format>image/svg+xml</dc:format>
        <dc:source>vpype read './original_svgs/Strange Attractors #262.svg' linemerge linesimplify write './Strange Attractors #262.svg'
</dc:source>
        <dc:date>2024-08-05T01:35:43.284771</dc:date>
      </cc:Work>
    </rdf:RDF>
  </metadata>
  <defs/>
  <g fill="none" id="layer1" inkscape:groupmode="layer" inkscape:label="1" stroke="black" stroke-width="0.7mm" style="display:inline">
    <polyline points="759.6115,1024.0 761.375,1019.5 766.75,1002.875 770.375,987.375 772.5,972.875 773.25,959.125 773.0,945.75 771.875,932.875 770.0,920.125 767.625,907.625 764.75,895.125 758.0,870.375 728.125,774.375 721.625,751.75 713.125,719.5"/>
    <polyline points="710.625,709.125 708.25,699.0 704.375,679.5 699.75,652.0 697.0,626.625 696.125,610.75 696.0,603.125 696.125,588.375 697.0,574.5 699.625,554.875 702.125,542.625 705.375,530.875 709.25,519.75"/>
    <polyline points="711.5,514.375 713.75,509.125 721.75,494.125 731.25,480.125 738.375,471.375 746.125,463.125 754.625,455.375 768.625,444.75 778.875,438.375 789.875,432.75 801.75,427.875 807.875,425.75 814.25,423.875 820.875,422.375"/>
    <polyline points="827.75,421.0 834.75,420.0 842.0,419.375 857.125,419.125 873.25,420.75 881.75,422.25 890.375,424.375 899.375,427.125 908.5,430.5 918.0,434.625 927.625,439.625 937.625,445.375 947.75,452.125 958.25,460.0 969.0,468.875 980.0,479.0 991.25,490.5 1002.75,503.375 1014.375,517.75 1024.0,530.8197"/>
    <polyline points="741.4491,1024.0 725.625,992.375 713.875,968.0 702.875,944.75 683.25,901.375 658.375,844.0 632.5,780.375"/>
    <polyline points="627.0,766.5 617.125,740.875 600.875,697.125 585.625,653.625 572.75,613.625 564.25,583.25 562.25,574.75"/>
    <polyline points="561.375,570.625 559.75,563.125 557.5,549.625 556.25,537.875 555.875,530.0 556.25,520.5 557.0,514.0 559.25,503.875"/>
    <polyline points="559.875,502.0 562.625,494.625 565.25,489.25 571.625,478.75 575.5,473.375 581.375,466.25 589.875,457.0"/>
    <polyline points="591.75,455.125 604.25,443.125 611.375,436.75 624.75,425.625 647.0,408.5 661.75,398.0"/>
    <polyline points="665.75,395.375 682.75,384.25 706.75,370.125 728.5,358.75 746.5,350.5 766.125,342.875 780.125,338.25 795.0,334.125 810.75,330.75"/>
    <polyline points="818.875,329.375 836.125,327.5 845.0,327.125 863.75,327.5 873.625,328.375 883.75,329.75 894.125,331.75 904.875,334.5 916.0,338.0 927.375,342.25 939.125,347.625 951.25,353.875 963.75,361.375 976.75,370.25 990.0,380.5 1003.625,392.375 1017.75,406.125 1024.0,412.8599"/>
    <polyline points="660.1186,1024.0 632.375,963.75 578.25,843.625 558.25,800.625 546.625,776.625"/>
    <polyline points="541.25,765.875 531.125,746.625 517.375,722.5 509.0,709.25 504.875,703.25 501.0,697.75 493.375,687.875 482.5,676.0 475.5,669.625 468.625,664.5 458.375,658.75 451.75,656.125 445.0,654.5"/>
    <polyline points="441.625,653.875 431.25,653.5 424.25,654.25 417.125,655.625 413.5,656.625 402.25,660.625 390.5,666.125 373.75,675.875 360.25,684.875 340.75,699.25"/>
    <polyline points="335.5,703.375 313.625,721.125 289.25,741.875 206.75,814.875 179.25,838.875 149.125,864.625"/>
    <polyline points="138.5,873.625 104.5,901.25 80.0,920.125 67.125,929.625 40.375,948.375 26.25,957.625 11.875,966.5 -0.0,973.2857"/>
    <polyline points="0.0,284.029 44.625,188.875 88.375,99.875 130.25,18.125 139.8547,0.0"/>
    <polyline points="0.0,285.3861 6.5,281.125 29.0,262.0"/>
    <polyline points="51.375,240.0 73.5,216.5 116.125,169.875 136.375,148.375 155.625,129.0 173.75,112.0 191.0,97.625 207.0,86.125 222.125,77.375 236.125,71.25 249.25,67.75 261.5,66.5 273.0,67.5 283.75,70.5 293.875,75.125 303.375,81.25 312.375,88.625 321.0,97.125 329.125,106.625 336.875,116.75 344.25,127.375 358.0,149.875 370.75,173.25"/>
    <polyline points="376.625,185.0 393.125,219.875 412.125,263.375 438.75,328.375 467.0,401.25"/>
    <polyline points="468.875,406.25 485.125,449.625 496.125,481.375"/>
    <polyline points="496.625,483.0 500.625,496.75 502.125,505.0 502.25,507.5"/>
    <polyline points="502.25,508.125 502.25,510.875 501.75,513.75 500.5,517.25 499.125,519.75"/>
    <polyline points="498.875,520.125 495.25,525.0 488.25,532.375"/>
    <line x1="487.625" x2="465.125" y1="533.0" y2="554.5"/>
    <line x1="463.875" x2="418.25" y1="555.625" y2="598.875"/>
    <line x1="415.625" x2="323.0" y1="601.375" y2="690.75"/>
    <polyline points="317.75,695.875 263.375,747.875 210.0,797.5 164.375,838.125 144.125,855.375 122.5,873.125"/>
    <polyline points="111.25,882.25 87.625,900.375 75.25,909.5 62.5,918.625 49.375,927.5 22.125,944.75 0.0,957.1122 18.125,947.25 32.125,938.875 45.625,930.125 71.75,912.25 96.25,894.0 108.0,884.875"/>
    <polyline points="0.0,311.0384 30.125,245.5 70.375,162.125 109.75,84.125 147.0,13.375 154.3416,0.0 120.375,63.375 81.5,139.5 41.25,221.75 -0.0,310.4401"/>
    <polyline points="931.9931,1024.0 921.5,1015.5 914.875,1009.25 900.875,994.5 893.75,985.875"/>
    <polyline points="886.5,976.75 872.0,956.75 864.875,946.0 851.125,923.5 844.5,912.0 831.875,888.375 814.75,852.5 804.75,828.875 795.75,805.75 787.875,783.25 784.375,772.25 778.125,751.0 772.875,730.625 767.0,701.875"/>
    <polyline points="765.5,692.75 762.375,666.75 761.5,650.625 761.375,642.875 761.375,635.25 762.125,620.875 764.75,600.75 766.0,594.375 769.125,582.375 773.0,571.125 777.625,560.625 780.125,555.75 785.875,546.375 789.0,542.0 795.875,533.875"/>
    <polyline points="799.5,530.125 803.375,526.625 811.625,520.25 820.625,514.875 830.375,510.625 840.875,507.375 852.125,505.625 864.125,505.125 870.375,505.625 883.625,507.75 890.375,509.625 897.5,511.875 904.75,514.875 912.125,518.375 919.75,522.5 927.5,527.375 935.5,533.0 943.625,539.375 951.875,546.5"/>
    <polyline points="960.375,554.625 969.0,563.625 977.625,573.625 986.5,584.625 995.375,596.75 1004.25,610.0 1013.25,624.5 1024.0,643.4306"/>
    <polyline points="819.0579,1024.0 798.125,987.25 787.375,967.25"/>
    <polyline points="777.25,947.5 758.75,909.5 735.0,856.25 721.625,823.5 715.625,808.0 710.0,793.125 700.0,764.875 695.5,751.625 687.625,726.375 680.875,703.125 678.0,692.125 672.875,671.375 668.875,652.0 665.625,634.125 663.25,617.375"/>
    <polyline points="662.375,609.375 660.875,587.0 660.875,566.625 661.625,553.875 663.125,541.875 665.125,530.5 667.75,519.625 670.875,509.125 676.625,494.25 683.75,480.25 692.0,466.875"/>
    <polyline points="695.125,462.625 698.25,458.375 705.125,450.125 712.5,442.125 720.5,434.5 729.125,427.0 738.375,420.0 743.25,416.5 753.625,410.0 764.5,403.875 770.25,401.0 782.375,395.625 788.75,393.25 795.25,391.0 809.0,387.125 823.5,384.375"/>
    <polyline points="831.125,383.375 839.0,382.625 855.5,382.375 872.875,384.0 882.0,385.5 891.5,387.625 901.125,390.375 911.125,393.875 921.375,398.25 931.875,403.375 942.75,409.5 953.875,416.625 965.375,424.875 977.125,434.375 989.125,445.375 1001.5,457.75 1014.125,471.75 1024.0,483.7139"/>
    <polyline points="708.9281,1024.0 688.125,980.75 656.125,910.75 622.875,834.625 592.125,762.25"/>
    <polyline points="587.125,750.125 558.375,683.375 545.875,655.875 530.625,624.875 522.125,609.5 514.5,597.5"/>
    <polyline points="512.75,595.0 509.375,590.25 502.875,582.75 499.875,579.75 496.875,577.25 493.875,575.25 489.5,572.875 485.125,571.375 479.375,570.625 474.875,570.875"/>
    <polyline points="473.375,571.0 468.625,572.125 463.75,573.875 456.875,577.125 453.375,579.125 445.625,584.0 439.375,588.375 425.75,599.125"/>
    <polyline points="423.25,601.125 412.625,610.0 391.25,628.875 369.625,648.75 334.75,681.625"/>
    <polyline points="329.875,686.375 236.5,774.5 186.0,820.375 146.875,854.25"/>
    <polyline points="136.375,863.0 125.5,872.0 102.625,890.125 90.75,899.25 65.875,917.5 39.375,935.375 25.625,944.0 11.5,952.25 -0.0,958.3966"/>
    <polyline points="0.0,308.9602 18.5,267.875 59.125,182.625 99.125,102.375 137.375,28.875 153.0848,0.0"/>
    <polyline points="805.5197,1024.0 793.25,1001.75 771.625,960.5 761.75,940.5 743.75,902.0 720.625,848.875 707.625,816.375 696.25,786.25"/>
    <polyline points="691.25,772.125 678.0,732.75 667.625,697.875 659.625,667.0 653.75,639.25 650.875,622.5 648.75,606.75 646.875,585.125 646.5,565.5 647.375,547.375"/>
    <polyline points="648.0,541.75 649.625,530.75 651.75,520.25 653.0,515.125 656.0,505.375 661.375,491.25 667.875,478.0 675.625,465.125 684.375,452.875 694.5,441.125 705.875,429.75"/>
    <polyline points="709.875,426.125 718.375,418.875 727.625,411.875 737.375,405.25 747.875,398.75 764.875,389.875 771.0,387.125 783.625,382.125 797.0,377.75 804.125,375.875 811.375,374.125 826.5,371.625 834.5,370.75 842.625,370.25 851.0,370.125 868.75,371.25"/>
    <polyline points="877.875,372.5 887.375,374.375 897.25,376.75 907.25,380.0 917.625,383.875 928.375,388.625 939.25,394.375 950.625,401.125 962.25,409.0 974.125,418.0 986.5,428.5 999.0,440.5 1012.0,454.125 1024.0,468.1821"/>
    <polyline points="698.1556,1024.0 669.5,963.375 648.5,917.125 630.375,876.25 578.0,755.625 555.625,705.875"/>
    <polyline points="551.75,697.75 544.625,682.625 534.875,663.375 523.375,642.625 515.625,630.25 508.5,620.0 501.875,611.75 495.5,605.25 491.375,601.75 487.25,598.875"/>
    <polyline points="485.25,597.625 479.375,594.75 475.375,593.5 469.5,592.5 461.375,592.75 455.0,594.0 446.25,597.0 439.25,600.25 432.0,604.375"/>
    <polyline points="429.375,606.0 424.125,609.375 413.0,617.25 394.125,632.125 368.375,654.25 342.25,677.875"/>
    <polyline points="337.5,682.25 232.125,780.375 198.875,810.625 161.25,843.625"/>
    <polyline points="151.125,852.25 130.0,870.0 107.375,888.125 83.5,906.5 70.875,915.625 44.75,933.75 31.0,942.5 17.0,951.0 0.0,960.482"/>
    <polyline points="0.0,305.0442 41.5,215.875 82.5,132.375 122.0,55.0 151.228,-0.0"/>
    <line x1="1024.0" x2="1021.9973" y1="959.3182" y2="1024.0"/>
    <polyline points="161.5341,0.0 180.5,71.125 191.5,110.75 226.5,233.875 239.375,280.125 249.75,319.5 257.875,353.5 261.125,369.0"/>
    <polyline points="264.0,383.5 266.5,397.375 270.25,423.125 271.5,435.125 273.0,458.0 273.375,468.75 273.0,489.5 271.5,509.125 270.375,518.625 267.25,537.0 263.125,554.875 258.0,572.125 255.125,580.625 248.5,597.25 244.875,605.5 241.125,613.625 232.625,629.875"/>
    <polyline points="228.125,637.75 223.375,645.75 213.125,661.5 201.875,677.0 189.75,692.5 176.75,707.625 162.875,722.5 155.5,729.875 140.25,744.125 124.125,757.875 115.75,764.375 107.125,770.75 98.375,776.75 89.5,782.375 80.375,787.75 71.25,792.625 62.0,796.875 52.75,800.625 43.375,803.625"/>
    <polyline points="34.125,805.75 25.0,807.0 16.0,807.25 7.25,806.125 0.0,804.0993"/>
    <polyline points="-0.0,529.9685 12.875,493.75 27.875,455.125 44.125,416.125 61.5,377.5 79.625,340.0 98.125,304.125 116.625,270.375"/>
    <polyline points="134.875,239.375 152.625,211.375 169.875,186.5 186.25,165.125 201.75,147.0 216.5,132.375 230.25,120.875 243.25,112.375 255.375,106.75 266.75,103.75 277.375,103.125 287.375,104.5 296.875,107.75 305.75,112.625 314.25,118.875 322.25,126.25 329.875,134.625 337.125,143.75 344.125,153.625 350.75,163.875 357.0,174.5 363.125,185.375 374.5,207.625 384.875,229.875"/>
    <polyline points="389.75,240.75 403.25,272.625 415.0,302.375 425.25,329.75 436.75,362.0 448.125,396.375 453.5,414.0 459.25,434.625"/>
    <polyline points="460.375,439.25 462.625,448.0 466.625,467.375 468.125,477.375 469.125,486.5 469.5,499.75 469.125,507.0 467.875,515.875"/>
    <polyline points="467.5,517.875 466.5,522.0 463.125,531.875 460.625,537.5 457.625,543.25 451.75,552.75 441.375,566.625"/>
    <polyline points="439.625,568.75 428.25,582.0 412.0,599.625 375.125,637.375"/>
    <polyline points="371.375,641.0 333.125,679.0 301.5,709.875 263.875,746.0 235.0,773.25"/>
    <polyline points="227.125,780.5 202.375,803.375 184.5,819.375 155.5,844.625 134.75,862.125 101.0,889.125 89.125,898.25 76.75,907.25 64.125,916.375 51.125,925.25 37.75,934.0 24.0,942.375 9.875,950.5 0.0,955.6929"/>
    <polyline points="0.0,313.3165 25.875,256.375 65.875,173.0 105.25,94.875 142.5,23.75 155.5272,0.0"/>
    <polyline points="845.8281,1024.0 857.625,1010.75 865.0,1001.125 869.875,992.75 872.75,985.25"/>
    <polyline points="873.875,978.25 873.75,971.25 872.5,964.375 870.25,957.25 867.375,949.75 860.0,933.75 832.25,877.625 818.5,846.625 810.0,825.625 802.125,804.625 795.125,784.0 791.875,773.875 783.75,744.125"/>
    <polyline points="781.375,734.625 775.875,707.0 772.25,681.25 771.5,673.125 770.625,657.375 770.5,649.75 770.875,635.25 772.125,621.5 774.0,608.625 776.75,596.5 778.375,590.75 782.25,579.75 784.5,574.625 786.875,569.625 792.25,560.25"/>
    <polyline points="795.125,555.875 798.25,551.625 801.625,547.75 805.0,544.0 808.75,540.5 812.5,537.125 816.625,534.125 825.125,528.75 834.5,524.5 839.5,522.875 849.875,520.375 855.375,519.75 861.0,519.375 873.0,519.875 879.125,520.75 885.625,522.125 892.125,524.0 899.0,526.375 905.875,529.25 913.0,532.75 920.25,536.875 927.75,541.75"/>
    <polyline points="935.375,547.25 943.125,553.5 951.0,560.5 959.125,568.375 967.25,577.25 975.5,586.875 983.875,597.625 992.25,609.25 1000.75,622.0 1009.25,635.875 1017.75,650.875 1024.0,662.9086"/>
    <line x1="832.3409" x2="831.25" y1="1024.0" y2="1022.25"/>
    <polyline points="819.75,1003.0 798.375,964.875 779.25,927.5 770.5,909.5 762.25,891.75 747.25,857.75 728.125,810.625 712.75,767.875 704.25,741.875 700.5,729.5 694.0,706.25 688.5,684.5 684.125,664.25 680.75,645.375"/>
    <polyline points="679.375,636.5 676.5,611.375 675.375,588.5 675.5,574.375 675.875,567.625 677.875,548.375 681.375,530.625 684.5,519.5 688.125,508.75 694.75,493.625 702.75,479.375"/>
    <polyline points="705.75,474.75 712.125,465.875 719.125,457.375 730.875,445.25 744.0,434.0 753.625,427.0 763.875,420.5 774.875,414.5 780.75,411.75 786.625,409.125 799.25,404.5 812.625,400.75 819.625,399.25 826.875,398.0 834.375,397.125"/>
    <polyline points="842.0,396.625 850.0,396.375 866.5,397.25 875.25,398.375 884.125,400.125 893.25,402.375 902.75,405.25 912.5,409.0 922.5,413.375 932.75,418.75 943.375,425.0 954.25,432.25 965.375,440.625 976.875,450.25 988.625,461.25 1000.625,473.625 1012.875,487.625 1024.0,501.6425"/>
    <polyline points="721.364,1024.0 699.5,979.0 667.625,909.625 642.0,851.0 615.125,786.875 599.125,747.75"/>
    <polyline points="594.375,736.125 552.125,631.625 540.125,603.125 530.875,582.25"/>
    <polyline points="529.625,579.375 523.75,567.125 517.0,554.5 512.25,547.125 507.375,541.5"/>
    <polyline points="506.75,541.0 502.875,538.375 501.0,537.625 498.5,537.125 496.625,537.125 493.875,537.625 490.375,538.75"/>
    <polyline points="489.75,539.125 484.125,542.125 480.625,544.5 473.625,549.75 465.375,556.625"/>
    <polyline points="464.125,557.75 455.5,565.125 441.875,577.5 417.75,600.125"/>
    <polyline points="415.125,602.5 388.5,627.75 321.5,692.375"/>
    <polyline points="316.25,697.375 287.625,725.0 247.125,763.25 199.0,807.625 161.625,840.625 130.5,866.875 119.375,875.875"/>
    <polyline points="921.6116,1024.0 906.875,1009.5 899.125,1000.875"/>
    <polyline points="891.375,991.5 875.875,971.0 868.25,959.875 860.75,948.5 846.375,924.75 839.5,912.5 826.5,887.75 820.375,875.25 809.0,850.5 798.75,826.125 794.125,814.25 781.75,779.5 775.0,757.375 769.25,736.25 766.75,726.125 762.625,706.375"/>
    <polyline points="760.875,697.0 759.375,687.75 757.25,670.125 756.375,661.625 755.5,645.375 755.375,637.5 755.75,622.625 756.25,615.375 757.875,601.75 760.25,588.875 761.75,582.75 763.375,576.75 767.25,565.375 769.5,560.0 774.5,549.75 780.25,540.25 786.75,531.625"/>
    <polyline points="790.25,527.5 797.875,520.0 801.875,516.625 810.5,510.5 820.0,505.25 830.125,501.125 835.5,499.5 846.75,497.25 852.75,496.625 858.875,496.375 865.25,496.5 878.5,498.125 885.375,499.625 892.5,501.625 899.875,504.25 907.375,507.375 915.0,511.125 922.875,515.625 931.0,520.875 939.25,526.875"/>
    <polyline points="947.625,533.625 956.25,541.25 965.0,549.875 973.875,559.5 982.875,570.125 992.0,581.75 1001.25,594.625 1010.5,608.75 1019.875,624.125 1024.0,631.5389"/>
    <line x1="810.875" x2="797.75" y1="1024.0" y2="1000.75"/>
    <polyline points="786.5,980.0 765.875,939.5 747.625,901.0 739.375,882.75 724.375,847.75 717.625,831.25 711.25,815.25 699.875,785.125 685.75,744.25 678.0,719.5 671.5,696.75 663.625,665.625 659.625,646.875 656.5,629.375"/>
    <polyline points="655.25,621.125 653.25,605.375 652.0,590.625 651.5,576.875 651.875,557.625 653.5,539.875 655.375,528.875 657.75,518.25 659.125,513.125 662.375,503.25 664.125,498.375 668.125,489.0 675.125,475.625"/>
    <polyline points="677.75,471.25 683.375,462.75 689.5,454.5 699.625,442.5 711.125,431.0 724.0,420.125 738.25,409.75 754.0,400.125 765.375,394.25 771.375,391.5 783.875,386.375 790.5,384.125"/>
    <polyline points="797.25,382.0 804.125,380.0 811.375,378.375 818.75,376.875 826.375,375.75 834.25,374.875 842.375,374.375 859.25,374.5 868.125,375.25 877.25,376.5 886.625,378.375 896.375,380.75 906.375,383.875 916.625,387.75 927.125,392.5 938.0,398.0 949.25,404.75 960.75,412.5 972.5,421.375 984.625,431.75 997.125,443.5 1009.875,456.875 1024.0,473.283"/>
    <polyline points="701.802,1024.0 686.25,991.75 653.25,919.75 634.875,878.5 611.875,825.375"/>
    <polyline points="605.125,809.75 577.25,744.875 556.0,697.25 545.5,674.875 536.25,656.25 525.375,636.125 518.125,624.0 513.5,617.125"/>
    <polyline points="511.375,614.0 505.125,605.875 501.125,601.375 493.5,594.25 488.0,590.5 482.5,587.75 477.125,586.125 471.625,585.5 467.875,585.5 464.125,586.0"/>
    <polyline points="462.25,586.375 454.25,588.625 450.125,590.375 443.75,593.5 436.875,597.5 429.625,602.125 421.875,607.625 413.625,613.875 401.75,623.625"/>
    <polyline points="398.5,626.25 381.375,641.0 357.625,662.375 284.75,730.5"/>
    <polyline points="278.375,736.5 243.625,769.125 203.25,806.0 176.0,830.25 135.5,864.875 101.625,892.0 77.375,910.375 64.625,919.5 38.125,937.375"/>
    <line x1="24.25" x2="-0.0" y1="946.0" y2="959.681"/>
    <polyline points="0.0,306.923 21.125,260.25 62.125,174.625"/>
    <polyline points="102.375,94.25 140.625,20.875 151.964,0.0"/>
    <polyline points="580.1895,1024.0 557.375,968.25 533.25,911.5 519.375,881.0 506.75,855.5 495.0,833.875 489.5,824.375 484.0,815.625 473.375,800.375 468.25,793.75 458.125,782.125"/>
    <polyline points="453.125,777.125 443.25,768.5 438.375,765.0 428.5,759.0 423.5,756.625 418.625,754.625 408.625,751.75 403.625,750.75 393.375,749.875 383.0,750.25 372.375,751.75 366.875,753.0 355.75,756.25 344.25,760.625 338.375,763.25 332.25,766.125 319.875,772.75"/>
    <polyline points="313.5,776.5 300.25,784.625 286.5,793.875 264.5,809.875 240.75,828.25 196.75,864.25 111.625,936.0 86.75,956.25"/>
    <polyline points="73.625,966.75 46.25,988.125 31.75,999.0 0.0,1021.6211"/>
    <polyline points="0.0,200.5347 20.5,156.625 78.125,37.875 96.9974,0.0"/>
    <polyline points="216.1269,-0.0 230.125,57.5 272.125,222.5 289.125,292.0 297.75,330.25 301.25,347.625 304.375,363.75 309.375,393.5"/>
    <polyline points="311.25,407.125 314.0,432.5 315.5,455.625 315.75,466.625 315.5,487.375 314.875,497.25 314.125,506.75 311.75,525.25 308.375,542.875 306.375,551.375 301.75,568.0 296.125,584.25 293.0,592.25 286.125,608.0 278.375,623.5 269.875,638.875"/>
    <polyline points="265.25,646.625 255.375,661.875 250.0,669.625 238.875,685.0 226.75,700.5 213.625,716.125 199.625,731.875 176.625,755.625 160.125,771.5 151.5,779.375 133.375,795.125 123.875,802.875 104.125,818.125 83.375,832.5 72.75,839.375"/>
    <polyline points="61.75,845.75 50.625,851.75 39.375,857.25 27.875,862.125 16.375,866.25 4.875,869.375 0.0,870.2228"/>
    <polyline points="0.0,441.2237 3.75,431.75 27.0,377.25"/>
    <polyline points="51.625,323.375 76.875,271.25 102.25,222.0 127.125,176.5 151.25,135.375 174.0,99.0 195.375,67.5 215.25,41.125 233.625,19.625 250.5,2.875 254.0938,0.0"/>
    <polyline points="357.7233,0.0 366.125,8.875 374.5,19.125 382.75,30.0 398.25,53.0 412.875,76.75"/>
    <polyline points="420.0,88.625 440.125,123.25 465.0,165.125 482.5,192.625 499.0,216.5 514.75,236.625 519.875,242.625 530.0,253.375 540.0,262.875 544.875,267.0 549.75,270.875 559.5,277.625"/>
    <polyline points="564.375,280.625 569.125,283.25 578.875,287.75 583.75,289.625 593.5,292.625 598.375,293.75 608.375,295.375 623.625,296.125 628.875,296.0 639.5,295.125 650.5,293.75 656.125,292.75 667.5,290.375 679.5,287.375 698.25,282.125"/>
    <polyline points="704.75,280.125 747.125,267.125 779.0,258.25 805.25,252.375 814.5,250.75 833.75,248.125 854.25,246.625 864.875,246.5 875.875,246.75 887.25,247.625 899.0,249.0 911.125,251.125 923.625,254.125 936.625,258.0"/>
    <polyline points="950.0,262.875 963.75,268.875 978.125,276.375 992.875,285.25 1008.25,295.875 1024.0,308.4006"/>
    <polyline points="578.875,999.875 548.5,931.75 524.0,879.75 510.0,852.125 503.375,840.125 497.125,829.0 485.375,809.875 479.75,801.5 468.875,786.875 458.375,775.0 453.25,769.875 448.25,765.25 438.25,757.625 428.25,751.75 423.375,749.375 418.375,747.5"/>
    <polyline points="413.375,746.0 408.5,744.75 403.375,743.875 393.25,743.125 388.125,743.25 383.0,743.75 372.375,745.5 367.0,746.75 355.875,750.25 344.5,754.875 332.625,760.5 314.0,771.0 307.5,775.0 287.25,788.625 265.375,804.75"/>
    <polyline points="257.75,810.5 225.125,836.625 198.125,859.0 125.375,920.5 88.875,950.375 62.5,971.25 34.375,992.5 19.625,1003.125 0.0,1016.5833"/>
    <polyline points="0.0,209.5324 17.625,171.625 73.75,55.625 101.4325,0.0"/>
    <polyline points="188.2721,0.0 212.125,98.625 252.25,259.0 263.125,305.125 271.625,344.375 275.125,362.0 278.0,378.5 282.625,408.5 284.25,422.375 286.375,447.875 287.0,459.875 287.125,482.375 286.75,493.0 285.0,513.375"/>
    <polyline points="283.75,523.125 280.5,541.875 276.125,560.0 273.625,568.75 267.75,585.875 264.5,594.375 257.25,610.875 253.375,619.125 249.125,627.25 244.75,635.25 235.125,651.25 230.0,659.25 219.125,675.0 207.25,690.75 200.875,698.625 187.625,714.25 173.375,729.625"/>
    <polyline points="165.875,737.375 150.125,752.5 142.0,759.875 133.5,767.25 116.0,781.5 97.5,794.875 88.0,801.125 78.25,807.0 68.375,812.5 58.5,817.5 48.375,822.0 38.25,825.75 28.125,828.625 18.0,830.75 8.0,831.625 0.0,831.4199"/>
    <polyline points="0.0,494.125 17.125,450.0 35.75,405.5 55.625,361.375 76.25,318.5 97.25,277.625 118.125,239.375 138.625,204.25 158.375,172.75 177.25,145.125 195.125,121.5 212.0,101.75 227.75,85.875 242.375,73.625 256.125,64.875 268.875,59.25 280.75,56.375 291.875,56.125"/>
    <polyline points="302.25,58.125 312.125,62.0 321.5,67.5 330.25,74.5 338.625,82.625 346.625,91.75 354.375,101.625 368.75,123.0 382.125,145.5 400.375,179.875 416.875,213.125 457.5,297.75"/>
    <polyline points="461.25,305.5 481.875,345.375 493.875,366.125 502.0,379.0 509.75,389.75 517.0,398.75 523.875,406.125 530.625,412.0"/>
    <polyline points="532.875,413.75 537.25,416.625 543.625,419.875 550.125,422.125 556.75,423.375 561.125,423.625 568.0,423.375 575.0,422.25 582.375,420.375 590.125,417.625"/>
    <polyline points="592.75,416.625 606.875,410.375 622.5,402.375 681.875,369.125"/>
    <polyline points="686.75,366.5 707.25,355.875 718.375,350.5 736.125,342.5 748.875,337.25 762.25,332.25 776.5,327.625 799.375,321.625 815.75,318.5 824.25,317.375 842.125,315.875 851.5,315.625 861.125,315.875"/>
    <polyline points="871.0,316.5 881.25,317.75 891.75,319.5 902.625,322.0 913.75,325.25 925.375,329.25 937.25,334.25 949.5,340.25 962.25,347.5 975.25,356.0 988.75,365.875 1002.625,377.5 1016.875,390.875 1024.0,398.2415"/>
    <polyline points="650.0264,1024.0 636.0,993.625 570.0,847.75 549.875,805.125 538.125,781.625 527.375,761.375 517.5,744.0 508.25,729.0"/>
    <polyline points="503.875,722.375 491.25,705.375 483.25,696.125 479.375,692.125 475.5,688.5 468.0,682.25 460.625,677.125 456.875,675.0 449.625,671.625 446.0,670.375 438.625,668.5 431.25,667.625 427.5,667.5 420.0,667.875 416.125,668.375 408.375,670.0"/>
    <polyline points="404.375,671.125 392.125,675.5 379.25,681.625 365.625,689.375 351.125,698.875 335.75,709.875 319.125,722.625 295.0,742.25 275.25,759.0"/>
    <polyline points="268.25,765.0 167.375,853.125 136.125,879.5 113.5,898.0 89.5,917.0 63.875,936.125 50.5,945.75 22.5,964.5 7.75,973.5"/>
    <polyline points="-0.0,276.5498 7.125,260.75 52.375,165.125 97.0,75.0 135.5258,-0.0"/>
    <polyline points="0.0,318.8295 6.375,322.5 22.375,325.5 38.125,323.5 53.625,317.875 69.0,309.375 84.0,299.125 98.875,287.875 141.125,253.875 154.25,243.875 167.0,235.125 179.125,227.625 190.75,221.625 201.75,217.125 212.25,214.125"/>
    <polyline points="222.125,212.625 231.5,212.625 240.25,213.875 248.625,216.5 256.5,220.25 264.0,225.0 271.0,230.75 277.625,237.375 283.75,244.625 289.625,252.5 295.125,261.0 300.25,270.0 309.75,288.75 317.875,308.5 325.0,328.75 331.0,349.0 336.125,369.125 340.25,388.875 343.375,408.125"/>
    <polyline points="344.625,417.5 347.125,444.875 347.75,462.375 347.75,470.875 347.125,487.5 345.75,503.625 342.375,526.75 339.125,541.75 335.125,556.25 330.375,570.625 325.0,584.625 322.0,591.625 318.875,598.625 312.0,612.5"/>
    <polyline points="308.25,619.375 300.375,633.25 291.625,647.125 282.125,661.125 266.375,682.375 248.75,704.25 235.875,719.125 222.125,734.375 191.75,765.75 175.0,781.875 147.75,806.375"/>
    <polyline points="138.125,814.625 118.125,831.0 107.625,839.125 85.75,855.0 74.375,862.75 62.75,870.125 50.875,877.25 38.75,884.0 26.375,890.125 13.75,895.75 0.0,900.8309"/>
    <polyline points="0.0,397.2588 4.0,387.625 32.5,323.625 62.125,261.25 91.75,201.875 121.0,146.75 148.875,96.75 175.25,52.625 199.625,14.5 209.7806,0.0"/>
    <polyline points="431.2513,-0.0 462.875,49.125 477.25,70.5 491.25,90.25 504.875,108.125 518.25,124.125 524.875,131.375 538.0,144.625 550.875,156.0 563.75,165.625"/>
    <polyline points="570.25,169.875 576.625,173.75 583.125,177.125 596.0,182.875 602.5,185.125 609.0,187.125 622.25,190.125 635.625,191.875 642.5,192.25 656.375,192.25 663.375,191.875 670.625,191.25 685.25,189.375 700.5,186.5 716.25,183.0 749.75,174.25"/>
    <polyline points="758.625,171.75 777.0,166.625 806.375,159.0 827.25,154.25 849.5,150.125 873.0,147.125 885.25,146.25 898.0,145.875 911.125,146.0 924.75,146.875 938.875,148.625 953.375,151.25 968.625,155.0 984.25,160.0 1000.625,166.625 1017.625,174.875 1024.0,178.6012"/>
    <polyline points="509.0103,1024.0 490.5,978.125 476.25,945.0 463.625,918.25 457.75,906.875 452.0,896.625"/>
    <polyline points="446.5,887.5 435.75,871.75 430.375,865.125 425.25,859.125 420.0,853.875 414.75,849.25 404.25,841.625 399.0,838.625 393.625,836.0 382.875,832.25 377.375,831.0 366.125,829.75 354.5,830.0 348.625,830.625 342.625,831.75 330.25,834.75 317.375,839.25 304.0,845.125"/>
    <polyline points="297.125,848.5 282.875,856.25 275.5,860.625 260.25,870.5 236.125,887.625 210.0,907.875 191.375,923.125 161.625,948.5 129.125,977.125 76.7823,1024.0"/>
    <line x1="0.0" x2="25.8801" y1="53.884" y2="0.0"/>
    <polyline points="0.0,275.3882 16.25,261.875 39.875,238.625 63.25,213.375 130.125,138.75 150.5,117.125 169.875,98.0 188.125,81.75 205.125,68.5 221.0,58.25"/>
    <polyline points="235.875,50.875 249.625,46.25 262.5,44.25 274.5,44.625 285.625,47.0 296.25,51.375 306.125,57.25 315.5,64.625 324.5,73.125 332.875,82.5 341.0,92.75 348.625,103.625 356.0,114.875 363.125,126.5 369.875,138.375 376.5,150.25 382.75,162.25 394.625,186.0 410.875,220.125 429.875,262.0"/>
    <polyline points="434.25,271.625 450.125,306.875 464.0,336.75 470.125,349.875 481.375,372.625 493.625,395.375 500.125,406.375 506.25,415.75"/>
    <polyline points="508.125,418.5 513.625,425.875 520.625,433.625 525.625,438.125 528.875,440.5 533.75,443.375 540.125,445.875 545.0,446.75 550.0,447.0"/>
    <polyline points="551.625,446.875 558.5,446.0 564.0,444.5 573.5,440.875 586.375,434.5 603.5,424.5"/>
    <polyline points="606.125,422.75 659.25,389.25 680.75,376.375 700.125,365.5"/>
    <polyline points="705.375,362.75 716.125,357.25 733.5,349.0 752.375,341.125 765.75,336.125 787.375,329.375 811.0,324.125 827.875,321.75 836.75,321.0 855.25,320.5 874.75,321.875 885.125,323.25 895.625,325.375"/>
    <polyline points="906.5,328.125 917.75,331.625 929.375,336.125 941.375,341.5 953.625,347.875 966.375,355.625 979.5,364.625 993.0,375.125 1006.875,387.25 1024.0,404.393"/>
    <polyline points="654.2992,1024.0 636.125,984.75 579.0,858.0 558.0,812.75 545.875,787.75 534.875,766.125 520.0,739.25 506.625,717.75 498.25,706.0"/>
    <polyline points="494.25,700.75 490.375,695.875 482.75,687.375 475.25,680.375 471.625,677.375 464.5,672.125 460.875,670.0 453.875,666.5 450.25,665.125 443.25,663.0 436.125,661.875 432.5,661.625 425.25,661.75 421.5,662.125 414.125,663.5 410.25,664.375 402.5,666.875"/>
    <polyline points="398.5,668.375 390.375,671.875 382.0,676.125 373.25,681.125 364.125,686.75 354.625,693.125 344.75,700.25 329.0,712.125 312.0,725.75 293.75,741.0 267.0,764.125"/>
    <polyline points="259.875,770.375 185.375,835.875 145.25,870.125 111.875,897.625 87.75,916.5 62.125,935.625 48.75,945.125 34.875,954.5 20.625,963.625 0.0,976.025"/>
    <polyline points="0.0,280.1758 15.125,246.875 59.875,153.125 103.75,65.25 137.4965,-0.0"/>
    <polyline points="-0.0,315.0422 3.125,315.0 21.5,309.0 39.75,298.625 57.75,285.375 75.625,270.125 93.125,254.125 126.875,222.25 143.0,207.625 158.5,194.375 173.25,182.875 187.25,173.25 200.5,165.625 213.0,160.0 224.875,156.25 236.0,154.375"/>
    <polyline points="246.5,154.25 256.375,155.875 265.625,159.0 274.375,163.375 282.75,169.0 290.5,175.75 297.875,183.375 304.875,191.75 311.5,200.75 317.75,210.25 323.625,220.25 329.25,230.625 334.5,241.125 344.25,262.625 352.875,284.25 360.625,305.75 367.375,326.75 375.875,356.75 380.5,375.875"/>
    <polyline points="382.5,385.125 387.5,411.375 390.875,435.75 392.75,458.25 393.125,479.25 392.25,498.75 390.0,517.125 387.875,528.875 385.125,540.25 383.625,545.75 380.0,556.75"/>
    <polyline points="378.125,562.125 373.75,572.875 369.0,583.5 363.625,594.0 354.5,609.875 344.125,625.875 332.5,642.25 319.5,659.25 305.0,676.875 283.375,701.625"/>
    <polyline points="277.375,708.125 258.625,728.25 223.0,764.25 207.125,779.625 190.25,795.375 162.875,820.125 143.125,837.125 111.25,863.125 76.375,889.0 51.5,905.625"/>
    <polyline points="38.5,913.625 25.25,921.25 11.75,928.375 0.0,933.8795"/>
    <polyline points="0.0,347.5061 6.125,333.375 41.125,257.5"/>
    <polyline points="76.625,184.5 111.5,116.375 144.75,54.5 175.5382,-0.0"/>
    <polyline points="523.3457,0.0 530.375,7.375 545.75,21.875 553.375,28.25 561.0,34.125 576.25,44.25 583.875,48.5 591.625,52.25 599.25,55.5 614.75,60.625 622.625,62.5 630.5,63.875 638.5,64.875 654.75,65.625 671.25,64.625"/>
    <polyline points="679.75,63.625 697.0,60.5 705.875,58.375 724.0,53.25 742.75,46.875 772.5,35.25 838.5,6.75 854.7256,-0.0"/>
    <polyline points="467.8688,1024.0 471.25,978.75 472.0,956.75 472.0,946.75 471.625,937.25 470.875,928.25 468.625,911.75 467.0,904.0 463.0,889.75 460.625,883.125 455.125,870.875 448.75,859.875 445.375,854.875 438.0,845.75 434.0,841.625"/>
    <polyline points="430.0,837.75 421.375,831.0 417.0,828.125 412.375,825.5 402.875,821.25 398.0,819.625 387.875,817.125 377.375,815.875 366.5,815.875 355.125,817.125 349.25,818.25 343.25,819.625 331.0,823.375 324.625,825.75 311.625,831.25 304.875,834.5 291.0,842.0"/>
    <polyline points="283.875,846.25 269.0,855.5 253.375,866.125 245.25,872.0 228.5,884.5 201.75,905.875 182.5,921.75 162.25,939.0 65.2934,1024.0"/>
    <line x1="0.0" x2="39.7436" y1="81.9974" y2="0.0"/>
    <polyline points="87.91,0.0 101.75,58.5 115.25,113.125"/>
    <polyline points="127.25,160.5 147.75,237.875 181.875,362.625 190.375,395.625 193.75,409.875 199.0,435.0 201.0,446.25 203.75,466.625 204.625,476.0 205.375,493.5 205.375,501.75 204.375,517.5 202.5,532.5 199.625,546.75"/>
    <polyline points="197.75,553.75 193.625,567.25 191.125,573.875 188.625,580.375 182.75,593.0 179.625,599.25 172.75,611.25 161.25,628.375 148.375,644.125 139.125,653.75 134.375,658.25 124.5,666.375 114.5,673.375 104.25,679.0 99.125,681.125"/>
    <polyline points="94.125,682.875 89.125,684.125 84.25,684.75 79.375,684.875 74.75,684.375 70.375,683.25 66.125,681.375 62.125,678.625 58.5,675.25 55.25,670.875 52.5,665.625 50.0,659.5 48.125,652.375 46.875,644.25 46.125,635.125 46.0,625.0 46.5,613.875 47.75,601.875 49.75,588.875 52.5,575.125 55.875,560.5 60.0,545.375 64.875,529.75 70.375,513.625 76.5,497.375 83.125,481.0"/>
    <polyline points="90.25,464.625 97.75,448.75 105.625,433.125 113.875,418.125 122.125,404.0 130.625,390.625 139.125,378.25 147.5,367.0 155.875,356.875 164.125,348.0 172.125,340.375 180.0,334.0 187.5,328.875 194.875,325.0 201.875,322.25 208.5,320.75 215.0,320.375 221.0,321.0 226.875,322.625 232.25,325.125 237.5,328.5 242.25,332.625 246.875,337.375 251.125,342.875 255.0,348.875 258.625,355.25"/>
    <polyline points="262.0,362.25 268.0,377.0 270.5,384.875 274.875,401.25 276.625,409.625 278.125,418.25 280.375,435.5 281.125,444.25 281.875,461.75 281.75,479.25 281.25,488.0 280.625,496.625 278.5,513.875 277.125,522.375 273.75,539.375 269.375,556.0 264.125,572.5"/>
  </g>
</svg>
