<?xml version="1.0" encoding="utf-8" ?>
<svg xmlns="http://www.w3.org/2000/svg" xmlns:cc="http://creativecommons.org/ns" xmlns:dc="http://purl.org/dc/elements/1.1/" xmlns:ev="http://www.w3.org/2001/xml-events" xmlns:inkscape="http://www.inkscape.org/namespaces/inkscape" xmlns:rdf="http://www.w3.org/1999/02/22-rdf-syntax-ns" xmlns:sodipodi="http://sodipodi.sourceforge.net/DTD/sodipodi-0.dtd" xmlns:xlink="http://www.w3.org/1999/xlink" baseProfile="tiny" height="27.09333333cm" version="1.2" viewBox="0 0 1024.0 1024.0" width="27.09333333cm">
  <metadata>
    <rdf:RDF>
      <cc:Work>
        <dc:format>image/svg+xml</dc:format>
        <dc:source>vpype read './original_svgs/Strange Attractors #530.svg' linemerge linesimplify write './Strange Attractors #530.svg'
</dc:source>
        <dc:date>2024-08-05T01:36:07.991440</dc:date>
      </cc:Work>
    </rdf:RDF>
  </metadata>
  <defs/>
  <g fill="none" id="layer1" inkscape:groupmode="layer" inkscape:label="1" stroke="black" stroke-width="0.7mm" style="display:inline">
    <polyline points="311.75,625.75 328.5,627.875 341.75,628.75 351.375,628.75 358.0,628.25 361.875,627.375 363.375,626.25 363.0,624.875 361.0,623.125 342.5,611.5 330.875,602.375 325.5,597.0 320.75,591.125 316.875,584.875 313.875,578.375 312.125,571.75 311.5,565.125 312.125,558.75 314.0,552.5 317.0,546.75 321.0,541.5 325.75,536.75"/>
    <polyline points="331.125,532.5 337.0,528.75 343.25,525.5 349.625,522.75 362.625,518.5 375.375,515.5 381.5,514.375 398.75,512.0 454.25,507.0"/>
    <polyline points="457.0,506.625 466.75,505.375 479.875,502.75 484.375,501.5 490.625,499.25 496.5,496.25"/>
    <polyline points="497.375,495.625 501.875,492.125 506.0,487.5 508.875,482.75 511.375,477.375"/>
    <polyline points="511.75,476.375 515.0,467.5 519.875,452.25 523.5,442.125"/>
    <polyline points="524.25,440.25 527.375,432.5 531.5,424.125 536.875,415.0 542.0,407.75 548.625,400.375 553.875,395.375 563.75,388.125 571.75,383.5"/>
    <polyline points="576.25,381.375 586.375,377.625 592.125,376.0 598.125,374.75 611.375,373.25 618.5,373.25 625.875,373.75 633.375,374.875 641.0,376.625 648.625,379.25 655.875,382.625 662.875,386.75 669.125,391.875 674.625,397.625 679.125,404.25 682.5,411.5 684.75,419.25 685.625,427.375 685.125,435.625 683.5,443.875 680.875,452.0 677.25,459.75 672.75,467.125 667.75,474.0"/>
    <polyline points="662.25,480.375 656.5,486.25 650.625,491.375 644.625,496.125 638.75,500.25 627.25,507.125 616.5,512.375 606.625,516.375 593.5,520.625 578.875,524.5 557.0,529.125"/>
    <polyline points="554.875,529.625 543.75,532.625 536.625,535.25 533.0,537.0 528.75,539.625 522.75,545.0"/>
    <polyline points="522.0,545.875 518.0,551.5 514.375,558.25 511.0,566.125 506.75,577.25"/>
    <polyline points="506.125,579.0 498.5,597.125 493.5,606.625 488.625,614.375 482.25,622.5 476.875,628.125 470.25,633.875 462.125,639.5"/>
    <polyline points="457.375,642.25 446.125,647.5 439.5,649.75 432.0,651.875 423.625,653.625 414.25,654.875 403.875,655.625 392.375,655.625 379.625,654.75 365.875,652.75 351.0,649.5 335.5,644.75 319.375,638.375 303.375,630.125 288.25,620.0 274.5,608.25 263.25,595.0 255.0,580.875 250.375,566.375 249.5,552.125 252.25,538.75 258.0,526.75 266.375,516.25 276.375,507.5 287.375,500.375"/>
    <polyline points="298.75,494.875 310.125,490.5 321.125,487.375 331.625,484.875 341.375,483.125 358.75,481.0 396.625,478.5 413.625,476.875 423.875,475.0 429.625,473.5 434.875,471.75 439.5,469.75"/>
    <polyline points="441.75,468.625 447.5,465.125 451.0,462.5 456.75,456.625 460.25,451.75 464.0,444.5 466.625,436.5 467.875,429.875 468.25,425.25"/>
    <polyline points="468.375,422.75 468.25,415.125 467.625,409.875 466.5,404.25 464.875,398.5 461.125,389.625 457.5,383.5 452.625,377.5 446.25,371.625 437.75,366.125 432.625,363.75 426.625,361.5 419.875,359.625 412.0,358.125 403.0,357.25"/>
    <polyline points="392.75,357.125 381.125,357.875 367.875,359.875 353.0,363.25 336.625,368.25 318.75,375.5 300.0,385.0 280.75,397.125 262.0,412.0 245.0,429.375 231.0,448.75 221.375,469.25 216.875,489.875 217.875,509.5 223.875,527.125 234.0,542.125 246.875,554.125 261.25,563.25 276.0,569.875 290.375,574.375 303.625,577.25 315.75,578.875 326.375,579.5 335.625,579.625 343.625,579.25 350.5,578.5"/>
    <polyline points="356.25,577.625 365.5,575.5 375.0,572.25 391.75,563.625 396.5,561.625 402.875,559.75 409.375,558.75"/>
    <polyline points="410.875,558.625 417.0,558.625 421.25,559.125 425.25,560.0 428.75,561.25 431.75,562.75 434.25,564.625 436.75,567.5 437.5,569.0"/>
    <polyline points="437.875,569.875 438.375,571.625 438.375,575.25 437.125,579.0 435.25,582.0 432.625,584.875 427.625,588.375 422.75,590.75 419.0,592.0"/>
    <polyline points="417.0,592.5 412.625,593.25 407.875,593.625 405.375,593.75 400.125,593.375 392.125,591.875 386.875,590.125 381.875,587.75 375.375,583.125 372.125,579.375 370.875,577.375 369.25,573.375 368.875,571.25 369.125,567.0"/>
    <polyline points="369.75,565.0 371.75,561.125 374.75,557.5 378.75,554.375 381.0,553.0 388.625,549.5 399.75,546.5 408.25,545.25 416.5,544.75 421.75,544.75 429.0,545.25"/>
    <polyline points="431.375,545.5 439.75,546.875 445.125,548.375 449.875,550.25 454.0,552.5 457.375,554.875 460.125,557.75 462.75,561.875 463.625,564.125"/>
    <polyline points="464.0,565.375 464.75,570.5 464.625,573.25 463.5,579.125 460.875,585.375 457.75,590.375 455.125,593.75 450.0,598.75 443.25,603.75"/>
    <polyline points="440.625,605.25 434.625,608.125 427.625,610.75 419.625,612.75 410.375,614.0 400.0,614.25 388.625,613.25 382.625,612.25 370.25,608.875 364.125,606.5 358.125,603.625 352.25,600.25 346.875,596.5 341.875,592.375 337.625,587.75 334.0,583.0 331.25,577.875 329.5,572.75 328.625,567.625"/>
    <polyline points="328.75,562.5 329.75,557.625 331.625,552.875 334.375,548.5 337.75,544.5 341.75,540.75 346.25,537.5 351.125,534.5 361.5,529.75 372.375,526.125 377.75,524.75 393.625,521.75 408.125,520.0 417.0,519.25 436.25,518.25"/>
    <polyline points="439.625,518.125 472.125,517.625 488.75,518.25"/>
    <polyline points="489.75,518.375 495.5,519.125 498.5,519.875 501.375,521.0 503.625,522.75"/>
    <polyline points="503.875,523.0 505.0,524.375 505.875,526.5 506.375,529.0 506.5,533.0"/>
    <polyline points="506.5,533.625 506.0,540.875 503.875,554.125"/>
    <polyline points="503.625,555.25 500.875,567.125 498.0,576.75 494.625,586.0 489.75,596.375"/>
    <polyline points="488.5,598.625 485.875,603.25 482.625,608.125 478.75,613.125 474.125,618.125 468.5,623.375 461.625,628.5 453.375,633.5 443.125,638.125 437.125,640.25 430.5,642.125 423.25,643.625 415.125,644.875 406.25,645.625 396.5,645.75 385.75,645.25 374.25,643.875 362.0,641.5"/>
    <polyline points="349.125,638.0 335.875,633.25 322.5,627.125 309.625,619.625 297.5,610.75 286.875,600.625 278.375,589.625 272.25,577.875 268.875,566.0 268.375,554.375 270.625,543.375 275.375,533.375 282.0,524.5 290.125,516.875 299.25,510.5 309.0,505.375 318.75,501.125 328.625,497.875 338.0,495.375 347.125,493.375 363.75,490.625 391.125,487.875"/>
    <polyline points="396.875,487.375 412.0,486.0 424.5,484.25 438.0,481.375 443.75,479.625 451.375,476.75 457.75,473.375 463.375,469.625 469.75,464.0"/>
    <polyline points="471.125,462.5 475.0,457.75 479.375,450.75 482.125,444.875 484.625,438.5 488.625,424.25 491.75,407.5"/>
    <polyline points="492.25,404.375 498.75,360.25 501.5,346.625 505.5,331.75 509.375,321.125 511.875,315.5 514.875,309.75 518.5,303.75 522.875,297.5 528.125,291.125"/>
    <polyline points="534.625,284.625 542.625,277.875 552.375,271.0 564.5,264.125 579.5,257.25 598.0,250.75 620.875,245.125 648.875,241.0 682.5,239.375 721.625,242.125 765.25,251.125 810.125,268.875 851.25,297.5 882.0,336.875 896.75,384.75 893.875,435.75 876.625,484.625 850.875,526.875 822.875,560.875 797.0,586.5 775.625,604.75 759.625,617.0 748.5,624.25 741.625,627.5 738.0,627.375 736.625,624.5"/>
    <polyline points="736.5,619.25 736.75,602.875 736.0,592.75 733.875,581.75 730.375,570.375 725.5,559.0 719.25,548.0 712.125,537.625 704.125,528.125 695.625,519.5 687.0,511.75 678.5,505.125 670.125,499.375 662.125,494.5 654.5,490.375 640.75,484.125 628.875,479.875 623.625,478.375 614.25,476.25 602.5,474.625"/>
    <polyline points="599.125,474.25 567.375,473.25 559.25,471.875 554.125,470.0"/>
    <polyline points="553.25,469.5 551.625,468.5 549.0,466.125 547.0,463.375 546.25,461.75 545.0,456.375 544.875,453.375 545.375,448.875"/>
    <polyline points="545.625,447.75 546.875,442.75 548.375,438.75 550.375,434.625 554.0,428.875 557.5,424.5 561.75,420.125 566.875,415.875 570.875,413.25"/>
    <polyline points="573.0,412.0 577.75,409.625 582.875,407.625 585.625,406.75 591.5,405.5 597.625,404.875 604.125,404.875 610.625,405.75 613.875,406.625 617.0,407.625 622.875,410.625 625.625,412.375 630.375,416.875 632.375,419.5 634.0,422.25 635.25,425.25 636.125,428.375 636.625,431.625"/>
    <polyline points="636.75,435.0 635.875,441.875 634.875,445.25 631.875,452.0 627.75,458.25 620.0,466.75 611.25,473.75 602.125,479.25 590.375,484.5 584.75,486.5 577.0,488.625"/>
    <polyline points="574.625,489.125 570.0,490.125 563.625,491.0 556.25,491.5 551.5,491.5 544.875,490.875 540.5,489.875 537.0,488.625"/>
    <polyline points="536.25,488.25 532.375,485.625 529.75,482.25 527.75,477.25 527.125,472.25"/>
    <polyline points="527.0,471.25 527.125,466.25 527.625,461.625 528.75,455.25 530.125,449.625 534.0,438.375"/>
    <polyline points="534.75,436.625 537.25,431.25 540.5,425.5 545.875,417.5 553.125,409.25 557.625,405.125 565.625,399.125 572.125,395.375 579.5,392.125 587.75,389.25"/>
    <polyline points="592.375,388.125 602.125,386.625 612.75,386.375 623.875,387.75 629.5,389.125 635.0,390.875 640.375,393.25 645.5,396.25 650.125,399.75 654.375,403.75 658.0,408.25 661.0,413.25 663.125,418.625 664.5,424.25 665.125,430.125 664.75,436.125 663.75,442.125 662.0,448.125 659.5,453.875 656.375,459.5 652.875,464.875 649.0,469.875 644.75,474.5"/>
    <polyline points="640.25,478.875 635.75,482.75 626.375,489.625 617.125,495.125 604.0,501.5 595.875,504.625 581.625,509.0 569.5,511.75 553.0,514.75"/>
    <polyline points="551.125,515.0 534.75,517.75 527.875,519.5 522.875,521.25"/>
    <polyline points="522.25,521.5 517.875,524.25 515.0,527.25 512.75,531.0"/>
    <polyline points="512.5,531.5 510.875,535.5 509.375,540.375 506.875,550.125"/>
    <polyline points="506.625,551.125 502.375,567.5 497.375,582.625 495.0,588.5"/>
    <polyline points="494.125,590.5 491.0,597.0 487.0,603.875 483.75,608.75 479.875,613.75 472.625,621.625 466.375,626.875 458.875,632.125 449.625,637.0 444.25,639.375 438.25,641.5 431.5,643.375 424.125,645.0 416.0,646.25 406.875,647.125"/>
    <polyline points="397.0,647.25 386.125,646.75 374.375,645.375 361.75,643.0 348.625,639.5 334.875,634.75 321.125,628.375 307.75,620.75 295.375,611.625 284.375,601.125 275.5,589.75 269.25,577.625 265.875,565.375 265.5,553.375 268.0,542.125 273.0,531.875 280.0,522.75 288.5,515.125 297.875,508.625 307.875,503.5 318.0,499.25 327.875,496.125 337.5,493.625 346.75,491.625 363.5,489.125"/>
    <polyline points="371.125,488.25 411.5,484.625 419.875,483.5 430.875,481.5 440.0,479.125 447.875,476.25 456.625,471.75 462.125,467.875"/>
    <polyline points="463.75,466.5 466.875,463.625 471.0,459.0 474.5,454.0 477.625,448.5 480.25,442.5 482.5,436.0 485.0,426.5 486.875,415.875"/>
    <polyline points="487.375,413.0 488.5,404.125 489.75,387.5 490.5,368.625 490.5,337.5 489.5,311.625"/>
    <polyline points="489.25,306.0 487.125,282.125 485.375,269.375 482.625,256.0 480.875,249.125 478.5,242.125 475.5,235.125 471.75,228.125 466.875,221.125 460.375,214.25 451.75,207.625 440.125,201.75 424.375,196.75 403.0,193.5 373.5,193.0 333.125,197.375 278.125,209.875 205.625,235.875 116.25,282.375 20.625,356.75 0.0,384.1373"/>
    <polyline points="0.0,703.0555 20.5,720.875 88.5,748.5 136.5,755.25 158.75,749.375 157.25,734.25 137.5,710.5 107.5,677.125 76.75,634.625 55.5,585.75 51.0,536.125 64.125,491.875 90.0,457.5 121.25,434.0 151.625,420.375 177.25,414.375 196.875,414.125 210.5,417.75 219.125,424.5 224.125,433.375 226.875,444.0 230.625,468.125 233.5,480.625 237.75,492.75"/>
    <polyline points="243.875,504.125 251.5,514.25 260.5,523.125 270.625,530.5 281.375,536.5 292.375,541.125 303.25,544.625 313.75,547.25 323.875,549.0 333.375,550.125 342.25,550.75 350.5,551.0 365.25,550.875 377.875,550.375 402.125,548.75 419.625,548.375"/>
    <polyline points="422.5,548.5 430.375,549.0 439.0,550.5 447.375,553.375 451.25,555.625 453.5,557.25 455.375,559.125 457.625,562.125 459.125,565.375"/>
    <polyline points="459.5,566.5 460.25,571.5 459.625,576.875 458.875,579.75 457.625,582.75 455.125,587.375 451.5,592.125 448.375,595.25 442.5,599.875 437.625,602.75"/>
    <polyline points="435.0,604.125 425.5,607.625 418.0,609.375 409.5,610.5 400.125,610.625 395.0,610.25 384.375,608.75 378.875,607.375 367.875,603.5 362.5,601.0 357.375,598.125 352.625,594.875 348.125,591.125 344.25,587.25 341.0,583.0 338.5,578.625 336.75,574.125 335.75,569.5 335.625,565.0"/>
    <polyline points="336.25,560.625 337.625,556.375 339.75,552.375 342.5,548.625 345.875,545.125 349.625,542.0 353.875,539.125 363.125,534.375 368.0,532.5 377.875,529.375 382.875,528.125 397.375,525.5 410.875,524.0 423.125,523.25 437.25,522.875"/>
    <polyline points="440.5,522.75 451.875,522.875 469.5,523.875 480.25,525.5 486.875,527.25"/>
    <polyline points="487.875,527.625 491.125,529.125 495.375,532.375 498.375,537.125 499.625,541.5"/>
    <polyline points="499.75,542.25 500.125,545.625 500.0,552.625 498.75,562.375 496.75,571.125"/>
    <polyline points="496.25,572.75 492.875,583.25 489.5,591.25 486.125,597.75 480.125,607.0 474.0,614.25 468.875,619.25 462.625,624.375 459.125,626.75"/>
    <polyline points="455.125,629.25 450.75,631.625 440.5,636.0 428.125,639.625 420.875,641.0 413.0,642.125 404.25,642.625 394.75,642.625 384.375,642.0 373.375,640.5 361.625,638.125 349.375,634.625 336.875,630.0 324.375,624.125 312.25,616.875 301.0,608.375 291.25,598.875 283.25,588.5 277.625,577.5 274.5,566.375 274.0,555.5 276.125,545.125 280.375,535.625 286.5,527.25"/>
    <polyline points="294.125,519.875 302.75,513.75 311.875,508.625 321.25,504.5 330.625,501.125 339.75,498.625 348.5,496.5 364.875,493.75 386.0,491.25 408.5,489.25 422.0,487.625 433.25,485.75 445.625,482.625"/>
    <polyline points="448.375,481.75 455.75,478.875 460.125,476.75 465.875,473.125 470.875,469.25 473.875,466.5 479.125,460.375 484.5,451.875 487.25,446.125"/>
    <polyline points="488.125,444.0 490.625,437.625 492.875,430.75 497.125,415.0 502.5,393.125 506.75,378.625 509.5,370.75"/>
    <polyline points="511.125,366.75 512.875,362.5 517.25,353.625 522.875,344.375 526.25,339.5 530.25,334.5 535.0,329.5 540.375,324.25 546.75,319.0 554.25,313.75 563.0,308.5 573.375,303.375 585.625,298.375 600.0,294.0 616.875,290.25 636.375,287.5 658.75,286.625 683.875,288.0 711.125,292.75 739.375,301.75 766.875,315.75 791.25,335.5 809.75,360.5 820.5,389.75"/>
    <polyline points="822.375,421.25 816.0,452.75 803.5,482.25 787.0,508.25 769.0,530.25 751.375,548.0 735.25,561.875 721.125,572.375 709.125,580.0 699.25,585.375 691.25,588.875 684.875,590.75 679.75,591.375 675.5,591.0 672.0,589.75 668.875,587.75 666.125,585.25 649.25,565.25 642.375,558.375 638.75,555.25"/>
    <polyline points="635.0,552.125 627.125,546.625 615.375,540.0 607.625,536.5 596.5,532.625 586.375,530.125 577.125,528.625 568.875,527.875 561.5,527.75 555.125,528.0"/>
    <polyline points="553.125,528.25 545.875,529.125 537.125,531.375 534.75,532.25 528.375,535.375 524.875,537.875 522.625,540.0"/>
    <polyline points="521.875,540.625 519.25,543.75 515.25,550.125 511.75,557.875 508.125,567.25"/>
    <polyline points="507.625,568.75 502.0,584.25 495.375,599.0 488.25,611.125 482.25,619.125 479.875,621.75"/>
    <polyline points="477.25,624.5 471.125,630.125 463.75,635.625 459.375,638.375 449.0,643.625 443.0,646.0 436.125,648.125 428.625,650.125 420.125,651.625 410.75,652.75 400.375,653.125 388.875,652.875 376.25,651.75 362.75,649.5 348.25,646.0 333.125,641.0 317.75,634.375 302.625,626.0 288.5,616.0 275.875,604.375 265.75,591.625 258.5,578.0 254.75,564.25"/>
    <polyline points="254.5,550.75 257.5,538.125 263.375,526.875 271.625,517.0 281.25,508.875 291.875,502.125 302.875,496.875 313.875,492.75 324.5,489.625 334.625,487.25 344.25,485.5 361.25,483.25 403.75,480.125 416.25,478.625 426.5,476.625"/>
    <polyline points="429.625,475.875 435.25,474.25 442.625,471.25 448.875,467.875 454.25,464.0 458.875,459.625 462.75,454.875 467.0,447.875 470.25,440.0"/>
    <polyline points="470.875,437.875 472.875,428.875 473.5,424.0 473.875,416.25 473.625,408.0 472.5,399.125 470.25,389.75 466.625,379.75 463.0,373.0 458.125,366.25"/>
    <polyline points="455.125,362.875 451.625,359.5 447.5,356.25 442.875,353.125 437.375,350.25 430.875,347.625 423.5,345.25 414.75,343.5 404.75,342.375 392.875,342.0 379.25,342.875 363.625,345.0 345.75,349.125 325.625,355.5 303.375,364.625 279.875,377.125 255.75,393.25 232.75,413.0 212.625,436.125 197.75,461.625 189.625,487.75 189.0,513.125 195.625,535.75 207.875,554.625 224.0,569.5 241.875,580.25"/>
    <polyline points="259.75,587.625 276.375,592.25 291.25,594.75 304.0,595.75 314.75,595.75 323.375,594.875 330.375,593.5 335.75,591.875 340.0,589.875 343.25,587.75 345.875,585.375 349.375,580.5 355.875,567.5 359.25,562.625 361.125,560.375 365.75,556.0 371.0,552.25 374.0,550.625"/>
    <polyline points="377.0,549.125 383.375,546.5 389.875,544.375 399.875,542.25 409.625,541.0 421.75,540.5 432.5,541.0 439.75,541.875 448.0,543.625"/>
    <polyline points="449.875,544.125 456.5,546.5 462.875,550.25 466.0,552.875 469.0,556.875 471.125,561.375 472.0,565.125 472.25,567.75"/>
    <polyline points="472.25,569.125 472.0,573.5 470.625,579.75 469.375,583.125 466.875,588.375 463.375,593.75 458.5,599.375 452.25,605.0 444.125,610.5 440.875,612.125"/>
    <polyline points="437.375,613.75 429.375,616.625 424.875,617.875 414.875,619.75 403.375,620.5 390.375,619.875 383.5,619.0 376.25,617.5 368.875,615.5 361.5,613.0 354.125,609.875 346.875,606.125 340.125,601.75 333.875,596.75 328.25,591.375 323.75,585.5 320.125,579.5 317.75,573.125 316.625,566.875 316.625,560.625 317.875,554.75 320.25,549.125"/>
    <polyline points="323.625,543.875 327.875,539.125 332.875,534.875 338.25,531.25 344.125,527.875 350.125,525.125 356.375,522.75 368.875,519.0 381.0,516.375 398.0,513.875 422.0,511.625 447.625,509.75"/>
    <polyline points="450.75,509.5 468.25,507.625 477.75,506.125 489.0,503.5 494.25,501.625"/>
    <polyline points="495.125,501.25 498.5,499.625 503.125,496.375 505.75,493.875 509.5,488.375"/>
    <polyline points="509.875,487.625 513.5,478.875 518.125,463.75"/>
    <polyline points="518.5,462.5 522.0,450.875 527.0,437.0 531.625,427.0 536.625,418.25"/>
    <polyline points="538.0,416.0 543.125,409.0 547.25,404.125 552.125,399.375 557.75,394.5 564.375,389.875 568.125,387.625 576.625,383.375 586.375,379.75 597.625,377.125 603.75,376.25 610.25,375.625 617.0,375.625 624.0,376.0 631.125,377.125 638.375,378.75 645.625,381.125"/>
    <polyline points="652.625,384.25 659.125,388.125 665.25,392.75 670.625,398.25 675.0,404.375 678.375,411.125 680.75,418.375 681.75,426.0 681.625,433.875 680.5,441.625 678.125,449.375 675.0,456.875 671.0,464.0 666.375,470.75 661.25,477.0 655.875,482.75 650.25,487.875 644.5,492.625 638.75,496.75 627.625,503.75 617.0,509.125 612.0,511.375 602.625,515.0"/>
    <polyline points="598.25,516.5 590.125,519.0 579.375,521.75 545.625,529.125 536.75,532.0"/>
    <polyline points="535.5,532.625 530.875,534.75 528.875,536.0 526.125,537.875 523.0,540.625 520.125,543.75 516.5,549.125 515.5,551.125"/>
    <polyline points="514.875,552.25 510.75,561.625 503.875,580.375 499.875,590.125"/>
    <polyline points="499.0,592.25 493.375,603.625 487.0,613.625 482.875,619.0 475.0,627.25 468.375,632.875 464.5,635.625 455.375,641.125 444.0,646.125 429.875,650.25 421.5,651.875 412.125,653.0"/>
    <polyline points="401.875,653.625 390.375,653.5 377.875,652.5 364.375,650.375 349.875,647.0 334.75,642.125 319.25,635.625 303.875,627.5 289.5,617.625 276.5,606.0 265.875,593.25 258.25,579.625 254.125,565.625 253.5,552.0 256.25,539.25 261.875,527.625 269.875,517.625 279.625,509.125 290.25,502.25 301.25,496.875 312.375,492.625 323.125,489.375 333.375,487.0 351.875,483.875 360.25,483.0"/>
    <polyline points="367.875,482.25 407.375,479.375 415.5,478.375 422.625,477.125 434.5,474.0 444.125,470.0 451.875,465.125 455.125,462.375"/>
    <polyline points="456.625,460.875 460.75,456.375 464.25,451.25 467.125,445.75 468.75,441.875 470.0,437.75 471.625,431.0 472.75,421.375 472.875,416.25 472.375,407.875"/>
    <polyline points="472.125,405.0 470.5,396.125 468.625,389.75 466.25,383.375 464.625,380.0 460.75,373.375 455.375,366.75 448.375,360.25 444.0,357.25 438.875,354.25 433.0,351.625 426.125,349.25 418.25,347.25 409.0,345.875 398.25,345.25 385.875,345.5 371.5,347.0 355.25,350.125 336.875,355.125"/>
    <polyline points="316.375,362.625 294.375,373.0 271.375,386.625 248.625,403.75 227.75,424.25 210.625,447.5 199.125,472.375 194.25,497.125 196.625,520.5 205.25,540.875 218.5,557.625 234.75,570.375 252.0,579.625 269.0,585.875 284.625,589.625 298.625,591.75 310.5,592.5 320.625,592.25 328.875,591.5 335.5,590.25 340.875,588.625 345.125,586.875 348.5,585.0 353.375,580.875 355.25,578.625"/>
    <polyline points="356.75,576.5 362.375,567.625 367.5,561.5 371.625,557.875 378.875,553.25 381.5,551.875 387.125,549.625 395.75,547.125 404.625,545.5 415.875,544.625"/>
    <polyline points="418.5,544.625 426.25,544.75 433.125,545.5 439.5,546.625 445.0,548.125 451.25,550.625 455.125,552.875 458.375,555.5 461.0,558.375"/>
    <polyline points="461.625,559.375 462.375,560.375 463.875,563.75 464.75,567.375 465.0,572.75 464.625,575.625 462.25,583.25 458.5,589.875 454.375,594.875"/>
    <polyline points="452.75,596.625 446.75,601.625 441.875,604.875 436.0,607.875 429.25,610.5 421.25,612.625 412.25,614.125 407.25,614.5 396.5,614.375 390.75,613.875 378.625,611.625 372.375,609.875 366.125,607.625 360.0,604.875 354.0,601.75 348.375,598.125 343.25,594.0"/>
    <polyline points="338.625,589.625 334.75,584.75 331.625,579.75 329.5,574.625 328.25,569.375 328.0,564.25 328.75,559.25 330.375,554.375 332.875,549.875 336.0,545.625 339.875,541.75 344.25,538.375 349.0,535.25 354.125,532.5 364.875,528.125 370.25,526.375 381.25,523.625 391.75,521.75 401.75,520.375 415.5,519.125"/>
    <polyline points="419.75,518.75 445.0,517.625 461.125,517.25 482.625,517.375"/>
    <polyline points="483.875,517.375 493.875,518.0 499.625,519.125 502.125,520.25"/>
    <polyline points="502.5,520.375 503.5,521.0 505.75,523.625 506.5,525.5 506.875,527.75"/>
    <polyline points="506.875,528.25 507.0,534.25 505.875,543.625"/>
    <polyline points="505.75,544.5 503.25,558.0 500.5,569.0 498.5,575.5"/>
    <polyline points="498.0,577.25 494.5,586.5 490.75,594.875 484.0,606.375 480.375,611.25 476.0,616.375 467.75,624.125 460.875,629.25 452.25,634.25"/>
    <polyline points="447.25,636.625 435.625,640.875 428.875,642.625 421.375,644.125 413.0,645.25 403.875,645.75 393.875,645.75 383.0,645.125 371.25,643.5 358.75,640.875 345.75,637.0 332.375,632.0 319.125,625.5 306.25,617.625 294.5,608.375 284.375,598.0 276.25,586.625 270.875,574.875 268.25,563.0 268.5,551.5 271.375,540.625 276.625,530.875 283.75,522.25 292.25,515.0 301.625,509.0"/>
    <polyline points="311.375,504.0 321.25,500.125 331.0,497.0 349.25,492.75 373.125,489.375 403.5,486.75 421.5,484.625 429.0,483.375 435.625,481.875 441.625,480.25 449.5,477.375"/>
    <polyline points="451.75,476.25 456.125,474.125 462.0,470.5 468.5,465.0 472.75,460.375 476.375,455.375 479.5,450.0 482.25,444.125 485.25,435.5"/>
    <polyline points="486.0,433.25 489.125,420.75 490.625,412.375 492.625,400.125 496.375,371.25 500.0,349.75"/>
    <polyline points="500.875,345.0 504.75,330.0 508.5,319.25 513.875,307.75 517.375,301.75 521.625,295.5 526.75,289.0 533.125,282.375 541.0,275.5 550.625,268.5 562.625,261.5 577.5,254.5 596.125,247.875 619.125,241.875 647.25,237.5 681.375,235.5 721.375,237.875 766.25,246.75 812.75,264.625 855.5,293.75 887.5,334.375 902.875,383.75"/>
    <polyline points="899.75,436.75 881.375,487.0 854.5,530.375 825.625,565.0 799.25,590.875 777.875,609.125 762.125,621.125 751.5,628.0 745.25,630.75 742.25,630.125 741.625,626.375 742.625,612.0 742.875,602.0 741.875,590.875 739.5,578.875 735.5,566.75 729.875,554.625 723.0,543.0 715.0,532.125 706.375,522.375 697.375,513.5 688.375,505.875 679.375,499.25 670.875,493.5 662.625,488.75"/>
    <polyline points="655.0,484.875 647.875,481.625 635.375,476.875 624.625,473.875 615.5,472.125 607.75,471.125 598.0,470.625 577.0,471.125 570.25,471.0"/>
    <polyline points="568.75,471.0 561.0,469.875 556.875,468.5 555.125,467.625 552.875,466.125 551.0,464.25 549.5,462.25 548.125,459.125"/>
    <polyline points="547.875,458.25 547.125,453.625 547.125,451.625 548.25,444.875 549.375,441.25 551.0,437.375 552.375,434.75 556.0,429.25"/>
    <polyline points="557.0,427.875 560.625,423.75 563.5,421.0 568.5,417.0 572.375,414.5 576.625,412.25 583.875,409.5 591.875,407.625 597.625,407.125 600.625,407.125 606.625,407.75 609.625,408.25 612.5,409.125"/>
    <polyline points="615.375,410.125 618.125,411.375 623.25,414.625 627.5,418.75 629.25,421.125 630.625,423.75 632.625,429.375 633.125,435.375 632.875,438.5 632.375,441.625 630.25,447.875 628.75,451.0 625.0,456.875 617.875,464.75 612.625,469.25 607.0,473.125"/>
    <polyline points="604.25,474.875 593.0,480.625 585.0,483.625 580.0,485.125 572.875,486.75 564.625,488.0 559.125,488.375 554.25,488.375 550.0,488.0"/>
    <polyline points="548.75,487.875 545.125,487.25 542.125,486.375 538.625,484.875 536.5,483.5 533.125,480.125 531.0,476.0"/>
    <polyline points="530.75,475.125 529.625,469.0 529.625,463.875 530.25,458.0 532.75,447.0"/>
    <polyline points="533.25,445.5 536.25,437.375 539.625,430.375 542.875,424.75 548.5,416.875 552.0,413.0 558.25,407.0 563.25,403.125 569.0,399.375"/>
    <polyline points="572.125,397.625 579.125,394.375 591.25,390.625 600.5,389.125 605.375,388.875 615.625,389.125 620.875,389.875 631.375,392.75 636.5,394.75 641.25,397.375 645.75,400.5 649.875,404.125 653.5,408.25 656.5,412.75 658.75,417.625 660.375,422.75 661.125,428.25 661.25,433.875 660.625,439.5 659.25,445.125"/>
    <polyline points="657.125,450.625 654.625,456.0 651.5,461.125 648.0,466.0 644.125,470.625 635.75,478.75 627.0,485.75 622.5,488.75 609.5,496.0 597.375,501.125 589.875,503.75 579.875,506.625 565.625,509.75"/>
    <line x1="563.125" x2="527.25" y1="510.125" y2="515.5"/>
    <polyline points="526.5,515.625 522.625,516.5 519.75,517.5 516.75,519.0 515.375,520.125"/>
    <polyline points="515.125,520.375 512.875,523.25 511.75,525.625 510.875,528.5"/>
    <polyline points="510.75,528.875 508.875,536.0 507.0,545.0"/>
    <polyline points="506.75,545.875 503.625,560.0 500.5,571.625 498.25,578.375"/>
    <polyline points="497.625,580.125 492.875,591.875 488.25,600.75 481.875,610.375 477.75,615.5 469.875,623.25 463.125,628.5 455.0,633.625 445.0,638.375"/>
    <polyline points="439.125,640.5 425.5,644.125 417.5,645.375 408.75,646.25 399.0,646.625 388.5,646.25 377.0,645.125 364.75,643.0 351.75,639.75 338.375,635.25 324.75,629.375 311.5,622.125 298.875,613.375 287.75,603.375 278.5,592.25 271.625,580.5 267.625,568.375 266.625,556.375 268.375,545.125 272.75,534.625 279.125,525.375 287.25,517.5 296.375,510.75 306.125,505.375 316.125,501.0"/>
    <polyline points="326.0,497.5 335.625,494.875 344.875,492.75 361.875,490.0 410.625,485.25 419.25,484.25 426.875,483.0 436.875,480.75 442.625,479.0 452.5,475.0"/>
    <polyline points="454.625,473.875 460.5,470.25 465.625,466.25 471.375,460.25 473.875,457.0 476.125,453.5 480.0,446.0 482.5,439.75 485.25,430.625"/>
    <polyline points="485.875,428.125 489.0,412.125 491.0,396.625 496.0,340.25"/>
    <polyline points="496.625,335.375 498.875,319.625 501.125,308.375 504.5,296.375 509.625,283.5 513.125,276.75 517.625,269.75 523.125,262.375 530.125,254.875 539.0,247.0 550.375,238.875 565.0,230.75 583.875,222.5 608.0,214.875 638.875,208.25 677.75,204.25 725.5,204.75 781.375,213.0 841.5,233.375 897.75,269.75 938.625,323.0"/>
    <polyline points="954.375,388.5 943.375,457.0 913.375,519.0 876.125,569.0 841.0,605.875 813.25,631.0 794.5,646.75 784.0,654.75 780.375,656.625 781.625,653.0 785.5,644.625 790.25,632.125 793.75,616.25 794.75,597.875 792.5,578.0 786.5,557.75 777.375,538.125 766.0,520.0 753.0,504.0 739.625,490.125 726.375,478.5 714.0,469.0 702.625,461.5 692.5,455.625 683.75,451.25 676.0,448.0"/>
    <polyline points="669.5,445.875 663.75,444.5 658.875,443.875 654.5,443.875 650.75,444.375 644.25,446.375 641.25,447.75 635.75,451.125 619.75,462.5 608.75,469.25 600.625,473.375 592.75,476.625"/>
    <polyline points="590.125,477.5 580.5,480.375 576.125,481.375 568.0,482.625 562.625,483.0 556.5,482.875 551.125,482.125 546.75,480.875"/>
    <polyline points="545.875,480.5 544.0,479.75 541.0,477.75 539.125,476.0 537.125,473.25 536.0,471.0 535.0,467.5 534.5,462.625"/>
    <polyline points="534.375,461.625 534.625,457.0 535.375,452.0 538.125,442.125 542.375,432.375 546.5,425.5"/>
    <polyline points="547.75,423.625 552.125,418.125 555.5,414.5 557.375,412.625 564.0,407.25 571.875,402.25 581.5,398.0 585.125,396.75 592.75,394.875 596.875,394.25 605.625,393.625 614.625,394.25 623.875,396.25"/>
    <polyline points="628.375,397.875 632.75,399.75 636.875,402.25 640.625,405.0 644.125,408.25 647.125,411.875 649.625,415.875 651.625,420.125 652.875,424.625 653.625,429.375 653.75,434.125 653.125,439.125 652.0,444.0 650.375,448.875 648.125,453.625 645.5,458.125 639.25,466.625 635.75,470.5 628.125,477.5 620.125,483.375 612.125,488.25 608.25,490.25"/>
    <polyline points="604.375,492.125 593.375,496.75 583.375,500.0 574.5,502.25 566.625,503.875 557.5,505.25 542.25,506.625"/>
    <polyline points="540.875,506.75 528.125,506.75 521.75,505.75"/>
    <polyline points="521.375,505.625 518.5,504.125 517.5,503.125 516.375,500.625"/>
    <polyline points="516.25,500.375 515.875,497.375 516.25,489.875"/>
    <polyline points="516.375,489.375 517.625,480.25 519.875,468.625"/>
    <polyline points="520.125,467.5 523.375,454.5 525.25,448.375 529.0,438.0 533.5,428.375"/>
    <polyline points="534.5,426.375 536.875,422.125 541.125,415.625 548.5,406.5 553.125,402.0 558.5,397.375 568.375,390.75 572.125,388.75 580.625,385.0 590.5,382.0 595.75,380.75 601.5,379.875 607.5,379.25 613.75,379.125"/>
    <polyline points="620.125,379.375 626.75,380.25 633.5,381.625 640.125,383.625 646.625,386.25 652.75,389.625 658.5,393.625 663.75,398.375 668.125,403.75 671.75,409.75 674.25,416.25 675.875,423.125 676.375,430.125 675.75,437.375 674.25,444.625 671.75,451.625 668.5,458.5 664.625,465.0 655.375,476.75 645.0,486.625 634.25,494.75 623.75,501.125"/>
    <polyline points="618.625,503.75 604.375,510.125 595.875,513.125 588.0,515.5 574.5,518.875 543.25,525.375"/>
    <polyline points="541.625,525.875 534.875,527.875 528.5,530.75 523.5,533.875 518.5,539.0"/>
    <polyline points="517.875,539.75 514.375,545.375 511.75,551.125 506.5,565.875"/>
    <polyline points="506.0,567.375 499.25,586.25 494.5,596.75 489.25,606.25 485.875,611.25 479.75,619.0"/>
    <polyline points="477.25,621.75 471.5,627.25 468.125,629.875 460.375,635.375 455.75,638.0 445.0,642.875 438.75,645.125 431.75,647.125 423.875,648.75 415.125,650.0 405.5,650.875 394.875,651.0 383.25,650.25 370.625,648.625 357.125,646.0 342.875,641.875 328.25,636.375 313.5,629.25 299.25,620.5 286.25,610.25 275.125,598.625 266.375,586.0 260.75,572.875"/>
    <polyline points="258.375,559.75 259.25,547.125 263.25,535.375 269.625,525.0 278.0,516.0 287.625,508.5 298.125,502.5 308.75,497.625 319.375,493.875 329.625,491.0 339.375,488.875 357.125,486.0 379.25,483.875 406.75,481.75 415.25,480.75 426.25,478.875"/>
    <polyline points="429.5,478.125 438.125,475.625 445.625,472.625 451.875,469.125 457.375,465.25 462.0,460.875 466.0,456.125 470.375,449.125 473.0,443.25"/>
    <polyline points="473.75,441.25 475.875,434.75 478.125,422.75 479.0,412.0 479.0,403.125 478.625,396.875 476.75,383.625 474.0,372.875 472.625,369.125"/>
    <polyline points="471.125,365.375 469.375,361.5 465.0,353.875 458.875,346.125 455.0,342.375 450.5,338.625 445.125,335.125 438.75,331.75 431.25,328.875 422.25,326.25 411.75,324.375 399.125,323.5 384.125,323.625 366.5,325.5 345.875,329.375 322.0,336.25 295.0,346.625 265.5,361.375 234.875,381.25 205.25,406.375 179.75,436.375 161.875,469.5 154.0,503.125 157.0,534.625"/>
    <polyline points="169.5,561.375 188.625,582.25 210.75,597.125 233.0,606.875 253.375,612.625 270.875,615.25 284.875,615.75 295.75,614.75 303.625,612.75 309.0,609.875 312.375,606.5 314.125,602.5 315.0,598.25 315.125,593.5 314.625,583.125 314.75,577.75 315.25,572.375 316.25,566.875 318.0,561.625 320.375,556.5 323.5,551.625 327.25,547.25 331.625,543.125 336.375,539.375 341.5,536.0"/>
    <polyline points="347.0,533.125 358.375,528.375 364.125,526.5 375.75,523.5 386.875,521.25 397.375,519.75 411.875,518.25 436.0,516.75 457.0,516.0"/>
    <polyline points="459.5,515.875 480.5,515.25 495.375,515.25"/>
    <polyline points="496.125,515.25 502.625,515.75 504.375,516.125 506.375,517.0"/>
    <polyline points="506.625,517.125 508.25,518.625 509.125,521.5"/>
    <polyline points="509.125,521.75 509.125,525.75 508.5,530.875"/>
    <line x1="508.5" x2="505.375" y1="531.375" y2="549.875"/>
    <polyline points="505.125,550.875 503.75,557.75 500.5,570.125 497.25,580.375 494.25,588.0"/>
    <polyline points="493.25,590.125 489.0,598.75 484.75,605.75 481.25,610.625 474.625,618.375 469.0,623.5 462.25,628.75 453.875,633.75 449.125,636.125 437.75,640.5 431.125,642.375 423.875,644.0 415.75,645.25 406.875,646.0"/>
    <polyline points="397.0,646.25 386.375,645.75 374.875,644.375 362.5,642.125 349.5,638.625 336.125,633.875 322.625,627.875 309.5,620.25 297.25,611.375 286.5,601.25 277.75,590.125 271.5,578.25 268.0,566.375 267.375,554.5 269.625,543.375 274.375,533.25 281.0,524.25 289.25,516.625 298.375,510.125 308.125,504.875 318.125,500.75 328.0,497.375 337.5,494.875 346.625,492.875 363.375,490.25"/>
    <polyline points="371.0,489.25 411.625,485.5 420.25,484.5 431.25,482.5 437.625,481.0 443.375,479.25 450.875,476.25 457.375,472.875 462.875,469.125"/>
    <polyline points="464.625,467.75 467.75,465.0 472.0,460.375 476.75,453.75 479.75,448.125 482.375,442.125 484.625,435.5 486.625,428.5 488.875,418.0"/>
    <polyline points="489.375,415.25 491.625,400.25 496.875,354.5 498.25,345.25 501.125,330.375 503.75,319.75 505.625,314.125"/>
    <polyline points="507.625,308.375 513.25,296.125 517.125,289.75 521.75,283.125 527.5,276.25 534.625,269.125 543.5,261.875 554.625,254.375 568.75,246.875 586.5,239.5 608.75,232.75 636.625,227.0 671.125,223.5 712.5,224.0 760.375,230.75 812.0,247.0 861.375,275.625 900.5,317.875 921.375,371.375 920.375,430.125 901.125,486.5 871.375,535.0 839.375,573.25 810.75,601.25 788.25,620.625"/>
    <polyline points="772.5,632.75 762.875,639.25 758.375,640.875 757.375,638.5 760.625,623.75 762.375,612.5 762.75,599.25 761.25,584.75 757.625,569.75 751.625,554.75 743.75,540.25 734.5,526.875 724.25,514.875 713.625,504.25 703.0,495.125 692.75,487.375 683.125,481.0 674.125,475.75 658.375,468.25 651.5,465.625 645.5,463.75 640.0,462.25 630.5,460.625"/>
    <polyline points="626.375,460.375 619.125,460.375 612.875,460.875 604.75,462.375 589.375,466.375 582.0,468.0 573.75,469.125 570.875,469.25"/>
    <polyline points="569.5,469.25 562.125,468.5 558.25,467.375 555.75,466.125 552.375,463.375 550.5,460.75 549.5,458.375"/>
    <polyline points="549.25,457.5 548.5,452.0 548.875,447.875 549.625,444.5 551.25,439.625 553.125,435.875 557.375,429.25"/>
    <polyline points="558.5,427.875 563.5,422.5 569.875,417.5 575.75,414.125 582.375,411.25 590.0,409.375 598.125,408.625 603.875,408.875 612.25,410.75"/>
    <polyline points="614.875,411.875 617.5,413.125 622.125,416.375 624.25,418.25 627.625,422.625 629.875,427.75 630.5,430.5 630.875,433.375 630.625,439.125 629.125,445.125 627.875,448.125 626.5,451.0 622.875,456.5 620.75,459.125 616.125,463.875 611.125,468.25 605.75,472.0"/>
    <polyline points="603.125,473.625 600.375,475.25 592.25,479.125 587.125,481.125 577.375,484.0 570.875,485.375 564.875,486.125 557.875,486.5 550.625,486.0"/>
    <polyline points="549.375,485.875 542.875,484.125 541.125,483.375 538.125,481.5 536.25,479.875 534.75,478.0 533.125,475.125 532.375,472.875"/>
    <polyline points="532.125,472.0 531.25,466.5 531.25,462.25 531.75,457.5 533.0,450.875 535.75,442.0"/>
    <polyline points="536.25,440.375 538.375,435.375 543.125,426.5 548.5,418.875 553.5,413.125 562.25,405.375 567.625,401.75 573.75,398.375 580.625,395.375"/>
    <polyline points="584.375,394.0 592.625,391.875 601.625,390.625 611.25,390.5 621.375,391.875 631.375,394.75 636.125,396.875 640.625,399.5 644.875,402.625 648.625,406.25 651.875,410.25 654.625,414.625 656.625,419.375 658.0,424.375 658.75,429.625 658.625,434.875 657.875,440.375 656.5,445.75 654.5,451.0 651.875,456.125 648.875,461.0"/>
    <polyline points="645.5,465.625 637.875,474.125 629.5,481.375 620.875,487.375 612.5,492.375 600.375,498.0 589.25,502.0 579.375,504.875 573.5,506.25 558.5,509.0"/>
    <polyline points="556.375,509.25 538.375,511.5 525.5,512.75"/>
    <polyline points="524.875,512.875 518.125,514.0 516.0,514.625 514.125,515.625 513.0,516.75 511.875,518.625 510.5,524.0"/>
    <line x1="510.375" x2="508.25" y1="524.375" y2="536.0"/>
    <polyline points="508.125,536.625 505.625,549.875 503.25,560.25"/>
    <polyline points="503.0,561.5 498.625,576.75 494.375,588.0 490.375,596.5 486.375,603.375 483.125,608.25"/>
    <polyline points="481.375,610.75 474.75,618.375 469.125,623.625 465.875,626.25 458.375,631.375 454.125,633.875 449.25,636.25 437.875,640.625 431.375,642.5 424.0,644.125 415.875,645.375 407.0,646.125 397.25,646.375 386.5,645.875 375.0,644.625 362.625,642.25 349.625,638.875 336.25,634.125 322.625,628.0 309.5,620.5 297.25,611.625"/>
    <polyline points="286.375,601.375 277.5,590.25 271.25,578.375 267.75,566.375 267.125,554.625 269.375,543.375 274.0,533.25 280.75,524.25 289.0,516.5 298.25,510.0 308.0,504.75 317.875,500.625 327.75,497.25 337.375,494.75 346.5,492.75 355.125,491.25 370.875,489.125 416.0,484.875"/>
    <polyline points="420.125,484.375 431.125,482.375 437.5,480.875 443.25,479.125 453.0,475.0 457.25,472.75 462.75,469.0 466.125,466.25 470.5,461.875 475.375,455.25"/>
    <polyline points="476.5,453.5 478.625,449.875 481.375,444.0 485.125,433.0 487.0,425.75 490.0,409.25 492.375,389.875"/>
    <polyline points="492.75,386.25 496.625,349.625 499.625,330.0 503.5,313.75 507.5,302.0 510.125,295.875 513.5,289.375 517.5,282.75 522.375,275.875 528.625,268.875 536.375,261.5 546.25,253.875"/>
    <polyline points="558.625,246.25 574.25,238.5 594.125,231.0 619.25,224.25 650.875,219.0 689.75,216.75 736.125,219.5 788.625,230.5 842.875,253.0 891.125,290.0 923.625,340.875 933.625,401.125 921.125,462.625 893.375,517.875 859.75,562.625 827.875,596.125 801.875,619.5 783.25,634.625 771.875,643.125 766.25,646.0 765.125,644.375 769.5,629.5 772.125,617.375 773.25,603.125 772.25,587.25"/>
    <polyline points="768.625,570.5 762.375,553.875 754.0,538.0 743.875,523.25 732.75,510.125 721.125,498.625 709.75,488.875 698.875,480.75 688.625,474.125 679.375,468.75 670.875,464.5 663.375,461.25 656.625,458.875 645.375,455.875 636.25,454.875 628.875,455.125 622.5,456.25 616.875,457.75 609.375,460.5"/>
    <polyline points="607.0,461.5 593.75,466.75 581.875,470.25 576.625,471.25 570.125,472.0 564.5,472.0 562.0,471.625"/>
    <polyline points="560.875,471.5 557.5,470.75 553.875,469.25 550.25,466.625 548.0,464.0 546.875,461.75 546.0,459.125 545.5,456.375"/>
    <polyline points="545.5,455.5 545.375,452.375 545.75,449.0 546.5,445.5 548.125,440.375 551.5,433.5 553.25,430.75 555.25,427.75 559.0,423.5"/>
    <polyline points="560.375,422.0 563.375,419.125 566.875,416.375 575.125,411.25 580.0,409.125 585.25,407.375 594.0,405.625 600.25,405.25 606.625,405.625 609.75,406.25 613.0,407.0 619.125,409.25 624.625,412.5"/>
    <polyline points="627.125,414.625 631.375,419.375 633.0,422.0 635.25,428.0 636.0,434.5 635.75,437.75 635.25,441.125 633.0,447.875 629.625,454.375 627.5,457.375 625.25,460.375 620.125,465.75 614.375,470.625 608.5,474.75 602.5,478.375 596.625,481.25"/>
    <polyline points="593.75,482.5 590.875,483.75 582.75,486.5 575.125,488.5 568.375,489.75 562.25,490.5 555.125,490.875 550.625,490.75 544.25,490.0"/>
    <polyline points="543.125,489.75 541.0,489.25 537.5,487.875 533.375,485.25 531.375,483.125 530.125,481.25 528.5,477.0"/>
    <polyline points="528.25,476.25 527.625,472.0 527.625,466.0 528.25,460.25 529.5,453.75 531.0,447.875"/>
    <polyline points="531.5,446.375 533.75,439.875 536.875,432.875 542.125,423.375 544.875,419.5 548.0,415.375 551.625,411.25 558.25,405.125 563.375,401.125 566.375,399.25"/>
    <polyline points="569.375,397.375 572.75,395.5 580.125,392.25 588.5,389.5 597.75,387.625 608.0,386.875 618.75,387.5 624.375,388.375 629.875,389.75 635.25,391.75 640.5,394.125 645.5,397.125 650.125,400.625 654.25,404.625 657.75,409.125 660.5,414.125 662.625,419.375 663.875,425.0 664.25,430.875 664.0,436.75 662.875,442.75"/>
    <polyline points="661.0,448.625 658.5,454.375 655.375,459.875 648.0,470.0 643.75,474.625 639.375,478.75 630.25,486.25 625.625,489.375 616.5,494.875 607.625,499.25 599.375,502.75 584.625,507.625 566.625,511.75"/>
    <polyline points="564.0,512.25 538.375,516.375 529.625,518.125 527.125,518.875"/>
    <polyline points="526.375,519.125 521.75,520.75 519.25,522.125 516.125,524.625 514.625,526.5"/>
    <polyline points="514.375,526.875 511.875,531.5 510.0,536.875 508.875,541.125"/>
    <polyline points="508.625,542.0 503.75,561.875 501.25,570.5"/>
    <polyline points="500.75,572.125 496.5,584.5 493.875,590.5 491.875,594.875 488.25,601.625 485.25,606.375 479.625,613.875 475.0,619.0 472.375,621.625 466.125,626.875"/>
    <polyline points="462.5,629.5 454.125,634.625 449.25,637.0 443.75,639.375 437.75,641.5 431.0,643.375 423.625,645.0 415.375,646.125 406.375,646.875 396.375,647.125 385.5,646.5 373.75,645.125 361.125,642.75 347.875,639.125 334.25,634.25 320.625,627.875 307.25,620.125 295.0,611.0 284.125,600.5 275.375,589.0 269.375,577.0 266.125,564.75 265.875,552.875 268.5,541.625 273.5,531.5"/>
    <polyline points="280.625,522.5 289.125,514.875 298.625,508.5 308.5,503.375 318.625,499.25 328.5,496.125 338.125,493.625 347.25,491.75 355.875,490.375 378.5,487.625 411.75,484.75 427.625,482.375 440.25,479.25"/>
    <polyline points="443.0,478.25 448.125,476.375 456.875,471.875 460.625,469.375 465.625,465.25 471.25,459.125 474.75,454.125 477.875,448.625 481.25,440.5"/>
    <polyline points="482.0,438.375 484.125,431.5 486.375,421.5 488.5,407.375 489.5,397.875 490.75,380.375 491.5,360.5"/>
    <polyline points="491.625,356.125 493.0,287.875 494.25,268.375 496.0,254.25 497.375,246.875 499.0,239.125 501.375,231.25 504.5,223.0 508.625,214.375 514.375,205.375 522.0,195.875"/>
    <polyline points="532.625,186.0 547.125,175.5 567.125,164.75 594.875,153.75 633.25,143.5 685.75,135.875 755.5,134.375 842.5,146.25 938.75,181.75 1022.25,250.125 1024.0,254.3229"/>
    <polyline points="1024.0,508.4596 997.875,557.625 937.375,629.875 889.5,676.75 861.625,703.5 853.25,714.375 860.25,712.0 876.5,697.375 895.0,671.25 908.5,635.0 911.625,592.125 902.375,547.125 882.625,504.75 857.0,468.125 830.5,438.75"/>
    <polyline points="806.5,416.625 787.125,400.875 772.875,390.75 763.625,385.125 758.375,383.375 756.125,385.0 755.625,389.5 756.0,405.625 755.125,416.375 752.875,428.25 749.0,440.625 743.5,453.0 736.625,465.125 728.5,476.5 719.625,486.875 710.25,496.25 700.875,504.5 691.5,511.5 682.375,517.625 673.625,522.625 665.375,526.875 657.625,530.375 643.5,535.5 637.25,537.25"/>
    <polyline points="631.25,538.75 615.625,541.5 606.75,542.5 582.125,544.125 566.5,545.75 560.125,547.0 552.625,549.125"/>
    <polyline points="550.875,549.75 546.25,551.75 542.0,554.125 538.25,556.875 534.875,559.875 531.75,563.25 528.0,568.375 523.0,577.25"/>
    <polyline points="522.25,578.875 519.75,584.125 510.0,607.875 505.0,618.5 498.25,630.25 491.25,639.875"/>
    <polyline points="488.375,643.125 485.25,646.5 477.625,653.25 473.0,656.75 467.875,660.125 462.0,663.375 455.25,666.5 447.625,669.5 438.875,672.25 428.75,674.625 417.25,676.375 404.125,677.375 389.125,677.5 372.25,676.25 353.375,673.375 332.75,668.375 310.625,661.0 287.875,650.75 265.5,637.5 244.875,621.125 227.75,602.25 215.5,581.75 209.375,560.5 209.375,540.125 215.25,521.625"/>
    <polyline points="225.625,505.75 239.0,492.875 254.0,482.875 269.375,475.5 284.125,470.25 298.0,466.625 310.5,464.375 321.625,463.125 331.5,462.5 340.125,462.375 360.125,463.5 390.0,467.5 402.25,468.0"/>
    <polyline points="404.375,467.875 414.5,466.25 419.75,464.5 426.125,461.375 430.25,458.5 433.75,455.25 437.5,450.25 439.5,446.125"/>
    <polyline points="440.0,444.625 441.125,440.0 441.125,433.5 440.5,430.125 439.375,426.75 436.625,421.5 434.0,418.125 430.625,414.875 426.25,411.875 423.75,410.5 417.875,408.0 410.75,406.25"/>
    <polyline points="406.625,405.625 402.25,405.25 392.125,405.5 380.625,407.25 367.75,411.0 361.0,413.625 354.0,416.875 347.0,420.875 340.125,425.375 333.5,430.625 327.25,436.375 321.75,442.75 317.0,449.375 313.25,456.5 310.75,463.625 309.375,470.875 309.375,477.875 310.625,484.5 313.125,490.75 316.75,496.5 321.125,501.625 326.375,506.125 332.25,509.875"/>
    <polyline points="338.5,513.125 351.75,518.0 358.375,519.625 365.0,520.875 377.875,522.625 389.875,523.375 406.0,523.5 456.875,521.625"/>
    <polyline points="459.375,521.5 473.5,521.625 483.625,522.5 489.0,523.5 493.75,525.125"/>
    <polyline points="494.5,525.375 498.25,527.875 500.125,530.0 501.5,532.5 502.75,537.25"/>
    <polyline points="502.75,538.0 503.0,545.0 502.625,549.75 501.25,558.875 500.375,562.75"/>
    <polyline points="500.125,564.125 496.75,576.625 494.875,582.0 491.625,589.875 488.5,596.25 484.5,603.125 481.25,607.875 477.25,612.875"/>
    <polyline points="475.0,615.375 472.625,617.875 466.875,623.0 463.625,625.5 456.0,630.5 451.5,633.0 446.625,635.25 435.125,639.375 428.5,641.125 421.125,642.625 413.0,643.75 404.0,644.25 394.25,644.25 383.625,643.625 372.25,642.0 360.125,639.5 347.5,635.875 334.5,631.0 321.625,624.75 309.125,617.25 297.625,608.375 287.625,598.375 279.625,587.5"/>
    <polyline points="274.125,576.125 271.25,564.625 271.125,553.375 273.625,542.875 278.375,533.125 285.125,524.625 293.125,517.375 302.125,511.25 311.625,506.25 321.25,502.25 330.75,499.0 340.0,496.5 349.0,494.625 357.375,493.125 372.875,491.0 408.5,487.625 425.75,485.5"/>
    <polyline points="429.375,484.75 439.25,482.625 447.75,480.0 454.875,477.0 459.125,474.75 464.875,471.0 471.25,465.625 474.0,462.625 480.0,454.375"/>
    <polyline points="481.0,452.5 483.0,448.75 485.625,442.75 487.25,438.5 490.125,429.25 494.5,410.375 499.125,387.625"/>
    <polyline points="499.875,384.0 503.5,368.375 507.5,355.375 513.125,341.25 515.625,336.25 518.625,331.125 526.0,320.375 530.75,314.875 536.5,309.125 543.25,303.25 551.375,297.375 561.0,291.375 572.75,285.5 586.75,279.875 603.75,274.75 623.875,270.375 647.75,267.625 675.5,267.0"/>
    <polyline points="706.875,269.875 740.875,277.375 775.625,291.0 807.875,312.0 833.75,340.5 849.75,375.5 853.875,414.125 846.625,453.25 830.75,489.5 810.25,520.875 788.375,546.5 767.75,566.625 749.75,581.625 735.0,592.375 723.375,599.625 714.625,604.0 708.25,606.0 703.75,606.125 700.5,604.625 698.125,601.875 696.25,598.0 690.25,582.0 687.5,575.75 684.25,569.5"/>
    <polyline points="680.5,563.25 676.25,557.0 671.5,551.125 661.0,540.375 649.875,531.25 644.125,527.25 633.0,520.625 627.625,517.875 617.25,513.375 603.25,508.625 595.0,506.5 584.0,504.375 569.0,502.5"/>
    <polyline points="566.375,502.25 540.125,500.125 533.125,498.875 530.875,498.125"/>
    <polyline points="530.125,497.875 526.625,496.25 524.125,494.125 522.25,491.0 521.25,487.75"/>
    <polyline points="521.125,487.125 520.75,479.5 521.0,476.0 522.5,465.75"/>
    <polyline points="522.75,464.625 525.125,454.0 528.625,443.0 532.25,434.125 537.375,424.25"/>
    <polyline points="538.625,422.125 544.5,413.5 548.25,409.125 555.0,402.375 560.5,398.0 566.75,393.75 570.25,391.75 578.125,388.0 587.125,384.875 592.125,383.5 602.875,381.75 608.75,381.375 614.75,381.375 621.0,381.75 627.25,382.75"/>
    <polyline points="633.625,384.25 639.875,386.375 646.0,389.0 651.75,392.375 657.125,396.375 661.875,401.125 665.875,406.25 669.0,412.125 671.25,418.25 672.625,424.75 672.875,431.5 672.25,438.375 670.625,445.25 668.25,451.875 665.125,458.375 661.375,464.5 657.125,470.25 652.5,475.625 647.625,480.625 642.5,485.125 637.375,489.25 632.25,492.875 622.125,499.125 612.375,504.0"/>
  </g>
</svg>
