<?xml version="1.0" encoding="utf-8" ?>
<svg xmlns="http://www.w3.org/2000/svg" xmlns:cc="http://creativecommons.org/ns" xmlns:dc="http://purl.org/dc/elements/1.1/" xmlns:ev="http://www.w3.org/2001/xml-events" xmlns:inkscape="http://www.inkscape.org/namespaces/inkscape" xmlns:rdf="http://www.w3.org/1999/02/22-rdf-syntax-ns" xmlns:sodipodi="http://sodipodi.sourceforge.net/DTD/sodipodi-0.dtd" xmlns:xlink="http://www.w3.org/1999/xlink" baseProfile="tiny" height="27.09333333cm" version="1.2" viewBox="0 0 1024.0 1024.0" width="27.09333333cm">
  <metadata>
    <rdf:RDF>
      <cc:Work>
        <dc:format>image/svg+xml</dc:format>
        <dc:source>vpype read './original_svgs/Strange Attractors #173.svg' linemerge linesimplify write './Strange Attractors #173.svg'
</dc:source>
        <dc:date>2024-08-05T01:35:33.195657</dc:date>
      </cc:Work>
    </rdf:RDF>
  </metadata>
  <defs/>
  <g fill="none" id="layer1" inkscape:groupmode="layer" inkscape:label="1" stroke="black" stroke-width="0.7mm" style="display:inline">
    <polyline points="610.0,253.125 622.0,266.875 629.75,277.375 634.375,284.5 636.375,288.375 636.625,289.5 628.5,282.625 623.375,279.0 617.375,275.5 610.5,272.875 602.875,271.375 594.875,271.125 586.625,272.625 578.375,275.625 570.375,280.125 562.625,285.875 555.375,292.875 548.75,300.625 542.75,309.125 537.375,317.875 532.625,326.875 528.375,335.875 521.625,353.375"/>
    <polyline points="519.0,361.625 514.625,377.0 511.375,391.0 507.75,409.0 501.625,444.0 499.0,456.375 497.0,464.125 494.875,470.625"/>
    <polyline points="494.125,472.625 489.625,482.75 485.375,489.25 481.625,493.5 477.5,497.125 470.625,501.625"/>
    <polyline points="469.375,502.375 458.25,507.125 426.5,517.25"/>
    <polyline points="424.25,518.0 414.625,521.625 401.75,527.875 393.625,533.125 388.25,537.5 382.875,542.75 380.25,545.875 375.25,552.875 370.875,561.375 369.0,566.375 367.5,571.75 366.25,577.625 365.625,584.0"/>
    <polyline points="365.375,590.875 365.875,598.25 367.0,606.0 369.125,614.25 372.25,622.75 376.375,631.25 381.625,639.625 388.125,647.625 395.625,655.125 404.25,661.625 413.75,667.0 423.875,671.0 434.375,673.625 445.0,674.75 455.375,674.375 465.25,672.75 474.5,670.0 483.0,666.375 490.625,662.125 497.5,657.375 503.375,652.25 508.5,647.0 512.875,641.75 516.625,636.5 522.5,626.5"/>
    <polyline points="524.75,621.625 529.75,608.375 532.0,600.5 540.0,565.375 542.625,557.125 545.625,550.25"/>
    <polyline points="546.5,548.625 548.125,545.625 550.875,541.625 555.0,536.875 557.25,534.75 562.25,530.875 566.375,528.25 570.875,525.75 577.5,522.625"/>
    <polyline points="579.25,521.875 602.875,512.375 613.5,507.625 622.375,503.125 628.75,499.375 635.5,494.875 642.625,489.375 646.25,486.125"/>
    <polyline points="650.125,482.5 658.0,473.875 662.0,468.75 666.125,462.875 670.25,456.25 674.375,448.625 678.375,439.875 682.25,430.0 686.0,418.625 689.25,405.75 692.0,391.125 694.125,374.5 695.125,355.875 694.75,335.25 692.625,312.875 688.125,289.125 681.0,264.875 670.875,241.375 657.375,220.0 641.0,202.625 622.0,190.75 601.5,185.375 580.625,186.875 560.375,194.625 541.75,207.375"/>
    <polyline points="525.5,223.5 511.75,241.5 500.375,260.0 491.25,278.125 484.125,295.125 478.625,310.625 474.5,324.5 471.25,336.875 467.25,357.375 464.375,379.5 463.625,390.125 462.75,411.5 462.125,418.875 461.375,423.125"/>
    <polyline points="461.0,425.125 459.375,430.5 457.25,435.125 455.625,437.875 451.625,442.75 446.875,446.5 442.75,448.75 439.875,449.875 433.5,451.25"/>
    <polyline points="431.75,451.375 424.625,451.125 417.125,449.25 411.375,446.625 407.625,444.0 403.875,440.75 400.375,436.75 397.375,431.875 396.0,429.0 393.875,422.375 393.125,418.75 392.625,414.625 392.5,410.375"/>
    <polyline points="392.75,405.625 394.625,395.375 396.375,389.875 398.75,384.25 401.75,378.375 405.375,372.625 409.875,366.875 415.0,361.375 420.75,356.25 427.25,351.625 434.375,347.75 441.75,344.625 449.5,342.5 457.375,341.375 465.125,341.25 472.625,342.125 479.875,344.0 486.5,346.625 492.625,350.0 498.125,354.0 502.875,358.375 507.125,363.125 510.625,368.0 513.75,373.125 516.25,378.25"/>
    <polyline points="518.25,383.25 521.375,393.25 523.25,402.625 524.375,411.5 525.125,423.625 525.25,431.0 525.125,467.875"/>
    <polyline points="525.125,469.75 526.0,480.625 527.375,487.375 528.25,490.125 529.75,493.125 531.75,496.0"/>
    <polyline points="532.25,496.5 535.5,499.0 540.0,500.75 544.75,501.5 550.5,501.625"/>
    <polyline points="551.5,501.5 557.125,501.125 568.125,499.25 579.875,496.125 589.75,492.5"/>
    <polyline points="592.0,491.5 596.5,489.5 606.125,484.125 611.375,480.75 616.875,476.5 622.625,471.625 628.625,465.5 631.625,462.0 637.75,453.875 643.875,443.875 646.875,438.125 649.75,431.625 655.125,416.625 657.5,407.875 659.5,398.375"/>
    <polyline points="661.125,387.875 662.25,376.5 662.625,364.25 662.125,351.125 660.625,337.375 658.0,323.25 654.125,309.0 648.75,295.125 641.875,282.125 633.625,270.625 624.0,261.25 613.125,254.5 601.625,250.625 589.625,250.0 577.625,252.375 566.125,257.5 555.25,265.0 545.25,274.375 536.375,284.875 528.625,296.25 522.0,307.875 516.25,319.375 511.5,330.625 507.375,341.375 504.0,351.5 501.25,361.125"/>
    <polyline points="498.875,370.0 493.625,392.875 487.25,425.625 483.75,440.75 480.875,449.75 477.875,457.25 474.5,463.75 470.875,469.125"/>
    <polyline points="469.625,470.75 466.875,473.875 462.625,477.875 457.875,481.375 452.75,484.375 447.25,487.0 439.125,490.0 432.5,492.0 422.75,494.25"/>
    <polyline points="420.125,494.75 386.625,500.75 375.625,503.0 363.75,505.875 351.0,510.0 342.0,513.875 337.375,516.25 327.875,522.375"/>
    <polyline points="323.125,526.25 318.25,530.75 313.5,536.125 308.75,542.5 304.25,550.0 300.125,559.125 296.5,569.75 293.75,582.5 292.25,597.375 292.375,614.875 295.0,634.75 300.875,657.125 310.875,681.125 326.0,705.625 346.5,729.0 372.25,748.875 402.125,763.125 433.875,770.75 465.375,771.375 494.125,766.375 518.875,757.375 539.0,746.625 554.625,735.625 566.25,725.375 574.5,716.5 579.875,709.125"/>
    <polyline points="583.125,703.375 584.625,698.875 584.875,695.5 583.875,692.75 582.0,690.75 579.5,688.875 565.25,681.125 561.25,678.5 557.25,675.375 549.5,668.25 545.875,664.125 539.375,655.125 533.875,645.375 529.25,635.375 525.75,625.375 522.0,611.25"/>
    <polyline points="521.125,606.75 520.375,602.375 518.625,586.75 518.125,573.75 519.0,556.0 520.0,548.25 521.625,540.375"/>
    <polyline points="521.875,539.0 523.75,533.0 526.125,527.5 527.5,525.125 530.5,521.25 533.375,518.75"/>
    <polyline points="534.0,518.25 538.75,515.25 543.625,513.125 555.875,509.125"/>
    <polyline points="557.125,508.75 568.25,505.625 582.0,501.125 592.375,497.125 601.75,492.625"/>
    <polyline points="604.25,491.375 612.25,486.625 620.875,480.375 630.0,472.125 636.375,465.125 639.625,461.0 646.25,451.375 649.5,445.75 655.75,432.375 658.75,424.625 661.625,416.0 664.125,406.25 666.25,395.625 667.875,383.875 668.875,371.125 669.0,357.125 668.125,342.375"/>
    <polyline points="666.125,326.75 662.625,310.75 657.625,294.75 650.75,279.5 642.25,265.5 632.0,253.625 620.25,244.625 607.375,238.875 594.0,237.0 580.375,238.625 567.125,243.75 554.75,251.75 543.375,262.0 533.375,273.75 524.625,286.25 517.25,299.125 511.0,311.875 505.75,324.125 497.875,346.75 495.0,356.875 490.5,374.875 486.125,396.5"/>
    <polyline points="485.0,402.625 482.125,418.125 479.5,430.375 476.75,440.25 473.75,448.5 471.625,453.125 466.75,461.125 462.75,466.0 456.625,471.375"/>
    <polyline points="455.0,472.5 449.875,475.75 444.25,478.375 438.125,480.625 433.75,481.875 426.75,483.375 416.5,484.875 410.875,485.375 395.75,485.875"/>
    <polyline points="392.375,485.875 374.625,484.875 362.875,483.375 350.25,481.0 336.625,477.125 327.25,473.375 322.375,471.0 317.5,468.125 312.625,464.75 307.75,460.75 303.0,456.0 298.25,450.375 293.75,443.5 289.75,435.125 286.25,425.0"/>
    <polyline points="283.625,412.75 282.375,397.75 283.0,379.75 286.5,358.125 294.0,332.75 307.0,303.875 327.0,272.625 355.375,241.375 392.25,213.75 436.0,194.25 482.625,186.125 527.375,189.875 565.875,202.875 596.0,220.75 617.875,239.125 632.75,254.875 642.25,266.75 650.0,277.25 648.0,273.75 644.25,268.75 638.75,262.625 631.75,256.375 623.5,250.875 614.0,246.75"/>
    <polyline points="603.625,244.625 592.625,244.75 581.625,247.375 570.75,252.25 560.5,259.25 550.875,268.0 542.125,277.875 534.375,288.625 527.625,299.875 521.875,311.125 516.875,322.25 509.25,343.125 503.875,362.0 500.0,378.375 497.125,392.625 490.5,429.125"/>
    <polyline points="489.75,433.125 487.25,443.625 484.625,452.375 482.75,457.5 477.625,468.125 474.125,473.25 470.375,477.75 466.25,481.75 461.75,485.125"/>
    <polyline points="460.25,486.125 455.375,489.0 450.0,491.625 442.25,494.625 429.0,498.5 404.875,504.375"/>
    <polyline points="401.75,505.125 388.875,508.625 381.875,510.875 374.625,513.625 367.125,517.0 359.25,521.375 351.25,526.875 347.125,530.25 343.125,534.125 339.125,538.625 335.25,543.75 331.5,549.625 328.0,556.5 324.75,564.375 322.125,573.5 320.25,583.875 319.375,595.875 319.75,609.25"/>
    <polyline points="321.75,624.25 326.0,640.5 332.875,657.875 342.75,675.5 356.0,692.75 372.5,708.25 392.0,721.125 413.625,730.25 436.25,735.125 458.625,735.875 479.5,732.875 498.25,727.125 514.25,719.625 527.625,711.125 538.25,702.625 546.625,694.375 553.0,686.625 557.75,679.75 561.125,673.625 563.375,668.125 565.625,659.0 565.625,651.625 564.375,645.25"/>
    <polyline points="563.5,642.25 554.875,620.0 551.625,608.75 550.125,600.5 549.25,590.125 549.375,582.875 550.125,576.125"/>
    <polyline points="550.5,574.0 551.875,568.0 553.75,562.625 556.875,556.25 558.75,553.375 560.75,550.625 565.25,545.75 570.5,541.5 574.875,538.75"/>
    <polyline points="576.5,537.75 579.75,536.0 588.875,532.0 597.25,528.875 620.375,521.125 636.25,514.875"/>
    <polyline points="639.75,513.375 650.875,507.5 654.75,505.125 663.125,499.375 667.5,495.875 676.5,487.375 681.25,482.0 686.125,476.0 691.0,468.875 696.0,460.625 701.0,450.875 705.875,439.5 710.625,426.25 715.0,410.5 718.75,392.125 721.5,370.625 722.875,345.75 722.25,317.375 718.875,285.875 711.625,252.0 699.75,217.375 682.75,184.625"/>
    <polyline points="660.25,157.125 633.25,138.125 603.375,130.25 573.0,133.875 544.5,147.625 519.375,168.5 498.625,193.375 482.25,219.125 469.75,243.875 460.625,266.25 454.125,285.625 449.875,302.125 447.125,315.875 445.75,327.125 445.25,336.375 445.5,343.75 446.5,349.875 447.75,354.75 449.5,358.875 451.5,362.375 455.875,368.125 465.375,377.75"/>
    <polyline points="467.625,380.25 473.5,387.875 476.75,393.375 480.25,402.0 482.375,410.75 483.125,419.5 483.125,425.125 482.625,430.5 481.375,438.25 478.625,447.625"/>
    <polyline points="477.75,449.75 475.0,455.875 471.75,461.375 466.875,467.75 464.125,470.5 458.125,475.5 453.125,478.625 447.625,481.375 441.75,483.75"/>
    <polyline points="439.625,484.375 428.375,487.5 412.75,490.125 391.0,492.125 364.75,493.5"/>
    <polyline points="360.625,493.625 328.125,495.625 312.25,497.625 300.875,499.625 288.875,502.875 276.125,507.875 269.625,511.375 262.875,515.875 256.125,521.625 249.375,528.875 242.625,538.125 236.125,550.0 230.375,565.25 225.75,584.875 223.25,609.75"/>
    <polyline points="224.375,641.0 231.5,679.0 247.5,723.125 275.75,770.0 318.5,813.5 374.125,845.75 436.5,860.375 496.75,857.125 547.625,841.625 585.875,821.75 611.875,803.625 635.875,783.625 637.75,782.375 634.5,785.5 627.125,791.625 616.125,798.875 602.25,805.75 586.0,810.5 568.375,812.0 550.25,809.5 532.5,802.875 515.875,792.625 501.0,779.375 488.125,764.25 477.375,748.25"/>
    <polyline points="468.75,732.375 462.0,717.0 456.875,702.75 453.0,689.75 450.375,678.25 448.625,668.0 447.625,659.125 447.25,651.375 447.25,644.75 448.5,633.875 449.5,629.375 451.875,621.875 453.25,618.625 456.25,613.0 468.5,592.5"/>
    <polyline points="469.625,590.5 473.875,580.5 476.125,573.125 477.125,568.0 477.75,558.875 477.5,555.0 476.625,550.375"/>
    <polyline points="476.375,549.25 474.875,545.5 473.375,543.125 471.125,540.5 469.125,538.875 465.25,536.875 463.5,536.25 459.625,535.5"/>
    <polyline points="458.625,535.375 452.0,535.25 448.25,535.625 441.625,537.0 432.875,540.125 425.25,544.25"/>
    <polyline points="423.75,545.25 417.625,550.25 414.75,553.25 412.0,556.75 408.375,562.75 406.5,567.5 405.125,572.625 404.625,575.5 404.25,581.375 404.75,587.625 406.375,594.125 409.125,600.625 410.875,603.75"/>
    <polyline points="413.0,606.75 418.125,612.375 421.125,614.875 424.375,617.0 431.375,620.375 435.125,621.5 439.0,622.25 442.875,622.625 450.625,622.25 454.375,621.5 461.5,619.0 468.0,615.375 470.875,613.25 476.125,608.5 480.625,603.375 484.375,597.875 487.5,592.5"/>
    <polyline points="488.75,589.75 492.875,579.125 494.875,571.875 496.25,565.125 497.375,557.125 498.0,548.75 497.875,540.75"/>
    <polyline points="497.75,539.5 497.125,534.5 495.875,529.875 493.625,525.875 490.875,523.25"/>
    <polyline points="490.375,522.875 486.625,521.25 481.375,520.25 472.875,520.125"/>
    <polyline points="471.875,520.25 463.125,521.0 452.5,522.75 441.5,525.375 438.125,526.5"/>
    <polyline points="436.25,527.0 427.0,530.5 421.0,533.25 412.875,538.125 404.625,544.75 398.75,551.25 395.25,556.625 392.125,562.625 389.625,569.75"/>
    <polyline points="388.625,573.625 387.625,582.125 388.0,591.625 388.75,596.625 391.875,607.0 394.25,612.25 397.25,617.5 400.75,622.5 404.875,627.125 409.5,631.5 414.625,635.375 420.25,638.75 426.125,641.375 432.375,643.375 438.75,644.5 445.125,645.0 451.375,644.75 457.5,643.75 463.375,642.125 468.875,640.0 474.125,637.5 478.875,634.5 483.25,631.125"/>
    <polyline points="487.125,627.625 490.75,624.0 496.75,616.5 501.5,608.75 503.5,605.0 506.75,597.75 511.375,584.25 513.0,578.125 518.625,551.875"/>
    <polyline points="519.0,550.0 522.125,537.875 523.625,533.25 526.625,526.875 529.625,522.625"/>
    <polyline points="530.125,522.0 533.5,518.75 537.5,516.125 543.0,513.5 548.5,511.5"/>
    <polyline points="549.5,511.125 571.75,504.625 580.625,501.75 586.5,499.5"/>
    <polyline points="588.625,498.75 597.625,494.875 605.0,491.0 613.0,486.125 621.625,479.875 627.625,474.5 634.0,468.0 640.5,460.0 647.0,450.125 653.5,437.875 656.625,430.625 659.625,422.625"/>
    <polyline points="662.25,413.75 664.75,403.75 666.75,392.875 668.25,380.875 669.0,367.75 669.0,353.625 667.875,338.5 665.5,322.75 661.625,306.75 656.125,290.875 648.875,275.75 639.875,262.25 629.25,251.0 617.125,242.75 604.125,238.0 590.5,236.875 577.0,239.5 563.875,245.375 551.75,254.0 540.75,264.75 531.0,276.75 522.625,289.375 515.5,302.25 509.5,315.0 504.5,327.125 500.375,338.625"/>
    <polyline points="497.0,349.375 494.25,359.25 490.0,376.875 481.0,423.5 477.375,438.0 475.5,443.875 472.375,451.375 470.125,455.75 466.375,461.5"/>
    <polyline points="465.0,463.125 460.875,467.75 456.125,471.625 452.875,473.875 445.625,477.625 439.625,480.0 433.125,481.875 426.0,483.375 415.625,484.75"/>
    <polyline points="412.875,485.125 398.0,485.75 384.625,485.375 373.5,484.5 365.75,483.5 353.375,481.375 340.0,477.75 330.75,474.375 321.125,469.5 316.25,466.5"/>
    <polyline points="311.375,462.875 306.625,458.5 301.875,453.375 297.25,447.125 293.0,439.625 289.25,430.625 286.125,419.625 284.125,406.25 283.625,390.125 285.5,370.625 290.5,347.625 300.25,320.875 315.875,291.125 339.25,259.875 371.0,230.125 410.625,205.75 455.625,191.0 501.5,188.125 543.375,196.0 578.25,211.375 604.625,229.625 623.375,247.0 635.75,261.25 648.875,279.0"/>
    <polyline points="648.25,277.625 641.375,268.75 635.5,262.75 628.25,256.875 619.75,252.0 610.25,248.625 599.875,247.25 589.25,248.125 578.5,251.375 568.125,256.75 558.125,264.125 549.0,273.0 540.75,282.875 533.5,293.625 527.125,304.5 521.625,315.5 517.0,326.375 513.0,336.75 506.875,356.125 502.625,373.25 498.125,394.875"/>
    <polyline points="497.0,401.125 490.75,434.625 486.625,450.875 483.875,458.75 479.875,467.375 477.625,471.125 473.0,477.5"/>
    <polyline points="471.625,478.875 467.75,482.75 463.375,486.25 458.75,489.25 453.625,491.875 446.375,495.0 440.375,497.125 426.75,501.0"/>
    <polyline points="424.375,501.625 405.25,506.5 392.75,510.125 382.625,513.75 371.875,518.625 364.375,522.875 360.5,525.375 356.75,528.25 349.0,535.25 341.5,544.5"/>
    <polyline points="337.875,550.0 334.625,556.5 331.625,563.75 329.125,572.25 327.25,581.75 326.125,592.625 326.25,604.875 327.75,618.375 331.125,633.125 336.75,648.75 345.0,664.875 356.125,680.75 370.125,695.625 386.875,708.375 405.75,718.25 426.0,724.5 446.625,727.125 466.5,726.125 484.875,722.25 501.0,716.25 514.875,708.875 526.375,700.875 535.625,692.875 543.0,685.125 548.625,677.875 552.875,671.25"/>
    <polyline points="556.0,665.25 558.25,659.875 559.75,655.0 560.75,650.5 561.375,642.75 560.875,636.0 559.875,629.875 555.5,610.5 554.25,602.75 553.75,597.75 553.5,588.25"/>
    <polyline points="553.625,586.0 554.25,579.625 555.0,575.625 556.5,570.0 559.25,563.375 562.75,557.5 565.875,553.625 570.625,549.0 573.375,547.0"/>
    <polyline points="574.75,546.0 582.5,541.5 587.875,539.125 595.75,536.25 607.0,532.875 629.0,527.0"/>
    <polyline points="632.125,526.125 645.75,522.0 661.25,515.75 669.75,511.375 678.875,505.625 688.625,498.0 693.75,493.125 699.0,487.5 704.375,480.875 709.875,472.875 715.5,463.5 721.125,452.25 726.75,438.625 732.0,422.375 736.875,402.875 740.875,379.5 743.375,351.625"/>
    <polyline points="743.75,318.875 740.875,281.375 733.25,239.75 719.625,196.125 698.75,154.25 670.375,119.0 635.625,96.0 597.25,88.75 559.125,97.5 524.625,119.125 495.75,148.625 473.25,180.75 456.5,211.75 444.875,239.375 437.125,262.75 432.5,281.625 430.25,296.5 429.75,307.875 430.875,316.375 433.0,322.625 436.25,327.25 440.125,330.75 444.75,333.375 449.75,335.625 460.5,339.875"/>
    <polyline points="466.0,342.125 476.5,347.75 481.5,351.125 486.0,354.75 490.25,358.75 497.375,367.375 500.25,371.875 505.0,381.25 506.75,385.875 509.5,395.125 511.75,408.375 512.625,420.5 512.625,428.0 512.0,441.5"/>
    <polyline points="511.75,444.625 510.625,455.75 508.25,471.375 506.0,481.5 503.0,491.375"/>
    <polyline points="502.5,492.5 499.625,498.5 496.75,502.375 493.125,505.875 490.0,507.875"/>
    <polyline points="489.375,508.25 482.125,511.375 475.75,513.25 467.125,515.25"/>
    <polyline points="466.0,515.5 446.0,520.25 435.25,523.375 425.375,527.0"/>
    <polyline points="423.25,528.0 419.0,529.875 410.125,534.875 405.625,538.0 401.125,541.625 394.625,548.5 390.625,554.0 388.75,557.125 385.375,564.25 384.0,568.125 382.0,577.0 381.5,581.875 381.375,587.125 382.5,598.25"/>
    <polyline points="383.875,604.25 386.0,610.25 388.625,616.375 392.0,622.375 396.125,628.25 400.875,633.75 406.375,638.75 412.5,643.25 419.25,647.0 426.25,649.875 433.5,651.875 441.0,653.0 448.375,653.25 455.625,652.625 462.625,651.125 469.125,649.0 475.25,646.125 480.875,643.0 486.0,639.375 490.625,635.5 498.375,627.25 504.375,618.75 509.0,610.5"/>
    <polyline points="510.875,606.375 514.0,598.75 518.375,584.75 526.0,552.0 529.125,542.125"/>
    <polyline points="529.625,540.75 532.5,534.375 536.375,528.5 538.625,525.875 542.5,522.25 548.125,518.625"/>
    <polyline points="549.125,518.125 553.375,515.875 560.75,512.875 585.75,503.875"/>
    <polyline points="587.875,503.125 599.125,498.25 606.75,494.375 612.125,491.25 620.75,485.5 626.875,480.625 633.375,474.75 640.0,467.375 646.875,458.375 653.75,447.125 657.125,440.5 660.375,433.125"/>
    <polyline points="663.5,424.875 666.5,415.5 669.125,405.125 671.25,393.625 673.0,380.875 673.875,367.0 673.875,351.75 672.75,335.5 670.125,318.5 666.0,301.0 660.0,283.75 651.875,267.375 641.875,252.75 630.125,240.75 616.75,232.25 602.25,227.75 587.375,227.5 572.75,231.375 558.75,238.625 545.875,248.875 534.375,261.0 524.375,274.375 515.875,288.25 508.875,302.0 503.0,315.25 498.25,327.875"/>
    <polyline points="494.25,339.625 488.5,360.375 486.375,369.5 484.625,377.75 478.125,414.0 474.75,429.75 473.0,436.0 469.0,446.375 466.75,450.75 463.125,456.25"/>
    <polyline points="461.875,458.0 457.625,462.375 453.0,466.25 447.875,469.375 442.25,471.875 434.0,474.5 429.625,475.375 420.0,476.625 412.125,476.875"/>
    <polyline points="409.25,476.875 397.5,475.875 388.0,474.125 374.375,469.875 367.25,466.625 363.625,464.625 356.375,459.625 352.75,456.5 349.25,453.0 345.75,448.875 342.5,444.25 339.375,438.75 336.5,432.5 334.125,425.125 332.375,416.75 331.375,407.0"/>
    <polyline points="331.375,395.875 332.75,383.125 336.0,368.75 341.375,352.875 349.5,335.625 360.875,317.75 375.875,299.75 394.625,283.125 416.75,269.125 441.375,259.0 467.25,253.75 492.5,253.75 515.875,258.375 536.375,266.5 553.25,276.75 566.75,287.75 577.0,298.75 584.5,308.75 590.0,317.625 593.75,325.0 596.125,331.125 597.625,336.0 598.25,339.875 598.25,342.75 597.875,345.0 597.125,346.75"/>
    <polyline points="596.0,348.0 594.75,349.0 591.5,350.75 585.625,353.5 579.125,357.875 575.0,361.75 571.0,366.375 565.625,374.625 561.25,383.875 557.875,393.375 555.5,402.75"/>
    <polyline points="554.875,405.875 553.5,414.625 553.0,422.75 553.0,430.125 553.625,436.625 554.75,442.375 556.25,447.375 558.875,452.75 561.375,456.125"/>
    <polyline points="562.25,457.0 566.25,460.0 569.625,461.5 572.125,462.125 577.625,462.375 583.75,461.375 588.75,459.625 594.0,456.875 597.75,454.375"/>
    <polyline points="599.625,452.875 603.5,449.625 609.5,443.25 615.375,435.0 621.0,424.5 624.25,416.125 627.125,406.5 629.25,395.5 629.875,389.625 630.375,377.0 629.25,363.625 628.0,356.875 626.375,350.125 624.125,343.625"/>
    <polyline points="621.375,337.375 618.125,331.625 614.375,326.5 610.125,322.125 605.5,318.5 600.5,316.0 595.25,314.375 589.75,314.0 584.25,314.625 578.875,316.25 573.5,318.875 568.25,322.5 563.375,326.75 558.75,331.625 554.5,337.0 547.0,348.75 541.0,361.25 538.375,367.375 536.125,373.625 532.375,385.5 528.25,402.0"/>
    <polyline points="527.25,407.0 525.5,416.5 523.625,429.25 522.375,440.25 520.875,457.875 520.125,479.375"/>
    <polyline points="520.25,480.875 520.375,487.0 521.125,493.625 522.125,497.625 523.75,501.0"/>
    <polyline points="524.0,501.375 525.5,503.125 527.625,504.5 532.25,505.875 534.5,506.125"/>
    <polyline points="535.125,506.125 540.625,506.125 546.5,505.625 557.25,504.0"/>
    <polyline points="558.5,503.75 568.375,501.625 574.875,499.875 584.0,496.875 594.625,492.5 604.25,487.625"/>
    <polyline points="606.75,486.125 614.875,480.625 623.5,473.5 629.5,467.5 635.75,460.125 638.875,455.875 645.25,445.875 648.25,440.0 654.25,426.375 659.375,409.5 661.625,399.75 663.25,389.125 664.5,377.375 665.0,364.75 664.625,351.25 663.25,337.0 660.625,322.125"/>
    <polyline points="656.625,307.25 651.125,292.75 644.0,279.0 635.375,266.875 625.25,257.0 614.0,249.875 601.875,245.875 589.25,245.25 576.75,247.875 564.625,253.5 553.375,261.5 543.125,271.375 534.0,282.5 526.0,294.375 519.25,306.375 513.5,318.375 508.625,329.875 504.625,340.875 501.25,351.25 498.5,360.875 494.25,378.125 488.75,405.375"/>
    <polyline points="487.625,410.875 484.0,429.25 481.25,440.0 477.375,451.5 473.0,460.5 469.25,466.125 463.875,472.375 459.25,476.25"/>
    <polyline points="457.75,477.375 452.625,480.625 447.125,483.375 434.75,487.75 420.125,491.0 399.875,493.75"/>
    <polyline points="396.625,494.125 371.5,496.75 354.875,498.875 336.5,502.25 331.5,503.5 321.25,506.75 310.5,511.25 305.0,514.125 299.375,517.75 293.625,522.125 287.875,527.5 282.125,534.125"/>
    <polyline points="276.5,542.125 271.125,552.125 266.375,564.375 262.5,579.5 260.0,598.0 259.75,620.375 263.0,647.0 271.25,677.625 286.25,711.125 309.625,745.125 341.875,776.125 382.0,799.5 426.625,812.125 471.125,813.375 511.125,805.375 544.0,792.125 569.0,777.375 586.875,763.875 598.75,753.0 605.625,745.25 608.875,740.625 609.0,738.5 606.625,738.25 589.0,742.0"/>
    <polyline points="580.625,742.625 571.75,742.125 562.375,740.375 553.0,737.125 543.75,732.25 535.0,726.125 526.875,718.75 519.375,710.5 512.875,701.625 507.0,692.375 502.0,683.0 497.875,673.75 494.25,664.625 489.0,647.875 485.375,632.875 483.25,619.875 481.875,608.75 481.125,599.25 480.75,587.375"/>
    <polyline points="480.625,584.0 480.375,567.875 479.625,556.75 478.375,549.875 476.875,545.5 474.875,542.125"/>
    <polyline points="474.375,541.375 473.25,539.875 470.625,537.625 468.375,536.25 465.875,535.25 462.25,534.25 459.125,533.875 452.375,533.875"/>
    <polyline points="451.125,534.0 444.5,535.0 440.25,536.125 431.25,539.5 426.5,542.0 421.625,545.125 416.875,549.0 413.875,552.125"/>
    <polyline points="412.375,553.75 409.625,557.5 407.125,561.75 405.125,566.625 403.5,571.875 402.625,577.875 402.625,584.125 403.0,587.5 404.5,594.375 407.25,601.25 409.125,604.625 411.375,607.875 416.625,613.875 419.75,616.5 423.25,618.875 426.875,620.875 430.625,622.5"/>
    <polyline points="434.625,623.75 442.75,625.0 451.0,624.5 454.875,623.75 462.5,621.0 469.25,617.25 472.25,615.0 475.125,612.625 480.25,607.375 484.5,601.75 486.25,598.875 489.375,593.25 492.0,587.625 494.875,579.5 496.25,574.375"/>
    <polyline points="496.875,571.875 498.375,565.0 499.75,555.125 500.375,546.875 500.375,539.0 499.875,533.0"/>
    <polyline points="499.75,532.25 498.875,528.5 496.875,524.25 495.25,522.375 492.375,520.5"/>
    <polyline points="492.0,520.375 488.375,519.25 484.625,518.75 478.625,518.625 475.125,518.875"/>
    <polyline points="474.125,518.875 458.375,520.875 451.25,522.25 441.75,524.625"/>
    <polyline points="440.0,525.125 430.875,528.125 423.125,531.5 419.0,533.5 412.75,537.25 410.75,538.75 406.5,542.0 400.375,548.0 394.75,555.5 391.5,561.625"/>
    <polyline points="390.0,565.0 387.75,572.625 387.0,576.75 386.625,581.25 386.75,590.75 387.5,595.875 388.75,601.125 390.375,606.5 392.75,611.875 395.625,617.25 399.125,622.5 403.25,627.375 407.875,632.0 413.125,636.0 418.875,639.5 424.875,642.375 431.25,644.5 437.75,645.875 444.375,646.375 450.75,646.25 457.125,645.375 463.125,643.75 468.875,641.625 474.25,639.0"/>
    <polyline points="479.125,636.0 487.75,629.125 491.375,625.375 494.625,621.5 500.125,613.75 504.375,606.0 509.125,595.0 512.375,584.875 516.625,567.75 519.0,556.25"/>
    <polyline points="519.5,554.125 521.875,543.75 524.375,535.625 526.625,530.375 530.625,524.0"/>
    <polyline points="531.25,523.25 534.25,520.25 538.25,517.25 543.0,514.75 550.75,511.75"/>
    <polyline points="551.75,511.375 577.25,503.5 591.125,498.375"/>
    <polyline points="593.375,497.375 602.875,492.875 608.0,490.0 619.125,482.5 628.25,474.75 634.625,468.25 637.875,464.375 641.125,460.125 647.75,450.125 654.25,437.75 657.375,430.5 660.375,422.375 663.125,413.375 665.5,403.25"/>
    <polyline points="667.5,392.25 669.0,380.0 669.75,366.75 669.625,352.375 668.5,337.125 666.0,321.125 662.0,304.875 656.25,288.75 648.75,273.625 639.5,260.0 628.625,248.875 616.25,240.75 603.0,236.25 589.25,235.625 575.5,238.625 562.375,244.875 550.125,253.875 539.125,264.875 529.5,277.125 521.125,290.125 514.0,303.125 508.125,315.75 503.25,328.0 499.25,339.5 493.25,360.125"/>
    <polyline points="491.0,369.125 487.5,385.125 480.25,423.75 476.625,437.875 474.75,443.75 471.625,451.25 468.125,457.5 462.875,464.375"/>
    <polyline points="461.375,465.875 458.5,468.625 453.625,472.25 448.375,475.25 440.625,478.625 432.0,481.125 427.25,482.125 419.75,483.25 408.75,484.125"/>
    <polyline points="405.75,484.25 389.875,484.0 379.375,483.125 372.0,482.125 364.125,480.75 356.0,478.875 343.0,474.625 334.0,470.5 329.5,467.875 320.375,461.25 315.75,456.875 311.375,451.875 307.125,445.875"/>
    <polyline points="303.125,438.625 299.625,430.0 296.875,419.625 295.0,407.25 294.5,392.375 296.125,374.75 300.5,354.0 308.75,330.125 322.125,303.625 341.75,275.75 368.5,248.625 402.125,225.25 441.0,209.125 482.0,202.625 521.125,205.875 555.25,216.875 582.625,232.25 603.125,248.75 617.5,263.75 627.125,275.75 633.125,284.375 637.375,292.0 631.5,286.5"/>
    <polyline points="627.125,282.75 621.625,278.75 615.25,275.375 608.125,272.875 600.375,271.75 592.25,272.0 583.875,273.875 575.625,277.25 567.625,282.25 560.125,288.5 553.0,295.75 546.625,303.75 540.75,312.375 535.625,321.25 531.0,330.25 523.625,347.875 520.625,356.375 515.875,372.375 512.25,386.75 507.375,411.0"/>
    <polyline points="506.5,416.25 502.0,441.875 498.0,460.125 495.25,469.375 493.125,475.25 491.625,478.75 488.375,484.75"/>
    <polyline points="487.5,486.0 484.0,490.875 480.125,494.875 477.0,497.5 468.75,502.625 459.0,506.75"/>
    <polyline points="457.5,507.25 425.375,517.5 413.375,522.125 405.75,525.75"/>
    <polyline points="403.125,527.125 395.0,532.125 389.625,536.25 384.125,541.375 378.875,547.375 374.125,554.75 371.875,559.0 369.875,563.75 368.125,568.875 366.75,574.5 365.75,580.625 365.25,587.25 365.375,594.375 366.25,602.0 367.875,610.0 370.375,618.375 374.0,626.875 378.75,635.5 384.625,643.75 391.625,651.5"/>
    <polyline points="399.75,658.5 408.75,664.5 418.625,669.25 429.0,672.625 439.625,674.5 450.125,674.875 460.375,673.875 470.0,671.625 478.875,668.5 487.0,664.5 494.25,659.875 500.5,655.0 506.125,649.75 510.875,644.5 514.875,639.25 518.375,634.0 523.75,624.125 527.625,614.875 531.5,602.5 534.125,591.625"/>
    <polyline points="534.875,588.375 538.0,573.875 540.375,564.375 542.375,558.25 544.625,552.75 547.75,546.5 550.5,542.375 553.5,538.625"/>
    <polyline points="554.625,537.5 560.5,532.375 567.25,527.875 578.5,522.25 594.625,515.75"/>
    <polyline points="597.0,514.875 612.25,508.25 618.0,505.5 627.375,500.375 637.5,493.5 644.75,487.75 648.5,484.25 652.375,480.5 660.25,471.25 668.5,459.375 672.625,452.25 676.75,444.0 680.625,434.625"/>
    <polyline points="684.5,424.0 688.0,411.75 691.0,397.875 693.5,382.125 695.0,364.375 695.25,344.625 694.0,322.875 690.625,299.625 684.75,275.5 675.875,251.375 663.875,228.875 648.75,209.5 630.75,194.875 610.75,186.625 589.75,185.0 569.125,190.125 549.625,200.875 532.25,215.75 517.25,233.25 504.875,251.75 494.875,270.125 486.875,287.75 480.75,303.875 476.0,318.5 472.375,331.625 469.75,343.125"/>
    <polyline points="467.75,353.25 464.5,376.625 463.375,392.625 462.625,412.875 461.875,420.0 460.25,427.75 458.375,432.75 456.0,437.125"/>
    <polyline points="455.125,438.375 453.25,440.875 448.75,445.125 444.875,447.625 439.125,450.0 432.75,451.25 429.25,451.375 423.875,450.875 418.25,449.5"/>
    <polyline points="416.25,448.875 410.5,446.0 406.75,443.25 403.125,439.875 399.75,435.625 398.25,433.25 395.5,427.5 393.625,420.75 392.625,412.75 393.125,403.375 394.0,398.375 395.5,393.0 397.5,387.375 400.125,381.625 403.375,375.875 407.5,370.125 412.125,364.5"/>
    <polyline points="417.625,359.125 423.75,354.25 430.5,350.0 437.75,346.5 445.25,343.75 453.0,342.125 460.875,341.375 468.5,341.75 475.875,343.125 482.75,345.25 489.25,348.25 495.0,351.875 500.125,356.125 504.75,360.625 508.625,365.375 511.875,370.375 514.75,375.5 518.875,385.625 521.625,395.5 523.375,404.75 524.625,417.625"/>
    <polyline points="524.75,421.5 525.0,429.0 524.75,464.875 524.875,470.625 525.875,481.25"/>
    <polyline points="526.0,482.5 527.375,488.875 529.0,492.875 531.875,496.875 534.0,498.625 535.625,499.5"/>
    <polyline points="536.25,499.875 539.5,501.0 546.0,501.875 554.125,501.625 558.875,501.0"/>
    <polyline points="560.125,500.875 573.5,498.125 582.5,495.375 592.875,491.375 599.75,488.0 607.125,483.625"/>
    <polyline points="609.75,482.0 618.0,475.875 626.75,467.625 632.875,460.75 639.0,452.25 645.125,441.875 651.0,429.125 656.25,413.625 658.5,404.5 660.375,394.625 661.75,383.75 662.625,372.0 662.625,359.375 661.875,346.0 660.0,332.0 656.875,317.75 652.5,303.5"/>
    <polyline points="646.5,289.875 639.125,277.375 630.25,266.5 620.125,258.0 608.875,252.375 597.125,249.75 585.0,250.25 573.125,253.75 561.75,259.875 551.25,268.125 541.625,278.0 533.25,289.0 525.875,300.5 519.5,312.125 514.125,323.625 509.625,334.75 505.875,345.25 502.75,355.25 500.125,364.5 496.0,381.125 489.625,413.125"/>
    <polyline points="488.625,418.125 484.125,438.5 480.375,450.75 478.375,455.75 473.875,464.375 470.25,469.75 464.75,475.625 460.25,479.375"/>
    <polyline points="458.625,480.5 451.875,484.625 444.25,488.0 438.0,490.125 424.0,493.75 401.5,497.875"/>
    <polyline points="398.25,498.375 377.375,502.125 357.375,507.125 344.125,512.125 339.5,514.25 330.0,519.625 320.375,527.125 315.5,531.875 310.625,537.625 306.0,544.375 301.5,552.375 297.5,562.0 294.0,573.375"/>
    <polyline points="291.5,587.0 290.5,602.875 291.375,621.375 295.0,642.375 302.25,665.75 314.0,690.5 331.25,715.375 354.0,738.125 381.875,756.625 413.25,768.75 445.875,773.75 477.0,772.125 504.875,765.25 528.25,755.125 546.875,744.0 561.0,733.0 571.25,723.25 578.375,715.0 582.875,708.25 585.25,703.125 586.125,699.25 585.625,696.25 584.0,694.0 581.75,692.25 575.25,689.0"/>
    <polyline points="571.5,687.125 567.375,685.125 559.0,679.875 550.75,672.875 546.875,668.875 543.125,664.375 539.75,659.75 533.625,649.75 528.75,639.5 526.625,634.25 521.875,619.125 518.125,600.75 516.75,588.875 516.375,581.75"/>
    <polyline points="516.25,578.375 516.25,564.0 516.875,554.875 518.25,544.0 519.375,538.25 521.25,531.5"/>
    <polyline points="521.625,530.5 522.625,527.875 525.25,522.875 527.375,520.125 529.25,518.25 532.5,516.0"/>
    <polyline points="533.125,515.625 536.875,513.625 543.0,511.375 554.0,508.375"/>
    <polyline points="555.125,508.0 573.625,503.0 582.625,500.0 593.125,495.875 597.75,493.75"/>
    <polyline points="600.125,492.625 613.125,485.0 618.75,480.875 627.75,473.0 630.875,469.875 637.25,462.5 640.5,458.25 647.0,448.25 653.25,435.75 656.375,428.5 659.25,420.375 661.875,411.25 664.125,401.25 666.0,390.25 667.375,378.25 668.0,365.125"/>
    <polyline points="667.625,351.0 666.375,336.125 663.75,320.5 659.625,304.75 653.875,289.375 646.5,274.875 637.375,262.0 626.625,251.375 614.625,243.875 601.75,239.875 588.375,239.375 575.25,242.5 562.5,248.625 550.75,257.375 540.125,268.0 530.75,279.875 522.625,292.375 515.75,305.125 509.875,317.5 505.125,329.375 501.125,340.625 495.125,361.0 489.375,385.875"/>
    <polyline points="488.0,392.875 481.875,424.625 479.25,435.75 476.375,444.875 473.25,452.5 468.625,460.75 464.625,465.875 460.25,470.25"/>
    <polyline points="458.75,471.5 452.125,476.125 448.625,478.0 440.75,481.375 434.375,483.25 419.75,486.25 402.625,487.875"/>
    <polyline points="399.5,488.0 389.625,488.25 379.0,488.125 363.375,487.375 346.125,485.625 332.0,483.25 316.875,479.625 306.25,475.875 295.25,470.625 289.75,467.125"/>
    <polyline points="284.25,463.0 278.625,457.875 273.25,451.5 268.125,443.75 263.5,434.125 259.5,422.125 256.75,407.25 255.75,388.5 257.625,365.25 263.75,336.875 276.0,302.875 297.25,264.375 329.75,224.0 374.75,187.0 430.375,160.5 490.75,150.25 547.75,157.25 594.875,176.5 629.625,200.25 653.0,222.0 675.125,246.875 678.25,248.625 677.5,244.5 673.625,235.875 666.5,224.375"/>
    <polyline points="656.5,211.75 643.625,200.0 628.25,190.875 611.0,185.875 592.875,185.625 574.625,190.5 557.25,200.0 541.375,213.0 527.5,228.375 515.75,245.0 506.0,262.0 498.125,278.5 491.875,294.125 487.125,308.5 483.375,321.625 478.5,344.125 475.875,362.0 475.125,369.625 473.75,388.25 473.125,402.25"/>
    <polyline points="472.875,406.25 472.125,416.625 471.375,422.625 469.125,432.875 466.875,439.375 464.125,445.125 459.625,451.625 455.75,455.75 451.25,459.25"/>
    <polyline points="449.75,460.25 444.75,463.0 437.375,465.75 431.25,467.125 424.625,467.875 420.0,468.0 410.0,467.125 404.625,466.125 399.125,464.625 393.5,462.5"/>
    <polyline points="390.625,461.25 381.875,456.125 376.125,451.375 373.375,448.5 370.625,445.25 368.0,441.5 365.625,437.375 363.375,432.625 361.5,427.375 359.875,421.375 358.875,414.625 358.375,407.125 358.625,398.75 359.875,389.5 362.25,379.5 365.875,368.5 371.25,357.0 378.25,345.125 387.375,333.125 398.5,321.75 411.5,311.375 426.25,302.625 442.375,296.125"/>
    <polyline points="459.0,292.375 475.625,291.375 491.5,293.125 506.0,297.25 519.0,303.125 530.0,310.375 539.25,318.25 546.625,326.375 552.5,334.375 557.125,342.0 560.625,349.125 563.125,355.875 565.125,361.875 566.5,367.375 567.5,372.375 568.625,381.125 569.125,394.625 569.0,406.75"/>
    <polyline points="569.0,408.75 569.375,415.875 569.875,419.0 570.75,422.875 572.125,426.25 573.125,428.125 576.375,431.375 578.75,432.625 581.375,433.0"/>
    <polyline points="582.375,433.0 585.25,432.5 589.375,430.625 591.5,429.125 594.75,426.125 596.875,423.5 600.875,417.125 603.5,411.25 606.0,401.75"/>
    <polyline points="606.375,399.25 606.75,396.625 606.875,388.375 606.25,382.75 605.125,377.375 602.125,370.125 600.75,368.0 597.75,364.375 594.125,361.875 592.125,361.125 588.0,360.375 585.875,360.5 581.5,361.75 577.25,364.25 575.25,366.0"/>
    <polyline points="573.25,367.875 567.75,374.875 564.625,380.25 560.75,389.0 557.875,398.0 555.375,409.75 554.5,418.0 554.25,427.875 554.875,434.375"/>
    <polyline points="555.125,436.375 556.25,441.875 557.875,446.625 559.875,450.625 563.125,454.875 566.0,457.25 570.5,459.375 574.25,460.125 576.875,460.25"/>
    <polyline points="578.375,460.125 584.375,459.125 589.25,457.25 594.5,454.375 598.25,451.875 602.0,448.75 605.75,445.0 609.625,440.375 613.375,435.125 618.875,425.25 622.125,417.375"/>
    <polyline points="623.625,413.0 626.125,403.375 627.875,392.625 628.375,386.75 628.5,380.75 627.875,368.125 627.0,361.75 625.625,355.375 623.75,349.125 621.375,343.0 618.625,337.375 615.25,332.125 611.5,327.625 607.375,323.75 602.75,320.75 598.0,318.75 592.875,317.75 587.75,317.625 582.5,318.625 577.375,320.5 572.375,323.25 567.5,326.875 563.0,331.125"/>
    <polyline points="558.625,335.875 554.625,341.125 551.0,346.75 544.75,358.375 539.625,370.375 535.625,382.0 531.25,398.375 527.5,417.625 525.0,437.125 523.875,452.625"/>
    <polyline points="523.625,455.25 523.375,462.5 523.625,478.875 524.5,486.375 526.125,492.625"/>
    <polyline points="526.5,493.375 528.375,497.125 530.875,499.75 534.5,501.75 538.25,502.75"/>
    <polyline points="539.0,502.875 542.0,503.25 550.125,503.125 556.75,502.375 564.75,501.0"/>
    <polyline points="566.125,500.625 574.125,498.75 585.125,495.25 595.875,490.75 600.625,488.375 608.125,483.875 613.5,480.25 619.125,475.875"/>
    <polyline points="622.0,473.375 631.0,464.125 637.125,456.25 640.25,451.75 643.375,446.625 649.375,434.75 652.25,427.875 655.0,420.25 657.5,411.75 659.75,402.375 661.5,392.125 662.875,381.0 663.5,368.875 663.375,355.875 662.375,342.125 660.125,327.75 656.75,313.25 651.75,298.875 645.375,285.25 637.5,272.875 628.0,262.5 617.375,254.625"/>
    <polyline points="605.875,249.625 593.75,247.875 581.5,249.25 569.5,253.625 558.125,260.625 547.75,269.625 538.375,280.125 530.125,291.375 523.0,303.125 517.0,314.875 511.875,326.5 507.5,337.5 504.0,348.0 501.0,357.75 496.375,375.375 484.75,432.125"/>
    <polyline points="483.875,435.75 481.125,445.625 477.125,456.125 473.75,462.5 471.375,466.25 467.5,471.25 463.25,475.5 458.625,479.125 451.75,483.25"/>
    <polyline points="450.0,484.125 444.25,486.625 438.0,488.875 426.375,491.875 407.375,495.375 384.625,498.75"/>
    <polyline points="381.0,499.25 373.375,500.5 361.375,503.0 348.25,506.375 339.0,509.625 329.375,513.875 324.375,516.625 319.25,520.0 314.125,523.875 309.0,528.5 303.875,534.0 298.875,540.75 294.0,548.75 289.5,558.375 285.625,570.0 282.625,583.875 281.0,600.5 281.5,620.125 284.875,642.75"/>
    <polyline points="292.125,668.125 304.625,695.375 323.25,722.875 348.375,748.25 379.5,768.625 414.5,781.75 450.75,786.375 484.875,783.375 514.875,774.75 539.375,763.25 558.375,751.0 572.25,739.625 582.0,729.875 588.25,722.25 591.75,716.625 593.0,712.5 592.625,709.875 590.75,708.125 587.875,707.125 574.5,704.125 563.625,700.25 558.0,697.25 552.5,693.75"/>
    <polyline points="547.125,689.5 542.0,684.75 537.125,679.375 532.75,673.75 528.75,667.75 525.0,661.5 521.875,655.25 519.0,648.875 514.25,636.375 509.5,619.0 506.75,603.75 504.875,586.625 504.25,576.125 504.125,567.25"/>
    <polyline points="504.125,564.625 504.25,539.125 503.625,528.625"/>
    <polyline points="503.5,527.875 502.75,524.375 501.5,521.375 500.375,519.875 498.375,518.375"/>
    <polyline points="498.0,518.125 495.125,517.125 493.375,516.875 486.125,516.625"/>
    <polyline points="485.375,516.75 474.0,517.625 461.875,519.5"/>
    <polyline points="460.5,519.625 449.125,522.0 437.5,525.125 428.0,528.5 417.875,533.375"/>
    <polyline points="415.75,534.5 409.375,538.75 403.0,544.0 399.0,548.25 395.0,553.25 391.5,559.125 390.0,562.5 387.375,569.75 386.375,573.875 385.375,582.875 385.375,587.75 385.75,592.875 386.75,598.125 388.125,603.625 390.125,609.125 392.625,614.625 395.875,620.125"/>
    <polyline points="399.75,625.375 404.125,630.375 409.25,634.875 414.75,638.875 420.75,642.25 427.25,644.875 433.875,646.75 440.625,647.75 447.25,648.0 453.875,647.5 460.25,646.25 466.375,644.375 472.0,641.875 477.375,639.0 482.125,635.75 486.5,632.25 490.5,628.5 497.125,620.625 502.375,612.75 506.5,604.875 510.875,593.875"/>
    <polyline points="512.125,590.375 516.375,574.75 522.25,548.0 524.0,541.75 525.875,536.375"/>
    <polyline points="526.25,535.25 528.75,530.0 532.0,525.0 535.75,521.125 537.875,519.375 541.75,516.875"/>
    <polyline points="542.625,516.5 547.125,514.25 552.25,512.25 572.875,505.625"/>
    <polyline points="574.5,505.125 581.875,502.625 592.125,498.625 601.5,494.25 609.25,490.0 617.625,484.375 623.625,479.875 629.75,474.25 636.25,467.375"/>
    <polyline points="639.5,463.375 646.25,454.125 649.5,448.625 652.875,442.5 659.125,428.0 662.125,419.5 664.75,410.0 667.125,399.5 668.875,387.875 670.25,375.25 670.625,361.375 670.125,346.375 668.5,330.625 665.5,314.25 660.75,297.75 654.375,281.75 646.0,266.875 636.0,253.875 624.25,243.75 611.25,236.875 597.5,233.875 583.5,234.75 569.75,239.25 556.75,246.875"/>
    <polyline points="544.875,257.0 534.25,268.75 525.125,281.5 517.25,294.75 510.625,307.75 505.125,320.5 500.625,332.5 497.0,343.75 493.875,354.125 491.375,363.75 486.125,388.0 479.125,425.0 477.375,432.375 473.625,444.375"/>
    <polyline points="472.5,446.875 470.375,451.625 466.875,457.625 461.5,464.25 457.0,468.375 450.375,473.0 444.875,475.75 438.75,478.0 432.25,479.75"/>
    <polyline points="430.0,480.25 420.125,481.875 406.375,482.75 397.25,482.625 387.25,481.875 376.625,480.5 369.125,479.0 361.25,477.0 353.125,474.25 348.875,472.5"/>
    <polyline points="344.625,470.5 336.125,465.5 331.75,462.25 327.375,458.5 323.25,454.125 319.125,449.0 315.125,443.0 311.625,435.75 308.5,427.125 306.125,417.0 304.625,404.875 304.625,390.625 306.5,373.875 311.125,354.5 319.25,332.5 331.75,308.5 349.875,283.375 374.0,259.125 404.0,238.25 438.5,223.375 475.0,216.5 510.5,218.125 542.0,226.625 568.125,239.75 588.25,254.5"/>
    <polyline points="603.0,268.875 613.25,281.25 620.0,291.0 624.125,298.0 626.25,302.375 626.875,304.625 626.125,305.125 624.375,304.25 621.75,302.375 614.0,297.875 609.125,296.0 603.75,294.5 597.875,293.875 591.75,294.25 585.5,295.625 579.25,298.125 573.0,301.625 567.0,306.125 561.375,311.5 556.0,317.375 551.125,324.0 546.625,330.875 542.625,338.0 535.75,352.5"/>
    <polyline points="532.875,359.625 526.25,380.125 523.125,392.625 520.75,404.0 517.25,423.75 511.125,467.875"/>
    <polyline points="510.875,470.0 509.125,480.625 507.375,488.75 504.75,497.25 503.375,500.0"/>
    <polyline points="503.125,500.625 501.375,503.5 498.375,506.875 496.125,508.5 492.625,510.375"/>
    <polyline points="492.0,510.625 484.25,513.125 472.875,515.5"/>
    <polyline points="471.875,515.75 454.375,519.25 443.25,522.0 436.25,524.125"/>
    <polyline points="434.375,524.75 426.5,527.625 416.0,532.625 407.25,538.25 402.875,541.875 396.5,548.375 394.5,550.875 390.625,556.75 388.875,559.875 387.375,563.5 384.75,571.25"/>
    <polyline points="383.875,575.625 383.25,580.25 383.0,585.25 383.875,595.875 385.0,601.625 386.75,607.375 389.125,613.25 392.25,619.0 395.875,624.75 400.25,630.125 405.375,635.125 411.0,639.75 417.125,643.625 423.75,646.75 430.75,649.0 437.875,650.5 445.0,651.0 452.0,650.75 458.875,649.75 465.375,647.875 471.5,645.5 477.125,642.625 482.375,639.25 487.125,635.625 491.25,631.75"/>
    <polyline points="495.125,627.75 501.375,619.625 504.0,615.5 508.25,607.375 511.5,599.75 515.25,589.0 517.0,582.5 524.375,550.75"/>
    <polyline points="524.875,548.875 528.25,538.375 531.0,532.5 535.25,526.125 539.625,521.875"/>
    <polyline points="540.375,521.25 545.5,517.875 552.75,514.375 557.375,512.5 568.625,508.75"/>
    <polyline points="570.125,508.125 586.5,502.375 597.625,497.75 602.5,495.375 610.375,491.0 616.0,487.375 621.875,483.125 628.0,478.0"/>
    <polyline points="631.125,475.0 637.75,468.125 641.125,464.0 647.875,454.5 651.25,448.875 654.625,442.625 657.875,435.625 661.0,427.75 664.0,419.0 666.75,409.25 669.0,398.375 670.875,386.375 672.125,373.125 672.5,358.75 671.875,343.25 670.0,327.0 666.625,310.0 661.5,293.0 654.5,276.625 645.625,261.5 634.875,248.5 622.5,238.625 608.875,232.375 594.625,230.125"/>
    <polyline points="580.125,231.875 566.0,237.375 552.875,246.0 541.0,256.875 530.5,269.375 521.375,282.75 513.75,296.375 507.375,309.625 502.125,322.375 497.75,334.5 494.25,345.625 491.375,356.0 487.0,374.125 482.75,395.75 479.0,416.875 477.25,425.125 474.625,435.375"/>
    <polyline points="473.75,438.375 471.75,443.875 468.625,450.75 466.25,454.875 461.0,461.625 458.125,464.5 455.0,467.0 450.0,470.375 444.5,473.125 436.5,476.0"/>
    <polyline points="434.25,476.625 422.625,478.75 414.875,479.375 406.375,479.375 397.375,478.875 387.625,477.625 377.25,475.375 366.25,471.75 358.625,468.25"/>
    <polyline points="354.75,466.125 347.0,460.75 343.125,457.5 339.25,453.625 335.5,449.125 332.0,443.875 328.75,437.75 325.75,430.625 323.375,422.375 321.625,412.625 320.875,401.25 321.5,388.125 323.875,373.125 328.625,356.125 336.25,337.25 347.625,317.125 363.125,296.375 383.25,276.625 407.625,259.5 435.5,246.75 465.125,239.875 494.375,239.375 521.375,244.5 544.75,253.875 563.875,265.625"/>
    <polyline points="578.625,278.125 589.5,290.0 597.375,300.5 602.75,309.25 606.25,316.25 608.25,321.375 609.25,325.125 609.25,327.625 608.625,329.125 607.375,329.875 598.25,329.75 592.0,330.25 588.625,331.0 581.625,333.875 578.0,336.0 574.625,338.5 567.875,344.875 561.875,352.5 559.125,356.75"/>
    <polyline points="556.625,361.125 552.125,370.25 548.375,379.625 544.125,393.375 541.25,406.25 539.375,418.0 538.125,431.75 537.875,445.875 538.375,453.0"/>
    <polyline points="538.625,455.25 539.125,459.25 540.25,464.5 542.75,471.75 544.625,475.25 546.0,477.25 549.125,480.625 552.75,483.125 554.875,484.0"/>
    <polyline points="555.875,484.375 560.5,485.625 564.375,486.0 568.5,486.0 574.75,485.25 579.875,484.125 587.375,481.75 595.625,477.875"/>
    <polyline points="597.875,476.75 604.875,472.375 612.25,466.625 617.375,461.75 622.625,455.875 625.375,452.5 630.625,444.75 635.875,435.375 638.375,430.0 640.75,424.125 645.125,410.625 648.5,394.75 650.25,376.25 650.25,366.125 649.75,355.625"/>
    <polyline points="648.375,344.625 646.125,333.5 642.875,322.375 638.625,311.75 633.375,301.75 627.125,292.75 619.875,285.25 611.75,279.5 603.0,275.75 593.875,274.25 584.625,274.875 575.5,277.625 566.625,282.25 558.25,288.5 550.5,296.0 543.625,304.375 537.375,313.375 531.875,322.625 527.0,332.125 522.875,341.375 516.25,359.25 513.625,367.625 507.75,390.125"/>
    <polyline points="506.375,396.75 497.75,440.75 494.75,453.75 490.875,466.375 487.375,474.375 484.625,479.5"/>
    <polyline points="483.75,481.0 481.75,483.875 477.5,488.875 471.625,494.0 467.75,496.625 459.0,501.125 450.75,504.375"/>
    <polyline points="449.0,505.0 421.625,513.5 408.75,518.125 400.5,521.75 394.625,524.75 388.75,528.375"/>
    <polyline points="385.75,530.375 382.625,532.625 376.625,537.875 370.75,544.375 367.875,548.25 365.125,552.5 362.625,557.125 360.375,562.375 358.375,568.25 356.625,574.625 355.5,581.75 355.0,589.5 355.125,598.0 356.25,607.0 358.375,616.625 361.625,626.75 366.375,637.125 372.5,647.375 380.125,657.25 389.375,666.25 400.0,674.25 411.625,680.625 424.125,685.25 437.0,688.0"/>
    <polyline points="449.875,688.75 462.25,687.625 473.875,685.0 484.5,681.125 494.0,676.375 502.375,671.0 509.625,665.125 515.625,659.25 520.75,653.25 525.125,647.5 528.625,641.875 531.5,636.375 535.875,626.375 538.75,617.375 541.625,605.5 545.375,583.5"/>
    <polyline points="545.875,580.875 549.25,567.125 552.125,559.625 554.625,554.75 558.5,549.0 563.0,544.125 568.125,539.75"/>
    <polyline points="569.5,538.75 574.0,535.875 578.875,533.25 586.125,530.0 622.625,516.375"/>
    <polyline points="625.75,515.125 639.0,508.875 650.25,502.25 658.25,496.375 662.5,492.875 671.25,484.375 680.375,473.125 685.125,466.125 689.875,458.125 694.625,448.75 699.25,437.875 703.75,425.125 707.875,410.375 711.375,393.125 714.125,373.125 715.5,350.25 715.125,324.25 712.25,295.5"/>
    <polyline points="706.125,264.625 696.0,232.875 681.375,202.5 662.0,176.0 638.375,156.375 611.75,146.0 584.0,145.875 557.125,155.125 532.75,171.875 511.875,193.375 494.75,217.0 481.5,240.5 471.375,262.5 463.875,282.375 458.5,299.625 454.875,314.375 452.5,326.875 451.125,337.25 450.625,346.0 450.625,353.125 451.0,359.125 452.875,368.5 454.125,372.25 457.0,378.375"/>
    <polyline points="458.5,381.125 464.5,390.625 468.25,397.5 471.0,404.5 472.75,411.625 473.5,421.0 473.25,425.625 472.625,430.0 470.5,438.375"/>
    <polyline points="469.75,440.375 466.25,447.75 463.0,452.625 459.25,456.875 455.0,460.75 448.625,465.0 445.125,466.75 441.5,468.25 433.375,470.5"/>
    <polyline points="431.25,471.0 422.0,472.125 411.875,472.0 400.75,470.625 391.875,468.375 385.625,466.125 379.25,463.125 376.0,461.25 369.625,456.75 366.375,454.0 363.25,450.875 360.25,447.25"/>
    <polyline points="357.375,443.125 354.625,438.5 352.125,433.125 350.0,427.0 348.25,420.125 347.125,412.25 346.75,403.25 347.375,393.25 349.25,382.125 352.5,369.75 357.75,356.5 365.0,342.375 374.875,327.875 387.25,313.75 402.375,300.625 419.875,289.375 439.25,281.125 459.5,276.125 479.75,275.0 499.0,277.25 516.375,282.625 531.5,290.125 544.0,298.875 554.125,308.125 562.0,317.375 568.125,326.125"/>
    <polyline points="572.625,334.125 575.875,341.25 578.25,347.625 580.75,358.0 581.625,365.875 581.5,371.875 580.25,378.75 574.0,396.5 572.875,401.0"/>
    <polyline points="572.5,402.375 571.625,409.5 571.625,413.5 572.25,418.25 572.75,420.25 574.25,423.875 576.375,426.625 578.375,428.0"/>
    <polyline points="579.0,428.375 581.25,428.875 584.625,428.625 587.375,427.625 590.125,425.875 593.875,422.375 596.625,418.75 598.25,415.875 600.5,410.75"/>
    <polyline points="601.25,409.0 602.375,405.0 603.125,400.75 603.75,394.0 603.375,387.0 602.625,382.375 601.25,378.125 600.375,376.125 598.25,372.625 595.625,369.75 594.125,368.625 591.0,367.125 589.25,366.75 585.75,366.75"/>
    <polyline points="584.0,367.125 580.375,368.75 578.625,369.875 575.25,372.75 572.0,376.375 570.5,378.5 566.625,385.375 564.375,390.375 561.125,400.75 559.25,410.875 558.625,420.25"/>
    <polyline points="558.625,422.5 559.0,428.625 560.25,435.75 561.75,440.25 563.0,442.875 565.25,446.25 567.75,448.875 571.75,451.375 575.25,452.375"/>
    <polyline points="576.375,452.5 581.625,452.375 587.5,450.75 592.125,448.375 597.0,445.0 600.375,442.0 603.75,438.375 607.125,434.125 612.0,426.375 615.0,420.125"/>
    <polyline points="616.375,416.625 618.875,409.0 620.75,400.5 622.0,391.125 622.375,381.125 621.5,370.625 620.5,365.375 619.25,360.125 617.625,355.0 615.625,350.25 613.25,345.75 610.5,341.625 607.375,338.0 604.0,335.0 600.375,332.625 596.5,331.0 592.375,330.0 588.25,329.875 584.0,330.5 579.75,331.875 575.625,334.0"/>
    <polyline points="571.625,336.625 567.75,339.875 564.0,343.625 557.375,352.375 554.5,357.0 549.25,367.0 545.125,377.125 543.25,382.25 540.25,392.125 537.0,406.0 534.375,422.375 533.125,436.375 532.875,442.5"/>
  </g>
</svg>
