<?xml version="1.0" encoding="utf-8" ?>
<svg xmlns="http://www.w3.org/2000/svg" xmlns:cc="http://creativecommons.org/ns" xmlns:dc="http://purl.org/dc/elements/1.1/" xmlns:ev="http://www.w3.org/2001/xml-events" xmlns:inkscape="http://www.inkscape.org/namespaces/inkscape" xmlns:rdf="http://www.w3.org/1999/02/22-rdf-syntax-ns" xmlns:sodipodi="http://sodipodi.sourceforge.net/DTD/sodipodi-0.dtd" xmlns:xlink="http://www.w3.org/1999/xlink" baseProfile="tiny" height="27.09333333cm" version="1.2" viewBox="0 0 1024.0 1024.0" width="27.09333333cm">
  <metadata>
    <rdf:RDF>
      <cc:Work>
        <dc:format>image/svg+xml</dc:format>
        <dc:source>vpype read './original_svgs/Strange Attractors #419.svg' linemerge linesimplify write './Strange Attractors #419.svg'
</dc:source>
        <dc:date>2024-08-05T01:35:57.679163</dc:date>
      </cc:Work>
    </rdf:RDF>
  </metadata>
  <defs/>
  <g fill="none" id="layer1" inkscape:groupmode="layer" inkscape:label="1" stroke="black" stroke-width="0.7mm" style="display:inline">
    <polyline points="435.0,460.625 419.375,433.125 410.625,408.125 407.75,383.5 410.25,358.125 418.25,330.375 432.25,299.5 453.125,264.75 481.875,226.125 519.5,185.375 565.625,145.875 618.25,113.875 672.5,97.25 721.5,102.375 759.25,131.25 782.5,179.25 792.5,237.75 793.0,298.0 788.25,354.0 781.25,402.75 774.25,443.375 767.875,476.125 762.375,501.875 757.625,521.875 753.25,536.75 748.625,547.375"/>
    <polyline points="743.625,554.5 737.75,558.375 730.75,559.5 722.75,558.375 713.5,555.375 703.375,550.625 692.5,544.875 681.375,538.125 659.0,523.75 619.875,497.125 604.375,487.125 591.5,479.625 580.75,474.125 571.75,470.625 564.125,468.5 557.625,467.375"/>
    <polyline points="554.625,467.25 551.875,467.125 544.25,467.625 537.75,468.75 521.875,472.5 515.875,473.5 509.25,473.875"/>
    <polyline points="507.875,473.875 500.625,472.75 498.375,472.0 492.75,469.25 488.625,466.0 485.625,462.875 483.75,460.375 481.25,456.0"/>
    <polyline points="480.375,454.375 477.875,446.5 476.875,439.0 476.75,433.25 477.25,426.625 478.625,419.125 479.625,414.875 482.625,405.75 487.0,395.5 493.125,384.25 496.875,378.125 501.25,371.875 506.125,365.625 517.625,352.875"/>
    <polyline points="524.25,346.75 531.375,340.875 538.875,335.625 546.75,331.125 554.875,327.625 562.875,325.125 570.75,324.0 578.375,324.25 585.375,326.0 591.625,329.375 597.125,334.0 601.625,340.0 605.125,347.125 607.625,355.25 609.25,363.875 610.0,372.875 610.0,382.125 609.25,391.375 608.0,400.375 604.125,417.375 599.125,432.5 593.625,445.5 590.75,451.25"/>
    <polyline points="587.875,456.5 585.125,461.25 579.625,469.625 574.5,476.5 569.75,482.25 563.375,489.0 556.125,495.75 542.875,506.625"/>
    <polyline points="542.125,507.375 539.375,509.75 536.75,512.75 535.375,515.625 535.25,517.125 535.625,518.5"/>
    <polyline points="535.875,518.875 536.625,520.25 539.5,523.0 547.0,527.625"/>
    <polyline points="547.625,528.0 557.125,532.875 567.0,537.375"/>
    <polyline points="567.5,537.625 568.375,538.0 548.75,530.5 527.75,523.125 505.75,516.25 489.0,511.75"/>
    <polyline points="480.375,509.75 463.75,506.75 456.0,505.75 448.875,505.375 442.625,505.5 437.25,506.0 432.875,507.0 429.5,508.5 427.125,510.25 425.5,512.125 424.75,514.25 424.75,516.5 426.375,520.75 429.5,524.5 433.625,527.5 438.125,529.625 442.625,531.0 447.125,531.625 449.25,531.625"/>
    <polyline points="451.25,531.625 455.25,531.125 458.75,530.25 466.25,527.25 469.75,525.125 473.5,522.125 476.125,519.25 478.25,515.75"/>
    <polyline points="478.625,515.0 479.375,511.75 479.375,509.875 478.875,507.25 477.0,503.25 473.5,498.25"/>
    <polyline points="472.875,497.5 463.125,486.0 458.125,479.375 454.0,472.75 450.0,464.25"/>
    <polyline points="449.125,461.875 447.375,456.375 446.75,453.25 445.625,446.375 445.375,442.5 445.25,438.25 445.75,428.625 446.375,423.125 447.5,417.125 449.125,410.5 451.375,403.25 454.125,395.375 457.75,386.625 462.25,377.0 467.875,366.625 474.625,355.375 482.875,343.375 492.5,330.625 503.875,317.5 516.875,304.25 531.5,291.5 547.5,279.75 564.5,269.875"/>
    <polyline points="582.125,262.875 599.375,259.375 615.75,260.125 630.25,265.5 642.5,275.125 651.875,288.625 658.375,305.25 662.25,323.75 663.75,343.25 663.375,362.75 661.5,381.75 658.625,399.5 655.125,415.75 651.25,430.5 647.125,443.625 643.0,455.25 635.125,474.25 631.375,481.875 624.625,494.125 618.625,503.125 611.25,512.625"/>
    <polyline points="609.25,514.875 599.0,525.125 596.625,527.875 595.625,529.5 594.875,531.625 595.0,533.75 596.5,536.625 598.5,538.875"/>
    <polyline points="599.375,539.625 606.375,544.625 619.0,551.5 634.625,558.875 656.125,568.375"/>
    <polyline points="660.5,570.375 715.125,594.5 755.875,613.0 768.25,618.0 771.5,618.75 772.0,617.625 768.875,614.25 762.0,608.375 701.625,560.0 682.875,544.375"/>
    <polyline points="664.5,528.75 631.875,499.5 606.375,475.25 587.625,456.375 565.25,432.875 556.375,424.0 551.0,419.875 548.625,418.875 547.5,418.75 545.75,419.125 542.5,421.25"/>
    <polyline points="541.75,422.0 535.5,428.5 530.375,432.625 525.25,435.125 521.125,435.75"/>
    <polyline points="520.375,435.75 516.875,434.75 515.125,433.5 513.625,431.625 512.5,429.375 511.75,425.375 511.75,421.75 512.875,416.25"/>
    <polyline points="513.25,414.75 516.875,406.625 520.25,401.625 522.875,398.375 529.125,392.625 534.5,389.375 538.125,388.0 543.375,387.25 546.5,387.875 548.0,388.5"/>
    <polyline points="549.375,389.25 550.625,390.25 552.75,392.875 554.25,396.25 555.125,400.125 555.375,404.375 555.0,408.875 554.125,413.625 552.875,418.25 551.125,422.75 548.0,429.0 544.375,434.75 541.75,438.125"/>
    <polyline points="540.375,439.625 537.625,442.5 533.5,446.125 529.375,449.0 524.0,451.75 520.125,453.125 515.25,453.875 512.875,453.875 508.375,453.125"/>
    <polyline points="507.375,452.75 504.375,451.25 502.5,449.875 500.0,447.25 498.5,445.125 497.25,442.625 495.75,438.25 495.125,434.75 494.875,428.75 495.625,421.625 496.875,416.125"/>
    <polyline points="497.75,413.25 500.0,407.125 503.125,400.5 507.25,393.5 512.25,386.25 518.375,379.0 521.875,375.5 529.375,369.0 533.375,366.125 541.875,361.5 546.25,359.75 550.5,358.625 554.75,358.0 558.875,358.0 562.75,358.625 566.375,360.0 569.625,362.0 572.5,364.5 575.0,367.625"/>
    <polyline points="577.0,371.25 578.625,375.375 579.875,379.875 580.625,384.625 581.0,389.5 580.875,394.625 579.875,404.875 578.875,410.0 576.125,419.75 574.625,424.375 571.0,433.0 567.0,440.875 562.875,447.75 556.5,456.5 552.375,461.375 546.375,467.375"/>
    <polyline points="544.5,469.125 535.5,476.125 529.125,480.0 526.125,481.5 519.375,484.25 515.625,485.375 511.0,486.25 508.75,486.375"/>
    <polyline points="507.625,486.5 504.5,486.5 500.375,486.0 496.375,485.0 492.375,483.5 486.375,480.125 482.375,477.0"/>
    <polyline points="481.375,476.125 475.375,469.375 471.625,463.375 469.125,457.75 467.125,450.875 466.125,445.5 465.625,435.875 466.125,428.25 467.625,419.375"/>
    <polyline points="468.75,414.375 470.375,409.0 474.75,397.125 481.375,383.5 490.5,368.25 502.875,351.75 510.375,343.25 518.75,334.875 527.875,326.75 537.75,319.25 548.25,312.625 559.125,307.375 570.125,303.75 580.875,302.0 591.0,302.375 600.375,305.25 608.625,310.25 615.5,317.375 620.875,326.5 624.75,337.0 627.25,348.5 628.5,360.625"/>
    <polyline points="628.5,373.0 627.625,385.25 625.875,397.25 623.625,408.5 621.0,419.125 618.0,429.0 611.625,446.25 605.0,460.375 601.875,466.375 598.75,471.75 592.875,480.75 587.5,488.125 580.5,496.375 568.625,508.5"/>
    <polyline points="567.375,509.625 561.25,516.25 559.375,519.875 558.875,521.875 559.0,523.625 559.625,525.375 561.25,527.75"/>
    <polyline points="561.75,528.25 566.375,532.25 571.875,535.75 580.75,540.375 585.5,542.5"/>
    <polyline points="586.5,543.0 591.25,545.125 593.0,545.625 579.625,539.375 553.75,528.625 532.875,520.625 506.125,511.125"/>
    <polyline points="491.0,506.25 475.0,501.5 458.75,497.25 442.875,493.875 427.875,491.625 414.5,490.625 403.125,491.125 394.125,493.0 387.625,496.0 383.375,500.125 381.0,504.875 380.5,510.0 381.25,515.125 382.875,520.25 385.375,525.0 388.25,529.375 394.5,536.625 401.125,541.875 407.25,545.25 410.25,546.25 413.0,547.0 418.25,547.5"/>
    <polyline points="420.625,547.375 425.0,546.625 430.75,544.375 434.0,542.5 439.375,538.125 443.25,533.5 445.375,530.125 447.125,525.75 447.75,522.625"/>
    <polyline points="447.875,521.625 447.875,519.5 447.125,515.5 444.875,510.625 439.5,503.375 431.5,495.375"/>
    <polyline points="430.25,494.0 422.75,486.875 417.875,481.625 412.75,475.5 407.625,467.875 404.375,461.75 402.875,458.25 400.25,450.0 399.25,445.25 398.5,439.875 398.125,433.75 398.25,426.875 398.875,419.0 400.25,410.0"/>
    <polyline points="402.625,399.625 406.25,387.75 411.375,373.75 418.5,357.625 428.125,339.0 440.875,317.625 457.375,293.25 478.5,266.375 504.625,237.625 536.125,208.625 572.25,182.375 611.375,162.5 650.5,153.375 686.0,158.125 714.375,177.5 734.0,209.375 744.75,249.625 748.375,293.25 746.875,336.25 742.5,375.875 736.75,410.75 730.75,440.5 724.875,465.25 719.625,485.375 714.75,501.75 710.5,514.625"/>
    <polyline points="706.5,524.625 702.625,532.375 698.875,538.0 695.0,541.875 691.0,544.375 686.75,545.75 682.25,546.0 677.625,545.5 672.625,544.375 662.125,540.625 645.875,533.0 620.375,520.25 607.25,514.625 599.625,511.875 592.75,509.875"/>
    <polyline points="589.5,509.125 583.75,508.0 576.375,507.375 570.125,507.625 566.5,508.125 562.0,509.25 557.25,511.125 553.75,513.125 551.375,515.125"/>
    <polyline points="550.875,515.75 550.125,516.75 549.125,519.25 549.5,522.125 551.25,525.0 554.375,527.75"/>
    <polyline points="555.0,528.25 560.125,531.75 570.25,537.125 576.625,540.125"/>
    <polyline points="577.375,540.375 579.75,541.375 562.125,534.0 537.625,524.75 509.625,515.125 487.125,508.375"/>
    <polyline points="475.25,505.375 463.5,502.75 452.125,500.75 441.5,499.375 431.875,498.875 423.625,499.25 416.875,500.375 411.625,502.25 408.0,504.75 405.625,507.75 404.5,511.0 404.5,514.375 405.25,517.75 406.75,521.0 408.625,524.125 411.0,526.875 416.125,531.375 421.625,534.625 424.375,535.75 429.5,537.125 434.375,537.5 436.75,537.375"/>
    <polyline points="438.875,537.125 442.875,536.25 448.0,534.25 453.5,530.75 455.625,528.875 459.0,525.0 460.75,522.125 462.0,519.25 462.625,515.625"/>
    <polyline points="462.75,514.625 462.375,511.0 461.875,509.25 459.75,504.625 455.125,497.625 448.5,489.25"/>
    <polyline points="447.375,487.875 441.5,480.0 437.875,474.125 435.5,469.625 433.125,464.375 431.125,458.25 429.375,451.125 428.75,447.125 428.125,437.75 428.25,432.375 429.625,419.75 431.125,412.25 433.25,404.0 436.25,394.75"/>
    <polyline points="440.125,384.375 445.375,372.75 452.0,359.875 460.25,345.625 470.625,329.875 483.25,313.0 498.375,295.125 516.125,277.0 536.5,259.25 559.125,243.375 583.25,230.875 607.625,223.25 630.875,222.125 651.625,228.125 668.625,241.375 681.25,260.625 689.25,284.5 693.375,311.0 694.0,338.125 692.375,364.625 689.125,389.25 684.875,411.625 680.25,431.5 675.375,448.75 670.625,463.625 666.125,476.125"/>
    <polyline points="661.875,486.75 657.875,495.75 650.875,509.25 644.875,518.5 639.625,524.625 635.125,528.75 629.25,532.375 624.5,534.25 614.375,537.0"/>
    <polyline points="613.875,537.25 613.0,537.875 612.375,539.375 613.125,541.25 614.0,542.375 616.75,544.875 619.75,547.0 628.375,552.125"/>
    <polyline points="630.125,553.0 640.75,558.375 671.125,572.0 696.875,582.375 705.25,584.875"/>
    <polyline points="707.0,585.0 708.125,584.875 708.5,584.125 707.875,582.75 703.75,578.25 700.125,575.0 690.0,566.625 676.875,556.375 662.0,545.0 646.625,533.75 624.875,518.5 606.125,506.625 595.5,500.875 582.125,495.0"/>
    <polyline points="578.25,493.75 574.625,492.625 568.0,491.25 562.125,490.625 554.625,490.5 548.125,491.25 542.625,492.375 536.25,494.125 527.5,497.125"/>
    <polyline points="526.5,497.5 516.125,500.75 511.625,501.625 508.125,501.875"/>
    <polyline points="507.5,501.875 503.75,501.5 501.125,500.875 497.25,499.5 493.75,497.75"/>
    <polyline points="493.125,497.5 487.625,494.25 482.25,490.25 478.875,487.5 473.375,482.125"/>
    <polyline points="472.375,481.0 467.5,474.875 464.5,470.25 462.625,466.75 459.125,458.25 457.75,453.125 456.375,443.75 456.125,436.25 456.75,427.5 458.625,417.25"/>
    <polyline points="460.125,411.375 462.0,405.0 464.5,398.125 467.625,390.75 471.375,382.75 476.0,374.125 481.625,364.875 488.125,355.125 495.75,345.0 504.625,334.5 514.625,323.875 525.875,313.625 538.125,304.0 551.25,295.5 564.875,288.75 578.625,284.25 592.125,282.375 604.75,283.625 616.125,288.125 625.75,295.625 633.375,306.0 639.0,318.625 642.625,332.75 644.5,348.0 644.75,363.5 643.75,378.75"/>
    <polyline points="641.75,393.5 639.125,407.5 636.0,420.25 632.5,432.0 628.875,442.625 625.25,452.125 618.0,468.125 611.25,480.5 608.125,485.625 602.375,494.0 592.875,505.75 580.25,519.125"/>
    <polyline points="579.5,520.125 577.625,522.75 576.75,525.125 576.5,527.375 577.0,529.5 578.75,532.25 580.75,534.375 586.5,538.625"/>
    <polyline points="587.625,539.375 594.5,543.375 606.625,549.25 625.875,557.5 635.0,560.875"/>
    <polyline points="637.125,561.75 644.25,564.0 645.5,564.25 646.25,564.25 646.375,564.0 646.0,563.375 642.125,560.75 632.375,555.375 624.125,551.0 598.125,538.25 554.125,518.25 523.875,505.375 488.0,491.125 447.875,476.75 406.0,464.0 366.0,455.0 332.0,451.5 306.625,454.625 290.75,463.625"/>
    <polyline points="283.125,477.125 281.625,493.25 284.125,510.5 288.5,527.5 293.75,543.5 304.125,571.875 308.875,583.875 313.5,594.5 318.125,603.625 322.875,611.5 327.875,617.875 333.25,622.875 339.0,626.5 345.25,628.625 352.0,629.5 359.125,629.0 366.375,627.375 373.875,624.625 381.375,621.125 388.875,616.875 396.25,612.125 403.375,607.0 410.25,601.75 422.875,591.0"/>
    <polyline points="428.625,585.75 471.25,544.75 478.25,538.75 484.125,534.25 490.625,529.875 496.0,526.875"/>
    <polyline points="497.25,526.25 503.625,523.625 508.0,522.375 511.875,521.625 517.875,521.375"/>
    <polyline points="518.5,521.375 522.25,521.75 526.5,522.625 534.25,525.125"/>
    <line x1="535.0" x2="553.875" y1="525.375" y2="533.0"/>
    <polyline points="554.625,533.25 560.0,535.625 542.25,529.375"/>
    <polyline points="538.75,528.125 520.25,522.125 495.875,515.375 482.75,512.5 476.25,511.375 464.375,509.875 454.25,509.75 446.625,510.75 443.875,511.625 441.75,512.875 440.375,514.125 439.5,515.5 439.375,518.5 440.875,521.5"/>
    <polyline points="442.125,522.75 443.625,524.0 447.0,526.0 450.75,527.375 454.625,528.25 460.5,528.75 467.5,528.0 472.25,526.875 478.875,524.375 482.125,522.75"/>
    <polyline points="483.0,522.25 487.125,519.625 491.0,516.375 493.375,513.0 493.875,511.25"/>
    <polyline points="494.0,510.875 493.875,509.125 493.25,507.25 491.875,505.125 488.5,501.5"/>
    <polyline points="488.0,501.0 475.625,489.625 470.25,484.0"/>
    <polyline points="469.375,482.875 465.375,478.0 460.375,470.125 456.625,462.0 454.375,454.375 452.75,444.875 452.5,437.125 453.125,428.125 453.75,423.0 454.875,417.5"/>
    <polyline points="456.375,411.375 458.375,404.75 464.125,389.75 468.125,381.25 473.125,372.125 479.0,362.25 486.0,351.875 494.25,340.875 503.75,329.5 514.625,318.125 526.875,307.0 540.25,296.625 554.5,287.625 569.375,280.5 584.375,276.125 598.875,274.75 612.375,277.0 624.125,282.75 633.875,292.0 641.5,304.125 646.75,318.625 649.875,334.5 651.0,351.25 650.625,368.0 649.125,384.25"/>
    <polyline points="646.625,399.75 643.5,414.125 640.0,427.25 636.25,439.125 628.625,459.125 624.875,467.375 617.875,481.0 614.625,486.625 606.0,499.375 599.0,508.0 585.5,522.5"/>
    <polyline points="584.75,523.5 583.375,526.0 582.875,528.25 583.125,530.5 584.125,532.625 586.5,535.5 589.125,537.75 592.375,540.125 596.375,542.5"/>
    <polyline points="597.875,543.375 606.375,547.875 627.125,557.375 665.75,573.375"/>
    <polyline points="670.25,575.25 713.0,593.25 741.125,606.0 766.0,617.75 797.375,633.375 834.875,653.0 880.5,678.375 830.625,643.75 786.125,610.375 736.625,570.25 689.375,527.75"/>
    <polyline points="649.375,486.625 618.625,448.75 597.0,414.75 583.75,384.75 577.625,358.375 577.25,335.5 581.625,315.875 589.625,299.75 600.125,287.5 612.125,279.375 624.5,275.875 636.375,277.125 646.875,283.0 655.375,293.125 661.625,306.625 665.5,322.625 667.25,340.0 667.125,358.0 665.5,375.875 662.875,393.0 659.375,408.875 655.5,423.5 651.25,436.625 647.0,448.25 638.5,467.625"/>
    <polyline points="634.375,475.375 630.5,482.25 626.75,488.125 617.0,501.25 611.375,507.25 606.5,511.875 591.375,524.0 589.25,526.25 588.125,528.375"/>
    <polyline points="587.875,529.125 587.75,531.125 588.125,532.5 589.375,534.625 592.0,537.5 600.0,543.125 610.125,548.625"/>
    <polyline points="612.125,549.625 629.25,557.625 690.625,584.0 722.5,598.375"/>
    <polyline points="732.25,602.875 766.125,619.0 801.625,636.5 810.5,640.625 815.5,642.625 815.0,641.0 807.5,634.875 770.5,606.75 743.625,585.625 714.5,561.75 685.625,536.625 659.125,512.0 636.0,488.875 616.875,467.75 601.625,449.0 589.875,432.5 581.125,418.25 575.125,406.0 571.25,395.5 569.125,386.75 568.375,379.375"/>
    <polyline points="568.875,373.5 570.0,369.0 571.875,365.625 574.0,363.5 576.375,362.5 578.875,362.5 581.125,363.625 583.25,365.5 585.125,368.25 586.625,371.75 587.75,375.875 588.75,385.375 588.625,390.625 587.375,401.5 586.25,406.875 583.375,417.625 577.625,432.25 573.25,440.75 568.75,448.375"/>
    <polyline points="566.375,451.875 561.875,458.0 557.375,463.375 553.125,468.0 547.125,473.625 539.75,479.5 533.25,483.75 528.875,486.25 522.375,489.25"/>
    <polyline points="521.125,489.625 516.625,491.125 510.625,492.375 503.25,492.5 497.25,491.25"/>
    <polyline points="496.375,491.0 490.25,488.5 484.875,485.25 479.125,480.625 473.25,474.25"/>
    <polyline points="472.25,473.0 467.5,465.375 464.875,459.5 463.375,454.875 462.25,449.75 461.375,443.75 461.125,436.75 461.625,428.625 462.25,424.125 464.375,413.875 468.25,402.0 470.875,395.25 474.125,388.125"/>
    <polyline points="478.125,380.5 482.75,372.25 488.25,363.625 494.75,354.625 502.25,345.375 510.625,335.875 520.125,326.5 530.5,317.625 541.75,309.375 553.625,302.375 565.875,297.0 578.125,293.625 590.0,292.625 601.0,294.375 610.875,298.75 619.25,305.75 625.875,315.125 630.875,326.25 634.125,338.875 635.875,352.375 636.25,366.125 635.5,379.875 633.75,393.25 631.375,405.875 628.625,417.625 625.375,428.5"/>
    <polyline points="622.125,438.5 618.625,447.5 611.75,462.75 605.125,474.875 599.125,484.5 588.875,498.0 582.75,504.75 575.125,512.375 569.75,518.5"/>
    <polyline points="569.25,519.375 567.75,522.375 567.5,523.875 567.5,525.125 568.0,527.125 569.125,529.125 572.0,532.25 577.25,536.125"/>
    <polyline points="578.375,536.75 585.5,540.875 591.0,543.625 602.75,548.875 610.0,551.5"/>
    <polyline points="610.375,551.5 607.25,549.5 601.625,546.625 575.5,534.75 535.625,518.125 517.375,511.125 497.0,503.875 474.875,496.5 451.625,489.625 428.625,484.0 407.0,480.25 388.0,478.75 372.625,479.875 361.125,483.375 353.625,488.875 349.625,496.0 348.5,503.875"/>
    <polyline points="349.375,512.25 351.625,520.375 354.875,528.125 358.625,535.125 362.5,541.5 366.5,547.0 370.375,551.75 374.125,555.75 377.75,559.0 384.625,563.75 387.75,565.25 393.875,566.875 396.75,567.25 402.25,566.875 407.375,565.625 414.625,562.375 419.0,559.75 423.125,556.75"/>
    <polyline points="425.0,555.25 430.375,550.625 433.5,547.5 438.75,541.625 441.875,537.375 444.375,533.5 446.625,528.625 447.875,524.125 448.125,521.875"/>
    <polyline points="448.125,520.875 447.75,516.75 446.375,512.75 444.75,509.75 439.125,502.5 430.875,494.25"/>
    <polyline points="429.5,493.0 418.75,482.0 415.375,478.0 410.25,471.125 405.375,462.375 402.5,455.125 401.25,450.875 400.125,446.125 399.375,440.875 398.875,428.25 399.5,420.625 400.75,411.875 402.875,401.875"/>
    <polyline points="406.25,390.25 411.0,376.875 417.625,361.375 426.625,343.375 438.625,322.625 454.25,299.125 474.125,272.875 499.0,244.75 529.125,215.875 564.0,189.125 602.25,167.75 641.25,156.0 677.5,157.5 707.375,173.375 728.875,202.375 741.625,240.625 746.625,283.375 746.25,326.375 742.5,366.625 737.0,402.375 731.0,433.125 725.125,458.875 719.625,480.125 714.75,497.25 710.25,510.875 706.25,521.625"/>
    <polyline points="702.375,529.875 698.625,536.0 694.75,540.375 690.875,543.25 686.75,545.0 682.5,545.625 678.0,545.5 668.25,543.125 663.125,541.25 652.625,536.625 627.0,524.0 613.375,517.75 601.5,513.25 591.5,510.375"/>
    <polyline points="588.5,509.75 583.0,508.875 578.125,508.5 568.375,509.125 565.25,509.75 559.125,512.0 555.0,514.5 552.875,516.625"/>
    <polyline points="552.5,517.125 551.75,518.625 551.375,520.25 551.75,522.75 553.625,525.625 555.625,527.625 558.25,529.625"/>
    <polyline points="558.875,530.125 568.5,535.75 581.25,541.75"/>
    <polyline points="581.875,542.0 582.5,542.25 571.375,537.375 558.0,532.0 536.25,523.75 527.0,520.375 505.5,513.25 481.0,506.125 468.375,502.875 455.875,500.375 444.0,498.5"/>
    <polyline points="433.125,497.375 423.625,497.375 415.625,498.125 409.25,499.875 404.625,502.375 401.625,505.5 400.0,509.0 399.625,512.625 400.125,516.375 401.5,520.0 403.375,523.375 405.75,526.5 408.25,529.375 411.125,531.75 413.875,533.875 416.75,535.5 419.625,536.875 425.0,538.625 430.0,539.25 434.625,539.0 438.75,538.25 440.625,537.625"/>
    <polyline points="442.375,536.875 448.5,533.5 452.0,530.5 455.5,526.5 457.75,522.5 458.75,519.625 459.25,515.75 459.0,513.0"/>
    <polyline points="458.75,512.0 457.125,507.25 454.25,502.375 450.25,497.0 439.25,483.375"/>
    <polyline points="438.0,481.625 432.875,473.75 429.125,466.375 426.75,460.375 424.75,453.375 423.375,445.0 423.0,440.25 423.0,434.875 423.875,422.375 425.125,415.0 429.75,397.25 433.5,386.75 438.5,375.0 445.0,361.75 453.25,346.875 463.625,330.5"/>
    <polyline points="476.5,312.625 492.125,293.375 510.75,273.625 532.375,254.0 556.625,236.0 582.75,221.5 609.5,212.375 635.25,210.25 658.125,216.5 676.75,230.875 690.375,252.25 698.875,278.625 702.875,307.75 703.25,337.5 701.125,366.125 697.375,392.625 692.75,416.25 687.75,437.125 682.75,455.0 677.875,470.125 673.375,482.875 669.125,493.5 665.25,502.25 661.625,509.5 655.125,520.25"/>
    <polyline points="652.25,524.0 649.5,527.125 647.0,529.5 644.5,531.375 640.0,534.0 635.75,535.375 630.0,536.125 615.0,535.75 611.875,536.25"/>
    <polyline points="611.25,536.375 610.125,537.125 609.625,538.25 609.75,539.125 611.0,541.25 616.625,545.875 625.125,551.0"/>
    <polyline points="626.875,552.0 642.625,559.75 672.75,573.25 697.875,583.75 709.125,587.875"/>
    <polyline points="712.0,588.625 714.375,589.125 715.75,589.0 716.375,588.375 715.75,587.0 714.0,584.75 706.75,578.0 687.375,562.25 661.875,542.625 636.0,523.25 613.25,507.375 600.5,499.25 594.75,496.0 589.5,493.125 580.125,488.75"/>
    <polyline points="575.875,487.125 568.375,484.75 565.0,484.0 556.0,482.875 550.75,482.875 539.875,484.125 521.25,488.75"/>
    <polyline points="520.0,489.0 515.375,490.0 510.0,490.625 506.0,490.75 500.375,490.125 495.0,488.625"/>
    <polyline points="494.0,488.25 491.25,487.125 485.625,483.875 479.875,479.25 474.875,474.0 472.875,471.5 470.0,467.0"/>
    <polyline points="469.125,465.375 466.5,459.75 465.0,455.375 463.75,450.25 462.875,444.5 462.5,437.875 462.875,430.125 464.125,421.125 465.25,416.0 468.625,404.625 471.0,398.375 474.0,391.5 477.625,384.25 481.875,376.5 486.875,368.25 492.875,359.625 499.625,350.75"/>
    <polyline points="507.375,341.625 516.125,332.5 525.875,323.625 536.375,315.375 547.625,308.0 559.25,302.0 571.125,297.75 582.875,295.75 593.875,296.0 604.125,298.875 613.0,304.375 620.375,312.25 626.125,322.125 630.125,333.5 632.625,346.125 633.75,359.375 633.625,372.75 632.5,385.875 630.625,398.5 628.125,410.5 625.25,421.625 618.75,441.25 611.875,457.375 608.5,464.125"/>
    <polyline points="605.25,470.25 599.125,480.375 590.875,491.875 584.0,500.0 570.5,513.875 567.25,517.625 565.5,520.75"/>
    <polyline points="565.25,521.5 564.875,522.875 564.875,524.875 565.5,526.75 566.625,528.625 570.25,532.25 577.875,537.375"/>
    <polyline points="579.0,538.0 589.125,543.25 594.625,545.75 601.75,548.75 604.125,549.375 602.875,548.5"/>
    <polyline points="601.5,547.75 575.125,535.625 542.25,522.0 510.25,510.0 491.375,503.5 471.375,497.125 450.75,491.5 430.5,487.0 411.75,484.125 395.25,483.125 381.75,484.25 371.75,487.375 365.0,492.25 361.25,498.25 359.875,505.0 360.5,512.125 362.375,519.125 365.125,525.75"/>
    <polyline points="368.5,531.875 372.125,537.375 375.875,542.25 379.625,546.375 383.25,549.75 386.75,552.625 390.0,554.75 393.25,556.5 399.25,558.625 402.0,559.125 407.25,559.125 409.75,558.875 414.375,557.625 418.5,555.75 424.125,552.375 431.875,545.875"/>
    <polyline points="433.125,544.5 437.625,539.25 440.125,535.375 442.5,530.625 443.25,528.375 444.0,524.0 443.875,520.0 442.625,516.0"/>
    <polyline points="442.25,515.0 441.25,513.0 439.25,510.125 436.75,507.125 432.625,503.0 413.25,486.625"/>
    <polyline points="411.375,485.0 403.5,477.75 395.375,468.125 391.5,462.0 387.875,454.625 385.0,445.5 383.875,439.875 383.25,433.625 383.0,426.375 383.5,418.125 384.75,408.375 387.125,397.125 391.0,383.75 396.875,368.0 405.0,349.375 416.5,327.375 432.0,301.625"/>
    <polyline points="452.625,272.0 479.375,238.75 513.25,203.25 554.0,168.25 600.375,138.75 649.0,120.625 694.75,119.75 732.25,138.875 758.0,175.875 771.75,224.875 775.875,278.5 773.75,331.0 768.25,378.375 761.5,419.125 755.0,453.0 749.125,480.375 743.875,502.25 739.25,519.25 735.0,532.125 730.875,541.625 726.5,548.25 721.625,552.25 716.125,554.125 709.875,554.25 702.875,552.875 695.375,550.125"/>
    <polyline points="687.25,546.5 678.75,542.125 661.125,532.0 628.125,511.625 614.0,503.25 596.125,493.875 581.75,488.0 570.25,485.0 560.75,483.875 555.25,483.875 550.375,484.375"/>
    <polyline points="548.125,484.625 541.875,485.75 518.75,492.25 512.625,493.375"/>
    <polyline points="511.625,493.5 504.5,493.75 499.5,493.0 494.5,491.5 490.375,489.5"/>
    <polyline points="489.5,489.125 485.875,487.0 481.25,483.5 474.5,477.0 472.5,474.625 468.625,469.0 465.875,463.75"/>
    <polyline points="465.0,461.75 462.625,455.125 461.0,446.875 460.375,440.375 460.5,432.75 461.5,424.0 462.5,419.0 463.75,413.625 467.625,401.5 473.625,387.5 477.625,379.625 488.125,362.5 494.75,353.375 502.375,343.875 511.0,334.25 520.75,324.75"/>
    <polyline points="531.375,315.75 542.875,307.5 555.0,300.5 567.5,295.125 580.0,291.875 592.0,291.25 603.125,293.25 612.875,298.0 621.25,305.5 627.875,315.25 632.625,326.875 635.75,339.875 637.25,353.625 637.5,367.75 636.5,381.625 634.625,395.125 632.25,407.75 629.25,419.625 626.0,430.5 622.625,440.375 619.125,449.375 615.625,457.375 608.875,470.875 602.5,481.5"/>
    <polyline points="599.625,485.875 591.75,496.375 587.25,501.625 572.125,517.5 569.875,520.875 569.0,523.125 568.875,524.625"/>
    <polyline points="568.875,525.25 569.875,528.625 573.25,532.5 576.5,535.125 579.625,537.125 588.25,542.0"/>
    <polyline points="589.625,542.625 597.125,546.25 606.375,550.25 612.5,552.5 614.125,552.75 610.125,550.25 603.5,547.0"/>
    <polyline points="598.375,544.5 583.5,537.625 560.25,527.5 526.75,513.875 506.0,506.125 483.0,498.125 458.5,490.375 433.625,483.75 409.875,478.875 388.5,476.375 370.75,476.625 357.375,479.75 348.375,485.375 343.375,492.75 341.625,501.25 342.25,510.25 344.5,519.125 347.875,527.75 351.75,535.625 355.75,542.625 359.875,548.875 363.875,554.25 367.75,558.75"/>
    <polyline points="371.5,562.5 378.625,568.0 385.125,571.125 388.25,572.0 391.25,572.375 394.25,572.5 400.125,571.75 402.875,571.0 408.375,568.875 416.0,564.625 423.0,559.75 427.25,556.25 436.375,547.625"/>
    <polyline points="437.875,546.0 440.75,542.875 445.5,536.875 450.25,529.0 452.0,524.375 452.5,522.125 452.875,519.0 452.375,515.0"/>
    <polyline points="452.25,514.0 450.25,509.0 447.625,504.875 441.375,497.125 430.125,484.5"/>
    <polyline points="428.625,482.75 421.25,472.375 418.375,467.125 415.625,460.875 413.25,453.625 411.625,444.75 410.875,433.75 411.125,427.25 411.875,419.875 413.375,411.5 415.625,402.125 418.875,391.375 423.375,379.0 429.625,365.0 437.75,349.0 448.375,330.875 461.875,310.75"/>
    <polyline points="478.75,288.5 499.375,264.875 524.125,240.75 552.625,217.875 584.125,198.75 616.75,186.25 648.25,182.875 676.0,190.5 698.125,208.875 713.375,236.375 722.0,269.875 725.125,305.875 724.125,341.625 720.625,375.0 715.75,405.0 710.25,431.125 704.75,453.375 699.625,472.0 694.75,487.375 690.25,500.0 686.25,510.125 682.375,518.25 678.875,524.625 675.5,529.625 672.375,533.375 669.125,536.125"/>
    <polyline points="666.0,538.0 662.875,539.25 659.75,539.875 653.375,539.875 646.875,538.75 637.25,535.875 622.25,530.5 611.875,527.25 603.25,525.375 598.0,524.75"/>
    <polyline points="596.5,524.75 591.375,525.125 589.5,525.625 586.75,527.125 586.0,528.125 585.375,529.625 585.625,531.375 586.5,533.25 588.75,536.0"/>
    <polyline points="589.5,536.625 594.5,540.5 597.125,542.125 608.625,548.375 627.375,557.125 636.5,561.0"/>
    <polyline points="639.75,562.375 691.75,584.5 733.875,603.5 784.0,627.75 833.25,652.75 836.125,653.375"/>
    <polyline points="830.625,648.75 791.0,619.375 759.5,595.125 724.875,566.875 690.5,537.0 659.5,507.625 633.375,480.0 612.5,454.875 596.625,432.75 585.375,413.25 578.125,396.375 574.0,381.875 572.5,369.5 573.125,359.125 575.5,350.75 579.0,344.25 583.25,339.625 588.0,337.0 592.75,336.125 597.5,337.0 601.75,339.75 605.375,343.875 608.375,349.375 610.625,356.0 612.0,363.375"/>
    <polyline points="612.625,371.5 612.625,379.875 611.875,388.5 610.625,397.125 609.0,405.5 604.5,421.25 601.875,428.5 596.375,441.625 590.5,452.875 587.625,457.75 579.25,470.125 569.25,482.125 562.75,488.625 557.125,493.625"/>
    <polyline points="555.375,495.125 538.875,508.25 536.125,510.875 534.375,513.125"/>
    <polyline points="534.125,513.5 533.5,515.0 533.375,517.0 534.625,519.625 536.875,521.75"/>
    <polyline points="537.25,522.125 542.875,525.875 553.125,531.125"/>
    <polyline points="554.0,531.5 567.375,537.75 565.75,537.125"/>
    <polyline points="564.75,536.75 554.875,532.875 520.75,521.0 505.875,516.5 481.375,510.25 465.125,507.25 450.625,505.875 444.5,506.0 439.25,506.5 434.875,507.375 431.5,508.75"/>
    <polyline points="429.0,510.375 427.5,512.25 426.625,514.25 426.5,516.375 427.875,520.5 429.25,522.375 432.75,525.75 437.0,528.25 439.125,529.25 443.625,530.5 448.0,531.125 452.25,531.25 459.75,530.0 465.875,527.75"/>
    <polyline points="467.25,527.125 473.75,522.875 477.375,519.375 479.625,516.0 480.5,514.0 481.0,510.25"/>
    <polyline points="481.0,509.625 480.5,507.25 479.75,505.375 477.875,502.125 474.125,497.125 469.75,492.125"/>
    <polyline points="468.875,491.25 462.5,483.625 459.5,479.5 456.375,474.75 453.375,469.125 451.375,464.75 448.75,457.125 447.375,450.875 446.5,443.75"/>
    <polyline points="446.375,439.625 446.625,430.5 447.25,425.125 449.625,413.125 451.5,406.25 457.375,390.25 461.5,381.25 466.5,371.25 472.75,360.625 480.25,349.0 489.125,336.875 499.625,324.125 511.625,311.125 525.375,298.375 540.5,286.375 556.75,276.0 573.75,267.875 590.875,262.875 607.375,261.625 622.5,264.875 635.5,272.375 646.0,283.875 653.75,298.75"/>
    <polyline points="658.75,316.0 661.25,334.75 661.75,353.875 660.625,372.75 658.375,390.75 655.25,407.5 651.5,422.75 647.5,436.5 643.5,448.75 635.5,468.875 628.125,484.0 621.5,495.375 613.25,507.25 604.875,516.875 599.0,522.75"/>
    <polyline points="597.875,523.75 596.0,525.75 593.75,529.125 593.125,531.375 593.375,533.5 594.875,536.375 597.0,538.625 599.875,541.0 603.625,543.5"/>
    <polyline points="605.0,544.375 613.5,549.125 627.375,555.875 685.125,581.25"/>
    <polyline points="691.5,584.125 766.0,618.0 778.5,623.125 781.125,623.375 780.0,621.375 774.625,616.5 713.125,567.375 692.375,550.25 672.0,532.75 652.875,515.75 635.625,499.75 620.375,485.125 596.5,460.5"/>
    <polyline points="587.5,450.5 574.0,434.625 565.25,423.375 555.25,409.5 553.125,407.375 552.25,407.625 551.5,408.875 546.75,420.375"/>
    <polyline points="545.875,421.875 543.375,426.25 539.375,431.625 534.0,437.125 530.625,439.75 527.25,441.75 522.75,443.5 519.625,444.125"/>
    <polyline points="518.625,444.25 514.75,444.0 512.0,443.125 509.625,441.625 507.5,439.5 505.25,435.625 504.5,433.25 503.75,427.5 503.875,424.0"/>
    <polyline points="504.125,422.25 505.375,416.25 506.75,411.875 510.0,404.75 512.875,399.75 516.375,394.625 522.875,387.25 530.5,380.75 536.125,377.375 539.0,376.0 544.75,374.25 550.25,373.875"/>
    <polyline points="552.875,374.125 555.375,374.875 557.625,376.0 559.75,377.5 563.125,381.5 564.5,384.0 566.375,389.75 566.875,392.875 567.25,399.625 566.625,406.625 566.0,410.25 563.0,420.625 560.5,427.125 557.5,433.125 554.25,438.625 550.875,443.5"/>
    <polyline points="549.125,445.75 544.0,451.875 540.5,455.25 535.375,459.5 528.875,463.75 524.25,466.125 518.5,468.25 513.0,469.375 510.375,469.5"/>
    <polyline points="509.125,469.625 505.375,469.375 499.5,467.875 495.0,465.625 492.875,464.125 489.875,461.5 488.0,459.25 485.375,455.375 483.125,450.625"/>
    <polyline points="482.5,448.75 481.0,442.625 480.5,437.75 480.375,432.125 481.0,425.875 482.25,418.75 484.5,410.75 486.0,406.375 490.125,396.875 495.75,386.5 499.25,381.0 503.125,375.25 507.625,369.5 512.5,363.75 518.0,358.125 523.875,352.5 530.125,347.25"/>
    <polyline points="536.875,342.5 543.875,338.375 551.125,335.0 558.25,332.5 565.5,331.125 572.375,331.0 578.75,332.125 584.625,334.5 589.875,338.25 594.375,343.125 598.0,349.0 600.75,355.75 602.625,363.25 603.75,371.125 604.125,379.375 603.875,387.625 603.0,396.0 601.625,404.0 600.0,411.875 598.0,419.25 593.25,432.875 588.0,444.75 582.625,454.875"/>
    <polyline points="580.0,459.375 572.25,470.5 567.375,476.5 560.75,483.625 553.25,490.75 545.5,497.0 536.625,503.5"/>
    <polyline points="535.75,504.125 528.5,509.5 526.875,511.125 525.5,513.25"/>
    <polyline points="525.375,513.5 525.25,514.875 525.625,516.0 526.125,516.875 528.5,519.0"/>
    <polyline points="528.75,519.25 534.875,523.0 540.75,526.0"/>
    <line x1="541.375" x2="560.625" y1="526.25" y2="535.125"/>
    <polyline points="561.375,535.375 564.5,536.875 545.25,529.75 526.0,523.25"/>
    <polyline points="519.875,521.25 491.375,513.25 476.125,510.0 461.875,507.875 449.625,507.375 444.625,507.75 440.375,508.5 437.125,509.5 434.5,510.875 432.75,512.5 431.75,514.25 431.375,516.125 431.625,518.0 432.25,519.75 434.75,523.125 438.25,525.875 442.375,528.0"/>
    <polyline points="444.5,528.75 448.75,529.75 452.875,530.125 456.875,530.125 464.0,528.875 470.0,526.75 472.5,525.5 476.75,522.875 480.75,519.75"/>
    <polyline points="481.375,519.125 483.875,516.125 485.5,512.25 485.625,509.0 484.375,505.375"/>
    <polyline points="484.125,504.875 481.875,501.5 479.25,498.375 468.75,487.0"/>
    <polyline points="467.75,486.0 460.875,477.125 458.875,473.875 454.875,466.375 452.25,459.25 450.125,450.5 449.375,443.5 449.125,435.25 450.0,425.5"/>
    <polyline points="451.0,419.875 452.25,413.875 456.5,400.0 459.625,392.0 463.5,383.375 468.25,374.0 474.0,363.875 481.0,353.0 489.375,341.5 499.0,329.5 510.125,317.25 522.875,305.125 536.875,293.625 552.0,283.5 567.875,275.25 584.125,269.75 599.875,267.625 614.5,269.375 627.5,275.125 638.25,284.625 646.5,297.625 652.25,313.0 655.625,330.25 656.875,348.125 656.5,366.125"/>
    <polyline points="654.75,383.625 652.125,400.125 648.75,415.375 645.0,429.125 641.125,441.625 637.125,452.625 629.5,470.75 622.375,484.625 619.125,490.25 613.125,499.25 605.75,508.875 591.375,524.25"/>
    <polyline points="590.625,525.125 589.125,527.625 588.625,529.25 588.625,531.375 589.375,533.625 591.625,536.5 595.125,539.625 603.0,544.625"/>
    <polyline points="604.625,545.5 616.25,551.5 629.0,557.375 690.125,583.875"/>
    <polyline points="697.125,586.875 741.75,607.375 797.75,634.375 805.625,638.0 809.875,639.375 808.75,637.375 801.125,631.125 765.625,603.875 740.125,583.75 712.5,561.125 685.125,537.5 659.75,514.25 637.5,492.25 618.75,472.125 603.5,454.25 591.625,438.5 582.625,424.875"/>
    <polyline points="576.125,413.125 571.5,403.125 568.75,394.75 567.25,387.75 566.875,382.0 567.25,377.5 568.25,374.125 569.625,371.875 571.375,370.5 573.125,370.0 575.0,370.5 576.75,371.75 578.25,373.625 579.5,376.25 580.625,379.375 581.25,382.875 581.75,391.125 581.0,400.25 579.25,409.5 576.5,418.75 573.125,427.375"/>
    <polyline points="571.25,431.375 567.375,439.0 563.25,445.75 557.0,454.375 550.75,461.5 544.875,467.125 537.5,473.0 532.5,476.375 524.75,480.375"/>
    <polyline points="523.375,481.0 515.5,483.625 508.375,484.625 504.0,484.625 500.75,484.25 494.625,482.5"/>
    <polyline points="493.5,482.125 488.5,479.5 485.375,477.375 481.375,473.875 478.375,470.625 476.375,468.125 472.75,462.0 471.0,458.375 469.625,454.125"/>
    <polyline points="468.875,451.875 467.5,444.0 467.125,434.25 467.875,426.5 469.5,417.5 470.75,412.625 474.5,401.5 480.25,388.75 483.875,381.75 493.375,366.75 499.25,358.75 505.875,350.625 513.375,342.5 521.625,334.375 530.75,326.75 540.375,319.75 550.625,313.75"/>
    <polyline points="561.125,309.125 571.75,306.0 582.0,304.875 591.625,305.75 600.375,309.0 608.0,314.25 614.375,321.5 619.375,330.5 622.875,340.75 625.0,352.0 626.0,363.75 625.875,375.75 625.0,387.5 623.25,399.0 621.0,409.875 618.375,420.0 615.5,429.5 612.375,438.25 605.875,453.375 602.75,459.875 596.5,470.875 588.0,483.5"/>
    <polyline points="585.375,487.0 576.375,497.375 560.25,513.375 557.75,516.5 556.25,519.875"/>
    <polyline points="556.125,520.5 556.25,523.375 557.0,525.125 558.125,526.75 561.5,530.0 568.125,534.375"/>
    <polyline points="569.125,534.875 577.5,539.375 588.5,544.25 587.0,543.375"/>
    <polyline points="585.875,542.875 575.5,538.25 551.875,528.625 521.625,517.375 509.125,513.125 481.25,504.5 466.625,500.625 452.0,497.375 438.125,495.0 425.5,493.75 414.5,493.625 405.375,494.625 398.25,496.875 393.25,500.0 390.25,503.875 388.75,508.25 388.75,512.75"/>
    <polyline points="389.75,517.25 391.5,521.625 393.875,525.625 396.625,529.375 399.625,532.625 402.625,535.375 408.875,539.625 414.75,542.25 420.125,543.5 422.75,543.625 427.375,543.375 431.625,542.5 437.0,540.25 440.0,538.375 443.875,535.25 444.875,534.125"/>
    <polyline points="445.875,533.0 446.875,532.0 449.125,528.625 450.75,525.5 452.125,519.25 451.75,515.25 451.25,513.375 450.125,510.375 448.5,507.375"/>
    <polyline points="447.875,506.375 443.875,501.125 430.875,486.75 425.125,479.75 420.625,473.25 417.625,468.125"/>
    <polyline points="416.125,465.25 412.25,455.0 410.375,446.25 409.75,441.25 409.5,429.375 410.125,422.125 411.375,414.125 413.375,404.875 416.25,394.5 420.5,382.5 426.25,368.75 433.875,353.125 443.875,335.375 456.625,315.375 472.875,293.25 492.875,269.5 517.0,244.75 545.25,220.875 576.75,200.125 610.0,185.25 642.75,179.375 672.25,184.5"/>
    <polyline points="696.25,201.125 713.25,227.5 723.375,260.875 727.5,297.375 727.125,334.125 724.0,368.875 719.125,400.125 713.625,427.5 708.125,450.75 702.75,470.25 697.875,486.375 693.375,499.5 689.25,510.0 685.375,518.5 681.875,525.125 678.375,530.25 675.125,534.125 671.875,536.875 668.625,538.75 665.375,540.0 662.125,540.5 658.75,540.625 652.0,539.75 645.125,537.875"/>
    <polyline points="641.625,536.75 622.125,529.5 608.5,525.125 601.75,523.625 594.375,522.875 588.875,523.25 585.75,524.125"/>
    <polyline points="585.0,524.5 583.0,525.625 581.875,527.125 581.5,528.875 581.875,530.625 582.875,532.5 585.25,535.25 591.0,539.625"/>
    <polyline points="592.25,540.375 601.0,545.375 617.125,553.125 649.125,566.625"/>
    <polyline points="652.75,568.0 688.5,582.5 721.75,596.5 740.0,604.625 777.125,622.125 811.75,639.5 855.25,662.625 878.375,675.625 899.0,687.75 911.625,695.625"/>
    <polyline points="909.125,694.5 885.625,679.5 840.875,648.625 782.5,604.5 721.875,553.5 668.5,501.75 627.375,453.25 599.25,409.375 583.125,370.375 577.375,335.875 580.0,305.375 589.5,279.375 604.125,258.25 622.0,243.125 641.25,235.125 659.875,234.875 676.25,242.625 689.25,257.625 698.125,278.25 703.0,302.75 704.5,328.875 703.25,355.125 700.25,380.125 696.0,403.125 691.0,423.625 685.75,441.625"/>
    <polyline points="680.5,457.125 675.375,470.25 670.5,481.375 665.875,490.625 661.375,498.25 657.25,504.5 653.25,509.625 649.5,513.75 646.0,517.0 642.5,519.75 639.375,521.75 633.375,524.75 625.375,527.0 616.375,528.125 606.25,528.875"/>
    <polyline points="605.0,529.0 601.75,529.625 599.25,530.625 597.75,531.75 597.0,533.125 597.125,534.75 598.0,536.625 599.625,538.625 603.125,541.5"/>
    <polyline points="604.25,542.375 612.75,547.625 627.5,555.125 671.125,574.625"/>
    <polyline points="676.375,577.0 750.25,609.625 755.625,611.625 759.375,612.625 761.0,612.375 760.0,610.375 755.875,606.375 748.5,600.125 693.625,556.0 677.125,542.375 645.75,515.75 631.875,503.5"/>
    <polyline points="619.375,492.375 571.5,449.125 559.375,439.5 553.625,435.875 551.25,434.75 547.125,433.25 545.25,432.875 540.625,432.75 536.75,433.5 532.125,435.125"/>
    <polyline points="531.125,435.5 524.125,437.5 520.5,437.75 518.125,437.375 514.625,435.75 512.875,434.0 511.5,431.75"/>
    <polyline points="511.125,430.875 510.25,427.75 510.0,424.125 510.375,420.0 511.5,415.25 512.75,411.875 516.375,404.625 518.875,401.0 523.25,395.625 526.75,392.375"/>
    <polyline points="528.625,390.875 532.5,388.125 536.5,386.125 540.5,384.875 544.375,384.5 546.25,384.625 548.0,385.0 551.25,386.625 552.625,387.75 555.0,390.625 556.625,394.375 557.125,396.5 557.75,401.0 557.75,406.0 556.5,413.625"/>
    <polyline points="555.75,416.25 554.0,421.25 550.875,428.25 548.375,432.625 542.875,440.25 538.5,444.875 534.125,448.75 531.25,450.875 526.875,453.5 522.75,455.375"/>
    <polyline points="521.375,455.75 517.5,456.875 513.625,457.25 510.125,457.125 505.625,456.0 503.5,455.0 499.625,452.25 497.0,449.375 494.875,445.75"/>
    <polyline points="494.25,444.375 493.125,441.375 492.25,437.875 491.75,431.75 491.875,427.0 492.625,421.625 494.0,415.75 496.125,409.375 501.0,398.5 505.5,390.75 511.25,382.75 514.625,378.625 522.125,370.75"/>
    <polyline points="526.25,367.0 530.75,363.5 535.375,360.375 540.125,357.625 545.0,355.375 549.875,353.75 554.75,352.625 559.5,352.25 564.0,352.625 568.125,353.75 572.0,355.625 575.5,358.25 578.5,361.625 581.0,365.625 582.875,370.0 584.375,375.0 585.375,380.25 585.875,385.875 585.875,391.5 584.75,403.0 582.375,414.25 580.75,419.625 577.125,429.625"/>
    <polyline points="575.125,434.25 570.875,442.75 564.25,453.5 555.5,464.625 547.25,472.875 540.0,478.875 536.625,481.25 527.625,486.5"/>
    <polyline points="526.25,487.125 521.25,489.375 515.625,491.125 512.5,491.75 508.625,492.25 504.125,492.25 500.625,491.75"/>
    <polyline points="499.75,491.625 494.5,490.125 487.375,486.625 481.75,482.625 476.875,478.125"/>
    <polyline points="475.875,477.0 471.0,470.875 467.25,464.375 465.5,460.5 464.0,456.125 462.125,448.25 461.375,438.5 461.625,430.75 462.875,421.75 463.875,416.625 465.375,411.125"/>
    <polyline points="467.25,405.25 472.5,392.0 476.125,384.5 480.375,376.625 485.5,368.25 491.5,359.5 498.375,350.375 506.25,341.0 515.125,331.625 525.0,322.5 535.75,313.875 547.25,306.25 559.375,300.0 571.5,295.5 583.625,293.25 595.0,293.5 605.5,296.5 614.625,302.125 622.25,310.25 628.125,320.375 632.25,332.25 634.75,345.25 635.875,358.875 635.625,372.625 634.5,386.125"/>
    <polyline points="632.5,399.125 629.875,411.375 626.875,422.625 623.625,433.125 620.25,442.625 616.75,451.125 609.875,465.625 603.5,477.125 597.5,486.125 592.25,493.25 583.375,503.5 572.25,515.0"/>
    <polyline points="571.25,516.0 568.125,520.375 567.25,522.625 567.125,525.25 568.375,528.5 570.5,531.125 573.375,533.625"/>
    <polyline points="574.25,534.25 580.5,538.25 586.75,541.625 596.75,546.375 606.25,550.25"/>
    <polyline points="607.25,550.625 609.375,551.125 605.5,548.75 588.375,540.625 571.25,533.0 545.75,522.375 511.0,509.0 490.25,501.75 468.0,494.625 445.25,488.25 422.875,483.25 402.375,480.25 384.625,479.5 370.625,481.25"/>
    <polyline points="360.375,485.375 354.0,491.25 350.875,498.375 350.25,506.25 351.625,514.375 354.125,522.25 357.5,529.625 361.125,536.375 365.125,542.375 369.0,547.625 376.625,555.75 380.125,558.75 383.5,561.125 390.0,564.375 395.875,565.75 401.375,565.75 406.625,564.875 411.5,563.125 416.0,560.75"/>
    <polyline points="418.125,559.5 422.25,556.75 429.5,550.75 436.625,543.375 441.0,537.75 444.125,532.625 445.75,529.0 446.75,525.5"/>
    <polyline points="447.0,524.5 447.125,519.25 446.5,516.125 444.875,512.25 440.75,506.125 437.0,501.875 433.5,498.5"/>
    <polyline points="432.25,497.375 422.25,487.875 413.875,479.0 408.5,472.25 403.375,463.875 400.25,456.875 397.625,448.25 396.125,437.625 395.75,431.125"/>
    <polyline points="396.0,423.875 397.0,415.5 398.75,405.875 401.5,394.625 405.75,381.75 411.75,366.625 420.0,349.125 431.125,328.875 445.75,305.625 464.625,279.375 488.625,250.625 518.125,220.5 553.0,191.5 592.0,166.875 632.875,151.125 672.0,148.5 705.25,161.25 729.875,188.625 745.0,226.875 751.75,271.0 752.125,316.125 748.75,358.75 743.25,396.875 737.125,429.625 731.125,457.0 725.5,479.5"/>
    <polyline points="720.5,497.625 716.0,512.0 711.875,523.25 708.0,531.75 704.125,538.125 700.125,542.5 696.0,545.375 691.625,546.875 687.0,547.25 682.0,546.75 676.625,545.375 671.125,543.5 665.5,541.125 653.75,535.5 620.125,518.25 606.125,512.0 597.875,508.875"/>
    <polyline points="594.125,507.625 587.375,505.875 578.5,504.375 573.375,504.0 566.75,504.25 561.25,505.125 555.375,506.75 551.75,508.25 547.375,510.75"/>
    <polyline points="546.625,511.25 543.5,514.125 542.5,515.5 542.0,516.875 541.875,519.0 542.375,520.625 543.5,522.25"/>
    <polyline points="543.75,522.75 545.375,524.375 549.25,527.25 555.75,531.125 560.0,533.25"/>
    <polyline points="561.0,533.75 572.875,539.25 566.5,536.75"/>
    <polyline points="564.25,535.875 549.75,530.25 532.0,523.875 507.75,516.0 489.0,510.625 479.125,508.25 460.0,504.5 443.0,502.875 435.875,503.0 429.875,503.75 425.125,505.0 421.375,506.75 418.875,508.875 417.375,511.375 416.875,513.875 417.0,516.5"/>
    <polyline points="417.875,519.125 419.25,521.625 423.0,526.0 427.625,529.375 432.5,531.75 437.375,533.125 439.75,533.5 446.375,533.5 450.375,532.875 453.875,531.875 457.125,530.625 460.0,529.125 464.625,525.875"/>
    <polyline points="465.625,525.0 469.375,520.875 471.625,516.875 472.125,515.25 472.5,510.625 471.875,507.625 470.875,505.25"/>
    <polyline points="470.5,504.5 466.25,497.75 455.75,484.5 450.5,476.625"/>
    <polyline points="449.375,474.875 447.125,470.875 443.125,461.25 441.375,455.25 440.125,448.25 439.5,440.0 439.75,430.125 440.375,424.5 443.0,411.375 445.125,403.75 448.0,395.375 451.75,386.125 456.5,375.875 462.375,364.75 469.625,352.5 478.5,339.375 489.0,325.25"/>
    <polyline points="501.5,310.625 515.875,295.875 532.25,281.5 550.25,268.375 569.5,257.5 589.25,250.0 608.5,246.75 626.5,248.75 642.125,256.0 654.875,268.375 664.25,285.0 670.25,304.625 673.25,326.125 673.875,348.125 672.5,369.625 669.875,390.0 666.375,408.875 662.25,425.875 658.0,440.875 653.625,454.125 649.375,465.5 645.25,475.5 641.375,483.875 637.625,491.125 631.125,502.625"/>
    <polyline points="628.125,507.0 625.5,510.75 618.5,519.125 611.625,525.625 605.375,531.0 604.25,532.375 603.5,533.75 603.25,535.0 603.25,536.25 604.125,538.125"/>
    <polyline points="604.5,538.875 605.625,540.25 609.125,543.25 618.875,549.375 634.125,557.125 649.375,564.125"/>
    <polyline points="652.875,565.75 694.375,584.0 717.125,593.625 727.5,597.875 731.875,599.375 735.25,600.25 737.375,600.375 738.0,599.625 736.75,597.625 733.5,594.25 721.0,583.5 701.375,567.75"/>
    <polyline points="689.875,558.625 621.125,503.5 596.125,484.375 583.25,475.5 572.875,469.125 568.375,466.75 564.25,464.875 557.125,462.25 551.0,460.75 545.75,460.125 543.25,460.0 536.75,460.375"/>
    <polyline points="534.75,460.625 519.5,463.0 512.5,463.375 508.625,463.0 505.0,462.25 502.75,461.5 499.375,459.75"/>
    <polyline points="498.375,459.125 495.375,456.75 493.5,454.75 491.0,451.125 488.375,445.0 487.0,439.25 486.625,434.75 486.625,429.625 487.25,423.875 489.5,414.0 490.75,410.375"/>
    <polyline points="492.125,406.5 493.875,402.375 498.25,393.75 503.875,384.625 511.0,375.0 519.75,365.5 524.625,361.0 535.25,352.875 541.0,349.375 546.875,346.625 552.75,344.5 558.625,343.125 564.25,342.75 569.75,343.25 574.75,344.75 579.25,347.25 583.25,350.625 586.75,354.875 589.5,359.875 591.5,365.625 593.0,371.75"/>
    <polyline points="593.875,378.25 594.125,385.0 593.875,391.875 593.125,398.75 592.0,405.5 588.875,418.375 584.75,430.125 582.5,435.5 575.375,449.5 570.5,457.375 565.75,464.0 561.125,469.625 556.75,474.375 552.625,478.5 546.875,483.5"/>
  </g>
</svg>
