<?xml version="1.0" encoding="utf-8" ?>
<svg xmlns="http://www.w3.org/2000/svg" xmlns:cc="http://creativecommons.org/ns" xmlns:dc="http://purl.org/dc/elements/1.1/" xmlns:ev="http://www.w3.org/2001/xml-events" xmlns:inkscape="http://www.inkscape.org/namespaces/inkscape" xmlns:rdf="http://www.w3.org/1999/02/22-rdf-syntax-ns" xmlns:sodipodi="http://sodipodi.sourceforge.net/DTD/sodipodi-0.dtd" xmlns:xlink="http://www.w3.org/1999/xlink" baseProfile="tiny" height="27.09333333cm" version="1.2" viewBox="0 0 1024.0 1024.0" width="27.09333333cm">
  <metadata>
    <rdf:RDF>
      <cc:Work>
        <dc:format>image/svg+xml</dc:format>
        <dc:source>vpype read './original_svgs/Strange Attractors #268.svg' linemerge linesimplify write './Strange Attractors #268.svg'
</dc:source>
        <dc:date>2024-08-05T01:35:44.070803</dc:date>
      </cc:Work>
    </rdf:RDF>
  </metadata>
  <defs/>
  <g fill="none" id="layer1" inkscape:groupmode="layer" inkscape:label="1" stroke="black" style="display:inline">
    <polyline points="581.0,528.875 571.8762,520.782 563.4699,512.2942 555.4988,503.1419 548.1976,493.6163 541.1203,483.1133 534.6872,472.245 528.5281,460.3963 523.2276,448.6132 518.4115,436.0944 514.2104,423.2125 510.5021,409.6384 507.3029,395.392 504.625,380.5 502.6351,365.9851 501.1991,350.8796 500.3552,335.2717 500.1483,318.5042 500.6552,301.8498 501.8457,285.7108 503.7483,270.0666 506.3559,254.8847 509.7211,239.9649 513.7432,225.8794 518.2564,213.1177 523.2416,201.6773 528.7085,191.5161 534.8517,182.3216 541.1492,174.8671 547.7318,168.9133 554.3353,164.6664 557.6111,163.1607 561.2748,161.9158 564.9482,161.117 568.6152,160.7595 574.4288,161.0934 580.1189,162.5254 585.6198,165.0359 590.5464,168.3516 595.4369,172.7968 600.2398,178.4172 604.6787,184.9409 608.7162,192.2851 612.3149,200.3669 615.3062,208.6931 617.9372,217.9666 620.0815,227.8332 621.7183,238.0715 622.8906,248.9816 623.5429,260.1145 623.6835,271.7708 623.3158,283.0812 622.3883,295.4489 620.9368,308.0766 619.0268,320.5296 616.6267,333.1205 613.8362,345.4102 610.4154,358.3978 606.5813,371.3195 602.3855,384.0601 597.7261,396.9351 586.3112,424.9134 574.8332,450.5061 548.6861,505.3327 540.26,524.5545 535.1779,537.3675 528.6618,556.5159 523.2411,576.5699 520.0358,592.991 517.4961,611.1914 516.5692,621.406 515.6504,639.9435 515.4745,657.1658 515.9501,674.7192 516.75,689.9492 518.216,705.877 520.6594,724.4059 523.4606,741.6592 527.5876,761.093 532.4521,779.5163 536.4189,792.5212 541.5078,807.1305 547.5718,821.9755 552.293,831.31 557.3056,838.8767 559.6837,841.1522 561.4513,841.9007 562.417,841.6912 563.0,841.125 563.8523,838.6336 564.12,834.1157 563.6985,828.3906 562.6326,821.4838 560.8893,813.1665 555.699,793.3424 549.0248,772.1478 540.6722,748.7755 529.9827,721.2575 518.2221,693.0013 506.9392,667.4651 494.9444,641.7182 481.09,613.2459 466.0049,583.4164 442.3634,538.711 394.8269,452.76 383.7198,431.7584 378.982,421.8844 375.6678,413.9832 373.7426,407.9655 373.1857,403.8885 373.5506,401.6471 374.7504,399.9096 376.688,399.0443 379.2631,398.9749 382.375,399.625 386.9508,401.2538 397.4963,406.3548 410.9734,414.5205 426.629,425.3489 441.0442,436.6921 454.0459,447.9983 464.4191,458.2537 473.1778,467.8259 480.4032,477.0306 486.9727,486.5527 493.4982,497.9194 497.0,505.25 500.75,516.0 501.7651,520.8256 501.747,523.226 501.0,522.875 500.3167,521.5105 497.6175,512.0545 494.9643,497.637 492.6607,480.6139 491.1037,464.775 489.7745,444.8146 489.2273,431.1606 489.0452,416.039 489.2579,397.7705 489.7836,383.2368 490.7709,367.7386 492.2037,352.1926 493.9394,337.8582 496.1157,323.8472 498.7105,310.2551 501.7564,296.9097 504.9692,284.9273 508.4218,273.9941 512.4186,263.2443 516.6356,253.5642 520.991,245.0131 525.6221,237.3074 530.5307,230.5358 535.6518,224.8009 540.9111,220.1955 546.2343,216.8125 551.3559,214.7905 556.5435,213.9304 562.0244,214.2948 566.964,215.8291 571.9544,218.7458 576.3023,222.7114 579.6708,226.8243 582.9534,231.9005 585.7374,237.3013 588.1997,243.2662 590.315,249.7559 592.0229,256.5199 593.4663,263.9789 594.5971,272.1162 595.3124,280.1403 595.6804,288.7604 595.2571,306.7009 593.3626,326.0179 590.0843,345.4222 585.8486,363.6992 580.7114,381.939 574.4937,400.7771 567.1415,420.4806 558.0187,442.7151 531.2378,504.0897 517.4074,537.0444 512.7669,546.4883 510.8179,549.5527 509.1875,551.4688 507.2798,552.771 505.5648,553.0093 503.8359,552.207 501.862,550.173 500.104,547.011 497.9467,541.8311 494.8518,531.2697 491.5238,515.9827 488.1038,493.6273 485.7263,472.7887 483.9663,450.5331 483.1024,430.8311 482.812,409.2077 483.0919,388.8894 483.995,369.215 485.5309,349.6069 487.7113,330.1082 490.3231,312.6861 493.5455,295.7405 497.0468,280.6189 501.0786,266.0144 505.186,253.4894 509.8753,241.4362 515.0182,230.2652 520.5576,220.1481 526.4364,211.2563 532.3731,204.0384 538.6829,198.0769 545.1704,193.554 548.6043,191.7785 552.0431,190.4221 555.4717,189.4931 558.5671,189.0266 562.0538,188.9289 565.1992,189.2254 568.2991,189.8839 571.6757,191.0332 574.9652,192.6149 577.8376,194.4016 583.5725,199.2776 587.4595,203.8043 591.1487,209.2593 594.4763,215.3092 597.596,222.2901 600.3097,229.8561 602.4954,237.5512 604.2717,245.6715 605.6829,254.5626 606.7214,264.1362 607.3266,273.9214 607.5023,283.8542 607.2523,293.8709 606.5803,303.9077 605.4132,314.7052 603.8323,325.7655 601.8359,337.0243 598.5668,352.0684 594.6475,367.0027 589.7391,383.1686 584.0277,399.8243 577.8752,416.0912 571.0183,432.8221 543.4815,495.0231 532.5442,521.2447 526.3022,538.4841 520.9793,555.0345 509.7317,595.6771 507.1924,602.1779 505.9293,604.2416 504.8087,605.3423 503.0521,605.9074 501.2083,604.9491 499.239,602.6031 497.0731,598.4292 494.8531,593.0136 492.9785,587.2938 489.5619,575.0854 487.6543,567.055 482.3995,540.1422 478.8262,516.9706 475.4802,488.8218 473.0651,459.8211 471.6165,433.4337 471.0567,411.0209 471.2083,386.352 472.1184,361.2089 473.6062,338.7293 475.8198,316.9311 478.8059,295.3709 482.485,274.7171 486.5047,256.4735 491.1619,239.2454 496.4146,223.1283 502.3172,207.9555 508.6687,194.2687 515.3362,182.2836 522.3647,171.9352 529.8393,163.054 537.9331,155.5248 541.9328,152.5352 545.974,149.9853 550.0428,147.8892 554.1253,146.2615 558.3456,145.0861 562.3082,144.4451 566.2604,144.2394 570.5439,144.5022 574.7809,145.2637 578.9538,146.5136 583.0448,148.2419 587.0362,150.4385 590.9102,153.0932 594.3433,155.9205 599.394,161.0122 604.2844,167.1826 608.777,174.1104 613.0298,182.0754 616.6798,190.366 620.007,199.5941 622.8252,209.346 625.1094,219.5402 626.9037,230.3914 628.2201,241.9221 628.9945,253.6271 629.2466,265.4421 628.9959,277.3031 628.2304,289.5266 626.9495,301.8677 625.118,314.7314 621.1345,335.5284 615.879,356.4692 608.9802,378.7357 600.8129,401.3217 593.1303,420.1265 583.7348,441.1021 547.5305,516.4237 539.973,534.1289 534.1332,549.4984 528.3133,568.0757 524.7683,582.7212 521.3972,601.4998 519.4152,620.012 518.6097,641.81 518.7748,656.6444 519.1717,664.9915 520.4284,681.7023 521.8433,695.0516 526.1852,723.6104 531.354,747.9569 535.3112,763.4114 537.9151,772.0193 542.1482,784.2689 545.3573,791.8678 549.1631,798.9971 550.5809,800.5667 551.4541,800.8368 552.0862,799.7452 552.1858,797.0232 550.8831,788.0447 547.6555,775.2369 542.9152,759.5434 537.5653,743.8588 530.865,725.944 522.5181,704.9042 513.7524,683.9408 494.914,642.0066 472.4056,595.2169 457.683,566.1966 416.3252,487.5001 406.3611,467.692 401.3481,456.7481 398.0003,448.3343 396.232,442.329 395.7641,437.8456 396.4355,435.2506 397.213,434.346 398.2554,433.7953 401.2854,433.6728 405.4352,434.8488 409.9597,436.9728 414.945,439.9653 423.2442,445.7372 430.9248,451.6337 444.6806,463.875 456.6381,476.1485 468.9387,491.0785 473.7411,497.7045 478.4206,504.8568 485.8041,517.7345 492.8434,532.6828 496.7652,543.2046 501.1816,558.3391 504.1863,574.1 505.0754,581.9387 505.5,588.875 505.5346,596.4781 505.0087,602.7754 504.0456,606.6763 502.7833,608.738 501.9836,609.0415 501.132,608.776 499.125,606.625 497.1406,603.0469 494.875,597.5 492.6468,590.7706 490.0926,581.6476 485.9453,563.5872 481.5808,540.6114 477.8546,515.1114 474.6125,487.7694 472.268,459.4977 470.9354,434.5571 470.343,411.3325 470.4221,387.7557 471.1918,364.2023 472.5863,341.9598 474.6725,320.1463 477.4448,298.9026 480.8729,278.5127 484.723,260.0584 489.0264,243.1577 494.0084,226.8575 499.4957,211.7427 505.413,197.9689 511.8533,185.371 518.3691,174.7781 525.5915,165.1649 533.1997,157.0469 541.0974,150.5328 545.1246,147.9111 549.188,145.731 553.2754,144.0061 557.082,142.8239 561.37,141.9757 565.3524,141.6307 569.3098,141.708 573.5835,142.2658 577.4477,143.2036 581.59,144.6835 585.3062,146.4513 589.2571,148.82 594.3298,152.6775 599.1441,157.3145 603.7382,162.7905 607.987,168.895 611.914,175.6116 615.6564,183.2274 619.0079,191.3877 621.9484,200.0289 624.4577,209.0874 626.436,218.0839 628.0688,227.7864 629.3375,238.1935 630.1598,248.7553 630.5497,259.4226 630.5208,270.1462 630.0643,281.2596 629.1131,293.0861 627.6709,305.2034 625.7062,318.0246 623.3529,330.5452 620.6411,342.7427 617.5038,354.9481 614.1563,366.4204 609.9339,379.4199 601.1234,403.4417 591.0308,427.3957 578.5031,454.322 552.1238,508.0102 545.4289,522.7601 539.5633,536.7894 533.5156,553.0 528.3236,569.5484 525.4371,581.5151 522.2557,598.5048 520.8334,609.3366 519.7741,620.7273 519.0771,638.2999 519.0122,648.624 519.4253,662.2985 520.3339,675.832 523.5661,703.9924 528.5408,732.3909 532.0875,748.4183 535.5119,761.2633 539.1027,772.8101 544.0683,786.116 547.7782,793.602 549.1262,795.4475 549.9939,795.7781 550.6596,794.5584 550.7,792.1765 549.3258,783.659 546.4877,772.2728 542.1032,758.0538 536.2067,740.6469 529.7566,723.1358 523.5,707.375 513.7284,684.0623 495.5382,643.1177 476.1694,602.6989 457.1919,564.985 420.6841,494.937 408.4032,470.5227 404.0074,460.7658 400.8382,452.5715 398.9957,446.1299 398.57,441.8545 399.3452,439.372 400.2344,438.5156 401.4102,438.0393 404.5009,438.1341 409.1389,439.755 414.8493,442.7145 420.8381,446.5643 427.6087,451.678 435.09,457.8751 441.967,464.0805 448.3107,470.3376 455.2084,477.6426 461.4936,484.8468 472.9392,499.8732 477.5248,506.7737 481.5754,513.5973 489.0527,527.8699 495.25,543.0469 499.7061,556.9881 503.2318,572.073 504.7925,581.2628 505.7008,589.0551 506.3996,598.2406 506.6431,607.9464 506.2217,615.7118 505.6909,619.9401 504.5036,623.9276 503.0115,625.802 502.0293,625.9316 501.25,625.625 499.5781,623.9219 497.1102,619.6283 494.844,614.19 490.3137,600.1369 484.1264,574.9622 478.8241,546.8636 475.4394,524.5542 471.4685,491.6074 469.0806,464.0569 467.5658,437.2829 466.7314,410.6073 466.7246,386.1352 467.4781,361.2356 469.0011,336.2747 471.1626,313.2037 474.1309,290.818 477.9324,268.8982 482.2725,248.8661 487.1936,230.1798 492.5152,213.4364 498.4717,197.8229 505.2467,182.9743 512.4642,169.8069 520.0301,158.4221 528.0472,148.6934 532.0982,144.6018 536.5584,140.6705 540.7749,137.4689 545.3793,134.5131 550.0314,132.0766 554.378,130.2871 559.0705,128.878 563.4227,128.0584 568.087,127.7109 572.3815,127.8931 576.6052,128.562 581.0563,129.7903 585.4306,131.5277 589.712,133.757 593.8846,136.4611 597.9322,139.6229 602.927,144.333 607.9089,150.0546 612.5533,156.5042 616.6055,163.247 620.5853,171.1735 624.1637,179.6367 627.3367,188.574 630.1928,198.29 632.5114,208.0005 634.3973,217.9955 635.8883,228.6091 636.8647,238.9907 637.4214,250.184 637.5236,261.6929 637.1815,273.1919 636.3923,285.016 635.1471,297.1075 633.4422,309.3984 631.2796,321.8097 628.6576,334.3492 625.5758,347.0334 622.081,359.6526 618.1944,372.1667 613.8242,384.8704 604.2805,409.3533 593.3772,434.0463 581.9963,457.3898 556.1489,508.1055 548.669,523.7859 542.5282,537.5723 536.6781,552.2701 531.9922,566.0272 528.0336,580.2367 524.884,594.448 523.272,604.084 522.0197,614.2427 521.1408,625.1458 520.5709,637.3236 520.9076,658.679 522.7932,682.9301 526.2182,708.2767 529.2289,724.4665 531.949,736.848 535.1177,749.4263 538.7097,761.4112 542.0562,769.9289 543.2778,772.3183 544.0625,773.0312 544.3472,771.9942 544.1193,769.8293 542.2139,761.2976 539.4918,752.0247 534.6146,737.37 524.5471,710.207 510.4321,675.9771 496.3887,644.3191 478.4943,606.5173 464.3626,577.7979 429.8357,509.5378 421.3491,492.1317 416.3729,480.9191 412.9271,472.045 411.1587,466.1428 410.6363,461.4186 410.9027,459.7683 411.6382,458.3834 412.5668,457.7059 413.9425,457.4303 415.8566,457.637 418.135,458.3379 423.5224,461.11 430.8615,466.4104 438.7223,472.983 444.3331,478.3281 453.4142,487.8893 459.1657,494.5323 464.1384,500.9288 470.2059,509.4028 475.5802,517.6684 480.5919,526.3111 485.0446,534.7675 488.553,542.228 492.5911,551.8201 496.5894,562.6734 501.2018,577.9502 503.1719,585.888 506.7106,603.1858 509.2797,620.1447 511.0874,634.9062 516.1228,683.7426 518.6904,705.0181 520.8635,719.7829 523.8927,736.9546 528.654,758.8595 536.0409,785.55 540.6584,799.3956 544.527,809.2908 549.3958,820.1429 553.1585,826.8369 557.2955,832.1767 558.8611,833.1713 559.9358,833.1589 560.9548,831.9887 561.5247,829.0229 561.4688,824.5114 560.793,818.4647 557.9847,804.5836 552.8796,786.2135 545.971,764.7227 537.8302,742.0129 528.4404,718.0601 517.1939,691.1747 506.062,665.9496 494.4217,640.8175 482.23,615.7057 467.4354,586.2716 443.4351,540.3571 402.4151,465.3236 387.3349,436.7389 383.2321,427.9936 380.3748,420.8783 378.6328,415.04 378.1188,410.8185 378.6448,408.2976 379.9356,406.8725 381.9144,406.2461 384.9048,406.4103 388.5462,407.404 392.7513,409.13 404.7244,415.5238 418.4277,424.4599 433.8096,435.9698 447.933,448.024 460.4509,459.993 469.132,469.5959 477.2262,479.7429 484.9632,491.0808 490.6198,500.6606 496.2636,512.7137 499.9684,523.3876 501.1423,527.9724 502.0283,533.7425 502.125,536.25 501.6343,537.9537 500.6708,537.4341 499.4039,534.9557 497.9296,530.7532 496.3414,524.8006 493.6469,511.7911 490.7342,492.9067 488.7563,475.4629 487.1705,456.6384 486.2633,438.6495 485.7452,417.5316 485.7889,401.8588 486.3111,385.6311 487.3359,368.3211 488.7849,351.3844 490.5953,335.6161 492.7993,320.4692 495.3544,306.1561 498.2829,292.5479 501.6098,279.7347 505.4125,267.3954 509.649,255.69 514.2777,244.7788 518.9767,235.3612 523.7719,227.2905 529.0822,219.8534 534.6289,213.5399 540.3434,208.4526 546.1024,204.7209 551.6952,202.3865 557.6317,201.2469 563.4501,201.4896 569.0604,203.1025 574.3268,206.036 579.3604,210.3085 583.1064,214.5809 586.5652,219.5543 589.7018,225.1749 592.4814,231.389 594.952,238.3826 597.0429,245.8888 598.7479,253.8097 600.1139,262.4645 601.0185,271.0344 601.5399,280.228 601.6339,289.8967 601.3316,299.7502 600.6494,309.6403 599.5536,319.8901 596.2934,339.8274 592.385,357.27 587.6522,374.692 581.9511,392.6664 575.3545,410.9801 562.8114,441.9042 541.9986,489.2207 530.2321,517.4431 511.9967,566.8474 509.0016,573.065 507.5563,575.2723 506.362,576.521 504.5769,577.2882 502.7475,576.7769 500.9063,575.0542 499.0577,572.0573 497.0333,567.5987 495.284,562.695 490.9225,546.7054 486.6616,524.7926 484.1711,508.4362 480.7898,478.853 479.0334,456.5846 477.896,432.8244 477.3865,410.7027 477.5875,389.2288 478.4638,367.4254 479.9875,345.8129 482.0767,325.9067 484.9222,305.8513 488.4075,286.6779 492.0788,270.2283 496.2045,254.9322 500.9376,240.2771 506.1041,226.8148 511.6333,214.6688 517.6006,203.6987 523.7622,194.3438 530.5354,185.9809 537.593,179.1093 544.8459,173.8286 551.9211,170.3439 555.4483,169.2204 559.0973,168.4834 562.737,168.1708 566.3523,168.2764 569.928,168.7938 573.7976,169.8311 577.581,171.3507 580.9286,173.1436 587.2997,177.8794 591.7307,182.3981 596.0487,187.9307 599.8406,193.8914 603.4621,200.811 606.5467,207.9693 609.3794,216.017 611.7722,224.5422 613.6886,233.3528 615.2984,243.143 616.4549,253.1941 617.1637,263.4452 617.4307,273.8353 617.2616,284.3036 616.6622,294.7955 615.5833,306.044 614.0561,317.5326 610.6141,336.6273 606.0933,355.7415 600.2573,375.8943 593.3017,396.3456 586.3119,414.4503 577.6657,434.9476 549.7084,495.753 540.7835,516.3704 531.5593,540.2191 527.8777,551.2514 524.8295,561.7012 521.6906,574.1585 519.1634,586.0852 517.4187,596.2493 515.5966,609.8458 513.8936,626.3261 512.8068,643.0531 510.9665,686.0479 509.9795,701.5896 508.129,711.833 507.1157,714.0 505.875,715.0 504.9402,714.9377 503.5,713.875 501.2552,710.74 498.8414,706.1813 494.5213,695.5777 486.74,671.4883 478.3191,639.2856 470.1768,601.9938 464.2673,570.0969 458.263,531.1571 454.066,496.3474 451.1039,463.1138 449.0279,429.2805 448.0218,397.8495 447.963,366.5162 448.8906,335.0558 450.8078,304.3633 453.6107,276.3146 457.4502,248.9361 462.1389,223.3562 467.7262,199.1055 474.1642,176.4211 481.3208,155.758 489.4659,136.4007 498.3336,118.9728 503.1727,110.7534 508.0068,103.3326 513.0174,96.403 518.1959,89.9951 523.5343,84.1392 528.7925,79.0737 534.3544,74.4376 539.8416,70.5518 545.4254,67.2473 551.4425,64.3726 557.1647,62.2652 563.2852,60.6609 569.0637,59.7477 575.2004,59.4108 581.3115,59.7256 587.3737,60.6914 593.364,62.3074 598.9154,64.4215 604.6999,67.2974 610.0536,70.6163 618.3626,77.0748 626.4746,85.0613 634.073,94.2777 641.3108,104.9349 647.8942,116.6431 653.7679,129.2731 658.8765,142.6959 663.1624,156.7253 666.8387,172.0215 669.6714,187.679 671.762,204.3393 672.984,221.1276 673.3666,237.9066 672.9202,254.9141 671.632,272.0332 669.5242,289.5551 667.0819,304.6519 663.9926,320.0474 660.3358,335.2754 656.1437,350.256 651.4573,364.9026 645.849,380.4854 639.8987,395.4142 633.291,410.4989 627.1766,423.3527 620.6941,436.0542 604.9486,464.2072 590.2336,488.2889 559.8517,535.5617 549.5483,552.86 538.7731,573.1984 534.7857,582.0394 531.3333,590.8119 527.6828,601.83 524.7996,612.9945 522.6593,624.2317 521.1942,636.0268 520.5516,645.3937 520.3787,656.6245 520.875,671.375 522.0774,689.5193 522.0,691.125 521.5312,692.2344 520.5,691.375 519.6034,689.9897 515.5194,681.5924 496.8398,639.0537 462.4336,563.6165 456.8193,550.1193 453.8067,542.0267 451.5994,534.1078 451.336,530.3943 451.8462,529.1698 452.75,528.75 454.3009,529.1991 456.3241,530.5093 462.0797,536.3932 467.2049,542.9154 473.5383,552.2975 478.7645,561.4515 483.9996,571.731 490.0463,585.2581 498.2273,606.9505 504.5881,627.6983 509.6071,645.783 513.7335,662.0283 521.363,693.2876 522.7676,699.7383 522.8008,700.998 521.2289,698.0052 508.4064,667.1514 498.7299,645.0038 468.5502,578.9437 455.6312,549.8682 451.5449,539.8474 449.0432,532.8273 447.6688,527.3364 447.4236,523.3579 447.99,521.9041 449.0863,521.4171 450.625,521.875 453.4755,523.7578 458.375,528.375 466.1996,537.9346 473.1094,548.5469 478.0,557.0 484.731,570.1675 490.6804,583.8768 494.3452,593.0887 499.2469,607.1296 506.2442,630.6136 511.661,651.4506 523.8887,701.7822 525.7871,710.5879 511.12,674.7133 497.3431,642.8156 450.4544,540.5319 446.7451,531.3598 444.2943,524.3774 442.8785,518.6003 442.625,514.625 443.1284,513.2226 444.506,512.573 446.5336,513.1234 449.2714,514.8856 455.3485,520.4133 463.5169,530.1793 470.9676,541.0142 476.6075,550.2728 484.0188,564.5799 489.1261,576.1836 494.0562,588.4449 498.4769,601.0404 501.5595,610.7472 506.4514,627.9136 512.489,651.7029 523.3234,698.7208 529.4829,722.4944 518.2855,692.8971 501.9811,654.2373 482.8607,612.1473 453.7014,550.5142 444.7757,530.4176 440.9223,521.0674 438.2872,513.5835 436.82,507.7632 436.6404,504.2889 437.3281,502.5938 438.0417,502.0509 438.9427,501.8553 441.2153,502.4468 444.125,504.125 447.5347,506.8032 451.5215,510.6322 459.8289,520.1091 468.9993,532.8221 476.502,545.0273 483.1742,557.4694 489.753,572.0931 492.9773,580.3024 498.9749,597.2475 505.1389,618.4074 511.5761,644.7563 521.8482,691.8257 526.8562,713.1644 530.9224,728.4703 534.0618,738.0525 531.1624,728.2032 523.108,705.9948 508.7501,670.9465 499.1329,648.9537 483.5464,614.9967 447.809,540.6666 438.6271,520.7846 433.8148,509.4864 430.9672,501.8352 429.299,495.6007 428.9203,490.9384 429.2088,489.6584 429.7305,488.8457 430.48,488.341 431.79,488.134 434.2988,488.7854 438.1116,491.0022 442.306,494.1787 446.5127,498.005 452.6335,504.4235 457.9117,510.4953 467.0563,522.8676 475.261,535.7816 483.4594,550.7986 489.9439,565.1011 494.102,575.7861 498.813,589.4805 501.5766,598.5601 504.9033,611.1428 511.3468,639.2797 522.5341,695.9236 527.3894,718.2517 531.5164,734.581 534.6362,745.319 538.26,756.1148 539.7259,759.4241 540.3363,760.0105 540.0091,756.6892 537.8519,748.4341 530.3261,725.7698 522.1149,703.8796 510.9519,677.0159 497.0605,645.5393 477.7409,604.4196 465.6206,579.4012 436.9001,521.7043 427.434,501.9465 422.7204,491.1191 419.4852,482.5312 417.8193,476.4297 417.5157,472.0932 417.838,470.6157 418.4414,469.5745 419.3,468.9511 420.6557,468.7114 424.0265,469.5214 428.7069,472.0245 434.8872,476.542 441.4954,482.2222 447.125,487.75 454.188,495.4813 459.6154,502.0002 464.5267,508.4866 470.6551,517.2415 475.5687,524.9381 484.3833,541.097 491.5266,557.1222 496.092,569.1336 499.8796,581.1481 503.2174,593.5444 506.9584,609.9034 511.4313,634.6243 518.5678,683.1254 522.1771,705.3056 526.3958,727.3482 530.958,746.6491 536.9563,768.3639 542.2555,783.5883 544.8889,789.9676 547.4258,794.9824 549.3452,797.8962 550.162,798.5848 550.8438,798.6719 551.457,797.7754 551.6102,795.2727 550.1851,786.0298 547.0882,773.8667 541.8655,756.8808 536.3593,740.6413 530.3182,724.3135 513.5958,683.5587 495.9888,644.1612 473.8644,598.3625 456.2129,563.3889 419.9521,493.9442 407.0386,468.4804 402.6194,458.756 399.3946,450.5544 397.533,444.2875 396.9896,439.7074 397.5731,437.1792 398.3013,436.2562 399.2947,435.6852 402.0065,435.5109 406.278,436.73 411.4367,439.1567 417.582,442.85 424.01,447.4278 431.2572,453.1258 444.0547,464.5365 457.6128,478.6479 462.9152,484.9256 469.8735,493.8733 474.7564,500.6729 478.7526,506.8771 487.0972,521.8241 493.1868,535.3883 497.4542,547.107 501.9767,563.8973 504.6281,578.9394 505.9949,594.5414 505.8824,603.5667 505.3006,609.7932 504.248,613.759 503.6562,614.875 502.7552,615.747 501.9126,615.9624 501.3004,615.7413 498.8733,613.1458 496.8889,609.3333 494.4389,603.2725 489.1804,585.1466 484.2666,563.2739 480.0929,540.5776 476.0325,512.7233 473.0531,486.731 470.8262,460.2555 469.5239,436.5338 468.9116,412.2027 468.9741,387.0338 469.7176,361.9131 471.0718,340.0151 473.1142,318.4241 475.8178,297.4291 479.2176,276.8877 483.0935,258.1107 487.5299,240.4772 492.6506,223.5071 498.1797,208.1188 504.1703,194.0838 510.6205,181.4465 517.6534,170.0425 524.9151,160.3519 532.7997,151.8659 540.712,145.2634 544.7456,142.5964 548.8169,140.3734 552.8211,138.6441 556.8402,137.3471 560.8664,136.4736 565.2518,135.9978 569.6141,136.0134 573.9366,136.5137 578.2029,137.4922 582.3965,138.9422 586.5007,140.8572 590.1704,143.0154 595.3233,146.8316 600.484,151.7022 605.287,157.305 609.7628,163.6189 613.8921,170.5845 617.8176,178.4986 621.3211,186.9916 624.3803,195.9954 626.9733,205.442 629.1274,215.3898 630.8473,225.6811 632.1591,236.5526 633.0032,247.5823 633.3952,259.0959 633.3193,270.2652 632.7813,281.7972 631.734,293.852 630.19,306.229 628.2308,318.3872 625.744,331.0323 622.8038,343.7184 619.438,356.3761 615.5005,369.5291 611.2474,382.3609 602.506,405.6121 591.8735,430.2471 580.123,455.1079 552.2921,511.2847 546.155,524.6081 540.4229,538.0415 534.7316,552.9823 529.5391,569.1856 526.264,582.0239 523.4372,596.5195 521.8257,607.4886 520.6285,618.7038 520.0202,628.6036 519.7228,640.6601 520.3435,664.99 522.7384,691.2337 524.9328,707.1187 526.8875,718.2862 529.9158,733.6703 533.8534,749.9831 538.1264,764.7215 541.6501,775.1336 545.016,782.9166 546.4667,785.1421 547.523,785.801 547.9654,784.8866 547.9037,782.4264 546.4587,774.5396 543.063,762.0702 538.6577,748.0325 533.8386,734.2725 527.5208,717.6489 512.9363,681.9348 495.2036,642.3973 475.1892,600.2541 454.8069,559.7076 423.8442,499.738 414.8047,481.3213 409.6168,469.8462 406.0992,461.0537 404.3222,454.9553 403.8489,450.2824 404.0971,448.77 404.7306,447.497 405.649,446.759 407.1197,446.3831 408.963,446.4978 411.1305,447.0652 416.2431,449.4047 423.5374,454.057 431.2694,459.9159 438.7195,466.3737 447.1366,474.4721 453.7108,481.4397 459.9839,488.7783 466.3734,496.8572 472.0382,504.737 477.4631,513.1668 482.2753,521.4021 485.8651,528.3054 490.279,537.8274 495.264,550.3115 498.661,560.7023 500.8977,568.6366 504.8454,586.6107 507.483,605.5302 508.6769,619.202 509.289,631.481 509.4277,645.4609 509.1661,655.8449 508.4905,664.3241 507.4463,671.2021 506.0469,675.375 505.3394,676.517 504.4515,677.1873 503.3265,677.1545 502.2856,676.6027 499.961,673.6562 497.0929,668.2336 493.6306,659.7826 486.4626,636.7657 479.8495,609.6757 473.8537,580.785 468.2789,548.5093 463.8651,516.8408 460.2278,483.6416 457.8908,454.4404 456.3659,424.9151 455.6491,394.4787 455.8198,367.129 456.8759,339.9395 458.8287,312.787 461.6326,286.4156 465.1999,261.4502 469.4707,238.5279 474.5154,216.8515 480.3509,196.2929 486.8033,177.4242 493.9242,160.0626 501.3984,144.9105 509.7659,130.9026 518.7632,118.5681 523.4658,113.0795 528.2873,108.0707 533.2149,103.5621 537.9693,99.7708 543.0665,96.2951 547.9584,93.5191 552.9834,91.2306 558.0226,89.4983 563.0889,88.3019 568.5281,87.6052 573.9583,87.5043 579.3586,87.9891 584.3535,88.9613 589.637,90.5502 594.8295,92.6956 599.9103,95.3874 607.4359,100.5535 614.2732,106.642 621.012,114.1633 627.5411,123.1091 633.5186,133.0556 638.9086,143.8841 643.6751,155.4757 647.8993,168.103 651.2883,180.8789 653.9727,194.1637 656.0582,208.3848 657.4623,223.1633 658.1549,238.0336 658.1625,253.2811 657.4707,268.7994 656.1104,284.0968 654.2152,298.544 651.8086,312.7543 648.8761,326.9194 645.3376,341.3524 641.2937,355.6085 636.7804,369.6285 631.6677,383.8334 625.8053,398.6825 614.8235,423.4808 602.0739,448.7841 586.8582,476.4634 558.9316,524.7637 548.457,544.4011 542.4294,556.995 537.2781,568.8837 533.4708,579.0425 530.1725,589.485 526.745,603.3077 524.0273,618.85 522.6557,632.5729 522.0588,647.7805 522.5758,665.7501 524.0864,683.6785 526.6983,702.5402 530.1206,722.0298 514.6438,683.4852 496.7507,642.0408 446.4994,534.5493 442.1806,523.9991 438.5652,514.1482 437.0781,508.3594 436.8136,504.4777 437.4772,502.6273 438.8577,501.9922 441.2918,502.5582 443.9741,504.2036 447.8998,507.2524 451.6103,510.7202 460.538,521.071 468.2143,531.7573 475.7322,543.6103 483.5783,558.425 488.9025,570.2032 493.9454,582.9052 498.0868,594.8156 501.908,606.7848 505.4377,619.5744 512.2307,647.2583 524.9913,705.4923 529.8814,724.7431 533.9579,737.8389 533.5066,735.5501 531.5265,729.3476 526.066,714.0588 517.1174,691.1094 507.5879,668.2369 498.4746,647.2711 489.9738,628.6195 472.5108,591.6697 450.1137,545.4881 438.6276,520.8716 434.0714,510.1217 430.9491,501.62 429.3525,495.7851 428.9611,491.4067 429.658,489.1375 431.1197,488.3627 433.8438,488.7969 436.9538,490.3531 441.6658,493.9105 446.9678,498.6262 451.3393,503.0835 456.5452,509.0718 465.1161,520.127 474.8959,535.1099 482.7981,549.5255 489.0356,562.8738 496.8328,583.5114 503.9361,607.4152 509.1309,629.0061 513.5848,650.2611 522.695,697.0254 528.7319,723.7959 534.7166,745.6223 538.0737,755.7135 539.342,758.573 540.1774,759.7677 540.071,757.257 538.692,751.4567 535.7689,741.5146 532.256,730.9746 522.3137,704.7165 511.2715,677.8436 497.8024,647.1543 484.5199,618.4443 464.7861,577.8582 438.4757,524.9141 426.1357,498.9774 422.246,489.9461 419.564,482.6119 417.9797,476.7086 417.5994,472.6665 418.377,470.1072 419.2975,469.3251 420.5254,469.0117 423.6308,469.6395 428.3369,471.9946 433.4837,475.5476 438.817,480.0897 446.1333,486.9937 452.4296,493.6506 459.0519,501.4773 464.6568,508.6725 474.6088,523.621 483.0333,538.4135 487.2293,547.0673 490.9816,555.7212 495.2902,567.1289 499.0675,578.6722 502.778,591.9379 505.5484,603.7564 509.5077,624.0017 521.1203,698.3981 524.6065,717.4686 530.1206,742.9146 535.1695,761.9933 540.824,779.444 546.616,793.0907 548.8809,796.7585 549.7963,797.7135 550.5829,797.9785 551.1649,797.1146 551.3954,794.9431 550.6527,788.6356 547.6041,775.8866 543.2559,761.1743 537.6966,744.7705 530.6661,725.6104 523.3959,707.0568 515.6037,688.3353 496.3992,645.3287 476.0893,602.7339 452.6622,556.4289 419.4398,493.0139 407.5397,469.0869 402.5882,458.349 399.6808,451.0549 397.8899,444.9765 397.3725,440.3444 398.0,437.75 398.6768,436.9135 399.8416,436.2711 402.7317,436.1509 406.479,437.2111 411.7617,439.7422 418.0144,443.5203 424.4164,448.0126 431.0,453.25 439.5213,460.6863 446.5084,467.2861 459.8973,481.7922 469.9897,494.3656 475.975,503.0176 480.8194,510.7248 488.3241,524.923 493.6185,536.8624 499.1216,552.816 502.7575,567.9643 505.3881,584.5275 506.1582,598.9983 505.8935,607.7361 505.262,612.7778 504.2613,616.2349 502.7432,618.1138 501.75,618.25 501.0137,617.9492 499.1487,615.7384 497.1111,612.1667 494.6809,606.1267 492.4379,599.5481 489.9354,590.7887 484.9531,569.7656 480.3577,545.9543 476.8288,522.7315 473.2396,493.7583 470.8337,466.3205 469.2492,439.1966 468.4352,415.086 468.35,391.0074 468.9765,366.8726 470.3035,342.9116 472.2571,320.8368 474.9908,298.8934 478.5045,277.3763 482.3765,258.3907 486.8277,240.4156 491.752,223.956 497.3344,208.2852 503.5345,193.6152 510.1438,180.4626 517.0857,168.9327 524.4143,158.9825 532.1427,150.6078 536.2808,146.9011 540.4903,143.6416 544.7577,140.8391 548.7603,138.6548 553.1011,136.7618 557.1484,135.4391 561.5121,134.4924 565.6695,134.0596 569.8299,134.0835 573.9523,134.5564 578.0239,135.4682 582.3624,136.9394 586.2865,138.7328 590.4348,141.1352 595.972,145.227 600.9457,149.8797 605.8994,155.6079 610.4044,161.9854 614.74,169.3598 618.68,177.3705 622.2078,185.9468 625.4212,195.3905 628.0557,204.9019 630.2268,214.7642 631.9175,224.9069 633.1611,235.5571 633.9801,246.8418 634.3296,258.2218 634.2197,270.0213 633.6283,282.1786 632.5767,294.2448 631.0901,306.1513 629.0583,318.6979 626.5432,331.4248 623.5754,344.1606 620.1743,356.8595 616.3678,369.4722 612.0421,382.3784 602.8871,406.5891 592.4341,430.7854 579.255,458.4045 554.9915,506.8847 546.9683,523.9761 540.9545,537.7705 535.2558,552.5588 530.3555,567.5088 526.7539,580.856 523.9603,594.6562 522.331,605.168 521.2382,615.3945 520.3828,627.8548 520.0283,640.3179 520.1131,652.5398 520.9579,669.6492 522.9664,690.8875 526.8933,717.4454 530.4953,735.162 532.4911,743.4967 536.967,759.9628 541.0,772.125 544.1939,779.464 545.75,782.0 546.6759,782.6296 547.046,781.784 546.9787,779.6157 545.2971,771.0628 542.2919,760.0001 538.0139,746.6547 532.6292,731.3543 526.4022,714.857 511.6866,679.0764 495.4957,642.6127 477.9081,605.7128 460.7813,571.2397 428.2624,507.9651 415.825,482.8395 411.2371,472.5981 407.9014,464.0186 405.9881,457.5309 405.4644,453.0117 405.7332,451.4223 406.5206,450.0268 407.7592,449.2486 409.3953,449.0454 411.375,449.375 413.776,450.2075 419.8056,453.3238 427.1119,458.2967 435.745,465.285 443.735,472.655 451.5335,480.8187 458.3853,488.5478 464.379,495.939 470.9962,505.0241 476.4364,513.2804 481.1322,521.3832 486.82,532.3465 490.5445,540.4497 494.2634,549.7409 497.5792,559.2772 500.5568,569.5183 502.8453,578.6626 504.8836,588.8432 506.5948,598.559 507.9671,609.2997 509.7256,629.8656 510.9902,660.2542 511.0328,682.9202 510.5882,698.7205 509.0767,714.3998 508.0179,718.3174 507.1094,719.8438 506.25,720.5 505.2188,720.4375 504.0,719.625 501.7556,716.5287 499.5857,712.4386 495.3483,702.2388 488.7109,682.7011 480.1421,651.6461 472.2241,617.6883 467.2559,592.9249 460.6016,553.6823 456.1052,521.879 452.5493,490.4888 449.6698,457.8327 447.9049,429.3199 446.9058,400.3783 446.7142,370.2897 447.3899,340.5675 448.8569,312.8593 451.2027,285.6953 454.2377,260.6325 458.0557,236.4357 462.6353,213.3224 467.9244,191.5527 473.7899,171.6457 480.4979,152.6234 487.8422,135.0609 495.9086,118.7693 504.4657,104.2492 513.4329,91.6001 518.1244,85.9129 522.8028,80.8316 527.5583,76.2404 532.4236,72.0932 537.3848,68.394 542.7667,64.9464 547.882,62.1854 553.3968,59.7476 558.9553,57.838 564.5408,56.4613 570.1364,55.6224 575.3765,55.3286 580.9438,55.5451 586.1276,56.2492 591.263,57.4421 596.296,59.1124 601.5772,61.4086 606.7612,64.2077 611.8357,67.4895 616.7885,71.2336 621.6072,75.42 626.5346,80.2964 631.0391,85.3283 635.6074,91.0519 643.9001,103.3246 651.3059,116.9387 657.6724,131.5966 663.1353,147.4995 667.7439,164.8468 671.2597,182.7635 673.7448,201.4307 675.1558,220.6497 675.4603,239.4327 674.6767,259.2983 673.1057,277.0349 670.7386,294.6868 667.5324,312.5282 663.5756,330.0658 658.9238,347.186 653.2276,365.0901 646.7754,382.8767 639.6898,400.2213 633.1114,414.7872 625.9595,429.3271 617.3025,445.6095 608.2887,461.4935 592.0994,487.8814 558.8133,538.8878 546.4377,559.4585 537.3484,576.9692 533.3392,585.9953 530.0101,594.4524 526.8297,604.3347 524.0784,615.1052 522.2912,624.5773 520.8611,635.6699 520.1487,644.6206 519.8487,653.2936 520.1663,668.6974 520.979,684.9796 520.7657,687.566 520.3065,688.3236 519.375,687.625 518.4238,686.2321 514.1256,677.5036 498.6188,642.5047 463.8648,565.8591 458.1849,552.2769 455.4131,544.649 453.368,537.2434 453.1713,535.0926 453.419,533.564 454.1803,532.5716 455.2812,532.5469 456.8041,533.2646 458.6748,534.7148 464.6055,541.0884 470.1019,548.7639 474.9636,556.3259 480.7024,566.7633 484.17,573.7826 490.369,587.6645 497.5601,606.6388 504.6674,629.0153 513.1001,660.7402 520.1694,689.8335 521.2925,694.9884 521.3154,696.2893 519.1352,692.294 507.4653,664.3988 495.9347,638.2208 458.4059,555.266 451.2036,536.5494 449.8102,530.6852 449.7784,526.9468 450.5781,525.875 451.9196,525.8032 453.6627,526.6405 456.1506,528.4864 460.8429,533.3725 468.0681,542.6289 474.0469,551.875 478.562,559.7663 485.0638,572.724 490.7904,585.8429 494.5839,595.422 498.8842,607.6619 505.7083,630.213 515.6618,668.8722 522.9935,699.4133 524.0841,705.0619 521.4064,699.182 507.8473,666.2368 495.112,637.0778 464.5145,570.6648 453.862,546.876 449.8786,536.8575 446.5368,527.2584 445.4512,522.3135 445.5619,519.0438 446.4493,517.9595 447.781,517.7963 449.5149,518.4027 451.9109,520.0443 457.7381,525.6328 464.8515,534.4281 469.4044,541.0253 477.9995,555.1515 483.7989,566.4065 488.5548,576.9184 493.4913,589.3166 497.2481,599.6974 501.5221,612.7669 505.2648,625.685 512.3663,652.9643 527.2881,715.6403 513.5248,680.729 498.2457,645.3291 448.5651,537.4797 444.4567,527.1929 441.5566,518.8143 440.2831,513.2358 440.375,509.625 441.3409,508.3837 442.9751,508.1907 445.1403,509.0688 448.3653,511.3915 454.8788,517.5539 463.7143,528.3375 471.6951,540.1752 477.8731,550.555 484.7904,564.1204 490.7811,577.7797 495.0206,588.6722 499.9531,603.4375 506.268,625.2452 512.2842,649.5421 523.657,699.938 528.3419,718.4672 531.4245,728.8478 520.9274,700.0061 511.4286,676.6823 503.7319,658.6842 485.9539,619.1157 451.2348,546.1797 440.6606,522.8751 437.5294,515.0805 435.2156,508.3158 433.7511,502.6715 433.4219,499.2559 434.0361,497.122 435.4334,496.2335 437.868,496.682 440.9089,498.2864 444.4721,500.9242 448.9484,505.039 453.6481,509.9695 458.2137,515.3303 467.555,527.811 475.4792,540.5837 482.6135,553.5933 489.816,569.2769 497.9639,591.4018 505.1257,615.4862 510.6023,638.4051 526.018,710.2598 532.2518,734.3756 534.7404,742.5237 536.571,746.6631 535.3756,741.2877 528.3979,720.445 520.1317,698.8208 511.7928,678.5405 497.6707,646.3264 485.4856,619.7032 467.4496,581.9479 443.3039,532.725 434.0593,513.024 429.8853,503.2411 426.6928,494.61 424.7967,487.9648 424.3469,483.8838 425.0072,481.4478 425.5788,480.8324 426.582,480.4048 429.316,480.7805 433.1832,482.6024 437.2994,485.4504 442.7267,490.1664 448.4855,495.7349 453.4769,501.1804 464.7203,515.3018 474.4712,530.0603 481.5479,542.5904 486.052,551.8008 489.703,560.078 495.6696,575.6979 498.9528,585.3162 503.2224,600.4409 507.091,616.406 509.5693,627.5893 512.9464,645.2848 523.2189,701.7398 527.5687,722.5347 530.0716,732.9475 534.0519,747.9162 538.2705,761.4217 542.25,771.375 543.3843,773.3009 544.1574,773.6991 544.375,772.375 544.07,769.7201 542.2802,761.4755 534.7322,737.6758 525.625,713.125 510.8157,677.2104 495.5152,642.7952 475.7213,600.7623 463.4635,575.9123 428.4241,506.8787 420.7478,491.0487 415.8564,480.0663 412.4546,471.353 410.7098,465.3322 410.2369,461.1389 410.4676,459.338 411.0474,458.04 411.9463,457.2177 413.2762,456.816 414.9845,456.8852 417.0063,457.4059 422.2467,459.9391 429.5135,464.9368 437.0185,471.0032 442.5,476.125 452.1379,486.1081 458.2064,493.0192 463.6748,499.9381 469.4928,507.9468 474.4508,515.4697 480.1093,525.0231 484.617,533.3519 488.0,540.375 492.1248,550.0518 496.3936,561.6734 500.614,575.5611 503.8385,588.8754 506.624,603.0139 509.75,622.875 515.8467,682.5607 519.6158,713.4621 523.2687,735.8955 527.9548,758.2573 532.3706,775.2579 537.5,792.0 540.8776,801.5422 546.1668,814.7302 550.3411,823.6057 554.7844,831.2584 556.724,833.748 558.2392,835.1403 559.5984,835.8353 560.7416,835.7612 561.8395,834.3236 562.3648,831.3509 562.2969,827.0616 561.581,821.1184 558.2003,805.0156 552.9035,785.7165 546.385,765.5922 537.8388,742.0207 527.9008,716.603 517.0462,690.6443 506.7425,667.4298 493.8259,639.7429 480.3291,611.925 466.1908,583.8205 443.6409,540.9999 397.9483,457.6489 387.1986,437.1472 382.3174,426.9311 379.0013,419.0242 377.1548,413.3705 376.5194,408.7807 376.8665,406.6218 377.9674,404.9379 379.7358,404.0783 382.4642,404.0048 385.9397,404.7887 390.2763,406.3714 401.223,411.8969 415.5874,420.9485 429.6258,431.0342 444.6297,443.327 457.1231,454.8735 466.1684,464.3507 474.029,473.5629 482.2789,484.5552 487.9956,493.4768 494.5841,505.9995 498.6899,516.3587 500.3404,521.7521 501.6327,527.4887 502.0449,531.6699 501.6702,533.2922 501.184,533.302 500.6406,532.6562 499.3188,529.789 496.29,518.7792 494.4381,509.2214 491.6345,491.2695 489.7033,473.7031 488.1932,455.5277 487.2381,437.4709 486.7625,418.8068 486.8304,402.7452 487.3496,385.7422 488.2936,368.7128 489.5838,353.5537 491.382,338.0571 493.6762,322.4618 496.4044,307.2772 499.2855,294.1653 502.6575,281.3703 506.3708,269.4204 510.49,258.0942 514.9646,247.6298 519.5796,238.5638 524.5156,230.3906 529.9185,222.9433 535.2793,216.9299 540.7643,212.1218 546.3974,208.5518 552.0879,206.2541 557.7377,205.2578 563.2483,205.5917 568.6476,207.3223 573.8486,210.3735 578.7188,214.6406 582.4688,219.0745 585.674,223.8943 588.5573,229.3382 591.2582,235.7037 593.6867,242.809 595.7315,250.4048 597.3692,258.4284 598.5761,266.8169 599.298,274.9896 599.6913,284.6957 599.6722,294.1553 599.249,304.0757 597.3696,322.8212 593.75,343.8684 589.7704,361.259 584.9356,378.5942 578.9991,396.8208 571.7718,416.4428 561.2618,442.2086 540.6162,489.3415 531.4475,510.9836 513.1985,557.9385 509.9664,564.458 508.2247,566.9841 506.879,568.3601 505.0804,569.1481 503.4749,568.6982 501.3922,566.8614 499.6349,564.0947 497.4438,559.1146 495.7189,554.2489 491.4852,538.4394 488.3563,521.9911 484.9537,499.5093 482.2682,474.8872 480.5333,452.7687 479.5931,431.1772 479.2398,407.8574 479.5355,387.5805 480.4684,366.6706 482.0579,345.4693 484.1529,325.969 486.9153,307.0193 490.2771,288.9432 493.8876,273.0972 497.9877,258.1032 502.5784,244.1093 507.577,231.2736 513.0623,219.3782 518.9938,208.6028 524.9061,199.7068 531.3417,191.878 538.0518,185.4673 545.2405,180.3623 552.2073,177.0576 555.8392,175.9731 559.3195,175.354 562.8745,175.146 566.403,175.3613 569.8902,175.9929 573.3212,177.0337 576.6812,178.4767 579.9553,180.3147 586.1866,185.1476 590.5242,189.7569 594.511,195.1275 598.2499,201.3236 601.772,208.4937 604.7386,215.9201 607.4127,224.2401 609.5327,232.6316 611.239,241.5562 612.5916,251.3827 613.5203,261.8294 613.9653,272.0836 613.9665,282.8348 613.5306,293.2486 612.6713,303.6522 611.2708,315.2352 609.417,327.031 605.9078,344.4889 601.3913,362.3569 595.5539,381.6519 588.7176,401.2371 582.1794,417.9533 573.287,439.0861 547.9247,495.0398 539.8971,513.5252 533.3478,529.8496 527.2394,547.5833 521.4214,567.7913 516.9673,587.897 513.6991,607.5972 509.6852,636.7824 507.9862,645.8765 506.3168,651.3841 505.5,652.75 504.2344,653.9688 503.239,654.2676 502.1191,653.9531 499.3472,650.7865 497.3088,647.0751 494.3511,639.9499 491.3419,631.0647 487.7624,618.9789 481.625,594.0 476.2871,567.11 471.1579,535.7164 467.2103,505.1229 463.9107,472.2675 462.024,444.9554 460.9317,417.2147 460.625,388.375 461.1318,361.5852 462.4385,335.6584 464.5631,310.3121 467.494,285.8858 471.1619,262.9134 475.5636,241.2939 480.7579,220.6026 486.6976,201.1137 493.2037,183.3978 500.1957,167.5721 507.8228,153.3062 516.0899,140.575 524.9041,129.5497 529.6127,124.6065 534.1725,120.4011 538.8178,116.6803 543.538,113.4638 548.3222,110.7714 553.0874,108.6479 557.8018,107.0743 562.8994,105.9391 567.6354,105.398 572.7194,105.3604 577.7673,105.8806 582.7593,106.9508 587.6754,108.5633 592.4959,110.7104 597.2008,113.3843 601.7704,116.5772 607.9871,121.9826 613.8446,128.3194 619.3206,135.5032 624.5785,143.7797 629.3733,152.8054 633.6789,162.4966 637.4688,172.7697 640.7168,183.541 643.418,194.8085 645.6506,206.9103 647.3037,219.2569 648.4217,232.1536 648.9674,245.1464 648.9543,258.5339 648.3815,271.8444 647.2565,285.1528 645.5967,298.5982 643.4929,311.7394 640.8305,325.3003 637.6822,338.8351 634.0734,352.2844 629.9309,365.9175 625.2318,379.7868 620.0831,393.59 609.7772,418.0949 597.3732,443.9971 584.6293,468.5564 557.882,517.6357 546.9897,539.3148 540.6709,553.5278 535.9269,565.4928 531.8706,577.5026 528.5522,589.4743 524.75,608.5 522.9433,623.1016 521.9789,639.4997 522.2906,660.491 524.1162,682.8116 526.9282,703.2401 530.8975,724.1302 533.6535,735.602 535.8714,742.809 531.9133,729.7695 525.1403,711.2722 518.0912,693.0967 510.0677,673.9683 497.8319,646.0442 484.9882,618.2452 436.2275,516.8679 431.5976,505.9769 428.2344,496.8448 426.6713,491.0874 426.3314,486.7578 427.0947,484.5003 427.9056,483.9051 428.8908,483.6995 431.8439,484.3285 435.5885,486.3678 440.6991,490.2474 445.8951,494.8872 450.0764,499.1723 456.6868,506.7136 465.0,517.5 475.5846,533.7264 483.6149,548.5961 490.0364,562.8709 496.566,579.9816 503.8494,604.4113 509.0231,626.7509 522.7316,698.1785 527.7741,721.7966 532.5577,740.807 536.9023,754.9768 540.3202,764.1037 541.6969,766.9552 542.5095,767.743 542.7225,767.0262 542.4512,764.7688 540.5826,756.5249 533.7843,735.3672 523.8934,708.7595 510.9092,677.199 497.3134,646.4453 479.1624,607.7433 467.2687,583.3884 431.3123,511.4864 423.5135,495.2197 418.7324,484.3836 415.4529,475.8539 413.8054,469.874 413.4573,465.7473 413.7733,464.0201 414.4436,462.835 415.4543,462.1689 416.6425,461.972 420.4743,462.8257 425.7841,465.6151 432.3456,470.3313 439.1392,476.0746 445.2753,482.0485 454.0889,491.3889 459.3617,497.5662 464.4897,504.3009 470.2026,512.3591 475.0964,519.9382 485.0271,537.7458 491.9597,553.3989 496.1857,564.6665 500.5003,578.5792 503.0419,588.3877 506.3951,604.0956 510.4207,628.2499 518.2265,688.8883 521.4009,710.4948 525.2007,731.9458 529.9824,753.3025 536.2377,775.8917 543.9851,797.9377 547.5736,806.0076 551.0069,812.532 553.7541,816.1033 554.798,816.8492 555.7346,816.94 556.5525,815.6938 556.8626,813.1544 556.6682,809.1556 555.9617,804.1532 553.0656,791.0084 548.4094,774.6534 542.225,755.9672 534.2406,733.9776 525.5555,711.7278 516.2193,689.3018 506.3241,666.8464 495.2814,642.8188 471.5152,593.8712 448.9167,550.0556 409.3145,476.1599 397.1759,452.4815 392.3159,442.0274 389.211,434.2646 387.4915,428.2757 387.1,424.0212 387.7017,421.6809 389.25,420.25 391.9001,419.8896 395.4331,420.5968 400.0822,422.4056 405.3329,425.103 418.8299,433.664 431.8597,443.5924 446.5677,456.5283 458.9596,469.1726 469.8216,481.8573 477.663,492.5054 484.3124,502.9772 491.3894,516.3716 495.7483,526.6986 499.7798,539.2827 502.5639,552.4062 503.2542,558.3994 503.3882,562.9332 503.0011,567.1723 502.6265,568.276 501.9555,569.1122 501.3586,569.2347 500.6567,568.8673 499.3203,567.1826 495.6841,558.1448 491.7765,543.122 488.4529,525.9205 485.2639,505.0747 482.366,480.452 480.8243,461.7069 479.6917,439.953 479.0558,419.0694 479.027,399.4009 479.5945,378.9761 480.75,358.5 482.3846,339.5879 484.579,321.1142 487.2979,303.3631 490.4996,286.5564 493.9894,271.5245 498.06,256.9926 502.5643,243.4305 507.5626,230.6465 512.8624,219.1423 518.4455,208.9377 524.3341,199.9877 530.5389,192.2372 536.9901,185.784 543.6178,180.7261 550.4722,177.1116 557.127,175.1367 560.451,174.6947 564.1215,174.6248 567.3906,174.9375 570.969,175.698 574.4739,176.889 577.5512,178.3253 583.4349,182.2198 588.1123,186.5556 592.5049,191.7499 596.5594,197.7187 600.2458,204.3992 603.5339,211.7286 606.3939,219.6441 608.8387,228.2444 610.8493,237.427 612.3949,246.9609 613.5174,257.1617 614.1584,267.594 614.3255,278.5773 614.0019,289.5765 613.1861,301.0993 611.9292,312.5066 610.2039,324.1358 606.6852,342.0967 601.8765,361.2221 596.0435,380.7747 589.2366,400.4489 582.2457,418.4666 574.7571,436.3256 549.0334,492.834 539.6354,514.3021 533.2335,530.6341 526.9709,548.8811 522.0856,565.8888 517.1721,587.7204 514.6931,602.7644 508.4826,646.4653 506.5048,653.4593 505.2969,655.6719 504.125,656.75 503.5376,656.9393 502.6024,656.7217 500.1527,654.5291 497.0002,649.0064 495.1363,644.6092 491.2891,633.6652 489.2379,626.9006 484.588,609.2775 481.6025,596.6818 475.8735,568.4594 471.2849,540.5441 466.9314,507.7135 463.7602,476.0605 461.6567,446.4946 460.3808,418.147 459.9969,391.0885 460.4552,363.7902 461.7729,336.6574 463.9096,310.6529 466.8983,285.6628 470.6953,261.8465 475.0596,240.248 480.2069,219.5899 485.863,200.9574 492.3565,183.2277 499.6188,166.7021 507.4154,151.9363 515.8455,138.7867 520.1822,133.0155 524.5406,127.8374 528.8821,123.268 533.6473,118.8754 538.5131,115.0104 543.4618,111.6801 548.476,108.8915 553.5383,106.6517 558.6312,104.9679 563.3967,103.904 568.4991,103.315 573.2431,103.2853 578.2897,103.8176 583.192,104.9132 587.8424,106.485 592.7075,108.6951 597.4592,111.4349 602.0819,114.6832 608.4699,120.2005 614.5131,126.6609 620.1654,134.001 625.3807,142.1575 630.1129,151.0668 634.5581,161.1764 638.3873,171.6788 641.7835,183.0404 644.6092,194.8404 646.8592,206.9874 648.5281,219.3902 649.635,232.3517 650.119,245.342 650.0383,258.9997 649.3772,272.9279 648.1709,286.6815 646.5147,299.8348 644.3545,313.0868 641.7723,326.0049 638.6449,339.2132 634.9522,352.7774 630.8309,366.1753 626.1915,379.7164 620.9333,393.6444 610.3022,418.7279 597.9585,444.5605 586.5361,466.3773 558.4107,517.7848 546.0,542.375 540.5818,554.5697 535.5668,567.3819 531.8746,578.2041 528.8302,589.2047 525.3803,605.0821 523.3028,620.7786 522.1765,638.3997 522.1612,656.4402 523.6302,677.6922 526.201,698.5231 528.5808,712.3414 531.7031,727.585 535.1991,740.3056 531.9647,729.8336 524.1172,708.4983 508.157,669.6272 496.7129,643.6444 482.8105,613.3603 447.1001,539.5438 436.9853,517.7571 432.0235,506.1952 429.6276,499.691 427.9728,493.4753 427.6041,488.8124 427.925,487.4425 428.4721,486.5899 430.217,485.844 432.6774,486.3266 436.4891,488.4238 441.0291,491.7933 445.6618,495.9227 451.4869,501.8931 456.839,508.0342 466.4329,520.7423 474.0,532.375 483.138,548.7851 490.3958,564.9643 493.9866,574.2061 499.3168,589.785 504.7178,609.2532 511.2045,637.7719 521.6817,692.2967 527.5,719.3717 531.6676,736.1505 535.6798,750.0213 539.625,761.0 540.7546,763.2577 541.4965,763.8385 541.625,763.0 541.2311,760.3527 539.373,752.832 532.027,730.3638 522.7759,705.8475 510.2075,675.3187 496.5538,644.5331 479.3381,607.7222 433.5517,515.4591 425.305,498.2246 420.6282,487.6042 417.6135,479.7843 415.9033,473.6364 415.4829,469.0184 415.7676,467.4563 416.4193,466.2962 417.261,465.6881 418.6555,465.381 421.982,466.0321 426.3831,468.2863 432.5601,472.5957 439.0627,478.0052 447.2066,485.9362 454.2595,493.4696 459.0167,499.136 465.2634,507.3272 474.2318,520.5988 483.9692,537.9881 491.5535,554.808 495.2678,564.6993 500.4352,580.7731 503.5664,592.926 506.4236,605.6345 510.3463,628.2527 519.3048,691.3749 522.8673,713.2465 526.9034,733.7373 530.1066,747.7847 535.3475,767.2206 539.2588,779.7821 542.464,788.6942 545.6007,796.3929 548.4219,802.0 551.375,806.375 552.4048,807.2039 553.0692,807.2413 553.8472,806.088 554.0622,803.9786 552.8992,794.6494 550.0612,782.2576 545.5953,767.1678 539.4376,748.7733 532.2611,729.1887 524.875,710.5 514.4068,685.4848 495.2082,642.4495 474.5401,599.762 453.9114,559.2679 415.9129,487.4685 401.9259,460.0177 397.6319,450.605 394.5336,442.648 392.8098,436.5742 392.3966,432.1828 393.0986,429.7571 393.9028,428.8714 394.9735,428.3264 397.8288,428.1832 401.4935,429.1781 406.8683,431.6473 413.0347,435.2038 419.6638,439.6444 426.6737,444.899 440.7993,456.6036 453.2086,468.819 464.6095,481.7083 475.9946,496.7979 482.7643,507.5345 489.0934,519.3462 495.0588,533.3609 498.5303,543.4109 502.1052,557.7664 504.2999,572.213 504.6363,579.8699 504.2959,585.7203 503.7008,589.3194 502.5156,591.4062 501.25,591.625 499.9391,590.5722 497.6089,586.6589 495.7602,582.1414 491.6597,568.5196 487.0205,548.0892 482.9239,523.9379 479.9972,502.8245 477.3094,476.7759 475.4807,452.0088 474.5026,429.0808 474.1284,405.0428 474.3699,383.8849 475.2286,362.9738 476.7447,341.804 478.9042,321.0377 481.614,301.5699 484.9132,282.9458 488.6476,265.7514 492.9102,249.4194 497.5632,234.4421 502.7279,220.5004 508.4613,207.4967 514.5242,195.9306 521.0231,185.5789 527.701,176.8468 534.8004,169.4673 542.0636,163.7247 545.7654,161.4296 549.8366,159.3702 553.5842,157.8942 557.6736,156.7383 561.4089,156.0994 565.1177,155.8671 568.7868,156.0456 572.3879,156.6352 575.8675,157.6019 579.5985,159.0779 583.2483,160.9804 586.8036,163.2958 591.9292,167.5134 597.0246,172.8893 601.7435,179.1612 605.818,185.8806 609.6763,193.7388 613.2292,202.6493 616.1661,211.7963 618.7019,221.7979 620.6382,231.8317 622.1128,242.5839 623.0203,253.3892 623.4443,264.7644 623.3717,276.5732 622.8066,288.3809 621.7353,300.5076 620.1423,312.8815 616.3398,333.8648 611.2344,355.2969 604.9508,376.5956 597.3094,398.3816 589.8263,417.3688 581.4258,436.8054 554.1133,494.5638 543.9566,516.9178 536.8687,534.3438 530.5139,552.2793 525.1584,571.0306 520.7541,592.2452 518.1298,612.7358 516.7362,632.8892 516.5023,645.5657 516.6772,661.658 518.3773,690.5815 520.8691,712.6493 523.6661,730.0445 526.8029,746.2664 531.1797,764.8619 533.5621,773.669 538.4341,789.5927 542.9936,802.0956 547.5926,813.1481 552.8431,822.9902 554.6176,825.6235 556.1581,827.302 557.5446,828.1931 558.6998,828.2042 559.704,826.8432 560.1467,824.1258 560.056,819.8215 559.396,814.3652 556.413,800.1324 551.3495,781.9383 544.8343,761.944 536.743,739.6314 527.128,715.0512 516.6165,689.8791 506.498,667.0021 494.4671,641.1077 481.3902,613.9961 468.0069,587.22 449.8388,552.385 401.2385,462.6623 391.0386,443.0144 386.2137,432.7941 382.9941,424.9187 381.2709,419.2584 380.7859,414.8295 381.3173,412.5074 382.5603,411.0707 384.4383,410.4311 387.3721,410.5808 391.3152,411.6495 395.9403,413.5218 401.0663,416.0908 406.9085,419.4947 421.4059,429.2163 434.0322,438.8817 450.1025,452.9375 462.4085,465.467 471.8739,476.3752 479.8353,487.1261 486.6132,497.6156 492.3735,508.5503 496.2591,517.4358 500.2366,529.7257 502.3075,540.1958 502.4292,544.5346 501.9259,546.6042 501.1343,546.6667 499.7129,544.7969 496.7581,536.8021 493.2452,521.803 491.0802,509.3542 488.4036,490.1093 486.4282,470.8257 484.8646,449.9728 484.0574,429.3579 483.8577,409.5862 484.1176,391.8178 484.8813,374.2755 486.1693,356.4844 487.9712,338.8707 490.2094,322.2484 492.8959,306.3841 496.0652,291.1009 499.5093,277.2846 503.2151,264.7834 507.4773,252.6441 512.0336,241.6075 516.9697,231.4285 522.2451,222.2516 527.5977,214.515 533.3698,207.7201 539.3424,202.1708 545.4384,197.9443 551.2883,195.2195 557.2843,193.8026 563.4449,193.7971 569.4399,195.2328 575.1651,198.0574 580.5161,202.2189 584.5424,206.5662 588.2931,211.7119 591.7259,217.5621 594.964,224.4142 597.6535,231.5191 599.9367,239.1421 601.8272,247.4176 603.338,256.3843 604.3736,265.2848 605.024,274.794 605.2412,284.4776 605.0288,294.2663 604.3455,304.7594 603.201,315.851 601.6664,326.8265 599.7699,337.6463 596.4391,352.9599 591.8969,370.0578 586.6188,387.1453 580.448,404.7855 574.7262,419.668 568.1641,435.5634 544.7233,488.6014 533.478,515.26 527.7997,530.1961 522.981,544.0653 510.3889,584.0839 507.7188,590.2206 505.324,593.382 503.5946,593.9907 501.5586,593.1641 499.582,590.7266 497.3365,586.4766 495.1491,580.7864 492.5467,572.7119 487.875,553.375 483.957,532.9923 480.3777,509.2502 477.6091,484.5854 475.3097,457.1264 474.2014,434.805 473.724,410.932 473.8692,386.9046 474.6986,364.4316 476.2007,342.7017 478.389,321.3208 481.2187,300.7772 484.6598,281.2852 488.5126,263.6236 492.8394,247.2124 497.6962,231.8428 502.9962,217.8087 508.9927,204.4992 515.331,192.7266 522.1216,182.2639 529.0948,173.5209 536.3966,166.3231 543.9721,160.7634 547.8295,158.6054 551.7136,156.8656 555.6094,155.5469 559.8554,154.5916 564.0785,154.1442 567.9131,154.1833 571.6974,154.6549 575.4166,155.5618 579.135,156.9346 582.9403,158.8301 586.3652,160.9801 589.9672,163.7262 595.0007,168.4829 599.9595,174.3875 604.3018,180.7908 608.2404,187.9101 611.8289,195.9142 615.0876,204.8593 617.8614,214.33 620.1452,224.249 621.9339,234.5392 623.2222,245.1232 624.0052,255.9239 624.3019,267.5604 624.1024,279.4242 623.4245,291.239 622.2508,303.3414 620.5669,315.6768 616.8434,335.5166 611.7023,356.4679 605.4301,377.2971 597.8238,398.7 590.2412,417.8334 581.9235,437.0743 554.9342,494.0179 543.9144,518.3917 537.2275,534.7032 531.287,551.2656 525.527,571.137 521.3803,590.5094 518.9039,607.7331 517.2129,629.3691 516.8672,639.6594 516.8909,655.7063 517.8787,678.2205 519.4103,695.3766 520.8907,707.4553 523.0533,721.9811 525.9709,738.4883 529.8578,756.3134 534.3301,773.2491 537.2435,782.8444 542.1071,797.1258 546.2966,807.2816 551.0075,816.7674 554.7127,822.0004 556.2225,823.2593 557.4245,823.3777 558.3085,822.2277 558.7501,819.6849 558.625,815.625 557.9601,810.481 555.0812,796.6169 550.536,780.1618 544.1424,760.4347 536.4436,738.9821 527.7254,716.5894 517.9528,693.1822 507.4547,669.292 496.3164,644.9928 484.7894,620.8165 472.8763,596.7821 448.4382,549.4766 406.9624,472.5485 392.5372,444.6025 388.3378,435.6226 385.5729,428.596 383.9536,422.7871 383.6057,418.6312 384.2393,416.2669 385.8257,414.8612 388.3073,414.4675 391.5424,414.9952 395.4002,416.3344 400.3182,418.6707 413.7268,426.5931 426.4994,435.7603 441.653,448.2221 454.5839,460.5012 465.7551,472.4879 474.7275,483.6978 481.8638,493.8542 488.5579,505.2725 493.6695,515.7663 498.2336,527.8089 501.5362,540.0908 502.3722,545.4029 502.7786,550.5599 502.568,554.263 501.875,556.0 501.3809,556.1465 500.8281,555.8594 499.1394,553.4756 495.9572,544.4562 492.9183,531.8312 489.9901,516.4196 486.9104,494.8154 485.15,478.6652 483.1403,452.8395 482.1976,432.6999 481.8802,413.3759 482.0725,393.8522 482.7575,375.6657 483.9834,357.1174 485.7599,338.511 487.9568,321.1469 490.6191,304.784 493.8068,288.9621 497.2939,274.6146 501.1866,261.1334 505.3507,248.9546 510.0883,237.2184 515.2579,226.3487 520.7971,216.5154 526.6437,207.8886 532.442,200.9555 538.5948,195.1778 544.9184,190.7253 551.6318,187.5371 557.9905,185.9745 564.207,185.8917 567.2581,186.3825 570.5985,187.3292 576.4317,190.0685 582.2546,194.3527 586.5417,198.7043 590.2466,203.507 594.0313,209.6687 597.4531,216.5931 600.3263,223.7939 602.9083,231.8916 605.0356,240.4895 606.6265,249.1006 607.8379,258.5393 608.6208,268.5547 608.9426,278.7404 608.8227,289.0379 608.2805,299.389 607.293,310.1177 605.7745,321.7282 603.8608,333.1637 600.7643,348.0588 597.0342,362.8185 592.1539,379.264 586.6598,395.6754 580.2937,412.8233 572.7696,431.4015 543.1732,498.0827 531.4564,526.8859 525.6748,543.18 521.0429,558.3517 515.9333,577.6069 510.7585,598.9896 508.5766,606.6439 506.3378,612.0424 504.625,614.25 502.8014,614.7112 501.6579,614.2637 500.497,613.313 498.4964,610.2699 495.8891,604.8496 490.6685,589.0001 485.344,566.8207 481.2588,545.5254 476.9455,518.0242 474.0336,493.1339 471.4621,464.1108 470.0137,439.6549 469.2431,414.6091 469.1748,389.4729 469.8341,365.7276 471.2326,342.2554 473.3514,319.4212 476.1936,297.2358 479.6624,276.508 483.6172,257.5708 488.2037,239.5176 493.2801,222.9084 498.9601,207.4049 505.2029,193.2063 512.0419,180.2326 519.2015,168.9633 526.8052,159.1845 534.7941,151.0604 538.757,147.7896 542.9481,144.8423 547.1946,142.36 551.48,140.3448 555.788,138.7989 560.1022,137.7243 564.4064,137.1232 568.6843,136.9977 572.9194,137.3498 577.0955,138.1817 581.1962,139.4956 584.875,141.125 588.7774,143.3366 592.8362,146.1767 597.777,150.4405 602.7105,155.6892 607.1176,161.353 611.4344,167.9799 615.3922,175.2395 618.7934,182.6765 621.8222,190.5939 624.6389,199.4472 627.0393,208.6671 629.0933,218.5687 630.7019,228.741 631.8669,239.1203 632.5901,249.6431 632.8732,260.2459 632.7115,271.5568 632.1337,282.7748 631.089,294.658 629.5829,306.7694 627.6134,319.0525 625.2615,331.0821 622.3795,343.5812 619.0891,356.0302 615.2986,368.7752 611.1362,381.3813 602.125,405.375 590.908,431.5128 580.6942,453.1606 552.8002,509.6461 546.219,523.8119 540.9167,536.1684 534.8263,552.2223 529.7561,567.7793 526.1246,582.0043 523.1876,597.125 521.5,608.625 520.6881,616.6461 519.7875,633.2127 519.6264,643.1839 519.8175,655.8315 520.4011,666.5146 521.5375,681.3384 523.487,698.5297 528.2853,726.8293 531.8706,743.2012 534.9244,755.1017 538.5648,767.4306 542.7078,778.8966 545.9352,785.6528 547.25,787.375 548.0138,787.5963 548.4468,786.5903 548.426,784.2201 547.1331,776.964 544.2813,765.768 540.4059,753.2161 534.7112,736.8427 528.308,719.7308 513.4613,683.4636 496.5458,645.2024 479.6593,609.5607 459.7253,569.4265 427.5048,507.0381 411.491,474.7307 407.5325,465.7856 404.7176,458.2047 403.2055,452.434 402.9225,448.3256 403.2907,446.8171 403.9969,445.741 405.0097,445.0719 406.6587,444.7688 410.5136,445.565 415.4869,447.8848 421.6458,451.6582 428.2903,456.5539 436.8899,463.8201 444.8364,471.2462 458.2965,485.6861 463.6479,492.1389 468.189,498.2136 474.3661,507.1516 479.36,515.074 484.1164,523.6888 488.5941,532.6272 491.579,539.4284 494.9028,548.1667 499.8093,563.302 503.4624,578.5826 506.5414,597.3913 507.8806,610.1887 508.6592,623.6939 508.4688,644.9688 507.6605,653.3826 506.6677,658.6413 505.5416,661.8565 503.8772,663.6793 502.8521,663.6943 502.0221,663.2725 499.5747,660.4334 497.3439,656.1326 494.13,648.4936 487.6982,628.051 481.2245,601.9776 475.6711,574.8295 470.6161,545.0941 466.2121,512.9877 462.768,481.2674 460.6221,453.1573 459.2095,424.1143 458.5726,396.1937 458.7797,369.5427 459.8173,342.9356 461.707,316.4084 464.3432,291.2749 467.7065,267.8866 471.8028,245.8142 476.6967,224.5736 482.2482,204.7693 488.5039,186.2345 495.1743,169.7759 502.5592,154.5921 510.5977,140.8412 518.9959,128.9906 523.4955,123.5659 527.8803,118.8499 532.6033,114.3686 537.1842,110.5907 541.9739,107.2191 546.569,104.5152 551.2171,102.2787 556.2652,100.3912 561.3391,99.0425 566.4205,98.2308 571.4909,97.9545 576.532,98.212 581.5253,99.0015 586.4523,100.3214 591.2946,102.17 596.0338,104.5456 603.1085,109.2355 609.8494,115.0614 616.4381,122.1926 622.5784,130.3393 628.2307,139.4064 633.3552,149.2989 638.0638,160.3135 641.991,171.5927 645.4003,183.8317 648.2437,196.9295 650.4063,210.3668 651.9355,224.4232 652.7776,238.6186 652.949,252.8416 652.4658,266.9811 651.2755,282.036 649.6496,295.7072 647.498,309.4618 644.8276,323.242 641.5633,337.3401 637.7957,351.3045 633.4844,365.3087 628.6251,379.465 623.2642,393.6158 612.5074,418.7672 598.9659,446.6471 587.212,468.8311 557.5955,522.1231 547.0824,542.7217 541.0354,555.9107 536.6997,566.5869 532.5548,578.4809 529.0932,590.3078 525.3814,607.1573 523.5053,620.5175 522.3119,638.362 522.3241,657.7618 523.6449,677.9522 526.2873,698.8034 529.3416,716.2634 533.3698,733.9216 527.1979,716.2173 519.0463,695.354 511.1915,676.0906 502.282,655.584 485.2229,618.1076 449.2473,542.7251 438.277,518.9824 434.9263,510.6637 432.5077,503.6025 431.0903,498.1431 430.7934,494.3566 431.4071,492.3579 432.0905,491.7333 432.97,491.4679 435.4156,491.8829 438.9216,493.7212 442.8615,496.7475 448.4531,501.8281 452.9844,506.5214 457.3241,511.6284 466.3256,523.4847 476.1902,539.0029 482.7147,551.1949 489.5857,566.0799 497.6278,587.6574 504.7153,611.918 509.926,633.5076 520.9662,688.023 526.013,711.084 529.9613,727.4422 534.0254,742.238 537.6363,752.5682 538.68,754.242 538.8262,753.7043 538.3782,751.573 536.1689,743.3764 528.9197,721.816 522.0153,703.6638 510.1663,674.9974 497.8764,647.0583 482.4581,613.8375 437.7253,522.4792 430.4697,507.0801 425.6612,496.014 422.5711,487.9281 420.864,481.5363 420.5216,477.1092 420.8605,475.4443 421.4946,474.4325 422.4174,473.8653 423.6127,473.6883 426.6985,474.431 431.0366,476.8443 436.7557,481.0229 442.357,485.9095 449.885,493.5244 456.1118,500.4495 467.1393,514.926 475.4692,527.755 484.0638,543.5135 491.8044,560.9969 495.3936,570.4461 500.2938,585.7973 503.1619,596.5297 506.8414,612.1435 511.0069,633.1377 519.2353,683.7438 523.2214,705.8593 527.477,726.656 530.0153,737.5081 534.2657,753.9496 540.0824,772.165 544.5745,783.2599 546.3491,786.2157 547.1684,787.0916 547.7671,787.3062 548.2046,786.438 548.2611,784.2754 547.0883,776.9473 544.0204,765.2719 539.7214,751.3836 534.7449,736.9674 528.4295,720.0299 513.9932,684.5473 495.5943,643.3086 476.2315,602.4717 455.2659,560.7153 423.0234,498.4189 413.0311,478.1343 408.125,467.25 405.1967,459.6645 403.4646,453.4319 403.0792,449.0391 403.3294,447.5841 403.9056,446.396 404.9102,445.5328 406.2639,445.1204 409.8619,445.5436 414.3864,447.4569 421.7182,451.9237 429.3793,457.486 435.9964,463.0997 445.086,471.5957 451.5296,478.1988 457.936,485.4441 464.5504,493.4705 469.7658,500.4316 475.7552,509.4319 480.7524,517.6096 484.3094,524.1231 488.5564,532.8964 494.1258,546.0922 500.0446,564.2217 504.0919,581.6549 506.8639,599.4371 508.5808,620.0274 508.8312,642.0424 508.2788,651.7248 507.2196,659.4737 505.8405,664.3001 505.0598,665.5616 504.1184,666.3422 503.0,666.375 502.0185,665.838 499.2781,662.431 497.2079,658.3854 493.9207,650.4159 487.7383,630.7786 480.5727,601.989 474.8926,573.5891 469.6361,542.5452 465.2829,510.029 461.891,477.7323 459.8038,449.0335 458.4734,418.9884 457.9852,390.5009 458.3724,362.9521 459.6264,335.8683 461.749,309.3033 464.6934,283.8088 468.4637,259.5629 472.9154,237.137 478.1905,215.6715 484.0434,196.1238 490.6203,177.9505 497.8611,161.4248 505.7071,146.5909 514.2036,133.3132 518.6695,127.3172 523.2663,121.7815 527.9836,116.7297 532.8108,112.1857 537.7374,108.1731 542.5,104.875 547.48,102.0194 552.5216,99.7134 557.6057,97.9539 562.7135,96.7375 567.8259,96.0609 573.2873,95.9313 578.3492,96.3624 583.713,97.412 588.9921,99.0657 593.8223,101.1506 598.5396,103.7547 603.125,106.875 609.8155,112.5344 616.1463,119.1956 622.0826,126.7806 627.5898,135.2114 632.6332,144.4099 637.3364,154.6767 641.4649,165.5983 644.9445,176.9569 648.0045,189.5319 650.4248,202.4362 652.2186,215.5862 653.424,229.2807 653.9951,243.0564 653.9362,257.2039 653.2652,270.8658 651.9162,285.4872 650.1318,299.1513 647.8349,312.8865 645.0332,326.6345 641.6496,340.6854 637.8804,354.247 633.555,367.9855 628.5796,382.2173 623.2508,396.0738 612.7493,420.3457 599.9434,446.3828 586.5483,471.3738 558.7421,520.8847 547.8613,542.016 541.5273,555.7426 536.9502,566.8349 532.8106,578.53 529.3697,590.1636 525.7649,606.1083 523.4644,622.0 522.2538,638.5878 522.2738,657.2874 523.7346,678.8101 526.1826,698.0397 529.6226,717.4564 532.7948,731.5237 521.9524,702.1705 510.8229,675.2034 500.6696,651.9624 486.4468,620.5 451.9845,548.2802 438.986,519.7358 435.8618,511.979 433.4988,504.9963 432.1385,499.3571 432.0093,496.2361 432.7167,494.3396 433.346,493.8341 434.4363,493.6046 437.0922,494.3157 440.6944,496.3843 444.5,499.375 449.552,504.143 454.3738,509.3015 458.9975,514.8222 467.7552,526.745 477.0512,541.7845 482.3302,551.6496 490.4097,569.2757 498.0672,590.1037 504.5799,612.3782 510.6688,637.6326 521.3044,689.7377 527.3567,716.3879 530.4833,728.9065 534.4371,742.4424 536.4398,748.3102 537.747,750.883 537.4613,748.3557 535.3297,740.7351 529.2034,722.7622 520.541,699.8535 510.6693,676.1151 497.8256,646.7737 484.3705,617.7515 432.3036,510.256 427.6255,499.356 424.1173,489.922 422.5652,484.3951 422.2183,480.0316 423.0032,477.7368 423.8108,477.0808 424.9031,476.8191 427.9542,477.3819 431.872,479.328 436.5864,482.7456 442.4376,487.8182 448.0148,493.3068 454.1925,500.0765 463.8486,512.1479 474.5992,528.0661 482.7606,542.8399 489.3553,557.0233 494.9568,571.4217 499.2593,584.4136 503.0667,597.5945 506.786,613.2367 511.8156,638.9084 521.7122,695.9774 526.1681,718.4299 530.9062,739.0977 535.9698,757.1035 540.1835,769.7004 543.6109,777.7649 545.2603,780.4774 546.1053,780.9984 546.4426,779.849 546.3396,777.769 544.9274,770.3473 542.291,760.3174 538.6811,748.7898 533.1155,732.8225 527.0121,716.5132 513.1651,682.8148 496.2873,644.6598 479.1257,608.3263 461.9904,573.6677 429.1132,509.3357 416.3979,483.5362 412.0578,473.8299 408.8712,465.6231 407.0077,459.3413 406.4129,454.9084 406.6328,453.1973 407.3987,451.6851 408.3615,450.9475 409.9453,450.5762 413.7566,451.3375 419.3792,454.0486 425.9632,458.3619 433.6202,464.4739 442.0619,472.0477 449.5347,479.5841 456.698,487.5426 462.9879,495.188 469.1209,503.4773 474.8965,512.0307 479.9229,520.3241 485.2158,530.1646 489.3236,538.6609 492.7573,546.9405 497.7315,560.8857 501.9062,575.6875 504.5692,587.8244 507.111,603.1474 508.9297,618.3196 510.5234,636.0383 511.9216,664.6327 513.906,716.1509 515.1157,731.2425 515.9931,740.1146 517.7326,752.9848 520.1069,766.2501 522.8188,778.579 527.6979,797.2222 533.4925,815.2433 541.1704,835.6005 549.0505,853.1182 555.2679,864.5944 562.4884,875.3467 565.2214,878.3841 567.8612,880.5673 570.2879,881.7306 572.2207,881.7575 573.2353,881.2366 574.1431,880.2669 575.5175,876.8211 576.0889,871.6718 575.875,865.125 574.8155,856.0567 573.0685,845.9513 570.6106,834.6566 567.4915,822.4547 559.8425,797.1378 549.1861,766.5465 536.795,734.3722 522.9888,701.3492 510.5771,673.5672 496.4592,643.52 481.4472,612.939 465.6735,582.0832 447.8362,548.631 427.6617,512.4122 406.0612,474.8457 372.9421,418.474 363.3374,401.459 357.4915,390.2913 353.5332,381.7224 351.2128,375.23 350.5037,370.6368 350.7598,368.8828 351.5935,367.3447 352.9531,366.375 354.7874,365.9209 357.0449,365.9297 360.1454,366.4546 367.8769,368.9315 377.9157,373.2056 389.333,378.9095 406.2126,388.3408 421.5522,397.4713 435.284,406.2784 447.6995,414.7165 457.7219,422.0548 467.8178,430.0434 475.3004,436.5191 484.8509,445.5733 489.3791,450.297 500.808,463.455 502.3536,464.8547 502.9219,464.8281 503.375,463.625 503.4422,460.2455 502.1807,438.2727 501.8512,416.9819 502.1908,402.3366 503.1066,384.6151 504.7541,367.1949 507.0027,350.3783 509.9123,334.899 513.5255,320.013 517.7388,306.5849 522.6473,294.4247 528.1907,283.9417 533.998,275.715 536.8445,272.6224 539.9063,269.9933 542.6962,268.1789 545.8394,266.7716 548.9344,266.0619 551.6007,266.039 554.4851,266.6989 557.2639,268.0396 559.8914,270.0459 562.061,272.3769 564.0393,275.2131 566.1562,279.2348 567.908,283.4913 569.411,288.1914 571.5482,298.7261 572.5709,310.7874 572.4916,323.6913 571.18,339.1296 568.9401,353.8649 565.1678,370.8173 560.8917,386.3082 553.6449,408.0792 546.6623,426.0236 538.0615,445.2514 530.3659,460.2588 526.5,466.625 523.3438,471.1719 520.6052,474.2809 517.9235,476.3463 516.6193,476.8938 515.0,477.125 513.991,476.978 512.7442,476.3464 510.2152,473.5175 508.2812,469.6406 506.2168,463.1674 504.6902,456.1246 502.9093,444.6559 501.9935,435.1762 501.25,421.0 501.0348,410.4116 501.2026,396.929 501.7676,382.9591 502.6999,370.2408 504.0116,357.9023 505.6836,345.9873 507.7568,334.2887 512.3271,314.3634 514.6241,306.3565 517.2035,298.7663 520.3269,290.8989 523.6703,283.6356 527.2049,277.0119 530.6822,271.6024 534.3165,266.952 538.281,262.8948 542.0,260.0 545.7071,258.0449 549.4348,257.0075 553.451,256.9165 556.9273,257.7795 560.4204,259.7014 563.2598,262.1433 565.6599,264.9587 568.0572,268.6795 569.9775,272.6019 571.8702,277.6845 573.4616,283.1992 575.6513,295.0962 576.527,308.6525 576.2533,323.3396 574.8721,337.2878 572.0864,354.2182 567.9637,372.3393 562.4099,391.6099 554.8313,413.4098 546.9929,433.0253 537.5061,454.2607 527.7969,473.25 524.375,479.0 521.3389,483.3177 518.7279,486.1927 516.042,488.253 514.3609,488.911 513.0,489.0 511.75,488.6582 510.5938,487.8594 507.7814,484.152 505.5046,478.8287 503.416,471.6088 501.683,462.5226 500.0303,451.0493 498.9477,438.4917 498.2482,425.0649 498.0457,413.133 498.2955,395.2903 498.8659,381.4814 499.9919,367.1047 501.6747,351.942 503.4241,339.8122 505.6355,327.7159 508.0081,316.9074 510.7199,306.3252 513.3155,297.6984 516.3431,289.0931 519.7911,280.6892 523.4778,273.004 527.2237,266.3826 531.2303,260.4896 535.406,255.487 539.4357,251.6781 543.7505,248.6853 547.8807,246.844 552.3326,245.9495 556.6428,246.2177 560.3943,247.4849 564.2385,249.9764 567.1933,252.8201 569.9346,256.3391 572.4244,260.4897 574.4533,264.8122 576.3579,270.0075 578.0111,275.8055 579.3425,282.016 580.3349,288.5866 581.2572,302.7754 580.9167,319.0137 579.406,334.8406 576.527,352.279 572.3929,370.2632 566.1046,391.8218 559.3062,411.4714 550.3969,434.2178 540.7512,456.354 532.9638,473.113 527.6987,483.5724 523.5186,491.1477 519.8742,496.9841 516.9339,500.623 514.3831,502.7541 512.5576,503.551 510.8273,503.6986 509.5007,503.2649 507.8446,501.9828 506.4496,500.2574 505.1216,497.8286 502.3456,490.4938 500.2049,481.6382 498.0832,469.2098 496.4961,455.4453 495.2466,439.5911 494.5909,424.0859 494.362,407.2453 494.6681,392.6007 495.4827,377.1158 496.7617,361.5921 498.5107,346.573 500.7546,331.7841 503.4563,317.4851 506.1321,305.8885 509.1301,294.983 512.4947,284.5474 516.1883,274.7503 519.9846,266.1983 524.0169,258.5554 528.298,251.7275 532.7541,245.8252 537.5448,240.7415 542.3125,236.9336 547.152,234.2562 551.9691,232.7564 556.3397,232.4593 560.8656,233.3437 565.5261,235.5555 569.6259,238.7337 572.8809,242.2773 575.6053,246.1634 578.1007,250.7409 580.4121,256.1196 582.4018,262.0189 584.0601,268.3772 585.3778,275.133 586.3691,282.4414 587.2976,298.2576 586.832,314.7885 584.9565,332.5687 581.7108,351.3363 577.2354,370.2732 571.5465,389.7881 564.6521,409.8552 556.2509,431.3804 543.6612,460.9825 525.9593,499.4509 520.7969,509.6077 517.3733,515.5853 514.341,519.7264 511.3582,522.383 509.6561,523.0688 507.734,522.936 506.3125,522.0938 504.5986,520.2129 503.1098,517.894 501.841,515.1288 498.853,505.7783 496.1513,493.015 493.5185,475.9523 491.687,459.0734 490.5139,441.8562 489.8738,423.4573 489.7676,404.7387 490.263,386.4741 491.3204,368.0154 492.7181,352.0033 494.685,336.2451 497.2554,320.4288 500.3368,305.1068 503.4612,292.2884 507.0668,279.909 510.9879,268.5071 515.2933,257.8766 519.7465,248.5879 524.5439,240.2066 529.6329,232.8407 534.9411,226.6351 540.3961,221.7347 545.9501,218.1987 551.7901,215.9164 557.2056,215.1104 562.4664,215.6227 567.3509,217.4111 572.3091,220.6195 577.1951,225.3236 580.505,229.6041 583.5203,234.5354 586.0187,239.6655 588.4221,245.9021 590.3911,252.3811 592.0966,259.6419 593.4213,267.287 594.3613,275.2476 594.9089,283.3637 595.1184,292.6682 594.4412,310.8034 592.4111,329.0952 588.7686,349.34 584.4479,367.3077 578.8981,386.1041 572.2471,405.7228 564.7486,425.186 556.1267,446.0596 518.0122,534.1973 512.6064,545.0741 510.3338,548.3253 508.375,550.125 506.594,550.8632 504.4951,550.4504 503.0371,549.3398 501.3452,546.8696 499.2776,542.7159 497.7664,538.7226 493.8226,524.6208 490.71,508.0728 487.8936,488.2101 485.5702,465.0976 484.2448,444.3747 483.5091,422.2516 483.3652,401.8601 483.9249,381.7676 485.1523,361.1285 486.9113,341.4664 489.2951,322.6627 492.311,304.598 495.9812,287.2139 499.7687,272.6069 504.1853,258.4681 509.0167,245.4885 514.3279,233.4953 519.9462,222.9226 525.5216,214.3335 531.7086,206.6325 538.1578,200.3284 544.7527,195.5313 548.0683,193.7323 551.4841,192.3135 554.8282,191.3551 558.1667,190.8148 561.4848,190.6878 565.1294,191.0252 568.3551,191.7541 571.8601,193.0303 574.9269,194.593 577.8952,196.5429 583.7082,201.8059 588.9875,208.5068 592.2383,213.804 595.1871,219.6486 597.8105,225.996 600.0848,232.8012 602.0061,240.0807 603.6688,248.2026 604.9489,256.6379 605.8521,265.3307 606.3843,274.2256 606.5505,283.6621 605.7547,302.7484 603.5187,322.8674 599.8467,343.286 596.436,357.6964 592.3966,372.3502 587.7842,387.0551 582.5144,402.071 576.4308,417.9398 569.3941,435.0289 543.2623,494.3213 533.4755,517.717 527.4023,533.8965 522.375,548.75 510.3469,589.9949 507.5864,597.1651 506.3184,599.2441 505.0231,600.6204 503.2033,601.1629 501.5439,600.4196 499.497,598.1528 497.5829,594.467 494.9993,588.2037 492.8153,581.5984 489.95,571.2144 487.6808,561.4339 482.8755,536.3935 479.1091,510.773 475.9601,483.4806 473.74,454.4683 472.5096,428.3703 472.1221,404.5976 472.4975,379.2683 473.6696,353.6435 475.4203,331.7252 477.9329,310.161 481.2176,288.9256 485.1788,268.6966 489.5177,250.74 494.4808,233.8956 500.1455,217.9285 506.3302,203.411 512.7981,190.7843 519.8107,179.5287 527.1161,170.0228 535.0592,161.8388 539.2833,158.3088 543.2797,155.4664 547.6052,152.9216 551.6703,151.0283 555.75,149.6143 559.8909,148.6763 563.8765,148.2313 568.2007,148.251 572.4819,148.7891 576.7013,149.8366 580.8401,151.3843 584.8794,153.4232 588.8006,155.9444 592.5847,158.9386 596.2129,162.3969 599.5048,166.1075 603.9013,171.9957 608.14,178.8621 611.9939,186.3874 615.4432,194.503 618.4686,203.1402 621.0503,212.2305 623.1687,221.7054 624.832,231.5448 626.0794,241.9154 626.8909,252.8422 627.2325,263.8932 627.1123,275.3862 626.5316,286.8694 625.5027,298.3658 623.9784,310.4611 622.0661,322.3244 618.0794,341.6382 612.9533,361.1606 606.2782,382.1749 598.4938,403.3865 591.3601,420.6983 581.6324,442.4068 547.3295,514.2748 539.6963,532.2476 533.7111,548.0337 528.2015,565.4603 524.2856,581.3907 521.1203,598.9995 518.9897,617.439 518.0055,638.4162 518.0183,653.288 518.4093,663.1447 519.2722,676.8346 521.0008,695.1149 523.303,712.3684 524.8836,721.9739 528.1153,738.7817 532.1457,756.2481 538.8661,779.3656 542.6121,789.6392 547.2963,800.7963 551.2016,807.3752 552.6145,808.7785 553.5645,808.9592 554.3825,807.83 554.631,805.7121 554.3909,802.0137 553.5584,796.7439 550.468,783.584 545.4887,766.6577 539.6055,748.9819 532.7468,730.2162 525.0239,710.6943 515.3845,687.6798 495.4855,643.221 473.5639,597.9447 452.2198,556.1523 413.2467,482.7031 401.5641,459.7894 396.9791,449.8054 393.7891,441.7767 391.883,435.3693 391.3731,430.9269 392.0174,428.3943 393.5759,426.9969 395.9197,426.62 399.3948,427.2921 404.2825,429.282 410.0156,432.3281 416.253,436.2345 422.9954,441.0487 437.7737,453.0414 451.8729,466.5344 463.1109,478.7703 474.2777,493.1946 481.4357,504.1196 488.3452,516.5997 494.1951,529.693 498.25,541.125 501.7835,554.7133 504.0203,568.9018 504.3811,575.9855 504.1999,580.6618 503.5521,584.7589 502.2919,587.0 501.6491,587.2143 500.875,587.0 499.5311,585.6469 497.2719,581.5267 495.6859,577.3923 491.3981,562.7083 486.5747,539.8838 483.1727,519.4656 480.3085,497.9055 478.0683,474.682 476.2104,448.1357 475.357,426.7296 475.079,404.8467 475.3672,382.4857 476.2359,362.2667 477.7576,341.8043 479.8924,321.7662 482.6035,302.4167 485.839,284.3359 489.6066,267.2686 493.911,251.0555 498.6987,235.8912 503.8092,222.214 509.3979,209.6701 515.3015,198.5426 521.6246,188.5652 528.3058,179.8785 535.2836,172.6229 542.3273,167.0444 549.7651,162.8885 553.3417,161.4806 557.2826,160.3607 561.2147,159.6924 564.7684,159.479 568.6397,159.68 572.1115,160.2611 575.5257,161.2234 579.0409,162.6473 582.4814,164.4771 586.103,166.8907 591.1736,171.1859 596.1885,176.6323 600.6063,182.6222 604.8495,189.7187 608.4542,197.1491 611.8358,205.7919 614.736,215.0247 617.1391,224.7379 618.978,234.472 620.3889,244.8999 621.286,255.5756 621.6644,266.2874 621.5698,278.1173 620.968,290.3101 619.8813,302.4291 618.2821,314.7911 614.8332,333.9191 609.675,355.5041 603.4843,376.5577 596.0686,397.877 589.0923,415.6395 580.9059,434.7063 552.7007,495.1819 542.3807,518.2923 535.6806,534.9444 529.7381,552.0258 524.1499,571.8899 520.0402,591.9637 517.217,614.169 515.7763,636.4919 515.4495,651.3752 515.6767,666.2011 516.5813,684.9453 517.7613,699.5306 519.1591,712.5251 520.6919,723.4819 523.3968,739.7591 526.6607,755.8666 531.3571,774.4366 535.487,788.6694 539.8708,801.9371 544.9629,815.0613 549.9267,825.8311 555.1767,835.0851 557.3156,837.9171 559.0445,839.6046 560.5913,840.5 561.875,840.5 563.0156,839.1738 563.6875,836.1719 563.7338,831.8013 563.1952,826.388 560.1271,810.677 554.9498,791.3604 548.375,770.75 539.2382,745.1442 529.2321,719.3327 518.4069,693.3611 507.3206,668.4399 493.9461,639.7512 480.0612,611.1292 466.0219,583.2754 441.2791,536.5886 395.7872,454.1561 384.2148,432.2283 379.5379,422.482 376.3661,414.9305 374.6061,409.4241 374.0216,405.0828 374.4052,402.6963 375.4527,401.1066 377.1007,400.2503 379.6382,400.0884 382.9358,400.7101 386.9771,402.0555 396.8469,406.7544 411.5747,415.7224 425.8214,425.5261 441.1513,437.56 453.8021,448.6376 464.2481,458.9406 471.8284,467.2078 480.5257,478.2352 486.6268,487.0672 493.3151,498.8759 497.6957,508.591 499.6027,513.9165 501.164,519.657 501.8525,523.2497 501.7546,525.4537 501.375,525.5 500.9746,525.0996 499.7922,522.4589 497.3955,513.4589 494.888,500.3896 492.1669,481.4131 490.6395,465.6765 489.3812,447.3942 488.7281,430.4053 488.5004,412.4769 488.7054,397.3395 489.3631,381.5267 490.4738,365.0869 491.9474,349.3549 493.7006,335.4863 495.9179,321.5514 498.5207,308.0914 501.4592,295.3053 504.8172,282.9196 508.4839,271.4033 512.4128,260.8743 516.56,251.4202 521.1534,242.6119 525.8852,234.9948 531.0985,228.02 536.2465,222.4307 541.4912,217.9916 546.7966,214.7782 552.3173,212.7389 557.7976,211.9979 563.153,212.5552 568.2989,214.4109 573.0547,217.4655 577.5223,221.6932 580.7354,225.7167 583.8879,230.6835 586.705,236.2726 589.0,242.0 591.2051,248.9311 593.0475,256.3184 594.5752,264.4838 595.6363,272.625 596.297,281.0465 596.5492,289.3804 595.9907,308.3322 594.0526,326.9558 590.5803,346.7187 586.6303,363.8107 582.0079,380.1976 575.3672,400.2341 567.9103,420.2563 558.1972,443.9994 535.4727,495.9229 515.8022,542.8455 512.6617,549.3479 510.2222,553.3256 508.7122,555.1158 506.8148,556.2963 505.0859,556.3965 503.3057,555.5434 501.7482,553.7278 499.5005,549.7564 498.1778,546.6575 494.1611,533.171 490.976,517.7006 487.9375,498.8034 484.9933,473.1931 483.4956,453.8626 482.4977,431.7196 482.0511,409.833 482.292,389.678 483.1631,369.6475 484.6881,349.504 486.8546,329.9281 489.6538,310.9677 493.0414,292.9443 496.5305,277.8896 500.4951,263.7512 505.0018,250.2578 509.8734,237.937 515.1921,226.5975 520.5451,217.0842 526.4094,208.4834 532.5778,201.1272 539.2132,194.917 545.7071,190.4462 552.2815,187.5183 555.613,186.6283 558.937,186.1286 562.2399,186.0171 565.5077,186.2916 569.0809,187.0467 572.2296,188.1289 578.2797,191.4288 584.1306,196.3868 588.2246,201.0579 592.0065,206.4654 595.6291,212.9134 598.6818,219.6673 601.3368,226.9949 603.6042,234.924 605.5055,243.45 607.0364,252.6923 608.078,261.8467 608.7202,271.6076 608.9142,281.5281 608.6691,291.6254 607.9816,302.3257 606.8908,312.9805 605.3729,323.9215 603.4276,335.0881 600.2962,349.7287 596.4001,364.9008 591.8549,380.1465 586.4947,396.0389 580.3585,412.5103 573.332,429.8613 542.0623,500.7493 536.2374,514.5751 530.4971,529.3452 526.287,541.2991 520.8985,558.5225 516.0633,576.6491 509.0407,604.9292 506.5802,611.0256 505.4533,612.7649 504.2812,613.8594 503.334,614.171 502.3607,614.0561 500.5871,612.7168 498.1563,609.1877 496.1139,604.7717 493.5152,597.9301 491.5987,591.7644 485.9975,569.1447 481.392,545.6344 477.4746,520.3854 473.9243,491.5224 471.6487,465.3 470.168,438.7482 469.3794,412.3591 469.3846,387.2085 470.1331,362.7213 471.6141,338.7722 473.7814,316.3448 476.78,294.0575 480.4647,273.0072 484.5655,254.18 489.2074,236.635 494.438,220.266 500.3392,204.8086 506.8664,190.4803 513.7993,177.7903 520.9497,166.9876 528.6349,157.6499 536.71,149.9866 541.0116,146.6985 545.37,143.8932 549.7687,141.5818 553.8751,139.8875 558.3053,138.56 562.4125,137.7986 566.5,137.5 570.9381,137.6965 575.3321,138.4168 579.6643,139.6468 583.5929,141.2224 587.7562,143.393 591.8057,146.032 595.7235,149.1254 600.6186,153.8327 604.9567,158.9225 609.0,164.625 612.9443,171.2642 616.5557,178.4576 619.9574,186.493 622.9726,195.0055 625.589,203.9306 627.7107,212.8112 629.5105,222.3572 630.827,231.7144 631.8091,241.8813 632.3993,252.4823 632.5764,263.1415 632.3585,273.8187 631.736,284.8534 630.6468,296.5721 629.144,308.1579 627.1414,320.2649 624.678,332.6522 621.8856,344.6879 618.601,357.0789 614.9252,369.3944 610.8634,381.6432 602.0129,405.2955 591.6944,429.456 580.1407,453.8869 553.0973,508.6997 546.0873,523.8518 540.3193,537.3337 534.616,552.1871 530.1797,566.073 526.1296,581.4272 523.1632,596.58 521.5691,607.9329 520.1871,622.8996 519.6771,632.0414 519.5011,642.9825 519.6985,654.0966 520.4542,669.3013 522.9696,694.8099 525.6568,712.8672 528.2999,727.3864 530.7023,738.6403 535.082,756.0614 539.1191,769.3018 542.3265,778.2956 546.2638,786.6531 547.4453,788.1173 548.3382,788.3571 548.75,787.25 548.6342,784.7084 547.0273,775.9824 543.8228,764.1826 539.1634,749.4431 533.9083,734.4064 527.9339,718.6016 512.2722,680.3263 496.5351,645.1961 475.2371,600.6517 460.1732,570.5668 421.4838,495.4236 412.9795,478.1966 408.1472,467.558 404.7853,459.0701 403.0328,453.1506 402.4975,448.5381 402.712,446.8893 403.2183,445.6492 403.9943,444.7955 405.25,444.25 408.7272,444.4948 413.3352,446.2417 418.6959,449.2683 426.2431,454.5743 433.7761,460.5804 440.6652,466.7616 448.221,474.22 455.2926,481.8102 461.9812,489.7192 468.3906,497.9062 473.4007,504.9605 477.6593,511.7167 482.8988,520.7582 487.1861,529.0225 491.1769,537.8163 494.4346,545.9004 499.9611,563.0432 501.8867,570.6674 504.2599,582.0999 506.8121,599.4234 508.3408,619.4273 508.5504,630.136 508.2518,639.4142 507.5712,647.8431 506.5904,653.2606 505.5302,656.4744 504.5972,657.8926 503.793,658.5078 502.8283,658.6024 501.953,658.257 499.6872,655.8179 497.7133,652.1798 494.4781,644.7626 488.4069,625.8938 482.0924,600.8111 477.138,576.7659 471.797,546.3317 467.9141,518.7497 464.4784,488.5427 462.184,461.9748 460.6229,435.6575 459.75,408.625 459.6427,383.6745 460.2662,358.3043 461.6225,333.2709 463.7273,308.5127 466.4802,285.241 469.8342,263.8241 473.8404,243.388 478.5177,223.7841 483.7232,205.5687 489.5047,188.5364 495.5167,173.6324 502.43,159.2346 509.7489,146.4314 517.582,134.9786 525.8645,125.0255 534.5317,116.7214 538.9731,113.2461 543.182,110.4205 547.4413,108.0015 552.0993,105.8389 556.7888,104.1515 561.4954,102.9382 566.2046,102.198 570.9021,101.9298 575.5734,102.1324 580.2042,102.8049 588.2533,105.1422 596.0506,108.9407 603.6514,114.257 610.8514,120.8926 617.583,128.73 623.9996,137.9894 629.8041,148.3037 634.94,159.5555 639.2162,171.2129 643.0454,184.4712 646.1114,198.2966 648.4102,212.5115 649.9859,227.378 650.7823,242.3956 650.814,257.4331 650.0593,273.0239 648.7203,287.5364 646.8403,301.7687 644.3998,316.0493 641.3327,330.6636 637.8177,344.7967 633.6817,359.1762 628.8874,373.8854 623.5399,388.5791 618.2559,401.8153 612.5667,415.0163 599.1408,443.3061 585.9939,468.4136 557.9747,519.1233 546.7804,541.4515 540.7733,554.7642 536.2812,566.0469 532.0422,578.5221 528.676,590.5195 525.2274,607.0646 523.1959,622.9693 522.1371,639.1986 522.2929,658.5972 523.7098,678.4051 526.7232,701.6934 529.7691,718.3828 533.0808,732.8613 534.7194,738.6999 530.9109,726.6391 524.147,708.6656 516.4422,689.0744 508.0704,669.1352 497.0732,644.0753 485.1014,618.1045 437.9314,519.4199 433.3378,508.6018 430.2043,500.1162 428.7938,494.9118 428.4286,490.5973 429.1258,488.2813 430.6541,487.3822 433.2792,487.7448 436.6196,489.4268 441.6142,493.1885 446.7901,497.7858 450.9545,502.0492 457.0213,509.0384 465.1458,519.6699 475.2363,535.1523 483.9062,551.4062 490.0364,564.9916 496.566,581.9871 503.756,605.9248 508.8444,627.293 513.2098,648.1361 523.3799,700.224 528.3934,722.7937 532.3533,738.0997 534.5973,745.6435 538.2343,756.5084 539.7461,760.0219 540.684,761.36 540.6476,758.9719 538.9321,751.8946 533.2387,733.8144 522.4312,704.9722 511.0254,677.3836 498.2324,648.1733 486.3501,622.4836 465.4989,579.3994 437.0604,522.1652 426.4413,499.9885 422.1249,490.0847 419.0926,482.0787 417.31,475.9876 416.7701,471.7454 416.9762,470.0556 417.5046,468.8068 418.3278,467.991 419.4188,467.5997 420.75,467.625 422.824,468.176 427.2656,470.2952 432.4376,473.7742 438.7883,479.076 445.4475,485.3932 451.7425,492.1069 458.1412,499.5125 463.6066,506.4158 473.9859,521.7087 478.6358,529.5039 482.978,537.625 487.2059,546.2788 490.8306,554.5865 495.3868,566.4979 498.8122,576.9286 503.3829,593.5052 506.8425,608.8029 511.8136,637.4474 518.886,685.8699 522.499,708.0007 526.6922,729.8059 531.3331,749.5242 537.2446,770.6042 543.375,787.875 545.7278,793.3461 548.1562,797.9297 550.0952,800.7241 551.3846,801.4129 552.0909,800.6895 552.3812,798.7064 551.5521,791.3757 549.1145,780.5878 545.1261,766.7595 539.7738,750.3294 533.5625,732.9253 526.9312,715.7046 518.6068,695.3534 508.888,672.7373 498.7727,650.2868 474.4666,599.651 454.9384,560.8255 417.0048,488.7684 404.0724,462.9271 398.9837,451.0717 396.1039,442.2096 395.5543,439.1896 395.5283,436.7925 396.0151,435.0362 397.2115,433.7101 399.3516,433.1406 402.625,433.625 407.1053,435.3127 412.3196,438.0159 417.6648,441.3605 422.8847,445.0957 437.1607,456.6481 450.0532,469.0335 460.933,480.7854 471.1417,493.8392 479.4395,506.1936 487.108,519.8296 492.9803,532.7321 497.5882,545.1384 501.5581,559.6469 504.3809,575.7285 505.4904,590.5923 505.4084,597.72 504.897,602.175 503.9059,605.8417 503.3433,606.7974 502.4688,607.5312 501.125,607.375 499.6306,605.9527 497.5033,602.3895 495.7214,598.2856 491.571,585.5726 487.25,568.125"/>
  </g>
</svg>
