<?xml version="1.0" encoding="utf-8" ?>
<svg xmlns="http://www.w3.org/2000/svg" xmlns:cc="http://creativecommons.org/ns" xmlns:dc="http://purl.org/dc/elements/1.1/" xmlns:ev="http://www.w3.org/2001/xml-events" xmlns:inkscape="http://www.inkscape.org/namespaces/inkscape" xmlns:rdf="http://www.w3.org/1999/02/22-rdf-syntax-ns" xmlns:sodipodi="http://sodipodi.sourceforge.net/DTD/sodipodi-0.dtd" xmlns:xlink="http://www.w3.org/1999/xlink" baseProfile="tiny" height="27.09333333cm" version="1.2" viewBox="0 0 1024.0 1024.0" width="27.09333333cm">
  <metadata>
    <rdf:RDF>
      <cc:Work>
        <dc:format>image/svg+xml</dc:format>
        <dc:source>vpype read './original_svgs/Strange Attractors #96.svg' linemerge linesimplify write './Strange Attractors #96.svg'
</dc:source>
        <dc:date>2024-08-05T01:35:25.303141</dc:date>
      </cc:Work>
    </rdf:RDF>
  </metadata>
  <defs/>
  <g fill="none" id="layer1" inkscape:groupmode="layer" inkscape:label="1" stroke="black" stroke-width="0.7mm" style="display:inline">
    <polyline points="402.125,700.75 431.375,657.875 453.75,619.0 469.5,585.125 479.875,556.125 485.5,531.5 487.25,510.5 485.625,492.75 481.375,477.5 474.75,464.625 466.5,453.875 457.0,445.25 446.625,438.5 436.125,434.0 426.0,431.5 416.625,431.25 408.375,432.875 401.75,436.375 396.625,441.5 393.0,447.875 391.0,455.0 390.375,462.625 390.875,470.375 392.25,478.0 394.25,485.25 396.875,492.125"/>
    <polyline points="399.75,498.375 403.0,504.0 409.5,513.25 416.125,520.25 422.125,525.125 425.0,526.875 427.75,528.375 432.75,530.375 439.125,531.625 444.25,531.5 447.0,531.0 449.375,530.25 452.75,528.375"/>
    <polyline points="453.25,527.875 454.625,526.25 455.125,525.125 455.25,523.5 454.125,520.875 451.375,518.25 445.25,514.375"/>
    <polyline points="444.125,513.875 429.125,506.0 424.25,503.0 419.25,499.375 414.375,494.875 411.25,491.125 408.625,486.5 407.5,483.875"/>
    <polyline points="406.5,480.875 405.75,477.625 405.375,473.875 405.75,465.0 406.625,459.625 408.25,453.625 410.75,446.75 414.25,438.875 418.875,430.0 425.0,419.875 432.875,408.625 442.75,396.0 454.875,382.25 469.625,367.625 487.0,352.375 507.0,337.25 529.25,323.375 553.25,312.0 577.75,304.375 601.5,302.0 623.0,305.5 641.25,314.875 655.375,329.625 665.25,348.5 671.125,369.625"/>
    <polyline points="673.875,391.75 674.125,413.5 672.625,434.0 670.0,452.625 666.75,469.25 663.125,483.625 659.375,495.875 655.75,506.375 652.125,515.0 645.125,528.0 641.875,532.75 638.625,536.375 635.5,539.25 632.5,541.375 629.5,543.0 626.625,544.0 621.125,545.0 618.375,545.0 613.125,544.375 610.625,543.875 603.5,541.625"/>
    <polyline points="601.375,540.75 597.125,539.125 583.875,533.0 572.875,527.5"/>
    <polyline points="572.75,527.25 572.5,527.125 572.625,526.875 573.75,526.625 586.25,527.0"/>
    <polyline points="587.5,527.0 594.25,527.0 600.5,526.625 608.75,525.25 613.625,523.5 615.125,522.75 617.875,520.625 620.0,517.625 621.0,513.375 621.0,510.75"/>
    <polyline points="620.375,507.5 619.0,503.5 616.75,498.875 613.5,493.375 608.75,486.75 602.25,478.875 593.625,469.5 582.375,458.5 567.875,445.75 549.5,431.375 527.125,415.5 500.375,398.875 469.875,382.75 436.75,368.875 403.125,359.375 371.625,356.25 344.75,360.5 324.5,372.125 311.375,389.875 304.5,411.5 302.75,434.875 304.375,458.375 308.125,480.375 312.875,500.5 317.875,518.25 322.875,533.75"/>
    <polyline points="327.5,546.875 335.875,567.25 339.625,575.0 343.125,581.25 346.625,586.25 349.875,590.125 353.125,593.125 356.5,595.125 359.75,596.5 363.125,597.125 366.625,597.125 370.125,596.625 377.125,594.375 380.75,592.625 387.875,588.5 394.75,583.75 401.25,578.625 413.125,568.375"/>
    <polyline points="415.75,565.875 430.75,551.25 440.0,541.0 442.5,537.625 444.125,534.75 445.125,530.75"/>
    <polyline points="445.0,530.0 444.5,528.0 442.75,525.625 439.0,523.0 433.5,520.375 421.125,516.375"/>
    <polyline points="419.25,515.875 388.5,507.625 379.75,505.0 370.625,501.625 361.25,497.125 355.125,493.0 352.25,490.625"/>
    <polyline points="349.5,487.75 347.0,484.375 344.875,480.5 343.125,475.875 342.125,470.25 341.875,463.5 342.75,455.25 345.125,445.0 349.625,432.5 356.75,417.0 367.625,397.875 383.25,374.375 405.25,346.0 435.25,312.5 474.5,275.0 523.625,236.5 580.75,202.75 641.125,181.75 697.125,181.0 741.125,203.75 769.5,246.0 783.125,299.375 786.5,355.5 783.875,408.0 778.75,454.125 773.125,492.875"/>
    <polyline points="767.75,524.625 762.625,550.25 757.5,570.5 751.75,586.0 744.875,597.0 736.5,604.0 726.375,607.25 714.625,606.875 701.375,603.375 687.0,597.125 672.125,588.75 657.25,578.75 642.875,568.0 629.375,557.0 616.875,546.0 605.625,535.5 586.875,516.875 558.0,486.25 548.75,477.125"/>
    <polyline points="546.375,475.125 542.625,472.625 539.625,471.375 537.0,471.125 534.75,471.5 531.625,473.0 518.25,482.25"/>
    <polyline points="517.375,482.75 510.0,486.125 506.375,487.125 500.5,487.875 495.625,487.5"/>
    <polyline points="494.75,487.375 489.5,485.75 486.75,484.125 484.875,482.625 482.125,479.375 480.625,476.0 480.125,474.0"/>
    <polyline points="479.875,473.0 479.875,468.25 481.25,462.5 483.375,457.625 485.375,454.125 488.0,450.5 491.25,446.75 497.25,441.125 501.875,437.625 509.75,433.125"/>
    <polyline points="512.625,431.875 515.5,430.875 521.25,429.5 524.0,429.125 529.5,429.375 534.5,430.5 536.75,431.625 540.625,434.375 542.25,436.125 544.875,440.125 545.75,442.375 546.5,444.75 547.375,449.625 547.25,457.25 546.375,462.125 545.0,466.75"/>
    <polyline points="544.125,469.0 541.25,475.0 540.125,476.75 535.5,483.0 533.125,485.5 529.625,488.75 525.0,492.125 519.5,495.125 516.5,496.375"/>
    <polyline points="515.5,496.75 509.0,498.625 503.875,499.375 498.25,499.5 494.25,499.125"/>
    <polyline points="493.5,499.0 488.75,498.0 483.75,496.375 479.625,494.375 476.375,492.375 473.25,489.75"/>
    <polyline points="472.5,489.0 468.875,484.625 466.75,480.125 465.5,474.25 465.5,470.75 466.375,464.75 467.75,460.125 471.375,452.25 475.125,446.25"/>
    <polyline points="477.375,443.125 482.875,436.625 489.625,429.875 497.75,423.25 507.125,417.125 517.25,412.125 522.625,410.25 528.0,408.75 533.25,407.875 538.375,407.625 543.375,407.875 548.125,408.875 552.375,410.625 556.375,412.875 559.75,415.625 562.75,419.0 565.25,422.75 567.125,426.875 568.625,431.25 570.125,440.5"/>
    <polyline points="570.25,445.125 569.625,454.125 567.875,462.625 566.75,466.5 564.0,473.625 561.0,479.75 556.125,487.375 551.375,493.125 545.375,498.625 542.75,500.625 537.75,503.75"/>
    <polyline points="536.75,504.375 528.625,508.0 520.375,510.5"/>
    <polyline points="520.0,510.625 515.875,511.75 515.25,512.375 519.125,513.375 523.75,514.0"/>
    <line x1="524.0" x2="535.25" y1="514.125" y2="515.375"/>
    <polyline points="535.875,515.5 543.875,516.0 552.0,516.0 557.125,515.625"/>
    <polyline points="558.125,515.5 563.5,514.5 568.75,512.5 571.5,510.5 573.5,507.5 574.125,505.0 574.0,501.625 573.5,499.625 571.625,494.75 567.875,488.75"/>
    <polyline points="565.125,485.125 557.375,476.5 545.875,466.125 538.5,460.25 530.0,454.0 520.125,447.375 509.0,440.75 496.75,434.125 483.5,428.0 469.5,422.625 455.25,418.375 441.125,415.625 427.875,414.875 415.75,416.0 405.375,419.375 397.0,424.625 390.75,431.5 386.5,439.75 384.125,448.75 383.375,458.125 383.875,467.5 385.5,476.625 387.75,485.125 390.625,493.0"/>
    <polyline points="393.75,500.125 397.125,506.5 400.625,512.125 404.0,516.875 410.5,524.375 416.5,529.625 419.375,531.5 421.875,532.875 426.625,534.875 430.625,535.875 432.5,536.0 437.0,535.75 439.25,535.125 442.625,533.25 443.625,532.125"/>
    <polyline points="444.0,531.5 444.5,529.875 444.0,527.625 442.875,526.0 441.0,524.5 436.5,521.875 427.25,518.5"/>
    <polyline points="425.75,518.0 381.625,506.375 369.125,502.25 362.75,499.625"/>
    <polyline points="359.5,498.0 353.0,494.375 350.0,492.125 347.0,489.5 344.25,486.5 341.75,482.875 339.625,478.625 338.125,473.5 337.25,467.375 337.5,459.875 339.0,450.625 342.25,439.125 348.0,424.875 357.125,407.125 370.625,385.125 390.0,358.125 417.0,325.625 453.375,287.875 500.25,247.25 557.125,208.375 620.25,179.5 682.0,169.5 733.625,184.25 769.25,222.375 788.125,276.0"/>
    <polyline points="794.375,335.125 792.875,392.0 788.0,442.5 782.25,485.25 776.75,520.375 771.5,548.75 766.375,571.25 760.5,588.375 753.5,600.75 744.75,608.75 734.0,612.25 721.125,611.875 706.75,607.875 691.0,600.75 674.75,591.125 658.5,580.0 642.875,567.875 628.375,555.5 615.25,543.375 603.5,531.875 584.375,511.75 576.75,503.25 560.5,484.0"/>
    <polyline points="556.75,479.5 551.0,472.75 546.875,468.5 543.875,466.125 540.625,465.25 538.75,465.875 537.0,467.125 526.375,478.0"/>
    <polyline points="525.375,478.875 521.5,482.0 517.625,484.5 513.75,486.5 508.25,488.5 502.0,489.625"/>
    <polyline points="501.125,489.625 496.875,489.625 492.875,489.0 489.75,488.0 485.25,485.75 482.0,483.0"/>
    <polyline points="481.5,482.25 479.375,479.25 478.25,476.5 477.5,473.125 477.625,468.0 478.625,463.375 480.75,458.125 482.75,454.375 487.125,448.25"/>
    <polyline points="488.875,446.25 495.25,439.875 500.375,435.875 506.0,432.25 509.0,430.625 515.375,428.0 521.75,426.25 525.0,425.875 531.125,425.875 534.0,426.375 536.75,427.125 541.625,429.75 543.75,431.5 547.125,435.625 548.375,438.0 550.25,443.25"/>
    <polyline points="550.75,446.0 551.125,451.625 550.75,457.25 548.875,465.25 546.125,472.25 542.75,478.375 537.75,484.875 531.625,490.75 528.0,493.375"/>
    <polyline points="526.875,494.125 520.375,497.625 514.625,499.75 509.375,501.0 503.875,501.625"/>
    <polyline points="503.125,501.625 500.125,501.75 494.125,501.25 488.875,500.125 484.125,498.5"/>
    <polyline points="483.25,498.25 478.375,496.0 475.875,494.5 473.375,492.75 470.125,489.875 466.5,485.25 465.25,483.0 464.25,480.375"/>
    <polyline points="463.875,479.0 463.0,474.25 463.0,470.625 463.5,466.375 464.75,461.75 468.125,453.5 471.625,447.375 473.875,444.125 479.375,437.125 482.625,433.5 486.25,429.75 494.625,422.5 504.5,415.625 509.875,412.5 515.5,409.75"/>
    <polyline points="521.25,407.375 527.0,405.5 532.875,404.25 538.625,403.625 544.125,403.75 549.375,404.625 554.25,406.25 558.625,408.625 562.625,411.5 565.875,415.125 568.625,419.25 570.875,423.75 572.5,428.5 573.5,433.5 574.125,438.5 574.375,443.625 574.125,448.625 573.625,453.5 572.75,458.125 570.5,466.875 567.625,474.5 562.75,483.875"/>
    <polyline points="561.0,486.5 557.625,491.125 554.375,494.875 546.875,501.5 539.5,506.125 531.0,509.75"/>
    <polyline points="530.375,510.0 524.375,512.0 523.125,512.75 523.125,513.125 523.75,513.625 526.375,514.25"/>
    <line x1="526.625" x2="538.25" y1="514.375" y2="515.75"/>
    <polyline points="538.875,515.75 544.125,516.125 553.125,516.125 561.5,515.125"/>
    <polyline points="562.625,515.0 566.875,513.75 569.875,512.25 572.5,510.0 573.75,508.125 574.625,505.625 574.75,504.0 574.25,500.375 572.5,495.75 569.125,489.875 563.25,482.375 554.375,473.25"/>
    <polyline points="548.375,467.875 541.375,462.0 533.125,455.75 523.625,449.25 512.75,442.5 500.75,435.75 487.5,429.375 473.625,423.625 459.125,418.875 444.875,415.625 431.125,414.25 418.5,414.875 407.375,417.625 398.375,422.375 391.375,429.0 386.5,437.0 383.625,445.875 382.5,455.375 382.75,464.875 384.125,474.25 386.25,483.0 389.0,491.25 392.125,498.625 395.5,505.25 398.875,511.0 402.375,516.125"/>
    <polyline points="405.75,520.375 412.125,527.0 417.875,531.5 423.0,534.25 427.5,535.875 431.25,536.5 433.0,536.5 435.875,536.25 438.25,535.625 441.625,533.75 443.0,532.125 443.625,530.375"/>
    <polyline points="443.625,529.875 442.875,527.625 442.0,526.625 440.125,525.0 437.625,523.5 433.25,521.5 427.875,519.625 419.375,517.25"/>
    <polyline points="417.5,516.75 404.375,513.75 365.625,505.875 354.625,503.25 343.0,500.0"/>
    <polyline points="339.0,498.75 331.0,495.625 327.0,493.75 323.0,491.625 319.25,489.0 315.625,486.0 312.375,482.375 309.5,477.875 307.375,472.25 306.125,465.375 306.125,456.5 308.0,445.25 312.5,430.75 320.625,411.875 334.0,387.375 354.875,355.75 385.875,315.5 430.5,266.25 491.375,210.375 568.625,155.375 655.75,115.875 738.5,108.625 801.125,142.125 836.25,208.25 848.375,289.125"/>
    <polyline points="847.25,368.875 841.0,439.125 828.75,544.875 823.625,582.375 817.5,611.375 808.75,632.25 795.875,644.75 778.0,649.0 755.375,644.75 729.25,633.125 701.625,615.75 674.375,594.5 649.25,571.5 627.5,548.5 609.25,526.625 594.875,506.625 584.0,489.0 576.0,473.625 570.75,460.5 567.625,449.5 566.25,440.625 566.125,433.625 567.0,428.375 568.5,424.625 570.375,422.375"/>
    <polyline points="572.5,421.5 574.625,421.625 576.5,423.0 578.25,425.125 579.5,428.0 580.5,431.5 581.125,435.375 581.375,439.625 581.25,444.125 580.0,453.125 579.0,457.5 577.75,461.875 574.75,469.875 569.5,480.125 565.75,485.625 562.0,490.375 555.0,497.5"/>
    <polyline points="553.25,498.875 547.25,503.125 543.375,505.375 535.125,509.0 528.875,511.125"/>
    <polyline points="528.375,511.25 525.0,512.5 524.5,512.875 524.5,513.375 526.125,514.125 530.875,515.0"/>
    <polyline points="531.25,515.0 539.0,515.875 547.375,516.25"/>
    <polyline points="548.25,516.25 556.0,516.0 564.625,514.625 569.75,512.5 571.625,511.125 573.125,509.5"/>
    <polyline points="573.75,508.5 574.375,507.375 574.875,503.0 574.625,501.125 573.125,496.625 570.0,490.875 567.625,487.5 560.75,479.375 556.125,474.625 543.75,463.75 526.625,451.125 516.125,444.375 504.375,437.5 491.5,431.0 477.625,425.0 463.25,419.875 448.75,416.25 434.75,414.25 421.625,414.25"/>
    <polyline points="410.125,416.375 400.375,420.625 392.875,426.875 387.375,434.5 384.0,443.25 382.375,452.625 382.25,462.25 383.25,471.625 385.25,480.75 387.875,489.125 391.0,496.75 394.25,503.625 401.125,514.875 407.875,523.25 411.0,526.375 416.875,531.125 419.625,532.875 424.5,535.125 428.625,536.375 432.25,536.625"/>
    <polyline points="433.75,536.625 436.5,536.25 440.5,534.625 442.25,533.0 443.125,531.25 443.125,529.0 442.125,527.375 441.25,526.375 438.375,524.25"/>
    <polyline points="437.5,523.75 430.625,520.875 419.25,517.625 408.875,515.25 391.0,511.75"/>
    <polyline points="388.125,511.25 336.75,502.5 313.375,497.875 298.375,493.875 288.125,490.125 283.25,487.875"/>
    <polyline points="278.375,485.0 273.875,481.5 269.875,477.0 266.5,471.25 264.375,463.875 263.75,454.0 265.625,440.625 271.25,422.5 282.5,397.5 302.125,363.125 334.625,316.125 385.75,253.75 462.25,176.5 567.375,94.375 691.875,33.125 808.25,27.375 886.0,90.5 917.875,198.875 920.375,316.375 912.5,420.875 904.625,506.5 899.5,574.875 894.875,628.625 886.375,668.5 869.0,693.375 839.5,700.75"/>
    <polyline points="798.75,689.625 751.125,662.5 703.5,624.5 661.25,581.75 627.625,539.125 603.75,499.5 589.0,464.25 582.25,433.75 582.0,408.25 586.75,387.625 595.25,371.875 605.875,361.25 617.375,355.75 628.625,355.25 638.625,359.25 646.75,367.375 652.75,378.625 656.625,392.0 658.375,406.5 658.375,421.375 657.125,435.875 654.875,449.625 652.0,462.25 648.5,473.5 644.875,483.5 641.0,492.25"/>
    <polyline points="637.125,499.625 629.5,511.25 625.75,515.5 622.125,519.125 618.625,521.875 615.25,524.25 612.0,526.0 605.875,528.25 600.25,529.375 595.125,529.75 584.375,528.75 573.75,526.375"/>
    <polyline points="572.625,526.125 564.25,523.75 564.375,523.5 566.125,523.5"/>
    <polyline points="566.625,523.5 572.125,523.75 582.75,523.5 589.375,522.75 592.25,522.125"/>
    <polyline points="593.625,521.75 597.75,520.25 601.5,517.875 602.5,516.75 604.125,514.0 604.625,512.25 604.875,510.25 604.75,507.875 604.25,505.0 603.125,501.75 598.875,493.5 595.25,488.25 590.5,482.25 584.25,475.125 576.125,467.0 565.875,457.75 553.25,447.25 537.875,435.625 519.5,423.375 498.25,410.75"/>
    <polyline points="474.5,398.625 448.875,388.25 422.875,380.625 397.875,377.25 375.75,378.75 357.75,385.375 344.375,396.625 335.875,411.5 331.625,428.5 330.75,446.375 332.375,464.125 335.375,480.875 339.375,496.125 343.875,509.75 348.375,521.75 356.875,540.625 360.875,547.75 364.5,553.75 371.0,562.625 376.75,568.125 381.75,571.125 384.125,572.0"/>
    <polyline points="386.25,572.5 390.375,572.5 394.125,571.75 399.0,569.5 402.0,567.625 404.625,565.625 409.625,560.5 412.75,555.875 413.625,552.875"/>
    <polyline points="413.75,552.25 413.375,550.5 411.625,548.75 408.5,547.75 404.125,547.625 398.0,548.5 392.5,550.0 385.875,552.5"/>
    <polyline points="383.5,553.5 375.5,557.625 369.5,561.25 363.0,565.75 356.125,571.25 348.75,578.0 341.0,586.125 337.125,590.625 329.625,600.75 322.75,611.875 317.375,623.625 315.5,629.5 314.375,635.0 314.125,640.125 314.875,644.5 316.625,648.125"/>
    <polyline points="319.625,650.5 323.625,651.75 328.75,651.625 334.875,650.125 341.75,647.125 349.25,643.0 357.25,637.75 365.5,631.5 373.875,624.625 390.0,609.75 405.0,594.625 448.125,548.25 458.875,538.0 464.875,532.875"/>
    <polyline points="467.625,530.625 477.125,524.125 486.625,519.375 491.5,517.625 497.125,516.125 502.0,515.125 507.25,514.5"/>
    <polyline points="508.25,514.375 513.75,514.0 529.0,514.25"/>
    <polyline points="529.875,514.375 545.75,514.75 552.875,514.25"/>
    <polyline points="554.0,514.125 559.25,513.125 562.375,512.0 565.25,510.5 567.625,508.25 568.75,506.25 569.375,503.75 568.75,498.75 566.875,494.25 563.5,488.625"/>
    <polyline points="561.0,485.375 554.0,477.625 549.375,473.125 537.25,463.0 521.125,451.625 511.375,445.625 500.625,439.75 489.0,434.125 476.625,429.125 464.0,425.0 451.25,422.0 439.0,420.5 427.5,420.75 417.375,422.625 408.75,426.375 401.875,431.625 396.875,438.125 393.5,445.625 391.75,453.75 391.375,462.125 392.125,470.375 393.625,478.5 395.875,486.0"/>
    <polyline points="398.625,493.0 401.625,499.25 404.75,504.875 408.0,509.875 411.25,514.125 417.5,521.0 423.375,525.75 431.125,529.875 437.5,531.625 441.0,531.875 444.0,531.625 448.5,530.375 450.75,529.0"/>
    <polyline points="451.25,528.5 452.5,526.875 452.875,525.75 452.625,523.625 451.375,521.5 449.0,519.375 441.625,515.0"/>
    <polyline points="440.375,514.5 422.375,505.625 415.125,501.25 411.5,498.5 406.25,493.5 404.625,491.375 403.0,489.125 400.375,483.875"/>
    <polyline points="399.375,480.75 398.5,477.25 398.125,473.25 398.125,468.75 398.625,463.5 399.75,457.625 401.625,450.875 404.625,443.125 408.75,434.25 414.25,424.0 421.75,412.5 431.25,399.375 443.25,384.75 458.125,368.625 476.125,351.625 497.375,334.25 521.625,317.625 548.125,303.25 575.875,292.875 603.25,288.375 628.375,290.75 649.625,300.375 666.0,316.625 677.375,337.75 684.0,362.0 686.875,387.25"/>
    <polyline points="686.875,411.875 685.0,434.875 682.0,455.625 678.375,473.875 674.5,489.5 670.5,502.75 666.5,513.875 662.75,523.0 659.0,530.375 655.375,536.375 651.875,541.0 648.375,544.625 645.0,547.25 641.625,549.125 634.75,551.0 628.0,551.0 624.75,550.5 618.125,548.75 608.75,545.125 602.875,542.375"/>
    <polyline points="600.125,541.0 573.5,527.625 562.625,523.25"/>
    <polyline points="562.25,523.125 560.75,522.5 568.375,522.625"/>
    <polyline points="569.25,522.625 578.625,522.375 587.5,521.0 592.75,519.25 596.375,516.875 598.25,514.75"/>
    <polyline points="599.0,513.375 599.625,511.75 599.875,509.875 599.5,505.25 598.75,502.375 597.375,499.0 595.25,495.0 592.375,490.5 588.375,485.125 583.25,479.0 568.125,463.875 557.625,454.875 544.875,444.75 529.625,433.875 511.625,422.375 491.25,411.0 468.75,400.375 445.125,391.5 421.375,385.625 398.875,383.5 379.125,385.75 363.125,392.5 351.375,403.25 343.875,417.0"/>
    <polyline points="340.125,432.625 339.375,448.875 340.75,465.125 343.625,480.375 347.375,494.375 351.625,507.0 356.0,518.0 360.25,527.375 364.375,535.5 368.25,542.25 371.875,547.75 375.25,552.375 378.375,556.0 384.0,561.125 388.875,564.125 391.0,564.875 395.0,565.625 396.75,565.625 400.0,565.0 404.125,563.25"/>
    <polyline points="405.25,562.5 408.125,560.25 410.375,557.875 412.0,554.875 412.25,553.625 412.125,551.875 411.25,550.5 408.875,549.25 406.125,548.875"/>
    <polyline points="405.0,548.875 398.25,549.625 393.0,551.0 384.5,554.25 377.0,558.125 368.375,563.5 358.75,570.75 351.875,577.0 344.625,584.25"/>
    <polyline points="341.0,588.5 333.875,597.625 327.375,607.875 324.5,613.25 322.0,618.75 320.0,624.125 318.625,629.375 318.0,634.25 318.25,638.625 319.375,642.25 321.5,645.125 324.625,646.875 328.75,647.5 333.75,646.875 339.75,645.125 346.375,642.0 353.5,637.875 361.0,632.75 368.625,626.875 376.375,620.375 391.5,606.5 405.5,592.5"/>
    <polyline points="411.875,585.875 442.5,553.25 453.625,542.375 459.875,536.75 465.375,532.25 472.5,527.125 480.5,522.5 488.5,519.0"/>
    <polyline points="489.875,518.5 497.25,516.25 502.125,515.25 512.625,514.125"/>
    <polyline points="513.25,514.125 520.875,514.125 527.75,514.625"/>
    <polyline points="528.375,514.625 541.25,515.5 547.5,515.5"/>
    <polyline points="548.5,515.5 555.5,515.125 558.75,514.625 565.125,512.875 567.125,511.875 569.75,509.875 571.125,508.0 572.0,505.75"/>
    <polyline points="572.25,504.375 572.125,501.125 571.625,499.125 569.625,494.375 563.25,484.875 555.75,476.625 544.625,466.625 529.25,454.875 519.875,448.625 509.25,442.25 497.5,436.0 484.75,430.0 471.5,424.875 457.75,420.75 444.25,418.0 431.375,417.0 419.625,418.0 409.5,420.875 401.125,425.625"/>
    <polyline points="394.625,431.875 390.25,439.5 387.625,448.0 386.5,456.875 386.75,465.875 388.125,474.625 390.25,483.0 392.875,490.75 395.875,497.75 399.125,504.125 405.75,514.375 409.125,518.5 415.375,525.0 418.375,527.375 423.75,530.875 428.625,533.0 434.625,534.25 439.25,534.125"/>
    <polyline points="440.625,533.875 442.875,533.25 445.375,531.875 447.25,529.75 447.75,528.0 447.5,526.375 446.625,524.75 445.625,523.625 442.0,521.0"/>
    <polyline points="441.125,520.5 432.875,516.75 407.25,507.375 398.125,503.25"/>
    <polyline points="395.75,502.0 388.75,497.625 384.125,493.75 380.0,489.0 378.125,486.125 376.5,482.875 375.125,479.125 374.125,474.75 373.75,469.625 374.0,463.625 375.125,456.75 377.25,448.5 380.75,438.625 386.125,427.125 393.75,413.5 404.125,397.375 418.125,378.625 436.375,357.125 459.5,333.125 488.25,307.75 522.25,282.75 560.625,261.0"/>
    <polyline points="600.875,246.0 639.875,241.5 673.875,249.5 700.0,269.75 717.5,299.75 726.875,335.25 730.125,372.25 729.25,407.875 726.0,440.25 721.75,468.625 717.0,492.625 712.375,512.5 707.75,528.875 703.25,542.125 698.75,552.5 694.25,560.375 689.375,566.25 684.25,570.375 678.75,572.75 672.75,573.75 666.5,573.5 660.0,572.25 653.125,570.125 646.125,567.125 639.125,563.75 632.125,559.875"/>
    <polyline points="625.25,555.875 612.0,547.375 575.625,522.5 564.625,515.75 555.625,511.125 550.625,509.0 544.25,506.875 540.5,506.0 535.625,505.375"/>
    <polyline points="534.25,505.25 524.75,505.25 512.0,506.75"/>
    <polyline points="511.5,506.875 502.625,507.125 498.625,506.625"/>
    <polyline points="498.125,506.625 492.625,505.5 482.625,502.25"/>
    <polyline points="481.875,501.875 476.375,499.25 469.5,494.875 464.375,490.125 461.375,485.875"/>
    <polyline points="460.75,484.625 458.625,478.875 458.125,475.375 458.0,471.375 458.5,466.75 459.75,461.5 463.5,452.375 467.5,445.375 470.125,441.5 476.375,433.5 480.25,429.25 489.375,420.5 500.25,412.125"/>
    <polyline points="506.375,408.125 512.875,404.5 519.5,401.375 526.375,398.875 533.375,397.0 540.25,395.875 546.875,395.625 553.25,396.375 559.125,398.125 564.5,400.625 569.125,404.125 573.125,408.375 576.375,413.25 578.875,418.625 580.75,424.25 581.875,430.25 582.5,436.25 582.625,442.25 582.25,448.125 580.5,459.25 577.625,469.125 576.0,473.5 572.5,481.25"/>
    <polyline points="570.625,484.625 565.125,492.875 559.875,498.875 556.5,502.0 549.5,507.125 543.875,510.0 538.5,512.25"/>
    <polyline points="537.875,512.5 534.0,514.0 533.5,514.75 534.25,515.25"/>
    <polyline points="534.5,515.375 540.25,516.375 547.0,516.75"/>
    <polyline points="547.75,516.875 554.875,516.875 564.25,515.875 569.75,514.25 572.75,512.625"/>
    <polyline points="573.625,512.0 575.375,510.375 576.625,508.25 577.25,505.5 577.25,503.875 577.125,502.0 575.75,497.5 572.75,491.75 567.375,484.5 563.625,480.125 553.25,469.875 546.375,464.0 538.25,457.625 528.75,450.75 517.875,443.625 505.625,436.5 492.125,429.5 477.625,423.0 462.5,417.625"/>
    <polyline points="447.25,413.5 432.375,411.375 418.625,411.375 406.5,413.75 396.375,418.375 388.5,425.0 383.0,433.25 379.625,442.625 378.125,452.625 378.25,462.75 379.5,472.75 381.75,482.125 384.5,490.875 387.75,498.875 394.75,512.125 398.25,517.5 405.0,525.875 411.25,531.625 414.125,533.75 419.25,536.625 423.625,538.25"/>
    <polyline points="425.625,538.75 429.125,539.0 433.25,538.375 436.125,537.125 438.125,535.5 438.875,534.375 439.25,532.125 438.875,531.0 437.75,529.375 435.875,527.875"/>
    <polyline points="435.0,527.375 432.25,526.0 427.375,524.25 415.875,521.75 400.0,520.0 388.5,519.75"/>
    <polyline points="385.25,519.75 374.875,520.375 367.0,521.375 358.25,523.125 353.5,524.25 343.125,527.5 331.125,532.5 317.25,540.0 309.5,545.125 300.875,551.375 291.375,559.125 281.0,568.625 269.625,580.25 257.25,594.625 243.75,612.0 229.5,632.875 215.0,657.625 201.125,686.125 189.625,717.25"/>
    <polyline points="182.875,749.0 183.625,777.875 194.25,798.875 215.875,807.625 247.125,801.375 284.25,780.625 322.875,749.0 358.875,711.375 389.75,672.25 414.5,634.75 433.125,600.75 446.25,570.875 454.5,545.125 458.875,523.25 459.875,505.0 458.25,489.75 454.75,477.125 449.625,467.125 443.625,459.25 437.0,453.625 430.375,450.0 424.125,448.25 418.375,448.125 413.5,449.625 409.625,452.5 406.875,456.375"/>
    <polyline points="405.125,461.125 404.375,466.25 404.5,471.875 405.375,477.5 406.875,483.0 408.875,488.375 411.25,493.375 413.875,498.0 416.75,502.25 419.75,506.0 425.75,512.375 428.75,514.875 434.5,518.875 437.25,520.375 444.75,523.375 449.25,524.375 455.0,524.875 458.375,524.75"/>
    <polyline points="459.875,524.625 465.875,523.25 469.25,521.75 470.5,520.875 471.875,519.75 472.875,518.125 473.0,516.125 472.625,515.375"/>
    <polyline points="472.5,515.0 470.375,512.5 468.125,510.75 455.5,502.375"/>
    <polyline points="454.375,501.625 449.0,497.25 444.75,492.625 441.0,486.625 438.875,480.75 438.375,478.375 438.0,473.25 438.375,467.0 440.0,459.625 443.25,450.875"/>
    <polyline points="445.625,446.0 448.5,440.5 456.625,428.5 461.75,421.75 467.875,414.625 475.0,407.25 483.125,399.625 492.25,392.125 502.375,384.625 513.5,377.75 525.125,371.625 537.25,366.75 549.625,363.25 561.625,361.75 573.125,362.25 583.625,364.875 592.875,369.75 600.625,376.5 606.75,384.75 611.25,394.375 614.375,404.75 616.125,415.5 616.75,426.375 616.5,436.875 615.375,446.875"/>
    <polyline points="613.875,456.25 611.875,464.875 609.625,472.625 604.625,485.875 599.5,496.125 594.5,503.875 592.125,507.0 587.75,511.875 581.875,516.75 578.5,518.875 574.25,520.875 568.125,522.5"/>
    <polyline points="567.375,522.625 563.75,523.125 568.875,523.375"/>
    <polyline points="569.625,523.5 578.125,523.5 588.25,522.625 593.875,521.25 599.125,518.875"/>
    <polyline points="600.25,518.0 602.375,515.75 603.75,512.625 604.0,508.5 603.625,505.875 602.75,502.75 599.0,495.0 595.875,490.125 591.5,484.375 585.875,477.75 578.5,470.125 569.25,461.375 557.625,451.375 543.5,440.375 526.375,428.5 506.5,416.0 483.875,403.875 459.25,392.875 433.625,384.125 408.375,379.125 385.25,378.625 365.625,383.125"/>
    <polyline points="350.625,392.5 340.25,405.75 334.375,421.75 332.25,439.25 332.875,456.875 335.375,473.875 339.0,489.625 343.25,503.75 347.75,516.25 352.125,527.0 356.375,536.125 360.375,543.875 367.75,555.625 374.0,563.25 376.875,566.0 382.0,569.5 384.25,570.5 388.625,571.375 392.5,571.125 396.0,570.25"/>
    <polyline points="397.625,569.625 403.375,566.125 405.75,564.125 410.25,559.375 412.375,555.875 413.125,553.0 412.875,551.125 411.875,549.75"/>
    <polyline points="411.375,549.375 408.5,548.375 404.25,548.125 400.0,548.625 393.0,550.375 384.375,553.625 376.625,557.5 367.75,563.0"/>
    <polyline points="364.625,565.25 354.25,573.625 347.0,580.625 339.5,588.875 332.125,598.5 325.25,609.25 322.25,614.875 319.75,620.5 317.75,626.25 316.375,631.625 315.75,636.75 316.125,641.25 317.5,645.0 319.875,647.875 323.25,649.5 327.75,650.0 333.25,649.125 339.625,646.875 346.625,643.375 354.25,638.75"/>
    <polyline points="362.125,633.125 370.25,626.875 378.25,620.0 393.75,605.375 408.0,590.875 440.875,555.5 452.625,543.625 462.25,534.875 467.75,530.5 474.875,525.625 479.0,523.25"/>
    <polyline points="480.875,522.25 487.75,519.125 495.0,516.75 502.0,515.25 511.125,514.25 507.0,514.5 499.625,515.625 494.5,516.875 488.125,518.875"/>
    <polyline points="512.0,514.25 522.25,514.125 530.0,514.625"/>
    <polyline points="530.75,514.625 540.375,515.125 547.75,515.125 552.875,514.75"/>
    <polyline points="554.0,514.625 558.25,514.0 563.5,512.5 567.25,510.375 569.5,507.875 570.625,504.375 570.625,501.25 569.5,497.25 567.0,492.125"/>
    <polyline points="565.125,489.25 559.5,482.125 555.625,478.0 545.5,468.625 538.875,463.25 531.25,457.5 522.5,451.5 512.625,445.375 501.625,439.25 489.625,433.375 477.0,428.125 463.875,423.75 450.625,420.625 438.0,419.0 426.125,419.125 415.625,421.125 406.75,424.875 399.75,430.375 394.5,437.25 391.125,445.0 389.5,453.375 389.125,462.0 389.875,470.625 391.625,478.875"/>
    <polyline points="393.875,486.75 396.75,493.875 399.75,500.25 403.0,506.0 406.25,511.0 412.875,519.125 419.0,524.875 424.5,528.75 427.125,530.125 433.875,532.5 437.5,533.0 442.125,532.75 445.625,531.75 448.0,530.375"/>
    <polyline points="448.625,529.875 449.625,528.875 450.5,526.625 450.25,525.0 449.375,523.375 447.375,521.25 444.25,519.125 439.0,516.5"/>
    <polyline points="437.75,515.875 424.125,510.125 416.875,506.75 408.875,502.5 404.875,499.875 398.875,495.0 395.125,490.875 393.5,488.375"/>
    <polyline points="391.875,485.625 389.5,479.0 388.875,475.0 388.5,470.375 388.75,465.125 389.625,459.0 391.5,451.875 394.375,443.75 398.5,434.125 404.375,423.125 412.25,410.25 422.625,395.625 436.125,379.0 452.875,360.5 473.625,340.625 498.375,320.25 526.875,300.875 558.125,284.375 590.625,273.375 622.0,270.0 649.75,275.75 672.25,290.375 688.375,312.5 698.25,339.625 703.125,369.125"/>
    <polyline points="704.0,398.375 702.375,426.0 699.125,450.875 695.25,472.625 691.0,491.25 686.75,506.875 682.5,519.75 678.5,530.25 674.5,538.75 670.5,545.375 666.625,550.5 662.625,554.375 658.5,557.0 654.375,558.625 650.125,559.5 645.75,559.625 636.875,558.25 627.875,555.25 619.0,551.25 602.375,542.25"/>
    <polyline points="598.5,540.0 579.0,528.875 567.125,522.875 555.375,518.375 548.0,516.625"/>
    <polyline points="547.25,516.625 544.625,516.25 541.5,516.5 542.625,517.0"/>
    <polyline points="543.0,517.125 550.0,517.875 559.375,517.875"/>
    <polyline points="560.375,517.75 566.75,517.125 571.25,516.125 574.625,514.875 577.625,513.0 580.125,510.25 581.125,507.75 581.375,504.375 580.5,500.125"/>
    <polyline points="579.5,497.625 576.0,491.25 573.375,487.5 565.75,478.5 560.375,473.0 546.125,460.5 536.75,453.375 526.0,445.75 513.625,438.0 499.625,430.125 484.375,422.625 468.25,416.0 451.5,410.75 435.125,407.375 419.5,406.375 405.5,407.875 393.75,412.125 384.5,418.625 377.75,427.25 373.5,437.25 371.5,448.125 371.25,459.25 372.5,470.25"/>
    <polyline points="374.75,480.75 377.625,490.375 381.0,499.125 384.625,507.0 388.25,513.75 391.875,519.625 398.875,528.875 402.125,532.375 408.125,537.5 410.75,539.25 413.25,540.625 417.75,542.25 421.5,543.0 426.0,542.75 430.0,541.125 431.375,540.0"/>
    <polyline points="431.875,539.375 432.5,538.25 432.625,536.0 431.375,533.875 429.375,532.375 423.375,530.125 417.5,529.0 414.0,528.75"/>
    <polyline points="412.125,528.625 408.125,528.375 401.25,528.5 393.25,529.25 387.125,530.25 380.5,531.625 373.0,533.75 369.0,535.0 360.125,538.5 350.25,543.375 344.75,546.5 332.75,554.375 326.0,559.375 311.25,572.25"/>
    <polyline points="303.125,580.375 294.5,590.0 285.5,601.0 276.25,613.625 266.75,628.125 257.75,644.125 249.5,661.75 242.75,680.125 238.625,698.375 238.0,715.25 241.75,729.125 250.625,738.125 264.5,740.75 282.875,736.5 304.375,725.5 327.375,709.0 350.375,688.5 371.875,666.0 391.25,643.0 408.125,620.75 422.375,600.0 434.125,581.25 443.625,564.625 451.125,550.125 457.125,537.625 461.625,526.875"/>
    <polyline points="465.0,517.875 469.25,503.875 471.0,494.375 471.25,485.875 470.375,482.25 470.125,481.75 469.625,481.75 469.75,483.125 470.875,485.625 472.125,487.5 475.875,491.5"/>
    <polyline points="477.0,492.375 479.375,494.25 484.625,497.375 493.125,500.75 498.75,502.25 505.625,503.5 510.75,504.0"/>
    <polyline points="512.125,504.125 520.375,504.25 526.75,503.625 529.625,503.0 532.25,502.0 534.375,500.75 536.0,499.125"/>
    <polyline points="536.375,498.375 537.0,496.0 536.875,494.125 534.875,489.125 531.25,484.375 525.5,478.75 517.0,472.375 509.875,467.875 497.125,461.625 487.625,458.125"/>
    <polyline points="482.75,456.75 473.0,455.0 464.0,454.875 459.875,455.5 456.25,456.5 453.0,457.875 450.125,459.75 447.875,461.875 446.125,464.375 444.875,467.0 444.0,469.875 443.625,472.875 444.25,478.875 446.0,484.75 448.875,490.25 452.375,495.0 454.25,497.125 460.375,502.5"/>
    <polyline points="462.5,503.875 466.75,506.375 470.75,508.25 478.625,510.875 484.0,512.0 490.5,512.875 503.75,513.375"/>
    <polyline points="505.0,513.5 516.125,513.5 528.5,514.0"/>
    <polyline points="529.375,514.0 544.375,514.25 550.5,513.875 553.75,513.375"/>
    <polyline points="554.75,513.25 561.0,511.375 563.75,509.75 565.25,508.375 566.5,506.625 567.375,504.375 567.5,503.0 567.25,499.75 566.75,497.875 564.75,493.375 561.25,487.875 555.5,480.875"/>
    <polyline points="551.625,476.875 541.5,467.75 527.625,457.25 509.625,446.0 499.25,440.375 487.875,435.125 476.0,430.375 463.875,426.5 451.75,423.875 440.0,422.5 429.125,422.875 419.375,424.75 411.25,428.375 404.625,433.375 399.75,439.625 396.625,446.75 394.875,454.5 394.375,462.375 395.0,470.375 396.5,478.125 398.625,485.375 401.25,492.0 404.125,498.125"/>
    <polyline points="407.125,503.625 413.5,512.625 419.75,519.375 425.625,524.0 430.875,527.125 435.625,529.125 437.75,529.625 441.625,530.25 444.875,530.375 450.125,529.375 452.75,528.25 454.625,526.75"/>
    <polyline points="455.125,526.25 456.0,524.75 456.125,522.625 454.75,520.0 451.125,516.875 444.5,513.0"/>
    <polyline points="443.25,512.375 434.0,507.375 426.25,502.75 423.0,500.375 418.25,496.25 416.625,494.625 413.75,490.875 411.125,486.375 409.125,480.875 408.5,477.625"/>
    <polyline points="408.0,474.0 408.375,465.375 409.25,460.25 410.875,454.375 413.125,447.75 416.375,440.25 420.75,431.75 426.5,422.125 433.875,411.5 443.125,399.625 454.5,386.625 468.125,372.625 484.375,358.125 503.0,343.75 523.875,330.25 546.5,318.75 569.75,310.625 592.75,307.125 614.0,308.875 632.375,316.25 647.0,328.75 657.75,345.5 664.75,365.0 668.5,385.875 669.5,406.875"/>
    <polyline points="668.75,426.875 666.625,445.5 663.625,462.125 660.25,476.75 656.75,489.5 653.0,500.25 649.5,509.375 646.0,516.875 642.5,523.125 639.25,528.125 636.125,532.25 633.125,535.375 630.125,537.875 624.5,541.125 619.125,542.625 614.125,542.875 609.375,542.375 604.875,541.375 598.875,539.375"/>
    <polyline points="597.0,538.625 588.875,535.25 580.125,531.125 576.375,529.125 575.75,528.625 575.75,528.25 578.125,527.875 595.0,528.625"/>
    <polyline points="596.375,528.625 604.375,528.5 615.125,527.375 622.25,525.125 623.875,524.25 626.875,521.875 629.0,518.5 629.75,513.625 629.375,510.375 628.25,506.5 626.25,501.75"/>
    <polyline points="623.125,496.0 618.5,489.125 611.875,480.875 603.0,470.875 591.125,459.0 575.5,445.0 555.625,428.875 530.75,411.0 500.75,392.0 466.125,373.5 428.5,357.75 390.375,347.375 355.25,344.875 326.5,351.625 305.75,366.875 293.5,388.75 288.25,414.625 288.125,441.625 291.125,467.75 295.875,492.0 301.125,513.625 306.375,532.5 311.375,548.75 320.125,574.125 324.125,583.75"/>
    <polyline points="327.875,591.625 331.625,598.0 335.375,603.0 339.25,606.625 343.25,609.125 347.5,610.625 351.875,611.125 356.5,610.875 361.375,609.75 366.25,607.875 376.25,602.75 381.375,599.5 391.25,592.375 409.375,577.0 433.875,554.125"/>
    <polyline points="436.625,551.5 463.375,527.5 466.25,524.5 468.25,521.375"/>
    <polyline points="468.5,520.875 468.875,519.75 468.875,518.25 468.5,516.875 467.25,515.0 465.375,513.125 458.75,508.625"/>
    <polyline points="457.875,508.0 446.125,499.875 440.375,494.25 437.125,489.875 435.125,486.25 433.625,482.125 432.625,477.25"/>
    <polyline points="432.375,474.375 432.625,467.875 434.125,460.125 437.5,450.75 439.875,445.375 447.0,433.0 451.75,426.125 457.5,418.625 464.375,410.625 472.375,402.125 481.625,393.5 492.125,384.75 503.75,376.25 516.5,368.375 530.0,361.5 544.0,356.25 558.0,352.75 571.625,351.75 584.375,353.25 595.75,357.5 605.375,364.125 613.25,373.0"/>
    <polyline points="619.125,383.5 623.125,395.25 625.5,407.625 626.5,420.0 626.375,432.25 625.25,443.75 623.625,454.625 621.375,464.5 618.875,473.375 616.25,481.25 613.5,488.25 610.75,494.25 605.375,504.0 600.25,511.25 597.875,514.0 593.375,518.25 591.375,519.875 587.625,522.25 581.375,524.75"/>
    <polyline points="580.125,525.125 575.75,525.875 570.375,525.75 572.375,525.75"/>
    <polyline points="572.875,525.75 590.25,526.0 596.0,525.625 600.625,524.875"/>
    <polyline points="602.25,524.625 605.375,523.875 608.5,522.625 611.375,521.0 613.75,518.75 614.75,517.375 616.0,513.5 616.125,511.125 615.75,508.25 614.875,504.875 610.625,496.0 606.875,490.375 601.75,483.625 594.875,475.625 585.875,466.25 574.25,455.375 559.5,443.0 541.25,429.125 519.125,414.25 493.375,398.875"/>
    <polyline points="464.25,384.375 433.25,372.375 402.25,364.75 373.5,362.875 349.375,367.75 331.125,379.125 319.25,395.75 313.0,415.875 311.375,437.5 312.875,459.125 316.25,479.5 320.75,498.25 325.625,514.75 330.375,529.125 335.0,541.5 339.375,551.875 343.375,560.5 347.125,567.75 350.625,573.625 353.875,578.375 360.125,584.875 363.125,586.875 366.0,588.25 369.0,589.125 371.875,589.375"/>
    <polyline points="374.75,589.25 377.75,588.75 380.625,587.875 386.375,585.375 391.875,582.125 397.25,578.375 402.375,574.375 411.5,566.5 420.625,557.5 428.0,548.75"/>
    <polyline points="428.875,547.5 430.5,545.25 432.375,541.25 432.75,539.625 432.5,536.625 431.5,534.75 428.875,532.75 426.125,531.375 422.5,530.375"/>
    <polyline points="421.25,530.0 411.125,528.875 402.375,528.875 394.625,529.5 385.5,531.0 375.0,533.625 366.875,536.375 357.875,540.25 347.625,545.625"/>
    <polyline points="342.0,549.0 329.5,557.625 322.625,563.125 315.375,569.625 307.5,577.25 299.25,586.0 290.5,596.25 281.375,608.0 272.125,621.5 263.125,636.625 254.625,653.25 247.375,671.0 242.125,689.0 239.75,706.25 241.5,721.25 247.875,732.375 259.25,738.0 275.25,737.0 295.0,729.25 317.0,715.5 339.625,697.25 361.625,676.0 381.75,653.625 399.625,631.375 415.0,610.125"/>
    <polyline points="427.875,590.75 438.5,573.375 447.0,558.0 453.75,544.75 459.125,533.25 463.25,523.625 466.25,515.375 470.125,502.75 471.25,498.0 472.25,490.875 472.375,486.5 472.0,483.25 471.625,482.75 472.0,484.125 473.375,486.375"/>
    <polyline points="473.875,487.25 477.25,490.75 480.5,493.375 488.0,497.625 494.75,500.125 504.125,502.25"/>
    <polyline points="505.375,502.375 510.375,503.0 516.375,503.25 522.875,502.875 527.625,501.875 531.375,500.125"/>
    <polyline points="532.0,499.625 533.5,498.0 534.25,495.875 534.25,494.125 533.75,492.0 532.625,489.625 529.75,485.375 524.75,480.375 517.625,474.75 511.5,470.75 504.375,466.875"/>
    <polyline points="500.5,465.0 492.125,461.625 487.75,460.25 483.375,459.0 474.75,457.625 466.625,457.5 463.0,458.0 459.625,458.875 454.125,461.75 452.125,463.625 450.375,465.875 449.125,468.25 448.375,470.75 448.0,473.375 448.0,476.125 448.875,481.5 449.875,484.125 452.375,489.125 455.5,493.5"/>
    <polyline points="457.25,495.5 461.0,499.125 465.0,502.125 469.0,504.5 474.875,507.25 482.375,509.625 487.625,510.75 492.5,511.5 501.25,512.25"/>
    <line x1="502.5" x2="529.875" y1="512.25" y2="513.125"/>
    <polyline points="530.875,513.125 539.0,513.25 547.375,512.75 553.75,511.625 556.75,510.625"/>
    <polyline points="557.75,510.125 560.375,508.5 562.5,506.25 563.625,503.125 563.75,500.25 562.875,496.75 562.0,494.75 560.875,492.5 557.375,487.125 551.75,480.5 543.625,472.75 532.375,463.625 525.5,458.625 517.625,453.625"/>
    <polyline points="509.0,448.375 499.375,443.375 489.125,438.5 478.375,434.25 467.25,430.75 456.125,428.25 445.375,426.875 435.375,426.875 426.25,428.375 418.375,431.25 412.0,435.5 407.125,440.75 403.625,447.0 401.5,453.875 400.625,461.0 400.875,468.25 401.875,475.25 403.625,482.125 405.875,488.375 411.25,499.625 417.25,508.5 423.375,515.25 426.375,517.875"/>
    <polyline points="429.125,520.125 434.5,523.5 439.375,525.625 443.625,526.875 449.25,527.5 453.625,527.25 457.125,526.375 460.375,524.75 461.5,523.875 462.875,522.0"/>
    <polyline points="463.0,521.5 463.125,520.125 462.75,518.625 460.5,515.75 454.75,511.5 449.75,508.5"/>
    <polyline points="448.625,507.875 443.875,504.875 436.125,499.125 430.875,493.875 427.375,488.75 425.375,484.5 423.5,476.5 423.375,469.75 423.875,465.75"/>
    <polyline points="424.625,461.375 427.875,451.125 430.375,445.125 433.75,438.5 438.0,431.25 443.375,423.125 450.0,414.375 457.875,404.75 467.375,394.75 478.375,384.125 491.125,373.5 505.375,363.0 521.0,353.375 537.75,345.125 554.875,339.125 572.0,335.75 588.25,335.875 603.0,339.5 615.5,346.5 625.625,356.75 633.25,369.375 638.375,383.75 641.25,399.0 642.375,414.25 642.125,429.25"/>
    <polyline points="640.75,443.25 638.625,456.125 636.0,467.875 633.125,478.125 630.0,487.25 626.875,495.0 623.875,501.75 620.875,507.5 615.125,516.25 612.375,519.625 609.875,522.375 605.125,526.375 600.875,528.875 595.25,530.875 590.625,531.5 585.75,531.375"/>
    <polyline points="584.75,531.25 580.25,530.25 578.375,529.375 579.0,529.0 582.25,529.0"/>
    <polyline points="582.875,529.125 604.875,530.25 617.875,529.875"/>
    <polyline points="619.875,529.625 627.875,528.125 631.625,526.625 635.125,524.5 637.625,521.25 638.5,519.0 639.0,516.375 638.75,513.125 637.875,509.125 636.125,504.25 633.0,498.375 628.25,491.125 621.5,482.25 612.125,471.5 599.25,458.375 582.25,442.875 560.125,424.75 532.0,404.375 497.875,382.625 458.125,361.625"/>
    <polyline points="415.0,344.25 372.125,333.875 333.875,333.5 304.125,344.25 284.375,364.875 274.25,392.125 271.5,422.625 273.5,453.25 278.125,482.0 283.625,508.125 294.5,550.75 299.25,567.625 303.625,581.875 307.75,593.75 311.75,603.625 315.875,611.5 320.25,617.625 324.875,622.0 330.0,624.875 335.625,626.25 341.5,626.375 347.875,625.125 354.5,622.875 361.25,619.625 368.125,615.5"/>
    <polyline points="375.0,610.875 381.875,605.875 388.5,600.5 401.125,589.5 439.625,552.5 452.625,540.625 465.0,531.0 472.75,526.0"/>
    <polyline points="474.375,525.0 482.625,520.625 496.375,514.75"/>
    <polyline points="496.75,514.5 499.25,513.0 499.625,512.25 499.25,511.375 496.25,509.625 492.25,508.125"/>
    <polyline points="491.75,508.0 483.375,504.75 476.0,501.25"/>
    <polyline points="475.25,500.875 467.375,495.875 464.75,493.625 461.375,490.0 459.0,486.625 457.75,484.0 456.625,481.0 455.75,477.5"/>
    <polyline points="455.5,475.625 455.625,469.125 456.5,464.0 458.375,458.125 461.25,451.375 465.625,443.875 471.625,435.5 479.5,426.375 484.25,421.75 489.5,417.0 501.625,407.875 508.375,403.625 515.375,399.875 522.75,396.625 530.25,394.0 537.875,392.25 545.25,391.5"/>
    <polyline points="552.375,391.625 559.0,392.875 565.125,395.25 570.5,398.5 575.125,402.75 579.0,407.75 582.125,413.375 584.375,419.5 585.875,426.0 586.75,432.5 587.0,439.0 586.0,451.75 585.0,457.625 582.125,468.375 578.5,477.5 574.75,485.25 570.875,491.375 565.25,498.5 563.375,500.375"/>
    <polyline points="561.75,502.0 557.0,506.0 551.625,509.375 548.25,511.125 539.125,514.75"/>
    <polyline points="538.875,514.875 538.125,515.375 538.25,515.875 539.625,516.375 542.875,516.875"/>
    <polyline points="543.375,516.875 549.125,517.375 558.0,517.375 564.25,516.75"/>
    <polyline points="565.375,516.5 571.0,515.125 575.125,513.0 576.875,511.375 578.25,509.5 578.875,508.25 579.375,505.375 579.0,501.5 577.25,496.625 575.75,493.75 571.0,486.625 563.125,477.625"/>
    <polyline points="557.75,472.375 543.5,460.0 534.375,453.125 523.75,445.75 511.625,438.25 498.0,430.75 483.25,423.75 467.75,417.5 451.75,412.625 435.875,409.625 421.0,408.75 407.75,410.25 396.5,414.375 387.5,420.625 381.0,428.875 376.875,438.375 374.875,448.75 374.625,459.5 375.75,470.0 377.75,480.0 380.625,489.375 383.75,497.875 387.25,505.375 390.875,512.0 394.5,517.75"/>
    <polyline points="398.0,522.75 401.375,526.875 404.625,530.25 410.625,535.375 415.875,538.5 420.375,540.25 425.875,541.0 430.0,540.5 432.0,539.625 434.25,538.125 435.25,537.0 435.75,535.875 435.875,534.625"/>
    <polyline points="435.75,534.125 435.125,532.5 433.625,530.875 431.375,529.5 427.25,527.875 423.25,526.75 418.5,525.875 406.5,524.75"/>
    <polyline points="404.125,524.75 396.375,524.75 384.25,525.875 380.75,526.375 369.375,528.875 355.75,533.25 350.75,535.375 339.5,541.0 326.5,549.0 319.25,554.125 311.375,560.375 303.0,567.875 293.875,576.75 284.0,587.375 273.5,599.875"/>
    <polyline points="262.625,614.625 251.25,631.75 240.25,651.25 230.0,673.0 221.75,696.0 216.875,719.0 216.875,740.0 223.25,756.375 236.5,765.375 256.625,765.25 281.875,755.375 310.125,737.125 338.625,712.625 365.375,684.75 389.125,656.0 409.125,628.125 425.375,602.5 438.25,579.375 447.875,559.25 454.875,541.875 459.625,527.125 462.625,514.625 464.125,504.125 464.375,495.5 463.875,488.375 462.625,482.625"/>
    <polyline points="460.875,478.0 458.75,474.5 456.625,472.0 454.375,470.375 452.25,469.5 450.375,469.25 448.625,469.625 447.25,470.5 446.25,471.75 445.5,473.375 445.25,475.375 445.5,479.75 447.0,484.375 449.5,489.0 452.625,493.25 456.25,497.125 460.25,500.375 466.375,504.25"/>
    <polyline points="468.375,505.375 474.375,507.875 483.75,510.5 490.5,511.625 508.375,512.75"/>
    <line x1="509.5" x2="535.125" y1="512.75" y2="513.375"/>
    <polyline points="536.125,513.375 545.375,513.125 552.875,512.125 557.875,510.5 561.375,508.25"/>
    <polyline points="562.125,507.5 563.875,504.75 564.375,502.375 564.125,499.375 563.625,497.5 561.875,493.25 558.5,488.0 553.25,481.625 545.5,473.875 540.5,469.625 528.0,460.0 520.375,454.875 502.375,444.375 492.125,439.5 481.25,434.875 470.125,431.125"/>
    <polyline points="458.75,428.25 447.75,426.5 437.375,426.125 427.875,427.25 419.5,429.75 412.625,433.75 407.25,438.875 403.375,445.0 401.0,451.75 399.875,459.0 399.875,466.375 400.75,473.625 402.25,480.5 404.5,487.125 407.0,493.125 412.75,503.625 418.875,511.75 424.875,517.75 427.875,520.125 433.25,523.625 438.125,525.875"/>
    <polyline points="440.375,526.625 446.375,527.875 449.75,527.875 455.0,527.125 458.625,525.625 460.5,524.25 461.875,522.375 462.125,521.375 462.0,519.875"/>
    <polyline points="461.875,519.5 460.25,517.0 455.875,513.375 442.25,505.0"/>
    <polyline points="440.875,504.125 436.875,501.25 431.5,496.625 426.375,490.25 423.25,484.0 421.875,478.75 421.5,475.625 421.5,468.5 422.0,464.375 423.0,459.75 426.75,448.875 429.625,442.5 433.375,435.375"/>
    <polyline points="438.25,427.5 444.125,418.875 451.5,409.5 460.375,399.25 470.75,388.625 483.0,377.5 496.875,366.375 512.375,355.75 529.25,346.25 547.0,338.625 565.0,333.5 582.375,331.75 598.625,333.75 612.75,339.375 624.5,348.75 633.5,360.875 639.875,375.25 643.75,390.875 645.625,406.875 645.75,422.625 644.75,437.75 642.75,451.625 640.25,464.125 637.375,475.375 631.125,493.75"/>
    <polyline points="627.875,501.0 624.75,507.125 618.875,516.75 616.125,520.375 613.5,523.25 608.5,527.625 604.125,530.25 600.125,531.875 596.5,532.625 593.375,532.875 589.25,532.75 585.0,532.0 582.625,531.25"/>
    <polyline points="582.0,531.125 579.875,530.25 579.375,529.75 579.75,529.5 587.0,529.75"/>
    <polyline points="588.0,529.75 602.375,530.75 614.875,531.0 621.0,530.75 629.375,529.625"/>
    <polyline points="631.375,529.125 635.5,527.75 637.375,526.75 639.125,525.625 641.875,522.375 642.875,520.25 643.375,517.625 643.375,514.375 642.625,510.375 640.75,505.5 637.75,499.375 633.0,492.0 626.125,482.75 616.375,471.625 603.0,458.0 585.125,441.625 561.75,422.375 532.0,400.625 495.375,377.5 453.0,355.25 407.125,337.125 361.875,327.125 322.5,328.375 292.625,341.75"/>
    <polyline points="274.0,365.25 265.25,395.375 263.875,428.0 266.875,460.25 272.0,490.125 277.75,516.875 283.375,540.25 293.25,577.625 297.5,592.0 301.625,604.125 305.875,613.875 310.375,621.75 315.25,627.5 320.75,631.375 326.75,633.625 333.375,634.125 340.5,633.0 347.875,630.5 355.625,626.875 363.625,622.25 371.5,616.875 379.25,611.0 394.125,598.25 401.125,591.75"/>
    <polyline points="407.625,585.5 439.25,554.0 447.125,546.375 457.125,537.5 470.25,527.75 476.5,524.0 486.75,519.375"/>
    <polyline points="511.625,514.125 518.75,514.0 525.0,514.375"/>
    <line x1="525.5" x2="542.25" y1="514.5" y2="515.625"/>
    <polyline points="543.125,515.625 550.5,515.625 557.75,515.0 565.25,513.125 568.125,511.5"/>
    <polyline points="569.0,510.875 571.375,508.5 572.375,506.25 572.75,503.375 571.5,497.625 570.375,495.125 567.0,489.375 564.375,485.875 561.25,482.125 552.375,473.125 539.75,462.375 531.75,456.375 522.625,450.125 512.125,443.625 500.625,437.25 488.0,431.125 474.625,425.625"/>
    <polyline points="460.875,421.125 447.125,418.0 434.0,416.625 421.75,417.125 411.125,419.5 402.25,423.875 395.25,430.0 390.375,437.375 387.375,445.75 386.0,454.75 386.0,463.875 387.125,472.75 389.0,481.25 391.625,489.25 394.625,496.5 397.75,503.0 401.125,508.75 404.5,513.75 411.125,521.625 414.25,524.75 420.0,529.25 425.25,532.25 427.625,533.125"/>
  </g>
</svg>
