<?xml version="1.0" encoding="utf-8" ?>
<svg xmlns="http://www.w3.org/2000/svg" xmlns:cc="http://creativecommons.org/ns" xmlns:dc="http://purl.org/dc/elements/1.1/" xmlns:ev="http://www.w3.org/2001/xml-events" xmlns:inkscape="http://www.inkscape.org/namespaces/inkscape" xmlns:rdf="http://www.w3.org/1999/02/22-rdf-syntax-ns" xmlns:sodipodi="http://sodipodi.sourceforge.net/DTD/sodipodi-0.dtd" xmlns:xlink="http://www.w3.org/1999/xlink" baseProfile="tiny" height="27.09333333cm" version="1.2" viewBox="0 0 1024.0 1024.0" width="27.09333333cm">
  <metadata>
    <rdf:RDF>
      <cc:Work>
        <dc:format>image/svg+xml</dc:format>
        <dc:source>vpype read './original_svgs/Strange Attractors #308.svg' linemerge linesimplify write './Strange Attractors #308.svg'
</dc:source>
        <dc:date>2024-08-05T01:35:47.529221</dc:date>
      </cc:Work>
    </rdf:RDF>
  </metadata>
  <defs/>
  <g fill="none" id="layer1" inkscape:groupmode="layer" inkscape:label="1" stroke="black" stroke-width="0.7mm" style="display:inline">
    <polyline points="466.625,592.125 468.5,581.125 472.125,563.25 477.375,544.375 480.5,535.625 484.5,526.625 487.875,520.875 489.75,518.375 492.25,515.75 496.125,513.5"/>
    <polyline points="496.625,513.375 498.375,513.125 500.0,513.375 501.375,514.125 501.875,515.125 501.75,516.25 500.875,517.75 497.875,520.5"/>
    <polyline points="497.5,520.75 490.125,525.75 484.75,528.625"/>
    <polyline points="484.0,529.0 475.75,532.875 465.625,536.25 457.25,538.0 451.25,538.75"/>
    <polyline points="449.0,538.875 444.125,539.0 432.75,538.125 425.875,537.0 418.0,535.125 413.625,533.875 404.0,530.375 398.625,528.125 386.5,522.25 379.875,518.5 364.75,509.125 347.625,496.75 338.125,489.125 328.25,480.625 318.0,471.25 307.5,460.75"/>
    <polyline points="297.125,449.625 287.0,437.625 277.5,425.375 269.25,413.25 262.75,401.625 258.25,391.125 256.25,382.25 256.875,375.625 260.375,371.625 266.5,370.375 274.75,371.875 284.875,375.625 296.125,381.5 308.0,388.75 320.125,397.125 332.125,405.875 364.75,431.875 391.25,453.5 405.625,464.5 418.0,473.125"/>
    <polyline points="423.375,476.625 433.375,482.25 442.0,486.375 449.75,489.25 460.0,492.125 466.125,493.125 471.75,493.625 479.5,493.75 486.5,493.25 490.875,492.625 499.0,490.75"/>
    <polyline points="500.875,490.25 508.375,487.75 515.375,484.75 520.5,482.125 532.375,474.75 544.75,465.5"/>
    <polyline points="546.625,464.0 584.25,431.625 595.0,422.875 614.125,408.5 627.375,399.625"/>
    <polyline points="635.5,394.5 655.5,382.375 683.125,367.375 700.875,358.375 721.875,348.375 746.625,337.5 775.25,325.875 807.125,314.5 841.0,304.875 873.25,299.625 898.875,302.375 911.375,316.5 906.125,343.75 882.875,382.75 846.625,429.0 804.875,477.0 764.75,522.25 730.5,562.25 704.25,596.25 685.75,624.625 674.5,647.625 669.0,666.0 668.125,680.25 670.625,690.5"/>
    <polyline points="675.25,697.125 681.0,700.125 686.75,699.5 691.875,695.625 695.75,688.5 698.0,678.75 698.375,666.875 697.125,653.5 694.5,639.25 690.5,624.625 685.625,610.375 680.25,596.625 674.5,583.625 668.625,571.75 662.75,561.0 657.125,551.5 646.625,535.5 637.25,523.375 633.0,518.5 625.375,510.875 618.625,505.5 615.5,503.375"/>
    <polyline points="612.625,501.625 604.875,497.875 598.125,495.75 592.5,494.5 578.625,492.5 573.5,491.25"/>
    <polyline points="572.875,490.875 571.25,490.125 570.0,489.125 569.125,487.125 569.125,485.75 569.625,484.25 570.5,482.625 572.875,479.625"/>
    <polyline points="573.5,479.0 579.25,473.875 585.0,469.75 592.25,465.125 599.125,461.25 607.125,457.25"/>
    <polyline points="609.25,456.25 625.625,449.875 630.5,448.5 637.625,447.125 643.875,446.75 647.25,447.25 649.875,448.5 650.75,449.375 651.75,451.75 651.75,453.25 650.75,456.75"/>
    <polyline points="649.875,458.625 647.125,463.0 645.25,465.25 638.5,472.25 630.125,479.25 621.0,485.625 611.625,491.0 605.625,494.0 594.25,498.5 584.25,501.375"/>
    <polyline points="582.0,501.875 575.75,503.0 571.875,503.375 562.625,503.5 559.0,503.125 554.125,502.125 550.25,500.375"/>
    <polyline points="549.75,500.0 547.875,498.0 547.5,495.5 548.0,493.625 548.75,492.25 551.25,488.875"/>
    <polyline points="551.75,488.25 554.25,485.625 560.25,480.375 565.875,476.0 579.875,466.375"/>
    <polyline points="581.75,465.25 597.875,455.75 609.5,449.75 627.0,442.0 638.875,437.75 647.0,435.375 655.125,433.5 662.75,432.625"/>
    <polyline points="666.25,432.5 672.25,433.5 674.5,434.625 676.25,436.0 677.5,438.0 678.0,440.375 677.875,443.125 677.0,446.375 675.5,449.875 673.25,453.75 667.0,462.25 663.125,466.625 654.25,475.5 644.375,484.0 639.375,487.875 629.125,495.25 619.125,501.375 614.25,504.125 605.125,508.625"/>
    <polyline points="600.75,510.5 596.625,512.25 585.25,516.0 575.375,518.25 569.5,519.125 559.375,519.875 552.875,519.875 544.125,519.25 538.375,518.5"/>
    <line x1="537.125" x2="518.625" y1="518.375" y2="515.125"/>
    <polyline points="518.125,515.0 515.125,514.625 511.625,514.625"/>
    <polyline points="511.375,514.75 509.375,515.125 507.25,516.125"/>
    <line x1="507.0" x2="501.25" y1="516.25" y2="519.75"/>
    <polyline points="500.875,519.875 495.625,523.25 489.625,526.625"/>
    <polyline points="489.0,527.0 485.5,528.875 476.375,533.0 467.625,536.0 463.125,537.125"/>
    <polyline points="461.5,537.5 454.125,538.75 447.5,539.25 442.5,539.25 433.75,538.625 427.0,537.5 419.25,535.75 405.5,531.25 394.5,526.5 381.75,519.875 374.625,515.75 367.0,510.875"/>
    <polyline points="358.75,505.25 350.0,498.875 340.625,491.5 330.875,483.25 320.625,474.0 310.125,463.75 299.5,452.625 289.25,440.875 279.5,428.5 270.75,416.125 263.625,404.25 258.5,393.25 255.75,383.875 255.75,376.5 258.5,371.75 264.0,369.75 271.875,370.625 281.625,373.875 292.75,379.25 304.625,386.375 316.75,394.5 328.875,403.375 340.625,412.375 372.0,437.75"/>
    <polyline points="381.0,445.125 404.0,463.25 416.5,472.25 432.125,481.75 441.0,486.0 452.5,490.25 462.25,492.5 468.25,493.375 473.625,493.75 478.75,493.75 485.875,493.25"/>
    <polyline points="488.0,492.875 492.375,492.25 498.375,490.875 509.5,487.125 514.75,484.75 523.25,480.25 528.375,477.125 533.375,473.625"/>
    <polyline points="535.125,472.375 544.0,465.625 553.375,457.75 590.875,424.25"/>
    <polyline points="594.5,421.25 612.25,407.25 631.625,393.625 649.75,382.125 675.125,367.5 691.5,358.75 711.375,348.75 735.125,337.375 763.5,324.875 796.5,311.5 833.5,298.75 872.0,288.75 906.875,285.25 930.5,293.25 935.0,316.5 916.875,355.5 879.75,406.0 832.875,460.875 785.875,514.0"/>
    <polyline points="745.625,561.25 715.125,601.625 694.625,635.0 683.125,662.25 679.125,684.0 680.875,700.75 686.5,712.75 694.625,719.875 703.5,722.25 711.875,719.75 718.625,712.5 723.0,701.25 724.875,686.5 724.125,669.375 721.125,650.875 716.375,632.0 710.375,613.375 703.75,595.75 696.875,579.5 690.0,564.875 683.375,551.875 677.125,540.5 665.875,522.5 656.25,509.625"/>
    <polyline points="652.0,504.75 644.5,497.625 637.75,493.125 634.625,491.625 631.625,490.625 626.0,489.25 620.625,488.875 610.75,489.625 588.625,493.25"/>
    <polyline points="586.875,493.5 577.25,494.0 571.25,493.375 568.5,492.5 567.0,491.625 565.875,490.625 565.5,489.875"/>
    <polyline points="565.375,489.375 565.125,488.625 565.25,487.125 565.75,485.625 567.125,483.375 571.25,478.75 576.75,474.125"/>
    <polyline points="577.875,473.25 584.375,468.75 592.375,463.75 602.25,458.375 613.875,452.875 627.125,447.875"/>
    <polyline points="629.875,447.0 635.375,445.5 640.625,444.5 643.125,444.125 647.875,444.0 650.0,444.125 653.5,445.0 655.875,446.875 656.5,448.125 656.875,449.625 656.5,453.25 655.75,455.375 653.125,460.0 649.125,465.25 646.625,468.0 637.875,476.125"/>
    <polyline points="634.625,478.75 624.5,486.25 617.5,490.5 610.625,494.25 600.75,498.875 591.75,502.125 581.125,505.0 572.125,506.375 564.625,506.875"/>
    <polyline points="563.0,506.875 554.625,506.25 551.375,505.625 545.375,503.625 543.5,502.375 542.25,501.0"/>
    <polyline points="542.125,500.75 541.625,499.25 541.625,498.125 542.125,496.5 543.125,494.625 545.0,492.125 547.75,489.25"/>
    <polyline points="548.375,488.625 555.625,482.25 561.125,478.0 566.375,474.125 578.125,466.25"/>
    <polyline points="580.125,465.0 591.5,458.125 602.625,452.0 623.625,442.0 636.0,437.125 644.875,434.125 658.25,430.75 666.75,429.625"/>
    <polyline points="670.625,429.5 674.125,429.75 677.25,430.5 679.875,431.625 681.75,433.25 683.125,435.375 683.625,438.125 683.375,441.25 682.25,444.875 680.375,448.875 674.5,458.0 666.125,467.75 661.25,472.75 650.625,482.375 645.125,486.875 633.875,495.25 623.0,502.375 612.625,508.25 603.125,512.875"/>
    <polyline points="598.625,514.75 590.25,517.75 582.625,520.0 572.5,522.125 566.5,522.875 554.0,523.375 546.0,523.0 535.0,521.75"/>
    <polyline points="533.625,521.625 520.625,519.875 512.875,519.625"/>
    <polyline points="512.375,519.625 506.0,520.625 500.5,522.625"/>
    <line x1="500.0" x2="484.0" y1="522.875" y2="530.5"/>
    <polyline points="483.125,530.875 476.125,533.875 464.0,537.625 455.0,539.25 446.0,539.875"/>
    <polyline points="443.5,539.875 437.875,539.625 424.5,537.625 416.375,535.5 407.0,532.375 396.125,527.75 383.5,521.5 368.875,512.75 352.0,501.0 342.75,493.875 332.875,485.75 322.625,476.5 312.0,466.375 301.25,455.375 290.625,443.5 280.625,431.0"/>
    <polyline points="271.5,418.375 263.75,406.125 258.0,394.625 254.625,384.625 254.0,376.625 256.25,371.25 261.25,368.625 268.875,368.875 278.375,371.75 289.5,376.875 301.375,383.875 313.75,392.0 326.125,400.875 338.125,410.0 379.375,443.75 402.75,462.375 415.5,471.625 421.125,475.375 431.25,481.375"/>
    <polyline points="435.875,483.75 444.25,487.5 455.125,491.125 464.625,493.0 470.25,493.5 475.625,493.75 487.375,492.875 493.75,491.75 503.5,489.0"/>
    <polyline points="505.25,488.375 510.625,486.25 515.875,483.75 525.875,478.0 536.0,471.0 548.125,461.0"/>
    <polyline points="550.0,459.375 561.375,448.75 578.375,431.625 592.75,416.125 605.5,401.5"/>
    <polyline points="608.0,398.375 613.0,392.0 619.25,382.75 621.5,377.125 621.5,374.75 620.25,372.875 617.25,371.75 611.875,371.875 602.625,373.75 588.125,378.375 565.875,387.0 531.875,401.875 481.25,426.125 407.625,464.0 305.875,519.625 179.25,593.25 51.125,672.75 0.0,706.2507"/>
    <polyline points="0.0,674.233 17.625,651.0 49.75,583.375"/>
    <polyline points="61.5,512.25 54.75,438.75 36.875,363.625 18.5,291.25 12.375,231.125 27.25,194.5 63.625,187.875 113.375,208.375 164.75,246.5 209.125,292.0 242.5,337.5 264.0,379.125 275.25,415.75 278.375,447.125 275.625,473.875 269.375,496.125 262.0,514.125 250.625,537.75 248.875,543.375 250.25,545.375 254.375,544.375 260.875,540.875 268.75,535.625 286.625,522.5"/>
    <polyline points="295.5,515.75 319.5,497.375 332.5,488.125 343.375,481.375 352.625,476.875 356.875,475.25 364.5,473.25 368.125,472.75 374.75,472.625 377.875,472.875 380.875,473.25 389.375,475.375 397.0,478.25 401.625,480.375"/>
    <polyline points="403.75,481.5 409.875,484.75 415.125,488.0 422.125,493.0 425.25,495.75 428.875,499.75 430.25,502.5 430.375,503.75"/>
    <polyline points="430.375,504.25 429.75,505.75 429.0,506.5 427.125,507.5 424.375,508.125 419.375,508.125 410.875,506.5 406.625,505.25 399.25,502.375"/>
    <polyline points="396.625,501.25 390.75,498.375 384.5,494.875 374.25,488.25 367.0,482.875 359.5,476.75 348.625,466.625 342.125,459.5 334.5,449.125 331.625,443.125 330.875,440.625 330.75,438.625 331.125,436.875 332.125,435.75"/>
    <polyline points="333.625,435.0 335.75,434.75 341.375,435.75 348.625,438.5 357.0,442.625 375.125,453.125 412.75,476.875 429.0,486.625"/>
    <polyline points="431.875,488.375 451.875,499.875 459.375,504.5 465.5,509.0 468.625,512.375"/>
    <polyline points="469.125,513.0 470.125,514.75 470.625,517.0 470.25,519.25 469.75,520.375 468.25,522.5 467.125,523.5 462.5,526.375"/>
    <polyline points="461.5,526.875 454.125,529.25 449.375,530.125 443.75,530.625 434.625,530.375 426.25,529.25 419.625,527.75 412.125,525.625 403.625,522.5"/>
    <polyline points="399.0,520.5 388.625,515.5 370.5,504.75 356.5,494.875 341.0,482.5 324.75,467.625 316.375,459.25 300.625,441.25 293.625,432.0 287.5,422.875 282.75,414.25 279.375,406.375 277.75,399.875 278.0,394.625 280.125,391.25 284.25,389.625 289.875,389.875 297.0,391.875 305.25,395.25"/>
    <polyline points="314.125,400.0 323.625,405.625 342.875,418.625 393.25,456.0 406.625,465.375 418.25,473.0 433.25,481.625 446.0,487.5 456.875,491.375 466.25,493.875"/>
    <polyline points="469.125,494.375 477.125,495.625 484.25,496.125 490.75,496.125 496.625,495.75 502.125,495.0 508.875,493.5 518.25,490.5"/>
    <polyline points="519.75,489.875 528.75,485.75 538.125,480.5 562.625,464.25"/>
    <polyline points="565.0,462.75 575.5,455.625 596.125,442.75 621.0,428.875 633.75,422.5 648.625,415.625 665.875,408.375 685.125,401.375 695.375,398.25 705.75,395.5"/>
    <polyline points="716.0,393.5 725.875,392.375 734.75,392.375 742.125,394.0 747.625,397.375 750.5,402.625 750.75,410.0 747.875,419.25 742.25,430.125 734.125,442.375 724.0,455.375 712.375,468.5 700.0,481.5 687.375,494.0 675.0,505.5 652.0,525.375 641.75,533.625 632.375,540.625 623.875,546.625 616.125,551.625 609.25,555.75 602.875,559.125 597.25,561.75 587.375,565.375"/>
    <polyline points="583.125,566.5 579.125,567.25 572.0,567.875 565.75,567.75 562.875,567.375 552.625,565.5 537.875,561.375 523.625,558.5"/>
    <polyline points="522.0,558.375 517.125,558.0 510.875,558.125 501.75,559.375 494.125,561.25 482.625,565.125"/>
    <polyline points="480.875,565.75 467.25,570.75 457.625,573.5 449.125,575.125 442.5,575.875 434.875,576.125 426.0,575.5 415.5,573.75 402.5,570.0 394.875,567.25"/>
    <polyline points="386.375,563.625 376.75,558.875 365.75,552.875 353.375,545.25 339.25,535.625 323.125,523.625 305.0,508.75 284.5,490.5 261.875,468.5 237.625,442.5 212.625,412.625 188.625,380.0 168.25,346.625 154.25,315.5 149.625,290.625 155.75,275.25 172.125,271.375 196.125,278.5 224.25,294.375 253.125,315.875 280.125,339.875 303.875,364.0 323.75,386.75 339.75,407.25 352.125,425.375 361.5,441.0"/>
    <polyline points="368.375,454.5 373.25,465.875 376.5,475.5 378.625,483.625 380.375,496.125 381.25,510.375 381.75,512.375 382.625,513.75 383.75,514.625 387.0,515.375 391.5,515.0 421.0,507.75"/>
    <polyline points="424.625,506.875 431.625,505.375 448.25,502.5 482.75,498.375 493.125,496.875"/>
    <polyline points="495.125,496.5 504.125,494.625 513.875,491.625 526.375,486.25 535.75,481.0"/>
    <polyline points="537.375,480.0 547.875,473.375 578.5,452.625 588.625,446.125 601.0,438.75"/>
    <polyline points="605.75,436.0 622.25,426.875 643.25,416.5 669.625,405.125 690.375,397.625 701.25,394.25 712.5,391.375 723.375,389.375 733.75,388.25 743.0,388.625 750.5,390.875 755.625,395.0 757.875,401.375 757.0,410.0 752.75,420.75 745.5,433.125 735.625,446.75 723.875,461.0 710.875,475.25"/>
    <polyline points="697.375,489.0 684.0,502.0 671.125,513.875 647.875,533.75 628.625,548.625 620.375,554.375 606.5,562.875 600.625,565.875 590.5,570.0 586.125,571.375 578.5,572.75 575.125,573.0 566.125,572.375 560.875,571.375 551.625,568.625"/>
    <polyline points="549.5,567.875 535.875,563.5 527.125,561.5 520.625,560.625 517.5,560.5 511.375,560.625 506.75,561.125"/>
    <polyline points="505.25,561.375 497.75,563.125 491.5,565.125 468.375,574.5 461.625,576.875"/>
    <polyline points="459.125,577.75 448.0,580.625 437.625,581.875 429.375,582.0 419.375,581.0 413.75,580.0 400.25,576.25 392.25,573.375 372.875,564.375 361.125,557.75 347.625,549.25 332.0,538.375 314.125,524.75 293.625,507.625 270.375,486.375 244.625,460.375 217.125,429.625"/>
    <polyline points="189.125,394.5 163.25,356.625 143.125,319.0 132.25,286.5 133.875,263.5 148.25,253.875 173.125,258.0 204.125,273.75 236.875,297.125 267.625,324.25 294.375,351.875 316.25,377.875 333.375,401.375 346.125,422.125 355.0,439.875 361.0,455.125 364.5,468.0 366.125,479.0 366.5,488.25 366.0,496.0 365.0,502.5 362.0,515.5 361.75,518.0 362.0,519.75"/>
    <polyline points="362.875,520.875 364.375,521.375 366.375,521.375 372.0,520.125 400.5,510.875 413.5,507.375 421.75,505.625 436.875,503.25 453.0,502.125"/>
    <polyline points="455.875,502.125 470.875,502.25 492.0,503.375 500.625,503.5"/>
    <polyline points="501.75,503.5 508.5,503.0 513.375,502.125 517.25,501.125 522.25,499.125"/>
    <polyline points="523.0,498.875 531.875,494.0 543.75,486.0"/>
    <polyline points="544.75,485.25 573.25,465.625 587.875,456.625"/>
    <polyline points="590.75,455.0 611.375,443.75 629.125,435.5 639.25,431.25 650.25,427.25 656.0,425.375 667.5,422.25 678.875,420.25 684.125,419.875 688.875,420.125 693.125,420.875 696.625,422.375 699.125,424.5 700.625,427.5"/>
    <polyline points="701.0,431.25 700.25,435.75 698.25,440.875 695.125,446.625 691.0,452.875 685.875,459.375 673.625,472.875 659.75,485.875 652.625,491.875 638.375,502.75 631.625,507.5 625.0,511.75 612.75,518.875 601.625,524.25 591.75,528.125 587.25,529.625 579.0,531.75 571.5,533.125"/>
    <polyline points="568.125,533.625 561.875,534.125 553.5,534.25 544.125,533.75 518.25,531.25"/>
    <polyline points="517.0,531.25 510.125,531.25 504.875,531.75 499.875,532.625 490.625,535.125"/>
    <polyline points="489.5,535.5 477.375,539.375 468.375,541.875 461.125,543.375 450.0,544.5"/>
    <polyline points="447.375,544.625 435.5,544.125 424.5,542.25 415.75,540.0 405.5,536.5 399.875,534.25 387.0,528.125 371.875,519.5 363.25,514.125 344.125,500.25 333.5,491.75 322.25,482.0 310.5,471.125 298.375,458.875 286.25,445.625 274.375,431.5"/>
    <polyline points="263.5,416.875 254.0,402.375 246.75,388.625 242.25,376.625 241.125,366.875 243.375,360.25 249.125,357.0 257.875,357.375 269.0,361.0 281.75,367.25 295.5,375.625 309.625,385.375 323.375,395.875 336.5,406.5 348.875,416.875 388.75,451.625 403.625,464.0 421.375,477.125 431.125,483.125"/>
    <polyline points="435.375,485.375 443.25,488.875 453.5,492.0 462.375,493.5 467.75,493.75 477.375,493.375 483.875,492.375 489.875,491.0 499.125,488.0"/>
    <polyline points="500.75,487.25 507.375,484.25 513.375,480.75 519.0,476.875 523.875,472.75 527.125,469.375 529.625,466.125 531.25,462.875"/>
    <polyline points="531.375,461.875 531.25,460.125 530.75,459.25 528.75,458.125 527.125,457.75 522.125,457.75 514.25,459.0 508.75,460.375 494.0,465.0 472.625,473.125 458.75,478.875 423.75,494.625 402.625,504.625 379.375,516.125 354.625,528.5 268.25,573.25"/>
    <polyline points="257.25,578.25 252.0,579.375 252.125,576.75 256.625,571.25 292.25,534.5 309.375,516.125 322.75,500.875 343.125,475.875 348.25,470.125 352.625,466.25 356.875,463.75 361.0,462.5 363.125,462.375"/>
    <polyline points="365.25,462.375 369.625,463.0 374.25,464.25 386.125,469.375 399.875,477.125 411.5,484.75 417.875,489.375"/>
    <polyline points="419.25,490.375 424.0,494.375 426.625,497.0 428.0,498.625 429.75,501.5 430.125,502.875 429.875,505.0 428.875,506.375 427.0,507.25"/>
    <polyline points="426.25,507.5 423.375,508.0 419.5,508.0 416.5,507.625 409.0,505.875 402.25,503.5 394.25,500.0 385.125,495.125 371.375,486.0"/>
    <polyline points="367.75,483.375 360.375,477.375 349.5,467.375 340.125,456.75 335.25,449.875 332.125,443.875 331.25,441.375 331.0,439.25 331.375,437.5 332.25,436.25 333.625,435.375 335.625,435.125 338.125,435.25 341.0,435.875 348.0,438.375 360.625,444.75"/>
    <polyline points="365.0,447.25 378.75,455.5 422.0,482.625 449.375,498.625"/>
    <polyline points="451.25,499.625 460.0,505.125 466.5,510.25 469.375,514.125 469.875,515.25 470.125,517.5"/>
    <polyline points="470.0,518.125 469.75,519.25 468.625,521.375 464.5,524.875 459.75,527.25 454.875,528.75 450.25,529.75"/>
    <polyline points="448.625,530.0 442.875,530.375 436.125,530.25 428.0,529.375 421.75,528.125 410.625,524.875 397.25,519.5 386.75,514.25 374.75,507.25 361.25,498.25 346.375,486.75"/>
    <polyline points="338.5,480.125 322.125,464.75 314.0,456.25 306.0,447.375 298.625,438.25 291.875,429.0 286.25,420.125 281.875,411.875 279.125,404.5 278.125,398.375 279.0,393.75 281.875,391.0 286.375,390.0 292.5,390.75 300.0,393.25 308.375,397.125 317.5,402.125 327.0,408.0 346.0,421.0 388.375,452.5"/>
    <polyline points="395.5,457.625 402.125,462.375 414.375,470.5 425.125,477.125 434.625,482.25 447.125,487.875 454.375,490.625 461.0,492.625 470.0,494.625 480.25,496.0 489.25,496.25"/>
    <polyline points="491.25,496.25 500.75,495.375 510.75,493.25 517.0,491.25 523.0,488.75 532.0,484.25"/>
    <polyline points="533.5,483.375 544.75,476.5 572.5,457.875 588.125,447.875"/>
    <polyline points="591.875,445.625 609.375,435.5 626.25,426.5 647.375,416.5 664.25,409.5 673.375,406.0 693.125,399.5 703.375,396.75 713.5,394.625 723.125,393.375 732.0,393.375 739.5,394.625 745.125,397.75 748.5,402.625 749.125,409.5 746.875,418.25 741.75,428.75"/>
    <polyline points="734.25,440.5 724.625,453.125 713.5,466.0 701.5,478.875 689.125,491.125 676.875,502.75 653.875,522.625 643.5,531.0 625.375,544.25 617.625,549.375 604.0,557.125 598.25,559.875 588.125,563.75 579.625,565.75 572.375,566.5 566.0,566.5 557.625,565.5"/>
    <polyline points="555.125,565.0 533.875,559.625 526.75,558.25 518.5,557.375 509.125,557.5"/>
    <polyline points="507.625,557.75 501.5,558.625 493.875,560.5 464.5,570.375"/>
    <polyline points="462.125,571.0 451.5,573.375 441.625,574.5 438.0,574.625 429.625,574.25 419.75,572.875 407.875,570.0 400.875,567.625 393.125,564.625 384.375,560.75 374.625,555.875 363.5,549.5 350.875,541.625 336.5,531.625 320.25,519.25 302.0,504.0 281.5,485.5 259.125,463.25"/>
    <polyline points="235.25,437.125 211.125,407.625 188.375,375.75 169.5,343.625 157.5,314.375 154.5,291.625 162.0,278.375 178.875,276.125 202.625,284.125 230.125,300.25 258.0,321.25 284.0,344.5 307.0,367.75 326.125,389.625 341.75,409.375 354.0,426.75 363.375,441.875 370.375,454.75 375.5,465.75 379.0,475.0 381.5,482.875 383.0,489.375 385.5,506.25"/>
    <polyline points="386.0,508.625 386.625,510.5 387.5,512.0 388.75,512.875 391.875,513.875 393.75,513.875 401.25,512.75 433.375,505.25 452.375,501.875"/>
    <polyline points="455.375,501.375 476.625,498.375 494.0,495.375 503.5,493.0 510.5,490.75"/>
    <polyline points="512.125,490.125 522.125,485.875 532.125,480.5 546.375,471.25 556.75,464.0"/>
    <polyline points="559.0,462.375 578.125,449.0 597.375,436.5 618.875,423.75 632.875,416.25 649.75,407.75 670.25,398.375 694.5,388.625 707.875,383.875"/>
    <polyline points="722.0,379.5 736.375,375.75 750.375,373.25 763.375,372.5 774.25,374.0 782.0,378.375 785.625,386.0 784.625,397.125 778.75,411.25 768.375,428.0 754.625,446.25 738.375,465.25 721.25,484.0 704.0,501.75 672.375,532.375 658.875,545.0 636.5,564.75 627.625,572.125 613.5,583.0 607.875,586.75 603.125,589.5 595.25,592.875"/>
    <polyline points="592.0,593.625 589.125,593.875 583.875,593.375 577.25,590.625 573.125,588.0 559.625,577.875 550.125,571.375 541.0,566.5"/>
    <polyline points="539.25,565.75 530.625,562.625 520.875,560.75 513.125,560.5 508.625,560.875 499.625,562.625"/>
    <polyline points="498.125,563.0 491.875,564.875 470.875,573.375 462.125,576.625 454.5,579.0 448.625,580.25"/>
    <polyline points="445.5,580.875 434.5,581.875 425.625,581.5 420.625,581.0 408.75,578.625 394.125,573.75 385.25,570.125 375.25,565.375 363.875,559.125 350.75,551.0 335.625,540.75 318.25,527.875 298.375,511.5 275.875,491.25 250.75,466.5 223.625,436.875 195.625,402.625 169.125,365.25 147.375,327.5 134.25,293.5 133.0,268.125"/>
    <polyline points="144.5,255.375 167.25,256.5 197.125,269.75 229.625,291.75 261.0,318.125 288.75,345.75 311.75,372.25 329.875,396.25 343.625,417.5 353.375,435.875 360.0,451.625 364.125,465.0 366.25,476.375 366.875,486.0 366.625,494.0 365.75,500.75 362.75,514.5 362.375,517.25 362.5,519.25 363.25,520.5 364.5,521.125 366.5,521.25 371.75,520.25"/>
    <polyline points="375.125,519.25 395.375,512.5 408.5,508.75 416.875,506.75 428.875,504.375 439.75,503.0 449.5,502.25 466.0,502.0"/>
    <polyline points="468.375,502.125 492.125,503.125 502.0,503.125 506.125,502.75"/>
    <polyline points="507.125,502.75 513.25,501.75 517.25,500.625 521.75,499.0 527.0,496.375"/>
    <polyline points="527.75,496.0 538.0,489.75 552.375,479.75"/>
    <polyline points="553.75,478.75 568.25,468.75 586.625,457.125 598.875,450.125 613.875,442.375"/>
    <polyline points="618.125,440.25 627.375,436.0 642.875,429.625 660.0,423.875 665.875,422.375 677.5,420.0 682.875,419.5 688.0,419.5 692.5,420.0 696.25,421.25 699.25,423.125 701.125,425.875 702.0,429.375 701.625,433.75 700.0,438.75 697.25,444.375 693.25,450.625 688.375,457.125 682.75,463.875 676.375,470.75"/>
    <polyline points="669.5,477.5 655.25,490.25 648.0,496.125 633.875,506.5 620.75,514.875 608.75,521.5 603.25,524.125 593.125,528.25 584.125,531.125 576.125,533.0 565.75,534.5 556.75,534.875 549.125,534.625"/>
    <polyline points="546.75,534.5 523.625,532.125 517.0,531.75 509.0,531.875"/>
    <polyline points="507.875,532.0 503.625,532.5 495.375,534.25 480.5,538.75"/>
    <polyline points="479.25,539.125 470.5,541.75 461.625,543.625 453.0,544.75 448.0,545.0 442.375,545.0 432.75,544.125 421.0,541.75"/>
    <polyline points="416.5,540.625 406.375,537.25 400.75,535.0 387.875,529.0 380.75,525.125 364.375,515.125 355.25,508.875 345.375,501.625 334.75,493.125 323.5,483.5 311.625,472.625 299.375,460.5 287.125,447.25 275.125,433.0 263.875,418.25 254.125,403.625 246.5,389.625 241.625,377.125 240.125,367.0 242.0,359.875 247.375,356.375 256.0,356.25 267.0,359.625"/>
    <polyline points="279.875,365.75 293.75,374.125 307.875,383.875 321.75,394.5 347.625,415.75 395.875,457.75 409.5,468.75 420.875,477.0 430.5,483.0 438.875,487.25 446.25,490.125 449.75,491.125 456.0,492.625 461.75,493.5"/>
    <polyline points="464.5,493.75 472.125,493.75 479.0,493.125 485.375,492.0 491.25,490.5 501.875,486.625 505.125,485.125 512.625,480.875"/>
    <polyline points="514.0,479.875 519.375,476.0 525.0,470.875 527.5,467.625 528.75,465.5 529.375,463.5 529.5,462.625 528.875,460.875 527.125,459.625 523.75,459.0 518.125,459.375"/>
    <polyline points="514.25,460.125 503.375,462.875 496.125,465.125 476.875,472.125 464.5,477.125 433.125,490.875 413.875,499.75 369.625,521.5 282.25,566.5 268.5,573.125 260.25,576.375 257.25,576.125 259.0,572.625 264.25,566.5 308.0,522.5"/>
    <polyline points="315.875,514.375 349.125,478.125 354.375,473.125 358.875,469.75 360.875,468.625 364.875,467.125 366.875,466.75 370.75,466.625 376.75,467.625 386.75,471.5"/>
    <polyline points="388.75,472.5 401.75,480.0 411.0,486.375 417.75,492.0 421.375,495.875 421.75,496.625"/>
    <polyline points="422.25,497.25 423.125,499.625 422.875,501.125 422.375,502.0 420.25,503.125 417.875,503.5 413.375,503.25 405.5,501.375"/>
    <polyline points="403.625,500.75 392.75,496.125 385.125,491.875 376.625,486.375 367.75,479.75 359.0,472.125 351.0,463.875 346.625,458.5 342.25,451.125"/>
    <polyline points="341.375,449.125 341.0,447.375 341.5,444.625 342.375,443.875 343.75,443.375 347.375,443.375 349.75,443.875 355.375,445.875 362.0,448.875 376.5,456.875 408.25,476.625"/>
    <polyline points="411.375,478.625 432.0,491.625 442.875,498.875 448.125,502.875 452.0,506.25 454.0,508.625"/>
    <polyline points="454.5,509.375 455.625,511.5 456.125,513.5 456.0,515.375 454.75,517.625 452.5,519.75 450.875,520.625 444.25,522.75"/>
    <polyline points="442.75,523.0 434.0,523.375 424.875,522.375 416.25,520.5 406.0,517.125 393.75,511.75 379.125,503.625 368.0,496.375 355.875,487.5"/>
    <polyline points="349.5,482.375 336.375,470.625 329.75,464.25 323.375,457.5 317.125,450.5 306.375,436.375 302.0,429.625 298.625,423.25 296.375,417.625 295.375,412.875 295.75,409.125 297.5,406.5 300.5,405.25 304.75,405.125 310.125,406.375 316.25,408.625 323.125,411.75 330.5,415.75 346.0,425.25 376.125,446.0"/>
    <polyline points="383.125,450.875 402.125,464.0 413.25,471.125 423.25,477.125 436.375,484.25 447.625,489.5 463.125,495.25 475.5,498.5 479.75,499.25"/>
    <polyline points="481.75,499.625 489.0,500.625 499.5,501.125 508.0,500.5 515.25,499.0"/>
    <polyline points="516.25,498.75 522.875,496.375 528.375,493.75 540.625,486.375"/>
    <polyline points="541.75,485.625 571.125,465.75 585.875,456.5"/>
    <polyline points="588.75,454.75 605.875,445.25 614.125,441.0 628.25,434.375 644.625,427.5 656.75,423.25 669.375,419.5 681.875,417.0 687.75,416.375 693.25,416.375 698.125,417.0 702.125,418.375 705.125,420.5 707.0,423.625"/>
    <polyline points="707.625,427.625 706.875,432.5 704.875,438.25 701.375,444.625 696.75,451.5 691.125,458.75 677.5,473.625 670.0,480.875 662.25,488.0 646.75,500.75 632.0,511.375 625.0,515.875 618.375,519.875 606.25,526.375 600.75,528.875 590.625,532.875 581.625,535.5 570.125,537.625"/>
    <polyline points="566.625,538.0 560.375,538.5 547.0,538.125 522.75,535.5 515.75,535.125"/>
    <polyline points="514.5,535.125 509.5,535.25 500.125,536.375 494.25,537.625 484.375,540.375"/>
    <polyline points="483.125,540.75 475.875,542.875 467.625,544.875 459.75,546.375 452.875,547.125 441.875,547.375 435.375,546.875 427.875,545.75"/>
    <polyline points="423.75,544.875 414.625,542.5 409.375,540.75 397.75,536.125 391.25,533.125 384.0,529.5 376.25,525.125 367.75,520.0 358.625,513.875 348.625,506.75 337.875,498.5 326.25,488.875 314.0,478.0 301.25,465.75 288.25,452.0 275.25,437.25 262.875,421.625 251.75,405.625 242.75,390.25 236.375,376.125 233.625,364.375 234.625,355.75 239.5,350.875 248.0,350.0"/>
    <polyline points="259.375,352.875 272.75,359.125 287.375,367.75 302.5,378.125 317.25,389.375 344.5,412.25 386.375,450.0 401.625,463.25 408.125,468.625 419.375,477.25 424.25,480.625 433.0,485.75 440.625,489.375 447.375,491.75 456.375,493.625"/>
    <polyline points="459.125,494.0 464.25,494.25 471.25,494.0 481.75,492.375 487.5,490.875 494.375,488.5 500.625,485.625 506.125,482.5"/>
    <polyline points="507.375,481.75 511.0,479.125 514.0,476.5 516.375,473.875 517.75,471.25 517.875,469.75 517.375,468.375 515.875,467.375 510.875,467.0 505.125,467.75 496.625,469.625"/>
    <polyline points="491.125,471.25 468.0,479.5 445.875,488.5 432.5,494.375 401.625,508.625 384.375,517.0 305.375,556.125 296.375,560.125 291.125,561.875 289.25,561.5 290.5,559.0 294.25,555.0 300.0,549.625 322.0,530.875 336.875,518.875"/>
    <polyline points="343.75,513.625 355.875,504.75 366.125,498.0 374.5,493.25 378.125,491.5 384.5,489.0 392.25,487.125 396.375,486.875 400.0,487.125 405.625,488.5 410.625,491.0"/>
    <polyline points="411.25,491.5 413.0,493.125 414.0,494.5 414.25,496.125 413.625,497.0 411.75,497.75 408.625,497.75 404.375,496.875"/>
    <polyline points="403.0,496.5 398.75,495.0 392.0,491.875 386.125,488.625 377.75,483.125 369.25,476.375 365.25,472.75 359.75,467.0 356.875,463.375"/>
    <polyline points="355.75,461.75 354.0,458.625 353.375,456.125 353.625,454.25 354.25,453.625 356.125,453.0 360.75,453.625 364.875,455.125 374.75,459.75 393.875,471.0"/>
    <polyline points="396.5,472.625 409.0,480.625 424.625,491.375 429.0,494.75 433.5,498.75 437.25,503.0"/>
    <polyline points="437.75,503.875 439.0,506.625 439.125,507.875 438.625,509.625 436.875,511.5 434.625,512.625 430.375,513.5 427.625,513.625 422.625,513.25"/>
    <polyline points="420.75,513.0 414.375,511.75 406.75,509.375 400.875,507.125 387.125,500.375 375.125,493.0 366.375,486.75 357.25,479.625 352.625,475.625 343.375,467.0 334.75,457.75 330.875,453.125"/>
    <polyline points="327.375,448.5 324.25,444.0 321.875,439.75 320.0,436.0 318.875,432.5 318.5,429.625 319.0,427.375 320.25,425.875 322.25,424.875 325.0,424.75 328.5,425.25 332.5,426.5 337.0,428.25 347.125,433.125 352.625,436.125 363.75,442.875 405.625,469.875"/>
    <polyline points="410.125,472.625 422.375,480.125 436.375,488.0 450.5,495.125 474.125,506.0"/>
    <polyline points="475.25,506.625 481.25,509.625 486.25,513.0 488.375,515.75 488.75,517.125"/>
    <polyline points="488.875,517.5 488.5,519.75 486.75,522.375 484.625,524.375 480.625,527.25"/>
    <polyline points="479.875,527.75 472.875,531.25 465.75,533.875 458.125,535.75 450.625,536.75 446.25,537.0"/>
    <polyline points="443.75,537.0 438.625,536.875 429.5,535.875 418.625,533.375 410.0,530.75 405.25,529.0 394.625,524.375 382.25,518.0 375.5,514.0 360.375,504.125 352.0,498.0 343.125,491.125 333.875,483.375 314.25,465.125 304.375,454.875 294.625,443.875"/>
    <polyline points="285.375,432.375 277.125,420.875 270.125,409.75 265.0,399.25 261.875,390.25 261.25,383.0 263.25,377.875 267.625,375.375 274.375,375.25 282.875,377.5 292.875,381.875 303.75,387.875 315.25,395.125 326.75,403.125 338.0,411.5 386.25,449.625 401.25,461.125 414.125,470.25 425.25,477.375"/>
    <polyline points="430.25,480.25 439.375,484.875 447.5,488.25 454.875,490.625 464.5,492.875 473.125,493.875 483.25,494.0 492.125,493.125 502.25,491.0"/>
    <polyline points="504.125,490.5 511.375,488.0 516.625,485.75 523.375,482.375 535.5,475.0 548.625,465.625"/>
    <polyline points="550.625,464.0 578.625,442.625 593.75,431.875 603.25,425.5 621.375,414.125 628.875,409.75 646.625,400.0 669.25,388.375"/>
    <polyline points="682.875,382.0 715.375,367.875 734.375,360.75 754.75,353.875 775.875,348.125 796.625,344.25 815.0,343.75 828.875,347.875 835.875,357.75 834.375,374.0 823.875,396.125 805.75,422.625 782.5,451.375 756.875,480.375 688.125,554.375 671.25,572.875 657.75,588.375 647.25,601.0 639.25,611.25 629.375,625.25 624.625,632.625"/>
    <polyline points="623.5,634.25 622.75,634.625 622.25,634.0 618.375,619.875 613.375,606.375 608.75,596.875 603.375,587.625 597.625,578.875 588.625,567.25 579.75,557.75 571.25,550.0"/>
    <polyline points="568.5,547.875 558.5,540.75 549.75,535.75 543.875,533.0 537.0,530.25 529.625,528.0 523.5,526.625"/>
    <polyline points="522.375,526.5 516.25,525.75 510.875,525.75 505.25,526.375 500.75,527.375"/>
    <polyline points="500.0,527.625 493.625,529.625 477.0,535.875"/>
    <polyline points="475.75,536.375 468.875,538.5 460.5,540.375 452.25,541.375 447.5,541.625 439.375,541.5 433.125,540.875 425.875,539.625 417.75,537.625"/>
    <polyline points="413.25,536.25 403.0,532.625 391.25,527.25 384.625,523.875 369.75,515.125 361.375,509.625 352.5,503.25 342.875,496.0 322.0,478.25 311.0,467.75 299.625,456.125 288.5,443.75 277.75,430.625 268.0,417.25 259.75,404.125 253.5,391.875 249.75,381.125 249.125,372.625 251.5,366.875 256.875,364.125 265.0,364.5 275.125,367.75"/>
    <polyline points="286.875,373.5 299.625,381.0 312.625,389.75 325.5,399.25 349.625,418.625 388.5,451.25 410.0,468.125 416.0,472.375 426.75,479.375 431.5,482.125 440.25,486.375 447.875,489.375 451.5,490.5 458.125,492.125 464.125,493.125"/>
    <polyline points="467.0,493.375 472.375,493.625 479.75,493.375 490.75,491.75 498.625,489.625 505.875,487.0 517.625,481.125"/>
    <polyline points="519.25,480.125 525.625,476.0 531.75,471.375 542.125,462.0 544.875,459.125 549.75,453.0 551.75,450.0 553.25,447.0"/>
    <polyline points="553.625,445.625 553.875,444.25 553.375,441.875 552.5,440.875 551.125,440.125 546.125,439.375 537.0,440.625 521.5,445.0 510.25,448.875 478.25,461.75 456.125,471.625 429.125,484.25 396.875,500.125 359.625,519.25 318.875,540.875 277.25,563.625 208.5,601.875 189.25,611.625 182.25,613.0 185.625,606.375"/>
    <polyline points="196.125,593.875 209.875,577.5 224.25,559.375 237.125,540.875 247.875,523.0 256.0,506.125 262.0,490.375 266.0,476.0 268.5,462.75 272.625,430.625 274.25,422.625 276.625,416.125 279.875,411.25 284.125,408.0 289.5,406.375 295.75,406.25 302.75,407.5 310.5,410.0 318.75,413.625 327.25,417.875 335.875,422.75 344.375,427.875 361.0,438.625"/>
    <polyline points="368.875,443.875 403.0,466.5 414.25,473.375 429.0,481.5 445.375,489.0 455.625,492.75 464.625,495.375 477.25,498.0"/>
    <polyline points="479.5,498.375 487.5,499.25 499.25,499.375 509.0,498.25 517.375,496.125"/>
    <polyline points="518.5,495.75 526.375,492.5 533.25,488.875 548.75,479.125"/>
    <polyline points="550.25,478.125 572.625,463.125 585.875,454.875 599.25,447.125 616.125,438.25"/>
    <polyline points="621.0,435.875 631.5,430.875 649.75,423.375 663.25,418.5 677.375,414.5 691.25,411.875 697.625,411.5 703.5,411.75 708.625,412.75 712.5,414.875 715.25,417.875 716.375,422.125 716.0,427.25 714.0,433.5 710.375,440.625 705.375,448.375 699.125,456.625 691.75,465.125 683.75,473.625 675.375,481.875"/>
    <polyline points="666.75,489.875 649.5,504.125 633.375,516.0 626.0,521.0 618.875,525.375 606.125,532.25 600.375,534.875 595.0,537.125 585.25,540.5 580.875,541.625 572.75,543.125 565.625,544.0 559.375,544.25 553.625,544.125 543.625,543.25"/>
    <polyline points="541.375,543.0 526.0,541.0 518.0,540.375 509.5,540.375 501.5,541.125"/>
    <polyline points="500.25,541.375 489.5,543.625 470.75,548.625 460.75,550.625"/>
    <polyline points="458.375,550.875 453.5,551.5 442.0,551.75 431.25,550.75 422.875,549.125 418.125,548.0 407.5,544.625 394.875,539.5 387.75,536.0 379.875,531.875 361.875,521.0 340.375,505.625 328.25,495.875 315.125,484.625 301.25,471.625"/>
    <polyline points="286.875,457.0 272.25,440.875 258.125,423.5 245.0,405.5 234.0,387.75 225.875,371.125 221.75,357.0 222.125,346.375 227.125,340.25 236.25,338.75 249.0,342.0 264.125,349.0 280.625,359.0 297.25,371.0 313.625,383.875 328.875,396.875 355.625,421.5 400.625,464.75 412.5,475.125 417.5,479.125"/>
    <polyline points="422.0,482.5 426.125,485.375 433.5,489.625 436.875,491.25 442.875,493.5 450.875,495.25 458.0,495.75 464.5,495.375 468.5,494.875 475.875,493.375 482.5,491.375"/>
    <polyline points="484.125,490.75 488.5,489.0 493.625,486.5 496.875,484.5 500.25,481.875 502.125,479.375 502.25,478.25 501.875,477.375 499.75,476.375"/>
    <polyline points="498.5,476.375 492.75,476.875 483.125,479.0 473.875,481.875 461.875,486.125 446.625,492.125 417.875,504.5 395.75,514.625 344.625,538.875 333.25,543.75 330.375,544.5"/>
    <polyline points="329.375,544.25 330.125,543.0 335.75,538.125 350.875,527.75 368.5,517.375 374.125,514.375 385.0,509.25 399.5,504.0 403.875,502.75 411.75,501.125 418.75,500.25 424.875,500.0 432.75,500.625"/>
    <polyline points="435.0,501.0 442.75,502.875 445.875,504.0 450.75,506.5 454.125,509.125 455.75,511.125 456.625,513.0 456.875,514.25 456.75,516.0"/>
    <polyline points="456.5,516.5 455.0,518.75 452.375,520.625 449.625,521.875 444.75,523.25 438.375,523.875 434.5,523.875 425.25,522.875"/>
    <polyline points="422.5,522.375 416.625,521.0 406.375,517.625 398.25,514.25 389.25,509.875 379.125,504.125 368.0,496.875 355.625,487.75 349.25,482.625 335.875,470.75 322.625,457.375 310.5,443.0 305.375,435.875 300.875,428.875 297.5,422.5"/>
    <polyline points="295.25,416.75 294.25,411.875 294.625,408.0 296.5,405.5 299.625,404.25 304.0,404.25 309.375,405.5 315.75,407.75 322.75,411.125 338.0,419.875 353.875,430.25 396.5,460.125 413.75,471.375 432.75,482.375"/>
    <polyline points="437.0,484.375 440.875,486.375 451.625,491.0 466.5,496.0 473.875,497.875 484.375,499.75 494.625,500.625 497.5,500.625"/>
    <polyline points="499.0,500.625 507.875,500.0 513.375,498.875 519.5,497.125 526.375,494.125"/>
    <polyline points="527.25,493.75 532.375,491.0 541.125,485.625 557.625,474.5"/>
    <polyline points="559.25,473.375 580.125,459.625 598.25,449.0 609.75,442.75 618.625,438.375 628.5,433.75 639.375,429.125"/>
    <polyline points="645.125,426.875 657.5,422.375 670.5,418.625 683.25,416.0 689.375,415.25 695.0,415.25 700.0,415.875 704.125,417.375 707.25,419.625 709.125,422.875 709.625,427.0 708.75,432.125 706.5,438.0 702.875,444.625 698.0,451.75 692.125,459.25 685.375,467.0 670.25,482.125 662.25,489.25 654.25,496.0 638.75,508.0"/>
    <polyline points="631.375,513.0 624.375,517.625 617.625,521.625 605.5,528.0 594.625,532.625 585.25,535.875 576.75,537.875 569.375,539.125 562.75,539.625 554.0,539.75 548.75,539.5 535.75,538.125"/>
    <polyline points="533.75,537.875 517.75,536.375 509.875,536.375 499.0,537.75"/>
    <polyline points="497.75,538.0 489.25,540.0 471.875,544.875 460.5,547.125"/>
    <polyline points="458.375,547.5 445.625,548.375 439.5,548.125 436.125,547.875 424.625,546.0 420.25,545.0 410.375,542.0 404.75,540.0 392.25,534.5 385.0,531.0 377.25,526.625 368.75,521.625 359.5,515.625 349.5,508.5 338.625,500.25 327.0,490.625 314.625,479.625"/>
    <polyline points="301.625,467.25 288.25,453.375 274.875,438.375 262.125,422.375 250.625,406.0 241.125,390.125 234.375,375.5 231.125,363.125 231.875,354.0 236.75,348.75 245.25,347.625 256.875,350.5 270.625,356.75 285.5,365.625 300.875,376.25 316.0,387.875 343.875,411.375 386.0,449.875 401.25,463.375 413.625,473.5"/>
    <polyline points="418.875,477.5 428.25,483.75 436.25,488.0 443.25,491.0 452.5,493.5 458.0,494.25 463.0,494.5 470.0,494.25 478.375,493.0 487.625,490.5"/>
    <polyline points="489.375,490.0 498.75,486.0 504.0,483.0 508.625,479.75 512.75,475.625 514.0,473.25 514.0,471.125"/>
    <polyline points="513.625,470.625 512.0,469.75 510.75,469.5 507.125,469.375 501.625,470.125 493.625,472.0 475.25,477.875 446.875,489.125 421.5,500.25 407.0,507.0 375.5,522.0 330.125,544.5 309.0,554.5"/>
    <polyline points="302.75,557.0 299.625,557.5 299.375,556.25 301.75,553.375 311.625,544.375 325.375,533.25 339.75,522.375 359.125,508.875 374.875,499.75 383.375,495.875 390.5,493.375 396.5,492.0 404.0,491.375 406.125,491.5"/>
    <polyline points="408.0,491.75 411.5,492.375 414.375,493.25 417.875,494.75 420.375,496.5 422.375,498.75 423.0,500.25 423.0,501.125 422.625,501.875 421.875,502.625 420.75,503.125"/>
    <polyline points="420.125,503.25 416.625,503.625 410.0,502.75 403.0,500.625 398.875,499.0 392.0,495.75 384.125,491.375 372.625,483.5"/>
    <polyline points="369.625,481.25 363.625,476.375 357.875,471.125 352.5,465.625 347.75,460.125 342.75,452.5 341.0,448.375 341.0,445.25 341.625,444.125 342.625,443.5 344.125,443.125 348.125,443.375 350.625,444.0 356.5,446.25 363.125,449.5"/>
    <polyline points="366.75,451.375 377.875,457.625 392.75,466.75 430.75,490.75 440.375,497.125"/>
    <polyline points="442.0,498.25 448.75,503.125 453.875,508.125 456.0,511.75 456.375,513.75 456.0,516.25 455.375,517.375"/>
    <polyline points="454.875,517.875 451.75,520.375 449.0,521.625 445.5,522.625 439.5,523.5 433.875,523.5 427.0,522.875 415.875,520.5"/>
    <polyline points="412.625,519.5 401.5,515.375 393.0,511.5 378.125,503.25 367.0,495.875 354.75,486.75 348.25,481.5 335.125,469.625 322.0,456.25 315.875,449.125 310.25,442.0 305.25,435.0 301.0,428.25 297.875,422.0 295.75,416.375 295.0,411.75 295.625,408.25"/>
    <polyline points="297.625,405.875 301.0,404.875 305.375,405.0 311.0,406.375 317.25,408.875 324.375,412.25 331.75,416.375 339.5,421.0 355.125,431.25 403.25,464.75 424.25,477.75 433.125,482.625 444.875,488.25"/>
    <polyline points="448.5,489.75 461.0,494.5 469.0,496.875 476.125,498.5 487.875,500.375 497.25,501.0 501.25,500.875"/>
    <polyline points="502.625,500.875 509.625,500.125 514.75,499.0 521.625,496.75 528.25,493.625"/>
    <polyline points="529.125,493.125 538.375,487.75 559.75,473.25"/>
    <polyline points="561.5,472.125 583.25,458.0 595.25,450.875 602.375,447.0 623.75,436.25 645.25,427.125"/>
    <polyline points="651.25,424.875 663.875,420.875 676.625,417.625 688.75,416.0 694.125,416.0 699.0,416.75 703.0,418.25 706.0,420.5 707.75,423.75 708.25,427.875 707.375,432.875 705.125,438.625 701.5,445.125 696.75,452.125 690.875,459.5 684.25,467.0 669.375,481.875 661.625,488.875 646.0,501.625 638.5,507.25 631.125,512.25"/>
    <polyline points="624.25,516.75 611.375,524.125 600.0,529.625 590.0,533.375 581.0,536.0 569.625,538.125 559.875,538.875 549.0,538.625 534.125,537.125"/>
    <polyline points="532.25,536.875 519.5,535.625 511.625,535.5 502.0,536.375 498.5,537.0"/>
    <polyline points="497.25,537.25 490.125,539.0 475.125,543.375 460.625,546.5"/>
    <polyline points="458.5,546.75 453.875,547.375 443.125,547.625 433.125,546.875 425.375,545.5 416.375,543.25 411.375,541.625 400.0,537.375 393.625,534.5 379.125,527.0 370.875,522.125 361.875,516.375 352.125,509.625 341.625,501.75 330.25,492.625 318.25,482.125"/>
    <polyline points="305.5,470.25 292.5,457.0 279.25,442.375 266.5,426.875 254.875,410.875 244.875,395.125 237.5,380.25 233.5,367.5 233.125,357.625 236.75,351.5 244.125,349.25 254.75,350.875 267.625,356.125 282.125,364.125 297.125,374.125 312.25,385.25 326.625,396.875 340.25,408.375 352.75,419.375 391.875,454.875 399.25,461.375 412.0,471.875"/>
    <polyline points="417.5,476.125 427.25,482.625 435.5,487.25 442.75,490.375 452.25,493.125 457.875,494.0 463.125,494.25 470.25,494.125 474.625,493.625 482.75,492.125 488.25,490.5"/>
    <polyline points="490.0,490.0 499.625,486.0 503.875,483.75 510.0,479.625 514.625,475.25 515.875,473.5 516.875,471.125 516.875,470.375"/>
    <polyline points="516.625,469.625 515.625,468.5 514.75,468.125 511.875,467.625 507.25,467.875 500.375,469.125 490.375,471.875 484.0,474.0 467.875,479.875 457.875,483.875 433.5,494.25 403.5,508.0 369.625,524.375 309.375,554.375"/>
    <polyline points="300.25,558.375 294.5,560.5 292.25,560.375 293.0,558.375 296.25,554.625 308.0,544.0 330.375,525.75 350.875,510.25 356.875,506.0 367.25,499.375 371.75,496.75 379.75,492.875 389.25,489.5 394.375,488.625 398.625,488.375"/>
    <polyline points="400.625,488.375 406.875,489.5 410.5,491.0 413.125,492.5 415.5,494.625 416.375,496.125 416.5,497.75 415.25,498.875"/>
    <polyline points="414.75,499.0 412.75,499.375 409.0,499.125 403.875,497.875 399.25,496.25 389.75,491.75 385.375,489.25 376.25,483.125"/>
    <polyline points="373.875,481.375 364.5,473.5 356.5,465.125 353.375,461.125 351.25,457.5 350.5,455.875 350.0,453.125 350.125,452.125 351.375,450.75 353.875,450.375 355.5,450.5 359.5,451.625 364.25,453.5"/>
    <polyline points="366.875,454.625 378.5,460.75 393.5,469.75 414.75,483.375 430.125,494.0"/>
  </g>
</svg>
