<?xml version="1.0" encoding="utf-8" ?>
<svg xmlns="http://www.w3.org/2000/svg" xmlns:cc="http://creativecommons.org/ns" xmlns:dc="http://purl.org/dc/elements/1.1/" xmlns:ev="http://www.w3.org/2001/xml-events" xmlns:inkscape="http://www.inkscape.org/namespaces/inkscape" xmlns:rdf="http://www.w3.org/1999/02/22-rdf-syntax-ns" xmlns:sodipodi="http://sodipodi.sourceforge.net/DTD/sodipodi-0.dtd" xmlns:xlink="http://www.w3.org/1999/xlink" baseProfile="tiny" height="27.09333333cm" version="1.2" viewBox="0 0 1024.0 1024.0" width="27.09333333cm">
  <metadata>
    <rdf:RDF>
      <cc:Work>
        <dc:format>image/svg+xml</dc:format>
        <dc:source>vpype read './original_svgs/Strange Attractors #16.svg' linemerge linesimplify write './Strange Attractors #16.svg'
</dc:source>
        <dc:date>2024-08-05T01:35:18.087768</dc:date>
      </cc:Work>
    </rdf:RDF>
  </metadata>
  <defs/>
  <g fill="none" id="layer1" inkscape:groupmode="layer" inkscape:label="1" stroke="black" stroke-width="0.7mm" style="display:inline">
    <polyline points="263.625,213.875 286.375,174.375 273.125,143.0 228.5,118.75 158.25,106.625 74.5,116.75 0.0,160.3325"/>
    <polyline points="0.0,432.6389 4.25,443.5 53.625,526.5 95.375,587.25 122.25,627.625 133.875,651.25 133.375,660.875 125.375,658.125 115.25,644.375 108.375,621.0 108.75,590.5 118.5,555.875 136.625,520.625 160.375,487.75 186.25,459.125 211.25,435.25 233.375,416.375 251.625,401.625"/>
    <polyline points="265.875,390.75 276.375,383.0 283.875,377.875 288.75,375.125 291.875,374.375 293.75,375.5 295.0,378.25 299.5,394.125 302.0,401.125 305.25,408.625 309.375,416.375 314.125,424.25 319.5,432.0 325.5,439.5 331.75,446.75 338.25,453.375 344.875,459.625 351.625,465.375 364.875,475.25 371.375,479.5 377.625,483.375 389.5,489.875"/>
    <polyline points="395.125,492.625 410.5,499.375 424.0,504.375 439.125,509.25 464.25,516.625 475.875,520.625"/>
    <polyline points="477.5,521.125 485.75,524.875 491.125,528.0 494.625,530.625 496.875,532.75 499.375,535.625 501.0,538.0"/>
    <polyline points="501.5,538.875 504.625,544.875 505.75,547.875 507.75,554.25 510.625,565.625"/>
    <polyline points="511.0,567.0 513.375,576.0 515.5,582.625 518.25,589.75 520.875,595.25 523.125,599.125 527.125,604.875 532.5,610.625"/>
    <polyline points="534.625,612.5 539.5,616.125 542.375,617.875 548.75,621.0 556.625,623.5 565.875,625.375 576.875,626.125 589.75,625.375 596.875,624.375 612.25,620.75 620.5,618.0 628.75,614.625 637.125,610.625 645.25,605.875 653.125,600.625 660.25,594.75 666.75,588.375 672.125,581.75 676.25,574.875"/>
    <polyline points="679.125,568.0 680.75,561.25 680.875,554.875 679.75,548.75 677.5,543.125 674.125,538.125 670.125,533.625 665.25,529.625 660.125,526.25 654.625,523.25 648.875,520.75 637.375,516.875 631.75,515.375 616.0,512.0 579.625,506.0"/>
    <polyline points="576.5,505.375 563.125,502.25 556.625,500.375 547.625,496.875 541.875,493.875 538.25,491.5 534.0,488.125 533.125,487.125"/>
    <polyline points="532.25,486.25 529.0,482.5 524.5,474.875 521.0,466.0 517.875,455.125"/>
    <polyline points="517.375,453.375 511.5,430.5 509.125,422.625 506.0,414.0 503.5,407.625 500.375,400.75 496.5,393.375 491.75,385.375"/>
    <polyline points="488.875,381.125 482.125,372.125 473.5,362.375 468.375,357.25 455.875,346.5 448.25,340.875 439.75,335.25 430.25,329.5 419.375,323.875 407.375,318.5 393.875,313.625 379.25,309.375 363.375,306.125 346.5,304.375 329.25,304.375 312.0,306.625 295.5,311.625 280.875,319.5 268.75,330.5 260.0,344.25 255.25,360.375 254.25,378.125 257.0,396.75"/>
    <polyline points="262.875,415.25 271.0,433.0 280.75,449.5 291.375,464.5 302.25,477.75 313.0,489.375 323.375,499.375 333.125,507.875 342.25,515.125 350.75,521.25 365.625,530.75 378.125,537.5 388.75,542.5 397.75,546.25 423.625,556.125"/>
    <polyline points="426.0,557.25 432.5,560.5 437.875,564.0 441.0,566.5 446.125,572.125 449.875,578.375 451.25,581.75 453.0,589.25 453.5,595.5"/>
    <polyline points="453.5,597.625 453.25,602.25 452.0,609.5 448.75,620.125 446.25,625.75 443.0,631.75 441.125,634.75 436.375,641.0 433.625,644.25 427.0,650.75 423.0,654.125 418.5,657.375 413.5,660.75 407.875,663.875 401.625,667.0 394.5,670.0"/>
    <polyline points="386.5,672.75 377.5,675.125 367.5,677.125 356.5,678.625 344.25,679.25 331.125,678.875 317.0,677.25 302.25,674.125 287.25,669.125 272.625,661.875 259.25,652.25 247.875,640.25 239.25,625.75 234.375,609.375 233.625,591.5 236.875,573.0 243.75,554.625 253.75,537.0 265.75,520.625 278.875,506.0 292.375,493.25 305.625,482.25 318.25,473.0 329.875,465.375 340.5,459.0 350.0,453.875"/>
    <polyline points="358.5,449.625 366.125,446.25 378.75,441.5 388.625,438.625 396.5,437.0 408.125,435.875 424.625,436.375 430.875,436.0"/>
    <polyline points="432.0,435.875 435.625,434.75 437.875,433.375 439.5,431.75 440.625,429.75 441.25,425.5 440.5,421.625 439.125,418.25"/>
    <polyline points="438.5,417.125 436.25,413.625 434.25,411.25 429.25,406.5 426.25,404.25 419.25,400.25 413.375,398.0 409.25,397.0 405.125,396.375 399.0,396.625"/>
    <polyline points="397.125,397.0 393.625,398.25 390.625,400.125 388.375,402.625 387.5,404.125 386.75,405.75 386.125,409.375 386.125,411.25 386.75,415.375 389.375,421.75 393.5,428.0 398.875,433.75 405.125,438.875"/>
    <polyline points="407.25,440.375 413.875,444.25 420.5,447.375 431.0,450.625 436.75,451.5 442.0,451.75 449.375,450.75 453.125,449.375"/>
    <polyline points="454.125,448.75 457.0,446.75 460.0,443.25 461.0,441.125 462.0,437.5 462.25,432.125 461.625,427.375 460.125,422.25 457.625,416.625"/>
    <polyline points="456.5,414.625 452.625,408.375 451.0,406.25 447.25,401.875 442.75,397.375 434.625,390.625 428.25,386.375 420.875,382.25 412.75,378.75 408.375,377.25 403.875,376.0 394.625,374.25 385.125,373.875 380.5,374.25 376.0,375.125"/>
    <polyline points="371.625,376.375 367.75,378.125 364.125,380.375 361.0,383.125 358.375,386.375 356.25,389.875 354.875,393.875 354.0,398.25 353.875,402.75 354.375,407.5 355.375,412.375 357.0,417.25 359.125,422.125 364.75,431.625 368.125,436.125 375.5,444.5 383.5,451.875 391.875,458.25 400.125,463.75 408.25,468.25"/>
    <polyline points="412.125,470.25 419.75,473.625 430.25,477.5 439.75,480.25 448.125,482.125 453.25,483.0 464.25,484.0 471.5,484.0 476.0,483.5"/>
    <polyline points="477.375,483.25 480.0,482.75 483.5,481.625 487.375,479.75 489.75,477.875 492.375,475.125 493.875,472.75 495.25,470.0 496.25,466.875"/>
    <polyline points="496.5,465.75 497.5,458.375 497.5,452.5 497.125,447.5 495.25,436.0 493.5,429.375 491.0,422.0"/>
    <polyline points="490.0,419.375 486.25,410.875 481.125,401.5 476.625,394.75 468.0,383.75 456.125,371.875 451.25,367.75 440.0,359.375 426.25,351.125 418.25,347.125 409.75,343.5 400.375,340.125 390.5,337.125 379.875,334.875 368.875,333.375"/>
    <polyline points="357.625,332.875 346.25,333.625 335.25,335.75 324.875,339.375 315.625,344.625 307.75,351.375 301.625,359.875 297.5,369.625 295.5,380.375 295.5,391.875 297.625,403.875 301.5,415.75 306.75,427.5 313.0,438.5 320.125,449.0 327.75,458.5 335.5,467.125 343.375,475.0 351.125,481.875 366.125,493.5 379.75,502.375 386.125,506.125 397.75,512.25"/>
    <polyline points="403.125,514.75 413.0,519.125 445.75,531.75 455.875,536.125 466.0,541.5 469.375,543.75 473.75,547.25"/>
    <polyline points="475.125,548.375 479.875,553.375 481.875,556.0 487.125,564.75 491.125,574.75 495.125,588.25"/>
    <polyline points="495.625,590.25 498.75,601.625 502.75,614.0 505.0,619.375 509.125,627.625 512.75,633.125 517.375,638.75 523.375,644.25 531.125,649.5 535.75,651.875 541.125,654.125"/>
    <polyline points="547.25,656.0 554.125,657.75 562.125,658.875 571.125,659.625 581.375,659.625 592.75,658.75 605.625,657.0 619.875,654.0 635.25,649.625 651.75,643.625 668.75,635.875 685.875,626.25 702.375,614.875 717.25,602.0 729.75,588.0 738.875,573.375 744.375,558.875 745.875,545.125 743.75,532.75 738.625,521.875 731.125,512.875 722.125,505.75 712.25,500.25 702.125,496.125 692.25,493.125 682.75,491.125"/>
    <polyline points="673.875,489.875 665.625,489.125 651.25,488.625 639.375,488.75 617.25,489.75 604.25,489.625 598.75,489.25 591.25,488.125 586.75,487.125 578.625,484.5"/>
    <polyline points="576.75,483.75 570.0,480.375 565.5,477.5 561.5,474.25 558.0,470.75 555.875,468.25 552.125,462.75 549.75,458.25 547.75,453.375"/>
    <polyline points="547.125,451.75 544.875,444.375 542.375,431.875 541.25,424.75 536.875,388.625"/>
    <polyline points="536.25,384.875 533.0,368.375 530.375,359.0 526.75,348.75 521.625,337.25 518.25,330.875 509.25,317.125 503.25,309.375 495.875,301.25 487.0,292.375 476.0,282.875 462.625,272.625 446.125,261.75 425.875,250.375 401.125,238.75 371.375,227.625 336.0,218.0 295.375,211.75 251.125,211.25"/>
    <polyline points="206.5,219.625 166.625,239.25 137.625,271.25 123.625,313.875 125.625,362.5 140.25,411.625 162.5,456.875 187.125,495.375 210.25,526.625 230.125,550.875 257.75,582.375 271.625,597.0 275.0,599.625 277.0,599.875 278.25,598.125 282.25,583.75 284.75,576.875 288.25,569.5 292.75,561.875 298.125,554.125 304.375,546.625 311.125,539.5"/>
    <polyline points="318.5,532.75 326.125,526.625 334.0,521.0 349.625,511.75 357.125,507.875 364.5,504.625 378.375,499.5 396.75,494.625 412.5,492.0 429.75,490.625 452.625,490.375"/>
    <polyline points="455.25,490.375 468.75,490.375 478.625,489.75 483.875,488.875 487.125,488.0 492.375,485.625"/>
    <polyline points="493.125,485.125 496.75,481.75 499.625,476.5 501.125,470.875 501.75,464.125"/>
    <polyline points="501.875,462.875 501.625,454.25 500.875,447.5 499.5,439.875 496.75,428.875 495.125,423.875 490.625,412.875"/>
    <polyline points="489.25,409.875 486.0,403.625 481.875,396.75 476.875,389.5 467.0,377.75 458.375,369.375 447.75,360.625 441.5,356.125 434.625,351.75 427.0,347.375 418.5,343.125 409.375,339.125 399.375,335.5 388.625,332.375 377.25,329.875 365.375,328.25 353.125,327.875 340.75,328.75 328.875,331.25"/>
    <polyline points="317.75,335.375 307.75,341.375 299.5,349.25 293.375,358.75 289.5,369.75 288.0,381.875 288.875,394.625 291.875,407.625 296.625,420.625 302.875,433.0 310.125,444.75 318.0,455.5 326.25,465.375 334.625,474.125 343.0,482.0 351.0,488.875 358.875,495.0 373.375,505.0 380.0,509.0 392.25,515.625 403.125,520.875 412.75,525.0"/>
    <polyline points="417.125,526.75 435.625,533.875 447.0,538.625 454.125,542.0 460.125,545.5 465.375,549.125 469.75,552.875 474.75,558.375"/>
    <polyline points="475.75,559.75 478.75,564.25 481.25,569.125 482.75,572.5 485.25,579.875 488.5,592.25 492.125,609.25"/>
    <polyline points="492.625,611.875 495.375,623.125 498.25,632.0 500.75,638.25 504.0,644.75 506.0,648.0 511.0,654.5 514.0,657.75 517.5,660.875 521.625,664.0 526.375,667.0 532.0,669.75 538.5,672.25 546.125,674.5 555.0,676.125 565.25,677.25 577.25,677.625 591.125,676.875"/>
    <polyline points="607.0,674.875 625.0,671.25 645.0,665.625 666.875,657.5 689.75,646.875 712.75,633.375 734.625,617.25 753.625,599.0 768.25,579.25 777.25,559.375 780.375,540.5 777.75,523.75 770.5,509.5 760.125,498.375 747.75,490.0 734.875,484.125 722.125,480.25 710.25,478.125 699.375,477.125 689.875,477.125 681.375,477.625 674.0,478.625 662.0,481.25 652.625,484.375"/>
    <polyline points="648.625,485.875 638.25,490.125 629.25,493.375 623.5,495.0 615.0,496.5 606.625,497.0 596.0,496.375 586.125,494.625 579.375,492.75"/>
    <polyline points="577.25,492.0 571.125,489.75 565.625,487.125 560.75,484.375 556.25,481.25 551.125,476.75 547.75,473.125 542.125,465.0"/>
    <polyline points="541.375,463.5 538.375,457.125 534.625,446.25 525.375,408.5"/>
    <polyline points="524.5,405.25 521.375,394.625 516.875,382.625 515.0,378.375 510.5,369.0 504.375,358.75 500.625,353.125 496.375,347.25 485.375,334.625 478.5,327.75 470.375,320.5 460.875,312.875 449.75,304.875 436.5,296.75 421.125,288.5 403.25,280.375 382.5,272.75 359.0,266.25 332.875,261.625"/>
    <polyline points="304.75,260.0 275.875,262.375 248.0,270.125 223.625,284.125 205.125,304.5 194.375,330.375 191.875,360.25 197.125,391.625 208.125,422.375 222.875,450.875 239.25,476.0 255.625,497.5 271.0,515.25 284.75,529.75 296.875,541.375 307.25,550.5 316.0,557.5 323.375,562.875 329.5,566.875 334.75,569.625 339.25,571.5 343.125,572.625 346.625,573.125 349.75,573.125 352.625,572.75 355.375,572.0"/>
    <polyline points="358.0,571.125 376.625,562.375 385.125,559.125 393.625,556.75 402.0,555.375 410.125,554.875 419.875,555.625 424.375,556.5"/>
    <polyline points="426.625,557.125 432.5,559.25 436.125,561.0 442.375,565.25 446.25,569.125 449.5,573.375 452.75,579.875 454.5,585.25 455.5,591.25"/>
    <polyline points="455.625,593.25 455.75,597.625 455.25,604.625 454.5,609.625 453.25,614.875 450.5,623.25 446.25,632.25 440.125,641.75 437.5,645.125 431.25,651.875 423.375,658.875 413.25,665.75"/>
    <polyline points="407.25,669.125 400.375,672.375 392.625,675.5 384.0,678.375 374.25,680.875 363.25,683.0 351.0,684.25 337.625,684.75 323.0,684.0 307.375,681.875 291.25,677.75 274.875,671.5 259.375,662.625 245.375,651.0 234.25,636.625 226.875,619.625 223.875,600.75 225.5,580.75 231.625,560.375 241.375,540.75 253.875,522.375 267.875,505.875 282.5,491.5 296.875,479.125 310.5,468.625 323.0,460.125"/>
    <polyline points="334.25,453.0 344.25,447.25 360.75,439.0 373.25,433.875 386.5,430.0 395.75,428.875 400.375,429.0 406.25,429.75 419.5,433.25"/>
    <polyline points="420.75,433.625 426.5,434.5 429.625,434.5 433.875,433.625 436.0,432.5 437.625,431.125 438.75,429.25 439.375,427.125"/>
    <polyline points="439.375,426.25 439.125,422.75 437.75,418.875 435.875,415.625 433.375,412.375 431.25,410.125 426.25,405.875 421.625,403.0 418.25,401.375"/>
    <polyline points="416.375,400.625 409.0,398.625 403.375,398.25 398.125,399.0 395.0,400.25 393.625,401.125 391.375,403.25 390.5,404.5 389.25,407.375 389.0,409.0 388.875,412.5 389.125,414.25 391.0,420.0"/>
    <polyline points="392.0,421.875 395.875,427.625 400.875,432.875 406.5,437.5 412.625,441.375 418.75,444.375 426.75,447.25 432.375,448.5 437.625,449.0"/>
    <polyline points="439.25,449.125 443.75,448.75 448.875,447.5 452.125,445.875 454.75,443.75 456.75,441.125 458.125,438.0 458.875,434.5 458.875,430.375"/>
    <polyline points="458.625,428.875 458.125,425.875 456.5,420.875 452.875,413.625 448.75,407.625 443.375,401.5 436.5,395.25 431.0,391.25 424.75,387.375 417.75,383.875 414.0,382.375"/>
    <polyline points="410.0,381.0 401.875,378.75 393.375,377.625 384.875,377.75 380.875,378.375 377.0,379.375 373.25,380.75 369.875,382.625 366.875,384.875 364.375,387.5 362.25,390.625 360.75,394.0 359.625,397.625 359.25,401.625 359.25,405.75 359.875,410.0 361.0,414.375 364.625,423.125 367.125,427.375 369.875,431.625 376.25,439.5"/>
    <polyline points="379.875,443.125 387.25,449.875 391.0,452.875 398.75,458.25 406.375,462.75 417.375,468.25 424.25,471.0 436.875,475.0 445.125,476.875 452.625,478.0 459.25,478.5"/>
    <polyline points="461.25,478.5 465.0,478.5 471.625,477.875 477.0,476.5 480.5,475.0 485.125,471.875 486.625,470.375 489.625,465.875"/>
    <polyline points="490.0,464.875 491.25,461.5 492.25,456.5 492.625,449.125 492.125,442.25 491.125,436.5 489.625,430.0 487.25,423.0"/>
    <polyline points="486.375,420.5 484.125,415.125 477.875,403.375 473.625,397.0 468.375,390.125 458.25,379.25 454.125,375.375 444.5,367.625 433.0,359.875 426.375,356.125 419.125,352.375 411.25,349.0 402.875,345.875 393.75,343.125 384.25,341.0 374.375,339.5"/>
    <polyline points="364.125,338.875 353.875,339.25 343.875,340.75 334.375,343.625 325.625,347.75 318.0,353.375 311.75,360.375 307.25,368.625 304.5,378.0 303.625,388.0 304.625,398.625 307.125,409.375 311.125,420.125 316.25,430.5 322.25,440.375 328.875,449.625 336.0,458.125 343.25,465.875 350.5,472.875 357.75,479.125 364.875,484.75 378.375,494.0 384.625,497.875 396.375,504.375"/>
    <polyline points="401.875,507.125 412.0,511.75 421.0,515.375 446.125,524.625 459.125,529.75 469.25,534.5 475.75,538.5"/>
    <polyline points="477.25,539.5 481.125,542.5 484.5,545.75 489.25,551.625 493.75,559.375 498.5,571.5"/>
    <polyline points="499.0,573.25 504.75,592.0 507.0,598.5 509.75,605.25 513.25,612.25 516.25,617.125 519.75,621.875 524.25,626.75"/>
    <polyline points="526.875,629.125 533.0,633.75 536.75,635.875 545.375,639.75 550.5,641.375 562.75,643.875 570.0,644.625 578.0,644.75 586.875,644.375 596.625,643.375 607.25,641.5 618.625,638.75 630.75,635.0 643.5,630.0 656.375,623.875 669.125,616.625 681.375,608.125 692.375,598.625 701.875,588.375 709.375,577.625 714.375,566.75 716.875,556.25 716.875,546.25"/>
    <polyline points="714.5,537.25 710.25,529.25 704.375,522.5 697.375,516.75 689.75,512.125 681.875,508.375 673.75,505.5 665.875,503.25 651.0,500.125 631.625,497.75 599.375,494.875 589.375,493.375 580.875,491.5"/>
    <polyline points="578.375,490.875 571.5,488.625 565.5,486.0 560.375,483.25 555.75,480.125 551.75,476.75 547.25,471.875 543.375,466.5 541.75,463.5"/>
    <polyline points="540.875,462.0 538.0,455.5 533.75,442.25 527.375,414.875 524.875,405.375"/>
    <polyline points="524.0,402.0 519.0,387.125 515.625,378.625 513.5,374.125 508.375,364.375 501.5,353.625 497.25,347.75 492.375,341.625 486.625,335.125 479.875,328.25 471.875,321.125 462.5,313.5 451.625,305.5 438.625,297.375 423.5,289.125 405.875,280.875 385.5,273.125 362.125,266.375 336.125,261.375 308.0,259.25"/>
    <polyline points="278.875,261.0 250.625,268.125 225.5,281.375 206.0,301.125 194.125,326.625 190.75,356.375 195.125,387.875 205.75,419.125 220.25,448.125 236.625,473.875 253.125,495.875 268.75,514.125 282.875,529.0 295.125,540.875 305.625,550.25 314.5,557.5 322.0,563.0 328.25,567.125 338.0,571.875 342.0,573.0 345.375,573.5 348.5,573.5 351.375,573.0 356.75,571.375"/>
    <polyline points="359.375,570.25 372.75,563.5 381.25,559.75 390.0,556.875 395.75,555.5 407.0,554.125 412.25,554.125 417.375,554.375 426.625,556.125"/>
    <polyline points="428.75,556.75 434.625,559.0 439.75,561.875 442.875,564.125 445.625,566.625 449.25,570.625 451.25,573.625 453.75,578.5 455.625,583.875 456.5,587.75 457.0,591.75"/>
    <polyline points="457.125,593.875 457.25,600.625 456.875,605.5 454.875,615.875 452.125,624.375 448.0,633.5 441.875,643.375 436.5,650.25 433.25,653.75 425.375,660.875 420.75,664.5 415.375,668.125"/>
    <polyline points="409.375,671.625 402.5,675.125 394.75,678.375 386.0,681.5 376.0,684.25 364.875,686.5 352.375,688.125 338.5,688.875 323.25,688.375 306.875,686.5 289.75,682.5 272.25,676.25 255.5,667.25 240.375,655.125 228.125,640.125 220.0,622.125 216.625,602.125 218.375,580.625 225.0,559.0 235.625,538.0 249.125,518.625 264.0,501.25 279.5,486.125 294.5,473.375 308.625,462.625 321.375,453.75"/>
    <polyline points="332.75,446.625 342.75,440.875 358.75,432.625 370.5,427.625 379.125,425.0 382.625,424.25 385.625,423.75 390.625,423.625 396.625,424.75 399.875,425.875 404.5,428.0 413.125,432.5"/>
    <polyline points="414.5,433.125 420.0,435.25 424.0,436.375 429.0,437.125 432.25,437.125 436.125,436.375 438.625,435.25 441.125,433.125"/>
    <polyline points="441.5,432.5 442.875,429.5 443.125,425.75 442.25,421.5 441.25,419.125 439.25,415.5 435.375,410.375 429.875,405.375"/>
    <polyline points="428.375,404.125 421.125,399.5 417.0,397.625 412.625,396.125 405.75,394.625 399.0,394.5 396.75,394.75 392.75,395.875 389.25,397.75 387.75,398.875 386.5,400.25 384.5,403.5 383.5,407.375"/>
    <polyline points="383.375,409.375 383.75,413.875 386.25,420.75 387.5,423.125 390.625,427.75 396.25,434.125 402.875,439.75 412.375,445.875 419.5,449.25 428.625,452.375"/>
    <polyline points="430.875,452.875 437.0,454.125 442.625,454.5 447.625,454.25 453.375,453.0 457.0,451.375 460.875,448.5 462.375,446.75 464.125,443.625"/>
    <polyline points="464.625,442.5 465.5,438.75 465.75,433.0 465.0,428.0 462.625,420.75 459.75,414.625 455.625,408.0 450.125,401.0 445.5,396.25"/>
    <polyline points="442.875,393.875 440.0,391.375 433.625,386.625 426.25,382.0 418.0,377.75 408.75,374.125 403.875,372.625 393.625,370.625 383.125,370.0 377.875,370.375 372.875,371.25 368.0,372.625 363.625,374.625 359.5,377.125 356.0,380.125 353.125,383.625 350.875,387.75 349.375,392.25 348.5,397.0 348.375,402.125"/>
    <polyline points="349.0,407.5 350.375,412.875 352.25,418.375 354.875,423.75 357.875,429.0 361.25,434.125 365.0,439.0 369.0,443.625 377.625,452.125 386.625,459.5 391.0,462.625 399.875,468.25 408.5,473.0 416.625,476.75 427.875,481.25 441.125,485.25"/>
    <polyline points="444.125,486.0 457.375,488.625 464.125,489.5 469.875,489.875 475.0,490.0 482.125,489.5 488.625,487.875"/>
    <polyline points="489.5,487.625 493.5,485.5 497.5,481.5 499.875,477.0 501.5,470.5"/>
    <polyline points="501.625,469.5 502.125,463.625 501.625,452.0 499.5,439.0 496.625,427.75"/>
    <polyline points="495.75,425.25 490.25,411.5 487.125,405.375 481.0,395.25 475.75,387.875 472.625,384.0 469.25,380.0 461.125,371.625 451.125,363.0 445.25,358.5 438.625,354.0 431.375,349.625 423.5,345.25 414.75,341.125 405.125,337.25 394.75,333.75"/>
    <polyline points="383.75,330.875 372.0,328.75 359.875,327.625 347.5,327.75 335.25,329.375 323.5,332.5 312.75,337.625 303.5,344.375 296.125,353.125 290.875,363.375 288.125,375.0 287.75,387.5 289.625,400.5 293.5,413.5 299.0,426.375 305.625,438.5 313.25,449.875 321.375,460.25 329.75,469.75 338.25,478.125 346.5,485.5 354.5,492.125 362.125,497.75 369.375,502.75 382.875,511.0"/>
    <polyline points="389.0,514.25 400.25,519.875 410.125,524.25 436.875,534.75 448.0,539.5 457.0,544.0 460.875,546.375 467.375,551.25"/>
    <polyline points="468.75,552.5 475.0,559.375 478.875,565.375 482.125,572.0 485.875,583.25 488.875,596.25"/>
    <polyline points="489.375,598.625 493.125,616.625 496.25,628.25 499.625,637.625 502.625,644.0 504.5,647.25 509.0,653.875 511.875,657.125 515.125,660.375 519.0,663.625 523.375,666.625 528.625,669.5 534.625,672.25"/>
    <polyline points="541.75,674.625 550.125,676.625 559.75,678.125 571.0,678.875 584.125,678.75 599.25,677.375 616.5,674.5 636.0,669.75 657.375,662.75 680.25,653.125 703.875,640.75 726.875,625.375 747.75,607.625 764.75,588.0 776.625,567.625 782.25,547.75 781.875,529.625 776.25,514.125 766.75,501.5 754.75,491.875 741.75,485.0 728.625,480.5 716.25,477.75 704.875,476.375 694.75,476.125 685.875,476.5"/>
    <polyline points="678.125,477.5 671.375,478.75 660.375,481.875 655.875,483.5 635.125,492.5 629.25,494.625 623.375,496.25 617.625,497.375 609.125,498.125 600.875,498.0 592.875,497.125"/>
    <polyline points="590.375,496.625 583.0,495.0 574.25,492.375 562.875,487.25 559.625,485.375 553.875,481.25 550.0,477.875 546.625,474.25"/>
    <polyline points="545.625,473.0 541.0,466.25 538.625,461.75 536.5,456.875 534.0,449.75 531.625,441.75 528.25,427.75"/>
    <polyline points="527.625,425.125 523.125,407.625 519.875,397.25 517.125,389.625 511.5,376.875 509.125,372.25 503.25,362.25 495.5,351.25 485.0,338.875 478.375,332.25 470.75,325.375 461.875,318.0 451.375,310.375"/>
    <polyline points="439.125,302.625 424.75,294.625 408.25,286.875 389.125,279.375 367.375,272.875 343.125,267.875 316.875,265.375 289.625,266.25 262.625,271.875 238.25,283.0 218.375,300.0 205.125,322.5 199.375,349.375 201.25,378.625 209.25,408.25 221.75,436.5 236.75,462.0 252.5,484.375 267.875,503.125 282.125,518.75 294.875,531.5 306.125,541.625 315.75,549.625 323.875,555.875 337.0,564.25"/>
    <polyline points="342.125,566.875 346.625,568.625 350.5,569.75 354.125,570.5 360.25,570.625 365.75,569.75 386.0,563.375 393.5,561.625 400.875,560.5 410.25,560.375"/>
    <polyline points="412.375,560.5 418.625,561.5 424.375,563.125 431.0,566.375 433.875,568.375 437.625,571.875 440.75,575.75 443.75,581.75 445.125,586.875"/>
    <polyline points="445.5,588.75 445.875,594.375 445.625,598.5 445.0,602.875 443.25,609.75 441.375,614.625 438.875,619.625 435.625,624.875 431.5,630.25 426.25,635.875 423.25,638.625 416.125,644.125 407.25,649.625"/>
    <polyline points="402.0,652.125 396.25,654.625 389.875,656.875 382.875,658.875 375.25,660.5 366.875,661.75 357.75,662.5 348.0,662.625 337.5,661.875 326.75,660.125 315.625,657.25 304.5,653.125 293.875,647.5 284.0,640.25 275.5,631.375 268.875,621.0 264.5,609.25 262.625,596.5 263.5,583.0 267.0,569.25 272.75,555.75 280.5,542.875 289.5,530.75 299.5,519.75 310.0,510.0 320.5,501.375"/>
    <polyline points="330.875,494.0 340.75,487.75 350.125,482.375 358.875,478.0 367.0,474.25 381.5,468.75 393.75,465.125 408.875,461.875 420.75,460.125 438.375,458.25 448.75,456.5"/>
    <polyline points="450.5,456.125 453.75,455.125 460.0,451.875 463.75,448.375 465.125,446.25 467.0,441.625 467.625,437.5 467.5,432.875 467.0,429.625"/>
    <polyline points="466.625,427.875 465.0,422.25 463.25,418.125 461.125,413.875 458.375,409.375 453.125,402.25 443.375,392.25 433.625,384.75 425.875,380.0 417.125,375.625 407.375,371.875"/>
    <polyline points="402.125,370.375 391.25,368.375 385.75,367.875 380.125,368.0 374.75,368.5 369.375,369.5 364.5,371.125 359.875,373.375 355.75,376.25 352.25,379.625 349.375,383.625 347.25,388.0 345.875,393.0 345.375,398.25 345.5,403.75 346.5,409.375 348.25,415.125 350.625,420.875 353.5,426.625 356.875,432.125 360.625,437.375 369.125,447.125 378.25,455.625"/>
    <polyline points="382.875,459.5 387.5,463.0 401.375,471.75 410.0,476.25 422.25,481.625 433.125,485.5 439.75,487.5 448.75,489.75 454.125,490.875 467.625,492.875"/>
    <polyline points="469.625,493.0 474.875,493.375 484.625,493.125 487.875,492.625 492.5,491.375 494.75,490.375 497.25,488.75"/>
    <polyline points="497.75,488.25 500.5,485.125 501.875,482.5 503.5,477.0 504.375,469.0"/>
    <polyline points="504.375,467.75 504.375,462.75 503.75,454.0 502.5,445.375 499.75,432.875 496.625,423.0"/>
    <polyline points="495.625,420.375 492.125,411.875 487.25,402.25 483.0,395.375 477.875,387.875 474.875,384.0 467.625,375.875 458.75,367.125 453.5,362.625 441.125,353.5 433.875,349.0 425.875,344.5 417.125,340.125 407.375,336.0 396.875,332.25 385.625,329.125 373.625,326.75"/>
    <polyline points="361.0,325.25 348.125,325.125 335.375,326.375 323.0,329.375 311.625,334.25 301.625,341.125 293.625,349.875 287.875,360.375 284.625,372.375 284.0,385.25 285.75,398.875 289.625,412.5 295.25,425.75 302.25,438.5 310.125,450.375 318.5,461.125 327.125,470.875 335.75,479.625 344.25,487.25 352.375,494.0 360.25,499.875 367.625,505.0 374.625,509.375 381.25,513.25 393.25,519.625"/>
    <polyline points="398.75,522.25 413.25,528.5 438.375,538.375 448.75,543.125 455.25,546.625 459.0,549.0 465.5,554.125 468.25,556.875"/>
    <polyline points="469.5,558.25 471.875,561.125 475.875,567.25 479.75,575.875 481.625,581.625 484.125,592.125 486.625,606.625"/>
    <polyline points="487.0,609.25 489.875,626.375 492.75,639.125 494.875,645.875 497.625,652.75 501.25,660.0 503.625,663.5 509.5,670.75 513.375,674.25 517.875,677.75 523.125,681.0 529.5,684.125 537.0,686.875 546.0,689.125"/>
    <polyline points="556.625,690.875 569.25,691.75 584.125,691.625 601.625,690.0 621.875,686.5 645.0,680.625 670.75,671.75 698.375,659.625 726.875,643.625 754.0,624.0 777.625,601.25 795.375,576.75 805.375,552.25 807.25,529.5 801.875,509.875 791.0,494.25 776.875,482.625 761.5,474.75 746.25,470.0 732.125,467.625 719.75,467.0 709.125,467.625 700.125,469.25 692.75,471.5 686.5,474.125 681.375,477.0"/>
    <polyline points="677.0,480.125 673.125,483.25 660.5,495.25 654.25,500.375 651.0,502.625 647.625,504.5 640.5,507.75 636.875,509.0 629.25,510.875 617.75,512.25 606.625,512.25 589.5,510.375"/>
    <polyline points="586.375,509.875 580.375,508.75 569.75,506.125 558.75,502.625 553.0,500.375 545.125,496.625 541.125,494.375 537.625,491.875"/>
    <polyline points="536.5,491.125 531.0,485.875 526.0,478.875 522.75,472.0 519.875,463.875"/>
    <polyline points="519.5,462.375 517.25,454.375 514.0,440.875 509.25,424.125 502.5,406.125"/>
    <polyline points="500.875,402.75 495.125,391.625 490.125,383.5 487.125,379.25 483.75,374.75 475.625,365.25 465.25,355.0 459.125,349.625 444.125,338.5 435.125,332.875 425.0,327.25 413.625,321.75 401.0,316.625 387.0,312.0 371.875,308.25 355.625,305.625 338.625,304.625 321.375,305.75 304.625,309.25 289.0,315.5"/>
    <polyline points="275.5,324.875 265.0,337.125 258.125,351.875 255.125,368.75 256.0,386.75 260.125,405.25 267.125,423.375 276.0,440.5 286.125,456.125 296.875,470.25 307.625,482.75 318.25,493.5 328.25,502.875 337.75,510.75 354.625,523.125 362.125,527.875 375.25,535.375 391.25,542.875 407.625,549.375"/>
    <polyline points="411.125,550.625 420.125,554.0 427.625,557.25 435.875,561.75 440.875,565.5 445.0,569.5 449.25,575.5 451.625,580.5 452.75,584.125"/>
    <polyline points="453.25,586.0 454.125,592.0 454.375,596.25 453.75,605.5 452.125,613.0 449.5,621.125 445.375,629.875 441.625,636.125 434.125,645.75 427.375,652.375"/>
    <polyline points="423.25,655.75 413.625,662.5 407.875,665.75 401.375,669.0 394.0,672.0 385.75,674.875 376.625,677.25 366.25,679.375 354.875,680.75 342.25,681.375 328.5,680.875 313.875,679.125 298.625,675.75 283.125,670.25 268.125,662.5 254.5,652.25 243.0,639.5 234.75,624.125 230.375,606.875 230.25,588.25 234.5,569.0 242.375,550.0 253.125,532.125 265.875,515.625 279.625,500.875"/>
    <polyline points="293.5,488.25 307.0,477.375 319.625,468.375 331.25,460.875 341.75,454.625 351.0,449.75 366.5,442.5 378.5,438.0 391.75,434.5 403.75,433.25 410.375,433.375 420.375,434.5"/>
    <polyline points="421.75,434.625 426.75,435.0 429.0,434.875 431.875,434.5 434.375,433.75 436.5,432.5 438.5,430.375 439.375,428.375 439.75,426.0"/>
    <polyline points="439.75,425.125 439.0,421.375 438.25,419.375 436.5,416.125 433.125,411.75 429.75,408.375 424.125,404.25 420.875,402.375 415.5,400.125"/>
    <polyline points="413.625,399.5 409.875,398.5 406.0,398.0 400.375,398.25 398.625,398.5 395.375,399.625 391.5,402.5 390.5,403.625 389.125,406.5 388.375,409.75 388.375,411.5 388.875,415.25 389.5,417.125 392.25,423.0"/>
    <polyline points="393.5,424.875 398.0,430.5 403.5,435.5 409.5,439.875 415.75,443.375 424.0,446.75 429.875,448.375 435.375,449.25 440.375,449.5"/>
    <polyline points="441.875,449.375 446.125,448.875 451.0,447.125 453.0,446.0 456.25,442.875 458.0,440.0 459.25,435.5 459.5,431.5 459.125,428.5"/>
    <polyline points="458.875,427.0 456.75,420.375 454.125,414.875 448.625,406.875 443.125,400.625 436.0,394.375 427.125,388.25 416.625,382.875 408.75,380.0"/>
    <polyline points="404.625,378.875 396.0,377.375 387.375,377.0 383.125,377.375 379.0,378.125 375.125,379.25 371.5,380.875 368.125,382.875 365.25,385.25 362.875,388.125 360.875,391.375 359.5,394.875 358.625,398.75 358.375,402.875 358.625,407.125 359.375,411.5 360.75,416.0 364.875,424.875 370.375,433.375 373.625,437.375 380.75,444.875"/>
    <polyline points="384.5,448.25 392.125,454.5 403.75,462.125 415.0,467.875 422.125,470.875 435.125,475.25 443.75,477.25 451.375,478.625 462.25,479.375"/>
    <polyline points="464.125,479.375 469.375,479.125 475.25,478.125 477.875,477.375 482.25,475.375 485.0,473.5 488.0,470.5 490.75,465.875"/>
    <polyline points="491.125,464.875 492.25,461.5 493.25,455.0 493.375,448.875 493.0,443.75 491.75,436.125 490.75,431.875 487.75,422.5"/>
    <polyline points="486.75,419.875 484.5,414.5 481.625,408.75 478.125,402.625 471.25,392.75 461.875,381.875 453.75,374.25 444.0,366.375 432.125,358.5 417.875,351.0 409.75,347.625 401.125,344.5 391.875,341.75 382.125,339.75 372.0,338.375"/>
    <polyline points="361.625,337.875 351.25,338.5 341.125,340.25 331.5,343.375 322.75,348.0 315.375,354.0 309.375,361.375 305.125,370.125 302.75,379.75 302.375,390.125 303.75,401.0 306.625,412.0 311.0,422.75 316.5,433.25 322.75,443.125 329.625,452.25 336.875,460.75 344.25,468.375 351.625,475.25 359.0,481.5 366.125,486.875 372.875,491.75 379.5,496.0 385.75,499.75 397.5,506.125"/>
    <polyline points="402.875,508.75 421.75,516.875 457.125,530.125 467.5,535.0 475.75,540.0"/>
    <polyline points="477.125,541.125 481.0,544.25 484.375,547.625 489.0,553.75 493.375,561.875 495.875,567.875 498.125,574.5"/>
    <polyline points="498.625,576.25 503.25,591.75 508.0,605.0 510.125,609.75 514.125,617.0 517.5,622.0 524.125,629.375 527.0,631.75"/>
    <polyline points="530.0,634.125 537.375,638.625 541.75,640.625 546.625,642.5 552.25,644.125 558.375,645.375 565.375,646.375 573.125,646.875 581.75,646.875 591.25,646.125 601.75,644.75 613.25,642.375 625.5,639.0 638.375,634.5 651.875,628.75 665.25,621.75 678.375,613.375 690.625,604.0 701.375,593.5 710.125,582.5 716.5,571.125 720.25,559.875 721.25,549.25 719.625,539.5 715.875,530.75"/>
    <polyline points="710.25,523.25 703.375,516.875 695.625,511.75 687.375,507.75 679.125,504.5 670.875,502.125 663.0,500.25 648.25,497.875 629.625,496.0 606.125,494.375 595.375,493.125 589.25,492.125 578.625,489.625"/>
    <polyline points="576.375,488.875 570.0,486.5 566.25,484.75 561.125,481.875 555.375,477.625 551.625,474.125 547.375,469.0 544.625,464.75 542.25,460.25"/>
    <polyline points="541.5,458.625 538.75,451.75 535.25,440.0 529.125,411.875 525.75,398.75"/>
    <polyline points="524.75,395.125 522.375,387.5 517.375,374.625 512.875,365.0 510.0,359.875 506.75,354.5 498.5,342.625 487.125,329.375 479.875,322.25 471.375,314.625 461.25,306.625 449.375,298.25 435.125,289.625 418.5,280.875 399.0,272.25 376.375,264.375 350.625,257.625 321.875,253.25 291.25,252.5 260.125,256.5"/>
    <polyline points="231.0,266.875 206.5,284.375 189.5,308.875 181.5,338.875 182.75,372.25 191.625,406.125 205.875,438.25 222.875,467.125 240.5,492.0 257.375,512.625 272.5,529.375 285.625,542.75 296.875,553.125 306.125,561.125 313.75,567.0 320.0,571.25 325.125,574.125 329.375,576.0 333.125,576.875 336.25,577.0 339.125,576.5 344.375,574.25 352.375,568.875"/>
    <polyline points="355.125,566.875 364.25,560.75 374.25,555.25 384.75,551.0 395.125,548.0 401.875,546.75 408.375,546.0 414.625,545.75 423.375,546.25 428.625,547.0 433.625,548.125"/>
    <polyline points="436.0,548.75 440.5,550.25 446.5,553.0 451.75,556.125 456.25,559.75 461.375,565.25 464.5,569.875 467.875,576.75 469.75,582.375"/>
    <polyline points="470.25,584.375 471.625,590.75 472.5,597.5 473.0,612.875 472.625,621.625 471.375,634.25 469.125,648.375 467.5,656.125"/>
    <polyline points="466.5,660.125 462.875,672.75 459.625,681.875 455.375,691.375 452.75,696.375 449.875,701.5 446.375,706.875 442.25,712.25 437.5,717.875 431.75,723.625 425.0,729.625 416.75,735.625 406.875,741.625 394.875,747.75 380.0,753.625 362.0,759.25 339.75,764.0 312.875,767.25 280.5,768.25 242.625,765.125 200.25,755.875 156.375,737.875"/>
    <polyline points="116.625,708.875 88.375,667.75 78.5,616.75 89.125,561.125 116.5,507.125 152.625,459.875 189.5,421.125 246.375,367.875 263.125,350.75 272.625,338.25 276.0,329.875 274.5,325.0 269.625,323.625 262.875,325.75 255.75,331.25 249.375,340.0 244.875,351.75 243.0,365.875 244.0,381.875 247.875,398.625 254.375,415.625 262.75,432.125 272.625,447.5 283.25,461.625 294.0,474.25"/>
    <polyline points="304.875,485.375 315.25,494.875 325.125,503.125 334.375,510.125 343.125,516.0 358.625,525.125 371.875,531.625 383.25,536.375 397.75,541.25 425.375,549.75 435.375,553.75"/>
    <polyline points="437.5,554.875 441.5,557.0 448.375,561.875 452.5,566.0 456.0,570.5 458.875,575.375 461.625,582.625 463.0,588.625 463.875,595.125"/>
    <polyline points="464.0,597.375 463.875,607.25 461.875,621.0 459.5,630.125 457.25,636.75 454.375,643.625 452.625,647.25 448.375,654.625 443.0,662.5 436.0,670.625 426.875,679.0"/>
    <polyline points="421.25,683.25 414.875,687.625 407.375,691.875 398.75,696.0 388.875,700.0 377.375,703.625 364.0,706.75 348.75,709.25 331.375,710.625 311.875,710.5 290.375,708.375 267.375,703.375 243.75,694.875 221.125,682.125 201.375,664.625 186.625,642.5 179.125,616.25 179.5,587.375 187.75,557.75 202.25,529.125 220.75,503.125 241.0,480.25 261.0,461.125 279.625,445.25 295.875,432.5 309.75,422.25"/>
    <polyline points="321.125,414.25 342.5,400.0 349.25,396.375 351.25,395.75 352.75,395.875 353.75,396.75 354.5,398.0 357.875,407.75 360.75,414.25 362.5,417.75 367.0,424.875 372.5,431.875 378.75,438.5 389.125,447.5"/>
    <polyline points="392.75,450.125 396.25,452.625 407.0,459.0 417.375,463.875 427.0,467.5 435.75,470.0 446.25,472.0 455.125,472.75 462.75,472.5"/>
    <polyline points="464.375,472.25 467.625,471.75 471.75,470.625 476.5,468.375 479.375,466.25 481.75,463.75 483.625,460.75 485.125,457.5 486.375,452.375"/>
    <polyline points="486.625,451.0 486.875,444.75 486.25,437.75 484.5,429.625 483.125,425.125 479.125,415.25 476.375,409.875 470.875,401.0 466.25,394.75"/>
    <polyline points="463.5,391.5 457.25,384.625 453.625,381.25 449.625,377.625 440.375,370.5 429.375,363.5 416.375,356.875 409.125,353.875 401.375,351.25 393.25,349.0 384.625,347.125 375.75,346.125 366.75,345.75 357.75,346.25 349.0,347.75 340.75,350.5 333.125,354.25 326.5,359.25 321.125,365.375 317.125,372.5 314.5,380.625 313.5,389.375"/>
    <polyline points="314.125,398.5 316.0,408.0 319.25,417.375 323.5,426.625 328.625,435.625 334.375,444.0 340.625,451.875 347.125,459.0 353.75,465.625 360.375,471.625 373.5,481.875 379.75,486.125 391.625,493.375 397.25,496.5 407.75,501.625 417.25,505.75 429.875,510.625 440.75,514.375"/>
    <polyline points="444.0,515.5 467.125,523.5 474.5,526.625 482.0,530.5 489.875,536.25"/>
    <polyline points="490.75,537.125 494.875,541.625 498.25,546.625 499.875,549.75 502.875,556.875 505.5,564.875"/>
    <polyline points="505.875,566.25 511.875,586.125 515.75,595.75 520.125,603.875 523.0,608.125 526.375,612.25"/>
    <polyline points="528.25,614.375 532.875,618.5 538.375,622.375 545.0,625.875 553.25,628.875 563.125,631.0 575.125,632.0 582.0,632.0 597.375,630.375 606.0,628.625 615.0,626.25 624.375,623.25 634.0,619.375 643.625,614.625 653.25,609.125 662.25,602.875 670.625,596.0 678.0,588.5 684.0,580.625"/>
    <polyline points="688.5,572.625 691.375,564.625 692.5,556.875 692.0,549.5 690.0,542.75 686.625,536.625 682.25,531.25 677.0,526.625 671.125,522.625 665.0,519.25 658.625,516.5 652.125,514.25 639.5,510.75 622.125,507.375 583.875,501.625"/>
    <polyline points="580.625,501.0 567.0,497.625 556.375,493.875 552.875,492.25 546.625,488.75 544.0,486.875 539.25,482.875 536.25,479.625"/>
    <polyline points="535.375,478.5 532.0,473.75 529.875,470.0 526.125,461.25 523.375,452.875 519.5,438.875"/>
    <polyline points="519.0,436.625 513.75,418.5 509.25,406.0 504.625,395.25 498.0,383.125 492.25,374.25 484.75,364.375 475.125,353.75 462.625,342.25"/>
    <polyline points="455.0,336.125 446.25,330.0 436.25,323.625 424.875,317.375 412.0,311.25 397.5,305.375 381.375,300.25 363.75,296.125 344.75,293.375 324.875,292.875 304.875,294.875 285.625,300.125 268.25,309.0 254.125,321.5 244.125,337.625 238.875,356.625 238.5,377.375 242.5,399.0 250.0,420.25 260.0,440.375 271.625,458.75 283.75,475.0 295.875,489.25 307.5,501.375 318.5,511.625 328.625,520.25"/>
    <polyline points="337.75,527.375 346.125,533.25 360.375,542.25 372.0,548.25 386.0,554.125 415.25,563.375 423.0,566.75 427.625,569.75"/>
    <polyline points="429.0,570.75 432.75,574.25 435.625,578.125 437.75,582.5 438.75,585.625 439.375,588.875 439.625,594.25 439.0,600.125 438.0,604.25 436.5,608.5 434.375,613.0"/>
    <polyline points="433.125,615.375 428.125,622.375 423.625,627.25 418.25,632.125 411.5,636.875 403.375,641.375 393.625,645.5 388.0,647.25 375.25,650.0 368.125,650.875 360.5,651.25 352.5,651.125 344.0,650.375 335.375,648.75 326.5,646.375 317.75,642.875 309.375,638.375 301.625,632.75"/>
    <polyline points="294.875,626.0 289.25,618.125 285.25,609.125 283.0,599.375 282.625,589.0 284.25,578.375 287.625,567.625 292.625,557.0 299.0,546.875 306.375,537.5 314.5,528.75 323.0,520.875 331.75,514.0 340.375,507.875 349.0,502.5 357.125,498.0 372.5,490.875 386.25,486.0 392.5,484.125 403.875,481.375 418.375,478.875"/>
    <polyline points="422.625,478.375 460.625,475.25 469.375,473.5 474.875,471.5 478.25,469.625"/>
    <polyline points="479.25,468.875 481.875,466.5 484.0,463.875 486.25,459.625 487.375,456.0 488.375,449.0 488.0,440.625 487.375,436.875"/>
    <polyline points="487.0,434.875 486.125,430.75 484.0,423.875 479.75,413.75 476.75,408.125 473.125,402.25 466.0,392.625 460.0,385.75 452.625,378.625 448.375,375.0 438.625,367.75 426.875,360.625"/>
    <polyline points="420.25,357.125 405.375,351.0 397.125,348.375 388.5,346.25 379.5,344.75 370.25,344.0 360.875,344.0 351.625,345.125 342.75,347.25 334.5,350.625 327.25,355.25 321.0,361.125 316.125,368.0 312.875,376.0 311.125,384.75 311.125,394.25 312.5,403.875 315.375,413.75 319.375,423.375 324.375,432.75 330.125,441.625 336.375,449.875 343.0,457.625 349.75,464.625 356.625,471.0"/>
    <polyline points="363.375,476.625 376.5,486.375 382.75,490.375 388.75,494.0 400.125,500.125 410.375,505.0 428.0,512.125 456.75,522.125 465.875,525.625"/>
    <polyline points="467.875,526.5 473.375,528.875 478.125,531.375 485.875,536.625 488.0,538.375 492.5,543.125 496.75,549.5"/>
    <polyline points="497.375,550.625 501.75,560.625 510.5,588.375"/>
    <polyline points="511.125,590.25 515.5,600.5 517.75,604.75 522.125,611.25 527.75,617.75 532.625,621.875 535.5,623.875 542.125,627.75 550.125,631.0 554.875,632.375 565.875,634.375 572.25,634.875 579.125,635.0"/>
    <polyline points="586.75,634.625 595.0,633.75 603.875,632.125 613.25,629.875 623.125,626.875 633.375,623.0 643.75,618.25 654.125,612.625 664.0,606.125 673.25,598.75 681.375,590.875 688.25,582.375 693.375,573.75 696.625,565.125 698.125,556.75 697.75,548.875 695.75,541.625 692.25,535.125 687.5,529.375 681.875,524.5 675.75,520.375 669.125,516.875 662.375,514.0 648.875,509.75 642.375,508.25"/>
    <polyline points="636.125,507.0 619.125,504.25 592.625,500.75 576.5,497.625 568.75,495.5 562.125,493.25 556.375,490.75 553.0,488.875"/>
    <polyline points="551.375,488.0 544.5,483.125 540.0,478.75 537.125,475.25 532.25,467.375 527.75,456.5"/>
    <polyline points="527.25,454.75 515.125,412.625 512.875,406.125 508.5,395.5 504.625,387.5"/>
    <polyline points="502.375,383.375 497.0,374.375 490.0,364.5 485.75,359.25 475.375,348.0 469.0,342.0 461.625,335.75 453.25,329.375 443.625,322.75 432.5,316.0 419.75,309.375 405.375,303.0 389.125,297.0 371.125,291.875 351.375,288.125 330.25,286.25 308.625,287.0 287.25,291.0 267.375,299.0 250.625,311.125 238.0,327.25 230.75,347.0 228.875,369.125"/>
    <polyline points="232.0,392.5 239.5,415.625 249.875,437.75 262.125,457.875 275.0,475.75 288.0,491.25 300.25,504.375 311.75,515.375 322.25,524.625 331.75,532.125 340.25,538.25 354.5,547.375 366.0,553.25 379.375,558.625 389.75,561.5 403.125,564.375"/>
    <polyline points="405.375,564.875 415.25,567.625 421.625,570.625 425.5,573.375 428.75,576.625 431.25,580.25 433.0,584.375 433.75,587.375 434.125,590.5"/>
    <polyline points="434.125,592.25 434.0,595.625 433.375,599.25 430.75,607.0 425.75,615.25 420.125,621.625 415.125,625.875 409.25,630.0 405.875,632.0 398.125,635.625 388.875,638.75 383.75,640.125"/>
    <polyline points="378.25,641.125 372.375,641.875 366.125,642.25 352.625,641.625 345.625,640.375 338.5,638.625 331.375,636.125 324.625,632.75 318.125,628.625 312.25,623.625 307.25,617.75 303.125,611.125 300.375,603.875 298.875,595.875 298.75,587.5 300.125,579.0 302.75,570.375 306.75,561.875 311.75,553.625 317.625,545.875 324.125,538.625 331.125,532.0 338.375,526.0 345.75,520.625 353.125,516.0"/>
    <polyline points="360.375,511.875 374.25,505.25 380.875,502.75 393.25,498.875 404.375,496.125 414.375,494.375 427.5,493.0 435.25,492.5 445.25,492.25 465.875,492.375"/>
    <polyline points="467.875,492.375 479.625,491.875 487.0,490.625 492.5,488.75 496.5,486.0"/>
    <polyline points="497.0,485.5 499.75,481.875 501.125,478.875 502.125,475.5 503.125,468.375 503.25,463.5"/>
    <polyline points="503.25,462.125 502.875,454.875 501.5,444.625 499.25,434.25 495.5,422.125 490.75,410.75"/>
    <polyline points="489.25,407.75 483.625,397.75 476.0,386.75 469.25,378.75 461.0,370.375 450.625,361.5 444.625,357.0 437.875,352.5 430.375,348.0 422.25,343.625 413.25,339.375 403.375,335.5 392.625,332.125 381.25,329.25 369.25,327.25 356.75,326.375 344.125,326.625 331.75,328.625 319.875,332.25"/>
    <polyline points="309.25,337.75 300.125,345.125 293.0,354.375 288.25,365.125 286.0,377.25 286.125,390.125 288.625,403.5 293.0,416.875 299.0,429.75 306.125,442.0 314.0,453.25 322.375,463.625 331.0,472.875 339.375,481.125 347.75,488.375 363.375,500.375 377.375,509.375 383.875,513.125 395.625,519.25 406.0,524.0 415.25,527.75"/>
    <polyline points="419.375,529.5 440.0,537.5 447.875,541.0 456.75,545.625 462.25,549.25 465.375,551.75 469.625,555.75 474.25,561.375"/>
    <polyline points="475.25,562.875 477.25,566.0 479.625,571.0 481.125,574.5 483.625,582.125 486.25,592.625 490.375,615.125"/>
    <polyline points="491.0,618.0 493.625,629.875 495.5,636.125 499.25,646.0 502.75,652.875 507.5,659.75 510.5,663.125 514.0,666.5 518.0,669.75 522.75,673.0 528.375,676.0 535.0,678.75 542.75,681.125 552.0,683.125 562.75,684.375 575.5,684.875 590.25,684.25 607.375,682.125"/>
    <polyline points="627.0,678.25 649.0,672.0 673.125,663.125 698.5,651.125 724.25,635.875 748.375,617.5 768.875,596.625 784.0,574.5 792.5,552.375 793.875,531.875 789.125,514.125 779.375,499.625 766.75,488.75 752.75,481.125 738.625,476.125 725.25,473.25 713.25,472.125 702.625,472.125 693.5,472.875 685.625,474.375 679.0,476.125 668.375,480.5 664.125,482.75 656.75,487.375"/>
    <polyline points="653.5,489.5 644.25,495.25 635.0,499.75 628.75,501.75 619.0,503.625 612.5,504.25 603.0,504.125 597.0,503.625 585.625,501.875 577.875,500.0"/>
    <polyline points="575.375,499.25 568.625,497.125 560.625,493.875 552.25,489.375 548.0,486.5 544.25,483.5 540.875,480.25 537.0,475.5"/>
    <polyline points="536.125,474.25 532.25,467.625 527.75,456.875 525.5,449.75 520.125,430.125"/>
    <polyline points="519.5,427.5 515.25,413.375 513.0,406.875 508.75,396.375 505.0,388.5 500.25,380.0 497.5,375.375 490.75,365.75 481.875,355.0 476.5,349.375 470.25,343.375 463.25,337.25 455.0,330.875 445.625,324.25 434.875,317.625"/>
    <polyline points="422.625,311.0 408.625,304.5 392.75,298.375 375.125,293.125 355.75,289.0 335.0,286.75 313.5,286.875 292.0,290.125 271.75,297.125 254.25,308.25 240.75,323.625 232.25,342.5 229.125,364.125 231.25,387.25 237.875,410.5 247.625,432.875 259.5,453.375 272.375,471.75 285.25,487.75 297.75,501.375 309.5,512.875 320.25,522.375 329.875,530.25 338.625,536.75 353.25,546.25"/>
    <polyline points="359.5,549.75 370.125,554.75 378.75,558.125 389.375,561.125 407.375,565.125 413.375,566.875 418.5,568.875 423.0,571.375 425.5,573.25"/>
    <polyline points="426.625,574.25 429.625,577.625 432.625,582.75 433.875,587.25 434.375,592.0 434.0,597.25 431.875,604.75 430.0,608.875 426.125,615.0"/>
    <polyline points="424.375,617.125 418.25,623.625 409.75,629.875 402.75,633.75 394.375,637.375 389.625,638.875 379.0,641.25 366.875,642.5 360.25,642.5 353.375,642.0 346.375,640.875 339.25,639.125 332.125,636.75 325.125,633.5 318.5,629.375 312.5,624.5 307.375,618.75 303.125,612.125"/>
    <polyline points="300.125,604.875 298.5,596.875 298.25,588.625 299.375,580.0 302.0,571.25 305.75,562.625 310.75,554.375 316.5,546.5 323.0,539.125 330.0,532.375 337.25,526.25 344.75,520.875 352.125,516.125 359.5,511.875 366.625,508.25 373.5,505.25 386.5,500.375 398.25,497.125 408.875,494.875 427.125,492.625"/>
    <polyline points="431.0,492.375 441.75,491.875 467.625,491.875 474.875,491.625 480.75,491.125 485.75,490.25"/>
    <polyline points="486.75,490.0 492.25,488.0 496.25,485.125 499.125,481.5 500.25,479.25 501.375,476.0"/>
    <polyline points="501.625,475.125 502.625,469.0 502.875,461.625 502.125,451.125 500.25,440.0"/>
    <polyline points="499.875,438.0 496.75,426.5 491.5,412.875 486.75,403.5 480.25,393.125 471.5,381.625 463.75,373.375 454.125,364.75 442.375,355.75"/>
    <polyline points="435.375,351.25 427.75,346.875 419.25,342.5 410.0,338.5 400.0,334.75 389.125,331.5 377.625,328.875 365.5,327.25 353.0,326.75 340.5,327.5 328.25,330.0 316.875,334.125 306.75,340.25 298.25,348.125 291.875,357.875 287.875,369.0 286.375,381.25 287.25,394.375 290.375,407.625 295.25,420.75 301.5,433.375 308.875,445.25 317.0,456.25 325.375,466.25 333.875,475.125 342.25,483.0"/>
    <polyline points="350.375,490.0 358.25,496.125 365.75,501.5 372.875,506.125 385.875,513.75 391.875,516.875 412.25,526.125 435.0,535.0 446.375,539.75 453.5,543.25 457.625,545.625"/>
    <polyline points="459.5,546.75 464.625,550.375 469.0,554.25 472.75,558.375 474.875,561.25 479.5,569.125 481.75,574.375 484.25,581.875 485.25,586.0"/>
    <polyline points="485.875,588.125 493.0,623.5 496.5,635.75 499.0,642.25 502.25,648.875 506.5,655.625 509.25,659.0"/>
    <polyline points="512.25,662.375 515.875,665.75 520.125,668.875 525.125,672.0 531.0,674.875 537.875,677.5 545.875,679.75 555.375,681.5 566.375,682.5 579.375,682.75 594.5,681.75 611.75,679.25 631.5,674.875 653.5,668.25 677.375,658.875 702.25,646.5 726.875,631.0 749.75,612.625 768.75,592.125 782.25,570.5 789.25,549.375 789.5,529.75 784.0,513.0 774.25,499.5 761.625,489.25 747.875,482.125"/>
    <polyline points="734.25,477.375 721.25,474.75 709.5,473.625 699.25,473.5 690.25,474.25 682.5,475.5 675.875,477.125 670.25,479.0 665.25,481.125 660.875,483.125 643.875,492.75 637.75,495.75 631.75,498.125 625.625,500.0 622.5,500.625 613.25,501.875 610.25,502.0"/>
    <polyline points="607.25,502.0 604.25,502.0 592.625,500.875 584.625,499.375 577.25,497.5 568.5,494.5 562.625,492.0 555.875,488.375 551.375,485.375"/>
    <polyline points="550.0,484.375 546.25,481.25 541.875,476.625 536.375,468.875 532.75,461.5 528.5,449.375"/>
    <polyline points="527.875,447.5 521.0,421.75 515.125,403.125 510.625,392.0 506.75,383.875 501.75,374.875 498.75,370.125"/>
    <polyline points="495.25,365.125 486.875,354.375 481.75,348.5 475.875,342.5 469.0,336.125 461.0,329.625 451.875,322.75 441.25,315.75 429.125,308.75 415.125,301.625 399.125,295.0 381.125,288.875 361.0,283.875 339.125,280.5 316.0,279.625 292.625,281.875 270.125,288.125 250.125,299.0 234.25,314.5 223.875,334.375 219.5,357.375 221.125,382.375 227.75,407.625 238.125,432.0 250.875,454.375"/>
    <polyline points="264.625,474.125 278.375,491.375 291.5,505.875 303.75,518.0 314.75,527.875 324.625,536.0 333.375,542.625 341.0,547.875 347.75,552.0 353.75,555.25 359.125,557.875 368.125,561.5 375.625,563.5 381.875,564.75 403.5,566.625"/>
    <polyline points="405.5,566.875 411.0,568.0 415.875,569.5 420.25,571.5 425.125,575.0 428.0,578.25 430.125,581.875 431.625,586.0 432.25,590.5"/>
    <polyline points="432.25,592.125 432.125,595.5 431.5,599.0 430.375,602.625 427.75,608.375 425.25,612.375 422.125,616.375 415.875,622.5 407.5,628.375 400.5,632.0 392.25,635.125 382.75,637.625"/>
    <polyline points="377.375,638.5 371.75,639.125 365.875,639.25 359.625,639.125 353.25,638.375 346.75,637.25 340.125,635.375 333.625,632.875 327.25,629.625 321.375,625.75 316.125,621.0 311.5,615.5 307.875,609.25 305.375,602.5 304.125,595.125 304.0,587.375 305.25,579.5 307.625,571.5 311.25,563.625 315.75,556.0 321.125,548.75 327.125,541.875 333.625,535.625 340.375,530.0 347.375,524.875 354.375,520.375"/>
    <polyline points="361.25,516.5 368.0,513.0 374.625,510.125 387.125,505.5 398.625,502.25 409.125,500.125 423.0,498.25 438.5,497.5 453.875,497.625 466.0,498.25"/>
    <polyline points="468.0,498.25 478.625,498.75 485.5,498.75 494.25,497.875 497.625,496.875"/>
    <polyline points="498.25,496.625 500.375,495.5 502.875,493.375 504.125,491.625 505.375,489.125 506.375,485.5"/>
    <polyline points="506.5,484.75 507.125,480.25 507.25,469.25 506.375,458.75"/>
    <polyline points="506.25,457.25 505.375,450.75 503.625,441.375 500.125,427.875 495.125,414.375 490.75,405.0 486.875,398.25"/>
    <polyline points="484.75,394.625 479.5,387.125 473.0,379.0 464.875,370.375 454.75,361.25 448.875,356.625 442.25,351.875 434.75,347.125 426.625,342.375 417.5,337.875 407.5,333.625 396.625,329.75 384.875,326.375 372.375,323.875 359.25,322.375 345.875,322.25 332.5,323.625 319.5,326.75 307.75,332.0 297.375,339.375 289.125,348.625 283.375,359.875"/>
    <polyline points="280.375,372.5 280.0,386.25 282.25,400.375 286.625,414.625 292.75,428.5 300.25,441.625 308.5,453.75 317.375,464.75 326.375,474.625 335.25,483.375 343.875,491.0 352.125,497.75 367.5,508.625 381.0,516.75 398.375,525.5 412.625,531.625 427.875,537.625"/>
    <polyline points="431.125,538.875 445.0,544.875 449.5,547.25 455.5,551.0 460.625,554.75 464.875,558.875 469.625,564.75 472.5,569.625 474.125,573.125"/>
    <polyline points="474.875,574.875 476.25,578.5 478.625,586.5 481.0,600.125 484.625,637.75"/>
    <polyline points="485.0,641.125 487.125,655.625 490.125,667.25 491.5,671.25 495.25,679.375 497.625,683.625 500.625,687.75 504.25,691.875 508.625,695.875 513.875,699.75 520.375,703.5 528.375,706.875 538.0,709.75 549.875,712.0 564.375,713.375 582.0,713.25 603.25,711.375 628.625,707.0 658.375,699.25 692.125,687.125"/>
    <polyline points="728.75,670.0 766.125,647.125 800.5,619.0 827.75,587.0 844.25,554.0 848.5,523.125 841.625,497.0 826.75,477.0 807.75,463.375 787.875,455.25 769.5,451.5 753.625,450.875 740.75,452.625 730.75,456.125 723.25,460.75 717.875,466.25 713.75,472.25 710.75,478.75 703.625,498.5 700.875,504.875 697.625,510.75 693.875,516.125 689.5,520.875 684.625,525.125"/>
    <polyline points="679.375,528.75 673.625,531.625 667.5,534.0 661.375,535.75 655.125,537.125 648.75,538.0 636.5,538.75 625.0,538.5 609.375,537.125 564.0,530.25"/>
    <polyline points="561.625,529.875 548.125,528.5 541.0,528.375 532.5,529.25 528.75,530.5"/>
    <polyline points="528.125,530.75 526.25,531.625 524.25,533.125 522.625,534.875 520.875,538.0 519.25,543.25"/>
    <polyline points="519.125,544.0 518.625,548.875 518.625,555.5 519.5,564.625 520.5,569.75"/>
    <polyline points="520.75,571.125 522.25,576.875 525.125,584.5 528.375,591.0 530.5,594.375 536.0,601.0 539.5,604.125 543.75,607.25 548.625,610.0"/>
    <polyline points="551.5,611.25 554.5,612.5 561.375,614.5 569.25,615.75 573.75,616.125 578.5,616.125 588.875,615.5 594.5,614.625 606.5,611.75 612.75,609.625 625.25,604.25 631.5,600.75 637.375,597.0 642.875,592.75 647.875,588.25 652.25,583.375 655.875,578.375 658.75,573.25 660.625,568.125 661.625,563.125 661.75,558.125"/>
    <polyline points="660.875,553.5 659.375,549.125 657.0,545.125 654.0,541.375 650.5,538.125 646.625,535.125 642.5,532.5 633.5,528.125 624.25,524.75 610.625,521.125 590.5,517.25 568.375,513.625"/>
    <polyline points="565.75,513.125 550.625,510.0 541.0,507.375 533.875,504.75 528.375,502.0"/>
  </g>
</svg>
