<?xml version="1.0" encoding="utf-8" ?>
<svg xmlns="http://www.w3.org/2000/svg" xmlns:cc="http://creativecommons.org/ns" xmlns:dc="http://purl.org/dc/elements/1.1/" xmlns:ev="http://www.w3.org/2001/xml-events" xmlns:inkscape="http://www.inkscape.org/namespaces/inkscape" xmlns:rdf="http://www.w3.org/1999/02/22-rdf-syntax-ns" xmlns:sodipodi="http://sodipodi.sourceforge.net/DTD/sodipodi-0.dtd" xmlns:xlink="http://www.w3.org/1999/xlink" baseProfile="tiny" height="27.09333333cm" version="1.2" viewBox="0 0 1024.0 1024.0" width="27.09333333cm">
  <metadata>
    <rdf:RDF>
      <cc:Work>
        <dc:format>image/svg+xml</dc:format>
        <dc:source>vpype read './original_svgs/Strange Attractors #51.svg' linemerge linesimplify write './Strange Attractors #51.svg'
</dc:source>
        <dc:date>2024-08-05T01:35:22.052334</dc:date>
      </cc:Work>
    </rdf:RDF>
  </metadata>
  <defs/>
  <g fill="none" id="layer1" inkscape:groupmode="layer" inkscape:label="1" stroke="black" stroke-width="0.7mm" style="display:inline">
    <polyline points="598.125,639.125 637.625,625.625 668.5,621.0 692.875,623.125 712.0,630.0 727.0,640.0 738.0,652.0 745.0,664.375 748.0,675.875 746.75,685.125 741.625,691.375 732.625,693.75 720.75,692.0 706.625,686.625 691.375,678.25 675.625,667.5 660.375,655.25 646.0,642.5 632.75,629.75 621.125,617.5 610.75,606.125 594.25,586.25 587.75,577.875 577.75,564.125"/>
    <polyline points="574.0,558.5 568.125,549.625 559.125,534.75 556.625,531.375 554.5,529.375 552.375,528.25 548.5,527.5 546.0,527.5"/>
    <polyline points="545.125,527.5 531.25,528.625 523.0,530.0"/>
    <polyline points="522.25,530.125 517.0,531.5 513.375,532.875 511.125,534.25 510.5,535.375 511.5,535.875 515.75,535.625 524.0,533.875 528.875,532.5"/>
    <polyline points="530.75,532.125 554.625,525.25 563.25,523.125 566.0,522.875"/>
    <polyline points="565.75,523.0 560.5,524.375 553.0,525.5 536.875,526.625"/>
    <polyline points="535.5,526.75 521.125,527.875 515.75,528.75 511.0,530.0"/>
    <polyline points="510.25,530.25 507.5,531.25 503.25,533.375 500.0,535.625 498.0,537.875"/>
    <polyline points="497.875,538.25 497.875,539.0 498.375,539.625 499.75,540.0 502.875,540.0 514.25,537.625 528.125,533.75"/>
    <polyline points="531.375,532.625 558.25,524.25 572.875,520.0 581.25,518.0 586.25,517.375 587.625,517.625 587.625,518.375 587.125,518.75 583.875,520.375"/>
    <polyline points="582.5,520.875 577.25,522.5 569.125,524.0 563.0,524.625 557.0,524.875 547.75,524.625 537.0,523.625"/>
    <polyline points="535.75,523.5 521.0,522.0 513.375,522.25"/>
    <polyline points="512.75,522.375 508.75,523.125 506.25,524.0 503.75,525.125 500.0,527.375"/>
    <polyline points="499.5,527.75 493.125,532.625 487.5,538.25"/>
    <polyline points="487.125,538.75 485.375,541.125 484.75,542.875 485.0,543.875 486.0,544.75 488.125,545.125 491.875,544.875 500.125,543.25"/>
    <polyline points="503.0,542.5 518.0,538.0 565.25,521.875 590.625,514.0 600.625,511.625 607.75,510.5 611.75,510.75 612.625,511.375 612.75,512.125 612.25,513.25"/>
    <polyline points="611.125,514.375 607.75,516.75 600.5,520.375 594.875,522.25 586.25,524.25 580.625,525.0 575.375,525.25 568.0,525.125 561.5,524.25 552.375,522.25"/>
    <polyline points="550.875,521.75 545.25,519.75 538.875,516.875 533.75,513.625 531.25,511.5 530.25,510.25"/>
    <polyline points="529.875,509.875 528.75,507.875 528.125,505.0 528.25,503.375 529.5,499.125"/>
    <polyline points="529.75,498.625 537.25,484.75 539.75,479.5"/>
    <polyline points="540.375,478.375 543.0,471.75 545.375,463.25 546.375,457.0 546.875,449.5 546.5,440.5 545.375,433.375 543.5,425.25 540.375,415.625"/>
    <polyline points="538.25,410.25 532.5,398.125 528.75,391.375 524.375,384.0 513.0,367.625 505.875,358.5 497.625,348.875 488.25,338.75 477.5,328.5 465.5,318.0 452.375,307.75 438.125,298.25 423.125,290.0 407.75,283.375 392.625,279.25 378.125,278.0 365.0,280.25 353.875,285.875 345.125,294.875 339.0,307.0 335.5,321.375 334.375,337.375 335.375,354.375 338.0,371.5"/>
    <polyline points="341.875,388.125 346.75,404.125 352.0,418.875 357.625,432.375 363.375,444.625 369.0,455.5 379.75,473.625 389.5,487.5 398.125,498.125 405.75,506.125 415.375,514.75 425.25,522.25 434.125,528.25"/>
    <polyline points="435.5,529.25 439.75,532.875 441.125,534.5 442.75,537.0 443.5,539.5 443.5,542.0 443.125,543.75 442.0,546.5 438.625,551.375"/>
    <polyline points="437.75,552.375 433.5,556.875 429.5,560.5 421.25,567.25 405.625,578.5 386.875,590.625"/>
    <polyline points="383.0,593.0 351.875,610.875 327.5,623.75 305.25,634.875 275.875,649.0 257.75,657.25 213.875,676.375 188.875,686.25 163.625,695.0 141.125,700.5 125.75,700.25 122.375,690.875 134.75,670.375 162.625,639.125 201.75,599.75 245.25,556.875"/>
    <polyline points="286.75,514.375 322.125,474.875 349.625,439.75 369.125,408.875 381.25,382.375 387.125,359.5 388.0,340.125 384.75,324.125 378.5,311.5 370.5,302.375 361.375,296.875 352.375,295.25 344.0,297.375 337.25,303.25 332.25,312.5 329.375,324.375 328.5,338.25 329.5,353.5 332.125,369.125 336.0,384.75 340.75,399.875 346.0,414.125 351.75,427.375 357.5,439.375 363.375,450.25 369.125,459.875"/>
    <polyline points="374.625,468.375 385.0,482.5 394.375,493.25 402.625,501.5 410.0,507.75 419.375,514.5 424.625,518.0 438.25,526.0 444.25,530.25"/>
    <polyline points="445.125,531.0 448.125,534.875 448.75,536.5 449.125,539.75 448.0,544.0 445.25,548.625 442.0,552.625"/>
    <polyline points="441.0,553.625 436.625,558.125 431.375,562.875 409.875,580.75 403.875,586.375"/>
    <polyline points="402.75,587.625 401.25,589.75 401.0,590.625 401.375,591.25 402.5,591.5 404.5,591.375 407.625,590.75 418.875,587.125 440.25,578.75 505.375,550.375 628.875,494.375 679.75,472.25 728.5,452.375 769.0,438.5 796.75,433.25 810.25,437.375 811.75,449.375 805.5,466.5 795.5,486.375"/>
    <polyline points="784.75,506.75 775.0,526.75 766.75,545.625 760.125,563.125 746.0,606.625 741.5,617.75 736.375,626.875 730.375,633.875 723.25,638.625 715.125,641.125 706.125,641.5 696.25,639.75 685.875,636.375 675.375,631.5 664.875,625.5 654.625,618.875 635.375,604.625 626.625,597.5 618.625,590.5 592.625,567.125"/>
    <polyline points="587.5,562.375 571.0,548.125 564.625,543.125 556.625,537.75 548.0,533.125 542.625,531.125 535.0,529.125 529.875,528.5"/>
    <polyline points="528.625,528.5 523.125,528.375 515.625,529.25 510.25,530.625 506.875,532.0"/>
    <polyline points="506.25,532.25 502.875,534.0 499.375,536.875 498.75,538.625 499.5,539.375"/>
    <polyline points="499.875,539.5 500.875,539.75 504.25,539.625 509.875,538.625 515.875,537.125 555.0,525.25"/>
    <polyline points="558.75,524.125 575.5,519.375 583.75,517.875 585.625,517.875 586.125,518.125 585.375,519.25 580.75,521.25 577.375,522.25 569.75,523.75"/>
    <polyline points="567.75,524.0 557.75,524.875 550.375,524.875 527.875,523.125"/>
    <polyline points="526.75,523.0 522.0,522.625 515.0,522.75 508.25,524.125"/>
    <polyline points="507.75,524.25 502.5,526.5 494.875,531.625"/>
    <polyline points="494.375,532.125 491.375,534.625 487.75,538.375 485.875,541.25 485.5,542.125 485.5,543.25"/>
    <polyline points="485.625,543.625 486.125,544.25 487.0,544.625 489.5,544.875 493.625,544.5 502.625,542.5 516.875,538.25 555.875,525.125"/>
    <polyline points="562.5,522.875 581.75,516.625 597.75,512.375 605.375,511.0 608.0,510.875 611.0,511.375 611.375,512.125 611.25,513.0 609.125,515.25 603.125,518.75 595.125,521.875 589.5,523.375 583.875,524.375"/>
    <polyline points="581.125,524.75 573.25,525.25 568.375,525.125 557.875,523.75 552.5,522.5 546.5,520.625 541.625,518.75 537.75,516.875"/>
    <polyline points="536.875,516.375 533.25,514.25 529.125,510.625 527.625,508.375 527.125,506.5"/>
    <polyline points="527.0,506.125 527.125,503.5 527.875,501.0 531.0,494.75"/>
    <polyline points="531.375,494.125 538.625,481.125 540.75,476.5 543.375,469.375"/>
    <polyline points="543.75,467.75 545.125,462.375 546.375,453.5 546.25,442.375 545.375,435.5 543.75,427.75 541.0,418.625 536.875,408.0 530.75,395.5 526.75,388.5 522.0,381.0 516.5,372.875 510.0,364.25"/>
    <polyline points="502.5,355.0 493.75,345.25 483.875,335.125 472.75,324.75 460.375,314.5 447.0,304.5 432.5,295.5 417.375,287.875 402.125,282.25 387.25,279.25 373.375,279.375 361.125,282.75 351.0,289.625 343.25,299.875 338.25,312.75 335.625,327.625 335.375,344.0 336.875,360.875 340.125,377.75 344.25,394.125 349.25,409.5 354.75,423.75 360.375,436.625 366.0,448.375 371.5,458.75 377.0,467.875"/>
    <polyline points="382.125,476.0 387.0,483.0 396.0,494.5 400.125,499.25 407.5,506.875 419.625,517.25 437.75,530.125 442.125,534.5"/>
    <polyline points="442.625,535.25 443.875,537.75 444.25,539.375 444.25,541.875 443.125,545.5 439.375,551.25 436.5,554.5 431.625,559.125"/>
    <polyline points="430.25,560.375 425.75,564.25 416.375,571.5 399.0,583.625 382.0,594.5 357.875,608.625"/>
    <polyline points="351.625,612.125 318.0,630.0 293.0,642.5 259.25,658.625 213.875,679.0 187.0,690.125 158.75,700.875 131.875,709.0 111.5,711.5 103.5,704.375 113.375,684.625 142.25,651.625 185.375,608.5 234.25,560.5 280.75,512.75 319.75,468.5 349.0,429.125 368.625,394.75 379.5,365.0 383.125,339.5"/>
    <polyline points="380.75,318.0 373.75,300.375 363.75,287.0 352.0,278.125 339.75,274.25 328.375,275.625 319.0,282.125 312.125,293.25 308.0,308.25 306.875,325.875 308.125,345.0 311.5,364.75 316.375,384.25 322.25,402.625 328.625,419.75 335.25,435.125 341.875,448.875 348.375,461.0 354.625,471.625 360.5,480.75 366.0,488.5 371.25,495.25 376.25,501.0 380.75,505.875 389.125,513.5"/>
    <polyline points="392.75,516.5 399.625,521.25 405.5,524.75 425.25,534.125 428.75,536.125 430.5,537.5 432.375,539.625 433.375,541.875"/>
    <polyline points="433.5,542.625 433.375,546.0 432.75,547.75 430.5,551.625 427.875,554.75 424.375,558.25 420.0,562.0 408.0,570.75"/>
    <polyline points="405.5,572.5 386.375,584.25 362.25,597.25 334.0,611.0 305.125,623.875 282.0,633.25 257.0,641.875 244.875,645.25 233.875,647.375 225.125,647.375"/>
    <polyline points="219.625,644.875 218.625,639.125 222.625,629.625 232.0,616.625 246.125,600.5 263.875,582.0 283.75,562.25 324.5,522.875 359.625,488.375 374.125,473.75 396.75,450.0 405.25,440.625 417.875,426.0 432.875,407.375 435.375,404.75 437.125,403.875"/>
    <polyline points="437.75,404.0 440.375,407.25 445.5,416.375 451.5,425.125 455.625,429.875 460.0,434.25 466.0,439.0"/>
    <polyline points="467.5,440.125 471.75,442.625 476.0,444.625 479.875,446.0 484.75,446.75 488.125,446.625 491.0,446.0 494.375,444.125 495.75,442.75"/>
    <polyline points="496.375,442.0 498.0,439.375 499.125,434.625 499.125,428.625 498.125,423.25 496.875,419.125 495.125,414.75 492.75,409.875 488.0,402.125 483.875,396.625"/>
    <polyline points="481.625,393.75 476.375,388.125 467.25,380.0 460.375,375.125 456.75,373.0 453.125,371.125 445.875,368.375 442.25,367.5 435.5,367.125 432.375,367.625 429.625,368.5 427.125,370.0 424.875,371.875 423.0,374.25 420.5,380.125 419.875,383.5 419.5,387.25 420.0,395.25"/>
    <polyline points="420.75,399.5 423.125,408.0 424.75,412.25 430.5,424.375 435.0,431.75 442.25,441.5 447.25,447.125 457.0,456.375 466.125,463.125 474.5,468.125"/>
    <polyline points="476.5,469.125 483.75,472.25 487.125,473.375 496.125,475.25 502.5,475.375 504.875,475.125 508.125,474.375 511.25,473.25"/>
    <polyline points="512.25,472.75 515.875,470.375 518.375,468.125 521.375,464.25 523.875,459.375 524.875,456.5 526.0,451.375 526.5,445.375 526.5,440.75"/>
    <polyline points="526.25,438.25 525.5,432.625 523.0,422.875 520.25,415.25 516.375,406.75 511.0,397.125 504.0,386.375 499.75,380.625 489.5,368.375 483.5,362.0 469.625,349.125 461.875,342.875 453.5,337.0 444.875,331.625 435.75,326.875 426.625,323.25 417.625,320.625"/>
    <polyline points="408.875,319.5 400.625,319.875 393.375,322.0 387.0,325.625 381.75,331.0 377.75,337.75 375.125,345.75 373.75,354.75 373.5,364.5 374.375,374.5 376.0,384.75 378.5,395.0 381.625,404.875 385.125,414.375 389.0,423.25 397.125,439.5 405.625,453.125 413.875,464.5 421.625,473.75 432.25,484.5"/>
    <polyline points="435.625,487.375 441.625,492.5 452.125,500.125 475.625,514.75 478.875,517.25"/>
    <polyline points="479.5,517.875 481.75,520.0 483.25,522.0 483.875,523.5 484.25,525.0 484.25,527.0 484.0,528.625 483.25,530.625"/>
    <polyline points="483.0,531.25 480.75,535.125 475.5,542.375 473.375,546.0"/>
    <polyline points="473.125,546.625 472.75,547.75 472.875,549.125 473.5,549.875 474.75,550.375 476.75,550.625 484.125,549.625 498.125,545.75 508.5,542.375 537.5,532.0"/>
    <polyline points="546.375,528.75 586.0,514.5 605.125,508.25 613.625,505.875 627.125,502.875 632.0,502.5 635.375,502.75 637.375,503.625 638.25,505.0 637.875,506.75 636.625,508.875 634.5,511.125 628.75,515.75 625.375,517.875 618.125,521.75 610.625,524.75 603.5,526.75"/>
    <polyline points="600.125,527.375 593.625,528.25 590.625,528.375 582.375,527.875 575.375,526.5 569.375,524.5 564.375,522.25 558.0,518.125 555.0,515.625 553.375,513.875"/>
    <polyline points="552.625,513.125 549.5,508.125 548.25,503.875 548.125,498.625 548.75,494.875 549.875,490.75"/>
    <polyline points="550.25,489.625 555.875,473.25 557.875,465.75 559.625,453.625 559.75,444.25 559.5,440.75"/>
    <polyline points="559.0,436.875 557.5,428.125 554.625,417.875 552.625,412.0 546.875,398.625 543.0,390.875 538.25,382.375 525.5,363.0 517.25,351.875 507.375,340.0 495.875,327.125 482.5,313.75 467.125,299.875 450.0,286.25 431.125,273.375 411.0,262.25 390.375,253.75 370.125,249.125 351.375,249.25 335.125,254.625 322.375,265.25 313.375,280.75"/>
    <polyline points="308.5,300.0 307.125,321.75 308.75,344.625 312.625,367.375 318.0,389.25 324.25,409.5 330.875,428.0 337.625,444.375 344.25,458.75 350.625,471.25 356.5,481.875 362.0,491.125 371.75,505.5 380.125,515.875 390.25,526.0 398.375,532.125 406.5,537.0"/>
    <polyline points="408.125,537.875 414.625,541.375 416.375,542.75 418.25,544.625 419.25,546.625 419.5,548.125 418.75,551.375 416.5,555.0 414.75,557.0"/>
    <polyline points="413.625,558.125 408.5,562.75 401.25,568.0 388.625,575.875 382.25,579.5 366.75,587.625 357.25,592.125 334.75,601.875"/>
    <polyline points="328.375,604.375 315.125,609.125 301.75,613.125 295.5,614.5 289.75,615.25 284.875,615.25 281.125,614.375 278.625,612.5 278.0,609.25 279.125,604.75 282.25,599.0 287.375,592.0 294.25,583.875 302.625,574.875 312.25,565.375 333.5,545.875 355.0,527.375 375.125,511.25 384.25,504.375 400.625,492.875"/>
    <polyline points="407.875,488.125 420.5,480.75 431.25,475.625 440.5,472.25 448.375,470.125 458.375,468.5 464.125,468.25 478.25,468.875 489.125,469.875"/>
    <polyline points="490.75,469.875 495.25,470.0 500.5,469.5 504.125,468.75 507.375,467.5 512.25,464.5 515.5,461.0 517.5,457.75"/>
    <polyline points="518.125,456.625 520.125,450.875 520.75,447.375 521.0,443.625 521.0,439.25 520.5,434.375 518.75,426.0 515.25,415.875 509.625,403.875 504.125,394.875 497.125,384.875"/>
    <polyline points="493.0,379.625 483.125,368.75 477.5,363.125 471.375,357.625 464.75,352.125 457.75,347.0 450.375,342.25 442.75,338.0 435.0,334.375 427.125,331.75 419.5,330.125 412.25,329.75 405.5,330.5 399.5,332.75 394.25,336.25 390.0,341.0 386.75,346.875 384.625,353.875 383.5,361.5 383.25,369.75 384.0,378.375 385.375,387.125 387.5,396.0 390.125,404.5 393.125,412.875"/>
    <polyline points="396.5,420.75 403.875,435.25 411.5,447.75 422.875,463.0 430.125,471.0 440.0,480.5 448.875,487.75 458.875,494.75 470.75,501.75"/>
    <polyline points="472.375,502.625 487.5,510.75 490.875,512.875 494.0,515.5"/>
    <polyline points="494.25,515.75 495.125,516.75 496.25,519.375 496.125,521.625 495.25,524.0"/>
    <polyline points="495.0,524.25 492.75,527.75 486.375,535.125"/>
    <polyline points="486.0,535.625 482.375,539.875 480.125,543.625 479.875,545.875 480.375,546.5 482.125,547.125"/>
    <polyline points="483.0,547.25 485.375,547.25 490.875,546.375 502.875,543.25 522.125,537.0 556.875,524.75 588.5,514.125 608.125,508.75"/>
    <polyline points="613.0,507.875 617.0,507.375 619.875,507.375 621.875,507.875 622.75,508.625 622.875,509.75 622.25,511.125 620.875,512.625 619.0,514.25 614.125,517.5 605.0,521.75 598.5,523.75 589.125,525.625 583.375,526.125 577.875,526.125 570.625,525.5"/>
    <polyline points="568.375,525.125 560.5,523.125 552.75,520.125 545.0,515.625 541.375,512.5 539.25,510.0"/>
    <polyline points="538.875,509.375 537.375,506.375 536.75,503.375 536.75,500.75 537.375,497.375 538.875,492.875"/>
    <polyline points="539.25,492.0 547.0,472.875 549.375,464.125 550.375,457.625"/>
    <polyline points="550.625,455.125 550.875,447.0 550.5,440.5 548.5,428.875 545.875,419.625 541.75,408.625 535.625,395.625 526.625,380.375 520.875,371.75 514.125,362.5 506.125,352.625 497.0,342.0 486.375,331.0 474.25,319.625 460.75,308.25 446.0,297.25 430.0,287.125"/>
    <polyline points="413.25,278.625 396.375,272.5 379.875,269.375 364.75,269.875 351.5,274.25 340.75,282.75 332.875,294.875 328.125,310.0 326.125,327.125 326.625,345.625 329.125,364.5 333.125,382.875 338.125,400.5 343.75,416.75 349.75,431.625 355.75,445.0 361.625,456.875 367.375,467.25 378.0,484.375 382.875,491.125 391.75,502.25 395.625,506.625 402.75,513.75"/>
    <polyline points="406.0,516.625 414.125,523.125 428.5,533.0 431.625,535.625 434.375,538.875 435.125,540.5 435.5,542.125 435.375,544.75"/>
    <polyline points="435.125,545.625 434.125,548.375 432.25,551.375 428.5,555.625 424.75,559.25 414.5,567.375 399.25,577.5"/>
    <polyline points="396.125,579.5 376.25,591.0 353.375,603.0 329.75,614.375 309.875,623.5 286.125,633.625 273.0,638.875 245.25,648.5 231.875,652.125 220.25,654.125 211.375,653.5 206.875,649.625 207.75,641.75 215.0,629.625"/>
    <polyline points="228.25,613.25 246.375,593.75 267.875,572.0 313.375,527.625 334.375,506.75 353.125,487.875 369.125,470.875 382.625,456.125 393.625,443.25 402.5,432.375 409.375,423.125 414.75,415.375 418.75,409.0 421.625,403.75 423.75,399.625 426.125,393.875 427.0,390.75 427.5,395.625"/>
    <polyline points="427.875,397.625 430.0,405.0 433.5,413.25 436.5,419.0 441.625,427.125 447.5,434.625 453.5,441.125 461.625,448.25 469.375,453.625"/>
    <polyline points="471.25,454.75 476.625,457.5 481.75,459.5 486.375,460.875 490.75,461.625 494.75,461.75 498.375,461.375 502.75,460.0 505.625,458.375"/>
    <polyline points="506.5,457.625 509.0,455.25 510.375,453.25 512.125,449.75 513.375,445.5 513.875,442.25 514.0,438.5 513.75,434.25 512.5,427.0 510.875,421.5 507.125,412.0"/>
    <polyline points="505.375,408.5 498.625,397.0 492.5,388.625 485.125,379.625 476.125,370.5 465.75,361.625 460.125,357.5 454.125,353.5 448.0,350.125 441.75,347.125 435.5,344.75 429.375,343.125 423.375,342.375 417.75,342.625 412.5,343.75 407.875,345.875 404.0,349.0 400.75,353.0 398.25,357.875 396.625,363.375"/>
    <polyline points="395.625,369.5 395.5,376.125 396.0,383.0 397.125,390.125 398.75,397.25 400.75,404.25 406.0,417.75 409.0,424.125 415.5,435.875 422.25,446.125 425.625,450.625 435.625,462.375 442.0,468.75 447.875,474.0 456.125,480.5 461.125,483.875"/>
    <polyline points="463.5,485.5 474.0,491.5 482.5,495.5 491.625,499.25 499.375,501.625"/>
    <polyline points="500.25,501.875 505.75,503.0 508.5,503.25 513.75,502.75"/>
    <polyline points="514.125,502.625 517.875,501.0 520.5,499.25 523.625,496.5"/>
    <polyline points="524.0,496.125 530.5,488.5 534.75,482.0 536.375,479.0"/>
    <polyline points="537.0,477.875 539.75,471.5 541.75,465.25 543.0,459.75 543.875,450.625 543.875,445.125 542.75,435.5 541.25,427.875 538.625,419.125"/>
    <polyline points="536.75,414.125 531.875,403.125 528.75,397.0 520.5,383.125 515.25,375.375 509.125,367.125 502.125,358.5 494.0,349.25 484.875,339.75 474.5,330.0 463.0,320.25 450.5,310.875 437.125,302.125 423.0,294.625 408.625,288.875 394.5,285.375 381.25,284.5 369.125,286.75 358.875,292.125 350.75,300.625 345.0,311.75 341.625,325.125 340.375,340.0 341.125,355.625"/>
    <polyline points="343.5,371.625 347.0,387.25 351.5,402.25 356.5,416.375 361.75,429.25 367.25,441.0 378.0,461.0 388.125,476.75 392.875,483.25 397.375,488.875 405.5,498.125 409.25,502.0 419.0,510.875 427.0,517.0 437.0,524.0"/>
    <polyline points="438.5,525.125 444.625,529.75 447.0,532.25 448.875,535.5 449.5,538.0 449.25,541.25 448.375,543.875 446.875,546.625"/>
    <polyline points="446.25,547.5 444.125,550.5 437.125,558.0 430.5,564.0 414.5,577.5"/>
    <polyline points="412.875,578.875 406.0,585.5 404.625,587.625 404.5,588.375 404.75,589.0 405.75,589.375 407.625,589.375 414.75,587.625 420.75,585.75 440.0,578.375 498.125,553.25 609.75,503.0 657.25,482.125 704.75,462.25 746.875,446.625"/>
    <polyline points="778.5,438.125 797.25,438.25 803.625,446.25 800.875,460.375 792.875,478.0 772.625,515.875 763.625,534.0 756.25,551.0 750.125,566.5 736.25,604.5 731.625,613.875 726.625,621.625 720.75,627.375 714.0,631.25 706.375,633.125 698.125,633.25 689.125,631.625 679.75,628.5 670.25,624.25 660.625,619.0 651.25,613.125 642.25,607.0 633.625,600.625"/>
    <polyline points="625.5,594.25 610.875,582.125 578.75,554.5 567.625,545.75 561.5,541.375 551.5,535.25 547.25,533.125 541.625,530.875 536.75,529.375"/>
    <polyline points="535.25,529.0 529.75,528.0 521.75,527.5 514.25,528.25 509.625,529.375"/>
    <polyline points="508.875,529.625 505.375,530.875 499.5,534.125 496.75,536.375 495.5,537.875"/>
    <polyline points="495.25,538.125 494.625,539.5 495.0,540.5 496.125,541.0 498.25,541.25 500.375,541.125 506.5,540.0 518.875,536.75"/>
    <polyline points="522.0,535.75 559.375,523.875 580.0,517.875 586.125,516.5 590.5,515.875 593.5,516.25 593.625,516.625 593.25,517.25 591.625,518.375"/>
    <polyline points="590.375,519.125 587.125,520.5 581.25,522.25 572.25,524.0 565.625,524.625 555.25,524.625 541.625,523.25"/>
    <polyline points="540.25,523.0 526.625,520.5 517.375,519.25"/>
    <polyline points="516.875,519.25 511.375,519.5 506.5,521.125"/>
    <polyline points="506.125,521.25 499.625,525.5 496.875,527.875"/>
    <polyline points="496.375,528.125 490.0,534.0 485.125,539.5"/>
    <polyline points="484.75,540.0 483.5,541.875 483.0,543.25 483.0,544.125 483.25,544.875 484.0,545.375 486.0,545.875 491.25,545.5 497.875,544.125 503.875,542.5"/>
    <polyline points="507.5,541.375 526.125,535.375 572.75,519.375 586.5,515.0 603.5,510.5 611.125,509.375 613.75,509.375 615.375,509.75 616.25,510.5 616.25,511.375 615.75,512.5 612.875,515.125"/>
    <polyline points="610.875,516.5 605.875,519.25 597.125,522.5 591.125,524.0 585.375,525.0 579.75,525.5 572.0,525.375 565.125,524.75 561.0,524.0 550.875,521.0"/>
    <polyline points="549.5,520.5 543.5,517.75 538.25,514.5 534.75,511.5 532.125,507.625"/>
    <polyline points="532.0,507.125 531.375,504.75 531.5,501.75 532.375,498.375 534.625,493.25"/>
    <polyline points="534.875,492.625 539.75,483.0 543.375,474.5 545.375,468.375 546.75,462.875"/>
    <polyline points="547.125,460.875 547.75,456.5 548.125,448.75 547.875,442.75 546.375,432.125 544.25,423.5 540.875,413.5 535.75,401.875 532.25,395.25 523.5,380.375 517.75,372.0 511.125,363.125 503.375,353.625 494.5,343.5 484.25,333.0 472.75,322.375"/>
    <polyline points="459.875,311.625 445.875,301.375 430.875,292.125 415.125,284.25 399.375,278.5 384.0,275.625 369.625,276.0 357.125,280.0 346.875,287.5 339.25,298.5 334.375,312.375 332.125,328.125 332.125,345.375 334.25,362.875 337.75,380.375 342.25,397.125 347.5,412.75 353.125,427.25 358.875,440.25 364.75,452.0 370.375,462.25 380.875,479.375 390.375,492.375 394.75,497.625"/>
    <polyline points="398.75,502.125 406.0,509.5 415.25,517.5 434.125,531.0 437.25,533.625 439.375,536.125 440.875,539.5"/>
    <polyline points="441.0,540.25 441.0,542.875 440.25,545.5 439.375,547.375 435.875,552.375 431.625,556.875 427.625,560.5 419.125,567.25"/>
    <polyline points="417.0,568.75 412.75,572.0 402.375,579.0 389.125,587.25 376.375,594.75 346.125,611.125 328.875,619.875 307.0,630.375 262.75,650.375"/>
    <polyline points="244.625,658.0 225.125,665.625 205.25,672.625 186.375,678.0 170.625,680.25 161.0,677.75 160.375,668.5 170.5,651.625 191.375,627.5 220.25,597.625 286.375,531.875 316.75,500.375 342.375,471.625 362.875,446.25 378.375,424.125 389.25,405.125 396.25,388.875 400.0,375.125 401.125,363.75 400.25,354.5 397.875,347.375 394.5,342.25 390.5,339.125 386.5,337.875 382.625,338.625"/>
    <polyline points="379.125,341.0 376.375,345.125 374.375,350.625 373.375,357.25 373.125,364.875 373.875,373.125 375.375,381.875 377.5,390.75 380.25,399.625 383.5,408.25 387.125,416.625 390.875,424.625 399.0,439.125 403.25,445.625 411.5,457.0 419.375,466.625 426.875,474.5 433.875,481.0 443.375,488.625"/>
    <polyline points="446.125,490.75 454.0,496.125 460.75,500.25 479.0,510.5 485.0,514.375"/>
    <polyline points="485.75,514.75 489.125,517.875 490.25,519.5 491.0,521.5 491.125,522.75 490.75,525.25"/>
    <polyline points="490.625,525.625 488.25,530.125 482.25,537.875"/>
    <polyline points="481.75,538.5 478.5,543.0 477.5,545.125 477.5,546.875 478.0,547.625 479.875,548.25 485.125,548.125"/>
    <polyline points="487.125,547.75 502.75,543.625 512.375,540.5 571.625,519.625 596.75,511.375 610.75,507.625 616.375,506.5 621.0,505.875 624.375,505.75 626.625,506.125 627.875,507.0"/>
    <polyline points="628.125,508.25 627.5,509.875 626.125,511.625 621.625,515.25 618.875,517.0 612.5,520.375 609.125,521.75 602.375,524.125 599.0,525.0 589.5,526.5 581.0,526.75 573.5,526.0 569.125,525.125 563.25,523.375"/>
    <polyline points="561.5,522.75 556.875,520.75 553.0,518.625 547.25,514.375 545.125,512.25 543.0,509.5 541.875,507.375 541.25,505.25"/>
    <polyline points="541.0,504.625 540.75,499.5 541.25,496.375 542.5,492.125 546.125,482.75"/>
    <polyline points="546.625,481.625 549.125,474.75 551.625,466.125 553.125,457.5 553.625,449.5 553.125,439.75 552.625,436.0 550.875,427.625 548.0,417.75"/>
    <polyline points="546.0,412.25 540.5,399.625 532.375,384.625 527.0,376.125 520.625,366.875 513.125,356.875 504.25,346.25 494.0,334.875 482.25,323.0 469.0,311.0 454.0,299.0 437.75,287.625 420.375,277.625 402.5,269.625 384.625,264.5 367.75,263.125 352.625,265.875 340.0,273.0 330.375,284.375 324.125,299.375 321.0,317.0 320.625,336.25 322.75,356.25 326.5,376.0"/>
    <polyline points="331.5,394.875 337.25,412.5 343.375,428.625 349.625,443.125 355.75,455.875 361.75,467.125 367.375,476.875 372.625,485.25 377.625,492.5 386.625,504.125 394.375,512.75 401.0,519.0 406.75,523.75 423.5,535.25"/>
    <polyline points="424.75,536.125 427.5,538.5 429.375,540.75 430.25,543.125 430.25,546.5 429.25,549.25 428.125,551.25 424.75,555.375 421.25,558.875"/>
    <polyline points="419.875,560.125 413.125,565.5 401.625,573.375 381.375,585.375 367.25,592.875 349.375,601.75 334.625,608.625 317.5,616.125"/>
    <polyline points="308.0,620.125 287.375,628.125 276.5,631.875 265.875,635.0 255.625,637.5 246.75,638.75 239.75,638.25 235.625,635.5 234.875,630.25 238.375,622.125 245.875,611.125 257.25,597.75 271.75,582.375 288.375,565.875 323.375,532.375 422.125,439.875"/>
    <polyline points="427.125,435.625 434.75,429.25 440.5,425.25 445.0,423.0 448.5,422.0 452.75,422.125 455.125,422.875 459.625,425.125 467.75,430.0"/>
    <polyline points="468.75,430.625 472.5,432.25 475.125,433.0 479.125,433.25 480.5,433.0 482.875,431.875 484.625,429.875 485.375,427.75"/>
    <polyline points="485.5,427.0 485.75,424.25 485.0,419.875 483.75,416.125 481.75,411.875 479.0,407.5 475.5,403.0 471.25,398.5 466.375,394.5"/>
    <polyline points="464.625,393.25 457.375,389.625 455.625,389.0 452.25,388.375 450.5,388.25 447.5,388.75 446.125,389.25 443.875,390.75 442.875,391.875 441.5,394.5 440.5,399.625 441.125,405.625 443.0,412.125"/>
    <polyline points="443.875,414.375 447.125,420.875 449.75,425.0 455.625,432.5 460.375,437.25 466.75,442.375 471.5,445.375 476.0,447.625 480.25,449.125"/>
    <polyline points="481.625,449.5 485.5,450.25 489.125,450.375 492.375,449.875 496.125,448.25 498.5,446.375 501.0,442.875 502.25,439.375 502.625,436.75"/>
    <polyline points="502.875,435.25 502.5,428.375 500.375,420.0 497.25,412.5 494.375,407.0 490.75,401.125 486.25,395.0 480.875,388.625 477.75,385.375 471.0,379.0 467.375,376.0 459.5,370.375"/>
    <polyline points="455.375,368.0 451.25,365.75 442.75,362.625 438.625,361.625 434.625,361.25 430.875,361.375 427.375,362.125 424.25,363.375 421.375,365.125 419.0,367.625 417.0,370.5 415.5,373.875 414.5,377.75 414.0,381.875 413.875,386.25 414.125,391.0 416.0,400.625 419.0,410.375 421.0,415.125 425.375,424.125 430.375,432.5"/>
    <polyline points="433.0,436.375 435.625,440.125 441.0,446.75 446.375,452.625 454.25,460.0 459.25,464.0 468.5,470.375 476.75,474.875 482.375,477.375 489.125,479.75"/>
    <polyline points="490.625,480.125 499.0,481.75 504.875,481.875 508.125,481.5 513.125,480.125 518.375,477.25"/>
    <polyline points="519.25,476.625 522.375,473.75 525.25,470.0 527.875,465.5 529.5,461.375 531.25,454.625 531.75,450.625 531.75,441.125"/>
    <polyline points="531.5,438.375 529.75,428.875 527.625,421.5 524.5,413.125 522.375,408.375 517.0,398.25 509.875,386.625 505.375,380.375 494.625,366.75 488.125,359.625 473.0,345.0 464.25,337.75 454.875,330.75 444.875,324.25 434.625,318.5 424.0,314.0 413.5,310.75 403.25,309.125"/>
    <polyline points="393.75,309.5 385.25,311.875 377.875,316.25 372.0,322.625 367.75,330.625 364.875,340.25 363.625,351.0 363.75,362.375 365.125,374.125 367.375,386.0 370.5,397.5 374.125,408.625 378.25,419.125 382.625,429.0 391.75,446.25 400.875,460.625 409.5,472.25 421.25,485.5 431.5,495.0"/>
    <polyline points="434.625,497.625 442.75,503.875 463.875,517.875 468.625,521.625 471.5,525.0"/>
    <polyline points="472.0,525.625 473.125,528.125 473.5,530.625 473.375,532.0 473.0,533.875 471.375,537.875 468.75,542.125"/>
    <polyline points="468.25,542.75 463.25,550.125 462.25,552.125 462.0,554.0 462.375,555.0 464.375,555.875 465.5,556.0 471.125,555.375"/>
    <polyline points="473.875,554.75 481.125,552.875 504.875,544.875 571.125,519.625 598.875,509.375 612.375,504.625 636.375,497.375 645.75,495.25 653.125,494.25 658.25,494.5 661.375,495.875 662.375,498.0 661.875,501.0 659.875,504.375 657.0,508.0"/>
    <polyline points="653.25,511.625 644.75,518.625 640.25,521.75 635.625,524.5 626.875,528.875 622.75,530.5 615.125,532.75 605.0,534.0 602.0,534.0 596.5,533.375 587.25,530.875 583.375,529.125 577.0,525.25"/>
    <polyline points="575.75,524.25 572.125,521.125 569.375,518.0 566.625,513.875 565.625,511.75 564.375,507.625 564.0,504.5 564.0,501.25 564.5,497.875"/>
    <polyline points="564.75,496.75 566.125,492.0 574.25,471.875 576.375,465.375 578.25,457.75 579.25,451.75"/>
    <polyline points="579.5,448.375 579.75,444.75 579.625,436.625 578.375,426.875 575.625,414.875 573.375,408.0 566.625,391.375 561.75,381.625 555.5,370.5 547.75,358.125 538.0,344.125 526.0,328.375 511.375,311.0 493.5,292.125 472.375,272.125 447.75,251.625 419.875,232.0 389.75,215.0 358.625,203.125 328.75,198.5 302.625,203.125 282.25,217.625"/>
    <polyline points="268.875,240.875 262.5,270.75 262.125,304.375 266.25,339.0 273.25,372.125 281.5,402.625 290.25,429.625 298.625,453.0 306.5,472.875 313.5,489.375 319.75,503.0 325.375,514.125 330.25,523.125 338.5,536.0 342.125,540.375 345.5,543.625 348.625,546.0 351.75,547.75 357.625,549.375 360.5,549.625 366.25,549.125 372.0,547.875"/>
    <polyline points="374.875,547.0 396.625,540.125 408.0,537.625 412.0,537.125 418.75,536.875 422.875,537.5 426.0,538.375"/>
    <polyline points="426.875,538.875 428.5,539.75 430.375,542.125 430.875,543.5 430.75,546.625 429.75,549.125 426.25,554.125 420.375,559.875"/>
    <polyline points="419.0,561.125 411.875,566.625 399.75,574.75 390.25,580.5 373.75,589.625 357.5,598.0 344.25,604.375 310.375,619.375"/>
    <polyline points="300.375,623.5 278.875,631.375 267.875,634.875 257.25,637.75 247.75,639.375 240.0,639.5 234.75,637.5 233.0,632.875 235.375,625.5 241.875,615.125 252.5,602.0 266.625,586.875 283.0,570.25 300.75,553.0 415.0,444.75 425.875,434.75"/>
    <polyline points="430.125,431.0 439.375,423.75 445.5,420.625 448.625,420.125 452.5,420.625 454.75,421.625 467.0,429.875"/>
    <polyline points="468.0,430.375 473.625,433.0 477.125,433.75 479.5,433.75 481.5,433.25 483.25,432.25 484.25,431.375 485.625,428.875"/>
    <polyline points="485.875,428.0 486.25,425.375 485.5,420.0 483.625,414.75 482.125,411.875 479.375,407.375 475.75,402.625 471.375,398.125 468.0,395.25"/>
    <polyline points="466.25,393.875 460.875,390.5 457.125,388.875 453.5,387.875 450.0,387.5 448.375,387.625 445.5,388.5 444.25,389.25 442.125,391.375 441.375,392.625 440.25,395.75 440.0,397.5 439.875,401.375 440.125,403.5 441.625,410.125"/>
    <polyline points="442.5,412.375 444.375,416.875 448.125,423.5 452.5,429.5 457.125,434.875 463.625,440.75 468.5,444.25 473.25,447.0 479.125,449.625"/>
    <polyline points="480.625,450.0 484.625,451.0 487.125,451.25 491.75,451.0 494.875,450.125 498.375,448.0 500.5,445.75 502.625,441.625 503.25,439.125"/>
    <polyline points="503.5,437.75 503.75,433.0 502.75,425.375 500.625,418.625 495.75,407.875 490.0,398.875 482.25,389.125 479.25,385.75 472.375,379.25 468.75,376.0 464.75,373.0"/>
    <polyline points="460.75,370.125 452.125,365.125 447.75,363.125 443.375,361.5 434.875,359.875 431.0,359.75 427.25,360.375 423.875,361.5 420.75,363.25 418.25,365.625 416.125,368.5 414.375,371.875 413.25,375.75 412.625,380.0 412.375,384.625 413.25,394.375 414.375,399.375 417.375,409.375 421.5,419.125 426.375,428.125"/>
    <polyline points="428.875,432.375 434.25,440.25 439.75,447.125 445.25,453.125 453.25,460.625 460.75,466.625 467.75,471.375 476.125,476.0 481.75,478.625 486.875,480.5"/>
    <polyline points="488.5,481.0 495.875,482.875 501.0,483.5 505.5,483.5 508.625,483.125 512.5,482.125 514.375,481.5 517.0,480.125"/>
    <polyline points="517.875,479.625 522.625,475.875 524.125,474.25 526.25,471.375 528.125,468.125 530.0,464.25 531.5,459.75 532.625,454.375 533.125,450.25"/>
    <polyline points="533.125,448.0 533.0,440.375 532.125,434.375 530.625,427.625 528.375,419.875 522.625,406.25 516.75,395.5 509.0,383.375 504.125,376.75 492.5,362.625 477.75,347.625 469.25,340.0 459.875,332.625 449.875,325.625 439.375,319.25"/>
    <polyline points="428.625,313.875 417.625,309.75 406.875,307.25 396.625,306.5 387.25,308.0 379.125,311.5 372.375,317.125 367.125,324.75 363.625,334.125 361.625,344.75 361.125,356.25 362.125,368.375 364.125,380.625 367.0,392.625 370.5,404.375 374.625,415.375 379.0,425.75 383.625,435.375 388.25,444.125 393.0,452.125 397.625,459.25 406.5,471.625 410.625,476.75 418.5,485.5"/>
    <polyline points="422.25,489.25 429.0,495.5 437.75,502.75 460.625,518.25 466.375,522.875 467.75,524.375"/>
    <polyline points="468.375,525.0 470.0,527.625 470.5,529.0 470.875,530.875 470.875,532.875 469.75,537.0 466.875,542.0"/>
    <polyline points="466.375,542.75 461.0,550.375 458.875,554.625 458.875,555.875 459.375,556.875 461.75,557.625 465.0,557.5"/>
    <polyline points="467.125,557.125 477.0,554.75 493.75,549.25 520.125,539.5 602.25,507.875 630.875,498.25 643.0,494.75 653.125,492.5 660.875,491.625 666.125,492.125 669.0,493.875 669.75,496.5 668.75,500.0 666.25,503.875"/>
    <polyline points="662.875,508.125 658.75,512.25 654.125,516.25 644.625,523.375 635.25,528.875 630.875,531.0 622.75,534.0 619.0,535.0 615.375,535.75 608.875,536.25 605.875,536.25 600.5,535.625 593.375,533.75 587.5,531.125 582.625,528.125"/>
    <polyline points="581.125,527.125 577.375,523.875 574.25,520.625 571.875,517.375 570.125,514.25 568.375,508.875 568.0,505.75 568.375,500.25"/>
    <polyline points="568.625,499.125 571.375,490.625 581.125,469.375 583.625,462.5 585.125,457.125"/>
    <polyline points="585.75,454.25 586.75,447.625 587.25,439.875 586.75,430.625 586.125,425.25 584.875,419.25 583.25,412.625 580.875,405.125 577.75,396.75 573.625,387.25 568.125,376.375 561.125,364.125 552.25,350.125 541.0,334.125 527.0,316.25 509.5,296.125 488.25,274.25 462.75,251.0 433.125,227.75 399.875,206.25 364.375,189.25 329.125,179.875 297.125,180.875"/>
    <polyline points="271.5,194.0 254.25,218.375 245.5,251.625 244.375,290.0 248.75,329.75 256.5,367.875 265.875,402.5 275.375,433.0 284.25,459.0 299.375,498.5 310.75,524.5 315.375,533.5 319.375,540.5 323.125,545.75 326.625,549.625 330.0,552.25 333.375,553.75 336.75,554.5 340.25,554.625 343.875,554.0 351.5,551.75 359.5,548.25"/>
    <polyline points="363.625,546.375 388.375,534.875 396.0,531.75 406.625,528.125 416.125,525.75 421.75,524.75 426.875,524.25 433.625,524.125 441.0,524.875"/>
    <polyline points="442.625,525.25 445.5,526.0 449.0,527.5 451.0,528.5 453.875,530.875 455.625,533.5 456.25,536.375 455.875,539.5 455.375,541.0"/>
    <polyline points="455.0,541.875 453.25,545.25 449.875,549.875 434.875,566.25"/>
    <polyline points="434.0,567.25 432.75,569.125 432.125,571.5 432.375,572.125 433.125,572.5 435.875,572.75 441.25,571.75 450.625,569.0 465.75,563.625 504.625,548.0 625.875,497.0 654.5,485.75 680.75,476.375"/>
    <polyline points="703.0,469.75 719.5,466.75 729.875,467.625 734.375,472.0 734.0,479.125 730.25,488.0 724.5,497.75 710.375,517.25 696.875,534.5 690.875,541.75 680.375,553.625 671.625,562.25 663.875,568.0 660.125,569.875 652.875,572.25 649.25,572.625 642.0,572.375 634.625,570.625"/>
    <polyline points="631.0,569.5 623.875,566.375 616.875,562.875 603.75,554.875 589.625,544.875 580.25,537.75 566.25,525.875"/>
    <polyline points="565.0,524.625 563.625,523.5 558.375,517.875 554.125,511.875 551.875,506.25 551.25,502.625 551.25,499.75"/>
    <polyline points="551.375,498.75 551.75,495.75 552.75,491.5 558.875,473.625 561.375,463.75"/>
    <polyline points="561.875,461.375 563.0,450.625 562.75,440.25 561.625,432.0 559.375,422.25 557.75,416.625 555.625,410.5 549.5,396.375 540.125,379.25 533.875,369.25 526.375,358.375 517.25,346.5 506.5,333.625 493.75,319.875 479.0,305.375 462.125,290.625 443.25,276.125"/>
    <polyline points="422.5,262.75 400.625,251.625 378.5,243.875 357.25,240.75 338.125,243.125 322.375,251.625 310.625,265.625 303.25,284.5 300.125,306.875 300.625,331.0 303.875,355.625 309.0,379.5 315.375,401.875 322.25,422.125 329.375,440.25 336.25,456.25 342.75,470.0 349.0,481.75 354.625,491.75 360.0,500.25 369.125,513.375 377.0,522.5 383.5,528.875"/>
    <polyline points="386.5,531.25 391.625,535.0 394.0,536.375 400.0,539.375 408.625,543.125 412.25,545.125 413.875,546.75 414.625,548.0 414.875,549.25 414.75,550.625"/>
    <polyline points="414.625,551.375 413.5,553.875 410.75,557.5 406.25,561.75 403.375,564.0 398.0,567.875 391.25,572.125 380.0,578.625 373.25,582.125"/>
    <polyline points="369.5,584.0 352.375,592.0 342.375,596.125 326.25,602.125 315.25,605.375 305.25,607.25 300.875,607.625 297.25,607.25 294.5,606.125 292.875,604.25 292.625,601.5 293.625,597.625 296.25,593.0 300.125,587.375 305.5,581.0 312.0,574.0 327.75,558.75"/>
    <polyline points="336.5,551.0 354.375,535.875 371.75,522.375 380.0,516.375 387.75,511.0 402.0,502.0 414.5,495.25 420.125,492.5 430.25,488.375 439.0,485.625 443.0,484.75 450.375,483.5 456.875,482.875 465.375,482.75 470.375,483.125"/>
    <polyline points="472.75,483.375 498.25,486.625 504.125,486.75 509.25,486.25"/>
    <polyline points="510.25,486.0 514.75,484.75 518.875,482.625 521.125,481.0 525.625,476.75 529.625,470.875"/>
    <polyline points="530.25,469.625 532.0,465.75 533.5,461.25 535.0,453.875 535.375,449.5 535.0,439.0 534.0,432.625 531.0,421.5 527.625,412.625 522.875,402.5"/>
    <polyline points="519.75,396.875 516.25,390.875 507.375,377.75 495.625,363.125 480.625,347.375 471.875,339.375 462.375,331.5 452.0,324.0 441.0,317.0 429.625,311.0 418.0,306.25 406.625,303.25 395.625,302.125 385.5,303.25 376.625,306.75 369.25,312.375 363.625,320.375 359.75,330.0 357.5,341.25 357.0,353.5 357.875,366.25 360.0,379.125 363.125,391.875"/>
    <polyline points="366.875,404.25 371.125,415.875 375.75,426.625 380.5,436.625 385.25,445.75 394.875,461.5 403.875,474.0 412.25,484.0 416.125,488.25 423.25,495.25 435.375,505.375 452.125,516.875"/>
    <polyline points="453.625,518.0 459.75,522.375 462.375,524.75 464.75,527.625 466.125,530.375 466.5,532.5 466.5,534.625 466.0,536.75"/>
    <polyline points="465.75,537.5 464.5,540.5 462.625,543.625 454.75,554.25 453.125,557.375"/>
    <polyline points="452.875,558.125 452.75,559.25 453.0,559.875 454.125,560.625 458.125,560.875 463.0,560.0 470.5,558.0 481.5,554.375 518.5,540.625 596.875,509.625 614.75,502.875 631.75,496.875"/>
    <polyline points="647.375,491.875 660.625,488.375 671.0,486.625 678.375,486.625 682.625,488.25 684.125,491.25 683.375,495.375 680.875,500.25 677.0,505.375 672.375,510.625 667.25,515.75 662.0,520.375 656.625,524.625 646.625,531.625 642.0,534.375 637.5,536.625 633.375,538.375 625.875,540.75 622.375,541.375 616.125,541.875 610.5,541.5 607.875,541.0"/>
    <polyline points="605.5,540.375 598.875,538.0 595.0,536.0 590.0,532.75 585.75,529.375 579.375,522.5 576.5,518.125 574.625,513.75"/>
    <polyline points="574.375,512.75 573.625,507.375 573.875,504.125 574.625,500.75 576.75,495.0 578.625,491.25 583.5,483.0"/>
    <polyline points="584.5,481.5 592.0,469.0 595.375,462.25 597.625,457.0 600.5,447.625 601.25,444.0 602.125,435.625 602.0,425.375 600.0,412.625 598.125,404.875 595.25,396.0 591.25,385.875"/>
    <polyline points="585.75,374.125 578.5,360.5 568.875,344.75 556.375,326.25 540.125,305.0 519.375,280.5 493.25,253.125 461.125,223.5 422.875,193.375 379.375,166.0 333.125,145.75 288.625,138.125 251.0,146.875 224.5,173.25 210.625,213.875 208.125,263.0 213.625,314.375 223.625,363.375 235.0,407.0 245.875,444.25 270.125,519.875 279.625,547.0 283.375,555.5"/>
    <polyline points="287.0,561.375 290.625,564.875 294.75,566.5 299.25,566.375 304.375,564.875 310.125,562.25 316.5,558.75 330.625,549.875 368.875,525.0 383.125,516.5 389.875,512.875 402.25,506.75 413.375,502.0 423.125,498.625 435.875,495.5"/>
    <polyline points="439.75,494.875 449.875,494.0 458.5,494.125 466.0,494.875 478.0,497.0 491.875,500.5"/>
    <polyline points="493.0,500.75 500.25,502.625 505.625,503.625 510.125,503.875"/>
    <polyline points="510.5,503.75 512.625,503.625 514.875,503.0 517.625,501.75 519.75,500.375"/>
    <polyline points="520.0,500.0 524.25,496.375 530.5,488.75"/>
    <polyline points="531.0,488.125 535.875,480.375 539.75,472.0 541.75,465.875 543.625,456.125"/>
    <polyline points="543.875,453.75 543.875,443.0 543.125,436.5 541.625,429.0 537.5,415.625 532.875,404.75 529.75,398.75 526.125,392.125 516.875,377.5 511.0,369.375 504.25,360.75 496.5,351.75 487.5,342.25 477.5,332.5 466.375,322.75 454.0,313.125 440.75,304.25"/>
    <polyline points="426.75,296.25 412.5,290.0 398.125,285.75 384.5,284.125 372.0,285.625 361.125,290.125 352.375,297.875 346.0,308.375 342.0,321.25 340.25,335.75 340.5,351.375 342.5,367.375 345.75,383.25 350.0,398.5 354.875,412.875 360.125,426.125 365.625,438.25 371.125,449.125 376.5,458.875 381.75,467.5 386.75,475.125 396.0,487.625 408.125,501.25"/>
    <polyline points="411.625,504.625 418.125,510.375 423.75,514.875 442.0,527.875 445.875,531.375 447.125,533.0 448.875,536.25 449.0,537.125"/>
    <polyline points="449.125,537.875 449.25,539.5 448.5,542.875 446.125,547.5 444.0,550.375 439.25,555.625 431.75,562.625"/>
    <polyline points="430.25,563.875 410.625,580.375 406.125,584.5 403.0,588.125 402.375,590.0 403.0,590.5 404.25,590.75 406.375,590.5 414.625,588.25"/>
    <polyline points="421.625,585.875 443.75,577.125 482.375,560.5 633.875,492.25 683.75,470.625 730.875,451.75 769.375,439.0 795.25,434.75 807.375,439.5 808.25,451.75 801.75,468.75 791.875,488.125 781.25,508.0 771.625,527.375 763.5,545.625 756.875,562.625 742.75,604.375 738.25,615.125 733.25,623.875"/>
    <polyline points="727.375,630.625 720.5,635.375 712.75,637.875 704.125,638.375 694.625,636.875 684.75,633.75 674.625,629.25 664.5,623.75 654.5,617.5 644.875,610.75 635.875,603.875 627.25,597.125 619.25,590.375 575.0,551.625 568.0,545.875 559.25,539.625"/>
    <polyline points="556.625,538.0 549.875,534.25 544.125,531.75 539.0,530.125 531.875,528.625 526.875,528.125 519.625,528.375"/>
    <polyline points="518.625,528.375 513.5,529.25 508.875,530.625 505.625,531.875 501.125,534.5"/>
    <polyline points="500.625,534.75 497.5,537.75 497.25,539.25 497.75,539.875 499.125,540.25 503.625,540.0"/>
    <polyline points="504.875,539.875 509.875,538.875 522.0,535.625 563.25,522.75 570.875,520.5 582.625,517.625"/>
    <polyline points="584.75,517.375 587.625,517.125 588.375,517.25 588.875,517.75 588.0,518.75 584.625,520.375 575.625,523.0 565.125,524.5 555.125,524.75"/>
    <polyline points="553.25,524.75 542.875,524.125 521.25,521.625"/>
    <polyline points="520.5,521.625 515.625,521.5 512.0,521.875 507.875,522.875 506.0,523.625"/>
    <polyline points="505.5,523.875 499.5,527.25 493.75,531.75"/>
    <polyline points="493.25,532.125 486.75,538.625 484.625,542.0 484.375,543.625"/>
    <polyline points="484.5,544.0 485.375,544.875 488.5,545.375 496.75,544.125 505.0,542.0 521.375,536.875 557.375,524.625"/>
    <polyline points="564.125,522.25 584.125,515.875 600.5,511.5 608.0,510.25 610.625,510.25 612.375,510.5 613.375,511.0 613.625,511.875 613.125,512.875 610.75,515.25 604.125,519.0 598.75,521.25 593.0,523.0 584.375,524.625"/>
    <polyline points="581.625,525.0 576.25,525.375 568.75,525.125 558.25,523.625 553.0,522.25 547.125,520.25 542.375,518.25 538.625,516.25"/>
    <polyline points="537.75,515.75 533.75,513.0 531.125,510.375 529.25,507.0 529.0,504.875"/>
    <polyline points="528.875,504.5 529.25,501.75 530.25,498.75 534.5,490.625"/>
  </g>
</svg>
