<?xml version="1.0" encoding="utf-8" ?>
<svg xmlns="http://www.w3.org/2000/svg" xmlns:cc="http://creativecommons.org/ns" xmlns:dc="http://purl.org/dc/elements/1.1/" xmlns:ev="http://www.w3.org/2001/xml-events" xmlns:inkscape="http://www.inkscape.org/namespaces/inkscape" xmlns:rdf="http://www.w3.org/1999/02/22-rdf-syntax-ns" xmlns:sodipodi="http://sodipodi.sourceforge.net/DTD/sodipodi-0.dtd" xmlns:xlink="http://www.w3.org/1999/xlink" baseProfile="tiny" height="27.09333333cm" version="1.2" viewBox="0 0 1024.0 1024.0" width="27.09333333cm">
  <metadata>
    <rdf:RDF>
      <cc:Work>
        <dc:format>image/svg+xml</dc:format>
        <dc:source>vpype read './original_svgs/Strange Attractors #259.svg' linemerge linesimplify write './Strange Attractors #259.svg'
</dc:source>
        <dc:date>2024-08-05T01:35:43.057407</dc:date>
      </cc:Work>
    </rdf:RDF>
  </metadata>
  <defs/>
  <g fill="none" id="layer1" inkscape:groupmode="layer" inkscape:label="1" stroke="black" stroke-width="0.7mm" style="display:inline">
    <polyline points="391.5,561.0 406.875,535.5 447.875,472.0 458.125,454.0 461.375,447.0 463.75,441.0 465.25,435.625 466.125,430.875 466.5,426.625 466.375,422.625 465.75,419.0 463.75,412.125 458.625,402.375 454.25,395.875 448.875,389.25 442.75,382.375"/>
    <polyline points="439.125,378.75 431.125,371.125 421.25,363.125 415.375,358.875 408.875,354.5 401.375,350.0 392.875,345.375 383.0,340.625 371.625,335.875 358.125,331.125 342.375,326.5 323.625,322.25 301.625,318.625 275.75,316.25 245.75,316.0 211.875,319.125 175.625,327.375 139.875,342.625 109.75,367.125 91.625,401.625 90.75,444.5 108.625,492.0 141.375,539.125 181.75,581.625"/>
    <polyline points="222.5,617.375 287.375,669.0 308.875,686.75 323.25,700.75 331.75,711.375 335.5,719.25 335.75,724.5 333.25,727.25 329.25,727.5 324.5,725.375 319.875,720.75 315.75,713.75 312.875,704.75 311.5,693.875 311.625,681.875 313.25,668.875 316.375,655.5 320.625,642.0 325.75,629.0 331.625,616.5 337.875,604.75 344.375,594.0 350.875,584.125 357.25,575.125 363.5,567.125"/>
    <polyline points="369.625,559.875 375.375,553.5 386.125,542.625 395.75,534.125 404.375,527.25 411.875,521.75 438.125,504.5 444.5,499.75 447.0,497.5"/>
    <polyline points="448.125,496.5 450.875,493.25 452.875,490.0 454.125,486.875 454.625,483.625 454.375,479.0 453.375,475.5 451.625,471.75 449.25,467.75"/>
    <polyline points="448.375,466.375 442.25,459.25 435.625,453.0 429.375,448.125 421.75,443.125 415.875,439.75 405.5,434.75 393.125,430.125 383.5,427.5"/>
    <polyline points="378.375,426.375 367.25,424.625 355.125,423.875 342.375,424.5 335.875,425.5 329.5,426.875 323.25,429.0 317.375,431.625 311.875,435.0 307.125,439.0 303.25,443.625 300.375,449.0 298.5,454.875 298.0,461.25 298.625,468.0 300.625,475.0 303.875,482.125 308.125,489.125 313.5,496.0 319.5,502.5 326.25,508.625 333.375,514.125 340.75,519.25"/>
    <polyline points="348.25,523.75 355.625,527.625 363.0,531.0 370.25,533.875 377.25,536.25 390.375,539.75 402.25,541.75 418.125,543.0 427.375,542.875 435.75,542.375 450.25,540.5 467.25,537.375"/>
    <polyline points="469.75,536.875 485.75,533.625 493.5,532.5 499.875,532.0 507.375,532.25"/>
    <polyline points="508.375,532.375 512.875,533.25 517.875,535.0 522.625,537.375 529.0,541.625"/>
    <polyline points="529.75,542.25 550.125,557.875 557.25,562.375"/>
    <polyline points="558.75,563.375 567.625,567.75 574.0,570.0 578.75,571.25 589.625,572.75 596.0,572.625 607.0,571.25 615.375,569.0 624.75,565.5 635.125,560.375"/>
    <polyline points="640.625,557.125 646.375,553.375 652.25,549.0 658.25,544.125 664.375,538.625 670.5,532.5 676.5,525.875 682.25,518.75 687.625,511.125 692.5,503.25 696.625,495.125 699.875,487.0 702.125,479.125 703.25,471.625 703.0,464.75 701.625,458.5 698.875,453.25 695.125,449.0 690.25,445.75 684.625,443.5 678.25,442.25 671.375,442.0 664.125,442.375 656.875,443.375 649.5,444.875 642.375,446.875"/>
    <polyline points="635.25,449.0 615.875,456.375 581.0,471.625 566.5,477.625 552.25,482.625 539.0,486.0"/>
    <polyline points="537.0,486.25 528.5,487.25 522.625,487.25 518.625,486.875 512.625,485.625 508.125,484.125 503.875,482.125"/>
    <polyline points="502.875,481.5 499.75,479.625 493.375,475.0 485.375,468.125 473.125,456.5"/>
    <polyline points="471.5,455.0 462.625,446.75 451.375,437.125 443.0,430.75 433.0,423.875 420.625,416.625 405.125,409.0 399.125,406.5 385.375,401.75"/>
    <polyline points="377.625,399.5 369.25,397.375 350.125,394.125 339.5,393.125 328.0,392.625 316.0,393.0 303.375,394.375 290.625,397.0 278.0,401.0 266.0,406.625 255.375,414.125 246.625,423.625 240.625,435.0 237.875,448.0 238.75,462.375 243.125,477.625 251.0,493.0 261.5,507.875 274.125,522.0 287.875,534.875 302.125,546.25 316.125,556.125 329.75,564.375 342.375,571.375 354.25,577.0"/>
    <polyline points="365.0,581.625 374.75,585.125 383.625,587.875 391.75,590.0 399.0,591.5 411.625,593.25 422.375,593.75 431.375,593.5 443.0,592.5 461.25,590.25 471.125,589.75 475.625,589.875"/>
    <polyline points="477.875,590.125 481.875,590.625 489.5,592.75 496.375,596.0 501.125,599.25 507.0,604.875 509.625,608.125 514.5,615.75 516.625,620.25"/>
    <polyline points="517.5,622.625 518.5,625.125 520.0,630.5 521.25,636.5 522.0,646.75 521.75,654.5 520.375,663.125 519.25,667.875 517.625,673.0 513.125,684.125 510.0,690.25 506.0,696.875 501.25,703.875 495.5,711.375 488.625,719.375 480.25,727.75 470.5,736.75 458.875,746.0 445.5,755.5"/>
    <polyline points="430.0,764.875 412.375,773.75 392.875,781.75 371.875,787.875 349.875,791.25 328.0,791.125 307.5,786.5 289.625,776.75 275.625,762.0 266.25,742.625 261.875,719.625 262.125,694.625 266.125,669.0 272.75,643.875 281.125,620.375 290.375,599.0 299.625,580.125 308.5,563.625 316.875,549.5 324.375,537.5 337.125,519.125 347.0,506.5 354.625,498.125"/>
    <polyline points="357.875,495.125 360.75,492.625 365.75,489.25 372.0,486.75 377.5,485.875 395.0,486.25 401.75,485.625"/>
    <polyline points="403.0,485.375 409.125,483.25 410.75,482.25 413.625,479.25 414.75,476.5 414.875,475.0 414.75,473.5 413.5,470.125"/>
    <polyline points="413.125,469.375 411.25,466.75 407.625,463.375 402.75,460.0 398.375,457.75 393.25,455.75 387.5,454.25 383.375,453.5 377.0,453.0"/>
    <polyline points="374.875,453.125 370.625,453.5 366.5,454.375 361.0,456.625 356.75,460.125 354.875,463.125 354.375,464.75 353.875,468.375 354.125,470.25 355.25,474.25 356.25,476.125 357.5,478.125 360.625,482.0 366.75,487.375"/>
    <polyline points="369.125,488.875 376.875,493.0 385.0,496.0 393.125,498.0 401.0,498.875 405.875,499.0 414.875,498.25 420.75,497.0 427.25,494.5"/>
    <polyline points="428.625,493.875 433.375,490.75 436.0,488.125 437.875,485.375 439.0,482.25 439.375,479.125 439.25,476.875 438.375,473.5 436.125,468.625"/>
    <polyline points="435.25,467.375 432.375,463.5 429.875,460.75 425.375,456.625 419.875,452.5 410.625,446.875 402.125,443.0 392.125,439.375 384.5,437.375 376.375,435.875"/>
    <polyline points="372.0,435.375 363.0,434.875 353.75,435.375 344.5,437.125 340.0,438.5 335.75,440.25 331.875,442.375 328.375,445.0 325.25,448.0 322.75,451.375 320.875,455.125 319.625,459.25 319.25,463.625 319.625,468.25 320.75,473.0 322.625,477.875 325.25,482.625 328.625,487.5 332.5,492.125 336.875,496.5 346.875,504.5 352.125,508.0"/>
    <polyline points="357.625,511.25 368.75,516.5 379.75,520.5 385.0,522.0 390.25,523.25 400.0,524.875 409.125,525.75 421.5,525.875 432.25,525.0 444.5,522.875 456.75,519.625"/>
    <polyline points="458.75,518.875 462.625,517.625 469.375,514.875 475.875,511.625 481.5,508.0 484.625,505.125 486.0,503.375"/>
    <polyline points="486.375,502.75 487.75,499.875 488.125,498.125 488.125,495.0 487.125,490.875 485.125,486.375"/>
    <polyline points="484.625,485.625 482.625,482.125 479.375,477.375 474.25,470.75 466.125,461.625 461.75,457.25"/>
    <polyline points="460.25,455.625 448.75,445.375 438.75,437.625 432.75,433.5 422.125,427.125 413.75,422.75 398.75,416.25 386.75,412.25 380.0,410.375 365.125,407.25"/>
    <polyline points="356.875,406.0 348.125,405.25 338.875,404.875 329.25,405.125 319.375,406.125 309.25,408.0 299.25,410.75 289.625,414.75 280.875,419.875 273.125,426.375 267.125,434.25 263.125,443.5 261.375,453.625 262.25,464.75 265.625,476.375 271.25,488.125 279.0,499.75 288.25,510.75 298.75,521.0 309.75,530.25 321.125,538.5 332.375,545.625 343.25,551.75 353.75,556.875 363.625,561.0 372.75,564.375"/>
    <polyline points="381.375,567.125 396.75,570.75 403.625,571.875 410.0,572.625 426.625,573.375 440.25,572.75 473.25,569.375 485.375,569.125"/>
    <polyline points="487.625,569.25 491.875,569.625 499.75,571.125 507.0,573.5 510.5,575.0 515.625,577.625 519.0,579.75 525.625,584.375 532.375,590.0"/>
    <polyline points="534.0,591.5 557.625,613.0 562.5,617.0 570.75,623.0 580.625,628.625 588.375,631.75 592.75,633.125 602.875,634.875"/>
    <polyline points="608.625,635.25 615.125,635.0 622.25,634.25 630.375,632.625 639.375,630.0 649.625,626.125 661.25,620.75 674.375,613.5 689.125,603.875 705.625,591.625 723.875,576.0 743.625,556.75 764.375,533.5 785.0,506.5 803.875,476.125 819.25,443.875 828.625,412.0 830.375,383.0 823.875,359.625 809.5,343.5 789.375,335.125 765.875,333.625 741.75,337.5 718.75,344.875 698.125,354.375 680.5,364.5"/>
    <polyline points="665.875,374.625 654.25,384.375 645.0,393.25 638.0,401.5 632.75,408.875 628.875,415.5 626.125,421.625 622.625,432.25 618.625,448.875 616.25,455.375 613.125,461.0 609.125,465.75 604.375,469.75 601.875,471.5 596.375,474.625 590.75,477.125"/>
    <polyline points="587.875,478.25 579.25,481.125 563.125,485.125 545.125,488.375 537.75,489.25 531.125,489.625"/>
    <polyline points="529.625,489.75 520.25,489.375 512.25,487.75 506.125,485.375 501.25,482.625"/>
    <polyline points="500.375,482.125 495.5,478.625 488.25,472.5 471.5,456.5"/>
    <polyline points="469.875,454.875 456.625,442.875 446.75,434.875 430.625,423.75 422.375,418.875 407.75,411.5 395.75,406.625 381.75,402.0"/>
    <polyline points="373.75,399.875 365.125,398.0 355.75,396.375 345.75,395.25 335.0,394.5 323.5,394.5 311.5,395.25 299.25,397.125 286.875,400.25 274.875,404.875 263.75,411.25 254.25,419.375 246.875,429.375 242.375,441.0 241.125,454.25 243.375,468.5 248.875,483.25 257.5,498.0 268.5,512.125 281.125,525.375 294.625,537.375 308.5,547.875 322.0,556.875 335.0,564.5 347.125,570.875 358.375,576.0"/>
    <polyline points="368.75,580.125 378.125,583.375 386.75,585.875 401.5,589.0 413.875,590.5 429.125,590.75 441.375,589.875 463.25,587.375 470.875,587.0 477.875,587.125"/>
    <polyline points="480.0,587.375 486.125,588.375 493.625,590.75 498.875,593.375 502.125,595.5 508.25,600.625 512.5,605.25 516.5,610.75 520.125,617.125"/>
    <polyline points="521.25,619.375 524.375,627.0 526.125,632.75 527.875,642.5 528.5,649.875 528.5,653.875 527.875,662.5 525.875,672.375 522.375,683.5 519.625,689.75 512.125,703.625 506.875,711.25 500.5,719.625 492.75,728.625 483.375,738.125 472.125,748.25"/>
    <polyline points="458.625,759.0 442.75,769.875 424.375,780.75 403.375,791.0 380.0,799.875 354.75,806.125 328.75,808.75 303.5,806.25 280.75,797.75 262.375,782.625 249.625,761.375 243.125,735.25 242.5,706.125 246.75,676.0 254.5,646.5 264.125,619.125 274.5,594.5 284.875,573.125 294.5,554.75 303.125,539.375 310.75,526.625 322.875,507.875 327.5,501.25 335.0,491.875"/>
    <polyline points="337.875,489.0 340.5,486.75 342.875,485.375 345.125,484.5 349.375,484.125 353.625,485.125 373.125,492.875 381.25,495.375 392.125,497.625 399.875,498.25"/>
    <polyline points="402.375,498.25 411.5,497.75 417.5,496.625 424.25,494.375 428.375,492.375 432.625,489.125 434.875,486.5 436.875,482.625"/>
    <polyline points="437.125,481.625 437.375,477.375 436.375,472.75 434.625,469.25 432.125,465.5 428.75,461.5 424.5,457.5 415.0,450.75"/>
    <polyline points="412.75,449.375 402.125,444.125 392.5,440.75 385.25,438.75 377.5,437.25 373.375,436.75 364.75,436.25 360.375,436.375 351.375,437.375 347.0,438.25 342.75,439.5 338.75,441.125 334.875,443.125 331.375,445.375 328.375,448.125 325.875,451.25 323.875,454.75"/>
    <polyline points="322.625,458.5 322.0,462.625 322.0,467.0 322.875,471.375 324.5,476.0 326.75,480.625 329.625,485.125 333.125,489.625 337.125,493.875 346.375,501.75 351.375,505.25 361.875,511.25 367.25,513.75 372.5,515.875 382.875,519.375 392.875,521.75 402.25,523.125 410.875,523.75 418.875,523.75"/>
    <polyline points="422.625,523.625 432.875,522.625 439.0,521.625 447.125,519.75 454.125,517.75 466.625,512.875 470.75,510.75 475.125,508.0"/>
    <polyline points="476.0,507.375 479.25,504.75 481.5,502.125 483.0,499.5 484.0,495.375 484.0,493.25 483.5,490.25"/>
    <polyline points="483.25,489.5 481.375,484.5 477.5,477.875 472.625,471.125 466.0,463.5"/>
    <polyline points="464.75,462.0 457.25,454.375 447.5,445.75 437.5,438.125 428.125,432.0 420.875,427.75 412.5,423.5 402.875,419.25 391.75,415.125"/>
    <polyline points="385.5,413.25 371.75,409.875 364.125,408.5 356.0,407.375 347.375,406.75 338.375,406.5 329.0,406.875 319.25,408.0 309.5,409.875 300.0,412.75 290.75,416.75 282.375,422.0 275.25,428.5 269.625,436.125 266.0,445.125 264.5,455.0 265.5,465.75 268.875,477.0 274.375,488.25 281.875,499.375 290.875,510.0 301.0,519.875 311.625,528.875 322.625,536.75 333.5,543.625"/>
    <polyline points="344.125,549.625 354.375,554.5 364.0,558.625 373.125,561.875 389.375,566.625 403.625,569.25 415.875,570.375 431.375,570.625 444.375,569.75 464.875,567.375 476.0,566.5"/>
    <polyline points="478.5,566.375 485.5,566.25 492.0,566.625 499.875,567.875 505.375,569.375 510.625,571.375 517.375,574.75 525.5,580.0"/>
    <polyline points="527.25,581.25 535.75,587.875 548.75,599.0 559.875,607.75 570.75,614.75 577.125,618.0 584.375,620.875"/>
    <polyline points="588.375,622.0 597.5,623.75 602.75,624.125 608.375,624.125 614.75,623.75 621.625,622.625 629.375,620.875 637.875,618.125 647.5,614.25 658.125,609.125 670.125,602.25 683.375,593.625 697.875,582.625 713.75,569.0 730.75,552.5 748.25,533.0 765.625,510.375 781.75,485.375 795.25,458.75 804.5,432.0 808.125,406.875 805.375,385.5 796.375,369.0 782.0,358.5 763.875,353.625"/>
    <polyline points="743.75,353.75 723.375,357.625 704.125,364.0 686.5,371.75 671.0,380.125 657.875,388.5 646.75,396.5 637.625,403.875 630.125,410.75 624.0,417.0 619.0,422.5 611.625,432.125 598.875,451.625 595.5,456.125 590.0,461.625 586.0,464.5"/>
    <polyline points="584.0,465.75 577.5,469.0 573.0,470.75 561.75,473.875 548.875,475.75 542.75,476.125 537.125,476.125 531.625,475.75"/>
    <polyline points="530.0,475.5 524.875,474.75 520.125,473.625 511.125,470.375 502.5,465.75 492.375,458.375"/>
    <polyline points="490.875,457.125 484.625,451.75 465.75,434.25 455.875,425.5 443.625,415.625 431.875,407.375"/>
    <polyline points="427.375,404.5 417.125,398.5 404.875,392.375 389.875,386.125 381.25,383.125 371.5,380.125 360.75,377.375 348.875,375.0 335.75,373.125 321.125,371.75 305.375,371.5 288.25,372.375 270.375,375.0 252.25,379.75 234.75,387.25 218.875,397.75 206.375,411.625 198.625,428.75 196.625,448.75 201.125,470.625 211.5,493.375 226.625,515.5 245.125,536.25"/>
    <polyline points="265.0,554.75 285.0,570.75 304.0,584.25 321.375,595.25 336.75,604.25 350.25,611.375 361.75,617.0 371.625,621.25 380.125,624.5 393.25,628.375 398.5,629.375 403.0,630.0 406.875,630.125 410.375,629.875 413.5,629.5 416.375,628.75 421.375,627.0 425.75,624.875 435.875,619.0"/>
    <polyline points="437.75,617.875 443.5,614.75 449.0,612.25 456.125,610.0 459.625,609.375 466.25,609.125 470.75,609.875 475.0,611.375 478.75,613.625"/>
    <polyline points="480.0,614.5 483.125,617.75 485.75,621.875 487.125,625.125 488.125,628.75 488.75,632.75 488.75,639.625 487.375,647.625 485.5,653.625 480.75,663.5 476.0,670.75"/>
    <polyline points="473.125,674.625 466.125,682.625 457.125,690.75 451.875,694.875 446.125,698.875 439.875,702.75 433.125,706.5 425.75,709.75 418.125,712.625 410.0,715.0 401.875,716.5 393.5,717.125 385.375,716.75 377.625,715.25 370.375,712.5 363.875,708.5 358.375,703.125 354.0,696.625 350.875,688.875 349.0,680.375 348.375,671.125 349.0,661.5 350.625,651.5 353.25,641.625"/>
    <polyline points="356.5,631.75 360.5,622.25 364.875,613.25 369.625,604.75 374.625,596.75 379.625,589.375 384.75,582.625 394.75,570.625 404.375,560.75 408.875,556.5 417.5,549.125 429.125,540.375 436.0,535.75 445.125,530.125 455.375,524.375"/>
    <polyline points="457.625,523.25 470.375,516.375 478.0,511.875 483.25,508.0 486.625,504.5"/>
    <polyline points="487.0,504.0 488.75,500.625 489.25,496.5 488.5,492.625 486.75,488.5"/>
    <polyline points="486.375,487.75 483.0,481.875 477.25,473.875 472.375,468.0 466.25,461.375"/>
    <polyline points="464.875,459.875 460.25,455.25 450.875,446.75 443.875,441.125 435.625,435.125 429.125,431.0 421.75,426.625 408.625,420.125 398.125,415.75 385.875,411.75"/>
    <polyline points="379.125,409.875 371.875,408.125 355.75,405.625 346.875,404.875 337.5,404.5 327.75,404.875 317.75,406.0 307.5,407.875 297.5,410.875 287.875,415.0 279.125,420.375 271.625,427.125 265.75,435.25 262.0,444.625 260.75,455.125 261.875,466.375 265.625,478.125 271.75,490.0 279.75,501.625 289.375,512.625 300.0,522.875 311.25,532.0 322.625,540.125 333.875,547.125 344.875,553.125"/>
    <polyline points="355.25,558.125 374.125,565.5 382.625,568.0 397.875,571.5 404.625,572.625 411.0,573.25 416.875,573.75 432.25,573.75 445.0,572.875 470.875,570.125 478.625,569.75"/>
    <polyline points="481.125,569.75 492.125,570.375 496.125,571.0 503.75,573.0 509.0,575.125 515.875,578.75 520.875,581.875 527.5,587.0"/>
    <polyline points="529.125,588.375 536.0,594.375 553.375,610.875 562.75,619.125 571.0,625.25 577.375,629.25 584.625,632.875 588.625,634.375"/>
    <polyline points="593.125,635.75 603.25,637.75 609.125,638.125 615.625,638.0 622.875,637.25 631.125,635.625 640.25,633.0 650.75,629.125 662.625,623.625 676.125,616.125 691.375,606.125 708.625,593.375 727.625,577.0 748.25,556.75 769.875,532.375 791.25,503.75 810.875,471.75 826.375,437.875 835.375,404.625 836.0,374.875 827.75,351.5 811.375,336.125 789.375,328.875 764.5,328.75 739.375,333.875"/>
    <polyline points="716.0,342.5 695.5,352.75 678.25,363.5 664.25,374.0 653.25,384.0 644.875,393.125 638.625,401.375 634.25,409.0 631.125,415.75 629.0,422.0 627.5,427.75 623.75,450.375 621.375,457.25 619.875,460.375 616.0,465.75 613.625,468.125 608.5,472.25 602.75,475.625"/>
    <polyline points="599.75,477.125 590.5,480.875 575.625,485.375 557.375,489.625 537.875,493.125"/>
    <polyline points="536.25,493.375 527.75,494.25 521.75,494.375 514.875,493.625 508.875,491.875"/>
    <polyline points="508.125,491.625 503.375,489.25 498.875,486.125 494.875,482.875 488.0,476.375"/>
    <polyline points="487.0,475.5 465.875,454.25 460.5,449.25 449.625,440.0"/>
    <polyline points="447.125,438.0 431.875,427.25 420.0,420.375 410.5,415.625 399.375,410.875 386.5,406.375 379.25,404.25 362.875,400.625 353.75,399.25 343.875,398.375 333.5,397.875 322.5,398.125 311.125,399.25 299.5,401.375 288.0,404.75 277.0,409.5"/>
    <polyline points="267.0,415.875 258.625,423.875 252.25,433.5 248.625,444.75 248.0,457.125 250.5,470.5 256.0,484.25 264.125,497.875 274.5,511.125 286.25,523.375 299.0,534.375 311.875,544.25 324.625,552.75 337.0,559.875 348.625,565.875 359.5,570.75 369.5,574.625 378.75,577.75 387.125,580.125 394.875,581.875 402.0,583.125 414.5,584.625 425.125,585.0 429.875,584.875"/>
    <polyline points="434.375,584.625 465.25,581.625 470.5,581.25 477.875,581.25 482.375,581.5 488.75,582.375 494.625,583.875 500.125,586.0"/>
    <polyline points="501.875,586.875 507.0,589.875 513.5,594.75 516.625,597.625 522.625,604.375 529.875,614.5 534.0,621.75 539.125,632.875"/>
    <polyline points="540.25,635.875 543.5,646.0 545.25,653.625 546.375,662.0 546.75,671.5 546.5,676.625 546.0,682.125 545.0,688.0 543.5,694.375 541.375,701.375 538.375,708.875 534.5,717.0 529.375,726.0 522.75,736.0 514.375,746.875 503.625,759.0 490.125,772.25 473.375,786.75 452.625,802.25 427.25,818.375 397.125,834.25"/>
    <polyline points="362.25,848.25 323.75,858.25 283.875,861.25 246.125,854.375 214.75,835.5 193.5,804.75 183.875,764.5 185.0,719.125 194.0,673.25 207.375,630.375 222.125,592.625 236.0,560.875 264.5,499.0 275.25,474.25 276.75,471.5 277.875,471.0 279.25,472.25 286.625,483.5 295.75,494.5"/>
    <polyline points="301.625,500.375 308.125,506.25 315.375,511.875 322.875,517.125 330.75,522.0 338.625,526.375 346.625,530.25 354.5,533.625 369.5,539.0 383.5,542.5 390.0,543.75 402.125,545.25 407.75,545.625 418.125,545.75 427.5,545.375 435.875,544.625 450.375,542.5"/>
    <polyline points="453.625,541.875 486.375,535.5 495.75,534.375 502.125,534.25"/>
    <polyline points="503.25,534.25 510.75,535.125 516.375,536.75 521.625,539.125 526.875,542.25"/>
    <polyline points="527.75,542.875 546.125,556.5 555.75,562.875"/>
    <polyline points="557.25,563.875 566.125,568.375 574.625,571.5 579.5,572.75 584.875,573.625 594.125,574.125 601.125,573.625 613.375,571.125 622.625,567.875 633.0,563.0"/>
    <polyline points="638.5,560.0 644.375,556.375 650.375,552.125 662.875,542.0 675.5,529.375 681.625,522.125 687.375,514.5 692.75,506.375 697.375,498.0 701.125,489.5 704.0,481.25 705.625,473.125 705.875,465.625 704.875,458.875 702.625,453.125 699.0,448.25 694.375,444.5 688.625,441.875 682.25,440.375 675.25,439.75 667.875,440.0 660.375,440.875 645.375,444.375"/>
    <polyline points="638.0,446.625 624.25,451.625 611.75,456.75 577.875,471.75 563.875,477.5 552.625,481.375 539.0,484.625"/>
    <polyline points="537.125,485.0 526.75,485.875 518.25,485.25 513.125,484.125 509.625,483.0 502.875,479.75"/>
    <polyline points="501.75,479.125 494.0,473.875 488.125,469.0 469.625,451.875"/>
    <polyline points="467.875,450.25 455.5,439.25 444.875,430.875 431.25,421.625 418.375,414.125 413.375,411.5 402.0,406.375 388.625,401.375 381.0,399.0 363.75,394.875"/>
    <polyline points="353.875,393.125 343.375,391.875 332.0,391.125 319.875,391.125 307.125,392.125 294.0,394.125 280.875,397.625 268.25,402.75 256.625,409.75 246.75,418.75 239.5,429.75 235.375,442.625 234.875,457.0 238.25,472.5 245.375,488.375 255.375,504.0 267.875,518.875 281.75,532.5 296.375,544.75 310.875,555.25 325.0,564.25 338.25,571.875 350.5,578.0 361.625,582.875 371.875,586.875 381.0,589.875"/>
    <polyline points="389.375,592.125 396.75,593.875 403.5,595.0 415.375,596.25 420.5,596.375 433.75,596.0 464.375,592.5 473.625,592.375 479.75,593.125"/>
    <polyline points="481.75,593.5 489.0,595.75 492.375,597.375 497.125,600.375 500.125,602.875 504.25,607.125 508.0,612.25 510.25,616.125 513.125,622.75 515.375,630.5"/>
    <polyline points="515.875,633.375 516.75,642.75 516.75,646.25 516.125,653.875 514.5,662.375 511.375,671.875 506.5,682.625 503.25,688.5 499.25,694.75 494.375,701.375 488.625,708.375 481.75,715.875 473.75,723.75 464.25,731.875 453.375,740.25 440.75,748.625 426.5,756.75 410.5,764.375 393.125,771.0 374.5,775.875"/>
    <polyline points="355.375,778.375 336.375,777.75 318.625,773.375 303.0,764.875 290.625,752.25 282.0,735.75 277.5,716.25 276.75,694.75 279.375,672.375 284.625,650.125 291.625,628.875 299.625,609.25 308.0,591.5 316.5,575.625 324.5,561.875 332.125,550.0 345.375,531.0 351.125,523.625 361.0,512.125 369.0,504.0 378.25,496.0"/>
    <polyline points="380.875,494.25 385.375,491.25 389.25,489.125 401.875,483.625 405.5,481.625 408.625,479.0 409.625,477.125"/>
    <polyline points="409.875,476.5 410.25,475.25 410.25,473.875 409.5,471.0 406.5,466.625 400.875,462.375 394.5,459.25"/>
    <polyline points="393.0,458.75 386.75,457.125 379.875,456.375 374.625,456.625 369.75,457.75 365.5,459.75 362.375,462.625 361.0,465.125 360.375,467.75 360.375,469.25"/>
    <polyline points="360.5,470.75 362.25,475.375 363.125,476.875 365.625,479.875 368.625,482.875 372.25,485.5 378.375,488.875 385.0,491.375 391.75,493.125 398.375,494.0 404.5,494.0"/>
    <polyline points="406.5,494.0 412.0,493.25 418.25,491.5 420.875,490.375 425.25,487.625 428.25,484.375 429.375,482.625 430.25,479.75 430.5,476.75"/>
    <polyline points="430.375,475.75 429.25,471.375 426.625,466.75 422.5,462.0 419.875,459.625 415.125,455.875 411.375,453.5 404.875,450.0 397.125,446.75"/>
    <polyline points="394.375,445.75 388.25,444.0 381.75,442.625 374.875,441.75 367.625,441.375 360.125,441.875 352.875,443.125 346.0,445.625 342.875,447.25 337.5,451.25 335.375,453.75 333.75,456.5 332.5,459.625 331.875,462.75 331.75,466.25 332.125,469.75 333.125,473.5 334.625,477.125"/>
    <polyline points="336.75,480.875 339.25,484.5 342.25,488.125 349.375,494.75 353.375,497.75 357.5,500.625 366.25,505.5 370.75,507.625 379.75,511.0 384.25,512.375 392.875,514.375 405.0,515.875 408.75,516.125 419.25,516.0 431.375,514.5"/>
    <polyline points="434.0,514.0 445.625,510.75 451.375,508.5 456.125,506.125 463.25,501.25 467.0,497.0 468.5,494.375"/>
    <polyline points="468.875,493.5 469.75,490.75 470.0,488.875 469.625,484.0 469.125,482.0 465.625,474.125 460.375,466.5"/>
    <polyline points="459.25,465.125 452.625,457.75 447.625,453.0 436.875,444.25 431.625,440.5 425.75,436.75 415.25,430.875 402.5,425.125 392.375,421.5"/>
    <polyline points="386.875,419.875 381.0,418.25 368.0,415.625 353.5,414.125 345.75,413.875 337.625,414.125 329.5,414.875 321.125,416.375 313.0,418.625 305.125,421.625 297.75,425.625 291.25,430.625 285.75,436.5 281.75,443.375 279.375,451.25 278.75,459.75 280.0,468.75 283.125,478.125 287.875,487.5 294.25,496.75 301.75,505.625 310.25,513.875 319.25,521.375 328.625,528.25"/>
    <polyline points="338.0,534.125 347.375,539.375 356.375,543.75 365.125,547.375 373.375,550.375 381.25,552.875 388.75,554.75 395.75,556.25 402.25,557.25 414.25,558.5 429.75,558.75 446.625,557.5 472.0,554.125"/>
    <polyline points="474.625,553.875 479.5,553.25 488.375,552.75 494.25,552.75 499.625,553.125 509.5,555.0 517.0,557.625 519.875,559.0"/>
    <polyline points="521.25,559.625 531.375,565.5 553.0,580.0 563.625,586.0"/>
    <polyline points="566.125,587.125 571.25,589.375 580.125,592.125 587.0,593.375 590.75,593.75 599.125,594.0 608.625,593.0 614.0,592.0 619.75,590.5 632.625,586.0 639.875,582.625 647.625,578.5 655.875,573.5 664.75,567.375 674.125,560.25 683.875,551.875 693.875,542.125 704.0,531.125 714.0,519.0"/>
    <polyline points="723.375,505.75 731.75,491.625 738.625,477.125 743.5,462.75 746.0,449.125 745.875,436.625 743.0,426.0 737.5,417.625 729.625,411.5 720.0,407.75 709.125,406.25 697.5,406.625 685.625,408.5 673.875,411.5 662.75,415.125 652.125,419.375 633.125,428.125 610.5,440.25 584.25,455.0"/>
    <polyline points="580.125,457.125 566.5,463.375 558.0,466.375 550.625,468.25 544.0,469.25 534.125,469.5 527.125,468.625 522.125,467.375"/>
    <polyline points="520.5,466.875 514.25,464.5 509.75,462.25 502.25,457.5 494.625,451.625 488.375,446.0 481.625,439.375"/>
    <polyline points="479.75,437.625 463.0,420.875 452.125,410.75 438.0,399.0 429.125,392.625 418.5,385.875 405.5,378.875 398.0,375.125 379.875,367.875"/>
    <polyline points="369.0,364.375 356.75,361.0 342.75,357.875 327.0,355.375 309.25,353.625 289.5,353.0 267.875,354.125 244.75,357.625 221.25,364.375 198.75,375.125 179.5,390.625 166.0,411.25 160.75,436.5 165.0,465.125 178.25,495.125 198.875,524.5 223.625,551.625 249.875,575.25 275.125,595.25 298.0,611.625 317.625,624.875 334.0,635.375 357.875,649.75 372.25,658.0"/>
    <polyline points="377.0,660.25 380.5,661.625 383.0,662.25 384.875,662.0 386.375,661.25 388.5,657.875 392.75,646.375 395.75,639.25 399.625,631.75 404.25,624.125 409.375,616.875 415.125,610.0 421.0,603.75 430.125,595.625"/>
    <polyline points="433.25,593.25 439.25,589.0 448.125,583.75 459.375,578.75 467.125,576.25 476.75,574.375 483.5,573.875 489.75,574.125 495.625,575.0"/>
    <polyline points="497.5,575.5 503.0,577.125 508.25,579.375 513.375,582.125 518.375,585.5 528.25,593.75 540.125,606.125"/>
    <polyline points="541.875,608.125 557.75,626.25 570.0,639.0 579.0,646.75 586.0,651.625 594.375,656.0 599.0,657.875 604.25,659.5 610.125,660.75 616.75,661.375 624.25,661.375"/>
    <polyline points="632.75,660.375 642.625,658.375 654.0,654.75 667.25,649.25 682.75,641.25 700.875,630.0 722.0,614.875 746.125,594.625 773.25,568.375 802.375,535.375 831.75,495.625 858.25,450.375 877.375,402.75 884.75,357.875 878.0,321.25 857.5,297.0 827.25,286.375 792.75,287.375 758.875,296.375 729.0,309.875 704.75,325.125 686.375,340.375 673.5,354.875 665.25,368.125 660.75,380.25 659.25,391.5"/>
    <polyline points="659.75,401.75 661.625,411.5 669.25,437.375 670.875,445.125 671.75,452.125 671.5,458.625 670.375,464.5 668.25,469.625 665.375,474.125 661.75,478.125 657.625,481.5 648.375,486.75 638.625,490.5 629.125,493.25 601.0,499.625"/>
    <polyline points="597.75,500.375 586.375,503.375 579.375,505.75 573.5,508.125 568.625,510.5 563.25,513.625 558.375,517.5 556.125,519.75"/>
    <polyline points="555.625,520.5 553.25,524.25 552.125,528.625 552.25,531.625 552.75,533.875 553.625,536.25 555.375,539.25"/>
    <polyline points="556.0,540.0 557.75,542.375 560.0,544.75 566.875,550.0 573.5,553.25 578.25,555.0 585.75,556.5"/>
    <polyline points="587.75,556.625 592.25,556.875 599.625,556.375 605.125,555.375 611.125,553.75 621.0,549.75 631.75,543.75 643.0,535.25 650.375,528.25 657.375,520.25 660.5,516.0 666.0,507.125"/>
    <polyline points="668.125,502.5 669.875,498.0 671.0,493.625 671.625,489.375 671.625,485.375 671.125,481.625 670.0,478.375 668.25,475.5 666.0,473.0 663.125,471.0 659.875,469.375 652.375,467.625 648.125,467.375 643.75,467.5 634.625,468.625 630.0,469.5 620.75,471.875 607.75,476.25 595.875,480.75"/>
    <polyline points="592.125,482.25 554.875,498.5 539.0,505.75"/>
    <polyline points="537.875,506.25 528.625,511.0 524.875,513.75 523.875,514.875"/>
    <polyline points="523.625,515.125 522.875,516.375 522.375,518.0 522.375,519.625 523.125,522.0"/>
    <polyline points="523.25,522.375 525.75,526.75 530.5,532.875"/>
    <polyline points="530.875,533.375 536.25,539.5 541.25,544.5 548.5,550.875"/>
    <polyline points="549.625,551.75 554.125,555.125 562.5,560.375 565.75,562.0 573.125,565.0 579.625,566.75 584.5,567.5 589.875,568.0 595.75,567.875"/>
    <polyline points="599.0,567.625 602.375,567.25 609.625,565.75 617.625,563.25 626.375,559.5 636.0,554.25 641.125,551.0 651.625,543.25 662.25,533.5 667.5,527.875 672.625,522.0 677.5,515.625 685.875,502.125 689.125,495.125 691.5,488.25 693.125,481.625 693.75,475.25 693.375,469.375 692.0,464.25"/>
    <polyline points="689.5,459.75 686.125,456.125 682.0,453.375 677.0,451.375 671.625,450.125 665.625,449.75 659.375,449.875 646.5,451.75 633.75,455.0 615.875,461.25 565.5,482.25"/>
    <polyline points="562.625,483.5 547.625,488.625 539.75,490.75 530.125,492.625 524.75,493.125 519.125,493.125"/>
    <polyline points="518.0,493.0 513.125,492.25 507.875,490.5 502.25,487.625 496.625,483.5"/>
    <polyline points="495.75,482.75 489.625,477.375 468.25,456.0"/>
    <polyline points="466.625,454.5 459.375,447.75 445.375,436.25 436.375,429.875 425.5,423.0 412.0,415.875 401.125,411.125 388.375,406.5 373.5,402.375"/>
    <polyline points="365.125,400.625 356.125,399.125 346.375,398.0 336.0,397.5 325.125,397.5 313.75,398.375 302.0,400.25 290.375,403.25 279.125,407.75 268.625,413.625 259.75,421.375 252.75,430.625 248.25,441.625 246.875,453.875 248.625,467.25 253.5,481.0 261.125,494.875 271.125,508.375 282.875,521.0 295.5,532.5 308.5,542.625 321.5,551.5 334.0,559.125 345.875,565.375 357.0,570.5 367.25,574.625"/>
    <polyline points="376.625,577.875 385.25,580.5 400.375,583.75 407.0,584.75 418.75,585.625 428.75,585.75 441.5,585.0 461.5,582.75 469.75,582.125 474.75,582.0 481.625,582.375"/>
    <polyline points="483.75,582.5 490.0,583.625 497.5,586.0 501.125,587.625 506.25,590.625 511.125,594.25 517.25,600.0 521.75,605.25 526.0,611.125"/>
    <polyline points="527.375,613.25 530.125,617.875 534.0,625.5 538.625,637.375 540.5,644.125 542.125,651.5 543.125,659.75 543.375,664.25 543.0,674.125 542.375,679.5 539.75,691.5 534.625,705.625 530.625,713.625 525.625,722.25"/>
    <polyline points="519.125,731.875 511.0,742.375 500.75,753.875 487.875,766.5 472.0,780.25 452.5,794.75 428.875,809.75 401.0,824.5 368.875,837.625 333.5,847.375 296.5,851.0 261.0,846.25 230.5,830.875 208.5,804.625 196.75,769.375 195.125,728.25 201.375,685.5 212.75,644.375 226.25,607.375 239.875,575.5 252.125,548.875 284.875,481.125"/>
    <polyline points="287.25,476.875 289.0,474.5 290.625,474.0 292.125,474.875 303.0,487.75 307.25,492.25 312.25,497.0 317.75,501.625 323.75,506.25 336.625,514.75 350.25,521.75 357.125,524.75 370.375,529.5 383.0,532.75 394.625,534.875 410.375,536.125"/>
    <polyline points="415.125,536.125 428.125,535.625 439.375,534.25 446.0,533.125 467.0,528.25 482.875,523.625"/>
    <polyline points="484.25,523.125 497.625,519.125 504.75,517.375"/>
    <polyline points="505.25,517.25 507.625,516.875 511.125,516.875 512.625,517.25"/>
    <polyline points="512.875,517.375 515.5,518.625 517.875,520.75"/>
    <line x1="518.125" x2="525.125" y1="520.875" y2="528.5"/>
    <polyline points="525.5,528.875 533.0,537.125 539.0,543.125"/>
    <polyline points="539.75,543.875 547.875,551.125 556.125,557.125 562.0,560.625 570.625,564.625"/>
    <polyline points="572.625,565.25 579.0,567.125 583.875,568.0 589.25,568.5 595.125,568.5 601.625,567.875 609.0,566.375 612.875,565.375 621.25,562.375 630.5,558.0 635.375,555.25 645.75,548.375 651.125,544.25 656.5,539.625 667.375,529.0"/>
    <polyline points="672.625,523.0 682.125,509.875 686.25,502.875 689.625,495.75 692.25,488.75 694.0,482.0 694.75,475.5 694.5,469.5 693.125,464.125 690.875,459.5 687.5,455.75 683.375,452.75 678.375,450.75 672.875,449.375 666.875,448.875 660.625,449.0 647.5,450.875 634.625,454.125 622.25,458.25 605.625,464.875"/>
    <polyline points="600.625,467.0 572.0,479.25 557.125,485.0 545.5,488.75 539.625,490.25 531.375,491.875"/>
    <polyline points="529.875,492.0 524.5,492.5 520.875,492.5 515.625,492.0 509.0,490.25 503.875,487.875"/>
    <polyline points="503.125,487.375 497.25,483.375 492.0,479.0 479.625,467.0"/>
    <polyline points="478.5,465.75 463.625,451.25 457.75,446.0 448.5,438.375 443.125,434.25 433.625,427.625 422.0,420.75"/>
    <polyline points="417.5,418.25 402.0,411.125 395.875,408.75 382.25,404.25 374.5,402.25 357.125,398.875 347.5,397.75 337.125,397.125 326.25,397.0 314.875,397.75 303.125,399.5 291.25,402.375 279.875,406.625 269.25,412.5 259.875,420.0 252.625,429.25 247.875,440.125 246.0,452.375 247.375,465.75 252.0,479.625 259.5,493.625 269.375,507.25"/>
    <polyline points="281.0,520.125 293.75,531.875 306.875,542.25 320.0,551.25 332.625,559.0 344.625,565.5 355.875,570.75 366.25,575.0 375.75,578.375 384.5,581.0 392.5,583.0 399.75,584.375 406.375,585.375 418.125,586.375 428.25,586.5 441.0,585.75 461.0,583.5"/>
    <polyline points="463.875,583.25 471.75,582.75 481.125,583.0 487.5,583.875 493.375,585.375 500.625,588.375 505.75,591.375 509.0,593.75 513.625,597.875"/>
    <polyline points="515.125,599.375 519.625,604.25 522.5,608.0 526.625,614.25 530.5,621.375 534.125,629.5 537.25,638.75 539.625,649.5 540.75,661.875 540.375,671.5"/>
    <polyline points="539.75,676.75 537.125,688.5 535.0,695.0 532.125,702.125 528.375,709.875 523.625,718.25 517.5,727.375 509.75,737.375 500.125,748.375 488.125,760.375 473.375,773.25 455.25,787.0 433.625,801.25 408.0,815.25 378.375,828.125 345.5,838.0 310.75,843.0 276.75,840.75 246.25,829.25 222.75,807.75 208.375,777.125 203.375,740.0 206.625,699.875 215.625,660.125 227.875,623.375"/>
    <polyline points="240.875,590.875 253.375,563.25 273.625,522.0 294.125,482.5 296.625,478.75 298.5,476.75 300.25,476.125 302.125,476.75 306.375,480.75 312.5,487.25 320.625,494.875 325.5,498.75 336.125,506.25 341.875,509.75 353.75,515.875 365.75,520.625"/>
    <polyline points="371.625,522.625 383.0,525.625 393.75,527.625 403.75,528.625 412.875,529.0 425.125,528.5 435.75,527.25 450.5,524.25 457.75,522.25 464.0,520.125"/>
    <polyline points="465.875,519.5 473.875,516.375 481.125,512.875 484.75,510.75 486.875,509.125 489.125,507.25 490.375,505.75"/>
    <polyline points="490.75,505.25 492.125,502.875 492.75,500.375 492.75,498.375 492.25,495.625 490.875,492.125"/>
    <polyline points="490.5,491.5 488.25,487.25 483.125,479.75 474.5,469.125"/>
    <polyline points="473.375,467.875 461.25,455.125 447.375,443.0 433.5,432.875 418.875,424.25"/>
    <polyline points="414.5,422.0 399.375,415.375 393.5,413.25 380.5,409.25 365.375,406.0 357.0,404.75 348.125,403.875 338.625,403.5 328.75,403.75 318.625,404.625 308.25,406.375 297.875,409.25 288.0,413.25 278.875,418.5 270.875,425.25 264.625,433.25 260.5,442.75 258.75,453.25 259.625,464.75 263.125,476.75 269.0,488.875 277.125,500.875"/>
    <polyline points="286.75,512.25 297.625,522.75 309.0,532.25 320.625,540.625 332.25,547.875 343.375,554.125 353.875,559.25 363.875,563.5 373.25,566.875 389.875,571.625 397.25,573.125 410.5,575.0 421.875,575.625 431.75,575.5 444.625,574.625 461.875,572.75"/>
    <polyline points="464.875,572.5 475.75,571.625 483.0,571.625 489.625,572.0 493.75,572.625 503.375,575.125 512.125,579.125 517.125,582.125"/>
    <polyline points="518.875,583.25 525.5,588.375 530.5,592.75 539.125,601.125 559.25,621.875 566.75,628.75"/>
    <polyline points="569.5,631.0 575.5,635.5 582.375,639.875 590.375,643.75 599.75,646.75 605.25,647.75 611.375,648.375 618.125,648.375 625.875,647.625 634.625,646.0 644.5,643.25 656.0,638.875 669.0,632.75 684.125,624.125 701.375,612.625 721.125,597.5 743.0,578.0 767.0,553.625 792.0,523.875 816.375,489.125 837.625,450.625 852.5,411.0"/>
    <polyline points="858.0,373.875 852.5,343.25 836.25,322.0 812.125,311.25 783.5,309.75 754.5,315.375 727.5,325.375 704.25,337.5 685.375,350.125 670.625,362.5 659.75,374.125 652.125,384.75 647.25,394.375 644.25,403.125 642.875,411.25 642.5,418.75 642.75,425.625 644.25,443.75 644.25,449.0 643.875,454.0 642.875,458.5 641.5,462.5 639.5,466.25 637.125,469.625"/>
    <polyline points="634.25,472.625 631.125,475.375 624.125,479.875 616.625,483.5 612.75,485.0 597.75,489.875 570.25,497.25 557.125,501.375"/>
    <polyline points="555.25,502.0 545.875,505.375 539.0,508.375 534.0,511.0 530.0,513.75"/>
    <polyline points="529.625,514.125 527.625,516.25 526.875,517.375 526.125,519.375 526.0,521.25 526.375,523.125"/>
    <polyline points="526.375,523.5 529.125,529.125 534.0,535.625"/>
    <polyline points="534.5,536.25 540.0,542.375 544.75,547.0 549.625,551.125 555.375,555.375"/>
    <polyline points="556.625,556.25 563.75,560.5 568.875,562.875 576.75,565.5 586.25,567.25 594.75,567.5 601.125,566.875 608.125,565.5 616.0,563.25"/>
    <polyline points="620.125,561.625 629.125,557.5 638.875,551.875 649.125,544.5 659.625,535.25 664.875,530.0 670.0,524.25 674.875,518.125 679.375,511.75 683.375,505.0 686.875,498.25 689.625,491.375 691.625,484.75 692.625,478.375 692.625,472.5 691.625,467.125 689.75,462.375 686.75,458.5 683.0,455.25 678.5,453.0 673.375,451.5 667.625,450.625"/>
    <polyline points="661.625,450.5 649.125,451.875 642.75,453.25 636.375,454.875 624.25,458.75 607.625,465.0 570.375,480.875 551.25,488.0"/>
    <polyline points="549.0,488.75 539.125,491.5 534.125,492.625 528.375,493.5 520.0,493.875 514.125,493.25"/>
    <polyline points="513.25,493.0 507.375,491.125 503.5,489.125 498.875,486.0 493.25,481.25"/>
    <polyline points="492.375,480.5 468.875,457.0 462.125,450.625"/>
    <polyline points="460.25,449.0 449.25,439.625 441.125,433.5 434.75,429.125 427.5,424.5 419.25,419.875 404.25,412.75 392.125,408.125 385.25,405.875 377.875,403.875 361.25,400.25 352.0,399.0 342.125,398.125"/>
    <polyline points="331.625,397.75 320.5,398.25 309.0,399.5 297.375,401.75 286.0,405.375 275.125,410.5 265.25,417.125 257.125,425.375 251.25,435.375 248.125,446.75 248.0,459.5 251.0,472.875 257.125,486.75 265.75,500.375 276.375,513.375 288.375,525.5 301.125,536.375 314.125,546.0 326.875,554.25 339.125,561.125 350.625,567.0 361.375,571.625 371.25,575.375 380.25,578.375 388.625,580.625 396.25,582.25"/>
    <polyline points="403.125,583.5 409.625,584.375 426.0,585.125 439.25,584.5 459.875,582.25 471.0,581.375 480.5,581.5 489.0,582.625"/>
    <polyline points="491.0,583.125 496.75,584.875 503.875,588.125 508.875,591.375 512.125,593.875 516.75,598.125 522.75,604.875 527.125,610.875 531.375,617.5"/>
    <polyline points="532.625,620.0 535.375,625.125 539.125,633.75 541.375,640.125 543.375,647.125 544.125,650.875 545.5,659.0 546.125,668.125 546.0,673.125 545.0,684.0 543.75,690.125 542.0,696.625 539.5,703.75 536.25,711.5 531.875,720.0 526.125,729.25 518.875,739.5 509.625,750.875"/>
    <polyline points="497.875,763.25 483.25,777.0 465.125,791.75 442.75,807.375 415.875,823.25 384.25,838.375 348.25,850.875 309.375,858.375 270.375,858.0 235.125,846.875 207.625,823.75 190.75,789.5 185.375,747.5 189.625,702.125 200.375,657.625 214.375,616.875 228.75,581.625 241.875,552.25 261.75,510.0 277.875,473.875 279.375,471.875 280.625,471.75"/>
    <polyline points="282.125,473.25 289.875,484.625 299.125,495.375 305.0,501.0 311.5,506.5 318.5,511.875 325.875,516.875 333.5,521.5 341.25,525.75 356.625,532.625 364.0,535.25 371.25,537.5 384.875,540.875 397.25,542.875 408.5,543.75 418.625,543.875 427.875,543.5"/>
    <polyline points="432.0,543.125 453.5,540.0 476.375,535.125 493.375,532.125"/>
    <polyline points="494.75,532.0 500.875,531.5 506.125,531.625 510.875,532.25 513.375,532.875 519.0,535.0"/>
    <polyline points="519.75,535.375 523.625,537.5 529.125,541.25 540.75,550.5"/>
    <polyline points="541.875,551.25 551.25,558.375 555.5,561.125 563.5,565.625 573.5,569.625 583.25,571.875"/>
    <polyline points="586.0,572.125 592.0,572.5 598.625,572.25 610.0,570.25 618.625,567.625 628.375,563.625 639.0,557.75 644.625,554.25 656.375,545.375 662.5,540.0 674.5,527.75 680.375,520.75 685.75,513.375 690.75,505.625 695.125,497.625 698.625,489.5 701.125,481.625"/>
    <polyline points="702.5,474.0 702.625,467.0 701.625,460.625 699.375,455.125 695.875,450.625 691.375,447.0 686.0,444.5 679.875,443.0 673.125,442.375 666.125,442.625 658.875,443.375 651.625,444.75 644.375,446.625 630.5,451.0 624.0,453.375 606.125,460.75 574.625,474.625"/>
    <polyline points="571.0,476.0 553.125,482.625 539.75,486.125 532.375,487.25 527.625,487.625 523.25,487.625 519.25,487.25"/>
    <polyline points="518.0,487.125 513.125,486.125 507.625,484.25 504.5,482.75 497.25,478.25 490.875,473.25"/>
    <polyline points="489.75,472.25 482.625,465.875 466.125,450.125 455.875,441.125 448.375,435.125"/>
    <polyline points="445.625,433.0 432.625,423.875 420.25,416.625 410.25,411.625 398.625,406.625 384.875,401.75 377.125,399.5 368.625,397.5 349.5,394.25 338.75,393.375 327.375,393.0 315.375,393.375 302.75,394.875 290.125,397.5 277.625,401.625 265.75,407.375 255.25,415.0"/>
    <polyline points="246.75,424.5 240.875,435.875 238.375,449.0 239.375,463.375 244.125,478.375 252.0,493.625 262.625,508.5 275.125,522.5 288.875,535.125 303.0,546.375 317.0,556.125 330.5,564.375 343.125,571.25 354.875,576.875 365.5,581.25 375.25,584.875 384.125,587.5 392.125,589.625 399.375,591.125 406.0,592.125 417.5,593.125 427.375,593.125 435.75,592.625"/>
    <polyline points="439.625,592.375 461.625,589.75 466.75,589.375 471.5,589.25 478.125,589.625 484.25,590.625 488.125,591.625 493.5,593.75 498.5,596.625"/>
    <polyline points="500.0,597.625 504.625,601.375 510.125,607.625 515.0,615.25 518.25,622.125 520.0,627.25 522.125,635.875 523.125,646.0 523.125,649.75 522.5,657.875"/>
    <polyline points="521.75,662.375 520.75,667.0 519.25,672.0 517.5,677.375 515.125,683.125 512.125,689.125 508.375,695.625 503.875,702.625 498.375,710.125 491.75,718.125 483.75,726.625 474.25,735.5 463.0,744.875 449.75,754.625 434.5,764.25 417.125,773.625 397.75,782.125 376.5,789.0 354.125,793.375 331.5,794.25 309.875,790.75 290.75,782.0 275.375,768.0 264.75,748.875 259.25,726.0 258.625,700.625"/>
    <polyline points="262.125,674.25 268.625,648.25 277.0,623.875 286.25,601.625 295.75,581.875 304.875,564.75 313.375,550.0 327.875,527.125 334.0,518.5 343.875,505.5 351.5,497.0 357.5,491.625 360.125,489.875 364.625,487.5 366.75,486.75 370.625,486.0 377.875,486.0"/>
    <polyline points="379.625,486.25 393.25,487.625 398.0,487.625 402.375,487.25 408.625,485.75 411.625,484.375 414.125,482.75"/>
    <polyline points="414.75,482.125 416.875,479.375 417.625,477.125 417.75,474.625 417.25,472.125 416.0,469.375 413.25,465.625 411.375,463.75 407.875,461.0"/>
    <polyline points="406.5,460.125 400.375,456.625 394.875,454.375 386.375,452.0 379.375,451.0 369.75,451.125 365.0,452.0 360.625,453.375 355.0,456.75"/>
    <polyline points="353.5,458.125 351.125,461.5 350.375,463.375 349.875,465.25 349.875,469.5 350.375,471.75 352.125,476.25 353.5,478.5 357.0,483.0 359.125,485.125 364.0,489.125 369.5,492.625 375.375,495.625 384.5,499.0 393.625,501.125"/>
    <polyline points="396.5,501.5 399.375,501.875 410.25,502.125 419.625,501.0 425.625,499.5 430.875,497.5 436.375,494.5 439.625,491.875 442.125,489.125"/>
    <polyline points="442.75,488.125 444.25,485.125 445.0,482.0 445.125,479.75 444.625,476.375 443.5,472.75 442.25,470.25 438.875,465.0 432.5,458.125"/>
    <polyline points="430.875,456.625 425.375,452.125 421.0,449.125 410.5,443.125 397.375,437.5 385.375,433.875 376.375,432.125 366.625,431.0 361.5,430.75 351.0,431.125 340.375,432.875"/>
    <polyline points="335.25,434.375 330.25,436.375 325.75,438.75 321.5,441.75 318.0,445.125 315.0,449.0 312.875,453.375 311.625,458.25 311.25,463.375 311.875,468.75 313.375,474.375 315.875,480.0 319.125,485.625 323.25,491.125 328.0,496.375 333.25,501.375 344.875,510.375 351.125,514.125 357.375,517.625 369.75,523.25 381.875,527.25 393.125,530.0"/>
    <polyline points="398.5,530.875 408.5,532.0 413.25,532.25 426.125,532.125 433.625,531.5 446.875,529.5 455.125,527.75 464.625,525.25 475.625,521.75"/>
    <polyline points="477.25,521.25 491.0,515.875 498.75,511.875"/>
    <polyline points="499.125,511.625 500.75,510.375 502.5,508.25 503.0,505.625"/>
    <polyline points="503.0,505.375 501.875,502.0 499.125,497.25"/>
    <polyline points="498.75,496.875 495.25,491.875 487.0,481.5"/>
    <polyline points="486.25,480.625 483.25,476.875 472.0,464.25 465.0,457.125 456.25,449.0"/>
    <polyline points="454.25,447.125 445.0,439.625 439.5,435.625 429.875,429.125 426.25,427.0 418.125,422.5 408.75,417.875 391.875,411.25 378.25,407.25 362.5,404.0 344.375,402.0 334.5,401.75 324.25,402.125"/>
    <polyline points="313.625,403.375 302.875,405.5 292.25,408.75 282.25,413.375 273.0,419.375 265.375,426.75 259.625,435.75 256.125,446.0 255.375,457.375 257.5,469.5 262.25,482.125 269.375,494.75 278.625,506.875 289.25,518.375 300.875,528.75 312.875,538.125 324.875,546.25 336.5,553.25 347.75,559.125 358.25,563.875 368.125,567.75 385.625,573.375 393.375,575.125 407.25,577.5"/>
    <polyline points="413.375,578.0 419.0,578.375 429.25,578.5 446.25,577.375 471.375,574.75 479.0,574.5 488.0,575.0 494.25,576.125"/>
    <polyline points="496.125,576.5 501.875,578.25 505.375,579.75 512.375,583.5 517.375,586.875 522.25,590.75 527.125,595.25 535.5,604.0 538.875,608.0"/>
    <polyline points="540.625,610.0 564.375,640.0 574.625,651.625 580.625,657.625 591.25,666.25 595.375,668.875 605.0,673.5 610.75,675.25"/>
    <polyline points="617.125,676.625 624.375,677.25 632.875,677.125 642.625,675.75 654.125,672.875 667.75,667.875 683.875,660.25 703.25,649.125 726.125,633.25 753.125,611.5 784.375,582.375 818.875,544.5 854.5,497.375 887.0,442.625 910.125,384.375 917.375,330.125 905.5,287.875 876.375,263.25 836.625,256.25 794.5,262.875 756.25,277.75 725.25,296.25 702.5,315.25 687.5,333.375 679.375,350.125 676.625,365.5"/>
    <polyline points="677.875,379.875 681.875,393.25 687.5,406.125 699.0,430.25 703.375,441.375 706.125,451.75 706.875,461.0 705.875,469.125 703.125,476.0 699.0,481.75 693.875,486.375 688.0,490.125 681.875,492.875 675.625,495.0 663.375,497.625 652.125,499.0 622.875,500.75"/>
    <polyline points="619.75,501.0 606.25,503.0 599.625,504.75 594.0,506.625 588.875,508.75 583.25,511.75 578.625,514.75 575.875,517.125"/>
    <polyline points="575.0,517.875 572.25,520.875 570.75,523.125 569.25,526.875 569.0,530.5 569.375,532.625 571.0,536.0"/>
    <polyline points="571.5,536.625 573.75,539.25 576.0,541.0 580.875,543.5 585.75,545.0 591.625,545.75 600.375,545.25"/>
    <polyline points="602.25,544.875 608.5,543.25 615.25,540.5 620.0,538.125 627.25,533.375 634.375,527.375 638.75,522.875 644.5,515.25 648.5,507.25 649.375,504.625 650.25,499.625"/>
    <polyline points="650.125,497.25 649.875,495.125 649.25,493.125 648.25,491.25 647.0,489.625 643.75,487.0 641.75,486.0 637.0,484.75 631.75,484.375 623.0,485.0 610.875,487.75 602.125,490.625 591.375,494.75"/>
    <polyline points="588.875,495.875 575.625,502.125 565.5,507.875 558.125,513.0 554.375,516.125 552.25,518.5"/>
    <polyline points="551.625,519.25 550.5,520.625 548.625,524.25 547.875,527.875 547.875,530.0 548.375,532.875 550.25,537.375"/>
    <polyline points="550.75,538.125 554.875,543.625 561.0,549.125 569.625,554.375 575.875,556.875"/>
    <polyline points="577.75,557.375 583.5,558.625 587.75,559.125 595.125,559.25 600.5,558.625 606.375,557.5 609.625,556.75 616.25,554.375 623.5,551.25 635.25,544.375 643.375,538.25 647.5,534.75 655.5,526.75"/>
    <polyline points="659.25,522.375 666.25,513.0 669.25,508.0 673.875,498.0 675.375,493.0 676.25,488.25 676.5,483.75 676.125,479.625 675.0,475.875 673.25,472.5 670.75,469.75 667.75,467.5 664.25,465.75 660.375,464.5 656.0,463.875 651.5,463.625 646.625,463.75 636.75,465.0 631.75,466.125 621.875,468.75 612.375,471.875"/>
    <polyline points="607.875,473.5 595.375,478.375 559.125,493.875 541.25,501.0"/>
    <line x1="539.875" x2="520.375" y1="501.625" y2="508.625"/>
    <line x1="520.0" x2="514.0" y1="508.75" y2="510.5"/>
  </g>
</svg>
