<?xml version="1.0" encoding="utf-8" ?>
<svg xmlns="http://www.w3.org/2000/svg" xmlns:cc="http://creativecommons.org/ns" xmlns:dc="http://purl.org/dc/elements/1.1/" xmlns:ev="http://www.w3.org/2001/xml-events" xmlns:inkscape="http://www.inkscape.org/namespaces/inkscape" xmlns:rdf="http://www.w3.org/1999/02/22-rdf-syntax-ns" xmlns:sodipodi="http://sodipodi.sourceforge.net/DTD/sodipodi-0.dtd" xmlns:xlink="http://www.w3.org/1999/xlink" baseProfile="tiny" height="27.09333333cm" version="1.2" viewBox="0 0 1024.0 1024.0" width="27.09333333cm">
  <metadata>
    <rdf:RDF>
      <cc:Work>
        <dc:format>image/svg+xml</dc:format>
        <dc:source>vpype read './original_svgs/Strange Attractors #233.svg' linemerge linesimplify write './Strange Attractors #233.svg'
</dc:source>
        <dc:date>2024-08-05T01:35:40.160475</dc:date>
      </cc:Work>
    </rdf:RDF>
  </metadata>
  <defs/>
  <g fill="none" id="layer1" inkscape:groupmode="layer" inkscape:label="1" stroke="black" stroke-width="0.7mm" style="display:inline">
    <polyline points="547.375,445.625 585.0,447.25 595.5,447.375 608.75,446.625 616.625,445.25 627.5,442.25 637.75,437.75 644.5,434.125 651.25,429.875 661.375,422.25"/>
    <polyline points="664.75,419.5 671.5,413.375 681.75,402.875 688.5,395.0 695.125,386.25 698.375,381.625 704.5,371.625 707.5,366.25 712.875,354.875 717.5,342.625 719.25,336.125 720.875,329.375 722.625,315.125 722.625,307.75 722.125,300.25 721.0,292.75 719.0,285.125"/>
    <polyline points="716.125,277.5 712.25,270.125 707.375,263.0 701.5,256.25 694.25,250.125 686.0,244.625 676.375,240.25 665.625,236.875 653.875,234.875 641.125,234.375 627.625,235.375 613.625,238.125 599.375,242.625 585.125,248.875 571.125,256.5 557.75,265.625 545.25,275.875 533.625,287.125 523.25,299.0 514.0,311.25 506.0,323.625 499.25,336.125 493.625,348.25 489.125,360.125 485.75,371.5 483.125,382.375"/>
    <polyline points="481.25,392.75 480.125,402.5 479.625,411.625 479.625,420.25 479.875,428.375 480.625,435.875 482.625,449.625 486.875,467.0 491.75,481.375 494.875,489.625 500.875,503.625 508.5,519.75"/>
    <polyline points="509.5,522.0 515.5,535.25 518.875,543.875 520.875,550.75 521.625,556.375"/>
    <polyline points="521.75,557.25 521.5,561.875 520.375,566.125 518.125,570.625 515.25,574.375"/>
    <polyline points="514.75,575.0 511.75,578.375 507.375,582.5 493.375,594.125"/>
    <line x1="492.125" x2="449.125" y1="595.125" y2="628.375"/>
    <polyline points="446.75,630.125 421.125,651.0 403.625,666.5 388.25,681.5 376.0,695.0"/>
    <polyline points="373.0,698.625 364.5,710.125 359.25,718.375 354.875,727.0 351.375,736.125 349.125,745.5 348.75,755.25 349.25,760.25 350.5,765.25 352.375,770.125 355.125,775.125 358.75,779.875 363.25,784.625 368.875,789.0 375.625,793.125 383.5,796.875 392.75,800.0 403.125,802.625 414.625,804.5"/>
    <polyline points="427.375,805.375 441.25,805.375 455.875,804.375 471.125,802.125 486.875,798.75 502.625,794.25 518.125,788.5 533.125,781.875 547.375,774.375 560.5,766.0 572.375,757.25 582.875,748.125 592.0,738.75 599.625,729.375 605.875,720.25 610.875,711.25 614.75,702.625 617.5,694.375 619.375,686.5 620.5,679.0 621.0,672.0 621.0,665.375 620.5,659.25 619.75,653.375 617.375,642.75"/>
    <polyline points="616.0,637.875 613.125,628.875 599.625,595.25 597.0,587.5 594.125,576.375 593.5,572.25 593.125,566.625"/>
    <polyline points="593.125,564.75 593.5,559.5 594.125,556.125 594.875,552.875 597.125,546.625 599.375,542.0 603.25,535.875 609.25,528.125 612.125,524.875"/>
    <polyline points="613.625,523.25 623.875,512.875 632.0,505.375 673.0,469.25"/>
    <polyline points="676.5,466.25 687.25,456.625 702.875,441.875 720.0,424.75 733.625,409.75 747.875,392.625 757.375,379.625 766.875,365.125 776.0,348.875 780.25,340.125 784.25,330.75"/>
    <polyline points="788.0,320.75 791.125,310.25 793.75,299.0 795.75,287.125 796.75,274.625 796.5,261.375 795.0,247.625 791.875,233.25 786.625,218.625 779.0,203.75 768.625,189.25 755.125,175.5 738.25,163.125 717.625,152.875 693.5,145.625 666.0,142.125 635.75,143.25 603.75,149.5 571.0,160.875 538.75,177.25 508.375,197.75 480.875,221.5 456.75,247.125 436.5,273.5 419.875,299.625 406.875,324.75"/>
    <polyline points="397.125,348.25 389.875,370.0 385.0,389.75 381.75,407.5 380.0,423.25 379.25,437.375 379.25,450.0 379.875,461.25 380.875,471.25 382.125,480.25 383.625,488.375 393.625,533.625 394.75,541.875 395.125,549.5 395.125,553.125 394.5,560.25"/>
    <polyline points="394.0,563.625 391.25,573.625 388.625,580.125 383.375,589.625 376.75,599.125 368.625,608.625 355.625,621.375 339.875,634.625 326.25,644.875"/>
    <polyline points="321.375,648.375 305.5,659.0 293.875,666.375 268.125,681.375 238.5,696.875 221.875,704.625 213.125,708.375 184.75,719.5 174.5,723.0 163.75,726.25 152.625,729.25 141.0,731.875 128.75,734.125 116.0,735.875"/>
    <polyline points="102.625,737.0 88.625,737.125 74.0,736.25 58.875,734.0 43.125,730.0 27.0,723.875 10.875,715.0 0.0,706.4554"/>
    <polyline points="0.0,494.3031 17.875,467.625 65.875,417.375 126.625,370.375 195.75,329.875 267.75,298.0 337.0,275.25 399.5,260.25 453.0,251.375 496.875,246.625 531.75,244.5 558.5,243.875 578.5,243.875"/>
    <polyline points="592.75,244.25 607.75,245.5 610.0,246.5 609.625,247.75 607.125,249.625 597.25,255.25 583.25,264.0 575.5,269.75 567.5,276.25 559.625,283.625 552.0,291.625 544.625,300.125 538.0,309.0 531.875,318.25 526.375,327.625 521.625,337.125 517.625,346.5 514.25,355.75 511.625,364.75 509.5,373.5 508.0,382.0 507.0,390.0 506.5,397.75"/>
    <polyline points="506.375,405.125 507.125,418.625 509.0,430.75 511.625,441.5 516.375,455.375 519.875,463.375 523.5,470.25 529.125,479.25 532.75,484.375 538.25,490.875 545.375,497.625"/>
    <polyline points="547.0,499.0 552.125,502.625 555.5,504.5 560.5,506.625 567.0,508.375 572.0,508.875 578.75,508.625 583.875,507.875 589.375,506.375"/>
    <polyline points="591.125,505.875 602.875,501.125 611.375,496.75 620.625,491.375 638.75,479.25 650.5,470.5"/>
    <polyline points="653.5,468.125 660.0,463.125 677.25,448.5 692.375,434.5 708.625,417.875 721.25,403.25 734.25,386.5 742.75,373.75 750.875,359.75"/>
    <polyline points="754.875,352.125 761.875,335.75 765.0,326.875 767.625,317.5 769.75,307.625 771.25,297.25 772.0,286.5 771.75,275.125 770.5,263.5 767.75,251.5 763.5,239.375 757.5,227.125 749.375,215.25 739.0,204.0 726.0,193.625 710.5,184.875 692.375,178.125 671.75,173.875 648.875,172.875 624.375,175.25 598.875,181.5 573.0,191.375 547.75,204.75 523.875,221.25 501.875,239.875"/>
    <polyline points="482.5,260.125 465.625,281.25 451.625,302.375 440.25,323.125 431.25,343.0 424.5,361.75 419.5,379.125 416.125,395.125 414.0,409.75 412.875,423.125 412.5,435.25 412.75,446.25 413.375,456.375 414.375,465.5 417.0,481.5 425.875,521.875 428.125,534.875"/>
    <polyline points="428.625,538.875 429.125,550.0 428.375,560.25 426.375,569.875 423.125,579.125 417.0,591.125 413.125,597.0 408.875,603.0 401.375,612.0 395.875,618.0"/>
    <polyline points="393.0,621.125 376.375,637.125 360.875,650.75 302.5,699.375 291.125,709.125 279.625,719.5"/>
    <polyline points="273.75,725.0 261.875,736.625 250.25,749.125 239.125,762.75 233.875,770.0 229.0,777.75 224.5,785.75 220.625,794.25 217.5,803.25 215.375,812.625 214.5,822.625 215.125,833.125 217.75,844.125 222.875,855.5 231.0,867.25 242.75,879.25 259.0,891.0 280.625,902.0 308.25,911.75 342.625,919.125 383.75,923.125 431.125,922.375 483.375,916.0"/>
    <polyline points="538.25,903.375 592.5,884.5 643.125,860.25 687.25,832.5 723.25,803.25 750.625,774.375 769.875,747.375 782.25,723.375 789.25,702.75 792.0,685.5 791.875,671.375 789.625,660.25 786.0,651.375 781.625,644.5 776.625,639.375 771.25,635.375 765.625,632.5 760.0,630.375 748.625,627.5 716.125,622.625"/>
    <polyline points="711.25,621.625 701.875,619.25 693.375,616.25 689.5,614.5 682.25,610.75 679.0,608.625 670.5,602.0 663.875,594.625 659.0,587.0 656.625,581.875 654.875,576.625 653.75,571.375 653.125,566.25"/>
    <polyline points="653.0,563.625 653.25,558.5 654.0,553.375 656.0,545.625 659.0,538.0 663.0,530.25 666.25,525.0 672.0,517.0 681.125,506.0 689.25,497.25"/>
    <polyline points="692.125,494.25 716.0,471.5 761.5,430.25 777.875,414.625 795.5,396.75 807.875,383.125"/>
    <polyline points="814.125,375.75 827.0,359.625 839.875,341.25 846.125,331.0 852.25,320.0 858.125,308.0 863.625,295.0 868.5,280.875 872.625,265.5 875.75,248.75 877.375,230.5 877.0,210.625 874.125,189.125 867.875,166.125 857.5,142.0 841.625,117.375 819.375,93.25 789.375,71.375 751.0,53.875 704.125,43.375 649.875,42.75 590.75,53.75 530.25,77.125 472.375,111.5"/>
    <polyline points="420.75,154.0 377.375,200.625 343.125,247.75 317.375,292.375 299.125,332.75 286.625,368.0 278.75,397.75 274.125,422.625 271.875,442.875 271.5,459.375 272.25,472.5 274.0,483.0 276.375,491.125 279.25,497.625 282.5,502.5 286.125,506.375 289.875,509.25 293.875,511.5 298.0,513.25 302.25,514.625 310.875,516.625 327.625,519.75"/>
    <polyline points="331.625,520.625 342.625,523.875 349.125,526.625 352.0,528.25 359.5,533.5 363.375,537.5 365.0,539.75 366.375,541.875 368.625,546.5 370.0,551.375 370.375,554.0 370.375,561.75 369.375,567.0 367.75,572.5"/>
    <polyline points="366.625,575.25 362.25,583.5 354.0,594.875 346.0,603.375 336.375,612.125 325.25,620.75 312.375,629.5 297.875,638.125 281.5,646.5"/>
    <polyline points="275.625,649.25 256.625,657.0 235.5,663.75 220.125,667.375 212.0,668.875 203.75,670.0 195.25,670.75 186.375,671.125 177.375,671.0 168.25,670.25 159.0,668.75 149.625,666.5 140.25,663.25 131.125,658.875 122.375,653.125 114.125,646.0 106.75,637.125 100.625,626.5 96.125,613.875 93.875,599.0 94.5,582.125"/>
    <polyline points="98.5,563.125 106.625,542.5 119.25,520.375 136.625,497.75 158.5,475.125 184.625,453.5 214.125,433.5 245.75,416.0 278.375,401.25 310.75,389.375 342.0,380.5 371.125,374.375 397.75,370.5 421.75,368.5 442.875,368.0 461.375,368.75 477.5,370.25 491.375,372.5 503.375,375.0 513.625,377.875 522.5,380.875 530.25,384.0 542.875,390.0 552.75,395.75"/>
    <polyline points="556.875,398.5 578.625,413.5 586.125,417.75 593.25,420.625 600.5,422.25 607.75,422.625 612.625,422.25 622.625,419.875"/>
    <polyline points="625.25,418.875 633.0,415.375 638.25,412.375 646.25,406.875 654.25,400.125 662.125,392.125 669.75,382.75 676.75,372.125 680.875,364.375 684.5,356.0 686.125,351.5"/>
    <polyline points="687.375,347.0 689.375,337.625 690.125,327.875 690.0,322.875 689.375,317.875 688.375,312.875 687.0,308.0 685.0,303.25 682.5,298.5 679.375,294.125 675.75,290.0 671.5,286.125 666.625,282.75 661.125,279.875 655.0,277.625 648.5,276.0 641.375,275.125 633.75,275.0 625.875,275.75 617.75,277.25 609.375,279.625 601.0,283.0 592.75,287.0 584.75,291.875"/>
    <polyline points="576.875,297.5 569.5,303.625 562.625,310.25 556.25,317.375 550.375,324.75 545.125,332.375 540.625,340.125 536.625,347.875 533.25,355.625 530.5,363.125 528.375,370.625 526.625,377.875 524.625,391.625 524.25,398.0 524.5,410.0 525.875,420.875 528.125,430.625 530.875,439.25 535.875,450.375"/>
    <polyline points="537.625,453.625 543.375,462.125 549.375,469.0 555.5,474.5 563.75,479.875 568.0,481.75 574.375,483.75 583.0,485.0 589.625,484.875"/>
    <polyline points="591.875,484.625 598.75,483.375 606.0,481.375 610.875,479.625 618.625,476.25 624.0,473.5 635.25,467.125 644.25,461.25 660.375,449.25"/>
    <polyline points="663.75,446.625 670.75,440.75 681.625,430.875 696.875,415.375 708.75,401.875 716.625,391.75 724.5,380.5 732.125,368.25 735.75,361.625 742.375,347.375 745.375,339.75 748.125,331.625 750.375,323.25 752.25,314.5"/>
    <polyline points="753.5,305.25 754.125,295.75 754.0,285.875 752.75,275.75 750.625,265.375 747.125,255.0 742.125,244.5 735.625,234.375 727.25,224.75 717.0,215.875 704.75,208.0 690.375,201.75 674.125,197.375 656.125,195.25 636.5,195.625 615.875,198.875 594.625,205.125 573.375,214.125 552.75,225.75 533.125,239.625 515.125,255.25 499.0,272.125 484.875,289.625 472.875,307.5 463.0,325.0 455.0,342.125"/>
    <polyline points="448.75,358.375 444.125,373.75 440.75,388.125 438.625,401.5 437.25,413.875 436.75,425.25 436.75,435.75 437.25,445.375 438.125,454.125 440.5,469.875 443.25,483.375 452.25,519.0 454.75,530.75 456.125,541.25"/>
    <polyline points="456.375,544.5 456.625,547.625 456.5,553.625 455.625,562.125 454.5,567.625 453.0,572.875 451.125,578.0 447.5,585.5 443.125,592.875 437.875,600.375 429.625,610.375"/>
    <polyline points="427.375,612.875 414.625,626.125 405.875,634.5 363.25,673.25 351.0,684.75 342.625,693.125"/>
    <polyline points="338.375,697.375 325.5,711.125 313.25,726.375 309.25,731.75 305.625,737.375 298.875,749.25 293.625,762.0 291.75,768.75 290.5,775.625 290.0,782.75 290.5,790.125 292.0,797.75 294.875,805.375 299.25,813.125 305.375,820.875 313.5,828.375 323.875,835.625 336.875,842.25 352.625,848.125 371.25,852.875"/>
    <polyline points="392.875,856.0 417.25,857.375 444.125,856.375 472.875,852.75 502.75,846.5 532.75,837.375 561.875,825.875 589.25,812.125 613.75,796.75 635.0,780.5 652.75,763.875 667.0,747.375 677.75,731.625 685.625,716.75 690.875,703.125 694.125,690.625 695.625,679.375 695.75,669.25 695.0,660.125 693.5,652.0 691.625,644.75 689.25,638.125 686.875,632.25 679.25,617.125"/>
    <polyline points="676.75,612.75 668.25,597.75 665.0,591.125 661.25,581.875 659.0,573.25 658.125,567.625 658.0,559.5 658.25,556.75 659.75,548.875 663.375,538.375"/>
    <polyline points="664.625,535.75 667.375,530.5 672.5,522.5 678.5,514.375 685.625,506.0 693.75,497.125 706.375,484.75 721.0,471.125 733.5,460.125"/>
    <polyline points="737.875,456.125 757.0,439.25 778.375,419.625 802.25,396.25 808.5,389.75 821.375,375.375 828.0,367.625 841.375,350.5 854.625,330.625 861.125,319.625 867.375,307.625 873.25,294.5 878.5,280.25 883.125,264.75"/>
    <polyline points="886.75,247.625 888.875,229.0 889.0,208.5 886.75,186.375 881.0,162.375 870.875,137.0 855.125,110.75 832.5,84.75 801.5,60.875 761.25,41.375 711.625,29.375 653.625,28.0 590.0,39.625 524.75,64.875 462.625,102.375 407.5,148.5 361.875,199.0 326.25,249.375 300.125,296.5 281.75,338.625 269.625,374.75 262.0,404.875 257.875,429.5 256.0,449.25 256.0,464.875 257.25,477.125"/>
    <polyline points="259.375,486.375 262.375,493.375 265.875,498.625 269.875,502.25 274.25,504.875 279.0,506.625 284.0,507.625 289.25,508.25 328.0,509.125 343.375,511.0 352.625,513.25 360.875,516.125 368.0,519.625 374.125,523.75"/>
    <polyline points="376.75,526.0 379.25,528.25 383.25,533.125 385.0,535.75 387.625,541.125 389.375,546.625 389.875,549.375 390.25,552.25 390.375,558.0 389.625,563.875 388.25,569.75 384.875,578.625 380.0,587.625 375.875,593.75 373.5,596.75"/>
    <polyline points="371.125,599.875 362.75,609.125 352.875,618.625 341.625,628.25 324.0,641.5 303.375,655.125 285.75,665.625 266.0,676.375 251.625,683.5"/>
    <polyline points="244.125,687.0 228.0,694.0 219.5,697.375 201.5,703.875 191.875,707.0 182.0,709.75 171.625,712.375 160.875,714.625 149.625,716.5 137.875,717.875 125.625,718.625 113.0,718.625 99.875,717.625 86.25,715.5 72.25,711.875 58.125,706.375 44.0,698.625 30.375,688.25 17.75,674.5 7.125,656.875 0.0,636.6492"/>
    <line x1="0.0" x2="11.625" y1="575.4842" y2="539.875"/>
    <polyline points="33.625,500.0 66.75,458.5 110.5,417.625 163.125,380.25 221.125,348.25 280.375,323.0 337.5,304.625 389.5,292.125 434.875,284.625 473.25,280.625 504.875,279.0 530.125,279.0 550.125,279.75 565.5,281.0 577.0,282.5 585.375,284.125 591.25,285.75 594.875,287.5 596.75,289.5 597.25,291.625 596.625,293.875 595.125,296.5 592.875,299.375 583.625,309.875"/>
    <polyline points="580.125,314.0 573.125,323.125 569.75,328.0 563.625,338.375 561.0,343.625 556.5,354.5 554.75,359.75 552.0,370.375 551.125,375.5 550.25,385.375 550.125,390.0 550.75,398.875 552.125,407.0 554.125,414.25 556.75,420.75 559.875,426.625"/>
    <polyline points="561.5,429.25 567.125,436.0 573.125,441.25 575.25,442.75 579.625,445.125 582.0,446.25 586.625,447.75 591.375,448.875 596.25,449.375 601.25,449.375 606.375,448.875 611.625,447.875 619.875,445.5"/>
    <polyline points="622.625,444.375 631.25,440.625 643.125,433.75 649.375,429.5 655.625,424.75 665.375,416.5 678.5,403.375 685.0,395.75 691.5,387.375 700.625,373.25"/>
    <polyline points="703.5,368.125 708.875,357.25 711.25,351.5 715.375,339.25 718.125,326.0 718.875,319.125 719.125,312.125 718.875,305.0 717.875,297.625 716.25,290.375 713.875,283.125 710.5,275.875 706.25,269.0 700.875,262.375 694.5,256.25 687.125,250.75 678.5,246.125 668.75,242.5 657.875,240.0 646.25,238.875 633.75,239.125 620.625,241.0 607.125,244.5"/>
    <polyline points="593.625,249.5 580.125,256.0 567.125,264.0 554.75,273.125 543.125,283.375 532.5,294.375 523.0,305.75 514.75,317.625 507.5,329.5 501.5,341.25 496.5,352.875 492.5,364.125 489.5,374.875 487.25,385.25 485.75,395.0 484.875,404.25 484.5,421.125 485.75,436.125 487.875,449.125 489.25,455.125 493.875,470.75"/>
    <polyline points="495.5,475.375 500.375,487.625 506.625,501.0 515.875,518.5 526.0,536.125"/>
    <line x1="526.625" x2="536.375" y1="537.25" y2="554.5"/>
    <polyline points="536.5,554.75 538.375,559.125 538.625,561.375 538.125,562.75 537.125,564.0 534.125,566.5"/>
    <line x1="533.875" x2="526.75" y1="566.625" y2="572.0"/>
    <line x1="526.25" x2="511.875" y1="572.25" y2="582.625"/>
    <line x1="511.125" x2="483.125" y1="583.25" y2="603.5"/>
    <polyline points="481.5,604.625 456.0,623.75 429.625,644.625"/>
    <polyline points="427.0,646.875 410.0,661.375 401.0,669.625 388.75,681.75 379.625,691.75 373.625,698.875 367.875,706.375 360.125,718.5 355.75,727.125"/>
    <polyline points="354.0,731.5 352.375,736.0 350.25,745.375 349.875,755.125 350.5,760.0 351.875,765.0 353.75,769.875 356.5,774.75 360.125,779.5 364.75,784.0 370.375,788.375 377.125,792.5 385.0,796.125 394.0,799.25 404.375,801.75 415.875,803.5 428.5,804.375 442.125,804.375 456.5,803.25 471.625,801.0 487.0,797.625 502.625,793.125 517.875,787.5 532.625,780.875"/>
    <polyline points="546.625,773.5 559.5,765.375 571.25,756.625 581.625,747.625 590.5,738.375 598.125,729.25 604.375,720.125 609.375,711.25 613.125,702.75 615.875,694.5 617.875,686.75 619.0,679.375 619.5,672.375 619.5,665.875 619.0,659.625 617.25,648.375 614.625,638.375 610.25,625.375 604.375,610.875"/>
    <polyline points="603.0,607.625 595.625,588.25 592.625,577.125 591.75,571.25 591.375,565.75 591.875,559.0 592.875,554.125"/>
    <polyline points="593.25,552.625 594.875,548.0 597.0,543.5 601.625,536.125 610.375,525.375 621.875,513.75"/>
    <polyline points="623.875,512.0 632.0,504.375 676.875,465.25 695.375,448.375"/>
    <polyline points="699.375,444.625 707.625,436.625 720.5,423.375 734.25,408.25 743.625,397.0 753.25,384.5 762.75,370.625 772.0,355.125 776.375,346.625 784.5,328.25 788.0,318.125 791.0,307.5 793.5,296.125 795.125,284.125 795.75,271.5 795.25,258.125"/>
    <polyline points="793.375,244.25 789.625,230.0 783.875,215.375 775.625,200.75 764.5,186.375 750.25,173.125 732.5,161.25 711.125,151.75 686.25,145.5 658.25,143.25 627.75,145.625 595.625,153.0 563.25,165.625 531.625,182.875 502.125,204.125 475.625,228.125 452.625,253.875 433.375,280.0 417.75,305.875 405.625,330.375 396.5,353.375 389.875,374.5 385.375,393.75 382.625,410.875 381.0,426.25 380.5,440.0"/>
    <polyline points="380.625,452.25 381.375,463.125 383.75,481.75 388.125,503.5 392.25,520.375 394.25,529.875 396.125,542.5 396.5,550.125 395.75,560.875 394.375,567.625 393.375,570.875 389.625,580.625"/>
    <polyline points="388.0,583.875 382.25,593.375 377.625,599.625 372.375,606.0 363.25,615.625 352.625,625.375 340.625,635.375 327.0,645.625 311.75,656.25 294.75,667.25"/>
    <polyline points="288.625,671.0 269.0,682.5 247.125,694.25 222.875,706.25 205.125,714.125 185.875,721.75 165.125,729.0 142.5,735.25 130.375,738.0 117.625,740.125 104.375,741.75 90.5,742.625 75.875,742.625 60.625,741.25 44.75,738.375 28.25,733.5"/>
    <line x1="11.5" x2="0.0" y1="726.125" y2="718.916"/>
    <polyline points="0.0,477.1011 32.375,437.125 90.75,385.5 160.625,339.375 236.125,301.875 311.0,274.125 379.875,255.5 439.5,244.125 488.875,237.875 528.125,234.75 558.25,233.5 596.25,233.0 612.375,233.5 614.5,234.125 613.625,235.125 610.125,236.75"/>
    <polyline points="604.75,239.25 589.625,247.0 580.625,252.375 571.25,258.875 561.75,266.5 552.25,275.0 543.25,284.25 534.75,294.125 527.0,304.5 520.0,315.25 514.0,326.0 508.75,336.75 504.25,347.5 500.75,357.875 498.0,368.0 495.875,377.625 494.375,387.0 493.5,395.75 493.125,412.125 494.25,426.625 496.375,439.5 497.75,445.375"/>
    <polyline points="499.25,450.875 502.375,460.875 507.5,473.75 514.5,487.75 519.5,496.25 525.75,505.5 534.125,515.875 537.875,519.75"/>
    <polyline points="539.125,520.875 544.75,525.5 551.125,529.125 555.25,530.5 559.25,531.125 565.375,530.875"/>
    <polyline points="566.375,530.75 570.75,529.75 574.125,528.625 580.125,526.125 588.125,522.0 598.875,515.5"/>
    <polyline points="600.625,514.375 624.375,498.0 644.625,482.625 659.5,470.625"/>
    <polyline points="662.75,467.875 672.875,459.375 687.5,446.25 695.25,438.875 707.5,426.75 724.875,407.75 738.25,391.0 747.25,378.375 756.0,364.375 764.375,348.75"/>
    <polyline points="768.25,340.25 775.0,321.875 777.75,311.875 779.875,301.25 781.375,290.125 781.875,278.5 781.375,266.375 779.625,253.75 776.25,240.75 771.125,227.5 763.875,214.375 754.25,201.625 742.0,189.625 726.75,178.875 708.5,170.0 687.25,163.75 663.375,160.75 637.125,161.375 609.375,166.375 580.875,175.5 552.75,188.875 525.75,205.875 500.875,225.75 478.625,247.625 459.5,270.625"/>
    <polyline points="443.5,293.875 430.5,316.625 420.375,338.375 412.625,358.75 407.125,377.625 403.25,394.875 400.875,410.5 399.625,424.75 399.125,437.5 399.375,449.0 400.125,459.5 401.125,468.875 403.75,485.25 411.625,521.125 413.375,530.375 414.5,538.875 415.0,546.625"/>
    <polyline points="415.125,550.375 414.25,561.0 412.875,567.75 409.625,577.5 406.75,583.75 403.375,590.0 397.25,599.375 389.75,608.75 381.0,618.25 367.5,631.25"/>
    <polyline points="363.75,634.625 338.125,655.875 318.0,671.25 249.125,721.625 219.375,744.125"/>
    <polyline points="211.625,750.25 195.75,763.25 179.75,777.375 164.0,792.875 156.375,801.375 149.125,810.25 142.25,819.75 136.0,829.875 130.625,840.75 126.5,852.5 124.0,865.125 123.625,878.75 126.125,893.625 132.625,909.625 144.375,926.625 162.75,944.375 190.0,962.375 228.25,979.25 279.75,993.125 345.75,1001.375 425.875,1000.5 516.75,987.375 611.375,960.5"/>
    <polyline points="700.875,921.125 776.75,873.5 834.25,823.5 873.0,776.625 895.5,736.625 906.125,705.125 908.5,682.0 905.625,666.5 899.25,657.625 890.75,654.125 880.5,654.75 869.0,658.625 856.25,664.75 827.375,680.875 811.375,689.375 794.625,697.625 777.25,705.0 759.75,711.25 742.25,716.25 725.0,719.75 708.375,721.75 692.5,722.375 677.625,721.875 663.875,720.125 651.125,717.625"/>
    <polyline points="639.625,714.375 629.125,710.5 619.625,706.25 611.125,701.75 603.5,697.25 590.5,687.875 580.125,678.875 567.875,666.5 544.5,639.125 535.25,629.5"/>
    <polyline points="533.5,628.0 528.625,624.0 525.5,621.875 520.875,619.375 514.75,617.125 510.25,616.25 504.0,616.0 499.375,616.375 494.5,617.375"/>
    <polyline points="492.875,617.75 489.5,618.75 480.625,622.125 471.25,626.75 458.75,634.125 447.5,641.625 442.75,645.125"/>
    <polyline points="440.375,646.875 432.75,652.625 422.375,661.125 411.5,670.75 403.25,678.75 395.0,687.5 387.125,696.875 379.875,707.125 375.5,714.25"/>
    <polyline points="373.625,718.0 370.25,725.75 368.0,733.75 366.875,742.0 367.5,750.375 368.5,754.5 370.0,758.625 372.25,762.75 375.0,766.75 378.625,770.625 382.875,774.25 388.0,777.75 394.0,780.875 400.875,783.625 408.625,785.875 417.25,787.625 426.625,788.75 436.875,789.25 447.875,789.0 459.375,788.0 471.25,786.125 483.375,783.375"/>
    <polyline points="495.625,779.875 507.625,775.5 519.375,770.375 530.625,764.625 541.125,758.375 550.875,751.5 559.625,744.375 567.5,737.0 574.25,729.625 580.125,722.125 584.875,714.625 588.875,707.375 592.0,700.375 594.25,693.5 595.875,686.875 597.0,680.625 597.625,668.875 597.5,663.5 596.875,658.375 596.125,653.5 594.0,644.5 592.875,640.25 590.125,632.625"/>
    <polyline points="588.75,629.0 584.625,619.25 570.25,589.75 566.875,582.0 565.0,576.875"/>
    <polyline points="564.625,575.625 563.125,570.375 562.375,565.0 562.375,562.5 562.875,558.875 564.25,554.875"/>
    <polyline points="564.625,554.25 566.0,551.625 569.375,547.125 576.25,540.125 579.75,537.125"/>
    <polyline points="580.625,536.25 597.25,522.875 615.875,508.5"/>
    <polyline points="617.875,506.875 633.5,494.75 658.375,474.625 678.375,457.5 689.5,447.375"/>
    <polyline points="693.375,443.625 709.75,427.625 718.375,418.5 727.25,408.5 736.375,397.5 745.5,385.375 754.625,372.0 759.0,364.75 767.625,349.0 771.625,340.375 778.625,321.75 781.5,311.5 783.875,300.875 785.375,289.5 786.125,277.625 785.75,265.125"/>
    <polyline points="784.0,252.125 780.75,238.75 775.625,225.125 768.375,211.625 758.5,198.25 745.875,185.75 730.25,174.5 711.5,165.25 689.5,158.75 664.625,155.5 637.375,156.25 608.375,161.375 578.75,171.125 549.375,185.25 521.5,203.125 495.75,224.0 472.875,246.875 453.375,270.875 437.125,294.875 424.0,318.375 413.875,340.625 406.25,361.5 400.875,380.625 397.125,398.125 394.875,413.875 393.75,428.125"/>
    <polyline points="393.5,440.875 393.75,452.375 394.625,462.75 397.0,480.625 401.25,501.875 407.125,528.25 408.875,541.0 409.25,552.5 408.625,559.625 407.375,566.375 404.375,576.25"/>
    <polyline points="403.0,579.5 398.125,589.0 391.875,598.375 384.375,607.875 375.5,617.5 365.375,627.25 349.625,640.875 336.25,651.5 321.375,662.625"/>
    <polyline points="316.125,666.5 293.125,682.75 267.125,700.25 230.125,724.5 159.25,770.125 139.25,783.25 118.5,797.375"/>
    <polyline points="107.75,804.75 85.875,820.5 63.5,837.75 52.375,847.125 41.5,857.0 30.75,867.5 20.625,878.875 11.125,891.25 2.875,904.875 0.0,911.4543"/>
    <polyline points="0.0,981.8762 10.125,1000.75 31.2021,1024.0"/>
    <polyline points="740.9485,1024.0 841.125,974.875 958.875,884.875 1024.0,808.5022"/>
    <polyline points="1024.0,688.9467 1020.0,692.75 991.375,722.75 956.125,757.625 914.375,793.5 867.125,826.75 816.5,854.5 765.125,874.5 715.75,886.375 670.75,890.625 631.75,888.75 599.125,882.5 573.0,873.5 552.875,863.0 537.875,852.25 527.375,841.5 520.625,831.375 516.875,821.75 515.5,812.75 516.0,804.375 518.0,796.5 521.25,789.0"/>
    <polyline points="525.125,781.625 534.25,767.625 548.5,747.25 556.75,734.125 563.25,721.375 568.125,709.125 569.875,703.25 572.125,692.125 572.875,681.875 572.875,677.0 572.625,672.375 571.5,663.75 569.75,655.875 566.25,645.5"/>
    <polyline points="564.875,642.375 562.25,636.5 559.375,631.25 556.625,626.5 551.125,618.5 547.125,613.5 542.0,608.125 536.0,603.0 532.5,600.875"/>
    <polyline points="531.375,600.25 528.125,598.625 525.875,597.875 519.375,596.75 514.875,596.875 511.5,597.375 509.125,597.875 503.0,599.875"/>
    <polyline points="501.625,600.375 493.5,604.0 484.5,609.0 472.5,616.5 460.75,624.5"/>
    <polyline points="458.625,626.0 440.25,639.625 424.75,652.125 413.5,661.75 404.875,669.625 393.0,681.375"/>
    <polyline points="390.0,684.5 378.375,697.75 373.0,705.0 365.5,716.625 361.375,724.875 359.625,729.125 356.875,737.875 356.0,742.375 355.625,751.625 356.125,756.25 357.25,761.0 359.0,765.625 361.5,770.25 364.75,774.75 368.875,779.125 374.0,783.25 380.0,787.125"/>
    <polyline points="387.125,790.625 395.375,793.625 404.625,796.125 415.0,798.0 426.375,799.125 438.75,799.375 451.875,798.75 465.625,797.0 479.875,794.25 494.25,790.5 508.5,785.75 522.375,780.125 535.75,773.5 548.25,766.25 559.75,758.5 570.125,750.25 579.25,741.75 587.125,733.125 593.75,724.5 599.125,716.0 603.5,707.75 606.75,699.875 609.25,692.125 610.875,684.875 612.25,671.375"/>
    <polyline points="612.125,665.25 610.875,653.875 609.875,648.625 607.5,639.125 604.625,630.625 600.25,619.25 592.375,601.0 587.625,588.875 585.125,580.625"/>
    <polyline points="584.625,578.625 583.75,575.0 582.875,568.375 583.0,561.0 584.75,552.875 586.25,549.0 589.625,542.75"/>
    <polyline points="590.5,541.5 595.125,535.25 599.75,530.0 609.625,520.25 626.25,505.5"/>
    <polyline points="628.5,503.75 659.75,477.375 676.125,463.125 690.75,449.875 706.875,434.375"/>
    <polyline points="711.125,430.125 724.25,416.25 733.375,405.875 747.375,388.25 756.75,375.0 765.875,360.125 774.5,343.625 778.5,334.5 782.125,325.0 785.375,314.875 788.125,304.125 790.125,292.75 791.375,280.75 791.5,268.125 790.5,254.875 787.875,241.25 783.5,227.125 776.875,212.875"/>
    <polyline points="767.875,198.875 756.0,185.375 740.875,173.0 722.5,162.375 700.625,154.25 675.625,149.5 647.75,148.75 617.75,152.5 586.625,161.25 555.625,174.75 525.625,192.625 498.0,213.875 473.125,237.5 451.875,262.5 434.125,287.75 419.875,312.5 408.75,336.0 400.375,358.0 394.375,378.125 390.375,396.5 387.875,413.0 386.5,427.75 386.125,441.0 386.375,452.875 387.125,463.5 388.25,473.0"/>
    <polyline points="389.625,481.625 393.875,503.0 399.875,529.5 401.625,542.125 402.0,549.875 401.25,560.625 399.875,567.375 398.875,570.75 397.875,574.0 395.25,580.5 390.0,590.0"/>
    <polyline points="388.0,593.25 381.0,602.75 372.625,612.25 366.25,618.75 351.625,631.875 334.375,645.625 319.625,656.5 303.125,667.75 285.0,679.5"/>
    <polyline points="278.5,683.5 257.75,696.125 242.625,704.75 218.125,718.125 200.25,727.125 181.0,736.375 160.25,745.5 149.25,750.0 125.875,758.5 113.25,762.5 100.125,766.125 86.25,769.375 71.75,772.0 56.25,773.875 40.0,774.875 22.75,774.5 4.5,772.5"/>
    <polyline points="-0.0,395.7821 3.875,391.5 89.875,325.25 189.0,270.25 290.125,229.875 383.125,203.625 461.875,188.125 524.375,179.75 604.625,172.125 626.375,169.625 638.625,167.125 643.0,164.875 640.625,163.25 632.75,162.75 620.5,164.125 604.5,167.75"/>
    <polyline points="585.875,174.25 565.75,183.625 544.875,195.875 524.25,210.875 504.625,228.0 486.75,246.875 470.75,266.75 457.125,287.0 445.75,307.0 436.625,326.5 429.625,345.125 424.25,362.625 420.625,378.875 418.25,393.875 416.875,407.625 416.5,420.125 416.625,431.625 417.375,442.125 418.5,451.75 421.375,468.625 423.0,476.0 424.625,482.875 429.625,500.875"/>
    <polyline points="431.125,506.125 434.875,520.25 436.75,528.75 438.5,540.125 439.0,547.125 438.875,553.875 437.75,563.25 435.5,572.25 433.375,578.125 430.875,583.75 426.125,592.25"/>
    <polyline points="424.25,595.125 420.375,600.75 413.625,609.25 408.625,615.0 397.25,626.875 373.0,649.25 343.5,674.875"/>
    <polyline points="338.875,678.875 319.5,696.125 304.25,710.5 294.0,720.875 283.75,732.125 278.75,738.0 269.25,750.5 264.75,757.125 260.625,764.125 257.0,771.375 253.75,779.0 251.125,787.0 249.375,795.25 248.625,804.0 249.125,813.0 251.125,822.375 255.0,832.125 261.0,842.0"/>
    <polyline points="269.75,851.875 281.75,861.75 297.375,871.0 317.125,879.5 341.5,886.5 370.625,891.5 404.5,893.625 442.5,892.25 483.625,886.625 526.375,876.625 568.75,862.25 608.875,844.0 644.875,822.875 675.375,800.125 700.125,777.0 718.875,754.625 732.25,733.625 741.0,714.75 746.125,698.0 748.375,683.5 748.5,671.0 747.125,660.5 744.75,651.625 741.625,644.0 738.0,637.75 734.25,632.25"/>
    <polyline points="730.25,627.625 722.5,620.0 715.0,613.875 708.0,608.75 696.125,599.375 691.25,594.875 687.125,590.375 683.625,585.75 680.75,581.125 679.625,578.75 677.75,574.0 676.625,569.125 676.0,564.25"/>
    <polyline points="675.875,561.75 676.0,556.875 676.75,551.875 678.0,546.875 680.875,539.25 684.875,531.5 688.125,526.25 691.875,521.0 698.375,512.75 714.875,495.5"/>
    <polyline points="718.125,492.5 728.5,483.125 744.25,469.75 757.625,458.875 813.0,415.5 833.0,399.375 847.25,387.25"/>
    <polyline points="854.75,380.875 870.125,366.875 886.125,351.25 894.375,342.625 902.75,333.25 911.125,323.25 919.625,312.375 928.0,300.5 936.25,287.375 944.125,273.0 951.5,257.0 958.25,239.0 963.75,218.75 967.75,196.0 969.125,170.25 967.25,141.125 960.375,108.625 946.625,72.875 923.375,34.75 891.1234,0.0"/>
    <polyline points="459.0305,0.0 388.25,47.375 309.75,123.375 250.375,201.625 209.0,273.875 181.875,335.25 165.25,384.5 155.875,421.875 151.375,448.875 150.625,467.125 152.625,478.125 157.125,483.375 164.0,484.125 173.25,481.375 184.625,476.0 214.0,461.125 231.375,452.875 250.125,444.875 269.625,437.375 289.625,430.875 309.625,425.625 329.125,421.375 347.875,418.375 365.625,416.625 382.25,415.875"/>
    <polyline points="397.5,416.0 411.625,417.0 424.25,418.625 435.75,420.75 446.125,423.375 455.5,426.25 463.875,429.375 471.5,432.75 478.375,436.125 484.5,439.625 495.25,446.5 499.875,450.0 508.125,456.5 532.25,478.5 539.375,484.625"/>
    <polyline points="541.5,486.5 547.875,491.25 553.75,495.0 559.5,497.875 565.125,499.875 570.75,501.125 576.25,501.625 582.0,501.375 589.75,500.125"/>
    <polyline points="591.75,499.625 597.875,497.75 604.25,495.25 611.0,492.125 618.125,488.375 625.625,484.0 633.625,478.875 645.125,470.875 654.375,463.875"/>
    <polyline points="657.625,461.375 664.25,456.125 674.75,447.125 685.875,437.0 693.625,429.625 701.625,421.375 714.0,407.75 726.625,391.875 735.0,380.125 743.125,367.0 747.125,359.875 750.875,352.5 754.375,344.625"/>
    <polyline points="757.75,336.375 763.25,318.5 765.25,308.875 766.625,298.875 767.25,288.375 767.0,277.375 765.625,266.125 763.0,254.5 758.875,242.875 753.0,231.125 745.25,219.75 735.25,209.0 723.0,199.125 708.25,190.625 691.0,184.125 671.5,180.0 649.875,178.75 626.625,180.75 602.375,186.25 577.875,195.25 553.625,207.625 530.625,222.875 509.375,240.25 490.375,259.375 473.75,279.375"/>
    <polyline points="459.875,299.75 448.375,319.625 439.25,339.0 432.125,357.25 427.0,374.375 423.25,390.25 420.875,404.75 419.5,418.125 419.0,430.375 419.0,441.375 419.625,451.5 421.625,469.25 425.75,490.875 433.125,522.75 435.25,535.25 435.625,539.125"/>
    <polyline points="436.0,542.875 436.125,553.25 435.0,563.0 433.625,569.25 431.625,575.25 429.25,581.125 423.125,592.625 419.25,598.375 412.75,607.0 402.375,618.75"/>
    <polyline points="399.5,621.75 383.5,637.25 364.5,654.125 328.5,685.0 313.375,698.375 292.375,718.375"/>
    <polyline points="287.0,723.75 276.375,735.125 271.25,741.25 266.25,747.5 256.75,760.875 252.375,768.125 248.5,775.625 245.25,783.5 242.625,791.75 240.75,800.375 240.125,809.375 240.75,818.75 243.0,828.625 247.375,838.75 254.125,849.125 263.875,859.5 277.125,869.75 294.5,879.5 316.5,888.125 343.5,895.125 375.75,899.75 413.125,901.0 454.875,898.25 499.5,890.75"/>
    <polyline points="545.25,878.375 589.875,861.375 631.0,840.5 667.0,817.125 696.75,792.625 719.875,768.25 736.75,745.25 748.25,724.25 755.25,705.625 758.625,689.5 759.5,675.75 758.5,664.25 756.125,654.625 753.0,646.75 749.25,640.125 745.25,634.625 741.0,630.0 732.375,622.75 728.125,619.875 720.0,614.875 705.375,606.5"/>
    <polyline points="702.125,604.5 696.25,600.625 691.125,596.5 686.625,592.25 681.25,585.5 679.75,583.25 677.375,578.625 674.875,571.375 674.0,566.625 673.75,561.625 674.25,554.25 676.0,546.625"/>
    <polyline points="676.875,544.125 680.125,536.5 684.5,528.625 690.0,520.625 696.5,512.5 701.5,506.875 713.0,495.125 726.625,482.625 738.25,472.625"/>
    <polyline points="742.375,469.125 817.375,408.5 845.125,384.625 860.0,370.75 875.5,355.25 891.5,337.5 899.625,327.5"/>
    <polyline points="907.75,316.875 915.75,305.125 923.75,292.25 931.25,278.125 938.375,262.5 944.875,245.125 950.125,225.5 953.875,203.625 955.375,179.0 953.625,151.375 947.375,120.625 934.875,86.875 913.875,51.125 881.875,15.0 861.1795,0.0"/>
    <polyline points="490.2874,0.0 421.625,40.875 343.5,109.25 282.125,182.625 237.75,252.75 207.625,314.625 188.5,365.75 177.0,406.125"/>
    <polyline points="171.0,436.375 168.75,458.25 169.375,472.875 172.25,481.625 177.125,485.875 184.0,486.5 192.75,484.375 203.25,480.25 244.125,462.125 260.0,455.875 276.625,450.0 293.625,444.875 310.5,440.625 327.125,437.25 343.25,434.875 358.625,433.375 373.125,432.75 386.625,433.0 399.125,433.875 410.5,435.375 421.125,437.25 430.625,439.625 439.375,442.375 447.25,445.25"/>
    <polyline points="454.375,448.375 466.875,455.0 472.25,458.375 481.625,465.25 489.5,471.875 496.25,478.25 507.25,490.0 528.875,515.5"/>
    <polyline points="530.25,517.0 537.5,524.625 543.75,529.75 548.5,532.625 551.25,533.75 555.625,534.75"/>
    <polyline points="556.5,534.875 561.875,534.875 568.5,533.375 572.625,531.875 581.625,527.375"/>
    <polyline points="582.875,526.75 591.0,522.0 600.25,516.0 625.75,497.875"/>
    <polyline points="628.125,496.125 646.25,482.125 667.875,464.375 685.625,448.625 693.375,441.375 709.75,425.125"/>
    <polyline points="714.0,420.625 727.25,405.75 740.75,388.625 749.75,375.75 758.5,361.375 762.75,353.625 766.75,345.375 770.5,336.75 774.0,327.5 777.0,317.875 779.625,307.5 781.5,296.75 782.625,285.375 782.875,273.375 781.875,261.0 779.5,248.125 775.5,234.875 769.5,221.625 761.375,208.375 750.625,195.75"/>
    <polyline points="737.0,184.125 720.5,174.0 700.875,166.0 678.375,160.875 653.25,159.25 626.0,161.75 597.5,168.375 568.75,179.5 540.75,194.625 514.25,213.125 490.25,234.125 469.125,256.75 451.125,280.125 436.375,303.5 424.5,326.0 415.5,347.375 408.75,367.25 403.875,385.5 400.75,402.125 398.875,417.25 398.0,430.875 397.875,443.125 398.375,454.125 399.25,464.125 401.625,481.375"/>
    <polyline points="403.125,489.0 405.875,502.25 409.75,518.75 411.625,528.375 413.0,537.0 413.75,548.625 413.125,559.5 411.0,569.5 408.875,576.0 406.125,582.375 400.875,591.875"/>
    <polyline points="398.875,594.875 394.5,601.125 386.75,610.625 374.375,623.375 363.625,633.375 351.625,643.625 333.375,658.125 318.125,669.75 301.375,682.0"/>
    <polyline points="295.375,686.25 234.25,730.0 202.75,753.5 178.0,773.5 161.25,788.375 152.875,796.375 144.75,804.75 136.875,813.75 129.375,823.25 122.5,833.375 116.5,844.375 111.5,856.125"/>
    <polyline points="108.0,868.875 106.625,882.75 108.125,897.875 113.5,914.375 124.0,932.0 141.375,950.75 167.875,970.0 205.875,988.5 258.25,1004.5 326.75,1014.75 411.625,1015.625 509.375,1003.125 612.5,975.125 710.375,932.75 793.125,880.875 855.0,826.5 895.625,776.0 918.5,733.75 928.375,701.25 929.625,678.375 925.375,664.25 917.75,657.25 907.75,656.125 895.875,659.625 882.375,666.5 867.375,675.75"/>
    <polyline points="850.75,686.375 832.75,697.5 813.5,708.5 793.375,718.5 772.625,727.125 751.75,734.0 731.25,739.125 711.375,742.125 692.5,743.5 674.875,743.125 658.75,741.25 644.0,738.375 630.75,734.5 618.875,730.125 608.375,725.25 599.125,720.125 590.875,714.75 583.625,709.5 577.25,704.375 571.625,699.375 562.25,689.875 554.625,681.25 548.375,673.625"/>
    <polyline points="545.625,670.125 532.25,653.375 526.625,647.375 521.375,642.625 516.25,639.0 509.5,635.625 504.5,634.0 499.375,633.125"/>
    <polyline points="497.625,633.0 490.5,633.25 487.0,633.75 475.625,636.875 463.5,642.25 452.625,648.375 448.125,651.25"/>
    <polyline points="445.875,652.875 438.875,657.75 429.25,665.25 419.375,673.875 412.0,681.0 402.5,691.5 398.0,697.25 391.875,706.375 388.375,712.75"/>
    <polyline points="386.875,716.0 384.25,722.75 382.625,729.75 382.125,736.75 383.0,743.875 384.125,747.375 385.625,750.75 387.5,754.125 390.0,757.5 393.125,760.625 396.75,763.625 401.0,766.375 411.5,771.0 417.75,772.875 424.5,774.25 432.0,775.25 440.0,775.625 448.5,775.5 457.375,774.875 466.625,773.625 476.125,771.75"/>
    <polyline points="485.625,769.125 495.25,766.0 504.625,762.375 513.625,758.125 522.375,753.375 530.5,748.25 538.125,742.875 545.0,737.125 551.25,731.25 556.75,725.125 561.625,719.125 565.75,713.0 569.125,707.0 571.875,701.125 574.125,695.375 575.75,689.75 576.875,684.375 578.0,674.25 577.75,664.875 576.625,656.375 573.625,645.0"/>
    <polyline points="572.5,641.625 567.25,629.5 563.125,621.875 557.875,613.375 549.5,602.25 542.25,594.75"/>
    <polyline points="541.25,594.0 537.625,591.125 532.5,588.375 527.625,587.0 522.625,586.875 520.0,587.25"/>
    <polyline points="519.125,587.375 514.75,588.625 506.75,592.0 498.875,596.25 492.375,600.25"/>
    <polyline points="491.0,601.125 482.125,606.875 468.25,616.5 444.875,634.0"/>
    <polyline points="442.5,635.875 427.125,648.125 413.125,660.0 404.375,668.0 389.25,682.875 383.25,689.375 371.625,703.625"/>
    <polyline points="368.875,707.375 361.375,719.5 357.375,728.0 355.625,732.375 354.25,736.875 353.125,741.5 352.5,746.125 352.25,750.875 352.5,755.625 353.375,760.5 354.75,765.25 357.0,770.125 360.0,774.75 363.75,779.375 368.625,783.75 374.375,788.0 381.25,791.75 389.375,795.125 398.5,798.0 408.875,800.25 420.375,801.75 432.875,802.375 446.375,802.0"/>
    <polyline points="460.5,800.625 475.25,798.25 490.25,794.625 505.25,790.0 520.0,784.375 534.125,777.75 547.5,770.375 559.75,762.375 570.875,753.875 580.75,745.125 589.25,736.125 596.375,727.125 602.25,718.375 606.875,709.75 610.5,701.5 613.125,693.5 614.875,685.875 616.0,678.75 616.375,672.0 616.375,665.5 616.0,659.5 613.0,643.375 610.25,634.125"/>
    <polyline points="608.75,629.875 594.375,594.375 591.125,584.875 588.375,572.75 587.875,565.75"/>
    <polyline points="587.875,564.125 588.5,557.875 589.625,553.375 590.5,550.5 593.0,544.875 599.375,535.125 605.375,528.0"/>
    <polyline points="606.75,526.5 614.375,518.75 625.5,508.5 660.75,478.0"/>
    <polyline points="663.875,475.375 680.75,460.625 703.875,439.0 716.625,426.125 730.125,411.5 739.375,400.625 748.875,388.5 758.25,375.25 767.625,360.375"/>
    <polyline points="772.0,352.25 776.375,343.625 780.375,334.625 784.125,325.0 787.375,314.75 790.25,303.875 792.375,292.5 793.625,280.375 793.875,267.625 792.875,254.25 790.375,240.375 786.0,226.0 779.375,211.625 770.25,197.25 758.25,183.375 743.0,170.75 724.375,159.875 702.125,151.5 676.625,146.625 648.125,145.75 617.5,149.75 585.75,158.75 554.0,172.625 523.5,190.875 495.25,212.75 470.125,237.0"/>
    <polyline points="448.5,262.5 430.625,288.25 416.25,313.375 405.125,337.25 396.875,359.375 391.0,379.75 387.0,398.25 384.625,414.75 383.375,429.625 383.0,442.75 383.375,454.625 384.125,465.125 385.25,474.625 388.0,490.875 396.875,530.5 397.625,534.875 398.875,547.0"/>
    <polyline points="398.875,550.75 398.5,557.875 398.0,561.375 396.625,568.125 395.625,571.5 393.25,578.0 391.75,581.25 386.5,590.75 379.75,600.25 368.5,613.0 354.875,626.0 347.0,632.625"/>
    <polyline points="342.875,636.0 334.0,642.875 319.375,653.5 303.125,664.5 285.0,676.0 264.875,687.875 242.625,700.125 217.875,712.75 190.25,725.25 170.0,733.375"/>
    <polyline points="159.125,737.25 147.875,741.0 136.125,744.5 123.875,747.625 110.875,750.5 97.375,752.625 83.125,754.25 68.125,754.875 52.375,754.5 35.75,752.5 18.5,748.75 0.0,742.1789"/>
    <polyline points="0.0,442.3947 61.5,384.125 138.25,331.0 222.625,287.875 306.875,256.125 384.0,235.125"/>
    <polyline points="450.125,222.5 503.75,215.625 545.625,212.125 613.25,208.375 621.625,207.75 624.75,207.25 618.875,208.375 611.25,210.375 601.375,213.75 589.875,218.625 577.25,225.125 564.0,233.375 550.625,243.125 537.625,254.375 525.125,266.625 513.75,279.875 503.5,293.625 494.5,307.625 486.75,321.75 480.375,335.625 475.25,349.125 471.25,362.0 468.125,374.375"/>
    <polyline points="466.125,386.125 464.75,397.125 464.125,407.5 464.0,417.125 465.0,434.5 467.25,449.75 470.125,462.875 475.0,479.75 478.125,489.375 486.75,512.625 491.875,527.5"/>
    <polyline points="492.625,530.0 495.125,539.5 496.25,545.875 496.875,553.5 496.875,556.875 496.375,561.875 495.0,568.0 492.125,575.375"/>
    <polyline points="491.375,576.75 488.0,582.375 485.0,586.625 480.375,592.25 473.5,599.625 457.875,614.0"/>
    <polyline points="455.875,615.75 413.5,652.0 401.375,662.875 388.5,675.0"/>
    <polyline points="385.25,678.25 375.375,688.5 368.875,695.75 362.5,703.5 353.625,716.0 350.875,720.375 346.0,729.625 343.875,734.375 340.625,744.25 339.0,754.5 339.0,759.875 339.5,765.25 340.875,770.625 342.875,776.0 345.875,781.375 349.875,786.625 354.875,791.75"/>
    <polyline points="361.25,796.625 368.875,801.125 377.875,805.25 388.25,808.75 400.125,811.5 413.5,813.375 428.125,814.125 444.0,813.875 460.875,812.25 478.375,809.25 496.125,804.875 513.875,799.25 531.25,792.25 547.75,784.25 563.125,775.25 577.0,765.625 589.375,755.5 600.0,745.125 609.0,734.625 616.375,724.375 622.125,714.5 626.5,704.875 629.625,695.75 631.75,687.25 633.0,679.125 633.5,671.5"/>
    <polyline points="633.375,664.5 631.875,651.625 629.25,640.375 624.5,626.0 615.375,603.125 610.875,590.875 608.0,580.25 607.0,575.375 606.5,570.75"/>
    <polyline points="606.375,568.5 606.25,564.125 606.75,557.875 608.0,552.0 610.625,544.375 614.375,536.875 619.25,529.375 627.0,519.875"/>
    <polyline points="628.75,517.875 636.375,509.625 647.75,498.5 698.75,451.875"/>
    <polyline points="702.75,448.125 711.125,440.125 724.25,426.875 738.25,411.875 748.0,400.625 757.875,388.125 767.875,374.375 777.625,359.0 782.375,350.625 787.0,341.625 791.375,332.125 795.375,322.125 799.0,311.375 802.0,299.875 804.375,287.75 805.875,274.75 806.25,261.125"/>
    <polyline points="805.125,246.75 802.5,231.75 797.625,216.125 790.375,200.375 780.25,184.625 766.625,169.5 749.375,155.625 728.125,144.0 702.75,135.25 673.5,130.75 641.125,131.125 606.375,137.125 570.875,149.125 535.875,166.5 502.75,188.625 472.875,214.375 446.875,242.125 425.25,270.75 407.75,298.875 394.125,325.625 384.0,350.625 376.75,373.375 371.75,393.875 368.75,412.125 367.0,428.375 366.5,442.625"/>
    <polyline points="366.625,455.25 367.5,466.375 368.625,476.25 370.0,485.0 371.5,492.875 374.625,506.5 381.0,532.0 383.0,544.125 383.375,551.375 383.125,558.375 382.625,561.625 381.25,568.25 380.25,571.375 377.875,577.75 376.375,580.875"/>
    <polyline points="374.75,584.0 368.75,593.25 361.25,602.5 352.25,611.75 345.375,618.0 337.75,624.375 329.5,630.75 320.5,637.125 305.5,646.875 288.625,656.75 276.25,663.25"/>
    <polyline points="269.75,666.5 248.625,676.125 241.0,679.25 225.0,685.125 207.75,690.5 198.625,692.875 179.25,696.875 169.0,698.25 158.375,699.25 147.375,699.625 136.0,699.375 124.375,698.125 112.5,696.0 100.375,692.5 88.25,687.5 76.25,680.625 64.75,671.625 54.375,660.125 45.375,645.625 38.875,628.0 35.875,606.625"/>
    <polyline points="37.375,581.75 45.0,553.375 59.625,522.125 82.25,489.25 112.875,455.875 150.875,424.0 194.5,395.0 241.5,370.375 289.125,350.75 335.0,336.0 377.5,325.875 415.375,319.5 448.375,316.125 476.375,314.75 499.75,315.0 519.125,316.125 534.75,318.0 547.5,320.125 557.75,322.375 565.875,324.75 572.25,327.125 581.0,332.0 583.875,334.375 586.0,336.625 587.5,339.0"/>
    <polyline points="588.5,341.375 589.25,343.625 589.75,348.375 588.625,367.125 588.75,373.75 589.25,377.875 590.125,381.75 591.375,385.25 592.875,388.5 595.875,392.625"/>
    <polyline points="597.0,393.75 600.875,396.625 605.125,398.625 608.375,399.375 611.625,399.625 616.875,399.375 622.375,398.0 628.125,395.75 632.0,393.625 637.75,389.75 639.625,388.125"/>
    <polyline points="641.5,386.5 643.375,384.875 648.75,379.0 652.125,374.625 655.25,369.875 659.25,362.0 662.25,353.5 663.875,344.5 664.0,338.5 663.75,335.375 663.25,332.375 661.375,326.625 658.625,321.125"/>
    <polyline points="656.75,318.625 652.125,314.25 646.375,310.75 643.125,309.375 639.5,308.375 635.75,307.75 631.75,307.5 627.5,307.625 623.25,308.125 618.75,309.0 609.75,312.125 605.25,314.25 596.5,319.625 592.25,322.75 584.375,330.0 577.5,338.125 574.5,342.5 569.25,351.375 567.125,356.0"/>
    <polyline points="565.375,360.5 562.5,369.5 560.875,378.25 560.5,382.5 560.25,386.5 560.625,394.25 561.0,397.875 562.5,404.625 563.5,407.875 565.875,413.625 568.625,418.75 571.875,423.25 575.5,427.0 579.375,430.25 585.5,433.875"/>
    <polyline points="587.75,434.75 594.5,436.75 601.75,437.5 611.75,436.625 619.625,434.625 627.875,431.5 633.5,428.75 639.25,425.5 648.0,419.625 654.0,415.0"/>
    <polyline points="657.0,412.5 669.125,400.875 672.125,397.625 680.875,386.75 686.5,378.625 691.875,369.75 696.625,360.125 698.75,355.125 702.5,344.375 705.0,333.0 705.75,327.0 706.125,321.0 706.125,314.75 705.5,308.625 704.375,302.375 702.5,296.125"/>
    <polyline points="700.125,290.0 696.875,284.0 692.875,278.375 688.125,273.0 682.375,268.125 675.875,263.75 668.375,260.25 660.125,257.5 651.125,255.625 641.375,254.875 631.125,255.25 620.375,256.875 609.25,259.75 598.125,263.875 587.125,269.125 576.375,275.5 566.0,282.875 556.375,291.0 547.375,299.875 539.125,309.25 531.75,319.0 525.375,328.875 519.75,338.875 515.125,348.75 511.25,358.5 508.125,368.0"/>
    <polyline points="505.75,377.125 504.125,385.875 503.0,394.25 502.125,409.75 502.875,423.625 503.625,430.0 505.875,441.625 510.25,456.625 513.625,465.125 517.125,472.625 520.625,479.25 526.0,487.875 532.875,497.0"/>
    <polyline points="534.5,498.875 537.75,502.5 544.0,508.25 548.5,511.5 552.75,514.0 555.625,515.375 561.25,517.125 568.25,518.0 571.125,517.875"/>
    <polyline points="572.625,517.75 578.5,516.875 583.125,515.625 591.25,512.5 602.0,507.25 616.25,498.625"/>
    <polyline points="618.5,497.25 635.75,485.375 649.875,474.75 659.125,467.375 676.125,453.0 695.0,435.5"/>
    <polyline points="699.0,431.5 711.5,418.625 724.5,403.875 733.25,392.75 742.0,380.5 750.625,367.0 754.875,359.625 758.875,351.875 766.25,335.125 769.375,326.125 772.25,316.5 774.5,306.375 776.125,295.75 776.875,284.625 776.75,273.0 775.375,260.875 772.625,248.5 768.375,235.75"/>
    <polyline points="762.125,223.125 753.625,210.75 742.75,198.875 729.25,188.125 713.0,179.0 693.875,172.0 672.0,167.75 647.875,166.875 622.0,169.75 595.125,176.625 568.0,187.5 541.625,202.0 516.875,219.625 494.25,239.625 474.375,261.125 457.375,283.25 443.25,305.375 432.0,326.75 423.25,347.25 416.75,366.25 412.0,383.875 408.875,400.125 407.0,414.75 406.125,428.125 405.875,440.125 406.25,451.125"/>
    <polyline points="407.125,461.0 409.5,478.25 412.25,492.75 418.625,520.75 420.375,529.875 421.875,542.25 422.0,553.25 420.75,563.5 419.25,570.125 415.875,579.5"/>
    <polyline points="414.375,582.625 411.25,588.75 405.375,598.0 398.375,607.125 390.125,616.375 384.0,622.75 373.875,632.5 362.5,642.625 349.875,653.25 336.0,664.375"/>
    <polyline points="331.125,668.375 292.875,698.375 268.125,718.25 248.5,735.0 228.5,753.75 215.375,767.625 209.0,775.125 203.0,783.0 197.25,791.25 191.875,800.0 187.25,809.25 183.5,819.125"/>
    <polyline points="180.875,829.625 179.625,840.75 180.375,852.625 183.5,865.25 189.625,878.625 199.875,892.375 214.875,906.5 236.125,920.375 264.75,933.375 301.875,944.25 348.125,951.625 403.75,953.5 467.125,948.375 535.25,934.625 603.75,912.25 667.625,882.375 722.625,847.625 766.125,811.0 797.625,775.75 818.375,743.75 830.375,716.625 835.75,694.375 836.625,677.0 834.25,664.0 829.875,654.75 824.125,648.5"/>
    <polyline points="817.375,644.625 810.125,642.75 802.375,642.25 794.375,642.875 786.0,644.125 750.75,651.375 733.0,654.125 715.875,655.25 707.625,655.125 699.625,654.625 684.875,652.375 678.0,650.75 671.5,648.75 665.5,646.5 659.75,644.0 649.625,638.625 645.0,635.625 637.0,629.625"/>
    <polyline points="633.375,626.5 627.125,620.25 621.75,614.125 615.375,605.125 610.625,596.75 607.125,588.875 605.375,583.875 604.125,579.125 602.875,572.375 602.5,566.125 602.625,562.0"/>
    <polyline points="602.875,560.125 603.75,554.375 606.0,547.125 611.375,536.375 616.25,529.25 619.125,525.625 629.25,514.25"/>
    <polyline points="631.125,512.375 646.75,497.25 682.875,464.75 706.0,443.125"/>
    <polyline points="710.25,439.125 723.375,425.875 737.25,410.75 746.875,399.5 761.625,380.375 771.375,365.75 776.25,357.75 780.875,349.375 785.375,340.375 789.5,330.875 793.5,320.75 796.875,310.0 799.75,298.625 801.875,286.5 803.125,273.625 803.25,260.0 801.875,245.75 798.875,230.875"/>
    <polyline points="793.75,215.5 786.125,200.0 775.625,184.75 761.875,170.125 744.375,156.875 722.875,145.75 697.625,137.875 668.625,134.0 636.625,135.125 602.625,141.75 567.875,153.875 533.875,171.5 501.875,193.5 473.0,218.75 448.0,246.0 427.0,273.875 410.125,301.375 397.0,327.5 387.25,351.875 380.25,374.125 375.5,394.25 372.5,412.125 370.875,428.125 370.375,442.125 370.5,454.625 371.25,465.75"/>
    <polyline points="372.375,475.5 375.25,492.25 384.625,531.625 386.0,540.0 386.75,547.625 386.75,554.875 386.125,561.625 385.5,565.0 383.75,571.5 381.25,577.875 378.125,584.25 376.25,587.375"/>
    <polyline points="374.25,590.5 367.375,599.875 355.625,612.375 345.125,621.875 333.125,631.5 319.375,641.375 304.0,651.375 286.625,661.625 267.25,671.875"/>
    <polyline points="260.25,675.25 245.625,682.0 237.875,685.25 212.625,694.75 203.625,697.625 184.5,702.75 163.75,706.75 152.625,708.125 141.25,708.875 129.375,709.0 117.125,708.25 104.5,706.5 91.625,703.5 78.5,699.0 65.375,692.5 52.625,683.75 40.625,672.375 30.125,657.75 21.875,639.5 17.125,617.25 17.125,590.625"/>
    <polyline points="23.75,560.0 38.25,525.75 62.0,489.125 95.375,451.875 137.375,416.0 186.125,383.5 238.625,356.125 291.75,334.625 342.5,318.875 388.875,308.25 429.75,301.75 464.625,298.375 493.625,297.125 517.5,297.375 536.625,298.5 551.875,300.125 563.75,302.0 572.875,304.0 579.75,306.125 584.75,308.25 588.25,310.375 590.5,312.5 591.75,314.75 592.125,317.125 592.0,319.625 591.25,322.25"/>
    <polyline points="590.25,325.0 580.75,344.0 577.75,351.125 574.25,361.875 572.875,369.125 572.0,376.0 571.875,379.375 572.5,388.75 574.5,397.125 577.625,404.375"/>
    <polyline points="578.875,406.375 583.25,412.0 586.5,414.875 590.125,417.375 596.0,420.0 602.25,421.375 609.0,421.625 613.625,421.125 618.5,420.125 623.375,418.625 630.875,415.375"/>
    <polyline points="633.5,414.0 636.125,412.625 641.25,409.25 646.5,405.5 651.75,401.125 659.625,393.5 664.625,387.75 669.5,381.375 676.375,370.75 680.375,363.0 682.125,358.875 683.875,354.625 686.5,345.75 688.25,336.375"/>
    <polyline points="688.625,331.625 688.75,326.75 688.375,322.0 687.75,317.125 686.625,312.25 683.0,302.75 680.25,298.375 677.125,294.125 673.375,290.125 669.0,286.5 664.125,283.375 658.5,280.75 652.5,278.75 645.875,277.375 638.875,276.75 631.375,276.875 623.625,277.75 615.625,279.5 607.5,282.125 599.375,285.5 591.375,289.625 583.5,294.5 576.0,300.125 569.0,306.25 562.25,312.875"/>
    <polyline points="556.25,319.875 550.625,327.125 545.75,334.5 541.375,342.125 537.625,349.75 534.5,357.25 531.875,364.625 528.25,378.875 527.125,385.75 526.5,392.25 526.125,398.5 526.5,410.25 528.0,420.75 530.125,430.25 533.0,438.625 536.25,446.125 539.875,452.625 543.625,458.375"/>
    <polyline points="545.625,460.875 551.625,467.625 555.75,471.25 562.0,475.625 568.375,478.875 574.875,481.0 581.375,482.125 590.375,482.25 595.0,481.75 599.75,480.75"/>
    <polyline points="602.125,480.25 612.125,477.0 617.25,474.75 625.375,470.875 636.75,464.25 642.875,460.375 655.5,451.25 669.25,440.25 676.375,433.875"/>
    <polyline points="680.0,430.5 687.5,423.25 699.0,411.0 706.875,401.875 714.75,391.875 726.25,375.0 733.5,362.25 740.125,348.25 743.125,340.625 748.125,324.5 749.875,315.875 751.125,306.875 751.75,297.5 751.625,287.875 750.625,277.875 748.5,267.75"/>
    <polyline points="745.125,257.5 740.5,247.375 734.125,237.375 726.25,227.875 716.375,219.125 704.625,211.5 690.875,205.125 675.25,200.625 657.875,198.25 639.0,198.375 619.0,201.125 598.375,206.75 577.625,215.0 557.375,226.0 538.125,239.125 520.25,254.125 504.125,270.375 489.875,287.375 477.75,304.75 467.75,322.0 459.5,338.75 453.0,355.0 448.125,370.25 444.625,384.625 442.125,398.0 440.625,410.375"/>
    <polyline points="440.0,421.75 439.875,432.25 440.25,442.0 442.0,459.25 446.0,480.5 455.25,516.5 458.0,528.25 459.25,535.375 460.0,541.875 460.375,553.875"/>
    <polyline points="460.125,556.75 459.0,564.75 457.0,572.5 455.125,577.5 450.375,587.125 444.25,596.625 438.75,603.875 434.625,608.75 425.375,618.625"/>
    <polyline points="422.875,621.25 406.0,637.5 371.25,669.0 359.5,680.0 347.25,692.0 334.875,705.125"/>
    <polyline points="330.875,709.75 326.75,714.5 319.0,724.625 311.625,735.375 305.25,746.875 300.25,759.25 298.5,765.75 297.375,772.375 296.875,779.375 297.375,786.375 298.875,793.625 301.5,801.0 305.625,808.375 311.375,815.75 319.0,823.0 328.625,829.875 340.75,836.25 355.25,841.875 372.5,846.5 392.375,849.625 414.875,851.25 439.625,850.625"/>
    <polyline points="466.375,847.875 494.125,842.5 522.375,834.625 549.875,824.5 576.125,812.125 600.0,798.125 621.125,783.125 639.0,767.5 653.75,751.875 665.25,736.625 673.875,722.25 680.0,708.625 684.0,696.125 686.125,684.75 687.0,674.5 686.75,665.125 685.875,656.75 684.25,649.125 680.125,636.0 677.75,630.25 673.0,620.125 666.375,607.25"/>
    <polyline points="664.375,603.375 659.25,592.875 655.5,583.25 653.125,574.375 652.125,566.0 652.125,560.5 652.625,555.125 653.625,549.875 655.125,544.625 657.125,539.5 660.875,531.75"/>
    <polyline points="662.375,529.125 665.75,523.875 671.5,515.875 680.875,504.75 689.0,496.0 705.0,480.25 737.25,450.75"/>
    <polyline points="742.0,446.625 767.25,423.125 778.375,412.25 790.0,400.375 802.125,387.25 814.625,372.5 820.875,364.5 827.25,356.0 840.0,337.0 846.125,326.375 852.0,315.0 857.625,302.625 862.75,289.25 867.25,274.625 870.75,258.75 873.125,241.5 873.75,222.625"/>
    <polyline points="872.25,202.25 867.875,180.375 859.875,157.25 847.125,133.25 828.75,109.125 803.375,86.375 770.25,66.75 728.875,52.5 679.625,46.375 624.125,50.625 565.375,66.75 507.0,94.375 452.625,131.625 405.25,175.125 366.375,221.375 336.25,266.75 314.125,309.0 298.5,346.75 288.0,379.375 281.625,406.875 278.0,429.75 276.5,448.5 276.5,463.75 277.625,475.875 279.5,485.625 281.875,493.375"/>
    <polyline points="284.75,499.5 288.0,504.25 291.5,508.0 295.125,511.0 298.875,513.375 302.75,515.25 306.75,516.75 314.625,519.125 329.875,523.125 336.75,525.375 345.875,529.375 351.125,532.625 355.5,536.125 359.0,540.0 361.75,544.25"/>
  </g>
</svg>
