<?xml version="1.0" encoding="utf-8" ?>
<svg xmlns="http://www.w3.org/2000/svg" xmlns:cc="http://creativecommons.org/ns" xmlns:dc="http://purl.org/dc/elements/1.1/" xmlns:ev="http://www.w3.org/2001/xml-events" xmlns:inkscape="http://www.inkscape.org/namespaces/inkscape" xmlns:rdf="http://www.w3.org/1999/02/22-rdf-syntax-ns" xmlns:sodipodi="http://sodipodi.sourceforge.net/DTD/sodipodi-0.dtd" xmlns:xlink="http://www.w3.org/1999/xlink" baseProfile="tiny" height="27.09333333cm" version="1.2" viewBox="0 0 1024.0 1024.0" width="27.09333333cm">
  <metadata>
    <rdf:RDF>
      <cc:Work>
        <dc:format>image/svg+xml</dc:format>
        <dc:source>vpype read './original_svgs/Strange Attractors #533.svg' linemerge linesimplify write './Strange Attractors #533.svg'
</dc:source>
        <dc:date>2024-08-05T01:36:08.374750</dc:date>
      </cc:Work>
    </rdf:RDF>
  </metadata>
  <defs/>
  <g fill="none" id="layer1" inkscape:groupmode="layer" inkscape:label="1" stroke="black" stroke-width="0.7mm" style="display:inline">
    <polyline points="743.625,784.25 665.875,714.5 636.0,687.0 612.5,664.875 594.75,647.625 581.875,634.25 572.875,624.0 567.125,616.25 564.0,610.25 563.125,605.5 564.25,601.5 567.125,598.0 571.75,594.625 578.125,590.75 609.875,573.875 625.875,564.75 645.5,552.875 669.375,537.5 698.25,517.75 732.375,492.75 771.625,462.0 814.75,425.625 858.5,385.375"/>
    <polyline points="897.5,345.125 925.0,311.125 935.25,289.625 926.75,284.5 903.125,295.625 871.25,318.75 837.75,348.375 807.375,380.0 782.375,410.625 763.5,438.625 750.375,463.5 742.25,485.375 737.875,504.375 736.5,521.0 737.0,535.25 738.625,547.5 742.0,565.875 742.625,572.125 742.0,576.375 740.0,578.75 736.5,579.375 731.75,578.375 725.75,576.125 718.875,572.75 711.5,568.625"/>
    <polyline points="703.625,564.0 671.875,544.75 650.75,532.625 638.375,526.5 627.5,521.75 617.75,518.25 605.375,514.75 591.75,512.75 586.125,512.5 578.75,512.625"/>
    <polyline points="576.625,512.875 569.0,513.875 563.125,515.375 559.625,516.625 556.875,518.0 554.125,519.875 552.75,521.375 551.875,523.375"/>
    <polyline points="551.75,523.75 552.0,525.75 553.25,527.625 555.5,529.25 558.125,530.375 562.75,531.375 565.875,531.625 573.625,531.25"/>
    <polyline points="576.0,531.0 587.5,528.5 599.0,524.75 608.25,521.0 619.125,516.0 625.125,512.875 645.625,501.375 661.25,491.625 686.25,474.125 709.25,455.5 715.625,449.75 720.75,444.625"/>
    <polyline points="724.625,440.375 727.0,437.0 727.875,434.75 727.125,433.625 724.875,433.75 721.25,435.0 710.75,440.375 697.125,448.25 659.875,471.125 645.875,479.125 633.0,485.875 621.375,491.375 610.75,495.75 596.875,500.375"/>
    <polyline points="592.625,501.625 577.75,504.75 568.375,505.875 560.25,506.375 553.25,506.375 547.0,506.0 538.25,504.875 532.5,503.625"/>
    <polyline points="531.125,503.375 524.125,501.0 519.125,498.625 512.125,494.0 507.375,489.75"/>
    <polyline points="506.625,489.0 502.5,484.75 488.25,468.375 478.875,458.5"/>
    <polyline points="477.0,456.5 470.5,450.25 462.375,443.125 448.375,432.0 434.5,422.125 423.25,414.875 410.125,407.25 395.25,399.375 378.75,391.75 361.25,385.375 352.625,383.0 344.25,381.375"/>
    <polyline points="336.375,380.75 329.375,381.125 323.5,382.75 319.0,385.875 316.0,390.25 314.75,396.125 315.125,403.125 317.25,411.25 320.875,420.125 325.75,429.5 331.75,439.125 338.375,448.75 345.625,458.125 353.125,467.125 360.75,475.625 375.75,490.5 389.625,502.5 402.375,512.0 413.625,519.125 428.25,526.375"/>
    <polyline points="432.5,528.0 436.625,529.5 444.0,531.625 456.75,534.125 469.375,535.25 481.25,535.625 492.125,536.375"/>
    <polyline points="493.375,536.5 498.375,537.25 507.0,539.5 512.75,541.875 519.5,545.375"/>
    <polyline points="520.625,545.875 527.25,549.25 532.625,551.375 539.25,553.375 543.25,554.0 548.0,554.5 556.5,554.375 563.625,553.5 572.25,551.625"/>
    <polyline points="577.375,550.25 589.25,546.25 604.125,540.125 622.75,531.0 633.75,525.0 659.625,509.375 674.625,499.5 690.875,488.25 708.25,475.625 726.25,461.625 744.375,446.75 761.75,431.625 777.375,416.875 789.875,403.75 798.5,393.0 802.5,385.75 801.5,382.5 795.875,383.375 786.5,388.0 774.25,395.625 760.375,405.375 745.875,416.375"/>
    <polyline points="731.375,427.875 672.75,476.875 649.625,494.875 637.875,502.625 632.75,505.5 623.875,509.875 616.375,512.5 613.0,513.25 606.75,514.25 601.25,514.375 596.25,514.125 589.5,513.0"/>
    <polyline points="587.5,512.5 580.125,510.125 574.0,507.375 569.0,504.5 567.0,503.125 563.125,499.625 561.75,497.625 561.375,495.875"/>
    <polyline points="561.375,495.25 562.25,493.875 564.625,493.0 567.0,492.875 570.375,493.25 574.875,494.125 580.75,495.875 592.625,500.375 615.875,511.75 631.125,520.25 649.0,530.875"/>
    <polyline points="658.625,537.0 678.625,550.25 698.0,563.875 720.25,581.0 724.5,584.75 726.875,587.25 727.25,588.25 722.625,586.0 718.0,583.125 668.0,548.75 653.875,539.75 635.125,529.125"/>
    <polyline points="629.625,526.375 619.5,521.875 610.5,518.5 599.0,515.375 592.375,514.25 583.875,513.375 574.625,513.5 567.375,514.5 560.5,516.375"/>
    <polyline points="559.5,516.75 556.625,518.0 554.375,519.375 552.0,521.75 551.25,523.75 551.25,525.125 552.125,527.125 553.5,528.375"/>
    <polyline points="554.0,528.875 558.125,530.75 561.625,531.5 564.5,531.875 569.75,531.875 574.125,531.5 579.25,530.625 588.5,528.375 600.375,524.375 610.0,520.375"/>
    <polyline points="615.375,517.875 621.25,515.125 634.125,508.25 648.625,499.75 664.625,489.5 681.5,477.75 698.0,465.125 712.5,452.875 723.25,442.375 726.5,438.375 728.375,435.375 728.625,433.625 727.25,433.0 724.375,433.625 720.125,435.375 708.75,441.375 694.625,449.875"/>
    <polyline points="687.0,454.5 671.75,464.0 650.0,476.875 630.5,487.125 613.75,494.625 599.375,499.75 587.0,503.0 573.125,505.375 561.75,506.25"/>
    <polyline points="559.25,506.25 550.125,506.125 539.125,504.875 533.125,503.625 528.0,502.125 520.375,498.875"/>
    <polyline points="519.5,498.375 516.625,496.75 511.5,493.0 506.625,488.5 498.0,479.0"/>
    <polyline points="497.0,477.875 483.25,462.375 473.75,452.875 460.375,441.0 445.375,429.25"/>
    <polyline points="440.75,426.0 424.5,415.25 411.5,407.5 396.5,399.375 379.875,391.625 371.125,388.125 362.125,385.0 353.25,382.375 344.625,380.5 336.375,379.625 329.125,379.75 322.875,381.25 318.0,384.125 314.625,388.375 313.125,394.125 313.25,401.125 315.125,409.25 318.625,418.25 323.5,427.875 329.5,437.75 336.25,447.625"/>
    <polyline points="343.625,457.25 351.25,466.5 359.0,475.125 366.625,483.125 374.25,490.375 388.375,502.875 395.0,508.0 407.125,516.5 417.875,522.75 427.375,527.25 435.875,530.375 443.375,532.625 450.125,534.125 458.875,535.375 466.5,536.0"/>
    <polyline points="468.875,536.125 484.25,536.625 494.375,537.5 502.625,539.125 505.75,540.125"/>
    <polyline points="506.75,540.5 512.625,542.875 527.5,550.375 534.75,553.0"/>
    <polyline points="536.375,553.5 542.125,554.75 549.25,555.375 555.0,555.25 562.0,554.5 570.5,552.875 581.0,549.875 594.0,545.125 601.625,541.875 610.25,537.875 630.875,527.25 656.5,512.0 671.5,502.375 687.75,491.125 705.25,478.5"/>
    <polyline points="723.625,464.5 742.125,449.5 760.25,433.875 776.625,418.625 790.25,404.625 799.875,393.0 804.875,384.875 804.75,380.875 799.75,381.0 790.5,385.25 778.375,392.625 764.375,402.5 749.625,413.75 734.875,425.5 666.125,483.375 658.375,489.5 645.25,499.25 639.75,502.875 630.0,508.375"/>
    <polyline points="625.875,510.375 618.375,513.125 611.875,514.625 606.125,515.25 598.5,515.0 591.875,513.875 586.0,512.25 579.375,509.75 571.375,505.625"/>
    <polyline points="570.25,504.875 566.625,502.125 564.75,500.125 563.5,497.75 563.625,496.125 564.875,495.0 567.625,494.375 570.375,494.5 576.375,495.625"/>
    <polyline points="579.0,496.375 589.0,499.875 602.875,506.0 621.75,515.75 645.625,529.625 673.0,547.375 691.125,560.0 706.75,571.5 717.375,580.125 720.25,582.875 721.375,584.375 720.75,584.5 718.5,583.5"/>
    <polyline points="714.875,581.375 661.875,546.125 648.375,538.0 630.5,528.375 620.125,523.625 610.75,520.125 602.5,517.5 591.75,515.125 582.625,514.0"/>
    <polyline points="580.0,513.75 568.625,513.875 560.0,515.125 556.0,516.125 550.875,518.0 549.25,518.875 546.375,521.125"/>
    <polyline points="546.0,521.5 545.0,522.875 544.5,524.375 544.5,525.75 545.375,528.25 547.0,530.125 548.875,531.5 552.375,533.125"/>
    <polyline points="553.375,533.5 558.5,534.625 563.625,535.0 567.75,534.875 572.625,534.375 578.25,533.375 588.75,530.625 602.25,525.75 613.25,521.0 626.125,514.625 641.125,506.375"/>
    <polyline points="649.375,501.375 667.125,490.0 676.5,483.5 695.5,469.5 713.5,455.0 728.0,441.625 733.125,436.125 736.75,431.75 738.375,428.625 738.125,426.875 736.0,426.625 732.25,427.875 727.0,430.25 720.5,433.75 696.875,448.375 671.875,464.5 656.125,474.125"/>
    <polyline points="648.75,478.5 628.875,489.125 622.875,491.875 606.875,498.25 593.375,502.25 581.75,504.5 571.875,505.5 563.25,505.75 555.75,505.375 549.25,504.625"/>
    <polyline points="547.25,504.25 541.625,503.125 536.625,501.75 526.875,497.875 520.0,493.75 513.75,488.75"/>
    <polyline points="512.75,487.875 509.625,485.0 504.5,479.5 490.5,463.5 479.0,451.375"/>
    <polyline points="476.5,449.0 464.75,438.125 452.75,428.25 430.5,412.25 407.625,397.875 388.625,387.5 378.125,382.25 367.0,377.25 355.375,372.5 343.5,368.375 331.75,365.125 320.5,363.0 310.25,362.5 301.375,363.75 294.375,367.125"/>
    <polyline points="289.875,372.75 288.0,380.5 288.75,390.25 292.0,401.75 297.5,414.25 304.875,427.5 313.5,441.0 322.875,454.125 332.625,466.625 342.5,478.25 361.25,498.5 370.0,506.875 378.125,514.25 385.75,520.625 399.125,530.75 405.125,534.625 410.625,537.75 420.5,542.5 429.0,545.625 432.875,546.75 439.875,548.125"/>
    <polyline points="443.0,548.5 446.125,548.875 456.875,549.125 471.875,548.375 482.0,548.25 486.375,548.5 491.75,549.25"/>
    <polyline points="493.0,549.5 498.875,551.125 505.5,554.0 510.875,556.875 521.5,563.25"/>
    <polyline points="522.875,564.0 529.25,566.875 535.25,568.625 542.875,569.75 549.25,569.875 553.0,569.625 561.875,568.375 567.125,567.25 580.0,563.375 596.75,556.75 619.125,545.875 632.875,538.25 648.75,528.875 667.0,517.375"/>
    <polyline points="687.75,503.5 711.0,486.875 736.25,467.625 763.125,445.875 790.0,422.5 815.0,398.875 835.625,377.0 849.5,359.375 854.875,348.125 851.25,344.625 839.75,348.625 822.625,359.125 802.5,374.0 781.5,391.5 761.5,409.75 743.25,427.5 727.375,444.0 702.75,472.125 686.125,493.5 675.125,508.875 664.875,524.0"/>
    <polyline points="662.375,527.25 660.125,530.0 657.875,532.125 655.75,533.75 653.625,534.875 651.5,535.75 649.25,536.125 644.5,536.25 639.375,535.375 631.0,533.0 619.125,528.75 595.875,519.625"/>
    <polyline points="593.125,518.5 573.625,510.75 561.75,505.375 552.125,500.125 545.625,495.5"/>
    <polyline points="544.5,494.625 541.375,491.625 537.875,487.625 535.75,484.375 534.125,481.0 532.875,476.5 532.75,474.375 533.25,471.125 535.125,468.25"/>
    <polyline points="536.125,467.375 538.875,466.125 540.75,465.75 543.0,465.5 548.75,465.75 557.125,467.5 562.625,469.25 576.625,474.625 585.75,478.625 596.5,483.875 609.125,490.625 641.375,509.25 661.5,521.75 684.125,536.625 709.125,553.75 735.75,572.875 762.625,593.125 787.875,613.125 809.25,631.25 824.5,645.375 832.0,653.75"/>
    <polyline points="831.5,655.5 824.0,651.0 811.375,641.125 795.625,627.625 779.0,612.0 763.0,595.625 748.375,579.625 735.625,564.625 725.0,550.875 716.25,538.5 709.375,527.5 703.875,517.875 699.75,509.5 694.0,495.875 689.0,481.875 686.125,476.125 684.5,474.125 682.75,472.625 680.75,471.75 678.375,471.125 673.125,471.375"/>
    <polyline points="670.0,471.875 663.25,473.875 656.0,476.5 614.25,494.375 585.125,505.625"/>
    <polyline points="582.875,506.375 572.75,510.125 561.25,515.0 555.875,518.25 552.875,521.375"/>
    <polyline points="552.5,521.875 551.875,524.375 552.25,525.875 553.25,527.25 555.375,529.0 559.75,530.75 563.625,531.375 566.75,531.5"/>
    <polyline points="568.5,531.5 577.25,530.75 579.875,530.25 585.875,528.875 592.875,526.75 601.0,523.875 610.625,519.875 628.0,511.375 641.625,503.75 664.875,489.125 681.5,477.5 697.75,465.125"/>
    <polyline points="705.25,458.875 717.75,447.625 722.25,442.875 725.5,438.875 727.25,436.125 727.375,434.375 726.0,433.75 723.125,434.375 713.75,438.75 701.0,446.0 663.875,468.75 649.625,477.0 630.375,487.125 619.0,492.375 613.625,494.5"/>
    <polyline points="608.625,496.5 599.25,499.625 590.875,502.0 583.25,503.75 570.125,505.75 559.25,506.375 552.25,506.375 546.25,506.0 537.625,504.875"/>
    <polyline points="536.125,504.625 528.125,502.5 522.625,500.5 516.125,497.0 510.375,492.625"/>
    <polyline points="509.625,492.0 501.5,483.875 485.5,465.5"/>
    <polyline points="484.0,464.0 473.0,452.75 459.625,441.0 448.875,432.5 435.125,422.75 417.875,411.875 404.125,404.125 388.5,396.375 380.25,392.625"/>
    <polyline points="371.625,389.25 363.0,386.25 354.375,383.75 346.0,382.0 338.125,381.25 331.0,381.5 325.0,382.875 320.25,385.75 317.125,389.875 315.5,395.375 315.625,402.25 317.5,410.0 320.75,418.75 325.375,428.0 331.125,437.5 337.625,447.0 344.75,456.375 352.125,465.375 367.25,481.75 381.75,495.375 395.125,506.25 407.25,514.625"/>
    <polyline points="412.75,518.125 422.875,523.5 431.875,527.375 439.75,530.0 446.875,531.875 456.25,533.625 464.25,534.5 486.0,535.5"/>
    <polyline points="487.625,535.625 497.0,536.625 503.75,538.125 509.75,540.25 515.375,542.75"/>
    <polyline points="516.375,543.25 528.125,549.25 536.75,552.375 544.5,553.875 549.375,554.25 555.0,554.125"/>
    <polyline points="558.25,553.875 561.75,553.5 570.0,551.875 580.0,549.25 592.375,544.75 608.0,538.125 617.25,533.625 639.0,521.75 665.875,505.125 681.375,494.75 698.0,482.875 715.625,469.75 733.5,455.5 751.25,440.625 767.875,425.625 782.125,411.625 793.125,399.5 799.75,390.25 801.625,384.625 798.625,383.125"/>
    <polyline points="791.375,385.625 780.875,391.5 768.0,400.0 753.875,410.25 739.375,421.375 725.25,432.75 678.0,472.125 660.625,486.125 640.75,500.375 635.25,503.625 625.875,508.5 617.875,511.5 614.375,512.5 607.875,513.75 599.5,514.125"/>
    <polyline points="597.0,513.875 592.25,513.375 584.0,511.375 575.5,508.125 567.75,503.875 564.0,501.0 561.5,498.25"/>
    <polyline points="561.125,497.5 560.75,496.875 560.5,494.5 561.625,493.125 563.125,492.5 566.75,492.25 572.5,493.125 578.0,494.5 589.125,498.5 599.0,502.875 611.25,509.0"/>
    <polyline points="618.375,512.75 634.625,521.875 653.375,533.25 673.75,546.5 684.125,553.625 694.25,560.75 712.125,574.125 724.75,584.25 729.875,589.375 729.375,589.75 722.875,586.125 711.0,578.125 680.625,556.75 665.375,546.5"/>
    <polyline points="658.25,541.875 645.0,533.75 633.25,527.375 618.0,520.5 609.375,517.5 598.375,514.75 589.125,513.375 583.875,513.125 577.125,513.25 568.25,514.625"/>
    <polyline points="566.75,515.0 560.875,517.0 559.0,517.875 556.25,519.75 554.625,521.75 554.0,523.625 554.25,525.125 555.0,526.5"/>
    <polyline points="555.375,526.875 556.375,527.75 558.5,528.875 562.5,530.0 568.25,530.625 571.875,530.5 578.625,529.625 587.25,527.75 594.125,525.625 602.25,522.625"/>
    <polyline points="606.875,520.875 622.75,513.5 642.125,502.875 664.625,488.625 680.5,477.5 688.5,471.625 696.0,465.625 709.625,454.125 715.125,449.0 719.5,444.5 722.5,440.75 724.125,438.0 724.25,436.375 723.0,435.875 720.375,436.375 711.5,440.25 705.75,443.375"/>
    <polyline points="699.25,447.125 670.625,464.5 649.5,476.75 636.625,483.75 619.25,492.0 609.0,496.125 591.25,501.75 576.875,504.875 567.625,506.0"/>
    <polyline points="564.875,506.25 557.25,506.75 544.75,506.5 539.75,506.0 531.125,504.5 523.375,502.25"/>
    <polyline points="522.375,501.875 517.125,499.375 512.375,496.375 508.125,492.75 503.125,487.75"/>
    <polyline points="502.5,486.875 486.5,468.5 479.125,460.5 473.5,455.0"/>
    <polyline points="471.375,453.0 458.375,441.5 447.875,433.375 439.375,427.25 424.0,417.25 418.125,413.75 405.125,406.5 398.0,402.875 382.75,395.875 366.75,390.0 358.75,387.75 351.0,386.125 343.625,385.25 337.0,385.375"/>
    <polyline points="331.25,386.625 326.75,389.0 323.5,392.625 321.625,397.5 321.375,403.5 322.625,410.375 325.25,418.25 329.25,426.625 334.125,435.25 340.0,444.125 346.375,452.875 353.125,461.375 367.375,477.0 374.375,484.0 387.875,496.0 400.375,505.75 411.75,513.125 421.875,518.75 426.5,521.0 435.125,524.5"/>
    <polyline points="439.0,525.875 446.25,528.0 452.75,529.5 464.0,531.125 494.375,533.125"/>
    <polyline points="495.625,533.375 503.5,534.75 508.25,536.25 514.5,538.875 519.875,541.75"/>
    <polyline points="520.75,542.25 530.125,547.0 535.5,549.0 540.375,550.375 546.375,551.375 551.125,551.625 556.625,551.5 563.25,550.875"/>
    <polyline points="567.0,550.125 575.875,548.125 592.875,542.5 607.625,536.125 626.125,526.875 648.75,513.875 661.875,505.625 676.25,496.25 691.625,485.5 724.5,460.625 741.0,446.875 756.75,433.125 770.625,419.875 781.875,408.125 789.5,398.625 792.875,392.25 792.0,389.375 787.0,390.0 778.5,394.0"/>
    <polyline points="767.5,400.625 754.875,409.375 741.375,419.25 727.875,429.625 680.375,467.625 662.125,481.75 654.25,487.5 640.75,496.5 629.5,502.875 620.0,507.125 611.875,509.75 604.75,511.125 598.5,511.75 590.25,511.5"/>
    <polyline points="587.75,511.125 583.125,510.375 576.875,508.75 566.75,504.625 561.5,501.5 557.375,498.375 555.0,496.0 553.375,493.625"/>
    <polyline points="553.0,492.875 552.375,490.625 552.5,489.25 553.125,488.0 555.125,486.5 557.5,486.0 560.75,485.875 568.125,487.0 579.25,490.5 589.5,494.625 602.75,500.75 610.625,504.875"/>
    <polyline points="619.5,509.625 640.125,521.5 651.875,528.625 691.5,554.75 718.125,574.0 730.0,583.125 747.875,597.75 752.75,602.375 754.625,604.75 753.625,604.75 749.875,602.625 743.875,598.625 736.25,593.0 718.0,579.125 681.125,550.25 665.375,538.375"/>
    <polyline points="658.375,533.5 646.125,525.25 635.75,519.25 627.0,514.875 623.125,513.25 616.25,511.0 613.125,510.125 607.625,509.125 602.875,508.625 598.75,508.625 592.0,509.5 588.125,510.5 586.125,511.375"/>
    <polyline points="585.125,511.75 581.625,514.125 581.0,515.625 581.75,516.75 583.25,517.375 585.625,517.625 591.875,517.0"/>
    <polyline points="593.5,516.625 599.125,515.25 608.875,511.875 617.875,508.0 628.25,502.875 640.0,496.25 652.375,488.625 664.5,480.25 674.75,472.125"/>
    <polyline points="677.5,469.75 682.875,464.125 683.625,462.875 683.75,462.0 683.25,461.625 682.25,461.5 678.5,462.5 676.0,463.5 669.625,466.375 632.625,485.0 616.375,492.375"/>
    <polyline points="612.625,494.0 592.5,502.0 563.125,512.0 554.75,515.125"/>
    <polyline points="553.625,515.625 549.875,517.5 547.0,519.375 545.125,521.25 543.875,523.25 543.5,524.625 544.0,527.625"/>
    <polyline points="544.25,528.0 546.375,530.5 548.25,531.875 549.75,532.75 553.875,534.25 558.0,535.0 563.0,535.375 569.5,535.125 574.75,534.375"/>
    <polyline points="577.75,533.75 584.5,532.25 592.375,529.75 601.875,526.25 612.875,521.5 633.125,511.125 658.125,496.25 676.75,483.625 686.5,476.625 705.625,461.875 722.375,447.5 729.125,441.0 734.5,435.375 738.0,430.875 739.75,427.625"/>
    <polyline points="739.375,426.0 737.25,425.75 733.375,427.0 727.875,429.625 721.375,433.25 713.875,437.625 680.25,459.25 656.125,474.375 635.0,486.125 622.75,492.125 611.75,496.625 602.0,500.0 593.25,502.375 585.375,504.0"/>
    <polyline points="581.75,504.5 578.25,505.0 568.75,505.625 560.625,505.625 551.25,504.75 539.875,502.375 533.625,500.375 528.25,498.0"/>
    <polyline points="526.875,497.25 519.875,493.0 512.5,486.875 505.25,479.375 499.5,472.75"/>
    <polyline points="498.25,471.375 483.875,455.25 474.25,445.75 464.875,437.25 452.625,427.125 442.25,419.375 429.625,410.625 414.375,400.875"/>
    <polyline points="405.75,395.625 396.25,390.25 385.875,384.875 374.875,379.375 363.125,374.125 351.0,369.25 338.625,365.125 326.5,361.875 314.875,359.875 304.375,359.75 295.625,361.625 289.0,365.75 285.0,372.25 283.875,381.0 285.5,391.875 289.75,404.25 296.25,417.75 304.375,431.625 313.75,445.625 323.75,459.125 334.0,471.875 344.125,483.625 353.875,494.25 363.125,503.75 379.75,519.25"/>
    <polyline points="387.25,525.375 400.375,534.875 406.125,538.5 416.375,544.0 425.25,547.5 436.375,550.25 445.75,551.25 453.875,551.25 472.75,550.0"/>
    <polyline points="474.5,550.0 484.0,550.0 488.125,550.375 493.25,551.375 500.125,553.625 506.5,556.75"/>
    <polyline points="507.5,557.375 520.125,565.375 526.0,568.5 529.5,569.875 535.875,571.75 541.0,572.5 547.25,572.875 550.875,572.625"/>
    <polyline points="555.0,572.25 559.625,571.625 564.875,570.5 577.75,566.875 594.625,560.25 617.125,549.5 631.25,541.75 647.625,532.125 666.5,520.25 688.125,505.75 712.5,488.375 739.375,467.875 767.875,444.75 796.75,419.5 823.625,394.0 845.625,370.5 860.0,351.75 864.875,340.25 859.875,337.25 846.5,342.75 827.375,355.0 805.5,372.0 783.25,391.125"/>
    <polyline points="762.5,410.75 744.0,429.75 728.375,447.125 715.375,462.625 704.875,476.25 696.5,488.125 689.875,498.25 684.625,506.875 672.5,529.625 668.5,535.75 666.625,537.875 662.625,540.5 660.375,541.125 658.0,541.375 655.375,541.25 649.625,540.25 643.375,538.375 636.625,535.875"/>
    <polyline points="633.125,534.625 605.125,523.5 559.25,506.5"/>
    <polyline points="557.25,505.625 546.375,500.75 538.875,496.375 531.25,490.625 526.75,486.25 522.625,481.625"/>
    <polyline points="521.625,480.25 513.75,468.875 499.0,444.625 493.25,436.25 488.25,429.875"/>
    <polyline points="485.375,426.25 473.875,413.625 462.875,403.125 447.625,390.125 437.875,382.375 426.125,373.625 412.125,363.75 395.375,352.5 375.375,339.875 351.75,325.875 324.125,310.875 292.875,295.375 258.625,280.75 223.375,269.25 190.75,263.75 165.125,267.25 150.5,282.25 149.5,309.0 161.5,345.125 182.875,386.5 209.0,429.0 235.75,469.125"/>
    <polyline points="260.0,505.0 280.375,535.625 296.375,561.125 308.25,581.875 316.5,598.375 321.875,611.25 325.125,620.875 326.75,627.625 327.75,633.625 328.125,633.375 330.125,627.75 334.875,616.75 338.5,609.875 342.75,602.375 352.875,586.625 358.5,578.875 370.375,563.875 382.125,550.75 393.375,539.5"/>
    <polyline points="398.75,534.625 413.375,523.0 421.875,517.25 433.125,511.0 442.625,506.875 450.625,504.125 459.5,501.875 471.125,499.75"/>
    <polyline points="472.375,499.5 479.0,498.25 484.25,496.625 487.375,494.625 488.5,492.875"/>
    <polyline points="488.625,492.375 489.0,491.125 489.0,489.75 488.25,486.5 486.125,481.75 482.875,476.75"/>
    <polyline points="482.25,475.75 476.375,468.25 467.375,458.75 455.875,448.5 442.375,438.375"/>
    <polyline points="439.125,436.125 432.125,431.5 420.0,424.375 411.0,419.625 401.25,415.125 386.125,409.625 381.125,408.25 371.625,406.625 367.25,406.5 363.375,406.875 360.0,407.875 357.25,409.5 355.125,411.625 353.75,414.375 353.25,417.625 353.375,421.5 354.375,425.875 356.0,430.625"/>
    <polyline points="358.375,435.625 364.75,446.125 373.0,456.75 377.5,461.875 386.875,471.5 401.375,483.875 410.625,490.625 419.375,496.25 431.5,502.625 442.125,507.0 451.375,510.0 457.0,511.5"/>
    <polyline points="459.5,512.0 466.625,513.375 474.625,514.375 482.75,515.0 497.0,515.5"/>
    <polyline points="497.75,515.625 503.625,515.875 508.0,516.5 510.0,517.125"/>
    <polyline points="510.25,517.125 513.375,518.625 516.375,521.0"/>
    <line x1="516.5" x2="523.75" y1="521.25" y2="528.875"/>
    <polyline points="524.125,529.25 529.0,533.75 533.875,537.125 538.5,539.625 542.0,541.0"/>
    <polyline points="543.375,541.375 546.25,542.25 553.25,543.25 562.75,543.125 568.75,542.375 576.0,541.0 584.625,538.625 600.875,532.625 614.625,526.375 631.25,517.875 650.875,506.375"/>
    <polyline points="661.875,499.375 686.125,483.0 698.875,473.625 724.375,453.375 736.25,443.125 746.75,433.375 755.375,424.625 761.625,417.375 765.125,412.0 765.625,408.875 763.25,408.25 758.125,409.75 751.0,413.375 742.125,418.75 732.0,425.25 721.375,432.625 679.5,462.5 661.375,475.0 645.625,484.875"/>
    <polyline points="638.625,489.0 626.0,495.5 615.0,500.25 601.125,504.5 593.125,506.0 589.5,506.5 582.75,506.875 573.75,506.625 568.5,506.0 561.5,504.625 551.625,501.375"/>
    <polyline points="549.875,500.625 545.0,498.375 540.625,495.875 536.625,493.125 531.875,489.125 525.75,482.25 520.375,474.375"/>
    <polyline points="519.5,473.0 513.75,461.875 503.875,438.875 498.875,428.0 493.625,418.375"/>
    <polyline points="491.375,414.75 486.0,406.625 478.375,397.0 467.25,385.0 459.75,377.75 450.375,369.375 438.625,359.5 423.875,347.875 404.875,334.0 380.875,317.375 350.25,297.75 311.75,274.75 264.5,249.0 209.375,222.875 150.375,201.125 96.125,191.5 59.25,203.0 50.375,240.625 70.375,300.625 110.0,372.125 196.0,507.5 226.75,561.125"/>
    <polyline points="246.25,604.625 255.75,639.0 257.0,665.375 252.75,684.5 245.25,696.75 237.0,702.125 230.25,700.5 226.625,692.375 227.25,678.375 232.0,659.75 240.375,638.125 251.5,614.875 263.875,591.625 276.875,569.375 300.875,530.75 320.375,501.125 334.875,480.375 345.5,466.75 349.875,462.125 353.625,458.75 357.125,456.375 360.375,455.0"/>
    <polyline points="363.375,454.375 366.5,454.375 369.5,455.0 375.75,457.375 382.25,461.0 406.625,476.375 416.875,482.25 429.625,488.5 443.625,493.875"/>
    <polyline points="446.125,494.625 455.25,497.125 464.75,498.875 473.625,499.625 478.25,499.625 483.625,499.0"/>
    <polyline points="484.375,498.875 486.875,498.125 489.75,496.375 490.75,495.125 491.375,493.25 491.25,491.0"/>
    <polyline points="491.125,490.5 490.625,488.375 489.0,484.5 483.875,476.375 479.75,471.125"/>
    <polyline points="478.875,470.0 470.375,460.75 463.625,454.25 452.375,444.875 440.5,436.125 429.5,429.0 421.0,424.0"/>
    <polyline points="416.5,421.5 401.75,414.25 391.125,410.0 380.5,406.75 375.375,405.625 365.75,404.5 361.625,404.875 357.875,405.75 354.875,407.25 352.625,409.375 351.0,412.25 350.25,415.625 350.375,419.625 351.375,424.125 353.0,429.125 358.5,439.875 362.125,445.5 366.25,451.125 375.375,462.0"/>
    <polyline points="380.375,467.25 390.375,476.75 400.25,485.125 409.875,492.125 423.25,500.25 435.0,506.0 445.375,510.0 457.25,513.25 464.75,514.75 471.25,515.625"/>
    <polyline points="473.25,515.875 481.875,516.625 502.25,517.75"/>
    <polyline points="502.875,517.875 505.25,518.125 509.5,519.125 513.75,521.125"/>
    <polyline points="514.0,521.375 517.5,523.875 522.375,528.5"/>
    <polyline points="522.75,528.875 527.0,532.75 531.375,536.125 535.5,538.625 539.625,540.5"/>
    <polyline points="540.75,541.0 546.375,542.625 553.625,543.625 563.375,543.375 573.125,541.875 577.0,541.0 591.0,536.75 602.75,532.125 617.0,525.5 634.125,516.5"/>
    <polyline points="643.875,510.75 665.875,497.125 690.625,479.875 703.625,470.25 716.625,460.0 729.125,449.625 740.75,439.375 750.875,429.75 758.75,421.375 764.125,414.625 766.625,410.0 766.125,407.75 762.625,407.875 756.75,410.25 748.75,414.625 739.25,420.5 728.875,427.375 686.125,458.0 658.625,477.0"/>
    <polyline points="650.625,482.125 636.375,490.5 624.125,496.625 613.375,501.0 604.0,504.0 599.75,505.0 588.5,506.75 575.875,506.875 565.625,505.5 559.0,503.875 555.0,502.5"/>
    <polyline points="553.125,501.875 543.375,497.25 539.25,494.625 535.5,491.75 531.0,487.625 528.0,484.25 522.625,476.625"/>
    <polyline points="521.875,475.25 517.875,468.0 512.875,456.0 509.0,444.0 504.75,427.625"/>
    <polyline points="504.25,425.0 502.375,411.75 502.375,406.25 502.75,403.625 503.25,401.125 504.25,398.75 505.75,396.625 507.875,394.875 510.875,393.5 515.25,393.0 521.375,393.5 529.875,395.625 541.875,400.0 558.75,407.5 582.375,419.875 615.75,439.125 662.125,468.25 726.0,511.5 810.125,572.625 911.625,652.5 1014.125,741.625"/>
    <polyline points="1024.0,792.4725 994.375,765.375 939.375,694.625 906.25,623.625 897.0,556.0 907.75,491.375 931.625,429.75 959.375,373.125 980.375,326.875 986.125,297.625 973.125,289.25 945.0,300.75 909.5,326.5 874.0,359.875 843.375,395.25 819.875,429.375 803.5,460.625 793.375,488.25 788.125,512.375 786.0,533.0 785.625,564.25 785.125,574.75 783.125,582.0"/>
    <polyline points="779.375,586.125 773.75,587.25 766.375,585.875 757.625,582.5 748.0,577.5 737.875,571.625 727.5,565.125 673.75,529.375 660.25,521.5 648.625,515.5 638.75,511.375 630.125,508.625 626.25,507.625 619.125,506.375 612.875,505.875"/>
    <polyline points="610.0,505.875 604.75,506.0 600.0,506.5 590.375,508.5 585.875,510.0 580.25,512.5 577.25,514.5 575.625,516.375"/>
    <polyline points="575.375,516.75 575.375,518.25 575.875,519.0 577.25,519.75 580.5,520.375 582.75,520.375 587.125,520.0 592.625,518.875 602.375,516.0"/>
    <polyline points="605.25,514.875 615.0,510.875 626.625,505.25 644.625,495.125 654.375,489.0 664.125,482.375 681.375,469.125 687.5,463.5 691.375,459.25 692.25,457.75 692.25,456.75 691.75,456.25"/>
    <polyline points="690.375,456.25 685.75,457.75 679.0,460.875 641.75,480.25 618.625,491.25 602.625,497.875 588.875,502.625"/>
    <polyline points="585.75,503.625 572.25,507.75 549.0,514.0 541.875,516.625"/>
    <polyline points="541.0,517.0 537.75,518.75 534.875,521.375 533.75,524.125 534.125,526.75"/>
    <polyline points="534.25,527.25 534.875,528.625 536.625,531.0 538.75,533.0 542.25,535.375 545.125,536.75 551.5,538.5"/>
    <polyline points="553.0,538.75 556.5,539.25 560.5,539.375 567.875,538.875 573.875,538.0 581.0,536.375 589.5,533.75 605.25,527.75 618.5,521.625 634.0,513.375 642.75,508.375 662.25,496.25 683.75,481.5"/>
    <polyline points="695.0,473.375 717.0,455.875 727.125,447.25 736.0,439.0 743.375,431.625 748.75,425.5 751.875,420.875 752.625,418.0 750.875,417.125 747.0,418.0 741.25,420.625 733.875,424.75 725.375,429.875 716.25,435.875 678.25,461.625 653.0,478.0 638.375,486.375 625.625,492.875"/>
    <polyline points="619.75,495.375 609.25,499.5 599.875,502.375 591.5,504.25 580.5,505.625 571.125,505.875 560.625,505.0 555.875,504.25 549.625,502.75 542.375,500.375"/>
    <polyline points="540.75,499.625 533.25,496.0 525.5,490.75 517.5,483.375 509.625,474.25"/>
    <polyline points="508.5,472.75 494.0,454.25 482.5,441.375 476.25,435.0 464.125,423.75 453.375,414.75 446.875,409.625 431.25,398.125"/>
    <polyline points="421.75,391.5 398.875,376.875 385.25,368.875 369.875,360.375 353.0,351.625 334.625,343.125 315.125,335.25 295.375,328.625 276.125,324.25 258.75,323.125 244.75,326.0 235.25,333.625 231.5,346.125 233.375,363.25 240.5,383.625 251.75,406.25 265.75,429.5 281.125,452.375 296.75,473.625 311.625,493.0 325.25,510.0 337.5,524.625 348.25,537.125 365.75,556.0"/>
    <polyline points="372.625,562.875 383.75,572.625 392.375,578.125 395.875,579.625 399.25,580.625 405.125,581.0 410.5,579.875 415.625,577.875 420.625,575.25 440.0,563.75 446.875,560.125"/>
    <polyline points="449.125,559.125 459.75,554.625 465.5,552.75 472.625,551.125 480.625,550.25 487.625,550.375 491.5,551.0"/>
    <polyline points="492.75,551.25 495.125,551.75 502.875,554.625 509.25,558.125 520.875,565.5"/>
    <polyline points="522.375,566.25 528.75,569.25 532.625,570.625 539.625,572.125 545.625,572.5 549.125,572.5 557.25,571.75 562.25,570.875 574.125,567.75 589.75,562.125 599.375,557.875 610.625,552.5 623.5,545.75 638.625,537.25 656.0,526.75 676.0,513.75"/>
    <polyline points="698.875,498.0 724.25,479.25 751.875,457.625 780.625,433.5 808.625,408.125 833.5,383.375 852.25,361.875 862.375,346.25 862.75,338.625 853.875,339.5 837.625,348.125 817.125,362.625 795.0,380.625 773.375,400.125 753.625,419.375 736.5,437.625 722.0,454.125 710.125,468.75 700.5,481.5 692.875,492.5 686.875,501.875 678.375,516.5 670.625,530.625"/>
    <polyline points="668.625,533.75 666.75,536.25 664.875,538.0 662.875,539.375 660.75,540.25 658.375,540.75 656.0,540.75 650.5,540.125 641.25,537.5 634.5,535.125 594.0,519.25"/>
    <polyline points="591.0,518.125 567.25,509.5 558.75,506.125 546.25,500.25 538.875,495.75"/>
    <polyline points="537.625,494.875 530.375,488.875 525.0,483.25 519.25,475.375 511.75,462.75"/>
    <polyline points="510.875,460.875 501.375,443.75 494.375,432.625 486.875,422.375 475.5,409.375 464.5,398.375 448.75,384.625 438.375,376.25 425.875,366.75 410.625,355.875"/>
    <polyline points="392.0,343.25 369.5,328.875 342.25,312.75 310.125,295.125 273.25,277.0 232.75,260.125 192.0,247.75 155.875,244.125 130.5,253.125 121.125,277.375 129.0,315.25 150.875,362.25 180.625,412.375 240.5,503.625 263.75,540.375 281.375,570.75 293.375,595.375 300.75,614.75 304.5,629.625 305.625,640.375 305.0,647.5 303.625,651.25 302.25,652.0 301.5,649.875 301.75,645.25"/>
    <polyline points="303.375,638.375 306.375,629.75 310.75,619.75 316.125,609.0 322.625,597.75 329.625,586.5 344.625,564.875 352.25,555.125 366.625,537.875 373.375,530.625 385.75,518.375 391.25,513.375 401.25,505.375 405.75,502.125 417.5,495.25 427.125,491.25 432.625,489.625"/>
    <polyline points="435.25,489.0 446.0,487.375 462.75,486.125 466.25,485.5 468.875,484.5"/>
    <polyline points="469.375,484.25 470.75,483.375 471.75,482.25 472.5,479.875 472.5,478.75 471.5,475.0 468.75,470.25"/>
    <polyline points="468.25,469.375 461.125,461.125 453.0,453.625 443.625,446.25 439.125,443.125 428.875,436.75"/>
    <polyline points="426.0,435.125 413.875,429.0 407.375,426.375 400.875,424.25 397.75,423.375 391.625,422.375 388.875,422.125 383.875,422.5 381.875,423.125 378.625,425.375 377.625,426.875 377.0,428.75 377.0,433.375 377.625,436.0 380.0,441.75 381.75,444.875"/>
    <polyline points="383.875,448.125 386.125,451.375 391.5,457.875 400.75,467.125 410.625,475.375 417.25,480.125 426.875,486.0 435.75,490.5 444.0,494.0 455.75,497.625"/>
    <polyline points="457.875,498.125 467.0,499.875 475.625,500.625 483.625,500.25 487.75,499.25"/>
    <polyline points="488.25,499.125 491.125,497.375 492.25,495.875 492.75,493.125 492.125,490.25"/>
    <polyline points="492.0,489.75 490.25,485.5 487.625,481.0 483.125,474.625 478.5,469.0"/>
    <polyline points="477.375,467.75 471.0,460.875 462.25,452.625 455.5,446.875 450.125,442.75 440.875,436.0 433.75,431.25 421.25,423.625 411.75,418.5"/>
    <polyline points="406.75,416.0 396.125,411.375 385.25,407.375 374.5,404.625 369.375,403.875 364.625,403.5 360.375,403.75 356.5,404.75 353.375,406.25 351.0,408.5 349.5,411.375 348.75,414.875 348.875,419.0 349.875,423.75 351.625,428.75 354.25,434.25 357.375,439.875 361.125,445.625 370.0,457.125 374.75,462.625 384.875,473.0"/>
    <polyline points="390.0,477.625 400.25,486.125 409.875,493.125 419.0,498.875 427.5,503.5 435.25,507.125 442.375,509.875 451.875,512.875 462.75,515.25 475.5,517.0"/>
    <polyline points="477.25,517.125 496.625,518.25 504.125,519.0"/>
    <polyline points="504.75,519.125 510.25,520.5 513.0,521.75 515.5,523.375"/>
    <line x1="515.875" x2="526.125" y1="523.625" y2="532.375"/>
    <polyline points="526.625,532.875 533.375,537.75 538.25,540.25 541.75,541.625 546.0,542.75 553.25,543.75"/>
    <polyline points="555.375,543.875 563.0,543.625 569.25,542.75 576.625,541.25 585.5,538.75 596.125,534.875 609.0,529.375 624.75,521.75 633.625,516.875 643.5,511.25 665.5,497.5 690.25,480.25 703.375,470.625 716.5,460.25 740.875,439.5"/>
    <polyline points="751.125,429.75 759.25,421.25 764.75,414.375 767.25,409.625 766.75,407.25 763.5,407.375 757.5,409.75 749.5,414.0 740.0,420.0 718.625,434.625 676.75,464.75 658.875,477.0 643.5,486.625 636.625,490.5 624.375,496.75 613.625,501.125 604.25,504.0"/>
    <polyline points="600.0,505.125 592.25,506.375 582.125,507.125 576.25,506.875 568.375,506.0 561.375,504.5 551.75,501.25 545.25,498.125 541.0,495.5"/>
    <polyline points="539.625,494.625 535.875,491.75 532.5,488.625 528.5,484.25 525.75,480.625 520.125,471.125 516.75,463.25"/>
    <polyline points="516.125,461.625 514.25,456.375 511.75,446.875 511.0,442.875 510.375,434.625 511.125,428.5 512.875,424.875 514.25,423.25 516.125,421.875 518.625,420.875 521.875,420.25 526.25,420.25 531.875,421.125"/>
    <polyline points="539.375,423.0 549.25,426.5 562.125,432.0 579.25,440.375 601.625,452.5 631.0,469.875 669.375,494.125 718.125,527.125 778.0,570.25 846.5,623.0 915.75,680.75 971.75,733.125 999.875,766.5 994.375,771.625 963.375,750.125 922.125,711.25 883.75,665.25 855.125,618.625 838.5,574.5 832.875,533.5 836.25,495.5 845.5,460.375 857.375,428.625 868.25,401.375 875.0,380.125 875.375,366.5"/>
    <polyline points="868.75,361.125 855.625,363.625 837.875,372.625 817.625,386.375 797.0,402.625 777.375,419.875 759.625,436.75 744.0,452.625 730.75,467.0 719.625,479.75 710.25,490.75 690.375,515.0 681.125,525.0 677.125,528.5 673.375,531.25 669.625,533.375 666.125,534.875 662.5,535.75 655.25,536.375 647.875,535.625 644.125,534.875"/>
    <polyline points="640.25,534.0 628.75,530.75 617.5,527.0 561.5,507.625"/>
    <polyline points="559.375,506.75 546.25,501.125 540.0,497.75 535.875,495.125 530.75,491.25 526.125,487.125 522.875,483.625"/>
    <polyline points="521.875,482.5 515.625,474.5 499.75,450.625 494.25,443.0 487.0,433.875"/>
    <polyline points="484.0,430.5 472.625,418.5 462.0,408.75 447.75,396.75 428.25,381.875 415.875,373.125 384.25,352.625 364.25,340.875 341.375,328.25 315.5,315.25 287.125,302.625 257.5,291.875 228.625,284.875 203.375,283.625 185.0,290.5 176.125,306.375 177.875,331.0 189.125,362.25 207.5,397.125 229.625,432.75"/>
    <polyline points="252.25,466.375 307.625,545.5 320.0,563.875 336.75,590.625 348.5,611.25 350.5,614.25 352.25,615.625 353.75,615.75 355.375,614.625 359.25,609.5 367.75,596.75 379.25,581.625 388.0,571.5 397.0,562.0"/>
    <polyline points="401.5,557.625 405.875,553.5 418.75,542.875 430.5,534.75 437.625,530.5 447.375,525.625 458.375,521.25 467.625,518.5 477.0,516.375"/>
    <polyline points="478.625,516.125 490.375,514.625 502.375,514.125"/>
    <polyline points="502.875,514.125 508.625,514.5 512.625,515.875 516.0,519.0 518.75,522.5"/>
    <polyline points="519.0,522.75 522.375,526.875 527.25,531.75"/>
    <polyline points="527.75,532.25 534.125,537.0 539.875,540.0 548.0,542.375 553.5,543.125"/>
    <polyline points="555.625,543.125 563.0,543.0 572.5,541.5 580.375,539.625 589.875,536.75 601.25,532.375 607.75,529.5 615.0,526.125 631.5,517.5 641.0,512.125 662.25,499.125 686.25,482.75 699.0,473.375 711.75,463.5 724.375,453.25 736.125,443.125"/>
    <polyline points="746.5,433.375 755.0,424.75 761.25,417.5 764.625,412.25 765.0,409.25 762.625,408.625 757.625,410.25 750.375,413.875 741.5,419.125 721.0,432.875 670.0,469.125 653.125,480.25 638.5,489.0 625.875,495.5 620.125,498.0 614.875,500.125 605.25,503.25"/>
    <polyline points="600.875,504.375 592.875,505.875 585.75,506.625 579.375,506.875 570.875,506.25 561.25,504.5 553.125,502.125 544.625,498.375 540.25,495.875"/>
    <polyline points="538.875,495.0 531.625,489.125 529.375,487.0 525.375,482.375 519.875,474.5 513.875,463.5"/>
    <polyline points="513.0,461.75 500.5,435.5 495.625,426.75 488.625,416.125 482.125,407.625 473.0,397.25 459.875,384.375 451.0,376.5"/>
    <polyline points="440.125,367.375 426.5,356.875 409.5,344.375 388.25,329.75 361.75,312.625 328.875,292.875 289.125,270.75 242.5,248.0 191.5,227.375 141.5,214.25 101.125,215.5 80.0,236.75 83.125,278.75 107.75,335.875 144.625,398.875 218.25,513.625 244.625,558.875 262.25,595.625 272.125,624.875 275.625,647.375 274.375,664.0 270.375,675.0 265.375,680.875 260.625,681.625 257.5,677.375"/>
    <polyline points="257.0,668.75 259.25,656.375 264.25,641.25 271.625,624.125 280.75,606.25 290.875,588.375 301.5,571.25 311.875,555.25 331.25,527.75 339.75,516.5 354.375,498.375 366.0,485.75 375.375,477.375 383.125,472.125 389.75,469.375 395.75,468.25 401.25,468.375 403.875,468.75"/>
    <polyline points="406.375,469.375 411.5,470.75 429.875,477.875 441.875,482.125 451.75,484.75 456.0,485.5"/>
    <polyline points="457.25,485.625 463.875,486.0 469.125,485.125 471.25,484.0 472.25,483.0 473.125,480.75"/>
    <polyline points="473.25,480.25 472.75,476.75 472.25,475.375 469.625,470.75 465.125,464.875 459.625,459.25"/>
    <polyline points="458.25,458.0 452.125,452.5 442.375,445.0 429.75,436.875 424.0,433.625 411.25,427.5 401.25,423.875 394.75,422.25"/>
    <polyline points="391.75,421.75 386.0,421.375 383.5,421.75 381.375,422.25 379.5,423.125 377.875,424.375 376.75,425.875 376.0,427.75 375.75,429.875 376.375,434.875 377.375,437.75 378.625,440.75 382.375,447.25 387.375,454.0 390.25,457.25 393.25,460.625 402.875,469.875 413.0,477.875"/>
    <polyline points="416.375,480.125 423.0,484.375 429.375,488.0 435.375,491.0 443.625,494.5 451.125,497.0 459.75,499.25 468.75,500.75 474.5,501.25"/>
    <polyline points="475.875,501.25 481.375,501.25 487.0,500.5 491.125,498.875 492.5,497.5"/>
    <polyline points="492.75,497.25 493.625,494.75 493.5,492.625 492.375,489.0 490.5,485.25"/>
    <polyline points="490.125,484.5 486.0,478.0 479.375,469.5 474.75,464.375 467.125,456.75"/>
    <polyline points="465.25,455.125 456.75,447.625 442.5,436.75 431.5,429.5 418.5,421.75 403.375,414.125 387.0,407.5 376.0,404.375 370.625,403.375 365.75,402.875"/>
    <polyline points="361.125,403.0 357.0,403.625 353.625,404.875 350.875,406.875 349.0,409.625 347.875,413.0 347.75,417.0 348.375,421.5 350.0,426.625 352.25,432.0 359.0,443.5 367.625,455.25 372.5,460.875 382.625,471.625 387.875,476.5 398.25,485.25 408.125,492.625 417.375,498.625 426.125,503.375"/>
    <polyline points="430.125,505.375 437.75,508.75 444.625,511.25 456.75,514.625 466.75,516.5 475.0,517.5 488.875,518.375"/>
    <polyline points="490.125,518.5 502.25,519.375 505.5,519.875 509.125,520.875"/>
    <polyline points="509.625,521.0 513.125,522.5 517.0,525.0 519.625,527.25"/>
    <polyline points="520.0,527.5 527.875,534.25 534.625,538.625"/>
    <polyline points="535.5,539.125 539.75,541.125 546.75,543.125 554.25,544.0 561.625,543.875 571.0,542.625 578.875,540.75 588.125,538.0 599.5,533.75"/>
    <polyline points="606.0,530.875 621.0,523.75 629.75,519.125 649.5,507.75 672.5,492.875 685.0,484.25 698.0,474.75 711.25,464.625 724.25,454.125 736.5,443.625 747.5,433.5 756.5,424.375 763.25,416.625 767.125,411.0 767.875,407.625 765.625,406.625 760.625,408.125 753.375,411.75 744.375,417.125 734.25,423.75 701.375,447.0"/>
    <polyline points="690.875,454.75 662.5,474.75 646.5,484.875 639.5,489.125 626.75,495.75 615.75,500.5 610.875,502.25 601.875,504.75 590.25,506.75 583.625,507.125 577.5,507.0 572.125,506.5 564.75,505.25"/>
    <polyline points="562.5,504.75 552.625,501.5 547.625,499.25 541.75,495.875 537.875,493.125 534.375,490.125 527.375,482.25"/>
    <polyline points="526.5,481.125 524.0,477.25 520.25,470.25 516.5,460.75 515.0,455.5 513.875,450.125 513.375,446.375 513.125,440.625"/>
    <polyline points="513.375,438.75 514.25,435.125 515.0,433.5 517.5,430.5 519.5,429.375 522.0,428.5 525.25,428.0 529.375,428.125 534.875,428.875 541.875,430.625 550.875,433.75 562.5,438.625 577.5,445.75 597.0,456.0 622.125,470.5 654.25,490.25 694.75,516.875 744.375,551.625 802.125,594.5 863.625,643.5 920.0,692.5 959.5,731.75 972.875,751.375 959.875,747.5"/>
    <polyline points="929.375,723.625 893.125,687.875 860.25,647.5 835.375,607.5 820.0,569.625 813.375,534.875 813.75,502.875 819.25,473.5 827.25,447.0 835.375,423.875 841.625,404.875 844.0,391.125 841.375,383.125 834.0,381.0 822.125,384.25 807.25,391.875 790.75,402.625 773.625,415.125 757.0,428.375 741.5,441.375 727.375,453.75 677.625,498.625"/>
    <polyline points="670.875,504.125 659.5,512.5 654.625,515.625 650.0,518.125 645.875,520.0 638.125,522.5 631.0,523.625 624.375,523.75 618.125,523.25 612.125,522.25 598.375,518.625 586.125,514.5"/>
    <polyline points="583.875,513.625 570.125,507.75 562.125,503.5 558.125,501.0 554.625,498.375 550.875,494.875 548.75,492.25"/>
    <polyline points="548.125,491.375 546.625,487.875 546.375,486.25 546.875,483.875 547.875,482.625 549.625,481.5 552.125,480.75 553.75,480.625 560.625,481.125 567.375,482.75 576.5,485.75 588.375,490.625"/>
    <polyline points="595.75,494.0 604.125,498.125 624.5,509.125 650.0,524.25 680.375,544.0 696.875,555.25 713.75,567.125 745.0,590.75 757.75,601.125 767.375,609.5 773.25,615.125 775.0,617.75 773.0,617.25 767.625,613.875 749.625,600.25 727.625,582.0 687.25,546.875"/>
    <polyline points="679.125,539.75 659.375,523.125 645.125,512.625 637.875,508.125 629.125,504.0 622.375,502.125 615.25,501.625 612.25,501.875 606.375,503.25"/>
    <polyline points="605.375,503.625 601.625,505.375 599.75,506.625 599.0,507.875 599.25,508.25 600.5,508.625 603.875,508.25"/>
    <polyline points="604.75,508.0 609.25,506.75 615.125,504.625 626.125,499.5 630.25,497.375 640.75,491.125 648.5,485.875"/>
    <polyline points="650.125,484.625 655.25,480.375 656.875,478.25 656.75,477.5 654.875,477.5 649.375,479.375 629.5,488.375"/>
    <polyline points="627.0,489.5 594.625,504.375 585.875,508.75 581.625,511.25"/>
    <polyline points="580.75,511.875 578.625,513.5 576.875,515.5 576.375,516.875 576.625,518.0 577.625,518.875 578.75,519.375 581.125,519.75 586.0,519.625"/>
    <polyline points="587.5,519.375 597.125,517.25 607.75,513.625 617.75,509.25 629.375,503.5 642.625,496.0 652.0,490.125 666.0,480.5 674.625,474.0"/>
    <polyline points="678.5,471.0 684.875,465.375 689.0,461.0 690.125,459.375 690.5,458.25 690.25,457.5 687.625,457.625 685.375,458.375 675.5,462.75 643.625,479.375 629.625,486.25 620.75,490.25"/>
    <polyline points="616.5,492.125 601.0,498.5 590.875,502.125 571.75,508.125 552.0,513.75"/>
    <polyline points="550.75,514.125 542.625,517.25 539.375,519.25 536.625,522.0 535.875,524.125"/>
    <polyline points="535.875,524.625 535.875,525.875 536.375,527.75 537.125,529.25 538.25,530.625 541.625,533.625 546.875,536.25"/>
    <polyline points="548.0,536.625 553.375,538.0 560.625,538.625 570.5,537.875 580.375,535.875 584.25,534.75 593.125,531.875 603.625,527.875 609.625,525.25 631.125,514.5 639.5,509.75"/>
    <polyline points="648.5,504.375 668.125,491.875 689.625,476.75 711.25,460.0 721.375,451.5 730.5,443.375 738.375,435.875 744.375,429.375 748.375,424.125 750.125,420.625 749.5,419.0 746.625,419.0 741.875,420.875 735.375,424.125 727.625,428.625 709.75,440.125 672.875,465.0 656.25,475.625"/>
  </g>
</svg>
