<?xml version="1.0" encoding="utf-8" ?>
<svg xmlns="http://www.w3.org/2000/svg" xmlns:cc="http://creativecommons.org/ns" xmlns:dc="http://purl.org/dc/elements/1.1/" xmlns:ev="http://www.w3.org/2001/xml-events" xmlns:inkscape="http://www.inkscape.org/namespaces/inkscape" xmlns:rdf="http://www.w3.org/1999/02/22-rdf-syntax-ns" xmlns:sodipodi="http://sodipodi.sourceforge.net/DTD/sodipodi-0.dtd" xmlns:xlink="http://www.w3.org/1999/xlink" baseProfile="tiny" height="27.09333333cm" version="1.2" viewBox="0 0 1024.0 1024.0" width="27.09333333cm">
  <metadata>
    <rdf:RDF>
      <cc:Work>
        <dc:format>image/svg+xml</dc:format>
        <dc:source>vpype read './original_svgs/Strange Attractors #105.svg' linemerge linesimplify write './Strange Attractors #105.svg'
</dc:source>
        <dc:date>2024-08-05T01:35:26.129924</dc:date>
      </cc:Work>
    </rdf:RDF>
  </metadata>
  <defs/>
  <g fill="none" id="layer1" inkscape:groupmode="layer" inkscape:label="1" stroke="black" stroke-width="0.7mm" style="display:inline">
    <polyline points="316.75,776.5 371.0,713.5 414.625,658.0 447.125,611.125 469.5,572.5 483.625,540.375 490.5,513.25 491.125,489.375 486.375,467.5 476.375,446.625 461.375,426.0 441.5,405.125 417.0,384.0 388.5,363.375 357.375,344.25 325.375,328.5 295.25,318.25 269.75,315.5 251.25,321.25 240.625,335.0 237.75,355.25 240.875,379.75 248.25,405.875 257.875,431.75 268.375,456.125 278.625,478.125"/>
    <polyline points="288.125,497.5 304.125,528.25 310.625,540.125 321.125,558.125 329.375,569.875 333.0,573.875 336.375,576.875 339.75,579.0 343.0,580.5 346.25,581.25 352.875,581.125 356.25,580.375 363.125,578.0 370.0,574.625 377.0,570.875 390.625,562.5"/>
    <polyline points="393.875,560.5 420.875,544.0 442.25,532.0"/>
    <polyline points="442.875,531.5 444.5,530.25 445.375,529.125 445.625,528.125 444.875,527.125 443.625,526.375 440.875,525.625 436.0,525.0"/>
    <polyline points="434.75,524.875 425.75,524.625 417.75,525.125 407.625,526.375 398.25,528.375 386.375,531.875 376.625,535.625 370.875,538.125 357.5,544.875"/>
    <polyline points="349.5,549.5 340.375,555.0 318.0,570.25 304.125,580.625 288.25,593.375 269.75,608.875 248.75,627.75 225.25,650.25 199.875,676.375 174.125,705.375 150.5,735.0 133.125,762.0 126.25,781.0 133.5,787.25 155.125,777.625 188.0,753.125 226.25,717.625 264.5,676.5 298.375,634.625 325.875,595.0 346.5,559.5 360.625,528.375 369.0,501.5 372.75,478.75 372.5,459.5"/>
    <polyline points="369.5,443.625 364.375,430.625 358.0,420.5 351.25,413.25 344.75,408.75 339.125,406.875 334.625,407.625 331.75,410.5 330.5,415.5 330.875,421.875 332.75,429.5 335.875,437.75 339.875,446.375 344.75,455.0 350.125,463.375 355.75,471.375 361.625,478.75 367.5,485.5 378.875,496.875 384.375,501.625 394.625,509.375 403.875,515.0 408.125,517.125"/>
    <polyline points="412.25,519.0 416.125,520.5 426.25,523.375 437.375,525.0 444.0,525.125 451.125,524.625 456.375,523.75 461.75,522.125"/>
    <polyline points="462.375,521.75 463.875,521.0 464.75,520.125 465.25,518.625 464.75,517.25 464.0,516.25 461.125,513.25"/>
    <polyline points="460.625,512.75 457.5,508.875 456.25,506.125 455.5,502.625 455.625,499.625 456.25,496.0 457.875,491.375 460.875,485.75 465.875,478.375 473.375,469.125 478.5,463.5"/>
    <polyline points="484.625,457.125 492.125,449.875 511.5,432.875 523.75,423.0 537.875,412.25 554.125,400.75 572.25,389.0 591.875,377.375 612.75,366.625 633.875,357.5 654.375,351.25 673.0,348.375 688.75,349.875 700.75,355.625 708.625,365.625 712.5,378.875 712.75,394.375 710.125,411.25 705.625,428.375 699.75,445.0 693.125,460.5 686.375,474.625 679.75,487.25 673.375,498.25 667.25,507.75"/>
    <polyline points="661.625,515.75 656.5,522.5 651.625,528.0 647.25,532.625 643.125,536.375 635.625,541.5 632.25,543.25 629.0,544.5 625.875,545.375 620.125,546.125 612.375,545.75 607.625,544.75 601.125,542.875 590.25,538.625"/>
    <polyline points="588.625,537.875 574.625,531.25 571.625,529.375 570.625,528.125"/>
    <polyline points="570.625,527.875 571.75,526.875 578.5,525.125 584.5,523.125"/>
    <polyline points="585.375,522.75 588.75,520.375 590.0,518.625 590.875,516.125 591.0,514.625 590.5,510.875 588.375,505.375 583.625,497.625 574.875,486.375 559.625,470.0 548.375,459.0 534.0,445.625 515.5,429.625 492.25,410.5 463.375,388.0 428.25,362.75"/>
    <polyline points="387.0,335.625 341.375,309.125 294.5,287.125 251.375,274.125 217.5,273.875 196.375,288.0 188.75,314.5 191.875,349.125 202.0,387.0 215.25,424.5 240.875,489.875 251.125,516.5 259.375,539.0 265.625,557.875 274.5,586.5 278.0,596.875 281.25,605.0 284.625,610.875 288.5,614.875 293.0,617.0 298.125,617.375 304.0,616.25 310.625,613.75 317.75,610.125"/>
    <polyline points="325.25,605.5 333.125,600.25 349.25,588.25 393.0,553.625 410.625,540.75 415.875,537.25 425.375,531.25 437.75,524.5 448.25,519.75 460.0,515.875"/>
    <polyline points="462.5,515.25 473.625,512.875 480.875,512.0 492.125,511.25 500.125,511.125"/>
    <line x1="501.0" x2="515.75" y1="511.125" y2="511.5"/>
    <polyline points="516.25,511.5 522.75,511.25 527.25,510.5"/>
    <polyline points="527.75,510.375 532.0,508.25 533.5,506.75 534.0,505.75 534.625,503.875 534.625,501.375 533.75,498.125"/>
    <polyline points="533.125,496.75 530.5,491.875 527.5,487.625 523.25,482.375 517.25,475.875 503.875,463.25 491.125,452.5 483.375,446.375 464.75,432.75 453.875,425.375 441.875,417.75 429.125,410.25 415.5,402.875 401.625,396.125 387.75,390.5 374.375,386.25 362.0,383.875"/>
    <polyline points="351.25,383.5 342.5,385.5 336.0,389.75 331.875,396.125 330.125,404.25 330.5,413.625 332.5,423.875 336.125,434.375 340.625,445.0 346.0,455.25 351.75,464.875 357.625,473.875 363.625,482.0 375.375,495.75 381.0,501.375 391.25,510.5 400.5,517.0 404.75,519.625 412.375,523.375 422.25,526.75"/>
    <polyline points="425.125,527.375 430.25,528.25 434.75,528.625 443.5,528.25 451.0,526.5 453.75,525.0 454.625,523.75"/>
    <polyline points="454.625,523.5 454.25,522.375 452.875,521.125 439.25,514.375"/>
    <polyline points="438.125,513.75 434.0,510.5 431.5,507.0 430.375,504.0 430.125,502.125 430.375,497.5 432.25,491.25 434.125,487.375 440.375,477.375 445.125,471.0 459.625,454.375 470.125,443.75 483.375,431.125 500.125,416.25 520.75,399.0 545.875,379.625"/>
    <polyline points="575.625,358.375 609.75,336.5 647.0,315.875 685.125,299.125 720.75,289.5 750.5,289.375 771.375,300.0 782.5,320.5 784.75,348.0 780.375,379.25 772.125,411.25 762.0,441.5 751.75,469.0 734.0,513.5 720.875,545.0 711.125,565.875 706.875,573.125 702.875,578.625 698.75,582.375 694.375,584.75 689.875,585.75 684.875,585.75 679.625,584.75"/>
    <polyline points="674.125,582.875 668.25,580.25 662.25,577.125 649.875,569.75 631.5,557.625 609.375,542.5 590.875,530.875 576.125,522.875 569.875,520.0 559.25,516.125"/>
    <polyline points="557.0,515.375 550.75,513.75 543.75,512.375 534.375,511.375 524.625,511.125"/>
    <polyline points="524.0,511.125 513.625,511.25 522.125,511.125 539.25,509.0 548.25,507.125 557.625,504.25"/>
    <polyline points="503.0,510.0 507.5,511.0 513.375,511.25 508.375,511.125"/>
    <polyline points="502.75,509.875 498.0,508.25 494.875,506.5"/>
    <polyline points="494.625,506.25 491.5,503.25 490.0,500.125 489.5,496.5 489.875,493.625 490.625,491.375"/>
    <polyline points="491.0,490.125 495.375,482.375 498.375,478.375 504.75,471.125 514.0,462.375 526.75,451.875 543.375,440.25 556.5,432.375 570.75,425.125 578.125,422.0 585.5,419.375"/>
    <polyline points="592.625,417.25 599.375,416.0 605.75,415.375 611.5,415.75 616.375,417.0 620.5,419.125 623.625,422.125 625.875,425.75 627.25,430.125 627.625,435.0 627.25,440.25 626.25,445.625 624.5,451.25 622.375,456.75 616.875,467.375 613.875,472.25 607.25,481.25 600.375,488.75 593.75,495.0 584.25,502.125"/>
    <polyline points="581.375,503.875 575.875,507.0 570.75,509.25 566.0,511.0 559.875,512.75 551.375,514.375 539.125,515.125"/>
    <polyline points="538.375,515.125 533.0,514.875 530.75,514.375 531.0,514.0 534.375,512.75 536.75,511.375"/>
    <polyline points="537.125,511.125 539.25,509.0 540.375,506.25 540.5,504.625 539.75,500.5 537.75,496.0 535.375,492.125 529.375,484.375"/>
    <polyline points="526.625,481.125 519.375,473.625 509.25,464.0 495.5,452.25 487.0,445.5 466.375,430.125 454.125,421.625 440.5,412.875 425.75,404.0 410.25,395.5 394.125,387.75 378.25,381.25 363.0,376.625 349.125,374.375 337.375,374.75 328.25,378.0 321.875,384.0 318.5,392.375 317.75,402.625 319.25,414.125 322.75,426.375 327.5,438.625"/>
    <polyline points="333.25,450.625 339.5,462.0 346.0,472.5 352.625,482.125 359.0,490.625 371.125,504.5 382.0,514.875 386.875,518.875 395.75,525.0 399.75,527.25 407.0,530.625 413.25,532.625 421.125,534.125 429.125,534.25 432.25,533.875"/>
    <polyline points="433.75,533.625 439.0,532.25 442.125,530.5 442.5,529.625 441.875,528.75 437.875,527.625"/>
    <polyline points="437.0,527.625 430.0,527.375 421.5,528.0 414.875,529.0 406.875,530.75 393.125,535.125 384.375,538.625 373.75,543.5"/>
    <polyline points="367.625,546.625 353.25,555.0 335.125,566.875 311.875,584.0 298.0,595.125 282.5,608.375 265.125,623.875 246.375,641.75 226.5,661.875 206.5,683.75 188.25,706.0 173.75,726.5 165.75,742.625 166.5,751.125 177.125,749.75 196.75,737.875 223.0,716.75 252.375,689.0 281.625,657.875 308.5,626.125 331.5,595.875 350.25,568.25 364.875,543.75"/>
    <polyline points="375.625,522.375 383.0,504.125 387.625,488.5 390.125,475.5 390.75,464.5 390.25,455.625 388.625,448.375 386.5,442.75 384.25,438.75 381.875,436.0 379.75,434.5 378.0,434.25 376.75,435.0 376.125,436.625 376.125,439.125 376.75,442.25 379.875,449.75 382.25,454.0 388.25,462.625 391.625,466.875 399.0,474.875 406.875,482.125"/>
    <polyline points="410.75,485.375 418.625,491.0 426.125,495.625 436.625,501.0 443.125,503.625 449.125,505.75 462.125,509.0 474.5,510.875 479.625,511.25"/>
    <polyline points="481.125,511.375 489.125,511.875 504.0,512.0"/>
    <line x1="504.5" x2="512.75" y1="512.0" y2="512.25"/>
    <line x1="513.0" x2="518.625" y1="512.25" y2="512.375"/>
    <line x1="518.875" x2="526.375" y1="512.375" y2="511.875"/>
    <polyline points="526.75,511.75 531.25,510.5 532.875,509.625 534.75,508.0 536.125,505.375"/>
    <polyline points="536.25,504.75 536.375,502.375 535.625,499.25 534.5,496.5 531.375,491.125 525.75,483.875 516.375,473.75 501.375,459.875 487.0,448.125 478.375,441.5 457.5,426.75"/>
    <polyline points="445.5,418.875 432.375,410.875 418.5,403.125 404.125,395.875 389.5,389.625 375.375,384.625 362.25,381.625 350.5,380.75 340.875,382.375 333.625,386.25 329.0,392.5 326.75,400.75 326.75,410.375 328.625,421.0 332.125,432.0 336.75,443.125 342.25,453.875 348.125,464.0 354.25,473.375 360.375,481.875 366.5,489.5 372.375,496.25 378.0,502.125 388.5,511.625 393.375,515.375"/>
    <polyline points="397.875,518.5 402.125,521.125 409.875,525.0 416.625,527.5 425.125,529.5 432.125,530.25 437.625,530.125 445.5,528.75 449.25,527.25"/>
    <polyline points="449.75,527.0 450.75,526.125 451.125,525.25 450.875,524.375 450.375,523.875 446.75,522.0 440.375,520.125"/>
    <polyline points="439.25,519.75 430.0,517.375 423.875,515.375 417.625,512.625 413.25,509.5 410.875,506.625 409.375,502.75 409.0,500.25 409.25,497.25 410.125,493.625"/>
    <polyline points="411.625,489.375 414.25,484.125 418.25,477.625 424.0,469.75 432.0,460.0 442.875,447.875 457.5,432.875 477.0,414.375 502.5,391.875 535.25,365.125 576.125,334.375 625.125,301.5 680.125,270.0 736.125,245.75 786.125,235.5 822.625,243.875 841.875,270.875 845.0,311.75 837.25,359.0 824.0,406.625 810.0,450.625 797.375,489.125 787.5,521.875 780.125,549.125 774.75,571.5 770.75,589.625"/>
    <polyline points="767.25,603.75 763.375,614.125 758.625,621.0 752.5,624.5 744.75,624.75 735.375,622.0 724.625,616.75 712.875,609.375 700.5,600.5 675.625,580.25 652.625,559.625 603.875,514.0 589.125,501.625 581.75,496.25 575.5,492.75"/>
    <polyline points="572.875,491.5 568.0,489.75 563.75,488.875 559.875,488.5 556.375,488.625 548.75,489.875 533.875,493.625"/>
    <polyline points="532.875,493.875 523.75,495.25 518.75,495.125 515.875,494.5 514.5,493.875"/>
    <polyline points="514.125,493.625 512.625,492.375 511.75,490.75 511.5,488.625 511.875,486.625 513.75,482.5 517.625,477.25"/>
    <polyline points="518.625,476.0 525.75,469.125 533.75,462.875 546.5,455.0 555.125,450.875 563.875,447.875 569.25,446.75 571.875,446.5 576.375,446.75"/>
    <polyline points="578.375,447.25 581.625,448.75 583.75,451.25 584.375,452.75 584.75,454.5 584.75,458.25 583.0,464.5 580.875,468.75 578.125,473.0 575.0,477.0 569.75,482.375 560.5,489.625"/>
    <polyline points="558.625,490.875 553.25,494.0 548.125,496.5 540.5,499.5 530.125,502.375 523.875,503.5"/>
    <polyline points="522.875,503.625 513.25,504.25 508.875,503.875 505.5,503.125"/>
    <polyline points="505.0,503.0 501.75,501.5 500.125,500.25 498.875,498.625 498.125,497.0 497.75,495.25 498.0,492.125"/>
    <polyline points="498.125,491.25 500.375,485.75 504.25,479.875 507.125,476.25 515.375,467.875 521.0,462.875 531.5,454.75 544.5,446.0 554.5,440.375"/>
    <polyline points="559.75,437.75 570.5,433.0 575.875,431.125 586.125,428.625 590.875,428.125 595.25,428.125 599.125,428.75 602.5,429.875 605.375,431.5 607.5,433.75 609.125,436.5 610.125,439.5 610.5,443.0 610.375,446.625 609.75,450.5 608.625,454.5 607.25,458.5 605.375,462.5 601.0,470.125 595.875,477.25 590.5,483.375"/>
    <polyline points="587.625,486.25 582.125,491.125 576.75,495.25 571.625,498.625 566.75,501.375 560.0,504.5 552.125,507.25 543.875,509.375 537.375,510.5"/>
    <polyline points="536.25,510.625 528.0,511.5 519.75,511.875"/>
    <polyline points="519.375,511.875 513.875,512.25 516.25,512.5 522.5,512.375"/>
    <polyline points="522.875,512.375 527.375,511.875 531.75,510.5"/>
    <polyline points="532.125,510.25 534.125,509.0 535.75,507.0 536.25,505.875 536.625,503.0 536.125,499.875 535.125,497.25 533.5,494.125 530.875,490.125"/>
    <polyline points="529.25,487.875 527.25,485.25 518.5,475.75 504.5,462.5 491.125,451.25 473.625,437.875 463.125,430.375 438.875,414.625 425.25,406.625 411.0,399.0 396.25,392.125 381.75,386.5 368.0,382.375 355.5,380.5 344.75,380.875 336.25,383.75 330.375,389.0 326.875,396.375 325.875,405.375"/>
    <polyline points="327.0,415.75 329.875,426.625 334.0,437.875 339.125,448.875 344.875,459.375 351.0,469.25 357.125,478.25 363.25,486.25 369.375,493.5 375.125,499.75 380.625,505.25 385.875,510.0 390.875,514.0 395.5,517.375 404.0,522.625 411.375,526.0 417.875,528.25 423.625,529.625 432.75,530.5"/>
    <polyline points="434.75,530.5 441.0,529.875 447.125,528.25 450.125,526.5 450.5,525.375 450.125,524.5 449.5,524.0"/>
    <polyline points="449.125,523.75 443.0,521.375 421.25,516.0"/>
    <polyline points="419.5,515.5 412.5,512.875 409.25,511.0 406.25,508.5 404.875,506.875 403.875,505.125 403.125,502.875 402.75,500.375 402.875,497.25 403.75,493.5 405.375,488.875 408.25,483.125 412.75,476.125 419.125,467.375 428.25,456.375 440.875,442.625 458.0,425.375 481.0,403.875 511.5,377.625 550.75,346.25 599.625,310.75"/>
    <polyline points="657.375,274.0 719.875,241.75 779.5,222.0 827.0,222.125 855.25,244.875 863.75,286.25 857.625,337.75 843.75,391.25 814.5,485.125 803.875,522.5 796.5,553.625 791.5,579.25 788.0,599.875 784.875,615.875 781.125,627.375 775.75,634.5 768.375,637.5 758.625,636.25 746.875,631.375 733.375,623.25 718.875,612.875 704.0,600.875 689.125,588.0 675.125,575.0 662.0,562.25"/>
    <polyline points="650.125,550.375 621.875,520.625 603.375,500.625 594.75,491.875 591.25,488.625 585.5,484.0 583.125,482.375 578.75,480.375 576.875,479.875 573.375,479.5 568.5,480.25 560.875,483.25"/>
    <polyline points="559.375,484.0 542.75,491.625 536.625,493.75 528.25,495.875"/>
    <polyline points="527.25,496.0 522.125,496.625 517.125,496.5 513.125,495.5 511.125,494.125"/>
    <polyline points="510.75,493.75 509.875,492.625 509.375,490.625 509.5,488.125 510.625,484.875 513.75,479.75 519.625,473.125"/>
    <polyline points="521.125,471.625 531.0,463.375 541.625,456.25 550.75,451.25 560.5,447.0 567.0,445.0 573.0,443.875 575.75,443.75 578.375,443.875 582.75,444.875 586.0,446.875"/>
    <polyline points="587.125,448.375 588.625,451.75 588.75,456.0 588.375,458.25 587.0,462.875 584.625,467.75 581.75,472.375 574.5,480.875 568.625,486.25 560.75,491.875 555.0,495.125"/>
    <polyline points="553.125,496.125 547.875,498.5 540.125,501.375 531.0,503.75 520.875,505.375"/>
    <polyline points="520.125,505.375 511.5,505.75 507.375,505.375 504.25,504.625"/>
    <polyline points="503.75,504.5 500.5,503.125 498.875,502.125 497.75,501.0 495.875,497.75 495.5,495.125"/>
    <polyline points="495.625,494.25 496.0,491.625 497.125,488.375 499.25,484.375 502.625,479.5 509.875,471.375 521.0,461.25 532.625,452.25 542.0,445.875"/>
    <polyline points="547.125,442.75 558.125,436.625 563.875,433.875 569.75,431.25 581.375,427.125 592.375,425.0 597.25,424.75 601.625,425.25 605.5,426.25 608.75,428.0 611.375,430.25 613.25,433.125 614.375,436.5 615.0,440.125 614.875,444.25 614.25,448.375 613.125,452.75 609.625,461.5 604.875,469.875 599.375,477.5"/>
    <polyline points="596.5,481.0 590.625,487.125 584.875,492.375 576.5,498.5 571.25,501.625 559.75,506.875 552.0,509.25 541.5,511.375"/>
    <polyline points="540.25,511.5 530.0,512.5 523.125,512.75"/>
    <polyline points="522.875,512.75 520.0,512.75 523.875,512.625"/>
    <polyline points="524.125,512.625 529.625,511.625 532.75,510.25"/>
    <polyline points="533.25,510.125 535.5,508.25 536.625,506.25 537.0,504.25 536.875,501.625 536.25,499.375 534.375,495.0 530.5,489.0 528.625,486.625"/>
    <polyline points="526.375,483.875 520.5,477.375 512.375,469.375 494.625,453.75 477.875,440.75 467.875,433.375 456.625,425.625 431.0,409.5 416.75,401.625 402.0,394.375 387.25,388.0 373.0,383.25 359.75,380.375 348.125,379.75 338.625,381.625 331.5,386.0 327.125,392.625 325.125,401.25 325.5,411.25 327.75,422.125"/>
    <polyline points="331.5,433.375 336.375,444.625 341.875,455.5 347.875,465.625 354.125,475.0 360.375,483.625 372.375,497.875 378.0,503.625 388.5,513.0 393.25,516.625 401.875,522.125 409.5,526.0 416.25,528.375 422.0,529.875 427.0,530.625 435.125,530.75"/>
    <polyline points="436.875,530.625 442.375,529.875 447.5,528.125 448.875,527.25 449.625,526.125 449.5,525.25 447.875,524.0"/>
    <polyline points="447.375,523.75 442.0,522.0 415.125,517.125"/>
    <polyline points="413.125,516.75 402.375,514.125 395.875,511.75 391.875,509.5 390.0,508.0 387.125,504.25 386.25,501.625 386.0,498.5 386.375,494.625 387.875,489.75 390.75,483.5 395.625,475.5 403.0,465.25 414.0,452.125 429.75,434.875 452.0,412.625 483.125,384.125 525.25,348.25"/>
    <polyline points="580.875,305.125 650.375,257.375 729.625,212.0 808.125,181.5 870.625,178.875 905.125,209.25 911.5,265.75 899.125,334.25 879.875,402.5 861.75,463.875 848.25,516.25 840.125,560.125 836.25,596.125 834.625,625.25 832.875,647.625 829.0,663.0 821.25,670.875 808.875,671.0 792.0,664.0 771.75,650.75 749.5,633.0 727.125,612.5 706.0,591.125 686.875,570.0 670.5,550.25 656.875,532.25"/>
    <polyline points="645.875,516.375 637.25,502.5 630.75,490.75 626.0,480.875 620.25,466.375 617.0,454.875 616.0,452.5 615.5,452.5 614.875,453.25 608.0,463.5 601.375,471.875 593.625,479.875 588.25,484.75"/>
    <polyline points="585.5,487.0 580.125,491.0 572.25,496.0 567.375,498.625 560.5,501.75 556.375,503.375 547.125,506.25 535.625,508.625"/>
    <polyline points="534.5,508.75 525.75,509.875 516.125,510.5"/>
    <line x1="515.75" x2="507.375" y1="510.5" y2="510.25"/>
    <polyline points="507.125,510.25 502.5,509.375 499.625,508.375"/>
    <polyline points="499.25,508.25 495.75,506.5 493.625,504.875 492.25,503.375 490.875,501.125"/>
    <polyline points="490.625,500.5 490.0,497.125 490.375,493.5 492.125,488.625 494.75,484.0 499.0,478.25 505.375,471.0 514.5,462.375"/>
    <polyline points="518.25,459.0 527.125,452.0 537.625,444.375 549.875,436.625 563.375,429.125 570.625,425.625 577.75,422.625 585.0,420.0 592.0,418.0 598.75,416.75 604.875,416.25 610.5,416.5 615.375,417.75 619.375,419.75 622.5,422.625 624.75,426.25 626.125,430.5 626.625,435.25 626.25,440.375 625.25,445.75 623.625,451.125 621.5,456.625"/>
    <polyline points="619.0,461.875 616.25,467.0 613.125,472.0 606.625,480.75 603.25,484.75 596.625,491.625 590.125,497.125 584.0,501.625 572.875,507.75 563.625,511.25 559.5,512.375 552.5,513.75"/>
    <polyline points="551.0,514.0 540.375,514.875 531.5,514.625"/>
    <polyline points="531.25,514.5 530.125,514.375 530.0,514.125 531.875,513.375"/>
    <polyline points="532.125,513.25 533.625,512.75 537.125,510.75 539.125,508.5 539.875,506.25"/>
    <polyline points="540.0,505.5 539.75,501.75 538.875,499.25 536.5,494.375 533.625,490.125 526.75,481.625 515.125,469.75 503.75,459.375 488.375,446.75 478.875,439.5 468.25,431.625 456.25,423.375 443.0,414.75"/>
    <polyline points="428.625,406.0 413.25,397.375 397.375,389.625 381.5,382.875 366.25,378.0 352.25,375.25 340.125,375.125 330.5,377.75 323.75,383.125 319.75,391.0 318.5,400.75 319.625,412.0 322.625,424.0 327.25,436.25 332.75,448.25 338.875,459.625 345.25,470.25 351.875,479.875 358.25,488.625 364.5,496.25 370.375,502.875 381.375,513.5 391.0,521.125 395.375,524.0"/>
    <polyline points="399.5,526.375 403.25,528.375 410.125,531.125 416.0,532.75 421.125,533.625 425.625,533.875 431.125,533.75 438.625,532.25 441.0,531.375 442.75,530.125"/>
    <polyline points="443.0,529.875 443.25,529.125 442.125,528.0 437.375,527.0 435.25,526.75 428.625,526.75 423.5,527.125"/>
    <polyline points="421.625,527.25 415.0,528.125 404.0,530.5 393.375,533.75 384.625,537.125 379.625,539.25 368.125,544.875 353.75,553.0 345.25,558.25 324.625,572.375 298.125,592.875 282.25,606.25 264.5,622.125 244.875,640.5"/>
    <polyline points="224.0,661.625 202.75,684.75 182.875,708.5 166.875,731.0 157.625,748.75 157.75,758.625 168.75,757.625 189.75,745.125 217.875,722.375 249.25,692.5 280.25,659.125 308.25,625.25 331.875,593.375 350.75,564.25 365.0,538.625 375.125,516.375 381.625,497.375 385.125,481.375 386.375,467.75 385.875,456.625 384.0,447.5 381.375,440.375 378.25,434.875 375.0,431.125 372.0,429.0 369.5,428.25"/>
    <polyline points="367.5,428.875 366.375,430.625 366.0,433.5 366.5,437.0 367.75,441.375 369.75,446.0 375.375,456.125 379.0,461.375 382.75,466.375 391.125,475.875 399.875,484.125 404.125,487.75 408.5,491.125 416.75,496.75 424.625,501.25 432.0,504.75 438.75,507.375 445.0,509.375"/>
    <polyline points="448.0,510.25 455.875,512.0 467.0,513.5 475.5,514.0 489.0,513.75"/>
    <polyline points="489.75,513.625 495.375,513.125 498.5,512.25 498.875,511.75 498.75,511.375 495.875,509.375"/>
    <polyline points="495.625,509.25 492.25,506.875 490.625,505.25 489.125,503.25 488.125,501.125"/>
    <polyline points="488.0,500.375 487.625,496.625 488.125,493.625 488.875,491.125 490.125,488.375 493.125,483.25 496.0,479.25 502.375,471.875 508.125,466.0 519.875,455.75"/>
    <polyline points="524.75,451.875 530.0,447.875 542.0,439.5 555.875,431.0 563.375,426.875 579.0,419.625 586.875,416.75 594.5,414.375 601.875,412.875 608.625,412.25 614.875,412.5 620.125,413.875 624.5,416.125 627.875,419.375 630.125,423.375 631.5,428.125 631.875,433.5 631.375,439.125 630.125,445.0 628.25,451.0 625.875,456.875 623.125,462.75 620.0,468.25"/>
    <polyline points="616.625,473.375 613.25,478.25 609.625,482.75 602.625,490.625 592.375,499.625 589.125,502.0 580.125,507.375 574.75,510.0 569.875,511.875 561.375,514.25 556.125,515.25 551.5,515.75"/>
    <polyline points="550.25,515.875 539.625,516.0 535.75,515.625 533.875,515.0 534.5,514.25 537.625,512.625"/>
    <polyline points="538.0,512.375 538.75,512.0 540.75,510.0 542.0,507.375 542.25,505.0 541.75,501.875 540.75,499.25 536.625,491.875"/>
    <polyline points="534.875,489.375 530.125,483.625 523.5,476.375 508.25,461.875 493.25,449.25 473.5,434.0 448.25,416.5 433.625,407.375 417.875,398.25 401.375,389.625 384.5,382.0 368.125,376.125 352.875,372.375 339.5,371.375 328.625,373.25 320.75,378.25 315.875,386.0 313.875,395.875 314.625,407.5"/>
    <polyline points="317.5,420.125 322.0,433.0 327.625,445.75 333.875,457.875 340.625,469.125 347.25,479.375 353.875,488.625 366.375,503.75 372.25,509.875 382.625,519.375 387.375,523.0 395.875,528.5 403.25,532.125 409.5,534.375 419.75,536.125 425.625,536.125"/>
    <polyline points="427.25,535.875 431.5,535.25 434.625,534.375 436.875,533.5 438.75,532.125 438.875,531.625 438.125,530.75 435.25,530.125"/>
    <polyline points="434.5,530.125 427.75,530.25 421.125,531.125 412.375,533.0 407.125,534.5 397.375,537.875 389.5,541.125 380.125,545.5 369.0,551.375 355.375,570.875 338.875,592.625 319.75,616.25 298.125,640.875 274.875,665.25 251.5,687.75 229.875,706.25 212.125,719.0 200.125,724.5 195.0,722.75 196.5,714.625 204.0,701.625 215.75,685.75 230.25,668.5 246.0,651.5 262.0,635.375 277.5,620.75 292.0,607.75 317.5,586.625 338.375,571.0 347.25,564.875 362.375,555.25"/>
    <polyline points="380.0,534.125 388.75,519.25 395.375,506.5 400.5,495.625 404.125,486.5 408.375,472.625 409.375,467.5 410.125,460.125 409.875,454.375 416.0,463.0 423.5,470.875"/>
    <polyline points="425.75,472.75 430.375,476.625 437.625,481.75 445.0,486.125 449.875,488.625 454.625,490.75 463.5,494.125 475.25,497.5 480.5,498.5"/>
    <polyline points="482.125,498.875 489.5,500.0 495.875,500.5 502.125,500.5 506.5,499.875 509.125,498.875"/>
    <polyline points="509.75,498.625 511.625,497.0 512.25,495.875 512.625,493.875 512.125,491.25 510.75,487.875 507.875,483.5 505.0,479.875 501.125,475.625 493.0,467.75"/>
    <polyline points="489.5,464.75 476.625,454.5 465.75,446.75 452.875,438.375 438.5,430.125 430.875,426.25 415.375,419.625 407.875,417.0 400.625,415.25 394.0,414.25 388.0,414.125 382.75,414.875 378.625,416.75 375.5,419.375 373.375,423.0 372.375,427.25 372.375,432.125 373.25,437.5 375.0,443.125 377.375,448.75"/>
    <polyline points="380.25,454.5 383.625,460.125 387.375,465.5 395.5,475.375 403.875,484.0 408.125,487.75 416.25,494.125 420.25,496.875 427.875,501.375 438.25,506.25 444.5,508.625 453.0,511.0 464.625,513.0"/>
    <polyline points="466.625,513.25 476.75,514.0 487.0,513.875 493.875,513.25"/>
    <polyline points="494.25,513.25 497.5,512.625 498.5,512.0 498.5,511.5 498.0,510.875 493.125,507.625"/>
    <polyline points="492.875,507.375 489.25,503.75 488.0,501.0 487.5,498.25 488.0,493.5"/>
    <polyline points="488.375,492.375 489.375,489.75 491.875,485.0 496.0,479.125 500.0,474.375 508.375,465.875 520.125,455.375 536.125,443.375 549.25,434.875 564.0,426.5 571.75,422.625 579.625,419.25"/>
    <polyline points="587.5,416.375 595.25,414.125 602.625,412.625 609.375,412.125 615.5,412.5 620.75,413.875 625.0,416.25 628.25,419.5 630.5,423.625 631.75,428.5 632.125,433.875 631.5,439.5 630.25,445.5 628.25,451.5 625.875,457.375 623.0,463.25 619.875,468.75 613.0,478.75 609.5,483.25 605.875,487.25 598.875,494.25 595.5,497.25 589.0,502.25"/>
    <polyline points="585.875,504.25 582.875,506.125 577.25,509.0 569.75,512.0 565.25,513.375 559.5,514.75 551.5,515.875 541.875,516.125"/>
    <polyline points="541.125,516.0 536.625,515.75 535.0,515.5 534.0,515.0 534.875,514.125 539.0,511.875 541.0,509.875"/>
    <polyline points="541.25,509.375 542.0,507.75 542.25,506.375 542.0,502.625 541.25,500.125 537.5,493.125 534.125,488.375 529.0,482.25 517.25,470.125 511.875,465.125 498.125,453.25"/>
    <polyline points="489.625,446.25 468.625,430.5 456.125,421.75 442.125,412.625 427.0,403.375 410.875,394.375 394.125,386.125 377.375,379.125 361.375,374.0 346.75,371.375 334.375,371.625 324.625,374.875 318.0,381.125 314.5,389.875 313.75,400.625 315.375,412.75 319.125,425.625 324.125,438.5 330.125,451.0 336.625,462.875 343.375,473.75 350.0,483.625 362.875,500.0 368.875,506.625"/>
    <polyline points="374.375,512.25 379.75,517.125 389.125,524.5 397.375,529.5 404.5,532.75 413.375,535.375 420.5,536.25 427.75,536.0 431.875,535.25 436.375,533.75"/>
    <polyline points="436.875,533.375 437.875,532.875 438.625,531.625 438.375,531.125 436.75,530.5 430.75,530.25 423.625,531.0"/>
    <polyline points="421.875,531.25 415.75,532.375 405.25,535.25 391.25,540.5 382.25,544.625 371.5,550.25 358.375,558.0 350.75,562.875 332.875,575.375 310.75,592.375 284.0,615.125 269.125,629.0"/>
    <polyline points="253.375,644.375 237.625,660.875 222.625,677.875 209.75,694.375 200.375,708.625 196.25,718.875 198.5,723.375 207.5,721.0 222.75,711.5 242.625,695.5 265.25,674.75 288.5,651.25 310.625,626.875 330.875,603.0 348.5,580.5 363.25,560.25 375.5,542.125 385.25,526.375 392.875,512.875 398.625,501.25 403.0,491.375 406.125,483.25 408.375,476.375 409.75,470.75 411.125,462.625"/>
    <polyline points="411.375,459.875 411.375,455.25 416.75,462.375 419.875,466.0 427.875,473.5 437.125,480.5 441.875,483.5 446.75,486.125"/>
    <polyline points="449.0,487.375 460.375,492.25 468.625,495.0 476.0,497.0 481.125,498.0 487.125,499.0 493.75,499.625"/>
    <polyline points="494.875,499.625 501.25,499.625 505.375,499.0 507.5,498.25 510.0,496.375 510.75,494.625 510.875,492.5"/>
    <polyline points="510.75,491.625 509.75,488.625 507.5,484.625 505.125,481.375 501.75,477.5 494.875,470.5 480.75,458.5 471.125,451.375 453.5,439.625 439.75,431.875 432.5,428.125"/>
    <polyline points="425.125,424.75 417.75,421.75 410.5,419.25 403.5,417.375 397.125,416.25 391.25,416.0 386.25,416.625 382.0,418.25 378.875,420.625 376.625,423.875 375.375,427.75 375.125,432.25 375.75,437.25 377.25,442.5 379.375,447.875 382.0,453.375 385.125,458.75 388.625,463.875 396.25,473.625 404.375,482.125 412.625,489.125 420.5,495.0"/>
    <polyline points="424.375,497.375 428.0,499.625 435.125,503.125 441.625,506.0 447.75,508.125 458.25,510.875 465.0,512.0 470.875,512.75 483.0,513.375"/>
    <polyline points="484.125,513.375 493.875,513.125 500.125,512.5"/>
    <polyline points="500.375,512.5 502.0,512.125 502.375,511.875 502.375,511.5 497.125,508.875"/>
    <polyline points="496.875,508.625 493.875,506.875 491.875,505.125 489.75,502.25 489.125,500.5"/>
    <polyline points="488.875,499.875 488.625,496.0 489.625,491.75 491.375,487.625 495.875,480.625 501.5,473.75 506.75,468.375 513.375,462.125 521.625,455.125"/>
    <polyline points="526.375,451.375 537.375,443.5 550.125,435.25 557.125,431.125 572.0,423.625 579.5,420.5 587.125,417.75 594.5,415.625 601.5,414.375 608.0,413.875 613.75,414.375 618.75,415.75 622.875,418.0 626.0,421.25 628.125,425.25 629.375,429.875 629.625,434.875 629.125,440.375 627.875,446.125 626.125,451.875 623.75,457.5 621.0,463.125 618.0,468.375"/>
    <polyline points="614.75,473.5 607.875,482.5 601.0,490.125 594.25,496.25 584.75,503.25 576.25,508.0 568.75,511.125 562.25,513.125 550.5,515.125"/>
    <polyline points="549.125,515.25 537.875,515.5 533.5,515.125 532.25,514.75 532.5,514.25 535.5,512.875"/>
    <polyline points="535.875,512.75 538.0,511.5 539.375,510.125 541.0,507.25 541.25,505.875 541.125,503.25 539.5,498.125"/>
    <polyline points="538.625,496.5 534.75,490.25 530.5,484.875 524.375,478.125 510.375,464.5 496.625,452.625 478.375,438.375 467.375,430.25 454.875,421.625 441.25,412.75 426.25,403.75 410.5,395.0 394.125,387.0 377.875,380.375 362.25,375.5 348.125,373.125 336.0,373.375 326.625,376.625"/>
    <polyline points="320.25,382.75 316.75,391.25 316.0,401.75 317.625,413.5 321.125,426.0 326.0,438.625 331.875,450.875 338.25,462.375 344.875,473.125 351.5,482.75 358.0,491.375 364.25,498.875 370.125,505.375 381.0,515.875 390.5,523.25 394.75,526.0 402.5,530.125 409.125,532.75 412.125,533.625 419.875,535.0"/>
    <polyline points="422.125,535.125 429.5,534.875 435.75,533.625 438.25,532.75 440.5,531.25 440.75,530.25 439.625,529.5"/>
    <polyline points="439.25,529.375 437.375,528.875 431.375,528.625 425.625,529.0 420.0,529.75 408.0,532.375 394.625,536.75"/>
    <polyline points="390.625,538.375 376.0,545.0 363.625,551.75 348.5,561.125 339.5,567.125 329.375,574.375 318.125,582.75 305.5,592.75 291.375,604.5 275.875,618.25 259.125,633.875 241.375,651.5 223.5,670.5 206.625,690.125 192.375,708.875 182.875,724.75 180.125,735.125 185.375,738.0 198.75,732.0 219.125,717.625 243.75,696.25 270.125,670.375"/>
    <polyline points="295.875,642.375 319.375,614.625 339.625,588.25 356.375,564.25 369.875,543.0 380.125,524.5 387.75,508.5 393.125,495.0 396.625,483.5 398.625,474.0 399.5,466.0 399.5,459.625 399.0,454.5 398.125,450.5 397.0,447.75 395.875,445.75 395.0,444.75 394.25,444.5 393.75,445.0 393.625,446.125 394.625,449.75 397.125,454.75 401.0,460.625"/>
    <polyline points="403.375,463.625 408.75,469.625 414.75,475.375 424.25,483.0 433.75,489.25 439.875,492.625 451.375,497.75 461.75,501.25 472.75,504.0"/>
    <polyline points="474.75,504.375 488.5,506.5 498.75,507.5 507.75,507.875"/>
    <polyline points="508.625,508.0 514.875,507.875 519.5,507.375 523.0,506.375 525.0,505.25"/>
    <polyline points="525.375,504.875 526.25,504.125 527.375,502.125 527.625,499.125 526.375,494.75 524.0,490.25 517.5,481.75 505.25,469.25"/>
    <polyline points="501.0,465.375 484.0,451.25 468.75,440.0 450.375,427.625 428.875,415.125 417.375,409.125 405.75,403.875 394.125,399.375 383.0,396.0 372.75,394.25 363.75,394.0 356.25,395.5 350.5,398.75 346.625,403.75 344.625,410.0 344.25,417.5 345.5,425.625 348.0,434.375 351.5,443.125 355.875,451.875 360.625,460.25"/>
    <polyline points="365.875,468.125 376.625,482.125 387.25,493.5 397.25,502.375 406.5,509.0 414.75,513.875 418.625,515.75 422.25,517.375 428.875,519.75 440.125,522.25 446.75,522.875 454.0,522.75"/>
    <polyline points="455.5,522.625 461.5,521.75 466.75,520.0 468.5,518.625 469.0,517.5 468.75,516.25"/>
    <polyline points="468.625,516.0 463.75,509.625 461.875,505.75 461.25,502.5 461.5,498.375"/>
    <polyline points="461.75,496.75 464.0,490.5 467.0,485.125 471.625,478.375 474.75,474.375 483.125,464.875 495.0,453.0 511.625,438.375 522.0,430.0 534.0,420.875 547.5,411.125 562.5,401.125 579.0,391.125 596.5,381.625 614.625,373.25 632.625,366.5 649.75,362.25 665.0,361.125 677.75,363.25"/>
    <polyline points="687.375,368.875 693.75,377.75 696.875,389.125 697.25,402.375 695.125,416.625 691.375,431.125 686.375,445.25 680.625,458.75 674.625,471.125 668.5,482.25 662.5,492.125 656.75,500.625 646.25,514.375 637.0,524.0 628.875,530.625 625.25,533.0 621.75,534.75 618.5,536.25 612.625,538.0 607.375,538.875 604.875,538.875"/>
    <polyline points="602.625,538.875 596.25,538.25 589.125,536.625 578.875,533.0 572.125,529.625"/>
    <polyline points="571.75,529.375 570.75,528.25 570.875,527.5 571.25,527.25 572.125,526.75 578.625,525.125"/>
    <polyline points="579.375,524.875 582.875,523.875 586.5,522.25 589.625,519.625 591.125,516.25 591.25,514.75 590.75,510.875 588.625,505.375 583.875,497.625 580.125,492.5 568.375,478.875"/>
    <polyline points="559.625,469.75 548.375,458.625 533.75,445.25 515.25,429.125 491.75,409.75 462.5,387.25 427.0,361.75 385.5,334.5 339.625,308.0 292.5,286.0 249.5,273.25 215.75,273.625 195.125,288.25 188.0,315.375 191.625,350.25 202.0,388.5 215.25,426.0 240.875,491.375 251.0,517.875 259.125,540.25 265.375,559.125 277.5,597.875 280.75,605.875"/>
    <polyline points="284.125,611.625 288.125,615.5 292.625,617.5 297.875,617.875 303.875,616.5 310.625,613.875 317.75,610.125 325.5,605.375 341.5,594.125 393.625,553.0 405.625,544.0 416.375,536.625 425.875,530.625 438.25,524.0"/>
    <polyline points="442.0,522.25 454.875,517.125 465.375,514.25 479.625,511.875 493.625,511.0"/>
    <line x1="494.75" x2="513.125" y1="511.0" y2="511.25"/>
    <polyline points="525.75,510.5 529.375,509.5 531.5,508.25 533.0,506.75 534.0,504.75 534.375,502.5 534.25,501.625"/>
    <polyline points="534.125,500.75 533.125,497.25 530.625,492.5 526.125,486.125 521.375,480.625 514.875,473.75 506.0,465.375 486.75,449.25 469.25,436.125 447.5,421.5 435.125,414.0 422.0,406.5 408.375,399.625"/>
    <polyline points="394.5,393.375 380.875,388.5 368.125,385.25 356.75,384.0 347.0,384.875 339.5,388.0 334.25,393.375 331.375,400.5 330.75,409.25 332.0,419.0 334.875,429.375 338.875,440.0 343.875,450.25 349.375,460.25 355.25,469.5 367.25,485.625 373.0,492.375 378.625,498.375 384.125,503.625 389.25,508.125 398.75,515.25 407.25,520.375 411.0,522.25"/>
    <polyline points="414.625,523.75 421.125,526.0 426.875,527.375 436.25,528.375 444.75,527.875 447.25,527.375 451.25,526.375 454.5,524.625"/>
    <polyline points="454.875,524.25 455.375,522.875 454.875,521.875 453.875,521.0 452.0,519.75 444.125,515.75"/>
    <polyline points="443.125,515.25 440.125,513.5 436.375,510.25 434.625,508.125 433.375,505.375 432.75,502.0 433.0,497.375 434.875,491.375 436.625,487.625 442.5,478.125 453.0,464.875 460.625,456.375 470.375,446.375 482.625,434.625"/>
    <polyline points="497.875,420.875 516.875,405.0 539.75,386.875 567.125,367.125 598.5,346.5 633.25,326.5 669.375,309.375 704.25,297.875 734.625,294.625 757.75,301.125 771.875,317.125 777.25,340.875 775.5,369.25 769.125,399.375 760.0,429.0 750.125,456.375 740.5,480.75 731.75,501.875 717.625,534.75 707.0,557.0 702.5,564.875 698.375,571.0 694.375,575.5 690.25,578.625"/>
    <polyline points="686.125,580.5 681.75,581.375 677.0,581.125 672.125,580.25 667.0,578.5 656.25,573.5 639.5,563.75 608.25,543.375 591.125,532.875 583.75,528.875 571.125,522.75"/>
    <polyline points="568.375,521.625 556.5,517.375 550.875,515.875 539.25,513.75 530.75,513.0"/>
    <polyline points="530.0,513.0 520.125,512.75 524.375,512.625 527.375,512.125"/>
    <polyline points="527.75,512.0 531.125,511.125 534.25,509.375 535.75,507.875 536.75,505.875"/>
    <polyline points="536.875,505.125 537.0,502.875 536.75,500.875 536.0,498.375 533.625,493.625 526.875,484.5 517.75,474.5 508.625,465.875 496.375,455.25 480.125,442.375 459.5,427.625"/>
    <polyline points="447.375,419.625 434.25,411.5 420.25,403.5 405.625,396.0 390.75,389.375 376.25,384.25 362.75,380.875 350.625,379.625 340.625,380.875 333.0,384.75 327.875,390.875 325.375,399.0 325.125,408.625 327.0,419.375 330.375,430.625 335.0,441.875 340.5,452.875 346.375,463.25 352.625,472.875 358.875,481.625 365.0,489.375 371.0,496.375 376.625,502.375 387.25,512.0 392.125,515.75"/>
    <polyline points="396.625,519.0 404.875,523.875 408.625,525.625 415.375,528.125 424.0,530.25 430.875,530.875 436.5,530.75 444.25,529.375 447.875,527.875"/>
    <polyline points="448.375,527.625 449.375,526.75 449.625,526.125 449.5,525.375 448.375,524.25 444.0,522.625 437.875,521.25"/>
    <polyline points="436.625,521.0 411.375,516.5 402.625,514.5 393.875,511.25 390.0,508.75"/>
    <polyline points="388.25,507.25 386.75,505.25 385.625,503.0 385.0,500.125 385.0,496.625 386.0,492.25 388.125,486.625 392.0,479.5 398.125,470.375 407.375,458.5 420.75,443.125 440.125,423.125 467.25,397.25 504.5,364.375 554.75,323.75 619.125,276.625 696.25,228.25 778.125,189.125 850.25,173.125 897.75,190.375 915.0,238.5 908.5,305.0 890.375,375.5 870.875,441.0 855.375,497.75 845.25,545.5"/>
    <polyline points="840.125,585.0 838.0,617.125 836.75,642.5 833.875,660.625 827.5,671.25 816.5,674.0 800.625,669.0 780.625,657.125 758.25,640.0 735.25,619.625 713.125,597.75 693.0,575.875 675.625,555.0 661.125,536.0 649.375,519.125 640.25,504.5 633.375,491.875 628.375,481.375 624.75,472.625 621.0,460.25 619.25,451.5 618.875,450.625 618.5,450.625"/>
    <polyline points="617.875,451.5 611.125,462.375 606.75,468.25 599.0,477.125 590.625,485.0 582.125,491.625 574.125,496.75 566.625,500.625 559.75,503.5"/>
    <line x1="524.625" x2="513.625" y1="510.75" y2="511.25"/>
    <polyline points="507.75,510.875 505.625,510.625 502.0,509.625"/>
    <polyline points="501.75,509.625 496.375,507.375 493.625,505.375"/>
    <polyline points="493.25,505.125 491.0,502.375 490.25,500.75 489.625,498.125 489.625,495.75 490.25,492.75 491.0,490.375 493.125,486.0"/>
    <polyline points="494.125,484.375 496.625,480.625 502.125,474.0 513.625,462.75 526.125,452.375 536.625,444.75 548.875,436.75 562.625,429.125 569.875,425.625 577.125,422.375 584.5,419.75 591.625,417.625 598.5,416.125 604.875,415.5 610.625,415.75"/>
    <polyline points="615.625,416.875 619.875,418.875 623.125,421.75 625.5,425.375 627.0,429.625 627.5,434.375 627.25,439.5 626.25,445.0 624.75,450.5 620.125,461.5 614.125,471.625 607.625,480.625 604.25,484.625 597.375,491.625 594.125,494.625 587.75,499.625 581.75,503.625 573.5,508.0"/>
    <polyline points="571.0,509.0 566.25,510.875 556.375,513.5 547.375,514.75 536.375,515.0"/>
    <polyline points="535.75,515.0 531.75,514.75 530.625,514.25 535.5,512.125 537.0,511.25 538.0,510.25"/>
    <polyline points="538.375,510.0 539.375,508.75 540.125,507.125 540.375,504.125 540.125,502.125 539.375,499.625 538.0,496.625 534.25,490.625 530.25,485.375 524.5,478.875 516.375,470.75"/>
    <polyline points="511.25,465.875 498.25,454.5 480.875,440.75 470.375,433.0 445.5,416.0 431.125,407.25 415.875,398.5 400.0,390.5 383.875,383.5 368.375,378.125 354.0,375.0 341.375,374.375 331.25,376.625 323.875,381.625 319.5,389.125 317.75,398.75 318.625,409.875 321.375,421.875 325.75,434.25 331.25,446.375 337.25,458.0 343.75,468.875 350.375,478.75"/>
    <polyline points="356.75,487.625 369.125,502.25 380.125,513.25 389.875,521.0 398.5,526.5 402.25,528.5 409.125,531.375 417.75,533.625 424.75,534.25 428.625,534.25 436.875,532.875"/>
    <polyline points="437.875,532.625 441.375,531.125 442.5,530.0 442.5,529.25 442.125,528.75 439.75,527.875 434.375,527.375"/>
    <polyline points="433.25,527.25 424.25,527.625 418.25,528.375 411.0,529.75 402.0,532.0 390.875,535.75 381.625,539.625 370.5,545.0 364.0,548.5 348.625,557.75"/>
    <polyline points="339.5,563.625 317.625,579.5 304.375,589.75 289.5,602.0 273.0,616.5 254.75,633.375 235.125,652.625 214.875,674.0 195.5,696.375 178.875,718.125 167.5,736.75 164.125,749.125 170.25,752.5 186.25,745.25 210.125,727.75 238.75,702.25 268.625,672.0 296.875,640.125 321.875,608.875 342.5,579.75 358.875,553.75 371.25,530.875 380.0,511.25 385.75,494.375 389.0,480.25"/>
    <polyline points="390.25,468.25 390.0,458.5 388.75,450.5 386.75,444.25 384.375,439.5 381.875,436.25 379.625,434.25 377.625,433.625 376.125,434.0 375.25,435.375 375.0,437.625 376.5,444.0 378.125,448.0 380.375,452.25 386.125,461.0 393.125,469.625 396.875,473.625 404.75,481.125 412.75,487.625 420.5,493.0"/>
    <polyline points="424.25,495.25 431.625,499.25 438.375,502.375 447.75,505.75 456.0,508.125 467.75,510.375 473.625,511.125 484.5,511.875"/>
    <line x1="485.875" x2="504.875" y1="512.0" y2="512.125"/>
    <line x1="505.25" x2="512.0" y1="512.125" y2="512.25"/>
    <line x1="512.25" x2="516.25" y1="512.25" y2="512.375"/>
    <line x1="516.5" x2="521.75" y1="512.375" y2="512.375"/>
    <polyline points="522.0,512.375 526.875,511.875 530.875,510.75"/>
    <polyline points="531.25,510.5 533.25,509.5 535.125,507.75 535.75,506.875 536.5,504.375 536.25,500.75 535.5,498.375 533.25,493.75"/>
    <polyline points="532.0,491.875 528.875,487.5 521.375,478.75 509.125,466.625 497.25,456.25 481.5,443.875 472.125,436.75 449.75,421.5 437.0,413.5 423.25,405.625 408.875,398.125 394.375,391.375 379.875,385.875 366.25,382.25 354.0,380.5 343.625,381.25 335.5,384.5 330.0,390.0"/>
    <polyline points="326.875,397.625 326.125,406.875 327.5,417.25 330.5,428.25 334.875,439.375 340.125,450.375 345.875,460.75 352.0,470.375 358.125,479.25 364.25,487.25 376.0,500.5 381.5,505.875 391.625,514.375 396.25,517.625 404.625,522.75 412.0,526.125 415.375,527.375 421.375,529.0 429.0,530.125"/>
    <polyline points="431.125,530.375 438.5,530.125 444.875,529.0 447.5,528.125 450.125,526.625 450.75,525.5 450.375,524.375"/>
    <polyline points="450.125,524.125 447.875,522.75 445.0,521.75 425.125,516.625"/>
    <polyline points="423.5,516.125 415.125,512.875 410.5,509.875 407.875,507.0 406.875,505.25 406.125,503.125 405.75,500.75 405.75,497.75 406.5,494.125 408.0,489.75 410.625,484.5 414.625,477.875 420.375,469.875 428.5,459.75 439.75,447.25 455.0,431.5 475.5,412.125 502.5,388.375 537.25,359.875"/>
    <polyline points="581.0,327.125 633.5,292.125 692.0,259.25 751.0,235.0 802.0,226.875 837.25,239.625 853.5,271.875 853.5,317.5 843.125,368.25 828.625,418.0 814.125,462.875 802.125,501.75 793.0,534.5 786.5,561.75 778.625,601.5 775.125,615.0 771.0,624.375 765.25,629.875 757.75,631.625 748.25,629.75 737.0,624.75 724.375,617.125 711.0,607.5 697.125,596.5 683.5,584.875"/>
    <polyline points="670.5,573.125 647.0,550.875 606.625,510.375 596.375,500.625 588.375,493.625 582.125,489.0 579.375,487.375 576.875,486.125 572.5,484.625 568.5,483.875 565.0,483.875 558.625,485.125"/>
    <polyline points="557.125,485.5 538.625,492.125 530.25,494.375 527.375,494.875"/>
  </g>
</svg>
