<?xml version="1.0" encoding="utf-8" ?>
<svg xmlns="http://www.w3.org/2000/svg" xmlns:cc="http://creativecommons.org/ns" xmlns:dc="http://purl.org/dc/elements/1.1/" xmlns:ev="http://www.w3.org/2001/xml-events" xmlns:inkscape="http://www.inkscape.org/namespaces/inkscape" xmlns:rdf="http://www.w3.org/1999/02/22-rdf-syntax-ns" xmlns:sodipodi="http://sodipodi.sourceforge.net/DTD/sodipodi-0.dtd" xmlns:xlink="http://www.w3.org/1999/xlink" baseProfile="tiny" height="27.09333333cm" version="1.2" viewBox="0 0 1024.0 1024.0" width="27.09333333cm">
  <metadata>
    <rdf:RDF>
      <cc:Work>
        <dc:format>image/svg+xml</dc:format>
        <dc:source>vpype read './original_svgs/Strange Attractors #425.svg' linemerge linesimplify write './Strange Attractors #425.svg'
</dc:source>
        <dc:date>2024-08-05T01:35:57.738254</dc:date>
      </cc:Work>
    </rdf:RDF>
  </metadata>
  <defs/>
  <g fill="none" id="layer1" inkscape:groupmode="layer" inkscape:label="1" stroke="black" stroke-width="0.7mm" style="display:inline">
    <polyline points="476.875,665.125 487.75,649.0 516.0,605.125 529.5,585.25 535.25,577.5 525.75,580.125 515.375,581.5"/>
    <polyline points="511.0,581.875 500.5,582.125 481.375,581.25 466.875,579.75 452.25,577.5 438.5,574.875 427.0,572.25 415.875,568.5 413.875,567.375 412.875,566.375 412.5,565.5 412.875,564.75 413.875,564.0 417.375,562.5 422.0,561.0"/>
    <polyline points="424.75,560.25 442.0,554.375 452.625,549.5 459.625,545.75 469.625,539.5 480.0,531.625"/>
    <polyline points="481.25,530.5 486.375,525.875 491.5,520.5 493.5,517.875 495.625,514.375 496.25,512.75"/>
    <polyline points="496.5,512.25 497.125,509.375 497.125,507.0 496.25,503.375 494.875,500.5"/>
    <polyline points="494.625,500.0 490.75,493.875 483.25,483.625"/>
    <polyline points="482.625,482.75 476.375,473.25 471.875,465.125 467.5,454.875 465.125,446.5"/>
    <polyline points="464.5,444.125 463.375,436.5 463.0,430.625 463.125,424.25 463.875,417.125 465.25,409.375 467.75,400.625 471.25,391.125 473.625,386.0 476.375,380.625 483.125,369.5 491.875,357.875 497.0,352.125 502.75,346.375 508.875,340.875 515.5,335.625"/>
    <polyline points="522.625,331.0 530.0,327.0 537.75,323.75 545.5,321.625 553.125,320.5 560.625,320.75 567.75,322.25 574.25,325.25 580.125,329.5 585.25,334.875 589.625,341.5 593.0,348.875 595.5,357.125 597.125,365.75 598.125,374.625 598.375,383.625 598.0,392.5 597.125,401.25 595.875,409.625 592.375,425.125 588.125,438.75 585.875,444.875 581.25,455.625"/>
    <polyline points="578.875,460.375 572.125,472.375 568.0,478.875 562.375,486.75 546.625,505.5 542.875,510.375"/>
    <polyline points="542.25,511.25 539.375,516.625 538.5,520.125 538.5,523.375 539.0,526.0 540.0,528.625"/>
    <polyline points="540.375,529.25 542.25,532.75 546.0,538.0 556.0,549.875"/>
    <polyline points="556.875,551.0 562.375,558.0 566.75,564.625 568.25,567.5 569.875,572.125 570.375,575.25 570.125,578.625 569.625,580.25 567.625,583.625 563.875,586.875"/>
    <polyline points="561.125,588.375 557.75,589.875 548.375,592.5 542.125,593.5 534.625,594.25 525.875,594.625 504.0,594.25 476.375,591.75 460.875,589.625 444.625,587.0 412.5,580.75 385.25,574.0 375.0,571.125 362.25,567.0 359.625,565.75 359.125,565.125 360.125,564.875 369.625,565.5"/>
    <polyline points="373.875,565.875 382.5,566.125 390.75,565.75 394.625,565.25 398.375,564.5 405.0,562.625 410.875,560.125 418.125,555.75 423.875,550.75 426.875,547.25 430.375,542.0 432.75,536.75 433.25,535.0"/>
    <polyline points="433.75,533.375 434.625,528.375 434.375,522.0 433.75,518.875 432.125,514.375 429.75,510.0 426.75,505.75 421.375,500.25 416.375,496.25"/>
    <polyline points="414.5,494.875 410.625,492.375 403.75,488.875 395.75,485.875 389.75,484.375 383.0,483.25 375.5,482.875 371.375,483.0 362.25,484.25 351.875,487.25 346.0,489.625 339.75,492.75 333.0,496.75 325.625,501.875 317.625,508.25 308.875,516.25"/>
    <polyline points="299.5,526.0 289.25,538.0 278.375,552.625 266.875,570.25 254.875,591.125 243.0,615.5 231.75,643.25 222.25,673.75 215.75,705.75 213.625,737.375 217.375,765.625 227.75,787.875 244.5,801.375 266.625,805.125 292.0,799.5 318.375,786.25 343.75,767.875 366.875,746.75 386.875,725.125 403.625,704.125 417.125,684.875 427.75,667.75 435.875,652.75 441.875,639.875 446.0,628.875 448.75,619.5"/>
    <polyline points="450.25,611.625 450.875,604.875 450.875,599.25 450.25,594.375 449.375,590.25 448.125,586.75 442.625,574.75 441.625,571.5 441.5,570.125 442.125,567.75 442.75,566.625 444.75,564.625 449.125,561.875 456.5,558.5"/>
    <polyline points="458.5,557.625 472.875,552.125 487.875,547.0 494.5,545.125 503.5,543.375"/>
    <polyline points="504.875,543.25 512.625,543.0 517.375,543.5 520.875,544.25 527.375,546.625 533.5,550.125"/>
    <polyline points="534.375,550.875 539.125,554.75 541.625,557.5 544.5,561.5 546.375,566.0 546.75,568.375 546.125,572.0 544.875,574.5 542.5,576.875"/>
    <polyline points="540.75,578.125 536.375,580.25 530.0,582.125 526.125,583.0 516.375,584.125 504.0,584.625 496.875,584.5 480.75,583.5 463.0,581.625 453.75,580.25 436.125,577.125 428.0,575.375 414.5,572.0 405.375,569.0 401.0,566.75 400.375,565.75"/>
    <polyline points="400.75,565.0 403.5,563.625 417.5,560.25 427.25,557.375 439.25,552.5 447.125,548.375 453.875,544.0 463.0,536.625"/>
    <polyline points="464.5,535.25 467.25,532.5 472.625,526.0 476.25,520.0 477.75,516.75 479.0,512.5 479.5,506.375"/>
    <polyline points="479.375,505.375 478.875,501.5 476.625,494.375 473.5,487.625 468.125,477.5"/>
    <polyline points="467.25,476.0 463.25,468.125 459.125,458.625 456.75,452.0 454.75,444.375 453.75,438.625 452.875,428.75 453.25,417.125 453.875,412.75"/>
    <polyline points="454.625,408.125 457.125,397.875 459.0,392.375 463.875,380.25 467.125,373.625 475.5,359.5 486.625,344.5 493.375,336.75 501.0,329.125 509.375,321.75 518.375,314.875 528.125,308.75 538.25,303.625 548.75,299.875 559.25,297.75 569.5,297.375 579.25,299.125 588.125,303.0 596.125,308.875 602.75,316.625 608.125,326.0 612.125,336.5"/>
    <polyline points="614.875,348.0 616.375,359.875 616.875,372.0 616.625,383.875 615.5,395.375 613.875,406.25 611.75,416.625 609.375,426.125 604.125,442.875 601.25,450.25 595.75,462.75 593.0,468.125 587.875,477.25 583.125,484.75 574.875,495.875 568.25,503.625"/>
    <polyline points="566.875,505.25 560.25,513.25 557.375,517.5 555.875,520.5 554.75,524.125 554.375,526.75 554.875,531.25"/>
    <polyline points="555.0,532.125 556.25,535.75 560.625,543.375 572.0,558.625"/>
    <polyline points="573.125,560.0 578.125,567.25 581.5,573.75 582.625,577.25 583.125,580.875 582.75,584.625 580.875,588.375 579.25,590.25 577.0,592.125 574.125,593.875 565.5,597.125 559.375,598.5 542.75,600.375"/>
    <polyline points="531.875,600.625 518.875,600.375 503.625,599.5 486.375,597.875 467.25,595.375 446.625,592.125 425.375,588.125 404.375,583.625 384.875,578.875 368.0,574.5 354.5,570.625 344.625,567.625 336.0,564.375 350.75,568.625 365.25,572.0 373.875,573.125 381.375,573.25"/>
    <polyline points="384.75,572.875 390.625,571.75 395.75,569.875 400.0,567.5 401.875,566.125 406.75,561.75 409.375,558.75 411.375,555.625 413.125,552.5 414.375,549.375 415.5,544.875 415.625,539.25"/>
    <polyline points="415.5,538.0 414.875,535.375 413.875,533.0 412.5,530.75 410.75,528.75 408.625,526.875 406.0,525.25 403.125,524.0 397.875,522.625 391.5,522.25 389.125,522.375 384.0,523.25 378.25,524.875"/>
    <polyline points="375.125,526.0 368.375,529.25 364.75,531.375 360.875,533.875 352.75,540.25 343.75,548.75 334.25,559.75 324.5,573.625 319.625,581.75 314.875,590.5 310.375,600.125 306.375,610.125 302.875,620.75 300.25,631.5 298.5,642.25 298.0,652.625 298.75,662.25 301.0,670.75 304.75,677.75 310.0,682.875 316.625,686.125"/>
    <polyline points="324.375,687.125 333.125,686.125 342.375,683.25 352.125,678.75 362.0,672.875 371.625,666.0 381.0,658.5 398.375,642.5 413.5,626.875 458.25,576.0 464.75,569.125 475.625,558.875"/>
    <polyline points="478.125,556.875 484.625,551.875 490.375,548.25 495.5,545.5 501.625,543.125 505.875,542.0 512.25,541.25 516.875,541.5"/>
    <polyline points="518.0,541.625 522.375,542.5 525.625,543.625 531.75,546.5 537.625,550.625 543.125,555.75"/>
    <polyline points="544.0,556.75 547.0,560.875 548.75,564.25 549.5,566.625 549.875,570.375 549.25,573.0 547.875,575.625 545.375,578.125 543.5,579.375 538.75,581.625 531.75,583.625 522.5,585.125"/>
    <polyline points="516.75,585.625 503.125,585.875 486.5,585.125 467.625,583.25 447.625,580.375 428.75,576.75 412.875,573.0 401.875,569.625 396.125,567.125 395.125,566.125 395.125,565.25 397.75,564.0 412.25,560.875"/>
    <polyline points="415.625,560.125 425.5,557.125 434.75,553.375 442.75,549.0 449.625,544.5 455.25,539.875 460.0,535.25 463.875,530.875 467.75,525.25"/>
    <polyline points="468.5,523.875 470.875,518.75 472.0,515.0 472.75,510.125 472.375,503.125 471.625,499.625 469.625,493.625"/>
    <polyline points="469.125,492.375 466.75,487.125 455.25,464.5 451.625,455.75 449.25,448.0"/>
    <polyline points="448.5,445.25 446.625,435.875 445.875,424.75 446.25,416.125 447.5,406.25 448.625,400.75 450.25,395.0 454.625,382.125 457.75,375.0 465.875,359.5 477.375,342.25 484.5,333.25 492.75,324.125 502.0,315.125 512.125,306.375 523.375,298.375 535.25,291.375"/>
    <polyline points="547.75,285.875 560.375,282.25 573.0,281.0 584.875,282.25 596.0,286.25 605.625,293.0 613.75,302.125 620.25,313.375 625.0,326.25 628.0,340.0 629.625,354.375 629.875,368.875 629.125,382.875 627.625,396.375 625.5,408.875 620.125,431.125 617.125,440.75 614.0,449.375 607.875,463.875 604.875,470.0 599.125,480.25 594.0,488.25"/>
    <polyline points="591.5,491.625 585.125,499.875 571.625,514.625 568.125,519.125 565.25,524.125 564.25,528.0"/>
    <polyline points="564.125,528.875 564.375,533.625 565.875,538.5 569.25,544.75 577.0,555.375"/>
    <polyline points="578.125,556.75 587.25,568.375 590.625,573.375 593.5,578.75 595.375,584.5 595.625,586.625 595.125,590.625 594.25,592.75 592.875,594.875 590.875,596.875 588.125,598.875 584.375,600.875"/>
    <polyline points="579.375,602.625 572.875,604.25 564.75,605.5 554.625,606.375 542.0,606.75 526.75,606.375 508.5,605.25 487.25,603.0 463.25,599.5 437.375,595.0 410.5,589.5 384.375,583.5 360.75,577.375 341.25,571.875 317.625,564.5 312.75,563.25 315.0,564.625 340.375,577.25 350.0,581.75"/>
    <polyline points="354.25,583.5 365.0,586.875 371.0,587.625 373.625,587.625 378.625,587.0 383.25,585.5 389.375,582.25 393.125,579.5 396.5,576.5 402.5,570.0 407.25,563.125"/>
    <polyline points="408.25,561.5 410.75,556.5 412.5,551.75 413.5,547.25 413.625,541.625 412.375,536.625 410.5,533.375 408.75,531.5 405.5,529.0"/>
    <polyline points="404.25,528.25 399.75,526.625 396.25,526.0 392.25,525.875 387.75,526.25 382.75,527.25 377.125,529.125 367.625,533.875 364.125,536.125 356.625,541.75 348.625,549.125 340.0,558.75 331.125,570.75"/>
    <polyline points="326.75,577.625 322.375,585.25 318.25,593.5 314.5,602.125 311.0,611.375 308.25,620.75 306.125,630.375 305.0,639.75 304.875,648.75 305.875,656.875 308.25,664.125 311.875,670.0 316.625,674.25 322.625,676.875 329.625,677.625 337.375,676.75 345.75,674.25 354.375,670.25 363.25,665.125 372.0,659.25 380.5,652.625 396.5,638.375 403.875,631.125 417.125,617.25"/>
    <polyline points="423.125,610.625 454.5,575.25 469.5,559.875 481.0,549.875 488.5,544.5 494.875,540.75"/>
    <polyline points="496.25,540.0 501.75,537.625 506.5,536.125 509.75,535.5 511.875,535.25 517.75,535.375 523.25,536.625"/>
    <polyline points="524.125,536.875 526.75,537.875 533.875,541.75 540.25,546.5 546.625,552.625"/>
    <polyline points="547.5,553.5 551.875,558.875 555.375,564.875 556.875,570.25 556.75,573.125 556.5,574.5 555.125,577.375 552.625,580.125 548.375,582.875 542.25,585.25"/>
    <polyline points="538.125,586.375 527.625,588.0 521.125,588.5 505.25,588.75 485.75,587.625 474.625,586.625 463.0,585.125 439.25,581.25 417.0,576.75 407.375,574.375 399.25,572.25 387.875,568.625 384.75,567.25 383.25,566.125 383.0,565.375 384.0,564.75 385.75,564.375 394.75,563.25"/>
    <polyline points="398.375,562.875 409.375,560.875 413.0,560.0 419.75,557.75 428.75,553.75 434.0,550.75 440.75,545.75 444.5,542.5 447.75,539.125 451.625,534.125 455.5,527.625"/>
    <polyline points="456.125,526.0 457.875,521.375 459.0,515.375 459.125,511.0 458.875,508.125 458.375,505.25 456.25,498.0 452.0,488.875"/>
    <polyline points="451.125,487.25 439.125,466.625 435.375,459.5 431.625,451.375 428.25,442.0 426.25,434.625 424.375,421.625"/>
    <polyline points="424.125,416.625 424.625,405.25 426.75,391.75 428.625,384.0 431.25,375.625 434.75,366.25 439.125,356.125 444.75,345.125 451.875,333.125 460.375,320.125 470.75,306.375 483.125,292.0 497.5,277.375 514.0,263.125 532.375,250.125 552.375,239.25 573.125,231.5 593.875,228.25 613.625,230.25 631.25,237.875 646.0,250.875 657.25,268.375 665.0,289.375 669.5,312.375"/>
    <polyline points="671.375,335.875 670.875,359.0 669.0,380.625 666.0,400.5 662.25,418.25 658.375,433.75 654.25,447.25 650.125,458.875 646.25,468.625 642.375,477.0 638.75,484.0 632.0,494.625 628.875,498.625 623.0,504.75 620.375,507.125 617.75,509.0 612.875,512.0 610.5,513.125 604.25,515.875 600.5,517.125"/>
    <polyline points="598.75,517.75 589.875,521.125 585.5,523.5 583.0,525.5 580.75,528.375 579.625,530.75 579.125,533.25 579.125,535.0"/>
    <polyline points="579.25,535.875 579.75,538.75 580.875,541.625 584.625,548.0 589.25,553.875 599.375,564.5"/>
    <polyline points="600.875,566.0 614.625,579.25 622.0,587.0 627.375,593.5 631.75,600.375 633.375,605.375 633.75,607.875 633.375,610.5 632.375,613.125 630.375,615.75 627.25,618.25"/>
    <polyline points="622.5,620.75 615.625,623.0 606.125,624.875 593.25,626.25 575.875,626.75 553.375,626.0 524.375,623.5 488.5,618.875 446.0,611.5 398.875,601.375 350.875,589.375 307.5,576.875 273.625,566.125 251.875,558.875 241.875,556.0 240.75,557.625 252.0,570.125 259.5,579.25 266.5,589.375 272.75,599.875 278.125,610.375 291.0,640.125 295.25,648.625"/>
    <polyline points="300.0,656.0 305.25,662.0 311.25,666.625 317.875,669.625 325.25,670.875 333.125,670.625 341.375,668.875 349.875,665.75 358.5,661.5 367.0,656.375 375.375,650.5 383.5,644.125 398.375,631.0 417.75,611.625 456.5,569.5"/>
    <polyline points="459.625,566.375 470.25,555.875 482.75,545.25 487.875,541.625 493.875,537.875 499.0,535.125 503.5,533.25"/>
    <polyline points="504.625,533.0 510.375,531.5 516.25,531.25 521.625,532.25 525.375,533.625"/>
    <polyline points="526.125,534.0 530.75,536.5 538.0,541.625 546.75,549.625"/>
    <polyline points="547.625,550.5 551.25,554.5 556.375,561.5 558.375,565.375 559.75,569.5 560.125,572.375 559.75,575.25 559.25,576.75 557.375,579.75 554.0,582.625"/>
    <polyline points="551.625,584.0 548.75,585.375 541.0,587.625 530.0,589.375 523.125,589.875 506.125,590.125 496.0,589.625 473.0,587.5 460.375,585.875 434.625,581.625 422.25,579.125 400.875,574.0 386.0,569.75 378.5,566.75 377.375,565.75 377.625,565.125 381.375,564.375"/>
    <polyline points="384.25,564.125 395.125,563.375 406.625,561.5 417.0,558.375 423.0,555.75 428.5,552.75 435.375,547.875 440.875,542.625 443.875,539.25 448.375,532.375"/>
    <polyline points="449.25,530.75 450.75,527.375 452.25,522.5 453.0,516.25 452.75,510.25 451.375,504.125 450.25,501.125 449.0,498.0 445.625,491.625"/>
    <polyline points="444.75,490.0 439.25,481.375 426.5,462.625 420.25,452.125 417.125,445.875 414.25,439.0 412.875,435.125 410.625,426.625"/>
    <polyline points="409.625,421.875 408.625,411.0 408.5,404.875 408.875,398.0 409.875,390.375 411.375,382.0 413.875,372.625 417.25,362.125 421.875,350.5 428.0,337.375 436.0,322.875 446.0,306.875 458.625,289.375 474.125,270.75 492.625,251.375 514.375,232.125 539.125,214.5 566.125,200.125 594.25,191.125 621.875,189.375 647.0,196.0 668.125,211.25 684.0,234.0 694.625,262.25 700.125,293.375"/>
    <polyline points="701.75,325.0 700.5,355.25 697.375,382.875 693.125,407.375 688.5,428.375 683.75,446.25 679.0,461.0 674.5,473.0 670.25,482.75 666.125,490.5 662.25,496.5 658.5,501.25 654.875,504.875 651.25,507.5 647.75,509.375 644.25,510.625 640.75,511.375 633.875,511.875 627.0,511.625 610.5,509.75"/>
    <polyline points="607.5,509.375 601.625,508.875 591.0,508.625 580.375,509.875 575.125,511.25 570.875,513.0 566.25,515.75 562.875,518.75"/>
    <polyline points="562.25,519.625 561.0,521.125 559.75,523.625 559.0,526.125 558.75,529.625 559.5,534.0 560.125,535.875 563.125,541.75"/>
    <polyline points="563.75,542.75 566.5,547.0 580.25,565.125 584.375,571.5 586.875,576.625"/>
    <polyline points="587.5,578.5 588.25,582.25 588.125,586.125 586.625,590.0 585.125,592.0 583.0,593.875 580.125,595.75 576.375,597.625 571.625,599.25 565.5,600.75 557.75,601.875 548.375,602.75 536.875,603.125 523.0,602.875 506.75,601.875 488.125,600.125 467.125,597.375 444.5,593.625 421.0,589.125 397.875,584.0 376.5,578.75 343.875,569.625"/>
    <polyline points="334.0,566.5 326.125,563.875 343.875,570.625 354.0,574.0 363.25,576.5 371.125,577.875 374.625,578.125 377.75,578.125 383.5,577.5 388.5,576.125 394.625,573.0 399.75,569.0"/>
    <polyline points="401.125,567.625 404.875,563.125 407.75,558.625 409.75,554.125 411.0,549.875 411.5,544.5 410.875,540.75 410.125,538.5 407.375,534.5"/>
    <polyline points="406.5,533.75 404.375,532.125 401.875,530.875 395.75,529.375 392.0,529.25 387.875,529.625 385.5,530.0 380.625,531.375 372.125,535.125 365.75,539.0 358.875,544.25 347.625,555.125"/>
    <polyline points="343.625,559.75 335.5,570.625 331.5,576.75 327.625,583.5 323.875,590.75 320.375,598.5 317.375,606.625 314.75,615.0 312.625,623.375 311.375,631.75 311.0,639.875 311.625,647.375 313.25,654.125 315.875,659.75 319.75,664.25 324.625,667.25 330.375,668.875 336.875,668.875 344.0,667.5 351.625,664.875 359.5,661.0 367.5,656.25 375.375,650.75 390.5,638.375"/>
    <polyline points="397.5,631.875 410.625,619.0 422.125,606.75 448.5,577.125 466.5,558.0 475.625,549.375 484.75,541.75"/>
    <polyline points="486.375,540.5 490.75,537.375 499.25,532.25 506.0,529.375 508.5,528.625 512.25,528.0"/>
    <polyline points="512.875,528.0 517.625,528.125 520.75,528.875 524.5,530.375 529.0,532.875"/>
    <polyline points="529.625,533.375 535.25,537.375 540.75,542.0 549.375,550.5"/>
    <polyline points="550.25,551.5 555.625,558.0 558.875,563.0 560.75,567.0 561.875,571.375 562.0,572.875 561.625,575.875 560.375,578.875 557.75,581.875 555.875,583.375 553.5,584.75"/>
    <polyline points="550.5,586.125 542.5,588.5 537.25,589.5 531.0,590.25 515.5,591.0 495.375,590.375 471.25,588.0 458.0,586.25 431.0,581.625 406.5,576.25 396.25,573.625 381.5,569.25 377.125,567.625 374.75,566.375 374.0,565.5 374.625,565.0 376.375,564.625 382.125,564.375"/>
    <polyline points="385.75,564.25 397.375,563.25 408.625,561.0 418.5,557.5 424.125,554.625 433.375,548.125 437.0,544.625 441.5,539.375 443.75,535.875 446.5,530.75"/>
    <polyline points="447.125,529.125 448.25,525.75 449.25,520.875 449.5,516.25 448.75,510.0 448.0,506.875 446.375,502.25 443.25,496.0 439.125,489.5"/>
    <polyline points="438.0,487.75 434.25,482.5 418.125,461.875 408.875,448.375 405.125,441.875 401.625,434.5 398.5,426.0 397.125,421.125"/>
    <polyline points="396.0,415.875 395.125,410.125 394.625,403.75 394.625,396.75 395.125,388.875 396.375,380.0 398.5,370.0 401.75,358.625 406.5,345.75 413.0,331.125 421.625,314.5 433.0,295.625 447.5,274.75 466.0,251.875 488.625,227.75 515.75,203.625 547.125,181.375 581.5,164.0 617.125,154.5 651.125,156.0 680.5,169.625 703.25,194.75 718.5,228.75 726.5,267.625 728.875,307.625 727.25,345.625"/>
    <polyline points="723.375,379.75 718.25,409.25 712.875,433.875 707.625,454.0 702.5,470.125 697.75,482.625 693.25,492.125 688.875,499.25 684.625,504.25 680.375,507.625 676.0,509.5 671.5,510.5 666.75,510.5 661.875,509.875 651.5,507.375 614.375,495.5 600.25,492.125"/>
    <polyline points="595.875,491.375 584.25,490.0 580.75,489.875 574.375,490.0 566.0,490.875 557.125,493.0 553.25,494.375 548.375,496.5 543.125,499.375 539.75,501.625"/>
    <polyline points="538.875,502.25 534.75,505.5 531.25,509.0 529.375,511.625 528.125,514.0 527.625,515.75"/>
    <polyline points="527.5,516.125 527.375,518.25 528.0,521.125 530.0,525.0 531.375,526.75"/>
    <polyline points="531.75,527.25 536.75,533.25 546.25,543.25"/>
    <polyline points="547.125,544.125 555.875,554.0 559.5,558.625 562.0,562.5 564.75,568.0 565.625,571.0 566.0,574.125"/>
    <polyline points="566.0,575.625 565.25,578.875 563.25,582.0 561.625,583.625 557.0,586.625 553.875,588.0 549.875,589.25 545.0,590.5 539.25,591.5 532.5,592.25 515.25,592.75 504.625,592.5 492.75,591.75 479.75,590.5 451.125,586.625 436.25,584.0 408.0,578.125 395.875,575.125 377.5,570.0"/>
    <polyline points="371.875,568.0 368.375,566.625 366.875,565.625 367.0,565.125 371.125,564.75 386.25,564.875 394.5,564.25 405.625,562.0 412.125,559.75 415.125,558.5 422.875,554.0 427.125,550.625 432.375,545.375"/>
    <polyline points="433.75,543.625 437.375,538.375 439.125,534.875 441.0,529.75 442.125,523.125 442.0,518.25 441.25,513.625 439.75,509.0 436.625,502.75"/>
    <polyline points="435.75,501.25 431.25,495.0 427.125,490.25 416.75,480.375 403.5,469.875 392.875,462.5 386.875,458.75"/>
    <polyline points="383.625,456.875 373.375,451.25 369.625,449.5 361.625,446.0 352.875,442.875 343.0,440.5 337.625,439.75 331.875,439.25 325.625,439.25 318.875,440.0 311.5,441.375 303.375,444.0 294.375,447.875 284.125,453.75 272.5,461.875 259.25,473.375 243.875,489.0 226.125,510.25 205.75,538.75 182.75,576.5 157.875,625.25"/>
    <polyline points="133.125,686.25 112.625,758.125 102.875,834.5 111.375,903.5 142.625,949.75 193.5,962.625 254.0,943.125 312.75,902.0 361.5,852.25 397.25,803.375 420.0,760.25 431.375,724.25 433.0,694.875 426.75,671.125 414.375,651.75 397.75,635.375 378.875,621.5 359.625,609.5 317.625,585.5 311.625,581.5 309.5,579.375 310.375,578.75 313.5,579.25 318.0,580.625"/>
    <polyline points="323.375,582.375 340.375,588.25 350.75,591.25 360.125,592.875 368.375,593.125 372.125,592.75 375.75,592.125 382.5,590.25 391.5,585.75 396.875,582.125 404.0,576.125 411.875,567.5"/>
    <polyline points="413.625,565.375 416.75,561.125 420.625,554.875 423.5,549.0 426.125,541.625 427.125,536.375 427.25,531.5 426.25,525.375 424.5,521.125"/>
    <polyline points="423.875,519.75 421.125,515.875 416.125,511.0 409.625,506.875 403.5,504.25 396.25,502.5 387.75,501.75 381.125,502.125 373.75,503.5 369.625,504.625"/>
    <polyline points="365.375,506.125 360.75,508.125 350.625,513.625 345.0,517.375 332.75,527.25 326.125,533.75 319.0,541.375 311.5,550.375 303.75,560.875 295.75,573.0 287.625,586.875 279.625,602.5 272.125,619.875 265.5,638.625 260.375,658.375 257.125,678.375 256.5,697.625 259.0,714.875 264.875,729.0 274.25,739.125 286.625,744.25 301.375,744.5 317.75,740.125 334.625,731.875"/>
    <polyline points="351.375,720.875 367.375,708.0 382.0,694.25 395.25,680.375 407.0,666.875 417.25,654.25 433.75,632.125 446.0,614.375 464.375,586.0 471.0,576.5 477.25,568.75 482.25,564.375"/>
    <polyline points="483.375,563.625 486.5,561.75 489.5,560.625 495.125,559.625 500.0,559.75 502.125,560.125 504.5,561.0"/>
    <polyline points="505.0,561.25 506.625,562.375 507.375,563.375 507.625,564.5 507.25,565.625 506.625,566.375 504.375,567.875 501.625,568.875 498.125,569.625"/>
    <polyline points="496.75,569.875 490.625,570.375 485.25,570.375 481.5,570.25 472.625,569.125 466.0,567.375 463.625,566.125 462.75,564.75"/>
    <polyline points="462.875,564.25 463.75,562.875 465.0,562.0 471.25,559.25 482.125,556.0 490.75,554.375"/>
    <polyline points="492.125,554.125 497.625,553.5 506.375,553.625 510.875,554.375 514.0,555.25 517.75,556.875 520.125,558.375"/>
    <polyline points="520.875,558.875 523.75,562.0 524.625,564.125 524.5,567.125 523.0,569.375 520.25,571.625 517.375,573.0 511.375,574.75 506.125,575.625"/>
    <polyline points="503.0,575.875 492.5,576.375 480.0,575.875 471.25,575.125 454.375,572.5 442.0,569.25 438.375,567.625 437.25,566.75 436.375,565.25 437.125,563.75 439.125,562.375"/>
    <polyline points="440.5,561.625 445.75,559.375 490.5,542.25"/>
    <polyline points="492.0,541.75 496.5,540.25 503.375,538.5 509.375,537.625 513.875,537.5 517.0,537.75 522.0,538.75"/>
    <polyline points="523.0,539.125 527.75,540.875 534.5,544.625 540.125,548.875 546.5,555.25"/>
    <polyline points="547.375,556.25 551.375,561.75 552.625,564.125 553.875,567.875 554.125,569.25 553.875,573.375 551.75,577.5 548.75,580.125 544.125,582.625 537.375,584.875 528.0,586.625"/>
    <polyline points="522.125,587.125 507.875,587.625 490.25,587.0 469.5,585.0 447.25,581.75 425.875,577.625 407.75,573.375 395.25,569.75 391.25,568.25 388.75,567.0 387.75,566.0 387.875,565.25 389.0,564.625 390.875,564.125 406.75,561.625"/>
    <polyline points="410.25,560.875 417.25,559.0 423.875,556.75 430.0,554.125 435.5,551.125 440.375,548.0 446.625,543.125 451.75,538.25 458.0,530.25 461.25,524.25"/>
    <polyline points="461.875,522.75 462.875,519.875 464.125,514.25 464.25,508.75 464.0,506.125 462.5,499.25 460.5,493.625 457.75,487.75"/>
    <polyline points="456.875,486.25 444.125,462.0 439.875,451.875 437.875,446.0 436.25,439.5 434.875,432.125 434.0,423.75"/>
    <polyline points="434.0,419.125 434.5,408.75 435.25,403.0 436.5,396.75 438.125,390.0 440.375,382.625 443.25,374.625 447.0,366.0 451.625,356.625 457.25,346.625 464.0,336.0 472.125,324.75 481.75,313.0 492.75,301.0 505.375,289.25 519.5,278.0 535.0,268.0 551.375,259.875 568.25,254.375 585.0,252.25 601.0,254.125 615.375,260.0 627.75,270.0 637.625,283.5 644.75,299.75"/>
    <polyline points="649.5,317.75 652.0,336.75 652.625,355.875 651.625,374.375 649.625,391.75 646.875,407.75 643.625,422.25 640.125,435.125 636.5,446.5 629.375,465.125 625.875,472.625 619.25,484.625 613.375,493.625 605.625,502.875 601.125,507.375 591.875,514.875"/>
    <polyline points="590.375,516.0 585.125,519.875 582.125,522.625 579.875,525.125 578.25,527.625 577.5,529.375 576.875,532.0 576.875,535.625 577.5,538.5"/>
    <polyline points="577.875,539.5 581.0,545.75 586.0,552.625 591.625,559.125 603.125,571.0"/>
    <polyline points="604.75,572.625 611.375,579.75 616.25,585.625 620.625,592.0 622.875,596.5 624.125,601.25 624.125,603.625 623.625,606.125 622.375,608.625 620.25,611.125 617.0,613.5 612.25,615.875 605.625,618.0 596.625,619.75 584.625,621.0 568.875,621.625 548.625,621.125"/>
    <polyline points="523.125,619.125 491.875,615.375 455.125,609.375 414.25,601.125 372.0,591.125 332.375,580.5 299.5,570.625 263.125,558.875 258.625,558.375 260.125,560.875 271.875,572.375 278.875,579.75 285.5,587.75 291.375,595.75 296.5,603.625 309.125,625.125 313.0,631.125 317.125,636.25 321.375,640.625 326.0,644.0 331.0,646.375 336.375,647.625"/>
    <polyline points="342.0,648.0 348.0,647.25 354.125,645.625 360.5,643.25 366.875,640.125 373.25,636.375 379.5,632.125 391.625,622.875 402.75,612.875 417.625,598.25 433.875,580.75 457.0,554.75"/>
    <polyline points="459.125,552.25 473.0,536.625 478.875,529.5 483.125,523.75 487.125,517.125"/>
    <polyline points="487.5,516.25 488.75,513.0 489.625,507.875 489.125,503.0 487.5,498.125"/>
    <polyline points="487.125,497.375 483.375,490.125 473.0,473.25"/>
    <polyline points="472.25,471.875 466.125,459.125 463.375,451.125 461.125,441.5 460.125,433.0 460.0,426.625 460.5,419.375 461.625,411.5"/>
    <polyline points="462.625,407.125 463.75,402.625 467.125,392.75 471.875,382.0 478.5,370.25 482.625,364.0 487.25,357.75 492.5,351.375 498.375,345.125 504.875,338.875 511.875,333.0 519.375,327.5 527.375,322.75 535.625,318.75 544.125,315.875 552.625,314.125 561.0,313.75 568.875,315.0 576.375,317.75 583.0,322.0 588.875,327.625 593.75,334.625 597.625,342.625"/>
    <polyline points="600.5,351.5 602.375,361.0 603.5,370.75 603.75,380.625 603.375,390.375 602.5,399.875 601.0,408.875 597.25,425.625 592.75,440.125 590.25,446.625 587.875,452.5 582.875,462.75 578.25,471.375 573.75,478.625 565.875,489.625 560.875,495.75"/>
    <polyline points="559.375,497.625 552.125,506.125 546.75,513.375 544.625,517.75 543.875,520.125 543.375,523.125"/>
    <polyline points="543.375,523.875 543.875,527.5 545.875,532.75 548.25,536.75 553.5,543.875"/>
    <polyline points="554.25,544.75 564.0,556.875 570.25,566.5 572.75,572.625 573.375,576.0 573.375,577.625"/>
    <polyline points="573.25,579.375 572.125,582.75 571.0,584.5 567.375,587.875 564.625,589.5 557.0,592.5 551.75,593.75 537.625,595.625 528.625,596.0 505.625,595.625 476.375,592.875 459.875,590.625 425.0,584.5 392.75,577.25 368.875,570.75 356.125,566.5"/>
    <polyline points="353.75,565.375 353.625,564.875 355.125,564.875 370.0,566.75 383.25,567.375 391.25,566.75 398.25,565.375 404.375,563.25 409.75,560.75 412.0,559.25 418.0,554.5 421.125,551.125 423.75,547.75"/>
    <polyline points="424.75,546.0 426.625,542.5 428.5,537.5 429.25,534.125 429.5,527.75 428.25,521.75 426.375,517.5 422.625,512.125 418.875,508.25"/>
    <polyline points="417.375,507.125 414.25,504.75 406.625,500.625 397.0,497.625 391.375,496.625 385.0,496.25 381.5,496.375 374.0,497.25 365.375,499.5 360.75,501.125 350.375,506.125 344.625,509.625 338.5,513.875 331.875,519.125"/>
    <polyline points="324.75,525.5 317.25,533.125 309.25,542.125 300.75,552.875 291.875,565.625 282.75,580.25 273.75,597.125 264.875,616.25 256.875,637.25 250.375,659.625 245.875,682.75 244.375,705.375 246.625,726.0 252.875,743.0 263.375,755.0 277.625,761.125 294.75,761.125 313.625,755.5 333.0,745.375 351.875,732.0 369.5,716.875 385.5,700.875 399.5,685.25 411.625,670.375 422.0,656.625 430.625,644.125"/>
    <polyline points="437.875,633.125 448.875,614.875 456.375,601.25 471.0,570.625 474.5,565.5 476.0,564.125 479.25,562.125"/>
    <polyline points="480.125,561.75 482.75,560.625 485.5,559.875 491.25,558.875 495.875,558.625 502.5,559.375"/>
    <polyline points="503.25,559.625 505.875,560.5 508.25,562.0 509.125,563.125 509.5,564.375 508.875,566.125 507.625,567.375 505.5,568.5"/>
    <polyline points="504.5,568.875 501.125,569.875 496.75,570.625 491.5,571.0 481.375,570.875 471.25,569.625 464.875,568.125 462.5,567.125"/>
    <polyline points="461.625,566.75 460.125,565.25 460.0,564.25 461.125,562.875 463.5,561.375 472.125,557.875 482.75,554.875"/>
    <polyline points="484.25,554.5 493.25,552.75 500.375,552.125 505.625,552.125 510.5,552.625 517.0,554.375"/>
    <polyline points="518.0,554.875 521.75,556.75 524.125,558.5 526.625,561.125 527.75,563.375 528.25,565.875 527.625,568.375 525.75,570.875 523.625,572.5"/>
    <polyline points="522.125,573.25 518.625,574.625 514.0,575.875 508.125,576.875 492.875,577.625 478.625,577.0 468.625,576.0 449.5,572.875 438.625,570.0 436.0,569.125 432.375,567.375"/>
    <polyline points="431.375,566.5 430.875,565.75 430.875,564.875 431.375,564.125 433.375,562.625 438.375,560.375 461.625,551.625 476.625,545.125"/>
    <polyline points="478.5,544.25 491.875,538.375 499.875,535.375 507.625,533.375 511.5,532.875"/>
    <polyline points="512.5,532.875 516.0,532.875 522.75,534.25 528.375,536.625 533.375,539.625"/>
    <polyline points="534.125,540.125 540.25,544.75 546.625,550.625 552.875,557.875 556.0,562.75"/>
    <polyline points="556.625,564.0 558.25,568.0 558.75,570.75 558.375,575.125 557.0,578.0 555.875,579.5 552.5,582.375 547.25,585.0 543.625,586.125 539.375,587.25 528.5,588.875 513.75,589.625 495.0,589.125 472.625,587.0"/>
    <polyline points="460.375,585.375 447.75,583.5 435.375,581.25 412.375,576.375 402.625,574.0 388.125,569.75 380.875,566.875 379.625,565.875 379.875,565.125 381.125,564.75 396.75,563.125 408.0,561.125 411.625,560.25 418.375,558.0 424.5,555.375"/>
    <polyline points="427.25,553.875 434.75,549.125 440.75,544.125 444.125,540.625 448.125,535.5 452.0,528.875 453.875,524.125 455.25,517.875 455.5,513.25"/>
    <polyline points="455.375,511.875 455.125,508.875 454.125,504.375 453.25,501.375 450.625,495.25 445.375,485.5 435.75,470.375"/>
    <polyline points="434.375,468.25 430.125,461.25 425.875,453.25 421.75,444.0 420.5,440.5 418.25,432.875 416.5,424.0 415.875,419.125 415.5,407.875 415.875,401.5 416.75,394.375 418.25,386.625 420.375,378.0 423.375,368.5 427.5,358.0 432.75,346.375 439.5,333.5"/>
    <polyline points="448.125,319.375 458.625,304.125 471.625,287.75 487.0,270.75 505.125,253.625 525.875,237.375 548.75,223.125 573.125,212.625 597.875,207.125 621.625,208.125 642.75,216.375 660.375,231.5 673.5,252.625 682.125,277.875 686.875,305.375 688.125,333.125 687.0,359.875 684.25,384.5 680.5,406.625 676.25,425.875 671.75,442.375 667.25,456.375 663.0,468.0 658.875,477.625 654.875,485.5 651.125,492.0"/>
    <polyline points="647.625,497.125 644.125,501.25 640.875,504.5 637.625,507.0 634.5,509.0 628.5,511.625 622.75,513.125 617.25,513.875 596.125,515.125 592.25,515.625 585.75,517.125"/>
    <polyline points="584.25,517.625 578.25,520.375 574.875,523.125 573.125,525.375 571.625,528.625 571.0,532.125 571.625,536.75"/>
    <polyline points="572.0,537.75 574.125,542.75 578.5,549.5 582.25,554.375 594.5,568.625"/>
    <polyline points="595.875,570.25 601.375,577.25 605.125,582.875 607.875,589.125 608.625,593.5 608.0,597.875 606.875,600.25 605.0,602.5 602.25,604.75 598.5,606.875 593.25,608.875 586.375,610.625 577.375,612.125 565.75,613.125 551.125,613.375 532.875,612.75 510.75,611.0"/>
    <polyline points="484.375,607.875 454.375,603.125 421.75,596.875 388.375,589.375 356.875,581.25 329.875,573.625 289.25,561.25 288.125,561.625 307.625,576.125 313.625,581.0 340.375,604.25 347.125,608.75 353.5,611.375 356.875,612.0"/>
    <polyline points="360.125,612.25 363.5,612.125 370.25,610.625 377.125,607.75 384.0,603.875 393.875,596.5 403.125,588.25 408.75,582.5 416.375,574.0 422.875,565.75 429.875,555.625"/>
    <polyline points="431.375,553.25 436.25,544.375 438.875,538.25 440.125,534.5 441.375,529.0 441.875,523.875 441.875,520.5 441.5,517.25 440.375,512.5 438.625,507.875"/>
    <polyline points="437.875,506.25 434.125,500.125 429.375,493.875 421.625,486.0 416.0,481.0 409.75,476.0 400.0,469.125 394.5,465.625"/>
    <polyline points="391.625,463.875 378.75,456.875 367.5,452.125 359.0,449.375 349.5,447.375 344.375,446.75 338.75,446.5 332.75,446.75 326.375,447.625 319.25,449.125 311.5,451.75 302.875,455.625 293.125,461.125 282.25,468.75 270.0,479.25 255.875,493.375 239.75,512.125 221.5,537.0 201.125,569.375"/>
    <polyline points="179.0,610.875 156.625,662.375 136.75,723.375 124.125,790.25 124.625,855.0 143.0,906.0 179.875,932.5 229.875,930.375 283.75,904.375 333.25,864.375 373.5,820.0 403.0,777.625 422.0,740.5 432.0,709.5 434.25,684.0 430.375,663.125 421.625,646.0 409.375,631.75 395.125,619.625 380.25,609.25 344.0,587.125 337.25,582.625 333.625,579.625 332.625,577.75"/>
    <polyline points="333.875,576.75 336.625,576.625 340.625,577.0 360.375,579.5 370.125,580.0 378.75,579.5 382.75,579.0 386.5,578.125 393.375,576.0 399.25,573.25 404.5,570.0 411.125,564.625 414.75,560.875 417.875,557.0"/>
    <polyline points="419.25,555.125 422.625,549.5 425.125,544.0 426.625,538.75 427.25,533.75 427.125,529.125 425.625,523.125 424.375,520.375 420.75,515.125"/>
    <polyline points="419.5,513.875 415.625,510.375 410.75,507.25 406.875,505.375 402.625,503.75 392.5,501.75 386.375,501.625 379.625,502.125 376.0,502.75 367.875,505.0 358.75,508.75 348.375,514.75"/>
    <polyline points="342.625,518.75 336.5,523.625 330.0,529.5 323.125,536.375 315.875,544.625 308.25,554.125 300.25,565.375 292.125,578.25 284.0,592.875 276.125,609.375 268.875,627.5 262.75,646.75 258.25,666.875 256.0,686.75 256.625,705.5 260.5,721.75 267.875,734.375 278.625,742.5 292.125,745.625 307.75,743.875 324.625,737.75 341.625,728.125 358.125,716.125 373.75,702.625 387.875,688.75 400.5,674.875"/>
    <polyline points="411.625,661.75 429.625,638.25 436.75,628.125 452.75,604.375 462.875,588.5 471.625,575.5 476.25,569.75 478.875,567.0 482.375,564.125 486.625,561.75"/>
    <polyline points="487.625,561.25 491.375,560.125 495.0,559.625 498.375,559.625 502.625,560.375 506.125,562.125"/>
    <polyline points="506.375,562.375 507.375,564.125 507.0,565.625 506.375,566.375 504.125,567.875 498.0,569.625 492.125,570.25"/>
    <polyline points="490.5,570.25 487.0,570.375 479.75,570.0 474.5,569.375 468.5,568.0 465.375,566.875 463.5,565.625 463.125,564.25 464.125,562.875"/>
    <polyline points="464.625,562.5 468.0,560.625 475.25,558.0 488.0,554.875 496.25,553.75"/>
    <polyline points="497.625,553.75 504.0,553.625 508.625,554.125 512.875,555.125 516.75,556.625 519.25,558.0 521.375,559.625 522.5,560.875"/>
    <polyline points="523.0,561.5 524.25,564.25 524.0,567.25 522.5,569.5 520.75,571.0 518.125,572.375 514.75,573.625 508.0,575.125 502.125,575.875 491.5,576.25"/>
    <polyline points="487.625,576.125 470.5,574.875 454.125,572.25 444.625,569.875 442.25,569.0 438.875,567.375 437.25,565.875 437.25,564.375 438.75,563.0 441.25,561.5 446.625,559.25"/>
    <polyline points="448.625,558.5 466.25,552.0 487.625,543.625 497.125,540.5"/>
    <polyline points="498.5,540.125 506.375,538.5 510.0,538.125 514.375,538.125 519.625,538.75 524.625,540.125 526.625,541.0"/>
    <polyline points="527.625,541.375 530.5,542.75 536.25,546.375 541.0,550.125 546.375,555.625 550.375,561.0"/>
    <polyline points="551.125,562.25 552.75,565.875 553.375,568.5 553.375,572.5 552.5,575.25 550.5,577.875 549.0,579.25 547.25,580.5 542.125,583.0 534.875,585.125 524.875,586.625 518.75,587.125 503.875,587.375 485.75,586.375"/>
    <polyline points="475.5,585.5 453.875,582.625 432.25,578.75 422.25,576.625 413.25,574.5 399.25,570.625 391.125,567.625 389.25,566.5 388.75,565.625 389.25,565.0 390.625,564.375 405.375,561.875 416.0,559.5 425.875,556.125"/>
    <polyline points="428.875,554.75 437.25,550.375 444.125,545.75 448.125,542.5 453.125,537.625 458.25,531.25 461.0,526.625 463.125,522.25 464.875,516.625"/>
    <polyline points="465.125,515.25 465.5,508.5 465.25,505.875 464.125,500.5 461.25,492.25 455.125,480.0"/>
    <polyline points="454.125,478.25 448.125,467.0 442.875,455.375 440.0,447.125 437.5,437.375 436.375,429.75 435.875,421.125 436.375,411.25 438.0,399.75"/>
    <polyline points="439.5,393.375 444.0,378.875 447.375,370.625 451.5,361.875 456.5,352.5 462.625,342.375 469.875,331.75 478.5,320.625 488.5,309.25 500.0,297.875 512.875,286.75 527.125,276.625 542.5,267.875 558.5,261.375 574.625,257.625 590.375,257.375 605.0,260.875 618.0,268.25 628.75,279.25 637.25,293.375 643.25,309.625 647.0,327.375 648.625,345.625 648.625,363.875 647.375,381.25"/>
    <polyline points="645.25,397.5 642.375,412.5 639.125,426.0 635.75,438.125 628.625,458.125 621.75,473.375 618.5,479.5 612.5,489.375 604.5,499.875 599.875,504.875 595.75,508.75 583.625,519.0"/>
    <polyline points="582.625,519.875 579.75,522.75 577.125,526.25 575.625,529.75 575.25,532.5 575.5,536.25 576.25,539.125 578.125,543.25"/>
    <polyline points="578.75,544.25 580.75,547.625 585.25,553.5 608.625,579.375"/>
    <polyline points="610.25,581.375 615.875,589.5 617.0,591.625 618.625,596.125 619.0,600.75 618.5,603.25 617.375,605.625 615.5,608.0 612.5,610.375 608.125,612.625 602.125,614.75 594.125,616.625 583.375,618.0 569.375,618.75 551.5,618.625 529.0,617.375 501.375,614.5 468.625,609.75 431.75,602.875 392.625,594.25 354.375,584.625"/>
    <polyline points="320.75,575.125 278.0,561.625 269.75,559.25 268.375,560.0 271.375,563.125 283.625,574.125 296.5,587.5 307.125,601.0 319.375,618.25 323.125,623.0 326.875,627.0 330.875,630.375 334.875,632.875 339.25,634.75 343.75,635.75 348.625,635.875 353.625,635.375 358.75,634.125 364.0,632.25 369.25,629.875"/>
    <polyline points="374.625,626.875 379.875,623.625 385.125,619.875 395.125,612.0 404.375,603.625 417.0,591.125 436.875,569.0 448.875,554.375 457.75,542.625"/>
    <polyline points="459.25,540.625 464.25,533.125 467.125,528.25 469.25,523.75 471.375,518.25 472.75,510.75 472.5,504.75"/>
    <polyline points="472.375,503.625 470.625,496.375 467.5,488.875 457.25,468.75"/>
    <polyline points="456.375,466.875 451.75,456.25 448.5,446.0 446.25,433.25 445.75,421.625 446.5,412.5 447.25,407.5 448.25,402.125 449.75,396.375 451.5,390.25 453.875,383.75 460.375,369.25"/>
    <polyline points="464.625,361.375 469.75,353.0 475.75,344.375 482.625,335.375 490.625,326.25 499.625,317.125 509.625,308.25 520.625,300.0 532.375,292.625 544.75,286.75 557.5,282.625 570.125,280.75 582.25,281.5 593.625,284.875 603.75,291.0 612.25,299.625 619.125,310.375 624.25,323.0 627.625,336.625 629.5,351.0 630.125,365.5 629.625,379.75 628.25,393.375 626.25,406.125 623.75,418.0 620.875,428.875"/>
    <polyline points="617.875,438.625 614.875,447.5 608.625,462.5 602.75,474.25 597.25,483.625 592.25,491.0 587.75,496.875 578.625,507.375 572.0,514.375 568.375,519.0"/>
    <polyline points="567.625,520.0 565.125,525.0 564.375,527.75 564.25,531.5 564.625,534.375 565.5,537.375 567.375,541.375 569.25,544.5"/>
    <polyline points="570.0,545.625 573.125,550.25 586.0,566.5 589.5,571.375 592.625,576.625 595.0,582.25"/>
    <polyline points="595.5,584.25 595.75,586.25 595.5,590.375 594.75,592.375 593.5,594.5 591.625,596.625 589.0,598.625 585.375,600.5 580.625,602.375 574.5,604.0 566.75,605.375 557.0,606.375 544.875,606.875 530.0,606.625 512.375,605.625 491.625,603.5 468.125,600.375 442.375,596.0 415.375,590.75 388.875,584.625 364.625,578.5 344.125,572.75 313.25,563.25"/>
    <polyline points="312.125,563.125 328.25,571.5 348.875,581.5 353.125,583.375 360.75,586.125 367.25,587.625 372.875,588.0 380.25,586.875 384.625,585.125 388.75,582.875 394.375,578.75"/>
    <polyline points="396.125,577.125 402.25,570.625 404.75,567.25 408.125,562.125 410.75,557.0 413.0,550.625 413.875,546.125 413.75,540.625 413.125,538.125"/>
    <polyline points="412.75,536.875 411.75,534.625 410.25,532.625 408.5,530.625 406.25,529.0 402.25,527.0 397.25,525.75 391.25,525.5 386.625,526.0 381.375,527.25 375.625,529.375 369.25,532.5"/>
    <polyline points="365.75,534.625 362.125,537.0 354.5,543.125 346.25,551.125 341.875,555.875 337.375,561.375 328.5,574.125 324.0,581.375 319.75,589.375 315.625,598.0 312.0,607.125 308.875,616.5 306.375,626.125 304.75,635.875 304.125,645.125 304.5,653.875 306.25,661.75 309.25,668.375 313.625,673.375 319.125,676.875 325.75,678.5 333.375,678.375 341.625,676.5"/>
    <polyline points="350.25,673.125 359.125,668.375 368.0,662.75 376.75,656.25 385.25,649.25 393.25,642.125 408.0,627.5 420.875,613.75 445.75,585.625 460.125,569.875 468.75,561.125 478.375,552.5"/>
    <polyline points="480.5,550.875 489.875,544.25 493.125,542.25 499.0,539.375 502.875,537.875 508.875,536.375 515.125,536.0"/>
    <polyline points="516.125,536.0 521.875,536.875 528.25,539.25 535.5,543.5 539.125,546.25"/>
    <polyline points="540.0,547.125 544.75,551.25 549.25,556.125 553.875,563.0 555.5,566.875 556.0,569.5 556.125,572.25 555.5,575.125"/>
    <polyline points="554.75,576.5 552.5,579.375 550.875,580.75 546.25,583.375 539.375,585.625 534.875,586.625 523.625,588.0 516.75,588.375 500.0,588.25 479.875,586.875 468.625,585.625 445.25,582.125 433.75,580.0 412.75,575.5 396.875,571.25 387.375,567.875"/>
    <polyline points="385.125,566.75 384.25,565.75 384.5,565.125 385.875,564.625 401.125,562.5 408.375,561.125 415.5,559.25 422.125,557.0 431.0,552.875 433.625,551.375 440.5,546.5 447.875,539.875"/>
    <polyline points="449.375,538.125 453.25,533.25 455.25,530.0 458.25,523.75 459.625,519.25 460.375,513.375 460.375,509.125 459.75,504.875 458.625,500.625"/>
    <polyline points="458.125,499.125 454.375,490.125 438.75,462.0 434.0,451.5"/>
    <polyline points="432.875,448.625 430.625,442.125 429.75,438.625 427.5,426.75 427.125,422.125 427.0,411.875 428.25,399.875 429.5,393.0 431.375,385.5 433.875,377.375 437.25,368.5 441.5,358.75 446.875,348.125 453.5,336.75 461.5,324.375 471.25,311.375 482.875,297.75 496.25,284.0 511.625,270.5 528.75,257.875 547.375,247.25"/>
    <polyline points="566.875,239.375 586.625,235.375 605.5,236.125 622.75,241.875 637.5,252.75 649.25,268.125 657.625,287.125 663.0,308.25 665.625,330.375 666.0,352.5 664.625,373.625 662.125,393.25 658.875,411.0 655.125,426.875 651.25,440.625 647.25,452.625 643.375,463.0 639.625,471.75 635.875,479.25 632.5,485.5 626.0,495.25 620.125,502.25 614.875,507.125"/>
    <polyline points="612.5,509.0 605.75,513.375 592.125,519.875 587.375,522.5 583.0,526.0 580.5,529.75"/>
    <polyline points="580.25,530.625 579.625,533.125 579.625,535.75 580.5,539.5 581.25,541.375 582.75,544.5 585.625,548.875 591.625,556.0"/>
    <polyline points="592.75,557.25 596.625,561.375 622.375,586.375 629.75,595.0 634.125,602.0"/>
    <polyline points="635.125,604.5 635.75,607.125 635.875,609.625 635.5,612.25 634.25,614.875 632.0,617.625 628.5,620.125 623.125,622.625 615.5,624.75 605.0,626.625 590.625,627.75 571.5,627.875 546.5,626.625 514.625,623.375 475.5,617.75 429.875,609.125 380.5,597.875 332.0,585.0 290.375,572.375 242.5,556.625 236.25,555.625 237.75,558.875 251.125,574.25 258.625,584.375"/>
    <polyline points="265.5,595.25 271.25,606.5 276.125,617.625 284.625,639.0 288.875,648.625 293.5,657.125 298.75,664.375 304.75,670.0 311.5,674.0 319.0,676.125 327.25,676.375 336.0,675.0 345.0,672.125 354.125,667.875 363.25,662.5 372.125,656.5 389.0,642.875 396.75,635.75 404.125,628.625 417.25,615.125 433.625,597.25"/>
    <polyline points="438.375,592.0 454.125,574.625 460.625,567.875 471.625,557.375 480.5,550.0 486.25,545.875 491.375,542.625 498.75,538.875"/>
    <polyline points="500.125,538.375 503.875,537.0 508.5,535.875 513.75,535.375 519.5,535.875 525.875,537.75"/>
    <polyline points="526.75,538.125 532.125,540.875 539.375,546.0 544.0,550.125 549.375,555.875"/>
    <polyline points="550.25,557.0 554.125,562.75 555.375,565.25 556.25,567.875 556.625,570.625 556.5,573.5 555.5,576.375 554.625,577.75 553.375,579.125 549.875,581.875 544.375,584.375 536.5,586.5 525.625,588.125"/>
    <polyline points="518.75,588.5 511.125,588.75 502.375,588.625 492.875,588.125 471.25,586.125 447.625,582.75 424.625,578.375 405.125,573.75 391.5,569.75 387.25,568.125 383.375,566.0 383.625,565.25 384.75,564.625 403.375,562.125 407.125,561.375"/>
    <polyline points="410.75,560.5 421.0,557.375 427.0,554.75 432.5,551.75 437.375,548.625 441.625,545.25 446.875,540.25 451.125,535.25 455.25,528.75 457.875,522.5"/>
    <polyline points="458.375,521.0 459.5,513.625 459.375,509.25 458.75,505.0 457.125,499.125 454.75,493.25 449.625,483.625"/>
    <polyline points="448.625,481.875 440.875,468.5 435.875,459.125 432.25,451.0 428.875,441.5 427.0,434.125 425.625,425.75 425.125,416.0 425.625,404.625"/>
    <polyline points="426.5,398.125 427.875,391.125 429.875,383.375 432.5,374.875 436.125,365.625 440.625,355.5 446.375,344.5 453.5,332.5 462.125,319.625 472.5,306.0 484.875,291.875 499.25,277.5 515.625,263.625 533.875,251.0 553.5,240.5 574.0,233.375 594.25,230.5 613.5,232.75 630.75,240.5 645.0,253.5 656.0,271.0 663.5,291.625 667.875,314.25 669.625,337.375 669.125,359.875 667.25,381.25"/>
    <polyline points="664.25,400.75 660.625,418.25 656.75,433.625 652.625,446.875 648.625,458.375 644.75,468.125 641.0,476.375 637.375,483.375 630.625,494.0 627.5,498.125 621.75,504.375 619.0,506.75 616.5,508.75 611.625,511.875 607.25,514.125 594.625,519.125"/>
    <polyline points="593.125,519.75 589.25,521.5 586.0,523.375 582.125,526.75 580.625,529.0 579.75,531.375 579.375,534.875 580.0,538.5"/>
    <polyline points="580.25,539.5 582.625,544.5 585.5,548.875 588.25,552.375 595.125,560.0 605.625,570.25"/>
    <polyline points="607.375,571.875 618.25,582.5 625.75,590.625 629.25,595.125 632.25,599.75 634.375,604.625 634.875,607.125 634.875,609.75 634.25,612.375 632.875,615.0 630.375,617.625 626.5,620.125 620.75,622.5 612.5,624.625 601.375,626.375"/>
    <polyline points="586.25,627.25 566.125,627.25 540.125,625.625 507.125,622.0 467.125,615.875 421.125,606.875 372.125,595.375 325.0,582.625 285.625,570.5 242.625,556.375 238.0,556.125 240.375,559.875 254.125,575.5 261.5,585.5 268.125,596.25 273.75,607.125 278.625,618.125 287.0,638.625 291.25,647.875 295.875,656.0 301.0,662.875 307.0,668.125 313.625,671.875"/>
    <polyline points="321.0,673.75 329.0,674.0 337.5,672.625 346.25,669.625 355.25,665.5 364.125,660.375 372.75,654.375 381.125,648.0 389.25,641.25 404.0,627.375 410.625,620.75 422.625,608.0 449.875,578.0 459.875,567.5 468.25,559.25"/>
    <polyline points="470.75,557.0 479.75,549.375 485.375,545.125 492.0,540.875 496.375,538.5 501.625,536.25 506.125,534.75 509.375,534.125"/>
    <polyline points="510.375,534.0 516.0,533.75 519.5,534.125 526.25,536.25 532.125,539.375"/>
    <polyline points="533.0,540.0 539.125,544.375 545.5,550.125 550.875,556.0 555.0,561.875"/>
    <polyline points="555.625,563.125 557.375,567.0 558.0,569.75 558.0,574.0 557.0,576.875 556.125,578.375 553.25,581.125 551.125,582.625 545.5,585.125 537.375,587.25 532.125,588.125 518.875,589.25 501.75,589.125 480.75,587.75"/>
    <polyline points="469.0,586.375 444.5,582.75 432.25,580.5 410.125,575.625 393.5,571.125 387.75,569.25 381.375,566.625 380.625,565.625 381.125,565.0 382.625,564.625 398.625,562.875 409.75,560.75 420.0,557.5 423.0,556.125"/>
    <polyline points="426.0,554.75 431.375,551.75 438.125,546.875 442.0,543.5 446.75,538.375 450.375,533.375 453.125,528.375 455.0,523.625 456.125,519.0 456.5,514.5"/>
    <polyline points="456.5,513.0 456.0,507.0 453.875,499.625 452.0,495.125 445.75,483.625 438.75,472.375"/>
    <polyline points="437.5,470.375 432.125,461.25 428.0,453.25 426.625,450.375 422.875,440.625 420.75,433.0 419.875,428.75 419.125,424.25 418.375,414.0 418.375,408.125 419.75,394.875 421.25,387.25 423.375,378.875 426.375,369.625 430.375,359.375 435.625,348.125"/>
    <polyline points="442.25,335.625 450.5,322.125 460.625,307.5 473.0,291.875 487.625,275.75 504.75,259.5 524.375,244.0 546.0,230.5 569.0,220.125 592.375,214.5 615.0,214.75 635.625,221.5 652.875,234.75 666.125,253.75 675.25,277.0 680.5,302.625 682.625,329.125 682.125,354.875 679.875,378.875 676.5,400.75 672.5,420.0 668.125,436.75 663.75,451.0 659.5,463.0 655.375,473.125 651.5,481.5"/>
  </g>
</svg>
