<?xml version="1.0" encoding="utf-8" ?>
<svg xmlns="http://www.w3.org/2000/svg" xmlns:cc="http://creativecommons.org/ns" xmlns:dc="http://purl.org/dc/elements/1.1/" xmlns:ev="http://www.w3.org/2001/xml-events" xmlns:inkscape="http://www.inkscape.org/namespaces/inkscape" xmlns:rdf="http://www.w3.org/1999/02/22-rdf-syntax-ns" xmlns:sodipodi="http://sodipodi.sourceforge.net/DTD/sodipodi-0.dtd" xmlns:xlink="http://www.w3.org/1999/xlink" baseProfile="tiny" height="27.09333333cm" version="1.2" viewBox="0 0 1024.0 1024.0" width="27.09333333cm">
  <metadata>
    <rdf:RDF>
      <cc:Work>
        <dc:format>image/svg+xml</dc:format>
        <dc:source>vpype read './original_svgs/Strange Attractors #467.svg' linemerge linesimplify write './Strange Attractors #467.svg'
</dc:source>
        <dc:date>2024-08-05T01:36:01.900363</dc:date>
      </cc:Work>
    </rdf:RDF>
  </metadata>
  <defs/>
  <g fill="none" id="layer1" inkscape:groupmode="layer" inkscape:label="1" stroke="black" stroke-width="0.7mm" style="display:inline">
    <polyline points="663.0,462.625 652.25,458.375 646.5,456.5 639.75,455.125 636.125,454.875 631.625,455.5 627.125,457.25 623.5,459.875 621.0,462.625"/>
    <polyline points="620.375,463.25 618.5,466.625 618.125,467.875 617.875,469.5 618.125,471.0 618.875,472.125 620.0,472.875 622.125,473.25 623.5,473.125"/>
    <polyline points="624.25,473.0 627.625,472.0 631.625,470.0 637.0,466.125 643.75,459.375 646.75,455.5 649.25,451.25"/>
    <polyline points="650.0,449.875 651.875,444.5 652.125,441.0 651.25,438.25 649.25,436.625 646.25,436.25 642.375,437.0 638.0,438.875 633.25,441.875"/>
    <polyline points="631.625,443.0 628.375,445.375 620.625,452.25 614.0,459.5 608.875,466.375 606.0,471.375 604.25,475.75"/>
    <polyline points="604.0,476.875 603.75,480.5 604.25,482.75 605.5,484.625 607.25,486.0 610.75,487.125 614.125,487.25 616.625,487.0 621.125,485.875"/>
    <polyline points="622.75,485.375 629.875,482.25 638.125,477.125 642.5,473.75 647.0,469.75 653.75,462.625 660.25,454.125 665.75,444.875 668.625,438.5 670.625,432.125"/>
    <polyline points="671.25,429.125 671.5,423.625 671.125,421.25 670.5,419.125 669.5,417.375 668.125,415.875 664.625,414.125 662.375,413.75 657.125,414.25 648.0,417.625 641.5,421.25 634.75,425.75 621.75,436.125 612.875,444.375"/>
    <polyline points="610.125,447.0 598.0,459.625 592.125,466.375 585.75,474.375 581.0,481.25 578.375,485.875 576.125,491.125 575.5,493.625"/>
    <polyline points="575.25,494.75 575.0,496.875 575.25,499.875 576.5,503.375 578.25,505.625 581.5,508.25 584.75,509.75 588.625,511.0 593.25,511.875"/>
    <polyline points="595.0,512.0 600.625,512.125 605.0,511.875 612.25,510.625 617.625,509.125 623.625,507.0 630.125,504.25 633.5,502.5 644.875,495.5 653.125,489.375 661.875,481.625 666.5,477.0 675.75,466.625"/>
    <polyline points="680.5,460.625 689.625,447.25 697.875,432.25 701.375,424.375 704.375,416.25 706.75,408.25 708.375,400.5 709.0,393.125 708.75,386.375 707.375,380.625 705.0,375.75 701.5,372.125 697.125,369.75 691.75,368.75 685.75,369.0 679.125,370.5 672.125,373.125 664.875,376.75 650.25,386.0 643.0,391.375 636.125,397.0 622.875,408.625"/>
    <polyline points="616.875,414.25 611.0,419.75 582.75,447.875 562.75,466.875 548.0,479.125 536.75,487.125"/>
    <polyline points="535.125,488.125 529.25,491.75 520.75,496.0 514.75,498.25 507.875,499.75"/>
    <polyline points="507.0,499.75 502.375,500.0 498.5,499.625 494.625,499.0 487.25,496.875"/>
    <polyline points="486.375,496.5 478.625,493.625 456.625,484.125"/>
    <polyline points="455.0,483.375 433.75,474.625 418.5,469.25 406.5,465.75 392.625,462.625"/>
    <polyline points="388.875,462.0 381.0,460.875 368.5,460.0 359.875,460.375 351.375,461.5 347.375,462.5 343.5,463.875 340.0,465.625 336.875,467.75 334.25,470.375 332.375,473.375 331.25,476.875 331.0,480.875 331.625,485.25 333.375,490.0 336.125,495.0 339.875,500.375 344.625,505.875 350.25,511.375 356.5,516.75 363.375,522.0"/>
    <polyline points="370.5,527.125 385.5,536.0 400.125,543.375 407.125,546.375 420.25,551.0 431.875,554.0 437.125,555.0 442.125,555.625 451.0,556.125 455.0,556.125 462.375,555.5 474.5,553.0 479.625,551.375 486.375,548.75"/>
    <polyline points="488.375,547.875 509.0,538.375 517.5,535.5 523.125,534.375"/>
    <polyline points="524.25,534.125 530.75,533.625 537.5,533.875 548.625,535.375 554.125,536.5"/>
    <polyline points="555.625,536.75 571.0,539.375 586.375,540.875 597.25,540.875 606.75,540.0 613.75,538.75"/>
    <polyline points="617.625,537.875 621.625,536.875 630.25,534.0 640.0,529.75 645.25,527.125 656.875,520.125 663.25,515.75 677.0,504.625 684.5,497.625 692.375,489.5 700.625,480.25 709.125,469.625 717.75,457.625 726.5,444.125 734.875,429.25 742.75,413.0 749.75,395.875 755.25,378.25 758.875,360.75 760.125,344.25 758.5,329.625 753.875,317.875"/>
    <polyline points="746.25,309.5 736.0,305.25 723.625,304.875 709.75,308.375 695.0,314.875 680.25,323.875 666.0,334.375 652.375,345.875 639.875,357.5 628.5,369.125 618.125,380.125 608.875,390.5 580.75,423.5 566.0,440.0 558.125,448.125 551.25,454.25 548.125,456.875 542.25,461.0"/>
    <polyline points="539.5,462.75 534.25,465.5 527.0,468.375 524.625,469.125 515.75,470.875 511.5,471.25 503.25,471.125 497.125,470.375 491.125,469.25 485.125,467.625"/>
    <polyline points="483.125,467.0 475.0,463.875 467.0,460.125 460.875,456.75 452.875,451.625 443.625,444.0 439.125,438.875 436.875,435.25"/>
    <polyline points="436.0,433.375 435.5,431.375 435.75,427.625 436.625,425.625 438.125,423.75 440.5,422.0 443.875,420.25 448.375,418.75 454.25,417.375 462.0,416.375 471.625,415.75 483.625,415.75 498.375,416.375 515.875,418.0 536.5,420.75 560.0,424.625 585.75,429.75 612.75,436.125 639.5,443.375 664.25,450.75 685.25,457.875 701.25,463.75 712.0,468.125 719.125,471.375"/>
    <polyline points="717.625,470.625 714.125,468.625 704.5,462.25 694.875,454.75 686.75,447.375 674.75,435.375 670.0,431.125 665.375,428.125 663.125,427.0 658.5,425.875 653.5,425.875 651.0,426.25 645.75,427.875 640.5,430.25"/>
    <polyline points="637.75,431.75 632.5,435.125 624.75,440.875 617.5,447.125 611.125,453.375 605.375,459.5 600.5,465.25 594.25,473.875 591.625,478.5"/>
    <polyline points="590.875,479.875 588.5,486.25 588.125,490.625 588.625,493.375 590.375,496.625 592.5,498.5 595.375,500.0 599.0,501.0"/>
    <polyline points="600.25,501.25 603.25,501.5 608.375,501.25 612.25,500.75 616.5,499.75 621.25,498.25 626.25,496.25 631.875,493.5 637.75,490.0 647.5,483.0 657.875,473.625 665.0,465.875"/>
    <polyline points="668.5,461.5 675.5,452.0 678.75,446.875 684.625,435.875 689.125,424.5 690.75,419.0 691.875,413.5 692.375,408.375 692.375,403.625 691.5,399.375 690.125,395.75 688.0,392.875 685.25,390.75 681.875,389.375 678.0,388.875 673.625,389.25 668.75,390.25 658.5,394.5 653.125,397.5 647.625,400.875 636.875,408.625"/>
    <polyline points="631.625,412.75 621.5,421.375 599.875,441.75 556.0,486.375"/>
    <polyline points="554.625,487.875 547.875,495.25 543.0,501.75 540.375,507.5 540.125,510.0"/>
    <polyline points="540.125,510.5 540.625,513.25 541.375,514.75 543.25,517.125 546.625,519.875 551.125,522.5"/>
    <polyline points="552.0,522.875 559.25,526.0 563.0,527.25 571.875,529.5 579.0,530.75 589.75,531.5"/>
    <polyline points="592.125,531.5 597.375,531.375 609.125,530.0 615.875,528.5 623.375,526.25 636.125,521.0 645.75,515.75 651.0,512.5 662.25,504.25 668.375,499.25 681.25,487.0 688.125,479.5 695.25,471.125 702.375,461.75 709.5,451.25"/>
    <polyline points="716.625,439.875 723.25,427.375 729.375,414.25 734.625,400.625 738.75,386.75 741.375,373.125 742.125,360.375 740.875,349.0 737.375,339.625 731.875,332.75 724.25,328.625 714.875,327.375 704.375,328.875 692.875,332.875 681.125,338.75 669.25,346.375 657.75,354.875 646.75,364.0 636.375,373.375 626.75,382.75 609.75,400.25 583.625,428.5"/>
    <polyline points="578.375,434.125 569.0,443.75 560.875,451.5 550.25,460.375 541.25,466.75 530.625,472.375 525.75,474.25 516.75,476.875 506.25,478.25"/>
    <polyline points="504.125,478.25 500.125,478.25 492.25,477.625 486.25,476.625 478.125,474.625 465.5,470.375 451.5,464.5"/>
    <polyline points="449.0,463.375 409.0,444.875 387.25,435.75 376.625,431.875 364.625,428.0 342.875,422.375"/>
    <polyline points="334.375,420.75 315.125,418.0 304.25,417.125 292.625,416.875 280.25,417.25 267.5,418.75 254.625,421.625 242.5,426.25 232.125,433.125 224.875,442.875 222.375,455.5 226.0,471.375 236.375,489.75 253.375,510.125 275.625,531.25 301.125,551.875 327.625,571.25 353.0,588.625 425.625,636.0 436.0,643.125 449.875,653.25"/>
    <polyline points="454.125,656.5 458.75,660.0 459.75,660.5 460.25,660.125 459.0,649.625 458.625,642.375 459.375,629.75 460.75,621.0 462.875,612.25 465.375,603.875 468.375,596.0 473.375,585.375"/>
    <polyline points="475.125,582.125 480.5,573.5 484.0,568.625 489.25,562.25 494.25,557.0 497.5,554.0 505.125,548.25 510.875,544.875 514.875,543.0"/>
    <polyline points="516.25,542.375 522.625,540.375 527.75,539.375 531.5,539.0 540.625,539.0 549.0,539.875"/>
    <polyline points="550.5,540.0 567.375,542.625 585.0,544.5 593.0,544.75 605.5,544.0"/>
    <polyline points="608.875,543.5 616.375,542.25 624.625,540.125 633.875,536.875 639.0,534.75 644.375,532.25 650.0,529.125 662.5,521.25 669.375,516.25 676.625,510.375 684.375,503.375 692.625,495.375 701.125,485.875 710.125,475.125 719.375,462.75 728.75,448.75 738.0,433.0 746.875,415.875 754.75,397.375 761.25,378.125 765.75,358.75 767.625,340.375"/>
    <polyline points="766.375,323.875 761.75,310.375 753.75,300.75 742.625,295.75 729.0,295.25 713.875,299.125 697.875,306.375 681.875,316.375 666.375,328.125 651.875,340.75 638.75,353.5 626.75,366.0 616.125,377.75 598.375,398.75 578.75,422.875 564.5,439.5 557.125,447.375 547.625,455.875"/>
    <polyline points="544.875,458.0 539.625,461.375 532.375,465.0 525.625,467.25 521.25,468.25 513.125,469.0 505.125,468.75 499.375,468.0 491.75,466.25"/>
    <polyline points="489.875,465.625 480.625,462.25 477.125,460.5 470.125,456.5 465.25,453.0 461.0,449.25 457.625,445.0 456.25,442.0 455.875,440.5 455.875,437.5"/>
    <polyline points="456.5,436.0 457.5,434.375 461.125,431.5 467.75,429.0 478.25,427.125 485.375,426.625 493.875,426.375 504.0,426.625 515.75,427.375 529.125,428.625 544.25,430.625 560.875,433.375 578.5,436.75 596.5,440.75 614.375,445.25 631.125,449.875 658.25,458.625 667.625,462.25 677.5,466.75 678.5,467.75 677.75,468.0"/>
    <polyline points="675.375,467.75 655.75,462.625 647.875,460.875 641.125,459.875 632.625,459.5 626.0,460.5 620.875,462.375 616.875,464.75 614.75,466.5 613.125,468.375"/>
    <polyline points="612.375,469.25 611.125,471.0 609.75,474.375 609.5,477.25 609.875,478.5 610.75,480.0 612.375,481.125 615.5,481.875 618.375,481.75"/>
    <polyline points="619.5,481.625 623.25,480.75 629.125,478.25 634.0,475.5 642.875,468.625 648.25,463.125 651.75,459.0 655.125,454.5 659.5,447.25"/>
    <polyline points="660.625,444.75 663.25,437.5 663.75,435.25 664.125,431.0 663.5,427.5 661.875,424.75 660.75,423.75 657.75,422.625 654.0,422.625 651.875,423.0 649.625,423.625 644.75,425.625 642.125,426.875 636.875,430.125 629.0,435.75"/>
    <polyline points="626.375,437.875 616.5,446.625 605.875,457.5 600.625,463.625 595.0,471.0 590.75,477.5 587.5,484.5"/>
    <polyline points="587.125,485.875 586.25,490.375 586.5,493.375 587.375,496.0 589.0,498.25 591.25,500.125 594.25,501.625 596.625,502.375 602.375,503.125"/>
    <polyline points="604.125,503.125 607.75,502.875 613.875,501.875 618.5,500.625 623.5,498.75 631.875,494.875 638.0,491.25 644.625,486.75 648.125,484.125 655.25,477.875 662.625,470.375 666.375,466.25 673.75,456.875 677.25,451.625"/>
    <polyline points="680.75,446.25 686.875,434.625 689.375,428.625 691.625,422.625 693.25,416.75 694.375,411.0 694.875,405.625 694.625,400.625 693.75,396.25 692.125,392.5 689.75,389.625 686.75,387.5 683.0,386.375 678.75,386.0 674.0,386.5 668.875,387.875 663.5,390.0 658.0,392.75 646.5,399.625 640.875,403.75 629.875,412.375 619.625,421.375"/>
    <polyline points="614.75,425.875 601.5,438.5 549.125,490.75"/>
    <polyline points="547.875,492.0 542.125,498.125 538.375,502.875 536.125,506.75 535.125,510.5"/>
    <polyline points="535.125,511.0 535.625,513.625 537.125,516.125 539.125,518.125 543.625,521.25"/>
    <polyline points="544.375,521.625 552.0,525.25 557.5,527.25 568.5,530.25 573.625,531.25"/>
    <polyline points="575.375,531.625 585.625,532.75 592.75,532.875 600.875,532.5 610.125,531.125 617.125,529.5 628.875,525.625 637.875,521.5 647.875,516.0 659.0,508.5"/>
    <polyline points="665.0,503.875 677.875,492.375 684.625,485.375 691.75,477.375 699.125,468.375 706.5,458.375 713.75,447.25 721.0,435.125 727.625,422.0 733.75,408.125 738.75,393.875 742.375,379.5 744.375,365.75 744.375,353.0 742.125,342.0 737.5,333.375 730.75,327.5 722.0,324.625 711.75,324.625 700.375,327.5 688.25,332.75 676.0,339.75 663.875,348.125 652.25,357.375 641.375,367.0"/>
    <polyline points="631.125,376.75 613.125,395.125 575.0,436.5 566.0,445.625 558.125,453.0 548.0,461.25 539.125,467.125 533.75,470.0 528.75,472.25 521.625,474.625"/>
    <polyline points="519.375,475.25 514.875,476.25 508.5,477.0 502.375,477.25 496.25,476.875 490.25,476.125 480.125,473.875 467.375,469.625"/>
    <polyline points="465.125,468.75 448.5,461.625 412.625,443.875 387.75,432.375"/>
    <polyline points="382.875,430.375 366.0,423.875 352.625,419.5 336.875,415.25 327.75,413.25 317.875,411.375 306.875,409.75 294.875,408.625 281.75,407.875 267.5,408.125 252.625,409.375 237.375,412.375 222.75,417.625 210.25,425.625 201.875,437.375 199.875,453.125 206.125,472.875 221.5,495.875 245.25,521.0 274.625,546.5 306.625,570.75 337.75,592.75"/>
    <polyline points="366.0,612.0 390.0,628.375 409.375,642.25 424.375,653.625 435.375,663.0 443.0,670.625 447.875,676.625 450.625,681.125 451.625,684.25 451.375,686.125 450.125,686.875 448.375,686.375 446.25,684.75 444.0,682.0 441.875,678.375 439.875,673.875 438.25,668.75 436.25,656.5 435.875,649.875 436.25,636.125 437.0,629.125 438.125,622.375 441.0,609.25"/>
    <polyline points="442.75,603.125 446.625,591.75 450.875,581.625 457.25,568.875 461.375,561.875 465.375,555.875 472.75,546.125 479.125,539.0 487.0,531.375"/>
    <polyline points="488.125,530.375 494.625,524.75 504.375,517.375"/>
    <polyline points="504.75,517.125 509.875,513.25 510.75,512.375 510.875,511.875 510.375,511.375 503.75,508.125"/>
    <line x1="503.5" x2="495.75" y1="508.125" y2="504.25"/>
    <line x1="495.25" x2="479.625" y1="504.0" y2="496.375"/>
    <polyline points="478.75,496.0 463.875,488.75 447.125,481.25"/>
    <polyline points="445.25,480.5 430.875,474.75 415.625,469.625 406.75,467.125 397.0,464.875 389.875,463.625 382.5,462.625 374.625,462.0"/>
    <polyline points="370.625,462.0 362.5,462.25 354.625,463.5 347.25,465.75 344.0,467.375 341.125,469.375 338.75,471.75 337.0,474.625 335.875,477.75 335.625,481.375 336.125,485.375 337.625,489.75 340.0,494.375 343.25,499.25 347.375,504.125 352.375,509.25 357.875,514.25 364.125,519.125 377.375,528.25 391.25,536.0 398.125,539.25"/>
    <polyline points="404.75,542.25 411.125,544.75 417.25,546.75 428.625,549.875 438.75,551.75 443.25,552.25 451.625,552.5 459.0,552.125 465.5,551.125 471.125,549.875 478.625,547.5 485.125,545.0 492.375,541.625"/>
    <polyline points="494.125,540.875 504.0,536.125 510.0,533.625 517.25,531.25 523.0,530.25"/>
    <polyline points="524.0,530.125 533.5,530.125 538.5,530.75 550.0,533.0"/>
    <polyline points="551.25,533.25 566.25,536.375 580.0,538.25 587.0,538.75 594.75,538.75 600.625,538.375"/>
    <polyline points="603.75,538.125 614.0,536.375 621.75,534.5 625.875,533.125 635.0,529.625 639.875,527.375 650.625,521.5 662.625,513.375 669.125,508.25 676.125,502.375 683.375,495.5 691.0,487.625 698.875,478.5 707.125,468.25 715.375,456.75 723.75,443.75 731.75,429.5 739.25,414.125 745.875,397.875 751.125,381.125"/>
    <polyline points="754.625,364.625 755.875,349.0 754.5,335.0 750.375,323.625 743.375,315.5 734.0,310.875 722.375,310.125 709.375,312.875 695.625,318.5 681.5,326.625 667.75,336.375 654.625,347.125 642.375,358.125 631.0,369.25 620.75,380.0 611.5,390.0 572.375,434.625 563.5,444.0 555.875,451.25"/>
    <polyline points="552.375,454.25 549.125,457.0 543.125,461.375 537.5,464.75 532.25,467.375 522.625,470.75 513.75,472.375 507.375,472.75 499.0,472.375 492.875,471.375"/>
    <polyline points="490.875,471.0 484.75,469.5 476.5,466.875 463.75,461.375 455.0,456.75 448.375,452.75 437.125,445.0"/>
    <polyline points="434.875,443.25 428.5,437.875 424.625,433.875 421.375,429.75 418.875,425.5 418.125,423.25 417.875,421.125 418.125,418.875 419.0,416.625 420.75,414.375 423.625,412.25 427.625,410.375 433.5,408.5 441.25,407.125 451.5,406.125 464.875,405.875 481.875,406.375 503.125,408.25 528.875,411.5 559.125,416.625 593.25,423.75"/>
    <polyline points="629.5,432.75 665.375,443.0 697.75,453.5 723.625,463.0 754.5,475.625 743.125,464.75 737.25,458.25 732.0,451.125 727.25,443.75 723.25,436.25 719.875,428.875 711.625,408.5 708.875,402.625 705.875,397.5 702.625,393.25 698.875,389.75 694.625,387.25 690.0,385.625 684.875,385.0 679.5,385.25"/>
    <polyline points="673.75,386.5 667.875,388.5 661.75,391.125 655.625,394.375 643.5,402.125 631.875,411.0 626.375,415.5 611.25,429.0 594.125,445.25 564.75,473.875"/>
    <polyline points="562.625,476.0 541.875,495.5 537.625,499.875 534.125,504.0"/>
    <polyline points="533.75,504.625 531.75,507.75 530.875,510.5 531.0,513.125 532.0,515.25"/>
    <polyline points="532.25,515.5 534.5,517.875 536.75,519.5 540.875,521.875 545.5,524.0"/>
    <polyline points="546.25,524.25 555.375,527.75 563.125,530.0 571.0,531.75 580.5,533.125"/>
    <polyline points="582.625,533.375 594.5,533.75 606.0,532.75 612.625,531.5 619.875,529.625 632.25,525.125 636.875,523.0 646.75,517.625 657.875,510.375 670.125,500.625 676.75,494.625 683.625,487.75"/>
    <polyline points="690.75,479.875 698.125,471.125 705.625,461.125 713.125,450.125 720.5,437.875 727.5,424.75 733.875,410.75 739.25,396.25 743.25,381.5 745.75,367.25 746.125,354.0 744.25,342.375 740.0,333.0 733.5,326.375 725.0,322.875 714.625,322.5 703.125,324.875 690.875,329.875 678.375,336.875 666.0,345.375 654.125,354.75 642.875,364.5 632.375,374.375 622.75,384.0 605.875,401.875"/>
    <polyline points="598.625,409.875 580.375,430.125 570.5,440.5 562.125,448.75 551.25,458.25 542.0,464.875 533.75,469.5 526.25,472.625 521.5,474.125 514.875,475.625 512.625,475.875"/>
    <polyline points="510.5,476.125 506.375,476.5 496.125,476.125 486.0,474.5 473.5,471.0 464.75,467.75 457.875,464.75"/>
    <polyline points="455.5,463.75 431.75,452.125 397.25,434.25 378.875,425.625 367.875,421.0"/>
    <polyline points="361.875,418.625 340.5,411.375 332.0,409.0 312.125,404.625 300.5,402.625 287.625,401.0 273.375,400.0 257.625,399.75 240.625,400.875 223.125,403.625 206.0,409.125 191.125,418.0 181.25,431.375 179.25,449.875 188.0,473.375 208.25,500.875 238.5,530.5 274.625,560.125 312.125,587.625 377.125,633.25 401.125,651.0 419.125,665.875"/>
    <polyline points="431.875,678.25 440.125,688.5 444.5,696.75 446.0,703.125 445.25,707.75 442.75,710.75 439.25,711.875 435.0,711.125 430.625,708.75 426.25,704.75 422.375,699.25 419.0,692.375 416.375,684.375 414.5,675.5 413.375,666.0 413.0,656.25 413.25,646.375 414.125,636.625 415.375,627.0 417.125,617.875 419.125,609.125 423.75,593.375 426.125,586.375 431.25,574.0"/>
    <polyline points="433.75,568.625 438.625,559.125 443.25,551.375 451.5,539.5 458.25,531.25 471.625,516.125"/>
    <polyline points="472.25,515.375 474.625,511.125 475.25,508.75 475.25,506.5 474.375,503.75 472.125,500.625"/>
    <polyline points="471.625,500.0 468.625,497.375 462.0,492.75 454.125,488.375 447.25,485.0"/>
    <polyline points="445.625,484.25 437.25,480.625 425.125,476.0 415.625,473.0 402.0,469.625 396.0,468.5 386.375,467.375"/>
    <polyline points="383.125,467.125 373.125,467.125 366.5,467.875 360.375,469.5 357.5,470.625 352.625,473.625 350.75,475.5 349.25,477.75 348.375,480.25 348.0,483.0 348.125,486.0 349.0,489.375 350.5,492.875 352.625,496.625 355.5,500.5 362.875,508.25 367.375,512.125 372.25,515.875 382.75,523.0"/>
    <polyline points="388.375,526.125 393.875,529.125 404.875,534.125 415.5,537.875 420.5,539.375 429.75,541.5 438.25,542.625 449.375,543.0 458.75,542.125 469.0,539.875 479.125,536.125"/>
    <polyline points="480.75,535.375 486.875,532.5 506.125,522.0"/>
    <polyline points="506.75,521.625 510.875,519.875 514.25,518.875 517.75,518.625"/>
    <polyline points="518.125,518.625 522.25,519.0 528.625,520.75"/>
    <line x1="529.125" x2="547.5" y1="521.0" y2="527.25"/>
    <polyline points="548.5,527.625 555.375,529.75 568.5,532.875 579.75,534.625 588.75,535.125"/>
    <polyline points="591.25,535.25 596.5,535.125 608.625,533.75 619.375,531.375 623.25,530.125 631.75,526.875 641.25,522.5 651.875,516.25 657.625,512.375 663.625,507.875 676.75,496.625 683.75,489.75 691.125,481.875 698.625,472.875 706.375,462.875 714.0,451.625"/>
    <polyline points="721.625,439.125 729.0,425.625 735.625,411.25 741.375,396.125 745.75,380.875 748.375,366.0 748.875,352.0 747.125,339.875 742.875,330.0 736.125,323.125 727.25,319.375 716.5,319.0 704.625,321.625 691.875,326.875 679.0,334.125 666.25,343.0 654.0,352.75 642.375,363.0 631.75,373.125 613.0,392.5 579.25,430.0"/>
    <polyline points="574.25,435.375 565.25,444.75 553.75,455.25 547.25,460.375 538.5,466.125 530.5,470.0 525.625,471.875 521.0,473.25 514.25,474.625 509.875,475.125 503.625,475.375"/>
    <polyline points="501.5,475.25 497.5,475.0 489.25,473.875 476.875,470.625 466.0,466.625 456.875,462.625 447.125,457.75"/>
    <polyline points="444.625,456.5 425.25,445.875 374.375,415.75 354.0,404.75"/>
    <polyline points="348.25,401.75 335.125,395.625 319.625,389.25 300.375,382.625 288.75,379.375 275.375,376.25 259.75,373.375 241.625,370.875 220.5,369.25 196.25,369.125 169.25,371.375 141.375,377.875 116.5,390.75 101.375,412.75 104.5,445.375 132.0,488.0 181.875,536.5 244.0,585.125 305.5,629.25 357.25,667.25 395.25,699.5 419.5,727.125 431.625,750.875"/>
    <polyline points="433.625,771.375 427.875,788.375 416.125,801.25 400.75,809.125 383.5,811.0 366.375,806.125 351.125,794.5 338.875,777.0 330.25,754.75 325.25,729.5 323.25,703.25 323.75,677.25 326.0,652.75 329.25,630.5 333.25,610.75 337.375,593.75 341.5,579.25 345.625,567.25 349.625,557.375 353.5,549.375 357.25,542.875 360.875,537.875 364.5,534.0 368.0,531.125 371.625,529.0 375.125,527.5"/>
    <polyline points="378.75,526.625 382.375,526.0 389.75,525.75 421.5,528.5 430.625,528.625 438.75,528.25 443.625,527.625 450.0,526.375 453.75,525.25"/>
    <polyline points="455.5,524.75 463.0,521.75 465.375,520.5 470.125,517.25 473.875,513.625 475.375,511.25 476.0,509.625"/>
    <polyline points="476.125,509.0 476.125,506.375 474.625,502.75 471.375,499.125 467.375,496.0"/>
    <polyline points="466.5,495.375 461.0,491.875 452.625,487.375 442.125,482.5 432.875,478.75"/>
    <polyline points="430.875,478.0 422.125,474.875 412.125,471.875 406.75,470.5 394.875,468.125 385.125,467.0 375.0,466.75 368.375,467.25 361.875,468.5 358.875,469.5"/>
    <polyline points="356.125,470.75 353.625,472.125 351.375,473.875 349.625,476.0 348.25,478.25 347.5,480.875 347.25,483.875 347.625,487.0 348.75,490.5 350.5,494.125 353.0,498.0 359.75,505.875 368.625,513.75 373.75,517.5 379.0,521.125 390.25,527.625 395.875,530.5 406.875,535.25 417.5,538.875 427.125,541.375"/>
    <polyline points="431.625,542.25 443.875,543.5 451.0,543.5 460.125,542.5 468.0,540.75 476.5,537.875 488.0,532.625 491.875,530.5"/>
    <polyline points="493.0,529.875 503.875,523.875 511.5,520.5"/>
    <polyline points="512.0,520.375 516.875,519.375 520.25,519.375 522.875,519.75"/>
    <polyline points="523.25,519.875 528.625,521.125 537.5,524.125"/>
    <polyline points="538.25,524.375 552.375,529.0 566.125,532.5"/>
    <polyline points="567.75,532.875 578.875,534.625 587.75,535.25 598.25,535.125 607.375,534.125 617.875,531.875 621.75,530.75 634.625,525.875 639.375,523.5"/>
    <polyline points="644.375,520.875 655.375,514.125 661.25,509.875 674.125,499.25 681.0,492.625 688.25,485.125 695.75,476.625 703.375,467.0 711.125,456.125 718.875,444.125 726.25,431.0 733.25,416.875 739.375,402.0 744.375,386.75 747.75,371.5 749.125,357.125 748.25,344.125 745.0,333.25 739.125,325.125 731.125,320.125 721.0,318.5 709.375,320.0 696.875,324.25 684.0,331.0"/>
    <polyline points="671.125,339.25 658.625,348.75 646.75,358.875 635.75,369.125 616.25,388.875 571.25,438.5 558.75,450.75 551.625,456.875 542.375,463.625 536.75,467.0 529.0,470.625"/>
    <polyline points="526.5,471.5 519.5,473.625 515.0,474.5 510.75,475.0 502.25,475.25 492.0,474.25 488.0,473.5 481.75,472.0 473.375,469.25"/>
    <polyline points="471.25,468.5 457.75,462.875 440.375,454.125 429.375,448.0 404.0,433.0"/>
    <polyline points="400.5,430.75 362.75,408.375 352.25,402.5 333.75,393.125 318.75,386.5 310.0,383.125 289.125,376.25 276.25,372.875 261.25,369.625 243.625,366.75 223.0,364.375 198.75,363.375 171.125,364.375"/>
    <polyline points="141.25,369.0 112.375,379.625 91.0,399.25 86.75,430.375 108.5,473.5 157.125,524.75 222.875,577.75 290.625,626.625 348.625,669.0 391.125,704.875 418.0,735.5 430.875,762.25 432.0,785.375 424.125,804.75 409.5,819.375 390.75,828.0 370.25,829.125 350.5,822.25 333.375,807.125 320.5,785.0 312.0,757.875 307.75,728.125 306.875,697.875 308.5,668.875 311.75,642.5 315.875,619.125"/>
    <polyline points="320.25,599.0 324.75,582.25 329.125,568.375 333.375,557.25 337.5,548.5 341.5,541.75 345.5,536.75 349.5,533.125 353.625,530.625 357.75,529.125 362.125,528.375 366.5,528.125 371.125,528.375 380.625,529.75 399.75,533.75 413.375,536.125 417.625,536.75 429.625,537.625"/>
    <polyline points="433.25,537.75 443.25,537.25 449.125,536.5 459.125,534.25 463.375,533.0 472.25,529.375 477.75,526.5 483.125,523.125"/>
    <polyline points="484.0,522.5 490.625,517.0 492.75,514.375 494.0,511.0"/>
    <polyline points="494.0,510.75 494.0,509.375 492.375,506.375 488.375,503.0"/>
    <polyline points="488.0,502.625 481.5,498.625 469.125,492.125"/>
    <polyline points="468.0,491.625 460.75,488.0 447.0,481.75 435.375,477.0 426.375,473.75"/>
    <polyline points="424.0,472.875 407.5,467.875 394.5,465.0 383.75,463.5 372.25,462.75 360.5,463.5 356.625,464.125 353.0,465.125 349.5,466.25 346.375,467.875 343.5,469.75 341.125,472.0"/>
    <polyline points="339.25,474.625 338.125,477.625 337.625,481.0 338.0,484.75 339.125,488.875 341.25,493.25 344.125,497.875 347.875,502.625 352.5,507.5 357.75,512.375 363.5,517.125 369.625,521.625 376.125,526.0 389.5,533.75 402.625,540.0 409.0,542.5 420.875,546.5 431.5,549.0 441.0,550.5 449.5,550.875"/>
    <polyline points="453.25,550.875 460.25,550.25 466.375,549.25 476.75,546.375 487.125,542.25 504.625,533.875"/>
    <polyline points="505.75,533.375 512.125,530.875 517.75,529.25 522.125,528.5 529.0,528.375"/>
    <polyline points="529.875,528.375 540.25,529.75 557.125,533.625"/>
    <polyline points="558.5,533.875 573.875,536.75 582.25,537.625 589.375,538.0 600.5,537.625 610.125,536.375 617.5,534.75"/>
    <polyline points="621.375,533.625 625.5,532.375 634.5,528.875 644.5,524.0 650.0,520.875 661.75,512.875 668.25,507.875 675.0,502.125 682.25,495.375 689.75,487.625 697.5,478.875 705.625,468.75 713.75,457.5 721.875,444.875 729.875,431.0 737.25,416.0 743.875,400.125 749.25,383.75 752.75,367.5 754.25,352.125 753.25,338.25 749.5,326.75 743.125,318.25"/>
    <polyline points="734.125,313.375 723.125,312.0 710.5,314.125 697.0,319.375 683.25,326.875 669.625,336.25 656.5,346.625 644.25,357.5 633.0,368.375 622.625,379.0 613.375,389.0 573.625,434.0 564.5,443.5 553.25,454.0 546.75,459.125 540.875,463.125"/>
    <polyline points="538.125,464.75 532.875,467.5 525.5,470.375 518.5,472.125 509.75,473.25 503.5,473.25 495.25,472.5 489.125,471.375 483.0,469.75"/>
    <polyline points="480.875,469.125 474.625,467.0 468.25,464.375 457.25,459.125 450.375,455.375 441.0,449.625 433.75,444.75 424.25,437.375"/>
    <polyline points="422.0,435.5 417.625,431.375 413.75,427.0 412.0,424.75 409.5,420.125 408.75,417.75 408.5,415.375 409.0,412.875 410.25,410.5 412.625,408.25 416.25,406.0 421.5,404.0 429.0,402.25 439.0,401.0 452.5,400.375 470.0,400.75 492.25,402.5 520.0,405.875 553.5,411.375 591.875,419.375 633.5,429.75 675.125,441.75 712.5,454.125"/>
    <polyline points="742.0,465.125 761.5,473.25 771.25,477.625 773.375,477.875 765.0,469.125 758.75,461.5 752.75,452.625 747.625,443.125 743.5,433.125 740.0,423.0 734.625,403.375 731.875,394.25 728.875,385.875 725.375,378.5 721.125,372.25 716.125,367.5 710.25,364.25 703.75,362.625 696.375,362.5 688.625,363.75 680.5,366.375 672.25,370.125 663.875,374.75 655.625,380.125"/>
    <polyline points="647.625,386.0 639.875,392.0 625.375,404.5 606.625,422.125 582.25,446.125 567.375,459.875 555.375,470.125 547.75,475.875 541.0,480.5"/>
    <polyline points="538.875,481.75 528.0,487.875 520.375,491.125 512.375,493.5 509.875,494.0 502.875,494.625"/>
    <polyline points="501.75,494.625 498.375,494.625 492.875,494.0 487.25,492.875 478.75,490.375 472.125,488.0"/>
    <polyline points="470.75,487.5 445.125,477.0 420.75,467.875"/>
    <polyline points="417.875,466.875 401.5,462.125 394.0,460.375 381.75,458.125 368.375,456.75 358.75,456.625 354.0,456.875 344.375,458.125 339.75,459.375 335.5,461.0 331.5,463.0 328.125,465.5 325.375,468.625 323.375,472.25 322.5,476.5"/>
    <polyline points="322.625,481.25 324.0,486.5 326.625,492.125 330.5,498.25 335.625,504.5 341.75,510.875 348.875,517.25 356.625,523.375 364.875,529.375 373.375,534.875 381.875,539.875 398.5,548.375 406.375,551.875 420.875,557.25 427.375,559.125 439.25,561.75 449.25,562.875 458.0,563.0 465.5,562.375 469.0,561.75"/>
    <polyline points="472.125,561.125 478.0,559.5 485.625,556.75 509.625,545.875 519.625,542.5"/>
    <polyline points="521.0,542.125 527.625,540.75 532.875,540.25 542.375,540.375 556.0,542.0"/>
    <polyline points="557.625,542.25 566.625,543.625 581.75,545.375 592.25,545.875 598.125,545.75 608.0,544.875 615.375,543.625 623.625,541.625"/>
    <polyline points="628.125,540.25 637.875,536.625 643.125,534.125 654.75,527.875 661.25,523.75 668.0,518.875 675.25,513.125 683.0,506.375 691.25,498.5 699.875,489.375 709.0,478.75 718.375,466.5 727.875,452.625 737.375,437.0 746.625,419.75 755.0,401.125 762.125,381.375 767.25,361.5 769.75,342.25 769.25,324.625 765.25,310.125 757.625,299.375 746.75,293.25 733.125,292.0"/>
    <polyline points="717.75,295.25 701.375,302.375 684.875,312.375 669.0,324.25 654.0,337.125 640.375,350.25 628.125,363.0 617.125,375.25 599.0,396.75 569.125,433.625 561.0,442.875 554.125,449.875 548.125,455.25 542.75,459.25 535.375,463.375"/>
    <polyline points="533.125,464.375 528.625,466.0 522.25,467.625 516.125,468.375 508.375,468.375 500.75,467.5 495.125,466.25 489.625,464.625 484.25,462.5"/>
    <polyline points="482.5,461.75 477.375,459.25 472.5,456.25 468.0,452.875 463.25,447.875 462.25,446.5 461.0,443.75 460.5,440.875 460.75,439.375 461.25,438.0 462.25,436.625 463.75,435.125 465.75,433.875 468.375,432.625 471.75,431.5"/>
    <polyline points="476.0,430.5 481.25,429.625 495.25,428.75 514.5,429.375 539.75,432.0 569.875,437.0 602.125,444.125 617.75,448.25 631.875,452.375 644.125,456.25 654.0,459.75 666.125,464.875 668.5,466.375 668.875,467.25 667.75,467.5 665.375,467.375 650.375,464.875"/>
    <polyline points="646.375,464.25 638.75,463.375 628.875,463.25 621.0,464.5 616.625,465.875 611.375,468.375 608.5,470.375 606.25,472.375 603.0,476.5 601.375,480.375"/>
    <polyline points="601.125,481.25 601.25,484.5 602.125,486.5 603.75,488.125 606.125,489.375 608.0,489.875 612.75,490.125 617.125,489.5 622.25,488.0"/>
    <polyline points="624.125,487.25 628.125,485.625 632.375,483.25 636.875,480.5 641.625,477.0 646.5,472.875 651.5,468.0 659.0,459.5 663.75,453.0 669.875,442.375 673.0,435.125 675.0,428.0 675.5,424.625"/>
    <polyline points="675.75,421.5 675.0,416.0 674.0,413.75 672.625,411.875 670.875,410.5 668.75,409.5 666.375,409.0 663.625,408.875 660.625,409.25 654.0,411.375 650.5,412.875 643.125,417.0 631.875,424.75 624.625,430.625 614.5,439.625 605.5,448.5"/>
    <polyline points="602.75,451.25 597.5,456.625 588.75,466.375 578.875,478.5 572.625,488.0 570.625,492.125 569.0,496.875"/>
    <polyline points="568.875,497.875 568.625,501.0 569.0,503.75 570.0,506.25 571.5,508.5 574.5,511.25 577.5,513.0 581.0,514.5 585.25,515.625"/>
    <polyline points="586.875,516.0 595.875,516.875 604.875,516.25 610.125,515.375 615.75,514.0 625.375,510.75 632.5,507.5 644.5,500.625 653.25,494.25 662.875,486.125"/>
    <polyline points="667.75,481.375 678.125,470.125 683.375,463.625 688.5,456.625 693.625,449.0 698.5,440.75 703.125,432.125 707.375,423.125 710.875,414.0 713.75,404.75 715.75,395.75 716.625,387.125 716.25,379.25 714.75,372.5 712.0,366.875 707.875,362.75 702.75,360.25 696.5,359.375 689.5,360.0 681.875,362.125 673.75,365.5 665.5,370.0 657.25,375.25 649.0,381.125 641.125,387.375"/>
    <polyline points="633.5,393.875 626.25,400.375 612.875,413.125 581.625,444.375 566.5,458.875 557.125,467.0 549.0,473.5 535.625,482.5"/>
    <polyline points="533.625,483.5 524.75,488.0 515.625,491.25 507.625,492.875 503.875,493.25 497.875,493.25"/>
    <polyline points="496.625,493.125 490.625,492.375 484.5,491.0 478.0,489.125 463.125,483.625"/>
    <polyline points="461.5,483.0 430.375,470.5 413.125,464.625 399.25,460.75"/>
    <polyline points="395.375,459.75 378.625,456.625 369.375,455.625 359.625,455.25 349.5,455.75 344.5,456.375 339.625,457.375 334.875,458.875 330.5,460.75 326.625,463.125 323.375,466.0 321.0,469.625 319.5,473.75 319.125,478.5 320.0,483.75 322.375,489.625 326.0,495.875 330.875,502.5 337.0,509.125 344.25,515.875"/>
    <polyline points="352.25,522.5 360.75,528.75 369.625,534.75 378.625,540.25 387.5,545.125 396.125,549.5 404.375,553.25 412.25,556.5 426.5,561.25 432.875,562.875 444.125,565.0 453.875,565.75 458.125,565.75 465.875,565.125 472.625,563.875 478.5,562.25 488.625,558.375"/>
    <polyline points="490.75,557.5 507.5,549.625 515.25,546.5 522.5,544.375 530.75,543.0"/>
    <polyline points="532.25,542.875 539.25,542.625 546.625,543.0 573.5,546.625"/>
    <polyline points="575.75,546.875 590.75,547.875 603.0,547.625 610.0,546.875 617.625,545.5 621.875,544.5 630.875,541.75 635.875,540.0 646.625,535.125 658.875,528.125 665.75,523.5 672.875,518.125 680.625,511.75"/>
    <polyline points="688.875,504.25 697.5,495.5 706.75,485.25 716.375,473.375 726.25,459.75 736.25,444.25 746.0,427.0 755.25,408.0 763.25,387.75 769.625,366.75 773.5,346.0 774.25,326.75 771.375,310.0 764.625,297.125 754.25,289.125 740.75,286.25 725.0,288.375 708.0,294.875 690.625,304.75 673.875,316.875 658.0,330.25 643.5,344.0 630.5,357.625 619.0,370.5 600.0,393.25"/>
    <polyline points="592.25,403.0 565.5,437.0 555.0,448.625 546.5,456.25 539.25,461.125 532.625,464.25 526.375,466.125 520.5,467.125 516.625,467.375"/>
    <polyline points="514.75,467.5 507.25,467.125 503.625,466.625 498.25,465.5 493.125,464.0 486.375,461.375 481.625,458.875 477.25,456.125 473.5,453.0"/>
    <polyline points="472.375,451.875 469.625,448.375 468.625,445.875 468.5,443.25 468.75,442.0 470.5,439.5 471.875,438.25 476.375,436.0 483.375,434.125 488.125,433.5 500.25,432.625 516.75,433.125 526.625,433.875 549.625,436.75 575.625,441.375"/>
    <polyline points="589.0,444.375 602.125,447.5 614.375,450.875 634.75,457.25 647.75,462.25 651.25,464.125 653.0,465.5 653.125,466.375 652.125,466.875 650.0,467.125 632.875,466.625 622.0,467.125 612.625,468.625 604.75,471.125"/>
    <polyline points="602.5,472.125 598.375,474.375 593.375,477.75 589.625,481.375 586.875,485.0 585.125,488.375 584.0,492.5 584.125,495.375 585.375,498.625"/>
    <polyline points="585.875,499.375 587.875,501.375 590.625,503.125 594.125,504.375 599.875,505.25 605.125,505.25 613.5,504.0 620.875,501.75 626.375,499.625"/>
    <polyline points="629.25,498.25 635.5,494.875 645.75,488.125 653.125,482.125 660.75,474.875 664.75,470.75 672.625,461.375 676.5,456.125 683.875,444.625 690.375,432.25 695.25,419.25 696.875,412.875 698.0,406.875 698.25,401.125 697.875,395.875 696.625,391.375 694.625,387.625"/>
    <polyline points="691.75,384.75 688.25,382.875 684.0,382.0 679.125,382.0 673.875,383.0 668.25,384.875 662.375,387.5 650.25,394.5 644.25,398.75 632.375,407.875 616.125,422.125 573.875,463.625"/>
    <line x1="571.125" x2="534.375" y1="466.375" y2="500.75"/>
    <polyline points="533.625,501.5 530.875,504.375 528.25,508.125 527.25,510.375 527.125,512.375"/>
    <polyline points="527.125,512.625 527.625,514.125 528.5,515.5 530.875,517.625 533.75,519.5"/>
    <polyline points="534.25,519.75 543.375,524.125 554.0,528.0"/>
    <polyline points="555.25,528.375 564.625,531.0 574.75,533.0 580.625,533.75 594.875,534.25 603.375,533.625"/>
    <polyline points="606.5,533.125 613.125,531.875 620.5,530.0 624.5,528.75 633.125,525.375 642.625,520.625 653.25,514.25 665.125,505.5 671.5,500.125 685.25,486.875 692.5,478.75 700.0,469.625 707.5,459.375 715.125,448.0 722.5,435.5 729.5,422.0 735.75,407.75 741.0,392.875 744.875,378.0"/>
    <polyline points="746.875,363.75 746.875,350.5 744.5,339.125 739.75,330.25 732.75,324.125 723.625,321.25 712.875,321.5 701.0,324.625 688.5,330.25 675.875,337.75 663.375,346.5 651.5,356.125 640.375,366.125 620.5,385.75 603.875,403.5 584.25,425.375 573.75,436.625 564.875,445.75 557.125,453.0"/>
    <polyline points="553.625,456.0 541.125,465.125 532.875,469.5 525.5,472.5 516.375,475.0 509.875,475.875 503.5,476.125 493.375,475.375"/>
    <polyline points="491.25,475.0 483.125,473.375 470.5,469.375 463.875,466.75 449.625,460.375 433.625,452.25"/>
    <polyline points="430.75,450.625 392.375,430.125 368.125,418.5 356.125,413.5 342.0,408.375 325.0,403.125 303.875,398.25 291.5,396.125"/>
    <polyline points="277.375,394.25 261.625,393.125 244.25,392.875 225.25,394.25 205.625,397.625 186.625,404.25 171.0,415.375 162.0,431.875 163.875,454.75 179.375,483.25 208.25,515.875 246.875,549.625 289.5,582.0 366.0,636.5 394.375,658.0 415.375,676.0 429.625,691.125 438.125,703.75 441.875,714.125 442.0,722.25 439.125,728.25 434.375,732.0 428.375,733.375 421.75,732.25 415.25,728.75"/>
    <polyline points="409.0,722.875 403.625,714.875 399.375,705.125 396.125,694.0 394.125,681.875 393.25,669.125 393.375,656.375 394.25,643.75 395.75,631.5 397.875,620.0 400.25,609.25 402.875,599.25 405.75,590.125 411.5,574.5 414.375,567.75 419.875,556.5 425.125,547.5 432.0,537.375 438.0,530.125"/>
    <polyline points="439.75,528.125 454.75,512.875 457.75,508.5 458.625,504.625"/>
    <polyline points="458.625,504.0 458.5,502.75 457.5,500.375 455.375,497.375 451.25,493.75 448.625,491.875 443.25,488.75"/>
    <polyline points="442.125,488.125 432.375,483.5 418.0,478.5 407.125,475.75 400.125,474.5 395.125,474.0"/>
    <polyline points="392.625,473.75 382.75,473.875 375.625,475.0 371.375,476.5 367.875,478.625 366.5,480.0 364.5,483.125 364.0,485.0 363.875,487.0 364.75,491.5 365.75,493.875 369.125,499.0 371.375,501.625 373.875,504.375 380.0,509.625"/>
    <polyline points="383.5,512.125 390.875,516.875 398.75,521.0 402.75,522.75 414.625,527.125 425.625,529.875 429.125,530.5 438.625,531.375 447.0,531.125 451.875,530.625 458.375,529.25 462.125,528.125"/>
    <polyline points="463.875,527.5 471.25,524.375 476.75,521.125 481.375,517.5 483.875,514.75 485.125,512.75"/>
    <polyline points="485.375,512.25 486.0,509.875 485.625,507.0 484.5,504.875 481.375,501.625"/>
    <polyline points="480.875,501.125 476.5,498.0 469.0,493.5 458.75,488.25"/>
    <polyline points="457.375,487.625 443.375,481.125 429.375,475.625 417.125,471.5 405.875,468.5"/>
    <polyline points="402.875,467.75 389.625,465.25 378.875,464.25 371.5,464.125 364.0,464.625 356.875,466.0 350.375,468.5 347.625,470.125 345.125,472.125 343.25,474.375 341.75,477.125 341.0,480.125 341.0,483.5 341.75,487.25 343.25,491.25 345.5,495.5 348.625,499.875"/>
    <polyline points="352.5,504.375 357.0,509.0 362.125,513.5 367.75,517.875 379.875,526.0 392.5,533.0 398.75,536.0 410.75,541.0 427.25,545.875 432.125,546.875 441.25,548.0 449.25,548.375 456.375,548.0 462.75,547.25 470.875,545.375"/>
    <polyline points="473.375,544.625 485.625,539.875 503.375,531.125 509.375,528.625"/>
    <polyline points="510.25,528.25 515.25,526.625 520.5,525.625 526.375,525.5 529.375,525.75"/>
    <polyline points="530.125,525.875 539.375,527.625 554.75,531.625"/>
    <polyline points="556.0,532.0 568.25,534.625 582.0,536.5 589.125,536.875 597.125,536.75 603.0,536.25 609.5,535.25"/>
    <polyline points="613.0,534.625 620.5,532.75 633.375,528.125 643.125,523.375 648.375,520.375 660.0,512.75 672.875,502.375 679.875,496.0 687.125,488.625 694.75,480.25 702.625,470.625 710.625,459.875 718.625,447.875 726.375,434.625 733.75,420.25 740.375,405.0 745.875,389.125 749.875,373.25 751.875,358.0 751.625,344.0"/>
    <polyline points="748.75,332.125 743.25,323.125 735.25,317.25 725.125,314.875 713.25,315.875 700.375,320.0 687.0,326.625 673.625,335.125 660.625,344.875 648.375,355.375 637.0,366.0 626.5,376.375 616.875,386.5 581.125,426.5 566.5,442.25 558.5,450.0 548.25,458.75"/>
    <polyline points="545.125,461.0 536.625,466.25 531.375,468.75 521.75,472.125 517.25,473.125 512.875,473.75 506.375,474.125 500.125,474.0 487.875,472.125"/>
    <polyline points="485.75,471.625 475.375,468.5 462.375,463.125 453.125,458.625 445.875,454.625 435.875,448.75 428.0,443.625"/>
    <polyline points="425.25,441.875 414.375,434.125 403.5,425.375 398.5,420.5 394.125,415.5 390.75,410.25 389.75,407.5 389.25,404.75 389.625,402.0 391.0,399.375 393.625,396.75 398.125,394.25 404.75,392.0 414.375,390.25 428.0,389.125 446.375,389.0 471.125,390.375"/>
    <polyline points="503.125,394.0 543.5,400.5 591.875,410.625 645.75,424.25 700.25,440.625 748.375,457.5 784.0,471.875 804.75,481.25 812.25,484.25 810.625,481.5 804.5,473.875 797.125,462.75 790.5,449.125 785.375,433.875 781.625,417.5 774.375,366.875 771.0,351.5 766.125,338.0 759.375,327.125 750.625,319.5 740.0,315.25 727.75,314.5 714.5,317.0 700.75,322.375"/>
    <polyline points="686.75,330.0 673.25,339.125 660.375,349.25 648.375,359.75 637.25,370.25 618.0,390.25 578.875,433.75 569.875,443.125 562.0,450.625 555.125,456.5 545.875,463.125 540.25,466.375 535.0,468.875"/>
    <polyline points="532.5,469.875 525.25,472.375 520.75,473.5 512.0,474.75 507.75,475.0 499.5,474.75 493.375,474.0 489.25,473.25 478.875,470.5"/>
    <polyline points="476.875,469.875 466.0,465.75 449.75,458.125 437.0,451.125 414.125,437.125"/>
    <polyline points="411.0,435.0 398.125,426.375 384.625,416.5 371.25,405.5 365.125,399.5 360.0,393.25 358.25,390.0 357.0,386.75 356.75,383.375 357.75,380.125 360.625,377.0 365.75,374.0 374.25,371.375 387.375,369.375 406.75,368.625"/>
    <polyline points="434.625,369.5 473.625,373.375 526.375,381.625 593.625,395.75 672.125,416.5 751.875,442.375 818.5,468.25 860.625,487.625 877.25,496.125 876.25,493.0 867.5,480.25 858.0,460.25 851.125,435.0 847.625,405.75 846.5,373.625 846.0,340.0 843.875,306.875 837.875,276.75 826.75,252.625 809.75,236.875 787.75,230.875 762.5,234.375 735.875,245.625 710.125,262.375 686.375,282.25 665.75,303.0"/>
    <polyline points="648.25,323.25 634.0,342.125 622.5,359.25 613.375,374.25 606.375,387.25 600.875,398.5 596.75,408.125 591.25,423.375 585.625,442.875 583.5,449.0 581.125,453.75 576.75,459.0 575.0,460.375 571.25,462.875 565.0,465.875"/>
    <polyline points="562.875,466.75 549.0,471.25 532.875,475.0 519.75,476.875 515.625,477.25 507.375,477.375"/>
    <polyline points="505.375,477.375 495.25,476.5 487.25,475.0 481.125,473.5 468.5,469.25 452.25,462.375"/>
    <polyline points="449.875,461.125 444.75,458.75 391.5,431.625 371.625,422.75 352.875,415.625"/>
    <polyline points="345.5,413.25 328.625,408.625 308.0,404.25 296.0,402.5 282.625,401.125 267.75,400.375 251.625,400.625 234.5,402.375 217.125,406.125 200.875,412.875 187.875,423.375 180.875,438.5 182.875,458.875 196.0,483.875 220.125,512.125 252.75,541.75 289.625,570.375 326.125,596.625 359.125,619.5 386.625,639.125 408.375,655.625 424.375,669.375 435.375,680.75 442.25,690.125"/>
    <polyline points="445.625,697.5 446.375,703.25 445.125,707.25 442.375,709.375 438.75,709.875 434.625,708.75 430.375,705.875 426.375,701.5 422.75,695.625 419.75,688.625 417.375,680.5 415.75,671.625 414.875,662.375 414.625,652.75 415.125,643.125 416.125,633.625 417.5,624.375 419.25,615.5 421.25,607.125 425.875,591.875 430.875,578.875 438.25,563.125"/>
    <polyline points="440.625,558.75 447.375,547.875 451.375,542.125 460.0,531.5 470.375,520.0 474.375,515.0"/>
    <polyline points="474.875,514.25 476.0,512.25 476.875,509.75 477.0,507.0 476.0,503.875 473.25,500.25"/>
    <polyline points="472.625,499.75 468.0,496.0 462.75,492.625 457.25,489.5 447.75,484.875"/>
    <polyline points="446.125,484.125 439.5,481.125 425.375,475.75 413.25,472.0 399.0,468.625 386.25,466.875"/>
    <polyline points="382.875,466.625 376.0,466.5 369.25,466.875 362.625,468.0 356.625,470.0 351.625,473.0 349.625,474.875 348.125,477.125 347.0,479.75 346.625,482.625 346.75,485.75 347.625,489.125 349.125,492.75 351.375,496.5 354.25,500.5 357.875,504.5 366.5,512.5 371.5,516.375 382.375,523.625"/>
    <polyline points="388.125,526.875 399.5,532.625 410.5,537.125 425.75,541.625 434.75,543.25 446.625,544.125 459.625,543.125 469.875,540.75 480.125,537.0"/>
    <line x1="481.875" x2="507.75" y1="536.25" y2="522.875"/>
    <polyline points="508.375,522.625 511.875,521.25 515.375,520.375 520.875,520.125"/>
    <polyline points="521.375,520.125 528.875,521.625 535.125,523.625"/>
    <polyline points="535.875,523.75 549.0,528.125 561.5,531.5"/>
    <polyline points="563.0,531.875 567.625,533.0 578.75,534.75 587.625,535.375 595.375,535.375 601.0,535.0 610.625,533.625 617.75,532.0 625.75,529.5"/>
    <polyline points="630.0,527.875 639.25,523.75 644.25,521.0 655.25,514.25 661.25,510.0 667.5,505.125 674.0,499.375 681.0,492.875 688.125,485.375 695.625,476.875 703.375,467.25 711.125,456.375 718.875,444.375 726.375,431.25 733.375,417.125 739.5,402.125 744.5,386.875 747.875,371.625 749.375,357.125 748.5,344.125 745.25,333.125 739.5,325.0 731.375,320.0 721.25,318.25"/>
    <polyline points="709.625,319.75 697.125,324.0 684.125,330.625 671.25,339.0 658.75,348.5 646.875,358.625 635.75,369.0 625.625,379.125 607.875,397.875 576.0,433.375 562.625,447.125 555.125,454.0 548.375,459.375 542.25,463.625 536.75,466.875"/>
  </g>
</svg>
