<?xml version="1.0" encoding="utf-8" ?>
<svg xmlns="http://www.w3.org/2000/svg" xmlns:cc="http://creativecommons.org/ns" xmlns:dc="http://purl.org/dc/elements/1.1/" xmlns:ev="http://www.w3.org/2001/xml-events" xmlns:inkscape="http://www.inkscape.org/namespaces/inkscape" xmlns:rdf="http://www.w3.org/1999/02/22-rdf-syntax-ns" xmlns:sodipodi="http://sodipodi.sourceforge.net/DTD/sodipodi-0.dtd" xmlns:xlink="http://www.w3.org/1999/xlink" baseProfile="tiny" height="27.09333333cm" version="1.2" viewBox="0 0 1024.0 1024.0" width="27.09333333cm">
  <metadata>
    <rdf:RDF>
      <cc:Work>
        <dc:format>image/svg+xml</dc:format>
        <dc:source>vpype read './original_svgs/Strange Attractors #175.svg' linemerge linesimplify write './Strange Attractors #175.svg'
</dc:source>
        <dc:date>2024-08-05T01:35:34.299047</dc:date>
      </cc:Work>
    </rdf:RDF>
  </metadata>
  <defs/>
  <g fill="none" id="layer1" inkscape:groupmode="layer" inkscape:label="1" stroke="black" stroke-width="0.7mm" style="display:inline">
    <polyline points="624.375,553.0 640.875,513.5 651.5,479.125 657.625,448.25 660.25,419.75 659.25,392.125 654.875,364.875 646.5,337.375 634.0,310.0 616.75,283.75 595.0,260.375 569.0,242.25 540.25,232.0 510.625,231.625 482.375,241.5 457.375,260.875 436.75,287.25 421.0,317.5 409.625,348.875 402.0,379.375 397.375,407.375 394.75,432.375 393.75,454.0 393.75,472.5 394.5,488.0 395.875,500.875"/>
    <polyline points="397.5,511.375 399.5,520.0 401.625,526.875 404.0,532.25 406.375,536.5 409.0,539.75 411.625,542.125 414.25,543.75 416.875,544.75 419.625,545.25 424.875,545.0 427.375,544.5 432.125,542.875 438.625,539.5 442.25,537.125 448.0,532.625 450.125,530.625"/>
    <polyline points="451.0,529.875 453.375,527.125 454.125,525.375 453.875,524.625 452.375,524.125 448.875,524.125 443.75,524.625"/>
    <line x1="442.5" x2="388.75" y1="524.75" y2="530.5"/>
    <polyline points="385.5,531.0 371.5,532.875 359.625,534.875 346.625,537.625 337.25,540.0 321.875,545.0 310.625,549.75 304.75,552.75 298.75,556.25 292.5,560.5 286.25,565.375 279.875,571.375 273.625,578.25 267.75,586.625 262.625,596.375"/>
    <polyline points="258.625,607.625 256.75,620.375 257.875,634.375 263.625,648.625 275.25,661.625 294.125,671.5 320.625,675.375 353.5,671.375 390.25,658.5 427.25,637.5 461.5,610.75 490.75,581.125 514.375,551.0 532.375,522.375 545.5,496.0 554.5,472.5 560.125,451.75 563.125,433.625 563.75,418.0 562.625,404.625 560.0,393.25 556.125,384.0 551.25,376.75 545.625,371.375 539.5,368.0 533.0,366.375"/>
    <polyline points="526.5,366.625 520.125,368.625 514.0,372.0 508.25,376.75 503.125,382.5 498.625,389.125 494.75,396.25 491.375,403.875 488.75,411.5 486.625,419.125 483.75,433.625 483.0,440.375 482.25,452.625 482.375,463.0 483.0,471.75 484.5,482.0 486.75,491.5"/>
    <polyline points="487.25,493.375 491.5,506.375 491.625,509.0 490.875,510.875"/>
    <polyline points="490.625,511.0 489.125,512.125 486.75,513.0 481.5,514.125 477.75,514.5"/>
    <polyline points="477.0,514.5 465.125,515.125 447.75,514.75"/>
    <polyline points="446.25,514.625 433.0,513.125 426.0,511.625 419.0,509.375 415.75,507.875 411.375,505.0 408.875,502.5 407.125,499.625"/>
    <polyline points="406.625,497.875 406.375,494.0 406.75,491.875 407.5,489.5 408.75,487.0 410.375,484.375 412.75,481.625 415.625,478.75 419.25,475.875 428.625,470.25 434.375,467.75 440.75,465.5 447.875,463.625 455.5,462.25 463.5,461.625 471.75,461.625 480.125,462.375 488.375,463.875 496.25,466.25 503.75,469.25 510.75,472.75 517.0,476.75 522.5,481.125 527.375,485.625"/>
    <polyline points="531.5,490.25 537.75,499.0 540.0,503.125 543.125,510.375 544.125,513.5 545.5,520.75 545.375,525.25 544.625,527.5 544.0,528.125 542.75,528.0 542.0,526.75"/>
    <polyline points="541.875,526.25 541.75,524.125 542.25,522.25 543.25,520.375 545.875,517.875 549.5,515.625"/>
    <polyline points="550.25,515.25 560.375,511.0 580.0,504.0"/>
    <polyline points="581.75,503.25 593.125,498.25 603.875,492.125 610.75,487.125 617.875,480.5 625.0,471.875 629.5,464.375 633.5,455.125 635.125,449.75"/>
    <polyline points="636.625,443.625 637.75,436.875 638.375,429.375 638.5,421.0 637.875,411.75 636.375,401.625 633.875,390.375 630.25,378.375 625.125,365.5 618.25,352.25 609.625,338.875 599.125,325.875 586.625,314.25 572.5,304.5 556.875,297.875 540.5,294.875 524.0,296.125 508.125,301.75 493.5,311.375 480.5,324.375 469.5,339.875 460.625,356.875 453.75,374.375 448.5,391.625 444.75,408.125 442.25,423.5"/>
    <polyline points="440.75,437.625 439.875,450.125 439.5,461.25 439.875,479.375 441.625,498.25 445.625,522.125 445.125,524.75 443.25,526.125"/>
    <polyline points="442.625,526.5 433.375,528.5 416.25,531.125 402.25,533.625"/>
    <polyline points="399.625,534.25 391.25,536.0 378.75,539.25 364.625,544.0 353.125,549.0 345.0,553.5 340.875,556.125 332.625,562.25 328.625,566.0 324.875,570.125 321.25,574.75 318.125,579.875 315.625,585.5 313.875,591.5"/>
    <polyline points="313.375,597.875 314.25,604.375 316.875,610.875 321.75,616.75 329.125,621.625 339.25,624.875 352.0,625.875 367.125,624.25 384.125,619.5 402.0,611.875 420.125,601.625 437.625,589.375 453.875,575.875 468.375,561.625 481.0,547.625 491.75,534.0 500.75,521.5 508.125,510.0 514.25,499.75 519.25,490.75 526.375,476.125 534.0,458.125"/>
    <polyline points="535.125,455.5 537.875,449.25 539.375,447.75 540.375,448.125 544.0,452.0 546.75,453.875"/>
    <polyline points="547.375,454.25 551.375,455.25 555.75,454.75 557.875,453.875 560.75,452.0 562.125,450.75 564.625,447.625"/>
    <polyline points="565.125,446.625 566.625,443.625 567.75,438.75 568.0,434.75 567.125,429.0 565.5,424.75 563.0,420.75 560.875,418.5 557.0,415.875"/>
    <polyline points="555.625,415.25 551.0,414.5 549.5,414.5 546.375,415.25 541.875,417.5 538.0,421.25 534.75,426.0 533.125,429.625 531.875,433.375 531.0,437.125 530.375,444.5"/>
    <polyline points="530.5,446.25 530.75,449.625 531.75,454.125 533.25,458.0 535.125,461.375 537.375,464.125 539.875,466.375 542.625,468.0 547.625,469.625"/>
    <polyline points="548.625,469.75 550.875,470.0 555.375,469.75 561.25,468.125 565.0,466.375 568.625,464.0 573.375,459.875 577.625,454.125"/>
    <polyline points="578.625,452.375 581.875,444.5 583.25,437.125 583.5,431.75 583.375,428.75 582.5,422.75 579.375,413.125 576.125,406.75 571.75,400.75 569.125,398.0 563.125,393.5 559.875,391.75 556.375,390.5 552.75,389.625"/>
    <polyline points="549.125,389.25 545.375,389.5 541.625,390.25 538.0,391.5 534.5,393.375 531.125,395.75 525.0,401.625 522.375,405.125 517.75,412.75 515.875,416.875 513.0,425.125 511.0,433.375 509.875,441.25 509.5,448.375 509.625,454.875 511.125,465.875"/>
    <polyline points="511.75,468.125 512.25,470.25 515.0,477.375 519.0,483.875 522.375,487.5 525.0,489.625 528.5,491.75 532.25,493.25"/>
    <polyline points="533.125,493.5 537.125,494.5 541.25,495.0 548.0,495.0 552.875,494.5 562.375,492.5"/>
    <polyline points="563.875,492.0 570.125,490.0 580.25,485.25 585.625,481.875 591.125,477.625 596.75,472.125 600.375,467.75 603.875,462.375 607.0,456.125"/>
    <polyline points="608.5,452.625 610.875,444.5 611.75,440.0 612.375,435.0 612.625,423.875 612.125,417.625 611.125,410.875 609.5,403.875 607.25,396.5 604.25,388.75 600.375,381.0 595.75,373.125 590.125,365.5 583.625,358.375 576.25,352.0 568.125,346.625 559.25,342.625 550.0,340.375 540.5,339.875 531.0,341.5 521.875,345.0 513.25,350.25 505.25,357.25 498.25,365.5"/>
    <polyline points="492.125,374.75 487.0,384.625 482.75,394.75 479.375,405.0 476.75,414.875 474.75,424.375 473.375,433.375 471.875,449.375 471.75,462.75 472.125,473.625 473.5,486.0 474.875,494.625 477.125,505.875"/>
    <polyline points="477.25,506.875 477.375,510.0 476.625,512.125 474.25,514.25 470.25,515.625 466.0,516.375 465.5,516.75 463.0,517.375 458.0,518.25 445.875,519.25 433.75,519.5"/>
    <polyline points="465.0,516.5 451.5,517.5 438.625,517.5 427.125,516.875"/>
    <polyline points="425.125,516.625 414.5,515.25 410.0,514.375 403.375,512.5 397.0,509.875 391.25,506.0 389.625,504.375 387.125,500.5 386.25,498.125 385.75,495.625 385.75,492.75 386.25,489.5 387.375,486.0 389.375,482.125"/>
    <polyline points="392.125,478.0 396.0,473.5 401.0,468.875 407.125,464.125 414.75,459.375 423.625,455.0 433.875,451.0 445.25,447.875 457.625,445.75 470.75,445.0 484.0,445.75 497.0,448.125 509.5,452.0 521.0,457.25 531.25,463.625 540.125,470.75 547.625,478.375 553.75,486.125 558.625,493.625 562.375,500.875 565.125,507.625 567.125,513.625 568.5,519.125 569.375,523.875 569.875,531.375"/>
    <polyline points="569.75,534.375 569.125,538.5 568.125,541.125 567.0,542.375 565.375,542.5 563.875,540.75 563.375,539.5 563.125,537.375 563.375,535.125 564.5,532.125"/>
    <polyline points="564.875,531.375 567.75,528.0 570.875,525.5 573.875,523.75 581.125,520.375 592.0,516.25"/>
    <polyline points="593.875,515.625 610.5,509.75 617.75,506.75 625.75,503.0 634.25,498.25 643.375,491.75 649.5,486.25 655.75,479.125 658.75,474.875"/>
    <polyline points="661.75,470.0 664.5,464.375 667.125,458.0 669.5,450.5 671.375,442.0 672.625,432.125 673.25,420.75 672.75,407.5 670.875,392.375 667.25,375.0 661.375,355.625 652.75,334.25 640.5,311.375 624.5,288.25 604.25,266.5 580.125,248.5 552.875,236.625 524.25,233.125 496.0,239.25 470.375,254.75 448.5,277.75 431.125,305.75 418.25,335.875 409.25,365.875 403.375,394.125 399.75,419.75"/>
    <polyline points="398.0,442.375 397.375,461.875 397.625,478.375 398.375,492.25 399.625,503.75 401.125,513.125 402.875,520.875 404.75,527.0 406.75,531.875 408.875,535.75 411.0,538.75 413.125,541.0 415.25,542.5 417.5,543.625 419.75,544.25 424.0,544.375 430.0,542.875 435.25,540.375 439.5,537.5"/>
    <polyline points="440.75,536.625 445.25,532.5 447.0,530.125 447.25,528.625 446.875,528.125 445.625,527.625 440.375,527.625"/>
    <polyline points="439.375,527.625 417.25,530.5 405.875,532.375 389.25,535.625"/>
    <polyline points="386.125,536.375 372.75,539.875 361.625,543.625 353.75,546.875 345.375,550.875 336.875,556.0 332.5,559.125 323.875,566.5 319.875,570.875 316.0,575.875 312.75,581.375 310.0,587.375 308.25,594.0 307.625,601.0 308.75,608.125 311.875,615.25 317.5,621.625"/>
    <polyline points="326.0,626.875 337.5,630.125 352.125,630.625 369.25,628.125 388.125,622.125 407.875,612.875 427.5,600.75 446.0,586.625 462.75,571.375 477.5,555.875 490.125,540.625 500.5,526.25 509.125,513.125 516.125,501.25 521.75,490.75 529.625,473.625 536.0,456.5 538.0,449.25 539.625,441.75"/>
    <polyline points="539.625,440.875 539.625,439.875 539.5,442.875 540.5,447.5 541.875,450.375 544.25,453.5"/>
    <polyline points="544.875,454.0 546.0,454.875 548.75,456.125 550.125,456.5 553.125,456.625 555.5,456.25 557.875,455.375 561.0,453.625 563.125,451.625"/>
    <polyline points="563.875,450.875 565.875,448.25 568.0,443.875 569.25,438.625 569.375,434.25 569.125,431.125 568.375,427.875 566.625,423.125 564.75,420.125 562.625,417.5"/>
    <polyline points="561.25,416.25 557.0,413.5 553.75,412.375 552.0,412.125 548.625,412.25 546.875,412.625 541.75,414.875 537.25,418.75 533.625,424.0 530.875,429.875 529.625,434.125 528.875,438.25"/>
    <polyline points="528.625,440.25 528.5,448.0 529.625,454.875 531.125,459.125 532.375,461.625 536.125,466.625 538.75,468.875 542.625,471.0"/>
    <polyline points="543.625,471.375 546.875,472.25 550.125,472.625 556.125,472.25 559.75,471.375 562.375,470.5 567.5,467.875 571.375,465.25 573.875,463.0"/>
    <polyline points="575.125,461.75 579.875,455.75 582.875,450.0 584.5,445.5 586.0,437.75 586.375,431.75 586.25,428.625 585.375,421.875 584.625,418.375 583.5,414.75 580.5,407.5 576.125,400.5 570.625,394.125"/>
    <polyline points="567.375,391.375 563.875,389.0 560.125,387.125 556.25,385.625 552.125,384.75 548.0,384.5 543.75,384.875 539.625,385.75 535.5,387.375 531.625,389.625 524.5,395.75 521.25,399.375 518.375,403.5 515.875,407.875 513.625,412.375 510.125,421.625 507.75,430.875 506.25,439.625 505.875,443.75 505.75,454.875"/>
    <polyline points="506.0,458.25 506.625,464.125 507.625,469.375 509.5,475.875 511.625,481.0 513.875,485.0 516.125,488.25 518.5,490.875 521.625,493.5 523.25,494.5"/>
    <polyline points="524.0,495.0 528.125,496.875 532.375,498.125 539.75,499.0 547.0,498.75"/>
    <polyline points="548.125,498.625 558.125,497.0 562.25,496.0 569.75,493.625 578.125,490.125 585.375,486.125"/>
    <polyline points="587.25,485.0 591.125,482.375 597.0,477.5 600.875,473.5 604.75,468.75 608.375,463.125 611.75,456.375 613.25,452.5 615.625,443.625 617.125,433.125 617.375,427.25 617.125,420.75 616.375,413.75 615.125,406.375 613.125,398.375 610.25,390.125 606.625,381.5"/>
    <polyline points="602.0,372.75 596.25,364.0 589.5,355.75 581.75,348.125 572.875,341.5 563.375,336.375 553.125,333.0 542.5,331.75 531.875,332.875 521.5,336.25 511.75,341.875 502.75,349.375 494.75,358.5 487.875,368.75 482.125,379.75 477.5,391.125 473.75,402.5 471.0,413.5 468.875,424.0 467.5,433.75 466.5,442.875 465.75,458.75 466.0,471.5 466.375,476.875"/>
    <polyline points="466.75,481.625 467.75,489.625 470.5,505.625 470.875,509.25 470.625,512.375 469.875,514.0 468.625,515.25 466.875,516.125"/>
    <polyline points="431.75,519.5 416.75,519.0 407.125,518.125 399.5,517.0 391.625,515.25 383.875,512.625 379.125,510.125 376.75,508.5 372.875,504.75"/>
    <polyline points="371.25,502.375 370.0,499.75 369.125,496.625 368.875,493.25 369.25,489.25 370.5,484.75 372.75,479.75 376.125,474.25 381.125,468.25 387.625,461.875 396.125,455.125 406.5,448.625 419.125,442.375 433.625,437.0 449.875,433.125 467.5,431.125 485.5,431.375 503.375,434.25 520.25,439.625 535.5,447.125 548.875,456.375 559.875,466.75 568.75,477.625 575.625,488.5 580.875,499.0 584.5,508.625"/>
    <polyline points="587.0,517.5 588.5,525.25 589.25,532.0 589.5,537.875 589.375,542.75 588.875,546.75 587.375,552.5 585.375,556.0 584.25,557.0 582.25,557.875 580.125,557.75 577.5,556.125 576.0,554.375 573.75,550.5 573.125,548.375"/>
    <polyline points="572.875,547.375 572.5,545.375 572.875,540.625 574.75,536.5 578.125,532.875 581.75,530.375 586.375,528.0"/>
    <polyline points="587.625,527.5 591.75,525.875 600.0,523.375 629.25,516.0 640.875,512.75"/>
    <polyline points="644.0,511.75 650.5,509.625 660.875,505.5 672.0,499.75 679.75,494.5 683.625,491.25 687.625,487.5 691.5,483.125 695.375,478.125 699.125,472.0 702.75,464.875 705.875,456.25 708.625,446.0 710.625,433.75 711.625,418.75 711.125,400.875 708.375,379.25 702.75,353.5 693.0,323.5 677.875,289.375"/>
    <polyline points="655.875,252.75 625.875,216.5 588.125,185.875 544.375,167.125 498.5,165.375 455.5,182.875 419.375,216.75 392.0,261.125 373.375,309.375 361.625,356.25 355.125,398.75 352.125,435.625 351.375,466.625 352.375,492.125 354.625,513.0 357.875,529.625 362.125,542.75 367.125,552.875 373.0,560.375 379.625,565.5 387.0,568.5 394.875,569.625 403.125,569.25 411.625,567.375 420.0,564.375 428.25,560.375"/>
    <polyline points="436.25,555.75 443.75,550.75 450.875,545.375 463.125,534.75 473.25,524.875 487.5,509.5 496.625,500.25 501.375,496.625 504.0,495.25 506.25,494.5 510.25,494.375"/>
    <polyline points="511.125,494.5 515.25,495.625 521.25,498.125 525.75,499.625 530.375,500.625"/>
    <polyline points="531.125,500.75 535.25,501.25 542.625,501.25 548.875,500.625 556.125,499.375"/>
    <polyline points="557.375,499.0 567.25,496.375 575.375,493.375 582.375,490.0 586.125,488.0 591.875,484.25 595.875,481.125 599.875,477.5"/>
    <polyline points="601.875,475.5 607.875,468.25 611.625,462.125 614.875,454.875 616.375,450.75 618.75,441.125 619.5,435.75 619.875,429.75 619.875,423.25 619.375,416.125 618.25,408.625 616.5,400.5 613.875,391.875 610.375,382.875 605.875,373.625 600.25,364.375 593.625,355.375 585.625,346.875 576.625,339.5 566.75,333.5 556.0,329.375"/>
    <polyline points="544.875,327.375 533.5,327.875 522.5,331.0 511.875,336.375 502.25,344.125 493.625,353.5 486.25,364.375 480.0,376.0 475.0,388.0 471.0,400.0 468.0,411.625 465.75,422.75 464.25,433.125 463.25,442.75 462.75,451.5 462.5,459.375 462.75,472.75 464.0,487.5 466.25,502.25"/>
    <polyline points="466.625,504.25 467.375,509.875 467.375,512.625 466.375,515.0 465.0,516.375 462.5,517.625 455.875,519.0"/>
    <polyline points="454.75,519.25 437.0,520.625 416.125,520.75 408.75,520.375"/>
    <polyline points="406.125,520.25 398.125,519.625 389.75,518.5 384.0,517.375 375.25,514.875 369.75,512.5 367.125,510.875 362.25,507.125 360.25,504.75 358.5,502.0 357.25,498.75 356.625,495.0 356.625,490.75 357.625,485.75 359.625,480.125 363.125,473.75 368.25,466.625"/>
    <polyline points="375.5,458.875 385.125,450.75 397.25,442.375 412.25,434.5 429.875,427.75 449.875,422.75 471.375,420.375 493.5,421.25 515.0,425.5 534.875,433.125 552.375,443.5 567.0,455.75 578.625,469.25 587.5,482.875 594.0,496.125 598.5,508.5 601.375,519.75 603.0,529.625 603.75,538.25 603.875,545.625 603.375,551.875 602.5,557.0 601.375,561.125 600.0,564.375 598.625,566.875 597.0,568.75"/>
    <polyline points="595.375,570.125 591.875,571.25 588.5,571.0 583.75,568.75 580.875,566.5 576.0,561.0 573.25,556.625 571.125,552.375 570.125,549.625 569.0,544.625"/>
    <polyline points="569.0,543.5 569.0,540.375 569.375,538.375 570.375,535.75 572.625,532.5 574.75,530.375 577.375,528.5 580.625,526.625 585.625,524.375"/>
    <polyline points="587.0,523.875 596.5,520.5 625.375,511.625 633.875,508.5 643.0,504.5"/>
    <polyline points="646.125,502.875 652.75,499.25 663.125,491.75 666.625,488.625 673.625,480.875 677.125,476.125 680.375,470.5 683.5,464.0 686.375,456.5 688.875,447.625 690.75,437.125 691.875,424.75 691.875,410.125 690.375,392.875 686.75,372.75 680.375,349.5 670.25,323.25 655.75,294.625 635.75,265.125 609.875,237.25 578.5,214.625 543.125,201.25"/>
    <polyline points="506.5,200.5 471.75,213.625 441.625,239.0 417.75,272.875 400.375,311.0 388.5,349.375 381.125,385.5 377.0,417.75 375.125,445.75 374.75,469.5 375.625,489.25 377.125,505.5 379.375,518.75 382.0,529.375 385.125,537.75 388.5,544.25 392.375,549.0 396.5,552.5 400.875,554.75 405.375,555.875 410.0,556.25 414.75,555.875 419.625,554.75 424.25,553.125 428.875,551.25 433.375,548.875"/>
    <polyline points="437.625,546.375 445.5,541.125 455.5,533.25 476.875,514.25 479.5,512.625 480.5,512.5 480.0,513.125 477.5,514.25 470.875,515.625"/>
    <polyline points="470.0,515.75 463.0,516.5 454.125,516.875 445.125,516.875 436.5,516.5"/>
    <polyline points="434.75,516.375 423.0,515.25 414.75,513.75 408.375,512.0 402.375,509.5 397.0,506.0 394.0,502.875 392.0,499.0 391.375,496.625 391.25,494.125"/>
    <polyline points="391.5,491.375 392.25,488.25 393.75,484.875 395.875,481.25 398.875,477.5 402.875,473.375 407.75,469.25 413.875,465.0 421.125,461.0 429.5,457.25 439.0,454.0 449.375,451.5 460.625,450.0 472.375,449.625 484.125,450.5 495.75,452.75 506.875,456.375 517.125,461.0 526.375,466.625 534.5,472.875 541.25,479.5 547.0,486.25 551.625,493.0 555.25,499.375 558.0,505.375 560.0,510.875"/>
    <polyline points="561.5,515.875 562.5,520.25 563.0,524.0 563.375,530.0 562.625,535.5 561.75,537.375 560.875,538.125 560.0,538.25 558.625,536.875 558.125,535.125 558.375,531.875"/>
    <polyline points="558.625,531.125 559.875,528.5 561.375,526.625 564.0,524.125 569.375,520.75 579.125,516.375"/>
    <polyline points="580.625,515.875 600.375,508.375 611.75,503.375 624.625,496.25 630.125,492.375 635.75,487.625"/>
    <polyline points="638.625,484.875 644.375,478.375 649.875,470.0 652.5,465.125 655.0,459.5 659.125,445.75 660.5,437.375 661.375,427.875 661.5,416.875 660.625,404.5 658.5,390.5 654.75,374.75 648.875,357.5 640.625,338.75 629.5,319.25 615.25,299.875 597.625,281.875 577.0,267.0 554.0,257.125 529.75,253.875 505.75,258.125 483.5,269.75 464.0,287.625"/>
    <polyline points="447.875,310.125 435.375,335.125 426.125,360.875 419.75,385.75 415.5,408.875 413.0,429.75 411.75,448.25 411.375,464.125 411.625,477.875 412.25,489.375 414.25,507.125 415.5,513.75 418.125,523.625 420.75,530.0 423.375,534.0 425.625,536.375 427.75,537.5 430.5,537.875"/>
    <polyline points="431.25,537.875 433.75,536.75 434.5,535.625 434.375,535.125 433.625,534.625 432.25,534.375 427.625,534.5 425.5,534.875"/>
    <polyline points="424.375,535.0 419.125,535.875 411.125,537.75 397.25,541.875 390.5,544.5 383.25,547.75 375.875,551.75"/>
    <polyline points="373.5,553.375 368.625,556.875 366.375,558.875 362.125,563.125 360.25,565.5 357.25,570.625 355.75,576.0 355.75,578.75 356.375,581.5 357.625,584.0 359.625,586.25 362.5,588.25 366.25,589.625 370.875,590.5 376.25,590.625 382.5,590.0 389.5,588.5 397.0,586.125 404.875,582.875 413.0,578.875 421.0,574.125 429.0,568.875"/>
    <polyline points="436.625,563.25 450.75,551.375 462.625,539.875 476.5,524.75 488.875,510.375 496.875,502.125 502.375,498.125 505.625,497.0 508.375,496.75"/>
    <polyline points="509.25,496.875 514.5,498.375 522.375,501.5 526.375,502.5"/>
    <polyline points="527.0,502.625 532.0,503.375 538.375,503.5 547.875,502.5"/>
    <polyline points="549.0,502.375 559.875,500.125 571.625,496.5 578.375,493.75 585.625,490.125"/>
    <polyline points="587.5,489.0 593.5,485.25 599.625,480.375 605.75,474.125 609.75,469.0 611.75,466.0 615.375,459.25 618.5,451.125 619.875,446.375 621.0,441.25 621.75,435.625 622.125,429.375 622.125,422.625 621.625,415.25 620.5,407.375 618.5,398.875 615.75,389.875"/>
    <polyline points="612.125,380.375 607.25,370.625 601.25,360.875 594.125,351.5 585.625,342.75 576.0,335.0 565.5,329.0 554.0,324.875 542.25,323.375 530.375,324.375 518.75,328.125 507.875,334.5 498.0,343.125 489.375,353.5 482.0,365.25 475.875,377.625 470.875,390.25 467.125,402.875 464.375,414.875 462.375,426.25 461.0,436.875 460.125,446.5 459.75,455.25 459.625,463.125 460.125,476.25"/>
    <polyline points="460.5,481.625 461.875,494.25 464.375,509.625 464.5,512.75 464.25,514.375 463.375,516.125 461.375,517.75 459.25,518.625"/>
    <polyline points="458.375,518.875 455.625,519.625 447.125,520.75 434.0,521.75 419.375,522.125"/>
    <polyline points="417.0,522.125 404.375,522.125 387.125,521.125 374.5,519.375 368.125,518.0 361.625,516.0 355.5,513.125 352.625,511.375 349.875,509.25 347.375,506.75 345.375,503.875"/>
    <polyline points="343.75,500.375 342.625,496.25 342.5,491.375 343.25,485.75 345.5,479.125 349.25,471.625 355.25,463.0 363.875,453.5 375.5,443.375 390.75,433.0 409.5,423.25 432.0,415.0 457.125,409.5 484.125,407.875 511.0,410.875 536.375,418.5 558.75,430.375 577.25,445.25 591.875,461.875 602.625,479.0 610.25,495.75 615.375,511.25 618.375,525.25 619.875,537.625 620.375,548.375 619.875,557.5"/>
    <polyline points="618.875,565.125 617.25,571.375 615.375,576.5 613.125,580.5 610.75,583.625 608.125,585.875 605.5,587.375 602.625,588.125 599.875,588.375 597.0,588.125 594.0,587.5 588.375,585.125 583.0,581.625 578.0,577.375 573.5,572.875 569.5,568.125 566.0,563.5 561.75,556.875"/>
    <polyline points="560.5,554.75 558.375,550.875 556.0,545.625 553.375,537.125 553.0,532.75 553.5,529.125 554.875,526.0 555.75,524.75"/>
    <polyline points="556.25,524.0 558.75,521.625 563.875,518.375 573.125,514.25 583.625,510.25"/>
    <polyline points="585.375,509.625 596.875,505.0 605.625,500.875 615.25,495.375 622.875,489.875 628.25,485.25 636.25,476.25 641.375,468.375 643.75,463.625"/>
    <polyline points="646.0,458.375 648.0,452.5 649.75,445.75 651.125,438.125 652.0,429.5 652.25,419.75 651.5,408.875 649.875,396.625 646.875,383.0 642.125,368.0 635.5,352.0 626.625,335.25 615.125,318.25 601.0,302.125 584.375,288.0 565.375,277.375 544.875,271.375 523.875,271.125 503.5,277.0 484.75,288.75 468.5,305.25 455.0,325.125 444.375,346.875 436.375,369.125 430.75,390.625 427.0,410.75"/>
    <polyline points="424.625,429.125 423.25,445.5 422.75,459.875 422.75,472.25 423.875,491.875 425.625,505.875 427.5,515.625 430.125,524.625 432.25,529.375 434.5,532.875 434.625,533.25 434.375,533.5"/>
    <polyline points="434.125,533.5 425.875,534.5 419.5,535.625 406.0,539.0"/>
    <polyline points="404.0,539.625 390.875,544.125 381.125,548.5 373.625,552.875 366.375,558.375 362.0,562.625 358.375,567.5 356.875,570.125 355.75,572.75 355.125,575.625 355.0,578.375 355.375,581.125"/>
    <polyline points="356.5,583.75 358.25,586.125 361.0,588.25 364.5,589.875 369.0,591.0 374.25,591.375 380.5,590.875 387.375,589.625 394.875,587.375 402.875,584.25 411.125,580.375 419.375,575.625 427.5,570.375 442.875,558.75 449.75,552.625 462.125,540.875 467.5,535.25 491.75,507.625"/>
    <polyline points="493.875,505.375 497.5,501.625 500.5,499.125 503.125,497.5 505.375,496.625 507.375,496.125 510.875,496.25 519.125,499.0"/>
    <polyline points="519.75,499.25 523.875,500.75 527.375,501.625 531.875,502.375 538.5,502.625"/>
    <polyline points="539.375,502.5 543.0,502.375 551.5,501.25 560.375,499.375 569.0,496.75"/>
    <polyline points="570.625,496.125 575.625,494.25 584.5,490.0 592.25,485.25 596.25,482.25 600.25,478.75 606.375,472.125 610.375,466.625 614.0,460.125 617.25,452.25"/>
    <polyline points="618.625,447.75 620.625,437.375 621.125,431.5 621.25,425.0 620.875,417.875 620.0,410.25 618.375,402.125 616.0,393.375 612.625,384.25 608.25,374.75 602.875,365.25 596.125,355.875 588.375,347.0 579.25,339.0 569.25,332.5 558.375,327.75 546.875,325.25 535.25,325.25 523.75,327.875 512.75,333.125 502.625,340.75 493.625,350.25 485.75,361.25 479.25,373.125 474.0,385.5"/>
    <polyline points="469.75,397.875 466.625,410.0 464.25,421.5 462.625,432.25 461.0,451.125 460.75,459.25 461.375,478.75 463.75,498.375 465.25,506.875 465.625,510.75 465.625,512.625 465.25,514.125"/>
    <polyline points="465.125,514.75 464.375,515.875 463.0,517.125 457.625,519.0 449.625,520.25 440.625,521.0"/>
    <polyline points="438.875,521.0 423.25,521.625 408.875,521.5 392.375,520.5 386.5,519.875 377.375,518.25"/>
    <polyline points="374.25,517.5 365.125,514.5 359.375,511.5 354.25,507.375 352.125,504.75 350.375,501.625 349.125,498.125 348.625,493.875 348.875,489.0 350.25,483.25 352.875,476.75 357.375,469.375 363.875,461.125 373.0,452.125 385.0,442.75 400.125,433.375 418.625,424.875 440.0,418.125 463.625,414.0 488.5,413.5 513.0,417.125 535.875,424.875"/>
    <polyline points="556.125,436.125 572.875,449.875 586.125,465.125 596.0,480.75 603.125,495.875 608.0,510.0 611.0,522.75 612.625,534.0 613.125,543.875 613.0,552.125 612.25,559.125 611.0,564.875 609.5,569.5 607.625,573.25 605.75,576.125 603.625,578.125 601.375,579.625 596.875,580.75 592.25,580.25 590.0,579.375 585.625,577.125 581.5,574.125"/>
    <polyline points="579.5,572.375 576.0,568.75 571.375,563.0 565.75,553.875 563.0,547.5 561.75,543.25 561.125,539.5 561.125,536.25 561.5,534.25"/>
    <polyline points="561.625,533.375 563.625,529.25 566.875,525.75 572.5,522.125 577.125,519.875 584.25,517.0"/>
    <polyline points="585.875,516.5 609.375,507.625 619.25,503.125 624.5,500.375 630.125,497.0 635.875,493.0 644.875,485.125"/>
    <polyline points="647.75,481.75 650.75,478.125 653.75,473.875 656.5,469.25 659.25,463.75 661.75,457.625 663.875,450.5 665.75,442.375 667.0,433.125 667.625,422.375 667.25,410.0 665.75,395.875 662.5,379.875 657.375,362.0 649.75,342.375 639.0,321.375 624.875,300.0 607.0,279.375 585.5,261.75 561.125,248.875 534.875,243.125 508.375,245.75 483.5,257.0 461.75,275.625 443.75,299.75 429.875,326.875"/>
    <polyline points="419.625,355.0 412.625,382.25 408.25,407.375 405.625,430.0 404.375,449.875 404.0,467.0 404.375,481.5 405.25,493.625 406.375,503.75 407.75,512.125 409.25,518.875 410.875,524.5 414.125,532.375 417.625,537.25 419.25,538.75 422.625,540.625 425.75,541.25 428.625,541.0 432.375,539.75"/>
    <polyline points="433.5,539.25 437.625,536.375 439.375,534.25 439.75,533.125 439.375,532.25 437.875,531.625 433.25,531.625"/>
    <polyline points="432.25,531.625 420.125,533.375 410.75,535.25 394.75,539.375 383.875,543.0"/>
    <polyline points="381.0,544.125 372.0,548.125 362.75,553.25 356.5,557.625 350.5,562.75 345.25,568.875 343.0,572.375 341.125,576.0 339.75,579.875 339.125,583.875 339.125,587.875 340.125,591.875 342.25,595.625 345.625,599.0 350.375,601.75 356.625,603.625 364.25,604.375 373.25,603.75 383.375,601.625"/>
    <polyline points="394.375,598.0 405.875,593.0 417.5,586.5 429.0,579.125 440.0,570.875 450.125,562.125 459.5,553.375 475.375,536.375 487.625,521.375 506.625,495.625 513.25,487.25 518.0,482.625 520.75,481.0 523.125,480.125"/>
    <polyline points="524.25,480.0 526.5,479.875 529.625,480.25 538.125,482.25 542.625,482.875 547.375,483.25 552.5,483.0"/>
    <polyline points="553.75,482.875 559.125,481.875 564.875,480.125 572.375,476.625 575.5,474.625 578.625,472.375 583.25,468.25 586.25,465.0 590.625,458.875"/>
    <polyline points="591.875,456.5 595.375,448.25 597.0,441.75 598.0,434.25 598.0,425.75 596.75,416.25 593.875,406.0 591.875,400.75 589.25,395.375 586.25,390.125 582.5,385.0 578.375,380.125 573.75,375.75 568.5,371.875 562.875,368.75 557.0,366.375 550.75,365.0 544.375,364.75 538.125,365.625"/>
    <polyline points="531.875,367.625 525.875,370.625 520.25,374.75 515.125,379.625 510.5,385.25 506.25,391.5 502.75,398.125 499.625,404.875 497.125,411.75 495.0,418.625 492.25,431.75 491.375,437.875 490.375,449.125 490.5,463.25 491.25,470.875 492.75,479.875 494.5,486.75"/>
    <polyline points="495.0,488.625 498.25,497.0 500.375,501.25 504.0,507.375"/>
    <polyline points="504.125,507.75 504.875,509.625 504.875,510.5 504.25,511.5 502.625,512.25 498.875,512.875"/>
    <line x1="498.625" x2="486.875" y1="513.0" y2="514.0"/>
    <polyline points="486.25,514.0 477.875,514.375 463.625,514.375"/>
    <polyline points="462.375,514.375 454.625,514.125 441.25,512.875 436.5,512.125 430.0,510.625 425.25,509.125"/>
    <polyline points="423.75,508.5 419.375,506.25 416.875,504.375 414.75,502.0 413.25,499.375 412.5,496.25 412.875,492.625 413.5,490.5 416.125,486.125 418.0,483.875 423.5,479.0 427.0,476.625 431.25,474.375 436.0,472.125 441.25,470.25 447.0,468.5 453.375,467.25"/>
    <polyline points="460.0,466.5 466.875,466.25 474.0,466.5 481.0,467.5 488.0,469.0 494.625,471.0 501.0,473.625 506.75,476.625 512.125,480.0 516.875,483.625 521.125,487.375 527.75,495.0 532.375,502.0 534.125,505.25 537.125,513.375 537.625,515.5 538.125,520.375 537.625,523.125"/>
    <polyline points="537.375,523.75 536.875,524.5 535.625,524.75 534.25,523.25 533.75,520.75 534.375,518.625"/>
    <polyline points="534.5,518.375 536.125,516.375 539.0,514.375 543.0,512.5 546.625,511.25"/>
    <polyline points="547.5,511.0 566.0,505.25 578.25,500.75"/>
    <polyline points="580.0,500.125 591.375,494.875 601.875,488.375 608.5,483.0 615.375,476.0 619.75,470.125 624.0,463.0 627.75,454.125 630.625,443.375"/>
    <polyline points="631.625,437.125 632.25,430.25 632.375,422.5 631.875,414.125 630.625,404.875 628.5,394.75 625.25,384.0 620.875,372.5 615.0,360.625 607.625,348.75 598.625,337.125 588.0,326.375 575.875,317.125 562.375,310.25 548.0,306.25 533.25,305.75 518.75,308.875 505.0,315.625 492.625,325.625 481.625,338.125 472.5,352.375 465.0,367.75 459.125,383.375 454.75,398.75 451.625,413.375 449.5,427.0"/>
    <polyline points="448.125,439.375 447.0,460.625 447.375,477.125 448.25,489.625 449.375,498.875 452.25,517.0 452.0,519.75 451.5,521.0 449.625,522.625"/>
    <polyline points="448.875,523.0 446.5,523.875 441.125,525.0 409.5,528.875"/>
    <polyline points="407.0,529.25 392.875,531.0 372.75,534.25 357.0,537.5 348.25,539.75 334.125,544.375 323.875,548.625 313.0,554.25 307.375,557.875"/>
    <polyline points="301.625,562.0 295.875,566.875 290.125,572.5 284.625,579.125 279.625,586.875 275.375,595.75 272.25,605.875 271.25,617.125 272.875,629.0 278.5,640.875 289.125,651.5 305.375,659.375 327.75,662.5 355.25,659.5 386.125,649.375 417.875,632.75 448.125,611.125 474.875,586.5 497.25,561.0 515.25,536.125 529.125,512.75 539.375,491.75 546.625,473.0 551.5,456.5 554.375,442.375 555.625,430.125"/>
    <polyline points="555.5,419.75 554.375,411.0 552.375,403.75 549.75,398.0 546.5,393.625 542.75,390.5 538.875,388.625 534.875,387.75 530.75,388.125 526.625,389.375 522.75,391.625 519.125,394.625 515.75,398.125 512.625,402.25 509.875,406.875 507.5,411.625 505.5,416.625 503.75,421.75 502.5,426.875 500.625,436.75 499.625,445.875 499.625,457.875"/>
    <polyline points="499.875,461.375 501.75,473.125 503.625,479.75 505.625,485.0 508.375,490.25 510.375,493.125 513.0,496.25 515.5,498.5"/>
    <polyline points="516.125,499.0 519.125,501.0 523.375,502.875 529.125,504.125 531.875,504.375"/>
    <polyline points="532.625,504.375 541.5,504.125 548.25,503.25 556.25,501.625"/>
    <polyline points="557.5,501.375 570.25,497.625 575.25,495.75 582.25,492.625 589.875,488.375 595.875,484.375 600.0,481.0"/>
    <polyline points="602.0,479.125 608.25,472.375 612.25,466.75 616.0,460.0 617.75,456.125 620.625,447.125 622.625,436.375 623.125,430.125 623.125,423.375 622.625,416.0 621.5,408.0 619.75,399.375 617.0,390.25 613.375,380.75 608.625,370.875 602.625,360.875 595.375,351.25 586.875,342.125 577.25,334.25 566.5,327.875"/>
    <polyline points="554.875,323.5 542.875,321.75 530.75,322.625 518.875,326.375 507.75,332.75 497.625,341.375 488.75,352.0 481.125,363.875 474.875,376.5 469.875,389.5 466.0,402.25 463.125,414.625 461.125,426.125 459.75,436.875 459.0,446.75 458.5,463.5 458.875,476.875 459.75,487.125 462.125,503.375"/>
    <polyline points="462.5,505.5 463.25,513.5 463.0,515.0 462.0,516.75 461.125,517.625 459.25,518.625 454.0,520.125 450.5,520.625"/>
    <polyline points="449.25,520.75 438.875,521.75 423.375,522.625 414.125,522.875 398.125,522.75"/>
    <polyline points="395.25,522.625 386.25,522.25 376.5,521.375 366.5,519.75 359.75,518.125 353.0,515.875 349.75,514.375 346.625,512.625 341.0,508.0 338.75,505.0 336.875,501.375 335.625,497.125 335.25,492.125 335.875,486.125 338.0,479.125 342.0,471.0 348.25,461.75"/>
    <polyline points="357.5,451.375 370.125,440.125 386.75,428.625 407.625,417.625 432.5,408.625 460.625,402.75 490.375,401.5 519.875,405.75 547.125,415.375 570.5,429.5 589.5,446.875 603.875,465.625 614.25,484.625 621.125,502.75 625.5,519.375 627.875,534.25 628.625,547.25 628.5,558.375 627.375,567.75 625.75,575.625 623.625,582.0 621.0,587.125 618.125,591.125 615.0,594.125 611.625,596.125 608.125,597.375"/>
    <polyline points="604.5,597.75 600.875,597.625 597.125,596.875 589.875,593.875 582.875,589.375 576.375,584.125 573.375,581.25 565.375,572.25 557.0,560.75 551.0,551.0 546.25,541.25"/>
    <polyline points="545.5,539.625 543.875,535.375 542.625,530.75 542.25,525.5 542.625,523.5 543.625,521.125 545.75,518.75"/>
    <polyline points="546.25,518.25 548.5,516.5 553.875,513.75 569.75,507.875"/>
    <polyline points="571.25,507.375 586.125,501.625 592.0,499.0 600.375,494.5 609.5,488.375 616.625,482.125 621.375,477.0"/>
    <polyline points="623.75,474.0 628.375,467.0 632.5,458.375 634.375,453.25 636.0,447.625 637.375,441.375 638.25,434.25 638.75,426.5 638.625,417.75 637.75,408.125 635.875,397.5 633.0,386.0 628.75,373.5 623.0,360.375 615.5,347.0 606.125,333.625 594.75,321.0 581.625,309.875 566.75,301.25 550.75,295.75 534.125,294.375 517.75,297.375 502.125,304.625 488.0,315.625"/>
    <polyline points="475.75,329.875 465.5,346.0 457.375,363.375 451.125,381.0 446.5,398.125 443.375,414.375 441.25,429.25 440.0,442.75 439.125,465.375 440.25,489.5 442.125,504.625 444.75,517.875 445.375,522.625 445.25,523.375"/>
    <polyline points="445.125,524.0 445.0,524.625 443.875,525.875 441.25,527.0 433.875,528.5 417.25,531.125"/>
    <polyline points="415.25,531.5 398.375,534.625 383.75,538.125 366.75,543.5 359.25,546.625 351.375,550.375 343.375,555.0 335.25,561.0"/>
    <polyline points="331.25,564.5 327.375,568.375 323.75,572.75 320.5,577.625 317.75,582.875 315.75,588.625 314.75,594.75 315.0,601.125 316.875,607.5 320.75,613.5 327.0,618.75 335.75,622.625 347.125,624.625 361.0,624.125 376.875,620.875 394.125,614.625 411.875,605.75 429.375,594.625 446.0,581.75 461.0,568.125 474.375,554.25 485.875,540.75 495.5,527.875 503.625,516.125 510.25,505.5 515.75,496.0"/>
    <polyline points="520.125,487.75 526.625,474.5 537.0,451.5 538.5,449.75 539.375,449.5 540.625,450.0 543.875,452.75"/>
    <polyline points="544.375,453.125 546.125,454.25 549.375,455.5 552.875,455.75 557.375,454.625 560.375,452.875 561.75,451.625"/>
    <polyline points="562.5,451.0 565.625,446.875 566.625,444.75 567.75,441.25 568.375,437.375 568.375,433.125 567.5,428.625 565.875,424.25 563.25,420.125"/>
    <polyline points="562.125,418.875 559.75,416.75 557.0,415.125 552.375,413.75 549.25,413.75 546.0,414.5 542.875,416.0 538.625,419.5 535.0,424.25 532.375,429.75 530.625,435.5"/>
    <polyline points="530.25,437.5 529.75,443.25 530.0,448.625 530.5,451.875 532.25,457.625 534.0,461.125 537.0,465.0 538.625,466.5 542.375,468.875"/>
    <polyline points="543.25,469.25 547.375,470.5 550.625,470.875 555.25,470.625 558.875,469.875 565.0,467.375 568.75,465.0 572.375,462.0"/>
    <polyline points="573.5,460.875 575.875,458.25 579.125,453.5 581.0,449.75 582.5,445.5 583.625,440.75 584.375,435.375 584.375,429.625 583.625,423.375 580.75,413.5 577.5,406.75 573.125,400.5 570.5,397.625"/>
    <polyline points="567.5,395.0 564.375,392.625 561.0,390.75 557.375,389.25 553.75,388.25 549.875,387.75 546.0,387.875 542.125,388.5 538.375,389.75 534.625,391.5 531.125,393.875 527.875,396.625 521.875,403.375 519.375,407.25 515.125,415.5 513.375,419.875 512.0,424.125 509.875,432.75 508.375,444.625 508.25,451.75"/>
    <polyline points="508.375,455.0 509.375,463.75 510.375,468.625 512.25,474.75 513.75,478.125 516.0,482.375 520.0,487.5 522.5,489.875 526.0,492.125"/>
    <polyline points="526.875,492.625 531.25,494.625 536.0,495.75 540.0,496.25 545.375,496.375 552.5,495.75"/>
    <polyline points="553.75,495.5 556.375,495.125 564.875,493.0 576.125,488.625 585.0,483.75 590.5,479.75 594.375,476.5"/>
    <polyline points="596.25,474.625 601.875,468.0 607.0,459.625 610.0,452.625 612.5,444.25 614.0,434.375 614.25,428.75 614.125,422.75 613.5,416.375 612.375,409.375 610.75,402.0 608.25,394.375 605.0,386.375 601.0,378.25 596.0,370.125 590.0,362.25 583.125,354.875 575.25,348.375 566.625,343.125"/>
    <polyline points="557.25,339.375 547.5,337.375 537.625,337.375 527.875,339.5 518.5,343.75 509.75,349.75 501.75,357.5 494.75,366.375 488.75,376.25 483.75,386.625 479.625,397.25 476.5,407.75 474.0,417.875 472.25,427.5 471.0,436.625 469.875,452.625 469.75,465.75 470.75,480.875 472.625,494.25"/>
    <polyline points="473.125,496.625 474.75,505.125 475.125,508.375 474.875,511.25 474.25,512.75 473.125,514.0 471.625,514.875 468.875,515.875"/>
    <polyline points="468.125,516.0 465.625,516.625 455.625,517.75 447.125,518.125 435.125,518.0"/>
    <polyline points="433.125,518.0 425.125,517.625 414.25,516.5 404.875,514.75 398.0,512.75 391.25,509.75 387.25,507.0 383.875,503.625 382.5,501.5 381.5,499.125"/>
    <polyline points="380.75,496.5 380.625,493.5 381.0,490.125 382.0,486.375 383.875,482.25 386.625,477.75 390.5,472.875 395.625,467.75 402.25,462.5 410.25,457.25 419.875,452.25 431.0,447.75 443.625,444.125 457.25,441.75 471.625,440.875 486.25,441.75 500.75,444.375 514.25,449.0 526.75,455.0 537.75,462.25 547.125,470.5 554.75,479.0 561.0,487.625 565.875,496.0 569.375,503.875 572.0,511.125"/>
    <polyline points="573.875,517.625 575.625,528.375 575.75,536.125 575.5,539.125 574.5,543.25 573.25,545.625 572.5,546.375 571.875,546.75 570.625,546.875 569.5,546.25 568.5,545.125 567.375,542.25 567.25,539.0"/>
    <polyline points="567.25,538.25 568.625,534.25 570.125,532.0 572.875,529.375 577.5,526.25 583.5,523.375 587.75,521.75"/>
    <polyline points="589.375,521.25 597.875,518.25 617.5,512.0 630.875,506.875 639.75,502.625 649.25,497.0"/>
    <polyline points="652.5,494.625 659.25,489.125 662.625,485.75 669.375,477.5 675.625,466.75 678.5,460.0 681.125,452.125 683.25,442.875 684.75,432.125 685.375,419.5 684.875,404.75 682.75,387.5 678.375,367.625 671.375,345.0 660.75,319.875 645.75,293.0 625.75,266.0 600.5,241.25 570.625,222.125 537.625,212.0 504.0,213.5 472.375,227.125 445.125,251.375"/>
    <polyline points="423.375,282.875 407.375,318.0 396.25,353.375 389.25,386.75 385.25,416.875 383.25,443.125 382.75,465.5 383.25,484.25 384.5,499.875 386.25,512.625 388.375,522.875 390.875,531.125 393.75,537.625 396.75,542.625 400.0,546.375 403.375,549.0 407.0,550.75 410.625,551.625 414.375,551.875 418.0,551.625 425.5,549.75 432.5,546.625 439.0,542.875"/>
    <polyline points="442.0,541.0 449.75,535.125 460.625,525.75 467.875,518.5 468.0,518.125 467.625,517.875"/>
    <polyline points="467.375,517.875 454.0,519.5 444.25,520.25"/>
    <polyline points="442.625,520.375 431.875,520.75 419.125,520.75 406.875,520.25 398.875,519.625 390.5,518.5 384.75,517.375"/>
    <polyline points="381.875,516.75 376.125,515.0 370.5,512.625 367.875,511.125 363.0,507.375 361.0,505.125 359.25,502.375 357.875,499.25 357.125,495.625 357.0,491.5 357.75,486.625 359.625,481.125 362.875,474.875 367.625,468.0 374.5,460.375 383.625,452.375 395.25,444.125 409.625,436.125 426.75,429.125 446.125,423.875 467.375,420.875 489.25,421.125 510.875,424.75"/>
    <polyline points="531.0,431.75 548.875,441.5 564.0,453.5 576.125,466.625 585.5,480.25 592.375,493.5 597.25,506.0 600.375,517.375 602.25,527.5 603.25,536.375 603.375,544.0 603.0,550.375 602.25,555.625 601.25,559.875 598.5,566.0 597.0,568.0 595.375,569.375 593.625,570.25 592.0,570.75 590.25,570.875 588.625,570.625 585.5,569.375 582.5,567.5"/>
    <polyline points="581.125,566.25 578.5,563.75 575.25,559.5 572.0,553.75 570.375,549.75 569.5,545.875 569.25,541.5 569.75,538.5 570.75,535.875"/>
    <polyline points="571.25,535.0 572.25,533.375 574.375,531.25 577.75,528.625 579.875,527.375 583.375,525.625 590.375,522.875 600.75,519.625"/>
    <polyline points="602.625,519.0 626.0,511.875 637.375,507.625 646.875,503.25 656.875,497.5 663.875,492.25 670.875,485.625 674.5,481.5"/>
    <polyline points="677.875,476.75 681.25,471.25 684.5,464.75 687.375,457.25 690.0,448.5 692.0,438.0 693.125,425.625 693.25,411.125 691.75,393.875 688.25,373.75 682.0,350.375 672.125,324.0 657.625,295.125 637.625,265.125 611.75,236.625 580.125,213.25 544.25,199.25 507.0,198.0 471.625,211.0 441.0,236.625 416.75,270.875 399.0,309.625 387.0,348.625 379.5,385.25 375.375,418.0 373.5,446.375"/>
    <polyline points="373.25,470.375 374.125,490.25 375.75,506.625 378.0,520.0 380.75,530.625 384.0,539.0 387.625,545.5 391.625,550.25 395.875,553.625 400.375,555.75 405.25,556.875 410.125,557.125 415.125,556.5 420.0,555.25 425.0,553.5 429.75,551.375 438.875,546.25 447.0,540.625 457.125,532.375 465.0,525.25"/>
    <polyline points="467.125,523.375 477.25,514.25 481.375,511.625 483.0,511.375 482.75,512.125"/>
    <polyline points="482.625,512.375 480.0,513.75 477.875,514.375 467.375,515.875"/>
    <polyline points="466.25,515.875 456.75,516.375 448.125,516.375 434.625,515.625 429.0,515.0"/>
    <polyline points="427.0,514.75 419.125,513.375 415.125,512.375 409.25,510.375 405.5,508.625 402.125,506.375 400.5,505.125 397.875,502.0 396.125,498.25 395.75,496.125 395.625,493.625 396.0,491.0 396.875,488.125 398.375,485.0 400.5,481.625 403.5,478.125"/>
    <polyline points="407.25,474.375 411.875,470.625 417.625,466.75 424.375,463.125 432.0,459.875 440.75,457.0 450.25,454.875 460.375,453.5 471.0,453.125 481.75,453.875 492.375,455.75 502.625,458.875 512.125,462.875 520.75,467.75 528.375,473.25 535.0,479.125 540.625,485.25 545.25,491.25 551.875,502.625 554.0,507.75 556.75,516.625 558.0,523.5 558.125,526.125"/>
    <polyline points="558.125,528.375 557.75,531.75 557.125,533.75 556.25,534.875 555.125,535.0 554.25,534.125 553.75,532.625 554.0,529.0 555.125,526.625"/>
    <polyline points="555.5,526.0 556.375,524.75 558.75,522.5 563.5,519.375 569.875,516.25 579.5,512.5"/>
    <polyline points="581.125,511.875 593.5,507.125 601.875,503.5 608.75,500.125 616.0,495.875 623.875,490.375 629.25,485.75 634.625,480.0 637.25,476.75"/>
    <polyline points="639.875,473.0 642.5,468.875 645.0,464.125 647.25,458.875 649.375,452.875 651.125,446.125 652.5,438.375 653.375,429.75 653.625,419.875 653.0,408.75 651.25,396.375 648.125,382.5 643.5,367.25 636.75,350.875 627.625,333.75 615.875,316.375 601.5,300.0 584.25,285.625 564.875,274.75 543.875,268.75 522.375,268.875 501.625,275.25 482.625,287.5 466.125,304.75 452.625,325.25 442.0,347.625"/>
    <polyline points="434.125,370.25 428.625,392.125 425.0,412.625 422.625,431.125 421.5,447.625 421.0,461.875 421.125,474.25 421.625,484.875 422.375,493.875 424.125,507.625 426.125,517.125 429.0,526.0 431.25,530.625 434.0,534.0 425.25,534.875 412.625,537.5"/>
    <polyline points="410.875,538.0 399.375,541.375 390.5,544.75 383.375,548.0 376.125,552.0 369.0,557.125 364.625,561.125 360.875,565.75 358.125,570.75"/>
    <polyline points="357.25,573.375 356.75,576.0 356.875,578.625 357.5,581.25 358.875,583.625 360.875,585.875 363.875,587.625 367.5,589.0 372.125,589.75 377.5,589.875 383.75,589.125 390.5,587.5 397.875,585.125 405.625,581.875 413.5,577.875 421.375,573.25 429.125,568.125 436.625,562.625 443.75,556.875 450.375,551.125 462.0,539.875 479.25,521.125"/>
    <polyline points="482.375,517.375 490.125,508.625 495.75,503.0 500.0,499.75 502.25,498.625 505.25,497.75 508.625,497.875 513.5,499.5"/>
    <polyline points="514.125,499.75 521.375,502.75 524.375,503.625 529.5,504.375"/>
    <polyline points="530.125,504.5 539.25,504.5 547.625,503.5 552.0,502.625"/>
    <polyline points="553.125,502.5 564.875,499.5 575.875,495.625 584.75,491.5 592.625,486.875"/>
    <polyline points="594.625,485.375 600.75,480.5 607.0,474.125 611.125,468.875 616.75,458.875 619.875,450.5 621.25,445.625 623.0,434.375 623.375,428.0 623.25,421.0 622.5,413.5 621.25,405.25 619.125,396.375 616.125,387.125 612.125,377.375 606.875,367.375 600.5,357.5"/>
    <polyline points="592.875,347.875 583.875,339.125 573.75,331.625 562.75,325.875 550.875,322.25 538.75,321.375 526.625,323.25 514.875,327.875 504.0,335.125 494.25,344.625 485.75,355.75 478.625,368.0 472.875,380.875 468.25,393.875 464.75,406.5 462.125,418.625 460.375,430.0 458.5,450.0 458.25,458.625 458.5,473.0 459.25,484.25 460.25,492.875"/>
    <polyline points="460.75,496.25 462.875,509.5 462.875,514.625 462.375,516.0 460.625,517.875 458.75,518.875 454.25,520.0"/>
    <polyline points="453.25,520.25 445.75,521.25 426.5,522.625 407.5,523.0"/>
    <polyline points="404.875,523.0 384.25,522.375 371.125,521.0 357.5,518.125 350.75,515.625 347.5,514.125 344.375,512.25 341.5,510.0 338.875,507.375 336.625,504.125 334.875,500.375 333.875,495.875 333.75,490.5"/>
    <polyline points="334.875,484.125 337.5,476.625 342.125,468.0 349.375,458.125 359.75,447.25 373.875,435.625 392.25,423.875 415.0,413.125 441.625,404.75 471.125,400.375 501.625,401.0 531.125,407.375 557.625,419.0 579.875,434.875 597.25,453.375 610.25,472.875 619.25,492.125 625.125,510.125 628.5,526.375 630.25,540.75 630.5,553.25 629.875,563.875 628.5,572.75 626.5,580.25 624.0,586.25 621.125,591.0"/>
    <polyline points="618.0,594.625 614.625,597.125 611.0,598.875 607.375,599.75 603.5,599.875 599.625,599.375 591.875,596.75 584.375,592.375 580.875,589.75 574.25,583.875 565.5,574.5 556.375,562.375 549.875,551.875 547.5,547.5"/>
    <polyline points="546.375,545.375 542.5,536.875 540.0,528.75 539.625,525.375 539.75,524.0 540.5,521.0 541.125,520.0"/>
    <polyline points="541.375,519.5 543.0,517.75 545.0,516.25 548.25,514.375 552.25,512.625 559.25,510.125"/>
    <polyline points="560.375,509.75 575.5,504.5 585.875,500.25 595.875,495.375 602.375,491.375"/>
    <polyline points="604.625,489.875 611.5,484.5 618.625,477.375 623.25,471.375 627.625,464.0 629.625,459.75 631.5,455.0 634.625,443.875 636.375,430.0 636.5,421.875 635.875,412.875 634.625,403.0 632.25,392.25 628.75,380.625 623.875,368.375 617.5,355.5 609.375,342.625 599.375,330.0"/>
    <polyline points="587.625,318.625 574.125,309.0 559.375,302.125 543.625,298.625 527.75,299.125 512.25,303.75 497.75,312.25 484.875,324.125 473.875,338.5 464.75,354.625 457.625,371.375 452.125,388.25 448.125,404.375 445.375,419.625 443.5,433.625 442.5,446.125 442.0,457.375 442.0,467.25 443.125,489.75 446.0,510.375"/>
    <polyline points="446.5,512.875 447.75,520.375 447.625,522.125 446.5,524.25 444.75,525.25 441.5,526.25 432.875,527.75"/>
    <polyline points="431.375,528.0 410.0,531.125 397.0,533.375 381.625,536.625 367.5,540.5"/>
    <polyline points="363.75,541.75 355.75,544.625 347.375,548.125 338.625,552.75 334.125,555.5 325.125,562.125 320.625,566.125 316.25,570.625 312.25,575.75 308.625,581.375 305.5,587.75 303.5,594.75 302.625,602.25 303.5,610.0 306.625,617.625 312.375,624.75 321.375,630.5 333.75,634.25 349.375,635.0 367.875,632.25 388.25,625.625 409.5,615.375"/>
    <polyline points="430.5,602.125 450.0,586.625 467.625,570.125 482.875,553.375 495.75,537.125 506.25,521.875 514.75,507.875 521.625,495.5 526.875,484.5 531.0,475.0 534.125,466.875 538.25,454.0 540.75,441.75 541.0,437.0 540.625,434.375 539.875,433.125 539.5,433.0 539.0,433.0 538.125,433.875"/>
    <polyline points="537.75,434.5 536.75,437.0 536.125,441.375 536.5,447.25 537.375,450.5 538.625,453.375 539.625,455.125 542.875,458.625"/>
    <polyline points="543.5,459.125 546.625,460.875 549.25,461.625 552.875,461.875 555.625,461.5 557.625,461.0 562.5,458.75 566.25,455.75"/>
    <polyline points="567.125,454.875 568.875,452.75 571.125,449.125 573.625,443.25 574.625,437.875 574.75,432.0 574.25,427.75 572.375,421.25 569.0,414.875 566.0,411.0"/>
    <polyline points="564.25,409.375 562.375,407.75 558.25,405.25 556.0,404.375 551.25,403.5 548.875,403.5 544.0,404.375 539.25,406.625 537.125,408.125 535.0,409.875 531.125,414.125 526.5,421.75 523.375,430.125 521.625,438.5 521.375,441.25"/>
    <polyline points="521.125,443.875 521.25,451.25 522.25,457.625 523.75,463.125 525.75,467.75 528.125,471.5 531.625,475.375 534.5,477.625 537.5,479.25"/>
    <polyline points="538.625,479.75 541.875,480.875 545.25,481.5 548.875,481.875 555.25,481.5 562.125,479.875 566.375,478.375 570.875,476.125"/>
    <polyline points="572.375,475.375 578.5,471.125 583.125,466.875 586.0,463.5 588.875,459.5 591.375,454.875 592.625,452.25 594.625,446.5 596.125,439.875 596.75,432.375 596.75,428.25 596.0,419.375 593.625,409.625"/>
    <polyline points="591.875,404.625 589.75,399.5 587.0,394.375 583.75,389.375 580.125,384.5 575.875,380.0 571.125,376.0 566.0,372.5 560.5,369.75 554.625,367.875 548.625,367.0 542.625,367.125 536.5,368.25 530.625,370.5 525.0,373.75 519.625,377.875 514.875,382.875 510.5,388.375 506.625,394.5 503.25,400.875 498.125,414.125 494.75,427.125 492.875,439.125"/>
    <polyline points="492.375,444.75 492.0,449.875 492.0,459.25 493.0,470.75 494.0,476.875 495.625,484.125 498.0,491.25 501.25,498.125 503.0,501.125"/>
    <polyline points="503.375,501.75 506.25,505.75 511.0,511.5 510.75,512.125 506.25,512.625"/>
  </g>
</svg>
