<?xml version="1.0" encoding="utf-8" ?>
<svg xmlns="http://www.w3.org/2000/svg" xmlns:cc="http://creativecommons.org/ns" xmlns:dc="http://purl.org/dc/elements/1.1/" xmlns:ev="http://www.w3.org/2001/xml-events" xmlns:inkscape="http://www.inkscape.org/namespaces/inkscape" xmlns:rdf="http://www.w3.org/1999/02/22-rdf-syntax-ns" xmlns:sodipodi="http://sodipodi.sourceforge.net/DTD/sodipodi-0.dtd" xmlns:xlink="http://www.w3.org/1999/xlink" baseProfile="tiny" height="27.09333333cm" version="1.2" viewBox="0 0 1024.0 1024.0" width="27.09333333cm">
  <metadata>
    <rdf:RDF>
      <cc:Work>
        <dc:format>image/svg+xml</dc:format>
        <dc:source>vpype read './original_svgs/Strange Attractors #242.svg' linemerge linesimplify write './Strange Attractors #242.svg'
</dc:source>
        <dc:date>2024-08-05T01:35:40.801132</dc:date>
      </cc:Work>
    </rdf:RDF>
  </metadata>
  <defs/>
  <g fill="none" id="layer1" inkscape:groupmode="layer" inkscape:label="1" stroke="black" stroke-width="0.7mm" style="display:inline">
    <polyline points="748.125,331.75 732.75,300.5 734.0,277.5 749.75,260.625 778.625,249.625 818.875,245.375 867.125,250.625 917.5,269.0 960.125,303.5 984.0,354.25 982.125,416.375 956.375,481.125 916.25,540.125 873.125,588.875 834.875,626.75 805.5,654.875 785.625,675.125 774.375,689.0 770.25,697.5 771.25,701.375 775.5,700.875 781.375,696.125 787.0,687.375 791.125,675.0 792.625,659.75 791.125,642.375"/>
    <polyline points="786.625,623.875 779.375,605.0 770.0,586.625 759.375,569.5 748.125,553.875 736.75,539.875 725.625,527.75 715.25,517.375 705.5,508.5 688.625,494.875 681.25,489.75 668.75,482.125 658.375,477.125 649.875,473.875 639.25,471.125 625.375,469.375"/>
    <polyline points="623.0,469.125 609.25,467.625 603.25,466.125 600.625,465.125 598.375,464.125 594.75,461.5 593.375,460.0 591.875,457.5 591.625,456.5"/>
    <polyline points="591.25,455.625 591.0,451.5 591.75,448.125 593.75,443.375 596.375,439.5 599.75,435.625 605.875,430.375 613.875,425.375"/>
    <polyline points="616.25,424.25 621.25,422.125 626.625,420.375 632.375,419.0 638.5,418.125 641.625,417.875 647.875,418.0 651.0,418.375 657.0,419.75 662.375,422.125 664.75,423.625 668.875,427.5 670.375,429.75 672.375,434.75 672.75,437.5 672.375,443.375"/>
    <polyline points="671.625,446.375 668.875,452.5 667.0,455.5 662.375,461.25 659.625,464.0 653.625,469.0 647.0,473.375 643.625,475.25 636.75,478.625 633.25,480.0 626.375,482.375 619.75,484.125 613.375,485.375 607.375,486.125 599.0,486.5"/>
    <polyline points="596.375,486.5 589.25,486.0 581.125,484.5 573.0,481.625 570.25,480.125 566.0,477.0 563.5,474.25 561.25,470.125"/>
    <polyline points="560.875,469.0 560.0,465.5 559.875,461.75 560.25,457.625 561.875,451.625 563.875,446.625 566.75,441.25 570.5,435.625 575.375,429.5"/>
    <polyline points="577.25,427.375 583.875,420.75 589.25,416.25 595.5,411.625 602.75,407.0 611.25,402.625 620.875,398.5 631.875,394.875 638.0,393.375 644.25,392.125 657.875,390.625 672.125,391.0 679.375,392.0 686.5,393.75 693.375,396.125 699.75,399.25"/>
    <polyline points="705.5,403.25 710.5,408.0 714.5,413.5 717.375,419.625 719.0,426.375 719.25,433.625 718.375,441.0 716.125,448.625 712.75,456.25 708.5,463.625 703.375,470.625 697.5,477.375 691.25,483.5 684.625,489.25 677.875,494.375 671.0,499.0 664.125,503.0 657.375,506.625 650.75,509.625 644.375,512.375 638.125,514.625 626.5,518.25 615.875,520.75 610.875,521.625"/>
    <polyline points="606.125,522.5 597.25,523.625 585.5,524.625 575.25,525.125 548.125,525.625 538.125,526.25"/>
    <polyline points="536.625,526.375 530.25,527.25 524.125,528.75 519.125,530.75 515.625,532.875 513.75,534.375"/>
    <polyline points="513.125,534.875 508.625,539.5 506.5,542.25 499.375,553.5"/>
    <polyline points="498.75,554.5 490.125,568.5 485.25,575.125 479.125,582.25 474.625,586.5"/>
    <polyline points="472.875,587.875 469.25,590.625 462.75,594.375 457.625,596.625 451.875,598.5 441.5,600.375 433.375,600.5 424.0,599.75 418.875,598.875 407.5,596.0 395.0,591.125 388.375,588.0 381.5,584.25 374.625,580.0 367.625,575.125"/>
    <polyline points="360.75,569.625 354.25,563.625 348.125,557.25 342.625,550.375 337.875,543.375 334.125,536.125 331.5,529.125 330.125,522.25 329.875,515.625 331.0,509.625 333.25,504.25 336.5,499.625 340.75,495.625 345.75,492.375 351.375,489.75 357.375,487.75 363.75,486.375 370.125,485.5 383.0,484.75 401.125,485.5 417.125,487.125"/>
    <polyline points="422.0,487.75 452.875,491.5 466.625,492.375 475.5,492.375 481.25,492.0 489.25,490.75"/>
    <polyline points="490.75,490.375 497.125,488.5 502.5,485.875 507.125,482.75 510.5,479.75 515.125,474.375"/>
    <polyline points="515.875,473.375 522.875,462.875 532.875,445.375 539.0,435.375"/>
    <polyline points="540.5,433.125 547.0,423.625 553.125,415.625 563.75,403.75 574.375,394.0 583.25,387.125 588.375,383.625 600.25,376.375 614.75,369.25 623.125,365.875 632.375,362.625 642.625,359.625 653.75,357.125"/>
    <polyline points="665.875,355.125 679.0,353.875 692.875,353.625 707.375,354.625 722.125,357.125 736.75,361.5 750.375,368.0 762.375,376.625 772.125,387.625 778.875,400.625 782.0,415.375 781.5,431.25 777.375,447.75 770.25,464.0 760.75,479.625 749.5,494.0 737.375,507.0 724.75,518.375 712.375,528.25 700.5,536.625 689.25,543.625 678.75,549.5 669.125,554.25 652.125,561.375 644.625,563.875"/>
    <polyline points="637.75,565.875 625.75,568.75 615.5,570.625 585.625,574.125 575.0,575.875 568.125,577.625 564.125,579.125 560.375,580.75 556.875,582.75"/>
    <polyline points="555.25,583.875 550.875,587.375 546.875,591.625 543.5,596.375 539.75,603.875 537.5,610.125 535.875,617.25 534.625,628.0 534.625,634.0"/>
    <polyline points="534.75,637.125 535.0,640.5 536.125,647.375 537.875,654.875 539.125,658.75 542.375,667.125 544.625,671.625 550.375,681.125 558.5,691.375 563.625,696.875 569.75,702.5 576.875,708.25 585.25,714.25 595.125,720.375 606.5,726.375 619.75,732.375 634.875,737.875 652.0,742.625 671.25,746.375 692.125,748.25 714.25,747.75"/>
    <polyline points="736.625,744.125 758.0,736.5 776.875,724.375 791.625,707.75 801.0,686.875 804.375,663.0 802.0,637.25 794.875,611.25 784.0,586.25 771.25,563.25 757.625,542.75 744.25,525.0 731.625,510.0 720.25,497.375 710.25,487.0 701.625,478.5 694.25,471.75 682.75,462.0 674.5,456.375 668.5,453.375 663.875,452.375 661.75,452.375"/>
    <polyline points="659.875,452.75 656.25,453.875 641.125,461.875 630.5,466.25 626.25,467.5 618.0,469.25 610.25,469.75"/>
    <polyline points="608.5,469.75 605.0,469.5 599.0,468.375 596.375,467.5 592.0,465.125 589.5,462.875 587.625,460.25 586.5,457.375 586.125,455.375 586.125,453.125"/>
    <polyline points="586.25,452.0 587.5,447.0 589.375,443.0 592.25,438.75 596.0,434.375 600.875,430.0 606.875,425.625 614.125,421.5 622.75,417.875"/>
    <polyline points="625.875,416.875 632.5,415.125 639.625,414.0 646.875,413.625 654.25,414.125 657.875,414.75 664.75,417.0 670.75,420.25 673.375,422.375 677.375,427.5 678.75,430.5 679.625,433.625 680.0,437.0 679.875,440.5 679.25,444.0 678.125,447.625 676.5,451.375 672.125,458.5"/>
    <polyline points="669.375,461.875 666.375,465.125 659.5,471.25 652.0,476.5 644.125,480.875 640.125,482.75 636.125,484.5 628.375,487.25 617.125,490.125 606.875,491.75 597.625,492.375 591.875,492.375 584.375,491.875"/>
    <polyline points="582.0,491.5 577.625,490.875 571.875,489.5 568.5,488.375 562.875,485.875 559.375,483.625 556.625,481.25 553.875,477.625 552.125,473.625"/>
    <polyline points="551.75,472.5 551.125,467.875 551.125,465.375 551.875,460.0 553.0,455.625 554.125,452.375 557.25,445.5 560.375,439.875 564.5,433.75"/>
    <polyline points="566.0,431.625 571.625,425.0 576.125,420.25 581.375,415.375 591.0,407.75 598.875,402.625 603.25,400.125 613.125,395.125 618.625,392.75 630.875,388.5 637.75,386.625 645.0,385.125 652.625,384.0 660.625,383.125 669.0,383.0 677.5,383.375 686.0,384.5"/>
    <polyline points="694.5,386.375 702.75,389.25 710.375,393.0 717.25,397.875 723.125,403.75 727.625,410.5 730.75,418.125 732.125,426.5 731.875,435.375 730.125,444.375 726.75,453.625 722.0,462.625 716.25,471.25 709.625,479.375 702.375,486.875 694.625,493.75 686.75,500.0 678.875,505.5 671.0,510.25 663.375,514.375 655.875,518.0 648.75,521.125 635.375,525.875 623.25,529.25"/>
    <polyline points="617.625,530.5 598.0,533.75 585.625,535.0 558.0,537.0 546.875,538.25 539.5,539.625"/>
    <polyline points="537.875,540.125 529.125,543.0 521.875,546.875 517.625,550.0 513.75,553.5 509.125,558.625"/>
    <polyline points="508.25,559.75 505.5,563.125 491.125,582.875 484.125,591.0 479.125,596.0"/>
    <polyline points="477.125,597.625 473.0,600.875 468.25,604.0 465.625,605.375 459.75,608.125 452.875,610.25 449.0,611.125 444.75,611.875 435.375,612.5 424.25,611.75 418.0,610.75 411.125,609.25 403.875,607.25 396.125,604.5 387.875,601.125 379.25,597.0 370.125,591.875 360.875,586.0 351.5,579.25 342.375,571.5"/>
    <polyline points="333.625,563.0 325.625,553.875 318.625,544.25 313.0,534.375 309.125,524.625 307.0,515.125 306.75,506.25 308.5,498.125 312.0,491.125 317.0,485.25 323.25,480.625 330.375,477.0 338.25,474.375 346.375,472.625 354.75,471.75 362.875,471.25 378.625,471.75 399.375,474.125 426.5,478.5"/>
    <polyline points="430.875,479.125 439.0,480.375 455.625,481.875 463.75,481.875 470.75,481.5 480.75,479.75 485.875,478.25 491.875,475.625"/>
    <polyline points="493.375,474.875 498.625,471.625 501.0,469.75 503.375,467.75 508.875,462.0 515.25,453.625 521.75,443.375"/>
    <polyline points="523.0,441.5 533.75,424.0 543.0,410.375 550.25,401.125 556.125,394.375 563.25,387.25 571.75,379.625 582.125,371.5 588.25,367.375"/>
    <polyline points="595.125,363.125 602.875,358.75 611.625,354.5 621.375,350.25 632.375,346.25 644.625,342.375 658.375,339.125 673.75,336.375 690.5,334.75 708.625,334.5 727.75,336.0 747.375,339.75 766.5,346.5 784.0,356.375 798.625,369.75 809.0,386.5 814.25,406.125 813.75,427.5 807.875,449.75 797.625,471.625 784.125,492.125 768.625,510.75 752.625,526.875 736.75,540.75 721.875,552.25 708.0,561.75"/>
    <polyline points="695.625,569.375 684.625,575.5 674.875,580.375 666.25,584.125 658.75,587.0 646.125,590.875 636.125,592.875 631.75,593.375 621.0,593.875 600.125,592.5 590.25,592.75"/>
    <polyline points="588.375,593.0 583.375,594.0 577.5,596.375 575.0,598.0 570.625,602.125 568.125,605.875 565.875,612.0 565.25,615.375 565.125,621.125"/>
    <polyline points="565.375,623.25 565.625,625.375 567.375,632.125 570.75,639.625 574.0,644.875 578.25,650.5 583.75,656.125 590.625,661.875 594.75,664.75 604.0,670.375 615.125,675.375 621.5,677.5 628.25,679.375 635.375,680.875 642.75,681.75 650.5,682.125"/>
    <polyline points="658.5,681.875 666.375,680.75 674.0,678.75 681.375,675.75 688.125,671.75 694.0,666.625 698.875,660.625 702.5,653.625 704.875,645.75 705.75,637.25 705.375,628.25 703.625,619.125 700.75,609.875 696.875,600.75 692.125,592.0 686.75,583.625 681.0,575.75 674.875,568.375 662.25,555.625 649.75,545.25 637.75,536.875 626.75,530.25"/>
    <polyline points="621.625,527.5 607.375,521.0 595.25,516.375 578.625,511.25 561.375,506.75 549.375,503.25"/>
    <polyline points="548.0,502.75 541.25,499.875 538.625,498.375 535.25,495.875 532.5,492.5 531.25,489.25"/>
    <polyline points="531.0,488.625 530.5,484.875 530.875,478.875 532.5,471.75 535.0,464.375"/>
    <polyline points="535.5,463.0 540.125,452.375 547.25,439.375 553.0,430.625 556.5,425.875 567.875,412.875"/>
    <polyline points="570.75,410.125 577.25,404.375 584.875,398.25 593.875,392.125 599.125,389.0 610.875,382.875 625.0,377.125 633.0,374.5 641.75,372.125 651.125,370.125 661.125,368.625 671.875,367.75 683.0,367.625 694.5,368.375 706.125,370.375 717.625,373.625 728.5,378.25 738.25,384.625 746.625,392.5 753.0,401.875 757.0,412.625"/>
    <polyline points="758.5,424.375 757.375,436.75 753.875,449.5 748.125,462.125 740.625,474.25 731.875,485.625 722.25,496.0 712.125,505.375 702.0,513.5 691.875,520.625 682.125,526.75 672.75,532.0 663.875,536.375 655.625,540.0 647.75,543.0 633.625,547.5 621.25,550.625 605.5,553.375 588.5,555.5"/>
    <polyline points="584.875,555.875 566.25,558.25 556.5,560.375 550.125,562.375 542.625,565.625 537.75,568.625 533.25,572.0 530.5,574.5"/>
    <polyline points="529.125,575.75 522.875,583.125 518.125,590.0 512.375,599.75 498.125,626.125"/>
    <polyline points="496.5,628.875 491.0,637.25 486.625,642.875 481.375,648.5 475.0,654.0 471.375,656.625 467.25,659.0 462.5,661.25 457.25,663.25 451.25,665.0 444.375,666.25 436.5,666.875 427.375,666.875 416.875,665.875 404.75,663.75 390.875,660.125 374.875,654.75 356.625,647.0 336.25,636.625 313.75,623.0 289.875,605.875"/>
    <polyline points="265.625,585.0 242.5,560.75 222.625,533.875 208.375,506.125 201.25,479.25 202.375,455.375 210.875,436.0 225.375,422.0 243.5,413.125 263.125,408.75 282.375,407.75 300.0,409.25 315.625,412.125 329.0,416.125 340.0,420.5 349.0,425.125 356.375,429.75 362.125,434.25 366.875,438.625 370.625,442.875 376.5,450.875 385.5,464.625"/>
    <polyline points="387.875,467.5 392.75,472.75 398.25,477.125 404.125,480.75 413.625,484.875 420.125,486.875 433.0,489.375 442.125,490.375 453.375,490.875 460.875,490.75"/>
    <polyline points="463.25,490.625 475.875,489.5 487.75,487.0 494.625,484.5 500.625,481.375 502.75,479.875"/>
    <polyline points="503.75,479.125 507.75,475.875 514.125,468.875 521.25,458.625 527.0,449.125"/>
    <polyline points="528.125,447.25 532.625,439.625 541.25,426.25 546.75,418.5 556.125,407.0 565.25,397.5 572.875,390.625 577.25,387.0 587.375,379.75"/>
    <polyline points="593.25,376.0 599.875,372.125 615.125,364.625 624.0,361.0 634.0,357.5 644.875,354.375 657.0,351.75 670.125,349.625 684.375,348.375 699.5,348.375 715.375,349.75 731.375,352.875 747.0,358.125 761.5,365.875 774.0,376.125 783.5,388.875 789.5,403.875 791.25,420.5 788.875,438.25 782.75,456.25 773.5,473.75 762.0,490.0 749.25,504.875 735.75,518.0 722.375,529.25"/>
    <polyline points="709.5,538.875 697.375,546.875 686.125,553.5 675.75,559.0 666.375,563.375 657.875,566.875 650.125,569.625 636.75,573.625 625.5,576.125 607.875,578.5 586.0,580.5 576.625,582.25"/>
    <polyline points="574.5,582.875 566.875,585.75 563.625,587.625 559.25,590.875 555.375,594.75 552.125,599.375 550.25,602.75 548.75,606.375 546.5,614.75 546.0,619.375"/>
    <polyline points="545.75,621.875 545.75,627.0 546.75,635.625 549.25,645.125 552.0,652.125 555.875,659.5 561.25,667.5 564.625,671.75 572.875,680.5 578.0,685.0 584.0,689.625 590.75,694.25 598.375,698.875 607.125,703.375 616.875,707.75 627.875,711.75 640.125,715.25"/>
    <polyline points="653.375,718.125 667.75,719.75 682.875,720.125 698.25,718.75 713.5,715.25 728.0,709.25 740.625,700.625 751.0,689.375 758.25,675.5 762.125,659.75 762.5,642.5 759.625,624.625 754.0,606.75 746.25,589.5 737.125,573.375 727.25,558.625 717.0,545.5 707.0,533.875 697.375,523.75 688.375,515.0 680.0,507.625 665.25,496.0 653.125,487.625 647.875,484.5"/>
    <polyline points="643.125,481.75 634.875,477.5 627.875,474.375 608.875,467.375 602.875,464.75 599.375,462.75 596.0,459.75 594.875,458.125"/>
    <polyline points="594.375,457.25 593.25,453.5 593.25,451.5 593.75,448.25 595.625,443.625 599.0,438.875 602.625,435.125 607.125,431.375 610.75,429.0"/>
    <polyline points="612.625,427.875 616.875,425.625 621.5,423.625 629.25,421.25 637.625,419.875 643.375,419.75 649.25,420.25 652.0,420.75 657.25,422.375 662.0,425.0 664.0,426.625 665.75,428.375 667.125,430.375 669.125,435.0 669.5,437.5"/>
    <polyline points="669.625,440.125 668.75,445.625 666.5,451.125 664.75,454.0 660.625,459.375 658.25,461.875 652.875,466.625 649.875,468.75 640.5,474.375 634.0,477.25 627.5,479.625 621.25,481.375 615.125,482.625 606.5,483.625"/>
    <polyline points="603.875,483.75 598.75,483.875 589.625,483.125 580.375,480.875 574.625,478.375 571.125,476.0 567.5,472.5 565.625,469.375"/>
    <polyline points="565.25,468.375 564.125,464.875 563.75,461.25 563.875,458.5 564.625,454.25 565.5,451.25 568.25,444.625 570.25,441.125 575.375,433.625 578.75,429.625"/>
    <polyline points="580.625,427.5 584.875,423.375 589.875,419.0 592.75,416.875 602.375,410.375 610.125,406.125 614.375,404.125 623.875,400.375 634.5,397.25 640.375,396.0 646.375,395.0 659.125,394.0 665.75,394.125 672.375,394.875 679.0,396.0 685.375,397.875 691.5,400.375 697.125,403.5"/>
    <polyline points="702.125,407.375 706.375,412.0 709.75,417.25 712.0,423.0 713.25,429.25 713.25,435.875 712.125,442.625 710.0,449.625 706.875,456.5 702.75,463.25 698.0,469.625 692.625,475.75 686.875,481.375 680.75,486.625 674.375,491.375 668.0,495.625 661.5,499.375 655.25,502.75 649.0,505.625 637.0,510.375 620.625,515.125 610.75,517.125"/>
    <polyline points="606.125,517.875 589.75,519.625 579.25,520.125 567.5,520.25 539.75,519.625"/>
    <polyline points="538.375,519.625 531.25,519.625 525.75,520.0 520.875,520.75 517.625,521.75"/>
    <polyline points="517.125,522.0 513.0,524.25 511.0,526.125 508.375,529.625"/>
    <polyline points="508.0,530.0 504.75,535.75 499.875,545.625"/>
    <polyline points="499.375,546.5 495.125,555.0 491.375,561.625 488.375,566.5 482.75,574.25"/>
    <polyline points="481.625,575.625 475.25,582.375 468.625,587.75 464.75,590.25 457.875,593.625 452.5,595.375 446.25,596.875 439.25,597.625 435.25,597.75 426.75,597.25 417.0,595.5"/>
    <polyline points="411.625,594.125 400.25,590.25 394.125,587.625 381.5,580.75 375.125,576.625 368.75,571.875 362.5,566.75 356.625,561.125 351.125,555.125 346.25,548.75 342.125,542.25 338.875,535.75 336.75,529.25 335.625,523.0 335.625,517.0 336.75,511.625 338.875,506.625 342.0,502.375 345.875,498.625 350.5,495.625 355.75,493.125 361.25,491.25 367.125,489.875 373.125,488.875"/>
    <polyline points="379.125,488.375 391.0,488.0 402.375,488.5 412.875,489.375 452.75,494.125 464.0,495.125 475.25,495.375"/>
    <polyline points="477.25,495.375 487.375,494.75 496.375,492.875 502.5,490.5 507.5,487.375"/>
    <polyline points="508.25,486.75 511.875,483.5 515.875,478.75 521.125,470.875 525.25,463.5"/>
    <polyline points="526.0,462.125 534.875,446.125 542.25,434.0 550.625,422.0 559.75,411.125"/>
    <polyline points="562.5,408.125 568.75,402.0 576.125,395.625 580.25,392.25 589.875,385.375 601.625,378.5 608.375,375.0 615.875,371.625 624.0,368.25 643.0,362.375 653.75,360.0 665.5,358.125 678.0,357.0 691.375,356.875 705.125,357.875 719.125,360.375 732.875,364.5 745.875,370.625 757.25,378.875 766.625,389.125 773.125,401.375"/>
    <polyline points="776.375,415.25 776.25,430.125 772.75,445.625 766.375,461.125 757.75,476.0 747.25,489.875 735.875,502.375 724.0,513.625 712.0,523.375 700.5,531.625 689.375,538.625 679.0,544.5 669.375,549.375 660.5,553.375 644.75,559.25 631.375,563.0 614.75,566.375 593.75,569.0"/>
    <polyline points="590.375,569.375 580.875,570.5 570.375,572.5 563.625,574.375 559.5,576.0 554.0,578.75 549.125,582.0 543.5,587.25 539.75,591.875"/>
    <polyline points="538.625,593.625 535.5,599.0 532.0,607.25 529.125,616.75 527.125,627.625 526.375,636.875 526.5,647.125 527.125,654.625 528.625,662.75"/>
    <polyline points="529.625,667.0 532.5,676.125 536.875,686.125 539.875,691.5 543.5,697.125 547.75,702.875 553.0,709.125 559.25,715.625 566.75,722.375 575.75,729.375 586.5,736.75 599.5,744.25 614.875,751.75 633.0,759.0 654.125,765.625 678.375,770.875 705.375,774.0 734.625,773.875 764.375,769.0 792.75,758.125 816.625,740.375 833.625,715.875 841.75,685.625 840.875,651.75"/>
    <polyline points="832.25,617.0 818.25,583.75 801.5,553.5 784.125,527.25 767.75,505.125 753.25,487.0 731.25,461.0 717.75,445.625 710.25,437.875 708.0,436.125 706.375,435.625 705.125,436.125 704.0,437.375 697.875,448.5 692.625,456.0 685.75,463.875 681.875,467.75 677.625,471.375"/>
    <polyline points="673.125,474.875 668.5,478.25 663.75,481.25 654.0,486.75 644.25,491.125 630.125,496.0 621.375,498.125 613.0,499.75 601.625,501.125 594.75,501.5 585.5,501.5 575.0,500.75"/>
    <polyline points="572.625,500.375 564.25,499.0 560.75,498.125 552.0,495.125 549.625,494.0 545.75,491.5 542.875,488.875 541.125,486.625"/>
    <polyline points="540.75,485.875 539.875,484.25 538.75,480.875 538.375,478.0 538.375,473.875 539.5,466.875 542.0,458.625"/>
    <polyline points="542.625,457.125 544.625,452.25 548.125,445.25 551.5,439.375 559.0,428.5 565.0,421.25 572.5,413.375 578.625,407.875 585.875,402.25"/>
    <polyline points="589.875,399.25 604.375,390.5 610.125,387.625 623.125,382.25 630.375,379.75 638.25,377.5 646.75,375.5 655.875,374.0 665.5,373.0 675.625,372.625 686.0,373.125 696.625,374.5 707.125,376.875 717.25,380.625 726.625,385.625 734.875,392.0 741.5,399.75 746.375,408.75 749.25,418.875 749.75,429.75 748.0,441.125 744.25,452.625 738.625,463.875"/>
    <polyline points="731.5,474.75 723.375,484.875 714.5,494.125 705.125,502.5 695.75,509.875 686.375,516.375 677.375,521.875 668.5,526.625 660.25,530.625 652.25,534.125 637.75,539.25 619.0,544.125 608.375,546.0 594.5,548.0 572.75,550.25"/>
    <polyline points="569.75,550.625 556.5,552.625 547.75,554.75 542.125,556.75 538.625,558.25 530.875,562.75 525.375,567.125 522.875,569.5"/>
    <polyline points="521.625,570.875 518.0,574.875 512.125,582.625 498.375,603.375 493.75,609.875 488.375,616.5"/>
    <polyline points="486.25,618.875 479.25,625.625 470.375,632.0 466.75,634.0 458.5,637.375 453.75,638.875 448.5,640.0 442.5,640.875 435.875,641.25 428.375,641.0 420.125,640.25 410.75,638.75 400.375,636.125 388.75,632.5 376.0,627.5 362.0,621.0 346.875,612.625 331.0,602.375 314.625,590.0 298.375,575.625 283.125,559.5"/>
    <polyline points="269.75,542.0 259.375,523.75 252.75,505.75 250.5,488.875 252.75,473.875 259.0,461.5 268.625,451.875 280.5,445.125 293.625,440.875 307.25,438.625 320.625,438.125 333.375,438.75 345.0,440.25 355.625,442.25 365.125,444.5 381.0,449.375 393.5,453.875 421.75,465.125"/>
    <polyline points="424.75,466.125 430.25,467.875 440.125,470.0 451.125,470.75 455.25,470.625 464.625,469.25 471.5,467.25 476.25,465.25"/>
    <polyline points="477.75,464.5 480.625,463.0 484.75,460.25 488.625,457.125 493.375,452.375 500.0,443.75 504.125,437.0 507.125,431.375"/>
    <polyline points="508.125,429.25 511.25,422.875 527.375,386.375 531.0,379.25 535.125,371.625 540.125,363.375 546.25,354.375 549.875,349.625"/>
    <polyline points="554.0,344.75 558.625,339.5 570.375,328.5 577.75,322.625 586.25,316.375 596.5,310.0 608.625,303.375 623.0,296.625 640.25,290.0 660.875,283.5 685.5,277.75 714.5,273.5 748.0,271.625 785.5,273.75 825.25,282.0 863.625,298.375 895.75,324.625 915.875,360.75 920.0,404.375 908.125,451.25 884.0,496.75 853.5,537.125 822.125,570.75 793.625,597.625 769.875,618.375"/>
    <polyline points="751.625,634.0 738.25,645.5 720.125,662.375 721.375,658.125 722.25,653.5 722.75,647.625 722.625,640.5 721.5,632.5 719.375,623.875 716.125,614.875 712.0,605.75 707.0,596.625 701.25,587.875 695.125,579.5 688.5,571.625 681.75,564.25 668.0,551.5 661.25,546.125 654.75,541.125 642.25,533.0"/>
    <polyline points="636.375,529.5 620.25,521.375 606.5,515.75 591.125,510.5 566.25,503.5 555.25,500.0"/>
    <polyline points="553.75,499.375 547.375,496.625 544.375,494.875 541.125,492.375 537.75,488.25 537.0,486.75 535.875,482.75"/>
    <polyline points="535.625,482.0 535.5,476.25 536.875,468.5 539.375,460.5 543.5,451.0"/>
    <polyline points="544.25,449.25 550.75,437.75 556.875,429.0 565.0,419.125 570.0,413.875 579.25,405.5 586.875,399.625 595.875,393.625 606.625,387.625"/>
    <polyline points="612.625,384.75 619.25,381.875 634.25,376.75 651.75,372.75 661.5,371.375 671.625,370.75 682.375,370.75 693.25,371.625 704.25,373.625 715.0,376.875 725.25,381.375 734.375,387.5 742.125,394.875 748.0,403.75 751.75,413.875 753.25,425.0 752.25,436.625 749.125,448.625 743.875,460.5 737.0,472.0 728.75,482.75 719.75,492.75 710.25,501.625 700.5,509.625"/>
    <polyline points="690.875,516.625 681.375,522.625 663.625,532.0 655.375,535.625 640.5,541.25 627.25,545.0 610.375,548.5 596.25,550.5 568.25,553.625 560.25,554.875"/>
    <polyline points="557.875,555.375 547.125,558.375 541.5,560.625 536.5,563.25 532.0,566.25 526.5,570.875 522.625,574.875 517.875,580.75"/>
    <polyline points="516.625,582.375 510.75,591.125 499.25,609.875 492.75,619.25 486.75,626.625 482.125,631.5 476.5,636.25"/>
    <polyline points="473.375,638.625 466.0,642.875 461.625,644.75 456.875,646.5 451.5,647.875 445.5,649.0 438.75,649.625 431.0,649.75 422.375,649.25 412.625,647.75 401.5,645.375 389.0,641.625 375.125,636.5 359.625,629.5 342.75,620.375 324.625,608.875 305.875,595.0 287.125,578.5 269.375,559.875 254.0,539.375 242.375,518.25 235.5,497.375 234.0,478.125 238.0,461.625 246.75,448.375"/>
    <polyline points="259.0,438.75 273.5,432.5 288.875,429.125 304.25,428.0 318.75,428.625 332.125,430.375 344.0,432.75 354.375,435.625 363.5,438.625 371.375,441.625 378.125,444.625 389.125,450.25 415.75,465.875 423.25,469.375 428.125,471.125"/>
    <polyline points="430.5,471.75 435.125,473.0 444.375,474.25 450.875,474.5 457.25,474.125 463.125,473.375 468.75,472.125 474.0,470.625 480.375,467.875"/>
    <polyline points="481.875,467.125 488.875,462.75 496.5,456.0 500.0,452.0 503.375,447.5 507.75,440.875 512.125,433.375"/>
    <polyline points="513.25,431.25 529.5,400.625 533.25,394.125 542.625,379.75 548.75,371.75 556.375,363.125 565.875,353.75 571.625,348.75"/>
    <polyline points="578.25,343.625 585.75,338.25 594.5,332.75 604.625,327.125 616.375,321.375 630.125,315.75 646.0,310.25 664.625,305.25 686.0,301.125 710.5,298.25 737.875,297.75 767.5,300.375 798.125,307.5 827.375,320.375 852.375,339.875 869.625,366.0 876.75,397.875 872.625,432.875 858.875,468.375 838.375,501.75 814.375,531.375 790.125,556.25 767.625,576.625 747.875,592.75 731.25,605.25 717.875,614.875"/>
    <polyline points="707.375,622.0 699.25,627.125 693.125,630.625 688.625,632.75 685.25,633.625 682.75,633.5 680.875,632.625 679.25,630.875 677.75,628.5 674.875,622.375 668.75,610.875 663.25,602.5 656.625,594.25 649.25,586.5 641.25,579.5 633.0,573.375 624.75,568.125"/>
    <polyline points="620.625,565.875 612.625,561.875 601.125,557.375 590.5,554.25 584.0,552.875 574.875,551.625 564.125,551.125 554.75,551.75 546.625,553.375"/>
    <polyline points="544.75,553.875 536.25,557.125 533.125,558.75 527.5,562.5 523.625,565.75 518.75,570.625 510.75,580.875"/>
    <polyline points="509.625,582.5 493.875,605.25 484.75,616.0 480.125,620.25 474.875,624.5 468.625,628.375 461.125,631.875"/>
    <polyline points="456.75,633.5 446.75,635.75 440.875,636.375 434.25,636.625 427.0,636.375 418.875,635.5 409.875,633.75 399.875,631.25 388.75,627.625 376.625,622.75 363.375,616.5 349.25,608.625 334.5,598.875 319.25,587.375 304.375,574.125 290.375,559.25 278.0,543.25 268.375,526.5 262.0,509.875 259.5,494.25 260.875,480.125 266.125,468.25 274.375,458.75 284.875,451.875 296.875,447.25"/>
    <polyline points="309.375,444.625 322.0,443.5 334.25,443.625 345.625,444.625 356.125,446.25 365.625,448.125 382.0,452.25 395.125,456.25 418.5,464.125 434.375,468.625 442.25,469.875 449.25,470.375"/>
    <polyline points="451.5,470.5 457.75,470.125 465.375,468.875 470.5,467.5 475.375,465.625 479.875,463.375 484.0,460.75 488.0,457.75 491.625,454.25"/>
    <polyline points="492.75,453.0 496.25,449.0 499.5,444.625 503.625,438.0 509.75,426.25 519.625,403.75"/>
    <polyline points="521.0,400.875 525.125,391.5 532.0,377.5 538.875,365.5 544.75,356.75 552.0,347.25 561.5,336.875 567.375,331.375 574.25,325.625 582.25,319.625 591.625,313.25 602.75,306.75 616.0,300.125 631.875,293.375 650.875,286.75 673.5,280.625"/>
    <polyline points="700.25,275.625 731.625,272.375 767.25,272.5 806.125,277.625 845.625,289.875 881.25,311.25 907.625,342.75 919.5,383.125 915.0,429.0 896.0,475.5 867.875,518.5 836.5,555.25 806.375,585.25 780.375,608.75 732.75,649.625 725.625,656.125 719.875,661.875 719.625,661.5 721.125,655.625 721.875,650.375 722.125,643.875 721.5,636.375"/>
    <polyline points="719.875,628.125 717.125,619.375 713.5,610.375 709.0,601.375 703.625,592.5 697.75,583.875 691.375,575.875 684.75,568.25 678.0,561.375 671.125,555.0 664.375,549.25 651.25,539.5 645.125,535.375 633.375,528.5 622.625,523.125 613.0,518.875 604.25,515.5 589.125,510.625"/>
    <polyline points="585.875,509.625 562.875,503.25 552.625,499.875 546.375,497.125 541.75,494.125"/>
    <polyline points="541.0,493.625 539.625,492.375 537.0,489.0 535.25,484.5 534.75,481.125 534.75,477.375 535.25,473.125"/>
    <polyline points="535.5,472.0 537.875,463.375 542.125,452.75 547.875,441.875 554.75,431.375"/>
    <polyline points="556.375,429.0 562.25,421.75 569.5,413.875 572.25,411.125 582.375,402.5 590.5,396.625 600.375,390.625 612.0,384.625 618.5,381.75 633.5,376.625 642.0,374.375 651.0,372.5 660.75,371.0 671.0,370.25 681.75,370.125 692.75,371.0"/>
    <polyline points="703.875,372.875 714.75,376.0 725.0,380.5 734.375,386.5 742.375,394.0 748.5,402.75 752.5,412.875 754.125,424.0 753.25,435.875 750.125,447.875 745.0,460.0 738.125,471.625 729.875,482.5 720.875,492.625 711.25,501.625 701.375,509.75 691.625,516.75 682.125,522.875 673.0,528.125 664.25,532.5 656.0,536.125 648.25,539.25 640.875,541.75 634.125,543.875 621.625,547.0"/>
    <polyline points="616.0,548.125 596.625,551.125 577.75,553.125 563.125,555.125 551.375,557.75 547.375,559.125 540.125,562.25"/>
    <polyline points="538.5,563.125 532.25,567.125 529.5,569.375 523.0,575.875 519.25,580.375 515.75,585.25 506.25,600.5"/>
    <polyline points="505.0,602.5 498.0,613.875 494.75,618.625 491.125,623.625 487.0,628.625 479.625,636.125 473.5,640.875 469.875,643.125 461.625,647.25 456.75,649.0 451.25,650.375 445.0,651.5 438.125,652.125 430.125,652.25 421.25,651.5"/>
    <polyline points="411.0,650.0 399.5,647.375 386.5,643.375 372.0,637.75 355.75,630.25 338.125,620.5 319.125,608.25 299.625,593.375 280.25,575.75 262.125,555.875 246.875,534.375 235.75,512.25 229.875,490.875 229.875,471.5 235.5,455.125 245.75,442.5 259.375,433.625 274.875,428.25 290.875,425.625 306.5,425.25 321.0,426.375 334.125,428.625 345.75,431.375 355.75,434.5 364.375,437.75 371.75,441.0"/>
    <polyline points="378.125,444.125 383.625,447.125 392.5,452.625 408.125,463.375 418.25,469.125 425.625,472.25 430.375,473.75 437.625,475.25 442.375,475.875 449.25,476.25"/>
    <polyline points="451.5,476.25 457.875,475.875 464.0,475.125 471.5,473.5 475.0,472.375 479.875,470.5 484.5,468.25 488.75,465.625 494.0,461.5"/>
    <polyline points="495.25,460.375 500.125,455.5 503.5,451.375 508.0,445.125 513.625,436.0 525.125,415.25"/>
    <polyline points="526.625,412.625 533.5,400.75 542.5,387.25 545.25,383.5 555.375,371.5 564.125,362.75 569.375,358.125 581.875,348.375 589.625,343.25 598.375,338.0 608.5,332.625 620.125,327.375 633.625,322.125 649.125,317.125 667.0,312.625 687.5,309.0"/>
    <polyline points="710.5,306.875 735.875,306.875 763.125,309.875 790.75,317.0 817.0,329.125 839.25,347.125 854.75,370.75 861.5,399.25 858.625,430.625 847.25,462.625 829.625,493.25 808.375,520.625 786.125,544.25 764.875,563.75 745.625,579.625 729.0,592.125 703.5,609.25 686.875,618.75 681.0,621.375 676.25,623.0 672.5,623.75 669.5,623.75 667.0,623.125 664.75,622.0"/>
    <polyline points="662.75,620.375 658.875,616.25 650.375,605.5 645.25,599.875 639.5,594.375 630.25,586.75 627.125,584.5 620.5,580.5 610.75,575.5 601.125,571.875 592.125,569.5"/>
    <polyline points="589.125,568.875 580.875,567.875 573.25,567.75 566.25,568.375 559.875,569.75 552.25,572.5 547.25,575.25 542.625,578.625 538.375,582.5"/>
    <polyline points="537.125,583.875 534.5,586.875 531.0,591.875 526.75,599.375 523.875,605.875 519.5,617.875 517.125,626.125 513.75,641.75"/>
    <polyline points="513.125,645.125 511.0,659.875 509.75,676.625 509.75,685.875 510.375,695.875 511.0,701.25 513.0,712.5 514.625,718.625 519.625,731.875 523.375,739.0 528.0,746.75 534.125,755.0 541.875,763.875 551.875,773.375 564.625,783.75 581.0,794.875"/>
    <polyline points="602.0,806.75 628.75,819.125 662.375,831.25 703.875,841.75 753.25,848.375 808.5,847.25 864.5,833.75 912.5,803.5 942.875,755.625 949.875,694.25 935.25,628.125 907.375,565.625 875.625,512.125 824.875,436.875 810.625,413.25 803.375,397.125 802.0,387.375 804.875,383.25 810.25,384.25 816.125,390.0 820.875,399.875 823.125,413.375 821.875,429.5 816.75,447.375 808.0,465.75"/>
    <polyline points="796.375,483.875 782.625,500.875 767.875,516.125 752.875,529.5 738.25,540.875 724.375,550.375 711.5,558.25 699.75,564.5 689.125,569.5 679.625,573.375 671.125,576.375 663.375,578.625 650.0,581.375 638.875,582.5 629.375,582.75 617.25,582.125 600.75,580.625"/>
    <polyline points="597.875,580.5 592.375,580.25 582.375,580.5 575.875,581.5 568.125,583.75 563.125,586.25 560.0,588.25 555.875,591.75 551.25,597.5"/>
    <polyline points="550.25,599.125 546.875,606.25 544.625,614.75 543.875,622.0 543.875,630.125 545.25,639.125 548.125,649.125 551.25,656.5 555.75,664.375 558.5,668.5"/>
    <polyline points="561.75,672.875 570.0,681.875 575.125,686.5 581.0,691.375 587.75,696.125 595.5,701.0 604.375,705.875 614.375,710.5 625.625,714.875 638.25,718.75 652.125,722.0 667.125,724.125 683.125,724.75 699.5,723.75 715.875,720.375 731.5,714.375 745.375,705.5 756.75,693.625 764.75,679.125 769.0,662.25 769.375,643.875 766.125,624.75 760.0,605.625 751.625,587.375 741.875,570.25"/>
    <polyline points="731.375,554.75 720.625,541.0 710.25,529.0 700.375,518.625 691.125,509.75 682.75,502.25 675.0,495.875 668.125,490.625 656.25,482.375 651.25,479.25 642.625,474.5 629.5,468.875 622.25,466.375 611.75,463.25"/>
    <polyline points="610.375,462.75 606.75,461.25 603.0,459.0 601.625,457.75 600.0,455.625 599.125,453.25 598.875,449.75 599.5,447.0 600.875,444.0"/>
    <polyline points="601.5,443.0 604.75,438.75 608.125,435.625 613.875,431.625 621.0,428.125 627.25,426.125 633.875,424.875 636.25,424.625 643.125,424.75"/>
    <polyline points="645.375,425.125 649.625,426.25 653.5,427.875 655.25,429.0 658.125,431.625 660.125,434.875 660.875,436.75 661.25,438.625 661.25,442.75 660.875,444.875 659.25,449.25 658.125,451.375 655.125,455.625 649.125,461.625 644.5,465.125 642.0,466.625"/>
    <polyline points="639.375,468.125 631.5,471.875 626.125,473.75 618.375,475.625 610.875,476.75 601.875,477.0 596.0,476.375 590.75,475.25 584.875,473.0"/>
    <polyline points="583.625,472.375 580.375,470.125 577.125,466.5 575.5,463.5 574.625,460.125 574.375,456.375 574.875,452.375 576.875,446.5 578.375,443.375"/>
    <polyline points="579.25,441.875 584.0,435.0 590.75,427.875 595.125,424.125 600.0,420.5 608.875,415.125 615.75,411.625 627.75,407.25 636.75,405.0 646.5,403.625 651.625,403.375"/>
    <polyline points="656.75,403.375 667.0,404.625 672.0,405.75 676.875,407.5 681.375,409.625 685.5,412.25 689.125,415.375 692.25,418.875 694.625,422.875 696.375,427.25 697.25,432.0 697.375,437.0 696.75,442.125 695.25,447.375 693.125,452.625 690.25,457.875 686.875,462.875 682.875,467.75 678.5,472.25 669.0,480.5 658.625,487.5 648.25,493.0"/>
    <polyline points="643.125,495.375 633.0,499.25 623.5,502.0 614.5,504.0 602.25,505.875 591.5,506.75 582.0,506.875 568.75,506.125 558.375,504.625"/>
    <polyline points="556.625,504.25 548.875,502.5 541.0,499.5 538.375,498.0 535.125,495.5 532.875,492.75"/>
    <polyline points="532.5,492.125 531.625,490.25 530.875,487.5 530.625,482.875 531.25,477.375 532.75,471.0"/>
    <polyline points="533.125,469.875 537.0,459.25 542.5,447.875 549.375,436.0 555.75,427.0"/>
    <polyline points="557.75,424.5 561.875,419.375 569.625,411.25 579.375,402.625 587.375,396.5 597.0,390.375 602.375,387.25 608.375,384.25 614.875,381.25 629.625,375.625 638.125,373.125 647.125,371.0 656.875,369.25 667.375,368.0 678.25,367.625 689.625,368.0 701.25,369.5 712.875,372.125"/>
    <polyline points="724.0,376.25 734.25,381.875 743.25,389.0 750.5,397.75 755.5,408.0 758.125,419.375 758.0,431.625 755.5,444.25 750.625,456.875 743.875,469.25 735.625,481.0 726.25,491.75 716.375,501.5 706.125,510.125 696.0,517.75 686.125,524.25 676.625,529.875 667.5,534.5 659.0,538.5 650.875,541.75 643.375,544.375 629.875,548.5 623.75,550.0 612.625,552.125"/>
    <polyline points="607.5,553.0 573.125,557.125 557.375,560.0 553.0,561.25 547.0,563.5 541.625,566.125 538.375,568.125"/>
    <polyline points="536.875,569.125 529.625,575.125 525.75,579.25 520.875,585.625 514.0,596.625 505.625,612.125"/>
    <polyline points="504.375,614.5 497.125,627.5 493.625,633.0 489.625,638.625 485.0,644.25 476.375,652.5 472.875,655.125 464.375,660.0 459.375,662.125 453.75,663.875 447.25,665.25 439.75,666.25 431.25,666.5 421.375,665.875 410.0,664.25 396.875,661.375"/>
    <polyline points="381.75,656.75 364.625,650.125 345.125,640.875 323.625,628.75 300.375,613.125 276.25,594.0 252.625,571.25 231.25,545.5 214.5,518.125 204.25,490.75 201.875,465.5 207.25,444.25 219.375,428.0 236.0,417.0 255.125,410.75 274.5,408.375 293.0,408.875 309.5,411.25 323.75,414.75 335.75,418.875 345.625,423.375 353.75,428.0 360.125,432.5 365.375,436.875 369.625,441.25 373.0,445.25"/>
    <polyline points="376.0,449.25 385.375,463.125 389.875,468.75 392.375,471.375 397.625,475.875 403.375,479.625 409.625,482.625 419.125,486.0 428.75,488.125 435.0,489.125 446.875,490.125"/>
    <polyline points="449.625,490.25 460.0,490.25 466.875,489.875 475.125,489.0 482.375,487.625 488.625,486.0 491.5,485.0 496.625,482.625"/>
    <polyline points="497.875,482.0 503.375,478.5 509.375,473.25 514.875,466.75 518.5,461.75 522.125,456.0"/>
    <polyline points="523.125,454.5 534.25,436.0 540.125,426.875 545.5,419.25 549.75,413.75 557.375,404.75 567.0,395.0"/>
    <polyline points="570.875,391.5 579.75,384.375 590.5,376.875 596.875,373.0 611.625,365.375 629.75,358.125 640.375,354.75 652.125,351.875 665.0,349.5 679.0,347.875 694.0,347.25 709.75,348.0 726.0,350.5 742.125,354.875 757.5,361.75 771.0,371.125 781.875,383.25 789.375,397.625 792.625,414.125 791.75,431.75 786.75,450.0 778.375,468.0"/>
    <polyline points="767.5,485.0 754.75,500.625 741.375,514.5 727.75,526.625 714.5,536.875 702.0,545.5 690.25,552.625 679.625,558.5 669.875,563.25 661.125,567.0 645.875,572.5 639.25,574.375 622.75,577.875 609.875,579.5 587.75,581.375"/>
    <polyline points="585.25,581.75 578.375,583.0 572.25,584.875 566.875,587.25 562.25,590.125 557.0,595.125 553.75,599.5 550.375,606.375 549.125,610.375"/>
    <polyline points="548.625,612.5 547.875,616.875 547.5,621.625 547.625,626.75 548.625,635.25 550.25,641.375 552.5,647.875 555.875,655.0 558.125,658.75 563.5,666.5 566.875,670.625 575.25,679.125 580.375,683.5 586.25,687.875 593.0,692.375 600.5,696.75"/>
    <polyline points="609.125,701.125 618.625,705.125 629.375,708.875 641.125,712.125 653.875,714.625 667.625,716.0 681.875,716.125 696.5,714.5 710.875,711.0 724.25,705.125 736.125,696.875 745.75,686.125 752.625,673.125 756.25,658.25 756.75,642.0 754.125,625.125 749.0,608.25 741.875,591.875 733.25,576.5 723.875,562.375 714.25,549.625 704.5,538.25 695.125,528.375 686.25,519.875 678.0,512.5 670.25,506.25"/>
    <polyline points="663.25,500.875 650.75,492.375 635.875,483.875 624.375,478.5 600.75,469.0 595.25,466.0 592.125,463.5"/>
    <polyline points="591.375,462.625 589.375,460.0 588.375,458.0 587.875,456.0 587.625,452.625 588.25,449.125 589.625,445.25 592.75,439.875 596.25,435.75 599.125,432.875"/>
    <polyline points="600.75,431.375 604.375,428.5 610.75,424.375 618.375,420.625 627.25,417.5 633.75,416.0 640.5,415.0 647.625,414.875 651.125,415.125 658.0,416.25 661.25,417.25 667.375,420.125 670.0,422.0 672.25,424.125"/>
    <polyline points="674.25,426.5 675.875,429.125 677.0,432.0 677.75,435.0 678.0,438.25 677.75,441.625 677.0,445.0 674.25,452.0 669.875,458.75 667.125,462.0 664.125,465.125 657.5,470.875 646.5,478.0 638.875,481.75 631.25,484.75 623.75,487.0 616.625,488.625"/>
    <polyline points="613.25,489.25 606.75,490.125 594.875,490.75 582.625,489.75 578.375,489.0 569.625,486.375 565.375,484.375 560.875,481.375"/>
    <polyline points="559.875,480.5 556.875,477.0 554.75,473.0 553.875,469.625 553.625,467.25 553.75,462.125 554.5,457.875 557.125,450.125"/>
    <polyline points="557.875,448.375 560.5,443.0 567.0,433.125 572.25,426.625 581.625,417.25 590.75,409.875 598.25,404.875 606.875,400.0 611.75,397.625 622.5,393.125"/>
    <polyline points="628.5,391.125 641.75,387.625 649.0,386.375 656.625,385.5 664.375,385.125 672.5,385.25 680.75,386.0 688.875,387.5 696.875,389.875 704.375,393.125 711.25,397.375 717.25,402.5 722.25,408.5 725.875,415.375 728.0,423.0 728.625,431.125 727.75,439.625 725.25,448.375 721.5,457.0 716.625,465.5 710.75,473.5 704.125,481.125 697.0,488.125 689.5,494.375 681.875,500.125"/>
    <polyline points="674.375,505.125 659.5,513.375 652.375,516.625 638.875,521.875 626.625,525.5 615.5,528.125 600.75,530.5 588.125,531.875 557.25,533.875"/>
    <polyline points="554.875,534.0 541.0,535.625 534.625,537.0 530.375,538.25 525.5,540.25 521.125,542.625 518.25,544.625"/>
    <polyline points="517.25,545.375 513.625,548.375 510.25,551.875 504.5,559.0 495.75,571.5"/>
    <polyline points="494.75,572.875 490.5,578.75 484.0,586.5 479.375,591.25 471.75,597.375 464.625,601.75 459.0,604.25 452.5,606.375 444.875,607.75"/>
    <polyline points="440.625,608.25 431.0,608.25 425.75,607.875 413.75,605.75 407.125,604.0 400.0,601.625 392.5,598.75 384.625,595.125 376.375,590.75 368.0,585.625 359.5,579.75 351.125,573.0 343.0,565.625 335.375,557.625 328.625,549.125 323.0,540.375 318.625,531.375 315.75,522.625 314.5,514.25 315.0,506.5 317.125,499.5 320.625,493.375 325.5,488.375 331.5,484.25"/>
    <polyline points="338.125,481.125 345.375,478.75 352.875,477.25 368.125,475.875 375.625,475.875 396.25,477.375 408.25,478.875 437.0,483.125 448.0,484.375 462.875,485.25 465.375,485.125"/>
    <polyline points="467.875,485.125 478.5,484.125 488.75,481.625 494.5,479.25 498.375,477.125 506.25,471.0"/>
    <polyline points="507.375,469.875 511.375,465.5 517.25,457.625 523.5,448.125 534.625,429.875"/>
    <polyline points="536.125,427.5 543.125,417.25 547.375,411.625 552.25,405.625 561.125,395.875 572.875,385.125 582.75,377.5 588.5,373.625 594.875,369.625 602.0,365.625 610.0,361.625 619.0,357.625 628.875,353.875 640.0,350.25 652.375,347.125 666.0,344.5"/>
    <polyline points="680.875,342.625 696.875,341.875 714.0,342.625 731.5,345.25 749.0,350.125 765.5,357.625 780.125,368.0 791.625,381.375 799.125,397.375 801.875,415.625 800.0,435.125 793.625,455.0 783.625,474.25 771.125,492.375 757.0,508.625 742.375,523.0 728.0,535.25 714.25,545.625 701.375,554.125 689.625,561.125 679.0,566.875 669.5,571.375 661.0,575.0 646.5,580.0 640.25,581.625"/>
    <polyline points="634.75,582.875 625.0,584.625 616.75,585.5 592.75,586.625 588.125,587.125 581.875,588.25 578.125,589.25 571.625,592.125 568.75,594.0"/>
    <polyline points="567.375,595.125 566.125,596.125 562.875,599.875 560.125,604.25 558.125,609.25 557.125,613.0 556.625,617.125 556.5,621.5 557.125,628.625 558.375,633.875 560.25,639.5 563.0,645.5"/>
    <polyline points="564.75,648.5 566.75,651.75 571.75,658.5 582.25,669.0 591.75,676.125 597.375,679.75 610.5,686.5 618.25,689.625 626.5,692.375 635.625,694.75 645.25,696.625 655.5,697.625 666.125,697.75 676.875,696.875 687.5,694.625 697.75,691.0 707.0,685.75 715.125,678.875 721.75,670.375 726.375,660.625 728.875,649.625"/>
    <polyline points="729.375,637.625 727.875,625.25 724.5,612.75 719.625,600.375 713.5,588.5 706.625,577.25 699.125,567.0 691.375,557.5 683.5,549.0 675.75,541.375 668.25,534.625 661.0,528.75 647.625,519.0 641.5,515.125 630.375,508.625 620.5,503.625 604.25,496.625 594.375,493.0"/>
    <polyline points="591.5,492.0 583.875,489.125 575.75,485.625 570.875,483.125 566.875,480.5 563.75,477.75 561.375,474.75 559.125,470.5 558.5,468.25"/>
    <polyline points="558.25,467.0 558.0,462.0 558.5,457.75 559.625,453.25 561.5,448.375 564.0,443.125 568.875,435.5 573.75,429.25 577.625,425.0"/>
    <polyline points="579.875,422.75 587.625,415.75 594.0,411.125 601.25,406.375 609.75,401.75 619.625,397.5 630.75,393.625 637.0,392.0 650.25,389.625 657.375,389.0 672.25,389.125 679.75,390.125 687.25,391.75 694.375,394.125 701.125,397.375 707.25,401.375 712.625,406.25"/>
    <polyline points="716.875,411.875 720.0,418.25 721.75,425.25 722.25,432.75 721.25,440.5 719.0,448.375 715.625,456.375 711.125,464.0 705.75,471.5 699.75,478.375 693.25,484.875 686.375,490.75 679.25,496.125 672.125,500.75 665.125,505.0 651.375,511.75 638.5,516.875 626.625,520.5 610.75,524.0 601.375,525.375"/>
    <polyline points="597.0,526.0 581.5,527.25 547.5,528.625 540.5,529.125 534.5,530.0"/>
    <polyline points="533.125,530.25 526.125,532.0 520.375,534.375 514.875,538.0 510.75,541.875"/>
    <polyline points="510.125,542.5 505.0,548.875 493.0,567.375"/>
    <polyline points="492.125,568.625 483.75,579.75 478.25,585.625 471.375,591.375 467.25,594.125 460.125,597.875 454.375,599.875 447.875,601.5"/>
    <polyline points="444.25,602.125 436.125,602.625 426.75,602.125 421.625,601.5 410.25,598.875 404.0,597.0 397.5,594.5 390.625,591.5 383.5,587.875 376.25,583.625 368.875,578.75 361.5,573.25 354.5,567.25 347.75,560.625 341.5,553.5 336.125,546.125 331.75,538.5 328.5,531.0 326.5,523.5 325.75,516.5 326.5,509.875 328.5,504.0 331.625,498.875"/>
    <polyline points="335.875,494.375 341.0,490.75 346.75,487.875 353.0,485.75 359.625,484.25 366.375,483.25 379.75,482.375 392.625,482.75 404.5,483.75 441.625,488.5 460.875,490.25"/>
    <polyline points="463.5,490.25 473.0,490.375 477.125,490.125 487.625,488.625 492.0,487.5 497.125,485.625 501.625,483.25 503.625,481.875"/>
    <polyline points="504.625,481.25 510.25,476.375 516.125,469.5 522.0,460.75 526.5,453.125"/>
    <polyline points="527.5,451.5 537.875,434.125 550.0,416.875 557.25,408.25 563.0,402.125 570.0,395.5 578.25,388.625"/>
    <polyline points="583.0,385.125 594.0,377.75 600.375,374.125 607.5,370.375 615.375,366.75 624.125,363.25 633.75,359.875 644.375,356.875 656.0,354.25 668.75,352.25 682.5,351.125 697.0,351.0 712.25,352.25 727.625,355.125 742.625,360.125 756.625,367.25 768.875,376.875 778.25,388.875 784.375,403.0 786.75,418.75 785.125,435.625 779.875,452.875 771.5,469.75 760.875,485.625 748.75,500.125"/>
    <polyline points="735.875,513.125 723.0,524.5 710.25,534.125 698.25,542.25 687.0,549.0 676.625,554.5 667.125,559.125 658.5,562.75 643.375,568.0 630.75,571.375 625.25,572.5 611.0,574.75 589.75,576.875 579.0,578.5"/>
    <polyline points="576.625,578.875 568.125,581.375 564.375,583.0 559.25,585.875 554.875,589.375 551.0,593.5 546.75,599.875 544.25,605.5 542.25,611.875"/>
    <polyline points="541.75,614.125 540.625,621.375 540.5,624.0 540.625,632.5 541.375,638.75 542.75,645.375 545.0,652.5 548.25,660.25 550.375,664.375 552.875,668.625 559.25,677.5 568.125,687.125 573.5,692.125 579.875,697.375 587.25,702.625 595.75,707.875"/>
    <polyline points="605.5,713.125 616.625,718.125 629.25,722.875 643.375,727.0 659.0,730.375 676.0,732.375 693.875,732.75 712.375,730.75 730.5,726.125 747.25,718.25 761.625,706.875 772.5,692.125 779.25,674.375 781.5,654.5 779.375,633.375 773.5,612.0 764.875,591.25 754.375,571.875 743.0,554.375 731.25,538.75 720.0,525.25 709.375,513.75 690.875,495.75 683.0,488.875 676.0,483.25"/>
    <polyline points="669.75,478.625 664.375,474.875 655.25,469.25 651.375,467.125 645.0,464.25 639.625,462.5 633.125,461.0 617.75,459.75 613.375,459.0"/>
    <polyline points="612.375,458.75 610.5,458.25 608.125,457.125 606.25,455.75 604.5,453.5 603.875,451.5 603.75,449.25 604.25,447.0 605.875,443.625"/>
    <polyline points="606.5,442.75 608.625,440.125 612.5,436.75 614.875,435.125 620.5,432.125 627.125,430.0 632.375,429.0 637.875,428.875 641.375,429.25"/>
    <polyline points="643.0,429.625 647.625,431.375 651.25,434.25 653.0,436.75 653.5,438.125 654.125,441.0 654.125,442.625 653.5,445.875 652.125,449.25 648.75,454.125 647.375,455.75 644.0,458.75 638.375,462.75"/>
    <polyline points="636.375,463.875 632.125,466.0 627.75,467.75 621.25,469.625 613.0,470.875 605.5,471.0 600.5,470.375 594.75,468.75 591.25,467.0"/>
    <polyline points="590.25,466.375 587.625,464.125 585.125,460.5 584.125,457.5 583.875,453.0 584.625,449.25 586.125,445.25 587.625,442.375 590.625,438.0"/>
    <polyline points="591.875,436.5 596.25,431.875 599.875,428.75 606.25,424.25 614.0,419.875 623.125,416.0 633.5,413.125 641.125,412.0 645.0,411.75 652.875,411.875 656.875,412.375 664.5,414.125"/>
    <polyline points="668.0,415.5 671.375,417.25 674.375,419.375 677.0,421.75 681.125,427.375 682.375,430.75 683.125,434.25 683.375,437.875 683.0,441.75 682.125,445.625 678.75,453.5 676.375,457.375 673.625,461.125 670.5,464.625 663.375,471.375 659.5,474.375 651.375,479.75 647.125,482.0 638.75,486.0 630.5,489.125"/>
    <polyline points="626.375,490.375 618.625,492.375 607.75,494.25 601.0,494.875 589.125,495.125 579.125,494.25 572.75,493.125 565.5,491.125 561.125,489.375"/>
    <polyline points="559.75,488.75 554.375,485.25 551.125,482.0 549.375,479.25 548.125,476.375 547.375,473.25 547.125,467.5 547.5,464.875"/>
    <polyline points="547.625,463.625 549.0,457.875 551.25,451.625 554.625,444.5 558.0,438.75 565.75,428.0 572.0,420.875 577.125,415.875"/>
    <polyline points="580.0,413.375 586.375,408.125 593.875,402.75 602.75,397.375 613.125,392.25 625.25,387.375 632.0,385.25 647.0,381.75 655.25,380.5 663.875,379.75 672.75,379.625 682.0,380.125 691.125,381.5 700.25,383.75 709.0,387.125 717.0,391.5 724.125,397.0 730.0,403.625 734.5,411.25 737.125,419.875"/>
    <polyline points="738.0,429.0 737.0,438.75 734.25,448.625 730.0,458.5 724.375,468.0 717.625,477.125 710.125,485.5 702.0,493.25 693.75,500.125 685.375,506.25 677.0,511.75 668.875,516.375 653.375,523.875 646.125,526.75 632.75,531.25 620.625,534.375 609.875,536.5 600.25,538.0 587.5,539.375"/>
    <polyline points="583.75,539.75 567.25,541.0 556.625,542.125 543.75,544.375 535.25,547.0 528.0,550.375"/>
    <polyline points="526.625,551.125 519.375,556.375 514.0,561.5 505.75,571.625 499.25,580.625"/>
    <polyline points="498.125,582.25 491.75,590.625 485.5,597.875 477.875,605.125 470.625,610.25 464.875,613.5 461.625,615.0 454.25,617.5 445.625,619.25 435.25,620.0"/>
    <polyline points="429.25,619.75 422.75,619.125 415.75,618.0 408.0,616.25 399.625,613.75 390.625,610.5 381.0,606.375 370.875,601.25 360.125,595.0 349.25,587.625 338.25,579.125 327.5,569.5 317.5,559.0 308.5,547.75 301.125,536.0 295.75,524.125 292.625,512.75 292.0,502.0 293.75,492.25 297.75,484.0 303.75,477.125 311.25,471.75 319.875,467.75 329.0,465.125 338.625,463.5 348.125,462.875"/>
    <polyline points="357.375,462.75 374.625,464.0 389.875,466.25 424.125,472.875 440.125,475.5 452.625,476.625 460.625,476.625 469.625,475.75"/>
    <polyline points="471.625,475.375 479.125,473.5 482.5,472.25 488.75,469.25 492.875,466.625 496.875,463.5 501.75,458.875 507.375,452.0"/>
    <polyline points="508.5,450.5 516.5,438.25 531.625,412.375 539.5,400.375 547.125,390.25"/>
    <polyline points="550.125,386.5 557.0,378.875 565.375,370.625 570.375,366.25 582.25,357.125 589.375,352.375 597.5,347.5 606.75,342.5 617.25,337.625 629.375,332.75 643.125,328.125 658.875,324.0 676.625,320.5 696.5,318.125 718.375,317.375 741.875,318.875 766.25,323.5 790.25,332.0 811.875,345.0 829.125,362.875 840.125,385.25 843.5,411.125 839.125,439.0"/>
    <polyline points="827.875,466.875 811.75,493.375 792.875,517.125 773.25,537.625 754.125,554.875 736.625,568.875 721.0,580.25 707.5,589.125 696.0,596.125 686.375,601.375 678.25,605.375 671.5,608.25 665.875,610.125 661.0,611.375 657.0,612.0 653.5,612.125 650.375,611.875 645.0,610.375 638.0,606.625 629.125,600.625"/>
    <polyline points="626.875,599.125 617.625,593.5 610.5,590.125 601.0,586.875 596.375,585.875 589.75,585.0 583.5,585.0 575.875,586.25 572.5,587.375"/>
    <polyline points="570.75,588.0 564.75,591.5 560.875,594.75 556.625,600.25 554.875,603.5 552.75,608.875 551.375,615.0 550.875,621.75 551.375,629.5"/>
    <polyline points="551.875,632.125 552.375,635.0 554.125,641.0 558.375,650.75 562.625,657.75 565.25,661.5 568.375,665.25 575.875,673.125 580.5,677.25 585.625,681.25 598.25,689.5 605.75,693.5 614.125,697.25 623.375,700.875 633.625,704.0 644.75,706.5 656.75,708.25 669.25,709.0 682.25,708.375 695.25,706.25"/>
    <polyline points="707.75,702.375 719.375,696.375 729.375,688.375 737.375,678.25 742.875,666.25 745.75,652.75 745.875,638.25 743.375,623.125 738.625,608.0 732.25,593.375 724.5,579.5 716.0,566.75 707.125,555.0 698.25,544.625 689.5,535.375 681.0,527.375 673.0,520.375 665.5,514.25 658.5,509.0 652.0,504.5 640.375,497.375 630.5,492.0 622.0,487.875"/>
    <polyline points="618.125,486.25 596.0,477.25 587.25,472.875 583.375,470.25 579.625,466.375 577.75,463.25 577.0,461.0"/>
    <polyline points="576.75,459.875 576.375,456.25 577.5,449.375 580.125,443.375 582.0,440.125 585.75,435.125 590.5,429.875 596.625,424.625 601.5,421.0"/>
    <polyline points="604.25,419.25 613.5,414.125 620.75,411.125 628.625,408.5 637.375,406.375 646.75,405.25 651.625,405.0 661.5,405.5 666.375,406.375 671.125,407.625 675.625,409.25 679.875,411.375 683.75,413.875 687.125,416.875 690.0,420.375 692.125,424.25 693.75,428.375 694.5,432.875 694.625,437.625"/>
    <polyline points="694.0,442.5 692.5,447.5 690.5,452.5 687.75,457.375 684.5,462.125 680.75,466.75 676.625,471.125 672.125,475.25 662.625,482.5 657.625,485.625 647.625,491.125 642.625,493.375 637.75,495.375 628.25,498.625 610.75,502.625 599.25,504.0 592.375,504.375"/>
    <polyline points="589.125,504.5 574.875,504.125 563.5,502.75 556.375,501.25 550.375,499.5 542.75,496.0"/>
    <polyline points="541.875,495.5 538.375,492.5 536.375,490.0 535.25,487.875 534.5,485.625 533.875,481.5 534.125,476.875"/>
    <polyline points="534.25,475.875 535.875,468.0 538.625,459.875 543.75,448.625 549.125,439.0"/>
    <polyline points="550.5,436.875 555.0,430.25 558.625,425.625 567.5,415.375 573.125,409.875 579.75,404.125 583.5,401.125 592.0,395.125 596.875,392.125 608.0,386.125 614.25,383.125 621.125,380.375 628.625,377.625 636.625,375.25 645.375,373.125 654.75,371.375"/>
    <polyline points="664.75,370.125 675.375,369.625 686.25,369.875 697.5,371.125 708.625,373.5 719.5,377.125 729.625,382.25 738.5,388.875 745.875,397.0 751.25,406.5 754.375,417.125 755.0,428.75 753.125,440.75 749.125,453.0 743.125,465.0 735.5,476.5 726.875,487.25 717.375,497.0 707.625,505.75 697.625,513.375 688.0,520.125 678.5,525.75 669.5,530.625 652.75,538.25 645.25,541.0"/>
  </g>
</svg>
