<?xml version="1.0" encoding="utf-8" ?>
<svg xmlns="http://www.w3.org/2000/svg" xmlns:cc="http://creativecommons.org/ns" xmlns:dc="http://purl.org/dc/elements/1.1/" xmlns:ev="http://www.w3.org/2001/xml-events" xmlns:inkscape="http://www.inkscape.org/namespaces/inkscape" xmlns:rdf="http://www.w3.org/1999/02/22-rdf-syntax-ns" xmlns:sodipodi="http://sodipodi.sourceforge.net/DTD/sodipodi-0.dtd" xmlns:xlink="http://www.w3.org/1999/xlink" baseProfile="tiny" height="27.09333333cm" version="1.2" viewBox="0 0 1024.0 1024.0" width="27.09333333cm">
  <metadata>
    <rdf:RDF>
      <cc:Work>
        <dc:format>image/svg+xml</dc:format>
        <dc:source>vpype read './original_svgs/Strange Attractors #227.svg' linemerge linesimplify write './Strange Attractors #227.svg'
</dc:source>
        <dc:date>2024-08-05T01:35:39.379032</dc:date>
      </cc:Work>
    </rdf:RDF>
  </metadata>
  <defs/>
  <g fill="none" id="layer1" inkscape:groupmode="layer" inkscape:label="1" stroke="black" stroke-width="0.7mm" style="display:inline">
    <polyline points="698.25,655.25 620.875,556.25 602.375,531.25 587.625,509.75 576.25,491.375 567.625,475.5 561.625,461.75 557.75,449.625 555.75,438.875 555.375,429.125 556.5,420.0 558.875,411.5 562.375,403.5 567.125,395.75 572.75,388.25 579.375,381.125 586.75,374.375 594.75,367.875 603.375,362.125 612.375,357.0 621.375,352.875 630.375,349.75 639.0,348.0 647.0,347.75"/>
    <polyline points="654.125,349.0 660.0,351.875 664.625,356.375 668.0,362.375 669.875,369.5 670.375,377.75 669.625,386.625 667.75,396.0 665.0,405.5 661.5,415.0 657.5,424.25 653.0,433.0 648.25,441.375 643.375,449.125 638.375,456.375 628.5,468.875 619.0,479.0 610.125,487.25 601.875,493.75 591.0,501.0"/>
    <polyline points="587.75,502.875 581.625,506.125 571.125,510.75 544.125,520.0"/>
    <polyline points="543.5,520.375 541.125,521.5 538.875,523.25 537.875,525.25 537.875,526.5 538.25,527.625"/>
    <polyline points="538.375,528.0 541.5,532.75 541.25,533.125 540.25,532.875"/>
    <polyline points="539.75,532.625 533.0,529.5 478.125,500.375 460.0,491.25 439.625,481.5 429.0,476.75 418.375,472.125 408.125,468.125"/>
    <polyline points="398.375,464.75 389.625,462.25 382.0,460.75 375.75,460.25 371.125,461.0 368.125,462.75 366.625,465.5 366.5,468.875 367.625,473.0 369.875,477.5 372.875,482.125 376.625,486.875 380.625,491.5 385.0,495.875 394.125,503.625 403.125,510.0 411.625,514.75 415.625,516.625 423.125,519.5 433.125,521.875"/>
    <polyline points="436.125,522.25 446.5,522.375 452.875,521.5 458.25,520.125 464.0,518.0 468.625,515.625 471.25,513.75 474.0,511.25"/>
    <polyline points="474.5,510.625 476.625,507.375 477.375,505.375 477.875,502.625 477.875,499.5 476.375,491.25"/>
    <polyline points="476.25,490.25 475.25,485.375 474.5,479.375 474.375,474.0 474.875,467.375 476.5,459.125 477.375,455.875 480.0,448.625 484.0,439.875 486.75,434.75 493.875,423.125"/>
    <polyline points="498.625,416.25 504.25,408.625 511.0,400.25 519.0,391.0 539.5,369.625 552.5,357.625 567.375,344.75 584.25,331.375 603.0,317.875 623.5,305.125 645.125,293.625 667.0,284.75 688.0,279.625 706.875,279.0 722.5,283.875 733.875,294.0 740.75,309.0 743.25,327.875 741.75,349.125 737.375,371.5 730.875,393.75 723.0,415.0 714.75,434.625 706.25,452.25 698.125,467.875"/>
    <polyline points="690.375,481.5 683.125,493.25 676.5,503.25 670.375,511.625 664.875,518.75 659.75,524.625 655.125,529.625 650.875,533.625 647.0,537.0 640.125,541.875 634.25,545.125 631.625,546.25 626.875,547.875 622.75,548.875 611.125,550.625"/>
    <polyline points="610.125,550.875 606.625,552.0 605.625,553.125 605.625,555.0 607.125,557.5 609.375,559.875 617.0,566.0"/>
    <polyline points="618.75,567.125 629.75,574.5 645.875,584.5 679.625,604.0 704.375,617.375 716.625,623.375 727.375,627.875"/>
    <polyline points="731.625,629.125 734.75,629.5 736.75,628.75 737.125,627.0 736.125,623.875 733.5,619.625 729.375,614.125 717.0,600.25 709.25,592.25 682.875,566.625 656.5,543.125 640.625,530.125 633.25,524.625 626.375,519.625 614.0,511.375 603.125,505.125 593.625,500.625"/>
    <polyline points="589.375,498.75 581.5,496.125 574.5,494.25 565.25,492.75 552.75,491.875 530.75,492.25"/>
    <polyline points="529.375,492.25 521.625,491.75 516.25,490.5 511.0,488.0 509.0,486.5 507.875,485.25"/>
    <polyline points="507.25,484.625 505.625,482.625 503.5,478.25 502.25,473.625 501.875,469.5 502.625,460.75 504.5,453.875 506.5,448.5"/>
    <polyline points="507.75,445.5 511.25,438.875 515.75,431.25 522.0,422.375 525.75,417.5 535.0,406.625 546.75,394.375 561.5,381.0 570.0,374.125 579.375,367.125 589.25,360.25 599.875,353.75 610.75,347.875 622.0,342.75 633.0,338.875 643.625,336.5 653.5,335.875 662.375,337.25 669.625,340.5 675.375,345.875"/>
    <polyline points="679.25,353.0 681.5,361.625 682.0,371.625 680.875,382.375 678.625,393.5 675.125,404.875 671.0,416.0 666.125,426.625 661.0,436.75 650.0,454.875 644.5,462.75 639.125,469.75 628.75,481.875 623.875,486.875 614.625,495.25 606.375,501.75 595.5,508.75 586.25,513.5"/>
    <polyline points="583.625,514.75 572.125,519.375 557.75,524.375 553.75,526.125 551.25,527.875"/>
    <polyline points="550.875,528.25 549.75,530.125 549.75,532.25 550.5,534.125 552.875,537.375"/>
    <polyline points="553.0,537.75 553.625,538.5 553.625,539.0 551.0,538.125 545.0,535.0 499.125,509.375"/>
    <polyline points="489.125,503.875 437.125,476.5 405.875,461.75 390.25,455.125 375.625,449.5 362.5,445.5 351.5,443.375 343.0,443.25 337.375,445.25 334.375,449.0 333.875,454.375 335.5,460.875 338.875,468.0 343.375,475.625 348.625,483.0 354.375,490.25 366.25,503.125 377.5,513.375 387.75,521.0"/>
    <polyline points="392.375,523.875 400.875,528.25 408.375,530.75 415.0,532.125 420.875,532.5 426.0,532.125 430.625,531.375 436.75,529.5 443.375,526.5 450.875,521.625"/>
    <polyline points="451.75,520.75 454.375,518.375 456.375,516.0 458.5,512.0 459.375,507.875 459.375,505.375 458.25,500.0"/>
    <polyline points="458.0,499.0 452.25,484.375 450.75,479.25 449.625,472.875 449.375,470.5 449.625,461.875 450.875,454.625 452.0,450.375"/>
    <polyline points="453.5,445.625 458.375,434.25 461.875,427.375 466.375,419.625 472.25,410.625 479.5,400.375 488.75,388.375 500.25,374.75 514.625,358.875 532.375,340.875 554.0,320.75 580.125,298.5 610.75,275.125 645.5,252.0 683.125,231.5 721.125,216.875 756.0,211.5 784.25,217.875 803.125,236.625 811.75,266.0 811.25,302.375 804.125,341.75 793.125,380.75 780.75,416.875 768.5,448.875"/>
    <polyline points="757.25,476.5 739.375,519.0 722.25,557.25 718.125,565.125 714.625,570.875 711.25,575.125 708.0,577.875 704.625,579.5 701.125,580.125 697.5,579.75 693.625,578.75 689.375,577.0 680.375,572.25 650.5,553.625 635.875,545.0"/>
    <polyline points="631.25,542.375 626.875,540.0 614.375,534.125 606.875,531.0 596.75,527.625 585.375,525.0 576.0,523.75 566.75,523.5 562.375,523.875"/>
    <polyline points="561.125,524.0 556.75,524.75 551.625,526.5 549.25,528.375 548.5,530.125 548.5,531.125"/>
    <polyline points="548.625,531.5 549.625,534.125 552.375,538.0 552.125,538.375 551.5,538.25"/>
    <polyline points="551.0,538.0 543.5,534.25 478.0,498.125 438.75,477.75 408.75,463.625 393.875,457.25 379.625,451.875 366.875,447.875"/>
    <polyline points="356.0,445.5 347.625,445.125 341.625,446.75 338.375,450.125 337.5,454.875 338.75,460.875 341.625,467.625 345.75,474.75 356.125,488.875 367.625,501.375 373.375,506.75 384.125,515.625 393.75,522.125 402.375,526.5 409.875,529.25 413.375,530.125 419.625,531.0 425.125,531.0"/>
    <polyline points="427.75,530.875 432.375,530.125 436.625,529.0 440.375,527.75 446.625,524.75 450.5,522.375 455.375,518.375 457.5,516.0 459.5,512.75"/>
    <polyline points="459.875,512.0 460.75,509.625 461.125,507.25 460.75,502.0 459.5,497.25 456.0,487.625"/>
    <polyline points="455.5,486.125 453.375,477.625 452.625,471.0 452.75,465.625 453.5,459.25 455.25,451.375 456.75,446.875 458.75,441.75 464.625,429.5 468.875,422.125 474.25,413.75 480.875,404.125 489.25,393.125 499.75,380.5 512.625,366.0 528.5,349.625"/>
    <polyline points="547.875,331.125 571.125,310.875 598.375,289.25 629.75,267.375 664.125,247.125 699.75,230.875 734.0,221.875 763.75,222.625 785.875,234.625 798.875,257.125 802.875,288.0 799.625,323.5 791.25,360.5 780.125,396.0 768.25,428.625 756.75,457.25 746.375,481.875 737.25,502.5 722.875,533.625 712.625,553.875 708.5,561.0 704.875,566.25 701.375,570.25 698.125,572.875"/>
    <polyline points="695.0,574.625 691.625,575.375 688.375,575.375 681.125,573.75 669.375,568.25 648.375,556.0 628.0,545.0 613.75,538.625 601.5,534.25"/>
    <polyline points="598.75,533.5 589.0,531.375 579.375,530.375 574.75,530.375 570.0,530.875 566.375,531.875 563.625,533.375"/>
    <polyline points="563.25,533.75 562.125,535.625 562.375,537.875 565.0,541.875 568.875,545.5"/>
    <polyline points="569.375,546.0 573.125,549.25 569.25,547.25 504.5,508.875"/>
    <polyline points="488.375,499.5 447.625,476.5 423.375,463.25 397.125,449.625 370.0,436.375 343.625,424.75 319.875,416.125 300.375,411.5 286.625,411.625 278.875,416.5 276.75,425.375 279.25,437.25 285.0,450.75 292.625,465.0 301.125,479.0 317.875,504.125 325.5,514.875 332.375,524.125 344.125,539.0 353.625,549.375 361.75,556.125"/>
    <polyline points="365.5,558.375 369.125,560.125 372.5,561.25 379.375,562.125 386.125,561.5 392.75,559.875 399.375,557.5 412.0,551.25 426.375,543.0 440.75,534.0"/>
    <polyline points="442.75,532.625 453.5,525.625 462.375,519.0 467.375,514.125 470.5,509.625"/>
    <polyline points="470.875,508.875 471.875,505.875 472.25,502.0 471.5,495.625 469.25,485.0"/>
    <polyline points="469.0,483.5 468.375,478.5 468.25,472.5 468.5,467.75 470.0,459.25 472.125,452.125 475.5,443.625 477.875,438.625 484.375,427.125 494.0,412.625 508.125,394.75 517.375,384.125 528.5,372.375 541.625,359.375"/>
    <polyline points="557.0,345.375 574.75,330.375 595.125,314.875 617.75,299.5 642.125,285.25 667.375,273.5 692.125,265.625 714.875,263.25 733.875,267.25 748.0,278.0 756.375,294.875 759.375,316.5 757.625,341.25 752.375,367.25 744.75,392.875 735.875,417.125 726.625,439.125 717.375,458.875 708.75,476.0 700.75,490.75 693.375,503.25 686.75,513.75 680.875,522.5 675.625,529.625 666.5,540.375"/>
    <polyline points="662.5,544.25 659.0,547.375 655.625,549.75 649.75,553.125 644.5,554.875 642.0,555.375 635.5,556.0 629.75,555.625 616.875,553.875 614.0,553.875"/>
    <polyline points="613.25,553.875 610.875,554.375 610.125,555.0 609.75,555.625 610.125,557.5 613.625,561.625 622.75,568.875 615.25,563.375 612.25,560.75 609.75,557.875 609.125,556.75 609.0,554.875 609.875,554.0 612.25,553.125"/>
    <polyline points="624.625,570.0 633.5,575.875 648.875,585.25 669.75,597.25 684.625,605.375 695.125,610.875 710.0,617.875 718.125,620.75 721.125,621.25"/>
    <polyline points="723.25,621.0 724.25,620.0 724.25,618.125 723.0,615.375 720.625,611.625 712.375,601.625 706.875,595.625 693.625,582.375 678.75,568.625 663.5,555.25 648.75,543.25 628.75,528.625 611.75,518.125 601.875,513.125 593.0,509.375"/>
    <polyline points="589.0,507.875 581.625,505.625 574.875,504.0 568.875,503.0 560.875,502.25 552.0,502.0 544.5,502.25 533.125,503.125"/>
    <polyline points="531.875,503.25 521.75,504.0 516.5,503.875 513.375,503.375"/>
    <polyline points="512.875,503.375 509.375,502.25 506.875,501.0 502.625,497.5"/>
    <polyline points="502.25,497.125 498.75,492.75 496.125,488.0 494.125,482.375 493.375,478.875"/>
    <polyline points="493.125,477.625 492.875,474.875 493.0,468.125 493.5,464.125 494.5,459.5 497.125,451.25 500.0,444.625 504.0,437.0 509.625,427.875 513.125,422.875 522.0,411.375 527.5,404.875 540.875,390.5"/>
    <polyline points="549.125,382.625 558.25,374.375 568.5,365.875 579.75,357.125 592.0,348.5 605.125,340.25 618.875,332.75 633.0,326.375 646.875,321.75 660.0,319.25 672.0,319.25 682.25,322.0 690.375,327.625 696.125,335.875 699.5,346.375 700.375,358.625 699.25,372.25 696.5,386.375 692.25,400.625 687.125,414.5 681.25,427.75 675.125,440.0 668.75,451.375 662.375,461.5 656.25,470.75 650.25,478.75"/>
    <polyline points="644.5,485.875 633.875,497.625 628.875,502.375 620.0,509.875 612.125,515.625 602.125,521.5 596.5,524.25 589.25,527.25 574.125,532.75"/>
    <polyline points="573.125,533.125 570.25,534.75 569.25,535.625 568.0,537.875 568.0,538.875 568.875,541.375 572.25,545.5"/>
    <polyline points="573.0,546.125 576.0,548.75 581.5,552.875 589.375,558.125 586.625,556.375"/>
    <polyline points="584.625,555.125 573.125,547.75 533.375,523.25 468.75,484.375 437.875,466.5 402.375,446.5 363.75,425.875 324.25,406.5 287.625,391.125 257.75,382.375 237.625,382.0 227.875,390.125 227.5,405.125 233.75,424.75 243.875,446.375 276.625,507.875 285.25,524.625"/>
    <polyline points="292.375,539.375 307.625,572.375 311.75,580.125 315.625,586.25 319.75,591.125 324.125,594.5 328.875,596.625 334.0,597.625 339.5,597.5 345.5,596.5 351.625,594.5 358.125,591.875 364.75,588.75 371.375,585.125 384.625,577.0 428.875,546.625"/>
    <polyline points="433.25,543.75 448.25,534.375 462.875,526.75 469.875,523.75 477.75,521.0 484.125,519.125 490.75,517.75"/>
    <polyline points="491.875,517.625 501.625,516.5 509.5,516.75"/>
    <polyline points="509.875,516.875 514.5,518.0 518.625,519.875"/>
    <polyline points="519.0,520.0 524.125,523.25 526.875,525.375"/>
    <polyline points="527.25,525.625 528.625,526.625 529.75,528.0 528.125,527.625 525.125,526.25"/>
    <polyline points="524.0,525.75 490.875,508.875 461.75,494.75 448.0,488.5 427.125,480.125 414.5,476.125 409.125,474.875"/>
    <polyline points="404.375,474.25 400.5,474.0 397.5,474.5 395.375,475.5 394.25,477.0 393.875,479.0 394.25,481.25 395.375,483.875 399.25,489.5 401.875,492.375 408.0,497.875 411.375,500.5 418.25,505.125 421.75,507.125 428.625,510.5 435.125,513.125 444.25,515.75 449.875,516.875"/>
    <polyline points="452.375,517.125 459.5,517.75 469.375,517.375 475.625,516.5 480.625,515.375 488.75,512.625"/>
    <polyline points="489.375,512.25 492.125,510.75 494.25,508.875 495.625,506.625 495.875,504.125"/>
    <polyline points="495.875,503.75 495.375,501.25 490.875,489.5"/>
    <polyline points="490.5,488.625 489.125,483.5 488.25,477.125 488.125,472.25 488.625,466.375 490.125,459.25 491.875,453.5 494.5,446.875 498.375,439.125"/>
    <polyline points="500.875,434.625 507.25,424.625 511.375,418.875 521.625,406.0 528.0,398.625 535.375,390.75 543.875,382.375 553.5,373.375 564.375,364.0 576.5,354.25 589.875,344.5 604.25,335.0 619.5,326.25 635.25,318.875 650.875,313.125 665.875,310.0 679.5,309.625 691.0,312.625 700.125,319.0 706.375,328.375 709.875,340.5 710.5,354.625 708.875,370.125 705.375,386.125"/>
    <polyline points="700.375,402.0 694.5,417.375 688.0,431.875 681.25,445.125 674.375,457.25 661.25,477.625 649.125,493.25 643.625,499.5 633.625,509.625 624.875,517.0 621.0,519.875 613.875,524.5 605.0,529.125 597.75,532.125 592.0,534.125"/>
    <polyline points="590.25,534.75 582.0,537.875 579.875,539.125 578.625,540.5 578.0,542.5 578.375,544.125 579.375,546.0 580.5,547.375"/>
    <polyline points="581.125,548.0 584.25,551.125 588.75,554.625 598.125,561.125 621.25,575.5 629.0,580.0"/>
    <polyline points="633.375,582.625 692.375,618.25 798.75,683.75 822.75,698.25 846.0,711.875 865.875,722.375 878.875,727.125 881.625,723.375 872.125,709.25 851.0,685.0 788.0,616.25 755.125,578.75 725.5,542.875"/>
    <polyline points="701.0,510.125 681.875,481.25 668.125,456.25 658.875,434.75 653.5,416.625 651.375,401.5 651.625,389.125 653.75,379.25 657.125,371.75 661.125,366.5 665.375,363.625 669.25,362.875 672.625,364.125 675.25,367.25 676.75,372.125 677.125,378.25 676.5,385.625 674.75,393.75 672.125,402.375 668.75,411.125 664.75,420.0 660.375,428.625 655.625,436.875 650.625,444.75 640.375,458.75"/>
    <polyline points="635.25,464.875 625.25,475.625 615.875,484.25 607.25,491.125 599.25,496.625 592.0,501.0 582.5,505.875 576.875,508.375 556.25,515.5"/>
    <polyline points="554.75,515.875 542.5,520.0 538.625,522.25 537.5,523.625"/>
    <polyline points="537.375,524.0 537.0,524.875 537.25,526.875 538.5,529.25 540.0,531.25"/>
    <polyline points="540.125,531.5 540.75,532.25 540.625,532.75 535.25,530.625 514.625,519.75"/>
    <polyline points="510.125,517.375 469.25,496.0 440.125,482.0 419.5,472.875 399.875,465.625 391.25,463.25 383.875,461.75 377.75,461.25 373.125,461.875 370.0,463.5 368.5,466.125 368.25,469.375 369.375,473.25 371.375,477.625 374.375,482.125 377.875,486.75 381.875,491.125"/>
    <polyline points="386.125,495.5 390.5,499.5 399.5,506.5 408.25,512.0 416.375,516.125 427.375,520.0 436.75,521.75 444.75,522.125 451.625,521.5 457.25,520.375 462.125,518.875"/>
    <polyline points="463.5,518.375 469.5,515.5 474.375,511.875 477.375,508.125 478.25,506.25 479.0,502.875"/>
    <polyline points="479.0,502.125 479.0,499.125 478.375,494.875 476.0,482.25 475.5,475.625 475.625,473.75"/>
    <polyline points="475.625,471.625 477.0,461.875 478.625,455.75 481.25,448.5 485.25,439.875 491.25,429.375 499.75,416.5 505.375,409.0 519.75,391.75 529.0,381.75 539.875,370.875 552.5,359.125 566.875,346.625 583.375,333.625 601.625,320.5 621.5,307.875 642.5,296.75"/>
    <polyline points="663.75,288.0 684.25,282.625 702.875,281.625 718.5,285.875 730.0,295.125 737.25,309.25 740.125,327.125 739.25,347.625 735.375,369.25 729.25,391.0 721.875,411.875 713.75,431.25 705.375,448.875 697.25,464.5 689.5,478.125 682.25,490.0 675.5,500.125 663.75,515.875 658.5,522.0 649.5,531.125 641.875,537.5 635.375,541.625"/>
    <polyline points="632.375,543.125 627.25,545.375 622.75,546.875 606.5,550.25 604.25,551.625 603.625,552.875 603.75,553.875"/>
    <polyline points="603.875,554.375 605.5,557.0 607.875,559.375 614.125,564.5 628.875,574.5 649.75,587.25"/>
    <polyline points="654.25,589.75 681.125,605.375 694.0,612.5 721.0,626.5 727.125,629.25 737.125,632.75 740.5,633.125 742.5,632.375 742.875,630.25 741.375,626.75 738.25,621.875 733.375,615.625 727.0,608.25 710.625,591.0 691.75,572.375"/>
    <polyline points="682.0,563.25 663.125,546.0 645.75,531.125 637.875,524.75 623.625,514.0 611.25,505.75 605.75,502.5 595.75,497.25 583.125,492.125 575.875,490.125 569.5,488.75 563.75,487.875 553.875,487.25"/>
    <polyline points="551.625,487.25 535.625,487.375 527.625,487.0 524.25,486.5 520.25,485.5 517.625,484.5"/>
    <polyline points="516.875,484.0 514.5,482.625 511.25,479.5 509.625,477.125 508.0,473.25 507.125,468.25 507.375,461.875 508.0,458.125"/>
    <polyline points="508.5,456.0 512.125,446.125 515.125,440.125 519.125,433.125 524.5,425.25 531.5,416.25 535.75,411.375 545.75,400.75 551.625,395.0 565.375,383.0 573.125,376.875 581.625,370.75 590.5,364.875 599.875,359.375 609.5,354.5 619.25,350.375 628.875,347.25"/>
    <polyline points="638.0,345.375 646.5,345.125 654.125,346.375 660.5,349.25 665.5,353.75 669.125,359.75 671.25,367.125 672.0,375.5 671.375,384.625 669.625,394.375 666.875,404.125 663.375,414.0 659.25,423.5 654.625,432.625 649.875,441.125 644.875,449.125 634.75,463.25 624.875,474.875 615.625,484.25 607.0,491.625 599.125,497.5"/>
    <polyline points="595.5,499.875 588.625,504.0 574.5,510.875 565.625,514.25 547.0,520.5"/>
    <polyline points="546.25,520.875 544.125,521.75 541.75,523.25 540.875,524.125 539.875,526.0 540.125,528.5"/>
    <polyline points="540.25,528.75 543.25,533.75 542.5,533.875 541.625,533.5"/>
    <polyline points="541.0,533.25 527.875,526.625 477.875,500.0 448.125,485.0 425.875,474.625 414.625,469.875 403.75,465.625 393.5,462.125"/>
    <polyline points="384.375,459.625 376.625,458.25 370.375,458.125 365.875,459.125 363.125,461.25 362.0,464.5 362.375,468.375 364.0,473.0 366.625,477.875 370.125,482.875 378.5,492.75 383.25,497.375 392.625,505.375 401.875,511.75 410.5,516.5 418.375,519.875 425.5,522.0 434.75,523.375"/>
    <polyline points="437.5,523.625 442.625,523.5 447.25,523.0 451.25,522.25 456.5,520.75 462.125,518.375 465.625,516.375 468.375,514.5 472.25,510.5"/>
    <polyline points="472.75,509.875 474.125,507.125 475.125,502.75 474.75,496.875 473.0,488.5"/>
    <polyline points="472.75,487.25 471.875,481.5 471.5,476.25 471.875,467.625 473.5,459.25 477.0,448.5 481.125,439.375 483.875,434.125 491.375,421.875 502.375,406.75 509.5,397.875"/>
    <polyline points="518.0,388.125 528.125,377.25 540.125,365.25 554.125,352.375 570.25,338.5 588.625,324.125 609.125,309.875 631.25,296.25 654.625,284.625 677.875,276.0 699.875,271.75 719.0,273.0 734.125,280.25 744.5,293.25 749.75,311.25 750.375,332.75 747.25,356.375 741.25,380.375 733.625,403.75 725.0,425.5 716.25,445.375 707.5,462.875 699.375,478.25 691.75,491.5 678.375,512.125"/>
    <polyline points="672.625,520.0 667.375,526.625 658.375,536.5 650.75,543.0 644.375,547.25 638.875,549.875 631.875,551.875 622.625,552.75 613.0,553.0"/>
    <polyline points="624.625,570.25 639.625,579.875 662.25,593.25 698.0,612.75 713.375,619.875 717.75,621.5 721.375,622.5 724.25,622.875"/>
    <polyline points="726.125,622.375 726.875,621.125 726.5,618.75 724.75,615.5 717.625,606.125 712.25,600.25 699.25,586.875 684.125,572.375 660.625,551.625 638.75,534.25 619.75,521.375 603.875,512.375 590.5,506.625"/>
    <polyline points="586.5,505.25 572.75,501.75 561.5,500.375 548.25,500.125 531.5,501.125"/>
    <polyline points="530.375,501.25 519.25,501.5 514.625,501.0 511.125,500.0"/>
    <polyline points="510.625,499.875 507.125,498.25 503.875,495.75 501.25,493.0 499.125,490.125"/>
    <polyline points="498.75,489.375 497.125,486.375 495.75,482.625 494.875,479.375 494.125,472.5 494.375,467.375 495.375,461.125 497.625,453.375"/>
    <polyline points="498.75,450.5 503.5,440.125 508.375,431.75 511.5,427.125 519.25,416.5 524.0,410.625 535.75,397.375 542.875,390.0 560.125,374.25 570.25,365.875 581.375,357.5 593.375,349.125 606.25,341.25 619.5,334.125 633.125,328.25 646.5,323.875 659.125,321.75 670.625,322.0 680.375,324.875 688.125,330.375"/>
    <polyline points="693.5,338.5 696.625,348.75 697.625,360.625 696.5,373.75 693.75,387.375 689.625,401.25 684.625,414.625 679.0,427.5 673.0,439.5 666.75,450.5 654.375,469.375 648.5,477.375 642.875,484.375 637.375,490.5 627.375,500.625 618.5,508.125 614.375,511.25 610.625,513.875 603.625,518.125 594.75,522.625"/>
    <polyline points="592.25,523.75 575.375,529.875 570.0,532.125 566.875,534.125 565.75,535.375 565.25,536.75"/>
    <polyline points="565.125,537.25 565.5,539.125 567.875,542.875 572.875,547.5 577.25,550.875"/>
    <polyline points="577.875,551.375 580.125,553.125 512.125,512.0 473.0,489.125 448.125,474.875 419.75,459.125 388.75,442.625"/>
    <polyline points="356.625,426.5 325.375,412.625 297.75,402.75 276.125,398.25 262.0,400.125 255.625,408.0 256.0,420.625 261.25,436.25 269.5,453.5 279.0,470.75 288.75,487.25 325.625,546.75 330.625,554.125 339.125,565.25 343.125,569.125 346.875,572.25 350.75,574.5 354.625,575.875 358.625,576.625 362.75,576.75 366.875,576.375"/>
    <polyline points="371.25,575.5 375.625,574.125 384.5,570.625 398.0,563.75 418.75,551.25 445.0,534.875 459.375,526.625"/>
    <polyline points="461.375,525.625 480.625,515.125 485.75,511.625 487.625,509.75"/>
    <polyline points="488.125,509.375 489.625,507.125 490.5,504.375 490.5,501.25 489.375,496.5"/>
    <polyline points="489.25,495.875 486.5,486.375 485.25,478.75 485.125,472.25 486.125,463.75"/>
    <polyline points="486.625,461.25 488.25,455.625 490.625,449.125 496.5,437.125 502.625,427.125 511.0,415.25 522.625,401.125 529.75,393.125 538.125,384.375 547.75,375.125 558.75,365.25 571.0,355.0 584.75,344.5 599.75,334.125 615.75,324.375 632.625,315.75 649.5,308.875 665.875,304.375 681.125,303.125"/>
    <polyline points="694.25,305.375 704.625,311.25 712.0,320.75 716.25,333.375 717.375,348.375 715.875,364.875 712.25,382.125 707.125,399.375 700.875,415.875 694.0,431.375 686.875,445.75 679.75,458.625 666.125,480.125 659.75,488.875 653.75,496.5 643.0,508.625 638.125,513.375 633.625,517.5 625.5,523.75 618.5,528.375 612.5,531.625"/>
    <polyline points="609.75,532.875 602.75,535.75 592.75,539.0 587.625,541.125 585.125,543.25 584.625,544.25 584.875,546.5"/>
    <polyline points="585.125,547.125 586.25,549.125 589.125,552.125 597.75,559.0 610.0,567.125 625.5,576.625"/>
    <polyline points="629.375,579.125 738.0,644.125 784.5,671.0 799.375,678.875 811.875,684.875 820.875,687.625 824.625,686.125 822.375,679.625 813.625,667.625 799.125,650.75 759.125,606.875"/>
    <polyline points="737.25,583.0 697.0,537.75 680.125,517.75 665.625,500.0 653.75,484.375 643.875,471.0 636.125,459.625 630.0,450.0 621.625,435.25 616.875,425.375 613.875,417.625 612.875,415.875 612.5,415.75 611.625,416.875 607.375,425.0"/>
    <polyline points="606.125,427.125 603.125,431.75 597.875,438.75 589.75,447.5 585.375,451.5 576.625,458.25 572.375,461.0 562.25,466.5 556.625,468.75"/>
    <polyline points="554.875,469.375 546.75,471.5 541.125,472.125 538.625,472.125 535.125,471.75 531.125,470.625 528.625,469.25 526.0,466.625"/>
    <polyline points="525.5,465.75 524.25,463.0 523.75,460.875 523.5,458.375 523.625,455.5 525.125,448.75 527.625,442.5 530.125,437.75 535.5,429.5 540.25,423.25 546.125,416.375"/>
    <polyline points="549.5,412.75 557.25,405.25 566.375,397.375 576.75,389.625 588.25,382.5 600.25,376.5 606.25,374.25 612.25,372.625 617.875,371.5 623.125,371.25 628.0,371.875 632.25,373.25 635.875,375.375 638.75,378.5 640.875,382.25 642.125,386.625 642.75,391.75 642.5,397.125 641.625,403.0 640.25,409.0 638.25,415.125"/>
    <polyline points="635.75,421.25 629.75,433.125 622.75,444.0 615.375,453.75 607.875,462.25 604.125,466.0 593.25,475.5 586.5,480.5 580.125,484.625 568.625,490.875 563.5,493.25 556.5,496.0"/>
    <polyline points="554.375,496.75 546.75,499.25 536.125,501.875 529.125,503.125 522.125,503.875"/>
    <polyline points="521.375,503.875 518.0,504.0 514.125,503.625 510.375,502.75 508.375,501.875"/>
    <polyline points="508.0,501.625 504.875,499.625 501.75,496.75 498.375,492.125"/>
    <polyline points="498.0,491.5 496.0,487.875 494.625,484.25 493.125,477.5 492.75,473.125 493.0,467.875 494.5,459.125"/>
    <polyline points="495.25,456.625 498.625,447.625 504.375,436.375 507.0,432.0 513.75,422.0 522.75,410.375 528.25,403.875 542.0,389.375 550.25,381.5 559.625,373.125 570.0,364.5 581.5,355.875 593.875,347.25 607.125,339.0 621.0,331.625 635.0,325.5 648.875,321.125 661.875,319.0 673.625,319.375"/>
    <polyline points="683.625,322.625 691.5,328.625 696.875,337.25 699.75,348.0 700.375,360.625 699.0,374.25 696.0,388.5 691.625,402.625 686.375,416.5 680.375,429.625 674.25,441.75 667.875,452.875 661.5,463.0 655.375,472.0 649.375,480.0 638.25,493.0 633.125,498.375 623.75,507.0 619.375,510.5 611.625,516.0 601.75,521.75"/>
    <polyline points="598.875,523.125 591.25,526.5 573.0,533.25 570.75,534.5 569.25,535.75 568.25,537.5"/>
    <polyline points="568.125,538.0 568.25,540.0 569.375,542.125 571.25,544.375 575.375,548.25 581.75,553.0"/>
    <polyline points="582.75,553.625 589.625,558.25 566.0,543.25 514.125,511.375 465.375,482.375"/>
    <polyline points="433.75,464.0 397.625,443.875 358.5,423.125 319.0,403.875 282.875,389.125 253.875,381.375 235.0,382.125 226.625,391.25 227.25,407.25 234.25,427.375 244.75,449.25 277.25,510.5 285.75,527.125 307.625,574.125 311.625,581.625 315.625,587.625 319.75,592.25 324.125,595.5 329.0,597.5 334.25,598.25 339.875,598.0"/>
    <polyline points="345.875,596.75 352.25,594.625 358.75,591.875 372.25,584.75 391.875,572.25 425.125,549.25 442.0,538.125 455.25,530.5 465.875,525.375"/>
    <polyline points="468.25,524.375 476.375,521.375 486.0,518.75 491.125,517.75 501.25,516.75"/>
    <polyline points="502.0,516.625 507.375,516.75 511.125,517.25 514.25,518.125"/>
    <polyline points="514.625,518.25 519.375,520.375 522.875,522.625"/>
    <polyline points="523.25,522.875 528.5,526.625 529.625,528.0 528.75,527.875 522.125,524.875 484.75,505.875"/>
    <polyline points="479.25,503.125 453.75,491.125 439.75,485.125 426.125,479.875 419.75,477.75 408.625,474.875 404.0,474.375 400.375,474.25 397.5,474.875 395.625,475.875 394.5,477.5 394.25,479.5 394.75,481.875 397.75,487.125 402.75,492.875 408.875,498.375 412.25,500.875"/>
    <polyline points="415.625,503.25 422.625,507.375 432.625,512.125 442.0,515.125 447.75,516.375 455.375,517.375 464.25,517.625 471.5,517.125 477.375,516.125"/>
    <polyline points="478.625,515.875 485.125,514.125 489.0,512.625 492.75,510.5 495.0,508.375"/>
    <polyline points="495.25,508.0 496.125,505.75 496.125,503.5 495.25,500.125 494.375,498.125"/>
    <polyline points="494.25,497.625 492.375,493.25 489.75,485.5 488.625,479.5 488.25,473.5"/>
    <polyline points="488.25,471.75 488.5,468.0 490.375,458.625 492.25,452.875 495.0,446.125 499.0,438.25 504.625,428.875 512.375,417.75 517.25,411.5 529.5,397.25 545.75,380.625 555.625,371.625 566.75,362.125 579.125,352.5 592.625,342.75"/>
    <polyline points="607.125,333.5 622.5,325.0 638.125,317.875 653.75,312.625 668.375,310.0 681.625,310.25 692.75,313.875 701.25,320.75 707.0,330.75 709.875,343.25 710.125,357.625 708.125,373.125 704.25,389.125 699.125,405.0 693.125,420.125 686.5,434.375 679.75,447.375 672.875,459.25 666.25,469.75 659.875,479.0 648.0,494.25 642.5,500.375 637.375,505.625 628.125,514.0"/>
    <polyline points="624.0,517.375 616.5,522.625 607.0,527.875 597.125,532.125 583.375,537.0 580.125,538.625 578.625,540.0"/>
    <polyline points="578.25,540.5 577.75,541.875 577.75,543.0 578.375,544.75 579.625,546.625 585.0,551.875 594.375,558.625"/>
    <polyline points="596.0,559.75 614.25,571.25 690.25,617.0 751.625,654.875"/>
    <polyline points="772.5,667.875 820.125,697.0 844.375,711.375 865.875,723.125 880.875,729.625 885.875,727.625 878.375,715.125 858.5,691.875 795.125,622.75 761.0,584.125 730.25,546.875 704.5,512.75 684.625,482.625 670.125,456.5 660.625,434.125 655.25,415.125 653.125,399.25 653.75,386.25 656.25,375.875 660.125,368.125 664.625,362.75 669.25,359.75 673.5,359.125 677.25,360.75"/>
    <polyline points="679.875,364.25 681.375,369.625 681.75,376.5 680.875,384.5 679.0,393.25 676.125,402.5 672.5,412.0 668.125,421.375 658.375,439.125 653.125,447.25 647.75,454.75 637.125,468.0 632.0,473.625 622.125,483.375 613.0,491.125 604.625,497.125 593.5,504.0 586.875,507.25"/>
    <polyline points="583.875,508.625 571.125,513.75 551.875,519.875 545.375,522.5"/>
    <polyline points="544.75,522.875 543.75,523.375 542.125,524.875 541.25,526.5 541.25,528.375 542.25,530.625"/>
    <polyline points="542.375,530.875 544.25,533.5 544.375,534.5 541.125,533.375 537.125,531.375"/>
    <polyline points="535.25,530.375 481.875,501.75 451.875,486.5 428.875,475.625 417.125,470.375 405.5,465.75 394.625,461.75 384.625,458.75 376.0,456.875 369.0,456.25 363.75,457.0 360.375,459.0 358.75,462.0"/>
    <polyline points="358.875,466.0 360.25,470.75 362.75,475.75 366.25,481.125 370.375,486.375 374.875,491.5 384.5,500.875 394.125,508.625 398.875,511.75 407.625,516.875 411.75,518.75 419.375,521.625 423.0,522.625 429.375,523.875 435.25,524.375 440.375,524.375 447.125,523.5"/>
    <polyline points="449.125,523.0 456.0,520.875 460.125,519.0 463.625,517.0 466.375,515.0 469.25,512.25 471.25,509.5 472.375,506.625"/>
    <polyline points="472.625,505.875 473.125,502.0 473.0,499.5 470.25,485.375 469.375,479.0"/>
    <polyline points="469.375,477.25 469.5,468.625 470.875,460.375 474.125,449.75 478.0,440.75 480.625,435.5 487.875,423.375 498.625,408.25 505.625,399.25 524.125,378.25 536.125,366.125 550.25,352.75 566.625,338.375 585.5,323.375 606.625,308.25"/>
    <polyline points="629.75,293.75 654.125,281.0 678.75,271.375 702.125,266.375 722.625,267.0 738.875,274.25 750.0,287.75 755.625,306.625 756.25,329.375 752.875,354.25 746.625,379.625 738.5,404.125 729.5,427.0 720.375,447.5 711.5,465.75 695.5,495.125 688.5,506.5 676.5,524.125 666.75,536.125 662.625,540.5 658.75,544.0 652.0,549.0"/>
    <polyline points="649.0,550.75 643.625,553.125 636.5,554.625 632.5,554.875 627.0,554.75 615.25,553.75 612.75,554.0 611.125,554.5"/>
    <polyline points="610.75,554.625 610.0,555.625 610.125,557.0 611.0,558.625 613.625,561.5 616.75,564.25 621.0,567.375 633.375,575.625"/>
    <polyline points="636.0,577.375 656.125,589.375 678.875,602.25 699.5,613.0 713.5,619.125 720.375,620.875 722.5,620.75 723.75,619.875 723.875,618.125 722.75,615.375 720.5,611.875"/>
    <polyline points="717.125,607.375 707.25,596.25 687.0,576.375 664.375,556.25 642.75,538.875 629.75,529.5 623.625,525.5 618.0,522.0 607.375,516.125 598.125,511.75 589.75,508.5 585.875,507.125 575.5,504.5"/>
    <polyline points="572.375,504.0 561.375,502.625 554.5,502.375 545.0,502.625 528.125,504.0"/>
    <polyline points="527.125,504.125 518.125,504.5 514.75,504.25 511.5,503.5"/>
    <polyline points="511.125,503.375 509.5,502.875 505.75,500.75 501.625,497.0"/>
    <polyline points="501.25,496.5 499.0,493.625 495.25,486.625 493.375,480.5 492.875,476.625"/>
    <polyline points="492.75,475.25 492.625,470.5 492.875,466.75 494.125,460.125 495.625,454.875 497.875,448.875 501.125,441.875 508.625,429.0 520.625,412.75 532.125,399.5 547.0,384.375 556.0,376.125"/>
    <polyline points="566.0,367.625 577.125,358.875 589.25,350.125 602.25,341.625 616.0,333.875 630.125,327.25 644.125,322.125 657.625,319.125 670.0,318.5 680.625,320.75 689.375,325.75 695.625,333.5 699.5,343.625 700.875,355.75 700.125,369.125 697.625,383.375 693.625,397.625 688.625,411.75 682.875,425.125 676.75,437.75 670.375,449.25 664.0,459.75 657.75,469.125 645.875,484.875 640.375,491.25"/>
    <polyline points="635.125,496.875 630.125,501.75 621.125,509.5 617.0,512.75 606.25,519.75 600.125,523.0 594.75,525.375 588.0,528.125 578.125,531.5 572.875,533.75"/>
    <polyline points="572.125,534.125 569.375,536.25 568.5,538.0 568.5,539.5 570.125,542.75 574.25,547.0"/>
    <polyline points="575.0,547.75 583.25,554.0 591.375,559.25 585.625,555.5"/>
    <polyline points="582.375,553.375 526.375,518.5 481.75,491.625 452.0,474.125 417.125,454.125 378.0,432.625 336.875,411.375 297.0,393.25 262.625,381.0 237.75,377.375 223.875,382.875 220.625,396.5 225.375,415.75 235.0,438.125 246.75,461.125 269.125,503.625 278.25,521.875 285.75,537.875 291.875,551.875"/>
    <polyline points="296.875,564.0 305.25,582.625 309.25,589.625 313.375,594.875 317.875,598.75 322.75,601.25 328.125,602.375 334.125,602.25 340.375,601.0 347.125,598.875 354.125,595.875 361.375,592.25 368.5,588.125 375.625,583.75 389.5,574.5 429.25,546.25 438.0,540.5"/>
    <polyline points="441.875,538.0 452.375,531.75 461.25,527.25 468.625,524.0 475.0,521.75 480.5,520.25 489.375,518.375 494.125,517.875"/>
    <polyline points="495.125,517.75 499.0,517.5 504.625,517.625 508.375,518.0 512.625,519.0"/>
    <polyline points="513.125,519.125 518.375,521.0 523.25,523.75"/>
    <polyline points="523.625,524.0 527.0,526.25 528.0,527.375 526.75,527.0"/>
    <polyline points="526.375,526.875 517.875,522.875 480.875,504.25 463.5,496.0 444.0,487.375"/>
    <polyline points="437.5,484.75 431.0,482.25 419.125,478.375 409.25,476.25 405.375,475.875 402.25,476.125 400.0,476.875 398.5,478.125 397.75,479.75 397.875,481.625 398.625,484.0 400.0,486.375 404.125,491.625 409.625,496.875 412.75,499.375 422.625,505.875 429.25,509.25 435.625,512.0"/>
    <polyline points="438.75,513.125 450.125,516.0 457.625,517.0 462.125,517.25 468.125,517.25 473.25,516.875 480.375,515.875 485.875,514.625"/>
    <polyline points="486.875,514.25 491.5,512.75 494.75,511.25 496.625,510.0 498.25,507.875"/>
    <polyline points="498.375,507.625 498.75,506.5 498.625,504.125 496.625,499.0"/>
    <polyline points="496.375,498.5 494.75,495.375 491.75,488.0 490.875,485.125 489.5,477.875"/>
    <polyline points="489.375,476.375 489.375,469.75 489.875,465.625 491.375,458.5 493.25,452.75 496.0,446.125 500.0,438.25 505.5,429.125 513.125,418.125 517.875,412.0 529.875,398.0 545.75,381.875 555.375,373.125"/>
    <polyline points="566.125,363.875 578.125,354.375 591.25,344.875 605.375,335.875 620.25,327.5 635.625,320.375 650.75,315.125 665.125,312.25 678.25,312.25 689.375,315.375 698.125,321.625 704.0,330.875 707.25,342.75 707.875,356.5 706.375,371.5 702.875,387.0 698.0,402.5 692.25,417.5 685.875,431.5 679.25,444.5 672.625,456.375 666.0,466.875 659.5,476.25 647.625,491.75 642.125,498.0"/>
    <polyline points="637.0,503.375 627.625,512.0 623.375,515.375 615.75,520.75 609.125,524.75 596.0,530.75 581.75,535.75 578.375,537.5"/>
    <polyline points="577.625,537.875 576.625,538.75 575.75,540.125 575.5,541.625 576.125,543.875 577.875,546.375 579.875,548.5 585.75,553.25"/>
    <polyline points="587.0,554.25 599.625,562.75 611.0,569.75 664.0,601.375"/>
    <polyline points="672.375,606.5 721.75,636.875 845.125,714.625 876.5,733.875 904.375,750.0 922.875,758.375 925.875,753.875 910.125,733.5 877.5,698.0 834.625,652.0 790.0,601.875 749.75,552.75 717.375,507.75 694.125,468.125 679.25,433.875 671.875,404.625 670.75,380.0 674.25,359.5 681.375,343.125"/>
    <polyline points="690.625,331.0 700.75,323.375 710.5,320.125 718.875,321.5 725.25,327.25 728.875,336.75 730.0,349.375 728.5,364.25 724.875,380.375 719.75,396.875 713.375,413.125 706.25,428.625 698.75,443.0 691.25,456.125 683.875,467.75 676.75,478.125 670.0,487.125 663.5,495.0 651.875,507.375 646.5,512.25 636.875,519.875 628.5,525.25 624.75,527.25"/>
    <polyline points="621.125,529.0 614.625,531.625 606.5,534.25 591.25,537.625 585.5,539.25 583.25,540.375 581.5,542.0"/>
    <polyline points="581.25,542.5 581.0,544.0 581.5,545.625 582.75,547.625 585.375,550.5 590.5,554.875 602.0,562.75"/>
    <polyline points="604.125,564.25 620.875,574.625 781.375,671.5 800.625,682.75 819.125,693.125"/>
    <polyline points="835.0,701.125 846.125,705.125 850.375,703.375 846.125,694.5 833.125,678.125 813.0,655.5 761.25,598.875 735.125,569.375 711.5,541.375 691.125,515.875 674.375,493.25 661.125,473.5 651.125,456.5 643.75,442.125 638.75,430.0 635.625,420.0 634.0,411.75 633.5,405.125 633.75,400.0 634.625,396.25 635.75,393.875 637.0,392.5 638.25,392.375 639.125,393.125 639.875,394.75"/>
    <polyline points="640.125,397.125 640.0,400.25 639.375,403.875 638.25,408.0 634.875,417.0 630.125,426.625 627.25,431.375 624.25,436.125 617.625,445.0 614.25,449.25 607.25,456.875 603.75,460.375 593.375,469.375 586.875,474.25 580.625,478.375 571.875,483.375"/>
    <polyline points="569.125,484.75 557.0,490.0 546.875,493.375 538.5,495.375 530.375,496.75 525.875,497.125"/>
    <polyline points="524.75,497.125 519.25,497.0 514.625,496.25 509.875,494.5 506.5,492.25"/>
    <polyline points="505.875,491.875 502.75,488.625 501.375,486.625 499.25,482.5 497.5,475.875 497.125,471.625 497.25,468.375"/>
    <polyline points="497.375,466.625 497.875,462.625 498.875,458.125 500.5,453.0 502.875,447.0 506.25,440.125 510.875,432.125 517.25,422.875 521.125,417.625 530.875,406.0 543.375,392.75 559.375,378.0 568.75,370.25 579.0,362.5 590.0,354.625 601.875,347.25"/>
    <polyline points="614.125,340.5 626.75,334.75 639.25,330.375 651.25,327.75 662.25,327.375 671.875,329.125 679.75,333.375 685.625,340.0 689.5,348.625 691.25,359.0 691.125,370.75 689.25,383.125 686.125,395.875 681.75,408.625 676.75,420.875 671.25,432.5 665.5,443.375 659.5,453.25 653.625,462.25 647.75,470.375 636.75,484.0 631.5,489.625 621.875,498.875 617.375,502.625"/>
    <polyline points="613.25,505.875 605.5,511.25 598.75,515.25 592.75,518.375 582.75,522.625 566.875,528.25 562.625,530.25"/>
    <polyline points="562.0,530.625 559.5,533.0 559.0,534.25 559.0,535.625 560.375,538.75 562.75,541.625"/>
    <polyline points="563.25,542.0 567.0,546.0 565.875,545.625 555.0,539.5 534.0,527.125"/>
    <polyline points="525.75,522.375 515.875,516.5 474.25,492.875 435.625,471.75 413.625,460.25 390.625,448.875 367.625,438.375 346.0,429.75 327.0,423.875 312.0,421.5 301.75,422.875 296.25,427.75 295.125,435.75 297.5,445.875 302.5,457.25 309.125,469.0 316.625,480.75 324.375,491.75 339.0,510.75 351.75,525.5 357.375,531.25"/>
    <polyline points="362.5,536.0 367.125,540.0 371.5,543.25 379.25,547.75 386.125,550.125 389.375,550.75 395.375,551.0 401.125,550.375 403.875,549.75 414.25,546.0 423.5,541.375 433.625,535.375"/>
    <polyline points="435.375,534.125 444.625,527.625 450.375,522.75 453.125,520.0 456.5,515.75 458.75,510.875"/>
    <polyline points="458.875,510.125 459.25,507.625 459.125,505.125 457.875,499.625 451.625,483.75"/>
    <polyline points="451.125,482.125 450.125,478.5 449.375,474.25 448.875,466.75 449.25,460.5 450.75,453.0 452.0,448.5 456.0,438.0 459.125,431.625 463.0,424.375 468.0,416.0 474.375,406.5 482.5,395.5 492.625,382.875 505.375,368.25 521.125,351.375 540.625,332.375 564.25,311.0 592.375,288.0"/>
    <polyline points="625.125,264.25 661.75,241.75 700.25,223.125 737.75,212.0 770.5,211.375 795.125,223.375 809.5,247.375 813.875,280.625 810.0,319.25 800.75,359.25 788.75,397.5 776.25,432.125 764.25,462.5 737.125,527.375 725.875,553.125 721.5,562.125 717.75,568.875 714.25,574.0 711.0,577.5 707.75,579.625 704.375,580.625 700.75,580.75 696.875,579.875"/>
    <polyline points="692.75,578.375 683.75,573.875 648.125,551.5 633.5,542.875 624.375,538.125 615.875,534.0 604.375,529.375 594.5,526.25 585.75,524.25"/>
    <polyline points="583.125,523.75 574.0,522.625 564.875,522.5 557.0,523.375 553.125,524.25 549.25,525.875"/>
    <polyline points="548.875,526.25 547.25,527.75 546.625,529.125 546.625,530.75 547.125,532.25 548.625,534.625"/>
    <polyline points="548.875,535.0 549.75,536.125 550.125,537.25 549.25,537.125 546.125,535.75 524.625,524.125"/>
    <polyline points="519.5,521.25 489.875,505.0 456.625,487.375 429.875,474.125 401.625,461.5 388.125,456.25 375.75,452.0 365.0,449.375 356.125,448.375 349.625,449.125 345.5,451.5 343.75,455.375 344.0,460.375 345.875,466.25 349.125,472.75 353.5,479.375 358.375,485.875 369.25,498.0"/>
    <polyline points="374.75,503.25 385.375,512.25 395.125,518.875 399.625,521.375 407.875,525.25 415.125,527.5 418.5,528.25 427.375,529.0 434.875,528.375 443.0,526.25 450.75,522.625"/>
    <polyline points="452.0,521.875 457.375,518.125 459.75,515.75 462.0,512.75 463.25,510.375 464.0,508.0 464.25,506.375 464.125,502.125"/>
    <polyline points="464.0,501.25 463.25,497.375 459.25,483.625 458.0,476.375 457.75,471.875 457.875,466.75 458.75,460.75"/>
    <polyline points="459.375,457.25 461.75,449.25 463.5,444.625 468.625,433.5 472.25,426.875 476.875,419.375 482.5,411.0 489.625,401.375 498.25,390.5 508.875,378.0 521.875,364.0 537.625,348.375 556.5,330.875 578.875,312.125 604.625,292.5 633.625,273.25 664.875,255.875 696.875,242.625 727.125,235.75 753.125,237.625 772.5,248.875 784.125,269.125 788.125,296.5 785.625,328.0"/>
    <polyline points="778.5,361.0 768.75,393.125 757.875,422.875 747.125,449.5 736.875,472.625 727.75,492.25 719.625,508.75 706.625,533.625 701.375,542.75 696.75,550.0 692.75,555.625 689.0,560.0 685.625,563.25 682.375,565.625 679.375,567.25 676.375,568.125 673.375,568.5 670.25,568.375 664.25,567.125 654.875,563.625 648.625,560.625"/>
    <polyline points="645.5,559.125 624.625,549.375 614.25,545.375 605.5,542.75 601.625,541.875 593.75,540.875 590.25,541.0"/>
    <polyline points="589.25,541.0 587.375,541.375 584.875,542.375 583.875,543.5 583.625,545.375 584.25,547.125 585.625,549.125 590.625,553.875"/>
    <polyline points="591.875,554.875 599.125,560.25 612.375,568.875 689.25,615.125"/>
    <polyline points="700.125,621.625 756.0,655.125 788.875,674.0 804.25,682.375 817.5,688.625 826.625,691.5 830.375,689.75 827.375,682.5 817.5,669.375 801.625,651.125 736.125,579.375 714.5,555.0 695.0,532.375 678.125,511.75 664.0,493.625 652.375,477.875 643.125,464.375 635.875,452.875 626.25,435.125"/>
    <polyline points="623.375,428.5 621.25,423.125 620.0,418.875 618.125,410.625 616.25,416.625 615.25,418.875 612.875,423.875 609.625,429.375 605.875,435.0 601.5,440.625 596.875,445.875 592.0,450.75"/>
    <polyline points="589.5,453.0 584.625,457.25 577.25,462.625 570.25,467.0 563.625,470.5 559.375,472.375 551.75,475.125 544.875,476.875 538.875,477.625"/>
    <polyline points="537.5,477.75 534.875,477.875 530.25,477.375 527.125,476.625 523.5,475.0 520.0,471.875 518.5,469.375 517.125,465.125"/>
    <polyline points="517.0,463.875 516.875,459.625 517.375,456.375 518.125,452.625 519.5,448.375 522.875,441.125 528.0,432.25 535.625,421.75 546.375,409.625 555.625,400.625 560.875,395.875 566.625,391.25"/>
    <polyline points="572.75,386.5 579.25,381.75 593.375,373.125 600.625,369.375 608.125,366.125 615.5,363.5 622.625,361.875 629.25,361.0 635.5,361.25 641.0,362.625 645.625,365.125 649.25,368.75 651.875,373.375 653.625,378.875 654.25,385.0 654.0,391.875 652.875,399.125 650.875,406.5 648.375,414.0 641.875,428.625 634.0,442.125 629.875,448.375 625.5,454.125"/>
    <polyline points="621.25,459.375 612.75,468.75 604.625,476.625 596.875,483.0 586.25,490.375 576.875,495.75 568.625,499.75 559.25,503.5 548.125,507.125"/>
    <polyline points="546.625,507.5 529.25,512.125 525.125,513.5"/>
    <polyline points="524.75,513.625 522.875,514.375 520.875,516.375 520.875,517.25 521.375,518.5 524.0,521.5"/>
    <polyline points="524.25,521.75 529.875,526.625 531.5,528.25 531.75,528.875 530.5,528.625 525.75,526.5 514.125,520.5"/>
    <polyline points="511.125,519.0 479.25,502.75 451.75,489.75 429.125,480.125 415.0,475.25 408.75,473.5 403.25,472.375 398.625,471.875 394.875,472.125 392.125,472.875 390.375,474.25 389.5,476.25 389.625,478.625 390.5,481.25"/>
    <polyline points="392.125,484.25 397.0,490.5 403.25,496.5 406.75,499.375 410.25,502.0 417.625,506.75 424.75,510.5 435.0,514.5 444.125,516.875 452.125,518.0 456.875,518.25 465.125,518.0"/>
    <polyline points="467.0,517.75 473.375,516.75 482.5,514.0 487.75,511.375 490.5,509.125"/>
    <polyline points="490.875,508.75 492.125,506.875 492.875,504.0 492.625,501.25 491.625,497.375"/>
    <polyline points="491.375,496.75 488.25,487.25 487.25,482.75 486.5,475.875 486.75,468.625"/>
    <polyline points="487.0,466.5 488.5,459.25 491.625,450.125 494.875,442.875 499.625,434.125 506.25,423.75 515.5,411.5 527.875,396.875 535.625,388.625 544.5,379.875 554.625,370.5 566.125,360.75 578.875,350.625 592.875,340.5 608.0,330.75 624.0,321.875 640.375,314.375"/>
    <polyline points="656.5,309.0 671.875,306.25 685.5,306.75 697.0,310.75 705.625,318.25 711.25,329.0 713.875,342.375 713.75,357.625 711.375,373.875 707.125,390.625 701.625,407.0 695.25,422.625 688.375,437.25 681.375,450.5 674.5,462.5 667.75,473.125 661.25,482.375 649.375,497.625 638.875,508.875 634.125,513.25 625.625,520.25 618.375,525.25"/>
  </g>
</svg>
