<?xml version="1.0" encoding="utf-8" ?>
<svg xmlns="http://www.w3.org/2000/svg" xmlns:cc="http://creativecommons.org/ns" xmlns:dc="http://purl.org/dc/elements/1.1/" xmlns:ev="http://www.w3.org/2001/xml-events" xmlns:inkscape="http://www.inkscape.org/namespaces/inkscape" xmlns:rdf="http://www.w3.org/1999/02/22-rdf-syntax-ns" xmlns:sodipodi="http://sodipodi.sourceforge.net/DTD/sodipodi-0.dtd" xmlns:xlink="http://www.w3.org/1999/xlink" baseProfile="tiny" height="27.09333333cm" version="1.2" viewBox="0 0 1024.0 1024.0" width="27.09333333cm">
  <metadata>
    <rdf:RDF>
      <cc:Work>
        <dc:format>image/svg+xml</dc:format>
        <dc:source>vpype read './original_svgs/Strange Attractors #261.svg' linemerge linesimplify write './Strange Attractors #261.svg'
</dc:source>
        <dc:date>2024-08-05T01:35:42.917299</dc:date>
      </cc:Work>
    </rdf:RDF>
  </metadata>
  <defs/>
  <g fill="none" id="layer1" inkscape:groupmode="layer" inkscape:label="1" stroke="black" stroke-width="0.7mm" style="display:inline">
    <polyline points="458.625,739.0 442.75,708.875 431.375,684.75 423.375,665.5 417.875,650.0 414.25,637.5 412.0,627.25 410.875,618.75 410.375,611.625 410.5,605.625 411.125,600.375 412.0,595.75 413.125,591.75 414.375,588.125 418.875,578.75 423.625,571.125 432.375,558.75"/>
    <polyline points="433.625,557.0 439.625,547.625 442.125,542.5 443.375,539.125 444.0,536.125 444.0,533.375 443.5,531.0 442.375,528.75"/>
    <polyline points="441.875,528.0 440.125,526.0 437.875,524.125 433.875,521.625 427.625,518.625 410.5,512.25"/>
    <polyline points="408.5,511.5 399.5,508.25 389.5,504.125 384.125,501.625 378.625,498.625 370.0,492.875 367.125,490.5 361.375,484.75 358.625,481.25 356.125,477.25 353.625,472.625 351.5,467.25 349.75,460.875 348.5,453.375 348.0,444.5"/>
    <polyline points="348.5,433.875 350.25,421.125 353.75,405.75 359.5,387.375 368.5,365.375 381.625,339.25 400.0,308.875 425.0,274.875 457.625,239.0 497.75,204.75 544.0,177.5 592.75,163.75 638.625,168.25 676.625,192.0 703.875,231.125 720.5,279.0 728.625,329.0 731.0,376.5 730.0,418.75 727.375,454.875 724.0,485.125 720.25,509.75 716.375,529.625 712.25,545.375 707.75,557.75 702.75,566.875"/>
    <polyline points="697.0,573.375 690.5,577.5 683.25,579.375 675.375,579.5 666.875,577.875 657.875,574.875 648.75,570.625 639.5,565.625 630.5,560.0 621.75,554.0 598.25,535.875 565.5,508.625 558.0,503.125 551.625,499.125 543.625,495.375"/>
    <polyline points="541.375,494.625 535.125,493.125 528.25,492.875 523.75,493.25 506.0,496.625"/>
    <polyline points="505.0,496.875 498.875,497.5 491.875,497.5 486.75,497.0 479.25,495.375"/>
    <polyline points="478.0,495.0 473.375,493.5 467.125,490.875 463.125,488.75 459.125,486.125 455.0,483.0 450.875,479.0 448.125,475.875 445.5,472.25"/>
    <polyline points="444.375,470.125 443.125,467.875 441.125,462.875 438.875,453.5 438.375,445.875 438.875,436.75 441.0,426.0 442.625,419.875 445.0,413.375 447.875,406.375 451.625,398.875 456.125,391.125 461.5,382.875 467.875,374.625 475.125,366.25 483.5,358.125 492.625,350.5 502.75,343.625 513.375,338.125 524.375,334.125"/>
    <polyline points="535.5,332.125 546.375,332.25 556.625,334.75 566.0,339.375 574.125,346.125 581.0,354.625 586.5,364.5 590.75,375.375 593.625,386.75 595.5,398.375 596.25,409.625 596.375,420.625 595.75,430.875 594.75,440.5 593.375,449.375 591.75,457.375 589.875,464.625 586.0,476.875 582.125,486.5 580.25,490.375 576.625,497.0 573.5,502.0"/>
    <polyline points="572.0,504.125 568.375,509.0 564.0,514.0 561.875,516.875 561.5,518.125 561.75,519.125 563.875,520.625"/>
    <polyline points="564.375,520.875 567.125,521.75 573.875,523.0 587.625,524.25 594.25,524.375"/>
    <polyline points="596.0,524.375 605.25,524.0 610.875,523.25 616.375,521.875 621.125,519.5 623.625,517.125 624.5,515.625 625.125,513.875 625.375,511.875 625.25,509.5 623.25,503.625 621.125,500.0 618.125,495.875 614.0,491.125"/>
    <polyline points="608.75,485.875 601.875,479.875 593.5,473.5 583.25,466.5 571.125,459.25 557.0,452.0 541.125,445.125 523.875,439.125 505.5,434.5 487.0,431.875 469.0,431.5 452.5,433.75 437.875,438.625 425.75,445.625 416.125,454.375 409.125,464.25 404.375,474.75 401.375,485.125 400.125,495.25 399.875,504.625 400.5,513.125 401.75,520.625 403.375,527.25 405.25,532.875 407.375,537.625 409.5,541.5"/>
    <polyline points="411.625,544.75 415.875,549.25 420.0,551.75 423.75,552.75 427.25,552.625 430.375,551.75 434.5,549.625 437.75,546.875 441.125,542.875 443.625,538.125"/>
    <polyline points="443.875,537.125 444.375,534.5 444.25,532.125 443.5,529.875 441.75,527.0 439.0,524.5 436.375,522.625 430.75,519.625"/>
    <polyline points="429.375,519.0 418.625,514.625 406.75,510.375 395.125,505.75 387.375,502.25 376.375,496.0"/>
    <polyline points="373.5,494.0 370.625,491.75 365.0,486.5 359.625,479.625 357.25,475.375 354.875,470.5 353.0,464.875 351.5,458.125 350.5,450.25 350.25,440.875 351.125,429.625 353.5,416.25 357.625,400.125 364.375,380.875 374.5,357.875 388.875,331.0 408.875,300.0 435.625,266.0 469.75,231.125 511.0,199.25 557.25,176.0 604.5,167.25 647.625,177.0 682.0,204.625"/>
    <polyline points="705.875,245.5 719.875,293.25 726.25,341.875 727.75,387.125 726.25,427.125 723.5,461.125 720.0,489.5 716.375,512.625 712.5,531.25 708.375,546.0 704.0,557.375 699.0,566.0 693.375,572.0 687.125,575.875 680.25,577.625 672.625,577.625 664.625,576.125 656.125,573.375 647.5,569.5 638.875,564.75 630.25,559.5 614.0,548.25 593.0,531.75"/>
    <polyline points="587.0,526.75 576.5,518.125 563.75,508.375 556.875,503.75 548.5,499.125 541.5,496.75 535.75,495.625 530.875,495.5 522.5,496.5"/>
    <polyline points="521.25,496.75 508.75,499.5 501.625,500.5 497.25,500.625"/>
    <polyline points="496.375,500.625 492.0,500.5 483.5,499.25 477.25,497.625 471.625,495.625"/>
    <polyline points="470.375,495.125 465.375,492.875 460.125,490.0 454.625,486.25 450.375,482.625 446.125,478.125 442.125,472.5 439.75,468.0 437.625,462.625"/>
    <polyline points="436.75,459.5 435.5,452.625 435.25,448.625 435.125,444.25 436.0,434.375 437.0,428.75 438.5,422.625 440.625,416.0 443.375,408.875 446.875,401.125 451.25,393.0 456.5,384.375 462.75,375.5 470.125,366.5 478.625,357.625 488.125,349.125 498.625,341.375 509.875,334.75 521.75,329.875 533.75,326.875 545.625,326.25 556.875,328.25 567.125,332.75 576.25,339.5"/>
    <polyline points="584.0,348.5 590.125,359.0 594.75,370.625 598.0,382.875 600.125,395.25 601.0,407.5 601.125,419.25 600.625,430.375 599.5,440.625 598.0,450.0 596.25,458.5 594.375,466.125 590.375,479.0 586.375,488.875 582.625,496.5 577.75,504.75 571.625,512.75"/>
    <polyline points="570.75,513.875 567.75,517.625 567.125,518.75 566.875,520.0 567.25,521.0 568.25,521.75 570.375,522.75 574.5,523.875"/>
    <polyline points="575.5,524.0 588.5,525.875 600.75,526.75 613.125,526.875 617.375,526.625"/>
    <polyline points="619.625,526.5 628.25,525.0 634.25,522.75 637.5,520.375 638.75,518.875 639.75,517.0 640.25,514.875 640.375,512.25 639.875,509.125 638.5,505.5 636.375,501.25 633.0,496.25 628.125,490.5 621.75,483.875 613.375,476.25 602.625,467.875 589.25,458.625 573.25,449.0 554.375,439.375 533.0,430.5"/>
    <polyline points="509.875,423.125 485.75,418.25 462.125,416.625 440.125,418.875 421.125,425.0 405.625,434.375 394.0,446.25 385.875,459.75 380.875,473.875 378.125,487.75 377.375,500.875 377.875,512.875 379.125,523.5 381.125,532.875 383.375,540.875 385.75,547.625 388.375,553.25 391.0,557.875 393.75,561.625 396.375,564.5 399.0,566.625 404.375,569.25 406.875,569.75 412.0,569.75"/>
    <polyline points="414.375,569.25 419.125,567.625 425.75,564.0 435.125,556.5 442.25,548.875 446.5,543.375 449.375,538.5 450.25,536.25"/>
    <polyline points="450.625,535.25 451.5,532.375 451.625,529.75 451.25,527.375 450.375,525.125 448.875,523.0 446.25,520.375 440.5,516.625"/>
    <polyline points="439.375,516.0 432.875,512.5 415.625,504.0 407.25,499.0 400.625,494.125 393.875,487.875"/>
    <polyline points="391.625,485.375 389.375,482.5 385.25,475.75 381.75,467.125 380.25,461.875 379.25,455.875 378.625,449.0 378.625,441.0 379.5,431.875 381.25,421.125 384.375,408.75 389.125,394.375 396.0,377.875 405.5,359.0 418.25,337.875 434.75,314.625 455.625,290.375 481.0,266.375 510.375,245.0 542.625,229.125 575.625,221.75 607.0,224.75 634.125,238.875 655.375,262.375"/>
    <polyline points="670.375,292.625 679.625,326.25 684.25,360.125 685.625,392.25 684.875,421.375 682.875,446.875 680.125,468.75 677.0,487.25 673.875,502.625 670.75,515.25 667.625,525.5 664.5,533.75 661.375,540.25 658.25,545.375 655.125,549.25 652.0,552.0 648.75,554.0 645.5,555.125 642.125,555.625 638.75,555.625 635.25,555.25 628.375,553.375 625.0,552.125 618.375,549.0"/>
    <polyline points="615.25,547.375 587.0,530.5 578.875,526.375 575.375,525.125 576.75,525.75 582.5,527.125 594.25,529.125"/>
    <polyline points="595.875,529.375 609.25,531.375 629.0,533.625 650.375,535.375 660.5,535.75"/>
    <polyline points="664.0,535.75 674.625,535.375 684.875,533.875 691.125,531.625 693.875,530.0 696.125,527.75 697.875,525.0 698.75,521.375 698.625,516.875 697.0,511.0 693.5,503.625 687.375,494.25 677.75,482.625 663.625,468.125 643.5,450.5 616.25,430.125 580.625,407.75 536.625,385.625 486.25,367.25 433.75,357.0 385.125,358.625"/>
    <polyline points="345.625,372.75 317.875,397.375 301.125,428.25 292.875,461.375 290.375,493.5 291.0,523.25 293.5,549.75 297.0,573.0 301.125,593.25 306.125,610.625 311.75,625.25 318.5,637.0 326.375,646.0 335.375,652.25 345.5,655.5 356.375,656.0 368.125,653.875 380.125,649.375 392.125,643.0 403.75,635.125 415.0,626.125 425.5,616.625 435.125,607.0 444.0,597.375 458.875,579.375"/>
    <polyline points="465.125,571.25 494.375,530.375 501.625,521.625 504.375,518.875 508.0,516.25 512.125,514.25 516.0,513.375"/>
    <polyline points="516.875,513.25 523.0,512.875 538.625,513.125"/>
    <polyline points="539.5,513.125 545.625,513.0 552.625,512.25 556.625,511.5 560.125,510.125"/>
    <polyline points="560.75,509.75 561.875,509.0 563.0,507.625 563.5,505.875 563.125,503.625 560.875,500.125 557.5,497.0 554.375,494.875 548.25,491.5 543.25,489.375"/>
    <polyline points="540.5,488.375 534.625,486.625 528.375,485.375 521.875,484.75 518.75,484.625 512.5,485.0 504.375,486.875 498.0,490.125 496.25,491.5 493.625,494.25 492.0,497.125 491.0,500.0 491.0,504.0"/>
    <polyline points="491.25,505.125 493.25,509.125 496.25,511.875 498.0,512.875 502.5,514.5 507.875,515.25 511.25,515.375"/>
    <polyline points="512.125,515.375 529.5,515.25 550.25,516.75"/>
    <polyline points="531.875,515.375 547.0,516.0 553.875,516.0"/>
    <polyline points="554.875,516.0 561.25,515.75 569.75,514.5 575.25,512.25 577.25,510.5 578.125,509.0"/>
    <polyline points="578.375,508.125 578.375,505.125 576.5,501.125 574.0,498.0 570.25,494.375 561.875,488.5 554.25,484.25 549.875,482.25 540.0,478.375 534.625,476.75 523.25,474.25 517.5,473.5 511.625,473.125 506.0,473.25 500.5,473.75"/>
    <polyline points="495.375,474.75 490.625,476.0 486.25,477.75 482.5,479.875 479.125,482.25 474.125,487.5 472.25,490.375 470.0,495.875 469.25,501.125 469.25,503.625 470.0,507.875 471.5,511.5 472.375,513.0 475.375,516.375 478.75,518.5 480.875,519.25"/>
    <polyline points="481.875,519.5 484.875,519.875 489.25,519.5 494.375,517.875 497.875,515.75"/>
    <polyline points="498.125,515.625 499.0,514.875 499.75,513.625 499.75,512.75 499.125,511.875 496.5,510.25 490.5,508.125"/>
    <polyline points="489.875,508.0 482.25,505.5 470.5,501.125"/>
    <polyline points="469.5,500.625 459.875,496.125 454.5,493.0 448.75,488.875 445.875,486.5 441.375,482.125 437.0,476.625 435.625,474.375"/>
    <polyline points="434.25,472.125 430.75,463.75 429.125,456.75 428.5,452.75 428.125,443.625 428.5,438.25 430.5,426.0 432.375,419.0 435.0,411.375 438.375,403.125 442.625,394.125 448.125,384.5 454.625,374.5 462.5,364.125 471.625,353.5 482.125,343.25 494.0,333.75 506.875,325.5 520.625,319.0 534.625,314.875 548.5,313.625"/>
    <polyline points="561.875,315.5 574.0,320.5 584.625,328.625 593.375,339.125 600.375,351.75 605.5,365.5 608.875,380.0 610.875,394.5 611.625,408.5 611.5,421.875 610.5,434.375 609.125,445.625 607.375,455.875 605.375,465.0 601.125,480.125 596.875,491.75 593.0,500.375 591.125,503.875 587.875,509.5 583.875,515.25"/>
    <polyline points="582.75,516.625 578.625,521.875 577.875,523.375 577.875,524.25 578.5,525.25 580.375,526.375 586.5,528.125"/>
    <polyline points="587.75,528.375 605.25,531.5 641.375,536.5"/>
    <polyline points="644.625,536.875 670.25,540.125 701.125,543.5 726.5,545.375 742.375,545.5 752.875,544.5 757.75,543.5"/>
    <polyline points="762.375,542.0 766.375,539.625 769.5,536.25 771.5,531.5 771.5,524.75 768.75,515.375 761.75,502.125 748.5,483.75 725.875,458.625 689.625,425.25 634.625,383.5 557.5,336.875 460.75,295.875 358.75,276.5 273.125,291.0 218.25,337.0 192.125,400.125 184.125,466.875 184.5,530.0 188.0,587.5 193.25,639.5 201.0,686.125 213.375,726.125 232.125,757.25 258.25,776.125 290.875,780.625"/>
    <polyline points="327.5,770.375 364.75,748.125 399.125,717.75 428.625,683.625 452.25,649.5 469.75,617.5 481.875,589.0 489.125,564.25 492.375,543.25 492.375,526.0 489.875,511.875 485.5,500.75 479.875,492.375 473.5,486.375 466.75,482.625 460.25,480.75 454.125,480.625 448.75,481.875 444.125,484.375 440.5,487.625 437.75,491.625 435.875,495.875 434.75,500.25 434.25,504.625 434.375,508.75 435.0,512.625"/>
    <polyline points="436.0,516.25 438.625,522.25 441.875,526.75 443.625,528.375 447.125,530.875 450.625,532.25 455.375,532.875 459.5,532.25 462.875,530.875 464.75,529.75 468.375,526.625"/>
    <polyline points="468.875,526.0 469.75,524.75 470.75,522.375 471.0,520.625 470.75,519.0 469.5,516.375 467.125,513.875 465.25,512.375"/>
    <polyline points="464.5,511.875 461.25,509.75 443.25,499.5 433.75,492.875"/>
    <polyline points="432.125,491.5 425.25,484.75 420.25,478.125 417.25,472.5 414.625,465.75 413.5,461.875 412.0,452.625 411.75,447.25 411.875,441.125 412.5,434.375 413.75,426.75 415.75,418.375 418.625,408.875 422.75,398.5 428.0,386.875 434.875,374.375 443.625,360.875 454.125,346.625"/>
    <polyline points="466.875,332.25 481.625,318.125 498.375,305.125 516.75,294.375 536.125,286.875 555.5,283.625 574.125,285.25 591.0,292.0 605.375,303.625 616.875,319.0 625.375,337.25 631.125,356.875 634.5,377.0 636.0,396.625 636.125,415.125 635.125,432.0 633.375,447.25 631.25,460.625 626.5,482.5 624.0,491.25 619.25,504.875 615.0,514.5 613.0,518.25"/>
    <polyline points="611.25,521.25 606.625,527.625 604.25,530.25 600.375,533.5 599.125,535.0 600.25,536.0 603.5,537.125"/>
    <polyline points="604.5,537.375 624.125,543.5 633.5,546.75 647.5,552.25 657.5,556.875"/>
    <polyline points="661.0,558.625 672.375,564.875 684.625,573.0 692.875,579.5 700.875,586.875 707.625,594.875 710.25,599.0 712.125,603.0 713.125,606.625 712.875,609.875 711.25,612.375 708.125,614.0 703.25,614.25 696.875,613.25 688.875,610.625 679.375,606.375 669.0,600.625 657.75,593.625 646.25,585.5"/>
    <polyline points="634.75,576.75 623.625,567.5 603.125,549.0 578.375,524.5 560.5,506.125 547.625,494.0 541.0,488.625 533.0,483.625 526.5,481.125 522.75,480.375 517.625,480.125"/>
    <polyline points="516.0,480.25 497.875,482.125 492.75,482.125 487.75,481.625 482.625,480.5"/>
    <polyline points="481.375,480.125 477.625,478.75 473.875,476.875 470.125,474.375 465.375,470.0 462.125,465.875 460.25,462.5 457.875,456.375 456.75,451.5 456.25,445.875"/>
    <polyline points="456.25,442.75 456.375,439.5 457.5,432.125 459.75,423.875 461.375,419.375 465.75,409.75 472.125,399.5 476.0,394.25 485.25,384.0 490.625,379.125 496.5,374.75 502.625,370.75 509.125,367.5 515.875,365.125 522.625,363.625 529.375,363.125 535.875,363.875 542.0,365.625 547.75,368.625 552.875,372.625 557.25,377.5"/>
    <polyline points="561.0,383.25 564.125,389.5 566.5,396.25 568.25,403.25 569.375,410.375 570.0,424.5 569.625,431.25 568.125,443.625 567.0,449.375 564.125,459.5 562.625,464.0 559.375,471.875 556.125,478.375 552.875,483.75 548.25,490.0 544.0,494.75"/>
    <polyline points="542.75,496.0 538.125,500.25 533.625,503.75 525.125,509.375"/>
    <polyline points="524.875,509.625 522.875,511.625 522.875,512.25 523.5,513.0 526.125,514.0 530.25,514.75"/>
    <polyline points="530.625,514.875 536.25,515.75 546.25,516.75"/>
    <polyline points="547.125,516.75 554.5,517.25 562.0,517.375 567.75,517.125 573.625,516.375"/>
    <polyline points="574.75,516.125 579.25,515.0 583.0,513.0 584.5,511.625 585.5,509.875 585.875,506.5 585.0,503.625 581.625,498.375 574.75,491.75 567.75,486.75"/>
    <polyline points="563.375,484.0 553.25,478.75 540.875,473.75 534.125,471.5 527.0,469.75 519.75,468.375 512.375,467.5 505.125,467.125 498.125,467.375 491.375,468.375 485.25,469.875 479.625,472.0 474.625,474.5 470.375,477.5 466.875,480.875 464.0,484.375 461.875,488.125 460.25,491.75 458.625,498.75 458.625,505.125 459.75,510.375"/>
    <polyline points="460.625,512.625 462.75,516.375 465.0,519.125 467.5,521.0 469.875,522.25 474.375,523.125 477.25,522.875 481.125,521.625 483.75,519.875"/>
    <polyline points="484.125,519.5 485.75,517.375 486.0,515.0 485.0,513.125 483.0,511.375"/>
    <polyline points="482.625,511.0 477.5,508.125 462.875,501.25"/>
    <polyline points="461.75,500.75 455.375,497.375 448.375,493.0 443.875,489.625 439.25,485.5 436.25,482.125 431.75,476.125 429.0,471.125 426.5,465.125"/>
    <polyline points="425.5,461.75 424.125,453.875 423.625,444.25 424.75,432.5 426.0,425.75 428.0,418.25 430.75,410.125 434.375,401.125 439.0,391.5 444.875,381.0 452.125,370.0 460.75,358.625 470.875,347.125 482.625,335.875 495.75,325.5 510.125,316.625 525.25,309.875 540.75,306.125 556.0,305.625 570.25,308.75 583.0,315.625 593.875,325.625 602.625,338.375"/>
    <polyline points="609.25,352.875 613.875,368.5 616.75,384.5 618.125,400.25 618.375,415.25 617.625,429.125 616.375,442.0 614.625,453.5 612.625,463.75 610.375,472.75 606.0,487.5 601.625,498.5 597.75,506.625 592.875,514.75 586.0,523.875"/>
    <polyline points="585.375,524.5 584.5,526.125 584.375,527.25 585.625,528.5 589.875,530.125 601.5,532.875"/>
    <polyline points="603.25,533.25 625.0,537.75 646.625,542.875 662.0,547.25 680.5,553.625"/>
    <polyline points="685.75,555.75 697.125,560.875 709.75,567.375 724.125,576.125 731.875,581.5 740.0,587.75 748.5,595.0 757.125,603.25 765.625,612.625 773.625,623.125 780.5,634.375 785.25,646.0 786.75,657.0 783.5,666.25 774.375,672.125 758.625,672.625 736.5,666.75 709.375,653.875 679.625,635.0 649.875,611.75 622.0,586.125 597.625,560.125 577.25,535.0"/>
    <polyline points="560.875,512.0 548.25,491.25 538.75,472.875 532.0,457.0 527.625,443.25 525.0,431.625 523.875,421.75 524.125,413.5 525.125,406.875 527.0,401.5 529.375,397.5 532.125,394.625 535.125,392.875 538.125,392.25 541.125,392.625 544.0,393.75 546.625,395.75 549.0,398.5 551.0,401.75 552.75,405.5 555.0,414.0 555.625,418.5 555.875,423.25 555.625,432.5"/>
    <polyline points="555.125,437.0 553.5,445.5 550.0,456.875 545.75,466.25 542.75,471.375 538.125,477.875 533.75,482.875 526.875,489.0 521.875,492.375"/>
    <polyline points="520.625,493.0 516.25,495.375 509.125,498.0 502.625,499.375 496.25,499.75"/>
    <polyline points="495.375,499.75 490.75,499.625 484.0,498.625 478.75,497.375 469.5,494.125"/>
    <polyline points="468.25,493.5 461.75,490.25 454.875,485.625 450.75,482.0 446.5,477.5 443.875,473.875 440.25,467.25 438.25,461.75 436.75,455.375"/>
    <polyline points="436.25,451.625 436.0,447.625 436.25,438.5 438.125,427.625 439.625,421.5 441.875,414.875 444.75,407.75 448.25,400.0 452.75,391.875 458.125,383.375 464.5,374.625 472.0,365.75 480.5,357.125 490.0,348.75 500.375,341.375 511.625,335.125 523.25,330.625 535.0,328.0 546.625,327.75 557.625,330.0 567.625,334.75 576.375,341.75 583.75,350.625 589.625,361.125"/>
    <polyline points="594.125,372.625 597.125,384.625 599.0,396.875 599.875,408.875 600.0,420.375 599.375,431.25 598.25,441.25 596.75,450.5 593.125,466.25 589.125,478.875 585.25,488.625 581.5,496.125 576.625,504.25 573.875,508.125 568.875,514.25"/>
    <polyline points="568.125,515.125 565.75,518.625 565.625,519.75 565.875,520.5 568.875,522.25 574.75,523.75"/>
    <polyline points="575.875,523.875 583.375,525.0 598.125,526.125 612.0,526.125 618.375,525.5"/>
    <polyline points="620.5,525.125 624.625,524.25 628.5,523.0 631.875,521.125 633.375,519.875 635.625,516.625 636.125,514.625 636.25,512.125 635.875,509.25 634.75,505.875 632.75,502.0 629.875,497.375 625.625,492.125 619.875,486.0 612.375,479.125 602.875,471.375 591.0,463.0 576.75,454.125 559.875,445.125 540.625,436.625 519.5,429.125 497.125,423.625"/>
    <polyline points="474.75,420.875 453.375,421.5 434.125,425.5 418.0,432.75 405.125,442.75 395.75,454.5 389.375,467.375 385.625,480.5 383.75,493.125 383.5,504.875 384.25,515.5 385.75,525.0 387.625,533.25 389.875,540.25 392.25,546.125 394.75,551.0 397.25,555.0 399.75,558.125 402.25,560.625 404.75,562.375 409.5,564.5 414.125,564.875 416.375,564.75 418.5,564.25"/>
    <polyline points="420.625,563.5 422.625,562.75 426.5,560.625 431.625,556.875 436.0,552.875 440.75,547.5 444.125,542.625 446.375,538.125 447.375,534.25"/>
    <polyline points="447.5,533.375 447.5,530.875 446.875,528.5 445.25,525.625 444.0,524.25 438.125,519.75 430.75,516.0"/>
    <polyline points="429.375,515.375 407.5,505.75 400.75,502.375 393.5,498.125 388.5,494.625 383.5,490.25 381.0,487.875 376.0,481.875"/>
    <polyline points="373.75,478.375 371.5,474.25 367.875,464.25 366.5,458.125 365.75,450.875 365.5,442.5 366.125,432.625 368.0,421.0 371.25,407.25 376.5,391.125 384.375,372.375 395.375,350.5 410.375,325.5 430.25,298.0 455.75,269.0 486.875,240.75 523.0,216.625 562.125,200.625 601.0,196.875 636.0,207.25 664.25,231.0 684.375,264.875 696.75,304.25 703.125,344.75 705.125,383.25"/>
    <polyline points="704.375,418.0 702.125,448.25 699.125,473.875 695.875,495.125 692.375,512.625 688.875,526.75 685.375,538.125 681.625,547.0 677.75,553.875 673.75,558.875 669.375,562.375 664.75,564.5 659.75,565.5 654.625,565.5 649.25,564.625 643.75,563.125 638.25,561.0 632.625,558.375 621.75,552.375 606.5,542.625 593.5,533.5"/>
    <polyline points="589.625,530.875 573.875,520.5 564.875,515.75 561.125,514.25 555.25,512.625 550.875,512.125 546.5,512.625"/>
    <polyline points="546.0,512.75 544.25,513.625 543.75,514.125 543.75,514.875 544.875,516.0 547.625,517.0"/>
    <polyline points="548.125,517.25 558.875,518.875 566.375,519.375 571.25,519.375"/>
    <polyline points="572.625,519.375 580.625,519.0 586.0,518.125 589.875,517.0 593.375,515.375 595.25,513.875 597.125,510.75 597.375,508.0 596.5,504.5"/>
    <polyline points="595.5,502.5 594.125,500.25 589.875,495.0 583.25,488.875 578.875,485.375 573.625,481.875 567.625,478.125 560.75,474.375 553.125,470.625 544.625,467.0 535.625,463.875 525.875,461.125 515.875,459.0 505.875,457.625 495.875,457.25 486.375,457.875 477.5,459.5 469.5,462.125 462.5,465.5 456.5,469.75 451.75,474.375 448.0,479.5 445.125,484.75 443.25,490.0"/>
    <polyline points="442.125,495.125 441.625,499.875 441.625,504.375 442.875,512.25 445.125,518.375 447.75,522.875 450.625,526.125 453.5,528.0 457.5,529.375 459.875,529.5 462.875,528.875 464.625,528.125 466.625,526.625"/>
    <polyline points="467.125,526.125 469.0,523.375 469.375,521.625 469.25,519.5 468.625,517.875 467.125,515.875 463.625,512.75"/>
    <polyline points="462.875,512.25 458.625,509.5 447.0,503.0 439.625,498.5 431.5,492.5"/>
    <polyline points="429.75,491.125 422.875,484.0 417.875,477.0 414.875,471.0 412.25,463.75 410.5,454.875 410.125,449.625 410.0,443.75 410.5,437.125 411.5,429.75 413.25,421.5 415.875,412.25 419.5,401.875 424.5,390.5 430.875,378.0 439.125,364.375 449.25,350.0 461.5,335.25"/>
    <polyline points="476.0,320.375 492.75,306.5 511.125,294.625 530.875,285.625 551.0,280.875 570.5,281.125 588.5,286.75 604.0,297.5 616.625,312.5 626.0,330.75 632.625,350.875 636.5,371.625 638.375,392.0 638.75,411.25 637.875,429.0 636.25,444.875 634.125,459.0 631.75,471.25 629.25,481.875 626.75,491.0 624.25,498.75 619.625,510.75 617.5,515.375 613.75,522.25"/>
    <polyline points="612.0,524.875 610.5,527.125 607.75,530.25 600.875,536.0 601.125,536.5 602.125,537.0 605.375,538.125"/>
    <polyline points="606.375,538.375 626.25,544.75 640.75,550.25 652.75,555.5 659.25,558.875"/>
    <polyline points="662.75,560.75 670.0,564.875 681.5,572.5 689.125,578.5 696.375,585.25 702.5,592.625 704.875,596.25 706.625,599.75 707.375,603.125 707.25,605.875 705.875,608.125 703.125,609.625 699.0,610.0 693.375,609.125 686.5,607.0 678.25,603.5 669.125,598.75 659.125,592.75 648.75,585.75 638.375,578.0"/>
    <polyline points="628.0,569.875 608.75,553.25 591.875,537.5 557.25,504.0 549.625,497.625 543.25,493.0 535.5,488.625 529.125,486.5 520.25,485.75"/>
    <polyline points="518.75,485.875 499.75,488.25 494.75,488.5 486.25,487.875"/>
    <polyline points="485.0,487.625 481.25,486.875 474.875,484.75 469.75,482.25 467.125,480.625 463.25,477.75 459.5,474.125 455.875,469.625 453.75,466.0"/>
    <polyline points="452.75,464.0 450.25,456.875 449.625,454.125 448.875,447.875 449.0,440.75 450.0,432.375 452.5,422.75 454.375,417.5 456.625,411.875 459.5,406.0 463.0,399.875 467.0,393.625 471.75,387.125 477.25,380.75 483.25,374.5 490.0,368.5 497.375,363.0 505.25,358.25 513.5,354.375 521.875,351.75"/>
    <polyline points="530.25,350.5 538.5,350.625 546.375,352.375 553.625,355.75 560.125,360.375 565.75,366.375 570.5,373.5 574.25,381.375 577.125,389.875 579.125,398.625 580.25,407.375 580.875,416.125 580.875,424.625 580.375,432.625 579.5,440.125 578.25,447.25 575.25,459.75 571.875,470.125 568.375,478.5 564.875,485.375 561.5,490.875"/>
    <polyline points="560.0,493.125 554.375,500.25 550.0,504.875 544.25,510.25 543.125,511.5 542.0,513.5"/>
    <polyline points="542.0,513.75 542.5,515.125 544.75,516.375 548.5,517.375 552.125,517.875"/>
    <polyline points="552.875,518.0 559.375,518.75 567.0,519.125 574.625,519.0 581.25,518.375"/>
    <polyline points="582.5,518.125 588.875,516.5 593.125,514.0 594.625,512.25 595.5,510.0 595.625,508.625 595.125,505.5 593.375,501.5 589.875,496.875 587.25,494.125 580.375,488.0 570.625,481.25"/>
    <polyline points="564.625,477.625 557.875,474.125 550.25,470.625 542.0,467.25 533.125,464.375 523.75,461.875 514.25,460.0 504.625,459.0 495.125,458.875 486.125,459.625 477.75,461.375 470.25,464.0 463.75,467.375 458.125,471.375 453.625,475.875 450.125,480.75 447.5,485.75 445.75,490.75 444.625,495.5 444.25,504.375 444.75,508.375 446.375,515.0 448.875,520.0"/>
    <polyline points="450.25,522.0 453.0,525.0 455.875,527.0 458.5,528.0 462.0,528.375 464.125,528.125 466.75,527.125 468.125,526.25 470.25,524.25 471.625,521.625"/>
    <polyline points="471.625,521.0 471.75,519.5 471.375,518.0 469.375,515.0 466.0,512.125 460.125,508.5"/>
    <polyline points="459.125,507.875 448.5,502.0 438.125,495.375 429.75,488.5 423.0,480.75"/>
    <polyline points="421.375,478.375 418.375,473.0 415.625,466.375 414.5,462.5 413.0,453.625 412.625,448.375 412.625,442.5 413.125,435.875 414.25,428.625 416.125,420.375 418.75,411.25 422.5,401.125 427.5,390.0 433.875,377.875 442.0,364.75 452.0,350.875 464.0,336.75 478.0,322.625 494.125,309.5 511.75,298.25 530.625,290.0 549.875,285.625 568.5,285.875"/>
    <polyline points="585.625,291.25 600.5,301.25 612.75,315.5 622.0,332.75 628.375,351.75 632.375,371.5 634.375,391.0 634.875,409.625 634.25,426.875 632.75,442.375 630.75,456.25 628.5,468.375 623.625,487.875 621.125,495.625 616.5,507.75 612.5,516.25 610.625,519.5 606.0,526.375 602.5,530.125"/>
    <polyline points="601.625,531.0 598.75,533.5 598.25,534.375 598.625,535.0 601.0,536.125 610.625,539.0"/>
    <polyline points="612.125,539.5 623.125,542.875 637.75,547.875 656.5,555.75 671.625,563.625 684.125,571.625"/>
    <polyline points="688.5,574.75 697.125,581.75 701.25,585.625 708.875,594.0 712.0,598.25 714.375,602.625 715.875,606.75 716.375,610.5 715.375,613.625 712.875,615.75 708.625,616.75 702.5,616.375 694.75,614.375 685.375,610.5 674.625,605.125 663.0,598.125 651.0,589.875 638.875,580.75 626.875,571.0 605.0,551.375 586.5,533.125 578.625,524.875"/>
    <polyline points="571.625,517.5 554.875,500.0 546.5,491.875 539.75,486.125 534.125,482.125 531.625,480.625 527.25,478.625 521.5,477.125 516.5,476.75 513.375,476.875 506.125,477.75"/>
    <polyline points="504.75,477.875 498.125,478.5 493.0,478.5 489.25,478.125 485.5,477.375 479.25,475.25 473.25,471.625"/>
    <polyline points="472.125,470.75 467.75,466.375 465.75,463.5 463.125,458.5 461.25,452.375 460.375,444.75 460.625,438.75 462.625,428.375 467.125,416.25 472.0,407.375"/>
    <polyline points="475.0,402.75 482.25,393.625 486.5,389.25 491.25,385.0 496.25,381.125 501.75,377.625 507.375,374.625 513.125,372.375 519.125,371.0 525.0,370.25 530.625,370.625 536.125,371.875 541.25,374.0 546.0,377.0 550.125,381.0 553.875,385.5 556.875,390.75 559.375,396.375 561.25,402.375 563.375,414.875 563.75,427.125 563.5,433.0 562.75,438.625"/>
    <polyline points="561.875,444.0 559.625,453.75 556.75,462.25 553.75,469.375 549.0,478.125 542.875,486.625 538.625,491.25 533.5,495.75 528.125,499.625"/>
    <polyline points="527.25,500.25 518.625,504.75 511.25,507.25"/>
    <polyline points="510.875,507.25 505.0,508.125 500.5,507.875"/>
    <polyline points="500.0,507.875 495.25,507.25 485.875,505.125"/>
    <polyline points="485.25,504.875 471.625,500.375 467.125,498.5 459.75,494.75"/>
    <polyline points="458.375,494.0 451.375,489.5 445.5,484.625 439.75,478.125 435.625,471.75 432.125,463.5 430.5,456.625 429.625,448.375 429.875,438.5"/>
    <polyline points="430.625,432.75 431.875,426.5 436.125,412.25 439.5,404.125 443.625,395.5 448.75,386.125 455.125,376.375 462.625,366.375 471.375,356.125 481.5,346.125 492.875,336.875 505.25,328.625 518.375,322.125 532.0,317.875 545.625,316.25 558.625,317.5 570.625,322.0 581.125,329.25 590.0,339.125 597.125,350.875 602.5,364.0 606.125,378.0 608.375,392.0 609.375,405.875 609.375,419.0"/>
    <polyline points="608.75,431.375 607.5,442.625 603.875,462.125 601.875,470.25 597.625,483.75 593.5,494.0 588.0,504.875 583.5,511.875 577.125,520.0 575.75,522.25"/>
    <polyline points="575.625,522.75 575.875,523.875 576.375,524.5 579.75,526.0 586.875,527.75 597.375,529.5"/>
    <polyline points="599.25,529.875 623.5,532.875 640.5,534.375 656.625,535.125 666.875,535.0"/>
    <polyline points="670.25,534.75 677.0,534.0 683.5,532.375 686.375,531.25 689.125,529.625 691.375,527.625 693.125,525.0 694.25,521.75 694.375,517.625 693.25,512.25 690.375,505.625 685.25,497.125 677.125,486.5 664.875,473.5 647.625,457.75 623.875,439.125 592.625,418.375 553.5,396.875 507.5,377.75 457.75,364.5 409.125,361.0 367.125,369.375 335.25,388.5 314.375,415.5"/>
    <polyline points="302.625,446.25 297.625,477.5 296.875,507.125 298.375,533.875 301.25,557.625 305.0,578.25 309.25,596.125 314.25,611.25 319.875,623.875 326.5,633.875 334.125,641.375 342.625,646.375 352.125,648.75 362.25,648.75 373.0,646.5 384.0,642.25 394.875,636.375 405.625,629.125 415.875,621.125 425.5,612.625 434.5,603.875 450.125,586.75 468.125,564.5"/>
    <polyline points="472.75,558.25 489.75,535.625 496.375,527.625 501.5,522.375 504.375,519.875 508.125,517.375 512.5,515.5 517.5,514.375"/>
    <polyline points="518.375,514.25 526.5,513.75 540.625,513.875"/>
    <polyline points="541.625,513.875 552.625,513.375 557.125,512.75 562.0,511.375 563.375,510.625"/>
    <polyline points="564.0,510.25 566.125,508.375 566.875,506.625 566.875,505.875 566.625,504.25 565.875,502.375 563.5,499.25 559.375,495.625 553.25,491.75 548.0,489.125 542.0,486.75"/>
    <polyline points="538.625,485.625 535.25,484.625 527.875,483.125 520.375,482.25 516.75,482.125 509.625,482.625 503.125,484.0 500.25,485.0 495.25,487.5 493.125,489.0 489.75,492.25 488.625,493.875 486.875,497.375 486.125,500.625 486.125,503.75 486.75,506.375"/>
    <polyline points="487.25,507.625 488.5,509.75 490.875,512.25 494.5,514.375 498.375,515.5 502.0,516.0 508.625,516.0"/>
    <polyline points="509.375,516.0 520.25,515.25 525.75,515.25"/>
    <line x1="526.5" x2="544.75" y1="515.25" y2="516.25"/>
    <polyline points="545.625,516.25 560.625,516.5 567.25,516.0 571.625,515.125"/>
    <polyline points="572.75,514.875 576.75,513.5 579.25,512.0 580.5,510.625 581.5,508.0 581.125,504.5 579.75,501.625 578.625,500.125 573.375,494.5 568.0,490.25 560.875,485.625"/>
    <polyline points="556.5,483.375 551.875,481.0 541.125,476.75 529.0,473.25 522.75,472.0 516.25,471.125 509.875,470.75 503.625,470.875 497.625,471.375 492.0,472.5 486.875,474.125 482.125,476.125 478.125,478.5 474.625,481.25 471.625,484.125 469.375,487.25 467.5,490.375 465.375,496.625 464.875,502.375 465.375,507.375 466.0,509.5"/>
    <polyline points="466.875,511.5 468.75,514.75 470.875,517.125 474.25,519.625 476.625,520.5 479.75,521.125 481.75,521.125 485.125,520.625 489.625,518.75"/>
    <polyline points="490.0,518.5 492.0,517.125 493.5,515.0 493.625,513.875 492.875,512.375"/>
    <polyline points="492.625,512.125 491.125,510.875 488.0,509.25 481.5,506.625"/>
    <polyline points="480.75,506.375 464.75,499.75 454.625,494.25"/>
    <polyline points="453.125,493.375 444.375,486.75 438.375,480.5 434.125,474.375 430.25,466.5 428.25,460.0 427.5,456.25 426.75,447.5 426.75,442.5 427.25,437.0 428.125,430.875 429.5,424.25"/>
    <polyline points="431.625,417.0 434.375,409.0 438.125,400.25 442.75,390.875 448.625,381.0 455.625,370.5 464.125,359.75 474.0,348.875 485.125,338.5 497.75,329.0 511.25,320.875 525.5,314.875 540.0,311.625 554.25,311.375 567.625,314.375 579.625,320.75 589.875,330.125 598.125,341.875 604.5,355.375 609.125,370.0 611.875,385.0 613.375,399.75 613.75,414.0 613.25,427.25 612.0,439.625 610.5,450.75"/>
    <polyline points="608.5,460.625 606.5,469.5 604.25,477.25 602.125,484.0 597.875,495.0 592.25,506.5 587.625,513.75 580.75,522.625 579.875,524.625 580.0,525.375"/>
    <polyline points="580.25,525.625 581.75,526.875 587.5,528.75 609.75,533.0"/>
    <polyline points="612.0,533.375 635.625,537.25 664.0,542.5 686.625,547.75 697.25,550.625 702.875,552.5"/>
    <polyline points="708.875,554.5 722.0,559.5 737.125,566.375 745.5,570.75 754.625,576.125 764.5,582.625 775.25,590.5 786.875,600.0 799.375,611.625 812.25,625.75 825.0,642.25 836.25,661.25 843.875,681.625 844.625,701.25 834.5,716.25 810.625,721.75 772.875,713.625 725.0,690.25 674.0,654.625 626.375,611.75 586.625,567.125 556.375,524.375 535.125,485.25 521.875,450.625"/>
    <polyline points="515.25,420.125 514.25,393.75 517.875,370.875 525.0,351.75 535.125,336.5 547.125,325.125 560.25,318.25 573.625,315.875 586.25,318.0 597.625,324.375 607.25,334.375 614.75,347.25 620.25,361.875 623.75,377.625 625.75,393.5 626.25,409.125 625.75,423.75 624.5,437.375 622.625,449.625 620.375,460.625 618.0,470.375 615.5,478.875 610.375,492.5 605.5,502.625"/>
    <polyline points="603.25,506.5 599.125,512.75 595.5,517.125 591.125,521.375 584.375,526.625 584.0,527.375 584.25,527.875 585.625,528.75"/>
    <polyline points="586.25,529.0 593.5,531.125 626.25,538.0"/>
    <polyline points="629.125,538.625 644.75,542.25 659.75,546.375 668.375,549.125 682.875,554.375 688.25,556.625 706.25,565.25 713.0,568.875 720.125,573.25 735.625,584.0 744.0,590.625 752.625,598.25 761.25,607.0"/>
    <polyline points="769.75,616.875 777.5,627.875 783.75,639.5 787.375,651.125 787.25,661.75 781.625,670.0 769.75,674.0 751.0,672.0 726.375,663.0 697.5,647.375 667.125,626.125 637.5,601.25 610.875,575.0 588.0,548.875 569.25,524.375 554.375,502.0 543.25,482.125 535.0,464.75 529.375,449.625 525.875,436.75 524.125,425.75 523.75,416.5 524.5,408.875 526.125,402.75 528.375,398.0 531.125,394.5"/>
    <polyline points="534.125,392.25 537.25,391.0 540.5,390.875 543.5,391.75 546.375,393.5 549.0,396.0 551.25,399.125 553.125,402.75 554.75,406.875 556.75,416.0 557.125,420.75 557.125,430.375 556.0,439.625 554.125,448.25 550.375,459.375 547.5,465.75 542.875,473.5"/>
    <polyline points="541.375,475.75 538.375,479.75 535.375,483.125 531.125,487.25 528.5,489.375 521.125,494.375 515.75,497.0 510.875,498.75"/>
    <polyline points="510.0,499.0 506.375,500.0 500.375,500.875 494.5,501.0 488.25,500.375"/>
    <polyline points="487.375,500.25 478.375,498.25 470.5,495.5 464.25,492.625 458.875,489.5"/>
    <polyline points="457.5,488.625 453.25,485.5 449.0,481.75 443.5,475.25 440.875,471.125 439.75,468.75 436.625,460.5 435.25,453.625 434.875,449.75 435.0,440.875 436.375,430.25 439.625,417.75"/>
    <polyline points="442.25,410.625 445.625,403.0 449.75,395.0 454.75,386.375 460.875,377.5 468.0,368.375 476.25,359.375 485.625,350.625 496.0,342.625 507.125,335.625 519.0,330.25 531.125,326.75 543.125,325.5 554.625,326.875 565.25,330.875 574.75,337.25 582.875,345.75 589.375,356.0 594.375,367.625 598.0,379.875 600.25,392.375 601.5,404.75 601.75,416.75 601.25,428.125 600.25,438.625 598.875,448.25"/>
    <polyline points="597.125,457.0 595.25,464.875 591.25,478.0 589.25,483.5 585.375,492.5 581.75,499.375 577.125,506.75 569.375,516.5 567.75,518.875 567.5,519.75"/>
    <polyline points="567.5,520.125 567.625,520.875 568.5,521.75 571.0,523.0 577.25,524.5 587.75,525.875"/>
    <polyline points="589.25,526.125 605.75,527.25 614.25,527.25 620.875,526.875 627.625,526.0 631.875,524.875 635.875,523.25 639.25,521.0"/>
    <polyline points="640.625,519.5 642.375,515.5 642.5,512.875 642.0,509.75 640.875,506.125 638.75,501.875 635.375,496.875 630.625,491.0 624.25,484.25 615.75,476.5 604.875,467.875 591.375,458.375 575.0,448.5 555.625,438.375 533.75,429.125 509.75,421.375 484.875,416.25 460.375,414.625 437.75,416.875 418.125,423.25 402.25,433.125 390.5,445.625 382.375,459.75 377.375,474.375 374.875,488.75"/>
    <polyline points="374.25,502.25 374.875,514.625 376.25,525.5 378.25,535.125 380.625,543.25 383.25,550.125 385.875,555.875 388.625,560.625 391.375,564.25 394.125,567.25 396.875,569.375 399.625,570.875 402.375,571.875 405.125,572.5 407.875,572.5 413.125,571.75 418.125,569.875 423.0,567.375 427.5,564.375 433.625,559.375"/>
    <polyline points="435.375,557.75 443.25,549.625 447.875,543.75 451.125,538.625 453.5,533.25 454.25,529.5 454.125,527.125"/>
    <polyline points="453.875,526.25 453.125,524.125 451.75,522.0 447.625,518.125 440.375,513.625 432.0,509.25"/>
    <polyline points="430.5,508.5 418.0,501.75 414.0,499.25 407.75,494.625 401.375,488.875 395.0,481.25 391.125,474.5 389.375,470.5 387.875,466.0 385.625,455.125 385.125,448.375"/>
    <polyline points="385.25,440.75 386.0,432.0 387.75,421.875 390.75,410.25 395.125,396.875 401.5,381.625 410.125,364.25 421.625,345.0 436.375,323.875 454.875,301.875 477.375,279.875 503.5,259.875 532.375,244.125 562.5,235.125 591.75,234.875 618.0,244.375 639.625,262.75 655.75,288.125 666.625,317.625 672.75,348.625 675.5,378.875 675.75,407.125 674.5,432.375 672.125,454.5 669.375,473.5 666.5,489.5"/>
    <polyline points="663.375,502.75 660.375,513.75 657.5,522.75 654.625,530.0 651.875,535.875 649.125,540.375 646.375,544.0 643.625,546.625 641.0,548.5 638.375,549.875 633.0,551.0 630.375,551.0 625.25,550.25 615.625,546.75 609.125,543.5 601.875,539.375"/>
    <polyline points="600.25,538.5 590.375,532.625 589.125,531.625 592.75,532.25"/>
    <polyline points="593.625,532.5 625.0,540.125 642.5,545.125"/>
    <polyline points="645.75,546.25 653.0,548.625 660.875,551.625 674.125,557.125 684.0,562.0 694.75,568.0 706.625,575.625 712.875,580.25 719.25,585.25 725.625,590.875 732.0,597.125 738.125,603.875 743.75,611.25 748.375,618.75 751.625,626.375 752.75,633.625 751.25,639.625 746.5,643.875 738.125,645.625"/>
    <polyline points="725.875,643.875 710.125,638.375 691.625,629.125 671.625,616.5 651.25,601.25 631.375,584.5 613.0,567.125 596.625,550.0 582.375,533.75 570.25,518.625 560.125,505.125 551.75,493.125 545.0,482.625 535.0,465.875 526.5,449.25 520.25,434.875"/>
    <polyline points="520.0,434.75 519.625,435.125 517.625,441.375 515.125,446.375 511.0,451.75 507.75,454.5"/>
    <polyline points="506.875,455.0 504.25,456.5 500.625,457.75 498.0,458.125 494.5,458.0 490.25,456.625 488.0,455.125 485.875,453.125"/>
    <polyline points="485.375,452.25 483.25,448.5 482.125,443.625 482.0,439.25 482.75,434.375 484.5,428.875 486.25,425.125 489.875,419.5 494.75,414.25"/>
    <polyline points="496.625,412.625 502.625,408.5 507.0,406.75 509.25,406.25 513.75,405.75 516.0,406.0 520.125,407.125 522.0,408.125 525.375,410.75 526.875,412.5 529.375,416.375 530.25,418.5 532.125,425.75 532.5,430.875 532.25,435.875"/>
    <polyline points="531.875,438.375 530.25,445.625 528.625,450.0 526.75,454.0 523.625,459.25 519.0,465.0 516.5,467.375 511.5,471.125 505.125,474.25"/>
    <polyline points="503.875,474.75 501.375,475.5 495.125,476.5 487.625,476.125 482.75,474.875 479.125,473.375 476.75,472.125 473.375,469.625"/>
    <polyline points="472.25,468.625 468.125,464.0 466.25,461.0 464.625,457.625 463.375,453.75 462.5,449.25 462.125,441.375 462.75,435.25 465.5,424.625 468.75,416.75 470.875,412.5 476.25,404.0"/>
    <polyline points="479.5,399.625 487.25,391.125 491.75,387.125 501.5,380.125 506.875,377.375 512.375,375.25 517.875,373.875 523.5,373.125 528.875,373.375 534.125,374.375 539.0,376.375 543.5,379.125 547.625,382.625 551.125,386.875 554.125,391.625 556.5,396.875 558.5,402.5 559.875,408.25 561.25,420.125 561.125,431.625 560.625,437.0 559.75,442.25"/>
    <polyline points="558.875,447.125 555.0,460.125 550.5,470.375 547.375,476.0 542.75,482.625 537.0,489.25 531.75,493.875 525.125,498.5"/>
    <polyline points="524.125,499.125 521.375,500.625 514.375,503.625 511.0,504.625 506.25,505.5"/>
    <polyline points="505.625,505.625 498.75,505.875 490.5,504.875"/>
    <polyline points="489.75,504.625 479.125,502.0 471.0,499.125 466.375,497.125"/>
    <polyline points="465.125,496.5 460.0,493.875 453.125,489.5 448.875,486.25 443.0,480.5 438.75,474.875 436.125,470.25 433.875,464.875 432.125,458.5"/>
    <polyline points="431.375,454.75 430.75,446.375 430.875,441.5 432.25,430.375 433.75,424.0 435.75,417.0 438.5,409.5 442.0,401.25 446.5,392.5 452.0,383.25 458.625,373.625 466.375,363.75 475.5,353.75 485.75,344.25 497.25,335.5 509.625,328.125 522.625,322.375 535.875,319.125 549.0,318.375 561.375,320.75 572.75,325.875 582.5,333.75 590.75,344.0 597.125,355.875"/>
    <polyline points="601.875,369.0 605.125,382.625 607.0,396.25 607.75,409.625 607.5,422.25 606.75,434.125 605.375,445.0 603.625,454.75 599.75,471.375 597.625,478.25 593.5,489.5 591.5,494.125 586.0,504.5 583.0,509.375 575.875,518.5"/>
    <polyline points="575.375,519.25 574.125,521.125 573.875,522.0 574.0,523.125 574.5,523.75 577.125,525.125 587.25,527.5"/>
    <polyline points="588.625,527.625 602.0,529.625 614.875,531.0 630.125,532.125 644.5,532.375"/>
    <polyline points="647.375,532.25 656.375,531.5 664.875,529.625 669.875,527.25 672.0,525.5 673.75,523.5 674.875,520.875 675.375,517.625 675.125,513.625 673.625,508.625 670.625,502.625 665.625,495.125 658.25,486.0 647.625,475.0 633.0,462.125 613.75,447.375 588.875,431.0 558.375,414.25 522.75,398.75 483.625,386.875 444.0,381.125"/>
    <polyline points="407.25,383.25 376.625,393.75 353.75,411.25 338.5,433.375 329.75,457.75 325.875,482.125 325.0,505.0 326.25,525.875 328.625,544.25 331.625,560.375 335.125,574.125 339.0,585.75 343.25,595.375 347.75,603.25 352.75,609.5 358.25,614.0 364.0,617.125 370.25,618.875 376.875,619.125 383.625,618.25 390.625,616.375 397.625,613.5 404.625,609.75 411.375,605.5 418.125,600.75 424.5,595.75"/>
    <polyline points="430.5,590.625 436.25,585.375 451.375,570.25 482.25,536.25 492.375,526.625 498.5,522.125"/>
    <polyline points="499.5,521.5 502.375,519.75 506.5,517.875 512.5,516.0 516.875,515.25"/>
    <polyline points="517.375,515.25 525.625,515.0 530.625,515.375"/>
    <polyline points="551.25,516.75 560.625,516.875 567.375,516.5 574.125,515.375 578.25,513.875"/>
    <polyline points="579.125,513.5 581.5,511.75 582.625,510.125 583.25,508.25 583.25,506.0 582.375,503.375 580.375,500.125 579.0,498.25 575.0,494.25 569.375,489.75 557.25,482.5 546.75,477.625 534.625,473.5"/>
    <polyline points="528.125,471.75 521.375,470.5 514.5,469.625 507.75,469.25 501.25,469.5 495.0,470.125 489.125,471.5 483.75,473.25 479.0,475.5 474.875,478.125 471.375,481.125 468.5,484.25 466.25,487.625 464.5,491.0 462.625,497.5 462.25,503.5 463.125,508.625 463.875,510.875 465.625,514.5 467.875,517.375 469.0,518.375"/>
    <polyline points="470.25,519.375 471.375,520.125 474.875,521.5 479.0,521.875 482.5,521.375 484.625,520.625 487.375,519.125 489.125,517.5"/>
    <polyline points="489.375,517.25 490.375,515.375 490.25,513.75 488.875,512.0 486.875,510.625"/>
    <polyline points="486.5,510.375 483.0,508.5 468.5,502.25"/>
    <polyline points="467.375,501.875 456.5,496.375 452.375,493.875 446.625,489.75 442.0,485.875 439.0,482.75 436.0,479.125 433.125,474.875"/>
    <polyline points="431.75,472.5 429.25,467.0 428.125,463.75 426.5,456.625 425.875,452.375 425.625,442.75 427.0,431.125 428.375,424.375 430.5,416.875 433.25,408.75 437.0,400.0 441.75,390.5 447.75,380.25 454.875,369.625 463.5,358.625 473.625,347.5 485.125,336.875 497.875,327.125 511.875,318.875 526.5,312.75 541.25,309.5 555.875,309.375"/>
    <polyline points="569.375,312.75 581.625,319.5 591.875,329.25 600.25,341.5 606.625,355.5 611.0,370.5 613.875,385.75 615.125,400.875 615.375,415.375 614.75,428.875 613.5,441.25 611.875,452.375 609.875,462.375 607.75,471.25 605.5,479.0 603.375,485.625 599.125,496.625 593.5,507.875 590.375,513.0 586.625,518.125"/>
    <polyline points="585.625,519.375 582.25,523.625 581.5,525.5 581.875,526.5 582.625,527.125 585.75,528.5 592.0,530.125"/>
    <polyline points="593.25,530.375 643.25,539.875 654.0,542.25"/>
    <polyline points="657.875,543.125 679.875,549.0 695.75,554.375 714.625,562.375 729.375,570.125 737.625,575.0 746.375,580.875 755.75,587.75 765.75,595.875 776.25,605.5 787.0,616.875 797.5,629.875 806.875,644.5 813.875,660.25 816.375,675.625 812.25,688.75 799.25,696.625"/>
    <polyline points="776.0,696.25 743.75,685.625 705.375,664.75 665.375,635.75 627.875,602.125 595.5,567.25 569.5,533.5 549.875,502.5 535.875,474.75 526.75,450.25 521.75,429.125 520.125,410.75 521.125,395.25 524.375,382.25 529.375,371.75 535.625,363.625 542.625,358.0 550.0,354.75 557.5,354.0 564.625,355.5 571.25,359.25 577.0,364.625 581.75,371.75 585.625,379.875 588.375,388.875 590.25,398.25"/>
    <polyline points="591.25,407.875 591.625,417.25 591.25,426.375 590.5,435.125 587.75,450.75 586.125,457.75 584.25,464.0 580.375,474.75 578.375,479.375 572.625,490.25 569.125,495.625 564.5,501.75 556.75,509.75"/>
    <polyline points="556.0,510.5 552.5,514.25 552.0,515.375 552.0,516.25 553.0,517.5 556.125,518.875"/>
    <polyline points="556.875,519.0 559.75,519.625 569.75,520.875 577.5,521.25 584.625,521.125"/>
    <polyline points="586.125,521.0 589.25,520.875 595.375,519.875 599.75,518.625 603.625,516.625 605.625,514.75 607.0,512.375 607.375,510.875 607.125,507.25 606.5,505.0 605.375,502.625 601.375,496.75 594.5,489.625"/>
    <polyline points="589.875,485.5 584.125,481.125 577.25,476.5 569.25,471.625 560.125,466.75 549.875,462.0 538.625,457.5 526.5,453.75 513.875,450.75 501.125,448.875 488.5,448.25 476.375,449.125 465.375,451.375 455.625,455.125 447.375,460.0 440.625,465.875 435.375,472.375 431.5,479.125 428.875,486.125 427.375,492.875 426.75,499.25 426.75,505.25 427.25,510.625 428.25,515.5 431.0,523.375"/>
    <polyline points="432.5,526.375 435.875,531.125 437.625,532.875 440.875,535.125 445.25,536.5 447.875,536.375 450.125,535.875 452.875,534.375 455.5,531.75 456.375,530.375 457.25,527.5"/>
    <polyline points="457.25,526.875 457.375,526.125 457.0,524.125 456.125,522.125 454.875,520.25 451.625,517.25 449.0,515.375 441.25,510.75"/>
    <polyline points="439.875,510.0 430.875,505.25 422.125,500.0 418.25,497.375 410.25,490.875 406.25,486.75 402.25,481.75 398.5,475.5 395.25,467.875"/>
    <polyline points="394.0,463.25 392.875,458.125 392.25,452.25 392.0,445.625 392.25,438.0 393.25,429.25 395.25,419.375 398.375,408.0 403.0,395.125 409.375,380.625 417.875,364.25 429.0,346.25 443.125,326.875 460.625,306.875 481.375,287.125 505.25,269.5 531.5,255.625 558.75,247.875 585.125,247.5 609.125,255.625 629.125,271.375 644.5,293.5 655.25,319.625 661.75,347.375 665.0,375.125 665.75,401.375"/>
    <polyline points="664.875,425.125 663.0,446.25 660.5,464.625 657.75,480.25 654.875,493.5 652.0,504.5 649.25,513.625 646.5,521.125 643.875,527.25 641.375,532.25 639.0,536.125 636.625,539.25 634.375,541.625 630.0,544.625 626.0,546.125 622.125,546.375 618.625,546.0 615.25,545.25 610.875,543.625"/>
    <polyline points="609.625,543.0 602.875,539.5 600.25,537.5 601.375,537.375 604.5,538.125"/>
    <polyline points="605.375,538.375 618.75,542.25 628.875,545.625 644.25,551.625 656.75,557.375"/>
    <polyline points="660.125,559.125 671.0,565.25 678.625,570.25 686.375,576.0 690.25,579.25 697.5,586.125 700.75,589.75 703.5,593.5 705.75,597.25 707.375,600.75 708.0,604.0 707.625,606.75 706.0,608.875 702.875,610.125 698.5,610.25 692.5,609.25 685.25,606.75 676.75,603.0 667.25,597.875 657.125,591.625 646.625,584.375"/>
    <polyline points="636.0,576.375 625.75,568.125 606.5,551.25 589.875,535.625 560.25,506.625 548.5,496.5 542.25,492.0 534.625,487.875 528.25,485.875 521.125,485.25"/>
    <polyline points="519.5,485.25 500.25,487.625 492.75,487.875 486.625,487.25"/>
    <polyline points="485.375,487.125 480.375,486.0 475.375,484.25 470.125,481.75 466.25,479.25 461.25,475.0 458.75,472.25 454.25,465.5"/>
    <polyline points="453.375,463.5 452.375,461.25 450.875,456.375 449.875,450.625 449.5,444.0 450.125,436.375 451.875,427.375 455.125,417.25 457.5,411.75 463.75,399.875 472.5,387.375 477.875,381.125 483.875,374.875 490.625,369.125 497.75,363.75 505.5,359.125 513.625,355.5 521.875,352.875"/>
    <polyline points="530.125,351.75 538.25,351.875 545.875,353.625 553.0,356.875 559.375,361.5 564.875,367.375 569.5,374.375 573.25,382.0 576.0,390.375 578.0,398.875 579.25,407.5 579.75,416.125 579.75,424.375 579.375,432.375 577.375,446.75 576.0,453.25 574.375,459.125 571.0,469.375 567.5,477.875 564.0,484.625 560.75,490.125"/>
    <polyline points="559.125,492.5 553.5,499.625 548.125,505.25 541.875,511.0 540.625,513.0"/>
  </g>
</svg>
