<?xml version="1.0" encoding="utf-8" ?>
<svg xmlns="http://www.w3.org/2000/svg" xmlns:cc="http://creativecommons.org/ns" xmlns:dc="http://purl.org/dc/elements/1.1/" xmlns:ev="http://www.w3.org/2001/xml-events" xmlns:inkscape="http://www.inkscape.org/namespaces/inkscape" xmlns:rdf="http://www.w3.org/1999/02/22-rdf-syntax-ns" xmlns:sodipodi="http://sodipodi.sourceforge.net/DTD/sodipodi-0.dtd" xmlns:xlink="http://www.w3.org/1999/xlink" baseProfile="tiny" height="27.09333333cm" version="1.2" viewBox="0 0 1024.0 1024.0" width="27.09333333cm">
  <metadata>
    <rdf:RDF>
      <cc:Work>
        <dc:format>image/svg+xml</dc:format>
        <dc:source>vpype read './original_svgs/Strange Attractors #24.svg' linemerge linesimplify write './Strange Attractors #24.svg'
</dc:source>
        <dc:date>2024-08-05T01:35:17.745269</dc:date>
      </cc:Work>
    </rdf:RDF>
  </metadata>
  <defs/>
  <g fill="none" id="layer1" inkscape:groupmode="layer" inkscape:label="1" stroke="black" stroke-width="0.7mm" style="display:inline">
    <polyline points="305.5,761.75 287.25,699.125 266.875,625.625 261.75,606.0 259.375,593.5 260.25,585.875 265.25,581.25 275.625,578.125 316.375,570.25 347.375,562.625 383.375,551.375 421.625,536.5 458.625,518.75 491.625,499.125 519.25,479.0 541.0,459.25 557.25,440.5 568.75,423.0 576.125,406.875 580.25,392.25 581.75,378.875 580.875,367.0 578.125,356.625 573.75,347.75"/>
    <polyline points="568.0,340.5 561.375,335.25 553.875,331.875 546.0,330.625 538.0,331.375 530.0,334.125 522.25,338.75 515.0,344.875 508.375,352.375 502.5,360.75 497.375,369.875 493.0,379.25 489.25,388.75 483.75,407.125 480.375,423.875 478.5,438.5 478.0,445.0 477.5,461.125 478.0,473.125"/>
    <polyline points="478.25,476.5 480.125,493.875 480.375,501.125 479.625,505.25 478.75,507.25 477.5,509.0"/>
    <polyline points="477.0,509.5 473.625,512.375 468.0,515.0 461.75,517.0 454.125,518.75"/>
    <polyline points="452.75,519.125 437.875,521.625 427.875,522.875 411.625,524.5 401.375,525.125"/>
    <polyline points="450.125,507.25 430.125,507.375 412.5,508.5 397.875,510.25 386.25,512.375 377.25,514.5 370.875,516.625 366.5,518.5 363.875,520.125 362.625,521.5 362.375,522.625 363.0,523.625 366.125,525.0 373.25,526.0 384.625,526.125 399.0,525.375 391.125,525.375 381.875,524.75 380.0,524.375 377.375,523.375 376.75,522.625 376.875,521.75 377.75,520.75 379.625,519.5 387.5,516.75 393.875,515.25 402.25,513.75 412.75,512.375 425.375,511.5 439.875,511.125 456.0,511.5 473.25,513.0 490.625,515.625 507.5,519.375"/>
    <polyline points="523.25,524.25 537.0,530.0 548.75,536.375 558.375,543.0 565.875,549.5 571.5,555.75 575.625,561.625 578.5,566.75 580.375,571.25 582.125,578.25 582.25,582.75 582.0,584.125 581.125,585.5 580.125,585.375 579.0,583.5 578.375,580.25 578.375,577.625"/>
    <polyline points="578.5,576.375 578.875,573.625 579.625,571.0 581.375,567.25 583.75,563.75 586.75,560.75 590.375,558.125 596.125,555.375 605.0,553.25"/>
    <polyline points="607.0,553.125 609.0,552.875 618.0,553.125 628.25,555.0 633.75,556.75 639.625,559.25 649.0,564.75 655.5,569.875 662.375,576.75 665.75,580.875 669.125,585.5 672.5,590.875 675.875,596.875 679.125,603.625"/>
    <polyline points="682.125,611.375 684.875,620.0 687.375,629.625 689.25,640.375 690.625,652.125 691.25,664.875 690.75,678.5 689.125,692.75 686.0,707.25 681.25,721.625 674.625,734.875 666.0,746.5 655.625,755.625 643.625,761.375 630.25,763.5 616.125,761.5 601.75,755.5 587.5,746.125 574.125,733.875 561.75,719.625 550.625,704.125 540.875,688.25 532.5,672.625 525.25,657.5 519.25,643.375 514.125,630.25"/>
    <polyline points="509.875,618.375 500.625,589.5 491.25,556.25 488.375,547.375 485.75,541.25 482.375,536.0 479.75,533.5 477.0,531.5"/>
    <polyline points="476.0,531.0 471.0,529.0 465.5,527.75 452.5,526.25 447.75,526.0"/>
    <polyline points="446.625,525.875 439.875,525.5 438.0,525.25 437.25,524.75 441.875,524.25 449.75,524.375 452.375,524.75 461.375,525.0 469.5,525.75 476.875,527.25 480.25,528.375 484.5,530.5"/>
    <polyline points="455.125,524.75 467.875,526.375 484.625,530.125 493.0,532.875 499.5,535.5 507.25,539.5 502.625,535.375 499.0,532.625 494.875,530.0 490.5,527.875"/>
    <polyline points="489.625,527.375 484.75,525.75 478.375,524.375 471.25,523.625 460.25,523.375"/>
    <polyline points="458.75,523.375 429.25,524.5 420.0,524.625 415.0,524.375"/>
    <polyline points="413.625,524.25 410.25,523.75 409.5,523.5 409.125,522.75 410.5,521.875 416.875,520.375 430.0,519.125 442.875,519.0 458.625,519.875 467.125,520.75 484.625,523.75 501.125,528.25 508.5,530.875 515.125,533.75"/>
    <polyline points="521.0,536.625 526.0,539.5 533.75,544.875 538.625,549.375 542.375,553.875 543.25,555.75 542.25,554.125 541.375,551.5 540.125,544.75"/>
    <polyline points="540.125,543.5 540.0,541.25 540.375,536.75 541.0,533.5 542.375,529.625 543.75,527.0 546.125,523.75 549.75,520.125"/>
    <polyline points="550.5,519.375 558.25,514.0 565.5,510.0 582.25,501.5"/>
    <polyline points="584.0,500.5 595.375,493.875 603.5,488.0 611.875,480.25 618.25,472.875 622.25,466.75 626.125,459.625 629.375,451.125 630.875,446.25 632.0,441.0"/>
    <polyline points="633.0,435.25 633.625,429.0 633.875,422.25 633.75,414.75 633.0,406.875 631.75,398.375 629.75,389.25 627.0,379.75 623.25,369.875 618.625,359.75 613.0,349.75 606.25,340.125 598.375,331.125 589.625,323.25 579.875,316.875 569.375,312.375 558.5,310.125 547.5,310.375 536.625,313.125 526.125,318.125 516.375,325.375 507.5,334.5 499.75,344.875 492.875,356.125 487.125,367.75 482.5,379.5"/>
    <polyline points="478.625,391.125 475.5,402.125 471.375,422.375 470.125,431.25 468.625,446.75 468.125,459.375 468.375,473.75 470.5,499.375 470.375,502.75"/>
    <polyline points="470.25,503.625 469.5,506.25 468.5,508.25 467.0,510.125 465.125,511.75 462.125,513.625 459.375,514.875 452.625,517.125"/>
    <polyline points="451.375,517.5 442.625,519.625 434.0,521.25 417.0,523.625 401.75,525.125"/>
    <polyline points="471.75,508.5 493.875,511.5 515.25,516.125 534.875,522.5 551.75,530.0 565.625,538.5 576.5,547.25 584.625,555.875 590.375,564.0 594.375,571.625 596.875,578.25 598.25,584.125 599.0,589.125 598.75,596.625 598.25,599.375 597.5,601.375 596.625,602.875 594.875,604.375 594.0,604.5 592.25,604.0 590.125,601.5"/>
    <polyline points="589.5,600.5 588.875,599.25 587.75,595.25 587.25,591.0 587.5,585.5 588.125,582.875 590.125,578.25 591.625,576.25 594.25,573.625 597.375,571.625"/>
    <polyline points="598.625,571.125 604.0,569.625 607.0,569.375 612.125,569.625 617.625,570.875 623.625,573.125 630.125,576.875 636.75,582.375 641.375,587.25 645.875,593.25"/>
    <polyline points="648.0,596.75 652.25,604.75 655.875,614.375 657.375,619.875 658.75,625.75 659.75,632.0 660.5,638.625 660.75,645.625 660.5,652.875 659.75,660.25 658.25,667.75 656.25,675.0 653.375,682.0 649.75,688.5 645.375,694.25 640.25,699.0 634.375,702.5 627.875,704.5 620.875,705.125 613.625,704.125 606.125,701.625 598.5,697.625 591.125,692.375 583.875,685.875"/>
    <polyline points="577.125,678.625 570.625,670.625 564.75,662.25 559.375,653.75 554.5,645.125 546.125,628.5 539.5,613.25 532.125,593.5 516.5,544.375"/>
    <polyline points="515.875,542.5 512.5,534.0 510.0,529.25 506.875,524.625 503.75,521.625"/>
    <polyline points="503.25,521.375 500.5,519.75 498.625,519.125 495.375,518.375 490.0,518.0"/>
    <polyline points="489.25,518.125 479.0,518.625 465.875,520.0"/>
    <polyline points="464.625,520.125 443.0,522.5 420.625,524.25"/>
    <polyline points="418.5,524.375 409.5,524.75 401.125,524.625 394.875,523.625 393.5,522.75 393.5,522.125 394.125,521.5 397.625,519.875 410.625,517.125 425.75,515.75 435.25,515.375 446.0,515.375"/>
    <polyline points="457.75,516.0 470.125,517.25 482.75,519.125 495.125,521.75 507.0,525.0 517.75,528.875 527.375,533.125 535.625,537.5 542.5,542.0 552.5,550.625 555.75,554.375 560.0,560.625 561.875,564.875 562.375,567.375 562.25,568.375 561.375,567.5 560.625,565.0"/>
    <polyline points="560.5,563.875 560.5,557.375 561.75,552.0 563.25,548.125 565.375,544.375 568.0,541.0 572.375,536.875 576.25,534.0"/>
    <polyline points="577.625,533.125 585.5,528.75 597.0,524.0 611.0,519.25 633.75,512.125"/>
    <polyline points="636.875,511.0 650.5,506.0 661.5,501.125 673.125,494.5 681.125,488.75 689.25,481.125 693.25,476.5 697.125,471.125 700.875,464.875 704.375,457.625 707.625,449.0 710.5,438.75 712.625,426.625 713.875,412.125 714.0,395.0 712.5,374.75 708.625,351.0"/>
    <polyline points="701.875,323.375 691.375,292.25 675.875,258.375 654.75,223.625 627.5,191.125 594.625,165.25 557.625,150.75 519.375,150.875 483.125,166.625 451.75,195.25 426.625,232.5 407.875,273.25 395.0,313.375 386.625,350.25 381.75,382.5 379.375,409.75 379.0,432.25 380.125,450.375 382.375,464.75 385.625,476.0 389.625,484.625 394.375,491.0 399.75,495.625 405.5,498.75 411.625,500.625 418.125,501.5"/>
    <polyline points="424.625,501.5 431.25,501.0 437.75,500.0 450.25,497.0 461.375,493.625 482.625,486.0 488.5,484.125 493.375,483.0 497.25,482.375 500.375,482.375 504.0,483.25 506.75,484.75"/>
    <polyline points="507.5,485.375 510.25,488.0 517.0,497.125 519.25,499.625"/>
    <polyline points="519.625,500.0 522.375,502.0 525.25,503.25 530.5,504.0"/>
    <polyline points="531.125,504.0 536.5,503.625 541.5,502.75 549.25,500.75"/>
    <polyline points="550.25,500.5 557.625,498.125 565.0,495.25 574.625,490.5 582.25,485.875"/>
    <polyline points="583.875,484.75 593.625,476.625 596.875,473.125 603.125,464.5 607.375,456.375 609.75,450.0 612.375,438.625 612.875,434.25 613.125,424.75 612.25,414.25"/>
    <polyline points="611.375,408.625 610.0,402.75 608.125,396.75 605.875,390.625 603.0,384.5 599.625,378.375 595.75,372.625 591.375,367.125 586.375,362.125 581.0,357.75 575.125,354.125 568.875,351.5 562.375,350.0 555.75,349.625 549.125,350.375 542.625,352.375 536.375,355.5 530.375,359.75 524.75,364.75 519.625,370.625 515.0,377.125 510.875,383.875 507.25,391.0 504.125,398.125 499.25,412.25"/>
    <polyline points="497.5,419.125 494.75,431.75 493.875,437.5 492.625,448.125 492.0,457.25 491.875,468.375 492.375,479.625 494.0,497.0"/>
    <polyline points="494.125,498.125 494.125,503.0 493.375,506.5 491.625,509.625 489.375,511.625"/>
    <polyline points="488.875,511.875 485.875,513.5 480.625,515.5 470.75,517.75"/>
    <polyline points="469.75,518.0 454.25,520.5 431.0,523.125"/>
    <polyline points="428.875,523.375 406.0,524.875 399.125,524.875 391.375,524.25 388.75,523.5 388.125,522.875 387.875,522.25 389.375,520.75 394.625,518.75"/>
    <polyline points="399.0,517.625 412.0,515.5 420.875,514.625 431.375,514.125 443.25,514.0 456.375,514.5 470.25,515.75 484.375,517.875 498.25,520.75 511.375,524.5 523.375,528.875 533.75,533.75 542.625,538.875 549.875,544.0 555.625,549.0 560.0,553.75 563.375,558.0 565.625,561.75 568.25,567.625 569.125,571.375 568.75,573.625"/>
    <polyline points="568.5,573.625 567.75,572.875 566.875,569.125 567.0,564.0 568.25,558.5 569.875,554.5 572.125,550.875 575.0,547.375 577.25,545.25"/>
    <polyline points="578.5,544.25 582.5,541.5 588.75,538.125 594.125,535.875 602.375,533.375 614.25,530.75 625.25,529.25 631.375,528.75"/>
    <polyline points="634.5,528.5 641.125,528.25 655.625,528.5 667.75,529.875 672.0,530.625 681.0,532.875 690.625,536.125 700.875,541.125 706.25,544.375 711.75,548.5 717.5,553.375 723.375,559.375 729.375,566.75 735.5,575.75 741.75,586.625 747.875,600.0 753.875,616.375"/>
    <polyline points="759.375,636.25 763.875,660.375 767.0,689.125 767.625,722.75 764.625,760.875 756.375,801.875 741.25,842.875 718.125,878.625 687.0,903.5 649.625,912.125 609.5,902.375 570.625,876.25 536.0,838.75 507.5,796.0 485.5,752.875 469.375,712.875 458.25,677.625 451.125,647.75 447.25,622.875 446.0,602.625 447.0,586.25 449.875,573.375 454.25,563.25 459.75,555.5 466.375,549.625 473.75,545.625"/>
    <polyline points="481.5,542.875 489.375,541.375 497.125,541.0 504.625,541.25 511.625,542.25 517.875,543.75 523.5,545.5 528.25,547.5 535.5,551.375 540.25,554.875 542.875,557.375 544.25,559.25 543.0,556.75 542.0,553.625"/>
    <polyline points="541.625,552.5 540.375,545.0 540.375,540.125 540.75,536.75 541.125,534.5 542.5,530.5 545.5,525.25"/>
    <polyline points="546.125,524.5 547.375,522.875 550.375,520.0 555.0,516.5 565.25,510.5 572.375,507.0"/>
    <polyline points="573.875,506.125 585.5,500.125 591.125,496.875 599.0,491.75 605.25,487.0 609.5,483.25 615.875,476.5 622.125,468.0"/>
    <polyline points="624.125,464.625 626.0,461.0 629.375,452.625 630.875,447.875 633.25,437.125 634.0,431.0 634.375,424.25 634.375,417.0 633.875,409.125 632.75,400.75 630.875,391.75 628.375,382.25 625.0,372.375 620.5,362.125 615.125,352.0 608.625,342.125 601.0,332.75 592.375,324.375 582.75,317.5 572.375,312.375 561.5,309.5 550.375,309.0 539.25,311.125 528.5,315.625"/>
    <polyline points="518.5,322.5 509.25,331.25 501.125,341.375 494.0,352.625 488.0,364.375 482.875,376.25 478.875,388.0 475.625,399.375 471.125,420.0 468.75,437.625 468.125,445.25 467.5,458.25 467.75,473.0 469.625,494.75"/>
    <polyline points="469.75,496.375 469.875,502.625 469.375,505.375 468.375,507.625 466.625,510.125 464.125,512.125 459.0,514.875"/>
    <polyline points="458.0,515.25 451.0,517.5 442.25,519.625 429.625,521.875 416.5,523.625"/>
    <polyline points="414.0,523.875 395.5,525.625 386.875,526.125 378.125,526.25 367.375,525.5 363.375,524.375 362.125,523.625 361.5,522.625 361.625,521.5 363.0,520.125 365.625,518.375 370.0,516.5"/>
    <polyline points="376.625,514.375 385.625,512.125 397.625,510.0 412.5,508.25 430.375,507.125 450.75,507.0 472.75,508.375 495.25,511.375 516.875,516.25 536.625,522.75 553.5,530.5 567.375,539.125 578.125,548.0 586.125,556.75 591.875,565.0 595.75,572.625 598.125,579.375 599.5,585.375 600.125,594.5 599.75,598.0 598.375,602.625 596.625,605.125 595.625,605.75"/>
    <polyline points="594.75,605.875 593.0,605.375 590.625,603.0 588.375,598.0 587.5,593.625 587.25,589.375 588.0,583.875 589.25,580.25 591.125,577.0"/>
    <polyline points="591.875,576.125 595.625,572.875 599.0,571.125 601.625,570.25 604.5,569.75 609.25,569.5 616.375,570.625 620.25,571.875 626.375,574.75 630.75,577.625"/>
    <polyline points="633.0,579.25 639.75,585.625 644.25,591.25 648.625,598.125 652.625,606.375 656.25,616.25 658.875,627.75 660.375,640.875 660.375,647.875 660.0,655.125 659.0,662.5 657.375,669.875 655.125,677.125 652.0,683.875 648.25,690.125 643.625,695.5 638.25,699.75 632.25,702.875"/>
    <polyline points="625.625,704.5 618.5,704.5 611.25,703.125 603.75,700.125 596.25,695.625 588.875,690.0 581.875,683.375 575.125,675.875 569.0,667.75 563.25,659.375 558.0,650.875 553.25,642.375 545.25,626.0 536.25,604.125 530.0,586.25 522.125,561.125"/>
    <polyline points="521.25,558.0 516.75,543.875 514.375,537.5 510.875,529.875 508.625,526.125 507.25,524.5"/>
    <polyline points="506.875,524.0 504.75,521.875 501.75,519.875 499.375,518.875 495.375,518.125"/>
    <polyline points="494.75,518.0 487.875,517.875 476.125,518.875"/>
    <line x1="475.125" x2="439.5" y1="519.0" y2="522.75"/>
    <polyline points="437.625,523.0 416.5,524.5 409.75,524.75 401.25,524.625 396.125,524.0 393.875,523.375 393.375,522.875 393.25,522.25 393.75,521.625"/>
    <polyline points="395.0,520.875 397.0,520.0 404.0,518.25 409.375,517.25 416.0,516.5 424.0,515.75 433.375,515.375 444.0,515.375 455.625,515.875 468.0,516.875 480.625,518.75 493.125,521.25 505.125,524.375 516.125,528.125 526.0,532.375 534.5,536.75 541.625,541.375 547.5,545.75 552.0,550.0 555.5,553.875 558.125,557.25 560.0,560.25 562.125,564.75 562.5,566.375"/>
    <polyline points="562.625,567.375 562.625,568.125 562.25,568.5 561.125,566.25 560.625,563.0 560.75,557.875 561.25,555.125 562.875,549.75 566.375,543.625"/>
    <polyline points="567.25,542.5 572.5,537.25 575.0,535.25 580.75,531.625 585.625,529.125 595.125,525.125 608.625,520.5"/>
    <polyline points="611.125,519.75 637.125,511.625 650.75,506.875 658.125,503.875 669.625,498.25 677.625,493.375 685.875,487.125 690.0,483.375 694.0,479.0 698.0,473.875"/>
    <polyline points="702.0,468.0 705.75,461.125 709.125,453.0 712.25,443.375 714.75,431.875 716.5,418.125 717.125,401.875 716.25,382.5 713.375,359.5 707.75,332.75 698.5,302.0 684.625,267.875 665.0,231.875 639.125,196.875 606.875,167.25 569.625,147.875 530.125,143.0 491.75,154.625 457.625,181.0 429.875,217.75 409.0,259.5 394.375,301.5 384.75,340.5 379.125,374.875 376.25,404.0 375.625,428.125"/>
    <polyline points="376.625,447.5 378.875,462.875 382.125,474.875 386.375,484.0 391.375,490.875 397.0,495.625 403.125,498.875 409.75,500.75 416.75,501.625 423.875,501.5 431.0,500.875 438.0,499.625 444.75,498.0 457.5,494.25 491.75,481.625 498.625,480.0"/>
    <polyline points="500.5,479.75 505.0,479.875 509.375,481.5 511.75,483.375 514.375,486.125 520.0,493.25"/>
    <polyline points="520.5,493.75 522.375,495.75 525.25,498.0 529.375,499.875 533.5,500.625"/>
    <polyline points="534.125,500.625 538.125,500.75 544.375,500.0 554.875,497.375"/>
    <polyline points="556.0,497.0 563.0,494.5 568.25,492.25 575.25,488.625 581.25,484.875 585.875,481.5 590.625,477.375"/>
    <polyline points="592.25,475.75 597.0,470.5 600.0,466.375 605.625,456.125 608.875,446.5 610.5,438.875 611.0,434.75 611.25,430.375 611.0,420.875 610.5,415.625 608.375,404.75 604.5,393.25 601.875,387.5 598.75,381.75"/>
    <polyline points="595.25,376.125 591.125,370.875 586.5,366.0 581.375,361.75 576.0,358.25 570.125,355.625 564.125,353.875 557.875,353.25 551.625,353.625 545.375,355.125 539.375,357.75 533.5,361.375 528.125,365.875 523.0,371.125 518.5,377.0 514.375,383.375 510.625,390.0 507.5,396.75 502.375,410.25 498.875,423.25 496.5,435.0 495.125,445.5"/>
    <polyline points="494.75,450.25 494.125,462.5 494.25,472.25 495.125,484.0 496.625,496.625 496.875,501.0"/>
    <polyline points="496.875,501.75 496.75,504.375 495.625,508.125 494.125,510.25 491.625,512.25"/>
    <polyline points="491.25,512.5 484.75,515.125 474.25,517.5"/>
    <polyline points="473.25,517.75 457.625,520.25 437.375,522.625"/>
    <polyline points="435.5,522.875 422.75,524.0 409.0,524.75 397.75,524.75 392.25,524.125 389.875,523.375 389.25,522.875 389.125,522.25 389.625,521.5"/>
    <polyline points="390.875,520.625 396.125,518.75 400.5,517.625 413.625,515.625 432.75,514.375 444.5,514.25 457.375,514.875 470.875,516.125 484.75,518.25 498.25,521.125 511.0,524.75 522.625,529.125 532.875,533.875 541.5,538.875 548.625,543.875 554.25,548.625 558.625,553.25 561.875,557.375 565.75,564.125 567.375,568.75 567.625,570.25"/>
    <polyline points="567.625,571.375 567.375,572.375 567.0,572.375 566.375,571.625 565.5,567.875 565.5,564.0 566.375,558.625 568.375,553.25 570.625,549.5 572.5,547.25"/>
    <polyline points="573.5,546.125 575.625,544.0 579.375,541.0 582.25,539.125 586.875,536.625 590.375,535.125 598.125,532.25 604.625,530.375 611.875,528.625 619.875,527.125"/>
    <polyline points="622.625,526.625 638.125,524.625 648.5,523.875 659.875,523.5 672.375,523.75 686.125,525.125 696.0,527.0 701.125,528.375 706.5,530.0 712.0,532.125 717.75,534.75 723.75,538.125 729.875,542.125"/>
    <polyline points="736.25,547.25 742.75,553.75 749.5,561.75 756.5,571.75 763.625,584.25 770.625,600.0 777.5,619.625 783.875,644.25 789.0,674.75 791.875,711.875 791.25,756.0 784.75,806.125 770.0,859.0 744.625,908.25 707.625,944.875 661.125,959.875 610.25,948.875 561.125,914.625 518.875,865.375 485.625,810.5 461.5,757.25 445.125,709.625 435.25,669.375 430.5,636.375 429.875,609.875 432.875,589.125"/>
    <polyline points="438.875,573.0 447.375,560.75 458.0,551.875 470.25,545.75 483.375,542.125 496.875,540.625 510.0,541.0 522.25,542.75 533.25,545.625 542.75,549.25 550.625,553.5 556.875,557.75 561.75,562.0 565.375,566.0 568.0,569.5 569.75,572.625 571.375,577.375 571.5,578.875 571.125,580.625 570.125,580.875 568.5,579.0"/>
    <polyline points="568.0,577.875 566.875,574.0 566.375,569.5 566.75,563.25 567.875,558.75 568.875,555.875 571.0,551.875 572.75,549.375 575.75,546.0 578.125,544.0"/>
    <polyline points="579.5,543.0 580.75,542.0 586.75,538.5 595.875,534.75 602.0,532.875 616.625,529.75 627.875,528.25 634.125,527.75"/>
    <polyline points="637.375,527.5 651.375,527.25 663.125,527.875 675.875,529.75 685.25,532.0 690.0,533.5 700.25,537.75 705.625,540.625 711.125,544.125 716.875,548.5 722.75,553.75 728.75,560.125 735.0,568.0 741.375,577.75 747.75,589.625 754.0,604.25 760.0,622.25"/>
    <polyline points="765.5,644.125 769.75,670.75 772.25,702.375 771.75,739.25 766.75,780.625 755.625,824.25 736.5,865.875 708.625,899.5 672.75,918.75 631.625,919.0 589.625,900.0 550.75,865.75 517.75,822.75 491.75,777.125 472.375,733.5 458.75,694.5 450.0,660.875 444.875,632.875 443.0,610.125 443.625,591.75 446.375,577.125 451.0,565.75 457.0,557.0 464.25,550.625 472.375,546.0 481.125,543.0"/>
    <polyline points="490.0,541.5 498.75,541.0 507.125,541.5 514.875,542.75 521.875,544.5 528.0,546.625 533.25,549.0 541.0,553.625 545.875,557.75 549.125,561.625 549.625,562.875 548.875,561.875 547.875,559.25 547.0,555.75"/>
    <polyline points="546.75,554.5 546.125,547.875 546.375,543.875 547.375,539.0 548.125,536.625 550.125,532.375 552.875,528.5 555.25,525.875"/>
    <polyline points="556.25,525.0 561.25,520.875 566.0,517.75 571.5,514.625 592.125,504.125"/>
    <polyline points="594.125,503.0 598.375,500.75 607.125,495.375 611.875,492.125 616.625,488.375 623.875,481.625 631.125,472.875 633.375,469.5 637.875,461.5 641.75,451.875 644.875,440.0 646.0,433.125 646.625,425.625"/>
    <polyline points="646.875,417.25 646.5,408.0 645.5,398.0 643.625,387.125 640.75,375.5 636.625,363.125 631.375,350.25 624.625,337.25 616.375,324.375 606.625,312.25 595.375,301.625 582.75,293.0 569.125,287.125 554.875,284.5 540.5,285.625 526.625,290.25 513.5,298.375 501.625,309.25 491.125,322.375 482.125,336.875 474.75,352.125 468.875,367.375 464.125,382.125 460.625,396.125 458.0,409.25 456.125,421.125"/>
    <polyline points="454.875,431.75 453.75,449.875 453.625,457.375 454.0,469.625 454.25,474.625 455.25,482.75 459.125,504.625 459.0,507.0 458.625,508.375"/>
    <polyline points="458.25,509.0 457.625,510.125 454.875,512.625 449.875,515.25 441.75,518.0 434.25,519.75"/>
    <polyline points="432.5,520.125 416.875,523.0 402.25,525.0 391.0,526.25 368.375,527.875"/>
    <polyline points="364.875,528.125 350.875,528.125 341.375,527.0 336.625,525.375 335.125,524.125 334.75,522.625 335.625,520.625 338.5,518.25 343.625,515.375 352.0,512.0 364.25,508.375 381.25,504.625 403.25,501.375 430.125,499.375 460.875,499.25 493.5,502.0 525.5,507.875 554.25,516.875 578.25,528.375 596.875,541.5"/>
    <polyline points="610.375,555.125 619.625,568.625 625.375,581.5 628.875,593.25 630.5,603.875 630.875,613.25 630.25,621.5 629.125,628.625 627.375,634.625 625.375,639.75 623.0,643.875 620.375,647.125 617.5,649.5 614.375,651.125 611.25,652.0 607.875,652.25 604.625,651.75 601.25,650.625 597.875,648.875 594.5,646.75 591.25,644.125 588.125,641.125 582.25,634.25 577.0,626.5"/>
    <polyline points="574.625,622.5 570.375,614.5 565.25,602.625 560.625,588.25 559.125,581.75 557.375,570.5 557.125,565.625 557.375,557.25 558.875,550.125"/>
    <polyline points="559.375,548.625 561.125,544.25 562.625,541.625 564.375,539.125 569.625,533.75 573.375,530.875 579.25,527.25 589.625,522.25"/>
    <polyline points="591.625,521.375 622.75,509.125 634.625,503.75 647.5,496.625 654.25,492.0 661.125,486.25"/>
    <polyline points="664.625,482.875 671.375,474.875 674.75,470.0 677.875,464.375 680.875,458.0 683.625,450.75 686.125,442.25 688.0,432.5 689.375,421.25 689.875,408.125 689.375,393.125 687.375,375.75 683.625,356.125 677.5,334.125 668.625,310.0 656.375,284.5 640.25,258.875 620.125,235.0 596.25,215.25 569.375,202.25 541.125,198.25 513.25,204.25 487.375,219.625 465.0,242.75 446.75,270.625"/>
    <polyline points="432.625,300.75 422.25,330.625 415.0,358.75 410.25,384.0 407.5,406.25 406.125,425.125 406.0,441.125 406.625,454.375 407.875,465.25 409.625,474.125 411.75,481.25 414.25,486.875 416.875,491.25 419.75,494.75 422.875,497.25 426.0,499.25 429.125,500.625 435.5,502.125 441.625,502.5 447.375,502.25 455.125,501.375"/>
    <polyline points="457.375,501.125 466.625,500.0 472.5,500.25 475.375,501.25 476.625,502.375 477.5,504.625 477.25,506.0"/>
    <polyline points="477.125,506.5 475.875,508.875 472.875,511.5 470.25,513.125 467.0,514.625 460.875,516.625"/>
    <polyline points="459.75,517.0 452.0,518.875 437.125,521.5 415.75,524.0"/>
    <polyline points="413.25,524.25 397.75,525.375 384.625,525.375 378.0,524.75 374.75,523.75 373.875,523.0 373.625,522.25 374.125,521.25 375.625,520.0 378.25,518.625 382.375,517.125 388.25,515.5 396.25,513.875 406.25,512.375"/>
    <polyline points="418.75,511.0 433.375,510.375 449.875,510.375 467.75,511.5 486.125,513.75 504.25,517.375 521.125,522.25 536.25,528.125 549.125,534.75 559.625,541.75 567.875,548.875 574.125,555.625 578.75,561.875 581.875,567.625 583.875,572.625 585.125,576.875 585.75,580.375 585.875,585.5 585.125,588.25 584.625,589.0 583.5,589.25 582.5,588.375"/>
    <polyline points="582.125,587.625 581.25,584.5 581.125,580.75 581.625,576.875 583.375,571.75 585.5,568.25 588.25,565.25 591.625,562.625 595.625,560.625"/>
    <polyline points="597.125,560.0 605.5,558.125 609.375,557.875 613.5,558.0 617.875,558.5 622.625,559.5 627.5,561.0 632.75,563.125 641.125,567.75 647.0,572.125 653.0,577.875 656.0,581.25"/>
    <polyline points="659.0,585.125 662.0,589.375 667.875,599.75 670.625,605.875 673.25,612.75 675.625,620.375 677.625,628.625 679.25,637.875 680.375,647.75 680.875,658.5 680.5,669.75 679.125,681.5 676.75,693.375 673.0,705.0 667.875,716.125 661.375,726.0 653.375,734.0 644.0,739.875 633.625,743.125 622.25,743.25 610.5,740.375 598.75,734.625 587.125,726.375 576.0,716.125 565.875,704.25"/>
    <polyline points="556.5,691.625 548.125,678.5 540.875,665.375 534.5,652.625 529.0,640.5 524.25,629.125 516.625,609.0 502.125,563.75 497.375,550.25 493.25,541.625 490.375,537.25"/>
    <polyline points="489.375,536.125 487.375,534.0 484.375,531.625 481.25,529.75 477.875,528.375 470.75,526.5 460.125,525.375"/>
    <polyline points="458.625,525.25 429.5,524.875 423.0,524.25"/>
    <polyline points="422.5,524.0 422.0,523.625 423.625,522.875 434.75,521.625 452.625,522.0 464.0,523.125 476.0,525.125 487.875,527.875 503.375,533.0 511.5,536.75"/>
    <polyline points="514.875,538.5 522.0,543.125 527.0,547.375 524.125,542.75 521.5,537.375"/>
    <polyline points="521.125,536.375 518.0,529.0 514.875,520.375"/>
    <polyline points="514.75,520.0 512.375,513.25 512.375,512.0 526.125,509.0"/>
    <line x1="526.5" x2="540.0" y1="508.875" y2="505.375"/>
    <polyline points="540.75,505.25 555.25,500.625 566.0,496.25"/>
    <polyline points="567.375,495.625 577.5,490.5 585.375,485.375 590.375,481.5 593.75,478.5 598.75,473.25 603.625,466.75 606.625,461.625"/>
    <polyline points="608.125,458.75 610.75,452.5 613.75,441.25 614.875,432.375 615.125,427.5 615.0,422.25 613.875,411.0 611.0,398.875 608.875,392.5 606.25,386.0 603.125,379.625 599.25,373.25 594.875,367.25 590.0,361.625 584.5,356.625 578.5,352.5 572.125,349.25 565.375,347.0 558.5,346.0 551.5,346.375"/>
    <polyline points="544.625,348.0 537.875,350.75 531.5,354.875 525.375,359.875 519.875,365.75 514.875,372.375 510.375,379.5 506.375,386.875 503.0,394.5 500.125,402.0 495.75,416.5 492.75,429.875 491.75,436.125 490.5,447.125 489.875,456.75 489.625,468.375 490.125,479.875"/>
    <polyline points="490.375,482.25 491.625,496.625 491.625,502.125 491.0,505.5 489.75,508.125"/>
    <polyline points="489.5,508.625 486.375,511.75 484.25,513.0 481.125,514.375 474.75,516.375"/>
    <polyline points="473.75,516.625 461.625,519.125 439.625,522.125"/>
    <polyline points="437.75,522.375 423.125,523.875 406.75,524.875 397.375,524.875 391.25,524.5 387.125,523.375 386.625,522.75"/>
    <polyline points="386.5,522.125 387.125,521.25 388.5,520.375 390.875,519.375 399.25,517.125 413.625,515.0 423.25,514.125 434.375,513.625 447.125,513.75 460.875,514.5 475.25,516.0 489.75,518.375 503.875,521.75 516.875,525.875 528.625,530.625 538.75,535.75 547.125,541.0 553.875,546.375 559.125,551.375 563.125,556.125 566.125,560.375 568.125,564.0 570.25,569.625"/>
    <polyline points="570.75,571.625 570.75,574.125 570.5,574.75 569.875,575.0 569.0,573.25 568.375,570.125 568.625,564.875 569.125,562.125 571.125,556.75 572.5,554.25 574.25,551.875"/>
    <polyline points="575.125,550.75 577.25,548.5 582.125,544.5 588.125,541.125 593.25,538.875 601.125,536.375 605.5,535.375 610.25,534.375 620.625,533.0"/>
    <polyline points="623.375,532.75 632.375,532.375 642.25,532.625 653.0,533.75 660.75,535.125 664.875,536.125 673.375,538.875 682.375,542.75 687.125,545.375 692.0,548.375 697.125,552.125 702.25,556.625 707.5,561.875 713.0,568.25 718.5,576.0 724.0,585.25 729.5,596.25"/>
    <polyline points="734.875,609.5 739.875,625.375 744.25,644.25 747.75,666.5 749.5,692.375 749.125,721.875 745.375,754.25 737.25,788.125 723.625,821.125 704.0,849.5 678.375,869.25 648.0,876.875 615.125,870.75 582.625,852.0 552.875,823.5 527.125,789.5 506.375,753.75 490.125,719.125 477.875,687.375 469.25,659.5 463.375,635.5 459.75,615.375 457.875,598.75 457.625,585.0 458.5,574.0 460.5,565.0"/>
    <polyline points="463.25,558.0 466.75,552.5 470.625,548.25 475.0,545.125 479.5,542.875 484.25,541.375 488.875,540.5 493.375,540.125 497.625,540.125 501.75,540.5 511.625,542.625 516.375,544.25 522.25,547.125 523.0,547.25 522.625,546.25"/>
    <polyline points="522.25,545.75 513.625,531.25 510.5,526.625"/>
    <polyline points="510.125,526.125 508.5,524.0 505.75,521.25 503.375,519.625 500.0,518.25"/>
    <polyline points="499.5,518.125 495.125,517.5 489.25,517.5 484.875,517.875"/>
    <line x1="484.125" x2="456.625" y1="517.875" y2="521.0"/>
    <polyline points="455.125,521.125 429.875,523.625 416.75,524.5 405.625,524.75"/>
    <polyline points="403.5,524.75 396.125,524.125 393.75,523.375 393.125,523.0 392.875,522.375 394.25,521.0 398.75,519.375 402.625,518.375 414.0,516.625 430.875,515.375 452.875,515.5 465.125,516.5 477.875,518.125 490.625,520.5 502.875,523.625 514.25,527.25 524.375,531.5"/>
    <polyline points="533.25,535.875 540.75,540.5 546.875,545.0 551.625,549.25 555.375,553.25 558.125,556.875 561.5,562.5 563.125,567.5 563.125,568.375 562.75,568.875 561.875,567.625 561.25,564.875 561.0,561.125 561.375,557.125"/>
    <polyline points="561.625,555.75 563.25,550.375 564.5,547.875 566.75,544.25 570.625,539.75 574.125,536.75 578.125,534.0 584.375,530.5 587.875,528.875"/>
    <polyline points="589.625,528.125 602.0,523.5 611.625,520.375 644.5,510.625 659.0,505.375"/>
    <polyline points="662.875,503.875 670.75,500.25 678.875,495.875 683.0,493.25 687.25,490.25 695.75,482.875 700.0,478.25 704.125,473.0 708.125,466.75 711.875,459.375 715.375,450.75 718.5,440.375 720.875,427.875 722.5,413.0 722.75,395.0 721.25,373.625 717.375,348.125 710.25,318.375 698.875,284.375 681.875,247.125 658.5,208.75 628.0,173.25 591.0,145.75"/>
    <polyline points="549.75,131.875 507.875,135.5 469.0,156.625 436.375,191.625 411.25,234.625 393.375,279.75 381.5,322.75 374.25,361.125 370.5,393.75 369.375,420.75 370.0,442.625 372.25,459.75 375.75,473.125 380.375,483.25 385.75,490.75 392.125,495.875 399.125,499.25 406.625,501.125 414.625,501.875 422.625,501.5 430.875,500.375 438.875,498.75 454.0,494.375 467.375,489.375"/>
    <polyline points="473.25,487.0 494.875,477.75 500.5,475.75 506.75,474.375 511.25,474.5 514.5,475.75 517.75,478.25 521.125,482.0"/>
    <polyline points="521.75,482.75 525.75,487.5 529.875,491.125 534.375,493.5 537.125,494.25"/>
    <polyline points="537.875,494.375 540.875,494.875 546.875,494.75 551.625,494.0 556.875,492.75 561.375,491.25"/>
    <polyline points="562.625,490.75 566.375,489.25 573.0,486.0 580.125,481.5 583.0,479.25 587.5,475.375 591.875,470.75 594.75,467.125 597.5,463.0"/>
    <polyline points="598.875,460.75 602.375,453.0 604.375,447.0 605.75,440.125 606.625,432.5 606.75,428.375 606.125,419.5 604.5,409.875 603.125,405.0 599.25,394.75 596.75,389.75 593.875,384.75 586.75,375.625 582.5,371.75 578.0,368.25 573.125,365.5 568.0,363.375"/>
    <polyline points="562.75,362.125 557.25,361.75 551.75,362.25 546.375,363.75 541.125,366.0 536.125,369.25 531.375,373.125 526.875,377.625 522.75,382.625 519.125,388.125 515.75,393.75 510.25,405.625 504.625,423.125 502.375,433.875 500.875,443.625 499.75,456.125 499.625,466.25"/>
    <polyline points="499.75,469.25 500.125,476.75 501.0,484.625 504.0,502.375"/>
    <polyline points="504.125,502.875 504.125,508.25 502.875,510.75 502.0,511.625 500.125,512.75 495.875,514.25"/>
    <polyline points="495.375,514.375 490.625,515.5 480.25,517.25"/>
    <line x1="479.375" x2="448.5" y1="517.5" y2="521.625"/>
    <polyline points="446.875,521.75 425.375,523.875 409.5,524.75 400.75,524.75 395.125,524.25"/>
    <polyline points="393.625,524.0 391.5,523.125 391.0,522.625 391.125,522.0 391.875,521.25 393.375,520.5 399.375,518.5 410.125,516.625 426.625,515.0 437.0,514.75 448.625,514.875 461.25,515.625 474.375,517.125 487.625,519.375 500.5,522.375 512.5,526.0 523.5,530.25 533.0,534.875 541.0,539.625 547.625,544.375 552.875,549.0 556.875,553.25"/>
    <polyline points="559.875,557.0 562.125,560.375 563.625,563.25 565.125,567.5 565.375,569.875 565.0,570.625 564.375,570.125 563.625,567.875 563.25,565.75 563.25,561.875 564.125,556.375 565.5,552.375"/>
    <polyline points="566.125,551.125 568.25,547.375 570.0,545.0 574.25,540.75 579.5,536.875 587.375,532.625 596.875,528.875 601.25,527.5"/>
    <polyline points="603.5,526.75 618.5,522.75 627.125,520.875 674.25,511.625 687.625,508.625"/>
    <polyline points="692.375,507.5 702.125,505.0 717.5,500.0 728.375,495.375 733.875,492.5 739.5,489.0 745.0,484.875 750.625,479.875 756.125,473.875 761.5,466.375 766.5,457.0 771.125,445.25 775.0,430.375 777.625,411.5 778.5,387.375 776.75,356.5 770.75,317.5 758.5,269.0 737.375,211.0 704.0,146.25 655.875,82.5 593.5,33.75"/>
    <polyline points="522.5,15.75 453.375,37.125 396.0,92.625 354.875,166.625 328.875,243.125 314.5,311.75 308.0,368.625 307.0,413.375 310.375,447.125 317.25,471.875 327.875,489.125 342.0,500.25 359.25,506.125 379.25,507.625 401.0,505.25 423.375,500.0 445.25,492.5 465.375,483.375 483.375,473.5 498.75,463.5 511.375,453.75 521.5,444.5 529.5,436.125 535.375,428.5 539.75,421.875 542.625,416.25"/>
    <polyline points="544.375,411.5 545.25,407.5 545.375,404.375 544.875,402.125 543.875,400.5 542.625,399.625 541.0,399.375 539.25,399.625 537.5,400.5 533.625,403.625 530.0,408.25 525.25,416.875 522.75,423.375 520.0,433.25 518.375,442.75 517.75,448.625"/>
    <polyline points="517.625,451.375 517.5,459.0 517.875,465.625 518.625,471.125 520.0,477.375 521.25,481.125 523.5,486.125 525.5,489.125"/>
    <polyline points="526.125,489.75 528.75,492.5 531.75,494.375 535.625,495.75 539.25,496.375 542.375,496.375"/>
    <polyline points="543.125,496.375 548.5,495.875 557.75,493.625 564.875,491.0 570.125,488.625"/>
    <polyline points="571.5,487.875 578.5,483.75 584.5,479.375 592.125,472.125 596.5,466.625 600.625,459.875 604.125,451.625 606.0,445.25"/>
    <polyline points="606.75,441.75 607.375,438.0 608.0,430.0 607.625,421.0 606.25,411.25 603.375,400.875 601.375,395.625 598.875,390.25 596.0,385.125 592.75,380.125 588.875,375.375 584.75,371.0 580.125,367.25 575.125,364.0 569.875,361.625 564.5,360.0 558.875,359.375 553.125,359.625 547.5,360.875 542.0,363.0 536.625,366.125 531.625,370.0"/>
    <polyline points="526.875,374.5 522.5,379.75 518.625,385.25 515.125,391.25 512.0,397.375 509.25,403.5 507.0,409.75 503.375,421.75 502.0,427.375 500.0,438.0 498.5,451.875 498.125,459.625 498.125,469.375 499.25,483.25"/>
    <polyline points="499.375,485.0 501.625,499.75 502.0,504.125 501.875,506.25"/>
    <polyline points="501.75,506.75 501.25,508.75 500.125,510.5 498.375,512.0 496.875,512.75"/>
    <polyline points="496.5,513.0 492.875,514.375 483.25,516.5"/>
    <polyline points="482.5,516.625 469.375,518.875 454.875,520.75"/>
    <polyline points="453.375,521.0 425.375,523.875 409.5,524.75 402.75,524.75"/>
    <polyline points="400.625,524.75 393.375,524.0 391.125,523.25 390.625,522.75 390.75,522.125 391.375,521.375 392.875,520.5 398.625,518.625 409.25,516.625 416.625,515.75 425.625,515.0 435.875,514.625 447.625,514.75 460.25,515.5 473.375,516.875 486.75,519.125 499.875,522.0 512.125,525.75 523.125,530.0 532.875,534.625"/>
    <polyline points="541.0,539.375 547.75,544.25 553.125,548.875 557.25,553.125 562.5,560.5 564.0,563.375 565.625,567.75 565.875,570.125 565.5,571.0 564.875,570.625 564.625,570.0 563.75,566.125 563.75,562.375 564.375,558.25"/>
    <polyline points="564.625,556.875 566.0,552.875 567.25,550.25 569.625,546.625 572.5,543.25 577.25,539.25 580.0,537.375 588.0,533.125 593.625,530.875"/>
    <polyline points="595.5,530.125 606.5,526.75 631.125,521.125 655.375,517.0 671.375,514.625"/>
    <polyline points="675.75,514.0 714.75,508.5 743.75,503.75 762.875,499.625 776.375,495.625 783.25,493.125 790.375,490.0 797.375,486.25 804.5,481.375 811.625,475.25 818.5,467.25 825.0,456.625"/>
    <polyline points="831.0,442.5 835.875,423.5 839.0,397.5 839.0,362.0 834.0,313.5 820.375,248.25 792.75,163.75 743.625,63.25 694.9651,0.0"/>
    <polyline points="343.8023,0.0 292.875,93.25 257.75,211.75 242.0,311.625 238.375,388.0 243.375,443.0 256.75,481.0 279.25,505.0 311.25,517.125 351.75,518.5 397.375,510.5 443.0,494.875 484.375,474.125 518.375,450.625 544.125,426.25"/>
    <polyline points="561.875,402.5 572.75,380.0 578.0,359.125 578.375,340.375 574.875,324.125 568.25,310.625 559.25,300.25 548.5,293.75 536.625,291.0 524.375,292.375 512.375,297.375 501.125,305.875 490.875,316.875 482.0,329.875 474.625,344.125 468.5,358.625 463.75,373.25 460.125,387.125 457.5,400.25 455.75,412.375 454.625,423.375 454.0,442.125 454.625,456.75 455.25,462.75"/>
    <polyline points="456.0,468.0 457.75,476.5 459.5,483.125 461.25,488.125 465.875,498.75 467.125,502.375 467.375,505.875 466.75,507.625"/>
    <polyline points="466.5,508.25 463.875,511.25 460.375,513.5 454.625,515.875 444.25,518.875"/>
    <polyline points="442.75,519.125 430.5,521.5 412.875,524.0 391.25,526.0 385.25,526.25"/>
    <polyline points="382.25,526.375 373.25,526.5 364.75,526.0 360.25,525.0 358.5,524.25 357.375,523.375 357.0,522.25 357.625,520.875 359.5,519.25 363.125,517.375 368.75,515.125 376.875,512.75 388.0,510.375 402.25,508.125 419.875,506.375 440.625,505.625 463.5,506.25 487.5,508.75 511.125,513.125 533.0,519.5 552.125,527.375"/>
    <polyline points="567.875,536.375 580.25,546.0 589.375,555.5 595.875,564.75 600.25,573.25 603.0,580.875 604.5,587.625 605.125,593.375 605.25,598.25 604.875,602.25 604.125,605.5 602.25,609.875 600.0,612.25 597.625,612.75 595.375,612.0 592.375,609.25 590.625,606.75 589.125,603.75"/>
    <polyline points="588.5,602.125 587.125,597.25 586.375,592.375 586.375,587.75 587.0,583.375 588.25,579.5 590.875,575.125 592.625,573.25 596.875,570.375"/>
    <polyline points="598.125,569.75 602.125,568.5 605.125,568.0 610.125,567.875 615.625,568.75 619.5,569.75 623.75,571.375 630.25,575.0 637.25,580.375 642.0,585.25 646.75,591.125"/>
    <polyline points="649.0,594.625 651.25,598.5 655.5,607.5 659.125,618.125 661.875,630.5 663.125,644.75 663.0,652.375 662.375,660.125 661.125,668.125 659.125,676.0 656.375,683.625 652.75,690.625 648.25,697.0 642.875,702.25 636.75,706.375 630.0,708.875 622.625,709.75 614.875,709.0 606.875,706.5 598.875,702.375 591.0,696.75 583.375,690.0"/>
    <polyline points="576.125,682.125 569.375,673.75 563.125,664.875 557.375,655.75 552.25,646.75 543.625,629.25 540.0,621.0 534.0,606.0 529.25,592.875 518.0,557.75 513.0,543.5"/>
    <polyline points="512.25,541.75 509.0,534.625 507.25,531.5 504.875,528.25 501.375,524.75 497.125,522.125"/>
    <polyline points="496.5,521.875 492.5,520.625 488.875,520.0 485.625,519.75 476.5,519.875"/>
    <line x1="475.375" x2="439.25" y1="519.875" y2="523.0"/>
    <polyline points="437.375,523.125 420.75,524.375 405.75,524.625 400.375,524.25 396.625,523.375 396.0,522.375 396.375,521.75 397.5,521.125"/>
    <polyline points="399.25,520.375 402.0,519.5 410.625,517.875 424.0,516.375 432.625,516.0 442.375,516.0 453.125,516.375 464.625,517.25 476.5,518.75 488.5,521.0 500.0,523.875 510.75,527.125 520.5,531.0 529.0,535.125 536.375,539.25 542.375,543.5 547.25,547.5 551.0,551.25 556.0,557.5 557.5,560.0 559.375,564.875"/>
    <polyline points="559.375,565.625 559.125,566.125 558.625,565.625 557.625,562.25 557.375,559.875 557.5,554.625 558.625,549.25 560.125,545.5 562.875,540.625"/>
    <polyline points="563.75,539.5 566.5,536.375 571.0,532.375 577.875,527.875 589.875,522.0 602.625,516.875"/>
    <polyline points="604.875,516.0 626.0,507.625 635.0,503.375 644.625,498.25 654.625,491.375 661.5,485.625 665.0,482.125 671.75,473.875 678.25,463.25 681.125,456.625"/>
    <polyline points="683.875,449.125 686.25,440.5 688.0,430.5 689.25,418.875 689.5,405.5 688.75,390.0 686.5,372.375 682.25,352.25 675.75,330.0 666.25,305.625 653.375,280.125 636.625,254.75 615.875,231.625 591.5,213.0 564.375,201.5 536.25,199.25 508.625,207.0 483.5,223.875 461.875,247.75 444.375,276.125 431.0,306.25 421.125,335.75 414.5,363.375 410.125,388.0 407.625,409.625 406.5,428.0"/>
    <polyline points="406.375,443.5 407.125,456.25 408.375,466.75 410.25,475.25 412.375,482.125 414.875,487.5 417.625,491.875 420.5,495.125 423.5,497.625 429.75,500.75 432.875,501.625 439.0,502.5 445.0,502.5 466.5,500.25"/>
    <polyline points="467.875,500.125 473.875,500.875 476.25,502.625 476.875,503.875 477.0,505.25 476.625,506.75 475.125,509.0"/>
    <polyline points="474.75,509.5 470.875,512.5 465.125,515.125 459.75,516.875 452.125,518.75"/>
    <polyline points="450.625,519.0 439.25,521.125 429.5,522.5 411.125,524.5 398.125,525.375"/>
    <polyline points="395.375,525.375 384.875,525.5 378.0,524.875 374.5,523.875 373.5,523.25 373.0,522.5 373.25,521.5 374.375,520.375 376.75,519.0 380.5,517.5 385.875,515.875 393.25,514.25 402.875,512.625 414.75,511.25 428.875,510.25 445.125,510.125 462.875,510.875 481.375,512.875 499.875,516.25 517.375,520.875"/>
    <polyline points="533.125,526.5 546.75,533.125 557.875,540.125 566.75,547.25 573.5,554.25 578.5,560.75 582.0,566.625 584.25,571.875 585.625,576.375 586.75,583.25 586.375,587.5 585.375,589.625 584.875,590.0 584.25,590.125 583.75,589.875 582.375,587.75 581.875,585.75 581.625,582.0"/>
    <polyline points="581.625,580.625 582.0,578.0 583.625,572.875 585.625,569.375 589.375,565.375 594.125,562.25 597.0,561.0 603.375,559.375 607.0,559.0"/>
    <polyline points="608.875,558.875 615.125,559.125 619.5,559.875 621.875,560.375 629.25,562.875 634.5,565.25 640.0,568.5 642.875,570.5 648.625,575.5 654.625,581.75 660.5,589.75 663.375,594.5 666.25,599.75 668.875,605.75 671.5,612.375 673.75,619.625"/>
    <polyline points="675.75,627.75 677.375,636.5 678.5,646.125 679.0,656.375 678.75,667.125 677.5,678.375 675.375,689.875 671.875,701.125 667.125,711.875 661.0,721.5 653.625,729.625 644.75,735.625 634.875,739.25 624.125,739.875 612.875,737.75 601.5,732.875 590.25,725.5 579.375,716.0 569.25,705.0 560.0,692.875 551.625,680.25 544.25,667.625 532.125,643.25 523.125,621.375"/>
    <polyline points="519.5,611.75 516.375,603.0 503.0,561.5 498.375,548.875 495.375,542.5 493.5,539.25 488.625,533.5 485.5,531.125"/>
    <polyline points="450.75,524.75 432.75,524.875 423.875,524.625 419.5,523.875 419.25,523.375 419.625,523.125"/>
    <polyline points="420.25,522.75 423.0,522.125 430.875,521.25 438.875,521.0 449.25,521.25 461.375,522.25 474.375,524.125 481.0,525.5 493.625,528.75 504.75,532.625 513.75,536.75 517.375,538.75 523.125,542.5 526.875,545.375"/>
    <polyline points="528.25,546.5 530.625,549.125 529.125,546.75 527.125,542.375 524.25,533.75"/>
    <polyline points="524.0,532.875 522.625,525.25 522.625,521.25 523.5,517.75"/>
    <polyline points="523.625,517.375 524.75,515.375 526.0,514.0 529.875,511.25 531.25,510.625"/>
    <polyline points="531.75,510.375 539.25,507.375 549.0,504.0"/>
    <polyline points="550.0,503.625 558.5,500.5 570.0,495.5 577.375,491.625 582.125,488.75"/>
    <polyline points="583.75,487.625 592.125,481.375 599.0,474.625 602.375,470.5 605.625,465.75 610.125,457.375 611.5,454.125 613.75,447.0 615.5,438.625 616.375,429.25 616.125,418.5"/>
    <polyline points="615.5,412.75 614.5,406.625 613.0,400.25 611.0,393.75 608.5,387.125 605.375,380.375 601.75,373.75 597.375,367.375 592.5,361.5 587.0,356.0 580.875,351.375 574.375,347.625 567.5,345.0 560.375,343.625 553.125,343.625 546.0,344.875 538.875,347.5 532.125,351.5 525.75,356.5 520.0,362.5 514.625,369.25 509.875,376.5 505.75,384.125 502.125,391.875 496.5,407.375"/>
    <polyline points="494.375,414.875 491.375,428.75 490.375,435.125 488.875,446.625 488.25,456.375 488.25,474.875 490.0,498.125"/>
    <polyline points="490.0,499.125 489.375,504.75 488.25,507.625 486.125,510.375 482.5,512.875"/>
    <polyline points="481.875,513.125 476.875,515.25 471.625,516.75 457.375,519.625"/>
    <polyline points="456.0,519.75 448.25,521.0 431.625,523.0 416.125,524.375 406.5,524.875"/>
    <polyline points="404.125,524.875 394.875,524.875 390.75,524.5 386.25,523.5 385.5,522.875 385.375,522.25 385.75,521.5 389.125,519.625 397.0,517.25 410.875,515.0 420.375,514.0 431.5,513.375 444.125,513.375 458.0,514.0 472.625,515.375 487.5,517.625 502.0,520.875"/>
    <polyline points="515.5,525.0 527.75,529.75 538.25,534.875 547.125,540.375 554.25,545.875 559.875,551.125 564.0,556.0 567.125,560.375 570.75,567.5 571.625,570.25 572.125,574.0 572.125,575.125 571.625,576.125 570.875,575.875 570.5,575.25 569.75,572.625 569.75,567.625"/>
    <polyline points="569.875,566.375 570.75,562.25 572.25,558.25 574.5,554.5 577.25,551.0 580.75,547.875 586.125,544.25 596.375,539.875"/>
    <polyline points="598.375,539.375 606.875,537.25 619.375,535.625 634.0,535.375 640.5,535.875 651.125,537.5 658.75,539.375 666.75,542.125 675.375,546.0"/>
    <polyline points="679.875,548.625 684.5,551.625 694.0,559.5 699.0,564.5 704.125,570.625 709.25,577.75 714.375,586.25 719.5,596.375 724.375,608.375 729.0,622.5 733.125,639.125 736.375,658.625 738.5,681.0 738.625,706.5 736.25,734.375 730.375,764.0 720.25,793.375 705.125,820.125 685.0,841.125 660.25,853.375 632.375,854.75 603.375,845.0 575.25,825.25 549.875,798.625 528.125,768.125"/>
    <polyline points="510.25,736.625 496.125,706.25 485.25,678.5 477.25,653.875 471.625,632.5 467.75,614.25 465.5,599.0 464.375,586.375 464.25,575.875 465.0,567.375 466.25,560.5 468.125,554.875 470.5,550.5 473.0,547.0 475.875,544.375 478.875,542.375 481.875,541.0 485.0,540.0 488.0,539.375 493.5,538.875 500.5,539.5 504.0,540.25"/>
    <polyline points="505.5,540.5 508.375,541.375 509.75,541.5 509.25,540.375 507.5,538.5 500.75,532.5"/>
    <polyline points="500.0,531.875 494.375,528.25 489.125,525.875 483.25,524.25 476.875,523.25"/>
  </g>
</svg>
