<?xml version="1.0" encoding="utf-8" ?>
<svg xmlns="http://www.w3.org/2000/svg" xmlns:cc="http://creativecommons.org/ns" xmlns:dc="http://purl.org/dc/elements/1.1/" xmlns:ev="http://www.w3.org/2001/xml-events" xmlns:inkscape="http://www.inkscape.org/namespaces/inkscape" xmlns:rdf="http://www.w3.org/1999/02/22-rdf-syntax-ns" xmlns:sodipodi="http://sodipodi.sourceforge.net/DTD/sodipodi-0.dtd" xmlns:xlink="http://www.w3.org/1999/xlink" baseProfile="tiny" height="27.09333333cm" version="1.2" viewBox="0 0 1024.0 1024.0" width="27.09333333cm">
  <metadata>
    <rdf:RDF>
      <cc:Work>
        <dc:format>image/svg+xml</dc:format>
        <dc:source>vpype read './original_svgs/Strange Attractors #244.svg' linemerge linesimplify write './Strange Attractors #244.svg'
</dc:source>
        <dc:date>2024-08-05T01:35:41.052760</dc:date>
      </cc:Work>
    </rdf:RDF>
  </metadata>
  <defs/>
  <g fill="none" id="layer1" inkscape:groupmode="layer" inkscape:label="1" stroke="black" stroke-width="0.7mm" style="display:inline">
    <polyline points="723.375,663.25 728.5,653.5 731.875,652.75 733.0,659.5 731.375,672.875 725.75,692.125 714.875,716.125 697.125,743.25 671.375,770.875 637.625,795.25 597.5,812.625 554.625,820.25 513.625,817.875 478.0,807.875 449.75,793.5 428.875,778.375 414.625,764.875 405.375,754.0 400.125,746.125 397.625,741.375 397.375,739.0 398.75,738.5 410.5,743.125 416.25,745.0"/>
    <polyline points="422.75,746.125 429.625,746.375 437.0,745.625 444.375,743.5 451.625,740.125 458.875,735.5 465.625,729.875 472.0,723.25 477.875,716.0 483.25,708.125 488.0,700.0 495.875,683.25 499.0,675.0 504.125,659.125 507.875,644.5 510.625,631.125 513.375,613.875 515.125,599.375"/>
    <polyline points="515.5,595.0 519.5,556.75 521.25,546.5 523.25,539.0"/>
    <polyline points="523.625,538.0 525.125,534.375 527.75,530.25 531.25,527.125 536.25,525.125"/>
    <polyline points="536.875,525.0 542.25,524.375 546.75,524.5 554.125,525.375 561.625,526.875"/>
    <polyline points="563.0,527.125 575.5,530.5 582.75,532.875 590.75,536.0 595.125,537.875 604.375,542.625 611.75,547.25"/>
    <polyline points="614.375,549.0 617.0,550.875 622.25,555.375 627.625,560.625 630.25,563.625 635.375,570.5 640.125,578.75 644.125,588.875 645.75,594.625 647.0,600.875 647.625,607.75 647.75,615.25 647.25,623.25 645.75,631.75 643.25,640.75 639.625,650.125 634.75,659.625 628.375,669.0 620.75,677.875 611.625,686.125 601.25,693.25"/>
    <polyline points="590.0,698.875 578.125,702.75 566.0,704.875 554.0,705.125 542.625,703.75 532.125,700.75 522.625,696.5 514.375,691.375 507.25,685.625 501.375,679.375 496.375,673.125 492.375,666.75 489.25,660.5 486.625,654.375 483.0,642.75 480.75,632.125 479.25,622.375 476.5,598.0"/>
    <polyline points="476.0,594.5 475.125,588.0 472.75,576.5 470.5,569.0 467.875,562.5 464.75,556.625 460.0,549.875 456.0,545.375 451.5,541.375"/>
    <polyline points="449.875,540.125 444.75,536.625 439.125,533.375 430.75,529.375 416.375,523.75 390.0,514.5"/>
    <polyline points="386.625,513.25 372.375,507.375 364.75,503.625 360.875,501.375 352.75,496.375 348.625,493.375 340.125,486.0 335.75,481.625 331.5,476.5 327.125,470.5 323.0,463.625 318.875,455.625 315.0,446.125 311.5,435.0 308.375,422.0 306.0,406.5 304.625,388.5 304.625,367.375 306.5,342.875 310.875,315.125"/>
    <polyline points="318.5,284.25 330.375,251.25 347.125,217.875 369.25,187.0 396.375,162.0 427.25,146.375 459.875,142.125 491.875,149.875 520.875,167.625 545.5,192.125 565.25,219.875 580.125,247.75 591.0,273.625 598.375,296.5 603.0,316.0 605.625,332.0 606.5,345.0 606.25,355.25 604.75,363.375 602.625,369.75 599.75,374.625 596.375,378.625 592.5,381.75 588.5,384.5 579.75,389.125"/>
    <polyline points="575.25,391.375 562.25,398.375 554.5,403.625 547.75,409.25 544.75,412.25 539.5,418.375 537.25,421.5 533.5,427.75 529.25,436.75 525.625,448.125 524.5,453.25 523.375,460.5"/>
    <polyline points="523.125,462.75 522.375,472.875 522.5,482.75 523.5,491.625 525.125,498.25"/>
    <polyline points="525.375,499.125 526.875,502.75 530.0,507.375 531.875,509.25 536.5,512.375"/>
    <polyline points="537.125,512.75 539.875,514.25 545.5,516.625 560.75,521.625"/>
    <polyline points="562.125,522.125 570.875,524.875 587.125,530.625 600.25,536.375 610.125,541.625"/>
    <polyline points="612.625,543.25 620.75,548.875 629.125,556.0 634.75,562.0 637.5,565.5 642.75,573.5 645.25,578.125 647.5,583.25 649.5,588.875 651.125,595.125 652.375,602.0 653.125,609.5 653.125,617.625 652.25,626.5 650.5,636.0 647.5,645.875 643.125,656.25 637.25,666.625 629.75,676.875 620.625,686.625"/>
    <polyline points="610.0,695.25 598.0,702.5 585.0,707.875 571.625,711.25 558.125,712.5 545.125,711.625 533.125,709.0 522.25,704.75 512.625,699.375 504.5,693.375 497.75,686.75 492.125,680.0 487.625,673.25 484.125,666.625 479.125,654.125 477.375,648.25 476.125,642.625 474.25,632.25 471.375,606.75"/>
    <polyline points="471.0,603.125 469.0,590.125 467.75,584.5 466.375,579.25 462.875,570.125 459.625,564.125 456.0,558.875 450.375,552.875 445.625,549.0"/>
    <polyline points="443.875,547.75 440.25,545.5 432.375,541.5 423.5,538.125 416.0,536.0 410.75,534.75 399.125,532.625 389.5,531.375 379.125,530.5"/>
    <polyline points="375.5,530.375 359.75,530.125 346.75,530.875 342.125,531.375 332.625,533.0 322.625,535.375 312.125,539.125 306.625,541.75 301.0,545.0 295.25,548.875 289.375,553.875 283.5,559.875 277.5,567.5 271.5,576.875 265.625,588.625 260.0,603.375 255.0,622.0 250.75,645.25"/>
    <polyline points="248.0,674.25 247.75,710.25 251.375,753.875 260.75,805.125 278.25,862.125 306.375,920.0 346.25,970.25 396.125,1002.5 450.875,1009.375 503.625,990.5 548.625,953.125 583.25,907.5 607.875,862.5 624.0,823.5 633.5,792.875 638.0,770.625 638.5,756.0 635.5,747.5 629.5,743.625 620.875,743.0 596.5,745.75 581.875,746.875 566.5,746.625 551.125,744.75 536.375,741.0"/>
    <polyline points="522.875,735.625 510.875,729.0 500.75,721.5 492.25,713.625 485.5,705.5 480.125,697.625 475.875,689.875 472.75,682.625 470.5,675.625 468.75,669.25 466.75,657.375 465.625,642.125 465.25,617.5 464.625,607.375 463.875,601.25"/>
    <polyline points="463.5,598.375 462.5,592.875 460.5,585.375 457.875,578.875 455.875,574.875 453.625,571.25 451.125,567.875 445.5,562.125 438.875,557.375 433.25,554.5"/>
    <polyline points="431.25,553.625 427.125,552.125 420.375,550.375 413.0,549.25 407.75,548.875 402.125,548.875 393.125,549.625 383.5,551.5 373.0,555.125 365.75,558.875 358.125,563.875"/>
    <polyline points="354.25,567.125 346.375,575.25 342.5,580.375 338.625,586.375 334.75,593.375 331.125,601.5 327.75,611.0 324.625,622.125 322.0,635.0 320.125,649.75 319.125,666.875 319.5,686.25 321.5,708.0 325.625,731.875 332.5,757.375 342.5,783.5 356.125,808.75 373.375,831.125 393.875,848.625 416.875,859.375 441.125,862.0 465.0,856.75 487.5,844.5 507.375,827.25 524.125,806.875"/>
    <polyline points="537.875,785.375 548.75,764.375 557.125,744.75 563.375,727.0 568.0,711.5 571.25,698.125 573.375,686.75 574.75,677.25 575.5,669.375 575.75,662.875 575.5,657.5 574.125,649.375 573.125,646.25 571.875,643.5 569.125,639.25 561.375,630.75 555.75,623.875"/>
    <polyline points="554.625,622.125 551.5,616.5 549.875,612.5 548.25,606.625 547.375,600.625 547.125,594.875 548.125,586.0 549.375,581.25 551.125,577.125"/>
    <polyline points="551.75,575.875 554.625,571.25 557.25,568.5 561.125,565.75 564.375,564.25 568.0,563.375 570.5,563.125 574.5,563.25 578.75,564.0"/>
    <polyline points="580.25,564.375 587.875,567.625 594.0,571.875 598.625,576.25 602.875,581.75 604.25,583.875 606.5,588.625 608.5,594.0 610.125,603.125 610.125,610.0"/>
    <polyline points="609.625,613.625 608.0,621.125 604.875,628.75 600.25,636.0 597.375,639.375 594.25,642.625 590.75,645.5 586.875,648.0 582.875,650.125 578.625,651.75 574.25,652.875 569.875,653.5 565.375,653.625 561.125,653.25 556.875,652.375 549.125,649.25 545.625,647.125 539.5,641.875 536.875,639.0 532.5,632.5"/>
    <polyline points="530.625,629.125 529.0,625.625 525.625,615.125 523.25,601.5 522.75,595.125 522.625,586.125 522.875,578.0 524.125,566.25 525.5,558.5"/>
    <polyline points="525.875,556.75 528.5,547.75 530.0,544.25 532.25,540.25 534.75,537.125 536.125,535.875 538.25,534.25 540.625,533.0"/>
    <polyline points="541.5,532.625 544.125,531.625 546.875,531.0 551.0,530.625 555.5,530.625 562.0,531.25 570.875,533.0"/>
    <polyline points="572.5,533.375 577.625,534.75 587.125,538.0 593.375,540.625 602.375,545.25 607.125,548.125 614.5,553.375 622.125,560.25 627.125,565.875"/>
    <polyline points="629.5,569.0 634.25,576.375 636.375,580.625 640.0,590.25 641.5,595.75 642.5,601.75 643.125,608.25 643.125,615.25 642.5,622.75 641.125,630.625 638.75,639.0 635.375,647.5 630.875,656.25 625.125,664.75 618.125,673.0 610.0,680.5 600.75,687.0 590.5,692.375 579.875,696.25 568.875,698.375 557.875,699.0 547.375,698.125 537.625,695.75 528.625,692.125"/>
    <polyline points="520.625,687.75 513.75,682.5 507.875,676.875 502.875,671.0 498.75,665.0 495.375,659.0 490.5,647.25 487.375,636.25 485.375,626.0 484.0,616.625 481.0,589.375 478.375,574.25"/>
    <polyline points="477.875,571.625 474.25,559.875 471.625,553.875 468.625,548.5 465.25,543.75 461.5,539.375 455.875,534.25 449.5,529.625"/>
    <polyline points="447.875,528.625 436.5,522.25 401.875,506.0 395.875,502.75 386.5,496.875"/>
    <polyline points="383.25,494.625 379.875,492.25 373.125,486.5 366.25,479.5 362.75,475.375 359.375,470.75 355.875,465.5 349.375,453.0 346.375,445.375 343.625,436.875 341.125,427.0 339.125,416.0 337.75,403.375 337.25,389.125 337.625,373.125 339.5,355.375 342.875,336.0 348.375,315.125 356.125,293.375 366.625,271.625 380.0,251.0 396.125,233.0 414.75,219.0"/>
    <polyline points="435.125,210.5 456.375,208.25 477.25,212.25 496.875,221.875 514.5,236.0 529.5,253.0 542.125,271.375 552.125,290.0 559.875,307.875 565.875,324.5 570.125,339.625 573.25,352.875 575.25,364.625 576.5,374.875 577.125,383.625 577.125,397.875 576.625,403.625 575.875,408.75 574.0,417.125 570.875,426.75 568.75,432.125"/>
    <polyline points="567.75,434.5 562.875,447.25 561.875,451.125 560.625,458.375 560.5,463.5 560.875,468.25 561.875,472.75 564.0,478.375"/>
    <polyline points="564.625,479.625 566.875,483.375 569.625,486.875 571.625,489.0 577.625,494.0 588.25,500.125 597.5,504.0"/>
    <polyline points="599.625,504.75 613.375,509.5 636.0,516.625 649.625,521.375 664.875,528.0 677.5,535.125"/>
    <polyline points="681.875,538.125 686.375,541.5 695.625,550.0 700.25,555.25 704.75,561.5 709.25,568.625 713.375,577.125 717.125,587.25 720.25,599.125 722.25,613.125 722.625,629.75 720.75,649.0 715.625,671.125 706.25,695.75 691.375,722.0 670.0,748.125 641.875,771.75 608.0,789.875 570.875,800.25 533.875,802.0 500.25,796.125 472.0,785.25 450.0,771.875 433.875,758.625 422.75,746.625"/>
    <polyline points="415.375,737.0 411.0,729.625 408.875,724.5 408.25,721.125 409.0,719.375 410.75,718.625 413.25,718.5 424.625,719.5 429.25,719.375 434.125,718.625 439.125,717.25 444.25,715.125 449.375,712.25 454.25,708.75 459.0,704.5 463.5,699.75 467.75,694.5 475.25,682.75 481.25,670.375 483.875,664.0 488.125,651.5"/>
    <polyline points="489.875,645.375 492.5,633.75 494.5,622.875 496.375,608.0 497.375,595.125 497.625,587.5 497.5,574.125 497.125,565.75 495.5,551.875"/>
    <polyline points="495.25,550.0 493.25,541.375 491.25,535.625 489.125,530.75 485.25,524.625 480.625,519.625"/>
    <polyline points="479.75,518.875 477.125,516.625 470.0,511.875 462.75,507.875 449.625,501.375"/>
    <polyline points="448.125,500.625 431.75,491.625 421.5,484.5 415.0,479.0 406.125,469.625 401.75,463.75 397.5,456.875"/>
    <polyline points="395.5,453.0 393.5,448.875 390.0,439.375 387.125,428.25 386.0,422.0 385.25,415.25 384.75,408.0 384.75,400.25 385.25,392.0 386.25,383.375 387.875,374.375 390.125,365.125 393.25,355.75 397.125,346.25 401.875,337.25 407.5,328.625 414.0,320.875 421.25,314.125 429.25,308.875 437.625,305.125 446.375,303.125 455.25,303.0 464.125,304.75 472.625,308.125"/>
    <polyline points="480.75,313.0 488.375,319.25 495.25,326.375 501.375,334.25 506.875,342.625 511.625,351.125 515.75,359.75 519.25,368.125 524.75,384.25 528.5,398.875 531.125,411.75 533.5,428.25 536.75,461.75"/>
    <polyline points="537.0,464.375 537.875,471.625 539.375,479.625 542.25,489.125 545.375,495.25 548.375,499.5 551.0,502.25"/>
    <polyline points="551.875,503.125 555.875,506.5 562.875,511.0 572.875,515.875 587.25,521.75"/>
    <polyline points="589.25,522.625 600.25,527.25 612.875,533.25 624.25,539.75 633.375,546.25 639.625,551.625 646.0,558.25 649.125,562.0 652.25,566.25 655.25,571.0 658.0,576.25"/>
    <polyline points="660.625,582.25 663.0,588.875 664.875,596.25 666.25,604.5 666.875,613.625 666.625,623.625 665.25,634.75 662.5,646.625 657.875,659.25 651.375,672.25 642.625,685.25 631.625,697.75 618.375,709.125 603.25,718.5 586.625,725.5 569.375,729.625 552.125,730.625 535.75,729.0 521.0,724.875 508.0,719.0 497.0,712.0 487.875,704.375 480.75,696.5 475.0,688.75 470.75,681.25 467.375,674.25"/>
    <polyline points="465.0,667.625 463.125,661.5 460.875,650.625 459.375,636.75 458.375,618.375 457.125,606.625 455.0,596.625 452.75,590.25 450.0,584.625"/>
    <polyline points="448.875,582.875 445.375,578.25 441.375,574.25 436.75,571.0 429.875,567.75 424.0,566.25 417.625,565.5 410.625,565.75 403.25,567.125"/>
    <polyline points="400.625,568.0 395.25,570.0 392.5,571.375 389.625,573.0 384.0,577.0 378.125,582.25 372.375,589.125 366.75,598.0 361.5,609.5 359.25,616.25 357.125,624.0 355.375,632.5 354.0,642.125 353.25,652.75 353.125,664.375 353.875,677.125 355.625,690.75 358.5,705.25 362.875,720.125 368.625,735.125"/>
    <polyline points="376.125,749.5 385.25,762.875 395.875,774.375 408.0,783.25 421.125,788.875 434.875,791.125 448.75,789.625 462.25,784.75 474.875,776.875 486.5,766.625 496.75,754.875 505.625,742.0 513.25,728.875 519.625,715.875 524.875,703.25 529.25,691.25 532.75,680.125 535.625,669.75 541.375,644.0 546.0,614.75"/>
    <polyline points="546.625,610.375 548.75,596.5 550.375,588.75 552.25,582.75 553.625,579.375 556.75,574.0 559.375,571.0 562.375,568.75 565.625,567.25"/>
    <polyline points="566.75,566.875 571.5,566.0 575.375,566.125 580.875,567.375 585.25,569.125 591.125,572.75 594.0,575.25 598.25,579.625 600.75,583.25"/>
    <polyline points="602.0,585.25 604.125,589.75 605.875,594.625 607.0,600.25 607.375,606.25 606.875,612.875 606.25,616.25 604.0,623.125 602.5,626.5 600.625,629.875 595.875,636.25 593.0,639.125 586.5,644.125 579.125,647.625 575.25,648.75 567.375,649.625"/>
    <polyline points="563.375,649.5 559.625,648.875 555.875,647.75 549.125,644.5 546.125,642.375 543.25,640.0 540.75,637.375 536.375,631.5 534.625,628.375 533.0,625.25 530.5,618.75 528.0,608.875 526.5,596.375 526.5,582.375"/>
    <polyline points="526.75,579.875 527.125,575.0 528.5,566.375 529.75,560.75 531.75,554.375 535.375,546.875 537.375,544.0 539.625,541.625"/>
    <polyline points="540.5,540.875 543.0,539.0 546.625,537.125 552.875,535.5 561.625,535.25 568.875,536.125"/>
    <polyline points="570.5,536.5 577.125,538.0 584.5,540.375 590.5,542.75 596.875,545.75 601.375,548.25 606.0,551.125 613.125,556.5 617.875,560.875 622.75,566.125"/>
    <polyline points="625.125,569.0 627.375,572.25 631.625,579.625 635.25,588.375 636.75,593.375 637.875,598.75 638.625,604.625 639.0,610.875 638.75,617.625 637.875,624.75 636.125,632.25 633.625,640.125 630.125,648.0 625.625,656.0 619.875,663.75 613.25,671.0 605.5,677.625 596.875,683.375 587.5,687.875 577.625,691.125 567.625,693.0 557.75,693.25 548.125,692.25 539.25,690.0"/>
    <polyline points="531.0,686.75 523.75,682.5 517.375,677.75 511.875,672.5 507.25,666.875 503.25,661.25 500.125,655.5 497.5,649.875 493.625,638.875 490.125,623.5 488.75,614.25 485.5,583.75 484.125,574.75"/>
    <polyline points="483.75,571.875 481.5,561.875 480.125,557.375 478.75,553.375 474.5,544.375 471.5,539.75 468.25,535.625 463.375,530.625 460.75,528.375"/>
    <polyline points="459.375,527.25 453.375,523.0 444.875,518.0 419.375,504.75 409.25,498.875"/>
    <polyline points="406.5,497.125 398.25,491.375 389.5,484.0 383.625,477.875 377.625,470.5 371.875,461.5 369.0,456.25 366.375,450.375 363.75,443.875 361.5,436.625 359.5,428.5 357.75,419.375 356.625,409.375 356.0,398.25 356.125,385.875 357.125,372.5 359.125,358.0 362.5,342.625 367.5,326.5"/>
    <polyline points="374.0,310.125 382.5,294.0 392.875,279.0 405.0,265.875 418.75,255.5 433.625,248.625 449.375,245.75 465.0,246.875 480.25,252.125 494.375,260.625 507.125,271.875 518.25,284.75 527.625,298.75 535.5,313.0 541.875,326.875 547.0,340.25 551.0,352.625 554.125,364.125 556.375,374.5 558.125,383.875 560.125,400.0 560.75,406.75 561.25,423.375"/>
    <polyline points="561.125,428.0 560.25,451.0 560.5,462.125 561.25,467.75 563.0,474.25 565.375,479.875 567.0,482.375"/>
    <polyline points="567.75,483.625 572.75,489.375 576.25,492.375 581.75,496.125 591.625,501.125 599.25,504.25 605.75,506.5"/>
    <polyline points="608.125,507.25 645.375,519.0 656.25,523.125 664.0,526.5 672.25,530.625 680.875,535.875 690.0,542.625 694.625,546.75"/>
    <polyline points="699.25,551.625 704.0,557.25 708.625,563.75 713.0,571.625 717.125,580.75 720.625,591.625 723.375,604.5 724.875,619.875 724.375,637.75 721.25,658.625 714.375,682.375 702.5,708.5 684.375,735.5 659.375,761.5 627.625,783.5 591.0,798.625 552.625,805.0 515.875,802.75 484.0,793.75 458.25,781.0 439.0,767.125 425.375,754.25 416.125,743.375 410.5,734.875 407.375,728.875 406.125,725.0"/>
    <polyline points="406.5,722.875 408.0,722.0 410.375,722.0 422.0,723.875 426.75,724.125 432.0,723.75 437.375,722.625 442.875,720.75 448.25,718.0 453.625,714.5 458.875,710.25 463.75,705.375 468.375,699.875 476.5,687.625 480.0,681.125 483.125,674.5 485.875,667.875 490.5,654.625 493.875,642.0 496.375,630.25"/>
    <polyline points="497.375,624.625 500.0,604.625 500.875,592.0 501.25,581.0 501.25,571.5 500.75,558.5 499.75,548.25 499.125,544.75"/>
    <polyline points="498.875,543.125 497.375,536.0 494.625,528.125 492.75,524.5 490.625,521.375 487.5,518.0"/>
    <polyline points="486.875,517.375 483.375,514.375 475.625,509.625 463.5,503.875"/>
    <polyline points="462.25,503.25 447.75,496.625 439.25,492.125 428.0,484.875 419.875,478.375"/>
    <polyline points="417.875,476.5 413.75,472.375 409.5,467.5 403.375,458.75 399.5,451.625 396.0,443.375 394.5,438.75 393.0,433.75 390.75,422.625 389.625,409.875 389.625,402.875 390.75,387.625 392.125,379.5 394.125,371.125 396.75,362.75 400.125,354.375 404.25,346.125"/>
    <polyline points="409.0,338.25 414.625,331.125 420.75,324.875 427.625,319.625 435.0,315.75 442.75,313.25 450.625,312.375 458.5,313.0 466.375,315.125 473.875,318.75 481.0,323.5 487.625,329.25 493.625,335.875 499.125,343.125 503.875,350.75 508.125,358.5 511.875,366.25 517.75,381.375 522.0,395.625 525.0,408.375 527.75,425.0"/>
    <polyline points="528.5,429.875 533.0,474.375 535.125,485.125 535.875,488.125 537.375,492.125"/>
    <polyline points="537.875,493.25 538.875,495.625 540.625,498.625 542.625,501.5 544.875,504.0 550.0,508.375 558.625,513.5"/>
    <polyline points="559.875,514.125 569.375,518.375 591.125,526.875 600.125,530.75 604.875,533.125"/>
    <polyline points="607.5,534.375 615.375,538.625 623.875,544.125 629.75,548.5 638.75,556.875 644.75,564.0 650.5,572.75 653.125,577.875 655.5,583.625 657.75,589.875 659.5,597.0 660.625,604.75 661.25,613.25 661.0,622.75 659.625,632.875 657.0,643.875 652.875,655.375"/>
    <polyline points="647.125,667.375 639.25,679.25 629.5,690.75 617.75,701.25 604.375,710.125 589.5,717.0 574.0,721.375 558.25,723.125 543.125,722.375 529.125,719.375 516.625,714.625 505.875,708.5 496.75,701.625 489.25,694.25 483.375,686.875 478.625,679.625 475.0,672.625 472.25,666.0 470.125,659.625 468.5,653.75 466.375,643.0 464.5,624.875"/>
    <polyline points="464.125,621.0 462.75,607.0 461.375,598.125 459.5,590.25 457.125,583.375 454.125,577.375 451.875,573.75 448.125,569.0 445.25,566.125 442.125,563.625"/>
    <polyline points="440.5,562.5 435.25,559.375 429.5,556.875 423.125,555.0 418.5,554.125 411.125,553.5 403.125,553.625 394.375,554.875 388.25,556.375 378.375,560.25"/>
    <polyline points="375.0,562.0 368.0,566.5 360.875,572.625 353.625,580.875 350.125,586.0 346.5,591.875 343.125,598.625 339.875,606.5 336.875,615.5 334.25,625.875 332.125,637.875 330.625,651.5 330.0,666.875 330.5,684.25 332.5,703.375 336.25,724.125 342.375,746.0 350.875,768.25 362.375,789.75 376.75,809.125 393.75,824.75 413.0,835.125 433.375,839.5"/>
    <polyline points="454.0,837.375 473.75,829.25 491.875,816.375 507.875,800.125 521.25,782.125 532.375,763.5 541.25,745.375 548.25,728.375 553.625,712.875 557.625,699.0 560.625,686.875 562.875,676.25 564.5,667.125 566.25,652.5 566.625,646.75 566.625,637.5 566.125,630.625 564.75,623.0 563.125,617.375"/>
    <polyline points="562.625,615.75 560.125,607.25 559.25,602.125 559.125,599.75 559.5,594.125 560.25,591.125 562.25,586.75"/>
    <polyline points="562.875,586.0 564.5,584.0 567.25,581.875 568.75,581.125 572.125,580.375 573.875,580.25 578.375,581.125 583.125,583.625"/>
    <polyline points="584.0,584.375 586.625,586.875 589.0,590.0 590.875,593.875 591.875,596.75 592.75,601.5 592.625,606.75 591.5,612.125 590.0,615.75 586.75,620.75"/>
    <polyline points="585.375,622.25 584.0,623.625 580.75,626.0 575.25,628.25 571.375,628.875 569.375,628.875 567.375,628.75 563.625,627.75 560.0,626.125 558.375,625.0 555.375,622.375 552.75,619.375 549.625,614.0 547.5,608.125"/>
    <polyline points="547.0,606.125 546.0,600.125 545.875,592.375 547.125,583.5 548.5,578.875 551.0,573.375 553.25,570.0 555.875,567.125"/>
    <polyline points="556.75,566.25 559.75,564.125 563.125,562.625 567.875,561.375 571.875,561.125 576.0,561.5 579.0,562.125 583.625,563.625 586.75,565.0 590.0,566.875"/>
    <polyline points="591.625,567.875 594.875,570.25 598.125,573.125 602.75,578.375 605.5,582.5 608.125,587.375 610.125,593.0 611.625,599.125 612.25,606.125 611.75,613.625 611.125,617.5 610.125,621.5 606.875,629.625 602.125,637.5"/>
    <polyline points="599.0,641.125 595.625,644.625 591.875,647.625 587.75,650.375 583.375,652.625 578.875,654.375 574.25,655.625 569.5,656.375 564.75,656.5 560.125,656.0 555.625,655.0 551.375,653.625 547.375,651.625 543.75,649.375 540.25,646.625 537.25,643.75 532.0,637.25 528.0,630.125 525.125,622.875 523.0,615.5 521.625,608.25"/>
    <polyline points="521.125,604.75 520.625,601.375 520.0,591.625 520.125,577.25 520.875,567.375 522.25,557.25 524.75,546.375"/>
    <polyline points="525.125,545.125 527.75,538.625 530.875,534.0 532.625,532.125 535.75,529.875 539.375,528.375"/>
    <polyline points="540.25,528.25 545.375,527.375 551.375,527.375 558.5,528.125 568.25,530.125"/>
    <polyline points="569.875,530.5 578.25,532.875 585.875,535.5 598.625,541.125 605.75,545.0 613.125,549.875 618.25,553.875 623.5,558.625"/>
    <polyline points="626.125,561.375 631.25,567.5 633.75,571.125 638.375,579.25 640.375,583.875 642.25,589.0 643.875,594.625 645.0,600.75 645.75,607.5 645.875,614.625 645.25,622.375 643.875,630.625 641.5,639.375 638.125,648.375 633.5,657.5 627.5,666.5 620.25,675.125 611.625,683.125 601.875,690.125 591.125,695.75 579.75,699.75 568.125,702.0 556.625,702.625 545.5,701.5"/>
    <polyline points="535.25,698.875 525.875,695.0 517.625,690.25 510.5,684.75 504.5,678.875 499.5,672.625 495.375,666.5 492.125,660.25 489.375,654.25 487.25,648.375 484.25,637.25 483.125,632.0 481.0,617.625 478.375,593.875 476.375,581.25"/>
    <polyline points="475.75,578.375 473.125,568.0 471.5,563.5 468.75,557.375 465.625,551.875 460.75,545.5 455.25,539.875 447.125,533.875"/>
    <polyline points="445.375,532.75 437.75,528.5 431.5,525.5 400.5,512.75 391.25,508.625 381.125,503.625"/>
    <polyline points="377.625,501.625 366.75,494.625 363.0,491.75 355.375,484.875 351.5,480.875 347.625,476.25 343.75,471.0 340.0,465.0 336.25,458.125 332.75,450.25 329.375,441.125 326.375,430.625 323.875,418.375 322.0,404.375 321.125,388.125 321.375,369.5 323.25,348.375 327.25,324.875 333.875,299.375 343.625,272.25 357.0,245.125 374.375,219.75 395.625,198.25"/>
    <polyline points="419.875,183.125 446.125,176.0 472.625,177.875 497.75,187.875 520.25,204.5 539.375,225.375 554.75,248.25 566.75,271.125 575.75,292.625 582.25,312.125 586.625,329.125 589.5,343.75 591.0,356.125 591.5,366.5 591.375,375.0 590.5,382.125 589.125,388.125 587.5,393.0 585.5,397.25 581.125,404.125 573.875,412.0 569.0,416.75"/>
    <polyline points="566.75,419.0 560.375,425.75 556.875,430.375 553.75,435.0 550.125,442.0 547.625,448.75 545.625,457.5 545.0,463.625 545.0,469.375 545.375,472.875"/>
    <polyline points="545.625,474.625 546.125,477.875 547.375,482.5 549.0,486.625 551.0,490.5 553.25,494.0 556.875,498.25 559.875,501.125 564.5,504.625"/>
    <polyline points="565.875,505.5 569.875,508.0 579.25,512.75 604.0,523.125 614.25,527.75"/>
    <polyline points="617.0,529.125 628.875,535.375 638.5,541.625 648.625,549.875 655.5,557.125 658.875,561.25 662.25,566.0 665.5,571.375 668.5,577.375 671.25,584.125 673.625,591.75 675.5,600.375 676.75,610.125 677.0,620.875 676.0,633.0 673.375,646.125 668.875,660.375 662.0,675.375"/>
    <polyline points="652.625,690.5 640.25,705.25 625.0,718.75 607.375,730.0 587.75,738.25 567.375,742.875 547.25,743.75 528.375,741.25 511.375,736.0 497.0,728.75 485.125,720.5 475.625,711.875 468.25,703.25 462.625,695.0 458.625,687.375 455.625,680.375 453.5,674.0 452.125,668.25 450.625,658.25 450.25,649.875 450.625,636.25"/>
    <polyline points="450.75,633.375 451.125,625.125 451.0,617.75 450.25,611.0 448.5,603.125 446.5,597.875 443.0,591.875 440.875,589.375 437.25,586.125"/>
    <polyline points="436.0,585.25 431.75,582.875 425.25,581.125 418.125,581.0 414.25,581.625 410.25,582.875 404.0,586.0 397.5,590.875 393.25,595.375 389.0,601.0"/>
    <polyline points="387.0,604.375 383.25,612.25 381.5,616.875 378.625,627.375 377.5,633.375 376.25,646.875 376.625,662.5 377.625,671.0 379.25,679.75 381.625,688.75 384.625,697.75 388.5,706.5 393.25,715.0 398.75,722.75 405.125,729.5 412.125,735.125 419.625,739.25 427.75,741.75 436.0,742.375 444.25,741.375 452.375,738.625 460.25,734.25"/>
    <polyline points="467.75,728.625 474.625,721.875 480.875,714.25 486.5,706.0 491.375,697.5 495.75,688.875 499.625,680.25 502.875,671.75 505.625,663.5 510.0,648.0 514.375,627.5 517.125,610.5 521.375,575.0"/>
    <polyline points="521.75,572.125 524.375,556.0 526.875,546.5 529.875,539.75 530.875,538.0 533.25,535.0"/>
    <polyline points="533.875,534.375 537.25,531.75 539.5,530.625 543.625,529.375 550.5,528.75 556.25,529.125"/>
    <polyline points="557.375,529.25 560.0,529.5 570.125,531.5 578.625,533.875 588.25,537.375 596.75,541.125 601.375,543.5"/>
    <polyline points="603.625,544.75 611.0,549.375 618.625,555.375 623.75,560.25 628.875,566.0 633.75,573.0 638.125,581.375 640.125,586.125 641.875,591.375 643.25,597.125 644.125,603.375 644.625,610.125 644.5,617.375 643.625,625.25 642.0,633.5 639.25,642.125 635.5,651.0 630.5,659.875"/>
    <polyline points="624.125,668.625 616.625,676.875 607.75,684.375 597.875,690.75 587.25,695.75 576.0,699.125 564.625,700.875 553.5,700.875 542.875,699.25 533.125,696.375 524.25,692.25 516.5,687.375 509.875,681.875 504.25,676.0 499.5,669.875 495.625,663.75 490.125,651.75 486.5,640.375 483.375,624.875 481.625,611.25"/>
    <polyline points="481.25,607.125 478.625,585.625 477.0,576.75 475.0,569.0 472.75,562.125 471.0,557.875 467.0,550.5 462.25,544.125"/>
    <polyline points="461.0,542.75 456.875,538.625 453.875,536.125 443.75,529.25 433.875,524.125 412.25,514.625"/>
    <polyline points="409.5,513.5 400.875,509.625 388.375,503.375 378.375,497.25 371.25,492.125 364.0,485.875 360.375,482.25 353.0,473.5 349.375,468.25 345.875,462.25 342.375,455.375 339.0,447.625 336.0,438.625 333.25,428.375 331.125,416.625 329.5,403.125"/>
    <polyline points="328.75,387.75 329.25,370.375 331.125,350.75 334.875,329.25 341.0,305.875 350.0,281.375 362.125,256.875 377.625,233.875 396.5,214.25 418.0,199.75 441.5,192.125 465.375,192.125 488.5,199.375 509.625,212.75 528.0,230.5 543.25,250.625 555.5,271.5 565.0,291.875 572.125,310.625 577.125,327.625 580.75,342.5 583.0,355.5 584.25,366.5 584.75,375.875 584.625,383.875 584.0,390.625"/>
    <polyline points="583.125,396.375 580.5,405.5 577.25,412.625 573.875,418.375 562.875,434.5 558.375,443.0 556.75,447.0 555.5,451.125 554.0,458.875"/>
    <polyline points="553.875,460.75 553.75,466.125 554.0,469.5 555.25,475.875 556.75,480.25 558.625,484.375 561.0,488.125 565.75,493.75 568.0,495.75"/>
    <polyline points="569.25,496.75 573.0,499.625 583.75,505.75 595.125,510.75 616.625,519.0"/>
    <polyline points="619.5,520.125 631.375,525.125 641.25,530.0 648.375,533.875 659.5,541.5 667.375,548.125 671.25,552.125 675.25,556.625 679.125,561.875 682.875,567.75 686.625,574.5 689.875,582.25 692.75,591.125 695.125,601.375 696.5,613.25 696.5,626.75 695.0,642.0"/>
    <polyline points="691.125,659.0 684.25,677.5 674.0,697.0 659.625,716.625 640.875,735.125 618.25,750.75 592.5,762.125 565.5,768.25 538.75,768.875 514.25,764.75 493.0,757.0 475.75,747.125 462.125,736.625 452.0,726.25 444.625,716.75 439.5,708.375 436.125,701.125 434.0,695.0 432.875,690.0 432.375,685.75 433.125,679.125 434.0,676.5 436.375,672.0 437.875,670.0"/>
    <polyline points="439.375,668.0 444.0,661.75 449.875,652.25 453.5,644.25 456.25,635.75 458.125,627.125 459.0,618.5 459.125,610.375 458.375,602.625"/>
    <polyline points="458.0,600.25 456.375,593.375 454.25,587.125 451.375,581.625 448.0,576.75 444.0,572.5 439.625,568.875 436.375,566.875 432.75,565.125 427.125,563.125"/>
    <polyline points="425.0,562.625 422.875,562.125 416.25,561.375 411.5,561.375 403.875,562.25 398.375,563.5 392.75,565.5 389.875,566.75 383.875,570.125 377.75,574.5 371.5,580.5 368.375,584.125 362.125,593.0 359.125,598.375 356.375,604.5"/>
    <polyline points="353.625,611.5 351.25,619.5 349.125,628.375 347.375,638.5 346.25,649.875 345.875,662.375 346.25,676.25 347.875,691.375 350.75,707.5 355.125,724.375 361.375,741.5 369.5,758.25 379.625,773.875 391.75,787.25 405.5,797.625 420.625,804.125 436.375,806.375 452.25,804.25 467.5,798.0 481.625,788.375 494.375,776.125 505.5,762.25 515.0,747.625 522.875,732.875 529.375,718.625 534.625,705.0"/>
    <polyline points="538.875,692.375 542.25,680.875 547.0,661.0 551.0,638.375 555.875,599.5 557.5,591.75 559.0,587.25 560.25,584.875"/>
    <polyline points="560.875,583.75 562.125,581.875 564.375,579.5 566.875,577.875 570.625,576.5 574.625,576.25 577.75,576.75 581.125,578.0 584.375,579.75"/>
    <polyline points="585.5,580.5 589.625,584.375 593.25,589.625 595.375,594.5 596.375,598.25 596.875,602.25 596.875,606.5 595.75,613.125 594.125,617.625 590.375,624.0"/>
    <polyline points="588.75,625.875 585.0,629.375 582.875,630.875 580.625,632.125 575.875,634.0 571.0,634.875 568.5,634.875 566.0,634.625 561.25,633.5 556.875,631.375 554.875,630.0 551.125,626.625 549.5,624.75 545.5,618.5 543.5,613.875 542.125,609.25"/>
    <polyline points="541.5,606.875 540.25,597.375 540.375,588.5 541.5,580.5 542.875,575.25 544.625,570.5 547.5,565.125 550.0,561.75"/>
    <polyline points="550.875,560.875 552.75,559.0 557.0,556.25 560.375,554.75 565.5,553.625 568.25,553.375 572.625,553.5 578.875,554.625 583.875,556.25"/>
    <polyline points="585.625,556.875 592.875,560.375 598.375,564.125 602.125,567.25 605.875,571.0 609.5,575.25 614.375,583.125 618.125,592.875 619.125,596.625 619.75,600.625 620.25,604.875 620.25,609.25 619.375,618.75"/>
    <polyline points="618.25,623.75 616.625,628.75 614.5,633.875 611.875,639.0 608.625,644.0 604.75,648.75 600.375,653.25 595.5,657.25 590.125,660.75 584.375,663.5 578.375,665.75 572.25,667.125 566.125,667.75 560.125,667.5 554.25,666.625 548.625,665.0 543.5,662.875 538.625,660.125 534.375,656.875 530.375,653.375 524.0,645.5 521.375,641.25 519.25,637.0 515.75,628.375"/>
    <polyline points="514.375,624.125 512.375,615.75 511.125,607.625 510.25,600.0 509.5,589.5 509.125,574.125 509.25,549.625"/>
    <polyline points="509.25,547.875 509.125,534.375 508.25,522.625"/>
    <polyline points="508.25,522.125 507.0,517.125 505.125,513.875"/>
    <polyline points="504.875,513.75 503.75,512.625 501.75,511.375 498.375,509.875"/>
    <line x1="498.0" x2="485.125" y1="509.75" y2="505.75"/>
    <polyline points="484.375,505.625 472.375,501.875 459.625,497.25"/>
    <polyline points="458.375,496.75 451.25,493.75 443.375,489.875 432.875,483.5 423.5,476.125 415.75,468.25"/>
    <polyline points="413.875,465.875 408.125,457.75 402.875,447.625 399.75,439.625 397.25,430.375 396.25,425.25 395.0,413.875 395.0,401.25 395.5,394.375 396.5,387.25 398.0,380.0 400.0,372.625 402.625,365.25 405.875,357.875 409.625,350.75 414.125,344.125 419.125,338.125 424.75,332.875"/>
    <polyline points="430.75,328.5 437.25,325.375 444.0,323.375 450.875,322.625 457.875,323.25 464.75,325.125 471.375,328.125 477.625,332.25 483.5,337.25 489.0,343.0 494.0,349.25 498.375,355.875 502.375,362.75 505.875,369.625 511.625,383.375 515.75,396.5 520.0,414.125 521.875,424.5 523.625,437.875"/>
    <polyline points="524.125,441.875 527.5,479.25 529.5,490.0 531.0,494.625"/>
    <polyline points="531.375,495.75 534.0,501.25 536.75,505.0 542.125,509.875 547.125,513.0"/>
    <polyline points="548.125,513.5 559.0,518.25 582.125,526.625"/>
    <polyline points="584.125,527.375 592.25,530.625 603.875,536.0 614.125,541.625 622.375,547.25 630.875,554.5 636.625,560.5 642.375,567.875 647.625,576.75"/>
    <polyline points="650.0,582.0 652.125,587.75 654.0,594.125 655.375,601.125 656.125,608.875 656.25,617.25 655.5,626.5 653.75,636.375 650.625,646.75 646.125,657.625 640.0,668.625 632.125,679.5 622.5,689.75 611.125,698.875 598.5,706.5 584.625,712.125 570.375,715.5 556.125,716.625 542.5,715.5 529.875,712.375 518.5,707.75 508.75,702.0 500.5,695.625 493.625,688.625 488.0,681.625 483.625,674.75"/>
    <polyline points="480.125,668.0 477.5,661.5 475.375,655.25 472.5,643.875 470.25,629.0 468.25,608.625 465.875,592.625 463.125,582.0 459.5,573.125"/>
    <polyline points="458.375,571.125 457.375,569.125 453.75,563.875 449.625,559.25 443.25,554.0 439.75,551.75 436.0,549.625 427.75,546.25 418.5,543.5 413.375,542.5"/>
    <polyline points="410.75,542.125 405.125,541.375 396.25,540.875 386.5,541.125 379.625,541.75 372.375,543.0 364.625,544.875 356.625,547.625 352.375,549.5 343.75,554.25 339.375,557.375 334.875,561.0 330.25,565.375 325.625,570.625 321.125,576.75 316.5,584.125"/>
    <polyline points="312.0,592.875 307.75,603.375 303.875,615.875 300.5,630.625 297.875,648.375 296.375,669.125 296.375,693.5 298.75,721.625 304.25,753.125 313.625,787.25 327.875,822.375 347.625,855.75 373.0,883.75 402.75,902.75 435.25,909.875 467.875,904.375 498.0,888.125 524.125,864.25 545.5,836.625 562.0,808.375 574.25,782.0 583.0,758.625 589.0,738.875 592.875,722.625 594.875,709.875 595.5,699.875"/>
    <polyline points="595.0,692.375 593.625,686.75 591.375,682.75 588.5,679.75 585.0,677.625 581.125,676.0 563.0,670.125 553.75,666.0 545.25,660.5 538.0,654.0 532.0,646.625 529.5,642.75 527.375,638.75 523.75,630.75 522.375,626.625 519.5,614.75"/>
    <polyline points="518.75,610.875 517.5,600.0 517.125,593.125 517.125,578.0 518.0,563.25 518.875,555.25 520.25,547.125"/>
    <polyline points="520.5,545.625 522.625,537.5 524.5,533.125 526.5,529.875 528.75,527.5 530.375,526.375"/>
    <polyline points="530.875,526.0 535.0,524.375 539.125,523.75 544.125,523.75 549.875,524.375"/>
    <polyline points="550.875,524.5 559.125,525.875 567.5,527.875 577.375,530.75 588.875,535.0"/>
    <polyline points="590.875,535.75 597.5,538.75 604.5,542.375 614.625,548.75 619.875,552.875 625.25,557.625 630.5,563.375 633.125,566.75 638.125,574.25 640.5,578.625 642.625,583.5 644.5,588.75 646.125,594.5 647.375,600.875 648.125,607.75"/>
    <polyline points="648.25,615.25 647.625,623.25 646.125,631.875 643.625,641.0 640.0,650.375 635.0,659.875 628.625,669.375 620.875,678.375 611.75,686.625 601.25,693.75 589.875,699.375 577.875,703.375 565.625,705.5 553.625,705.75 542.125,704.125 531.625,701.125 522.125,696.875 513.75,691.625 506.625,685.875 500.75,679.625 495.875,673.25 491.875,666.875 488.625,660.5 486.125,654.375 482.5,642.875"/>
    <polyline points="481.25,637.375 478.75,622.5 475.625,594.625 473.5,582.125 472.25,576.625 470.0,569.25 468.25,564.875 464.25,556.875"/>
    <polyline points="463.125,555.125 456.75,547.125 452.375,543.0 445.75,538.125 440.25,534.875 429.875,529.875 417.875,525.25"/>
    <polyline points="415.25,524.375 378.125,511.5 366.875,506.625 359.0,502.75 354.875,500.375 346.5,494.875 342.125,491.625 337.75,487.875 333.375,483.5 329.0,478.5 324.625,472.75"/>
    <polyline points="320.25,466.0 316.0,458.125 312.0,448.875 308.125,438.0 304.875,425.0 302.25,409.75 300.5,391.625 300.25,370.375 301.75,345.625 305.75,317.125 313.25,285.25 324.875,251.0 341.75,215.875 364.375,182.875 392.375,155.875 424.625,138.5 459.0,133.5 492.625,141.25 523.125,159.875 548.875,185.75 569.375,214.875 584.625,244.0 595.625,270.875 603.0,294.375 607.5,314.125 609.875,330.25"/>
    <polyline points="610.5,343.125 609.75,353.125 607.875,360.75 605.125,366.75 601.75,371.25 597.75,374.75 593.375,377.625 583.625,382.25 568.5,388.75 559.0,393.75 550.5,399.375 543.125,405.625 537.0,412.125 532.0,418.75 528.125,425.375 525.0,431.75"/>
    <polyline points="523.75,434.875 520.125,446.625 517.75,459.375 516.75,468.0 516.25,475.375 516.0,486.875"/>
    <polyline points="516.0,488.0 516.625,499.5 518.0,505.75"/>
    <polyline points="518.125,506.125 519.625,509.0 520.625,510.25 523.5,512.375"/>
    <polyline points="523.875,512.625 527.375,514.25 535.0,516.625"/>
    <line x1="535.625" x2="558.375" y1="516.75" y2="522.75"/>
    <polyline points="559.625,523.125 574.5,527.5 585.5,531.375 598.375,536.875 605.5,540.5"/>
    <polyline points="608.0,542.0 615.75,546.875 621.125,550.875 629.375,558.5 634.875,564.75 640.125,572.375 644.875,581.5 646.875,586.875 650.125,599.125 651.0,606.25 651.25,613.875 650.875,622.25 649.5,631.125 647.125,640.625 643.5,650.375 638.5,660.5 632.0,670.5"/>
    <polyline points="624.0,680.125 614.375,689.0 603.5,696.75 591.375,702.875 578.625,707.25 565.625,709.5 552.875,709.75 540.625,708.125 529.5,704.875 519.5,700.375 510.75,694.875 503.375,688.75 497.25,682.25 492.25,675.625 488.25,669.0 485.0,662.5 482.5,656.25 479.0,644.625 477.75,639.125 476.125,629.0 474.0,611.375"/>
    <polyline points="473.625,607.5 472.375,596.75 470.75,587.375 468.0,576.5 465.5,569.5 462.5,563.375 460.25,559.625 456.5,554.625 450.75,548.75"/>
    <polyline points="449.125,547.5 444.125,543.75 438.625,540.5 432.5,537.5 425.875,534.875 418.625,532.375 410.625,530.125 402.0,528.0 389.375,525.375"/>
    <polyline points="386.0,524.75 337.375,515.75 322.625,512.25 306.625,507.25 295.375,502.375 289.625,499.375 283.625,495.75 277.625,491.375 271.625,486.0 265.5,479.375"/>
    <polyline points="259.375,471.125 253.375,460.875 247.625,448.0 242.5,431.625 238.0,410.875 234.875,384.5 234.125,351.0 236.875,309.0 245.125,257.5 261.625,196.875 289.75,130.625 331.875,67.125 387.875,19.125 451.3798,0.0"/>
    <polyline points="454.3493,0.0 517.0,13.625 572.5,54.5 614.5,108.625 643.0,163.125 660.375,210.0 669.375,246.0 672.125,271.125 669.875,286.75 663.5,295.125 653.5,298.125 640.125,297.875 624.0,296.125"/>
    <polyline points="605.75,294.375 586.375,293.875 566.75,295.0 547.75,298.0 530.25,302.75 514.875,308.75 501.75,315.375 490.75,322.25 482.0,329.0 475.125,335.25 469.875,341.0 466.125,346.125 463.375,350.625 461.75,354.625 460.75,358.125 460.375,361.25 460.5,364.125 461.125,366.75 462.0,369.25 464.375,374.125 472.0,386.875"/>
    <polyline points="473.5,389.75 477.75,398.375 481.25,407.375 483.25,413.25 485.5,422.0 487.0,430.375 488.125,440.375 488.375,449.125 488.0,455.0"/>
    <polyline points="487.875,456.75 487.25,461.625 486.25,465.875 485.125,469.5 483.25,473.625 481.0,476.875 479.75,478.125 477.75,479.875 475.5,481.125"/>
    <polyline points="474.75,481.5 471.375,482.5 468.625,482.875 466.625,483.0 461.375,482.5 455.5,481.125 447.75,478.0"/>
    <polyline points="446.375,477.25 442.125,474.875 434.625,469.5 428.5,463.625 422.5,456.125 418.375,449.0 415.75,443.5 413.625,437.375 411.75,430.375"/>
    <polyline points="411.0,426.625 410.125,418.625 410.0,409.875 410.75,400.5 412.75,390.875 416.0,381.125 418.125,376.5 420.625,372.0 423.5,367.75 426.625,363.875 430.125,360.375 433.875,357.5 437.875,355.125 442.0,353.375 446.375,352.25 450.875,351.875 455.25,352.25 459.75,353.25 464.125,355.0 468.25,357.25 472.375,360.125"/>
    <polyline points="476.125,363.5 483.125,371.5 486.25,375.875 489.0,380.375 493.875,389.875 497.75,399.5 500.75,408.75 504.75,425.875 506.875,440.5 507.875,452.75 508.125,460.5"/>
    <polyline points="508.125,462.875 508.125,472.875 507.75,480.75 506.625,490.875 505.625,495.5"/>
    <polyline points="505.5,496.125 504.75,498.375 503.0,501.625 501.75,503.0 499.25,504.375"/>
    <polyline points="499.0,504.5 496.0,505.125 493.25,505.125 487.0,504.375"/>
    <polyline points="486.375,504.25 474.375,501.375 463.5,497.875"/>
    <polyline points="462.25,497.375 451.375,493.0 440.25,487.25 433.25,482.875 429.625,480.25 422.0,473.75"/>
    <polyline points="420.125,471.875 416.25,467.625 412.5,462.875 408.75,457.25 405.25,450.875 402.0,443.5 399.25,434.875 397.125,425.125 396.375,419.75 395.75,407.875 395.875,401.5 397.5,387.875 398.875,380.75 400.875,373.5 403.375,366.25 406.5,359.125 410.25,352.25"/>
    <polyline points="414.5,345.75 419.5,339.875 424.875,334.625 430.75,330.375 437.125,327.25 443.625,325.25 450.375,324.5 457.25,325.0 463.875,326.75 470.375,329.5 476.625,333.5 482.375,338.25 487.75,343.75 492.75,349.75 497.125,356.25 501.125,362.875 504.625,369.75 507.625,376.5 512.625,389.75 516.25,402.25 518.875,413.625 520.75,424.0"/>
    <polyline points="521.375,428.75 523.75,448.75 526.125,477.125 527.375,485.5 528.5,490.875"/>
    <polyline points="528.875,492.125 531.0,498.375 533.75,503.25 537.75,507.75 542.0,511.0"/>
    <polyline points="542.75,511.5 547.0,513.875 551.875,516.125 571.5,523.375"/>
    <polyline points="573.125,523.875 585.875,528.5 594.25,532.0 606.0,537.625 613.75,542.0 619.25,545.625 624.75,549.875 630.5,554.875"/>
    <polyline points="633.375,557.75 639.125,564.375 641.875,568.25 647.125,577.125 649.5,582.375 653.375,594.375 654.625,601.375 655.5,609.125 655.5,617.5 654.75,626.625 652.875,636.375 649.875,646.625 645.375,657.375 639.25,668.25 631.5,679.0 622.0,689.125 610.75,698.125 598.25,705.625 584.625,711.125 570.5,714.5 556.5,715.625 543.0,714.625 530.5,711.625"/>
    <polyline points="519.25,707.0 509.5,701.375 501.375,695.0 494.5,688.125 489.0,681.25 484.5,674.375 481.0,667.625 476.25,655.0 473.375,643.5 471.0,628.5 468.125,601.25 467.125,594.875 465.25,586.375"/>
    <polyline points="464.5,583.875 462.125,576.625 458.125,568.375 454.5,563.125 450.375,558.375 447.375,555.625 440.625,550.75 435.0,547.625 428.75,545.0"/>
    <polyline points="426.5,544.25 417.0,541.625 406.25,539.75 397.375,539.0 391.125,538.75 384.375,538.875 377.375,539.375 366.0,541.125 353.75,544.625 345.125,548.25"/>
    <polyline points="340.625,550.625 336.0,553.5 331.375,556.875 326.625,561.0 321.875,565.75 317.0,571.625 312.25,578.625 307.5,587.0 302.875,597.0 298.5,609.125 294.625,623.625 291.5,641.125 289.375,661.875 288.75,686.5 290.25,715.25 294.875,748.25 303.625,784.625 317.5,822.875 337.5,860.125 363.875,892.5 395.625,915.375 430.875,925.125 466.625,920.625 499.75,903.375 528.375,877.5 551.5,847.375"/>
    <polyline points="569.125,816.875 582.0,788.5 591.0,764.0 596.875,743.625 600.375,727.375 601.875,714.875 601.875,705.5 600.625,698.75 598.25,694.0 594.875,690.875 590.75,688.75 586.0,687.25 569.0,683.75 563.0,682.25 557.125,680.25 551.375,677.75 545.875,674.875 540.625,671.5 536.0,667.875 531.625,663.875 527.875,659.625 524.5,655.125 519.0,645.875"/>
    <polyline points="516.875,641.125 513.5,631.875 512.25,627.25 509.625,614.125 508.625,605.875 507.25,584.25 506.75,555.625"/>
    <polyline points="506.75,553.625 505.75,535.25 504.75,528.25 503.625,523.75"/>
    <polyline points="503.375,523.125 502.25,520.125 500.125,516.5 497.75,514.0 495.75,512.5"/>
    <polyline points="495.25,512.25 489.75,509.25 479.875,505.5"/>
    <polyline points="479.0,505.25 463.5,499.625 449.75,493.75"/>
    <polyline points="448.25,493.0 441.625,489.625 432.875,484.25 427.25,480.125 421.375,475.125 415.5,469.0 409.625,461.375 405.875,455.375 402.375,448.5"/>
    <polyline points="400.75,444.5 399.25,440.375 396.625,431.125 394.75,420.375 394.0,408.25 394.625,394.75 397.0,380.25 399.0,372.625 401.625,365.125 404.75,357.625 408.625,350.25 413.125,343.5 418.25,337.25 423.875,331.75 430.0,327.25 436.625,323.875 443.5,321.875 450.625,321.0 457.75,321.625 464.75,323.5 471.5,326.5"/>
    <polyline points="477.875,330.75 484.0,335.75 489.5,341.625 494.625,348.0 499.125,354.75 506.75,368.75 512.5,382.75 514.75,389.5 518.375,402.25 521.875,419.25 523.5,429.125 525.0,441.875 526.75,461.625"/>
    <polyline points="527.0,464.25 528.125,475.625 530.0,487.375 531.75,493.75 533.5,497.875 535.5,501.375"/>
    <polyline points="536.125,502.25 538.5,505.25 543.5,509.625 548.625,512.875 557.125,516.875"/>
    <polyline points="558.375,517.375 583.125,526.5 593.375,530.625 602.625,534.875"/>
    <polyline points="605.0,536.125 610.125,538.75 620.875,545.625 626.625,550.0 635.375,558.125 641.125,565.125 643.875,569.125 649.125,578.375 651.375,583.875 653.5,589.875 655.125,596.5 656.375,603.75 657.0,611.875 656.75,620.625 655.625,630.125 653.375,640.25 649.875,651.0"/>
    <polyline points="644.625,662.125 637.875,673.25 629.25,684.0 618.75,694.0 606.75,702.75 593.375,709.75 579.125,714.625 564.625,717.125 550.375,717.25 536.875,715.375 524.625,711.5 513.875,706.375 504.5,700.25 496.75,693.5 490.5,686.375 485.375,679.375 481.375,672.5 478.125,665.75 475.75,659.375 473.875,653.375 471.375,642.125 470.5,637.125 468.875,623.25"/>
    <polyline points="468.5,619.125 467.0,604.375 465.5,595.0 463.625,586.75 462.125,581.75 458.375,573.0 455.0,567.375 452.5,564.0 446.75,558.25"/>
    <polyline points="445.125,556.875 438.25,552.25 432.375,549.375 426.0,547.0 419.0,545.125 411.375,543.75 400.125,542.875 390.75,543.0 384.125,543.625"/>
    <polyline points="380.625,544.125 373.5,545.5 365.875,547.75 353.875,553.0 345.375,558.375 341.125,561.75 332.25,570.625 327.875,576.375 323.5,583.0 319.125,591.0 315.0,600.5 311.125,611.75 307.75,625.0 304.875,640.625 303.0,659.0 302.375,680.5 303.625,705.375 307.25,733.25 314.125,764.0 325.125,796.5"/>
    <polyline points="340.75,828.5 361.375,857.625 386.625,880.5 415.375,894.0 445.75,896.5 475.5,888.0 502.5,870.625 525.75,847.25 544.5,821.25 559.125,795.125 570.125,770.75 578.0,749.125 583.5,730.75 587.125,715.5 589.125,703.125 590.0,693.375 589.875,685.75 589.0,679.875 587.375,675.5 585.25,672.125 582.625,669.5 579.625,667.375 565.5,661.0"/>
    <polyline points="561.75,659.375 554.5,655.25 551.125,653.0 544.875,647.625 539.625,641.5 535.375,635.0 533.5,631.5 530.625,624.625 529.5,621.125 527.625,614.125 526.375,607.375 525.25,594.5 525.375,583.125"/>
    <polyline points="525.5,580.5 526.875,568.625 528.375,560.875 529.75,555.75 533.0,547.625 534.875,544.5 537.75,541.0"/>
    <polyline points="538.375,540.25 541.625,537.75 545.125,535.875 551.125,534.25 558.25,533.875 565.0,534.5"/>
    <polyline points="566.5,534.625 572.75,535.875 579.75,537.75 589.375,541.25 595.75,544.125 607.125,550.75 612.0,554.25 616.875,558.5"/>
    <polyline points="619.25,560.75 624.125,566.125 628.875,572.5 633.125,580.125 636.75,589.25 638.25,594.375 639.375,600.0 640.0,606.0 640.25,612.5 639.875,619.5 638.75,626.875 636.875,634.625 634.0,642.625 630.125,650.875 625.25,659.0 619.125,666.875 612.0,674.125 603.75,680.75 594.625,686.375 584.75,690.625 574.625,693.5 564.25,694.875"/>
    <polyline points="554.25,694.75 544.625,693.375 535.625,690.625 527.5,686.875 520.375,682.375 514.125,677.25 508.875,671.75 504.375,666.125 500.75,660.25 497.75,654.5 495.25,648.75 491.625,637.75 489.25,627.375 487.75,617.875 483.875,583.25"/>
    <polyline points="483.375,580.125 481.375,569.0 479.5,561.625 477.375,555.25 475.75,551.375 474.0,547.75 470.0,541.375 466.625,537.125 461.5,532.0"/>
    <polyline points="460.125,530.875 452.75,525.25 447.75,522.125 436.375,516.0 418.25,507.0 410.625,502.75"/>
    <polyline points="407.875,501.25 396.625,494.0 387.625,486.875 381.5,480.875 375.25,473.75 372.125,469.625 366.125,459.875 363.25,454.125 360.5,447.625 358.0,440.375 355.625,432.375 353.75,423.25 352.25,413.125 351.25,401.75 351.0,389.25 351.75,375.375 353.5,360.25 356.625,343.875"/>
    <polyline points="361.375,326.75 367.875,309.0 376.375,291.375 387.125,274.75 399.875,259.875 414.5,248.0 430.625,239.75 447.5,236.0 464.625,237.0 481.125,242.25 496.5,251.5 510.25,263.625 522.125,277.75 532.25,292.875 540.5,308.125 547.125,323.125 552.375,337.125 556.375,350.25 559.375,362.125 563.125,382.375 564.125,390.875 565.25,405.25 565.375,416.625"/>
    <polyline points="565.125,421.5 564.625,429.875 562.375,452.625 562.25,458.875 562.375,462.625 563.375,469.25 564.75,473.875 566.5,478.0"/>
    <polyline points="567.125,479.25 568.625,481.75 571.375,485.25 575.625,489.5 579.375,492.375 586.625,496.75 590.0,498.375 601.25,502.875"/>
    <polyline points="603.375,503.625 617.5,508.0 647.625,516.5 658.625,520.0 666.5,522.875 674.875,526.375 683.625,530.875"/>
    <polyline points="688.25,533.5 693.0,536.5 702.625,544.0 707.625,548.75 712.5,554.375 717.5,560.875 722.25,568.625 726.75,578.0 730.625,589.25 733.875,602.625 735.625,618.75 735.5,637.875 732.375,660.375 725.125,686.375 712.125,715.25 691.75,745.5 663.25,774.5 627.0,798.5 585.125,813.875 541.875,818.875 501.625,814.125 467.875,802.375 441.75,787.375 422.875,772.375 410.125,759.5"/>
    <polyline points="402.25,749.5 397.75,742.75 396.0,738.75 396.125,737.25 398.0,737.5 410.625,743.375 416.625,745.375 423.25,746.625 430.375,746.875 437.75,746.0 445.25,743.75 452.75,740.25 459.875,735.625 466.75,729.75 473.125,723.0 479.0,715.5 484.375,707.5 489.125,699.25 493.25,690.75 496.875,682.375 500.0,674.125 502.75,666.0 507.125,650.625"/>
    <polyline points="508.75,643.5 510.25,636.75 513.375,618.5 516.375,594.375 519.25,565.5 521.375,551.125"/>
    <polyline points="521.75,549.5 523.75,541.25 526.125,535.375 528.0,532.375 529.5,530.625 531.0,529.125 532.75,528.0"/>
    <polyline points="533.375,527.625 538.0,525.875 543.625,525.25 548.375,525.375 554.875,526.125"/>
    <polyline points="556.0,526.375 566.75,528.5 580.125,532.375 587.875,535.25 598.75,540.125"/>
    <polyline points="601.0,541.25 608.25,545.375 613.375,548.75 618.5,552.625 626.5,560.0 631.625,566.125 634.25,569.625 636.625,573.5 639.0,577.625 643.125,587.375 646.125,599.125 647.0,605.75 647.25,613.0 646.875,620.75 645.75,629.0 643.625,637.875 640.375,647.0"/>
    <polyline points="635.875,656.375 630.0,665.75 622.875,674.75 614.25,683.125 604.375,690.5 593.5,696.5 581.875,701.0 570.0,703.75 558.0,704.5 546.5,703.625 535.75,701.125 526.125,697.375 517.5,692.5 510.0,687.0 503.75,681.0 498.5,674.75 494.25,668.375 490.875,662.125 488.0,656.0 485.875,650.0 484.125,644.25 481.625,633.5 479.5,619.0"/>
    <polyline points="479.0,614.625 477.25,598.75 475.375,585.5 473.625,577.0 472.125,571.75 468.875,562.75 465.875,556.75 462.5,551.5 460.0,548.375"/>
    <polyline points="458.625,546.875 454.375,542.625 448.125,537.625 438.875,532.125 428.375,527.125 408.0,519.375"/>
    <polyline points="405.125,518.375 386.375,511.25 375.875,506.625 368.375,502.75 360.625,498.25 356.625,495.5 348.5,489.125 344.375,485.25 340.25,480.875 336.0,475.75 331.875,470.0 327.875,463.25 323.875,455.5 320.125,446.375 316.75,435.75 313.75,423.25"/>
    <polyline points="311.375,408.625 309.875,391.625 309.75,371.75 311.25,349.0 315.0,323.0 321.75,294.375 332.25,263.5 347.0,232.125 366.625,202.375 391.0,177.25 419.25,159.875 449.625,152.75 480.125,156.5 508.625,170.125 533.5,191.125 553.875,216.25 569.875,242.75 581.75,268.25 590.25,291.375 596.0,311.625 599.5,328.625 601.375,342.75 601.875,354.25 601.25,363.5 599.875,370.875 597.875,376.75"/>
    <polyline points="595.25,381.5 592.25,385.375 589.0,388.625 581.75,393.875 563.375,405.375 553.875,413.0 548.5,418.5 544.0,424.125 538.75,432.625 536.125,438.25 534.125,443.625 532.625,448.875"/>
  </g>
</svg>
