<?xml version="1.0" encoding="utf-8" ?>
<svg xmlns="http://www.w3.org/2000/svg" xmlns:cc="http://creativecommons.org/ns" xmlns:dc="http://purl.org/dc/elements/1.1/" xmlns:ev="http://www.w3.org/2001/xml-events" xmlns:inkscape="http://www.inkscape.org/namespaces/inkscape" xmlns:rdf="http://www.w3.org/1999/02/22-rdf-syntax-ns" xmlns:sodipodi="http://sodipodi.sourceforge.net/DTD/sodipodi-0.dtd" xmlns:xlink="http://www.w3.org/1999/xlink" baseProfile="tiny" height="27.09333333cm" version="1.2" viewBox="0 0 1024.0 1024.0" width="27.09333333cm">
  <metadata>
    <rdf:RDF>
      <cc:Work>
        <dc:format>image/svg+xml</dc:format>
        <dc:source>vpype read './original_svgs/Strange Attractors #212.svg' linemerge linesimplify write './Strange Attractors #212.svg'
</dc:source>
        <dc:date>2024-08-05T01:35:38.284031</dc:date>
      </cc:Work>
    </rdf:RDF>
  </metadata>
  <defs/>
  <g fill="none" id="layer1" inkscape:groupmode="layer" inkscape:label="1" stroke="black" style="display:inline">
    <polyline points="611.75,698.0 605.1767,689.2201 599.558,679.9947 594.513,669.6362 590.3618,658.7597 586.9061,646.9841 584.0658,633.9396 582.0359,620.2059 580.7422,605.6257 580.1122,589.3672 580.1711,571.6727 580.9099,552.3778 582.3534,531.6355 584.522,509.2011 587.3724,485.4563 590.9599,459.908 595.1258,433.7839 600.6562,402.8594 606.9131,371.3462 614.0,338.875 620.884,310.1512 628.3518,281.7593 636.1812,254.6104 644.1344,229.526 652.0529,206.981 660.1251,186.631 668.199,168.8367 676.093,153.9612 683.6255,142.3677 687.125,138.0 690.4633,134.5512 693.641,131.995 696.9617,130.1832 699.7415,129.4619 702.5755,129.6518 704.8771,130.6985 707.1352,132.8157 709.5604,137.037 711.2929,142.5825 712.4901,150.0062 713.0194,158.7965 712.881,168.7902 712.0747,179.8241 710.6006,191.7351 708.5467,203.8984 705.9979,216.0376 702.7661,229.1086 699.0211,242.4046 694.8067,255.8337 690.0357,269.6681 684.8631,283.4465 679.1864,297.4252 673.2226,311.0615 662.2526,334.0392 650.0959,357.0822 636.9445,379.8173 622.6087,402.5884 609.2975,422.3324 594.8584,442.5438 548.6233,503.5272 535.8929,520.824 524.5529,537.3672 514.479,553.8401 508.8506,563.9637 504.1406,573.3125 499.1959,584.2449 495.1354,594.2438 487.2658,616.7302 474.7804,657.5775 469.2545,672.2451 465.9086,679.0509 462.4764,684.1912 458.7305,687.9712 456.7201,689.31 454.7744,690.1773 452.3169,690.6038 449.3331,690.279 446.125,689.125 443.2812,687.4141 440.3438,684.9062 437.2656,681.6016 433.6491,677.0272 430.6404,672.5865 423.8392,660.4361 416.3942,644.742 409.5101,627.7119 401.8642,606.504 394.6674,583.7399 388.0134,559.7318 382.8933,537.7873 378.727,515.9112 376.6757,499.8585 376.0527,485.815 376.2671,480.2276 376.8494,475.1665 377.7782,470.7916 379.1511,466.8228 381.5,462.875 382.8743,461.4818 384.7381,460.2311 386.4472,459.5373 388.6557,459.1197 391.004,459.151 393.4581,459.6276 399.3912,462.0279 405.6889,465.8799 411.4162,470.5594 419.0538,478.0136 425.5858,485.3983 432.5872,494.4563 438.6522,503.1533 443.6434,511.3334 449.7393,522.3842 454.4219,531.9426 459.9246,545.0445 463.8743,556.031 467.4481,568.1653 470.1529,578.7794 472.3453,589.6215 474.0634,600.5204 475.3811,613.1532 476.1221,624.24 476.2354,636.5102 475.967,646.7966 474.8596,659.4976 473.5669,669.1911 471.5909,678.8594 469.2311,687.0796 466.3846,694.248 463.4873,699.2943 459.9816,703.209 458.1152,704.5339 456.1307,705.4445 453.1382,705.9741 450.2116,705.5393 447.0589,704.1663 443.6466,701.8219 440.4485,698.8716 437.3265,695.2449 430.3918,685.065 423.1094,671.6603 414.609,652.8784 407.3869,634.7329 399.6459,612.5597 391.6199,587.1154 384.3644,560.9241 378.1387,535.2584 373.6537,512.3098 370.7683,491.9099 369.7986,476.8107 369.9041,469.9155 370.4538,463.5596 371.3668,458.4993 372.8151,454.0175 374.1132,451.445 375.6242,449.3347 377.3297,447.6838 379.4932,446.3564 381.8478,445.6213 384.378,445.3994 387.1057,445.6324 389.9974,446.3018 396.5354,449.0891 403.6291,453.6618 411.3687,459.9526 419.1441,467.5937 427.1582,476.6028 434.0984,485.4429 442.7833,498.0915 449.5251,509.0547 456.5332,522.2639 461.918,533.6348 466.5608,545.4006 470.9713,558.1012 474.0615,569.0272 477.4048,583.1504 479.3154,593.5812 481.0526,606.2249 482.2327,619.129 482.9053,632.4904 482.9466,646.636 482.4811,658.374 481.1421,672.3018 479.4084,683.9726 477.0751,695.2204 474.2512,704.7676 471.054,712.7946 467.3866,719.2854 463.6338,723.5225 461.6687,724.9508 459.404,726.037 456.3125,726.5781 453.3416,726.1827 449.7758,724.7612 446.3126,722.4082 442.9294,719.2124 439.0406,714.6172 435.2291,709.332 431.5456,703.4304 423.3504,687.8595 414.3944,667.929 405.6001,645.2871 395.9646,617.7148 386.8525,588.1977 377.4385,554.0418 370.7759,526.437 365.6645,500.9807 362.5093,479.634 361.6336,470.3622 361.1884,461.563 361.2273,453.7368 361.7229,447.2521 362.6287,441.9726 364.0751,437.1356 365.4484,434.1299 367.2395,431.4064 369.2855,429.3224 371.4987,427.8978 374.0021,427.01 377.093,426.653 380.0538,426.8754 383.589,427.6971 387.7245,429.2736 391.9334,431.4088 401.4361,437.5432 410.1996,444.7015 420.5263,454.7546 429.8281,465.0768 438.851,476.6464 448.0056,489.6955 455.7918,502.3589 462.946,515.464 468.8624,528.0167 474.9531,542.9198 479.6651,556.8501 483.2346,569.2771 485.7343,580.1564 488.8849,597.0978 490.7081,611.47 491.8613,625.3788 492.4925,642.3129 492.3405,659.0601 491.718,671.875 490.0155,689.3719 487.3839,707.5801 484.6365,720.4322 481.4707,731.7123 477.5346,742.1402 473.4147,749.725 470.977,753.0152 468.6359,755.4484 466.0894,757.3418 463.584,758.5286 460.2175,759.046 456.561,758.3536 452.5,756.375 448.9518,753.6903 444.9324,749.5657 440.8943,744.4452 436.3102,737.6444 432.1425,730.6018 427.74,722.246 422.9601,712.2642 412.6886,688.1978 402.9141,662.0765 392.1189,630.223 381.067,594.6647 370.321,556.2306 361.4338,520.9067 354.605,488.902 350.1316,462.1336 348.7844,451.0108 347.9931,441.174 347.7031,431.9219 347.9814,423.4429 348.8001,416.4933 350.1773,410.6727 351.9024,406.4218 354.0597,403.0508 356.6096,400.5234 359.5123,398.8032 362.7283,397.8538 366.3909,397.6446 370.4492,398.1696 375.1338,399.489 380.0795,401.5259 385.5933,404.4296 391.25,408.0 397.9172,412.787 404.6527,418.1259 411.3596,423.9486 424.3915,436.7697 437.2107,450.8132 447.8972,464.1563 460.1331,481.339 469.9024,497.2168 478.5179,513.3093 485.8598,529.6394 491.6893,545.0728 497.5509,564.0694 502.2941,584.4171 505.233,602.0501 506.5902,612.5689 508.1105,628.1208 509.4476,647.1367 510.084,666.9414 510.3507,694.9813 509.7779,724.2454 508.5046,750.9583 506.2723,774.4819 504.2192,789.1665 500.6046,808.6693 498.121,819.0466 495.393,828.6562 493.0742,835.5561 490.1934,842.8821 487.7978,848.1005 485.4037,852.3662 482.566,856.4016 479.9461,859.2402 477.0582,861.4199 473.9296,862.8107 471.868,863.219 469.6903,863.2063 465.63,862.0341 461.0706,859.1517 456.2539,854.5761 451.4967,848.5553 446.5206,840.8884 441.0864,831.2041 435.2942,819.6676 429.754,807.482 423.8475,793.3388 410.7246,758.6818 396.1928,716.5279 380.647,667.8413 361.3932,603.387 343.6113,539.8021 328.1562,480.1194 321.5661,452.6913 316.3721,429.5217 312.3242,409.5854 309.1081,391.6003 306.6597,375.2173 305.041,360.8599 304.2292,348.513 304.1957,338.2288 304.9806,329.0702 306.5752,321.5722 308.1655,317.2367 310.1235,313.6617 312.4346,310.8196 315.3194,308.5356 318.3185,307.1315 321.9015,306.3415 325.9559,306.2298 330.3275,306.749 335.3239,307.9454 340.6019,309.7407 346.4941,312.2427 352.9946,315.479 367.7712,324.1682 384.8482,335.6935 405.5486,351.1887 431.9956,372.5911 450.2922,388.3907 471.5775,408.1439 488.3385,424.9742 505.8199,444.1585 519.2032,460.3604 536.9404,483.864 541.4764,489.2794 544.75,492.625 547.1925,494.5794 549.8301,495.8418 552.0502,496.125 553.7924,495.7604 555.5602,494.875 557.2894,493.4688 559.207,491.2578 563.3049,484.8428 567.4132,476.0933 571.5253,465.8889 576.8172,451.2329 604.2556,368.25 610.3083,351.1969 616.75,334.25 623.5483,318.1451 629.7143,305.791 632.4223,301.3127 634.7219,298.2283 636.375,296.75 637.1939,296.478 637.8843,296.6574 638.7824,298.3426 638.9238,301.0649 638.3107,306.068 637.1652,311.8536 633.3684,325.5518 627.4513,342.4385 620.4718,360.0047 611.532,380.3881 602.4971,399.7327 581.9481,442.1617 569.4757,470.0379 563.9435,483.8981 559.9239,495.6681 557.1854,506.5984 556.875,509.75 557.253,511.064 557.875,510.75 558.596,509.8055 560.6422,505.9023 563.7853,498.1256 566.8691,489.3111 573.9018,467.3873 597.6716,389.2351 608.4057,356.5815 616.5703,333.8068 624.8518,313.2178 632.1017,298.0027 635.2613,292.6345 638.0346,288.8872 640.2419,286.9664 641.0891,286.735 641.8492,286.9973 642.4417,287.7673 642.8492,289.0348 643.0654,292.4184 642.5766,297.2885 641.4081,303.5773 637.7864,317.0857 631.1012,336.6151 623.6438,355.1802 614.1295,376.8744 600.3698,405.6981 577.382,452.612 565.6752,478.646 559.6247,494.2416 555.2794,507.7285 552.8477,518.875 552.6557,523.2205 552.8906,524.1406 553.3339,524.4358 554.092,524.0286 555.1163,522.6695 557.8482,517.202 560.844,509.715 564.537,498.9092 573.2807,470.8601 591.0028,410.6042 602.0896,374.4466 610.284,349.3488 619.0912,324.7542 628.0069,302.7596 632.2978,293.4387 635.8968,286.4835 639.406,280.8135 642.6149,276.8381 643.949,275.6949 645.1392,275.1123 645.9258,275.0703 646.7999,275.542 647.7907,277.7793 648.0222,281.0795 647.4994,286.9855 646.2299,294.2473 642.0781,310.0786 635.5075,329.6019 626.6601,351.7513 616.9579,373.6196 603.0289,402.2325 576.106,455.6232 567.7117,473.3035 562.0317,486.4849 554.6042,505.9366 551.9902,514.1858 549.7184,522.7401 548.2222,529.713 547.4224,537.0714 547.6548,540.567 548.0652,541.5565 548.6031,541.7649 549.7052,541.0991 550.541,540.0601 553.2118,535.1138 556.6223,526.7741 559.9573,517.1701 568.2472,490.3675 586.4421,426.3178 601.3442,375.6645 611.1512,344.7319 620.7254,317.4347 630.7964,292.1408 635.6164,281.6532 640.1067,273.0371 644.2164,266.4496 647.5515,262.4086 649.0152,261.1483 650.566,260.316 651.8698,260.2354 652.75,260.75 653.5746,262.0809 654.1237,264.1317 654.359,269.7754 653.5716,276.9606 651.3909,287.7729 648.6283,298.4218 645.2707,309.2701 640.6687,322.1933 635.2047,336.2361 625.5637,358.7361 614.1272,382.9085 601.588,407.588 576.6469,455.1953 567.4436,473.7097 558.151,494.1766 551.2358,511.5926 548.1823,520.7508 544.6669,532.9117 542.9911,539.8969 541.6018,547.4187 540.8143,554.3235 540.6575,560.6961 541.4133,564.8384 541.863,565.4604 542.7793,565.6758 544.0394,564.9485 545.5439,563.0816 549.0657,555.9482 552.3538,547.3004 558.4756,528.4529 565.4987,504.1268 588.3042,419.7357 599.9547,378.5875 611.7446,340.0006 623.6546,305.1247 629.5613,289.5777 635.3898,275.5631 640.9673,263.5133 645.8883,254.2859 650.7647,246.8429 655.0253,242.05 656.9416,240.6402 658.6255,240.0195 659.9826,240.1862 661.1121,241.0572 662.1233,242.9291 662.7113,245.2375 663.0563,251.696 662.1352,261.2242 659.9472,272.892 656.7916,285.3709 652.498,299.417 647.3495,314.2086 641.4412,329.3889 630.306,354.6721 617.5138,380.8738 600.9015,412.3256 573.3706,462.448 561.3738,485.7848 551.5705,506.8687 546.757,518.7599 542.7641,529.6037 538.8472,541.911 535.9003,553.4217 533.2779,566.0704 531.4737,579.0562 531.0004,589.7455 531.4485,598.6348 531.9568,601.3979 532.7397,603.3784 533.8885,604.8292 534.8253,604.9172 536.3383,603.9254 537.7113,602.2707 540.9575,596.1163 545.659,583.7662 550.3464,568.5756 556.5,546.25 585.4743,430.8324 599.5986,377.3245 606.8709,351.6867 614.2882,327.1593 621.774,303.9699 629.25,282.375 636.749,262.6835 644.2248,245.2516 651.4007,230.6885 657.9384,219.7044 661.0097,215.51 663.8879,212.2471 666.541,209.9317 669.1613,208.4981 671.2376,208.2244 673.1237,209.0459 674.6047,210.8779 675.7276,213.6632 676.4219,216.9844 676.7906,221.0217 676.4953,231.108 674.6917,244.2126 671.5625,259.1719 667.6308,273.9012 662.7735,289.1459 656.3593,306.7443 649.1891,324.4236 642.678,339.1311 635.4911,354.2034 626.8825,371.2853 618.1934,387.6244 602.8502,414.578 566.3695,476.1875 557.5112,491.862 550.0916,505.8542 542.9193,520.4714 537.1988,533.6862 531.2224,549.451 526.5672,564.0198 522.3656,580.2443 518.8286,598.0804 516.3253,615.4043 514.2587,636.4375 512.5302,673.072 511.9478,710.634 511.5305,773.6249 510.5202,798.8964 509.5909,810.5515 508.1844,821.1851 506.2547,833.0107 501.825,853.06 498.065,866.2736 494.7791,875.3943 490.5735,884.8799 486.2953,892.038 484.0742,894.7325 481.915,896.7576 479.2528,898.5526 476.8938,899.5534 474.753,899.9516 472.8013,899.9058 470.7298,899.4566 468.5271,898.5601 464.1101,895.6098 459.579,891.1412 454.8518,885.0074 449.847,877.1371 444.5598,867.5596 438.9184,856.1763 433.5287,844.2093 427.6331,829.9803 414.7191,795.678 399.8239,752.3511 384.3043,703.7608 362.0585,629.699 340.2337,553.0758 321.4096,482.3854 305.9433,419.3788 301.0265,397.3088 296.8837,376.8574 293.6115,358.511 291.1421,341.8994 289.533,327.4223 288.7493,314.7773 288.8018,304.408 289.7007,295.6432 290.685,291.013 291.979,287.0062 293.5702,283.599 295.6486,280.5151 297.8225,278.2893 300.5113,276.447 303.4954,275.2088 306.7579,274.543 310.2819,274.4177 314.4327,274.852 318.879,275.8072 323.9022,277.349 335.0245,282.0166 348.0165,288.9525 366.7488,300.6575 390.9902,317.1831 411.7987,332.2627 444.9806,357.3564 472.0098,378.6543 493.3626,396.1708 515.6714,415.5937 542.1886,439.9738 549.5326,446.3058 555.5938,450.6406 558.4445,451.9742 561.256,452.7296 563.2031,452.7812 565.4265,452.3113 567.6181,451.2532 569.5937,449.7093 573.4127,445.0881 578.0362,437.2104 585.9089,419.6674 602.8879,375.2521 611.5847,353.8765 618.3849,339.6359 620.9904,335.6559 621.8203,334.8945 622.375,334.7812 622.8408,335.5854 622.7609,337.7309 621.1649,344.9266 617.9805,355.0488 612.4283,369.9902 599.9264,399.5131 580.1957,444.2991 575.8928,455.1809 573.125,463.25 574.88,459.5388 580.1095,444.9575 597.7662,392.2069 607.8918,363.8802 614.0356,348.5445 618.1512,339.3921 622.1982,332.3318 623.7361,330.5972 624.5139,330.4444 624.875,331.375 624.8045,333.2204 623.375,339.875 620.072,350.8387 615.6568,362.9209 605.0792,388.6638 580.8513,443.0678 574.4869,458.7223 571.2637,468.4941 573.5163,463.562 577.4259,452.9861 595.5471,398.1624 609.433,359.1989 615.5214,344.1683 620.1175,333.9463 623.9306,327.3927 625.3825,325.7921 626.3476,325.5708 626.7823,326.8061 626.7488,329.0026 625.2483,336.3529 621.9826,347.2251 617.2165,360.4406 605.6211,388.3131 577.6191,450.7715 572.2048,464.4737 569.9766,470.9511 569.3281,474.3438 571.543,469.669 576.5642,455.9742 599.3327,386.7813 610.3935,355.8843 616.9144,339.5919 621.3102,330.1424 625.8565,322.1898 627.5582,320.3199 628.5021,320.2093 629.0122,321.4696 628.9948,323.9995 627.0287,333.2506 624.5,341.625 618.2134,359.1718 607.4425,385.0348 578.1133,449.6245 569.869,470.3324 567.6229,477.534 567.082,479.782 567.118,480.808 568.2381,479.0026 569.879,475.1225 575.6272,459.1986 598.8476,387.5343 605.3262,368.5911 611.2539,352.5758 617.6922,336.4965 623.6362,323.7434 626.0866,319.343 628.3478,315.9955 629.958,314.3879 631.0381,314.3165 631.6113,315.627 631.6034,317.7471 629.9335,326.7175 625.9627,339.7289 621.1169,353.3012 615.2734,367.9745 609.2012,382.0086 579.419,446.922 572.6996,462.5399 566.0545,480.7659 564.7404,485.5004 564.557,488.243 565.625,486.875 567.6419,482.4431 572.1775,470.0749 599.8347,383.9594 613.0228,346.8079 620.7464,327.922 625.8308,317.1895 628.4843,312.4719 630.6972,309.2271 632.3594,307.5938 633.1325,307.2817 633.7195,307.4707 634.3095,309.0652 634.3426,312.3663 632.7223,321.1323 629.0891,333.7646 623.223,350.0245 617.8496,363.5019 609.4583,382.7454 581.0973,443.3837 572.0176,464.2168 567.0208,476.9061 563.6905,486.7583 561.4873,495.3646 561.4688,496.4062 561.875,496.875 563.2401,494.8652 565.3333,490.1638 570.1772,477.1106 603.3725,372.875 608.5554,357.6813 614.3595,341.8996 621.6612,323.8873 628.538,309.226 631.2031,304.6562 633.667,301.3091 635.7338,299.6592 637.0,299.8281 637.6802,301.4985 637.6756,304.5365 637.0429,309.3097 635.8603,314.9442 631.7503,329.1961 626.1796,345.074 620.2996,359.8293 613.9496,374.4111 602.6502,398.9538 580.9739,444.3342 569.846,469.176 565.4164,480.4175 560.7202,493.8787 558.5517,502.5195 558.125,505.75 558.44,507.091 559.0,506.875 559.868,505.647 562.3268,500.7177 568.8729,482.4538 579.4497,448.9849 597.5981,389.7289 608.2982,357.4672 616.1911,335.5556 624.2429,315.7331 631.5402,300.5897 634.5231,295.5602 637.0626,292.1645 639.073,290.4883 639.8301,290.3128 640.5989,290.6303 641.4317,292.5796 641.5486,295.6313 640.9704,300.4847 639.7138,306.9082 635.8747,320.9953 629.7454,338.8194 621.8943,358.3911 612.9071,378.8508 603.3131,399.1001 579.8967,446.9364 567.2035,475.0668 561.2554,490.2093 556.8517,503.6167 554.3265,514.6591 554.1649,518.5417 554.4531,519.375 554.9497,519.5417 556.6198,517.5463 559.07,512.534 561.9717,505.3391 565.0986,496.2381 575.8295,461.7928 598.0454,387.701 608.7073,354.7673 618.127,328.3284 626.6116,307.218 630.6795,298.3304 634.354,291.1738 637.8064,285.429 640.9664,281.3046 643.25,279.5 644.1992,279.3558 644.9925,279.7531 645.941,281.705 646.2309,285.1857 645.7203,290.5725 644.4777,297.4215 640.1882,313.6594 633.6696,332.9172 625.958,352.1642 616.0498,374.4338 602.3726,402.6968 578.4177,450.5321 568.8076,471.1399 563.7051,482.9756 556.5632,501.3952 552.1884,515.6416 550.3252,523.657 549.5287,529.1124 549.4531,533.8906 549.8576,534.9861 550.4033,535.2083 551.5556,534.375 552.625,532.875 555.2264,527.5542 559.2744,516.9842 563.3532,505.079 570.4275,482.0044 587.8866,421.2232 600.0116,380.4428 610.6709,347.0635 619.3843,322.0768 624.7844,308.1812 630.375,294.875 634.646,285.6464 638.66,277.982 642.593,271.6072 645.8653,267.5989 647.3467,266.421 648.667,265.8356 649.7989,265.8374 650.7151,266.421 651.713,268.7911 651.9997,273.1119 651.532,279.0726 650.3928,285.9946 648.5582,294.0914 646.1026,303.0476 639.4948,322.9775 630.2993,346.3146 619.677,369.9427 605.4071,399.1271 570.4381,467.3796 564.378,480.3603 557.9383,495.4869 550.0213,516.9843 547.4734,525.5038 545.3806,534.0569 543.7935,543.177 543.2156,549.88 543.564,554.684 544.142,555.932 544.932,556.339 546.084,555.683 547.1291,554.4376 550.2311,548.6165 554.0041,539.0767 557.7844,527.9618 566.4703,498.8269 586.4009,426.682 599.6775,380.0789 611.8657,341.0943 622.7594,309.5185 628.5938,294.2142 634.0067,281.1739 638.7648,270.9579 643.6473,261.7974 648.3689,254.3698 652.212,249.8151 653.963,248.4583 655.5131,247.8075 656.8415,247.8626 657.9272,248.6236 658.7495,250.0906 659.33,252.4446 659.6153,259.1216 658.7012,268.1895 656.7027,278.5079 653.566,290.5969 649.4765,303.7845 644.6936,317.3181 638.6463,332.7639 628.1968,356.7841 615.3284,383.2519 604.6365,403.8475 574.8645,459.2077 565.0848,478.3631 553.5,503.625 546.3522,521.6831 542.5561,533.3566 539.2524,545.4767 537.225,554.7399 535.5754,565.0257 534.7863,574.7483 534.9146,581.9497 535.3613,585.0861 535.9586,586.9178 536.9207,588.2228 537.8629,588.5077 539.1228,587.8432 540.5,586.25 544.2306,579.1318 548.4683,568.0092 552.8764,554.3003 560.9061,525.5214 585.3257,431.4257 598.4805,382.426 612.8597,333.6859 619.1987,314.0419 625.577,295.5984 632.498,277.1502 639.182,261.0709 645.7035,247.1724 651.9755,235.6775 657.3177,227.7876 659.5564,225.2054 661.9762,223.0237 664.1636,221.7343 666.0911,221.3348 667.7315,221.8227 669.0577,223.1956 670.0859,225.5403 670.7476,228.6176 671.0874,232.7931 671.0449,237.3756 669.9794,247.9428 667.4731,261.2005 663.707,276.2686 659.0266,291.699 653.5789,307.0845 646.6006,324.6549 640.4137,338.9845 633.7152,353.4879 618.6733,383.2628 602.3628,412.9491 568.9093,471.3768 555.2527,496.8244 549.065,509.5908 543.5952,521.9734 538.8115,534.0288 534.31,546.7562 529.6953,562.4548 526.5671,576.0789 523.7388,592.8799 521.7485,611.8112 521.1411,626.3292 521.3085,637.3285 521.9594,646.2867 523.8125,654.8105 525.3102,657.3019 526.0514,657.8217 526.6893,657.8141 528.1255,656.976 529.4965,655.4231 531.0067,652.9265 532.625,649.375 537.2452,636.8048 542.3034,619.1134 554.1738,569.8025 582.1347,445.3863 596.0249,387.8118 604.994,353.3703 613.9865,321.1531 622.7165,292.1548 631.4853,265.3739 641.1322,238.7064 650.4324,216.0241 659.0546,198.085 663.334,190.3877 667.6931,183.4113 671.8556,177.6415 675.7734,173.1308 679.3985,169.9315 682.7793,168.0598 685.6027,167.6062 688.3192,168.4882 690.5933,170.7574 692.3888,174.352 693.477,178.236 694.2011,182.9323 694.5447,188.5095 694.4983,194.7416 693.2537,209.3789 690.5258,226.0661 686.6113,243.3652 681.4621,261.6165 675.061,280.8441 667.4477,300.8688 658.8711,321.0244 649.4824,340.9852 638.8708,361.5986 626.9778,382.9485 615.5723,402.1748 603.4068,421.5701 562.0982,483.7156 547.8325,506.0172 534.819,528.2677 529.1053,539.1097 524.2536,549.1327 518.8347,561.6338 513.8547,574.7309 509.3582,588.3648 505.5936,601.7546 502.3052,615.481 498.5309,633.3099 487.9141,689.9798 484.7969,703.1248 481.9279,713.2831 477.2557,726.064 472.5582,735.2747 470.1332,738.7758 467.7104,741.4274 465.1377,743.4262 462.4155,744.7279 459.1463,745.2692 455.5875,744.7624 451.9185,743.203 448.4035,740.7271 444.3628,736.8161 440.3236,731.9288 436.467,726.4283 432.3904,719.7572 423.6204,702.8807 414.4339,682.0065 404.3535,655.8535 394.1677,626.5257 383.5196,592.2389 373.2363,555.4523 365.3796,523.3674 359.1087,493.0834 355.3771,469.4657 354.2309,458.7583 353.5927,449.031 353.4624,440.3595 353.8258,433.055 354.7314,426.7718 356.158,421.519 357.7413,417.8657 359.6427,414.9258 361.8373,412.6883 364.5186,411.0403 367.6359,410.1039 371.0792,409.8779 374.7946,410.3122 379.1317,411.4931 383.6613,413.3461 388.3306,415.7907 393.4832,418.9775 399.0525,422.922 409.6333,431.6896 422.3454,444.0014 433.1699,455.9668 444.9585,470.8206 454.597,484.3925 463.3267,498.4556 471.1411,512.9263 478.8302,529.6399 483.8962,542.5173 489.4045,559.4214 493.0026,573.1961 496.6451,590.8616 499.1644,607.9439 500.6269,623.0798 501.5978,639.4995 501.9168,657.7489 501.4404,677.3132 500.1045,699.625 498.1738,717.7154 495.437,736.2495 491.7529,754.0796 487.9334,767.8441 483.2812,780.1172 480.952,785.0121 478.5687,789.133 476.0649,792.5641 473.563,795.177 470.833,797.1749 468.1736,798.3728 464.3894,798.9602 460.3134,798.0867 456.1855,795.8145 451.4587,791.8576 447.1757,787.0479 442.8147,780.9831 438.1352,773.3918 433.0777,764.1806 428.2363,754.4958 423.0886,743.146 411.7226,715.0778 399.5796,681.7599 386.9975,643.6381 371.6872,593.338 359.5172,549.802 348.162,504.7804 343.3755,483.8694 339.5614,465.5921 336.4641,448.8679 334.0736,433.7559 332.3402,419.9693 331.3153,407.9323 330.9923,398.1618 331.3399,389.2777 332.355,381.7142 334.1086,375.1402 336.2354,370.4657 339.0243,366.739 342.4083,364.1878 346.3404,362.7532 351.1027,362.3612 356.3393,363.0505 362.3908,364.8558 369.2945,367.8603 376.9733,372.0373 385.5353,377.495 394.5628,384.0017 403.7922,391.3372 414.1895,400.2568 424.2848,409.549 433.6639,418.8121 443.5777,429.2848 458.6255,446.4157 471.7443,463.324 482.8107,479.2655 492.9288,496.1718 500.3514,510.435 506.0167,522.7476 509.8638,531.9295 516.3574,549.6836 524.3611,575.637 528.4674,586.9642 530.2609,590.4777 531.9357,592.6967 533.7996,593.8018 535.8262,593.5664 537.5906,592.2612 539.1734,590.3511 542.8868,583.4953 547.3401,572.3046 552.0705,557.7366 561.4849,524.0819 583.3721,438.4323 599.9236,376.894 613.8137,329.7877 619.9915,310.6168 626.3742,292.2279 633.8937,272.2953 641.1215,254.9169 647.1862,242.0326 653.2418,231.0586 658.9469,222.7396 661.5957,219.7451 663.8678,217.7843 665.9423,216.6353 668.0879,216.2975 669.6676,216.8479 671.1786,218.4458 672.3005,221.0473 672.9272,224.0552 673.2313,232.8082 672.1185,244.3639 669.6716,257.6709 665.8899,272.6975 660.8343,289.3397 654.8938,306.2787 648.154,323.309 641.8803,337.7624 635.1158,352.2902 627.7613,367.1372 619.5174,382.8809 603.8763,411.0661 566.3901,475.9531 553.6147,499.6174 546.7468,513.8247 540.0819,529.0154 535.7188,540.3125 531.1242,553.9251 526.6916,569.9557 523.1013,587.1032 520.7386,602.9753 518.8221,624.1742 518.3301,636.3359 518.2563,647.4066 518.6779,659.817 519.1611,665.7738 520.0308,672.0529 521.3348,677.3237 522.0688,678.7268 523.1729,679.824 524.2188,679.9844 524.9844,679.7129 526.392,678.376 528.0723,675.625 531.684,666.8723 534.3507,658.7062 539.5822,639.6193 549.4707,597.0575 579.0399,459.8967 594.4342,393.0763 603.9958,355.0467 613.6232,319.3745 622.5586,288.871 631.7476,260.1223 642.2024,230.6037 652.2306,205.7432 657.1874,194.8373 662.2724,184.606 667.242,175.582 672.0437,167.8595 676.46,161.7408 680.625,157.0 684.6582,153.5955 688.3699,151.7128 691.7143,151.3127 694.6454,152.3557 696.0536,153.5188 697.3177,155.0932 699.2364,159.0265 700.5,163.75 701.312,169.5406 701.6834,176.2467 701.6108,183.781 701.0908,192.0556 700.12,200.9831 696.9082,219.9841 692.0556,240.262 685.5714,262.1144 677.832,284.2508 668.8788,306.5572 659.4337,327.4766 648.9256,348.6156 637.5355,369.6071 625.2039,390.5899 612.5172,410.8865 598.8965,431.5402 556.6105,492.0443 543.5068,511.4423 530.7099,532.0247 520.2512,551.1271 514.7324,562.6043 509.7313,574.4273 505.1137,586.7699 500.8619,599.8941 495.3816,619.6879 482.9366,673.0263 479.48,685.8103 476.41,695.2475 472.3994,704.8335 468.1194,712.2658 466.034,714.966 463.8098,717.2099 461.518,718.8958 459.1283,719.9877 455.8397,720.5095 452.6955,720.1069 449.5332,718.8921 446.536,716.9506 443.0649,713.8611 439.3473,709.7097 435.8995,705.152 432.2523,699.5249 423.8931,684.1401 415.5709,666.0598 406.8829,644.1702 398.1866,619.5233 388.9962,590.2177 380.0412,558.4119 373.3419,530.9728 368.1407,505.3232 364.9485,483.6451 364.0492,473.9949 363.6385,465.5916 363.6712,458.5278 364.1654,452.1614 365.1143,446.6932 366.6087,441.8028 367.955,438.94 369.6848,436.3945 371.7442,434.4074 373.866,433.1235 376.2031,432.3161 379.1036,431.9564 382.2113,432.1747 385.4866,432.9472 389.4208,434.4588 393.4366,436.4562 401.8462,441.8606 410.5527,449.0186 419.9197,458.1397 429.2461,468.6385 439.0493,481.2354 446.7531,492.4524 455.3182,506.6055 461.7807,518.618 467.6957,531.5841 472.91,544.6374 477.395,558.0386 481.1989,571.466 484.35,586.0569 486.4391,598.4183 488.375,614.7055 489.232,625.5058 489.7725,642.6196 489.5532,657.1899 488.874,669.7482 487.2285,686.4486 485.0066,700.4294 482.6819,711.5272 479.0648,724.2407 474.9818,734.3749 471.328,741.018 469.3343,743.584 466.9621,745.913 464.7768,747.4362 462.4348,748.4611 458.9128,749.0196 455.5958,748.5016 452.0682,746.8723 448.243,744.0592 444.4861,740.4369 440.7701,735.9262 436.8636,730.278 432.5171,723.0847 423.7706,706.2256 414.2505,684.413 403.9058,657.6217 393.9058,628.493 382.1883,590.7833 373.2352,558.8545 364.5909,523.9681 358.0952,493.1613 354.0006,467.5731 352.7436,456.4027 352.0139,446.2549 351.8765,437.8567 352.3038,430.0553 353.2256,423.7311 354.7261,418.1548 356.3705,414.3986 358.3309,411.4786 360.4997,409.351 363.2648,407.6763 366.3408,406.7292 369.6931,406.475 373.2869,406.879 377.1604,407.9203 381.8257,409.7465 386.7192,412.1915 391.7664,415.2018 396.8925,418.7242 409.1112,428.7186 421.347,440.3462 433.1155,453.2252 444.204,466.8384 454.4093,481.1471 463.6487,495.6745 471.7795,510.5985 479.3145,526.3259 485.4777,541.8701 490.3717,556.5765 494.9694,573.9537 497.733,587.0812 500.4996,604.4387 502.55,623.8228 503.7183,645.492 503.9638,663.3608 503.515,682.305 502.1993,703.5666 500.1973,723.5783 497.3332,743.594 493.9114,760.6464 489.6829,776.9555 485.0183,789.7217 482.8191,794.4869 480.4199,798.7416 477.609,802.8053 475.0891,805.6144 472.3205,807.8111 469.568,809.17 465.9177,809.7457 461.8837,808.9519 457.375,806.625 453.0661,803.079 448.6614,798.129 443.8884,791.5058 438.6736,783.0731 433.736,774.015 428.3734,762.9552 422.6733,750.0762 409.7194,717.6744 397.6453,683.803 384.3175,642.9605 370.1304,596.114 356.2612,545.883 343.8782,496.7363 339.1739,476.099 335.1124,456.5692 332.0004,439.7726 329.5862,424.5995 327.875,411.125 326.8947,399.4984 326.5889,389.1901 326.9668,379.8261 328.0333,371.9098 329.7636,365.4449 331.7885,361.0056 334.3537,357.5594 337.6537,354.9453 341.4659,353.3787 345.732,352.789 350.7981,353.1706 356.2542,354.526 362.5151,356.9417 369.4346,360.3133 376.947,364.6323 384.9648,369.873 393.0344,375.7251 403.8434,384.2477 414.4001,393.1322 424.0703,401.8418 433.1525,410.6343 449.4095,427.3829 461.7633,441.4441 477.7325,461.73 490.163,479.7953 499.8718,495.8462 510.6988,517.0327 517.6826,533.2929 527.5979,559.5247 531.3441,567.9447 533.1941,570.8681 535.2809,572.9608 536.8612,573.7003 538.7291,573.4875 540.4391,572.4741 542.2701,570.5241 544.2669,567.5303 546.239,563.7373 550.8804,552.3129 556.4901,535.579 565.1338,505.6851 590.4384,411.3983 600.6021,375.2837 613.5064,333.0636 619.9152,313.8809 626.1497,296.4044 632.1502,280.7965 638.1114,266.7888 643.8659,254.7675 649.2251,245.0938 653.9118,238.2599 656.2014,235.6589 658.3101,233.7927 660.2138,232.6611 661.8886,232.2643 663.3104,232.6021 664.3605,233.5398 665.267,235.2506 665.962,237.9391 666.3426,245.6157 665.3375,256.0387 663.0925,268.0308 659.6821,281.5196 655.3277,295.743 649.8725,311.2031 643.3919,327.6677 631.9118,353.5927 616.8329,383.9938 603.2382,409.3665 571.2758,466.7808 557.791,492.6055 552.5771,503.4239 547.8983,514.041 543.4924,524.9013 539.6623,535.3659 535.613,548.6798 532.0459,562.8247 529.1191,578.6055 527.4719,592.5605 527.006,605.5295 527.7888,616.5532 528.3975,619.3577 529.476,622.2174 530.6475,623.4184 532.1918,623.4165 533.75,622.0781 535.3188,619.8479 538.8332,612.5064 543.1207,600.3948 547.5082,585.943 555.6114,554.8839 581.0364,449.395 597.6588,383.8849 605.9073,353.7008 614.0594,325.5943 621.4851,301.6652 628.9584,279.3665 637.1875,256.9536 645.0603,237.8455 652.7752,221.7059 660.0936,208.8887 663.598,203.731 666.882,199.6019 669.6788,196.7588 672.5952,194.6529 675.2262,193.6958 677.5354,193.8628 679.4861,195.1296 681.0417,197.4719 682.1657,200.8653 682.804,204.848 683.1162,210.0467 683.0246,216.0638 681.663,229.8166 678.8017,245.323 674.2761,263.1698 668.4162,282.1906 661.5342,301.3635 653.6178,320.7363 646.0238,337.651 637.9107,354.4253 629.2003,371.2648 619.3041,389.2828 601.5999,419.5096 563.3163,481.5619 547.1618,509.7839 540.8441,522.0219 534.9087,534.6479 530.1489,545.7963 525.734,557.5047 521.1271,571.4959 516.8185,587.3581 514.4142,597.8862 511.3386,614.566 507.404,642.446 502.3035,690.1235 499.7997,710.0765 496.7545,729.7044 492.7107,750.2566 487.7393,768.2542 484.5739,776.716 481.4345,783.6286 478.3259,789.0185 475.234,793.0596 472.0225,795.9247 468.3326,797.8099 464.6107,798.3689 460.5376,797.5627 456.2579,795.353 452.1797,792.0109 447.7752,787.1424 443.2609,780.9994 438.2372,773.0167 433.407,764.273 428.2836,753.9202 422.852,741.9135 410.9675,712.6484 398.7161,678.7295 385.8355,639.6398 372.026,594.0179 358.5636,545.2946 347.5492,501.3873 339.3668,463.4423 336.4308,447.4003 334.1025,432.5876 332.5183,419.9544 331.5946,408.6546 331.3172,398.1893 331.7223,389.1002 332.791,381.4102 334.5044,375.1417 336.9384,370.1528 339.88,366.6598 343.3726,364.3161 347.7108,362.9901 352.554,362.836 357.8285,363.7617 364.347,365.9524 371.4719,369.2219 379.2543,373.6078 387.5829,379.0835 396.8394,385.9717 406.8219,394.0661 416.0507,402.1349 424.7036,410.248 436.2803,421.8276 446.0238,432.1142 458.1671,446.217 472.8952,465.3029 483.8391,481.4957 493.3554,497.4351 503.1,516.8998 510.3071,534.0196 515.199,547.4615 525.9047,581.3746 528.4561,588.0502 530.077,591.493 531.8472,593.7361 533.7272,594.8256 535.4119,594.5864 537.2502,593.3571 539.0762,591.2398 541.0357,588.0064 542.9112,584.1148 547.4992,572.0982 552.8771,554.9969 562.3042,521.005 587.0692,424.1799 598.9107,380.28 613.484,330.633 620.3363,309.4818 627.351,289.3057 634.3851,270.5685 640.7947,255.2269 647.391,241.3158 653.7409,229.8823 659.216,221.9995 661.6468,219.2761 664.2089,217.0587 666.2387,215.9074 668.2883,215.5002 670.0199,216.0696 671.352,217.5375 672.4003,219.961 673.1615,223.5322 673.5076,227.6476 673.501,232.4971 672.3892,244.1957 669.8434,257.9712 666.1081,272.9426 661.2278,288.9481 655.4202,305.2561 648.1499,323.5338 641.779,338.2266 634.8658,353.0485 626.6384,369.527 617.7142,386.5225 600.8524,416.7679 567.5241,473.8962 553.8736,499.0015 546.8571,513.331 541.3888,525.4974 536.3105,538.498 531.4574,552.4428 525.9953,572.1313 522.1607,591.3319 519.4748,611.9207 518.1286,628.9957 517.7209,644.1524 517.8858,657.2568 518.8867,671.556 519.8242,677.9062 521.125,682.125 522.4983,684.0037 523.375,684.375 524.3615,684.0831 525.8777,682.6279 527.188,680.5887 530.4519,672.9993 534.7756,659.3373 539.6748,640.8264 551.0509,591.2315 579.7294,456.8575 594.8233,391.2273 603.9134,354.8934 613.3629,319.77 623.2482,285.7172 631.763,258.9468 642.5177,228.689 653.144,202.4627 658.3286,191.0509 663.1177,181.4338 667.9409,172.7551 672.6329,165.3078 677.3754,158.8493 681.8593,153.8597 686.0266,150.3927 689.819,148.5019 691.6227,148.1585 693.2872,148.2424 694.8362,148.7335 696.2658,149.6204 698.751,152.536 700.7118,156.898 702.0356,162.1638 702.8107,167.9985 703.1366,174.7091 702.9817,182.5903 702.339,191.2685 701.2241,200.5956 697.6274,220.8433 692.5179,241.8014 686.0231,263.184 677.8411,286.0705 668.4805,308.9966 658.9496,329.9088 648.7157,350.3046 637.4016,370.9491 624.8545,392.1032 611.8063,412.7006 597.6377,433.9377 555.0555,494.3123 542.2258,513.0942 529.9721,532.5468 519.8913,550.712 513.7721,563.1868 508.7385,574.6298 504.2997,586.1998 500.0524,598.8666 493.7385,621.2236 481.6348,671.6216 478.5461,682.4451 475.3889,691.9213 471.4904,701.0402 467.321,708.2125 465.0168,711.1319 462.96,713.1551 460.784,714.6962 458.7842,715.6093 455.6871,716.2119 452.463,715.8805 449.0483,714.5397 445.7686,712.4123 442.5205,709.5731 439.252,705.9384 435.833,701.3944 431.9993,695.5243 424.2251,681.423 415.766,663.014 407.5977,642.7491 399.2039,618.9827 390.0362,590.0611 381.8673,561.056 374.8891,532.7777 369.9442,508.34 366.6954,486.5091 365.851,477.8436 365.449,469.8247 365.503,462.243 366.0233,455.6055 367.0464,449.6808 368.444,445.1826 369.7745,442.4866 371.5825,439.9955 373.3872,438.3164 375.67,436.9508 378.1512,436.1555 380.6466,435.9025 383.5525,436.1166 386.9985,436.9152 390.2592,438.1105 394.0177,439.9357 401.8248,444.9877 410.4849,452.0017 419.125,460.375 428.1119,470.3845 436.1942,480.56 445.1766,493.5279 452.7737,505.7985 459.4553,518.2834 465.4042,530.9783 470.7139,544.3203 475.3054,557.6455 478.8973,570.4089 481.9029,583.378 484.4112,598.0913 486.0931,610.8838 487.3131,626.512 487.7381,637.0021 487.5942,654.3319 486.7894,668.0353 485.5498,680.7852 483.1019,696.5741 480.2632,709.3011 477.2301,719.6454 473.899,727.738 469.8256,734.599 467.7181,737.2184 465.7002,739.1448 463.5367,740.6197 461.5402,741.4983 458.2263,742.0793 454.5794,741.5074 451.002,739.8184 447.302,737.081 443.6192,733.4235 439.7031,728.5781 435.543,722.5124 431.128,715.194 427.076,707.658 422.7031,698.6018 412.8933,675.7171 403.7544,651.914 394.076,623.6751 383.8044,590.742 374.5512,557.5666 366.1565,523.5665 360.4537,495.874 356.5938,471.1182 355.4347,460.4575 354.845,451.3104 354.7645,443.1031 355.2145,435.5145 356.1974,429.0402 357.6972,423.7175 359.2352,420.3327 361.0763,417.6035 363.2035,415.4972 365.9126,413.8433 368.579,412.9835 371.8423,412.6731 375.5121,413.0467 379.3642,414.0311 383.4136,415.5758 387.9681,417.8264 397.0,423.625 408.9373,433.1981 420.286,443.9408 431.4345,456.1568 441.4887,468.5584 451.9043,483.2319 461.0112,497.5943 468.7744,511.6361 475.1636,524.9337 482.163,542.373 486.7775,555.8927 490.9986,571.5597 494.0517,585.5646 496.8266,601.8402 498.555,617.375 499.7144,635.1657 500.2486,651.7504 500.0306,669.9989 498.7668,690.5757 496.7092,710.9997 493.9267,730.1325 490.5441,746.3307 486.1891,761.9505 482.2472,772.2582 479.8046,777.1751 477.3351,781.2811 474.9736,784.463 472.4087,787.1389 469.9653,788.9254 467.3069,790.1037 463.531,790.6404 459.7134,789.9134 455.5881,787.7666 451.4521,784.3738 447.3413,779.9354 442.9766,774.1 438.2984,766.728 433.477,758.1245 428.2407,747.8349 423.4037,737.4275 412.6269,711.3731 400.2049,677.6432 388.3874,642.1684 373.9993,595.0115 361.8687,551.741 351.0732,508.7577 342.6591,470.2514 339.7466,454.4674 337.4441,439.8166 335.8182,426.7651 334.8264,415.0137 334.4974,405.1705 334.803,396.5783 335.7383,389.2446 337.3833,382.7965 339.5079,377.9596 342.338,374.0938 345.6849,371.5186 349.8355,370.0071 354.8869,369.6523 360.4579,370.4943 366.4406,372.4191 373.3585,375.6399 381.5999,380.371 390.4192,386.2382 399.3226,392.9288 408.1985,400.3423 419.5414,410.5234 429.6902,420.3219 438.0,429.0 448.7453,441.071 461.9323,457.3145 475.8251,476.7525 484.1508,490.0168 494.7397,509.5756 498.625,517.75 503.6804,529.4673 510.6203,548.3004 514.8139,561.9394 523.9224,596.9247 526.679,605.1012 528.2428,608.2755 530.1907,610.6569 531.9695,611.3031 533.4973,610.8699 535.2893,609.2868 537.0916,606.7966 540.6204,599.5694 544.6848,588.5798 549.7832,572.0684 559.8862,534.2553 584.7352,433.7611 600.512,373.4738 607.1249,349.9664 614.052,326.8433 621.2462,304.2597 628.1993,283.8303 635.9651,262.9843 643.55,244.703 650.6059,229.7739 657.3128,217.8573 660.6011,212.9475 663.7104,208.9604 666.6102,205.9246 669.2697,203.8683 671.6585,202.82 673.8857,202.8202 675.6861,203.8656 677.1327,205.8948 678.211,208.867 678.9065,212.7411 679.2049,217.4763 679.0964,222.9461 677.6623,236.311 674.693,251.8958 670.512,268.2649 665.065,285.7541 658.4356,304.2162 650.7861,323.1499 644.1757,338.045 636.4349,354.2519 628.1327,370.5498 619.1882,387.1431 601.7618,417.5005 564.5469,479.3333 550.037,505.2911 543.4964,518.204 537.655,530.9818 531.7029,545.3976 527.367,557.5299 523.2351,571.2234 519.9466,584.6229 516.7888,599.9785 514.2413,616.3798 511.373,641.669 507.5191,697.0311 504.8633,729.1875 501.7428,753.3587 497.5813,777.0578 495.3772,786.6329 491.7061,799.4546 488.6419,808.1102 485.405,815.595 482.3239,821.0737 478.6378,825.8915 475.0278,829.0939 471.3364,830.9756 469.2651,831.4421 467.4067,831.489 463.4006,830.4947 458.9136,827.873 454.3275,823.8462 449.8918,818.6449 445.0983,811.7481 440.1295,803.4175 434.6325,793.0377 429.2133,781.6798 423.4308,768.4547 411.1182,737.2054 398.326,701.0656 384.2767,657.6951 366.735,599.576 351.9293,546.7879 338.1992,493.4178 332.6499,469.9863 328.1546,449.3187 324.4645,430.3842 321.568,413.2587 319.4103,397.6707 318.0467,384.0637 317.4698,372.7141 317.6468,363.2664 318.5929,354.8166 320.2787,347.8815 322.1054,343.4435 324.5115,339.6881 327.3662,336.9132 330.6443,335.0792 334.505,334.0565 339.1134,333.8844 344.13,334.5883 349.8887,336.2123 356.3866,338.8147 363.0719,342.1342 371.012,346.6811 379.1597,351.8814 396.6391,364.5168 416.4047,380.6794 435.6448,397.8337 453.6502,415.4543 469.105,432.023 484.8406,450.6966 496.74,466.2834 508.5978,483.9761 519.173,502.126 531.6675,525.9953 536.2867,533.7094 538.1824,536.2527 540.2913,538.13 542.375,539.125 544.3049,539.1158 546.3227,538.1175 548.1765,536.4331 550.2083,533.7488 552.1811,530.4137 556.5317,520.9763 561.6929,507.1411 571.2407,477.1993 590.5596,410.7104 603.1647,369.1275 614.1898,335.4616 623.9566,308.7154 633.5957,285.769 637.4991,277.7855 641.1925,271.1637 645.0863,265.3243 648.2867,261.7684 650.7176,260.3657 651.856,260.3656 652.7909,260.9422 653.647,262.4666 654.0613,264.3231 654.1846,270.0431 653.3113,278.0152 651.4675,287.3257 648.4896,298.5256 644.5916,311.0268 640.1764,323.5508 635.0785,336.6263 625.155,359.6544 612.9721,385.0586 602.8537,405.1118 577.7057,453.1284 567.6511,473.3101 558.6197,493.1719 552.1473,509.3039 545.8346,528.8547 543.2265,539.2183 541.7176,546.9815 540.7863,554.6742 540.7889,561.2268 541.5586,564.5098 542.2305,565.2917 543.1379,565.2917 544.2397,564.5417 545.4134,563.0076 548.8196,556.5466 552.5938,546.6719 556.675,534.2318 565.6072,503.5671 586.5993,425.9148 599.0383,381.8133 611.8562,339.8806 623.518,305.7174 629.6201,289.5862 635.1466,276.2397 640.6093,264.458 645.9266,254.4772 650.6718,247.1466 655.0219,242.2298 656.8906,240.875 658.5316,240.2627 659.927,240.398 661.0592,241.2859 661.9633,243.0475 662.5625,245.5374 662.8498,253.0016 661.9037,262.0569 659.5843,273.8871 656.254,286.9848 652.0229,300.8353 646.9604,315.1196 640.7733,330.8992 630.4716,354.3846 615.854,384.0994 606.2194,402.366 574.9136,459.5722 561.8261,484.7359 551.307,507.5524 546.9997,518.0995 543.2295,528.336 539.5469,539.9375 535.6408,554.5509 533.4601,565.2986 532.0588,575.471 531.1481,587.3519 531.4688,597.325 532.1396,600.9983 532.9465,603.2104 533.9885,604.2209 535.3189,604.2453 536.5625,603.2656 538.3074,600.8934 541.836,593.8517 545.6949,583.3201 550.231,568.6873 559.1572,535.8391 582.6714,442.0251 598.8888,380.202 606.3632,353.7101 613.8367,328.6801 620.4628,307.8396 627.2344,288.0312 634.8599,267.5503 642.1433,249.9637 649.2555,234.9533 655.9547,223.006 659.2466,218.0662 662.1704,214.3236 664.8389,211.5695 667.4225,209.6496 669.7342,208.7377 671.7494,208.8191 673.4431,209.8788 674.7906,211.902 675.7672,214.8739 676.3486,218.6003 676.4681,228.4091 675.215,240.3873 672.5983,254.3809 668.7286,269.6367 663.647,286.1285 657.4392,303.5842 650.41,321.2043 643.6551,336.6484 636.2245,352.4417 628.0264,368.8024 618.9599,385.9288 603.5465,413.2819 565.1732,478.2619 556.3254,494.0265 549.1663,507.5561 542.1378,522.1552 536.2085,536.0814 530.7368,550.9353 526.0241,565.8901 521.3611,584.9471 517.6264,606.7096 515.3608,626.0336 513.375,656.25 512.5897,688.6656 512.6296,723.4517 513.0228,742.0889 513.7831,755.5801 514.4913,761.3726 515.521,765.02 516.25,765.875 516.9531,765.8906 518.0197,764.8663 519.1914,762.5254 522.8271,751.9751 525.8463,740.0315 531.9816,712.2005 538.7049,677.3563 559.4225,563.4785 572.5601,493.5256 581.59,447.6811 590.8619,403.5627 600.2941,361.5202 608.6601,326.7943 617.8732,291.382 627.2076,258.2528 639.2818,219.3121 650.7168,186.7023 656.6874,171.3864 662.707,157.08 668.7289,143.9109 674.7068,132.0066 680.2874,122.0113 685.7474,113.3743 691.0742,106.1713 696.0923,100.6104 701.2236,96.2535 706.048,93.5431 710.5113,92.4694 712.4553,92.5255 714.5592,93.0222 717.0002,94.2894 719.0053,96.0418 720.8166,98.3715 722.4223,101.2765 723.9365,105.0894 725.1683,109.3522 726.937,119.435 727.7774,131.7511 727.6072,145.7476 726.4591,160.6808 724.3278,176.6656 721.2747,193.1859 717.3446,210.3906 712.6494,227.8758 707.1369,245.8355 700.9686,263.7245 694.216,281.3591 686.914,298.6507 678.8054,316.2656 667.359,338.9516 654.8019,361.5073 641.662,383.0069 627.0475,404.9033 608.866,429.878 588.5963,455.4628 569.3089,478.2251 524.8165,528.6372 513.4193,542.4132 503.6845,555.0957 493.0726,570.4776 483.5275,586.6105 476.5128,600.5071 463.9587,627.9314 459.6257,636.0525 456.7493,640.4822 453.9937,643.8572 451.3,646.2514 448.4265,647.7817 446.2602,648.2942 444.031,648.2481 441.7465,647.648 439.2259,646.4608 434.9136,642.9972 430.0514,637.2345 425.2307,629.7057 419.5672,618.9837 415.4593,609.5719 410.3755,596.1904 405.612,581.8638 401.0405,565.8382 397.9496,552.6181 395.276,538.239 393.9894,526.991 393.6426,515.9531 394.3634,508.7652 396.005,503.3714 397.6893,500.7378 400.049,498.864 402.4137,498.1618 405.3145,498.3809 408.4107,499.4486 411.6619,501.3245 416.169,504.9659 420.2724,508.9666 423.5,512.75 428.9998,520.1394 432.4307,525.3358 435.9172,531.3545 442.1043,543.7074 448.5111,560.0118 453.1978,576.5438 456.014,590.4305 457.6615,603.9865 458.2576,618.7581 457.9613,625.6045 457.32,631.9713 456.2488,638.2488 454.9434,643.3711 453.3003,647.6152 451.3917,651.0378 449.125,653.625 446.7549,655.0722 444.9398,655.4398 442.5,655.25 440.7445,654.6958 438.6525,653.4985 433.7167,648.9263 429.1139,642.8674 423.9366,634.1748 419.2215,624.5717 413.1026,610.0652 408.421,597.2431 402.9255,580.1568 399.4114,567.5214 394.9842,548.6475 392.659,535.966 391.1064,523.0637 390.7084,512.9795 391.4099,504.34 392.1236,501.0405 393.2251,498.0546 395.0907,495.0931 397.3375,493.1603 400.1485,492.2163 403.0711,492.3101 406.6681,493.469 410.6456,495.7543 414.8017,498.9558 419.0,503.0 424.0609,508.7168 428.3495,514.2748 437.2296,528.4867 440.8291,535.2776 444.7066,543.5978 447.9195,551.4127 450.6333,559.0568 455.1962,574.8886 458.8205,592.5481 460.6342,608.8254 460.884,624.833 460.5,631.375 459.4672,639.9938 458.3356,645.6625 456.6866,651.265 454.7992,655.685 452.6577,659.0041 450.2523,661.3611 447.7848,662.6148 446.0499,662.8914 443.8612,662.6006 441.5062,661.68 438.7791,660.0117 434.152,655.4539 428.5475,647.8544 423.3539,638.5455 416.6462,624.5697 411.4109,611.6801 405.699,595.7911 400.6244,579.3988 395.6557,561.0081 392.1505,545.2076 389.333,529.293 388.0075,517.2121 387.7312,506.2341 388.5503,497.5945 389.4099,493.9515 390.4277,491.2284 392.3833,488.1716 395.0702,486.0505 398.2231,485.1764 401.6684,485.5627 406.0011,487.2598 410.227,489.8812 415.1719,493.9883 420.0762,498.8354 424.3568,503.8327 430.1983,511.6961 434.737,518.491 438.5047,524.9079 442.7708,533.0469 446.5097,541.0797 450.4973,550.7013 453.629,559.3552 458.8715,578.0564 462.0736,594.8928 463.1952,603.7838 463.8824,612.3563 464.153,620.7447 464.0088,629.2746 463.5564,637.2347 462.7046,644.2924 461.386,651.5759 459.7216,657.5884 457.5677,662.8223 455.1988,666.735 452.707,669.4113 449.8005,671.0123 447.363,671.4061 445.0837,671.0954 442.6937,670.1324 439.7701,668.233 437.2543,666.0488 434.546,663.0568 428.5086,654.555 422.7081,644.1431 415.4897,628.4401 410.2764,615.5012 404.7976,600.049 398.9876,581.6326 393.4354,561.0626 389.4318,543.7859 386.3757,526.8342 384.623,513.0587 384.152,501.442 384.8944,491.2293 385.6612,487.5036 386.8611,484.0011 388.9548,480.4814 390.4053,479.0431 391.8269,478.1314 395.2398,477.194 399.5341,477.6568 403.9898,479.4877 409.2619,482.84 414.4036,487.0954 420.1481,492.8241 425.3869,498.8647 430.3555,505.4479 435.7895,513.5632 440.6672,521.7986 445.754,531.59 449.9369,540.5522 453.4746,549.3978 457.0568,559.5115 459.5803,567.8949 462.7031,580.2812 464.3865,588.4244 465.7425,597.2278 466.8363,605.9875 467.4169,613.5409 467.835,625.0742 467.6822,634.4897 467.0686,643.3914 466.0607,651.4105 464.4682,659.8985 462.6086,666.5443 460.4501,671.8763 457.8698,676.2035 454.841,679.4507 451.558,681.2696 449.1282,681.6555 446.5261,681.3018 443.7404,680.1478 440.771,678.1411 438.0562,675.6581 435.1492,672.3294 428.8919,663.2574 422.6095,651.848 415.8832,637.1504 409.5374,621.2966 402.8043,602.2411 396.4588,582.2202 390.581,560.8653 386.0407,541.821 382.7032,523.9122 380.5288,507.5098 379.8752,494.8491 380.0512,488.6592 380.5786,483.2694 381.3452,479.2201 382.5883,475.49 385.01,471.4165 388.0,468.875 389.8311,468.1176 391.8379,467.7638 396.288,468.2068 401.3258,470.1619 407.2878,473.8256 413.1521,478.5588 418.998,484.3395 425.18,491.4096 430.9261,498.8971 437.3337,508.293 442.6895,517.137 448.5573,528.3768 453.2699,538.3747 456.5325,546.4652 460.8687,558.7557 463.7064,568.1598 466.5157,579.3684 468.4925,588.942 470.0972,599.1551 471.3388,610.0655 472.1115,621.4854 472.3477,631.3164 472.0479,641.2748 471.2502,651.9347 469.8857,661.6556 468.218,669.864 465.9942,677.3721 463.437,683.6685 460.722,688.2992 457.6504,691.6881 454.1068,693.751 451.4336,694.2138 448.9285,693.8973 445.8232,692.6935 442.8276,690.7826 439.8428,688.0652 436.6999,684.4896 432.5786,679.008 429.644,674.5147 422.8542,661.9904 415.273,645.5144 408.3192,627.9359 400.4855,605.8105 393.4191,583.0284 386.4001,557.2166 381.5222,536.1088 377.697,515.646 375.4543,498.5691 374.6791,484.0958 374.8375,478.0885 375.3315,473.0479 376.2499,468.3166 377.5395,464.3729 378.6952,462.0033 380.2003,459.8428 381.6853,458.3912 383.5132,457.2149 385.5394,456.4484 387.7351,456.0886 390.4726,456.1787 392.9369,456.6892 398.8443,459.1771 405.5403,463.3998 411.4235,468.2029 419.5966,476.1871 426.0332,483.4387 432.3657,491.6794 439.2966,501.6547 444.875,510.75 451.2999,522.5366 456.2819,532.8393 461.4643,545.3707 465.5256,556.8096 468.9825,568.592 471.6166,579.3431 474.1843,592.97 475.9129,604.2617 477.0117,615.3418 477.6481,626.3679 477.7256,639.8558 477.4257,649.7462 476.3341,661.7443 474.816,672.5407 472.7344,682.6094 470.2366,691.153 467.2748,698.5385 464.25,703.75 460.5812,707.7358 458.7373,708.9756 456.7777,709.8366 453.8189,710.348 450.7405,709.8684 447.4113,708.3794 443.9747,705.9848 440.877,703.059 437.4093,698.9458 430.1608,688.1059 422.4688,673.6562 414.1025,654.9676 406.6084,635.8179 398.6768,613.0064 390.3398,586.4125 382.4876,558.1252 376.6314,534.1598 372.2804,511.9205 369.1488,490.3397 368.033,474.6477 368.0898,467.1657 368.5944,460.6285 369.5708,454.8774 370.9494,450.47 372.1799,447.9146 373.8316,445.5222 375.7233,443.6867 377.832,442.4016 380.1579,441.6521 382.7354,441.3918 385.5104,441.5981 388.4447,442.2466 395.0346,444.9823 402.7127,449.8673 410.8504,456.3991 418.666,463.973 426.9671,473.2086 434.6407,482.9136 443.1624,495.168 450.3464,506.7462 457.0971,519.1923 462.6414,530.7981 467.7434,543.4439 472.2731,556.4457 475.9116,569.2829 479.1265,582.5737 481.2916,594.1145 482.9484,605.8653 484.3066,621.4719 484.9445,633.5083 484.8975,648.0106 484.3481,660.3947 483.0211,675.3207 481.0855,688.598 478.9552,698.851 475.6317,710.4344 472.2653,718.8364 468.539,725.3851 466.5582,727.8981 464.4391,729.9685 462.1962,731.5436 460.1694,732.4299 456.8572,732.8958 453.5593,732.3615 450.35,730.9505 446.9455,728.5499 443.283,725.0592 439.5157,720.6194 435.7403,715.3212 431.7715,708.9312 423.5159,693.3668 415.4708,675.2938 404.6854,647.5893 396.3945,623.7478 386.1672,590.8511 377.287,559.4167 369.7282,528.6039 363.6756,499.5923 360.1432,476.5572 359.0997,466.3355 358.5353,456.809 358.5055,449.4604 358.9837,442.6129 359.9533,436.7234 361.3797,431.797 362.8265,428.5526 364.6225,425.8089 366.7864,423.6553 369.2534,422.1484 371.9909,421.2588 374.9663,420.9571 378.1468,421.214 381.7964,422.0914 385.7625,423.5701 390.2299,425.7358 399.5496,431.6698 409.8317,440.1022 420.4827,450.3374 430.344,461.3164 441.226,474.9731 449.4677,486.7063 458.2541,500.8917 465.4174,514.0874 472.6783,529.5239 477.5057,541.5979 482.9297,557.7116 486.125,569.25 490.0491,586.9385 492.4988,602.2899 494.1525,616.1614 495.246,633.0082 495.6231,651.812 495.4456,662.3749 494.3575,681.4429 492.2722,700.7661 489.4614,718.2069 486.5127,731.6672 483.0991,743.5844 479.0617,754.1583 476.9429,758.4103 474.7134,762.052 472.5238,764.9182 470.1676,767.2791 467.5979,769.1115 465.1104,770.2579 461.456,770.8235 457.8525,770.1674 453.9147,768.2639 450.0686,765.3066 445.9459,760.9754 441.7565,755.559 436.6849,747.9068 432.2972,740.3549 427.701,731.408 422.727,720.7303 411.8531,694.6552 401.3315,666.169 389.9816,632.3539 377.8602,593.005 366.339,551.7117 357.2011,515.2813 350.1628,482.141 345.3321,453.1202 343.9339,441.6863 343.0792,430.9864 342.8216,421.4366 343.1526,413.0661 344.0641,405.9039 345.625,399.75 348.0865,394.421 351.2486,390.6031 353.2183,389.1432 355.3617,388.0831 357.6686,387.4096 360.1286,387.1093 365.9033,387.6491 372.6637,389.6885 380.2788,393.2181 388.2189,397.9806 398.2783,405.2784 408.8072,413.9476 418.8794,423.188 429.5233,433.9505 439.0482,444.3711 447.2052,454.1374 457.0622,467.1506 465.5194,479.2621 476.1313,496.5031 484.5704,512.4013 494.1105,534.1423 500.2256,551.7114 504.4143,566.5226 507.8384,581.0412 509.8727,591.3811 513.2983,612.9231 518.3745,653.2631 520.092,662.4776 521.0352,665.7927 522.6421,669.3314 524.043,670.6963 524.8727,670.8814 525.7103,670.5771 527.3204,669.0594 528.8515,666.745 532.1519,659.4682 536.6282,645.6603 541.3865,628.0729 545.7181,610.4774 554.5595,571.6789 580.7369,452.3125 595.6076,389.18 604.1369,355.3894 612.6292,323.9997 621.0444,295.1231 629.4099,268.6651 639.0585,241.1129 648.7375,216.5467 658.1608,195.6746 662.59,187.0197 666.9599,179.3575 671.2028,172.8201 675.5411,167.1142 679.388,162.979 683.2081,159.8914 686.6857,158.1991 689.5895,157.9061 692.1869,158.9152 694.4395,161.2539 696.2547,164.8348 697.6099,169.5796 698.4826,175.4101 698.841,181.728 698.7456,188.852 698.1554,197.0264 697.0639,206.1922 695.5054,215.9544 691.2264,236.1155 685.4679,257.0615 678.1404,278.9354 669.4643,301.377 660.3627,322.3208 650.4619,342.8757 638.5572,365.4011 625.6535,387.9939 613.7926,407.3626 599.1944,429.8626 557.8641,490.2436 545.9524,508.2986 532.426,530.5188 521.8427,550.411 516.5556,561.858 511.7179,573.6792 507.1073,586.5038 503.1993,598.921 496.3978,625.8701 484.9336,679.4935 481.3287,693.3081 478.6165,702.1407 474.357,713.0019 469.9399,721.1859 467.6235,724.3032 465.3688,726.6083 462.767,728.5043 460.3981,729.5972 457.1471,730.1545 454.003,729.7582 450.6882,728.4695 447.2164,726.1726 443.5367,722.7846 439.5832,718.2264 435.8755,713.1659 432.1519,707.2357 423.6272,691.1311 414.9288,671.8291 405.8306,648.4914 396.231,621.078 386.5089,590.0175 377.2926,557.1239 370.1843,527.9803 364.6208,500.6724 361.2192,478.0929 360.2393,468.1322 359.7346,459.1129 359.7026,451.4168 360.13,444.8243 361.0815,438.9446 362.5164,434.0242 363.9259,430.8922 365.7618,428.1026 367.875,426.0 370.2339,424.5535 372.85,423.6776 376.0625,423.3438 379.1234,423.5989 382.7581,424.4749 386.7049,426.0086 391.1786,428.2691 400.911,434.5901 410.3245,442.3372 421.0312,452.7344 430.5336,463.3943 441.1813,477.0536 449.9022,489.5301 457.5577,502.0402 464.9184,515.7679 472.0009,531.1361 477.0522,543.8351 481.9866,558.8311 485.6321,571.8896 489.0037,588.0149 491.159,601.4261 493.0485,618.2439 494.0367,635.1244 494.243,652.6409 493.9485,665.8741 492.7746,683.0772 490.667,700.8437 488.2753,715.1044 485.4308,728.0936 481.8609,740.0501 478.0333,749.552 473.616,757.4523 471.4428,760.2479 469.2481,762.4189 467.0168,764.0234 464.6286,765.1255 461.3147,765.7031 457.581,765.1615 453.8429,763.439 449.7884,760.3997 445.7136,756.3093 441.6861,751.3083 437.4755,745.0124 433.022,737.3618 428.087,727.915 423.17,717.6566 413.0481,693.8111 401.7311,663.5851 390.3728,629.9691 378.3901,590.9485 367.8056,552.8218 358.3886,514.4341 351.0112,479.4768 348.6637,465.8848 346.8669,453.2639 345.6345,441.7102 344.9919,431.6263 344.9004,422.9603 345.3867,415.3157 346.4462,408.788 348.0428,403.3573 350.7806,398.0223 352.52,395.8948 354.5214,394.1797 356.5203,393.0288 359.0059,392.1602 361.6877,391.7427 364.5469,391.75 370.7207,392.9336 377.9653,395.7782 386.5065,400.4601 395.3964,406.4424 404.7094,413.7474 415.2608,423.1056 425.0661,432.6835 434.1297,442.4809 445.341,455.8346 454.7564,468.0441 463.4399,480.5691 471.3548,493.2041 476.0629,501.5222 481.2574,511.5661 489.1875,528.9542 496.7764,549.7353 502.3906,569.4688 507.1595,592.0443 509.895,609.7386 512.734,635.557 516.3601,680.2896 517.6421,689.195 518.7257,693.9121 519.74,696.683 521.2894,698.59 522.731,698.4661 524.1505,697.1264 525.7315,694.662 528.8804,687.0619 532.6983,674.5943 537.4596,656.6055 546.7417,615.4417 565.8201,522.5901 579.0171,460.1223 591.3282,405.3884 601.6136,363.0165 611.4483,325.1065 621.0967,290.8547 630.8698,259.0653 641.36,228.2563 651.3344,202.5185 656.6022,190.3303 661.6733,179.5139 666.8311,169.4735 671.7114,160.9344 676.436,153.6602 681.0163,147.6854 685.3367,143.1587 689.3892,140.0256 693.1326,138.2773 696.5256,137.9053 698.3266,138.3204 699.758,139.0454 702.2884,141.513 704.4039,145.4805 706.067,151.0772 707.1108,157.6535 707.6216,165.6912 707.5304,174.7986 706.8715,184.4001 705.6457,194.765 703.8185,205.937 701.4464,217.6476 698.5,230.0713 695.0706,242.7737 691.1874,255.6582 682.176,281.5886 671.7009,307.19 661.2706,329.7292 649.6125,352.4941 637.1976,374.6052 622.6129,398.5863 610.6534,416.9961 598.0642,435.2968 554.4898,494.87 539.4084,516.1986 527.047,534.983 516.625,552.875 511.0965,563.5027 506.0409,574.2821 501.6643,584.6993 497.5632,595.8623 491.2192,615.8255 478.1632,663.8191 472.3182,680.9322 468.6051,689.0175 464.8855,695.1207 460.9756,699.3666 458.7709,700.9077 456.7656,701.8164 453.9315,702.4039 451.0198,702.1924 447.9848,701.1103 444.7655,699.1272 441.6133,696.4828 438.3815,692.9923 435.0121,688.5948 431.2288,682.9044 424.158,670.3862 416.324,653.5616 408.7904,635.1361 400.9075,613.0107 392.956,588.2622 386.1437,564.0106 379.4248,536.7985 375.0806,514.9198 372.1952,494.6425 371.2036,479.6989 371.3118,472.76 371.8773,466.3659 372.8722,460.9939 374.222,456.9049 375.5604,454.2966 377.1249,452.1788 378.8913,450.5425 380.8354,449.3785 382.9206,448.6805 385.4273,448.4008 390.6804,449.1461 396.7805,451.6425 403.3833,455.8512 411.0603,461.9417 418.125,468.75 426.3218,477.9306 433.5046,487.0326 441.561,498.7645 448.3148,509.7416 454.5752,521.5212 460.4442,533.9817 465.0091,545.3159 469.3041,557.6783 472.5507,568.8903 475.9852,583.1309 477.6361,592.0112 479.696,606.9091 480.6011,616.6307 481.4699,633.5921 481.4021,644.6905 480.8721,656.8706 479.6921,669.8577 478.2097,680.1909 475.8594,691.25 473.0937,700.5685 469.865,708.732 466.3671,714.8713 464.5278,717.1667 462.5659,719.0129 460.453,720.41 458.5,721.25 455.5819,721.7459 452.4784,721.3019 449.1228,719.8679 445.3541,717.2777 442.1428,714.2035 438.5155,709.8791 434.6609,704.4656 430.6173,698.0239 422.4142,682.3573 413.2211,661.6572 405.2493,640.9849 396.4338,615.3882 387.6064,586.978 378.8714,555.1738 372.4866,528.8629 367.5678,504.0407 364.4197,482.6515 363.5946,473.7503 363.2082,465.619 363.2638,457.9646 363.7803,451.2727 364.6924,445.8438 366.1905,440.8991 367.5901,437.9526 369.4516,435.2775 371.3415,433.4567 373.7086,432.0217 376.0118,431.2787 378.8564,431.0034 381.9401,431.2799 385.2152,432.0676 388.6339,433.3263 392.5429,435.2279 401.3333,440.8889 410.2913,448.1309 419.3643,456.9248 428.2635,466.723 436.4524,476.8931 445.5985,489.744 453.0864,501.6656 460.985,516.1621 466.8698,528.356 472.5998,542.5564 477.4032,556.5496 481.1893,569.8738 484.0984,582.3456 486.6062,596.3177 488.2332,609.0213 489.7761,627.1454 490.2744,640.8375 490.1439,653.6313 489.0964,673.5481 487.4512,688.9318 485.3165,702.0764 482.4577,715.5506 479.1157,726.77 475.5,735.75 471.555,742.7773 469.5663,745.339 467.375,747.5 465.1131,749.1234 462.7193,750.2274 459.4197,750.7865 455.9944,750.3045 452.5542,748.82 448.8686,746.208 444.898,742.363 440.785,737.4133 436.7974,731.6728 432.5937,724.6943 428.1563,716.4512 423.2576,706.4727 414.245,685.7444 403.8432,658.4041 393.2452,627.589 382.0726,591.5576 371.6727,554.6435 363.6103,521.7555 356.9022,489.5295 353.1093,465.389 351.9664,454.636 351.3123,444.5421 351.1877,436.1782 351.5471,428.8375 352.4696,422.2983 353.9236,416.8481 355.5679,413.0291 357.5579,409.9845 359.8729,407.7027 362.5105,406.1475 365.6959,405.2044 369.2037,404.9687 372.9828,405.4002 376.9821,406.4587 381.5747,408.2993 386.7694,410.9971 392.3171,414.3978 397.9847,418.3586 409.0255,427.3702 421.8111,439.6163 433.5006,452.4058 445.1024,466.8009 455.3292,481.1122 465.2312,496.8179 472.94,510.8766 481.1279,528.3566 486.1447,541.1343 491.7763,558.4287 495.7641,573.8757 498.7047,587.8891 501.8516,608.3164 503.3955,623.9423 504.7217,647.52 504.9048,666.1663 504.3005,689.5646 503.1963,707.5643 501.2313,727.0851 498.836,745.0937 495.0,765.25 490.4666,782.2729 485.9636,794.9744 483.625,800.0 480.8624,804.9628 478.289,808.6858 475.6617,811.5833 472.7245,813.8719 470.055,815.128 467.9267,815.5962 466.0554,815.6487 462.0,814.75 458.039,812.6382 453.727,809.0268 449.0027,803.7196 444.125,797.0 439.5295,789.5813 434.6283,780.5569 429.2341,769.5072 423.67,757.0743 411.8713,727.7907 399.0477,692.0789 385.3799,650.5483 369.8383,599.0785 353.9871,542.0814 342.7356,497.8771 333.7373,457.4668 330.309,439.7125 327.6308,423.8649 325.8013,410.5206 324.5835,398.0202 324.0543,386.9078 324.2286,376.8895 325.0912,368.6828 326.6464,361.8986 328.5416,357.2237 331.1705,353.2589 334.3345,350.4071 337.982,348.5944 342.061,347.7471 346.9066,347.8331 352.1513,348.8625 358.1361,350.8446 364.802,353.8047 372.0999,357.7506 379.9519,362.6591 388.2753,368.4755 398.4376,376.1332 408.229,384.035 417.7884,392.275 427.4804,401.1998 445.3815,418.8534 461.2573,436.1641 475.6717,453.4664 487.7685,470.0342 498.4086,486.3069 509.3546,505.9549 518.7515,525.9578 529.1212,550.5894 533.1261,558.448 534.9271,561.0329 536.9957,562.93 538.4815,563.6268 540.1939,563.473 542.0019,562.431 543.7324,560.7383 545.5966,558.16 547.5714,554.6408 552.0341,544.2914 556.5626,531.242 566.3201,498.9248 591.6053,407.2558 600.9354,374.893 614.1182,332.6321 625.8963,298.9171 631.4992,284.5579 636.6183,272.667 641.8253,261.8954 646.8653,252.8364 651.1727,246.428 655.1759,242.0833 656.7594,240.9763 658.4433,240.3639 659.8732,240.5325 660.857,241.2697 661.8201,242.9892 662.482,245.5969 662.8135,252.7477 661.9177,261.9126 659.72,273.3294 656.4274,286.2457 652.1155,300.2838 646.9562,314.7821 640.4975,331.2413 630.0829,355.0929 617.43,380.8415 602.6856,408.8055 573.8414,461.5789 562.102,484.2607 550.7772,508.7615 546.8283,518.5114 542.9792,529.086 539.26,540.8551 535.853,553.9491 533.4595,565.8426 532.0194,576.2329 531.159,587.1708 531.422,597.0613 532.0371,600.4363 532.9681,602.8431 534.1389,604.0139 535.3283,604.0584 536.6883,602.971 538.2883,600.7397 542.0711,593.1999 545.8533,582.7535 550.367,568.3854 559.7034,533.978 584.0014,436.5673 597.9425,383.4894 605.6657,356.0629 613.4022,330.0841 620.1324,308.8307 627.1006,288.4542 634.9401,267.4196 642.4956,249.1392 649.2728,234.9119 655.7264,223.4789 661.9121,214.7797 664.5136,212.0025 667.0944,209.9805 669.414,208.97 671.4476,208.9539 673.3897,210.1307 674.727,212.1868 675.7004,215.1827 676.2276,218.4702 676.3839,228.0999 675.1028,240.2997 672.5086,254.1507 668.5454,269.893 663.4431,286.6448 657.4728,303.5853 650.5859,320.8598 643.8223,336.3245 636.543,351.827 628.515,367.8734 619.8098,384.3078 602.0902,415.7326 566.4519,475.9351 550.2147,505.746 543.1451,520.3713 536.4044,535.8625 531.332,549.4504 526.5526,564.3135 521.7201,583.6318 518.1286,603.3265 515.5382,624.7824 513.8968,647.3062 513.0,672.25 512.763,693.4424 513.309,734.93 514.0609,747.3954 514.7035,752.6049 515.8519,757.0 516.75,758.0 517.348,758.016 518.6464,756.9365 519.9778,754.3921 523.8616,742.982 527.6325,727.8501 532.7726,704.4516 541.9497,657.7873 561.1161,553.088 570.3657,504.4497 582.3394,444.155 593.0345,394.164 602.6369,352.5817 612.3274,313.5751 621.9481,277.9033 631.6685,244.8389 644.1022,206.8182 650.2848,189.7273 656.2821,174.3586 662.4099,159.9022 668.7271,146.2908 674.808,134.4431 680.7861,124.0548 686.6086,115.2409 692.0564,108.3067 697.3515,102.9876 702.2501,99.5226 704.5683,98.434 707.1018,97.7052 709.2118,97.5113 711.4941,97.7886 713.3726,98.4609 715.3771,99.7118 717.0007,101.2217 718.7007,103.4136 721.5731,109.2538 723.6916,116.9742 725.0276,126.6616 725.5293,138.0405 725.1879,150.7716 724.0184,164.6401 722.0357,179.4308 719.3427,194.4908 716.0386,209.485 712.0015,225.0437 707.2618,241.0471 701.9676,257.0264 696.0437,273.2305 689.5235,289.5298 682.6036,305.4377 675.2207,321.1082 662.2396,346.1751 648.1251,370.6828 632.5746,395.1623 615.7187,419.3963 600.5166,439.6195 583.8075,460.4571 566.5937,480.9158 534.5933,517.9143 522.1561,532.8535 510.7963,547.4643 501.0135,561.1734 492.4078,574.7495 483.7663,590.7868 476.727,605.852 465.6594,631.6966 461.2112,640.5119 458.1716,645.5659 455.625,648.875 452.5467,651.7318 449.6427,653.3332 447.1789,653.9308 445.0417,653.9095 442.4819,653.2396 439.75,651.875 437.4642,650.2423 435.146,648.0879 429.8158,641.6233 424.8273,633.6214 419.0888,622.2699 414.237,611.1095 409.1787,597.8029 403.9847,582.0163 398.848,563.5705 395.6181,549.4063 392.7925,533.6855 391.4823,522.161 391.2285,511.6243 392.0022,504.2012 392.844,500.8498 393.9224,498.1005 395.7674,495.3235 398.2188,493.5469 401.0868,492.8953 404.4561,493.4139 408.1093,494.874 411.9646,497.2673 416.5116,501.1296 421.0637,505.7301 424.7437,510.1606 430.2107,517.7426 434.2059,523.9295 437.8154,530.2983 444.6441,544.4354 451.1479,561.5517 455.3978,576.6612 458.4407,592.0403 460.2134,607.8934 460.6548,615.9488 460.6536,622.2653 459.596,636.5925 458.2114,644.0678 456.8524,649.1816 454.9295,653.9407 452.8383,657.5864 450.3619,660.1536 447.7344,661.5781 445.58,661.901 443.4087,661.6199 441.3012,660.8071 438.7969,659.2085 433.7168,654.3079 428.6564,647.2262 422.9058,637.1684 417.5632,625.8755 411.572,611.1919 405.8587,595.2045 400.6843,578.7045 396.2124,562.0141 392.4514,545.2262 389.8039,529.9833 388.2994,516.8049 388.0601,507.2249 388.9424,498.4009 389.7657,494.9399 390.8843,492.0048 392.9424,488.8305 395.4737,486.8772 398.7686,486.0829 402.577,486.5837 406.5276,488.2791 411.1597,491.3563 416.0068,495.4986 420.6809,500.339 425.4984,506.0101 429.6899,511.6619 435.4667,520.6647 439.9028,528.3026 443.6889,535.878 447.9226,545.2958 453.8867,561.5769 457.5792,574.3884 459.9572,585.2845 461.4478,593.7899 463.4522,612.4981 463.7753,621.5304 463.6804,629.1895 463.0327,637.6276 462.0371,645.1956 460.6267,651.8046 458.8932,657.8067 457.125,662.0 454.4771,666.2276 452.2281,668.5046 449.4804,669.9909 447.4062,670.3438 445.1647,670.083 442.6029,669.1308 440.2147,667.6559 437.7366,665.5573 434.8351,662.4797 429.2939,654.9461 423.1001,643.9746 417.3217,631.9972 411.1039,616.6184 404.74,598.9246 399.0129,580.6133 394.1462,562.9565 389.9005,544.3405 386.6468,526.7686 385.0646,512.8605 384.6322,500.5789 385.4874,491.2989 386.3634,487.5688 387.5084,484.4955 389.7389,481.1112 392.386,479.12 395.7803,478.2533 399.6361,478.7299 404.1491,480.4517 408.5194,483.0909 414.1274,487.6189 419.6749,493.0428 425.0927,499.402 430.9466,507.1919 435.6701,514.2833 440.5278,522.4954 444.6493,530.274 448.0591,537.5774 452.8044,548.8351 456.1557,558.0544 459.1643,567.9346 461.4595,576.7195 465.1108,596.2347 466.3235,606.4002 467.1647,616.7891 467.2209,633.9234 466.6976,642.0288 465.4574,651.8797 464.0864,658.7756 462.2453,665.1403 460.0033,670.6456 457.3622,675.145 454.5986,678.1199 451.5498,679.8218 449.1387,680.25 446.5469,679.918 443.8716,678.8746 441.3019,677.234 438.6337,674.8902 435.529,671.5 432.397,667.5282 429.4726,663.1798 423.4382,652.3337 416.7084,638.0883 409.8629,621.0857 402.8759,601.7018 396.6298,581.6151 390.5082,559.3137 386.1233,540.1426 382.7765,521.8134 380.9202,506.5394 380.375,493.25 381.1912,483.6938 382.1043,479.628 383.4302,475.9601 385.8938,472.1071 388.944,469.8535 392.5252,468.9571 396.7667,469.4668 401.6601,471.4066 407.2509,474.8475 413.2268,479.7079 419.4326,485.7861 424.991,492.1775 431.7879,501.1412 437.3883,509.4705 442.6668,518.3724 447.702,527.7552 451.9418,536.7156 456.3633,547.4091 459.9308,557.4491 463.1634,568.1647 465.6785,578.0364 468.0324,589.953 469.7158,600.4445 470.8131,610.6762 471.4833,620.8927 471.4124,641.846 470.5897,651.7474 469.288,661.1712 467.508,669.3676 465.3162,676.727 462.731,682.792 460.0351,687.1598 457.0588,690.2628 453.7435,692.0988 451.2229,692.5272 448.5,692.25 446.006,691.3291 443.4136,689.6754 440.3522,687.0048 436.6111,682.9963 430.4742,674.3532 423.1881,661.4129 417.3356,648.9868 408.1251,626.174 402.0354,609.0148 393.6811,582.2831 388.1238,562.4639 382.7416,539.8971 378.7195,519.25 376.312,501.2418 375.3856,485.9042 375.5444,479.7121 376.0952,474.2537 377.0175,469.5767 378.3945,465.4873 379.5432,463.2723 380.9963,461.2967 382.6509,459.7551 384.4878,458.6474 386.4878,457.9735 388.6317,457.7336 393.8752,458.534 399.1505,460.6075 404.6407,463.957 412.2451,470.1422 419.4882,477.2126 427.2132,486.2719 434.3566,495.6784 440.3501,504.6921 446.9653,515.7775 452.0869,525.5027 457.2414,536.7835 461.4837,547.3996 465.3246,558.6051 468.4664,569.1313 470.8075,578.677 473.1609,590.4049 474.799,601.268 476.0813,613.1426 476.7238,623.2504 476.9836,637.4491 476.5704,649.1935 475.5697,661.066 473.8519,672.5509 472.0133,681.3426 469.3889,689.9961 466.7224,696.5244 463.6507,701.6679 460.2981,705.3107 458.2983,706.7083 456.3668,707.5985 453.6222,708.1058 450.6699,707.7363 447.6371,706.4997 444.4311,704.3509 441.014,701.2067 437.6722,697.3844 434.0752,692.5335 430.4516,686.864 422.9532,672.9443 415.1131,655.8078 407.3459,635.9887 398.7045,611.355 390.394,584.7099 382.8228,557.2926 377.0351,532.7843 372.476,509.2185 369.8432,490.2972 368.8403,474.1495 368.9674,467.325 369.4865,461.7762 370.3937,457.0018 371.7945,452.6259 373.1047,449.9141 374.6195,447.6909 376.4043,445.8894 378.4965,444.545 380.8109,443.7184 383.3232,443.3888 386.0092,443.5354 389.2602,444.2593 395.8491,447.1065 403.3701,451.9349 410.75,458.0 419.7547,466.7472 427.5382,475.4439 435.284,485.4277 442.7119,496.0356 449.1175,506.4809 455.5549,518.2791 460.9246,529.4765 466.661,543.3783 471.1507,556.1655 474.7754,568.3228 477.3048,578.5002 480.2165,593.8937 481.9591,605.7726 483.2961,619.4538 483.8529,629.892 483.8868,646.077 483.2495,660.1603 482.0968,673.2799 480.2294,686.3401 477.8277,697.5089 474.8908,707.8293 471.4861,716.1027 467.8624,722.3156 464.0125,726.5895 461.8035,728.1441 459.7934,729.0428 456.5,729.625 453.5555,729.2506 450.4492,727.9267 446.7699,725.3586 443.1021,721.974 439.535,717.8303 435.7931,712.5984 431.8364,706.2482 423.5823,690.8345 414.9932,671.6502 405.7071,648.0288 396.7949,622.3132 386.2468,588.5743 378.4576,560.8156 370.447,528.301 364.9722,501.8472 361.5045,479.0047 360.4985,469.0369 359.9819,460.068 359.9665,452.2401 360.4681,444.9834 361.42,439.1317 362.9223,434.0262 364.3854,430.9324 366.3223,428.2294 368.283,426.4187 370.7932,424.9612 373.5543,424.133 376.5281,423.9099 379.7663,424.2825 383.1719,425.1774 387.097,426.693 391.1909,428.73 399.6771,434.1986 410.3236,442.838 420.4433,452.5231 430.2283,463.5293 439.9364,475.8287 449.1383,489.0074 457.374,502.2414 464.3502,515.2673 471.2048,529.816 476.3909,542.8551 481.2224,557.0793 484.8055,570.1662 488.178,585.0429 490.5659,599.2602 492.2123,612.6759 493.6084,631.8303 493.9859,647.4332 493.8494,659.4997 492.7578,679.2482 490.6968,697.8676 487.9611,714.8875 485.5994,725.7045 482.1168,737.5882 478.0112,748.1252 473.7195,755.8983 471.529,758.7932 469.2927,761.0699 466.8935,762.8056 464.2886,763.9683 460.799,764.4969 457.1872,763.8256 453.2494,761.8769 448.9763,758.5655 444.9444,754.3453 440.8541,749.0541 436.5011,742.4474 431.8761,734.4599 427.2791,725.5512 422.4545,715.2067 411.2704,688.3396 401.2611,661.5228 390.4652,629.3159 378.4766,590.4492 368.1123,553.1468 358.3511,513.6511 351.7376,482.0095 347.4578,455.118 346.1556,443.3009 345.4921,433.2388 345.4151,424.4248 345.9262,416.3281 347.0174,409.4563 348.6609,403.8234 351.2177,398.8687 352.946,396.8 354.8907,395.1703 357.0351,393.9616 359.3626,393.1562 361.8565,392.7361 364.889,392.705 371.2432,393.9123 378.4612,396.7175 386.8021,401.2788 395.4361,407.1553 406.1433,415.7095 416.5709,425.1055 426.0832,434.6578 437.4386,447.1908 446.8687,458.5519 455.5157,470.1333 464.6545,483.4372 471.947,495.3132 482.0838,514.4845 490.4793,533.7007 496.3932,550.2803 499.8354,561.9295 502.5515,572.4004 506.4664,591.5353 509.7754,613.7391 511.6278,631.8634 515.121,680.1775 516.5958,694.2765 517.593,700.3582 518.827,704.789 520.375,707.125 521.3458,707.3546 522.106,707.0485 523.3328,705.7824 524.7307,703.3383 528.0612,695.1649 531.5708,683.8914 535.5236,668.7708 544.8223,627.119 576.9904,469.8036 591.146,405.9239 601.6009,362.2569 610.941,325.8948 620.8089,290.5336 630.8362,257.623 641.5035,225.9971 652.0828,198.4504 657.4911,185.8336 662.7121,174.6146 667.8656,164.5172 672.7615,155.9002 677.375,148.75 682.15,142.4618 686.6948,137.6254 690.9637,134.2407 694.9113,132.3078 696.8879,131.8683 698.7511,131.8497 701.8859,132.9319 704.5593,135.4658 706.8664,139.7602 708.6109,145.5618 709.7652,152.7109 710.3139,161.0806 710.2417,170.544 709.5333,180.9744 708.2462,191.7391 706.2983,203.4865 703.7162,216.0654 700.5927,229.0264 696.9642,242.2584 692.7467,256.0237 688.2054,269.4644 683.2687,282.8399 672.0644,309.7831 661.3938,332.4658 649.6874,354.9762 637.0057,377.1965 622.9946,399.7891 609.9164,419.4474 595.4925,439.9137 579.775,461.3189 551.4362,498.9613 536.6391,519.4434 525.0466,536.6496 514.9214,553.4854 509.6296,563.3086 504.5512,573.6918 500.1795,583.5403 496.2972,593.5262 489.324,613.9686 475.5875,660.826 470.6083,674.6021 467.082,681.888 463.0656,688.2008 459.3341,692.0503 457.2997,693.3817 455.5469,694.125 452.9728,694.6065 450.0404,694.3993 447.3638,693.5094 444.5688,691.8877 441.2529,689.1991 437.9255,685.8358 434.8689,682.0743 431.5093,677.2217 424.5356,665.135 417.5918,650.6446 409.1233,630.2322 402.5797,612.1811 394.5438,586.9377 388.2222,564.5605 382.2562,539.8851 378.0555,518.7417 375.4246,500.0688 374.386,484.6784 374.5235,478.2014 375.0769,472.4995 376.0179,467.6293 377.306,463.6773 378.5284,461.2504 379.9697,459.262 381.6094,457.7031 383.4267,456.565 385.4009,455.8386 387.875,455.5 390.3742,455.6477 393.0272,456.2105 398.6844,458.5188 404.4155,462.1407 411.918,468.1811 419.2517,475.2725 426.6062,483.6891 433.6413,492.8034 439.9441,502.1197 446.4426,512.9345 451.9952,523.3571 457.5401,535.2027 461.9642,546.0902 465.9671,557.6613 469.3748,569.1921 472.1569,580.747 474.453,592.3459 476.1111,603.618 477.2996,615.3261 477.9357,627.0768 478.0166,638.9728 477.5678,651.2439 476.5661,662.833 474.8303,674.7645 472.9662,683.5225 470.2367,692.7386 467.425,699.5319 464.2188,704.8594 460.5181,708.7861 456.8949,710.8573 453.963,711.3519 450.7896,710.8807 447.7571,709.5626 444.7222,707.4537 441.1992,704.1406 437.75,700.125 434.3249,695.4282 430.7347,689.7823 422.8482,675.2197 415.8706,659.933 406.9499,637.2828 398.6989,613.9624 390.2878,586.929 382.3449,558.6306 376.3011,533.2919 371.4358,508.6553 368.6306,488.7976 367.8482,479.803 367.5131,471.6842 367.6282,464.8643 368.1671,459.0411 369.1075,454.0133 370.5452,449.5061 371.9673,446.6375 373.5118,444.5059 375.1827,442.9285 377.3684,441.603 379.7788,440.8088 382.3826,440.5215 385.1487,440.7168 388.5136,441.5115 395.4082,444.473 402.7313,449.1403 410.8872,455.9275 419.8418,464.6382 427.7406,473.5419 437.3223,485.8859 444.0074,495.6685 451.907,508.766 458.1631,520.3812 463.8782,532.8628 468.6875,544.7363 472.6677,556.5851 476.2358,568.6521 478.7904,579.2999 481.6394,593.9886 483.3318,606.4017 484.6958,621.2459 485.3961,636.9908 485.4088,648.374 484.7052,663.2065 483.4149,676.4591 481.3408,690.0313 478.8486,701.9304 475.9605,711.7149 472.4352,720.4676 468.7585,726.7248 466.7054,729.3202 464.5292,731.4366 462.4873,732.8679 460.2906,733.872 457.2751,734.3701 454.015,733.8893 450.4601,732.3629 446.6774,729.7056 443.0881,726.1677 439.013,721.1477 434.6572,714.815 430.7682,708.3717 422.1135,691.4181 412.8573,670.1049 403.6936,645.9125 393.5443,616.2381 384.0403,585.3438 374.8445,551.6603 368.1019,523.4676 362.6408,495.9335 359.3148,474.0529 358.4107,464.8034 357.9675,456.3531 357.9834,448.4049 358.4759,441.4312 359.4397,435.4407 360.9045,430.388 362.4527,427.0143 364.2997,424.3059 366.4308,422.245 368.8313,420.8139 371.476,419.9952 374.6554,419.7133 378.0916,420.0233 381.7384,420.8984 385.5498,422.3116 389.4795,424.2361 398.8154,430.2878 408.9043,438.3964 419.1566,448.1661 428.6973,458.4934 437.7134,469.4788 448.1373,483.7313 456.317,496.3699 464.7566,511.4577 471.0298,524.1563 477.757,540.4418 482.75,554.875 487.1054,570.4254 490.3437,585.0955 492.9904,600.821 494.9219,617.5156 495.895,632.2578 496.2819,648.2487 495.9122,667.9963 494.8035,684.9889 492.7336,703.9057 491.1938,714.3751 487.6251,731.8422 483.6708,745.9374 479.4512,756.7786 475.1676,764.6541 472.647,767.9724 470.348,770.2768 467.8808,772.0162 465.542,773.0327 461.9152,773.581 458.2249,772.953 454.2318,771.0197 450.2635,767.9475 446.1625,763.6853 441.8624,758.0887 437.2516,750.9941 432.5119,742.7271 427.8251,733.7173 423.2378,723.9732 412.7438,698.8529 401.2313,668.0186 389.7675,633.9026 376.8119,591.7278 366.2861,553.9 355.947,512.2773 348.4818,477.4254 345.8857,462.8183 343.8627,449.2591 342.476,437.1942 341.6958,426.3934 341.5596,417.591 342.0235,409.4427 343.0776,402.4919 344.6859,396.7306 347.2146,391.5018 350.2869,387.9483 352.2743,386.5516 354.4477,385.5432 359.2932,384.6248 364.7056,385.0594 371.0,386.875 378.6197,390.329 386.6147,394.993 395.4919,401.1939 404.8404,408.7134 415.6421,418.2438 425.5712,427.8741 436.1034,439.2223 446.6555,451.4283 454.5262,461.356 462.4334,472.3464 473.8052,489.7411 483.8246,507.8156 491.2861,523.4996 499.0324,543.226 505.3023,563.8044 510.3328,585.2727 514.123,606.5312 519.0158,640.6287 521.0921,650.9311 522.4791,655.1968 524.085,658.438 524.8838,659.1816 525.75,659.5 527.4688,658.9375 529.0602,657.3229 530.3789,655.209 533.813,647.5032 538.0029,634.9235 542.5807,618.4707 547.2771,599.7508 554.1297,570.2 582.4669,444.2246 595.6567,389.5126 604.1457,356.4745 612.499,326.1491 621.171,296.8904 629.7603,270.0931 638.7515,244.6574 647.9327,221.5672 656.8385,202.0018 661.2256,193.5043 665.2694,186.4482 669.2561,180.3126 673.3638,174.9095 676.9668,171.0333 680.5759,168.1122 683.8592,166.5166 686.5761,166.2446 689.0799,167.2555 691.1417,169.4839 692.6969,172.5769 693.9659,176.9427 694.7946,182.3116 695.1525,188.1322 695.0974,194.6981 694.6135,201.9517 692.2979,218.8311 688.3729,237.6242 682.9735,257.6756 676.5034,277.6086 668.4416,299.0684 659.6573,319.8271 650.0429,340.3347 638.9803,361.8174 626.8892,383.5462 615.7776,402.2031 603.6981,421.3295 563.2932,481.91 548.3182,505.2501 534.4285,528.7949 528.8551,539.288 523.6928,549.8594 518.3348,562.034 513.9695,573.3134 509.0094,588.3009 505.3928,600.8234 499.3349,627.0803 491.349,669.3924 487.2299,689.2574 484.3829,701.4284 481.0863,712.9173 476.4709,725.1358 474.2762,729.7365 472.0707,733.5288 469.5158,736.9734 466.9774,739.5868 464.565,741.3479 461.9445,742.5435 458.3613,743.0938 454.944,742.4841 451.2614,740.7684 447.4643,738.0343 444.0597,734.6849 440.2545,730.0035 436.2052,724.1351 431.6847,716.7457 427.4925,709.0229 422.9806,699.7648 412.6748,675.9534 404.2482,654.035 394.915,626.8326 384.4686,593.6437 375.0491,560.1702 366.2788,525.1551 360.3693,496.9347 356.3385,471.6609 355.1471,461.1167 354.4913,451.7208 354.3529,442.888 354.7624,435.1554 355.7036,428.566 357.1623,423.1577 358.6406,419.7679 360.4235,416.99 362.4889,414.8117 365.123,413.0626 367.716,412.118 370.8879,411.7258 374.4474,412.0207 378.3394,412.9281 382.4527,414.4044 387.1009,416.6025 396.1922,422.2774 407.9561,431.5333 419.0359,441.9437 430.6761,454.6242 440.806,466.9123 451.8325,482.1593 460.4875,495.548 468.7824,510.6389 475.6157,524.8108 482.5031,541.8268 487.396,556.2747 491.8251,572.7559 495.2053,589.2089 497.4702,603.0513 499.4105,620.8946 500.3785,636.8621 500.7497,650.3751 500.5507,670.1249 499.5103,690.2257 497.7092,708.8366 494.9792,728.4997 491.317,746.8846 487.0278,762.7741 482.5962,774.6574 480.2957,779.4239 477.75,783.75 475.2593,787.0958 472.8294,789.559 470.1847,791.4546 467.3241,792.7237 463.5494,793.1744 459.777,792.292 455.6416,790.0256 451.4963,786.604 447.1885,781.8809 442.7718,775.9311 438.0303,768.4446 433.1845,759.7522 428.2233,749.7979 422.8348,737.9291 411.1466,709.2406 399.9881,678.6625 387.7916,641.788 373.699,595.7916 361.382,551.832 350.083,507.0929 342.0316,470.2656 339.0212,454.0812 336.6649,439.4005 334.9211,425.9689 333.8376,414.0384 333.4583,403.9446 333.747,394.721 334.6544,387.2351 336.248,380.7268 338.4744,375.5914 341.2079,371.9105 344.8579,369.186 349.1127,367.7296 353.8908,367.4359 359.528,368.2984 366.0387,370.4361 373.1365,373.7157 381.5117,378.5316 390.1024,384.3323 398.91,391.0494 409.6248,399.9661 419.0182,408.3878 427.8068,416.8665 438.568,428.061 448.1179,438.5429 459.625,452.375 474.7401,472.8011 485.0452,489.0077 494.5152,505.9141 503.3243,524.7336 510.1312,542.5124 515.2293,558.255 524.4732,591.2255 527.125,599.0 528.6771,602.2627 530.625,604.875 532.3446,605.7775 534.2473,605.3699 536.0692,603.7868 537.9367,601.2966 541.4835,594.11 545.537,583.2711 551.3205,564.8236 562.1069,524.2161 586.5125,426.5156 598.9371,379.7025 606.3748,353.2655 613.7425,328.5652 621.169,305.1847 628.0194,285.1104 635.3437,265.6543 642.7919,247.892 650.0767,232.5544 656.2672,221.5552 659.4128,216.8752 662.3937,213.0736 665.176,210.1715 667.927,208.0671 670.1872,207.1068 672.228,207.1179 673.9805,208.1387 675.387,210.134 676.4324,213.0608 677.1015,216.8761 677.2849,226.3547 675.8671,239.6073 672.9822,254.6838 669.0339,270.1005 663.8209,286.7732 657.3506,304.7741 649.9029,323.2802 643.375,338.125 636.1481,353.4134 628.1861,369.1965 619.5652,385.3411 600.9675,418.0624 564.0,480.25 551.5057,502.9898 544.1954,517.6271 538.2109,530.9017 532.6921,544.6856 528.1688,557.8433 523.7026,573.1778 519.9201,590.0196 517.2027,605.9558 514.9534,623.3626 513.5523,638.5478 512.297,659.1034 510.2665,719.8026 509.0257,745.7073 506.7948,771.989 505.4911,782.2368 502.9079,798.4627 499.5933,813.8569 495.841,828.3411 491.7177,840.3715 487.29,850.0282 485.125,853.7656 482.7542,857.1173 480.375,859.75 478.0133,861.7249 475.4535,863.1852 473.0334,863.9395 470.4289,864.1149 468.0384,863.739 465.6321,862.8682 463.3058,861.5624 458.51,857.5724 453.1371,851.3386 447.5302,843.233 442.284,834.1939 436.6218,823.017 430.4848,809.5554 423.8144,793.6625 416.9558,776.1888 409.6764,756.3827 393.3627,708.431 375.5847,652.128 358.1088,592.6064 340.5405,528.7769 326.5615,474.3424 315.9368,428.2603 311.8761,408.3508 308.6163,390.3354 306.2921,375.0267 304.7263,361.374 303.8997,349.2779 303.816,338.3634 304.4742,329.3962 305.9158,321.6974 308.1227,315.6132 311.0661,311.099 313.5954,308.7337 316.4551,307.0365 319.6215,305.9675 323.0714,305.4871 327.1654,305.5911 331.5427,306.3063 336.1719,307.5797 341.3056,309.4729 353.991,315.5276 368.1123,323.8475 383.262,334.0808 402.421,348.2554 421.8736,363.5653 440.384,379.1495 459.612,396.2517 476.4252,412.2551 493.2907,429.3513 507.8396,445.642 516.7716,456.4404 536.5591,482.0865 542.0691,488.827 545.1497,491.7651 548.2426,493.9714 550.3979,494.9099 552.3034,495.0842 554.1593,494.686 555.8941,493.7622 557.7464,492.1696 559.6387,489.9629 563.4861,483.7639 567.661,475.0583 571.9685,464.3093 576.75,451.125 584.1963,429.3126 601.9345,375.1603 610.1288,351.8703 615.6679,337.1808 623.2758,318.9715 629.289,306.7181 632.0264,302.1669 634.319,299.1726 636.2842,297.5518 637.0602,297.3554 637.6787,297.5843 638.3889,299.2727 638.4622,302.3094 637.9469,306.5984 636.7218,312.6875 632.8468,326.8723 627.5016,342.1218 620.4834,359.69 610.6151,382.1151 601.5544,401.568 583.8422,438.2758 569.1753,470.6262 563.2915,485.8882 559.2325,498.2328 557.393,506.9258 557.2737,508.96 557.6221,509.9216 559.2568,508.1506 561.0861,504.4102 567.1625,488.1305 574.3171,465.7403 601.2775,378.227 608.9444,355.2315 616.6894,333.5708 624.8561,313.5024 631.9129,298.875 635.0379,293.5958 637.7831,289.9065 639.9397,288.1489 640.8053,287.9521 641.5096,288.2139 642.2847,289.6773 642.5508,293.2033 642.1671,297.8626 641.2177,303.2719 637.1999,318.1487 631.5,335.0 623.551,355.2228 614.6128,375.5011 604.4687,397.1021 576.9208,453.4015 564.4561,481.7663 558.1252,499.0341 554.582,511.408 553.1044,519.697 553.1131,521.5141 553.5,522.75 553.9103,522.9308 554.4869,522.6042 555.625,521.125"/>
  </g>
</svg>
