<?xml version="1.0" encoding="utf-8" ?>
<svg xmlns="http://www.w3.org/2000/svg" xmlns:cc="http://creativecommons.org/ns" xmlns:dc="http://purl.org/dc/elements/1.1/" xmlns:ev="http://www.w3.org/2001/xml-events" xmlns:inkscape="http://www.inkscape.org/namespaces/inkscape" xmlns:rdf="http://www.w3.org/1999/02/22-rdf-syntax-ns" xmlns:sodipodi="http://sodipodi.sourceforge.net/DTD/sodipodi-0.dtd" xmlns:xlink="http://www.w3.org/1999/xlink" baseProfile="tiny" height="27.09333333cm" version="1.2" viewBox="0 0 1024.0 1024.0" width="27.09333333cm">
  <metadata>
    <rdf:RDF>
      <cc:Work>
        <dc:format>image/svg+xml</dc:format>
        <dc:source>vpype read './original_svgs/Strange Attractors #400.svg' linemerge linesimplify write './Strange Attractors #400.svg'
</dc:source>
        <dc:date>2024-08-05T01:35:56.182883</dc:date>
      </cc:Work>
    </rdf:RDF>
  </metadata>
  <defs/>
  <g fill="none" id="layer1" inkscape:groupmode="layer" inkscape:label="1" stroke="black" style="display:inline">
    <polyline points="321.125,471.5 307.2374,457.4045 293.6362,442.2837 280.3961,426.2353 267.5836,409.3528 256.37,393.2851 246.2263,377.261 236.8406,360.8088 228.4907,344.4116 221.0706,327.8652 214.7813,311.6217 209.8059,296.1078 205.9245,280.7652 203.0992,265.3389 201.4483,250.3144 200.9719,235.7892 201.6597,221.8459 203.4768,208.7807 206.5075,196.2244 210.7665,184.1548 216.25,172.6719 222.7397,162.1824 230.3759,152.4313 238.8724,143.7671 248.5181,135.9108 258.9681,129.1809 270.6895,123.279 283.2992,118.438 296.6901,114.6906 310.7549,112.0691 324.9846,110.6301 339.6522,110.3176 354.6814,111.1609 369.2318,113.0171 383.8616,115.8509 398.8407,119.7262 413.7022,124.5392 428.3444,130.2448 442.6657,136.7978 456.5644,144.153 470.0686,152.3468 483.4877,161.5582 496.5406,171.6113 509.1427,182.4704 520.9385,193.8203 531.8921,205.5778 542.1912,217.9441 551.5325,230.561 560.3486,244.0251 568.986,259.0235 576.7809,274.6632 583.6478,290.8445 589.4089,307.1071 594.2123,323.829 598.1127,341.2925 600.9494,358.8175 602.7419,376.277 603.5298,392.5046 603.5328,409.1517 602.7686,426.4883 601.2482,443.6267 599.3429,458.4413 596.2756,477.6412 587.9497,521.4902 584.8037,539.5449 583.5544,548.4364 582.7323,557.1751 582.2041,569.1987 582.626,579.2274 584.2127,590.9258 586.5688,600.1223 589.7648,608.9785 592.7375,615.4956 597.4086,623.7668 602.7988,632.0316 608.6611,639.6024 615.7395,647.7254 623.2587,655.3683 631.7445,663.2297 640.8186,670.6424 653.1562,679.8023 664.3334,687.2398 675.0611,693.6686 685.9471,699.1258 694.847,702.7229 698.5618,703.7857 701.8722,704.3438 704.1715,704.2157 705.2865,703.568 705.6326,702.0862 705.0,700.375 703.0109,697.4716 700.2244,694.3315 693.6114,688.3216 681.1049,678.7295 668.2378,669.7289 644.3846,654.1381 584.151,616.8699 561.125,601.75 550.8792,594.3875 540.4771,586.135 534.3608,580.3727 532.678,578.4566 531.625,576.7031 531.532,575.7296 532.0149,575.5523 533.4861,575.9954 535.0,576.875 539.3945,580.3027 545.3565,585.9114 555.0906,596.4594 579.395,623.854 587.2967,632.0267 600.7938,645.1272 618.8762,660.9166 637.3428,675.0247 647.7231,682.1678 663.7323,692.3094 674.8816,698.5903 687.4152,704.9592 697.6558,709.2038 706.8427,712.0877 710.4535,712.7364 713.0314,712.8482 714.9678,712.5181 716.2394,711.6394 716.6148,709.9836 716.0193,708.0055 714.5074,705.5377 712.3306,702.9414 703.7812,694.8281 692.4068,685.8436 674.8598,673.5708 657.5768,662.2192 585.533,618.0721 565.9308,605.7777 555.3117,598.7631 541.1056,588.6099 532.5233,581.7153 524.6476,574.2147 522.3639,571.3275 521.1846,569.0604 521.0645,567.9902 521.8156,567.3899 524.7585,568.3107 527.6252,570.182 533.0121,574.9565 542.4448,585.4036 568.0961,617.0128 577.3107,627.5139 584.5635,635.1526 596.7818,647.2301 610.5011,659.6745 620.535,667.8913 635.1877,679.0584 649.1772,688.7226 664.7941,698.5222 680.7301,707.4844 693.5235,713.7769 708.4385,719.7902 719.0393,722.9523 723.4369,723.6964 727.0064,723.8209 729.6232,723.2552 731.0776,722.0977 731.5556,719.9907 730.8076,717.5552 728.6427,714.2007 724.9125,709.8975 720.2793,705.3955 714.7845,700.6609 700.0308,689.5284 681.1955,676.5949 660.4204,663.369 634.8669,647.8356 584.1828,617.8503 562.2857,604.4647 549.2247,596.0756 533.3438,585.107 522.6926,576.9738 514.0017,569.0518 511.0637,565.8285 508.7188,562.6406 507.3812,560.1114 506.844,557.981 507.288,556.597 508.5,556.125 510.6638,556.546 512.9518,557.6147 516.5806,560.2123 519.6085,562.9284 525.9953,570.1054 531.23,577.1424 547.2184,600.9568 556.1302,613.6526 566.4758,626.8316 576.4465,638.2654 586.535,648.6668 600.3796,661.6947 618.0312,676.3752 631.8896,686.7607 650.9684,699.6939 672.4543,712.5623 690.0267,721.8342 708.8624,730.5021 716.8819,733.6424 725.2905,736.4851 733.3817,738.7705 740.0289,740.1968 745.5459,740.7501 749.6554,740.5236 752.6538,739.5767 754.3597,737.8756 754.7285,736.5828 754.6794,735.0285 753.2334,731.1532 750.1968,726.7274 745.7849,721.8922 738.8232,715.4237 730.5692,708.5818 720.6814,701.0911 710.0111,693.6037 686.6902,678.4448 660.081,662.2187 572.6249,612.08 552.0706,599.9508 528.835,585.3708 513.3871,574.6507 505.377,568.414 498.2675,562.306 493.6111,557.7737 489.8125,553.25 486.8904,548.6182 485.3076,544.4706 485.1227,542.7836 485.3632,541.0956 486.0,539.875 487.1461,538.9378 489.0447,538.3987 491.067,538.5683 493.8281,539.5312 496.6633,541.235 499.4374,543.6912 501.7722,546.3102 506.758,553.993 510.3978,562.0637 513.2151,570.007 521.0839,597.7236 525.2617,610.4832 528.3487,618.0763 532.0825,625.7813 535.2376,631.4117 539.6081,638.3112 548.7956,650.5135 561.0566,663.7921 577.0534,678.4456 594.0478,692.1145 610.7478,704.0183 633.4722,718.8519 655.764,732.0455 675.6845,742.7705 700.9263,755.0635 722.476,764.4017 745.6205,773.0664 755.5824,776.3175 765.2162,779.0559 774.5026,781.2685 783.259,782.8982 790.984,783.8602 797.6847,784.1758 803.4899,783.7728 807.8998,782.7277 811.2984,781.0078 813.3964,778.8352 814.3241,776.665 814.5439,774.4418 814.1107,771.6619 813.0372,768.704 811.3036,765.4187 808.8966,761.8157 802.0088,753.6945 793.0591,745.1165 782.3757,736.2379 768.4439,725.8062 752.236,714.598 736.0558,704.0928 718.8227,693.4805 701.1773,683.1278 680.7657,671.6527 632.5685,645.6241 538.7967,596.6044 514.0179,583.0597 493.6849,571.3635 474.3394,559.1951 458.5363,547.8435 451.8091,542.3596 445.94,537.0469 441.3981,532.3775 437.3287,527.4537 432.8702,520.436 430.1558,513.7639 429.475,510.9161 429.163,507.9031 429.3221,504.7611 429.9161,501.9348 431.0876,498.8368 432.8296,495.7926 434.8906,493.25 437.3827,490.9767 440.6886,488.8255 444.1913,487.2092 447.8587,486.5029 448.8016,486.5554 449.3241,486.9074 448.75,487.5 447.9299,487.6609 443.4148,487.4963 439.0991,486.4567 433.412,484.4702 427.4997,481.7624 421.1836,478.4297 408.0347,469.8493 396.4681,460.6461 383.4476,448.86 370.8116,435.6691 359.3902,422.3025 348.647,408.0592 339.0759,393.8134 330.7664,379.4801 323.1633,364.2303 317.4617,350.5532 312.8318,336.4752 309.5223,322.5876 307.7706,310.1781 307.3335,299.0072 308.0059,288.5439 309.8092,278.4793 312.5215,269.9023 316.4825,261.6101 321.5473,254.1326 327.664,247.615 334.5602,242.3161 342.6743,237.9001 351.2375,234.7954 360.409,232.9051 370.054,232.2871 380.6842,232.8805 391.1959,234.6687 401.7635,237.6704 412.2324,241.9004 419.2753,245.3977 425.848,249.134 432.2503,253.2467 438.4439,257.7166 444.3906,262.5245 449.7809,267.3919 455.528,273.139 461.2191,279.4251 470.8349,291.7352 475.2152,298.2753 479.1958,304.9308 483.2875,312.6071 486.9716,320.3427 490.2315,328.0826 493.1859,336.1519 495.6765,344.1702 497.8286,352.5393 499.5987,360.9868 500.9322,369.2161 501.8594,377.2422 502.4372,385.6263 502.7049,395.3193 502.5778,404.1114 502.0752,412.4605 501.1719,420.748 499.888,429.4276 498.3162,437.4976 496.2034,445.8287 493.5657,454.6347 491.208,461.217 488.436,467.608 483.1312,477.7158 477.4551,485.6465 474.4369,488.9172 471.3415,491.66 468.1965,493.8798 464.9097,495.6899 461.0869,497.272 457.4645,498.2372 453.6406,498.7539 449.3319,498.8574 445.4149,498.5 441.3142,497.7081 431.8887,494.7252 420.7601,489.4429 410.1302,483.0551 396.0811,472.7561 384.6415,463.0105 370.9029,449.7684 359.8207,437.773 346.7791,421.9183 335.9929,407.2693 328.2763,395.5534 321.0364,383.4968 314.9877,372.4344 309.5632,361.2202 304.828,349.9854 300.7041,338.4995 297.4521,327.4921 294.9656,316.5198 293.3251,305.9091 292.5155,295.7655 292.5105,286.172 293.3313,276.8075 295.0177,267.9608 297.4538,259.8639 300.8512,251.88 304.9052,244.7969 309.9744,238.0698 315.9013,232.0824 322.6439,226.8723 330.1304,222.5066 337.9208,219.1824 346.2626,216.7506 355.2633,215.2329 364.6942,214.666 374.4254,215.0478 384.3463,216.3736 394.3464,218.6386 404.0059,221.7189 414.0239,225.7975 424.1921,230.8567 434.052,236.7044 443.4928,243.2739 450.0854,248.5118 456.751,254.4168 463.0976,260.629 469.3416,267.3828 474.949,274.0825 480.3928,281.2757 485.4057,288.6397 489.9618,296.1086 494.3366,304.0867 498.4218,312.4421 502.0289,320.8006 505.2908,329.4804 508.0607,338.1011 510.5179,347.1913 512.607,356.4301 514.3015,365.8016 515.5728,375.2822 516.375,384.5 516.8068,394.6576 516.7917,405.0648 516.3599,414.5617 515.4865,424.3833 514.1825,434.3628 512.4605,444.3661 510.0367,455.6679 507.3151,466.2464 504.5935,475.1017 500.8594,485.5469 497.6803,493.1884 493.8176,501.0155 489.9416,507.5816 485.963,513.1331 483.0327,516.4724 479.9622,519.3628 476.9284,521.6588 473.747,523.5182 470.3493,524.977 466.7264,525.9936 462.8205,526.5644 459.2286,526.6638 454.8805,526.2664 449.7237,525.3129 441.1094,522.7031 430.1357,517.6777 418.6243,510.943 405.6928,502.1133 391.5327,490.8936 378.3581,479.3696 364.494,465.7635 350.8492,451.1842 338.3886,436.5041 325.5531,419.8607 314.4863,403.9861 306.2588,390.8583 298.7859,377.7168 291.7974,364.0747 286.1896,351.6718 281.3289,339.2404 277.1452,326.5487 273.8178,314.0717 271.3437,301.7756 269.9034,290.4347 269.3608,279.1951 269.7272,268.5375 271.0054,258.1662 273.1362,248.5245 276.0461,239.6928 279.9956,231.0695 284.6705,223.3288 290.6747,215.6258 297.3335,208.9755 304.8244,203.1528 312.9621,198.3159 322.1296,194.2696 331.9923,191.2026 342.44,189.148 352.9658,188.1564 363.8349,188.1663 375.2105,189.2289 386.7986,191.3027 398.7828,194.4518 410.3191,198.4486 421.656,203.3378 432.679,209.0835 443.5404,215.787 452.6711,222.2147 461.4086,229.1081 469.7141,236.4207 477.8101,244.3771 485.1169,252.3989 491.984,260.8384 498.7909,270.1493 505.2041,279.9252 510.7959,289.4723 515.9519,299.405 520.4688,309.3502 524.5085,319.6995 528.1846,330.7428 531.3087,341.9679 533.8622,353.3107 535.8857,365.0471 537.1593,375.3581 538.0462,386.2502 538.4723,397.0721 538.4491,407.7906 537.9736,418.7982 536.9341,431.8095 535.5848,443.5084 533.8626,454.7696 529.998,474.728 525.2942,494.8631 507.0879,563.9082 502.4907,577.7269 500.4269,582.0535 497.4855,586.8273 494.7927,589.6831 491.9723,591.7875 489.2191,593.1067 486.1122,593.8616 482.4055,594.2168 477.9718,593.9333 473.607,593.1595 468.8384,591.7858 463.6058,589.922 459.12,587.9445 444.0699,580.0443 428.3459,570.0186 413.3664,559.3277 396.4631,546.3112 380.9425,533.2193 361.0848,515.2639 344.3988,498.9677 327.7028,481.4042 311.9638,463.6689 297.5464,446.0562 283.4557,427.4204 270.094,408.2857 258.8756,390.6641 248.4012,372.3654 239.1726,354.235 230.9351,335.7606 224.1488,317.9661 218.7726,300.6289 214.788,283.826 212.1324,267.3447 210.8666,251.6898 210.9597,236.2294 212.4325,222.0165 213.7539,214.846 215.36,208.1725 219.6108,195.2427 222.2575,189.0199 225.2531,182.9807 228.5985,177.1418 232.2949,171.5201 236.3433,166.1323 240.7447,160.995 245.5,156.125 250.6573,151.5077 255.8911,147.4048 261.7353,143.3927 267.5896,139.8805 274.0531,136.5068 280.8078,133.4733 287.836,130.7889 295.1199,128.4621 302.2601,126.591 309.9912,124.987 317.5241,123.8182 325.6346,122.97 333.4959,122.5351 341.8999,122.4694 350.2202,122.7815 367.4595,124.5471 384.8632,127.7788 402.2454,132.4185 419.4205,138.4078 435.8511,145.5208 452.1364,154.0323 468.1066,163.8406 478.6014,171.1329 488.9735,179.0661 498.8737,187.3826 508.2771,196.0392 517.1588,204.9928 525.7307,214.4741 533.6603,224.1296 541.2626,234.3001 548.4608,244.8949 555.2126,255.8859 561.4774,267.2379 567.0623,278.5758 572.1248,290.1872 576.5148,301.6914 580.5288,313.9011 584.0743,326.5278 588.3083,345.6103 591.2447,364.9351 592.8416,383.954 593.3096,405.3207 593.0388,416.9516 592.3771,428.7409 589.8558,452.7864 585.4941,481.6602 576.3862,531.151 574.6116,544.4309 573.4634,557.6118 573.4306,570.8565 574.7933,583.9076 576.1582,590.5469 578.0298,597.4032 579.7373,602.4705 582.0787,608.1004 586.5469,617.0721 590.2984,623.4367 596.61,632.5444 602.6472,640.2101 610.423,648.7542 619.2084,657.6605 627.9822,665.4956 638.3608,673.9608 650.0474,682.5184 662.2145,690.7796 674.0733,697.8229 686.3152,704.3007 697.8411,709.4099 707.15,712.6449 711.0927,713.4847 714.2856,713.7606 716.6655,713.4495 717.8504,712.6268 718.2809,710.9506 717.5042,708.5732 715.6792,705.8874 712.7214,702.5282 703.5009,694.048 691.0623,684.491 676.6823,674.4403 660.6384,663.9889 634.8202,647.9433 577.3352,612.9884 554.8022,598.5003 540.752,588.6208 530.8644,580.7927 523.8361,574.1332 521.4396,571.1477 519.966,568.6925 519.5352,567.4258 519.7505,566.3931 520.625,566.125 522.2846,566.5907 525.375,568.375 530.755,572.8286 539.5928,582.4794 562.0334,610.7099 571.2323,621.6477 587.1184,638.9652 595.7851,647.328 609.0231,659.2593 624.5056,671.9 635.7715,680.4319 650.6747,690.7287 665.476,699.8423 680.9502,708.5097 696.1118,715.7771 709.6263,721.3164 721.0229,724.6231 725.8242,725.445 728.9255,725.5502 731.6999,725.0036 733.415,723.7563 733.9125,721.8295 733.0604,719.0749 730.8026,715.4441 727.3577,711.3678 723.3644,707.4385 717.8286,702.6761 702.5,690.9218 685.1771,679.014 657.0245,661.1142 637.3346,649.177 572.7186,611.0873 557.3802,601.5853 542.918,592.1573 528.933,582.3563 517.3889,572.9977 509.8135,565.5512 507.0906,562.0546 505.2132,558.9387 504.5916,556.6099 505.0112,555.109 506.1836,554.4238 508.0694,554.537 510.1462,555.3963 513.4625,557.4774 518.4278,561.8923 522.6164,566.6391 528.9274,575.1736 547.4531,603.7169 556.6354,616.6289 564.0421,626.2141 572.5843,636.3265 586.1301,650.6797 601.6366,664.9827 614.1261,675.3616 630.7182,687.9107 651.8151,702.0536 670.2444,713.1109 691.4082,724.3458 710.4967,732.896 720.75,736.875 728.7285,739.584 736.9515,741.8531 743.9356,743.2364 749.832,743.7884 754.0709,743.4411 757.1164,742.2281 758.2119,741.1728 758.7491,740.1294 758.9651,738.5734 758.7014,736.943 756.5772,732.4812 752.7829,727.4499 747.1296,721.5541 740.4322,715.6093 731.4019,708.4612 720.5152,700.4597 708.7487,692.3271 688.1823,679.0675 660.2767,662.2868 633.0166,646.5174 574.6946,613.466 547.7823,597.725 525.8837,583.9329 507.4577,571.0648 499.978,565.1413 493.765,559.5276 488.2789,553.7191 484.3445,548.5341 482.0185,543.9273 481.2438,539.8945 481.5341,538.207 482.2404,536.8945 483.2455,535.957 484.8002,535.29 487.8565,535.25 491.1513,536.4953 494.661,538.9438 497.8964,542.3744 500.4109,545.8281 503.1748,551.2002 504.6231,554.7519 506.7417,561.4451 509.0874,571.9692 510.9745,588.3158 511.8522,605.1246 512.6489,632.224 514.0026,647.3835 514.7299,651.6816 516.1406,656.9375 517.291,660.2109 519.7799,665.3134 522.5359,669.5311 527.116,675.347 532.6944,681.0509 541.75,689.109 551.7363,696.9902 564.5783,706.3191 588.3223,721.9277 619.0917,740.3839 648.8223,756.4602 677.0797,770.4615 710.3515,785.3954 738.2156,796.5437 765.6604,806.0641 777.9247,809.7918 789.9416,813.0463 801.4051,815.7406 812.162,817.8426 822.4372,819.3765 831.75,820.25 839.4922,820.4407 846.514,819.9979 852.6629,818.8881 857.4795,817.2212 861.2785,814.9171 863.9358,811.9486 865.1419,809.1325 865.4999,805.7756 864.9368,802.0389 863.5554,798.0802 861.1658,793.4468 858.0083,788.6659 853.9512,783.5035 849.2895,778.3066 837.8543,767.3418 823.4827,755.5256 805.5322,742.3929 784.6974,728.4503 763.0654,714.9514 739.5544,701.1112 714.8506,687.3149 687.0434,672.5119 657.0201,657.063 623.3543,640.2091 506.3701,583.1261 479.0472,569.1156 456.4345,556.8468 433.5218,543.2237 423.7238,536.7307 415.1689,530.5503 407.4976,524.4333 400.7707,518.4066 395.033,512.4952 390.3116,506.7226 387.4148,502.4354 385.0424,498.0908 383.301,493.9294 382.037,489.6009 381.3118,485.1631 381.148,480.6798 381.5346,476.142 382.4578,471.7986 385.2121,464.6172 389.6174,457.1431 396.3912,448.6281 410.1181,434.287 412.1806,430.9259 412.6198,429.25 412.6195,427.75 411.875,425.5 409.6821,422.2407 394.299,405.3858 388.1335,397.9223 382.6108,390.3569 377.9996,383.3414 373.7635,376.0252 370.1971,369.1014 367.3281,362.375 364.4545,353.9783 362.3898,346.0645 361.1299,338.5189 360.7039,331.7581 361.0775,325.1298 362.2706,318.8978 364.195,313.506 366.9179,308.7357 371.1043,303.9869 376.0143,300.5752 381.775,298.3333 388.1055,297.4973 394.9258,297.8735 401.1161,299.3661 409.047,302.7314 416.129,306.9583 422.986,312.4892 428.9677,318.4475 434.0076,324.822 439.0108,332.6176 442.8033,340.0857 446.7057,350.2408 448.9399,358.1838 450.5166,367.0779 451.1007,373.8546 451.0122,380.4329 450.4447,386.9973 449.2926,392.8113 447.3954,398.8261 445.125,403.75 442.2149,408.1313 438.7896,411.6368 434.9411,414.255 431.1092,415.8278 427.0726,416.6079 422.4528,416.5813 417.6018,415.7182 412.6665,413.995 407.086,411.3132 401.8109,407.95 395.5612,403.0707 390.4197,398.3549 384.8058,392.356 379.8882,386.2148 374.9437,378.9669 369.9898,370.6879 366.0696,362.7952 362.7307,354.6503 360.519,347.6233 358.9339,340.5117 358.0034,333.8077 357.7978,327.4955 358.3557,321.0166 359.5873,315.2199 361.4892,310.0113 364.0676,305.348 368.0475,300.5888 370.3632,298.6668 373.256,296.8237 379.348,294.3399 385.9132,293.2597 393.2249,293.5288 400.1491,295.0532 408.1075,298.1471 415.5571,302.3796 423.0799,308.2084 429.4625,314.3592 435.124,321.2762 440.878,329.8476 444.9411,337.4521 449.2328,347.8818 451.6356,355.8318 453.4553,365.3969 454.273,373.244 454.3234,380.5485 453.7866,388.1445 452.5613,395.1656 450.718,401.5084 448.37,406.8635 445.43,411.4542 442.0,415.25 438.3039,418.1339 433.8723,420.2435 429.494,421.2859 424.8854,421.3821 420.0535,420.7315 414.5488,419.0352 409.009,416.522 402.9376,412.834 396.9429,408.4438 391.3828,403.5352 384.7606,396.7147 379.5421,390.4099 372.95,381.1667 368.5463,374.1435 364.281,366.0122 360.5964,357.5065 357.8906,349.4844 355.6851,340.6819 354.5518,333.8319 354.1664,326.8943 354.5476,319.8516 355.6704,313.4653 357.6591,307.5811 360.4377,302.3138 362.5787,299.3581 364.9048,296.8501 367.5231,294.6242 370.3941,292.7198 373.4786,291.1761 376.3387,290.1465 383.5426,288.7528 390.908,288.77 398.6907,290.2948 407.1675,293.3122 414.7882,297.4066 422.9922,303.3891 430.0213,309.8461 436.4907,317.372 442.4021,325.8134 447.1452,334.4447 451.7496,345.2031 454.4791,353.8053 456.7539,364.5421 457.7342,372.7093 457.9516,381.7145 457.4748,389.6715 456.2487,397.3371 454.443,404.0289 451.9173,410.0508 448.9149,415.0927 445.2482,419.4297 441.1465,422.8094 436.791,425.0929 431.9932,426.4219 426.9203,426.7384 421.5051,425.9783 415.1106,424.0175 409.872,421.6517 403.7586,418.0434 397.1587,413.2468 389.7656,406.7098 383.6985,400.4961 377.2924,392.8008 371.5357,384.9745 366.4683,376.913 361.1183,366.9898 357.4078,358.6408 354.2192,349.6606 351.9032,341.1824 350.5292,333.1171 349.9739,325.1711 350.2055,317.9366 351.3615,311.0212 353.417,304.626 356.2285,299.0559 358.427,295.8686 360.9375,292.9844 363.748,290.4451 366.524,288.4895 369.7945,286.7478 373.2008,285.396 377.1893,284.29 380.9912,283.6581 384.9191,283.4081 388.8282,283.5544 393.4968,284.1655 397.9076,285.1299 406.4,288.0737 414.8954,292.5917 423.0402,298.2503 430.0463,304.4172 437.7831,312.924 444.1255,321.5619 449.8283,331.6907 454.5414,342.208 457.9094,352.3367 460.4795,363.3023 461.625,371.75 462.0788,381.9833 461.6923,390.0031 460.4198,398.9533 458.6753,406.2208 456.0317,413.2066 453.0752,418.8316 449.3734,423.7473 445.2733,427.5167 440.4354,430.4461 435.7205,432.0753 430.4425,432.7166 424.7197,432.27 418.7825,430.8497 412.4252,428.1926 405.3141,424.2946 397.9853,419.1242 390.3458,412.6436 383.5295,405.6659 375.4589,396.294 369.2024,387.7943 363.1206,378.2391 358.2162,369.298 353.8586,359.8635 350.4727,350.8364 347.8438,341.5625 346.0758,332.2886 345.3026,323.8751 345.5,316.1562 346.6524,308.4481 348.6218,301.6268 351.5778,295.345 353.8385,291.8862 356.4178,288.7679 359.2963,286.0314 362.2222,283.8489 365.7713,281.7817 369.6041,280.1008 373.656,278.8436 377.8622,278.0481 382.135,277.7156 386.9028,277.8132 391.4221,278.3255 396.0039,279.248 400.5989,280.5859 405.1755,282.3203 414.9287,287.1285 423.2978,292.6806 431.3539,299.6101 438.915,307.6216 445.5592,316.3893 451.9982,326.8301 456.9836,336.9431 461.2154,348.5465 464.2258,360.152 465.8306,370.2696 466.5775,380.181 466.4284,389.002 465.4513,398.8483 463.875,406.75 461.0645,415.7966 458.375,421.625 454.2108,428.0474 450.1996,432.3971 445.2113,436.0026 440.0248,438.2384 434.4738,439.3276 428.5416,439.3241 422.8125,438.2812 415.6899,435.7432 409.0132,432.3466 400.7186,426.9232 393.3051,421.0315 383.9959,412.3787 377.322,405.0524 368.6157,393.9493 362.9601,385.7106 356.371,374.449 350.6694,363.0832 346.5796,352.8072 343.125,341.625 341.2286,332.841 340.1768,323.7155 340.0877,314.4712 341.017,306.2615 343.0446,298.4971 346.119,291.4345 348.4547,287.6114 351.0409,284.3075 353.967,281.3322 357.5104,278.487 361.0476,276.27 365.1058,274.3355 369.5535,272.8168 373.9077,271.8328 378.4542,271.2734 383.1479,271.161 387.5414,271.47 392.6316,272.2931 397.9891,273.6051 403.0147,275.2425 408.3773,277.4338 413.3172,279.8817 422.9782,285.935 432.1719,293.3463 440.2604,301.5776 448.3596,311.7845 455.0731,322.3238 460.5913,333.3971 465.1674,345.1675 468.4925,357.1151 470.4729,367.763 471.5509,378.3319 471.699,388.5391 470.9636,398.5849 469.3605,408.5572 466.9396,417.5752 463.6313,425.8948 459.6104,432.8955 454.8691,438.616 449.673,442.8396 444.273,445.5069 438.0336,447.0549 431.7131,447.1924 424.8017,445.9701 417.8152,443.5698 410.3569,439.9291 401.6649,434.3382 391.9672,426.6829 383.0872,418.386 374.4469,408.9878 366.0702,398.4115 357.8985,386.6107 351.4413,375.5744 345.6642,363.8843 341.1553,352.9093 337.6731,342.008 335.1796,330.981 333.9718,321.1714 333.8578,311.2085 334.9344,301.7268 337.142,293.32 340.391,285.94 342.9393,281.7983 345.8867,278.0409 349.2739,274.6478 352.7593,271.8657 356.884,269.2708 360.984,267.2917 365.3365,265.7407 370.144,264.602 375.1787,263.951 380.4107,263.7769 385.7816,264.0841 391.2326,264.8772 396.3148,266.0527 401.9827,267.8452 407.8254,270.1493 413.2928,272.7359 418.6698,275.7186 423.5764,278.8666 433.1956,286.3965 442.6688,295.6541 450.8349,305.5857 458.5466,317.2051 464.5783,328.5655 469.5328,340.9769 473.5753,354.5465 475.8138,365.6568 477.3164,378.6505 477.6652,390.0976 476.981,401.415 475.2394,412.6719 472.502,423.2579 468.9466,432.3825 464.4338,440.5596 459.8765,446.4474 454.6681,451.0267 448.752,454.3184 445.5606,455.397 442.2154,456.0957 438.8097,456.4481 435.2043,456.4077 427.1829,455.0775 420.0475,452.7182 411.8684,448.7399 402.6326,442.8959 391.0074,433.7161 381.6041,424.8142 370.8166,413.1624 362.0565,402.039 352.6268,388.3085 345.7783,376.6521 339.6016,364.261 334.6183,352.1823 330.7958,340.1547 327.9982,327.7041 326.635,316.4486 326.6065,305.6612 327.8453,295.7199 330.279,286.8196 332.0351,282.5329 334.1198,278.4832 336.9528,274.0907 340.2008,270.0931 343.8525,266.525 347.6406,263.5834 352.1203,260.8375 356.6073,258.7131 361.743,256.9198 366.7492,255.7473 371.9491,255.0709 377.7392,254.8626 383.682,255.1875 389.3534,255.9765 395.085,257.2341 400.8406,258.9605 406.8022,261.2281 412.8805,264.0061 418.5304,267.0263 424.0545,270.4168 429.4161,274.1627 434.5783,278.2493 439.706,282.809 444.8418,287.8952 449.6805,293.2386 454.203,298.8101 462.1439,310.3759 469.4219,323.6094 475.0254,336.6841 479.4781,350.6597 482.3827,363.5333 484.0331,376.2269 484.7067,389.8274 484.1761,402.8842 482.4185,416.04 479.5653,428.1424 475.8023,438.8234 470.9783,448.3787 465.8489,455.578 463.3288,458.2828 460.4297,460.827 457.3892,462.9782 454.0703,464.8423 450.9063,466.1177 447.2212,467.0782 443.4346,467.6044 439.8234,467.6681 435.6852,467.2778 430.875,466.375 423.4885,463.9715 413.8373,459.3995 403.8678,453.1608 391.6598,443.7548 380.2614,433.0958 368.8155,420.8997 358.2087,407.6716 348.0922,393.3215 339.6402,379.2816 332.2654,364.8324 326.6148,351.1089 322.226,337.3344 319.2609,324.1563 317.8035,311.8695 317.7708,299.8976 318.2806,294.4638 319.1714,289.0511 320.4688,283.7226 322.0265,278.958 324.0813,274.0641 326.3374,269.7761 329.3539,265.1806 332.5958,261.2408 336.5771,257.3633 340.6968,254.1422 345.505,251.1524 350.3251,248.8245 355.4324,246.9741 360.9983,245.5894 367.0054,244.7004 373.2477,244.3452 379.6699,244.5349 385.8292,245.2211 392.0528,246.409 398.1696,248.0673 405.1209,250.4819 411.6709,253.2498 417.7872,256.2877 423.779,259.7207 429.609,263.5394 435.2239,267.7213 441.0808,272.6141 446.6761,277.8124 451.9783,283.2848 456.9559,288.9996 461.5771,294.9252 465.91,301.1659 470.263,308.1082 474.2254,315.1418 480.6323,328.7324 485.6399,342.8409 489.2837,356.5478 491.5722,369.4652 492.9748,385.1824 493.0279,399.5675 491.6703,415.1335 489.375,428.375 485.5067,442.4991 483.391,448.2293 480.6065,454.5231 475.5221,463.5386 472.4395,467.7717 469.4403,471.2146 466.2941,474.1735 463.2496,476.4743 459.9838,478.3846 456.1882,480.0175 452.6282,481.0704 449.0248,481.6394 444.845,481.7739 440.2555,481.4436 431.8943,479.5372 426.4315,477.6285 421.927,475.6811 415.9165,472.5326 408.1815,467.8928 397.9797,460.544 383.3745,448.0668 370.1294,434.6552 357.6715,420.2503 345.568,404.0127 335.0475,387.925 326.081,371.575 318.6274,355.3557 313.196,340.5624 309.1629,325.4557 307.7676,318.0558 306.8032,310.8601 306.2823,303.7837 306.2049,297.1789 306.5739,290.3145 307.3599,283.9955 308.5816,277.8772 310.25,272.0 312.172,266.9078 314.6791,261.7099 317.845,256.5001 321.2559,251.9686 325.3467,247.5537 329.5879,243.8461 334.1172,240.6475 339.1513,237.8121 344.5455,235.4357 350.2545,233.5359 356.2333,232.1302 362.4366,231.2363 368.8194,230.8717 375.1686,231.0318 382.0502,231.7217 389.0321,232.9355 396.0647,234.6647 403.0982,236.9011 409.7172,239.4802 416.25,242.5 422.8397,246.0263 429.5976,250.1391 435.8482,254.4202 442.1826,259.2691 448.2477,264.4516 454.0083,269.938 459.5531,275.8237 464.8415,282.0306 469.7763,288.4278 474.3509,294.982 478.5586,301.6602 482.566,308.7532 486.3545,316.3092 489.714,323.8547 494.8883,337.8013 498.8885,352.211 501.8129,367.7819 503.439,383.4829 503.7841,400.3554 502.9252,416.0964 500.6204,431.9769 497.2313,446.7054 492.3172,462.0069 490.0344,467.6197 487.1111,473.7176 484.0152,479.2792 481.0011,483.823 477.5302,488.1908 473.9711,491.8403 470.5312,494.7071 467.0333,496.9482 462.952,498.8498 458.959,500.082 454.4568,500.6929 449.2868,500.7388 445.1101,500.3198 440.306,499.3074 434.1257,497.4074 429.0018,495.3017 422.5553,492.0406 414.4541,487.3681 407.8878,483.0397 400.302,477.4995 392.6224,471.4516 385.8542,465.6161 369.2676,449.6344 357.0651,436.2527 341.6958,417.057 329.6672,399.8853 319.018,382.3595 310.1078,365.3452 302.9021,348.5885 297.277,331.9903 295.0733,323.8324 293.402,316.182 292.1323,308.5217 291.2814,300.8931 290.8662,293.3374 290.9039,285.8963 291.3747,278.971 292.2896,272.2305 294.8491,261.6108 298.5669,251.9806 303.4951,243.1225 306.5216,238.8897 309.6174,235.2071 312.9313,231.831 316.7696,228.4876 320.8968,225.4301 325.2936,222.6722 334.4649,218.2503 344.4328,215.0919 355.0423,213.2928 366.5843,212.8179 378.5625,213.7031 390.7629,215.9402 402.5921,219.3887 414.2602,224.0529 426.0497,229.9909 437.7171,237.1665 444.8534,242.2684 451.6915,247.7403 458.2416,253.5997 464.8277,260.1425 471.0297,266.965 476.836,274.0268 482.4512,281.5937 487.6114,289.3304 492.3244,297.2281 496.848,305.7105 500.8778,314.1907 504.5636,322.9958 507.7404,331.7449 510.4218,340.4108 512.7838,349.6182 514.7418,358.9522 516.3462,368.8106 517.4771,378.7354 518.0839,387.9584 518.3161,398.7665 518.1284,409.1898 517.5156,419.4007 516.4343,429.7076 514.9577,439.9047 512.979,450.428 510.3529,461.525 507.391,472.2225 504.1596,482.0318 500.9309,490.845 498.125,497.375 493.8131,505.7953 489.3849,513.098 486.6185,516.8456 483.744,520.1153 480.6312,523.0572 477.5636,525.3484 474.25,527.25 471.0953,528.5624 467.4386,529.5056 463.5324,530.0308 460.0185,530.0977 455.9035,529.6966 446.6973,527.5589 435.3987,523.0572 425.8088,518.0334 412.2471,509.45 399.8994,500.3507 385.51,488.474 371.7721,475.7251 356.7588,460.4978 344.3965,446.7111 330.7699,429.9795 318.6064,413.557 309.7334,400.2272 301.3666,386.4114 293.2018,371.5432 286.7409,358.3454 281.0766,345.0653 276.3867,332.1809 272.451,319.0773 269.4804,306.3693 267.5702,294.3521 266.601,282.3975 266.6226,270.6298 267.6336,259.5368 269.5796,249.1966 272.4166,239.6791 276.2673,230.5887 281.1007,222.0792 287.1401,213.9638 293.9194,206.9463 301.5727,200.8481 310.3835,195.5373 320.0551,191.2269 330.4618,187.9638 341.478,185.7953 352.5746,184.7843 363.9783,184.8767 375.9007,186.0924 387.9765,188.3878 400.4477,191.8305 412.815,196.3142 424.591,201.611 436.2214,207.9035 447.5634,215.1179 456.5579,221.6557 465.4378,228.8942 473.847,236.5594 481.7465,244.5938 489.1415,252.993 496.3032,262.0673 503.074,271.6451 509.2064,281.366 514.8833,291.5069 519.9007,301.6893 524.4876,312.4028 528.5366,323.3973 532.0327,334.5971 534.957,345.9504 537.2983,357.3976 539.0918,369.1589 540.8787,389.0586 541.198,398.822 541.1408,408.9174 539.7184,432.1094 538.5263,442.9681 536.9802,453.5155 534.1793,468.9308 531.2435,482.9286 515.8082,547.253 507.3447,594.0146 505.4928,600.9408 503.4038,606.3179 501.0472,610.3701 498.5852,612.9296 495.2998,614.895 491.8035,615.8443 487.377,615.97 482.3026,615.1816 476.7444,613.641 470.4198,611.246 455.5124,603.6906 434.6267,590.6657 412.1185,574.434 394.8135,560.7871 373.5392,542.625 353.7414,524.4666 333.3475,504.3725 315.6504,485.6722 298.7302,466.403 281.8585,445.6916 266.6,425.4129 252.7438,405.2387 239.9564,384.6897 229.7306,366.4867 220.6625,348.5135 212.8352,330.817 206.1985,313.3304 200.6944,295.8675 196.487,278.9364 193.512,262.2928 191.8786,246.6136 191.5507,231.4499 192.5271,216.492 194.7844,202.2538 198.3807,188.4827 203.2165,175.6503 209.229,163.8295 212.7061,158.2405 216.3799,153.0431 224.6616,143.2427 229.5153,138.4098 234.689,133.8258 240.1724,129.5015 245.9549,125.4477 252.0263,121.6755 258.376,118.1956 264.9936,115.019 271.8688,112.1566 285.5645,107.6335 300.2735,104.3166 315.9983,102.2841 332.3129,101.5812 349.4355,102.2111 366.8415,104.1778 384.7435,107.5407 402.2085,112.1296 419.0772,117.8351 436.0326,124.9019 452.7032,133.1589 469.096,142.6073 481.0005,150.3546 492.7565,158.8027 503.9937,167.6956 514.6693,176.9796 524.7406,186.601 534.2824,196.6325 543.6709,207.4863 552.34,218.5153 560.523,229.9968 567.979,241.5715 575.0799,253.8385 581.4107,266.1021 587.1286,278.6274 592.1757,291.2862 596.8058,304.6546 600.8948,318.4969 603.6211,329.3998 605.8755,340.0695 607.7452,350.8498 609.2202,361.7017 610.3235,372.9171 611.0541,384.6172 611.3899,407.842 610.9601,420.1545 610.0775,432.8872 606.9134,459.8073 602.8426,484.2506 592.213,537.8895 590.3713,550.2333 589.0222,563.3865 588.6546,576.2984 589.585,588.4138 591.9034,599.7681 595.6246,610.9251 598.8103,617.8783 602.8731,625.2779 606.9405,631.5689 612.1863,638.6697 616.7629,644.2757 621.9069,649.8113 630.2037,657.9097 636.766,663.7591 647.1805,672.241 653.1101,676.6248 663.53,683.469 672.503,688.809 681.6597,693.4758 688.1445,696.1184 693.75,697.375 695.5051,697.176 696.2656,696.625 696.4404,695.3546 695.7704,693.8236 691.4368,688.6973 685.0,683.0 673.8147,674.4624 662.122,666.2555 642.2395,653.0334 589.0747,619.6132 567.8168,605.5637 558.9662,599.2502 549.7573,592.1571 542.5,585.625 540.529,583.123 540.375,582.375 540.7095,582.2919 542.4282,583.0703 547.3514,586.9887 553.4279,592.6154 581.1032,621.9476 597.3887,637.9468 613.4597,652.2781 625.1444,661.9278 631.682,666.9128 646.0088,677.0673 653.6737,682.1113 667.0291,690.1576 676.8208,695.3646 687.4098,700.3258 695.1623,703.0679 698.9266,703.9499 701.6192,704.2512 703.668,703.9247 704.6296,703.1991 704.8498,701.7384 704.011,699.807 702.0201,696.9934 699.1831,693.8581 691.3792,686.9553 679.7631,678.0017 669.75,671.0 645.8013,655.1969 588.4148,619.5233 561.3504,601.8457 551.3102,594.6715 541.8073,587.2644 535.0115,580.9139 533.2676,578.9043 532.3576,577.3687 532.1073,576.3956 532.3965,575.9961 533.3787,576.106 534.875,576.875 539.2395,580.1291 545.1642,585.6882 581.7397,626.0619 599.6122,643.6706 617.6373,659.5957 635.2976,673.1977 647.3897,681.6433 660.3299,689.9583 672.5641,697.0136 684.9247,703.4592 695.695,708.0592 705.5049,711.2885 709.2855,712.0429 712.0191,712.234 714.0507,711.946 715.352,711.1014 715.8054,709.581 715.2003,707.4259 713.8028,705.1536 710.9004,701.7514 702.2548,693.7155 690.1372,684.3321 674.4895,673.3402 657.3617,662.1045 633.6654,647.3254 585.7549,618.134 567.6097,606.8116 555.7967,599.036 542.6688,589.7339 533.0483,582.0652 525.7987,575.2557 523.5738,572.5557 522.0834,570.0677 521.75,568.8036 522.2551,568.0 525.125,568.7344 528.0,570.5 533.0273,574.8945 541.3968,583.9582 564.3534,611.9505 576.057,625.5773 590.5057,640.6406 599.9248,649.7124 611.6957,660.1841 622.2064,668.7302 634.7145,678.2128 649.159,688.222 663.813,697.4826 679.3957,706.3224 691.826,712.4853 707.375,718.875 717.277,721.9331 721.9533,722.8066 725.7494,723.0129 728.4379,722.5074 729.9664,721.3757 730.4256,720.2663 730.4527,719.2478 729.6314,716.7315 727.484,713.423 724.1764,709.5558 719.9572,705.3747 714.6483,700.7165 700.358,689.771 683.0499,677.8116 663.5708,665.398 635.1133,648.0253 570.6113,609.5559 547.6465,594.9501 532.2714,584.2056 521.6428,575.7631 513.1815,567.732 510.5633,564.4945 508.7243,561.3743 507.971,559.156 508.1094,557.9219 509.0499,557.0674 510.5084,557.0517 513.9486,558.4687 517.5056,561.0212 520.2335,563.4342 526.6203,570.4988 532.1406,577.8281 547.35,600.0594 557.8013,614.5389 567.0032,626.3086 575.2682,635.8094 585.0018,646.1116 600.5352,660.7588 617.125,674.75 628.2528,683.2059 648.2471,697.0129 665.9325,707.9048 686.252,719.0588 706.0775,728.4596 714.2461,731.7918 722.6063,734.7475 730.3798,737.0379 737.2211,738.5841 742.768,739.2787 746.9545,739.2124 750.1348,738.4453 752.1237,736.9422 752.6388,735.8415 752.7902,734.5454 751.9997,731.3018 749.6438,727.2279 745.9988,722.8034 740.5921,717.509 733.4539,711.3365 725.0773,704.7147 715.664,697.7987 693.5058,682.9383 664.7192,665.0485 641.6742,651.4784 566.2556,608.3405 548.8147,597.8473 532.4934,587.4988 516.315,576.4476 503.2596,566.1448 498.0,561.375 494.4451,557.6953 491.2509,553.7171 488.768,549.751 487.2216,546.0839 487.0316,543.1557 488.0,541.0 488.8382,540.3594 490.3096,539.9243 493.1909,540.2141 496.59,541.7419 499.7879,544.1984 503.4378,547.9416 508.5617,555.7316 513.2574,565.5501 516.6306,574.6596 525.2608,600.0806 530.5991,612.8686 536.4282,624.1527 544.6628,637.0397 549.4916,643.5351 554.2395,649.2708 563.361,659.123 568.9676,664.6629 586.3398,680.1381 597.3044,688.8204 608.1406,696.918 621.2483,705.9017 637.9355,716.7487 652.0424,725.2203 668.0048,734.221 681.3194,741.2307 696.0035,748.3952 712.6838,755.9641 725.9227,761.4655 739.9764,766.6951 753.3955,771.0516 765.0975,774.2288 776.071,776.467 785.5662,777.5977 793.6341,777.5964 796.8092,777.1703 799.5968,776.4189 801.9119,775.3282 803.4872,774.1224 804.9497,772.1241 805.5847,770.0082 805.5718,767.5479 804.8674,764.7421 803.4276,761.5896 801.3035,758.204 794.8701,750.3756 785.8117,741.5279 774.3423,731.8828 761.1099,721.9516 744.524,710.589 729.3569,700.818 712.6331,690.5343 675.904,669.2935 632.2522,645.636 549.2786,601.7782 516.5729,583.6781 500.1405,574.0128 486.3695,565.4085 475.1703,557.834 465.2965,550.4672 454.1312,540.8462 449.4246,536.0784 445.6537,531.6854 442.6939,527.5336 440.3603,523.3687 438.7189,519.2664 437.7714,515.3006 437.5276,511.0633 438.2594,507.0662 439.8655,503.4688 442.3711,500.2266 445.9883,497.4141 450.2417,495.5925 453.75,495.125 455.2595,495.4106 456.575,496.147 456.9062,497.375 456.125,498.375 454.2773,499.1949 451.2573,499.6766 448.5437,499.5394 444.4592,498.8384 438.7031,497.2656 431.1596,494.2058 424.7586,490.8562 414.6477,484.7075 406.1117,478.6328 396.3242,470.8919 388.8007,464.3902 379.4718,455.5874 370.2419,446.2129 362.1208,437.1926 353.3425,426.6711 345.2253,416.2943 338.1658,406.4379 330.6463,394.9301 323.6043,383.1078 317.8992,372.5204 312.8732,361.9697 308.201,350.7344 304.1251,339.2426 300.9757,328.4686 298.6112,317.8466 297.0617,307.6143 296.2996,297.8682 296.3033,288.3204 297.1068,279.4031 298.8038,270.6308 301.2484,262.6133 304.486,255.057 308.5068,248.0566 313.3708,241.6303 319.1187,235.8409 325.6553,230.8081 332.5632,226.7822 340.0589,223.586 348.1686,221.265 356.9831,219.8128 366.1967,219.2816 375.6972,219.6765 385.3726,221.0026 394.7214,223.1564 404.6356,226.3432 414.7266,230.4874 424.27,235.2855 433.8388,241.0402 442.6696,247.3166 449.2759,252.6966 455.873,258.6459 461.8677,264.6121 467.7823,271.1037 473.0813,277.5241 478.2237,284.4232 482.831,291.3062 487.5345,299.0866 491.62,306.5859 495.4588,314.4638 498.7173,322.0147 501.6916,329.9029 504.4498,338.491 507.0988,348.0728 509.1818,357.0549 510.8076,365.8314 511.9698,374.4089 512.733,383.5689 513.1335,393.1023 513.1359,402.9286 512.7217,412.6249 511.901,422.352 510.7344,431.7188 509.1964,440.8304 506.8289,451.6613 504.2463,461.7507 501.8594,469.5513 498.7166,478.2028 495.2741,486.2435 491.0094,494.7195 487.6155,500.429 483.9166,505.409 480.8725,508.7867 477.3774,512.0308 474.5186,514.1367 471.1912,516.016 467.6716,517.5119 464.4118,518.39 460.5717,518.8819 456.1835,518.9923 452.281,518.6814 448.1527,517.9297 439.0051,515.1589 428.4384,510.3623 417.631,504.1941 403.75,494.625 391.8281,485.2353 377.625,472.625 364.3778,459.566 351.589,445.6222 339.3632,430.9382 328.0408,415.8925 317.1001,399.8331 309.5008,387.5131 302.4086,374.7102 295.9844,361.6905 290.4458,348.9552 285.9616,337.0536 282.1864,324.9568 279.2805,313.108 277.2502,301.6057 276.0894,290.5314 275.7923,279.7622 276.4129,269.2353 277.9098,259.3935 280.3189,249.9443 283.5233,241.3235 287.625,233.25 292.5867,225.8722 298.695,218.8613 305.6979,212.6232 313.5298,207.244 321.7676,202.9677 330.7385,199.6098 340.3758,197.2156 350.5211,195.8044 361.0641,195.3837 371.8945,195.9613 382.9021,197.5447 394.2329,200.2029 405.5466,203.8134 417.0809,208.4657 428.028,213.8321 438.6339,219.9948 448.7926,226.9092 457.0427,233.3469 464.926,240.2001 472.6494,247.665 479.8901,255.449 486.6249,263.5061 492.8311,271.7903 498.4327,280.1666 503.9679,289.4075 508.9397,298.7068 513.5121,308.3697 517.6341,318.3517 521.1449,328.2587 524.3131,338.9191 526.9933,349.7657 529.1524,360.7103 530.7197,371.346 531.7571,382.0078 532.3725,394.4436 532.4635,406.5195 532.0384,417.9371 531.0339,429.7333 529.4038,442.8336 527.4054,455.1773 524.959,467.4828 521.2596,483.1511 516.5962,500.1777 510.9205,518.3582 505.886,532.7421 501.7444,543.0795 498.625,549.5 494.1599,556.8788 489.641,561.9899 486.6523,564.2912 483.2434,566.0977 479.5595,567.2996 475.5719,567.8334 470.6697,567.7256 465.8432,567.0217 460.0242,565.5186 454.2912,563.5158 447.7174,560.5919 439.8225,556.586 425.419,547.9289 410.4688,537.4554 391.938,522.9136 375.3479,508.4114 356.2656,490.2131 340.9912,474.3411 325.7902,457.1787 311.011,439.1053 297.4413,420.9645 284.9409,402.5734 273.5169,383.9195 265.0754,368.4978 257.4054,352.7645 250.776,337.236 245.2329,322.0752 240.8729,307.6592 237.6202,293.7048 235.4007,280.0608 234.1929,266.4697 234.0631,253.4188 235.0359,240.6377 237.0656,228.8012 240.2504,217.3854 244.5954,206.4902 249.9025,196.5462 256.291,187.2936 263.4921,179.1007 272.0,171.5 281.4761,164.9437 291.9126,159.409 303.1995,154.9309 315.2271,151.5443 327.8855,149.2841 341.0648,148.1854 354.4302,148.2706 368.5499,149.5663 382.8509,152.0384 397.1915,155.6343 411.7928,160.4351 425.7802,166.1471 439.3791,172.8243 452.8323,180.6269 465.7055,189.2639 474.6338,195.9844 483.4844,203.2969 491.9178,210.9337 500.1672,219.1211 507.6743,227.2874 514.6874,235.65 521.6493,244.7741 528.2764,254.304 534.355,263.9219 540.0763,273.9258 545.3942,284.2796 550.1199,294.6069 554.3896,305.193 558.0781,315.7108 561.5181,327.0424 564.376,338.1346 568.2208,357.7494 570.5673,377.4839 571.5832,399.5148 571.1299,421.6243 569.5886,441.006 566.9981,461.3826 563.6023,481.8143 556.8359,518.1359 554.3267,534.5382 552.935,547.3752 552.5,561.0 552.706,567.3015 553.3066,573.696 554.3782,581.0137 555.6255,587.0022 559.5103,599.6279 564.7063,611.0347 570.5118,621.1928 579.0649,633.4424 586.1852,642.0837 596.617,653.401 606.5725,662.7657 619.5243,673.9316 634.1008,685.1183 647.9206,694.8979 663.8542,705.0352 679.425,713.9406 696.6177,722.6491 710.6278,728.7579 724.8741,733.781 730.7539,735.4195 736.2941,736.5662 741.0799,737.0845 744.6705,736.9683 747.375,736.25 749.1158,734.8913 749.692,733.7045 749.8445,732.568 749.0986,729.4034 747.0525,725.884 743.6821,721.7865 738.4142,716.4559 731.8724,710.6433 724.2383,704.5091 715.6862,698.1911 692.5977,682.5993 666.0802,665.992 635.5881,648.0085 571.4747,611.145 550.9081,598.7888 533.8029,588.034 518.1973,577.2288 505.0322,566.8419 497.0308,559.0628 493.8379,555.1649 491.4068,551.5022 490.1036,548.4084 489.799,545.3722 490.5703,543.3027 491.4688,542.5469 492.6016,542.1426 495.2011,542.4053 498.539,543.795 502.2509,546.5471 505.3386,549.6365 510.7624,557.012 515.63,566.2373 530.8137,602.2732 536.4728,613.6679 544.1417,626.5928 551.0226,636.3328 556.3583,643.0814 565.9503,653.7688 577.966,665.62 585.2906,672.2795 593.2855,678.9799 605.2742,688.4756 614.5496,695.344 627.7368,704.4778 639.8802,712.4192 652.7813,720.2469 667.9457,728.901 680.9439,735.8514 694.2133,742.4495 707.9303,748.7771 720.5077,754.1131 733.4795,759.0814 745.8319,763.2504 757.0799,766.4647 767.0461,768.6612 776.042,769.9058 783.3814,770.0827 788.8667,769.2339 790.9849,768.4284 792.7056,767.3568 794.1669,765.7649 794.9901,763.7985 795.1229,761.4513 794.5131,758.7167 793.3597,756.0594 791.4078,752.8374 785.5579,745.6038 776.9837,737.142 766.0547,727.8722 753.4361,718.3135 738.2904,707.8249 708.3333,688.7901 673.699,668.5232 630.4603,644.7242 553.9686,603.668 523.4731,586.5579 508.2384,577.5187 495.2342,569.3709 484.6675,562.2252 475.3895,555.352 464.1801,545.8613 459.5559,541.3143 455.9358,537.25 452.9559,533.2762 450.5542,529.2862 448.916,525.6562 447.8017,521.8762 447.3797,517.5862 447.9607,513.8401 449.4576,510.6208 451.8962,507.8988 455.1483,505.875 458.9749,504.8745 462.125,505.125 464.139,505.9195 465.3377,506.8087 466.3803,508.8338 466.25,510.75 464.972,512.676 462.2793,514.3379 459.2285,515.1387 455.739,515.438 452.083,515.096 447.5613,514.1753 439.2135,511.3839 429.2672,506.8092 417.0739,499.5234 406.852,492.4253 395.0989,483.2409 385.747,475.1104 373.7628,463.6526 362.1426,451.6376 350.953,438.9518 339.8446,425.2886 331.1615,413.6206 322.6558,401.0549 315.039,388.71 308.2368,376.6088 302.3688,364.883 297.0209,352.7365 292.2755,340.2609 288.3107,327.8734 285.4481,316.535 283.4439,305.5255 282.2412,294.5761 281.8907,283.7939 282.4122,273.6056 283.7789,264.2722 286.0509,255.2631 289.2195,246.6816 293.2761,238.6313 297.9891,231.5104 303.7084,224.8528 310.4998,218.8034 318.144,213.6176 326.2043,209.5109 334.8942,206.3153 344.1369,204.0872 353.842,202.851 364.0119,202.5581 374.4654,203.2189 385.088,204.8333 395.7647,207.4013 405.9474,210.759 417.0042,215.3748 427.8078,220.8376 438.2663,227.0895 448.2881,234.0725 455.7545,239.9992 462.9354,246.3808 469.8831,253.239 476.6648,260.66 482.9852,268.3325 488.8359,276.2133 494.405,284.5713 499.4484,293.0588 504.3014,302.2402 508.7718,311.7938 512.6621,321.3036 515.9949,330.7467 518.8868,340.4449 521.34,350.4708 523.4225,361.0399 524.9535,371.2577 526.044,381.8668 526.6391,392.5429 526.7652,403.9103 526.4036,415.0284 525.5541,426.2121 524.1616,437.9303 522.3323,449.4317 520.0764,460.7275 516.9517,473.7908 513.5267,486.0485 508.7686,501.042 504.5612,512.4342 500.3131,522.1451 495.6601,531.2395 491.446,537.6967 487.281,542.4559 483.956,545.2438 480.375,547.5 476.983,549.008 473.279,549.964 469.13,550.4 465.0659,550.2854 460.185,549.5854 455.1172,548.3413 449.3481,546.3746 442.9039,543.7048 430.4352,537.1302 417.0204,528.6835 400.7132,516.7006 385.0557,503.753 367.6799,487.8799 352.8921,472.996 337.86,456.4822 324.4807,440.5143 311.4428,423.4077 298.9842,405.419 288.2589,388.2702 280.1616,373.8196 272.9468,359.4431 266.5236,344.9428 261.1297,330.8514 256.8054,317.268 253.4215,303.8788 251.0055,290.8022 249.543,277.7676 249.1216,265.2405 249.7063,253.8889 251.3691,242.4051 254.0118,231.6917 257.6849,221.464 262.221,212.147 267.7407,203.4724 274.1368,195.669 281.7381,188.427 290.6152,181.8351 300.0901,176.4042 310.3587,171.9687 321.3374,168.5979 332.6703,166.3959 344.7411,165.2599 357.2262,165.218 369.9976,166.2558 382.9272,168.3592 395.8871,171.514 408.7491,175.7058 421.7548,181.0324 434.7326,187.4167 447.2954,194.6711 459.6503,202.9347 468.1228,209.3294 476.2168,216.0729 483.625,222.875 491.2103,230.5236 498.6067,238.6974 505.5215,247.0812 511.9512,255.6378 518.0957,264.6429 523.7125,273.7528 528.798,282.9264 533.5189,292.4685 537.9376,302.4659 541.9513,312.7338 545.4155,322.8783 548.4563,333.2319 551.0512,343.7529 553.0,353.375 554.6618,363.5989 556.7743,383.4885 557.4476,403.8627 556.692,425.3458 554.9073,444.3781 551.8378,465.4339 548.7819,482.8697 541.3263,520.6365 539.1118,533.941 537.2806,549.3101 536.7271,561.9477 537.0131,569.6383 537.7986,578.3374 538.9157,585.0413 540.6398,592.3679 542.7247,598.9605 545.821,606.8606 548.8693,613.3418 552.625,620.25 560.043,631.5 569.2344,643.2969 580.5772,655.6165 593.5096,667.8904 606.9805,679.3331 622.4951,691.273 638.5957,702.3725 656.9556,714.0583 675.535,724.5888 695.1309,734.6155 714.9704,743.5099 732.3452,750.21 748.1135,754.8187 755.5654,756.4198 761.7251,757.3508 766.7043,757.6043 770.938,757.2477 774.285,756.2659 776.6043,754.6438 777.5408,753.1193 777.862,751.3737 777.5917,749.1647 776.7931,746.8676 773.3046,741.0855 767.6297,734.4837 760.0433,727.2948 749.9821,718.9711 738.0977,710.0561 724.7016,700.753 698.1015,683.8234 662.9398,663.0302 635.0798,647.3184 565.4741,609.0585 534.3343,591.3207 508.9306,575.5638 498.3332,568.3632 489.5497,561.8894 480.1766,553.975 472.4911,546.1031 469.375,542.25 467.0972,538.8815 465.4727,535.8041 464.3149,532.697 463.6844,529.4209 463.7915,526.318 464.747,523.7295 466.5047,521.6345 469.0783,520.2122 471.7715,519.754 474.7422,520.2305 477.5391,521.457 479.631,523.217 481.4352,525.3657 482.375,527.125 483.3438,530.0156 483.7217,532.2502 483.625,534.963 483.145,537.2476 482.155,539.833 481.005,541.801 479.375,543.625 477.55,545.0374 475.4722,546.142 470.7859,547.4633 464.7972,547.6106 459.1724,546.7839 451.9458,544.752 445.2536,542.157 437.7093,538.604 431.0842,534.9532 423.2206,530.0424 414.026,523.8552 405.5352,517.6502 389.4495,504.7293 374.4317,491.1963 356.2845,473.3479 340.9247,456.6728 326.0818,438.9347 313.2032,422.0185 300.866,403.9936 289.1431,384.9185 281.4279,370.9734 274.6276,357.122 268.6279,343.1521 263.4926,329.1888 259.2705,315.3429 256.1909,302.4499 254.0144,289.4436 252.848,276.8736 252.671,264.8431 253.4952,253.0729 255.2631,242.2231 258.076,231.8109 261.9631,221.8784 266.7134,212.852 272.4329,204.4608 279.1072,196.7977 286.7216,189.9555 295.4497,183.8907 304.9716,178.8374 315.2691,174.7767 326.2434,171.7535 337.7953,169.8128 349.8259,168.9995 361.9226,169.3203 374.6599,170.7464 387.894,173.3268 400.7609,176.8773 413.8625,181.5585 426.3425,187.0696 438.3668,193.4345 450.4747,200.9039 462.3568,209.3399 470.4162,215.7565 478.1257,222.4877 485.4573,229.5016 492.6314,237.0398 499.3912,244.8767 506.0953,253.4188 512.3093,262.0912 518.0351,270.8625 523.2745,279.7015 528.1962,288.9056 532.5988,298.1138 536.4844,307.2909 540.2173,317.3638 543.5394,327.6611 546.3356,337.7896 548.7134,348.0949 551.8362,366.6274 553.6768,386.687 554.1265,406.9105 553.2061,427.3411 551.5071,444.7803 549.0297,461.9992 545.0208,484.061 537.1339,523.5094 535.0778,535.6239 533.2221,549.9558 532.6007,562.7459 532.8192,570.0732 533.517,579.1031 534.551,585.5259 536.4163,594.0702 538.2998,600.1735 541.1132,607.591 544.2726,614.4033 548.0306,621.4572 556.3467,634.101 565.5529,645.6572 574.8319,655.8377 587.782,668.3009 604.7889,682.5599 617.8995,692.5036 636.3591,705.3598 654.1829,716.4069 674.8356,728.2042 695.5535,738.7557 715.7751,747.9408 734.7375,755.1882 751.7327,760.3532 759.5191,762.1001 766.2929,763.1725 772.3259,763.635 777.4441,763.4396 781.1644,762.6437 783.9666,761.174 785.3957,759.5556 786.0488,757.8302 786.1349,755.7866 785.6167,753.4195 784.457,750.7233 782.6711,747.7642 777.0872,740.8152 769.1375,732.9197 759.056,724.312 747.5042,715.5143 733.1782,705.5371 704.9911,687.4689 672.1992,668.0679 632.6965,646.0269 560.5834,606.8385 529.0608,588.9226 513.9355,579.8378 501.3643,571.8635 490.8167,564.6483 481.379,557.5797 471.335,549.0076 464.0325,541.3605 461.0593,537.4341 458.8478,533.8449 457.1919,530.337 456.1087,526.9022 455.7159,523.3671 456.1703,520.0724 457.4636,517.1494 459.5998,514.7835 462.4812,513.1834 465.9335,512.6518 468.9162,513.1181 471.8706,514.6288 473.0452,515.6495 474.1035,517.3047 474.8056,519.1667 475.0,520.75 474.3672,524.248 473.305,525.9956 472.0156,527.375 469.0201,529.2956 465.1696,530.335 460.2859,530.6747 454.9504,530.0237 450.1224,528.9289 445.2944,527.2899 437.7245,524.0949 432.0979,521.2755 417.7155,512.5644 402.8713,501.8397 390.3697,491.7257 376.8809,479.5723 363.7905,466.7807 351.5294,453.5497 338.3166,437.9929 327.3469,423.9457 316.4586,408.5948 306.247,392.7445 298.7589,379.9605 292.1234,367.2794 286.0274,354.1141 280.6998,340.9194 276.2856,328.1477 273.0268,316.5304 270.4675,304.4277 268.8268,292.7044 268.0695,281.089 268.2321,270.0503 269.2903,259.6679 271.2545,249.7838 274.1482,240.3025 277.9826,231.3271 282.5669,223.27 288.0409,215.8675 294.5334,209.076 302.1835,202.8716 310.3716,197.7476 319.2897,193.5205 328.8629,190.2514 338.6159,188.0687 349.0466,186.8392 360.3129,186.5828 371.8909,187.3568 383.2637,189.0801 394.6774,191.7553 406.0082,195.3757 417.6488,200.1165 429.1761,205.7691 440.3551,212.2148 451.4097,219.6177 460.1554,226.2969 468.191,233.1786 476.31,240.9692 484.0894,249.2665 491.322,257.8337 498.2166,266.9286 504.5013,276.207 510.1635,285.6154 515.4052,295.5206 520.4644,306.4062 524.8406,317.2298 528.5624,327.9439 531.751,338.8494 534.3029,349.5346 536.5521,361.5251 538.1677,373.1684 539.1418,383.6534 539.6679,394.4703 539.7148,405.7607 539.3526,417.3719 538.601,428.6773 537.4695,439.653 535.883,450.9832 533.8237,462.8186 526.8584,494.8885 516.132,536.6852 508.3021,570.4908 505.6723,580.7044 503.209,587.9844 500.7633,593.0621 498.1435,596.8519 495.0514,599.7434 492.0694,601.4444 488.0882,602.5754 483.4478,602.7676 479.2365,602.2747 472.7624,600.5621 467.1516,598.5225 459.0787,594.9473 451.8647,591.189 435.3775,581.2418 413.4139,565.7794 392.1231,548.9576 371.6252,531.3445 350.5203,511.5406 332.0459,492.9184 313.7326,472.8269 295.4407,451.1425 280.5661,431.9516 266.4721,411.9913 253.381,391.5508 241.6743,371.2699 232.7916,353.9333 224.9961,336.643 218.3582,319.5824 212.8065,302.5397 208.4132,285.6161 205.5019,270.1991 203.7438,254.7588 203.2268,239.8164 203.9408,225.4886 205.8658,211.8734 209.0767,198.7013 213.4024,186.6617 219.1051,175.0737 225.8933,164.4945 234.1234,154.4055 243.2843,145.483 248.5854,141.1433 253.8719,137.3058 265.2403,130.4411 271.3121,127.4382 277.6409,124.7355 291.1108,120.2221 305.4305,116.9551 320.8233,114.9108 336.7883,114.1952 352.7705,114.7882 368.9935,116.6671 384.9091,119.7487 401.3593,124.2033 417.8529,129.9036 434.0407,136.7097 450.1374,144.7161 465.657,153.6947 480.7755,163.772 490.9621,171.4118 500.531,179.3057 510.0831,187.9123 519.3891,197.0718 528.14,206.4804 536.5734,216.393 544.4132,226.485 551.657,236.7133 558.489,247.339 564.6846,258.0162 570.5221,269.229 575.8893,280.7365 580.75,292.4873 585.0797,304.4454 588.7581,316.2163 591.9949,328.4681 595.8188,347.1669 598.6515,367.705 600.1462,387.4778 600.4142,407.3982 600.0177,418.6664 599.0975,432.4589 596.3703,457.6442 592.6094,480.9272 583.5668,528.9798 580.8888,547.2235 579.8273,558.032 579.5168,572.3126 580.4908,583.489 583.171,596.5767 584.8588,601.9781 587.1615,607.9528 590.6302,615.489 594.85,622.997 600.3492,631.342 605.8396,638.5252 612.9521,646.7478 618.9091,652.9538 627.9445,661.3466 637.5703,669.6115 647.6195,677.3165 658.1105,684.715 669.453,691.8047 679.8295,697.6257 690.7372,702.7143 699.328,705.953 702.7761,706.8002 705.8813,707.1576 707.6758,706.9923 709.0501,706.1995 709.4402,704.7697 708.737,702.7303 706.9754,700.2155 704.141,697.006 696.3721,689.8566 685.2396,681.3274 669.591,670.4051 649.6852,657.4213 581.2594,615.1406 560.3312,601.4084 548.3498,593.0142 538.1749,584.9391 532.0251,579.2888 529.6159,576.4937 528.1816,574.332 527.9219,573.4688 528.1658,572.7964 530.5576,573.3666 534.7937,576.3558 538.2277,579.3394 546.1658,587.5407 568.666,613.6308 580.9565,627.3028 597.7479,644.1373 617.1787,661.1898 636.5909,676.173 648.4555,684.3798 663.7522,694.1231 676.3396,701.2637 688.7984,707.5635 700.6041,712.47 710.4272,715.639 714.3038,716.337 717.4789,716.4796 719.8012,716.0778 721.0839,715.2039 721.5679,713.3741 720.9232,711.1718 719.2032,708.4133 716.4803,705.2434 706.9941,696.4074 694.2992,686.5419 678.8031,675.7603 660.1211,663.6565 627.5025,643.4961 579.3381,614.4593 553.1768,597.7986 538.1037,587.1616 529.7741,580.5923 520.6643,572.0119 518.3968,569.2875 516.7716,566.5688 516.2859,565.0144 516.5781,563.9531 517.5559,563.5774 519.1458,563.9607 522.8502,566.06 528.754,571.235 537.0667,580.5449 559.4434,609.4941 568.4756,620.6477 584.313,638.2263 593.8961,647.6972 606.4199,659.208 620.8675,671.2806 631.4561,679.3264 648.8396,691.437 664.6752,701.3653 680.5233,710.3225 696.7236,718.177 711.6601,724.256 718.621,726.5251 724.8469,728.1374 729.9352,728.9749 733.6606,729.0268 736.4652,728.4144 738.2024,727.1375 738.7313,725.1479 737.9303,722.2944 735.709,718.627 732.3541,714.6034 727.8283,710.1363 721.6676,704.7731 706.1381,692.8452 687.2808,680.0339 660.8077,663.2907 641.3797,651.5902 573.0368,611.5122 555.3374,600.6425 539.5881,590.4769 525.0674,580.2647 512.924,570.4296 505.8984,563.4602 503.2673,560.0992 501.0905,556.5963 500.1529,553.8749 500.3752,551.7554 501.6759,550.7546 503.6309,550.7246 506.2294,551.6675 509.2152,553.4468 514.8918,558.7015 517.7532,562.0455 523.9805,570.7146 540.8009,599.1566 548.9828,612.1141 558.4894,625.2994 569.0672,638.194 581.8499,651.7235 594.9324,664.1109 609.5579,676.52 626.2215,689.0912 645.3047,702.1591 666.62,715.241 689.0731,727.1901 699.8635,732.458 709.8562,736.9075 720.4415,741.1559 730.6372,744.7971 738.9989,747.3604 746.6992,749.2169 753.5674,750.309 759.3332,750.5465 763.6077,749.8789 766.4579,748.3952 767.6324,746.9443 768.1157,745.453 768.111,743.7052 767.5828,741.7008 766.4054,739.2695 764.5569,736.4321 759.3856,730.2611 752.2373,723.3206 743.7326,716.1606 732.9817,708.0524 719.7673,698.7858 694.9144,682.6238 666.9917,665.8305 632.924,646.3158 569.8698,611.1234 538.2182,592.7201 516.0823,578.8085 506.5884,572.2488 497.9629,565.8242 489.0083,558.4209 482.2548,551.7484 476.7644,544.8458 474.9579,541.94 473.547,538.9071 472.7479,535.9065 472.6819,533.1414 473.3502,530.883 474.5938,529.25 476.5493,528.0679 479.0986,527.6814 481.8379,528.0332 484.3634,529.1568 486.5497,530.6603 488.4966,532.5671 491.0273,535.9759 492.4817,538.7531 494.6901,546.125 495.2029,550.7649 495.041,554.6951 494.4769,558.5231 493.4752,561.8979 492.1109,564.9871 490.1582,567.9434 487.9434,570.1582 485.3524,571.9028 482.5972,573.125 479.5918,573.8692 474.0949,574.0897 467.8108,573.2667 459.75,570.875 452.375,567.8125 441.8696,562.5762 432.9442,557.3974 420.99,549.5936 409.7746,541.4578 397.2165,531.6319 386.6332,522.8698 375.2098,512.7818 362.9349,501.3422 352.4606,491.0887 342.1186,480.3717 331.6757,468.9603 321.1689,456.892 311.8868,445.6824 302.9279,434.2117 294.212,422.3675 285.7919,410.2052 277.9286,398.1218 270.782,386.405 264.2014,374.7383 258.1149,363.0091 250.9966,347.7945 244.7256,332.5015 239.25,316.875 235.1802,302.696 232.0251,288.3593 229.9285,274.3701 228.9024,260.844 228.9464,247.8783 230.0483,235.5532 232.2112,223.8882 235.4137,212.8853 239.689,202.365 245.0325,192.4224 251.4396,183.1524 258.6398,174.9201 266.8252,167.4908 276.2465,160.7718 286.5834,155.0395 297.7648,150.3145 309.6897,146.6417 322.2573,144.066 335.3664,142.6322 348.5,142.375 362.2027,143.2508 376.4843,145.2778 391.2234,148.5002 405.9124,152.8355 420.0486,158.0905 433.8673,164.3182 446.915,171.2891 460.5117,179.7246 473.4669,188.9315 482.5064,196.1025 491.1484,203.599 499.3701,211.384 507.1486,219.4205 514.4611,227.6714 521.3816,236.2248 528.1474,245.389 534.5998,254.9837 540.5007,264.6497 546.0388,274.6875 551.0157,284.7273 555.5847,295.0636 559.7063,305.649 563.3005,316.2684 566.6434,327.6855 569.4149,338.8516 573.1306,358.5648 575.4093,378.6827 576.3265,400.6091 575.8175,422.8715 574.2391,442.3215 571.5896,463.1895 569.0411,478.7062 561.4471,519.9938 559.5807,532.0729 557.8187,547.6459 557.2835,559.9037 557.4257,566.5792 557.925,572.7843 560.2756,586.7391 563.4423,597.2227 568.5105,609.277 574.625,620.375 579.7036,628.0648 588.5133,639.3826 596.933,648.746 607.7646,659.478 619.7091,670.0138 631.5338,679.5892 645.3861,689.5926 660.3673,699.5344 678.3148,709.9456 691.9436,716.988 707.0156,723.6808 719.5086,728.3163 730.1663,730.9625 734.4834,731.4452 737.4352,731.3354 740.0679,730.5941 741.5175,729.4268 742.0187,728.373 742.1138,727.0969 741.2066,724.1953 738.7585,720.2879 734.9902,715.867 730.1121,711.1125 724.4512,706.2614 708.1246,693.8615 688.4663,680.4681 663.7113,664.8995 637.531,649.224 566.6774,607.8418 540.022,591.1061 523.8756,580.0527 512.974,571.471 503.637,562.5418 500.6934,558.9553 498.423,555.37 497.2014,552.4387 497.079,550.1222 497.4795,549.1488 498.1226,548.5102 499.9704,548.1309 502.4631,548.7167 505.7894,550.4925 508.6378,552.6029 511.6112,555.5503 515.5483,560.3563 521.6879,569.6194 527.152,579.1176 536.4531,596.4838 546.3086,613.0225 553.6543,623.7988 563.5973,636.3979 577.5852,651.9036 589.2721,663.0901 604.1723,675.9481 624.2959,691.3339 635.1135,698.8485 648.0518,707.3177 666.9548,718.5725 691.6096,731.7138 702.692,736.9549 714.5221,742.0845 725.3303,746.3693 734.7373,749.6333 744.4488,752.4576 753.0056,754.3806 759.9769,755.3751 765.7117,755.5033 770.2883,754.7635 772.0673,754.0537 773.4669,753.1097 774.5802,751.7045 775.0952,749.8952 774.944,747.7437 774.2371,745.4851 771.1286,740.0909 765.6436,733.5903 758.2883,726.6137 748.3205,718.3669 736.4892,709.4641 723.0964,700.1171 697.8457,683.9151 665.076,664.4363 637.248,648.6772 566.9024,609.7922 536.9574,592.6706 511.5929,576.841 500.2538,569.1101 491.5305,562.6807 482.3817,554.9717 474.8537,547.2966 469.6529,540.3712 468.0306,537.3619 466.8621,534.3373 466.1991,531.1486 466.234,528.247 467.1647,525.6282 468.7339,523.7766 471.0432,522.4557 473.8203,521.9863 476.8691,522.5 479.7168,523.8125 481.8459,525.5123 483.6361,527.5403 484.8392,529.5247 485.9839,532.5105 486.5552,535.2087 486.6865,538.3511 486.4139,541.0662 485.7578,543.3967 484.7151,545.801 483.2626,548.0724 481.6949,549.7912 479.8239,551.2265 477.4501,552.5214 474.9522,553.3747 471.625,554.0 468.8574,554.1441 463.37,553.5682 457.3391,552.1871 449.385,549.3795 442.6119,546.3688 434.1389,541.7949 424.5707,536.0789 415.825,530.2043 405.6655,522.8124 388.9755,509.2653 370.1758,492.4057 353.336,475.6077 336.6497,457.4137 321.4223,439.0017 306.4731,419.0308 293.952,400.5174 282.7417,381.804 274.7503,366.8272 267.6615,351.9843 262.0634,338.6019 257.3235,325.2678 253.2656,311.3544 250.1858,297.6959 248.0471,284.0283 246.9995,271.3794 247.0081,259.2561 248.067,247.3705 250.1214,236.209 253.2171,225.4941 257.226,215.6644 262.1008,206.7171 268.0379,198.356 274.9687,190.7048 283.1326,183.6047 292.2355,177.4219 302.2129,172.2355 312.6153,168.248 323.8262,165.2937 335.9556,163.3857 348.2153,162.6178 361.2113,162.9436 374.4386,164.4029 387.3651,166.9033 400.4082,170.5087 413.521,175.1787 426.7613,180.9542 439.6566,187.6444 452.0911,195.1711 464.2523,203.6835 472.25,210.0 480.3144,217.0096 487.9764,224.3034 495.2293,231.8469 502.3115,239.8964 508.9392,248.1385 515.1049,256.5346 520.9958,265.3518 526.375,274.25 531.6599,283.947 536.3964,293.6208 540.7519,303.6032 544.564,313.5096 547.9648,323.6618 550.8344,333.6756 553.2953,343.9573 556.7874,363.4459 558.8625,383.3444 559.5082,403.5835 558.7998,425.0894 557.1825,442.7949 554.306,463.2947 551.4042,480.0748 543.6704,520.4235 541.3626,534.8169 539.8716,547.3074 539.1836,561.0859 539.4231,567.9863 540.2515,577.3422 541.2463,583.455 542.7093,589.7748 544.6532,596.2932 547.6271,604.1794 550.2012,610.0561 553.5339,616.3992 559.9743,626.9812 568.8809,638.9754 581.9898,653.6304 590.8588,662.3642 605.637,675.2805 622.0003,688.0532 636.5849,698.4812 654.8776,710.2751 673.2499,721.0219 693.7673,731.685 711.3862,739.676 729.3713,746.6463 743.997,751.164 750.796,752.706 756.627,753.632 761.75,754.0 765.7991,753.781 769.0688,752.9715 771.4287,751.5523 772.5232,750.0761 772.9485,748.5698 772.8273,746.4237 772.1519,744.3006 768.8892,738.7356 763.3542,732.2194 756.1143,725.2953 747.2031,717.8981 735.1931,708.8676 721.1747,699.0763 697.0783,683.5222 667.9111,666.1778 634.6822,647.28 568.8733,610.7509 534.0043,590.6352 511.6124,576.5613 502.0159,569.9296 493.5849,563.6443 484.499,556.0684 477.1727,548.7153 471.894,541.8037 470.1145,538.6361 468.9574,535.7601 468.2731,532.5787 468.3323,529.7424 469.0569,527.5177 470.7083,525.4537 473.2249,524.1289 475.9829,523.8213 478.3708,524.2432 481.4644,525.696 483.2972,527.0607 485.101,529.0111 486.6208,531.2172 487.75,533.625 488.7804,537.0185 489.2228,539.7292 489.2343,543.2884 488.7302,546.3737 487.7523,549.406 486.5657,551.8376 484.9051,554.0384 482.9434,555.9102 480.7167,557.4307 478.402,558.4696 475.3041,559.2939 472.4182,559.6592 466.4197,559.367 460.4424,558.2037 453.166,555.7842 445.4333,552.4631 437.0577,548.1546 429.1435,543.5 418.8237,536.6871 408.4645,529.3103 388.2803,512.9942 371.8475,498.4282 352.3609,479.1653 335.5409,460.9066 318.8617,440.9466 303.3293,420.5081 289.9537,400.7019 277.7937,380.3343 269.8842,365.4742 263.1298,351.171 257.1945,336.7457 252.147,322.3481 247.9462,307.7433 244.8271,293.6961 242.8906,280.8564 241.9263,268.0629 241.9763,255.8113 243.0514,243.8186 245.122,232.5478 248.2557,221.716 252.4202,211.6246 257.4955,202.4243 263.5661,193.8583 270.5973,186.0108 278.8555,178.7305 287.7352,172.6061 297.3496,167.5091 308.1236,163.264 319.6414,160.0733 331.7817,157.9605 344.4232,156.9495 357.4445,157.064 370.3193,158.2724 383.746,160.6502 397.4531,164.1628 411.0659,168.7131 424.4639,174.2423 437.5269,180.6918 450.1344,188.0026 462.2616,196.1801 471.0021,202.8048 479.3686,209.7551 487.6253,217.2637 495.4511,225.054 502.8311,233.0917 509.75,241.3424 516.4063,250.0651 522.4326,258.782 528.4826,268.4392 533.9661,278.1228 539.0686,288.1514 543.6051,298.1498 547.7251,308.4297 551.3951,318.9499 554.4611,329.21 557.2773,340.3529 561.03,359.9248 563.3478,379.9235 564.2397,400.9895 563.7192,422.3637 562.1913,440.4372 559.074,464.0746 556.7545,477.9601 549.0765,518.8643 546.4041,535.9387 545.0734,548.3085 544.6067,561.0342 544.8853,568.3433 545.6576,576.0306 546.6202,582.0228 548.0672,588.2629 549.9479,594.8332 552.0041,600.541 555.875,609.375 558.6975,614.9399 565.9258,626.6982 573.5337,636.8859 583.1682,648.0699 595.0021,659.9918 606.7022,670.5381 620.1655,681.5065 634.4347,691.9997 650.3147,702.795 666.9092,712.8065 685.8693,723.2082 703.3178,731.6533 719.273,738.3755 734.037,743.3056 741.0684,745.1354 747.0079,746.3175 751.7839,746.8349 755.8906,746.7971 759.1977,746.1814 761.5754,744.9653 762.5947,743.785 763.087,742.4213 763.1009,740.535 762.608,738.6007 760.1157,733.9491 755.4668,728.2719 748.3569,721.4119 739.2449,713.7068 728.7652,705.664 716.9338,697.2896 692.4314,681.4532 662.388,663.3192 567.4797,609.5247 544.6622,596.1839 520.3698,580.9372 511.2151,574.6973 502.9913,568.6216 493.8054,561.0278 486.3615,553.8158 481.575,547.891 478.545,542.453 477.6075,539.7244 477.3163,537.3262 477.7211,534.9968 478.875,533.125 480.3796,532.162 482.6423,531.7374 485.2679,532.1053 488.0541,533.1797 490.375,534.75 493.8939,538.2145 495.5,540.5 498.1019,545.2685 500.9804,554.1991 502.2278,563.203 502.1642,569.9111 501.7218,574.6365 500.9392,578.664 499.3935,583.81 497.2431,587.9744 495.375,590.5 493.0304,592.5302 490.2927,594.0255 487.8558,594.8742 484.6861,595.4533 481.8597,595.5928 478.4461,595.3379 471.8663,593.9748 462.8581,590.6318 453.7665,586.3111 442.8375,580.3186 430.8493,572.6595 417.8106,563.682 405.5979,554.4911 392.0785,543.727 380.3613,533.7179 367.3969,522.0329 354.8937,510.2939 343.2578,498.7498 331.0809,486.0179 318.6723,472.4 308.6621,460.901 298.8449,448.9514 289.4361,436.8229 280.0309,423.9926 270.9064,410.8131 262.1207,397.3594 254.4547,384.7734 247.4422,372.3699 238.7426,355.4449 231.0981,338.6169 224.4291,321.6565 219.0761,305.4036 214.8779,289.2704 211.9421,273.7874 210.1847,258.7067 209.6184,244.1358 210.2436,230.166 212.011,217.1485 215.0227,204.5155 219.2904,192.3685 224.8141,180.8279 231.3764,170.3205 239.1218,160.6078 247.7625,152.0523 252.5,148.125 257.7703,144.2689 268.873,137.5521 280.9854,131.9213 294.3511,127.3176 308.1448,124.0307 322.5876,121.9704 337.5606,121.1831 352.5445,121.6803 368.5578,123.5008 384.7021,126.5824 400.8344,130.8668 417.1721,136.4316 433.1949,143.1307 448.4104,150.7176 463.1993,159.3659 477.5787,169.0469 487.5455,176.5533 497.0812,184.4104 506.447,192.8414 515.3207,201.566 523.685,210.5437 531.7521,220.0158 539.2415,229.6697 546.3395,239.7353 553.1344,250.3284 559.4915,261.2886 565.2053,272.24 570.4494,283.4876 575.1919,294.987 579.2928,306.3547 582.875,317.875 586.1648,330.383 588.5869,341.409 590.527,352.1647 592.1139,363.3752 593.2677,374.6034 593.9946,385.7972 594.3165,397.0912 594.2715,409.493 593.8368,421.6753 592.5188,439.3226 590.3722,457.3033 586.716,480.6941 579.7016,518.3445 576.9126,534.8271 575.0036,549.9716 574.2418,563.39 574.6242,575.2439 576.1005,586.7252 578.8154,597.3354 582.8822,608.2044 587.0521,616.6956 591.6644,624.519 597.3737,632.6176 604.525,641.5921 611.6759,649.4028 620.6965,658.3045 629.5005,666.1183 640.0376,674.7296 650.8029,682.5594 664.6206,691.7215 675.9235,698.3815 687.1705,704.2687 697.6508,708.8401 706.598,711.8858 709.8623,712.562 712.9502,712.7974 715.2178,712.4819 716.4938,711.6766 716.9099,710.0774 716.3749,708.1221 714.9387,705.6619 712.4963,702.6936 704.0991,694.7669 692.6319,685.8008 675.1721,673.6088 657.8509,662.2466 627.7203,643.6106 588.2966,619.7686 556.9623,599.832 541.5986,588.9661 532.8003,582.0848 524.8185,574.6637 522.6627,572.0214 521.278,569.6636 520.7813,568.1356 520.9636,567.441 521.9967,567.1425 523.6239,567.6638 526.8329,569.5958 532.9388,574.8927 542.2162,585.1798 563.6572,611.7398 572.47,622.205 579.5633,630.1171 590.3736,641.2538 599.1395,649.6844 611.5763,660.7548 621.2689,668.6011 635.2894,679.3407 649.3772,689.0389 664.0751,698.3277 680.4339,707.4125 693.664,713.897 709.0,720.125 718.6545,723.0275 723.4244,723.8718 726.9994,724.0487 729.7809,723.5618 731.4096,722.4501 731.9415,721.3539 732.0206,720.3454 731.2812,717.8491 729.1312,714.5288 725.7278,710.5914 721.0228,705.9942 715.4056,701.1243 700.6533,689.8571 682.6701,677.4332 662.4842,664.5633 635.2662,648.0168 575.9628,612.913 558.6248,602.2095 543.9972,592.7162 529.8954,582.8128 519.8924,574.7413 511.7395,566.7559 509.0854,563.4572 507.1663,560.3083 506.4814,558.4603 506.6719,556.7812 507.7624,555.9423 509.3378,555.9267 511.1778,556.4752 513.25,557.625 516.6822,560.1367 519.4079,562.6146 525.3886,569.4804 531.0516,577.1405 555.1032,612.5823 565.6356,626.2218 576.2245,638.4073 586.4247,648.8947 600.7669,662.3214 615.8961,675.0453 629.6885,685.4668 648.6004,698.4482 670.6046,711.8168 687.7738,720.9904 706.9534,729.9288 715.6282,733.4268 723.9523,736.3735 732.0397,738.8006 738.7634,740.3715 744.6017,741.1766 749.4141,741.1794 752.733,740.4192 754.7822,738.8726 755.3611,737.5688 755.478,736.256 754.65,733.026 752.3035,729.0109 748.5847,724.5208 742.9706,718.9274 735.7111,712.5561 727.5339,706.0391 718.0081,699.0336 695.0628,683.6835 666.8153,666.1861 636.4921,648.4558 565.8003,608.1118 545.9827,596.2732 529.25,585.75 513.8617,575.1373 500.8798,564.8187 496.1954,560.5696 492.2824,556.5139 489.0865,552.5897 486.5727,548.7161 484.7083,544.088 484.5018,542.1636 484.7992,540.3364 485.3442,539.2965 486.5215,538.3238 488.0484,537.8645 490.0846,537.9244 494.0613,539.2837 497.8059,542.165 501.2638,545.8616 505.3355,551.8683 509.0214,559.888 511.9688,568.2656 521.4256,603.5833 525.4491,615.4722 529.1628,624.3468 533.5964,632.7614 537.1544,638.5443 542.2612,645.7659 553.0721,658.4999 567.3443,672.6799 583.8255,686.6872 605.062,702.4473 619.0402,711.8685 638.0237,723.8497 652.44,732.1503 672.6913,743.1266 687.0154,750.4243 702.1629,757.5452 718.647,764.6975 733.1603,770.4469 748.4868,775.8644 763.524,780.4763 776.4375,783.7504 787.9929,785.8349 798.3277,786.7392 806.6749,786.3672 809.875,785.75 812.7161,784.7688 815.0297,783.4127 816.5819,781.9176 817.7713,779.8553 818.2891,777.4145 818.0854,774.594 817.2758,771.8137 815.8419,768.741 813.75,765.375 807.6035,757.7884 798.8373,749.0538 787.4899,739.3053 773.987,728.9594 758.7345,718.3223 741.8874,707.396 722.7917,695.6585 701.9675,683.4316 679.346,670.6785 636.0587,647.4492 534.3213,594.4628 511.914,582.2564 492.5925,571.1637 471.6802,558.1716 455.9629,547.0521 449.3001,541.6476 443.3833,536.3014 438.2745,531.0655 433.8537,525.7845 429.2712,518.721 427.6771,515.2491 426.598,512.0007 425.9178,508.657 425.6893,505.3063 425.8819,502.3336 426.5726,499.1033 427.8325,495.8652 429.457,493.0803 431.754,490.285 434.4902,487.7608 437.4965,485.6386 440.8611,483.9491 444.25,482.875 446.375,482.875 443.2441,482.9316 437.7575,481.8489 428.2069,478.1202 419.0242,472.9982 412.7259,469.039 407.4075,465.2707 395.1151,455.3977 384.4613,445.4391 371.9589,432.4287 360.4392,418.7403 350.9822,406.1276 342.2237,392.8711 333.75,378.25 327.2047,365.1315 321.6075,351.7277 317.1404,338.3748 314.0807,325.8707 312.2024,313.323 311.6434,302.8593 312.0693,293.4009 313.5322,284.1523 316.0375,275.3734 319.4065,267.5592 323.7826,260.3869 329.1139,254.0641 335.3743,248.6276 342.487,244.1927 350.0007,240.9999 358.6597,238.7322 367.8345,237.5786 377.0212,237.5604 386.4379,238.6624 395.9737,240.897 405.8423,244.2288 412.1379,246.8938 418.3415,249.9533 424.4075,253.3945 430.2905,257.2049 436.7271,261.926 442.9036,266.9703 448.8121,272.333 454.1534,277.7129 459.1806,283.3363 463.6341,288.8842 472.8662,302.3167 480.5185,315.9028 483.8517,322.945 486.6686,329.7569 491.7969,345.1253 495.3884,360.4758 497.7112,377.3178 498.5999,393.946 497.9655,410.5396 496.1061,425.4156 492.3965,441.6853 490.1654,448.9848 487.6449,455.9223 483.1617,465.8724 477.8343,474.4208 474.8197,478.2193 471.4474,481.8091 468.2002,484.6544 465.1278,486.7911 461.7967,488.5899 458.6074,489.8443 454.9405,490.7554 451.0333,491.2247 447.038,491.2859 442.9406,490.928 438.5888,490.1348 433.8519,488.8455 424.0547,484.791 413.2133,478.9059 399.9392,469.7627 389.6309,461.4069 375.6286,448.2569 364.9072,436.9962 352.6948,422.6073 341.87,408.3036 334.645,397.622 327.6609,386.3142 321.845,375.9823 316.6498,365.5739 311.7894,354.4426 307.6303,343.3782 304.268,332.7688 301.7406,322.6184 299.9263,312.4368 298.9004,302.6969 298.6277,293.1118 299.1035,284.3448 300.3617,275.8002 302.4186,267.6123 305.2851,259.8674 308.7863,252.9671 313.2964,246.2983 318.4727,240.4805 324.4003,235.335 331.0103,230.9312 338.2332,227.3381 345.6188,224.7332 353.6269,222.9289 362.3808,221.9512 371.474,221.8843 380.7902,222.728 389.8196,224.3911 399.3755,227.0379 409.1981,230.6159 418.8894,235.0146 427.997,240.001 436.7619,245.6875 443.2645,250.5637 449.7677,255.9921 455.9889,261.7209 461.9007,267.7201 467.4759,273.9596 472.6871,280.4094 477.2968,286.7346 481.9861,293.8835 486.4103,301.2986 490.6156,309.1117 494.38,316.9558 497.6917,324.7992 500.5386,332.6102 503.2396,341.3379 505.5308,350.075 507.3867,358.6473 508.8855,367.3905 510.0,376.25 510.7948,385.9539 511.1591,395.6107 511.098,404.1208 510.6517,412.6518 509.7213,422.374 508.429,431.873 506.7221,441.4271 504.5732,451.0922 502.2236,459.8387 499.4518,468.4707 496.2655,476.9564 492.9268,484.5026 489.3886,491.2842 485.661,497.1892 479.7615,504.367 476.5715,507.3263 473.5546,509.6134 470.3238,511.4981 466.8569,512.9882 463.6357,513.976 460.0312,514.5625 455.8073,514.7037 451.3105,514.4172 446.9974,513.7111 442.4056,512.5445 433.2925,509.1934 422.2834,503.5357 410.7332,496.2481 396.3532,485.5528 384.1127,475.1432 370.5609,462.3429 357.8906,449.0 344.73,433.6957 334.2144,420.3108 323.9778,405.802 315.6987,392.8869 308.3413,380.3391 302.0688,368.3715 296.3016,355.9383 291.2862,343.5112 287.057,331.1575 283.8743,319.5555 281.4891,307.8712 280.0002,296.5874 279.3755,285.4257 279.6399,275.002 280.7942,265.2793 282.8705,255.894 285.8687,246.9421 289.7888,238.5195 294.4195,231.021 299.9099,224.1825 306.5485,217.8326 314.0491,212.3325 322.3289,207.7434 331.3049,204.1263 340.5,201.625 350.2849,200.0903 360.8867,199.5249 371.8297,199.9972 382.5918,201.4338 393.423,203.8298 404.2603,207.1986 415.3928,211.6577 426.296,217.008 436.8708,223.1728 447.3269,230.3022 455.1735,236.417 462.7516,243.0301 470.0251,250.0501 477.1391,257.6405 483.7822,265.4933 489.9309,273.5643 495.5615,281.8092 500.7629,290.3778 505.6841,299.5214 510.0442,308.686 514.1422,318.5362 517.6527,328.3203 520.7041,338.3344 523.3724,348.9115 525.5044,359.4213 527.1414,370.0062 528.2774,380.6076 528.9251,391.3844 529.1151,402.7971 528.8074,414.3628 528.0044,425.6298 526.6015,437.9067 524.7991,450.1478 522.7406,461.0622 519.4995,474.9999 516.2651,486.9368 510.9867,504.1364 505.6033,519.2963 500.8598,530.5488 497.919,536.4978 493.5263,543.7577 489.0938,549.1406 485.75,552.125 482.9245,554.054 479.5118,555.6331 475.9139,556.634 471.9057,557.1096 466.9151,557.0499 462.7247,556.4633 457.721,555.2458 452.7788,553.6679 447.4334,551.5075 434.209,544.921 417.858,534.5702 404.7557,525.0353 387.9324,511.4276 373.0837,498.1232 354.6372,480.1121 339.1003,463.5496 324.2311,446.2202 310.4699,428.7022 297.9446,411.0883 286.1633,392.7143 277.2554,377.3381 269.8345,363.0566 263.0345,348.2406 257.1182,333.3527 252.2632,318.8804 248.336,304.43 245.642,291.0174 243.9366,277.5986 243.2971,264.6713 243.7006,252.3314 245.1761,240.2972 247.6976,229.0207 251.2622,218.5369 255.9254,208.6042 261.6697,199.3208 268.2255,191.0658 276.0444,183.3449 284.8244,176.6106 294.5252,170.9115 305.106,166.2364 316.816,162.5258 328.8262,160.0417 341.3637,158.6909 354.3121,158.5093 367.8541,159.5505 381.6366,161.7703 395.4917,165.1157 409.2794,169.5392 422.8597,174.9929 436.0929,181.4294 448.5425,188.6087 461.1427,197.0275 469.7826,203.5158 478.3523,210.5872 486.5179,217.98 494.5195,225.9269 501.8042,233.8604 508.8539,242.2883 515.4084,250.9168 521.5828,259.8485 527.4415,269.195 532.9423,278.9312 537.8837,288.6887 542.426,298.7667 546.409,308.789 550.0467,319.3079 553.3077,330.2311 556.1033,341.3016 559.7637,360.4901 562.0,380.125 562.9047,401.5749 562.336,423.349 560.6931,442.5235 558.0975,462.2466 547.7096,518.5199 545.1985,533.9881 543.6676,547.8799 543.0991,559.9851 543.3599,567.1165 544.109,575.72 545.163,582.42 546.7195,589.3744 548.555,595.596 550.9357,602.0208 553.787,608.5454 557.0446,614.8729 563.5489,625.5656 572.76,637.9985 581.0582,647.5709 592.2166,659.0788 605.5517,671.0336 618.448,681.5226 635.0102,693.7507 649.8873,703.6704 668.0762,714.6979 685.8509,724.33 704.4485,733.3152 721.6654,740.426 736.6447,745.4485 742.8509,747.0193 748.9688,748.1406 754.3633,748.6593 758.8576,748.5531 762.0591,747.865 764.3663,746.4847 765.3922,744.9906 765.741,743.443 765.5952,741.6188 764.9227,739.5167 761.9232,734.5293 756.8833,728.667 749.7453,721.8494 740.8887,714.4578 730.6174,706.7112 717.2177,697.3311 693.4348,681.8362 667.4761,666.12 629.3524,644.2315 569.9742,611.0712 541.8927,594.6894 518.5022,580.0299 508.7885,573.3471 499.9783,566.8116 490.9042,559.3639 484.3112,552.9488 479.194,546.6326 475.8685,540.7528 475.0466,537.8548 474.9525,535.1318 475.5397,532.8383 476.743,531.172 478.759,530.006 480.9651,529.6761 483.6775,530.0442 486.0,531.0 488.5706,532.7332 490.8615,534.9767 493.3544,538.4769 495.0605,541.6325 496.5623,545.5991 497.4348,548.8823 498.219,554.725 498.3647,559.1007 498.0714,563.3704 497.2361,567.5509 496.1533,571.1663 494.6339,574.4188 492.625,577.25 490.4219,579.4219 488.1192,580.9345 485.0285,582.2471 479.7894,583.2523 474.1725,582.8536 466.951,581.3079 458.1199,578.1357 449.5388,574.056 438.5614,568.0072 428.5214,561.6453 416.5229,553.3725 406.1206,545.5741 394.2936,536.1671 374.9992,519.5953 351.6657,497.4809 331.885,476.7783 311.7703,453.5768 294.2373,431.2976 278.1512,408.5194 270.6102,396.8509 263.637,385.3576 254.8098,369.4847 246.9206,353.6054 239.8955,337.5461 233.9525,321.7976 229.0,306.125 225.3947,291.7751 222.7501,277.3091 221.1619,262.852 220.7183,249.2777 221.3899,235.9303 223.1891,223.2725 226.0199,211.6303 230.0835,200.238 235.1434,189.7566 241.2957,179.9137 248.5278,170.8009 256.8268,162.5097 266.1801,155.1314 276.5939,148.745 287.7709,143.5118 300.1225,139.2365 313.2208,136.1105 326.9443,134.1604 340.7701,133.417 354.96,133.8346 369.4448,135.435 384.3527,138.2358 399.2565,142.1537 414.036,147.1295 428.9214,153.2619 443.4209,160.3792 457.0791,168.2162 467.524,175.0341 477.7521,182.4222 487.5369,190.2025 497.1424,198.5936 506.2337,207.3136 514.7889,216.3175 522.7863,225.5605 530.4197,235.2863 537.5553,245.3787 544.3913,256.0933 550.7686,267.1829 556.4788,278.2663 561.6931,289.6511 566.3756,301.2912 570.4934,313.133 573.9708,324.9417 576.7616,336.2253 579.0234,347.2238 580.855,358.3093 582.2926,369.8094 583.2743,381.2941 583.8209,392.719 583.9751,404.8648 583.7133,417.2946 582.2764,438.4331 579.4563,461.1168 576.4066,480.4476 569.351,518.8868 566.6785,535.625 565.1616,550.7058 564.738,562.6509 565.4918,576.31 567.2344,586.5968 570.7898,598.932 575.7658,610.5701 581.2483,620.4327 588.4624,631.0402 595.1588,639.4144 604.7383,650.0778 613.0322,658.2038 625.5205,669.2553 635.2088,677.0412 647.0884,685.8754 659.4313,694.1297 674.9908,703.4504 687.6883,710.1919 700.6636,716.2215 711.6445,720.3336 721.125,722.75 724.4366,723.1299 727.1669,723.0282 729.2165,722.445 730.4855,721.3802 730.8379,719.3909 729.875,716.6435 727.8008,713.4376 724.503,709.6114 720.375,705.625 714.0117,700.1641 699.1385,688.7552 683.1755,677.8557 658.5546,662.187 575.9236,612.8237 560.1124,603.0044 545.312,593.3774 531.7352,583.8261 519.7094,574.1812 512.9224,567.5485 508.3608,561.422 507.6094,559.1719 507.7668,557.6392 508.7168,556.7834 510.6138,556.7496 512.8196,557.6783 515.9089,559.6587 521.3652,564.6394 524.8453,568.4685 530.6434,576.0276 550.7417,605.4298 560.3099,618.3264 566.5939,626.1072 576.8279,637.8746 589.6253,651.1065 602.0919,662.4886 615.9928,674.1878 633.5808,687.4326 649.6536,698.2578 669.7376,710.5185 688.9819,720.7664 705.7636,728.5661 724.148,735.4736 730.7528,737.4953 737.081,738.9713 742.9845,739.7862 747.5011,739.7931 750.6337,739.0897 752.7217,737.57 753.3866,736.2091 753.5318,734.8946 752.7055,731.668 750.4822,727.9463 746.6476,723.3036 741.2521,717.8949 734.2957,711.8002 726.6172,705.7313 717.1117,698.7961 695.1649,683.9113 671.4541,669.0893 633.2302,646.6594 566.3431,608.337 547.0833,596.8579 532.9882,588.0204 516.5206,576.7003 503.2151,566.3066 498.4252,561.9853 494.1127,557.5618 490.7223,553.4638 488.3283,549.8683 486.5307,545.5176 486.2785,543.6537 486.4811,541.9312 487.0152,540.8092 488.1415,539.7897 489.601,539.2944 491.0206,539.2695 494.7401,540.4771 498.8347,543.2509 501.7297,546.057 505.6389,551.2454 510.2129,559.8347 514.1806,569.5694 523.2736,597.8072 526.8287,607.5602 530.8146,616.6534 535.8877,626.4401 539.4138,632.1901 545.069,640.3542 552.5935,649.8949 557.6363,655.5563 566.2319,664.2276 578.325,675.3564 591.4757,686.2237 610.5904,700.4093 624.0676,709.5696 640.8593,720.2757 654.4174,728.2815 669.7876,736.7663 684.0115,744.1692 698.6447,751.1758 714.9261,758.3681 730.2269,764.5891 744.2428,769.6179 757.5945,773.7608 770.5867,777.0937 780.7487,778.9769 790.2653,779.8487 797.9128,779.5342 801.0815,778.9255 803.5293,778.0975 805.6006,776.9346 807.0418,775.5918 808.1521,773.7187 808.65,771.4855 808.4938,768.8937 807.6422,765.9443 806.0535,762.6386 804.0262,759.4548 797.5591,751.6978 788.2567,742.7085 776.5077,732.8745 762.5726,722.422 746.6966,711.5539 730.6883,701.3391 712.5138,690.2709 671.9058,666.9621 640.754,650.1022 547.6071,601.0899 515.3008,583.3193 498.7551,573.6111 484.3312,564.6174 471.813,556.1924 461.9231,548.8113 450.9097,539.198 446.2599,534.3592 442.5403,529.8679 439.5868,525.5967 437.3709,521.5303 435.7726,517.4273 434.8788,513.3935 434.75,509.0 435.4794,505.1474 437.2247,501.2112 439.7962,497.8039 443.288,494.9265 447.2281,493.0951 451.348,492.2979 453.3565,492.6389 454.3044,493.217 454.0312,494.2969 452.4762,495.0996 450.5312,495.4219 447.375,495.375 442.903,494.5912 435.1174,492.151 428.1223,488.9211 419.9926,484.4543 412.1493,479.3611 403.6796,473.1804 395.4939,466.5461 386.4934,458.6301 379.0305,451.4591 371.2864,443.4143 362.9717,434.1832 355.7949,425.6053 348.3654,416.0295 340.952,405.7587 333.8766,395.1355 327.3407,384.1833 321.1914,372.6562 315.6906,361.0578 311.3477,350.498 307.7167,340.0444 304.6962,329.4461 302.3387,318.7991 300.8551,309.2023 300.1388,299.8197 300.1957,290.601 301.0504,281.6449 302.6408,273.3994 304.9256,265.8232 308.1095,258.4176 311.8961,251.8451 316.6333,245.541 322.1186,239.9437 328.1946,235.2287 335.0605,231.2253 342.9208,227.902 350.994,225.5968 359.5135,224.1938 368.1638,223.739 377.1563,224.1862 386.7095,225.576 396.3458,227.8811 405.5752,230.9346 414.658,234.7835 424.0074,239.6436 433.0505,245.2057 442.044,251.6552 448.2627,256.7203 453.9155,261.8223 459.2905,267.1898 465.0445,273.5241 470.4401,280.0635 475.4682,286.7829 480.1193,293.6576 484.3842,300.6628 488.2535,307.7735 492.2306,315.9946 498.6474,331.8152 503.3867,347.39 506.8327,364.0758 508.1406,373.2031 509.0064,382.0421 509.4562,390.6188 509.5408,400.2034 509.2543,409.5891 508.6045,418.4701 506.1473,435.9855 504.2458,445.2859 501.9318,454.5142 499.3778,462.9892 496.5293,470.9681 493.414,478.4521 490.0734,485.2768 486.2861,491.7982 482.667,496.9195 476.7938,503.2738 473.8013,505.7339 470.6275,507.8164 467.52,509.385 464.2969,510.5156 460.5133,511.3409 456.7658,511.7765 453.1864,511.7563 449.03,511.2848 440.32,509.202 429.6889,504.9279 420.5029,500.0695 407.1488,491.3643 397.1691,483.8215 382.6158,471.374 370.9692,460.2142 357.0359,445.4393 346.0603,432.7073 334.5971,417.937 323.4698,402.1129 315.9701,390.1936 309.0504,377.9423 302.5805,365.1507 296.8494,352.4008 292.4368,340.9799 288.6689,329.32 285.7128,317.9089 283.5169,306.4932 282.2271,295.8852 281.7878,285.321 282.2144,275.3161 283.5032,265.5859 285.6824,256.2383 288.6626,247.6667 292.2841,240.1378 296.9383,232.8265 302.6945,225.8795 309.3204,219.7046 316.7667,214.3785 324.5863,210.1612 333.2563,206.7707 342.5295,204.3247 352.3021,202.844 362.4704,202.3494 372.9306,202.8616 383.6241,204.3924 394.4372,206.901 405.2204,210.3387 415.8752,214.6626 426.3036,219.8301 436.3692,225.7723 446.7827,232.9303 454.3249,238.7964 461.8131,245.2643 468.903,252.0707 475.5583,259.1795 481.7427,266.5543 487.8431,274.6853 493.5351,283.0987 498.7195,291.6284 503.5658,300.5698 507.8646,309.5559 511.6158,318.5454 515.1454,328.3077 518.3298,338.4867 520.9549,348.467 523.1054,358.5945 524.693,368.4827 525.9136,379.6407 526.6025,390.5812 526.8001,401.7741 526.5,413.125 525.7041,424.9481 524.4688,436.3024 522.8049,447.2307 520.3867,459.8006 517.4743,472.3192 513.5157,486.4996 510.2116,496.8952 504.8226,511.9441 500.0886,522.955 496.4887,529.9523 492.5188,536.4117 488.1653,541.7432 485.2262,544.5471 482.1463,546.821 478.7411,548.5488 475.0823,549.8018 471.1593,550.4369 466.4275,550.5128 462.6028,550.1873 458.2413,549.3203 452.3736,547.6823 447.8843,546.0509 434.352,539.5656 421.7654,531.9833 407.2802,521.8735 391.7711,509.5977 376.3628,496.1249 360.1713,480.5259 344.682,464.3022 330.1908,447.5701 316.163,429.8455 304.103,413.1423 292.9198,396.0221 284.3765,381.5905 276.6483,367.1885 270.15,353.572 264.4199,339.8656 259.4052,325.834 255.4148,312.3114 252.3229,298.9143 250.3316,286.5011 249.2554,274.1316 249.1497,261.9132 250.0252,250.3219 251.914,239.0705 254.6864,228.8113 258.3958,219.2434 263.099,210.1985 268.7668,201.7617 275.6321,193.7458 283.1742,186.8114 291.592,180.7438 301.0025,175.5521 311.227,171.36 322.1721,168.1783 333.7169,166.0345 345.7403,164.9561 357.7174,164.9528 370.0201,166.0101 382.616,168.1339 395.6344,171.3586 408.5965,175.5811 421.3815,180.7438 434.2102,186.9693 446.2655,193.8622 455.3899,199.8239 464.5119,206.4612 473.2339,213.4956 481.8173,221.1447 489.9348,229.1256 497.567,237.3907 504.9234,246.1797 511.5953,254.9956 518.2185,264.6823 524.236,274.4554 529.8382,284.617 534.8225,294.7902 539.2042,304.9339 543.1153,315.3412 546.6997,326.5392 549.7778,337.8339 552.0514,347.7409 553.9517,357.7936 555.4539,367.9482 556.5075,377.8098 557.2067,388.472 557.528,399.3681 557.0289,421.1818 555.3283,441.3191 552.5582,461.9823 549.1859,481.1238 541.8837,518.0931 538.9437,535.5608 537.3126,550.8273 536.9369,563.5794 537.1123,570.3981 537.6855,576.4984 538.9572,584.6471 540.2654,590.2479 542.8698,598.7402 544.866,604.1019 549.0344,613.333 552.053,618.92 560.2345,631.48 570.523,644.5821 579.3518,654.1472 591.831,666.2189 606.375,678.625 621.1517,689.9607 638.1736,701.9375 655.1562,712.6544 675.1637,724.2031 695.2055,734.4969 713.3327,742.7146 731.6707,749.6725 747.8852,754.6181 754.801,756.121 761.1074,757.0167 766.616,757.2714 771.1384,756.8516 774.1158,755.8965 776.3528,754.1356 777.1822,752.547 777.4374,750.6267 777.0801,748.3745 776.2869,746.2443 772.9019,740.8129 767.1365,734.2018 759.3031,726.7824 749.6405,718.775 738.8117,710.6829 725.0463,701.1819 698.9297,684.3981 669.8808,667.0644 629.1317,644.1177 564.0275,608.2983 535.364,591.8482 509.7761,576.0705 499.9057,569.3412 490.9088,562.6593 480.7567,554.1963 473.2617,546.7812 467.8426,539.68 465.9301,536.2512 464.6475,533.1416 463.9444,529.9722 463.996,526.9079 464.8643,524.2418 466.537,522.1343 468.8023,520.6636 471.658,519.9808 474.8318,520.2784 477.6053,521.5905 479.4669,522.9693 481.0319,524.6777 482.6129,527.3178 483.5811,529.7612 484.0731,534.9 483.7111,537.2873 482.876,539.884 481.75,542.0 480.3196,543.7776 476.4924,546.4678 471.9576,548.0883 469.2441,548.4756 466.4289,548.4861 460.0597,547.6977 455.0473,546.5184 448.232,544.1271 441.7914,541.229 433.2739,536.6506 424.3105,531.3594 415.9587,525.7695 405.4239,518.1375 390.2476,505.9254 372.867,490.3993 357.6489,475.3999 342.1487,458.7087 328.43,442.5093 314.9697,425.0623 302.3503,407.1322 291.4719,389.9097 283.3869,375.65 275.9817,361.1164 269.5669,346.9289 264.316,333.3802 259.8618,319.5321 256.3831,305.8805 253.8975,292.5506 252.4042,279.5626 251.9769,267.3667 252.5634,255.7667 254.1657,244.4694 256.8156,233.5771 260.4028,223.5293 265.0368,214.0321 270.4256,205.67 276.7809,197.9832 284.6249,190.5566 293.1403,184.278 302.5231,178.9523 312.716,174.6549 323.3978,171.5103 335.047,169.3698 347.2193,168.3456 359.7852,168.4378 372.615,169.6463 385.5794,171.971 398.2888,175.321 411.3758,179.8304 424.2438,185.3145 437.1189,191.8896 449.5338,199.3468 461.3723,207.6124 469.1548,213.7556 477.1839,220.7207 484.8141,227.9723 492.0351,235.4751 498.8368,243.1942 505.4365,251.3898 511.5627,259.7408 517.3963,268.5122 522.8079,277.5493 527.9817,287.134 532.6118,296.7032 536.7164,306.2337 540.4376,316.052 543.7387,326.1238 546.4995,336.0689 548.8872,346.4171 552.2886,365.9303 554.2568,385.4446 554.8181,405.3563 554.0312,425.9671 552.2922,443.661 549.0894,465.8363 546.375,480.875 538.9193,517.9222 535.8076,535.9663 533.9973,550.9584 533.5132,561.7165 533.6634,570.1771 534.0751,575.5679 535.3735,584.8917 536.5759,590.4986 539.0782,599.3398 540.8629,604.3099 544.8738,613.4759 548.4351,620.1396 555.7571,631.7476 565.1146,643.8353 577.8622,657.6213 589.6438,668.7339 603.7988,680.7416 622.9469,695.1037 638.8229,705.8925 658.1801,717.9902 677.6339,728.8529 699.1179,739.6857 718.498,748.0778 737.8501,755.2341 746.5726,757.9101 754.4879,759.9476 761.8274,761.4219 768.125,762.25 773.3896,762.4184 777.4219,761.9832 780.9662,760.828 783.1816,759.1669 784.1862,757.4576 784.4996,755.6956 784.2335,753.4494 783.3059,750.8016 781.6991,747.7977 779.6147,744.7421 773.6376,737.8033 765.602,730.2093 755.5195,721.9338 742.8317,712.4647 728.4284,702.5045 702.4278,685.9673 666.0643,664.6801 630.4771,644.7783 560.4717,606.6602 529.1643,588.9048 515.5403,580.6871 502.9406,572.6156 492.1149,565.177 482.5365,558.0213 473.0783,549.928 465.7642,542.1758 462.7739,538.2691 460.3345,534.4525 458.8451,531.3841 457.8237,528.1982 457.3793,524.7301 457.7243,521.4354 458.9025,518.7389 460.668,516.7092 463.4647,514.9642 466.5252,514.1689 469.5911,514.434 472.562,515.6731 474.036,516.9178 475.5629,518.8422 476.2759,520.2593 476.7151,522.1419 476.8209,524.0838 476.5,526.0 475.7495,527.7783 474.6236,529.42 471.709,531.924 467.5928,533.5613 463.5954,534.0221 458.0856,533.7053 453.0066,532.711 446.7573,530.8293 441.2165,528.591 434.7231,525.4597 428.2625,522.0 421.3313,517.7908 406.2746,507.2978 392.3207,496.0602 378.2732,483.7985 365.2945,471.1926 351.6388,456.7716 339.4254,442.6276 327.2561,427.2345 316.2462,412.0812 306.2102,396.8102 298.327,383.5643 291.2212,370.4047 285.1921,357.98 279.8224,345.3738 275.2272,332.8197 271.4454,320.4288 268.5019,308.2973 266.4208,296.4873 265.2574,285.2372 264.9518,274.1068 265.5154,263.5676 266.9666,253.3231 269.2469,243.8078 272.3503,234.9282 276.4152,226.3631 281.3777,218.3488 287.2161,210.9766 293.9081,204.3377 301.1151,198.7391 309.2815,193.8595 318.4072,189.7639 328.2022,186.6063 338.5694,184.416 349.0175,183.2471 359.8204,183.0307 370.8695,183.7887 382.4372,185.556 394.0702,188.275 405.6641,191.9075 417.1143,196.4157 428.3163,201.7614 439.1592,207.9025 449.1672,214.4469 458.7522,221.5294 467.8723,229.097 476.4856,237.0965 484.5502,245.475 492.0243,254.1794 499.331,263.7565 506.039,273.5632 512.298,283.8157 517.8773,294.1399 522.9277,304.8195 527.2622,315.4676 531.295,327.1791 534.6829,338.9481 537.4492,350.8222 539.6435,363.1025 541.731,381.472 542.6006,400.2258 542.2358,417.5783 540.5764,437.2317 538.1844,454.828 534.5473,474.6517 520.5645,535.2234 516.2259,557.9735 513.8417,576.006 512.5321,594.2638 511.4168,631.8248 510.704,643.992 509.519,651.0645 508.4431,654.0528 507.0434,656.0619 505.1586,657.5613 502.8386,658.1618 500.395,658.2 495.5882,657.1662 489.9594,654.9719 483.4225,651.833 468.9563,643.5294 450.9662,631.8021 427.5138,615.1058 398.8399,592.6886 379.6649,576.7008 356.9571,556.7039 339.1903,540.1835 319.3799,520.6651 299.3596,499.848 283.1436,481.8703 267.4744,463.3177 252.2977,444.1403 237.5882,424.3015 225.9218,407.4603 214.9049,390.3414 204.6653,373.0959 195.4761,356.2025 187.034,339.1043 179.5674,322.2397 173.3593,306.3709 167.9591,290.2981 163.5112,274.3591 160.0505,258.6556 157.6482,243.6521 156.1957,228.6745 155.767,214.1647 156.3555,200.1793 157.9407,186.8653 160.5041,174.3013 164.2173,161.7113 169.0204,149.548 174.9134,137.8903 181.6816,127.1249 189.4784,116.9836 198.0295,107.8059 207.5494,99.3507 217.6527,91.9397 228.6572,85.3213 240.8153,79.396 253.7662,74.3686 267.4266,70.259 281.713,67.0866 296.5424,64.8711 311.8313,63.6322 327.0908,63.3832 338.1079,63.7909 348.8249,64.6496 359.6906,65.9806 371.0657,67.8504 382.4425,70.1891 393.7946,72.9803 405.0957,76.2076 416.3192,79.8544 427.4388,83.9045 438.7801,88.4906 449.9534,93.4708 460.9296,98.8268 471.6798,104.5407 482.1749,110.5943 492.7,117.1737 502.5873,123.8617 512.3107,130.9659 521.6623,138.3094 530.9515,146.1344 539.848,154.1691 548.6276,162.6675 556.9857,171.3401 564.9213,180.1616 572.6683,189.3971 579.9625,198.7366 587.0092,208.4475 593.5715,218.209 599.6483,227.9907 605.3744,238.0108 610.9129,248.5728 615.9434,259.0556 620.6408,269.815 626.6955,285.5531 631.9423,301.6998 636.3272,318.1507 639.8144,334.7832 642.4499,351.8583 644.2884,369.6698 645.2144,387.3459 645.25,405.1204 644.6828,418.7459 643.6264,432.3242 641.9689,447.1752 639.855,461.7435 636.8011,478.7268 632.8804,497.1332 628.3529,516.135 619.5977,550.3578 615.336,569.9895 613.7629,579.7177 612.8376,588.8009 612.5727,596.6459 612.9969,604.4618 614.5694,614.3872 617.3428,623.2097 621.4316,632.2802 627.3601,641.7223 630.9165,646.2099 636.4825,652.46 645.0719,660.5293 654.8943,667.8656 659.125,670.125 660.619,670.413 660.625,669.875 660.1555,669.1759 658.029,666.839 647.6344,658.6524 631.8573,647.4639 587.1467,617.3716 575.1389,608.5741 600.8867,631.6953 612.547,641.6576 624.976,651.4417 634.9042,658.6262 647.9787,667.1642 657.7577,672.2 661.3345,673.5691 662.3276,673.7288 663.2461,673.4629 663.3347,672.8279 662.7026,671.6421 660.0,668.75 653.3555,663.1426 643.3755,655.6821 630.2426,646.501 587.4906,617.7351 576.9459,610.1818 572.0547,606.3008 607.2566,637.8333 620.6097,648.6785 631.3729,656.8051 644.8138,665.9867 655.8477,672.4039 663.4931,675.8581 665.5156,676.2656 666.75,675.875 666.6574,675.0602 665.8426,673.6898 662.5195,670.2383 656.668,665.3609 647.5782,658.4788 628.7008,645.3659 585.2566,616.231 574.1812,608.2558 568.738,603.886 570.4096,605.0623 594.3096,627.0154 606.3935,637.662 617.5062,646.9935 630.8537,657.2078 644.2896,666.5339 655.923,673.5741 665.932,678.259 668.7639,678.9398 670.401,678.609 670.5,677.8125 669.924,676.611 666.0896,672.5725 661.0329,668.1983 651.9121,661.2295 634.7212,649.245 584.1265,615.5534 571.2764,606.2957 566.8169,602.8049 565.125,601.125 570.554,605.5808 602.5262,635.1666 613.834,644.8807 630.1183,657.638 644.0287,667.383 658.183,675.9432 665.5262,679.6868 669.2216,681.1878 673.4204,682.1716 674.2685,682.0509 674.7586,681.6586 674.7323,680.5969 674.1353,679.5474 670.6271,675.5709 664.0833,670.0235 655.5558,663.4756 636.6334,650.2645 584.3947,615.8972 569.699,605.387 563.9639,600.8955 560.9306,597.9815 564.5481,600.7267 570.7029,606.1644 593.3476,627.7681 606.4516,639.5555 621.0605,651.7327 634.1348,661.6893 651.1094,673.1554 664.0981,680.5233 669.4861,683.0439 674.8524,685.0741 677.8125,685.6562 679.395,685.2741 679.5783,684.6043 679.1338,683.2439 676.716,680.0829 669.8037,673.8427 662.7194,668.2989 643.4532,654.7198 590.4314,620.0526 575.1086,609.6041 561.9747,599.8895 557.25,595.75 556.375,594.6562 556.625,594.5 558.4844,595.8029 564.7485,601.316 588.6153,624.4548 609.9258,643.8643 631.3649,660.9534 646.4043,671.4741 658.5908,679.0636 664.2497,682.2542 673.0946,686.5931 677.4491,688.3384 682.625,689.625 683.9941,689.6035 684.8594,689.1719 685.1387,688.3418 684.5361,686.7481 680.6847,682.1583 674.3471,676.5961 664.6764,669.1119 640.1059,652.1719 597.07,624.5281 576.1562,610.6842 559.7407,598.721 553.298,593.2934 551.077,590.574 552.013,590.826 555.05,593.127 561.1963,598.6942 588.8393,626.0844 603.9036,640.1837 616.7308,651.2418 633.3765,664.2483 652.0349,677.0735 669.3441,686.9736 677.3547,690.7143 684.345,693.4581 688.7897,694.3455 690.25,694.25 691.1939,693.6857 691.3875,692.6023 690.774,691.014 689.1358,688.7373 686.4786,685.8684 679.637,679.7774 669.1701,671.7585 658.254,664.0055 645.3227,655.3834 590.0386,620.0768 567.3143,604.9333 552.0088,593.3992 546.375,588.125 544.8462,586.0587 545.6435,586.0509 547.6351,587.2358 555.3432,593.9068 587.1895,626.3635 601.5202,640.0963 617.9746,654.3757 634.4269,667.1544 644.1577,674.0066 655.1925,681.2733 664.7569,686.9525 674.6601,692.2832 683.4741,696.2997 690.8789,698.9766 696.1836,699.9141 697.875,699.75 698.7728,699.1828 699.0712,698.4662 699.0213,697.5192 698.0978,695.4763 693.0537,689.8084 684.534,682.3756 671.6332,672.7478 659.5935,664.4064 643.7586,654.0902 575.0251,610.6064 557.848,598.8223 545.625,589.375"/>
  </g>
</svg>
