<?xml version="1.0" encoding="utf-8" ?>
<svg xmlns="http://www.w3.org/2000/svg" xmlns:cc="http://creativecommons.org/ns" xmlns:dc="http://purl.org/dc/elements/1.1/" xmlns:ev="http://www.w3.org/2001/xml-events" xmlns:inkscape="http://www.inkscape.org/namespaces/inkscape" xmlns:rdf="http://www.w3.org/1999/02/22-rdf-syntax-ns" xmlns:sodipodi="http://sodipodi.sourceforge.net/DTD/sodipodi-0.dtd" xmlns:xlink="http://www.w3.org/1999/xlink" baseProfile="tiny" height="27.09333333cm" version="1.2" viewBox="0 0 1024.0 1024.0" width="27.09333333cm">
  <metadata>
    <rdf:RDF>
      <cc:Work>
        <dc:format>image/svg+xml</dc:format>
        <dc:source>vpype read './original_svgs/Strange Attractors #117.svg' linemerge linesimplify write './Strange Attractors #117.svg'
</dc:source>
        <dc:date>2024-08-05T01:35:27.659723</dc:date>
      </cc:Work>
    </rdf:RDF>
  </metadata>
  <defs/>
  <g fill="none" id="layer1" inkscape:groupmode="layer" inkscape:label="1" stroke="black" stroke-width="0.7mm" style="display:inline">
    <polyline points="579.125,369.0 530.625,345.375 497.375,327.0 475.875,311.375 463.25,296.5 457.75,281.25 458.5,264.625 465.125,245.875 478.0,224.0 498.5,198.375 528.125,168.25 569.375,133.5 624.75,95.5 695.125,58.375 777.875,31.25 862.5,27.75 931.5,60.5 968.875,131.0 971.625,225.125 950.75,322.0 921.75,406.625 895.25,473.125 876.25,521.75 865.75,554.75 862.125,574.625 863.125,583.75"/>
    <polyline points="865.75,583.5 867.125,575.25 864.75,560.625 856.875,541.25 843.125,518.875 824.375,495.5 802.375,472.75 779.0,451.875 756.125,433.375 735.125,417.625 716.75,404.5 688.375,385.0 670.125,372.875 659.375,366.25 656.0,364.625 653.375,363.875 651.5,364.125 650.0,365.125 648.625,366.875 647.5,369.125 643.5,379.0"/>
    <polyline points="641.75,383.0 637.75,391.5 632.875,400.375 630.125,404.75 621.0,417.5 611.125,428.875 601.25,438.5 591.625,446.375 579.625,454.625 569.0,460.5"/>
    <polyline points="566.5,461.625 559.625,464.625 555.375,466.125 549.625,467.75 544.375,468.75 538.375,469.25 534.375,469.0 530.875,468.25 526.625,466.625"/>
    <polyline points="525.75,466.0 522.25,463.5 520.0,461.0 518.0,458.0 515.75,453.375 513.625,446.125 512.625,439.125 512.375,435.125"/>
    <polyline points="512.375,433.0 512.5,426.0 513.5,418.0 516.375,405.625 520.25,394.625 526.25,382.125 535.125,367.875 543.25,357.25 553.375,346.0 566.0,334.375"/>
    <polyline points="573.25,328.5 581.25,322.875 589.875,317.375 599.0,312.375 608.75,308.0 618.75,304.375 629.0,301.75 639.25,300.375 649.125,300.5 658.375,302.25 666.75,305.625 673.875,310.875 679.5,317.875 683.625,326.375 686.125,336.125 687.0,346.75 686.25,358.125 684.375,369.75 681.25,381.375 677.25,392.75 672.5,403.75 667.375,414.125 661.875,423.75 656.25,432.75 644.875,448.375"/>
    <polyline points="639.25,455.25 628.625,466.875 618.625,476.5 609.625,484.25 594.0,496.125 565.0,515.625 558.25,520.75"/>
    <polyline points="556.75,522.0 550.625,527.625 545.5,534.375 544.25,536.625 541.875,542.25 540.125,550.875"/>
    <polyline points="540.0,552.125 539.625,558.875 539.875,581.625 539.5,587.375 538.625,593.25"/>
    <polyline points="538.125,595.375 536.125,601.625 532.625,607.875 529.25,612.125 524.5,616.125 521.625,618.0 514.375,621.5 509.875,623.0 499.0,625.375 492.375,626.125 485.0,626.5 476.625,626.375 467.5,625.75 457.375,624.625 446.375,622.625 434.625,620.0 422.25,616.5 409.625,612.25"/>
    <polyline points="397.0,607.125 384.875,601.25 373.5,594.75 363.5,587.75 355.25,580.625 348.875,573.5 344.625,566.75 342.5,560.375 342.25,554.625 343.875,549.625 346.75,545.375 350.875,541.75 355.625,538.75 361.0,536.25 366.625,534.25 378.0,531.25 408.0,525.375 419.75,522.625"/>
    <polyline points="423.25,521.625 429.625,519.625 437.875,516.25 442.625,514.0 450.625,509.125 457.125,504.125 461.0,500.25 464.25,496.375 467.625,491.0"/>
    <polyline points="468.375,489.625 470.25,485.375 471.625,481.0 473.375,471.625 473.875,462.75 473.5,445.875"/>
    <polyline points="473.375,443.5 473.125,423.75 473.75,413.25 474.625,405.5 476.0,396.625 477.125,391.875 478.375,386.75 481.875,375.625 487.125,362.625 490.625,355.375 494.875,347.625 500.0,339.125 506.25,330.0 513.75,320.0"/>
    <polyline points="522.625,309.25 533.375,297.75 546.0,285.375 561.125,272.375 578.75,258.875 599.0,245.5 622.0,232.875 647.375,221.875 674.375,214.0 701.625,210.625 727.5,213.25 749.875,222.875 767.0,239.75 777.875,263.0 782.25,290.875 780.75,321.375 774.75,352.125 765.75,381.625 755.125,408.625 744.125,432.375 733.25,453.0 723.125,470.5 714.0,485.0 705.75,497.0 698.5,506.875 692.0,514.875"/>
    <polyline points="686.375,521.25 681.375,526.375 672.875,533.5 669.25,536.0 662.75,539.25 657.0,541.0 651.75,541.875 629.25,542.875 625.375,543.375 620.125,544.625"/>
    <polyline points="618.5,545.125 612.625,547.625 609.125,550.125 605.375,554.125 604.125,556.375 602.375,561.375 602.125,564.125 602.125,567.0 603.375,573.125"/>
    <polyline points="604.0,574.75 607.375,581.5 609.75,585.0 612.75,588.625 620.625,596.0 625.75,599.75 631.625,603.375 642.5,608.5 651.125,611.5 661.125,614.0 672.375,615.5"/>
    <polyline points="678.5,615.75 685.0,615.75 691.625,615.25 698.375,614.25 705.25,612.5 712.0,610.25 718.5,607.125 724.5,603.125 729.875,598.375 734.25,592.625 737.375,586.0 739.25,578.625 739.5,570.5 738.0,561.875 735.0,552.875 730.375,543.75 724.375,534.75 717.375,526.0 709.375,517.75 700.75,510.0 691.875,503.0 682.875,496.75 665.25,486.375 648.875,478.875"/>
    <polyline points="641.25,476.0 627.5,471.875 621.125,470.375 609.75,468.5 599.875,467.75 587.0,467.75 576.375,468.5 546.875,472.625"/>
    <polyline points="545.125,472.875 537.25,473.125 532.0,472.625 527.5,471.375 525.5,470.5 522.0,468.375 519.625,466.25 517.625,463.625"/>
    <polyline points="517.0,462.75 515.125,459.625 512.625,453.375 511.125,447.375 510.625,444.0 510.0,436.125 510.0,429.375 511.125,418.875"/>
    <polyline points="511.625,415.875 513.0,409.625 516.25,399.0 521.375,386.875 523.625,382.375 529.25,372.875 536.375,362.375 540.75,356.875 551.0,345.125 563.875,333.0 571.5,326.875 579.625,320.75 588.625,315.0 598.25,309.625 608.375,304.75 619.125,300.75 630.0,297.75"/>
    <polyline points="640.75,296.25 651.375,296.125 661.25,297.875 670.125,301.5 677.75,307.0 683.875,314.375 688.125,323.5 690.75,333.875 691.5,345.25 690.75,357.375 688.5,369.75 685.125,382.125 680.75,394.125 675.75,405.625 670.25,416.375 664.5,426.375 658.625,435.625 652.625,444.125 641.0,458.625 635.5,464.875 625.0,475.5 615.5,484.25 611.0,487.875"/>
    <polyline points="606.75,491.25 595.5,499.75 570.875,516.5 563.5,522.0 559.0,525.875 552.25,533.125"/>
    <polyline points="551.375,534.375 547.875,540.375 546.375,544.125 545.0,549.375 544.0,557.625 543.875,568.5"/>
    <polyline points="544.0,570.25 544.25,579.125 544.0,590.875 543.25,597.25 541.625,603.875 538.625,610.625 535.5,615.25 533.5,617.5 528.375,621.75"/>
    <polyline points="525.125,623.875 516.875,627.5 511.75,629.125 505.875,630.5 499.125,631.5 491.375,632.125 482.625,632.25 472.75,631.875 461.75,630.75 449.5,629.0 436.375,626.25 422.375,622.5 407.75,617.75 393.0,612.0 378.625,605.25 365.25,597.75 353.25,589.625 343.375,581.25 336.0,573.0 331.25,565.125 329.0,557.875 329.25,551.5 331.375,546.0 335.25,541.375 340.25,537.75"/>
    <polyline points="345.875,534.875 352.125,532.625 364.75,529.5 376.875,527.5 406.0,523.375 417.0,520.875 428.75,517.0 438.125,512.5 443.875,508.875"/>
    <polyline points="445.625,507.625 448.875,505.0 454.25,499.875 457.5,495.75 460.125,491.625 461.625,488.875 464.0,483.0 464.875,479.875 466.25,471.75"/>
    <polyline points="466.375,470.125 466.625,459.0 464.125,424.125 463.875,417.5 464.125,406.375"/>
    <polyline points="464.25,402.25 466.0,388.375 468.25,377.625 469.875,371.625 474.625,358.125 478.0,350.5 487.125,333.125 493.5,323.125 501.125,312.25 510.625,300.25 522.25,287.0 536.5,272.625 553.625,257.25 574.25,241.0 598.625,224.5 626.875,208.5 658.5,194.75 692.375,185.0 726.625,181.625 758.5,187.0 784.625,202.375"/>
    <polyline points="802.75,227.625 811.75,260.75 812.0,298.5 805.5,337.5 794.75,374.75 782.0,408.5 768.875,437.875 756.5,462.5 745.25,482.75 735.625,499.125 727.5,512.0 720.625,522.0 714.875,529.625 710.0,535.375 705.875,539.375 702.125,542.0 698.75,543.5 695.625,544.25 692.5,544.25 686.375,542.625 679.75,539.75 669.0,534.5"/>
    <polyline points="665.125,532.75 657.375,529.5 645.5,525.625 633.875,523.125 623.0,522.0 619.625,521.875 610.0,522.375 601.5,523.75 591.625,526.625 585.5,529.5"/>
    <polyline points="583.625,530.5 578.625,533.75 575.75,536.125 572.125,539.875 569.125,543.875 566.875,548.0 564.75,554.0 563.625,560.375 563.375,565.5"/>
    <polyline points="563.375,567.25 564.5,578.625 566.0,587.125 571.875,612.0 574.625,626.75"/>
    <polyline points="575.0,629.875 575.375,639.75 574.625,646.625 573.875,650.125 571.0,657.25 568.75,660.75 565.625,664.25 561.625,667.625 556.5,670.875 550.0,674.0 541.625,676.625 531.25,678.875 518.125,680.375 501.875,680.875 481.875,679.875 457.625,677.0 428.875,671.5 395.875,662.875 359.5,650.5 321.625,634.25 285.625,614.375 254.875,592.25"/>
    <polyline points="232.875,569.875 221.25,549.5 219.375,532.75 225.125,520.625 235.625,513.0 248.25,509.375 261.0,508.75 272.75,510.5 283.0,513.875 291.5,518.375 298.5,523.5 304.25,529.125 309.0,535.0 320.625,551.75 324.375,556.625 328.375,561.125 332.75,564.875 337.5,568.0 342.5,570.5 348.0,572.25 353.625,573.25 359.625,573.75 365.625,573.625 371.75,573.0"/>
    <polyline points="378.0,572.0 384.0,570.625 395.875,567.125 406.875,563.0 426.25,554.375 462.75,536.375 473.5,531.375"/>
    <polyline points="475.375,530.625 484.625,526.625 490.625,524.375 497.875,522.125 501.75,521.25"/>
    <polyline points="502.25,521.125 507.125,520.875 509.375,521.375 511.125,522.375"/>
    <polyline points="511.25,522.625 513.125,524.5 516.0,530.125"/>
    <polyline points="516.125,530.5 519.125,539.5 520.875,546.375"/>
    <polyline points="521.125,547.25 522.75,555.0 523.875,563.0 524.25,569.375 524.0,576.375"/>
    <polyline points="523.75,577.875 522.0,585.5 518.875,591.875 516.625,595.0 513.625,598.0 511.875,599.5 507.625,602.25 505.125,603.625 499.125,605.875 491.875,607.625 483.0,608.625 478.0,608.875 472.5,608.75"/>
    <polyline points="466.75,608.5 453.875,606.75 447.0,605.375 432.625,601.375 425.375,598.75 418.25,595.75 411.5,592.5 405.125,588.875 399.375,585.125 394.25,581.125 390.125,577.125 386.75,573.125 384.5,569.125 383.125,565.375 382.75,561.75 383.125,558.375 384.375,555.25 386.375,552.5 388.875,549.875 391.75,547.625 395.125,545.5 398.625,543.75 406.25,540.5"/>
    <polyline points="410.125,539.0 439.125,530.125 450.75,526.25 460.5,522.5 466.625,519.75 473.5,516.375 476.375,514.625"/>
    <polyline points="477.75,513.875 484.625,509.125 489.5,504.75 492.875,500.375 495.375,495.0"/>
    <polyline points="495.625,494.25 496.25,491.875 497.0,485.75 497.0,478.625 496.25,468.75"/>
    <polyline points="496.125,467.375 494.875,452.625 494.5,442.375 494.625,435.125 495.75,420.875 497.625,410.75"/>
    <polyline points="498.375,407.0 500.625,398.875 503.75,389.875 510.75,374.375 517.625,362.5 526.75,349.25 539.0,334.375 546.5,326.5 555.0,318.25 564.75,309.875 575.625,301.375 587.75,293.125 601.125,285.125 615.625,278.0 631.0,272.125 646.875,267.875 662.75,265.875 678.0,266.625 692.0,270.375"/>
    <polyline points="704.0,277.625 713.375,288.0 719.875,301.25 723.25,316.875 723.875,334.0 721.75,351.875 717.75,369.875 712.125,387.375 705.375,403.875 698.125,419.125 690.5,432.875 683.0,445.375 675.5,456.375 668.375,466.0 661.5,474.625 655.125,482.0 643.5,494.25 633.375,503.625 624.5,511.0 610.25,521.625"/>
    <polyline points="607.25,523.75 597.125,531.0 591.125,535.75 586.375,540.25 583.75,543.25 581.5,546.25 578.25,552.25 577.125,555.375 576.375,558.625 575.75,563.75"/>
    <polyline points="575.75,565.5 576.0,571.0 576.875,576.75 579.125,585.125 581.625,591.875 586.125,601.625 590.625,609.5 594.125,615.125 600.625,624.0"/>
    <polyline points="603.125,627.125 608.875,633.625 615.625,640.375 623.875,647.25 634.0,654.5 646.75,661.875 654.375,665.5 663.125,669.125 673.0,672.5 684.375,675.75 697.375,678.5 712.375,680.75 729.375,682.125 748.5,682.125 769.625,680.375 792.25,675.875 815.5,668.0 837.375,655.5 855.625,637.875 867.125,614.625 869.375,586.375"/>
    <polyline points="861.125,554.5 843.125,521.375 818.125,489.375 789.75,460.0 761.25,434.5 735.125,412.875 694.5,380.125 680.625,368.0 670.375,358.125 663.5,350.25 659.25,343.875 657.125,339.125 656.75,335.75 657.5,333.75 659.125,333.125 661.125,333.75 663.25,335.625 665.125,338.625 666.75,342.75 667.75,347.875 668.125,353.75 667.75,360.375 666.625,367.5 664.875,375.0 662.5,382.625"/>
    <polyline points="659.625,390.25 656.25,397.75 652.375,405.125 644.0,419.0 635.0,431.5 621.25,447.125 608.25,459.375 600.125,466.125 592.625,471.75 576.125,482.5 565.25,488.5"/>
    <polyline points="562.875,489.875 547.0,497.625 527.875,506.125"/>
    <line x1="527.125" x2="516.875" y1="506.375" y2="511.125"/>
    <polyline points="516.625,511.25 514.75,512.5 513.5,514.25 513.5,516.25 514.375,519.875"/>
    <line x1="514.375" x2="516.5" y1="520.125" y2="527.5"/>
    <line x1="516.625" x2="520.375" y1="527.875" y2="542.25"/>
    <polyline points="520.625,543.0 523.625,558.125 524.5,566.625 524.5,569.375"/>
    <polyline points="524.625,570.75 524.125,577.875 522.875,584.0 521.125,588.75 517.125,595.125 512.375,599.625 508.125,602.5 502.75,605.0 496.125,607.125"/>
    <polyline points="492.375,607.875 483.5,609.0 478.375,609.25 467.125,608.75 454.125,607.125 447.25,605.75 432.75,601.75 425.375,599.125 418.125,596.125 411.25,592.75 404.75,589.125 398.875,585.375 393.75,581.375 389.5,577.25 386.125,573.125 383.75,569.125 382.375,565.25 382.0,561.625 382.375,558.25 383.625,555.125 385.625,552.375 388.125,549.75"/>
    <polyline points="391.125,547.5 398.125,543.5 405.75,540.25 417.5,536.25 438.75,529.875 450.5,526.0 460.25,522.25 468.25,518.625"/>
    <polyline points="470.0,517.75 478.875,512.625 485.25,508.0 488.5,504.875 491.0,501.875 493.375,498.125"/>
    <polyline points="493.75,497.375 495.5,492.5 496.5,486.375 496.625,479.375 496.25,473.5"/>
    <polyline points="496.125,472.25 494.25,443.625 494.375,434.0 495.25,422.625"/>
    <polyline points="495.75,419.5 497.625,409.125 499.625,401.25 502.5,392.5 508.875,377.375 515.25,365.875 519.125,359.5 523.75,352.875 535.0,338.375 542.0,330.625 550.0,322.5 559.125,314.25 569.375,305.75 580.875,297.25 593.75,289.0 607.625,281.375 622.625,274.625 638.375,269.375"/>
    <polyline points="654.5,266.0 670.25,265.25 685.125,267.375 698.375,272.75 709.25,281.5 717.375,293.375 722.5,307.875 724.5,324.375 723.75,342.125 720.75,360.25 715.75,378.25 709.5,395.375 702.5,411.375 695.0,426.0 687.375,439.25 679.75,451.0 672.5,461.5 665.5,470.625 658.75,478.625 652.625,485.625 641.25,497.125 631.5,505.875 623.0,512.875"/>
    <polyline points="619.125,515.75 594.375,533.75 586.125,541.25 583.625,544.25 580.625,548.75 578.5,553.25 577.125,558.125"/>
    <polyline points="576.75,559.75 576.375,563.125 576.5,570.25 577.0,574.125 578.875,582.125 582.0,591.0 585.25,598.125 587.875,603.25 594.5,614.0"/>
    <polyline points="596.5,616.875 601.0,622.875 606.375,629.125 612.625,635.625 620.125,642.375 629.375,649.375 640.875,656.5 655.375,663.625 664.125,667.0 674.125,670.375 685.5,673.375 698.5,676.0 713.25,678.0 730.0,679.125 748.875,678.875 769.375,676.75 791.375,672.0 813.5,663.875 834.25,651.5"/>
    <polyline points="851.125,634.0 861.5,611.25 863.125,583.875 854.875,553.375 837.5,521.625 813.625,491.0 786.5,462.875 759.125,438.375 733.75,417.5 693.875,385.75 679.75,374.0 669.25,364.5 661.75,356.75 656.875,350.625 654.0,345.875 652.875,342.5 652.875,340.375 653.75,339.375 655.125,339.5 656.75,340.875 658.25,343.125 659.625,346.5 660.5,350.625 661.0,355.625 660.875,361.25"/>
    <polyline points="660.125,367.375 658.75,373.875 656.875,380.5 654.5,387.375 651.625,394.25 648.375,400.875 641.0,413.75 632.75,425.5 628.625,430.875 620.125,440.625 615.875,445.0 603.75,456.25 599.875,459.5 589.0,467.625 582.25,472.125 573.25,477.5"/>
    <polyline points="570.375,479.125 558.125,485.375 546.5,490.375 538.75,493.125 533.75,494.625 528.625,495.75"/>
    <polyline points="527.75,495.875 524.375,496.375 520.375,496.375 518.125,496.0 515.25,494.875 513.25,493.375"/>
    <polyline points="512.875,493.125 511.5,491.625 509.25,488.25 507.5,484.625 505.25,478.375"/>
    <polyline points="505.0,477.5 503.125,470.25 500.625,456.375 499.875,449.375 499.5,441.25"/>
    <polyline points="499.5,439.0 500.0,426.25 501.25,417.25 502.625,410.5 504.5,403.0 507.25,394.75 513.25,380.625 519.125,369.875 522.75,364.125 531.625,351.5 543.25,337.75 550.375,330.375"/>
    <polyline points="558.375,322.875 567.375,315.25 577.375,307.625 588.5,300.25 600.625,293.25 613.625,287.0 627.25,281.75 641.375,278.0 655.375,276.125 669.0,276.625 681.5,279.625 692.5,285.5 701.25,294.0 707.75,305.125 711.625,318.375 713.0,333.125 712.0,348.75 709.125,364.75 704.625,380.625 699.125,395.875 692.75,410.125 685.875,423.375 678.875,435.375 671.875,446.25 665.0,455.875 658.375,464.5"/>
    <polyline points="652.0,472.125 646.0,478.875 634.875,490.125 625.0,498.875 620.625,502.625 608.875,511.625 586.625,527.625 577.75,535.375 573.75,539.75"/>
    <polyline points="572.625,541.25 569.75,545.625 567.0,551.625 565.75,556.375 565.0,561.375 564.875,568.375 565.125,572.125 567.0,584.25"/>
    <polyline points="567.5,586.375 577.625,625.875 579.875,639.0 580.25,649.5 579.25,656.875 578.125,660.625"/>
    <polyline points="576.5,664.375 574.25,668.0 571.25,671.75 567.125,675.375 561.75,678.875 554.75,682.125 545.75,685.0 534.125,687.25 519.625,688.625 501.25,688.875 478.375,687.375 450.5,683.625 417.25,676.625 378.875,665.625 337.0,650.125 294.625,629.875 256.0,606.0 225.75,580.375 207.125,555.875 200.875,535.125 204.75,519.625 215.375,509.875 229.125,505.125 243.375,504.375 256.25,506.625 267.25,511.125"/>
    <polyline points="276.125,517.0 283.125,524.0 288.625,531.5 293.0,539.25 303.875,562.0 307.875,568.625 312.5,574.5 317.625,579.375 323.375,583.375 329.75,586.25 336.75,588.0 344.0,588.875 351.5,589.0 359.25,588.25 366.875,586.875 374.375,585.0 381.75,582.75 395.5,577.75 408.0,572.25 424.125,564.375"/>
    <polyline points="428.875,562.0 451.75,550.375 467.75,543.25 474.0,540.875 481.0,538.75 489.375,537.0"/>
    <polyline points="490.625,536.875 495.0,536.625 500.375,537.25 505.375,539.125 507.75,540.75 509.875,542.75"/>
    <polyline points="510.25,543.25 513.0,547.0 515.25,551.625 516.75,556.0 518.0,561.0 518.5,564.375"/>
    <polyline points="518.625,565.5 518.875,571.625 518.375,576.875 517.375,581.0 515.75,585.25 512.125,590.875 509.5,593.625 504.25,597.375 502.0,598.5"/>
    <polyline points="499.625,599.625 494.125,601.5 487.375,602.875 479.5,603.75 470.375,603.625 460.0,602.625 454.5,601.75 448.75,600.5 436.875,597.25 431.0,595.125 419.625,590.125 414.5,587.25 409.75,584.125 405.5,580.875 401.875,577.625 398.875,574.375 396.75,571.0 395.25,567.875 394.5,564.75"/>
    <polyline points="394.5,561.75 395.125,559.0 396.375,556.375 398.125,554.0 402.75,549.875 408.625,546.25 415.25,543.25 422.0,540.625 462.5,527.5"/>
    <polyline points="464.625,526.75 474.125,523.125 484.125,518.75 492.125,514.625 495.75,512.375"/>
    <polyline points="496.375,511.875 499.875,509.125 501.625,507.25 503.125,505.0 504.125,502.375"/>
    <polyline points="504.25,502.0 504.75,499.0 504.75,496.125 503.875,489.0"/>
    <polyline points="503.75,488.375 500.75,472.0 499.375,462.75"/>
    <polyline points="499.125,461.25 498.375,454.75 497.75,445.25 497.625,436.25 497.875,431.125 498.625,422.625 500.25,412.875 504.375,397.5"/>
    <polyline points="505.875,393.125 512.25,378.625 518.375,367.5 522.25,361.375 526.625,355.0 537.5,341.25 544.125,333.875 551.625,326.25 560.25,318.5 569.875,310.5 580.625,302.625 592.5,295.0 605.375,287.875 619.25,281.625 633.625,276.625 648.5,273.375 663.0,272.25 676.875,273.75 689.375,278.125 700.0,285.375 708.25,295.625 713.75,308.25"/>
    <polyline points="716.5,322.875 716.75,338.875 714.75,355.5 710.75,372.25 705.5,388.5 699.25,403.875 692.375,418.125 685.125,431.125 677.875,442.875 670.75,453.375 663.875,462.625 651.0,478.125 645.0,484.5 634.25,495.125 624.75,503.375 612.75,512.875 597.25,523.875"/>
    <polyline points="594.75,525.75 588.125,530.75 582.75,535.375 577.25,541.25 574.125,545.75 571.75,550.25 570.625,553.375 569.25,559.875 568.875,565.0"/>
    <polyline points="568.875,566.875 569.375,574.375 570.875,582.5 573.25,591.375 579.5,609.125 586.875,626.875"/>
    <polyline points="588.375,630.125 603.25,663.125 612.5,684.875 617.375,699.375 619.875,709.5 620.5,714.75 620.625,720.125 620.0,725.5 618.5,731.0 615.5,736.375 610.625,741.75"/>
    <polyline points="603.0,746.75 591.75,751.375 575.5,755.125 552.0,757.375 519.0,756.875 473.0,752.125 410.875,740.25 331.5,717.375 239.375,680.125 148.375,628.125 80.5,568.75 51.5,515.125 58.625,478.5 85.25,461.875 114.625,462.125 137.375,475.0 150.5,496.75 155.0,525.375 153.625,559.125 150.5,596.0 149.375,633.375 153.625,667.625 165.5,695.375 184.875,714.125 209.875,723.0 237.5,723.25"/>
    <polyline points="264.875,717.0 289.625,706.5 310.625,693.875 327.25,680.625 339.625,667.75 348.375,655.5 353.875,644.125 356.875,633.625 358.0,623.875 358.0,614.875 355.5,591.5 355.125,584.875 355.375,578.625 356.25,573.0 357.875,568.0 360.375,563.375 363.375,559.375 367.0,555.75 371.0,552.625 375.375,549.875 379.875,547.5 389.375,543.375 394.125,541.75"/>
    <polyline points="398.875,540.125 431.875,530.125 444.5,525.625 452.5,522.375 459.25,519.25 468.625,514.125 471.625,512.125"/>
    <polyline points="473.125,511.125 479.125,506.375 482.875,502.625 485.125,499.875 488.5,494.125 490.0,490.25 490.75,487.125"/>
    <polyline points="491.0,486.0 492.0,476.75 491.875,465.5 491.125,449.375"/>
    <polyline points="491.0,447.25 491.0,438.0 491.5,427.125 492.625,417.75 494.75,406.75 498.25,394.0 504.25,379.0 510.125,367.375 513.875,361.0 523.25,347.125"/>
    <polyline points="529.125,339.5 536.0,331.5 543.875,323.125 552.875,314.375 563.125,305.375 574.75,296.25 587.875,287.25 602.25,278.625 618.0,270.875 634.75,264.5 652.125,259.875 669.375,258.0 686.0,259.125 700.875,263.875 713.5,272.25 723.125,284.375 729.375,299.625 732.125,317.25 731.75,336.375 728.75,356.0 723.625,375.375 717.0,394.0 709.5,411.25 701.5,427.0 693.5,441.125 685.5,453.625"/>
    <polyline points="677.875,464.625 670.625,474.25 663.875,482.5 651.625,496.0 646.125,501.375 632.0,513.875 624.125,519.875 598.25,538.5 593.5,542.875 591.0,545.75"/>
    <polyline points="589.875,547.125 587.875,550.125 586.375,553.125 584.75,557.75 583.875,562.5 583.75,567.75 584.125,571.25 585.875,579.0 589.125,587.25 591.375,591.75"/>
    <polyline points="592.625,594.0 599.125,603.625 603.375,608.75 608.25,614.0 617.5,622.375 629.625,630.875 640.0,636.625 646.0,639.375 652.625,642.125 660.0,644.75 668.125,647.125 677.25,649.25 687.375,651.0 698.5,652.25 710.625,652.875 723.875,652.5"/>
    <polyline points="738.0,650.875 752.75,647.875 767.5,642.875 781.75,635.625 794.375,625.75 804.375,613.0 810.375,597.5 811.625,579.5 807.625,559.625 798.5,539.0 785.0,518.375 768.625,498.625 750.5,480.625 732.0,464.5 714.25,450.625 697.75,438.75 670.125,420.625 659.125,413.875 635.25,400.5 625.25,395.75 618.375,393.25"/>
    <polyline points="615.75,392.625 613.5,392.375 610.0,392.625 608.5,393.125 605.875,394.75 603.625,396.875 595.375,406.5 590.0,412.125 585.75,415.875 581.375,419.125"/>
    <polyline points="580.0,420.0 575.75,422.5 573.0,423.75 567.75,425.5 564.125,426.0 560.0,425.75 557.25,424.75 555.625,423.875 553.125,421.125"/>
    <polyline points="552.75,420.375 551.875,418.5 551.375,416.25 551.125,411.25 551.75,406.75 553.875,400.0 556.625,394.375 560.375,388.25 567.25,380.0"/>
    <polyline points="569.375,377.875 578.75,370.0 584.25,366.625 589.875,363.875 595.75,361.875 598.625,361.25 601.5,360.875 607.0,361.125 609.5,361.625 611.875,362.5 614.0,363.75 617.5,367.0 619.75,371.5 620.5,374.25 621.0,380.125 620.75,383.375"/>
    <polyline points="620.25,386.625 618.375,393.5 615.5,400.5 613.75,403.875 609.875,410.5 607.625,413.75 600.625,422.5 595.75,427.625 590.75,432.25 583.25,438.125 573.875,444.125 567.25,447.375"/>
    <polyline points="565.125,448.25 559.25,450.25 553.875,451.5 549.125,452.0 544.75,451.875 539.625,450.625 536.375,449.125 533.5,446.875 531.125,444.125"/>
    <polyline points="530.375,443.125 528.0,438.125 526.5,432.0 526.0,424.625 526.25,420.375 527.875,410.625 530.375,402.125 532.875,395.875 536.125,389.125"/>
    <polyline points="538.125,385.5 545.625,374.0 552.125,365.75 560.125,357.25 569.625,348.625 580.75,340.375 586.875,336.5 600.0,329.75 607.0,327.125 614.0,325.125 621.125,323.75 628.0,323.25 634.625,323.75 640.875,325.125 646.5,327.625 651.375,331.25 655.375,335.75 658.5,341.25 660.625,347.625"/>
    <polyline points="661.75,354.625 661.875,362.125 661.25,370.0 659.625,378.0 657.375,386.125 654.5,394.125 651.125,402.0 647.375,409.5 639.0,423.5 634.625,429.875 625.625,441.25 616.75,451.0 612.5,455.25 604.125,462.875 592.625,472.125 582.375,479.25 576.125,483.125"/>
    <polyline points="573.25,484.875 558.375,493.125 531.375,506.125"/>
    <polyline points="530.5,506.5 521.625,511.125 518.625,513.375"/>
    <polyline points="518.375,513.5 516.75,515.25 516.0,516.75 515.625,518.5 515.75,521.875 516.5,525.75"/>
    <line x1="516.625" x2="519.875" y1="526.125" y2="539.125"/>
    <polyline points="520.0,539.875 523.0,553.75 524.375,564.0"/>
    <polyline points="524.5,565.25 524.625,573.375 524.25,577.75 523.0,583.875 521.25,588.625 518.5,593.375 514.375,598.125 512.625,599.625 508.375,602.375"/>
    <polyline points="505.875,603.75 503.125,605.0 496.625,607.125 488.625,608.625 479.0,609.25 473.5,609.25 467.625,609.0 454.75,607.25 447.75,605.875 433.25,602.0 418.625,596.5 411.625,593.125 399.125,585.75 394.0,581.625 389.625,577.625 386.125,573.5 383.75,569.5 382.25,565.625 381.75,561.875"/>
    <polyline points="382.125,558.5 383.375,555.375 385.25,552.5 387.75,549.875 390.75,547.5 394.0,545.5 401.375,541.875 409.25,538.875 450.25,526.0 460.0,522.25"/>
    <polyline points="462.125,521.25 471.5,516.875 477.375,513.5 482.125,510.25 487.625,505.625 491.375,501.0"/>
    <polyline points="491.875,500.25 492.875,498.75 494.625,494.875 495.75,490.625 496.375,486.125 496.375,477.875"/>
    <polyline points="496.375,476.75 494.25,447.25 494.375,433.125"/>
    <polyline points="494.5,430.5 495.75,418.5 497.0,411.625 501.375,395.5 504.875,386.125 509.75,375.625 512.75,369.875 520.5,357.375 525.25,350.625 530.75,343.5 537.125,335.875 544.375,328.0 552.75,319.875 562.125,311.375 572.875,302.875 584.875,294.5"/>
    <polyline points="598.0,286.375 612.375,278.875 627.75,272.625 643.625,267.875 659.75,265.375 675.25,265.375 689.75,268.625 702.25,275.125 712.375,284.875 719.5,297.625 723.625,313.0 724.75,330.0 723.25,348.0 719.5,366.125 714.0,384.0 707.5,400.75 700.25,416.375 692.625,430.625 685.0,443.375 677.5,454.75 670.25,464.75 663.375,473.5 656.875,481.125 650.75,487.875 639.625,498.875"/>
    <polyline points="634.75,503.375 621.75,514.0 598.0,531.125 590.25,537.375 583.375,544.75 580.5,549.25 579.125,552.375"/>
    <polyline points="578.5,553.875 577.125,558.75 576.5,563.75 576.75,571.0 577.75,576.75 580.0,585.125 581.625,589.5 584.75,596.625 588.75,604.125"/>
    <polyline points="590.25,606.75 593.625,612.25 597.625,618.0 602.375,624.0 611.0,633.5 618.125,640.125 626.875,647.0 637.75,654.125 651.375,661.25 659.625,664.75 668.875,668.0 679.5,671.25 691.625,674.0 705.5,676.375 721.125,677.875 738.75,678.375 758.375,677.25"/>
    <polyline points="779.5,673.875 801.375,667.625 822.875,657.5 841.75,642.75 855.625,623.0 861.875,598.125 858.75,569.375 846.125,538.375 825.5,507.25 800.0,478.0 772.75,451.75 746.375,429.25 686.625,381.5 674.125,371.0 665.0,362.375 658.625,355.5 654.625,350.0 652.5,346.0 651.625,343.125 652.0,341.5 652.875,341.0 654.25,341.625 655.75,343.25 657.125,345.875"/>
    <polyline points="658.25,349.375 658.875,353.625 659.125,358.625 658.75,364.25 657.75,370.375 656.25,376.625 654.25,383.25 648.875,396.5 642.0,409.25 638.25,415.25 630.25,426.5 626.125,431.625 617.75,441.0 609.625,449.125 601.75,456.0 594.375,461.875 584.0,469.125"/>
    <polyline points="580.875,471.25 569.25,478.0 557.125,484.0 544.0,489.25 536.75,491.5 531.875,492.625"/>
    <polyline points="530.875,492.875 525.25,493.5 521.5,493.375 517.75,492.5 513.875,490.125"/>
    <polyline points="513.375,489.75 511.0,487.0 508.5,482.625 506.875,478.875 504.75,472.25"/>
    <polyline points="504.375,471.25 502.125,461.125 500.625,449.625 500.125,439.375 500.625,426.875"/>
    <polyline points="501.0,424.0 502.375,414.625 505.0,403.875 507.625,395.75 511.25,386.75 516.0,376.75 522.5,365.75 531.125,353.375 536.375,346.75 542.375,339.875 549.125,332.75 556.875,325.375 565.5,317.75 575.25,310.25 585.875,302.875 597.625,295.875 610.25,289.5"/>
    <polyline points="623.5,284.125 637.375,280.125 651.25,277.75 664.75,277.625 677.375,280.0 688.5,285.0 697.75,292.75 704.75,303.0 709.25,315.5 711.375,329.625 711.0,344.75 708.75,360.5 704.75,376.125 699.5,391.375 693.5,405.75 686.875,419.125 680.0,431.375 673.0,442.375 666.125,452.375 659.5,461.125 647.0,476.0 635.625,487.625 625.625,496.75"/>
    <polyline points="621.125,500.5 612.875,507.125 586.375,526.25 580.5,531.0 575.75,535.5 571.875,539.875 569.75,542.75 567.25,547.125"/>
    <polyline points="566.625,548.625 565.0,553.25 564.25,556.5 563.5,561.375 563.375,568.375 563.75,574.0 564.625,580.0 565.75,586.375 567.875,595.625"/>
    <polyline points="568.375,598.0 572.125,613.875 574.625,628.75 575.125,638.625 574.5,645.375 573.75,648.875 571.125,655.875 569.0,659.375 566.125,662.875 562.375,666.375 557.625,669.625 551.5,672.75 543.625,675.5"/>
    <polyline points="533.75,677.875 521.5,679.625 506.125,680.375 487.25,679.75 464.375,677.5 437.0,672.75 405.25,665.125 369.875,653.875 332.5,638.75 295.875,619.875 263.625,598.375 239.125,576.125 224.625,555.125 220.125,537.375 223.875,523.875 233.25,515.125 245.375,510.375 258.25,508.875 270.375,510.0 281.0,512.875 290.0,517.0 297.375,521.875 303.5,527.25 308.5,532.875 316.75,544.25"/>
    <polyline points="320.5,549.625 328.125,559.0 332.375,563.0 336.875,566.25 341.75,568.875 347.0,570.875 352.5,572.125 358.25,572.75 364.25,572.875 376.375,571.5 388.375,568.75 394.125,567.0 405.25,563.0 415.5,558.75 429.125,552.5 444.25,545.0"/>
    <polyline points="447.625,543.375 470.625,532.0 484.0,526.125 493.125,522.625"/>
    <polyline points="494.0,522.375 500.0,520.375 503.25,519.625 507.5,519.25"/>
    <polyline points="507.875,519.375 509.25,519.5 510.625,520.125 512.75,522.0 515.125,526.375 516.875,531.375"/>
    <polyline points="517.0,531.875 519.75,540.875 521.625,549.125"/>
    <polyline points="521.875,550.0 523.75,560.625 524.375,568.125 524.25,575.0 523.375,581.0"/>
    <polyline points="523.0,582.5 522.125,585.625 520.0,590.375 518.0,593.5 515.375,596.625 512.0,599.625 507.75,602.375 505.25,603.75 499.25,606.0 495.75,607.0 487.625,608.375 483.0,608.875 478.0,609.0 466.625,608.625 453.75,606.875"/>
    <polyline points="446.75,605.375 439.625,603.625 425.125,598.75 411.125,592.5 404.75,588.875 398.875,585.0 393.875,581.0 389.625,577.0 386.375,572.875 384.125,569.0 382.75,565.125 382.375,561.5 382.875,558.25 384.125,555.125 386.125,552.25 388.625,549.75 395.0,545.375 398.625,543.5 410.125,538.875 417.875,536.375"/>
    <polyline points="421.75,535.25 442.25,529.0 460.5,522.375 470.25,517.875 475.0,515.375 480.25,512.0"/>
    <polyline points="481.375,511.25 486.375,507.375 489.375,504.5 491.25,502.25 494.0,497.75 495.875,492.25"/>
    <polyline points="496.125,491.375 496.75,487.0 496.875,480.125 495.625,463.5"/>
    <polyline points="495.5,462.0 494.5,447.5 494.375,440.875 494.875,428.0 495.5,422.0 497.125,412.0 498.875,404.5 501.375,396.125"/>
    <polyline points="503.0,391.625 504.875,386.75 509.625,376.375 512.625,370.75 520.125,358.375 530.25,344.5 536.5,337.0 543.625,329.25 551.75,321.125 561.125,312.75 571.5,304.25 583.25,295.875 596.25,287.75 610.5,280.25 625.625,273.875 641.375,268.875 657.375,266.0 673.0,265.75 687.5,268.5 700.25,274.5 710.625,283.75 718.125,296.125 722.75,311.0"/>
    <polyline points="724.25,327.75 723.0,345.5 719.625,363.625 714.375,381.375 708.0,398.25 700.875,414.0 693.375,428.375 685.75,441.375 678.25,452.875 671.0,463.0 657.5,479.75 645.5,492.5 635.125,502.375 626.125,510.0 614.75,518.625 600.375,528.875"/>
    <polyline points="598.0,530.625 591.875,535.375 587.0,539.875 583.125,544.375 580.25,548.75 577.5,555.0 576.375,559.875 576.0,563.25 576.125,570.375"/>
    <polyline points="576.375,572.25 578.0,580.25 580.75,588.875 584.875,598.375 587.5,603.375 590.5,608.75 598.125,620.125 603.0,626.25 611.875,635.875"/>
    <polyline points="615.375,639.25 623.5,646.25 628.25,649.75 639.5,657.0 653.75,664.25 662.375,667.75 672.125,671.25 683.25,674.375 696.125,677.125 710.75,679.375 727.375,680.75 746.0,680.875 766.75,679.25 789.0,675.125 811.75,667.5 833.5,655.75 851.75,638.875 863.875,616.5 867.125,589.125 860.125,558.125 843.5,525.625 819.75,494.0 792.0,464.75"/>
    <polyline points="763.875,439.125 737.75,417.375 696.375,384.25 681.875,371.875 671.0,361.875 663.5,353.875 658.625,347.375 656.0,342.5 655.125,339.0 655.5,336.75 656.625,335.75 658.375,336.0 660.25,337.5 662.0,340.0 663.625,343.75 664.625,348.25 665.125,353.75 665.0,359.75 664.125,366.5 662.625,373.5 660.5,380.625 657.875,388.0 654.75,395.25 651.25,402.375 647.375,409.375"/>
    <polyline points="643.375,416.0 634.625,428.25 625.75,439.0 617.0,448.25 604.5,459.75 589.375,471.25 579.5,477.625 565.5,485.625 556.25,490.25"/>
    <polyline points="554.25,491.25 536.875,498.625 528.75,501.5 524.25,502.75"/>
    <polyline points="523.625,502.875 519.375,503.75 516.0,503.75 514.5,503.375 512.625,502.375 511.5,501.25 509.875,498.875 509.0,496.75"/>
    <polyline points="508.75,496.375 506.5,490.125 504.125,481.625"/>
    <polyline points="504.0,480.875 502.125,473.0 500.75,465.625 499.5,456.625 498.75,447.625"/>
    <polyline points="498.625,445.625 498.5,434.25 498.75,429.0 499.75,420.25 502.5,406.625 506.25,394.375 510.0,385.125 512.375,380.125 518.25,369.25 526.125,357.125 531.0,350.625"/>
    <polyline points="536.5,343.75 542.875,336.5 558.25,321.375 567.5,313.625 577.75,305.875 589.125,298.25 601.625,291.125 614.875,284.75 629.0,279.5 643.375,275.75 657.875,274.0 671.75,274.625 684.5,278.125 695.5,284.375 704.25,293.5 710.5,305.125 714.125,319.0 715.25,334.25 713.875,350.375 710.625,366.875 705.875,383.0 700.0,398.375 693.375,412.875 686.375,426.125 679.25,438.125"/>
    <polyline points="672.125,449.0 665.25,458.625 658.625,467.125 652.25,474.625 640.5,487.125 635.125,492.25 625.5,501.0 621.0,504.625 609.5,513.5 592.125,525.875 583.875,532.375 579.125,536.875"/>
    <polyline points="577.625,538.375 574.125,542.75 571.375,547.25 569.375,551.75 568.0,556.5 567.25,561.5 567.125,568.625 567.375,572.375 568.625,580.25"/>
    <polyline points="569.0,582.375 571.875,593.625 574.125,601.0 586.125,636.5 589.125,647.0 590.875,654.5"/>
    <polyline points="591.5,658.375 592.375,666.375 591.875,674.625 591.0,678.875 589.5,683.125 587.25,687.375 583.875,691.5 579.25,695.625 572.75,699.5 564.125,703.125 552.625,706.125 537.375,708.375 517.5,709.25 491.75,708.125 458.875,704.25 418.25,696.25 369.75,682.625 315.375,662.5 259.875,635.25 210.5,602.75 175.125,568.75 157.875,538.0 157.875,514.375 169.625,499.625"/>
    <polyline points="187.0,493.0 204.875,493.0 220.375,498.0 232.5,506.375 241.0,517.25 246.75,529.875 250.375,543.625 255.625,572.125 258.875,585.625 263.375,598.0 269.625,608.5 277.5,617.0 287.0,623.0 297.75,626.625 309.5,628.0 321.625,627.5 333.75,625.5 345.625,622.25 356.875,618.25 367.375,613.75 385.875,604.25 393.75,599.625 407.25,591.0"/>
    <polyline points="413.0,587.125 434.0,572.125 449.875,561.75 454.0,559.5 461.25,556.25 467.625,554.125 473.25,553.0"/>
    <polyline points="474.625,552.75 478.375,552.375 482.875,552.375 486.875,552.875 490.375,553.875 493.5,555.25 497.25,558.125"/>
    <polyline points="497.75,558.625 500.625,563.125 501.875,567.75 501.875,572.0 501.25,574.625 499.625,578.25"/>
    <polyline points="499.0,579.125 495.875,582.625 492.625,585.0 486.625,587.625 481.0,589.0 474.125,589.625 469.0,589.625 463.625,589.125 457.875,588.125 452.125,586.625"/>
    <polyline points="449.25,585.625 441.0,582.25 434.125,577.875 429.375,573.125 428.25,571.375 427.0,568.125 426.75,565.0 427.125,563.375 427.625,562.0 429.5,559.125 432.125,556.625 435.25,554.375 440.875,551.375"/>
    <polyline points="442.875,550.5 453.125,546.625 465.125,543.375 478.625,540.75 486.875,540.0"/>
    <polyline points="488.125,540.0 494.625,540.25 499.875,541.5 503.625,543.25 506.75,545.625 508.375,547.25"/>
    <polyline points="508.875,547.875 511.25,551.25 514.125,557.875 515.75,565.0 516.0,570.75"/>
    <polyline points="516.0,572.0 515.375,577.0 513.75,582.25 511.75,586.125 507.375,591.375 502.5,594.875 495.875,598.0 490.375,599.625 483.875,600.75"/>
    <polyline points="480.125,601.0 476.25,601.25 467.5,601.0 457.875,599.875 447.625,597.625 442.25,596.25 431.75,592.5 426.625,590.25 417.25,585.125 413.125,582.375 409.5,579.5 406.375,576.5 402.125,570.625 400.875,567.625 400.375,564.875 400.375,562.25 401.0,559.75 402.125,557.375 403.625,555.125 405.625,553.125"/>
    <polyline points="407.875,551.125 416.125,546.25 425.5,542.375 431.75,540.125 473.875,526.625"/>
    <polyline points="475.5,526.0 485.625,522.375 500.5,516.375"/>
    <line x1="501.0" x2="508.375" y1="516.25" y2="512.875"/>
    <polyline points="508.625,512.75 510.0,512.0 511.0,510.75 510.75,508.25 509.375,503.125"/>
    <line x1="509.25" x2="506.75" y1="502.875" y2="494.0"/>
    <polyline points="506.625,493.5 503.625,481.625 502.25,474.875"/>
    <polyline points="502.0,473.875 500.375,465.25 498.625,450.875 498.25,442.75 498.5,430.875"/>
    <polyline points="498.625,428.125 499.25,422.375 501.625,409.0 503.75,401.375 506.625,392.875 510.625,383.375 516.0,372.875 519.25,367.125 527.5,354.75 532.625,348.125 545.125,333.75 552.75,326.25 561.25,318.5 570.875,310.625 581.625,302.875 593.5,295.375"/>
    <polyline points="606.25,288.375 620.0,282.25 634.25,277.5 648.875,274.375 663.25,273.5 676.875,275.125 689.125,279.5 699.375,286.875 707.375,297.125 712.75,309.625 715.375,324.25 715.5,340.0 713.375,356.375 709.5,372.875 704.25,388.875 698.0,404.0 691.25,418.125 684.125,431.0 676.875,442.625 669.875,453.0 663.0,462.25 650.125,477.5 638.75,489.5 633.5,494.375"/>
    <polyline points="628.625,498.75 615.75,509.25 589.375,528.5 581.875,534.75 576.25,540.625 573.125,545.125 571.5,548.125"/>
    <polyline points="570.75,549.625 569.125,554.25 568.375,557.5 567.875,560.75 567.625,567.875 568.0,573.5 569.375,581.5 570.875,588.0 573.625,597.5"/>
    <polyline points="574.5,600.0 590.75,645.625 595.0,660.875 596.375,669.0 596.875,677.5 596.5,681.875 595.625,686.25"/>
    <polyline points="594.125,690.75 591.625,695.125 588.125,699.5 583.0,703.75 575.875,707.875 566.125,711.5 553.125,714.375 535.75,716.375 512.625,716.75 482.625,714.625 444.25,708.875 396.625,698.0 340.625,680.25 279.625,654.5 220.875,621.25 173.75,583.875 146.125,547.75 139.375,518.375 148.875,498.75 166.75,489.25 186.375,487.875 203.75,492.75 217.0,502.125 226.125,514.625 231.75,529.5 234.875,545.875"/>
    <polyline points="237.0,563.0 239.0,580.125 242.125,596.5 247.125,611.125 254.375,623.5 264.0,632.875 275.625,639.125 288.625,642.375 302.625,642.875 316.875,641.125 330.75,637.625 343.875,633.0 356.0,627.625 367.0,621.875 376.875,616.125 393.25,605.25 405.75,595.625 410.75,591.375 422.625,580.875 431.0,573.0"/>
    <polyline points="433.375,570.875 443.5,562.75 452.25,557.5 460.375,554.125 463.5,553.125 468.0,552.0 475.0,550.875"/>
    <polyline points="476.25,550.75 483.375,550.625 490.375,551.75 493.625,553.0 495.875,554.25 499.0,556.75"/>
    <polyline points="499.5,557.375 502.25,561.25 503.375,564.25 504.125,567.625 504.125,572.125 503.5,575.0 502.375,578.0"/>
    <polyline points="501.75,578.875 501.25,579.875 498.875,582.75 497.0,584.5 494.5,586.25 490.0,588.5 484.375,590.25 477.375,591.25 469.25,591.375 456.875,589.75 453.625,588.875"/>
    <polyline points="450.5,588.0 447.25,587.0 438.125,583.125 430.5,578.25 428.5,576.5 425.25,572.875 423.375,569.25 422.875,567.375 422.875,563.875 423.375,562.25 425.125,559.125 429.375,555.0 437.125,550.5"/>
    <polyline points="439.25,549.5 450.375,545.375 461.125,542.25 475.875,538.875 486.125,537.375"/>
    <polyline points="487.375,537.375 493.125,537.125 498.75,537.75 503.375,539.25 508.25,542.5"/>
    <polyline points="508.75,543.0 511.25,545.875 514.125,550.875 516.375,557.0 517.625,563.125"/>
    <polyline points="517.875,564.25 518.25,571.5 517.75,576.625 516.75,580.75 515.75,583.5 513.625,587.625 510.375,591.75 509.0,593.125 503.75,596.875"/>
    <polyline points="501.625,598.0 499.25,599.125 490.75,601.75 483.625,602.75 475.25,603.25 470.625,603.125 460.5,602.125 449.5,600.125 443.75,598.75 432.25,595.0 426.625,592.625 421.125,590.125 411.25,584.25 403.5,578.0 400.5,574.75 398.25,571.5 396.75,568.375"/>
    <polyline points="396.0,565.375 395.75,562.375 396.25,559.625 397.375,557.125 399.0,554.75 401.0,552.5 403.5,550.5 409.125,546.875 415.5,543.875 422.125,541.25 460.125,529.0"/>
    <polyline points="462.375,528.125 468.625,526.0 480.375,521.375 490.625,516.625 495.375,514.0"/>
    <polyline points="496.0,513.625 501.5,509.75 503.5,507.5 504.75,505.25"/>
    <polyline points="505.0,504.875 505.75,501.75 505.75,497.25 505.375,494.875"/>
    <line x1="505.375" x2="501.75" y1="494.375" y2="475.5"/>
    <polyline points="501.5,474.375 500.0,465.875 498.625,455.125 497.875,443.625 498.0,431.75"/>
    <polyline points="498.25,429.0 499.125,420.25 501.0,410.125 503.0,402.625 505.75,394.25 509.5,384.875 514.625,374.5 517.75,368.875 525.75,356.625 530.625,350.0 542.625,335.875 550.0,328.25 558.25,320.5 567.625,312.625 578.0,304.75 589.625,297.125"/>
    <polyline points="602.125,289.875 615.75,283.375 630.0,278.125 644.75,274.375 659.375,272.75 673.375,273.625 686.125,277.125 697.25,283.75 706.0,293.125 712.25,305.25 715.625,319.375 716.5,335.0 715.0,351.5 711.5,368.125 706.625,384.375 700.5,400.0 693.75,414.5 686.625,427.75 679.5,439.75 672.375,450.625 665.375,460.125 652.375,476.125 646.375,482.75 635.375,493.625"/>
    <polyline points="630.375,498.125 617.25,509.0 592.75,526.75 582.875,534.75 578.5,539.25 576.125,542.125 574.0,545.125 572.375,548.125"/>
    <polyline points="571.625,549.625 570.375,552.75 569.125,557.5 568.625,560.875 568.375,567.875 569.125,575.5 570.25,581.625 572.5,590.375 574.75,597.625"/>
    <polyline points="575.625,600.125 581.625,616.375 592.375,642.25 599.875,661.25 604.125,673.875 607.25,687.25"/>
    <polyline points="607.75,692.0 608.0,696.75 607.625,701.625 606.625,706.5 604.625,711.375 601.375,716.25 596.5,721.0 589.375,725.5 579.25,729.625 565.125,733.125 545.625,735.375 518.875,735.625 483.0,732.875 435.625,725.125 375.875,710.375 304.875,685.75 229.125,650.25 161.125,605.625 115.0,558.625 97.875,518.25 105.5,490.625 126.75,477.25 150.875,475.875 171.125,483.5 185.25,497.625 193.125,516.5"/>
    <polyline points="196.375,538.75 196.875,563.5 196.875,589.125 198.5,614.25 203.375,637.125 212.5,656.0 225.875,669.75 242.75,677.75 261.875,680.5 281.875,678.875 301.25,673.875 319.25,666.75 335.125,658.375 348.875,649.625 360.25,640.875 369.5,632.625 377.0,624.75 382.75,617.625 387.375,611.0 390.75,605.0 395.625,594.5 401.375,578.125"/>
    <polyline points="402.75,574.75 405.875,568.875 409.5,563.75 416.125,557.375 421.25,553.875 429.375,549.625 434.875,547.125 445.625,543.125 462.5,537.875"/>
    <polyline points="464.625,537.25 482.25,532.75 488.875,531.5 495.25,530.75 498.75,530.75"/>
    <polyline points="499.625,530.75 503.75,531.375 507.75,533.0 511.0,535.5 512.875,537.875"/>
    <polyline points="513.25,538.375 515.75,542.625 517.875,547.75 520.625,558.125"/>
    <polyline points="520.75,559.125 521.75,567.375 521.75,572.625 521.625,575.375 520.625,581.125 519.125,585.625 517.625,588.625 514.5,593.125"/>
    <polyline points="513.25,594.5 510.0,597.375 506.0,600.0 501.0,602.375 494.875,604.375 487.5,605.875 478.625,606.5 468.375,606.25 462.75,605.75 450.5,603.75 444.0,602.25 430.75,598.125 424.25,595.625 417.875,592.75 406.25,586.125 401.375,582.625"/>
    <polyline points="397.125,579.0 393.625,575.25 391.0,571.625 389.25,568.0 388.25,564.5 388.125,561.25 388.75,558.25 390.125,555.375 392.0,552.875 397.25,548.375 400.375,546.375 407.25,543.0 414.5,540.125 421.875,537.625 447.875,529.5"/>
    <polyline points="450.625,528.625 462.75,524.25 474.0,519.375 483.5,514.375 490.125,509.875"/>
    <polyline points="490.875,509.25 494.125,506.25 496.125,503.875 497.625,501.5 499.0,498.5 500.0,494.0"/>
    <polyline points="500.125,493.375 500.375,490.5 500.25,484.75 498.5,470.0"/>
    <polyline points="498.375,468.75 497.0,456.625 496.25,443.0 496.5,430.875 498.25,415.875"/>
    <polyline points="499.0,412.375 500.625,405.0 504.75,392.25 511.25,377.375 517.5,366.0 526.0,353.25 537.25,339.125 544.125,331.625 552.0,323.75 561.0,315.75 571.0,307.5 582.25,299.375 594.625,291.625 608.0,284.375 622.5,278.125 637.5,273.125 652.75,270.125 667.875,269.5"/>
    <polyline points="682.0,271.5 694.5,276.75 705.0,285.0 712.75,296.125 717.75,309.875 720.0,325.5 719.5,342.25 716.75,359.625 712.25,376.75 706.375,393.25 699.75,408.75 692.5,423.0 685.125,436.0 677.75,447.625 670.625,457.875 657.125,475.0 650.875,482.125 645.0,488.25 634.375,498.5 629.625,502.625 621.0,509.75 613.375,515.5"/>
    <polyline points="610.0,518.0 591.625,531.25 587.75,534.5 581.625,540.375 578.125,544.875 575.5,549.375 573.625,554.0 572.5,558.875"/>
    <polyline points="572.25,560.625 571.875,565.75 572.375,573.25 574.5,583.375 577.25,592.375 580.125,599.625 584.875,610.25 587.875,615.875"/>
    <polyline points="589.375,618.875 596.875,631.5 601.375,638.25 606.625,645.375 612.875,652.75 620.25,660.625 624.5,664.75 634.625,673.125 640.625,677.5 655.5,686.375 664.75,690.75 675.375,695.125 688.0,699.375 702.875,703.375 720.5,706.75 741.25,709.25 765.5,710.25"/>
    <polyline points="793.5,708.75 824.625,703.75 857.375,693.375 888.375,675.875 912.75,649.375 924.375,613.5 918.875,570.125 896.125,523.25 860.625,477.25 819.625,435.875 780.125,400.75 746.25,371.75 720.25,348.0 702.125,328.625 691.25,312.875 686.5,300.0 686.75,290.0 690.75,282.75 697.25,278.5 705.125,277.5 713.375,279.875 720.875,285.625 726.875,294.625 730.75,306.5 732.375,320.625 731.75,336.375"/>
    <polyline points="728.875,353.125 724.25,369.875 718.375,386.375 711.5,402.0 704.0,416.5 696.375,429.75 688.625,441.75 681.0,452.375 673.75,461.75 666.75,470.0 660.125,477.25 653.875,483.625 642.375,494.125 637.125,498.5 623.5,508.75 597.375,525.5"/>
    <polyline points="595.0,527.0 588.5,531.5 583.25,535.875 579.0,540.125 575.75,544.375 573.875,547.375 571.25,553.375 569.875,559.875 569.5,565.0"/>
  </g>
</svg>
